500 0 10 0           
7 Unknown 11 ACIS 5.0 NT 24 Thu Mar 25 16:47:37 1999 
-1 9.9999999999999995e-007 1e-010 
body $-1 $10 $-1 $11 #
body $-1 $12 $-1 $13 #
body $-1 $14 $-1 $15 #
body $-1 $16 $-1 $17 #
body $-1 $18 $-1 $19 #
body $-1 $20 $-1 $21 #
body $-1 $22 $-1 $23 #
body $-1 $24 $-1 $25 #
body $-1 $26 $-1 $27 #
body $-1 $28 $-1 $29 #
lump $-1 $-1 $30 $0 #
transform $-1 1 0 0 0 1 0 0 0 1 72.86721396526994 37.197926616408679 10.705287874550477 1 rotate no_reflect no_shear #
lump $-1 $-1 $31 $1 #
transform $-1 1 0 0 0 1 0 0 0 1 72.86721396526994 37.197926616408679 10.705287874550477 1 rotate no_reflect no_shear #
lump $-1 $-1 $32 $2 #
transform $-1 1 0 0 0 1 0 0 0 1 72.86721396526994 37.197926616408679 10.705287874550477 1 rotate no_reflect no_shear #
lump $-1 $-1 $33 $3 #
transform $-1 1 0 0 0 1 0 0 0 1 72.86721396526994 37.197926616408679 10.705287874550477 1 rotate no_reflect no_shear #
lump $-1 $-1 $34 $4 #
transform $-1 1 0 0 0 1 0 0 0 1 72.86721396526994 37.197926616408679 10.705287874550477 1 rotate no_reflect no_shear #
lump $-1 $-1 $35 $5 #
transform $-1 1 0 0 0 1 0 0 0 1 72.86721396526994 37.197926616408679 10.705287874550477 1 rotate no_reflect no_shear #
lump $-1 $-1 $36 $6 #
transform $-1 1 0 0 0 1 0 0 0 1 72.86721396526994 37.197926616408679 10.705287874550477 1 rotate no_reflect no_shear #
lump $-1 $-1 $37 $7 #
transform $-1 1 0 0 0 1 0 0 0 1 72.86721396526994 37.197926616408679 10.705287874550477 1 rotate no_reflect no_shear #
lump $-1 $-1 $38 $8 #
transform $-1 1 0 0 0 1 0 0 0 1 72.86721396526994 37.197926616408679 10.705287874550477 1 rotate no_reflect no_shear #
lump $-1 $-1 $39 $9 #
transform $-1 1 0 0 0 1 0 0 0 1 72.86721396526994 37.197926616408679 10.705287874550477 1 rotate no_reflect no_shear #
shell $-1 $-1 $-1 $40 $-1 $10 #
shell $-1 $-1 $-1 $41 $-1 $12 #
shell $-1 $-1 $-1 $42 $-1 $14 #
shell $-1 $-1 $-1 $43 $-1 $16 #
shell $-1 $-1 $-1 $44 $-1 $18 #
shell $-1 $-1 $-1 $45 $-1 $20 #
shell $-1 $-1 $-1 $46 $-1 $22 #
shell $-1 $-1 $-1 $47 $-1 $24 #
shell $-1 $-1 $-1 $48 $-1 $26 #
shell $-1 $-1 $-1 $49 $-1 $28 #
face $-1 $50 $51 $30 $-1 $52 forward single #
face $-1 $53 $54 $31 $-1 $55 reversed single #
face $-1 $56 $57 $32 $-1 $58 reversed single #
face $-1 $59 $60 $33 $-1 $61 forward single #
face $-1 $62 $63 $34 $-1 $64 forward single #
face $-1 $65 $66 $35 $-1 $67 forward single #
face $-1 $68 $69 $36 $-1 $70 reversed single #
face $-1 $71 $72 $37 $-1 $73 forward single #
face $-1 $74 $75 $38 $-1 $76 forward single #
face $-1 $77 $78 $39 $-1 $79 forward single #
face $-1 $80 $81 $30 $-1 $82 reversed single #
loop $-1 $-1 $83 $40 #
plane-surface $-1 0 0 10.705287874550477 0 0 1 1 0 0 forward_v I I I I #
face $-1 $84 $85 $31 $-1 $86 reversed single #
loop $-1 $-1 $87 $41 #
plane-surface $-1 0 -31.234296840943973 5.469246532643357 0 0 1 1 0 0 forward_v I I I I #
face $-1 $88 $89 $32 $-1 $90 reversed single #
loop $-1 $-1 $91 $42 #
plane-surface $-1 -72.867213965269912 -22.068119774103202 0.85055165997034976 -0.64278761758704617 0 0.76604443648966558 0.76604443648966558 0 0.64278761758704617 forward_v I I I I #
face $-1 $92 $93 $33 $-1 $94 forward single #
loop $-1 $95 $96 $43 #
cone-surface $-1 -66.542585322673318 -23.98964814892884 5.2387464731641664 0.64278761758704617 0 -0.76604443648966558 0.38302221824483279 0 0.32139380879352308 1 I I 0 1 0.5 forward I I I I #
face $-1 $97 $98 $34 $-1 $99 forward single #
loop $-1 $100 $101 $44 #
cone-surface $-1 -66.542585322673318 -22.068119774103202 5.2387464731641664 0.64278761758704617 0 -0.76604443648966558 0.38302221824483279 0 0.32139380879352308 1 I I 0 1 0.5 forward I I I I #
face $-1 $102 $103 $35 $-1 $104 forward single #
loop $-1 $105 $106 $45 #
cone-surface $-1 -66.542585322673318 -20.146591399277565 5.2387464731641664 0.64278761758704617 0 -0.76604443648966558 0.38302221824483279 0 0.32139380879352308 1 I I 0 1 0.5 forward I I I I #
face $-1 $107 $108 $36 $-1 $109 reversed single #
loop $-1 $-1 $110 $46 #
plane-surface $-1 108.65603758007612 -12.506804595323072 207.73317622348932 0 -1 0 -0.81915205242281985 0 -0.57357642473473569 forward_v I I I I #
face $-1 $111 $112 $37 $-1 $113 forward single #
loop $-1 $114 $115 $47 #
cone-surface $-1 70.062445549480344 -22.717894571448028 7.2273781364512821 -0.81915205242281985 0 -0.57357642473473569 0.57357642473473569 0 -0.81915205242281985 1 I I 0 1 1 forward I I I I #
face $-1 $116 $117 $38 $-1 $118 forward single #
loop $-1 $119 $120 $48 #
cone-surface $-1 70.062445549480344 -18.888735830401167 7.2273781364512821 -0.81915205242281985 0 -0.57357642473473569 0.57357642473473569 0 -0.81915205242281985 1 I I 0 1 1 forward I I I I #
face $-1 $121 $122 $39 $-1 $123 forward single #
loop $-1 $124 $125 $49 #
cone-surface $-1 70.062445549480344 -15.05957708935431 7.2273781364512821 -0.81915205242281985 0 -0.57357642473473569 0.57357642473473569 0 -0.81915205242281985 1 I I 0 1 1 forward I I I I #
face $-1 $126 $127 $30 $-1 $128 reversed single #
loop $-1 $-1 $129 $50 #
plane-surface $-1 0 0 -10.705287874550477 0 0 1 1 0 0 forward_v I I I I #
coedge $-1 $130 $131 $132 $133 forward $51 $-1 #
face $-1 $134 $135 $31 $-1 $136 reversed single #
loop $-1 $-1 $137 $53 #
plane-surface $-1 0 -25.270667065479266 8.0872672035969178 0 -1 0 0 0 -1 forward_v I I I I #
coedge $-1 $138 $139 $140 $141 reversed $54 $-1 #
face $-1 $142 $143 $32 $-1 $144 forward single #
loop $-1 $-1 $145 $56 #
plane-surface $-1 -166.54349969515272 -18.865572482727138 112.48959938116455 0 -1 0 0.64278761758704617 0 -0.76604443648966558 forward_v I I I I #
coedge $-1 $146 $147 $148 $149 reversed $57 $-1 #
face $-1 $-1 $150 $33 $-1 $151 forward single #
loop $-1 $152 $153 $59 #
cone-surface $-1 -65.929468296583835 -23.98964814892884 4.5080620699454936 0.64278761758704617 0 -0.76604443648966558 0.1915111091224164 0 0.16069690439676154 1 I I -0.70710678118654746 0.70710678118654746 0.25 forward I I I I #
loop $-1 $-1 $154 $43 #
coedge $-1 $96 $96 $155 $156 reversed $60 $-1 #
face $-1 $-1 $157 $34 $-1 $158 forward single #
loop $-1 $159 $160 $62 #
cone-surface $-1 -65.929468296583835 -22.068119774103202 4.5080620699454936 0.64278761758704617 0 -0.76604443648966558 0.1915111091224164 0 0.16069690439676154 1 I I -0.70710678118654746 0.70710678118654746 0.25 forward I I I I #
loop $-1 $-1 $161 $44 #
coedge $-1 $101 $101 $162 $163 reversed $63 $-1 #
face $-1 $-1 $164 $35 $-1 $165 forward single #
loop $-1 $166 $167 $65 #
cone-surface $-1 -65.929468296583835 -20.146591399277565 4.5080620699454936 0.64278761758704617 0 -0.76604443648966558 0.1915111091224164 0 0.16069690439676154 1 I I -0.70710678118654746 0.70710678118654746 0.25 forward I I I I #
loop $-1 $-1 $168 $45 #
coedge $-1 $106 $106 $169 $170 reversed $66 $-1 #
face $-1 $171 $172 $36 $-1 $173 forward single #
loop $-1 $-1 $174 $68 #
plane-surface $-1 -10.722618167891156 -18.888735830401167 124.14334409032826 0.81915205242281985 0 0.57357642473473569 0.57357642473473569 0 -0.81915205242281985 forward_v I I I I #
coedge $-1 $175 $176 $177 $178 reversed $69 $-1 #
face $-1 $-1 $179 $37 $-1 $180 forward single #
loop $-1 $181 $182 $71 #
cone-surface $-1 68.927927331668144 -22.717894571448028 6.4329799520794513 -0.81915205242281985 0 -0.57357642473473569 0.28678821236736785 0 -0.40957602621140993 1 I I -0.70710678118654746 0.70710678118654746 0.5 forward I I I I #
loop $-1 $-1 $183 $47 #
coedge $-1 $115 $115 $184 $185 reversed $72 $-1 #
face $-1 $-1 $186 $38 $-1 $187 forward single #
loop $-1 $188 $189 $74 #
cone-surface $-1 68.927927331668144 -18.888735830401167 6.4329799520794513 -0.81915205242281985 0 -0.57357642473473569 0.28678821236736785 0 -0.40957602621140993 1 I I -0.70710678118654746 0.70710678118654746 0.5 forward I I I I #
loop $-1 $-1 $190 $48 #
coedge $-1 $120 $120 $191 $192 reversed $75 $-1 #
face $-1 $-1 $193 $39 $-1 $194 forward single #
loop $-1 $195 $196 $77 #
cone-surface $-1 68.927927331668144 -15.05957708935431 6.4329799520794513 -0.81915205242281985 0 -0.57357642473473569 0.28678821236736785 0 -0.40957602621140993 1 I I -0.70710678118654746 0.70710678118654746 0.5 forward I I I I #
loop $-1 $-1 $197 $49 #
coedge $-1 $125 $125 $198 $199 reversed $78 $-1 #
face $-1 $200 $201 $30 $-1 $202 reversed single #
loop $-1 $-1 $203 $80 #
plane-surface $-1 0 -37.197926616408679 0 0 1 0 0 0 1 forward_v I I I I #
coedge $-1 $204 $205 $206 $207 forward $81 $-1 #
coedge $-1 $208 $83 $209 $210 forward $51 $-1 #
coedge $-1 $83 $208 $211 $212 forward $51 $-1 #
coedge $-1 $213 $214 $83 $133 reversed $215 $-1 #
edge $-1 $216 -37.197926616408679 $217 37.197926616408679 $132 $218 forward 7 unknown #
face $-1 $219 $220 $31 $-1 $221 reversed single #
loop $-1 $-1 $222 $84 #
plane-surface $-1 -72.86721396526994 0 0 1 0 0 0 0 -1 forward_v I I I I #
coedge $-1 $223 $224 $139 $225 reversed $85 $-1 #
coedge $-1 $226 $87 $227 $228 reversed $54 $-1 #
coedge $-1 $87 $226 $137 $225 forward $54 $-1 #
coedge $-1 $229 $230 $87 $141 forward $231 $-1 #
edge $-1 $232 -21.580778195936695 $233 -9.6535186450072796 $140 $234 forward 7 unknown #
face $-1 $235 $236 $32 $-1 $237 reversed single #
loop $-1 $-1 $148 $88 #
plane-surface $-1 0 0 10.705287874550477 0 0 1 1 0 0 forward_v I I I I #
coedge $-1 $238 $239 $240 $241 reversed $89 $-1 #
coedge $-1 $242 $91 $243 $244 reversed $57 $-1 #
coedge $-1 $91 $242 $238 $245 forward $57 $-1 #
coedge $-1 $240 $246 $91 $149 forward $143 $-1 #
edge $-1 $247 -14.236607178427665 $248 -7.8315125956755374 $148 $249 forward 7 unknown #
loop $-1 $-1 $155 $92 #
plane-surface $-1 -72.867213965269912 -22.068119774103202 0.85055165997034976 -0.64278761758704617 0 0.76604443648966558 0.76604443648966558 0 0.64278761758704617 forward_v I I I I #
loop $-1 $-1 $250 $59 #
coedge $-1 $153 $153 $154 $251 reversed $93 $-1 #
coedge $-1 $154 $154 $153 $251 forward $95 $-1 #
coedge $-1 $155 $155 $96 $156 forward $150 $-1 #
edge $-1 $252 0 $252 6.2831853071796004 $155 $253 forward 7 unknown #
loop $-1 $-1 $162 $97 #
plane-surface $-1 -72.867213965269912 -22.068119774103202 0.85055165997034976 -0.64278761758704617 0 0.76604443648966558 0.76604443648966558 0 0.64278761758704617 forward_v I I I I #
loop $-1 $-1 $254 $62 #
coedge $-1 $160 $160 $161 $255 reversed $98 $-1 #
coedge $-1 $161 $161 $160 $255 forward $100 $-1 #
coedge $-1 $162 $162 $101 $163 forward $157 $-1 #
edge $-1 $256 0 $256 6.2831853071796004 $162 $257 forward 7 unknown #
loop $-1 $-1 $169 $102 #
plane-surface $-1 -72.867213965269912 -22.068119774103202 0.85055165997034976 -0.64278761758704617 0 0.76604443648966558 0.76604443648966558 0 0.64278761758704617 forward_v I I I I #
loop $-1 $-1 $258 $65 #
coedge $-1 $167 $167 $168 $259 reversed $103 $-1 #
coedge $-1 $168 $168 $167 $259 forward $105 $-1 #
coedge $-1 $169 $169 $106 $170 forward $164 $-1 #
edge $-1 $260 0 $260 6.2831853071796004 $169 $261 forward 7 unknown #
face $-1 $262 $263 $36 $-1 $264 forward single #
loop $-1 $-1 $265 $107 #
plane-surface $-1 0 -25.270667065479266 8.0872672035969178 0 -1 0 0 0 -1 forward_v I I I I #
coedge $-1 $266 $267 $268 $269 reversed $108 $-1 #
coedge $-1 $176 $110 $270 $271 reversed $69 $-1 #
coedge $-1 $110 $175 $266 $272 reversed $69 $-1 #
coedge $-1 $268 $273 $110 $178 forward $263 $-1 #
edge $-1 $274 -18.539195175231882 $275 -14.379542726854297 $177 $276 forward 7 unknown #
loop $-1 $-1 $184 $111 #
plane-surface $-1 -10.722618167891156 -18.888735830401167 124.14334409032826 0.81915205242281985 0 0.57357642473473569 0.57357642473473569 0 -0.81915205242281985 forward_v I I I I #
loop $-1 $-1 $277 $71 #
coedge $-1 $182 $182 $183 $278 reversed $112 $-1 #
coedge $-1 $183 $183 $182 $278 forward $114 $-1 #
coedge $-1 $184 $184 $115 $185 forward $179 $-1 #
edge $-1 $279 0 $279 6.2831853071796004 $184 $280 forward 7 unknown #
loop $-1 $-1 $191 $116 #
plane-surface $-1 -10.722618167891156 -18.888735830401167 124.14334409032826 0.81915205242281985 0 0.57357642473473569 0.57357642473473569 0 -0.81915205242281985 forward_v I I I I #
loop $-1 $-1 $281 $74 #
coedge $-1 $189 $189 $190 $282 reversed $117 $-1 #
coedge $-1 $190 $190 $189 $282 forward $119 $-1 #
coedge $-1 $191 $191 $120 $192 forward $186 $-1 #
edge $-1 $283 0 $283 6.2831853071796004 $191 $284 forward 7 unknown #
loop $-1 $-1 $198 $121 #
plane-surface $-1 -10.722618167891156 -18.888735830401167 124.14334409032826 0.81915205242281985 0 0.57357642473473569 0.57357642473473569 0 -0.81915205242281985 forward_v I I I I #
loop $-1 $-1 $285 $77 #
coedge $-1 $196 $196 $197 $286 reversed $122 $-1 #
coedge $-1 $197 $197 $196 $286 forward $124 $-1 #
coedge $-1 $198 $198 $125 $199 forward $193 $-1 #
edge $-1 $287 0 $287 6.2831853071796004 $198 $288 forward 7 unknown #
face $-1 $289 $290 $30 $-1 $291 reversed single #
loop $-1 $-1 $292 $126 #
plane-surface $-1 -72.86721396526994 0 0 1 0 0 0 0 -1 forward_v I I I I #
coedge $-1 $293 $211 $294 $295 forward $127 $-1 #
coedge $-1 $296 $129 $293 $297 forward $81 $-1 #
coedge $-1 $129 $296 $298 $299 forward $81 $-1 #
coedge $-1 $214 $213 $129 $207 reversed $215 $-1 #
edge $-1 $300 -37.197926616408679 $301 37.197926616408679 $206 $302 forward 7 unknown #
coedge $-1 $131 $130 $303 $304 forward $51 $-1 #
coedge $-1 $305 $306 $130 $210 reversed $290 $-1 #
edge $-1 $217 -72.86721396526994 $307 72.86721396526994 $209 $308 forward 7 unknown #
coedge $-1 $203 $309 $131 $212 reversed $127 $-1 #
edge $-1 $310 -72.86721396526994 $216 72.86721396526994 $211 $311 forward 7 unknown #
coedge $-1 $206 $132 $309 $312 forward $215 $-1 #
coedge $-1 $132 $206 $305 $313 reversed $215 $-1 #
loop $-1 $-1 $213 $289 #
vertex $-1 $133 $314 #
vertex $-1 $133 $315 #
straight-curve $-1 72.86721396526994 0 10.705287874550477 0 1 0 I I #
face $-1 $316 $317 $31 $-1 $318 forward single #
loop $-1 $-1 $227 $134 #
plane-surface $-1 0 -37.197926616408679 0 0 1 0 0 0 1 forward_v I I I I #
coedge $-1 $319 $320 $223 $321 forward $135 $-1 #
coedge $-1 $322 $137 $222 $321 reversed $85 $-1 #
coedge $-1 $137 $322 $229 $323 reversed $85 $-1 #
edge $-1 $324 -72.86721396526994 $233 72.86721396526994 $137 $325 forward 7 unknown #
coedge $-1 $139 $138 $319 $326 reversed $54 $-1 #
coedge $-1 $327 $328 $138 $228 forward $220 $-1 #
edge $-1 $329 -72.86721396526994 $232 72.86721396526994 $227 $330 forward 7 unknown #
coedge $-1 $331 $140 $224 $323 forward $231 $-1 #
coedge $-1 $140 $331 $327 $332 forward $231 $-1 #
loop $-1 $-1 $229 $316 #
vertex $-1 $228 $333 #
vertex $-1 $141 $334 #
straight-curve $-1 72.86721396526994 -15.617148420471986 5.469246532643357 0 1 0 I I #
face $-1 $-1 $335 $32 $-1 $336 forward single #
loop $-1 $-1 $337 $142 #
plane-surface $-1 -72.86721396526994 0 0 1 0 0 0 0 -1 forward_v I I I I #
coedge $-1 $239 $145 $147 $245 reversed $89 $-1 #
coedge $-1 $145 $238 $337 $338 reversed $89 $-1 #
coedge $-1 $339 $148 $145 $241 forward $143 $-1 #
edge $-1 $248 -22.148952924114241 $340 -10.404535882306419 $240 $341 forward 7 unknown #
coedge $-1 $147 $146 $342 $343 reversed $57 $-1 #
coedge $-1 $344 $345 $146 $244 forward $335 $-1 #
edge $-1 $346 -30.23559750202001 $247 -14.904349754009957 $243 $347 forward 7 unknown #
edge $-1 $348 -3.7115501063952265e-014 $248 15.331247748010021 $238 $349 forward 7 unknown #
coedge $-1 $148 $339 $344 $350 forward $143 $-1 #
vertex $-1 $244 $351 #
vertex $-1 $149 $352 #
straight-curve $-1 -61.122796923462118 -11.034059887051601 10.705287874550478 0 1 0 I I #
coedge $-1 $250 $250 $-1 $353 reversed $152 $-1 #
edge $-1 $354 0 $354 6.2831853071796004 $153 $355 forward 7 unknown #
vertex $-1 $156 $356 #
ellipse-curve $-1 -66.995005444366029 -23.98964814892884 5.7779197672604026 -0.64278761758704617 0 0.76604443648966558 0.38302221824483279 0 0.32139380879352308 1 I I #
coedge $-1 $254 $254 $-1 $357 reversed $159 $-1 #
edge $-1 $358 0 $358 6.2831853071796004 $160 $359 forward 7 unknown #
vertex $-1 $163 $360 #
ellipse-curve $-1 -66.995005444366029 -22.068119774103202 5.7779197672604026 -0.64278761758704617 0 0.76604443648966558 0.38302221824483279 0 0.32139380879352308 1 I I #
coedge $-1 $258 $258 $-1 $361 reversed $166 $-1 #
edge $-1 $362 0 $362 6.2831853071796004 $167 $363 forward 7 unknown #
vertex $-1 $170 $364 #
ellipse-curve $-1 -66.995005444366029 -20.146591399277565 5.7779197672604026 -0.64278761758704617 0 0.76604443648966558 0.38302221824483279 0 0.32139380879352308 1 I I #
face $-1 $-1 $365 $36 $-1 $366 reversed single #
loop $-1 $-1 $268 $171 #
plane-surface $-1 0 0 10.705287874550477 0 0 1 1 0 0 forward_v I I I I #
coedge $-1 $367 $368 $267 $369 reversed $172 $-1 #
coedge $-1 $370 $174 $176 $272 forward $108 $-1 #
coedge $-1 $174 $370 $265 $369 forward $108 $-1 #
coedge $-1 $371 $177 $174 $269 forward $263 $-1 #
edge $-1 $275 3.062436680122488 $372 15.826299150278683 $268 $373 forward 7 unknown #
coedge $-1 $374 $375 $175 $271 forward $365 $-1 #
edge $-1 $376 -99.101899769383721 $274 -93.161300237194183 $270 $377 forward 7 unknown #
edge $-1 $275 138.48229505164537 $376 145.73442793053997 $176 $378 forward 7 unknown #
coedge $-1 $177 $371 $374 $379 forward $263 $-1 #
vertex $-1 $271 $380 #
vertex $-1 $178 $381 #
straight-curve $-1 54.328018790038058 -12.506804595323072 10.705287874550478 -1 0 0 I I #
coedge $-1 $277 $277 $-1 $382 reversed $181 $-1 #
edge $-1 $383 0 $383 6.2831853071796004 $182 $384 forward 7 unknown #
vertex $-1 $185 $385 #
ellipse-curve $-1 70.787387741081133 -22.717894571448028 7.734988108455739 0.81915205242281985 0 0.57357642473473569 0.57357642473473569 0 -0.81915205242281985 1 I I #
coedge $-1 $281 $281 $-1 $386 reversed $188 $-1 #
edge $-1 $387 0 $387 6.2831853071796004 $189 $388 forward 7 unknown #
vertex $-1 $192 $389 #
ellipse-curve $-1 70.787387741081133 -18.888735830401167 7.734988108455739 0.81915205242281985 0 0.57357642473473569 0.57357642473473569 0 -0.81915205242281985 1 I I #
coedge $-1 $285 $285 $-1 $390 reversed $195 $-1 #
edge $-1 $391 0 $391 6.2831853071796004 $196 $392 forward 7 unknown #
vertex $-1 $199 $393 #
ellipse-curve $-1 70.787387741081133 -15.05957708935431 7.734988108455739 0.81915205242281985 0 0.57357642473473569 0.57357642473473569 0 -0.81915205242281985 1 I I #
face $-1 $-1 $215 $30 $-1 $394 reversed single #
loop $-1 $-1 $305 $200 #
plane-surface $-1 0 37.197926616408679 0 0 -1 0 0 0 -1 forward_v I I I I #
coedge $-1 $395 $303 $306 $396 forward $201 $-1 #
coedge $-1 $309 $203 $204 $297 reversed $127 $-1 #
coedge $-1 $303 $395 $203 $295 reversed $201 $-1 #
edge $-1 $310 -10.705287874550477 $397 10.705287874550477 $294 $398 forward 7 unknown #
coedge $-1 $205 $204 $395 $399 forward $81 $-1 #
edge $-1 $301 -72.86721396526994 $397 72.86721396526994 $293 $400 forward 7 unknown #
coedge $-1 $306 $305 $205 $299 reversed $290 $-1 #
edge $-1 $401 -72.86721396526994 $300 72.86721396526994 $298 $402 forward 7 unknown #
vertex $-1 $207 $403 #
vertex $-1 $312 $404 #
straight-curve $-1 72.86721396526994 0 -10.705287874550477 0 -1 0 I I #
coedge $-1 $292 $294 $208 $304 reversed $201 $-1 #
edge $-1 $307 -37.197926616408679 $310 37.197926616408679 $303 $405 forward 7 unknown #
coedge $-1 $298 $209 $214 $313 forward $290 $-1 #
coedge $-1 $209 $298 $292 $396 reversed $290 $-1 #
vertex $-1 $210 $406 #
straight-curve $-1 0 37.197926616408679 10.705287874550477 -1 0 0 I I #
coedge $-1 $211 $293 $213 $312 reversed $127 $-1 #
vertex $-1 $304 $407 #
straight-curve $-1 0 -37.197926616408679 10.705287874550477 1 0 0 I I #
edge $-1 $216 -10.705287874550477 $301 10.705287874550477 $213 $408 forward 7 unknown #
edge $-1 $217 -10.705287874550477 $300 10.705287874550477 $214 $409 forward 7 unknown #
point $-1 72.86721396526994 -37.197926616408679 10.705287874550477 #
point $-1 72.86721396526994 37.197926616408679 10.705287874550477 #
face $-1 $-1 $231 $31 $-1 $410 reversed single #
loop $-1 $-1 $411 $219 #
plane-surface $-1 0 0 10.705287874550477 0 0 1 1 0 0 forward_v I I I I #
coedge $-1 $412 $222 $226 $326 forward $135 $-1 #
coedge $-1 $222 $412 $413 $414 reversed $135 $-1 #
edge $-1 $415 -6.6616542727520196 $324 -1.4256129308448982 $222 $416 forward 7 unknown #
coedge $-1 $224 $223 $411 $417 reversed $85 $-1 #
edge $-1 $233 1.4256129308448982 $418 6.6616542727520196 $229 $419 forward 7 unknown #
vertex $-1 $326 $420 #
straight-curve $-1 0 -25.270667065479266 5.469246532643357 1 0 0 I I #
edge $-1 $324 9.6535186450072796 $329 21.580778195936695 $319 $421 forward 7 unknown #
coedge $-1 $422 $227 $230 $332 reversed $220 $-1 #
coedge $-1 $227 $422 $412 $423 forward $220 $-1 #
vertex $-1 $228 $424 #
straight-curve $-1 0 -37.197926616408679 5.469246532643357 1 0 0 I I #
coedge $-1 $230 $229 $425 $426 reversed $231 $-1 #
edge $-1 $427 -10.705287874550477 $232 -5.469246532643357 $230 $428 forward 7 unknown #
point $-1 72.86721396526994 -37.197926616408679 5.469246532643357 #
point $-1 72.86721396526994 -25.270667065479266 5.469246532643357 #
loop $-1 $-1 $243 $235 #
plane-surface $-1 0 -25.270667065479266 8.0872672035969178 0 -1 0 0 0 -1 forward_v I I I I #
coedge $-1 $342 $429 $239 $338 forward $236 $-1 #
edge $-1 $340 45.539511816031798 $348 55.394248030611948 $337 $430 forward 7 unknown #
coedge $-1 $246 $240 $429 $431 forward $143 $-1 #
vertex $-1 $431 $432 #
straight-curve $-1 -83.271749847576359 -18.865572482727138 10.705287874550478 -1 0 0 I I #
coedge $-1 $433 $337 $242 $343 forward $236 $-1 #
edge $-1 $348 7.8315125956755374 $346 14.236607178427665 $342 $434 forward 7 unknown #
coedge $-1 $345 $243 $246 $350 reversed $335 $-1 #
coedge $-1 $243 $344 $433 $435 reversed $335 $-1 #
vertex $-1 $435 $436 #
straight-curve $-1 -49.705402714906683 -25.270667065479266 20.285619344614613 0.76604443648966558 0 0.64278761758704617 I I #
vertex $-1 $343 $437 #
straight-curve $-1 -72.867213965269912 -18.865572482727138 0.85055165997034976 0.76604443648966558 0 0.64278761758704617 I I #
edge $-1 $438 -72.86721396526994 $247 -61.122796923462126 $246 $439 forward 7 unknown #
point $-1 -61.122796923462126 -25.270667065479266 10.705287874550477 #
point $-1 -61.122796923462118 -18.865572482727138 10.705287874550477 #
edge $-1 $440 1 $440 0 $250 $-1 forward 7 unknown #
vertex $-1 $251 $441 #
ellipse-curve $-1 -66.090165200980593 -23.98964814892884 4.6995731790679098 -0.64278761758704617 0 0.76604443648966558 0.38302221824483279 0 0.32139380879352308 1 I I #
point $-1 -66.611983226121225 -23.98964814892884 6.0993135760539454 #
edge $-1 $442 1 $442 0 $254 $-1 forward 7 unknown #
vertex $-1 $255 $443 #
ellipse-curve $-1 -66.090165200980593 -22.068119774103202 4.6995731790679098 -0.64278761758704617 0 0.76604443648966558 0.38302221824483279 0 0.32139380879352308 1 I I #
point $-1 -66.611983226121225 -22.068119774103202 6.0993135760539454 #
edge $-1 $444 1 $444 0 $258 $-1 forward 7 unknown #
vertex $-1 $259 $445 #
ellipse-curve $-1 -66.090165200980593 -20.146591399277565 4.6995731790679098 -0.64278761758704617 0 0.76604443648966558 0.38302221824483279 0 0.32139380879352308 1 I I #
point $-1 -66.611983226121225 -20.146591399277565 6.0993135760539454 #
loop $-1 $-1 $270 $262 #
plane-surface $-1 72.86721396526994 0 0 -1 0 0 0 0 1 forward_v I I I I #
coedge $-1 $368 $265 $446 $447 reversed $172 $-1 #
coedge $-1 $265 $367 $371 $448 reversed $172 $-1 #
edge $-1 $449 -145.73442793053997 $372 -138.48229505164534 $265 $450 forward 7 unknown #
coedge $-1 $267 $266 $375 $451 reversed $108 $-1 #
coedge $-1 $273 $268 $368 $448 forward $263 $-1 #
vertex $-1 $448 $452 #
straight-curve $-1 68.707561516892369 -9.4443679152005835 10.705287874550478 0 -1 0 I I #
coedge $-1 $446 $270 $273 $379 reversed $365 $-1 #
coedge $-1 $270 $446 $370 $451 forward $365 $-1 #
vertex $-1 $271 $453 #
straight-curve $-1 72.86721396526994 -12.506804595323072 103.86658811174466 0 0 1 I I #
straight-curve $-1 -10.722618167891156 -12.506804595323072 124.14334409032826 0.57357642473473569 0 -0.81915205242281985 I I #
edge $-1 $454 -25.270667065479266 $274 -12.506804595323072 $374 $455 forward 7 unknown #
point $-1 72.86721396526994 -12.506804595323072 10.705287874550477 #
point $-1 68.707561516892355 -12.506804595323072 10.705287874550464 #
edge $-1 $456 1 $456 0 $277 $-1 forward 7 unknown #
vertex $-1 $278 $457 #
ellipse-curve $-1 69.337503357879555 -22.717894571448028 6.719768164446819 0.81915205242281985 0 0.57357642473473569 0.57357642473473569 0 -0.81915205242281985 1 I I #
point $-1 71.360964165815872 -22.717894571448028 6.9158360560329246 #
edge $-1 $458 1 $458 0 $281 $-1 forward 7 unknown #
vertex $-1 $282 $459 #
ellipse-curve $-1 69.337503357879555 -18.888735830401167 6.719768164446819 0.81915205242281985 0 0.57357642473473569 0.57357642473473569 0 -0.81915205242281985 1 I I #
point $-1 71.360964165815872 -18.888735830401167 6.9158360560329246 #
edge $-1 $460 1 $460 0 $285 $-1 forward 7 unknown #
vertex $-1 $286 $461 #
ellipse-curve $-1 69.337503357879555 -15.05957708935431 6.719768164446819 0.81915205242281985 0 0.57357642473473569 0.57357642473473569 0 -0.81915205242281985 1 I I #
point $-1 71.360964165815872 -15.05957708935431 6.9158360560329246 #
plane-surface $-1 72.86721396526994 0 0 -1 0 0 0 0 1 forward_v I I I I #
coedge $-1 $294 $292 $296 $399 reversed $201 $-1 #
edge $-1 $307 -10.705287874550477 $401 10.705287874550477 $306 $462 forward 7 unknown #
vertex $-1 $399 $463 #
straight-curve $-1 -72.86721396526994 -37.197926616408679 0 0 0 -1 I I #
edge $-1 $397 -37.197926616408679 $401 37.197926616408679 $395 $464 forward 7 unknown #
straight-curve $-1 0 -37.197926616408679 -10.705287874550477 -1 0 0 I I #
vertex $-1 $299 $465 #
straight-curve $-1 0 37.197926616408679 -10.705287874550477 1 0 0 I I #
point $-1 72.86721396526994 37.197926616408679 -10.705287874550477 #
point $-1 72.86721396526994 -37.197926616408679 -10.705287874550477 #
straight-curve $-1 -72.86721396526994 0 10.705287874550477 0 -1 0 I I #
point $-1 -72.86721396526994 37.197926616408679 10.705287874550477 #
point $-1 -72.86721396526994 -37.197926616408679 10.705287874550477 #
straight-curve $-1 72.86721396526994 -37.197926616408679 0 0 0 -1 I I #
straight-curve $-1 72.86721396526994 37.197926616408679 0 0 0 -1 I I #
plane-surface $-1 72.86721396526994 0 0 -1 0 0 0 0 1 forward_v I I I I #
coedge $-1 $413 $425 $322 $417 forward $317 $-1 #
coedge $-1 $320 $319 $328 $423 reversed $135 $-1 #
coedge $-1 $466 $411 $320 $414 forward $317 $-1 #
edge $-1 $415 25.270667065479266 $467 37.197926616408679 $320 $468 forward 7 unknown #
vertex $-1 $414 $469 #
straight-curve $-1 -72.86721396526994 -25.270667065479266 4.0436336017984589 0 0 -1 I I #
edge $-1 $418 -72.86721396526994 $415 72.86721396526994 $411 $470 forward 7 unknown #
vertex $-1 $323 $471 #
straight-curve $-1 72.86721396526994 -25.270667065479266 4.0436336017984589 0 0 1 I I #
point $-1 -72.86721396526994 -25.270667065479266 5.469246532643357 #
straight-curve $-1 -72.86721396526994 -15.617148420471986 5.469246532643357 0 -1 0 I I #
coedge $-1 $328 $327 $466 $472 reversed $220 $-1 #
edge $-1 $467 -10.705287874550477 $329 -5.469246532643357 $412 $473 forward 7 unknown #
point $-1 -72.86721396526994 -37.197926616408679 5.469246532643357 #
coedge $-1 $411 $466 $331 $426 forward $317 $-1 #
edge $-1 $427 -37.197926616408679 $418 -25.270667065479266 $331 $474 forward 7 unknown #
vertex $-1 $426 $475 #
straight-curve $-1 72.86721396526994 -37.197926616408679 0 0 0 -1 I I #
coedge $-1 $337 $433 $339 $431 reversed $236 $-1 #
straight-curve $-1 -72.86721396526994 -18.865572482727138 56.244799690582276 0 0 -1 I I #
edge $-1 $340 18.865572482727138 $438 25.270667065479266 $429 $476 forward 7 unknown #
point $-1 -72.86721396526994 -18.865572482727138 10.705287874550477 #
coedge $-1 $429 $342 $345 $435 forward $236 $-1 #
straight-curve $-1 -72.86721396526994 -11.034059887051601 0.85055165997032989 0 -1 0 I I #
edge $-1 $346 -55.394248030611948 $438 -45.539511816031798 $433 $477 forward 7 unknown #
point $-1 -72.86721396526994 -25.270667065479266 0.85055165997032589 #
point $-1 -72.86721396526994 -18.865572482727138 0.85055165997032589 #
vertex $-1 $435 $478 #
straight-curve $-1 0 -25.270667065479266 10.705287874550477 1 0 0 I I #
vertex $-1 $353 $479 #
point $-1 -65.70714298273576 -23.98964814892884 5.0209669878614331 #
vertex $-1 $357 $480 #
point $-1 -65.70714298273576 -22.068119774103202 5.0209669878614331 #
vertex $-1 $361 $481 #
point $-1 -65.70714298273576 -20.146591399277565 5.0209669878614331 #
coedge $-1 $375 $374 $367 $447 forward $365 $-1 #
edge $-1 $454 93.161300237194183 $449 99.101899769383721 $446 $482 forward 7 unknown #
edge $-1 $372 68.707561516892355 $454 72.86721396526994 $371 $483 forward 7 unknown #
vertex $-1 $447 $484 #
straight-curve $-1 -10.722618167891156 -25.270667065479262 124.14334409032826 -0.57357642473473569 0 0.81915205242281985 I I #
edge $-1 $449 -15.826299150278679 $376 -3.062436680122488 $375 $485 forward 7 unknown #
point $-1 68.707561516892355 -25.270667065479266 10.705287874550477 #
point $-1 72.86721396526994 -12.506804595323072 4.764688342360941 #
vertex $-1 $379 $486 #
straight-curve $-1 72.86721396526994 0 10.705287874550477 0 1 0 I I #
vertex $-1 $382 $487 #
point $-1 69.911079782614294 -22.717894571448028 5.9006161120239993 #
vertex $-1 $386 $488 #
point $-1 69.911079782614294 -18.888735830401167 5.9006161120239993 #
vertex $-1 $390 $489 #
point $-1 69.911079782614294 -15.05957708935431 5.9006161120239993 #
straight-curve $-1 -72.86721396526994 37.197926616408679 0 0 0 -1 I I #
point $-1 -72.86721396526994 -37.197926616408679 -10.705287874550477 #
straight-curve $-1 -72.86721396526994 0 -10.705287874550477 0 1 0 I I #
point $-1 -72.86721396526994 37.197926616408679 -10.705287874550477 #
coedge $-1 $425 $413 $422 $472 forward $317 $-1 #
vertex $-1 $414 $490 #
straight-curve $-1 -72.86721396526994 0 10.705287874550477 0 -1 0 I I #
point $-1 -72.86721396526994 -25.270667065479266 10.705287874550478 #
straight-curve $-1 0 -25.270667065479266 10.705287874550477 -1 0 0 I I #
point $-1 72.86721396526994 -25.270667065479266 10.705287874550478 #
edge $-1 $467 -72.86721396526994 $427 72.86721396526994 $422 $491 forward 7 unknown #
straight-curve $-1 -72.86721396526994 -37.197926616408679 0 0 0 -1 I I #
straight-curve $-1 72.86721396526994 0 10.705287874550477 0 1 0 I I #
point $-1 72.86721396526994 -37.197926616408679 10.705287874550477 #
straight-curve $-1 -72.86721396526994 0 10.705287874550477 0 -1 0 I I #
straight-curve $-1 -72.86721396526994 -25.270667065479266 56.244799690582276 0 0 1 I I #
point $-1 -72.86721396526994 -25.270667065479266 10.705287874550478 #
point $-1 -65.768771392187077 -23.98964814892884 4.3165509608230774 #
point $-1 -65.768771392187077 -22.068119774103202 4.3165509608230774 #
point $-1 -65.768771392187077 -20.146591399277565 4.3165509608230774 #
straight-curve $-1 72.86721396526994 -25.270667065479262 103.86658811174466 0 0 -1 I I #
straight-curve $-1 0 -25.270667065479266 10.705287874550477 1 0 0 I I #
point $-1 72.86721396526994 -25.270667065479262 4.764688342360941 #
straight-curve $-1 72.86721396526994 -9.4443679152005835 4.7646883423609339 0 1 0 I I #
point $-1 72.86721396526994 -25.270667065479266 10.705287874550478 #
point $-1 68.518351305456733 -22.717894571448028 6.1461917397120835 #
point $-1 68.518351305456733 -18.888735830401167 6.1461917397120835 #
point $-1 68.518351305456733 -15.05957708935431 6.1461917397120835 #
point $-1 -72.86721396526994 -37.197926616408679 10.705287874550477 #
straight-curve $-1 0 -37.197926616408679 10.705287874550477 1 0 0 I I #
End-of-ACIS-data 