500 0 21 0           
7 Unknown 11 ACIS 5.0 NT 24 Fri Mar 26 15:11:42 1999 
-1 9.9999999999999995e-007 1e-010 
body $-1 $21 $-1 $22 #
body $-1 $23 $-1 $24 #
body $-1 $25 $-1 $26 #
body $-1 $27 $-1 $28 #
body $-1 $29 $-1 $30 #
body $-1 $31 $-1 $32 #
body $-1 $33 $-1 $34 #
body $-1 $35 $-1 $36 #
body $-1 $37 $-1 $38 #
body $-1 $39 $-1 $40 #
body $-1 $41 $-1 $42 #
body $-1 $43 $-1 $44 #
body $-1 $45 $-1 $46 #
body $-1 $47 $-1 $48 #
body $-1 $49 $-1 $50 #
body $-1 $51 $-1 $52 #
body $-1 $53 $-1 $54 #
body $-1 $55 $-1 $56 #
body $-1 $57 $-1 $58 #
body $-1 $59 $-1 $60 #
body $-1 $61 $-1 $62 #
lump $-1 $-1 $63 $0 #
transform $-1 1 0 0 0 1 0 0 0 1 74.157536545915093 36.756039164053846 16.156638791702026 1 rotate no_reflect no_shear #
lump $-1 $-1 $64 $1 #
transform $-1 1 0 0 0 1 0 0 0 1 74.157536545915093 36.756039164053846 16.156638791702026 1 rotate no_reflect no_shear #
lump $-1 $-1 $65 $2 #
transform $-1 1 0 0 0 1 0 0 0 1 74.157536545915093 36.756039164053846 16.156638791702026 1 rotate no_reflect no_shear #
lump $-1 $-1 $66 $3 #
transform $-1 1 0 0 0 1 0 0 0 1 74.157536545915093 36.756039164053846 16.156638791702026 1 rotate no_reflect no_shear #
lump $-1 $-1 $67 $4 #
transform $-1 1 0 0 0 1 0 0 0 1 74.157536545915093 36.756039164053846 16.156638791702026 1 rotate no_reflect no_shear #
lump $-1 $-1 $68 $5 #
transform $-1 1 0 0 0 1 0 0 0 1 74.157536545915093 36.756039164053846 16.156638791702026 1 rotate no_reflect no_shear #
lump $-1 $-1 $69 $6 #
transform $-1 1 0 0 0 1 0 0 0 1 74.157536545915093 36.756039164053846 16.156638791702026 1 rotate no_reflect no_shear #
lump $-1 $-1 $70 $7 #
transform $-1 1 0 0 0 1 0 0 0 1 74.157536545915093 36.756039164053846 16.156638791702026 1 rotate no_reflect no_shear #
lump $-1 $-1 $71 $8 #
transform $-1 1 0 0 0 1 0 0 0 1 74.157536545915093 36.756039164053846 16.156638791702026 1 rotate no_reflect no_shear #
lump $-1 $-1 $72 $9 #
transform $-1 1 0 0 0 1 0 0 0 1 74.157536545915093 36.756039164053846 16.156638791702026 1 rotate no_reflect no_shear #
lump $-1 $-1 $73 $10 #
transform $-1 1 0 0 0 1 0 0 0 1 74.157536545915093 36.756039164053846 16.156638791702026 1 rotate no_reflect no_shear #
lump $-1 $-1 $74 $11 #
transform $-1 1 0 0 0 1 0 0 0 1 74.157536545915093 36.756039164053846 16.156638791702026 1 rotate no_reflect no_shear #
lump $-1 $-1 $75 $12 #
transform $-1 1 0 0 0 1 0 0 0 1 74.157536545915093 36.756039164053846 16.156638791702026 1 rotate no_reflect no_shear #
lump $-1 $-1 $76 $13 #
transform $-1 1 0 0 0 1 0 0 0 1 74.157536545915093 36.756039164053846 16.156638791702026 1 rotate no_reflect no_shear #
lump $-1 $-1 $77 $14 #
transform $-1 1 0 0 0 1 0 0 0 1 74.157536545915093 36.756039164053846 16.156638791702026 1 rotate no_reflect no_shear #
lump $-1 $-1 $78 $15 #
transform $-1 1 0 0 0 1 0 0 0 1 74.157536545915093 36.756039164053846 16.156638791702026 1 rotate no_reflect no_shear #
lump $-1 $-1 $79 $16 #
transform $-1 1 0 0 0 1 0 0 0 1 74.157536545915093 36.756039164053846 16.156638791702026 1 rotate no_reflect no_shear #
lump $-1 $-1 $80 $17 #
transform $-1 1 0 0 0 1 0 0 0 1 74.157536545915093 36.756039164053846 16.156638791702026 1 rotate no_reflect no_shear #
lump $-1 $-1 $81 $18 #
transform $-1 1 0 0 0 1 0 0 0 1 74.157536545915093 36.756039164053846 16.156638791702026 1 rotate no_reflect no_shear #
lump $-1 $-1 $82 $19 #
transform $-1 1 0 0 0 1 0 0 0 1 74.157536545915093 36.756039164053846 16.156638791702026 1 rotate no_reflect no_shear #
lump $-1 $-1 $83 $20 #
transform $-1 1 0 0 0 1 0 0 0 1 74.157536545915093 36.756039164053846 16.156638791702026 1 rotate no_reflect no_shear #
shell $-1 $-1 $-1 $84 $-1 $21 #
shell $-1 $-1 $-1 $85 $-1 $23 #
shell $-1 $-1 $-1 $86 $-1 $25 #
shell $-1 $-1 $-1 $87 $-1 $27 #
shell $-1 $-1 $-1 $88 $-1 $29 #
shell $-1 $-1 $-1 $89 $-1 $31 #
shell $-1 $-1 $-1 $90 $-1 $33 #
shell $-1 $-1 $-1 $91 $-1 $35 #
shell $-1 $-1 $-1 $92 $-1 $37 #
shell $-1 $-1 $-1 $93 $-1 $39 #
shell $-1 $-1 $-1 $94 $-1 $41 #
shell $-1 $-1 $-1 $95 $-1 $43 #
shell $-1 $-1 $-1 $96 $-1 $45 #
shell $-1 $-1 $-1 $97 $-1 $47 #
shell $-1 $-1 $-1 $98 $-1 $49 #
shell $-1 $-1 $-1 $99 $-1 $51 #
shell $-1 $-1 $-1 $100 $-1 $53 #
shell $-1 $-1 $-1 $101 $-1 $55 #
shell $-1 $-1 $-1 $102 $-1 $57 #
shell $-1 $-1 $-1 $103 $-1 $59 #
shell $-1 $-1 $-1 $104 $-1 $61 #
face $-1 $105 $106 $63 $-1 $107 forward single #
face $-1 $108 $109 $64 $-1 $110 reversed single #
face $-1 $111 $112 $65 $-1 $113 forward single #
face $-1 $114 $115 $66 $-1 $116 forward single #
face $-1 $117 $118 $67 $-1 $119 forward single #
face $-1 $120 $121 $68 $-1 $122 reversed single #
face $-1 $123 $124 $69 $-1 $125 forward single #
face $-1 $126 $127 $70 $-1 $128 forward single #
face $-1 $129 $130 $71 $-1 $131 forward single #
face $-1 $132 $133 $72 $-1 $134 reversed single #
face $-1 $135 $136 $73 $-1 $137 forward single #
face $-1 $138 $139 $74 $-1 $140 forward single #
face $-1 $141 $142 $75 $-1 $143 forward single #
face $-1 $144 $145 $76 $-1 $146 reversed single #
face $-1 $147 $148 $77 $-1 $149 forward single #
face $-1 $150 $151 $78 $-1 $152 forward single #
face $-1 $153 $154 $79 $-1 $155 forward single #
face $-1 $156 $157 $80 $-1 $158 reversed single #
face $-1 $159 $160 $81 $-1 $161 forward single #
face $-1 $162 $163 $82 $-1 $164 forward single #
face $-1 $165 $166 $83 $-1 $167 forward single #
face $-1 $168 $169 $63 $-1 $170 reversed single #
loop $-1 $-1 $171 $84 #
plane-surface $-1 0 0 16.156638791702026 0 0 1 1 0 0 forward_v I I I I #
face $-1 $172 $173 $64 $-1 $174 reversed single #
loop $-1 $-1 $175 $85 #
plane-surface $-1 52.854246909796473 64.460932675667806 173.5579718481562 1 0 0 0 -0.5877852598018023 -0.80901698891910034 forward_v I I I I #
face $-1 $176 $177 $65 $-1 $178 forward single #
loop $-1 $179 $180 $86 #
cone-surface $-1 57.114904837020191 32.137692302168396 12.392704266399898 0 -0.5877852598018023 -0.80901698891910034 2 0 0 1 I I 0 1 2 forward I I I I #
face $-1 $181 $182 $66 $-1 $183 forward single #
loop $-1 $184 $185 $87 #
cone-surface $-1 63.505891727855783 32.137692302168396 12.392704266399898 0 -0.5877852598018023 -0.80901698891910034 2 0 0 1 I I 0 1 2 forward I I I I #
face $-1 $186 $187 $67 $-1 $188 forward single #
loop $-1 $189 $190 $88 #
cone-surface $-1 69.896878618691375 32.137692302168396 12.392704266399898 0 -0.5877852598018023 -0.80901698891910034 2 0 0 1 I I 0 1 2 forward I I I I #
face $-1 $191 $192 $68 $-1 $193 reversed single #
loop $-1 $-1 $194 $89 #
plane-surface $-1 -44.274221964328987 -156.74545503108345 100.2557531810408 -1 0 0 0 -0.80901700255871778 0.5877852410284794 forward_v I I I I #
face $-1 $195 $196 $69 $-1 $197 forward single #
loop $-1 $198 $199 $90 #
cone-surface $-1 -64.710261989424481 -35.075418529454353 14.208909163811262 0 0.80901700255871778 -0.5877852410284794 0.5 0 0 1 I I 0 1 0.5 forward I I I I #
face $-1 $200 $201 $70 $-1 $202 forward single #
loop $-1 $203 $204 $91 #
cone-surface $-1 -57.046746980013673 -35.075418529454353 14.208909163811262 0 0.80901700255871778 -0.5877852410284794 0.5 0 0 1 I I 0 1 0.5 forward I I I I #
face $-1 $205 $206 $71 $-1 $207 forward single #
loop $-1 $208 $209 $92 #
cone-surface $-1 -49.383231970602864 -35.075418529454353 14.208909163811262 0 0.80901700255871778 -0.5877852410284794 0.5 0 0 1 I I 0 1 0.5 forward I I I I #
face $-1 $210 $211 $72 $-1 $212 reversed single #
loop $-1 $-1 $213 $93 #
plane-surface $-1 -7.1954536913714424 -156.74545503108345 100.2557531810408 -1 0 0 0 -0.80901700255871778 0.5877852410284794 forward_v I I I I #
face $-1 $214 $215 $73 $-1 $216 forward single #
loop $-1 $217 $218 $94 #
cone-surface $-1 -27.631493716466935 -35.075418529454353 14.208909163811262 0 0.80901700255871778 -0.5877852410284794 0.5 0 0 1 I I 0 1 0.5 forward I I I I #
face $-1 $219 $220 $74 $-1 $221 forward single #
loop $-1 $222 $223 $95 #
cone-surface $-1 -19.967978707056126 -35.075418529454353 14.208909163811262 0 0.80901700255871778 -0.5877852410284794 0.5 0 0 1 I I 0 1 0.5 forward I I I I #
face $-1 $224 $225 $75 $-1 $226 forward single #
loop $-1 $227 $228 $96 #
cone-surface $-1 -12.304463697645318 -35.075418529454353 14.208909163811262 0 0.80901700255871778 -0.5877852410284794 0.5 0 0 1 I I 0 1 0.5 forward I I I I #
face $-1 $229 $230 $76 $-1 $231 reversed single #
loop $-1 $-1 $232 $97 #
plane-surface $-1 29.883314581586113 -156.74545503108345 100.2557531810408 -1 0 0 0 -0.80901700255871778 0.5877852410284794 forward_v I I I I #
face $-1 $233 $234 $77 $-1 $235 forward single #
loop $-1 $236 $237 $98 #
cone-surface $-1 9.447274556490612 -35.075418529454353 14.208909163811262 0 0.80901700255871778 -0.5877852410284794 0.5 0 0 1 I I 0 1 0.5 forward I I I I #
face $-1 $238 $239 $78 $-1 $240 forward single #
loop $-1 $241 $242 $99 #
cone-surface $-1 17.110789565901428 -35.075418529454353 14.208909163811262 0 0.80901700255871778 -0.5877852410284794 0.5 0 0 1 I I 0 1 0.5 forward I I I I #
face $-1 $243 $244 $79 $-1 $245 forward single #
loop $-1 $246 $247 $100 #
cone-surface $-1 24.774304575312229 -35.075418529454353 14.208909163811262 0 0.80901700255871778 -0.5877852410284794 0.5 0 0 1 I I 0 1 0.5 forward I I I I #
face $-1 $248 $249 $80 $-1 $250 reversed single #
loop $-1 $-1 $251 $101 #
plane-surface $-1 66.962082854543652 -156.74545503108345 100.2557531810408 -1 0 0 0 -0.80901700255871778 0.5877852410284794 forward_v I I I I #
face $-1 $252 $253 $81 $-1 $254 forward single #
loop $-1 $255 $256 $102 #
cone-surface $-1 46.526042829448158 -35.075418529454353 14.208909163811262 0 0.80901700255871778 -0.5877852410284794 0.5 0 0 1 I I 0 1 0.5 forward I I I I #
face $-1 $257 $258 $82 $-1 $259 forward single #
loop $-1 $260 $261 $103 #
cone-surface $-1 54.189557838858974 -35.075418529454353 14.208909163811262 0 0.80901700255871778 -0.5877852410284794 0.5 0 0 1 I I 0 1 0.5 forward I I I I #
face $-1 $262 $263 $83 $-1 $264 forward single #
loop $-1 $265 $266 $104 #
cone-surface $-1 61.85307284826979 -35.075418529454353 14.208909163811262 0 0.80901700255871778 -0.5877852410284794 0.5 0 0 1 I I 0 1 0.5 forward I I I I #
face $-1 $267 $268 $63 $-1 $269 reversed single #
loop $-1 $-1 $270 $105 #
plane-surface $-1 0 0 -16.156638791702026 0 0 1 1 0 0 forward_v I I I I #
coedge $-1 $271 $272 $273 $274 forward $106 $-1 #
face $-1 $275 $276 $64 $-1 $277 forward single #
loop $-1 $-1 $278 $108 #
plane-surface $-1 63.505891727855783 -22.716481094136896 53.568558004087464 0 0.5877852598018023 0.80901698891910034 1 0 0 forward_v I I I I #
coedge $-1 $279 $280 $281 $282 reversed $109 $-1 #
face $-1 $-1 $283 $65 $-1 $284 forward single #
loop $-1 $285 $286 $111 #
cone-surface $-1 57.114904837020191 30.921276205106722 10.718451175314566 0 -0.5877852598018023 -0.80901698891910034 1 0 0 1 I I -0.70710678118654746 0.70710678118654746 1 forward I I I I #
loop $-1 $-1 $287 $86 #
coedge $-1 $180 $180 $288 $289 reversed $112 $-1 #
face $-1 $-1 $290 $66 $-1 $291 forward single #
loop $-1 $292 $293 $114 #
cone-surface $-1 63.505891727855783 30.921276205106722 10.718451175314566 0 -0.5877852598018023 -0.80901698891910034 1 0 0 1 I I -0.70710678118654746 0.70710678118654746 1 forward I I I I #
loop $-1 $-1 $294 $87 #
coedge $-1 $185 $185 $295 $296 reversed $115 $-1 #
face $-1 $-1 $297 $67 $-1 $298 forward single #
loop $-1 $299 $300 $117 #
cone-surface $-1 69.896878618691375 30.921276205106722 10.718451175314566 0 -0.5877852598018023 -0.80901698891910034 1 0 0 1 I I -0.70710678118654746 0.70710678118654746 1 forward I I I I #
loop $-1 $-1 $301 $88 #
coedge $-1 $190 $190 $302 $303 reversed $118 $-1 #
face $-1 $304 $305 $68 $-1 $306 reversed single #
loop $-1 $-1 $307 $120 #
plane-surface $-1 -57.046746980013673 -36.75603916405386 13.078342195602858 0 -0.80901700255871778 0.5877852410284794 1 0 0 forward_v I I I I #
coedge $-1 $308 $309 $310 $311 reversed $121 $-1 #
face $-1 $-1 $312 $69 $-1 $313 forward single #
loop $-1 $314 $315 $123 #
cone-surface $-1 -64.710261989424481 -34.310800306913677 13.653381523712969 0 0.80901700255871778 -0.5877852410284794 0.25 0 0 1 I I -0.70710678118654746 0.70710678118654746 0.25 forward I I I I #
loop $-1 $-1 $316 $90 #
coedge $-1 $199 $199 $317 $318 reversed $124 $-1 #
face $-1 $-1 $319 $70 $-1 $320 forward single #
loop $-1 $321 $322 $126 #
cone-surface $-1 -57.046746980013673 -34.310800306913677 13.653381523712969 0 0.80901700255871778 -0.5877852410284794 0.25 0 0 1 I I -0.70710678118654746 0.70710678118654746 0.25 forward I I I I #
loop $-1 $-1 $323 $91 #
coedge $-1 $204 $204 $324 $325 reversed $127 $-1 #
face $-1 $-1 $326 $71 $-1 $327 forward single #
loop $-1 $328 $329 $129 #
cone-surface $-1 -49.383231970602864 -34.310800306913677 13.653381523712969 0 0.80901700255871778 -0.5877852410284794 0.25 0 0 1 I I -0.70710678118654746 0.70710678118654746 0.25 forward I I I I #
loop $-1 $-1 $330 $92 #
coedge $-1 $209 $209 $331 $332 reversed $130 $-1 #
face $-1 $333 $334 $72 $-1 $335 reversed single #
loop $-1 $-1 $336 $132 #
plane-surface $-1 -19.967978707056126 -36.75603916405386 13.078342195602858 0 -0.80901700255871778 0.5877852410284794 1 0 0 forward_v I I I I #
coedge $-1 $337 $338 $339 $340 reversed $133 $-1 #
face $-1 $-1 $341 $73 $-1 $342 forward single #
loop $-1 $343 $344 $135 #
cone-surface $-1 -27.631493716466935 -34.310800306913677 13.653381523712969 0 0.80901700255871778 -0.5877852410284794 0.25 0 0 1 I I -0.70710678118654746 0.70710678118654746 0.25 forward I I I I #
loop $-1 $-1 $345 $94 #
coedge $-1 $218 $218 $346 $347 reversed $136 $-1 #
face $-1 $-1 $348 $74 $-1 $349 forward single #
loop $-1 $350 $351 $138 #
cone-surface $-1 -19.967978707056126 -34.310800306913677 13.653381523712969 0 0.80901700255871778 -0.5877852410284794 0.25 0 0 1 I I -0.70710678118654746 0.70710678118654746 0.25 forward I I I I #
loop $-1 $-1 $352 $95 #
coedge $-1 $223 $223 $353 $354 reversed $139 $-1 #
face $-1 $-1 $355 $75 $-1 $356 forward single #
loop $-1 $357 $358 $141 #
cone-surface $-1 -12.304463697645318 -34.310800306913677 13.653381523712969 0 0.80901700255871778 -0.5877852410284794 0.25 0 0 1 I I -0.70710678118654746 0.70710678118654746 0.25 forward I I I I #
loop $-1 $-1 $359 $96 #
coedge $-1 $228 $228 $360 $361 reversed $142 $-1 #
face $-1 $362 $363 $76 $-1 $364 reversed single #
loop $-1 $-1 $365 $144 #
plane-surface $-1 17.110789565901428 -36.75603916405386 13.078342195602858 0 -0.80901700255871778 0.5877852410284794 1 0 0 forward_v I I I I #
coedge $-1 $366 $367 $368 $369 reversed $145 $-1 #
face $-1 $-1 $370 $77 $-1 $371 forward single #
loop $-1 $372 $373 $147 #
cone-surface $-1 9.447274556490612 -34.310800306913677 13.653381523712969 0 0.80901700255871778 -0.5877852410284794 0.25 0 0 1 I I -0.70710678118654746 0.70710678118654746 0.25 forward I I I I #
loop $-1 $-1 $374 $98 #
coedge $-1 $237 $237 $375 $376 reversed $148 $-1 #
face $-1 $-1 $377 $78 $-1 $378 forward single #
loop $-1 $379 $380 $150 #
cone-surface $-1 17.110789565901428 -34.310800306913677 13.653381523712969 0 0.80901700255871778 -0.5877852410284794 0.25 0 0 1 I I -0.70710678118654746 0.70710678118654746 0.25 forward I I I I #
loop $-1 $-1 $381 $99 #
coedge $-1 $242 $242 $382 $383 reversed $151 $-1 #
face $-1 $-1 $384 $79 $-1 $385 forward single #
loop $-1 $386 $387 $153 #
cone-surface $-1 24.774304575312229 -34.310800306913677 13.653381523712969 0 0.80901700255871778 -0.5877852410284794 0.25 0 0 1 I I -0.70710678118654746 0.70710678118654746 0.25 forward I I I I #
loop $-1 $-1 $388 $100 #
coedge $-1 $247 $247 $389 $390 reversed $154 $-1 #
face $-1 $391 $392 $80 $-1 $393 reversed single #
loop $-1 $-1 $394 $156 #
plane-surface $-1 54.189557838858974 -36.75603916405386 13.078342195602858 0 -0.80901700255871778 0.5877852410284794 1 0 0 forward_v I I I I #
coedge $-1 $395 $396 $397 $398 reversed $157 $-1 #
face $-1 $-1 $399 $81 $-1 $400 forward single #
loop $-1 $401 $402 $159 #
cone-surface $-1 46.526042829448158 -34.310800306913677 13.653381523712969 0 0.80901700255871778 -0.5877852410284794 0.25 0 0 1 I I -0.70710678118654746 0.70710678118654746 0.25 forward I I I I #
loop $-1 $-1 $403 $102 #
coedge $-1 $256 $256 $404 $405 reversed $160 $-1 #
face $-1 $-1 $406 $82 $-1 $407 forward single #
loop $-1 $408 $409 $162 #
cone-surface $-1 54.189557838858974 -34.310800306913677 13.653381523712969 0 0.80901700255871778 -0.5877852410284794 0.25 0 0 1 I I -0.70710678118654746 0.70710678118654746 0.25 forward I I I I #
loop $-1 $-1 $410 $103 #
coedge $-1 $261 $261 $411 $412 reversed $163 $-1 #
face $-1 $-1 $413 $83 $-1 $414 forward single #
loop $-1 $415 $416 $165 #
cone-surface $-1 61.85307284826979 -34.310800306913677 13.653381523712969 0 0.80901700255871778 -0.5877852410284794 0.25 0 0 1 I I -0.70710678118654746 0.70710678118654746 0.25 forward I I I I #
loop $-1 $-1 $417 $104 #
coedge $-1 $266 $266 $418 $419 reversed $166 $-1 #
face $-1 $420 $421 $63 $-1 $422 reversed single #
loop $-1 $-1 $423 $168 #
plane-surface $-1 0 -36.756039164053846 0 0 1 0 0 0 1 forward_v I I I I #
coedge $-1 $424 $425 $426 $427 forward $169 $-1 #
coedge $-1 $428 $171 $429 $430 forward $106 $-1 #
coedge $-1 $171 $428 $431 $432 forward $106 $-1 #
coedge $-1 $433 $434 $171 $274 reversed $435 $-1 #
edge $-1 $436 -36.756039164053846 $437 36.756039164053846 $273 $438 forward 7 unknown #
face $-1 $439 $440 $64 $-1 $441 reversed single #
loop $-1 $-1 $281 $172 #
plane-surface $-1 0 0 16.156638791702026 0 0 1 1 0 0 forward_v I I I I #
coedge $-1 $442 $443 $444 $445 reversed $173 $-1 #
coedge $-1 $280 $175 $446 $447 reversed $109 $-1 #
coedge $-1 $175 $279 $442 $448 reversed $109 $-1 #
coedge $-1 $444 $449 $175 $282 forward $276 $-1 #
edge $-1 $450 -4.5255728262199426 $451 3.4538592230311593 $281 $452 forward 7 unknown #
loop $-1 $-1 $288 $176 #
plane-surface $-1 63.505891727855783 -22.716481094136896 53.568558004087464 0 0.5877852598018023 0.80901698891910034 1 0 0 forward_v I I I I #
loop $-1 $-1 $453 $111 #
coedge $-1 $286 $286 $287 $454 reversed $177 $-1 #
coedge $-1 $287 $287 $286 $454 forward $179 $-1 #
coedge $-1 $288 $288 $180 $289 forward $283 $-1 #
edge $-1 $455 1.8243179256492495e-015 $455 6.2831853071796022 $288 $456 forward 7 unknown #
loop $-1 $-1 $295 $181 #
plane-surface $-1 63.505891727855783 -22.716481094136896 53.568558004087464 0 0.5877852598018023 0.80901698891910034 1 0 0 forward_v I I I I #
loop $-1 $-1 $457 $114 #
coedge $-1 $293 $293 $294 $458 reversed $182 $-1 #
coedge $-1 $294 $294 $293 $458 forward $184 $-1 #
coedge $-1 $295 $295 $185 $296 forward $290 $-1 #
edge $-1 $459 1.8243179256492495e-015 $459 6.2831853071796022 $295 $460 forward 7 unknown #
loop $-1 $-1 $302 $186 #
plane-surface $-1 63.505891727855783 -22.716481094136896 53.568558004087464 0 0.5877852598018023 0.80901698891910034 1 0 0 forward_v I I I I #
loop $-1 $-1 $461 $117 #
coedge $-1 $300 $300 $301 $462 reversed $187 $-1 #
coedge $-1 $301 $301 $300 $462 forward $189 $-1 #
coedge $-1 $302 $302 $190 $303 forward $297 $-1 #
edge $-1 $463 1.8243179256492495e-015 $463 6.2831853071796022 $302 $464 forward 7 unknown #
face $-1 $465 $466 $68 $-1 $467 reversed single #
loop $-1 $-1 $468 $191 #
plane-surface $-1 -69.819271995698358 -156.74545503108345 100.2557531810408 1 0 0 0 0.80901700255871778 -0.5877852410284794 forward_v I I I I #
coedge $-1 $469 $470 $471 $472 reversed $192 $-1 #
coedge $-1 $309 $194 $473 $474 reversed $121 $-1 #
coedge $-1 $194 $308 $469 $475 reversed $121 $-1 #
coedge $-1 $471 $476 $194 $311 forward $477 $-1 #
edge $-1 $478 41.61668835148788 $479 43.853201676884851 $310 $480 forward 7 unknown #
loop $-1 $-1 $317 $195 #
plane-surface $-1 -57.046746980013673 -36.75603916405386 13.078342195602858 0 -0.80901700255871778 0.5877852410284794 1 0 0 forward_v I I I I #
loop $-1 $-1 $481 $123 #
coedge $-1 $315 $315 $316 $482 reversed $196 $-1 #
coedge $-1 $316 $316 $315 $482 forward $198 $-1 #
coedge $-1 $317 $317 $199 $318 forward $312 $-1 #
edge $-1 $483 4.9393515923793865e-015 $483 6.2831853071796058 $317 $484 forward 7 unknown #
loop $-1 $-1 $324 $200 #
plane-surface $-1 -57.046746980013673 -36.75603916405386 13.078342195602858 0 -0.80901700255871778 0.5877852410284794 1 0 0 forward_v I I I I #
loop $-1 $-1 $485 $126 #
coedge $-1 $322 $322 $323 $486 reversed $201 $-1 #
coedge $-1 $323 $323 $322 $486 forward $203 $-1 #
coedge $-1 $324 $324 $204 $325 forward $319 $-1 #
edge $-1 $487 4.9393515923793865e-015 $487 6.2831853071796058 $324 $488 forward 7 unknown #
loop $-1 $-1 $331 $205 #
plane-surface $-1 -57.046746980013673 -36.75603916405386 13.078342195602858 0 -0.80901700255871778 0.5877852410284794 1 0 0 forward_v I I I I #
loop $-1 $-1 $489 $129 #
coedge $-1 $329 $329 $330 $490 reversed $206 $-1 #
coedge $-1 $330 $330 $329 $490 forward $208 $-1 #
coedge $-1 $331 $331 $209 $332 forward $326 $-1 #
edge $-1 $491 4.9393515923793865e-015 $491 6.2831853071796058 $331 $492 forward 7 unknown #
face $-1 $493 $494 $72 $-1 $495 reversed single #
loop $-1 $-1 $496 $210 #
plane-surface $-1 -32.740503722740812 -156.74545503108345 100.2557531810408 1 0 0 0 0.80901700255871778 -0.5877852410284794 forward_v I I I I #
coedge $-1 $497 $498 $499 $500 reversed $211 $-1 #
coedge $-1 $338 $213 $501 $502 reversed $133 $-1 #
coedge $-1 $213 $337 $497 $503 reversed $133 $-1 #
coedge $-1 $499 $504 $213 $340 forward $505 $-1 #
edge $-1 $506 41.61668835148788 $507 43.853201676884851 $339 $508 forward 7 unknown #
loop $-1 $-1 $346 $214 #
plane-surface $-1 -19.967978707056126 -36.75603916405386 13.078342195602858 0 -0.80901700255871778 0.5877852410284794 1 0 0 forward_v I I I I #
loop $-1 $-1 $509 $135 #
coedge $-1 $344 $344 $345 $510 reversed $215 $-1 #
coedge $-1 $345 $345 $344 $510 forward $217 $-1 #
coedge $-1 $346 $346 $218 $347 forward $341 $-1 #
edge $-1 $511 4.9393515923793865e-015 $511 6.2831853071796058 $346 $512 forward 7 unknown #
loop $-1 $-1 $353 $219 #
plane-surface $-1 -19.967978707056126 -36.75603916405386 13.078342195602858 0 -0.80901700255871778 0.5877852410284794 1 0 0 forward_v I I I I #
loop $-1 $-1 $513 $138 #
coedge $-1 $351 $351 $352 $514 reversed $220 $-1 #
coedge $-1 $352 $352 $351 $514 forward $222 $-1 #
coedge $-1 $353 $353 $223 $354 forward $348 $-1 #
edge $-1 $515 4.9393515923793865e-015 $515 6.2831853071796058 $353 $516 forward 7 unknown #
loop $-1 $-1 $360 $224 #
plane-surface $-1 -19.967978707056126 -36.75603916405386 13.078342195602858 0 -0.80901700255871778 0.5877852410284794 1 0 0 forward_v I I I I #
loop $-1 $-1 $517 $141 #
coedge $-1 $358 $358 $359 $518 reversed $225 $-1 #
coedge $-1 $359 $359 $358 $518 forward $227 $-1 #
coedge $-1 $360 $360 $228 $361 forward $355 $-1 #
edge $-1 $519 4.9393515923793865e-015 $519 6.2831853071796058 $360 $520 forward 7 unknown #
face $-1 $521 $522 $76 $-1 $523 reversed single #
loop $-1 $-1 $524 $229 #
plane-surface $-1 4.3382645502167438 -156.74545503108345 100.2557531810408 1 0 0 0 0.80901700255871778 -0.5877852410284794 forward_v I I I I #
coedge $-1 $525 $526 $527 $528 reversed $230 $-1 #
coedge $-1 $367 $232 $529 $530 reversed $145 $-1 #
coedge $-1 $232 $366 $525 $531 reversed $145 $-1 #
coedge $-1 $527 $532 $232 $369 forward $533 $-1 #
edge $-1 $534 41.61668835148788 $535 43.853201676884851 $368 $536 forward 7 unknown #
loop $-1 $-1 $375 $233 #
plane-surface $-1 17.110789565901428 -36.75603916405386 13.078342195602858 0 -0.80901700255871778 0.5877852410284794 1 0 0 forward_v I I I I #
loop $-1 $-1 $537 $147 #
coedge $-1 $373 $373 $374 $538 reversed $234 $-1 #
coedge $-1 $374 $374 $373 $538 forward $236 $-1 #
coedge $-1 $375 $375 $237 $376 forward $370 $-1 #
edge $-1 $539 4.9393515923793865e-015 $539 6.2831853071796058 $375 $540 forward 7 unknown #
loop $-1 $-1 $382 $238 #
plane-surface $-1 17.110789565901428 -36.75603916405386 13.078342195602858 0 -0.80901700255871778 0.5877852410284794 1 0 0 forward_v I I I I #
loop $-1 $-1 $541 $150 #
coedge $-1 $380 $380 $381 $542 reversed $239 $-1 #
coedge $-1 $381 $381 $380 $542 forward $241 $-1 #
coedge $-1 $382 $382 $242 $383 forward $377 $-1 #
edge $-1 $543 4.9393515923793865e-015 $543 6.2831853071796058 $382 $544 forward 7 unknown #
loop $-1 $-1 $389 $243 #
plane-surface $-1 17.110789565901428 -36.75603916405386 13.078342195602858 0 -0.80901700255871778 0.5877852410284794 1 0 0 forward_v I I I I #
loop $-1 $-1 $545 $153 #
coedge $-1 $387 $387 $388 $546 reversed $244 $-1 #
coedge $-1 $388 $388 $387 $546 forward $246 $-1 #
coedge $-1 $389 $389 $247 $390 forward $384 $-1 #
edge $-1 $547 4.9393515923793865e-015 $547 6.2831853071796058 $389 $548 forward 7 unknown #
face $-1 $549 $550 $80 $-1 $551 reversed single #
loop $-1 $-1 $552 $248 #
plane-surface $-1 41.417032823174289 -156.74545503108345 100.2557531810408 1 0 0 0 0.80901700255871778 -0.5877852410284794 forward_v I I I I #
coedge $-1 $553 $554 $555 $556 reversed $249 $-1 #
coedge $-1 $396 $251 $557 $558 reversed $157 $-1 #
coedge $-1 $251 $395 $553 $559 reversed $157 $-1 #
coedge $-1 $555 $560 $251 $398 forward $561 $-1 #
edge $-1 $562 41.61668835148788 $563 43.853201676884851 $397 $564 forward 7 unknown #
loop $-1 $-1 $404 $252 #
plane-surface $-1 54.189557838858974 -36.75603916405386 13.078342195602858 0 -0.80901700255871778 0.5877852410284794 1 0 0 forward_v I I I I #
loop $-1 $-1 $565 $159 #
coedge $-1 $402 $402 $403 $566 reversed $253 $-1 #
coedge $-1 $403 $403 $402 $566 forward $255 $-1 #
coedge $-1 $404 $404 $256 $405 forward $399 $-1 #
edge $-1 $567 4.9393515923793865e-015 $567 6.2831853071796058 $404 $568 forward 7 unknown #
loop $-1 $-1 $411 $257 #
plane-surface $-1 54.189557838858974 -36.75603916405386 13.078342195602858 0 -0.80901700255871778 0.5877852410284794 1 0 0 forward_v I I I I #
loop $-1 $-1 $569 $162 #
coedge $-1 $409 $409 $410 $570 reversed $258 $-1 #
coedge $-1 $410 $410 $409 $570 forward $260 $-1 #
coedge $-1 $411 $411 $261 $412 forward $406 $-1 #
edge $-1 $571 4.9393515923793865e-015 $571 6.2831853071796058 $411 $572 forward 7 unknown #
loop $-1 $-1 $418 $262 #
plane-surface $-1 54.189557838858974 -36.75603916405386 13.078342195602858 0 -0.80901700255871778 0.5877852410284794 1 0 0 forward_v I I I I #
loop $-1 $-1 $573 $165 #
coedge $-1 $416 $416 $417 $574 reversed $263 $-1 #
coedge $-1 $417 $417 $416 $574 forward $265 $-1 #
coedge $-1 $418 $418 $266 $419 forward $413 $-1 #
edge $-1 $575 4.9393515923793865e-015 $575 6.2831853071796058 $418 $576 forward 7 unknown #
face $-1 $577 $578 $63 $-1 $579 reversed single #
loop $-1 $-1 $580 $267 #
plane-surface $-1 -74.157536545915093 0 0 1 0 0 0 0 -1 forward_v I I I I #
coedge $-1 $581 $431 $582 $583 forward $268 $-1 #
coedge $-1 $584 $270 $581 $585 forward $169 $-1 #
coedge $-1 $270 $584 $586 $587 forward $169 $-1 #
coedge $-1 $434 $433 $270 $427 reversed $435 $-1 #
edge $-1 $588 -36.756039164053846 $589 36.756039164053846 $426 $590 forward 7 unknown #
coedge $-1 $272 $271 $591 $592 forward $106 $-1 #
coedge $-1 $593 $594 $271 $430 reversed $578 $-1 #
edge $-1 $437 -74.157536545915093 $595 74.157536545915093 $429 $596 forward 7 unknown #
coedge $-1 $423 $597 $272 $432 reversed $268 $-1 #
edge $-1 $598 -74.157536545915093 $436 74.157536545915093 $431 $599 forward 7 unknown #
coedge $-1 $426 $273 $597 $600 forward $435 $-1 #
coedge $-1 $273 $426 $593 $601 reversed $435 $-1 #
loop $-1 $-1 $433 $577 #
vertex $-1 $274 $602 #
vertex $-1 $274 $603 #
straight-curve $-1 74.157536545915093 0 16.156638791702026 0 1 0 I I #
face $-1 $-1 $604 $64 $-1 $605 reversed single #
loop $-1 $-1 $446 $275 #
plane-surface $-1 0 36.756039164053846 0 0 -1 0 0 0 -1 forward_v I I I I #
coedge $-1 $606 $278 $280 $448 forward $173 $-1 #
coedge $-1 $278 $606 $607 $608 reversed $173 $-1 #
coedge $-1 $609 $281 $278 $445 forward $276 $-1 #
edge $-1 $451 21.101301045868581 $610 42.404590681987202 $444 $611 forward 7 unknown #
coedge $-1 $612 $613 $279 $447 forward $440 $-1 #
edge $-1 $614 -76.419743978647858 $450 -70.622347132376078 $446 $615 forward 7 unknown #
edge $-1 $451 63.648957826877989 $614 73.512078328107691 $280 $616 forward 7 unknown #
coedge $-1 $281 $609 $612 $617 forward $276 $-1 #
vertex $-1 $447 $618 #
vertex $-1 $282 $619 #
straight-curve $-1 52.854246909796473 32.230466337833903 16.156638791702022 0 -1 0 I I #
coedge $-1 $453 $453 $-1 $620 reversed $285 $-1 #
edge $-1 $621 0 $621 6.2831853071796004 $286 $622 forward 7 unknown #
vertex $-1 $289 $623 #
ellipse-curve $-1 57.114904837020191 32.76632313942828 13.257940368566146 0 0.5877852598018023 0.80901698891910034 2 0 0 1 I I #
coedge $-1 $457 $457 $-1 $624 reversed $292 $-1 #
edge $-1 $625 0 $625 6.2831853071796004 $293 $626 forward 7 unknown #
vertex $-1 $296 $627 #
ellipse-curve $-1 63.505891727855783 32.76632313942828 13.257940368566146 0 0.5877852598018023 0.80901698891910034 2 0 0 1 I I #
coedge $-1 $461 $461 $-1 $628 reversed $299 $-1 #
edge $-1 $629 0 $629 6.2831853071796004 $300 $630 forward 7 unknown #
vertex $-1 $303 $631 #
ellipse-curve $-1 69.896878618691375 32.76632313942828 13.257940368566146 0 0.5877852598018023 0.80901698891910034 2 0 0 1 I I #
face $-1 $-1 $477 $68 $-1 $632 forward single #
loop $-1 $-1 $633 $304 #
plane-surface $-1 0 -36.756039164053846 0 0 1 0 0 0 1 forward_v I I I I #
coedge $-1 $634 $635 $636 $637 reversed $305 $-1 #
coedge $-1 $638 $307 $309 $475 forward $192 $-1 #
coedge $-1 $307 $638 $634 $639 forward $192 $-1 #
coedge $-1 $636 $310 $307 $472 forward $477 $-1 #
edge $-1 $479 15.750848474322151 $640 41.295898505691525 $471 $641 forward 7 unknown #
coedge $-1 $642 $643 $308 $474 forward $466 $-1 #
edge $-1 $644 -37.049534394917522 $478 -33.971237798818379 $473 $645 forward 7 unknown #
edge $-1 $479 -3.8049838091947255 $644 -2.4161062406544664e-014 $309 $646 forward 7 unknown #
coedge $-1 $310 $636 $642 $647 forward $477 $-1 #
loop $-1 $-1 $636 $465 #
vertex $-1 $474 $648 #
vertex $-1 $311 $649 #
straight-curve $-1 -44.274221964328987 -78.372727515541726 16.156638791702022 0 1 0 I I #
coedge $-1 $481 $481 $-1 $650 reversed $314 $-1 #
edge $-1 $651 0 $651 6.2831853071796004 $315 $652 forward 7 unknown #
vertex $-1 $318 $653 #
ellipse-curve $-1 -64.710261989424481 -35.637782501355368 14.617490493652445 0 -0.80901700255871778 0.5877852410284794 0.5 0 0 1 I I #
coedge $-1 $485 $485 $-1 $654 reversed $321 $-1 #
edge $-1 $655 0 $655 6.2831853071796004 $322 $656 forward 7 unknown #
vertex $-1 $325 $657 #
ellipse-curve $-1 -57.046746980013673 -35.637782501355368 14.617490493652445 0 -0.80901700255871778 0.5877852410284794 0.5 0 0 1 I I #
coedge $-1 $489 $489 $-1 $658 reversed $328 $-1 #
edge $-1 $659 0 $659 6.2831853071796004 $329 $660 forward 7 unknown #
vertex $-1 $332 $661 #
ellipse-curve $-1 -49.383231970602864 -35.637782501355368 14.617490493652445 0 -0.80901700255871778 0.5877852410284794 0.5 0 0 1 I I #
face $-1 $-1 $505 $72 $-1 $662 forward single #
loop $-1 $-1 $663 $333 #
plane-surface $-1 0 -36.756039164053846 0 0 1 0 0 0 1 forward_v I I I I #
coedge $-1 $664 $665 $666 $667 reversed $334 $-1 #
coedge $-1 $668 $336 $338 $503 forward $211 $-1 #
coedge $-1 $336 $668 $664 $669 forward $211 $-1 #
coedge $-1 $666 $339 $336 $500 forward $505 $-1 #
edge $-1 $507 -2.7885356621566206 $670 22.756514369212749 $499 $671 forward 7 unknown #
coedge $-1 $672 $673 $337 $502 forward $494 $-1 #
edge $-1 $674 -37.049534394917522 $506 -33.971237798818379 $501 $675 forward 7 unknown #
edge $-1 $507 -3.8049838091947255 $674 -2.4161062406544664e-014 $338 $676 forward 7 unknown #
coedge $-1 $339 $666 $672 $677 forward $505 $-1 #
loop $-1 $-1 $666 $493 #
vertex $-1 $502 $678 #
vertex $-1 $340 $679 #
straight-curve $-1 -7.1954536913714424 -78.372727515541726 16.156638791702022 0 1 0 I I #
coedge $-1 $509 $509 $-1 $680 reversed $343 $-1 #
edge $-1 $681 0 $681 6.2831853071796004 $344 $682 forward 7 unknown #
vertex $-1 $347 $683 #
ellipse-curve $-1 -27.631493716466935 -35.637782501355368 14.617490493652445 0 -0.80901700255871778 0.5877852410284794 0.5 0 0 1 I I #
coedge $-1 $513 $513 $-1 $684 reversed $350 $-1 #
edge $-1 $685 0 $685 6.2831853071796004 $351 $686 forward 7 unknown #
vertex $-1 $354 $687 #
ellipse-curve $-1 -19.967978707056126 -35.637782501355368 14.617490493652445 0 -0.80901700255871778 0.5877852410284794 0.5 0 0 1 I I #
coedge $-1 $517 $517 $-1 $688 reversed $357 $-1 #
edge $-1 $689 0 $689 6.2831853071796004 $358 $690 forward 7 unknown #
vertex $-1 $361 $691 #
ellipse-curve $-1 -12.304463697645318 -35.637782501355368 14.617490493652445 0 -0.80901700255871778 0.5877852410284794 0.5 0 0 1 I I #
face $-1 $-1 $533 $76 $-1 $692 forward single #
loop $-1 $-1 $693 $362 #
plane-surface $-1 0 -36.756039164053846 0 0 1 0 0 0 1 forward_v I I I I #
coedge $-1 $694 $695 $696 $697 reversed $363 $-1 #
coedge $-1 $698 $365 $367 $531 forward $230 $-1 #
coedge $-1 $365 $698 $694 $699 forward $230 $-1 #
coedge $-1 $696 $368 $365 $528 forward $533 $-1 #
edge $-1 $535 -21.327919798635399 $700 4.2171302327339699 $527 $701 forward 7 unknown #
coedge $-1 $702 $703 $366 $530 forward $522 $-1 #
edge $-1 $704 -37.049534394917522 $534 -33.971237798818379 $529 $705 forward 7 unknown #
edge $-1 $535 -3.8049838091947255 $704 -2.4161062406544664e-014 $367 $706 forward 7 unknown #
coedge $-1 $368 $696 $702 $707 forward $533 $-1 #
loop $-1 $-1 $696 $521 #
vertex $-1 $530 $708 #
vertex $-1 $369 $709 #
straight-curve $-1 29.883314581586113 -78.372727515541726 16.156638791702022 0 1 0 I I #
coedge $-1 $537 $537 $-1 $710 reversed $372 $-1 #
edge $-1 $711 0 $711 6.2831853071796004 $373 $712 forward 7 unknown #
vertex $-1 $376 $713 #
ellipse-curve $-1 9.447274556490612 -35.637782501355368 14.617490493652445 0 -0.80901700255871778 0.5877852410284794 0.5 0 0 1 I I #
coedge $-1 $541 $541 $-1 $714 reversed $379 $-1 #
edge $-1 $715 0 $715 6.2831853071796004 $380 $716 forward 7 unknown #
vertex $-1 $383 $717 #
ellipse-curve $-1 17.110789565901428 -35.637782501355368 14.617490493652445 0 -0.80901700255871778 0.5877852410284794 0.5 0 0 1 I I #
coedge $-1 $545 $545 $-1 $718 reversed $386 $-1 #
edge $-1 $719 0 $719 6.2831853071796004 $387 $720 forward 7 unknown #
vertex $-1 $390 $721 #
ellipse-curve $-1 24.774304575312229 -35.637782501355368 14.617490493652445 0 -0.80901700255871778 0.5877852410284794 0.5 0 0 1 I I #
face $-1 $-1 $561 $80 $-1 $722 forward single #
loop $-1 $-1 $723 $391 #
plane-surface $-1 0 -36.756039164053846 0 0 1 0 0 0 1 forward_v I I I I #
coedge $-1 $724 $725 $726 $727 reversed $392 $-1 #
coedge $-1 $728 $394 $396 $559 forward $249 $-1 #
coedge $-1 $394 $728 $724 $729 forward $249 $-1 #
coedge $-1 $726 $397 $394 $556 forward $561 $-1 #
edge $-1 $563 -39.867303935114165 $730 -14.322253903744802 $555 $731 forward 7 unknown #
coedge $-1 $732 $733 $395 $558 forward $550 $-1 #
edge $-1 $734 -37.049534394917522 $562 -33.971237798818379 $557 $735 forward 7 unknown #
edge $-1 $563 -3.8049838091947255 $734 -2.4161062406544664e-014 $396 $736 forward 7 unknown #
coedge $-1 $397 $726 $732 $737 forward $561 $-1 #
loop $-1 $-1 $726 $549 #
vertex $-1 $558 $738 #
vertex $-1 $398 $739 #
straight-curve $-1 66.962082854543652 -78.372727515541726 16.156638791702022 0 1 0 I I #
coedge $-1 $565 $565 $-1 $740 reversed $401 $-1 #
edge $-1 $741 0 $741 6.2831853071796004 $402 $742 forward 7 unknown #
vertex $-1 $405 $743 #
ellipse-curve $-1 46.526042829448158 -35.637782501355368 14.617490493652445 0 -0.80901700255871778 0.5877852410284794 0.5 0 0 1 I I #
coedge $-1 $569 $569 $-1 $744 reversed $408 $-1 #
edge $-1 $745 0 $745 6.2831853071796004 $409 $746 forward 7 unknown #
vertex $-1 $412 $747 #
ellipse-curve $-1 54.189557838858974 -35.637782501355368 14.617490493652445 0 -0.80901700255871778 0.5877852410284794 0.5 0 0 1 I I #
coedge $-1 $573 $573 $-1 $748 reversed $415 $-1 #
edge $-1 $749 0 $749 6.2831853071796004 $416 $750 forward 7 unknown #
vertex $-1 $419 $751 #
ellipse-curve $-1 61.85307284826979 -35.637782501355368 14.617490493652445 0 -0.80901700255871778 0.5877852410284794 0.5 0 0 1 I I #
face $-1 $-1 $435 $63 $-1 $752 reversed single #
loop $-1 $-1 $593 $420 #
plane-surface $-1 0 36.756039164053846 0 0 -1 0 0 0 -1 forward_v I I I I #
coedge $-1 $753 $591 $594 $754 forward $421 $-1 #
coedge $-1 $597 $423 $424 $585 reversed $268 $-1 #
coedge $-1 $591 $753 $423 $583 reversed $421 $-1 #
edge $-1 $598 -16.156638791702026 $755 16.156638791702026 $582 $756 forward 7 unknown #
coedge $-1 $425 $424 $753 $757 forward $169 $-1 #
edge $-1 $589 -74.157536545915093 $755 74.157536545915093 $581 $758 forward 7 unknown #
coedge $-1 $594 $593 $425 $587 reversed $578 $-1 #
edge $-1 $759 -74.157536545915093 $588 74.157536545915093 $586 $760 forward 7 unknown #
vertex $-1 $427 $761 #
vertex $-1 $600 $762 #
straight-curve $-1 74.157536545915093 0 -16.156638791702026 0 -1 0 I I #
coedge $-1 $580 $582 $428 $592 reversed $421 $-1 #
edge $-1 $595 -36.756039164053846 $598 36.756039164053846 $591 $763 forward 7 unknown #
coedge $-1 $586 $429 $434 $601 forward $578 $-1 #
coedge $-1 $429 $586 $580 $754 reversed $578 $-1 #
vertex $-1 $430 $764 #
straight-curve $-1 0 36.756039164053846 16.156638791702026 -1 0 0 I I #
coedge $-1 $431 $581 $433 $600 reversed $268 $-1 #
vertex $-1 $592 $765 #
straight-curve $-1 0 -36.756039164053846 16.156638791702026 1 0 0 I I #
edge $-1 $436 -16.156638791702026 $589 16.156638791702026 $433 $766 forward 7 unknown #
edge $-1 $437 -16.156638791702026 $588 16.156638791702026 $434 $767 forward 7 unknown #
point $-1 74.157536545915093 -36.756039164053846 16.156638791702026 #
point $-1 74.157536545915093 36.756039164053846 16.156638791702026 #
loop $-1 $-1 $607 $439 #
plane-surface $-1 74.157536545915093 0 0 -1 0 0 0 0 1 forward_v I I I I #
coedge $-1 $443 $442 $613 $768 reversed $173 $-1 #
coedge $-1 $769 $770 $443 $608 forward $604 $-1 #
edge $-1 $610 38.716543868249609 $771 48.579664369479303 $607 $772 forward 7 unknown #
coedge $-1 $449 $444 $770 $773 forward $276 $-1 #
vertex $-1 $773 $774 #
straight-curve $-1 31.752945863927891 28.776607114802736 16.156638791702026 1 0 0 I I #
coedge $-1 $775 $446 $449 $617 reversed $440 $-1 #
coedge $-1 $446 $775 $606 $768 forward $440 $-1 #
vertex $-1 $447 $776 #
straight-curve $-1 52.854246909796473 36.756039164053846 86.7789859240781 0 0 1 I I #
straight-curve $-1 52.854246909796473 -22.716481094136896 53.568558004087464 0 0.80901698891910034 -0.5877852598018023 I I #
edge $-1 $777 -74.157536545915093 $450 -52.854246909796473 $612 $778 forward 7 unknown #
point $-1 52.854246909796473 36.756039164053846 16.156638791702026 #
point $-1 52.854246909796473 28.776607114802744 16.156638791702022 #
edge $-1 $779 1 $779 0 $453 $-1 forward 7 unknown #
vertex $-1 $454 $780 #
ellipse-curve $-1 57.114904837020191 31.509061464908523 11.527468164233667 0 0.5877852598018023 0.80901698891910034 2 0 0 1 I I #
point $-1 59.114904837020191 32.766323139428273 13.25794036856613 #
edge $-1 $781 1 $781 0 $457 $-1 forward 7 unknown #
vertex $-1 $458 $782 #
ellipse-curve $-1 63.505891727855783 31.509061464908523 11.527468164233667 0 0.5877852598018023 0.80901698891910034 2 0 0 1 I I #
point $-1 65.505891727855783 32.766323139428273 13.25794036856613 #
edge $-1 $783 1 $783 0 $461 $-1 forward 7 unknown #
vertex $-1 $462 $784 #
ellipse-curve $-1 69.896878618691375 31.509061464908523 11.527468164233667 0 0.5877852598018023 0.80901698891910034 2 0 0 1 I I #
point $-1 71.896878618691375 32.766323139428273 13.25794036856613 #
plane-surface $-1 0 0 16.156638791702026 0 0 1 1 0 0 forward_v I I I I #
coedge $-1 $643 $642 $635 $785 forward $466 $-1 #
coedge $-1 $635 $468 $470 $639 reversed $305 $-1 #
coedge $-1 $468 $634 $633 $785 reversed $305 $-1 #
coedge $-1 $476 $471 $468 $637 forward $477 $-1 #
edge $-1 $640 -43.853201676884851 $786 -41.61668835148788 $636 $787 forward 7 unknown #
coedge $-1 $470 $469 $643 $788 reversed $192 $-1 #
edge $-1 $789 2.4161062406544664e-014 $640 3.8049838091947255 $634 $790 forward 7 unknown #
vertex $-1 $472 $791 #
straight-curve $-1 -28.523373490006836 -34.519525838656875 16.156638791702026 -1 0 0 I I #
coedge $-1 $633 $473 $476 $647 reversed $466 $-1 #
coedge $-1 $473 $633 $638 $788 forward $466 $-1 #
vertex $-1 $474 $792 #
straight-curve $-1 -44.274221964328987 -36.756039164053846 50.127876590520401 0 0 1 I I #
straight-curve $-1 -44.274221964328987 -36.75603916405386 13.078342195602858 0 -0.5877852410284794 -0.80901700255871778 I I #
edge $-1 $786 -69.819271995698358 $478 -44.274221964328987 $642 $793 forward 7 unknown #
point $-1 -44.274221964328987 -36.756039164053846 16.156638791702026 #
point $-1 -44.274221964328987 -34.519525838656875 16.156638791702026 #
edge $-1 $794 1 $794 0 $481 $-1 forward 7 unknown #
vertex $-1 $482 $795 #
ellipse-curve $-1 -64.710261989424481 -34.513054557553353 13.800327833970089 0 -0.80901700255871778 0.5877852410284794 0.5 0 0 1 I I #
point $-1 -64.210261989424481 -35.637782501355346 14.617490493652433 #
edge $-1 $796 1 $796 0 $485 $-1 forward 7 unknown #
vertex $-1 $486 $797 #
ellipse-curve $-1 -57.046746980013673 -34.513054557553353 13.800327833970089 0 -0.80901700255871778 0.5877852410284794 0.5 0 0 1 I I #
point $-1 -56.546746980013673 -35.637782501355346 14.617490493652433 #
edge $-1 $798 1 $798 0 $489 $-1 forward 7 unknown #
vertex $-1 $490 $799 #
ellipse-curve $-1 -49.383231970602864 -34.513054557553353 13.800327833970089 0 -0.80901700255871778 0.5877852410284794 0.5 0 0 1 I I #
point $-1 -48.883231970602864 -35.637782501355346 14.617490493652433 #
plane-surface $-1 0 0 16.156638791702026 0 0 1 1 0 0 forward_v I I I I #
coedge $-1 $673 $672 $665 $800 forward $494 $-1 #
coedge $-1 $665 $496 $498 $669 reversed $334 $-1 #
coedge $-1 $496 $664 $663 $800 reversed $334 $-1 #
coedge $-1 $504 $499 $496 $667 forward $505 $-1 #
edge $-1 $670 -43.853201676884851 $801 -41.61668835148788 $666 $802 forward 7 unknown #
coedge $-1 $498 $497 $673 $803 reversed $211 $-1 #
edge $-1 $804 2.4161062406544664e-014 $670 3.8049838091947255 $664 $805 forward 7 unknown #
vertex $-1 $500 $806 #
straight-curve $-1 -9.983989353528063 -34.519525838656875 16.156638791702026 -1 0 0 I I #
coedge $-1 $663 $501 $504 $677 reversed $494 $-1 #
coedge $-1 $501 $663 $668 $803 forward $494 $-1 #
vertex $-1 $502 $807 #
straight-curve $-1 -7.1954536913714424 -36.756039164053846 50.127876590520401 0 0 1 I I #
straight-curve $-1 -7.1954536913714424 -36.75603916405386 13.078342195602858 0 -0.5877852410284794 -0.80901700255871778 I I #
edge $-1 $801 -32.740503722740812 $506 -7.1954536913714424 $672 $808 forward 7 unknown #
point $-1 -7.1954536913714424 -36.756039164053846 16.156638791702026 #
point $-1 -7.1954536913714424 -34.519525838656875 16.156638791702026 #
edge $-1 $809 1 $809 0 $509 $-1 forward 7 unknown #
vertex $-1 $510 $810 #
ellipse-curve $-1 -27.631493716466935 -34.513054557553353 13.800327833970089 0 -0.80901700255871778 0.5877852410284794 0.5 0 0 1 I I #
point $-1 -27.131493716466935 -35.637782501355346 14.617490493652433 #
edge $-1 $811 1 $811 0 $513 $-1 forward 7 unknown #
vertex $-1 $514 $812 #
ellipse-curve $-1 -19.967978707056126 -34.513054557553353 13.800327833970089 0 -0.80901700255871778 0.5877852410284794 0.5 0 0 1 I I #
point $-1 -19.467978707056126 -35.637782501355346 14.617490493652433 #
edge $-1 $813 1 $813 0 $517 $-1 forward 7 unknown #
vertex $-1 $518 $814 #
ellipse-curve $-1 -12.304463697645318 -34.513054557553353 13.800327833970089 0 -0.80901700255871778 0.5877852410284794 0.5 0 0 1 I I #
point $-1 -11.804463697645318 -35.637782501355346 14.617490493652433 #
plane-surface $-1 0 0 16.156638791702026 0 0 1 1 0 0 forward_v I I I I #
coedge $-1 $703 $702 $695 $815 forward $522 $-1 #
coedge $-1 $695 $524 $526 $699 reversed $363 $-1 #
coedge $-1 $524 $694 $693 $815 reversed $363 $-1 #
coedge $-1 $532 $527 $524 $697 forward $533 $-1 #
edge $-1 $700 -43.853201676884851 $816 -41.61668835148788 $696 $817 forward 7 unknown #
coedge $-1 $526 $525 $703 $818 reversed $230 $-1 #
edge $-1 $819 2.4161062406544664e-014 $700 3.8049838091947255 $694 $820 forward 7 unknown #
vertex $-1 $528 $821 #
straight-curve $-1 8.5553947829507138 -34.519525838656875 16.156638791702026 -1 0 0 I I #
coedge $-1 $693 $529 $532 $707 reversed $522 $-1 #
coedge $-1 $529 $693 $698 $818 forward $522 $-1 #
vertex $-1 $530 $822 #
straight-curve $-1 29.883314581586113 -36.756039164053846 50.127876590520401 0 0 1 I I #
straight-curve $-1 29.883314581586113 -36.75603916405386 13.078342195602858 0 -0.5877852410284794 -0.80901700255871778 I I #
edge $-1 $816 4.3382645502167438 $534 29.883314581586113 $702 $823 forward 7 unknown #
point $-1 29.883314581586113 -36.756039164053846 16.156638791702026 #
point $-1 29.883314581586113 -34.519525838656875 16.156638791702026 #
edge $-1 $824 1 $824 0 $537 $-1 forward 7 unknown #
vertex $-1 $538 $825 #
ellipse-curve $-1 9.447274556490612 -34.513054557553353 13.800327833970089 0 -0.80901700255871778 0.5877852410284794 0.5 0 0 1 I I #
point $-1 9.947274556490612 -35.637782501355346 14.617490493652433 #
edge $-1 $826 1 $826 0 $541 $-1 forward 7 unknown #
vertex $-1 $542 $827 #
ellipse-curve $-1 17.110789565901428 -34.513054557553353 13.800327833970089 0 -0.80901700255871778 0.5877852410284794 0.5 0 0 1 I I #
point $-1 17.610789565901428 -35.637782501355346 14.617490493652433 #
edge $-1 $828 1 $828 0 $545 $-1 forward 7 unknown #
vertex $-1 $546 $829 #
ellipse-curve $-1 24.774304575312229 -34.513054557553353 13.800327833970089 0 -0.80901700255871778 0.5877852410284794 0.5 0 0 1 I I #
point $-1 25.274304575312229 -35.637782501355346 14.617490493652433 #
plane-surface $-1 0 0 16.156638791702026 0 0 1 1 0 0 forward_v I I I I #
coedge $-1 $733 $732 $725 $830 forward $550 $-1 #
coedge $-1 $725 $552 $554 $729 reversed $392 $-1 #
coedge $-1 $552 $724 $723 $830 reversed $392 $-1 #
coedge $-1 $560 $555 $552 $727 forward $561 $-1 #
edge $-1 $730 -43.853201676884851 $831 -41.61668835148788 $726 $832 forward 7 unknown #
coedge $-1 $554 $553 $733 $833 reversed $249 $-1 #
edge $-1 $834 2.4161062406544664e-014 $730 3.8049838091947255 $724 $835 forward 7 unknown #
vertex $-1 $556 $836 #
straight-curve $-1 27.094778919429487 -34.519525838656875 16.156638791702026 -1 0 0 I I #
coedge $-1 $723 $557 $560 $737 reversed $550 $-1 #
coedge $-1 $557 $723 $728 $833 forward $550 $-1 #
vertex $-1 $558 $837 #
straight-curve $-1 66.962082854543652 -36.756039164053846 50.127876590520401 0 0 1 I I #
straight-curve $-1 66.962082854543652 -36.75603916405386 13.078342195602858 0 -0.5877852410284794 -0.80901700255871778 I I #
edge $-1 $831 41.417032823174289 $562 66.962082854543652 $732 $838 forward 7 unknown #
point $-1 66.962082854543652 -36.756039164053846 16.156638791702026 #
point $-1 66.962082854543652 -34.519525838656875 16.156638791702026 #
edge $-1 $839 1 $839 0 $565 $-1 forward 7 unknown #
vertex $-1 $566 $840 #
ellipse-curve $-1 46.526042829448158 -34.513054557553353 13.800327833970089 0 -0.80901700255871778 0.5877852410284794 0.5 0 0 1 I I #
point $-1 47.026042829448158 -35.637782501355346 14.617490493652433 #
edge $-1 $841 1 $841 0 $569 $-1 forward 7 unknown #
vertex $-1 $570 $842 #
ellipse-curve $-1 54.189557838858974 -34.513054557553353 13.800327833970089 0 -0.80901700255871778 0.5877852410284794 0.5 0 0 1 I I #
point $-1 54.689557838858974 -35.637782501355346 14.617490493652433 #
edge $-1 $843 1 $843 0 $573 $-1 forward 7 unknown #
vertex $-1 $574 $844 #
ellipse-curve $-1 61.85307284826979 -34.513054557553353 13.800327833970089 0 -0.80901700255871778 0.5877852410284794 0.5 0 0 1 I I #
point $-1 62.35307284826979 -35.637782501355346 14.617490493652433 #
plane-surface $-1 74.157536545915093 0 0 -1 0 0 0 0 1 forward_v I I I I #
coedge $-1 $582 $580 $584 $757 reversed $421 $-1 #
edge $-1 $595 -16.156638791702026 $759 16.156638791702026 $594 $845 forward 7 unknown #
vertex $-1 $757 $846 #
straight-curve $-1 -74.157536545915093 -36.756039164053846 0 0 0 -1 I I #
edge $-1 $755 -36.756039164053846 $759 36.756039164053846 $753 $847 forward 7 unknown #
straight-curve $-1 0 -36.756039164053846 -16.156638791702026 -1 0 0 I I #
vertex $-1 $587 $848 #
straight-curve $-1 0 36.756039164053846 -16.156638791702026 1 0 0 I I #
point $-1 74.157536545915093 36.756039164053846 -16.156638791702026 #
point $-1 74.157536545915093 -36.756039164053846 -16.156638791702026 #
straight-curve $-1 -74.157536545915093 0 16.156638791702026 0 -1 0 I I #
point $-1 -74.157536545915093 36.756039164053846 16.156638791702026 #
point $-1 -74.157536545915093 -36.756039164053846 16.156638791702026 #
straight-curve $-1 74.157536545915093 -36.756039164053846 0 0 0 -1 I I #
straight-curve $-1 74.157536545915093 36.756039164053846 0 0 0 -1 I I #
edge $-1 $771 -42.404590681987202 $614 -21.101301045868581 $613 $849 forward 7 unknown #
coedge $-1 $770 $607 $775 $850 reversed $604 $-1 #
coedge $-1 $607 $769 $609 $773 reversed $604 $-1 #
vertex $-1 $608 $851 #
straight-curve $-1 74.157536545915093 -2.5457346268428136 38.913652587928993 0 0.80901698891910034 -0.5877852598018023 I I #
edge $-1 $610 28.776607114802744 $777 36.756039164053846 $770 $852 forward 7 unknown #
point $-1 74.157536545915093 28.776607114802744 16.156638791702022 #
coedge $-1 $613 $612 $769 $850 forward $440 $-1 #
point $-1 52.854246909796473 36.756039164053838 10.359241945430242 #
vertex $-1 $773 $853 #
straight-curve $-1 0 36.756039164053846 16.156638791702026 -1 0 0 I I #
vertex $-1 $620 $854 #
point $-1 59.114904837020191 31.509061464908523 11.527468164233667 #
vertex $-1 $624 $855 #
point $-1 65.505891727855783 31.509061464908523 11.527468164233667 #
vertex $-1 $628 $856 #
point $-1 71.896878618691375 31.509061464908523 11.527468164233667 #
edge $-1 $786 33.971237798818379 $789 37.049534394917522 $633 $857 forward 7 unknown #
vertex $-1 $647 $858 #
straight-curve $-1 -69.819271995698358 -78.372727515541726 16.156638791702022 0 -1 0 I I #
edge $-1 $789 -41.295898505691525 $644 -15.750848474322151 $643 $859 forward 7 unknown #
vertex $-1 $788 $860 #
straight-curve $-1 -69.819271995698358 -36.75603916405386 13.078342195602858 0 0.5877852410284794 0.80901700255871778 I I #
point $-1 -69.819271995698358 -34.519525838656875 16.156638791702026 #
point $-1 -44.274221964328987 -36.756039164053846 13.078342195602877 #
straight-curve $-1 0 -36.756039164053846 16.156638791702026 1 0 0 I I #
vertex $-1 $650 $861 #
point $-1 -64.210261989424481 -34.513054557553353 13.800327833970089 #
vertex $-1 $654 $862 #
point $-1 -56.546746980013673 -34.513054557553353 13.800327833970089 #
vertex $-1 $658 $863 #
point $-1 -48.883231970602864 -34.513054557553353 13.800327833970089 #
edge $-1 $801 33.971237798818379 $804 37.049534394917522 $663 $864 forward 7 unknown #
vertex $-1 $677 $865 #
straight-curve $-1 -32.740503722740812 -78.372727515541726 16.156638791702022 0 -1 0 I I #
edge $-1 $804 -22.756514369212749 $674 2.7885356621566206 $673 $866 forward 7 unknown #
vertex $-1 $803 $867 #
straight-curve $-1 -32.740503722740812 -36.75603916405386 13.078342195602858 0 0.5877852410284794 0.80901700255871778 I I #
point $-1 -32.740503722740812 -34.519525838656875 16.156638791702026 #
point $-1 -7.1954536913714424 -36.756039164053846 13.078342195602877 #
straight-curve $-1 0 -36.756039164053846 16.156638791702026 1 0 0 I I #
vertex $-1 $680 $868 #
point $-1 -27.131493716466935 -34.513054557553353 13.800327833970089 #
vertex $-1 $684 $869 #
point $-1 -19.467978707056126 -34.513054557553353 13.800327833970089 #
vertex $-1 $688 $870 #
point $-1 -11.804463697645318 -34.513054557553353 13.800327833970089 #
edge $-1 $816 33.971237798818379 $819 37.049534394917522 $693 $871 forward 7 unknown #
vertex $-1 $707 $872 #
straight-curve $-1 4.3382645502167438 -78.372727515541726 16.156638791702022 0 -1 0 I I #
edge $-1 $819 -4.2171302327339699 $704 21.327919798635399 $703 $873 forward 7 unknown #
vertex $-1 $818 $874 #
straight-curve $-1 4.3382645502167438 -36.75603916405386 13.078342195602858 0 0.5877852410284794 0.80901700255871778 I I #
point $-1 4.3382645502167438 -34.519525838656875 16.156638791702026 #
point $-1 29.883314581586113 -36.756039164053846 13.078342195602877 #
straight-curve $-1 0 -36.756039164053846 16.156638791702026 1 0 0 I I #
vertex $-1 $710 $875 #
point $-1 9.947274556490612 -34.513054557553353 13.800327833970089 #
vertex $-1 $714 $876 #
point $-1 17.610789565901428 -34.513054557553353 13.800327833970089 #
vertex $-1 $718 $877 #
point $-1 25.274304575312229 -34.513054557553353 13.800327833970089 #
edge $-1 $831 33.971237798818379 $834 37.049534394917522 $723 $878 forward 7 unknown #
vertex $-1 $737 $879 #
straight-curve $-1 41.417032823174289 -78.372727515541726 16.156638791702022 0 -1 0 I I #
edge $-1 $834 14.322253903744802 $734 39.867303935114165 $733 $880 forward 7 unknown #
vertex $-1 $833 $881 #
straight-curve $-1 41.417032823174289 -36.75603916405386 13.078342195602858 0 0.5877852410284794 0.80901700255871778 I I #
point $-1 41.417032823174289 -34.519525838656875 16.156638791702026 #
point $-1 66.962082854543652 -36.756039164053846 13.078342195602877 #
straight-curve $-1 0 -36.756039164053846 16.156638791702026 1 0 0 I I #
vertex $-1 $740 $882 #
point $-1 47.026042829448158 -34.513054557553353 13.800327833970089 #
vertex $-1 $744 $883 #
point $-1 54.689557838858974 -34.513054557553353 13.800327833970089 #
vertex $-1 $748 $884 #
point $-1 62.35307284826979 -34.513054557553353 13.800327833970089 #
straight-curve $-1 -74.157536545915093 36.756039164053846 0 0 0 -1 I I #
point $-1 -74.157536545915093 -36.756039164053846 -16.156638791702026 #
straight-curve $-1 -74.157536545915093 0 -16.156638791702026 0 1 0 I I #
point $-1 -74.157536545915093 36.756039164053846 -16.156638791702026 #
straight-curve $-1 31.752945863927891 36.756039164053846 10.359241945430238 -1 0 0 I I #
edge $-1 $777 -16.156638791702026 $771 -10.359241945430242 $769 $885 forward 7 unknown #
point $-1 74.157536545915093 36.756039164053838 10.359241945430242 #
straight-curve $-1 74.157536545915093 0 16.156638791702026 0 1 0 I I #
point $-1 74.157536545915093 36.756039164053846 16.156638791702026 #
point $-1 57.114904837020191 30.33349094530492 9.9094341863954654 #
point $-1 63.505891727855783 30.33349094530492 9.9094341863954654 #
point $-1 69.896878618691375 30.33349094530492 9.9094341863954654 #
straight-curve $-1 -69.819271995698358 -36.756039164053846 50.127876590520401 0 0 -1 I I #
point $-1 -69.819271995698358 -36.756039164053846 16.156638791702026 #
straight-curve $-1 -28.523373490006836 -36.756039164053846 13.078342195602882 1 0 0 I I #
point $-1 -69.819271995698358 -36.756039164053846 13.078342195602877 #
point $-1 -64.710261989424481 -34.108546056274001 13.50643521345585 #
point $-1 -57.046746980013673 -34.108546056274001 13.50643521345585 #
point $-1 -49.383231970602864 -34.108546056274001 13.50643521345585 #
straight-curve $-1 -32.740503722740812 -36.756039164053846 50.127876590520401 0 0 -1 I I #
point $-1 -32.740503722740812 -36.756039164053846 16.156638791702026 #
straight-curve $-1 -9.983989353528063 -36.756039164053846 13.078342195602882 1 0 0 I I #
point $-1 -32.740503722740812 -36.756039164053846 13.078342195602877 #
point $-1 -27.631493716466935 -34.108546056274001 13.50643521345585 #
point $-1 -19.967978707056126 -34.108546056274001 13.50643521345585 #
point $-1 -12.304463697645318 -34.108546056274001 13.50643521345585 #
straight-curve $-1 4.3382645502167438 -36.756039164053846 50.127876590520401 0 0 -1 I I #
point $-1 4.3382645502167438 -36.756039164053846 16.156638791702026 #
straight-curve $-1 8.5553947829507138 -36.756039164053846 13.078342195602882 1 0 0 I I #
point $-1 4.3382645502167438 -36.756039164053846 13.078342195602877 #
point $-1 9.447274556490612 -34.108546056274001 13.50643521345585 #
point $-1 17.110789565901428 -34.108546056274001 13.50643521345585 #
point $-1 24.774304575312229 -34.108546056274001 13.50643521345585 #
straight-curve $-1 41.417032823174289 -36.756039164053846 50.127876590520401 0 0 -1 I I #
point $-1 41.417032823174289 -36.756039164053846 16.156638791702026 #
straight-curve $-1 27.094778919429487 -36.756039164053846 13.078342195602882 1 0 0 I I #
point $-1 41.417032823174289 -36.756039164053846 13.078342195602877 #
point $-1 46.526042829448158 -34.108546056274001 13.50643521345585 #
point $-1 54.189557838858974 -34.108546056274001 13.50643521345585 #
point $-1 61.85307284826979 -34.108546056274001 13.50643521345585 #
straight-curve $-1 74.157536545915093 36.756039164053846 0 0 0 -1 I I #
End-of-ACIS-data 