500 0 17 0           
7 Unknown 11 ACIS 5.0 NT 24 Thu Mar 25 23:20:29 1999 
-1 9.9999999999999995e-007 1e-010 
body $-1 $17 $-1 $18 #
body $-1 $19 $-1 $20 #
body $-1 $21 $-1 $22 #
body $-1 $23 $-1 $24 #
body $-1 $25 $-1 $26 #
body $-1 $27 $-1 $28 #
body $-1 $29 $-1 $30 #
body $-1 $31 $-1 $32 #
body $-1 $33 $-1 $34 #
body $-1 $35 $-1 $36 #
body $-1 $37 $-1 $38 #
body $-1 $39 $-1 $40 #
body $-1 $41 $-1 $42 #
body $-1 $43 $-1 $44 #
body $-1 $45 $-1 $46 #
body $-1 $47 $-1 $48 #
body $-1 $49 $-1 $50 #
lump $-1 $-1 $51 $0 #
transform $-1 1 0 0 0 1 0 0 0 1 78.602252265999326 35.632845113523786 8.5489684309047487 1 rotate no_reflect no_shear #
lump $-1 $-1 $52 $1 #
transform $-1 1 0 0 0 1 0 0 0 1 1.5879786478683355 5.1258197493268129 8.5489684309047487 1 rotate no_reflect no_shear #
lump $-1 $-1 $53 $2 #
transform $-1 1 0 0 0 1 0 0 0 1 1.5879786478683355 66.139870477720763 8.5489684309047487 1 rotate no_reflect no_shear #
lump $-1 $-1 $54 $3 #
transform $-1 0.81915203911291934 0 -0.57357644374324357 0 1 0 0.57357644374324357 0 0.81915203911291934 118.59891473675819 50.817748100324849 227.77683056483181 1 rotate no_reflect no_shear #
lump $-1 $-1 $55 $4 #
transform $-1 0.81915203911291934 0 -0.57357644374324357 0 -1 0 -0.57357644374324357 0 -0.81915203911291934 149.8181123889951 50.817748100324849 10.844885114874032 1 rotate no_reflect no_shear #
lump $-1 $-1 $56 $5 #
transform $-1 0.70710677298230451 0 0.70710678939079041 0 1 0 -0.70710678939079041 0 0.70710677298230451 -111.16037247739153 18.994943521092374 121.0299003523136 1 rotate no_reflect no_shear #
lump $-1 $-1 $57 $6 #
transform $-1 0.70710677298230451 0 0.70710678939079041 0 -1 0 0.70710678939079041 0 -0.70710677298230451 4.9189799083763219 17.303244041808231 12.178956899842698 1 rotate no_reflect no_shear #
lump $-1 $-1 $58 $7 #
transform $-1 0.70710677298230451 0 0.70710678939079041 0 -1 0 0.70710678939079041 0 -0.70710677298230451 4.9189799083763219 20.686643000376513 12.178956899842698 1 rotate no_reflect no_shear #
lump $-1 $-1 $59 $8 #
transform $-1 0.70710677298230451 0 0.70710678939079041 0 1 0 -0.70710678939079041 0 0.70710677298230451 -111.16037247739153 30.086877916046646 121.0299003523136 1 rotate no_reflect no_shear #
lump $-1 $-1 $60 $9 #
transform $-1 0.70710677298230451 0 0.70710678939079041 0 -1 0 0.70710678939079041 0 -0.70710677298230451 4.9189799083763219 28.395178436762507 12.178956899842698 1 rotate no_reflect no_shear #
lump $-1 $-1 $61 $10 #
transform $-1 0.70710677298230451 0 0.70710678939079041 0 -1 0 0.70710678939079041 0 -0.70710677298230451 4.9189799083763219 31.778577395330785 12.178956899842698 1 rotate no_reflect no_shear #
lump $-1 $-1 $62 $11 #
transform $-1 0.70710677298230451 0 0.70710678939079041 0 1 0 -0.70710678939079041 0 0.70710677298230451 -111.16037247739153 41.178812311000918 121.0299003523136 1 rotate no_reflect no_shear #
lump $-1 $-1 $63 $12 #
transform $-1 0.70710677298230451 0 0.70710678939079041 0 -1 0 0.70710678939079041 0 -0.70710677298230451 4.9189799083763219 39.487112831716779 12.178956899842698 1 rotate no_reflect no_shear #
lump $-1 $-1 $64 $13 #
transform $-1 0.70710677298230451 0 0.70710678939079041 0 -1 0 0.70710678939079041 0 -0.70710677298230451 4.9189799083763219 42.870511790285057 12.178956899842698 1 rotate no_reflect no_shear #
lump $-1 $-1 $65 $14 #
transform $-1 0.70710677298230451 0 0.70710678939079041 0 1 0 -0.70710678939079041 0 0.70710677298230451 -111.16037247739153 52.27074670595519 121.0299003523136 1 rotate no_reflect no_shear #
lump $-1 $-1 $66 $15 #
transform $-1 0.70710677298230451 0 0.70710678939079041 0 -1 0 0.70710678939079041 0 -0.70710677298230451 4.9189799083763219 50.579047226671051 12.178956899842698 1 rotate no_reflect no_shear #
lump $-1 $-1 $67 $16 #
transform $-1 0.70710677298230451 0 0.70710678939079041 0 -1 0 0.70710678939079041 0 -0.70710677298230451 4.9189799083763219 53.96244618523933 12.178956899842698 1 rotate no_reflect no_shear #
shell $-1 $-1 $-1 $68 $-1 $17 #
shell $-1 $-1 $-1 $69 $-1 $19 #
shell $-1 $-1 $-1 $70 $-1 $21 #
shell $-1 $-1 $-1 $71 $-1 $23 #
shell $-1 $-1 $-1 $72 $-1 $25 #
shell $-1 $-1 $-1 $73 $-1 $27 #
shell $-1 $-1 $-1 $74 $-1 $29 #
shell $-1 $-1 $-1 $75 $-1 $31 #
shell $-1 $-1 $-1 $76 $-1 $33 #
shell $-1 $-1 $-1 $77 $-1 $35 #
shell $-1 $-1 $-1 $78 $-1 $37 #
shell $-1 $-1 $-1 $79 $-1 $39 #
shell $-1 $-1 $-1 $80 $-1 $41 #
shell $-1 $-1 $-1 $81 $-1 $43 #
shell $-1 $-1 $-1 $82 $-1 $45 #
shell $-1 $-1 $-1 $83 $-1 $47 #
shell $-1 $-1 $-1 $84 $-1 $49 #
face $-1 $85 $86 $51 $-1 $87 forward single #
face $-1 $88 $89 $52 $-1 $90 forward single #
face $-1 $91 $92 $53 $-1 $93 forward single #
face $-1 $94 $95 $54 $-1 $96 forward single #
face $-1 $97 $98 $55 $-1 $99 forward single #
face $-1 $100 $101 $56 $-1 $102 forward single #
face $-1 $103 $104 $57 $-1 $105 forward single #
face $-1 $106 $107 $58 $-1 $108 forward single #
face $-1 $109 $110 $59 $-1 $111 forward single #
face $-1 $112 $113 $60 $-1 $114 forward single #
face $-1 $115 $116 $61 $-1 $117 forward single #
face $-1 $118 $119 $62 $-1 $120 forward single #
face $-1 $121 $122 $63 $-1 $123 forward single #
face $-1 $124 $125 $64 $-1 $126 forward single #
face $-1 $127 $128 $65 $-1 $129 forward single #
face $-1 $130 $131 $66 $-1 $132 forward single #
face $-1 $133 $134 $67 $-1 $135 forward single #
face $-1 $136 $137 $51 $-1 $138 reversed single #
loop $-1 $-1 $139 $68 #
plane-surface $-1 0 0 8.5489684309047487 0 0 1 1 0 0 forward_v I I I I #
face $-1 $140 $141 $52 $-1 $142 reversed single #
loop $-1 $-1 $143 $69 #
plane-surface $-1 0 0 8.5489684309047487 0 0 1 1 0 0 forward_v I I I I #
face $-1 $144 $145 $53 $-1 $146 reversed single #
loop $-1 $-1 $147 $70 #
plane-surface $-1 0 0 8.5489684309047487 0 0 1 1 0 0 forward_v I I I I #
face $-1 $148 $149 $54 $-1 $150 reversed single #
loop $-1 $-1 $151 $71 #
plane-surface $-1 0 0 157.20450453199865 0 0 1 1 0 0 forward_v I I I I #
face $-1 $152 $153 $55 $-1 $154 forward single #
loop $-1 $155 $156 $72 #
cone-surface $-1 0 0 -1.5445722830896935 0 0 1 1 0 0 1 I I 0 1 1 forward I I I I #
face $-1 $157 $158 $56 $-1 $159 reversed single #
loop $-1 $-1 $160 $73 #
plane-surface $-1 0 0 157.20450453199865 0 0 1 1 0 0 forward_v I I I I #
face $-1 $161 $162 $57 $-1 $163 forward single #
loop $-1 $164 $165 $74 #
cone-surface $-1 0 0 -1.0476165044099233 0 0 1 0.5 0 0 1 I I 0 1 0.5 forward I I I I #
face $-1 $166 $167 $58 $-1 $168 forward single #
loop $-1 $169 $170 $75 #
cone-surface $-1 0 0 -1.0476165044099233 0 0 1 0.5 0 0 1 I I 0 1 0.5 forward I I I I #
face $-1 $171 $172 $59 $-1 $173 reversed single #
loop $-1 $-1 $174 $76 #
plane-surface $-1 0 0 157.20450453199865 0 0 1 1 0 0 forward_v I I I I #
face $-1 $175 $176 $60 $-1 $177 forward single #
loop $-1 $178 $179 $77 #
cone-surface $-1 0 0 -1.0476165044099233 0 0 1 0.5 0 0 1 I I 0 1 0.5 forward I I I I #
face $-1 $180 $181 $61 $-1 $182 forward single #
loop $-1 $183 $184 $78 #
cone-surface $-1 0 0 -1.0476165044099233 0 0 1 0.5 0 0 1 I I 0 1 0.5 forward I I I I #
face $-1 $185 $186 $62 $-1 $187 reversed single #
loop $-1 $-1 $188 $79 #
plane-surface $-1 0 0 157.20450453199865 0 0 1 1 0 0 forward_v I I I I #
face $-1 $189 $190 $63 $-1 $191 forward single #
loop $-1 $192 $193 $80 #
cone-surface $-1 0 0 -1.0476165044099233 0 0 1 0.5 0 0 1 I I 0 1 0.5 forward I I I I #
face $-1 $194 $195 $64 $-1 $196 forward single #
loop $-1 $197 $198 $81 #
cone-surface $-1 0 0 -1.0476165044099233 0 0 1 0.5 0 0 1 I I 0 1 0.5 forward I I I I #
face $-1 $199 $200 $65 $-1 $201 reversed single #
loop $-1 $-1 $202 $82 #
plane-surface $-1 0 0 157.20450453199865 0 0 1 1 0 0 forward_v I I I I #
face $-1 $203 $204 $66 $-1 $205 forward single #
loop $-1 $206 $207 $83 #
cone-surface $-1 0 0 -1.0476165044099233 0 0 1 0.5 0 0 1 I I 0 1 0.5 forward I I I I #
face $-1 $208 $209 $67 $-1 $210 forward single #
loop $-1 $211 $212 $84 #
cone-surface $-1 0 0 -1.0476165044099233 0 0 1 0.5 0 0 1 I I 0 1 0.5 forward I I I I #
face $-1 $213 $214 $51 $-1 $215 reversed single #
loop $-1 $-1 $216 $85 #
plane-surface $-1 0 0 -8.5489684309047487 0 0 1 1 0 0 forward_v I I I I #
coedge $-1 $217 $218 $219 $220 forward $86 $-1 #
face $-1 $221 $222 $52 $-1 $223 reversed single #
loop $-1 $-1 $224 $88 #
plane-surface $-1 0 0 -8.5489684309047487 0 0 1 1 0 0 forward_v I I I I #
coedge $-1 $225 $226 $227 $228 forward $89 $-1 #
face $-1 $229 $230 $53 $-1 $231 reversed single #
loop $-1 $-1 $232 $91 #
plane-surface $-1 0 0 -8.5489684309047487 0 0 1 1 0 0 forward_v I I I I #
coedge $-1 $233 $234 $235 $236 forward $92 $-1 #
face $-1 $237 $238 $54 $-1 $239 reversed single #
loop $-1 $-1 $240 $94 #
plane-surface $-1 0 0 -157.20450453199865 0 0 1 1 0 0 forward_v I I I I #
coedge $-1 $241 $242 $243 $244 forward $95 $-1 #
face $-1 $-1 $245 $55 $-1 $246 forward single #
loop $-1 $-1 $247 $97 #
plane-surface $-1 0 0 -2.5891445661793875 0 0 -1 -1 0 0 forward_v I I I I #
loop $-1 $-1 $248 $72 #
coedge $-1 $156 $156 $247 $249 reversed $98 $-1 #
face $-1 $250 $251 $56 $-1 $252 reversed single #
loop $-1 $-1 $253 $100 #
plane-surface $-1 0 0 -157.20450453199865 0 0 1 1 0 0 forward_v I I I I #
coedge $-1 $254 $255 $256 $257 forward $101 $-1 #
face $-1 $-1 $258 $57 $-1 $259 forward single #
loop $-1 $-1 $260 $103 #
plane-surface $-1 0 0 -1.8452330088198474 0 0 -1 -1 0 0 forward_v I I I I #
loop $-1 $-1 $261 $74 #
coedge $-1 $165 $165 $260 $262 reversed $104 $-1 #
face $-1 $-1 $263 $58 $-1 $264 forward single #
loop $-1 $-1 $265 $106 #
plane-surface $-1 0 0 -1.8452330088198474 0 0 -1 -1 0 0 forward_v I I I I #
loop $-1 $-1 $266 $75 #
coedge $-1 $170 $170 $265 $267 reversed $107 $-1 #
face $-1 $268 $269 $59 $-1 $270 reversed single #
loop $-1 $-1 $271 $109 #
plane-surface $-1 0 0 -157.20450453199865 0 0 1 1 0 0 forward_v I I I I #
coedge $-1 $272 $273 $274 $275 forward $110 $-1 #
face $-1 $-1 $276 $60 $-1 $277 forward single #
loop $-1 $-1 $278 $112 #
plane-surface $-1 0 0 -1.8452330088198474 0 0 -1 -1 0 0 forward_v I I I I #
loop $-1 $-1 $279 $77 #
coedge $-1 $179 $179 $278 $280 reversed $113 $-1 #
face $-1 $-1 $281 $61 $-1 $282 forward single #
loop $-1 $-1 $283 $115 #
plane-surface $-1 0 0 -1.8452330088198474 0 0 -1 -1 0 0 forward_v I I I I #
loop $-1 $-1 $284 $78 #
coedge $-1 $184 $184 $283 $285 reversed $116 $-1 #
face $-1 $286 $287 $62 $-1 $288 reversed single #
loop $-1 $-1 $289 $118 #
plane-surface $-1 0 0 -157.20450453199865 0 0 1 1 0 0 forward_v I I I I #
coedge $-1 $290 $291 $292 $293 forward $119 $-1 #
face $-1 $-1 $294 $63 $-1 $295 forward single #
loop $-1 $-1 $296 $121 #
plane-surface $-1 0 0 -1.8452330088198474 0 0 -1 -1 0 0 forward_v I I I I #
loop $-1 $-1 $297 $80 #
coedge $-1 $193 $193 $296 $298 reversed $122 $-1 #
face $-1 $-1 $299 $64 $-1 $300 forward single #
loop $-1 $-1 $301 $124 #
plane-surface $-1 0 0 -1.8452330088198474 0 0 -1 -1 0 0 forward_v I I I I #
loop $-1 $-1 $302 $81 #
coedge $-1 $198 $198 $301 $303 reversed $125 $-1 #
face $-1 $304 $305 $65 $-1 $306 reversed single #
loop $-1 $-1 $307 $127 #
plane-surface $-1 0 0 -157.20450453199865 0 0 1 1 0 0 forward_v I I I I #
coedge $-1 $308 $309 $310 $311 forward $128 $-1 #
face $-1 $-1 $312 $66 $-1 $313 forward single #
loop $-1 $-1 $314 $130 #
plane-surface $-1 0 0 -1.8452330088198474 0 0 -1 -1 0 0 forward_v I I I I #
loop $-1 $-1 $315 $83 #
coedge $-1 $207 $207 $314 $316 reversed $131 $-1 #
face $-1 $-1 $317 $67 $-1 $318 forward single #
loop $-1 $-1 $319 $133 #
plane-surface $-1 0 0 -1.8452330088198474 0 0 -1 -1 0 0 forward_v I I I I #
loop $-1 $-1 $320 $84 #
coedge $-1 $212 $212 $319 $321 reversed $134 $-1 #
face $-1 $322 $323 $51 $-1 $324 reversed single #
loop $-1 $-1 $325 $136 #
plane-surface $-1 0 -35.632845113523786 0 0 1 0 0 0 1 forward_v I I I I #
coedge $-1 $326 $327 $328 $329 forward $137 $-1 #
coedge $-1 $330 $139 $331 $332 forward $86 $-1 #
coedge $-1 $139 $330 $333 $334 forward $86 $-1 #
coedge $-1 $335 $336 $139 $220 reversed $337 $-1 #
edge $-1 $338 -35.632845113523786 $339 35.632845113523786 $219 $340 forward 7 unknown #
face $-1 $341 $342 $52 $-1 $343 reversed single #
loop $-1 $-1 $344 $140 #
plane-surface $-1 0 -5.1258197493268129 0 0 1 0 0 0 1 forward_v I I I I #
coedge $-1 $345 $346 $347 $348 forward $141 $-1 #
coedge $-1 $349 $143 $350 $351 forward $89 $-1 #
coedge $-1 $143 $349 $352 $353 forward $89 $-1 #
coedge $-1 $354 $355 $143 $228 reversed $356 $-1 #
edge $-1 $357 -5.1258197493268129 $358 5.1258197493268129 $227 $359 forward 7 unknown #
face $-1 $360 $361 $53 $-1 $362 reversed single #
loop $-1 $-1 $363 $144 #
plane-surface $-1 0 -5.1258197493268121 0 0 1 0 0 0 1 forward_v I I I I #
coedge $-1 $364 $365 $366 $367 forward $145 $-1 #
coedge $-1 $368 $147 $369 $370 forward $92 $-1 #
coedge $-1 $147 $368 $371 $372 forward $92 $-1 #
coedge $-1 $373 $374 $147 $236 reversed $375 $-1 #
edge $-1 $376 -5.1258197493268121 $377 5.1258197493268121 $235 $378 forward 7 unknown #
face $-1 $379 $380 $54 $-1 $381 reversed single #
loop $-1 $-1 $382 $148 #
plane-surface $-1 0 -6.9137650665163584 0 0 1 0 0 0 1 forward_v I I I I #
coedge $-1 $383 $384 $385 $386 forward $149 $-1 #
coedge $-1 $387 $151 $388 $389 forward $95 $-1 #
coedge $-1 $151 $387 $390 $391 forward $95 $-1 #
coedge $-1 $392 $393 $151 $244 reversed $394 $-1 #
edge $-1 $395 -6.9137650665163584 $396 6.9137650665163584 $243 $397 forward 7 unknown #
loop $-1 $398 $399 $152 #
cone-surface $-1 0 0 0 0 0 1 0.5 0 0 1 I I -0.70710678118654746 0.70710678118654746 0.5 forward I I I I #
coedge $-1 $247 $247 $156 $249 forward $153 $-1 #
coedge $-1 $248 $248 $399 $400 forward $155 $-1 #
edge $-1 $401 0 $401 6.2831853071796004 $247 $402 forward 7 unknown #
face $-1 $403 $404 $56 $-1 $405 reversed single #
loop $-1 $-1 $406 $157 #
plane-surface $-1 0 -3.9472987849963328 0 0 1 0 0 0 1 forward_v I I I I #
coedge $-1 $407 $408 $409 $410 forward $158 $-1 #
coedge $-1 $411 $160 $412 $413 forward $101 $-1 #
coedge $-1 $160 $411 $414 $415 forward $101 $-1 #
coedge $-1 $416 $417 $160 $257 reversed $418 $-1 #
edge $-1 $419 -3.9472987849963328 $420 3.9472987849963328 $256 $421 forward 7 unknown #
loop $-1 $422 $423 $161 #
cone-surface $-1 0 0 0 0 0 1 0.25 0 0 1 I I -0.70710678118654691 0.70710678118654813 0.25 forward I I I I #
coedge $-1 $260 $260 $165 $262 forward $162 $-1 #
coedge $-1 $261 $261 $423 $424 forward $164 $-1 #
edge $-1 $425 0 $425 6.2831853071796004 $260 $426 forward 7 unknown #
loop $-1 $427 $428 $166 #
cone-surface $-1 0 0 0 0 0 1 0.25 0 0 1 I I -0.70710678118654691 0.70710678118654813 0.25 forward I I I I #
coedge $-1 $265 $265 $170 $267 forward $167 $-1 #
coedge $-1 $266 $266 $428 $429 forward $169 $-1 #
edge $-1 $430 0 $430 6.2831853071796004 $265 $431 forward 7 unknown #
face $-1 $432 $433 $59 $-1 $434 reversed single #
loop $-1 $-1 $435 $171 #
plane-surface $-1 0 -3.9472987849963328 0 0 1 0 0 0 1 forward_v I I I I #
coedge $-1 $436 $437 $438 $439 forward $172 $-1 #
coedge $-1 $440 $174 $441 $442 forward $110 $-1 #
coedge $-1 $174 $440 $443 $444 forward $110 $-1 #
coedge $-1 $445 $446 $174 $275 reversed $447 $-1 #
edge $-1 $448 -3.9472987849963328 $449 3.9472987849963328 $274 $450 forward 7 unknown #
loop $-1 $451 $452 $175 #
cone-surface $-1 0 0 0 0 0 1 0.25 0 0 1 I I -0.70710678118654691 0.70710678118654813 0.25 forward I I I I #
coedge $-1 $278 $278 $179 $280 forward $176 $-1 #
coedge $-1 $279 $279 $452 $453 forward $178 $-1 #
edge $-1 $454 0 $454 6.2831853071796004 $278 $455 forward 7 unknown #
loop $-1 $456 $457 $180 #
cone-surface $-1 0 0 0 0 0 1 0.25 0 0 1 I I -0.70710678118654691 0.70710678118654813 0.25 forward I I I I #
coedge $-1 $283 $283 $184 $285 forward $181 $-1 #
coedge $-1 $284 $284 $457 $458 forward $183 $-1 #
edge $-1 $459 0 $459 6.2831853071796004 $283 $460 forward 7 unknown #
face $-1 $461 $462 $62 $-1 $463 reversed single #
loop $-1 $-1 $464 $185 #
plane-surface $-1 0 -3.9472987849963328 0 0 1 0 0 0 1 forward_v I I I I #
coedge $-1 $465 $466 $467 $468 forward $186 $-1 #
coedge $-1 $469 $188 $470 $471 forward $119 $-1 #
coedge $-1 $188 $469 $472 $473 forward $119 $-1 #
coedge $-1 $474 $475 $188 $293 reversed $476 $-1 #
edge $-1 $477 -3.9472987849963328 $478 3.9472987849963328 $292 $479 forward 7 unknown #
loop $-1 $480 $481 $189 #
cone-surface $-1 0 0 0 0 0 1 0.25 0 0 1 I I -0.70710678118654691 0.70710678118654813 0.25 forward I I I I #
coedge $-1 $296 $296 $193 $298 forward $190 $-1 #
coedge $-1 $297 $297 $481 $482 forward $192 $-1 #
edge $-1 $483 0 $483 6.2831853071796004 $296 $484 forward 7 unknown #
loop $-1 $485 $486 $194 #
cone-surface $-1 0 0 0 0 0 1 0.25 0 0 1 I I -0.70710678118654691 0.70710678118654813 0.25 forward I I I I #
coedge $-1 $301 $301 $198 $303 forward $195 $-1 #
coedge $-1 $302 $302 $486 $487 forward $197 $-1 #
edge $-1 $488 0 $488 6.2831853071796004 $301 $489 forward 7 unknown #
face $-1 $490 $491 $65 $-1 $492 reversed single #
loop $-1 $-1 $493 $199 #
plane-surface $-1 0 -3.9472987849963328 0 0 1 0 0 0 1 forward_v I I I I #
coedge $-1 $494 $495 $496 $497 forward $200 $-1 #
coedge $-1 $498 $202 $499 $500 forward $128 $-1 #
coedge $-1 $202 $498 $501 $502 forward $128 $-1 #
coedge $-1 $503 $504 $202 $311 reversed $505 $-1 #
edge $-1 $506 -3.9472987849963328 $507 3.9472987849963328 $310 $508 forward 7 unknown #
loop $-1 $509 $510 $203 #
cone-surface $-1 0 0 0 0 0 1 0.25 0 0 1 I I -0.70710678118654691 0.70710678118654813 0.25 forward I I I I #
coedge $-1 $314 $314 $207 $316 forward $204 $-1 #
coedge $-1 $315 $315 $510 $511 forward $206 $-1 #
edge $-1 $512 0 $512 6.2831853071796004 $314 $513 forward 7 unknown #
loop $-1 $514 $515 $208 #
cone-surface $-1 0 0 0 0 0 1 0.25 0 0 1 I I -0.70710678118654691 0.70710678118654813 0.25 forward I I I I #
coedge $-1 $319 $319 $212 $321 forward $209 $-1 #
coedge $-1 $320 $320 $515 $516 forward $211 $-1 #
edge $-1 $517 0 $517 6.2831853071796004 $319 $518 forward 7 unknown #
face $-1 $519 $520 $51 $-1 $521 reversed single #
loop $-1 $-1 $522 $213 #
plane-surface $-1 -78.602252265999326 0 0 1 0 0 0 0 -1 forward_v I I I I #
coedge $-1 $523 $333 $524 $525 forward $214 $-1 #
coedge $-1 $526 $216 $523 $527 forward $137 $-1 #
coedge $-1 $216 $526 $528 $529 forward $137 $-1 #
coedge $-1 $336 $335 $216 $329 reversed $337 $-1 #
edge $-1 $530 -35.632845113523786 $531 35.632845113523786 $328 $532 forward 7 unknown #
coedge $-1 $218 $217 $533 $534 forward $86 $-1 #
coedge $-1 $535 $536 $217 $332 reversed $520 $-1 #
edge $-1 $339 -78.602252265999326 $537 78.602252265999326 $331 $538 forward 7 unknown #
coedge $-1 $325 $539 $218 $334 reversed $214 $-1 #
edge $-1 $540 -78.602252265999326 $338 78.602252265999326 $333 $541 forward 7 unknown #
coedge $-1 $328 $219 $539 $542 forward $337 $-1 #
coedge $-1 $219 $328 $535 $543 reversed $337 $-1 #
loop $-1 $-1 $335 $519 #
vertex $-1 $220 $544 #
vertex $-1 $220 $545 #
straight-curve $-1 78.602252265999326 0 8.5489684309047487 0 1 0 I I #
face $-1 $546 $547 $52 $-1 $548 reversed single #
loop $-1 $-1 $549 $221 #
plane-surface $-1 -1.5879786478683355 0 0 1 0 0 0 0 -1 forward_v I I I I #
coedge $-1 $550 $352 $551 $552 forward $222 $-1 #
coedge $-1 $553 $224 $550 $554 forward $141 $-1 #
coedge $-1 $224 $553 $555 $556 forward $141 $-1 #
coedge $-1 $355 $354 $224 $348 reversed $356 $-1 #
edge $-1 $557 -5.1258197493268129 $558 5.1258197493268129 $347 $559 forward 7 unknown #
coedge $-1 $226 $225 $560 $561 forward $89 $-1 #
coedge $-1 $562 $563 $225 $351 reversed $547 $-1 #
edge $-1 $358 -1.5879786478683355 $564 1.5879786478683355 $350 $565 forward 7 unknown #
coedge $-1 $344 $566 $226 $353 reversed $222 $-1 #
edge $-1 $567 -1.5879786478683355 $357 1.5879786478683355 $352 $568 forward 7 unknown #
coedge $-1 $347 $227 $566 $569 forward $356 $-1 #
coedge $-1 $227 $347 $562 $570 reversed $356 $-1 #
loop $-1 $-1 $354 $546 #
vertex $-1 $228 $571 #
vertex $-1 $228 $572 #
straight-curve $-1 1.5879786478683355 0 8.5489684309047487 0 1 0 I I #
face $-1 $573 $574 $53 $-1 $575 reversed single #
loop $-1 $-1 $576 $229 #
plane-surface $-1 -1.5879786478683355 0 0 1 0 0 0 0 -1 forward_v I I I I #
coedge $-1 $577 $371 $578 $579 forward $230 $-1 #
coedge $-1 $580 $232 $577 $581 forward $145 $-1 #
coedge $-1 $232 $580 $582 $583 forward $145 $-1 #
coedge $-1 $374 $373 $232 $367 reversed $375 $-1 #
edge $-1 $584 -5.1258197493268121 $585 5.1258197493268121 $366 $586 forward 7 unknown #
coedge $-1 $234 $233 $587 $588 forward $92 $-1 #
coedge $-1 $589 $590 $233 $370 reversed $574 $-1 #
edge $-1 $377 -1.5879786478683355 $591 1.5879786478683355 $369 $592 forward 7 unknown #
coedge $-1 $363 $593 $234 $372 reversed $230 $-1 #
edge $-1 $594 -1.5879786478683355 $376 1.5879786478683355 $371 $595 forward 7 unknown #
coedge $-1 $366 $235 $593 $596 forward $375 $-1 #
coedge $-1 $235 $366 $589 $597 reversed $375 $-1 #
loop $-1 $-1 $373 $573 #
vertex $-1 $236 $598 #
vertex $-1 $236 $599 #
straight-curve $-1 1.5879786478683355 0 8.5489684309047487 0 1 0 I I #
face $-1 $600 $601 $54 $-1 $602 reversed single #
loop $-1 $-1 $603 $237 #
plane-surface $-1 -314.4090090639973 0 0 1 0 0 0 0 -1 forward_v I I I I #
coedge $-1 $604 $390 $605 $606 forward $238 $-1 #
coedge $-1 $607 $240 $604 $608 forward $149 $-1 #
coedge $-1 $240 $607 $609 $610 forward $149 $-1 #
coedge $-1 $393 $392 $240 $386 reversed $394 $-1 #
edge $-1 $611 -6.9137650665163584 $612 6.9137650665163584 $385 $613 forward 7 unknown #
coedge $-1 $242 $241 $614 $615 forward $95 $-1 #
coedge $-1 $616 $617 $241 $389 reversed $601 $-1 #
edge $-1 $396 -314.4090090639973 $618 314.4090090639973 $388 $619 forward 7 unknown #
coedge $-1 $382 $620 $242 $391 reversed $238 $-1 #
edge $-1 $621 -314.4090090639973 $395 314.4090090639973 $390 $622 forward 7 unknown #
coedge $-1 $385 $243 $620 $623 forward $394 $-1 #
coedge $-1 $243 $385 $616 $624 reversed $394 $-1 #
loop $-1 $-1 $392 $600 #
vertex $-1 $244 $625 #
vertex $-1 $244 $626 #
straight-curve $-1 314.4090090639973 0 157.20450453199865 0 1 0 I I #
loop $-1 $-1 $627 $152 #
coedge $-1 $399 $399 $248 $400 reversed $245 $-1 #
edge $-1 $628 0 $628 6.2831853071796004 $399 $629 forward 7 unknown #
vertex $-1 $249 $630 #
ellipse-curve $-1 0 0 -2.5891445661793875 0 0 -1 1 0 0 1 I I #
face $-1 $631 $632 $56 $-1 $633 reversed single #
loop $-1 $-1 $634 $250 #
plane-surface $-1 -314.4090090639973 0 0 1 0 0 0 0 -1 forward_v I I I I #
coedge $-1 $635 $414 $636 $637 forward $251 $-1 #
coedge $-1 $638 $253 $635 $639 forward $158 $-1 #
coedge $-1 $253 $638 $640 $641 forward $158 $-1 #
coedge $-1 $417 $416 $253 $410 reversed $418 $-1 #
edge $-1 $642 -3.9472987849963328 $643 3.9472987849963328 $409 $644 forward 7 unknown #
coedge $-1 $255 $254 $645 $646 forward $101 $-1 #
coedge $-1 $647 $648 $254 $413 reversed $632 $-1 #
edge $-1 $420 -314.4090090639973 $649 314.4090090639973 $412 $650 forward 7 unknown #
coedge $-1 $406 $651 $255 $415 reversed $251 $-1 #
edge $-1 $652 -314.4090090639973 $419 314.4090090639973 $414 $653 forward 7 unknown #
coedge $-1 $409 $256 $651 $654 forward $418 $-1 #
coedge $-1 $256 $409 $647 $655 reversed $418 $-1 #
loop $-1 $-1 $416 $631 #
vertex $-1 $257 $656 #
vertex $-1 $257 $657 #
straight-curve $-1 314.4090090639973 0 157.20450453199865 0 1 0 I I #
loop $-1 $-1 $658 $161 #
coedge $-1 $423 $423 $261 $424 reversed $258 $-1 #
edge $-1 $659 0 $659 6.2831853071796004 $423 $660 forward 7 unknown #
vertex $-1 $262 $661 #
ellipse-curve $-1 0 0 -1.8452330088198474 0 0 -1 0.5 0 0 1 I I #
loop $-1 $-1 $662 $166 #
coedge $-1 $428 $428 $266 $429 reversed $263 $-1 #
edge $-1 $663 0 $663 6.2831853071796004 $428 $664 forward 7 unknown #
vertex $-1 $267 $665 #
ellipse-curve $-1 0 0 -1.8452330088198474 0 0 -1 0.5 0 0 1 I I #
face $-1 $666 $667 $59 $-1 $668 reversed single #
loop $-1 $-1 $669 $268 #
plane-surface $-1 -314.4090090639973 0 0 1 0 0 0 0 -1 forward_v I I I I #
coedge $-1 $670 $443 $671 $672 forward $269 $-1 #
coedge $-1 $673 $271 $670 $674 forward $172 $-1 #
coedge $-1 $271 $673 $675 $676 forward $172 $-1 #
coedge $-1 $446 $445 $271 $439 reversed $447 $-1 #
edge $-1 $677 -3.9472987849963328 $678 3.9472987849963328 $438 $679 forward 7 unknown #
coedge $-1 $273 $272 $680 $681 forward $110 $-1 #
coedge $-1 $682 $683 $272 $442 reversed $667 $-1 #
edge $-1 $449 -314.4090090639973 $684 314.4090090639973 $441 $685 forward 7 unknown #
coedge $-1 $435 $686 $273 $444 reversed $269 $-1 #
edge $-1 $687 -314.4090090639973 $448 314.4090090639973 $443 $688 forward 7 unknown #
coedge $-1 $438 $274 $686 $689 forward $447 $-1 #
coedge $-1 $274 $438 $682 $690 reversed $447 $-1 #
loop $-1 $-1 $445 $666 #
vertex $-1 $275 $691 #
vertex $-1 $275 $692 #
straight-curve $-1 314.4090090639973 0 157.20450453199865 0 1 0 I I #
loop $-1 $-1 $693 $175 #
coedge $-1 $452 $452 $279 $453 reversed $276 $-1 #
edge $-1 $694 0 $694 6.2831853071796004 $452 $695 forward 7 unknown #
vertex $-1 $280 $696 #
ellipse-curve $-1 0 0 -1.8452330088198474 0 0 -1 0.5 0 0 1 I I #
loop $-1 $-1 $697 $180 #
coedge $-1 $457 $457 $284 $458 reversed $281 $-1 #
edge $-1 $698 0 $698 6.2831853071796004 $457 $699 forward 7 unknown #
vertex $-1 $285 $700 #
ellipse-curve $-1 0 0 -1.8452330088198474 0 0 -1 0.5 0 0 1 I I #
face $-1 $701 $702 $62 $-1 $703 reversed single #
loop $-1 $-1 $704 $286 #
plane-surface $-1 -314.4090090639973 0 0 1 0 0 0 0 -1 forward_v I I I I #
coedge $-1 $705 $472 $706 $707 forward $287 $-1 #
coedge $-1 $708 $289 $705 $709 forward $186 $-1 #
coedge $-1 $289 $708 $710 $711 forward $186 $-1 #
coedge $-1 $475 $474 $289 $468 reversed $476 $-1 #
edge $-1 $712 -3.9472987849963328 $713 3.9472987849963328 $467 $714 forward 7 unknown #
coedge $-1 $291 $290 $715 $716 forward $119 $-1 #
coedge $-1 $717 $718 $290 $471 reversed $702 $-1 #
edge $-1 $478 -314.4090090639973 $719 314.4090090639973 $470 $720 forward 7 unknown #
coedge $-1 $464 $721 $291 $473 reversed $287 $-1 #
edge $-1 $722 -314.4090090639973 $477 314.4090090639973 $472 $723 forward 7 unknown #
coedge $-1 $467 $292 $721 $724 forward $476 $-1 #
coedge $-1 $292 $467 $717 $725 reversed $476 $-1 #
loop $-1 $-1 $474 $701 #
vertex $-1 $293 $726 #
vertex $-1 $293 $727 #
straight-curve $-1 314.4090090639973 0 157.20450453199865 0 1 0 I I #
loop $-1 $-1 $728 $189 #
coedge $-1 $481 $481 $297 $482 reversed $294 $-1 #
edge $-1 $729 0 $729 6.2831853071796004 $481 $730 forward 7 unknown #
vertex $-1 $298 $731 #
ellipse-curve $-1 0 0 -1.8452330088198474 0 0 -1 0.5 0 0 1 I I #
loop $-1 $-1 $732 $194 #
coedge $-1 $486 $486 $302 $487 reversed $299 $-1 #
edge $-1 $733 0 $733 6.2831853071796004 $486 $734 forward 7 unknown #
vertex $-1 $303 $735 #
ellipse-curve $-1 0 0 -1.8452330088198474 0 0 -1 0.5 0 0 1 I I #
face $-1 $736 $737 $65 $-1 $738 reversed single #
loop $-1 $-1 $739 $304 #
plane-surface $-1 -314.4090090639973 0 0 1 0 0 0 0 -1 forward_v I I I I #
coedge $-1 $740 $501 $741 $742 forward $305 $-1 #
coedge $-1 $743 $307 $740 $744 forward $200 $-1 #
coedge $-1 $307 $743 $745 $746 forward $200 $-1 #
coedge $-1 $504 $503 $307 $497 reversed $505 $-1 #
edge $-1 $747 -3.9472987849963328 $748 3.9472987849963328 $496 $749 forward 7 unknown #
coedge $-1 $309 $308 $750 $751 forward $128 $-1 #
coedge $-1 $752 $753 $308 $500 reversed $737 $-1 #
edge $-1 $507 -314.4090090639973 $754 314.4090090639973 $499 $755 forward 7 unknown #
coedge $-1 $493 $756 $309 $502 reversed $305 $-1 #
edge $-1 $757 -314.4090090639973 $506 314.4090090639973 $501 $758 forward 7 unknown #
coedge $-1 $496 $310 $756 $759 forward $505 $-1 #
coedge $-1 $310 $496 $752 $760 reversed $505 $-1 #
loop $-1 $-1 $503 $736 #
vertex $-1 $311 $761 #
vertex $-1 $311 $762 #
straight-curve $-1 314.4090090639973 0 157.20450453199865 0 1 0 I I #
loop $-1 $-1 $763 $203 #
coedge $-1 $510 $510 $315 $511 reversed $312 $-1 #
edge $-1 $764 0 $764 6.2831853071796004 $510 $765 forward 7 unknown #
vertex $-1 $316 $766 #
ellipse-curve $-1 0 0 -1.8452330088198474 0 0 -1 0.5 0 0 1 I I #
loop $-1 $-1 $767 $208 #
coedge $-1 $515 $515 $320 $516 reversed $317 $-1 #
edge $-1 $768 0 $768 6.2831853071796004 $515 $769 forward 7 unknown #
vertex $-1 $321 $770 #
ellipse-curve $-1 0 0 -1.8452330088198474 0 0 -1 0.5 0 0 1 I I #
face $-1 $-1 $337 $51 $-1 $771 reversed single #
loop $-1 $-1 $535 $322 #
plane-surface $-1 0 35.632845113523786 0 0 -1 0 0 0 -1 forward_v I I I I #
coedge $-1 $772 $533 $536 $773 forward $323 $-1 #
coedge $-1 $539 $325 $326 $527 reversed $214 $-1 #
coedge $-1 $533 $772 $325 $525 reversed $323 $-1 #
edge $-1 $540 -8.5489684309047487 $774 8.5489684309047487 $524 $775 forward 7 unknown #
coedge $-1 $327 $326 $772 $776 forward $137 $-1 #
edge $-1 $531 -78.602252265999326 $774 78.602252265999326 $523 $777 forward 7 unknown #
coedge $-1 $536 $535 $327 $529 reversed $520 $-1 #
edge $-1 $778 -78.602252265999326 $530 78.602252265999326 $528 $779 forward 7 unknown #
vertex $-1 $329 $780 #
vertex $-1 $542 $781 #
straight-curve $-1 78.602252265999326 0 -8.5489684309047487 0 -1 0 I I #
coedge $-1 $522 $524 $330 $534 reversed $323 $-1 #
edge $-1 $537 -35.632845113523786 $540 35.632845113523786 $533 $782 forward 7 unknown #
coedge $-1 $528 $331 $336 $543 forward $520 $-1 #
coedge $-1 $331 $528 $522 $773 reversed $520 $-1 #
vertex $-1 $332 $783 #
straight-curve $-1 0 35.632845113523786 8.5489684309047487 -1 0 0 I I #
coedge $-1 $333 $523 $335 $542 reversed $214 $-1 #
vertex $-1 $534 $784 #
straight-curve $-1 0 -35.632845113523786 8.5489684309047487 1 0 0 I I #
edge $-1 $338 -8.5489684309047487 $531 8.5489684309047487 $335 $785 forward 7 unknown #
edge $-1 $339 -8.5489684309047487 $530 8.5489684309047487 $336 $786 forward 7 unknown #
point $-1 78.602252265999326 -35.632845113523786 8.5489684309047487 #
point $-1 78.602252265999326 35.632845113523786 8.5489684309047487 #
face $-1 $-1 $356 $52 $-1 $787 reversed single #
loop $-1 $-1 $562 $341 #
plane-surface $-1 0 5.1258197493268129 0 0 -1 0 0 0 -1 forward_v I I I I #
coedge $-1 $788 $560 $563 $789 forward $342 $-1 #
coedge $-1 $566 $344 $345 $554 reversed $222 $-1 #
coedge $-1 $560 $788 $344 $552 reversed $342 $-1 #
edge $-1 $567 -8.5489684309047487 $790 8.5489684309047487 $551 $791 forward 7 unknown #
coedge $-1 $346 $345 $788 $792 forward $141 $-1 #
edge $-1 $558 -1.5879786478683355 $790 1.5879786478683355 $550 $793 forward 7 unknown #
coedge $-1 $563 $562 $346 $556 reversed $547 $-1 #
edge $-1 $794 -1.5879786478683355 $557 1.5879786478683355 $555 $795 forward 7 unknown #
vertex $-1 $348 $796 #
vertex $-1 $569 $797 #
straight-curve $-1 1.5879786478683355 0 -8.5489684309047487 0 -1 0 I I #
coedge $-1 $549 $551 $349 $561 reversed $342 $-1 #
edge $-1 $564 -5.1258197493268129 $567 5.1258197493268129 $560 $798 forward 7 unknown #
coedge $-1 $555 $350 $355 $570 forward $547 $-1 #
coedge $-1 $350 $555 $549 $789 reversed $547 $-1 #
vertex $-1 $351 $799 #
straight-curve $-1 0 5.1258197493268129 8.5489684309047487 -1 0 0 I I #
coedge $-1 $352 $550 $354 $569 reversed $222 $-1 #
vertex $-1 $561 $800 #
straight-curve $-1 0 -5.1258197493268129 8.5489684309047487 1 0 0 I I #
edge $-1 $357 -8.5489684309047487 $558 8.5489684309047487 $354 $801 forward 7 unknown #
edge $-1 $358 -8.5489684309047487 $557 8.5489684309047487 $355 $802 forward 7 unknown #
point $-1 1.5879786478683355 -5.1258197493268129 8.5489684309047487 #
point $-1 1.5879786478683355 5.1258197493268129 8.5489684309047487 #
face $-1 $-1 $375 $53 $-1 $803 reversed single #
loop $-1 $-1 $589 $360 #
plane-surface $-1 0 5.1258197493268121 0 0 -1 0 0 0 -1 forward_v I I I I #
coedge $-1 $804 $587 $590 $805 forward $361 $-1 #
coedge $-1 $593 $363 $364 $581 reversed $230 $-1 #
coedge $-1 $587 $804 $363 $579 reversed $361 $-1 #
edge $-1 $594 -8.5489684309047487 $806 8.5489684309047487 $578 $807 forward 7 unknown #
coedge $-1 $365 $364 $804 $808 forward $145 $-1 #
edge $-1 $585 -1.5879786478683355 $806 1.5879786478683355 $577 $809 forward 7 unknown #
coedge $-1 $590 $589 $365 $583 reversed $574 $-1 #
edge $-1 $810 -1.5879786478683355 $584 1.5879786478683355 $582 $811 forward 7 unknown #
vertex $-1 $367 $812 #
vertex $-1 $596 $813 #
straight-curve $-1 1.5879786478683355 0 -8.5489684309047487 0 -1 0 I I #
coedge $-1 $576 $578 $368 $588 reversed $361 $-1 #
edge $-1 $591 -5.1258197493268121 $594 5.1258197493268121 $587 $814 forward 7 unknown #
coedge $-1 $582 $369 $374 $597 forward $574 $-1 #
coedge $-1 $369 $582 $576 $805 reversed $574 $-1 #
vertex $-1 $370 $815 #
straight-curve $-1 0 5.1258197493268121 8.5489684309047487 -1 0 0 I I #
coedge $-1 $371 $577 $373 $596 reversed $230 $-1 #
vertex $-1 $588 $816 #
straight-curve $-1 0 -5.1258197493268121 8.5489684309047487 1 0 0 I I #
edge $-1 $376 -8.5489684309047487 $585 8.5489684309047487 $373 $817 forward 7 unknown #
edge $-1 $377 -8.5489684309047487 $584 8.5489684309047487 $374 $818 forward 7 unknown #
point $-1 1.5879786478683355 -5.1258197493268121 8.5489684309047487 #
point $-1 1.5879786478683355 5.1258197493268121 8.5489684309047487 #
face $-1 $-1 $394 $54 $-1 $819 reversed single #
loop $-1 $-1 $616 $379 #
plane-surface $-1 0 6.9137650665163584 0 0 -1 0 0 0 -1 forward_v I I I I #
coedge $-1 $820 $614 $617 $821 forward $380 $-1 #
coedge $-1 $620 $382 $383 $608 reversed $238 $-1 #
coedge $-1 $614 $820 $382 $606 reversed $380 $-1 #
edge $-1 $621 -157.20450453199865 $822 157.20450453199865 $605 $823 forward 7 unknown #
coedge $-1 $384 $383 $820 $824 forward $149 $-1 #
edge $-1 $612 -314.4090090639973 $822 314.4090090639973 $604 $825 forward 7 unknown #
coedge $-1 $617 $616 $384 $610 reversed $601 $-1 #
edge $-1 $826 -314.4090090639973 $611 314.4090090639973 $609 $827 forward 7 unknown #
vertex $-1 $386 $828 #
vertex $-1 $623 $829 #
straight-curve $-1 314.4090090639973 0 -157.20450453199865 0 -1 0 I I #
coedge $-1 $603 $605 $387 $615 reversed $380 $-1 #
edge $-1 $618 -6.9137650665163584 $621 6.9137650665163584 $614 $830 forward 7 unknown #
coedge $-1 $609 $388 $393 $624 forward $601 $-1 #
coedge $-1 $388 $609 $603 $821 reversed $601 $-1 #
vertex $-1 $389 $831 #
straight-curve $-1 0 6.9137650665163584 157.20450453199865 -1 0 0 I I #
coedge $-1 $390 $604 $392 $623 reversed $238 $-1 #
vertex $-1 $615 $832 #
straight-curve $-1 0 -6.9137650665163584 157.20450453199865 1 0 0 I I #
edge $-1 $395 -157.20450453199865 $612 157.20450453199865 $392 $833 forward 7 unknown #
edge $-1 $396 -157.20450453199865 $611 157.20450453199865 $393 $834 forward 7 unknown #
point $-1 314.4090090639973 -6.9137650665163584 157.20450453199865 #
point $-1 314.4090090639973 6.9137650665163584 157.20450453199865 #
coedge $-1 $627 $627 $-1 $835 reversed $398 $-1 #
vertex $-1 $400 $836 #
ellipse-curve $-1 0 0 -0.5 0 0 -1 1 0 0 1 I I #
point $-1 1 0 -2.5891445661793875 #
face $-1 $-1 $418 $56 $-1 $837 reversed single #
loop $-1 $-1 $647 $403 #
plane-surface $-1 0 3.9472987849963328 0 0 -1 0 0 0 -1 forward_v I I I I #
coedge $-1 $838 $645 $648 $839 forward $404 $-1 #
coedge $-1 $651 $406 $407 $639 reversed $251 $-1 #
coedge $-1 $645 $838 $406 $637 reversed $404 $-1 #
edge $-1 $652 -157.20450453199865 $840 157.20450453199865 $636 $841 forward 7 unknown #
coedge $-1 $408 $407 $838 $842 forward $158 $-1 #
edge $-1 $643 -314.4090090639973 $840 314.4090090639973 $635 $843 forward 7 unknown #
coedge $-1 $648 $647 $408 $641 reversed $632 $-1 #
edge $-1 $844 -314.4090090639973 $642 314.4090090639973 $640 $845 forward 7 unknown #
vertex $-1 $410 $846 #
vertex $-1 $654 $847 #
straight-curve $-1 314.4090090639973 0 -157.20450453199865 0 -1 0 I I #
coedge $-1 $634 $636 $411 $646 reversed $404 $-1 #
edge $-1 $649 -3.9472987849963328 $652 3.9472987849963328 $645 $848 forward 7 unknown #
coedge $-1 $640 $412 $417 $655 forward $632 $-1 #
coedge $-1 $412 $640 $634 $839 reversed $632 $-1 #
vertex $-1 $413 $849 #
straight-curve $-1 0 3.9472987849963328 157.20450453199865 -1 0 0 I I #
coedge $-1 $414 $635 $416 $654 reversed $251 $-1 #
vertex $-1 $646 $850 #
straight-curve $-1 0 -3.9472987849963328 157.20450453199865 1 0 0 I I #
edge $-1 $419 -157.20450453199865 $643 157.20450453199865 $416 $851 forward 7 unknown #
edge $-1 $420 -157.20450453199865 $642 157.20450453199865 $417 $852 forward 7 unknown #
point $-1 314.4090090639973 -3.9472987849963328 157.20450453199865 #
point $-1 314.4090090639973 3.9472987849963328 157.20450453199865 #
coedge $-1 $658 $658 $-1 $853 reversed $422 $-1 #
vertex $-1 $424 $854 #
ellipse-curve $-1 0 0 -0.25000000000000044 0 0 -1 0.5 0 0 1 I I #
point $-1 0.5 0 -1.8452330088198474 #
coedge $-1 $662 $662 $-1 $855 reversed $427 $-1 #
vertex $-1 $429 $856 #
ellipse-curve $-1 0 0 -0.25000000000000044 0 0 -1 0.5 0 0 1 I I #
point $-1 0.5 0 -1.8452330088198474 #
face $-1 $-1 $447 $59 $-1 $857 reversed single #
loop $-1 $-1 $682 $432 #
plane-surface $-1 0 3.9472987849963328 0 0 -1 0 0 0 -1 forward_v I I I I #
coedge $-1 $858 $680 $683 $859 forward $433 $-1 #
coedge $-1 $686 $435 $436 $674 reversed $269 $-1 #
coedge $-1 $680 $858 $435 $672 reversed $433 $-1 #
edge $-1 $687 -157.20450453199865 $860 157.20450453199865 $671 $861 forward 7 unknown #
coedge $-1 $437 $436 $858 $862 forward $172 $-1 #
edge $-1 $678 -314.4090090639973 $860 314.4090090639973 $670 $863 forward 7 unknown #
coedge $-1 $683 $682 $437 $676 reversed $667 $-1 #
edge $-1 $864 -314.4090090639973 $677 314.4090090639973 $675 $865 forward 7 unknown #
vertex $-1 $439 $866 #
vertex $-1 $689 $867 #
straight-curve $-1 314.4090090639973 0 -157.20450453199865 0 -1 0 I I #
coedge $-1 $669 $671 $440 $681 reversed $433 $-1 #
edge $-1 $684 -3.9472987849963328 $687 3.9472987849963328 $680 $868 forward 7 unknown #
coedge $-1 $675 $441 $446 $690 forward $667 $-1 #
coedge $-1 $441 $675 $669 $859 reversed $667 $-1 #
vertex $-1 $442 $869 #
straight-curve $-1 0 3.9472987849963328 157.20450453199865 -1 0 0 I I #
coedge $-1 $443 $670 $445 $689 reversed $269 $-1 #
vertex $-1 $681 $870 #
straight-curve $-1 0 -3.9472987849963328 157.20450453199865 1 0 0 I I #
edge $-1 $448 -157.20450453199865 $678 157.20450453199865 $445 $871 forward 7 unknown #
edge $-1 $449 -157.20450453199865 $677 157.20450453199865 $446 $872 forward 7 unknown #
point $-1 314.4090090639973 -3.9472987849963328 157.20450453199865 #
point $-1 314.4090090639973 3.9472987849963328 157.20450453199865 #
coedge $-1 $693 $693 $-1 $873 reversed $451 $-1 #
vertex $-1 $453 $874 #
ellipse-curve $-1 0 0 -0.25000000000000044 0 0 -1 0.5 0 0 1 I I #
point $-1 0.5 0 -1.8452330088198474 #
coedge $-1 $697 $697 $-1 $875 reversed $456 $-1 #
vertex $-1 $458 $876 #
ellipse-curve $-1 0 0 -0.25000000000000044 0 0 -1 0.5 0 0 1 I I #
point $-1 0.5 0 -1.8452330088198474 #
face $-1 $-1 $476 $62 $-1 $877 reversed single #
loop $-1 $-1 $717 $461 #
plane-surface $-1 0 3.9472987849963328 0 0 -1 0 0 0 -1 forward_v I I I I #
coedge $-1 $878 $715 $718 $879 forward $462 $-1 #
coedge $-1 $721 $464 $465 $709 reversed $287 $-1 #
coedge $-1 $715 $878 $464 $707 reversed $462 $-1 #
edge $-1 $722 -157.20450453199865 $880 157.20450453199865 $706 $881 forward 7 unknown #
coedge $-1 $466 $465 $878 $882 forward $186 $-1 #
edge $-1 $713 -314.4090090639973 $880 314.4090090639973 $705 $883 forward 7 unknown #
coedge $-1 $718 $717 $466 $711 reversed $702 $-1 #
edge $-1 $884 -314.4090090639973 $712 314.4090090639973 $710 $885 forward 7 unknown #
vertex $-1 $468 $886 #
vertex $-1 $724 $887 #
straight-curve $-1 314.4090090639973 0 -157.20450453199865 0 -1 0 I I #
coedge $-1 $704 $706 $469 $716 reversed $462 $-1 #
edge $-1 $719 -3.9472987849963328 $722 3.9472987849963328 $715 $888 forward 7 unknown #
coedge $-1 $710 $470 $475 $725 forward $702 $-1 #
coedge $-1 $470 $710 $704 $879 reversed $702 $-1 #
vertex $-1 $471 $889 #
straight-curve $-1 0 3.9472987849963328 157.20450453199865 -1 0 0 I I #
coedge $-1 $472 $705 $474 $724 reversed $287 $-1 #
vertex $-1 $716 $890 #
straight-curve $-1 0 -3.9472987849963328 157.20450453199865 1 0 0 I I #
edge $-1 $477 -157.20450453199865 $713 157.20450453199865 $474 $891 forward 7 unknown #
edge $-1 $478 -157.20450453199865 $712 157.20450453199865 $475 $892 forward 7 unknown #
point $-1 314.4090090639973 -3.9472987849963328 157.20450453199865 #
point $-1 314.4090090639973 3.9472987849963328 157.20450453199865 #
coedge $-1 $728 $728 $-1 $893 reversed $480 $-1 #
vertex $-1 $482 $894 #
ellipse-curve $-1 0 0 -0.25000000000000044 0 0 -1 0.5 0 0 1 I I #
point $-1 0.5 0 -1.8452330088198474 #
coedge $-1 $732 $732 $-1 $895 reversed $485 $-1 #
vertex $-1 $487 $896 #
ellipse-curve $-1 0 0 -0.25000000000000044 0 0 -1 0.5 0 0 1 I I #
point $-1 0.5 0 -1.8452330088198474 #
face $-1 $-1 $505 $65 $-1 $897 reversed single #
loop $-1 $-1 $752 $490 #
plane-surface $-1 0 3.9472987849963328 0 0 -1 0 0 0 -1 forward_v I I I I #
coedge $-1 $898 $750 $753 $899 forward $491 $-1 #
coedge $-1 $756 $493 $494 $744 reversed $305 $-1 #
coedge $-1 $750 $898 $493 $742 reversed $491 $-1 #
edge $-1 $757 -157.20450453199865 $900 157.20450453199865 $741 $901 forward 7 unknown #
coedge $-1 $495 $494 $898 $902 forward $200 $-1 #
edge $-1 $748 -314.4090090639973 $900 314.4090090639973 $740 $903 forward 7 unknown #
coedge $-1 $753 $752 $495 $746 reversed $737 $-1 #
edge $-1 $904 -314.4090090639973 $747 314.4090090639973 $745 $905 forward 7 unknown #
vertex $-1 $497 $906 #
vertex $-1 $759 $907 #
straight-curve $-1 314.4090090639973 0 -157.20450453199865 0 -1 0 I I #
coedge $-1 $739 $741 $498 $751 reversed $491 $-1 #
edge $-1 $754 -3.9472987849963328 $757 3.9472987849963328 $750 $908 forward 7 unknown #
coedge $-1 $745 $499 $504 $760 forward $737 $-1 #
coedge $-1 $499 $745 $739 $899 reversed $737 $-1 #
vertex $-1 $500 $909 #
straight-curve $-1 0 3.9472987849963328 157.20450453199865 -1 0 0 I I #
coedge $-1 $501 $740 $503 $759 reversed $305 $-1 #
vertex $-1 $751 $910 #
straight-curve $-1 0 -3.9472987849963328 157.20450453199865 1 0 0 I I #
edge $-1 $506 -157.20450453199865 $748 157.20450453199865 $503 $911 forward 7 unknown #
edge $-1 $507 -157.20450453199865 $747 157.20450453199865 $504 $912 forward 7 unknown #
point $-1 314.4090090639973 -3.9472987849963328 157.20450453199865 #
point $-1 314.4090090639973 3.9472987849963328 157.20450453199865 #
coedge $-1 $763 $763 $-1 $913 reversed $509 $-1 #
vertex $-1 $511 $914 #
ellipse-curve $-1 0 0 -0.25000000000000044 0 0 -1 0.5 0 0 1 I I #
point $-1 0.5 0 -1.8452330088198474 #
coedge $-1 $767 $767 $-1 $915 reversed $514 $-1 #
vertex $-1 $516 $916 #
ellipse-curve $-1 0 0 -0.25000000000000044 0 0 -1 0.5 0 0 1 I I #
point $-1 0.5 0 -1.8452330088198474 #
plane-surface $-1 78.602252265999326 0 0 -1 0 0 0 0 1 forward_v I I I I #
coedge $-1 $524 $522 $526 $776 reversed $323 $-1 #
edge $-1 $537 -8.5489684309047487 $778 8.5489684309047487 $536 $917 forward 7 unknown #
vertex $-1 $776 $918 #
straight-curve $-1 -78.602252265999326 -35.632845113523786 0 0 0 -1 I I #
edge $-1 $774 -35.632845113523786 $778 35.632845113523786 $772 $919 forward 7 unknown #
straight-curve $-1 0 -35.632845113523786 -8.5489684309047487 -1 0 0 I I #
vertex $-1 $529 $920 #
straight-curve $-1 0 35.632845113523786 -8.5489684309047487 1 0 0 I I #
point $-1 78.602252265999326 35.632845113523786 -8.5489684309047487 #
point $-1 78.602252265999326 -35.632845113523786 -8.5489684309047487 #
straight-curve $-1 -78.602252265999326 0 8.5489684309047487 0 -1 0 I I #
point $-1 -78.602252265999326 35.632845113523786 8.5489684309047487 #
point $-1 -78.602252265999326 -35.632845113523786 8.5489684309047487 #
straight-curve $-1 78.602252265999326 -35.632845113523786 0 0 0 -1 I I #
straight-curve $-1 78.602252265999326 35.632845113523786 0 0 0 -1 I I #
plane-surface $-1 1.5879786478683355 0 0 -1 0 0 0 0 1 forward_v I I I I #
coedge $-1 $551 $549 $553 $792 reversed $342 $-1 #
edge $-1 $564 -8.5489684309047487 $794 8.5489684309047487 $563 $921 forward 7 unknown #
vertex $-1 $792 $922 #
straight-curve $-1 -1.5879786478683355 -5.1258197493268129 0 0 0 -1 I I #
edge $-1 $790 -5.1258197493268129 $794 5.1258197493268129 $788 $923 forward 7 unknown #
straight-curve $-1 0 -5.1258197493268129 -8.5489684309047487 -1 0 0 I I #
vertex $-1 $556 $924 #
straight-curve $-1 0 5.1258197493268129 -8.5489684309047487 1 0 0 I I #
point $-1 1.5879786478683355 5.1258197493268129 -8.5489684309047487 #
point $-1 1.5879786478683355 -5.1258197493268129 -8.5489684309047487 #
straight-curve $-1 -1.5879786478683355 0 8.5489684309047487 0 -1 0 I I #
point $-1 -1.5879786478683355 5.1258197493268129 8.5489684309047487 #
point $-1 -1.5879786478683355 -5.1258197493268129 8.5489684309047487 #
straight-curve $-1 1.5879786478683355 -5.1258197493268129 0 0 0 -1 I I #
straight-curve $-1 1.5879786478683355 5.1258197493268129 0 0 0 -1 I I #
plane-surface $-1 1.5879786478683355 0 0 -1 0 0 0 0 1 forward_v I I I I #
coedge $-1 $578 $576 $580 $808 reversed $361 $-1 #
edge $-1 $591 -8.5489684309047487 $810 8.5489684309047487 $590 $925 forward 7 unknown #
vertex $-1 $808 $926 #
straight-curve $-1 -1.5879786478683355 -5.1258197493268121 0 0 0 -1 I I #
edge $-1 $806 -5.1258197493268121 $810 5.1258197493268121 $804 $927 forward 7 unknown #
straight-curve $-1 0 -5.1258197493268121 -8.5489684309047487 -1 0 0 I I #
vertex $-1 $583 $928 #
straight-curve $-1 0 5.1258197493268121 -8.5489684309047487 1 0 0 I I #
point $-1 1.5879786478683355 5.1258197493268121 -8.5489684309047487 #
point $-1 1.5879786478683355 -5.1258197493268121 -8.5489684309047487 #
straight-curve $-1 -1.5879786478683355 0 8.5489684309047487 0 -1 0 I I #
point $-1 -1.5879786478683355 5.1258197493268121 8.5489684309047487 #
point $-1 -1.5879786478683355 -5.1258197493268121 8.5489684309047487 #
straight-curve $-1 1.5879786478683355 -5.1258197493268121 0 0 0 -1 I I #
straight-curve $-1 1.5879786478683355 5.1258197493268121 0 0 0 -1 I I #
plane-surface $-1 314.4090090639973 0 0 -1 0 0 0 0 1 forward_v I I I I #
coedge $-1 $605 $603 $607 $824 reversed $380 $-1 #
edge $-1 $618 -157.20450453199865 $826 157.20450453199865 $617 $929 forward 7 unknown #
vertex $-1 $824 $930 #
straight-curve $-1 -314.4090090639973 -6.9137650665163584 0 0 0 -1 I I #
edge $-1 $822 -6.9137650665163584 $826 6.9137650665163584 $820 $931 forward 7 unknown #
straight-curve $-1 0 -6.9137650665163584 -157.20450453199865 -1 0 0 I I #
vertex $-1 $610 $932 #
straight-curve $-1 0 6.9137650665163584 -157.20450453199865 1 0 0 I I #
point $-1 314.4090090639973 6.9137650665163584 -157.20450453199865 #
point $-1 314.4090090639973 -6.9137650665163584 -157.20450453199865 #
straight-curve $-1 -314.4090090639973 0 157.20450453199865 0 -1 0 I I #
point $-1 -314.4090090639973 6.9137650665163584 157.20450453199865 #
point $-1 -314.4090090639973 -6.9137650665163584 157.20450453199865 #
straight-curve $-1 314.4090090639973 -6.9137650665163584 0 0 0 -1 I I #
straight-curve $-1 314.4090090639973 6.9137650665163584 0 0 0 -1 I I #
edge $-1 $933 1 $933 0 $627 $-1 forward 7 unknown #
point $-1 1 0 -0.5 #
plane-surface $-1 314.4090090639973 0 0 -1 0 0 0 0 1 forward_v I I I I #
coedge $-1 $636 $634 $638 $842 reversed $404 $-1 #
edge $-1 $649 -157.20450453199865 $844 157.20450453199865 $648 $934 forward 7 unknown #
vertex $-1 $842 $935 #
straight-curve $-1 -314.4090090639973 -3.9472987849963328 0 0 0 -1 I I #
edge $-1 $840 -3.9472987849963328 $844 3.9472987849963328 $838 $936 forward 7 unknown #
straight-curve $-1 0 -3.9472987849963328 -157.20450453199865 -1 0 0 I I #
vertex $-1 $641 $937 #
straight-curve $-1 0 3.9472987849963328 -157.20450453199865 1 0 0 I I #
point $-1 314.4090090639973 3.9472987849963328 -157.20450453199865 #
point $-1 314.4090090639973 -3.9472987849963328 -157.20450453199865 #
straight-curve $-1 -314.4090090639973 0 157.20450453199865 0 -1 0 I I #
point $-1 -314.4090090639973 3.9472987849963328 157.20450453199865 #
point $-1 -314.4090090639973 -3.9472987849963328 157.20450453199865 #
straight-curve $-1 314.4090090639973 -3.9472987849963328 0 0 0 -1 I I #
straight-curve $-1 314.4090090639973 3.9472987849963328 0 0 0 -1 I I #
edge $-1 $938 1 $938 0 $658 $-1 forward 7 unknown #
point $-1 0.5 0 -0.25000000000000044 #
edge $-1 $939 1 $939 0 $662 $-1 forward 7 unknown #
point $-1 0.5 0 -0.25000000000000044 #
plane-surface $-1 314.4090090639973 0 0 -1 0 0 0 0 1 forward_v I I I I #
coedge $-1 $671 $669 $673 $862 reversed $433 $-1 #
edge $-1 $684 -157.20450453199865 $864 157.20450453199865 $683 $940 forward 7 unknown #
vertex $-1 $862 $941 #
straight-curve $-1 -314.4090090639973 -3.9472987849963328 0 0 0 -1 I I #
edge $-1 $860 -3.9472987849963328 $864 3.9472987849963328 $858 $942 forward 7 unknown #
straight-curve $-1 0 -3.9472987849963328 -157.20450453199865 -1 0 0 I I #
vertex $-1 $676 $943 #
straight-curve $-1 0 3.9472987849963328 -157.20450453199865 1 0 0 I I #
point $-1 314.4090090639973 3.9472987849963328 -157.20450453199865 #
point $-1 314.4090090639973 -3.9472987849963328 -157.20450453199865 #
straight-curve $-1 -314.4090090639973 0 157.20450453199865 0 -1 0 I I #
point $-1 -314.4090090639973 3.9472987849963328 157.20450453199865 #
point $-1 -314.4090090639973 -3.9472987849963328 157.20450453199865 #
straight-curve $-1 314.4090090639973 -3.9472987849963328 0 0 0 -1 I I #
straight-curve $-1 314.4090090639973 3.9472987849963328 0 0 0 -1 I I #
edge $-1 $944 1 $944 0 $693 $-1 forward 7 unknown #
point $-1 0.5 0 -0.25000000000000044 #
edge $-1 $945 1 $945 0 $697 $-1 forward 7 unknown #
point $-1 0.5 0 -0.25000000000000044 #
plane-surface $-1 314.4090090639973 0 0 -1 0 0 0 0 1 forward_v I I I I #
coedge $-1 $706 $704 $708 $882 reversed $462 $-1 #
edge $-1 $719 -157.20450453199865 $884 157.20450453199865 $718 $946 forward 7 unknown #
vertex $-1 $882 $947 #
straight-curve $-1 -314.4090090639973 -3.9472987849963328 0 0 0 -1 I I #
edge $-1 $880 -3.9472987849963328 $884 3.9472987849963328 $878 $948 forward 7 unknown #
straight-curve $-1 0 -3.9472987849963328 -157.20450453199865 -1 0 0 I I #
vertex $-1 $711 $949 #
straight-curve $-1 0 3.9472987849963328 -157.20450453199865 1 0 0 I I #
point $-1 314.4090090639973 3.9472987849963328 -157.20450453199865 #
point $-1 314.4090090639973 -3.9472987849963328 -157.20450453199865 #
straight-curve $-1 -314.4090090639973 0 157.20450453199865 0 -1 0 I I #
point $-1 -314.4090090639973 3.9472987849963328 157.20450453199865 #
point $-1 -314.4090090639973 -3.9472987849963328 157.20450453199865 #
straight-curve $-1 314.4090090639973 -3.9472987849963328 0 0 0 -1 I I #
straight-curve $-1 314.4090090639973 3.9472987849963328 0 0 0 -1 I I #
edge $-1 $950 1 $950 0 $728 $-1 forward 7 unknown #
point $-1 0.5 0 -0.25000000000000044 #
edge $-1 $951 1 $951 0 $732 $-1 forward 7 unknown #
point $-1 0.5 0 -0.25000000000000044 #
plane-surface $-1 314.4090090639973 0 0 -1 0 0 0 0 1 forward_v I I I I #
coedge $-1 $741 $739 $743 $902 reversed $491 $-1 #
edge $-1 $754 -157.20450453199865 $904 157.20450453199865 $753 $952 forward 7 unknown #
vertex $-1 $902 $953 #
straight-curve $-1 -314.4090090639973 -3.9472987849963328 0 0 0 -1 I I #
edge $-1 $900 -3.9472987849963328 $904 3.9472987849963328 $898 $954 forward 7 unknown #
straight-curve $-1 0 -3.9472987849963328 -157.20450453199865 -1 0 0 I I #
vertex $-1 $746 $955 #
straight-curve $-1 0 3.9472987849963328 -157.20450453199865 1 0 0 I I #
point $-1 314.4090090639973 3.9472987849963328 -157.20450453199865 #
point $-1 314.4090090639973 -3.9472987849963328 -157.20450453199865 #
straight-curve $-1 -314.4090090639973 0 157.20450453199865 0 -1 0 I I #
point $-1 -314.4090090639973 3.9472987849963328 157.20450453199865 #
point $-1 -314.4090090639973 -3.9472987849963328 157.20450453199865 #
straight-curve $-1 314.4090090639973 -3.9472987849963328 0 0 0 -1 I I #
straight-curve $-1 314.4090090639973 3.9472987849963328 0 0 0 -1 I I #
edge $-1 $956 1 $956 0 $763 $-1 forward 7 unknown #
point $-1 0.5 0 -0.25000000000000044 #
edge $-1 $957 1 $957 0 $767 $-1 forward 7 unknown #
point $-1 0.5 0 -0.25000000000000044 #
straight-curve $-1 -78.602252265999326 35.632845113523786 0 0 0 -1 I I #
point $-1 -78.602252265999326 -35.632845113523786 -8.5489684309047487 #
straight-curve $-1 -78.602252265999326 0 -8.5489684309047487 0 1 0 I I #
point $-1 -78.602252265999326 35.632845113523786 -8.5489684309047487 #
straight-curve $-1 -1.5879786478683355 5.1258197493268129 0 0 0 -1 I I #
point $-1 -1.5879786478683355 -5.1258197493268129 -8.5489684309047487 #
straight-curve $-1 -1.5879786478683355 0 -8.5489684309047487 0 1 0 I I #
point $-1 -1.5879786478683355 5.1258197493268129 -8.5489684309047487 #
straight-curve $-1 -1.5879786478683355 5.1258197493268121 0 0 0 -1 I I #
point $-1 -1.5879786478683355 -5.1258197493268121 -8.5489684309047487 #
straight-curve $-1 -1.5879786478683355 0 -8.5489684309047487 0 1 0 I I #
point $-1 -1.5879786478683355 5.1258197493268121 -8.5489684309047487 #
straight-curve $-1 -314.4090090639973 6.9137650665163584 0 0 0 -1 I I #
point $-1 -314.4090090639973 -6.9137650665163584 -157.20450453199865 #
straight-curve $-1 -314.4090090639973 0 -157.20450453199865 0 1 0 I I #
point $-1 -314.4090090639973 6.9137650665163584 -157.20450453199865 #
vertex $-1 $835 $958 #
straight-curve $-1 -314.4090090639973 3.9472987849963328 0 0 0 -1 I I #
point $-1 -314.4090090639973 -3.9472987849963328 -157.20450453199865 #
straight-curve $-1 -314.4090090639973 0 -157.20450453199865 0 1 0 I I #
point $-1 -314.4090090639973 3.9472987849963328 -157.20450453199865 #
vertex $-1 $853 $959 #
vertex $-1 $855 $960 #
straight-curve $-1 -314.4090090639973 3.9472987849963328 0 0 0 -1 I I #
point $-1 -314.4090090639973 -3.9472987849963328 -157.20450453199865 #
straight-curve $-1 -314.4090090639973 0 -157.20450453199865 0 1 0 I I #
point $-1 -314.4090090639973 3.9472987849963328 -157.20450453199865 #
vertex $-1 $873 $961 #
vertex $-1 $875 $962 #
straight-curve $-1 -314.4090090639973 3.9472987849963328 0 0 0 -1 I I #
point $-1 -314.4090090639973 -3.9472987849963328 -157.20450453199865 #
straight-curve $-1 -314.4090090639973 0 -157.20450453199865 0 1 0 I I #
point $-1 -314.4090090639973 3.9472987849963328 -157.20450453199865 #
vertex $-1 $893 $963 #
vertex $-1 $895 $964 #
straight-curve $-1 -314.4090090639973 3.9472987849963328 0 0 0 -1 I I #
point $-1 -314.4090090639973 -3.9472987849963328 -157.20450453199865 #
straight-curve $-1 -314.4090090639973 0 -157.20450453199865 0 1 0 I I #
point $-1 -314.4090090639973 3.9472987849963328 -157.20450453199865 #
vertex $-1 $913 $965 #
vertex $-1 $915 $966 #
point $-1 0 0 0.5 #
point $-1 0 0 0.25000000000000044 #
point $-1 0 0 0.25000000000000044 #
point $-1 0 0 0.25000000000000044 #
point $-1 0 0 0.25000000000000044 #
point $-1 0 0 0.25000000000000044 #
point $-1 0 0 0.25000000000000044 #
point $-1 0 0 0.25000000000000044 #
point $-1 0 0 0.25000000000000044 #
End-of-ACIS-data 