500 0 11 0           
7 Unknown 11 ACIS 5.0 NT 24 Thu Mar 25 18:08:21 1999 
-1 9.9999999999999995e-007 1e-010 
body $-1 $11 $-1 $12 #
body $-1 $13 $-1 $14 #
body $-1 $15 $-1 $16 #
body $-1 $17 $-1 $18 #
body $-1 $19 $-1 $20 #
body $-1 $21 $-1 $22 #
body $-1 $23 $-1 $24 #
body $-1 $25 $-1 $26 #
body $-1 $27 $-1 $28 #
body $-1 $29 $-1 $30 #
body $-1 $31 $-1 $32 #
lump $-1 $-1 $33 $0 #
transform $-1 1 0 0 0 1 0 0 0 1 77.402264473403108 46.208445592300862 10.420768111340898 1 rotate no_reflect no_shear #
lump $-1 $-1 $34 $1 #
transform $-1 1 0 0 0 1 0 0 0 1 77.402264473403108 46.208445592300862 10.420768111340898 1 rotate no_reflect no_shear #
lump $-1 $-1 $35 $2 #
transform $-1 1 0 0 0 1 0 0 0 1 77.402264473403108 46.208445592300862 10.420768111340898 1 rotate no_reflect no_shear #
lump $-1 $-1 $36 $3 #
transform $-1 1 0 0 0 1 0 0 0 1 77.402264473403108 46.208445592300862 10.420768111340898 1 rotate no_reflect no_shear #
lump $-1 $-1 $37 $4 #
transform $-1 1 0 0 0 1 0 0 0 1 77.402264473403108 46.208445592300862 10.420768111340898 1 rotate no_reflect no_shear #
lump $-1 $-1 $38 $5 #
transform $-1 1 0 0 0 1 0 0 0 1 77.402264473403108 46.208445592300862 10.420768111340898 1 rotate no_reflect no_shear #
lump $-1 $-1 $39 $6 #
transform $-1 1 0 0 0 1 0 0 0 1 77.402264473403108 46.208445592300862 10.420768111340898 1 rotate no_reflect no_shear #
lump $-1 $-1 $40 $7 #
transform $-1 1 0 0 0 1 0 0 0 1 77.402264473403108 46.208445592300862 10.420768111340898 1 rotate no_reflect no_shear #
lump $-1 $-1 $41 $8 #
transform $-1 1 0 0 0 1 0 0 0 1 77.402264473403108 46.208445592300862 10.420768111340898 1 rotate no_reflect no_shear #
lump $-1 $-1 $42 $9 #
transform $-1 1 0 0 0 1 0 0 0 1 77.402264473403108 46.208445592300862 10.420768111340898 1 rotate no_reflect no_shear #
lump $-1 $-1 $43 $10 #
transform $-1 1 0 0 0 1 0 0 0 1 77.402264473403108 46.208445592300862 10.420768111340898 1 rotate no_reflect no_shear #
shell $-1 $-1 $-1 $44 $-1 $11 #
shell $-1 $-1 $-1 $45 $-1 $13 #
shell $-1 $-1 $-1 $46 $-1 $15 #
shell $-1 $-1 $-1 $47 $-1 $17 #
shell $-1 $-1 $-1 $48 $-1 $19 #
shell $-1 $-1 $-1 $49 $-1 $21 #
shell $-1 $-1 $-1 $50 $-1 $23 #
shell $-1 $-1 $-1 $51 $-1 $25 #
shell $-1 $-1 $-1 $52 $-1 $27 #
shell $-1 $-1 $-1 $53 $-1 $29 #
shell $-1 $-1 $-1 $54 $-1 $31 #
face $-1 $55 $56 $33 $-1 $57 forward single #
face $-1 $58 $59 $34 $-1 $60 forward single #
face $-1 $61 $62 $35 $-1 $63 reversed single #
face $-1 $64 $65 $36 $-1 $66 forward single #
face $-1 $67 $68 $37 $-1 $69 forward single #
face $-1 $70 $71 $38 $-1 $72 reversed single #
face $-1 $73 $74 $39 $-1 $75 forward single #
face $-1 $76 $77 $40 $-1 $78 forward single #
face $-1 $79 $80 $41 $-1 $81 reversed single #
face $-1 $82 $83 $42 $-1 $84 forward single #
face $-1 $85 $86 $43 $-1 $87 forward single #
face $-1 $88 $89 $33 $-1 $90 reversed single #
loop $-1 $-1 $91 $44 #
plane-surface $-1 0 0 10.420768111340898 0 0 1 1 0 0 forward_v I I I I #
face $-1 $92 $93 $34 $-1 $94 reversed single #
loop $-1 $-1 $95 $45 #
plane-surface $-1 -77.402264473403108 0 0 1 0 0 0 0 -1 forward_v I I I I #
face $-1 $96 $97 $35 $-1 $98 reversed single #
loop $-1 $-1 $99 $46 #
plane-surface $-1 -29.91075424578796 -173.01689320342498 90.192270619915178 -1 0 0 0 -0.81915205242281985 0.57357642473473569 forward_v I I I I #
face $-1 $100 $101 $36 $-1 $102 forward single #
loop $-1 $103 $104 $47 #
cone-surface $-1 -44.818165102688383 -40.423354196408667 4.0710291283793758 0 0.81915205242281985 -0.57357642473473569 2 0 0 1 I I 0 1 2 forward I I I I #
face $-1 $105 $106 $37 $-1 $107 forward single #
loop $-1 $108 $109 $48 #
cone-surface $-1 -35.87371858854813 -40.423354196408667 4.0710291283793758 0 0.81915205242281985 -0.57357642473473569 2 0 0 1 I I 0 1 2 forward I I I I #
face $-1 $110 $111 $38 $-1 $112 reversed single #
loop $-1 $-1 $113 $49 #
plane-surface $-1 43.147264467665238 -173.01689320342498 90.192270619915178 -1 0 0 0 -0.81915205242281985 0.57357642473473569 forward_v I I I I #
face $-1 $114 $115 $39 $-1 $116 forward single #
loop $-1 $117 $118 $50 #
cone-surface $-1 28.239853610764811 -40.423354196408667 4.0710291283793758 0 0.81915205242281985 -0.57357642473473569 2 0 0 1 I I 0 1 2 forward I I I I #
face $-1 $119 $120 $40 $-1 $121 forward single #
loop $-1 $122 $123 $51 #
cone-surface $-1 37.184300124905064 -40.423354196408667 4.0710291283793758 0 0.81915205242281985 -0.57357642473473569 2 0 0 1 I I 0 1 2 forward I I I I #
face $-1 $124 $125 $41 $-1 $126 reversed single #
loop $-1 $-1 $127 $52 #
plane-surface $-1 55.769135643508676 46.721936453482911 180.98867500134639 1 0 0 0 -0.51503808176128008 -0.85716729658548041 forward_v I I I I #
face $-1 $128 $129 $42 $-1 $130 forward single #
loop $-1 $131 $132 $53 #
cone-surface $-1 61.950029594907107 36.598350831825542 3.0315059431876148 0 -0.51503808176128008 -0.85716729658548041 1.5 0 0 1 I I 0 1 1.5 forward I I I I #
face $-1 $133 $134 $43 $-1 $135 forward single #
loop $-1 $136 $137 $54 #
cone-surface $-1 71.221370522004719 36.598350831825542 3.0315059431876148 0 -0.51503808176128008 -0.85716729658548041 1.5 0 0 1 I I 0 1 1.5 forward I I I I #
face $-1 $138 $139 $33 $-1 $140 reversed single #
loop $-1 $-1 $141 $55 #
plane-surface $-1 0 0 -10.420768111340898 0 0 1 1 0 0 forward_v I I I I #
coedge $-1 $142 $143 $144 $145 forward $56 $-1 #
face $-1 $146 $147 $34 $-1 $148 forward single #
loop $-1 $-1 $149 $58 #
plane-surface $-1 0 46.208445592300862 0 0 -1 0 0 0 -1 forward_v I I I I #
coedge $-1 $150 $151 $152 $153 forward $59 $-1 #
face $-1 $154 $155 $35 $-1 $156 reversed single #
loop $-1 $-1 $157 $61 #
plane-surface $-1 -40.345941845618256 -46.208445592300848 1.4000423738611687 0 -0.81915205242281985 0.57357642473473569 1 0 0 forward_v I I I I #
coedge $-1 $158 $159 $160 $161 reversed $62 $-1 #
face $-1 $-1 $162 $36 $-1 $163 forward single #
loop $-1 $164 $165 $64 #
cone-surface $-1 -44.818165102688383 -36.977300733526008 1.6580765894229756 0 0.81915205242281985 -0.57357642473473569 1 0 0 1 I I -0.70710678118654768 0.70710678118654735 1 forward I I I I #
loop $-1 $-1 $166 $47 #
coedge $-1 $104 $104 $167 $168 reversed $65 $-1 #
face $-1 $-1 $169 $37 $-1 $170 forward single #
loop $-1 $171 $172 $67 #
cone-surface $-1 -35.87371858854813 -36.977300733526008 1.6580765894229756 0 0.81915205242281985 -0.57357642473473569 1 0 0 1 I I -0.70710678118654768 0.70710678118654735 1 forward I I I I #
loop $-1 $-1 $173 $48 #
coedge $-1 $109 $109 $174 $175 reversed $68 $-1 #
face $-1 $176 $177 $38 $-1 $178 reversed single #
loop $-1 $-1 $179 $70 #
plane-surface $-1 32.712076867834938 -46.208445592300848 1.4000423738611687 0 -0.81915205242281985 0.57357642473473569 1 0 0 forward_v I I I I #
coedge $-1 $180 $181 $182 $183 reversed $71 $-1 #
face $-1 $-1 $184 $39 $-1 $185 forward single #
loop $-1 $186 $187 $73 #
cone-surface $-1 28.239853610764811 -36.977300733526008 1.6580765894229756 0 0.81915205242281985 -0.57357642473473569 1 0 0 1 I I -0.70710678118654768 0.70710678118654735 1 forward I I I I #
loop $-1 $-1 $188 $50 #
coedge $-1 $118 $118 $189 $190 reversed $74 $-1 #
face $-1 $-1 $191 $40 $-1 $192 forward single #
loop $-1 $193 $194 $76 #
cone-surface $-1 37.184300124905064 -36.977300733526008 1.6580765894229756 0 0.81915205242281985 -0.57357642473473569 1 0 0 1 I I -0.70710678118654768 0.70710678118654735 1 forward I I I I #
loop $-1 $-1 $195 $51 #
coedge $-1 $123 $123 $196 $197 reversed $77 $-1 #
face $-1 $198 $199 $41 $-1 $200 reversed single #
loop $-1 $-1 $201 $79 #
plane-surface $-1 66.585700058455899 -33.008291183238711 48.295295424823763 0 0.51503808176128008 0.85716729658548041 1 0 0 forward_v I I I I #
coedge $-1 $202 $203 $204 $205 reversed $80 $-1 #
face $-1 $-1 $206 $42 $-1 $207 forward single #
loop $-1 $208 $209 $82 #
cone-surface $-1 61.950029594907107 34.693447112634544 -0.13878617511711155 0 -0.51503808176128008 -0.85716729658548041 0.75 0 0 1 I I -0.70710678118654757 0.70710678118654757 0.75 forward I I I I #
loop $-1 $-1 $210 $53 #
coedge $-1 $132 $132 $211 $212 reversed $83 $-1 #
face $-1 $-1 $213 $43 $-1 $214 forward single #
loop $-1 $215 $216 $85 #
cone-surface $-1 71.221370522004719 34.693447112634544 -0.13878617511711155 0 -0.51503808176128008 -0.85716729658548041 0.75 0 0 1 I I -0.70710678118654757 0.70710678118654757 0.75 forward I I I I #
loop $-1 $-1 $217 $54 #
coedge $-1 $137 $137 $218 $219 reversed $86 $-1 #
face $-1 $220 $221 $33 $-1 $222 reversed single #
loop $-1 $-1 $223 $88 #
plane-surface $-1 0 -46.208445592300862 0 0 1 0 0 0 1 forward_v I I I I #
coedge $-1 $224 $225 $226 $227 forward $89 $-1 #
coedge $-1 $228 $91 $229 $230 forward $56 $-1 #
coedge $-1 $91 $228 $231 $232 forward $56 $-1 #
coedge $-1 $233 $234 $91 $145 reversed $235 $-1 #
edge $-1 $236 -46.208445592300862 $237 46.208445592300862 $144 $238 forward 7 unknown #
face $-1 $239 $240 $34 $-1 $241 reversed single #
loop $-1 $-1 $152 $92 #
plane-surface $-1 -81.746510233353021 0 -7.4207681113408981 0 0 1 1 0 0 forward_v I I I I #
coedge $-1 $242 $243 $151 $244 forward $93 $-1 #
coedge $-1 $245 $95 $246 $247 reversed $59 $-1 #
coedge $-1 $95 $245 $149 $244 reversed $59 $-1 #
coedge $-1 $248 $249 $95 $153 reversed $147 $-1 #
edge $-1 $250 -46.208445592300862 $251 46.208445592300862 $152 $252 forward 7 unknown #
face $-1 $253 $254 $35 $-1 $255 reversed single #
loop $-1 $-1 $256 $96 #
plane-surface $-1 -50.781129445448556 -173.01689320342498 90.192270619915178 1 0 0 0 0.81915205242281985 -0.57357642473473569 forward_v I I I I #
coedge $-1 $257 $258 $259 $260 reversed $97 $-1 #
coedge $-1 $159 $99 $261 $262 reversed $62 $-1 #
coedge $-1 $99 $158 $257 $263 reversed $62 $-1 #
coedge $-1 $259 $264 $99 $161 forward $265 $-1 #
edge $-1 $266 40.300001009411631 $267 46.616380980276375 $160 $268 forward 7 unknown #
loop $-1 $-1 $167 $100 #
plane-surface $-1 -40.345941845618256 -46.208445592300848 1.4000423738611687 0 -0.81915205242281985 0.57357642473473569 1 0 0 forward_v I I I I #
loop $-1 $-1 $269 $64 #
coedge $-1 $165 $165 $166 $270 reversed $101 $-1 #
coedge $-1 $166 $166 $165 $270 forward $103 $-1 #
coedge $-1 $167 $167 $104 $168 forward $162 $-1 #
edge $-1 $271 1.0173666079199377e-015 $271 6.2831853071796013 $167 $272 forward 7 unknown #
loop $-1 $-1 $174 $105 #
plane-surface $-1 -40.345941845618256 -46.208445592300848 1.4000423738611687 0 -0.81915205242281985 0.57357642473473569 1 0 0 forward_v I I I I #
loop $-1 $-1 $273 $67 #
coedge $-1 $172 $172 $173 $274 reversed $106 $-1 #
coedge $-1 $173 $173 $172 $274 forward $108 $-1 #
coedge $-1 $174 $174 $109 $175 forward $169 $-1 #
edge $-1 $275 1.0173666079199377e-015 $275 6.2831853071796013 $174 $276 forward 7 unknown #
face $-1 $277 $278 $38 $-1 $279 reversed single #
loop $-1 $-1 $280 $110 #
plane-surface $-1 22.276889268004641 -173.01689320342498 90.192270619915178 1 0 0 0 0.81915205242281985 -0.57357642473473569 forward_v I I I I #
coedge $-1 $281 $282 $283 $284 reversed $111 $-1 #
coedge $-1 $181 $113 $285 $286 reversed $71 $-1 #
coedge $-1 $113 $180 $281 $287 reversed $71 $-1 #
coedge $-1 $283 $288 $113 $183 forward $289 $-1 #
edge $-1 $290 40.300001009411631 $291 46.616380980276375 $182 $292 forward 7 unknown #
loop $-1 $-1 $189 $114 #
plane-surface $-1 32.712076867834938 -46.208445592300848 1.4000423738611687 0 -0.81915205242281985 0.57357642473473569 1 0 0 forward_v I I I I #
loop $-1 $-1 $293 $73 #
coedge $-1 $187 $187 $188 $294 reversed $115 $-1 #
coedge $-1 $188 $188 $187 $294 forward $117 $-1 #
coedge $-1 $189 $189 $118 $190 forward $184 $-1 #
edge $-1 $295 1.0173666079199377e-015 $295 6.2831853071796013 $189 $296 forward 7 unknown #
loop $-1 $-1 $196 $119 #
plane-surface $-1 32.712076867834938 -46.208445592300848 1.4000423738611687 0 -0.81915205242281985 0.57357642473473569 1 0 0 forward_v I I I I #
loop $-1 $-1 $297 $76 #
coedge $-1 $194 $194 $195 $298 reversed $120 $-1 #
coedge $-1 $195 $195 $194 $298 forward $122 $-1 #
coedge $-1 $196 $196 $123 $197 forward $191 $-1 #
edge $-1 $299 1.0173666079199377e-015 $299 6.2831853071796013 $196 $300 forward 7 unknown #
face $-1 $301 $302 $41 $-1 $303 reversed single #
loop $-1 $-1 $304 $124 #
plane-surface $-1 77.402264473403108 0 0 -1 0 0 0 0 1 forward_v I I I I #
coedge $-1 $305 $306 $307 $308 reversed $125 $-1 #
coedge $-1 $203 $127 $309 $310 reversed $80 $-1 #
coedge $-1 $127 $202 $305 $311 reversed $80 $-1 #
coedge $-1 $307 $312 $127 $205 forward $313 $-1 #
edge $-1 $314 -22.847477365559406 $315 -6.6645381603487621 $204 $316 forward 7 unknown #
loop $-1 $-1 $211 $128 #
plane-surface $-1 66.585700058455899 -33.008291183238711 48.295295424823763 0 0.51503808176128008 0.85716729658548041 1 0 0 forward_v I I I I #
loop $-1 $-1 $317 $82 #
coedge $-1 $209 $209 $210 $318 reversed $129 $-1 #
coedge $-1 $210 $210 $209 $318 forward $131 $-1 #
coedge $-1 $211 $211 $132 $212 forward $206 $-1 #
edge $-1 $319 -1.9430856643714354e-015 $319 6.2831853071795987 $211 $320 forward 7 unknown #
loop $-1 $-1 $218 $133 #
plane-surface $-1 66.585700058455899 -33.008291183238711 48.295295424823763 0 0.51503808176128008 0.85716729658548041 1 0 0 forward_v I I I I #
loop $-1 $-1 $321 $85 #
coedge $-1 $216 $216 $217 $322 reversed $134 $-1 #
coedge $-1 $217 $217 $216 $322 forward $136 $-1 #
coedge $-1 $218 $218 $137 $219 forward $213 $-1 #
edge $-1 $323 -1.9430856643714354e-015 $323 6.2831853071795987 $218 $324 forward 7 unknown #
face $-1 $325 $326 $33 $-1 $327 reversed single #
loop $-1 $-1 $328 $138 #
plane-surface $-1 -77.402264473403108 0 0 1 0 0 0 0 -1 forward_v I I I I #
coedge $-1 $329 $231 $330 $331 forward $139 $-1 #
coedge $-1 $332 $141 $329 $333 forward $89 $-1 #
coedge $-1 $141 $332 $334 $335 forward $89 $-1 #
coedge $-1 $234 $233 $141 $227 reversed $235 $-1 #
edge $-1 $336 -46.208445592300862 $337 46.208445592300862 $226 $338 forward 7 unknown #
coedge $-1 $143 $142 $339 $340 forward $56 $-1 #
coedge $-1 $341 $342 $142 $230 reversed $326 $-1 #
edge $-1 $237 -77.402264473403108 $343 77.402264473403108 $229 $344 forward 7 unknown #
coedge $-1 $223 $345 $143 $232 reversed $139 $-1 #
edge $-1 $346 -77.402264473403108 $236 77.402264473403108 $231 $347 forward 7 unknown #
coedge $-1 $226 $144 $345 $348 forward $235 $-1 #
coedge $-1 $144 $226 $341 $349 reversed $235 $-1 #
loop $-1 $-1 $233 $325 #
vertex $-1 $145 $350 #
vertex $-1 $145 $351 #
straight-curve $-1 77.402264473403108 0 10.420768111340898 0 1 0 I I #
face $-1 $352 $353 $34 $-1 $354 reversed single #
loop $-1 $-1 $355 $146 #
plane-surface $-1 -86.090755993302935 0 -8.9207681113408981 1 0 0 0 0 -1 forward_v I I I I #
coedge $-1 $356 $149 $357 $358 reversed $93 $-1 #
coedge $-1 $149 $356 $248 $359 reversed $93 $-1 #
edge $-1 $250 7.4207681113408981 $360 10.420768111340898 $149 $361 forward 7 unknown #
coedge $-1 $151 $150 $362 $363 reversed $59 $-1 #
coedge $-1 $364 $365 $150 $247 forward $366 $-1 #
edge $-1 $367 -10.420768111340898 $251 -7.4207681113408981 $246 $368 forward 7 unknown #
coedge $-1 $369 $152 $243 $359 forward $147 $-1 #
coedge $-1 $152 $369 $364 $370 forward $147 $-1 #
vertex $-1 $244 $371 #
vertex $-1 $370 $372 #
straight-curve $-1 -77.402264473403108 0 -7.4207681113408981 0 -1 0 I I #
face $-1 $-1 $265 $35 $-1 $373 forward single #
loop $-1 $-1 $374 $154 #
plane-surface $-1 0 -46.208445592300862 0 0 1 0 0 0 1 forward_v I I I I #
coedge $-1 $375 $376 $377 $378 reversed $155 $-1 #
coedge $-1 $379 $157 $159 $263 forward $97 $-1 #
coedge $-1 $157 $379 $375 $380 forward $97 $-1 #
coedge $-1 $377 $160 $157 $260 forward $265 $-1 #
edge $-1 $267 9.7377833229788315 $381 30.608158522639428 $259 $382 forward 7 unknown #
coedge $-1 $383 $384 $158 $262 forward $254 $-1 #
edge $-1 $385 -43.696092936096441 $266 -34.675367198616691 $261 $386 forward 7 unknown #
edge $-1 $267 -11.012272643154562 $385 2.4702845980661902e-014 $159 $387 forward 7 unknown #
coedge $-1 $160 $377 $383 $388 forward $265 $-1 #
loop $-1 $-1 $377 $253 #
vertex $-1 $262 $389 #
vertex $-1 $161 $390 #
straight-curve $-1 -29.91075424578796 -86.508446601712492 10.420768111340898 0 1 0 I I #
coedge $-1 $269 $269 $-1 $391 reversed $164 $-1 #
edge $-1 $392 0 $392 6.2831853071796004 $165 $393 forward 7 unknown #
vertex $-1 $168 $394 #
ellipse-curve $-1 -44.818165102688383 -43.05025560686849 5.9104052426010281 0 -0.81915205242281985 0.57357642473473569 2 0 0 1 I I #
coedge $-1 $273 $273 $-1 $395 reversed $171 $-1 #
edge $-1 $396 0 $396 6.2831853071796004 $172 $397 forward 7 unknown #
vertex $-1 $175 $398 #
ellipse-curve $-1 -35.87371858854813 -43.05025560686849 5.9104052426010281 0 -0.81915205242281985 0.57357642473473569 2 0 0 1 I I #
face $-1 $-1 $289 $38 $-1 $399 forward single #
loop $-1 $-1 $400 $176 #
plane-surface $-1 0 -46.208445592300862 0 0 1 0 0 0 1 forward_v I I I I #
coedge $-1 $401 $402 $403 $404 reversed $177 $-1 #
coedge $-1 $405 $179 $181 $287 forward $111 $-1 #
coedge $-1 $179 $405 $401 $406 forward $111 $-1 #
coedge $-1 $403 $182 $179 $284 forward $289 $-1 #
edge $-1 $291 -26.791226033747769 $407 -5.9208508340871724 $283 $408 forward 7 unknown #
coedge $-1 $409 $410 $180 $286 forward $278 $-1 #
edge $-1 $411 -43.696092936096441 $290 -34.675367198616691 $285 $412 forward 7 unknown #
edge $-1 $291 -11.012272643154562 $411 2.4702845980661902e-014 $181 $413 forward 7 unknown #
coedge $-1 $182 $403 $409 $414 forward $289 $-1 #
loop $-1 $-1 $403 $277 #
vertex $-1 $286 $415 #
vertex $-1 $183 $416 #
straight-curve $-1 43.147264467665238 -86.508446601712492 10.420768111340898 0 1 0 I I #
coedge $-1 $293 $293 $-1 $417 reversed $186 $-1 #
edge $-1 $418 0 $418 6.2831853071796004 $187 $419 forward 7 unknown #
vertex $-1 $190 $420 #
ellipse-curve $-1 28.239853610764811 -43.05025560686849 5.9104052426010281 0 -0.81915205242281985 0.57357642473473569 2 0 0 1 I I #
coedge $-1 $297 $297 $-1 $421 reversed $193 $-1 #
edge $-1 $422 0 $422 6.2831853071796004 $194 $423 forward 7 unknown #
vertex $-1 $197 $424 #
ellipse-curve $-1 37.184300124905064 -43.05025560686849 5.9104052426010281 0 -0.81915205242281985 0.57357642473473569 2 0 0 1 I I #
face $-1 $-1 $313 $41 $-1 $425 forward single #
loop $-1 $-1 $426 $198 #
plane-surface $-1 0 46.208445592300862 0 0 -1 0 0 0 -1 forward_v I I I I #
coedge $-1 $427 $428 $306 $429 forward $199 $-1 #
coedge $-1 $430 $201 $203 $311 forward $125 $-1 #
coedge $-1 $201 $430 $304 $429 reversed $125 $-1 #
coedge $-1 $431 $204 $201 $308 forward $313 $-1 #
edge $-1 $315 22.476285614280727 $432 44.109414444175172 $307 $433 forward 7 unknown #
coedge $-1 $434 $426 $202 $310 forward $302 $-1 #
edge $-1 $435 -89.797260433907667 $314 -80.073569389332306 $309 $436 forward 7 unknown #
edge $-1 $315 73.537333752026697 $435 92.416891184601724 $203 $437 forward 7 unknown #
coedge $-1 $204 $431 $434 $438 forward $313 $-1 #
loop $-1 $-1 $307 $301 #
vertex $-1 $310 $439 #
vertex $-1 $205 $440 #
straight-curve $-1 55.769135643508676 23.360968226741456 10.420768111340905 0 -1 0 I I #
coedge $-1 $317 $317 $-1 $441 reversed $208 $-1 #
edge $-1 $442 0 $442 6.2831853071796004 $209 $443 forward 7 unknown #
vertex $-1 $212 $444 #
ellipse-curve $-1 61.950029594907107 38.116975989695561 5.5589225890532017 0 0.51503808176128008 0.85716729658548041 1.5 0 0 1 I I #
coedge $-1 $321 $321 $-1 $445 reversed $215 $-1 #
edge $-1 $446 0 $446 6.2831853071796004 $216 $447 forward 7 unknown #
vertex $-1 $219 $448 #
ellipse-curve $-1 71.221370522004719 38.116975989695561 5.5589225890532017 0 0.51503808176128008 0.85716729658548041 1.5 0 0 1 I I #
face $-1 $-1 $235 $33 $-1 $449 reversed single #
loop $-1 $-1 $341 $220 #
plane-surface $-1 0 46.208445592300862 0 0 -1 0 0 0 -1 forward_v I I I I #
coedge $-1 $450 $339 $342 $451 forward $221 $-1 #
coedge $-1 $345 $223 $224 $333 reversed $139 $-1 #
coedge $-1 $339 $450 $223 $331 reversed $221 $-1 #
edge $-1 $346 -10.420768111340898 $452 10.420768111340898 $330 $453 forward 7 unknown #
coedge $-1 $225 $224 $450 $454 forward $89 $-1 #
edge $-1 $337 -77.402264473403108 $452 77.402264473403108 $329 $455 forward 7 unknown #
coedge $-1 $342 $341 $225 $335 reversed $326 $-1 #
edge $-1 $456 -77.402264473403108 $336 77.402264473403108 $334 $457 forward 7 unknown #
vertex $-1 $227 $458 #
vertex $-1 $348 $459 #
straight-curve $-1 77.402264473403108 0 -10.420768111340898 0 -1 0 I I #
coedge $-1 $328 $330 $228 $340 reversed $221 $-1 #
edge $-1 $343 -46.208445592300862 $346 46.208445592300862 $339 $460 forward 7 unknown #
coedge $-1 $334 $229 $234 $349 forward $326 $-1 #
coedge $-1 $229 $334 $328 $451 reversed $326 $-1 #
vertex $-1 $230 $461 #
straight-curve $-1 0 46.208445592300862 10.420768111340898 -1 0 0 I I #
coedge $-1 $231 $329 $233 $348 reversed $139 $-1 #
vertex $-1 $340 $462 #
straight-curve $-1 0 -46.208445592300862 10.420768111340898 1 0 0 I I #
edge $-1 $236 -10.420768111340898 $337 10.420768111340898 $233 $463 forward 7 unknown #
edge $-1 $237 -10.420768111340898 $336 10.420768111340898 $234 $464 forward 7 unknown #
point $-1 77.402264473403108 -46.208445592300862 10.420768111340898 #
point $-1 77.402264473403108 46.208445592300862 10.420768111340898 #
face $-1 $-1 $366 $34 $-1 $465 reversed single #
loop $-1 $-1 $362 $239 #
plane-surface $-1 0 0 -10.420768111340898 0 0 1 1 0 0 forward_v I I I I #
coedge $-1 $466 $467 $356 $468 forward $240 $-1 #
coedge $-1 $243 $242 $355 $468 reversed $93 $-1 #
coedge $-1 $362 $469 $242 $358 forward $353 $-1 #
edge $-1 $470 -86.090755993302935 $360 -77.402264473403108 $242 $471 forward 7 unknown #
edge $-1 $250 -4.3442457599499136 $472 4.3442457599499136 $243 $473 forward 7 unknown #
vertex $-1 $244 $474 #
straight-curve $-1 -77.402264473403108 46.208445592300862 0 0 0 -1 I I #
coedge $-1 $475 $357 $245 $363 forward $353 $-1 #
edge $-1 $360 -46.208445592300862 $367 46.208445592300862 $362 $476 forward 7 unknown #
coedge $-1 $477 $246 $249 $370 reversed $366 $-1 #
coedge $-1 $246 $477 $475 $478 reversed $366 $-1 #
loop $-1 $-1 $246 $352 #
vertex $-1 $478 $479 #
straight-curve $-1 -77.402264473403108 -46.208445592300862 0 0 0 1 I I #
coedge $-1 $249 $248 $467 $480 forward $147 $-1 #
edge $-1 $481 -4.3442457599499136 $251 4.3442457599499136 $364 $482 forward 7 unknown #
point $-1 -77.402264473403108 46.208445592300862 -7.4207681113408981 #
point $-1 -77.402264473403108 -46.208445592300862 -7.4207681113408981 #
plane-surface $-1 0 0 10.420768111340898 0 0 1 1 0 0 forward_v I I I I #
coedge $-1 $384 $383 $376 $483 forward $254 $-1 #
coedge $-1 $376 $256 $258 $380 reversed $155 $-1 #
coedge $-1 $256 $375 $374 $483 reversed $155 $-1 #
coedge $-1 $264 $259 $256 $378 forward $265 $-1 #
edge $-1 $381 -46.616380980276375 $484 -40.300001009411631 $377 $485 forward 7 unknown #
coedge $-1 $258 $257 $384 $486 reversed $97 $-1 #
edge $-1 $487 -2.4702845980661902e-014 $381 11.012272643154562 $375 $488 forward 7 unknown #
vertex $-1 $260 $489 #
straight-curve $-1 -20.172970922809128 -39.892065621436124 10.420768111340898 -1 0 0 I I #
coedge $-1 $374 $261 $264 $388 reversed $254 $-1 #
coedge $-1 $261 $374 $379 $486 forward $254 $-1 #
vertex $-1 $262 $490 #
straight-curve $-1 -29.91075424578796 -46.208445592300862 45.096135309957589 0 0 1 I I #
straight-curve $-1 -29.91075424578796 -46.208445592300848 1.4000423738611687 0 -0.57357642473473569 -0.81915205242281985 I I #
edge $-1 $484 -50.781129445448556 $266 -29.91075424578796 $383 $491 forward 7 unknown #
point $-1 -29.91075424578796 -46.208445592300862 10.420768111340898 #
point $-1 -29.91075424578796 -39.892065621436117 10.420768111340898 #
edge $-1 $492 1 $492 0 $269 $-1 forward 7 unknown #
vertex $-1 $270 $493 #
ellipse-curve $-1 -44.818165102688383 -37.79645278594883 2.2316530141577111 0 -0.81915205242281985 0.57357642473473569 2 0 0 1 I I #
point $-1 -42.818165102688383 -43.050255606868504 5.9104052426010405 #
edge $-1 $494 1 $494 0 $273 $-1 forward 7 unknown #
vertex $-1 $274 $495 #
ellipse-curve $-1 -35.87371858854813 -37.79645278594883 2.2316530141577111 0 -0.81915205242281985 0.57357642473473569 2 0 0 1 I I #
point $-1 -33.87371858854813 -43.050255606868504 5.9104052426010405 #
plane-surface $-1 0 0 10.420768111340898 0 0 1 1 0 0 forward_v I I I I #
coedge $-1 $410 $409 $402 $496 forward $278 $-1 #
coedge $-1 $402 $280 $282 $406 reversed $177 $-1 #
coedge $-1 $280 $401 $400 $496 reversed $177 $-1 #
coedge $-1 $288 $283 $280 $404 forward $289 $-1 #
edge $-1 $407 -46.616380980276375 $497 -40.300001009411631 $403 $498 forward 7 unknown #
coedge $-1 $282 $281 $410 $499 reversed $111 $-1 #
edge $-1 $500 -2.4702845980661902e-014 $407 11.012272643154562 $401 $501 forward 7 unknown #
vertex $-1 $284 $502 #
straight-curve $-1 16.356038433917469 -39.892065621436124 10.420768111340898 -1 0 0 I I #
coedge $-1 $400 $285 $288 $414 reversed $278 $-1 #
coedge $-1 $285 $400 $405 $499 forward $278 $-1 #
vertex $-1 $286 $503 #
straight-curve $-1 43.147264467665238 -46.208445592300862 45.096135309957589 0 0 1 I I #
straight-curve $-1 43.147264467665238 -46.208445592300848 1.4000423738611687 0 -0.57357642473473569 -0.81915205242281985 I I #
edge $-1 $497 22.276889268004641 $290 43.147264467665238 $409 $504 forward 7 unknown #
point $-1 43.147264467665238 -46.208445592300862 10.420768111340898 #
point $-1 43.147264467665238 -39.892065621436117 10.420768111340898 #
edge $-1 $505 1 $505 0 $293 $-1 forward 7 unknown #
vertex $-1 $294 $506 #
ellipse-curve $-1 28.239853610764811 -37.79645278594883 2.2316530141577111 0 -0.81915205242281985 0.57357642473473569 2 0 0 1 I I #
point $-1 30.239853610764811 -43.050255606868504 5.9104052426010405 #
edge $-1 $507 1 $507 0 $297 $-1 forward 7 unknown #
vertex $-1 $298 $508 #
ellipse-curve $-1 37.184300124905064 -37.79645278594883 2.2316530141577111 0 -0.81915205242281985 0.57357642473473569 2 0 0 1 I I #
point $-1 39.184300124905064 -43.050255606868504 5.9104052426010405 #
plane-surface $-1 0 0 10.420768111340898 0 0 1 1 0 0 forward_v I I I I #
coedge $-1 $309 $509 $430 $510 forward $302 $-1 #
coedge $-1 $428 $304 $509 $511 reversed $199 $-1 #
coedge $-1 $304 $427 $431 $512 reversed $199 $-1 #
edge $-1 $432 46.953561735957379 $513 65.833119168532392 $304 $514 forward 7 unknown #
coedge $-1 $306 $305 $426 $510 reversed $125 $-1 #
coedge $-1 $312 $307 $428 $512 forward $313 $-1 #
vertex $-1 $512 $515 #
straight-curve $-1 33.292850029227949 30.025506387090225 10.420768111340898 1 0 0 I I #
coedge $-1 $509 $309 $312 $438 reversed $302 $-1 #
vertex $-1 $310 $516 #
straight-curve $-1 55.769135643508676 46.208445592300862 90.494337500673197 0 0 1 I I #
straight-curve $-1 55.769135643508676 -33.008291183238711 48.295295424823763 0 0.85716729658548041 -0.51503808176128008 I I #
edge $-1 $517 -77.402264473403108 $314 -55.769135643508676 $434 $518 forward 7 unknown #
point $-1 55.769135643508676 46.208445592300862 10.420768111340898 #
point $-1 55.769135643508676 30.025506387090218 10.420768111340898 #
edge $-1 $519 1 $519 0 $317 $-1 forward 7 unknown #
vertex $-1 $318 $520 #
ellipse-curve $-1 61.950029594907107 35.079725673955501 0.50408929732199881 0 0.51503808176128008 0.85716729658548041 1.5 0 0 1 I I #
point $-1 63.450029594907107 38.116975989695575 5.558922589053231 #
edge $-1 $521 1 $521 0 $321 $-1 forward 7 unknown #
vertex $-1 $322 $522 #
ellipse-curve $-1 71.221370522004719 35.079725673955501 0.50408929732199881 0 0.51503808176128008 0.85716729658548041 1.5 0 0 1 I I #
point $-1 72.721370522004719 38.116975989695575 5.558922589053231 #
plane-surface $-1 77.402264473403108 0 0 -1 0 0 0 0 1 forward_v I I I I #
coedge $-1 $330 $328 $332 $454 reversed $221 $-1 #
edge $-1 $343 -10.420768111340898 $456 10.420768111340898 $342 $523 forward 7 unknown #
vertex $-1 $454 $524 #
straight-curve $-1 -77.402264473403108 -46.208445592300862 0 0 0 -1 I I #
edge $-1 $452 -46.208445592300862 $456 46.208445592300862 $450 $525 forward 7 unknown #
straight-curve $-1 0 -46.208445592300862 -10.420768111340898 -1 0 0 I I #
vertex $-1 $335 $526 #
straight-curve $-1 0 46.208445592300862 -10.420768111340898 1 0 0 I I #
point $-1 77.402264473403108 46.208445592300862 -10.420768111340898 #
point $-1 77.402264473403108 -46.208445592300862 -10.420768111340898 #
straight-curve $-1 -77.402264473403108 0 10.420768111340898 0 -1 0 I I #
point $-1 -77.402264473403108 46.208445592300862 10.420768111340898 #
point $-1 -77.402264473403108 -46.208445592300862 10.420768111340898 #
straight-curve $-1 77.402264473403108 -46.208445592300862 0 0 0 -1 I I #
straight-curve $-1 77.402264473403108 46.208445592300862 0 0 0 -1 I I #
plane-surface $-1 0 -46.208445592300862 0 0 1 0 0 0 1 forward_v I I I I #
coedge $-1 $527 $355 $469 $528 reversed $240 $-1 #
coedge $-1 $355 $527 $369 $480 reversed $240 $-1 #
edge $-1 $472 -1.5 $470 1.5 $356 $529 forward 7 unknown #
coedge $-1 $357 $475 $466 $528 forward $353 $-1 #
vertex $-1 $358 $530 #
straight-curve $-1 0 46.208445592300862 -10.420768111340898 1 0 0 I I #
vertex $-1 $359 $531 #
straight-curve $-1 -81.746510233353021 46.208445592300862 -7.4207681113408981 -1 0 0 I I #
point $-1 -77.402264473403108 46.208445592300862 -10.420768111340898 #
coedge $-1 $469 $362 $365 $478 forward $353 $-1 #
straight-curve $-1 -77.402264473403108 0 -10.420768111340898 0 -1 0 I I #
coedge $-1 $365 $364 $527 $532 forward $366 $-1 #
edge $-1 $367 -4.3442457599499136 $533 4.3442457599499136 $365 $534 forward 7 unknown #
point $-1 -77.402264473403108 -46.208445592300862 -10.420768111340898 #
edge $-1 $472 -46.208445592300862 $481 46.208445592300862 $467 $535 forward 7 unknown #
vertex $-1 $480 $536 #
straight-curve $-1 -81.746510233353021 -46.208445592300862 -7.4207681113408981 1 0 0 I I #
edge $-1 $484 34.675367198616691 $487 43.696092936096441 $374 $537 forward 7 unknown #
vertex $-1 $388 $538 #
straight-curve $-1 -50.781129445448556 -86.508446601712492 10.420768111340898 0 -1 0 I I #
edge $-1 $487 -30.608158522639428 $385 -9.7377833229788315 $384 $539 forward 7 unknown #
vertex $-1 $486 $540 #
straight-curve $-1 -50.781129445448556 -46.208445592300848 1.4000423738611687 0 0.57357642473473569 0.81915205242281985 I I #
point $-1 -50.781129445448556 -39.892065621436117 10.420768111340898 #
point $-1 -29.91075424578796 -46.208445592300862 1.4000423738611485 #
straight-curve $-1 0 -46.208445592300862 10.420768111340898 1 0 0 I I #
vertex $-1 $391 $541 #
point $-1 -42.818165102688383 -37.79645278594883 2.2316530141577111 #
vertex $-1 $395 $542 #
point $-1 -33.87371858854813 -37.79645278594883 2.2316530141577111 #
edge $-1 $497 34.675367198616691 $500 43.696092936096441 $400 $543 forward 7 unknown #
vertex $-1 $414 $544 #
straight-curve $-1 22.276889268004641 -86.508446601712492 10.420768111340898 0 -1 0 I I #
edge $-1 $500 5.9208508340871724 $411 26.791226033747769 $410 $545 forward 7 unknown #
vertex $-1 $499 $546 #
straight-curve $-1 22.276889268004641 -46.208445592300848 1.4000423738611687 0 0.57357642473473569 0.81915205242281985 I I #
point $-1 22.276889268004641 -39.892065621436117 10.420768111340898 #
point $-1 43.147264467665238 -46.208445592300862 1.4000423738611485 #
straight-curve $-1 0 -46.208445592300862 10.420768111340898 1 0 0 I I #
vertex $-1 $417 $547 #
point $-1 30.239853610764811 -37.79645278594883 2.2316530141577111 #
vertex $-1 $421 $548 #
point $-1 39.184300124905064 -37.79645278594883 2.2316530141577111 #
coedge $-1 $426 $434 $427 $511 forward $302 $-1 #
edge $-1 $513 -44.109414444175172 $435 -22.476285614280727 $426 $549 forward 7 unknown #
edge $-1 $517 -10.420768111340898 $513 -0.69707706676553727 $427 $550 forward 7 unknown #
edge $-1 $432 30.025506387090218 $517 46.208445592300862 $428 $551 forward 7 unknown #
vertex $-1 $429 $552 #
straight-curve $-1 77.402264473403108 -10.221551191179829 34.603640479688224 0 0.85716729658548041 -0.51503808176128008 I I #
point $-1 77.402264473403122 30.025506387090218 10.420768111340898 #
point $-1 55.769135643508676 46.208445592300862 0.69707706676553727 #
vertex $-1 $512 $553 #
straight-curve $-1 0 46.208445592300862 10.420768111340898 -1 0 0 I I #
vertex $-1 $441 $554 #
point $-1 63.450029594907107 35.079725673955501 0.50408929732199881 #
vertex $-1 $445 $555 #
point $-1 72.721370522004719 35.079725673955501 0.50408929732199881 #
straight-curve $-1 -77.402264473403108 46.208445592300862 0 0 0 -1 I I #
point $-1 -77.402264473403108 -46.208445592300862 -10.420768111340898 #
straight-curve $-1 -77.402264473403108 0 -10.420768111340898 0 1 0 I I #
point $-1 -77.402264473403108 46.208445592300862 -10.420768111340898 #
coedge $-1 $467 $466 $477 $532 reversed $240 $-1 #
edge $-1 $533 -46.208445592300862 $470 46.208445592300862 $466 $556 forward 7 unknown #
straight-curve $-1 -86.090755993302935 46.208445592300862 -8.9207681113408981 0 0 -1 I I #
point $-1 -86.090755993302935 46.208445592300862 -10.420768111340898 #
point $-1 -86.090755993302935 46.208445592300862 -7.4207681113408981 #
edge $-1 $481 -1.5 $533 1.5 $527 $557 forward 7 unknown #
vertex $-1 $528 $558 #
straight-curve $-1 -81.746510233353021 -46.208445592300862 -10.420768111340898 -1 0 0 I I #
straight-curve $-1 -86.090755993302935 0 -7.4207681113408981 0 -1 0 I I #
point $-1 -86.090755993302935 -46.208445592300862 -7.4207681113408981 #
straight-curve $-1 -50.781129445448556 -46.208445592300862 45.096135309957589 0 0 -1 I I #
point $-1 -50.781129445448556 -46.208445592300862 10.420768111340898 #
straight-curve $-1 -20.172970922809128 -46.208445592300862 1.4000423738611487 1 0 0 I I #
point $-1 -50.781129445448556 -46.208445592300862 1.4000423738611485 #
point $-1 -44.818165102688383 -36.158148681103185 1.0845001646882402 #
point $-1 -35.87371858854813 -36.158148681103185 1.0845001646882402 #
straight-curve $-1 22.276889268004641 -46.208445592300862 45.096135309957589 0 0 -1 I I #
point $-1 22.276889268004641 -46.208445592300862 10.420768111340898 #
straight-curve $-1 16.356038433917469 -46.208445592300862 1.4000423738611487 1 0 0 I I #
point $-1 22.276889268004641 -46.208445592300862 1.4000423738611485 #
point $-1 28.239853610764811 -36.158148681103185 1.0845001646882402 #
point $-1 37.184300124905064 -36.158148681103185 1.0845001646882402 #
straight-curve $-1 33.292850029227949 46.208445592300855 0.69707706676554082 -1 0 0 I I #
straight-curve $-1 77.402264473403108 46.208445592300862 0 0 0 -1 I I #
straight-curve $-1 77.402264473403108 0 10.420768111340898 0 1 0 I I #
point $-1 77.402264473403122 46.208445592300862 0.69707706676553727 #
point $-1 77.402264473403108 46.208445592300862 10.420768111340898 #
point $-1 61.950029594907107 34.307168551313588 -0.78166164755622192 #
point $-1 71.221370522004719 34.307168551313588 -0.78166164755622192 #
straight-curve $-1 -86.090755993302935 0 -10.420768111340898 0 1 0 I I #
straight-curve $-1 -86.090755993302935 -46.208445592300862 -8.9207681113408981 0 0 -1 I I #
point $-1 -86.090755993302935 -46.208445592300862 -10.420768111340898 #
End-of-ACIS-data 