500 0 13 0           
7 Unknown 11 ACIS 5.0 NT 24 Fri Mar 26 14:52:00 1999 
-1 9.9999999999999995e-007 1e-010 
body $-1 $13 $-1 $14 #
body $-1 $15 $-1 $16 #
body $-1 $17 $-1 $18 #
body $-1 $19 $-1 $20 #
body $-1 $21 $-1 $22 #
body $-1 $23 $-1 $24 #
body $-1 $25 $-1 $26 #
body $-1 $27 $-1 $28 #
body $-1 $29 $-1 $30 #
body $-1 $31 $-1 $32 #
body $-1 $33 $-1 $34 #
body $-1 $35 $-1 $36 #
body $-1 $37 $-1 $38 #
lump $-1 $-1 $39 $0 #
transform $-1 1 0 0 0 1 0 0 0 1 75.866573076570944 33.965497412600499 10.508603768103928 1 rotate no_reflect no_shear #
lump $-1 $-1 $40 $1 #
transform $-1 1 0 0 0 1 0 0 0 1 75.866573076570944 33.965497412600499 10.508603768103928 1 rotate no_reflect no_shear #
lump $-1 $-1 $41 $2 #
transform $-1 1 0 0 0 1 0 0 0 1 75.866573076570944 33.965497412600499 10.508603768103928 1 rotate no_reflect no_shear #
lump $-1 $-1 $42 $3 #
transform $-1 1 0 0 0 1 0 0 0 1 75.866573076570944 33.965497412600499 10.508603768103928 1 rotate no_reflect no_shear #
lump $-1 $-1 $43 $4 #
transform $-1 1 0 0 0 1 0 0 0 1 75.866573076570944 33.965497412600499 10.508603768103928 1 rotate no_reflect no_shear #
lump $-1 $-1 $44 $5 #
transform $-1 1 0 0 0 1 0 0 0 1 75.866573076570944 33.965497412600499 10.508603768103928 1 rotate no_reflect no_shear #
lump $-1 $-1 $45 $6 #
transform $-1 1 0 0 0 1 0 0 0 1 75.866573076570944 33.965497412600499 10.508603768103928 1 rotate no_reflect no_shear #
lump $-1 $-1 $46 $7 #
transform $-1 1 0 0 0 1 0 0 0 1 75.866573076570944 33.965497412600499 10.508603768103928 1 rotate no_reflect no_shear #
lump $-1 $-1 $47 $8 #
transform $-1 1 0 0 0 1 0 0 0 1 75.866573076570944 33.965497412600499 10.508603768103928 1 rotate no_reflect no_shear #
lump $-1 $-1 $48 $9 #
transform $-1 1 0 0 0 1 0 0 0 1 75.866573076570944 33.965497412600499 10.508603768103928 1 rotate no_reflect no_shear #
lump $-1 $-1 $49 $10 #
transform $-1 1 0 0 0 1 0 0 0 1 75.866573076570944 33.965497412600499 10.508603768103928 1 rotate no_reflect no_shear #
lump $-1 $-1 $50 $11 #
transform $-1 1 0 0 0 1 0 0 0 1 75.866573076570944 33.965497412600499 10.508603768103928 1 rotate no_reflect no_shear #
lump $-1 $-1 $51 $12 #
transform $-1 1 0 0 0 1 0 0 0 1 75.866573076570944 33.965497412600499 10.508603768103928 1 rotate no_reflect no_shear #
shell $-1 $-1 $-1 $52 $-1 $13 #
shell $-1 $-1 $-1 $53 $-1 $15 #
shell $-1 $-1 $-1 $54 $-1 $17 #
shell $-1 $-1 $-1 $55 $-1 $19 #
shell $-1 $-1 $-1 $56 $-1 $21 #
shell $-1 $-1 $-1 $57 $-1 $23 #
shell $-1 $-1 $-1 $58 $-1 $25 #
shell $-1 $-1 $-1 $59 $-1 $27 #
shell $-1 $-1 $-1 $60 $-1 $29 #
shell $-1 $-1 $-1 $61 $-1 $31 #
shell $-1 $-1 $-1 $62 $-1 $33 #
shell $-1 $-1 $-1 $63 $-1 $35 #
shell $-1 $-1 $-1 $64 $-1 $37 #
face $-1 $65 $66 $39 $-1 $67 forward single #
face $-1 $68 $69 $40 $-1 $70 forward single #
face $-1 $71 $72 $41 $-1 $73 reversed single #
face $-1 $74 $75 $42 $-1 $76 forward single #
face $-1 $77 $78 $43 $-1 $79 forward single #
face $-1 $80 $81 $44 $-1 $82 reversed single #
face $-1 $83 $84 $45 $-1 $85 forward single #
face $-1 $86 $87 $46 $-1 $88 forward single #
face $-1 $89 $90 $47 $-1 $91 forward single #
face $-1 $92 $93 $48 $-1 $94 reversed single #
face $-1 $95 $96 $49 $-1 $97 forward single #
face $-1 $98 $99 $50 $-1 $100 forward single #
face $-1 $101 $102 $51 $-1 $103 forward single #
face $-1 $104 $105 $39 $-1 $106 reversed single #
loop $-1 $-1 $107 $52 #
plane-surface $-1 0 0 10.508603768103928 0 0 1 1 0 0 forward_v I I I I #
face $-1 $108 $109 $40 $-1 $110 reversed single #
loop $-1 $-1 $111 $53 #
plane-surface $-1 0 -30.131157503818073 2.4066402856121711 0 0 1 1 0 0 forward_v I I I I #
face $-1 $112 $113 $41 $-1 $114 reversed single #
loop $-1 $-1 $115 $54 #
plane-surface $-1 -51.387550080686765 -18.312571211222625 83.922355742593012 0.54463904215088732 0 0.83867056331134215 0.83867056331134215 0 -0.54463904215088732 forward_v I I I I #
face $-1 $116 $117 $42 $-1 $118 forward single #
loop $-1 $119 $120 $55 #
cone-surface $-1 68.108959197998701 -21.734391089999637 4.8882278140886726 -0.54463904215088732 0 -0.83867056331134215 0.83867056331134215 0 -0.54463904215088732 1 I I 0 1 1 forward I I I I #
face $-1 $121 $122 $43 $-1 $123 forward single #
loop $-1 $124 $125 $56 #
cone-surface $-1 68.108959197998701 -14.890751332445621 4.8882278140886726 -0.54463904215088732 0 -0.83867056331134215 0.83867056331134215 0 -0.54463904215088732 1 I I 0 1 1 forward I I I I #
face $-1 $126 $127 $44 $-1 $128 reversed single #
loop $-1 $-1 $129 $57 #
plane-surface $-1 -190.3810333733411 -18.624393826355153 102.80076550225004 0 1 0 -0.75470958851134928 0 0.65605901945558964 forward_v I I I I #
face $-1 $130 $131 $45 $-1 $132 forward single #
loop $-1 $133 $134 $58 #
cone-surface $-1 -71.328844891105589 -15.620271353367897 5.6778256473113151 0.75470958851134928 0 -0.65605901945558964 0.65605901945558964 0 0.75470958851134928 1 I I 0 1 1 forward I I I I #
face $-1 $135 $136 $46 $-1 $137 forward single #
loop $-1 $138 $139 $59 #
cone-surface $-1 -71.328844891105589 -11.114087643887018 5.6778256473113151 0.75470958851134928 0 -0.65605901945558964 0.65605901945558964 0 0.75470958851134928 1 I I 0 1 1 forward I I I I #
face $-1 $140 $141 $47 $-1 $142 forward single #
loop $-1 $143 $144 $60 #
cone-surface $-1 -71.328844891105589 -6.6079039344061385 5.6778256473113151 0.75470958851134928 0 -0.65605901945558964 0.65605901945558964 0 0.75470958851134928 1 I I 0 1 1 forward I I I I #
face $-1 $145 $146 $48 $-1 $147 reversed single #
loop $-1 $-1 $148 $61 #
plane-surface $-1 -190.3810333733411 11.506763677462921 102.80076550225004 0 1 0 -0.75470958851134928 0 0.65605901945558964 forward_v I I I I #
face $-1 $149 $150 $49 $-1 $151 forward single #
loop $-1 $152 $153 $62 #
cone-surface $-1 -71.328844891105589 14.510886150450176 5.6778256473113151 0.75470958851134928 0 -0.65605901945558964 0.65605901945558964 0 0.75470958851134928 1 I I 0 1 1 forward I I I I #
face $-1 $154 $155 $50 $-1 $156 forward single #
loop $-1 $157 $158 $63 #
cone-surface $-1 -71.328844891105589 19.017069859931055 5.6778256473113151 0.75470958851134928 0 -0.65605901945558964 0.65605901945558964 0 0.75470958851134928 1 I I 0 1 1 forward I I I I #
face $-1 $159 $160 $51 $-1 $161 forward single #
loop $-1 $162 $163 $64 #
cone-surface $-1 -71.328844891105589 23.523253569411935 5.6778256473113151 0.75470958851134928 0 -0.65605901945558964 0.65605901945558964 0 0.75470958851134928 1 I I 0 1 1 forward I I I I #
face $-1 $164 $165 $39 $-1 $166 reversed single #
loop $-1 $-1 $167 $65 #
plane-surface $-1 0 0 -10.508603768103928 0 0 1 1 0 0 forward_v I I I I #
coedge $-1 $168 $169 $170 $171 forward $66 $-1 #
face $-1 $172 $173 $40 $-1 $174 reversed single #
loop $-1 $-1 $175 $68 #
plane-surface $-1 0 -30.131157503818073 -3.0555758970591902 0 0 1 1 0 0 forward_v I I I I #
coedge $-1 $176 $177 $178 $179 reversed $69 $-1 #
face $-1 $180 $181 $41 $-1 $182 reversed single #
loop $-1 $-1 $183 $71 #
plane-surface $-1 31.252245302701027 -10.328324827409608 211.17647889985074 0 -1 0 -0.54463904215088732 0 -0.83867056331134215 forward_v I I I I #
coedge $-1 $184 $185 $186 $187 reversed $72 $-1 #
face $-1 $-1 $188 $42 $-1 $189 forward single #
loop $-1 $190 $191 $74 #
cone-surface $-1 67.182456166029567 -21.734391089999637 3.4615382828670924 -0.54463904215088732 0 -0.83867056331134215 0.41933528165567108 0 -0.27231952107544366 1 I I -0.70710678118654746 0.70710678118654746 0.5 forward I I I I #
loop $-1 $-1 $192 $55 #
coedge $-1 $120 $120 $193 $194 reversed $75 $-1 #
face $-1 $-1 $195 $43 $-1 $196 forward single #
loop $-1 $197 $198 $77 #
cone-surface $-1 67.182456166029567 -14.890751332445621 3.4615382828670924 -0.54463904215088732 0 -0.83867056331134215 0.41933528165567108 0 -0.27231952107544366 1 I I -0.70710678118654746 0.70710678118654746 0.5 forward I I I I #
loop $-1 $-1 $199 $56 #
coedge $-1 $125 $125 $200 $201 reversed $78 $-1 #
face $-1 $202 $203 $44 $-1 $204 reversed single #
loop $-1 $-1 $205 $80 #
plane-surface $-1 -75.866573076570958 -11.114087643887018 3.254866418108108 -0.75470958851134928 0 0.65605901945558964 0.65605901945558964 0 0.75470958851134928 forward_v I I I I #
coedge $-1 $206 $207 $208 $209 reversed $81 $-1 #
face $-1 $-1 $210 $45 $-1 $211 forward single #
loop $-1 $212 $213 $83 #
cone-surface $-1 -69.566550669914491 -15.620271353367897 4.1458866917888226 0.75470958851134928 0 -0.65605901945558964 0.32802950972779482 0 0.37735479425567464 1 I I -0.70710678118654746 0.70710678118654746 0.5 forward I I I I #
loop $-1 $-1 $214 $58 #
coedge $-1 $134 $134 $215 $216 reversed $84 $-1 #
face $-1 $-1 $217 $46 $-1 $218 forward single #
loop $-1 $219 $220 $86 #
cone-surface $-1 -69.566550669914491 -11.114087643887018 4.1458866917888226 0.75470958851134928 0 -0.65605901945558964 0.32802950972779482 0 0.37735479425567464 1 I I -0.70710678118654746 0.70710678118654746 0.5 forward I I I I #
loop $-1 $-1 $221 $59 #
coedge $-1 $139 $139 $222 $223 reversed $87 $-1 #
face $-1 $-1 $224 $47 $-1 $225 forward single #
loop $-1 $226 $227 $89 #
cone-surface $-1 -69.566550669914491 -6.6079039344061385 4.1458866917888226 0.75470958851134928 0 -0.65605901945558964 0.32802950972779482 0 0.37735479425567464 1 I I -0.70710678118654746 0.70710678118654746 0.5 forward I I I I #
loop $-1 $-1 $228 $60 #
coedge $-1 $144 $144 $229 $230 reversed $90 $-1 #
face $-1 $231 $232 $48 $-1 $233 reversed single #
loop $-1 $-1 $234 $92 #
plane-surface $-1 -75.866573076570958 19.017069859931055 3.254866418108108 -0.75470958851134928 0 0.65605901945558964 0.65605901945558964 0 0.75470958851134928 forward_v I I I I #
coedge $-1 $235 $236 $237 $238 reversed $93 $-1 #
face $-1 $-1 $239 $49 $-1 $240 forward single #
loop $-1 $241 $242 $95 #
cone-surface $-1 -69.566550669914491 14.510886150450176 4.1458866917888226 0.75470958851134928 0 -0.65605901945558964 0.32802950972779482 0 0.37735479425567464 1 I I -0.70710678118654746 0.70710678118654746 0.5 forward I I I I #
loop $-1 $-1 $243 $62 #
coedge $-1 $153 $153 $244 $245 reversed $96 $-1 #
face $-1 $-1 $246 $50 $-1 $247 forward single #
loop $-1 $248 $249 $98 #
cone-surface $-1 -69.566550669914491 19.017069859931055 4.1458866917888226 0.75470958851134928 0 -0.65605901945558964 0.32802950972779482 0 0.37735479425567464 1 I I -0.70710678118654746 0.70710678118654746 0.5 forward I I I I #
loop $-1 $-1 $250 $63 #
coedge $-1 $158 $158 $251 $252 reversed $99 $-1 #
face $-1 $-1 $253 $51 $-1 $254 forward single #
loop $-1 $255 $256 $101 #
cone-surface $-1 -69.566550669914491 23.523253569411935 4.1458866917888226 0.75470958851134928 0 -0.65605901945558964 0.32802950972779482 0 0.37735479425567464 1 I I -0.70710678118654746 0.70710678118654746 0.5 forward I I I I #
loop $-1 $-1 $257 $64 #
coedge $-1 $163 $163 $258 $259 reversed $102 $-1 #
face $-1 $260 $261 $39 $-1 $262 reversed single #
loop $-1 $-1 $263 $104 #
plane-surface $-1 0 -33.965497412600499 0 0 1 0 0 0 1 forward_v I I I I #
coedge $-1 $264 $265 $266 $267 forward $105 $-1 #
coedge $-1 $268 $107 $269 $270 forward $66 $-1 #
coedge $-1 $107 $268 $271 $272 forward $66 $-1 #
coedge $-1 $273 $274 $107 $171 reversed $275 $-1 #
edge $-1 $276 -33.965497412600499 $277 33.965497412600499 $170 $278 forward 7 unknown #
face $-1 $279 $280 $40 $-1 $281 reversed single #
loop $-1 $-1 $282 $108 #
plane-surface $-1 0 -26.296817595035648 -0.32446780572350953 0 -1 0 0 0 -1 forward_v I I I I #
coedge $-1 $283 $284 $285 $286 reversed $109 $-1 #
coedge $-1 $287 $111 $288 $289 forward $69 $-1 #
coedge $-1 $111 $287 $290 $291 reversed $69 $-1 #
coedge $-1 $292 $293 $111 $179 forward $294 $-1 #
edge $-1 $295 11.231238843126611 $296 18.899918660691462 $178 $297 forward 7 unknown #
face $-1 $298 $299 $41 $-1 $300 forward single #
loop $-1 $-1 $301 $112 #
plane-surface $-1 75.866573076570944 0 0 -1 0 0 0 0 1 forward_v I I I I #
coedge $-1 $302 $303 $304 $305 reversed $113 $-1 #
coedge $-1 $306 $115 $307 $308 reversed $72 $-1 #
coedge $-1 $115 $306 $302 $309 forward $72 $-1 #
coedge $-1 $304 $301 $115 $187 forward $181 $-1 #
edge $-1 $310 -17.140531989424336 $311 -1.1720392217982951 $186 $312 forward 7 unknown #
loop $-1 $-1 $193 $116 #
plane-surface $-1 -51.387550080686765 -18.312571211222625 83.922355742593012 0.54463904215088732 0 0.83867056331134215 0.83867056331134215 0 -0.54463904215088732 forward_v I I I I #
loop $-1 $-1 $313 $74 #
coedge $-1 $191 $191 $192 $314 reversed $117 $-1 #
coedge $-1 $192 $192 $191 $314 forward $119 $-1 #
coedge $-1 $193 $193 $120 $194 forward $188 $-1 #
edge $-1 $315 0 $315 6.2831853071796004 $193 $316 forward 7 unknown #
loop $-1 $-1 $200 $121 #
plane-surface $-1 -51.387550080686765 -18.312571211222625 83.922355742593012 0.54463904215088732 0 0.83867056331134215 0.83867056331134215 0 -0.54463904215088732 forward_v I I I I #
loop $-1 $-1 $317 $77 #
coedge $-1 $198 $198 $199 $318 reversed $122 $-1 #
coedge $-1 $199 $199 $198 $318 forward $124 $-1 #
coedge $-1 $200 $200 $125 $201 forward $195 $-1 #
edge $-1 $319 0 $319 6.2831853071796004 $200 $320 forward 7 unknown #
face $-1 $321 $322 $44 $-1 $323 reversed single #
loop $-1 $-1 $324 $126 #
plane-surface $-1 -190.3810333733411 -3.6037814614188832 102.80076550225004 0 -1 0 0.75470958851134928 0 -0.65605901945558964 forward_v I I I I #
coedge $-1 $325 $326 $327 $328 reversed $127 $-1 #
coedge $-1 $207 $129 $329 $330 reversed $81 $-1 #
coedge $-1 $129 $206 $325 $331 reversed $81 $-1 #
coedge $-1 $327 $332 $129 $209 forward $333 $-1 #
edge $-1 $334 19.323943610099604 $335 25.629521127159421 $208 $336 forward 7 unknown #
loop $-1 $-1 $215 $130 #
plane-surface $-1 -75.866573076570958 -11.114087643887018 3.254866418108108 -0.75470958851134928 0 0.65605901945558964 0.65605901945558964 0 0.75470958851134928 forward_v I I I I #
loop $-1 $-1 $337 $83 #
coedge $-1 $213 $213 $214 $338 reversed $131 $-1 #
coedge $-1 $214 $214 $213 $338 forward $133 $-1 #
coedge $-1 $215 $215 $134 $216 forward $210 $-1 #
edge $-1 $339 0 $339 6.2831853071796004 $215 $340 forward 7 unknown #
loop $-1 $-1 $222 $135 #
plane-surface $-1 -75.866573076570958 -11.114087643887018 3.254866418108108 -0.75470958851134928 0 0.65605901945558964 0.65605901945558964 0 0.75470958851134928 forward_v I I I I #
loop $-1 $-1 $341 $86 #
coedge $-1 $220 $220 $221 $342 reversed $136 $-1 #
coedge $-1 $221 $221 $220 $342 forward $138 $-1 #
coedge $-1 $222 $222 $139 $223 forward $217 $-1 #
edge $-1 $343 0 $343 6.2831853071796004 $222 $344 forward 7 unknown #
loop $-1 $-1 $229 $140 #
plane-surface $-1 -75.866573076570958 -11.114087643887018 3.254866418108108 -0.75470958851134928 0 0.65605901945558964 0.65605901945558964 0 0.75470958851134928 forward_v I I I I #
loop $-1 $-1 $345 $89 #
coedge $-1 $227 $227 $228 $346 reversed $141 $-1 #
coedge $-1 $228 $228 $227 $346 forward $143 $-1 #
coedge $-1 $229 $229 $144 $230 forward $224 $-1 #
edge $-1 $347 0 $347 6.2831853071796004 $229 $348 forward 7 unknown #
face $-1 $349 $350 $48 $-1 $351 forward single #
loop $-1 $-1 $352 $145 #
plane-surface $-1 -190.3810333733411 26.52737604239919 102.80076550225004 0 -1 0 0.75470958851134928 0 -0.65605901945558964 forward_v I I I I #
coedge $-1 $353 $354 $355 $356 reversed $146 $-1 #
coedge $-1 $236 $148 $357 $358 reversed $93 $-1 #
coedge $-1 $148 $235 $353 $359 reversed $93 $-1 #
coedge $-1 $355 $360 $148 $238 forward $350 $-1 #
edge $-1 $361 19.323943610099604 $362 25.629521127159421 $237 $363 forward 7 unknown #
loop $-1 $-1 $244 $149 #
plane-surface $-1 -75.866573076570958 19.017069859931055 3.254866418108108 -0.75470958851134928 0 0.65605901945558964 0.65605901945558964 0 0.75470958851134928 forward_v I I I I #
loop $-1 $-1 $364 $95 #
coedge $-1 $242 $242 $243 $365 reversed $150 $-1 #
coedge $-1 $243 $243 $242 $365 forward $152 $-1 #
coedge $-1 $244 $244 $153 $245 forward $239 $-1 #
edge $-1 $366 0 $366 6.2831853071796004 $244 $367 forward 7 unknown #
loop $-1 $-1 $251 $154 #
plane-surface $-1 -75.866573076570958 19.017069859931055 3.254866418108108 -0.75470958851134928 0 0.65605901945558964 0.65605901945558964 0 0.75470958851134928 forward_v I I I I #
loop $-1 $-1 $368 $98 #
coedge $-1 $249 $249 $250 $369 reversed $155 $-1 #
coedge $-1 $250 $250 $249 $369 forward $157 $-1 #
coedge $-1 $251 $251 $158 $252 forward $246 $-1 #
edge $-1 $370 0 $370 6.2831853071796004 $251 $371 forward 7 unknown #
loop $-1 $-1 $258 $159 #
plane-surface $-1 -75.866573076570958 19.017069859931055 3.254866418108108 -0.75470958851134928 0 0.65605901945558964 0.65605901945558964 0 0.75470958851134928 forward_v I I I I #
loop $-1 $-1 $372 $101 #
coedge $-1 $256 $256 $257 $373 reversed $160 $-1 #
coedge $-1 $257 $257 $256 $373 forward $162 $-1 #
coedge $-1 $258 $258 $163 $259 forward $253 $-1 #
edge $-1 $374 0 $374 6.2831853071796004 $258 $375 forward 7 unknown #
face $-1 $376 $377 $39 $-1 $378 reversed single #
loop $-1 $-1 $379 $164 #
plane-surface $-1 -75.866573076570944 0 0 1 0 0 0 0 -1 forward_v I I I I #
coedge $-1 $380 $271 $381 $382 forward $165 $-1 #
coedge $-1 $383 $167 $380 $384 forward $105 $-1 #
coedge $-1 $167 $383 $385 $386 forward $105 $-1 #
coedge $-1 $274 $273 $167 $267 reversed $275 $-1 #
edge $-1 $387 -33.965497412600499 $388 33.965497412600499 $266 $389 forward 7 unknown #
coedge $-1 $169 $168 $390 $391 forward $66 $-1 #
coedge $-1 $392 $393 $168 $270 reversed $377 $-1 #
edge $-1 $277 -75.866573076570944 $394 75.866573076570944 $269 $395 forward 7 unknown #
coedge $-1 $263 $396 $169 $272 reversed $165 $-1 #
edge $-1 $397 -75.866573076570944 $276 75.866573076570944 $271 $398 forward 7 unknown #
coedge $-1 $266 $170 $396 $399 forward $275 $-1 #
coedge $-1 $170 $266 $392 $400 reversed $275 $-1 #
loop $-1 $-1 $273 $376 #
vertex $-1 $171 $401 #
vertex $-1 $171 $402 #
straight-curve $-1 75.866573076570944 0 10.508603768103928 0 1 0 I I #
face $-1 $403 $404 $40 $-1 $405 reversed single #
loop $-1 $-1 $406 $172 #
plane-surface $-1 -75.866573076570944 0 0 1 0 0 0 0 -1 forward_v I I I I #
coedge $-1 $407 $288 $293 $408 reversed $173 $-1 #
coedge $-1 $409 $175 $410 $411 reversed $109 $-1 #
coedge $-1 $175 $409 $407 $412 forward $109 $-1 #
coedge $-1 $293 $292 $175 $286 forward $294 $-1 #
edge $-1 $413 -18.899918660691462 $414 -11.231238843126611 $285 $415 forward 7 unknown #
coedge $-1 $177 $176 $406 $416 reversed $69 $-1 #
coedge $-1 $282 $417 $176 $289 reversed $173 $-1 #
edge $-1 $295 -75.866573076570944 $418 75.866573076570944 $288 $419 forward 7 unknown #
coedge $-1 $420 $421 $177 $291 forward $404 $-1 #
edge $-1 $296 -75.866573076570944 $422 75.866573076570944 $290 $423 forward 7 unknown #
coedge $-1 $285 $178 $421 $424 forward $294 $-1 #
coedge $-1 $178 $285 $282 $408 forward $294 $-1 #
loop $-1 $-1 $178 $403 #
vertex $-1 $179 $425 #
vertex $-1 $424 $426 #
straight-curve $-1 75.866573076570944 -15.065578751909037 2.4066402856121711 0 -1 0 I I #
face $-1 $-1 $427 $41 $-1 $428 forward single #
loop $-1 $-1 $307 $180 #
plane-surface $-1 0 -26.296817595035648 -0.32446780572350953 0 -1 0 0 0 -1 forward_v I I I I #
coedge $-1 $186 $429 $430 $431 forward $181 $-1 #
coedge $-1 $303 $183 $185 $309 reversed $113 $-1 #
coedge $-1 $183 $302 $432 $433 reversed $113 $-1 #
coedge $-1 $429 $186 $183 $305 forward $181 $-1 #
edge $-1 $311 -104.30567909072015 $434 -95.079635681821443 $304 $435 forward 7 unknown #
coedge $-1 $185 $184 $436 $437 reversed $72 $-1 #
coedge $-1 $430 $438 $184 $308 forward $299 $-1 #
edge $-1 $439 90.30273938478436 $310 107.24247872565724 $307 $440 forward 7 unknown #
edge $-1 $441 134.79340681226901 $311 151.73314615314189 $302 $442 forward 7 unknown #
vertex $-1 $308 $443 #
vertex $-1 $187 $444 #
straight-curve $-1 75.866573076570944 -9.1562856056113127 1.2825603592052275 0 1 0 I I #
coedge $-1 $313 $313 $-1 $445 reversed $190 $-1 #
edge $-1 $446 0 $446 6.2831853071796004 $191 $447 forward 7 unknown #
vertex $-1 $194 $448 #
ellipse-curve $-1 68.763142708892389 -21.734391089999637 5.8955820636545768 0.54463904215088732 0 0.83867056331134215 0.83867056331134215 0 -0.54463904215088732 1 I I #
coedge $-1 $317 $317 $-1 $449 reversed $197 $-1 #
edge $-1 $450 0 $450 6.2831853071796004 $198 $451 forward 7 unknown #
vertex $-1 $201 $452 #
ellipse-curve $-1 68.763142708892389 -14.890751332445621 5.8955820636545768 0.54463904215088732 0 0.83867056331134215 0.83867056331134215 0 -0.54463904215088732 1 I I #
face $-1 $-1 $333 $44 $-1 $453 forward single #
loop $-1 $-1 $454 $202 #
plane-surface $-1 -75.866573076570944 0 0 1 0 0 0 0 -1 forward_v I I I I #
coedge $-1 $455 $456 $457 $458 reversed $203 $-1 #
coedge $-1 $459 $205 $207 $331 forward $127 $-1 #
coedge $-1 $205 $459 $455 $460 forward $127 $-1 #
coedge $-1 $457 $208 $205 $328 forward $333 $-1 #
edge $-1 $335 -13.067350004411644 $461 1.9532623605246258 $327 $462 forward 7 unknown #
coedge $-1 $463 $464 $206 $330 forward $322 $-1 #
edge $-1 $465 -48.1455163330169 $334 -40.891778983021098 $329 $466 forward 7 unknown #
edge $-1 $335 -9.6112961335282385 $465 -2.1724019648727301e-014 $207 $467 forward 7 unknown #
coedge $-1 $208 $457 $463 $468 forward $333 $-1 #
loop $-1 $-1 $457 $321 #
vertex $-1 $330 $469 #
vertex $-1 $209 $470 #
straight-curve $-1 -95.190516686670549 -18.624393826355153 10.508603768103931 1 0 0 I I #
coedge $-1 $337 $337 $-1 $471 reversed $212 $-1 #
edge $-1 $472 0 $472 6.2831853071796004 $213 $473 forward 7 unknown #
vertex $-1 $216 $474 #
ellipse-curve $-1 -72.713784318041036 -15.620271353367897 6.8817350931060259 -0.75470958851134928 0 0.65605901945558964 0.65605901945558964 0 0.75470958851134928 1 I I #
coedge $-1 $341 $341 $-1 $475 reversed $219 $-1 #
edge $-1 $476 0 $476 6.2831853071796004 $220 $477 forward 7 unknown #
vertex $-1 $223 $478 #
ellipse-curve $-1 -72.713784318041036 -11.114087643887018 6.8817350931060259 -0.75470958851134928 0 0.65605901945558964 0.65605901945558964 0 0.75470958851134928 1 I I #
coedge $-1 $345 $345 $-1 $479 reversed $226 $-1 #
edge $-1 $480 0 $480 6.2831853071796004 $227 $481 forward 7 unknown #
vertex $-1 $230 $482 #
ellipse-curve $-1 -72.713784318041036 -6.6079039344061385 6.8817350931060259 -0.75470958851134928 0 0.65605901945558964 0.65605901945558964 0 0.75470958851134928 1 I I #
face $-1 $-1 $483 $48 $-1 $484 reversed single #
loop $-1 $-1 $237 $231 #
plane-surface $-1 0 0 10.508603768103928 0 0 1 1 0 0 forward_v I I I I #
coedge $-1 $485 $486 $487 $488 reversed $232 $-1 #
coedge $-1 $489 $234 $236 $359 forward $146 $-1 #
coedge $-1 $234 $489 $485 $490 forward $146 $-1 #
coedge $-1 $487 $237 $234 $356 forward $350 $-1 #
edge $-1 $362 1.998228747497393 $491 17.018841112433662 $355 $492 forward 7 unknown #
coedge $-1 $493 $494 $235 $358 forward $483 $-1 #
edge $-1 $495 -48.1455163330169 $361 -40.891778983021098 $357 $496 forward 7 unknown #
edge $-1 $362 -9.6112961335282385 $495 -2.1724019648727301e-014 $236 $497 forward 7 unknown #
coedge $-1 $237 $487 $493 $498 forward $350 $-1 #
vertex $-1 $238 $499 #
vertex $-1 $238 $500 #
straight-curve $-1 -95.190516686670549 11.506763677462921 10.508603768103931 1 0 0 I I #
coedge $-1 $364 $364 $-1 $501 reversed $241 $-1 #
edge $-1 $502 0 $502 6.2831853071796004 $242 $503 forward 7 unknown #
vertex $-1 $245 $504 #
ellipse-curve $-1 -72.713784318041036 14.510886150450176 6.8817350931060259 -0.75470958851134928 0 0.65605901945558964 0.65605901945558964 0 0.75470958851134928 1 I I #
coedge $-1 $368 $368 $-1 $505 reversed $248 $-1 #
edge $-1 $506 0 $506 6.2831853071796004 $249 $507 forward 7 unknown #
vertex $-1 $252 $508 #
ellipse-curve $-1 -72.713784318041036 19.017069859931055 6.8817350931060259 -0.75470958851134928 0 0.65605901945558964 0.65605901945558964 0 0.75470958851134928 1 I I #
coedge $-1 $372 $372 $-1 $509 reversed $255 $-1 #
edge $-1 $510 0 $510 6.2831853071796004 $256 $511 forward 7 unknown #
vertex $-1 $259 $512 #
ellipse-curve $-1 -72.713784318041036 23.523253569411935 6.8817350931060259 -0.75470958851134928 0 0.65605901945558964 0.65605901945558964 0 0.75470958851134928 1 I I #
face $-1 $-1 $275 $39 $-1 $513 reversed single #
loop $-1 $-1 $392 $260 #
plane-surface $-1 0 33.965497412600499 0 0 -1 0 0 0 -1 forward_v I I I I #
coedge $-1 $514 $390 $393 $515 forward $261 $-1 #
coedge $-1 $396 $263 $264 $384 reversed $165 $-1 #
coedge $-1 $390 $514 $263 $382 reversed $261 $-1 #
edge $-1 $397 -10.508603768103928 $516 10.508603768103928 $381 $517 forward 7 unknown #
coedge $-1 $265 $264 $514 $518 forward $105 $-1 #
edge $-1 $388 -75.866573076570944 $516 75.866573076570944 $380 $519 forward 7 unknown #
coedge $-1 $393 $392 $265 $386 reversed $377 $-1 #
edge $-1 $520 -75.866573076570944 $387 75.866573076570944 $385 $521 forward 7 unknown #
vertex $-1 $267 $522 #
vertex $-1 $399 $523 #
straight-curve $-1 75.866573076570944 0 -10.508603768103928 0 -1 0 I I #
coedge $-1 $379 $381 $268 $391 reversed $261 $-1 #
edge $-1 $394 -33.965497412600499 $397 33.965497412600499 $390 $524 forward 7 unknown #
coedge $-1 $385 $269 $274 $400 forward $377 $-1 #
coedge $-1 $269 $385 $379 $515 reversed $377 $-1 #
vertex $-1 $270 $525 #
straight-curve $-1 0 33.965497412600499 10.508603768103928 -1 0 0 I I #
coedge $-1 $271 $380 $273 $399 reversed $165 $-1 #
vertex $-1 $391 $526 #
straight-curve $-1 0 -33.965497412600499 10.508603768103928 1 0 0 I I #
edge $-1 $276 -10.508603768103928 $388 10.508603768103928 $273 $527 forward 7 unknown #
edge $-1 $277 -10.508603768103928 $387 10.508603768103928 $274 $528 forward 7 unknown #
point $-1 75.866573076570944 -33.965497412600499 10.508603768103928 #
point $-1 75.866573076570944 33.965497412600499 10.508603768103928 #
face $-1 $-1 $294 $40 $-1 $529 reversed single #
loop $-1 $-1 $290 $279 #
plane-surface $-1 0 -33.965497412600499 0 0 1 0 0 0 1 forward_v I I I I #
coedge $-1 $530 $531 $287 $416 forward $280 $-1 #
coedge $-1 $417 $282 $284 $412 reversed $173 $-1 #
edge $-1 $414 -2.8933419941974354 $295 2.5688741884739259 $293 $532 forward 7 unknown #
coedge $-1 $284 $283 $533 $534 reversed $109 $-1 #
coedge $-1 $421 $420 $283 $411 forward $404 $-1 #
edge $-1 $535 -75.866573076570944 $413 75.866573076570944 $410 $536 forward 7 unknown #
edge $-1 $537 -75.866573076570944 $414 75.866573076570944 $407 $538 forward 7 unknown #
vertex $-1 $411 $539 #
vertex $-1 $286 $540 #
straight-curve $-1 75.866573076570944 -15.065578751909037 -3.0555758970591902 0 1 0 I I #
edge $-1 $422 -18.899918660691462 $418 -11.231238843126611 $406 $541 forward 7 unknown #
coedge $-1 $288 $407 $530 $542 reversed $173 $-1 #
vertex $-1 $416 $543 #
straight-curve $-1 0 -26.296817595035648 2.4066402856121711 -1 0 0 I I #
coedge $-1 $410 $290 $531 $544 forward $404 $-1 #
coedge $-1 $290 $410 $292 $424 reversed $404 $-1 #
vertex $-1 $544 $545 #
straight-curve $-1 0 -33.965497412600499 2.4066402856121711 -1 0 0 I I #
edge $-1 $296 -2.4066402856121711 $413 3.0555758970591902 $292 $546 forward 7 unknown #
point $-1 75.866573076570944 -26.296817595035648 2.4066402856121711 #
point $-1 75.866573076570944 -33.965497412600499 2.4066402856121711 #
loop $-1 $-1 $547 $298 #
plane-surface $-1 0 0 10.508603768103928 0 0 1 1 0 0 forward_v I I I I #
coedge $-1 $301 $304 $548 $549 reversed $181 $-1 #
coedge $-1 $438 $307 $301 $431 reversed $299 $-1 #
edge $-1 $550 95.079635681821443 $310 104.30567909072013 $301 $551 forward 7 unknown #
coedge $-1 $436 $548 $303 $433 forward $427 $-1 #
edge $-1 $434 -60.24045042522043 $441 -46.033589689863277 $432 $552 forward 7 unknown #
vertex $-1 $305 $553 #
straight-curve $-1 75.866573076570944 -10.328324827409608 105.58823944992537 0 0 1 I I #
coedge $-1 $547 $432 $306 $437 forward $427 $-1 #
edge $-1 $441 1.1720392217982951 $439 17.140531989424328 $436 $554 forward 7 unknown #
coedge $-1 $307 $430 $547 $555 reversed $299 $-1 #
vertex $-1 $555 $556 #
straight-curve $-1 -14.074536967180629 -26.296817595035648 59.691001250234088 0.83867056331134215 0 -0.54463904215088732 I I #
vertex $-1 $437 $557 #
straight-curve $-1 -51.387550080686765 -10.328324827409608 83.922355742593012 0.83867056331134215 0 -0.54463904215088732 I I #
point $-1 75.866573076570944 -26.296817595035648 1.2825603592052377 #
point $-1 75.866573076570958 -10.328324827409608 1.2825603592052204 #
edge $-1 $558 1 $558 0 $313 $-1 forward 7 unknown #
vertex $-1 $314 $559 #
ellipse-curve $-1 67.454775687105013 -21.734391089999637 3.8808735645227634 0.54463904215088732 0 0.83867056331134215 0.83867056331134215 0 -0.54463904215088732 1 I I #
point $-1 69.601813272203728 -21.734391089999637 5.3509430215036939 #
edge $-1 $560 1 $560 0 $317 $-1 forward 7 unknown #
vertex $-1 $318 $561 #
ellipse-curve $-1 67.454775687105013 -14.890751332445621 3.8808735645227634 0.54463904215088732 0 0.83867056331134215 0.83867056331134215 0 -0.54463904215088732 1 I I #
point $-1 69.601813272203728 -14.890751332445621 5.3509430215036939 #
plane-surface $-1 0 0 10.508603768103928 0 0 1 1 0 0 forward_v I I I I #
coedge $-1 $464 $463 $456 $562 forward $322 $-1 #
coedge $-1 $456 $324 $326 $460 reversed $203 $-1 #
coedge $-1 $324 $455 $454 $562 reversed $203 $-1 #
coedge $-1 $332 $327 $324 $458 forward $333 $-1 #
edge $-1 $461 -25.629521127159421 $563 -19.323943610099604 $457 $564 forward 7 unknown #
coedge $-1 $326 $325 $464 $565 reversed $127 $-1 #
edge $-1 $566 2.1724019648727301e-014 $461 9.6112961335282385 $455 $567 forward 7 unknown #
vertex $-1 $328 $568 #
straight-curve $-1 -69.560995559511113 -5.557043821943509 10.508603768103926 0 1 0 I I #
coedge $-1 $454 $329 $332 $468 reversed $322 $-1 #
coedge $-1 $329 $454 $459 $565 forward $322 $-1 #
vertex $-1 $330 $569 #
straight-curve $-1 -75.866573076570944 -18.624393826355153 51.400382751125022 0 0 1 I I #
straight-curve $-1 -75.866573076570958 -18.624393826355153 3.254866418108108 -0.65605901945558964 0 -0.75470958851134928 I I #
edge $-1 $563 3.6037814614188832 $334 18.624393826355153 $463 $570 forward 7 unknown #
point $-1 -75.866573076570944 -18.624393826355153 10.508603768103928 #
point $-1 -69.560995559511127 -18.624393826355153 10.508603768103928 #
edge $-1 $571 1 $571 0 $337 $-1 forward 7 unknown #
vertex $-1 $338 $572 #
ellipse-curve $-1 -69.943905464170172 -15.620271353367897 4.4739162015166176 -0.75470958851134928 0 0.65605901945558964 0.65605901945558964 0 0.75470958851134928 1 I I #
point $-1 -72.057725298585439 -15.620271353367897 7.6364446816173626 #
edge $-1 $573 1 $573 0 $341 $-1 forward 7 unknown #
vertex $-1 $342 $574 #
ellipse-curve $-1 -69.943905464170172 -11.114087643887018 4.4739162015166176 -0.75470958851134928 0 0.65605901945558964 0.65605901945558964 0 0.75470958851134928 1 I I #
point $-1 -72.057725298585439 -11.114087643887018 7.6364446816173626 #
edge $-1 $575 1 $575 0 $345 $-1 forward 7 unknown #
vertex $-1 $346 $576 #
ellipse-curve $-1 -69.943905464170172 -6.6079039344061385 4.4739162015166176 -0.75470958851134928 0 0.65605901945558964 0.65605901945558964 0 0.75470958851134928 1 I I #
point $-1 -72.057725298585439 -6.6079039344061385 7.6364446816173626 #
loop $-1 $-1 $357 $349 #
plane-surface $-1 -75.866573076570944 0 0 1 0 0 0 0 -1 forward_v I I I I #
coedge $-1 $486 $352 $354 $490 reversed $232 $-1 #
coedge $-1 $352 $485 $577 $578 reversed $232 $-1 #
coedge $-1 $360 $355 $352 $488 forward $350 $-1 #
edge $-1 $491 -25.629521127159421 $579 -19.323943610099604 $487 $580 forward 7 unknown #
coedge $-1 $354 $353 $494 $581 reversed $146 $-1 #
edge $-1 $582 2.1724019648727301e-014 $491 9.6112961335282385 $485 $583 forward 7 unknown #
vertex $-1 $356 $584 #
straight-curve $-1 -69.560995559511113 9.5085349299655277 10.508603768103926 0 1 0 I I #
coedge $-1 $577 $357 $360 $498 reversed $483 $-1 #
coedge $-1 $357 $577 $489 $581 forward $483 $-1 #
vertex $-1 $358 $585 #
straight-curve $-1 -75.866573076570944 11.506763677462921 51.400382751125022 0 0 1 I I #
straight-curve $-1 -75.866573076570958 11.506763677462921 3.254866418108108 -0.65605901945558964 0 -0.75470958851134928 I I #
edge $-1 $579 -26.52737604239919 $361 -11.506763677462921 $493 $586 forward 7 unknown #
point $-1 -75.866573076570944 11.506763677462921 10.508603768103928 #
point $-1 -69.560995559511127 11.506763677462921 10.508603768103928 #
edge $-1 $587 1 $587 0 $364 $-1 forward 7 unknown #
vertex $-1 $365 $588 #
ellipse-curve $-1 -69.943905464170172 14.510886150450176 4.4739162015166176 -0.75470958851134928 0 0.65605901945558964 0.65605901945558964 0 0.75470958851134928 1 I I #
point $-1 -72.057725298585439 14.510886150450176 7.6364446816173626 #
edge $-1 $589 1 $589 0 $368 $-1 forward 7 unknown #
vertex $-1 $369 $590 #
ellipse-curve $-1 -69.943905464170172 19.017069859931055 4.4739162015166176 -0.75470958851134928 0 0.65605901945558964 0.65605901945558964 0 0.75470958851134928 1 I I #
point $-1 -72.057725298585439 19.017069859931055 7.6364446816173626 #
edge $-1 $591 1 $591 0 $372 $-1 forward 7 unknown #
vertex $-1 $373 $592 #
ellipse-curve $-1 -69.943905464170172 23.523253569411935 4.4739162015166176 -0.75470958851134928 0 0.65605901945558964 0.65605901945558964 0 0.75470958851134928 1 I I #
point $-1 -72.057725298585439 23.523253569411935 7.6364446816173626 #
plane-surface $-1 75.866573076570944 0 0 -1 0 0 0 0 1 forward_v I I I I #
coedge $-1 $381 $379 $383 $518 reversed $261 $-1 #
edge $-1 $394 -10.508603768103928 $520 10.508603768103928 $393 $593 forward 7 unknown #
vertex $-1 $518 $594 #
straight-curve $-1 -75.866573076570944 -33.965497412600499 0 0 0 -1 I I #
edge $-1 $516 -33.965497412600499 $520 33.965497412600499 $514 $595 forward 7 unknown #
straight-curve $-1 0 -33.965497412600499 -10.508603768103928 -1 0 0 I I #
vertex $-1 $386 $596 #
straight-curve $-1 0 33.965497412600499 -10.508603768103928 1 0 0 I I #
point $-1 75.866573076570944 33.965497412600499 -10.508603768103928 #
point $-1 75.866573076570944 -33.965497412600499 -10.508603768103928 #
straight-curve $-1 -75.866573076570944 0 10.508603768103928 0 -1 0 I I #
point $-1 -75.866573076570944 33.965497412600499 10.508603768103928 #
point $-1 -75.866573076570944 -33.965497412600499 10.508603768103928 #
straight-curve $-1 75.866573076570944 -33.965497412600499 0 0 0 -1 I I #
straight-curve $-1 75.866573076570944 33.965497412600499 0 0 0 -1 I I #
plane-surface $-1 75.866573076570944 0 0 -1 0 0 0 0 1 forward_v I I I I #
coedge $-1 $533 $406 $417 $542 forward $280 $-1 #
coedge $-1 $406 $533 $420 $544 reversed $280 $-1 #
straight-curve $-1 75.866573076570944 -26.296817595035648 -0.16223390286175476 0 0 1 I I #
coedge $-1 $531 $530 $409 $534 forward $280 $-1 #
edge $-1 $537 11.231238843126611 $535 18.899918660691462 $533 $597 forward 7 unknown #
vertex $-1 $411 $598 #
straight-curve $-1 0 -33.965497412600499 -3.0555758970591902 1 0 0 I I #
vertex $-1 $534 $599 #
straight-curve $-1 0 -26.296817595035648 -3.0555758970591902 1 0 0 I I #
point $-1 75.866573076570944 -33.965497412600499 -3.0555758970591902 #
point $-1 75.866573076570944 -26.296817595035648 -3.0555758970591902 #
straight-curve $-1 -75.866573076570944 -15.065578751909037 2.4066402856121711 0 1 0 I I #
edge $-1 $418 -2.5688741884739259 $537 2.8933419941974354 $530 $600 forward 7 unknown #
point $-1 -75.866573076570944 -26.296817595035648 2.4066402856121711 #
edge $-1 $422 -2.4066402856121711 $535 3.0555758970591902 $531 $601 forward 7 unknown #
point $-1 -75.866573076570944 -33.965497412600499 2.4066402856121711 #
straight-curve $-1 75.866573076570944 -33.965497412600499 0 0 0 -1 I I #
coedge $-1 $548 $436 $438 $555 forward $427 $-1 #
coedge $-1 $432 $547 $429 $549 forward $427 $-1 #
edge $-1 $550 -26.296817595035641 $434 -10.328324827409608 $429 $602 forward 7 unknown #
vertex $-1 $549 $603 #
straight-curve $-1 75.866573076570944 -26.296817595035641 105.58823944992537 0 0 -1 I I #
straight-curve $-1 15.626122651350514 -10.328324827409608 10.508603768103924 -1 0 0 I I #
point $-1 75.866573076570944 -10.328324827409608 10.508603768103928 #
straight-curve $-1 61.659712341213805 -9.1562856056113127 10.508603768103924 0 -1 0 I I #
edge $-1 $439 46.033589689863277 $550 60.24045042522043 $547 $604 forward 7 unknown #
point $-1 61.65971234121379 -26.296817595035641 10.508603768103924 #
point $-1 61.65971234121379 -10.328324827409608 10.508603768103924 #
vertex $-1 $445 $605 #
point $-1 68.293446250416352 -21.734391089999637 3.3362345223718761 #
vertex $-1 $449 $606 #
point $-1 68.293446250416352 -14.890751332445621 3.3362345223718761 #
edge $-1 $563 40.891778983021098 $566 48.1455163330169 $454 $607 forward 7 unknown #
vertex $-1 $468 $608 #
straight-curve $-1 -95.190516686670549 -3.6037814614188832 10.508603768103931 -1 0 0 I I #
edge $-1 $566 -1.9532623605246258 $465 13.067350004411644 $464 $609 forward 7 unknown #
vertex $-1 $565 $610 #
straight-curve $-1 -75.866573076570958 -3.6037814614188832 3.254866418108108 0.65605901945558964 0 0.75470958851134928 I I #
point $-1 -69.560995559511127 -3.6037814614188832 10.508603768103928 #
point $-1 -75.866573076570944 -18.624393826355153 3.2548664181081244 #
straight-curve $-1 -75.866573076570944 0 10.508603768103928 0 -1 0 I I #
vertex $-1 $471 $611 #
point $-1 -69.287846444714575 -15.620271353367897 5.2286257900279667 #
vertex $-1 $475 $612 #
point $-1 -69.287846444714575 -11.114087643887018 5.2286257900279667 #
vertex $-1 $479 $613 #
point $-1 -69.287846444714575 -6.6079039344061385 5.2286257900279667 #
coedge $-1 $494 $493 $486 $578 forward $483 $-1 #
edge $-1 $579 40.891778983021098 $582 48.1455163330169 $577 $614 forward 7 unknown #
vertex $-1 $498 $615 #
straight-curve $-1 -95.190516686670549 26.52737604239919 10.508603768103931 -1 0 0 I I #
edge $-1 $582 -17.018841112433662 $495 -1.998228747497393 $494 $616 forward 7 unknown #
vertex $-1 $581 $617 #
straight-curve $-1 -75.866573076570958 26.52737604239919 3.254866418108108 0.65605901945558964 0 0.75470958851134928 I I #
point $-1 -69.560995559511127 26.52737604239919 10.508603768103928 #
point $-1 -75.866573076570944 11.506763677462921 3.2548664181081244 #
straight-curve $-1 -75.866573076570944 0 10.508603768103928 0 -1 0 I I #
vertex $-1 $501 $618 #
point $-1 -69.287846444714575 14.510886150450176 5.2286257900279667 #
vertex $-1 $505 $619 #
point $-1 -69.287846444714575 19.017069859931055 5.2286257900279667 #
vertex $-1 $509 $620 #
point $-1 -69.287846444714575 23.523253569411935 5.2286257900279667 #
straight-curve $-1 -75.866573076570944 33.965497412600499 0 0 0 -1 I I #
point $-1 -75.866573076570944 -33.965497412600499 -10.508603768103928 #
straight-curve $-1 -75.866573076570944 0 -10.508603768103928 0 1 0 I I #
point $-1 -75.866573076570944 33.965497412600499 -10.508603768103928 #
straight-curve $-1 -75.866573076570944 -15.065578751909037 -3.0555758970591902 0 -1 0 I I #
point $-1 -75.866573076570944 -33.965497412600499 -3.0555758970591902 #
point $-1 -75.866573076570944 -26.296817595035648 -3.0555758970591902 #
straight-curve $-1 -75.866573076570944 -26.296817595035648 -0.16223390286175476 0 0 -1 I I #
straight-curve $-1 -75.866573076570944 -33.965497412600499 0 0 0 -1 I I #
straight-curve $-1 75.866573076570944 0 10.508603768103928 0 1 0 I I #
point $-1 75.866573076570944 -26.296817595035641 10.508603768103928 #
straight-curve $-1 15.626122651350514 -26.296817595035641 10.508603768103924 1 0 0 I I #
point $-1 66.910136644954122 -21.734391089999637 3.0422030012114214 #
point $-1 66.910136644954122 -14.890751332445621 3.0422030012114214 #
straight-curve $-1 -75.866573076570944 -3.6037814614188832 51.400382751125022 0 0 -1 I I #
point $-1 -75.866573076570944 -3.6037814614188832 10.508603768103928 #
straight-curve $-1 -75.866573076570944 -5.557043821943509 3.2548664181081159 0 -1 0 I I #
point $-1 -75.866573076570944 -3.6037814614188832 3.2548664181081244 #
point $-1 -69.189195875658811 -15.620271353367897 3.8178571820610276 #
point $-1 -69.189195875658811 -11.114087643887018 3.8178571820610276 #
point $-1 -69.189195875658811 -6.6079039344061385 3.8178571820610276 #
straight-curve $-1 -75.866573076570944 26.52737604239919 51.400382751125022 0 0 -1 I I #
point $-1 -75.866573076570944 26.52737604239919 10.508603768103928 #
straight-curve $-1 -75.866573076570944 9.5085349299655277 3.2548664181081159 0 -1 0 I I #
point $-1 -75.866573076570944 26.52737604239919 3.2548664181081244 #
point $-1 -69.189195875658811 14.510886150450176 3.8178571820610276 #
point $-1 -69.189195875658811 19.017069859931055 3.8178571820610276 #
point $-1 -69.189195875658811 23.523253569411935 3.8178571820610276 #
End-of-ACIS-data 