500 0 14 0           
7 Unknown 11 ACIS 5.0 NT 24 Thu Mar 25 15:56:10 1999 
-1 9.9999999999999995e-007 1e-010 
body $-1 $14 $-1 $15 #
body $-1 $16 $-1 $17 #
body $-1 $18 $-1 $19 #
body $-1 $20 $-1 $21 #
body $-1 $22 $-1 $23 #
body $-1 $24 $-1 $25 #
body $-1 $26 $-1 $27 #
body $-1 $28 $-1 $29 #
body $-1 $30 $-1 $31 #
body $-1 $32 $-1 $33 #
body $-1 $34 $-1 $35 #
body $-1 $36 $-1 $37 #
body $-1 $38 $-1 $39 #
body $-1 $40 $-1 $41 #
lump $-1 $-1 $42 $0 #
transform $-1 1 0 0 0 1 0 0 0 1 43.590197454756307 23.489511841124397 5.8196525476429359 1 rotate no_reflect no_shear #
lump $-1 $-1 $43 $1 #
transform $-1 1 0 0 0 1 0 0 0 1 43.590197454756307 23.489511841124397 5.8196525476429359 1 rotate no_reflect no_shear #
lump $-1 $-1 $44 $2 #
transform $-1 1 0 0 0 1 0 0 0 1 43.590197454756307 23.489511841124397 5.8196525476429359 1 rotate no_reflect no_shear #
lump $-1 $-1 $45 $3 #
transform $-1 1 0 0 0 1 0 0 0 1 43.590197454756307 23.489511841124397 5.8196525476429359 1 rotate no_reflect no_shear #
lump $-1 $-1 $46 $4 #
transform $-1 1 0 0 0 1 0 0 0 1 43.590197454756307 23.489511841124397 5.8196525476429359 1 rotate no_reflect no_shear #
lump $-1 $-1 $47 $5 #
transform $-1 1 0 0 0 1 0 0 0 1 43.590197454756307 23.489511841124397 5.8196525476429359 1 rotate no_reflect no_shear #
lump $-1 $-1 $48 $6 #
transform $-1 1 0 0 0 1 0 0 0 1 43.590197454756307 23.489511841124397 5.8196525476429359 1 rotate no_reflect no_shear #
lump $-1 $-1 $49 $7 #
transform $-1 1 0 0 0 1 0 0 0 1 43.590197454756307 23.489511841124397 5.8196525476429359 1 rotate no_reflect no_shear #
lump $-1 $-1 $50 $8 #
transform $-1 1 0 0 0 1 0 0 0 1 43.590197454756307 23.489511841124397 5.8196525476429359 1 rotate no_reflect no_shear #
lump $-1 $-1 $51 $9 #
transform $-1 1 0 0 0 1 0 0 0 1 43.590197454756307 23.489511841124397 5.8196525476429359 1 rotate no_reflect no_shear #
lump $-1 $-1 $52 $10 #
transform $-1 1 0 0 0 1 0 0 0 1 43.590197454756307 23.489511841124397 5.8196525476429359 1 rotate no_reflect no_shear #
lump $-1 $-1 $53 $11 #
transform $-1 1 0 0 0 1 0 0 0 1 43.590197454756307 23.489511841124397 5.8196525476429359 1 rotate no_reflect no_shear #
lump $-1 $-1 $54 $12 #
transform $-1 1 0 0 0 1 0 0 0 1 43.590197454756307 23.489511841124397 5.8196525476429359 1 rotate no_reflect no_shear #
lump $-1 $-1 $55 $13 #
transform $-1 1 0 0 0 1 0 0 0 1 43.590197454756307 23.489511841124397 5.8196525476429359 1 rotate no_reflect no_shear #
shell $-1 $-1 $-1 $56 $-1 $14 #
shell $-1 $-1 $-1 $57 $-1 $16 #
shell $-1 $-1 $-1 $58 $-1 $18 #
shell $-1 $-1 $-1 $59 $-1 $20 #
shell $-1 $-1 $-1 $60 $-1 $22 #
shell $-1 $-1 $-1 $61 $-1 $24 #
shell $-1 $-1 $-1 $62 $-1 $26 #
shell $-1 $-1 $-1 $63 $-1 $28 #
shell $-1 $-1 $-1 $64 $-1 $30 #
shell $-1 $-1 $-1 $65 $-1 $32 #
shell $-1 $-1 $-1 $66 $-1 $34 #
shell $-1 $-1 $-1 $67 $-1 $36 #
shell $-1 $-1 $-1 $68 $-1 $38 #
shell $-1 $-1 $-1 $69 $-1 $40 #
face $-1 $70 $71 $42 $-1 $72 forward single #
face $-1 $73 $74 $43 $-1 $75 forward single #
face $-1 $76 $77 $44 $-1 $78 reversed single #
face $-1 $79 $80 $45 $-1 $81 forward single #
face $-1 $82 $83 $46 $-1 $84 forward single #
face $-1 $85 $86 $47 $-1 $87 forward single #
face $-1 $88 $89 $48 $-1 $90 reversed single #
face $-1 $91 $92 $49 $-1 $93 forward single #
face $-1 $94 $95 $50 $-1 $96 forward single #
face $-1 $97 $98 $51 $-1 $99 forward single #
face $-1 $100 $101 $52 $-1 $102 reversed single #
face $-1 $103 $104 $53 $-1 $105 forward single #
face $-1 $106 $107 $54 $-1 $108 forward single #
face $-1 $109 $110 $55 $-1 $111 forward single #
face $-1 $112 $113 $42 $-1 $114 reversed single #
loop $-1 $-1 $115 $56 #
plane-surface $-1 0 0 5.8196525476429359 0 0 1 1 0 0 forward_v I I I I #
face $-1 $116 $117 $43 $-1 $118 reversed single #
loop $-1 $-1 $119 $57 #
plane-surface $-1 0 -23.489511841124397 0 0 1 0 0 0 1 forward_v I I I I #
face $-1 $120 $121 $44 $-1 $122 reversed single #
loop $-1 $-1 $123 $58 #
plane-surface $-1 -96.056669499846635 15.255871539511048 69.911996510423293 0 1 0 -0.6018150307709319 0 0.79863550430605224 forward_v I I I I #
face $-1 $124 $125 $45 $-1 $126 forward single #
loop $-1 $127 $128 $59 #
cone-surface $-1 -39.499399922896927 16.902599599833721 2.4964255488998273 0.6018150307709319 0 -0.79863550430605224 0.39931775215302612 0 0.30090751538546595 1 I I 0 1 0.5 forward I I I I #
face $-1 $129 $130 $46 $-1 $131 forward single #
loop $-1 $132 $133 $60 #
cone-surface $-1 -39.499399922896927 19.372691690317723 2.4964255488998273 0.6018150307709319 0 -0.79863550430605224 0.39931775215302612 0 0.30090751538546595 1 I I 0 1 0.5 forward I I I I #
face $-1 $134 $135 $47 $-1 $136 forward single #
loop $-1 $137 $138 $61 #
cone-surface $-1 -39.499399922896927 21.842783780801724 2.4964255488998273 0.6018150307709319 0 -0.79863550430605224 0.39931775215302612 0 0.30090751538546595 1 I I 0 1 0.5 forward I I I I #
face $-1 $139 $140 $48 $-1 $141 reversed single #
loop $-1 $-1 $142 $62 #
plane-surface $-1 37.137609936385118 -4.727379939444404 123.45101676563544 0 -1 0 -0.66913061440640931 0 -0.74314481823134659 forward_v I I I I #
face $-1 $143 $144 $49 $-1 $145 forward single #
loop $-1 $146 $147 $63 #
cone-surface $-1 40.126085451659193 -12.53173344578841 2.6133738951286793 -0.66913061440640931 0 -0.74314481823134659 0.3715724091156733 0 -0.33456530720320465 1 I I 0 1 0.5 forward I I I I #
face $-1 $148 $149 $50 $-1 $150 forward single #
loop $-1 $151 $152 $64 #
cone-surface $-1 40.126085451659193 -9.6051008809094078 2.6133738951286793 -0.66913061440640931 0 -0.74314481823134659 0.3715724091156733 0 -0.33456530720320465 1 I I 0 1 0.5 forward I I I I #
face $-1 $153 $154 $51 $-1 $155 forward single #
loop $-1 $156 $157 $65 #
cone-surface $-1 40.126085451659193 -6.6784683160304041 2.6133738951286793 -0.66913061440640931 0 -0.74314481823134659 0.3715724091156733 0 -0.33456530720320465 1 I I 0 1 0.5 forward I I I I #
face $-1 $158 $159 $52 $-1 $160 reversed single #
loop $-1 $-1 $161 $66 #
plane-surface $-1 37.137609936385118 16.828400621842153 123.45101676563544 0 -1 0 -0.66913061440640931 0 -0.74314481823134659 forward_v I I I I #
face $-1 $162 $163 $53 $-1 $164 forward single #
loop $-1 $165 $166 $67 #
cone-surface $-1 40.126085451659193 9.0240471154981492 2.6133738951286793 -0.66913061440640931 0 -0.74314481823134659 0.3715724091156733 0 -0.33456530720320465 1 I I 0 1 0.5 forward I I I I #
face $-1 $167 $168 $54 $-1 $169 forward single #
loop $-1 $170 $171 $68 #
cone-surface $-1 40.126085451659193 11.950679680377149 2.6133738951286793 -0.66913061440640931 0 -0.74314481823134659 0.3715724091156733 0 -0.33456530720320465 1 I I 0 1 0.5 forward I I I I #
face $-1 $172 $173 $55 $-1 $174 forward single #
loop $-1 $175 $176 $69 #
cone-surface $-1 40.126085451659193 14.877312245256149 2.6133738951286793 -0.66913061440640931 0 -0.74314481823134659 0.3715724091156733 0 -0.33456530720320465 1 I I 0 1 0.5 forward I I I I #
face $-1 $177 $178 $42 $-1 $179 reversed single #
loop $-1 $-1 $180 $70 #
plane-surface $-1 0 0 -5.8196525476429359 0 0 1 1 0 0 forward_v I I I I #
coedge $-1 $181 $182 $183 $184 forward $71 $-1 #
face $-1 $185 $186 $43 $-1 $187 reversed single #
loop $-1 $-1 $188 $73 #
plane-surface $-1 0 0 -5.8196525476429359 0 0 1 1 0 0 forward_v I I I I #
coedge $-1 $189 $190 $191 $192 forward $74 $-1 #
face $-1 $193 $194 $44 $-1 $195 reversed single #
loop $-1 $-1 $196 $76 #
plane-surface $-1 -43.590197454756307 19.372691690317723 0.28663785626389426 -0.6018150307709319 0 0.79863550430605224 0.79863550430605224 0 0.6018150307709319 forward_v I I I I #
coedge $-1 $197 $198 $199 $200 reversed $77 $-1 #
face $-1 $-1 $201 $45 $-1 $202 forward single #
loop $-1 $203 $204 $79 #
cone-surface $-1 -38.929427807546972 16.902599599833721 1.7400470197697331 0.6018150307709319 0 -0.79863550430605224 0.19965887607651306 0 0.15045375769273298 1 I I -0.70710678118654746 0.70710678118654746 0.25 forward I I I I #
loop $-1 $-1 $205 $59 #
coedge $-1 $128 $128 $206 $207 reversed $80 $-1 #
face $-1 $-1 $208 $46 $-1 $209 forward single #
loop $-1 $210 $211 $82 #
cone-surface $-1 -38.929427807546972 19.372691690317723 1.7400470197697331 0.6018150307709319 0 -0.79863550430605224 0.19965887607651306 0 0.15045375769273298 1 I I -0.70710678118654746 0.70710678118654746 0.25 forward I I I I #
loop $-1 $-1 $212 $60 #
coedge $-1 $133 $133 $213 $214 reversed $83 $-1 #
face $-1 $-1 $215 $47 $-1 $216 forward single #
loop $-1 $217 $218 $85 #
cone-surface $-1 -38.929427807546972 21.842783780801724 1.7400470197697331 0.6018150307709319 0 -0.79863550430605224 0.19965887607651306 0 0.15045375769273298 1 I I -0.70710678118654746 0.70710678118654746 0.25 forward I I I I #
loop $-1 $-1 $219 $61 #
coedge $-1 $138 $138 $220 $221 reversed $86 $-1 #
face $-1 $222 $223 $48 $-1 $224 reversed single #
loop $-1 $-1 $225 $88 #
plane-surface $-1 -21.197461273610458 -9.6051008809094078 58.663358037268679 0.66913061440640931 0 0.74314481823134659 0.74314481823134659 0 -0.66913061440640931 forward_v I I I I #
coedge $-1 $226 $227 $228 $229 reversed $89 $-1 #
face $-1 $-1 $230 $49 $-1 $231 forward single #
loop $-1 $232 $233 $91 #
cone-surface $-1 39.544080474826103 -12.53173344578841 1.9669918982414911 -0.66913061440640931 0 -0.74314481823134659 0.18578620455783665 0 -0.16728265360160233 1 I I -0.70710678118654746 0.70710678118654746 0.25 forward I I I I #
loop $-1 $-1 $234 $63 #
coedge $-1 $147 $147 $235 $236 reversed $92 $-1 #
face $-1 $-1 $237 $50 $-1 $238 forward single #
loop $-1 $239 $240 $94 #
cone-surface $-1 39.544080474826103 -9.6051008809094078 1.9669918982414911 -0.66913061440640931 0 -0.74314481823134659 0.18578620455783665 0 -0.16728265360160233 1 I I -0.70710678118654746 0.70710678118654746 0.25 forward I I I I #
loop $-1 $-1 $241 $64 #
coedge $-1 $152 $152 $242 $243 reversed $95 $-1 #
face $-1 $-1 $244 $51 $-1 $245 forward single #
loop $-1 $246 $247 $97 #
cone-surface $-1 39.544080474826103 -6.6784683160304041 1.9669918982414911 -0.66913061440640931 0 -0.74314481823134659 0.18578620455783665 0 -0.16728265360160233 1 I I -0.70710678118654746 0.70710678118654746 0.25 forward I I I I #
loop $-1 $-1 $248 $65 #
coedge $-1 $157 $157 $249 $250 reversed $98 $-1 #
face $-1 $251 $252 $52 $-1 $253 reversed single #
loop $-1 $-1 $254 $100 #
plane-surface $-1 -21.197461273610458 11.950679680377149 58.663358037268679 0.66913061440640931 0 0.74314481823134659 0.74314481823134659 0 -0.66913061440640931 forward_v I I I I #
coedge $-1 $255 $256 $257 $258 reversed $101 $-1 #
face $-1 $-1 $259 $53 $-1 $260 forward single #
loop $-1 $261 $262 $103 #
cone-surface $-1 39.544080474826103 9.0240471154981492 1.9669918982414911 -0.66913061440640931 0 -0.74314481823134659 0.18578620455783665 0 -0.16728265360160233 1 I I -0.70710678118654746 0.70710678118654746 0.25 forward I I I I #
loop $-1 $-1 $263 $67 #
coedge $-1 $166 $166 $264 $265 reversed $104 $-1 #
face $-1 $-1 $266 $54 $-1 $267 forward single #
loop $-1 $268 $269 $106 #
cone-surface $-1 39.544080474826103 11.950679680377149 1.9669918982414911 -0.66913061440640931 0 -0.74314481823134659 0.18578620455783665 0 -0.16728265360160233 1 I I -0.70710678118654746 0.70710678118654746 0.25 forward I I I I #
loop $-1 $-1 $270 $68 #
coedge $-1 $171 $171 $271 $272 reversed $107 $-1 #
face $-1 $-1 $273 $55 $-1 $274 forward single #
loop $-1 $275 $276 $109 #
cone-surface $-1 39.544080474826103 14.877312245256149 1.9669918982414911 -0.66913061440640931 0 -0.74314481823134659 0.18578620455783665 0 -0.16728265360160233 1 I I -0.70710678118654746 0.70710678118654746 0.25 forward I I I I #
loop $-1 $-1 $277 $69 #
coedge $-1 $176 $176 $278 $279 reversed $110 $-1 #
face $-1 $280 $281 $42 $-1 $282 reversed single #
loop $-1 $-1 $283 $112 #
plane-surface $-1 0 -23.489511841124397 0 0 1 0 0 0 1 forward_v I I I I #
coedge $-1 $284 $285 $286 $287 forward $113 $-1 #
coedge $-1 $288 $115 $289 $290 forward $71 $-1 #
coedge $-1 $115 $288 $291 $292 forward $71 $-1 #
coedge $-1 $293 $294 $115 $184 reversed $295 $-1 #
edge $-1 $296 -23.489511841124397 $297 23.489511841124397 $183 $298 forward 7 unknown #
face $-1 $299 $300 $43 $-1 $301 reversed single #
loop $-1 $-1 $302 $116 #
plane-surface $-1 -33.450892359470437 -27.356974400800077 0 0 1 0 0 0 1 forward_v I I I I #
coedge $-1 $303 $304 $190 $305 forward $117 $-1 #
coedge $-1 $306 $119 $307 $308 reversed $74 $-1 #
coedge $-1 $119 $306 $188 $305 reversed $74 $-1 #
coedge $-1 $309 $310 $119 $192 reversed $300 $-1 #
edge $-1 $311 -5.8196525476429359 $312 5.8196525476429359 $191 $313 forward 7 unknown #
face $-1 $314 $315 $44 $-1 $316 forward single #
loop $-1 $-1 $317 $120 #
plane-surface $-1 -43.590197454756307 0 0 1 0 0 0 0 -1 forward_v I I I I #
coedge $-1 $318 $319 $320 $321 reversed $121 $-1 #
coedge $-1 $198 $123 $322 $323 reversed $77 $-1 #
coedge $-1 $123 $197 $318 $324 reversed $77 $-1 #
coedge $-1 $320 $325 $123 $200 forward $315 $-1 #
edge $-1 $326 4.4381372951670102 $327 11.780695643571313 $199 $328 forward 7 unknown #
loop $-1 $-1 $206 $124 #
plane-surface $-1 -43.590197454756307 19.372691690317723 0.28663785626389426 -0.6018150307709319 0 0.79863550430605224 0.79863550430605224 0 0.6018150307709319 forward_v I I I I #
loop $-1 $-1 $329 $79 #
coedge $-1 $204 $204 $205 $330 reversed $125 $-1 #
coedge $-1 $205 $205 $204 $330 forward $127 $-1 #
coedge $-1 $206 $206 $128 $207 forward $201 $-1 #
edge $-1 $331 0 $331 6.2831853071796004 $206 $332 forward 7 unknown #
loop $-1 $-1 $213 $129 #
plane-surface $-1 -43.590197454756307 19.372691690317723 0.28663785626389426 -0.6018150307709319 0 0.79863550430605224 0.79863550430605224 0 0.6018150307709319 forward_v I I I I #
loop $-1 $-1 $333 $82 #
coedge $-1 $211 $211 $212 $334 reversed $130 $-1 #
coedge $-1 $212 $212 $211 $334 forward $132 $-1 #
coedge $-1 $213 $213 $133 $214 forward $208 $-1 #
edge $-1 $335 0 $335 6.2831853071796004 $213 $336 forward 7 unknown #
loop $-1 $-1 $220 $134 #
plane-surface $-1 -43.590197454756307 19.372691690317723 0.28663785626389426 -0.6018150307709319 0 0.79863550430605224 0.79863550430605224 0 0.6018150307709319 forward_v I I I I #
loop $-1 $-1 $337 $85 #
coedge $-1 $218 $218 $219 $338 reversed $135 $-1 #
coedge $-1 $219 $219 $218 $338 forward $137 $-1 #
coedge $-1 $220 $220 $138 $221 forward $215 $-1 #
edge $-1 $339 0 $339 6.2831853071796004 $220 $340 forward 7 unknown #
face $-1 $341 $342 $48 $-1 $343 forward single #
loop $-1 $-1 $344 $139 #
plane-surface $-1 37.137609936385118 -14.482821822374412 123.45101676563544 0 1 0 0.66913061440640931 0 0.74314481823134659 forward_v I I I I #
coedge $-1 $345 $346 $347 $348 reversed $140 $-1 #
coedge $-1 $227 $142 $349 $350 reversed $89 $-1 #
coedge $-1 $142 $226 $345 $351 reversed $89 $-1 #
coedge $-1 $347 $352 $142 $229 forward $342 $-1 #
edge $-1 $353 -25.021392486563748 $354 -18.922613126832516 $228 $355 forward 7 unknown #
loop $-1 $-1 $235 $143 #
plane-surface $-1 -21.197461273610458 -9.6051008809094078 58.663358037268679 0.66913061440640931 0 0.74314481823134659 0.74314481823134659 0 -0.66913061440640931 forward_v I I I I #
loop $-1 $-1 $356 $91 #
coedge $-1 $233 $233 $234 $357 reversed $144 $-1 #
coedge $-1 $234 $234 $233 $357 forward $146 $-1 #
coedge $-1 $235 $235 $147 $236 forward $230 $-1 #
edge $-1 $358 0 $358 6.2831853071796004 $235 $359 forward 7 unknown #
loop $-1 $-1 $242 $148 #
plane-surface $-1 -21.197461273610458 -9.6051008809094078 58.663358037268679 0.66913061440640931 0 0.74314481823134659 0.74314481823134659 0 -0.66913061440640931 forward_v I I I I #
loop $-1 $-1 $360 $94 #
coedge $-1 $240 $240 $241 $361 reversed $149 $-1 #
coedge $-1 $241 $241 $240 $361 forward $151 $-1 #
coedge $-1 $242 $242 $152 $243 forward $237 $-1 #
edge $-1 $362 0 $362 6.2831853071796004 $242 $363 forward 7 unknown #
loop $-1 $-1 $249 $153 #
plane-surface $-1 -21.197461273610458 -9.6051008809094078 58.663358037268679 0.66913061440640931 0 0.74314481823134659 0.74314481823134659 0 -0.66913061440640931 forward_v I I I I #
loop $-1 $-1 $364 $97 #
coedge $-1 $247 $247 $248 $365 reversed $154 $-1 #
coedge $-1 $248 $248 $247 $365 forward $156 $-1 #
coedge $-1 $249 $249 $157 $250 forward $244 $-1 #
edge $-1 $366 0 $366 6.2831853071796004 $249 $367 forward 7 unknown #
face $-1 $368 $369 $52 $-1 $370 reversed single #
loop $-1 $-1 $371 $158 #
plane-surface $-1 37.137609936385118 7.0729587389121455 123.45101676563544 0 1 0 0.66913061440640931 0 0.74314481823134659 forward_v I I I I #
coedge $-1 $372 $373 $374 $375 reversed $159 $-1 #
coedge $-1 $256 $161 $376 $377 reversed $101 $-1 #
coedge $-1 $161 $255 $372 $378 reversed $101 $-1 #
coedge $-1 $374 $379 $161 $258 forward $380 $-1 #
edge $-1 $381 -25.021392486563748 $382 -18.922613126832516 $257 $383 forward 7 unknown #
loop $-1 $-1 $264 $162 #
plane-surface $-1 -21.197461273610458 11.950679680377149 58.663358037268679 0.66913061440640931 0 0.74314481823134659 0.74314481823134659 0 -0.66913061440640931 forward_v I I I I #
loop $-1 $-1 $384 $103 #
coedge $-1 $262 $262 $263 $385 reversed $163 $-1 #
coedge $-1 $263 $263 $262 $385 forward $165 $-1 #
coedge $-1 $264 $264 $166 $265 forward $259 $-1 #
edge $-1 $386 0 $386 6.2831853071796004 $264 $387 forward 7 unknown #
loop $-1 $-1 $271 $167 #
plane-surface $-1 -21.197461273610458 11.950679680377149 58.663358037268679 0.66913061440640931 0 0.74314481823134659 0.74314481823134659 0 -0.66913061440640931 forward_v I I I I #
loop $-1 $-1 $388 $106 #
coedge $-1 $269 $269 $270 $389 reversed $168 $-1 #
coedge $-1 $270 $270 $269 $389 forward $170 $-1 #
coedge $-1 $271 $271 $171 $272 forward $266 $-1 #
edge $-1 $390 0 $390 6.2831853071796004 $271 $391 forward 7 unknown #
loop $-1 $-1 $278 $172 #
plane-surface $-1 -21.197461273610458 11.950679680377149 58.663358037268679 0.66913061440640931 0 0.74314481823134659 0.74314481823134659 0 -0.66913061440640931 forward_v I I I I #
loop $-1 $-1 $392 $109 #
coedge $-1 $276 $276 $277 $393 reversed $173 $-1 #
coedge $-1 $277 $277 $276 $393 forward $175 $-1 #
coedge $-1 $278 $278 $176 $279 forward $273 $-1 #
edge $-1 $394 0 $394 6.2831853071796004 $278 $395 forward 7 unknown #
face $-1 $396 $397 $42 $-1 $398 reversed single #
loop $-1 $-1 $399 $177 #
plane-surface $-1 -43.590197454756307 0 0 1 0 0 0 0 -1 forward_v I I I I #
coedge $-1 $400 $291 $401 $402 forward $178 $-1 #
coedge $-1 $403 $180 $400 $404 forward $113 $-1 #
coedge $-1 $180 $403 $405 $406 forward $113 $-1 #
coedge $-1 $294 $293 $180 $287 reversed $295 $-1 #
edge $-1 $407 -23.489511841124397 $408 23.489511841124397 $286 $409 forward 7 unknown #
coedge $-1 $182 $181 $410 $411 forward $71 $-1 #
coedge $-1 $412 $413 $181 $290 reversed $397 $-1 #
edge $-1 $297 -43.590197454756307 $414 43.590197454756307 $289 $415 forward 7 unknown #
coedge $-1 $283 $416 $182 $292 reversed $178 $-1 #
edge $-1 $417 -43.590197454756307 $296 43.590197454756307 $291 $418 forward 7 unknown #
coedge $-1 $286 $183 $416 $419 forward $295 $-1 #
coedge $-1 $183 $286 $412 $420 reversed $295 $-1 #
loop $-1 $-1 $293 $396 #
vertex $-1 $184 $421 #
vertex $-1 $184 $422 #
straight-curve $-1 43.590197454756307 0 5.8196525476429359 0 1 0 I I #
face $-1 $423 $424 $43 $-1 $425 reversed single #
loop $-1 $-1 $191 $185 #
plane-surface $-1 -34.950892359470437 -25.423243120962237 0 1 0 0 0 0 -1 forward_v I I I I #
coedge $-1 $426 $427 $428 $429 forward $186 $-1 #
coedge $-1 $430 $188 $431 $432 forward $117 $-1 #
coedge $-1 $188 $430 $309 $433 forward $117 $-1 #
edge $-1 $311 -34.950892359470437 $434 -31.950892359470437 $188 $435 forward 7 unknown #
coedge $-1 $190 $189 $436 $437 forward $74 $-1 #
coedge $-1 $438 $439 $189 $308 forward $440 $-1 #
edge $-1 $441 31.950892359470437 $312 34.950892359470437 $307 $442 forward 7 unknown #
coedge $-1 $428 $191 $304 $433 reversed $300 $-1 #
coedge $-1 $191 $428 $438 $443 reversed $300 $-1 #
vertex $-1 $305 $444 #
vertex $-1 $443 $445 #
straight-curve $-1 -34.950892359470437 -23.489511841124397 0 0 0 1 I I #
face $-1 $-1 $446 $44 $-1 $447 reversed single #
loop $-1 $-1 $320 $193 #
plane-surface $-1 0 0 5.8196525476429359 0 0 1 1 0 0 forward_v I I I I #
coedge $-1 $322 $448 $449 $450 forward $194 $-1 #
coedge $-1 $449 $196 $198 $324 forward $121 $-1 #
coedge $-1 $196 $449 $451 $452 reversed $121 $-1 #
coedge $-1 $453 $199 $196 $321 forward $315 $-1 #
edge $-1 $327 5.5695256943521869 $454 13.803165995965536 $320 $455 forward 7 unknown #
coedge $-1 $456 $317 $197 $323 forward $194 $-1 #
edge $-1 $457 -34.669360398947752 $326 -29.136345707568712 $322 $458 forward 7 unknown #
edge $-1 $327 -9.193879196222781 $457 0 $198 $459 forward 7 unknown #
coedge $-1 $199 $453 $456 $460 forward $315 $-1 #
vertex $-1 $323 $461 #
vertex $-1 $200 $462 #
straight-curve $-1 -48.028334749923317 15.255871539511048 5.8196525476429386 1 0 0 I I #
coedge $-1 $329 $329 $-1 $463 reversed $203 $-1 #
edge $-1 $464 0 $464 6.2831853071796004 $204 $465 forward 7 unknown #
vertex $-1 $207 $466 #
ellipse-curve $-1 -39.918918280554159 16.902599599833721 3.0531452019534155 -0.6018150307709319 0 0.79863550430605224 0.39931775215302612 0 0.30090751538546595 1 I I #
coedge $-1 $333 $333 $-1 $467 reversed $210 $-1 #
edge $-1 $468 0 $468 6.2831853071796004 $211 $469 forward 7 unknown #
vertex $-1 $214 $470 #
ellipse-curve $-1 -39.918918280554159 19.372691690317723 3.0531452019534155 -0.6018150307709319 0 0.79863550430605224 0.39931775215302612 0 0.30090751538546595 1 I I #
coedge $-1 $337 $337 $-1 $471 reversed $217 $-1 #
edge $-1 $472 0 $472 6.2831853071796004 $218 $473 forward 7 unknown #
vertex $-1 $221 $474 #
ellipse-curve $-1 -39.918918280554159 21.842783780801724 3.0531452019534155 -0.6018150307709319 0 0.79863550430605224 0.39931775215302612 0 0.30090751538546595 1 I I #
face $-1 $-1 $475 $48 $-1 $476 reversed single #
loop $-1 $-1 $228 $222 #
plane-surface $-1 0 0 5.8196525476429359 0 0 1 1 0 0 forward_v I I I I #
coedge $-1 $477 $478 $479 $480 reversed $223 $-1 #
coedge $-1 $481 $225 $227 $351 forward $140 $-1 #
coedge $-1 $225 $481 $477 $482 forward $140 $-1 #
coedge $-1 $479 $228 $225 $348 forward $342 $-1 #
edge $-1 $354 -0.075170501010299873 $483 9.6802713819197077 $347 $484 forward 7 unknown #
coedge $-1 $485 $486 $226 $350 forward $475 $-1 #
edge $-1 $487 -61.397221555544618 $353 -55.905855835174783 $349 $488 forward 7 unknown #
edge $-1 $354 78.973677712390696 $487 87.180394909512614 $227 $489 forward 7 unknown #
coedge $-1 $228 $479 $485 $490 forward $342 $-1 #
vertex $-1 $229 $491 #
vertex $-1 $229 $492 #
straight-curve $-1 18.568804968192559 -4.727379939444404 5.8196525476429386 -1 0 0 I I #
coedge $-1 $356 $356 $-1 $493 reversed $232 $-1 #
edge $-1 $494 0 $494 6.2831853071796004 $233 $495 forward 7 unknown #
vertex $-1 $236 $496 #
ellipse-curve $-1 40.540807774890681 -12.53173344578841 3.0739696874580282 0.66913061440640931 0 0.74314481823134659 0.3715724091156733 0 -0.33456530720320465 1 I I #
coedge $-1 $360 $360 $-1 $497 reversed $239 $-1 #
edge $-1 $498 0 $498 6.2831853071796004 $240 $499 forward 7 unknown #
vertex $-1 $243 $500 #
ellipse-curve $-1 40.540807774890681 -9.6051008809094078 3.0739696874580282 0.66913061440640931 0 0.74314481823134659 0.3715724091156733 0 -0.33456530720320465 1 I I #
coedge $-1 $364 $364 $-1 $501 reversed $246 $-1 #
edge $-1 $502 0 $502 6.2831853071796004 $247 $503 forward 7 unknown #
vertex $-1 $250 $504 #
ellipse-curve $-1 40.540807774890681 -6.6784683160304041 3.0739696874580282 0.66913061440640931 0 0.74314481823134659 0.3715724091156733 0 -0.33456530720320465 1 I I #
face $-1 $-1 $380 $52 $-1 $505 forward single #
loop $-1 $-1 $506 $251 #
plane-surface $-1 43.590197454756307 0 0 -1 0 0 0 0 1 forward_v I I I I #
coedge $-1 $507 $508 $509 $510 reversed $252 $-1 #
coedge $-1 $511 $254 $256 $378 forward $159 $-1 #
coedge $-1 $254 $511 $507 $512 forward $159 $-1 #
coedge $-1 $509 $257 $254 $375 forward $380 $-1 #
edge $-1 $382 -10.853060781653578 $513 -1.0976188987235709 $374 $514 forward 7 unknown #
coedge $-1 $515 $516 $255 $377 forward $369 $-1 #
edge $-1 $517 -61.397221555544618 $381 -55.905855835174783 $376 $518 forward 7 unknown #
edge $-1 $382 78.973677712390696 $517 87.180394909512614 $256 $519 forward 7 unknown #
coedge $-1 $257 $509 $515 $520 forward $380 $-1 #
loop $-1 $-1 $509 $368 #
vertex $-1 $377 $521 #
vertex $-1 $258 $522 #
straight-curve $-1 18.568804968192559 16.828400621842153 5.8196525476429386 -1 0 0 I I #
coedge $-1 $384 $384 $-1 $523 reversed $261 $-1 #
edge $-1 $524 0 $524 6.2831853071796004 $262 $525 forward 7 unknown #
vertex $-1 $265 $526 #
ellipse-curve $-1 40.540807774890681 9.0240471154981492 3.0739696874580282 0.66913061440640931 0 0.74314481823134659 0.3715724091156733 0 -0.33456530720320465 1 I I #
coedge $-1 $388 $388 $-1 $527 reversed $268 $-1 #
edge $-1 $528 0 $528 6.2831853071796004 $269 $529 forward 7 unknown #
vertex $-1 $272 $530 #
ellipse-curve $-1 40.540807774890681 11.950679680377149 3.0739696874580282 0.66913061440640931 0 0.74314481823134659 0.3715724091156733 0 -0.33456530720320465 1 I I #
coedge $-1 $392 $392 $-1 $531 reversed $275 $-1 #
edge $-1 $532 0 $532 6.2831853071796004 $276 $533 forward 7 unknown #
vertex $-1 $279 $534 #
ellipse-curve $-1 40.540807774890681 14.877312245256149 3.0739696874580282 0.66913061440640931 0 0.74314481823134659 0.3715724091156733 0 -0.33456530720320465 1 I I #
face $-1 $-1 $295 $42 $-1 $535 reversed single #
loop $-1 $-1 $412 $280 #
plane-surface $-1 0 23.489511841124397 0 0 -1 0 0 0 -1 forward_v I I I I #
coedge $-1 $536 $410 $413 $537 forward $281 $-1 #
coedge $-1 $416 $283 $284 $404 reversed $178 $-1 #
coedge $-1 $410 $536 $283 $402 reversed $281 $-1 #
edge $-1 $417 -5.8196525476429359 $538 5.8196525476429359 $401 $539 forward 7 unknown #
coedge $-1 $285 $284 $536 $540 forward $113 $-1 #
edge $-1 $408 -43.590197454756307 $538 43.590197454756307 $400 $541 forward 7 unknown #
coedge $-1 $413 $412 $285 $406 reversed $397 $-1 #
edge $-1 $542 -43.590197454756307 $407 43.590197454756307 $405 $543 forward 7 unknown #
vertex $-1 $287 $544 #
vertex $-1 $419 $545 #
straight-curve $-1 43.590197454756307 0 -5.8196525476429359 0 -1 0 I I #
coedge $-1 $399 $401 $288 $411 reversed $281 $-1 #
edge $-1 $414 -23.489511841124397 $417 23.489511841124397 $410 $546 forward 7 unknown #
coedge $-1 $405 $289 $294 $420 forward $397 $-1 #
coedge $-1 $289 $405 $399 $537 reversed $397 $-1 #
vertex $-1 $290 $547 #
straight-curve $-1 0 23.489511841124397 5.8196525476429359 -1 0 0 I I #
coedge $-1 $291 $400 $293 $419 reversed $178 $-1 #
vertex $-1 $411 $548 #
straight-curve $-1 0 -23.489511841124397 5.8196525476429359 1 0 0 I I #
edge $-1 $296 -5.8196525476429359 $408 5.8196525476429359 $293 $549 forward 7 unknown #
edge $-1 $297 -5.8196525476429359 $407 5.8196525476429359 $294 $550 forward 7 unknown #
point $-1 43.590197454756307 -23.489511841124397 5.8196525476429359 #
point $-1 43.590197454756307 23.489511841124397 5.8196525476429359 #
face $-1 $-1 $440 $43 $-1 $551 forward single #
loop $-1 $-1 $552 $299 #
plane-surface $-1 -31.950892359470437 -25.423243120962237 0 -1 0 0 0 0 1 forward_v I I I I #
coedge $-1 $553 $302 $430 $554 reversed $186 $-1 #
coedge $-1 $302 $553 $555 $556 reversed $186 $-1 #
coedge $-1 $310 $309 $302 $429 reversed $300 $-1 #
edge $-1 $557 -5.8196525476429359 $558 5.8196525476429359 $428 $559 forward 7 unknown #
coedge $-1 $304 $303 $426 $554 forward $117 $-1 #
coedge $-1 $436 $552 $303 $432 reversed $424 $-1 #
edge $-1 $434 -1.9337312798378399 $560 1.9337312798378399 $431 $561 forward 7 unknown #
edge $-1 $558 -1.9337312798378399 $311 1.9337312798378399 $309 $562 forward 7 unknown #
vertex $-1 $432 $563 #
straight-curve $-1 0 -23.489511841124397 -5.8196525476429359 1 0 0 I I #
coedge $-1 $564 $431 $306 $437 reversed $424 $-1 #
edge $-1 $441 -5.8196525476429359 $434 5.8196525476429359 $436 $565 forward 7 unknown #
coedge $-1 $555 $307 $310 $443 forward $440 $-1 #
coedge $-1 $307 $555 $564 $566 forward $440 $-1 #
loop $-1 $-1 $307 $423 #
vertex $-1 $308 $567 #
straight-curve $-1 0 -23.489511841124397 5.8196525476429359 -1 0 0 I I #
edge $-1 $312 -1.9337312798378399 $557 1.9337312798378399 $310 $568 forward 7 unknown #
point $-1 -34.950892359470437 -23.489511841124397 -5.8196525476429359 #
point $-1 -34.950892359470437 -23.489511841124397 5.8196525476429359 #
loop $-1 $-1 $451 $314 #
plane-surface $-1 0 23.489511841124397 0 0 -1 0 0 0 -1 forward_v I I I I #
coedge $-1 $317 $456 $569 $570 forward $194 $-1 #
coedge $-1 $319 $318 $317 $450 reversed $121 $-1 #
edge $-1 $571 -13.803165995965536 $457 -5.5695256943521869 $317 $572 forward 7 unknown #
coedge $-1 $569 $573 $319 $452 forward $446 $-1 #
edge $-1 $454 8.126208982173285 $571 17.320088178396066 $451 $574 forward 7 unknown #
coedge $-1 $325 $320 $573 $575 forward $315 $-1 #
vertex $-1 $575 $576 #
straight-curve $-1 -36.247639106352011 9.6863458451588613 5.8196525476429368 0 1 0 I I #
coedge $-1 $448 $322 $325 $460 reversed $194 $-1 #
vertex $-1 $323 $577 #
straight-curve $-1 -43.590197454756307 15.255871539511048 34.955998255211647 0 0 1 I I #
straight-curve $-1 -43.590197454756307 15.255871539511048 0.28663785626389426 -0.79863550430605224 0 -0.6018150307709319 I I #
edge $-1 $578 -23.489511841124397 $326 -15.255871539511048 $456 $579 forward 7 unknown #
point $-1 -43.590197454756307 15.255871539511048 5.8196525476429359 #
point $-1 -36.247639106352004 15.255871539511048 5.8196525476429359 #
edge $-1 $580 1 $580 0 $329 $-1 forward 7 unknown #
vertex $-1 $330 $581 #
ellipse-curve $-1 -39.079881565239702 16.902599599833721 1.9397058958462461 -0.6018150307709319 0 0.79863550430605224 0.39931775215302612 0 0.30090751538546595 1 I I #
point $-1 -39.519600528401128 16.902599599833721 3.3540527173388739 #
edge $-1 $582 1 $582 0 $333 $-1 forward 7 unknown #
vertex $-1 $334 $583 #
ellipse-curve $-1 -39.079881565239702 19.372691690317723 1.9397058958462461 -0.6018150307709319 0 0.79863550430605224 0.39931775215302612 0 0.30090751538546595 1 I I #
point $-1 -39.519600528401128 19.372691690317723 3.3540527173388739 #
edge $-1 $584 1 $584 0 $337 $-1 forward 7 unknown #
vertex $-1 $338 $585 #
ellipse-curve $-1 -39.079881565239702 21.842783780801724 1.9397058958462461 -0.6018150307709319 0 0.79863550430605224 0.39931775215302612 0 0.30090751538546595 1 I I #
point $-1 -39.519600528401128 21.842783780801724 3.3540527173388739 #
loop $-1 $-1 $349 $341 #
plane-surface $-1 43.590197454756307 0 0 -1 0 0 0 0 1 forward_v I I I I #
coedge $-1 $478 $344 $346 $482 reversed $223 $-1 #
coedge $-1 $344 $477 $586 $587 reversed $223 $-1 #
coedge $-1 $352 $347 $344 $480 forward $342 $-1 #
edge $-1 $483 18.922613126832516 $588 25.021392486563748 $479 $589 forward 7 unknown #
coedge $-1 $346 $345 $486 $590 reversed $140 $-1 #
edge $-1 $591 -87.180394909512614 $483 -78.973677712390696 $477 $592 forward 7 unknown #
vertex $-1 $348 $593 #
straight-curve $-1 37.491418095025082 -4.8025504404547039 5.8196525476429315 0 -1 0 I I #
coedge $-1 $586 $349 $352 $490 reversed $475 $-1 #
coedge $-1 $349 $586 $481 $590 forward $475 $-1 #
vertex $-1 $350 $594 #
straight-curve $-1 43.590197454756307 -4.727379939444404 61.725508382817722 0 0 1 I I #
straight-curve $-1 -21.197461273610458 -4.727379939444404 58.663358037268679 0.74314481823134659 0 -0.66913061440640931 I I #
edge $-1 $588 -14.482821822374412 $353 -4.727379939444404 $485 $595 forward 7 unknown #
point $-1 43.590197454756307 -4.727379939444404 5.8196525476429359 #
point $-1 37.491418095025075 -4.727379939444404 5.8196525476429386 #
edge $-1 $596 1 $596 0 $356 $-1 forward 7 unknown #
vertex $-1 $357 $597 #
ellipse-curve $-1 39.711363128427706 -12.53173344578841 2.1527781027993278 0.66913061440640931 0 0.74314481823134659 0.3715724091156733 0 -0.33456530720320465 1 I I #
point $-1 40.912380184006352 -12.53173344578841 2.7394043802548262 #
edge $-1 $598 1 $598 0 $360 $-1 forward 7 unknown #
vertex $-1 $361 $599 #
ellipse-curve $-1 39.711363128427706 -9.6051008809094078 2.1527781027993278 0.66913061440640931 0 0.74314481823134659 0.3715724091156733 0 -0.33456530720320465 1 I I #
point $-1 40.912380184006352 -9.6051008809094078 2.7394043802548262 #
edge $-1 $600 1 $600 0 $364 $-1 forward 7 unknown #
vertex $-1 $365 $601 #
ellipse-curve $-1 39.711363128427706 -6.6784683160304041 2.1527781027993278 0.66913061440640931 0 0.74314481823134659 0.3715724091156733 0 -0.33456530720320465 1 I I #
point $-1 40.912380184006352 -6.6784683160304041 2.7394043802548262 #
plane-surface $-1 0 0 5.8196525476429359 0 0 1 1 0 0 forward_v I I I I #
coedge $-1 $516 $515 $508 $602 forward $369 $-1 #
coedge $-1 $508 $371 $373 $512 reversed $252 $-1 #
coedge $-1 $371 $507 $506 $602 reversed $252 $-1 #
coedge $-1 $379 $374 $371 $510 forward $380 $-1 #
edge $-1 $513 18.922613126832516 $603 25.021392486563748 $509 $604 forward 7 unknown #
coedge $-1 $373 $372 $516 $605 reversed $159 $-1 #
edge $-1 $606 -87.180394909512614 $513 -78.973677712390696 $507 $607 forward 7 unknown #
vertex $-1 $375 $608 #
straight-curve $-1 37.491418095025082 5.9753398401885747 5.8196525476429315 0 -1 0 I I #
coedge $-1 $506 $376 $379 $520 reversed $369 $-1 #
coedge $-1 $376 $506 $511 $605 forward $369 $-1 #
vertex $-1 $377 $609 #
straight-curve $-1 43.590197454756307 16.828400621842153 61.725508382817722 0 0 1 I I #
straight-curve $-1 -21.197461273610458 16.828400621842153 58.663358037268679 0.74314481823134659 0 -0.66913061440640931 I I #
edge $-1 $603 7.0729587389121455 $381 16.828400621842153 $515 $610 forward 7 unknown #
point $-1 43.590197454756307 16.828400621842153 5.8196525476429359 #
point $-1 37.491418095025075 16.828400621842153 5.8196525476429386 #
edge $-1 $611 1 $611 0 $384 $-1 forward 7 unknown #
vertex $-1 $385 $612 #
ellipse-curve $-1 39.711363128427706 9.0240471154981492 2.1527781027993278 0.66913061440640931 0 0.74314481823134659 0.3715724091156733 0 -0.33456530720320465 1 I I #
point $-1 40.912380184006352 9.0240471154981492 2.7394043802548262 #
edge $-1 $613 1 $613 0 $388 $-1 forward 7 unknown #
vertex $-1 $389 $614 #
ellipse-curve $-1 39.711363128427706 11.950679680377149 2.1527781027993278 0.66913061440640931 0 0.74314481823134659 0.3715724091156733 0 -0.33456530720320465 1 I I #
point $-1 40.912380184006352 11.950679680377149 2.7394043802548262 #
edge $-1 $615 1 $615 0 $392 $-1 forward 7 unknown #
vertex $-1 $393 $616 #
ellipse-curve $-1 39.711363128427706 14.877312245256149 2.1527781027993278 0.66913061440640931 0 0.74314481823134659 0.3715724091156733 0 -0.33456530720320465 1 I I #
point $-1 40.912380184006352 14.877312245256149 2.7394043802548262 #
plane-surface $-1 43.590197454756307 0 0 -1 0 0 0 0 1 forward_v I I I I #
coedge $-1 $401 $399 $403 $540 reversed $281 $-1 #
edge $-1 $414 -5.8196525476429359 $542 5.8196525476429359 $413 $617 forward 7 unknown #
vertex $-1 $540 $618 #
straight-curve $-1 -43.590197454756307 -23.489511841124397 0 0 0 -1 I I #
edge $-1 $538 -23.489511841124397 $542 23.489511841124397 $536 $619 forward 7 unknown #
straight-curve $-1 0 -23.489511841124397 -5.8196525476429359 -1 0 0 I I #
vertex $-1 $406 $620 #
straight-curve $-1 0 23.489511841124397 -5.8196525476429359 1 0 0 I I #
point $-1 43.590197454756307 23.489511841124397 -5.8196525476429359 #
point $-1 43.590197454756307 -23.489511841124397 -5.8196525476429359 #
straight-curve $-1 -43.590197454756307 0 5.8196525476429359 0 -1 0 I I #
point $-1 -43.590197454756307 23.489511841124397 5.8196525476429359 #
point $-1 -43.590197454756307 -23.489511841124397 5.8196525476429359 #
straight-curve $-1 43.590197454756307 -23.489511841124397 0 0 0 -1 I I #
straight-curve $-1 43.590197454756307 23.489511841124397 0 0 0 -1 I I #
plane-surface $-1 0 0 5.8196525476429359 0 0 1 1 0 0 forward_v I I I I #
coedge $-1 $431 $564 $553 $621 forward $424 $-1 #
coedge $-1 $427 $426 $552 $621 reversed $186 $-1 #
edge $-1 $560 -1.5 $558 1.5 $426 $622 forward 7 unknown #
coedge $-1 $439 $438 $427 $556 forward $440 $-1 #
edge $-1 $557 -1.5 $623 1.5 $427 $624 forward 7 unknown #
vertex $-1 $443 $625 #
vertex $-1 $433 $626 #
straight-curve $-1 -34.950892359470437 -27.356974400800077 0 0 0 -1 I I #
vertex $-1 $621 $627 #
straight-curve $-1 -31.950892359470437 -25.423243120962237 -5.8196525476429359 0 -1 0 I I #
straight-curve $-1 -34.950892359470437 -25.423243120962237 -5.8196525476429359 0 1 0 I I #
point $-1 -31.950892359470437 -23.489511841124397 -5.8196525476429359 #
coedge $-1 $552 $436 $439 $566 reversed $424 $-1 #
straight-curve $-1 -31.950892359470437 -23.489511841124397 0 0 0 -1 I I #
edge $-1 $623 -1.9337312798378399 $441 1.9337312798378399 $564 $628 forward 7 unknown #
point $-1 -31.950892359470437 -23.489511841124397 5.8196525476429359 #
straight-curve $-1 -34.950892359470437 -25.423243120962237 5.8196525476429359 0 -1 0 I I #
coedge $-1 $573 $451 $448 $570 reversed $446 $-1 #
edge $-1 $578 -5.8196525476429359 $571 -0.28663785626389426 $569 $629 forward 7 unknown #
vertex $-1 $452 $630 #
straight-curve $-1 -43.590197454756307 9.6863458451588613 0.28663785626389626 0 -1 0 I I #
coedge $-1 $451 $569 $453 $575 reversed $446 $-1 #
straight-curve $-1 -29.757760097777673 23.489511841124397 10.710127256300575 -0.79863550430605224 0 -0.6018150307709319 I I #
edge $-1 $454 36.247639106352004 $578 43.590197454756307 $573 $631 forward 7 unknown #
point $-1 -36.247639106352004 23.489511841124397 5.8196525476429359 #
point $-1 -43.590197454756307 15.255871539511048 0.28663785626389426 #
vertex $-1 $575 $632 #
straight-curve $-1 -43.590197454756307 0 5.8196525476429359 0 -1 0 I I #
vertex $-1 $463 $633 #
point $-1 -38.680563813086678 16.902599599833721 2.240613411231712 #
vertex $-1 $467 $634 #
point $-1 -38.680563813086678 19.372691690317723 2.240613411231712 #
vertex $-1 $471 $635 #
point $-1 -38.680563813086678 21.842783780801724 2.240613411231712 #
coedge $-1 $486 $485 $478 $587 forward $475 $-1 #
edge $-1 $588 55.905855835174783 $591 61.397221555544618 $586 $636 forward 7 unknown #
vertex $-1 $490 $637 #
straight-curve $-1 18.568804968192559 -14.482821822374412 5.8196525476429386 1 0 0 I I #
edge $-1 $591 -9.6802713819197077 $487 0.075170501010299873 $486 $638 forward 7 unknown #
vertex $-1 $590 $639 #
straight-curve $-1 -21.197461273610458 -14.482821822374412 58.663358037268679 -0.74314481823134659 0 0.66913061440640931 I I #
point $-1 37.491418095025075 -14.482821822374412 5.8196525476429386 #
point $-1 43.590197454756307 -4.727379939444404 0.32828682727310365 #
straight-curve $-1 43.590197454756307 0 5.8196525476429359 0 1 0 I I #
vertex $-1 $493 $640 #
point $-1 40.082935537543378 -12.53173344578841 1.8182127955961231 #
vertex $-1 $497 $641 #
point $-1 40.082935537543378 -9.6051008809094078 1.8182127955961231 #
vertex $-1 $501 $642 #
point $-1 40.082935537543378 -6.6784683160304041 1.8182127955961231 #
edge $-1 $603 55.905855835174783 $606 61.397221555544618 $506 $643 forward 7 unknown #
vertex $-1 $520 $644 #
straight-curve $-1 18.568804968192559 7.0729587389121455 5.8196525476429386 1 0 0 I I #
edge $-1 $606 1.0976188987235709 $517 10.853060781653578 $516 $645 forward 7 unknown #
vertex $-1 $605 $646 #
straight-curve $-1 -21.197461273610458 7.0729587389121455 58.663358037268679 -0.74314481823134659 0 0.66913061440640931 I I #
point $-1 37.491418095025075 7.0729587389121455 5.8196525476429386 #
point $-1 43.590197454756307 16.828400621842153 0.32828682727310365 #
straight-curve $-1 43.590197454756307 0 5.8196525476429359 0 1 0 I I #
vertex $-1 $523 $647 #
point $-1 40.082935537543378 9.0240471154981492 1.8182127955961231 #
vertex $-1 $527 $648 #
point $-1 40.082935537543378 11.950679680377149 1.8182127955961231 #
vertex $-1 $531 $649 #
point $-1 40.082935537543378 14.877312245256149 1.8182127955961231 #
straight-curve $-1 -43.590197454756307 23.489511841124397 0 0 0 -1 I I #
point $-1 -43.590197454756307 -23.489511841124397 -5.8196525476429359 #
straight-curve $-1 -43.590197454756307 0 -5.8196525476429359 0 1 0 I I #
point $-1 -43.590197454756307 23.489511841124397 -5.8196525476429359 #
edge $-1 $623 -5.8196525476429359 $560 5.8196525476429359 $552 $650 forward 7 unknown #
straight-curve $-1 -33.450892359470437 -27.356974400800077 -5.8196525476429359 -1 0 0 I I #
vertex $-1 $566 $651 #
straight-curve $-1 -33.450892359470437 -27.356974400800077 5.8196525476429359 1 0 0 I I #
point $-1 -34.950892359470437 -27.356974400800077 5.8196525476429359 #
point $-1 -34.950892359470437 -27.356974400800077 -5.8196525476429359 #
point $-1 -31.950892359470437 -27.356974400800077 -5.8196525476429359 #
straight-curve $-1 -31.950892359470437 -25.423243120962237 5.8196525476429359 0 1 0 I I #
straight-curve $-1 -43.590197454756307 23.489511841124397 0 0 0 -1 I I #
point $-1 -43.590197454756307 23.489511841124397 0.28663785626389426 #
straight-curve $-1 0 23.489511841124397 5.8196525476429359 -1 0 0 I I #
point $-1 -43.590197454756307 23.489511841124397 5.8196525476429359 #
point $-1 -38.778974049854241 16.902599599833721 1.5403881436932201 #
point $-1 -38.778974049854241 19.372691690317723 1.5403881436932201 #
point $-1 -38.778974049854241 21.842783780801724 1.5403881436932201 #
straight-curve $-1 43.590197454756307 -14.482821822374412 61.725508382817722 0 0 -1 I I #
point $-1 43.590197454756307 -14.482821822374412 5.8196525476429359 #
straight-curve $-1 43.590197454756307 -4.8025504404547039 0.32828682727311076 0 1 0 I I #
point $-1 43.590197454756307 -14.482821822374412 0.32828682727310365 #
point $-1 39.3767978212245 -12.53173344578841 1.7812056936836544 #
point $-1 39.3767978212245 -9.6051008809094078 1.7812056936836544 #
point $-1 39.3767978212245 -6.6784683160304041 1.7812056936836544 #
straight-curve $-1 43.590197454756307 7.0729587389121455 61.725508382817722 0 0 -1 I I #
point $-1 43.590197454756307 7.0729587389121455 5.8196525476429359 #
straight-curve $-1 43.590197454756307 5.9753398401885747 0.32828682727311076 0 1 0 I I #
point $-1 43.590197454756307 7.0729587389121455 0.32828682727310365 #
point $-1 39.3767978212245 9.0240471154981492 1.7812056936836544 #
point $-1 39.3767978212245 11.950679680377149 1.7812056936836544 #
point $-1 39.3767978212245 14.877312245256149 1.7812056936836544 #
straight-curve $-1 -31.950892359470437 -27.356974400800077 0 0 0 -1 I I #
point $-1 -31.950892359470437 -27.356974400800077 5.8196525476429359 #
End-of-ACIS-data 