500 0 6 0           
7 Unknown 11 ACIS 5.0 NT 24 Fri Mar 26 02:15:16 1999 
-1 9.9999999999999995e-007 1e-010 
body $-1 $6 $-1 $7 #
body $-1 $8 $-1 $9 #
body $-1 $10 $-1 $11 #
body $-1 $12 $-1 $13 #
body $-1 $14 $-1 $15 #
body $-1 $16 $-1 $17 #
lump $-1 $-1 $18 $0 #
transform $-1 1 0 0 0 1 0 0 0 1 43.927121799371321 24.075258713289887 10.761384220227679 1 rotate no_reflect no_shear #
lump $-1 $-1 $19 $1 #
transform $-1 1 0 0 0 1 0 0 0 1 43.927121799371321 24.075258713289887 10.761384220227679 1 rotate no_reflect no_shear #
lump $-1 $-1 $20 $2 #
transform $-1 1 0 0 0 1 0 0 0 1 43.927121799371321 24.075258713289887 10.761384220227679 1 rotate no_reflect no_shear #
lump $-1 $-1 $21 $3 #
transform $-1 1 0 0 0 1 0 0 0 1 43.927121799371321 24.075258713289887 10.761384220227679 1 rotate no_reflect no_shear #
lump $-1 $-1 $22 $4 #
transform $-1 1 0 0 0 1 0 0 0 1 43.927121799371321 24.075258713289887 10.761384220227679 1 rotate no_reflect no_shear #
lump $-1 $-1 $23 $5 #
transform $-1 1 0 0 0 1 0 0 0 1 43.927121799371321 24.075258713289887 10.761384220227679 1 rotate no_reflect no_shear #
shell $-1 $-1 $-1 $24 $-1 $6 #
shell $-1 $-1 $-1 $25 $-1 $8 #
shell $-1 $-1 $-1 $26 $-1 $10 #
shell $-1 $-1 $-1 $27 $-1 $12 #
shell $-1 $-1 $-1 $28 $-1 $14 #
shell $-1 $-1 $-1 $29 $-1 $16 #
face $-1 $30 $31 $18 $-1 $32 forward single #
face $-1 $33 $34 $19 $-1 $35 forward single #
face $-1 $36 $37 $20 $-1 $38 reversed single #
face $-1 $39 $40 $21 $-1 $41 forward single #
face $-1 $42 $43 $22 $-1 $44 reversed single #
face $-1 $45 $46 $23 $-1 $47 forward single #
face $-1 $48 $49 $18 $-1 $50 reversed single #
loop $-1 $-1 $51 $24 #
plane-surface $-1 0 0 10.761384220227679 0 0 1 1 0 0 forward_v I I I I #
face $-1 $52 $53 $19 $-1 $54 forward single #
loop $-1 $-1 $55 $25 #
plane-surface $-1 0 -24.075258713289887 0 0 1 0 0 0 1 forward_v I I I I #
face $-1 $56 $57 $20 $-1 $58 reversed single #
loop $-1 $-1 $59 $26 #
plane-surface $-1 -89.175402897055932 16.302996918160588 80.6885615537348 0 1 0 -0.51503808176128008 0 0.85716729658548041 forward_v I I I I #
face $-1 $60 $61 $21 $-1 $62 forward single #
loop $-1 $63 $64 $27 #
cone-surface $-1 -39.011668347245134 20.189127815725232 7.3402956822338012 0.51503808176128008 0 -0.85716729658548041 0.85716729658548041 0 0.51503808176128008 1 I I 0 1 1 forward I I I I #
face $-1 $65 $66 $22 $-1 $67 reversed single #
loop $-1 $-1 $68 $28 #
plane-surface $-1 13.869618417959472 16.302996918160588 125.93684265141943 0 1 0 0.51503808176128008 0 0.85716729658548041 forward_v I I I I #
face $-1 $69 $70 $23 $-1 $71 forward single #
loop $-1 $72 $73 $29 #
cone-surface $-1 39.011668347245148 20.189127815725232 7.3402956822338012 -0.51503808176128008 0 -0.85716729658548041 0.85716729658548041 0 -0.51503808176128008 1 I I 0 1 1 forward I I I I #
face $-1 $74 $75 $18 $-1 $76 reversed single #
loop $-1 $-1 $77 $30 #
plane-surface $-1 0 0 -10.761384220227679 0 0 1 1 0 0 forward_v I I I I #
coedge $-1 $78 $79 $80 $81 forward $31 $-1 #
face $-1 $82 $83 $19 $-1 $84 reversed single #
loop $-1 $-1 $85 $33 #
plane-surface $-1 0 0 10.761384220227679 0 0 1 1 0 0 forward_v I I I I #
coedge $-1 $86 $87 $88 $89 forward $34 $-1 #
face $-1 $90 $91 $20 $-1 $92 reversed single #
loop $-1 $-1 $93 $36 #
plane-surface $-1 -43.927121799371299 20.189127815725239 5.3827770746383266 -0.51503808176128008 0 0.85716729658548041 0.85716729658548041 0 0.51503808176128008 forward_v I I I I #
coedge $-1 $94 $95 $96 $97 reversed $37 $-1 #
face $-1 $-1 $98 $21 $-1 $99 forward single #
loop $-1 $100 $101 $39 #
cone-surface $-1 -38.314448531219071 20.189127815725232 6.1799270687418613 0.51503808176128008 0 -0.85716729658548041 0.4285836482927402 0 0.25751904088064004 1 I I -0.70710678118654746 0.70710678118654746 0.5 forward I I I I #
loop $-1 $-1 $102 $27 #
coedge $-1 $64 $64 $103 $104 reversed $40 $-1 #
face $-1 $105 $106 $22 $-1 $107 reversed single #
loop $-1 $-1 $108 $42 #
plane-surface $-1 -31.37866267972516 20.189127815725239 50.631058172322952 0.51503808176128008 0 0.85716729658548041 0.85716729658548041 0 -0.51503808176128008 forward_v I I I I #
coedge $-1 $109 $110 $111 $112 reversed $43 $-1 #
face $-1 $-1 $113 $23 $-1 $114 forward single #
loop $-1 $115 $116 $45 #
cone-surface $-1 38.314448531219085 20.189127815725232 6.1799270687418613 -0.51503808176128008 0 -0.85716729658548041 0.4285836482927402 0 -0.25751904088064004 1 I I -0.70710678118654746 0.70710678118654746 0.5 forward I I I I #
loop $-1 $-1 $117 $29 #
coedge $-1 $73 $73 $118 $119 reversed $46 $-1 #
face $-1 $120 $121 $18 $-1 $122 reversed single #
loop $-1 $-1 $123 $48 #
plane-surface $-1 0 -24.075258713289887 0 0 1 0 0 0 1 forward_v I I I I #
coedge $-1 $124 $125 $126 $127 forward $49 $-1 #
coedge $-1 $128 $51 $129 $130 forward $31 $-1 #
coedge $-1 $51 $128 $131 $132 forward $31 $-1 #
coedge $-1 $133 $134 $51 $81 reversed $135 $-1 #
edge $-1 $136 -24.075258713289887 $137 24.075258713289887 $80 $138 forward 7 unknown #
face $-1 $139 $140 $19 $-1 $141 reversed single #
loop $-1 $-1 $142 $52 #
plane-surface $-1 -43.927121799371321 0 0 1 0 0 0 0 -1 forward_v I I I I #
coedge $-1 $143 $144 $87 $145 forward $53 $-1 #
coedge $-1 $146 $55 $147 $148 reversed $34 $-1 #
coedge $-1 $55 $146 $85 $145 reversed $34 $-1 #
coedge $-1 $149 $150 $55 $89 reversed $151 $-1 #
edge $-1 $152 -10.761384220227679 $153 10.761384220227679 $88 $154 forward 7 unknown #
face $-1 $155 $156 $20 $-1 $157 reversed single #
loop $-1 $-1 $158 $56 #
plane-surface $-1 0 24.075258713289887 0 0 -1 0 0 0 -1 forward_v I I I I #
coedge $-1 $159 $160 $161 $162 reversed $57 $-1 #
coedge $-1 $95 $59 $163 $164 reversed $37 $-1 #
coedge $-1 $59 $94 $159 $165 reversed $37 $-1 #
coedge $-1 $161 $166 $59 $97 forward $167 $-1 #
edge $-1 $168 0.66057964915664513 $169 9.6120850031181959 $96 $170 forward 7 unknown #
loop $-1 $-1 $103 $60 #
plane-surface $-1 -43.927121799371299 20.189127815725239 5.3827770746383266 -0.51503808176128008 0 0.85716729658548041 0.85716729658548041 0 0.51503808176128008 forward_v I I I I #
loop $-1 $-1 $171 $39 #
coedge $-1 $101 $101 $102 $172 reversed $61 $-1 #
coedge $-1 $102 $102 $101 $172 forward $63 $-1 #
coedge $-1 $103 $103 $64 $104 forward $98 $-1 #
edge $-1 $173 0 $173 6.2831853071796004 $103 $174 forward 7 unknown #
face $-1 $175 $176 $22 $-1 $177 reversed single #
loop $-1 $-1 $111 $65 #
plane-surface $-1 43.927121799371321 0 0 -1 0 0 0 0 1 forward_v I I I I #
coedge $-1 $178 $179 $180 $181 reversed $66 $-1 #
coedge $-1 $110 $68 $182 $183 reversed $43 $-1 #
coedge $-1 $68 $109 $178 $184 reversed $43 $-1 #
coedge $-1 $180 $185 $68 $112 forward $106 $-1 #
edge $-1 $186 52.20703710548203 $187 57.585644251071393 $111 $188 forward 7 unknown #
loop $-1 $-1 $118 $69 #
plane-surface $-1 -31.37866267972516 20.189127815725239 50.631058172322952 0.51503808176128008 0 0.85716729658548041 0.85716729658548041 0 -0.51503808176128008 forward_v I I I I #
loop $-1 $-1 $189 $45 #
coedge $-1 $116 $116 $117 $190 reversed $70 $-1 #
coedge $-1 $117 $117 $116 $190 forward $72 $-1 #
coedge $-1 $118 $118 $73 $119 forward $113 $-1 #
edge $-1 $191 0 $191 6.2831853071796004 $118 $192 forward 7 unknown #
face $-1 $193 $194 $18 $-1 $195 reversed single #
loop $-1 $-1 $196 $74 #
plane-surface $-1 -43.927121799371321 0 0 1 0 0 0 0 -1 forward_v I I I I #
coedge $-1 $197 $131 $198 $199 forward $75 $-1 #
coedge $-1 $200 $77 $197 $201 forward $49 $-1 #
coedge $-1 $77 $200 $202 $203 forward $49 $-1 #
coedge $-1 $134 $133 $77 $127 reversed $135 $-1 #
edge $-1 $204 -24.075258713289887 $205 24.075258713289887 $126 $206 forward 7 unknown #
coedge $-1 $79 $78 $207 $208 forward $31 $-1 #
coedge $-1 $209 $210 $78 $130 reversed $194 $-1 #
edge $-1 $137 -43.927121799371321 $211 43.927121799371321 $129 $212 forward 7 unknown #
coedge $-1 $123 $213 $79 $132 reversed $75 $-1 #
edge $-1 $214 -43.927121799371321 $136 43.927121799371321 $131 $215 forward 7 unknown #
coedge $-1 $126 $80 $213 $216 forward $135 $-1 #
coedge $-1 $80 $126 $209 $217 reversed $135 $-1 #
loop $-1 $-1 $133 $193 #
vertex $-1 $81 $218 #
vertex $-1 $81 $219 #
straight-curve $-1 43.927121799371321 0 10.761384220227679 0 1 0 I I #
face $-1 $220 $151 $19 $-1 $221 reversed single #
loop $-1 $-1 $222 $82 #
plane-surface $-1 -42.044314719194823 -35.964658800879462 0 0 1 0 0 0 1 forward_v I I I I #
coedge $-1 $223 $224 $146 $225 forward $83 $-1 #
coedge $-1 $226 $85 $224 $227 forward $53 $-1 #
coedge $-1 $85 $226 $149 $228 forward $53 $-1 #
edge $-1 $152 40.161507639018325 $229 43.927121799371321 $85 $230 forward 7 unknown #
coedge $-1 $87 $86 $142 $225 reversed $34 $-1 #
coedge $-1 $231 $232 $86 $148 forward $233 $-1 #
edge $-1 $234 -43.927121799371321 $153 -40.161507639018325 $147 $235 forward 7 unknown #
coedge $-1 $236 $88 $144 $228 reversed $151 $-1 #
coedge $-1 $88 $236 $231 $237 reversed $151 $-1 #
loop $-1 $-1 $236 $139 #
vertex $-1 $145 $238 #
vertex $-1 $237 $239 #
straight-curve $-1 -40.161507639018325 -24.075258713289887 0 0 0 -1 I I #
face $-1 $-1 $167 $20 $-1 $240 forward single #
loop $-1 $-1 $241 $90 #
plane-surface $-1 -43.927121799371321 0 0 1 0 0 0 0 -1 forward_v I I I I #
coedge $-1 $242 $243 $160 $244 forward $91 $-1 #
coedge $-1 $245 $93 $95 $165 forward $57 $-1 #
coedge $-1 $93 $245 $158 $244 reversed $57 $-1 #
coedge $-1 $246 $96 $93 $162 forward $167 $-1 #
edge $-1 $169 6.2084330102979681 $247 13.980694805427271 $161 $248 forward 7 unknown #
coedge $-1 $249 $241 $94 $164 forward $156 $-1 #
edge $-1 $250 -34.961503702229088 $168 -29.582896556639721 $163 $251 forward 7 unknown #
edge $-1 $169 -10.443125151437512 $250 2.4675859811215743e-014 $95 $252 forward 7 unknown #
coedge $-1 $96 $246 $249 $253 forward $167 $-1 #
loop $-1 $-1 $161 $155 #
vertex $-1 $164 $254 #
vertex $-1 $97 $255 #
straight-curve $-1 -44.587701448527966 16.302996918160588 10.761384220227676 1 0 0 I I #
coedge $-1 $171 $171 $-1 $256 reversed $100 $-1 #
edge $-1 $257 0 $257 6.2831853071796004 $101 $258 forward 7 unknown #
vertex $-1 $104 $259 #
ellipse-curve $-1 -39.451369122390552 20.189127815725232 8.072080647432994 -0.51503808176128008 0 0.85716729658548041 0.85716729658548041 0 0.51503808176128008 1 I I #
face $-1 $-1 $260 $22 $-1 $261 forward single #
loop $-1 $-1 $262 $105 #
plane-surface $-1 0 24.075258713289887 0 0 -1 0 0 0 -1 forward_v I I I I #
coedge $-1 $263 $108 $110 $184 forward $66 $-1 #
coedge $-1 $108 $263 $262 $264 reversed $66 $-1 #
coedge $-1 $265 $111 $108 $181 forward $106 $-1 #
edge $-1 $187 6.2084330102979681 $266 13.980694805427268 $180 $267 forward 7 unknown #
coedge $-1 $268 $269 $109 $183 forward $260 $-1 #
edge $-1 $270 28.040807236430041 $186 36.992312590391585 $182 $271 forward 7 unknown #
edge $-1 $187 -87.854243598742642 $270 -77.411118447305114 $110 $272 forward 7 unknown #
coedge $-1 $111 $265 $268 $273 reversed $106 $-1 #
vertex $-1 $273 $274 #
vertex $-1 $112 $275 #
straight-curve $-1 43.927121799371321 16.302996918160588 62.968421325709713 0 0 -1 I I #
coedge $-1 $189 $189 $-1 $276 reversed $115 $-1 #
edge $-1 $277 0 $277 6.2831853071796004 $116 $278 forward 7 unknown #
vertex $-1 $119 $279 #
ellipse-curve $-1 39.451369122390567 20.189127815725232 8.072080647432994 0.51503808176128008 0 0.85716729658548041 0.85716729658548041 0 -0.51503808176128008 1 I I #
face $-1 $-1 $135 $18 $-1 $280 reversed single #
loop $-1 $-1 $209 $120 #
plane-surface $-1 0 24.075258713289887 0 0 -1 0 0 0 -1 forward_v I I I I #
coedge $-1 $281 $207 $210 $282 forward $121 $-1 #
coedge $-1 $213 $123 $124 $201 reversed $75 $-1 #
coedge $-1 $207 $281 $123 $199 reversed $121 $-1 #
edge $-1 $214 -10.761384220227679 $283 10.761384220227679 $198 $284 forward 7 unknown #
coedge $-1 $125 $124 $281 $285 forward $49 $-1 #
edge $-1 $205 -43.927121799371321 $283 43.927121799371321 $197 $286 forward 7 unknown #
coedge $-1 $210 $209 $125 $203 reversed $194 $-1 #
edge $-1 $287 -43.927121799371321 $204 43.927121799371321 $202 $288 forward 7 unknown #
vertex $-1 $127 $289 #
vertex $-1 $216 $290 #
straight-curve $-1 43.927121799371321 0 -10.761384220227679 0 -1 0 I I #
coedge $-1 $196 $198 $128 $208 reversed $121 $-1 #
edge $-1 $211 -24.075258713289887 $214 24.075258713289887 $207 $291 forward 7 unknown #
coedge $-1 $202 $129 $134 $217 forward $194 $-1 #
coedge $-1 $129 $202 $196 $282 reversed $194 $-1 #
vertex $-1 $130 $292 #
straight-curve $-1 0 24.075258713289887 10.761384220227679 -1 0 0 I I #
coedge $-1 $131 $197 $133 $216 reversed $75 $-1 #
vertex $-1 $208 $293 #
straight-curve $-1 0 -24.075258713289887 10.761384220227679 1 0 0 I I #
edge $-1 $136 -10.761384220227679 $205 10.761384220227679 $133 $294 forward 7 unknown #
edge $-1 $137 -10.761384220227679 $204 10.761384220227679 $134 $295 forward 7 unknown #
point $-1 43.927121799371321 -24.075258713289887 10.761384220227679 #
point $-1 43.927121799371321 24.075258713289887 10.761384220227679 #
face $-1 $-1 $233 $19 $-1 $296 reversed single #
plane-surface $-1 -40.161507639018325 -30.019958757084673 0 -1 0 0 0 0 1 forward_v I I I I #
coedge $-1 $297 $298 $299 $300 forward $140 $-1 #
coedge $-1 $299 $142 $232 $301 reversed $83 $-1 #
coedge $-1 $142 $299 $143 $227 reversed $83 $-1 #
edge $-1 $229 -10.761384220227679 $234 10.761384220227679 $142 $302 forward 7 unknown #
coedge $-1 $144 $143 $298 $303 forward $53 $-1 #
edge $-1 $229 24.075258713289887 $304 35.964658800879462 $224 $305 forward 7 unknown #
edge $-1 $306 -5.9447000437947892 $152 5.9447000437947857 $149 $307 forward 7 unknown #
vertex $-1 $227 $308 #
straight-curve $-1 0 -24.075258713289887 10.761384220227679 -1 0 0 I I #
coedge $-1 $309 $147 $150 $237 forward $233 $-1 #
coedge $-1 $147 $309 $223 $301 forward $233 $-1 #
loop $-1 $-1 $147 $220 #
vertex $-1 $225 $310 #
straight-curve $-1 0 -24.075258713289887 -10.761384220227679 1 0 0 I I #
coedge $-1 $150 $149 $311 $312 forward $151 $-1 #
edge $-1 $153 -5.9447000437947857 $313 5.9447000437947892 $150 $314 forward 7 unknown #
point $-1 -40.161507639018325 -24.075258713289887 10.761384220227679 #
point $-1 -40.161507639018325 -24.075258713289887 -10.761384220227679 #
plane-surface $-1 0 0 10.761384220227679 0 0 1 1 0 0 forward_v I I I I #
coedge $-1 $163 $315 $245 $316 forward $156 $-1 #
coedge $-1 $243 $158 $315 $317 reversed $91 $-1 #
coedge $-1 $158 $242 $246 $318 reversed $91 $-1 #
edge $-1 $247 6.9971533788014391 $319 17.440278530238977 $158 $320 forward 7 unknown #
coedge $-1 $160 $159 $241 $316 reversed $57 $-1 #
coedge $-1 $166 $161 $243 $318 forward $167 $-1 #
vertex $-1 $318 $321 #
straight-curve $-1 -34.97561644540977 10.09456390786262 10.761384220227679 0 1 0 I I #
coedge $-1 $315 $163 $166 $253 reversed $156 $-1 #
vertex $-1 $164 $322 #
straight-curve $-1 -43.927121799371321 16.302996918160588 40.3442807768674 0 0 1 I I #
straight-curve $-1 -43.927121799371299 16.302996918160588 5.3827770746383266 -0.85716729658548041 0 -0.51503808176128008 I I #
edge $-1 $323 -24.075258713289887 $168 -16.302996918160588 $249 $324 forward 7 unknown #
point $-1 -43.927121799371321 16.302996918160588 10.761384220227679 #
point $-1 -34.97561644540977 16.302996918160588 10.761384220227679 #
edge $-1 $325 1 $325 0 $171 $-1 forward 7 unknown #
vertex $-1 $172 $326 #
ellipse-curve $-1 -38.571967572099709 20.189127815725232 6.6085107170346014 -0.51503808176128008 0 0.85716729658548041 0.85716729658548041 0 0.51503808176128008 1 I I #
point $-1 -38.594201825805072 20.189127815725232 8.5871187291942839 #
loop $-1 $-1 $182 $175 #
plane-surface $-1 0 0 10.761384220227679 0 0 1 1 0 0 forward_v I I I I #
coedge $-1 $327 $328 $179 $264 forward $176 $-1 #
coedge $-1 $179 $178 $269 $329 reversed $66 $-1 #
edge $-1 $266 -61.367400329610284 $330 -50.924275178172749 $262 $331 forward 7 unknown #
coedge $-1 $185 $180 $328 $332 reversed $106 $-1 #
vertex $-1 $264 $333 #
straight-curve $-1 43.927121799371321 10.09456390786262 5.3827770746383194 0 1 0 I I #
coedge $-1 $334 $182 $185 $273 forward $260 $-1 #
coedge $-1 $182 $334 $263 $329 forward $260 $-1 #
vertex $-1 $183 $335 #
straight-curve $-1 6.9348092089797362 16.302996918160588 10.761384220227683 1 0 0 I I #
straight-curve $-1 -31.37866267972516 16.302996918160588 50.631058172322952 -0.85716729658548041 0 0.51503808176128008 I I #
edge $-1 $186 16.302996918160588 $336 24.075258713289887 $185 $337 forward 7 unknown #
point $-1 43.927121799371321 16.302996918160588 10.761384220227679 #
point $-1 43.927121799371314 16.302996918160588 5.3827770746383194 #
edge $-1 $338 1 $338 0 $189 $-1 forward 7 unknown #
vertex $-1 $190 $339 #
ellipse-curve $-1 38.571967572099723 20.189127815725232 6.6085107170346014 0.51503808176128008 0 0.85716729658548041 0.85716729658548041 0 -0.51503808176128008 1 I I #
point $-1 40.308536418976047 20.189127815725232 7.5570425656717228 #
plane-surface $-1 43.927121799371321 0 0 -1 0 0 0 0 1 forward_v I I I I #
coedge $-1 $198 $196 $200 $285 reversed $121 $-1 #
edge $-1 $211 -10.761384220227679 $287 10.761384220227679 $210 $340 forward 7 unknown #
vertex $-1 $285 $341 #
straight-curve $-1 -43.927121799371321 -24.075258713289887 0 0 0 -1 I I #
edge $-1 $283 -24.075258713289887 $287 24.075258713289887 $281 $342 forward 7 unknown #
straight-curve $-1 0 -24.075258713289887 -10.761384220227679 -1 0 0 I I #
vertex $-1 $203 $343 #
straight-curve $-1 0 24.075258713289887 -10.761384220227679 1 0 0 I I #
point $-1 43.927121799371321 24.075258713289887 -10.761384220227679 #
point $-1 43.927121799371321 -24.075258713289887 -10.761384220227679 #
straight-curve $-1 -43.927121799371321 0 10.761384220227679 0 -1 0 I I #
point $-1 -43.927121799371321 24.075258713289887 10.761384220227679 #
point $-1 -43.927121799371321 -24.075258713289887 10.761384220227679 #
straight-curve $-1 43.927121799371321 -24.075258713289887 0 0 0 -1 I I #
straight-curve $-1 43.927121799371321 24.075258713289887 0 0 0 -1 I I #
plane-surface $-1 0 0 -10.761384220227679 0 0 1 1 0 0 forward_v I I I I #
coedge $-1 $311 $222 $309 $344 reversed $140 $-1 #
coedge $-1 $222 $311 $226 $303 reversed $140 $-1 #
coedge $-1 $224 $223 $222 $300 reversed $83 $-1 #
edge $-1 $304 -10.761384220227679 $345 10.761384220227679 $299 $346 forward 7 unknown #
edge $-1 $345 -35.964658800879462 $234 -24.075258713289887 $223 $347 forward 7 unknown #
straight-curve $-1 -43.927121799371321 -24.075258713289887 0 0 0 -1 I I #
edge $-1 $304 -1.882807080176498 $306 1.882807080176498 $298 $348 forward 7 unknown #
vertex $-1 $227 $349 #
straight-curve $-1 -43.927121799371321 0 10.761384220227679 0 -1 0 I I #
vertex $-1 $228 $350 #
straight-curve $-1 -40.161507639018325 -30.019958757084673 10.761384220227679 0 1 0 I I #
point $-1 -43.927121799371321 -24.075258713289887 10.761384220227679 #
coedge $-1 $232 $231 $297 $344 forward $233 $-1 #
point $-1 -43.927121799371321 -24.075258713289887 -10.761384220227679 #
coedge $-1 $298 $297 $236 $312 reversed $140 $-1 #
edge $-1 $306 -10.761384220227679 $313 10.761384220227679 $236 $351 forward 7 unknown #
vertex $-1 $312 $352 #
straight-curve $-1 -40.161507639018325 -30.019958757084673 -10.761384220227679 0 -1 0 I I #
coedge $-1 $241 $249 $242 $317 forward $156 $-1 #
edge $-1 $319 -13.980694805427271 $250 -6.2084330102979681 $241 $353 forward 7 unknown #
edge $-1 $323 -10.761384220227679 $319 -5.3827770746383141 $242 $354 forward 7 unknown #
edge $-1 $247 34.97561644540977 $323 43.927121799371321 $243 $355 forward 7 unknown #
vertex $-1 $316 $356 #
straight-curve $-1 -28.97788539990858 24.075258713289887 14.365184674235032 -0.85716729658548041 0 -0.51503808176128008 I I #
point $-1 -34.97561644540977 24.075258713289891 10.761384220227679 #
point $-1 -43.927121799371321 16.302996918160588 5.3827770746383141 #
vertex $-1 $318 $357 #
straight-curve $-1 -43.927121799371321 0 10.761384220227679 0 -1 0 I I #
vertex $-1 $256 $358 #
point $-1 -37.714800275514229 20.189127815725232 7.1235487987958814 #
coedge $-1 $328 $262 $334 $359 reversed $176 $-1 #
coedge $-1 $262 $327 $265 $332 forward $176 $-1 #
edge $-1 $330 -13.980694805427271 $270 -6.2084330102979681 $269 $360 forward 7 unknown #
vertex $-1 $264 $361 #
straight-curve $-1 -8.6750068396396465 24.075258713289887 36.989325223077344 -0.85716729658548041 0 0.51503808176128008 I I #
edge $-1 $336 -10.761384220227679 $266 -5.3827770746383257 $265 $362 forward 7 unknown #
point $-1 43.927121799371321 24.075258713289887 5.3827770746383257 #
coedge $-1 $269 $268 $327 $359 forward $260 $-1 #
point $-1 34.975616445409777 16.302996918160588 10.761384220227683 #
vertex $-1 $273 $363 #
straight-curve $-1 43.927121799371321 0 10.761384220227679 0 1 0 I I #
vertex $-1 $276 $364 #
point $-1 39.429134868685203 20.189127815725232 6.0934726352733213 #
straight-curve $-1 -43.927121799371321 24.075258713289887 0 0 0 -1 I I #
point $-1 -43.927121799371321 -24.075258713289887 -10.761384220227679 #
straight-curve $-1 -43.927121799371321 0 -10.761384220227679 0 1 0 I I #
point $-1 -43.927121799371321 24.075258713289887 -10.761384220227679 #
edge $-1 $313 -1.882807080176498 $345 1.882807080176498 $297 $365 forward 7 unknown #
vertex $-1 $301 $366 #
straight-curve $-1 -43.927121799371321 -35.964658800879462 0 0 0 -1 I I #
straight-curve $-1 -43.927121799371321 0 -10.761384220227679 0 1 0 I I #
straight-curve $-1 -42.044314719194823 -35.964658800879462 10.761384220227679 1 0 0 I I #
point $-1 -43.927121799371321 -35.964658800879462 10.761384220227679 #
point $-1 -40.161507639018325 -35.964658800879462 10.761384220227679 #
straight-curve $-1 -40.161507639018325 -35.964658800879462 0 0 0 -1 I I #
point $-1 -40.161507639018325 -35.964658800879462 -10.761384220227679 #
straight-curve $-1 -43.927121799371321 10.09456390786262 5.3827770746383141 0 -1 0 I I #
straight-curve $-1 -43.927121799371321 24.075258713289887 0 0 0 -1 I I #
straight-curve $-1 0 24.075258713289887 10.761384220227679 -1 0 0 I I #
point $-1 -43.927121799371321 24.075258713289891 5.3827770746383141 #
point $-1 -43.927121799371321 24.075258713289887 10.761384220227679 #
point $-1 -38.056929490338433 20.189127815725232 5.7513434204491212 #
edge $-1 $336 -43.927121799371321 $330 -34.975616445409777 $327 $367 forward 7 unknown #
straight-curve $-1 34.975616445409784 10.09456390786262 10.761384220227676 0 -1 0 I I #
point $-1 34.975616445409777 24.075258713289891 10.761384220227683 #
straight-curve $-1 43.927121799371321 24.075258713289887 0 0 0 -1 I I #
point $-1 43.927121799371321 24.075258713289887 10.761384220227679 #
point $-1 38.056929490338447 20.189127815725232 5.7513434204491212 #
straight-curve $-1 -42.044314719194823 -35.964658800879462 -10.761384220227679 -1 0 0 I I #
point $-1 -43.927121799371321 -35.964658800879462 -10.761384220227679 #
straight-curve $-1 0 24.075258713289887 10.761384220227679 -1 0 0 I I #
End-of-ACIS-data 