500 0 4 0           
7 Unknown 11 ACIS 5.0 NT 24 Fri Mar 26 15:40:12 1999 
-1 9.9999999999999995e-007 1e-010 
body $-1 $4 $-1 $5 #
body $-1 $6 $-1 $7 #
body $-1 $8 $-1 $9 #
body $-1 $10 $-1 $11 #
lump $-1 $-1 $12 $0 #
transform $-1 1 0 0 0 1 0 0 0 1 53.48185674611652 32.331656969282292 11.252584894662075 1 rotate no_reflect no_shear #
lump $-1 $-1 $13 $1 #
transform $-1 1 0 0 0 1 0 0 0 1 53.48185674611652 32.331656969282292 11.252584894662075 1 rotate no_reflect no_shear #
lump $-1 $-1 $14 $2 #
transform $-1 1 0 0 0 1 0 0 0 1 53.48185674611652 32.331656969282292 11.252584894662075 1 rotate no_reflect no_shear #
lump $-1 $-1 $15 $3 #
transform $-1 1 0 0 0 1 0 0 0 1 53.48185674611652 32.331656969282292 11.252584894662075 1 rotate no_reflect no_shear #
shell $-1 $-1 $-1 $16 $-1 $4 #
shell $-1 $-1 $-1 $17 $-1 $6 #
shell $-1 $-1 $-1 $18 $-1 $8 #
shell $-1 $-1 $-1 $19 $-1 $10 #
face $-1 $20 $21 $12 $-1 $22 forward single #
face $-1 $23 $24 $13 $-1 $25 forward single #
face $-1 $26 $27 $14 $-1 $28 forward single #
face $-1 $29 $30 $15 $-1 $31 reversed single #
face $-1 $32 $33 $12 $-1 $34 reversed single #
loop $-1 $-1 $35 $16 #
plane-surface $-1 0 0 11.252584894662075 0 0 1 1 0 0 forward_v I I I I #
face $-1 $36 $37 $13 $-1 $38 reversed single #
loop $-1 $-1 $39 $17 #
plane-surface $-1 -59.425012121285192 0 -3.5388415159270341 0 0 1 1 0 0 forward_v I I I I #
face $-1 $40 $41 $14 $-1 $42 forward single #
loop $-1 $-1 $43 $18 #
plane-surface $-1 17.195581037239382 -117.75667773036739 71.813219648500407 -1 0 0 0 -0.79863551827123203 0.60181501223851219 forward_v I I I I #
face $-1 $44 $45 $15 $-1 $46 reversed single #
loop $-1 $47 $48 $19 #
cone-surface $-1 3.3053780648710926 -30.468380124261451 9.0248726865041853 0 0.79863551827123203 -0.60181501223851219 1 0 0 1 I I 0 1 1 forward I I I I #
face $-1 $49 $50 $12 $-1 $51 reversed single #
loop $-1 $-1 $52 $20 #
plane-surface $-1 0 0 -11.252584894662075 0 0 1 1 0 0 forward_v I I I I #
coedge $-1 $53 $54 $55 $56 forward $21 $-1 #
face $-1 $57 $58 $13 $-1 $59 reversed single #
loop $-1 $-1 $60 $23 #
plane-surface $-1 -59.425012121285192 0 -8.7977860198448798 0 0 1 1 0 0 forward_v I I I I #
coedge $-1 $61 $62 $63 $64 reversed $24 $-1 #
face $-1 $65 $66 $14 $-1 $67 forward single #
loop $-1 $-1 $68 $26 #
plane-surface $-1 3.3053780648710926 -32.331656969282278 7.4408511040954721 0 -0.79863551827123203 0.60181501223851219 1 0 0 forward_v I I I I #
coedge $-1 $69 $70 $71 $72 reversed $27 $-1 #
face $-1 $73 $74 $15 $-1 $75 forward single #
loop $-1 $76 $77 $29 #
cone-surface $-1 3.3053780648710926 -29.641959197169477 8.4021198675103435 0 0.79863551827123203 -0.60181501223851219 0.5 0 0 1 I I -0.70710678118654746 0.70710678118654746 0.5 forward I I I I #
loop $-1 $-1 $78 $19 #
coedge $-1 $48 $48 $79 $80 reversed $30 $-1 #
face $-1 $81 $82 $12 $-1 $83 reversed single #
loop $-1 $-1 $84 $32 #
plane-surface $-1 0 -32.331656969282292 0 0 1 0 0 0 1 forward_v I I I I #
coedge $-1 $85 $86 $87 $88 forward $33 $-1 #
coedge $-1 $89 $35 $90 $91 forward $21 $-1 #
coedge $-1 $35 $89 $92 $93 forward $21 $-1 #
coedge $-1 $94 $95 $35 $56 reversed $96 $-1 #
edge $-1 $97 -32.331656969282292 $98 32.331656969282292 $55 $99 forward 7 unknown #
face $-1 $100 $101 $13 $-1 $102 reversed single #
loop $-1 $-1 $103 $36 #
plane-surface $-1 -65.368167496453864 0 -6.168313767885957 1 0 0 0 0 -1 forward_v I I I I #
coedge $-1 $104 $105 $106 $107 reversed $37 $-1 #
coedge $-1 $108 $39 $109 $110 forward $24 $-1 #
coedge $-1 $39 $108 $111 $112 forward $24 $-1 #
coedge $-1 $113 $114 $39 $64 forward $115 $-1 #
edge $-1 $116 -32.331656969282292 $117 32.331656969282292 $63 $118 forward 7 unknown #
face $-1 $119 $120 $14 $-1 $121 forward single #
loop $-1 $-1 $122 $40 #
plane-surface $-1 -10.584824907497197 -117.75667773036739 71.813219648500407 1 0 0 0 0.79863551827123203 -0.60181501223851219 forward_v I I I I #
coedge $-1 $123 $124 $125 $126 reversed $41 $-1 #
coedge $-1 $70 $43 $124 $127 forward $27 $-1 #
coedge $-1 $43 $69 $128 $129 reversed $27 $-1 #
coedge $-1 $130 $125 $43 $72 forward $120 $-1 #
edge $-1 $131 -29.419029250030384 $132 -26.546681895901401 $71 $133 forward 7 unknown #
face $-1 $134 $135 $15 $-1 $136 forward single #
loop $-1 $-1 $137 $44 #
plane-surface $-1 17.195581037239382 -117.75667773036739 71.813219648500407 -1 0 0 0 -0.79863551827123203 0.60181501223851219 forward_v I I I I #
loop $-1 $-1 $138 $29 #
coedge $-1 $77 $77 $78 $139 forward $45 $-1 #
coedge $-1 $78 $78 $77 $139 reversed $47 $-1 #
coedge $-1 $79 $79 $48 $80 forward $135 $-1 #
edge $-1 $140 -2.1179085691199468e-015 $140 6.2831853071795987 $79 $141 forward 7 unknown #
face $-1 $142 $143 $12 $-1 $144 reversed single #
loop $-1 $-1 $145 $49 #
plane-surface $-1 -53.48185674611652 0 0 1 0 0 0 0 -1 forward_v I I I I #
coedge $-1 $146 $92 $147 $148 forward $50 $-1 #
coedge $-1 $149 $52 $146 $150 forward $33 $-1 #
coedge $-1 $52 $149 $151 $152 forward $33 $-1 #
coedge $-1 $95 $94 $52 $88 reversed $96 $-1 #
edge $-1 $153 -32.331656969282292 $154 32.331656969282292 $87 $155 forward 7 unknown #
coedge $-1 $54 $53 $156 $157 forward $21 $-1 #
coedge $-1 $158 $159 $53 $91 reversed $143 $-1 #
edge $-1 $98 -53.48185674611652 $160 53.48185674611652 $90 $161 forward 7 unknown #
coedge $-1 $84 $162 $54 $93 reversed $50 $-1 #
edge $-1 $163 -53.48185674611652 $97 53.48185674611652 $92 $164 forward 7 unknown #
coedge $-1 $87 $55 $162 $165 forward $96 $-1 #
coedge $-1 $55 $87 $158 $166 reversed $96 $-1 #
loop $-1 $-1 $94 $142 #
vertex $-1 $56 $167 #
vertex $-1 $56 $168 #
straight-curve $-1 53.48185674611652 0 11.252584894662075 0 1 0 I I #
face $-1 $169 $115 $13 $-1 $102 reversed single #
loop $-1 $-1 $106 $57 #
plane-surface $-1 -53.48185674611652 0 0 1 0 0 0 0 -1 forward_v I I I I #
coedge $-1 $170 $171 $172 $173 forward $58 $-1 #
coedge $-1 $174 $60 $175 $176 forward $37 $-1 #
coedge $-1 $60 $174 $177 $178 forward $37 $-1 #
coedge $-1 $179 $180 $60 $107 forward $101 $-1 #
edge $-1 $181 -32.331656969282292 $182 32.331656969282292 $106 $183 forward 7 unknown #
coedge $-1 $62 $61 $171 $184 forward $24 $-1 #
coedge $-1 $185 $172 $61 $110 reversed $186 $-1 #
edge $-1 $116 -5.9431553751686721 $187 5.9431553751686721 $109 $188 forward 7 unknown #
coedge $-1 $189 $190 $62 $112 reversed $191 $-1 #
edge $-1 $192 -5.9431553751686721 $117 5.9431553751686721 $111 $193 forward 7 unknown #
coedge $-1 $194 $63 $190 $195 reversed $115 $-1 #
coedge $-1 $63 $194 $185 $196 forward $115 $-1 #
loop $-1 $-1 $63 $100 #
vertex $-1 $196 $197 #
vertex $-1 $112 $198 #
straight-curve $-1 -53.48185674611652 0 -3.5388415159270341 0 -1 0 I I #
face $-1 $199 $200 $14 $-1 $201 forward single #
loop $-1 $-1 $202 $65 #
plane-surface $-1 0 0 11.252584894662075 0 0 1 1 0 0 forward_v I I I I #
coedge $-1 $203 $204 $202 $205 reversed $66 $-1 #
coedge $-1 $206 $68 $204 $207 reversed $41 $-1 #
coedge $-1 $68 $206 $69 $127 reversed $41 $-1 #
coedge $-1 $71 $202 $68 $126 forward $120 $-1 #
edge $-1 $208 -12.237513939932743 $131 15.542892004803836 $125 $209 forward 7 unknown #
edge $-1 $131 -4.7728077494195107 $210 2.3448253187574213e-014 $69 $211 forward 7 unknown #
coedge $-1 $212 $213 $70 $129 forward $214 $-1 #
edge $-1 $132 24.654024929588129 $210 28.465758720154749 $128 $215 forward 7 unknown #
coedge $-1 $216 $71 $213 $217 forward $120 $-1 #
vertex $-1 $126 $218 #
vertex $-1 $217 $219 #
straight-curve $-1 17.195581037239382 -58.878338865183693 11.252584894662075 0 -1 0 I I #
face $-1 $220 $221 $15 $-1 $222 forward single #
loop $-1 $223 $79 $73 #
plane-surface $-1 3.3053780648710926 -32.331656969282278 7.4408511040954721 0 -0.79863551827123203 0.60181501223851219 1 0 0 forward_v I I I I #
coedge $-1 $224 $225 $226 $227 reversed $74 $-1 #
coedge $-1 $138 $138 $-1 $228 forward $76 $-1 #
edge $-1 $229 0 $229 6.2831853071796004 $77 $230 forward 7 unknown #
vertex $-1 $80 $231 #
ellipse-curve $-1 3.3053780648710926 -30.895483292217801 9.3467179993787664 0 0.79863551827123203 -0.60181501223851219 1 0 0 1 I I #
face $-1 $-1 $96 $12 $-1 $232 reversed single #
loop $-1 $-1 $158 $81 #
plane-surface $-1 0 32.331656969282292 0 0 -1 0 0 0 -1 forward_v I I I I #
coedge $-1 $233 $156 $159 $234 forward $82 $-1 #
coedge $-1 $162 $84 $85 $150 reversed $50 $-1 #
coedge $-1 $156 $233 $84 $148 reversed $82 $-1 #
edge $-1 $163 -11.252584894662075 $235 11.252584894662075 $147 $236 forward 7 unknown #
coedge $-1 $86 $85 $233 $237 forward $33 $-1 #
edge $-1 $154 -53.48185674611652 $235 53.48185674611652 $146 $238 forward 7 unknown #
coedge $-1 $159 $158 $86 $152 reversed $143 $-1 #
edge $-1 $239 -53.48185674611652 $153 53.48185674611652 $151 $240 forward 7 unknown #
vertex $-1 $88 $241 #
vertex $-1 $165 $242 #
straight-curve $-1 53.48185674611652 0 -11.252584894662075 0 -1 0 I I #
coedge $-1 $145 $147 $89 $157 reversed $82 $-1 #
edge $-1 $160 -32.331656969282292 $163 32.331656969282292 $156 $243 forward 7 unknown #
coedge $-1 $151 $90 $95 $166 forward $143 $-1 #
coedge $-1 $90 $151 $145 $234 reversed $143 $-1 #
vertex $-1 $91 $244 #
straight-curve $-1 0 32.331656969282292 11.252584894662075 -1 0 0 I I #
coedge $-1 $92 $146 $94 $165 reversed $50 $-1 #
vertex $-1 $157 $245 #
straight-curve $-1 0 -32.331656969282292 11.252584894662075 1 0 0 I I #
edge $-1 $97 -11.252584894662075 $154 11.252584894662075 $94 $246 forward 7 unknown #
edge $-1 $98 -11.252584894662075 $153 11.252584894662075 $95 $247 forward 7 unknown #
point $-1 53.48185674611652 -32.331656969282292 11.252584894662075 #
point $-1 53.48185674611652 32.331656969282292 11.252584894662075 #
face $-1 $248 $249 $13 $-1 $250 forward single #
coedge $-1 $251 $103 $174 $252 reversed $58 $-1 #
coedge $-1 $103 $251 $108 $184 reversed $58 $-1 #
coedge $-1 $109 $177 $103 $173 reversed $186 $-1 #
edge $-1 $187 -2.6294722519589229 $253 2.6294722519589229 $172 $254 forward 7 unknown #
coedge $-1 $105 $104 $170 $252 forward $37 $-1 #
coedge $-1 $255 $189 $104 $176 reversed $191 $-1 #
edge $-1 $181 -5.9431553751686721 $256 5.9431553751686721 $175 $257 forward 7 unknown #
coedge $-1 $172 $258 $105 $178 reversed $186 $-1 #
edge $-1 $253 -5.9431553751686721 $182 5.9431553751686721 $177 $259 forward 7 unknown #
coedge $-1 $260 $106 $258 $261 forward $101 $-1 #
coedge $-1 $106 $260 $255 $262 reversed $101 $-1 #
vertex $-1 $262 $263 #
vertex $-1 $261 $264 #
straight-curve $-1 -53.48185674611652 0 -8.7977860198448798 0 1 0 I I #
edge $-1 $187 -32.331656969282292 $192 32.331656969282292 $171 $265 forward 7 unknown #
coedge $-1 $266 $109 $114 $196 reversed $186 $-1 #
loop $-1 $-1 $267 $268 #
vertex $-1 $110 $269 #
straight-curve $-1 -59.425012121285192 32.331656969282292 -3.5388415159270341 -1 0 0 I I #
coedge $-1 $175 $111 $251 $270 forward $191 $-1 #
coedge $-1 $111 $271 $113 $195 forward $191 $-1 #
loop $-1 $-1 $190 $272 #
vertex $-1 $184 $273 #
straight-curve $-1 -59.425012121285192 -32.331656969282292 -3.5388415159270341 1 0 0 I I #
coedge $-1 $114 $113 $274 $275 reversed $115 $-1 #
edge $-1 $276 -11.252584894662075 $117 3.5388415159270341 $113 $277 forward 7 unknown #
edge $-1 $278 -11.252584894662075 $116 3.5388415159270341 $185 $279 forward 7 unknown #
point $-1 -53.48185674611652 32.331656969282292 -3.5388415159270341 #
point $-1 -53.48185674611652 -32.331656969282292 -3.5388415159270341 #
face $-1 $280 $281 $14 $-1 $282 reversed single #
loop $-1 $-1 $283 $119 #
plane-surface $-1 -59.425012121285192 0 -3.5388415159270341 0 0 1 1 0 0 forward_v I I I I #
coedge $-1 $125 $284 $122 $205 forward $120 $-1 #
coedge $-1 $204 $122 $285 $286 reversed $66 $-1 #
coedge $-1 $122 $203 $123 $207 forward $66 $-1 #
edge $-1 $287 26.546681895901401 $208 29.419029250030384 $202 $288 forward 7 unknown #
coedge $-1 $124 $123 $212 $289 reversed $41 $-1 #
edge $-1 $290 -2.3448253187574213e-014 $208 4.7728077494195107 $204 $291 forward 7 unknown #
vertex $-1 $126 $292 #
straight-curve $-1 1.6526890324355463 -29.459309615153312 11.252584894662075 1 0 0 I I #
vertex $-1 $289 $293 #
straight-curve $-1 17.195581037239382 -32.331656969282278 7.4408511040954721 0 -0.60181501223851219 -0.79863551827123203 I I #
coedge $-1 $285 $128 $206 $289 forward $214 $-1 #
coedge $-1 $128 $294 $130 $217 reversed $214 $-1 #
loop $-1 $-1 $285 $295 #
straight-curve $-1 17.195581037239382 -32.331656969282292 35.906609824250204 0 0 -1 I I #
coedge $-1 $296 $130 $297 $298 forward $120 $-1 #
edge $-1 $132 17.195581037239382 $299 53.48185674611652 $213 $300 forward 7 unknown #
point $-1 17.195581037239382 -29.459309615153309 11.252584894662075 #
point $-1 17.195581037239382 -32.331656969282292 11.252584894662075 #
face $-1 $301 $302 $15 $-1 $303 forward single #
loop $-1 $-1 $304 $134 #
plane-surface $-1 -10.584824907497197 -117.75667773036739 71.813219648500407 1 0 0 0 0.79863551827123203 -0.60181501223851219 forward_v I I I I #
loop $-1 $-1 $305 $73 #
coedge $-1 $225 $137 $306 $307 forward $74 $-1 #
coedge $-1 $137 $224 $308 $309 reversed $74 $-1 #
coedge $-1 $310 $311 $137 $227 forward $302 $-1 #
edge $-1 $312 -29.419029250030384 $313 -26.546681895901401 $226 $314 forward 7 unknown #
edge $-1 $315 1 $315 0 $138 $-1 forward 7 unknown #
vertex $-1 $139 $316 #
ellipse-curve $-1 3.3053780648710926 -30.041276956305094 8.7030273736295989 0 -0.79863551827123203 0.60181501223851219 1 0 0 1 I I #
point $-1 4.3053780648710926 -30.895483292217804 9.3467179993787717 #
plane-surface $-1 53.48185674611652 0 0 -1 0 0 0 0 1 forward_v I I I I #
coedge $-1 $147 $145 $149 $237 reversed $82 $-1 #
edge $-1 $160 -11.252584894662075 $239 11.252584894662075 $159 $317 forward 7 unknown #
vertex $-1 $237 $318 #
straight-curve $-1 -53.48185674611652 -32.331656969282292 0 0 0 -1 I I #
edge $-1 $235 -32.331656969282292 $239 32.331656969282292 $233 $319 forward 7 unknown #
straight-curve $-1 0 -32.331656969282292 -11.252584894662075 -1 0 0 I I #
vertex $-1 $152 $320 #
straight-curve $-1 0 32.331656969282292 -11.252584894662075 1 0 0 I I #
point $-1 53.48185674611652 32.331656969282292 -11.252584894662075 #
point $-1 53.48185674611652 -32.331656969282292 -11.252584894662075 #
straight-curve $-1 -53.48185674611652 0 11.252584894662075 0 -1 0 I I #
point $-1 -53.48185674611652 32.331656969282292 11.252584894662075 #
point $-1 -53.48185674611652 -32.331656969282292 11.252584894662075 #
straight-curve $-1 53.48185674611652 -32.331656969282292 0 0 0 -1 I I #
straight-curve $-1 53.48185674611652 32.331656969282292 0 0 0 -1 I I #
face $-1 $272 $321 $13 $-1 $322 reversed single #
loop $-1 $-1 $323 $169 #
plane-surface $-1 0 0 11.252584894662075 0 0 1 1 0 0 forward_v I I I I #
coedge $-1 $171 $170 $189 $270 reversed $58 $-1 #
edge $-1 $256 -32.331656969282292 $253 32.331656969282292 $170 $324 forward 7 unknown #
vertex $-1 $178 $325 #
straight-curve $-1 -65.368167496453864 32.331656969282292 -6.168313767885957 0 0 -1 I I #
coedge $-1 $326 $175 $180 $262 forward $191 $-1 #
vertex $-1 $252 $327 #
straight-curve $-1 -59.425012121285192 -32.331656969282292 -8.7977860198448798 -1 0 0 I I #
coedge $-1 $177 $328 $179 $261 reversed $186 $-1 #
straight-curve $-1 -59.425012121285192 32.331656969282292 -8.7977860198448798 1 0 0 I I #
coedge $-1 $180 $179 $329 $330 reversed $101 $-1 #
edge $-1 $182 8.7977860198448798 $331 11.252584894662075 $258 $279 forward 7 unknown #
edge $-1 $181 8.7977860198448798 $332 11.252584894662075 $180 $277 forward 7 unknown #
point $-1 -53.48185674611652 -32.331656969282292 -8.7977860198448798 #
point $-1 -53.48185674611652 32.331656969282292 -8.7977860198448798 #
straight-curve $-1 -65.368167496453864 0 -3.5388415159270341 0 -1 0 I I #
coedge $-1 $267 $185 $333 $334 reversed $186 $-1 #
coedge $-1 $328 $266 $335 $336 forward $186 $-1 #
face $-1 $337 $186 $13 $-1 $338 reversed single #
point $-1 -65.368167496453864 32.331656969282292 -3.5388415159270341 #
edge $-1 $192 -2.6294722519589229 $256 2.6294722519589229 $251 $339 forward 7 unknown #
coedge $-1 $190 $340 $341 $342 reversed $191 $-1 #
face $-1 $268 $191 $13 $-1 $343 reversed single #
point $-1 -65.368167496453864 -32.331656969282292 -3.5388415159270341 #
coedge $-1 $341 $333 $194 $275 forward $249 $-1 #
edge $-1 $278 -32.331656969282292 $276 32.331656969282292 $194 $344 forward 7 unknown #
vertex $-1 $275 $345 #
straight-curve $-1 -53.48185674611652 -32.331656969282292 0 0 0 -1 I I #
vertex $-1 $334 $346 #
straight-curve $-1 -53.48185674611652 32.331656969282292 0 0 0 -1 I I #
face $-1 $347 $348 $14 $-1 $349 reversed single #
loop $-1 $-1 $350 $199 #
plane-surface $-1 -59.425012121285192 0 -8.7977860198448798 0 0 1 1 0 0 forward_v I I I I #
coedge $-1 $351 $352 $353 $354 reversed $200 $-1 #
coedge $-1 $202 $355 $356 $357 forward $120 $-1 #
coedge $-1 $356 $212 $203 $286 forward $214 $-1 #
edge $-1 $290 -28.465758720154749 $287 -24.654024929588129 $285 $358 forward 7 unknown #
vertex $-1 $286 $359 #
straight-curve $-1 -10.584824907497197 -58.878338865183693 11.252584894662075 0 1 0 I I #
edge $-1 $210 -15.542892004803836 $290 12.237513939932743 $212 $360 forward 7 unknown #
vertex $-1 $289 $361 #
straight-curve $-1 -10.584824907497197 -32.331656969282278 7.4408511040954721 0 0.60181501223851219 0.79863551827123203 I I #
point $-1 -10.584824907497197 -29.459309615153309 11.252584894662075 #
point $-1 17.195581037239382 -32.331656969282292 7.4408511040954535 #
coedge $-1 $213 $362 $363 $364 reversed $214 $-1 #
face $-1 $365 $214 $14 $-1 $366 reversed single #
coedge $-1 $355 $216 $367 $368 forward $120 $-1 #
coedge $-1 $363 $369 $216 $298 reversed $370 $-1 #
edge $-1 $299 -32.331656969282292 $371 32.331656969282292 $297 $372 forward 7 unknown #
vertex $-1 $298 $373 #
straight-curve $-1 0 -32.331656969282292 11.252584894662075 1 0 0 I I #
face $-1 $374 $375 $15 $-1 $376 forward single #
loop $-1 $-1 $377 $220 #
plane-surface $-1 0 0 11.252584894662075 0 0 1 1 0 0 forward_v I I I I #
coedge $-1 $378 $379 $377 $380 reversed $221 $-1 #
coedge $-1 $381 $306 $311 $382 reversed $223 $-1 #
coedge $-1 $305 $383 $224 $307 reversed $223 $-1 #
edge $-1 $312 -4.7728077494195107 $384 2.3448253187574213e-014 $224 $385 forward 7 unknown #
coedge $-1 $386 $387 $225 $309 forward $388 $-1 #
edge $-1 $313 24.654024929588129 $384 28.465758720154749 $308 $389 forward 7 unknown #
coedge $-1 $390 $226 $387 $391 forward $302 $-1 #
coedge $-1 $226 $377 $305 $382 forward $302 $-1 #
vertex $-1 $382 $392 #
vertex $-1 $391 $393 #
straight-curve $-1 17.195581037239382 -58.878338865183693 11.252584894662075 0 -1 0 I I #
vertex $-1 $228 $394 #
point $-1 4.3053780648710926 -30.041276956305094 8.7030273736295989 #
straight-curve $-1 -53.48185674611652 32.331656969282292 0 0 0 -1 I I #
point $-1 -53.48185674611652 -32.331656969282292 -11.252584894662075 #
straight-curve $-1 -53.48185674611652 0 -11.252584894662075 0 1 0 I I #
point $-1 -53.48185674611652 32.331656969282292 -11.252584894662075 #
loop $-1 $-1 $395 $248 #
plane-surface $-1 0 0 -11.252584894662075 0 0 1 1 0 0 forward_v I I I I #
coedge $-1 $333 $341 $396 $397 forward $249 $-1 #
straight-curve $-1 -65.368167496453864 0 -8.7977860198448798 0 1 0 I I #
point $-1 -65.368167496453864 32.331656969282292 -8.7977860198448798 #
coedge $-1 $340 $255 $398 $399 reversed $191 $-1 #
point $-1 -65.368167496453864 -32.331656969282292 -8.7977860198448798 #
coedge $-1 $258 $267 $400 $401 reversed $186 $-1 #
coedge $-1 $400 $398 $260 $330 forward $321 $-1 #
edge $-1 $332 -32.331656969282292 $331 32.331656969282292 $260 $402 forward 7 unknown #
vertex $-1 $401 $403 #
vertex $-1 $330 $404 #
coedge $-1 $274 $323 $266 $334 forward $249 $-1 #
edge $-1 $405 -53.48185674611652 $278 53.48185674611652 $266 $406 forward 7 unknown #
coedge $-1 $396 $407 $267 $336 reversed $408 $-1 #
edge $-1 $405 -11.252584894662075 $409 11.252584894662075 $335 $410 forward 7 unknown #
face $-1 $-1 $408 $13 $-1 $411 reversed single #
plane-surface $-1 0 32.331656969282292 0 0 -1 0 0 0 -1 forward_v I I I I #
straight-curve $-1 -65.368167496453864 -32.331656969282292 -6.168313767885957 0 0 -1 I I #
coedge $-1 $271 $326 $412 $413 reversed $191 $-1 #
coedge $-1 $323 $274 $271 $342 forward $249 $-1 #
edge $-1 $276 -53.48185674611652 $414 53.48185674611652 $271 $415 forward 7 unknown #
plane-surface $-1 0 -32.331656969282292 0 0 1 0 0 0 1 forward_v I I I I #
straight-curve $-1 -53.48185674611652 0 11.252584894662075 0 -1 0 I I #
point $-1 -53.48185674611652 -32.331656969282292 11.252584894662075 #
point $-1 -53.48185674611652 32.331656969282292 11.252584894662075 #
face $-1 $416 $417 $14 $-1 $418 reversed single #
loop $-1 $-1 $419 $280 #
plane-surface $-1 -65.368167496453864 0 -6.168313767885957 1 0 0 0 0 -1 forward_v I I I I #
coedge $-1 $420 $421 $422 $423 reversed $281 $-1 #
coedge $-1 $424 $283 $425 $426 forward $200 $-1 #
coedge $-1 $283 $424 $427 $428 forward $200 $-1 #
coedge $-1 $429 $430 $283 $354 forward $431 $-1 #
edge $-1 $432 -32.331656969282292 $433 32.331656969282292 $353 $434 forward 7 unknown #
coedge $-1 $284 $296 $435 $436 forward $120 $-1 #
coedge $-1 $437 $285 $284 $357 reversed $214 $-1 #
edge $-1 $438 -53.48185674611652 $287 -10.584824907497197 $356 $300 forward 7 unknown #
straight-curve $-1 -10.584824907497197 -32.331656969282292 35.906609824250204 0 0 1 I I #
point $-1 -10.584824907497197 -32.331656969282292 11.252584894662075 #
straight-curve $-1 1.6526890324355463 -32.331656969282292 7.4408511040954544 -1 0 0 I I #
point $-1 -10.584824907497197 -32.331656969282292 7.4408511040954535 #
coedge $-1 $294 $439 $440 $441 reversed $214 $-1 #
coedge $-1 $442 $297 $294 $364 forward $370 $-1 #
edge $-1 $299 -11.252584894662075 $443 11.252584894662075 $363 $444 forward 7 unknown #
face $-1 $445 $446 $14 $-1 $447 reversed single #
plane-surface $-1 0 -32.331656969282292 0 0 1 0 0 0 1 forward_v I I I I #
coedge $-1 $448 $449 $296 $368 reversed $446 $-1 #
edge $-1 $371 -53.48185674611652 $450 53.48185674611652 $367 $451 forward 7 unknown #
coedge $-1 $297 $442 $448 $452 reversed $370 $-1 #
loop $-1 $-1 $363 $445 #
vertex $-1 $298 $453 #
straight-curve $-1 53.48185674611652 0 11.252584894662075 0 1 0 I I #
point $-1 53.48185674611652 -32.331656969282292 11.252584894662075 #
face $-1 $454 $455 $15 $-1 $456 reversed single #
loop $-1 $-1 $457 $301 #
plane-surface $-1 -59.425012121285192 0 -3.5388415159270341 0 0 1 1 0 0 forward_v I I I I #
coedge $-1 $311 $458 $304 $380 forward $302 $-1 #
coedge $-1 $379 $304 $459 $460 reversed $221 $-1 #
coedge $-1 $304 $378 $381 $461 forward $221 $-1 #
edge $-1 $462 26.546681895901401 $463 29.419029250030384 $377 $464 forward 7 unknown #
coedge $-1 $383 $305 $379 $461 reversed $223 $-1 #
edge $-1 $463 -12.237513939932743 $312 15.542892004803836 $311 $465 forward 7 unknown #
coedge $-1 $306 $381 $386 $466 reversed $223 $-1 #
vertex $-1 $466 $467 #
straight-curve $-1 17.195581037239382 -32.331656969282278 7.4408511040954721 0 -0.60181501223851219 -0.79863551827123203 I I #
coedge $-1 $459 $308 $383 $466 forward $388 $-1 #
coedge $-1 $308 $468 $310 $391 reversed $388 $-1 #
loop $-1 $-1 $459 $469 #
straight-curve $-1 17.195581037239382 -32.331656969282292 35.906609824250204 0 0 -1 I I #
coedge $-1 $470 $310 $471 $472 forward $302 $-1 #
edge $-1 $313 17.195581037239382 $473 53.48185674611652 $387 $474 forward 7 unknown #
point $-1 17.195581037239382 -29.459309615153309 11.252584894662075 #
point $-1 17.195581037239382 -32.331656969282292 11.252584894662075 #
point $-1 3.3053780648710926 -29.242641438033861 8.101212361391088 #
coedge $-1 $398 $400 $407 $475 forward $321 $-1 #
coedge $-1 $412 $335 $323 $397 reversed $408 $-1 #
edge $-1 $414 -32.331656969282292 $405 32.331656969282292 $396 $476 forward 7 unknown #
coedge $-1 $329 $395 $326 $399 forward $321 $-1 #
edge $-1 $477 -53.48185674611652 $332 53.48185674611652 $326 $478 forward 7 unknown #
coedge $-1 $395 $329 $328 $401 forward $321 $-1 #
edge $-1 $331 -53.48185674611652 $409 53.48185674611652 $328 $479 forward 7 unknown #
straight-curve $-1 -53.48185674611652 0 -11.252584894662075 0 1 0 I I #
point $-1 -53.48185674611652 32.331656969282292 -11.252584894662075 #
point $-1 -53.48185674611652 -32.331656969282292 -11.252584894662075 #
vertex $-1 $397 $480 #
straight-curve $-1 0 32.331656969282292 11.252584894662075 -1 0 0 I I #
coedge $-1 $335 $412 $395 $475 reversed $408 $-1 #
loop $-1 $-1 $412 $337 #
vertex $-1 $475 $481 #
straight-curve $-1 53.48185674611652 32.331656969282292 0 0 0 -1 I I #
plane-surface $-1 53.48185674611652 0 0 -1 0 0 0 0 1 forward_v I I I I #
coedge $-1 $407 $396 $340 $413 forward $408 $-1 #
edge $-1 $414 -11.252584894662075 $477 11.252584894662075 $412 $482 forward 7 unknown #
vertex $-1 $397 $483 #
straight-curve $-1 0 -32.331656969282292 11.252584894662075 1 0 0 I I #
face $-1 $484 $431 $14 $-1 $418 reversed single #
loop $-1 $-1 $422 $347 #
plane-surface $-1 -53.48185674611652 0 0 1 0 0 0 0 -1 forward_v I I I I #
coedge $-1 $485 $486 $487 $488 forward $348 $-1 #
coedge $-1 $489 $350 $490 $491 forward $281 $-1 #
coedge $-1 $350 $489 $492 $493 forward $281 $-1 #
coedge $-1 $494 $495 $350 $423 forward $417 $-1 #
edge $-1 $496 -32.331656969282292 $497 32.331656969282292 $422 $498 forward 7 unknown #
coedge $-1 $352 $351 $486 $499 forward $200 $-1 #
coedge $-1 $449 $487 $351 $426 reversed $446 $-1 #
edge $-1 $432 -5.9431553751686721 $500 5.9431553751686721 $425 $501 forward 7 unknown #
coedge $-1 $502 $437 $352 $428 reversed $214 $-1 #
edge $-1 $503 -5.9431553751686721 $433 5.9431553751686721 $427 $504 forward 7 unknown #
coedge $-1 $435 $353 $437 $505 reversed $431 $-1 #
coedge $-1 $353 $435 $449 $506 forward $431 $-1 #
loop $-1 $-1 $353 $416 #
vertex $-1 $506 $507 #
vertex $-1 $428 $508 #
straight-curve $-1 -53.48185674611652 0 -3.5388415159270341 0 -1 0 I I #
coedge $-1 $430 $429 $355 $436 reversed $431 $-1 #
edge $-1 $450 -32.331656969282292 $438 32.331656969282292 $435 $509 forward 7 unknown #
coedge $-1 $427 $356 $429 $505 forward $214 $-1 #
vertex $-1 $436 $510 #
coedge $-1 $362 $490 $495 $511 forward $214 $-1 #
coedge $-1 $512 $513 $362 $441 forward $514 $-1 #
edge $-1 $443 -53.48185674611652 $515 53.48185674611652 $362 $516 forward 7 unknown #
coedge $-1 $369 $363 $513 $517 reversed $370 $-1 #
vertex $-1 $364 $518 #
straight-curve $-1 53.48185674611652 -32.331656969282292 0 0 0 -1 I I #
face $-1 $-1 $370 $14 $-1 $519 reversed single #
loop $-1 $-1 $448 $365 #
plane-surface $-1 0 32.331656969282292 0 0 -1 0 0 0 -1 forward_v I I I I #
coedge $-1 $520 $367 $369 $452 forward $446 $-1 #
coedge $-1 $367 $425 $430 $506 reversed $446 $-1 #
vertex $-1 $368 $521 #
straight-curve $-1 0 32.331656969282292 11.252584894662075 -1 0 0 I I #
edge $-1 $371 -11.252584894662075 $522 11.252584894662075 $369 $523 forward 7 unknown #
point $-1 53.48185674611652 32.331656969282292 11.252584894662075 #
face $-1 $524 $525 $15 $-1 $526 reversed single #
loop $-1 $-1 $527 $374 #
plane-surface $-1 -59.425012121285192 0 -8.7977860198448798 0 0 1 1 0 0 forward_v I I I I #
coedge $-1 $528 $529 $530 $531 reversed $375 $-1 #
coedge $-1 $377 $532 $533 $534 forward $302 $-1 #
coedge $-1 $533 $386 $378 $460 forward $388 $-1 #
edge $-1 $535 -28.465758720154749 $462 -24.654024929588129 $459 $536 forward 7 unknown #
edge $-1 $535 -2.3448253187574213e-014 $463 4.7728077494195107 $379 $537 forward 7 unknown #
vertex $-1 $460 $538 #
vertex $-1 $382 $539 #
straight-curve $-1 -10.584824907497197 -58.878338865183693 11.252584894662075 0 1 0 I I #
straight-curve $-1 1.6526890324355463 -29.459309615153312 11.252584894662075 1 0 0 I I #
edge $-1 $384 -15.542892004803836 $535 12.237513939932743 $386 $540 forward 7 unknown #
point $-1 17.195581037239382 -32.331656969282292 7.4408511040954535 #
coedge $-1 $387 $541 $542 $543 reversed $388 $-1 #
face $-1 $544 $388 $15 $-1 $545 reversed single #
coedge $-1 $532 $390 $546 $547 forward $302 $-1 #
coedge $-1 $542 $548 $390 $472 reversed $549 $-1 #
edge $-1 $473 -32.331656969282292 $550 32.331656969282292 $471 $551 forward 7 unknown #
vertex $-1 $472 $552 #
straight-curve $-1 0 -32.331656969282292 11.252584894662075 1 0 0 I I #
edge $-1 $409 -32.331656969282292 $477 32.331656969282292 $407 $553 forward 7 unknown #
straight-curve $-1 53.48185674611652 0 11.252584894662075 0 1 0 I I #
vertex $-1 $413 $554 #
straight-curve $-1 0 -32.331656969282292 -11.252584894662075 -1 0 0 I I #
straight-curve $-1 0 32.331656969282292 -11.252584894662075 1 0 0 I I #
point $-1 53.48185674611652 32.331656969282292 11.252584894662075 #
point $-1 53.48185674611652 32.331656969282292 -11.252584894662075 #
straight-curve $-1 53.48185674611652 -32.331656969282292 0 0 0 -1 I I #
point $-1 53.48185674611652 -32.331656969282292 11.252584894662075 #
face $-1 $295 $514 $14 $-1 $555 reversed single #
coedge $-1 $556 $419 $489 $557 reversed $348 $-1 #
coedge $-1 $419 $556 $424 $499 reversed $348 $-1 #
coedge $-1 $425 $492 $419 $488 reversed $446 $-1 #
edge $-1 $500 -2.6294722519589229 $558 2.6294722519589229 $487 $559 forward 7 unknown #
coedge $-1 $421 $420 $485 $557 forward $281 $-1 #
coedge $-1 $439 $502 $420 $491 reversed $214 $-1 #
edge $-1 $496 -5.9431553751686721 $560 5.9431553751686721 $490 $561 forward 7 unknown #
coedge $-1 $487 $562 $421 $493 reversed $446 $-1 #
edge $-1 $558 -5.9431553751686721 $497 5.9431553751686721 $492 $563 forward 7 unknown #
coedge $-1 $564 $422 $562 $565 forward $417 $-1 #
coedge $-1 $422 $564 $439 $511 reversed $417 $-1 #
vertex $-1 $511 $566 #
vertex $-1 $565 $567 #
straight-curve $-1 -53.48185674611652 0 -8.7977860198448798 0 1 0 I I #
edge $-1 $500 -32.331656969282292 $503 32.331656969282292 $486 $568 forward 7 unknown #
vertex $-1 $426 $569 #
straight-curve $-1 -59.425012121285192 32.331656969282292 -3.5388415159270341 -1 0 0 I I #
coedge $-1 $490 $427 $556 $570 forward $214 $-1 #
vertex $-1 $499 $571 #
straight-curve $-1 -59.425012121285192 -32.331656969282292 -3.5388415159270341 1 0 0 I I #
edge $-1 $438 -11.252584894662075 $433 3.5388415159270341 $429 $572 forward 7 unknown #
edge $-1 $450 -11.252584894662075 $432 3.5388415159270341 $449 $573 forward 7 unknown #
point $-1 -53.48185674611652 32.331656969282292 -3.5388415159270341 #
point $-1 -53.48185674611652 -32.331656969282292 -3.5388415159270341 #
straight-curve $-1 -53.48185674611652 0 11.252584894662075 0 -1 0 I I #
point $-1 -53.48185674611652 -32.331656969282292 11.252584894662075 #
edge $-1 $496 8.7977860198448798 $515 11.252584894662075 $495 $572 forward 7 unknown #
coedge $-1 $574 $440 $564 $575 forward $514 $-1 #
coedge $-1 $440 $574 $442 $517 forward $514 $-1 #
loop $-1 $-1 $513 $484 #
vertex $-1 $575 $576 #
straight-curve $-1 0 -32.331656969282292 -11.252584894662075 -1 0 0 I I #
edge $-1 $522 -32.331656969282292 $443 32.331656969282292 $442 $577 forward 7 unknown #
point $-1 53.48185674611652 -32.331656969282292 -11.252584894662075 #
plane-surface $-1 53.48185674611652 0 0 -1 0 0 0 0 1 forward_v I I I I #
coedge $-1 $562 $448 $574 $578 reversed $446 $-1 #
point $-1 -53.48185674611652 32.331656969282292 11.252584894662075 #
vertex $-1 $517 $579 #
straight-curve $-1 53.48185674611652 32.331656969282292 0 0 0 -1 I I #
face $-1 $580 $581 $15 $-1 $582 reversed single #
loop $-1 $-1 $583 $454 #
plane-surface $-1 -65.368167496453864 0 -6.168313767885957 1 0 0 0 0 -1 forward_v I I I I #
coedge $-1 $584 $585 $586 $587 reversed $455 $-1 #
coedge $-1 $588 $457 $589 $590 forward $375 $-1 #
coedge $-1 $457 $588 $591 $592 forward $375 $-1 #
coedge $-1 $593 $594 $457 $531 forward $595 $-1 #
edge $-1 $596 -32.331656969282292 $597 32.331656969282292 $530 $598 forward 7 unknown #
coedge $-1 $458 $470 $599 $600 forward $302 $-1 #
coedge $-1 $601 $459 $458 $534 reversed $388 $-1 #
edge $-1 $602 -53.48185674611652 $462 -10.584824907497197 $533 $474 forward 7 unknown #
vertex $-1 $466 $603 #
straight-curve $-1 -10.584824907497197 -32.331656969282292 35.906609824250204 0 0 1 I I #
straight-curve $-1 -10.584824907497197 -32.331656969282278 7.4408511040954721 0 0.60181501223851219 0.79863551827123203 I I #
point $-1 -10.584824907497197 -32.331656969282292 11.252584894662075 #
point $-1 -10.584824907497197 -29.459309615153309 11.252584894662075 #
straight-curve $-1 1.6526890324355463 -32.331656969282292 7.4408511040954544 -1 0 0 I I #
coedge $-1 $468 $604 $605 $606 reversed $388 $-1 #
coedge $-1 $607 $471 $468 $543 forward $549 $-1 #
edge $-1 $473 -11.252584894662075 $608 11.252584894662075 $542 $609 forward 7 unknown #
face $-1 $610 $611 $15 $-1 $612 reversed single #
plane-surface $-1 0 -32.331656969282292 0 0 1 0 0 0 1 forward_v I I I I #
coedge $-1 $613 $614 $470 $547 reversed $611 $-1 #
edge $-1 $550 -53.48185674611652 $615 53.48185674611652 $546 $616 forward 7 unknown #
coedge $-1 $471 $607 $613 $617 reversed $549 $-1 #
loop $-1 $-1 $542 $610 #
vertex $-1 $472 $618 #
straight-curve $-1 53.48185674611652 0 11.252584894662075 0 1 0 I I #
point $-1 53.48185674611652 -32.331656969282292 11.252584894662075 #
straight-curve $-1 53.48185674611652 0 -11.252584894662075 0 -1 0 I I #
point $-1 53.48185674611652 -32.331656969282292 -11.252584894662075 #
plane-surface $-1 0 0 -11.252584894662075 0 0 1 1 0 0 forward_v I I I I #
coedge $-1 $486 $485 $502 $570 reversed $348 $-1 #
edge $-1 $560 -32.331656969282292 $558 32.331656969282292 $485 $619 forward 7 unknown #
vertex $-1 $493 $620 #
straight-curve $-1 -65.368167496453864 32.331656969282292 -6.168313767885957 0 0 -1 I I #
vertex $-1 $557 $621 #
straight-curve $-1 -59.425012121285192 -32.331656969282292 -8.7977860198448798 -1 0 0 I I #
coedge $-1 $492 $520 $494 $565 reversed $446 $-1 #
straight-curve $-1 -59.425012121285192 32.331656969282292 -8.7977860198448798 1 0 0 I I #
coedge $-1 $495 $494 $512 $575 reversed $417 $-1 #
edge $-1 $497 8.7977860198448798 $622 11.252584894662075 $562 $573 forward 7 unknown #
point $-1 -53.48185674611652 -32.331656969282292 -8.7977860198448798 #
point $-1 -53.48185674611652 32.331656969282292 -8.7977860198448798 #
straight-curve $-1 -65.368167496453864 0 -3.5388415159270341 0 -1 0 I I #
point $-1 -65.368167496453864 32.331656969282292 -3.5388415159270341 #
edge $-1 $503 -2.6294722519589229 $560 2.6294722519589229 $556 $623 forward 7 unknown #
point $-1 -65.368167496453864 -32.331656969282292 -3.5388415159270341 #
straight-curve $-1 -53.48185674611652 -32.331656969282292 0 0 0 -1 I I #
straight-curve $-1 -53.48185674611652 32.331656969282292 0 0 0 -1 I I #
coedge $-1 $513 $512 $520 $578 forward $514 $-1 #
edge $-1 $515 -32.331656969282292 $622 32.331656969282292 $564 $624 forward 7 unknown #
point $-1 -53.48185674611652 -32.331656969282292 -11.252584894662075 #
straight-curve $-1 53.48185674611652 0 -11.252584894662075 0 -1 0 I I #
edge $-1 $622 -53.48185674611652 $522 53.48185674611652 $520 $625 forward 7 unknown #
point $-1 53.48185674611652 32.331656969282292 -11.252584894662075 #
face $-1 $626 $595 $15 $-1 $582 reversed single #
loop $-1 $-1 $586 $524 #
plane-surface $-1 -53.48185674611652 0 0 1 0 0 0 0 -1 forward_v I I I I #
coedge $-1 $627 $628 $629 $630 forward $525 $-1 #
coedge $-1 $631 $527 $632 $633 forward $455 $-1 #
coedge $-1 $527 $631 $634 $635 forward $455 $-1 #
coedge $-1 $636 $637 $527 $587 forward $581 $-1 #
edge $-1 $638 -32.331656969282292 $639 32.331656969282292 $586 $640 forward 7 unknown #
coedge $-1 $529 $528 $628 $641 forward $375 $-1 #
coedge $-1 $614 $629 $528 $590 reversed $611 $-1 #
edge $-1 $596 -5.9431553751686721 $642 5.9431553751686721 $589 $643 forward 7 unknown #
coedge $-1 $644 $601 $529 $592 reversed $388 $-1 #
edge $-1 $645 -5.9431553751686721 $597 5.9431553751686721 $591 $646 forward 7 unknown #
coedge $-1 $599 $530 $601 $647 reversed $595 $-1 #
coedge $-1 $530 $599 $614 $648 forward $595 $-1 #
loop $-1 $-1 $530 $580 #
vertex $-1 $648 $649 #
vertex $-1 $592 $650 #
straight-curve $-1 -53.48185674611652 0 -3.5388415159270341 0 -1 0 I I #
coedge $-1 $594 $593 $532 $600 reversed $595 $-1 #
edge $-1 $615 -32.331656969282292 $602 32.331656969282292 $599 $651 forward 7 unknown #
coedge $-1 $591 $533 $593 $647 forward $388 $-1 #
vertex $-1 $600 $652 #
point $-1 -10.584824907497197 -32.331656969282292 7.4408511040954535 #
coedge $-1 $541 $632 $637 $653 forward $388 $-1 #
coedge $-1 $654 $655 $541 $606 forward $656 $-1 #
edge $-1 $608 -53.48185674611652 $657 53.48185674611652 $541 $658 forward 7 unknown #
coedge $-1 $548 $542 $655 $659 reversed $549 $-1 #
vertex $-1 $543 $660 #
straight-curve $-1 53.48185674611652 -32.331656969282292 0 0 0 -1 I I #
face $-1 $-1 $549 $15 $-1 $661 reversed single #
loop $-1 $-1 $613 $544 #
plane-surface $-1 0 32.331656969282292 0 0 -1 0 0 0 -1 forward_v I I I I #
coedge $-1 $662 $546 $548 $617 forward $611 $-1 #
coedge $-1 $546 $589 $594 $648 reversed $611 $-1 #
vertex $-1 $547 $663 #
straight-curve $-1 0 32.331656969282292 11.252584894662075 -1 0 0 I I #
edge $-1 $550 -11.252584894662075 $664 11.252584894662075 $548 $665 forward 7 unknown #
point $-1 53.48185674611652 32.331656969282292 11.252584894662075 #
straight-curve $-1 -65.368167496453864 0 -8.7977860198448798 0 1 0 I I #
point $-1 -65.368167496453864 32.331656969282292 -8.7977860198448798 #
point $-1 -65.368167496453864 -32.331656969282292 -8.7977860198448798 #
vertex $-1 $578 $666 #
straight-curve $-1 -65.368167496453864 -32.331656969282292 -6.168313767885957 0 0 -1 I I #
straight-curve $-1 -53.48185674611652 0 -11.252584894662075 0 1 0 I I #
straight-curve $-1 0 32.331656969282292 -11.252584894662075 1 0 0 I I #
face $-1 $469 $656 $15 $-1 $667 reversed single #
coedge $-1 $668 $583 $631 $669 reversed $525 $-1 #
coedge $-1 $583 $668 $588 $641 reversed $525 $-1 #
coedge $-1 $589 $634 $583 $630 reversed $611 $-1 #
edge $-1 $642 -2.6294722519589229 $670 2.6294722519589229 $629 $671 forward 7 unknown #
coedge $-1 $585 $584 $627 $669 forward $455 $-1 #
coedge $-1 $604 $644 $584 $633 reversed $388 $-1 #
edge $-1 $638 -5.9431553751686721 $672 5.9431553751686721 $632 $673 forward 7 unknown #
coedge $-1 $629 $674 $585 $635 reversed $611 $-1 #
edge $-1 $670 -5.9431553751686721 $639 5.9431553751686721 $634 $675 forward 7 unknown #
coedge $-1 $676 $586 $674 $677 forward $581 $-1 #
coedge $-1 $586 $676 $604 $653 reversed $581 $-1 #
vertex $-1 $653 $678 #
vertex $-1 $677 $679 #
straight-curve $-1 -53.48185674611652 0 -8.7977860198448798 0 1 0 I I #
edge $-1 $642 -32.331656969282292 $645 32.331656969282292 $628 $680 forward 7 unknown #
vertex $-1 $590 $681 #
straight-curve $-1 -59.425012121285192 32.331656969282292 -3.5388415159270341 -1 0 0 I I #
coedge $-1 $632 $591 $668 $682 forward $388 $-1 #
vertex $-1 $641 $683 #
straight-curve $-1 -59.425012121285192 -32.331656969282292 -3.5388415159270341 1 0 0 I I #
edge $-1 $602 -11.252584894662075 $597 3.5388415159270341 $593 $684 forward 7 unknown #
edge $-1 $615 -11.252584894662075 $596 3.5388415159270341 $614 $685 forward 7 unknown #
point $-1 -53.48185674611652 32.331656969282292 -3.5388415159270341 #
point $-1 -53.48185674611652 -32.331656969282292 -3.5388415159270341 #
straight-curve $-1 -53.48185674611652 0 11.252584894662075 0 -1 0 I I #
point $-1 -53.48185674611652 -32.331656969282292 11.252584894662075 #
edge $-1 $638 8.7977860198448798 $657 11.252584894662075 $637 $684 forward 7 unknown #
coedge $-1 $686 $605 $676 $687 forward $656 $-1 #
coedge $-1 $605 $686 $607 $659 forward $656 $-1 #
loop $-1 $-1 $655 $626 #
vertex $-1 $687 $688 #
straight-curve $-1 0 -32.331656969282292 -11.252584894662075 -1 0 0 I I #
edge $-1 $664 -32.331656969282292 $608 32.331656969282292 $607 $689 forward 7 unknown #
point $-1 53.48185674611652 -32.331656969282292 -11.252584894662075 #
plane-surface $-1 53.48185674611652 0 0 -1 0 0 0 0 1 forward_v I I I I #
coedge $-1 $674 $613 $686 $690 reversed $611 $-1 #
point $-1 -53.48185674611652 32.331656969282292 11.252584894662075 #
vertex $-1 $659 $691 #
straight-curve $-1 53.48185674611652 32.331656969282292 0 0 0 -1 I I #
point $-1 -53.48185674611652 32.331656969282292 -11.252584894662075 #
plane-surface $-1 0 0 -11.252584894662075 0 0 1 1 0 0 forward_v I I I I #
coedge $-1 $628 $627 $644 $682 reversed $525 $-1 #
edge $-1 $672 -32.331656969282292 $670 32.331656969282292 $627 $692 forward 7 unknown #
vertex $-1 $635 $693 #
straight-curve $-1 -65.368167496453864 32.331656969282292 -6.168313767885957 0 0 -1 I I #
vertex $-1 $669 $694 #
straight-curve $-1 -59.425012121285192 -32.331656969282292 -8.7977860198448798 -1 0 0 I I #
coedge $-1 $634 $662 $636 $677 reversed $611 $-1 #
straight-curve $-1 -59.425012121285192 32.331656969282292 -8.7977860198448798 1 0 0 I I #
coedge $-1 $637 $636 $654 $687 reversed $581 $-1 #
edge $-1 $639 8.7977860198448798 $695 11.252584894662075 $674 $685 forward 7 unknown #
point $-1 -53.48185674611652 -32.331656969282292 -8.7977860198448798 #
point $-1 -53.48185674611652 32.331656969282292 -8.7977860198448798 #
straight-curve $-1 -65.368167496453864 0 -3.5388415159270341 0 -1 0 I I #
point $-1 -65.368167496453864 32.331656969282292 -3.5388415159270341 #
edge $-1 $645 -2.6294722519589229 $672 2.6294722519589229 $668 $696 forward 7 unknown #
point $-1 -65.368167496453864 -32.331656969282292 -3.5388415159270341 #
straight-curve $-1 -53.48185674611652 -32.331656969282292 0 0 0 -1 I I #
straight-curve $-1 -53.48185674611652 32.331656969282292 0 0 0 -1 I I #
coedge $-1 $655 $654 $662 $690 forward $656 $-1 #
edge $-1 $657 -32.331656969282292 $695 32.331656969282292 $676 $697 forward 7 unknown #
point $-1 -53.48185674611652 -32.331656969282292 -11.252584894662075 #
straight-curve $-1 53.48185674611652 0 -11.252584894662075 0 -1 0 I I #
edge $-1 $695 -53.48185674611652 $664 53.48185674611652 $662 $698 forward 7 unknown #
point $-1 53.48185674611652 32.331656969282292 -11.252584894662075 #
straight-curve $-1 -65.368167496453864 0 -8.7977860198448798 0 1 0 I I #
point $-1 -65.368167496453864 32.331656969282292 -8.7977860198448798 #
point $-1 -65.368167496453864 -32.331656969282292 -8.7977860198448798 #
vertex $-1 $690 $699 #
straight-curve $-1 -65.368167496453864 -32.331656969282292 -6.168313767885957 0 0 -1 I I #
straight-curve $-1 -53.48185674611652 0 -11.252584894662075 0 1 0 I I #
straight-curve $-1 0 32.331656969282292 -11.252584894662075 1 0 0 I I #
point $-1 -53.48185674611652 32.331656969282292 -11.252584894662075 #
End-of-ACIS-data 