500 0 7 0           
7 Unknown 11 ACIS 5.0 NT 24 Thu Mar 25 17:01:44 1999 
-1 9.9999999999999995e-007 1e-010 
body $-1 $7 $-1 $8 #
body $-1 $9 $-1 $10 #
body $-1 $11 $-1 $12 #
body $-1 $13 $-1 $14 #
body $-1 $15 $-1 $16 #
body $-1 $17 $-1 $18 #
body $-1 $19 $-1 $20 #
lump $-1 $-1 $21 $0 #
transform $-1 1 0 0 0 1 0 0 0 1 76.124149296548353 38.377564606905466 9.1213915037116333 1 rotate no_reflect no_shear #
lump $-1 $-1 $22 $1 #
transform $-1 1 0 0 0 1 0 0 0 1 76.124149296548353 38.377564606905466 9.1213915037116333 1 rotate no_reflect no_shear #
lump $-1 $-1 $23 $2 #
transform $-1 1 0 0 0 1 0 0 0 1 76.124149296548353 38.377564606905466 9.1213915037116333 1 rotate no_reflect no_shear #
lump $-1 $-1 $24 $3 #
transform $-1 1 0 0 0 1 0 0 0 1 76.124149296548353 38.377564606905466 9.1213915037116333 1 rotate no_reflect no_shear #
lump $-1 $-1 $25 $4 #
transform $-1 1 0 0 0 1 0 0 0 1 76.124149296548353 38.377564606905466 9.1213915037116333 1 rotate no_reflect no_shear #
lump $-1 $-1 $26 $5 #
transform $-1 1 0 0 0 1 0 0 0 1 76.124149296548353 38.377564606905466 9.1213915037116333 1 rotate no_reflect no_shear #
lump $-1 $-1 $27 $6 #
transform $-1 1 0 0 0 1 0 0 0 1 76.124149296548353 38.377564606905466 9.1213915037116333 1 rotate no_reflect no_shear #
shell $-1 $-1 $-1 $28 $-1 $7 #
shell $-1 $-1 $-1 $29 $-1 $9 #
shell $-1 $-1 $-1 $30 $-1 $11 #
shell $-1 $-1 $-1 $31 $-1 $13 #
shell $-1 $-1 $-1 $32 $-1 $15 #
shell $-1 $-1 $-1 $33 $-1 $17 #
shell $-1 $-1 $-1 $34 $-1 $19 #
face $-1 $35 $36 $21 $-1 $37 forward single #
face $-1 $38 $39 $22 $-1 $40 reversed single #
face $-1 $41 $42 $23 $-1 $43 forward single #
face $-1 $44 $45 $24 $-1 $46 reversed single #
face $-1 $47 $48 $25 $-1 $49 forward single #
face $-1 $50 $51 $26 $-1 $52 reversed single #
face $-1 $53 $54 $27 $-1 $55 forward single #
face $-1 $56 $57 $21 $-1 $58 reversed single #
loop $-1 $-1 $59 $28 #
plane-surface $-1 0 0 9.1213915037116333 0 0 1 1 0 0 forward_v I I I I #
face $-1 $60 $61 $22 $-1 $62 reversed single #
loop $-1 $-1 $63 $29 #
plane-surface $-1 113.51262078799095 18.169932745923902 212.85001367079755 0 1 0 0.81915205242281985 0 0.57357642473473569 forward_v I I I I #
face $-1 $64 $65 $23 $-1 $66 forward single #
loop $-1 $67 $68 $30 #
cone-surface $-1 70.754309163751799 28.273748676414684 3.2430573467841795 -0.81915205242281985 0 -0.57357642473473569 1.1471528494694714 0 -1.6383041048456397 1 I I 0 1 2 forward I I I I #
face $-1 $69 $70 $24 $-1 $71 reversed single #
loop $-1 $-1 $72 $31 #
plane-surface $-1 -187.47150729610263 -19.070722715685278 107.34653232238945 0 1 0 -0.73135370988377701 0 0.68199835119979291 forward_v I I I I #
face $-1 $73 $74 $25 $-1 $75 forward single #
loop $-1 $76 $77 $32 #
cone-surface $-1 -72.905549690764261 -9.5353613578426391 5.7543167917013172 0.73135370988377701 0 -0.68199835119979291 0.68199835119979291 0 0.73135370988377701 1 I I 0 1 1 forward I I I I #
face $-1 $78 $79 $26 $-1 $80 reversed single #
loop $-1 $-1 $81 $33 #
plane-surface $-1 -187.47150729610263 19.306841891220181 107.34653232238945 0 1 0 -0.73135370988377701 0 0.68199835119979291 forward_v I I I I #
face $-1 $82 $83 $27 $-1 $84 forward single #
loop $-1 $85 $86 $34 #
cone-surface $-1 -72.905549690764261 28.84220324906282 5.7543167917013172 0.73135370988377701 0 -0.68199835119979291 0.68199835119979291 0 0.73135370988377701 1 I I 0 1 1 forward I I I I #
face $-1 $87 $88 $21 $-1 $89 reversed single #
loop $-1 $-1 $90 $35 #
plane-surface $-1 0 0 -9.1213915037116333 0 0 1 1 0 0 forward_v I I I I #
coedge $-1 $91 $92 $93 $94 forward $36 $-1 #
face $-1 $95 $96 $22 $-1 $97 forward single #
loop $-1 $-1 $98 $38 #
plane-surface $-1 -11.201885482426533 28.273748676414684 125.52397889182265 0.81915205242281985 0 0.57357642473473569 0.57357642473473569 0 -0.81915205242281985 forward_v I I I I #
coedge $-1 $99 $100 $101 $102 reversed $39 $-1 #
face $-1 $-1 $103 $23 $-1 $104 forward single #
loop $-1 $105 $106 $41 #
cone-surface $-1 67.47535101989115 28.273748676414684 0.94710620627521003 -0.81915205242281985 0 -0.57357642473473569 0.57357642473473569 0 -0.81915205242281985 1 I I -0.70710678118654746 0.70710678118654746 1 forward I I I I #
loop $-1 $-1 $107 $30 #
coedge $-1 $68 $68 $108 $109 reversed $42 $-1 #
face $-1 $110 $111 $24 $-1 $112 reversed single #
loop $-1 $-1 $113 $44 #
plane-surface $-1 -76.124149296548325 -9.5353613578426391 3.5134437089237451 -0.73135370988377701 0 0.68199835119979291 0.68199835119979291 0 0.73135370988377701 forward_v I I I I #
coedge $-1 $114 $115 $116 $117 reversed $45 $-1 #
face $-1 $-1 $118 $25 $-1 $119 forward single #
loop $-1 $120 $121 $47 #
cone-surface $-1 -71.936021126967404 -9.5353613578426391 4.8502168014850451 0.73135370988377701 0 -0.68199835119979291 0.34099917559989645 0 0.36567685494188851 1 I I -0.70710678118654746 0.70710678118654746 0.5 forward I I I I #
loop $-1 $-1 $122 $32 #
coedge $-1 $77 $77 $123 $124 reversed $48 $-1 #
face $-1 $125 $126 $26 $-1 $127 forward single #
loop $-1 $-1 $128 $50 #
plane-surface $-1 -76.124149296548325 28.84220324906282 3.5134437089237451 -0.73135370988377701 0 0.68199835119979291 0.68199835119979291 0 0.73135370988377701 forward_v I I I I #
coedge $-1 $129 $130 $131 $132 reversed $51 $-1 #
face $-1 $-1 $133 $27 $-1 $134 forward single #
loop $-1 $135 $136 $53 #
cone-surface $-1 -71.936021126967404 28.84220324906282 4.8502168014850451 0.73135370988377701 0 -0.68199835119979291 0.34099917559989645 0 0.36567685494188851 1 I I -0.70710678118654746 0.70710678118654746 0.5 forward I I I I #
loop $-1 $-1 $137 $34 #
coedge $-1 $86 $86 $138 $139 reversed $54 $-1 #
face $-1 $140 $141 $21 $-1 $142 reversed single #
loop $-1 $-1 $143 $56 #
plane-surface $-1 0 -38.377564606905466 0 0 1 0 0 0 1 forward_v I I I I #
coedge $-1 $144 $145 $146 $147 forward $57 $-1 #
coedge $-1 $148 $59 $149 $150 forward $36 $-1 #
coedge $-1 $59 $148 $151 $152 forward $36 $-1 #
coedge $-1 $153 $154 $59 $94 reversed $155 $-1 #
edge $-1 $156 -38.377564606905466 $157 38.377564606905466 $93 $158 forward 7 unknown #
face $-1 $159 $160 $22 $-1 $161 reversed single #
loop $-1 $-1 $162 $60 #
plane-surface $-1 0 0 9.1213915037116333 0 0 1 1 0 0 forward_v I I I I #
coedge $-1 $163 $164 $165 $166 reversed $61 $-1 #
coedge $-1 $100 $63 $167 $168 reversed $39 $-1 #
coedge $-1 $63 $99 $163 $169 reversed $39 $-1 #
coedge $-1 $165 $170 $63 $102 forward $160 $-1 #
edge $-1 $171 97.303615331687141 $172 105.61553421399358 $101 $173 forward 7 unknown #
loop $-1 $-1 $108 $64 #
plane-surface $-1 -11.201885482426533 28.273748676414684 125.52397889182265 0.81915205242281985 0 0.57357642473473569 0.57357642473473569 0 -0.81915205242281985 forward_v I I I I #
loop $-1 $-1 $174 $41 #
coedge $-1 $106 $106 $107 $175 reversed $65 $-1 #
coedge $-1 $107 $107 $106 $175 forward $67 $-1 #
coedge $-1 $108 $108 $68 $109 forward $103 $-1 #
edge $-1 $176 0 $176 6.2831853071796004 $108 $177 forward 7 unknown #
face $-1 $178 $179 $24 $-1 $180 reversed single #
loop $-1 $-1 $181 $69 #
plane-surface $-1 -187.47150729610263 1.7763568394002505e-015 107.34653232238945 0 -1 0 0.73135370988377701 0 -0.68199835119979291 forward_v I I I I #
coedge $-1 $182 $183 $184 $185 reversed $70 $-1 #
coedge $-1 $115 $72 $186 $187 reversed $45 $-1 #
coedge $-1 $72 $114 $182 $188 reversed $45 $-1 #
coedge $-1 $184 $189 $72 $117 forward $190 $-1 #
edge $-1 $191 17.611604351502962 $192 22.841100145361267 $116 $193 forward 7 unknown #
loop $-1 $-1 $123 $73 #
plane-surface $-1 -76.124149296548325 -9.5353613578426391 3.5134437089237451 -0.73135370988377701 0 0.68199835119979291 0.68199835119979291 0 0.73135370988377701 forward_v I I I I #
loop $-1 $-1 $194 $47 #
coedge $-1 $121 $121 $122 $195 reversed $74 $-1 #
coedge $-1 $122 $122 $121 $195 forward $76 $-1 #
coedge $-1 $123 $123 $77 $124 forward $118 $-1 #
edge $-1 $196 0 $196 6.2831853071796004 $123 $197 forward 7 unknown #
face $-1 $198 $199 $26 $-1 $200 reversed single #
loop $-1 $-1 $131 $78 #
plane-surface $-1 0 0 9.1213915037116333 0 0 1 1 0 0 forward_v I I I I #
coedge $-1 $201 $202 $203 $204 reversed $79 $-1 #
coedge $-1 $130 $81 $205 $206 reversed $51 $-1 #
coedge $-1 $81 $129 $201 $207 reversed $51 $-1 #
coedge $-1 $203 $208 $81 $132 forward $126 $-1 #
edge $-1 $209 17.611604351502962 $210 22.841100145361267 $131 $211 forward 7 unknown #
loop $-1 $-1 $138 $82 #
plane-surface $-1 -76.124149296548325 28.84220324906282 3.5134437089237451 -0.73135370988377701 0 0.68199835119979291 0.68199835119979291 0 0.73135370988377701 forward_v I I I I #
loop $-1 $-1 $212 $53 #
coedge $-1 $136 $136 $137 $213 reversed $83 $-1 #
coedge $-1 $137 $137 $136 $213 forward $85 $-1 #
coedge $-1 $138 $138 $86 $139 forward $133 $-1 #
edge $-1 $214 0 $214 6.2831853071796004 $138 $215 forward 7 unknown #
face $-1 $216 $217 $21 $-1 $218 reversed single #
loop $-1 $-1 $219 $87 #
plane-surface $-1 -76.124149296548353 0 0 1 0 0 0 0 -1 forward_v I I I I #
coedge $-1 $220 $151 $221 $222 forward $88 $-1 #
coedge $-1 $223 $90 $220 $224 forward $57 $-1 #
coedge $-1 $90 $223 $225 $226 forward $57 $-1 #
coedge $-1 $154 $153 $90 $147 reversed $155 $-1 #
edge $-1 $227 -38.377564606905466 $228 38.377564606905466 $146 $229 forward 7 unknown #
coedge $-1 $92 $91 $230 $231 forward $36 $-1 #
coedge $-1 $232 $233 $91 $150 reversed $217 $-1 #
edge $-1 $157 -76.124149296548353 $234 76.124149296548353 $149 $235 forward 7 unknown #
coedge $-1 $143 $236 $92 $152 reversed $88 $-1 #
edge $-1 $237 -76.124149296548353 $156 76.124149296548353 $151 $238 forward 7 unknown #
coedge $-1 $146 $93 $236 $239 forward $155 $-1 #
coedge $-1 $93 $146 $232 $240 reversed $155 $-1 #
loop $-1 $-1 $153 $216 #
vertex $-1 $94 $241 #
vertex $-1 $94 $242 #
straight-curve $-1 76.124149296548353 0 9.1213915037116333 0 1 0 I I #
face $-1 $-1 $243 $22 $-1 $244 reversed single #
loop $-1 $-1 $101 $95 #
plane-surface $-1 76.124149296548353 0 0 -1 0 0 0 0 1 forward_v I I I I #
coedge $-1 $167 $245 $246 $247 forward $96 $-1 #
coedge $-1 $246 $98 $100 $169 forward $61 $-1 #
coedge $-1 $98 $246 $248 $249 reversed $61 $-1 #
coedge $-1 $250 $101 $98 $166 forward $160 $-1 #
edge $-1 $172 4.0330584077165597 $251 24.240690268698124 $165 $252 forward 7 unknown #
coedge $-1 $253 $162 $99 $168 forward $96 $-1 #
edge $-1 $254 13.547770819835506 $171 19.367838902552876 $167 $255 forward 7 unknown #
edge $-1 $172 -152.24829859309671 $254 -142.10131933848561 $100 $256 forward 7 unknown #
coedge $-1 $101 $250 $253 $257 reversed $160 $-1 #
vertex $-1 $257 $258 #
vertex $-1 $102 $259 #
straight-curve $-1 76.124149296548353 18.169932745923902 106.42500683539878 0 0 -1 I I #
coedge $-1 $174 $174 $-1 $260 reversed $105 $-1 #
edge $-1 $261 0 $261 6.2831853071796004 $106 $262 forward 7 unknown #
vertex $-1 $109 $263 #
ellipse-curve $-1 73.214115255189654 28.273748676414684 4.9654320625584294 0.81915205242281985 0 0.57357642473473569 1.1471528494694714 0 -1.6383041048456397 1 I I #
face $-1 $-1 $190 $24 $-1 $264 forward single #
loop $-1 $-1 $265 $110 #
plane-surface $-1 -76.124149296548353 0 0 1 0 0 0 0 -1 forward_v I I I I #
coedge $-1 $266 $267 $268 $269 reversed $111 $-1 #
coedge $-1 $270 $113 $115 $188 forward $70 $-1 #
coedge $-1 $113 $270 $266 $271 forward $70 $-1 #
coedge $-1 $268 $116 $113 $185 forward $190 $-1 #
edge $-1 $192 -14.303042036763959 $272 4.7676806789213213 $184 $273 forward 7 unknown #
coedge $-1 $274 $275 $114 $187 forward $179 $-1 #
edge $-1 $276 -50.159822452271008 $191 -44.55187465748309 $186 $277 forward 7 unknown #
edge $-1 $192 -7.6679009335702659 $276 4.1793813058695832e-014 $115 $278 forward 7 unknown #
coedge $-1 $116 $268 $274 $279 forward $190 $-1 #
loop $-1 $-1 $268 $178 #
vertex $-1 $187 $280 #
vertex $-1 $117 $281 #
straight-curve $-1 -93.735753648051315 -19.070722715685278 9.1213915037116351 1 0 0 I I #
coedge $-1 $194 $194 $-1 $282 reversed $120 $-1 #
edge $-1 $283 0 $283 6.2831853071796004 $121 $284 forward 7 unknown #
vertex $-1 $124 $285 #
ellipse-curve $-1 -73.509401399619207 -9.5353613578426391 6.3174176063176732 -0.73135370988377701 0 0.68199835119979291 0.68199835119979291 0 0.73135370988377701 1 I I #
face $-1 $-1 $286 $26 $-1 $287 reversed single #
loop $-1 $-1 $288 $125 #
plane-surface $-1 0 38.377564606905466 0 0 -1 0 0 0 -1 forward_v I I I I #
coedge $-1 $289 $128 $130 $207 forward $79 $-1 #
coedge $-1 $128 $289 $288 $290 reversed $79 $-1 #
coedge $-1 $291 $131 $128 $204 forward $126 $-1 #
edge $-1 $210 4.8857402666887708 $292 23.956462982374049 $203 $293 forward 7 unknown #
coedge $-1 $294 $295 $129 $206 forward $286 $-1 #
edge $-1 $296 -50.159822452271008 $209 -44.55187465748309 $205 $297 forward 7 unknown #
edge $-1 $210 -7.6679009335702659 $296 4.1793813058695832e-014 $130 $298 forward 7 unknown #
coedge $-1 $131 $291 $294 $299 forward $126 $-1 #
vertex $-1 $206 $300 #
vertex $-1 $132 $301 #
straight-curve $-1 -93.735753648051315 19.306841891220181 9.1213915037116351 1 0 0 I I #
coedge $-1 $212 $212 $-1 $302 reversed $135 $-1 #
edge $-1 $303 0 $303 6.2831853071796004 $136 $304 forward 7 unknown #
vertex $-1 $139 $305 #
ellipse-curve $-1 -73.509401399619207 28.84220324906282 6.3174176063176732 -0.73135370988377701 0 0.68199835119979291 0.68199835119979291 0 0.73135370988377701 1 I I #
face $-1 $-1 $155 $21 $-1 $306 reversed single #
loop $-1 $-1 $232 $140 #
plane-surface $-1 0 38.377564606905466 0 0 -1 0 0 0 -1 forward_v I I I I #
coedge $-1 $307 $230 $233 $308 forward $141 $-1 #
coedge $-1 $236 $143 $144 $224 reversed $88 $-1 #
coedge $-1 $230 $307 $143 $222 reversed $141 $-1 #
edge $-1 $237 -9.1213915037116333 $309 9.1213915037116333 $221 $310 forward 7 unknown #
coedge $-1 $145 $144 $307 $311 forward $57 $-1 #
edge $-1 $228 -76.124149296548353 $309 76.124149296548353 $220 $312 forward 7 unknown #
coedge $-1 $233 $232 $145 $226 reversed $217 $-1 #
edge $-1 $313 -76.124149296548353 $227 76.124149296548353 $225 $314 forward 7 unknown #
vertex $-1 $147 $315 #
vertex $-1 $239 $316 #
straight-curve $-1 76.124149296548353 0 -9.1213915037116333 0 -1 0 I I #
coedge $-1 $219 $221 $148 $231 reversed $141 $-1 #
edge $-1 $234 -38.377564606905466 $237 38.377564606905466 $230 $317 forward 7 unknown #
coedge $-1 $225 $149 $154 $240 forward $217 $-1 #
coedge $-1 $149 $225 $219 $308 reversed $217 $-1 #
vertex $-1 $150 $318 #
straight-curve $-1 0 38.377564606905466 9.1213915037116333 -1 0 0 I I #
coedge $-1 $151 $220 $153 $239 reversed $88 $-1 #
vertex $-1 $231 $319 #
straight-curve $-1 0 -38.377564606905466 9.1213915037116333 1 0 0 I I #
edge $-1 $156 -9.1213915037116333 $228 9.1213915037116333 $153 $320 forward 7 unknown #
edge $-1 $157 -9.1213915037116333 $227 9.1213915037116333 $154 $321 forward 7 unknown #
point $-1 76.124149296548353 -38.377564606905466 9.1213915037116333 #
point $-1 76.124149296548353 38.377564606905466 9.1213915037116333 #
loop $-1 $-1 $248 $159 #
plane-surface $-1 0 38.377564606905466 0 0 -1 0 0 0 -1 forward_v I I I I #
coedge $-1 $162 $253 $322 $323 forward $96 $-1 #
coedge $-1 $164 $163 $162 $247 reversed $61 $-1 #
edge $-1 $324 -24.240690268698124 $254 -4.0330584077165597 $162 $325 forward 7 unknown #
coedge $-1 $322 $326 $164 $249 forward $243 $-1 #
edge $-1 $251 -97.62411741168998 $324 -87.477138157078898 $248 $327 forward 7 unknown #
coedge $-1 $170 $165 $326 $328 reversed $160 $-1 #
vertex $-1 $166 $329 #
straight-curve $-1 76.124149296548353 14.136874338207342 0.80947262140517751 0 1 0 I I #
coedge $-1 $245 $167 $170 $257 forward $96 $-1 #
vertex $-1 $168 $330 #
straight-curve $-1 56.756310393995477 18.169932745923902 9.1213915037116351 1 0 0 I I #
straight-curve $-1 -11.201885482426533 18.169932745923902 125.52397889182265 -0.57357642473473569 0 0.81915205242281985 I I #
edge $-1 $171 18.169932745923902 $331 38.377564606905466 $170 $332 forward 7 unknown #
point $-1 76.124149296548353 18.169932745923902 9.1213915037116333 #
point $-1 76.124149296548353 18.169932745923902 0.80947262140519172 #
edge $-1 $333 1 $333 0 $174 $-1 forward 7 unknown #
vertex $-1 $175 $334 #
ellipse-curve $-1 68.294503072313972 28.273748676414684 1.5206826310099457 0.81915205242281985 0 0.57357642473473569 1.1471528494694714 0 -1.6383041048456397 1 I I #
point $-1 74.361268104659104 28.273748676414684 3.3271279577127739 #
plane-surface $-1 0 0 9.1213915037116333 0 0 1 1 0 0 forward_v I I I I #
coedge $-1 $275 $274 $267 $335 forward $179 $-1 #
coedge $-1 $267 $181 $183 $271 reversed $111 $-1 #
coedge $-1 $181 $266 $265 $335 reversed $111 $-1 #
coedge $-1 $189 $184 $181 $269 forward $190 $-1 #
edge $-1 $272 -22.841100145361267 $336 -17.611604351502962 $268 $337 forward 7 unknown #
coedge $-1 $183 $182 $275 $338 reversed $70 $-1 #
edge $-1 $339 -4.1793813058695832e-014 $272 7.6679009335702659 $266 $340 forward 7 unknown #
vertex $-1 $185 $341 #
straight-curve $-1 -70.894653502690062 -4.7676806789213195 9.1213915037116315 0 1 0 I I #
coedge $-1 $265 $186 $189 $279 reversed $179 $-1 #
coedge $-1 $186 $265 $270 $338 forward $179 $-1 #
vertex $-1 $187 $342 #
straight-curve $-1 -76.124149296548353 -19.070722715685278 53.673266161194725 0 0 1 I I #
straight-curve $-1 -76.124149296548325 -19.070722715685278 3.5134437089237451 -0.68199835119979291 0 -0.73135370988377701 I I #
edge $-1 $336 -1.7763568394002505e-015 $191 19.070722715685278 $274 $343 forward 7 unknown #
point $-1 -76.124149296548353 -19.070722715685278 9.1213915037116333 #
point $-1 -70.894653502690048 -19.070722715685278 9.1213915037116333 #
edge $-1 $344 1 $344 0 $194 $-1 forward 7 unknown #
vertex $-1 $195 $345 #
ellipse-curve $-1 -72.301697981909285 -9.5353613578426391 5.1912159770849415 -0.73135370988377701 0 0.68199835119979291 0.68199835119979291 0 0.73135370988377701 1 I I #
point $-1 -72.827403048419427 -9.5353613578426391 7.0487713162014707 #
loop $-1 $-1 $205 $198 #
plane-surface $-1 -76.124149296548353 0 0 1 0 0 0 0 -1 forward_v I I I I #
coedge $-1 $346 $347 $202 $290 forward $199 $-1 #
coedge $-1 $202 $201 $295 $348 reversed $79 $-1 #
edge $-1 $292 17.005586174301552 $349 24.673487107871857 $288 $350 forward 7 unknown #
coedge $-1 $208 $203 $347 $351 forward $126 $-1 #
vertex $-1 $351 $352 #
straight-curve $-1 -70.894653502690062 14.42110162453141 9.1213915037116315 0 1 0 I I #
coedge $-1 $353 $205 $208 $299 reversed $286 $-1 #
coedge $-1 $205 $353 $289 $348 forward $286 $-1 #
vertex $-1 $206 $354 #
straight-curve $-1 -76.124149296548353 19.306841891220181 53.673266161194725 0 0 1 I I #
straight-curve $-1 -76.124149296548325 19.306841891220181 3.5134437089237451 -0.68199835119979291 0 -0.73135370988377701 I I #
edge $-1 $355 -38.377564606905466 $209 -19.306841891220181 $294 $356 forward 7 unknown #
point $-1 -76.124149296548353 19.306841891220181 9.1213915037116333 #
point $-1 -70.894653502690048 19.306841891220181 9.1213915037116333 #
edge $-1 $357 1 $357 0 $212 $-1 forward 7 unknown #
vertex $-1 $213 $358 #
ellipse-curve $-1 -72.301697981909285 28.84220324906282 5.1912159770849415 -0.73135370988377701 0 0.68199835119979291 0.68199835119979291 0 0.73135370988377701 1 I I #
point $-1 -72.827403048419427 28.84220324906282 7.0487713162014707 #
plane-surface $-1 76.124149296548353 0 0 -1 0 0 0 0 1 forward_v I I I I #
coedge $-1 $221 $219 $223 $311 reversed $141 $-1 #
edge $-1 $234 -9.1213915037116333 $313 9.1213915037116333 $233 $359 forward 7 unknown #
vertex $-1 $311 $360 #
straight-curve $-1 -76.124149296548353 -38.377564606905466 0 0 0 -1 I I #
edge $-1 $309 -38.377564606905466 $313 38.377564606905466 $307 $361 forward 7 unknown #
straight-curve $-1 0 -38.377564606905466 -9.1213915037116333 -1 0 0 I I #
vertex $-1 $226 $362 #
straight-curve $-1 0 38.377564606905466 -9.1213915037116333 1 0 0 I I #
point $-1 76.124149296548353 38.377564606905466 -9.1213915037116333 #
point $-1 76.124149296548353 -38.377564606905466 -9.1213915037116333 #
straight-curve $-1 -76.124149296548353 0 9.1213915037116333 0 -1 0 I I #
point $-1 -76.124149296548353 38.377564606905466 9.1213915037116333 #
point $-1 -76.124149296548353 -38.377564606905466 9.1213915037116333 #
straight-curve $-1 76.124149296548353 -38.377564606905466 0 0 0 -1 I I #
straight-curve $-1 76.124149296548353 38.377564606905466 0 0 0 -1 I I #
coedge $-1 $326 $248 $245 $323 reversed $243 $-1 #
edge $-1 $331 -76.124149296548353 $324 -70.304081213830983 $322 $363 forward 7 unknown #
vertex $-1 $249 $364 #
straight-curve $-1 70.304081213831012 14.136874338207342 9.1213915037116351 0 -1 0 I I #
coedge $-1 $248 $322 $250 $328 forward $243 $-1 #
straight-curve $-1 20.129257063667151 38.377564606905466 80.778468765157385 -0.57357642473473569 0 0.81915205242281985 I I #
edge $-1 $331 -9.1213915037116333 $251 -0.80947262140518683 $250 $365 forward 7 unknown #
point $-1 76.124149296548353 38.377564606905466 0.80947262140518683 #
point $-1 70.304081213830983 18.169932745923902 9.1213915037116493 #
vertex $-1 $257 $366 #
straight-curve $-1 76.124149296548353 0 9.1213915037116333 0 1 0 I I #
vertex $-1 $260 $367 #
point $-1 69.441655921783436 28.273748676414684 -0.11762147383569399 #
edge $-1 $336 44.55187465748309 $339 50.159822452271008 $265 $368 forward 7 unknown #
vertex $-1 $279 $369 #
straight-curve $-1 -93.735753648051315 1.7763568394002505e-015 9.1213915037116351 -1 0 0 I I #
edge $-1 $339 -4.7676806789213213 $276 14.303042036763959 $275 $370 forward 7 unknown #
vertex $-1 $338 $371 #
straight-curve $-1 -76.124149296548325 1.7763568394002505e-015 3.5134437089237451 0.68199835119979291 0 0.73135370988377701 I I #
point $-1 -70.894653502690048 1.7763568394002505e-015 9.1213915037116333 #
point $-1 -76.124149296548353 -19.070722715685278 3.5134437089237145 #
straight-curve $-1 -76.124149296548353 0 9.1213915037116333 0 -1 0 I I #
vertex $-1 $282 $372 #
point $-1 -71.619699630709505 -9.5353613578426391 5.9225696869687185 #
coedge $-1 $347 $288 $353 $373 reversed $199 $-1 #
coedge $-1 $288 $346 $291 $351 reversed $199 $-1 #
edge $-1 $349 -23.956462982374049 $296 -4.8857402666887708 $295 $374 forward 7 unknown #
vertex $-1 $290 $375 #
straight-curve $-1 -59.296871770630396 38.377564606905466 21.558490041035341 -0.68199835119979291 0 -0.73135370988377701 I I #
edge $-1 $292 70.894653502690048 $355 76.124149296548353 $347 $376 forward 7 unknown #
point $-1 -70.894653502690048 38.377564606905459 9.1213915037116333 #
coedge $-1 $295 $294 $346 $373 forward $286 $-1 #
point $-1 -76.124149296548353 19.306841891220181 3.5134437089237145 #
vertex $-1 $351 $377 #
straight-curve $-1 -76.124149296548353 0 9.1213915037116333 0 -1 0 I I #
vertex $-1 $302 $378 #
point $-1 -71.619699630709505 28.84220324906282 5.9225696869687185 #
straight-curve $-1 -76.124149296548353 38.377564606905466 0 0 0 -1 I I #
point $-1 -76.124149296548353 -38.377564606905466 -9.1213915037116333 #
straight-curve $-1 -76.124149296548353 0 -9.1213915037116333 0 1 0 I I #
point $-1 -76.124149296548353 38.377564606905466 -9.1213915037116333 #
straight-curve $-1 0 38.377564606905466 9.1213915037116333 -1 0 0 I I #
point $-1 70.304081213830983 38.377564606905466 9.1213915037116493 #
straight-curve $-1 76.124149296548353 38.377564606905466 0 0 0 -1 I I #
point $-1 76.124149296548353 38.377564606905466 9.1213915037116333 #
point $-1 66.656198967468328 28.273748676414684 0.37352978154047434 #
straight-curve $-1 -76.124149296548353 1.7763568394002505e-015 53.673266161194725 0 0 -1 I I #
point $-1 -76.124149296548353 1.7763568394002505e-015 9.1213915037116333 #
straight-curve $-1 -76.124149296548353 -4.7676806789213195 3.5134437089237101 0 -1 0 I I #
point $-1 -76.124149296548353 1.7763568394002505e-015 3.5134437089237145 #
point $-1 -71.570344272025523 -9.5353613578426391 4.5092176258851486 #
edge $-1 $355 -9.1213915037116333 $349 -3.5134437089237145 $346 $379 forward 7 unknown #
straight-curve $-1 -76.124149296548353 14.42110162453141 3.5134437089237101 0 -1 0 I I #
point $-1 -76.124149296548353 38.377564606905459 3.5134437089237145 #
straight-curve $-1 0 38.377564606905466 9.1213915037116333 -1 0 0 I I #
point $-1 -76.124149296548353 38.377564606905466 9.1213915037116333 #
point $-1 -71.570344272025523 28.84220324906282 4.5092176258851486 #
straight-curve $-1 -76.124149296548353 38.377564606905466 0 0 0 -1 I I #
End-of-ACIS-data 