500 0 11 0           
7 Unknown 11 ACIS 5.0 NT 24 Fri Mar 26 15:24:45 1999 
-1 9.9999999999999995e-007 1e-010 
body $-1 $11 $-1 $12 #
body $-1 $13 $-1 $14 #
body $-1 $15 $-1 $16 #
body $-1 $17 $-1 $18 #
body $-1 $19 $-1 $20 #
body $-1 $21 $-1 $22 #
body $-1 $23 $-1 $24 #
body $-1 $25 $-1 $26 #
body $-1 $27 $-1 $28 #
body $-1 $29 $-1 $30 #
body $-1 $31 $-1 $32 #
lump $-1 $-1 $33 $0 #
transform $-1 1 0 0 0 1 0 0 0 1 79.499496444593646 39.819380338388008 18.492612639588174 1 rotate no_reflect no_shear #
lump $-1 $-1 $34 $1 #
transform $-1 1 0 0 0 1 0 0 0 1 15.575015995852993 -12.067492168159983 18.492612639588174 1 rotate no_reflect no_shear #
lump $-1 $-1 $35 $2 #
transform $-1 1 0 0 0 1 0 0 0 1 15.575015995852993 91.706252844935989 18.492612639588174 1 rotate no_reflect no_shear #
lump $-1 $-1 $36 $3 #
transform $-1 0.55919289150049634 0 -0.82903758062907751 0 1 0 0.82903758062907751 0 0.55919289150049634 201.90402669712756 31.874970506208083 252.38671274471102 1 rotate no_reflect no_shear #
lump $-1 $-1 $37 $4 #
transform $-1 0.55919289150049634 0 -0.82903758062907751 0 -1 0 -0.82903758062907751 0 -0.55919289150049634 153.09288262548023 31.874970506208083 31.55013230577913 1 rotate no_reflect no_shear #
lump $-1 $-1 $38 $5 #
transform $-1 0.78801074757464917 0 0.61566148304635926 0 1 0 -0.61566148304635926 0 0.78801074757464917 -97.889555765034572 31.435502835961525 153.08572902573323 1 rotate no_reflect no_shear #
lump $-1 $-1 $39 $6 #
transform $-1 0.78801074757464917 0 0.61566148304635926 0 -1 0 0.61566148304635926 0 -0.78801074757464917 8.4792192358526375 31.435502835961525 29.065850481040673 1 rotate no_reflect no_shear #
lump $-1 $-1 $40 $7 #
transform $-1 0.78801074757464917 0 0.61566148304635926 0 1 0 -0.61566148304635926 0 0.78801074757464917 -97.889555765034572 39.819380338388008 153.08572902573323 1 rotate no_reflect no_shear #
lump $-1 $-1 $41 $8 #
transform $-1 0.78801074757464917 0 0.61566148304635926 0 -1 0 0.61566148304635926 0 -0.78801074757464917 8.4792192358526375 39.819380338388008 29.065850481040673 1 rotate no_reflect no_shear #
lump $-1 $-1 $42 $9 #
transform $-1 0.78801074757464917 0 0.61566148304635926 0 1 0 -0.61566148304635926 0 0.78801074757464917 -97.889555765034572 48.203257840814487 153.08572902573323 1 rotate no_reflect no_shear #
lump $-1 $-1 $43 $10 #
transform $-1 0.78801074757464917 0 0.61566148304635926 0 -1 0 0.61566148304635926 0 -0.78801074757464917 8.4792192358526375 48.203257840814487 29.065850481040673 1 rotate no_reflect no_shear #
shell $-1 $-1 $-1 $44 $-1 $11 #
shell $-1 $-1 $-1 $45 $-1 $13 #
shell $-1 $-1 $-1 $46 $-1 $15 #
shell $-1 $-1 $-1 $47 $-1 $17 #
shell $-1 $-1 $-1 $48 $-1 $19 #
shell $-1 $-1 $-1 $49 $-1 $21 #
shell $-1 $-1 $-1 $50 $-1 $23 #
shell $-1 $-1 $-1 $51 $-1 $25 #
shell $-1 $-1 $-1 $52 $-1 $27 #
shell $-1 $-1 $-1 $53 $-1 $29 #
shell $-1 $-1 $-1 $54 $-1 $31 #
face $-1 $55 $56 $33 $-1 $57 forward single #
face $-1 $58 $59 $34 $-1 $60 forward single #
face $-1 $61 $62 $35 $-1 $63 forward single #
face $-1 $64 $65 $36 $-1 $66 forward single #
face $-1 $67 $68 $37 $-1 $69 forward single #
face $-1 $70 $71 $38 $-1 $72 forward single #
face $-1 $73 $74 $39 $-1 $75 forward single #
face $-1 $76 $77 $40 $-1 $78 forward single #
face $-1 $79 $80 $41 $-1 $81 forward single #
face $-1 $82 $83 $42 $-1 $84 forward single #
face $-1 $85 $86 $43 $-1 $87 forward single #
face $-1 $88 $89 $33 $-1 $90 reversed single #
loop $-1 $-1 $91 $44 #
plane-surface $-1 0 0 18.492612639588174 0 0 1 1 0 0 forward_v I I I I #
face $-1 $92 $93 $34 $-1 $94 reversed single #
loop $-1 $-1 $95 $45 #
plane-surface $-1 0 0 18.492612639588174 0 0 1 1 0 0 forward_v I I I I #
face $-1 $96 $97 $35 $-1 $98 reversed single #
loop $-1 $-1 $99 $46 #
plane-surface $-1 0 0 18.492612639588174 0 0 1 1 0 0 forward_v I I I I #
face $-1 $100 $101 $36 $-1 $102 reversed single #
loop $-1 $-1 $103 $47 #
plane-surface $-1 0 0 158.99899288918729 0 0 1 1 0 0 forward_v I I I I #
face $-1 $104 $105 $37 $-1 $106 forward single #
loop $-1 $107 $108 $48 #
cone-surface $-1 0 0 -2.8537629322183911 0 0 1 1.5 0 0 1 I I 0 1 1.5 forward I I I I #
face $-1 $109 $110 $38 $-1 $111 reversed single #
loop $-1 $-1 $112 $49 #
plane-surface $-1 0 0 158.99899288918729 0 0 1 1 0 0 forward_v I I I I #
face $-1 $113 $114 $39 $-1 $115 forward single #
loop $-1 $116 $117 $50 #
cone-surface $-1 0 0 -2.483581041901914 0 0 1 1.5 0 0 1 I I 0 1 1.5 forward I I I I #
face $-1 $118 $119 $40 $-1 $120 reversed single #
loop $-1 $-1 $121 $51 #
plane-surface $-1 0 0 158.99899288918729 0 0 1 1 0 0 forward_v I I I I #
face $-1 $122 $123 $41 $-1 $124 forward single #
loop $-1 $125 $126 $52 #
cone-surface $-1 0 0 -2.483581041901914 0 0 1 1.5 0 0 1 I I 0 1 1.5 forward I I I I #
face $-1 $127 $128 $42 $-1 $129 reversed single #
loop $-1 $-1 $130 $53 #
plane-surface $-1 0 0 158.99899288918729 0 0 1 1 0 0 forward_v I I I I #
face $-1 $131 $132 $43 $-1 $133 forward single #
loop $-1 $134 $135 $54 #
cone-surface $-1 0 0 -2.483581041901914 0 0 1 1.5 0 0 1 I I 0 1 1.5 forward I I I I #
face $-1 $136 $137 $33 $-1 $138 reversed single #
loop $-1 $-1 $139 $55 #
plane-surface $-1 0 0 -18.492612639588174 0 0 1 1 0 0 forward_v I I I I #
coedge $-1 $140 $141 $142 $143 forward $56 $-1 #
face $-1 $144 $145 $34 $-1 $146 reversed single #
loop $-1 $-1 $147 $58 #
plane-surface $-1 0 0 -18.492612639588174 0 0 1 1 0 0 forward_v I I I I #
coedge $-1 $148 $149 $150 $151 forward $59 $-1 #
face $-1 $152 $153 $35 $-1 $154 reversed single #
loop $-1 $-1 $155 $61 #
plane-surface $-1 0 0 -18.492612639588174 0 0 1 1 0 0 forward_v I I I I #
coedge $-1 $156 $157 $158 $159 forward $62 $-1 #
face $-1 $160 $161 $36 $-1 $162 reversed single #
loop $-1 $-1 $163 $64 #
plane-surface $-1 0 0 -158.99899288918729 0 0 1 1 0 0 forward_v I I I I #
coedge $-1 $164 $165 $166 $167 forward $65 $-1 #
face $-1 $-1 $168 $37 $-1 $169 forward single #
loop $-1 $-1 $170 $67 #
plane-surface $-1 0 0 -4.9575258644367821 0 0 -1 -1 0 0 forward_v I I I I #
loop $-1 $-1 $171 $48 #
coedge $-1 $108 $108 $170 $172 reversed $68 $-1 #
face $-1 $173 $174 $38 $-1 $175 reversed single #
loop $-1 $-1 $176 $70 #
plane-surface $-1 0 0 -158.99899288918729 0 0 1 1 0 0 forward_v I I I I #
coedge $-1 $177 $178 $179 $180 forward $71 $-1 #
face $-1 $-1 $181 $39 $-1 $182 forward single #
loop $-1 $-1 $183 $73 #
plane-surface $-1 0 0 -4.217162083803828 0 0 -1 -1 0 0 forward_v I I I I #
loop $-1 $-1 $184 $50 #
coedge $-1 $117 $117 $183 $185 reversed $74 $-1 #
face $-1 $186 $187 $40 $-1 $188 reversed single #
loop $-1 $-1 $189 $76 #
plane-surface $-1 0 0 -158.99899288918729 0 0 1 1 0 0 forward_v I I I I #
coedge $-1 $190 $191 $192 $193 forward $77 $-1 #
face $-1 $-1 $194 $41 $-1 $195 forward single #
loop $-1 $-1 $196 $79 #
plane-surface $-1 0 0 -4.217162083803828 0 0 -1 -1 0 0 forward_v I I I I #
loop $-1 $-1 $197 $52 #
coedge $-1 $126 $126 $196 $198 reversed $80 $-1 #
face $-1 $199 $200 $42 $-1 $201 reversed single #
loop $-1 $-1 $202 $82 #
plane-surface $-1 0 0 -158.99899288918729 0 0 1 1 0 0 forward_v I I I I #
coedge $-1 $203 $204 $205 $206 forward $83 $-1 #
face $-1 $-1 $207 $43 $-1 $208 forward single #
loop $-1 $-1 $209 $85 #
plane-surface $-1 0 0 -4.217162083803828 0 0 -1 -1 0 0 forward_v I I I I #
loop $-1 $-1 $210 $54 #
coedge $-1 $135 $135 $209 $211 reversed $86 $-1 #
face $-1 $212 $213 $33 $-1 $214 reversed single #
loop $-1 $-1 $215 $88 #
plane-surface $-1 0 -39.819380338388008 0 0 1 0 0 0 1 forward_v I I I I #
coedge $-1 $216 $217 $218 $219 forward $89 $-1 #
coedge $-1 $220 $91 $221 $222 forward $56 $-1 #
coedge $-1 $91 $220 $223 $224 forward $56 $-1 #
coedge $-1 $225 $226 $91 $143 reversed $227 $-1 #
edge $-1 $228 -39.819380338388008 $229 39.819380338388008 $142 $230 forward 7 unknown #
face $-1 $231 $232 $34 $-1 $233 reversed single #
loop $-1 $-1 $234 $92 #
plane-surface $-1 0 -12.067492168159983 0 0 1 0 0 0 1 forward_v I I I I #
coedge $-1 $235 $236 $237 $238 forward $93 $-1 #
coedge $-1 $239 $95 $240 $241 forward $59 $-1 #
coedge $-1 $95 $239 $242 $243 forward $59 $-1 #
coedge $-1 $244 $245 $95 $151 reversed $246 $-1 #
edge $-1 $247 -12.067492168159983 $248 12.067492168159983 $150 $249 forward 7 unknown #
face $-1 $250 $251 $35 $-1 $252 reversed single #
loop $-1 $-1 $253 $96 #
plane-surface $-1 0 -12.06749216815998 0 0 1 0 0 0 1 forward_v I I I I #
coedge $-1 $254 $255 $256 $257 forward $97 $-1 #
coedge $-1 $258 $99 $259 $260 forward $62 $-1 #
coedge $-1 $99 $258 $261 $262 forward $62 $-1 #
coedge $-1 $263 $264 $99 $159 reversed $265 $-1 #
edge $-1 $266 -12.06749216815998 $267 12.06749216815998 $158 $268 forward 7 unknown #
face $-1 $269 $270 $36 $-1 $271 reversed single #
loop $-1 $-1 $272 $100 #
plane-surface $-1 0 -3.6309268416370521 0 0 1 0 0 0 1 forward_v I I I I #
coedge $-1 $273 $274 $275 $276 forward $101 $-1 #
coedge $-1 $277 $103 $278 $279 forward $65 $-1 #
coedge $-1 $103 $277 $280 $281 forward $65 $-1 #
coedge $-1 $282 $283 $103 $167 reversed $284 $-1 #
edge $-1 $285 -3.6309268416370521 $286 3.6309268416370521 $166 $287 forward 7 unknown #
loop $-1 $288 $289 $104 #
cone-surface $-1 0 0 0 0 0 1 0.75 0 0 1 I I -0.70710678118654757 0.70710678118654757 0.75 forward I I I I #
coedge $-1 $170 $170 $108 $172 forward $105 $-1 #
coedge $-1 $171 $171 $289 $290 forward $107 $-1 #
edge $-1 $291 0 $291 6.2831853071796004 $170 $292 forward 7 unknown #
face $-1 $293 $294 $38 $-1 $295 reversed single #
loop $-1 $-1 $296 $109 #
plane-surface $-1 0 -3.1557455017371332 0 0 1 0 0 0 1 forward_v I I I I #
coedge $-1 $297 $298 $299 $300 forward $110 $-1 #
coedge $-1 $301 $112 $302 $303 forward $71 $-1 #
coedge $-1 $112 $301 $304 $305 forward $71 $-1 #
coedge $-1 $306 $307 $112 $180 reversed $308 $-1 #
edge $-1 $309 -3.1557455017371332 $310 3.1557455017371332 $179 $311 forward 7 unknown #
loop $-1 $312 $313 $113 #
cone-surface $-1 0 0 0 0 0 1 0.75 0 0 1 I I -0.70710678118654757 0.70710678118654757 0.75 forward I I I I #
coedge $-1 $183 $183 $117 $185 forward $114 $-1 #
coedge $-1 $184 $184 $313 $314 forward $116 $-1 #
edge $-1 $315 0 $315 6.2831853071796004 $183 $316 forward 7 unknown #
face $-1 $317 $318 $40 $-1 $319 reversed single #
loop $-1 $-1 $320 $118 #
plane-surface $-1 0 -3.1557455017371332 0 0 1 0 0 0 1 forward_v I I I I #
coedge $-1 $321 $322 $323 $324 forward $119 $-1 #
coedge $-1 $325 $121 $326 $327 forward $77 $-1 #
coedge $-1 $121 $325 $328 $329 forward $77 $-1 #
coedge $-1 $330 $331 $121 $193 reversed $332 $-1 #
edge $-1 $333 -3.1557455017371332 $334 3.1557455017371332 $192 $335 forward 7 unknown #
loop $-1 $336 $337 $122 #
cone-surface $-1 0 0 0 0 0 1 0.75 0 0 1 I I -0.70710678118654757 0.70710678118654757 0.75 forward I I I I #
coedge $-1 $196 $196 $126 $198 forward $123 $-1 #
coedge $-1 $197 $197 $337 $338 forward $125 $-1 #
edge $-1 $339 0 $339 6.2831853071796004 $196 $340 forward 7 unknown #
face $-1 $341 $342 $42 $-1 $343 reversed single #
loop $-1 $-1 $344 $127 #
plane-surface $-1 0 -3.1557455017371332 0 0 1 0 0 0 1 forward_v I I I I #
coedge $-1 $345 $346 $347 $348 forward $128 $-1 #
coedge $-1 $349 $130 $350 $351 forward $83 $-1 #
coedge $-1 $130 $349 $352 $353 forward $83 $-1 #
coedge $-1 $354 $355 $130 $206 reversed $356 $-1 #
edge $-1 $357 -3.1557455017371332 $358 3.1557455017371332 $205 $359 forward 7 unknown #
loop $-1 $360 $361 $131 #
cone-surface $-1 0 0 0 0 0 1 0.75 0 0 1 I I -0.70710678118654757 0.70710678118654757 0.75 forward I I I I #
coedge $-1 $209 $209 $135 $211 forward $132 $-1 #
coedge $-1 $210 $210 $361 $362 forward $134 $-1 #
edge $-1 $363 0 $363 6.2831853071796004 $209 $364 forward 7 unknown #
face $-1 $365 $366 $33 $-1 $367 reversed single #
loop $-1 $-1 $368 $136 #
plane-surface $-1 -79.499496444593646 0 0 1 0 0 0 0 -1 forward_v I I I I #
coedge $-1 $369 $223 $370 $371 forward $137 $-1 #
coedge $-1 $372 $139 $369 $373 forward $89 $-1 #
coedge $-1 $139 $372 $374 $375 forward $89 $-1 #
coedge $-1 $226 $225 $139 $219 reversed $227 $-1 #
edge $-1 $376 -39.819380338388008 $377 39.819380338388008 $218 $378 forward 7 unknown #
coedge $-1 $141 $140 $379 $380 forward $56 $-1 #
coedge $-1 $381 $382 $140 $222 reversed $366 $-1 #
edge $-1 $229 -79.499496444593646 $383 79.499496444593646 $221 $384 forward 7 unknown #
coedge $-1 $215 $385 $141 $224 reversed $137 $-1 #
edge $-1 $386 -79.499496444593646 $228 79.499496444593646 $223 $387 forward 7 unknown #
coedge $-1 $218 $142 $385 $388 forward $227 $-1 #
coedge $-1 $142 $218 $381 $389 reversed $227 $-1 #
loop $-1 $-1 $225 $365 #
vertex $-1 $143 $390 #
vertex $-1 $143 $391 #
straight-curve $-1 79.499496444593646 0 18.492612639588174 0 1 0 I I #
face $-1 $392 $393 $34 $-1 $394 reversed single #
loop $-1 $-1 $395 $144 #
plane-surface $-1 -5.4377322319313945 0 0 1 0 0 0 0 -1 forward_v I I I I #
coedge $-1 $396 $242 $397 $398 forward $145 $-1 #
coedge $-1 $399 $147 $396 $400 forward $93 $-1 #
coedge $-1 $147 $399 $401 $402 forward $93 $-1 #
coedge $-1 $245 $244 $147 $238 reversed $246 $-1 #
edge $-1 $403 -12.067492168159983 $404 12.067492168159983 $237 $405 forward 7 unknown #
coedge $-1 $149 $148 $406 $407 forward $59 $-1 #
coedge $-1 $408 $409 $148 $241 reversed $393 $-1 #
edge $-1 $248 -5.4377322319313945 $410 5.4377322319313945 $240 $411 forward 7 unknown #
coedge $-1 $234 $412 $149 $243 reversed $145 $-1 #
edge $-1 $413 -5.4377322319313945 $247 5.4377322319313945 $242 $414 forward 7 unknown #
coedge $-1 $237 $150 $412 $415 forward $246 $-1 #
coedge $-1 $150 $237 $408 $416 reversed $246 $-1 #
loop $-1 $-1 $244 $392 #
vertex $-1 $151 $417 #
vertex $-1 $151 $418 #
straight-curve $-1 5.4377322319313945 0 18.492612639588174 0 1 0 I I #
face $-1 $419 $420 $35 $-1 $421 reversed single #
loop $-1 $-1 $422 $152 #
plane-surface $-1 -5.4377322319313945 0 0 1 0 0 0 0 -1 forward_v I I I I #
coedge $-1 $423 $261 $424 $425 forward $153 $-1 #
coedge $-1 $426 $155 $423 $427 forward $97 $-1 #
coedge $-1 $155 $426 $428 $429 forward $97 $-1 #
coedge $-1 $264 $263 $155 $257 reversed $265 $-1 #
edge $-1 $430 -12.06749216815998 $431 12.06749216815998 $256 $432 forward 7 unknown #
coedge $-1 $157 $156 $433 $434 forward $62 $-1 #
coedge $-1 $435 $436 $156 $260 reversed $420 $-1 #
edge $-1 $267 -5.4377322319313945 $437 5.4377322319313945 $259 $438 forward 7 unknown #
coedge $-1 $253 $439 $157 $262 reversed $153 $-1 #
edge $-1 $440 -5.4377322319313945 $266 5.4377322319313945 $261 $441 forward 7 unknown #
coedge $-1 $256 $158 $439 $442 forward $265 $-1 #
coedge $-1 $158 $256 $435 $443 reversed $265 $-1 #
loop $-1 $-1 $263 $419 #
vertex $-1 $159 $444 #
vertex $-1 $159 $445 #
straight-curve $-1 5.4377322319313945 0 18.492612639588174 0 1 0 I I #
face $-1 $446 $447 $36 $-1 $448 reversed single #
loop $-1 $-1 $449 $160 #
plane-surface $-1 -317.99798577837458 0 0 1 0 0 0 0 -1 forward_v I I I I #
coedge $-1 $450 $280 $451 $452 forward $161 $-1 #
coedge $-1 $453 $163 $450 $454 forward $101 $-1 #
coedge $-1 $163 $453 $455 $456 forward $101 $-1 #
coedge $-1 $283 $282 $163 $276 reversed $284 $-1 #
edge $-1 $457 -3.6309268416370521 $458 3.6309268416370521 $275 $459 forward 7 unknown #
coedge $-1 $165 $164 $460 $461 forward $65 $-1 #
coedge $-1 $462 $463 $164 $279 reversed $447 $-1 #
edge $-1 $286 -317.99798577837458 $464 317.99798577837458 $278 $465 forward 7 unknown #
coedge $-1 $272 $466 $165 $281 reversed $161 $-1 #
edge $-1 $467 -317.99798577837458 $285 317.99798577837458 $280 $468 forward 7 unknown #
coedge $-1 $275 $166 $466 $469 forward $284 $-1 #
coedge $-1 $166 $275 $462 $470 reversed $284 $-1 #
loop $-1 $-1 $282 $446 #
vertex $-1 $167 $471 #
vertex $-1 $167 $472 #
straight-curve $-1 317.99798577837458 0 158.99899288918729 0 1 0 I I #
loop $-1 $-1 $473 $104 #
coedge $-1 $289 $289 $171 $290 reversed $168 $-1 #
edge $-1 $474 0 $474 6.2831853071796004 $289 $475 forward 7 unknown #
vertex $-1 $172 $476 #
ellipse-curve $-1 0 0 -4.9575258644367821 0 0 -1 1.5 0 0 1 I I #
face $-1 $477 $478 $38 $-1 $479 reversed single #
loop $-1 $-1 $480 $173 #
plane-surface $-1 -317.99798577837458 0 0 1 0 0 0 0 -1 forward_v I I I I #
coedge $-1 $481 $304 $482 $483 forward $174 $-1 #
coedge $-1 $484 $176 $481 $485 forward $110 $-1 #
coedge $-1 $176 $484 $486 $487 forward $110 $-1 #
coedge $-1 $307 $306 $176 $300 reversed $308 $-1 #
edge $-1 $488 -3.1557455017371332 $489 3.1557455017371332 $299 $490 forward 7 unknown #
coedge $-1 $178 $177 $491 $492 forward $71 $-1 #
coedge $-1 $493 $494 $177 $303 reversed $478 $-1 #
edge $-1 $310 -317.99798577837458 $495 317.99798577837458 $302 $496 forward 7 unknown #
coedge $-1 $296 $497 $178 $305 reversed $174 $-1 #
edge $-1 $498 -317.99798577837458 $309 317.99798577837458 $304 $499 forward 7 unknown #
coedge $-1 $299 $179 $497 $500 forward $308 $-1 #
coedge $-1 $179 $299 $493 $501 reversed $308 $-1 #
loop $-1 $-1 $306 $477 #
vertex $-1 $180 $502 #
vertex $-1 $180 $503 #
straight-curve $-1 317.99798577837458 0 158.99899288918729 0 1 0 I I #
loop $-1 $-1 $504 $113 #
coedge $-1 $313 $313 $184 $314 reversed $181 $-1 #
edge $-1 $505 0 $505 6.2831853071796004 $313 $506 forward 7 unknown #
vertex $-1 $185 $507 #
ellipse-curve $-1 0 0 -4.217162083803828 0 0 -1 1.5 0 0 1 I I #
face $-1 $508 $509 $40 $-1 $510 reversed single #
loop $-1 $-1 $511 $186 #
plane-surface $-1 -317.99798577837458 0 0 1 0 0 0 0 -1 forward_v I I I I #
coedge $-1 $512 $328 $513 $514 forward $187 $-1 #
coedge $-1 $515 $189 $512 $516 forward $119 $-1 #
coedge $-1 $189 $515 $517 $518 forward $119 $-1 #
coedge $-1 $331 $330 $189 $324 reversed $332 $-1 #
edge $-1 $519 -3.1557455017371332 $520 3.1557455017371332 $323 $521 forward 7 unknown #
coedge $-1 $191 $190 $522 $523 forward $77 $-1 #
coedge $-1 $524 $525 $190 $327 reversed $509 $-1 #
edge $-1 $334 -317.99798577837458 $526 317.99798577837458 $326 $527 forward 7 unknown #
coedge $-1 $320 $528 $191 $329 reversed $187 $-1 #
edge $-1 $529 -317.99798577837458 $333 317.99798577837458 $328 $530 forward 7 unknown #
coedge $-1 $323 $192 $528 $531 forward $332 $-1 #
coedge $-1 $192 $323 $524 $532 reversed $332 $-1 #
loop $-1 $-1 $330 $508 #
vertex $-1 $193 $533 #
vertex $-1 $193 $534 #
straight-curve $-1 317.99798577837458 0 158.99899288918729 0 1 0 I I #
loop $-1 $-1 $535 $122 #
coedge $-1 $337 $337 $197 $338 reversed $194 $-1 #
edge $-1 $536 0 $536 6.2831853071796004 $337 $537 forward 7 unknown #
vertex $-1 $198 $538 #
ellipse-curve $-1 0 0 -4.217162083803828 0 0 -1 1.5 0 0 1 I I #
face $-1 $539 $540 $42 $-1 $541 reversed single #
loop $-1 $-1 $542 $199 #
plane-surface $-1 -317.99798577837458 0 0 1 0 0 0 0 -1 forward_v I I I I #
coedge $-1 $543 $352 $544 $545 forward $200 $-1 #
coedge $-1 $546 $202 $543 $547 forward $128 $-1 #
coedge $-1 $202 $546 $548 $549 forward $128 $-1 #
coedge $-1 $355 $354 $202 $348 reversed $356 $-1 #
edge $-1 $550 -3.1557455017371332 $551 3.1557455017371332 $347 $552 forward 7 unknown #
coedge $-1 $204 $203 $553 $554 forward $83 $-1 #
coedge $-1 $555 $556 $203 $351 reversed $540 $-1 #
edge $-1 $358 -317.99798577837458 $557 317.99798577837458 $350 $558 forward 7 unknown #
coedge $-1 $344 $559 $204 $353 reversed $200 $-1 #
edge $-1 $560 -317.99798577837458 $357 317.99798577837458 $352 $561 forward 7 unknown #
coedge $-1 $347 $205 $559 $562 forward $356 $-1 #
coedge $-1 $205 $347 $555 $563 reversed $356 $-1 #
loop $-1 $-1 $354 $539 #
vertex $-1 $206 $564 #
vertex $-1 $206 $565 #
straight-curve $-1 317.99798577837458 0 158.99899288918729 0 1 0 I I #
loop $-1 $-1 $566 $131 #
coedge $-1 $361 $361 $210 $362 reversed $207 $-1 #
edge $-1 $567 0 $567 6.2831853071796004 $361 $568 forward 7 unknown #
vertex $-1 $211 $569 #
ellipse-curve $-1 0 0 -4.217162083803828 0 0 -1 1.5 0 0 1 I I #
face $-1 $-1 $227 $33 $-1 $570 reversed single #
loop $-1 $-1 $381 $212 #
plane-surface $-1 0 39.819380338388008 0 0 -1 0 0 0 -1 forward_v I I I I #
coedge $-1 $571 $379 $382 $572 forward $213 $-1 #
coedge $-1 $385 $215 $216 $373 reversed $137 $-1 #
coedge $-1 $379 $571 $215 $371 reversed $213 $-1 #
edge $-1 $386 -18.492612639588174 $573 18.492612639588174 $370 $574 forward 7 unknown #
coedge $-1 $217 $216 $571 $575 forward $89 $-1 #
edge $-1 $377 -79.499496444593646 $573 79.499496444593646 $369 $576 forward 7 unknown #
coedge $-1 $382 $381 $217 $375 reversed $366 $-1 #
edge $-1 $577 -79.499496444593646 $376 79.499496444593646 $374 $578 forward 7 unknown #
vertex $-1 $219 $579 #
vertex $-1 $388 $580 #
straight-curve $-1 79.499496444593646 0 -18.492612639588174 0 -1 0 I I #
coedge $-1 $368 $370 $220 $380 reversed $213 $-1 #
edge $-1 $383 -39.819380338388008 $386 39.819380338388008 $379 $581 forward 7 unknown #
coedge $-1 $374 $221 $226 $389 forward $366 $-1 #
coedge $-1 $221 $374 $368 $572 reversed $366 $-1 #
vertex $-1 $222 $582 #
straight-curve $-1 0 39.819380338388008 18.492612639588174 -1 0 0 I I #
coedge $-1 $223 $369 $225 $388 reversed $137 $-1 #
vertex $-1 $380 $583 #
straight-curve $-1 0 -39.819380338388008 18.492612639588174 1 0 0 I I #
edge $-1 $228 -18.492612639588174 $377 18.492612639588174 $225 $584 forward 7 unknown #
edge $-1 $229 -18.492612639588174 $376 18.492612639588174 $226 $585 forward 7 unknown #
point $-1 79.499496444593646 -39.819380338388008 18.492612639588174 #
point $-1 79.499496444593646 39.819380338388008 18.492612639588174 #
face $-1 $-1 $246 $34 $-1 $586 reversed single #
loop $-1 $-1 $408 $231 #
plane-surface $-1 0 12.067492168159983 0 0 -1 0 0 0 -1 forward_v I I I I #
coedge $-1 $587 $406 $409 $588 forward $232 $-1 #
coedge $-1 $412 $234 $235 $400 reversed $145 $-1 #
coedge $-1 $406 $587 $234 $398 reversed $232 $-1 #
edge $-1 $413 -18.492612639588174 $589 18.492612639588174 $397 $590 forward 7 unknown #
coedge $-1 $236 $235 $587 $591 forward $93 $-1 #
edge $-1 $404 -5.4377322319313945 $589 5.4377322319313945 $396 $592 forward 7 unknown #
coedge $-1 $409 $408 $236 $402 reversed $393 $-1 #
edge $-1 $593 -5.4377322319313945 $403 5.4377322319313945 $401 $594 forward 7 unknown #
vertex $-1 $238 $595 #
vertex $-1 $415 $596 #
straight-curve $-1 5.4377322319313945 0 -18.492612639588174 0 -1 0 I I #
coedge $-1 $395 $397 $239 $407 reversed $232 $-1 #
edge $-1 $410 -12.067492168159983 $413 12.067492168159983 $406 $597 forward 7 unknown #
coedge $-1 $401 $240 $245 $416 forward $393 $-1 #
coedge $-1 $240 $401 $395 $588 reversed $393 $-1 #
vertex $-1 $241 $598 #
straight-curve $-1 0 12.067492168159983 18.492612639588174 -1 0 0 I I #
coedge $-1 $242 $396 $244 $415 reversed $145 $-1 #
vertex $-1 $407 $599 #
straight-curve $-1 0 -12.067492168159983 18.492612639588174 1 0 0 I I #
edge $-1 $247 -18.492612639588174 $404 18.492612639588174 $244 $600 forward 7 unknown #
edge $-1 $248 -18.492612639588174 $403 18.492612639588174 $245 $601 forward 7 unknown #
point $-1 5.4377322319313945 -12.067492168159983 18.492612639588174 #
point $-1 5.4377322319313945 12.067492168159983 18.492612639588174 #
face $-1 $-1 $265 $35 $-1 $602 reversed single #
loop $-1 $-1 $435 $250 #
plane-surface $-1 0 12.06749216815998 0 0 -1 0 0 0 -1 forward_v I I I I #
coedge $-1 $603 $433 $436 $604 forward $251 $-1 #
coedge $-1 $439 $253 $254 $427 reversed $153 $-1 #
coedge $-1 $433 $603 $253 $425 reversed $251 $-1 #
edge $-1 $440 -18.492612639588174 $605 18.492612639588174 $424 $606 forward 7 unknown #
coedge $-1 $255 $254 $603 $607 forward $97 $-1 #
edge $-1 $431 -5.4377322319313945 $605 5.4377322319313945 $423 $608 forward 7 unknown #
coedge $-1 $436 $435 $255 $429 reversed $420 $-1 #
edge $-1 $609 -5.4377322319313945 $430 5.4377322319313945 $428 $610 forward 7 unknown #
vertex $-1 $257 $611 #
vertex $-1 $442 $612 #
straight-curve $-1 5.4377322319313945 0 -18.492612639588174 0 -1 0 I I #
coedge $-1 $422 $424 $258 $434 reversed $251 $-1 #
edge $-1 $437 -12.06749216815998 $440 12.06749216815998 $433 $613 forward 7 unknown #
coedge $-1 $428 $259 $264 $443 forward $420 $-1 #
coedge $-1 $259 $428 $422 $604 reversed $420 $-1 #
vertex $-1 $260 $614 #
straight-curve $-1 0 12.06749216815998 18.492612639588174 -1 0 0 I I #
coedge $-1 $261 $423 $263 $442 reversed $153 $-1 #
vertex $-1 $434 $615 #
straight-curve $-1 0 -12.06749216815998 18.492612639588174 1 0 0 I I #
edge $-1 $266 -18.492612639588174 $431 18.492612639588174 $263 $616 forward 7 unknown #
edge $-1 $267 -18.492612639588174 $430 18.492612639588174 $264 $617 forward 7 unknown #
point $-1 5.4377322319313945 -12.06749216815998 18.492612639588174 #
point $-1 5.4377322319313945 12.06749216815998 18.492612639588174 #
face $-1 $-1 $284 $36 $-1 $618 reversed single #
loop $-1 $-1 $462 $269 #
plane-surface $-1 0 3.6309268416370521 0 0 -1 0 0 0 -1 forward_v I I I I #
coedge $-1 $619 $460 $463 $620 forward $270 $-1 #
coedge $-1 $466 $272 $273 $454 reversed $161 $-1 #
coedge $-1 $460 $619 $272 $452 reversed $270 $-1 #
edge $-1 $467 -158.99899288918729 $621 158.99899288918729 $451 $622 forward 7 unknown #
coedge $-1 $274 $273 $619 $623 forward $101 $-1 #
edge $-1 $458 -317.99798577837458 $621 317.99798577837458 $450 $624 forward 7 unknown #
coedge $-1 $463 $462 $274 $456 reversed $447 $-1 #
edge $-1 $625 -317.99798577837458 $457 317.99798577837458 $455 $626 forward 7 unknown #
vertex $-1 $276 $627 #
vertex $-1 $469 $628 #
straight-curve $-1 317.99798577837458 0 -158.99899288918729 0 -1 0 I I #
coedge $-1 $449 $451 $277 $461 reversed $270 $-1 #
edge $-1 $464 -3.6309268416370521 $467 3.6309268416370521 $460 $629 forward 7 unknown #
coedge $-1 $455 $278 $283 $470 forward $447 $-1 #
coedge $-1 $278 $455 $449 $620 reversed $447 $-1 #
vertex $-1 $279 $630 #
straight-curve $-1 0 3.6309268416370521 158.99899288918729 -1 0 0 I I #
coedge $-1 $280 $450 $282 $469 reversed $161 $-1 #
vertex $-1 $461 $631 #
straight-curve $-1 0 -3.6309268416370521 158.99899288918729 1 0 0 I I #
edge $-1 $285 -158.99899288918729 $458 158.99899288918729 $282 $632 forward 7 unknown #
edge $-1 $286 -158.99899288918729 $457 158.99899288918729 $283 $633 forward 7 unknown #
point $-1 317.99798577837458 -3.6309268416370521 158.99899288918729 #
point $-1 317.99798577837458 3.6309268416370521 158.99899288918729 #
coedge $-1 $473 $473 $-1 $634 reversed $288 $-1 #
vertex $-1 $290 $635 #
ellipse-curve $-1 0 0 -0.75 0 0 -1 1.5 0 0 1 I I #
point $-1 1.5 0 -4.9575258644367821 #
face $-1 $-1 $308 $38 $-1 $636 reversed single #
loop $-1 $-1 $493 $293 #
plane-surface $-1 0 3.1557455017371332 0 0 -1 0 0 0 -1 forward_v I I I I #
coedge $-1 $637 $491 $494 $638 forward $294 $-1 #
coedge $-1 $497 $296 $297 $485 reversed $174 $-1 #
coedge $-1 $491 $637 $296 $483 reversed $294 $-1 #
edge $-1 $498 -158.99899288918729 $639 158.99899288918729 $482 $640 forward 7 unknown #
coedge $-1 $298 $297 $637 $641 forward $110 $-1 #
edge $-1 $489 -317.99798577837458 $639 317.99798577837458 $481 $642 forward 7 unknown #
coedge $-1 $494 $493 $298 $487 reversed $478 $-1 #
edge $-1 $643 -317.99798577837458 $488 317.99798577837458 $486 $644 forward 7 unknown #
vertex $-1 $300 $645 #
vertex $-1 $500 $646 #
straight-curve $-1 317.99798577837458 0 -158.99899288918729 0 -1 0 I I #
coedge $-1 $480 $482 $301 $492 reversed $294 $-1 #
edge $-1 $495 -3.1557455017371332 $498 3.1557455017371332 $491 $647 forward 7 unknown #
coedge $-1 $486 $302 $307 $501 forward $478 $-1 #
coedge $-1 $302 $486 $480 $638 reversed $478 $-1 #
vertex $-1 $303 $648 #
straight-curve $-1 0 3.1557455017371332 158.99899288918729 -1 0 0 I I #
coedge $-1 $304 $481 $306 $500 reversed $174 $-1 #
vertex $-1 $492 $649 #
straight-curve $-1 0 -3.1557455017371332 158.99899288918729 1 0 0 I I #
edge $-1 $309 -158.99899288918729 $489 158.99899288918729 $306 $650 forward 7 unknown #
edge $-1 $310 -158.99899288918729 $488 158.99899288918729 $307 $651 forward 7 unknown #
point $-1 317.99798577837458 -3.1557455017371332 158.99899288918729 #
point $-1 317.99798577837458 3.1557455017371332 158.99899288918729 #
coedge $-1 $504 $504 $-1 $652 reversed $312 $-1 #
vertex $-1 $314 $653 #
ellipse-curve $-1 0 0 -0.75 0 0 -1 1.5 0 0 1 I I #
point $-1 1.5 0 -4.217162083803828 #
face $-1 $-1 $332 $40 $-1 $654 reversed single #
loop $-1 $-1 $524 $317 #
plane-surface $-1 0 3.1557455017371332 0 0 -1 0 0 0 -1 forward_v I I I I #
coedge $-1 $655 $522 $525 $656 forward $318 $-1 #
coedge $-1 $528 $320 $321 $516 reversed $187 $-1 #
coedge $-1 $522 $655 $320 $514 reversed $318 $-1 #
edge $-1 $529 -158.99899288918729 $657 158.99899288918729 $513 $658 forward 7 unknown #
coedge $-1 $322 $321 $655 $659 forward $119 $-1 #
edge $-1 $520 -317.99798577837458 $657 317.99798577837458 $512 $660 forward 7 unknown #
coedge $-1 $525 $524 $322 $518 reversed $509 $-1 #
edge $-1 $661 -317.99798577837458 $519 317.99798577837458 $517 $662 forward 7 unknown #
vertex $-1 $324 $663 #
vertex $-1 $531 $664 #
straight-curve $-1 317.99798577837458 0 -158.99899288918729 0 -1 0 I I #
coedge $-1 $511 $513 $325 $523 reversed $318 $-1 #
edge $-1 $526 -3.1557455017371332 $529 3.1557455017371332 $522 $665 forward 7 unknown #
coedge $-1 $517 $326 $331 $532 forward $509 $-1 #
coedge $-1 $326 $517 $511 $656 reversed $509 $-1 #
vertex $-1 $327 $666 #
straight-curve $-1 0 3.1557455017371332 158.99899288918729 -1 0 0 I I #
coedge $-1 $328 $512 $330 $531 reversed $187 $-1 #
vertex $-1 $523 $667 #
straight-curve $-1 0 -3.1557455017371332 158.99899288918729 1 0 0 I I #
edge $-1 $333 -158.99899288918729 $520 158.99899288918729 $330 $668 forward 7 unknown #
edge $-1 $334 -158.99899288918729 $519 158.99899288918729 $331 $669 forward 7 unknown #
point $-1 317.99798577837458 -3.1557455017371332 158.99899288918729 #
point $-1 317.99798577837458 3.1557455017371332 158.99899288918729 #
coedge $-1 $535 $535 $-1 $670 reversed $336 $-1 #
vertex $-1 $338 $671 #
ellipse-curve $-1 0 0 -0.75 0 0 -1 1.5 0 0 1 I I #
point $-1 1.5 0 -4.217162083803828 #
face $-1 $-1 $356 $42 $-1 $672 reversed single #
loop $-1 $-1 $555 $341 #
plane-surface $-1 0 3.1557455017371332 0 0 -1 0 0 0 -1 forward_v I I I I #
coedge $-1 $673 $553 $556 $674 forward $342 $-1 #
coedge $-1 $559 $344 $345 $547 reversed $200 $-1 #
coedge $-1 $553 $673 $344 $545 reversed $342 $-1 #
edge $-1 $560 -158.99899288918729 $675 158.99899288918729 $544 $676 forward 7 unknown #
coedge $-1 $346 $345 $673 $677 forward $128 $-1 #
edge $-1 $551 -317.99798577837458 $675 317.99798577837458 $543 $678 forward 7 unknown #
coedge $-1 $556 $555 $346 $549 reversed $540 $-1 #
edge $-1 $679 -317.99798577837458 $550 317.99798577837458 $548 $680 forward 7 unknown #
vertex $-1 $348 $681 #
vertex $-1 $562 $682 #
straight-curve $-1 317.99798577837458 0 -158.99899288918729 0 -1 0 I I #
coedge $-1 $542 $544 $349 $554 reversed $342 $-1 #
edge $-1 $557 -3.1557455017371332 $560 3.1557455017371332 $553 $683 forward 7 unknown #
coedge $-1 $548 $350 $355 $563 forward $540 $-1 #
coedge $-1 $350 $548 $542 $674 reversed $540 $-1 #
vertex $-1 $351 $684 #
straight-curve $-1 0 3.1557455017371332 158.99899288918729 -1 0 0 I I #
coedge $-1 $352 $543 $354 $562 reversed $200 $-1 #
vertex $-1 $554 $685 #
straight-curve $-1 0 -3.1557455017371332 158.99899288918729 1 0 0 I I #
edge $-1 $357 -158.99899288918729 $551 158.99899288918729 $354 $686 forward 7 unknown #
edge $-1 $358 -158.99899288918729 $550 158.99899288918729 $355 $687 forward 7 unknown #
point $-1 317.99798577837458 -3.1557455017371332 158.99899288918729 #
point $-1 317.99798577837458 3.1557455017371332 158.99899288918729 #
coedge $-1 $566 $566 $-1 $688 reversed $360 $-1 #
vertex $-1 $362 $689 #
ellipse-curve $-1 0 0 -0.75 0 0 -1 1.5 0 0 1 I I #
point $-1 1.5 0 -4.217162083803828 #
plane-surface $-1 79.499496444593646 0 0 -1 0 0 0 0 1 forward_v I I I I #
coedge $-1 $370 $368 $372 $575 reversed $213 $-1 #
edge $-1 $383 -18.492612639588174 $577 18.492612639588174 $382 $690 forward 7 unknown #
vertex $-1 $575 $691 #
straight-curve $-1 -79.499496444593646 -39.819380338388008 0 0 0 -1 I I #
edge $-1 $573 -39.819380338388008 $577 39.819380338388008 $571 $692 forward 7 unknown #
straight-curve $-1 0 -39.819380338388008 -18.492612639588174 -1 0 0 I I #
vertex $-1 $375 $693 #
straight-curve $-1 0 39.819380338388008 -18.492612639588174 1 0 0 I I #
point $-1 79.499496444593646 39.819380338388008 -18.492612639588174 #
point $-1 79.499496444593646 -39.819380338388008 -18.492612639588174 #
straight-curve $-1 -79.499496444593646 0 18.492612639588174 0 -1 0 I I #
point $-1 -79.499496444593646 39.819380338388008 18.492612639588174 #
point $-1 -79.499496444593646 -39.819380338388008 18.492612639588174 #
straight-curve $-1 79.499496444593646 -39.819380338388008 0 0 0 -1 I I #
straight-curve $-1 79.499496444593646 39.819380338388008 0 0 0 -1 I I #
plane-surface $-1 5.4377322319313945 0 0 -1 0 0 0 0 1 forward_v I I I I #
coedge $-1 $397 $395 $399 $591 reversed $232 $-1 #
edge $-1 $410 -18.492612639588174 $593 18.492612639588174 $409 $694 forward 7 unknown #
vertex $-1 $591 $695 #
straight-curve $-1 -5.4377322319313945 -12.067492168159983 0 0 0 -1 I I #
edge $-1 $589 -12.067492168159983 $593 12.067492168159983 $587 $696 forward 7 unknown #
straight-curve $-1 0 -12.067492168159983 -18.492612639588174 -1 0 0 I I #
vertex $-1 $402 $697 #
straight-curve $-1 0 12.067492168159983 -18.492612639588174 1 0 0 I I #
point $-1 5.4377322319313945 12.067492168159983 -18.492612639588174 #
point $-1 5.4377322319313945 -12.067492168159983 -18.492612639588174 #
straight-curve $-1 -5.4377322319313945 0 18.492612639588174 0 -1 0 I I #
point $-1 -5.4377322319313945 12.067492168159983 18.492612639588174 #
point $-1 -5.4377322319313945 -12.067492168159983 18.492612639588174 #
straight-curve $-1 5.4377322319313945 -12.067492168159983 0 0 0 -1 I I #
straight-curve $-1 5.4377322319313945 12.067492168159983 0 0 0 -1 I I #
plane-surface $-1 5.4377322319313945 0 0 -1 0 0 0 0 1 forward_v I I I I #
coedge $-1 $424 $422 $426 $607 reversed $251 $-1 #
edge $-1 $437 -18.492612639588174 $609 18.492612639588174 $436 $698 forward 7 unknown #
vertex $-1 $607 $699 #
straight-curve $-1 -5.4377322319313945 -12.06749216815998 0 0 0 -1 I I #
edge $-1 $605 -12.06749216815998 $609 12.06749216815998 $603 $700 forward 7 unknown #
straight-curve $-1 0 -12.06749216815998 -18.492612639588174 -1 0 0 I I #
vertex $-1 $429 $701 #
straight-curve $-1 0 12.06749216815998 -18.492612639588174 1 0 0 I I #
point $-1 5.4377322319313945 12.06749216815998 -18.492612639588174 #
point $-1 5.4377322319313945 -12.06749216815998 -18.492612639588174 #
straight-curve $-1 -5.4377322319313945 0 18.492612639588174 0 -1 0 I I #
point $-1 -5.4377322319313945 12.06749216815998 18.492612639588174 #
point $-1 -5.4377322319313945 -12.06749216815998 18.492612639588174 #
straight-curve $-1 5.4377322319313945 -12.06749216815998 0 0 0 -1 I I #
straight-curve $-1 5.4377322319313945 12.06749216815998 0 0 0 -1 I I #
plane-surface $-1 317.99798577837458 0 0 -1 0 0 0 0 1 forward_v I I I I #
coedge $-1 $451 $449 $453 $623 reversed $270 $-1 #
edge $-1 $464 -158.99899288918729 $625 158.99899288918729 $463 $702 forward 7 unknown #
vertex $-1 $623 $703 #
straight-curve $-1 -317.99798577837458 -3.6309268416370521 0 0 0 -1 I I #
edge $-1 $621 -3.6309268416370521 $625 3.6309268416370521 $619 $704 forward 7 unknown #
straight-curve $-1 0 -3.6309268416370521 -158.99899288918729 -1 0 0 I I #
vertex $-1 $456 $705 #
straight-curve $-1 0 3.6309268416370521 -158.99899288918729 1 0 0 I I #
point $-1 317.99798577837458 3.6309268416370521 -158.99899288918729 #
point $-1 317.99798577837458 -3.6309268416370521 -158.99899288918729 #
straight-curve $-1 -317.99798577837458 0 158.99899288918729 0 -1 0 I I #
point $-1 -317.99798577837458 3.6309268416370521 158.99899288918729 #
point $-1 -317.99798577837458 -3.6309268416370521 158.99899288918729 #
straight-curve $-1 317.99798577837458 -3.6309268416370521 0 0 0 -1 I I #
straight-curve $-1 317.99798577837458 3.6309268416370521 0 0 0 -1 I I #
edge $-1 $706 1 $706 0 $473 $-1 forward 7 unknown #
point $-1 1.5 0 -0.75 #
plane-surface $-1 317.99798577837458 0 0 -1 0 0 0 0 1 forward_v I I I I #
coedge $-1 $482 $480 $484 $641 reversed $294 $-1 #
edge $-1 $495 -158.99899288918729 $643 158.99899288918729 $494 $707 forward 7 unknown #
vertex $-1 $641 $708 #
straight-curve $-1 -317.99798577837458 -3.1557455017371332 0 0 0 -1 I I #
edge $-1 $639 -3.1557455017371332 $643 3.1557455017371332 $637 $709 forward 7 unknown #
straight-curve $-1 0 -3.1557455017371332 -158.99899288918729 -1 0 0 I I #
vertex $-1 $487 $710 #
straight-curve $-1 0 3.1557455017371332 -158.99899288918729 1 0 0 I I #
point $-1 317.99798577837458 3.1557455017371332 -158.99899288918729 #
point $-1 317.99798577837458 -3.1557455017371332 -158.99899288918729 #
straight-curve $-1 -317.99798577837458 0 158.99899288918729 0 -1 0 I I #
point $-1 -317.99798577837458 3.1557455017371332 158.99899288918729 #
point $-1 -317.99798577837458 -3.1557455017371332 158.99899288918729 #
straight-curve $-1 317.99798577837458 -3.1557455017371332 0 0 0 -1 I I #
straight-curve $-1 317.99798577837458 3.1557455017371332 0 0 0 -1 I I #
edge $-1 $711 1 $711 0 $504 $-1 forward 7 unknown #
point $-1 1.5 0 -0.75 #
plane-surface $-1 317.99798577837458 0 0 -1 0 0 0 0 1 forward_v I I I I #
coedge $-1 $513 $511 $515 $659 reversed $318 $-1 #
edge $-1 $526 -158.99899288918729 $661 158.99899288918729 $525 $712 forward 7 unknown #
vertex $-1 $659 $713 #
straight-curve $-1 -317.99798577837458 -3.1557455017371332 0 0 0 -1 I I #
edge $-1 $657 -3.1557455017371332 $661 3.1557455017371332 $655 $714 forward 7 unknown #
straight-curve $-1 0 -3.1557455017371332 -158.99899288918729 -1 0 0 I I #
vertex $-1 $518 $715 #
straight-curve $-1 0 3.1557455017371332 -158.99899288918729 1 0 0 I I #
point $-1 317.99798577837458 3.1557455017371332 -158.99899288918729 #
point $-1 317.99798577837458 -3.1557455017371332 -158.99899288918729 #
straight-curve $-1 -317.99798577837458 0 158.99899288918729 0 -1 0 I I #
point $-1 -317.99798577837458 3.1557455017371332 158.99899288918729 #
point $-1 -317.99798577837458 -3.1557455017371332 158.99899288918729 #
straight-curve $-1 317.99798577837458 -3.1557455017371332 0 0 0 -1 I I #
straight-curve $-1 317.99798577837458 3.1557455017371332 0 0 0 -1 I I #
edge $-1 $716 1 $716 0 $535 $-1 forward 7 unknown #
point $-1 1.5 0 -0.75 #
plane-surface $-1 317.99798577837458 0 0 -1 0 0 0 0 1 forward_v I I I I #
coedge $-1 $544 $542 $546 $677 reversed $342 $-1 #
edge $-1 $557 -158.99899288918729 $679 158.99899288918729 $556 $717 forward 7 unknown #
vertex $-1 $677 $718 #
straight-curve $-1 -317.99798577837458 -3.1557455017371332 0 0 0 -1 I I #
edge $-1 $675 -3.1557455017371332 $679 3.1557455017371332 $673 $719 forward 7 unknown #
straight-curve $-1 0 -3.1557455017371332 -158.99899288918729 -1 0 0 I I #
vertex $-1 $549 $720 #
straight-curve $-1 0 3.1557455017371332 -158.99899288918729 1 0 0 I I #
point $-1 317.99798577837458 3.1557455017371332 -158.99899288918729 #
point $-1 317.99798577837458 -3.1557455017371332 -158.99899288918729 #
straight-curve $-1 -317.99798577837458 0 158.99899288918729 0 -1 0 I I #
point $-1 -317.99798577837458 3.1557455017371332 158.99899288918729 #
point $-1 -317.99798577837458 -3.1557455017371332 158.99899288918729 #
straight-curve $-1 317.99798577837458 -3.1557455017371332 0 0 0 -1 I I #
straight-curve $-1 317.99798577837458 3.1557455017371332 0 0 0 -1 I I #
edge $-1 $721 1 $721 0 $566 $-1 forward 7 unknown #
point $-1 1.5 0 -0.75 #
straight-curve $-1 -79.499496444593646 39.819380338388008 0 0 0 -1 I I #
point $-1 -79.499496444593646 -39.819380338388008 -18.492612639588174 #
straight-curve $-1 -79.499496444593646 0 -18.492612639588174 0 1 0 I I #
point $-1 -79.499496444593646 39.819380338388008 -18.492612639588174 #
straight-curve $-1 -5.4377322319313945 12.067492168159983 0 0 0 -1 I I #
point $-1 -5.4377322319313945 -12.067492168159983 -18.492612639588174 #
straight-curve $-1 -5.4377322319313945 0 -18.492612639588174 0 1 0 I I #
point $-1 -5.4377322319313945 12.067492168159983 -18.492612639588174 #
straight-curve $-1 -5.4377322319313945 12.06749216815998 0 0 0 -1 I I #
point $-1 -5.4377322319313945 -12.06749216815998 -18.492612639588174 #
straight-curve $-1 -5.4377322319313945 0 -18.492612639588174 0 1 0 I I #
point $-1 -5.4377322319313945 12.06749216815998 -18.492612639588174 #
straight-curve $-1 -317.99798577837458 3.6309268416370521 0 0 0 -1 I I #
point $-1 -317.99798577837458 -3.6309268416370521 -158.99899288918729 #
straight-curve $-1 -317.99798577837458 0 -158.99899288918729 0 1 0 I I #
point $-1 -317.99798577837458 3.6309268416370521 -158.99899288918729 #
vertex $-1 $634 $722 #
straight-curve $-1 -317.99798577837458 3.1557455017371332 0 0 0 -1 I I #
point $-1 -317.99798577837458 -3.1557455017371332 -158.99899288918729 #
straight-curve $-1 -317.99798577837458 0 -158.99899288918729 0 1 0 I I #
point $-1 -317.99798577837458 3.1557455017371332 -158.99899288918729 #
vertex $-1 $652 $723 #
straight-curve $-1 -317.99798577837458 3.1557455017371332 0 0 0 -1 I I #
point $-1 -317.99798577837458 -3.1557455017371332 -158.99899288918729 #
straight-curve $-1 -317.99798577837458 0 -158.99899288918729 0 1 0 I I #
point $-1 -317.99798577837458 3.1557455017371332 -158.99899288918729 #
vertex $-1 $670 $724 #
straight-curve $-1 -317.99798577837458 3.1557455017371332 0 0 0 -1 I I #
point $-1 -317.99798577837458 -3.1557455017371332 -158.99899288918729 #
straight-curve $-1 -317.99798577837458 0 -158.99899288918729 0 1 0 I I #
point $-1 -317.99798577837458 3.1557455017371332 -158.99899288918729 #
vertex $-1 $688 $725 #
point $-1 0 0 0.75 #
point $-1 0 0 0.75 #
point $-1 0 0 0.75 #
point $-1 0 0 0.75 #
End-of-ACIS-data 