500 0 10 0           
7 Unknown 11 ACIS 5.0 NT 24 Fri Mar 26 17:31:40 1999 
-1 9.9999999999999995e-007 1e-010 
body $-1 $10 $-1 $11 #
body $-1 $12 $-1 $13 #
body $-1 $14 $-1 $15 #
body $-1 $16 $-1 $17 #
body $-1 $18 $-1 $19 #
body $-1 $20 $-1 $21 #
body $-1 $22 $-1 $23 #
body $-1 $24 $-1 $25 #
body $-1 $26 $-1 $27 #
body $-1 $28 $-1 $29 #
lump $-1 $-1 $30 $0 #
transform $-1 1 0 0 0 1 0 0 0 1 66.625568407238987 28.448489416161447 10.686394141293521 1 rotate no_reflect no_shear #
lump $-1 $-1 $31 $1 #
transform $-1 1 0 0 0 1 0 0 0 1 66.625568407238987 28.448489416161447 10.686394141293521 1 rotate no_reflect no_shear #
lump $-1 $-1 $32 $2 #
transform $-1 1 0 0 0 1 0 0 0 1 66.625568407238987 28.448489416161447 10.686394141293521 1 rotate no_reflect no_shear #
lump $-1 $-1 $33 $3 #
transform $-1 1 0 0 0 1 0 0 0 1 66.625568407238987 28.448489416161447 10.686394141293521 1 rotate no_reflect no_shear #
lump $-1 $-1 $34 $4 #
transform $-1 1 0 0 0 1 0 0 0 1 66.625568407238987 28.448489416161447 10.686394141293521 1 rotate no_reflect no_shear #
lump $-1 $-1 $35 $5 #
transform $-1 1 0 0 0 1 0 0 0 1 66.625568407238987 28.448489416161447 10.686394141293521 1 rotate no_reflect no_shear #
lump $-1 $-1 $36 $6 #
transform $-1 1 0 0 0 1 0 0 0 1 66.625568407238987 28.448489416161447 10.686394141293521 1 rotate no_reflect no_shear #
lump $-1 $-1 $37 $7 #
transform $-1 1 0 0 0 1 0 0 0 1 66.625568407238987 28.448489416161447 10.686394141293521 1 rotate no_reflect no_shear #
lump $-1 $-1 $38 $8 #
transform $-1 1 0 0 0 1 0 0 0 1 66.625568407238987 28.448489416161447 10.686394141293521 1 rotate no_reflect no_shear #
lump $-1 $-1 $39 $9 #
transform $-1 1 0 0 0 1 0 0 0 1 66.625568407238987 28.448489416161447 10.686394141293521 1 rotate no_reflect no_shear #
shell $-1 $-1 $-1 $40 $-1 $10 #
shell $-1 $-1 $-1 $41 $-1 $12 #
shell $-1 $-1 $-1 $42 $-1 $14 #
shell $-1 $-1 $-1 $43 $-1 $16 #
shell $-1 $-1 $-1 $44 $-1 $18 #
shell $-1 $-1 $-1 $45 $-1 $20 #
shell $-1 $-1 $-1 $46 $-1 $22 #
shell $-1 $-1 $-1 $47 $-1 $24 #
shell $-1 $-1 $-1 $48 $-1 $26 #
shell $-1 $-1 $-1 $49 $-1 $28 #
face $-1 $50 $51 $30 $-1 $52 forward single #
face $-1 $53 $54 $31 $-1 $55 reversed single #
face $-1 $56 $57 $32 $-1 $58 reversed single #
face $-1 $59 $60 $33 $-1 $61 forward single #
face $-1 $62 $63 $34 $-1 $64 forward single #
face $-1 $65 $66 $35 $-1 $67 forward single #
face $-1 $68 $69 $36 $-1 $70 reversed single #
face $-1 $71 $72 $37 $-1 $73 forward single #
face $-1 $74 $75 $38 $-1 $76 reversed single #
face $-1 $77 $78 $39 $-1 $79 forward single #
face $-1 $80 $81 $30 $-1 $82 reversed single #
loop $-1 $-1 $83 $40 #
plane-surface $-1 0 0 10.686394141293521 0 0 1 1 0 0 forward_v I I I I #
face $-1 $84 $85 $31 $-1 $86 reversed single #
loop $-1 $-1 $87 $41 #
plane-surface $-1 -59.946002967158122 -12.178701381653866 0 0 1 0 0 0 1 forward_v I I I I #
face $-1 $88 $89 $32 $-1 $90 reversed single #
loop $-1 $-1 $91 $42 #
plane-surface $-1 22.839183109676696 -106.77154348754488 108.06422173405608 -1 0 0 0 -0.5877852598018023 0.80901698891910034 forward_v I I I I #
face $-1 $92 $93 $33 $-1 $94 forward single #
loop $-1 $95 $96 $43 #
cone-surface $-1 12.34216543992234 -20.281609025184199 4.107672937009017 0 0.5877852598018023 -0.80901698891910034 1 0 0 1 I I 0 1 1 forward I I I I #
face $-1 $97 $98 $34 $-1 $99 forward single #
loop $-1 $100 $101 $44 #
cone-surface $-1 16.278547066080222 -20.281609025184199 4.107672937009017 0 0.5877852598018023 -0.80901698891910034 1 0 0 1 I I 0 1 1 forward I I I I #
face $-1 $102 $103 $35 $-1 $104 forward single #
loop $-1 $105 $106 $45 #
cone-surface $-1 20.214928692238104 -20.281609025184199 4.107672937009017 0 0.5877852598018023 -0.80901698891910034 1 0 0 1 I I 0 1 1 forward I I I I #
face $-1 $107 $108 $36 $-1 $109 reversed single #
loop $-1 $-1 $110 $46 #
plane-surface $-1 -16.927454826883309 107.10230338602126 121.73982444933124 1 0 0 0 -0.82903758062907751 -0.55919289150049634 forward_v I I I I #
face $-1 $111 $112 $37 $-1 $113 forward single #
loop $-1 $114 $115 $47 #
cone-surface $-1 -5.1239446934012278 23.697590797905875 4.5851598841488821 0 -0.82903758062907751 -0.55919289150049634 2.5 0 0 1 I I 0 1 2.5 forward I I I I #
face $-1 $116 $117 $38 $-1 $118 reversed single #
loop $-1 $-1 $119 $48 #
plane-surface $-1 -5.1239446934012278 -3.3678966947277615 47.226735958315061 0 0.82903758062907751 0.55919289150049634 1 0 0 forward_v I I I I #
face $-1 $120 $121 $39 $-1 $122 forward single #
loop $-1 $123 $124 $49 #
cone-surface $-1 18.483075573562942 23.697590797905875 4.5851598841488821 0 -0.82903758062907751 -0.55919289150049634 2.5 0 0 1 I I 0 1 2.5 forward I I I I #
face $-1 $125 $126 $30 $-1 $127 reversed single #
loop $-1 $-1 $128 $50 #
plane-surface $-1 0 0 -10.686394141293521 0 0 1 1 0 0 forward_v I I I I #
coedge $-1 $129 $130 $131 $132 forward $51 $-1 #
face $-1 $133 $134 $31 $-1 $135 reversed single #
loop $-1 $-1 $136 $53 #
plane-surface $-1 -59.946002967158122 -7.0757011335744053 0 0 -1 0 0 0 -1 forward_v I I I I #
coedge $-1 $137 $138 $139 $140 reversed $54 $-1 #
face $-1 $141 $142 $32 $-1 $143 reversed single #
loop $-1 $-1 $144 $56 #
plane-surface $-1 16.278547066080222 -28.448489416161436 0.26178825836002773 0 -0.5877852598018023 0.80901698891910034 1 0 0 forward_v I I I I #
coedge $-1 $145 $146 $147 $148 reversed $57 $-1 #
face $-1 $-1 $149 $33 $-1 $150 forward single #
loop $-1 $151 $152 $59 #
cone-surface $-1 12.34216543992234 -18.994955396924855 2.3367461797316995 0 0.5877852598018023 -0.80901698891910034 0.5 0 0 1 I I -0.70710678118654746 0.70710678118654746 0.5 forward I I I I #
loop $-1 $-1 $153 $43 #
coedge $-1 $96 $96 $154 $155 reversed $60 $-1 #
face $-1 $-1 $156 $34 $-1 $157 forward single #
loop $-1 $158 $159 $62 #
cone-surface $-1 16.278547066080222 -18.994955396924855 2.3367461797316995 0 0.5877852598018023 -0.80901698891910034 0.5 0 0 1 I I -0.70710678118654746 0.70710678118654746 0.5 forward I I I I #
loop $-1 $-1 $160 $44 #
coedge $-1 $101 $101 $161 $162 reversed $63 $-1 #
face $-1 $-1 $163 $35 $-1 $164 forward single #
loop $-1 $165 $166 $65 #
cone-surface $-1 20.214928692238104 -18.994955396924855 2.3367461797316995 0 0.5877852598018023 -0.80901698891910034 0.5 0 0 1 I I -0.70710678118654746 0.70710678118654746 0.5 forward I I I I #
loop $-1 $-1 $167 $45 #
coedge $-1 $106 $106 $168 $169 reversed $66 $-1 #
face $-1 $170 $171 $36 $-1 $172 reversed single #
loop $-1 $-1 $173 $68 #
plane-surface $-1 -5.1239446934012278 -3.3678966947277615 47.226735958315061 0 0.82903758062907751 0.55919289150049634 1 0 0 forward_v I I I I #
coedge $-1 $174 $175 $176 $177 reversed $69 $-1 #
face $-1 $-1 $178 $37 $-1 $179 forward single #
loop $-1 $180 $181 $71 #
cone-surface $-1 -5.1239446934012278 21.495202761167402 3.0996304422442389 0 -0.82903758062907751 -0.55919289150049634 1.25 0 0 1 I I -0.70710678118654746 0.70710678118654746 1.25 forward I I I I #
loop $-1 $-1 $182 $47 #
coedge $-1 $115 $115 $183 $184 reversed $72 $-1 #
face $-1 $185 $186 $38 $-1 $187 reversed single #
loop $-1 $-1 $188 $74 #
plane-surface $-1 30.286585707045024 107.10230338602126 121.73982444933124 -1 0 0 0 0.82903758062907751 0.55919289150049634 forward_v I I I I #
coedge $-1 $189 $190 $191 $192 reversed $75 $-1 #
face $-1 $-1 $193 $39 $-1 $194 forward single #
loop $-1 $195 $196 $77 #
cone-surface $-1 18.483075573562942 21.495202761167402 3.0996304422442389 0 -0.82903758062907751 -0.55919289150049634 1.25 0 0 1 I I -0.70710678118654746 0.70710678118654746 1.25 forward I I I I #
loop $-1 $-1 $197 $49 #
coedge $-1 $124 $124 $198 $199 reversed $78 $-1 #
face $-1 $200 $201 $30 $-1 $202 reversed single #
loop $-1 $-1 $203 $80 #
plane-surface $-1 0 -28.448489416161447 0 0 1 0 0 0 1 forward_v I I I I #
coedge $-1 $204 $205 $206 $207 forward $81 $-1 #
coedge $-1 $208 $83 $209 $210 forward $51 $-1 #
coedge $-1 $83 $208 $211 $212 forward $51 $-1 #
coedge $-1 $213 $214 $83 $132 reversed $215 $-1 #
edge $-1 $216 -28.448489416161447 $217 28.448489416161447 $131 $218 forward 7 unknown #
face $-1 $219 $220 $31 $-1 $221 reversed single #
loop $-1 $-1 $222 $84 #
plane-surface $-1 -53.266437527077258 -9.6272012576141357 0 -1 0 0 0 0 1 forward_v I I I I #
coedge $-1 $223 $224 $225 $226 forward $85 $-1 #
coedge $-1 $227 $87 $228 $229 reversed $54 $-1 #
coedge $-1 $87 $227 $230 $231 reversed $54 $-1 #
coedge $-1 $232 $233 $87 $140 forward $234 $-1 #
edge $-1 $235 -10.686394141293521 $236 10.686394141293521 $139 $237 forward 7 unknown #
face $-1 $238 $239 $32 $-1 $240 reversed single #
loop $-1 $-1 $241 $88 #
plane-surface $-1 9.7179110224837473 -106.77154348754488 108.06422173405608 1 0 0 0 0.5877852598018023 -0.80901698891910034 forward_v I I I I #
coedge $-1 $242 $243 $244 $245 reversed $89 $-1 #
coedge $-1 $146 $91 $246 $247 reversed $57 $-1 #
coedge $-1 $91 $145 $242 $248 reversed $57 $-1 #
coedge $-1 $244 $249 $91 $148 forward $250 $-1 #
edge $-1 $251 24.937282327610991 $252 39.285521112848627 $147 $253 forward 7 unknown #
loop $-1 $-1 $154 $92 #
plane-surface $-1 16.278547066080222 -28.448489416161436 0.26178825836002773 0 -0.5877852598018023 0.80901698891910034 1 0 0 forward_v I I I I #
loop $-1 $-1 $254 $59 #
coedge $-1 $152 $152 $153 $255 reversed $93 $-1 #
coedge $-1 $153 $153 $152 $255 forward $95 $-1 #
coedge $-1 $154 $154 $96 $155 forward $149 $-1 #
edge $-1 $256 -2.0997755945312628e-015 $256 6.2831853071795987 $154 $257 forward 7 unknown #
loop $-1 $-1 $161 $97 #
plane-surface $-1 16.278547066080222 -28.448489416161436 0.26178825836002773 0 -0.5877852598018023 0.80901698891910034 1 0 0 forward_v I I I I #
loop $-1 $-1 $258 $62 #
coedge $-1 $159 $159 $160 $259 reversed $98 $-1 #
coedge $-1 $160 $160 $159 $259 forward $100 $-1 #
coedge $-1 $161 $161 $101 $162 forward $156 $-1 #
edge $-1 $260 -2.0997755945312628e-015 $260 6.2831853071795987 $161 $261 forward 7 unknown #
loop $-1 $-1 $168 $102 #
plane-surface $-1 16.278547066080222 -28.448489416161436 0.26178825836002773 0 -0.5877852598018023 0.80901698891910034 1 0 0 forward_v I I I I #
loop $-1 $-1 $262 $65 #
coedge $-1 $166 $166 $167 $263 reversed $103 $-1 #
coedge $-1 $167 $167 $166 $263 forward $105 $-1 #
coedge $-1 $168 $168 $106 $169 forward $163 $-1 #
edge $-1 $264 -2.0997755945312628e-015 $264 6.2831853071795987 $168 $265 forward 7 unknown #
face $-1 $266 $267 $36 $-1 $268 reversed single #
loop $-1 $-1 $269 $107 #
plane-surface $-1 6.6795654400808537 107.10230338602126 121.73982444933124 -1 0 0 0 0.82903758062907751 0.55919289150049634 forward_v I I I I #
coedge $-1 $270 $271 $272 $273 reversed $108 $-1 #
coedge $-1 $175 $110 $274 $275 reversed $69 $-1 #
coedge $-1 $110 $174 $270 $276 reversed $69 $-1 #
coedge $-1 $272 $277 $110 $177 forward $278 $-1 #
edge $-1 $279 25.102662276849184 $280 32.272277391456115 $176 $281 forward 7 unknown #
loop $-1 $-1 $183 $111 #
plane-surface $-1 -5.1239446934012278 -3.3678966947277615 47.226735958315061 0 0.82903758062907751 0.55919289150049634 1 0 0 forward_v I I I I #
loop $-1 $-1 $282 $71 #
coedge $-1 $181 $181 $182 $283 reversed $112 $-1 #
coedge $-1 $182 $182 $181 $283 forward $114 $-1 #
coedge $-1 $183 $183 $115 $184 forward $178 $-1 #
edge $-1 $284 7.8887031983638589e-016 $284 6.2831853071796013 $183 $285 forward 7 unknown #
face $-1 $286 $287 $38 $-1 $288 forward single #
loop $-1 $-1 $289 $116 #
plane-surface $-1 0 28.448489416161447 0 0 -1 0 0 0 -1 forward_v I I I I #
coedge $-1 $290 $291 $292 $293 reversed $117 $-1 #
coedge $-1 $294 $119 $295 $296 reversed $75 $-1 #
coedge $-1 $119 $294 $297 $298 reversed $75 $-1 #
coedge $-1 $299 $300 $119 $192 forward $287 $-1 #
edge $-1 $301 -56.896978832322965 $302 -44.0756157149047 $191 $303 forward 7 unknown #
loop $-1 $-1 $198 $120 #
plane-surface $-1 -5.1239446934012278 -3.3678966947277615 47.226735958315061 0 0.82903758062907751 0.55919289150049634 1 0 0 forward_v I I I I #
loop $-1 $-1 $304 $77 #
coedge $-1 $196 $196 $197 $305 reversed $121 $-1 #
coedge $-1 $197 $197 $196 $305 forward $123 $-1 #
coedge $-1 $198 $198 $124 $199 forward $193 $-1 #
edge $-1 $306 7.8887031983638589e-016 $306 6.2831853071796013 $198 $307 forward 7 unknown #
face $-1 $308 $309 $30 $-1 $310 reversed single #
loop $-1 $-1 $311 $125 #
plane-surface $-1 -66.625568407238987 0 0 1 0 0 0 0 -1 forward_v I I I I #
coedge $-1 $312 $211 $313 $314 forward $126 $-1 #
coedge $-1 $315 $128 $312 $316 forward $81 $-1 #
coedge $-1 $128 $315 $317 $318 forward $81 $-1 #
coedge $-1 $214 $213 $128 $207 reversed $215 $-1 #
edge $-1 $319 -28.448489416161447 $320 28.448489416161447 $206 $321 forward 7 unknown #
coedge $-1 $130 $129 $322 $323 forward $51 $-1 #
coedge $-1 $324 $325 $129 $210 reversed $309 $-1 #
edge $-1 $217 -66.625568407238987 $326 66.625568407238987 $209 $327 forward 7 unknown #
coedge $-1 $203 $328 $130 $212 reversed $126 $-1 #
edge $-1 $329 -66.625568407238987 $216 66.625568407238987 $211 $330 forward 7 unknown #
coedge $-1 $206 $131 $328 $331 forward $215 $-1 #
coedge $-1 $131 $206 $324 $332 reversed $215 $-1 #
loop $-1 $-1 $213 $308 #
vertex $-1 $132 $333 #
vertex $-1 $132 $334 #
straight-curve $-1 66.625568407238987 0 10.686394141293521 0 1 0 I I #
face $-1 $335 $336 $31 $-1 $337 forward single #
loop $-1 $-1 $338 $133 #
plane-surface $-1 0 0 -10.686394141293521 0 0 1 1 0 0 forward_v I I I I #
coedge $-1 $339 $340 $227 $341 forward $134 $-1 #
coedge $-1 $342 $136 $338 $343 reversed $85 $-1 #
coedge $-1 $136 $342 $344 $345 reversed $85 $-1 #
coedge $-1 $340 $339 $136 $226 reversed $134 $-1 #
edge $-1 $346 -10.686394141293521 $347 10.686394141293521 $225 $348 forward 7 unknown #
coedge $-1 $138 $137 $222 $341 reversed $54 $-1 #
coedge $-1 $349 $350 $137 $229 forward $220 $-1 #
edge $-1 $351 23.293436043498197 $235 36.652566923659926 $228 $352 forward 7 unknown #
coedge $-1 $353 $354 $138 $231 forward $336 $-1 #
edge $-1 $236 -36.652566923659926 $355 -23.293436043498197 $230 $356 forward 7 unknown #
coedge $-1 $357 $139 $354 $358 reversed $234 $-1 #
coedge $-1 $139 $357 $349 $359 reversed $234 $-1 #
loop $-1 $-1 $357 $335 #
vertex $-1 $359 $360 #
vertex $-1 $140 $361 #
straight-curve $-1 -66.625568407238987 -12.178701381653866 0 0 0 1 I I #
face $-1 $-1 $250 $32 $-1 $362 forward single #
loop $-1 $-1 $363 $141 #
plane-surface $-1 0 -28.448489416161447 0 0 1 0 0 0 1 forward_v I I I I #
coedge $-1 $364 $365 $366 $367 reversed $142 $-1 #
coedge $-1 $368 $144 $146 $248 forward $89 $-1 #
coedge $-1 $144 $368 $364 $369 forward $89 $-1 #
coedge $-1 $366 $147 $144 $245 forward $250 $-1 #
edge $-1 $252 -14.699909576636585 $370 -1.5786374894436364 $244 $371 forward 7 unknown #
coedge $-1 $372 $373 $145 $247 forward $239 $-1 #
edge $-1 $374 -53.770322608668017 $251 -43.345716725734519 $246 $375 forward 7 unknown #
edge $-1 $252 -17.735398615556655 $374 1.3157997635066964e-014 $146 $376 forward 7 unknown #
coedge $-1 $147 $366 $372 $377 forward $250 $-1 #
loop $-1 $-1 $366 $238 #
vertex $-1 $247 $378 #
vertex $-1 $148 $379 #
straight-curve $-1 22.839183109676696 -53.385771743772438 10.686394141293519 0 1 0 I I #
coedge $-1 $254 $254 $-1 $380 reversed $151 $-1 #
edge $-1 $381 0 $381 6.2831853071796004 $152 $382 forward 7 unknown #
vertex $-1 $155 $383 #
ellipse-curve $-1 12.34216543992234 -21.27437002354263 5.4740911998267681 0 -0.5877852598018023 0.80901698891910034 1 0 0 1 I I #
coedge $-1 $258 $258 $-1 $384 reversed $158 $-1 #
edge $-1 $385 0 $385 6.2831853071796004 $159 $386 forward 7 unknown #
vertex $-1 $162 $387 #
ellipse-curve $-1 16.278547066080222 -21.27437002354263 5.4740911998267681 0 -0.5877852598018023 0.80901698891910034 1 0 0 1 I I #
coedge $-1 $262 $262 $-1 $388 reversed $165 $-1 #
edge $-1 $389 0 $389 6.2831853071796004 $166 $390 forward 7 unknown #
vertex $-1 $169 $391 #
ellipse-curve $-1 20.214928692238104 -21.27437002354263 5.4740911998267681 0 -0.5877852598018023 0.80901698891910034 1 0 0 1 I I #
face $-1 $-1 $278 $36 $-1 $392 forward single #
loop $-1 $-1 $393 $170 #
plane-surface $-1 0 28.448489416161447 0 0 -1 0 0 0 -1 forward_v I I I I #
coedge $-1 $394 $395 $396 $397 reversed $171 $-1 #
coedge $-1 $398 $173 $175 $276 forward $108 $-1 #
coedge $-1 $173 $398 $394 $399 forward $108 $-1 #
coedge $-1 $396 $176 $173 $273 forward $278 $-1 #
edge $-1 $280 -14.365482480182695 $400 9.2415377867814676 $272 $401 forward 7 unknown #
coedge $-1 $402 $403 $174 $275 forward $267 $-1 #
edge $-1 $404 -60.812909942603419 $279 -50.1835180833721 $274 $405 forward 7 unknown #
edge $-1 $280 44.0756157149047 $404 56.896978832322965 $175 $406 forward 7 unknown #
coedge $-1 $176 $396 $402 $407 forward $278 $-1 #
loop $-1 $-1 $396 $266 #
vertex $-1 $275 $408 #
vertex $-1 $177 $409 #
straight-curve $-1 -16.927454826883309 53.551151693010631 10.686394141293519 0 -1 0 I I #
coedge $-1 $282 $282 $-1 $410 reversed $180 $-1 #
edge $-1 $411 0 $411 6.2831853071796004 $181 $412 forward 7 unknown #
vertex $-1 $184 $413 #
ellipse-curve $-1 -5.1239446934012278 24.863681858857966 5.3716982116778809 0 0.82903758062907751 0.55919289150049634 2.5 0 0 1 I I #
face $-1 $-1 $414 $38 $-1 $415 forward single #
loop $-1 $-1 $299 $185 #
plane-surface $-1 6.6795654400808537 107.10230338602126 121.73982444933124 -1 0 0 0 0.82903758062907751 0.55919289150049634 forward_v I I I I #
coedge $-1 $295 $416 $291 $417 forward $186 $-1 #
coedge $-1 $291 $188 $294 $418 reversed $117 $-1 #
coedge $-1 $188 $290 $289 $417 reversed $117 $-1 #
coedge $-1 $419 $297 $188 $293 forward $414 $-1 #
edge $-1 $420 -32.272277391456115 $421 -25.102662276849184 $292 $422 forward 7 unknown #
coedge $-1 $190 $189 $290 $418 forward $75 $-1 #
coedge $-1 $423 $289 $189 $296 forward $186 $-1 #
edge $-1 $424 -32.848558053745634 $301 -9.2415377867814676 $295 $425 forward 7 unknown #
coedge $-1 $292 $426 $190 $298 forward $414 $-1 #
edge $-1 $302 9.2415377867814676 $420 32.848558053745634 $297 $427 forward 7 unknown #
coedge $-1 $300 $191 $426 $428 reversed $287 $-1 #
coedge $-1 $191 $299 $423 $429 reversed $287 $-1 #
vertex $-1 $296 $430 #
vertex $-1 $298 $431 #
straight-curve $-1 6.6795654400808537 -3.3678966947277615 47.226735958315061 0 -0.55919289150049634 0.82903758062907751 I I #
coedge $-1 $304 $304 $-1 $432 reversed $195 $-1 #
edge $-1 $433 0 $433 6.2831853071796004 $196 $434 forward 7 unknown #
vertex $-1 $199 $435 #
ellipse-curve $-1 18.483075573562942 24.863681858857966 5.3716982116778809 0 0.82903758062907751 0.55919289150049634 2.5 0 0 1 I I #
face $-1 $-1 $215 $30 $-1 $436 reversed single #
loop $-1 $-1 $324 $200 #
plane-surface $-1 0 28.448489416161447 0 0 -1 0 0 0 -1 forward_v I I I I #
coedge $-1 $437 $322 $325 $438 forward $201 $-1 #
coedge $-1 $328 $203 $204 $316 reversed $126 $-1 #
coedge $-1 $322 $437 $203 $314 reversed $201 $-1 #
edge $-1 $329 -10.686394141293521 $439 10.686394141293521 $313 $440 forward 7 unknown #
coedge $-1 $205 $204 $437 $441 forward $81 $-1 #
edge $-1 $320 -66.625568407238987 $439 66.625568407238987 $312 $442 forward 7 unknown #
coedge $-1 $325 $324 $205 $318 reversed $309 $-1 #
edge $-1 $443 -66.625568407238987 $319 66.625568407238987 $317 $444 forward 7 unknown #
vertex $-1 $207 $445 #
vertex $-1 $331 $446 #
straight-curve $-1 66.625568407238987 0 -10.686394141293521 0 -1 0 I I #
coedge $-1 $311 $313 $208 $323 reversed $201 $-1 #
edge $-1 $326 -28.448489416161447 $329 28.448489416161447 $322 $447 forward 7 unknown #
coedge $-1 $317 $209 $214 $332 forward $309 $-1 #
coedge $-1 $209 $317 $311 $438 reversed $309 $-1 #
vertex $-1 $210 $448 #
straight-curve $-1 0 28.448489416161447 10.686394141293521 -1 0 0 I I #
coedge $-1 $211 $312 $213 $331 reversed $126 $-1 #
vertex $-1 $323 $449 #
straight-curve $-1 0 -28.448489416161447 10.686394141293521 1 0 0 I I #
edge $-1 $216 -10.686394141293521 $320 10.686394141293521 $213 $450 forward 7 unknown #
edge $-1 $217 -10.686394141293521 $319 10.686394141293521 $214 $451 forward 7 unknown #
point $-1 66.625568407238987 -28.448489416161447 10.686394141293521 #
point $-1 66.625568407238987 28.448489416161447 10.686394141293521 #
face $-1 $-1 $234 $31 $-1 $452 reversed single #
loop $-1 $-1 $344 $219 #
plane-surface $-1 0 0 10.686394141293521 0 0 1 1 0 0 forward_v I I I I #
coedge $-1 $350 $349 $223 $343 forward $220 $-1 #
coedge $-1 $225 $222 $350 $453 reversed $134 $-1 #
coedge $-1 $222 $225 $353 $454 reversed $134 $-1 #
edge $-1 $355 -10.686394141293521 $351 10.686394141293521 $222 $455 forward 7 unknown #
coedge $-1 $224 $223 $357 $456 reversed $85 $-1 #
edge $-1 $457 -36.652566923659926 $347 -23.293436043498197 $338 $458 forward 7 unknown #
coedge $-1 $354 $353 $224 $345 forward $336 $-1 #
edge $-1 $346 23.293436043498197 $459 36.652566923659926 $344 $460 forward 7 unknown #
vertex $-1 $345 $461 #
vertex $-1 $343 $462 #
straight-curve $-1 -53.266437527077258 -7.0757011335744053 0 0 0 -1 I I #
coedge $-1 $338 $228 $233 $359 forward $220 $-1 #
coedge $-1 $228 $338 $339 $453 forward $220 $-1 #
vertex $-1 $229 $463 #
straight-curve $-1 -29.973001483579061 -12.178701381653866 -10.686394141293521 -1 0 0 I I #
coedge $-1 $344 $230 $340 $454 forward $336 $-1 #
coedge $-1 $230 $344 $232 $358 forward $336 $-1 #
vertex $-1 $231 $464 #
straight-curve $-1 -29.973001483579061 -12.178701381653866 10.686394141293521 1 0 0 I I #
coedge $-1 $233 $232 $342 $456 forward $234 $-1 #
edge $-1 $459 7.0757011335744053 $236 12.178701381653866 $232 $465 forward 7 unknown #
edge $-1 $235 -12.178701381653866 $457 -7.0757011335744053 $233 $466 forward 7 unknown #
point $-1 -66.625568407238987 -12.178701381653866 -10.686394141293521 #
point $-1 -66.625568407238987 -12.178701381653866 10.686394141293521 #
plane-surface $-1 0 0 10.686394141293521 0 0 1 1 0 0 forward_v I I I I #
coedge $-1 $373 $372 $365 $467 forward $239 $-1 #
coedge $-1 $365 $241 $243 $369 reversed $142 $-1 #
coedge $-1 $241 $364 $363 $467 reversed $142 $-1 #
coedge $-1 $249 $244 $241 $367 forward $250 $-1 #
edge $-1 $370 -39.285521112848627 $468 -24.937282327610991 $366 $469 forward 7 unknown #
coedge $-1 $243 $242 $373 $470 reversed $89 $-1 #
edge $-1 $471 -1.3157997635066964e-014 $370 17.735398615556655 $364 $472 forward 7 unknown #
vertex $-1 $245 $473 #
straight-curve $-1 8.1392735330401109 -14.100250630923814 10.686394141293521 -1 0 0 I I #
coedge $-1 $363 $246 $249 $377 reversed $239 $-1 #
coedge $-1 $246 $363 $368 $470 forward $239 $-1 #
vertex $-1 $247 $474 #
straight-curve $-1 22.839183109676696 -28.448489416161451 54.032110867028038 0 0 1 I I #
straight-curve $-1 22.839183109676696 -28.448489416161436 0.26178825836002773 0 -0.80901698891910034 -0.5877852598018023 I I #
edge $-1 $468 9.7179110224837473 $251 22.839183109676696 $372 $475 forward 7 unknown #
point $-1 22.839183109676696 -28.448489416161447 10.686394141293521 #
point $-1 22.839183109676696 -14.10025063092381 10.686394141293521 #
edge $-1 $476 1 $476 0 $254 $-1 forward 7 unknown #
vertex $-1 $255 $477 #
ellipse-curve $-1 12.34216543992234 -19.288848026825757 2.7412546741912496 0 -0.5877852598018023 0.80901698891910034 1 0 0 1 I I #
point $-1 13.34216543992234 -21.274370023542645 5.474091199826784 #
edge $-1 $478 1 $478 0 $258 $-1 forward 7 unknown #
vertex $-1 $259 $479 #
ellipse-curve $-1 16.278547066080222 -19.288848026825757 2.7412546741912496 0 -0.5877852598018023 0.80901698891910034 1 0 0 1 I I #
point $-1 17.278547066080222 -21.274370023542645 5.474091199826784 #
edge $-1 $480 1 $480 0 $262 $-1 forward 7 unknown #
vertex $-1 $263 $481 #
ellipse-curve $-1 20.214928692238104 -19.288848026825757 2.7412546741912496 0 -0.5877852598018023 0.80901698891910034 1 0 0 1 I I #
point $-1 21.214928692238104 -21.274370023542645 5.474091199826784 #
plane-surface $-1 0 0 10.686394141293521 0 0 1 1 0 0 forward_v I I I I #
coedge $-1 $403 $402 $395 $482 forward $267 $-1 #
coedge $-1 $395 $269 $271 $399 reversed $171 $-1 #
coedge $-1 $269 $394 $393 $482 reversed $171 $-1 #
coedge $-1 $277 $272 $269 $397 forward $278 $-1 #
edge $-1 $400 -32.272277391456115 $483 -25.102662276849184 $396 $484 forward 7 unknown #
coedge $-1 $271 $270 $403 $485 reversed $108 $-1 #
edge $-1 $486 -56.896978832322965 $400 -44.0756157149047 $394 $487 forward 7 unknown #
vertex $-1 $273 $488 #
straight-curve $-1 -2.5619723467006139 21.278874301554513 10.686394141293519 1 0 0 I I #
coedge $-1 $393 $274 $277 $407 reversed $267 $-1 #
coedge $-1 $274 $393 $398 $485 forward $267 $-1 #
vertex $-1 $275 $489 #
straight-curve $-1 -16.927454826883309 28.448489416161451 60.869912224665619 0 0 1 I I #
straight-curve $-1 -16.927454826883309 -3.3678966947277615 47.226735958315061 0 0.55919289150049634 -0.82903758062907751 I I #
edge $-1 $483 -6.6795654400808537 $279 16.927454826883309 $402 $490 forward 7 unknown #
point $-1 -16.927454826883309 28.448489416161447 10.686394141293521 #
point $-1 -16.927454826883309 21.278874301554513 10.686394141293519 #
edge $-1 $491 1 $491 0 $282 $-1 forward 7 unknown #
vertex $-1 $283 $492 #
ellipse-curve $-1 -5.1239446934012278 22.531499736953748 3.7986215566198593 0 0.82903758062907751 0.55919289150049634 2.5 0 0 1 I I #
point $-1 -2.6239446934012278 24.863681858858005 5.3716982116779048 #
loop $-1 $-1 $292 $286 #
plane-surface $-1 0 0 10.686394141293521 0 0 1 1 0 0 forward_v I I I I #
coedge $-1 $289 $423 $419 $493 reversed $186 $-1 #
edge $-1 $421 50.1835180833721 $424 60.812909942603419 $289 $494 forward 7 unknown #
edge $-1 $424 -56.896978832322965 $420 -44.0756157149047 $290 $495 forward 7 unknown #
coedge $-1 $426 $292 $416 $493 forward $414 $-1 #
vertex $-1 $293 $496 #
vertex $-1 $493 $497 #
straight-curve $-1 30.286585707045024 53.551151693010631 10.686394141293519 0 1 0 I I #
coedge $-1 $416 $295 $300 $429 forward $186 $-1 #
vertex $-1 $417 $498 #
straight-curve $-1 -2.5619723467006139 28.448489416161451 0.057002282062196485 -1 0 0 I I #
coedge $-1 $297 $419 $299 $428 forward $414 $-1 #
straight-curve $-1 -2.5619723467006139 21.278874301554513 10.686394141293519 1 0 0 I I #
edge $-1 $499 25.102662276849184 $302 32.272277391456115 $426 $500 forward 7 unknown #
edge $-1 $301 -60.812909942603419 $499 -50.1835180833721 $423 $501 forward 7 unknown #
point $-1 6.6795654400808537 28.448489416161447 0.057002282062200038 #
point $-1 6.6795654400808537 21.278874301554513 10.686394141293519 #
edge $-1 $502 1 $502 0 $304 $-1 forward 7 unknown #
vertex $-1 $305 $503 #
ellipse-curve $-1 18.483075573562942 22.531499736953748 3.7986215566198593 0 0.82903758062907751 0.55919289150049634 2.5 0 0 1 I I #
point $-1 20.983075573562942 24.863681858858005 5.3716982116779048 #
plane-surface $-1 66.625568407238987 0 0 -1 0 0 0 0 1 forward_v I I I I #
coedge $-1 $313 $311 $315 $441 reversed $201 $-1 #
edge $-1 $326 -10.686394141293521 $443 10.686394141293521 $325 $504 forward 7 unknown #
vertex $-1 $441 $505 #
straight-curve $-1 -66.625568407238987 -28.448489416161447 0 0 0 -1 I I #
edge $-1 $439 -28.448489416161447 $443 28.448489416161447 $437 $506 forward 7 unknown #
straight-curve $-1 0 -28.448489416161447 -10.686394141293521 -1 0 0 I I #
vertex $-1 $318 $507 #
straight-curve $-1 0 28.448489416161447 -10.686394141293521 1 0 0 I I #
point $-1 66.625568407238987 28.448489416161447 -10.686394141293521 #
point $-1 66.625568407238987 -28.448489416161447 -10.686394141293521 #
straight-curve $-1 -66.625568407238987 0 10.686394141293521 0 -1 0 I I #
point $-1 -66.625568407238987 28.448489416161447 10.686394141293521 #
point $-1 -66.625568407238987 -28.448489416161447 10.686394141293521 #
straight-curve $-1 66.625568407238987 -28.448489416161447 0 0 0 -1 I I #
straight-curve $-1 66.625568407238987 28.448489416161447 0 0 0 -1 I I #
plane-surface $-1 -66.625568407238987 0 0 1 0 0 0 0 -1 forward_v I I I I #
edge $-1 $347 2.2621005047673375 $351 7.3651007528467982 $350 $508 forward 7 unknown #
edge $-1 $355 -7.3651007528467982 $346 -2.2621005047673375 $353 $509 forward 7 unknown #
straight-curve $-1 -53.266437527077258 -12.178701381653866 0 0 0 -1 I I #
edge $-1 $459 -10.686394141293521 $457 10.686394141293521 $357 $510 forward 7 unknown #
vertex $-1 $456 $511 #
straight-curve $-1 -29.973001483579061 -7.0757011335744053 -10.686394141293521 1 0 0 I I #
vertex $-1 $358 $512 #
straight-curve $-1 -29.973001483579061 -7.0757011335744053 10.686394141293521 -1 0 0 I I #
point $-1 -53.266437527077258 -7.0757011335744053 10.686394141293521 #
point $-1 -53.266437527077258 -7.0757011335744053 -10.686394141293521 #
point $-1 -53.266437527077258 -12.178701381653866 -10.686394141293521 #
point $-1 -53.266437527077258 -12.178701381653866 10.686394141293521 #
straight-curve $-1 -66.625568407238987 0 10.686394141293521 0 -1 0 I I #
straight-curve $-1 -66.625568407238987 0 -10.686394141293521 0 1 0 I I #
edge $-1 $468 43.345716725734519 $471 53.770322608668017 $363 $513 forward 7 unknown #
vertex $-1 $377 $514 #
straight-curve $-1 9.7179110224837473 -53.385771743772438 10.686394141293519 0 -1 0 I I #
edge $-1 $471 1.5786374894436364 $374 14.699909576636585 $373 $515 forward 7 unknown #
vertex $-1 $470 $516 #
straight-curve $-1 9.7179110224837473 -28.448489416161436 0.26178825836002773 0 0.80901698891910034 0.5877852598018023 I I #
point $-1 9.7179110224837473 -14.10025063092381 10.686394141293521 #
point $-1 22.839183109676696 -28.448489416161447 0.26178825836002001 #
straight-curve $-1 0 -28.448489416161447 10.686394141293521 1 0 0 I I #
vertex $-1 $380 $517 #
point $-1 13.34216543992234 -19.288848026825757 2.7412546741912496 #
vertex $-1 $384 $518 #
point $-1 17.278547066080222 -19.288848026825757 2.7412546741912496 #
vertex $-1 $388 $519 #
point $-1 21.214928692238104 -19.288848026825757 2.7412546741912496 #
edge $-1 $483 50.1835180833721 $486 60.812909942603419 $393 $520 forward 7 unknown #
vertex $-1 $407 $521 #
straight-curve $-1 6.6795654400808537 53.551151693010631 10.686394141293519 0 1 0 I I #
edge $-1 $486 -9.2415377867814676 $404 14.365482480182695 $403 $522 forward 7 unknown #
vertex $-1 $485 $523 #
straight-curve $-1 6.6795654400808537 -3.3678966947277615 47.226735958315061 0 -0.55919289150049634 0.82903758062907751 I I #
point $-1 6.6795654400808537 21.278874301554513 10.686394141293519 #
point $-1 -16.927454826883309 28.448489416161447 0.057002282062200038 #
straight-curve $-1 0 28.448489416161447 10.686394141293521 -1 0 0 I I #
vertex $-1 $410 $524 #
point $-1 -2.6239446934012278 22.531499736953748 3.7986215566198593 #
edge $-1 $421 -30.286585707045024 $499 -6.6795654400808537 $416 $525 forward 7 unknown #
straight-curve $-1 30.286585707045024 28.448489416161451 60.869912224665619 0 0 -1 I I #
straight-curve $-1 30.286585707045024 -3.3678966947277615 47.226735958315061 0 -0.55919289150049634 0.82903758062907751 I I #
point $-1 30.286585707045024 21.278874301554513 10.686394141293519 #
point $-1 30.286585707045024 28.448489416161447 10.686394141293521 #
point $-1 30.286585707045024 28.448489416161447 0.057002282062200038 #
vertex $-1 $429 $526 #
straight-curve $-1 6.6795654400808537 53.551151693010631 10.686394141293519 0 -1 0 I I #
straight-curve $-1 6.6795654400808537 28.448489416161451 60.869912224665619 0 0 1 I I #
vertex $-1 $432 $527 #
point $-1 20.983075573562942 22.531499736953748 3.7986215566198593 #
straight-curve $-1 -66.625568407238987 28.448489416161447 0 0 0 -1 I I #
point $-1 -66.625568407238987 -28.448489416161447 -10.686394141293521 #
straight-curve $-1 -66.625568407238987 0 -10.686394141293521 0 1 0 I I #
point $-1 -66.625568407238987 28.448489416161447 -10.686394141293521 #
straight-curve $-1 -53.266437527077258 -4.8136006288070678 -10.686394141293521 0 -1 0 I I #
straight-curve $-1 -53.266437527077258 -4.8136006288070678 10.686394141293521 0 1 0 I I #
straight-curve $-1 -66.625568407238987 -7.0757011335744053 0 0 0 -1 I I #
point $-1 -66.625568407238987 -7.0757011335744053 -10.686394141293521 #
point $-1 -66.625568407238987 -7.0757011335744053 10.686394141293521 #
straight-curve $-1 9.7179110224837473 -28.448489416161451 54.032110867028038 0 0 -1 I I #
point $-1 9.7179110224837473 -28.448489416161447 10.686394141293521 #
straight-curve $-1 8.1392735330401109 -28.448489416161447 0.26178825836002018 1 0 0 I I #
point $-1 9.7179110224837473 -28.448489416161447 0.26178825836002001 #
point $-1 12.34216543992234 -18.701062767023952 1.9322376852721495 #
point $-1 16.278547066080222 -18.701062767023952 1.9322376852721495 #
point $-1 20.214928692238104 -18.701062767023952 1.9322376852721495 #
straight-curve $-1 6.6795654400808537 28.448489416161451 60.869912224665619 0 0 -1 I I #
point $-1 6.6795654400808537 28.448489416161447 10.686394141293521 #
straight-curve $-1 -2.5619723467006139 28.448489416161451 0.057002282062196485 -1 0 0 I I #
point $-1 6.6795654400808537 28.448489416161447 0.057002282062200038 #
point $-1 -5.1239446934012278 20.458905785381056 2.4006393278686184 #
straight-curve $-1 0 28.448489416161447 10.686394141293521 -1 0 0 I I #
point $-1 6.6795654400808537 28.448489416161447 10.686394141293521 #
point $-1 18.483075573562942 20.458905785381056 2.4006393278686184 #
End-of-ACIS-data 