500 0 11 0           
7 Unknown 11 ACIS 5.0 NT 24 Thu Mar 25 21:49:31 1999 
-1 9.9999999999999995e-007 1e-010 
body $-1 $11 $-1 $12 #
body $-1 $13 $-1 $14 #
body $-1 $15 $-1 $16 #
body $-1 $17 $-1 $18 #
body $-1 $19 $-1 $20 #
body $-1 $21 $-1 $22 #
body $-1 $23 $-1 $24 #
body $-1 $25 $-1 $26 #
body $-1 $27 $-1 $28 #
body $-1 $29 $-1 $30 #
body $-1 $31 $-1 $32 #
lump $-1 $-1 $33 $0 #
transform $-1 1 0 0 0 1 0 0 0 1 52.405163731803341 29.941489662532724 7.3833500357747326 1 rotate no_reflect no_shear #
lump $-1 $-1 $34 $1 #
transform $-1 1 0 0 0 1 0 0 0 1 52.405163731803341 29.941489662532724 7.3833500357747326 1 rotate no_reflect no_shear #
lump $-1 $-1 $35 $2 #
transform $-1 1 0 0 0 1 0 0 0 1 52.405163731803341 29.941489662532724 7.3833500357747326 1 rotate no_reflect no_shear #
lump $-1 $-1 $36 $3 #
transform $-1 1 0 0 0 1 0 0 0 1 52.405163731803341 29.941489662532724 7.3833500357747326 1 rotate no_reflect no_shear #
lump $-1 $-1 $37 $4 #
transform $-1 1 0 0 0 1 0 0 0 1 52.405163731803341 29.941489662532724 7.3833500357747326 1 rotate no_reflect no_shear #
lump $-1 $-1 $38 $5 #
transform $-1 1 0 0 0 1 0 0 0 1 52.405163731803341 29.941489662532724 7.3833500357747326 1 rotate no_reflect no_shear #
lump $-1 $-1 $39 $6 #
transform $-1 1 0 0 0 1 0 0 0 1 52.405163731803341 29.941489662532724 7.3833500357747326 1 rotate no_reflect no_shear #
lump $-1 $-1 $40 $7 #
transform $-1 1 0 0 0 1 0 0 0 1 52.405163731803341 29.941489662532724 7.3833500357747326 1 rotate no_reflect no_shear #
lump $-1 $-1 $41 $8 #
transform $-1 1 0 0 0 1 0 0 0 1 52.405163731803341 29.941489662532724 7.3833500357747326 1 rotate no_reflect no_shear #
lump $-1 $-1 $42 $9 #
transform $-1 1 0 0 0 1 0 0 0 1 52.405163731803341 29.941489662532724 7.3833500357747326 1 rotate no_reflect no_shear #
lump $-1 $-1 $43 $10 #
transform $-1 1 0 0 0 1 0 0 0 1 52.405163731803341 29.941489662532724 7.3833500357747326 1 rotate no_reflect no_shear #
shell $-1 $-1 $-1 $44 $-1 $11 #
shell $-1 $-1 $-1 $45 $-1 $13 #
shell $-1 $-1 $-1 $46 $-1 $15 #
shell $-1 $-1 $-1 $47 $-1 $17 #
shell $-1 $-1 $-1 $48 $-1 $19 #
shell $-1 $-1 $-1 $49 $-1 $21 #
shell $-1 $-1 $-1 $50 $-1 $23 #
shell $-1 $-1 $-1 $51 $-1 $25 #
shell $-1 $-1 $-1 $52 $-1 $27 #
shell $-1 $-1 $-1 $53 $-1 $29 #
shell $-1 $-1 $-1 $54 $-1 $31 #
face $-1 $55 $56 $33 $-1 $57 reversed single #
face $-1 $58 $59 $34 $-1 $60 forward single #
face $-1 $61 $62 $35 $-1 $63 reversed single #
face $-1 $64 $65 $36 $-1 $66 forward single #
face $-1 $67 $68 $37 $-1 $69 forward single #
face $-1 $70 $71 $38 $-1 $72 reversed single #
face $-1 $73 $74 $39 $-1 $75 forward single #
face $-1 $76 $77 $40 $-1 $78 forward single #
face $-1 $79 $80 $41 $-1 $81 reversed single #
face $-1 $82 $83 $42 $-1 $84 forward single #
face $-1 $85 $86 $43 $-1 $87 forward single #
face $-1 $88 $89 $33 $-1 $90 forward single #
loop $-1 $-1 $91 $44 #
plane-surface $-1 0 -29.941489662532724 0 0 1 0 0 0 1 forward_v I I I I #
face $-1 $92 $93 $34 $-1 $94 forward single #
loop $-1 $-1 $95 $45 #
plane-surface $-1 0 -29.941489662532724 0 0 1 0 0 0 1 forward_v I I I I #
face $-1 $96 $97 $35 $-1 $98 reversed single #
loop $-1 $-1 $99 $46 #
plane-surface $-1 42.065568715777019 -12.637569574395853 150.46795390092035 0 -1 0 -0.6560590369687036 0 -0.75470957328743171 forward_v I I I I #
face $-1 $100 $101 $36 $-1 $102 forward single #
loop $-1 $103 $104 $47 #
cone-surface $-1 48.694822640806485 -18.900963948981776 3.8876513802861625 -0.6560590369687036 0 -0.75470957328743171 0.75470957328743171 0 -0.6560590369687036 1 I I 0 1 1 forward I I I I #
face $-1 $105 $106 $37 $-1 $107 forward single #
loop $-1 $108 $109 $48 #
cone-surface $-1 48.694822640806485 -15.142927324230222 3.8876513802861625 -0.6560590369687036 0 -0.75470957328743171 0.75470957328743171 0 -0.6560590369687036 1 I I 0 1 1 forward I I I I #
face $-1 $110 $111 $38 $-1 $112 reversed single #
loop $-1 $-1 $113 $49 #
plane-surface $-1 -131.50652284360172 -21.406321698816146 69.423938547129922 0 1 0 -0.75470958851134928 0 0.65605901945558964 forward_v I I I I #
face $-1 $114 $115 $39 $-1 $116 forward single #
loop $-1 $117 $118 $50 #
cone-surface $-1 -48.206324056510084 -19.187809632027939 2.9122268464166416 0.75470958851134928 0 -0.65605901945558964 0.65605901945558964 0 0.75470958851134928 1 I I 0 1 1 forward I I I I #
face $-1 $119 $120 $40 $-1 $121 forward single #
loop $-1 $122 $123 $51 #
cone-surface $-1 -48.206324056510084 -15.860041531845628 2.9122268464166416 0.75470958851134928 0 -0.65605901945558964 0.65605901945558964 0 0.75470958851134928 1 I I 0 1 1 forward I I I I #
face $-1 $124 $125 $41 $-1 $126 reversed single #
loop $-1 $-1 $127 $52 #
plane-surface $-1 -131.50652284360172 22.176697428773998 69.423938547129922 0 1 0 -0.75470958851134928 0 0.65605901945558964 forward_v I I I I #
face $-1 $128 $129 $42 $-1 $130 forward single #
loop $-1 $131 $132 $53 #
cone-surface $-1 -48.206324056510084 24.395209495562206 2.9122268464166416 0.75470958851134928 0 -0.65605901945558964 0.65605901945558964 0 0.75470958851134928 1 I I 0 1 1 forward I I I I #
face $-1 $133 $134 $43 $-1 $135 forward single #
loop $-1 $136 $137 $54 #
cone-surface $-1 -48.206324056510084 27.722977595744517 2.9122268464166416 0.75470958851134928 0 -0.65605901945558964 0.65605901945558964 0 0.75470958851134928 1 I I 0 1 1 forward I I I I #
face $-1 $138 $139 $33 $-1 $140 reversed single #
loop $-1 $-1 $141 $55 #
plane-surface $-1 0 0 7.3833500357747326 0 0 1 1 0 0 forward_v I I I I #
coedge $-1 $142 $143 $144 $145 reversed $56 $-1 #
face $-1 $146 $147 $34 $-1 $148 reversed single #
loop $-1 $-1 $149 $58 #
plane-surface $-1 0 0 7.3833500357747326 0 0 1 1 0 0 forward_v I I I I #
coedge $-1 $150 $151 $152 $153 forward $59 $-1 #
face $-1 $154 $155 $35 $-1 $156 reversed single #
loop $-1 $-1 $157 $61 #
plane-surface $-1 -26.696193784371246 -17.021945636605999 71.366596384745762 0.6560590369687036 0 0.75470957328743171 0.75470957328743171 0 -0.6560590369687036 forward_v I I I I #
coedge $-1 $158 $159 $160 $161 reversed $62 $-1 #
face $-1 $-1 $162 $36 $-1 $163 forward single #
loop $-1 $164 $165 $64 #
cone-surface $-1 47.40497897949848 -18.900963948981776 2.403856013742498 -0.6560590369687036 0 -0.75470957328743171 0.37735478664371586 0 -0.3280295184843518 1 I I -0.70710678118654746 0.70710678118654746 0.5 forward I I I I #
loop $-1 $-1 $166 $47 #
coedge $-1 $104 $104 $167 $168 reversed $65 $-1 #
face $-1 $-1 $169 $37 $-1 $170 forward single #
loop $-1 $171 $172 $67 #
cone-surface $-1 47.40497897949848 -15.142927324230222 2.403856013742498 -0.6560590369687036 0 -0.75470957328743171 0.37735478664371586 0 -0.3280295184843518 1 I I -0.70710678118654746 0.70710678118654746 0.5 forward I I I I #
loop $-1 $-1 $173 $48 #
coedge $-1 $109 $109 $174 $175 reversed $68 $-1 #
face $-1 $176 $177 $38 $-1 $178 reversed single #
loop $-1 $-1 $179 $70 #
plane-surface $-1 -52.405163731803341 -17.523925581936783 0.66217788253686649 -0.75470958851134928 0 0.65605901945558964 0.65605901945558964 0 0.75470958851134928 forward_v I I I I #
coedge $-1 $180 $181 $182 $183 reversed $71 $-1 #
face $-1 $-1 $184 $39 $-1 $185 forward single #
loop $-1 $186 $187 $73 #
cone-surface $-1 -46.55144242011535 -19.187809632027939 1.4736602239496968 0.75470958851134928 0 -0.65605901945558964 0.32802950972779482 0 0.37735479425567464 1 I I -0.70710678118654746 0.70710678118654746 0.5 forward I I I I #
loop $-1 $-1 $188 $50 #
coedge $-1 $118 $118 $189 $190 reversed $74 $-1 #
face $-1 $-1 $191 $40 $-1 $192 forward single #
loop $-1 $193 $194 $76 #
cone-surface $-1 -46.55144242011535 -15.860041531845628 1.4736602239496968 0.75470958851134928 0 -0.65605901945558964 0.32802950972779482 0 0.37735479425567464 1 I I -0.70710678118654746 0.70710678118654746 0.5 forward I I I I #
loop $-1 $-1 $195 $51 #
coedge $-1 $123 $123 $196 $197 reversed $77 $-1 #
face $-1 $198 $199 $41 $-1 $200 forward single #
loop $-1 $-1 $201 $79 #
plane-surface $-1 -52.405163731803341 26.059093545653361 0.66217788253686649 -0.75470958851134928 0 0.65605901945558964 0.65605901945558964 0 0.75470958851134928 forward_v I I I I #
coedge $-1 $202 $203 $204 $205 reversed $80 $-1 #
face $-1 $-1 $206 $42 $-1 $207 forward single #
loop $-1 $208 $209 $82 #
cone-surface $-1 -46.55144242011535 24.395209495562206 1.4736602239496968 0.75470958851134928 0 -0.65605901945558964 0.32802950972779482 0 0.37735479425567464 1 I I -0.70710678118654746 0.70710678118654746 0.5 forward I I I I #
loop $-1 $-1 $210 $53 #
coedge $-1 $132 $132 $211 $212 reversed $83 $-1 #
face $-1 $-1 $213 $43 $-1 $214 forward single #
loop $-1 $215 $216 $85 #
cone-surface $-1 -46.55144242011535 27.722977595744517 1.4736602239496968 0.75470958851134928 0 -0.65605901945558964 0.32802950972779482 0 0.37735479425567464 1 I I -0.70710678118654746 0.70710678118654746 0.5 forward I I I I #
loop $-1 $-1 $217 $54 #
coedge $-1 $137 $137 $218 $219 reversed $86 $-1 #
face $-1 $220 $221 $33 $-1 $222 reversed single #
loop $-1 $-1 $223 $88 #
plane-surface $-1 0 0 -7.3833500357747326 0 0 1 1 0 0 forward_v I I I I #
coedge $-1 $224 $225 $226 $227 forward $89 $-1 #
coedge $-1 $228 $91 $229 $230 reversed $56 $-1 #
coedge $-1 $91 $228 $231 $232 forward $56 $-1 #
coedge $-1 $233 $223 $91 $145 forward $139 $-1 #
edge $-1 $234 -52.405163731803341 $235 52.405163731803341 $91 $236 forward 7 unknown #
face $-1 $237 $238 $34 $-1 $239 reversed single #
loop $-1 $-1 $240 $92 #
plane-surface $-1 -52.405163731803341 0 0 1 0 0 0 0 -1 forward_v I I I I #
coedge $-1 $241 $242 $151 $243 forward $93 $-1 #
coedge $-1 $244 $95 $245 $246 reversed $59 $-1 #
coedge $-1 $95 $244 $149 $243 reversed $59 $-1 #
coedge $-1 $247 $248 $95 $153 reversed $249 $-1 #
edge $-1 $250 -7.3833500357747326 $251 7.3833500357747326 $152 $252 forward 7 unknown #
face $-1 $253 $254 $35 $-1 $255 forward single #
loop $-1 $-1 $256 $96 #
plane-surface $-1 42.065568715777019 -21.406321698816143 150.46795390092035 0 1 0 0.6560590369687036 0 0.75470957328743171 forward_v I I I I #
coedge $-1 $257 $258 $259 $260 reversed $97 $-1 #
coedge $-1 $159 $99 $261 $262 reversed $62 $-1 #
coedge $-1 $99 $158 $257 $263 reversed $62 $-1 #
coedge $-1 $259 $264 $99 $161 forward $254 $-1 #
edge $-1 $265 -31.372379373914832 $266 -25.875325477568431 $160 $267 forward 7 unknown #
loop $-1 $-1 $167 $100 #
plane-surface $-1 -26.696193784371246 -17.021945636605999 71.366596384745762 0.6560590369687036 0 0.75470957328743171 0.75470957328743171 0 -0.6560590369687036 forward_v I I I I #
loop $-1 $-1 $268 $64 #
coedge $-1 $165 $165 $166 $269 reversed $101 $-1 #
coedge $-1 $166 $166 $165 $269 forward $103 $-1 #
coedge $-1 $167 $167 $104 $168 forward $162 $-1 #
edge $-1 $270 0 $270 6.2831853071796004 $167 $271 forward 7 unknown #
loop $-1 $-1 $174 $105 #
plane-surface $-1 -26.696193784371246 -17.021945636605999 71.366596384745762 0.6560590369687036 0 0.75470957328743171 0.75470957328743171 0 -0.6560590369687036 forward_v I I I I #
loop $-1 $-1 $272 $67 #
coedge $-1 $172 $172 $173 $273 reversed $106 $-1 #
coedge $-1 $173 $173 $172 $273 forward $108 $-1 #
coedge $-1 $174 $174 $109 $175 forward $169 $-1 #
edge $-1 $274 0 $274 6.2831853071796004 $174 $275 forward 7 unknown #
face $-1 $276 $277 $38 $-1 $278 reversed single #
loop $-1 $-1 $279 $110 #
plane-surface $-1 -131.50652284360172 -13.64152946505742 69.423938547129922 0 -1 0 0.75470958851134928 0 -0.65605901945558964 forward_v I I I I #
coedge $-1 $280 $281 $282 $283 reversed $111 $-1 #
coedge $-1 $181 $113 $284 $285 reversed $71 $-1 #
coedge $-1 $113 $180 $280 $286 reversed $71 $-1 #
coedge $-1 $282 $287 $113 $183 forward $288 $-1 #
edge $-1 $289 13.348097689997516 $290 19.190723356305902 $182 $291 forward 7 unknown #
loop $-1 $-1 $189 $114 #
plane-surface $-1 -52.405163731803341 -17.523925581936783 0.66217788253686649 -0.75470958851134928 0 0.65605901945558964 0.65605901945558964 0 0.75470958851134928 forward_v I I I I #
loop $-1 $-1 $292 $73 #
coedge $-1 $187 $187 $188 $293 reversed $115 $-1 #
coedge $-1 $188 $188 $187 $293 forward $117 $-1 #
coedge $-1 $189 $189 $118 $190 forward $184 $-1 #
edge $-1 $294 0 $294 6.2831853071796004 $189 $295 forward 7 unknown #
loop $-1 $-1 $196 $119 #
plane-surface $-1 -52.405163731803341 -17.523925581936783 0.66217788253686649 -0.75470958851134928 0 0.65605901945558964 0.65605901945558964 0 0.75470958851134928 forward_v I I I I #
loop $-1 $-1 $296 $76 #
coedge $-1 $194 $194 $195 $297 reversed $120 $-1 #
coedge $-1 $195 $195 $194 $297 forward $122 $-1 #
coedge $-1 $196 $196 $123 $197 forward $191 $-1 #
edge $-1 $298 0 $298 6.2831853071796004 $196 $299 forward 7 unknown #
face $-1 $300 $301 $41 $-1 $302 reversed single #
loop $-1 $-1 $204 $124 #
plane-surface $-1 0 0 7.3833500357747326 0 0 1 1 0 0 forward_v I I I I #
coedge $-1 $303 $304 $305 $306 reversed $125 $-1 #
coedge $-1 $203 $127 $307 $308 reversed $80 $-1 #
coedge $-1 $127 $202 $303 $309 reversed $80 $-1 #
coedge $-1 $305 $310 $127 $205 forward $199 $-1 #
edge $-1 $311 13.348097689997516 $312 19.190723356305902 $204 $313 forward 7 unknown #
loop $-1 $-1 $211 $128 #
plane-surface $-1 -52.405163731803341 26.059093545653361 0.66217788253686649 -0.75470958851134928 0 0.65605901945558964 0.65605901945558964 0 0.75470958851134928 forward_v I I I I #
loop $-1 $-1 $314 $82 #
coedge $-1 $209 $209 $210 $315 reversed $129 $-1 #
coedge $-1 $210 $210 $209 $315 forward $131 $-1 #
coedge $-1 $211 $211 $132 $212 forward $206 $-1 #
edge $-1 $316 0 $316 6.2831853071796004 $211 $317 forward 7 unknown #
loop $-1 $-1 $218 $133 #
plane-surface $-1 -52.405163731803341 26.059093545653361 0.66217788253686649 -0.75470958851134928 0 0.65605901945558964 0.65605901945558964 0 0.75470958851134928 forward_v I I I I #
loop $-1 $-1 $318 $85 #
coedge $-1 $216 $216 $217 $319 reversed $134 $-1 #
coedge $-1 $217 $217 $216 $319 forward $136 $-1 #
coedge $-1 $218 $218 $137 $219 forward $213 $-1 #
edge $-1 $320 0 $320 6.2831853071796004 $218 $321 forward 7 unknown #
face $-1 $322 $323 $33 $-1 $324 reversed single #
loop $-1 $-1 $325 $138 #
plane-surface $-1 -52.405163731803341 0 0 1 0 0 0 0 -1 forward_v I I I I #
coedge $-1 $144 $326 $327 $328 forward $139 $-1 #
coedge $-1 $329 $141 $330 $331 forward $89 $-1 #
coedge $-1 $141 $329 $228 $332 forward $89 $-1 #
coedge $-1 $229 $333 $141 $227 reversed $334 $-1 #
edge $-1 $335 -29.941489662532724 $336 29.941489662532724 $226 $337 forward 7 unknown #
coedge $-1 $143 $142 $225 $332 reversed $56 $-1 #
coedge $-1 $327 $226 $142 $230 forward $334 $-1 #
edge $-1 $335 -7.3833500357747326 $234 7.3833500357747326 $229 $338 forward 7 unknown #
coedge $-1 $339 $340 $143 $232 reversed $221 $-1 #
edge $-1 $341 -7.3833500357747326 $235 7.3833500357747326 $231 $342 forward 7 unknown #
coedge $-1 $326 $144 $340 $343 forward $139 $-1 #
vertex $-1 $230 $344 #
vertex $-1 $343 $345 #
straight-curve $-1 0 -29.941489662532724 -7.3833500357747326 -1 0 0 I I #
face $-1 $346 $249 $34 $-1 $347 reversed single #
loop $-1 $-1 $348 $146 #
plane-surface $-1 -50.349871801467572 -38.476657626249299 0 0 1 0 0 0 1 forward_v I I I I #
coedge $-1 $349 $350 $244 $351 forward $147 $-1 #
coedge $-1 $352 $149 $350 $353 forward $93 $-1 #
coedge $-1 $149 $352 $247 $354 forward $93 $-1 #
edge $-1 $250 48.294579871131802 $355 52.405163731803341 $149 $356 forward 7 unknown #
coedge $-1 $151 $150 $240 $351 reversed $59 $-1 #
coedge $-1 $357 $358 $150 $246 forward $359 $-1 #
edge $-1 $360 -52.405163731803341 $251 -48.294579871131802 $245 $361 forward 7 unknown #
coedge $-1 $362 $152 $242 $354 reversed $249 $-1 #
coedge $-1 $152 $362 $357 $363 reversed $249 $-1 #
loop $-1 $-1 $362 $237 #
vertex $-1 $243 $364 #
vertex $-1 $363 $365 #
straight-curve $-1 -48.294579871131802 -29.941489662532724 0 0 0 -1 I I #
face $-1 $-1 $366 $35 $-1 $367 reversed single #
loop $-1 $-1 $160 $154 #
plane-surface $-1 0 0 7.3833500357747326 0 0 1 1 0 0 forward_v I I I I #
coedge $-1 $368 $369 $370 $371 reversed $155 $-1 #
coedge $-1 $372 $157 $159 $263 forward $97 $-1 #
coedge $-1 $157 $372 $368 $373 forward $97 $-1 #
coedge $-1 $370 $160 $157 $260 forward $254 $-1 #
edge $-1 $266 4.1265967560928534 $374 12.895348880513144 $259 $375 forward 7 unknown #
coedge $-1 $376 $377 $158 $262 forward $366 $-1 #
edge $-1 $378 -72.629143065862678 $265 -67.850626914685449 $261 $379 forward 7 unknown #
edge $-1 $266 97.526659558876361 $378 104.81032746360668 $159 $380 forward 7 unknown #
coedge $-1 $160 $370 $376 $381 forward $254 $-1 #
vertex $-1 $262 $382 #
vertex $-1 $161 $383 #
straight-curve $-1 21.032784357888509 -12.637569574395853 7.3833500357747397 -1 0 0 I I #
coedge $-1 $268 $268 $-1 $384 reversed $164 $-1 #
edge $-1 $385 0 $385 6.2831853071796004 $165 $386 forward 7 unknown #
vertex $-1 $168 $387 #
ellipse-curve $-1 49.656636783630148 -18.900963948981776 4.9940919601861236 0.6560590369687036 0 0.75470957328743171 0.75470957328743171 0 -0.6560590369687036 1 I I #
coedge $-1 $272 $272 $-1 $388 reversed $171 $-1 #
edge $-1 $389 0 $389 6.2831853071796004 $172 $390 forward 7 unknown #
vertex $-1 $175 $391 #
ellipse-curve $-1 49.656636783630148 -15.142927324230222 4.9940919601861236 0.6560590369687036 0 0.75470957328743171 0.75470957328743171 0 -0.6560590369687036 1 I I #
face $-1 $-1 $288 $38 $-1 $392 forward single #
loop $-1 $-1 $393 $176 #
plane-surface $-1 -52.405163731803341 0 0 1 0 0 0 0 -1 forward_v I I I I #
coedge $-1 $394 $395 $396 $397 reversed $177 $-1 #
coedge $-1 $398 $179 $181 $286 forward $111 $-1 #
coedge $-1 $179 $398 $394 $399 forward $111 $-1 #
coedge $-1 $396 $182 $179 $283 forward $288 $-1 #
edge $-1 $290 -12.644358907847755 $400 -4.8795666740890287 $282 $401 forward 7 unknown #
coedge $-1 $402 $403 $180 $285 forward $277 $-1 #
edge $-1 $404 -34.049791391028094 $289 -27.328619237790228 $284 $405 forward 7 unknown #
edge $-1 $290 -8.9056403357684335 $404 0 $181 $406 forward 7 unknown #
coedge $-1 $182 $396 $402 $407 forward $288 $-1 #
loop $-1 $-1 $396 $276 #
vertex $-1 $285 $408 #
vertex $-1 $183 $409 #
straight-curve $-1 -65.753261421800858 -21.406321698816146 7.3833500357747326 1 0 0 I I #
coedge $-1 $292 $292 $-1 $410 reversed $186 $-1 #
edge $-1 $411 0 $411 6.2831853071796004 $187 $412 forward 7 unknown #
vertex $-1 $190 $413 #
ellipse-curve $-1 -49.483850898649152 -19.187809632027939 4.0227639591557987 -0.75470958851134928 0 0.65605901945558964 0.65605901945558964 0 0.75470958851134928 1 I I #
coedge $-1 $296 $296 $-1 $414 reversed $193 $-1 #
edge $-1 $415 0 $415 6.2831853071796004 $194 $416 forward 7 unknown #
vertex $-1 $197 $417 #
ellipse-curve $-1 -49.483850898649152 -15.860041531845628 4.0227639591557987 -0.75470958851134928 0 0.65605901945558964 0.65605901945558964 0 0.75470958851134928 1 I I #
face $-1 $-1 $418 $41 $-1 $419 reversed single #
loop $-1 $-1 $420 $198 #
plane-surface $-1 0 29.941489662532724 0 0 -1 0 0 0 -1 forward_v I I I I #
coedge $-1 $421 $201 $203 $309 forward $125 $-1 #
coedge $-1 $201 $421 $420 $422 reversed $125 $-1 #
coedge $-1 $423 $204 $201 $306 forward $199 $-1 #
edge $-1 $312 9.1471506559473177 $424 16.911942889706044 $305 $425 forward 7 unknown #
coedge $-1 $426 $427 $202 $308 forward $418 $-1 #
edge $-1 $428 -34.049791391028094 $311 -27.328619237790228 $307 $429 forward 7 unknown #
edge $-1 $312 -8.9056403357684335 $428 0 $203 $430 forward 7 unknown #
coedge $-1 $204 $423 $426 $431 forward $199 $-1 #
vertex $-1 $308 $432 #
vertex $-1 $205 $433 #
straight-curve $-1 -65.753261421800858 22.176697428773998 7.3833500357747326 1 0 0 I I #
coedge $-1 $314 $314 $-1 $434 reversed $208 $-1 #
edge $-1 $435 0 $435 6.2831853071796004 $209 $436 forward 7 unknown #
vertex $-1 $212 $437 #
ellipse-curve $-1 -49.483850898649152 24.395209495562206 4.0227639591557987 -0.75470958851134928 0 0.65605901945558964 0.65605901945558964 0 0.75470958851134928 1 I I #
coedge $-1 $318 $318 $-1 $438 reversed $215 $-1 #
edge $-1 $439 0 $439 6.2831853071796004 $216 $440 forward 7 unknown #
vertex $-1 $219 $441 #
ellipse-curve $-1 -49.483850898649152 27.722977595744517 4.0227639591557987 -0.75470958851134928 0 0.65605901945558964 0.65605901945558964 0 0.75470958851134928 1 I I #
face $-1 $-1 $334 $33 $-1 $442 reversed single #
loop $-1 $-1 $443 $220 #
plane-surface $-1 0 29.941489662532724 0 0 -1 0 0 0 -1 forward_v I I I I #
coedge $-1 $340 $339 $444 $445 forward $221 $-1 #
coedge $-1 $223 $233 $446 $447 forward $139 $-1 #
coedge $-1 $333 $229 $223 $328 reversed $334 $-1 #
edge $-1 $448 -29.941489662532724 $234 29.941489662532724 $327 $449 forward 7 unknown #
coedge $-1 $225 $224 $339 $450 forward $89 $-1 #
coedge $-1 $443 $444 $224 $331 reversed $323 $-1 #
edge $-1 $336 -52.405163731803341 $451 52.405163731803341 $330 $452 forward 7 unknown #
edge $-1 $341 -52.405163731803341 $335 52.405163731803341 $228 $453 forward 7 unknown #
coedge $-1 $226 $327 $443 $454 reversed $334 $-1 #
loop $-1 $-1 $229 $322 #
vertex $-1 $227 $455 #
vertex $-1 $227 $456 #
straight-curve $-1 52.405163731803341 0 7.3833500357747326 0 1 0 I I #
straight-curve $-1 52.405163731803341 -29.941489662532724 0 0 0 -1 I I #
coedge $-1 $325 $231 $329 $450 reversed $221 $-1 #
coedge $-1 $231 $325 $233 $343 reversed $221 $-1 #
vertex $-1 $450 $457 #
straight-curve $-1 -52.405163731803341 -29.941489662532724 0 0 0 -1 I I #
edge $-1 $235 -29.941489662532724 $458 29.941489662532724 $340 $459 forward 7 unknown #
point $-1 52.405163731803341 -29.941489662532724 -7.3833500357747326 #
point $-1 -52.405163731803341 -29.941489662532724 -7.3833500357747326 #
face $-1 $-1 $359 $34 $-1 $460 reversed single #
plane-surface $-1 -48.294579871131802 -34.209073644391012 0 -1 0 0 0 0 1 forward_v I I I I #
coedge $-1 $461 $462 $463 $464 forward $238 $-1 #
coedge $-1 $463 $240 $358 $465 reversed $147 $-1 #
coedge $-1 $240 $463 $241 $353 reversed $147 $-1 #
edge $-1 $355 -7.3833500357747326 $360 7.3833500357747326 $240 $466 forward 7 unknown #
coedge $-1 $242 $241 $462 $467 forward $93 $-1 #
edge $-1 $355 29.941489662532724 $468 38.476657626249299 $350 $469 forward 7 unknown #
edge $-1 $470 -4.2675839818582872 $250 4.2675839818582872 $247 $471 forward 7 unknown #
vertex $-1 $353 $472 #
straight-curve $-1 0 -29.941489662532724 7.3833500357747326 -1 0 0 I I #
coedge $-1 $473 $245 $248 $363 forward $359 $-1 #
coedge $-1 $245 $473 $349 $465 forward $359 $-1 #
loop $-1 $-1 $245 $346 #
vertex $-1 $351 $474 #
straight-curve $-1 0 -29.941489662532724 -7.3833500357747326 1 0 0 I I #
coedge $-1 $248 $247 $475 $476 forward $249 $-1 #
edge $-1 $251 -4.2675839818582872 $477 4.2675839818582872 $248 $478 forward 7 unknown #
point $-1 -48.294579871131802 -29.941489662532724 7.3833500357747326 #
point $-1 -48.294579871131802 -29.941489662532724 -7.3833500357747326 #
loop $-1 $-1 $261 $253 #
plane-surface $-1 52.405163731803341 0 0 -1 0 0 0 0 1 forward_v I I I I #
coedge $-1 $369 $256 $258 $373 reversed $155 $-1 #
coedge $-1 $256 $368 $479 $480 reversed $155 $-1 #
coedge $-1 $264 $259 $256 $371 forward $254 $-1 #
edge $-1 $374 25.875325477568431 $481 31.372379373914832 $370 $482 forward 7 unknown #
coedge $-1 $258 $257 $377 $483 reversed $97 $-1 #
edge $-1 $484 -104.81032746360668 $374 -97.526659558876361 $368 $485 forward 7 unknown #
vertex $-1 $260 $486 #
straight-curve $-1 46.908109835456941 -8.5109728183029993 7.3833500357747397 0 -1 0 I I #
coedge $-1 $479 $261 $264 $381 reversed $366 $-1 #
coedge $-1 $261 $479 $372 $483 forward $366 $-1 #
vertex $-1 $262 $487 #
straight-curve $-1 52.405163731803341 -12.637569574395853 75.233976950460175 0 0 1 I I #
straight-curve $-1 -26.696193784371246 -12.637569574395853 71.366596384745762 0.75470957328743171 0 -0.6560590369687036 I I #
edge $-1 $481 -21.406321698816143 $265 -12.637569574395853 $376 $488 forward 7 unknown #
point $-1 52.405163731803341 -12.637569574395853 7.3833500357747326 #
point $-1 46.908109835456941 -12.637569574395853 7.3833500357747326 #
edge $-1 $489 1 $489 0 $268 $-1 forward 7 unknown #
vertex $-1 $269 $490 #
ellipse-curve $-1 47.73300849798283 -18.900963948981776 2.7812108003862139 0.6560590369687036 0 0.75470957328743171 0.75470957328743171 0 -0.6560590369687036 1 I I #
point $-1 50.411346356917569 -18.900963948981776 4.3380329232174084 #
edge $-1 $491 1 $491 0 $272 $-1 forward 7 unknown #
vertex $-1 $273 $492 #
ellipse-curve $-1 47.73300849798283 -15.142927324230222 2.7812108003862139 0.6560590369687036 0 0.75470957328743171 0.75470957328743171 0 -0.6560590369687036 1 I I #
point $-1 50.411346356917569 -15.142927324230222 4.3380329232174084 #
plane-surface $-1 0 0 7.3833500357747326 0 0 1 1 0 0 forward_v I I I I #
coedge $-1 $403 $402 $395 $493 forward $277 $-1 #
coedge $-1 $395 $279 $281 $399 reversed $177 $-1 #
coedge $-1 $279 $394 $393 $493 reversed $177 $-1 #
coedge $-1 $287 $282 $279 $397 forward $288 $-1 #
edge $-1 $400 -19.190723356305902 $494 -13.348097689997516 $396 $495 forward 7 unknown #
coedge $-1 $281 $280 $403 $496 reversed $111 $-1 #
edge $-1 $497 0 $400 8.9056403357684335 $394 $498 forward 7 unknown #
vertex $-1 $283 $499 #
straight-curve $-1 -46.562538065494955 -8.7619627909683917 7.3833500357747326 0 1 0 I I #
coedge $-1 $393 $284 $287 $407 reversed $277 $-1 #
coedge $-1 $284 $393 $398 $496 forward $277 $-1 #
vertex $-1 $285 $500 #
straight-curve $-1 -52.405163731803341 -21.406321698816146 34.711969273564961 0 0 1 I I #
straight-curve $-1 -52.405163731803341 -21.406321698816146 0.66217788253686649 -0.65605901945558964 0 -0.75470958851134928 I I #
edge $-1 $494 13.64152946505742 $289 21.406321698816146 $402 $501 forward 7 unknown #
point $-1 -52.405163731803341 -21.406321698816146 7.3833500357747326 #
point $-1 -46.562538065494955 -21.406321698816146 7.3833500357747326 #
edge $-1 $502 1 $502 0 $292 $-1 forward 7 unknown #
vertex $-1 $293 $503 #
ellipse-curve $-1 -46.928797214371023 -19.187809632027939 1.8016897336774915 -0.75470958851134928 0 0.65605901945558964 0.65605901945558964 0 0.75470958851134928 1 I I #
point $-1 -48.827791879193548 -19.187809632027939 4.7774735476671415 #
edge $-1 $504 1 $504 0 $296 $-1 forward 7 unknown #
vertex $-1 $297 $505 #
ellipse-curve $-1 -46.928797214371023 -15.860041531845628 1.8016897336774915 -0.75470958851134928 0 0.65605901945558964 0.65605901945558964 0 0.75470958851134928 1 I I #
point $-1 -48.827791879193548 -15.860041531845628 4.7774735476671415 #
loop $-1 $-1 $307 $300 #
plane-surface $-1 -52.405163731803341 0 0 1 0 0 0 0 -1 forward_v I I I I #
coedge $-1 $506 $507 $304 $422 forward $301 $-1 #
coedge $-1 $304 $303 $427 $508 reversed $125 $-1 #
edge $-1 $424 8.034923831754476 $509 16.940564167522908 $420 $510 forward 7 unknown #
coedge $-1 $310 $305 $507 $511 forward $199 $-1 #
vertex $-1 $511 $512 #
straight-curve $-1 -46.562538065494955 13.029546772826681 7.3833500357747326 0 1 0 I I #
coedge $-1 $513 $307 $310 $431 reversed $418 $-1 #
coedge $-1 $307 $513 $421 $508 forward $418 $-1 #
vertex $-1 $308 $514 #
straight-curve $-1 -52.405163731803341 22.176697428773998 34.711969273564961 0 0 1 I I #
straight-curve $-1 -52.405163731803341 22.176697428773998 0.66217788253686649 -0.65605901945558964 0 -0.75470958851134928 I I #
edge $-1 $515 -29.941489662532724 $311 -22.176697428773998 $426 $516 forward 7 unknown #
point $-1 -52.405163731803341 22.176697428773998 7.3833500357747326 #
point $-1 -46.562538065494955 22.176697428773998 7.3833500357747326 #
edge $-1 $517 1 $517 0 $314 $-1 forward 7 unknown #
vertex $-1 $315 $518 #
ellipse-curve $-1 -46.928797214371023 24.395209495562206 1.8016897336774915 -0.75470958851134928 0 0.65605901945558964 0.65605901945558964 0 0.75470958851134928 1 I I #
point $-1 -48.827791879193548 24.395209495562206 4.7774735476671415 #
edge $-1 $519 1 $519 0 $318 $-1 forward 7 unknown #
vertex $-1 $319 $520 #
ellipse-curve $-1 -46.928797214371023 27.722977595744517 1.8016897336774915 -0.75470958851134928 0 0.65605901945558964 0.65605901945558964 0 0.75470958851134928 1 I I #
point $-1 -48.827791879193548 27.722977595744517 4.7774735476671415 #
plane-surface $-1 52.405163731803341 0 0 -1 0 0 0 0 1 forward_v I I I I #
coedge $-1 $446 $330 $333 $454 forward $323 $-1 #
coedge $-1 $330 $446 $325 $445 reversed $323 $-1 #
edge $-1 $451 -7.3833500357747326 $458 7.3833500357747326 $444 $521 forward 7 unknown #
coedge $-1 $444 $443 $326 $447 reversed $323 $-1 #
edge $-1 $458 -52.405163731803341 $448 52.405163731803341 $446 $522 forward 7 unknown #
vertex $-1 $328 $523 #
straight-curve $-1 52.405163731803341 0 -7.3833500357747326 0 -1 0 I I #
edge $-1 $451 -29.941489662532724 $341 29.941489662532724 $339 $524 forward 7 unknown #
vertex $-1 $331 $525 #
straight-curve $-1 0 29.941489662532724 7.3833500357747326 -1 0 0 I I #
straight-curve $-1 0 -29.941489662532724 7.3833500357747326 1 0 0 I I #
edge $-1 $336 -7.3833500357747326 $448 7.3833500357747326 $333 $526 forward 7 unknown #
point $-1 52.405163731803341 -29.941489662532724 7.3833500357747326 #
point $-1 52.405163731803341 29.941489662532724 7.3833500357747326 #
point $-1 -52.405163731803341 -29.941489662532724 7.3833500357747326 #
vertex $-1 $447 $527 #
straight-curve $-1 -52.405163731803341 0 -7.3833500357747326 0 1 0 I I #
plane-surface $-1 0 0 -7.3833500357747326 0 0 1 1 0 0 forward_v I I I I #
coedge $-1 $475 $348 $473 $528 reversed $238 $-1 #
coedge $-1 $348 $475 $352 $467 reversed $238 $-1 #
coedge $-1 $350 $349 $348 $464 reversed $147 $-1 #
edge $-1 $468 -7.3833500357747326 $529 7.3833500357747326 $463 $530 forward 7 unknown #
edge $-1 $529 -38.476657626249299 $360 -29.941489662532724 $349 $531 forward 7 unknown #
straight-curve $-1 -52.405163731803341 -29.941489662532724 0 0 0 -1 I I #
edge $-1 $468 -2.0552919303357697 $470 2.0552919303357697 $462 $532 forward 7 unknown #
vertex $-1 $353 $533 #
straight-curve $-1 -52.405163731803341 0 7.3833500357747326 0 -1 0 I I #
vertex $-1 $354 $534 #
straight-curve $-1 -48.294579871131802 -34.209073644391012 7.3833500357747326 0 1 0 I I #
point $-1 -52.405163731803341 -29.941489662532724 7.3833500357747326 #
coedge $-1 $358 $357 $461 $528 forward $359 $-1 #
point $-1 -52.405163731803341 -29.941489662532724 -7.3833500357747326 #
coedge $-1 $462 $461 $362 $476 reversed $238 $-1 #
edge $-1 $470 -7.3833500357747326 $477 7.3833500357747326 $362 $535 forward 7 unknown #
vertex $-1 $476 $536 #
straight-curve $-1 -48.294579871131802 -34.209073644391012 -7.3833500357747326 0 -1 0 I I #
coedge $-1 $377 $376 $369 $480 forward $366 $-1 #
edge $-1 $481 67.850626914685449 $484 72.629143065862678 $479 $537 forward 7 unknown #
vertex $-1 $381 $538 #
straight-curve $-1 21.032784357888509 -21.406321698816143 7.3833500357747397 1 0 0 I I #
edge $-1 $484 -12.895348880513144 $378 -4.1265967560928534 $377 $539 forward 7 unknown #
vertex $-1 $483 $540 #
straight-curve $-1 -26.696193784371246 -21.406321698816143 71.366596384745762 -0.75470957328743171 0 0.6560590369687036 I I #
point $-1 46.908109835456941 -21.406321698816143 7.3833500357747326 #
point $-1 52.405163731803341 -12.637569574395853 2.6048338845974968 #
straight-curve $-1 52.405163731803341 0 7.3833500357747326 0 1 0 I I #
vertex $-1 $384 $541 #
point $-1 48.487718071270265 -18.900963948981776 2.1251517634175103 #
vertex $-1 $388 $542 #
point $-1 48.487718071270265 -15.142927324230222 2.1251517634175103 #
edge $-1 $494 27.328619237790228 $497 34.049791391028094 $393 $543 forward 7 unknown #
vertex $-1 $407 $544 #
straight-curve $-1 -65.753261421800858 -13.64152946505742 7.3833500357747326 -1 0 0 I I #
edge $-1 $497 4.8795666740890287 $404 12.644358907847755 $403 $545 forward 7 unknown #
vertex $-1 $496 $546 #
straight-curve $-1 -52.405163731803341 -13.64152946505742 0.66217788253686649 0.65605901945558964 0 0.75470958851134928 I I #
point $-1 -46.562538065494955 -13.64152946505742 7.3833500357747326 #
point $-1 -52.405163731803341 -21.406321698816146 0.66217788253686649 #
straight-curve $-1 -52.405163731803341 0 7.3833500357747326 0 -1 0 I I #
vertex $-1 $410 $547 #
point $-1 -46.272738194915433 -19.187809632027939 2.5563993221888408 #
vertex $-1 $414 $548 #
point $-1 -46.272738194915433 -15.860041531845628 2.5563993221888408 #
coedge $-1 $507 $420 $513 $549 reversed $301 $-1 #
coedge $-1 $420 $506 $423 $511 reversed $301 $-1 #
edge $-1 $509 -16.911942889706044 $428 -9.1471506559473177 $427 $550 forward 7 unknown #
vertex $-1 $422 $551 #
straight-curve $-1 -41.291153815033766 29.941489662532724 13.447384094558188 -0.65605901945558975 0 -0.75470958851134939 I I #
edge $-1 $424 46.562538065494955 $515 52.405163731803341 $507 $552 forward 7 unknown #
point $-1 -46.562538065494955 29.941489662532724 7.3833500357747326 #
coedge $-1 $427 $426 $506 $549 forward $418 $-1 #
point $-1 -52.405163731803341 22.176697428773998 0.66217788253686649 #
vertex $-1 $511 $553 #
straight-curve $-1 -52.405163731803341 0 7.3833500357747326 0 -1 0 I I #
vertex $-1 $434 $554 #
point $-1 -46.272738194915433 24.395209495562206 2.5563993221888408 #
vertex $-1 $438 $555 #
point $-1 -46.272738194915433 27.722977595744517 2.5563993221888408 #
straight-curve $-1 -52.405163731803341 29.941489662532724 0 0 0 -1 I I #
straight-curve $-1 0 29.941489662532724 -7.3833500357747326 1 0 0 I I #
point $-1 52.405163731803341 29.941489662532724 -7.3833500357747326 #
straight-curve $-1 -52.405163731803341 0 7.3833500357747326 0 -1 0 I I #
point $-1 -52.405163731803341 29.941489662532724 7.3833500357747326 #
straight-curve $-1 52.405163731803341 29.941489662532724 0 0 0 -1 I I #
point $-1 -52.405163731803341 29.941489662532724 -7.3833500357747326 #
edge $-1 $477 -2.0552919303357697 $529 2.0552919303357697 $461 $556 forward 7 unknown #
vertex $-1 $465 $557 #
straight-curve $-1 -52.405163731803341 -38.476657626249299 0 0 0 -1 I I #
straight-curve $-1 -52.405163731803341 0 -7.3833500357747326 0 1 0 I I #
straight-curve $-1 -50.349871801467572 -38.476657626249299 7.3833500357747326 1 0 0 I I #
point $-1 -52.405163731803341 -38.476657626249299 7.3833500357747326 #
point $-1 -48.294579871131802 -38.476657626249299 7.3833500357747326 #
straight-curve $-1 -48.294579871131802 -38.476657626249299 0 0 0 -1 I I #
point $-1 -48.294579871131802 -38.476657626249299 -7.3833500357747326 #
straight-curve $-1 52.405163731803341 -21.406321698816143 75.233976950460175 0 0 -1 I I #
point $-1 52.405163731803341 -21.406321698816143 7.3833500357747326 #
straight-curve $-1 52.405163731803341 -8.5109728183029993 2.6048338845974897 0 1 0 I I #
point $-1 52.405163731803341 -21.406321698816143 2.6048338845974968 #
point $-1 47.076949461014131 -18.900963948981776 2.0265012270987821 #
point $-1 47.076949461014131 -15.142927324230222 2.0265012270987821 #
straight-curve $-1 -52.405163731803341 -13.64152946505742 34.711969273564961 0 0 -1 I I #
point $-1 -52.405163731803341 -13.64152946505742 7.3833500357747326 #
straight-curve $-1 -52.405163731803341 -8.7619627909683917 0.6621778825368636 0 -1 0 I I #
point $-1 -52.405163731803341 -13.64152946505742 0.66217788253686649 #
point $-1 -46.174087625859677 -19.187809632027939 1.145630714221902 #
point $-1 -46.174087625859677 -15.860041531845628 1.145630714221902 #
edge $-1 $515 -7.3833500357747326 $509 -0.66217788253686649 $506 $558 forward 7 unknown #
straight-curve $-1 -52.405163731803341 13.029546772826681 0.6621778825368636 0 -1 0 I I #
point $-1 -52.405163731803341 29.941489662532724 0.66217788253686649 #
straight-curve $-1 0 29.941489662532724 7.3833500357747326 -1 0 0 I I #
point $-1 -52.405163731803341 29.941489662532724 7.3833500357747326 #
point $-1 -46.174087625859677 24.395209495562206 1.145630714221902 #
point $-1 -46.174087625859677 27.722977595744517 1.145630714221902 #
straight-curve $-1 -50.349871801467572 -38.476657626249299 -7.3833500357747326 -1 0 0 I I #
point $-1 -52.405163731803341 -38.476657626249299 -7.3833500357747326 #
straight-curve $-1 -52.405163731803341 29.941489662532724 0 0 0 -1 I I #
End-of-ACIS-data 