500 0 8 0           
7 Unknown 11 ACIS 5.0 NT 24 Thu Mar 25 21:39:01 1999 
-1 9.9999999999999995e-007 1e-010 
body $-1 $8 $-1 $9 #
body $-1 $10 $-1 $11 #
body $-1 $12 $-1 $13 #
body $-1 $14 $-1 $15 #
body $-1 $16 $-1 $17 #
body $-1 $18 $-1 $19 #
body $-1 $20 $-1 $21 #
body $-1 $22 $-1 $23 #
lump $-1 $-1 $24 $0 #
transform $-1 1 0 0 0 1 0 0 0 1 51.004974517044587 31.202741071242933 12.51604441266767 1 rotate no_reflect no_shear #
lump $-1 $-1 $25 $1 #
transform $-1 1 0 0 0 1 0 0 0 1 51.004974517044587 31.202741071242933 12.51604441266767 1 rotate no_reflect no_shear #
lump $-1 $-1 $26 $2 #
transform $-1 1 0 0 0 1 0 0 0 1 51.004974517044587 31.202741071242933 12.51604441266767 1 rotate no_reflect no_shear #
lump $-1 $-1 $27 $3 #
transform $-1 1 0 0 0 1 0 0 0 1 51.004974517044587 31.202741071242933 12.51604441266767 1 rotate no_reflect no_shear #
lump $-1 $-1 $28 $4 #
transform $-1 1 0 0 0 1 0 0 0 1 51.004974517044587 31.202741071242933 12.51604441266767 1 rotate no_reflect no_shear #
lump $-1 $-1 $29 $5 #
transform $-1 1 0 0 0 1 0 0 0 1 51.004974517044587 31.202741071242933 12.51604441266767 1 rotate no_reflect no_shear #
lump $-1 $-1 $30 $6 #
transform $-1 1 0 0 0 1 0 0 0 1 51.004974517044587 31.202741071242933 12.51604441266767 1 rotate no_reflect no_shear #
lump $-1 $-1 $31 $7 #
transform $-1 1 0 0 0 1 0 0 0 1 51.004974517044587 31.202741071242933 12.51604441266767 1 rotate no_reflect no_shear #
shell $-1 $-1 $-1 $32 $-1 $8 #
shell $-1 $-1 $-1 $33 $-1 $10 #
shell $-1 $-1 $-1 $34 $-1 $12 #
shell $-1 $-1 $-1 $35 $-1 $14 #
shell $-1 $-1 $-1 $36 $-1 $16 #
shell $-1 $-1 $-1 $37 $-1 $18 #
shell $-1 $-1 $-1 $38 $-1 $20 #
shell $-1 $-1 $-1 $39 $-1 $22 #
face $-1 $40 $41 $24 $-1 $42 forward single #
face $-1 $43 $44 $25 $-1 $45 forward single #
face $-1 $46 $47 $26 $-1 $48 reversed single #
face $-1 $49 $50 $27 $-1 $51 forward single #
face $-1 $52 $53 $28 $-1 $54 forward single #
face $-1 $55 $56 $29 $-1 $57 reversed single #
face $-1 $58 $59 $30 $-1 $60 forward single #
face $-1 $61 $62 $31 $-1 $63 forward single #
face $-1 $64 $65 $24 $-1 $66 reversed single #
loop $-1 $-1 $67 $32 #
plane-surface $-1 0 0 12.51604441266767 0 0 1 1 0 0 forward_v I I I I #
face $-1 $68 $69 $25 $-1 $70 reversed single #
loop $-1 $-1 $71 $33 #
plane-surface $-1 -42.823040677124382 0 -9.4045848778702119 0 0 1 1 0 0 forward_v I I I I #
face $-1 $72 $73 $26 $-1 $74 reversed single #
loop $-1 $-1 $75 $34 #
plane-surface $-1 25.678388796983974 82.767022975719414 110.10426957988525 1 0 0 0 -0.83867057594974714 -0.54463902268945019 forward_v I I I I #
face $-1 $76 $77 $27 $-1 $78 forward single #
loop $-1 $79 $80 $35 #
cone-surface $-1 29.896673661368197 26.708317852845791 6.6169249049523717 0 -0.83867057594974714 -0.54463902268945019 1 0 0 1 I I 0 1 1 forward I I I I #
face $-1 $81 $82 $28 $-1 $83 forward single #
loop $-1 $84 $85 $36 #
cone-surface $-1 36.224100957944557 26.708317852845791 6.6169249049523717 0 -0.83867057594974714 -0.54463902268945019 1 0 0 1 I I 0 1 1 forward I I I I #
face $-1 $86 $87 $29 $-1 $88 reversed single #
loop $-1 $-1 $89 $37 #
plane-surface $-1 40.442385822328809 -116.75548378026684 57.766627929024963 -1 0 0 0 -0.83867057594974714 0.54463902268945019 forward_v I I I I #
face $-1 $90 $91 $30 $-1 $92 forward single #
loop $-1 $93 $94 $38 #
cone-surface $-1 29.896673661368197 -26.708317852845791 6.6169249049523646 0 0.83867057594974714 -0.54463902268945019 1 0 0 1 I I 0 1 1 forward I I I I #
face $-1 $95 $96 $31 $-1 $97 forward single #
loop $-1 $98 $99 $39 #
cone-surface $-1 36.224100957944557 -26.708317852845791 6.6169249049523646 0 0.83867057594974714 -0.54463902268945019 1 0 0 1 I I 0 1 1 forward I I I I #
face $-1 $100 $101 $24 $-1 $102 reversed single #
loop $-1 $-1 $103 $40 #
plane-surface $-1 0 0 -12.51604441266767 0 0 1 1 0 0 forward_v I I I I #
coedge $-1 $104 $105 $106 $107 forward $41 $-1 #
face $-1 $108 $109 $25 $-1 $110 reversed single #
loop $-1 $-1 $111 $43 #
plane-surface $-1 -34.641106837204177 0 -10.960314645268941 -1 0 0 0 0 1 forward_v I I I I #
coedge $-1 $112 $113 $114 $115 forward $44 $-1 #
face $-1 $116 $117 $26 $-1 $118 reversed single #
loop $-1 $-1 $119 $46 #
plane-surface $-1 33.060387309656392 -2.7857197333045036 54.545670633358306 0 0.83867057594974714 0.54463902268945019 1 0 0 forward_v I I I I #
coedge $-1 $120 $121 $122 $123 reversed $47 $-1 #
face $-1 $-1 $124 $27 $-1 $125 forward single #
loop $-1 $126 $127 $49 #
cone-surface $-1 29.896673661368197 25.14161098435774 5.5994936009771745 0 -0.83867057594974714 -0.54463902268945019 0.5 0 0 1 I I -0.70710678118654746 0.70710678118654746 0.5 forward I I I I #
loop $-1 $-1 $128 $35 #
coedge $-1 $80 $80 $129 $130 reversed $50 $-1 #
face $-1 $-1 $131 $28 $-1 $132 forward single #
loop $-1 $133 $134 $52 #
cone-surface $-1 36.224100957944557 25.14161098435774 5.5994936009771745 0 -0.83867057594974714 -0.54463902268945019 0.5 0 0 1 I I -0.70710678118654746 0.70710678118654746 0.5 forward I I I I #
loop $-1 $-1 $135 $36 #
coedge $-1 $85 $85 $136 $137 reversed $53 $-1 #
face $-1 $138 $139 $29 $-1 $140 reversed single #
loop $-1 $-1 $141 $55 #
plane-surface $-1 33.060387309656392 -31.202741071242926 2.2080289824980142 0 -0.83867057594974714 0.54463902268945019 1 0 0 forward_v I I I I #
coedge $-1 $142 $143 $144 $145 reversed $56 $-1 #
face $-1 $-1 $146 $30 $-1 $147 forward single #
loop $-1 $148 $149 $58 #
cone-surface $-1 29.896673661368197 -25.14161098435774 5.5994936009771674 0 0.83867057594974714 -0.54463902268945019 0.5 0 0 1 I I -0.70710678118654746 0.70710678118654746 0.5 forward I I I I #
loop $-1 $-1 $150 $38 #
coedge $-1 $94 $94 $151 $152 reversed $59 $-1 #
face $-1 $-1 $153 $31 $-1 $154 forward single #
loop $-1 $155 $156 $61 #
cone-surface $-1 36.224100957944557 -25.14161098435774 5.5994936009771674 0 0.83867057594974714 -0.54463902268945019 0.5 0 0 1 I I -0.70710678118654746 0.70710678118654746 0.5 forward I I I I #
loop $-1 $-1 $157 $39 #
coedge $-1 $99 $99 $158 $159 reversed $62 $-1 #
face $-1 $160 $161 $24 $-1 $162 reversed single #
loop $-1 $-1 $163 $64 #
plane-surface $-1 0 -31.202741071242933 0 0 1 0 0 0 1 forward_v I I I I #
coedge $-1 $164 $165 $166 $167 forward $65 $-1 #
coedge $-1 $168 $67 $169 $170 forward $41 $-1 #
coedge $-1 $67 $168 $171 $172 forward $41 $-1 #
coedge $-1 $173 $174 $67 $107 reversed $175 $-1 #
edge $-1 $176 -31.202741071242933 $177 31.202741071242933 $106 $178 forward 7 unknown #
face $-1 $179 $180 $25 $-1 $181 reversed single #
loop $-1 $-1 $182 $68 #
plane-surface $-1 0 0 -12.51604441266767 0 0 1 1 0 0 forward_v I I I I #
coedge $-1 $183 $114 $184 $185 reversed $69 $-1 #
coedge $-1 $186 $71 $187 $188 reversed $44 $-1 #
coedge $-1 $71 $186 $189 $190 reversed $44 $-1 #
coedge $-1 $111 $191 $71 $115 reversed $69 $-1 #
edge $-1 $192 -31.202741071242933 $193 31.202741071242933 $114 $194 forward 7 unknown #
face $-1 $195 $196 $26 $-1 $197 reversed single #
loop $-1 $-1 $198 $72 #
plane-surface $-1 40.442385822328809 82.767022975719414 110.10426957988525 -1 0 0 0 0.83867057594974714 0.54463902268945019 forward_v I I I I #
coedge $-1 $199 $200 $201 $202 reversed $73 $-1 #
coedge $-1 $121 $75 $203 $204 reversed $47 $-1 #
coedge $-1 $75 $120 $199 $205 reversed $47 $-1 #
coedge $-1 $201 $206 $75 $123 forward $207 $-1 #
edge $-1 $208 10.180770416616774 $209 16.874873692384689 $122 $210 forward 7 unknown #
loop $-1 $-1 $129 $76 #
plane-surface $-1 33.060387309656392 -2.7857197333045036 54.545670633358306 0 0.83867057594974714 0.54463902268945019 1 0 0 forward_v I I I I #
loop $-1 $-1 $211 $49 #
coedge $-1 $127 $127 $128 $212 reversed $77 $-1 #
coedge $-1 $128 $128 $127 $212 forward $79 $-1 #
coedge $-1 $129 $129 $80 $130 forward $124 $-1 #
edge $-1 $213 -8.9033658465053147e-016 $213 6.2831853071795996 $129 $214 forward 7 unknown #
loop $-1 $-1 $136 $81 #
plane-surface $-1 33.060387309656392 -2.7857197333045036 54.545670633358306 0 0.83867057594974714 0.54463902268945019 1 0 0 forward_v I I I I #
loop $-1 $-1 $215 $52 #
coedge $-1 $134 $134 $135 $216 reversed $82 $-1 #
coedge $-1 $135 $135 $134 $216 forward $84 $-1 #
coedge $-1 $136 $136 $85 $137 forward $131 $-1 #
edge $-1 $217 -8.9033658465053147e-016 $217 6.2831853071795996 $136 $218 forward 7 unknown #
face $-1 $219 $220 $29 $-1 $221 forward single #
loop $-1 $-1 $222 $86 #
plane-surface $-1 25.678388796983974 -116.75548378026684 57.766627929024963 1 0 0 0 0.83867057594974714 -0.54463902268945019 forward_v I I I I #
coedge $-1 $223 $224 $225 $226 reversed $87 $-1 #
coedge $-1 $143 $89 $227 $228 reversed $56 $-1 #
coedge $-1 $89 $142 $223 $229 reversed $56 $-1 #
coedge $-1 $225 $230 $89 $145 forward $220 $-1 #
edge $-1 $231 27.175000818890489 $232 33.869104094658418 $144 $233 forward 7 unknown #
loop $-1 $-1 $151 $90 #
plane-surface $-1 33.060387309656392 -31.202741071242926 2.2080289824980142 0 -0.83867057594974714 0.54463902268945019 1 0 0 forward_v I I I I #
loop $-1 $-1 $234 $58 #
coedge $-1 $149 $149 $150 $235 reversed $91 $-1 #
coedge $-1 $150 $150 $149 $235 forward $93 $-1 #
coedge $-1 $151 $151 $94 $152 forward $146 $-1 #
edge $-1 $236 7.4488910679604037e-016 $236 6.2831853071796013 $151 $237 forward 7 unknown #
loop $-1 $-1 $158 $95 #
plane-surface $-1 33.060387309656392 -31.202741071242926 2.2080289824980142 0 -0.83867057594974714 0.54463902268945019 1 0 0 forward_v I I I I #
loop $-1 $-1 $238 $61 #
coedge $-1 $156 $156 $157 $239 reversed $96 $-1 #
coedge $-1 $157 $157 $156 $239 forward $98 $-1 #
coedge $-1 $158 $158 $99 $159 forward $153 $-1 #
edge $-1 $240 7.4488910679604037e-016 $240 6.2831853071796013 $158 $241 forward 7 unknown #
face $-1 $242 $243 $24 $-1 $244 reversed single #
loop $-1 $-1 $245 $100 #
plane-surface $-1 -51.004974517044587 0 0 1 0 0 0 0 -1 forward_v I I I I #
coedge $-1 $246 $171 $247 $248 forward $101 $-1 #
coedge $-1 $249 $103 $246 $250 forward $65 $-1 #
coedge $-1 $103 $249 $251 $252 forward $65 $-1 #
coedge $-1 $174 $173 $103 $167 reversed $175 $-1 #
edge $-1 $253 -31.202741071242933 $254 31.202741071242933 $166 $255 forward 7 unknown #
coedge $-1 $105 $104 $256 $257 forward $41 $-1 #
coedge $-1 $258 $259 $104 $170 reversed $243 $-1 #
edge $-1 $177 -51.004974517044587 $260 51.004974517044587 $169 $261 forward 7 unknown #
coedge $-1 $163 $262 $105 $172 reversed $101 $-1 #
edge $-1 $263 -51.004974517044587 $176 51.004974517044587 $171 $264 forward 7 unknown #
coedge $-1 $166 $106 $262 $265 forward $175 $-1 #
coedge $-1 $106 $166 $258 $266 reversed $175 $-1 #
loop $-1 $-1 $173 $242 #
vertex $-1 $107 $267 #
vertex $-1 $107 $268 #
straight-curve $-1 51.004974517044587 0 12.51604441266767 0 1 0 I I #
face $-1 $269 $270 $25 $-1 $271 reversed single #
loop $-1 $-1 $184 $108 #
plane-surface $-1 0 -31.202741071242933 0 0 1 0 0 0 1 forward_v I I I I #
coedge $-1 $272 $273 $183 $274 forward $109 $-1 #
coedge $-1 $191 $111 $182 $274 reversed $69 $-1 #
coedge $-1 $189 $275 $111 $185 forward $180 $-1 #
edge $-1 $276 -7.0358870900331993 $192 -3.9244275552357415 $184 $277 forward 7 unknown #
coedge $-1 $113 $112 $278 $279 reversed $44 $-1 #
coedge $-1 $280 $281 $112 $188 forward $282 $-1 #
edge $-1 $283 -29.593454178482396 $193 -13.229586498641986 $187 $284 forward 7 unknown #
coedge $-1 $285 $184 $113 $190 forward $180 $-1 #
edge $-1 $192 13.229586498641986 $286 29.593454178482396 $189 $287 forward 7 unknown #
coedge $-1 $114 $183 $280 $288 reversed $69 $-1 #
vertex $-1 $190 $289 #
vertex $-1 $188 $290 #
straight-curve $-1 -34.641106837204177 0 -9.4045848778702119 0 1 0 I I #
face $-1 $-1 $207 $26 $-1 $291 forward single #
loop $-1 $-1 $292 $116 #
plane-surface $-1 0 31.202741071242933 0 0 -1 0 0 0 -1 forward_v I I I I #
coedge $-1 $293 $294 $295 $296 reversed $117 $-1 #
coedge $-1 $297 $119 $121 $205 forward $73 $-1 #
coedge $-1 $119 $297 $293 $298 forward $73 $-1 #
coedge $-1 $295 $122 $119 $202 forward $207 $-1 #
edge $-1 $209 9.1481951421557781 $299 23.912192167500613 $201 $300 forward 7 unknown #
coedge $-1 $301 $302 $120 $204 forward $196 $-1 #
edge $-1 $303 -52.844105807444606 $208 -42.536090377274959 $203 $304 forward 7 unknown #
edge $-1 $209 50.114583038870123 $303 62.405482142485873 $121 $305 forward 7 unknown #
coedge $-1 $122 $295 $301 $306 forward $207 $-1 #
loop $-1 $-1 $295 $195 #
vertex $-1 $204 $307 #
vertex $-1 $123 $308 #
straight-curve $-1 25.678388796983974 41.383511487859707 12.516044412667668 0 -1 0 I I #
coedge $-1 $211 $211 $-1 $309 reversed $126 $-1 #
edge $-1 $310 0 $310 6.2831853071796004 $127 $311 forward 7 unknown #
vertex $-1 $130 $312 #
ellipse-curve $-1 29.896673661368197 27.855689433358975 7.3620366975828473 0 0.83867057594974714 0.54463902268945019 1 0 0 1 I I #
coedge $-1 $215 $215 $-1 $313 reversed $133 $-1 #
edge $-1 $314 0 $314 6.2831853071796004 $134 $315 forward 7 unknown #
vertex $-1 $137 $316 #
ellipse-curve $-1 36.224100957944557 27.855689433358975 7.3620366975828473 0 0.83867057594974714 0.54463902268945019 1 0 0 1 I I #
face $-1 $-1 $317 $29 $-1 $318 reversed single #
loop $-1 $-1 $144 $138 #
plane-surface $-1 0 0 12.51604441266767 0 0 1 1 0 0 forward_v I I I I #
coedge $-1 $319 $320 $321 $322 reversed $139 $-1 #
coedge $-1 $323 $141 $143 $229 forward $87 $-1 #
coedge $-1 $141 $323 $319 $324 forward $87 $-1 #
coedge $-1 $321 $144 $141 $226 forward $220 $-1 #
edge $-1 $232 -23.912192167500613 $325 -9.1481951421557781 $225 $326 forward 7 unknown #
coedge $-1 $327 $328 $142 $228 forward $317 $-1 #
edge $-1 $329 -26.675284982014478 $231 -16.367269551844814 $227 $330 forward 7 unknown #
edge $-1 $232 -12.290899103615754 $329 1.3181006846785195e-014 $143 $331 forward 7 unknown #
coedge $-1 $144 $321 $327 $332 forward $220 $-1 #
vertex $-1 $145 $333 #
vertex $-1 $145 $334 #
straight-curve $-1 40.442385822328809 -58.377741890133422 12.516044412667668 0 1 0 I I #
coedge $-1 $234 $234 $-1 $335 reversed $148 $-1 #
edge $-1 $336 0 $336 6.2831853071796004 $149 $337 forward 7 unknown #
vertex $-1 $152 $338 #
ellipse-curve $-1 29.896673661368197 -27.855689433358968 7.3620366975828357 0 -0.83867057594974714 0.54463902268945019 1 0 0 1 I I #
coedge $-1 $238 $238 $-1 $339 reversed $155 $-1 #
edge $-1 $340 0 $340 6.2831853071796004 $156 $341 forward 7 unknown #
vertex $-1 $159 $342 #
ellipse-curve $-1 36.224100957944557 -27.855689433358968 7.3620366975828357 0 -0.83867057594974714 0.54463902268945019 1 0 0 1 I I #
face $-1 $-1 $175 $24 $-1 $343 reversed single #
loop $-1 $-1 $258 $160 #
plane-surface $-1 0 31.202741071242933 0 0 -1 0 0 0 -1 forward_v I I I I #
coedge $-1 $344 $256 $259 $345 forward $161 $-1 #
coedge $-1 $262 $163 $164 $250 reversed $101 $-1 #
coedge $-1 $256 $344 $163 $248 reversed $161 $-1 #
edge $-1 $263 -12.51604441266767 $346 12.51604441266767 $247 $347 forward 7 unknown #
coedge $-1 $165 $164 $344 $348 forward $65 $-1 #
edge $-1 $254 -51.004974517044587 $346 51.004974517044587 $246 $349 forward 7 unknown #
coedge $-1 $259 $258 $165 $252 reversed $243 $-1 #
edge $-1 $350 -51.004974517044587 $253 51.004974517044587 $251 $351 forward 7 unknown #
vertex $-1 $167 $352 #
vertex $-1 $265 $353 #
straight-curve $-1 51.004974517044587 0 -12.51604441266767 0 -1 0 I I #
coedge $-1 $245 $247 $168 $257 reversed $161 $-1 #
edge $-1 $260 -31.202741071242933 $263 31.202741071242933 $256 $354 forward 7 unknown #
coedge $-1 $251 $169 $174 $266 forward $243 $-1 #
coedge $-1 $169 $251 $245 $345 reversed $243 $-1 #
vertex $-1 $170 $355 #
straight-curve $-1 0 31.202741071242933 12.51604441266767 -1 0 0 I I #
coedge $-1 $171 $246 $173 $265 reversed $101 $-1 #
vertex $-1 $257 $356 #
straight-curve $-1 0 -31.202741071242933 12.51604441266767 1 0 0 I I #
edge $-1 $176 -12.51604441266767 $254 12.51604441266767 $173 $357 forward 7 unknown #
edge $-1 $177 -12.51604441266767 $253 12.51604441266767 $174 $358 forward 7 unknown #
point $-1 51.004974517044587 -31.202741071242933 12.51604441266767 #
point $-1 51.004974517044587 31.202741071242933 12.51604441266767 #
face $-1 $-1 $282 $25 $-1 $359 reversed single #
loop $-1 $-1 $278 $179 #
plane-surface $-1 -51.004974517044587 0 0 1 0 0 0 0 -1 forward_v I I I I #
coedge $-1 $360 $182 $275 $361 forward $109 $-1 #
coedge $-1 $182 $360 $362 $363 forward $109 $-1 #
edge $-1 $364 -31.202741071242933 $276 31.202741071242933 $182 $365 forward 7 unknown #
coedge $-1 $184 $285 $272 $361 reversed $180 $-1 #
vertex $-1 $361 $366 #
straight-curve $-1 -34.641106837204177 -31.202741071242933 -5.4801573226344704 0 0 1 I I #
coedge $-1 $367 $368 $186 $279 forward $270 $-1 #
edge $-1 $286 -31.202741071242933 $283 31.202741071242933 $278 $369 forward 7 unknown #
coedge $-1 $362 $187 $191 $288 forward $282 $-1 #
coedge $-1 $187 $362 $367 $370 reversed $282 $-1 #
loop $-1 $-1 $280 $269 #
vertex $-1 $370 $371 #
straight-curve $-1 -21.411520338562191 31.202741071242933 -9.4045848778702119 1 0 0 I I #
coedge $-1 $275 $189 $368 $372 forward $180 $-1 #
vertex $-1 $372 $373 #
straight-curve $-1 -21.411520338562191 -31.202741071242933 -9.4045848778702119 -1 0 0 I I #
edge $-1 $193 3.9244275552357415 $364 7.0358870900331993 $280 $374 forward 7 unknown #
point $-1 -34.641106837204177 -31.202741071242933 -9.4045848778702119 #
point $-1 -34.641106837204177 31.202741071242933 -9.4045848778702119 #
plane-surface $-1 0 0 12.51604441266767 0 0 1 1 0 0 forward_v I I I I #
coedge $-1 $302 $301 $294 $375 forward $196 $-1 #
coedge $-1 $294 $198 $200 $298 reversed $117 $-1 #
coedge $-1 $198 $293 $292 $375 reversed $117 $-1 #
coedge $-1 $206 $201 $198 $296 forward $207 $-1 #
edge $-1 $299 -16.874873692384689 $376 -10.180770416616774 $295 $377 forward 7 unknown #
coedge $-1 $200 $199 $302 $378 reversed $73 $-1 #
edge $-1 $379 -62.405482142485873 $299 -50.114583038870123 $293 $380 forward 7 unknown #
vertex $-1 $202 $381 #
straight-curve $-1 16.530193654828196 24.508637795475021 12.516044412667664 1 0 0 I I #
coedge $-1 $292 $203 $206 $306 reversed $196 $-1 #
coedge $-1 $203 $292 $297 $378 forward $196 $-1 #
vertex $-1 $204 $382 #
straight-curve $-1 25.678388796983974 31.202741071242933 55.052134789942627 0 0 1 I I #
straight-curve $-1 25.678388796983974 -2.7857197333045036 54.545670633358306 0 0.54463902268945019 -0.83867057594974714 I I #
edge $-1 $376 -40.442385822328809 $208 -25.678388796983974 $301 $383 forward 7 unknown #
point $-1 25.678388796983974 31.202741071242933 12.51604441266767 #
point $-1 25.678388796983974 24.508637795475018 12.516044412667668 #
edge $-1 $384 1 $384 0 $211 $-1 forward 7 unknown #
vertex $-1 $212 $385 #
ellipse-curve $-1 29.896673661368197 25.560946272332615 5.8718131123218997 0 0.83867057594974714 0.54463902268945019 1 0 0 1 I I #
point $-1 30.896673661368197 27.855689433358968 7.3620366975828437 #
edge $-1 $386 1 $386 0 $215 $-1 forward 7 unknown #
vertex $-1 $216 $387 #
ellipse-curve $-1 36.224100957944557 25.560946272332615 5.8718131123218997 0 0.83867057594974714 0.54463902268945019 1 0 0 1 I I #
point $-1 37.224100957944557 27.855689433358968 7.3620366975828437 #
loop $-1 $-1 $227 $219 #
plane-surface $-1 0 -31.202741071242933 0 0 1 0 0 0 1 forward_v I I I I #
coedge $-1 $320 $222 $224 $324 reversed $139 $-1 #
coedge $-1 $222 $319 $388 $389 reversed $139 $-1 #
coedge $-1 $230 $225 $222 $322 forward $220 $-1 #
edge $-1 $325 -33.869104094658418 $390 -27.175000818890489 $321 $391 forward 7 unknown #
coedge $-1 $224 $223 $328 $392 reversed $87 $-1 #
edge $-1 $393 -1.3181006846785195e-014 $325 12.290899103615754 $319 $394 forward 7 unknown #
vertex $-1 $226 $395 #
straight-curve $-1 16.530193654828196 -24.508637795475 12.51604441266767 -1 0 0 I I #
coedge $-1 $388 $227 $230 $332 reversed $317 $-1 #
coedge $-1 $227 $388 $323 $392 forward $317 $-1 #
vertex $-1 $228 $396 #
straight-curve $-1 40.442385822328809 -31.202741071242933 28.883313964512482 0 0 1 I I #
straight-curve $-1 40.442385822328809 -31.202741071242926 2.2080289824980142 0 -0.54463902268945019 -0.83867057594974714 I I #
edge $-1 $390 25.678388796983974 $231 40.442385822328809 $327 $397 forward 7 unknown #
point $-1 40.442385822328809 -31.202741071242933 12.51604441266767 #
point $-1 40.442385822328809 -24.508637795475003 12.51604441266767 #
edge $-1 $398 1 $398 0 $234 $-1 forward 7 unknown #
vertex $-1 $235 $399 #
ellipse-curve $-1 29.896673661368197 -25.560946272332615 5.8718131123218926 0 -0.83867057594974714 0.54463902268945019 1 0 0 1 I I #
point $-1 30.896673661368197 -27.855689433358968 7.3620366975828366 #
edge $-1 $400 1 $400 0 $238 $-1 forward 7 unknown #
vertex $-1 $239 $401 #
ellipse-curve $-1 36.224100957944557 -25.560946272332615 5.8718131123218926 0 -0.83867057594974714 0.54463902268945019 1 0 0 1 I I #
point $-1 37.224100957944557 -27.855689433358968 7.3620366975828366 #
plane-surface $-1 51.004974517044587 0 0 -1 0 0 0 0 1 forward_v I I I I #
coedge $-1 $247 $245 $249 $348 reversed $161 $-1 #
edge $-1 $260 -12.51604441266767 $350 12.51604441266767 $259 $402 forward 7 unknown #
vertex $-1 $348 $403 #
straight-curve $-1 -51.004974517044587 -31.202741071242933 0 0 0 -1 I I #
edge $-1 $346 -31.202741071242933 $350 31.202741071242933 $344 $404 forward 7 unknown #
straight-curve $-1 0 -31.202741071242933 -12.51604441266767 -1 0 0 I I #
vertex $-1 $252 $405 #
straight-curve $-1 0 31.202741071242933 -12.51604441266767 1 0 0 I I #
point $-1 51.004974517044587 31.202741071242933 -12.51604441266767 #
point $-1 51.004974517044587 -31.202741071242933 -12.51604441266767 #
straight-curve $-1 -51.004974517044587 0 12.51604441266767 0 -1 0 I I #
point $-1 -51.004974517044587 31.202741071242933 12.51604441266767 #
point $-1 -51.004974517044587 -31.202741071242933 12.51604441266767 #
straight-curve $-1 51.004974517044587 -31.202741071242933 0 0 0 -1 I I #
straight-curve $-1 51.004974517044587 31.202741071242933 0 0 0 -1 I I #
plane-surface $-1 0 31.202741071242933 0 0 -1 0 0 0 -1 forward_v I I I I #
coedge $-1 $273 $272 $406 $407 forward $109 $-1 #
edge $-1 $276 34.641106837204177 $408 51.004974517044587 $275 $409 forward 7 unknown #
coedge $-1 $281 $280 $273 $363 reversed $282 $-1 #
edge $-1 $410 -51.004974517044587 $364 -34.641106837204177 $362 $411 forward 7 unknown #
vertex $-1 $288 $412 #
straight-curve $-1 -34.641106837204177 0 -12.51604441266767 0 -1 0 I I #
point $-1 -34.641106837204177 -31.202741071242933 -12.51604441266767 #
coedge $-1 $406 $278 $281 $370 forward $270 $-1 #
coedge $-1 $278 $406 $285 $372 reversed $270 $-1 #
straight-curve $-1 -51.004974517044587 0 -9.4045848778702119 0 1 0 I I #
edge $-1 $283 9.4045848778702119 $410 12.51604441266767 $281 $413 forward 7 unknown #
point $-1 -51.004974517044587 31.202741071242933 -9.4045848778702119 #
edge $-1 $286 9.4045848778702119 $408 12.51604441266767 $368 $414 forward 7 unknown #
point $-1 -51.004974517044587 -31.202741071242933 -9.4045848778702119 #
straight-curve $-1 -34.641106837204177 31.202741071242933 -5.4801573226344704 0 0 -1 I I #
edge $-1 $376 42.536090377274959 $379 52.844105807444606 $292 $415 forward 7 unknown #
vertex $-1 $306 $416 #
straight-curve $-1 40.442385822328809 41.383511487859707 12.516044412667668 0 1 0 I I #
edge $-1 $379 -23.912192167500613 $303 -9.1481951421557781 $302 $417 forward 7 unknown #
vertex $-1 $378 $418 #
straight-curve $-1 40.442385822328809 -2.7857197333045036 54.545670633358306 0 -0.54463902268945019 0.83867057594974714 I I #
point $-1 40.442385822328809 24.508637795475018 12.516044412667668 #
point $-1 25.678388796983974 31.202741071242933 2.2080289824980213 #
straight-curve $-1 0 31.202741071242933 12.51604441266767 -1 0 0 I I #
vertex $-1 $309 $419 #
point $-1 30.896673661368197 25.560946272332615 5.8718131123218997 #
vertex $-1 $313 $420 #
point $-1 37.224100957944557 25.560946272332615 5.8718131123218997 #
coedge $-1 $328 $327 $320 $389 forward $317 $-1 #
edge $-1 $390 16.367269551844814 $393 26.675284982014478 $388 $421 forward 7 unknown #
vertex $-1 $332 $422 #
straight-curve $-1 25.678388796983974 -58.377741890133422 12.516044412667668 0 -1 0 I I #
edge $-1 $393 9.1481951421557781 $329 23.912192167500613 $328 $423 forward 7 unknown #
vertex $-1 $392 $424 #
straight-curve $-1 25.678388796983974 -31.202741071242926 2.2080289824980142 0 0.54463902268945019 0.83867057594974714 I I #
point $-1 25.678388796983974 -24.508637795475003 12.51604441266767 #
point $-1 40.442385822328809 -31.202741071242933 2.2080289824980031 #
straight-curve $-1 0 -31.202741071242933 12.51604441266767 1 0 0 I I #
vertex $-1 $335 $425 #
point $-1 30.896673661368197 -25.560946272332615 5.8718131123218926 #
vertex $-1 $339 $426 #
point $-1 37.224100957944557 -25.560946272332615 5.8718131123218926 #
straight-curve $-1 -51.004974517044587 31.202741071242933 0 0 0 -1 I I #
point $-1 -51.004974517044587 -31.202741071242933 -12.51604441266767 #
straight-curve $-1 -51.004974517044587 0 -12.51604441266767 0 1 0 I I #
point $-1 -51.004974517044587 31.202741071242933 -12.51604441266767 #
coedge $-1 $368 $367 $360 $407 reversed $270 $-1 #
edge $-1 $408 -31.202741071242933 $410 31.202741071242933 $406 $427 forward 7 unknown #
vertex $-1 $407 $428 #
straight-curve $-1 0 -31.202741071242933 -12.51604441266767 -1 0 0 I I #
vertex $-1 $363 $429 #
straight-curve $-1 0 31.202741071242933 -12.51604441266767 1 0 0 I I #
point $-1 -34.641106837204177 31.202741071242933 -12.51604441266767 #
straight-curve $-1 -51.004974517044587 31.202741071242933 0 0 0 -1 I I #
straight-curve $-1 -51.004974517044587 -31.202741071242933 0 0 0 -1 I I #
straight-curve $-1 40.442385822328809 31.202741071242933 55.052134789942627 0 0 -1 I I #
point $-1 40.442385822328809 31.202741071242933 12.51604441266767 #
straight-curve $-1 16.530193654828196 31.202741071242933 2.2080289824980248 -1 0 0 I I #
point $-1 40.442385822328809 31.202741071242933 2.2080289824980213 #
point $-1 29.896673661368197 24.722275696382866 5.3271740896324493 #
point $-1 36.224100957944557 24.722275696382866 5.3271740896324493 #
straight-curve $-1 25.678388796983974 -31.202741071242933 28.883313964512482 0 0 -1 I I #
point $-1 25.678388796983974 -31.202741071242933 12.51604441266767 #
straight-curve $-1 16.530193654828196 -31.202741071242933 2.2080289824980008 1 0 0 I I #
point $-1 25.678388796983974 -31.202741071242933 2.2080289824980031 #
point $-1 29.896673661368197 -24.722275696382866 5.3271740896324422 #
point $-1 36.224100957944557 -24.722275696382866 5.3271740896324422 #
straight-curve $-1 -51.004974517044587 0 -12.51604441266767 0 1 0 I I #
point $-1 -51.004974517044587 -31.202741071242933 -12.51604441266767 #
point $-1 -51.004974517044587 31.202741071242933 -12.51604441266767 #
End-of-ACIS-data 