500 0 5 0           
7 Unknown 11 ACIS 5.0 NT 24 Thu Mar 25 23:17:16 1999 
-1 9.9999999999999995e-007 1e-010 
body $-1 $5 $-1 $6 #
body $-1 $7 $-1 $8 #
body $-1 $9 $-1 $10 #
body $-1 $11 $-1 $12 #
body $-1 $13 $-1 $14 #
lump $-1 $-1 $15 $0 #
transform $-1 1 0 0 0 1 0 0 0 1 71.143528550065611 48.565494581765876 13.536592259429483 1 rotate no_reflect no_shear #
lump $-1 $-1 $16 $1 #
transform $-1 1 0 0 0 1 0 0 0 1 71.143528550065611 48.565494581765876 13.536592259429483 1 rotate no_reflect no_shear #
lump $-1 $-1 $17 $2 #
transform $-1 1 0 0 0 1 0 0 0 1 71.143528550065611 48.565494581765876 13.536592259429483 1 rotate no_reflect no_shear #
lump $-1 $-1 $18 $3 #
transform $-1 1 0 0 0 1 0 0 0 1 71.143528550065611 48.565494581765876 13.536592259429483 1 rotate no_reflect no_shear #
lump $-1 $-1 $19 $4 #
transform $-1 1 0 0 0 1 0 0 0 1 71.143528550065611 48.565494581765876 13.536592259429483 1 rotate no_reflect no_shear #
shell $-1 $-1 $-1 $20 $-1 $5 #
shell $-1 $-1 $-1 $21 $-1 $7 #
shell $-1 $-1 $-1 $22 $-1 $9 #
shell $-1 $-1 $-1 $23 $-1 $11 #
shell $-1 $-1 $-1 $24 $-1 $13 #
face $-1 $25 $26 $15 $-1 $27 forward single #
face $-1 $28 $29 $16 $-1 $30 reversed single #
face $-1 $31 $32 $17 $-1 $33 forward single #
face $-1 $34 $35 $18 $-1 $36 forward single #
face $-1 $37 $38 $19 $-1 $39 forward single #
face $-1 $40 $41 $15 $-1 $42 reversed single #
loop $-1 $-1 $43 $20 #
plane-surface $-1 0 0 13.536592259429483 0 0 1 1 0 0 forward_v I I I I #
face $-1 $44 $45 $16 $-1 $46 reversed single #
loop $-1 $-1 $47 $21 #
plane-surface $-1 -4.2571222538522733 -40.191218604824584 126.31545425070409 0.84804810408105047 0 0.52991925155115449 0.52991925155115449 0 -0.84804810408105047 forward_v I I I I #
face $-1 $48 $49 $17 $-1 $50 forward single #
loop $-1 $51 $52 $22 #
cone-surface $-1 67.520464756661909 -45.215784190989361 8.8688124026953279 -0.84804810408105047 0 -0.52991925155115449 0.52991925155115449 0 -0.84804810408105047 1 I I 0 1 1 forward I I I I #
face $-1 $53 $54 $18 $-1 $55 forward single #
loop $-1 $56 $57 $23 #
cone-surface $-1 67.520464756661909 -40.191218604824584 8.8688124026953279 -0.84804810408105047 0 -0.52991925155115449 0.52991925155115449 0 -0.84804810408105047 1 I I 0 1 1 forward I I I I #
face $-1 $58 $59 $19 $-1 $60 forward single #
loop $-1 $61 $62 $24 #
cone-surface $-1 67.520464756661909 -35.166653018659801 8.8688124026953279 -0.84804810408105047 0 -0.52991925155115449 0.52991925155115449 0 -0.84804810408105047 1 I I 0 1 1 forward I I I I #
face $-1 $63 $64 $15 $-1 $65 reversed single #
loop $-1 $-1 $66 $25 #
plane-surface $-1 0 0 -13.536592259429483 0 0 1 1 0 0 forward_v I I I I #
coedge $-1 $67 $68 $69 $70 forward $26 $-1 #
face $-1 $71 $72 $16 $-1 $73 forward single #
loop $-1 $-1 $74 $28 #
plane-surface $-1 116.40914675518619 -31.816942627883289 201.71610505462201 0 -1 0 -0.84804810408105047 0 -0.52991925155115449 forward_v I I I I #
coedge $-1 $75 $76 $77 $78 reversed $29 $-1 #
face $-1 $-1 $79 $17 $-1 $80 forward single #
loop $-1 $81 $82 $31 #
cone-surface $-1 65.937676284931797 -45.215784190989361 7.879776429067519 -0.84804810408105047 0 -0.52991925155115449 0.26495962577557725 0 -0.42402405204052523 1 I I -0.70710678118654746 0.70710678118654746 0.5 forward I I I I #
loop $-1 $-1 $83 $22 #
coedge $-1 $52 $52 $84 $85 reversed $32 $-1 #
face $-1 $-1 $86 $18 $-1 $87 forward single #
loop $-1 $88 $89 $34 #
cone-surface $-1 65.937676284931797 -40.191218604824584 7.879776429067519 -0.84804810408105047 0 -0.52991925155115449 0.26495962577557725 0 -0.42402405204052523 1 I I -0.70710678118654746 0.70710678118654746 0.5 forward I I I I #
loop $-1 $-1 $90 $23 #
coedge $-1 $57 $57 $91 $92 reversed $35 $-1 #
face $-1 $-1 $93 $19 $-1 $94 forward single #
loop $-1 $95 $96 $37 #
cone-surface $-1 65.937676284931797 -35.166653018659801 7.879776429067519 -0.84804810408105047 0 -0.52991925155115449 0.26495962577557725 0 -0.42402405204052523 1 I I -0.70710678118654746 0.70710678118654746 0.5 forward I I I I #
loop $-1 $-1 $97 $24 #
coedge $-1 $62 $62 $98 $99 reversed $38 $-1 #
face $-1 $100 $101 $15 $-1 $102 reversed single #
loop $-1 $-1 $103 $40 #
plane-surface $-1 0 -48.565494581765876 0 0 1 0 0 0 1 forward_v I I I I #
coedge $-1 $104 $105 $106 $107 forward $41 $-1 #
coedge $-1 $108 $43 $109 $110 forward $26 $-1 #
coedge $-1 $43 $108 $111 $112 forward $26 $-1 #
coedge $-1 $113 $114 $43 $70 reversed $115 $-1 #
edge $-1 $116 -48.565494581765876 $117 48.565494581765876 $69 $118 forward 7 unknown #
face $-1 $119 $120 $16 $-1 $121 reversed single #
loop $-1 $-1 $122 $44 #
plane-surface $-1 0 0 13.536592259429483 0 0 1 1 0 0 forward_v I I I I #
coedge $-1 $123 $124 $125 $126 reversed $45 $-1 #
coedge $-1 $127 $47 $128 $129 reversed $29 $-1 #
coedge $-1 $47 $127 $123 $130 forward $29 $-1 #
coedge $-1 $125 $131 $47 $78 forward $132 $-1 #
edge $-1 $133 -28.469885279353583 $134 -11.721333325470997 $77 $135 forward 7 unknown #
loop $-1 $-1 $84 $48 #
plane-surface $-1 -4.2571222538522733 -40.191218604824584 126.31545425070409 0.84804810408105047 0 0.52991925155115449 0.52991925155115449 0 -0.84804810408105047 forward_v I I I I #
loop $-1 $-1 $136 $31 #
coedge $-1 $82 $82 $83 $137 reversed $49 $-1 #
coedge $-1 $83 $83 $82 $137 forward $51 $-1 #
coedge $-1 $84 $84 $52 $85 forward $79 $-1 #
edge $-1 $138 0 $138 6.2831853071796004 $84 $139 forward 7 unknown #
loop $-1 $-1 $91 $53 #
plane-surface $-1 -4.2571222538522733 -40.191218604824584 126.31545425070409 0.84804810408105047 0 0.52991925155115449 0.52991925155115449 0 -0.84804810408105047 forward_v I I I I #
loop $-1 $-1 $140 $34 #
coedge $-1 $89 $89 $90 $141 reversed $54 $-1 #
coedge $-1 $90 $90 $89 $141 forward $56 $-1 #
coedge $-1 $91 $91 $57 $92 forward $86 $-1 #
edge $-1 $142 0 $142 6.2831853071796004 $91 $143 forward 7 unknown #
loop $-1 $-1 $98 $58 #
plane-surface $-1 -4.2571222538522733 -40.191218604824584 126.31545425070409 0.84804810408105047 0 0.52991925155115449 0.52991925155115449 0 -0.84804810408105047 forward_v I I I I #
loop $-1 $-1 $144 $37 #
coedge $-1 $96 $96 $97 $145 reversed $59 $-1 #
coedge $-1 $97 $97 $96 $145 forward $61 $-1 #
coedge $-1 $98 $98 $62 $99 forward $93 $-1 #
edge $-1 $146 0 $146 6.2831853071796004 $98 $147 forward 7 unknown #
face $-1 $148 $149 $15 $-1 $150 reversed single #
loop $-1 $-1 $151 $63 #
plane-surface $-1 -71.143528550065611 0 0 1 0 0 0 0 -1 forward_v I I I I #
coedge $-1 $152 $111 $153 $154 forward $64 $-1 #
coedge $-1 $155 $66 $152 $156 forward $41 $-1 #
coedge $-1 $66 $155 $157 $158 forward $41 $-1 #
coedge $-1 $114 $113 $66 $107 reversed $115 $-1 #
edge $-1 $159 -48.565494581765876 $160 48.565494581765876 $106 $161 forward 7 unknown #
coedge $-1 $68 $67 $162 $163 forward $26 $-1 #
coedge $-1 $164 $165 $67 $110 reversed $149 $-1 #
edge $-1 $117 -71.143528550065611 $166 71.143528550065611 $109 $167 forward 7 unknown #
coedge $-1 $103 $168 $68 $112 reversed $64 $-1 #
edge $-1 $169 -71.143528550065611 $116 71.143528550065611 $111 $170 forward 7 unknown #
coedge $-1 $106 $69 $168 $171 forward $115 $-1 #
coedge $-1 $69 $106 $164 $172 reversed $115 $-1 #
loop $-1 $-1 $113 $148 #
vertex $-1 $70 $173 #
vertex $-1 $70 $174 #
straight-curve $-1 71.143528550065611 0 13.536592259429483 0 1 0 I I #
face $-1 $-1 $132 $16 $-1 $175 reversed single #
loop $-1 $-1 $128 $71 #
plane-surface $-1 0 -48.565494581765876 0 0 1 0 0 0 1 forward_v I I I I #
coedge $-1 $176 $177 $124 $178 forward $72 $-1 #
coedge $-1 $124 $74 $76 $130 reversed $45 $-1 #
coedge $-1 $74 $123 $122 $178 reversed $45 $-1 #
coedge $-1 $179 $77 $74 $126 forward $132 $-1 #
edge $-1 $134 -95.208867285645312 $180 -87.32146026788152 $125 $181 forward 7 unknown #
coedge $-1 $76 $75 $176 $182 reversed $29 $-1 #
coedge $-1 $183 $184 $75 $129 forward $120 $-1 #
edge $-1 $185 78.297640907183194 $133 87.598300834146414 $128 $186 forward 7 unknown #
edge $-1 $187 132.98639717316792 $134 142.28705710013116 $123 $188 forward 7 unknown #
coedge $-1 $77 $179 $183 $189 forward $132 $-1 #
loop $-1 $-1 $125 $119 #
vertex $-1 $129 $190 #
vertex $-1 $78 $191 #
straight-curve $-1 71.143528550065611 -20.095609302412292 5.6491852416657125 0 1 0 I I #
coedge $-1 $136 $136 $-1 $192 reversed $81 $-1 #
edge $-1 $193 0 $193 6.2831853071796004 $82 $194 forward 7 unknown #
vertex $-1 $85 $195 #
ellipse-curve $-1 68.679229176351527 -45.215784190989361 9.5928887505475764 0.84804810408105047 0 0.52991925155115449 0.52991925155115449 0 -0.84804810408105047 1 I I #
coedge $-1 $140 $140 $-1 $196 reversed $88 $-1 #
edge $-1 $197 0 $197 6.2831853071796004 $89 $198 forward 7 unknown #
vertex $-1 $92 $199 #
ellipse-curve $-1 68.679229176351527 -40.191218604824584 9.5928887505475764 0.84804810408105047 0 0.52991925155115449 0.52991925155115449 0 -0.84804810408105047 1 I I #
coedge $-1 $144 $144 $-1 $200 reversed $95 $-1 #
edge $-1 $201 0 $201 6.2831853071796004 $96 $202 forward 7 unknown #
vertex $-1 $99 $203 #
ellipse-curve $-1 68.679229176351527 -35.166653018659801 9.5928887505475764 0.84804810408105047 0 0.52991925155115449 0.52991925155115449 0 -0.84804810408105047 1 I I #
face $-1 $-1 $115 $15 $-1 $204 reversed single #
loop $-1 $-1 $164 $100 #
plane-surface $-1 0 48.565494581765876 0 0 -1 0 0 0 -1 forward_v I I I I #
coedge $-1 $205 $162 $165 $206 forward $101 $-1 #
coedge $-1 $168 $103 $104 $156 reversed $64 $-1 #
coedge $-1 $162 $205 $103 $154 reversed $101 $-1 #
edge $-1 $169 -13.536592259429483 $207 13.536592259429483 $153 $208 forward 7 unknown #
coedge $-1 $105 $104 $205 $209 forward $41 $-1 #
edge $-1 $160 -71.143528550065611 $207 71.143528550065611 $152 $210 forward 7 unknown #
coedge $-1 $165 $164 $105 $158 reversed $149 $-1 #
edge $-1 $211 -71.143528550065611 $159 71.143528550065611 $157 $212 forward 7 unknown #
vertex $-1 $107 $213 #
vertex $-1 $171 $214 #
straight-curve $-1 71.143528550065611 0 -13.536592259429483 0 -1 0 I I #
coedge $-1 $151 $153 $108 $163 reversed $101 $-1 #
edge $-1 $166 -48.565494581765876 $169 48.565494581765876 $162 $215 forward 7 unknown #
coedge $-1 $157 $109 $114 $172 forward $149 $-1 #
coedge $-1 $109 $157 $151 $206 reversed $149 $-1 #
vertex $-1 $110 $216 #
straight-curve $-1 0 48.565494581765876 13.536592259429483 -1 0 0 I I #
coedge $-1 $111 $152 $113 $171 reversed $64 $-1 #
vertex $-1 $163 $217 #
straight-curve $-1 0 -48.565494581765876 13.536592259429483 1 0 0 I I #
edge $-1 $116 -13.536592259429483 $160 13.536592259429483 $113 $218 forward 7 unknown #
edge $-1 $117 -13.536592259429483 $159 13.536592259429483 $114 $219 forward 7 unknown #
point $-1 71.143528550065611 -48.565494581765876 13.536592259429483 #
point $-1 71.143528550065611 48.565494581765876 13.536592259429483 #
plane-surface $-1 71.143528550065611 0 0 -1 0 0 0 0 1 forward_v I I I I #
coedge $-1 $220 $122 $127 $182 forward $72 $-1 #
coedge $-1 $122 $220 $179 $221 forward $72 $-1 #
edge $-1 $180 -12.938955172472518 $187 -8.0103564250443497 $122 $222 forward 7 unknown #
coedge $-1 $131 $125 $177 $221 reversed $132 $-1 #
vertex $-1 $126 $223 #
straight-curve $-1 71.143528550065611 -31.816942627883289 100.858052527311 0 0 1 I I #
edge $-1 $187 11.721333325470997 $185 28.469885279353583 $176 $224 forward 7 unknown #
coedge $-1 $184 $128 $131 $189 reversed $120 $-1 #
coedge $-1 $128 $183 $220 $225 reversed $120 $-1 #
vertex $-1 $225 $226 #
straight-curve $-1 24.723502534881856 -48.565494581765876 79.936758184785077 0.52991925155115449 0 -0.84804810408105047 I I #
vertex $-1 $182 $227 #
straight-curve $-1 -4.2571222538522733 -31.816942627883289 126.31545425070409 0.52991925155115449 0 -0.84804810408105047 I I #
edge $-1 $228 -13.536592259429483 $133 -5.6491852416657009 $131 $229 forward 7 unknown #
point $-1 71.143528550065611 -48.565494581765876 5.6491852416657009 #
point $-1 71.143528550065611 -31.816942627883289 5.6491852416656911 #
edge $-1 $230 1 $230 0 $136 $-1 forward 7 unknown #
vertex $-1 $137 $231 #
ellipse-curve $-1 66.361700336972319 -45.215784190989361 8.1447360548430954 0.84804810408105047 0 0.52991925155115449 0.52991925155115449 0 -0.84804810408105047 1 I I #
point $-1 69.209148427902662 -45.215784190989361 8.7448406464665087 #
edge $-1 $232 1 $232 0 $140 $-1 forward 7 unknown #
vertex $-1 $141 $233 #
ellipse-curve $-1 66.361700336972319 -40.191218604824584 8.1447360548430954 0.84804810408105047 0 0.52991925155115449 0.52991925155115449 0 -0.84804810408105047 1 I I #
point $-1 69.209148427902662 -40.191218604824584 8.7448406464665087 #
edge $-1 $234 1 $234 0 $144 $-1 forward 7 unknown #
vertex $-1 $145 $235 #
ellipse-curve $-1 66.361700336972319 -35.166653018659801 8.1447360548430954 0.84804810408105047 0 0.52991925155115449 0.52991925155115449 0 -0.84804810408105047 1 I I #
point $-1 69.209148427902662 -35.166653018659801 8.7448406464665087 #
plane-surface $-1 71.143528550065611 0 0 -1 0 0 0 0 1 forward_v I I I I #
coedge $-1 $153 $151 $155 $209 reversed $101 $-1 #
edge $-1 $166 -13.536592259429483 $211 13.536592259429483 $165 $236 forward 7 unknown #
vertex $-1 $209 $237 #
straight-curve $-1 -71.143528550065611 -48.565494581765876 0 0 0 -1 I I #
edge $-1 $207 -48.565494581765876 $211 48.565494581765876 $205 $238 forward 7 unknown #
straight-curve $-1 0 -48.565494581765876 -13.536592259429483 -1 0 0 I I #
vertex $-1 $158 $239 #
straight-curve $-1 0 48.565494581765876 -13.536592259429483 1 0 0 I I #
point $-1 71.143528550065611 48.565494581765876 -13.536592259429483 #
point $-1 71.143528550065611 -48.565494581765876 -13.536592259429483 #
straight-curve $-1 -71.143528550065611 0 13.536592259429483 0 -1 0 I I #
point $-1 -71.143528550065611 48.565494581765876 13.536592259429483 #
point $-1 -71.143528550065611 -48.565494581765876 13.536592259429483 #
straight-curve $-1 71.143528550065611 -48.565494581765876 0 0 0 -1 I I #
straight-curve $-1 71.143528550065611 48.565494581765876 0 0 0 -1 I I #
coedge $-1 $177 $176 $184 $225 forward $72 $-1 #
edge $-1 $228 -48.565494581765876 $180 -31.816942627883289 $179 $240 forward 7 unknown #
straight-curve $-1 58.204573377593093 -31.816942627883289 13.536592259429483 -1 0 0 I I #
point $-1 71.143528550065611 -31.816942627883289 13.536592259429483 #
straight-curve $-1 66.214929802637414 -20.095609302412292 13.536592259429497 0 -1 0 I I #
edge $-1 $185 66.214929802637442 $228 71.143528550065611 $184 $241 forward 7 unknown #
point $-1 66.214929802637442 -48.565494581765876 13.536592259429469 #
point $-1 66.214929802637442 -31.816942627883289 13.536592259429469 #
vertex $-1 $221 $242 #
straight-curve $-1 71.143528550065611 -48.565494581765876 0 0 0 -1 I I #
vertex $-1 $192 $243 #
point $-1 66.891619588523483 -45.215784190989361 7.2966879507620455 #
vertex $-1 $196 $244 #
point $-1 66.891619588523483 -40.191218604824584 7.2966879507620455 #
vertex $-1 $200 $245 #
point $-1 66.891619588523483 -35.166653018659801 7.2966879507620455 #
straight-curve $-1 -71.143528550065611 48.565494581765876 0 0 0 -1 I I #
point $-1 -71.143528550065611 -48.565494581765876 -13.536592259429483 #
straight-curve $-1 -71.143528550065611 0 -13.536592259429483 0 1 0 I I #
point $-1 -71.143528550065611 48.565494581765876 -13.536592259429483 #
straight-curve $-1 71.143528550065611 0 13.536592259429483 0 1 0 I I #
straight-curve $-1 0 -48.565494581765876 13.536592259429483 1 0 0 I I #
point $-1 71.143528550065611 -48.565494581765876 13.536592259429483 #
point $-1 65.513652232891275 -45.215784190989361 7.6148168032919417 #
point $-1 65.513652232891275 -40.191218604824584 7.6148168032919417 #
point $-1 65.513652232891275 -35.166653018659801 7.6148168032919417 #
End-of-ACIS-data 