500 0 13 0           
7 Unknown 11 ACIS 5.0 NT 24 Thu Mar 25 17:33:06 1999 
-1 9.9999999999999995e-007 1e-010 
body $-1 $13 $-1 $14 #
body $-1 $15 $-1 $16 #
body $-1 $17 $-1 $18 #
body $-1 $19 $-1 $20 #
body $-1 $21 $-1 $22 #
body $-1 $23 $-1 $24 #
body $-1 $25 $-1 $26 #
body $-1 $27 $-1 $28 #
body $-1 $29 $-1 $30 #
body $-1 $31 $-1 $32 #
body $-1 $33 $-1 $34 #
body $-1 $35 $-1 $36 #
body $-1 $37 $-1 $38 #
lump $-1 $-1 $39 $0 #
transform $-1 1 0 0 0 1 0 0 0 1 79.200415051728868 34.711182606734461 8.6764714847394817 1 rotate no_reflect no_shear #
lump $-1 $-1 $40 $1 #
transform $-1 1 0 0 0 1 0 0 0 1 79.200415051728868 34.711182606734461 8.6764714847394817 1 rotate no_reflect no_shear #
lump $-1 $-1 $41 $2 #
transform $-1 1 0 0 0 1 0 0 0 1 79.200415051728868 34.711182606734461 8.6764714847394817 1 rotate no_reflect no_shear #
lump $-1 $-1 $42 $3 #
transform $-1 1 0 0 0 1 0 0 0 1 79.200415051728868 34.711182606734461 8.6764714847394817 1 rotate no_reflect no_shear #
lump $-1 $-1 $43 $4 #
transform $-1 1 0 0 0 1 0 0 0 1 79.200415051728868 34.711182606734461 8.6764714847394817 1 rotate no_reflect no_shear #
lump $-1 $-1 $44 $5 #
transform $-1 1 0 0 0 1 0 0 0 1 79.200415051728868 34.711182606734461 8.6764714847394817 1 rotate no_reflect no_shear #
lump $-1 $-1 $45 $6 #
transform $-1 1 0 0 0 1 0 0 0 1 79.200415051728868 34.711182606734461 8.6764714847394817 1 rotate no_reflect no_shear #
lump $-1 $-1 $46 $7 #
transform $-1 1 0 0 0 1 0 0 0 1 79.200415051728868 34.711182606734461 8.6764714847394817 1 rotate no_reflect no_shear #
lump $-1 $-1 $47 $8 #
transform $-1 1 0 0 0 1 0 0 0 1 79.200415051728868 34.711182606734461 8.6764714847394817 1 rotate no_reflect no_shear #
lump $-1 $-1 $48 $9 #
transform $-1 1 0 0 0 1 0 0 0 1 79.200415051728868 34.711182606734461 8.6764714847394817 1 rotate no_reflect no_shear #
lump $-1 $-1 $49 $10 #
transform $-1 1 0 0 0 1 0 0 0 1 79.200415051728868 34.711182606734461 8.6764714847394817 1 rotate no_reflect no_shear #
lump $-1 $-1 $50 $11 #
transform $-1 1 0 0 0 1 0 0 0 1 79.200415051728868 34.711182606734461 8.6764714847394817 1 rotate no_reflect no_shear #
lump $-1 $-1 $51 $12 #
transform $-1 1 0 0 0 1 0 0 0 1 79.200415051728868 34.711182606734461 8.6764714847394817 1 rotate no_reflect no_shear #
shell $-1 $-1 $-1 $52 $-1 $13 #
shell $-1 $-1 $-1 $53 $-1 $15 #
shell $-1 $-1 $-1 $54 $-1 $17 #
shell $-1 $-1 $-1 $55 $-1 $19 #
shell $-1 $-1 $-1 $56 $-1 $21 #
shell $-1 $-1 $-1 $57 $-1 $23 #
shell $-1 $-1 $-1 $58 $-1 $25 #
shell $-1 $-1 $-1 $59 $-1 $27 #
shell $-1 $-1 $-1 $60 $-1 $29 #
shell $-1 $-1 $-1 $61 $-1 $31 #
shell $-1 $-1 $-1 $62 $-1 $33 #
shell $-1 $-1 $-1 $63 $-1 $35 #
shell $-1 $-1 $-1 $64 $-1 $37 #
face $-1 $65 $66 $39 $-1 $67 forward single #
face $-1 $68 $69 $40 $-1 $70 reversed single #
face $-1 $71 $72 $41 $-1 $73 reversed single #
face $-1 $74 $75 $42 $-1 $76 forward single #
face $-1 $77 $78 $43 $-1 $79 forward single #
face $-1 $80 $81 $44 $-1 $82 reversed single #
face $-1 $83 $84 $45 $-1 $85 forward single #
face $-1 $86 $87 $46 $-1 $88 reversed single #
face $-1 $89 $90 $47 $-1 $91 forward single #
face $-1 $92 $93 $48 $-1 $94 reversed single #
face $-1 $95 $96 $49 $-1 $97 forward single #
face $-1 $98 $99 $50 $-1 $100 reversed single #
face $-1 $101 $102 $51 $-1 $103 forward single #
face $-1 $104 $105 $39 $-1 $106 reversed single #
loop $-1 $-1 $107 $52 #
plane-surface $-1 0 0 8.6764714847394817 0 0 1 1 0 0 forward_v I I I I #
face $-1 $108 $109 $40 $-1 $110 reversed single #
loop $-1 $-1 $111 $53 #
plane-surface $-1 -75.378777168276713 -22.410648518499436 0 0 1 0 0 0 1 forward_v I I I I #
face $-1 $112 $113 $41 $-1 $114 reversed single #
loop $-1 $-1 $115 $54 #
plane-surface $-1 -48.071866415445697 -159.53274141599675 98.29513876454935 -1 0 0 0 -0.78801076186113728 0.61566146476048833 forward_v I I I I #
face $-1 $116 $117 $42 $-1 $118 forward single #
loop $-1 $119 $120 $55 #
cone-surface $-1 -64.847061322144882 -28.11266908080281 1.9817459512584334 0 0.78801076186113728 -0.61566146476048833 2.5 0 0 1 I I 0 1 2.5 forward I I I I #
face $-1 $121 $122 $43 $-1 $123 forward single #
loop $-1 $124 $125 $56 #
cone-surface $-1 -54.781944378125374 -28.11266908080281 1.9817459512584334 0 0.78801076186113728 -0.61566146476048833 2.5 0 0 1 I I 0 1 2.5 forward I I I I #
face $-1 $126 $127 $44 $-1 $128 reversed single #
loop $-1 $-1 $129 $57 #
plane-surface $-1 -64.207075041776775 71.65298281327378 172.12950154719576 1 0 0 0 -0.5877852598018023 -0.80901698891910034 forward_v I I I I #
face $-1 $130 $131 $45 $-1 $132 forward single #
loop $-1 $133 $134 $58 #
cone-surface $-1 -53.201617144749449 29.68850385131573 4.2236371128744592 0 -0.5877852598018023 -0.80901698891910034 1.5 0 0 1 I I 0 1 1.5 forward I I I I #
face $-1 $135 $136 $46 $-1 $137 reversed single #
loop $-1 $-1 $138 $59 #
plane-surface $-1 -26.517686457638419 71.65298281327378 172.12950154719576 1 0 0 0 -0.5877852598018023 -0.80901698891910034 forward_v I I I I #
face $-1 $139 $140 $47 $-1 $141 forward single #
loop $-1 $142 $143 $60 #
cone-surface $-1 -15.512228560611092 29.68850385131573 4.2236371128744592 0 -0.5877852598018023 -0.80901698891910034 1.5 0 0 1 I I 0 1 1.5 forward I I I I #
face $-1 $144 $145 $48 $-1 $146 reversed single #
loop $-1 $-1 $147 $61 #
plane-surface $-1 11.171702126499932 71.65298281327378 172.12950154719576 1 0 0 0 -0.5877852598018023 -0.80901698891910034 forward_v I I I I #
face $-1 $148 $149 $49 $-1 $150 forward single #
loop $-1 $151 $152 $62 #
cone-surface $-1 22.177160023527264 29.68850385131573 4.2236371128744592 0 -0.5877852598018023 -0.80901698891910034 1.5 0 0 1 I I 0 1 1.5 forward I I I I #
face $-1 $153 $154 $50 $-1 $155 reversed single #
loop $-1 $-1 $156 $63 #
plane-surface $-1 48.861090710638287 71.65298281327378 172.12950154719576 1 0 0 0 -0.5877852598018023 -0.80901698891910034 forward_v I I I I #
face $-1 $157 $158 $51 $-1 $159 forward single #
loop $-1 $160 $161 $64 #
cone-surface $-1 59.866548607665635 29.68850385131573 4.2236371128744592 0 -0.5877852598018023 -0.80901698891910034 1.5 0 0 1 I I 0 1 1.5 forward I I I I #
face $-1 $162 $163 $39 $-1 $164 reversed single #
loop $-1 $-1 $165 $65 #
plane-surface $-1 0 0 -8.6764714847394817 0 0 1 1 0 0 forward_v I I I I #
coedge $-1 $166 $167 $168 $169 forward $66 $-1 #
face $-1 $170 $171 $40 $-1 $172 reversed single #
loop $-1 $-1 $173 $68 #
plane-surface $-1 -75.378777168276713 -17.358239637255501 0 0 -1 0 0 0 -1 forward_v I I I I #
coedge $-1 $174 $175 $176 $177 reversed $69 $-1 #
face $-1 $178 $179 $41 $-1 $180 reversed single #
loop $-1 $-1 $181 $71 #
plane-surface $-1 -59.814502850135128 -34.711182606734454 0.77385168377730906 0 -0.78801076186113728 0.61566146476048833 1 0 0 forward_v I I I I #
coedge $-1 $182 $183 $184 $185 reversed $72 $-1 #
face $-1 $-1 $186 $42 $-1 $187 forward single #
loop $-1 $188 $189 $74 #
cone-surface $-1 -64.847061322144882 -23.616243648350135 -1.5312465126921415 0 0.78801076186113728 -0.61566146476048833 1.25 0 0 1 I I -0.70710678118654746 0.70710678118654746 1.25 forward I I I I #
loop $-1 $-1 $190 $55 #
coedge $-1 $120 $120 $191 $192 reversed $75 $-1 #
face $-1 $-1 $193 $43 $-1 $194 forward single #
loop $-1 $195 $196 $77 #
cone-surface $-1 -54.781944378125374 -23.616243648350135 -1.5312465126921415 0 0.78801076186113728 -0.61566146476048833 1.25 0 0 1 I I -0.70710678118654746 0.70710678118654746 1.25 forward I I I I #
loop $-1 $-1 $197 $56 #
coedge $-1 $125 $125 $198 $199 reversed $78 $-1 #
face $-1 $200 $201 $44 $-1 $202 reversed single #
loop $-1 $-1 $203 $80 #
plane-surface $-1 -53.201617144749456 -21.452690261908273 43.980538934610394 0 0.5877852598018023 0.80901698891910034 1 0 0 forward_v I I I I #
coedge $-1 $204 $205 $206 $207 reversed $81 $-1 #
face $-1 $-1 $208 $45 $-1 $209 forward single #
loop $-1 $210 $211 $83 #
cone-surface $-1 -53.201617144749449 28.010982981061346 1.9147277609118571 0 -0.5877852598018023 -0.80901698891910034 0.75 0 0 1 I I -0.70710678118654757 0.70710678118654757 0.75 forward I I I I #
loop $-1 $-1 $212 $58 #
coedge $-1 $134 $134 $213 $214 reversed $84 $-1 #
face $-1 $215 $216 $46 $-1 $217 reversed single #
loop $-1 $-1 $218 $86 #
plane-surface $-1 -15.512228560611099 -21.452690261908273 43.980538934610394 0 0.5877852598018023 0.80901698891910034 1 0 0 forward_v I I I I #
coedge $-1 $219 $220 $221 $222 reversed $87 $-1 #
face $-1 $-1 $223 $47 $-1 $224 forward single #
loop $-1 $225 $226 $89 #
cone-surface $-1 -15.512228560611092 28.010982981061346 1.9147277609118571 0 -0.5877852598018023 -0.80901698891910034 0.75 0 0 1 I I -0.70710678118654757 0.70710678118654757 0.75 forward I I I I #
loop $-1 $-1 $227 $60 #
coedge $-1 $143 $143 $228 $229 reversed $90 $-1 #
face $-1 $230 $231 $48 $-1 $232 reversed single #
loop $-1 $-1 $233 $92 #
plane-surface $-1 22.17716002352725 -21.452690261908273 43.980538934610394 0 0.5877852598018023 0.80901698891910034 1 0 0 forward_v I I I I #
coedge $-1 $234 $235 $236 $237 reversed $93 $-1 #
face $-1 $-1 $238 $49 $-1 $239 forward single #
loop $-1 $240 $241 $95 #
cone-surface $-1 22.177160023527264 28.010982981061346 1.9147277609118571 0 -0.5877852598018023 -0.80901698891910034 0.75 0 0 1 I I -0.70710678118654757 0.70710678118654757 0.75 forward I I I I #
loop $-1 $-1 $242 $62 #
coedge $-1 $152 $152 $243 $244 reversed $96 $-1 #
face $-1 $245 $246 $50 $-1 $247 reversed single #
loop $-1 $-1 $248 $98 #
plane-surface $-1 59.866548607665607 -21.452690261908273 43.980538934610394 0 0.5877852598018023 0.80901698891910034 1 0 0 forward_v I I I I #
coedge $-1 $249 $250 $251 $252 reversed $99 $-1 #
face $-1 $-1 $253 $51 $-1 $254 forward single #
loop $-1 $255 $256 $101 #
cone-surface $-1 59.866548607665635 28.010982981061346 1.9147277609118571 0 -0.5877852598018023 -0.80901698891910034 0.75 0 0 1 I I -0.70710678118654757 0.70710678118654757 0.75 forward I I I I #
loop $-1 $-1 $257 $64 #
coedge $-1 $161 $161 $258 $259 reversed $102 $-1 #
face $-1 $260 $261 $39 $-1 $262 reversed single #
loop $-1 $-1 $263 $104 #
plane-surface $-1 0 -34.711182606734461 0 0 1 0 0 0 1 forward_v I I I I #
coedge $-1 $264 $265 $266 $267 forward $105 $-1 #
coedge $-1 $268 $107 $269 $270 forward $66 $-1 #
coedge $-1 $107 $268 $271 $272 forward $66 $-1 #
coedge $-1 $273 $274 $107 $169 reversed $275 $-1 #
edge $-1 $276 -34.711182606734461 $277 34.711182606734461 $168 $278 forward 7 unknown #
face $-1 $279 $280 $40 $-1 $281 reversed single #
loop $-1 $-1 $282 $108 #
plane-surface $-1 -71.557139284824558 -19.884444077877468 0 -1 0 0 0 0 1 forward_v I I I I #
coedge $-1 $283 $284 $285 $286 forward $109 $-1 #
coedge $-1 $287 $111 $288 $289 reversed $69 $-1 #
coedge $-1 $111 $287 $290 $291 reversed $69 $-1 #
coedge $-1 $292 $293 $111 $177 forward $294 $-1 #
edge $-1 $295 -8.6764714847394817 $296 8.6764714847394817 $176 $297 forward 7 unknown #
face $-1 $298 $299 $41 $-1 $300 reversed single #
loop $-1 $-1 $301 $112 #
plane-surface $-1 -71.557139284824558 -159.53274141599675 98.29513876454935 1 0 0 0 0.78801076186113728 -0.61566146476048833 forward_v I I I I #
coedge $-1 $302 $303 $304 $305 reversed $113 $-1 #
coedge $-1 $183 $115 $306 $307 reversed $72 $-1 #
coedge $-1 $115 $182 $302 $308 reversed $72 $-1 #
coedge $-1 $304 $309 $115 $185 forward $310 $-1 #
edge $-1 $311 45.055188101263916 $312 51.229391192874715 $184 $313 forward 7 unknown #
loop $-1 $-1 $191 $116 #
plane-surface $-1 -59.814502850135128 -34.711182606734454 0.77385168377730906 0 -0.78801076186113728 0.61566146476048833 1 0 0 forward_v I I I I #
loop $-1 $-1 $314 $74 #
coedge $-1 $189 $189 $190 $315 reversed $117 $-1 #
coedge $-1 $190 $190 $189 $315 forward $119 $-1 #
coedge $-1 $191 $191 $120 $192 forward $186 $-1 #
edge $-1 $316 -3.5002681953891836e-016 $316 6.2831853071796004 $191 $317 forward 7 unknown #
loop $-1 $-1 $198 $121 #
plane-surface $-1 -59.814502850135128 -34.711182606734454 0.77385168377730906 0 -0.78801076186113728 0.61566146476048833 1 0 0 forward_v I I I I #
loop $-1 $-1 $318 $77 #
coedge $-1 $196 $196 $197 $319 reversed $122 $-1 #
coedge $-1 $197 $197 $196 $319 forward $124 $-1 #
coedge $-1 $198 $198 $125 $199 forward $193 $-1 #
edge $-1 $320 -3.5002681953891836e-016 $320 6.2831853071796004 $198 $321 forward 7 unknown #
face $-1 $322 $323 $44 $-1 $324 reversed single #
loop $-1 $-1 $325 $126 #
plane-surface $-1 -42.196159247722136 71.65298281327378 172.12950154719576 -1 0 0 0 0.5877852598018023 0.80901698891910034 forward_v I I I I #
coedge $-1 $326 $327 $328 $329 reversed $127 $-1 #
coedge $-1 $205 $129 $330 $331 reversed $81 $-1 #
coedge $-1 $129 $204 $326 $332 reversed $81 $-1 #
coedge $-1 $328 $333 $129 $207 forward $334 $-1 #
edge $-1 $335 1.1153087999024294 $336 8.6873024599338606 $206 $337 forward 7 unknown #
loop $-1 $-1 $213 $130 #
plane-surface $-1 -53.201617144749456 -21.452690261908273 43.980538934610394 0 0.5877852598018023 0.80901698891910034 1 0 0 forward_v I I I I #
loop $-1 $-1 $338 $83 #
coedge $-1 $211 $211 $212 $339 reversed $131 $-1 #
coedge $-1 $212 $212 $211 $339 forward $133 $-1 #
coedge $-1 $213 $213 $134 $214 forward $208 $-1 #
edge $-1 $340 3.5573403000659062e-016 $340 6.2831853071796004 $213 $341 forward 7 unknown #
face $-1 $342 $343 $46 $-1 $344 forward single #
loop $-1 $-1 $345 $135 #
plane-surface $-1 -4.5067706635837812 71.65298281327378 172.12950154719576 -1 0 0 0 0.5877852598018023 0.80901698891910034 forward_v I I I I #
coedge $-1 $346 $347 $348 $349 reversed $136 $-1 #
coedge $-1 $220 $138 $350 $351 reversed $87 $-1 #
coedge $-1 $138 $219 $346 $352 reversed $87 $-1 #
coedge $-1 $348 $353 $138 $222 forward $343 $-1 #
edge $-1 $354 1.1153087999024294 $355 8.6873024599338606 $221 $356 forward 7 unknown #
loop $-1 $-1 $228 $139 #
plane-surface $-1 -15.512228560611099 -21.452690261908273 43.980538934610394 0 0.5877852598018023 0.80901698891910034 1 0 0 forward_v I I I I #
loop $-1 $-1 $357 $89 #
coedge $-1 $226 $226 $227 $358 reversed $140 $-1 #
coedge $-1 $227 $227 $226 $358 forward $142 $-1 #
coedge $-1 $228 $228 $143 $229 forward $223 $-1 #
edge $-1 $359 3.5573403000659062e-016 $359 6.2831853071796004 $228 $360 forward 7 unknown #
face $-1 $361 $362 $48 $-1 $363 forward single #
loop $-1 $-1 $364 $144 #
plane-surface $-1 33.18261792055457 71.65298281327378 172.12950154719576 -1 0 0 0 0.5877852598018023 0.80901698891910034 forward_v I I I I #
coedge $-1 $365 $366 $367 $368 reversed $145 $-1 #
coedge $-1 $235 $147 $369 $370 reversed $93 $-1 #
coedge $-1 $147 $234 $365 $371 reversed $93 $-1 #
coedge $-1 $367 $372 $147 $237 forward $362 $-1 #
edge $-1 $373 1.1153087999024294 $374 8.6873024599338606 $236 $375 forward 7 unknown #
loop $-1 $-1 $243 $148 #
plane-surface $-1 22.17716002352725 -21.452690261908273 43.980538934610394 0 0.5877852598018023 0.80901698891910034 1 0 0 forward_v I I I I #
loop $-1 $-1 $376 $95 #
coedge $-1 $241 $241 $242 $377 reversed $149 $-1 #
coedge $-1 $242 $242 $241 $377 forward $151 $-1 #
coedge $-1 $243 $243 $152 $244 forward $238 $-1 #
edge $-1 $378 3.5573403000659062e-016 $378 6.2831853071796004 $243 $379 forward 7 unknown #
face $-1 $380 $381 $50 $-1 $382 forward single #
loop $-1 $-1 $383 $153 #
plane-surface $-1 70.872006504692919 71.65298281327378 172.12950154719576 -1 0 0 0 0.5877852598018023 0.80901698891910034 forward_v I I I I #
coedge $-1 $384 $385 $386 $387 reversed $154 $-1 #
coedge $-1 $250 $156 $388 $389 reversed $99 $-1 #
coedge $-1 $156 $249 $384 $390 reversed $99 $-1 #
coedge $-1 $386 $391 $156 $252 forward $381 $-1 #
edge $-1 $392 1.1153087999024294 $393 8.6873024599338606 $251 $394 forward 7 unknown #
loop $-1 $-1 $258 $157 #
plane-surface $-1 59.866548607665607 -21.452690261908273 43.980538934610394 0 0.5877852598018023 0.80901698891910034 1 0 0 forward_v I I I I #
loop $-1 $-1 $395 $101 #
coedge $-1 $256 $256 $257 $396 reversed $158 $-1 #
coedge $-1 $257 $257 $256 $396 forward $160 $-1 #
coedge $-1 $258 $258 $161 $259 forward $253 $-1 #
edge $-1 $397 3.5573403000659062e-016 $397 6.2831853071796004 $258 $398 forward 7 unknown #
face $-1 $399 $400 $39 $-1 $401 reversed single #
loop $-1 $-1 $402 $162 #
plane-surface $-1 -79.200415051728868 0 0 1 0 0 0 0 -1 forward_v I I I I #
coedge $-1 $403 $271 $404 $405 forward $163 $-1 #
coedge $-1 $406 $165 $403 $407 forward $105 $-1 #
coedge $-1 $165 $406 $408 $409 forward $105 $-1 #
coedge $-1 $274 $273 $165 $267 reversed $275 $-1 #
edge $-1 $410 -34.711182606734461 $411 34.711182606734461 $266 $412 forward 7 unknown #
coedge $-1 $167 $166 $413 $414 forward $66 $-1 #
coedge $-1 $415 $416 $166 $270 reversed $400 $-1 #
edge $-1 $277 -79.200415051728868 $417 79.200415051728868 $269 $418 forward 7 unknown #
coedge $-1 $263 $419 $167 $272 reversed $163 $-1 #
edge $-1 $420 -79.200415051728868 $276 79.200415051728868 $271 $421 forward 7 unknown #
coedge $-1 $266 $168 $419 $422 forward $275 $-1 #
coedge $-1 $168 $266 $415 $423 reversed $275 $-1 #
loop $-1 $-1 $273 $399 #
vertex $-1 $169 $424 #
vertex $-1 $169 $425 #
straight-curve $-1 79.200415051728868 0 8.6764714847394817 0 1 0 I I #
face $-1 $426 $427 $40 $-1 $428 forward single #
loop $-1 $-1 $429 $170 #
plane-surface $-1 0 0 -8.6764714847394817 0 0 1 1 0 0 forward_v I I I I #
coedge $-1 $430 $431 $287 $432 forward $171 $-1 #
coedge $-1 $433 $173 $429 $434 reversed $109 $-1 #
coedge $-1 $173 $433 $435 $436 reversed $109 $-1 #
coedge $-1 $431 $430 $173 $286 reversed $171 $-1 #
edge $-1 $437 -8.6764714847394817 $438 8.6764714847394817 $285 $439 forward 7 unknown #
coedge $-1 $175 $174 $282 $432 reversed $69 $-1 #
coedge $-1 $440 $441 $174 $289 forward $280 $-1 #
edge $-1 $442 33.867750700686202 $295 41.511026467590511 $288 $443 forward 7 unknown #
coedge $-1 $444 $445 $175 $291 forward $427 $-1 #
edge $-1 $296 -41.511026467590511 $446 -33.867750700686202 $290 $447 forward 7 unknown #
coedge $-1 $448 $176 $445 $449 reversed $294 $-1 #
coedge $-1 $176 $448 $440 $450 reversed $294 $-1 #
loop $-1 $-1 $448 $426 #
vertex $-1 $450 $451 #
vertex $-1 $177 $452 #
straight-curve $-1 -79.200415051728868 -22.410648518499436 0 0 0 1 I I #
face $-1 $-1 $310 $41 $-1 $453 forward single #
loop $-1 $-1 $454 $178 #
plane-surface $-1 0 -34.711182606734461 0 0 1 0 0 0 1 forward_v I I I I #
coedge $-1 $455 $456 $457 $458 reversed $179 $-1 #
coedge $-1 $459 $181 $183 $308 forward $113 $-1 #
coedge $-1 $181 $459 $455 $460 forward $113 $-1 #
coedge $-1 $457 $184 $181 $305 forward $310 $-1 #
edge $-1 $312 18.164614990378134 $461 41.649887859756994 $304 $462 forward 7 unknown #
coedge $-1 $463 $464 $182 $307 forward $299 $-1 #
edge $-1 $465 -48.373717698497373 $311 -40.471097897535195 $306 $466 forward 7 unknown #
edge $-1 $312 -10.028568369164947 $465 1.1548452884789174e-014 $183 $467 forward 7 unknown #
coedge $-1 $184 $457 $463 $468 forward $310 $-1 #
loop $-1 $-1 $457 $298 #
vertex $-1 $307 $469 #
vertex $-1 $185 $470 #
straight-curve $-1 -48.071866415445697 -79.766370707998377 8.6764714847394799 0 1 0 I I #
coedge $-1 $314 $314 $-1 $471 reversed $188 $-1 #
edge $-1 $472 0 $472 6.2831853071796004 $189 $473 forward 7 unknown #
vertex $-1 $192 $474 #
ellipse-curve $-1 -64.847061322144882 -31.624081060929058 4.7251615842583936 0 -0.78801076186113728 0.61566146476048833 2.5 0 0 1 I I #
coedge $-1 $318 $318 $-1 $475 reversed $195 $-1 #
edge $-1 $476 0 $476 6.2831853071796004 $196 $477 forward 7 unknown #
vertex $-1 $199 $478 #
ellipse-curve $-1 -54.781944378125374 -31.624081060929058 4.7251615842583936 0 -0.78801076186113728 0.61566146476048833 2.5 0 0 1 I I #
face $-1 $-1 $334 $44 $-1 $479 forward single #
loop $-1 $-1 $480 $200 #
plane-surface $-1 0 34.711182606734461 0 0 -1 0 0 0 -1 forward_v I I I I #
coedge $-1 $481 $482 $483 $484 reversed $201 $-1 #
coedge $-1 $485 $203 $205 $332 forward $127 $-1 #
coedge $-1 $203 $485 $481 $486 forward $127 $-1 #
coedge $-1 $483 $206 $203 $329 forward $334 $-1 #
edge $-1 $336 -37.606266469402044 $487 -15.595350675347408 $328 $488 forward 7 unknown #
coedge $-1 $489 $490 $204 $331 forward $323 $-1 #
edge $-1 $491 -82.889654812041925 $335 -77.388279288858399 $330 $492 forward 7 unknown #
edge $-1 $336 60.062866261354074 $491 69.422365213468936 $205 $493 forward 7 unknown #
coedge $-1 $206 $483 $489 $494 forward $334 $-1 #
loop $-1 $-1 $483 $322 #
vertex $-1 $331 $495 #
vertex $-1 $207 $496 #
straight-curve $-1 -64.207075041776775 35.82649140663689 8.6764714847394799 0 -1 0 I I #
coedge $-1 $338 $338 $-1 $497 reversed $210 $-1 #
edge $-1 $498 0 $498 6.2831853071796004 $211 $499 forward 7 unknown #
vertex $-1 $214 $500 #
ellipse-curve $-1 -53.201617144749449 30.925185776718745 5.9257837231477168 0 0.5877852598018023 0.80901698891910034 1.5 0 0 1 I I #
face $-1 $-1 $501 $46 $-1 $502 reversed single #
loop $-1 $-1 $221 $215 #
plane-surface $-1 0 0 8.6764714847394817 0 0 1 1 0 0 forward_v I I I I #
coedge $-1 $503 $504 $505 $506 reversed $216 $-1 #
coedge $-1 $507 $218 $220 $352 forward $136 $-1 #
coedge $-1 $218 $507 $503 $508 forward $136 $-1 #
coedge $-1 $505 $221 $218 $349 forward $343 $-1 #
edge $-1 $355 -18.761572177332869 $509 3.2493436167217684 $348 $510 forward 7 unknown #
coedge $-1 $511 $512 $219 $351 forward $501 $-1 #
edge $-1 $513 -82.889654812041925 $354 -77.388279288858399 $350 $514 forward 7 unknown #
edge $-1 $355 60.062866261354074 $513 69.422365213468936 $220 $515 forward 7 unknown #
coedge $-1 $221 $505 $511 $516 forward $343 $-1 #
vertex $-1 $351 $517 #
vertex $-1 $222 $518 #
straight-curve $-1 -26.517686457638419 35.82649140663689 8.6764714847394799 0 -1 0 I I #
coedge $-1 $357 $357 $-1 $519 reversed $225 $-1 #
edge $-1 $520 0 $520 6.2831853071796004 $226 $521 forward 7 unknown #
vertex $-1 $229 $522 #
ellipse-curve $-1 -15.512228560611092 30.925185776718745 5.9257837231477168 0 0.5877852598018023 0.80901698891910034 1.5 0 0 1 I I #
face $-1 $-1 $523 $48 $-1 $524 reversed single #
loop $-1 $-1 $236 $230 #
plane-surface $-1 0 0 8.6764714847394817 0 0 1 1 0 0 forward_v I I I I #
coedge $-1 $525 $526 $527 $528 reversed $231 $-1 #
coedge $-1 $529 $233 $235 $371 forward $145 $-1 #
coedge $-1 $233 $529 $525 $530 forward $145 $-1 #
coedge $-1 $527 $236 $233 $368 forward $362 $-1 #
edge $-1 $374 0.08312211473630704 $531 22.094037908790945 $367 $532 forward 7 unknown #
coedge $-1 $533 $534 $234 $370 forward $523 $-1 #
edge $-1 $535 -82.889654812041925 $373 -77.388279288858399 $369 $536 forward 7 unknown #
edge $-1 $374 60.062866261354074 $535 69.422365213468936 $235 $537 forward 7 unknown #
coedge $-1 $236 $527 $533 $538 forward $362 $-1 #
vertex $-1 $237 $539 #
vertex $-1 $237 $540 #
straight-curve $-1 11.171702126499932 35.82649140663689 8.6764714847394799 0 -1 0 I I #
coedge $-1 $376 $376 $-1 $541 reversed $240 $-1 #
edge $-1 $542 0 $542 6.2831853071796004 $241 $543 forward 7 unknown #
vertex $-1 $244 $544 #
ellipse-curve $-1 22.177160023527264 30.925185776718745 5.9257837231477168 0 0.5877852598018023 0.80901698891910034 1.5 0 0 1 I I #
face $-1 $-1 $545 $50 $-1 $546 reversed single #
loop $-1 $-1 $251 $245 #
plane-surface $-1 0 0 8.6764714847394817 0 0 1 1 0 0 forward_v I I I I #
coedge $-1 $547 $548 $549 $550 reversed $246 $-1 #
coedge $-1 $551 $248 $250 $390 forward $154 $-1 #
coedge $-1 $248 $551 $547 $552 forward $154 $-1 #
coedge $-1 $549 $251 $248 $387 forward $381 $-1 #
edge $-1 $393 18.927816406805483 $553 40.938732200860116 $386 $554 forward 7 unknown #
coedge $-1 $555 $556 $249 $389 forward $545 $-1 #
edge $-1 $557 -82.889654812041925 $392 -77.388279288858399 $388 $558 forward 7 unknown #
edge $-1 $393 60.062866261354074 $557 69.422365213468936 $250 $559 forward 7 unknown #
coedge $-1 $251 $549 $555 $560 forward $381 $-1 #
vertex $-1 $252 $561 #
vertex $-1 $252 $562 #
straight-curve $-1 48.861090710638287 35.82649140663689 8.6764714847394799 0 -1 0 I I #
coedge $-1 $395 $395 $-1 $563 reversed $255 $-1 #
edge $-1 $564 0 $564 6.2831853071796004 $256 $565 forward 7 unknown #
vertex $-1 $259 $566 #
ellipse-curve $-1 59.866548607665635 30.925185776718745 5.9257837231477168 0 0.5877852598018023 0.80901698891910034 1.5 0 0 1 I I #
face $-1 $-1 $275 $39 $-1 $567 reversed single #
loop $-1 $-1 $415 $260 #
plane-surface $-1 0 34.711182606734461 0 0 -1 0 0 0 -1 forward_v I I I I #
coedge $-1 $568 $413 $416 $569 forward $261 $-1 #
coedge $-1 $419 $263 $264 $407 reversed $163 $-1 #
coedge $-1 $413 $568 $263 $405 reversed $261 $-1 #
edge $-1 $420 -8.6764714847394817 $570 8.6764714847394817 $404 $571 forward 7 unknown #
coedge $-1 $265 $264 $568 $572 forward $105 $-1 #
edge $-1 $411 -79.200415051728868 $570 79.200415051728868 $403 $573 forward 7 unknown #
coedge $-1 $416 $415 $265 $409 reversed $400 $-1 #
edge $-1 $574 -79.200415051728868 $410 79.200415051728868 $408 $575 forward 7 unknown #
vertex $-1 $267 $576 #
vertex $-1 $422 $577 #
straight-curve $-1 79.200415051728868 0 -8.6764714847394817 0 -1 0 I I #
coedge $-1 $402 $404 $268 $414 reversed $261 $-1 #
edge $-1 $417 -34.711182606734461 $420 34.711182606734461 $413 $578 forward 7 unknown #
coedge $-1 $408 $269 $274 $423 forward $400 $-1 #
coedge $-1 $269 $408 $402 $569 reversed $400 $-1 #
vertex $-1 $270 $579 #
straight-curve $-1 0 34.711182606734461 8.6764714847394817 -1 0 0 I I #
coedge $-1 $271 $403 $273 $422 reversed $163 $-1 #
vertex $-1 $414 $580 #
straight-curve $-1 0 -34.711182606734461 8.6764714847394817 1 0 0 I I #
edge $-1 $276 -8.6764714847394817 $411 8.6764714847394817 $273 $581 forward 7 unknown #
edge $-1 $277 -8.6764714847394817 $410 8.6764714847394817 $274 $582 forward 7 unknown #
point $-1 79.200415051728868 -34.711182606734461 8.6764714847394817 #
point $-1 79.200415051728868 34.711182606734461 8.6764714847394817 #
face $-1 $-1 $294 $40 $-1 $583 reversed single #
loop $-1 $-1 $435 $279 #
plane-surface $-1 0 0 8.6764714847394817 0 0 1 1 0 0 forward_v I I I I #
coedge $-1 $441 $440 $283 $434 forward $280 $-1 #
coedge $-1 $285 $282 $441 $584 reversed $171 $-1 #
coedge $-1 $282 $285 $444 $585 reversed $171 $-1 #
edge $-1 $446 -8.6764714847394817 $442 8.6764714847394817 $282 $586 forward 7 unknown #
coedge $-1 $284 $283 $448 $587 reversed $109 $-1 #
edge $-1 $588 -41.511026467590511 $438 -33.867750700686202 $429 $589 forward 7 unknown #
coedge $-1 $445 $444 $284 $436 forward $427 $-1 #
edge $-1 $437 33.867750700686202 $590 41.511026467590511 $435 $591 forward 7 unknown #
vertex $-1 $436 $592 #
vertex $-1 $434 $593 #
straight-curve $-1 -71.557139284824558 -17.358239637255501 0 0 0 -1 I I #
coedge $-1 $429 $288 $293 $450 forward $280 $-1 #
coedge $-1 $288 $429 $430 $584 forward $280 $-1 #
vertex $-1 $289 $594 #
straight-curve $-1 -37.689388584138356 -22.410648518499436 -8.6764714847394817 -1 0 0 I I #
coedge $-1 $435 $290 $431 $585 forward $427 $-1 #
coedge $-1 $290 $435 $292 $449 forward $427 $-1 #
vertex $-1 $291 $595 #
straight-curve $-1 -37.689388584138356 -22.410648518499436 8.6764714847394817 1 0 0 I I #
coedge $-1 $293 $292 $433 $587 forward $294 $-1 #
edge $-1 $590 17.358239637255501 $296 22.410648518499436 $292 $596 forward 7 unknown #
edge $-1 $295 -22.410648518499436 $588 -17.358239637255501 $293 $597 forward 7 unknown #
point $-1 -79.200415051728868 -22.410648518499436 -8.6764714847394817 #
point $-1 -79.200415051728868 -22.410648518499436 8.6764714847394817 #
plane-surface $-1 0 0 8.6764714847394817 0 0 1 1 0 0 forward_v I I I I #
coedge $-1 $464 $463 $456 $598 forward $299 $-1 #
coedge $-1 $456 $301 $303 $460 reversed $179 $-1 #
coedge $-1 $301 $455 $454 $598 reversed $179 $-1 #
coedge $-1 $309 $304 $301 $458 forward $310 $-1 #
edge $-1 $461 -51.229391192874715 $599 -45.055188101263916 $457 $600 forward 7 unknown #
coedge $-1 $303 $302 $464 $601 reversed $113 $-1 #
edge $-1 $602 -1.1548452884789174e-014 $461 10.028568369164947 $455 $603 forward 7 unknown #
vertex $-1 $305 $604 #
straight-curve $-1 -29.907251425067564 -28.536979515123662 8.6764714847394817 -1 0 0 I I #
coedge $-1 $454 $306 $309 $468 reversed $299 $-1 #
coedge $-1 $306 $454 $459 $601 forward $299 $-1 #
vertex $-1 $307 $605 #
straight-curve $-1 -48.071866415445697 -34.711182606734461 49.147569382274675 0 0 1 I I #
straight-curve $-1 -48.071866415445697 -34.711182606734454 0.77385168377730906 0 -0.61566146476048833 -0.78801076186113728 I I #
edge $-1 $599 -71.557139284824558 $311 -48.071866415445697 $463 $606 forward 7 unknown #
point $-1 -48.071866415445697 -34.711182606734461 8.6764714847394817 #
point $-1 -48.071866415445697 -28.536979515123662 8.6764714847394835 #
edge $-1 $607 1 $607 0 $314 $-1 forward 7 unknown #
vertex $-1 $315 $608 #
ellipse-curve $-1 -64.847061322144882 -24.601257100676555 -0.76166968174153116 0 -0.78801076186113728 0.61566146476048833 2.5 0 0 1 I I #
point $-1 -62.347061322144882 -31.624081060929065 4.7251615842583981 #
edge $-1 $609 1 $609 0 $318 $-1 forward 7 unknown #
vertex $-1 $319 $610 #
ellipse-curve $-1 -54.781944378125374 -24.601257100676555 -0.76166968174153116 0 -0.78801076186113728 0.61566146476048833 2.5 0 0 1 I I #
point $-1 -52.281944378125374 -31.624081060929065 4.7251615842583981 #
plane-surface $-1 0 0 8.6764714847394817 0 0 1 1 0 0 forward_v I I I I #
coedge $-1 $490 $489 $482 $611 forward $323 $-1 #
coedge $-1 $482 $325 $327 $486 reversed $201 $-1 #
coedge $-1 $325 $481 $480 $611 reversed $201 $-1 #
coedge $-1 $333 $328 $325 $484 forward $334 $-1 #
edge $-1 $487 -8.6873024599338606 $612 -1.1153087999024294 $483 $613 forward 7 unknown #
coedge $-1 $327 $326 $490 $614 reversed $127 $-1 #
edge $-1 $615 -69.422365213468936 $487 -60.062866261354074 $481 $616 forward 7 unknown #
vertex $-1 $329 $617 #
straight-curve $-1 -26.600808572374728 27.13918894670303 8.6764714847394835 1 0 0 I I #
coedge $-1 $480 $330 $333 $494 reversed $323 $-1 #
coedge $-1 $330 $480 $485 $614 forward $323 $-1 #
vertex $-1 $331 $618 #
straight-curve $-1 -64.207075041776775 34.711182606734461 86.064750773597879 0 0 1 I I #
straight-curve $-1 -64.207075041776775 -21.452690261908273 43.980538934610394 0 0.80901698891910034 -0.5877852598018023 I I #
edge $-1 $612 42.196159247722136 $335 64.207075041776775 $489 $619 forward 7 unknown #
point $-1 -64.207075041776775 34.711182606734461 8.6764714847394817 #
point $-1 -64.207075041776775 27.13918894670303 8.6764714847394799 #
edge $-1 $620 1 $620 0 $338 $-1 forward 7 unknown #
vertex $-1 $339 $621 #
ellipse-curve $-1 -53.201617144749449 28.451821925912697 2.5214905026011825 0 0.5877852598018023 0.80901698891910034 1.5 0 0 1 I I #
point $-1 -51.701617144749449 30.925185776718759 5.9257837231477355 #
loop $-1 $-1 $350 $342 #
plane-surface $-1 0 34.711182606734461 0 0 -1 0 0 0 -1 forward_v I I I I #
coedge $-1 $504 $345 $347 $508 reversed $216 $-1 #
coedge $-1 $345 $503 $622 $623 reversed $216 $-1 #
coedge $-1 $353 $348 $345 $506 forward $343 $-1 #
edge $-1 $509 -8.6873024599338606 $624 -1.1153087999024294 $505 $625 forward 7 unknown #
coedge $-1 $347 $346 $512 $626 reversed $136 $-1 #
edge $-1 $627 -69.422365213468936 $509 -60.062866261354074 $503 $628 forward 7 unknown #
vertex $-1 $349 $629 #
straight-curve $-1 -7.7561142803055496 27.13918894670303 8.6764714847394835 1 0 0 I I #
coedge $-1 $622 $350 $353 $516 reversed $501 $-1 #
coedge $-1 $350 $622 $507 $626 forward $501 $-1 #
vertex $-1 $351 $630 #
straight-curve $-1 -26.517686457638419 34.711182606734461 86.064750773597879 0 0 1 I I #
straight-curve $-1 -26.517686457638419 -21.452690261908273 43.980538934610394 0 0.80901698891910034 -0.5877852598018023 I I #
edge $-1 $624 4.5067706635837812 $354 26.517686457638419 $511 $631 forward 7 unknown #
point $-1 -26.517686457638419 34.711182606734461 8.6764714847394817 #
point $-1 -26.517686457638419 27.13918894670303 8.6764714847394799 #
edge $-1 $632 1 $632 0 $357 $-1 forward 7 unknown #
vertex $-1 $358 $633 #
ellipse-curve $-1 -15.512228560611092 28.451821925912697 2.5214905026011825 0 0.5877852598018023 0.80901698891910034 1.5 0 0 1 I I #
point $-1 -14.012228560611092 30.925185776718759 5.9257837231477355 #
loop $-1 $-1 $369 $361 #
plane-surface $-1 0 34.711182606734461 0 0 -1 0 0 0 -1 forward_v I I I I #
coedge $-1 $526 $364 $366 $530 reversed $231 $-1 #
coedge $-1 $364 $525 $634 $635 reversed $231 $-1 #
coedge $-1 $372 $367 $364 $528 forward $362 $-1 #
edge $-1 $531 -8.6873024599338606 $636 -1.1153087999024294 $527 $637 forward 7 unknown #
coedge $-1 $366 $365 $534 $638 reversed $145 $-1 #
edge $-1 $639 -69.422365213468936 $531 -60.062866261354074 $525 $640 forward 7 unknown #
vertex $-1 $368 $641 #
straight-curve $-1 11.088580011763625 27.13918894670303 8.6764714847394835 1 0 0 I I #
coedge $-1 $634 $369 $372 $538 reversed $523 $-1 #
coedge $-1 $369 $634 $529 $638 forward $523 $-1 #
vertex $-1 $370 $642 #
straight-curve $-1 11.171702126499932 34.711182606734461 86.064750773597879 0 0 1 I I #
straight-curve $-1 11.171702126499932 -21.452690261908273 43.980538934610394 0 0.80901698891910034 -0.5877852598018023 I I #
edge $-1 $636 -33.18261792055457 $373 -11.171702126499932 $533 $643 forward 7 unknown #
point $-1 11.171702126499932 34.711182606734461 8.6764714847394817 #
point $-1 11.171702126499932 27.13918894670303 8.6764714847394799 #
edge $-1 $644 1 $644 0 $376 $-1 forward 7 unknown #
vertex $-1 $377 $645 #
ellipse-curve $-1 22.177160023527264 28.451821925912697 2.5214905026011825 0 0.5877852598018023 0.80901698891910034 1.5 0 0 1 I I #
point $-1 23.677160023527264 30.925185776718759 5.9257837231477355 #
loop $-1 $-1 $388 $380 #
plane-surface $-1 0 34.711182606734461 0 0 -1 0 0 0 -1 forward_v I I I I #
coedge $-1 $548 $383 $385 $552 reversed $246 $-1 #
coedge $-1 $383 $547 $646 $647 reversed $246 $-1 #
coedge $-1 $391 $386 $383 $550 forward $381 $-1 #
edge $-1 $553 -8.6873024599338606 $648 -1.1153087999024294 $549 $649 forward 7 unknown #
coedge $-1 $385 $384 $556 $650 reversed $154 $-1 #
edge $-1 $651 -69.422365213468936 $553 -60.062866261354074 $547 $652 forward 7 unknown #
vertex $-1 $387 $653 #
straight-curve $-1 29.933274303832803 27.13918894670303 8.6764714847394835 1 0 0 I I #
coedge $-1 $646 $388 $391 $560 reversed $545 $-1 #
coedge $-1 $388 $646 $551 $650 forward $545 $-1 #
vertex $-1 $389 $654 #
straight-curve $-1 48.861090710638287 34.711182606734461 86.064750773597879 0 0 1 I I #
straight-curve $-1 48.861090710638287 -21.452690261908273 43.980538934610394 0 0.80901698891910034 -0.5877852598018023 I I #
edge $-1 $648 -70.872006504692919 $392 -48.861090710638287 $555 $655 forward 7 unknown #
point $-1 48.861090710638287 34.711182606734461 8.6764714847394817 #
point $-1 48.861090710638287 27.13918894670303 8.6764714847394799 #
edge $-1 $656 1 $656 0 $395 $-1 forward 7 unknown #
vertex $-1 $396 $657 #
ellipse-curve $-1 59.866548607665635 28.451821925912697 2.5214905026011825 0 0.5877852598018023 0.80901698891910034 1.5 0 0 1 I I #
point $-1 61.366548607665635 30.925185776718759 5.9257837231477355 #
plane-surface $-1 79.200415051728868 0 0 -1 0 0 0 0 1 forward_v I I I I #
coedge $-1 $404 $402 $406 $572 reversed $261 $-1 #
edge $-1 $417 -8.6764714847394817 $574 8.6764714847394817 $416 $658 forward 7 unknown #
vertex $-1 $572 $659 #
straight-curve $-1 -79.200415051728868 -34.711182606734461 0 0 0 -1 I I #
edge $-1 $570 -34.711182606734461 $574 34.711182606734461 $568 $660 forward 7 unknown #
straight-curve $-1 0 -34.711182606734461 -8.6764714847394817 -1 0 0 I I #
vertex $-1 $409 $661 #
straight-curve $-1 0 34.711182606734461 -8.6764714847394817 1 0 0 I I #
point $-1 79.200415051728868 34.711182606734461 -8.6764714847394817 #
point $-1 79.200415051728868 -34.711182606734461 -8.6764714847394817 #
straight-curve $-1 -79.200415051728868 0 8.6764714847394817 0 -1 0 I I #
point $-1 -79.200415051728868 34.711182606734461 8.6764714847394817 #
point $-1 -79.200415051728868 -34.711182606734461 8.6764714847394817 #
straight-curve $-1 79.200415051728868 -34.711182606734461 0 0 0 -1 I I #
straight-curve $-1 79.200415051728868 34.711182606734461 0 0 0 -1 I I #
plane-surface $-1 -79.200415051728868 0 0 1 0 0 0 0 -1 forward_v I I I I #
edge $-1 $438 7.4160175983167669 $442 12.468426479560701 $441 $662 forward 7 unknown #
edge $-1 $446 -12.468426479560701 $437 -7.4160175983167669 $444 $663 forward 7 unknown #
straight-curve $-1 -71.557139284824558 -22.410648518499436 0 0 0 -1 I I #
edge $-1 $590 -8.6764714847394817 $588 8.6764714847394817 $448 $664 forward 7 unknown #
vertex $-1 $587 $665 #
straight-curve $-1 -37.689388584138356 -17.358239637255501 -8.6764714847394817 1 0 0 I I #
vertex $-1 $449 $666 #
straight-curve $-1 -37.689388584138356 -17.358239637255501 8.6764714847394817 -1 0 0 I I #
point $-1 -71.557139284824558 -17.358239637255501 8.6764714847394817 #
point $-1 -71.557139284824558 -17.358239637255501 -8.6764714847394817 #
point $-1 -71.557139284824558 -22.410648518499436 -8.6764714847394817 #
point $-1 -71.557139284824558 -22.410648518499436 8.6764714847394817 #
straight-curve $-1 -79.200415051728868 0 8.6764714847394817 0 -1 0 I I #
straight-curve $-1 -79.200415051728868 0 -8.6764714847394817 0 1 0 I I #
edge $-1 $599 40.471097897535195 $602 48.373717698497373 $454 $667 forward 7 unknown #
vertex $-1 $468 $668 #
straight-curve $-1 -71.557139284824558 -79.766370707998377 8.6764714847394799 0 -1 0 I I #
edge $-1 $602 -41.649887859756994 $465 -18.164614990378134 $464 $669 forward 7 unknown #
vertex $-1 $601 $670 #
straight-curve $-1 -71.557139284824558 -34.711182606734454 0.77385168377730906 0 0.61566146476048833 0.78801076186113728 I I #
point $-1 -71.557139284824558 -28.536979515123662 8.6764714847394835 #
point $-1 -48.071866415445697 -34.711182606734461 0.77385168377729996 #
straight-curve $-1 0 -34.711182606734461 8.6764714847394817 1 0 0 I I #
vertex $-1 $471 $671 #
point $-1 -62.347061322144882 -24.601257100676555 -0.76166968174153116 #
vertex $-1 $475 $672 #
point $-1 -52.281944378125374 -24.601257100676555 -0.76166968174153116 #
edge $-1 $612 77.388279288858399 $615 82.889654812041925 $480 $673 forward 7 unknown #
vertex $-1 $494 $674 #
straight-curve $-1 -42.196159247722136 35.82649140663689 8.6764714847394799 0 1 0 I I #
edge $-1 $615 15.595350675347408 $491 37.606266469402044 $490 $675 forward 7 unknown #
vertex $-1 $614 $676 #
straight-curve $-1 -42.196159247722136 -21.452690261908273 43.980538934610394 0 -0.80901698891910034 0.5877852598018023 I I #
point $-1 -42.196159247722136 27.13918894670303 8.6764714847394799 #
point $-1 -64.207075041776775 34.711182606734461 3.1750959615559537 #
straight-curve $-1 0 34.711182606734461 8.6764714847394817 -1 0 0 I I #
vertex $-1 $497 $677 #
point $-1 -51.701617144749449 28.451821925912697 2.5214905026011825 #
coedge $-1 $512 $511 $504 $623 forward $501 $-1 #
edge $-1 $624 77.388279288858399 $627 82.889654812041925 $622 $678 forward 7 unknown #
vertex $-1 $516 $679 #
straight-curve $-1 -4.5067706635837812 35.82649140663689 8.6764714847394799 0 1 0 I I #
edge $-1 $627 -3.2493436167217684 $513 18.761572177332869 $512 $680 forward 7 unknown #
vertex $-1 $626 $681 #
straight-curve $-1 -4.5067706635837812 -21.452690261908273 43.980538934610394 0 -0.80901698891910034 0.5877852598018023 I I #
point $-1 -4.5067706635837812 27.13918894670303 8.6764714847394799 #
point $-1 -26.517686457638419 34.711182606734461 3.1750959615559537 #
straight-curve $-1 0 34.711182606734461 8.6764714847394817 -1 0 0 I I #
vertex $-1 $519 $682 #
point $-1 -14.012228560611092 28.451821925912697 2.5214905026011825 #
coedge $-1 $534 $533 $526 $635 forward $523 $-1 #
edge $-1 $636 77.388279288858399 $639 82.889654812041925 $634 $683 forward 7 unknown #
vertex $-1 $538 $684 #
straight-curve $-1 33.18261792055457 35.82649140663689 8.6764714847394799 0 1 0 I I #
edge $-1 $639 -22.094037908790945 $535 -0.08312211473630704 $534 $685 forward 7 unknown #
vertex $-1 $638 $686 #
straight-curve $-1 33.18261792055457 -21.452690261908273 43.980538934610394 0 -0.80901698891910034 0.5877852598018023 I I #
point $-1 33.18261792055457 27.13918894670303 8.6764714847394799 #
point $-1 11.171702126499932 34.711182606734461 3.1750959615559537 #
straight-curve $-1 0 34.711182606734461 8.6764714847394817 -1 0 0 I I #
vertex $-1 $541 $687 #
point $-1 23.677160023527264 28.451821925912697 2.5214905026011825 #
coedge $-1 $556 $555 $548 $647 forward $545 $-1 #
edge $-1 $648 77.388279288858399 $651 82.889654812041925 $646 $688 forward 7 unknown #
vertex $-1 $560 $689 #
straight-curve $-1 70.872006504692919 35.82649140663689 8.6764714847394799 0 1 0 I I #
edge $-1 $651 -40.938732200860116 $557 -18.927816406805483 $556 $690 forward 7 unknown #
vertex $-1 $650 $691 #
straight-curve $-1 70.872006504692919 -21.452690261908273 43.980538934610394 0 -0.80901698891910034 0.5877852598018023 I I #
point $-1 70.872006504692919 27.13918894670303 8.6764714847394799 #
point $-1 48.861090710638287 34.711182606734461 3.1750959615559537 #
straight-curve $-1 0 34.711182606734461 8.6764714847394817 -1 0 0 I I #
vertex $-1 $563 $692 #
point $-1 61.366548607665635 28.451821925912697 2.5214905026011825 #
straight-curve $-1 -79.200415051728868 34.711182606734461 0 0 0 -1 I I #
point $-1 -79.200415051728868 -34.711182606734461 -8.6764714847394817 #
straight-curve $-1 -79.200415051728868 0 -8.6764714847394817 0 1 0 I I #
point $-1 -79.200415051728868 34.711182606734461 -8.6764714847394817 #
straight-curve $-1 -71.557139284824558 -9.9422220389387341 -8.6764714847394817 0 -1 0 I I #
straight-curve $-1 -71.557139284824558 -9.9422220389387341 8.6764714847394817 0 1 0 I I #
straight-curve $-1 -79.200415051728868 -17.358239637255501 0 0 0 -1 I I #
point $-1 -79.200415051728868 -17.358239637255501 -8.6764714847394817 #
point $-1 -79.200415051728868 -17.358239637255501 8.6764714847394817 #
straight-curve $-1 -71.557139284824558 -34.711182606734461 49.147569382274675 0 0 -1 I I #
point $-1 -71.557139284824558 -34.711182606734461 8.6764714847394817 #
straight-curve $-1 -29.907251425067564 -34.711182606734461 0.77385168377729197 1 0 0 I I #
point $-1 -71.557139284824558 -34.711182606734461 0.77385168377729996 #
point $-1 -64.847061322144882 -22.631230196023715 -2.3008233436427519 #
point $-1 -54.781944378125374 -22.631230196023715 -2.3008233436427519 #
straight-curve $-1 -42.196159247722136 34.711182606734461 86.064750773597879 0 0 -1 I I #
point $-1 -42.196159247722136 34.711182606734461 8.6764714847394817 #
straight-curve $-1 -26.600808572374728 34.711182606734468 3.1750959615559537 -1 0 0 I I #
point $-1 -42.196159247722136 34.711182606734461 3.1750959615559537 #
point $-1 -53.201617144749449 27.570144036209996 1.3079650192225318 #
straight-curve $-1 -4.5067706635837812 34.711182606734461 86.064750773597879 0 0 -1 I I #
point $-1 -4.5067706635837812 34.711182606734461 8.6764714847394817 #
straight-curve $-1 -7.7561142803055496 34.711182606734468 3.1750959615559537 -1 0 0 I I #
point $-1 -4.5067706635837812 34.711182606734461 3.1750959615559537 #
point $-1 -15.512228560611092 27.570144036209996 1.3079650192225318 #
straight-curve $-1 33.18261792055457 34.711182606734461 86.064750773597879 0 0 -1 I I #
point $-1 33.18261792055457 34.711182606734461 8.6764714847394817 #
straight-curve $-1 11.088580011763625 34.711182606734468 3.1750959615559537 -1 0 0 I I #
point $-1 33.18261792055457 34.711182606734461 3.1750959615559537 #
point $-1 22.177160023527264 27.570144036209996 1.3079650192225318 #
straight-curve $-1 70.872006504692919 34.711182606734461 86.064750773597879 0 0 -1 I I #
point $-1 70.872006504692919 34.711182606734461 8.6764714847394817 #
straight-curve $-1 29.933274303832803 34.711182606734468 3.1750959615559537 -1 0 0 I I #
point $-1 70.872006504692919 34.711182606734461 3.1750959615559537 #
point $-1 59.866548607665635 27.570144036209996 1.3079650192225318 #
End-of-ACIS-data 