500 0 14 0           
7 Unknown 11 ACIS 5.0 NT 24 Fri Mar 26 15:29:21 1999 
-1 9.9999999999999995e-007 1e-010 
body $-1 $14 $-1 $15 #
body $-1 $16 $-1 $17 #
body $-1 $18 $-1 $19 #
body $-1 $20 $-1 $21 #
body $-1 $22 $-1 $23 #
body $-1 $24 $-1 $25 #
body $-1 $26 $-1 $27 #
body $-1 $28 $-1 $29 #
body $-1 $30 $-1 $31 #
body $-1 $32 $-1 $33 #
body $-1 $34 $-1 $35 #
body $-1 $36 $-1 $37 #
body $-1 $38 $-1 $39 #
body $-1 $40 $-1 $41 #
lump $-1 $-1 $42 $0 #
transform $-1 1 0 0 0 1 0 0 0 1 57.147740104373298 28.868268029713377 7.6259027195529967 1 rotate no_reflect no_shear #
lump $-1 $-1 $43 $1 #
transform $-1 1 0 0 0 1 0 0 0 1 57.147740104373298 28.868268029713377 7.6259027195529967 1 rotate no_reflect no_shear #
lump $-1 $-1 $44 $2 #
transform $-1 1 0 0 0 1 0 0 0 1 57.147740104373298 28.868268029713377 7.6259027195529967 1 rotate no_reflect no_shear #
lump $-1 $-1 $45 $3 #
transform $-1 1 0 0 0 1 0 0 0 1 57.147740104373298 28.868268029713377 7.6259027195529967 1 rotate no_reflect no_shear #
lump $-1 $-1 $46 $4 #
transform $-1 1 0 0 0 1 0 0 0 1 57.147740104373298 28.868268029713377 7.6259027195529967 1 rotate no_reflect no_shear #
lump $-1 $-1 $47 $5 #
transform $-1 1 0 0 0 1 0 0 0 1 57.147740104373298 28.868268029713377 7.6259027195529967 1 rotate no_reflect no_shear #
lump $-1 $-1 $48 $6 #
transform $-1 1 0 0 0 1 0 0 0 1 57.147740104373298 28.868268029713377 7.6259027195529967 1 rotate no_reflect no_shear #
lump $-1 $-1 $49 $7 #
transform $-1 1 0 0 0 1 0 0 0 1 57.147740104373298 28.868268029713377 7.6259027195529967 1 rotate no_reflect no_shear #
lump $-1 $-1 $50 $8 #
transform $-1 1 0 0 0 1 0 0 0 1 57.147740104373298 28.868268029713377 7.6259027195529967 1 rotate no_reflect no_shear #
lump $-1 $-1 $51 $9 #
transform $-1 1 0 0 0 1 0 0 0 1 57.147740104373298 28.868268029713377 7.6259027195529967 1 rotate no_reflect no_shear #
lump $-1 $-1 $52 $10 #
transform $-1 1 0 0 0 1 0 0 0 1 57.147740104373298 28.868268029713377 7.6259027195529967 1 rotate no_reflect no_shear #
lump $-1 $-1 $53 $11 #
transform $-1 1 0 0 0 1 0 0 0 1 57.147740104373298 28.868268029713377 7.6259027195529967 1 rotate no_reflect no_shear #
lump $-1 $-1 $54 $12 #
transform $-1 1 0 0 0 1 0 0 0 1 57.147740104373298 28.868268029713377 7.6259027195529967 1 rotate no_reflect no_shear #
lump $-1 $-1 $55 $13 #
transform $-1 1 0 0 0 1 0 0 0 1 57.147740104373298 28.868268029713377 7.6259027195529967 1 rotate no_reflect no_shear #
shell $-1 $-1 $-1 $56 $-1 $14 #
shell $-1 $-1 $-1 $57 $-1 $16 #
shell $-1 $-1 $-1 $58 $-1 $18 #
shell $-1 $-1 $-1 $59 $-1 $20 #
shell $-1 $-1 $-1 $60 $-1 $22 #
shell $-1 $-1 $-1 $61 $-1 $24 #
shell $-1 $-1 $-1 $62 $-1 $26 #
shell $-1 $-1 $-1 $63 $-1 $28 #
shell $-1 $-1 $-1 $64 $-1 $30 #
shell $-1 $-1 $-1 $65 $-1 $32 #
shell $-1 $-1 $-1 $66 $-1 $34 #
shell $-1 $-1 $-1 $67 $-1 $36 #
shell $-1 $-1 $-1 $68 $-1 $38 #
shell $-1 $-1 $-1 $69 $-1 $40 #
face $-1 $70 $71 $42 $-1 $72 forward single #
face $-1 $73 $74 $43 $-1 $75 forward single #
face $-1 $76 $77 $44 $-1 $78 reversed single #
face $-1 $79 $80 $45 $-1 $81 forward single #
face $-1 $82 $83 $46 $-1 $84 forward single #
face $-1 $85 $86 $47 $-1 $87 reversed single #
face $-1 $88 $89 $48 $-1 $90 forward single #
face $-1 $91 $92 $49 $-1 $93 forward single #
face $-1 $94 $95 $50 $-1 $96 reversed single #
face $-1 $97 $98 $51 $-1 $99 forward single #
face $-1 $100 $101 $52 $-1 $102 forward single #
face $-1 $103 $104 $53 $-1 $105 reversed single #
face $-1 $106 $107 $54 $-1 $108 forward single #
face $-1 $109 $110 $55 $-1 $111 forward single #
face $-1 $112 $113 $42 $-1 $114 reversed single #
loop $-1 $-1 $115 $56 #
plane-surface $-1 0 0 7.6259027195529967 0 0 1 1 0 0 forward_v I I I I #
face $-1 $116 $117 $43 $-1 $118 reversed single #
loop $-1 $-1 $119 $57 #
plane-surface $-1 0 -25.820024795670307 -1.8530161964491394 0 0 1 1 0 0 forward_v I I I I #
face $-1 $120 $121 $44 $-1 $122 reversed single #
loop $-1 $-1 $123 $58 #
plane-surface $-1 90.754217680782602 -9.7202664836887038 162.2982459582127 0 1 0 0.83867057594974714 0 0.54463902268945019 forward_v I I I I #
face $-1 $124 $125 $45 $-1 $126 forward single #
loop $-1 $127 $128 $59 #
cone-surface $-1 55.506862675026113 -6.0721208500510535 5.5675044012838937 -0.83867057594974714 0 -0.54463902268945019 0.2723195113447251 0 -0.41933528797487357 1 I I 0 1 0.5 forward I I I I #
face $-1 $129 $130 $46 $-1 $131 forward single #
loop $-1 $132 $133 $60 #
cone-surface $-1 55.506862675026113 -0.59990239959457625 5.5675044012838937 -0.83867057594974714 0 -0.54463902268945019 0.2723195113447251 0 -0.41933528797487357 1 I I 0 1 0.5 forward I I I I #
face $-1 $134 $135 $47 $-1 $136 reversed single #
loop $-1 $-1 $137 $61 #
plane-surface $-1 90.754217680782602 16.099758311981603 162.2982459582127 0 1 0 0.83867057594974714 0 0.54463902268945019 forward_v I I I I #
face $-1 $138 $139 $48 $-1 $140 forward single #
loop $-1 $141 $142 $62 #
cone-surface $-1 55.506862675026113 19.747903945619257 5.5675044012838937 -0.83867057594974714 0 -0.54463902268945019 0.2723195113447251 0 -0.41933528797487357 1 I I 0 1 0.5 forward I I I I #
face $-1 $143 $144 $49 $-1 $145 forward single #
loop $-1 $146 $147 $63 #
cone-surface $-1 55.506862675026113 25.22012239607573 5.5675044012838937 -0.83867057594974714 0 -0.54463902268945019 0.2723195113447251 0 -0.41933528797487357 1 I I 0 1 0.5 forward I I I I #
face $-1 $148 $149 $50 $-1 $150 reversed single #
loop $-1 $-1 $151 $64 #
plane-surface $-1 -153.00399631949574 -9.7202664836887038 66.441989743090303 0 1 0 -0.83867057594974714 0 0.54463902268945019 forward_v I I I I #
face $-1 $152 $153 $51 $-1 $154 forward single #
loop $-1 $155 $156 $65 #
cone-surface $-1 -55.506862675026113 -6.0721208500510535 5.5675044012839079 0.83867057594974714 0 -0.54463902268945019 0.2723195113447251 0 0.41933528797487357 1 I I 0 1 0.5 forward I I I I #
face $-1 $157 $158 $52 $-1 $159 forward single #
loop $-1 $160 $161 $66 #
cone-surface $-1 -55.506862675026113 -0.59990239959457625 5.5675044012839079 0.83867057594974714 0 -0.54463902268945019 0.2723195113447251 0 0.41933528797487357 1 I I 0 1 0.5 forward I I I I #
face $-1 $162 $163 $53 $-1 $164 reversed single #
loop $-1 $-1 $165 $67 #
plane-surface $-1 -153.00399631949574 16.099758311981603 66.441989743090303 0 1 0 -0.83867057594974714 0 0.54463902268945019 forward_v I I I I #
face $-1 $166 $167 $54 $-1 $168 forward single #
loop $-1 $169 $170 $68 #
cone-surface $-1 -55.506862675026113 19.747903945619257 5.5675044012839079 0.83867057594974714 0 -0.54463902268945019 0.2723195113447251 0 0.41933528797487357 1 I I 0 1 0.5 forward I I I I #
face $-1 $171 $172 $55 $-1 $173 forward single #
loop $-1 $174 $175 $69 #
cone-surface $-1 -55.506862675026113 25.22012239607573 5.5675044012839079 0.83867057594974714 0 -0.54463902268945019 0.2723195113447251 0 0.41933528797487357 1 I I 0 1 0.5 forward I I I I #
face $-1 $176 $177 $42 $-1 $178 reversed single #
loop $-1 $-1 $179 $70 #
plane-surface $-1 0 0 -7.6259027195529967 0 0 1 1 0 0 forward_v I I I I #
coedge $-1 $180 $181 $182 $183 forward $71 $-1 #
face $-1 $184 $185 $43 $-1 $186 reversed single #
loop $-1 $-1 $187 $73 #
plane-surface $-1 0 -25.820024795670307 -5.0226752893987552 0 0 1 1 0 0 forward_v I I I I #
coedge $-1 $188 $189 $190 $191 reversed $74 $-1 #
face $-1 $192 $193 $44 $-1 $194 reversed single #
loop $-1 $-1 $195 $76 #
plane-surface $-1 -5.102038534339826 -3.3360116248228167 100.04846731949957 0.83867057594974714 0 0.54463902268945019 0.54463902268945019 0 -0.83867057594974714 forward_v I I I I #
coedge $-1 $196 $197 $198 $199 reversed $77 $-1 #
face $-1 $-1 $200 $45 $-1 $201 forward single #
loop $-1 $202 $203 $79 #
cone-surface $-1 54.771250269615678 -6.0721208500510535 5.089792134930363 -0.83867057594974714 0 -0.54463902268945019 0.13615975567236255 0 -0.20966764398743679 1 I I -0.70710678118654746 0.70710678118654746 0.25 forward I I I I #
loop $-1 $-1 $204 $59 #
coedge $-1 $128 $128 $205 $206 reversed $80 $-1 #
face $-1 $-1 $207 $46 $-1 $208 forward single #
loop $-1 $209 $210 $82 #
cone-surface $-1 54.771250269615678 -0.59990239959457625 5.089792134930363 -0.83867057594974714 0 -0.54463902268945019 0.13615975567236255 0 -0.20966764398743679 1 I I -0.70710678118654746 0.70710678118654746 0.25 forward I I I I #
loop $-1 $-1 $211 $60 #
coedge $-1 $133 $133 $212 $213 reversed $83 $-1 #
face $-1 $214 $215 $47 $-1 $216 reversed single #
loop $-1 $-1 $217 $85 #
plane-surface $-1 -5.102038534339826 22.48401317084749 100.04846731949957 0.83867057594974714 0 0.54463902268945019 0.54463902268945019 0 -0.83867057594974714 forward_v I I I I #
coedge $-1 $218 $219 $220 $221 reversed $86 $-1 #
face $-1 $-1 $222 $48 $-1 $223 forward single #
loop $-1 $224 $225 $88 #
cone-surface $-1 54.771250269615678 19.747903945619257 5.089792134930363 -0.83867057594974714 0 -0.54463902268945019 0.13615975567236255 0 -0.20966764398743679 1 I I -0.70710678118654746 0.70710678118654746 0.25 forward I I I I #
loop $-1 $-1 $226 $62 #
coedge $-1 $142 $142 $227 $228 reversed $89 $-1 #
face $-1 $-1 $229 $49 $-1 $230 forward single #
loop $-1 $231 $232 $91 #
cone-surface $-1 54.771250269615678 25.22012239607573 5.089792134930363 -0.83867057594974714 0 -0.54463902268945019 0.13615975567236255 0 -0.20966764398743679 1 I I -0.70710678118654746 0.70710678118654746 0.25 forward I I I I #
loop $-1 $-1 $233 $63 #
coedge $-1 $147 $147 $234 $235 reversed $92 $-1 #
face $-1 $236 $237 $50 $-1 $238 reversed single #
loop $-1 $-1 $239 $94 #
plane-surface $-1 -57.147740104373312 -3.3360116248228167 4.1922111043771579 -0.83867057594974714 0 0.54463902268945019 0.54463902268945019 0 0.83867057594974714 forward_v I I I I #
coedge $-1 $240 $241 $242 $243 reversed $95 $-1 #
face $-1 $-1 $244 $51 $-1 $245 forward single #
loop $-1 $246 $247 $97 #
cone-surface $-1 -54.771250269615678 -6.0721208500510535 5.0897921349303772 0.83867057594974714 0 -0.54463902268945019 0.13615975567236255 0 0.20966764398743679 1 I I -0.70710678118654746 0.70710678118654746 0.25 forward I I I I #
loop $-1 $-1 $248 $65 #
coedge $-1 $156 $156 $249 $250 reversed $98 $-1 #
face $-1 $-1 $251 $52 $-1 $252 forward single #
loop $-1 $253 $254 $100 #
cone-surface $-1 -54.771250269615678 -0.59990239959457625 5.0897921349303772 0.83867057594974714 0 -0.54463902268945019 0.13615975567236255 0 0.20966764398743679 1 I I -0.70710678118654746 0.70710678118654746 0.25 forward I I I I #
loop $-1 $-1 $255 $66 #
coedge $-1 $161 $161 $256 $257 reversed $101 $-1 #
face $-1 $258 $259 $53 $-1 $260 forward single #
loop $-1 $-1 $261 $103 #
plane-surface $-1 -57.147740104373312 22.48401317084749 4.1922111043771579 -0.83867057594974714 0 0.54463902268945019 0.54463902268945019 0 0.83867057594974714 forward_v I I I I #
coedge $-1 $262 $263 $264 $265 reversed $104 $-1 #
face $-1 $-1 $266 $54 $-1 $267 forward single #
loop $-1 $268 $269 $106 #
cone-surface $-1 -54.771250269615678 19.747903945619257 5.0897921349303772 0.83867057594974714 0 -0.54463902268945019 0.13615975567236255 0 0.20966764398743679 1 I I -0.70710678118654746 0.70710678118654746 0.25 forward I I I I #
loop $-1 $-1 $270 $68 #
coedge $-1 $170 $170 $271 $272 reversed $107 $-1 #
face $-1 $-1 $273 $55 $-1 $274 forward single #
loop $-1 $275 $276 $109 #
cone-surface $-1 -54.771250269615678 25.22012239607573 5.0897921349303772 0.83867057594974714 0 -0.54463902268945019 0.13615975567236255 0 0.20966764398743679 1 I I -0.70710678118654746 0.70710678118654746 0.25 forward I I I I #
loop $-1 $-1 $277 $69 #
coedge $-1 $175 $175 $278 $279 reversed $110 $-1 #
face $-1 $280 $281 $42 $-1 $282 reversed single #
loop $-1 $-1 $283 $112 #
plane-surface $-1 0 -28.868268029713377 0 0 1 0 0 0 1 forward_v I I I I #
coedge $-1 $284 $285 $286 $287 forward $113 $-1 #
coedge $-1 $288 $115 $289 $290 forward $71 $-1 #
coedge $-1 $115 $288 $291 $292 forward $71 $-1 #
coedge $-1 $293 $294 $115 $183 reversed $295 $-1 #
edge $-1 $296 -28.868268029713377 $297 28.868268029713377 $182 $298 forward 7 unknown #
face $-1 $299 $300 $43 $-1 $301 reversed single #
loop $-1 $-1 $302 $116 #
plane-surface $-1 0 -22.771781561627236 -3.4378457429239475 0 -1 0 0 0 -1 forward_v I I I I #
coedge $-1 $303 $304 $305 $306 reversed $117 $-1 #
coedge $-1 $307 $119 $308 $309 forward $74 $-1 #
coedge $-1 $119 $307 $310 $311 reversed $74 $-1 #
coedge $-1 $312 $313 $119 $191 forward $314 $-1 #
edge $-1 $315 9.8617691637920828 $316 15.958255631878224 $190 $317 forward 7 unknown #
face $-1 $318 $319 $44 $-1 $320 forward single #
loop $-1 $-1 $321 $120 #
plane-surface $-1 90.754217680782602 3.0482432340430705 162.2982459582127 0 -1 0 -0.83867057594974714 0 -0.54463902268945019 forward_v I I I I #
coedge $-1 $322 $323 $324 $325 reversed $121 $-1 #
coedge $-1 $197 $123 $326 $327 reversed $77 $-1 #
coedge $-1 $123 $196 $322 $328 reversed $77 $-1 #
coedge $-1 $324 $329 $123 $199 forward $330 $-1 #
edge $-1 $331 73.523220259553355 $332 76.956911874729201 $198 $333 forward 7 unknown #
loop $-1 $-1 $205 $124 #
plane-surface $-1 -5.102038534339826 -3.3360116248228167 100.04846731949957 0.83867057594974714 0 0.54463902268945019 0.54463902268945019 0 -0.83867057594974714 forward_v I I I I #
loop $-1 $-1 $334 $79 #
coedge $-1 $203 $203 $204 $335 reversed $125 $-1 #
coedge $-1 $204 $204 $203 $335 forward $127 $-1 #
coedge $-1 $205 $205 $128 $206 forward $200 $-1 #
edge $-1 $336 0 $336 6.2831853071796004 $205 $337 forward 7 unknown #
loop $-1 $-1 $212 $129 #
plane-surface $-1 -5.102038534339826 -3.3360116248228167 100.04846731949957 0.83867057594974714 0 0.54463902268945019 0.54463902268945019 0 -0.83867057594974714 forward_v I I I I #
loop $-1 $-1 $338 $82 #
coedge $-1 $210 $210 $211 $339 reversed $130 $-1 #
coedge $-1 $211 $211 $210 $339 forward $132 $-1 #
coedge $-1 $212 $212 $133 $213 forward $207 $-1 #
edge $-1 $340 0 $340 6.2831853071796004 $212 $341 forward 7 unknown #
face $-1 $342 $343 $47 $-1 $344 forward single #
loop $-1 $-1 $220 $134 #
plane-surface $-1 57.147740104373298 0 0 -1 0 0 0 0 1 forward_v I I I I #
coedge $-1 $345 $346 $347 $348 reversed $135 $-1 #
coedge $-1 $219 $137 $349 $350 reversed $86 $-1 #
coedge $-1 $137 $218 $345 $351 reversed $86 $-1 #
coedge $-1 $347 $352 $137 $221 forward $215 $-1 #
edge $-1 $353 73.523220259553355 $354 76.956911874729201 $220 $355 forward 7 unknown #
loop $-1 $-1 $227 $138 #
plane-surface $-1 -5.102038534339826 22.48401317084749 100.04846731949957 0.83867057594974714 0 0.54463902268945019 0.54463902268945019 0 -0.83867057594974714 forward_v I I I I #
loop $-1 $-1 $356 $88 #
coedge $-1 $225 $225 $226 $357 reversed $139 $-1 #
coedge $-1 $226 $226 $225 $357 forward $141 $-1 #
coedge $-1 $227 $227 $142 $228 forward $222 $-1 #
edge $-1 $358 0 $358 6.2831853071796004 $227 $359 forward 7 unknown #
loop $-1 $-1 $234 $143 #
plane-surface $-1 -5.102038534339826 22.48401317084749 100.04846731949957 0.83867057594974714 0 0.54463902268945019 0.54463902268945019 0 -0.83867057594974714 forward_v I I I I #
loop $-1 $-1 $360 $91 #
coedge $-1 $232 $232 $233 $361 reversed $144 $-1 #
coedge $-1 $233 $233 $232 $361 forward $146 $-1 #
coedge $-1 $234 $234 $147 $235 forward $229 $-1 #
edge $-1 $362 0 $362 6.2831853071796004 $234 $363 forward 7 unknown #
face $-1 $364 $365 $50 $-1 $366 reversed single #
loop $-1 $-1 $367 $148 #
plane-surface $-1 -153.00399631949574 3.0482432340430705 66.441989743090303 0 -1 0 0.83867057594974714 0 -0.54463902268945019 forward_v I I I I #
coedge $-1 $368 $369 $370 $371 reversed $149 $-1 #
coedge $-1 $241 $151 $372 $373 reversed $95 $-1 #
coedge $-1 $151 $240 $368 $374 reversed $95 $-1 #
coedge $-1 $370 $375 $151 $243 forward $376 $-1 #
edge $-1 $377 19.354258055374572 $378 21.584123391222931 $242 $379 forward 7 unknown #
loop $-1 $-1 $249 $152 #
plane-surface $-1 -57.147740104373312 -3.3360116248228167 4.1922111043771579 -0.83867057594974714 0 0.54463902268945019 0.54463902268945019 0 0.83867057594974714 forward_v I I I I #
loop $-1 $-1 $380 $97 #
coedge $-1 $247 $247 $248 $381 reversed $153 $-1 #
coedge $-1 $248 $248 $247 $381 forward $155 $-1 #
coedge $-1 $249 $249 $156 $250 forward $244 $-1 #
edge $-1 $382 0 $382 6.2831853071796004 $249 $383 forward 7 unknown #
loop $-1 $-1 $256 $157 #
plane-surface $-1 -57.147740104373312 -3.3360116248228167 4.1922111043771579 -0.83867057594974714 0 0.54463902268945019 0.54463902268945019 0 0.83867057594974714 forward_v I I I I #
loop $-1 $-1 $384 $100 #
coedge $-1 $254 $254 $255 $385 reversed $158 $-1 #
coedge $-1 $255 $255 $254 $385 forward $160 $-1 #
coedge $-1 $256 $256 $161 $257 forward $251 $-1 #
edge $-1 $386 0 $386 6.2831853071796004 $256 $387 forward 7 unknown #
face $-1 $388 $389 $53 $-1 $390 reversed single #
loop $-1 $-1 $264 $162 #
plane-surface $-1 0 0 7.6259027195529967 0 0 1 1 0 0 forward_v I I I I #
coedge $-1 $391 $392 $393 $394 reversed $163 $-1 #
coedge $-1 $263 $165 $395 $396 reversed $104 $-1 #
coedge $-1 $165 $262 $391 $397 reversed $104 $-1 #
coedge $-1 $393 $398 $165 $265 forward $259 $-1 #
edge $-1 $399 19.354258055374572 $400 21.584123391222931 $264 $401 forward 7 unknown #
loop $-1 $-1 $271 $166 #
plane-surface $-1 -57.147740104373312 22.48401317084749 4.1922111043771579 -0.83867057594974714 0 0.54463902268945019 0.54463902268945019 0 0.83867057594974714 forward_v I I I I #
loop $-1 $-1 $402 $106 #
coedge $-1 $269 $269 $270 $403 reversed $167 $-1 #
coedge $-1 $270 $270 $269 $403 forward $169 $-1 #
coedge $-1 $271 $271 $170 $272 forward $266 $-1 #
edge $-1 $404 0 $404 6.2831853071796004 $271 $405 forward 7 unknown #
loop $-1 $-1 $278 $171 #
plane-surface $-1 -57.147740104373312 22.48401317084749 4.1922111043771579 -0.83867057594974714 0 0.54463902268945019 0.54463902268945019 0 0.83867057594974714 forward_v I I I I #
loop $-1 $-1 $406 $109 #
coedge $-1 $276 $276 $277 $407 reversed $172 $-1 #
coedge $-1 $277 $277 $276 $407 forward $174 $-1 #
coedge $-1 $278 $278 $175 $279 forward $273 $-1 #
edge $-1 $408 0 $408 6.2831853071796004 $278 $409 forward 7 unknown #
face $-1 $410 $411 $42 $-1 $412 reversed single #
loop $-1 $-1 $413 $176 #
plane-surface $-1 -57.147740104373298 0 0 1 0 0 0 0 -1 forward_v I I I I #
coedge $-1 $414 $291 $415 $416 forward $177 $-1 #
coedge $-1 $417 $179 $414 $418 forward $113 $-1 #
coedge $-1 $179 $417 $419 $420 forward $113 $-1 #
coedge $-1 $294 $293 $179 $287 reversed $295 $-1 #
edge $-1 $421 -28.868268029713377 $422 28.868268029713377 $286 $423 forward 7 unknown #
coedge $-1 $181 $180 $424 $425 forward $71 $-1 #
coedge $-1 $426 $427 $180 $290 reversed $411 $-1 #
edge $-1 $297 -57.147740104373298 $428 57.147740104373298 $289 $429 forward 7 unknown #
coedge $-1 $283 $430 $181 $292 reversed $177 $-1 #
edge $-1 $431 -57.147740104373298 $296 57.147740104373298 $291 $432 forward 7 unknown #
coedge $-1 $286 $182 $430 $433 forward $295 $-1 #
coedge $-1 $182 $286 $426 $434 reversed $295 $-1 #
loop $-1 $-1 $293 $410 #
vertex $-1 $183 $435 #
vertex $-1 $183 $436 #
straight-curve $-1 57.147740104373298 0 7.6259027195529967 0 1 0 I I #
face $-1 $437 $438 $43 $-1 $439 reversed single #
loop $-1 $-1 $440 $184 #
plane-surface $-1 -57.147740104373298 0 0 1 0 0 0 0 -1 forward_v I I I I #
coedge $-1 $441 $308 $313 $442 reversed $185 $-1 #
coedge $-1 $443 $187 $444 $445 reversed $117 $-1 #
coedge $-1 $187 $443 $441 $446 forward $117 $-1 #
coedge $-1 $313 $312 $187 $306 forward $314 $-1 #
edge $-1 $447 -15.958255631878224 $448 -9.8617691637920828 $305 $449 forward 7 unknown #
coedge $-1 $189 $188 $440 $450 reversed $74 $-1 #
coedge $-1 $302 $451 $188 $309 reversed $185 $-1 #
edge $-1 $315 -57.147740104373298 $452 57.147740104373298 $308 $453 forward 7 unknown #
coedge $-1 $454 $455 $189 $311 forward $438 $-1 #
edge $-1 $316 -57.147740104373298 $456 57.147740104373298 $310 $457 forward 7 unknown #
coedge $-1 $305 $190 $455 $458 forward $314 $-1 #
coedge $-1 $190 $305 $302 $442 forward $314 $-1 #
loop $-1 $-1 $190 $437 #
vertex $-1 $191 $459 #
vertex $-1 $458 $460 #
straight-curve $-1 57.147740104373298 -12.910012397835153 -1.8530161964491394 0 -1 0 I I #
face $-1 $-1 $330 $44 $-1 $461 reversed single #
loop $-1 $-1 $462 $192 #
plane-surface $-1 0 0 7.6259027195529967 0 0 1 1 0 0 forward_v I I I I #
coedge $-1 $463 $464 $465 $466 reversed $193 $-1 #
coedge $-1 $467 $195 $197 $328 forward $121 $-1 #
coedge $-1 $195 $467 $463 $468 forward $121 $-1 #
coedge $-1 $465 $198 $195 $325 forward $330 $-1 #
edge $-1 $332 -8.0522606712772955 $469 4.7162490464544788 $324 $470 forward 7 unknown #
coedge $-1 $471 $472 $196 $327 forward $319 $-1 #
edge $-1 $473 9.5407659281336308 $331 11.770631263981997 $326 $474 forward 7 unknown #
edge $-1 $332 -114.29548020874657 $473 -110.20127240696769 $197 $475 forward 7 unknown #
coedge $-1 $198 $465 $471 $476 reversed $330 $-1 #
loop $-1 $-1 $465 $318 #
vertex $-1 $476 $477 #
vertex $-1 $199 $478 #
straight-curve $-1 57.147740104373298 -9.7202664836887038 81.149122979106352 0 0 -1 I I #
coedge $-1 $334 $334 $-1 $479 reversed $202 $-1 #
edge $-1 $480 0 $480 6.2831853071796004 $203 $481 forward 7 unknown #
vertex $-1 $206 $482 #
ellipse-curve $-1 56.032807436449119 -6.0721208500510535 5.9090569119650675 0.83867057594974714 0 0.54463902268945019 0.2723195113447251 0 -0.41933528797487357 1 I I #
coedge $-1 $338 $338 $-1 $483 reversed $209 $-1 #
edge $-1 $484 0 $484 6.2831853071796004 $210 $485 forward 7 unknown #
vertex $-1 $213 $486 #
ellipse-curve $-1 56.032807436449119 -0.59990239959457625 5.9090569119650675 0.83867057594974714 0 0.54463902268945019 0.2723195113447251 0 -0.41933528797487357 1 I I #
face $-1 $-1 $487 $47 $-1 $488 reversed single #
loop $-1 $-1 $349 $214 #
plane-surface $-1 0 0 7.6259027195529967 0 0 1 1 0 0 forward_v I I I I #
coedge $-1 $489 $217 $219 $351 forward $135 $-1 #
coedge $-1 $217 $489 $490 $491 reversed $135 $-1 #
coedge $-1 $492 $220 $217 $348 forward $215 $-1 #
edge $-1 $354 4.8577517265578578 $493 17.626261444289632 $347 $494 forward 7 unknown #
coedge $-1 $495 $496 $218 $350 forward $343 $-1 #
edge $-1 $497 9.5407659281336308 $353 11.770631263981997 $349 $498 forward 7 unknown #
edge $-1 $354 -114.29548020874657 $497 -110.20127240696769 $219 $499 forward 7 unknown #
coedge $-1 $220 $492 $495 $500 reversed $215 $-1 #
vertex $-1 $500 $501 #
vertex $-1 $221 $502 #
straight-curve $-1 57.147740104373298 16.099758311981603 81.149122979106352 0 0 -1 I I #
coedge $-1 $356 $356 $-1 $503 reversed $224 $-1 #
edge $-1 $504 0 $504 6.2831853071796004 $225 $505 forward 7 unknown #
vertex $-1 $228 $506 #
ellipse-curve $-1 56.032807436449119 19.747903945619257 5.9090569119650675 0.83867057594974714 0 0.54463902268945019 0.2723195113447251 0 -0.41933528797487357 1 I I #
coedge $-1 $360 $360 $-1 $507 reversed $231 $-1 #
edge $-1 $508 0 $508 6.2831853071796004 $232 $509 forward 7 unknown #
vertex $-1 $235 $510 #
ellipse-curve $-1 56.032807436449119 25.22012239607573 5.9090569119650675 0.83867057594974714 0 0.54463902268945019 0.2723195113447251 0 -0.41933528797487357 1 I I #
face $-1 $-1 $376 $50 $-1 $511 forward single #
loop $-1 $-1 $512 $236 #
plane-surface $-1 -57.147740104373298 0 0 1 0 0 0 0 -1 forward_v I I I I #
coedge $-1 $513 $514 $515 $516 reversed $237 $-1 #
coedge $-1 $517 $239 $241 $374 forward $149 $-1 #
coedge $-1 $239 $517 $513 $518 forward $149 $-1 #
coedge $-1 $515 $242 $239 $371 forward $376 $-1 #
edge $-1 $378 -8.0522606712772955 $519 4.7162490464544788 $370 $520 forward 7 unknown #
coedge $-1 $521 $522 $240 $373 forward $365 $-1 #
edge $-1 $523 -29.028783767167972 $377 -25.595092151992155 $372 $524 forward 7 unknown #
edge $-1 $378 -4.0942078017788788 $523 -2.636201369357039e-014 $241 $525 forward 7 unknown #
coedge $-1 $242 $515 $521 $526 forward $376 $-1 #
loop $-1 $-1 $515 $364 #
vertex $-1 $373 $527 #
vertex $-1 $243 $528 #
straight-curve $-1 -76.50199815974787 -9.7202664836887038 7.6259027195529967 1 0 0 I I #
coedge $-1 $380 $380 $-1 $529 reversed $246 $-1 #
edge $-1 $530 0 $530 6.2831853071796004 $247 $531 forward 7 unknown #
vertex $-1 $250 $532 #
ellipse-curve $-1 -56.032807436449126 -6.0721208500510535 5.9090569119650844 -0.83867057594974714 0 0.54463902268945019 0.2723195113447251 0 0.41933528797487357 1 I I #
coedge $-1 $384 $384 $-1 $533 reversed $253 $-1 #
edge $-1 $534 0 $534 6.2831853071796004 $254 $535 forward 7 unknown #
vertex $-1 $257 $536 #
ellipse-curve $-1 -56.032807436449126 -0.59990239959457625 5.9090569119650844 -0.83867057594974714 0 0.54463902268945019 0.2723195113447251 0 0.41933528797487357 1 I I #
face $-1 $-1 $537 $53 $-1 $538 reversed single #
loop $-1 $-1 $539 $258 #
plane-surface $-1 0 28.868268029713377 0 0 -1 0 0 0 -1 forward_v I I I I #
coedge $-1 $540 $261 $263 $397 forward $163 $-1 #
coedge $-1 $261 $540 $539 $541 reversed $163 $-1 #
coedge $-1 $542 $264 $261 $394 forward $259 $-1 #
edge $-1 $400 4.8577517265578578 $543 17.626261444289632 $393 $544 forward 7 unknown #
coedge $-1 $545 $546 $262 $396 forward $537 $-1 #
edge $-1 $547 -29.028783767167972 $399 -25.595092151992155 $395 $548 forward 7 unknown #
edge $-1 $400 -4.0942078017788788 $547 -2.636201369357039e-014 $263 $549 forward 7 unknown #
coedge $-1 $264 $542 $545 $550 forward $259 $-1 #
vertex $-1 $396 $551 #
vertex $-1 $265 $552 #
straight-curve $-1 -76.50199815974787 16.099758311981603 7.6259027195529967 1 0 0 I I #
coedge $-1 $402 $402 $-1 $553 reversed $268 $-1 #
edge $-1 $554 0 $554 6.2831853071796004 $269 $555 forward 7 unknown #
vertex $-1 $272 $556 #
ellipse-curve $-1 -56.032807436449126 19.747903945619257 5.9090569119650844 -0.83867057594974714 0 0.54463902268945019 0.2723195113447251 0 0.41933528797487357 1 I I #
coedge $-1 $406 $406 $-1 $557 reversed $275 $-1 #
edge $-1 $558 0 $558 6.2831853071796004 $276 $559 forward 7 unknown #
vertex $-1 $279 $560 #
ellipse-curve $-1 -56.032807436449126 25.22012239607573 5.9090569119650844 -0.83867057594974714 0 0.54463902268945019 0.2723195113447251 0 0.41933528797487357 1 I I #
face $-1 $-1 $295 $42 $-1 $561 reversed single #
loop $-1 $-1 $426 $280 #
plane-surface $-1 0 28.868268029713377 0 0 -1 0 0 0 -1 forward_v I I I I #
coedge $-1 $562 $424 $427 $563 forward $281 $-1 #
coedge $-1 $430 $283 $284 $418 reversed $177 $-1 #
coedge $-1 $424 $562 $283 $416 reversed $281 $-1 #
edge $-1 $431 -7.6259027195529967 $564 7.6259027195529967 $415 $565 forward 7 unknown #
coedge $-1 $285 $284 $562 $566 forward $113 $-1 #
edge $-1 $422 -57.147740104373298 $564 57.147740104373298 $414 $567 forward 7 unknown #
coedge $-1 $427 $426 $285 $420 reversed $411 $-1 #
edge $-1 $568 -57.147740104373298 $421 57.147740104373298 $419 $569 forward 7 unknown #
vertex $-1 $287 $570 #
vertex $-1 $433 $571 #
straight-curve $-1 57.147740104373298 0 -7.6259027195529967 0 -1 0 I I #
coedge $-1 $413 $415 $288 $425 reversed $281 $-1 #
edge $-1 $428 -28.868268029713377 $431 28.868268029713377 $424 $572 forward 7 unknown #
coedge $-1 $419 $289 $294 $434 forward $411 $-1 #
coedge $-1 $289 $419 $413 $563 reversed $411 $-1 #
vertex $-1 $290 $573 #
straight-curve $-1 0 28.868268029713377 7.6259027195529967 -1 0 0 I I #
coedge $-1 $291 $414 $293 $433 reversed $177 $-1 #
vertex $-1 $425 $574 #
straight-curve $-1 0 -28.868268029713377 7.6259027195529967 1 0 0 I I #
edge $-1 $296 -7.6259027195529967 $422 7.6259027195529967 $293 $575 forward 7 unknown #
edge $-1 $297 -7.6259027195529967 $421 7.6259027195529967 $294 $576 forward 7 unknown #
point $-1 57.147740104373298 -28.868268029713377 7.6259027195529967 #
point $-1 57.147740104373298 28.868268029713377 7.6259027195529967 #
face $-1 $-1 $314 $43 $-1 $577 reversed single #
loop $-1 $-1 $310 $299 #
plane-surface $-1 0 -28.868268029713377 0 0 1 0 0 0 1 forward_v I I I I #
coedge $-1 $578 $579 $307 $450 forward $300 $-1 #
coedge $-1 $451 $302 $304 $446 reversed $185 $-1 #
edge $-1 $448 -3.3037524179367814 $315 -0.13409332498716564 $313 $580 forward 7 unknown #
coedge $-1 $304 $303 $581 $582 reversed $117 $-1 #
coedge $-1 $455 $454 $303 $445 forward $438 $-1 #
edge $-1 $583 -57.147740104373298 $447 57.147740104373298 $444 $584 forward 7 unknown #
edge $-1 $585 -57.147740104373298 $448 57.147740104373298 $441 $586 forward 7 unknown #
vertex $-1 $445 $587 #
vertex $-1 $306 $588 #
straight-curve $-1 57.147740104373298 -12.910012397835153 -5.0226752893987552 0 1 0 I I #
edge $-1 $456 -15.958255631878224 $452 -9.8617691637920828 $440 $589 forward 7 unknown #
coedge $-1 $308 $441 $578 $590 reversed $185 $-1 #
vertex $-1 $450 $591 #
straight-curve $-1 0 -22.771781561627236 -1.8530161964491394 -1 0 0 I I #
coedge $-1 $444 $310 $579 $592 forward $438 $-1 #
coedge $-1 $310 $444 $312 $458 reversed $438 $-1 #
vertex $-1 $592 $593 #
straight-curve $-1 0 -28.868268029713377 -1.8530161964491394 -1 0 0 I I #
edge $-1 $316 1.8530161964491394 $447 5.0226752893987552 $312 $594 forward 7 unknown #
point $-1 57.147740104373298 -22.771781561627236 -1.8530161964491394 #
point $-1 57.147740104373298 -28.868268029713377 -1.8530161964491394 #
plane-surface $-1 57.147740104373298 0 0 -1 0 0 0 0 1 forward_v I I I I #
coedge $-1 $472 $471 $464 $595 forward $319 $-1 #
coedge $-1 $464 $321 $323 $468 reversed $193 $-1 #
coedge $-1 $321 $463 $462 $595 reversed $193 $-1 #
coedge $-1 $329 $324 $321 $466 forward $330 $-1 #
edge $-1 $469 -76.956911874729201 $596 -73.523220259553355 $465 $597 forward 7 unknown #
coedge $-1 $323 $322 $472 $598 reversed $121 $-1 #
edge $-1 $599 110.20127240696769 $469 114.29548020874657 $463 $600 forward 7 unknown #
vertex $-1 $325 $601 #
straight-curve $-1 57.147740104373298 -1.6680058124114083 4.1922111043771508 0 1 0 I I #
coedge $-1 $462 $326 $329 $476 forward $319 $-1 #
coedge $-1 $326 $462 $467 $598 forward $319 $-1 #
vertex $-1 $327 $602 #
straight-curve $-1 45.377108840391301 -9.7202664836887038 7.6259027195529967 1 0 0 I I #
straight-curve $-1 -5.102038534339826 -9.7202664836887038 100.04846731949957 -0.54463902268945019 0 0.83867057594974714 I I #
edge $-1 $331 -9.7202664836887038 $596 3.0482432340430705 $329 $603 forward 7 unknown #
point $-1 57.147740104373298 -9.7202664836887038 7.6259027195529967 #
point $-1 57.147740104373298 -9.7202664836887038 4.1922111043771508 #
edge $-1 $604 1 $604 0 $334 $-1 forward 7 unknown #
vertex $-1 $335 $605 #
ellipse-curve $-1 54.980917913603115 -6.0721208500510535 5.2259518906027251 0.83867057594974714 0 0.54463902268945019 0.2723195113447251 0 -0.41933528797487357 1 I I #
point $-1 56.305126947793838 -6.0721208500510535 5.4897216239901887 #
edge $-1 $606 1 $606 0 $338 $-1 forward 7 unknown #
vertex $-1 $339 $607 #
ellipse-curve $-1 54.980917913603115 -0.59990239959457625 5.2259518906027251 0.83867057594974714 0 0.54463902268945019 0.2723195113447251 0 -0.41933528797487357 1 I I #
point $-1 56.305126947793838 -0.59990239959457625 5.4897216239901887 #
loop $-1 $-1 $490 $342 #
plane-surface $-1 0 28.868268029713377 0 0 -1 0 0 0 -1 forward_v I I I I #
coedge $-1 $346 $345 $496 $608 reversed $135 $-1 #
coedge $-1 $609 $610 $346 $491 forward $487 $-1 #
edge $-1 $493 -70.952242713346124 $611 -66.858034911567245 $490 $612 forward 7 unknown #
coedge $-1 $352 $347 $610 $613 reversed $215 $-1 #
vertex $-1 $491 $614 #
straight-curve $-1 57.147740104373298 11.242006585423745 4.1922111043771508 0 1 0 I I #
coedge $-1 $615 $349 $352 $500 forward $343 $-1 #
coedge $-1 $349 $615 $489 $608 forward $343 $-1 #
vertex $-1 $350 $616 #
straight-curve $-1 45.377108840391301 16.099758311981603 7.6259027195529967 1 0 0 I I #
straight-curve $-1 -5.102038534339826 16.099758311981603 100.04846731949957 -0.54463902268945019 0 0.83867057594974714 I I #
edge $-1 $353 16.099758311981603 $617 28.868268029713377 $352 $618 forward 7 unknown #
point $-1 57.147740104373298 16.099758311981603 7.6259027195529967 #
point $-1 57.147740104373298 16.099758311981603 4.1922111043771508 #
edge $-1 $619 1 $619 0 $356 $-1 forward 7 unknown #
vertex $-1 $357 $620 #
ellipse-curve $-1 54.980917913603115 19.747903945619257 5.2259518906027251 0.83867057594974714 0 0.54463902268945019 0.2723195113447251 0 -0.41933528797487357 1 I I #
point $-1 56.305126947793838 19.747903945619257 5.4897216239901887 #
edge $-1 $621 1 $621 0 $360 $-1 forward 7 unknown #
vertex $-1 $361 $622 #
ellipse-curve $-1 54.980917913603115 25.22012239607573 5.2259518906027251 0.83867057594974714 0 0.54463902268945019 0.2723195113447251 0 -0.41933528797487357 1 I I #
point $-1 56.305126947793838 25.22012239607573 5.4897216239901887 #
plane-surface $-1 0 0 7.6259027195529967 0 0 1 1 0 0 forward_v I I I I #
coedge $-1 $522 $521 $514 $623 forward $365 $-1 #
coedge $-1 $514 $367 $369 $518 reversed $237 $-1 #
coedge $-1 $367 $513 $512 $623 reversed $237 $-1 #
coedge $-1 $375 $370 $367 $516 forward $376 $-1 #
edge $-1 $519 -21.584123391222931 $624 -19.354258055374572 $515 $625 forward 7 unknown #
coedge $-1 $369 $368 $522 $626 reversed $149 $-1 #
edge $-1 $627 2.636201369357039e-014 $519 4.0942078017788788 $513 $628 forward 7 unknown #
vertex $-1 $371 $629 #
straight-curve $-1 -54.917874768524946 -1.6680058124114083 7.6259027195529967 0 1 0 I I #
coedge $-1 $512 $372 $375 $526 reversed $365 $-1 #
coedge $-1 $372 $512 $517 $626 forward $365 $-1 #
vertex $-1 $373 $630 #
straight-curve $-1 -57.147740104373298 -9.7202664836887038 33.220994871545152 0 0 1 I I #
straight-curve $-1 -57.147740104373312 -9.7202664836887038 4.1922111043771579 -0.54463902268945019 0 -0.83867057594974714 I I #
edge $-1 $624 -3.0482432340430705 $377 9.7202664836887038 $521 $631 forward 7 unknown #
point $-1 -57.147740104373298 -9.7202664836887038 7.6259027195529967 #
point $-1 -54.917874768524939 -9.7202664836887038 7.6259027195529967 #
edge $-1 $632 1 $632 0 $380 $-1 forward 7 unknown #
vertex $-1 $381 $633 #
ellipse-curve $-1 -54.980917913603115 -6.0721208500510535 5.2259518906027393 -0.83867057594974714 0 0.54463902268945019 0.2723195113447251 0 0.41933528797487357 1 I I #
point $-1 -55.760487925104385 -6.0721208500510535 6.3283921999399499 #
edge $-1 $634 1 $634 0 $384 $-1 forward 7 unknown #
vertex $-1 $385 $635 #
ellipse-curve $-1 -54.980917913603115 -0.59990239959457625 5.2259518906027393 -0.83867057594974714 0 0.54463902268945019 0.2723195113447251 0 0.41933528797487357 1 I I #
point $-1 -55.760487925104385 -0.59990239959457625 6.3283921999399499 #
loop $-1 $-1 $395 $388 #
plane-surface $-1 -57.147740104373298 0 0 1 0 0 0 0 -1 forward_v I I I I #
coedge $-1 $636 $637 $392 $541 forward $389 $-1 #
coedge $-1 $392 $391 $546 $638 reversed $163 $-1 #
edge $-1 $543 9.7102948071939537 $639 13.804502608972806 $539 $640 forward 7 unknown #
coedge $-1 $398 $393 $637 $641 forward $259 $-1 #
vertex $-1 $641 $642 #
straight-curve $-1 -54.917874768524946 11.242006585423745 7.6259027195529967 0 1 0 I I #
coedge $-1 $643 $395 $398 $550 reversed $537 $-1 #
coedge $-1 $395 $643 $540 $638 forward $537 $-1 #
vertex $-1 $396 $644 #
straight-curve $-1 -57.147740104373298 16.099758311981603 33.220994871545152 0 0 1 I I #
straight-curve $-1 -57.147740104373312 16.099758311981603 4.1922111043771579 -0.54463902268945019 0 -0.83867057594974714 I I #
edge $-1 $645 -28.868268029713377 $399 -16.099758311981603 $545 $646 forward 7 unknown #
point $-1 -57.147740104373298 16.099758311981603 7.6259027195529967 #
point $-1 -54.917874768524939 16.099758311981603 7.6259027195529967 #
edge $-1 $647 1 $647 0 $402 $-1 forward 7 unknown #
vertex $-1 $403 $648 #
ellipse-curve $-1 -54.980917913603115 19.747903945619257 5.2259518906027393 -0.83867057594974714 0 0.54463902268945019 0.2723195113447251 0 0.41933528797487357 1 I I #
point $-1 -55.760487925104385 19.747903945619257 6.3283921999399499 #
edge $-1 $649 1 $649 0 $406 $-1 forward 7 unknown #
vertex $-1 $407 $650 #
ellipse-curve $-1 -54.980917913603115 25.22012239607573 5.2259518906027393 -0.83867057594974714 0 0.54463902268945019 0.2723195113447251 0 0.41933528797487357 1 I I #
point $-1 -55.760487925104385 25.22012239607573 6.3283921999399499 #
plane-surface $-1 57.147740104373298 0 0 -1 0 0 0 0 1 forward_v I I I I #
coedge $-1 $415 $413 $417 $566 reversed $281 $-1 #
edge $-1 $428 -7.6259027195529967 $568 7.6259027195529967 $427 $651 forward 7 unknown #
vertex $-1 $566 $652 #
straight-curve $-1 -57.147740104373298 -28.868268029713377 0 0 0 -1 I I #
edge $-1 $564 -28.868268029713377 $568 28.868268029713377 $562 $653 forward 7 unknown #
straight-curve $-1 0 -28.868268029713377 -7.6259027195529967 -1 0 0 I I #
vertex $-1 $420 $654 #
straight-curve $-1 0 28.868268029713377 -7.6259027195529967 1 0 0 I I #
point $-1 57.147740104373298 28.868268029713377 -7.6259027195529967 #
point $-1 57.147740104373298 -28.868268029713377 -7.6259027195529967 #
straight-curve $-1 -57.147740104373298 0 7.6259027195529967 0 -1 0 I I #
point $-1 -57.147740104373298 28.868268029713377 7.6259027195529967 #
point $-1 -57.147740104373298 -28.868268029713377 7.6259027195529967 #
straight-curve $-1 57.147740104373298 -28.868268029713377 0 0 0 -1 I I #
straight-curve $-1 57.147740104373298 28.868268029713377 0 0 0 -1 I I #
plane-surface $-1 57.147740104373298 0 0 -1 0 0 0 0 1 forward_v I I I I #
coedge $-1 $581 $440 $451 $590 forward $300 $-1 #
coedge $-1 $440 $581 $454 $592 reversed $300 $-1 #
straight-curve $-1 57.147740104373298 -22.771781561627236 -1.7189228714619738 0 0 1 I I #
coedge $-1 $579 $578 $443 $582 forward $300 $-1 #
edge $-1 $585 9.8617691637920828 $583 15.958255631878224 $581 $655 forward 7 unknown #
vertex $-1 $445 $656 #
straight-curve $-1 0 -28.868268029713377 -5.0226752893987552 1 0 0 I I #
vertex $-1 $582 $657 #
straight-curve $-1 0 -22.771781561627236 -5.0226752893987552 1 0 0 I I #
point $-1 57.147740104373298 -28.868268029713377 -5.0226752893987552 #
point $-1 57.147740104373298 -22.771781561627236 -5.0226752893987552 #
straight-curve $-1 -57.147740104373298 -12.910012397835153 -1.8530161964491394 0 1 0 I I #
edge $-1 $452 0.13409332498716564 $585 3.3037524179367814 $578 $658 forward 7 unknown #
point $-1 -57.147740104373298 -22.771781561627236 -1.8530161964491394 #
edge $-1 $456 1.8530161964491394 $583 5.0226752893987552 $579 $659 forward 7 unknown #
point $-1 -57.147740104373298 -28.868268029713377 -1.8530161964491394 #
straight-curve $-1 57.147740104373298 -28.868268029713377 0 0 0 -1 I I #
edge $-1 $596 -11.770631263981997 $599 -9.5407659281336308 $462 $660 forward 7 unknown #
vertex $-1 $595 $661 #
straight-curve $-1 57.147740104373298 3.0482432340430705 81.149122979106352 0 0 1 I I #
edge $-1 $599 -4.7162490464544788 $473 8.0522606712772955 $472 $662 forward 7 unknown #
vertex $-1 $598 $663 #
straight-curve $-1 -5.102038534339826 3.0482432340430705 100.04846731949957 0.54463902268945019 0 -0.83867057594974714 I I #
point $-1 57.147740104373298 3.0482432340430705 4.1922111043771508 #
point $-1 54.917874768524932 -9.7202664836887038 7.6259027195529967 #
straight-curve $-1 57.147740104373298 0 7.6259027195529967 0 1 0 I I #
vertex $-1 $479 $664 #
point $-1 55.253237424947841 -6.0721208500510535 4.8066166026278516 #
vertex $-1 $483 $665 #
point $-1 55.253237424947841 -0.59990239959457625 4.8066166026278516 #
edge $-1 $611 -17.626261444289632 $497 -4.8577517265578578 $496 $666 forward 7 unknown #
coedge $-1 $610 $490 $615 $667 reversed $487 $-1 #
coedge $-1 $490 $609 $492 $613 forward $487 $-1 #
vertex $-1 $491 $668 #
straight-curve $-1 18.50437997535181 28.868268029713377 63.69776936570539 -0.54463902268945019 0 0.83867057594974714 I I #
edge $-1 $617 -7.6259027195529967 $493 -4.1922111043771508 $492 $669 forward 7 unknown #
point $-1 57.147740104373298 28.868268029713377 4.1922111043771508 #
coedge $-1 $496 $495 $609 $667 forward $343 $-1 #
point $-1 54.917874768524932 16.099758311981603 7.6259027195529967 #
vertex $-1 $500 $670 #
straight-curve $-1 57.147740104373298 0 7.6259027195529967 0 1 0 I I #
vertex $-1 $503 $671 #
point $-1 55.253237424947841 19.747903945619257 4.8066166026278516 #
vertex $-1 $507 $672 #
point $-1 55.253237424947841 25.22012239607573 4.8066166026278516 #
edge $-1 $624 25.595092151992155 $627 29.028783767167972 $512 $673 forward 7 unknown #
vertex $-1 $526 $674 #
straight-curve $-1 -76.50199815974787 3.0482432340430705 7.6259027195529967 -1 0 0 I I #
edge $-1 $627 -4.7162490464544788 $523 8.0522606712772955 $522 $675 forward 7 unknown #
vertex $-1 $626 $676 #
straight-curve $-1 -57.147740104373312 3.0482432340430705 4.1922111043771579 0.54463902268945019 0 0.83867057594974714 I I #
point $-1 -54.917874768524939 3.0482432340430705 7.6259027195529967 #
point $-1 -57.147740104373298 -9.7202664836887038 4.1922111043771801 #
straight-curve $-1 -57.147740104373298 0 7.6259027195529967 0 -1 0 I I #
vertex $-1 $529 $677 #
point $-1 -54.708598402258389 -6.0721208500510535 5.6452871785776129 #
vertex $-1 $533 $678 #
point $-1 -54.708598402258389 -0.59990239959457625 5.6452871785776129 #
coedge $-1 $637 $539 $643 $679 reversed $389 $-1 #
coedge $-1 $539 $636 $542 $641 reversed $389 $-1 #
edge $-1 $639 -17.626261444289632 $547 -4.8577517265578578 $546 $680 forward 7 unknown #
vertex $-1 $541 $681 #
straight-curve $-1 -49.629269294708386 28.868268029713377 15.76964125814419 -0.54463902268945019 0 -0.83867057594974714 I I #
edge $-1 $543 54.917874768524939 $645 57.147740104373298 $637 $682 forward 7 unknown #
point $-1 -54.917874768524939 28.868268029713377 7.6259027195529967 #
coedge $-1 $546 $545 $636 $679 forward $537 $-1 #
point $-1 -57.147740104373298 16.099758311981603 4.1922111043771801 #
vertex $-1 $641 $683 #
straight-curve $-1 -57.147740104373298 0 7.6259027195529967 0 -1 0 I I #
vertex $-1 $553 $684 #
point $-1 -54.708598402258389 19.747903945619257 5.6452871785776129 #
vertex $-1 $557 $685 #
point $-1 -54.708598402258389 25.22012239607573 5.6452871785776129 #
straight-curve $-1 -57.147740104373298 28.868268029713377 0 0 0 -1 I I #
point $-1 -57.147740104373298 -28.868268029713377 -7.6259027195529967 #
straight-curve $-1 -57.147740104373298 0 -7.6259027195529967 0 1 0 I I #
point $-1 -57.147740104373298 28.868268029713377 -7.6259027195529967 #
straight-curve $-1 -57.147740104373298 -12.910012397835153 -5.0226752893987552 0 -1 0 I I #
point $-1 -57.147740104373298 -28.868268029713377 -5.0226752893987552 #
point $-1 -57.147740104373298 -22.771781561627236 -5.0226752893987552 #
straight-curve $-1 -57.147740104373298 -22.771781561627236 -1.7189228714619738 0 0 -1 I I #
straight-curve $-1 -57.147740104373298 -28.868268029713377 0 0 0 -1 I I #
straight-curve $-1 45.377108840391301 3.0482432340430705 7.6259027195529967 -1 0 0 I I #
point $-1 57.147740104373298 3.0482432340430705 7.6259027195529967 #
straight-curve $-1 54.917874768524925 -1.6680058124114083 7.6259027195530038 0 -1 0 I I #
point $-1 54.917874768524932 3.0482432340430705 7.6259027195529967 #
point $-1 54.56158262562824 -6.0721208500510535 4.9536323792580008 #
point $-1 54.56158262562824 -0.59990239959457625 4.9536323792580008 #
straight-curve $-1 54.917874768524925 11.242006585423745 7.6259027195530038 0 -1 0 I I #
edge $-1 $617 -57.147740104373298 $611 -54.917874768524932 $609 $686 forward 7 unknown #
point $-1 54.917874768524932 28.868268029713377 7.6259027195529967 #
straight-curve $-1 57.147740104373298 28.868268029713377 0 0 0 -1 I I #
point $-1 57.147740104373298 28.868268029713377 7.6259027195529967 #
point $-1 54.56158262562824 19.747903945619257 4.9536323792580008 #
point $-1 54.56158262562824 25.22012239607573 4.9536323792580008 #
straight-curve $-1 -57.147740104373298 3.0482432340430705 33.220994871545152 0 0 -1 I I #
point $-1 -57.147740104373298 3.0482432340430705 7.6259027195529967 #
straight-curve $-1 -57.147740104373298 -1.6680058124114083 4.1922111043771846 0 -1 0 I I #
point $-1 -57.147740104373298 3.0482432340430705 4.1922111043771801 #
point $-1 -54.56158262562824 -6.0721208500510535 4.953632379258015 #
point $-1 -54.56158262562824 -0.59990239959457625 4.953632379258015 #
edge $-1 $645 -7.6259027195529967 $639 -4.1922111043771801 $636 $687 forward 7 unknown #
straight-curve $-1 -57.147740104373298 11.242006585423745 4.1922111043771846 0 -1 0 I I #
point $-1 -57.147740104373298 28.868268029713377 4.1922111043771801 #
straight-curve $-1 0 28.868268029713377 7.6259027195529967 -1 0 0 I I #
point $-1 -57.147740104373298 28.868268029713377 7.6259027195529967 #
point $-1 -54.56158262562824 19.747903945619257 4.953632379258015 #
point $-1 -54.56158262562824 25.22012239607573 4.953632379258015 #
straight-curve $-1 0 28.868268029713377 7.6259027195529967 -1 0 0 I I #
straight-curve $-1 -57.147740104373298 28.868268029713377 0 0 0 -1 I I #
End-of-ACIS-data 