500 0 8 0           
7 Unknown 11 ACIS 5.0 NT 24 Thu Mar 25 22:19:04 1999 
-1 9.9999999999999995e-007 1e-010 
body $-1 $8 $-1 $9 #
body $-1 $10 $-1 $11 #
body $-1 $12 $-1 $13 #
body $-1 $14 $-1 $15 #
body $-1 $16 $-1 $17 #
body $-1 $18 $-1 $19 #
body $-1 $20 $-1 $21 #
body $-1 $22 $-1 $23 #
lump $-1 $-1 $24 $0 #
transform $-1 1 0 0 0 1 0 0 0 1 55.594958342234563 29.217426698709559 12.62251327088023 1 rotate no_reflect no_shear #
lump $-1 $-1 $25 $1 #
transform $-1 1 0 0 0 1 0 0 0 1 55.594958342234563 29.217426698709559 12.62251327088023 1 rotate no_reflect no_shear #
lump $-1 $-1 $26 $2 #
transform $-1 1 0 0 0 1 0 0 0 1 55.594958342234563 29.217426698709559 12.62251327088023 1 rotate no_reflect no_shear #
lump $-1 $-1 $27 $3 #
transform $-1 1 0 0 0 1 0 0 0 1 55.594958342234563 29.217426698709559 12.62251327088023 1 rotate no_reflect no_shear #
lump $-1 $-1 $28 $4 #
transform $-1 1 0 0 0 1 0 0 0 1 55.594958342234563 29.217426698709559 12.62251327088023 1 rotate no_reflect no_shear #
lump $-1 $-1 $29 $5 #
transform $-1 1 0 0 0 1 0 0 0 1 55.594958342234563 29.217426698709559 12.62251327088023 1 rotate no_reflect no_shear #
lump $-1 $-1 $30 $6 #
transform $-1 1 0 0 0 1 0 0 0 1 55.594958342234563 29.217426698709559 12.62251327088023 1 rotate no_reflect no_shear #
lump $-1 $-1 $31 $7 #
transform $-1 1 0 0 0 1 0 0 0 1 55.594958342234563 29.217426698709559 12.62251327088023 1 rotate no_reflect no_shear #
shell $-1 $-1 $-1 $32 $-1 $8 #
shell $-1 $-1 $-1 $33 $-1 $10 #
shell $-1 $-1 $-1 $34 $-1 $12 #
shell $-1 $-1 $-1 $35 $-1 $14 #
shell $-1 $-1 $-1 $36 $-1 $16 #
shell $-1 $-1 $-1 $37 $-1 $18 #
shell $-1 $-1 $-1 $38 $-1 $20 #
shell $-1 $-1 $-1 $39 $-1 $22 #
face $-1 $40 $41 $24 $-1 $42 forward single #
face $-1 $43 $44 $25 $-1 $45 reversed single #
face $-1 $46 $47 $26 $-1 $48 reversed single #
face $-1 $49 $50 $27 $-1 $51 forward single #
face $-1 $52 $53 $28 $-1 $54 forward single #
face $-1 $55 $56 $29 $-1 $57 reversed single #
face $-1 $58 $59 $30 $-1 $60 forward single #
face $-1 $61 $62 $31 $-1 $63 forward single #
face $-1 $64 $65 $24 $-1 $66 reversed single #
loop $-1 $-1 $67 $32 #
plane-surface $-1 0 0 12.62251327088023 0 0 1 1 0 0 forward_v I I I I #
face $-1 $68 $69 $25 $-1 $70 reversed single #
loop $-1 $-1 $71 $33 #
plane-surface $-1 -48.02251358770922 0 7.8888492926328944 0 0 1 1 0 0 forward_v I I I I #
face $-1 $72 $73 $26 $-1 $74 reversed single #
loop $-1 $-1 $75 $34 #
plane-surface $-1 -31.144103852322733 -18.057362444799537 37.97008765990779 0 0.5877852598018023 0.80901698891910034 1 0 0 forward_v I I I I #
face $-1 $76 $77 $27 $-1 $78 forward single #
loop $-1 $79 $80 $35 #
cone-surface $-1 -35.132374558406084 22.246228747248558 7.0522128490581846 0 -0.5877852598018023 -0.80901698891910034 1.5 0 0 1 I I 0 1 1.5 forward I I I I #
face $-1 $81 $82 $28 $-1 $83 forward single #
loop $-1 $84 $85 $36 #
cone-surface $-1 -27.155833146239384 22.246228747248558 7.0522128490581846 0 -0.5877852598018023 -0.80901698891910034 1.5 0 0 1 I I 0 1 1.5 forward I I I I #
face $-1 $86 $87 $29 $-1 $88 reversed single #
loop $-1 $-1 $89 $37 #
plane-surface $-1 -21.838138871461588 -94.573220764430985 93.577473768460408 -1 0 0 0 -0.5877852598018023 0.80901698891910034 forward_v I I I I #
face $-1 $90 $91 $30 $-1 $92 forward single #
loop $-1 $93 $94 $38 #
cone-surface $-1 -35.132374558406084 -22.246228747248551 7.052212849058181 0 0.5877852598018023 -0.80901698891910034 1.5 0 0 1 I I 0 1 1.5 forward I I I I #
face $-1 $95 $96 $31 $-1 $97 forward single #
loop $-1 $98 $99 $39 #
cone-surface $-1 -27.155833146239384 -22.246228747248551 7.052212849058181 0 0.5877852598018023 -0.80901698891910034 1.5 0 0 1 I I 0 1 1.5 forward I I I I #
face $-1 $100 $101 $24 $-1 $102 reversed single #
loop $-1 $-1 $103 $40 #
plane-surface $-1 0 0 -12.62251327088023 0 0 1 1 0 0 forward_v I I I I #
coedge $-1 $104 $105 $106 $107 forward $41 $-1 #
face $-1 $108 $109 $25 $-1 $110 reversed single #
loop $-1 $-1 $111 $43 #
plane-surface $-1 -40.450068833183877 0 10.255681281756562 -1 0 0 0 0 1 forward_v I I I I #
coedge $-1 $112 $113 $114 $115 forward $44 $-1 #
face $-1 $116 $117 $26 $-1 $118 forward single #
loop $-1 $-1 $119 $46 #
plane-surface $-1 -21.838138871461588 47.298431620921903 127.92461925414264 -1 0 0 0 0.5877852598018023 0.80901698891910034 forward_v I I I I #
coedge $-1 $120 $121 $122 $123 reversed $47 $-1 #
face $-1 $-1 $124 $27 $-1 $125 forward single #
loop $-1 $126 $127 $49 #
cone-surface $-1 -35.132374558406084 21.027615204759293 5.3749352338741367 0 -0.5877852598018023 -0.80901698891910034 0.75 0 0 1 I I -0.70710678118654757 0.70710678118654757 0.75 forward I I I I #
loop $-1 $-1 $128 $35 #
coedge $-1 $80 $80 $129 $130 reversed $50 $-1 #
face $-1 $-1 $131 $28 $-1 $132 forward single #
loop $-1 $133 $134 $52 #
cone-surface $-1 -27.155833146239384 21.027615204759293 5.3749352338741367 0 -0.5877852598018023 -0.80901698891910034 0.75 0 0 1 I I -0.70710678118654757 0.70710678118654757 0.75 forward I I I I #
loop $-1 $-1 $135 $36 #
coedge $-1 $85 $85 $136 $137 reversed $53 $-1 #
face $-1 $138 $139 $29 $-1 $140 forward single #
loop $-1 $-1 $141 $55 #
plane-surface $-1 -31.144103852322733 -29.217426698709545 3.6229421742255568 0 -0.5877852598018023 0.80901698891910034 1 0 0 forward_v I I I I #
coedge $-1 $142 $143 $144 $145 reversed $56 $-1 #
face $-1 $-1 $146 $30 $-1 $147 forward single #
loop $-1 $148 $149 $58 #
cone-surface $-1 -35.132374558406084 -21.027615204759286 5.3749352338741332 0 0.5877852598018023 -0.80901698891910034 0.75 0 0 1 I I -0.70710678118654757 0.70710678118654757 0.75 forward I I I I #
loop $-1 $-1 $150 $38 #
coedge $-1 $94 $94 $151 $152 reversed $59 $-1 #
face $-1 $-1 $153 $31 $-1 $154 forward single #
loop $-1 $155 $156 $61 #
cone-surface $-1 -27.155833146239384 -21.027615204759286 5.3749352338741332 0 0.5877852598018023 -0.80901698891910034 0.75 0 0 1 I I -0.70710678118654757 0.70710678118654757 0.75 forward I I I I #
loop $-1 $-1 $157 $39 #
coedge $-1 $99 $99 $158 $159 reversed $62 $-1 #
face $-1 $160 $161 $24 $-1 $162 reversed single #
loop $-1 $-1 $163 $64 #
plane-surface $-1 0 -29.217426698709559 0 0 1 0 0 0 1 forward_v I I I I #
coedge $-1 $164 $165 $166 $167 forward $65 $-1 #
coedge $-1 $168 $67 $169 $170 forward $41 $-1 #
coedge $-1 $67 $168 $171 $172 forward $41 $-1 #
coedge $-1 $173 $174 $67 $107 reversed $175 $-1 #
edge $-1 $176 -29.217426698709559 $177 29.217426698709559 $106 $178 forward 7 unknown #
face $-1 $179 $180 $25 $-1 $181 reversed single #
loop $-1 $-1 $182 $68 #
plane-surface $-1 0 29.217426698709559 0 0 -1 0 0 0 -1 forward_v I I I I #
coedge $-1 $114 $183 $184 $185 reversed $69 $-1 #
coedge $-1 $186 $71 $187 $188 reversed $44 $-1 #
coedge $-1 $71 $186 $189 $190 reversed $44 $-1 #
coedge $-1 $191 $111 $71 $115 reversed $69 $-1 #
edge $-1 $192 -29.217426698709559 $193 29.217426698709559 $114 $194 forward 7 unknown #
face $-1 $195 $196 $26 $-1 $197 reversed single #
loop $-1 $-1 $122 $72 #
plane-surface $-1 0 0 12.62251327088023 0 0 1 1 0 0 forward_v I I I I #
coedge $-1 $198 $199 $200 $201 reversed $73 $-1 #
coedge $-1 $202 $75 $203 $204 reversed $47 $-1 #
coedge $-1 $75 $202 $198 $205 forward $47 $-1 #
coedge $-1 $200 $206 $75 $123 forward $117 $-1 #
edge $-1 $207 -24.878016907022513 $208 -6.2660869453002217 $122 $209 forward 7 unknown #
loop $-1 $-1 $129 $76 #
plane-surface $-1 -31.144103852322733 -18.057362444799537 37.97008765990779 0 0.5877852598018023 0.80901698891910034 1 0 0 forward_v I I I I #
loop $-1 $-1 $210 $49 #
coedge $-1 $127 $127 $128 $211 reversed $77 $-1 #
coedge $-1 $128 $128 $127 $211 forward $79 $-1 #
coedge $-1 $129 $129 $80 $130 forward $124 $-1 #
edge $-1 $212 -1.6440034286118562e-016 $212 6.2831853071796004 $129 $213 forward 7 unknown #
loop $-1 $-1 $136 $81 #
plane-surface $-1 -31.144103852322733 -18.057362444799537 37.97008765990779 0 0.5877852598018023 0.80901698891910034 1 0 0 forward_v I I I I #
loop $-1 $-1 $214 $52 #
coedge $-1 $134 $134 $135 $215 reversed $82 $-1 #
coedge $-1 $135 $135 $134 $215 forward $84 $-1 #
coedge $-1 $136 $136 $85 $137 forward $131 $-1 #
edge $-1 $216 -1.6440034286118562e-016 $216 6.2831853071796004 $136 $217 forward 7 unknown #
face $-1 $218 $219 $29 $-1 $220 forward single #
loop $-1 $-1 $221 $86 #
plane-surface $-1 -40.450068833183877 0 10.255681281756562 -1 0 0 0 0 1 forward_v I I I I #
coedge $-1 $222 $223 $224 $225 reversed $87 $-1 #
coedge $-1 $143 $89 $226 $227 reversed $56 $-1 #
coedge $-1 $89 $142 $222 $228 reversed $56 $-1 #
coedge $-1 $224 $229 $89 $145 forward $219 $-1 #
edge $-1 $230 18.069183683505933 $231 30.456030391152161 $144 $232 forward 7 unknown #
loop $-1 $-1 $151 $90 #
plane-surface $-1 -31.144103852322733 -29.217426698709545 3.6229421742255568 0 -0.5877852598018023 0.80901698891910034 1 0 0 forward_v I I I I #
loop $-1 $-1 $233 $58 #
coedge $-1 $149 $149 $150 $234 reversed $91 $-1 #
coedge $-1 $150 $150 $149 $234 forward $93 $-1 #
coedge $-1 $151 $151 $94 $152 forward $146 $-1 #
edge $-1 $235 -7.6952412240624221e-018 $235 6.2831853071796004 $151 $236 forward 7 unknown #
loop $-1 $-1 $158 $95 #
plane-surface $-1 -31.144103852322733 -29.217426698709545 3.6229421742255568 0 -0.5877852598018023 0.80901698891910034 1 0 0 forward_v I I I I #
loop $-1 $-1 $237 $61 #
coedge $-1 $156 $156 $157 $238 reversed $96 $-1 #
coedge $-1 $157 $157 $156 $238 forward $98 $-1 #
coedge $-1 $158 $158 $99 $159 forward $153 $-1 #
edge $-1 $239 -7.6952412240624221e-018 $239 6.2831853071796004 $158 $240 forward 7 unknown #
face $-1 $241 $242 $24 $-1 $243 reversed single #
loop $-1 $-1 $244 $100 #
plane-surface $-1 -55.594958342234563 0 0 1 0 0 0 0 -1 forward_v I I I I #
coedge $-1 $245 $171 $246 $247 forward $101 $-1 #
coedge $-1 $248 $103 $245 $249 forward $65 $-1 #
coedge $-1 $103 $248 $250 $251 forward $65 $-1 #
coedge $-1 $174 $173 $103 $167 reversed $175 $-1 #
edge $-1 $252 -29.217426698709559 $253 29.217426698709559 $166 $254 forward 7 unknown #
coedge $-1 $105 $104 $255 $256 forward $41 $-1 #
coedge $-1 $257 $258 $104 $170 reversed $242 $-1 #
edge $-1 $177 -55.594958342234563 $259 55.594958342234563 $169 $260 forward 7 unknown #
coedge $-1 $163 $261 $105 $172 reversed $101 $-1 #
edge $-1 $262 -55.594958342234563 $176 55.594958342234563 $171 $263 forward 7 unknown #
coedge $-1 $166 $106 $261 $264 forward $175 $-1 #
coedge $-1 $106 $166 $257 $265 reversed $175 $-1 #
loop $-1 $-1 $173 $241 #
vertex $-1 $107 $266 #
vertex $-1 $107 $267 #
straight-curve $-1 55.594958342234563 0 12.62251327088023 0 1 0 I I #
face $-1 $268 $269 $25 $-1 $270 forward single #
loop $-1 $-1 $271 $108 #
plane-surface $-1 -55.594958342234563 0 0 1 0 0 0 0 -1 forward_v I I I I #
coedge $-1 $189 $272 $191 $273 forward $109 $-1 #
coedge $-1 $111 $191 $274 $275 reversed $69 $-1 #
coedge $-1 $276 $187 $111 $185 forward $277 $-1 #
edge $-1 $193 2.7610086517546133 $278 7.4946726300019488 $184 $279 forward 7 unknown #
coedge $-1 $113 $112 $271 $280 reversed $44 $-1 #
coedge $-1 $184 $281 $112 $188 forward $277 $-1 #
edge $-1 $282 -31.583701548379953 $193 -16.438812039329267 $187 $283 forward 7 unknown #
coedge $-1 $284 $182 $113 $190 forward $109 $-1 #
edge $-1 $192 16.438812039329267 $285 31.583701548379953 $189 $286 forward 7 unknown #
coedge $-1 $183 $114 $182 $273 reversed $69 $-1 #
vertex $-1 $190 $287 #
vertex $-1 $188 $288 #
straight-curve $-1 -40.450068833183877 0 7.8888492926328944 0 -1 0 I I #
face $-1 $-1 $289 $26 $-1 $290 forward single #
loop $-1 $-1 $291 $116 #
plane-surface $-1 0 29.217426698709559 0 0 -1 0 0 0 -1 forward_v I I I I #
coedge $-1 $199 $119 $121 $205 reversed $73 $-1 #
coedge $-1 $119 $198 $291 $292 reversed $73 $-1 #
coedge $-1 $293 $122 $119 $201 forward $117 $-1 #
edge $-1 $208 -6.8186358193976204 $294 5.5682108882486077 $200 $295 forward 7 unknown #
coedge $-1 $121 $120 $296 $297 reversed $47 $-1 #
coedge $-1 $298 $299 $120 $204 forward $289 $-1 #
edge $-1 $300 -42.985437124345687 $207 -27.674452463571299 $203 $301 forward 7 unknown #
edge $-1 $302 -58.434853397419147 $208 -43.123868736644752 $198 $303 forward 7 unknown #
coedge $-1 $122 $293 $298 $304 forward $117 $-1 #
vertex $-1 $204 $305 #
vertex $-1 $123 $306 #
straight-curve $-1 -15.572051926161366 16.830579991063338 12.62251327088023 1 0 0 I I #
coedge $-1 $210 $210 $-1 $307 reversed $126 $-1 #
edge $-1 $308 0 $308 6.2831853071796004 $127 $309 forward 7 unknown #
vertex $-1 $130 $310 #
ellipse-curve $-1 -35.132374558406084 23.024003344886452 8.1227277225528827 0 0.5877852598018023 0.80901698891910034 1.5 0 0 1 I I #
coedge $-1 $214 $214 $-1 $311 reversed $133 $-1 #
edge $-1 $312 0 $312 6.2831853071796004 $134 $313 forward 7 unknown #
vertex $-1 $137 $314 #
ellipse-curve $-1 -27.155833146239384 23.024003344886452 8.1227277225528827 0 0.5877852598018023 0.80901698891910034 1.5 0 0 1 I I #
face $-1 $-1 $315 $29 $-1 $316 reversed single #
loop $-1 $-1 $224 $138 #
plane-surface $-1 0 0 12.62251327088023 0 0 1 1 0 0 forward_v I I I I #
coedge $-1 $317 $318 $223 $319 reversed $139 $-1 #
coedge $-1 $320 $141 $143 $228 forward $87 $-1 #
coedge $-1 $141 $320 $221 $319 forward $87 $-1 #
coedge $-1 $321 $144 $141 $225 forward $219 $-1 #
edge $-1 $231 6.2660869453002217 $322 24.878016907022513 $224 $323 forward 7 unknown #
coedge $-1 $324 $325 $142 $227 forward $315 $-1 #
edge $-1 $326 -43.165794710004654 $230 -34.16622361334997 $226 $327 forward 7 unknown #
edge $-1 $231 -15.31098466077437 $326 1.7500491998158137e-014 $143 $328 forward 7 unknown #
coedge $-1 $144 $321 $324 $329 forward $219 $-1 #
vertex $-1 $227 $330 #
vertex $-1 $145 $331 #
straight-curve $-1 -21.838138871461588 -47.286610382215493 12.622513270880233 0 1 0 I I #
coedge $-1 $233 $233 $-1 $332 reversed $148 $-1 #
edge $-1 $333 0 $333 6.2831853071796004 $149 $334 forward 7 unknown #
vertex $-1 $152 $335 #
ellipse-curve $-1 -35.132374558406084 -23.024003344886449 8.1227277225528844 0 -0.5877852598018023 0.80901698891910034 1.5 0 0 1 I I #
coedge $-1 $237 $237 $-1 $336 reversed $155 $-1 #
edge $-1 $337 0 $337 6.2831853071796004 $156 $338 forward 7 unknown #
vertex $-1 $159 $339 #
ellipse-curve $-1 -27.155833146239384 -23.024003344886449 8.1227277225528844 0 -0.5877852598018023 0.80901698891910034 1.5 0 0 1 I I #
face $-1 $-1 $175 $24 $-1 $340 reversed single #
loop $-1 $-1 $257 $160 #
plane-surface $-1 0 29.217426698709559 0 0 -1 0 0 0 -1 forward_v I I I I #
coedge $-1 $341 $255 $258 $342 forward $161 $-1 #
coedge $-1 $261 $163 $164 $249 reversed $101 $-1 #
coedge $-1 $255 $341 $163 $247 reversed $161 $-1 #
edge $-1 $262 -12.62251327088023 $343 12.62251327088023 $246 $344 forward 7 unknown #
coedge $-1 $165 $164 $341 $345 forward $65 $-1 #
edge $-1 $253 -55.594958342234563 $343 55.594958342234563 $245 $346 forward 7 unknown #
coedge $-1 $258 $257 $165 $251 reversed $242 $-1 #
edge $-1 $347 -55.594958342234563 $252 55.594958342234563 $250 $348 forward 7 unknown #
vertex $-1 $167 $349 #
vertex $-1 $264 $350 #
straight-curve $-1 55.594958342234563 0 -12.62251327088023 0 -1 0 I I #
coedge $-1 $244 $246 $168 $256 reversed $161 $-1 #
edge $-1 $259 -29.217426698709559 $262 29.217426698709559 $255 $351 forward 7 unknown #
coedge $-1 $250 $169 $174 $265 forward $242 $-1 #
coedge $-1 $169 $250 $244 $342 reversed $242 $-1 #
vertex $-1 $170 $352 #
straight-curve $-1 0 29.217426698709559 12.62251327088023 -1 0 0 I I #
coedge $-1 $171 $245 $173 $264 reversed $101 $-1 #
vertex $-1 $256 $353 #
straight-curve $-1 0 -29.217426698709559 12.62251327088023 1 0 0 I I #
edge $-1 $176 -12.62251327088023 $253 12.62251327088023 $173 $354 forward 7 unknown #
edge $-1 $177 -12.62251327088023 $252 12.62251327088023 $174 $355 forward 7 unknown #
point $-1 55.594958342234563 -29.217426698709559 12.62251327088023 #
point $-1 55.594958342234563 29.217426698709559 12.62251327088023 #
face $-1 $-1 $277 $25 $-1 $356 reversed single #
loop $-1 $-1 $274 $179 #
plane-surface $-1 0 0 12.62251327088023 0 0 1 1 0 0 forward_v I I I I #
coedge $-1 $357 $358 $186 $280 forward $180 $-1 #
coedge $-1 $182 $284 $359 $360 reversed $109 $-1 #
edge $-1 $361 -7.4946726300019488 $192 -2.7610086517546133 $182 $362 forward 7 unknown #
coedge $-1 $359 $363 $183 $275 forward $269 $-1 #
edge $-1 $278 -29.217426698709559 $361 29.217426698709559 $274 $364 forward 7 unknown #
coedge $-1 $281 $184 $363 $365 reversed $277 $-1 #
loop $-1 $-1 $184 $268 #
vertex $-1 $185 $366 #
straight-curve $-1 -40.450068833183877 -29.217426698709559 5.1278406408782811 0 0 1 I I #
edge $-1 $285 -29.217426698709559 $282 29.217426698709559 $271 $367 forward 7 unknown #
coedge $-1 $187 $276 $357 $368 forward $277 $-1 #
vertex $-1 $280 $369 #
straight-curve $-1 -24.01125679385461 -29.217426698709559 7.8888492926328944 1 0 0 I I #
coedge $-1 $272 $189 $358 $370 reversed $109 $-1 #
vertex $-1 $280 $371 #
straight-curve $-1 -24.01125679385461 29.217426698709559 7.8888492926328944 -1 0 0 I I #
point $-1 -40.450068833183877 29.217426698709559 7.8888492926328944 #
point $-1 -40.450068833183877 -29.217426698709559 7.8888492926328944 #
loop $-1 $-1 $203 $195 #
plane-surface $-1 -40.450068833183877 0 10.255681281756562 -1 0 0 0 0 1 forward_v I I I I #
coedge $-1 $296 $372 $199 $292 forward $196 $-1 #
edge $-1 $294 51.339796356191087 $302 60.339367452845771 $291 $373 forward 7 unknown #
coedge $-1 $206 $200 $372 $374 forward $117 $-1 #
vertex $-1 $374 $375 #
straight-curve $-1 -21.838138871461588 23.649215810460952 12.622513270880233 0 1 0 I I #
coedge $-1 $376 $291 $202 $297 forward $196 $-1 #
edge $-1 $302 6.2660869453002217 $300 24.878016907022513 $296 $377 forward 7 unknown #
coedge $-1 $299 $203 $206 $304 reversed $289 $-1 #
coedge $-1 $203 $298 $376 $378 reversed $289 $-1 #
vertex $-1 $378 $379 #
straight-curve $-1 -40.450068833183877 -5.5585222109999002 28.889148502053118 0 -0.80901698891910034 0.5877852598018023 I I #
vertex $-1 $297 $380 #
straight-curve $-1 -21.838138871461588 -18.057362444799537 37.97008765990779 0 -0.80901698891910034 0.5877852598018023 I I #
edge $-1 $381 -29.217426698709559 $207 -16.830579991063331 $206 $382 forward 7 unknown #
point $-1 -40.450068833183877 16.830579991063331 12.62251327088023 #
point $-1 -21.838138871461588 16.830579991063331 12.62251327088023 #
edge $-1 $383 1 $383 0 $210 $-1 forward 7 unknown #
vertex $-1 $211 $384 #
ellipse-curve $-1 -35.132374558406084 21.468454149610643 5.9816979755634616 0 0.5877852598018023 0.80901698891910034 1.5 0 0 1 I I #
point $-1 -33.632374558406084 23.02400334488647 8.1227277225529075 #
edge $-1 $385 1 $385 0 $214 $-1 forward 7 unknown #
vertex $-1 $215 $386 #
ellipse-curve $-1 -27.155833146239384 21.468454149610643 5.9816979755634616 0 0.5877852598018023 0.80901698891910034 1.5 0 0 1 I I #
point $-1 -25.655833146239384 23.02400334488647 8.1227277225529075 #
loop $-1 $-1 $226 $218 #
plane-surface $-1 0 -29.217426698709559 0 0 1 0 0 0 1 forward_v I I I I #
coedge $-1 $318 $221 $387 $388 reversed $139 $-1 #
coedge $-1 $221 $317 $321 $389 reversed $139 $-1 #
edge $-1 $390 -1.7500491998158137e-014 $322 15.31098466077437 $221 $391 forward 7 unknown #
coedge $-1 $223 $222 $325 $392 reversed $87 $-1 #
coedge $-1 $229 $224 $318 $389 forward $219 $-1 #
vertex $-1 $389 $393 #
straight-curve $-1 -15.572051926161366 -16.830579991063331 12.62251327088023 -1 0 0 I I #
coedge $-1 $387 $226 $229 $329 reversed $315 $-1 #
coedge $-1 $226 $387 $320 $392 forward $315 $-1 #
vertex $-1 $227 $394 #
straight-curve $-1 -21.838138871461588 -29.217426698709559 46.788736884230204 0 0 1 I I #
straight-curve $-1 -21.838138871461588 -29.217426698709545 3.6229421742255568 0 -0.80901698891910034 -0.5877852598018023 I I #
edge $-1 $395 -40.450068833183877 $230 -21.838138871461588 $324 $396 forward 7 unknown #
point $-1 -21.838138871461588 -29.217426698709559 12.62251327088023 #
point $-1 -21.838138871461588 -16.830579991063331 12.62251327088023 #
edge $-1 $397 1 $397 0 $233 $-1 forward 7 unknown #
vertex $-1 $234 $398 #
ellipse-curve $-1 -35.132374558406084 -21.468454149610636 5.9816979755634581 0 -0.5877852598018023 0.80901698891910034 1.5 0 0 1 I I #
point $-1 -33.632374558406084 -23.024003344886463 8.122727722552904 #
edge $-1 $399 1 $399 0 $237 $-1 forward 7 unknown #
vertex $-1 $238 $400 #
ellipse-curve $-1 -27.155833146239384 -21.468454149610636 5.9816979755634581 0 -0.5877852598018023 0.80901698891910034 1.5 0 0 1 I I #
point $-1 -25.655833146239384 -23.024003344886463 8.122727722552904 #
plane-surface $-1 55.594958342234563 0 0 -1 0 0 0 0 1 forward_v I I I I #
coedge $-1 $246 $244 $248 $345 reversed $161 $-1 #
edge $-1 $259 -12.62251327088023 $347 12.62251327088023 $258 $401 forward 7 unknown #
vertex $-1 $345 $402 #
straight-curve $-1 -55.594958342234563 -29.217426698709559 0 0 0 -1 I I #
edge $-1 $343 -29.217426698709559 $347 29.217426698709559 $341 $403 forward 7 unknown #
straight-curve $-1 0 -29.217426698709559 -12.62251327088023 -1 0 0 I I #
vertex $-1 $251 $404 #
straight-curve $-1 0 29.217426698709559 -12.62251327088023 1 0 0 I I #
point $-1 55.594958342234563 29.217426698709559 -12.62251327088023 #
point $-1 55.594958342234563 -29.217426698709559 -12.62251327088023 #
straight-curve $-1 -55.594958342234563 0 12.62251327088023 0 -1 0 I I #
point $-1 -55.594958342234563 29.217426698709559 12.62251327088023 #
point $-1 -55.594958342234563 -29.217426698709559 12.62251327088023 #
straight-curve $-1 55.594958342234563 -29.217426698709559 0 0 0 -1 I I #
straight-curve $-1 55.594958342234563 29.217426698709559 0 0 0 -1 I I #
plane-surface $-1 0 -29.217426698709559 0 0 1 0 0 0 1 forward_v I I I I #
coedge $-1 $405 $271 $281 $368 reversed $180 $-1 #
coedge $-1 $271 $405 $284 $370 forward $180 $-1 #
coedge $-1 $406 $274 $272 $360 forward $269 $-1 #
edge $-1 $361 40.450068833183877 $407 55.594958342234563 $272 $408 forward 7 unknown #
vertex $-1 $360 $409 #
straight-curve $-1 -40.450068833183877 29.217426698709559 5.1278406408782811 0 0 -1 I I #
coedge $-1 $274 $406 $276 $365 forward $269 $-1 #
straight-curve $-1 -40.450068833183877 0 12.62251327088023 0 1 0 I I #
edge $-1 $410 -55.594958342234563 $278 -40.450068833183877 $276 $411 forward 7 unknown #
point $-1 -40.450068833183877 -29.217426698709559 12.62251327088023 #
straight-curve $-1 -55.594958342234563 0 7.8888492926328944 0 -1 0 I I #
edge $-1 $410 -12.62251327088023 $282 -7.8888492926328944 $357 $412 forward 7 unknown #
point $-1 -55.594958342234563 -29.217426698709559 7.8888492926328944 #
edge $-1 $407 -12.62251327088023 $285 -7.8888492926328944 $284 $413 forward 7 unknown #
point $-1 -55.594958342234563 29.217426698709559 7.8888492926328944 #
coedge $-1 $291 $376 $293 $374 reversed $196 $-1 #
straight-curve $-1 -21.838138871461588 29.217426698709559 63.962309627071321 0 0 -1 I I #
edge $-1 $294 21.838138871461588 $381 40.450068833183877 $372 $414 forward 7 unknown #
point $-1 -21.838138871461588 29.217426698709559 12.62251327088023 #
coedge $-1 $372 $296 $299 $378 forward $196 $-1 #
straight-curve $-1 -15.572051926161366 29.217426698709556 3.6229421742255496 -1 0 0 I I #
edge $-1 $300 -60.339367452845771 $381 -51.339796356191087 $376 $415 forward 7 unknown #
point $-1 -40.450068833183877 29.217426698709559 3.6229421742255496 #
point $-1 -21.838138871461588 29.217426698709559 3.6229421742255496 #
vertex $-1 $304 $416 #
straight-curve $-1 -40.450068833183877 0 12.62251327088023 0 -1 0 I I #
vertex $-1 $307 $417 #
point $-1 -33.632374558406084 21.468454149610643 5.9816979755634616 #
vertex $-1 $311 $418 #
point $-1 -25.655833146239384 21.468454149610643 5.9816979755634616 #
coedge $-1 $325 $324 $317 $388 forward $315 $-1 #
edge $-1 $395 34.16622361334997 $390 43.165794710004654 $387 $419 forward 7 unknown #
edge $-1 $322 16.830579991063331 $395 29.217426698709559 $321 $420 forward 7 unknown #
vertex $-1 $388 $421 #
straight-curve $-1 -40.450068833183877 -29.217426698709545 3.6229421742255568 0 0.80901698891910034 0.5877852598018023 I I #
edge $-1 $390 -24.878016907022513 $326 -6.2660869453002217 $325 $422 forward 7 unknown #
point $-1 -40.450068833183877 -16.830579991063331 12.62251327088023 #
point $-1 -21.838138871461588 -29.217426698709559 3.6229421742255465 #
vertex $-1 $329 $423 #
straight-curve $-1 0 -29.217426698709559 12.62251327088023 1 0 0 I I #
vertex $-1 $332 $424 #
point $-1 -33.632374558406084 -21.468454149610636 5.9816979755634581 #
vertex $-1 $336 $425 #
point $-1 -25.655833146239384 -21.468454149610636 5.9816979755634581 #
straight-curve $-1 -55.594958342234563 29.217426698709559 0 0 0 -1 I I #
point $-1 -55.594958342234563 -29.217426698709559 -12.62251327088023 #
straight-curve $-1 -55.594958342234563 0 -12.62251327088023 0 1 0 I I #
point $-1 -55.594958342234563 29.217426698709559 -12.62251327088023 #
coedge $-1 $358 $357 $406 $426 reversed $180 $-1 #
coedge $-1 $363 $359 $405 $426 forward $269 $-1 #
vertex $-1 $360 $427 #
straight-curve $-1 0 29.217426698709559 12.62251327088023 -1 0 0 I I #
point $-1 -40.450068833183877 29.217426698709559 12.62251327088023 #
vertex $-1 $426 $428 #
straight-curve $-1 0 -29.217426698709559 12.62251327088023 1 0 0 I I #
straight-curve $-1 -55.594958342234563 -29.217426698709559 0 0 0 -1 I I #
straight-curve $-1 -55.594958342234563 29.217426698709559 0 0 0 -1 I I #
straight-curve $-1 0 29.217426698709559 12.62251327088023 -1 0 0 I I #
straight-curve $-1 -40.450068833183877 29.217426698709559 63.962309627071321 0 0 1 I I #
point $-1 -40.450068833183877 29.217426698709559 12.62251327088023 #
point $-1 -35.132374558406084 20.586776259907943 4.7681724921848119 #
point $-1 -27.155833146239384 20.586776259907943 4.7681724921848119 #
straight-curve $-1 -40.450068833183877 -29.217426698709559 46.788736884230204 0 0 -1 I I #
straight-curve $-1 -40.450068833183877 0 12.62251327088023 0 -1 0 I I #
point $-1 -40.450068833183877 -29.217426698709559 3.6229421742255465 #
straight-curve $-1 -15.572051926161366 -29.217426698709559 3.6229421742255465 1 0 0 I I #
point $-1 -40.450068833183877 -29.217426698709559 12.62251327088023 #
point $-1 -35.132374558406084 -20.586776259907936 4.7681724921848083 #
point $-1 -27.155833146239384 -20.586776259907936 4.7681724921848083 #
edge $-1 $407 -29.217426698709559 $410 29.217426698709559 $405 $429 forward 7 unknown #
point $-1 -55.594958342234563 29.217426698709559 12.62251327088023 #
point $-1 -55.594958342234563 -29.217426698709559 12.62251327088023 #
straight-curve $-1 -55.594958342234563 0 12.62251327088023 0 -1 0 I I #
End-of-ACIS-data 