500 0 11 0           
7 Unknown 11 ACIS 5.0 NT 24 Fri Mar 26 01:20:26 1999 
-1 9.9999999999999995e-007 1e-010 
body $-1 $11 $-1 $12 #
body $-1 $13 $-1 $14 #
body $-1 $15 $-1 $16 #
body $-1 $17 $-1 $18 #
body $-1 $19 $-1 $20 #
body $-1 $21 $-1 $22 #
body $-1 $23 $-1 $24 #
body $-1 $25 $-1 $26 #
body $-1 $27 $-1 $28 #
body $-1 $29 $-1 $30 #
body $-1 $31 $-1 $32 #
lump $-1 $-1 $33 $0 #
transform $-1 1 0 0 0 1 0 0 0 1 57.920468764305554 26.300103352659583 6.2239109905553818 1 rotate no_reflect no_shear #
lump $-1 $-1 $34 $1 #
transform $-1 1 0 0 0 1 0 0 0 1 57.920468764305554 26.300103352659583 6.2239109905553818 1 rotate no_reflect no_shear #
lump $-1 $-1 $35 $2 #
transform $-1 1 0 0 0 1 0 0 0 1 57.920468764305554 26.300103352659583 6.2239109905553818 1 rotate no_reflect no_shear #
lump $-1 $-1 $36 $3 #
transform $-1 1 0 0 0 1 0 0 0 1 57.920468764305554 26.300103352659583 6.2239109905553818 1 rotate no_reflect no_shear #
lump $-1 $-1 $37 $4 #
transform $-1 1 0 0 0 1 0 0 0 1 57.920468764305554 26.300103352659583 6.2239109905553818 1 rotate no_reflect no_shear #
lump $-1 $-1 $38 $5 #
transform $-1 1 0 0 0 1 0 0 0 1 57.920468764305554 26.300103352659583 6.2239109905553818 1 rotate no_reflect no_shear #
lump $-1 $-1 $39 $6 #
transform $-1 1 0 0 0 1 0 0 0 1 57.920468764305554 26.300103352659583 6.2239109905553818 1 rotate no_reflect no_shear #
lump $-1 $-1 $40 $7 #
transform $-1 1 0 0 0 1 0 0 0 1 57.920468764305554 26.300103352659583 6.2239109905553818 1 rotate no_reflect no_shear #
lump $-1 $-1 $41 $8 #
transform $-1 1 0 0 0 1 0 0 0 1 57.920468764305554 26.300103352659583 6.2239109905553818 1 rotate no_reflect no_shear #
lump $-1 $-1 $42 $9 #
transform $-1 1 0 0 0 1 0 0 0 1 57.920468764305554 26.300103352659583 6.2239109905553818 1 rotate no_reflect no_shear #
lump $-1 $-1 $43 $10 #
transform $-1 1 0 0 0 1 0 0 0 1 57.920468764305554 26.300103352659583 6.2239109905553818 1 rotate no_reflect no_shear #
shell $-1 $-1 $-1 $44 $-1 $11 #
shell $-1 $-1 $-1 $45 $-1 $13 #
shell $-1 $-1 $-1 $46 $-1 $15 #
shell $-1 $-1 $-1 $47 $-1 $17 #
shell $-1 $-1 $-1 $48 $-1 $19 #
shell $-1 $-1 $-1 $49 $-1 $21 #
shell $-1 $-1 $-1 $50 $-1 $23 #
shell $-1 $-1 $-1 $51 $-1 $25 #
shell $-1 $-1 $-1 $52 $-1 $27 #
shell $-1 $-1 $-1 $53 $-1 $29 #
shell $-1 $-1 $-1 $54 $-1 $31 #
face $-1 $55 $56 $33 $-1 $57 reversed single #
face $-1 $58 $59 $34 $-1 $60 forward single #
face $-1 $61 $62 $35 $-1 $63 reversed single #
face $-1 $64 $65 $36 $-1 $66 forward single #
face $-1 $67 $68 $37 $-1 $69 forward single #
face $-1 $70 $71 $38 $-1 $72 reversed single #
face $-1 $73 $74 $39 $-1 $75 forward single #
face $-1 $76 $77 $40 $-1 $78 forward single #
face $-1 $79 $80 $41 $-1 $81 reversed single #
face $-1 $82 $83 $42 $-1 $84 forward single #
face $-1 $85 $86 $43 $-1 $87 forward single #
face $-1 $88 $89 $33 $-1 $90 forward single #
loop $-1 $-1 $91 $44 #
plane-surface $-1 0 -26.300103352659583 0 0 1 0 0 0 1 forward_v I I I I #
face $-1 $92 $93 $34 $-1 $94 reversed single #
loop $-1 $-1 $95 $45 #
plane-surface $-1 0 -26.300103352659583 0 0 1 0 0 0 1 forward_v I I I I #
face $-1 $96 $97 $35 $-1 $98 reversed single #
loop $-1 $-1 $99 $46 #
plane-surface $-1 -122.69789980359462 -16.410858488553387 96.830487975345264 0 1 0 -0.55919291073839883 0 0.82903756765294845 forward_v I I I I #
face $-1 $100 $101 $36 $-1 $102 forward single #
loop $-1 $103 $104 $47 #
cone-surface $-1 -53.356624276423929 -13.803480318332555 2.7102153101790005 0.55919291073839883 0 -0.82903756765294845 0.82903756765294845 0 0.55919291073839883 1 I I 0 1 1 forward I I I I #
face $-1 $105 $106 $37 $-1 $107 forward single #
loop $-1 $108 $109 $48 #
cone-surface $-1 -53.356624276423929 -9.8924130630013067 2.7102153101790005 0.55919291073839883 0 -0.82903756765294845 0.82903756765294845 0 0.55919291073839883 1 I I 0 1 1 forward I I I I #
face $-1 $110 $111 $38 $-1 $112 reversed single #
loop $-1 $-1 $113 $49 #
plane-surface $-1 -122.69789980359462 6.2510747610891633 96.830487975345264 0 1 0 -0.55919291073839883 0 0.82903756765294845 forward_v I I I I #
face $-1 $114 $115 $39 $-1 $116 forward single #
loop $-1 $117 $118 $50 #
cone-surface $-1 -53.356624276423929 8.8584529313099978 2.7102153101790005 0.55919291073839883 0 -0.82903756765294845 0.82903756765294845 0 0.55919291073839883 1 I I 0 1 1 forward I I I I #
face $-1 $119 $120 $40 $-1 $121 forward single #
loop $-1 $122 $123 $51 #
cone-surface $-1 -53.356624276423929 12.769520186641245 2.7102153101790005 0.55919291073839883 0 -0.82903756765294845 0.82903756765294845 0 0.55919291073839883 1 I I 0 1 1 forward I I I I #
face $-1 $124 $125 $41 $-1 $126 reversed single #
loop $-1 $-1 $127 $52 #
plane-surface $-1 91.981359556972109 16.517637230622135 162.85689474831048 0 1 0 0.83867057594974714 0 0.54463902268945019 forward_v I I I I #
face $-1 $128 $129 $42 $-1 $130 forward single #
loop $-1 $131 $132 $53 #
cone-surface $-1 56.217656125173228 19.312627551204265 4.0740552045567684 -0.83867057594974714 0 -0.54463902268945019 0.2723195113447251 0 -0.41933528797487357 1 I I 0 1 0.5 forward I I I I #
face $-1 $133 $134 $43 $-1 $135 forward single #
loop $-1 $136 $137 $54 #
cone-surface $-1 56.217656125173228 23.50511303207746 4.0740552045567684 -0.83867057594974714 0 -0.54463902268945019 0.2723195113447251 0 -0.41933528797487357 1 I I 0 1 0.5 forward I I I I #
face $-1 $138 $139 $33 $-1 $140 reversed single #
loop $-1 $-1 $141 $55 #
plane-surface $-1 0 0 6.2239109905553818 0 0 1 1 0 0 forward_v I I I I #
coedge $-1 $142 $143 $144 $145 reversed $56 $-1 #
face $-1 $146 $147 $34 $-1 $148 reversed single #
loop $-1 $-1 $149 $58 #
plane-surface $-1 0 0 -6.2239109905553818 0 0 1 1 0 0 forward_v I I I I #
coedge $-1 $150 $151 $152 $153 forward $59 $-1 #
face $-1 $154 $155 $35 $-1 $156 reversed single #
loop $-1 $-1 $157 $61 #
plane-surface $-1 -57.920468764305554 -11.84794669066693 0.79399889198835183 -0.55919291073839883 0 0.82903756765294845 0.82903756765294845 0 0.55919291073839883 forward_v I I I I #
coedge $-1 $158 $159 $160 $161 reversed $62 $-1 #
face $-1 $-1 $162 $36 $-1 $163 forward single #
loop $-1 $164 $165 $64 #
cone-surface $-1 -52.538271126955301 -13.803480318332555 1.4969568952596655 0.55919291073839883 0 -0.82903756765294845 0.41451878382647422 0 0.27959645536919941 1 I I -0.70710678118654746 0.70710678118654746 0.5 forward I I I I #
loop $-1 $-1 $166 $47 #
coedge $-1 $104 $104 $167 $168 reversed $65 $-1 #
face $-1 $-1 $169 $37 $-1 $170 forward single #
loop $-1 $171 $172 $67 #
cone-surface $-1 -52.538271126955301 -9.8924130630013067 1.4969568952596655 0.55919291073839883 0 -0.82903756765294845 0.41451878382647422 0 0.27959645536919941 1 I I -0.70710678118654746 0.70710678118654746 0.5 forward I I I I #
loop $-1 $-1 $173 $48 #
coedge $-1 $109 $109 $174 $175 reversed $68 $-1 #
face $-1 $176 $177 $38 $-1 $178 reversed single #
loop $-1 $-1 $179 $70 #
plane-surface $-1 -57.920468764305554 10.813986558975621 0.79399889198835183 -0.55919291073839883 0 0.82903756765294845 0.82903756765294845 0 0.55919291073839883 forward_v I I I I #
coedge $-1 $180 $181 $182 $183 reversed $71 $-1 #
face $-1 $-1 $184 $39 $-1 $185 forward single #
loop $-1 $186 $187 $73 #
cone-surface $-1 -52.538271126955301 8.8584529313099978 1.4969568952596655 0.55919291073839883 0 -0.82903756765294845 0.41451878382647422 0 0.27959645536919941 1 I I -0.70710678118654746 0.70710678118654746 0.5 forward I I I I #
loop $-1 $-1 $188 $50 #
coedge $-1 $118 $118 $189 $190 reversed $74 $-1 #
face $-1 $-1 $191 $40 $-1 $192 forward single #
loop $-1 $193 $194 $76 #
cone-surface $-1 -52.538271126955301 12.769520186641245 1.4969568952596655 0.55919291073839883 0 -0.82903756765294845 0.41451878382647422 0 0.27959645536919941 1 I I -0.70710678118654746 0.70710678118654746 0.5 forward I I I I #
loop $-1 $-1 $195 $51 #
coedge $-1 $123 $123 $196 $197 reversed $77 $-1 #
face $-1 $198 $199 $41 $-1 $200 reversed single #
loop $-1 $-1 $201 $79 #
plane-surface $-1 -5.171026238706844 21.408870291640859 99.765399745298083 0.83867057594974714 0 0.54463902268945019 0.54463902268945019 0 -0.83867057594974714 forward_v I I I I #
coedge $-1 $202 $203 $204 $205 reversed $80 $-1 #
face $-1 $-1 $206 $42 $-1 $207 forward single #
loop $-1 $208 $209 $82 #
cone-surface $-1 55.477647782648646 19.312627551204265 3.5934881833539407 -0.83867057594974714 0 -0.54463902268945019 0.13615975567236255 0 -0.20966764398743679 1 I I -0.70710678118654746 0.70710678118654746 0.25 forward I I I I #
loop $-1 $-1 $210 $53 #
coedge $-1 $132 $132 $211 $212 reversed $83 $-1 #
face $-1 $-1 $213 $43 $-1 $214 forward single #
loop $-1 $215 $216 $85 #
cone-surface $-1 55.477647782648646 23.50511303207746 3.5934881833539407 -0.83867057594974714 0 -0.54463902268945019 0.13615975567236255 0 -0.20966764398743679 1 I I -0.70710678118654746 0.70710678118654746 0.25 forward I I I I #
loop $-1 $-1 $217 $54 #
coedge $-1 $137 $137 $218 $219 reversed $86 $-1 #
face $-1 $220 $221 $33 $-1 $222 reversed single #
loop $-1 $-1 $223 $88 #
plane-surface $-1 0 0 -6.2239109905553818 0 0 1 1 0 0 forward_v I I I I #
coedge $-1 $224 $225 $226 $227 forward $89 $-1 #
coedge $-1 $228 $91 $229 $230 reversed $56 $-1 #
coedge $-1 $91 $228 $231 $232 forward $56 $-1 #
coedge $-1 $233 $223 $91 $145 forward $139 $-1 #
edge $-1 $234 -57.920468764305554 $235 57.920468764305554 $91 $236 forward 7 unknown #
face $-1 $237 $238 $34 $-1 $239 reversed single #
loop $-1 $-1 $240 $92 #
plane-surface $-1 -46.97264678319479 -33.576443558693647 0 0 1 0 0 0 1 forward_v I I I I #
coedge $-1 $241 $242 $151 $243 forward $93 $-1 #
coedge $-1 $244 $95 $245 $246 reversed $59 $-1 #
coedge $-1 $95 $244 $149 $243 reversed $59 $-1 #
coedge $-1 $247 $248 $95 $153 reversed $238 $-1 #
edge $-1 $249 -6.2239109905553818 $250 6.2239109905553818 $152 $251 forward 7 unknown #
face $-1 $252 $253 $35 $-1 $254 reversed single #
loop $-1 $-1 $255 $96 #
plane-surface $-1 -122.69789980359462 -7.2850348927804722 96.830487975345264 0 -1 0 0.55919291073839883 0 -0.82903756765294845 forward_v I I I I #
coedge $-1 $256 $257 $258 $259 reversed $97 $-1 #
coedge $-1 $159 $99 $260 $261 reversed $62 $-1 #
coedge $-1 $99 $158 $256 $262 reversed $62 $-1 #
coedge $-1 $258 $263 $99 $161 forward $264 $-1 #
edge $-1 $265 3.4284811374917581 $266 11.47865672505614 $160 $267 forward 7 unknown #
loop $-1 $-1 $167 $100 #
plane-surface $-1 -57.920468764305554 -11.84794669066693 0.79399889198835183 -0.55919291073839883 0 0.82903756765294845 0.82903756765294845 0 0.55919291073839883 forward_v I I I I #
loop $-1 $-1 $268 $64 #
coedge $-1 $165 $165 $166 $269 reversed $101 $-1 #
coedge $-1 $166 $166 $165 $269 forward $103 $-1 #
coedge $-1 $167 $167 $104 $168 forward $162 $-1 #
edge $-1 $270 0 $270 6.2831853071796004 $167 $271 forward 7 unknown #
loop $-1 $-1 $174 $105 #
plane-surface $-1 -57.920468764305554 -11.84794669066693 0.79399889198835183 -0.55919291073839883 0 0.82903756765294845 0.82903756765294845 0 0.55919291073839883 forward_v I I I I #
loop $-1 $-1 $272 $67 #
coedge $-1 $172 $172 $173 $273 reversed $106 $-1 #
coedge $-1 $173 $173 $172 $273 forward $108 $-1 #
coedge $-1 $174 $174 $109 $175 forward $169 $-1 #
edge $-1 $274 0 $274 6.2831853071796004 $174 $275 forward 7 unknown #
face $-1 $276 $277 $38 $-1 $278 forward single #
loop $-1 $-1 $279 $110 #
plane-surface $-1 -122.69789980359462 15.376898356862078 96.830487975345264 0 -1 0 0.55919291073839883 0 -0.82903756765294845 forward_v I I I I #
coedge $-1 $280 $281 $282 $283 reversed $111 $-1 #
coedge $-1 $181 $113 $284 $285 reversed $71 $-1 #
coedge $-1 $113 $180 $280 $286 reversed $71 $-1 #
coedge $-1 $282 $287 $113 $183 forward $277 $-1 #
edge $-1 $288 3.4284811374917581 $289 11.47865672505614 $182 $290 forward 7 unknown #
loop $-1 $-1 $189 $114 #
plane-surface $-1 -57.920468764305554 10.813986558975621 0.79399889198835183 -0.55919291073839883 0 0.82903756765294845 0.82903756765294845 0 0.55919291073839883 forward_v I I I I #
loop $-1 $-1 $291 $73 #
coedge $-1 $187 $187 $188 $292 reversed $115 $-1 #
coedge $-1 $188 $188 $187 $292 forward $117 $-1 #
coedge $-1 $189 $189 $118 $190 forward $184 $-1 #
edge $-1 $293 0 $293 6.2831853071796004 $189 $294 forward 7 unknown #
loop $-1 $-1 $196 $119 #
plane-surface $-1 -57.920468764305554 10.813986558975621 0.79399889198835183 -0.55919291073839883 0 0.82903756765294845 0.82903756765294845 0 0.55919291073839883 forward_v I I I I #
loop $-1 $-1 $295 $76 #
coedge $-1 $194 $194 $195 $296 reversed $120 $-1 #
coedge $-1 $195 $195 $194 $296 forward $122 $-1 #
coedge $-1 $196 $196 $123 $197 forward $191 $-1 #
edge $-1 $297 0 $297 6.2831853071796004 $196 $298 forward 7 unknown #
face $-1 $299 $300 $41 $-1 $301 forward single #
loop $-1 $-1 $302 $124 #
plane-surface $-1 0 26.300103352659583 0 0 -1 0 0 0 -1 forward_v I I I I #
coedge $-1 $303 $304 $305 $306 reversed $125 $-1 #
coedge $-1 $203 $127 $307 $308 reversed $80 $-1 #
coedge $-1 $127 $202 $303 $309 reversed $80 $-1 #
coedge $-1 $305 $310 $127 $205 forward $311 $-1 #
edge $-1 $312 75.204536383599859 $313 78.815433424536096 $204 $314 forward 7 unknown #
loop $-1 $-1 $211 $128 #
plane-surface $-1 -5.171026238706844 21.408870291640859 99.765399745298083 0.83867057594974714 0 0.54463902268945019 0.54463902268945019 0 -0.83867057594974714 forward_v I I I I #
loop $-1 $-1 $315 $82 #
coedge $-1 $209 $209 $210 $316 reversed $129 $-1 #
coedge $-1 $210 $210 $209 $316 forward $131 $-1 #
coedge $-1 $211 $211 $132 $212 forward $206 $-1 #
edge $-1 $317 0 $317 6.2831853071796004 $211 $318 forward 7 unknown #
loop $-1 $-1 $218 $133 #
plane-surface $-1 -5.171026238706844 21.408870291640859 99.765399745298083 0.83867057594974714 0 0.54463902268945019 0.54463902268945019 0 -0.83867057594974714 forward_v I I I I #
loop $-1 $-1 $319 $85 #
coedge $-1 $216 $216 $217 $320 reversed $134 $-1 #
coedge $-1 $217 $217 $216 $320 forward $136 $-1 #
coedge $-1 $218 $218 $137 $219 forward $213 $-1 #
edge $-1 $321 0 $321 6.2831853071796004 $218 $322 forward 7 unknown #
face $-1 $323 $324 $33 $-1 $325 reversed single #
loop $-1 $-1 $326 $138 #
plane-surface $-1 -57.920468764305554 0 0 1 0 0 0 0 -1 forward_v I I I I #
coedge $-1 $144 $327 $328 $329 forward $139 $-1 #
coedge $-1 $330 $141 $331 $332 forward $89 $-1 #
coedge $-1 $141 $330 $228 $333 forward $89 $-1 #
coedge $-1 $229 $334 $141 $227 reversed $335 $-1 #
edge $-1 $336 -26.300103352659583 $337 26.300103352659583 $226 $338 forward 7 unknown #
coedge $-1 $143 $142 $225 $333 reversed $56 $-1 #
coedge $-1 $328 $226 $142 $230 forward $335 $-1 #
edge $-1 $336 -6.2239109905553818 $234 6.2239109905553818 $229 $339 forward 7 unknown #
coedge $-1 $340 $341 $143 $232 reversed $221 $-1 #
edge $-1 $342 -6.2239109905553818 $235 6.2239109905553818 $231 $343 forward 7 unknown #
coedge $-1 $327 $144 $341 $344 forward $139 $-1 #
vertex $-1 $230 $345 #
vertex $-1 $344 $346 #
straight-curve $-1 0 -26.300103352659583 -6.2239109905553818 -1 0 0 I I #
face $-1 $347 $348 $34 $-1 $349 reversed single #
loop $-1 $-1 $152 $146 #
plane-surface $-1 -48.47264678319479 -29.938273455676615 0 1 0 0 0 0 -1 forward_v I I I I #
coedge $-1 $350 $351 $352 $353 forward $147 $-1 #
coedge $-1 $354 $149 $355 $356 forward $93 $-1 #
coedge $-1 $149 $354 $247 $357 forward $93 $-1 #
edge $-1 $249 -48.47264678319479 $358 -45.47264678319479 $149 $359 forward 7 unknown #
coedge $-1 $151 $150 $360 $361 forward $59 $-1 #
coedge $-1 $362 $363 $150 $246 forward $364 $-1 #
edge $-1 $365 45.47264678319479 $250 48.47264678319479 $245 $366 forward 7 unknown #
coedge $-1 $352 $152 $242 $357 reversed $238 $-1 #
coedge $-1 $152 $352 $362 $367 reversed $238 $-1 #
vertex $-1 $243 $368 #
vertex $-1 $367 $369 #
straight-curve $-1 -48.47264678319479 -26.300103352659583 0 0 0 1 I I #
face $-1 $-1 $264 $35 $-1 $370 forward single #
loop $-1 $-1 $371 $154 #
plane-surface $-1 -57.920468764305554 0 0 1 0 0 0 0 -1 forward_v I I I I #
coedge $-1 $372 $373 $374 $375 reversed $155 $-1 #
coedge $-1 $376 $157 $159 $262 forward $97 $-1 #
coedge $-1 $157 $376 $372 $377 forward $97 $-1 #
coedge $-1 $374 $160 $157 $259 forward $264 $-1 #
edge $-1 $266 -10.486885143219922 $378 -1.3610615474470071 $258 $379 forward 7 unknown #
coedge $-1 $380 $381 $158 $261 forward $253 $-1 #
edge $-1 $382 -47.62124509568428 $265 -42.19133299711725 $260 $383 forward 7 unknown #
edge $-1 $266 -9.7102663397448659 $382 0 $159 $384 forward 7 unknown #
coedge $-1 $160 $374 $380 $385 forward $264 $-1 #
loop $-1 $-1 $374 $252 #
vertex $-1 $261 $386 #
vertex $-1 $161 $387 #
straight-curve $-1 -61.348949901797312 -16.410858488553387 6.2239109905553818 1 0 0 I I #
coedge $-1 $268 $268 $-1 $388 reversed $164 $-1 #
edge $-1 $389 0 $389 6.2831853071796004 $165 $390 forward 7 unknown #
vertex $-1 $168 $391 #
ellipse-curve $-1 -53.895380970523362 -13.803480318332555 3.5089549412718686 -0.55919291073839883 0 0.82903756765294845 0.82903756765294845 0 0.55919291073839883 1 I I #
coedge $-1 $272 $272 $-1 $392 reversed $171 $-1 #
edge $-1 $393 0 $393 6.2831853071796004 $172 $394 forward 7 unknown #
vertex $-1 $175 $395 #
ellipse-curve $-1 -53.895380970523362 -9.8924130630013067 3.5089549412718686 -0.55919291073839883 0 0.82903756765294845 0.82903756765294845 0 0.55919291073839883 1 I I #
face $-1 $-1 $396 $38 $-1 $397 reversed single #
loop $-1 $-1 $182 $176 #
plane-surface $-1 0 0 6.2239109905553818 0 0 1 1 0 0 forward_v I I I I #
coedge $-1 $398 $399 $400 $401 reversed $177 $-1 #
coedge $-1 $402 $179 $181 $286 forward $111 $-1 #
coedge $-1 $179 $402 $398 $403 forward $111 $-1 #
coedge $-1 $400 $182 $179 $283 forward $277 $-1 #
edge $-1 $289 0.84408148160135266 $404 9.9699050773742677 $282 $405 forward 7 unknown #
coedge $-1 $406 $407 $180 $285 forward $396 $-1 #
edge $-1 $408 -47.62124509568428 $288 -42.19133299711725 $284 $409 forward 7 unknown #
edge $-1 $289 -9.7102663397448659 $408 0 $181 $410 forward 7 unknown #
coedge $-1 $182 $400 $406 $411 forward $277 $-1 #
vertex $-1 $183 $412 #
vertex $-1 $183 $413 #
straight-curve $-1 -61.348949901797312 6.2510747610891633 6.2239109905553818 1 0 0 I I #
coedge $-1 $291 $291 $-1 $414 reversed $186 $-1 #
edge $-1 $415 0 $415 6.2831853071796004 $187 $416 forward 7 unknown #
vertex $-1 $190 $417 #
ellipse-curve $-1 -53.895380970523362 8.8584529313099978 3.5089549412718686 -0.55919291073839883 0 0.82903756765294845 0.82903756765294845 0 0.55919291073839883 1 I I #
coedge $-1 $295 $295 $-1 $418 reversed $193 $-1 #
edge $-1 $419 0 $419 6.2831853071796004 $194 $420 forward 7 unknown #
vertex $-1 $197 $421 #
ellipse-curve $-1 -53.895380970523362 12.769520186641245 3.5089549412718686 -0.55919291073839883 0 0.82903756765294845 0.82903756765294845 0 0.55919291073839883 1 I I #
face $-1 $-1 $311 $41 $-1 $422 reversed single #
loop $-1 $-1 $423 $198 #
plane-surface $-1 0 0 6.2239109905553818 0 0 1 1 0 0 forward_v I I I I #
coedge $-1 $424 $425 $304 $426 forward $199 $-1 #
coedge $-1 $427 $201 $203 $309 forward $125 $-1 #
coedge $-1 $201 $427 $302 $426 reversed $125 $-1 #
coedge $-1 $428 $204 $201 $306 forward $311 $-1 #
edge $-1 $313 5.8132020848017056 $429 15.595668206839154 $305 $430 forward 7 unknown #
coedge $-1 $431 $423 $202 $308 forward $300 $-1 #
edge $-1 $432 9.5848451046291601 $312 11.929788985819499 $307 $433 forward 7 unknown #
edge $-1 $313 -115.84093752861108 $432 -111.53543648388074 $203 $434 forward 7 unknown #
coedge $-1 $204 $428 $431 $435 reversed $311 $-1 #
loop $-1 $-1 $305 $299 #
vertex $-1 $435 $436 #
vertex $-1 $205 $437 #
straight-curve $-1 57.920468764305554 16.517637230622135 81.42844737415524 0 0 -1 I I #
coedge $-1 $315 $315 $-1 $438 reversed $208 $-1 #
edge $-1 $439 0 $439 6.2831853071796004 $209 $440 forward 7 unknown #
vertex $-1 $212 $441 #
ellipse-curve $-1 56.747996823710388 19.312627551204265 4.4184624700872428 0.83867057594974714 0 0.54463902268945019 0.2723195113447251 0 -0.41933528797487357 1 I I #
coedge $-1 $319 $319 $-1 $442 reversed $215 $-1 #
edge $-1 $443 0 $443 6.2831853071796004 $216 $444 forward 7 unknown #
vertex $-1 $219 $445 #
ellipse-curve $-1 56.747996823710388 23.50511303207746 4.4184624700872428 0.83867057594974714 0 0.54463902268945019 0.2723195113447251 0 -0.41933528797487357 1 I I #
face $-1 $-1 $335 $33 $-1 $446 reversed single #
loop $-1 $-1 $447 $220 #
plane-surface $-1 0 26.300103352659583 0 0 -1 0 0 0 -1 forward_v I I I I #
coedge $-1 $341 $340 $448 $449 forward $221 $-1 #
coedge $-1 $223 $233 $450 $451 forward $139 $-1 #
coedge $-1 $334 $229 $223 $329 reversed $335 $-1 #
edge $-1 $452 -26.300103352659583 $234 26.300103352659583 $328 $453 forward 7 unknown #
coedge $-1 $225 $224 $340 $454 forward $89 $-1 #
coedge $-1 $447 $448 $224 $332 reversed $324 $-1 #
edge $-1 $337 -57.920468764305554 $455 57.920468764305554 $331 $456 forward 7 unknown #
edge $-1 $342 -57.920468764305554 $336 57.920468764305554 $228 $457 forward 7 unknown #
coedge $-1 $226 $328 $447 $458 reversed $335 $-1 #
loop $-1 $-1 $229 $323 #
vertex $-1 $227 $459 #
vertex $-1 $227 $460 #
straight-curve $-1 57.920468764305554 0 6.2239109905553818 0 1 0 I I #
straight-curve $-1 57.920468764305554 -26.300103352659583 0 0 0 -1 I I #
coedge $-1 $326 $231 $330 $454 reversed $221 $-1 #
coedge $-1 $231 $326 $233 $344 reversed $221 $-1 #
vertex $-1 $454 $461 #
straight-curve $-1 -57.920468764305554 -26.300103352659583 0 0 0 -1 I I #
edge $-1 $235 -26.300103352659583 $462 26.300103352659583 $341 $463 forward 7 unknown #
point $-1 57.920468764305554 -26.300103352659583 -6.2239109905553818 #
point $-1 -57.920468764305554 -26.300103352659583 -6.2239109905553818 #
face $-1 $-1 $364 $34 $-1 $464 forward single #
loop $-1 $-1 $465 $237 #
plane-surface $-1 -45.47264678319479 -29.938273455676615 0 -1 0 0 0 0 1 forward_v I I I I #
coedge $-1 $466 $240 $354 $467 reversed $147 $-1 #
coedge $-1 $240 $466 $468 $469 reversed $147 $-1 #
coedge $-1 $248 $247 $240 $353 reversed $238 $-1 #
edge $-1 $470 -6.2239109905553818 $471 6.2239109905553818 $352 $472 forward 7 unknown #
coedge $-1 $242 $241 $350 $467 forward $93 $-1 #
coedge $-1 $360 $465 $241 $356 reversed $348 $-1 #
edge $-1 $358 -3.6381701030170319 $473 3.6381701030170319 $355 $474 forward 7 unknown #
edge $-1 $471 -3.6381701030170319 $249 3.6381701030170319 $247 $475 forward 7 unknown #
vertex $-1 $356 $476 #
straight-curve $-1 0 -26.300103352659583 -6.2239109905553818 1 0 0 I I #
coedge $-1 $477 $355 $244 $361 reversed $348 $-1 #
edge $-1 $365 -6.2239109905553818 $358 6.2239109905553818 $360 $478 forward 7 unknown #
coedge $-1 $468 $245 $248 $367 forward $364 $-1 #
coedge $-1 $245 $468 $477 $479 forward $364 $-1 #
loop $-1 $-1 $245 $347 #
vertex $-1 $246 $480 #
straight-curve $-1 0 -26.300103352659583 6.2239109905553818 -1 0 0 I I #
edge $-1 $250 -3.6381701030170319 $470 3.6381701030170319 $248 $481 forward 7 unknown #
point $-1 -48.47264678319479 -26.300103352659583 -6.2239109905553818 #
point $-1 -48.47264678319479 -26.300103352659583 6.2239109905553818 #
plane-surface $-1 0 0 6.2239109905553818 0 0 1 1 0 0 forward_v I I I I #
coedge $-1 $381 $380 $373 $482 forward $253 $-1 #
coedge $-1 $373 $255 $257 $377 reversed $155 $-1 #
coedge $-1 $255 $372 $371 $482 reversed $155 $-1 #
coedge $-1 $263 $258 $255 $375 forward $264 $-1 #
edge $-1 $378 -11.47865672505614 $483 -3.4284811374917581 $374 $484 forward 7 unknown #
coedge $-1 $257 $256 $381 $485 reversed $97 $-1 #
edge $-1 $486 0 $378 9.7102663397448659 $372 $487 forward 7 unknown #
vertex $-1 $259 $488 #
straight-curve $-1 -49.870293176741171 -5.9239733453334651 6.2239109905553818 0 1 0 I I #
coedge $-1 $371 $260 $263 $385 reversed $253 $-1 #
coedge $-1 $260 $371 $376 $485 forward $253 $-1 #
vertex $-1 $261 $489 #
straight-curve $-1 -57.920468764305554 -16.410858488553387 48.415243987672632 0 0 1 I I #
straight-curve $-1 -57.920468764305554 -16.410858488553387 0.79399889198835183 -0.82903756765294845 0 -0.55919291073839883 I I #
edge $-1 $483 7.2850348927804722 $265 16.410858488553387 $380 $490 forward 7 unknown #
point $-1 -57.920468764305554 -16.410858488553387 6.2239109905553818 #
point $-1 -49.870293176741171 -16.410858488553387 6.2239109905553809 #
edge $-1 $491 1 $491 0 $268 $-1 forward 7 unknown #
vertex $-1 $269 $492 #
ellipse-curve $-1 -52.817867582324503 -13.803480318332555 1.9114756790861396 -0.55919291073839883 0 0.82903756765294845 0.82903756765294845 0 0.55919291073839883 1 I I #
point $-1 -53.066343402870402 -13.803480318332555 4.0681478520102594 #
edge $-1 $493 1 $493 0 $272 $-1 forward 7 unknown #
vertex $-1 $273 $494 #
ellipse-curve $-1 -52.817867582324503 -9.8924130630013067 1.9114756790861396 -0.55919291073839883 0 0.82903756765294845 0.82903756765294845 0 0.55919291073839883 1 I I #
point $-1 -53.066343402870402 -9.8924130630013067 4.0681478520102594 #
loop $-1 $-1 $284 $276 #
plane-surface $-1 -57.920468764305554 0 0 1 0 0 0 0 -1 forward_v I I I I #
coedge $-1 $399 $279 $281 $403 reversed $177 $-1 #
coedge $-1 $279 $398 $495 $496 reversed $177 $-1 #
coedge $-1 $287 $282 $279 $401 forward $277 $-1 #
edge $-1 $404 -11.47865672505614 $497 -3.4284811374917581 $400 $498 forward 7 unknown #
coedge $-1 $281 $280 $407 $499 reversed $111 $-1 #
edge $-1 $500 0 $404 9.7102663397448659 $398 $501 forward 7 unknown #
vertex $-1 $283 $502 #
straight-curve $-1 -49.870293176741171 5.4069932794878106 6.2239109905553818 0 1 0 I I #
coedge $-1 $495 $284 $287 $411 reversed $396 $-1 #
coedge $-1 $284 $495 $402 $499 forward $396 $-1 #
vertex $-1 $285 $503 #
straight-curve $-1 -57.920468764305554 6.2510747610891633 48.415243987672632 0 0 1 I I #
straight-curve $-1 -57.920468764305554 6.2510747610891633 0.79399889198835183 -0.82903756765294845 0 -0.55919291073839883 I I #
edge $-1 $497 -15.376898356862078 $288 -6.2510747610891633 $406 $504 forward 7 unknown #
point $-1 -57.920468764305554 6.2510747610891633 6.2239109905553818 #
point $-1 -49.870293176741171 6.2510747610891633 6.2239109905553809 #
edge $-1 $505 1 $505 0 $291 $-1 forward 7 unknown #
vertex $-1 $292 $506 #
ellipse-curve $-1 -52.817867582324503 8.8584529313099978 1.9114756790861396 -0.55919291073839883 0 0.82903756765294845 0.82903756765294845 0 0.55919291073839883 1 I I #
point $-1 -53.066343402870402 8.8584529313099978 4.0681478520102594 #
edge $-1 $507 1 $507 0 $295 $-1 forward 7 unknown #
vertex $-1 $296 $508 #
ellipse-curve $-1 -52.817867582324503 12.769520186641245 1.9114756790861396 -0.55919291073839883 0 0.82903756765294845 0.82903756765294845 0 0.55919291073839883 1 I I #
point $-1 -53.066343402870402 12.769520186641245 4.0681478520102594 #
plane-surface $-1 57.920468764305554 0 0 -1 0 0 0 0 1 forward_v I I I I #
coedge $-1 $307 $509 $427 $510 forward $300 $-1 #
coedge $-1 $425 $302 $509 $511 reversed $199 $-1 #
coedge $-1 $302 $424 $428 $512 forward $199 $-1 #
edge $-1 $429 -72.597613558012739 $513 -68.29211251328239 $302 $514 forward 7 unknown #
coedge $-1 $304 $303 $423 $510 reversed $125 $-1 #
coedge $-1 $310 $305 $425 $512 reversed $311 $-1 #
vertex $-1 $306 $515 #
straight-curve $-1 57.920468764305554 10.70443514582043 2.6130139496191376 0 1 0 I I #
coedge $-1 $509 $307 $310 $435 forward $300 $-1 #
vertex $-1 $308 $516 #
straight-curve $-1 45.990679778486054 16.517637230622135 6.2239109905553818 1 0 0 I I #
straight-curve $-1 -5.171026238706844 16.517637230622135 99.765399745298083 -0.54463902268945019 0 0.83867057594974714 I I #
edge $-1 $312 16.517637230622135 $517 26.300103352659583 $310 $518 forward 7 unknown #
point $-1 57.920468764305554 16.517637230622135 6.2239109905553818 #
point $-1 57.920468764305554 16.517637230622135 2.6130139496191447 #
edge $-1 $519 1 $519 0 $315 $-1 forward 7 unknown #
vertex $-1 $316 $520 #
ellipse-curve $-1 55.687315426636083 19.312627551204265 3.7296479390263033 0.83867057594974714 0 0.54463902268945019 0.2723195113447251 0 -0.41933528797487357 1 I I #
point $-1 57.020316335055107 19.312627551204265 3.99912718211236 #
edge $-1 $521 1 $521 0 $319 $-1 forward 7 unknown #
vertex $-1 $320 $522 #
ellipse-curve $-1 55.687315426636083 23.50511303207746 3.7296479390263033 0.83867057594974714 0 0.54463902268945019 0.2723195113447251 0 -0.41933528797487357 1 I I #
point $-1 57.020316335055107 23.50511303207746 3.99912718211236 #
plane-surface $-1 57.920468764305554 0 0 -1 0 0 0 0 1 forward_v I I I I #
coedge $-1 $450 $331 $334 $458 forward $324 $-1 #
coedge $-1 $331 $450 $326 $449 reversed $324 $-1 #
edge $-1 $455 -6.2239109905553818 $462 6.2239109905553818 $448 $523 forward 7 unknown #
coedge $-1 $448 $447 $327 $451 reversed $324 $-1 #
edge $-1 $462 -57.920468764305554 $452 57.920468764305554 $450 $524 forward 7 unknown #
vertex $-1 $329 $525 #
straight-curve $-1 57.920468764305554 0 -6.2239109905553818 0 -1 0 I I #
edge $-1 $455 -26.300103352659583 $342 26.300103352659583 $340 $526 forward 7 unknown #
vertex $-1 $332 $527 #
straight-curve $-1 0 26.300103352659583 6.2239109905553818 -1 0 0 I I #
straight-curve $-1 0 -26.300103352659583 6.2239109905553818 1 0 0 I I #
edge $-1 $337 -6.2239109905553818 $452 6.2239109905553818 $334 $528 forward 7 unknown #
point $-1 57.920468764305554 -26.300103352659583 6.2239109905553818 #
point $-1 57.920468764305554 26.300103352659583 6.2239109905553818 #
point $-1 -57.920468764305554 -26.300103352659583 6.2239109905553818 #
vertex $-1 $451 $529 #
straight-curve $-1 -57.920468764305554 0 -6.2239109905553818 0 1 0 I I #
plane-surface $-1 0 0 6.2239109905553818 0 0 1 1 0 0 forward_v I I I I #
coedge $-1 $355 $477 $466 $530 forward $348 $-1 #
coedge $-1 $351 $350 $465 $530 reversed $147 $-1 #
edge $-1 $473 -1.5 $471 1.5 $350 $531 forward 7 unknown #
coedge $-1 $363 $362 $351 $469 forward $364 $-1 #
edge $-1 $470 -1.5 $532 1.5 $351 $533 forward 7 unknown #
vertex $-1 $367 $534 #
vertex $-1 $357 $535 #
straight-curve $-1 -48.47264678319479 -33.576443558693647 0 0 0 -1 I I #
vertex $-1 $530 $536 #
straight-curve $-1 -45.47264678319479 -29.938273455676615 -6.2239109905553818 0 -1 0 I I #
straight-curve $-1 -48.47264678319479 -29.938273455676615 -6.2239109905553818 0 1 0 I I #
point $-1 -45.47264678319479 -26.300103352659583 -6.2239109905553818 #
coedge $-1 $465 $360 $363 $479 reversed $348 $-1 #
straight-curve $-1 -45.47264678319479 -26.300103352659583 0 0 0 -1 I I #
edge $-1 $532 -3.6381701030170319 $365 3.6381701030170319 $477 $537 forward 7 unknown #
point $-1 -45.47264678319479 -26.300103352659583 6.2239109905553818 #
straight-curve $-1 -48.47264678319479 -29.938273455676615 6.2239109905553818 0 -1 0 I I #
edge $-1 $483 42.19133299711725 $486 47.62124509568428 $371 $538 forward 7 unknown #
vertex $-1 $385 $539 #
straight-curve $-1 -61.348949901797312 -7.2850348927804722 6.2239109905553818 -1 0 0 I I #
edge $-1 $486 1.3610615474470071 $382 10.486885143219922 $381 $540 forward 7 unknown #
vertex $-1 $485 $541 #
straight-curve $-1 -57.920468764305554 -7.2850348927804722 0.79399889198835183 0.82903756765294845 0 0.55919291073839883 I I #
point $-1 -49.870293176741171 -7.2850348927804722 6.2239109905553809 #
point $-1 -57.920468764305554 -16.410858488553387 0.79399889198835183 #
straight-curve $-1 -57.920468764305554 0 6.2239109905553818 0 -1 0 I I #
vertex $-1 $388 $542 #
point $-1 -51.988830014671549 -13.803480318332555 2.4706685898245384 #
vertex $-1 $392 $543 #
point $-1 -51.988830014671549 -9.8924130630013067 2.4706685898245384 #
coedge $-1 $407 $406 $399 $496 forward $396 $-1 #
edge $-1 $497 42.19133299711725 $500 47.62124509568428 $495 $544 forward 7 unknown #
vertex $-1 $411 $545 #
straight-curve $-1 -61.348949901797312 15.376898356862078 6.2239109905553818 -1 0 0 I I #
edge $-1 $500 -9.9699050773742677 $408 -0.84408148160135266 $407 $546 forward 7 unknown #
vertex $-1 $499 $547 #
straight-curve $-1 -57.920468764305554 15.376898356862078 0.79399889198835183 0.82903756765294845 0 0.55919291073839883 I I #
point $-1 -49.870293176741171 15.376898356862078 6.2239109905553809 #
point $-1 -57.920468764305554 6.2510747610891633 0.79399889198835183 #
straight-curve $-1 -57.920468764305554 0 6.2239109905553818 0 -1 0 I I #
vertex $-1 $414 $548 #
point $-1 -51.988830014671549 8.8584529313099978 2.4706685898245384 #
vertex $-1 $418 $549 #
point $-1 -51.988830014671549 12.769520186641245 2.4706685898245384 #
coedge $-1 $423 $431 $424 $511 forward $300 $-1 #
edge $-1 $513 -15.595668206839154 $432 -5.8132020848017056 $423 $550 forward 7 unknown #
edge $-1 $517 -57.920468764305554 $513 -55.575524883115214 $424 $551 forward 7 unknown #
edge $-1 $517 -6.2239109905553818 $429 -2.6130139496191469 $428 $552 forward 7 unknown #
vertex $-1 $510 $553 #
straight-curve $-1 18.380975466483115 26.300103352659583 63.498496324894859 -0.54463902268945019 0 0.83867057594974714 I I #
point $-1 57.920468764305554 26.300103352659583 2.6130139496191469 #
point $-1 55.575524883115214 16.517637230622135 6.2239109905553818 #
vertex $-1 $435 $554 #
straight-curve $-1 57.920468764305554 0 6.2239109905553818 0 1 0 I I #
vertex $-1 $438 $555 #
point $-1 55.959634937980809 19.312627551204265 3.3103126510514298 #
vertex $-1 $442 $556 #
point $-1 55.959634937980809 23.50511303207746 3.3103126510514298 #
straight-curve $-1 -57.920468764305554 26.300103352659583 0 0 0 -1 I I #
straight-curve $-1 0 26.300103352659583 -6.2239109905553818 1 0 0 I I #
point $-1 57.920468764305554 26.300103352659583 -6.2239109905553818 #
straight-curve $-1 -57.920468764305554 0 6.2239109905553818 0 -1 0 I I #
point $-1 -57.920468764305554 26.300103352659583 6.2239109905553818 #
straight-curve $-1 57.920468764305554 26.300103352659583 0 0 0 -1 I I #
point $-1 -57.920468764305554 26.300103352659583 -6.2239109905553818 #
edge $-1 $532 -6.2239109905553818 $473 6.2239109905553818 $465 $557 forward 7 unknown #
straight-curve $-1 -46.97264678319479 -33.576443558693647 -6.2239109905553818 -1 0 0 I I #
vertex $-1 $479 $558 #
straight-curve $-1 -46.97264678319479 -33.576443558693647 6.2239109905553818 1 0 0 I I #
point $-1 -48.47264678319479 -33.576443558693647 6.2239109905553818 #
point $-1 -48.47264678319479 -33.576443558693647 -6.2239109905553818 #
point $-1 -45.47264678319479 -33.576443558693647 -6.2239109905553818 #
straight-curve $-1 -45.47264678319479 -29.938273455676615 6.2239109905553818 0 1 0 I I #
straight-curve $-1 -57.920468764305554 -7.2850348927804722 48.415243987672632 0 0 -1 I I #
point $-1 -57.920468764305554 -7.2850348927804722 6.2239109905553818 #
straight-curve $-1 -57.920468764305554 -5.9239733453334651 0.79399889198835194 0 -1 0 I I #
point $-1 -57.920468764305554 -7.2850348927804722 0.79399889198835183 #
point $-1 -52.2586746715861 -13.803480318332555 1.0824381114331914 #
point $-1 -52.2586746715861 -9.8924130630013067 1.0824381114331914 #
straight-curve $-1 -57.920468764305554 15.376898356862078 48.415243987672632 0 0 -1 I I #
point $-1 -57.920468764305554 15.376898356862078 6.2239109905553818 #
straight-curve $-1 -57.920468764305554 5.4069932794878106 0.79399889198835194 0 -1 0 I I #
point $-1 -57.920468764305554 15.376898356862078 0.79399889198835183 #
point $-1 -52.2586746715861 8.8584529313099978 1.0824381114331914 #
point $-1 -52.2586746715861 12.769520186641245 1.0824381114331914 #
straight-curve $-1 55.575524883115207 10.70443514582043 6.2239109905553818 0 -1 0 I I #
straight-curve $-1 0 26.300103352659583 6.2239109905553818 -1 0 0 I I #
straight-curve $-1 57.920468764305554 26.300103352659583 0 0 0 -1 I I #
point $-1 55.575524883115214 26.300103352659583 6.2239109905553818 #
point $-1 57.920468764305554 26.300103352659583 6.2239109905553818 #
point $-1 55.267980138661208 19.312627551204265 3.4573284276815781 #
point $-1 55.267980138661208 23.50511303207746 3.4573284276815781 #
straight-curve $-1 -45.47264678319479 -33.576443558693647 0 0 0 -1 I I #
point $-1 -45.47264678319479 -33.576443558693647 6.2239109905553818 #
End-of-ACIS-data 