500 0 11 0           
7 Unknown 11 ACIS 5.0 NT 24 Thu Mar 25 19:19:37 1999 
-1 9.9999999999999995e-007 1e-010 
body $-1 $11 $-1 $12 #
body $-1 $13 $-1 $14 #
body $-1 $15 $-1 $16 #
body $-1 $17 $-1 $18 #
body $-1 $19 $-1 $20 #
body $-1 $21 $-1 $22 #
body $-1 $23 $-1 $24 #
body $-1 $25 $-1 $26 #
body $-1 $27 $-1 $28 #
body $-1 $29 $-1 $30 #
body $-1 $31 $-1 $32 #
lump $-1 $-1 $33 $0 #
transform $-1 1 0 0 0 1 0 0 0 1 42.270577105014191 23.225790282866157 8.8763672766587209 1 rotate no_reflect no_shear #
lump $-1 $-1 $34 $1 #
transform $-1 1 0 0 0 1 0 0 0 1 42.270577105014191 23.225790282866157 8.8763672766587209 1 rotate no_reflect no_shear #
lump $-1 $-1 $35 $2 #
transform $-1 1 0 0 0 1 0 0 0 1 42.270577105014191 23.225790282866157 8.8763672766587209 1 rotate no_reflect no_shear #
lump $-1 $-1 $36 $3 #
transform $-1 1 0 0 0 1 0 0 0 1 42.270577105014191 23.225790282866157 8.8763672766587209 1 rotate no_reflect no_shear #
lump $-1 $-1 $37 $4 #
transform $-1 1 0 0 0 1 0 0 0 1 42.270577105014191 23.225790282866157 8.8763672766587209 1 rotate no_reflect no_shear #
lump $-1 $-1 $38 $5 #
transform $-1 1 0 0 0 1 0 0 0 1 42.270577105014191 23.225790282866157 8.8763672766587209 1 rotate no_reflect no_shear #
lump $-1 $-1 $39 $6 #
transform $-1 1 0 0 0 1 0 0 0 1 42.270577105014191 23.225790282866157 8.8763672766587209 1 rotate no_reflect no_shear #
lump $-1 $-1 $40 $7 #
transform $-1 1 0 0 0 1 0 0 0 1 42.270577105014191 23.225790282866157 8.8763672766587209 1 rotate no_reflect no_shear #
lump $-1 $-1 $41 $8 #
transform $-1 1 0 0 0 1 0 0 0 1 42.270577105014191 23.225790282866157 8.8763672766587209 1 rotate no_reflect no_shear #
lump $-1 $-1 $42 $9 #
transform $-1 1 0 0 0 1 0 0 0 1 42.270577105014191 23.225790282866157 8.8763672766587209 1 rotate no_reflect no_shear #
lump $-1 $-1 $43 $10 #
transform $-1 1 0 0 0 1 0 0 0 1 42.270577105014191 23.225790282866157 8.8763672766587209 1 rotate no_reflect no_shear #
shell $-1 $-1 $-1 $44 $-1 $11 #
shell $-1 $-1 $-1 $45 $-1 $13 #
shell $-1 $-1 $-1 $46 $-1 $15 #
shell $-1 $-1 $-1 $47 $-1 $17 #
shell $-1 $-1 $-1 $48 $-1 $19 #
shell $-1 $-1 $-1 $49 $-1 $21 #
shell $-1 $-1 $-1 $50 $-1 $23 #
shell $-1 $-1 $-1 $51 $-1 $25 #
shell $-1 $-1 $-1 $52 $-1 $27 #
shell $-1 $-1 $-1 $53 $-1 $29 #
shell $-1 $-1 $-1 $54 $-1 $31 #
face $-1 $55 $56 $33 $-1 $57 forward single #
face $-1 $58 $59 $34 $-1 $60 forward single #
face $-1 $61 $62 $35 $-1 $63 forward single #
face $-1 $64 $65 $36 $-1 $66 reversed single #
face $-1 $67 $68 $37 $-1 $69 forward single #
face $-1 $70 $71 $38 $-1 $72 reversed single #
face $-1 $73 $74 $39 $-1 $75 forward single #
face $-1 $76 $77 $40 $-1 $78 reversed single #
face $-1 $79 $80 $41 $-1 $81 forward single #
face $-1 $82 $83 $42 $-1 $84 forward single #
face $-1 $85 $86 $43 $-1 $87 forward single #
face $-1 $88 $89 $33 $-1 $90 reversed single #
loop $-1 $-1 $91 $44 #
plane-surface $-1 0 0 8.8763672766587209 0 0 1 1 0 0 forward_v I I I I #
face $-1 $92 $93 $34 $-1 $94 reversed single #
loop $-1 $-1 $95 $45 #
plane-surface $-1 0 -23.225790282866157 0 0 1 0 0 0 1 forward_v I I I I #
face $-1 $96 $97 $35 $-1 $98 reversed single #
loop $-1 $-1 $99 $46 #
plane-surface $-1 0 23.225790282866157 0 0 -1 0 0 0 -1 forward_v I I I I #
face $-1 $100 $101 $36 $-1 $102 reversed single #
loop $-1 $-1 $103 $47 #
plane-surface $-1 29.773233956686717 -4.3162566827286435 118.92150536932186 0 -1 0 -0.62932039886446345 0 -0.77714595512881146 forward_v I I I I #
face $-1 $104 $105 $37 $-1 $106 forward single #
loop $-1 $107 $108 $48 #
cone-surface $-1 36.426558255725318 -8.2273592866717831 3.9850034665084442 -0.62932039886446345 0 -0.77714595512881146 0.77714595512881146 0 -0.62932039886446345 1 I I 0 1 1 forward I I I I #
face $-1 $109 $110 $38 $-1 $111 reversed single #
loop $-1 $-1 $112 $49 #
plane-surface $-1 29.773233956686717 12.138461890614924 118.92150536932186 0 -1 0 -0.62932039886446345 0 -0.77714595512881146 forward_v I I I I #
face $-1 $113 $114 $39 $-1 $115 forward single #
loop $-1 $116 $117 $50 #
cone-surface $-1 36.426558255725318 8.2273592866717848 3.9850034665084442 -0.62932039886446345 0 -0.77714595512881146 0.77714595512881146 0 -0.62932039886446345 1 I I 0 1 1 forward I I I I #
face $-1 $118 $119 $40 $-1 $120 reversed single #
loop $-1 $-1 $121 $51 #
plane-surface $-1 -112.35837105488585 -0.50050356139269425 47.335787383436958 0 1 0 -0.82903758062907751 0 0.55919289150049634 forward_v I I I I #
face $-1 $122 $123 $41 $-1 $124 forward single #
loop $-1 $125 $126 $52 #
cone-surface $-1 -38.643903798316799 0.96717013708871846 4.0277821332583894 0.82903758062907751 0 -0.55919289150049634 0.27959644575024817 0 0.41451879031453875 1 I I 0 1 0.5 forward I I I I #
face $-1 $127 $128 $42 $-1 $129 forward single #
loop $-1 $130 $131 $53 #
cone-surface $-1 -38.643903798316799 3.1686806848108375 4.0277821332583894 0.82903758062907751 0 -0.55919289150049634 0.27959644575024817 0 0.41451879031453875 1 I I 0 1 0.5 forward I I I I #
face $-1 $132 $133 $43 $-1 $134 forward single #
loop $-1 $135 $136 $54 #
cone-surface $-1 -38.643903798316799 5.3701912325329602 4.0277821332583894 0.82903758062907751 0 -0.55919289150049634 0.27959644575024817 0 0.41451879031453875 1 I I 0 1 0.5 forward I I I I #
face $-1 $137 $138 $33 $-1 $139 reversed single #
loop $-1 $-1 $140 $55 #
plane-surface $-1 0 0 -8.8763672766587209 0 0 1 1 0 0 forward_v I I I I #
coedge $-1 $141 $142 $143 $144 forward $56 $-1 #
face $-1 $145 $146 $34 $-1 $147 reversed single #
loop $-1 $-1 $148 $58 #
plane-surface $-1 0 0 -8.8763672766587209 0 0 1 1 0 0 forward_v I I I I #
coedge $-1 $149 $150 $151 $152 forward $59 $-1 #
face $-1 $153 $154 $35 $-1 $155 forward single #
loop $-1 $-1 $156 $61 #
plane-surface $-1 -42.270577105014191 0 0 1 0 0 0 0 -1 forward_v I I I I #
coedge $-1 $157 $158 $159 $160 forward $62 $-1 #
face $-1 $161 $162 $36 $-1 $163 reversed single #
loop $-1 $-1 $164 $64 #
plane-surface $-1 -23.430238931230456 -8.2273592866717848 53.220689333077217 0.62932039886446345 0 0.77714595512881146 0.77714595512881146 0 -0.62932039886446345 forward_v I I I I #
coedge $-1 $165 $166 $167 $168 reversed $65 $-1 #
face $-1 $-1 $169 $37 $-1 $170 forward single #
loop $-1 $171 $172 $67 #
cone-surface $-1 35.737949180103918 -8.2273592866717831 3.1346420945431017 -0.62932039886446345 0 -0.77714595512881146 0.38857297756440573 0 -0.31466019943223172 1 I I -0.70710678118654746 0.70710678118654746 0.5 forward I I I I #
loop $-1 $-1 $173 $48 #
coedge $-1 $108 $108 $174 $175 reversed $68 $-1 #
face $-1 $176 $177 $38 $-1 $178 reversed single #
loop $-1 $-1 $179 $70 #
plane-surface $-1 -23.430238931230456 8.2273592866717813 53.220689333077217 0.62932039886446345 0 0.77714595512881146 0.77714595512881146 0 -0.62932039886446345 forward_v I I I I #
coedge $-1 $180 $181 $182 $183 reversed $71 $-1 #
face $-1 $-1 $184 $39 $-1 $185 forward single #
loop $-1 $186 $187 $73 #
cone-surface $-1 35.737949180103918 8.2273592866717848 3.1346420945431017 -0.62932039886446345 0 -0.77714595512881146 0.38857297756440573 0 -0.31466019943223172 1 I I -0.70710678118654746 0.70710678118654746 0.5 forward I I I I #
loop $-1 $-1 $188 $50 #
coedge $-1 $117 $117 $189 $190 reversed $74 $-1 #
face $-1 $191 $192 $40 $-1 $193 reversed single #
loop $-1 $-1 $194 $76 #
plane-surface $-1 -42.270577105014169 3.1686806848108411 0.060974909941826638 -0.82903758062907751 0 0.55919289150049634 0.55919289150049634 0 0.82903758062907751 forward_v I I I I #
coedge $-1 $195 $196 $197 $198 reversed $77 $-1 #
face $-1 $-1 $199 $41 $-1 $200 forward single #
loop $-1 $201 $202 $79 #
cone-surface $-1 -37.782999619195266 0.96717013708871846 3.4470949503413806 0.82903758062907751 0 -0.55919289150049634 0.13979822287512408 0 0.20725939515726938 1 I I -0.70710678118654746 0.70710678118654746 0.25 forward I I I I #
loop $-1 $-1 $203 $52 #
coedge $-1 $126 $126 $204 $205 reversed $80 $-1 #
face $-1 $-1 $206 $42 $-1 $207 forward single #
loop $-1 $208 $209 $82 #
cone-surface $-1 -37.782999619195266 3.1686806848108375 3.4470949503413806 0.82903758062907751 0 -0.55919289150049634 0.13979822287512408 0 0.20725939515726938 1 I I -0.70710678118654746 0.70710678118654746 0.25 forward I I I I #
loop $-1 $-1 $210 $53 #
coedge $-1 $131 $131 $211 $212 reversed $83 $-1 #
face $-1 $-1 $213 $43 $-1 $214 forward single #
loop $-1 $215 $216 $85 #
cone-surface $-1 -37.782999619195266 5.3701912325329602 3.4470949503413806 0.82903758062907751 0 -0.55919289150049634 0.13979822287512408 0 0.20725939515726938 1 I I -0.70710678118654746 0.70710678118654746 0.25 forward I I I I #
loop $-1 $-1 $217 $54 #
coedge $-1 $136 $136 $218 $219 reversed $86 $-1 #
face $-1 $220 $221 $33 $-1 $222 reversed single #
loop $-1 $-1 $223 $88 #
plane-surface $-1 0 -23.225790282866157 0 0 1 0 0 0 1 forward_v I I I I #
coedge $-1 $224 $225 $226 $227 forward $89 $-1 #
coedge $-1 $228 $91 $229 $230 forward $56 $-1 #
coedge $-1 $91 $228 $231 $232 forward $56 $-1 #
coedge $-1 $233 $234 $91 $144 reversed $235 $-1 #
edge $-1 $236 -23.225790282866157 $237 23.225790282866157 $143 $238 forward 7 unknown #
face $-1 $239 $240 $34 $-1 $241 forward single #
loop $-1 $-1 $242 $92 #
plane-surface $-1 42.270577105014191 0 0 -1 0 0 0 0 1 forward_v I I I I #
coedge $-1 $243 $244 $245 $246 forward $93 $-1 #
coedge $-1 $245 $95 $242 $247 reversed $59 $-1 #
coedge $-1 $95 $245 $248 $249 reversed $59 $-1 #
coedge $-1 $250 $251 $95 $152 reversed $240 $-1 #
edge $-1 $252 -42.270577105014191 $253 42.270577105014191 $151 $254 forward 7 unknown #
face $-1 $255 $256 $35 $-1 $257 reversed single #
loop $-1 $-1 $258 $96 #
plane-surface $-1 0 26.996465250691202 -4.6830984506352511 0 0 1 1 0 0 forward_v I I I I #
coedge $-1 $259 $260 $157 $261 forward $97 $-1 #
coedge $-1 $262 $99 $156 $261 reversed $62 $-1 #
coedge $-1 $99 $262 $263 $264 reversed $62 $-1 #
coedge $-1 $258 $265 $99 $160 reversed $154 $-1 #
edge $-1 $266 -42.270577105014191 $267 42.270577105014191 $159 $268 forward 7 unknown #
face $-1 $269 $270 $36 $-1 $271 forward single #
loop $-1 $-1 $272 $100 #
plane-surface $-1 29.773233956686717 -12.138461890614927 118.92150536932186 0 1 0 0.62932039886446345 0 0.77714595512881146 forward_v I I I I #
coedge $-1 $273 $274 $275 $276 reversed $101 $-1 #
coedge $-1 $166 $103 $277 $278 reversed $65 $-1 #
coedge $-1 $103 $165 $273 $279 reversed $65 $-1 #
coedge $-1 $275 $280 $103 $168 forward $270 $-1 #
edge $-1 $281 -27.383960126670832 $282 -16.443820180471459 $167 $283 forward 7 unknown #
loop $-1 $-1 $174 $104 #
plane-surface $-1 -23.430238931230456 -8.2273592866717848 53.220689333077217 0.62932039886446345 0 0.77714595512881146 0.77714595512881146 0 -0.62932039886446345 forward_v I I I I #
loop $-1 $-1 $284 $67 #
coedge $-1 $172 $172 $173 $285 reversed $105 $-1 #
coedge $-1 $173 $173 $172 $285 forward $107 $-1 #
coedge $-1 $174 $174 $108 $175 forward $169 $-1 #
edge $-1 $286 0 $286 6.2831853071796004 $174 $287 forward 7 unknown #
face $-1 $288 $289 $38 $-1 $290 reversed single #
loop $-1 $-1 $291 $109 #
plane-surface $-1 29.773233956686717 4.3162566827286399 118.92150536932186 0 1 0 0.62932039886446345 0 0.77714595512881146 forward_v I I I I #
coedge $-1 $292 $293 $294 $295 reversed $110 $-1 #
coedge $-1 $181 $112 $296 $297 reversed $71 $-1 #
coedge $-1 $112 $180 $292 $298 reversed $71 $-1 #
coedge $-1 $294 $299 $112 $183 forward $300 $-1 #
edge $-1 $301 -27.383960126670832 $302 -16.443820180471459 $182 $303 forward 7 unknown #
loop $-1 $-1 $189 $113 #
plane-surface $-1 -23.430238931230456 8.2273592866717813 53.220689333077217 0.62932039886446345 0 0.77714595512881146 0.77714595512881146 0 -0.62932039886446345 forward_v I I I I #
loop $-1 $-1 $304 $73 #
coedge $-1 $187 $187 $188 $305 reversed $114 $-1 #
coedge $-1 $188 $188 $187 $305 forward $116 $-1 #
coedge $-1 $189 $189 $117 $190 forward $184 $-1 #
edge $-1 $306 0 $306 6.2831853071796004 $189 $307 forward 7 unknown #
face $-1 $308 $309 $40 $-1 $310 reversed single #
loop $-1 $-1 $311 $118 #
plane-surface $-1 -112.35837105488585 6.8378649310143764 47.335787383436958 0 -1 0 0.82903758062907751 0 -0.55919289150049634 forward_v I I I I #
coedge $-1 $312 $313 $314 $315 reversed $119 $-1 #
coedge $-1 $196 $121 $316 $317 reversed $77 $-1 #
coedge $-1 $121 $195 $312 $318 reversed $77 $-1 #
coedge $-1 $314 $319 $121 $198 forward $320 $-1 #
edge $-1 $321 13.908608422428735 $322 19.854665467895011 $197 $323 forward 7 unknown #
loop $-1 $-1 $204 $122 #
plane-surface $-1 -42.270577105014169 3.1686806848108411 0.060974909941826638 -0.82903758062907751 0 0.55919289150049634 0.55919289150049634 0 0.82903758062907751 forward_v I I I I #
loop $-1 $-1 $324 $79 #
coedge $-1 $202 $202 $203 $325 reversed $123 $-1 #
coedge $-1 $203 $203 $202 $325 forward $125 $-1 #
coedge $-1 $204 $204 $126 $205 forward $199 $-1 #
edge $-1 $326 0 $326 6.2831853071796004 $204 $327 forward 7 unknown #
loop $-1 $-1 $211 $127 #
plane-surface $-1 -42.270577105014169 3.1686806848108411 0.060974909941826638 -0.82903758062907751 0 0.55919289150049634 0.55919289150049634 0 0.82903758062907751 forward_v I I I I #
loop $-1 $-1 $328 $82 #
coedge $-1 $209 $209 $210 $329 reversed $128 $-1 #
coedge $-1 $210 $210 $209 $329 forward $130 $-1 #
coedge $-1 $211 $211 $131 $212 forward $206 $-1 #
edge $-1 $330 0 $330 6.2831853071796004 $211 $331 forward 7 unknown #
loop $-1 $-1 $218 $132 #
plane-surface $-1 -42.270577105014169 3.1686806848108411 0.060974909941826638 -0.82903758062907751 0 0.55919289150049634 0.55919289150049634 0 0.82903758062907751 forward_v I I I I #
loop $-1 $-1 $332 $85 #
coedge $-1 $216 $216 $217 $333 reversed $133 $-1 #
coedge $-1 $217 $217 $216 $333 forward $135 $-1 #
coedge $-1 $218 $218 $136 $219 forward $213 $-1 #
edge $-1 $334 0 $334 6.2831853071796004 $218 $335 forward 7 unknown #
face $-1 $336 $337 $33 $-1 $338 reversed single #
loop $-1 $-1 $339 $137 #
plane-surface $-1 -42.270577105014191 0 0 1 0 0 0 0 -1 forward_v I I I I #
coedge $-1 $340 $231 $341 $342 forward $138 $-1 #
coedge $-1 $343 $140 $340 $344 forward $89 $-1 #
coedge $-1 $140 $343 $345 $346 forward $89 $-1 #
coedge $-1 $234 $233 $140 $227 reversed $235 $-1 #
edge $-1 $347 -23.225790282866157 $348 23.225790282866157 $226 $349 forward 7 unknown #
coedge $-1 $142 $141 $350 $351 forward $56 $-1 #
coedge $-1 $352 $353 $141 $230 reversed $337 $-1 #
edge $-1 $237 -42.270577105014191 $354 42.270577105014191 $229 $355 forward 7 unknown #
coedge $-1 $223 $356 $142 $232 reversed $138 $-1 #
edge $-1 $357 -42.270577105014191 $236 42.270577105014191 $231 $358 forward 7 unknown #
coedge $-1 $226 $143 $356 $359 forward $235 $-1 #
coedge $-1 $143 $226 $352 $360 reversed $235 $-1 #
loop $-1 $-1 $233 $336 #
vertex $-1 $144 $361 #
vertex $-1 $144 $362 #
straight-curve $-1 42.270577105014191 0 8.8763672766587209 0 1 0 I I #
face $-1 $363 $364 $34 $-1 $365 reversed single #
loop $-1 $-1 $251 $145 #
plane-surface $-1 0 -26.996465250691205 -4.6830984506352511 0 0 1 1 0 0 forward_v I I I I #
coedge $-1 $366 $367 $149 $247 forward $146 $-1 #
coedge $-1 $368 $148 $367 $369 forward $93 $-1 #
coedge $-1 $148 $368 $370 $371 forward $93 $-1 #
coedge $-1 $150 $149 $148 $246 reversed $59 $-1 #
edge $-1 $372 -42.270577105014191 $373 42.270577105014191 $148 $374 forward 7 unknown #
edge $-1 $373 -8.8763672766587209 $253 -4.6830984506352511 $242 $375 forward 7 unknown #
coedge $-1 $370 $376 $150 $249 forward $377 $-1 #
edge $-1 $252 4.6830984506352511 $372 8.8763672766587209 $248 $378 forward 7 unknown #
coedge $-1 $379 $151 $376 $380 forward $240 $-1 #
coedge $-1 $151 $379 $366 $381 forward $240 $-1 #
vertex $-1 $249 $382 #
vertex $-1 $381 $383 #
straight-curve $-1 0 -23.225790282866157 -4.6830984506352511 1 0 0 I I #
face $-1 $384 $385 $35 $-1 $386 reversed single #
loop $-1 $-1 $387 $153 #
plane-surface $-1 0 30.76714021851625 -6.779732863646986 0 -1 0 0 0 -1 forward_v I I I I #
coedge $-1 $388 $159 $389 $390 forward $154 $-1 #
coedge $-1 $391 $156 $265 $392 reversed $97 $-1 #
coedge $-1 $156 $391 $393 $394 reversed $97 $-1 #
edge $-1 $395 -8.8763672766587209 $267 -4.6830984506352511 $156 $396 forward 7 unknown #
coedge $-1 $158 $157 $397 $398 reversed $62 $-1 #
coedge $-1 $399 $389 $158 $264 forward $400 $-1 #
edge $-1 $266 4.6830984506352511 $401 8.8763672766587209 $263 $402 forward 7 unknown #
coedge $-1 $159 $388 $259 $392 forward $154 $-1 #
vertex $-1 $264 $403 #
vertex $-1 $392 $404 #
straight-curve $-1 0 23.225790282866157 -4.6830984506352511 -1 0 0 I I #
face $-1 $-1 $405 $36 $-1 $406 reversed single #
loop $-1 $-1 $167 $161 #
plane-surface $-1 0 0 8.8763672766587209 0 0 1 1 0 0 forward_v I I I I #
coedge $-1 $407 $408 $409 $410 reversed $162 $-1 #
coedge $-1 $411 $164 $166 $279 forward $101 $-1 #
coedge $-1 $164 $411 $407 $412 forward $101 $-1 #
coedge $-1 $409 $167 $164 $276 forward $270 $-1 #
edge $-1 $282 0.20257703939275107 $413 8.0247822472790347 $275 $414 forward 7 unknown #
coedge $-1 $415 $416 $165 $278 forward $405 $-1 #
edge $-1 $417 -59.443536239500887 $281 -50.584385408002213 $277 $418 forward 7 unknown #
edge $-1 $282 70.463824367417217 $417 84.541154210028381 $166 $419 forward 7 unknown #
coedge $-1 $167 $409 $415 $420 forward $270 $-1 #
vertex $-1 $278 $421 #
vertex $-1 $168 $422 #
straight-curve $-1 14.886616978343358 -4.3162566827286435 8.8763672766587192 -1 0 0 I I #
coedge $-1 $284 $284 $-1 $423 reversed $171 $-1 #
edge $-1 $424 0 $424 6.2831853071796004 $172 $425 forward 7 unknown #
vertex $-1 $175 $426 #
ellipse-curve $-1 36.800507131914493 -8.2273592866717831 4.446791860909391 0.62932039886446345 0 0.77714595512881146 0.77714595512881146 0 -0.62932039886446345 1 I I #
face $-1 $-1 $300 $38 $-1 $427 forward single #
loop $-1 $-1 $428 $176 #
plane-surface $-1 42.270577105014191 0 0 -1 0 0 0 0 1 forward_v I I I I #
coedge $-1 $429 $430 $431 $432 reversed $177 $-1 #
coedge $-1 $433 $179 $181 $298 forward $110 $-1 #
coedge $-1 $179 $433 $429 $434 forward $110 $-1 #
coedge $-1 $431 $182 $179 $295 forward $300 $-1 #
edge $-1 $302 -8.0247822472790329 $435 -0.20257703939274929 $294 $436 forward 7 unknown #
coedge $-1 $437 $438 $180 $297 forward $289 $-1 #
edge $-1 $439 -59.443536239500887 $301 -50.584385408002213 $296 $440 forward 7 unknown #
edge $-1 $302 70.463824367417217 $439 84.541154210028381 $181 $441 forward 7 unknown #
coedge $-1 $182 $431 $437 $442 forward $300 $-1 #
loop $-1 $-1 $431 $288 #
vertex $-1 $297 $443 #
vertex $-1 $183 $444 #
straight-curve $-1 14.886616978343358 12.138461890614924 8.8763672766587192 -1 0 0 I I #
coedge $-1 $304 $304 $-1 $445 reversed $186 $-1 #
edge $-1 $446 0 $446 6.2831853071796004 $187 $447 forward 7 unknown #
vertex $-1 $190 $448 #
ellipse-curve $-1 36.800507131914493 8.2273592866717848 4.446791860909391 0.62932039886446345 0 0.77714595512881146 0.77714595512881146 0 -0.62932039886446345 1 I I #
face $-1 $-1 $320 $40 $-1 $449 forward single #
loop $-1 $-1 $450 $191 #
plane-surface $-1 -42.270577105014191 0 0 1 0 0 0 0 -1 forward_v I I I I #
coedge $-1 $451 $452 $453 $454 reversed $192 $-1 #
coedge $-1 $455 $194 $196 $318 forward $119 $-1 #
coedge $-1 $194 $455 $451 $456 forward $119 $-1 #
coedge $-1 $453 $197 $194 $315 forward $320 $-1 #
edge $-1 $322 -2.0848439037981148 $457 5.2535245886089559 $314 $458 forward 7 unknown #
coedge $-1 $459 $460 $195 $317 forward $309 $-1 #
edge $-1 $461 -23.606918781776685 $321 -14.791526415059758 $316 $462 forward 7 unknown #
edge $-1 $322 -10.633284392280185 $461 3.8117271178822074e-014 $196 $463 forward 7 unknown #
coedge $-1 $197 $453 $459 $464 forward $320 $-1 #
loop $-1 $-1 $453 $308 #
vertex $-1 $317 $465 #
vertex $-1 $198 $466 #
straight-curve $-1 -56.179185527442925 -0.50050356139269425 8.8763672766587192 1 0 0 I I #
coedge $-1 $324 $324 $-1 $467 reversed $201 $-1 #
edge $-1 $468 0 $468 6.2831853071796004 $202 $469 forward 7 unknown #
vertex $-1 $205 $470 #
ellipse-curve $-1 -39.297548582281046 0.96717013708871846 4.468671093300264 -0.82903758062907751 0 0.55919289150049634 0.27959644575024817 0 0.41451879031453875 1 I I #
coedge $-1 $328 $328 $-1 $471 reversed $208 $-1 #
edge $-1 $472 0 $472 6.2831853071796004 $209 $473 forward 7 unknown #
vertex $-1 $212 $474 #
ellipse-curve $-1 -39.297548582281046 3.1686806848108375 4.468671093300264 -0.82903758062907751 0 0.55919289150049634 0.27959644575024817 0 0.41451879031453875 1 I I #
coedge $-1 $332 $332 $-1 $475 reversed $215 $-1 #
edge $-1 $476 0 $476 6.2831853071796004 $216 $477 forward 7 unknown #
vertex $-1 $219 $478 #
ellipse-curve $-1 -39.297548582281046 5.3701912325329602 4.468671093300264 -0.82903758062907751 0 0.55919289150049634 0.27959644575024817 0 0.41451879031453875 1 I I #
face $-1 $-1 $235 $33 $-1 $479 reversed single #
loop $-1 $-1 $352 $220 #
plane-surface $-1 0 23.225790282866157 0 0 -1 0 0 0 -1 forward_v I I I I #
coedge $-1 $480 $350 $353 $481 forward $221 $-1 #
coedge $-1 $356 $223 $224 $344 reversed $138 $-1 #
coedge $-1 $350 $480 $223 $342 reversed $221 $-1 #
edge $-1 $357 -8.8763672766587209 $482 8.8763672766587209 $341 $483 forward 7 unknown #
coedge $-1 $225 $224 $480 $484 forward $89 $-1 #
edge $-1 $348 -42.270577105014191 $482 42.270577105014191 $340 $485 forward 7 unknown #
coedge $-1 $353 $352 $225 $346 reversed $337 $-1 #
edge $-1 $486 -42.270577105014191 $347 42.270577105014191 $345 $487 forward 7 unknown #
vertex $-1 $227 $488 #
vertex $-1 $359 $489 #
straight-curve $-1 42.270577105014191 0 -8.8763672766587209 0 -1 0 I I #
coedge $-1 $339 $341 $228 $351 reversed $221 $-1 #
edge $-1 $354 -23.225790282866157 $357 23.225790282866157 $350 $490 forward 7 unknown #
coedge $-1 $345 $229 $234 $360 forward $337 $-1 #
coedge $-1 $229 $345 $339 $481 reversed $337 $-1 #
vertex $-1 $230 $491 #
straight-curve $-1 0 23.225790282866157 8.8763672766587209 -1 0 0 I I #
coedge $-1 $231 $340 $233 $359 reversed $138 $-1 #
vertex $-1 $351 $492 #
straight-curve $-1 0 -23.225790282866157 8.8763672766587209 1 0 0 I I #
edge $-1 $236 -8.8763672766587209 $348 8.8763672766587209 $233 $493 forward 7 unknown #
edge $-1 $237 -8.8763672766587209 $347 8.8763672766587209 $234 $494 forward 7 unknown #
point $-1 42.270577105014191 -23.225790282866157 8.8763672766587209 #
point $-1 42.270577105014191 23.225790282866157 8.8763672766587209 #
face $-1 $-1 $377 $34 $-1 $495 reversed single #
loop $-1 $-1 $496 $239 #
plane-surface $-1 0 -30.767140218516253 -6.779732863646986 0 1 0 0 0 1 forward_v I I I I #
coedge $-1 $497 $242 $251 $381 reversed $146 $-1 #
coedge $-1 $242 $497 $243 $369 reversed $146 $-1 #
coedge $-1 $244 $243 $498 $499 forward $93 $-1 #
edge $-1 $373 23.225790282866157 $500 30.767140218516253 $367 $501 forward 7 unknown #
coedge $-1 $502 $248 $244 $371 reversed $377 $-1 #
edge $-1 $503 -30.767140218516253 $372 -23.225790282866157 $370 $504 forward 7 unknown #
vertex $-1 $249 $505 #
vertex $-1 $369 $506 #
straight-curve $-1 0 -23.225790282866157 -8.8763672766587209 1 0 0 I I #
straight-curve $-1 42.270577105014191 -23.225790282866157 0 0 0 1 I I #
coedge $-1 $248 $502 $250 $380 reversed $377 $-1 #
loop $-1 $-1 $248 $363 #
straight-curve $-1 -42.270577105014191 -23.225790282866157 0 0 0 -1 I I #
coedge $-1 $251 $250 $507 $508 forward $240 $-1 #
edge $-1 $252 -3.7706749678250482 $509 3.7706749678250482 $376 $510 forward 7 unknown #
edge $-1 $511 -3.7706749678250482 $253 3.7706749678250482 $366 $512 forward 7 unknown #
point $-1 -42.270577105014191 -23.225790282866157 -4.6830984506352511 #
point $-1 42.270577105014191 -23.225790282866157 -4.6830984506352511 #
face $-1 $-1 $400 $35 $-1 $513 reversed single #
loop $-1 $-1 $397 $255 #
plane-surface $-1 0 0 -8.8763672766587209 0 0 1 1 0 0 forward_v I I I I #
coedge $-1 $514 $515 $516 $517 forward $256 $-1 #
coedge $-1 $265 $258 $515 $518 forward $154 $-1 #
coedge $-1 $263 $516 $258 $390 reversed $400 $-1 #
edge $-1 $266 -3.7706749678250482 $519 3.7706749678250482 $389 $520 forward 7 unknown #
coedge $-1 $260 $259 $521 $522 forward $97 $-1 #
edge $-1 $523 -3.7706749678250482 $267 3.7706749678250482 $259 $524 forward 7 unknown #
coedge $-1 $525 $397 $260 $394 forward $385 $-1 #
edge $-1 $395 -3.7706749678250446 $526 3.7706749678250482 $260 $527 forward 7 unknown #
vertex $-1 $394 $528 #
straight-curve $-1 -42.270577105014191 23.225790282866157 0 0 0 1 I I #
coedge $-1 $393 $529 $262 $398 forward $385 $-1 #
edge $-1 $401 -42.270577105014191 $395 42.270577105014191 $397 $530 forward 7 unknown #
coedge $-1 $516 $263 $529 $531 reversed $400 $-1 #
loop $-1 $-1 $263 $384 #
vertex $-1 $264 $532 #
straight-curve $-1 42.270577105014191 23.225790282866157 0 0 0 -1 I I #
point $-1 42.270577105014191 23.225790282866154 -4.6830984506352511 #
point $-1 -42.270577105014191 23.225790282866154 -4.6830984506352511 #
loop $-1 $-1 $277 $269 #
plane-surface $-1 42.270577105014191 0 0 -1 0 0 0 0 1 forward_v I I I I #
coedge $-1 $408 $272 $274 $412 reversed $162 $-1 #
coedge $-1 $272 $407 $533 $534 reversed $162 $-1 #
coedge $-1 $280 $275 $272 $410 forward $270 $-1 #
edge $-1 $413 16.443820180471459 $535 27.383960126670832 $409 $536 forward 7 unknown #
coedge $-1 $274 $273 $416 $537 reversed $101 $-1 #
edge $-1 $538 -84.541154210028381 $413 -70.463824367417217 $407 $539 forward 7 unknown #
vertex $-1 $276 $540 #
straight-curve $-1 31.330437158814807 -4.1136796433358924 8.8763672766587192 0 -1 0 I I #
coedge $-1 $533 $277 $280 $420 reversed $405 $-1 #
coedge $-1 $277 $533 $411 $537 forward $405 $-1 #
vertex $-1 $278 $541 #
straight-curve $-1 42.270577105014191 -4.3162566827286435 59.460752684660932 0 0 1 I I #
straight-curve $-1 -23.430238931230456 -4.3162566827286435 53.220689333077217 0.77714595512881146 0 -0.62932039886446345 I I #
edge $-1 $535 -12.138461890614927 $281 -4.3162566827286435 $415 $542 forward 7 unknown #
point $-1 42.270577105014191 -4.3162566827286435 8.8763672766587209 #
point $-1 31.330437158814817 -4.3162566827286435 8.8763672766587121 #
edge $-1 $543 1 $543 0 $284 $-1 forward 7 unknown #
vertex $-1 $285 $544 #
ellipse-curve $-1 36.05260937953615 -8.2273592866717831 3.5232150721075075 0.62932039886446345 0 0.77714595512881146 0.77714595512881146 0 -0.62932039886446345 1 I I #
point $-1 37.577653087043302 -8.2273592866717831 3.8174714620449186 #
plane-surface $-1 0 0 8.8763672766587209 0 0 1 1 0 0 forward_v I I I I #
coedge $-1 $438 $437 $430 $545 forward $289 $-1 #
coedge $-1 $430 $291 $293 $434 reversed $177 $-1 #
coedge $-1 $291 $429 $428 $545 reversed $177 $-1 #
coedge $-1 $299 $294 $291 $432 forward $300 $-1 #
edge $-1 $435 16.443820180471459 $546 27.383960126670832 $431 $547 forward 7 unknown #
coedge $-1 $293 $292 $438 $548 reversed $110 $-1 #
edge $-1 $549 -84.541154210028381 $435 -70.463824367417217 $429 $550 forward 7 unknown #
vertex $-1 $295 $551 #
straight-curve $-1 31.330437158814807 4.1136796433358906 8.8763672766587192 0 -1 0 I I #
coedge $-1 $428 $296 $299 $442 reversed $289 $-1 #
coedge $-1 $296 $428 $433 $548 forward $289 $-1 #
vertex $-1 $297 $552 #
straight-curve $-1 42.270577105014191 12.138461890614924 59.460752684660932 0 0 1 I I #
straight-curve $-1 -23.430238931230456 12.138461890614924 53.220689333077217 0.77714595512881146 0 -0.62932039886446345 I I #
edge $-1 $546 4.3162566827286399 $301 12.138461890614924 $437 $553 forward 7 unknown #
point $-1 42.270577105014191 12.138461890614924 8.8763672766587209 #
point $-1 31.330437158814817 12.138461890614924 8.8763672766587121 #
edge $-1 $554 1 $554 0 $304 $-1 forward 7 unknown #
vertex $-1 $305 $555 #
ellipse-curve $-1 36.05260937953615 8.2273592866717848 3.5232150721075075 0.62932039886446345 0 0.77714595512881146 0.77714595512881146 0 -0.62932039886446345 1 I I #
point $-1 37.577653087043302 8.2273592866717848 3.8174714620449186 #
plane-surface $-1 0 0 8.8763672766587209 0 0 1 1 0 0 forward_v I I I I #
coedge $-1 $460 $459 $452 $556 forward $309 $-1 #
coedge $-1 $452 $311 $313 $456 reversed $192 $-1 #
coedge $-1 $311 $451 $450 $556 reversed $192 $-1 #
coedge $-1 $319 $314 $311 $454 forward $320 $-1 #
edge $-1 $457 -19.854665467895011 $557 -13.908608422428735 $453 $558 forward 7 unknown #
coedge $-1 $313 $312 $460 $559 reversed $119 $-1 #
edge $-1 $560 -3.8117271178822074e-014 $457 10.633284392280185 $451 $561 forward 7 unknown #
vertex $-1 $315 $562 #
straight-curve $-1 -36.324520059547915 1.5843403424054205 8.8763672766587209 0 1 0 I I #
coedge $-1 $450 $316 $319 $464 reversed $309 $-1 #
coedge $-1 $316 $450 $455 $559 forward $309 $-1 #
vertex $-1 $317 $563 #
straight-curve $-1 -42.270577105014191 -0.50050356139269425 23.667893691718479 0 0 1 I I #
straight-curve $-1 -42.270577105014169 -0.50050356139269425 0.060974909941826638 -0.55919289150049634 0 -0.82903758062907751 I I #
edge $-1 $557 -6.8378649310143764 $321 0.50050356139269425 $459 $564 forward 7 unknown #
point $-1 -42.270577105014191 -0.50050356139269425 8.8763672766587209 #
point $-1 -36.324520059547915 -0.50050356139269425 8.8763672766587209 #
edge $-1 $565 1 $565 0 $324 $-1 forward 7 unknown #
vertex $-1 $325 $566 #
ellipse-curve $-1 -37.990259014352539 0.96717013708871846 3.5868931732165046 -0.82903758062907751 0 0.55919289150049634 0.27959644575024817 0 0.41451879031453875 1 I I #
point $-1 -39.017952136530816 0.96717013708871846 4.8831898836148131 #
edge $-1 $567 1 $567 0 $328 $-1 forward 7 unknown #
vertex $-1 $329 $568 #
ellipse-curve $-1 -37.990259014352539 3.1686806848108375 3.5868931732165046 -0.82903758062907751 0 0.55919289150049634 0.27959644575024817 0 0.41451879031453875 1 I I #
point $-1 -39.017952136530816 3.1686806848108375 4.8831898836148131 #
edge $-1 $569 1 $569 0 $332 $-1 forward 7 unknown #
vertex $-1 $333 $570 #
ellipse-curve $-1 -37.990259014352539 5.3701912325329602 3.5868931732165046 -0.82903758062907751 0 0.55919289150049634 0.27959644575024817 0 0.41451879031453875 1 I I #
point $-1 -39.017952136530816 5.3701912325329602 4.8831898836148131 #
plane-surface $-1 42.270577105014191 0 0 -1 0 0 0 0 1 forward_v I I I I #
coedge $-1 $341 $339 $343 $484 reversed $221 $-1 #
edge $-1 $354 -8.8763672766587209 $486 8.8763672766587209 $353 $571 forward 7 unknown #
vertex $-1 $484 $572 #
straight-curve $-1 -42.270577105014191 -23.225790282866157 0 0 0 -1 I I #
edge $-1 $482 -23.225790282866157 $486 23.225790282866157 $480 $573 forward 7 unknown #
straight-curve $-1 0 -23.225790282866157 -8.8763672766587209 -1 0 0 I I #
vertex $-1 $346 $574 #
straight-curve $-1 0 23.225790282866157 -8.8763672766587209 1 0 0 I I #
point $-1 42.270577105014191 23.225790282866157 -8.8763672766587209 #
point $-1 42.270577105014191 -23.225790282866157 -8.8763672766587209 #
straight-curve $-1 -42.270577105014191 0 8.8763672766587209 0 -1 0 I I #
point $-1 -42.270577105014191 23.225790282866157 8.8763672766587209 #
point $-1 -42.270577105014191 -23.225790282866157 8.8763672766587209 #
straight-curve $-1 42.270577105014191 -23.225790282866157 0 0 0 -1 I I #
straight-curve $-1 42.270577105014191 23.225790282866157 0 0 0 -1 I I #
plane-surface $-1 -42.270577105014191 0 0 1 0 0 0 0 -1 forward_v I I I I #
coedge $-1 $498 $507 $502 $575 forward $364 $-1 #
coedge $-1 $367 $366 $576 $577 forward $146 $-1 #
coedge $-1 $576 $496 $368 $499 reversed $364 $-1 #
edge $-1 $500 -42.270577105014191 $503 42.270577105014191 $498 $578 forward 7 unknown #
vertex $-1 $577 $579 #
straight-curve $-1 42.270577105014191 0 -8.8763672766587209 0 -1 0 I I #
coedge $-1 $376 $370 $496 $575 reversed $377 $-1 #
vertex $-1 $371 $580 #
straight-curve $-1 -42.270577105014191 0 -8.8763672766587209 0 1 0 I I #
point $-1 -42.270577105014191 -23.225790282866157 -8.8763672766587209 #
point $-1 42.270577105014191 -23.225790282866157 -8.8763672766587209 #
coedge $-1 $496 $576 $379 $508 reversed $364 $-1 #
edge $-1 $509 -42.270577105014191 $511 42.270577105014191 $507 $581 forward 7 unknown #
vertex $-1 $380 $582 #
straight-curve $-1 -42.270577105014191 -26.996465250691205 -4.6830984506352511 0 -1 0 I I #
vertex $-1 $381 $583 #
straight-curve $-1 42.270577105014191 -26.996465250691205 -4.6830984506352511 0 1 0 I I #
plane-surface $-1 42.270577105014191 0 0 -1 0 0 0 0 1 forward_v I I I I #
coedge $-1 $521 $387 $525 $584 reversed $256 $-1 #
coedge $-1 $387 $521 $388 $518 reversed $256 $-1 #
coedge $-1 $389 $399 $387 $517 reversed $400 $-1 #
edge $-1 $519 -2.0966344130117349 $585 2.0966344130117349 $516 $586 forward 7 unknown #
edge $-1 $519 -42.270577105014191 $523 42.270577105014191 $515 $587 forward 7 unknown #
vertex $-1 $390 $588 #
straight-curve $-1 42.270577105014191 26.996465250691202 -4.6830984506352511 0 1 0 I I #
coedge $-1 $515 $514 $391 $522 reversed $256 $-1 #
edge $-1 $523 -2.0966344130117349 $526 2.0966344130117349 $521 $589 forward 7 unknown #
vertex $-1 $518 $590 #
straight-curve $-1 -42.270577105014191 26.996465250691202 -4.6830984506352511 0 -1 0 I I #
coedge $-1 $529 $393 $514 $584 forward $385 $-1 #
vertex $-1 $584 $591 #
straight-curve $-1 -42.270577105014191 26.996465250691202 -8.8763672766587209 0 1 0 I I #
point $-1 -42.270577105014191 23.225790282866157 -8.8763672766587209 #
coedge $-1 $397 $525 $399 $531 forward $385 $-1 #
straight-curve $-1 0 23.225790282866157 -8.8763672766587209 -1 0 0 I I #
edge $-1 $585 -30.76714021851625 $401 -23.225790282866157 $399 $592 forward 7 unknown #
point $-1 42.270577105014191 23.225790282866157 -8.8763672766587209 #
coedge $-1 $416 $415 $408 $534 forward $405 $-1 #
edge $-1 $535 50.584385408002213 $538 59.443536239500887 $533 $593 forward 7 unknown #
vertex $-1 $420 $594 #
straight-curve $-1 14.886616978343358 -12.138461890614927 8.8763672766587192 1 0 0 I I #
edge $-1 $538 -8.0247822472790347 $417 -0.20257703939275107 $416 $595 forward 7 unknown #
vertex $-1 $537 $596 #
straight-curve $-1 -23.430238931230456 -12.138461890614927 53.220689333077217 -0.77714595512881146 0 0.62932039886446345 I I #
point $-1 31.330437158814817 -12.138461890614927 8.8763672766587121 #
point $-1 42.270577105014191 -4.3162566827286435 0.017216445160045168 #
straight-curve $-1 42.270577105014191 0 8.8763672766587209 0 1 0 I I #
vertex $-1 $423 $597 #
point $-1 36.829755334664959 -8.2273592866717831 2.8938946732430439 #
edge $-1 $546 50.584385408002213 $549 59.443536239500887 $428 $598 forward 7 unknown #
vertex $-1 $442 $599 #
straight-curve $-1 14.886616978343358 4.3162566827286399 8.8763672766587192 1 0 0 I I #
edge $-1 $549 0.20257703939274929 $439 8.0247822472790329 $438 $600 forward 7 unknown #
vertex $-1 $548 $601 #
straight-curve $-1 -23.430238931230456 4.3162566827286399 53.220689333077217 -0.77714595512881146 0 0.62932039886446345 I I #
point $-1 31.330437158814817 4.3162566827286399 8.8763672766587121 #
point $-1 42.270577105014191 12.138461890614924 0.017216445160045168 #
straight-curve $-1 42.270577105014191 0 8.8763672766587209 0 1 0 I I #
vertex $-1 $445 $602 #
point $-1 36.829755334664959 8.2273592866717848 2.8938946732430439 #
edge $-1 $557 14.791526415059758 $560 23.606918781776685 $450 $603 forward 7 unknown #
vertex $-1 $464 $604 #
straight-curve $-1 -56.179185527442925 6.8378649310143764 8.8763672766587192 -1 0 0 I I #
edge $-1 $560 -5.2535245886089559 $461 2.0848439037981148 $460 $605 forward 7 unknown #
vertex $-1 $559 $606 #
straight-curve $-1 -42.270577105014169 6.8378649310143764 0.060974909941826638 0.55919289150049634 0 0.82903758062907751 I I #
point $-1 -36.324520059547915 6.8378649310143764 8.8763672766587209 #
point $-1 -42.270577105014191 -0.50050356139269425 0.060974909941795039 #
straight-curve $-1 -42.270577105014191 0 8.8763672766587209 0 -1 0 I I #
vertex $-1 $467 $607 #
point $-1 -37.710662568602288 0.96717013708871846 4.0014119635310434 #
vertex $-1 $471 $608 #
point $-1 -37.710662568602288 3.1686806848108375 4.0014119635310434 #
vertex $-1 $475 $609 #
point $-1 -37.710662568602288 5.3701912325329602 4.0014119635310434 #
straight-curve $-1 -42.270577105014191 23.225790282866157 0 0 0 -1 I I #
point $-1 -42.270577105014191 -23.225790282866157 -8.8763672766587209 #
straight-curve $-1 -42.270577105014191 0 -8.8763672766587209 0 1 0 I I #
point $-1 -42.270577105014191 23.225790282866157 -8.8763672766587209 #
edge $-1 $509 -2.0966344130117349 $503 2.0966344130117349 $502 $610 forward 7 unknown #
coedge $-1 $507 $498 $497 $577 reversed $364 $-1 #
edge $-1 $511 -2.0966344130117349 $500 2.0966344130117349 $497 $611 forward 7 unknown #
straight-curve $-1 0 -30.767140218516253 -8.8763672766587209 -1 0 0 I I #
point $-1 42.270577105014191 -30.767140218516253 -8.8763672766587209 #
point $-1 -42.270577105014191 -30.767140218516253 -8.8763672766587209 #
straight-curve $-1 0 -30.767140218516253 -4.6830984506352511 1 0 0 I I #
point $-1 -42.270577105014191 -30.767140218516253 -4.6830984506352511 #
point $-1 42.270577105014191 -30.767140218516253 -4.6830984506352511 #
edge $-1 $526 -42.270577105014191 $585 42.270577105014191 $514 $612 forward 7 unknown #
vertex $-1 $531 $613 #
straight-curve $-1 42.270577105014191 30.76714021851625 -6.779732863646986 0 0 -1 I I #
straight-curve $-1 0 30.76714021851625 -4.6830984506352511 -1 0 0 I I #
point $-1 42.270577105014191 30.76714021851625 -4.6830984506352511 #
straight-curve $-1 -42.270577105014191 30.76714021851625 -6.779732863646986 0 0 -1 I I #
point $-1 -42.270577105014191 30.76714021851625 -4.6830984506352511 #
point $-1 -42.270577105014191 30.76714021851625 -8.8763672766587209 #
straight-curve $-1 42.270577105014191 0 -8.8763672766587209 0 -1 0 I I #
straight-curve $-1 42.270577105014191 -12.138461890614927 59.460752684660932 0 0 -1 I I #
point $-1 42.270577105014191 -12.138461890614927 8.8763672766587209 #
straight-curve $-1 42.270577105014183 -4.1136796433358924 0.017216445160048721 0 1 0 I I #
point $-1 42.270577105014191 -12.138461890614927 0.017216445160045168 #
point $-1 35.423288980671686 -8.2273592866717831 2.7460691169786959 #
straight-curve $-1 42.270577105014191 4.3162566827286399 59.460752684660932 0 0 -1 I I #
point $-1 42.270577105014191 4.3162566827286399 8.8763672766587209 #
straight-curve $-1 42.270577105014183 4.1136796433358906 0.017216445160048721 0 1 0 I I #
point $-1 42.270577105014191 4.3162566827286399 0.017216445160045168 #
point $-1 35.423288980671686 8.2273592866717848 2.7460691169786959 #
straight-curve $-1 -42.270577105014191 6.8378649310143764 23.667893691718479 0 0 -1 I I #
point $-1 -42.270577105014191 6.8378649310143764 8.8763672766587209 #
straight-curve $-1 -42.270577105014191 1.5843403424054205 0.060974909941804607 0 -1 0 I I #
point $-1 -42.270577105014191 6.8378649310143764 0.060974909941795039 #
point $-1 -37.575740224037993 0.96717013708871846 3.3072967274662566 #
point $-1 -37.575740224037993 3.1686806848108375 3.3072967274662566 #
point $-1 -37.575740224037993 5.3701912325329602 3.3072967274662566 #
straight-curve $-1 -42.270577105014191 -30.767140218516253 -6.779732863646986 0 0 -1 I I #
straight-curve $-1 42.270577105014191 -30.767140218516253 -6.779732863646986 0 0 -1 I I #
straight-curve $-1 0 30.76714021851625 -8.8763672766587209 1 0 0 I I #
point $-1 42.270577105014191 30.76714021851625 -8.8763672766587209 #
End-of-ACIS-data 