500 0 14 0           
7 Unknown 11 ACIS 5.0 NT 24 Thu Mar 25 17:40:38 1999 
-1 9.9999999999999995e-007 1e-010 
body $-1 $14 $-1 $15 #
body $-1 $16 $-1 $17 #
body $-1 $18 $-1 $19 #
body $-1 $20 $-1 $21 #
body $-1 $22 $-1 $23 #
body $-1 $24 $-1 $25 #
body $-1 $26 $-1 $27 #
body $-1 $28 $-1 $29 #
body $-1 $30 $-1 $31 #
body $-1 $32 $-1 $33 #
body $-1 $34 $-1 $35 #
body $-1 $36 $-1 $37 #
body $-1 $38 $-1 $39 #
body $-1 $40 $-1 $41 #
lump $-1 $-1 $42 $0 #
transform $-1 1 0 0 0 1 0 0 0 1 47.595446638386179 22.898599765948635 6.2095339237743206 1 rotate no_reflect no_shear #
lump $-1 $-1 $43 $1 #
transform $-1 1 0 0 0 1 0 0 0 1 47.595446638386179 22.898599765948635 6.2095339237743206 1 rotate no_reflect no_shear #
lump $-1 $-1 $44 $2 #
transform $-1 1 0 0 0 1 0 0 0 1 47.595446638386179 22.898599765948635 6.2095339237743206 1 rotate no_reflect no_shear #
lump $-1 $-1 $45 $3 #
transform $-1 1 0 0 0 1 0 0 0 1 47.595446638386179 22.898599765948635 6.2095339237743206 1 rotate no_reflect no_shear #
lump $-1 $-1 $46 $4 #
transform $-1 1 0 0 0 1 0 0 0 1 47.595446638386179 22.898599765948635 6.2095339237743206 1 rotate no_reflect no_shear #
lump $-1 $-1 $47 $5 #
transform $-1 1 0 0 0 1 0 0 0 1 47.595446638386179 22.898599765948635 6.2095339237743206 1 rotate no_reflect no_shear #
lump $-1 $-1 $48 $6 #
transform $-1 1 0 0 0 1 0 0 0 1 47.595446638386179 22.898599765948635 6.2095339237743206 1 rotate no_reflect no_shear #
lump $-1 $-1 $49 $7 #
transform $-1 1 0 0 0 1 0 0 0 1 47.595446638386179 22.898599765948635 6.2095339237743206 1 rotate no_reflect no_shear #
lump $-1 $-1 $50 $8 #
transform $-1 1 0 0 0 1 0 0 0 1 47.595446638386179 22.898599765948635 6.2095339237743206 1 rotate no_reflect no_shear #
lump $-1 $-1 $51 $9 #
transform $-1 1 0 0 0 1 0 0 0 1 47.595446638386179 22.898599765948635 6.2095339237743206 1 rotate no_reflect no_shear #
lump $-1 $-1 $52 $10 #
transform $-1 1 0 0 0 1 0 0 0 1 47.595446638386179 22.898599765948635 6.2095339237743206 1 rotate no_reflect no_shear #
lump $-1 $-1 $53 $11 #
transform $-1 1 0 0 0 1 0 0 0 1 47.595446638386179 22.898599765948635 6.2095339237743206 1 rotate no_reflect no_shear #
lump $-1 $-1 $54 $12 #
transform $-1 1 0 0 0 1 0 0 0 1 47.595446638386179 22.898599765948635 6.2095339237743206 1 rotate no_reflect no_shear #
lump $-1 $-1 $55 $13 #
transform $-1 1 0 0 0 1 0 0 0 1 47.595446638386179 22.898599765948635 6.2095339237743206 1 rotate no_reflect no_shear #
shell $-1 $-1 $-1 $56 $-1 $14 #
shell $-1 $-1 $-1 $57 $-1 $16 #
shell $-1 $-1 $-1 $58 $-1 $18 #
shell $-1 $-1 $-1 $59 $-1 $20 #
shell $-1 $-1 $-1 $60 $-1 $22 #
shell $-1 $-1 $-1 $61 $-1 $24 #
shell $-1 $-1 $-1 $62 $-1 $26 #
shell $-1 $-1 $-1 $63 $-1 $28 #
shell $-1 $-1 $-1 $64 $-1 $30 #
shell $-1 $-1 $-1 $65 $-1 $32 #
shell $-1 $-1 $-1 $66 $-1 $34 #
shell $-1 $-1 $-1 $67 $-1 $36 #
shell $-1 $-1 $-1 $68 $-1 $38 #
shell $-1 $-1 $-1 $69 $-1 $40 #
face $-1 $70 $71 $42 $-1 $72 forward single #
face $-1 $73 $74 $43 $-1 $75 forward single #
face $-1 $76 $77 $44 $-1 $78 reversed single #
face $-1 $79 $80 $45 $-1 $81 forward single #
face $-1 $82 $83 $46 $-1 $84 reversed single #
face $-1 $85 $86 $47 $-1 $87 forward single #
face $-1 $88 $89 $48 $-1 $90 reversed single #
face $-1 $91 $92 $49 $-1 $93 forward single #
face $-1 $94 $95 $50 $-1 $96 reversed single #
face $-1 $97 $98 $51 $-1 $99 forward single #
face $-1 $100 $101 $52 $-1 $102 reversed single #
face $-1 $103 $104 $53 $-1 $105 forward single #
face $-1 $106 $107 $54 $-1 $108 forward single #
face $-1 $109 $110 $55 $-1 $111 forward single #
face $-1 $112 $113 $42 $-1 $114 reversed single #
loop $-1 $-1 $115 $56 #
plane-surface $-1 0 0 6.2095339237743206 0 0 1 1 0 0 forward_v I I I I #
face $-1 $116 $117 $43 $-1 $118 reversed single #
loop $-1 $-1 $119 $57 #
plane-surface $-1 0 -20.74320339913001 -3.2095339237743206 0 0 1 1 0 0 forward_v I I I I #
face $-1 $120 $121 $44 $-1 $122 reversed single #
loop $-1 $-1 $123 $58 #
plane-surface $-1 12.753162495965299 -10.269988893718434 132.62239405572925 0 -1 0 -0.50000000669873634 0 -0.8660253999169214 forward_v I I I I #
face $-1 $124 $125 $45 $-1 $126 forward single #
loop $-1 $127 $128 $59 #
cone-surface $-1 43.534933000061358 -13.347111528011833 2.7968364915454296 -0.50000000669873634 0 -0.8660253999169214 1.2990380998753821 0 -0.75000001004810457 1 I I 0 1 1.5 forward I I I I #
face $-1 $129 $130 $46 $-1 $131 reversed single #
loop $-1 $-1 $132 $60 #
plane-surface $-1 12.753162495965299 0.065016369501869065 132.62239405572925 0 -1 0 -0.50000000669873634 0 -0.8660253999169214 forward_v I I I I #
face $-1 $133 $134 $47 $-1 $135 forward single #
loop $-1 $136 $137 $61 #
cone-surface $-1 43.534933000061358 -3.0121062647915302 2.7968364915454296 -0.50000000669873634 0 -0.8660253999169214 1.2990380998753821 0 -0.75000001004810457 1 I I 0 1 1.5 forward I I I I #
face $-1 $138 $139 $48 $-1 $140 reversed single #
loop $-1 $-1 $141 $62 #
plane-surface $-1 12.753162495965299 10.400021632722172 132.62239405572925 0 -1 0 -0.50000000669873634 0 -0.8660253999169214 forward_v I I I I #
face $-1 $142 $143 $49 $-1 $144 forward single #
loop $-1 $145 $146 $63 #
cone-surface $-1 43.534933000061358 7.3228989984287729 2.7968364915454296 -0.50000000669873634 0 -0.8660253999169214 1.2990380998753821 0 -0.75000001004810457 1 I I 0 1 1.5 forward I I I I #
face $-1 $147 $148 $50 $-1 $149 reversed single #
loop $-1 $-1 $150 $64 #
plane-surface $-1 12.753162495965299 20.735026895942475 132.62239405572925 0 -1 0 -0.50000000669873634 0 -0.8660253999169214 forward_v I I I I #
face $-1 $151 $152 $51 $-1 $153 forward single #
loop $-1 $154 $155 $65 #
cone-surface $-1 43.534933000061358 17.657904261649076 2.7968364915454296 -0.50000000669873634 0 -0.8660253999169214 1.2990380998753821 0 -0.75000001004810457 1 I I 0 1 1.5 forward I I I I #
face $-1 $156 $157 $52 $-1 $158 reversed single #
loop $-1 $-1 $159 $66 #
plane-surface $-1 -130.85127856428855 -11.080323541614753 46.853525487241271 0 1 0 -0.87461971476443456 0 0.48480960649040278 forward_v I I I I #
face $-1 $160 $161 $53 $-1 $162 forward single #
loop $-1 $163 $164 $67 #
cone-surface $-1 -45.632271479706048 -9.7888094288560268 3.2143951467716292 0.87461971476443456 0 -0.48480960649040278 0.24240480324520139 0 0.43730985738221728 1 I I 0 1 0.5 forward I I I I #
face $-1 $165 $166 $54 $-1 $167 forward single #
loop $-1 $168 $169 $68 #
cone-surface $-1 -45.632271479706048 -7.8515382597179375 3.2143951467716292 0.87461971476443456 0 -0.48480960649040278 0.24240480324520139 0 0.43730985738221728 1 I I 0 1 0.5 forward I I I I #
face $-1 $170 $171 $55 $-1 $172 forward single #
loop $-1 $173 $174 $69 #
cone-surface $-1 -45.632271479706048 -5.9142670905798482 3.2143951467716292 0.87461971476443456 0 -0.48480960649040278 0.24240480324520139 0 0.43730985738221728 1 I I 0 1 0.5 forward I I I I #
face $-1 $175 $176 $42 $-1 $177 reversed single #
loop $-1 $-1 $178 $70 #
plane-surface $-1 0 0 -6.2095339237743206 0 0 1 1 0 0 forward_v I I I I #
coedge $-1 $179 $180 $181 $182 forward $71 $-1 #
face $-1 $183 $184 $43 $-1 $185 reversed single #
loop $-1 $-1 $186 $73 #
plane-surface $-1 0 -18.587807032311385 -4.7095339237743206 0 -1 0 0 0 -1 forward_v I I I I #
coedge $-1 $187 $188 $189 $190 reversed $74 $-1 #
face $-1 $191 $192 $44 $-1 $193 reversed single #
loop $-1 $-1 $194 $76 #
plane-surface $-1 -34.842284780079574 -13.347111528011833 50.184662637263486 0.50000000669873634 0 0.8660253999169214 0.8660253999169214 0 -0.50000000669873634 forward_v I I I I #
coedge $-1 $195 $196 $197 $198 reversed $77 $-1 #
face $-1 $-1 $199 $45 $-1 $200 forward single #
loop $-1 $201 $202 $79 #
cone-surface $-1 42.234707145671493 -13.347111528011833 0.5447792906567015 -0.50000000669873634 0 -0.8660253999169214 0.64951904993769105 0 -0.37500000502405229 1 I I -0.70710678118654757 0.70710678118654757 0.75 forward I I I I #
loop $-1 $-1 $203 $59 #
coedge $-1 $128 $128 $204 $205 reversed $80 $-1 #
face $-1 $206 $207 $46 $-1 $208 reversed single #
loop $-1 $-1 $209 $82 #
plane-surface $-1 -34.842284780079574 -3.0121062647915302 50.184662637263486 0.50000000669873634 0 0.8660253999169214 0.8660253999169214 0 -0.50000000669873634 forward_v I I I I #
coedge $-1 $210 $211 $212 $213 reversed $83 $-1 #
face $-1 $-1 $214 $47 $-1 $215 forward single #
loop $-1 $216 $217 $85 #
cone-surface $-1 42.234707145671493 -3.0121062647915302 0.5447792906567015 -0.50000000669873634 0 -0.8660253999169214 0.64951904993769105 0 -0.37500000502405229 1 I I -0.70710678118654757 0.70710678118654757 0.75 forward I I I I #
loop $-1 $-1 $218 $61 #
coedge $-1 $137 $137 $219 $220 reversed $86 $-1 #
face $-1 $221 $222 $48 $-1 $223 reversed single #
loop $-1 $-1 $224 $88 #
plane-surface $-1 -34.842284780079574 7.3228989984287729 50.184662637263486 0.50000000669873634 0 0.8660253999169214 0.8660253999169214 0 -0.50000000669873634 forward_v I I I I #
coedge $-1 $225 $226 $227 $228 reversed $89 $-1 #
face $-1 $-1 $229 $49 $-1 $230 forward single #
loop $-1 $231 $232 $91 #
cone-surface $-1 42.234707145671493 7.3228989984287729 0.5447792906567015 -0.50000000669873634 0 -0.8660253999169214 0.64951904993769105 0 -0.37500000502405229 1 I I -0.70710678118654757 0.70710678118654757 0.75 forward I I I I #
loop $-1 $-1 $233 $63 #
coedge $-1 $146 $146 $234 $235 reversed $92 $-1 #
face $-1 $236 $237 $50 $-1 $238 reversed single #
loop $-1 $-1 $239 $94 #
plane-surface $-1 -34.842284780079574 17.657904261649076 50.184662637263486 0.50000000669873634 0 0.8660253999169214 0.8660253999169214 0 -0.50000000669873634 forward_v I I I I #
coedge $-1 $240 $241 $242 $243 reversed $95 $-1 #
face $-1 $-1 $244 $51 $-1 $245 forward single #
loop $-1 $246 $247 $97 #
cone-surface $-1 42.234707145671493 17.657904261649076 0.5447792906567015 -0.50000000669873634 0 -0.8660253999169214 0.64951904993769105 0 -0.37500000502405229 1 I I -0.70710678118654757 0.70710678118654757 0.75 forward I I I I #
loop $-1 $-1 $248 $65 #
coedge $-1 $155 $155 $249 $250 reversed $98 $-1 #
face $-1 $251 $252 $52 $-1 $253 reversed single #
loop $-1 $-1 $254 $100 #
plane-surface $-1 -47.595446638386179 -7.8515382597179393 0.70406597625933642 -0.87461971476443456 0 0.48480960649040278 0.48480960649040278 0 0.87461971476443456 forward_v I I I I #
coedge $-1 $255 $256 $257 $258 reversed $101 $-1 #
face $-1 $-1 $259 $53 $-1 $260 forward single #
loop $-1 $261 $262 $103 #
cone-surface $-1 -44.976306693632722 -9.7888094288560268 2.8507879419038273 0.87461971476443456 0 -0.48480960649040278 0.12120240162260069 0 0.21865492869110864 1 I I -0.70710678118654746 0.70710678118654746 0.25 forward I I I I #
loop $-1 $-1 $263 $67 #
coedge $-1 $164 $164 $264 $265 reversed $104 $-1 #
face $-1 $-1 $266 $54 $-1 $267 forward single #
loop $-1 $268 $269 $106 #
cone-surface $-1 -44.976306693632722 -7.8515382597179375 2.8507879419038273 0.87461971476443456 0 -0.48480960649040278 0.12120240162260069 0 0.21865492869110864 1 I I -0.70710678118654746 0.70710678118654746 0.25 forward I I I I #
loop $-1 $-1 $270 $68 #
coedge $-1 $169 $169 $271 $272 reversed $107 $-1 #
face $-1 $-1 $273 $55 $-1 $274 forward single #
loop $-1 $275 $276 $109 #
cone-surface $-1 -44.976306693632722 -5.9142670905798482 2.8507879419038273 0.87461971476443456 0 -0.48480960649040278 0.12120240162260069 0 0.21865492869110864 1 I I -0.70710678118654746 0.70710678118654746 0.25 forward I I I I #
loop $-1 $-1 $277 $69 #
coedge $-1 $174 $174 $278 $279 reversed $110 $-1 #
face $-1 $280 $281 $42 $-1 $282 reversed single #
loop $-1 $-1 $283 $112 #
plane-surface $-1 0 -22.898599765948635 0 0 1 0 0 0 1 forward_v I I I I #
coedge $-1 $284 $285 $286 $287 forward $113 $-1 #
coedge $-1 $288 $115 $289 $290 forward $71 $-1 #
coedge $-1 $115 $288 $291 $292 forward $71 $-1 #
coedge $-1 $293 $294 $115 $182 reversed $295 $-1 #
edge $-1 $296 -22.898599765948635 $297 22.898599765948635 $181 $298 forward 7 unknown #
face $-1 $299 $300 $43 $-1 $301 reversed single #
loop $-1 $-1 $302 $116 #
plane-surface $-1 0 0 -6.2095339237743206 0 0 1 1 0 0 forward_v I I I I #
coedge $-1 $303 $304 $305 $306 reversed $117 $-1 #
coedge $-1 $307 $119 $304 $308 forward $74 $-1 #
coedge $-1 $119 $307 $309 $310 reversed $74 $-1 #
coedge $-1 $311 $305 $119 $190 forward $300 $-1 #
edge $-1 $312 8.2162053327463802 $313 12.52699806638363 $189 $314 forward 7 unknown #
face $-1 $315 $316 $44 $-1 $317 reversed single #
loop $-1 $-1 $318 $120 #
plane-surface $-1 12.753162495965299 -16.424234162305233 132.62239405572925 0 1 0 0.50000000669873634 0 0.8660253999169214 forward_v I I I I #
coedge $-1 $319 $320 $321 $322 reversed $121 $-1 #
coedge $-1 $196 $123 $323 $324 reversed $77 $-1 #
coedge $-1 $123 $195 $319 $325 reversed $77 $-1 #
coedge $-1 $321 $326 $123 $198 forward $327 $-1 #
edge $-1 $328 -41.218865390403529 $329 -34.948289812485484 $197 $330 forward 7 unknown #
loop $-1 $-1 $204 $124 #
plane-surface $-1 -34.842284780079574 -13.347111528011833 50.184662637263486 0.50000000669873634 0 0.8660253999169214 0.8660253999169214 0 -0.50000000669873634 forward_v I I I I #
loop $-1 $-1 $331 $79 #
coedge $-1 $202 $202 $203 $332 reversed $125 $-1 #
coedge $-1 $203 $203 $202 $332 forward $127 $-1 #
coedge $-1 $204 $204 $128 $205 forward $199 $-1 #
edge $-1 $333 0 $333 6.2831853071796004 $204 $334 forward 7 unknown #
face $-1 $335 $336 $46 $-1 $337 reversed single #
loop $-1 $-1 $338 $129 #
plane-surface $-1 12.753162495965299 -6.0892288990849295 132.62239405572925 0 1 0 0.50000000669873634 0 0.8660253999169214 forward_v I I I I #
coedge $-1 $339 $340 $341 $342 reversed $130 $-1 #
coedge $-1 $211 $132 $343 $344 reversed $83 $-1 #
coedge $-1 $132 $210 $339 $345 reversed $83 $-1 #
coedge $-1 $341 $346 $132 $213 forward $347 $-1 #
edge $-1 $348 -41.218865390403529 $349 -34.948289812485484 $212 $350 forward 7 unknown #
loop $-1 $-1 $219 $133 #
plane-surface $-1 -34.842284780079574 -3.0121062647915302 50.184662637263486 0.50000000669873634 0 0.8660253999169214 0.8660253999169214 0 -0.50000000669873634 forward_v I I I I #
loop $-1 $-1 $351 $85 #
coedge $-1 $217 $217 $218 $352 reversed $134 $-1 #
coedge $-1 $218 $218 $217 $352 forward $136 $-1 #
coedge $-1 $219 $219 $137 $220 forward $214 $-1 #
edge $-1 $353 0 $353 6.2831853071796004 $219 $354 forward 7 unknown #
face $-1 $355 $356 $48 $-1 $357 reversed single #
loop $-1 $-1 $358 $138 #
plane-surface $-1 12.753162495965299 4.2457763641353736 132.62239405572925 0 1 0 0.50000000669873634 0 0.8660253999169214 forward_v I I I I #
coedge $-1 $359 $360 $361 $362 reversed $139 $-1 #
coedge $-1 $226 $141 $363 $364 reversed $89 $-1 #
coedge $-1 $141 $225 $359 $365 reversed $89 $-1 #
coedge $-1 $361 $366 $141 $228 forward $367 $-1 #
edge $-1 $368 -41.218865390403529 $369 -34.948289812485484 $227 $370 forward 7 unknown #
loop $-1 $-1 $234 $142 #
plane-surface $-1 -34.842284780079574 7.3228989984287729 50.184662637263486 0.50000000669873634 0 0.8660253999169214 0.8660253999169214 0 -0.50000000669873634 forward_v I I I I #
loop $-1 $-1 $371 $91 #
coedge $-1 $232 $232 $233 $372 reversed $143 $-1 #
coedge $-1 $233 $233 $232 $372 forward $145 $-1 #
coedge $-1 $234 $234 $146 $235 forward $229 $-1 #
edge $-1 $373 0 $373 6.2831853071796004 $234 $374 forward 7 unknown #
face $-1 $375 $376 $50 $-1 $377 reversed single #
loop $-1 $-1 $378 $147 #
plane-surface $-1 12.753162495965299 14.580781627355677 132.62239405572925 0 1 0 0.50000000669873634 0 0.8660253999169214 forward_v I I I I #
coedge $-1 $379 $380 $381 $382 reversed $148 $-1 #
coedge $-1 $241 $150 $383 $384 reversed $95 $-1 #
coedge $-1 $150 $240 $379 $385 reversed $95 $-1 #
coedge $-1 $381 $386 $150 $243 forward $387 $-1 #
edge $-1 $388 -41.218865390403529 $389 -34.948289812485484 $242 $390 forward 7 unknown #
loop $-1 $-1 $249 $151 #
plane-surface $-1 -34.842284780079574 17.657904261649076 50.184662637263486 0.50000000669873634 0 0.8660253999169214 0.8660253999169214 0 -0.50000000669873634 forward_v I I I I #
loop $-1 $-1 $391 $97 #
coedge $-1 $247 $247 $248 $392 reversed $152 $-1 #
coedge $-1 $248 $248 $247 $392 forward $154 $-1 #
coedge $-1 $249 $249 $155 $250 forward $244 $-1 #
edge $-1 $393 0 $393 6.2831853071796004 $249 $394 forward 7 unknown #
face $-1 $395 $396 $52 $-1 $397 forward single #
loop $-1 $-1 $398 $156 #
plane-surface $-1 -130.85127856428855 -4.6227529778211256 46.853525487241271 0 -1 0 0.87461971476443456 0 -0.48480960649040278 forward_v I I I I #
coedge $-1 $399 $400 $401 $402 reversed $157 $-1 #
coedge $-1 $256 $159 $403 $404 reversed $101 $-1 #
coedge $-1 $159 $255 $399 $405 reversed $101 $-1 #
coedge $-1 $401 $406 $159 $258 forward $396 $-1 #
edge $-1 $407 17.830192643758096 $408 20.881923246353928 $257 $409 forward 7 unknown #
loop $-1 $-1 $264 $160 #
plane-surface $-1 -47.595446638386179 -7.8515382597179393 0.70406597625933642 -0.87461971476443456 0 0.48480960649040278 0.48480960649040278 0 0.87461971476443456 forward_v I I I I #
loop $-1 $-1 $410 $103 #
coedge $-1 $262 $262 $263 $411 reversed $161 $-1 #
coedge $-1 $263 $263 $262 $411 forward $163 $-1 #
coedge $-1 $264 $264 $164 $265 forward $259 $-1 #
edge $-1 $412 0 $412 6.2831853071796004 $264 $413 forward 7 unknown #
loop $-1 $-1 $271 $165 #
plane-surface $-1 -47.595446638386179 -7.8515382597179393 0.70406597625933642 -0.87461971476443456 0 0.48480960649040278 0.48480960649040278 0 0.87461971476443456 forward_v I I I I #
loop $-1 $-1 $414 $106 #
coedge $-1 $269 $269 $270 $415 reversed $166 $-1 #
coedge $-1 $270 $270 $269 $415 forward $168 $-1 #
coedge $-1 $271 $271 $169 $272 forward $266 $-1 #
edge $-1 $416 0 $416 6.2831853071796004 $271 $417 forward 7 unknown #
loop $-1 $-1 $278 $170 #
plane-surface $-1 -47.595446638386179 -7.8515382597179393 0.70406597625933642 -0.87461971476443456 0 0.48480960649040278 0.48480960649040278 0 0.87461971476443456 forward_v I I I I #
loop $-1 $-1 $418 $109 #
coedge $-1 $276 $276 $277 $419 reversed $171 $-1 #
coedge $-1 $277 $277 $276 $419 forward $173 $-1 #
coedge $-1 $278 $278 $174 $279 forward $273 $-1 #
edge $-1 $420 0 $420 6.2831853071796004 $278 $421 forward 7 unknown #
face $-1 $422 $423 $42 $-1 $424 reversed single #
loop $-1 $-1 $425 $175 #
plane-surface $-1 -47.595446638386179 0 0 1 0 0 0 0 -1 forward_v I I I I #
coedge $-1 $426 $291 $427 $428 forward $176 $-1 #
coedge $-1 $429 $178 $426 $430 forward $113 $-1 #
coedge $-1 $178 $429 $431 $432 forward $113 $-1 #
coedge $-1 $294 $293 $178 $287 reversed $295 $-1 #
edge $-1 $433 -22.898599765948635 $434 22.898599765948635 $286 $435 forward 7 unknown #
coedge $-1 $180 $179 $436 $437 forward $71 $-1 #
coedge $-1 $438 $439 $179 $290 reversed $423 $-1 #
edge $-1 $297 -47.595446638386179 $440 47.595446638386179 $289 $441 forward 7 unknown #
coedge $-1 $283 $442 $180 $292 reversed $176 $-1 #
edge $-1 $443 -47.595446638386179 $296 47.595446638386179 $291 $444 forward 7 unknown #
coedge $-1 $286 $181 $442 $445 forward $295 $-1 #
coedge $-1 $181 $286 $438 $446 reversed $295 $-1 #
loop $-1 $-1 $293 $422 #
vertex $-1 $182 $447 #
vertex $-1 $182 $448 #
straight-curve $-1 47.595446638386179 0 6.2095339237743206 0 1 0 I I #
face $-1 $449 $450 $43 $-1 $451 reversed single #
loop $-1 $-1 $305 $183 #
plane-surface $-1 47.595446638386179 0 0 -1 0 0 0 0 1 forward_v I I I I #
coedge $-1 $452 $453 $303 $454 forward $184 $-1 #
coedge $-1 $455 $186 $302 $454 reversed $117 $-1 #
coedge $-1 $186 $455 $187 $308 reversed $117 $-1 #
coedge $-1 $189 $456 $186 $306 forward $300 $-1 #
edge $-1 $457 -3.8547669618871603 $312 -0.85476696188716028 $305 $458 forward 7 unknown #
coedge $-1 $188 $187 $459 $460 reversed $74 $-1 #
edge $-1 $312 -47.595446638386179 $461 47.595446638386179 $304 $462 forward 7 unknown #
coedge $-1 $463 $464 $188 $310 forward $450 $-1 #
edge $-1 $313 -47.595446638386179 $465 47.595446638386179 $309 $466 forward 7 unknown #
coedge $-1 $456 $189 $464 $467 forward $300 $-1 #
vertex $-1 $190 $468 #
vertex $-1 $467 $469 #
straight-curve $-1 47.595446638386179 -10.371601699565005 -3.2095339237743206 0 -1 0 I I #
face $-1 $-1 $327 $44 $-1 $470 forward single #
loop $-1 $-1 $471 $191 #
plane-surface $-1 47.595446638386179 0 0 -1 0 0 0 0 1 forward_v I I I I #
coedge $-1 $472 $473 $474 $475 reversed $192 $-1 #
coedge $-1 $476 $194 $196 $325 forward $121 $-1 #
coedge $-1 $194 $476 $472 $477 forward $121 $-1 #
coedge $-1 $474 $197 $194 $322 forward $327 $-1 #
edge $-1 $329 3.5964331297125174 $478 9.7506783982993159 $321 $479 forward 7 unknown #
coedge $-1 $480 $481 $195 $324 forward $316 $-1 #
edge $-1 $482 -63.721981666645995 $328 -60.101663104090299 $323 $483 forward 7 unknown #
edge $-1 $329 87.950256248667174 $482 95.190893276772343 $196 $484 forward 7 unknown #
coedge $-1 $197 $474 $480 $485 forward $327 $-1 #
loop $-1 $-1 $474 $315 #
vertex $-1 $324 $486 #
vertex $-1 $198 $487 #
straight-curve $-1 6.3765812479826494 -10.269988893718434 6.2095339237743232 -1 0 0 I I #
coedge $-1 $331 $331 $-1 $488 reversed $201 $-1 #
edge $-1 $489 0 $489 6.2831853071796004 $202 $490 forward 7 unknown #
vertex $-1 $205 $491 #
ellipse-curve $-1 44.46015884942716 -13.347111528011833 4.3993746424964577 0.50000000669873634 0 0.8660253999169214 1.2990380998753821 0 -0.75000001004810457 1 I I #
face $-1 $-1 $347 $46 $-1 $492 forward single #
loop $-1 $-1 $493 $206 #
plane-surface $-1 47.595446638386179 0 0 -1 0 0 0 0 1 forward_v I I I I #
coedge $-1 $494 $495 $496 $497 reversed $207 $-1 #
coedge $-1 $498 $209 $211 $345 forward $130 $-1 #
coedge $-1 $209 $498 $494 $499 forward $130 $-1 #
coedge $-1 $496 $212 $209 $342 forward $347 $-1 #
edge $-1 $349 -1.5710695018976342 $500 4.5831757666891644 $341 $501 forward 7 unknown #
coedge $-1 $502 $503 $210 $344 forward $336 $-1 #
edge $-1 $504 -63.721981666645995 $348 -60.101663104090299 $343 $505 forward 7 unknown #
edge $-1 $349 87.950256248667174 $504 95.190893276772343 $211 $506 forward 7 unknown #
coedge $-1 $212 $496 $502 $507 forward $347 $-1 #
loop $-1 $-1 $496 $335 #
vertex $-1 $344 $508 #
vertex $-1 $213 $509 #
straight-curve $-1 6.3765812479826494 0.065016369501869065 6.2095339237743232 -1 0 0 I I #
coedge $-1 $351 $351 $-1 $510 reversed $216 $-1 #
edge $-1 $511 0 $511 6.2831853071796004 $217 $512 forward 7 unknown #
vertex $-1 $220 $513 #
ellipse-curve $-1 44.46015884942716 -3.0121062647915302 4.3993746424964577 0.50000000669873634 0 0.8660253999169214 1.2990380998753821 0 -0.75000001004810457 1 I I #
face $-1 $-1 $367 $48 $-1 $514 forward single #
loop $-1 $-1 $515 $221 #
plane-surface $-1 47.595446638386179 0 0 -1 0 0 0 0 1 forward_v I I I I #
coedge $-1 $516 $517 $518 $519 reversed $222 $-1 #
coedge $-1 $520 $224 $226 $365 forward $139 $-1 #
coedge $-1 $224 $520 $516 $521 forward $139 $-1 #
coedge $-1 $518 $227 $224 $362 forward $367 $-1 #
edge $-1 $369 -6.7385721335077857 $522 -0.58432686492098718 $361 $523 forward 7 unknown #
coedge $-1 $524 $525 $225 $364 forward $356 $-1 #
edge $-1 $526 -63.721981666645995 $368 -60.101663104090299 $363 $527 forward 7 unknown #
edge $-1 $369 87.950256248667174 $526 95.190893276772343 $226 $528 forward 7 unknown #
coedge $-1 $227 $518 $524 $529 forward $367 $-1 #
loop $-1 $-1 $518 $355 #
vertex $-1 $364 $530 #
vertex $-1 $228 $531 #
straight-curve $-1 6.3765812479826494 10.400021632722172 6.2095339237743232 -1 0 0 I I #
coedge $-1 $371 $371 $-1 $532 reversed $231 $-1 #
edge $-1 $533 0 $533 6.2831853071796004 $232 $534 forward 7 unknown #
vertex $-1 $235 $535 #
ellipse-curve $-1 44.46015884942716 7.3228989984287729 4.3993746424964577 0.50000000669873634 0 0.8660253999169214 1.2990380998753821 0 -0.75000001004810457 1 I I #
face $-1 $-1 $387 $50 $-1 $536 forward single #
loop $-1 $-1 $537 $236 #
plane-surface $-1 47.595446638386179 0 0 -1 0 0 0 0 1 forward_v I I I I #
coedge $-1 $538 $539 $540 $541 reversed $237 $-1 #
coedge $-1 $542 $239 $241 $385 forward $148 $-1 #
coedge $-1 $239 $542 $538 $543 forward $148 $-1 #
coedge $-1 $540 $242 $239 $382 forward $387 $-1 #
edge $-1 $389 -11.906074765117937 $544 -5.7518294965311387 $381 $545 forward 7 unknown #
coedge $-1 $546 $547 $240 $384 forward $376 $-1 #
edge $-1 $548 -63.721981666645995 $388 -60.101663104090299 $383 $549 forward 7 unknown #
edge $-1 $389 87.950256248667174 $548 95.190893276772343 $241 $550 forward 7 unknown #
coedge $-1 $242 $540 $546 $551 forward $387 $-1 #
loop $-1 $-1 $540 $375 #
vertex $-1 $384 $552 #
vertex $-1 $243 $553 #
straight-curve $-1 6.3765812479826494 20.735026895942475 6.2095339237743232 -1 0 0 I I #
coedge $-1 $391 $391 $-1 $554 reversed $246 $-1 #
edge $-1 $555 0 $555 6.2831853071796004 $247 $556 forward 7 unknown #
vertex $-1 $250 $557 #
ellipse-curve $-1 44.46015884942716 17.657904261649076 4.3993746424964577 0.50000000669873634 0 0.8660253999169214 1.2990380998753821 0 -0.75000001004810457 1 I I #
face $-1 $-1 $558 $52 $-1 $559 reversed single #
loop $-1 $-1 $257 $251 #
plane-surface $-1 0 0 6.2095339237743206 0 0 1 1 0 0 forward_v I I I I #
coedge $-1 $560 $561 $562 $563 reversed $252 $-1 #
coedge $-1 $564 $254 $256 $405 forward $157 $-1 #
coedge $-1 $254 $564 $560 $565 forward $157 $-1 #
coedge $-1 $562 $257 $254 $402 forward $396 $-1 #
edge $-1 $408 -7.1545544117557833 $566 -0.69698384796215596 $401 $567 forward 7 unknown #
coedge $-1 $568 $569 $255 $404 forward $558 $-1 #
edge $-1 $570 -22.722696767361299 $407 -17.217228819846316 $403 $571 forward 7 unknown #
edge $-1 $408 -6.2946991184594978 $570 0 $256 $572 forward 7 unknown #
coedge $-1 $257 $562 $568 $573 forward $396 $-1 #
vertex $-1 $404 $574 #
vertex $-1 $258 $575 #
straight-curve $-1 -65.425639282144274 -11.080323541614753 6.2095339237743197 1 0 0 I I #
coedge $-1 $410 $410 $-1 $576 reversed $261 $-1 #
edge $-1 $577 0 $577 6.2831853071796004 $262 $578 forward 7 unknown #
vertex $-1 $265 $579 #
ellipse-curve $-1 -46.069581337088259 -9.7888094288560268 3.456799950016828 -0.87461971476443456 0 0.48480960649040278 0.24240480324520139 0 0.43730985738221728 1 I I #
coedge $-1 $414 $414 $-1 $580 reversed $268 $-1 #
edge $-1 $581 0 $581 6.2831853071796004 $269 $582 forward 7 unknown #
vertex $-1 $272 $583 #
ellipse-curve $-1 -46.069581337088259 -7.8515382597179375 3.456799950016828 -0.87461971476443456 0 0.48480960649040278 0.24240480324520139 0 0.43730985738221728 1 I I #
coedge $-1 $418 $418 $-1 $584 reversed $275 $-1 #
edge $-1 $585 0 $585 6.2831853071796004 $276 $586 forward 7 unknown #
vertex $-1 $279 $587 #
ellipse-curve $-1 -46.069581337088259 -5.9142670905798482 3.456799950016828 -0.87461971476443456 0 0.48480960649040278 0.24240480324520139 0 0.43730985738221728 1 I I #
face $-1 $-1 $295 $42 $-1 $588 reversed single #
loop $-1 $-1 $438 $280 #
plane-surface $-1 0 22.898599765948635 0 0 -1 0 0 0 -1 forward_v I I I I #
coedge $-1 $589 $436 $439 $590 forward $281 $-1 #
coedge $-1 $442 $283 $284 $430 reversed $176 $-1 #
coedge $-1 $436 $589 $283 $428 reversed $281 $-1 #
edge $-1 $443 -6.2095339237743206 $591 6.2095339237743206 $427 $592 forward 7 unknown #
coedge $-1 $285 $284 $589 $593 forward $113 $-1 #
edge $-1 $434 -47.595446638386179 $591 47.595446638386179 $426 $594 forward 7 unknown #
coedge $-1 $439 $438 $285 $432 reversed $423 $-1 #
edge $-1 $595 -47.595446638386179 $433 47.595446638386179 $431 $596 forward 7 unknown #
vertex $-1 $287 $597 #
vertex $-1 $445 $598 #
straight-curve $-1 47.595446638386179 0 -6.2095339237743206 0 -1 0 I I #
coedge $-1 $425 $427 $288 $437 reversed $281 $-1 #
edge $-1 $440 -22.898599765948635 $443 22.898599765948635 $436 $599 forward 7 unknown #
coedge $-1 $431 $289 $294 $446 forward $423 $-1 #
coedge $-1 $289 $431 $425 $590 reversed $423 $-1 #
vertex $-1 $290 $600 #
straight-curve $-1 0 22.898599765948635 6.2095339237743206 -1 0 0 I I #
coedge $-1 $291 $426 $293 $445 reversed $176 $-1 #
vertex $-1 $437 $601 #
straight-curve $-1 0 -22.898599765948635 6.2095339237743206 1 0 0 I I #
edge $-1 $296 -6.2095339237743206 $434 6.2095339237743206 $293 $602 forward 7 unknown #
edge $-1 $297 -6.2095339237743206 $433 6.2095339237743206 $294 $603 forward 7 unknown #
point $-1 47.595446638386179 -22.898599765948635 6.2095339237743206 #
point $-1 47.595446638386179 22.898599765948635 6.2095339237743206 #
face $-1 $-1 $604 $43 $-1 $605 reversed single #
loop $-1 $-1 $309 $299 #
plane-surface $-1 0 -22.898599765948635 0 0 1 0 0 0 1 forward_v I I I I #
coedge $-1 $606 $302 $456 $607 forward $184 $-1 #
coedge $-1 $302 $606 $608 $609 forward $184 $-1 #
edge $-1 $610 -47.595446638386179 $457 47.595446638386179 $302 $611 forward 7 unknown #
coedge $-1 $304 $303 $612 $613 reversed $117 $-1 #
coedge $-1 $305 $311 $452 $607 reversed $300 $-1 #
vertex $-1 $607 $614 #
straight-curve $-1 47.595446638386179 -18.587807032311385 -2.3547669618871603 0 0 1 I I #
coedge $-1 $612 $615 $307 $460 forward $604 $-1 #
edge $-1 $465 -12.52699806638363 $461 -8.2162053327463802 $459 $616 forward 7 unknown #
vertex $-1 $460 $617 #
straight-curve $-1 0 -18.587807032311385 -3.2095339237743206 -1 0 0 I I #
coedge $-1 $618 $309 $615 $619 forward $450 $-1 #
coedge $-1 $309 $618 $311 $467 reversed $450 $-1 #
vertex $-1 $619 $620 #
straight-curve $-1 0 -22.898599765948635 -3.2095339237743206 -1 0 0 I I #
edge $-1 $313 3.2095339237743206 $621 6.2095339237743206 $311 $622 forward 7 unknown #
point $-1 47.595446638386179 -18.587807032311385 -3.2095339237743206 #
point $-1 47.595446638386179 -22.898599765948635 -3.2095339237743206 #
plane-surface $-1 0 0 6.2095339237743206 0 0 1 1 0 0 forward_v I I I I #
coedge $-1 $481 $480 $473 $623 forward $316 $-1 #
coedge $-1 $473 $318 $320 $477 reversed $192 $-1 #
coedge $-1 $318 $472 $471 $623 reversed $192 $-1 #
coedge $-1 $326 $321 $318 $475 forward $327 $-1 #
edge $-1 $478 34.948289812485484 $624 41.218865390403529 $474 $625 forward 7 unknown #
coedge $-1 $320 $319 $481 $626 reversed $121 $-1 #
edge $-1 $627 -95.190893276772343 $478 -87.950256248667174 $472 $628 forward 7 unknown #
vertex $-1 $322 $629 #
straight-curve $-1 41.324871060468134 -6.6735557640059167 6.2095339237743232 0 -1 0 I I #
coedge $-1 $471 $323 $326 $485 reversed $316 $-1 #
coedge $-1 $323 $471 $476 $626 forward $316 $-1 #
vertex $-1 $324 $630 #
straight-curve $-1 47.595446638386179 -10.269988893718434 66.311197027864623 0 0 1 I I #
straight-curve $-1 -34.842284780079574 -10.269988893718434 50.184662637263486 0.8660253999169214 0 -0.50000000669873634 I I #
edge $-1 $624 -16.424234162305233 $328 -10.269988893718434 $480 $631 forward 7 unknown #
point $-1 47.595446638386179 -10.269988893718434 6.2095339237743206 #
point $-1 41.324871060468134 -10.269988893718434 6.2095339237743232 #
edge $-1 $632 1 $632 0 $331 $-1 forward 7 unknown #
vertex $-1 $332 $633 #
ellipse-curve $-1 42.609707150695542 -13.347111528011833 1.1942983405943925 0.50000000669873634 0 0.8660253999169214 1.2990380998753821 0 -0.75000001004810457 1 I I #
point $-1 45.759196949302549 -13.347111528011833 3.649374632448362 #
plane-surface $-1 0 0 6.2095339237743206 0 0 1 1 0 0 forward_v I I I I #
coedge $-1 $503 $502 $495 $634 forward $336 $-1 #
coedge $-1 $495 $338 $340 $499 reversed $207 $-1 #
coedge $-1 $338 $494 $493 $634 reversed $207 $-1 #
coedge $-1 $346 $341 $338 $497 forward $347 $-1 #
edge $-1 $500 34.948289812485484 $635 41.218865390403529 $496 $636 forward 7 unknown #
coedge $-1 $340 $339 $503 $637 reversed $130 $-1 #
edge $-1 $638 -95.190893276772343 $500 -87.950256248667174 $494 $639 forward 7 unknown #
vertex $-1 $342 $640 #
straight-curve $-1 41.324871060468134 -1.5060531323957651 6.2095339237743232 0 -1 0 I I #
coedge $-1 $493 $343 $346 $507 reversed $336 $-1 #
coedge $-1 $343 $493 $498 $637 forward $336 $-1 #
vertex $-1 $344 $641 #
straight-curve $-1 47.595446638386179 0.065016369501869065 66.311197027864623 0 0 1 I I #
straight-curve $-1 -34.842284780079574 0.065016369501869065 50.184662637263486 0.8660253999169214 0 -0.50000000669873634 I I #
edge $-1 $635 -6.0892288990849295 $348 0.065016369501869065 $502 $642 forward 7 unknown #
point $-1 47.595446638386179 0.065016369501869065 6.2095339237743206 #
point $-1 41.324871060468134 0.065016369501869065 6.2095339237743232 #
edge $-1 $643 1 $643 0 $351 $-1 forward 7 unknown #
vertex $-1 $352 $644 #
ellipse-curve $-1 42.609707150695542 -3.0121062647915302 1.1942983405943925 0.50000000669873634 0 0.8660253999169214 1.2990380998753821 0 -0.75000001004810457 1 I I #
point $-1 45.759196949302549 -3.0121062647915302 3.649374632448362 #
plane-surface $-1 0 0 6.2095339237743206 0 0 1 1 0 0 forward_v I I I I #
coedge $-1 $525 $524 $517 $645 forward $356 $-1 #
coedge $-1 $517 $358 $360 $521 reversed $222 $-1 #
coedge $-1 $358 $516 $515 $645 reversed $222 $-1 #
coedge $-1 $366 $361 $358 $519 forward $367 $-1 #
edge $-1 $522 34.948289812485484 $646 41.218865390403529 $518 $647 forward 7 unknown #
coedge $-1 $360 $359 $525 $648 reversed $139 $-1 #
edge $-1 $649 -95.190893276772343 $522 -87.950256248667174 $516 $650 forward 7 unknown #
vertex $-1 $362 $651 #
straight-curve $-1 41.324871060468134 3.6614494992143864 6.2095339237743232 0 -1 0 I I #
coedge $-1 $515 $363 $366 $529 reversed $356 $-1 #
coedge $-1 $363 $515 $520 $648 forward $356 $-1 #
vertex $-1 $364 $652 #
straight-curve $-1 47.595446638386179 10.400021632722172 66.311197027864623 0 0 1 I I #
straight-curve $-1 -34.842284780079574 10.400021632722172 50.184662637263486 0.8660253999169214 0 -0.50000000669873634 I I #
edge $-1 $646 4.2457763641353736 $368 10.400021632722172 $524 $653 forward 7 unknown #
point $-1 47.595446638386179 10.400021632722172 6.2095339237743206 #
point $-1 41.324871060468134 10.400021632722172 6.2095339237743232 #
edge $-1 $654 1 $654 0 $371 $-1 forward 7 unknown #
vertex $-1 $372 $655 #
ellipse-curve $-1 42.609707150695542 7.3228989984287729 1.1942983405943925 0.50000000669873634 0 0.8660253999169214 1.2990380998753821 0 -0.75000001004810457 1 I I #
point $-1 45.759196949302549 7.3228989984287729 3.649374632448362 #
plane-surface $-1 0 0 6.2095339237743206 0 0 1 1 0 0 forward_v I I I I #
coedge $-1 $547 $546 $539 $656 forward $376 $-1 #
coedge $-1 $539 $378 $380 $543 reversed $237 $-1 #
coedge $-1 $378 $538 $537 $656 reversed $237 $-1 #
coedge $-1 $386 $381 $378 $541 forward $387 $-1 #
edge $-1 $544 34.948289812485484 $657 41.218865390403529 $540 $658 forward 7 unknown #
coedge $-1 $380 $379 $547 $659 reversed $148 $-1 #
edge $-1 $660 -95.190893276772343 $544 -87.950256248667174 $538 $661 forward 7 unknown #
vertex $-1 $382 $662 #
straight-curve $-1 41.324871060468134 8.828952130824538 6.2095339237743232 0 -1 0 I I #
coedge $-1 $537 $383 $386 $551 reversed $376 $-1 #
coedge $-1 $383 $537 $542 $659 forward $376 $-1 #
vertex $-1 $384 $663 #
straight-curve $-1 47.595446638386179 20.735026895942475 66.311197027864623 0 0 1 I I #
straight-curve $-1 -34.842284780079574 20.735026895942475 50.184662637263486 0.8660253999169214 0 -0.50000000669873634 I I #
edge $-1 $657 14.580781627355677 $388 20.735026895942475 $546 $664 forward 7 unknown #
point $-1 47.595446638386179 20.735026895942475 6.2095339237743206 #
point $-1 41.324871060468134 20.735026895942475 6.2095339237743232 #
edge $-1 $665 1 $665 0 $391 $-1 forward 7 unknown #
vertex $-1 $392 $666 #
ellipse-curve $-1 42.609707150695542 17.657904261649076 1.1942983405943925 0.50000000669873634 0 0.8660253999169214 1.2990380998753821 0 -0.75000001004810457 1 I I #
point $-1 45.759196949302549 17.657904261649076 3.649374632448362 #
loop $-1 $-1 $403 $395 #
plane-surface $-1 -47.595446638386179 0 0 1 0 0 0 0 -1 forward_v I I I I #
coedge $-1 $561 $398 $400 $565 reversed $252 $-1 #
coedge $-1 $398 $560 $667 $668 reversed $252 $-1 #
coedge $-1 $406 $401 $398 $563 forward $396 $-1 #
edge $-1 $566 -20.881923246353928 $669 -17.830192643758096 $562 $670 forward 7 unknown #
coedge $-1 $400 $399 $569 $671 reversed $157 $-1 #
edge $-1 $672 0 $566 6.2946991184594978 $560 $673 forward 7 unknown #
vertex $-1 $402 $674 #
straight-curve $-1 -44.543716035790339 -3.9257691298589696 6.2095339237743215 0 1 0 I I #
coedge $-1 $667 $403 $406 $573 reversed $558 $-1 #
coedge $-1 $403 $667 $564 $671 forward $558 $-1 #
vertex $-1 $404 $675 #
straight-curve $-1 -47.595446638386179 -11.080323541614753 23.426762743620635 0 0 1 I I #
straight-curve $-1 -47.595446638386179 -11.080323541614753 0.70406597625933642 -0.48480960649040278 0 -0.87461971476443456 I I #
edge $-1 $669 4.6227529778211256 $407 11.080323541614753 $568 $676 forward 7 unknown #
point $-1 -47.595446638386179 -11.080323541614753 6.2095339237743206 #
point $-1 -44.543716035790347 -11.080323541614753 6.2095339237743206 #
edge $-1 $677 1 $677 0 $410 $-1 forward 7 unknown #
vertex $-1 $411 $678 #
ellipse-curve $-1 -45.194961622323831 -9.7888094288560268 2.9719903435264281 -0.87461971476443456 0 0.48480960649040278 0.24240480324520139 0 0.43730985738221728 1 I I #
point $-1 -45.827176533843065 -9.7888094288560268 3.8941098073990483 #
edge $-1 $679 1 $679 0 $414 $-1 forward 7 unknown #
vertex $-1 $415 $680 #
ellipse-curve $-1 -45.194961622323831 -7.8515382597179375 2.9719903435264281 -0.87461971476443456 0 0.48480960649040278 0.24240480324520139 0 0.43730985738221728 1 I I #
point $-1 -45.827176533843065 -7.8515382597179375 3.8941098073990483 #
edge $-1 $681 1 $681 0 $418 $-1 forward 7 unknown #
vertex $-1 $419 $682 #
ellipse-curve $-1 -45.194961622323831 -5.9142670905798482 2.9719903435264281 -0.87461971476443456 0 0.48480960649040278 0.24240480324520139 0 0.43730985738221728 1 I I #
point $-1 -45.827176533843065 -5.9142670905798482 3.8941098073990483 #
plane-surface $-1 47.595446638386179 0 0 -1 0 0 0 0 1 forward_v I I I I #
coedge $-1 $427 $425 $429 $593 reversed $281 $-1 #
edge $-1 $440 -6.2095339237743206 $595 6.2095339237743206 $439 $683 forward 7 unknown #
vertex $-1 $593 $684 #
straight-curve $-1 -47.595446638386179 -22.898599765948635 0 0 0 -1 I I #
edge $-1 $591 -22.898599765948635 $595 22.898599765948635 $589 $685 forward 7 unknown #
straight-curve $-1 0 -22.898599765948635 -6.2095339237743206 -1 0 0 I I #
vertex $-1 $432 $686 #
straight-curve $-1 0 22.898599765948635 -6.2095339237743206 1 0 0 I I #
point $-1 47.595446638386179 22.898599765948635 -6.2095339237743206 #
point $-1 47.595446638386179 -22.898599765948635 -6.2095339237743206 #
straight-curve $-1 -47.595446638386179 0 6.2095339237743206 0 -1 0 I I #
point $-1 -47.595446638386179 22.898599765948635 6.2095339237743206 #
point $-1 -47.595446638386179 -22.898599765948635 6.2095339237743206 #
straight-curve $-1 47.595446638386179 -22.898599765948635 0 0 0 -1 I I #
straight-curve $-1 47.595446638386179 22.898599765948635 0 0 0 -1 I I #
loop $-1 $-1 $612 $449 #
plane-surface $-1 -47.595446638386179 0 0 1 0 0 0 0 -1 forward_v I I I I #
coedge $-1 $453 $452 $618 $687 forward $184 $-1 #
edge $-1 $457 18.587807032311385 $621 22.898599765948635 $456 $688 forward 7 unknown #
coedge $-1 $615 $612 $453 $609 reversed $604 $-1 #
edge $-1 $689 -22.898599765948635 $610 -18.587807032311385 $608 $690 forward 7 unknown #
vertex $-1 $613 $691 #
straight-curve $-1 0 -18.587807032311385 -6.2095339237743206 1 0 0 I I #
coedge $-1 $608 $459 $455 $613 forward $604 $-1 #
edge $-1 $461 0.85476696188716028 $610 3.8547669618871603 $612 $692 forward 7 unknown #
point $-1 47.595446638386179 -18.587807032311385 -6.2095339237743206 #
coedge $-1 $459 $608 $463 $619 reversed $604 $-1 #
straight-curve $-1 -47.595446638386179 -10.371601699565005 -3.2095339237743206 0 1 0 I I #
point $-1 -47.595446638386179 -18.587807032311385 -3.2095339237743206 #
coedge $-1 $464 $463 $606 $687 reversed $450 $-1 #
edge $-1 $465 3.2095339237743206 $689 6.2095339237743206 $615 $693 forward 7 unknown #
point $-1 -47.595446638386179 -22.898599765948635 -3.2095339237743206 #
vertex $-1 $467 $694 #
straight-curve $-1 47.595446638386179 -22.898599765948635 0 0 0 -1 I I #
edge $-1 $624 60.101663104090299 $627 63.721981666645995 $471 $695 forward 7 unknown #
vertex $-1 $485 $696 #
straight-curve $-1 6.3765812479826494 -16.424234162305233 6.2095339237743232 1 0 0 I I #
edge $-1 $627 -9.7506783982993159 $482 -3.5964331297125174 $481 $697 forward 7 unknown #
vertex $-1 $626 $698 #
straight-curve $-1 -34.842284780079574 -16.424234162305233 50.184662637263486 -0.8660253999169214 0 0.50000000669873634 I I #
point $-1 41.324871060468134 -16.424234162305233 6.2095339237743232 #
point $-1 47.595446638386171 -10.269988893718434 2.5892153612186277 #
straight-curve $-1 47.595446638386179 0 6.2095339237743206 0 1 0 I I #
vertex $-1 $488 $699 #
point $-1 43.908745250570931 -13.347111528011833 0.44429833054628798 #
edge $-1 $635 60.101663104090299 $638 63.721981666645995 $493 $700 forward 7 unknown #
vertex $-1 $507 $701 #
straight-curve $-1 6.3765812479826494 -6.0892288990849295 6.2095339237743232 1 0 0 I I #
edge $-1 $638 -4.5831757666891644 $504 1.5710695018976342 $503 $702 forward 7 unknown #
vertex $-1 $637 $703 #
straight-curve $-1 -34.842284780079574 -6.0892288990849295 50.184662637263486 -0.8660253999169214 0 0.50000000669873634 I I #
point $-1 41.324871060468134 -6.0892288990849295 6.2095339237743232 #
point $-1 47.595446638386171 0.065016369501869065 2.5892153612186277 #
straight-curve $-1 47.595446638386179 0 6.2095339237743206 0 1 0 I I #
vertex $-1 $510 $704 #
point $-1 43.908745250570931 -3.0121062647915302 0.44429833054628798 #
edge $-1 $646 60.101663104090299 $649 63.721981666645995 $515 $705 forward 7 unknown #
vertex $-1 $529 $706 #
straight-curve $-1 6.3765812479826494 4.2457763641353736 6.2095339237743232 1 0 0 I I #
edge $-1 $649 0.58432686492098718 $526 6.7385721335077857 $525 $707 forward 7 unknown #
vertex $-1 $648 $708 #
straight-curve $-1 -34.842284780079574 4.2457763641353736 50.184662637263486 -0.8660253999169214 0 0.50000000669873634 I I #
point $-1 41.324871060468134 4.2457763641353736 6.2095339237743232 #
point $-1 47.595446638386171 10.400021632722172 2.5892153612186277 #
straight-curve $-1 47.595446638386179 0 6.2095339237743206 0 1 0 I I #
vertex $-1 $532 $709 #
point $-1 43.908745250570931 7.3228989984287729 0.44429833054628798 #
edge $-1 $657 60.101663104090299 $660 63.721981666645995 $537 $710 forward 7 unknown #
vertex $-1 $551 $711 #
straight-curve $-1 6.3765812479826494 14.580781627355677 6.2095339237743232 1 0 0 I I #
edge $-1 $660 5.7518294965311387 $548 11.906074765117937 $547 $712 forward 7 unknown #
vertex $-1 $659 $713 #
straight-curve $-1 -34.842284780079574 14.580781627355677 50.184662637263486 -0.8660253999169214 0 0.50000000669873634 I I #
point $-1 41.324871060468134 14.580781627355677 6.2095339237743232 #
point $-1 47.595446638386171 20.735026895942475 2.5892153612186277 #
straight-curve $-1 47.595446638386179 0 6.2095339237743206 0 1 0 I I #
vertex $-1 $554 $714 #
point $-1 43.908745250570931 17.657904261649076 0.44429833054628798 #
coedge $-1 $569 $568 $561 $668 forward $558 $-1 #
edge $-1 $669 17.217228819846316 $672 22.722696767361299 $667 $715 forward 7 unknown #
vertex $-1 $573 $716 #
straight-curve $-1 -65.425639282144274 -4.6227529778211256 6.2095339237743197 -1 0 0 I I #
edge $-1 $672 0.69698384796215596 $570 7.1545544117557833 $569 $717 forward 7 unknown #
vertex $-1 $671 $718 #
straight-curve $-1 -47.595446638386179 -4.6227529778211256 0.70406597625933642 0.48480960649040278 0 0.87461971476443456 I I #
point $-1 -44.543716035790347 -4.6227529778211256 6.2095339237743206 #
point $-1 -47.595446638386179 -11.080323541614753 0.70406597625933642 #
straight-curve $-1 -47.595446638386179 0 6.2095339237743206 0 -1 0 I I #
vertex $-1 $576 $719 #
point $-1 -44.95255681907863 -9.7888094288560268 3.4093002009086453 #
vertex $-1 $580 $720 #
point $-1 -44.95255681907863 -7.8515382597179375 3.4093002009086453 #
vertex $-1 $584 $721 #
point $-1 -44.95255681907863 -5.9142670905798482 3.4093002009086453 #
straight-curve $-1 -47.595446638386179 22.898599765948635 0 0 0 -1 I I #
point $-1 -47.595446638386179 -22.898599765948635 -6.2095339237743206 #
straight-curve $-1 -47.595446638386179 0 -6.2095339237743206 0 1 0 I I #
point $-1 -47.595446638386179 22.898599765948635 -6.2095339237743206 #
edge $-1 $621 -47.595446638386179 $689 47.595446638386179 $618 $722 forward 7 unknown #
straight-curve $-1 47.595446638386179 0 -6.2095339237743206 0 -1 0 I I #
vertex $-1 $609 $723 #
straight-curve $-1 -47.595446638386179 0 -6.2095339237743206 0 1 0 I I #
point $-1 -47.595446638386179 -18.587807032311385 -6.2095339237743206 #
straight-curve $-1 -47.595446638386179 -18.587807032311385 -2.3547669618871603 0 0 -1 I I #
straight-curve $-1 -47.595446638386179 -22.898599765948635 0 0 0 -1 I I #
point $-1 47.595446638386179 -22.898599765948635 -6.2095339237743206 #
straight-curve $-1 47.595446638386179 -16.424234162305233 66.311197027864623 0 0 -1 I I #
point $-1 47.595446638386179 -16.424234162305233 6.2095339237743206 #
straight-curve $-1 47.595446638386179 -6.6735557640059167 2.5892153612186242 0 1 0 I I #
point $-1 47.595446638386171 -16.424234162305233 2.5892153612186277 #
point $-1 41.859707140647444 -13.347111528011833 -0.10473975928098955 #
straight-curve $-1 47.595446638386179 -6.0892288990849295 66.311197027864623 0 0 -1 I I #
point $-1 47.595446638386179 -6.0892288990849295 6.2095339237743206 #
straight-curve $-1 47.595446638386179 -1.5060531323957651 2.5892153612186242 0 1 0 I I #
point $-1 47.595446638386171 -6.0892288990849295 2.5892153612186277 #
point $-1 41.859707140647444 -3.0121062647915302 -0.10473975928098955 #
straight-curve $-1 47.595446638386179 4.2457763641353736 66.311197027864623 0 0 -1 I I #
point $-1 47.595446638386179 4.2457763641353736 6.2095339237743206 #
straight-curve $-1 47.595446638386179 3.6614494992143864 2.5892153612186242 0 1 0 I I #
point $-1 47.595446638386171 4.2457763641353736 2.5892153612186277 #
point $-1 41.859707140647444 7.3228989984287729 -0.10473975928098955 #
straight-curve $-1 47.595446638386179 14.580781627355677 66.311197027864623 0 0 -1 I I #
point $-1 47.595446638386179 14.580781627355677 6.2095339237743206 #
straight-curve $-1 47.595446638386179 8.828952130824538 2.5892153612186242 0 1 0 I I #
point $-1 47.595446638386171 14.580781627355677 2.5892153612186277 #
point $-1 41.859707140647444 17.657904261649076 -0.10473975928098955 #
straight-curve $-1 -47.595446638386179 -4.6227529778211256 23.426762743620635 0 0 -1 I I #
point $-1 -47.595446638386179 -4.6227529778211256 6.2095339237743206 #
straight-curve $-1 -47.595446638386179 -3.9257691298589696 0.70406597625933587 0 -1 0 I I #
point $-1 -47.595446638386179 -4.6227529778211256 0.70406597625933642 #
point $-1 -44.757651764941613 -9.7888094288560268 2.7295855402812266 #
point $-1 -44.757651764941613 -7.8515382597179375 2.7295855402812266 #
point $-1 -44.757651764941613 -5.9142670905798482 2.7295855402812266 #
straight-curve $-1 0 -22.898599765948635 -6.2095339237743206 -1 0 0 I I #
point $-1 -47.595446638386179 -22.898599765948635 -6.2095339237743206 #
End-of-ACIS-data 