500 0 7 0           
7 Unknown 11 ACIS 5.0 NT 24 Fri Mar 26 14:55:27 1999 
-1 9.9999999999999995e-007 1e-010 
body $-1 $7 $-1 $8 #
body $-1 $9 $-1 $10 #
body $-1 $11 $-1 $12 #
body $-1 $13 $-1 $14 #
body $-1 $15 $-1 $16 #
body $-1 $17 $-1 $18 #
body $-1 $19 $-1 $20 #
lump $-1 $-1 $21 $0 #
transform $-1 1 0 0 0 1 0 0 0 1 55.424054689168983 24.975753249590486 7.3497329846850876 1 rotate no_reflect no_shear #
lump $-1 $-1 $22 $1 #
transform $-1 1 0 0 0 1 0 0 0 1 55.424054689168983 24.975753249590486 7.3497329846850876 1 rotate no_reflect no_shear #
lump $-1 $-1 $23 $2 #
transform $-1 1 0 0 0 1 0 0 0 1 55.424054689168983 24.975753249590486 7.3497329846850876 1 rotate no_reflect no_shear #
lump $-1 $-1 $24 $3 #
transform $-1 1 0 0 0 1 0 0 0 1 55.424054689168983 24.975753249590486 7.3497329846850876 1 rotate no_reflect no_shear #
lump $-1 $-1 $25 $4 #
transform $-1 1 0 0 0 1 0 0 0 1 55.424054689168983 24.975753249590486 7.3497329846850876 1 rotate no_reflect no_shear #
lump $-1 $-1 $26 $5 #
transform $-1 1 0 0 0 1 0 0 0 1 55.424054689168983 24.975753249590486 7.3497329846850876 1 rotate no_reflect no_shear #
lump $-1 $-1 $27 $6 #
transform $-1 1 0 0 0 1 0 0 0 1 55.424054689168983 24.975753249590486 7.3497329846850876 1 rotate no_reflect no_shear #
shell $-1 $-1 $-1 $28 $-1 $7 #
shell $-1 $-1 $-1 $29 $-1 $9 #
shell $-1 $-1 $-1 $30 $-1 $11 #
shell $-1 $-1 $-1 $31 $-1 $13 #
shell $-1 $-1 $-1 $32 $-1 $15 #
shell $-1 $-1 $-1 $33 $-1 $17 #
shell $-1 $-1 $-1 $34 $-1 $19 #
face $-1 $35 $36 $21 $-1 $37 forward single #
face $-1 $38 $39 $22 $-1 $40 forward single #
face $-1 $41 $42 $23 $-1 $43 forward single #
face $-1 $44 $45 $24 $-1 $46 reversed single #
face $-1 $47 $48 $25 $-1 $49 forward single #
face $-1 $50 $51 $26 $-1 $52 reversed single #
face $-1 $53 $54 $27 $-1 $55 forward single #
face $-1 $56 $57 $21 $-1 $58 reversed single #
loop $-1 $-1 $59 $28 #
plane-surface $-1 0 0 7.3497329846850876 0 0 1 1 0 0 forward_v I I I I #
face $-1 $60 $61 $22 $-1 $62 reversed single #
loop $-1 $-1 $63 $29 #
plane-surface $-1 0 -24.975753249590486 0 0 1 0 0 0 1 forward_v I I I I #
face $-1 $64 $65 $23 $-1 $66 reversed single #
loop $-1 $-1 $67 $30 #
plane-surface $-1 0 24.975753249590486 0 0 -1 0 0 0 -1 forward_v I I I I #
face $-1 $68 $69 $24 $-1 $70 reversed single #
loop $-1 $-1 $71 $31 #
plane-surface $-1 -129.59591822328514 -9.3755171333888079 84.953222736865115 0 1 0 -0.66913061440640931 0 0.74314481823134659 forward_v I I I I #
face $-1 $72 $73 $25 $-1 $74 forward single #
loop $-1 $75 $76 $32 #
cone-surface $-1 -52.130656143161005 -5.8962259381260473 4.249161916779121 0.66913061440640931 0 -0.74314481823134659 0.74314481823134659 0 0.66913061440640931 1 I I 0 1 1 forward I I I I #
face $-1 $77 $78 $26 $-1 $79 reversed single #
loop $-1 $-1 $80 $33 #
plane-surface $-1 -129.59591822328514 2.4169347428632868 84.953222736865115 0 1 0 -0.66913061440640931 0 0.74314481823134659 forward_v I I I I #
face $-1 $81 $82 $27 $-1 $83 forward single #
loop $-1 $84 $85 $34 #
cone-surface $-1 -52.130656143161005 5.8962259381260473 4.249161916779121 0.66913061440640931 0 -0.74314481823134659 0.74314481823134659 0 0.66913061440640931 1 I I 0 1 1 forward I I I I #
face $-1 $86 $87 $21 $-1 $88 reversed single #
loop $-1 $-1 $89 $35 #
plane-surface $-1 0 0 -7.3497329846850876 0 0 1 1 0 0 forward_v I I I I #
coedge $-1 $90 $91 $92 $93 forward $36 $-1 #
face $-1 $94 $95 $22 $-1 $96 reversed single #
loop $-1 $-1 $97 $38 #
plane-surface $-1 0 0 -7.3497329846850876 0 0 1 1 0 0 forward_v I I I I #
coedge $-1 $98 $99 $100 $101 forward $39 $-1 #
face $-1 $102 $103 $23 $-1 $104 forward single #
loop $-1 $-1 $105 $41 #
plane-surface $-1 -55.424054689168983 0 0 1 0 0 0 0 -1 forward_v I I I I #
coedge $-1 $106 $107 $108 $109 forward $42 $-1 #
face $-1 $110 $111 $24 $-1 $112 reversed single #
loop $-1 $-1 $113 $44 #
plane-surface $-1 -55.424054689168997 -5.8962259381260473 2.5770246416117146 -0.66913061440640931 0 0.74314481823134659 0.74314481823134659 0 0.66913061440640931 forward_v I I I I #
coedge $-1 $114 $115 $116 $117 reversed $45 $-1 #
face $-1 $-1 $118 $25 $-1 $119 forward single #
loop $-1 $120 $121 $47 #
cone-surface $-1 -51.15300703995635 -5.8962259381260473 3.16337261129416 0.66913061440640931 0 -0.74314481823134659 0.3715724091156733 0 0.33456530720320465 1 I I -0.70710678118654746 0.70710678118654746 0.5 forward I I I I #
loop $-1 $-1 $122 $32 #
coedge $-1 $76 $76 $123 $124 reversed $48 $-1 #
face $-1 $125 $126 $26 $-1 $127 reversed single #
loop $-1 $-1 $128 $50 #
plane-surface $-1 -55.424054689168997 5.8962259381260473 2.5770246416117146 -0.66913061440640931 0 0.74314481823134659 0.74314481823134659 0 0.66913061440640931 forward_v I I I I #
coedge $-1 $129 $130 $131 $132 reversed $51 $-1 #
face $-1 $-1 $133 $27 $-1 $134 forward single #
loop $-1 $135 $136 $53 #
cone-surface $-1 -51.15300703995635 5.8962259381260473 3.16337261129416 0.66913061440640931 0 -0.74314481823134659 0.3715724091156733 0 0.33456530720320465 1 I I -0.70710678118654746 0.70710678118654746 0.5 forward I I I I #
loop $-1 $-1 $137 $34 #
coedge $-1 $85 $85 $138 $139 reversed $54 $-1 #
face $-1 $140 $141 $21 $-1 $142 reversed single #
loop $-1 $-1 $143 $56 #
plane-surface $-1 0 -24.975753249590486 0 0 1 0 0 0 1 forward_v I I I I #
coedge $-1 $144 $145 $146 $147 forward $57 $-1 #
coedge $-1 $148 $59 $149 $150 forward $36 $-1 #
coedge $-1 $59 $148 $151 $152 forward $36 $-1 #
coedge $-1 $153 $154 $59 $93 reversed $155 $-1 #
edge $-1 $156 -24.975753249590486 $157 24.975753249590486 $92 $158 forward 7 unknown #
face $-1 $159 $160 $22 $-1 $161 forward single #
loop $-1 $-1 $162 $60 #
plane-surface $-1 55.424054689168983 0 0 -1 0 0 0 0 1 forward_v I I I I #
coedge $-1 $163 $164 $165 $166 forward $61 $-1 #
coedge $-1 $165 $63 $162 $167 reversed $39 $-1 #
coedge $-1 $63 $165 $168 $169 reversed $39 $-1 #
coedge $-1 $170 $171 $63 $101 reversed $160 $-1 #
edge $-1 $172 -55.424054689168983 $173 55.424054689168983 $100 $174 forward 7 unknown #
face $-1 $175 $176 $23 $-1 $177 reversed single #
loop $-1 $-1 $178 $64 #
plane-surface $-1 0 29.279051407954395 -4.2670485673835037 0 0 1 1 0 0 forward_v I I I I #
coedge $-1 $179 $180 $106 $181 forward $65 $-1 #
coedge $-1 $182 $67 $105 $181 reversed $42 $-1 #
coedge $-1 $67 $182 $183 $184 reversed $42 $-1 #
coedge $-1 $178 $185 $67 $109 reversed $103 $-1 #
edge $-1 $186 -55.424054689168983 $187 55.424054689168983 $108 $188 forward 7 unknown #
face $-1 $189 $190 $24 $-1 $191 reversed single #
loop $-1 $-1 $192 $68 #
plane-surface $-1 -129.59591822328514 -2.4169347428632868 84.953222736865115 0 -1 0 0.66913061440640931 0 -0.74314481823134659 forward_v I I I I #
coedge $-1 $193 $194 $195 $196 reversed $69 $-1 #
coedge $-1 $115 $71 $197 $198 reversed $45 $-1 #
coedge $-1 $71 $114 $193 $199 reversed $45 $-1 #
coedge $-1 $195 $200 $71 $117 forward $201 $-1 #
edge $-1 $202 9.3739044224735864 $203 14.67453392248666 $116 $204 forward 7 unknown #
loop $-1 $-1 $123 $72 #
plane-surface $-1 -55.424054689168997 -5.8962259381260473 2.5770246416117146 -0.66913061440640931 0 0.74314481823134659 0.74314481823134659 0 0.66913061440640931 forward_v I I I I #
loop $-1 $-1 $205 $47 #
coedge $-1 $121 $121 $122 $206 reversed $73 $-1 #
coedge $-1 $122 $122 $121 $206 forward $75 $-1 #
coedge $-1 $123 $123 $76 $124 forward $118 $-1 #
edge $-1 $207 0 $207 6.2831853071796004 $123 $208 forward 7 unknown #
face $-1 $209 $210 $26 $-1 $211 forward single #
loop $-1 $-1 $212 $77 #
plane-surface $-1 -129.59591822328514 9.3755171333888079 84.953222736865115 0 -1 0 0.66913061440640931 0 -0.74314481823134659 forward_v I I I I #
coedge $-1 $213 $214 $215 $216 reversed $78 $-1 #
coedge $-1 $130 $80 $217 $218 reversed $51 $-1 #
coedge $-1 $80 $129 $213 $219 reversed $51 $-1 #
coedge $-1 $215 $220 $80 $132 forward $210 $-1 #
edge $-1 $221 9.3739044224735864 $222 14.67453392248666 $131 $223 forward 7 unknown #
loop $-1 $-1 $138 $81 #
plane-surface $-1 -55.424054689168997 5.8962259381260473 2.5770246416117146 -0.66913061440640931 0 0.74314481823134659 0.74314481823134659 0 0.66913061440640931 forward_v I I I I #
loop $-1 $-1 $224 $53 #
coedge $-1 $136 $136 $137 $225 reversed $82 $-1 #
coedge $-1 $137 $137 $136 $225 forward $84 $-1 #
coedge $-1 $138 $138 $85 $139 forward $133 $-1 #
edge $-1 $226 0 $226 6.2831853071796004 $138 $227 forward 7 unknown #
face $-1 $228 $229 $21 $-1 $230 reversed single #
loop $-1 $-1 $231 $86 #
plane-surface $-1 -55.424054689168983 0 0 1 0 0 0 0 -1 forward_v I I I I #
coedge $-1 $151 $232 $153 $233 reversed $87 $-1 #
coedge $-1 $234 $89 $232 $235 forward $57 $-1 #
coedge $-1 $89 $234 $236 $237 forward $57 $-1 #
coedge $-1 $154 $153 $89 $147 reversed $155 $-1 #
edge $-1 $238 -24.975753249590486 $239 24.975753249590486 $146 $240 forward 7 unknown #
coedge $-1 $91 $90 $241 $242 forward $36 $-1 #
coedge $-1 $243 $244 $90 $150 reversed $229 $-1 #
edge $-1 $157 -55.424054689168983 $245 55.424054689168983 $149 $246 forward 7 unknown #
coedge $-1 $247 $143 $91 $152 reversed $87 $-1 #
edge $-1 $248 -55.424054689168983 $156 55.424054689168983 $151 $249 forward 7 unknown #
coedge $-1 $146 $92 $143 $233 forward $155 $-1 #
coedge $-1 $92 $146 $243 $250 reversed $155 $-1 #
loop $-1 $-1 $153 $228 #
vertex $-1 $93 $251 #
vertex $-1 $93 $252 #
straight-curve $-1 55.424054689168983 0 7.3497329846850876 0 1 0 I I #
face $-1 $253 $254 $22 $-1 $255 reversed single #
loop $-1 $-1 $171 $94 #
plane-surface $-1 0 -29.279051407954395 -4.2670485673835037 0 0 1 1 0 0 forward_v I I I I #
coedge $-1 $256 $257 $98 $167 forward $95 $-1 #
coedge $-1 $258 $97 $257 $259 forward $61 $-1 #
coedge $-1 $97 $258 $260 $261 forward $61 $-1 #
coedge $-1 $99 $98 $97 $166 reversed $39 $-1 #
edge $-1 $262 -55.424054689168983 $263 55.424054689168983 $97 $264 forward 7 unknown #
edge $-1 $263 -7.3497329846850876 $173 -4.2670485673835037 $162 $265 forward 7 unknown #
coedge $-1 $260 $266 $99 $169 forward $267 $-1 #
edge $-1 $172 4.2670485673835037 $262 7.3497329846850876 $168 $268 forward 7 unknown #
coedge $-1 $269 $100 $266 $270 forward $160 $-1 #
coedge $-1 $100 $269 $256 $271 forward $160 $-1 #
vertex $-1 $169 $272 #
vertex $-1 $271 $273 #
straight-curve $-1 0 -24.975753249590486 -4.2670485673835037 1 0 0 I I #
face $-1 $274 $275 $23 $-1 $276 reversed single #
loop $-1 $-1 $277 $102 #
plane-surface $-1 0 33.5823495663183 -5.8083907760342957 0 -1 0 0 0 -1 forward_v I I I I #
coedge $-1 $278 $108 $279 $280 forward $103 $-1 #
coedge $-1 $281 $105 $185 $282 reversed $65 $-1 #
coedge $-1 $105 $281 $283 $284 reversed $65 $-1 #
edge $-1 $285 -7.3497329846850876 $187 -4.2670485673835037 $105 $286 forward 7 unknown #
coedge $-1 $107 $106 $287 $288 reversed $42 $-1 #
coedge $-1 $289 $279 $107 $184 forward $290 $-1 #
edge $-1 $186 4.2670485673835037 $291 7.3497329846850876 $183 $292 forward 7 unknown #
coedge $-1 $108 $278 $179 $282 forward $103 $-1 #
vertex $-1 $184 $293 #
vertex $-1 $282 $294 #
straight-curve $-1 0 24.975753249590486 -4.2670485673835037 -1 0 0 I I #
face $-1 $-1 $201 $24 $-1 $295 forward single #
loop $-1 $-1 $296 $110 #
plane-surface $-1 -55.424054689168983 0 0 1 0 0 0 0 -1 forward_v I I I I #
coedge $-1 $297 $298 $299 $300 reversed $111 $-1 #
coedge $-1 $301 $113 $115 $199 forward $69 $-1 #
coedge $-1 $113 $301 $297 $302 forward $69 $-1 #
coedge $-1 $299 $116 $113 $196 forward $201 $-1 #
edge $-1 $203 -6.4274041643257842 $303 0.53117822619973687 $195 $304 forward 7 unknown #
coedge $-1 $305 $306 $114 $198 forward $190 $-1 #
edge $-1 $307 -39.899586726820829 $202 -35.126878383747467 $197 $308 forward 7 unknown #
edge $-1 $203 -7.1327006122822212 $307 -1.9178179933549516e-014 $115 $309 forward 7 unknown #
coedge $-1 $116 $299 $305 $310 forward $201 $-1 #
loop $-1 $-1 $299 $189 #
vertex $-1 $198 $311 #
vertex $-1 $117 $312 #
straight-curve $-1 -64.797959111642569 -9.3755171333888079 7.3497329846850903 1 0 0 I I #
coedge $-1 $205 $205 $-1 $313 reversed $120 $-1 #
edge $-1 $314 0 $314 6.2831853071796004 $121 $315 forward 7 unknown #
vertex $-1 $124 $316 #
ellipse-curve $-1 -52.773739939162454 -5.8962259381260473 4.963378813148406 -0.66913061440640931 0 0.74314481823134659 0.74314481823134659 0 0.66913061440640931 1 I I #
face $-1 $-1 $317 $26 $-1 $318 reversed single #
loop $-1 $-1 $131 $125 #
plane-surface $-1 0 0 7.3497329846850876 0 0 1 1 0 0 forward_v I I I I #
coedge $-1 $319 $320 $321 $322 reversed $126 $-1 #
coedge $-1 $323 $128 $130 $219 forward $78 $-1 #
coedge $-1 $128 $323 $319 $324 forward $78 $-1 #
coedge $-1 $321 $131 $128 $216 forward $210 $-1 #
edge $-1 $222 -0.53117822619973687 $325 6.4274041643257842 $215 $326 forward 7 unknown #
coedge $-1 $327 $328 $129 $218 forward $317 $-1 #
edge $-1 $329 -39.899586726820829 $221 -35.126878383747467 $217 $330 forward 7 unknown #
edge $-1 $222 -7.1327006122822212 $329 -1.9178179933549516e-014 $130 $331 forward 7 unknown #
coedge $-1 $131 $321 $327 $332 forward $210 $-1 #
vertex $-1 $132 $333 #
vertex $-1 $132 $334 #
straight-curve $-1 -64.797959111642569 2.4169347428632868 7.3497329846850903 1 0 0 I I #
coedge $-1 $224 $224 $-1 $335 reversed $135 $-1 #
edge $-1 $336 0 $336 6.2831853071796004 $136 $337 forward 7 unknown #
vertex $-1 $139 $338 #
ellipse-curve $-1 -52.773739939162454 5.8962259381260473 4.963378813148406 -0.66913061440640931 0 0.74314481823134659 0.74314481823134659 0 0.66913061440640931 1 I I #
face $-1 $-1 $155 $21 $-1 $339 reversed single #
loop $-1 $-1 $244 $140 #
plane-surface $-1 0 24.975753249590486 0 0 -1 0 0 0 -1 forward_v I I I I #
coedge $-1 $340 $241 $244 $341 forward $141 $-1 #
coedge $-1 $143 $247 $144 $235 reversed $87 $-1 #
edge $-1 $156 -7.3497329846850876 $239 7.3497329846850876 $153 $342 forward 7 unknown #
coedge $-1 $145 $144 $340 $343 forward $57 $-1 #
edge $-1 $239 -55.424054689168983 $344 55.424054689168983 $232 $345 forward 7 unknown #
coedge $-1 $244 $243 $145 $237 reversed $229 $-1 #
edge $-1 $346 -55.424054689168983 $238 55.424054689168983 $236 $347 forward 7 unknown #
vertex $-1 $147 $348 #
vertex $-1 $233 $349 #
straight-curve $-1 55.424054689168983 0 -7.3497329846850876 0 -1 0 I I #
coedge $-1 $231 $350 $148 $242 reversed $141 $-1 #
edge $-1 $245 -24.975753249590486 $248 24.975753249590486 $241 $351 forward 7 unknown #
coedge $-1 $236 $149 $154 $250 forward $229 $-1 #
coedge $-1 $149 $236 $231 $341 reversed $229 $-1 #
vertex $-1 $150 $352 #
straight-curve $-1 0 24.975753249590486 7.3497329846850876 -1 0 0 I I #
coedge $-1 $232 $151 $350 $353 forward $87 $-1 #
vertex $-1 $242 $354 #
straight-curve $-1 0 -24.975753249590486 7.3497329846850876 1 0 0 I I #
edge $-1 $157 -7.3497329846850876 $238 7.3497329846850876 $154 $355 forward 7 unknown #
point $-1 55.424054689168983 -24.975753249590486 7.3497329846850876 #
point $-1 55.424054689168983 24.975753249590486 7.3497329846850876 #
face $-1 $-1 $267 $22 $-1 $356 reversed single #
loop $-1 $-1 $357 $159 #
plane-surface $-1 0 -33.5823495663183 -5.8083907760342957 0 1 0 0 0 1 forward_v I I I I #
coedge $-1 $358 $162 $171 $271 reversed $95 $-1 #
coedge $-1 $162 $358 $163 $259 reversed $95 $-1 #
coedge $-1 $164 $163 $359 $360 forward $61 $-1 #
edge $-1 $263 24.975753249590486 $361 33.5823495663183 $257 $362 forward 7 unknown #
coedge $-1 $363 $168 $164 $261 reversed $267 $-1 #
edge $-1 $364 -33.5823495663183 $262 -24.975753249590486 $260 $365 forward 7 unknown #
vertex $-1 $169 $366 #
vertex $-1 $259 $367 #
straight-curve $-1 0 -24.975753249590486 -7.3497329846850876 1 0 0 I I #
straight-curve $-1 55.424054689168983 -24.975753249590486 0 0 0 1 I I #
coedge $-1 $168 $363 $170 $270 reversed $267 $-1 #
loop $-1 $-1 $168 $253 #
straight-curve $-1 -55.424054689168983 -24.975753249590486 0 0 0 -1 I I #
coedge $-1 $171 $170 $368 $369 forward $160 $-1 #
edge $-1 $172 -4.3032981583639085 $370 4.3032981583639049 $266 $371 forward 7 unknown #
edge $-1 $372 -4.3032981583639049 $173 4.3032981583639085 $256 $373 forward 7 unknown #
point $-1 -55.424054689168983 -24.975753249590486 -4.2670485673835037 #
point $-1 55.424054689168983 -24.975753249590486 -4.2670485673835037 #
face $-1 $-1 $290 $23 $-1 $374 reversed single #
loop $-1 $-1 $287 $175 #
plane-surface $-1 0 0 -7.3497329846850876 0 0 1 1 0 0 forward_v I I I I #
coedge $-1 $375 $376 $377 $378 forward $176 $-1 #
coedge $-1 $185 $178 $376 $379 forward $103 $-1 #
coedge $-1 $183 $377 $178 $280 reversed $290 $-1 #
edge $-1 $186 -4.3032981583639085 $380 4.3032981583639049 $279 $381 forward 7 unknown #
coedge $-1 $180 $179 $382 $383 forward $65 $-1 #
edge $-1 $384 -4.3032981583639049 $187 4.3032981583639085 $179 $385 forward 7 unknown #
coedge $-1 $386 $287 $180 $284 forward $275 $-1 #
edge $-1 $285 -4.3032981583639085 $387 4.3032981583639049 $180 $388 forward 7 unknown #
vertex $-1 $284 $389 #
straight-curve $-1 -55.424054689168983 24.975753249590486 0 0 0 1 I I #
coedge $-1 $283 $390 $182 $288 forward $275 $-1 #
edge $-1 $291 -55.424054689168983 $285 55.424054689168983 $287 $391 forward 7 unknown #
coedge $-1 $377 $183 $390 $392 reversed $290 $-1 #
loop $-1 $-1 $183 $274 #
vertex $-1 $184 $393 #
straight-curve $-1 55.424054689168983 24.975753249590486 0 0 0 -1 I I #
point $-1 55.424054689168983 24.975753249590486 -4.2670485673835037 #
point $-1 -55.424054689168983 24.975753249590486 -4.2670485673835037 #
plane-surface $-1 0 0 7.3497329846850876 0 0 1 1 0 0 forward_v I I I I #
coedge $-1 $306 $305 $298 $394 forward $190 $-1 #
coedge $-1 $298 $192 $194 $302 reversed $111 $-1 #
coedge $-1 $192 $297 $296 $394 reversed $111 $-1 #
coedge $-1 $200 $195 $192 $300 forward $201 $-1 #
edge $-1 $303 -14.67453392248666 $395 -9.3739044224735864 $299 $396 forward 7 unknown #
coedge $-1 $194 $193 $306 $397 reversed $69 $-1 #
edge $-1 $398 1.9178179933549516e-014 $303 7.1327006122822212 $297 $399 forward 7 unknown #
vertex $-1 $196 $400 #
straight-curve $-1 -50.123425189155917 -2.9481129690630237 7.349732984685085 0 1 0 I I #
coedge $-1 $296 $197 $200 $310 reversed $190 $-1 #
coedge $-1 $197 $296 $301 $397 forward $190 $-1 #
vertex $-1 $198 $401 #
straight-curve $-1 -55.424054689168983 -9.3755171333888079 42.476611368432557 0 0 1 I I #
straight-curve $-1 -55.424054689168997 -9.3755171333888079 2.5770246416117146 -0.74314481823134659 0 -0.66913061440640931 I I #
edge $-1 $395 2.4169347428632868 $202 9.3755171333888079 $305 $402 forward 7 unknown #
point $-1 -55.424054689168983 -9.3755171333888079 7.3497329846850876 #
point $-1 -50.12342518915591 -9.3755171333888079 7.3497329846850876 #
edge $-1 $403 1 $403 0 $205 $-1 forward 7 unknown #
vertex $-1 $206 $404 #
ellipse-curve $-1 -51.487572347159556 -5.8962259381260473 3.5349450204098334 -0.66913061440640931 0 0.74314481823134659 0.74314481823134659 0 0.66913061440640931 1 I I #
point $-1 -52.030595120931103 -5.8962259381260473 5.632509427554818 #
loop $-1 $-1 $217 $209 #
plane-surface $-1 -55.424054689168983 0 0 1 0 0 0 0 -1 forward_v I I I I #
coedge $-1 $320 $212 $214 $324 reversed $126 $-1 #
coedge $-1 $212 $319 $405 $406 reversed $126 $-1 #
coedge $-1 $220 $215 $212 $322 forward $210 $-1 #
edge $-1 $325 -14.67453392248666 $407 -9.3739044224735864 $321 $408 forward 7 unknown #
coedge $-1 $214 $213 $328 $409 reversed $78 $-1 #
edge $-1 $410 1.9178179933549516e-014 $325 7.1327006122822212 $319 $411 forward 7 unknown #
vertex $-1 $216 $412 #
straight-curve $-1 -50.123425189155917 2.9481129690630237 7.349732984685085 0 1 0 I I #
coedge $-1 $405 $217 $220 $332 reversed $317 $-1 #
coedge $-1 $217 $405 $323 $409 forward $317 $-1 #
vertex $-1 $218 $413 #
straight-curve $-1 -55.424054689168983 2.4169347428632868 42.476611368432557 0 0 1 I I #
straight-curve $-1 -55.424054689168997 2.4169347428632868 2.5770246416117146 -0.74314481823134659 0 -0.66913061440640931 I I #
edge $-1 $407 -9.3755171333888079 $221 -2.4169347428632868 $327 $414 forward 7 unknown #
point $-1 -55.424054689168983 2.4169347428632868 7.3497329846850876 #
point $-1 -50.12342518915591 2.4169347428632868 7.3497329846850876 #
edge $-1 $415 1 $415 0 $224 $-1 forward 7 unknown #
vertex $-1 $225 $416 #
ellipse-curve $-1 -51.487572347159556 5.8962259381260473 3.5349450204098334 -0.66913061440640931 0 0.74314481823134659 0.74314481823134659 0 0.66913061440640931 1 I I #
point $-1 -52.030595120931103 5.8962259381260473 5.632509427554818 #
plane-surface $-1 55.424054689168983 0 0 -1 0 0 0 0 1 forward_v I I I I #
coedge $-1 $350 $231 $234 $343 reversed $141 $-1 #
edge $-1 $245 -7.3497329846850876 $346 7.3497329846850876 $244 $417 forward 7 unknown #
straight-curve $-1 55.424054689168983 -24.975753249590486 0 0 0 -1 I I #
edge $-1 $344 -24.975753249590486 $346 24.975753249590486 $340 $418 forward 7 unknown #
vertex $-1 $343 $419 #
straight-curve $-1 0 -24.975753249590486 -7.3497329846850876 -1 0 0 I I #
vertex $-1 $237 $420 #
straight-curve $-1 0 24.975753249590486 -7.3497329846850876 1 0 0 I I #
point $-1 55.424054689168983 24.975753249590486 -7.3497329846850876 #
point $-1 55.424054689168983 -24.975753249590486 -7.3497329846850876 #
coedge $-1 $241 $340 $247 $353 reversed $141 $-1 #
straight-curve $-1 -55.424054689168983 0 7.3497329846850876 0 -1 0 I I #
point $-1 -55.424054689168983 24.975753249590486 7.3497329846850876 #
edge $-1 $248 -7.3497329846850876 $344 7.3497329846850876 $350 $421 forward 7 unknown #
point $-1 -55.424054689168983 -24.975753249590486 7.3497329846850876 #
straight-curve $-1 55.424054689168983 24.975753249590486 0 0 0 -1 I I #
plane-surface $-1 -55.424054689168983 0 0 1 0 0 0 0 -1 forward_v I I I I #
coedge $-1 $359 $368 $363 $422 forward $254 $-1 #
coedge $-1 $257 $256 $423 $424 forward $95 $-1 #
coedge $-1 $423 $357 $258 $360 reversed $254 $-1 #
edge $-1 $361 -55.424054689168983 $364 55.424054689168983 $359 $425 forward 7 unknown #
vertex $-1 $424 $426 #
straight-curve $-1 55.424054689168983 0 -7.3497329846850876 0 -1 0 I I #
coedge $-1 $266 $260 $357 $422 reversed $267 $-1 #
vertex $-1 $261 $427 #
straight-curve $-1 -55.424054689168983 0 -7.3497329846850876 0 1 0 I I #
point $-1 -55.424054689168983 -24.975753249590486 -7.3497329846850876 #
point $-1 55.424054689168983 -24.975753249590486 -7.3497329846850876 #
coedge $-1 $357 $423 $269 $369 reversed $254 $-1 #
edge $-1 $370 -55.424054689168983 $372 55.424054689168983 $368 $428 forward 7 unknown #
vertex $-1 $270 $429 #
straight-curve $-1 -55.424054689168983 -29.279051407954395 -4.2670485673835037 0 -1 0 I I #
vertex $-1 $271 $430 #
straight-curve $-1 55.424054689168983 -29.279051407954395 -4.2670485673835037 0 1 0 I I #
plane-surface $-1 55.424054689168983 0 0 -1 0 0 0 0 1 forward_v I I I I #
coedge $-1 $382 $277 $386 $431 reversed $176 $-1 #
coedge $-1 $277 $382 $278 $379 reversed $176 $-1 #
coedge $-1 $279 $289 $277 $378 reversed $290 $-1 #
edge $-1 $380 -1.541342208650792 $432 1.541342208650792 $377 $433 forward 7 unknown #
edge $-1 $380 -55.424054689168983 $384 55.424054689168983 $376 $434 forward 7 unknown #
vertex $-1 $280 $435 #
straight-curve $-1 55.424054689168983 29.279051407954395 -4.2670485673835037 0 1 0 I I #
coedge $-1 $376 $375 $281 $383 reversed $176 $-1 #
edge $-1 $384 -1.541342208650792 $387 1.541342208650792 $382 $436 forward 7 unknown #
vertex $-1 $379 $437 #
straight-curve $-1 -55.424054689168983 29.279051407954395 -4.2670485673835037 0 -1 0 I I #
coedge $-1 $390 $283 $375 $431 forward $275 $-1 #
vertex $-1 $431 $438 #
straight-curve $-1 -55.424054689168983 29.279051407954395 -7.3497329846850876 0 1 0 I I #
point $-1 -55.424054689168983 24.975753249590486 -7.3497329846850876 #
coedge $-1 $287 $386 $289 $392 forward $275 $-1 #
straight-curve $-1 0 24.975753249590486 -7.3497329846850876 -1 0 0 I I #
edge $-1 $432 -33.5823495663183 $291 -24.975753249590486 $289 $439 forward 7 unknown #
point $-1 55.424054689168983 24.975753249590486 -7.3497329846850876 #
edge $-1 $395 35.126878383747467 $398 39.899586726820829 $296 $440 forward 7 unknown #
vertex $-1 $310 $441 #
straight-curve $-1 -64.797959111642569 -2.4169347428632868 7.3497329846850903 -1 0 0 I I #
edge $-1 $398 -0.53117822619973687 $307 6.4274041643257842 $306 $442 forward 7 unknown #
vertex $-1 $397 $443 #
straight-curve $-1 -55.424054689168997 -2.4169347428632868 2.5770246416117146 0.74314481823134659 0 0.66913061440640931 I I #
point $-1 -50.12342518915591 -2.4169347428632868 7.3497329846850876 #
point $-1 -55.424054689168983 -9.3755171333888079 2.5770246416117275 #
straight-curve $-1 -55.424054689168983 0 7.3497329846850876 0 -1 0 I I #
vertex $-1 $313 $444 #
point $-1 -50.744427528928206 -5.8962259381260473 4.2040756348162427 #
coedge $-1 $328 $327 $320 $406 forward $317 $-1 #
edge $-1 $407 35.126878383747467 $410 39.899586726820829 $405 $445 forward 7 unknown #
vertex $-1 $332 $446 #
straight-curve $-1 -64.797959111642569 9.3755171333888079 7.3497329846850903 -1 0 0 I I #
edge $-1 $410 -6.4274041643257842 $329 0.53117822619973687 $328 $447 forward 7 unknown #
vertex $-1 $409 $448 #
straight-curve $-1 -55.424054689168997 9.3755171333888079 2.5770246416117146 0.74314481823134659 0 0.66913061440640931 I I #
point $-1 -50.12342518915591 9.3755171333888079 7.3497329846850876 #
point $-1 -55.424054689168983 2.4169347428632868 2.5770246416117275 #
straight-curve $-1 -55.424054689168983 0 7.3497329846850876 0 -1 0 I I #
vertex $-1 $335 $449 #
point $-1 -50.744427528928206 5.8962259381260473 4.2040756348162427 #
straight-curve $-1 -55.424054689168983 24.975753249590486 0 0 0 -1 I I #
straight-curve $-1 -55.424054689168983 0 -7.3497329846850876 0 1 0 I I #
point $-1 -55.424054689168983 -24.975753249590486 -7.3497329846850876 #
point $-1 -55.424054689168983 24.975753249590486 -7.3497329846850876 #
straight-curve $-1 -55.424054689168983 -24.975753249590486 0 0 0 -1 I I #
edge $-1 $370 -1.541342208650792 $364 1.541342208650792 $363 $450 forward 7 unknown #
coedge $-1 $368 $359 $358 $424 reversed $254 $-1 #
edge $-1 $372 -1.541342208650792 $361 1.541342208650792 $358 $451 forward 7 unknown #
straight-curve $-1 0 -33.5823495663183 -7.3497329846850876 -1 0 0 I I #
point $-1 55.424054689168983 -33.5823495663183 -7.3497329846850876 #
point $-1 -55.424054689168983 -33.5823495663183 -7.3497329846850876 #
straight-curve $-1 0 -33.5823495663183 -4.2670485673835037 1 0 0 I I #
point $-1 -55.424054689168983 -33.5823495663183 -4.2670485673835037 #
point $-1 55.424054689168983 -33.5823495663183 -4.2670485673835037 #
edge $-1 $387 -55.424054689168983 $432 55.424054689168983 $375 $452 forward 7 unknown #
vertex $-1 $392 $453 #
straight-curve $-1 55.424054689168983 33.5823495663183 -5.8083907760342957 0 0 -1 I I #
straight-curve $-1 0 33.5823495663183 -4.2670485673835037 -1 0 0 I I #
point $-1 55.424054689168983 33.5823495663183 -4.2670485673835037 #
straight-curve $-1 -55.424054689168983 33.5823495663183 -5.8083907760342957 0 0 -1 I I #
point $-1 -55.424054689168983 33.5823495663183 -4.2670485673835037 #
point $-1 -55.424054689168983 33.5823495663183 -7.3497329846850876 #
straight-curve $-1 55.424054689168983 0 -7.3497329846850876 0 -1 0 I I #
straight-curve $-1 -55.424054689168983 -2.4169347428632868 42.476611368432557 0 0 -1 I I #
point $-1 -55.424054689168983 -2.4169347428632868 7.3497329846850876 #
straight-curve $-1 -55.424054689168983 -2.9481129690630237 2.5770246416117253 0 -1 0 I I #
point $-1 -55.424054689168983 -2.4169347428632868 2.5770246416117275 #
point $-1 -50.818441732753143 -5.8962259381260473 2.7918002021784867 #
straight-curve $-1 -55.424054689168983 9.3755171333888079 42.476611368432557 0 0 -1 I I #
point $-1 -55.424054689168983 9.3755171333888079 7.3497329846850876 #
straight-curve $-1 -55.424054689168983 2.9481129690630237 2.5770246416117253 0 -1 0 I I #
point $-1 -55.424054689168983 9.3755171333888079 2.5770246416117275 #
point $-1 -50.818441732753143 5.8962259381260473 2.7918002021784867 #
straight-curve $-1 -55.424054689168983 -33.5823495663183 -5.8083907760342957 0 0 -1 I I #
straight-curve $-1 55.424054689168983 -33.5823495663183 -5.8083907760342957 0 0 -1 I I #
straight-curve $-1 0 33.5823495663183 -7.3497329846850876 1 0 0 I I #
point $-1 55.424054689168983 33.5823495663183 -7.3497329846850876 #
End-of-ACIS-data 