500 0 10 0           
7 Unknown 11 ACIS 5.0 NT 24 Fri Mar 26 15:07:39 1999 
-1 9.9999999999999995e-007 1e-010 
body $-1 $10 $-1 $11 #
body $-1 $12 $-1 $13 #
body $-1 $14 $-1 $15 #
body $-1 $16 $-1 $17 #
body $-1 $18 $-1 $19 #
body $-1 $20 $-1 $21 #
body $-1 $22 $-1 $23 #
body $-1 $24 $-1 $25 #
body $-1 $26 $-1 $27 #
body $-1 $28 $-1 $29 #
lump $-1 $-1 $30 $0 #
transform $-1 1 0 0 0 1 0 0 0 1 53.332926419873658 26.687297020117018 9.7365019976406408 1 rotate no_reflect no_shear #
lump $-1 $-1 $31 $1 #
transform $-1 1 0 0 0 1 0 0 0 1 53.332926419873658 26.687297020117018 9.7365019976406408 1 rotate no_reflect no_shear #
lump $-1 $-1 $32 $2 #
transform $-1 1 0 0 0 1 0 0 0 1 53.332926419873658 26.687297020117018 9.7365019976406408 1 rotate no_reflect no_shear #
lump $-1 $-1 $33 $3 #
transform $-1 1 0 0 0 1 0 0 0 1 53.332926419873658 26.687297020117018 9.7365019976406408 1 rotate no_reflect no_shear #
lump $-1 $-1 $34 $4 #
transform $-1 1 0 0 0 1 0 0 0 1 53.332926419873658 26.687297020117018 9.7365019976406408 1 rotate no_reflect no_shear #
lump $-1 $-1 $35 $5 #
transform $-1 1 0 0 0 1 0 0 0 1 53.332926419873658 26.687297020117018 9.7365019976406408 1 rotate no_reflect no_shear #
lump $-1 $-1 $36 $6 #
transform $-1 1 0 0 0 1 0 0 0 1 53.332926419873658 26.687297020117018 9.7365019976406408 1 rotate no_reflect no_shear #
lump $-1 $-1 $37 $7 #
transform $-1 1 0 0 0 1 0 0 0 1 53.332926419873658 26.687297020117018 9.7365019976406408 1 rotate no_reflect no_shear #
lump $-1 $-1 $38 $8 #
transform $-1 1 0 0 0 1 0 0 0 1 53.332926419873658 26.687297020117018 9.7365019976406408 1 rotate no_reflect no_shear #
lump $-1 $-1 $39 $9 #
transform $-1 1 0 0 0 1 0 0 0 1 53.332926419873658 26.687297020117018 9.7365019976406408 1 rotate no_reflect no_shear #
shell $-1 $-1 $-1 $40 $-1 $10 #
shell $-1 $-1 $-1 $41 $-1 $12 #
shell $-1 $-1 $-1 $42 $-1 $14 #
shell $-1 $-1 $-1 $43 $-1 $16 #
shell $-1 $-1 $-1 $44 $-1 $18 #
shell $-1 $-1 $-1 $45 $-1 $20 #
shell $-1 $-1 $-1 $46 $-1 $22 #
shell $-1 $-1 $-1 $47 $-1 $24 #
shell $-1 $-1 $-1 $48 $-1 $26 #
shell $-1 $-1 $-1 $49 $-1 $28 #
face $-1 $50 $51 $30 $-1 $52 forward single #
face $-1 $53 $54 $31 $-1 $55 reversed single #
face $-1 $56 $57 $32 $-1 $58 reversed single #
face $-1 $59 $60 $33 $-1 $61 forward single #
face $-1 $62 $63 $34 $-1 $64 forward single #
face $-1 $65 $66 $35 $-1 $67 forward single #
face $-1 $68 $69 $36 $-1 $70 reversed single #
face $-1 $71 $72 $37 $-1 $73 forward single #
face $-1 $74 $75 $38 $-1 $76 forward single #
face $-1 $77 $78 $39 $-1 $79 forward single #
face $-1 $80 $81 $30 $-1 $82 reversed single #
loop $-1 $-1 $83 $40 #
plane-surface $-1 0 0 9.7365019976406408 0 0 1 1 0 0 forward_v I I I I #
face $-1 $84 $85 $31 $-1 $86 reversed single #
loop $-1 $-1 $87 $41 #
plane-surface $-1 0 -23.448070044601405 6.7365019976406408 0 0 1 1 0 0 forward_v I I I I #
face $-1 $88 $89 $32 $-1 $90 reversed single #
loop $-1 $-1 $91 $42 #
plane-surface $-1 -135.04371114221033 6.3792580515879536 73.140698761759211 0 1 0 -0.7660444514056185 0 0.64278759981090561 forward_v I I I I #
face $-1 $92 $93 $33 $-1 $94 forward single #
loop $-1 $95 $96 $43 #
cone-surface $-1 -50.533853551911093 9.1413141602507828 6.6244534213450459 0.7660444514056185 0 -0.64278759981090561 0.64278759981090561 0 0.7660444514056185 1 I I 0 1 1 forward I I I I #
face $-1 $97 $98 $34 $-1 $99 forward single #
loop $-1 $100 $101 $44 #
cone-surface $-1 -50.533853551911093 13.284398323245018 6.6244534213450459 0.7660444514056185 0 -0.64278759981090561 0.64278759981090561 0 0.7660444514056185 1 I I 0 1 1 forward I I I I #
face $-1 $102 $103 $35 $-1 $104 forward single #
loop $-1 $105 $106 $45 #
cone-surface $-1 -50.533853551911093 17.427482486239253 6.6244534213450459 0.7660444514056185 0 -0.64278759981090561 0.64278759981090561 0 0.7660444514056185 1 I I 0 1 1 forward I I I I #
face $-1 $107 $108 $36 $-1 $109 reversed single #
loop $-1 $-1 $110 $46 #
plane-surface $-1 66.480223613565897 20.189538594902068 154.85148348409589 0 -1 0 -0.7660444514056185 0 -0.64278759981090561 forward_v I I I I #
face $-1 $111 $112 $37 $-1 $113 forward single #
loop $-1 $114 $115 $47 #
cone-surface $-1 50.533853551911101 9.1413141602507828 6.6244534213450299 -0.7660444514056185 0 -0.64278759981090561 0.64278759981090561 0 -0.7660444514056185 1 I I 0 1 1 forward I I I I #
face $-1 $116 $117 $38 $-1 $118 forward single #
loop $-1 $119 $120 $48 #
cone-surface $-1 50.533853551911101 13.284398323245018 6.6244534213450299 -0.7660444514056185 0 -0.64278759981090561 0.64278759981090561 0 -0.7660444514056185 1 I I 0 1 1 forward I I I I #
face $-1 $121 $122 $39 $-1 $123 forward single #
loop $-1 $124 $125 $49 #
cone-surface $-1 50.533853551911101 17.427482486239253 6.6244534213450299 -0.7660444514056185 0 -0.64278759981090561 0.64278759981090561 0 -0.7660444514056185 1 I I 0 1 1 forward I I I I #
face $-1 $126 $127 $30 $-1 $128 reversed single #
loop $-1 $-1 $129 $50 #
plane-surface $-1 0 0 -9.7365019976406408 0 0 1 1 0 0 forward_v I I I I #
coedge $-1 $130 $131 $132 $133 forward $51 $-1 #
face $-1 $134 $135 $31 $-1 $136 reversed single #
loop $-1 $-1 $137 $53 #
plane-surface $-1 0 -20.208843069085791 8.2365019976406408 0 -1 0 0 0 -1 forward_v I I I I #
coedge $-1 $138 $139 $140 $141 reversed $54 $-1 #
face $-1 $142 $143 $32 $-1 $144 reversed single #
loop $-1 $-1 $145 $56 #
plane-surface $-1 -53.332926419873658 13.284398323245011 4.5772112331147667 -0.7660444514056185 0 0.64278759981090561 0.64278759981090561 0 0.7660444514056185 forward_v I I I I #
coedge $-1 $146 $147 $148 $149 reversed $57 $-1 #
face $-1 $-1 $150 $33 $-1 $151 forward single #
loop $-1 $152 $153 $59 #
cone-surface $-1 -49.516337890399434 9.1413141602507828 5.770656427406939 0.7660444514056185 0 -0.64278759981090561 0.3213937999054528 0 0.38302222570280925 1 I I -0.70710678118654746 0.70710678118654746 0.5 forward I I I I #
loop $-1 $-1 $154 $43 #
coedge $-1 $96 $96 $155 $156 reversed $60 $-1 #
face $-1 $-1 $157 $34 $-1 $158 forward single #
loop $-1 $159 $160 $62 #
cone-surface $-1 -49.516337890399434 13.284398323245018 5.770656427406939 0.7660444514056185 0 -0.64278759981090561 0.3213937999054528 0 0.38302222570280925 1 I I -0.70710678118654746 0.70710678118654746 0.5 forward I I I I #
loop $-1 $-1 $161 $44 #
coedge $-1 $101 $101 $162 $163 reversed $63 $-1 #
face $-1 $-1 $164 $35 $-1 $165 forward single #
loop $-1 $166 $167 $65 #
cone-surface $-1 -49.516337890399434 17.427482486239253 5.770656427406939 0.7660444514056185 0 -0.64278759981090561 0.3213937999054528 0 0.38302222570280925 1 I I -0.70710678118654746 0.70710678118654746 0.5 forward I I I I #
loop $-1 $-1 $168 $45 #
coedge $-1 $106 $106 $169 $170 reversed $66 $-1 #
face $-1 $171 $172 $36 $-1 $173 reversed single #
loop $-1 $-1 $174 $68 #
plane-surface $-1 -15.230561108770772 13.284398323245011 86.28799595545145 0.7660444514056185 0 0.64278759981090561 0.64278759981090561 0 -0.7660444514056185 forward_v I I I I #
coedge $-1 $175 $176 $177 $178 reversed $69 $-1 #
face $-1 $-1 $179 $37 $-1 $180 forward single #
loop $-1 $181 $182 $71 #
cone-surface $-1 49.516337890399441 9.1413141602507828 5.770656427406923 -0.7660444514056185 0 -0.64278759981090561 0.3213937999054528 0 -0.38302222570280925 1 I I -0.70710678118654746 0.70710678118654746 0.5 forward I I I I #
loop $-1 $-1 $183 $47 #
coedge $-1 $115 $115 $184 $185 reversed $72 $-1 #
face $-1 $-1 $186 $38 $-1 $187 forward single #
loop $-1 $188 $189 $74 #
cone-surface $-1 49.516337890399441 13.284398323245018 5.770656427406923 -0.7660444514056185 0 -0.64278759981090561 0.3213937999054528 0 -0.38302222570280925 1 I I -0.70710678118654746 0.70710678118654746 0.5 forward I I I I #
loop $-1 $-1 $190 $48 #
coedge $-1 $120 $120 $191 $192 reversed $75 $-1 #
face $-1 $-1 $193 $39 $-1 $194 forward single #
loop $-1 $195 $196 $77 #
cone-surface $-1 49.516337890399441 17.427482486239253 5.770656427406923 -0.7660444514056185 0 -0.64278759981090561 0.3213937999054528 0 -0.38302222570280925 1 I I -0.70710678118654746 0.70710678118654746 0.5 forward I I I I #
loop $-1 $-1 $197 $49 #
coedge $-1 $125 $125 $198 $199 reversed $78 $-1 #
face $-1 $200 $201 $30 $-1 $202 reversed single #
loop $-1 $-1 $203 $80 #
plane-surface $-1 0 -26.687297020117018 0 0 1 0 0 0 1 forward_v I I I I #
coedge $-1 $204 $205 $206 $207 forward $81 $-1 #
coedge $-1 $208 $83 $209 $210 forward $51 $-1 #
coedge $-1 $83 $208 $211 $212 forward $51 $-1 #
coedge $-1 $213 $214 $83 $133 reversed $215 $-1 #
edge $-1 $216 -26.687297020117018 $217 26.687297020117018 $132 $218 forward 7 unknown #
face $-1 $219 $220 $31 $-1 $221 reversed single #
loop $-1 $-1 $222 $84 #
plane-surface $-1 -53.332926419873658 0 0 1 0 0 0 0 -1 forward_v I I I I #
coedge $-1 $223 $224 $225 $226 reversed $85 $-1 #
coedge $-1 $227 $87 $228 $229 reversed $54 $-1 #
coedge $-1 $87 $227 $223 $230 forward $54 $-1 #
coedge $-1 $225 $231 $87 $141 forward $232 $-1 #
edge $-1 $233 -14.963261997816316 $234 -8.4848080467850888 $140 $235 forward 7 unknown #
face $-1 $236 $237 $32 $-1 $238 forward single #
loop $-1 $-1 $239 $88 #
plane-surface $-1 -135.04371114221033 20.189538594902068 73.140698761759211 0 -1 0 0.7660444514056185 0 -0.64278759981090561 forward_v I I I I #
coedge $-1 $240 $241 $242 $243 reversed $89 $-1 #
coedge $-1 $147 $91 $244 $245 reversed $57 $-1 #
coedge $-1 $91 $146 $240 $246 reversed $57 $-1 #
coedge $-1 $242 $247 $91 $149 forward $237 $-1 #
edge $-1 $248 14.188929151231505 $249 18.518088015538936 $148 $250 forward 7 unknown #
loop $-1 $-1 $155 $92 #
plane-surface $-1 -53.332926419873658 13.284398323245011 4.5772112331147667 -0.7660444514056185 0 0.64278759981090561 0.64278759981090561 0 0.7660444514056185 forward_v I I I I #
loop $-1 $-1 $251 $59 #
coedge $-1 $153 $153 $154 $252 reversed $93 $-1 #
coedge $-1 $154 $154 $153 $252 forward $95 $-1 #
coedge $-1 $155 $155 $96 $156 forward $150 $-1 #
edge $-1 $253 0 $253 6.2831853071796004 $155 $254 forward 7 unknown #
loop $-1 $-1 $162 $97 #
plane-surface $-1 -53.332926419873658 13.284398323245011 4.5772112331147667 -0.7660444514056185 0 0.64278759981090561 0.64278759981090561 0 0.7660444514056185 forward_v I I I I #
loop $-1 $-1 $255 $62 #
coedge $-1 $160 $160 $161 $256 reversed $98 $-1 #
coedge $-1 $161 $161 $160 $256 forward $100 $-1 #
coedge $-1 $162 $162 $101 $163 forward $157 $-1 #
edge $-1 $257 0 $257 6.2831853071796004 $162 $258 forward 7 unknown #
loop $-1 $-1 $169 $102 #
plane-surface $-1 -53.332926419873658 13.284398323245011 4.5772112331147667 -0.7660444514056185 0 0.64278759981090561 0.64278759981090561 0 0.7660444514056185 forward_v I I I I #
loop $-1 $-1 $259 $65 #
coedge $-1 $167 $167 $168 $260 reversed $103 $-1 #
coedge $-1 $168 $168 $167 $260 forward $105 $-1 #
coedge $-1 $169 $169 $106 $170 forward $164 $-1 #
edge $-1 $261 0 $261 6.2831853071796004 $169 $262 forward 7 unknown #
face $-1 $263 $264 $36 $-1 $265 reversed single #
loop $-1 $-1 $266 $107 #
plane-surface $-1 66.480223613565897 6.3792580515879536 154.85148348409589 0 1 0 0.7660444514056185 0 0.64278759981090561 forward_v I I I I #
coedge $-1 $267 $268 $269 $270 reversed $108 $-1 #
coedge $-1 $176 $110 $271 $272 reversed $69 $-1 #
coedge $-1 $110 $175 $267 $273 reversed $69 $-1 #
coedge $-1 $269 $274 $110 $178 forward $275 $-1 #
edge $-1 $276 -20.092814613090709 $277 -15.763655748783307 $177 $278 forward 7 unknown #
loop $-1 $-1 $184 $111 #
plane-surface $-1 -15.230561108770772 13.284398323245011 86.28799595545145 0.7660444514056185 0 0.64278759981090561 0.64278759981090561 0 -0.7660444514056185 forward_v I I I I #
loop $-1 $-1 $279 $71 #
coedge $-1 $182 $182 $183 $280 reversed $112 $-1 #
coedge $-1 $183 $183 $182 $280 forward $114 $-1 #
coedge $-1 $184 $184 $115 $185 forward $179 $-1 #
edge $-1 $281 0 $281 6.2831853071796004 $184 $282 forward 7 unknown #
loop $-1 $-1 $191 $116 #
plane-surface $-1 -15.230561108770772 13.284398323245011 86.28799595545145 0.7660444514056185 0 0.64278759981090561 0.64278759981090561 0 -0.7660444514056185 forward_v I I I I #
loop $-1 $-1 $283 $74 #
coedge $-1 $189 $189 $190 $284 reversed $117 $-1 #
coedge $-1 $190 $190 $189 $284 forward $119 $-1 #
coedge $-1 $191 $191 $120 $192 forward $186 $-1 #
edge $-1 $285 0 $285 6.2831853071796004 $191 $286 forward 7 unknown #
loop $-1 $-1 $198 $121 #
plane-surface $-1 -15.230561108770772 13.284398323245011 86.28799595545145 0.7660444514056185 0 0.64278759981090561 0.64278759981090561 0 -0.7660444514056185 forward_v I I I I #
loop $-1 $-1 $287 $77 #
coedge $-1 $196 $196 $197 $288 reversed $122 $-1 #
coedge $-1 $197 $197 $196 $288 forward $124 $-1 #
coedge $-1 $198 $198 $125 $199 forward $193 $-1 #
edge $-1 $289 0 $289 6.2831853071796004 $198 $290 forward 7 unknown #
face $-1 $291 $292 $30 $-1 $293 reversed single #
loop $-1 $-1 $294 $126 #
plane-surface $-1 -53.332926419873658 0 0 1 0 0 0 0 -1 forward_v I I I I #
coedge $-1 $295 $211 $296 $297 forward $127 $-1 #
coedge $-1 $298 $129 $295 $299 forward $81 $-1 #
coedge $-1 $129 $298 $300 $301 forward $81 $-1 #
coedge $-1 $214 $213 $129 $207 reversed $215 $-1 #
edge $-1 $302 -26.687297020117018 $303 26.687297020117018 $206 $304 forward 7 unknown #
coedge $-1 $131 $130 $305 $306 forward $51 $-1 #
coedge $-1 $307 $308 $130 $210 reversed $292 $-1 #
edge $-1 $217 -53.332926419873658 $309 53.332926419873658 $209 $310 forward 7 unknown #
coedge $-1 $203 $311 $131 $212 reversed $127 $-1 #
edge $-1 $312 -53.332926419873658 $216 53.332926419873658 $211 $313 forward 7 unknown #
coedge $-1 $206 $132 $311 $314 forward $215 $-1 #
coedge $-1 $132 $206 $307 $315 reversed $215 $-1 #
loop $-1 $-1 $213 $291 #
vertex $-1 $133 $316 #
vertex $-1 $133 $317 #
straight-curve $-1 53.332926419873658 0 9.7365019976406408 0 1 0 I I #
face $-1 $318 $319 $31 $-1 $320 forward single #
loop $-1 $-1 $228 $134 #
plane-surface $-1 0 -26.687297020117018 0 0 1 0 0 0 1 forward_v I I I I #
coedge $-1 $321 $322 $323 $324 forward $135 $-1 #
coedge $-1 $323 $137 $139 $230 reversed $85 $-1 #
coedge $-1 $137 $323 $325 $326 reversed $85 $-1 #
coedge $-1 $327 $140 $137 $226 forward $232 $-1 #
edge $-1 $234 2.6182509988203204 $328 5.6182509988203204 $225 $329 forward 7 unknown #
coedge $-1 $139 $138 $321 $330 reversed $54 $-1 #
coedge $-1 $331 $332 $138 $229 forward $220 $-1 #
edge $-1 $333 -53.332926419873658 $233 53.332926419873658 $228 $334 forward 7 unknown #
edge $-1 $335 -53.332926419873658 $234 53.332926419873658 $223 $336 forward 7 unknown #
coedge $-1 $140 $327 $331 $337 forward $232 $-1 #
loop $-1 $-1 $225 $318 #
vertex $-1 $229 $338 #
vertex $-1 $141 $339 #
straight-curve $-1 53.332926419873658 -11.724035022300702 6.7365019976406408 0 1 0 I I #
face $-1 $-1 $340 $32 $-1 $341 reversed single #
loop $-1 $-1 $148 $142 #
plane-surface $-1 0 0 9.7365019976406408 0 0 1 1 0 0 forward_v I I I I #
coedge $-1 $342 $343 $344 $345 reversed $143 $-1 #
coedge $-1 $346 $145 $147 $246 forward $89 $-1 #
coedge $-1 $145 $346 $342 $347 forward $89 $-1 #
coedge $-1 $344 $148 $145 $243 forward $237 $-1 #
edge $-1 $249 -0.26294111003455178 $348 13.547339433279562 $242 $349 forward 7 unknown #
coedge $-1 $350 $351 $146 $245 forward $340 $-1 #
edge $-1 $352 -31.993138147764839 $248 -26.833847383238965 $244 $353 forward 7 unknown #
edge $-1 $249 -6.7349756989415779 $352 0 $147 $354 forward 7 unknown #
coedge $-1 $148 $344 $350 $355 forward $237 $-1 #
vertex $-1 $245 $356 #
vertex $-1 $149 $357 #
straight-curve $-1 -67.521855571105164 6.3792580515879536 9.7365019976406408 1 0 0 I I #
coedge $-1 $251 $251 $-1 $358 reversed $152 $-1 #
edge $-1 $359 0 $359 6.2831853071796004 $153 $360 forward 7 unknown #
vertex $-1 $156 $361 #
ellipse-curve $-1 -51.168346987719943 9.1413141602507828 7.156856615377702 -0.7660444514056185 0 0.64278759981090561 0.64278759981090561 0 0.7660444514056185 1 I I #
coedge $-1 $255 $255 $-1 $362 reversed $159 $-1 #
edge $-1 $363 0 $363 6.2831853071796004 $160 $364 forward 7 unknown #
vertex $-1 $163 $365 #
ellipse-curve $-1 -51.168346987719943 13.284398323245018 7.156856615377702 -0.7660444514056185 0 0.64278759981090561 0.64278759981090561 0 0.7660444514056185 1 I I #
coedge $-1 $259 $259 $-1 $366 reversed $166 $-1 #
edge $-1 $367 0 $367 6.2831853071796004 $167 $368 forward 7 unknown #
vertex $-1 $170 $369 #
ellipse-curve $-1 -51.168346987719943 17.427482486239253 7.156856615377702 -0.7660444514056185 0 0.64278759981090561 0.64278759981090561 0 0.7660444514056185 1 I I #
face $-1 $-1 $275 $36 $-1 $370 forward single #
loop $-1 $-1 $371 $171 #
plane-surface $-1 53.332926419873658 0 0 -1 0 0 0 0 1 forward_v I I I I #
coedge $-1 $372 $373 $374 $375 reversed $172 $-1 #
coedge $-1 $376 $174 $176 $273 forward $108 $-1 #
coedge $-1 $174 $376 $372 $377 forward $108 $-1 #
coedge $-1 $374 $177 $174 $270 forward $275 $-1 #
edge $-1 $277 -13.547339433279562 $378 0.26294111003455178 $269 $379 forward 7 unknown #
coedge $-1 $380 $381 $175 $272 forward $264 $-1 #
edge $-1 $382 -72.848530508933138 $276 -67.689239744407303 $271 $383 forward 7 unknown #
edge $-1 $277 99.930877140805777 $382 106.6658528397473 $176 $384 forward 7 unknown #
coedge $-1 $177 $374 $380 $385 forward $275 $-1 #
loop $-1 $-1 $374 $263 #
vertex $-1 $272 $386 #
vertex $-1 $178 $387 #
straight-curve $-1 33.240111806782949 20.189538594902068 9.7365019976406444 -1 0 0 I I #
coedge $-1 $279 $279 $-1 $388 reversed $181 $-1 #
edge $-1 $389 0 $389 6.2831853071796004 $182 $390 forward 7 unknown #
vertex $-1 $185 $391 #
ellipse-curve $-1 51.168346987719978 9.1413141602507828 7.15685661537771 0.7660444514056185 0 0.64278759981090561 0.64278759981090561 0 -0.7660444514056185 1 I I #
coedge $-1 $283 $283 $-1 $392 reversed $188 $-1 #
edge $-1 $393 0 $393 6.2831853071796004 $189 $394 forward 7 unknown #
vertex $-1 $192 $395 #
ellipse-curve $-1 51.168346987719978 13.284398323245018 7.15685661537771 0.7660444514056185 0 0.64278759981090561 0.64278759981090561 0 -0.7660444514056185 1 I I #
coedge $-1 $287 $287 $-1 $396 reversed $195 $-1 #
edge $-1 $397 0 $397 6.2831853071796004 $196 $398 forward 7 unknown #
vertex $-1 $199 $399 #
ellipse-curve $-1 51.168346987719978 17.427482486239253 7.15685661537771 0.7660444514056185 0 0.64278759981090561 0.64278759981090561 0 -0.7660444514056185 1 I I #
face $-1 $-1 $215 $30 $-1 $400 reversed single #
loop $-1 $-1 $307 $200 #
plane-surface $-1 0 26.687297020117018 0 0 -1 0 0 0 -1 forward_v I I I I #
coedge $-1 $401 $305 $308 $402 forward $201 $-1 #
coedge $-1 $311 $203 $204 $299 reversed $127 $-1 #
coedge $-1 $305 $401 $203 $297 reversed $201 $-1 #
edge $-1 $312 -9.7365019976406408 $403 9.7365019976406408 $296 $404 forward 7 unknown #
coedge $-1 $205 $204 $401 $405 forward $81 $-1 #
edge $-1 $303 -53.332926419873658 $403 53.332926419873658 $295 $406 forward 7 unknown #
coedge $-1 $308 $307 $205 $301 reversed $292 $-1 #
edge $-1 $407 -53.332926419873658 $302 53.332926419873658 $300 $408 forward 7 unknown #
vertex $-1 $207 $409 #
vertex $-1 $314 $410 #
straight-curve $-1 53.332926419873658 0 -9.7365019976406408 0 -1 0 I I #
coedge $-1 $294 $296 $208 $306 reversed $201 $-1 #
edge $-1 $309 -26.687297020117018 $312 26.687297020117018 $305 $411 forward 7 unknown #
coedge $-1 $300 $209 $214 $315 forward $292 $-1 #
coedge $-1 $209 $300 $294 $402 reversed $292 $-1 #
vertex $-1 $210 $412 #
straight-curve $-1 0 26.687297020117018 9.7365019976406408 -1 0 0 I I #
coedge $-1 $211 $295 $213 $314 reversed $127 $-1 #
vertex $-1 $306 $413 #
straight-curve $-1 0 -26.687297020117018 9.7365019976406408 1 0 0 I I #
edge $-1 $216 -9.7365019976406408 $303 9.7365019976406408 $213 $414 forward 7 unknown #
edge $-1 $217 -9.7365019976406408 $302 9.7365019976406408 $214 $415 forward 7 unknown #
point $-1 53.332926419873658 -26.687297020117018 9.7365019976406408 #
point $-1 53.332926419873658 26.687297020117018 9.7365019976406408 #
face $-1 $-1 $232 $31 $-1 $416 reversed single #
loop $-1 $-1 $325 $219 #
plane-surface $-1 0 0 9.7365019976406408 0 0 1 1 0 0 forward_v I I I I #
coedge $-1 $417 $222 $227 $330 forward $135 $-1 #
coedge $-1 $222 $417 $418 $419 reversed $135 $-1 #
coedge $-1 $224 $223 $222 $324 reversed $85 $-1 #
edge $-1 $420 -5.6182509988203204 $335 -2.6182509988203204 $222 $421 forward 7 unknown #
coedge $-1 $418 $422 $224 $326 forward $319 $-1 #
edge $-1 $328 -53.332926419873658 $420 53.332926419873658 $325 $423 forward 7 unknown #
coedge $-1 $231 $225 $422 $424 reversed $232 $-1 #
vertex $-1 $226 $425 #
straight-curve $-1 53.332926419873658 -20.208843069085791 4.1182509988203204 0 0 1 I I #
edge $-1 $335 8.4848080467850888 $333 14.963261997816316 $321 $426 forward 7 unknown #
coedge $-1 $427 $228 $231 $337 reversed $220 $-1 #
coedge $-1 $228 $427 $417 $428 forward $220 $-1 #
vertex $-1 $229 $429 #
straight-curve $-1 0 -26.687297020117018 6.7365019976406408 1 0 0 I I #
vertex $-1 $330 $430 #
straight-curve $-1 0 -20.208843069085791 6.7365019976406408 1 0 0 I I #
edge $-1 $431 -9.7365019976406408 $233 -6.7365019976406408 $231 $432 forward 7 unknown #
point $-1 53.332926419873658 -26.687297020117018 6.7365019976406408 #
point $-1 53.332926419873658 -20.208843069085791 6.7365019976406408 #
loop $-1 $-1 $244 $236 #
plane-surface $-1 -53.332926419873658 0 0 1 0 0 0 0 -1 forward_v I I I I #
coedge $-1 $343 $239 $241 $347 reversed $143 $-1 #
coedge $-1 $239 $342 $433 $434 reversed $143 $-1 #
coedge $-1 $247 $242 $239 $345 forward $237 $-1 #
edge $-1 $348 -18.518088015538936 $435 -14.188929151231505 $344 $436 forward 7 unknown #
coedge $-1 $241 $240 $351 $437 reversed $89 $-1 #
edge $-1 $438 0 $348 6.7349756989415779 $342 $439 forward 7 unknown #
vertex $-1 $243 $440 #
straight-curve $-1 -49.00376755556622 6.6421991616225053 9.7365019976406408 0 1 0 I I #
coedge $-1 $433 $244 $247 $355 reversed $340 $-1 #
coedge $-1 $244 $433 $346 $437 forward $340 $-1 #
vertex $-1 $245 $441 #
straight-curve $-1 -53.332926419873658 6.3792580515879536 36.570349380879605 0 0 1 I I #
straight-curve $-1 -53.332926419873658 6.3792580515879536 4.5772112331147667 -0.64278759981090561 0 -0.7660444514056185 I I #
edge $-1 $435 -20.189538594902068 $248 -6.3792580515879536 $350 $442 forward 7 unknown #
point $-1 -53.332926419873658 6.3792580515879536 9.7365019976406408 #
point $-1 -49.003767555566228 6.3792580515879536 9.7365019976406408 #
edge $-1 $443 1 $443 0 $251 $-1 forward 7 unknown #
vertex $-1 $252 $444 #
ellipse-curve $-1 -49.899360116102244 9.1413141602507828 6.0920502273123915 -0.7660444514056185 0 0.64278759981090561 0.64278759981090561 0 0.7660444514056185 1 I I #
point $-1 -50.525559387909034 9.1413141602507828 7.922901066783318 #
edge $-1 $445 1 $445 0 $255 $-1 forward 7 unknown #
vertex $-1 $256 $446 #
ellipse-curve $-1 -49.899360116102244 13.284398323245018 6.0920502273123915 -0.7660444514056185 0 0.64278759981090561 0.64278759981090561 0 0.7660444514056185 1 I I #
point $-1 -50.525559387909034 13.284398323245018 7.922901066783318 #
edge $-1 $447 1 $447 0 $259 $-1 forward 7 unknown #
vertex $-1 $260 $448 #
ellipse-curve $-1 -49.899360116102244 17.427482486239253 6.0920502273123915 -0.7660444514056185 0 0.64278759981090561 0.64278759981090561 0 0.7660444514056185 1 I I #
point $-1 -50.525559387909034 17.427482486239253 7.922901066783318 #
plane-surface $-1 0 0 9.7365019976406408 0 0 1 1 0 0 forward_v I I I I #
coedge $-1 $381 $380 $373 $449 forward $264 $-1 #
coedge $-1 $373 $266 $268 $377 reversed $172 $-1 #
coedge $-1 $266 $372 $371 $449 reversed $172 $-1 #
coedge $-1 $274 $269 $266 $375 forward $275 $-1 #
edge $-1 $378 15.763655748783307 $450 20.092814613090709 $374 $451 forward 7 unknown #
coedge $-1 $268 $267 $381 $452 reversed $108 $-1 #
edge $-1 $453 -106.6658528397473 $378 -99.930877140805777 $372 $454 forward 7 unknown #
vertex $-1 $270 $455 #
straight-curve $-1 49.003767555566256 6.6421991616225053 9.7365019976406373 0 -1 0 I I #
coedge $-1 $371 $271 $274 $385 reversed $264 $-1 #
coedge $-1 $271 $371 $376 $452 forward $264 $-1 #
vertex $-1 $272 $456 #
straight-curve $-1 53.332926419873658 20.189538594902068 77.425741742047947 0 0 1 I I #
straight-curve $-1 -15.230561108770772 20.189538594902068 86.28799595545145 0.64278759981090561 0 -0.7660444514056185 I I #
edge $-1 $450 6.3792580515879536 $276 20.189538594902068 $380 $457 forward 7 unknown #
point $-1 53.332926419873658 20.189538594902068 9.7365019976406408 #
point $-1 49.003767555566256 20.189538594902068 9.7365019976406444 #
edge $-1 $458 1 $458 0 $279 $-1 forward 7 unknown #
vertex $-1 $280 $459 #
ellipse-curve $-1 49.899360116102251 9.1413141602507828 6.0920502273123756 0.7660444514056185 0 0.64278759981090561 0.64278759981090561 0 -0.7660444514056185 1 I I #
point $-1 51.811134587530852 9.1413141602507828 6.3908121639720648 #
edge $-1 $460 1 $460 0 $283 $-1 forward 7 unknown #
vertex $-1 $284 $461 #
ellipse-curve $-1 49.899360116102251 13.284398323245018 6.0920502273123756 0.7660444514056185 0 0.64278759981090561 0.64278759981090561 0 -0.7660444514056185 1 I I #
point $-1 51.811134587530852 13.284398323245018 6.3908121639720648 #
edge $-1 $462 1 $462 0 $287 $-1 forward 7 unknown #
vertex $-1 $288 $463 #
ellipse-curve $-1 49.899360116102251 17.427482486239253 6.0920502273123756 0.7660444514056185 0 0.64278759981090561 0.64278759981090561 0 -0.7660444514056185 1 I I #
point $-1 51.811134587530852 17.427482486239253 6.3908121639720648 #
plane-surface $-1 53.332926419873658 0 0 -1 0 0 0 0 1 forward_v I I I I #
coedge $-1 $296 $294 $298 $405 reversed $201 $-1 #
edge $-1 $309 -9.7365019976406408 $407 9.7365019976406408 $308 $464 forward 7 unknown #
vertex $-1 $405 $465 #
straight-curve $-1 -53.332926419873658 -26.687297020117018 0 0 0 -1 I I #
edge $-1 $403 -26.687297020117018 $407 26.687297020117018 $401 $466 forward 7 unknown #
straight-curve $-1 0 -26.687297020117018 -9.7365019976406408 -1 0 0 I I #
vertex $-1 $301 $467 #
straight-curve $-1 0 26.687297020117018 -9.7365019976406408 1 0 0 I I #
point $-1 53.332926419873658 26.687297020117018 -9.7365019976406408 #
point $-1 53.332926419873658 -26.687297020117018 -9.7365019976406408 #
straight-curve $-1 -53.332926419873658 0 9.7365019976406408 0 -1 0 I I #
point $-1 -53.332926419873658 26.687297020117018 9.7365019976406408 #
point $-1 -53.332926419873658 -26.687297020117018 9.7365019976406408 #
straight-curve $-1 53.332926419873658 -26.687297020117018 0 0 0 -1 I I #
straight-curve $-1 53.332926419873658 26.687297020117018 0 0 0 -1 I I #
plane-surface $-1 53.332926419873658 0 0 -1 0 0 0 0 1 forward_v I I I I #
coedge $-1 $322 $321 $332 $428 reversed $135 $-1 #
coedge $-1 $468 $325 $322 $419 forward $319 $-1 #
edge $-1 $420 20.208843069085791 $469 26.687297020117018 $322 $470 forward 7 unknown #
vertex $-1 $419 $471 #
straight-curve $-1 -53.332926419873658 -20.208843069085791 4.1182509988203204 0 0 -1 I I #
coedge $-1 $325 $468 $327 $424 forward $319 $-1 #
straight-curve $-1 0 -20.208843069085791 9.7365019976406408 -1 0 0 I I #
edge $-1 $431 -26.687297020117018 $328 -20.208843069085791 $327 $472 forward 7 unknown #
point $-1 53.332926419873658 -20.208843069085791 9.7365019976406408 #
straight-curve $-1 -53.332926419873658 -11.724035022300702 6.7365019976406408 0 -1 0 I I #
coedge $-1 $332 $331 $468 $473 reversed $220 $-1 #
edge $-1 $469 -9.7365019976406408 $333 -6.7365019976406408 $417 $474 forward 7 unknown #
point $-1 -53.332926419873658 -26.687297020117018 6.7365019976406408 #
point $-1 -53.332926419873658 -20.208843069085791 6.7365019976406408 #
vertex $-1 $424 $475 #
straight-curve $-1 53.332926419873658 -26.687297020117018 0 0 0 -1 I I #
coedge $-1 $351 $350 $343 $434 forward $340 $-1 #
edge $-1 $435 26.833847383238965 $438 31.993138147764839 $433 $476 forward 7 unknown #
vertex $-1 $355 $477 #
straight-curve $-1 -67.521855571105164 20.189538594902068 9.7365019976406408 -1 0 0 I I #
edge $-1 $438 -13.547339433279562 $352 0.26294111003455178 $351 $478 forward 7 unknown #
vertex $-1 $437 $479 #
straight-curve $-1 -53.332926419873658 20.189538594902068 4.5772112331147667 0.64278759981090561 0 0.7660444514056185 I I #
point $-1 -49.003767555566228 20.189538594902068 9.7365019976406408 #
point $-1 -53.332926419873658 6.3792580515879536 4.5772112331147667 #
straight-curve $-1 -53.332926419873658 0 9.7365019976406408 0 -1 0 I I #
vertex $-1 $358 $480 #
point $-1 -49.256572516291335 9.1413141602507828 6.8580946787180102 #
vertex $-1 $362 $481 #
point $-1 -49.256572516291335 13.284398323245018 6.8580946787180102 #
vertex $-1 $366 $482 #
point $-1 -49.256572516291335 17.427482486239253 6.8580946787180102 #
edge $-1 $450 67.689239744407303 $453 72.848530508933138 $371 $483 forward 7 unknown #
vertex $-1 $385 $484 #
straight-curve $-1 33.240111806782949 6.3792580515879536 9.7365019976406444 1 0 0 I I #
edge $-1 $453 -0.26294111003455178 $382 13.547339433279562 $381 $485 forward 7 unknown #
vertex $-1 $452 $486 #
straight-curve $-1 -15.230561108770772 6.3792580515879536 86.28799595545145 -0.64278759981090561 0 0.7660444514056185 I I #
point $-1 49.003767555566256 6.3792580515879536 9.7365019976406444 #
point $-1 53.332926419873658 20.189538594902068 4.5772112331148094 #
straight-curve $-1 53.332926419873658 0 9.7365019976406408 0 1 0 I I #
vertex $-1 $388 $487 #
point $-1 50.54214771591316 9.1413141602507828 5.3260057759067569 #
vertex $-1 $392 $488 #
point $-1 50.54214771591316 13.284398323245018 5.3260057759067569 #
vertex $-1 $396 $489 #
point $-1 50.54214771591316 17.427482486239253 5.3260057759067569 #
straight-curve $-1 -53.332926419873658 26.687297020117018 0 0 0 -1 I I #
point $-1 -53.332926419873658 -26.687297020117018 -9.7365019976406408 #
straight-curve $-1 -53.332926419873658 0 -9.7365019976406408 0 1 0 I I #
point $-1 -53.332926419873658 26.687297020117018 -9.7365019976406408 #
coedge $-1 $422 $418 $427 $473 forward $319 $-1 #
vertex $-1 $419 $490 #
straight-curve $-1 -53.332926419873658 0 9.7365019976406408 0 -1 0 I I #
point $-1 -53.332926419873658 -20.208843069085791 9.7365019976406408 #
straight-curve $-1 53.332926419873658 0 9.7365019976406408 0 1 0 I I #
edge $-1 $469 -53.332926419873658 $431 53.332926419873658 $427 $491 forward 7 unknown #
straight-curve $-1 -53.332926419873658 -26.687297020117018 0 0 0 -1 I I #
point $-1 53.332926419873658 -26.687297020117018 9.7365019976406408 #
straight-curve $-1 -53.332926419873658 20.189538594902068 36.570349380879605 0 0 -1 I I #
point $-1 -53.332926419873658 20.189538594902068 9.7365019976406408 #
straight-curve $-1 -53.332926419873658 6.6421991616225053 4.5772112331147659 0 -1 0 I I #
point $-1 -53.332926419873658 20.189538594902068 4.5772112331147667 #
point $-1 -49.133315664696624 9.1413141602507828 5.4492626275014864 #
point $-1 -49.133315664696624 13.284398323245018 5.4492626275014864 #
point $-1 -49.133315664696624 17.427482486239253 5.4492626275014864 #
straight-curve $-1 53.332926419873658 6.3792580515879536 77.425741742047947 0 0 -1 I I #
point $-1 53.332926419873658 6.3792580515879536 9.7365019976406408 #
straight-curve $-1 53.332926419873658 6.6421991616225053 4.5772112331148094 0 1 0 I I #
point $-1 53.332926419873658 6.3792580515879536 4.5772112331148094 #
point $-1 49.133315664696632 9.1413141602507828 5.4492626275014704 #
point $-1 49.133315664696632 13.284398323245018 5.4492626275014704 #
point $-1 49.133315664696632 17.427482486239253 5.4492626275014704 #
point $-1 -53.332926419873658 -26.687297020117018 9.7365019976406408 #
straight-curve $-1 0 -26.687297020117018 9.7365019976406408 1 0 0 I I #
End-of-ACIS-data 