500 0 9 0           
7 Unknown 11 ACIS 5.0 NT 24 Thu Mar 25 21:29:46 1999 
-1 9.9999999999999995e-007 1e-010 
body $-1 $9 $-1 $10 #
body $-1 $11 $-1 $12 #
body $-1 $13 $-1 $14 #
body $-1 $15 $-1 $16 #
body $-1 $17 $-1 $18 #
body $-1 $19 $-1 $20 #
body $-1 $21 $-1 $22 #
body $-1 $23 $-1 $24 #
body $-1 $25 $-1 $26 #
lump $-1 $-1 $27 $0 #
transform $-1 1 0 0 0 1 0 0 0 1 72.562028870509963 44.250281481255662 12.371091450707684 1 rotate no_reflect no_shear #
lump $-1 $-1 $28 $1 #
transform $-1 1 0 0 0 1 0 0 0 1 72.562028870509963 44.250281481255662 12.371091450707684 1 rotate no_reflect no_shear #
lump $-1 $-1 $29 $2 #
transform $-1 1 0 0 0 1 0 0 0 1 72.562028870509963 44.250281481255662 12.371091450707684 1 rotate no_reflect no_shear #
lump $-1 $-1 $30 $3 #
transform $-1 1 0 0 0 1 0 0 0 1 72.562028870509963 44.250281481255662 12.371091450707684 1 rotate no_reflect no_shear #
lump $-1 $-1 $31 $4 #
transform $-1 1 0 0 0 1 0 0 0 1 72.562028870509963 44.250281481255662 12.371091450707684 1 rotate no_reflect no_shear #
lump $-1 $-1 $32 $5 #
transform $-1 1 0 0 0 1 0 0 0 1 72.562028870509963 44.250281481255662 12.371091450707684 1 rotate no_reflect no_shear #
lump $-1 $-1 $33 $6 #
transform $-1 1 0 0 0 1 0 0 0 1 72.562028870509963 44.250281481255662 12.371091450707684 1 rotate no_reflect no_shear #
lump $-1 $-1 $34 $7 #
transform $-1 1 0 0 0 1 0 0 0 1 72.562028870509963 44.250281481255662 12.371091450707684 1 rotate no_reflect no_shear #
lump $-1 $-1 $35 $8 #
transform $-1 1 0 0 0 1 0 0 0 1 72.562028870509963 44.250281481255662 12.371091450707684 1 rotate no_reflect no_shear #
shell $-1 $-1 $-1 $36 $-1 $9 #
shell $-1 $-1 $-1 $37 $-1 $11 #
shell $-1 $-1 $-1 $38 $-1 $13 #
shell $-1 $-1 $-1 $39 $-1 $15 #
shell $-1 $-1 $-1 $40 $-1 $17 #
shell $-1 $-1 $-1 $41 $-1 $19 #
shell $-1 $-1 $-1 $42 $-1 $21 #
shell $-1 $-1 $-1 $43 $-1 $23 #
shell $-1 $-1 $-1 $44 $-1 $25 #
face $-1 $45 $46 $27 $-1 $47 forward single #
face $-1 $48 $49 $28 $-1 $50 forward single #
face $-1 $51 $52 $29 $-1 $53 reversed single #
face $-1 $54 $55 $30 $-1 $56 forward single #
face $-1 $57 $58 $31 $-1 $59 forward single #
face $-1 $60 $61 $32 $-1 $62 reversed single #
face $-1 $63 $64 $33 $-1 $65 forward single #
face $-1 $66 $67 $34 $-1 $68 forward single #
face $-1 $69 $70 $35 $-1 $71 forward single #
face $-1 $72 $73 $27 $-1 $74 reversed single #
loop $-1 $-1 $75 $36 #
plane-surface $-1 0 0 12.371091450707684 0 0 1 1 0 0 forward_v I I I I #
face $-1 $76 $77 $28 $-1 $78 forward single #
loop $-1 $-1 $79 $37 #
plane-surface $-1 0 -44.250281481255662 0 0 1 0 0 0 1 forward_v I I I I #
face $-1 $80 $81 $29 $-1 $82 reversed single #
loop $-1 $-1 $83 $38 #
plane-surface $-1 104.66807980497184 -4.1686169825496506 209.51392500627352 0 -1 0 -0.80901700255871778 0 -0.5877852410284794 forward_v I I I I #
face $-1 $84 $85 $30 $-1 $86 forward single #
loop $-1 $87 $88 $39 #
cone-surface $-1 69.606256748660641 -11.774311853782329 8.9094597510700222 -0.80901700255871778 0 -0.5877852410284794 0.8816778615427191 0 -1.2135255038380768 1 I I 0 1 1.5 forward I I I I #
face $-1 $89 $90 $31 $-1 $91 forward single #
loop $-1 $92 $93 $40 #
cone-surface $-1 69.606256748660641 -7.2108949310427235 8.9094597510700222 -0.80901700255871778 0 -0.5877852410284794 0.8816778615427191 0 -1.2135255038380768 1 I I 0 1 1.5 forward I I I I #
face $-1 $94 $95 $32 $-1 $96 reversed single #
loop $-1 $-1 $97 $41 #
plane-surface $-1 -186.92134817539076 1.5892722651413038 93.366331928557713 0 1 0 -0.78801076186113728 0 0.61566146476048833 forward_v I I I I #
face $-1 $98 $99 $33 $-1 $100 forward single #
loop $-1 $101 $102 $42 #
cone-surface $-1 -68.56594713914383 3.9351044553778181 7.622061131187853 0.78801076186113728 0 -0.61566146476048833 0.30783073238024417 0 0.39400538093056864 1 I I 0 1 0.5 forward I I I I #
face $-1 $103 $104 $34 $-1 $105 forward single #
loop $-1 $106 $107 $43 #
cone-surface $-1 -68.56594713914383 7.4538527407325859 7.622061131187853 0.78801076186113728 0 -0.61566146476048833 0.30783073238024417 0 0.39400538093056864 1 I I 0 1 0.5 forward I I I I #
face $-1 $108 $109 $35 $-1 $110 forward single #
loop $-1 $111 $112 $44 #
cone-surface $-1 -68.56594713914383 10.972601026087354 7.622061131187853 0.78801076186113728 0 -0.61566146476048833 0.30783073238024417 0 0.39400538093056864 1 I I 0 1 0.5 forward I I I I #
face $-1 $113 $114 $27 $-1 $115 reversed single #
loop $-1 $-1 $116 $45 #
plane-surface $-1 0 0 -12.371091450707684 0 0 1 1 0 0 forward_v I I I I #
coedge $-1 $117 $118 $119 $120 forward $46 $-1 #
face $-1 $121 $122 $28 $-1 $123 reversed single #
loop $-1 $-1 $124 $48 #
plane-surface $-1 0 0 12.371091450707684 0 0 1 1 0 0 forward_v I I I I #
coedge $-1 $125 $126 $127 $128 forward $49 $-1 #
face $-1 $129 $130 $29 $-1 $131 reversed single #
loop $-1 $-1 $132 $51 #
plane-surface $-1 -12.73975038782639 -9.4926033924125264 124.21214574793717 0.80901700255871778 0 0.5877852410284794 0.5877852410284794 0 -0.80901700255871778 forward_v I I I I #
coedge $-1 $133 $134 $135 $136 reversed $52 $-1 #
face $-1 $-1 $137 $30 $-1 $138 forward single #
loop $-1 $139 $140 $54 #
cone-surface $-1 68.065971531685463 -11.774311853782329 7.7903770684453768 -0.80901700255871778 0 -0.5877852410284794 0.44083893077135955 0 -0.60676275191903839 1 I I -0.70710678118654791 0.70710678118654702 0.75 forward I I I I #
loop $-1 $-1 $141 $39 #
coedge $-1 $88 $88 $142 $143 reversed $55 $-1 #
face $-1 $-1 $144 $31 $-1 $145 forward single #
loop $-1 $146 $147 $57 #
cone-surface $-1 68.065971531685463 -7.2108949310427235 7.7903770684453768 -0.80901700255871778 0 -0.5877852410284794 0.44083893077135955 0 -0.60676275191903839 1 I I -0.70710678118654791 0.70710678118654702 0.75 forward I I I I #
loop $-1 $-1 $148 $40 #
coedge $-1 $93 $93 $149 $150 reversed $58 $-1 #
face $-1 $151 $152 $32 $-1 $153 reversed single #
loop $-1 $-1 $154 $60 #
plane-surface $-1 -72.562028870509977 7.4538527407325859 4.0190419677357028 -0.78801076186113728 0 0.61566146476048833 0.61566146476048833 0 0.78801076186113728 forward_v I I I I #
coedge $-1 $155 $156 $157 $158 reversed $61 $-1 #
face $-1 $-1 $159 $33 $-1 $160 forward single #
loop $-1 $161 $162 $63 #
cone-surface $-1 -67.635530733605805 3.9351044553778181 6.8951401869639035 0.78801076186113728 0 -0.61566146476048833 0.15391536619012208 0 0.19700269046528432 1 I I -0.70710678118654746 0.70710678118654746 0.25 forward I I I I #
loop $-1 $-1 $163 $42 #
coedge $-1 $102 $102 $164 $165 reversed $64 $-1 #
face $-1 $-1 $166 $34 $-1 $167 forward single #
loop $-1 $168 $169 $66 #
cone-surface $-1 -67.635530733605805 7.4538527407325859 6.8951401869639035 0.78801076186113728 0 -0.61566146476048833 0.15391536619012208 0 0.19700269046528432 1 I I -0.70710678118654746 0.70710678118654746 0.25 forward I I I I #
loop $-1 $-1 $170 $43 #
coedge $-1 $107 $107 $171 $172 reversed $67 $-1 #
face $-1 $-1 $173 $35 $-1 $174 forward single #
loop $-1 $175 $176 $69 #
cone-surface $-1 -67.635530733605805 10.972601026087354 6.8951401869639035 0.78801076186113728 0 -0.61566146476048833 0.15391536619012208 0 0.19700269046528432 1 I I -0.70710678118654746 0.70710678118654746 0.25 forward I I I I #
loop $-1 $-1 $177 $44 #
coedge $-1 $112 $112 $178 $179 reversed $70 $-1 #
face $-1 $180 $181 $27 $-1 $182 reversed single #
loop $-1 $-1 $183 $72 #
plane-surface $-1 0 -44.250281481255662 0 0 1 0 0 0 1 forward_v I I I I #
coedge $-1 $184 $185 $186 $187 forward $73 $-1 #
coedge $-1 $188 $75 $189 $190 forward $46 $-1 #
coedge $-1 $75 $188 $191 $192 forward $46 $-1 #
coedge $-1 $193 $194 $75 $120 reversed $195 $-1 #
edge $-1 $196 -44.250281481255662 $197 44.250281481255662 $119 $198 forward 7 unknown #
face $-1 $199 $200 $28 $-1 $201 reversed single #
loop $-1 $-1 $202 $76 #
plane-surface $-1 -72.562028870509963 0 0 1 0 0 0 0 -1 forward_v I I I I #
coedge $-1 $203 $204 $126 $205 forward $77 $-1 #
coedge $-1 $206 $79 $207 $208 reversed $49 $-1 #
coedge $-1 $79 $206 $124 $205 reversed $49 $-1 #
coedge $-1 $209 $210 $79 $128 reversed $211 $-1 #
edge $-1 $212 -12.371091450707684 $213 12.371091450707684 $127 $214 forward 7 unknown #
face $-1 $215 $216 $29 $-1 $217 forward single #
loop $-1 $-1 $218 $80 #
plane-surface $-1 104.66807980497184 -14.816589802275402 209.51392500627352 0 1 0 0.80901700255871778 0 0.5877852410284794 forward_v I I I I #
coedge $-1 $219 $220 $221 $222 reversed $81 $-1 #
coedge $-1 $134 $83 $223 $224 reversed $52 $-1 #
coedge $-1 $83 $133 $219 $225 reversed $52 $-1 #
coedge $-1 $221 $226 $83 $136 forward $216 $-1 #
edge $-1 $227 -20.227988968024043 $228 -16.183489654437729 $135 $229 forward 7 unknown #
loop $-1 $-1 $142 $84 #
plane-surface $-1 -12.73975038782639 -9.4926033924125264 124.21214574793717 0.80901700255871778 0 0.5877852410284794 0.5877852410284794 0 -0.80901700255871778 forward_v I I I I #
loop $-1 $-1 $230 $54 #
coedge $-1 $140 $140 $141 $231 reversed $85 $-1 #
coedge $-1 $141 $141 $140 $231 forward $87 $-1 #
coedge $-1 $142 $142 $88 $143 forward $137 $-1 #
edge $-1 $232 0 $232 6.2831853071796004 $142 $233 forward 7 unknown #
loop $-1 $-1 $149 $89 #
plane-surface $-1 -12.73975038782639 -9.4926033924125264 124.21214574793717 0.80901700255871778 0 0.5877852410284794 0.5877852410284794 0 -0.80901700255871778 forward_v I I I I #
loop $-1 $-1 $234 $57 #
coedge $-1 $147 $147 $148 $235 reversed $90 $-1 #
coedge $-1 $148 $148 $147 $235 forward $92 $-1 #
coedge $-1 $149 $149 $93 $150 forward $144 $-1 #
edge $-1 $236 0 $236 6.2831853071796004 $149 $237 forward 7 unknown #
face $-1 $238 $239 $32 $-1 $240 reversed single #
loop $-1 $-1 $241 $94 #
plane-surface $-1 -186.92134817539076 13.318433216323868 93.366331928557713 0 -1 0 0.78801076186113728 0 -0.61566146476048833 forward_v I I I I #
coedge $-1 $242 $243 $244 $245 reversed $95 $-1 #
coedge $-1 $156 $97 $246 $247 reversed $61 $-1 #
coedge $-1 $97 $155 $242 $248 reversed $61 $-1 #
coedge $-1 $244 $249 $97 $158 forward $250 $-1 #
edge $-1 $251 20.898645217185418 $252 27.42398124977214 $157 $253 forward 7 unknown #
loop $-1 $-1 $164 $98 #
plane-surface $-1 -72.562028870509977 7.4538527407325859 4.0190419677357028 -0.78801076186113728 0 0.61566146476048833 0.61566146476048833 0 0.78801076186113728 forward_v I I I I #
loop $-1 $-1 $254 $63 #
coedge $-1 $162 $162 $163 $255 reversed $99 $-1 #
coedge $-1 $163 $163 $162 $255 forward $101 $-1 #
coedge $-1 $164 $164 $102 $165 forward $159 $-1 #
edge $-1 $256 0 $256 6.2831853071796004 $164 $257 forward 7 unknown #
loop $-1 $-1 $171 $103 #
plane-surface $-1 -72.562028870509977 7.4538527407325859 4.0190419677357028 -0.78801076186113728 0 0.61566146476048833 0.61566146476048833 0 0.78801076186113728 forward_v I I I I #
loop $-1 $-1 $258 $66 #
coedge $-1 $169 $169 $170 $259 reversed $104 $-1 #
coedge $-1 $170 $170 $169 $259 forward $106 $-1 #
coedge $-1 $171 $171 $107 $172 forward $166 $-1 #
edge $-1 $260 0 $260 6.2831853071796004 $171 $261 forward 7 unknown #
loop $-1 $-1 $178 $108 #
plane-surface $-1 -72.562028870509977 7.4538527407325859 4.0190419677357028 -0.78801076186113728 0 0.61566146476048833 0.61566146476048833 0 0.78801076186113728 forward_v I I I I #
loop $-1 $-1 $262 $69 #
coedge $-1 $176 $176 $177 $263 reversed $109 $-1 #
coedge $-1 $177 $177 $176 $263 forward $111 $-1 #
coedge $-1 $178 $178 $112 $179 forward $173 $-1 #
edge $-1 $264 0 $264 6.2831853071796004 $178 $265 forward 7 unknown #
face $-1 $266 $267 $27 $-1 $268 reversed single #
loop $-1 $-1 $269 $113 #
plane-surface $-1 -72.562028870509963 0 0 1 0 0 0 0 -1 forward_v I I I I #
coedge $-1 $270 $191 $271 $272 forward $114 $-1 #
coedge $-1 $273 $116 $270 $274 forward $73 $-1 #
coedge $-1 $116 $273 $275 $276 forward $73 $-1 #
coedge $-1 $194 $193 $116 $187 reversed $195 $-1 #
edge $-1 $277 -44.250281481255662 $278 44.250281481255662 $186 $279 forward 7 unknown #
coedge $-1 $118 $117 $280 $281 forward $46 $-1 #
coedge $-1 $282 $283 $117 $190 reversed $267 $-1 #
edge $-1 $197 -72.562028870509963 $284 72.562028870509963 $189 $285 forward 7 unknown #
coedge $-1 $183 $286 $118 $192 reversed $114 $-1 #
edge $-1 $287 -72.562028870509963 $196 72.562028870509963 $191 $288 forward 7 unknown #
coedge $-1 $186 $119 $286 $289 forward $195 $-1 #
coedge $-1 $119 $186 $282 $290 reversed $195 $-1 #
loop $-1 $-1 $193 $266 #
vertex $-1 $120 $291 #
vertex $-1 $120 $292 #
straight-curve $-1 72.562028870509963 0 12.371091450707684 0 1 0 I I #
face $-1 $293 $211 $28 $-1 $294 reversed single #
loop $-1 $-1 $295 $121 #
plane-surface $-1 -70.946768378137676 -56.134729600675648 0 0 1 0 0 0 1 forward_v I I I I #
coedge $-1 $296 $297 $206 $298 forward $122 $-1 #
coedge $-1 $299 $124 $297 $300 forward $77 $-1 #
coedge $-1 $124 $299 $209 $301 forward $77 $-1 #
edge $-1 $212 69.33150788576539 $302 72.562028870509963 $124 $303 forward 7 unknown #
coedge $-1 $126 $125 $202 $298 reversed $49 $-1 #
coedge $-1 $304 $305 $125 $208 forward $306 $-1 #
edge $-1 $307 -72.562028870509963 $213 -69.33150788576539 $207 $308 forward 7 unknown #
coedge $-1 $309 $127 $204 $301 reversed $211 $-1 #
coedge $-1 $127 $309 $304 $310 reversed $211 $-1 #
loop $-1 $-1 $309 $199 #
vertex $-1 $205 $311 #
vertex $-1 $310 $312 #
straight-curve $-1 -69.33150788576539 -44.250281481255662 0 0 0 -1 I I #
face $-1 $-1 $313 $29 $-1 $314 reversed single #
loop $-1 $-1 $135 $129 #
plane-surface $-1 0 0 12.371091450707684 0 0 1 1 0 0 forward_v I I I I #
coedge $-1 $315 $316 $317 $318 reversed $130 $-1 #
coedge $-1 $319 $132 $134 $225 forward $81 $-1 #
coedge $-1 $132 $319 $315 $320 forward $81 $-1 #
coedge $-1 $317 $135 $132 $222 forward $216 $-1 #
edge $-1 $228 -0.57768471365661256 $321 10.070288106069139 $221 $322 forward 7 unknown #
coedge $-1 $323 $324 $133 $224 forward $313 $-1 #
edge $-1 $325 -97.95264694799782 $227 -92.385871052429081 $223 $326 forward 7 unknown #
edge $-1 $228 138.24314438819493 $325 145.12405774101993 $134 $327 forward 7 unknown #
coedge $-1 $135 $317 $323 $328 forward $216 $-1 #
vertex $-1 $224 $329 #
vertex $-1 $136 $330 #
straight-curve $-1 52.33403990248592 -4.1686169825496506 12.371091450707681 -1 0 0 I I #
coedge $-1 $230 $230 $-1 $331 reversed $139 $-1 #
edge $-1 $332 0 $332 6.2831853071796004 $140 $333 forward 7 unknown #
vertex $-1 $143 $334 #
ellipse-curve $-1 70.539779213716798 -11.774311853782329 9.5877035029233237 0.80901700255871778 0 0.5877852410284794 0.8816778615427191 0 -1.2135255038380768 1 I I #
coedge $-1 $234 $234 $-1 $335 reversed $146 $-1 #
edge $-1 $336 0 $336 6.2831853071796004 $147 $337 forward 7 unknown #
vertex $-1 $150 $338 #
ellipse-curve $-1 70.539779213716798 -7.2108949310427235 9.5877035029233237 0.80901700255871778 0 0.5877852410284794 0.8816778615427191 0 -1.2135255038380768 1 I I #
face $-1 $-1 $250 $32 $-1 $339 forward single #
loop $-1 $-1 $340 $151 #
plane-surface $-1 -72.562028870509963 0 0 1 0 0 0 0 -1 forward_v I I I I #
coedge $-1 $341 $342 $343 $344 reversed $152 $-1 #
coedge $-1 $345 $154 $156 $248 forward $95 $-1 #
coedge $-1 $154 $345 $341 $346 forward $95 $-1 #
coedge $-1 $343 $157 $154 $245 forward $250 $-1 #
edge $-1 $252 -2.1376541052249891 $347 9.591506845957575 $244 $348 forward 7 unknown #
coedge $-1 $349 $350 $155 $247 forward $239 $-1 #
edge $-1 $351 -42.66412399654314 $251 -34.312074513571176 $246 $352 forward 7 unknown #
edge $-1 $252 -10.598902816055412 $351 -2.274695869299009e-014 $156 $353 forward 7 unknown #
coedge $-1 $157 $343 $349 $354 forward $250 $-1 #
loop $-1 $-1 $343 $238 #
vertex $-1 $247 $355 #
vertex $-1 $158 $356 #
straight-curve $-1 -93.460674087695381 1.5892722651413038 12.371091450707688 1 0 0 I I #
coedge $-1 $254 $254 $-1 $357 reversed $161 $-1 #
edge $-1 $358 0 $358 6.2831853071796004 $162 $359 forward 7 unknown #
vertex $-1 $165 $360 #
ellipse-curve $-1 -69.299360854216602 3.9351044553778181 8.1950667092217007 -0.78801076186113728 0 0.61566146476048833 0.30783073238024417 0 0.39400538093056864 1 I I #
coedge $-1 $258 $258 $-1 $361 reversed $168 $-1 #
edge $-1 $362 0 $362 6.2831853071796004 $169 $363 forward 7 unknown #
vertex $-1 $172 $364 #
ellipse-curve $-1 -69.299360854216602 7.4538527407325859 8.1950667092217007 -0.78801076186113728 0 0.61566146476048833 0.30783073238024417 0 0.39400538093056864 1 I I #
coedge $-1 $262 $262 $-1 $365 reversed $175 $-1 #
edge $-1 $366 0 $366 6.2831853071796004 $176 $367 forward 7 unknown #
vertex $-1 $179 $368 #
ellipse-curve $-1 -69.299360854216602 10.972601026087354 8.1950667092217007 -0.78801076186113728 0 0.61566146476048833 0.30783073238024417 0 0.39400538093056864 1 I I #
face $-1 $-1 $195 $27 $-1 $369 reversed single #
loop $-1 $-1 $282 $180 #
plane-surface $-1 0 44.250281481255662 0 0 -1 0 0 0 -1 forward_v I I I I #
coedge $-1 $370 $280 $283 $371 forward $181 $-1 #
coedge $-1 $286 $183 $184 $274 reversed $114 $-1 #
coedge $-1 $280 $370 $183 $272 reversed $181 $-1 #
edge $-1 $287 -12.371091450707684 $372 12.371091450707684 $271 $373 forward 7 unknown #
coedge $-1 $185 $184 $370 $374 forward $73 $-1 #
edge $-1 $278 -72.562028870509963 $372 72.562028870509963 $270 $375 forward 7 unknown #
coedge $-1 $283 $282 $185 $276 reversed $267 $-1 #
edge $-1 $376 -72.562028870509963 $277 72.562028870509963 $275 $377 forward 7 unknown #
vertex $-1 $187 $378 #
vertex $-1 $289 $379 #
straight-curve $-1 72.562028870509963 0 -12.371091450707684 0 -1 0 I I #
coedge $-1 $269 $271 $188 $281 reversed $181 $-1 #
edge $-1 $284 -44.250281481255662 $287 44.250281481255662 $280 $380 forward 7 unknown #
coedge $-1 $275 $189 $194 $290 forward $267 $-1 #
coedge $-1 $189 $275 $269 $371 reversed $267 $-1 #
vertex $-1 $190 $381 #
straight-curve $-1 0 44.250281481255662 12.371091450707684 -1 0 0 I I #
coedge $-1 $191 $270 $193 $289 reversed $114 $-1 #
vertex $-1 $281 $382 #
straight-curve $-1 0 -44.250281481255662 12.371091450707684 1 0 0 I I #
edge $-1 $196 -12.371091450707684 $278 12.371091450707684 $193 $383 forward 7 unknown #
edge $-1 $197 -12.371091450707684 $277 12.371091450707684 $194 $384 forward 7 unknown #
point $-1 72.562028870509963 -44.250281481255662 12.371091450707684 #
point $-1 72.562028870509963 44.250281481255662 12.371091450707684 #
face $-1 $-1 $306 $28 $-1 $385 reversed single #
plane-surface $-1 -69.33150788576539 -50.192505540965655 0 -1 0 0 0 0 1 forward_v I I I I #
coedge $-1 $386 $387 $388 $389 forward $200 $-1 #
coedge $-1 $388 $202 $305 $390 reversed $122 $-1 #
coedge $-1 $202 $388 $203 $300 reversed $122 $-1 #
edge $-1 $302 -12.371091450707684 $307 12.371091450707684 $202 $391 forward 7 unknown #
coedge $-1 $204 $203 $387 $392 forward $77 $-1 #
edge $-1 $302 44.250281481255662 $393 56.134729600675648 $297 $394 forward 7 unknown #
edge $-1 $395 -5.9422240597099929 $212 5.9422240597099929 $209 $396 forward 7 unknown #
vertex $-1 $300 $397 #
straight-curve $-1 0 -44.250281481255662 12.371091450707684 -1 0 0 I I #
coedge $-1 $398 $207 $210 $310 forward $306 $-1 #
coedge $-1 $207 $398 $296 $390 forward $306 $-1 #
loop $-1 $-1 $207 $293 #
vertex $-1 $298 $399 #
straight-curve $-1 0 -44.250281481255662 -12.371091450707684 1 0 0 I I #
coedge $-1 $210 $209 $400 $401 forward $211 $-1 #
edge $-1 $213 -5.9422240597099929 $402 5.9422240597099929 $210 $403 forward 7 unknown #
point $-1 -69.33150788576539 -44.250281481255662 12.371091450707684 #
point $-1 -69.33150788576539 -44.250281481255662 -12.371091450707684 #
loop $-1 $-1 $223 $215 #
plane-surface $-1 72.562028870509963 0 0 -1 0 0 0 0 1 forward_v I I I I #
coedge $-1 $316 $218 $220 $320 reversed $130 $-1 #
coedge $-1 $218 $315 $404 $405 reversed $130 $-1 #
coedge $-1 $226 $221 $218 $318 forward $216 $-1 #
edge $-1 $321 16.183489654437729 $406 20.227988968024043 $317 $407 forward 7 unknown #
coedge $-1 $220 $219 $324 $408 reversed $81 $-1 #
edge $-1 $409 -145.12405774101993 $321 -138.24314438819493 $315 $410 forward 7 unknown #
vertex $-1 $222 $411 #
straight-curve $-1 68.517529556923648 -4.7463016962062632 12.371091450707695 0 -1 0 I I #
coedge $-1 $404 $223 $226 $328 reversed $313 $-1 #
coedge $-1 $223 $404 $319 $408 forward $313 $-1 #
vertex $-1 $224 $412 #
straight-curve $-1 72.562028870509963 -4.1686169825496506 104.75696250313676 0 0 1 I I #
straight-curve $-1 -12.73975038782639 -4.1686169825496506 124.21214574793717 0.5877852410284794 0 -0.80901700255871778 I I #
edge $-1 $406 -14.816589802275402 $227 -4.1686169825496506 $323 $413 forward 7 unknown #
point $-1 72.562028870509963 -4.1686169825496506 12.371091450707684 #
point $-1 68.517529556923648 -4.1686169825496506 12.371091450707681 #
edge $-1 $414 1 $414 0 $230 $-1 forward 7 unknown #
vertex $-1 $231 $415 #
ellipse-curve $-1 68.672734283604498 -11.774311853782329 8.2312159992167366 0.80901700255871778 0 0.5877852410284794 0.8816778615427191 0 -1.2135255038380768 1 I I #
point $-1 71.421457075259497 -11.774311853782329 8.3741779990852301 #
edge $-1 $416 1 $416 0 $234 $-1 forward 7 unknown #
vertex $-1 $235 $417 #
ellipse-curve $-1 68.672734283604498 -7.2108949310427235 8.2312159992167366 0.80901700255871778 0 0.5877852410284794 0.8816778615427191 0 -1.2135255038380768 1 I I #
point $-1 71.421457075259497 -7.2108949310427235 8.3741779990852301 #
plane-surface $-1 0 0 12.371091450707684 0 0 1 1 0 0 forward_v I I I I #
coedge $-1 $350 $349 $342 $418 forward $239 $-1 #
coedge $-1 $342 $241 $243 $346 reversed $152 $-1 #
coedge $-1 $241 $341 $340 $418 reversed $152 $-1 #
coedge $-1 $249 $244 $241 $344 forward $250 $-1 #
edge $-1 $347 -27.42398124977214 $419 -20.898645217185418 $343 $420 forward 7 unknown #
coedge $-1 $243 $242 $350 $421 reversed $95 $-1 #
edge $-1 $422 2.274695869299009e-014 $347 10.598902816055412 $341 $423 forward 7 unknown #
vertex $-1 $245 $424 #
straight-curve $-1 -66.036692837923241 3.7269263703662929 12.371091450707684 0 1 0 I I #
coedge $-1 $340 $246 $249 $354 reversed $239 $-1 #
coedge $-1 $246 $340 $345 $421 forward $239 $-1 #
vertex $-1 $247 $425 #
straight-curve $-1 -72.562028870509963 1.5892722651413038 46.683165964278857 0 0 1 I I #
straight-curve $-1 -72.562028870509977 1.5892722651413038 4.0190419677357028 -0.61566146476048833 0 -0.78801076186113728 I I #
edge $-1 $419 -13.318433216323868 $251 -1.5892722651413038 $349 $426 forward 7 unknown #
point $-1 -72.562028870509963 1.5892722651413038 12.371091450707684 #
point $-1 -66.036692837923241 1.5892722651413038 12.371091450707684 #
edge $-1 $427 1 $427 0 $254 $-1 forward 7 unknown #
vertex $-1 $255 $428 #
ellipse-curve $-1 -67.832533424071087 3.9351044553778181 7.0490555531540258 -0.78801076186113728 0 0.61566146476048833 0.30783073238024417 0 0.39400538093056864 1 I I #
point $-1 -68.991530121836334 3.9351044553778181 8.5890720901522499 #
edge $-1 $429 1 $429 0 $258 $-1 forward 7 unknown #
vertex $-1 $259 $430 #
ellipse-curve $-1 -67.832533424071087 7.4538527407325859 7.0490555531540258 -0.78801076186113728 0 0.61566146476048833 0.30783073238024417 0 0.39400538093056864 1 I I #
point $-1 -68.991530121836334 7.4538527407325859 8.5890720901522499 #
edge $-1 $431 1 $431 0 $262 $-1 forward 7 unknown #
vertex $-1 $263 $432 #
ellipse-curve $-1 -67.832533424071087 10.972601026087354 7.0490555531540258 -0.78801076186113728 0 0.61566146476048833 0.30783073238024417 0 0.39400538093056864 1 I I #
point $-1 -68.991530121836334 10.972601026087354 8.5890720901522499 #
plane-surface $-1 72.562028870509963 0 0 -1 0 0 0 0 1 forward_v I I I I #
coedge $-1 $271 $269 $273 $374 reversed $181 $-1 #
edge $-1 $284 -12.371091450707684 $376 12.371091450707684 $283 $433 forward 7 unknown #
vertex $-1 $374 $434 #
straight-curve $-1 -72.562028870509963 -44.250281481255662 0 0 0 -1 I I #
edge $-1 $372 -44.250281481255662 $376 44.250281481255662 $370 $435 forward 7 unknown #
straight-curve $-1 0 -44.250281481255662 -12.371091450707684 -1 0 0 I I #
vertex $-1 $276 $436 #
straight-curve $-1 0 44.250281481255662 -12.371091450707684 1 0 0 I I #
point $-1 72.562028870509963 44.250281481255662 -12.371091450707684 #
point $-1 72.562028870509963 -44.250281481255662 -12.371091450707684 #
straight-curve $-1 -72.562028870509963 0 12.371091450707684 0 -1 0 I I #
point $-1 -72.562028870509963 44.250281481255662 12.371091450707684 #
point $-1 -72.562028870509963 -44.250281481255662 12.371091450707684 #
straight-curve $-1 72.562028870509963 -44.250281481255662 0 0 0 -1 I I #
straight-curve $-1 72.562028870509963 44.250281481255662 0 0 0 -1 I I #
plane-surface $-1 0 0 -12.371091450707684 0 0 1 1 0 0 forward_v I I I I #
coedge $-1 $400 $295 $398 $437 reversed $200 $-1 #
coedge $-1 $295 $400 $299 $392 reversed $200 $-1 #
coedge $-1 $297 $296 $295 $389 reversed $122 $-1 #
edge $-1 $393 -12.371091450707684 $438 12.371091450707684 $388 $439 forward 7 unknown #
edge $-1 $438 -56.134729600675648 $307 -44.250281481255662 $296 $440 forward 7 unknown #
straight-curve $-1 -72.562028870509963 -44.250281481255662 0 0 0 -1 I I #
edge $-1 $393 -1.6152604923722862 $395 1.6152604923722862 $387 $441 forward 7 unknown #
vertex $-1 $300 $442 #
straight-curve $-1 -72.562028870509963 0 12.371091450707684 0 -1 0 I I #
vertex $-1 $301 $443 #
straight-curve $-1 -69.33150788576539 -50.192505540965655 12.371091450707684 0 1 0 I I #
point $-1 -72.562028870509963 -44.250281481255662 12.371091450707684 #
coedge $-1 $305 $304 $386 $437 forward $306 $-1 #
point $-1 -72.562028870509963 -44.250281481255662 -12.371091450707684 #
coedge $-1 $387 $386 $309 $401 reversed $200 $-1 #
edge $-1 $395 -12.371091450707684 $402 12.371091450707684 $309 $444 forward 7 unknown #
vertex $-1 $401 $445 #
straight-curve $-1 -69.33150788576539 -50.192505540965655 -12.371091450707684 0 -1 0 I I #
coedge $-1 $324 $323 $316 $405 forward $313 $-1 #
edge $-1 $406 92.385871052429081 $409 97.95264694799782 $404 $446 forward 7 unknown #
vertex $-1 $328 $447 #
straight-curve $-1 52.33403990248592 -14.816589802275402 12.371091450707681 1 0 0 I I #
edge $-1 $409 -10.070288106069139 $325 0.57768471365661256 $324 $448 forward 7 unknown #
vertex $-1 $408 $449 #
straight-curve $-1 -12.73975038782639 -14.816589802275402 124.21214574793717 -0.5877852410284794 0 0.80901700255871778 I I #
point $-1 68.517529556923648 -14.816589802275402 12.371091450707681 #
point $-1 72.562028870509963 -4.1686169825496506 6.8043155551389418 #
straight-curve $-1 72.562028870509963 0 12.371091450707684 0 1 0 I I #
vertex $-1 $331 $450 #
point $-1 69.554412145147225 -11.774311853782329 7.017690495378659 #
vertex $-1 $335 $451 #
point $-1 69.554412145147225 -7.2108949310427235 7.017690495378659 #
edge $-1 $419 34.312074513571176 $422 42.66412399654314 $340 $452 forward 7 unknown #
vertex $-1 $354 $453 #
straight-curve $-1 -93.460674087695381 13.318433216323868 12.371091450707688 -1 0 0 I I #
edge $-1 $422 -9.591506845957575 $351 2.1376541052249891 $350 $454 forward 7 unknown #
vertex $-1 $421 $455 #
straight-curve $-1 -72.562028870509977 13.318433216323868 4.0190419677357028 0.61566146476048833 0 0.78801076186113728 I I #
point $-1 -66.036692837923241 13.318433216323868 12.371091450707684 #
point $-1 -72.562028870509963 1.5892722651413038 4.0190419677357205 #
straight-curve $-1 -72.562028870509963 0 12.371091450707684 0 -1 0 I I #
vertex $-1 $357 $456 #
point $-1 -67.524702691690848 3.9351044553778181 7.4430609340845946 #
vertex $-1 $361 $457 #
point $-1 -67.524702691690848 7.4538527407325859 7.4430609340845946 #
vertex $-1 $365 $458 #
point $-1 -67.524702691690848 10.972601026087354 7.4430609340845946 #
straight-curve $-1 -72.562028870509963 44.250281481255662 0 0 0 -1 I I #
point $-1 -72.562028870509963 -44.250281481255662 -12.371091450707684 #
straight-curve $-1 -72.562028870509963 0 -12.371091450707684 0 1 0 I I #
point $-1 -72.562028870509963 44.250281481255662 -12.371091450707684 #
edge $-1 $402 -1.6152604923722862 $438 1.6152604923722862 $386 $459 forward 7 unknown #
vertex $-1 $390 $460 #
straight-curve $-1 -72.562028870509963 -56.134729600675648 0 0 0 -1 I I #
straight-curve $-1 -72.562028870509963 0 -12.371091450707684 0 1 0 I I #
straight-curve $-1 -70.946768378137676 -56.134729600675648 12.371091450707684 1 0 0 I I #
point $-1 -72.562028870509963 -56.134729600675648 12.371091450707684 #
point $-1 -69.33150788576539 -56.134729600675648 12.371091450707684 #
straight-curve $-1 -69.33150788576539 -56.134729600675648 0 0 0 -1 I I #
point $-1 -69.33150788576539 -56.134729600675648 -12.371091450707684 #
straight-curve $-1 72.562028870509963 -14.816589802275402 104.75696250313676 0 0 -1 I I #
point $-1 72.562028870509963 -14.816589802275402 12.371091450707684 #
straight-curve $-1 72.562028870509977 -4.7463016962062632 6.804315555138956 0 1 0 I I #
point $-1 72.562028870509963 -14.816589802275402 6.8043155551389418 #
point $-1 67.459208779766428 -11.774311853782329 7.3495381376740179 #
point $-1 67.459208779766428 -7.2108949310427235 7.3495381376740179 #
straight-curve $-1 -72.562028870509963 13.318433216323868 46.683165964278857 0 0 -1 I I #
point $-1 -72.562028870509963 13.318433216323868 12.371091450707684 #
straight-curve $-1 -72.562028870509963 3.7269263703662929 4.0190419677357365 0 -1 0 I I #
point $-1 -72.562028870509963 13.318433216323868 4.0190419677357205 #
point $-1 -67.438528043140522 3.9351044553778181 6.7412248207737813 #
point $-1 -67.438528043140522 7.4538527407325859 6.7412248207737813 #
point $-1 -67.438528043140522 10.972601026087354 6.7412248207737813 #
straight-curve $-1 -70.946768378137676 -56.134729600675648 -12.371091450707684 -1 0 0 I I #
point $-1 -72.562028870509963 -56.134729600675648 -12.371091450707684 #
End-of-ACIS-data 