500 0 10 0           
7 Unknown 11 ACIS 5.0 NT 24 Fri Mar 26 00:15:07 1999 
-1 9.9999999999999995e-007 1e-010 
body $-1 $10 $-1 $11 #
body $-1 $12 $-1 $13 #
body $-1 $14 $-1 $15 #
body $-1 $16 $-1 $17 #
body $-1 $18 $-1 $19 #
body $-1 $20 $-1 $21 #
body $-1 $22 $-1 $23 #
body $-1 $24 $-1 $25 #
body $-1 $26 $-1 $27 #
body $-1 $28 $-1 $29 #
lump $-1 $-1 $30 $0 #
transform $-1 1 0 0 0 1 0 0 0 1 55.133518478957484 24.3420701265016 6.0832517363470453 1 rotate no_reflect no_shear #
lump $-1 $-1 $31 $1 #
transform $-1 1 0 0 0 1 0 0 0 1 55.133518478957484 24.3420701265016 6.0832517363470453 1 rotate no_reflect no_shear #
lump $-1 $-1 $32 $2 #
transform $-1 1 0 0 0 1 0 0 0 1 55.133518478957484 24.3420701265016 6.0832517363470453 1 rotate no_reflect no_shear #
lump $-1 $-1 $33 $3 #
transform $-1 1 0 0 0 1 0 0 0 1 55.133518478957484 24.3420701265016 6.0832517363470453 1 rotate no_reflect no_shear #
lump $-1 $-1 $34 $4 #
transform $-1 1 0 0 0 1 0 0 0 1 55.133518478957484 24.3420701265016 6.0832517363470453 1 rotate no_reflect no_shear #
lump $-1 $-1 $35 $5 #
transform $-1 1 0 0 0 1 0 0 0 1 55.133518478957484 24.3420701265016 6.0832517363470453 1 rotate no_reflect no_shear #
lump $-1 $-1 $36 $6 #
transform $-1 1 0 0 0 1 0 0 0 1 55.133518478957484 24.3420701265016 6.0832517363470453 1 rotate no_reflect no_shear #
lump $-1 $-1 $37 $7 #
transform $-1 1 0 0 0 1 0 0 0 1 55.133518478957484 24.3420701265016 6.0832517363470453 1 rotate no_reflect no_shear #
lump $-1 $-1 $38 $8 #
transform $-1 1 0 0 0 1 0 0 0 1 55.133518478957484 24.3420701265016 6.0832517363470453 1 rotate no_reflect no_shear #
lump $-1 $-1 $39 $9 #
transform $-1 1 0 0 0 1 0 0 0 1 55.133518478957484 24.3420701265016 6.0832517363470453 1 rotate no_reflect no_shear #
shell $-1 $-1 $-1 $40 $-1 $10 #
shell $-1 $-1 $-1 $41 $-1 $12 #
shell $-1 $-1 $-1 $42 $-1 $14 #
shell $-1 $-1 $-1 $43 $-1 $16 #
shell $-1 $-1 $-1 $44 $-1 $18 #
shell $-1 $-1 $-1 $45 $-1 $20 #
shell $-1 $-1 $-1 $46 $-1 $22 #
shell $-1 $-1 $-1 $47 $-1 $24 #
shell $-1 $-1 $-1 $48 $-1 $26 #
shell $-1 $-1 $-1 $49 $-1 $28 #
face $-1 $50 $51 $30 $-1 $52 forward single #
face $-1 $53 $54 $31 $-1 $55 forward single #
face $-1 $56 $57 $32 $-1 $58 forward single #
face $-1 $59 $60 $33 $-1 $61 reversed single #
face $-1 $62 $63 $34 $-1 $64 forward single #
face $-1 $65 $66 $35 $-1 $67 reversed single #
face $-1 $68 $69 $36 $-1 $70 forward single #
face $-1 $71 $72 $37 $-1 $73 reversed single #
face $-1 $74 $75 $38 $-1 $76 forward single #
face $-1 $77 $78 $39 $-1 $79 forward single #
face $-1 $80 $81 $30 $-1 $82 reversed single #
loop $-1 $-1 $83 $40 #
plane-surface $-1 0 0 6.0832517363470453 0 0 1 1 0 0 forward_v I I I I #
face $-1 $84 $85 $31 $-1 $86 reversed single #
loop $-1 $-1 $87 $41 #
plane-surface $-1 -51.385688107932758 0 1.7276703463909975 0 0 1 1 0 0 forward_v I I I I #
face $-1 $88 $89 $32 $-1 $90 reversed single #
loop $-1 $-1 $91 $42 #
plane-surface $-1 51.385688107932765 0 1.7276703463909975 0 0 1 1 0 0 forward_v I I I I #
face $-1 $92 $93 $33 $-1 $94 reversed single #
loop $-1 $-1 $95 $43 #
plane-surface $-1 -17.88335094607864 -106.28644897564378 74.728621476341331 1 0 0 0 0.74314483375859142 -0.66913059716165679 forward_v I I I I #
face $-1 $96 $97 $34 $-1 $98 forward single #
loop $-1 $99 $100 $44 #
cone-surface $-1 -8.9416754730393251 -20.822325550846042 2.4278486829017467 0 0.74314483375859142 -0.66913059716165679 1 0 0 1 I I 0 1 1 forward I I I I #
face $-1 $101 $102 $35 $-1 $103 reversed single #
loop $-1 $-1 $104 $45 #
plane-surface $-1 29.754506790829392 -106.28644897564378 74.728621476341331 1 0 0 0 0.74314483375859142 -0.66913059716165679 forward_v I I I I #
face $-1 $105 $106 $36 $-1 $107 forward single #
loop $-1 $108 $109 $46 #
cone-surface $-1 38.696182263868707 -20.822325550846042 2.4278486829017467 0 0.74314483375859142 -0.66913059716165679 1 0 0 1 I I 0 1 1 forward I I I I #
face $-1 $110 $111 $37 $-1 $112 reversed single #
loop $-1 $-1 $113 $47 #
plane-surface $-1 -47.637857736908039 59.941369486294207 117.26023959065415 1 0 0 0 -0.6560590369687036 -0.75470957328743171 forward_v I I I I #
face $-1 $114 $115 $38 $-1 $116 forward single #
loop $-1 $117 $118 $48 #
cone-surface $-1 -39.842386891688733 21.323012507288979 3.2540517799427371 0 -0.6560590369687036 -0.75470957328743171 1 0 0 1 I I 0 1 1 forward I I I I #
face $-1 $119 $120 $39 $-1 $121 forward single #
loop $-1 $122 $123 $49 #
cone-surface $-1 -28.149180623859785 21.323012507288979 3.2540517799427371 0 -0.6560590369687036 -0.75470957328743171 1 0 0 1 I I 0 1 1 forward I I I I #
face $-1 $124 $125 $30 $-1 $126 reversed single #
loop $-1 $-1 $127 $50 #
plane-surface $-1 0 0 -6.0832517363470453 0 0 1 1 0 0 forward_v I I I I #
coedge $-1 $128 $129 $130 $131 forward $51 $-1 #
face $-1 $132 $133 $31 $-1 $134 reversed single #
loop $-1 $-1 $135 $53 #
plane-surface $-1 -51.385688107932758 0 -1.9218351311554045 0 0 1 1 0 0 forward_v I I I I #
coedge $-1 $136 $137 $138 $139 forward $54 $-1 #
face $-1 $140 $141 $32 $-1 $142 reversed single #
loop $-1 $-1 $143 $56 #
plane-surface $-1 51.385688107932765 0 -1.9218351311554045 0 0 1 1 0 0 forward_v I I I I #
coedge $-1 $144 $145 $146 $147 reversed $57 $-1 #
face $-1 $148 $149 $33 $-1 $150 reversed single #
loop $-1 $-1 $151 $59 #
plane-surface $-1 -8.9416754730393251 -24.342070126501611 0.94557318944521285 0 -0.74314483375859142 0.66913059716165679 1 0 0 forward_v I I I I #
coedge $-1 $152 $153 $154 $155 reversed $60 $-1 #
face $-1 $-1 $156 $34 $-1 $157 forward single #
loop $-1 $158 $159 $62 #
cone-surface $-1 -8.9416754730393251 -19.244001771710696 1.0067196043265332 0 0.74314483375859142 -0.66913059716165679 0.5 0 0 1 I I -0.70710678118654746 0.70710678118654746 0.5 forward I I I I #
loop $-1 $-1 $160 $44 #
coedge $-1 $100 $100 $161 $162 reversed $63 $-1 #
face $-1 $163 $164 $35 $-1 $165 reversed single #
loop $-1 $-1 $166 $65 #
plane-surface $-1 38.696182263868707 -24.342070126501611 0.94557318944521285 0 -0.74314483375859142 0.66913059716165679 1 0 0 forward_v I I I I #
coedge $-1 $167 $168 $169 $170 reversed $66 $-1 #
face $-1 $-1 $171 $36 $-1 $172 forward single #
loop $-1 $173 $174 $68 #
cone-surface $-1 38.696182263868707 -19.244001771710696 1.0067196043265332 0 0.74314483375859142 -0.66913059716165679 0.5 0 0 1 I I -0.70710678118654746 0.70710678118654746 0.5 forward I I I I #
loop $-1 $-1 $175 $46 #
coedge $-1 $109 $109 $176 $177 reversed $69 $-1 #
face $-1 $178 $179 $37 $-1 $180 reversed single #
loop $-1 $-1 $181 $71 #
plane-surface $-1 -33.995783757774262 -12.400316589707941 34.040651180476686 0 0.6560590369687036 0.75470957328743171 1 0 0 forward_v I I I I #
coedge $-1 $182 $183 $184 $185 reversed $72 $-1 #
face $-1 $-1 $186 $38 $-1 $187 forward single #
loop $-1 $188 $189 $74 #
cone-surface $-1 -39.842386891688733 20.266464536729575 2.03863239984718 0 -0.6560590369687036 -0.75470957328743171 0.5 0 0 1 I I -0.70710678118654746 0.70710678118654746 0.5 forward I I I I #
loop $-1 $-1 $190 $48 #
coedge $-1 $118 $118 $191 $192 reversed $75 $-1 #
face $-1 $-1 $193 $39 $-1 $194 forward single #
loop $-1 $195 $196 $77 #
cone-surface $-1 -28.149180623859785 20.266464536729575 2.03863239984718 0 -0.6560590369687036 -0.75470957328743171 0.5 0 0 1 I I -0.70710678118654746 0.70710678118654746 0.5 forward I I I I #
loop $-1 $-1 $197 $49 #
coedge $-1 $123 $123 $198 $199 reversed $78 $-1 #
face $-1 $200 $201 $30 $-1 $202 reversed single #
loop $-1 $-1 $203 $80 #
plane-surface $-1 0 -24.3420701265016 0 0 1 0 0 0 1 forward_v I I I I #
coedge $-1 $204 $205 $206 $207 forward $81 $-1 #
coedge $-1 $208 $83 $209 $210 forward $51 $-1 #
coedge $-1 $83 $208 $211 $212 forward $51 $-1 #
coedge $-1 $213 $214 $83 $131 reversed $215 $-1 #
edge $-1 $216 -24.3420701265016 $217 24.3420701265016 $130 $218 forward 7 unknown #
face $-1 $219 $220 $31 $-1 $221 reversed single #
loop $-1 $-1 $222 $84 #
plane-surface $-1 -47.637857736908032 0 -0.097082392382203508 -1 0 0 0 0 1 forward_v I I I I #
coedge $-1 $223 $224 $225 $226 forward $85 $-1 #
coedge $-1 $227 $87 $228 $229 reversed $54 $-1 #
coedge $-1 $87 $227 $230 $231 reversed $54 $-1 #
coedge $-1 $222 $232 $87 $139 reversed $133 $-1 #
edge $-1 $233 -24.3420701265016 $234 24.3420701265016 $138 $235 forward 7 unknown #
face $-1 $236 $237 $32 $-1 $238 reversed single #
loop $-1 $-1 $239 $88 #
plane-surface $-1 47.637857736908039 0 -0.097082392382203508 1 0 0 0 0 -1 forward_v I I I I #
coedge $-1 $240 $241 $242 $243 reversed $89 $-1 #
coedge $-1 $244 $91 $245 $246 reversed $57 $-1 #
coedge $-1 $91 $244 $247 $248 reversed $57 $-1 #
coedge $-1 $249 $250 $91 $147 forward $251 $-1 #
edge $-1 $252 -24.3420701265016 $253 24.3420701265016 $146 $254 forward 7 unknown #
face $-1 $255 $256 $33 $-1 $257 forward single #
loop $-1 $-1 $258 $92 #
plane-surface $-1 -1.0658141036401503e-014 -106.28644897564378 74.728621476341331 -1 0 0 0 -0.74314483375859142 0.66913059716165679 forward_v I I I I #
coedge $-1 $259 $260 $261 $262 reversed $93 $-1 #
coedge $-1 $153 $95 $263 $264 reversed $60 $-1 #
coedge $-1 $95 $152 $259 $265 reversed $60 $-1 #
coedge $-1 $261 $266 $95 $155 forward $267 $-1 #
edge $-1 $268 31.281059001823621 $269 36.418737548725439 $154 $270 forward 7 unknown #
loop $-1 $-1 $161 $96 #
plane-surface $-1 -8.9416754730393251 -24.342070126501611 0.94557318944521285 0 -0.74314483375859142 0.66913059716165679 1 0 0 forward_v I I I I #
loop $-1 $-1 $271 $62 #
coedge $-1 $159 $159 $160 $272 reversed $97 $-1 #
coedge $-1 $160 $160 $159 $272 forward $99 $-1 #
coedge $-1 $161 $161 $100 $162 forward $156 $-1 #
edge $-1 $273 -2.3101582141960632e-015 $273 6.2831853071795978 $161 $274 forward 7 unknown #
face $-1 $275 $276 $35 $-1 $277 forward single #
loop $-1 $-1 $169 $101 #
plane-surface $-1 0 -24.3420701265016 0 0 1 0 0 0 1 forward_v I I I I #
coedge $-1 $278 $279 $280 $281 reversed $102 $-1 #
coedge $-1 $168 $104 $282 $283 reversed $66 $-1 #
coedge $-1 $104 $167 $278 $284 reversed $66 $-1 #
coedge $-1 $280 $285 $104 $170 forward $164 $-1 #
edge $-1 $286 31.281059001823621 $287 36.418737548725439 $169 $288 forward 7 unknown #
loop $-1 $-1 $176 $105 #
plane-surface $-1 38.696182263868707 -24.342070126501611 0.94557318944521285 0 -0.74314483375859142 0.66913059716165679 1 0 0 forward_v I I I I #
loop $-1 $-1 $289 $68 #
coedge $-1 $174 $174 $175 $290 reversed $106 $-1 #
coedge $-1 $175 $175 $174 $290 forward $108 $-1 #
coedge $-1 $176 $176 $109 $177 forward $171 $-1 #
edge $-1 $291 -2.3101582141960632e-015 $291 6.2831853071795978 $176 $292 forward 7 unknown #
face $-1 $293 $294 $37 $-1 $295 reversed single #
loop $-1 $-1 $296 $110 #
plane-surface $-1 -20.353709778640486 59.941369486294207 117.26023959065415 -1 0 0 0 0.6560590369687036 0.75470957328743171 forward_v I I I I #
coedge $-1 $297 $298 $299 $300 reversed $111 $-1 #
coedge $-1 $183 $113 $301 $302 reversed $72 $-1 #
coedge $-1 $113 $182 $297 $303 reversed $72 $-1 #
coedge $-1 $299 $304 $113 $185 forward $305 $-1 #
edge $-1 $306 5.6286146166455033 $307 10.209692950920669 $184 $308 forward 7 unknown #
loop $-1 $-1 $191 $114 #
plane-surface $-1 -33.995783757774262 -12.400316589707941 34.040651180476686 0 0.6560590369687036 0.75470957328743171 1 0 0 forward_v I I I I #
loop $-1 $-1 $309 $74 #
coedge $-1 $189 $189 $190 $310 reversed $115 $-1 #
coedge $-1 $190 $190 $189 $310 forward $117 $-1 #
coedge $-1 $191 $191 $118 $192 forward $186 $-1 #
edge $-1 $311 2.5673033965719019e-015 $311 6.2831853071796031 $191 $312 forward 7 unknown #
loop $-1 $-1 $198 $119 #
plane-surface $-1 -33.995783757774262 -12.400316589707941 34.040651180476686 0 0.6560590369687036 0.75470957328743171 1 0 0 forward_v I I I I #
loop $-1 $-1 $313 $77 #
coedge $-1 $196 $196 $197 $314 reversed $120 $-1 #
coedge $-1 $197 $197 $196 $314 forward $122 $-1 #
coedge $-1 $198 $198 $123 $199 forward $193 $-1 #
edge $-1 $315 2.5673033965719019e-015 $315 6.2831853071796031 $198 $316 forward 7 unknown #
face $-1 $317 $318 $30 $-1 $319 reversed single #
loop $-1 $-1 $320 $124 #
plane-surface $-1 -55.133518478957484 0 0 1 0 0 0 0 -1 forward_v I I I I #
coedge $-1 $321 $211 $322 $323 forward $125 $-1 #
coedge $-1 $324 $127 $321 $325 forward $81 $-1 #
coedge $-1 $127 $324 $326 $327 forward $81 $-1 #
coedge $-1 $214 $213 $127 $207 reversed $215 $-1 #
edge $-1 $328 -24.3420701265016 $329 24.3420701265016 $206 $330 forward 7 unknown #
coedge $-1 $129 $128 $331 $332 forward $51 $-1 #
coedge $-1 $333 $334 $128 $210 reversed $318 $-1 #
edge $-1 $217 -55.133518478957484 $335 55.133518478957484 $209 $336 forward 7 unknown #
coedge $-1 $203 $337 $129 $212 reversed $125 $-1 #
edge $-1 $338 -55.133518478957484 $216 55.133518478957484 $211 $339 forward 7 unknown #
coedge $-1 $206 $130 $337 $340 forward $215 $-1 #
coedge $-1 $130 $206 $333 $341 reversed $215 $-1 #
loop $-1 $-1 $213 $317 #
vertex $-1 $131 $342 #
vertex $-1 $131 $343 #
straight-curve $-1 55.133518478957484 0 6.0832517363470453 0 1 0 I I #
face $-1 $344 $345 $31 $-1 $346 reversed single #
loop $-1 $-1 $347 $132 #
plane-surface $-1 0 -24.3420701265016 0 0 1 0 0 0 1 forward_v I I I I #
coedge $-1 $225 $138 $348 $349 reversed $133 $-1 #
coedge $-1 $350 $135 $347 $351 reversed $85 $-1 #
coedge $-1 $135 $350 $352 $353 reversed $85 $-1 #
coedge $-1 $232 $222 $135 $226 reversed $133 $-1 #
edge $-1 $354 -24.3420701265016 $355 24.3420701265016 $225 $356 forward 7 unknown #
coedge $-1 $137 $136 $357 $358 reversed $54 $-1 #
coedge $-1 $359 $360 $136 $229 forward $361 $-1 #
edge $-1 $362 -29.440674424991105 $234 -21.945013682941653 $228 $363 forward 7 unknown #
coedge $-1 $364 $348 $137 $231 forward $220 $-1 #
edge $-1 $233 21.945013682941653 $365 29.440674424991105 $230 $366 forward 7 unknown #
coedge $-1 $138 $225 $359 $367 reversed $133 $-1 #
vertex $-1 $231 $368 #
vertex $-1 $229 $369 #
straight-curve $-1 -47.637857736908032 0 1.7276703463909975 0 1 0 I I #
face $-1 $370 $371 $32 $-1 $372 reversed single #
loop $-1 $-1 $247 $140 #
plane-surface $-1 0 -24.3420701265016 0 0 1 0 0 0 1 forward_v I I I I #
coedge $-1 $373 $374 $375 $376 reversed $141 $-1 #
coedge $-1 $377 $143 $378 $379 reversed $89 $-1 #
coedge $-1 $143 $377 $380 $381 reversed $89 $-1 #
coedge $-1 $250 $249 $143 $243 forward $251 $-1 #
edge $-1 $382 -24.3420701265016 $383 24.3420701265016 $242 $384 forward 7 unknown #
coedge $-1 $145 $144 $374 $385 forward $57 $-1 #
coedge $-1 $386 $375 $144 $246 forward $371 $-1 #
edge $-1 $387 21.945013682941656 $252 29.440674424991109 $245 $388 forward 7 unknown #
coedge $-1 $389 $390 $145 $248 forward $237 $-1 #
edge $-1 $253 -29.440674424991109 $391 -21.945013682941656 $247 $392 forward 7 unknown #
coedge $-1 $242 $146 $390 $393 forward $251 $-1 #
coedge $-1 $146 $242 $386 $394 reversed $251 $-1 #
loop $-1 $-1 $146 $370 #
vertex $-1 $394 $395 #
vertex $-1 $393 $396 #
straight-curve $-1 55.133518478957484 0 1.7276703463909975 0 -1 0 I I #
face $-1 $-1 $267 $33 $-1 $397 reversed single #
loop $-1 $-1 $398 $148 #
plane-surface $-1 0 0 6.0832517363470453 0 0 1 1 0 0 forward_v I I I I #
coedge $-1 $399 $400 $401 $402 reversed $149 $-1 #
coedge $-1 $403 $151 $153 $265 forward $93 $-1 #
coedge $-1 $151 $403 $399 $404 forward $93 $-1 #
coedge $-1 $401 $154 $151 $262 forward $267 $-1 #
edge $-1 $269 -13.412513209558977 $405 4.4708377365196519 $261 $406 forward 7 unknown #
coedge $-1 $407 $408 $152 $264 forward $256 $-1 #
edge $-1 $409 -33.427140788119296 $268 -28.80115436132029 $263 $410 forward 7 unknown #
edge $-1 $269 1.5959792880569736e-014 $409 6.9134283298681884 $153 $411 forward 7 unknown #
coedge $-1 $154 $401 $407 $412 reversed $267 $-1 #
loop $-1 $-1 $401 $255 #
vertex $-1 $412 $413 #
vertex $-1 $155 $414 #
straight-curve $-1 -17.88335094607864 -24.342070126501596 37.364310738170666 0 0 -1 I I #
coedge $-1 $271 $271 $-1 $415 reversed $158 $-1 #
edge $-1 $416 0 $416 6.2831853071796004 $159 $417 forward 7 unknown #
vertex $-1 $162 $418 #
ellipse-curve $-1 -8.9416754730393251 -22.029076913102095 3.5144124628961348 0 -0.74314483375859142 0.66913059716165679 1 0 0 1 I I #
face $-1 $-1 $419 $35 $-1 $420 forward single #
loop $-1 $-1 $421 $163 #
plane-surface $-1 47.637857736908039 0 -0.097082392382203508 1 0 0 0 0 -1 forward_v I I I I #
coedge $-1 $422 $166 $168 $284 forward $102 $-1 #
coedge $-1 $166 $422 $421 $423 forward $102 $-1 #
coedge $-1 $424 $169 $166 $281 forward $164 $-1 #
edge $-1 $287 10.406415658895039 $425 28.289766604973664 $280 $426 forward 7 unknown #
coedge $-1 $427 $428 $167 $283 forward $419 $-1 #
edge $-1 $429 -33.427140788119296 $286 -28.80115436132029 $282 $430 forward 7 unknown #
edge $-1 $287 1.5959792880569736e-014 $429 6.9134283298681884 $168 $431 forward 7 unknown #
coedge $-1 $169 $424 $427 $432 reversed $164 $-1 #
vertex $-1 $432 $433 #
vertex $-1 $170 $434 #
straight-curve $-1 29.754506790829392 -24.342070126501596 37.364310738170666 0 0 -1 I I #
coedge $-1 $289 $289 $-1 $435 reversed $173 $-1 #
edge $-1 $436 0 $436 6.2831853071796004 $174 $437 forward 7 unknown #
vertex $-1 $177 $438 #
ellipse-curve $-1 38.696182263868707 -22.029076913102095 3.5144124628961348 0 -0.74314483375859142 0.66913059716165679 1 0 0 1 I I #
face $-1 $-1 $305 $37 $-1 $439 forward single #
loop $-1 $-1 $440 $178 #
plane-surface $-1 0 24.3420701265016 0 0 -1 0 0 0 -1 forward_v I I I I #
coedge $-1 $441 $442 $443 $444 reversed $179 $-1 #
coedge $-1 $445 $181 $183 $303 forward $111 $-1 #
coedge $-1 $181 $445 $441 $446 forward $111 $-1 #
coedge $-1 $443 $184 $181 $300 forward $305 $-1 #
edge $-1 $307 -30.639965858020908 $447 -3.3558178997533545 $299 $448 forward 7 unknown #
coedge $-1 $449 $450 $182 $302 forward $294 $-1 #
edge $-1 $451 -56.529138784884978 $306 -52.546868058980031 $301 $452 forward 7 unknown #
edge $-1 $307 42.614151880760254 $451 48.684140253003221 $183 $453 forward 7 unknown #
coedge $-1 $184 $443 $449 $454 forward $305 $-1 #
loop $-1 $-1 $443 $293 #
vertex $-1 $302 $455 #
vertex $-1 $185 $456 #
straight-curve $-1 -47.637857736908039 29.970684743147103 6.0832517363470444 0 -1 0 I I #
coedge $-1 $309 $309 $-1 $457 reversed $188 $-1 #
edge $-1 $458 0 $458 6.2831853071796004 $189 $459 forward 7 unknown #
vertex $-1 $192 $460 #
ellipse-curve $-1 -39.842386891688733 22.051530959364019 4.0921163733945658 0 0.6560590369687036 0.75470957328743171 1 0 0 1 I I #
coedge $-1 $313 $313 $-1 $461 reversed $195 $-1 #
edge $-1 $462 0 $462 6.2831853071796004 $196 $463 forward 7 unknown #
vertex $-1 $199 $464 #
ellipse-curve $-1 -28.149180623859785 22.051530959364019 4.0921163733945658 0 0.6560590369687036 0.75470957328743171 1 0 0 1 I I #
face $-1 $-1 $215 $30 $-1 $465 reversed single #
loop $-1 $-1 $333 $200 #
plane-surface $-1 0 24.3420701265016 0 0 -1 0 0 0 -1 forward_v I I I I #
coedge $-1 $466 $331 $334 $467 forward $201 $-1 #
coedge $-1 $337 $203 $204 $325 reversed $125 $-1 #
coedge $-1 $331 $466 $203 $323 reversed $201 $-1 #
edge $-1 $338 -6.0832517363470453 $468 6.0832517363470453 $322 $469 forward 7 unknown #
coedge $-1 $205 $204 $466 $470 forward $81 $-1 #
edge $-1 $329 -55.133518478957484 $468 55.133518478957484 $321 $471 forward 7 unknown #
coedge $-1 $334 $333 $205 $327 reversed $318 $-1 #
edge $-1 $472 -55.133518478957484 $328 55.133518478957484 $326 $473 forward 7 unknown #
vertex $-1 $207 $474 #
vertex $-1 $340 $475 #
straight-curve $-1 55.133518478957484 0 -6.0832517363470453 0 -1 0 I I #
coedge $-1 $320 $322 $208 $332 reversed $201 $-1 #
edge $-1 $335 -24.3420701265016 $338 24.3420701265016 $331 $476 forward 7 unknown #
coedge $-1 $326 $209 $214 $341 forward $318 $-1 #
coedge $-1 $209 $326 $320 $467 reversed $318 $-1 #
vertex $-1 $210 $477 #
straight-curve $-1 0 24.3420701265016 6.0832517363470453 -1 0 0 I I #
coedge $-1 $211 $321 $213 $340 reversed $125 $-1 #
vertex $-1 $332 $478 #
straight-curve $-1 0 -24.3420701265016 6.0832517363470453 1 0 0 I I #
edge $-1 $216 -6.0832517363470453 $329 6.0832517363470453 $213 $479 forward 7 unknown #
edge $-1 $217 -6.0832517363470453 $328 6.0832517363470453 $214 $480 forward 7 unknown #
point $-1 55.133518478957484 -24.3420701265016 6.0832517363470453 #
point $-1 55.133518478957484 24.3420701265016 6.0832517363470453 #
face $-1 $-1 $361 $31 $-1 $481 reversed single #
loop $-1 $-1 $482 $219 #
plane-surface $-1 -55.133518478957484 0 0 1 0 0 0 0 -1 forward_v I I I I #
coedge $-1 $348 $364 $223 $351 forward $220 $-1 #
coedge $-1 $230 $347 $222 $349 forward $220 $-1 #
edge $-1 $355 -1.8732939349643027 $233 1.7762115425820992 $348 $483 forward 7 unknown #
coedge $-1 $224 $223 $482 $484 reversed $85 $-1 #
edge $-1 $485 -29.440674424991105 $355 -21.945013682941653 $347 $486 forward 7 unknown #
coedge $-1 $360 $359 $224 $353 forward $361 $-1 #
edge $-1 $354 21.945013682941653 $487 29.440674424991105 $352 $488 forward 7 unknown #
vertex $-1 $353 $489 #
vertex $-1 $351 $490 #
straight-curve $-1 -47.637857736908032 0 -1.9218351311554045 0 -1 0 I I #
coedge $-1 $491 $492 $227 $358 forward $345 $-1 #
edge $-1 $365 -24.3420701265016 $362 24.3420701265016 $357 $493 forward 7 unknown #
coedge $-1 $352 $228 $232 $367 forward $361 $-1 #
coedge $-1 $228 $352 $491 $494 reversed $361 $-1 #
loop $-1 $-1 $352 $344 #
vertex $-1 $494 $495 #
straight-curve $-1 -25.692844053966379 24.3420701265016 1.7276703463909975 1 0 0 I I #
coedge $-1 $347 $230 $492 $496 forward $220 $-1 #
vertex $-1 $496 $497 #
straight-curve $-1 -25.692844053966379 -24.3420701265016 1.7276703463909975 -1 0 0 I I #
edge $-1 $234 -1.7762115425820992 $354 1.8732939349643027 $359 $498 forward 7 unknown #
point $-1 -47.637857736908032 -24.3420701265016 1.7276703463909975 #
point $-1 -47.637857736908032 24.3420701265016 1.7276703463909975 #
face $-1 $-1 $251 $32 $-1 $499 reversed single #
loop $-1 $-1 $245 $236 #
plane-surface $-1 0 24.3420701265016 0 0 -1 0 0 0 -1 forward_v I I I I #
coedge $-1 $500 $239 $377 $501 reversed $141 $-1 #
coedge $-1 $239 $500 $244 $385 reversed $141 $-1 #
coedge $-1 $245 $380 $239 $376 forward $371 $-1 #
edge $-1 $502 -1.8732939349643027 $387 1.7762115425820992 $375 $503 forward 7 unknown #
coedge $-1 $241 $240 $373 $501 forward $89 $-1 #
coedge $-1 $390 $389 $240 $379 forward $237 $-1 #
edge $-1 $504 21.945013682941656 $382 29.440674424991109 $378 $505 forward 7 unknown #
coedge $-1 $375 $386 $241 $381 forward $371 $-1 #
edge $-1 $383 -29.440674424991109 $502 -21.945013682941656 $380 $506 forward 7 unknown #
vertex $-1 $243 $507 #
vertex $-1 $243 $508 #
straight-curve $-1 55.133518478957484 0 -1.9218351311554045 0 1 0 I I #
edge $-1 $387 -24.3420701265016 $391 24.3420701265016 $374 $509 forward 7 unknown #
coedge $-1 $380 $245 $250 $394 forward $371 $-1 #
vertex $-1 $246 $510 #
straight-curve $-1 25.692844053966382 24.3420701265016 1.7276703463909975 1 0 0 I I #
coedge $-1 $378 $247 $500 $511 forward $237 $-1 #
coedge $-1 $247 $378 $249 $393 reversed $237 $-1 #
vertex $-1 $248 $512 #
straight-curve $-1 25.692844053966382 -24.3420701265016 1.7276703463909975 -1 0 0 I I #
edge $-1 $253 -1.7276703463909975 $382 1.9218351311554045 $249 $513 forward 7 unknown #
edge $-1 $252 -1.7276703463909975 $383 1.9218351311554045 $250 $514 forward 7 unknown #
point $-1 55.133518478957491 24.3420701265016 1.7276703463909975 #
point $-1 55.133518478957491 -24.3420701265016 1.7276703463909975 #
plane-surface $-1 0 -24.3420701265016 0 0 1 0 0 0 1 forward_v I I I I #
coedge $-1 $408 $407 $400 $515 forward $256 $-1 #
coedge $-1 $400 $258 $260 $404 reversed $149 $-1 #
coedge $-1 $258 $399 $398 $515 reversed $149 $-1 #
coedge $-1 $266 $261 $258 $402 forward $267 $-1 #
edge $-1 $405 -36.418737548725439 $516 -31.281059001823621 $401 $517 forward 7 unknown #
coedge $-1 $260 $259 $408 $518 reversed $93 $-1 #
edge $-1 $519 -6.9134283298681884 $405 -1.5959792880569736e-014 $399 $520 forward 7 unknown #
vertex $-1 $262 $521 #
straight-curve $-1 -4.4708377365196625 -24.3420701265016 0.94557318944522073 1 0 0 I I #
coedge $-1 $398 $263 $266 $412 forward $256 $-1 #
coedge $-1 $263 $398 $403 $518 forward $256 $-1 #
vertex $-1 $264 $522 #
straight-curve $-1 -17.88335094607864 -53.14322448782189 6.0832517363470444 0 -1 0 I I #
straight-curve $-1 -17.88335094607864 -24.342070126501611 0.94557318944521285 0 0.66913059716165679 0.74314483375859142 I I #
edge $-1 $268 -17.88335094607864 $516 -1.0658141036401503e-014 $266 $523 forward 7 unknown #
point $-1 -17.88335094607864 -24.3420701265016 6.0832517363470453 #
point $-1 -17.88335094607864 -24.3420701265016 0.94557318944522473 #
edge $-1 $524 1 $524 0 $271 $-1 forward 7 unknown #
vertex $-1 $272 $525 #
ellipse-curve $-1 -8.9416754730393251 -19.615574188589992 1.3412849029073617 0 -0.74314483375859142 0.66913059716165679 1 0 0 1 I I #
point $-1 -7.9416754730393251 -22.029076913102095 3.5144124628961317 #
loop $-1 $-1 $282 $275 #
plane-surface $-1 0 0 6.0832517363470453 0 0 1 1 0 0 forward_v I I I I #
coedge $-1 $526 $527 $279 $423 reversed $276 $-1 #
coedge $-1 $279 $278 $428 $528 reversed $102 $-1 #
edge $-1 $529 -6.9134283298681884 $425 -1.5959792880569736e-014 $421 $530 forward 7 unknown #
coedge $-1 $285 $280 $527 $531 forward $164 $-1 #
vertex $-1 $531 $532 #
straight-curve $-1 19.348091131934353 -24.3420701265016 0.94557318944522073 1 0 0 I I #
coedge $-1 $533 $282 $285 $432 forward $419 $-1 #
coedge $-1 $282 $533 $422 $528 forward $419 $-1 #
vertex $-1 $283 $534 #
straight-curve $-1 29.754506790829392 -53.14322448782189 6.0832517363470444 0 -1 0 I I #
straight-curve $-1 29.754506790829392 -24.342070126501611 0.94557318944521285 0 0.66913059716165679 0.74314483375859142 I I #
edge $-1 $286 29.754506790829392 $535 47.637857736908018 $285 $536 forward 7 unknown #
point $-1 29.754506790829392 -24.3420701265016 6.0832517363470453 #
point $-1 29.754506790829392 -24.3420701265016 0.94557318944522473 #
edge $-1 $537 1 $537 0 $289 $-1 forward 7 unknown #
vertex $-1 $290 $538 #
ellipse-curve $-1 38.696182263868707 -19.615574188589992 1.3412849029073617 0 -0.74314483375859142 0.66913059716165679 1 0 0 1 I I #
point $-1 39.696182263868707 -22.029076913102095 3.5144124628961317 #
plane-surface $-1 0 0 6.0832517363470453 0 0 1 1 0 0 forward_v I I I I #
coedge $-1 $450 $449 $442 $539 forward $294 $-1 #
coedge $-1 $442 $296 $298 $446 reversed $179 $-1 #
coedge $-1 $296 $441 $440 $539 reversed $179 $-1 #
coedge $-1 $304 $299 $296 $444 forward $305 $-1 #
edge $-1 $447 -10.209692950920669 $540 -5.6286146166455033 $443 $541 forward 7 unknown #
coedge $-1 $298 $297 $450 $542 reversed $111 $-1 #
edge $-1 $543 -48.684140253003221 $447 -42.614151880760254 $441 $544 forward 7 unknown #
vertex $-1 $300 $545 #
straight-curve $-1 -16.997891878887131 19.760991792226431 6.0832517363470444 1 0 0 I I #
coedge $-1 $440 $301 $304 $454 reversed $294 $-1 #
coedge $-1 $301 $440 $445 $542 forward $294 $-1 #
vertex $-1 $302 $546 #
straight-curve $-1 -47.637857736908039 24.3420701265016 58.630119795327076 0 0 1 I I #
straight-curve $-1 -47.637857736908039 -12.400316589707941 34.040651180476686 0 0.75470957328743171 -0.6560590369687036 I I #
edge $-1 $540 20.353709778640486 $306 47.637857736908039 $449 $547 forward 7 unknown #
point $-1 -47.637857736908039 24.3420701265016 6.0832517363470453 #
point $-1 -47.637857736908039 19.760991792226434 6.0832517363470444 #
edge $-1 $548 1 $548 0 $309 $-1 forward 7 unknown #
vertex $-1 $310 $549 #
ellipse-curve $-1 -39.842386891688733 20.594494055213929 2.4159871864908959 0 0.6560590369687036 0.75470957328743171 1 0 0 1 I I #
point $-1 -38.842386891688733 22.051530959364033 4.0921163733945782 #
edge $-1 $550 1 $550 0 $313 $-1 forward 7 unknown #
vertex $-1 $314 $551 #
ellipse-curve $-1 -28.149180623859785 20.594494055213929 2.4159871864908959 0 0.6560590369687036 0.75470957328743171 1 0 0 1 I I #
point $-1 -27.149180623859785 22.051530959364033 4.0921163733945782 #
plane-surface $-1 55.133518478957484 0 0 -1 0 0 0 0 1 forward_v I I I I #
coedge $-1 $322 $320 $324 $470 reversed $201 $-1 #
edge $-1 $335 -6.0832517363470453 $472 6.0832517363470453 $334 $552 forward 7 unknown #
vertex $-1 $470 $553 #
straight-curve $-1 -55.133518478957484 -24.3420701265016 0 0 0 -1 I I #
edge $-1 $468 -24.3420701265016 $472 24.3420701265016 $466 $554 forward 7 unknown #
straight-curve $-1 0 -24.3420701265016 -6.0832517363470453 -1 0 0 I I #
vertex $-1 $327 $555 #
straight-curve $-1 0 24.3420701265016 -6.0832517363470453 1 0 0 I I #
point $-1 55.133518478957484 24.3420701265016 -6.0832517363470453 #
point $-1 55.133518478957484 -24.3420701265016 -6.0832517363470453 #
straight-curve $-1 -55.133518478957484 0 6.0832517363470453 0 -1 0 I I #
point $-1 -55.133518478957484 24.3420701265016 6.0832517363470453 #
point $-1 -55.133518478957484 -24.3420701265016 6.0832517363470453 #
straight-curve $-1 55.133518478957484 -24.3420701265016 0 0 0 -1 I I #
straight-curve $-1 55.133518478957484 24.3420701265016 0 0 0 -1 I I #
plane-surface $-1 0 24.3420701265016 0 0 -1 0 0 0 -1 forward_v I I I I #
coedge $-1 $492 $491 $350 $484 forward $345 $-1 #
straight-curve $-1 -47.637857736908032 -24.3420701265016 -0.048541196191101754 0 0 1 I I #
edge $-1 $487 -24.3420701265016 $485 24.3420701265016 $482 $556 forward 7 unknown #
vertex $-1 $351 $557 #
straight-curve $-1 -25.692844053966379 -24.3420701265016 -1.9218351311554045 1 0 0 I I #
vertex $-1 $353 $558 #
straight-curve $-1 -25.692844053966379 24.3420701265016 -1.9218351311554045 -1 0 0 I I #
point $-1 -47.637857736908032 24.3420701265016 -1.9218351311554045 #
point $-1 -47.637857736908032 -24.3420701265016 -1.9218351311554045 #
coedge $-1 $482 $357 $360 $494 forward $345 $-1 #
coedge $-1 $357 $482 $364 $496 reversed $345 $-1 #
straight-curve $-1 -55.133518478957484 0 1.7276703463909975 0 1 0 I I #
edge $-1 $362 -1.7276703463909975 $487 1.9218351311554045 $360 $559 forward 7 unknown #
point $-1 -55.133518478957484 24.3420701265016 1.7276703463909975 #
edge $-1 $365 -1.7276703463909975 $485 1.9218351311554045 $492 $560 forward 7 unknown #
point $-1 -55.133518478957484 -24.3420701265016 1.7276703463909975 #
straight-curve $-1 -47.637857736908032 24.3420701265016 -0.048541196191101754 0 0 -1 I I #
plane-surface $-1 55.133518478957484 0 0 -1 0 0 0 0 1 forward_v I I I I #
coedge $-1 $374 $373 $389 $511 reversed $141 $-1 #
edge $-1 $504 -24.3420701265016 $502 24.3420701265016 $373 $561 forward 7 unknown #
vertex $-1 $381 $562 #
straight-curve $-1 47.637857736908039 24.3420701265016 -0.048541196191101754 0 0 1 I I #
vertex $-1 $379 $563 #
straight-curve $-1 25.692844053966382 -24.3420701265016 -1.9218351311554045 1 0 0 I I #
straight-curve $-1 25.692844053966382 24.3420701265016 -1.9218351311554045 -1 0 0 I I #
point $-1 55.133518478957491 -24.3420701265016 -1.9218351311554045 #
point $-1 55.133518478957491 24.3420701265016 -1.9218351311554045 #
straight-curve $-1 47.637857736908039 0 1.7276703463909975 0 -1 0 I I #
point $-1 47.637857736908039 24.3420701265016 1.7276703463909975 #
edge $-1 $391 -1.7762115425820992 $504 1.8732939349643027 $389 $564 forward 7 unknown #
point $-1 47.637857736908039 -24.3420701265016 1.7276703463909975 #
straight-curve $-1 55.133518478957484 -24.3420701265016 0 0 0 -1 I I #
straight-curve $-1 55.133518478957484 24.3420701265016 0 0 0 -1 I I #
edge $-1 $516 28.80115436132029 $519 33.427140788119296 $398 $565 forward 7 unknown #
vertex $-1 $515 $566 #
straight-curve $-1 -1.0658141036401503e-014 -24.342070126501596 37.364310738170666 0 0 1 I I #
edge $-1 $519 -4.4708377365196519 $409 13.412513209558977 $408 $567 forward 7 unknown #
vertex $-1 $518 $568 #
straight-curve $-1 -1.0658141036401503e-014 -24.342070126501611 0.94557318944521285 0 -0.66913059716165679 -0.74314483375859142 I I #
point $-1 -1.0658141036401503e-014 -24.3420701265016 0.94557318944522473 #
point $-1 -17.88335094607864 -19.716083699702594 6.0832517363470453 #
straight-curve $-1 0 -24.3420701265016 6.0832517363470453 1 0 0 I I #
vertex $-1 $415 $569 #
point $-1 -7.9416754730393251 -19.615574188589992 1.3412849029073617 #
coedge $-1 $527 $421 $533 $570 reversed $276 $-1 #
coedge $-1 $421 $526 $424 $531 reversed $276 $-1 #
edge $-1 $529 -28.289766604973664 $429 -10.406415658895039 $428 $571 forward 7 unknown #
vertex $-1 $570 $572 #
straight-curve $-1 47.637857736908018 -24.342070126501611 0.94557318944521285 0 -0.66913059716165679 -0.74314483375859142 I I #
edge $-1 $425 -36.418737548725439 $535 -31.281059001823621 $424 $573 forward 7 unknown #
point $-1 47.637857736908018 -24.3420701265016 0.94557318944522473 #
coedge $-1 $428 $427 $526 $570 forward $419 $-1 #
point $-1 29.754506790829392 -19.716083699702594 6.0832517363470453 #
vertex $-1 $570 $574 #
straight-curve $-1 0 -24.3420701265016 6.0832517363470453 1 0 0 I I #
vertex $-1 $435 $575 #
point $-1 39.696182263868707 -19.615574188589992 1.3412849029073617 #
edge $-1 $540 52.546868058980031 $543 56.529138784884978 $440 $576 forward 7 unknown #
vertex $-1 $454 $577 #
straight-curve $-1 -20.353709778640486 29.970684743147103 6.0832517363470444 0 1 0 I I #
edge $-1 $543 3.3558178997533545 $451 30.639965858020908 $450 $578 forward 7 unknown #
vertex $-1 $542 $579 #
straight-curve $-1 -20.353709778640486 -12.400316589707941 34.040651180476686 0 -0.75470957328743171 0.6560590369687036 I I #
point $-1 -20.353709778640486 19.760991792226434 6.0832517363470444 #
point $-1 -47.637857736908039 24.342070126501596 2.1009810104420943 #
straight-curve $-1 0 24.3420701265016 6.0832517363470453 -1 0 0 I I #
vertex $-1 $457 $580 #
point $-1 -38.842386891688733 20.594494055213929 2.4159871864908959 #
vertex $-1 $461 $581 #
point $-1 -27.149180623859785 20.594494055213929 2.4159871864908959 #
straight-curve $-1 -55.133518478957484 24.3420701265016 0 0 0 -1 I I #
point $-1 -55.133518478957484 -24.3420701265016 -6.0832517363470453 #
straight-curve $-1 -55.133518478957484 0 -6.0832517363470453 0 1 0 I I #
point $-1 -55.133518478957484 24.3420701265016 -6.0832517363470453 #
straight-curve $-1 -55.133518478957484 0 -1.9218351311554045 0 -1 0 I I #
point $-1 -55.133518478957484 -24.3420701265016 -1.9218351311554045 #
point $-1 -55.133518478957484 24.3420701265016 -1.9218351311554045 #
straight-curve $-1 -55.133518478957484 24.3420701265016 0 0 0 -1 I I #
straight-curve $-1 -55.133518478957484 -24.3420701265016 0 0 0 -1 I I #
straight-curve $-1 47.637857736908039 0 -1.9218351311554045 0 1 0 I I #
point $-1 47.637857736908039 24.3420701265016 -1.9218351311554045 #
point $-1 47.637857736908039 -24.3420701265016 -1.9218351311554045 #
straight-curve $-1 47.637857736908039 -24.3420701265016 -0.048541196191101754 0 0 -1 I I #
straight-curve $-1 -1.0658141036401503e-014 -53.14322448782189 6.0832517363470444 0 1 0 I I #
point $-1 -1.0658141036401503e-014 -24.3420701265016 6.0832517363470453 #
straight-curve $-1 -4.4708377365196625 -19.716083699702594 6.0832517363470462 -1 0 0 I I #
point $-1 -1.0658141036401503e-014 -19.716083699702594 6.0832517363470453 #
point $-1 -8.9416754730393251 -18.8724293548314 0.67215430574570478 #
edge $-1 $535 28.80115436132029 $529 33.427140788119296 $533 $582 forward 7 unknown #
straight-curve $-1 19.348091131934353 -19.716083699702594 6.0832517363470462 -1 0 0 I I #
point $-1 47.637857736908018 -19.716083699702594 6.0832517363470453 #
straight-curve $-1 47.637857736908018 -24.342070126501596 37.364310738170666 0 0 1 I I #
point $-1 47.637857736908018 -24.3420701265016 6.0832517363470453 #
point $-1 38.696182263868707 -18.8724293548314 0.67215430574570478 #
straight-curve $-1 -20.353709778640486 24.3420701265016 58.630119795327076 0 0 -1 I I #
point $-1 -20.353709778640486 24.3420701265016 6.0832517363470453 #
straight-curve $-1 -16.997891878887131 24.342070126501596 2.1009810104420943 -1 0 0 I I #
point $-1 -20.353709778640486 24.342070126501596 2.1009810104420943 #
point $-1 -39.842386891688733 19.938435018245222 1.6612776132034641 #
point $-1 -28.149180623859785 19.938435018245222 1.6612776132034641 #
straight-curve $-1 47.637857736908018 -53.14322448782189 6.0832517363470444 0 1 0 I I #
End-of-ACIS-data 