500 0 9 0           
7 Unknown 11 ACIS 5.0 NT 24 Fri Mar 26 18:29:50 1999 
-1 9.9999999999999995e-007 1e-010 
body $-1 $9 $-1 $10 #
body $-1 $11 $-1 $12 #
body $-1 $13 $-1 $14 #
body $-1 $15 $-1 $16 #
body $-1 $17 $-1 $18 #
body $-1 $19 $-1 $20 #
body $-1 $21 $-1 $22 #
body $-1 $23 $-1 $24 #
body $-1 $25 $-1 $26 #
lump $-1 $-1 $27 $0 #
transform $-1 1 0 0 0 1 0 0 0 1 74.743491927854251 32.108428196834296 12.306679298283688 1 rotate no_reflect no_shear #
lump $-1 $-1 $28 $1 #
transform $-1 1 0 0 0 1 0 0 0 1 74.743491927854251 32.108428196834296 12.306679298283688 1 rotate no_reflect no_shear #
lump $-1 $-1 $29 $2 #
transform $-1 1 0 0 0 1 0 0 0 1 74.743491927854251 32.108428196834296 12.306679298283688 1 rotate no_reflect no_shear #
lump $-1 $-1 $30 $3 #
transform $-1 1 0 0 0 1 0 0 0 1 74.743491927854251 32.108428196834296 12.306679298283688 1 rotate no_reflect no_shear #
lump $-1 $-1 $31 $4 #
transform $-1 1 0 0 0 1 0 0 0 1 74.743491927854251 32.108428196834296 12.306679298283688 1 rotate no_reflect no_shear #
lump $-1 $-1 $32 $5 #
transform $-1 1 0 0 0 1 0 0 0 1 74.743491927854251 32.108428196834296 12.306679298283688 1 rotate no_reflect no_shear #
lump $-1 $-1 $33 $6 #
transform $-1 1 0 0 0 1 0 0 0 1 74.743491927854251 32.108428196834296 12.306679298283688 1 rotate no_reflect no_shear #
lump $-1 $-1 $34 $7 #
transform $-1 1 0 0 0 1 0 0 0 1 74.743491927854251 32.108428196834296 12.306679298283688 1 rotate no_reflect no_shear #
lump $-1 $-1 $35 $8 #
transform $-1 1 0 0 0 1 0 0 0 1 74.743491927854251 32.108428196834296 12.306679298283688 1 rotate no_reflect no_shear #
shell $-1 $-1 $-1 $36 $-1 $9 #
shell $-1 $-1 $-1 $37 $-1 $11 #
shell $-1 $-1 $-1 $38 $-1 $13 #
shell $-1 $-1 $-1 $39 $-1 $15 #
shell $-1 $-1 $-1 $40 $-1 $17 #
shell $-1 $-1 $-1 $41 $-1 $19 #
shell $-1 $-1 $-1 $42 $-1 $21 #
shell $-1 $-1 $-1 $43 $-1 $23 #
shell $-1 $-1 $-1 $44 $-1 $25 #
face $-1 $45 $46 $27 $-1 $47 forward single #
face $-1 $48 $49 $28 $-1 $50 forward single #
face $-1 $51 $52 $29 $-1 $53 reversed single #
face $-1 $54 $55 $30 $-1 $56 forward single #
face $-1 $57 $58 $31 $-1 $59 forward single #
face $-1 $60 $61 $32 $-1 $62 reversed single #
face $-1 $63 $64 $33 $-1 $65 forward single #
face $-1 $66 $67 $34 $-1 $68 forward single #
face $-1 $69 $70 $35 $-1 $71 forward single #
face $-1 $72 $73 $27 $-1 $74 reversed single #
loop $-1 $-1 $75 $36 #
plane-surface $-1 0 0 12.306679298283688 0 0 1 1 0 0 forward_v I I I I #
face $-1 $76 $77 $28 $-1 $78 forward single #
loop $-1 $-1 $79 $37 #
plane-surface $-1 0 -32.108428196834296 0 0 1 0 0 0 1 forward_v I I I I #
face $-1 $80 $81 $29 $-1 $82 reversed single #
loop $-1 $-1 $83 $38 #
plane-surface $-1 -187.56275200139874 -3.8162796935153089 103.31511962111779 0 1 0 -0.75470958851134928 0 0.65605901945558964 forward_v I I I I #
face $-1 $84 $85 $30 $-1 $86 forward single #
loop $-1 $87 $88 $39 #
cone-surface $-1 -70.696143958384084 -0.17220716868440533 7.9253815463374799 0.75470958851134928 0 -0.65605901945558964 0.98408852918338452 0 1.132064382767024 1 I I 0 1 1.5 forward I I I I #
face $-1 $89 $90 $31 $-1 $91 forward single #
loop $-1 $92 $93 $40 #
cone-surface $-1 -70.696143958384084 5.2939016185619465 7.9253815463374799 0.75470958851134928 0 -0.65605901945558964 0.98408852918338452 0 1.132064382767024 1 I I 0 1 1.5 forward I I I I #
face $-1 $94 $95 $32 $-1 $96 reversed single #
loop $-1 $-1 $97 $41 #
plane-surface $-1 52.645495385104539 10.530412345542988 216.4651738109944 0 -1 0 -0.62932039886446345 0 -0.77714595512881146 forward_v I I I I #
face $-1 $98 $99 $33 $-1 $100 forward single #
loop $-1 $101 $102 $42 #
cone-surface $-1 70.030186591359723 -1.4644141525694252 8.0847471694259649 -0.62932039886446345 0 -0.77714595512881146 0.77714595512881146 0 -0.62932039886446345 1 I I 0 1 1 forward I I I I #
face $-1 $103 $104 $34 $-1 $105 forward single #
loop $-1 $106 $107 $43 #
cone-surface $-1 70.030186591359723 3.0336457842227347 8.0847471694259649 -0.62932039886446345 0 -0.77714595512881146 0.77714595512881146 0 -0.62932039886446345 1 I I 0 1 1 forward I I I I #
face $-1 $108 $109 $35 $-1 $110 forward single #
loop $-1 $111 $112 $44 #
cone-surface $-1 70.030186591359723 7.5317057210148946 8.0847471694259649 -0.62932039886446345 0 -0.77714595512881146 0.77714595512881146 0 -0.62932039886446345 1 I I 0 1 1 forward I I I I #
face $-1 $113 $114 $27 $-1 $115 reversed single #
loop $-1 $-1 $116 $45 #
plane-surface $-1 0 0 -12.306679298283688 0 0 1 1 0 0 forward_v I I I I #
coedge $-1 $117 $118 $119 $120 forward $46 $-1 #
face $-1 $121 $122 $28 $-1 $123 reversed single #
loop $-1 $-1 $124 $48 #
plane-surface $-1 0 0 12.306679298283688 0 0 1 1 0 0 forward_v I I I I #
coedge $-1 $125 $126 $127 $128 forward $49 $-1 #
face $-1 $129 $130 $29 $-1 $131 reversed single #
loop $-1 $-1 $132 $51 #
plane-surface $-1 -74.743491927854265 2.5608472249387688 5.2428355713681043 -0.75470958851134928 0 0.65605901945558964 0.65605901945558964 0 0.75470958851134928 forward_v I I I I #
coedge $-1 $133 $134 $135 $136 reversed $52 $-1 #
face $-1 $-1 $137 $30 $-1 $138 forward single #
loop $-1 $139 $140 $54 #
cone-surface $-1 -69.153016554096567 -0.17220716868440533 6.5839613932573737 0.75470958851134928 0 -0.65605901945558964 0.49204426459169226 0 0.56603219138351202 1 I I -0.70710678118654757 0.70710678118654757 0.75 forward I I I I #
loop $-1 $-1 $141 $39 #
coedge $-1 $88 $88 $142 $143 reversed $55 $-1 #
face $-1 $-1 $144 $31 $-1 $145 forward single #
loop $-1 $146 $147 $57 #
cone-surface $-1 -69.153016554096567 5.2939016185619465 6.5839613932573737 0.75470958851134928 0 -0.65605901945558964 0.49204426459169226 0 0.56603219138351202 1 I I -0.70710678118654757 0.70710678118654757 0.75 forward I I I I #
loop $-1 $-1 $148 $40 #
coedge $-1 $93 $93 $149 $150 reversed $58 $-1 #
face $-1 $151 $152 $32 $-1 $153 reversed single #
loop $-1 $-1 $154 $60 #
plane-surface $-1 -41.429712920015547 3.0336457842227276 100.2919689631246 0.62932039886446345 0 0.77714595512881146 0.77714595512881146 0 -0.62932039886446345 forward_v I I I I #
coedge $-1 $155 $156 $157 $158 reversed $61 $-1 #
face $-1 $-1 $159 $33 $-1 $160 forward single #
loop $-1 $161 $162 $63 #
cone-surface $-1 68.762432584326888 -1.4644141525694252 6.5192013831434199 -0.62932039886446345 0 -0.77714595512881146 0.38857297756440573 0 -0.31466019943223172 1 I I -0.70710678118654746 0.70710678118654746 0.5 forward I I I I #
loop $-1 $-1 $163 $42 #
coedge $-1 $102 $102 $164 $165 reversed $64 $-1 #
face $-1 $-1 $166 $34 $-1 $167 forward single #
loop $-1 $168 $169 $66 #
cone-surface $-1 68.762432584326888 3.0336457842227347 6.5192013831434199 -0.62932039886446345 0 -0.77714595512881146 0.38857297756440573 0 -0.31466019943223172 1 I I -0.70710678118654746 0.70710678118654746 0.5 forward I I I I #
loop $-1 $-1 $170 $43 #
coedge $-1 $107 $107 $171 $172 reversed $67 $-1 #
face $-1 $-1 $173 $35 $-1 $174 forward single #
loop $-1 $175 $176 $69 #
cone-surface $-1 68.762432584326888 7.5317057210148946 6.5192013831434199 -0.62932039886446345 0 -0.77714595512881146 0.38857297756440573 0 -0.31466019943223172 1 I I -0.70710678118654746 0.70710678118654746 0.5 forward I I I I #
loop $-1 $-1 $177 $44 #
coedge $-1 $112 $112 $178 $179 reversed $70 $-1 #
face $-1 $180 $181 $27 $-1 $182 reversed single #
loop $-1 $-1 $183 $72 #
plane-surface $-1 0 -32.108428196834296 0 0 1 0 0 0 1 forward_v I I I I #
coedge $-1 $184 $185 $186 $187 forward $73 $-1 #
coedge $-1 $188 $75 $189 $190 forward $46 $-1 #
coedge $-1 $75 $188 $191 $192 forward $46 $-1 #
coedge $-1 $193 $194 $75 $120 reversed $195 $-1 #
edge $-1 $196 -32.108428196834296 $197 32.108428196834296 $119 $198 forward 7 unknown #
face $-1 $199 $200 $28 $-1 $201 reversed single #
loop $-1 $-1 $202 $76 #
plane-surface $-1 -74.743491927854251 0 0 1 0 0 0 0 -1 forward_v I I I I #
coedge $-1 $203 $204 $126 $205 forward $77 $-1 #
coedge $-1 $206 $79 $207 $208 reversed $49 $-1 #
coedge $-1 $79 $206 $124 $205 reversed $49 $-1 #
coedge $-1 $209 $210 $79 $128 reversed $211 $-1 #
edge $-1 $212 -12.306679298283688 $213 12.306679298283688 $127 $214 forward 7 unknown #
face $-1 $215 $216 $29 $-1 $217 reversed single #
loop $-1 $-1 $218 $80 #
plane-surface $-1 -187.56275200139874 8.9379741433928466 103.31511962111779 0 -1 0 0.75470958851134928 0 -0.65605901945558964 forward_v I I I I #
coedge $-1 $219 $220 $221 $222 reversed $81 $-1 #
coedge $-1 $134 $83 $223 $224 reversed $52 $-1 #
coedge $-1 $83 $133 $219 $225 reversed $52 $-1 #
coedge $-1 $221 $226 $83 $136 forward $227 $-1 #
edge $-1 $228 19.037884072845117 $229 25.178389585977413 $135 $230 forward 7 unknown #
loop $-1 $-1 $142 $84 #
plane-surface $-1 -74.743491927854265 2.5608472249387688 5.2428355713681043 -0.75470958851134928 0 0.65605901945558964 0.65605901945558964 0 0.75470958851134928 forward_v I I I I #
loop $-1 $-1 $231 $54 #
coedge $-1 $140 $140 $141 $232 reversed $85 $-1 #
coedge $-1 $141 $141 $140 $232 forward $87 $-1 #
coedge $-1 $142 $142 $88 $143 forward $137 $-1 #
edge $-1 $233 0 $233 6.2831853071796004 $142 $234 forward 7 unknown #
loop $-1 $-1 $149 $89 #
plane-surface $-1 -74.743491927854265 2.5608472249387688 5.2428355713681043 -0.75470958851134928 0 0.65605901945558964 0.65605901945558964 0 0.75470958851134928 forward_v I I I I #
loop $-1 $-1 $235 $57 #
coedge $-1 $147 $147 $148 $236 reversed $90 $-1 #
coedge $-1 $148 $148 $147 $236 forward $92 $-1 #
coedge $-1 $149 $149 $93 $150 forward $144 $-1 #
edge $-1 $237 0 $237 6.2831853071796004 $149 $238 forward 7 unknown #
face $-1 $239 $240 $32 $-1 $241 forward single #
loop $-1 $-1 $242 $94 #
plane-surface $-1 52.645495385104539 -4.463120777097533 216.4651738109944 0 1 0 0.62932039886446345 0 0.77714595512881146 forward_v I I I I #
coedge $-1 $243 $244 $245 $246 reversed $95 $-1 #
coedge $-1 $156 $97 $247 $248 reversed $61 $-1 #
coedge $-1 $97 $155 $243 $249 reversed $61 $-1 #
coedge $-1 $245 $250 $97 $158 forward $240 $-1 #
edge $-1 $251 -48.420744235301981 $252 -40.900321177514215 $157 $253 forward 7 unknown #
loop $-1 $-1 $164 $98 #
plane-surface $-1 -41.429712920015547 3.0336457842227276 100.2919689631246 0.62932039886446345 0 0.77714595512881146 0.77714595512881146 0 -0.62932039886446345 forward_v I I I I #
loop $-1 $-1 $254 $63 #
coedge $-1 $162 $162 $163 $255 reversed $99 $-1 #
coedge $-1 $163 $163 $162 $255 forward $101 $-1 #
coedge $-1 $164 $164 $102 $165 forward $159 $-1 #
edge $-1 $256 0 $256 6.2831853071796004 $164 $257 forward 7 unknown #
loop $-1 $-1 $171 $103 #
plane-surface $-1 -41.429712920015547 3.0336457842227276 100.2919689631246 0.62932039886446345 0 0.77714595512881146 0.77714595512881146 0 -0.62932039886446345 forward_v I I I I #
loop $-1 $-1 $258 $66 #
coedge $-1 $169 $169 $170 $259 reversed $104 $-1 #
coedge $-1 $170 $170 $169 $259 forward $106 $-1 #
coedge $-1 $171 $171 $107 $172 forward $166 $-1 #
edge $-1 $260 0 $260 6.2831853071796004 $171 $261 forward 7 unknown #
loop $-1 $-1 $178 $108 #
plane-surface $-1 -41.429712920015547 3.0336457842227276 100.2919689631246 0.62932039886446345 0 0.77714595512881146 0.77714595512881146 0 -0.62932039886446345 forward_v I I I I #
loop $-1 $-1 $262 $69 #
coedge $-1 $176 $176 $177 $263 reversed $109 $-1 #
coedge $-1 $177 $177 $176 $263 forward $111 $-1 #
coedge $-1 $178 $178 $112 $179 forward $173 $-1 #
edge $-1 $264 0 $264 6.2831853071796004 $178 $265 forward 7 unknown #
face $-1 $266 $267 $27 $-1 $268 reversed single #
loop $-1 $-1 $269 $113 #
plane-surface $-1 -74.743491927854251 0 0 1 0 0 0 0 -1 forward_v I I I I #
coedge $-1 $270 $191 $271 $272 forward $114 $-1 #
coedge $-1 $273 $116 $270 $274 forward $73 $-1 #
coedge $-1 $116 $273 $275 $276 forward $73 $-1 #
coedge $-1 $194 $193 $116 $187 reversed $195 $-1 #
edge $-1 $277 -32.108428196834296 $278 32.108428196834296 $186 $279 forward 7 unknown #
coedge $-1 $118 $117 $280 $281 forward $46 $-1 #
coedge $-1 $282 $283 $117 $190 reversed $267 $-1 #
edge $-1 $197 -74.743491927854251 $284 74.743491927854251 $189 $285 forward 7 unknown #
coedge $-1 $183 $286 $118 $192 reversed $114 $-1 #
edge $-1 $287 -74.743491927854251 $196 74.743491927854251 $191 $288 forward 7 unknown #
coedge $-1 $186 $119 $286 $289 forward $195 $-1 #
coedge $-1 $119 $186 $282 $290 reversed $195 $-1 #
loop $-1 $-1 $193 $266 #
vertex $-1 $120 $291 #
vertex $-1 $120 $292 #
straight-curve $-1 74.743491927854251 0 12.306679298283688 0 1 0 I I #
face $-1 $293 $211 $28 $-1 $294 reversed single #
loop $-1 $-1 $295 $121 #
plane-surface $-1 -72.230663843343407 -43.179662168497899 0 0 1 0 0 0 1 forward_v I I I I #
coedge $-1 $296 $297 $206 $298 forward $122 $-1 #
coedge $-1 $299 $124 $297 $300 forward $77 $-1 #
coedge $-1 $124 $299 $209 $301 forward $77 $-1 #
edge $-1 $212 69.717835758832564 $302 74.743491927854251 $124 $303 forward 7 unknown #
coedge $-1 $126 $125 $202 $298 reversed $49 $-1 #
coedge $-1 $304 $305 $125 $208 forward $306 $-1 #
edge $-1 $307 -74.743491927854251 $213 -69.717835758832564 $207 $308 forward 7 unknown #
coedge $-1 $309 $127 $204 $301 reversed $211 $-1 #
coedge $-1 $127 $309 $304 $310 reversed $211 $-1 #
loop $-1 $-1 $309 $199 #
vertex $-1 $205 $311 #
vertex $-1 $310 $312 #
straight-curve $-1 -69.717835758832564 -32.108428196834296 0 0 0 -1 I I #
face $-1 $-1 $227 $29 $-1 $313 forward single #
loop $-1 $-1 $314 $129 #
plane-surface $-1 -74.743491927854251 0 0 1 0 0 0 0 -1 forward_v I I I I #
coedge $-1 $315 $316 $317 $318 reversed $130 $-1 #
coedge $-1 $319 $132 $134 $225 forward $81 $-1 #
coedge $-1 $132 $319 $315 $320 forward $81 $-1 #
coedge $-1 $317 $135 $132 $222 forward $227 $-1 #
edge $-1 $229 -5.0967033059846933 $321 7.6575505309234622 $221 $322 forward 7 unknown #
coedge $-1 $323 $324 $133 $224 forward $216 $-1 #
edge $-1 $325 -46.414724239190775 $228 -39.350880512275204 $223 $326 forward 7 unknown #
edge $-1 $229 -9.3596846183561659 $325 -2.1388861263899031e-014 $134 $327 forward 7 unknown #
coedge $-1 $135 $317 $323 $328 forward $227 $-1 #
loop $-1 $-1 $317 $215 #
vertex $-1 $224 $329 #
vertex $-1 $136 $330 #
straight-curve $-1 -93.781376000699368 -3.8162796935153089 12.30667929828369 1 0 0 I I #
coedge $-1 $231 $231 $-1 $331 reversed $139 $-1 #
edge $-1 $332 0 $332 6.2831853071796004 $140 $333 forward 7 unknown #
vertex $-1 $143 $334 #
ellipse-curve $-1 -71.673239171288103 -0.17220716868440533 8.7747574348259043 -0.75470958851134928 0 0.65605901945558964 0.98408852918338452 0 1.132064382767024 1 I I #
coedge $-1 $235 $235 $-1 $335 reversed $146 $-1 #
edge $-1 $336 0 $336 6.2831853071796004 $147 $337 forward 7 unknown #
vertex $-1 $150 $338 #
ellipse-curve $-1 -71.673239171288103 5.2939016185619465 8.7747574348259043 -0.75470958851134928 0 0.65605901945558964 0.98408852918338452 0 1.132064382767024 1 I I #
face $-1 $-1 $339 $32 $-1 $340 reversed single #
loop $-1 $-1 $157 $151 #
plane-surface $-1 0 0 12.306679298283688 0 0 1 1 0 0 forward_v I I I I #
coedge $-1 $341 $342 $343 $344 reversed $152 $-1 #
coedge $-1 $345 $154 $156 $249 forward $95 $-1 #
coedge $-1 $154 $345 $341 $346 forward $95 $-1 #
coedge $-1 $343 $157 $154 $246 forward $240 $-1 #
edge $-1 $252 -9.0135894534316243 $347 5.9799436692088968 $245 $348 forward 7 unknown #
coedge $-1 $349 $350 $155 $248 forward $339 $-1 #
edge $-1 $351 -102.01582624749268 $251 -95.925907607213517 $247 $352 forward 7 unknown #
edge $-1 $252 139.81000746773867 $351 149.4869838557085 $156 $353 forward 7 unknown #
coedge $-1 $157 $343 $349 $354 forward $240 $-1 #
vertex $-1 $158 $355 #
vertex $-1 $158 $356 #
straight-curve $-1 26.322747692552269 10.530412345542988 12.306679298283683 -1 0 0 I I #
coedge $-1 $254 $254 $-1 $357 reversed $161 $-1 #
edge $-1 $358 0 $358 6.2831853071796004 $162 $359 forward 7 unknown #
vertex $-1 $165 $360 #
ellipse-curve $-1 70.983280398960332 -1.4644141525694252 9.2617199781441144 0.62932039886446345 0 0.77714595512881146 0.77714595512881146 0 -0.62932039886446345 1 I I #
coedge $-1 $258 $258 $-1 $361 reversed $168 $-1 #
edge $-1 $362 0 $362 6.2831853071796004 $169 $363 forward 7 unknown #
vertex $-1 $172 $364 #
ellipse-curve $-1 70.983280398960332 3.0336457842227347 9.2617199781441144 0.62932039886446345 0 0.77714595512881146 0.77714595512881146 0 -0.62932039886446345 1 I I #
coedge $-1 $262 $262 $-1 $365 reversed $175 $-1 #
edge $-1 $366 0 $366 6.2831853071796004 $176 $367 forward 7 unknown #
vertex $-1 $179 $368 #
ellipse-curve $-1 70.983280398960332 7.5317057210148946 9.2617199781441144 0.62932039886446345 0 0.77714595512881146 0.77714595512881146 0 -0.62932039886446345 1 I I #
face $-1 $-1 $195 $27 $-1 $369 reversed single #
loop $-1 $-1 $282 $180 #
plane-surface $-1 0 32.108428196834296 0 0 -1 0 0 0 -1 forward_v I I I I #
coedge $-1 $370 $280 $283 $371 forward $181 $-1 #
coedge $-1 $286 $183 $184 $274 reversed $114 $-1 #
coedge $-1 $280 $370 $183 $272 reversed $181 $-1 #
edge $-1 $287 -12.306679298283688 $372 12.306679298283688 $271 $373 forward 7 unknown #
coedge $-1 $185 $184 $370 $374 forward $73 $-1 #
edge $-1 $278 -74.743491927854251 $372 74.743491927854251 $270 $375 forward 7 unknown #
coedge $-1 $283 $282 $185 $276 reversed $267 $-1 #
edge $-1 $376 -74.743491927854251 $277 74.743491927854251 $275 $377 forward 7 unknown #
vertex $-1 $187 $378 #
vertex $-1 $289 $379 #
straight-curve $-1 74.743491927854251 0 -12.306679298283688 0 -1 0 I I #
coedge $-1 $269 $271 $188 $281 reversed $181 $-1 #
edge $-1 $284 -32.108428196834296 $287 32.108428196834296 $280 $380 forward 7 unknown #
coedge $-1 $275 $189 $194 $290 forward $267 $-1 #
coedge $-1 $189 $275 $269 $371 reversed $267 $-1 #
vertex $-1 $190 $381 #
straight-curve $-1 0 32.108428196834296 12.306679298283688 -1 0 0 I I #
coedge $-1 $191 $270 $193 $289 reversed $114 $-1 #
vertex $-1 $281 $382 #
straight-curve $-1 0 -32.108428196834296 12.306679298283688 1 0 0 I I #
edge $-1 $196 -12.306679298283688 $278 12.306679298283688 $193 $383 forward 7 unknown #
edge $-1 $197 -12.306679298283688 $277 12.306679298283688 $194 $384 forward 7 unknown #
point $-1 74.743491927854251 -32.108428196834296 12.306679298283688 #
point $-1 74.743491927854251 32.108428196834296 12.306679298283688 #
face $-1 $-1 $306 $28 $-1 $385 reversed single #
plane-surface $-1 -69.717835758832564 -37.644045182666098 0 -1 0 0 0 0 1 forward_v I I I I #
coedge $-1 $386 $387 $388 $389 forward $200 $-1 #
coedge $-1 $388 $202 $305 $390 reversed $122 $-1 #
coedge $-1 $202 $388 $203 $300 reversed $122 $-1 #
edge $-1 $302 -12.306679298283688 $307 12.306679298283688 $202 $391 forward 7 unknown #
coedge $-1 $204 $203 $387 $392 forward $77 $-1 #
edge $-1 $302 32.108428196834296 $393 43.179662168497899 $297 $394 forward 7 unknown #
edge $-1 $395 -5.5356169858318012 $212 5.5356169858318012 $209 $396 forward 7 unknown #
vertex $-1 $300 $397 #
straight-curve $-1 0 -32.108428196834296 12.306679298283688 -1 0 0 I I #
coedge $-1 $398 $207 $210 $310 forward $306 $-1 #
coedge $-1 $207 $398 $296 $390 forward $306 $-1 #
loop $-1 $-1 $207 $293 #
vertex $-1 $298 $399 #
straight-curve $-1 0 -32.108428196834296 -12.306679298283688 1 0 0 I I #
coedge $-1 $210 $209 $400 $401 forward $211 $-1 #
edge $-1 $213 -5.5356169858318012 $402 5.5356169858318012 $210 $403 forward 7 unknown #
point $-1 -69.717835758832564 -32.108428196834296 12.306679298283688 #
point $-1 -69.717835758832564 -32.108428196834296 -12.306679298283688 #
plane-surface $-1 0 0 12.306679298283688 0 0 1 1 0 0 forward_v I I I I #
coedge $-1 $324 $323 $316 $404 forward $216 $-1 #
coedge $-1 $316 $218 $220 $320 reversed $130 $-1 #
coedge $-1 $218 $315 $314 $404 reversed $130 $-1 #
coedge $-1 $226 $221 $218 $318 forward $227 $-1 #
edge $-1 $321 -25.178389585977413 $405 -19.037884072845117 $317 $406 forward 7 unknown #
coedge $-1 $220 $219 $324 $407 reversed $81 $-1 #
edge $-1 $408 2.1388861263899031e-014 $321 9.3596846183561659 $315 $409 forward 7 unknown #
vertex $-1 $222 $410 #
straight-curve $-1 -68.602986414721954 1.2804236124693844 12.306679298283688 0 1 0 I I #
coedge $-1 $314 $223 $226 $328 reversed $216 $-1 #
coedge $-1 $223 $314 $319 $407 forward $216 $-1 #
vertex $-1 $224 $411 #
straight-curve $-1 -74.743491927854251 -3.8162796935153089 51.657559810558894 0 0 1 I I #
straight-curve $-1 -74.743491927854265 -3.8162796935153089 5.2428355713681043 -0.65605901945558964 0 -0.75470958851134928 I I #
edge $-1 $405 -8.9379741433928466 $228 3.8162796935153089 $323 $412 forward 7 unknown #
point $-1 -74.743491927854251 -3.8162796935153089 12.306679298283688 #
point $-1 -68.602986414721954 -3.8162796935153089 12.306679298283688 #
edge $-1 $413 1 $413 0 $231 $-1 forward 7 unknown #
vertex $-1 $232 $414 #
ellipse-curve $-1 -69.71904874548008 -0.17220716868440533 7.0760056578490662 -0.75470958851134928 0 0.65605901945558964 0.98408852918338452 0 1.132064382767024 1 I I #
point $-1 -70.689150642104707 -0.17220716868440533 9.9068218175929186 #
edge $-1 $415 1 $415 0 $235 $-1 forward 7 unknown #
vertex $-1 $236 $416 #
ellipse-curve $-1 -69.71904874548008 5.2939016185619465 7.0760056578490662 -0.75470958851134928 0 0.65605901945558964 0.98408852918338452 0 1.132064382767024 1 I I #
point $-1 -70.689150642104707 5.2939016185619465 9.9068218175929186 #
loop $-1 $-1 $247 $239 #
plane-surface $-1 74.743491927854251 0 0 -1 0 0 0 0 1 forward_v I I I I #
coedge $-1 $342 $242 $244 $346 reversed $152 $-1 #
coedge $-1 $242 $341 $417 $418 reversed $152 $-1 #
coedge $-1 $250 $245 $242 $344 forward $240 $-1 #
edge $-1 $347 40.900321177514215 $419 48.420744235301981 $343 $420 forward 7 unknown #
coedge $-1 $244 $243 $350 $421 reversed $95 $-1 #
edge $-1 $422 -149.4869838557085 $347 -139.81000746773867 $341 $423 forward 7 unknown #
vertex $-1 $246 $424 #
straight-curve $-1 67.223068870066484 1.5168228921113638 12.306679298283683 0 -1 0 I I #
coedge $-1 $417 $247 $250 $354 reversed $339 $-1 #
coedge $-1 $247 $417 $345 $421 forward $339 $-1 #
vertex $-1 $248 $425 #
straight-curve $-1 74.743491927854251 10.530412345542988 108.2325869054972 0 0 1 I I #
straight-curve $-1 -41.429712920015547 10.530412345542988 100.2919689631246 0.77714595512881146 0 -0.62932039886446345 I I #
edge $-1 $419 -4.463120777097533 $251 10.530412345542988 $349 $426 forward 7 unknown #
point $-1 74.743491927854251 10.530412345542988 12.306679298283688 #
point $-1 67.223068870066484 10.530412345542988 12.306679298283683 #
edge $-1 $427 1 $427 0 $254 $-1 forward 7 unknown #
vertex $-1 $255 $428 #
ellipse-curve $-1 69.077092783759113 -1.4644141525694252 6.9077743607078252 0.62932039886446345 0 0.77714595512881146 0.77714595512881146 0 -0.62932039886446345 1 I I #
point $-1 71.760426354089134 -1.4644141525694252 8.6323995792796389 #
edge $-1 $429 1 $429 0 $258 $-1 forward 7 unknown #
vertex $-1 $259 $430 #
ellipse-curve $-1 69.077092783759113 3.0336457842227347 6.9077743607078252 0.62932039886446345 0 0.77714595512881146 0.77714595512881146 0 -0.62932039886446345 1 I I #
point $-1 71.760426354089134 3.0336457842227347 8.6323995792796389 #
edge $-1 $431 1 $431 0 $262 $-1 forward 7 unknown #
vertex $-1 $263 $432 #
ellipse-curve $-1 69.077092783759113 7.5317057210148946 6.9077743607078252 0.62932039886446345 0 0.77714595512881146 0.77714595512881146 0 -0.62932039886446345 1 I I #
point $-1 71.760426354089134 7.5317057210148946 8.6323995792796389 #
plane-surface $-1 74.743491927854251 0 0 -1 0 0 0 0 1 forward_v I I I I #
coedge $-1 $271 $269 $273 $374 reversed $181 $-1 #
edge $-1 $284 -12.306679298283688 $376 12.306679298283688 $283 $433 forward 7 unknown #
vertex $-1 $374 $434 #
straight-curve $-1 -74.743491927854251 -32.108428196834296 0 0 0 -1 I I #
edge $-1 $372 -32.108428196834296 $376 32.108428196834296 $370 $435 forward 7 unknown #
straight-curve $-1 0 -32.108428196834296 -12.306679298283688 -1 0 0 I I #
vertex $-1 $276 $436 #
straight-curve $-1 0 32.108428196834296 -12.306679298283688 1 0 0 I I #
point $-1 74.743491927854251 32.108428196834296 -12.306679298283688 #
point $-1 74.743491927854251 -32.108428196834296 -12.306679298283688 #
straight-curve $-1 -74.743491927854251 0 12.306679298283688 0 -1 0 I I #
point $-1 -74.743491927854251 32.108428196834296 12.306679298283688 #
point $-1 -74.743491927854251 -32.108428196834296 12.306679298283688 #
straight-curve $-1 74.743491927854251 -32.108428196834296 0 0 0 -1 I I #
straight-curve $-1 74.743491927854251 32.108428196834296 0 0 0 -1 I I #
plane-surface $-1 0 0 -12.306679298283688 0 0 1 1 0 0 forward_v I I I I #
coedge $-1 $400 $295 $398 $437 reversed $200 $-1 #
coedge $-1 $295 $400 $299 $392 reversed $200 $-1 #
coedge $-1 $297 $296 $295 $389 reversed $122 $-1 #
edge $-1 $393 -12.306679298283688 $438 12.306679298283688 $388 $439 forward 7 unknown #
edge $-1 $438 -43.179662168497899 $307 -32.108428196834296 $296 $440 forward 7 unknown #
straight-curve $-1 -74.743491927854251 -32.108428196834296 0 0 0 -1 I I #
edge $-1 $393 -2.5128280845108435 $395 2.5128280845108435 $387 $441 forward 7 unknown #
vertex $-1 $300 $442 #
straight-curve $-1 -74.743491927854251 0 12.306679298283688 0 -1 0 I I #
vertex $-1 $301 $443 #
straight-curve $-1 -69.717835758832564 -37.644045182666098 12.306679298283688 0 1 0 I I #
point $-1 -74.743491927854251 -32.108428196834296 12.306679298283688 #
coedge $-1 $305 $304 $386 $437 forward $306 $-1 #
point $-1 -74.743491927854251 -32.108428196834296 -12.306679298283688 #
coedge $-1 $387 $386 $309 $401 reversed $200 $-1 #
edge $-1 $395 -12.306679298283688 $402 12.306679298283688 $309 $444 forward 7 unknown #
vertex $-1 $401 $445 #
straight-curve $-1 -69.717835758832564 -37.644045182666098 -12.306679298283688 0 -1 0 I I #
edge $-1 $405 39.350880512275204 $408 46.414724239190775 $314 $446 forward 7 unknown #
vertex $-1 $328 $447 #
straight-curve $-1 -93.781376000699368 8.9379741433928466 12.30667929828369 -1 0 0 I I #
edge $-1 $408 -7.6575505309234622 $325 5.0967033059846933 $324 $448 forward 7 unknown #
vertex $-1 $407 $449 #
straight-curve $-1 -74.743491927854265 8.9379741433928466 5.2428355713681043 0.65605901945558964 0 0.75470958851134928 I I #
point $-1 -68.602986414721954 8.9379741433928466 12.306679298283688 #
point $-1 -74.743491927854251 -3.8162796935153089 5.2428355713681203 #
straight-curve $-1 -74.743491927854251 0 12.306679298283688 0 -1 0 I I #
vertex $-1 $331 $450 #
point $-1 -68.734960216296699 -0.17220716868440533 8.2080700406160894 #
vertex $-1 $335 $451 #
point $-1 -68.734960216296699 5.2939016185619465 8.2080700406160894 #
coedge $-1 $350 $349 $342 $418 forward $339 $-1 #
edge $-1 $419 95.925907607213517 $422 102.01582624749268 $417 $452 forward 7 unknown #
vertex $-1 $354 $453 #
straight-curve $-1 26.322747692552269 -4.463120777097533 12.306679298283683 1 0 0 I I #
edge $-1 $422 -5.9799436692088968 $351 9.0135894534316243 $350 $454 forward 7 unknown #
vertex $-1 $421 $455 #
straight-curve $-1 -41.429712920015547 -4.463120777097533 100.2919689631246 -0.77714595512881146 0 0.62932039886446345 I I #
point $-1 67.223068870066484 -4.463120777097533 12.306679298283683 #
point $-1 74.743491927854251 10.530412345542988 6.2167606580045174 #
straight-curve $-1 74.743491927854251 0 12.306679298283688 0 1 0 I I #
vertex $-1 $357 $456 #
point $-1 69.854238738887929 -1.4644141525694252 6.2784539618433621 #
vertex $-1 $361 $457 #
point $-1 69.854238738887929 3.0336457842227347 6.2784539618433621 #
vertex $-1 $365 $458 #
point $-1 69.854238738887929 7.5317057210148946 6.2784539618433621 #
straight-curve $-1 -74.743491927854251 32.108428196834296 0 0 0 -1 I I #
point $-1 -74.743491927854251 -32.108428196834296 -12.306679298283688 #
straight-curve $-1 -74.743491927854251 0 -12.306679298283688 0 1 0 I I #
point $-1 -74.743491927854251 32.108428196834296 -12.306679298283688 #
edge $-1 $402 -2.5128280845108435 $438 2.5128280845108435 $386 $459 forward 7 unknown #
vertex $-1 $390 $460 #
straight-curve $-1 -74.743491927854251 -43.179662168497899 0 0 0 -1 I I #
straight-curve $-1 -74.743491927854251 0 -12.306679298283688 0 1 0 I I #
straight-curve $-1 -72.230663843343407 -43.179662168497899 12.306679298283688 1 0 0 I I #
point $-1 -74.743491927854251 -43.179662168497899 12.306679298283688 #
point $-1 -69.717835758832564 -43.179662168497899 12.306679298283688 #
straight-curve $-1 -69.717835758832564 -43.179662168497899 0 0 0 -1 I I #
point $-1 -69.717835758832564 -43.179662168497899 -12.306679298283688 #
straight-curve $-1 -74.743491927854251 8.9379741433928466 51.657559810558894 0 0 -1 I I #
point $-1 -74.743491927854251 8.9379741433928466 12.306679298283688 #
straight-curve $-1 -74.743491927854251 1.2804236124693844 5.2428355713681114 0 -1 0 I I #
point $-1 -74.743491927854251 8.9379741433928466 5.2428355713681203 #
point $-1 -68.586984362713054 -0.17220716868440533 6.0919171286656812 #
point $-1 -68.586984362713054 5.2939016185619465 6.0919171286656812 #
straight-curve $-1 74.743491927854251 -4.463120777097533 108.2325869054972 0 0 -1 I I #
point $-1 74.743491927854251 -4.463120777097533 12.306679298283688 #
straight-curve $-1 74.743491927854251 1.5168228921113638 6.2167606580045245 0 1 0 I I #
point $-1 74.743491927854251 -4.463120777097533 6.2167606580045174 #
point $-1 68.447772384894662 -1.4644141525694252 6.1306284055790146 #
point $-1 68.447772384894662 3.0336457842227347 6.1306284055790146 #
point $-1 68.447772384894662 7.5317057210148946 6.1306284055790146 #
straight-curve $-1 -72.230663843343407 -43.179662168497899 -12.306679298283688 -1 0 0 I I #
point $-1 -74.743491927854251 -43.179662168497899 -12.306679298283688 #
End-of-ACIS-data 