500 0 17 0           
7 Unknown 11 ACIS 5.0 NT 24 Fri Mar 26 14:37:20 1999 
-1 9.9999999999999995e-007 1e-010 
body $-1 $17 $-1 $18 #
body $-1 $19 $-1 $20 #
body $-1 $21 $-1 $22 #
body $-1 $23 $-1 $24 #
body $-1 $25 $-1 $26 #
body $-1 $27 $-1 $28 #
body $-1 $29 $-1 $30 #
body $-1 $31 $-1 $32 #
body $-1 $33 $-1 $34 #
body $-1 $35 $-1 $36 #
body $-1 $37 $-1 $38 #
body $-1 $39 $-1 $40 #
body $-1 $41 $-1 $42 #
body $-1 $43 $-1 $44 #
body $-1 $45 $-1 $46 #
body $-1 $47 $-1 $48 #
body $-1 $49 $-1 $50 #
lump $-1 $-1 $51 $0 #
transform $-1 1 0 0 0 1 0 0 0 1 62.345652638325149 30.648062654571675 10.125355920920445 1 rotate no_reflect no_shear #
lump $-1 $-1 $52 $1 #
transform $-1 1 0 0 0 1 0 0 0 1 62.345652638325149 30.648062654571675 10.125355920920445 1 rotate no_reflect no_shear #
lump $-1 $-1 $53 $2 #
transform $-1 1 0 0 0 1 0 0 0 1 62.345652638325149 30.648062654571675 10.125355920920445 1 rotate no_reflect no_shear #
lump $-1 $-1 $54 $3 #
transform $-1 1 0 0 0 1 0 0 0 1 62.345652638325149 30.648062654571675 10.125355920920445 1 rotate no_reflect no_shear #
lump $-1 $-1 $55 $4 #
transform $-1 1 0 0 0 1 0 0 0 1 62.345652638325149 30.648062654571675 10.125355920920445 1 rotate no_reflect no_shear #
lump $-1 $-1 $56 $5 #
transform $-1 1 0 0 0 1 0 0 0 1 62.345652638325149 30.648062654571675 10.125355920920445 1 rotate no_reflect no_shear #
lump $-1 $-1 $57 $6 #
transform $-1 1 0 0 0 1 0 0 0 1 62.345652638325149 30.648062654571675 10.125355920920445 1 rotate no_reflect no_shear #
lump $-1 $-1 $58 $7 #
transform $-1 1 0 0 0 1 0 0 0 1 62.345652638325149 30.648062654571675 10.125355920920445 1 rotate no_reflect no_shear #
lump $-1 $-1 $59 $8 #
transform $-1 1 0 0 0 1 0 0 0 1 62.345652638325149 30.648062654571675 10.125355920920445 1 rotate no_reflect no_shear #
lump $-1 $-1 $60 $9 #
transform $-1 1 0 0 0 1 0 0 0 1 62.345652638325149 30.648062654571675 10.125355920920445 1 rotate no_reflect no_shear #
lump $-1 $-1 $61 $10 #
transform $-1 1 0 0 0 1 0 0 0 1 62.345652638325149 30.648062654571675 10.125355920920445 1 rotate no_reflect no_shear #
lump $-1 $-1 $62 $11 #
transform $-1 1 0 0 0 1 0 0 0 1 62.345652638325149 30.648062654571675 10.125355920920445 1 rotate no_reflect no_shear #
lump $-1 $-1 $63 $12 #
transform $-1 1 0 0 0 1 0 0 0 1 62.345652638325149 30.648062654571675 10.125355920920445 1 rotate no_reflect no_shear #
lump $-1 $-1 $64 $13 #
transform $-1 1 0 0 0 1 0 0 0 1 62.345652638325149 30.648062654571675 10.125355920920445 1 rotate no_reflect no_shear #
lump $-1 $-1 $65 $14 #
transform $-1 1 0 0 0 1 0 0 0 1 62.345652638325149 30.648062654571675 10.125355920920445 1 rotate no_reflect no_shear #
lump $-1 $-1 $66 $15 #
transform $-1 1 0 0 0 1 0 0 0 1 62.345652638325149 30.648062654571675 10.125355920920445 1 rotate no_reflect no_shear #
lump $-1 $-1 $67 $16 #
transform $-1 1 0 0 0 1 0 0 0 1 62.345652638325149 30.648062654571675 10.125355920920445 1 rotate no_reflect no_shear #
shell $-1 $-1 $-1 $68 $-1 $17 #
shell $-1 $-1 $-1 $69 $-1 $19 #
shell $-1 $-1 $-1 $70 $-1 $21 #
shell $-1 $-1 $-1 $71 $-1 $23 #
shell $-1 $-1 $-1 $72 $-1 $25 #
shell $-1 $-1 $-1 $73 $-1 $27 #
shell $-1 $-1 $-1 $74 $-1 $29 #
shell $-1 $-1 $-1 $75 $-1 $31 #
shell $-1 $-1 $-1 $76 $-1 $33 #
shell $-1 $-1 $-1 $77 $-1 $35 #
shell $-1 $-1 $-1 $78 $-1 $37 #
shell $-1 $-1 $-1 $79 $-1 $39 #
shell $-1 $-1 $-1 $80 $-1 $41 #
shell $-1 $-1 $-1 $81 $-1 $43 #
shell $-1 $-1 $-1 $82 $-1 $45 #
shell $-1 $-1 $-1 $83 $-1 $47 #
shell $-1 $-1 $-1 $84 $-1 $49 #
face $-1 $85 $86 $51 $-1 $87 forward single #
face $-1 $88 $89 $52 $-1 $90 reversed single #
face $-1 $91 $92 $53 $-1 $93 reversed single #
face $-1 $94 $95 $54 $-1 $96 forward single #
face $-1 $97 $98 $55 $-1 $99 forward single #
face $-1 $100 $101 $56 $-1 $102 reversed single #
face $-1 $103 $104 $57 $-1 $105 forward single #
face $-1 $106 $107 $58 $-1 $108 forward single #
face $-1 $109 $110 $59 $-1 $111 reversed single #
face $-1 $112 $113 $60 $-1 $114 forward single #
face $-1 $115 $116 $61 $-1 $117 forward single #
face $-1 $118 $119 $62 $-1 $120 reversed single #
face $-1 $121 $122 $63 $-1 $123 forward single #
face $-1 $124 $125 $64 $-1 $126 forward single #
face $-1 $127 $128 $65 $-1 $129 reversed single #
face $-1 $130 $131 $66 $-1 $132 forward single #
face $-1 $133 $134 $67 $-1 $135 forward single #
face $-1 $136 $137 $51 $-1 $138 reversed single #
loop $-1 $-1 $139 $68 #
plane-surface $-1 0 0 10.125355920920445 0 0 1 1 0 0 forward_v I I I I #
face $-1 $140 $141 $52 $-1 $142 forward single #
loop $-1 $-1 $143 $69 #
plane-surface $-1 0 -21.947475054181787 3.1910339764490523 0 -1 0 0 0 -1 forward_v I I I I #
face $-1 $144 $145 $53 $-1 $146 reversed single #
loop $-1 $-1 $147 $70 #
plane-surface $-1 -163.22303867837482 -16.973170113562876 77.705180521729858 0 1 0 -0.80901700255871778 0 0.5877852410284794 forward_v I I I I #
face $-1 $148 $149 $54 $-1 $150 forward single #
loop $-1 $151 $152 $71 #
cone-surface $-1 -58.690764259528486 -13.281059777748762 6.1215310876756446 0.80901700255871778 0 -0.5877852410284794 0.5877852410284794 0 0.80901700255871778 1 I I 0 1 1 forward I I I I #
face $-1 $153 $154 $55 $-1 $155 forward single #
loop $-1 $156 $157 $72 #
cone-surface $-1 -58.690764259528486 -7.7428942740275915 6.1215310876756446 0.80901700255871778 0 -0.5877852410284794 0.5877852410284794 0 0.80901700255871778 1 I I 0 1 1 forward I I I I #
face $-1 $158 $159 $56 $-1 $160 reversed single #
loop $-1 $-1 $161 $73 #
plane-surface $-1 83.836111457318268 -12.910930661033255 175.15054142705105 0 -1 0 -0.78801076186113728 0 -0.61566146476048833 forward_v I I I I #
face $-1 $162 $163 $57 $-1 $164 forward single #
loop $-1 $165 $166 $74 #
cone-surface $-1 57.842205118296192 -19.365605227567919 4.658808653202172 -0.78801076186113728 0 -0.61566146476048833 0.61566146476048833 0 -0.78801076186113728 1 I I 0 1 1 forward I I I I #
face $-1 $167 $168 $58 $-1 $169 forward single #
loop $-1 $170 $171 $75 #
cone-surface $-1 57.842205118296192 -15.49280048764712 4.658808653202172 -0.78801076186113728 0 -0.61566146476048833 0.61566146476048833 0 -0.78801076186113728 1 I I 0 1 1 forward I I I I #
face $-1 $172 $173 $59 $-1 $174 reversed single #
loop $-1 $-1 $175 $76 #
plane-surface $-1 83.836111457318268 1.608733777501719 175.15054142705105 0 -1 0 -0.78801076186113728 0 -0.61566146476048833 forward_v I I I I #
face $-1 $176 $177 $60 $-1 $178 forward single #
loop $-1 $179 $180 $77 #
cone-surface $-1 57.842205118296192 -4.8459407890329445 4.658808653202172 -0.78801076186113728 0 -0.61566146476048833 0.61566146476048833 0 -0.78801076186113728 1 I I 0 1 1 forward I I I I #
face $-1 $181 $182 $61 $-1 $183 forward single #
loop $-1 $184 $185 $78 #
cone-surface $-1 57.842205118296192 -0.97313604911214213 4.658808653202172 -0.78801076186113728 0 -0.61566146476048833 0.61566146476048833 0 -0.78801076186113728 1 I I 0 1 1 forward I I I I #
face $-1 $186 $187 $62 $-1 $188 reversed single #
loop $-1 $-1 $189 $79 #
plane-surface $-1 83.836111457318268 16.128398216036693 175.15054142705105 0 -1 0 -0.78801076186113728 0 -0.61566146476048833 forward_v I I I I #
face $-1 $190 $191 $63 $-1 $192 forward single #
loop $-1 $193 $194 $80 #
cone-surface $-1 57.842205118296192 9.6737236495020298 4.658808653202172 -0.78801076186113728 0 -0.61566146476048833 0.61566146476048833 0 -0.78801076186113728 1 I I 0 1 1 forward I I I I #
face $-1 $195 $196 $64 $-1 $197 forward single #
loop $-1 $198 $199 $81 #
cone-surface $-1 57.842205118296192 13.546528389422832 4.658808653202172 -0.78801076186113728 0 -0.61566146476048833 0.61566146476048833 0 -0.78801076186113728 1 I I 0 1 1 forward I I I I #
face $-1 $200 $201 $65 $-1 $202 reversed single #
loop $-1 $-1 $203 $82 #
plane-surface $-1 -14.42197901119458 26.129790457997402 98.382909777531324 0.78801076186113728 0 0.61566146476048833 0.61566146476048833 0 -0.78801076186113728 forward_v I I I I #
face $-1 $204 $205 $66 $-1 $206 forward single #
loop $-1 $207 $208 $83 #
cone-surface $-1 57.842205118296192 24.193388088037004 4.658808653202172 -0.78801076186113728 0 -0.61566146476048833 0.61566146476048833 0 -0.78801076186113728 1 I I 0 1 1 forward I I I I #
face $-1 $209 $210 $67 $-1 $211 forward single #
loop $-1 $212 $213 $84 #
cone-surface $-1 57.842205118296192 28.066192827957806 4.658808653202172 -0.78801076186113728 0 -0.61566146476048833 0.61566146476048833 0 -0.78801076186113728 1 I I 0 1 1 forward I I I I #
face $-1 $214 $215 $51 $-1 $216 reversed single #
loop $-1 $-1 $217 $85 #
plane-surface $-1 0 0 -10.125355920920445 0 0 1 1 0 0 forward_v I I I I #
coedge $-1 $218 $219 $220 $221 forward $86 $-1 #
face $-1 $222 $223 $52 $-1 $224 reversed single #
loop $-1 $-1 $225 $88 #
plane-surface $-1 0 -26.297768854376731 5.6825569188847185 0 0 1 1 0 0 forward_v I I I I #
coedge $-1 $226 $227 $228 $229 reversed $89 $-1 #
face $-1 $230 $231 $53 $-1 $232 reversed single #
loop $-1 $-1 $233 $91 #
plane-surface $-1 -62.345652638325149 -10.511977025888179 4.4134715955382546 -0.80901700255871778 0 0.5877852410284794 0.5877852410284794 0 0.80901700255871778 forward_v I I I I #
coedge $-1 $234 $235 $236 $237 reversed $92 $-1 #
face $-1 $-1 $238 $54 $-1 $239 forward single #
loop $-1 $240 $241 $94 #
cone-surface $-1 -56.706330757417994 -13.281059777748762 4.6797557966077097 0.80901700255871778 0 -0.5877852410284794 0.2938926205142397 0 0.40450850127935889 1 I I -0.70710678118654746 0.70710678118654746 0.5 forward I I I I #
loop $-1 $-1 $242 $71 #
coedge $-1 $152 $152 $243 $244 reversed $95 $-1 #
face $-1 $-1 $245 $55 $-1 $246 forward single #
loop $-1 $247 $248 $97 #
cone-surface $-1 -56.706330757417994 -7.7428942740275915 4.6797557966077097 0.80901700255871778 0 -0.5877852410284794 0.2938926205142397 0 0.40450850127935889 1 I I -0.70710678118654746 0.70710678118654746 0.5 forward I I I I #
loop $-1 $-1 $249 $72 #
coedge $-1 $157 $157 $250 $251 reversed $98 $-1 #
face $-1 $252 $253 $56 $-1 $254 forward single #
loop $-1 $-1 $255 $100 #
plane-surface $-1 -14.42197901119458 -17.429202857607521 98.382909777531324 0.78801076186113728 0 0.61566146476048833 0.61566146476048833 0 -0.78801076186113728 forward_v I I I I #
coedge $-1 $256 $257 $258 $259 reversed $101 $-1 #
face $-1 $-1 $260 $57 $-1 $261 forward single #
loop $-1 $262 $263 $103 #
cone-surface $-1 56.85138986549066 -19.365605227567919 3.8846989590546421 -0.78801076186113728 0 -0.61566146476048833 0.30783073238024417 0 -0.39400538093056864 1 I I -0.70710678118654746 0.70710678118654746 0.5 forward I I I I #
loop $-1 $-1 $264 $74 #
coedge $-1 $166 $166 $265 $266 reversed $104 $-1 #
face $-1 $-1 $267 $58 $-1 $268 forward single #
loop $-1 $269 $270 $106 #
cone-surface $-1 56.85138986549066 -15.49280048764712 3.8846989590546421 -0.78801076186113728 0 -0.61566146476048833 0.30783073238024417 0 -0.39400538093056864 1 I I -0.70710678118654746 0.70710678118654746 0.5 forward I I I I #
loop $-1 $-1 $271 $75 #
coedge $-1 $171 $171 $272 $273 reversed $107 $-1 #
face $-1 $274 $275 $59 $-1 $276 reversed single #
loop $-1 $-1 $277 $109 #
plane-surface $-1 -14.42197901119458 -2.9095384190725468 98.382909777531324 0.78801076186113728 0 0.61566146476048833 0.61566146476048833 0 -0.78801076186113728 forward_v I I I I #
coedge $-1 $278 $279 $280 $281 reversed $110 $-1 #
face $-1 $-1 $282 $60 $-1 $283 forward single #
loop $-1 $284 $285 $112 #
cone-surface $-1 56.85138986549066 -4.8459407890329445 3.8846989590546421 -0.78801076186113728 0 -0.61566146476048833 0.30783073238024417 0 -0.39400538093056864 1 I I -0.70710678118654746 0.70710678118654746 0.5 forward I I I I #
loop $-1 $-1 $286 $77 #
coedge $-1 $180 $180 $287 $288 reversed $113 $-1 #
face $-1 $-1 $289 $61 $-1 $290 forward single #
loop $-1 $291 $292 $115 #
cone-surface $-1 56.85138986549066 -0.97313604911214213 3.8846989590546421 -0.78801076186113728 0 -0.61566146476048833 0.30783073238024417 0 -0.39400538093056864 1 I I -0.70710678118654746 0.70710678118654746 0.5 forward I I I I #
loop $-1 $-1 $293 $78 #
coedge $-1 $185 $185 $294 $295 reversed $116 $-1 #
face $-1 $296 $297 $62 $-1 $298 reversed single #
loop $-1 $-1 $299 $118 #
plane-surface $-1 -14.42197901119458 11.610126019462427 98.382909777531324 0.78801076186113728 0 0.61566146476048833 0.61566146476048833 0 -0.78801076186113728 forward_v I I I I #
coedge $-1 $300 $301 $302 $303 reversed $119 $-1 #
face $-1 $-1 $304 $63 $-1 $305 forward single #
loop $-1 $306 $307 $121 #
cone-surface $-1 56.85138986549066 9.6737236495020298 3.8846989590546421 -0.78801076186113728 0 -0.61566146476048833 0.30783073238024417 0 -0.39400538093056864 1 I I -0.70710678118654746 0.70710678118654746 0.5 forward I I I I #
loop $-1 $-1 $308 $80 #
coedge $-1 $194 $194 $309 $310 reversed $122 $-1 #
face $-1 $-1 $311 $64 $-1 $312 forward single #
loop $-1 $313 $314 $124 #
cone-surface $-1 56.85138986549066 13.546528389422832 3.8846989590546421 -0.78801076186113728 0 -0.61566146476048833 0.30783073238024417 0 -0.39400538093056864 1 I I -0.70710678118654746 0.70710678118654746 0.5 forward I I I I #
loop $-1 $-1 $315 $81 #
coedge $-1 $199 $199 $316 $317 reversed $125 $-1 #
face $-1 $318 $319 $65 $-1 $320 reversed single #
loop $-1 $-1 $321 $127 #
plane-surface $-1 83.836111457318268 21.611518261423136 175.15054142705105 0 1 0 0.78801076186113728 0 0.61566146476048833 forward_v I I I I #
coedge $-1 $322 $323 $324 $325 reversed $128 $-1 #
face $-1 $-1 $326 $66 $-1 $327 forward single #
loop $-1 $328 $329 $130 #
cone-surface $-1 56.85138986549066 24.193388088037004 3.8846989590546421 -0.78801076186113728 0 -0.61566146476048833 0.30783073238024417 0 -0.39400538093056864 1 I I -0.70710678118654746 0.70710678118654746 0.5 forward I I I I #
loop $-1 $-1 $330 $83 #
coedge $-1 $208 $208 $331 $332 reversed $131 $-1 #
face $-1 $-1 $333 $67 $-1 $334 forward single #
loop $-1 $335 $336 $133 #
cone-surface $-1 56.85138986549066 28.066192827957806 3.8846989590546421 -0.78801076186113728 0 -0.61566146476048833 0.30783073238024417 0 -0.39400538093056864 1 I I -0.70710678118654746 0.70710678118654746 0.5 forward I I I I #
loop $-1 $-1 $337 $84 #
coedge $-1 $213 $213 $338 $339 reversed $134 $-1 #
face $-1 $340 $341 $51 $-1 $342 reversed single #
loop $-1 $-1 $343 $136 #
plane-surface $-1 0 -30.648062654571675 0 0 1 0 0 0 1 forward_v I I I I #
coedge $-1 $344 $345 $346 $347 forward $137 $-1 #
coedge $-1 $348 $139 $349 $350 forward $86 $-1 #
coedge $-1 $139 $348 $351 $352 forward $86 $-1 #
coedge $-1 $353 $354 $139 $221 reversed $355 $-1 #
edge $-1 $356 -30.648062654571675 $357 30.648062654571675 $220 $358 forward 7 unknown #
face $-1 $359 $360 $52 $-1 $361 reversed single #
loop $-1 $-1 $362 $140 #
plane-surface $-1 0 -26.297768854376731 0.6995110340133861 0 0 1 1 0 0 forward_v I I I I #
coedge $-1 $363 $364 $365 $366 reversed $141 $-1 #
coedge $-1 $367 $143 $368 $369 reversed $89 $-1 #
coedge $-1 $143 $367 $370 $371 reversed $89 $-1 #
coedge $-1 $362 $372 $143 $229 forward $223 $-1 #
edge $-1 $373 -62.345652638325149 $374 62.345652638325149 $143 $375 forward 7 unknown #
face $-1 $376 $377 $53 $-1 $378 reversed single #
loop $-1 $-1 $379 $144 #
plane-surface $-1 -163.22303867837482 -4.050783938213482 77.705180521729858 0 -1 0 0.80901700255871778 0 -0.5877852410284794 forward_v I I I I #
coedge $-1 $380 $381 $382 $383 reversed $145 $-1 #
coedge $-1 $235 $147 $384 $385 reversed $92 $-1 #
coedge $-1 $147 $234 $380 $386 reversed $92 $-1 #
coedge $-1 $382 $387 $147 $237 forward $388 $-1 #
edge $-1 $389 19.265866700862261 $390 23.415793456793317 $236 $391 forward 7 unknown #
loop $-1 $-1 $243 $148 #
plane-surface $-1 -62.345652638325149 -10.511977025888179 4.4134715955382546 -0.80901700255871778 0 0.5877852410284794 0.5877852410284794 0 0.80901700255871778 forward_v I I I I #
loop $-1 $-1 $392 $94 #
coedge $-1 $241 $241 $242 $393 reversed $149 $-1 #
coedge $-1 $242 $242 $241 $393 forward $151 $-1 #
coedge $-1 $243 $243 $152 $244 forward $238 $-1 #
edge $-1 $394 0 $394 6.2831853071796004 $243 $395 forward 7 unknown #
loop $-1 $-1 $250 $153 #
plane-surface $-1 -62.345652638325149 -10.511977025888179 4.4134715955382546 -0.80901700255871778 0 0.5877852410284794 0.5877852410284794 0 0.80901700255871778 forward_v I I I I #
loop $-1 $-1 $396 $97 #
coedge $-1 $248 $248 $249 $397 reversed $154 $-1 #
coedge $-1 $249 $249 $248 $397 forward $156 $-1 #
coedge $-1 $250 $250 $157 $251 forward $245 $-1 #
edge $-1 $398 0 $398 6.2831853071796004 $250 $399 forward 7 unknown #
face $-1 $400 $401 $56 $-1 $402 reversed single #
loop $-1 $-1 $258 $158 #
plane-surface $-1 0 0 10.125355920920445 0 0 1 1 0 0 forward_v I I I I #
coedge $-1 $403 $404 $405 $406 reversed $159 $-1 #
coedge $-1 $257 $161 $407 $408 reversed $101 $-1 #
coedge $-1 $161 $256 $403 $409 reversed $101 $-1 #
coedge $-1 $405 $410 $161 $259 forward $253 $-1 #
edge $-1 $411 -20.427596909666015 $412 -12.614321613358037 $258 $413 forward 7 unknown #
loop $-1 $-1 $265 $162 #
plane-surface $-1 -14.42197901119458 -17.429202857607521 98.382909777531324 0.78801076186113728 0 0.61566146476048833 0.61566146476048833 0 -0.78801076186113728 forward_v I I I I #
loop $-1 $-1 $414 $103 #
coedge $-1 $263 $263 $264 $415 reversed $163 $-1 #
coedge $-1 $264 $264 $263 $415 forward $165 $-1 #
coedge $-1 $265 $265 $166 $266 forward $260 $-1 #
edge $-1 $416 0 $416 6.2831853071796004 $265 $417 forward 7 unknown #
loop $-1 $-1 $272 $167 #
plane-surface $-1 -14.42197901119458 -17.429202857607521 98.382909777531324 0.78801076186113728 0 0.61566146476048833 0.61566146476048833 0 -0.78801076186113728 forward_v I I I I #
loop $-1 $-1 $418 $106 #
coedge $-1 $270 $270 $271 $419 reversed $168 $-1 #
coedge $-1 $271 $271 $270 $419 forward $170 $-1 #
coedge $-1 $272 $272 $171 $273 forward $267 $-1 #
edge $-1 $420 0 $420 6.2831853071796004 $272 $421 forward 7 unknown #
face $-1 $422 $423 $59 $-1 $424 forward single #
loop $-1 $-1 $425 $172 #
plane-surface $-1 83.836111457318268 -7.4278106156468127 175.15054142705105 0 1 0 0.78801076186113728 0 0.61566146476048833 forward_v I I I I #
coedge $-1 $426 $427 $428 $429 reversed $173 $-1 #
coedge $-1 $279 $175 $430 $431 reversed $110 $-1 #
coedge $-1 $175 $278 $426 $432 reversed $110 $-1 #
coedge $-1 $428 $433 $175 $281 forward $423 $-1 #
edge $-1 $434 -20.427596909666015 $435 -12.614321613358037 $280 $436 forward 7 unknown #
loop $-1 $-1 $287 $176 #
plane-surface $-1 -14.42197901119458 -2.9095384190725468 98.382909777531324 0.78801076186113728 0 0.61566146476048833 0.61566146476048833 0 -0.78801076186113728 forward_v I I I I #
loop $-1 $-1 $437 $112 #
coedge $-1 $285 $285 $286 $438 reversed $177 $-1 #
coedge $-1 $286 $286 $285 $438 forward $179 $-1 #
coedge $-1 $287 $287 $180 $288 forward $282 $-1 #
edge $-1 $439 0 $439 6.2831853071796004 $287 $440 forward 7 unknown #
loop $-1 $-1 $294 $181 #
plane-surface $-1 -14.42197901119458 -2.9095384190725468 98.382909777531324 0.78801076186113728 0 0.61566146476048833 0.61566146476048833 0 -0.78801076186113728 forward_v I I I I #
loop $-1 $-1 $441 $115 #
coedge $-1 $292 $292 $293 $442 reversed $182 $-1 #
coedge $-1 $293 $293 $292 $442 forward $184 $-1 #
coedge $-1 $294 $294 $185 $295 forward $289 $-1 #
edge $-1 $443 0 $443 6.2831853071796004 $294 $444 forward 7 unknown #
face $-1 $445 $446 $62 $-1 $447 reversed single #
loop $-1 $-1 $448 $186 #
plane-surface $-1 83.836111457318268 7.0918538228881616 175.15054142705105 0 1 0 0.78801076186113728 0 0.61566146476048833 forward_v I I I I #
coedge $-1 $449 $450 $451 $452 reversed $187 $-1 #
coedge $-1 $301 $189 $453 $454 reversed $119 $-1 #
coedge $-1 $189 $300 $449 $455 reversed $119 $-1 #
coedge $-1 $451 $456 $189 $303 forward $457 $-1 #
edge $-1 $458 -20.427596909666015 $459 -12.614321613358037 $302 $460 forward 7 unknown #
loop $-1 $-1 $309 $190 #
plane-surface $-1 -14.42197901119458 11.610126019462427 98.382909777531324 0.78801076186113728 0 0.61566146476048833 0.61566146476048833 0 -0.78801076186113728 forward_v I I I I #
loop $-1 $-1 $461 $121 #
coedge $-1 $307 $307 $308 $462 reversed $191 $-1 #
coedge $-1 $308 $308 $307 $462 forward $193 $-1 #
coedge $-1 $309 $309 $194 $310 forward $304 $-1 #
edge $-1 $463 0 $463 6.2831853071796004 $309 $464 forward 7 unknown #
loop $-1 $-1 $316 $195 #
plane-surface $-1 -14.42197901119458 11.610126019462427 98.382909777531324 0.78801076186113728 0 0.61566146476048833 0.61566146476048833 0 -0.78801076186113728 forward_v I I I I #
loop $-1 $-1 $465 $124 #
coedge $-1 $314 $314 $315 $466 reversed $196 $-1 #
coedge $-1 $315 $315 $314 $466 forward $198 $-1 #
coedge $-1 $316 $316 $199 $317 forward $311 $-1 #
edge $-1 $467 0 $467 6.2831853071796004 $316 $468 forward 7 unknown #
face $-1 $469 $470 $65 $-1 $471 forward single #
loop $-1 $-1 $472 $200 #
plane-surface $-1 62.345652638325149 0 0 -1 0 0 0 0 1 forward_v I I I I #
coedge $-1 $473 $474 $475 $476 reversed $201 $-1 #
coedge $-1 $477 $203 $478 $479 reversed $128 $-1 #
coedge $-1 $203 $477 $473 $480 forward $128 $-1 #
coedge $-1 $475 $481 $203 $325 forward $470 $-1 #
edge $-1 $482 -17.583167425572967 $483 -8.546623032424435 $324 $484 forward 7 unknown #
loop $-1 $-1 $331 $204 #
plane-surface $-1 -14.42197901119458 26.129790457997402 98.382909777531324 0.78801076186113728 0 0.61566146476048833 0.61566146476048833 0 -0.78801076186113728 forward_v I I I I #
loop $-1 $-1 $485 $130 #
coedge $-1 $329 $329 $330 $486 reversed $205 $-1 #
coedge $-1 $330 $330 $329 $486 forward $207 $-1 #
coedge $-1 $331 $331 $208 $332 forward $326 $-1 #
edge $-1 $487 0 $487 6.2831853071796004 $331 $488 forward 7 unknown #
loop $-1 $-1 $338 $209 #
plane-surface $-1 -14.42197901119458 26.129790457997402 98.382909777531324 0.78801076186113728 0 0.61566146476048833 0.61566146476048833 0 -0.78801076186113728 forward_v I I I I #
loop $-1 $-1 $489 $133 #
coedge $-1 $336 $336 $337 $490 reversed $210 $-1 #
coedge $-1 $337 $337 $336 $490 forward $212 $-1 #
coedge $-1 $338 $338 $213 $339 forward $333 $-1 #
edge $-1 $491 0 $491 6.2831853071796004 $338 $492 forward 7 unknown #
face $-1 $493 $494 $51 $-1 $495 reversed single #
loop $-1 $-1 $496 $214 #
plane-surface $-1 -62.345652638325149 0 0 1 0 0 0 0 -1 forward_v I I I I #
coedge $-1 $497 $351 $498 $499 forward $215 $-1 #
coedge $-1 $500 $217 $497 $501 forward $137 $-1 #
coedge $-1 $217 $500 $502 $503 forward $137 $-1 #
coedge $-1 $354 $353 $217 $347 reversed $355 $-1 #
edge $-1 $504 -30.648062654571675 $505 30.648062654571675 $346 $506 forward 7 unknown #
coedge $-1 $219 $218 $507 $508 forward $86 $-1 #
coedge $-1 $509 $510 $218 $350 reversed $494 $-1 #
edge $-1 $357 -62.345652638325149 $511 62.345652638325149 $349 $512 forward 7 unknown #
coedge $-1 $343 $513 $219 $352 reversed $215 $-1 #
edge $-1 $514 -62.345652638325149 $356 62.345652638325149 $351 $515 forward 7 unknown #
coedge $-1 $346 $220 $513 $516 forward $355 $-1 #
coedge $-1 $220 $346 $509 $517 reversed $355 $-1 #
loop $-1 $-1 $353 $493 #
vertex $-1 $221 $518 #
vertex $-1 $221 $519 #
straight-curve $-1 62.345652638325149 0 10.125355920920445 0 1 0 I I #
face $-1 $520 $521 $52 $-1 $522 reversed single #
loop $-1 $-1 $523 $222 #
plane-surface $-1 -62.345652638325149 0 0 1 0 0 0 0 -1 forward_v I I I I #
coedge $-1 $524 $228 $525 $526 reversed $223 $-1 #
coedge $-1 $527 $225 $367 $528 forward $141 $-1 #
coedge $-1 $225 $527 $529 $530 reversed $141 $-1 #
coedge $-1 $531 $370 $225 $366 forward $532 $-1 #
edge $-1 $533 8.7985906269934215 $534 17.499178227383311 $365 $535 forward 7 unknown #
coedge $-1 $227 $226 $363 $528 reversed $89 $-1 #
coedge $-1 $536 $523 $226 $369 forward $360 $-1 #
edge $-1 $537 -4.0870399306601923 $373 0.89600595421114004 $368 $538 forward 7 unknown #
coedge $-1 $365 $525 $227 $371 forward $532 $-1 #
edge $-1 $374 -0.89600595421114004 $533 4.0870399306601923 $370 $539 forward 7 unknown #
coedge $-1 $228 $524 $536 $540 reversed $223 $-1 #
vertex $-1 $540 $541 #
vertex $-1 $526 $542 #
straight-curve $-1 0 -21.947475054181787 0.6995110340133861 1 0 0 I I #
face $-1 $-1 $388 $53 $-1 $543 forward single #
loop $-1 $-1 $544 $230 #
plane-surface $-1 -62.345652638325149 0 0 1 0 0 0 0 -1 forward_v I I I I #
coedge $-1 $545 $546 $547 $548 reversed $231 $-1 #
coedge $-1 $549 $233 $235 $386 forward $145 $-1 #
coedge $-1 $233 $549 $545 $550 forward $145 $-1 #
coedge $-1 $547 $236 $233 $383 forward $388 $-1 #
edge $-1 $390 -11.717181600618787 $551 1.2052045747306073 $382 $552 forward 7 unknown #
coedge $-1 $553 $554 $234 $385 forward $377 $-1 #
edge $-1 $555 -34.439118665326674 $389 -28.727234339944484 $384 $556 forward 7 unknown #
edge $-1 $390 -7.0602772343682947 $555 0 $235 $557 forward 7 unknown #
coedge $-1 $236 $547 $553 $558 forward $388 $-1 #
loop $-1 $-1 $547 $376 #
vertex $-1 $385 $559 #
vertex $-1 $237 $560 #
straight-curve $-1 -81.61151933918741 -16.973170113562876 10.125355920920441 1 0 0 I I #
coedge $-1 $392 $392 $-1 $561 reversed $240 $-1 #
edge $-1 $562 0 $562 6.2831853071796004 $241 $563 forward 7 unknown #
vertex $-1 $244 $564 #
ellipse-curve $-1 -60.270689260359624 -13.281059777748762 7.2694137582293461 -0.80901700255871778 0 0.5877852410284794 0.5877852410284794 0 0.80901700255871778 1 I I #
coedge $-1 $396 $396 $-1 $565 reversed $247 $-1 #
edge $-1 $566 0 $566 6.2831853071796004 $248 $567 forward 7 unknown #
vertex $-1 $251 $568 #
ellipse-curve $-1 -60.270689260359624 -7.7428942740275915 7.2694137582293461 -0.80901700255871778 0 0.5877852410284794 0.5877852410284794 0 0.80901700255871778 1 I I #
face $-1 $-1 $569 $56 $-1 $570 forward single #
loop $-1 $-1 $571 $252 #
plane-surface $-1 62.345652638325149 0 0 -1 0 0 0 0 1 forward_v I I I I #
coedge $-1 $572 $255 $257 $409 forward $159 $-1 #
coedge $-1 $255 $572 $573 $574 forward $159 $-1 #
coedge $-1 $575 $258 $255 $406 forward $253 $-1 #
edge $-1 $412 4.1963292322294947 $576 13.232873625378026 $405 $577 forward 7 unknown #
coedge $-1 $578 $579 $256 $408 forward $401 $-1 #
edge $-1 $580 -87.450451404507049 $411 -77.449914792605085 $407 $581 forward 7 unknown #
edge $-1 $412 112.00044228858332 $580 124.6913052766503 $257 $582 forward 7 unknown #
coedge $-1 $258 $575 $578 $583 forward $253 $-1 #
vertex $-1 $408 $584 #
vertex $-1 $259 $585 #
straight-curve $-1 41.918055728659134 -12.910930661033255 10.125355920920441 -1 0 0 I I #
coedge $-1 $414 $414 $-1 $586 reversed $262 $-1 #
edge $-1 $587 0 $587 6.2831853071796004 $263 $588 forward 7 unknown #
vertex $-1 $266 $589 #
ellipse-curve $-1 58.43901499017116 -19.365605227567919 5.1250876149694617 0.78801076186113728 0 0.61566146476048833 0.61566146476048833 0 -0.78801076186113728 1 I I #
coedge $-1 $418 $418 $-1 $590 reversed $269 $-1 #
edge $-1 $591 0 $591 6.2831853071796004 $270 $592 forward 7 unknown #
vertex $-1 $273 $593 #
ellipse-curve $-1 58.43901499017116 -15.49280048764712 5.1250876149694617 0.78801076186113728 0 0.61566146476048833 0.61566146476048833 0 -0.78801076186113728 1 I I #
face $-1 $-1 $594 $59 $-1 $595 reversed single #
loop $-1 $-1 $280 $274 #
plane-surface $-1 0 0 10.125355920920445 0 0 1 1 0 0 forward_v I I I I #
coedge $-1 $596 $597 $598 $599 reversed $275 $-1 #
coedge $-1 $600 $277 $279 $432 forward $173 $-1 #
coedge $-1 $277 $600 $596 $601 forward $173 $-1 #
coedge $-1 $598 $280 $277 $429 forward $423 $-1 #
edge $-1 $435 -3.0635029870379924 $602 5.9730414061105392 $428 $603 forward 7 unknown #
coedge $-1 $604 $605 $278 $431 forward $594 $-1 #
edge $-1 $606 -87.450451404507049 $434 -77.449914792605085 $430 $607 forward 7 unknown #
edge $-1 $435 112.00044228858332 $606 124.6913052766503 $279 $608 forward 7 unknown #
coedge $-1 $280 $598 $604 $609 forward $423 $-1 #
vertex $-1 $281 $610 #
vertex $-1 $281 $611 #
straight-curve $-1 41.918055728659134 1.608733777501719 10.125355920920441 -1 0 0 I I #
coedge $-1 $437 $437 $-1 $612 reversed $284 $-1 #
edge $-1 $613 0 $613 6.2831853071796004 $285 $614 forward 7 unknown #
vertex $-1 $288 $615 #
ellipse-curve $-1 58.43901499017116 -4.8459407890329445 5.1250876149694617 0.78801076186113728 0 0.61566146476048833 0.61566146476048833 0 -0.78801076186113728 1 I I #
coedge $-1 $441 $441 $-1 $616 reversed $291 $-1 #
edge $-1 $617 0 $617 6.2831853071796004 $292 $618 forward 7 unknown #
vertex $-1 $295 $619 #
ellipse-curve $-1 58.43901499017116 -0.97313604911214213 5.1250876149694617 0.78801076186113728 0 0.61566146476048833 0.61566146476048833 0 -0.78801076186113728 1 I I #
face $-1 $-1 $457 $62 $-1 $620 forward single #
loop $-1 $-1 $621 $296 #
plane-surface $-1 62.345652638325149 0 0 -1 0 0 0 0 1 forward_v I I I I #
coedge $-1 $622 $623 $624 $625 reversed $297 $-1 #
coedge $-1 $626 $299 $301 $455 forward $187 $-1 #
coedge $-1 $299 $626 $622 $627 forward $187 $-1 #
coedge $-1 $624 $302 $299 $452 forward $457 $-1 #
edge $-1 $459 -10.32333520630548 $628 -1.2867908131569479 $451 $629 forward 7 unknown #
coedge $-1 $630 $631 $300 $454 forward $446 $-1 #
edge $-1 $632 -87.450451404507049 $458 -77.449914792605085 $453 $633 forward 7 unknown #
edge $-1 $459 112.00044228858332 $632 124.6913052766503 $301 $634 forward 7 unknown #
coedge $-1 $302 $624 $630 $635 forward $457 $-1 #
loop $-1 $-1 $624 $445 #
vertex $-1 $454 $636 #
vertex $-1 $303 $637 #
straight-curve $-1 41.918055728659134 16.128398216036693 10.125355920920441 -1 0 0 I I #
coedge $-1 $461 $461 $-1 $638 reversed $306 $-1 #
edge $-1 $639 0 $639 6.2831853071796004 $307 $640 forward 7 unknown #
vertex $-1 $310 $641 #
ellipse-curve $-1 58.43901499017116 9.6737236495020298 5.1250876149694617 0.78801076186113728 0 0.61566146476048833 0.61566146476048833 0 -0.78801076186113728 1 I I #
coedge $-1 $465 $465 $-1 $642 reversed $313 $-1 #
edge $-1 $643 0 $643 6.2831853071796004 $314 $644 forward 7 unknown #
vertex $-1 $317 $645 #
ellipse-curve $-1 58.43901499017116 13.546528389422832 5.1250876149694617 0.78801076186113728 0 0.61566146476048833 0.61566146476048833 0 -0.78801076186113728 1 I I #
face $-1 $-1 $646 $65 $-1 $647 reversed single #
loop $-1 $-1 $475 $318 #
plane-surface $-1 0 0 10.125355920920445 0 0 1 1 0 0 forward_v I I I I #
coedge $-1 $648 $649 $474 $650 forward $319 $-1 #
coedge $-1 $474 $321 $323 $480 reversed $201 $-1 #
coedge $-1 $321 $473 $472 $650 reversed $201 $-1 #
coedge $-1 $651 $324 $321 $476 forward $470 $-1 #
edge $-1 $483 12.614321613358037 $652 20.427596909666015 $475 $653 forward 7 unknown #
coedge $-1 $323 $322 $648 $654 reversed $128 $-1 #
coedge $-1 $655 $656 $322 $479 forward $646 $-1 #
edge $-1 $657 -81.488381071307771 $482 -68.797518083240803 $478 $658 forward 7 unknown #
edge $-1 $659 -124.6913052766503 $483 -112.00044228858332 $473 $660 forward 7 unknown #
coedge $-1 $324 $651 $655 $661 forward $470 $-1 #
vertex $-1 $479 $662 #
vertex $-1 $325 $663 #
straight-curve $-1 54.53237734201717 13.064895228998701 10.125355920920441 0 -1 0 I I #
coedge $-1 $485 $485 $-1 $664 reversed $328 $-1 #
edge $-1 $665 0 $665 6.2831853071796004 $329 $666 forward 7 unknown #
vertex $-1 $332 $667 #
ellipse-curve $-1 58.43901499017116 24.193388088037004 5.1250876149694617 0.78801076186113728 0 0.61566146476048833 0.61566146476048833 0 -0.78801076186113728 1 I I #
coedge $-1 $489 $489 $-1 $668 reversed $335 $-1 #
edge $-1 $669 0 $669 6.2831853071796004 $336 $670 forward 7 unknown #
vertex $-1 $339 $671 #
ellipse-curve $-1 58.43901499017116 28.066192827957806 5.1250876149694617 0.78801076186113728 0 0.61566146476048833 0.61566146476048833 0 -0.78801076186113728 1 I I #
face $-1 $-1 $355 $51 $-1 $672 reversed single #
loop $-1 $-1 $509 $340 #
plane-surface $-1 0 30.648062654571675 0 0 -1 0 0 0 -1 forward_v I I I I #
coedge $-1 $673 $507 $510 $674 forward $341 $-1 #
coedge $-1 $513 $343 $344 $501 reversed $215 $-1 #
coedge $-1 $507 $673 $343 $499 reversed $341 $-1 #
edge $-1 $514 -10.125355920920445 $675 10.125355920920445 $498 $676 forward 7 unknown #
coedge $-1 $345 $344 $673 $677 forward $137 $-1 #
edge $-1 $505 -62.345652638325149 $675 62.345652638325149 $497 $678 forward 7 unknown #
coedge $-1 $510 $509 $345 $503 reversed $494 $-1 #
edge $-1 $679 -62.345652638325149 $504 62.345652638325149 $502 $680 forward 7 unknown #
vertex $-1 $347 $681 #
vertex $-1 $516 $682 #
straight-curve $-1 62.345652638325149 0 -10.125355920920445 0 -1 0 I I #
coedge $-1 $496 $498 $348 $508 reversed $341 $-1 #
edge $-1 $511 -30.648062654571675 $514 30.648062654571675 $507 $683 forward 7 unknown #
coedge $-1 $502 $349 $354 $517 forward $494 $-1 #
coedge $-1 $349 $502 $496 $674 reversed $494 $-1 #
vertex $-1 $350 $684 #
straight-curve $-1 0 30.648062654571675 10.125355920920445 -1 0 0 I I #
coedge $-1 $351 $497 $353 $516 reversed $215 $-1 #
vertex $-1 $508 $685 #
straight-curve $-1 0 -30.648062654571675 10.125355920920445 1 0 0 I I #
edge $-1 $356 -10.125355920920445 $505 10.125355920920445 $353 $686 forward 7 unknown #
edge $-1 $357 -10.125355920920445 $504 10.125355920920445 $354 $687 forward 7 unknown #
point $-1 62.345652638325149 -30.648062654571675 10.125355920920445 #
point $-1 62.345652638325149 30.648062654571675 10.125355920920445 #
face $-1 $-1 $532 $52 $-1 $688 reversed single #
loop $-1 $-1 $529 $359 #
plane-surface $-1 0 -30.648062654571675 0 0 1 0 0 0 1 forward_v I I I I #
coedge $-1 $368 $689 $527 $690 forward $360 $-1 #
coedge $-1 $372 $362 $691 $692 reversed $223 $-1 #
coedge $-1 $370 $531 $362 $526 forward $532 $-1 #
edge $-1 $693 -17.499178227383311 $374 -8.7985906269934215 $525 $694 forward 7 unknown #
coedge $-1 $364 $363 $523 $690 reversed $141 $-1 #
edge $-1 $533 -62.345652638325149 $537 62.345652638325149 $367 $695 forward 7 unknown #
coedge $-1 $696 $697 $364 $530 forward $521 $-1 #
edge $-1 $534 -62.345652638325149 $698 62.345652638325149 $529 $699 forward 7 unknown #
coedge $-1 $525 $365 $697 $700 forward $532 $-1 #
loop $-1 $-1 $365 $520 #
vertex $-1 $366 $701 #
vertex $-1 $700 $702 #
straight-curve $-1 62.345652638325149 -13.148884427188365 5.6825569188847185 0 -1 0 I I #
coedge $-1 $689 $368 $372 $540 forward $360 $-1 #
vertex $-1 $690 $703 #
straight-curve $-1 -62.345652638325149 -21.947475054181787 1.5955169882245261 0 0 -1 I I #
straight-curve $-1 62.345652638325149 -21.947475054181787 1.5955169882245261 0 0 1 I I #
edge $-1 $373 8.7985906269934215 $704 17.499178227383311 $536 $705 forward 7 unknown #
point $-1 -62.345652638325149 -21.947475054181787 0.6995110340133861 #
point $-1 62.345652638325149 -21.947475054181787 0.6995110340133861 #
plane-surface $-1 0 0 10.125355920920445 0 0 1 1 0 0 forward_v I I I I #
coedge $-1 $554 $553 $546 $706 forward $377 $-1 #
coedge $-1 $546 $379 $381 $550 reversed $231 $-1 #
coedge $-1 $379 $545 $544 $706 reversed $231 $-1 #
coedge $-1 $387 $382 $379 $548 forward $388 $-1 #
edge $-1 $551 -23.415793456793317 $707 -19.265866700862261 $547 $708 forward 7 unknown #
coedge $-1 $381 $380 $554 $709 reversed $145 $-1 #
edge $-1 $710 0 $551 7.0602772343682947 $545 $711 forward 7 unknown #
vertex $-1 $383 $712 #
straight-curve $-1 -58.1957258823941 -5.2559885129440893 10.125355920920445 0 1 0 I I #
coedge $-1 $544 $384 $387 $558 reversed $377 $-1 #
coedge $-1 $384 $544 $549 $709 forward $377 $-1 #
vertex $-1 $385 $713 #
straight-curve $-1 -62.345652638325149 -16.973170113562876 38.852590260864929 0 0 1 I I #
straight-curve $-1 -62.345652638325149 -16.973170113562876 4.4134715955382546 -0.5877852410284794 0 -0.80901700255871778 I I #
edge $-1 $707 4.050783938213482 $389 16.973170113562876 $553 $714 forward 7 unknown #
point $-1 -62.345652638325149 -16.973170113562876 10.125355920920445 #
point $-1 -58.195725882394093 -16.973170113562876 10.125355920920445 #
edge $-1 $715 1 $715 0 $392 $-1 forward 7 unknown #
vertex $-1 $393 $716 #
ellipse-curve $-1 -57.110839258697354 -13.281059777748762 4.9736484171219493 -0.80901700255871778 0 0.5877852410284794 0.5877852410284794 0 0.80901700255871778 1 I I #
point $-1 -59.682904019331133 -13.281059777748762 8.0784307607880574 #
edge $-1 $717 1 $717 0 $396 $-1 forward 7 unknown #
vertex $-1 $397 $718 #
ellipse-curve $-1 -57.110839258697354 -7.7428942740275915 4.9736484171219493 -0.80901700255871778 0 0.5877852410284794 0.5877852410284794 0 0.80901700255871778 1 I I #
point $-1 -59.682904019331133 -7.7428942740275915 8.0784307607880574 #
loop $-1 $-1 $573 $400 #
plane-surface $-1 0 -21.947475054181787 3.1910339764490523 0 -1 0 0 0 -1 forward_v I I I I #
coedge $-1 $579 $578 $719 $720 forward $401 $-1 #
coedge $-1 $404 $403 $579 $721 reversed $159 $-1 #
coedge $-1 $719 $722 $404 $574 reversed $569 $-1 #
edge $-1 $723 -124.6913052766503 $576 -112.00044228858332 $573 $724 forward 7 unknown #
coedge $-1 $410 $405 $722 $725 forward $253 $-1 #
vertex $-1 $725 $726 #
straight-curve $-1 54.53237734201717 -8.7146014288037605 10.125355920920441 0 -1 0 I I #
coedge $-1 $571 $407 $410 $583 reversed $401 $-1 #
coedge $-1 $407 $571 $572 $721 forward $401 $-1 #
vertex $-1 $408 $727 #
straight-curve $-1 62.345652638325149 -12.910930661033255 87.575270713525526 0 0 1 I I #
straight-curve $-1 -14.42197901119458 -12.910930661033255 98.382909777531324 0.61566146476048833 0 -0.78801076186113728 I I #
edge $-1 $728 -21.947475054181787 $411 -12.910930661033255 $578 $729 forward 7 unknown #
point $-1 62.345652638325149 -12.910930661033255 10.125355920920445 #
point $-1 54.53237734201717 -12.910930661033255 10.125355920920441 #
edge $-1 $730 1 $730 0 $414 $-1 forward 7 unknown #
vertex $-1 $415 $731 #
ellipse-curve $-1 57.245395246421225 -19.365605227567919 4.1925296914348866 0.78801076186113728 0 0.61566146476048833 0.61566146476048833 0 -0.78801076186113728 1 I I #
point $-1 59.054676454931645 -19.365605227567919 4.3370768531083206 #
edge $-1 $732 1 $732 0 $418 $-1 forward 7 unknown #
vertex $-1 $419 $733 #
ellipse-curve $-1 57.245395246421225 -15.49280048764712 4.1925296914348866 0.78801076186113728 0 0.61566146476048833 0.61566146476048833 0 -0.78801076186113728 1 I I #
point $-1 59.054676454931645 -15.49280048764712 4.3370768531083206 #
loop $-1 $-1 $430 $422 #
plane-surface $-1 62.345652638325149 0 0 -1 0 0 0 0 1 forward_v I I I I #
coedge $-1 $597 $425 $427 $601 reversed $275 $-1 #
coedge $-1 $425 $596 $734 $735 reversed $275 $-1 #
coedge $-1 $433 $428 $425 $599 forward $423 $-1 #
edge $-1 $602 12.614321613358037 $736 20.427596909666015 $598 $737 forward 7 unknown #
coedge $-1 $427 $426 $605 $738 reversed $173 $-1 #
edge $-1 $739 -124.6913052766503 $602 -112.00044228858332 $596 $740 forward 7 unknown #
vertex $-1 $429 $741 #
straight-curve $-1 54.53237734201717 -1.4547692095362734 10.125355920920441 0 -1 0 I I #
coedge $-1 $734 $430 $433 $609 reversed $594 $-1 #
coedge $-1 $430 $734 $600 $738 forward $594 $-1 #
vertex $-1 $431 $742 #
straight-curve $-1 62.345652638325149 1.608733777501719 87.575270713525526 0 0 1 I I #
straight-curve $-1 -14.42197901119458 1.608733777501719 98.382909777531324 0.61566146476048833 0 -0.78801076186113728 I I #
edge $-1 $736 -7.4278106156468127 $434 1.608733777501719 $604 $743 forward 7 unknown #
point $-1 62.345652638325149 1.608733777501719 10.125355920920445 #
point $-1 54.53237734201717 1.608733777501719 10.125355920920441 #
edge $-1 $744 1 $744 0 $437 $-1 forward 7 unknown #
vertex $-1 $438 $745 #
ellipse-curve $-1 57.245395246421225 -4.8459407890329445 4.1925296914348866 0.78801076186113728 0 0.61566146476048833 0.61566146476048833 0 -0.78801076186113728 1 I I #
point $-1 59.054676454931645 -4.8459407890329445 4.3370768531083206 #
edge $-1 $746 1 $746 0 $441 $-1 forward 7 unknown #
vertex $-1 $442 $747 #
ellipse-curve $-1 57.245395246421225 -0.97313604911214213 4.1925296914348866 0.78801076186113728 0 0.61566146476048833 0.61566146476048833 0 -0.78801076186113728 1 I I #
point $-1 59.054676454931645 -0.97313604911214213 4.3370768531083206 #
plane-surface $-1 0 0 10.125355920920445 0 0 1 1 0 0 forward_v I I I I #
coedge $-1 $631 $630 $623 $748 forward $446 $-1 #
coedge $-1 $623 $448 $450 $627 reversed $297 $-1 #
coedge $-1 $448 $622 $621 $748 reversed $297 $-1 #
coedge $-1 $456 $451 $448 $625 forward $457 $-1 #
edge $-1 $628 12.614321613358037 $749 20.427596909666015 $624 $750 forward 7 unknown #
coedge $-1 $450 $449 $631 $751 reversed $187 $-1 #
edge $-1 $752 -124.6913052766503 $628 -112.00044228858332 $622 $753 forward 7 unknown #
vertex $-1 $452 $754 #
straight-curve $-1 54.53237734201717 5.8050630097312137 10.125355920920441 0 -1 0 I I #
coedge $-1 $621 $453 $456 $635 reversed $446 $-1 #
coedge $-1 $453 $621 $626 $751 forward $446 $-1 #
vertex $-1 $454 $755 #
straight-curve $-1 62.345652638325149 16.128398216036693 87.575270713525526 0 0 1 I I #
straight-curve $-1 -14.42197901119458 16.128398216036693 98.382909777531324 0.61566146476048833 0 -0.78801076186113728 I I #
edge $-1 $749 7.0918538228881616 $458 16.128398216036693 $630 $756 forward 7 unknown #
point $-1 62.345652638325149 16.128398216036693 10.125355920920445 #
point $-1 54.53237734201717 16.128398216036693 10.125355920920441 #
edge $-1 $757 1 $757 0 $461 $-1 forward 7 unknown #
vertex $-1 $462 $758 #
ellipse-curve $-1 57.245395246421225 9.6737236495020298 4.1925296914348866 0.78801076186113728 0 0.61566146476048833 0.61566146476048833 0 -0.78801076186113728 1 I I #
point $-1 59.054676454931645 9.6737236495020298 4.3370768531083206 #
edge $-1 $759 1 $759 0 $465 $-1 forward 7 unknown #
vertex $-1 $466 $760 #
ellipse-curve $-1 57.245395246421225 13.546528389422832 4.1925296914348866 0.78801076186113728 0 0.61566146476048833 0.61566146476048833 0 -0.78801076186113728 1 I I #
point $-1 59.054676454931645 13.546528389422832 4.3370768531083206 #
loop $-1 $-1 $478 $469 #
plane-surface $-1 0 30.648062654571675 0 0 -1 0 0 0 -1 forward_v I I I I #
coedge $-1 $761 $472 $477 $654 forward $319 $-1 #
coedge $-1 $472 $761 $651 $762 reversed $319 $-1 #
edge $-1 $652 77.449914792605085 $659 87.450451404507049 $472 $763 forward 7 unknown #
coedge $-1 $481 $475 $649 $762 forward $470 $-1 #
vertex $-1 $762 $764 #
straight-curve $-1 41.918055728659134 21.611518261423136 10.125355920920441 1 0 0 I I #
edge $-1 $659 8.546623032424435 $657 17.583167425572967 $648 $765 forward 7 unknown #
coedge $-1 $656 $478 $481 $661 reversed $646 $-1 #
coedge $-1 $478 $655 $761 $766 forward $646 $-1 #
vertex $-1 $479 $767 #
straight-curve $-1 12.176396587002959 30.648062654571675 64.338540559850387 -0.61566146476048833 0 0.78801076186113728 I I #
vertex $-1 $654 $768 #
straight-curve $-1 -14.42197901119458 21.611518261423136 98.382909777531324 -0.61566146476048833 0 0.78801076186113728 I I #
edge $-1 $769 -62.345652638325149 $482 -54.53237734201717 $655 $770 forward 7 unknown #
point $-1 54.53237734201717 30.648062654571667 10.125355920920441 #
point $-1 54.53237734201717 21.611518261423136 10.125355920920441 #
edge $-1 $771 1 $771 0 $485 $-1 forward 7 unknown #
vertex $-1 $486 $772 #
ellipse-curve $-1 57.245395246421225 24.193388088037004 4.1925296914348866 0.78801076186113728 0 0.61566146476048833 0.61566146476048833 0 -0.78801076186113728 1 I I #
point $-1 59.054676454931645 24.193388088037004 4.3370768531083206 #
edge $-1 $773 1 $773 0 $489 $-1 forward 7 unknown #
vertex $-1 $490 $774 #
ellipse-curve $-1 57.245395246421225 28.066192827957806 4.1925296914348866 0.78801076186113728 0 0.61566146476048833 0.61566146476048833 0 -0.78801076186113728 1 I I #
point $-1 59.054676454931645 28.066192827957806 4.3370768531083206 #
plane-surface $-1 62.345652638325149 0 0 -1 0 0 0 0 1 forward_v I I I I #
coedge $-1 $498 $496 $500 $677 reversed $341 $-1 #
edge $-1 $511 -10.125355920920445 $679 10.125355920920445 $510 $775 forward 7 unknown #
vertex $-1 $677 $776 #
straight-curve $-1 -62.345652638325149 -30.648062654571675 0 0 0 -1 I I #
edge $-1 $675 -30.648062654571675 $679 30.648062654571675 $673 $777 forward 7 unknown #
straight-curve $-1 0 -30.648062654571675 -10.125355920920445 -1 0 0 I I #
vertex $-1 $503 $778 #
straight-curve $-1 0 30.648062654571675 -10.125355920920445 1 0 0 I I #
point $-1 62.345652638325149 30.648062654571675 -10.125355920920445 #
point $-1 62.345652638325149 -30.648062654571675 -10.125355920920445 #
straight-curve $-1 -62.345652638325149 0 10.125355920920445 0 -1 0 I I #
point $-1 -62.345652638325149 30.648062654571675 10.125355920920445 #
point $-1 -62.345652638325149 -30.648062654571675 10.125355920920445 #
straight-curve $-1 62.345652638325149 -30.648062654571675 0 0 0 -1 I I #
straight-curve $-1 62.345652638325149 30.648062654571675 0 0 0 -1 I I #
plane-surface $-1 62.345652638325149 0 0 -1 0 0 0 0 1 forward_v I I I I #
coedge $-1 $523 $536 $696 $779 reversed $360 $-1 #
edge $-1 $698 -17.499178227383311 $537 -8.7985906269934215 $523 $780 forward 7 unknown #
coedge $-1 $697 $696 $524 $692 forward $521 $-1 #
edge $-1 $704 -62.345652638325149 $693 62.345652638325149 $691 $781 forward 7 unknown #
vertex $-1 $692 $782 #
straight-curve $-1 62.345652638325149 -13.148884427188365 0.6995110340133861 0 1 0 I I #
straight-curve $-1 0 -21.947475054181787 5.6825569188847185 -1 0 0 I I #
coedge $-1 $691 $529 $689 $779 forward $521 $-1 #
coedge $-1 $529 $691 $531 $700 reversed $521 $-1 #
vertex $-1 $779 $783 #
straight-curve $-1 0 -30.648062654571675 5.6825569188847185 -1 0 0 I I #
edge $-1 $534 -5.6825569188847185 $693 -0.6995110340133861 $531 $784 forward 7 unknown #
point $-1 62.345652638325149 -21.947475054181787 5.6825569188847185 #
point $-1 62.345652638325149 -30.648062654571675 5.6825569188847185 #
point $-1 -62.345652638325149 -21.947475054181787 5.6825569188847185 #
vertex $-1 $692 $785 #
straight-curve $-1 -62.345652638325149 -13.148884427188365 0.6995110340133861 0 -1 0 I I #
edge $-1 $707 28.727234339944484 $710 34.439118665326674 $544 $786 forward 7 unknown #
vertex $-1 $558 $787 #
straight-curve $-1 -81.61151933918741 -4.050783938213482 10.125355920920441 -1 0 0 I I #
edge $-1 $710 -1.2052045747306073 $555 11.717181600618787 $554 $788 forward 7 unknown #
vertex $-1 $709 $789 #
straight-curve $-1 -62.345652638325149 -4.050783938213482 4.4134715955382546 0.5877852410284794 0 0.80901700255871778 I I #
point $-1 -58.195725882394093 -4.050783938213482 10.125355920920445 #
point $-1 -62.345652638325149 -16.973170113562876 4.4134715955382546 #
straight-curve $-1 -62.345652638325149 0 10.125355920920445 0 -1 0 I I #
vertex $-1 $561 $790 #
point $-1 -56.523054017668876 -13.281059777748762 5.7826654196806668 #
vertex $-1 $565 $791 #
point $-1 -56.523054017668876 -7.7428942740275915 5.7826654196806668 #
coedge $-1 $722 $573 $571 $720 reversed $569 $-1 #
edge $-1 $728 77.449914792605085 $723 87.450451404507049 $571 $792 forward 7 unknown #
edge $-1 $723 -13.232873625378026 $580 -4.1963292322294947 $579 $793 forward 7 unknown #
coedge $-1 $573 $719 $575 $725 reversed $569 $-1 #
vertex $-1 $720 $794 #
straight-curve $-1 -14.42197901119458 -21.947475054181787 98.382909777531324 -0.61566146476048833 0 0.78801076186113728 I I #
edge $-1 $576 12.614321613358037 $728 20.427596909666015 $575 $795 forward 7 unknown #
point $-1 54.53237734201717 -21.947475054181787 10.125355920920441 #
point $-1 62.345652638325149 -12.910930661033255 0.12481930901847704 #
vertex $-1 $583 $796 #
straight-curve $-1 62.345652638325149 0 10.125355920920445 0 1 0 I I #
vertex $-1 $586 $797 #
point $-1 57.861056711181718 -19.365605227567919 3.404518929573749 #
vertex $-1 $590 $798 #
point $-1 57.861056711181718 -15.49280048764712 3.404518929573749 #
coedge $-1 $605 $604 $597 $735 forward $594 $-1 #
edge $-1 $736 77.449914792605085 $739 87.450451404507049 $734 $799 forward 7 unknown #
vertex $-1 $609 $800 #
straight-curve $-1 41.918055728659134 -7.4278106156468127 10.125355920920441 1 0 0 I I #
edge $-1 $739 -5.9730414061105392 $606 3.0635029870379924 $605 $801 forward 7 unknown #
vertex $-1 $738 $802 #
straight-curve $-1 -14.42197901119458 -7.4278106156468127 98.382909777531324 -0.61566146476048833 0 0.78801076186113728 I I #
point $-1 54.53237734201717 -7.4278106156468127 10.125355920920441 #
point $-1 62.345652638325149 1.608733777501719 0.12481930901847704 #
straight-curve $-1 62.345652638325149 0 10.125355920920445 0 1 0 I I #
vertex $-1 $612 $803 #
point $-1 57.861056711181718 -4.8459407890329445 3.404518929573749 #
vertex $-1 $616 $804 #
point $-1 57.861056711181718 -0.97313604911214213 3.404518929573749 #
edge $-1 $749 77.449914792605085 $752 87.450451404507049 $621 $805 forward 7 unknown #
vertex $-1 $635 $806 #
straight-curve $-1 41.918055728659134 7.0918538228881616 10.125355920920441 1 0 0 I I #
edge $-1 $752 1.2867908131569479 $632 10.32333520630548 $631 $807 forward 7 unknown #
vertex $-1 $751 $808 #
straight-curve $-1 -14.42197901119458 7.0918538228881616 98.382909777531324 -0.61566146476048833 0 0.78801076186113728 I I #
point $-1 54.53237734201717 7.0918538228881616 10.125355920920441 #
point $-1 62.345652638325149 16.128398216036693 0.12481930901847704 #
straight-curve $-1 62.345652638325149 0 10.125355920920445 0 1 0 I I #
vertex $-1 $638 $809 #
point $-1 57.861056711181718 9.6737236495020298 3.404518929573749 #
vertex $-1 $642 $810 #
point $-1 57.861056711181718 13.546528389422832 3.404518929573749 #
coedge $-1 $649 $648 $656 $766 reversed $319 $-1 #
edge $-1 $652 21.611518261423136 $769 30.648062654571675 $649 $811 forward 7 unknown #
straight-curve $-1 62.345652638325149 21.611518261423136 87.575270713525526 0 0 -1 I I #
point $-1 62.345652638325149 21.611518261423136 10.125355920920445 #
straight-curve $-1 62.345652638325149 13.064895228998701 0.12481930901847704 0 1 0 I I #
edge $-1 $769 -10.125355920920445 $657 -0.12481930901847704 $761 $812 forward 7 unknown #
point $-1 62.345652638325149 30.648062654571667 0.12481930901847704 #
point $-1 62.345652638325149 21.611518261423136 0.12481930901847704 #
vertex $-1 $762 $813 #
straight-curve $-1 0 30.648062654571675 10.125355920920445 -1 0 0 I I #
vertex $-1 $664 $814 #
point $-1 57.861056711181718 24.193388088037004 3.404518929573749 #
vertex $-1 $668 $815 #
point $-1 57.861056711181718 28.066192827957806 3.404518929573749 #
straight-curve $-1 -62.345652638325149 30.648062654571675 0 0 0 -1 I I #
point $-1 -62.345652638325149 -30.648062654571675 -10.125355920920445 #
straight-curve $-1 -62.345652638325149 0 -10.125355920920445 0 1 0 I I #
point $-1 -62.345652638325149 30.648062654571675 -10.125355920920445 #
edge $-1 $698 -5.6825569188847185 $704 -0.6995110340133861 $689 $816 forward 7 unknown #
straight-curve $-1 -62.345652638325149 -13.148884427188365 5.6825569188847185 0 1 0 I I #
straight-curve $-1 0 -30.648062654571675 0.6995110340133861 1 0 0 I I #
point $-1 62.345652638325149 -30.648062654571675 0.6995110340133861 #
point $-1 -62.345652638325149 -30.648062654571675 5.6825569188847185 #
straight-curve $-1 62.345652638325149 -30.648062654571675 0 0 0 -1 I I #
point $-1 -62.345652638325149 -30.648062654571675 0.6995110340133861 #
straight-curve $-1 -62.345652638325149 -4.050783938213482 38.852590260864929 0 0 -1 I I #
point $-1 -62.345652638325149 -4.050783938213482 10.125355920920445 #
straight-curve $-1 -62.345652638325149 -5.2559885129440893 4.4134715955382591 0 -1 0 I I #
point $-1 -62.345652638325149 -4.050783938213482 4.4134715955382546 #
point $-1 -56.301822256138635 -13.281059777748762 4.3858631760934701 #
point $-1 -56.301822256138635 -7.7428942740275915 4.3858631760934701 #
straight-curve $-1 62.345652638325149 -21.947475054181787 87.575270713525526 0 0 -1 I I #
straight-curve $-1 62.345652638325149 -8.7146014288037605 0.12481930901847704 0 1 0 I I #
point $-1 62.345652638325149 -21.947475054181787 0.12481930901847704 #
straight-curve $-1 41.918055728659134 -21.947475054181787 10.125355920920441 1 0 0 I I #
point $-1 62.345652638325149 -21.947475054181787 10.125355920920445 #
point $-1 56.457384484560095 -19.365605227567919 3.5768682266743981 #
point $-1 56.457384484560095 -15.49280048764712 3.5768682266743981 #
straight-curve $-1 62.345652638325149 -7.4278106156468127 87.575270713525526 0 0 -1 I I #
point $-1 62.345652638325149 -7.4278106156468127 10.125355920920445 #
straight-curve $-1 62.345652638325149 -1.4547692095362734 0.12481930901847704 0 1 0 I I #
point $-1 62.345652638325149 -7.4278106156468127 0.12481930901847704 #
point $-1 56.457384484560095 -4.8459407890329445 3.5768682266743981 #
point $-1 56.457384484560095 -0.97313604911214213 3.5768682266743981 #
straight-curve $-1 62.345652638325149 7.0918538228881616 87.575270713525526 0 0 -1 I I #
point $-1 62.345652638325149 7.0918538228881616 10.125355920920445 #
straight-curve $-1 62.345652638325149 5.8050630097312137 0.12481930901847704 0 1 0 I I #
point $-1 62.345652638325149 7.0918538228881616 0.12481930901847704 #
point $-1 56.457384484560095 9.6737236495020298 3.5768682266743981 #
point $-1 56.457384484560095 13.546528389422832 3.5768682266743981 #
straight-curve $-1 62.345652638325149 0 10.125355920920445 0 1 0 I I #
straight-curve $-1 62.345652638325149 30.648062654571675 0 0 0 -1 I I #
point $-1 62.345652638325149 30.648062654571675 10.125355920920445 #
point $-1 56.457384484560095 24.193388088037004 3.5768682266743981 #
point $-1 56.457384484560095 28.066192827957806 3.5768682266743981 #
straight-curve $-1 -62.345652638325149 -30.648062654571675 0 0 0 -1 I I #
End-of-ACIS-data 