500 0 4 0           
7 Unknown 11 ACIS 5.0 NT 24 Thu Mar 25 17:24:36 1999 
-1 9.9999999999999995e-007 1e-010 
body $-1 $4 $-1 $5 #
body $-1 $6 $-1 $7 #
body $-1 $8 $-1 $9 #
body $-1 $10 $-1 $11 #
lump $-1 $-1 $12 $0 #
transform $-1 1 0 0 0 1 0 0 0 1 67.610705893124177 34.346783325490755 12.880960933112373 1 rotate no_reflect no_shear #
lump $-1 $-1 $13 $1 #
transform $-1 1 0 0 0 1 0 0 0 1 67.610705893124177 34.346783325490755 12.880960933112373 1 rotate no_reflect no_shear #
lump $-1 $-1 $14 $2 #
transform $-1 1 0 0 0 1 0 0 0 1 67.610705893124177 34.346783325490755 12.880960933112373 1 rotate no_reflect no_shear #
lump $-1 $-1 $15 $3 #
transform $-1 1 0 0 0 1 0 0 0 1 67.610705893124177 34.346783325490755 12.880960933112373 1 rotate no_reflect no_shear #
shell $-1 $-1 $-1 $16 $-1 $4 #
shell $-1 $-1 $-1 $17 $-1 $6 #
shell $-1 $-1 $-1 $18 $-1 $8 #
shell $-1 $-1 $-1 $19 $-1 $10 #
face $-1 $20 $21 $12 $-1 $22 forward single #
face $-1 $23 $24 $13 $-1 $25 reversed single #
face $-1 $26 $27 $14 $-1 $28 reversed single #
face $-1 $29 $30 $15 $-1 $31 forward single #
face $-1 $32 $33 $12 $-1 $34 reversed single #
loop $-1 $-1 $35 $16 #
plane-surface $-1 0 0 12.880960933112373 0 0 1 1 0 0 forward_v I I I I #
face $-1 $36 $37 $13 $-1 $38 reversed single #
loop $-1 $-1 $39 $17 #
plane-surface $-1 -65.780985971765134 -23.629896160963263 0 0 -1 0 0 0 -1 forward_v I I I I #
face $-1 $40 $41 $14 $-1 $42 reversed single #
loop $-1 $-1 $43 $18 #
plane-surface $-1 2.039921716871234 81.389075431334419 148.22624124011165 1 0 0 0 -0.70710678939079041 -0.70710677298230451 forward_v I I I I #
face $-1 $44 $45 $15 $-1 $46 forward single #
loop $-1 $47 $48 $19 #
cone-surface $-1 15.624995923534655 28.448595159536513 6.9827726987913756 0 -0.70710678939079041 -0.70710677298230451 3 0 0 1 I I 0 1 3 forward I I I I #
face $-1 $49 $50 $12 $-1 $51 reversed single #
loop $-1 $-1 $52 $20 #
plane-surface $-1 0 0 -12.880960933112373 0 0 1 1 0 0 forward_v I I I I #
coedge $-1 $53 $54 $55 $56 forward $21 $-1 #
face $-1 $57 $58 $13 $-1 $59 forward single #
loop $-1 $-1 $60 $23 #
plane-surface $-1 -63.951266050406097 -28.988339743227009 0 -1 0 0 0 0 1 forward_v I I I I #
coedge $-1 $61 $62 $63 $64 forward $24 $-1 #
face $-1 $65 $66 $14 $-1 $67 reversed single #
loop $-1 $-1 $68 $26 #
plane-surface $-1 15.624995923534655 -14.226902913729646 52.610265113826216 0 0.70710678939079041 0.70710677298230451 1 0 0 forward_v I I I I #
coedge $-1 $69 $70 $71 $72 reversed $27 $-1 #
face $-1 $-1 $73 $15 $-1 $74 forward single #
loop $-1 $75 $76 $29 #
cone-surface $-1 15.624995923534655 25.911938299710656 4.4461158978288999 0 -0.70710678939079041 -0.70710677298230451 1.5 0 0 1 I I -0.70710678118654757 0.70710678118654757 1.5 forward I I I I #
loop $-1 $-1 $77 $19 #
coedge $-1 $48 $48 $78 $79 reversed $30 $-1 #
face $-1 $80 $81 $12 $-1 $82 reversed single #
loop $-1 $-1 $83 $32 #
plane-surface $-1 0 -34.346783325490755 0 0 1 0 0 0 1 forward_v I I I I #
coedge $-1 $84 $85 $86 $87 forward $33 $-1 #
coedge $-1 $88 $35 $89 $90 forward $21 $-1 #
coedge $-1 $35 $88 $91 $92 forward $21 $-1 #
coedge $-1 $93 $94 $35 $56 reversed $95 $-1 #
edge $-1 $96 -34.346783325490755 $97 34.346783325490755 $55 $98 forward 7 unknown #
face $-1 $99 $100 $13 $-1 $101 reversed single #
loop $-1 $-1 $102 $36 #
plane-surface $-1 0 0 12.880960933112373 0 0 1 1 0 0 forward_v I I I I #
coedge $-1 $103 $104 $105 $106 reversed $37 $-1 #
coedge $-1 $107 $39 $108 $109 reversed $24 $-1 #
coedge $-1 $39 $107 $110 $111 reversed $24 $-1 #
coedge $-1 $104 $103 $39 $64 reversed $37 $-1 #
edge $-1 $112 -12.880960933112373 $113 12.880960933112373 $63 $114 forward 7 unknown #
face $-1 $115 $116 $14 $-1 $117 reversed single #
loop $-1 $-1 $118 $40 #
plane-surface $-1 29.210070130198076 81.389075431334419 148.22624124011165 -1 0 0 0 0.70710678939079041 0.70710677298230451 forward_v I I I I #
coedge $-1 $119 $120 $121 $122 reversed $41 $-1 #
coedge $-1 $70 $43 $123 $124 reversed $27 $-1 #
coedge $-1 $43 $69 $119 $125 reversed $27 $-1 #
coedge $-1 $121 $126 $43 $72 forward $127 $-1 #
edge $-1 $128 6.3477543901764548 $129 15.192137370605614 $71 $130 forward 7 unknown #
loop $-1 $-1 $78 $44 #
plane-surface $-1 15.624995923534655 -14.226902913729646 52.610265113826216 0 0.70710678939079041 0.70710677298230451 1 0 0 forward_v I I I I #
loop $-1 $-1 $131 $29 #
coedge $-1 $76 $76 $77 $132 reversed $45 $-1 #
coedge $-1 $77 $77 $76 $132 forward $47 $-1 #
coedge $-1 $78 $78 $48 $79 forward $73 $-1 #
edge $-1 $133 4.1869126887890877e-016 $133 6.2831853071796004 $78 $134 forward 7 unknown #
face $-1 $135 $136 $12 $-1 $137 reversed single #
loop $-1 $-1 $138 $49 #
plane-surface $-1 -67.610705893124177 0 0 1 0 0 0 0 -1 forward_v I I I I #
coedge $-1 $139 $91 $140 $141 forward $50 $-1 #
coedge $-1 $142 $52 $139 $143 forward $33 $-1 #
coedge $-1 $52 $142 $144 $145 forward $33 $-1 #
coedge $-1 $94 $93 $52 $87 reversed $95 $-1 #
edge $-1 $146 -34.346783325490755 $147 34.346783325490755 $86 $148 forward 7 unknown #
coedge $-1 $54 $53 $149 $150 forward $21 $-1 #
coedge $-1 $151 $152 $53 $90 reversed $136 $-1 #
edge $-1 $97 -67.610705893124177 $153 67.610705893124177 $89 $154 forward 7 unknown #
coedge $-1 $83 $155 $54 $92 reversed $50 $-1 #
edge $-1 $156 -67.610705893124177 $96 67.610705893124177 $91 $157 forward 7 unknown #
coedge $-1 $86 $55 $155 $158 forward $95 $-1 #
coedge $-1 $55 $86 $151 $159 reversed $95 $-1 #
loop $-1 $-1 $93 $135 #
vertex $-1 $56 $160 #
vertex $-1 $56 $161 #
straight-curve $-1 67.610705893124177 0 12.880960933112373 0 1 0 I I #
face $-1 $162 $163 $13 $-1 $164 reversed single #
loop $-1 $-1 $165 $57 #
plane-surface $-1 -67.610705893124177 0 0 1 0 0 0 0 -1 forward_v I I I I #
coedge $-1 $110 $166 $104 $167 forward $58 $-1 #
coedge $-1 $63 $60 $168 $169 reversed $37 $-1 #
coedge $-1 $60 $63 $102 $167 reversed $37 $-1 #
coedge $-1 $170 $171 $60 $106 forward $172 $-1 #
edge $-1 $173 -12.880960933112373 $174 12.880960933112373 $105 $175 forward 7 unknown #
coedge $-1 $62 $61 $165 $176 reversed $24 $-1 #
coedge $-1 $168 $177 $61 $109 forward $163 $-1 #
edge $-1 $178 -34.72021290724161 $113 -31.060773064523531 $108 $179 forward 7 unknown #
coedge $-1 $180 $102 $62 $111 forward $58 $-1 #
edge $-1 $112 31.060773064523531 $181 34.72021290724161 $110 $182 forward 7 unknown #
vertex $-1 $111 $183 #
vertex $-1 $109 $184 #
straight-curve $-1 -63.951266050406097 -23.629896160963263 0 0 0 -1 I I #
face $-1 $-1 $127 $14 $-1 $185 forward single #
loop $-1 $-1 $186 $65 #
plane-surface $-1 0 34.346783325490755 0 0 -1 0 0 0 -1 forward_v I I I I #
coedge $-1 $187 $188 $189 $190 reversed $66 $-1 #
coedge $-1 $191 $68 $70 $125 forward $41 $-1 #
coedge $-1 $68 $191 $187 $192 forward $41 $-1 #
coedge $-1 $189 $71 $68 $122 forward $127 $-1 #
edge $-1 $129 -5.7725762448960936 $193 21.397572168430749 $121 $194 forward 7 unknown #
coedge $-1 $195 $196 $69 $124 forward $116 $-1 #
edge $-1 $197 -70.076542872607433 $128 -61.232159686943447 $123 $198 forward 7 unknown #
edge $-1 $129 56.185720144113915 $197 68.693566650981566 $70 $199 forward 7 unknown #
coedge $-1 $71 $189 $195 $200 forward $127 $-1 #
loop $-1 $-1 $189 $115 #
vertex $-1 $124 $201 #
vertex $-1 $72 $202 #
straight-curve $-1 2.039921716871234 40.694537715667209 12.880960933112377 0 -1 0 I I #
coedge $-1 $131 $131 $-1 $203 reversed $75 $-1 #
edge $-1 $204 0 $204 6.2831853071796004 $76 $205 forward 7 unknown #
vertex $-1 $79 $206 #
ellipse-curve $-1 15.624995923534655 29.924591835276178 8.4587693402803854 0 0.70710678939079041 0.70710677298230451 3 0 0 1 I I #
face $-1 $-1 $95 $12 $-1 $207 reversed single #
loop $-1 $-1 $151 $80 #
plane-surface $-1 0 34.346783325490755 0 0 -1 0 0 0 -1 forward_v I I I I #
coedge $-1 $208 $149 $152 $209 forward $81 $-1 #
coedge $-1 $155 $83 $84 $143 reversed $50 $-1 #
coedge $-1 $149 $208 $83 $141 reversed $81 $-1 #
edge $-1 $156 -12.880960933112373 $210 12.880960933112373 $140 $211 forward 7 unknown #
coedge $-1 $85 $84 $208 $212 forward $33 $-1 #
edge $-1 $147 -67.610705893124177 $210 67.610705893124177 $139 $213 forward 7 unknown #
coedge $-1 $152 $151 $85 $145 reversed $136 $-1 #
edge $-1 $214 -67.610705893124177 $146 67.610705893124177 $144 $215 forward 7 unknown #
vertex $-1 $87 $216 #
vertex $-1 $158 $217 #
straight-curve $-1 67.610705893124177 0 -12.880960933112373 0 -1 0 I I #
coedge $-1 $138 $140 $88 $150 reversed $81 $-1 #
edge $-1 $153 -34.346783325490755 $156 34.346783325490755 $149 $218 forward 7 unknown #
coedge $-1 $144 $89 $94 $159 forward $136 $-1 #
coedge $-1 $89 $144 $138 $209 reversed $136 $-1 #
vertex $-1 $90 $219 #
straight-curve $-1 0 34.346783325490755 12.880960933112373 -1 0 0 I I #
coedge $-1 $91 $139 $93 $158 reversed $50 $-1 #
vertex $-1 $150 $220 #
straight-curve $-1 0 -34.346783325490755 12.880960933112373 1 0 0 I I #
edge $-1 $96 -12.880960933112373 $147 12.880960933112373 $93 $221 forward 7 unknown #
edge $-1 $97 -12.880960933112373 $146 12.880960933112373 $94 $222 forward 7 unknown #
point $-1 67.610705893124177 -34.346783325490755 12.880960933112373 #
point $-1 67.610705893124177 34.346783325490755 12.880960933112373 #
face $-1 $-1 $172 $13 $-1 $223 reversed single #
loop $-1 $-1 $168 $99 #
plane-surface $-1 0 0 -12.880960933112373 0 0 1 1 0 0 forward_v I I I I #
coedge $-1 $224 $225 $107 $176 forward $100 $-1 #
coedge $-1 $102 $180 $170 $226 forward $58 $-1 #
edge $-1 $174 -19.85261345387725 $112 -9.1357262893497584 $102 $227 forward 7 unknown #
coedge $-1 $228 $108 $103 $169 forward $163 $-1 #
edge $-1 $113 9.1357262893497584 $173 19.85261345387725 $168 $229 forward 7 unknown #
coedge $-1 $230 $105 $166 $226 reversed $172 $-1 #
coedge $-1 $105 $230 $228 $231 reversed $172 $-1 #
loop $-1 $-1 $105 $162 #
vertex $-1 $231 $232 #
vertex $-1 $106 $233 #
straight-curve $-1 -63.951266050406097 -34.346783325490755 0 0 0 1 I I #
edge $-1 $181 -12.880960933112373 $178 12.880960933112373 $165 $234 forward 7 unknown #
coedge $-1 $108 $228 $224 $235 forward $163 $-1 #
vertex $-1 $109 $236 #
straight-curve $-1 -32.890492985882567 -23.629896160963263 -12.880960933112373 1 0 0 I I #
coedge $-1 $166 $110 $225 $237 forward $58 $-1 #
vertex $-1 $237 $238 #
straight-curve $-1 -32.890492985882567 -23.629896160963263 12.880960933112373 -1 0 0 I I #
point $-1 -63.951266050406097 -23.629896160963263 12.880960933112373 #
point $-1 -63.951266050406097 -23.629896160963263 -12.880960933112373 #
plane-surface $-1 0 0 12.880960933112373 0 0 1 1 0 0 forward_v I I I I #
coedge $-1 $196 $195 $188 $239 forward $116 $-1 #
coedge $-1 $188 $118 $120 $192 reversed $66 $-1 #
coedge $-1 $118 $187 $186 $239 reversed $66 $-1 #
coedge $-1 $126 $121 $118 $190 forward $127 $-1 #
edge $-1 $193 -15.192137370605614 $240 -6.3477543901764548 $189 $241 forward 7 unknown #
coedge $-1 $120 $119 $196 $242 reversed $41 $-1 #
edge $-1 $243 -68.693566650981566 $193 -56.185720144113915 $187 $244 forward 7 unknown #
vertex $-1 $122 $245 #
straight-curve $-1 7.8124979617673276 25.502400345061606 12.880960933112373 1 0 0 I I #
coedge $-1 $186 $123 $126 $200 reversed $116 $-1 #
coedge $-1 $123 $186 $191 $242 forward $116 $-1 #
vertex $-1 $124 $246 #
straight-curve $-1 2.039921716871234 34.346783325490755 74.113120620055824 0 0 1 I I #
straight-curve $-1 2.039921716871234 -14.226902913729646 52.610265113826216 0 0.70710677298230451 -0.70710678939079041 I I #
edge $-1 $240 -29.210070130198076 $128 -2.039921716871234 $195 $247 forward 7 unknown #
point $-1 2.039921716871234 34.346783325490755 12.880960933112373 #
point $-1 2.039921716871234 25.502400345061595 12.880960933112377 #
edge $-1 $248 1 $248 0 $131 $-1 forward 7 unknown #
vertex $-1 $132 $249 #
ellipse-curve $-1 15.624995923534655 26.97259848379684 5.506776057302357 0 0.70710678939079041 0.70710677298230451 3 0 0 1 I I #
point $-1 18.624995923534655 29.924591835276189 8.4587693402803943 #
plane-surface $-1 67.610705893124177 0 0 -1 0 0 0 0 1 forward_v I I I I #
coedge $-1 $140 $138 $142 $212 reversed $81 $-1 #
edge $-1 $153 -12.880960933112373 $214 12.880960933112373 $152 $250 forward 7 unknown #
vertex $-1 $212 $251 #
straight-curve $-1 -67.610705893124177 -34.346783325490755 0 0 0 -1 I I #
edge $-1 $210 -34.346783325490755 $214 34.346783325490755 $208 $252 forward 7 unknown #
straight-curve $-1 0 -34.346783325490755 -12.880960933112373 -1 0 0 I I #
vertex $-1 $145 $253 #
straight-curve $-1 0 34.346783325490755 -12.880960933112373 1 0 0 I I #
point $-1 67.610705893124177 34.346783325490755 -12.880960933112373 #
point $-1 67.610705893124177 -34.346783325490755 -12.880960933112373 #
straight-curve $-1 -67.610705893124177 0 12.880960933112373 0 -1 0 I I #
point $-1 -67.610705893124177 34.346783325490755 12.880960933112373 #
point $-1 -67.610705893124177 -34.346783325490755 12.880960933112373 #
straight-curve $-1 67.610705893124177 -34.346783325490755 0 0 0 -1 I I #
straight-curve $-1 67.610705893124177 34.346783325490755 0 0 0 -1 I I #
plane-surface $-1 0 -34.346783325490755 0 0 1 0 0 0 1 forward_v I I I I #
coedge $-1 $254 $165 $177 $235 reversed $100 $-1 #
coedge $-1 $165 $254 $180 $237 reversed $100 $-1 #
edge $-1 $255 -67.610705893124177 $174 -63.951266050406097 $170 $256 forward 7 unknown #
straight-curve $-1 -63.951266050406097 -14.494169871613504 12.880960933112373 0 1 0 I I #
coedge $-1 $177 $168 $171 $231 forward $163 $-1 #
straight-curve $-1 -63.951266050406097 -14.494169871613504 -12.880960933112373 0 -1 0 I I #
coedge $-1 $171 $170 $254 $257 forward $172 $-1 #
edge $-1 $173 63.951266050406097 $258 67.610705893124177 $171 $259 forward 7 unknown #
point $-1 -63.951266050406097 -34.346783325490755 -12.880960933112373 #
point $-1 -63.951266050406097 -34.346783325490755 12.880960933112373 #
straight-curve $-1 -67.610705893124177 -23.629896160963263 0 0 0 -1 I I #
edge $-1 $258 -34.346783325490755 $178 -23.629896160963263 $224 $260 forward 7 unknown #
point $-1 -67.610705893124177 -23.629896160963263 -12.880960933112373 #
edge $-1 $181 23.629896160963263 $255 34.346783325490755 $225 $261 forward 7 unknown #
point $-1 -67.610705893124177 -23.629896160963263 12.880960933112373 #
edge $-1 $240 61.232159686943447 $243 70.076542872607433 $186 $262 forward 7 unknown #
vertex $-1 $200 $263 #
straight-curve $-1 29.210070130198076 40.694537715667209 12.880960933112377 0 1 0 I I #
edge $-1 $243 -21.397572168430749 $197 5.7725762448960936 $196 $264 forward 7 unknown #
vertex $-1 $242 $265 #
straight-curve $-1 29.210070130198076 -14.226902913729646 52.610265113826216 0 -0.70710677298230451 0.70710678939079041 I I #
point $-1 29.210070130198076 25.502400345061595 12.880960933112377 #
point $-1 2.039921716871234 34.346783325490755 4.0365777474483906 #
straight-curve $-1 0 34.346783325490755 12.880960933112373 -1 0 0 I I #
vertex $-1 $203 $266 #
point $-1 18.624995923534655 26.97259848379684 5.506776057302357 #
straight-curve $-1 -67.610705893124177 34.346783325490755 0 0 0 -1 I I #
point $-1 -67.610705893124177 -34.346783325490755 -12.880960933112373 #
straight-curve $-1 -67.610705893124177 0 -12.880960933112373 0 1 0 I I #
point $-1 -67.610705893124177 34.346783325490755 -12.880960933112373 #
coedge $-1 $225 $224 $230 $257 reversed $100 $-1 #
vertex $-1 $237 $267 #
straight-curve $-1 0 -34.346783325490755 12.880960933112373 1 0 0 I I #
edge $-1 $255 -12.880960933112373 $258 12.880960933112373 $254 $268 forward 7 unknown #
vertex $-1 $235 $269 #
straight-curve $-1 0 -34.346783325490755 -12.880960933112373 -1 0 0 I I #
straight-curve $-1 -67.610705893124177 0 -12.880960933112373 0 1 0 I I #
straight-curve $-1 -67.610705893124177 0 12.880960933112373 0 -1 0 I I #
straight-curve $-1 29.210070130198076 34.346783325490755 74.113120620055824 0 0 -1 I I #
point $-1 29.210070130198076 34.346783325490755 12.880960933112373 #
straight-curve $-1 7.8124979617673276 34.346783325490755 4.0365777474483941 -1 0 0 I I #
point $-1 29.210070130198076 34.346783325490755 4.0365777474483906 #
point $-1 15.624995923534655 24.851278115624471 3.3854557383554429 #
point $-1 -67.610705893124177 -34.346783325490755 12.880960933112373 #
straight-curve $-1 -67.610705893124177 -34.346783325490755 0 0 0 -1 I I #
point $-1 -67.610705893124177 -34.346783325490755 -12.880960933112373 #
End-of-ACIS-data 