500 0 8 0           
7 Unknown 11 ACIS 5.0 NT 24 Fri Mar 26 16:55:16 1999 
-1 9.9999999999999995e-007 1e-010 
body $-1 $8 $-1 $9 #
body $-1 $10 $-1 $11 #
body $-1 $12 $-1 $13 #
body $-1 $14 $-1 $15 #
body $-1 $16 $-1 $17 #
body $-1 $18 $-1 $19 #
body $-1 $20 $-1 $21 #
body $-1 $22 $-1 $23 #
lump $-1 $-1 $24 $0 #
transform $-1 1 0 0 0 1 0 0 0 1 61.272621845149082 36.698124888925435 15.650713730973902 1 rotate no_reflect no_shear #
lump $-1 $-1 $25 $1 #
transform $-1 1 0 0 0 1 0 0 0 1 61.272621845149082 36.698124888925435 15.650713730973902 1 rotate no_reflect no_shear #
lump $-1 $-1 $26 $2 #
transform $-1 1 0 0 0 1 0 0 0 1 61.272621845149082 36.698124888925435 15.650713730973902 1 rotate no_reflect no_shear #
lump $-1 $-1 $27 $3 #
transform $-1 1 0 0 0 1 0 0 0 1 61.272621845149082 36.698124888925435 15.650713730973902 1 rotate no_reflect no_shear #
lump $-1 $-1 $28 $4 #
transform $-1 1 0 0 0 1 0 0 0 1 61.272621845149082 36.698124888925435 15.650713730973902 1 rotate no_reflect no_shear #
lump $-1 $-1 $29 $5 #
transform $-1 1 0 0 0 1 0 0 0 1 61.272621845149082 36.698124888925435 15.650713730973902 1 rotate no_reflect no_shear #
lump $-1 $-1 $30 $6 #
transform $-1 1 0 0 0 1 0 0 0 1 61.272621845149082 36.698124888925435 15.650713730973902 1 rotate no_reflect no_shear #
lump $-1 $-1 $31 $7 #
transform $-1 1 0 0 0 1 0 0 0 1 61.272621845149082 36.698124888925435 15.650713730973902 1 rotate no_reflect no_shear #
shell $-1 $-1 $-1 $32 $-1 $8 #
shell $-1 $-1 $-1 $33 $-1 $10 #
shell $-1 $-1 $-1 $34 $-1 $12 #
shell $-1 $-1 $-1 $35 $-1 $14 #
shell $-1 $-1 $-1 $36 $-1 $16 #
shell $-1 $-1 $-1 $37 $-1 $18 #
shell $-1 $-1 $-1 $38 $-1 $20 #
shell $-1 $-1 $-1 $39 $-1 $22 #
face $-1 $40 $41 $24 $-1 $42 forward single #
face $-1 $43 $44 $25 $-1 $45 reversed single #
face $-1 $46 $47 $26 $-1 $48 reversed single #
face $-1 $49 $50 $27 $-1 $51 forward single #
face $-1 $52 $53 $28 $-1 $54 forward single #
face $-1 $55 $56 $29 $-1 $57 reversed single #
face $-1 $58 $59 $30 $-1 $60 forward single #
face $-1 $61 $62 $31 $-1 $63 forward single #
face $-1 $64 $65 $24 $-1 $66 reversed single #
loop $-1 $-1 $67 $32 #
plane-surface $-1 0 0 15.650713730973902 0 0 1 1 0 0 forward_v I I I I #
face $-1 $68 $69 $25 $-1 $70 reversed single #
loop $-1 $-1 $71 $33 #
plane-surface $-1 -37.83547861979558 -29.260666141520655 0 1 0 0 0 0 -1 forward_v I I I I #
face $-1 $72 $73 $26 $-1 $74 reversed single #
loop $-1 $-1 $75 $34 #
plane-surface $-1 52.20253320087874 -1.3164008914051166 184.35162430024491 0 -1 0 -0.66913061440640931 0 -0.74314481823134659 forward_v I I I I #
face $-1 $76 $77 $27 $-1 $78 forward single #
loop $-1 $79 $80 $35 #
cone-surface $-1 58.513186051355923 -6.616081945335079 13.095778081286182 -0.66913061440640931 0 -0.74314481823134659 0.3715724091156733 0 -0.33456530720320465 1 I I 0 1 0.5 forward I I I I #
face $-1 $81 $82 $28 $-1 $83 forward single #
loop $-1 $84 $85 $36 #
cone-surface $-1 58.513186051355923 -3.4362733129771001 13.095778081286182 -0.66913061440640931 0 -0.74314481823134659 0.3715724091156733 0 -0.33456530720320465 1 I I 0 1 0.5 forward I I I I #
face $-1 $86 $87 $29 $-1 $88 reversed single #
loop $-1 $-1 $89 $37 #
plane-surface $-1 -128.01554598878013 23.48785128565541 111.59086044117416 0 1 0 -0.54463904215088732 0 0.83867056331134215 forward_v I I I I #
face $-1 $90 $91 $30 $-1 $92 forward single #
loop $-1 $93 $94 $38 #
cone-surface $-1 -55.267808943564866 27.262215172303989 11.090094415380275 0.54463904215088732 0 -0.83867056331134215 0.83867056331134215 0 0.54463904215088732 1 I I 0 1 1 forward I I I I #
face $-1 $95 $96 $31 $-1 $97 forward single #
loop $-1 $98 $99 $39 #
cone-surface $-1 -55.267808943564866 32.923761002276862 11.090094415380275 0.54463904215088732 0 -0.83867056331134215 0.83867056331134215 0 0.54463904215088732 1 I I 0 1 1 forward I I I I #
face $-1 $100 $101 $24 $-1 $102 reversed single #
loop $-1 $-1 $103 $40 #
plane-surface $-1 0 0 -15.650713730973902 0 0 1 1 0 0 forward_v I I I I #
coedge $-1 $104 $105 $106 $107 forward $41 $-1 #
face $-1 $108 $109 $25 $-1 $110 reversed single #
loop $-1 $-1 $111 $43 #
plane-surface $-1 -33.90333650149843 -21.823207394115876 0 0 -1 0 0 0 -1 forward_v I I I I #
coedge $-1 $112 $113 $114 $115 forward $44 $-1 #
face $-1 $116 $117 $26 $-1 $118 reversed single #
loop $-1 $-1 $119 $46 #
plane-surface $-1 -29.796241002193618 -5.0261776291560913 93.282761452902207 0.66913061440640931 0 0.74314481823134659 0.74314481823134659 0 -0.66913061440640931 forward_v I I I I #
coedge $-1 $120 $121 $122 $123 reversed $47 $-1 #
face $-1 $-1 $124 $27 $-1 $125 forward single #
loop $-1 $126 $127 $49 #
cone-surface $-1 58.011338090551114 -6.616081945335079 12.538419467612673 -0.66913061440640931 0 -0.74314481823134659 0.18578620455783665 0 -0.16728265360160233 1 I I -0.70710678118654746 0.70710678118654746 0.25 forward I I I I #
loop $-1 $-1 $128 $35 #
coedge $-1 $80 $80 $129 $130 reversed $50 $-1 #
face $-1 $-1 $131 $28 $-1 $132 forward single #
loop $-1 $133 $134 $52 #
cone-surface $-1 58.011338090551114 -3.4362733129771001 12.538419467612673 -0.66913061440640931 0 -0.74314481823134659 0.18578620455783665 0 -0.16728265360160233 1 I I -0.70710678118654746 0.70710678118654746 0.25 forward I I I I #
loop $-1 $-1 $135 $36 #
coedge $-1 $85 $85 $136 $137 reversed $53 $-1 #
face $-1 $138 $139 $29 $-1 $140 forward single #
loop $-1 $-1 $141 $55 #
plane-surface $-1 -61.272621845149075 30.092988087290422 8.8157718843061019 -0.54463904215088732 0 0.83867056331134215 0.83867056331134215 0 0.54463904215088732 forward_v I I I I #
coedge $-1 $142 $143 $144 $145 reversed $56 $-1 #
face $-1 $-1 $146 $30 $-1 $147 forward single #
loop $-1 $148 $149 $58 #
cone-surface $-1 -54.253120162575939 27.262215172303989 9.5276107414648763 0.54463904215088732 0 -0.83867056331134215 0.41933528165567108 0 0.27231952107544366 1 I I -0.70710678118654746 0.70710678118654746 0.5 forward I I I I #
loop $-1 $-1 $150 $38 #
coedge $-1 $94 $94 $151 $152 reversed $59 $-1 #
face $-1 $-1 $153 $31 $-1 $154 forward single #
loop $-1 $155 $156 $61 #
cone-surface $-1 -54.253120162575939 32.923761002276862 9.5276107414648763 0.54463904215088732 0 -0.83867056331134215 0.41933528165567108 0 0.27231952107544366 1 I I -0.70710678118654746 0.70710678118654746 0.5 forward I I I I #
loop $-1 $-1 $157 $39 #
coedge $-1 $99 $99 $158 $159 reversed $62 $-1 #
face $-1 $160 $161 $24 $-1 $162 reversed single #
loop $-1 $-1 $163 $64 #
plane-surface $-1 0 -36.698124888925435 0 0 1 0 0 0 1 forward_v I I I I #
coedge $-1 $164 $165 $166 $167 forward $65 $-1 #
coedge $-1 $168 $67 $169 $170 forward $41 $-1 #
coedge $-1 $67 $168 $171 $172 forward $41 $-1 #
coedge $-1 $173 $174 $67 $107 reversed $175 $-1 #
edge $-1 $176 -36.698124888925435 $177 36.698124888925435 $106 $178 forward 7 unknown #
face $-1 $179 $180 $25 $-1 $181 forward single #
loop $-1 $-1 $182 $68 #
plane-surface $-1 -29.971194383201283 -29.260666141520655 0 -1 0 0 0 0 1 forward_v I I I I #
coedge $-1 $183 $184 $185 $186 forward $69 $-1 #
coedge $-1 $187 $71 $188 $189 reversed $44 $-1 #
coedge $-1 $71 $187 $190 $191 reversed $44 $-1 #
coedge $-1 $184 $183 $71 $115 reversed $69 $-1 #
edge $-1 $192 -15.650713730973902 $193 15.650713730973902 $114 $194 forward 7 unknown #
face $-1 $195 $196 $26 $-1 $197 reversed single #
loop $-1 $-1 $198 $72 #
plane-surface $-1 52.20253320087874 -8.7359543669070661 184.35162430024491 0 1 0 0.66913061440640931 0 0.74314481823134659 forward_v I I I I #
coedge $-1 $199 $200 $201 $202 reversed $73 $-1 #
coedge $-1 $121 $75 $203 $204 reversed $47 $-1 #
coedge $-1 $75 $120 $199 $205 reversed $47 $-1 #
coedge $-1 $201 $206 $75 $123 forward $207 $-1 #
edge $-1 $208 -35.171355244709716 $209 -30.321614271529807 $122 $210 forward 7 unknown #
loop $-1 $-1 $129 $76 #
plane-surface $-1 -29.796241002193618 -5.0261776291560913 93.282761452902207 0.66913061440640931 0 0.74314481823134659 0.74314481823134659 0 -0.66913061440640931 forward_v I I I I #
loop $-1 $-1 $211 $49 #
coedge $-1 $127 $127 $128 $212 reversed $77 $-1 #
coedge $-1 $128 $128 $127 $212 forward $79 $-1 #
coedge $-1 $129 $129 $80 $130 forward $124 $-1 #
edge $-1 $213 0 $213 6.2831853071796004 $129 $214 forward 7 unknown #
loop $-1 $-1 $136 $81 #
plane-surface $-1 -29.796241002193618 -5.0261776291560913 93.282761452902207 0.66913061440640931 0 0.74314481823134659 0.74314481823134659 0 -0.66913061440640931 forward_v I I I I #
loop $-1 $-1 $215 $52 #
coedge $-1 $134 $134 $135 $216 reversed $82 $-1 #
coedge $-1 $135 $135 $134 $216 forward $84 $-1 #
coedge $-1 $136 $136 $85 $137 forward $131 $-1 #
edge $-1 $217 0 $217 6.2831853071796004 $136 $218 forward 7 unknown #
face $-1 $219 $220 $29 $-1 $221 reversed single #
loop $-1 $-1 $144 $86 #
plane-surface $-1 0 0 15.650713730973902 0 0 1 1 0 0 forward_v I I I I #
coedge $-1 $222 $223 $224 $225 reversed $87 $-1 #
coedge $-1 $143 $89 $226 $227 reversed $56 $-1 #
coedge $-1 $89 $142 $222 $228 reversed $56 $-1 #
coedge $-1 $224 $229 $89 $145 forward $139 $-1 #
edge $-1 $230 2.7351511492409841 $231 13.260038432582455 $144 $232 forward 7 unknown #
loop $-1 $-1 $151 $90 #
plane-surface $-1 -61.272621845149075 30.092988087290422 8.8157718843061019 -0.54463904215088732 0 0.83867056331134215 0.83867056331134215 0 0.54463904215088732 forward_v I I I I #
loop $-1 $-1 $233 $58 #
coedge $-1 $149 $149 $150 $234 reversed $91 $-1 #
coedge $-1 $150 $150 $149 $234 forward $93 $-1 #
coedge $-1 $151 $151 $94 $152 forward $146 $-1 #
edge $-1 $235 0 $235 6.2831853071796004 $151 $236 forward 7 unknown #
loop $-1 $-1 $158 $95 #
plane-surface $-1 -61.272621845149075 30.092988087290422 8.8157718843061019 -0.54463904215088732 0 0.83867056331134215 0.83867056331134215 0 0.54463904215088732 forward_v I I I I #
loop $-1 $-1 $237 $61 #
coedge $-1 $156 $156 $157 $238 reversed $96 $-1 #
coedge $-1 $157 $157 $156 $238 forward $98 $-1 #
coedge $-1 $158 $158 $99 $159 forward $153 $-1 #
edge $-1 $239 0 $239 6.2831853071796004 $158 $240 forward 7 unknown #
face $-1 $241 $242 $24 $-1 $243 reversed single #
loop $-1 $-1 $244 $100 #
plane-surface $-1 -61.272621845149082 0 0 1 0 0 0 0 -1 forward_v I I I I #
coedge $-1 $245 $171 $246 $247 forward $101 $-1 #
coedge $-1 $248 $103 $245 $249 forward $65 $-1 #
coedge $-1 $103 $248 $250 $251 forward $65 $-1 #
coedge $-1 $174 $173 $103 $167 reversed $175 $-1 #
edge $-1 $252 -36.698124888925435 $253 36.698124888925435 $166 $254 forward 7 unknown #
coedge $-1 $105 $104 $255 $256 forward $41 $-1 #
coedge $-1 $257 $258 $104 $170 reversed $242 $-1 #
edge $-1 $177 -61.272621845149082 $259 61.272621845149082 $169 $260 forward 7 unknown #
coedge $-1 $163 $261 $105 $172 reversed $101 $-1 #
edge $-1 $262 -61.272621845149082 $176 61.272621845149082 $171 $263 forward 7 unknown #
coedge $-1 $166 $106 $261 $264 forward $175 $-1 #
coedge $-1 $106 $166 $257 $265 reversed $175 $-1 #
loop $-1 $-1 $173 $241 #
vertex $-1 $107 $266 #
vertex $-1 $107 $267 #
straight-curve $-1 61.272621845149082 0 15.650713730973902 0 1 0 I I #
face $-1 $268 $269 $25 $-1 $270 reversed single #
loop $-1 $-1 $271 $108 #
plane-surface $-1 0 0 15.650713730973902 0 0 1 1 0 0 forward_v I I I I #
coedge $-1 $272 $273 $274 $275 reversed $109 $-1 #
coedge $-1 $114 $111 $276 $277 reversed $69 $-1 #
coedge $-1 $111 $114 $278 $279 reversed $69 $-1 #
coedge $-1 $273 $272 $111 $186 reversed $109 $-1 #
edge $-1 $280 -15.650713730973902 $281 15.650713730973902 $185 $282 forward 7 unknown #
coedge $-1 $113 $112 $283 $284 reversed $44 $-1 #
coedge $-1 $276 $285 $112 $189 forward $269 $-1 #
edge $-1 $286 -22.067791818165105 $193 -7.1928743233555483 $188 $287 forward 7 unknown #
coedge $-1 $288 $278 $113 $191 forward $180 $-1 #
edge $-1 $192 7.1928743233555483 $289 22.067791818165105 $190 $290 forward 7 unknown #
vertex $-1 $191 $291 #
vertex $-1 $189 $292 #
straight-curve $-1 -37.83547861979558 -21.823207394115876 0 0 0 -1 I I #
face $-1 $-1 $207 $26 $-1 $293 forward single #
loop $-1 $-1 $294 $116 #
plane-surface $-1 61.272621845149082 0 0 -1 0 0 0 0 1 forward_v I I I I #
coedge $-1 $295 $296 $297 $298 reversed $117 $-1 #
coedge $-1 $299 $119 $121 $205 forward $73 $-1 #
coedge $-1 $119 $299 $295 $300 forward $73 $-1 #
coedge $-1 $297 $122 $119 $202 forward $207 $-1 #
edge $-1 $209 -1.196687923172929 $301 6.2228655523290204 $201 $302 forward 7 unknown #
coedge $-1 $303 $304 $120 $204 forward $196 $-1 #
edge $-1 $305 -80.891824900292605 $208 -76.525098419148549 $203 $306 forward 7 unknown #
edge $-1 $209 116.01927344304259 $305 122.54524369029816 $121 $307 forward 7 unknown #
coedge $-1 $122 $297 $303 $308 forward $207 $-1 #
loop $-1 $-1 $297 $195 #
vertex $-1 $204 $309 #
vertex $-1 $123 $310 #
straight-curve $-1 26.10126660043937 -1.3164008914051166 15.650713730973905 -1 0 0 I I #
coedge $-1 $211 $211 $-1 $311 reversed $126 $-1 #
edge $-1 $312 0 $312 6.2831853071796004 $127 $313 forward 7 unknown #
vertex $-1 $130 $314 #
ellipse-curve $-1 58.847751358559137 -6.616081945335079 13.467350490401866 0.66913061440640931 0 0.74314481823134659 0.3715724091156733 0 -0.33456530720320465 1 I I #
coedge $-1 $215 $215 $-1 $315 reversed $133 $-1 #
edge $-1 $316 0 $316 6.2831853071796004 $134 $317 forward 7 unknown #
vertex $-1 $137 $318 #
ellipse-curve $-1 58.847751358559137 -3.4362733129771001 13.467350490401866 0.66913061440640931 0 0.74314481823134659 0.3715724091156733 0 -0.33456530720320465 1 I I #
face $-1 $-1 $319 $29 $-1 $320 reversed single #
loop $-1 $-1 $321 $138 #
plane-surface $-1 0 36.698124888925435 0 0 -1 0 0 0 -1 forward_v I I I I #
coedge $-1 $322 $141 $143 $228 forward $87 $-1 #
coedge $-1 $141 $322 $321 $323 reversed $87 $-1 #
coedge $-1 $324 $144 $141 $225 forward $139 $-1 #
edge $-1 $231 8.4413572420101985 $325 21.651630845280224 $224 $326 forward 7 unknown #
coedge $-1 $327 $328 $142 $227 forward $319 $-1 #
edge $-1 $329 -46.979658336280984 $230 -40.144716489613174 $226 $330 forward 7 unknown #
edge $-1 $231 -12.549489327234536 $329 8.8615326271544428e-015 $143 $331 forward 7 unknown #
coedge $-1 $144 $324 $327 $332 forward $139 $-1 #
vertex $-1 $227 $333 #
vertex $-1 $145 $334 #
straight-curve $-1 -64.007772994390066 23.48785128565541 15.650713730973905 1 0 0 I I #
coedge $-1 $233 $233 $-1 $335 reversed $148 $-1 #
edge $-1 $336 0 $336 6.2831853071796004 $149 $337 forward 7 unknown #
vertex $-1 $152 $338 #
ellipse-curve $-1 -56.010178203478347 27.262215172303989 12.23324280764 -0.54463904215088732 0 0.83867056331134215 0.83867056331134215 0 0.54463904215088732 1 I I #
coedge $-1 $237 $237 $-1 $339 reversed $155 $-1 #
edge $-1 $340 0 $340 6.2831853071796004 $156 $341 forward 7 unknown #
vertex $-1 $159 $342 #
ellipse-curve $-1 -56.010178203478347 32.923761002276862 12.23324280764 -0.54463904215088732 0 0.83867056331134215 0.83867056331134215 0 0.54463904215088732 1 I I #
face $-1 $-1 $175 $24 $-1 $343 reversed single #
loop $-1 $-1 $257 $160 #
plane-surface $-1 0 36.698124888925435 0 0 -1 0 0 0 -1 forward_v I I I I #
coedge $-1 $344 $255 $258 $345 forward $161 $-1 #
coedge $-1 $261 $163 $164 $249 reversed $101 $-1 #
coedge $-1 $255 $344 $163 $247 reversed $161 $-1 #
edge $-1 $262 -15.650713730973902 $346 15.650713730973902 $246 $347 forward 7 unknown #
coedge $-1 $165 $164 $344 $348 forward $65 $-1 #
edge $-1 $253 -61.272621845149082 $346 61.272621845149082 $245 $349 forward 7 unknown #
coedge $-1 $258 $257 $165 $251 reversed $242 $-1 #
edge $-1 $350 -61.272621845149082 $252 61.272621845149082 $250 $351 forward 7 unknown #
vertex $-1 $167 $352 #
vertex $-1 $264 $353 #
straight-curve $-1 61.272621845149082 0 -15.650713730973902 0 -1 0 I I #
coedge $-1 $244 $246 $168 $256 reversed $161 $-1 #
edge $-1 $259 -36.698124888925435 $262 36.698124888925435 $255 $354 forward 7 unknown #
coedge $-1 $250 $169 $174 $265 forward $242 $-1 #
coedge $-1 $169 $250 $244 $345 reversed $242 $-1 #
vertex $-1 $170 $355 #
straight-curve $-1 0 36.698124888925435 15.650713730973902 -1 0 0 I I #
coedge $-1 $171 $245 $173 $264 reversed $101 $-1 #
vertex $-1 $256 $356 #
straight-curve $-1 0 -36.698124888925435 15.650713730973902 1 0 0 I I #
edge $-1 $176 -15.650713730973902 $253 15.650713730973902 $173 $357 forward 7 unknown #
edge $-1 $177 -15.650713730973902 $252 15.650713730973902 $174 $358 forward 7 unknown #
point $-1 61.272621845149082 -36.698124888925435 15.650713730973902 #
point $-1 61.272621845149082 36.698124888925435 15.650713730973902 #
face $-1 $-1 $359 $25 $-1 $360 reversed single #
loop $-1 $-1 $361 $179 #
plane-surface $-1 0 0 -15.650713730973902 0 0 1 1 0 0 forward_v I I I I #
coedge $-1 $278 $288 $273 $362 forward $180 $-1 #
coedge $-1 $185 $182 $361 $363 reversed $109 $-1 #
coedge $-1 $182 $185 $271 $362 reversed $109 $-1 #
coedge $-1 $364 $365 $182 $275 forward $359 $-1 #
edge $-1 $366 -15.650713730973902 $367 15.650713730973902 $274 $368 forward 7 unknown #
coedge $-1 $361 $188 $183 $277 forward $269 $-1 #
edge $-1 $193 -20.883810369046365 $281 -13.019526132452068 $276 $369 forward 7 unknown #
coedge $-1 $190 $271 $184 $279 forward $180 $-1 #
edge $-1 $280 13.019526132452068 $192 20.883810369046365 $278 $370 forward 7 unknown #
vertex $-1 $279 $371 #
vertex $-1 $277 $372 #
straight-curve $-1 -29.971194383201283 -21.823207394115876 0 0 0 -1 I I #
coedge $-1 $365 $364 $187 $284 forward $359 $-1 #
edge $-1 $289 -15.650713730973902 $286 15.650713730973902 $283 $373 forward 7 unknown #
coedge $-1 $188 $361 $365 $374 forward $269 $-1 #
vertex $-1 $189 $375 #
straight-curve $-1 -37.83547861979558 -14.630333070760328 -15.650713730973902 0 1 0 I I #
coedge $-1 $271 $190 $364 $376 forward $180 $-1 #
vertex $-1 $376 $377 #
straight-curve $-1 -37.83547861979558 -14.630333070760328 15.650713730973902 0 -1 0 I I #
point $-1 -37.83547861979558 -21.823207394115876 15.650713730973902 #
point $-1 -37.83547861979558 -21.823207394115876 -15.650713730973902 #
plane-surface $-1 0 0 15.650713730973902 0 0 1 1 0 0 forward_v I I I I #
coedge $-1 $304 $303 $296 $378 forward $196 $-1 #
coedge $-1 $296 $198 $200 $300 reversed $117 $-1 #
coedge $-1 $198 $295 $294 $378 reversed $117 $-1 #
coedge $-1 $206 $201 $198 $298 forward $207 $-1 #
edge $-1 $301 30.321614271529807 $379 35.171355244709716 $297 $380 forward 7 unknown #
coedge $-1 $200 $199 $304 $381 reversed $73 $-1 #
edge $-1 $382 -122.54524369029816 $301 -116.01927344304259 $295 $383 forward 7 unknown #
vertex $-1 $202 $384 #
straight-curve $-1 56.422880871969184 -2.5130888145780457 15.650713730973898 0 -1 0 I I #
coedge $-1 $294 $203 $206 $308 reversed $196 $-1 #
coedge $-1 $203 $294 $299 $381 forward $196 $-1 #
vertex $-1 $204 $385 #
straight-curve $-1 61.272621845149082 -1.3164008914051166 92.175812150122454 0 0 1 I I #
straight-curve $-1 -29.796241002193618 -1.3164008914051166 93.282761452902207 0.74314481823134659 0 -0.66913061440640931 I I #
edge $-1 $379 -8.7359543669070661 $208 -1.3164008914051166 $303 $386 forward 7 unknown #
point $-1 61.272621845149082 -1.3164008914051166 15.650713730973902 #
point $-1 56.422880871969177 -1.3164008914051166 15.650713730973905 #
edge $-1 $387 1 $387 0 $211 $-1 forward 7 unknown #
vertex $-1 $212 $388 #
ellipse-curve $-1 58.178620744152717 -6.616081945335079 12.724205672170509 0.66913061440640931 0 0.74314481823134659 0.3715724091156733 0 -0.33456530720320465 1 I I #
point $-1 59.219323767674801 -6.616081945335079 13.132785183198651 #
edge $-1 $389 1 $389 0 $215 $-1 forward 7 unknown #
vertex $-1 $216 $390 #
ellipse-curve $-1 58.178620744152717 -3.4362733129771001 12.724205672170509 0.66913061440640931 0 0.74314481823134659 0.3715724091156733 0 -0.33456530720320465 1 I I #
point $-1 59.219323767674801 -3.4362733129771001 13.132785183198651 #
loop $-1 $-1 $226 $219 #
plane-surface $-1 -61.272621845149082 0 0 1 0 0 0 0 -1 forward_v I I I I #
coedge $-1 $391 $392 $223 $323 forward $220 $-1 #
coedge $-1 $223 $222 $328 $393 reversed $87 $-1 #
edge $-1 $325 10.743576034537874 $394 23.293065361772417 $321 $395 forward 7 unknown #
coedge $-1 $229 $224 $392 $396 forward $139 $-1 #
vertex $-1 $396 $397 #
straight-curve $-1 -50.747734561807619 15.046494043645211 15.6507137309739 0 1 0 I I #
coedge $-1 $398 $226 $229 $332 reversed $319 $-1 #
coedge $-1 $226 $398 $322 $393 forward $319 $-1 #
vertex $-1 $227 $399 #
straight-curve $-1 -61.272621845149082 23.48785128565541 55.795430220587079 0 0 1 I I #
straight-curve $-1 -61.272621845149075 23.48785128565541 8.8157718843061019 -0.83867056331134215 0 -0.54463904215088732 I I #
edge $-1 $400 -36.698124888925435 $230 -23.48785128565541 $327 $401 forward 7 unknown #
point $-1 -61.272621845149082 23.48785128565541 15.650713730973902 #
point $-1 -50.747734561807611 23.48785128565541 15.650713730973902 #
edge $-1 $402 1 $402 0 $233 $-1 forward 7 unknown #
vertex $-1 $234 $403 #
ellipse-curve $-1 -54.525439683651385 27.262215172303989 9.9469460231205478 -0.54463904215088732 0 0.83867056331134215 0.83867056331134215 0 0.54463904215088732 1 I I #
point $-1 -55.171507640167007 27.262215172303989 12.777881849790889 #
edge $-1 $404 1 $404 0 $237 $-1 forward 7 unknown #
vertex $-1 $238 $405 #
ellipse-curve $-1 -54.525439683651385 32.923761002276862 9.9469460231205478 -0.54463904215088732 0 0.83867056331134215 0.83867056331134215 0 0.54463904215088732 1 I I #
point $-1 -55.171507640167007 32.923761002276862 12.777881849790889 #
plane-surface $-1 61.272621845149082 0 0 -1 0 0 0 0 1 forward_v I I I I #
coedge $-1 $246 $244 $248 $348 reversed $161 $-1 #
edge $-1 $259 -15.650713730973902 $350 15.650713730973902 $258 $406 forward 7 unknown #
vertex $-1 $348 $407 #
straight-curve $-1 -61.272621845149082 -36.698124888925435 0 0 0 -1 I I #
edge $-1 $346 -36.698124888925435 $350 36.698124888925435 $344 $408 forward 7 unknown #
straight-curve $-1 0 -36.698124888925435 -15.650713730973902 -1 0 0 I I #
vertex $-1 $251 $409 #
straight-curve $-1 0 36.698124888925435 -15.650713730973902 1 0 0 I I #
point $-1 61.272621845149082 36.698124888925435 -15.650713730973902 #
point $-1 61.272621845149082 -36.698124888925435 -15.650713730973902 #
straight-curve $-1 -61.272621845149082 0 15.650713730973902 0 -1 0 I I #
point $-1 -61.272621845149082 36.698124888925435 15.650713730973902 #
point $-1 -61.272621845149082 -36.698124888925435 15.650713730973902 #
straight-curve $-1 61.272621845149082 -36.698124888925435 0 0 0 -1 I I #
straight-curve $-1 61.272621845149082 36.698124888925435 0 0 0 -1 I I #
loop $-1 $-1 $274 $268 #
plane-surface $-1 0 -36.698124888925435 0 0 1 0 0 0 1 forward_v I I I I #
coedge $-1 $285 $276 $272 $363 forward $269 $-1 #
edge $-1 $367 -22.067791818165105 $280 -7.1928743233555483 $271 $410 forward 7 unknown #
edge $-1 $281 7.1928743233555483 $366 22.067791818165105 $361 $411 forward 7 unknown #
coedge $-1 $283 $274 $288 $376 reversed $359 $-1 #
coedge $-1 $274 $283 $285 $374 reversed $359 $-1 #
vertex $-1 $374 $412 #
vertex $-1 $275 $413 #
straight-curve $-1 -29.971194383201283 -36.698124888925435 0 0 0 1 I I #
straight-curve $-1 -16.951668250749215 -21.823207394115876 -15.650713730973902 1 0 0 I I #
straight-curve $-1 -16.951668250749215 -21.823207394115876 15.650713730973902 -1 0 0 I I #
point $-1 -29.971194383201283 -21.823207394115876 15.650713730973902 #
point $-1 -29.971194383201283 -21.823207394115876 -15.650713730973902 #
straight-curve $-1 -37.83547861979558 -36.698124888925435 0 0 0 -1 I I #
edge $-1 $366 29.971194383201283 $286 37.83547861979558 $365 $414 forward 7 unknown #
point $-1 -37.83547861979558 -36.698124888925435 -15.650713730973902 #
edge $-1 $289 -37.83547861979558 $367 -29.971194383201283 $364 $415 forward 7 unknown #
point $-1 -37.83547861979558 -36.698124888925435 15.650713730973902 #
edge $-1 $379 76.525098419148549 $382 80.891824900292605 $294 $416 forward 7 unknown #
vertex $-1 $308 $417 #
straight-curve $-1 26.10126660043937 -8.7359543669070661 15.650713730973905 1 0 0 I I #
edge $-1 $382 -6.2228655523290204 $305 1.196687923172929 $304 $418 forward 7 unknown #
vertex $-1 $381 $419 #
straight-curve $-1 -29.796241002193618 -8.7359543669070661 93.282761452902207 -0.74314481823134659 0 0.66913061440640931 I I #
point $-1 56.422880871969177 -8.7359543669070661 15.650713730973905 #
point $-1 61.272621845149082 -1.3164008914051166 11.283987249829849 #
straight-curve $-1 61.272621845149082 0 15.650713730973902 0 1 0 I I #
vertex $-1 $311 $420 #
point $-1 58.550193153268388 -6.616081945335079 12.389640364967304 #
vertex $-1 $315 $421 #
point $-1 58.550193153268388 -3.4362733129771001 12.389640364967304 #
coedge $-1 $392 $321 $398 $422 reversed $220 $-1 #
coedge $-1 $321 $391 $324 $396 reversed $220 $-1 #
edge $-1 $394 -21.651630845280224 $329 -8.4413572420101985 $328 $423 forward 7 unknown #
vertex $-1 $323 $424 #
straight-curve $-1 -41.737413596943497 36.698124888925435 21.502084691699839 -0.83867056331134215 0 -0.54463904215088732 I I #
edge $-1 $325 50.747734561807611 $400 61.272621845149082 $392 $425 forward 7 unknown #
point $-1 -50.747734561807611 36.698124888925435 15.650713730973902 #
coedge $-1 $328 $327 $391 $422 forward $319 $-1 #
point $-1 -61.272621845149082 23.48785128565541 8.8157718843060966 #
vertex $-1 $396 $426 #
straight-curve $-1 -61.272621845149082 0 15.650713730973902 0 -1 0 I I #
vertex $-1 $335 $427 #
point $-1 -53.686769120340038 27.262215172303989 10.491585065271435 #
vertex $-1 $339 $428 #
point $-1 -53.686769120340038 32.923761002276862 10.491585065271435 #
straight-curve $-1 -61.272621845149082 36.698124888925435 0 0 0 -1 I I #
point $-1 -61.272621845149082 -36.698124888925435 -15.650713730973902 #
straight-curve $-1 -61.272621845149082 0 -15.650713730973902 0 1 0 I I #
point $-1 -61.272621845149082 36.698124888925435 -15.650713730973902 #
straight-curve $-1 -29.971194383201283 -14.630333070760328 15.650713730973902 0 1 0 I I #
straight-curve $-1 -29.971194383201283 -14.630333070760328 -15.650713730973902 0 -1 0 I I #
point $-1 -29.971194383201283 -36.698124888925435 -15.650713730973902 #
point $-1 -29.971194383201283 -36.698124888925435 15.650713730973902 #
straight-curve $-1 0 -36.698124888925435 -15.650713730973902 -1 0 0 I I #
straight-curve $-1 0 -36.698124888925435 15.650713730973902 1 0 0 I I #
straight-curve $-1 61.272621845149082 -8.7359543669070661 92.175812150122454 0 0 -1 I I #
point $-1 61.272621845149082 -8.7359543669070661 15.650713730973902 #
straight-curve $-1 61.272621845149082 -2.5130888145780457 11.283987249829849 0 1 0 I I #
point $-1 61.272621845149082 -8.7359543669070661 11.283987249829849 #
point $-1 57.84405543694951 -6.616081945335079 12.352633263054837 #
point $-1 57.84405543694951 -3.4362733129771001 12.352633263054837 #
edge $-1 $400 -15.650713730973902 $394 -8.8157718843060966 $391 $429 forward 7 unknown #
straight-curve $-1 -61.272621845149082 15.046494043645211 8.8157718843060966 0 -1 0 I I #
point $-1 -61.272621845149082 36.698124888925435 8.8157718843060966 #
straight-curve $-1 0 36.698124888925435 15.650713730973902 -1 0 0 I I #
point $-1 -61.272621845149082 36.698124888925435 15.650713730973902 #
point $-1 -53.980800641500494 27.262215172303989 9.1082754598092048 #
point $-1 -53.980800641500494 32.923761002276862 9.1082754598092048 #
straight-curve $-1 -61.272621845149082 36.698124888925435 0 0 0 -1 I I #
End-of-ACIS-data 