500 0 10 0           
7 Unknown 11 ACIS 5.0 NT 24 Fri Mar 26 18:56:22 1999 
-1 9.9999999999999995e-007 1e-010 
body $-1 $10 $-1 $11 #
body $-1 $12 $-1 $13 #
body $-1 $14 $-1 $15 #
body $-1 $16 $-1 $17 #
body $-1 $18 $-1 $19 #
body $-1 $20 $-1 $21 #
body $-1 $22 $-1 $23 #
body $-1 $24 $-1 $25 #
body $-1 $26 $-1 $27 #
body $-1 $28 $-1 $29 #
lump $-1 $-1 $30 $0 #
transform $-1 1 0 0 0 1 0 0 0 1 60.819727164525283 36.756520068778379 11.712011314252184 1 rotate no_reflect no_shear #
lump $-1 $-1 $31 $1 #
transform $-1 1 0 0 0 1 0 0 0 1 60.819727164525283 36.756520068778379 11.712011314252184 1 rotate no_reflect no_shear #
lump $-1 $-1 $32 $2 #
transform $-1 1 0 0 0 1 0 0 0 1 60.819727164525283 36.756520068778379 11.712011314252184 1 rotate no_reflect no_shear #
lump $-1 $-1 $33 $3 #
transform $-1 1 0 0 0 1 0 0 0 1 60.819727164525283 36.756520068778379 11.712011314252184 1 rotate no_reflect no_shear #
lump $-1 $-1 $34 $4 #
transform $-1 1 0 0 0 1 0 0 0 1 60.819727164525283 36.756520068778379 11.712011314252184 1 rotate no_reflect no_shear #
lump $-1 $-1 $35 $5 #
transform $-1 1 0 0 0 1 0 0 0 1 60.819727164525283 36.756520068778379 11.712011314252184 1 rotate no_reflect no_shear #
lump $-1 $-1 $36 $6 #
transform $-1 1 0 0 0 1 0 0 0 1 60.819727164525283 36.756520068778379 11.712011314252184 1 rotate no_reflect no_shear #
lump $-1 $-1 $37 $7 #
transform $-1 1 0 0 0 1 0 0 0 1 60.819727164525283 36.756520068778379 11.712011314252184 1 rotate no_reflect no_shear #
lump $-1 $-1 $38 $8 #
transform $-1 1 0 0 0 1 0 0 0 1 60.819727164525283 36.756520068778379 11.712011314252184 1 rotate no_reflect no_shear #
lump $-1 $-1 $39 $9 #
transform $-1 1 0 0 0 1 0 0 0 1 60.819727164525283 36.756520068778379 11.712011314252184 1 rotate no_reflect no_shear #
shell $-1 $-1 $-1 $40 $-1 $10 #
shell $-1 $-1 $-1 $41 $-1 $12 #
shell $-1 $-1 $-1 $42 $-1 $14 #
shell $-1 $-1 $-1 $43 $-1 $16 #
shell $-1 $-1 $-1 $44 $-1 $18 #
shell $-1 $-1 $-1 $45 $-1 $20 #
shell $-1 $-1 $-1 $46 $-1 $22 #
shell $-1 $-1 $-1 $47 $-1 $24 #
shell $-1 $-1 $-1 $48 $-1 $26 #
shell $-1 $-1 $-1 $49 $-1 $28 #
face $-1 $50 $51 $30 $-1 $52 forward single #
face $-1 $53 $54 $31 $-1 $55 forward single #
face $-1 $56 $57 $32 $-1 $58 reversed single #
face $-1 $59 $60 $33 $-1 $61 forward single #
face $-1 $62 $63 $34 $-1 $64 forward single #
face $-1 $65 $66 $35 $-1 $67 reversed single #
face $-1 $68 $69 $36 $-1 $70 forward single #
face $-1 $71 $72 $37 $-1 $73 forward single #
face $-1 $74 $75 $38 $-1 $76 reversed single #
face $-1 $77 $78 $39 $-1 $79 forward single #
face $-1 $80 $81 $30 $-1 $82 reversed single #
loop $-1 $-1 $83 $40 #
plane-surface $-1 0 0 11.712011314252184 0 0 1 1 0 0 forward_v I I I I #
face $-1 $84 $85 $31 $-1 $86 forward single #
loop $-1 $-1 $87 $41 #
plane-surface $-1 0 -36.756520068778379 0 0 1 0 0 0 1 forward_v I I I I #
face $-1 $88 $89 $32 $-1 $90 reversed single #
loop $-1 $-1 $91 $42 #
plane-surface $-1 -149.78119335631467 -13.108496689548337 84.049600718234998 0 1 0 -0.73135370988377701 0 0.68199835119979291 forward_v I I I I #
face $-1 $92 $93 $33 $-1 $94 forward single #
loop $-1 $95 $96 $43 #
cone-surface $-1 -55.239464643114715 -10.103932706956158 5.8158045906087761 0.73135370988377701 0 -0.68199835119979291 0.68199835119979291 0 0.73135370988377701 1 I I 0 1 1 forward I I I I #
face $-1 $97 $98 $34 $-1 $99 forward single #
loop $-1 $100 $101 $44 #
cone-surface $-1 -55.239464643114715 -5.59708673306789 5.8158045906087761 0.73135370988377701 0 -0.68199835119979291 0.68199835119979291 0 0.73135370988377701 1 I I 0 1 1 forward I I I I #
face $-1 $102 $103 $35 $-1 $104 reversed single #
loop $-1 $-1 $105 $45 #
plane-surface $-1 -149.78119335631467 17.881817745137376 84.049600718234998 0 1 0 -0.73135370988377701 0 0.68199835119979291 forward_v I I I I #
face $-1 $106 $107 $36 $-1 $108 forward single #
loop $-1 $109 $110 $46 #
cone-surface $-1 -55.239464643114715 20.886381727729557 5.8158045906087761 0.73135370988377701 0 -0.68199835119979291 0.68199835119979291 0 0.73135370988377701 1 I I 0 1 1 forward I I I I #
face $-1 $111 $112 $37 $-1 $113 forward single #
loop $-1 $114 $115 $47 #
cone-surface $-1 -55.239464643114715 25.393227701617825 5.8158045906087761 0.73135370988377701 0 -0.68199835119979291 0.68199835119979291 0 0.73135370988377701 1 I I 0 1 1 forward I I I I #
face $-1 $116 $117 $38 $-1 $118 reversed single #
loop $-1 $-1 $119 $48 #
plane-surface $-1 60.819729160444545 -1.1363080957576344 176.13782425666975 0 -1 0 -0.70710678939079041 0 -0.70710677298230451 forward_v I I I I #
face $-1 $120 $121 $39 $-1 $122 forward single #
loop $-1 $123 $124 $49 #
cone-surface $-1 55.505483722421893 -6.7417567110308099 6.3977678191458178 -0.70710678939079041 0 -0.70710677298230451 1.0606601594734568 0 -1.0606601840861856 1 I I 0 1 1.5 forward I I I I #
face $-1 $125 $126 $30 $-1 $127 reversed single #
loop $-1 $-1 $128 $50 #
plane-surface $-1 0 0 -11.712011314252184 0 0 1 1 0 0 forward_v I I I I #
coedge $-1 $129 $130 $131 $132 forward $51 $-1 #
face $-1 $133 $134 $31 $-1 $135 reversed single #
loop $-1 $-1 $136 $53 #
plane-surface $-1 0 0 11.712011314252184 0 0 1 1 0 0 forward_v I I I I #
coedge $-1 $137 $138 $139 $140 forward $54 $-1 #
face $-1 $141 $142 $32 $-1 $143 reversed single #
loop $-1 $-1 $144 $56 #
plane-surface $-1 -60.81972716452529 -7.8505097200120275 1.0916934249800079 -0.73135370988377701 0 0.68199835119979291 0.68199835119979291 0 0.73135370988377701 forward_v I I I I #
coedge $-1 $145 $146 $147 $148 reversed $57 $-1 #
face $-1 $-1 $149 $33 $-1 $150 forward single #
loop $-1 $151 $152 $59 #
cone-surface $-1 -54.245328472117116 -10.103932706956158 4.8887576360015679 0.73135370988377701 0 -0.68199835119979291 0.34099917559989645 0 0.36567685494188851 1 I I -0.70710678118654746 0.70710678118654746 0.5 forward I I I I #
loop $-1 $-1 $153 $43 #
coedge $-1 $96 $96 $154 $155 reversed $60 $-1 #
face $-1 $-1 $156 $34 $-1 $157 forward single #
loop $-1 $158 $159 $62 #
cone-surface $-1 -54.245328472117116 -5.59708673306789 4.8887576360015679 0.73135370988377701 0 -0.68199835119979291 0.34099917559989645 0 0.36567685494188851 1 I I -0.70710678118654746 0.70710678118654746 0.5 forward I I I I #
loop $-1 $-1 $160 $44 #
coedge $-1 $101 $101 $161 $162 reversed $63 $-1 #
face $-1 $163 $164 $35 $-1 $165 reversed single #
loop $-1 $-1 $166 $65 #
plane-surface $-1 -60.81972716452529 23.139804714673687 1.0916934249800079 -0.73135370988377701 0 0.68199835119979291 0.68199835119979291 0 0.73135370988377701 forward_v I I I I #
coedge $-1 $167 $168 $169 $170 reversed $66 $-1 #
face $-1 $-1 $171 $36 $-1 $172 forward single #
loop $-1 $173 $174 $68 #
cone-surface $-1 -54.245328472117116 20.886381727729557 4.8887576360015679 0.73135370988377701 0 -0.68199835119979291 0.34099917559989645 0 0.36567685494188851 1 I I -0.70710678118654746 0.70710678118654746 0.5 forward I I I I #
loop $-1 $-1 $175 $46 #
coedge $-1 $110 $110 $176 $177 reversed $69 $-1 #
face $-1 $-1 $178 $37 $-1 $179 forward single #
loop $-1 $180 $181 $71 #
cone-surface $-1 -54.245328472117116 25.393227701617825 4.8887576360015679 0.73135370988377701 0 -0.68199835119979291 0.34099917559989645 0 0.36567685494188851 1 I I -0.70710678118654746 0.70710678118654746 0.5 forward I I I I #
loop $-1 $-1 $182 $47 #
coedge $-1 $115 $115 $183 $184 reversed $72 $-1 #
face $-1 $185 $186 $38 $-1 $187 reversed single #
loop $-1 $-1 $188 $74 #
plane-surface $-1 -25.192354853418088 -6.7417567110308099 90.125742238726389 0.70710678939079041 0 0.70710677298230451 0.70710677298230451 0 -0.70710678939079041 forward_v I I I I #
coedge $-1 $189 $190 $191 $192 reversed $75 $-1 #
face $-1 $-1 $193 $39 $-1 $194 forward single #
loop $-1 $195 $196 $77 #
cone-surface $-1 53.460086644809358 -6.7417567110308099 4.3523707889969323 -0.70710678939079041 0 -0.70710677298230451 0.53033007973672841 0 -0.53033009204309278 1 I I -0.70710678118654757 0.70710678118654757 0.75 forward I I I I #
loop $-1 $-1 $197 $49 #
coedge $-1 $124 $124 $198 $199 reversed $78 $-1 #
face $-1 $200 $201 $30 $-1 $202 reversed single #
loop $-1 $-1 $203 $80 #
plane-surface $-1 0 -36.756520068778379 0 0 1 0 0 0 1 forward_v I I I I #
coedge $-1 $204 $205 $206 $207 forward $81 $-1 #
coedge $-1 $208 $83 $209 $210 forward $51 $-1 #
coedge $-1 $83 $208 $211 $212 forward $51 $-1 #
coedge $-1 $213 $214 $83 $132 reversed $215 $-1 #
edge $-1 $216 -36.756520068778379 $217 36.756520068778379 $131 $218 forward 7 unknown #
face $-1 $219 $220 $31 $-1 $221 reversed single #
loop $-1 $-1 $222 $84 #
plane-surface $-1 -60.819727164525283 0 0 1 0 0 0 0 -1 forward_v I I I I #
coedge $-1 $223 $224 $138 $225 forward $85 $-1 #
coedge $-1 $226 $87 $227 $228 reversed $54 $-1 #
coedge $-1 $87 $226 $136 $225 reversed $54 $-1 #
coedge $-1 $229 $230 $87 $140 reversed $231 $-1 #
edge $-1 $232 -11.712011314252184 $233 11.712011314252184 $139 $234 forward 7 unknown #
face $-1 $235 $236 $32 $-1 $237 reversed single #
loop $-1 $-1 $238 $88 #
plane-surface $-1 -149.78119335631467 -2.5925227504757178 84.049600718234998 0 -1 0 0.73135370988377701 0 -0.68199835119979291 forward_v I I I I #
coedge $-1 $239 $240 $241 $242 reversed $89 $-1 #
coedge $-1 $146 $91 $243 $244 reversed $57 $-1 #
coedge $-1 $91 $145 $239 $245 reversed $57 $-1 #
coedge $-1 $241 $246 $91 $148 forward $247 $-1 #
edge $-1 $248 14.070869513632054 $249 23.974475924341739 $147 $250 forward 7 unknown #
loop $-1 $-1 $154 $92 #
plane-surface $-1 -60.81972716452529 -7.8505097200120275 1.0916934249800079 -0.73135370988377701 0 0.68199835119979291 0.68199835119979291 0 0.73135370988377701 forward_v I I I I #
loop $-1 $-1 $251 $59 #
coedge $-1 $152 $152 $153 $252 reversed $93 $-1 #
coedge $-1 $153 $153 $152 $252 forward $95 $-1 #
coedge $-1 $154 $154 $96 $155 forward $149 $-1 #
edge $-1 $253 0 $253 6.2831853071796004 $154 $254 forward 7 unknown #
loop $-1 $-1 $161 $97 #
plane-surface $-1 -60.81972716452529 -7.8505097200120275 1.0916934249800079 -0.73135370988377701 0 0.68199835119979291 0.68199835119979291 0 0.73135370988377701 forward_v I I I I #
loop $-1 $-1 $255 $62 #
coedge $-1 $159 $159 $160 $256 reversed $98 $-1 #
coedge $-1 $160 $160 $159 $256 forward $100 $-1 #
coedge $-1 $161 $161 $101 $162 forward $156 $-1 #
edge $-1 $257 0 $257 6.2831853071796004 $161 $258 forward 7 unknown #
face $-1 $259 $260 $35 $-1 $261 forward single #
loop $-1 $-1 $262 $102 #
plane-surface $-1 -149.78119335631467 28.397791684209999 84.049600718234998 0 -1 0 0.73135370988377701 0 -0.68199835119979291 forward_v I I I I #
coedge $-1 $263 $264 $265 $266 reversed $103 $-1 #
coedge $-1 $168 $105 $267 $268 reversed $66 $-1 #
coedge $-1 $105 $167 $263 $269 reversed $66 $-1 #
coedge $-1 $265 $270 $105 $170 forward $260 $-1 #
edge $-1 $271 14.070869513632054 $272 23.974475924341739 $169 $273 forward 7 unknown #
loop $-1 $-1 $176 $106 #
plane-surface $-1 -60.81972716452529 23.139804714673687 1.0916934249800079 -0.73135370988377701 0 0.68199835119979291 0.68199835119979291 0 0.73135370988377701 forward_v I I I I #
loop $-1 $-1 $274 $68 #
coedge $-1 $174 $174 $175 $275 reversed $107 $-1 #
coedge $-1 $175 $175 $174 $275 forward $109 $-1 #
coedge $-1 $176 $176 $110 $177 forward $171 $-1 #
edge $-1 $276 0 $276 6.2831853071796004 $176 $277 forward 7 unknown #
loop $-1 $-1 $183 $111 #
plane-surface $-1 -60.81972716452529 23.139804714673687 1.0916934249800079 -0.73135370988377701 0 0.68199835119979291 0.68199835119979291 0 0.73135370988377701 forward_v I I I I #
loop $-1 $-1 $278 $71 #
coedge $-1 $181 $181 $182 $279 reversed $112 $-1 #
coedge $-1 $182 $182 $181 $279 forward $114 $-1 #
coedge $-1 $183 $183 $115 $184 forward $178 $-1 #
edge $-1 $280 0 $280 6.2831853071796004 $183 $281 forward 7 unknown #
face $-1 $282 $283 $38 $-1 $284 forward single #
loop $-1 $-1 $285 $116 #
plane-surface $-1 60.819729160444545 -12.347205326303985 176.13782425666975 0 1 0 0.70710678939079041 0 0.70710677298230451 forward_v I I I I #
coedge $-1 $286 $287 $288 $289 reversed $117 $-1 #
coedge $-1 $190 $119 $290 $291 reversed $75 $-1 #
coedge $-1 $119 $189 $286 $292 reversed $75 $-1 #
coedge $-1 $288 $293 $119 $192 forward $283 $-1 #
edge $-1 $294 -30.40986258430301 $295 -22.81150967123514 $191 $296 forward 7 unknown #
loop $-1 $-1 $198 $120 #
plane-surface $-1 -25.192354853418088 -6.7417567110308099 90.125742238726389 0.70710678939079041 0 0.70710677298230451 0.70710677298230451 0 -0.70710678939079041 forward_v I I I I #
loop $-1 $-1 $297 $77 #
coedge $-1 $196 $196 $197 $298 reversed $121 $-1 #
coedge $-1 $197 $197 $196 $298 forward $123 $-1 #
coedge $-1 $198 $198 $124 $199 forward $193 $-1 #
edge $-1 $299 0 $299 6.2831853071796004 $198 $300 forward 7 unknown #
face $-1 $301 $302 $30 $-1 $303 reversed single #
loop $-1 $-1 $304 $125 #
plane-surface $-1 -60.819727164525283 0 0 1 0 0 0 0 -1 forward_v I I I I #
coedge $-1 $305 $211 $306 $307 forward $126 $-1 #
coedge $-1 $308 $128 $305 $309 forward $81 $-1 #
coedge $-1 $128 $308 $310 $311 forward $81 $-1 #
coedge $-1 $214 $213 $128 $207 reversed $215 $-1 #
edge $-1 $312 -36.756520068778379 $313 36.756520068778379 $206 $314 forward 7 unknown #
coedge $-1 $130 $129 $315 $316 forward $51 $-1 #
coedge $-1 $317 $318 $129 $210 reversed $302 $-1 #
edge $-1 $217 -60.819727164525283 $319 60.819727164525283 $209 $320 forward 7 unknown #
coedge $-1 $203 $321 $130 $212 reversed $126 $-1 #
edge $-1 $322 -60.819727164525283 $216 60.819727164525283 $211 $323 forward 7 unknown #
coedge $-1 $206 $131 $321 $324 forward $215 $-1 #
coedge $-1 $131 $206 $317 $325 reversed $215 $-1 #
loop $-1 $-1 $213 $301 #
vertex $-1 $132 $326 #
vertex $-1 $132 $327 #
straight-curve $-1 60.819727164525283 0 11.712011314252184 0 1 0 I I #
face $-1 $328 $231 $31 $-1 $329 reversed single #
loop $-1 $-1 $330 $133 #
plane-surface $-1 -57.415998713881976 -52.045815063440045 0 0 1 0 0 0 1 forward_v I I I I #
coedge $-1 $331 $332 $226 $333 forward $134 $-1 #
coedge $-1 $334 $136 $332 $335 forward $85 $-1 #
coedge $-1 $136 $334 $229 $336 forward $85 $-1 #
edge $-1 $232 54.012270263238669 $337 60.819727164525283 $136 $338 forward 7 unknown #
coedge $-1 $138 $137 $222 $333 reversed $54 $-1 #
coedge $-1 $339 $340 $137 $228 forward $341 $-1 #
edge $-1 $342 -60.819727164525283 $233 -54.012270263238669 $227 $343 forward 7 unknown #
coedge $-1 $344 $139 $224 $336 reversed $231 $-1 #
coedge $-1 $139 $344 $339 $345 reversed $231 $-1 #
loop $-1 $-1 $344 $219 #
vertex $-1 $225 $346 #
vertex $-1 $345 $347 #
straight-curve $-1 -54.012270263238669 -36.756520068778379 0 0 0 -1 I I #
face $-1 $-1 $247 $32 $-1 $348 forward single #
loop $-1 $-1 $349 $141 #
plane-surface $-1 -60.819727164525283 0 0 1 0 0 0 0 -1 forward_v I I I I #
coedge $-1 $350 $351 $352 $353 reversed $142 $-1 #
coedge $-1 $354 $144 $146 $245 forward $89 $-1 #
coedge $-1 $144 $354 $350 $355 forward $89 $-1 #
coedge $-1 $352 $147 $144 $242 forward $247 $-1 #
edge $-1 $249 -9.1832418295423235 $356 1.332732109530296 $241 $357 forward 7 unknown #
coedge $-1 $358 $359 $145 $244 forward $236 $-1 #
edge $-1 $360 -40.933106934137484 $248 -30.312789044865315 $243 $361 forward 7 unknown #
edge $-1 $249 -14.521452131499959 $360 -1.0367256691888158e-014 $146 $362 forward 7 unknown #
coedge $-1 $147 $352 $358 $363 forward $247 $-1 #
loop $-1 $-1 $352 $235 #
vertex $-1 $244 $364 #
vertex $-1 $148 $365 #
straight-curve $-1 -74.890596678157337 -13.108496689548337 11.712011314252187 1 0 0 I I #
coedge $-1 $251 $251 $-1 $366 reversed $151 $-1 #
edge $-1 $367 0 $367 6.2831853071796004 $152 $368 forward 7 unknown #
vertex $-1 $155 $369 #
ellipse-curve $-1 -55.86792395917044 -10.103932706956158 6.4018523696161003 -0.73135370988377701 0 0.68199835119979291 0.68199835119979291 0 0.73135370988377701 1 I I #
coedge $-1 $255 $255 $-1 $370 reversed $158 $-1 #
edge $-1 $371 0 $371 6.2831853071796004 $159 $372 forward 7 unknown #
vertex $-1 $162 $373 #
ellipse-curve $-1 -55.86792395917044 -5.59708673306789 6.4018523696161003 -0.73135370988377701 0 0.68199835119979291 0.68199835119979291 0 0.73135370988377701 1 I I #
face $-1 $-1 $374 $35 $-1 $375 reversed single #
loop $-1 $-1 $169 $163 #
plane-surface $-1 0 0 11.712011314252184 0 0 1 1 0 0 forward_v I I I I #
coedge $-1 $376 $377 $378 $379 reversed $164 $-1 #
coedge $-1 $380 $166 $168 $269 forward $103 $-1 #
coedge $-1 $166 $380 $376 $381 forward $103 $-1 #
coedge $-1 $378 $169 $166 $266 forward $260 $-1 #
edge $-1 $272 6.3119153878005321 $382 16.827889326873155 $265 $383 forward 7 unknown #
coedge $-1 $384 $385 $167 $268 forward $374 $-1 #
edge $-1 $386 -40.933106934137484 $271 -30.312789044865315 $267 $387 forward 7 unknown #
edge $-1 $272 -14.521452131499959 $386 -1.0367256691888158e-014 $168 $388 forward 7 unknown #
coedge $-1 $169 $378 $384 $389 forward $260 $-1 #
vertex $-1 $268 $390 #
vertex $-1 $170 $391 #
straight-curve $-1 -74.890596678157337 17.881817745137376 11.712011314252187 1 0 0 I I #
coedge $-1 $274 $274 $-1 $392 reversed $173 $-1 #
edge $-1 $393 0 $393 6.2831853071796004 $174 $394 forward 7 unknown #
vertex $-1 $177 $395 #
ellipse-curve $-1 -55.86792395917044 20.886381727729557 6.4018523696161003 -0.73135370988377701 0 0.68199835119979291 0.68199835119979291 0 0.73135370988377701 1 I I #
coedge $-1 $278 $278 $-1 $396 reversed $180 $-1 #
edge $-1 $397 0 $397 6.2831853071796004 $181 $398 forward 7 unknown #
vertex $-1 $184 $399 #
ellipse-curve $-1 -55.86792395917044 25.393227701617825 6.4018523696161003 -0.73135370988377701 0 0.68199835119979291 0.68199835119979291 0 0.73135370988377701 1 I I #
face $-1 $-1 $400 $38 $-1 $401 reversed single #
loop $-1 $-1 $191 $185 #
plane-surface $-1 0 0 11.712011314252184 0 0 1 1 0 0 forward_v I I I I #
coedge $-1 $402 $403 $404 $405 reversed $186 $-1 #
coedge $-1 $406 $188 $190 $292 forward $117 $-1 #
coedge $-1 $188 $406 $402 $407 forward $117 $-1 #
coedge $-1 $404 $191 $188 $289 forward $283 $-1 #
edge $-1 $295 -2.2345702597577706 $408 8.9763269707885804 $288 $409 forward 7 unknown #
coedge $-1 $410 $411 $189 $291 forward $400 $-1 #
edge $-1 $412 -83.955253903471132 $294 -76.356900814082692 $290 $413 forward 7 unknown #
edge $-1 $295 110.89376046301545 $412 121.63945432905062 $190 $414 forward 7 unknown #
coedge $-1 $191 $404 $410 $415 forward $283 $-1 #
vertex $-1 $192 $416 #
vertex $-1 $192 $417 #
straight-curve $-1 30.409864580222273 -1.1363080957576344 11.71201131425218 -1 0 0 I I #
coedge $-1 $297 $297 $-1 $418 reversed $195 $-1 #
edge $-1 $419 0 $419 6.2831853071796004 $196 $420 forward 7 unknown #
vertex $-1 $199 $421 #
ellipse-curve $-1 57.02055070799134 -6.7417567110308099 7.9128347695579766 0.70710678939079041 0 0.70710677298230451 1.0606601594734568 0 -1.0606601840861856 1 I I #
face $-1 $-1 $215 $30 $-1 $422 reversed single #
loop $-1 $-1 $317 $200 #
plane-surface $-1 0 36.756520068778379 0 0 -1 0 0 0 -1 forward_v I I I I #
coedge $-1 $423 $315 $318 $424 forward $201 $-1 #
coedge $-1 $321 $203 $204 $309 reversed $126 $-1 #
coedge $-1 $315 $423 $203 $307 reversed $201 $-1 #
edge $-1 $322 -11.712011314252184 $425 11.712011314252184 $306 $426 forward 7 unknown #
coedge $-1 $205 $204 $423 $427 forward $81 $-1 #
edge $-1 $313 -60.819727164525283 $425 60.819727164525283 $305 $428 forward 7 unknown #
coedge $-1 $318 $317 $205 $311 reversed $302 $-1 #
edge $-1 $429 -60.819727164525283 $312 60.819727164525283 $310 $430 forward 7 unknown #
vertex $-1 $207 $431 #
vertex $-1 $324 $432 #
straight-curve $-1 60.819727164525283 0 -11.712011314252184 0 -1 0 I I #
coedge $-1 $304 $306 $208 $316 reversed $201 $-1 #
edge $-1 $319 -36.756520068778379 $322 36.756520068778379 $315 $433 forward 7 unknown #
coedge $-1 $310 $209 $214 $325 forward $302 $-1 #
coedge $-1 $209 $310 $304 $424 reversed $302 $-1 #
vertex $-1 $210 $434 #
straight-curve $-1 0 36.756520068778379 11.712011314252184 -1 0 0 I I #
coedge $-1 $211 $305 $213 $324 reversed $126 $-1 #
vertex $-1 $316 $435 #
straight-curve $-1 0 -36.756520068778379 11.712011314252184 1 0 0 I I #
edge $-1 $216 -11.712011314252184 $313 11.712011314252184 $213 $436 forward 7 unknown #
edge $-1 $217 -11.712011314252184 $312 11.712011314252184 $214 $437 forward 7 unknown #
point $-1 60.819727164525283 -36.756520068778379 11.712011314252184 #
point $-1 60.819727164525283 36.756520068778379 11.712011314252184 #
face $-1 $-1 $341 $31 $-1 $438 reversed single #
plane-surface $-1 -54.012270263238669 -44.401167566109208 0 -1 0 0 0 0 1 forward_v I I I I #
coedge $-1 $439 $440 $441 $442 forward $220 $-1 #
coedge $-1 $441 $222 $340 $443 reversed $134 $-1 #
coedge $-1 $222 $441 $223 $335 reversed $134 $-1 #
edge $-1 $337 -11.712011314252184 $342 11.712011314252184 $222 $444 forward 7 unknown #
coedge $-1 $224 $223 $440 $445 forward $85 $-1 #
edge $-1 $337 36.756520068778379 $446 52.045815063440045 $332 $447 forward 7 unknown #
edge $-1 $448 -7.6446474973308369 $232 7.6446474973308369 $229 $449 forward 7 unknown #
vertex $-1 $335 $450 #
straight-curve $-1 0 -36.756520068778379 11.712011314252184 -1 0 0 I I #
coedge $-1 $451 $227 $230 $345 forward $341 $-1 #
coedge $-1 $227 $451 $331 $443 forward $341 $-1 #
loop $-1 $-1 $227 $328 #
vertex $-1 $333 $452 #
straight-curve $-1 0 -36.756520068778379 -11.712011314252184 1 0 0 I I #
coedge $-1 $230 $229 $453 $454 forward $231 $-1 #
edge $-1 $233 -7.6446474973308369 $455 7.6446474973308369 $230 $456 forward 7 unknown #
point $-1 -54.012270263238669 -36.756520068778372 11.712011314252184 #
point $-1 -54.012270263238669 -36.756520068778372 -11.712011314252184 #
plane-surface $-1 0 0 11.712011314252184 0 0 1 1 0 0 forward_v I I I I #
coedge $-1 $359 $358 $351 $457 forward $236 $-1 #
coedge $-1 $351 $238 $240 $355 reversed $142 $-1 #
coedge $-1 $238 $350 $349 $457 reversed $142 $-1 #
coedge $-1 $246 $241 $238 $353 forward $247 $-1 #
edge $-1 $356 -23.974475924341739 $458 -14.070869513632054 $352 $459 forward 7 unknown #
coedge $-1 $240 $239 $359 $460 reversed $89 $-1 #
edge $-1 $461 1.0367256691888158e-014 $356 14.521452131499959 $350 $462 forward 7 unknown #
vertex $-1 $242 $463 #
straight-curve $-1 -50.916120753815598 -3.9252548600060138 11.712011314252184 0 1 0 I I #
coedge $-1 $349 $243 $246 $363 reversed $236 $-1 #
coedge $-1 $243 $349 $354 $460 forward $236 $-1 #
vertex $-1 $244 $464 #
straight-curve $-1 -60.819727164525283 -13.108496689548337 42.024800359117499 0 0 1 I I #
straight-curve $-1 -60.81972716452529 -13.108496689548337 1.0916934249800079 -0.68199835119979291 0 -0.73135370988377701 I I #
edge $-1 $458 2.5925227504757178 $248 13.108496689548337 $358 $465 forward 7 unknown #
point $-1 -60.819727164525283 -13.108496689548337 11.712011314252184 #
point $-1 -50.916120753815598 -13.108496689548337 11.712011314252184 #
edge $-1 $466 1 $466 0 $251 $-1 forward 7 unknown #
vertex $-1 $252 $467 #
ellipse-curve $-1 -54.611005327059004 -10.103932706956158 5.2297568116014643 -0.73135370988377701 0 0.68199835119979291 0.68199835119979291 0 0.73135370988377701 1 I I #
point $-1 -55.185925607970638 -10.103932706956158 7.1332060794998648 #
edge $-1 $468 1 $468 0 $255 $-1 forward 7 unknown #
vertex $-1 $256 $469 #
ellipse-curve $-1 -54.611005327059004 -5.59708673306789 5.2297568116014643 -0.73135370988377701 0 0.68199835119979291 0.68199835119979291 0 0.73135370988377701 1 I I #
point $-1 -55.185925607970638 -5.59708673306789 7.1332060794998648 #
loop $-1 $-1 $267 $259 #
plane-surface $-1 -60.819727164525283 0 0 1 0 0 0 0 -1 forward_v I I I I #
coedge $-1 $377 $262 $264 $381 reversed $164 $-1 #
coedge $-1 $262 $376 $470 $471 reversed $164 $-1 #
coedge $-1 $270 $265 $262 $379 forward $260 $-1 #
edge $-1 $382 -23.974475924341739 $472 -14.070869513632054 $378 $473 forward 7 unknown #
coedge $-1 $264 $263 $385 $474 reversed $103 $-1 #
edge $-1 $475 1.0367256691888158e-014 $382 14.521452131499959 $376 $476 forward 7 unknown #
vertex $-1 $266 $477 #
straight-curve $-1 -50.916120753815598 11.569902357336844 11.712011314252184 0 1 0 I I #
coedge $-1 $470 $267 $270 $389 reversed $374 $-1 #
coedge $-1 $267 $470 $380 $474 forward $374 $-1 #
vertex $-1 $268 $478 #
straight-curve $-1 -60.819727164525283 17.881817745137376 42.024800359117499 0 0 1 I I #
straight-curve $-1 -60.81972716452529 17.881817745137376 1.0916934249800079 -0.68199835119979291 0 -0.73135370988377701 I I #
edge $-1 $472 -28.397791684209999 $271 -17.881817745137376 $384 $479 forward 7 unknown #
point $-1 -60.819727164525283 17.881817745137376 11.712011314252184 #
point $-1 -50.916120753815598 17.881817745137376 11.712011314252184 #
edge $-1 $480 1 $480 0 $274 $-1 forward 7 unknown #
vertex $-1 $275 $481 #
ellipse-curve $-1 -54.611005327059004 20.886381727729557 5.2297568116014643 -0.73135370988377701 0 0.68199835119979291 0.68199835119979291 0 0.73135370988377701 1 I I #
point $-1 -55.185925607970638 20.886381727729557 7.1332060794998648 #
edge $-1 $482 1 $482 0 $278 $-1 forward 7 unknown #
vertex $-1 $279 $483 #
ellipse-curve $-1 -54.611005327059004 25.393227701617825 5.2297568116014643 -0.73135370988377701 0 0.68199835119979291 0.68199835119979291 0 0.73135370988377701 1 I I #
point $-1 -55.185925607970638 25.393227701617825 7.1332060794998648 #
loop $-1 $-1 $290 $282 #
plane-surface $-1 60.819727164525283 0 0 -1 0 0 0 0 1 forward_v I I I I #
coedge $-1 $403 $285 $287 $407 reversed $186 $-1 #
coedge $-1 $285 $402 $484 $485 reversed $186 $-1 #
coedge $-1 $293 $288 $285 $405 forward $283 $-1 #
edge $-1 $408 22.81150967123514 $486 30.40986258430301 $404 $487 forward 7 unknown #
coedge $-1 $287 $286 $411 $488 reversed $117 $-1 #
edge $-1 $489 -121.63945432905062 $408 -110.89376046301545 $402 $490 forward 7 unknown #
vertex $-1 $289 $491 #
straight-curve $-1 53.221374251457419 -3.3708783555154049 11.712011314252173 0 -1 0 I I #
coedge $-1 $484 $290 $293 $415 reversed $400 $-1 #
coedge $-1 $290 $484 $406 $488 forward $400 $-1 #
vertex $-1 $291 $492 #
straight-curve $-1 60.819727164525283 -1.1363080957576344 88.068912128334873 0 0 1 I I #
straight-curve $-1 -25.192354853418088 -1.1363080957576344 90.125742238726389 0.70710677298230451 0 -0.70710678939079041 I I #
edge $-1 $486 -12.347205326303985 $294 -1.1363080957576344 $410 $493 forward 7 unknown #
point $-1 60.819727164525283 -1.1363080957576344 11.712011314252184 #
point $-1 53.221374251457412 -1.1363080957576344 11.71201131425218 #
edge $-1 $494 1 $494 0 $297 $-1 forward 7 unknown #
vertex $-1 $298 $495 #
ellipse-curve $-1 53.990416736852453 -6.7417567110308099 4.8827008687336608 0.70710678939079041 0 0.70710677298230451 1.0606601594734568 0 -1.0606601840861856 1 I I #
point $-1 58.08121086746479 -6.7417567110308099 6.8521745854717881 #
plane-surface $-1 60.819727164525283 0 0 -1 0 0 0 0 1 forward_v I I I I #
coedge $-1 $306 $304 $308 $427 reversed $201 $-1 #
edge $-1 $319 -11.712011314252184 $429 11.712011314252184 $318 $496 forward 7 unknown #
vertex $-1 $427 $497 #
straight-curve $-1 -60.819727164525283 -36.756520068778379 0 0 0 -1 I I #
edge $-1 $425 -36.756520068778379 $429 36.756520068778379 $423 $498 forward 7 unknown #
straight-curve $-1 0 -36.756520068778379 -11.712011314252184 -1 0 0 I I #
vertex $-1 $311 $499 #
straight-curve $-1 0 36.756520068778379 -11.712011314252184 1 0 0 I I #
point $-1 60.819727164525283 36.756520068778379 -11.712011314252184 #
point $-1 60.819727164525283 -36.756520068778379 -11.712011314252184 #
straight-curve $-1 -60.819727164525283 0 11.712011314252184 0 -1 0 I I #
point $-1 -60.819727164525283 36.756520068778379 11.712011314252184 #
point $-1 -60.819727164525283 -36.756520068778379 11.712011314252184 #
straight-curve $-1 60.819727164525283 -36.756520068778379 0 0 0 -1 I I #
straight-curve $-1 60.819727164525283 36.756520068778379 0 0 0 -1 I I #
plane-surface $-1 0 0 -11.712011314252184 0 0 1 1 0 0 forward_v I I I I #
coedge $-1 $453 $330 $451 $500 reversed $220 $-1 #
coedge $-1 $330 $453 $334 $445 reversed $220 $-1 #
coedge $-1 $332 $331 $330 $442 reversed $134 $-1 #
edge $-1 $446 -11.712011314252184 $501 11.712011314252184 $441 $502 forward 7 unknown #
edge $-1 $501 -52.045815063440045 $342 -36.756520068778379 $331 $503 forward 7 unknown #
straight-curve $-1 -60.819727164525283 -36.756520068778379 0 0 0 -1 I I #
edge $-1 $446 -3.4037284506433068 $448 3.4037284506433068 $440 $504 forward 7 unknown #
vertex $-1 $335 $505 #
straight-curve $-1 -60.819727164525283 0 11.712011314252184 0 -1 0 I I #
vertex $-1 $336 $506 #
straight-curve $-1 -54.012270263238669 -44.401167566109208 11.712011314252184 0 1 0 I I #
point $-1 -60.819727164525283 -36.756520068778379 11.712011314252184 #
coedge $-1 $340 $339 $439 $500 forward $341 $-1 #
point $-1 -60.819727164525283 -36.756520068778379 -11.712011314252184 #
coedge $-1 $440 $439 $344 $454 reversed $220 $-1 #
edge $-1 $448 -11.712011314252184 $455 11.712011314252184 $344 $507 forward 7 unknown #
vertex $-1 $454 $508 #
straight-curve $-1 -54.012270263238669 -44.401167566109208 -11.712011314252184 0 -1 0 I I #
edge $-1 $458 30.312789044865315 $461 40.933106934137484 $349 $509 forward 7 unknown #
vertex $-1 $363 $510 #
straight-curve $-1 -74.890596678157337 -2.5925227504757178 11.712011314252187 -1 0 0 I I #
edge $-1 $461 -1.332732109530296 $360 9.1832418295423235 $359 $511 forward 7 unknown #
vertex $-1 $460 $512 #
straight-curve $-1 -60.81972716452529 -2.5925227504757178 1.0916934249800079 0.68199835119979291 0 0.73135370988377701 I I #
point $-1 -50.916120753815598 -2.5925227504757178 11.712011314252184 #
point $-1 -60.819727164525283 -13.108496689548337 1.0916934249800154 #
straight-curve $-1 -60.819727164525283 0 11.712011314252184 0 -1 0 I I #
vertex $-1 $366 $513 #
point $-1 -53.92900697585921 -10.103932706956158 5.9611105214852413 #
vertex $-1 $370 $514 #
point $-1 -53.92900697585921 -5.59708673306789 5.9611105214852413 #
coedge $-1 $385 $384 $377 $471 forward $374 $-1 #
edge $-1 $472 30.312789044865315 $475 40.933106934137484 $470 $515 forward 7 unknown #
vertex $-1 $389 $516 #
straight-curve $-1 -74.890596678157337 28.397791684209999 11.712011314252187 -1 0 0 I I #
edge $-1 $475 -16.827889326873155 $386 -6.3119153878005321 $385 $517 forward 7 unknown #
vertex $-1 $474 $518 #
straight-curve $-1 -60.81972716452529 28.397791684209999 1.0916934249800079 0.68199835119979291 0 0.73135370988377701 I I #
point $-1 -50.916120753815598 28.397791684209999 11.712011314252184 #
point $-1 -60.819727164525283 17.881817745137376 1.0916934249800154 #
straight-curve $-1 -60.819727164525283 0 11.712011314252184 0 -1 0 I I #
vertex $-1 $392 $519 #
point $-1 -53.92900697585921 20.886381727729557 5.9611105214852413 #
vertex $-1 $396 $520 #
point $-1 -53.92900697585921 25.393227701617825 5.9611105214852413 #
coedge $-1 $411 $410 $403 $485 forward $400 $-1 #
edge $-1 $486 76.356900814082692 $489 83.955253903471132 $484 $521 forward 7 unknown #
vertex $-1 $415 $522 #
straight-curve $-1 30.409864580222273 -12.347205326303985 11.71201131425218 1 0 0 I I #
edge $-1 $489 -8.9763269707885804 $412 2.2345702597577706 $411 $523 forward 7 unknown #
vertex $-1 $488 $524 #
straight-curve $-1 -25.192354853418088 -12.347205326303985 90.125742238726389 -0.70710677298230451 0 0.70710678939079041 I I #
point $-1 53.221374251457412 -12.347205326303985 11.71201131425218 #
point $-1 60.819727164525283 -1.1363080957576344 4.113658224863741 #
straight-curve $-1 60.819727164525283 0 11.712011314252184 0 1 0 I I #
vertex $-1 $418 $525 #
point $-1 55.05107689632591 -6.7417567110308099 3.822040684647475 #
straight-curve $-1 -60.819727164525283 36.756520068778379 0 0 0 -1 I I #
point $-1 -60.819727164525283 -36.756520068778379 -11.712011314252184 #
straight-curve $-1 -60.819727164525283 0 -11.712011314252184 0 1 0 I I #
point $-1 -60.819727164525283 36.756520068778379 -11.712011314252184 #
edge $-1 $455 -3.4037284506433068 $501 3.4037284506433068 $439 $526 forward 7 unknown #
vertex $-1 $443 $527 #
straight-curve $-1 -60.819727164525283 -52.045815063440045 0 0 0 -1 I I #
straight-curve $-1 -60.819727164525283 0 -11.712011314252184 0 1 0 I I #
straight-curve $-1 -57.415998713881976 -52.045815063440045 11.712011314252184 1 0 0 I I #
point $-1 -60.819727164525283 -52.045815063440045 11.712011314252184 #
point $-1 -54.012270263238669 -52.045815063440045 11.712011314252184 #
straight-curve $-1 -54.012270263238669 -52.045815063440045 0 0 0 -1 I I #
point $-1 -54.012270263238669 -52.045815063440045 -11.712011314252184 #
straight-curve $-1 -60.819727164525283 -2.5925227504757178 42.024800359117499 0 0 -1 I I #
point $-1 -60.819727164525283 -2.5925227504757178 11.712011314252184 #
straight-curve $-1 -60.819727164525283 -3.9252548600060138 1.091693424980017 0 -1 0 I I #
point $-1 -60.819727164525283 -2.5925227504757178 1.0916934249800154 #
point $-1 -53.879651617175227 -10.103932706956158 4.5477584604016714 #
point $-1 -53.879651617175227 -5.59708673306789 4.5477584604016714 #
straight-curve $-1 -60.819727164525283 28.397791684209999 42.024800359117499 0 0 -1 I I #
point $-1 -60.819727164525283 28.397791684209999 11.712011314252184 #
straight-curve $-1 -60.819727164525283 11.569902357336844 1.091693424980017 0 -1 0 I I #
point $-1 -60.819727164525283 28.397791684209999 1.0916934249800154 #
point $-1 -53.879651617175227 20.886381727729557 4.5477584604016714 #
point $-1 -53.879651617175227 25.393227701617825 4.5477584604016714 #
straight-curve $-1 60.819727164525283 -12.347205326303985 88.068912128334873 0 0 -1 I I #
point $-1 60.819727164525283 -12.347205326303985 11.712011314252184 #
straight-curve $-1 60.819727164525283 -3.3708783555154049 4.1136582248637481 0 1 0 I I #
point $-1 60.819727164525283 -12.347205326303985 4.113658224863741 #
point $-1 52.929756552766264 -6.7417567110308099 3.8220407092602038 #
straight-curve $-1 -57.415998713881976 -52.045815063440045 -11.712011314252184 -1 0 0 I I #
point $-1 -60.819727164525283 -52.045815063440045 -11.712011314252184 #
End-of-ACIS-data 