500 0 4 0           
7 Unknown 11 ACIS 5.0 NT 24 Thu Mar 25 17:17:39 1999 
-1 9.9999999999999995e-007 1e-010 
body $-1 $4 $-1 $5 #
body $-1 $6 $-1 $7 #
body $-1 $8 $-1 $9 #
body $-1 $10 $-1 $11 #
lump $-1 $-1 $12 $0 #
transform $-1 1 0 0 0 1 0 0 0 1 78.892788476210825 34.86455957303906 16.115561976783031 1 rotate no_reflect no_shear #
lump $-1 $-1 $13 $1 #
transform $-1 1 0 0 0 1 0 0 0 1 78.892788476210825 34.86455957303906 16.115561976783031 1 rotate no_reflect no_shear #
lump $-1 $-1 $14 $2 #
transform $-1 1 0 0 0 1 0 0 0 1 78.892788476210825 34.86455957303906 16.115561976783031 1 rotate no_reflect no_shear #
lump $-1 $-1 $15 $3 #
transform $-1 1 0 0 0 1 0 0 0 1 78.892788476210825 34.86455957303906 16.115561976783031 1 rotate no_reflect no_shear #
shell $-1 $-1 $-1 $16 $-1 $4 #
shell $-1 $-1 $-1 $17 $-1 $6 #
shell $-1 $-1 $-1 $18 $-1 $8 #
shell $-1 $-1 $-1 $19 $-1 $10 #
face $-1 $20 $21 $12 $-1 $22 forward single #
face $-1 $23 $24 $13 $-1 $25 reversed single #
face $-1 $26 $27 $14 $-1 $28 forward single #
face $-1 $29 $30 $15 $-1 $31 forward single #
face $-1 $32 $33 $12 $-1 $34 reversed single #
loop $-1 $-1 $35 $16 #
plane-surface $-1 0 0 16.115561976783031 0 0 1 1 0 0 forward_v I I I I #
face $-1 $36 $37 $13 $-1 $38 reversed single #
loop $-1 $-1 $39 $17 #
plane-surface $-1 -18.249710948395816 -30.253653206579976 130.64894964195216 0.78801076186113728 0 0.61566146476048833 0.61566146476048833 0 -0.78801076186113728 forward_v I I I I #
face $-1 $40 $41 $14 $-1 $42 forward single #
loop $-1 $43 $44 $18 #
cone-surface $-1 73.573159688795769 -32.229755935062443 10.049756242558937 -0.78801076186113728 0 -0.61566146476048833 0.61566146476048833 0 -0.78801076186113728 1 I I 0 1 1 forward I I I I #
face $-1 $45 $46 $15 $-1 $47 forward single #
loop $-1 $48 $49 $19 #
cone-surface $-1 73.573159688795769 -28.27755047809751 10.049756242558937 -0.78801076186113728 0 -0.61566146476048833 0.61566146476048833 0 -0.78801076186113728 1 I I 0 1 1 forward I I I I #
face $-1 $50 $51 $12 $-1 $52 reversed single #
loop $-1 $-1 $53 $20 #
plane-surface $-1 0 0 -16.115561976783031 0 0 1 1 0 0 forward_v I I I I #
coedge $-1 $54 $55 $56 $57 forward $21 $-1 #
face $-1 $58 $59 $13 $-1 $60 forward single #
loop $-1 $-1 $61 $23 #
plane-surface $-1 106.08702175658107 -25.642746840120893 227.79144906655881 0 -1 0 -0.78801076186113728 0 -0.61566146476048833 forward_v I I I I #
coedge $-1 $62 $63 $64 $65 reversed $24 $-1 #
face $-1 $-1 $66 $14 $-1 $67 forward single #
loop $-1 $68 $69 $26 #
cone-surface $-1 71.689131700260219 -32.229755935062443 8.5777922958584831 -0.78801076186113728 0 -0.61566146476048833 0.30783073238024417 0 -0.39400538093056864 1 I I -0.70710678118654746 0.70710678118654746 0.5 forward I I I I #
loop $-1 $-1 $70 $18 #
coedge $-1 $44 $44 $71 $72 reversed $27 $-1 #
face $-1 $-1 $73 $15 $-1 $74 forward single #
loop $-1 $75 $76 $29 #
cone-surface $-1 71.689131700260219 -28.27755047809751 8.5777922958584831 -0.78801076186113728 0 -0.61566146476048833 0.30783073238024417 0 -0.39400538093056864 1 I I -0.70710678118654746 0.70710678118654746 0.5 forward I I I I #
loop $-1 $-1 $77 $19 #
coedge $-1 $49 $49 $78 $79 reversed $30 $-1 #
face $-1 $80 $81 $12 $-1 $82 reversed single #
loop $-1 $-1 $83 $32 #
plane-surface $-1 0 -34.86455957303906 0 0 1 0 0 0 1 forward_v I I I I #
coedge $-1 $84 $85 $86 $87 forward $33 $-1 #
coedge $-1 $88 $35 $89 $90 forward $21 $-1 #
coedge $-1 $35 $88 $91 $92 forward $21 $-1 #
coedge $-1 $93 $94 $35 $57 reversed $95 $-1 #
edge $-1 $96 -34.86455957303906 $97 34.86455957303906 $56 $98 forward 7 unknown #
face $-1 $99 $100 $13 $-1 $101 reversed single #
loop $-1 $-1 $102 $36 #
plane-surface $-1 0 0 16.115561976783031 0 0 1 1 0 0 forward_v I I I I #
coedge $-1 $103 $104 $105 $106 reversed $37 $-1 #
coedge $-1 $107 $39 $108 $109 reversed $24 $-1 #
coedge $-1 $39 $107 $103 $110 forward $24 $-1 #
coedge $-1 $105 $111 $39 $65 forward $112 $-1 #
edge $-1 $113 -19.737732969749072 $114 -10.515920236830905 $64 $115 forward 7 unknown #
loop $-1 $-1 $71 $40 #
plane-surface $-1 -18.249710948395816 -30.253653206579976 130.64894964195216 0.78801076186113728 0 0.61566146476048833 0.61566146476048833 0 -0.78801076186113728 forward_v I I I I #
loop $-1 $-1 $116 $26 #
coedge $-1 $69 $69 $70 $117 reversed $41 $-1 #
coedge $-1 $70 $70 $69 $117 forward $43 $-1 #
coedge $-1 $71 $71 $44 $72 forward $66 $-1 #
edge $-1 $118 0 $118 6.2831853071796004 $71 $119 forward 7 unknown #
loop $-1 $-1 $78 $45 #
plane-surface $-1 -18.249710948395816 -30.253653206579976 130.64894964195216 0.78801076186113728 0 0.61566146476048833 0.61566146476048833 0 -0.78801076186113728 forward_v I I I I #
loop $-1 $-1 $120 $29 #
coedge $-1 $76 $76 $77 $121 reversed $46 $-1 #
coedge $-1 $77 $77 $76 $121 forward $48 $-1 #
coedge $-1 $78 $78 $49 $79 forward $73 $-1 #
edge $-1 $122 0 $122 6.2831853071796004 $78 $123 forward 7 unknown #
face $-1 $124 $125 $12 $-1 $126 reversed single #
loop $-1 $-1 $127 $50 #
plane-surface $-1 -78.892788476210825 0 0 1 0 0 0 0 -1 forward_v I I I I #
coedge $-1 $128 $91 $129 $130 forward $51 $-1 #
coedge $-1 $131 $53 $128 $132 forward $33 $-1 #
coedge $-1 $53 $131 $133 $134 forward $33 $-1 #
coedge $-1 $94 $93 $53 $87 reversed $95 $-1 #
edge $-1 $135 -34.86455957303906 $136 34.86455957303906 $86 $137 forward 7 unknown #
coedge $-1 $55 $54 $138 $139 forward $21 $-1 #
coedge $-1 $140 $141 $54 $90 reversed $125 $-1 #
edge $-1 $97 -78.892788476210825 $142 78.892788476210825 $89 $143 forward 7 unknown #
coedge $-1 $83 $144 $55 $92 reversed $51 $-1 #
edge $-1 $145 -78.892788476210825 $96 78.892788476210825 $91 $146 forward 7 unknown #
coedge $-1 $86 $56 $144 $147 forward $95 $-1 #
coedge $-1 $56 $86 $140 $148 reversed $95 $-1 #
loop $-1 $-1 $93 $124 #
vertex $-1 $57 $149 #
vertex $-1 $57 $150 #
straight-curve $-1 78.892788476210825 0 16.115561976783031 0 1 0 I I #
face $-1 $-1 $112 $13 $-1 $151 reversed single #
loop $-1 $-1 $108 $58 #
plane-surface $-1 0 -34.86455957303906 0 0 1 0 0 0 1 forward_v I I I I #
coedge $-1 $152 $153 $104 $154 forward $59 $-1 #
coedge $-1 $104 $61 $63 $110 reversed $37 $-1 #
coedge $-1 $61 $103 $102 $154 reversed $37 $-1 #
coedge $-1 $155 $64 $61 $106 forward $112 $-1 #
edge $-1 $114 -107.58350759630412 $156 -97.780162556496379 $105 $157 forward 7 unknown #
coedge $-1 $63 $62 $152 $158 reversed $24 $-1 #
coedge $-1 $159 $160 $62 $109 forward $100 $-1 #
edge $-1 $161 88.250742599751277 $113 100.69136589359313 $108 $162 forward 7 unknown #
edge $-1 $163 145.34495365857975 $114 157.78557695242162 $103 $164 forward 7 unknown #
coedge $-1 $64 $155 $159 $165 forward $112 $-1 #
loop $-1 $-1 $105 $99 #
vertex $-1 $109 $166 #
vertex $-1 $65 $167 #
straight-curve $-1 78.892788476210825 -15.126826603289988 6.3122169369753038 0 1 0 I I #
coedge $-1 $116 $116 $-1 $168 reversed $68 $-1 #
edge $-1 $169 0 $169 6.2831853071796004 $69 $170 forward 7 unknown #
vertex $-1 $72 $171 #
ellipse-curve $-1 75.063182296400768 -32.229755935062443 11.213889456879159 0.78801076186113728 0 0.61566146476048833 0.61566146476048833 0 -0.78801076186113728 1 I I #
coedge $-1 $120 $120 $-1 $172 reversed $75 $-1 #
edge $-1 $173 0 $173 6.2831853071796004 $76 $174 forward 7 unknown #
vertex $-1 $79 $175 #
ellipse-curve $-1 75.063182296400768 -28.27755047809751 11.213889456879159 0.78801076186113728 0 0.61566146476048833 0.61566146476048833 0 -0.78801076186113728 1 I I #
face $-1 $-1 $95 $12 $-1 $176 reversed single #
loop $-1 $-1 $140 $80 #
plane-surface $-1 0 34.86455957303906 0 0 -1 0 0 0 -1 forward_v I I I I #
coedge $-1 $177 $138 $141 $178 forward $81 $-1 #
coedge $-1 $144 $83 $84 $132 reversed $51 $-1 #
coedge $-1 $138 $177 $83 $130 reversed $81 $-1 #
edge $-1 $145 -16.115561976783031 $179 16.115561976783031 $129 $180 forward 7 unknown #
coedge $-1 $85 $84 $177 $181 forward $33 $-1 #
edge $-1 $136 -78.892788476210825 $179 78.892788476210825 $128 $182 forward 7 unknown #
coedge $-1 $141 $140 $85 $134 reversed $125 $-1 #
edge $-1 $183 -78.892788476210825 $135 78.892788476210825 $133 $184 forward 7 unknown #
vertex $-1 $87 $185 #
vertex $-1 $147 $186 #
straight-curve $-1 78.892788476210825 0 -16.115561976783031 0 -1 0 I I #
coedge $-1 $127 $129 $88 $139 reversed $81 $-1 #
edge $-1 $142 -34.86455957303906 $145 34.86455957303906 $138 $187 forward 7 unknown #
coedge $-1 $133 $89 $94 $148 forward $125 $-1 #
coedge $-1 $89 $133 $127 $178 reversed $125 $-1 #
vertex $-1 $90 $188 #
straight-curve $-1 0 34.86455957303906 16.115561976783031 -1 0 0 I I #
coedge $-1 $91 $128 $93 $147 reversed $51 $-1 #
vertex $-1 $139 $189 #
straight-curve $-1 0 -34.86455957303906 16.115561976783031 1 0 0 I I #
edge $-1 $96 -16.115561976783031 $136 16.115561976783031 $93 $190 forward 7 unknown #
edge $-1 $97 -16.115561976783031 $135 16.115561976783031 $94 $191 forward 7 unknown #
point $-1 78.892788476210825 -34.86455957303906 16.115561976783031 #
point $-1 78.892788476210825 34.86455957303906 16.115561976783031 #
plane-surface $-1 78.892788476210825 0 0 -1 0 0 0 0 1 forward_v I I I I #
coedge $-1 $192 $102 $107 $158 forward $59 $-1 #
coedge $-1 $102 $192 $155 $193 forward $59 $-1 #
edge $-1 $156 -25.849277597920292 $163 -18.190065238300164 $102 $194 forward 7 unknown #
coedge $-1 $111 $105 $153 $193 reversed $112 $-1 #
vertex $-1 $106 $195 #
straight-curve $-1 78.892788476210825 -25.642746840120893 113.89572453327941 0 0 1 I I #
edge $-1 $163 10.515920236830905 $161 19.737732969749072 $152 $196 forward 7 unknown #
coedge $-1 $160 $108 $111 $165 reversed $100 $-1 #
coedge $-1 $108 $159 $192 $197 reversed $100 $-1 #
vertex $-1 $197 $198 #
straight-curve $-1 16.900994661426999 -34.86455957303906 85.658096887624154 0.61566146476048833 0 -0.78801076186113728 I I #
vertex $-1 $158 $199 #
straight-curve $-1 -18.249710948395816 -25.642746840120893 130.64894964195216 0.61566146476048833 0 -0.78801076186113728 I I #
edge $-1 $200 -16.115561976783031 $113 -6.3122169369753065 $111 $201 forward 7 unknown #
point $-1 78.892788476210825 -34.86455957303906 6.3122169369753065 #
point $-1 78.892788476210825 -25.642746840120893 6.3122169369752896 #
edge $-1 $202 1 $202 0 $116 $-1 forward 7 unknown #
vertex $-1 $117 $203 #
ellipse-curve $-1 72.083137081190785 -32.229755935062443 8.8856230282387276 0.78801076186113728 0 0.61566146476048833 0.61566146476048833 0 -0.78801076186113728 1 I I #
point $-1 75.678843761161232 -32.229755935062443 10.42587869501801 #
edge $-1 $204 1 $204 0 $120 $-1 forward 7 unknown #
vertex $-1 $121 $205 #
ellipse-curve $-1 72.083137081190785 -28.27755047809751 8.8856230282387276 0.78801076186113728 0 0.61566146476048833 0.61566146476048833 0 -0.78801076186113728 1 I I #
point $-1 75.678843761161232 -28.27755047809751 10.42587869501801 #
plane-surface $-1 78.892788476210825 0 0 -1 0 0 0 0 1 forward_v I I I I #
coedge $-1 $129 $127 $131 $181 reversed $81 $-1 #
edge $-1 $142 -16.115561976783031 $183 16.115561976783031 $141 $206 forward 7 unknown #
vertex $-1 $181 $207 #
straight-curve $-1 -78.892788476210825 -34.86455957303906 0 0 0 -1 I I #
edge $-1 $179 -34.86455957303906 $183 34.86455957303906 $177 $208 forward 7 unknown #
straight-curve $-1 0 -34.86455957303906 -16.115561976783031 -1 0 0 I I #
vertex $-1 $134 $209 #
straight-curve $-1 0 34.86455957303906 -16.115561976783031 1 0 0 I I #
point $-1 78.892788476210825 34.86455957303906 -16.115561976783031 #
point $-1 78.892788476210825 -34.86455957303906 -16.115561976783031 #
straight-curve $-1 -78.892788476210825 0 16.115561976783031 0 -1 0 I I #
point $-1 -78.892788476210825 34.86455957303906 16.115561976783031 #
point $-1 -78.892788476210825 -34.86455957303906 16.115561976783031 #
straight-curve $-1 78.892788476210825 -34.86455957303906 0 0 0 -1 I I #
straight-curve $-1 78.892788476210825 34.86455957303906 0 0 0 -1 I I #
coedge $-1 $153 $152 $160 $197 forward $59 $-1 #
edge $-1 $200 -34.86455957303906 $156 -25.642746840120893 $155 $210 forward 7 unknown #
straight-curve $-1 53.043510878290533 -25.642746840120893 16.115561976783027 -1 0 0 I I #
point $-1 78.892788476210825 -25.642746840120893 16.115561976783031 #
straight-curve $-1 71.233576116590697 -15.126826603289988 16.115561976783027 0 -1 0 I I #
edge $-1 $161 71.233576116590697 $200 78.892788476210825 $160 $211 forward 7 unknown #
point $-1 71.233576116590697 -34.86455957303906 16.115561976783027 #
point $-1 71.233576116590697 -25.642746840120893 16.115561976783027 #
vertex $-1 $193 $212 #
straight-curve $-1 78.892788476210825 -34.86455957303906 0 0 0 -1 I I #
vertex $-1 $168 $213 #
point $-1 72.698798545951277 -32.229755935062443 8.09761226637759 #
vertex $-1 $172 $214 #
point $-1 72.698798545951277 -28.27755047809751 8.09761226637759 #
straight-curve $-1 -78.892788476210825 34.86455957303906 0 0 0 -1 I I #
point $-1 -78.892788476210825 -34.86455957303906 -16.115561976783031 #
straight-curve $-1 -78.892788476210825 0 -16.115561976783031 0 1 0 I I #
point $-1 -78.892788476210825 34.86455957303906 -16.115561976783031 #
straight-curve $-1 78.892788476210825 0 16.115561976783031 0 1 0 I I #
straight-curve $-1 0 -34.86455957303906 16.115561976783031 1 0 0 I I #
point $-1 78.892788476210825 -34.86455957303906 16.115561976783031 #
point $-1 71.295126319329654 -32.229755935062443 8.2699615634782386 #
point $-1 71.295126319329654 -28.27755047809751 8.2699615634782386 #
End-of-ACIS-data 