500 0 6 0           
7 Unknown 11 ACIS 5.0 NT 24 Thu Mar 25 20:33:09 1999 
-1 9.9999999999999995e-007 1e-010 
body $-1 $6 $-1 $7 #
body $-1 $8 $-1 $9 #
body $-1 $10 $-1 $11 #
body $-1 $12 $-1 $13 #
body $-1 $14 $-1 $15 #
body $-1 $16 $-1 $17 #
lump $-1 $-1 $18 $0 #
transform $-1 1 0 0 0 1 0 0 0 1 73.517868587298196 45.301653634636608 14.155263249720463 1 rotate no_reflect no_shear #
lump $-1 $-1 $19 $1 #
transform $-1 1 0 0 0 1 0 0 0 1 73.517868587298196 45.301653634636608 14.155263249720463 1 rotate no_reflect no_shear #
lump $-1 $-1 $20 $2 #
transform $-1 1 0 0 0 1 0 0 0 1 73.517868587298196 45.301653634636608 14.155263249720463 1 rotate no_reflect no_shear #
lump $-1 $-1 $21 $3 #
transform $-1 1 0 0 0 1 0 0 0 1 73.517868587298196 45.301653634636608 14.155263249720463 1 rotate no_reflect no_shear #
lump $-1 $-1 $22 $4 #
transform $-1 1 0 0 0 1 0 0 0 1 73.517868587298196 45.301653634636608 14.155263249720463 1 rotate no_reflect no_shear #
lump $-1 $-1 $23 $5 #
transform $-1 1 0 0 0 1 0 0 0 1 73.517868587298196 45.301653634636608 14.155263249720463 1 rotate no_reflect no_shear #
shell $-1 $-1 $-1 $24 $-1 $6 #
shell $-1 $-1 $-1 $25 $-1 $8 #
shell $-1 $-1 $-1 $26 $-1 $10 #
shell $-1 $-1 $-1 $27 $-1 $12 #
shell $-1 $-1 $-1 $28 $-1 $14 #
shell $-1 $-1 $-1 $29 $-1 $16 #
face $-1 $30 $31 $18 $-1 $32 forward single #
face $-1 $33 $34 $19 $-1 $35 reversed single #
face $-1 $36 $37 $20 $-1 $38 reversed single #
face $-1 $39 $40 $21 $-1 $41 forward single #
face $-1 $42 $43 $22 $-1 $44 reversed single #
face $-1 $45 $46 $23 $-1 $47 forward single #
face $-1 $48 $49 $18 $-1 $50 reversed single #
loop $-1 $-1 $51 $24 #
plane-surface $-1 0 0 14.155263249720463 0 0 1 1 0 0 forward_v I I I I #
face $-1 $52 $53 $19 $-1 $54 reversed single #
loop $-1 $-1 $55 $25 #
plane-surface $-1 -68.479969486556058 0 9.2274673608822599 0 0 1 1 0 0 forward_v I I I I #
face $-1 $56 $57 $20 $-1 $58 reversed single #
loop $-1 $-1 $59 $26 #
plane-surface $-1 -41.088220426246302 -127.52299548786537 124.99242730867039 -1 0 0 0 -0.55919291073839883 0.82903756765294845 forward_v I I I I #
face $-1 $60 $61 $21 $-1 $62 forward single #
loop $-1 $63 $64 $27 #
cone-surface $-1 -52.265145406030115 -34.874258595150209 5.321472959299931 0 0.55919291073839883 -0.82903756765294845 3 0 0 1 I I 0 1 3 forward I I I I #
face $-1 $65 $66 $22 $-1 $67 reversed single #
loop $-1 $-1 $68 $28 #
plane-surface $-1 27.391749060309756 -127.52299548786537 124.99242730867039 -1 0 0 0 -0.55919291073839883 0.82903756765294845 forward_v I I I I #
face $-1 $69 $70 $23 $-1 $71 forward single #
loop $-1 $72 $73 $29 #
cone-surface $-1 16.214824080525943 -34.874258595150209 5.321472959299931 0 0.55919291073839883 -0.82903756765294845 3 0 0 1 I I 0 1 3 forward I I I I #
face $-1 $74 $75 $18 $-1 $76 reversed single #
loop $-1 $-1 $77 $30 #
plane-surface $-1 0 0 -14.155263249720463 0 0 1 1 0 0 forward_v I I I I #
coedge $-1 $78 $79 $80 $81 forward $31 $-1 #
face $-1 $82 $83 $19 $-1 $84 reversed single #
loop $-1 $-1 $85 $33 #
plane-surface $-1 -63.442070385813921 0 11.69136530530136 -1 0 0 0 0 1 forward_v I I I I #
coedge $-1 $86 $87 $85 $88 forward $34 $-1 #
face $-1 $89 $90 $20 $-1 $91 forward single #
loop $-1 $-1 $92 $36 #
plane-surface $-1 -52.265145406030115 -45.301653634636622 3.0942774033847797 0 -0.55919291073839883 0.82903756765294845 1 0 0 forward_v I I I I #
coedge $-1 $93 $94 $95 $96 reversed $37 $-1 #
face $-1 $-1 $97 $21 $-1 $98 forward single #
loop $-1 $99 $100 $39 #
cone-surface $-1 -52.265145406030115 -31.807366979034818 0.77461924056781584 0 0.55919291073839883 -0.82903756765294845 1.5 0 0 1 I I -0.70710678118654757 0.70710678118654757 1.5 forward I I I I #
loop $-1 $-1 $101 $27 #
coedge $-1 $64 $64 $102 $103 reversed $40 $-1 #
face $-1 $104 $105 $22 $-1 $106 reversed single #
loop $-1 $-1 $107 $42 #
plane-surface $-1 16.214824080525943 -45.301653634636622 3.0942774033847797 0 -0.55919291073839883 0.82903756765294845 1 0 0 forward_v I I I I #
coedge $-1 $108 $109 $110 $111 reversed $43 $-1 #
face $-1 $-1 $112 $23 $-1 $113 forward single #
loop $-1 $114 $115 $45 #
cone-surface $-1 16.214824080525943 -31.807366979034818 0.77461924056781584 0 0.55919291073839883 -0.82903756765294845 1.5 0 0 1 I I -0.70710678118654757 0.70710678118654757 1.5 forward I I I I #
loop $-1 $-1 $116 $29 #
coedge $-1 $73 $73 $117 $118 reversed $46 $-1 #
face $-1 $119 $120 $18 $-1 $121 reversed single #
loop $-1 $-1 $122 $48 #
plane-surface $-1 0 -45.301653634636608 0 0 1 0 0 0 1 forward_v I I I I #
coedge $-1 $123 $124 $125 $126 forward $49 $-1 #
coedge $-1 $127 $51 $128 $129 forward $31 $-1 #
coedge $-1 $51 $127 $130 $131 forward $31 $-1 #
coedge $-1 $132 $133 $51 $81 reversed $134 $-1 #
edge $-1 $135 -45.301653634636608 $136 45.301653634636608 $80 $137 forward 7 unknown #
face $-1 $138 $139 $19 $-1 $140 reversed single #
loop $-1 $-1 $141 $52 #
plane-surface $-1 0 45.301653634636608 0 0 -1 0 0 0 -1 forward_v I I I I #
coedge $-1 $142 $143 $55 $88 reversed $53 $-1 #
coedge $-1 $144 $55 $145 $146 reversed $34 $-1 #
coedge $-1 $55 $144 $147 $148 reversed $34 $-1 #
edge $-1 $149 -45.301653634636608 $150 45.301653634636608 $85 $151 forward 7 unknown #
face $-1 $152 $153 $20 $-1 $154 forward single #
loop $-1 $-1 $155 $56 #
plane-surface $-1 -63.442070385813921 0 11.69136530530136 -1 0 0 0 0 1 forward_v I I I I #
coedge $-1 $156 $157 $158 $159 reversed $57 $-1 #
coedge $-1 $94 $59 $160 $161 reversed $37 $-1 #
coedge $-1 $59 $93 $156 $162 reversed $37 $-1 #
coedge $-1 $158 $163 $59 $96 forward $153 $-1 #
edge $-1 $164 18.459844109296078 $165 34.858429688253295 $95 $166 forward 7 unknown #
loop $-1 $-1 $102 $60 #
plane-surface $-1 -52.265145406030115 -45.301653634636622 3.0942774033847797 0 -0.55919291073839883 0.82903756765294845 1 0 0 forward_v I I I I #
loop $-1 $-1 $167 $39 #
coedge $-1 $100 $100 $101 $168 reversed $61 $-1 #
coedge $-1 $101 $101 $100 $168 forward $63 $-1 #
coedge $-1 $102 $102 $64 $103 forward $97 $-1 #
edge $-1 $169 -3.3110871717809619e-016 $169 6.2831853071796004 $102 $170 forward 7 unknown #
face $-1 $171 $172 $22 $-1 $173 reversed single #
loop $-1 $-1 $174 $65 #
plane-surface $-1 5.0378991007421323 -127.52299548786537 124.99242730867039 1 0 0 0 0.55919291073839883 -0.82903756765294845 forward_v I I I I #
coedge $-1 $175 $176 $177 $178 reversed $66 $-1 #
coedge $-1 $109 $68 $179 $180 reversed $43 $-1 #
coedge $-1 $68 $108 $175 $181 reversed $43 $-1 #
coedge $-1 $177 $182 $68 $111 forward $183 $-1 #
edge $-1 $184 18.459844109296078 $185 34.858429688253295 $110 $186 forward 7 unknown #
loop $-1 $-1 $117 $69 #
plane-surface $-1 16.214824080525943 -45.301653634636622 3.0942774033847797 0 -0.55919291073839883 0.82903756765294845 1 0 0 forward_v I I I I #
loop $-1 $-1 $187 $45 #
coedge $-1 $115 $115 $116 $188 reversed $70 $-1 #
coedge $-1 $116 $116 $115 $188 forward $72 $-1 #
coedge $-1 $117 $117 $73 $118 forward $112 $-1 #
edge $-1 $189 -3.3110871717809619e-016 $189 6.2831853071796004 $117 $190 forward 7 unknown #
face $-1 $191 $192 $18 $-1 $193 reversed single #
loop $-1 $-1 $194 $74 #
plane-surface $-1 -73.517868587298196 0 0 1 0 0 0 0 -1 forward_v I I I I #
coedge $-1 $195 $130 $196 $197 forward $75 $-1 #
coedge $-1 $198 $77 $195 $199 forward $49 $-1 #
coedge $-1 $77 $198 $200 $201 forward $49 $-1 #
coedge $-1 $133 $132 $77 $126 reversed $134 $-1 #
edge $-1 $202 -45.301653634636608 $203 45.301653634636608 $125 $204 forward 7 unknown #
coedge $-1 $79 $78 $205 $206 forward $31 $-1 #
coedge $-1 $207 $208 $78 $129 reversed $192 $-1 #
edge $-1 $136 -73.517868587298196 $209 73.517868587298196 $128 $210 forward 7 unknown #
coedge $-1 $122 $211 $79 $131 reversed $75 $-1 #
edge $-1 $212 -73.517868587298196 $135 73.517868587298196 $130 $213 forward 7 unknown #
coedge $-1 $125 $80 $211 $214 forward $134 $-1 #
coedge $-1 $80 $125 $207 $215 reversed $134 $-1 #
loop $-1 $-1 $132 $191 #
vertex $-1 $81 $216 #
vertex $-1 $81 $217 #
straight-curve $-1 73.517868587298196 0 14.155263249720463 0 1 0 I I #
face $-1 $218 $219 $19 $-1 $220 forward single #
loop $-1 $-1 $221 $82 #
plane-surface $-1 -73.517868587298196 0 0 1 0 0 0 0 -1 forward_v I I I I #
coedge $-1 $147 $222 $142 $223 forward $83 $-1 #
coedge $-1 $224 $85 $141 $223 reversed $53 $-1 #
coedge $-1 $85 $224 $225 $226 reversed $53 $-1 #
coedge $-1 $87 $86 $221 $227 reversed $34 $-1 #
coedge $-1 $225 $228 $86 $146 forward $229 $-1 #
edge $-1 $230 -39.277883844020167 $150 -29.202085642535891 $145 $231 forward 7 unknown #
coedge $-1 $232 $141 $87 $148 forward $83 $-1 #
edge $-1 $149 29.202085642535891 $233 39.277883844020167 $147 $234 forward 7 unknown #
vertex $-1 $148 $235 #
vertex $-1 $146 $236 #
straight-curve $-1 -63.442070385813921 0 9.2274673608822599 0 -1 0 I I #
face $-1 $-1 $237 $20 $-1 $238 reversed single #
loop $-1 $-1 $158 $89 #
plane-surface $-1 0 0 14.155263249720463 0 0 1 1 0 0 forward_v I I I I #
coedge $-1 $239 $240 $157 $241 reversed $90 $-1 #
coedge $-1 $242 $92 $94 $162 forward $57 $-1 #
coedge $-1 $92 $242 $155 $241 forward $57 $-1 #
coedge $-1 $243 $95 $92 $159 forward $153 $-1 #
edge $-1 $165 14.955647723231245 $244 37.309497682798863 $158 $245 forward 7 unknown #
coedge $-1 $246 $247 $93 $161 forward $237 $-1 #
edge $-1 $248 -59.401936250950406 $164 -48.34095040461473 $160 $249 forward 7 unknown #
edge $-1 $165 -19.780268372376103 $248 -1.7244626260799089e-014 $94 $250 forward 7 unknown #
coedge $-1 $95 $243 $246 $251 forward $153 $-1 #
vertex $-1 $161 $252 #
vertex $-1 $96 $253 #
straight-curve $-1 -41.088220426246302 -63.761497743932686 14.155263249720463 0 1 0 I I #
coedge $-1 $167 $167 $-1 $254 reversed $99 $-1 #
edge $-1 $255 0 $255 6.2831853071796004 $100 $256 forward 7 unknown #
vertex $-1 $103 $257 #
ellipse-curve $-1 -52.265145406030115 -37.102360845158003 8.6247703265526248 0 -0.55919291073839883 0.82903756765294845 3 0 0 1 I I #
face $-1 $-1 $183 $22 $-1 $258 forward single #
loop $-1 $-1 $259 $104 #
plane-surface $-1 0 -45.301653634636608 0 0 1 0 0 0 1 forward_v I I I I #
coedge $-1 $260 $261 $262 $263 reversed $105 $-1 #
coedge $-1 $264 $107 $109 $181 forward $66 $-1 #
coedge $-1 $107 $264 $260 $265 forward $66 $-1 #
coedge $-1 $262 $110 $107 $178 forward $183 $-1 #
edge $-1 $185 -19.284337020046785 $266 3.0695129395208394 $177 $267 forward 7 unknown #
coedge $-1 $268 $269 $108 $180 forward $172 $-1 #
edge $-1 $270 -59.401936250950406 $184 -48.34095040461473 $179 $271 forward 7 unknown #
edge $-1 $185 -19.780268372376103 $270 -1.7244626260799089e-014 $109 $272 forward 7 unknown #
coedge $-1 $110 $262 $268 $273 forward $183 $-1 #
loop $-1 $-1 $262 $171 #
vertex $-1 $180 $274 #
vertex $-1 $111 $275 #
straight-curve $-1 27.391749060309756 -63.761497743932686 14.155263249720463 0 1 0 I I #
coedge $-1 $187 $187 $-1 $276 reversed $114 $-1 #
edge $-1 $277 0 $277 6.2831853071796004 $115 $278 forward 7 unknown #
vertex $-1 $118 $279 #
ellipse-curve $-1 16.214824080525943 -37.102360845158003 8.6247703265526248 0 -0.55919291073839883 0.82903756765294845 3 0 0 1 I I #
face $-1 $-1 $134 $18 $-1 $280 reversed single #
loop $-1 $-1 $207 $119 #
plane-surface $-1 0 45.301653634636608 0 0 -1 0 0 0 -1 forward_v I I I I #
coedge $-1 $281 $205 $208 $282 forward $120 $-1 #
coedge $-1 $211 $122 $123 $199 reversed $75 $-1 #
coedge $-1 $205 $281 $122 $197 reversed $120 $-1 #
edge $-1 $212 -14.155263249720463 $283 14.155263249720463 $196 $284 forward 7 unknown #
coedge $-1 $124 $123 $281 $285 forward $49 $-1 #
edge $-1 $203 -73.517868587298196 $283 73.517868587298196 $195 $286 forward 7 unknown #
coedge $-1 $208 $207 $124 $201 reversed $192 $-1 #
edge $-1 $287 -73.517868587298196 $202 73.517868587298196 $200 $288 forward 7 unknown #
vertex $-1 $126 $289 #
vertex $-1 $214 $290 #
straight-curve $-1 73.517868587298196 0 -14.155263249720463 0 -1 0 I I #
coedge $-1 $194 $196 $127 $206 reversed $120 $-1 #
edge $-1 $209 -45.301653634636608 $212 45.301653634636608 $205 $291 forward 7 unknown #
coedge $-1 $200 $128 $133 $215 forward $192 $-1 #
coedge $-1 $128 $200 $194 $282 reversed $192 $-1 #
vertex $-1 $129 $292 #
straight-curve $-1 0 45.301653634636608 14.155263249720463 -1 0 0 I I #
coedge $-1 $130 $195 $132 $214 reversed $75 $-1 #
vertex $-1 $206 $293 #
straight-curve $-1 0 -45.301653634636608 14.155263249720463 1 0 0 I I #
edge $-1 $135 -14.155263249720463 $203 14.155263249720463 $132 $294 forward 7 unknown #
edge $-1 $136 -14.155263249720463 $202 14.155263249720463 $133 $295 forward 7 unknown #
point $-1 73.517868587298196 -45.301653634636608 14.155263249720463 #
point $-1 73.517868587298196 45.301653634636608 14.155263249720463 #
face $-1 $-1 $229 $19 $-1 $296 reversed single #
loop $-1 $-1 $297 $138 #
plane-surface $-1 0 0 14.155263249720463 0 0 1 1 0 0 forward_v I I I I #
coedge $-1 $298 $299 $144 $227 forward $139 $-1 #
coedge $-1 $141 $232 $300 $301 reversed $83 $-1 #
edge $-1 $302 -8.3095805970697807 $149 -3.3817847082315797 $141 $303 forward 7 unknown #
coedge $-1 $143 $142 $297 $304 reversed $53 $-1 #
coedge $-1 $305 $145 $143 $226 forward $229 $-1 #
edge $-1 $150 3.3817847082315797 $306 8.3095805970697807 $225 $307 forward 7 unknown #
edge $-1 $233 -45.301653634636608 $230 45.301653634636608 $221 $308 forward 7 unknown #
coedge $-1 $145 $305 $298 $309 forward $229 $-1 #
loop $-1 $-1 $225 $218 #
vertex $-1 $227 $310 #
straight-curve $-1 -34.239984743278029 -45.301653634636608 9.2274673608822599 1 0 0 I I #
coedge $-1 $222 $147 $299 $311 reversed $83 $-1 #
vertex $-1 $227 $312 #
straight-curve $-1 -34.239984743278029 45.301653634636608 9.2274673608822599 -1 0 0 I I #
point $-1 -63.442070385813921 45.301653634636608 9.2274673608822599 #
point $-1 -63.442070385813921 -45.301653634636608 9.2274673608822599 #
loop $-1 $-1 $160 $152 #
plane-surface $-1 0 -45.301653634636608 0 0 1 0 0 0 1 forward_v I I I I #
coedge $-1 $240 $155 $313 $314 reversed $90 $-1 #
coedge $-1 $155 $239 $243 $315 reversed $90 $-1 #
edge $-1 $316 1.7244626260799089e-014 $244 19.780268372376099 $155 $317 forward 7 unknown #
coedge $-1 $157 $156 $247 $318 reversed $57 $-1 #
coedge $-1 $163 $158 $240 $315 forward $153 $-1 #
vertex $-1 $315 $319 #
straight-curve $-1 -26.132572703015057 -28.903068055679391 14.155263249720463 -1 0 0 I I #
coedge $-1 $313 $160 $163 $251 reversed $237 $-1 #
coedge $-1 $160 $313 $242 $318 forward $237 $-1 #
vertex $-1 $161 $320 #
straight-curve $-1 -41.088220426246302 -45.301653634636608 62.496213654335193 0 0 1 I I #
straight-curve $-1 -41.088220426246302 -45.301653634636622 3.0942774033847797 0 -0.82903756765294845 -0.55919291073839883 I I #
edge $-1 $321 -63.442070385813921 $164 -41.088220426246302 $246 $322 forward 7 unknown #
point $-1 -41.088220426246302 -45.301653634636608 14.155263249720463 #
point $-1 -41.088220426246302 -28.903068055679391 14.155263249720463 #
edge $-1 $323 1 $323 0 $167 $-1 forward 7 unknown #
vertex $-1 $168 $324 #
ellipse-curve $-1 -52.265145406030115 -32.646156345142415 2.0181755920472386 0 -0.55919291073839883 0.82903756765294845 3 0 0 1 I I #
point $-1 -49.265145406030115 -37.102360845158003 8.624770326552623 #
plane-surface $-1 0 0 14.155263249720463 0 0 1 1 0 0 forward_v I I I I #
coedge $-1 $269 $268 $261 $325 forward $172 $-1 #
coedge $-1 $261 $174 $176 $265 reversed $105 $-1 #
coedge $-1 $174 $260 $259 $325 reversed $105 $-1 #
coedge $-1 $182 $177 $174 $263 forward $183 $-1 #
edge $-1 $266 -34.858429688253295 $326 -18.459844109296078 $262 $327 forward 7 unknown #
coedge $-1 $176 $175 $269 $328 reversed $66 $-1 #
edge $-1 $329 1.7244626260799089e-014 $266 19.780268372376103 $260 $330 forward 7 unknown #
vertex $-1 $178 $331 #
straight-curve $-1 8.1074120402629717 -28.903068055679391 14.155263249720463 -1 0 0 I I #
coedge $-1 $259 $179 $182 $273 reversed $172 $-1 #
coedge $-1 $179 $259 $264 $328 forward $172 $-1 #
vertex $-1 $180 $332 #
straight-curve $-1 27.391749060309756 -45.301653634636608 62.496213654335193 0 0 1 I I #
straight-curve $-1 27.391749060309756 -45.301653634636622 3.0942774033847797 0 -0.82903756765294845 -0.55919291073839883 I I #
edge $-1 $326 5.0378991007421323 $184 27.391749060309756 $268 $333 forward 7 unknown #
point $-1 27.391749060309756 -45.301653634636608 14.155263249720463 #
point $-1 27.391749060309756 -28.903068055679391 14.155263249720463 #
edge $-1 $334 1 $334 0 $187 $-1 forward 7 unknown #
vertex $-1 $188 $335 #
ellipse-curve $-1 16.214824080525943 -32.646156345142415 2.0181755920472386 0 -0.55919291073839883 0.82903756765294845 3 0 0 1 I I #
point $-1 19.214824080525943 -37.102360845158003 8.624770326552623 #
plane-surface $-1 73.517868587298196 0 0 -1 0 0 0 0 1 forward_v I I I I #
coedge $-1 $196 $194 $198 $285 reversed $120 $-1 #
edge $-1 $209 -14.155263249720463 $287 14.155263249720463 $208 $336 forward 7 unknown #
vertex $-1 $285 $337 #
straight-curve $-1 -73.517868587298196 -45.301653634636608 0 0 0 -1 I I #
edge $-1 $283 -45.301653634636608 $287 45.301653634636608 $281 $338 forward 7 unknown #
straight-curve $-1 0 -45.301653634636608 -14.155263249720463 -1 0 0 I I #
vertex $-1 $201 $339 #
straight-curve $-1 0 45.301653634636608 -14.155263249720463 1 0 0 I I #
point $-1 73.517868587298196 45.301653634636608 -14.155263249720463 #
point $-1 73.517868587298196 -45.301653634636608 -14.155263249720463 #
straight-curve $-1 -73.517868587298196 0 14.155263249720463 0 -1 0 I I #
point $-1 -73.517868587298196 45.301653634636608 14.155263249720463 #
point $-1 -73.517868587298196 -45.301653634636608 14.155263249720463 #
straight-curve $-1 73.517868587298196 -45.301653634636608 0 0 0 -1 I I #
straight-curve $-1 73.517868587298196 45.301653634636608 0 0 0 -1 I I #
plane-surface $-1 0 -45.301653634636608 0 0 1 0 0 0 1 forward_v I I I I #
coedge $-1 $300 $340 $224 $304 forward $219 $-1 #
coedge $-1 $341 $221 $228 $309 reversed $139 $-1 #
coedge $-1 $221 $341 $232 $311 forward $139 $-1 #
coedge $-1 $342 $297 $222 $301 forward $219 $-1 #
edge $-1 $302 63.442070385813921 $343 73.517868587298196 $222 $344 forward 7 unknown #
vertex $-1 $301 $345 #
straight-curve $-1 -63.442070385813921 45.301653634636608 5.8456826526506802 0 0 -1 I I #
edge $-1 $306 -45.301653634636608 $302 45.301653634636608 $297 $346 forward 7 unknown #
coedge $-1 $228 $225 $340 $347 reversed $229 $-1 #
vertex $-1 $226 $348 #
straight-curve $-1 -63.442070385813921 -45.301653634636608 5.8456826526506802 0 0 1 I I #
straight-curve $-1 -73.517868587298196 0 9.2274673608822599 0 -1 0 I I #
edge $-1 $349 -14.155263249720463 $230 -9.2274673608822599 $298 $350 forward 7 unknown #
point $-1 -73.517868587298196 -45.301653634636608 9.2274673608822599 #
edge $-1 $343 -14.155263249720463 $233 -9.2274673608822599 $232 $351 forward 7 unknown #
point $-1 -73.517868587298196 45.301653634636608 9.2274673608822599 #
coedge $-1 $247 $246 $239 $314 forward $237 $-1 #
edge $-1 $321 48.34095040461473 $316 59.401936250950406 $313 $352 forward 7 unknown #
edge $-1 $244 28.903068055679395 $321 45.301653634636608 $243 $353 forward 7 unknown #
vertex $-1 $314 $354 #
straight-curve $-1 -63.442070385813928 -45.301653634636622 3.0942774033847797 0 0.82903756765294845 0.55919291073839883 I I #
edge $-1 $316 -37.30949768279887 $248 -14.955647723231245 $247 $355 forward 7 unknown #
point $-1 -63.442070385813921 -28.903068055679395 14.155263249720463 #
point $-1 -41.088220426246302 -45.301653634636608 3.0942774033847895 #
vertex $-1 $251 $356 #
straight-curve $-1 0 -45.301653634636608 14.155263249720463 1 0 0 I I #
vertex $-1 $254 $357 #
point $-1 -49.265145406030115 -32.646156345142415 2.0181755920472386 #
edge $-1 $326 48.34095040461473 $329 59.401936250950406 $259 $358 forward 7 unknown #
vertex $-1 $273 $359 #
straight-curve $-1 5.0378991007421323 -63.761497743932686 14.155263249720463 0 -1 0 I I #
edge $-1 $329 -3.0695129395208394 $270 19.284337020046785 $269 $360 forward 7 unknown #
vertex $-1 $328 $361 #
straight-curve $-1 5.0378991007421323 -45.301653634636622 3.0942774033847797 0 0.82903756765294845 0.55919291073839883 I I #
point $-1 5.0378991007421323 -28.903068055679391 14.155263249720463 #
point $-1 27.391749060309756 -45.301653634636608 3.0942774033847895 #
straight-curve $-1 0 -45.301653634636608 14.155263249720463 1 0 0 I I #
vertex $-1 $276 $362 #
point $-1 19.214824080525943 -32.646156345142415 2.0181755920472386 #
straight-curve $-1 -73.517868587298196 45.301653634636608 0 0 0 -1 I I #
point $-1 -73.517868587298196 -45.301653634636608 -14.155263249720463 #
straight-curve $-1 -73.517868587298196 0 -14.155263249720463 0 1 0 I I #
point $-1 -73.517868587298196 45.301653634636608 -14.155263249720463 #
coedge $-1 $297 $342 $305 $347 forward $219 $-1 #
coedge $-1 $299 $298 $342 $363 reversed $139 $-1 #
coedge $-1 $340 $300 $341 $363 forward $219 $-1 #
vertex $-1 $301 $364 #
straight-curve $-1 0 45.301653634636608 14.155263249720463 -1 0 0 I I #
point $-1 -63.442070385813921 45.301653634636608 14.155263249720461 #
straight-curve $-1 -63.442070385813921 0 14.155263249720463 0 1 0 I I #
edge $-1 $349 -73.517868587298196 $306 -63.442070385813921 $305 $365 forward 7 unknown #
point $-1 -63.442070385813921 -45.301653634636608 14.155263249720461 #
vertex $-1 $363 $366 #
straight-curve $-1 -73.517868587298196 -45.301653634636608 0 0 0 -1 I I #
straight-curve $-1 -73.517868587298196 45.301653634636608 0 0 0 -1 I I #
straight-curve $-1 -63.442070385813928 -45.301653634636608 62.496213654335193 0 0 -1 I I #
straight-curve $-1 -63.442070385813921 0 14.155263249720463 0 -1 0 I I #
point $-1 -63.442070385813928 -45.301653634636608 3.0942774033847895 #
straight-curve $-1 -26.132572703015057 -45.301653634636608 3.0942774033847895 1 0 0 I I #
point $-1 -63.442070385813921 -45.301653634636608 14.155263249720461 #
point $-1 -52.265145406030115 -30.96857761292722 -0.46893711091160695 #
straight-curve $-1 5.0378991007421323 -45.301653634636608 62.496213654335193 0 0 -1 I I #
point $-1 5.0378991007421323 -45.301653634636608 14.155263249720463 #
straight-curve $-1 8.1074120402629717 -45.301653634636608 3.0942774033847895 1 0 0 I I #
point $-1 5.0378991007421323 -45.301653634636608 3.0942774033847895 #
point $-1 16.214824080525943 -30.96857761292722 -0.46893711091160695 #
edge $-1 $343 -45.301653634636608 $349 45.301653634636608 $341 $367 forward 7 unknown #
point $-1 -73.517868587298196 45.301653634636608 14.155263249720463 #
straight-curve $-1 0 -45.301653634636608 14.155263249720463 1 0 0 I I #
point $-1 -73.517868587298196 -45.301653634636608 14.155263249720463 #
straight-curve $-1 -73.517868587298196 0 14.155263249720463 0 -1 0 I I #
End-of-ACIS-data 