500 0 14 0           
7 Unknown 11 ACIS 5.0 NT 24 Fri Mar 26 20:40:44 1999 
-1 9.9999999999999995e-007 1e-010 
body $-1 $14 $-1 $15 #
body $-1 $16 $-1 $17 #
body $-1 $18 $-1 $19 #
body $-1 $20 $-1 $21 #
body $-1 $22 $-1 $23 #
body $-1 $24 $-1 $25 #
body $-1 $26 $-1 $27 #
body $-1 $28 $-1 $29 #
body $-1 $30 $-1 $31 #
body $-1 $32 $-1 $33 #
body $-1 $34 $-1 $35 #
body $-1 $36 $-1 $37 #
body $-1 $38 $-1 $39 #
body $-1 $40 $-1 $41 #
lump $-1 $-1 $42 $0 #
transform $-1 1 0 0 0 1 0 0 0 1 48.64772484511856 20.037215004568289 6.6421774767180626 1 rotate no_reflect no_shear #
lump $-1 $-1 $43 $1 #
transform $-1 1 0 0 0 1 0 0 0 1 48.64772484511856 20.037215004568289 6.6421774767180626 1 rotate no_reflect no_shear #
lump $-1 $-1 $44 $2 #
transform $-1 1 0 0 0 1 0 0 0 1 48.64772484511856 20.037215004568289 6.6421774767180626 1 rotate no_reflect no_shear #
lump $-1 $-1 $45 $3 #
transform $-1 1 0 0 0 1 0 0 0 1 48.64772484511856 20.037215004568289 6.6421774767180626 1 rotate no_reflect no_shear #
lump $-1 $-1 $46 $4 #
transform $-1 1 0 0 0 1 0 0 0 1 48.64772484511856 20.037215004568289 6.6421774767180626 1 rotate no_reflect no_shear #
lump $-1 $-1 $47 $5 #
transform $-1 1 0 0 0 1 0 0 0 1 48.64772484511856 20.037215004568289 6.6421774767180626 1 rotate no_reflect no_shear #
lump $-1 $-1 $48 $6 #
transform $-1 1 0 0 0 1 0 0 0 1 48.64772484511856 20.037215004568289 6.6421774767180626 1 rotate no_reflect no_shear #
lump $-1 $-1 $49 $7 #
transform $-1 1 0 0 0 1 0 0 0 1 48.64772484511856 20.037215004568289 6.6421774767180626 1 rotate no_reflect no_shear #
lump $-1 $-1 $50 $8 #
transform $-1 1 0 0 0 1 0 0 0 1 48.64772484511856 20.037215004568289 6.6421774767180626 1 rotate no_reflect no_shear #
lump $-1 $-1 $51 $9 #
transform $-1 1 0 0 0 1 0 0 0 1 48.64772484511856 20.037215004568289 6.6421774767180626 1 rotate no_reflect no_shear #
lump $-1 $-1 $52 $10 #
transform $-1 1 0 0 0 1 0 0 0 1 48.64772484511856 20.037215004568289 6.6421774767180626 1 rotate no_reflect no_shear #
lump $-1 $-1 $53 $11 #
transform $-1 1 0 0 0 1 0 0 0 1 48.64772484511856 20.037215004568289 6.6421774767180626 1 rotate no_reflect no_shear #
lump $-1 $-1 $54 $12 #
transform $-1 1 0 0 0 1 0 0 0 1 48.64772484511856 20.037215004568289 6.6421774767180626 1 rotate no_reflect no_shear #
lump $-1 $-1 $55 $13 #
transform $-1 1 0 0 0 1 0 0 0 1 48.64772484511856 20.037215004568289 6.6421774767180626 1 rotate no_reflect no_shear #
shell $-1 $-1 $-1 $56 $-1 $14 #
shell $-1 $-1 $-1 $57 $-1 $16 #
shell $-1 $-1 $-1 $58 $-1 $18 #
shell $-1 $-1 $-1 $59 $-1 $20 #
shell $-1 $-1 $-1 $60 $-1 $22 #
shell $-1 $-1 $-1 $61 $-1 $24 #
shell $-1 $-1 $-1 $62 $-1 $26 #
shell $-1 $-1 $-1 $63 $-1 $28 #
shell $-1 $-1 $-1 $64 $-1 $30 #
shell $-1 $-1 $-1 $65 $-1 $32 #
shell $-1 $-1 $-1 $66 $-1 $34 #
shell $-1 $-1 $-1 $67 $-1 $36 #
shell $-1 $-1 $-1 $68 $-1 $38 #
shell $-1 $-1 $-1 $69 $-1 $40 #
face $-1 $70 $71 $42 $-1 $72 forward single #
face $-1 $73 $74 $43 $-1 $75 forward single #
face $-1 $76 $77 $44 $-1 $78 reversed single #
face $-1 $79 $80 $45 $-1 $81 forward single #
face $-1 $82 $83 $46 $-1 $84 forward single #
face $-1 $85 $86 $47 $-1 $87 reversed single #
face $-1 $88 $89 $48 $-1 $90 forward single #
face $-1 $91 $92 $49 $-1 $93 forward single #
face $-1 $94 $95 $50 $-1 $96 reversed single #
face $-1 $97 $98 $51 $-1 $99 forward single #
face $-1 $100 $101 $52 $-1 $102 forward single #
face $-1 $103 $104 $53 $-1 $105 reversed single #
face $-1 $106 $107 $54 $-1 $108 forward single #
face $-1 $109 $110 $55 $-1 $111 forward single #
face $-1 $112 $113 $42 $-1 $114 reversed single #
loop $-1 $-1 $115 $56 #
plane-surface $-1 0 0 6.6421774767180626 0 0 1 1 0 0 forward_v I I I I #
face $-1 $116 $117 $43 $-1 $118 reversed single #
loop $-1 $-1 $119 $57 #
plane-surface $-1 -46.211375281830769 0 3.8886557626003495 0 0 1 1 0 0 forward_v I I I I #
face $-1 $120 $121 $44 $-1 $122 reversed single #
loop $-1 $-1 $123 $58 #
plane-surface $-1 20.039795770707642 -10.018607502284144 138.03861109438253 0 -1 0 -0.54463904215088732 0 -0.83867056331134215 forward_v I I I I #
face $-1 $124 $125 $45 $-1 $126 forward single #
loop $-1 $127 $128 $59 #
cone-surface $-1 45.906489756724966 -14.31658703862227 4.6103442531593659 -0.54463904215088732 0 -0.83867056331134215 0.41933528165567108 0 -0.27231952107544366 1 I I 0 1 0.5 forward I I I I #
face $-1 $129 $130 $46 $-1 $131 forward single #
loop $-1 $132 $133 $60 #
cone-surface $-1 45.906489756724966 -11.737799316819395 4.6103442531593659 -0.54463904215088732 0 -0.83867056331134215 0.41933528165567108 0 -0.27231952107544366 1 I I 0 1 0.5 forward I I I I #
face $-1 $134 $135 $47 $-1 $136 reversed single #
loop $-1 $-1 $137 $61 #
plane-surface $-1 20.039795770707642 -1.3338120504702551 138.03861109438253 0 -1 0 -0.54463904215088732 0 -0.83867056331134215 forward_v I I I I #
face $-1 $138 $139 $48 $-1 $140 forward single #
loop $-1 $141 $142 $62 #
cone-surface $-1 45.906489756724966 -5.631791586808383 4.6103442531593659 -0.54463904215088732 0 -0.83867056331134215 0.41933528165567108 0 -0.27231952107544366 1 I I 0 1 0.5 forward I I I I #
face $-1 $143 $144 $49 $-1 $145 forward single #
loop $-1 $146 $147 $63 #
cone-surface $-1 45.906489756724966 -3.0530038650055076 4.6103442531593659 -0.54463904215088732 0 -0.83867056331134215 0.41933528165567108 0 -0.27231952107544366 1 I I 0 1 0.5 forward I I I I #
face $-1 $148 $149 $50 $-1 $150 reversed single #
loop $-1 $-1 $151 $64 #
plane-surface $-1 20.039795770707642 7.3509834013436333 138.03861109438253 0 -1 0 -0.54463904215088732 0 -0.83867056331134215 forward_v I I I I #
face $-1 $152 $153 $51 $-1 $154 forward single #
loop $-1 $155 $156 $65 #
cone-surface $-1 45.906489756724966 3.0530038650055076 4.6103442531593659 -0.54463904215088732 0 -0.83867056331134215 0.41933528165567108 0 -0.27231952107544366 1 I I 0 1 0.5 forward I I I I #
face $-1 $157 $158 $52 $-1 $159 forward single #
loop $-1 $160 $161 $66 #
cone-surface $-1 45.906489756724966 5.631791586808383 4.6103442531593659 -0.54463904215088732 0 -0.83867056331134215 0.41933528165567108 0 -0.27231952107544366 1 I I 0 1 0.5 forward I I I I #
face $-1 $162 $163 $53 $-1 $164 reversed single #
loop $-1 $-1 $165 $67 #
plane-surface $-1 20.039795770707642 16.03577885315752 138.03861109438253 0 -1 0 -0.54463904215088732 0 -0.83867056331134215 forward_v I I I I #
face $-1 $166 $167 $54 $-1 $168 forward single #
loop $-1 $169 $170 $68 #
cone-surface $-1 45.906489756724966 11.737799316819398 4.6103442531593659 -0.54463904215088732 0 -0.83867056331134215 0.41933528165567108 0 -0.27231952107544366 1 I I 0 1 0.5 forward I I I I #
face $-1 $171 $172 $55 $-1 $173 forward single #
loop $-1 $174 $175 $69 #
cone-surface $-1 45.906489756724966 14.316587038622274 4.6103442531593659 -0.54463904215088732 0 -0.83867056331134215 0.41933528165567108 0 -0.27231952107544366 1 I I 0 1 0.5 forward I I I I #
face $-1 $176 $177 $42 $-1 $178 reversed single #
loop $-1 $-1 $179 $70 #
plane-surface $-1 0 0 -6.6421774767180626 0 0 1 1 0 0 forward_v I I I I #
coedge $-1 $180 $181 $182 $183 forward $71 $-1 #
face $-1 $184 $185 $43 $-1 $186 reversed single #
loop $-1 $-1 $187 $73 #
plane-surface $-1 -46.211375281830769 0 0.88865576260034862 0 0 1 1 0 0 forward_v I I I I #
coedge $-1 $188 $189 $190 $191 forward $74 $-1 #
face $-1 $192 $193 $44 $-1 $194 reversed single #
loop $-1 $-1 $195 $76 #
plane-surface $-1 -32.951104754222953 -13.027193177720832 56.439781495041018 0.54463904215088732 0 0.83867056331134215 0.83867056331134215 0 -0.54463904215088732 forward_v I I I I #
coedge $-1 $196 $197 $198 $199 reversed $77 $-1 #
face $-1 $-1 $200 $45 $-1 $201 forward single #
loop $-1 $202 $203 $79 #
cone-surface $-1 45.487717566793918 -14.31658703862227 3.9654916420766408 -0.54463904215088732 0 -0.83867056331134215 0.20966764082783554 0 -0.13615976053772183 1 I I -0.70710678118654746 0.70710678118654746 0.25 forward I I I I #
loop $-1 $-1 $204 $59 #
coedge $-1 $128 $128 $205 $206 reversed $80 $-1 #
face $-1 $-1 $207 $46 $-1 $208 forward single #
loop $-1 $209 $210 $82 #
cone-surface $-1 45.487717566793918 -11.737799316819395 3.9654916420766408 -0.54463904215088732 0 -0.83867056331134215 0.20966764082783554 0 -0.13615976053772183 1 I I -0.70710678118654746 0.70710678118654746 0.25 forward I I I I #
loop $-1 $-1 $211 $60 #
coedge $-1 $133 $133 $212 $213 reversed $83 $-1 #
face $-1 $214 $215 $47 $-1 $216 reversed single #
loop $-1 $-1 $217 $85 #
plane-surface $-1 -32.951104754222953 -4.3423977259069435 56.439781495041018 0.54463904215088732 0 0.83867056331134215 0.83867056331134215 0 -0.54463904215088732 forward_v I I I I #
coedge $-1 $218 $219 $220 $221 reversed $86 $-1 #
face $-1 $-1 $222 $48 $-1 $223 forward single #
loop $-1 $224 $225 $88 #
cone-surface $-1 45.487717566793918 -5.631791586808383 3.9654916420766408 -0.54463904215088732 0 -0.83867056331134215 0.20966764082783554 0 -0.13615976053772183 1 I I -0.70710678118654746 0.70710678118654746 0.25 forward I I I I #
loop $-1 $-1 $226 $62 #
coedge $-1 $142 $142 $227 $228 reversed $89 $-1 #
face $-1 $-1 $229 $49 $-1 $230 forward single #
loop $-1 $231 $232 $91 #
cone-surface $-1 45.487717566793918 -3.0530038650055076 3.9654916420766408 -0.54463904215088732 0 -0.83867056331134215 0.20966764082783554 0 -0.13615976053772183 1 I I -0.70710678118654746 0.70710678118654746 0.25 forward I I I I #
loop $-1 $-1 $233 $63 #
coedge $-1 $147 $147 $234 $235 reversed $92 $-1 #
face $-1 $236 $237 $50 $-1 $238 reversed single #
loop $-1 $-1 $239 $94 #
plane-surface $-1 -32.951104754222953 4.3423977259069453 56.439781495041018 0.54463904215088732 0 0.83867056331134215 0.83867056331134215 0 -0.54463904215088732 forward_v I I I I #
coedge $-1 $240 $241 $242 $243 reversed $95 $-1 #
face $-1 $-1 $244 $51 $-1 $245 forward single #
loop $-1 $246 $247 $97 #
cone-surface $-1 45.487717566793918 3.0530038650055076 3.9654916420766408 -0.54463904215088732 0 -0.83867056331134215 0.20966764082783554 0 -0.13615976053772183 1 I I -0.70710678118654746 0.70710678118654746 0.25 forward I I I I #
loop $-1 $-1 $248 $65 #
coedge $-1 $156 $156 $249 $250 reversed $98 $-1 #
face $-1 $-1 $251 $52 $-1 $252 forward single #
loop $-1 $253 $254 $100 #
cone-surface $-1 45.487717566793918 5.631791586808383 3.9654916420766408 -0.54463904215088732 0 -0.83867056331134215 0.20966764082783554 0 -0.13615976053772183 1 I I -0.70710678118654746 0.70710678118654746 0.25 forward I I I I #
loop $-1 $-1 $255 $66 #
coedge $-1 $161 $161 $256 $257 reversed $101 $-1 #
face $-1 $258 $259 $53 $-1 $260 reversed single #
loop $-1 $-1 $261 $103 #
plane-surface $-1 -32.951104754222953 13.027193177720832 56.439781495041018 0.54463904215088732 0 0.83867056331134215 0.83867056331134215 0 -0.54463904215088732 forward_v I I I I #
coedge $-1 $262 $263 $264 $265 reversed $104 $-1 #
face $-1 $-1 $266 $54 $-1 $267 forward single #
loop $-1 $268 $269 $106 #
cone-surface $-1 45.487717566793918 11.737799316819398 3.9654916420766408 -0.54463904215088732 0 -0.83867056331134215 0.20966764082783554 0 -0.13615976053772183 1 I I -0.70710678118654746 0.70710678118654746 0.25 forward I I I I #
loop $-1 $-1 $270 $68 #
coedge $-1 $170 $170 $271 $272 reversed $107 $-1 #
face $-1 $-1 $273 $55 $-1 $274 forward single #
loop $-1 $275 $276 $109 #
cone-surface $-1 45.487717566793918 14.316587038622274 3.9654916420766408 -0.54463904215088732 0 -0.83867056331134215 0.20966764082783554 0 -0.13615976053772183 1 I I -0.70710678118654746 0.70710678118654746 0.25 forward I I I I #
loop $-1 $-1 $277 $69 #
coedge $-1 $175 $175 $278 $279 reversed $110 $-1 #
face $-1 $280 $281 $42 $-1 $282 reversed single #
loop $-1 $-1 $283 $112 #
plane-surface $-1 0 -20.037215004568289 0 0 1 0 0 0 1 forward_v I I I I #
coedge $-1 $284 $285 $286 $287 forward $113 $-1 #
coedge $-1 $288 $115 $289 $290 forward $71 $-1 #
coedge $-1 $115 $288 $291 $292 forward $71 $-1 #
coedge $-1 $293 $294 $115 $183 reversed $295 $-1 #
edge $-1 $296 -20.037215004568289 $297 20.037215004568289 $182 $298 forward 7 unknown #
face $-1 $299 $300 $43 $-1 $301 reversed single #
loop $-1 $-1 $302 $116 #
plane-surface $-1 -43.775025718542977 0 2.3886557626003491 -1 0 0 0 0 1 forward_v I I I I #
coedge $-1 $303 $304 $305 $306 forward $117 $-1 #
coedge $-1 $307 $119 $308 $309 reversed $74 $-1 #
coedge $-1 $119 $307 $310 $311 reversed $74 $-1 #
coedge $-1 $302 $312 $119 $191 reversed $185 $-1 #
edge $-1 $313 -20.037215004568289 $314 20.037215004568289 $190 $315 forward 7 unknown #
face $-1 $316 $317 $44 $-1 $318 reversed single #
loop $-1 $-1 $319 $120 #
plane-surface $-1 20.039795770707642 -16.03577885315752 138.03861109438253 0 1 0 0.54463904215088732 0 0.83867056331134215 forward_v I I I I #
coedge $-1 $320 $321 $322 $323 reversed $121 $-1 #
coedge $-1 $197 $123 $324 $325 reversed $77 $-1 #
coedge $-1 $123 $196 $320 $326 reversed $77 $-1 #
coedge $-1 $322 $327 $123 $199 forward $328 $-1 #
edge $-1 $329 -38.627826959764739 $330 -33.710581641764172 $198 $331 forward 7 unknown #
loop $-1 $-1 $205 $124 #
plane-surface $-1 -32.951104754222953 -13.027193177720832 56.439781495041018 0.54463904215088732 0 0.83867056331134215 0.83867056331134215 0 -0.54463904215088732 forward_v I I I I #
loop $-1 $-1 $332 $79 #
coedge $-1 $203 $203 $204 $333 reversed $125 $-1 #
coedge $-1 $204 $204 $203 $333 forward $127 $-1 #
coedge $-1 $205 $205 $128 $206 forward $200 $-1 #
edge $-1 $334 0 $334 6.2831853071796004 $205 $335 forward 7 unknown #
loop $-1 $-1 $212 $129 #
plane-surface $-1 -32.951104754222953 -13.027193177720832 56.439781495041018 0.54463904215088732 0 0.83867056331134215 0.83867056331134215 0 -0.54463904215088732 forward_v I I I I #
loop $-1 $-1 $336 $82 #
coedge $-1 $210 $210 $211 $337 reversed $130 $-1 #
coedge $-1 $211 $211 $210 $337 forward $132 $-1 #
coedge $-1 $212 $212 $133 $213 forward $207 $-1 #
edge $-1 $338 0 $338 6.2831853071796004 $212 $339 forward 7 unknown #
face $-1 $340 $341 $47 $-1 $342 reversed single #
loop $-1 $-1 $343 $134 #
plane-surface $-1 20.039795770707642 -7.3509834013436315 138.03861109438253 0 1 0 0.54463904215088732 0 0.83867056331134215 forward_v I I I I #
coedge $-1 $344 $345 $346 $347 reversed $135 $-1 #
coedge $-1 $219 $137 $348 $349 reversed $86 $-1 #
coedge $-1 $137 $218 $344 $350 reversed $86 $-1 #
coedge $-1 $346 $351 $137 $221 forward $352 $-1 #
edge $-1 $353 -38.627826959764739 $354 -33.710581641764172 $220 $355 forward 7 unknown #
loop $-1 $-1 $227 $138 #
plane-surface $-1 -32.951104754222953 -4.3423977259069435 56.439781495041018 0.54463904215088732 0 0.83867056331134215 0.83867056331134215 0 -0.54463904215088732 forward_v I I I I #
loop $-1 $-1 $356 $88 #
coedge $-1 $225 $225 $226 $357 reversed $139 $-1 #
coedge $-1 $226 $226 $225 $357 forward $141 $-1 #
coedge $-1 $227 $227 $142 $228 forward $222 $-1 #
edge $-1 $358 0 $358 6.2831853071796004 $227 $359 forward 7 unknown #
loop $-1 $-1 $234 $143 #
plane-surface $-1 -32.951104754222953 -4.3423977259069435 56.439781495041018 0.54463904215088732 0 0.83867056331134215 0.83867056331134215 0 -0.54463904215088732 forward_v I I I I #
loop $-1 $-1 $360 $91 #
coedge $-1 $232 $232 $233 $361 reversed $144 $-1 #
coedge $-1 $233 $233 $232 $361 forward $146 $-1 #
coedge $-1 $234 $234 $147 $235 forward $229 $-1 #
edge $-1 $362 0 $362 6.2831853071796004 $234 $363 forward 7 unknown #
face $-1 $364 $365 $50 $-1 $366 reversed single #
loop $-1 $-1 $367 $148 #
plane-surface $-1 20.039795770707642 1.3338120504702569 138.03861109438253 0 1 0 0.54463904215088732 0 0.83867056331134215 forward_v I I I I #
coedge $-1 $368 $369 $370 $371 reversed $149 $-1 #
coedge $-1 $241 $151 $372 $373 reversed $95 $-1 #
coedge $-1 $151 $240 $368 $374 reversed $95 $-1 #
coedge $-1 $370 $375 $151 $243 forward $376 $-1 #
edge $-1 $377 -38.627826959764739 $378 -33.710581641764172 $242 $379 forward 7 unknown #
loop $-1 $-1 $249 $152 #
plane-surface $-1 -32.951104754222953 4.3423977259069453 56.439781495041018 0.54463904215088732 0 0.83867056331134215 0.83867056331134215 0 -0.54463904215088732 forward_v I I I I #
loop $-1 $-1 $380 $97 #
coedge $-1 $247 $247 $248 $381 reversed $153 $-1 #
coedge $-1 $248 $248 $247 $381 forward $155 $-1 #
coedge $-1 $249 $249 $156 $250 forward $244 $-1 #
edge $-1 $382 0 $382 6.2831853071796004 $249 $383 forward 7 unknown #
loop $-1 $-1 $256 $157 #
plane-surface $-1 -32.951104754222953 4.3423977259069453 56.439781495041018 0.54463904215088732 0 0.83867056331134215 0.83867056331134215 0 -0.54463904215088732 forward_v I I I I #
loop $-1 $-1 $384 $100 #
coedge $-1 $254 $254 $255 $385 reversed $158 $-1 #
coedge $-1 $255 $255 $254 $385 forward $160 $-1 #
coedge $-1 $256 $256 $161 $257 forward $251 $-1 #
edge $-1 $386 0 $386 6.2831853071796004 $256 $387 forward 7 unknown #
face $-1 $388 $389 $53 $-1 $390 reversed single #
loop $-1 $-1 $391 $162 #
plane-surface $-1 20.039795770707642 10.018607502284144 138.03861109438253 0 1 0 0.54463904215088732 0 0.83867056331134215 forward_v I I I I #
coedge $-1 $392 $393 $394 $395 reversed $163 $-1 #
coedge $-1 $263 $165 $396 $397 reversed $104 $-1 #
coedge $-1 $165 $262 $392 $398 reversed $104 $-1 #
coedge $-1 $394 $399 $165 $265 forward $400 $-1 #
edge $-1 $401 -38.627826959764739 $402 -33.710581641764172 $264 $403 forward 7 unknown #
loop $-1 $-1 $271 $166 #
plane-surface $-1 -32.951104754222953 13.027193177720832 56.439781495041018 0.54463904215088732 0 0.83867056331134215 0.83867056331134215 0 -0.54463904215088732 forward_v I I I I #
loop $-1 $-1 $404 $106 #
coedge $-1 $269 $269 $270 $405 reversed $167 $-1 #
coedge $-1 $270 $270 $269 $405 forward $169 $-1 #
coedge $-1 $271 $271 $170 $272 forward $266 $-1 #
edge $-1 $406 0 $406 6.2831853071796004 $271 $407 forward 7 unknown #
loop $-1 $-1 $278 $171 #
plane-surface $-1 -32.951104754222953 13.027193177720832 56.439781495041018 0.54463904215088732 0 0.83867056331134215 0.83867056331134215 0 -0.54463904215088732 forward_v I I I I #
loop $-1 $-1 $408 $109 #
coedge $-1 $276 $276 $277 $409 reversed $172 $-1 #
coedge $-1 $277 $277 $276 $409 forward $174 $-1 #
coedge $-1 $278 $278 $175 $279 forward $273 $-1 #
edge $-1 $410 0 $410 6.2831853071796004 $278 $411 forward 7 unknown #
face $-1 $412 $413 $42 $-1 $414 reversed single #
loop $-1 $-1 $415 $176 #
plane-surface $-1 -48.64772484511856 0 0 1 0 0 0 0 -1 forward_v I I I I #
coedge $-1 $416 $291 $417 $418 forward $177 $-1 #
coedge $-1 $419 $179 $416 $420 forward $113 $-1 #
coedge $-1 $179 $419 $421 $422 forward $113 $-1 #
coedge $-1 $294 $293 $179 $287 reversed $295 $-1 #
edge $-1 $423 -20.037215004568289 $424 20.037215004568289 $286 $425 forward 7 unknown #
coedge $-1 $181 $180 $426 $427 forward $71 $-1 #
coedge $-1 $428 $429 $180 $290 reversed $413 $-1 #
edge $-1 $297 -48.64772484511856 $430 48.64772484511856 $289 $431 forward 7 unknown #
coedge $-1 $283 $432 $181 $292 reversed $177 $-1 #
edge $-1 $433 -48.64772484511856 $296 48.64772484511856 $291 $434 forward 7 unknown #
coedge $-1 $286 $182 $432 $435 forward $295 $-1 #
coedge $-1 $182 $286 $428 $436 reversed $295 $-1 #
loop $-1 $-1 $293 $412 #
vertex $-1 $183 $437 #
vertex $-1 $183 $438 #
straight-curve $-1 48.64772484511856 0 6.6421774767180626 0 1 0 I I #
face $-1 $439 $440 $43 $-1 $441 reversed single #
loop $-1 $-1 $442 $184 #
plane-surface $-1 0 -20.037215004568289 0 0 1 0 0 0 1 forward_v I I I I #
coedge $-1 $305 $190 $443 $444 reversed $185 $-1 #
coedge $-1 $445 $187 $442 $446 reversed $117 $-1 #
coedge $-1 $187 $445 $447 $448 reversed $117 $-1 #
coedge $-1 $312 $302 $187 $306 reversed $185 $-1 #
edge $-1 $449 -20.037215004568289 $450 20.037215004568289 $305 $451 forward 7 unknown #
coedge $-1 $189 $188 $452 $453 reversed $74 $-1 #
coedge $-1 $454 $455 $188 $309 forward $456 $-1 #
edge $-1 $457 -25.542037204203176 $314 -20.669338077627593 $308 $458 forward 7 unknown #
coedge $-1 $459 $443 $189 $311 forward $300 $-1 #
edge $-1 $313 20.669338077627593 $460 25.542037204203176 $310 $461 forward 7 unknown #
coedge $-1 $190 $305 $454 $462 reversed $185 $-1 #
vertex $-1 $311 $463 #
vertex $-1 $309 $464 #
straight-curve $-1 -43.775025718542977 0 3.8886557626003495 0 1 0 I I #
face $-1 $-1 $328 $44 $-1 $465 forward single #
loop $-1 $-1 $466 $192 #
plane-surface $-1 48.64772484511856 0 0 -1 0 0 0 0 1 forward_v I I I I #
coedge $-1 $467 $468 $469 $470 reversed $193 $-1 #
coedge $-1 $471 $195 $197 $326 forward $121 $-1 #
coedge $-1 $195 $471 $467 $472 forward $121 $-1 #
coedge $-1 $469 $198 $195 $323 forward $328 $-1 #
edge $-1 $330 3.5050109134237282 $473 9.5221822642971041 $322 $474 forward 7 unknown #
coedge $-1 $475 $476 $196 $325 forward $317 $-1 #
edge $-1 $477 -65.570424577080843 $329 -62.377128070473205 $324 $478 forward 7 unknown #
edge $-1 $330 91.432306838786957 $477 97.29544969023712 $197 $479 forward 7 unknown #
coedge $-1 $198 $469 $475 $480 forward $328 $-1 #
loop $-1 $-1 $469 $316 #
vertex $-1 $325 $481 #
vertex $-1 $199 $482 #
straight-curve $-1 10.019897885353821 -10.018607502284144 6.6421774767180608 -1 0 0 I I #
coedge $-1 $332 $332 $-1 $483 reversed $202 $-1 #
edge $-1 $484 0 $484 6.2831853071796004 $203 $485 forward 7 unknown #
vertex $-1 $206 $486 #
ellipse-curve $-1 46.189102186118276 -14.31658703862227 5.0455292234142357 0.54463904215088732 0 0.83867056331134215 0.41933528165567108 0 -0.27231952107544366 1 I I #
coedge $-1 $336 $336 $-1 $487 reversed $209 $-1 #
edge $-1 $488 0 $488 6.2831853071796004 $210 $489 forward 7 unknown #
vertex $-1 $213 $490 #
ellipse-curve $-1 46.189102186118276 -11.737799316819395 5.0455292234142357 0.54463904215088732 0 0.83867056331134215 0.41933528165567108 0 -0.27231952107544366 1 I I #
face $-1 $-1 $352 $47 $-1 $491 forward single #
loop $-1 $-1 $492 $214 #
plane-surface $-1 48.64772484511856 0 0 -1 0 0 0 0 1 forward_v I I I I #
coedge $-1 $493 $494 $495 $496 reversed $215 $-1 #
coedge $-1 $497 $217 $219 $350 forward $135 $-1 #
coedge $-1 $217 $497 $493 $498 forward $135 $-1 #
coedge $-1 $495 $220 $217 $347 forward $352 $-1 #
edge $-1 $354 -0.83738681248321667 $499 5.1797845383901597 $346 $500 forward 7 unknown #
coedge $-1 $501 $502 $218 $349 forward $341 $-1 #
edge $-1 $503 -65.570424577080843 $353 -62.377128070473205 $348 $504 forward 7 unknown #
edge $-1 $354 91.432306838786957 $503 97.29544969023712 $219 $505 forward 7 unknown #
coedge $-1 $220 $495 $501 $506 forward $352 $-1 #
loop $-1 $-1 $495 $340 #
vertex $-1 $349 $507 #
vertex $-1 $221 $508 #
straight-curve $-1 10.019897885353821 -1.3338120504702551 6.6421774767180608 -1 0 0 I I #
coedge $-1 $356 $356 $-1 $509 reversed $224 $-1 #
edge $-1 $510 0 $510 6.2831853071796004 $225 $511 forward 7 unknown #
vertex $-1 $228 $512 #
ellipse-curve $-1 46.189102186118276 -5.631791586808383 5.0455292234142357 0.54463904215088732 0 0.83867056331134215 0.41933528165567108 0 -0.27231952107544366 1 I I #
coedge $-1 $360 $360 $-1 $513 reversed $231 $-1 #
edge $-1 $514 0 $514 6.2831853071796004 $232 $515 forward 7 unknown #
vertex $-1 $235 $516 #
ellipse-curve $-1 46.189102186118276 -3.0530038650055076 5.0455292234142357 0.54463904215088732 0 0.83867056331134215 0.41933528165567108 0 -0.27231952107544366 1 I I #
face $-1 $-1 $376 $50 $-1 $517 forward single #
loop $-1 $-1 $518 $236 #
plane-surface $-1 48.64772484511856 0 0 -1 0 0 0 0 1 forward_v I I I I #
coedge $-1 $519 $520 $521 $522 reversed $237 $-1 #
coedge $-1 $523 $239 $241 $374 forward $149 $-1 #
coedge $-1 $239 $523 $519 $524 forward $149 $-1 #
coedge $-1 $521 $242 $239 $371 forward $376 $-1 #
edge $-1 $378 -5.1797845383901606 $525 0.83738681248321578 $370 $526 forward 7 unknown #
coedge $-1 $527 $528 $240 $373 forward $365 $-1 #
edge $-1 $529 -65.570424577080843 $377 -62.377128070473205 $372 $530 forward 7 unknown #
edge $-1 $378 91.432306838786957 $529 97.29544969023712 $241 $531 forward 7 unknown #
coedge $-1 $242 $521 $527 $532 forward $376 $-1 #
loop $-1 $-1 $521 $364 #
vertex $-1 $373 $533 #
vertex $-1 $243 $534 #
straight-curve $-1 10.019897885353821 7.3509834013436333 6.6421774767180608 -1 0 0 I I #
coedge $-1 $380 $380 $-1 $535 reversed $246 $-1 #
edge $-1 $536 0 $536 6.2831853071796004 $247 $537 forward 7 unknown #
vertex $-1 $250 $538 #
ellipse-curve $-1 46.189102186118276 3.0530038650055076 5.0455292234142357 0.54463904215088732 0 0.83867056331134215 0.41933528165567108 0 -0.27231952107544366 1 I I #
coedge $-1 $384 $384 $-1 $539 reversed $253 $-1 #
edge $-1 $540 0 $540 6.2831853071796004 $254 $541 forward 7 unknown #
vertex $-1 $257 $542 #
ellipse-curve $-1 46.189102186118276 5.631791586808383 5.0455292234142357 0.54463904215088732 0 0.83867056331134215 0.41933528165567108 0 -0.27231952107544366 1 I I #
face $-1 $-1 $400 $53 $-1 $543 forward single #
loop $-1 $-1 $544 $258 #
plane-surface $-1 48.64772484511856 0 0 -1 0 0 0 0 1 forward_v I I I I #
coedge $-1 $545 $546 $547 $548 reversed $259 $-1 #
coedge $-1 $549 $261 $263 $398 forward $163 $-1 #
coedge $-1 $261 $549 $545 $550 forward $163 $-1 #
coedge $-1 $547 $264 $261 $395 forward $400 $-1 #
edge $-1 $402 -9.5221822642971041 $551 -3.5050109134237282 $394 $552 forward 7 unknown #
coedge $-1 $553 $554 $262 $397 forward $389 $-1 #
edge $-1 $555 -65.570424577080843 $401 -62.377128070473205 $396 $556 forward 7 unknown #
edge $-1 $402 91.432306838786957 $555 97.29544969023712 $263 $557 forward 7 unknown #
coedge $-1 $264 $547 $553 $558 forward $400 $-1 #
loop $-1 $-1 $547 $388 #
vertex $-1 $397 $559 #
vertex $-1 $265 $560 #
straight-curve $-1 10.019897885353821 16.03577885315752 6.6421774767180608 -1 0 0 I I #
coedge $-1 $404 $404 $-1 $561 reversed $268 $-1 #
edge $-1 $562 0 $562 6.2831853071796004 $269 $563 forward 7 unknown #
vertex $-1 $272 $564 #
ellipse-curve $-1 46.189102186118276 11.737799316819398 5.0455292234142357 0.54463904215088732 0 0.83867056331134215 0.41933528165567108 0 -0.27231952107544366 1 I I #
coedge $-1 $408 $408 $-1 $565 reversed $275 $-1 #
edge $-1 $566 0 $566 6.2831853071796004 $276 $567 forward 7 unknown #
vertex $-1 $279 $568 #
ellipse-curve $-1 46.189102186118276 14.316587038622274 5.0455292234142357 0.54463904215088732 0 0.83867056331134215 0.41933528165567108 0 -0.27231952107544366 1 I I #
face $-1 $-1 $295 $42 $-1 $569 reversed single #
loop $-1 $-1 $428 $280 #
plane-surface $-1 0 20.037215004568289 0 0 -1 0 0 0 -1 forward_v I I I I #
coedge $-1 $570 $426 $429 $571 forward $281 $-1 #
coedge $-1 $432 $283 $284 $420 reversed $177 $-1 #
coedge $-1 $426 $570 $283 $418 reversed $281 $-1 #
edge $-1 $433 -6.6421774767180626 $572 6.6421774767180626 $417 $573 forward 7 unknown #
coedge $-1 $285 $284 $570 $574 forward $113 $-1 #
edge $-1 $424 -48.64772484511856 $572 48.64772484511856 $416 $575 forward 7 unknown #
coedge $-1 $429 $428 $285 $422 reversed $413 $-1 #
edge $-1 $576 -48.64772484511856 $423 48.64772484511856 $421 $577 forward 7 unknown #
vertex $-1 $287 $578 #
vertex $-1 $435 $579 #
straight-curve $-1 48.64772484511856 0 -6.6421774767180626 0 -1 0 I I #
coedge $-1 $415 $417 $288 $427 reversed $281 $-1 #
edge $-1 $430 -20.037215004568289 $433 20.037215004568289 $426 $580 forward 7 unknown #
coedge $-1 $421 $289 $294 $436 forward $413 $-1 #
coedge $-1 $289 $421 $415 $571 reversed $413 $-1 #
vertex $-1 $290 $581 #
straight-curve $-1 0 20.037215004568289 6.6421774767180626 -1 0 0 I I #
coedge $-1 $291 $416 $293 $435 reversed $177 $-1 #
vertex $-1 $427 $582 #
straight-curve $-1 0 -20.037215004568289 6.6421774767180626 1 0 0 I I #
edge $-1 $296 -6.6421774767180626 $424 6.6421774767180626 $293 $583 forward 7 unknown #
edge $-1 $297 -6.6421774767180626 $423 6.6421774767180626 $294 $584 forward 7 unknown #
point $-1 48.64772484511856 -20.037215004568289 6.6421774767180626 #
point $-1 48.64772484511856 20.037215004568289 6.6421774767180626 #
face $-1 $-1 $456 $43 $-1 $585 reversed single #
loop $-1 $-1 $586 $299 #
plane-surface $-1 -48.64772484511856 0 0 1 0 0 0 0 -1 forward_v I I I I #
coedge $-1 $443 $459 $303 $446 forward $300 $-1 #
coedge $-1 $310 $442 $302 $444 forward $300 $-1 #
edge $-1 $450 -0.30567211869982591 $313 2.694327881300175 $443 $587 forward 7 unknown #
coedge $-1 $304 $303 $586 $588 reversed $117 $-1 #
edge $-1 $589 -25.542037204203176 $450 -20.669338077627593 $442 $590 forward 7 unknown #
coedge $-1 $455 $454 $304 $448 forward $456 $-1 #
edge $-1 $449 20.669338077627593 $591 25.542037204203176 $447 $592 forward 7 unknown #
vertex $-1 $448 $593 #
vertex $-1 $446 $594 #
straight-curve $-1 -43.775025718542977 0 0.88865576260034862 0 -1 0 I I #
coedge $-1 $595 $596 $307 $453 forward $440 $-1 #
edge $-1 $460 -20.037215004568289 $457 20.037215004568289 $452 $597 forward 7 unknown #
coedge $-1 $447 $308 $312 $462 forward $456 $-1 #
coedge $-1 $308 $447 $595 $598 reversed $456 $-1 #
loop $-1 $-1 $447 $439 #
vertex $-1 $598 $599 #
straight-curve $-1 -23.105687640915384 20.037215004568289 3.8886557626003495 1 0 0 I I #
coedge $-1 $442 $310 $596 $600 forward $300 $-1 #
vertex $-1 $600 $601 #
straight-curve $-1 -23.105687640915384 -20.037215004568289 3.8886557626003495 -1 0 0 I I #
edge $-1 $314 -2.694327881300175 $449 0.30567211869982591 $454 $602 forward 7 unknown #
point $-1 -43.775025718542977 -20.037215004568289 3.8886557626003495 #
point $-1 -43.775025718542977 20.037215004568289 3.8886557626003495 #
plane-surface $-1 0 0 6.6421774767180626 0 0 1 1 0 0 forward_v I I I I #
coedge $-1 $476 $475 $468 $603 forward $317 $-1 #
coedge $-1 $468 $319 $321 $472 reversed $193 $-1 #
coedge $-1 $319 $467 $466 $603 reversed $193 $-1 #
coedge $-1 $327 $322 $319 $470 forward $328 $-1 #
edge $-1 $473 33.710581641764172 $604 38.627826959764739 $469 $605 forward 7 unknown #
coedge $-1 $321 $320 $476 $606 reversed $121 $-1 #
edge $-1 $607 -97.29544969023712 $473 -91.432306838786957 $467 $608 forward 7 unknown #
vertex $-1 $323 $609 #
straight-curve $-1 43.730479527117993 -6.5135965888604161 6.6421774767180608 0 -1 0 I I #
coedge $-1 $466 $324 $327 $480 reversed $317 $-1 #
coedge $-1 $324 $466 $471 $606 forward $317 $-1 #
vertex $-1 $325 $610 #
straight-curve $-1 48.64772484511856 -10.018607502284144 69.019305547191266 0 0 1 I I #
straight-curve $-1 -32.951104754222953 -10.018607502284144 56.439781495041018 0.83867056331134215 0 -0.54463904215088732 I I #
edge $-1 $604 -16.03577885315752 $329 -10.018607502284144 $475 $611 forward 7 unknown #
point $-1 48.64772484511856 -10.018607502284144 6.6421774767180626 #
point $-1 43.730479527117993 -10.018607502284144 6.6421774767180608 #
edge $-1 $612 1 $612 0 $332 $-1 forward 7 unknown #
vertex $-1 $333 $613 #
ellipse-curve $-1 45.623877327331641 -14.31658703862227 4.1751592829044766 0.54463904215088732 0 0.83867056331134215 0.41933528165567108 0 -0.27231952107544366 1 I I #
point $-1 46.60843746777396 -14.31658703862227 4.7732097023388107 #
edge $-1 $614 1 $614 0 $336 $-1 forward 7 unknown #
vertex $-1 $337 $615 #
ellipse-curve $-1 45.623877327331641 -11.737799316819395 4.1751592829044766 0.54463904215088732 0 0.83867056331134215 0.41933528165567108 0 -0.27231952107544366 1 I I #
point $-1 46.60843746777396 -11.737799316819395 4.7732097023388107 #
plane-surface $-1 0 0 6.6421774767180626 0 0 1 1 0 0 forward_v I I I I #
coedge $-1 $502 $501 $494 $616 forward $341 $-1 #
coedge $-1 $494 $343 $345 $498 reversed $215 $-1 #
coedge $-1 $343 $493 $492 $616 reversed $215 $-1 #
coedge $-1 $351 $346 $343 $496 forward $352 $-1 #
edge $-1 $499 33.710581641764172 $617 38.627826959764739 $495 $618 forward 7 unknown #
coedge $-1 $345 $344 $502 $619 reversed $135 $-1 #
edge $-1 $620 -97.29544969023712 $499 -91.432306838786957 $493 $621 forward 7 unknown #
vertex $-1 $347 $622 #
straight-curve $-1 43.730479527117993 -2.1711988629534718 6.6421774767180608 0 -1 0 I I #
coedge $-1 $492 $348 $351 $506 reversed $341 $-1 #
coedge $-1 $348 $492 $497 $619 forward $341 $-1 #
vertex $-1 $349 $623 #
straight-curve $-1 48.64772484511856 -1.3338120504702551 69.019305547191266 0 0 1 I I #
straight-curve $-1 -32.951104754222953 -1.3338120504702551 56.439781495041018 0.83867056331134215 0 -0.54463904215088732 I I #
edge $-1 $617 -7.3509834013436315 $353 -1.3338120504702551 $501 $624 forward 7 unknown #
point $-1 48.64772484511856 -1.3338120504702551 6.6421774767180626 #
point $-1 43.730479527117993 -1.3338120504702551 6.6421774767180608 #
edge $-1 $625 1 $625 0 $356 $-1 forward 7 unknown #
vertex $-1 $357 $626 #
ellipse-curve $-1 45.623877327331641 -5.631791586808383 4.1751592829044766 0.54463904215088732 0 0.83867056331134215 0.41933528165567108 0 -0.27231952107544366 1 I I #
point $-1 46.60843746777396 -5.631791586808383 4.7732097023388107 #
edge $-1 $627 1 $627 0 $360 $-1 forward 7 unknown #
vertex $-1 $361 $628 #
ellipse-curve $-1 45.623877327331641 -3.0530038650055076 4.1751592829044766 0.54463904215088732 0 0.83867056331134215 0.41933528165567108 0 -0.27231952107544366 1 I I #
point $-1 46.60843746777396 -3.0530038650055076 4.7732097023388107 #
plane-surface $-1 0 0 6.6421774767180626 0 0 1 1 0 0 forward_v I I I I #
coedge $-1 $528 $527 $520 $629 forward $365 $-1 #
coedge $-1 $520 $367 $369 $524 reversed $237 $-1 #
coedge $-1 $367 $519 $518 $629 reversed $237 $-1 #
coedge $-1 $375 $370 $367 $522 forward $376 $-1 #
edge $-1 $525 33.710581641764172 $630 38.627826959764739 $521 $631 forward 7 unknown #
coedge $-1 $369 $368 $528 $632 reversed $149 $-1 #
edge $-1 $633 -97.29544969023712 $525 -91.432306838786957 $519 $634 forward 7 unknown #
vertex $-1 $371 $635 #
straight-curve $-1 43.730479527117993 2.1711988629534726 6.6421774767180608 0 -1 0 I I #
coedge $-1 $518 $372 $375 $532 reversed $365 $-1 #
coedge $-1 $372 $518 $523 $632 forward $365 $-1 #
vertex $-1 $373 $636 #
straight-curve $-1 48.64772484511856 7.3509834013436333 69.019305547191266 0 0 1 I I #
straight-curve $-1 -32.951104754222953 7.3509834013436333 56.439781495041018 0.83867056331134215 0 -0.54463904215088732 I I #
edge $-1 $630 1.3338120504702569 $377 7.3509834013436333 $527 $637 forward 7 unknown #
point $-1 48.64772484511856 7.3509834013436333 6.6421774767180626 #
point $-1 43.730479527117993 7.3509834013436333 6.6421774767180608 #
edge $-1 $638 1 $638 0 $380 $-1 forward 7 unknown #
vertex $-1 $381 $639 #
ellipse-curve $-1 45.623877327331641 3.0530038650055076 4.1751592829044766 0.54463904215088732 0 0.83867056331134215 0.41933528165567108 0 -0.27231952107544366 1 I I #
point $-1 46.60843746777396 3.0530038650055076 4.7732097023388107 #
edge $-1 $640 1 $640 0 $384 $-1 forward 7 unknown #
vertex $-1 $385 $641 #
ellipse-curve $-1 45.623877327331641 5.631791586808383 4.1751592829044766 0.54463904215088732 0 0.83867056331134215 0.41933528165567108 0 -0.27231952107544366 1 I I #
point $-1 46.60843746777396 5.631791586808383 4.7732097023388107 #
plane-surface $-1 0 0 6.6421774767180626 0 0 1 1 0 0 forward_v I I I I #
coedge $-1 $554 $553 $546 $642 forward $389 $-1 #
coedge $-1 $546 $391 $393 $550 reversed $259 $-1 #
coedge $-1 $391 $545 $544 $642 reversed $259 $-1 #
coedge $-1 $399 $394 $391 $548 forward $400 $-1 #
edge $-1 $551 33.710581641764172 $643 38.627826959764739 $547 $644 forward 7 unknown #
coedge $-1 $393 $392 $554 $645 reversed $163 $-1 #
edge $-1 $646 -97.29544969023712 $551 -91.432306838786957 $545 $647 forward 7 unknown #
vertex $-1 $395 $648 #
straight-curve $-1 43.730479527117993 6.5135965888604161 6.6421774767180608 0 -1 0 I I #
coedge $-1 $544 $396 $399 $558 reversed $389 $-1 #
coedge $-1 $396 $544 $549 $645 forward $389 $-1 #
vertex $-1 $397 $649 #
straight-curve $-1 48.64772484511856 16.03577885315752 69.019305547191266 0 0 1 I I #
straight-curve $-1 -32.951104754222953 16.03577885315752 56.439781495041018 0.83867056331134215 0 -0.54463904215088732 I I #
edge $-1 $643 10.018607502284144 $401 16.03577885315752 $553 $650 forward 7 unknown #
point $-1 48.64772484511856 16.03577885315752 6.6421774767180626 #
point $-1 43.730479527117993 16.03577885315752 6.6421774767180608 #
edge $-1 $651 1 $651 0 $404 $-1 forward 7 unknown #
vertex $-1 $405 $652 #
ellipse-curve $-1 45.623877327331641 11.737799316819398 4.1751592829044766 0.54463904215088732 0 0.83867056331134215 0.41933528165567108 0 -0.27231952107544366 1 I I #
point $-1 46.60843746777396 11.737799316819398 4.7732097023388107 #
edge $-1 $653 1 $653 0 $408 $-1 forward 7 unknown #
vertex $-1 $409 $654 #
ellipse-curve $-1 45.623877327331641 14.316587038622274 4.1751592829044766 0.54463904215088732 0 0.83867056331134215 0.41933528165567108 0 -0.27231952107544366 1 I I #
point $-1 46.60843746777396 14.316587038622274 4.7732097023388107 #
plane-surface $-1 48.64772484511856 0 0 -1 0 0 0 0 1 forward_v I I I I #
coedge $-1 $417 $415 $419 $574 reversed $281 $-1 #
edge $-1 $430 -6.6421774767180626 $576 6.6421774767180626 $429 $655 forward 7 unknown #
vertex $-1 $574 $656 #
straight-curve $-1 -48.64772484511856 -20.037215004568289 0 0 0 -1 I I #
edge $-1 $572 -20.037215004568289 $576 20.037215004568289 $570 $657 forward 7 unknown #
straight-curve $-1 0 -20.037215004568289 -6.6421774767180626 -1 0 0 I I #
vertex $-1 $422 $658 #
straight-curve $-1 0 20.037215004568289 -6.6421774767180626 1 0 0 I I #
point $-1 48.64772484511856 20.037215004568289 -6.6421774767180626 #
point $-1 48.64772484511856 -20.037215004568289 -6.6421774767180626 #
straight-curve $-1 -48.64772484511856 0 6.6421774767180626 0 -1 0 I I #
point $-1 -48.64772484511856 20.037215004568289 6.6421774767180626 #
point $-1 -48.64772484511856 -20.037215004568289 6.6421774767180626 #
straight-curve $-1 48.64772484511856 -20.037215004568289 0 0 0 -1 I I #
straight-curve $-1 48.64772484511856 20.037215004568289 0 0 0 -1 I I #
plane-surface $-1 0 20.037215004568289 0 0 -1 0 0 0 -1 forward_v I I I I #
coedge $-1 $596 $595 $445 $588 forward $440 $-1 #
straight-curve $-1 -43.775025718542977 -20.037215004568289 1.1943278813001745 0 0 1 I I #
edge $-1 $591 -20.037215004568289 $589 20.037215004568289 $586 $659 forward 7 unknown #
vertex $-1 $446 $660 #
straight-curve $-1 -23.105687640915384 -20.037215004568289 0.88865576260034862 1 0 0 I I #
vertex $-1 $448 $661 #
straight-curve $-1 -23.105687640915384 20.037215004568289 0.88865576260034862 -1 0 0 I I #
point $-1 -43.775025718542977 20.037215004568289 0.88865576260034862 #
point $-1 -43.775025718542977 -20.037215004568289 0.88865576260034862 #
coedge $-1 $586 $452 $455 $598 forward $440 $-1 #
coedge $-1 $452 $586 $459 $600 reversed $440 $-1 #
straight-curve $-1 -48.64772484511856 0 3.8886557626003495 0 1 0 I I #
edge $-1 $457 -3.8886557626003495 $591 -0.88865576260034862 $455 $662 forward 7 unknown #
point $-1 -48.64772484511856 20.037215004568289 3.8886557626003495 #
edge $-1 $460 -3.8886557626003495 $589 -0.88865576260034862 $596 $663 forward 7 unknown #
point $-1 -48.64772484511856 -20.037215004568289 3.8886557626003495 #
straight-curve $-1 -43.775025718542977 20.037215004568289 1.1943278813001745 0 0 -1 I I #
edge $-1 $604 62.377128070473205 $607 65.570424577080843 $466 $664 forward 7 unknown #
vertex $-1 $480 $665 #
straight-curve $-1 10.019897885353821 -16.03577885315752 6.6421774767180608 1 0 0 I I #
edge $-1 $607 -9.5221822642971041 $477 -3.5050109134237282 $476 $666 forward 7 unknown #
vertex $-1 $606 $667 #
straight-curve $-1 -32.951104754222953 -16.03577885315752 56.439781495041018 -0.83867056331134215 0 0.54463904215088732 I I #
point $-1 43.730479527117993 -16.03577885315752 6.6421774767180608 #
point $-1 48.64772484511856 -10.018607502284144 3.448880970110423 #
straight-curve $-1 48.64772484511856 0 6.6421774767180626 0 1 0 I I #
vertex $-1 $483 $668 #
point $-1 46.043212608987311 -14.31658703862227 3.9028397618290329 #
vertex $-1 $487 $669 #
point $-1 46.043212608987311 -11.737799316819395 3.9028397618290329 #
edge $-1 $617 62.377128070473205 $620 65.570424577080843 $492 $670 forward 7 unknown #
vertex $-1 $506 $671 #
straight-curve $-1 10.019897885353821 -7.3509834013436315 6.6421774767180608 1 0 0 I I #
edge $-1 $620 -5.1797845383901597 $503 0.83738681248321667 $502 $672 forward 7 unknown #
vertex $-1 $619 $673 #
straight-curve $-1 -32.951104754222953 -7.3509834013436315 56.439781495041018 -0.83867056331134215 0 0.54463904215088732 I I #
point $-1 43.730479527117993 -7.3509834013436315 6.6421774767180608 #
point $-1 48.64772484511856 -1.3338120504702551 3.448880970110423 #
straight-curve $-1 48.64772484511856 0 6.6421774767180626 0 1 0 I I #
vertex $-1 $509 $674 #
point $-1 46.043212608987311 -5.631791586808383 3.9028397618290329 #
vertex $-1 $513 $675 #
point $-1 46.043212608987311 -3.0530038650055076 3.9028397618290329 #
edge $-1 $630 62.377128070473205 $633 65.570424577080843 $518 $676 forward 7 unknown #
vertex $-1 $532 $677 #
straight-curve $-1 10.019897885353821 1.3338120504702569 6.6421774767180608 1 0 0 I I #
edge $-1 $633 -0.83738681248321578 $529 5.1797845383901606 $528 $678 forward 7 unknown #
vertex $-1 $632 $679 #
straight-curve $-1 -32.951104754222953 1.3338120504702569 56.439781495041018 -0.83867056331134215 0 0.54463904215088732 I I #
point $-1 43.730479527117993 1.3338120504702569 6.6421774767180608 #
point $-1 48.64772484511856 7.3509834013436333 3.448880970110423 #
straight-curve $-1 48.64772484511856 0 6.6421774767180626 0 1 0 I I #
vertex $-1 $535 $680 #
point $-1 46.043212608987311 3.0530038650055076 3.9028397618290329 #
vertex $-1 $539 $681 #
point $-1 46.043212608987311 5.631791586808383 3.9028397618290329 #
edge $-1 $643 62.377128070473205 $646 65.570424577080843 $544 $682 forward 7 unknown #
vertex $-1 $558 $683 #
straight-curve $-1 10.019897885353821 10.018607502284144 6.6421774767180608 1 0 0 I I #
edge $-1 $646 3.5050109134237282 $555 9.5221822642971041 $554 $684 forward 7 unknown #
vertex $-1 $645 $685 #
straight-curve $-1 -32.951104754222953 10.018607502284144 56.439781495041018 -0.83867056331134215 0 0.54463904215088732 I I #
point $-1 43.730479527117993 10.018607502284144 6.6421774767180608 #
point $-1 48.64772484511856 16.03577885315752 3.448880970110423 #
straight-curve $-1 48.64772484511856 0 6.6421774767180626 0 1 0 I I #
vertex $-1 $561 $686 #
point $-1 46.043212608987311 11.737799316819398 3.9028397618290329 #
vertex $-1 $565 $687 #
point $-1 46.043212608987311 14.316587038622274 3.9028397618290329 #
straight-curve $-1 -48.64772484511856 20.037215004568289 0 0 0 -1 I I #
point $-1 -48.64772484511856 -20.037215004568289 -6.6421774767180626 #
straight-curve $-1 -48.64772484511856 0 -6.6421774767180626 0 1 0 I I #
point $-1 -48.64772484511856 20.037215004568289 -6.6421774767180626 #
straight-curve $-1 -48.64772484511856 0 0.88865576260034862 0 -1 0 I I #
point $-1 -48.64772484511856 -20.037215004568289 0.88865576260034862 #
point $-1 -48.64772484511856 20.037215004568289 0.88865576260034862 #
straight-curve $-1 -48.64772484511856 20.037215004568289 0 0 0 -1 I I #
straight-curve $-1 -48.64772484511856 -20.037215004568289 0 0 0 -1 I I #
straight-curve $-1 48.64772484511856 -16.03577885315752 69.019305547191266 0 0 -1 I I #
point $-1 48.64772484511856 -16.03577885315752 6.6421774767180626 #
straight-curve $-1 48.64772484511856 -6.5135965888604161 3.4488809701104337 0 1 0 I I #
point $-1 48.64772484511856 -16.03577885315752 3.448880970110423 #
point $-1 45.351557806256196 -14.31658703862227 3.7558240012488051 #
point $-1 45.351557806256196 -11.737799316819395 3.7558240012488051 #
straight-curve $-1 48.64772484511856 -7.3509834013436315 69.019305547191266 0 0 -1 I I #
point $-1 48.64772484511856 -7.3509834013436315 6.6421774767180626 #
straight-curve $-1 48.64772484511856 -2.1711988629534718 3.4488809701104337 0 1 0 I I #
point $-1 48.64772484511856 -7.3509834013436315 3.448880970110423 #
point $-1 45.351557806256196 -5.631791586808383 3.7558240012488051 #
point $-1 45.351557806256196 -3.0530038650055076 3.7558240012488051 #
straight-curve $-1 48.64772484511856 1.3338120504702569 69.019305547191266 0 0 -1 I I #
point $-1 48.64772484511856 1.3338120504702569 6.6421774767180626 #
straight-curve $-1 48.64772484511856 2.1711988629534726 3.4488809701104337 0 1 0 I I #
point $-1 48.64772484511856 1.3338120504702569 3.448880970110423 #
point $-1 45.351557806256196 3.0530038650055076 3.7558240012488051 #
point $-1 45.351557806256196 5.631791586808383 3.7558240012488051 #
straight-curve $-1 48.64772484511856 10.018607502284144 69.019305547191266 0 0 -1 I I #
point $-1 48.64772484511856 10.018607502284144 6.6421774767180626 #
straight-curve $-1 48.64772484511856 6.5135965888604161 3.4488809701104337 0 1 0 I I #
point $-1 48.64772484511856 10.018607502284144 3.448880970110423 #
point $-1 45.351557806256196 11.737799316819398 3.7558240012488051 #
point $-1 45.351557806256196 14.316587038622274 3.7558240012488051 #
End-of-ACIS-data 