500 0 6 0           
7 Unknown 11 ACIS 5.0 NT 24 Thu Mar 25 21:25:47 1999 
-1 9.9999999999999995e-007 1e-010 
body $-1 $6 $-1 $7 #
body $-1 $8 $-1 $9 #
body $-1 $10 $-1 $11 #
body $-1 $12 $-1 $13 #
body $-1 $14 $-1 $15 #
body $-1 $16 $-1 $17 #
lump $-1 $-1 $18 $0 #
transform $-1 1 0 0 0 1 0 0 0 1 76.704000976592312 37.487275064523665 11.114272890311428 1 rotate no_reflect no_shear #
lump $-1 $-1 $19 $1 #
transform $-1 1 0 0 0 1 0 0 0 1 76.704000976592312 37.487275064523665 11.114272890311428 1 rotate no_reflect no_shear #
lump $-1 $-1 $20 $2 #
transform $-1 1 0 0 0 1 0 0 0 1 76.704000976592312 37.487275064523665 11.114272890311428 1 rotate no_reflect no_shear #
lump $-1 $-1 $21 $3 #
transform $-1 1 0 0 0 1 0 0 0 1 76.704000976592312 37.487275064523665 11.114272890311428 1 rotate no_reflect no_shear #
lump $-1 $-1 $22 $4 #
transform $-1 1 0 0 0 1 0 0 0 1 76.704000976592312 37.487275064523665 11.114272890311428 1 rotate no_reflect no_shear #
lump $-1 $-1 $23 $5 #
transform $-1 1 0 0 0 1 0 0 0 1 76.704000976592312 37.487275064523665 11.114272890311428 1 rotate no_reflect no_shear #
shell $-1 $-1 $-1 $24 $-1 $6 #
shell $-1 $-1 $-1 $25 $-1 $8 #
shell $-1 $-1 $-1 $26 $-1 $10 #
shell $-1 $-1 $-1 $27 $-1 $12 #
shell $-1 $-1 $-1 $28 $-1 $14 #
shell $-1 $-1 $-1 $29 $-1 $16 #
face $-1 $30 $31 $18 $-1 $32 forward single #
face $-1 $33 $34 $19 $-1 $35 forward single #
face $-1 $36 $37 $20 $-1 $38 forward single #
face $-1 $39 $40 $21 $-1 $41 reversed single #
face $-1 $42 $43 $22 $-1 $44 forward single #
face $-1 $45 $46 $23 $-1 $47 forward single #
face $-1 $48 $49 $18 $-1 $50 reversed single #
loop $-1 $-1 $51 $24 #
plane-surface $-1 0 0 11.114272890311428 0 0 1 1 0 0 forward_v I I I I #
face $-1 $52 $53 $19 $-1 $54 forward single #
loop $-1 $-1 $55 $25 #
plane-surface $-1 0 -37.487275064523665 0 0 1 0 0 0 1 forward_v I I I I #
face $-1 $56 $57 $20 $-1 $58 reversed single #
loop $-1 $-1 $59 $26 #
plane-surface $-1 0 37.487275064523665 0 0 -1 0 0 0 -1 forward_v I I I I #
face $-1 $60 $61 $21 $-1 $62 reversed single #
loop $-1 $-1 $63 $27 #
plane-surface $-1 129.18936511742808 -9.419053624686196 211.55948744304655 0 -1 0 -0.85716730853699208 0 -0.51503806187062418 forward_v I I I I #
face $-1 $64 $65 $22 $-1 $66 forward single #
loop $-1 $67 $68 $28 #
cone-surface $-1 73.247247930945477 -19.061048312200157 5.8225832842153027 -0.85716730853699208 0 -0.51503806187062418 0.51503806187062418 0 -0.85716730853699208 1 I I 0 1 1 forward I I I I #
face $-1 $69 $70 $23 $-1 $71 forward single #
loop $-1 $72 $73 $29 #
cone-surface $-1 73.247247930945477 -13.275851499691779 5.8225832842153027 -0.85716730853699208 0 -0.51503806187062418 0.51503806187062418 0 -0.85716730853699208 1 I I 0 1 1 forward I I I I #
face $-1 $74 $75 $18 $-1 $76 reversed single #
loop $-1 $-1 $77 $30 #
plane-surface $-1 0 0 -11.114272890311428 0 0 1 1 0 0 forward_v I I I I #
coedge $-1 $78 $79 $80 $81 forward $31 $-1 #
face $-1 $82 $83 $19 $-1 $84 reversed single #
loop $-1 $-1 $85 $33 #
plane-surface $-1 0 0 11.114272890311428 0 0 1 1 0 0 forward_v I I I I #
coedge $-1 $86 $87 $88 $89 forward $34 $-1 #
face $-1 $90 $91 $20 $-1 $92 reversed single #
loop $-1 $-1 $93 $36 #
plane-surface $-1 76.704000976592312 0 0 -1 0 0 0 0 1 forward_v I I I I #
coedge $-1 $94 $95 $96 $97 forward $37 $-1 #
face $-1 $98 $99 $21 $-1 $100 reversed single #
loop $-1 $-1 $101 $39 #
plane-surface $-1 -2.3069590248207987 -16.16844990594597 132.54852744163341 0.85716730853699208 0 0.51503806187062418 0.51503806187062418 0 -0.85716730853699208 forward_v I I I I #
coedge $-1 $102 $103 $104 $105 reversed $40 $-1 #
face $-1 $-1 $106 $22 $-1 $107 forward single #
loop $-1 $108 $109 $42 #
cone-surface $-1 72.384861808417185 -19.061048312200157 5.3044094426473247 -0.85716730853699208 0 -0.51503806187062418 0.25751903093531209 0 -0.42858365426849604 1 I I -0.70710678118654746 0.70710678118654746 0.5 forward I I I I #
loop $-1 $-1 $110 $28 #
coedge $-1 $68 $68 $111 $112 reversed $43 $-1 #
face $-1 $-1 $113 $23 $-1 $114 forward single #
loop $-1 $115 $116 $45 #
cone-surface $-1 72.384861808417185 -13.275851499691779 5.3044094426473247 -0.85716730853699208 0 -0.51503806187062418 0.25751903093531209 0 -0.42858365426849604 1 I I -0.70710678118654746 0.70710678118654746 0.5 forward I I I I #
loop $-1 $-1 $117 $29 #
coedge $-1 $73 $73 $118 $119 reversed $46 $-1 #
face $-1 $120 $121 $18 $-1 $122 reversed single #
loop $-1 $-1 $123 $48 #
plane-surface $-1 0 -37.487275064523665 0 0 1 0 0 0 1 forward_v I I I I #
coedge $-1 $124 $125 $126 $127 forward $49 $-1 #
coedge $-1 $128 $51 $129 $130 forward $31 $-1 #
coedge $-1 $51 $128 $131 $132 forward $31 $-1 #
coedge $-1 $133 $134 $51 $81 reversed $135 $-1 #
edge $-1 $136 -37.487275064523665 $137 37.487275064523665 $80 $138 forward 7 unknown #
face $-1 $139 $140 $19 $-1 $141 reversed single #
loop $-1 $-1 $142 $52 #
plane-surface $-1 -76.704000976592312 0 0 1 0 0 0 0 -1 forward_v I I I I #
coedge $-1 $143 $144 $145 $146 forward $53 $-1 #
coedge $-1 $145 $55 $142 $147 reversed $34 $-1 #
coedge $-1 $55 $145 $148 $149 reversed $34 $-1 #
coedge $-1 $150 $151 $55 $89 reversed $140 $-1 #
edge $-1 $152 -76.704000976592312 $153 76.704000976592312 $88 $154 forward 7 unknown #
face $-1 $155 $156 $20 $-1 $157 reversed single #
loop $-1 $-1 $158 $56 #
plane-surface $-1 0 44.771989503182617 7.3216421674583057 0 0 1 1 0 0 forward_v I I I I #
coedge $-1 $159 $160 $94 $161 forward $57 $-1 #
coedge $-1 $162 $59 $93 $161 reversed $37 $-1 #
coedge $-1 $59 $162 $163 $164 reversed $37 $-1 #
coedge $-1 $165 $158 $59 $97 reversed $91 $-1 #
edge $-1 $166 -76.704000976592312 $167 76.704000976592312 $96 $168 forward 7 unknown #
face $-1 $169 $170 $21 $-1 $171 forward single #
loop $-1 $-1 $172 $60 #
plane-surface $-1 129.18936511742808 -22.917846187205743 211.55948744304655 0 1 0 0.85716730853699208 0 0.51503806187062418 forward_v I I I I #
coedge $-1 $173 $174 $175 $176 reversed $61 $-1 #
coedge $-1 $103 $63 $177 $178 reversed $40 $-1 #
coedge $-1 $63 $102 $173 $179 reversed $40 $-1 #
coedge $-1 $175 $180 $63 $105 forward $170 $-1 #
edge $-1 $181 -12.109318417878271 $182 -6.0634172631042844 $104 $183 forward 7 unknown #
loop $-1 $-1 $111 $64 #
plane-surface $-1 -2.3069590248207987 -16.16844990594597 132.54852744163341 0.85716730853699208 0 0.51503806187062418 0.51503806187062418 0 -0.85716730853699208 forward_v I I I I #
loop $-1 $-1 $184 $42 #
coedge $-1 $109 $109 $110 $185 reversed $65 $-1 #
coedge $-1 $110 $110 $109 $185 forward $67 $-1 #
coedge $-1 $111 $111 $68 $112 forward $106 $-1 #
edge $-1 $186 0 $186 6.2831853071796004 $111 $187 forward 7 unknown #
loop $-1 $-1 $118 $69 #
plane-surface $-1 -2.3069590248207987 -16.16844990594597 132.54852744163341 0.85716730853699208 0 0.51503806187062418 0.51503806187062418 0 -0.85716730853699208 forward_v I I I I #
loop $-1 $-1 $188 $45 #
coedge $-1 $116 $116 $117 $189 reversed $70 $-1 #
coedge $-1 $117 $117 $116 $189 forward $72 $-1 #
coedge $-1 $118 $118 $73 $119 forward $113 $-1 #
edge $-1 $190 0 $190 6.2831853071796004 $118 $191 forward 7 unknown #
face $-1 $192 $193 $18 $-1 $194 reversed single #
loop $-1 $-1 $195 $74 #
plane-surface $-1 -76.704000976592312 0 0 1 0 0 0 0 -1 forward_v I I I I #
coedge $-1 $196 $131 $197 $198 forward $75 $-1 #
coedge $-1 $199 $77 $196 $200 forward $49 $-1 #
coedge $-1 $77 $199 $201 $202 forward $49 $-1 #
coedge $-1 $134 $133 $77 $127 reversed $135 $-1 #
edge $-1 $203 -37.487275064523665 $204 37.487275064523665 $126 $205 forward 7 unknown #
coedge $-1 $79 $78 $206 $207 forward $31 $-1 #
coedge $-1 $208 $209 $78 $130 reversed $193 $-1 #
edge $-1 $137 -76.704000976592312 $210 76.704000976592312 $129 $211 forward 7 unknown #
coedge $-1 $123 $212 $79 $132 reversed $75 $-1 #
edge $-1 $213 -76.704000976592312 $136 76.704000976592312 $131 $214 forward 7 unknown #
coedge $-1 $126 $80 $212 $215 forward $135 $-1 #
coedge $-1 $80 $126 $208 $216 reversed $135 $-1 #
loop $-1 $-1 $133 $192 #
vertex $-1 $81 $217 #
vertex $-1 $81 $218 #
straight-curve $-1 76.704000976592312 0 11.114272890311428 0 1 0 I I #
face $-1 $219 $220 $19 $-1 $221 reversed single #
loop $-1 $-1 $150 $82 #
plane-surface $-1 0 -44.771989503182624 7.3216421674583057 0 0 1 1 0 0 forward_v I I I I #
coedge $-1 $222 $223 $86 $147 forward $83 $-1 #
coedge $-1 $224 $85 $223 $225 forward $53 $-1 #
coedge $-1 $85 $224 $226 $227 forward $53 $-1 #
coedge $-1 $87 $86 $85 $146 reversed $34 $-1 #
edge $-1 $228 -76.704000976592312 $229 76.704000976592312 $85 $230 forward 7 unknown #
edge $-1 $229 -11.114272890311428 $153 -7.3216421674583057 $142 $231 forward 7 unknown #
coedge $-1 $226 $232 $87 $149 forward $233 $-1 #
edge $-1 $152 7.3216421674583057 $228 11.114272890311428 $148 $234 forward 7 unknown #
coedge $-1 $235 $88 $232 $236 forward $140 $-1 #
coedge $-1 $88 $235 $222 $237 forward $140 $-1 #
vertex $-1 $149 $238 #
vertex $-1 $147 $239 #
straight-curve $-1 0 -37.487275064523665 7.3216421674583057 -1 0 0 I I #
face $-1 $240 $241 $20 $-1 $242 forward single #
loop $-1 $-1 $243 $90 #
plane-surface $-1 0 52.056703941841576 9.217957528884865 0 -1 0 0 0 -1 forward_v I I I I #
coedge $-1 $96 $244 $159 $245 forward $91 $-1 #
coedge $-1 $246 $93 $158 $245 reversed $57 $-1 #
coedge $-1 $93 $246 $247 $248 reversed $57 $-1 #
edge $-1 $249 -11.114272890311428 $167 -7.3216421674583057 $93 $250 forward 7 unknown #
coedge $-1 $95 $94 $251 $252 reversed $37 $-1 #
coedge $-1 $253 $254 $95 $164 forward $255 $-1 #
edge $-1 $166 7.3216421674583057 $256 11.114272890311428 $163 $257 forward 7 unknown #
coedge $-1 $244 $96 $254 $258 forward $91 $-1 #
vertex $-1 $164 $259 #
vertex $-1 $161 $260 #
straight-curve $-1 0 37.487275064523665 7.3216421674583057 1 0 0 I I #
face $-1 $-1 $261 $21 $-1 $262 reversed single #
loop $-1 $-1 $104 $98 #
plane-surface $-1 0 0 11.114272890311428 0 0 1 1 0 0 forward_v I I I I #
coedge $-1 $263 $264 $265 $266 reversed $99 $-1 #
coedge $-1 $267 $101 $103 $179 forward $61 $-1 #
coedge $-1 $101 $267 $263 $268 forward $61 $-1 #
coedge $-1 $265 $104 $101 $176 forward $170 $-1 #
edge $-1 $182 1.3348286717132112 $269 14.833621234232758 $175 $270 forward 7 unknown #
coedge $-1 $271 $272 $102 $178 forward $261 $-1 #
edge $-1 $273 -104.72754042213869 $181 -94.665470831211849 $177 $274 forward 7 unknown #
edge $-1 $182 141.66925563060175 $273 153.40800195318459 $103 $275 forward 7 unknown #
coedge $-1 $104 $265 $271 $276 forward $170 $-1 #
vertex $-1 $178 $277 #
vertex $-1 $105 $278 #
straight-curve $-1 64.594682558714041 -9.419053624686196 11.114272890311426 -1 0 0 I I #
coedge $-1 $184 $184 $-1 $279 reversed $108 $-1 #
edge $-1 $280 0 $280 6.2831853071796004 $109 $281 forward 7 unknown #
vertex $-1 $112 $282 #
ellipse-curve $-1 73.681050399205319 -19.061048312200157 6.0832380948479905 0.85716730853699208 0 0.51503806187062418 0.51503806187062418 0 -0.85716730853699208 1 I I #
coedge $-1 $188 $188 $-1 $283 reversed $115 $-1 #
edge $-1 $284 0 $284 6.2831853071796004 $116 $285 forward 7 unknown #
vertex $-1 $119 $286 #
ellipse-curve $-1 73.681050399205319 -13.275851499691779 6.0832380948479905 0.85716730853699208 0 0.51503806187062418 0.51503806187062418 0 -0.85716730853699208 1 I I #
face $-1 $-1 $135 $18 $-1 $287 reversed single #
loop $-1 $-1 $208 $120 #
plane-surface $-1 0 37.487275064523665 0 0 -1 0 0 0 -1 forward_v I I I I #
coedge $-1 $288 $206 $209 $289 forward $121 $-1 #
coedge $-1 $212 $123 $124 $200 reversed $75 $-1 #
coedge $-1 $206 $288 $123 $198 reversed $121 $-1 #
edge $-1 $213 -11.114272890311428 $290 11.114272890311428 $197 $291 forward 7 unknown #
coedge $-1 $125 $124 $288 $292 forward $49 $-1 #
edge $-1 $204 -76.704000976592312 $290 76.704000976592312 $196 $293 forward 7 unknown #
coedge $-1 $209 $208 $125 $202 reversed $193 $-1 #
edge $-1 $294 -76.704000976592312 $203 76.704000976592312 $201 $295 forward 7 unknown #
vertex $-1 $127 $296 #
vertex $-1 $215 $297 #
straight-curve $-1 76.704000976592312 0 -11.114272890311428 0 -1 0 I I #
coedge $-1 $195 $197 $128 $207 reversed $121 $-1 #
edge $-1 $210 -37.487275064523665 $213 37.487275064523665 $206 $298 forward 7 unknown #
coedge $-1 $201 $129 $134 $216 forward $193 $-1 #
coedge $-1 $129 $201 $195 $289 reversed $193 $-1 #
vertex $-1 $130 $299 #
straight-curve $-1 0 37.487275064523665 11.114272890311428 -1 0 0 I I #
coedge $-1 $131 $196 $133 $215 reversed $75 $-1 #
vertex $-1 $207 $300 #
straight-curve $-1 0 -37.487275064523665 11.114272890311428 1 0 0 I I #
edge $-1 $136 -11.114272890311428 $204 11.114272890311428 $133 $301 forward 7 unknown #
edge $-1 $137 -11.114272890311428 $203 11.114272890311428 $134 $302 forward 7 unknown #
point $-1 76.704000976592312 -37.487275064523665 11.114272890311428 #
point $-1 76.704000976592312 37.487275064523665 11.114272890311428 #
face $-1 $-1 $233 $19 $-1 $303 reversed single #
loop $-1 $-1 $304 $139 #
plane-surface $-1 0 -52.056703941841583 9.217957528884865 0 1 0 0 0 1 forward_v I I I I #
coedge $-1 $305 $142 $151 $237 reversed $83 $-1 #
coedge $-1 $142 $305 $143 $225 reversed $83 $-1 #
coedge $-1 $144 $143 $306 $307 forward $53 $-1 #
edge $-1 $229 37.487275064523665 $308 52.056703941841583 $223 $309 forward 7 unknown #
coedge $-1 $310 $148 $144 $227 reversed $233 $-1 #
edge $-1 $311 -52.056703941841583 $228 -37.487275064523665 $226 $312 forward 7 unknown #
vertex $-1 $149 $313 #
vertex $-1 $225 $314 #
straight-curve $-1 0 -37.487275064523665 11.114272890311428 -1 0 0 I I #
straight-curve $-1 -76.704000976592312 -37.487275064523665 0 0 0 -1 I I #
coedge $-1 $148 $310 $150 $236 reversed $233 $-1 #
loop $-1 $-1 $148 $219 #
straight-curve $-1 76.704000976592312 -37.487275064523665 0 0 0 1 I I #
coedge $-1 $151 $150 $315 $316 forward $140 $-1 #
edge $-1 $152 -7.2847144386589591 $317 7.2847144386589591 $232 $318 forward 7 unknown #
edge $-1 $319 -7.2847144386589591 $153 7.2847144386589591 $222 $320 forward 7 unknown #
point $-1 76.704000976592312 -37.487275064523665 7.3216421674583057 #
point $-1 -76.704000976592312 -37.487275064523665 7.3216421674583057 #
face $-1 $-1 $255 $20 $-1 $321 reversed single #
loop $-1 $-1 $251 $155 #
plane-surface $-1 0 0 11.114272890311428 0 0 1 1 0 0 forward_v I I I I #
coedge $-1 $322 $323 $246 $324 forward $156 $-1 #
coedge $-1 $158 $165 $322 $325 forward $91 $-1 #
edge $-1 $326 -7.2847144386589591 $167 7.2847144386589591 $159 $327 forward 7 unknown #
coedge $-1 $160 $159 $243 $324 reversed $57 $-1 #
coedge $-1 $328 $251 $160 $248 forward $241 $-1 #
edge $-1 $249 37.487275064523665 $329 52.056703941841576 $160 $330 forward 7 unknown #
vertex $-1 $248 $331 #
straight-curve $-1 76.704000976592312 37.487275064523665 0 0 0 -1 I I #
coedge $-1 $247 $332 $162 $252 forward $241 $-1 #
edge $-1 $256 -76.704000976592312 $249 76.704000976592312 $251 $333 forward 7 unknown #
coedge $-1 $334 $163 $332 $335 reversed $255 $-1 #
coedge $-1 $163 $334 $165 $258 reversed $255 $-1 #
loop $-1 $-1 $163 $240 #
vertex $-1 $164 $336 #
straight-curve $-1 -76.704000976592312 37.487275064523665 0 0 0 1 I I #
edge $-1 $166 -7.2847144386589591 $337 7.2847144386589591 $254 $338 forward 7 unknown #
point $-1 -76.704000976592312 37.487275064523658 7.3216421674583057 #
point $-1 76.704000976592312 37.487275064523658 7.3216421674583057 #
loop $-1 $-1 $177 $169 #
plane-surface $-1 76.704000976592312 0 0 -1 0 0 0 0 1 forward_v I I I I #
coedge $-1 $264 $172 $174 $268 reversed $99 $-1 #
coedge $-1 $172 $263 $339 $340 reversed $99 $-1 #
coedge $-1 $180 $175 $172 $266 forward $170 $-1 #
edge $-1 $269 6.0634172631042844 $341 12.109318417878271 $265 $342 forward 7 unknown #
coedge $-1 $174 $173 $272 $343 reversed $61 $-1 #
edge $-1 $344 -153.40800195318459 $269 -141.66925563060175 $263 $345 forward 7 unknown #
vertex $-1 $176 $346 #
straight-curve $-1 70.658099821818311 -8.0842249529729848 11.114272890311426 0 -1 0 I I #
coedge $-1 $339 $177 $180 $276 reversed $261 $-1 #
coedge $-1 $177 $339 $267 $343 forward $261 $-1 #
vertex $-1 $178 $347 #
straight-curve $-1 76.704000976592312 -9.419053624686196 105.77974372152327 0 0 1 I I #
straight-curve $-1 -2.3069590248207987 -9.419053624686196 132.54852744163341 0.51503806187062418 0 -0.85716730853699208 I I #
edge $-1 $341 -22.917846187205743 $181 -9.419053624686196 $271 $348 forward 7 unknown #
point $-1 76.704000976592312 -9.419053624686196 11.114272890311428 #
point $-1 70.658099821818325 -9.419053624686196 11.114272890311426 #
edge $-1 $349 1 $349 0 $184 $-1 forward 7 unknown #
vertex $-1 $185 $350 #
ellipse-curve $-1 72.813445462685678 -19.061048312200157 5.5619284735826371 0.85716730853699208 0 0.51503806187062418 0.51503806187062418 0 -0.85716730853699208 1 I I #
point $-1 74.196088461075902 -19.061048312200157 5.2260707863109763 #
edge $-1 $351 1 $351 0 $188 $-1 forward 7 unknown #
vertex $-1 $189 $352 #
ellipse-curve $-1 72.813445462685678 -13.275851499691779 5.5619284735826371 0.85716730853699208 0 0.51503806187062418 0.51503806187062418 0 -0.85716730853699208 1 I I #
point $-1 74.196088461075902 -13.275851499691779 5.2260707863109763 #
plane-surface $-1 76.704000976592312 0 0 -1 0 0 0 0 1 forward_v I I I I #
coedge $-1 $197 $195 $199 $292 reversed $121 $-1 #
edge $-1 $210 -11.114272890311428 $294 11.114272890311428 $209 $353 forward 7 unknown #
vertex $-1 $292 $354 #
straight-curve $-1 -76.704000976592312 -37.487275064523665 0 0 0 -1 I I #
edge $-1 $290 -37.487275064523665 $294 37.487275064523665 $288 $355 forward 7 unknown #
straight-curve $-1 0 -37.487275064523665 -11.114272890311428 -1 0 0 I I #
vertex $-1 $202 $356 #
straight-curve $-1 0 37.487275064523665 -11.114272890311428 1 0 0 I I #
point $-1 76.704000976592312 37.487275064523665 -11.114272890311428 #
point $-1 76.704000976592312 -37.487275064523665 -11.114272890311428 #
straight-curve $-1 -76.704000976592312 0 11.114272890311428 0 -1 0 I I #
point $-1 -76.704000976592312 37.487275064523665 11.114272890311428 #
point $-1 -76.704000976592312 -37.487275064523665 11.114272890311428 #
straight-curve $-1 76.704000976592312 -37.487275064523665 0 0 0 -1 I I #
straight-curve $-1 76.704000976592312 37.487275064523665 0 0 0 -1 I I #
plane-surface $-1 76.704000976592312 0 0 -1 0 0 0 0 1 forward_v I I I I #
coedge $-1 $315 $306 $305 $357 forward $220 $-1 #
coedge $-1 $223 $222 $304 $357 reversed $83 $-1 #
coedge $-1 $304 $358 $224 $307 reversed $220 $-1 #
edge $-1 $308 -76.704000976592312 $311 76.704000976592312 $306 $359 forward 7 unknown #
vertex $-1 $225 $360 #
straight-curve $-1 -76.704000976592312 0 11.114272890311428 0 -1 0 I I #
coedge $-1 $232 $226 $358 $361 forward $233 $-1 #
vertex $-1 $227 $362 #
straight-curve $-1 76.704000976592312 0 11.114272890311428 0 1 0 I I #
point $-1 76.704000976592312 -37.487275064523665 11.114272890311428 #
point $-1 -76.704000976592312 -37.487275064523665 11.114272890311428 #
coedge $-1 $358 $304 $235 $316 reversed $220 $-1 #
edge $-1 $317 -76.704000976592312 $319 76.704000976592312 $315 $363 forward 7 unknown #
vertex $-1 $361 $364 #
straight-curve $-1 76.704000976592312 -44.771989503182624 7.3216421674583057 0 -1 0 I I #
vertex $-1 $237 $365 #
straight-curve $-1 -76.704000976592312 -44.771989503182624 7.3216421674583057 0 1 0 I I #
plane-surface $-1 -76.704000976592312 0 0 1 0 0 0 0 -1 forward_v I I I I #
coedge $-1 $366 $243 $244 $325 reversed $156 $-1 #
coedge $-1 $243 $366 $328 $367 reversed $156 $-1 #
edge $-1 $329 -1.8963153614265593 $326 1.8963153614265593 $246 $368 forward 7 unknown #
edge $-1 $337 -76.704000976592312 $326 76.704000976592312 $322 $369 forward 7 unknown #
vertex $-1 $245 $370 #
straight-curve $-1 76.704000976592312 44.771989503182617 7.3216421674583057 0 -1 0 I I #
coedge $-1 $332 $247 $323 $367 forward $241 $-1 #
vertex $-1 $248 $371 #
straight-curve $-1 76.704000976592312 0 11.114272890311428 0 1 0 I I #
point $-1 76.704000976592312 37.487275064523665 11.114272890311428 #
coedge $-1 $251 $328 $253 $335 forward $241 $-1 #
straight-curve $-1 0 37.487275064523665 11.114272890311428 1 0 0 I I #
coedge $-1 $254 $253 $366 $372 forward $255 $-1 #
edge $-1 $373 -52.056703941841576 $256 -37.487275064523665 $253 $374 forward 7 unknown #
point $-1 -76.704000976592312 37.487275064523665 11.114272890311428 #
vertex $-1 $325 $375 #
straight-curve $-1 -76.704000976592312 44.771989503182617 7.3216421674583057 0 1 0 I I #
coedge $-1 $272 $271 $264 $340 forward $261 $-1 #
edge $-1 $341 94.665470831211849 $344 104.72754042213869 $339 $376 forward 7 unknown #
vertex $-1 $276 $377 #
straight-curve $-1 64.594682558714041 -22.917846187205743 11.114272890311426 1 0 0 I I #
edge $-1 $344 -14.833621234232758 $273 -1.3348286717132112 $272 $378 forward 7 unknown #
vertex $-1 $343 $379 #
straight-curve $-1 -2.3069590248207987 -22.917846187205743 132.54852744163341 -0.51503806187062418 0 0.85716730853699208 I I #
point $-1 70.658099821818325 -22.917846187205743 11.114272890311426 #
point $-1 76.704000976592312 -9.419053624686196 1.0522032993845869 #
straight-curve $-1 76.704000976592312 0 11.114272890311428 0 1 0 I I #
vertex $-1 $279 $380 #
point $-1 73.328483524556304 -19.061048312200157 4.7047611650456442 #
vertex $-1 $283 $381 #
point $-1 73.328483524556304 -13.275851499691779 4.7047611650456442 #
straight-curve $-1 -76.704000976592312 37.487275064523665 0 0 0 -1 I I #
point $-1 -76.704000976592312 -37.487275064523665 -11.114272890311428 #
straight-curve $-1 -76.704000976592312 0 -11.114272890311428 0 1 0 I I #
point $-1 -76.704000976592312 37.487275064523665 -11.114272890311428 #
edge $-1 $308 -1.8963153614265593 $319 1.8963153614265593 $305 $382 forward 7 unknown #
coedge $-1 $306 $315 $310 $361 reversed $220 $-1 #
straight-curve $-1 0 -52.056703941841583 11.114272890311424 1 0 0 I I #
point $-1 -76.704000976592312 -52.056703941841583 11.114272890311424 #
edge $-1 $311 -1.8963153614265593 $317 1.8963153614265593 $310 $383 forward 7 unknown #
point $-1 76.704000976592312 -52.056703941841583 11.114272890311424 #
straight-curve $-1 0 -52.056703941841583 7.3216421674583057 -1 0 0 I I #
point $-1 76.704000976592312 -52.056703941841583 7.3216421674583057 #
point $-1 -76.704000976592312 -52.056703941841583 7.3216421674583057 #
coedge $-1 $323 $322 $334 $372 reversed $156 $-1 #
edge $-1 $329 -76.704000976592312 $373 76.704000976592312 $323 $384 forward 7 unknown #
straight-curve $-1 76.704000976592312 52.056703941841576 9.217957528884865 0 0 -1 I I #
straight-curve $-1 0 52.056703941841576 7.3216421674583057 1 0 0 I I #
point $-1 76.704000976592312 52.056703941841576 7.3216421674583057 #
point $-1 76.704000976592312 52.056703941841576 11.114272890311424 #
edge $-1 $373 -1.8963153614265593 $337 1.8963153614265593 $366 $385 forward 7 unknown #
vertex $-1 $367 $386 #
straight-curve $-1 -76.704000976592312 0 11.114272890311428 0 -1 0 I I #
point $-1 -76.704000976592312 52.056703941841576 7.3216421674583057 #
straight-curve $-1 76.704000976592312 -22.917846187205743 105.77974372152327 0 0 -1 I I #
point $-1 76.704000976592312 -22.917846187205743 11.114272890311428 #
straight-curve $-1 76.704000976592312 -8.0842249529729848 1.0522032993845585 0 1 0 I I #
point $-1 76.704000976592312 -22.917846187205743 1.0522032993845869 #
point $-1 71.956278154148691 -19.061048312200157 5.0468904117120124 #
point $-1 71.956278154148691 -13.275851499691779 5.0468904117120124 #
straight-curve $-1 -76.704000976592312 -52.056703941841583 9.217957528884865 0 0 -1 I I #
straight-curve $-1 76.704000976592312 -52.056703941841583 9.217957528884865 0 0 -1 I I #
straight-curve $-1 0 52.056703941841576 11.114272890311424 -1 0 0 I I #
straight-curve $-1 -76.704000976592312 52.056703941841576 9.217957528884865 0 0 -1 I I #
point $-1 -76.704000976592312 52.056703941841576 11.114272890311424 #
End-of-ACIS-data 