500 0 6 0           
7 Unknown 11 ACIS 5.0 NT 24 Thu Mar 25 15:18:07 1999 
-1 9.9999999999999995e-007 1e-010 
body $-1 $6 $-1 $7 #
body $-1 $8 $-1 $9 #
body $-1 $10 $-1 $11 #
body $-1 $12 $-1 $13 #
body $-1 $14 $-1 $15 #
body $-1 $16 $-1 $17 #
lump $-1 $-1 $18 $0 #
transform $-1 1 0 0 0 1 0 0 0 1 61.726737266151922 31.993465061982011 13.764698437796911 1 rotate no_reflect no_shear #
lump $-1 $-1 $19 $1 #
transform $-1 1 0 0 0 1 0 0 0 1 61.726737266151922 31.993465061982011 13.764698437796911 1 rotate no_reflect no_shear #
lump $-1 $-1 $20 $2 #
transform $-1 1 0 0 0 1 0 0 0 1 61.726737266151922 31.993465061982011 13.764698437796911 1 rotate no_reflect no_shear #
lump $-1 $-1 $21 $3 #
transform $-1 1 0 0 0 1 0 0 0 1 61.726737266151922 31.993465061982011 13.764698437796911 1 rotate no_reflect no_shear #
lump $-1 $-1 $22 $4 #
transform $-1 1 0 0 0 1 0 0 0 1 61.726737266151922 31.993465061982011 13.764698437796911 1 rotate no_reflect no_shear #
lump $-1 $-1 $23 $5 #
transform $-1 1 0 0 0 1 0 0 0 1 61.726737266151922 31.993465061982011 13.764698437796911 1 rotate no_reflect no_shear #
shell $-1 $-1 $-1 $24 $-1 $6 #
shell $-1 $-1 $-1 $25 $-1 $8 #
shell $-1 $-1 $-1 $26 $-1 $10 #
shell $-1 $-1 $-1 $27 $-1 $12 #
shell $-1 $-1 $-1 $28 $-1 $14 #
shell $-1 $-1 $-1 $29 $-1 $16 #
face $-1 $30 $31 $18 $-1 $32 forward single #
face $-1 $33 $34 $19 $-1 $35 forward single #
face $-1 $36 $37 $20 $-1 $38 forward single #
face $-1 $39 $40 $21 $-1 $41 reversed single #
face $-1 $42 $43 $22 $-1 $44 forward single #
face $-1 $45 $46 $23 $-1 $47 forward single #
face $-1 $48 $49 $18 $-1 $50 reversed single #
loop $-1 $-1 $51 $24 #
plane-surface $-1 0 0 13.764698437796911 0 0 1 1 0 0 forward_v I I I I #
face $-1 $52 $53 $19 $-1 $54 reversed single #
loop $-1 $-1 $55 $25 #
plane-surface $-1 -61.726737266151922 0 0 1 0 0 0 0 -1 forward_v I I I I #
face $-1 $56 $57 $20 $-1 $58 reversed single #
loop $-1 $-1 $59 $26 #
plane-surface $-1 61.726737266151922 0 0 -1 0 0 0 0 1 forward_v I I I I #
face $-1 $60 $61 $21 $-1 $62 reversed single #
loop $-1 $-1 $63 $27 #
plane-surface $-1 35.714996161979904 98.559998434236959 123.52967401484651 1 0 0 0 -0.82903758062907751 -0.55919289150049634 forward_v I I I I #
face $-1 $64 $65 $22 $-1 $66 forward single #
loop $-1 $67 $68 $28 #
cone-surface $-1 39.462950729613773 25.622203768796147 6.110637636640158 0 -0.82903758062907751 -0.55919289150049634 1.5 0 0 1 I I 0 1 1.5 forward I I I I #
face $-1 $69 $70 $23 $-1 $71 forward single #
loop $-1 $72 $73 $29 #
cone-surface $-1 45.084882581064583 25.622203768796147 6.110637636640158 0 -0.82903758062907751 -0.55919289150049634 1.5 0 0 1 I I 0 1 1.5 forward I I I I #
face $-1 $74 $75 $18 $-1 $76 reversed single #
loop $-1 $-1 $77 $30 #
plane-surface $-1 0 0 -13.764698437796911 0 0 1 1 0 0 forward_v I I I I #
coedge $-1 $78 $79 $80 $81 forward $31 $-1 #
face $-1 $82 $83 $19 $-1 $84 forward single #
loop $-1 $-1 $85 $33 #
plane-surface $-1 0 31.993465061982011 0 0 -1 0 0 0 -1 forward_v I I I I #
coedge $-1 $86 $87 $88 $89 forward $34 $-1 #
face $-1 $90 $91 $20 $-1 $92 forward single #
loop $-1 $-1 $93 $36 #
plane-surface $-1 0 -31.993465061982011 0 0 1 0 0 0 1 forward_v I I I I #
coedge $-1 $94 $95 $96 $97 forward $37 $-1 #
face $-1 $98 $99 $21 $-1 $100 reversed single #
loop $-1 $-1 $101 $39 #
plane-surface $-1 42.273916655339185 -3.7875714122776571 54.495368625344639 0 0.82903758062907751 0.55919289150049634 1 0 0 forward_v I I I I #
coedge $-1 $102 $103 $104 $105 reversed $40 $-1 #
face $-1 $-1 $106 $22 $-1 $107 forward single #
loop $-1 $108 $109 $42 #
cone-surface $-1 39.462950729613773 22.783090985998793 4.1956319440106551 0 -0.82903758062907751 -0.55919289150049634 0.75 0 0 1 I I -0.70710678118654757 0.70710678118654757 0.75 forward I I I I #
loop $-1 $-1 $110 $28 #
coedge $-1 $68 $68 $111 $112 reversed $43 $-1 #
face $-1 $-1 $113 $23 $-1 $114 forward single #
loop $-1 $115 $116 $45 #
cone-surface $-1 45.084882581064583 22.783090985998793 4.1956319440106551 0 -0.82903758062907751 -0.55919289150049634 0.75 0 0 1 I I -0.70710678118654757 0.70710678118654757 0.75 forward I I I I #
loop $-1 $-1 $117 $29 #
coedge $-1 $73 $73 $118 $119 reversed $46 $-1 #
face $-1 $120 $121 $18 $-1 $122 reversed single #
loop $-1 $-1 $123 $48 #
plane-surface $-1 0 -31.993465061982011 0 0 1 0 0 0 1 forward_v I I I I #
coedge $-1 $124 $125 $126 $127 forward $49 $-1 #
coedge $-1 $128 $51 $129 $130 forward $31 $-1 #
coedge $-1 $51 $128 $131 $132 forward $31 $-1 #
coedge $-1 $133 $134 $51 $81 reversed $135 $-1 #
edge $-1 $136 -31.993465061982011 $137 31.993465061982011 $80 $138 forward 7 unknown #
face $-1 $139 $140 $19 $-1 $141 reversed single #
loop $-1 $-1 $88 $52 #
plane-surface $-1 -67.016419256768089 0 4.7782109026274684 0 0 1 1 0 0 forward_v I I I I #
coedge $-1 $142 $143 $87 $144 forward $53 $-1 #
coedge $-1 $145 $55 $146 $147 reversed $34 $-1 #
coedge $-1 $55 $145 $85 $144 reversed $34 $-1 #
coedge $-1 $148 $149 $55 $89 reversed $83 $-1 #
edge $-1 $150 -31.993465061982011 $151 31.993465061982011 $88 $152 forward 7 unknown #
face $-1 $153 $154 $20 $-1 $155 reversed single #
loop $-1 $-1 $156 $56 #
plane-surface $-1 67.016419256768074 0 4.7782109026274684 0 0 1 1 0 0 forward_v I I I I #
coedge $-1 $157 $158 $95 $159 forward $57 $-1 #
coedge $-1 $160 $59 $161 $162 reversed $37 $-1 #
coedge $-1 $59 $160 $93 $159 reversed $37 $-1 #
coedge $-1 $163 $164 $59 $97 reversed $91 $-1 #
edge $-1 $165 -31.993465061982011 $166 31.993465061982011 $96 $167 forward 7 unknown #
face $-1 $168 $169 $21 $-1 $170 reversed single #
loop $-1 $-1 $171 $60 #
plane-surface $-1 48.832837148698466 98.559998434236959 123.52967401484651 -1 0 0 0 0.82903758062907751 0.55919289150049634 forward_v I I I I #
coedge $-1 $172 $173 $174 $175 reversed $61 $-1 #
coedge $-1 $103 $63 $176 $177 reversed $40 $-1 #
coedge $-1 $63 $102 $172 $178 reversed $40 $-1 #
coedge $-1 $174 $179 $63 $105 forward $180 $-1 #
edge $-1 $181 17.286534155136469 $182 25.594387546857085 $104 $183 forward 7 unknown #
loop $-1 $-1 $111 $64 #
plane-surface $-1 42.273916655339185 -3.7875714122776571 54.495368625344639 0 0.82903758062907751 0.55919289150049634 1 0 0 forward_v I I I I #
loop $-1 $-1 $184 $42 #
coedge $-1 $109 $109 $110 $185 reversed $65 $-1 #
coedge $-1 $110 $110 $109 $185 forward $67 $-1 #
coedge $-1 $111 $111 $68 $112 forward $106 $-1 #
edge $-1 $186 9.8177771764686556e-016 $186 6.2831853071796013 $111 $187 forward 7 unknown #
loop $-1 $-1 $118 $69 #
plane-surface $-1 42.273916655339185 -3.7875714122776571 54.495368625344639 0 0.82903758062907751 0.55919289150049634 1 0 0 forward_v I I I I #
loop $-1 $-1 $188 $45 #
coedge $-1 $116 $116 $117 $189 reversed $70 $-1 #
coedge $-1 $117 $117 $116 $189 forward $72 $-1 #
coedge $-1 $118 $118 $73 $119 forward $113 $-1 #
edge $-1 $190 9.8177771764686556e-016 $190 6.2831853071796013 $118 $191 forward 7 unknown #
face $-1 $192 $193 $18 $-1 $194 reversed single #
loop $-1 $-1 $195 $74 #
plane-surface $-1 -61.726737266151922 0 0 1 0 0 0 0 -1 forward_v I I I I #
coedge $-1 $196 $131 $197 $198 forward $75 $-1 #
coedge $-1 $199 $77 $196 $200 forward $49 $-1 #
coedge $-1 $77 $199 $201 $202 forward $49 $-1 #
coedge $-1 $134 $133 $77 $127 reversed $135 $-1 #
edge $-1 $203 -31.993465061982011 $204 31.993465061982011 $126 $205 forward 7 unknown #
coedge $-1 $79 $78 $206 $207 forward $31 $-1 #
coedge $-1 $208 $209 $78 $130 reversed $193 $-1 #
edge $-1 $137 -61.726737266151922 $210 61.726737266151922 $129 $211 forward 7 unknown #
coedge $-1 $123 $212 $79 $132 reversed $75 $-1 #
edge $-1 $213 -61.726737266151922 $136 61.726737266151922 $131 $214 forward 7 unknown #
coedge $-1 $126 $80 $212 $215 forward $135 $-1 #
coedge $-1 $80 $126 $208 $216 reversed $135 $-1 #
loop $-1 $-1 $133 $192 #
vertex $-1 $81 $217 #
vertex $-1 $81 $218 #
straight-curve $-1 61.726737266151922 0 13.764698437796911 0 1 0 I I #
face $-1 $219 $220 $19 $-1 $221 reversed single #
loop $-1 $-1 $222 $82 #
plane-surface $-1 -67.016419256768089 0 -0.67935949332486079 0 0 1 1 0 0 forward_v I I I I #
coedge $-1 $223 $85 $224 $225 reversed $53 $-1 #
coedge $-1 $85 $223 $148 $226 reversed $53 $-1 #
edge $-1 $150 -4.7782109026274684 $227 0.67935949332486079 $85 $228 forward 7 unknown #
coedge $-1 $87 $86 $222 $229 forward $34 $-1 #
coedge $-1 $230 $231 $86 $147 forward $232 $-1 #
edge $-1 $233 -0.67935949332486079 $151 4.7782109026274684 $146 $234 forward 7 unknown #
coedge $-1 $235 $88 $143 $226 forward $83 $-1 #
coedge $-1 $88 $235 $230 $236 forward $83 $-1 #
vertex $-1 $144 $237 #
vertex $-1 $236 $238 #
straight-curve $-1 -61.726737266151922 0 4.7782109026274684 0 -1 0 I I #
face $-1 $239 $240 $20 $-1 $241 reversed single #
loop $-1 $-1 $242 $90 #
plane-surface $-1 67.016419256768074 0 -0.67935949332486079 0 0 1 1 0 0 forward_v I I I I #
coedge $-1 $164 $163 $243 $244 forward $91 $-1 #
coedge $-1 $245 $93 $246 $247 reversed $57 $-1 #
coedge $-1 $93 $245 $163 $248 reversed $57 $-1 #
edge $-1 $165 -4.7782109026274684 $249 0.67935949332486079 $93 $250 forward 7 unknown #
coedge $-1 $95 $94 $251 $252 forward $37 $-1 #
coedge $-1 $253 $254 $94 $162 forward $255 $-1 #
edge $-1 $256 -0.67935949332486079 $166 4.7782109026274684 $161 $257 forward 7 unknown #
coedge $-1 $156 $96 $158 $248 forward $91 $-1 #
coedge $-1 $96 $156 $253 $258 forward $91 $-1 #
vertex $-1 $159 $259 #
vertex $-1 $258 $260 #
straight-curve $-1 61.726737266151922 0 4.7782109026274684 0 1 0 I I #
face $-1 $-1 $180 $21 $-1 $261 forward single #
loop $-1 $-1 $262 $98 #
plane-surface $-1 0 31.993465061982011 0 0 -1 0 0 0 -1 forward_v I I I I #
coedge $-1 $263 $264 $265 $266 reversed $99 $-1 #
coedge $-1 $267 $101 $103 $178 forward $61 $-1 #
coedge $-1 $101 $267 $263 $268 forward $61 $-1 #
coedge $-1 $265 $104 $101 $175 forward $180 $-1 #
edge $-1 $182 14.578037834310312 $269 27.695878821028874 $174 $270 forward 7 unknown #
coedge $-1 $271 $272 $102 $177 forward $169 $-1 #
edge $-1 $273 -60.317038123931603 $181 -48.000138569626344 $176 $274 forward 7 unknown #
edge $-1 $182 49.130064956333001 $273 63.986930123964051 $103 $275 forward 7 unknown #
coedge $-1 $104 $265 $271 $276 forward $180 $-1 #
loop $-1 $-1 $265 $168 #
vertex $-1 $177 $277 #
vertex $-1 $105 $278 #
straight-curve $-1 35.714996161979904 49.27999921711848 13.764698437796909 0 -1 0 I I #
coedge $-1 $184 $184 $-1 $279 reversed $108 $-1 #
edge $-1 $280 0 $280 6.2831853071796004 $109 $281 forward 7 unknown #
vertex $-1 $112 $282 #
ellipse-curve $-1 39.462950729613773 27.839538366121698 7.6062486606442903 0 0.82903758062907751 0.55919289150049634 1.5 0 0 1 I I #
coedge $-1 $188 $188 $-1 $283 reversed $115 $-1 #
edge $-1 $284 0 $284 6.2831853071796004 $116 $285 forward 7 unknown #
vertex $-1 $119 $286 #
ellipse-curve $-1 45.084882581064583 27.839538366121698 7.6062486606442903 0 0.82903758062907751 0.55919289150049634 1.5 0 0 1 I I #
face $-1 $-1 $135 $18 $-1 $287 reversed single #
loop $-1 $-1 $208 $120 #
plane-surface $-1 0 31.993465061982011 0 0 -1 0 0 0 -1 forward_v I I I I #
coedge $-1 $288 $206 $209 $289 forward $121 $-1 #
coedge $-1 $212 $123 $124 $200 reversed $75 $-1 #
coedge $-1 $206 $288 $123 $198 reversed $121 $-1 #
edge $-1 $213 -13.764698437796911 $290 13.764698437796911 $197 $291 forward 7 unknown #
coedge $-1 $125 $124 $288 $292 forward $49 $-1 #
edge $-1 $204 -61.726737266151922 $290 61.726737266151922 $196 $293 forward 7 unknown #
coedge $-1 $209 $208 $125 $202 reversed $193 $-1 #
edge $-1 $294 -61.726737266151922 $203 61.726737266151922 $201 $295 forward 7 unknown #
vertex $-1 $127 $296 #
vertex $-1 $215 $297 #
straight-curve $-1 61.726737266151922 0 -13.764698437796911 0 -1 0 I I #
coedge $-1 $195 $197 $128 $207 reversed $121 $-1 #
edge $-1 $210 -31.993465061982011 $213 31.993465061982011 $206 $298 forward 7 unknown #
coedge $-1 $201 $129 $134 $216 forward $193 $-1 #
coedge $-1 $129 $201 $195 $289 reversed $193 $-1 #
vertex $-1 $130 $299 #
straight-curve $-1 0 31.993465061982011 13.764698437796911 -1 0 0 I I #
coedge $-1 $131 $196 $133 $215 reversed $75 $-1 #
vertex $-1 $207 $300 #
straight-curve $-1 0 -31.993465061982011 13.764698437796911 1 0 0 I I #
edge $-1 $136 -13.764698437796911 $204 13.764698437796911 $133 $301 forward 7 unknown #
edge $-1 $137 -13.764698437796911 $203 13.764698437796911 $134 $302 forward 7 unknown #
point $-1 61.726737266151922 -31.993465061982011 13.764698437796911 #
point $-1 61.726737266151922 31.993465061982011 13.764698437796911 #
face $-1 $-1 $232 $19 $-1 $303 reversed single #
loop $-1 $-1 $304 $139 #
plane-surface $-1 -72.306101247384262 0 2.0494257046513038 1 0 0 0 0 -1 forward_v I I I I #
coedge $-1 $305 $224 $145 $229 reversed $140 $-1 #
coedge $-1 $143 $142 $304 $306 reversed $53 $-1 #
coedge $-1 $222 $307 $142 $225 forward $140 $-1 #
edge $-1 $308 -5.2896819906161738 $227 5.2896819906161667 $142 $309 forward 7 unknown #
edge $-1 $150 -5.2896819906161667 $310 5.2896819906161738 $143 $311 forward 7 unknown #
vertex $-1 $144 $312 #
straight-curve $-1 -61.726737266151922 31.993465061982011 0 0 0 -1 I I #
edge $-1 $233 -31.993465061982011 $227 31.993465061982011 $222 $313 forward 7 unknown #
coedge $-1 $314 $146 $149 $236 reversed $232 $-1 #
coedge $-1 $146 $314 $305 $315 reversed $232 $-1 #
loop $-1 $-1 $146 $219 #
vertex $-1 $147 $316 #
straight-curve $-1 -61.726737266151922 -31.993465061982011 0 0 0 1 I I #
coedge $-1 $149 $148 $317 $318 forward $83 $-1 #
edge $-1 $319 -5.2896819906161738 $151 5.2896819906161667 $230 $320 forward 7 unknown #
point $-1 -61.726737266151922 31.993465061982011 4.7782109026274684 #
point $-1 -61.726737266151922 -31.993465061982011 4.7782109026274684 #
face $-1 $-1 $255 $20 $-1 $321 reversed single #
loop $-1 $-1 $322 $153 #
plane-surface $-1 72.306101247384248 0 2.0494257046513038 -1 0 0 0 0 1 forward_v I I I I #
coedge $-1 $246 $323 $324 $325 forward $154 $-1 #
coedge $-1 $322 $326 $156 $244 reversed $240 $-1 #
edge $-1 $327 -31.993465061982011 $328 31.993465061982011 $243 $329 forward 7 unknown #
coedge $-1 $158 $157 $322 $330 reversed $57 $-1 #
coedge $-1 $251 $242 $157 $247 forward $154 $-1 #
edge $-1 $331 -5.2896819906161738 $249 5.2896819906161667 $157 $332 forward 7 unknown #
edge $-1 $165 -5.2896819906161667 $327 5.2896819906161738 $158 $333 forward 7 unknown #
vertex $-1 $159 $334 #
straight-curve $-1 61.726737266151922 -31.993465061982011 0 0 0 -1 I I #
coedge $-1 $323 $246 $160 $252 reversed $154 $-1 #
edge $-1 $256 -31.993465061982011 $249 31.993465061982011 $251 $335 forward 7 unknown #
coedge $-1 $336 $161 $164 $258 reversed $255 $-1 #
coedge $-1 $161 $336 $323 $337 reversed $255 $-1 #
loop $-1 $-1 $161 $239 #
vertex $-1 $162 $338 #
straight-curve $-1 61.726737266151922 31.993465061982011 0 0 0 1 I I #
edge $-1 $328 -5.2896819906161738 $166 5.2896819906161667 $253 $339 forward 7 unknown #
point $-1 61.726737266151908 -31.993465061982011 4.7782109026274684 #
point $-1 61.726737266151908 31.993465061982011 4.7782109026274684 #
plane-surface $-1 0 0 13.764698437796911 0 0 1 1 0 0 forward_v I I I I #
coedge $-1 $272 $271 $264 $340 forward $169 $-1 #
coedge $-1 $264 $171 $173 $268 reversed $99 $-1 #
coedge $-1 $171 $263 $262 $340 reversed $99 $-1 #
coedge $-1 $179 $174 $171 $266 forward $180 $-1 #
edge $-1 $269 -25.594387546857085 $341 -17.286534155136469 $265 $342 forward 7 unknown #
coedge $-1 $173 $172 $272 $343 reversed $61 $-1 #
edge $-1 $344 -63.986930123964051 $269 -49.130064956333001 $263 $345 forward 7 unknown #
vertex $-1 $175 $346 #
straight-curve $-1 21.136958327669593 23.685611670261395 13.764698437796909 1 0 0 I I #
coedge $-1 $262 $176 $179 $276 reversed $169 $-1 #
coedge $-1 $176 $262 $267 $343 forward $169 $-1 #
vertex $-1 $177 $347 #
straight-curve $-1 35.714996161979904 31.993465061982008 61.764837007423253 0 0 1 I I #
straight-curve $-1 35.714996161979904 -3.7875714122776571 54.495368625344639 0 0.55919289150049634 -0.82903758062907751 I I #
edge $-1 $341 -48.832837148698466 $181 -35.714996161979904 $271 $348 forward 7 unknown #
point $-1 35.714996161979904 31.993465061982011 13.764698437796911 #
point $-1 35.714996161979904 23.685611670261395 13.764698437796909 #
edge $-1 $349 1 $349 0 $184 $-1 forward 7 unknown #
vertex $-1 $185 $350 #
ellipse-curve $-1 39.462950729613773 23.404869171470601 4.6150266126360275 0 0.82903758062907751 0.55919289150049634 1.5 0 0 1 I I #
point $-1 40.962950729613773 27.839538366121698 7.6062486606442885 #
edge $-1 $351 1 $351 0 $188 $-1 forward 7 unknown #
vertex $-1 $189 $352 #
ellipse-curve $-1 45.084882581064583 23.404869171470601 4.6150266126360275 0 0.82903758062907751 0.55919289150049634 1.5 0 0 1 I I #
point $-1 46.584882581064583 27.839538366121698 7.6062486606442885 #
plane-surface $-1 61.726737266151922 0 0 -1 0 0 0 0 1 forward_v I I I I #
coedge $-1 $197 $195 $199 $292 reversed $121 $-1 #
edge $-1 $210 -13.764698437796911 $294 13.764698437796911 $209 $353 forward 7 unknown #
vertex $-1 $292 $354 #
straight-curve $-1 -61.726737266151922 -31.993465061982011 0 0 0 -1 I I #
edge $-1 $290 -31.993465061982011 $294 31.993465061982011 $288 $355 forward 7 unknown #
straight-curve $-1 0 -31.993465061982011 -13.764698437796911 -1 0 0 I I #
vertex $-1 $202 $356 #
straight-curve $-1 0 31.993465061982011 -13.764698437796911 1 0 0 I I #
point $-1 61.726737266151922 31.993465061982011 -13.764698437796911 #
point $-1 61.726737266151922 -31.993465061982011 -13.764698437796911 #
straight-curve $-1 -61.726737266151922 0 13.764698437796911 0 -1 0 I I #
point $-1 -61.726737266151922 31.993465061982011 13.764698437796911 #
point $-1 -61.726737266151922 -31.993465061982011 13.764698437796911 #
straight-curve $-1 61.726737266151922 -31.993465061982011 0 0 0 -1 I I #
straight-curve $-1 61.726737266151922 31.993465061982011 0 0 0 -1 I I #
plane-surface $-1 0 -31.993465061982011 0 0 1 0 0 0 1 forward_v I I I I #
coedge $-1 $357 $317 $223 $306 forward $220 $-1 #
coedge $-1 $307 $222 $231 $315 forward $140 $-1 #
edge $-1 $310 -2.7287851979761646 $308 2.7287851979761646 $223 $358 forward 7 unknown #
coedge $-1 $224 $305 $357 $359 forward $140 $-1 #
vertex $-1 $225 $360 #
straight-curve $-1 -67.016419256768089 31.993465061982011 -0.67935949332486079 1 0 0 I I #
vertex $-1 $226 $361 #
straight-curve $-1 -67.016419256768089 31.993465061982011 4.7782109026274684 -1 0 0 I I #
point $-1 -61.726737266151922 31.993465061982011 -0.67935949332486079 #
straight-curve $-1 -61.726737266151922 0 -0.67935949332486079 0 1 0 I I #
coedge $-1 $231 $230 $362 $363 forward $232 $-1 #
edge $-1 $233 -5.2896819906161667 $364 5.2896819906161738 $231 $365 forward 7 unknown #
point $-1 -61.726737266151922 -31.993465061982011 -0.67935949332486079 #
coedge $-1 $304 $362 $235 $318 reversed $220 $-1 #
edge $-1 $310 -31.993465061982011 $319 31.993465061982011 $317 $366 forward 7 unknown #
vertex $-1 $318 $367 #
straight-curve $-1 -67.016419256768089 -31.993465061982011 4.7782109026274684 1 0 0 I I #
plane-surface $-1 0 31.993465061982011 0 0 -1 0 0 0 -1 forward_v I I I I #
coedge $-1 $324 $243 $245 $330 forward $240 $-1 #
coedge $-1 $242 $251 $254 $337 forward $154 $-1 #
coedge $-1 $326 $322 $242 $325 reversed $240 $-1 #
edge $-1 $368 -31.993465061982011 $331 31.993465061982011 $324 $369 forward 7 unknown #
coedge $-1 $243 $324 $336 $370 reversed $240 $-1 #
vertex $-1 $244 $371 #
vertex $-1 $244 $372 #
straight-curve $-1 72.306101247384248 0 4.7782109026274684 0 1 0 I I #
edge $-1 $327 -2.7287851979761646 $331 2.7287851979761646 $322 $373 forward 7 unknown #
vertex $-1 $330 $374 #
straight-curve $-1 67.016419256768074 -31.993465061982011 -0.67935949332486079 -1 0 0 I I #
straight-curve $-1 67.016419256768074 -31.993465061982011 4.7782109026274684 1 0 0 I I #
point $-1 61.726737266151908 -31.993465061982011 -0.67935949332486079 #
straight-curve $-1 61.726737266151922 0 -0.67935949332486079 0 -1 0 I I #
coedge $-1 $254 $253 $326 $370 forward $255 $-1 #
edge $-1 $256 -5.2896819906161667 $368 5.2896819906161738 $254 $375 forward 7 unknown #
point $-1 61.726737266151908 31.993465061982011 -0.67935949332486079 #
straight-curve $-1 67.016419256768074 31.993465061982011 4.7782109026274684 -1 0 0 I I #
edge $-1 $341 48.000138569626344 $344 60.317038123931603 $262 $376 forward 7 unknown #
vertex $-1 $276 $377 #
straight-curve $-1 48.832837148698466 49.27999921711848 13.764698437796909 0 1 0 I I #
edge $-1 $344 -27.695878821028874 $273 -14.578037834310312 $272 $378 forward 7 unknown #
vertex $-1 $343 $379 #
straight-curve $-1 48.832837148698466 -3.7875714122776571 54.495368625344639 0 -0.55919289150049634 0.82903758062907751 I I #
point $-1 48.832837148698466 23.685611670261395 13.764698437796909 #
point $-1 35.714996161979904 31.993465061982008 1.4477988834916502 #
straight-curve $-1 0 31.993465061982011 13.764698437796911 -1 0 0 I I #
vertex $-1 $279 $380 #
point $-1 40.962950729613773 23.404869171470601 4.6150266126360275 #
vertex $-1 $283 $381 #
point $-1 46.584882581064583 23.404869171470601 4.6150266126360275 #
straight-curve $-1 -61.726737266151922 31.993465061982011 0 0 0 -1 I I #
point $-1 -61.726737266151922 -31.993465061982011 -13.764698437796911 #
straight-curve $-1 -61.726737266151922 0 -13.764698437796911 0 1 0 I I #
point $-1 -61.726737266151922 31.993465061982011 -13.764698437796911 #
coedge $-1 $362 $304 $307 $359 reversed $220 $-1 #
straight-curve $-1 -72.306101247384262 31.993465061982011 2.0494257046513038 0 0 -1 I I #
edge $-1 $364 -31.993465061982011 $308 31.993465061982011 $357 $382 forward 7 unknown #
point $-1 -72.306101247384262 31.993465061982011 -0.67935949332486079 #
point $-1 -72.306101247384262 31.993465061982011 4.7782109026274684 #
coedge $-1 $317 $357 $314 $363 reversed $220 $-1 #
edge $-1 $319 -2.7287851979761646 $364 2.7287851979761646 $362 $383 forward 7 unknown #
vertex $-1 $359 $384 #
straight-curve $-1 -67.016419256768089 -31.993465061982011 -0.67935949332486079 -1 0 0 I I #
straight-curve $-1 -72.306101247384262 0 4.7782109026274684 0 -1 0 I I #
point $-1 -72.306101247384262 -31.993465061982011 4.7782109026274684 #
vertex $-1 $325 $385 #
straight-curve $-1 72.306101247384248 0 -0.67935949332486079 0 -1 0 I I #
edge $-1 $328 -2.7287851979761646 $368 2.7287851979761646 $326 $386 forward 7 unknown #
point $-1 72.306101247384248 -31.993465061982011 4.7782109026274684 #
point $-1 72.306101247384248 31.993465061982011 4.7782109026274684 #
straight-curve $-1 72.306101247384248 -31.993465061982011 2.0494257046513038 0 0 -1 I I #
point $-1 72.306101247384248 -31.993465061982011 -0.67935949332486079 #
straight-curve $-1 67.016419256768074 31.993465061982011 -0.67935949332486079 1 0 0 I I #
straight-curve $-1 48.832837148698466 31.993465061982008 61.764837007423253 0 0 -1 I I #
point $-1 48.832837148698466 31.993465061982011 13.764698437796911 #
straight-curve $-1 21.136958327669593 31.993465061982015 1.4477988834916466 -1 0 0 I I #
point $-1 48.832837148698466 31.993465061982008 1.4477988834916502 #
point $-1 39.462950729613773 22.161312800526986 3.7762372753852826 #
point $-1 45.084882581064583 22.161312800526986 3.7762372753852826 #
straight-curve $-1 -72.306101247384262 0 -0.67935949332486079 0 1 0 I I #
straight-curve $-1 -72.306101247384262 -31.993465061982011 2.0494257046513038 0 0 -1 I I #
point $-1 -72.306101247384262 -31.993465061982011 -0.67935949332486079 #
point $-1 72.306101247384248 31.993465061982011 -0.67935949332486079 #
straight-curve $-1 72.306101247384248 31.993465061982011 2.0494257046513038 0 0 -1 I I #
End-of-ACIS-data 