500 0 10 0           
7 Unknown 11 ACIS 5.0 NT 24 Thu Mar 25 17:12:10 1999 
-1 9.9999999999999995e-007 1e-010 
body $-1 $10 $-1 $11 #
body $-1 $12 $-1 $13 #
body $-1 $14 $-1 $15 #
body $-1 $16 $-1 $17 #
body $-1 $18 $-1 $19 #
body $-1 $20 $-1 $21 #
body $-1 $22 $-1 $23 #
body $-1 $24 $-1 $25 #
body $-1 $26 $-1 $27 #
body $-1 $28 $-1 $29 #
lump $-1 $-1 $30 $0 #
transform $-1 1 0 0 0 1 0 0 0 1 48.277840510269478 22.621793500368526 7.2968004353189189 1 rotate no_reflect no_shear #
lump $-1 $-1 $31 $1 #
transform $-1 1 0 0 0 1 0 0 0 1 48.277840510269478 22.621793500368526 7.2968004353189189 1 rotate no_reflect no_shear #
lump $-1 $-1 $32 $2 #
transform $-1 1 0 0 0 1 0 0 0 1 48.277840510269478 22.621793500368526 7.2968004353189189 1 rotate no_reflect no_shear #
lump $-1 $-1 $33 $3 #
transform $-1 1 0 0 0 1 0 0 0 1 48.277840510269478 22.621793500368526 7.2968004353189189 1 rotate no_reflect no_shear #
lump $-1 $-1 $34 $4 #
transform $-1 1 0 0 0 1 0 0 0 1 48.277840510269478 22.621793500368526 7.2968004353189189 1 rotate no_reflect no_shear #
lump $-1 $-1 $35 $5 #
transform $-1 1 0 0 0 1 0 0 0 1 48.277840510269478 22.621793500368526 7.2968004353189189 1 rotate no_reflect no_shear #
lump $-1 $-1 $36 $6 #
transform $-1 1 0 0 0 1 0 0 0 1 48.277840510269478 22.621793500368526 7.2968004353189189 1 rotate no_reflect no_shear #
lump $-1 $-1 $37 $7 #
transform $-1 1 0 0 0 1 0 0 0 1 48.277840510269478 22.621793500368526 7.2968004353189189 1 rotate no_reflect no_shear #
lump $-1 $-1 $38 $8 #
transform $-1 1 0 0 0 1 0 0 0 1 48.277840510269478 22.621793500368526 7.2968004353189189 1 rotate no_reflect no_shear #
lump $-1 $-1 $39 $9 #
transform $-1 1 0 0 0 1 0 0 0 1 48.277840510269478 22.621793500368526 7.2968004353189189 1 rotate no_reflect no_shear #
shell $-1 $-1 $-1 $40 $-1 $10 #
shell $-1 $-1 $-1 $41 $-1 $12 #
shell $-1 $-1 $-1 $42 $-1 $14 #
shell $-1 $-1 $-1 $43 $-1 $16 #
shell $-1 $-1 $-1 $44 $-1 $18 #
shell $-1 $-1 $-1 $45 $-1 $20 #
shell $-1 $-1 $-1 $46 $-1 $22 #
shell $-1 $-1 $-1 $47 $-1 $24 #
shell $-1 $-1 $-1 $48 $-1 $26 #
shell $-1 $-1 $-1 $49 $-1 $28 #
face $-1 $50 $51 $30 $-1 $52 forward single #
face $-1 $53 $54 $31 $-1 $55 reversed single #
face $-1 $56 $57 $32 $-1 $58 reversed single #
face $-1 $59 $60 $33 $-1 $61 reversed single #
face $-1 $62 $63 $34 $-1 $64 forward single #
face $-1 $65 $66 $35 $-1 $67 forward single #
face $-1 $68 $69 $36 $-1 $70 reversed single #
face $-1 $71 $72 $37 $-1 $73 forward single #
face $-1 $74 $75 $38 $-1 $76 forward single #
face $-1 $77 $78 $39 $-1 $79 forward single #
face $-1 $80 $81 $30 $-1 $82 reversed single #
loop $-1 $-1 $83 $40 #
plane-surface $-1 0 0 7.2968004353189189 0 0 1 1 0 0 forward_v I I I I #
face $-1 $84 $85 $31 $-1 $86 reversed single #
loop $-1 $-1 $87 $41 #
plane-surface $-1 -45.802435423474016 0 3.5804582695770657 0 0 1 1 0 0 forward_v I I I I #
face $-1 $88 $89 $32 $-1 $90 reversed single #
loop $-1 $-1 $91 $42 #
plane-surface $-1 45.802435423474016 0 3.5804582695770657 0 0 1 1 0 0 forward_v I I I I #
face $-1 $92 $93 $33 $-1 $94 reversed single #
loop $-1 $-1 $95 $43 #
plane-surface $-1 23.625905552648639 -94.37664902082453 68.440035927730804 1 0 0 0 0.74314483375859142 -0.66913059716165679 forward_v I I I I #
face $-1 $96 $97 $34 $-1 $98 forward single #
loop $-1 $99 $100 $44 #
cone-surface $-1 29.254798348085764 -20.650979002933219 5.1943445301788156 0 0.74314483375859142 -0.66913059716165679 0.5 0 0 1 I I 0 1 0.5 forward I I I I #
face $-1 $101 $102 $35 $-1 $103 forward single #
loop $-1 $104 $105 $45 #
cone-surface $-1 37.698137541241444 -20.650979002933219 5.1943445301788156 0 0.74314483375859142 -0.66913059716165679 0.5 0 0 1 I I 0 1 0.5 forward I I I I #
face $-1 $106 $107 $36 $-1 $108 reversed single #
loop $-1 $-1 $109 $46 #
plane-surface $-1 2.1422552469798717 55.383545908588459 104.26945088397432 1 0 0 0 -0.68199836817093118 -0.7313536940579346 forward_v I I I I #
face $-1 $110 $111 $37 $-1 $112 forward single #
loop $-1 $113 $114 $47 #
cone-surface $-1 3.9304489402111926 19.868095573083771 4.6812455619411528 0 -0.68199836817093118 -0.7313536940579346 0.5 0 0 1 I I 0 1 0.5 forward I I I I #
face $-1 $115 $116 $38 $-1 $117 forward single #
loop $-1 $118 $119 $48 #
cone-surface $-1 6.612739480058174 19.868095573083771 4.6812455619411528 0 -0.68199836817093118 -0.7313536940579346 0.5 0 0 1 I I 0 1 0.5 forward I I I I #
face $-1 $120 $121 $39 $-1 $122 forward single #
loop $-1 $123 $124 $49 #
cone-surface $-1 9.2950300199051483 19.868095573083771 4.6812455619411528 0 -0.68199836817093118 -0.7313536940579346 0.5 0 0 1 I I 0 1 0.5 forward I I I I #
face $-1 $125 $126 $30 $-1 $127 reversed single #
loop $-1 $-1 $128 $50 #
plane-surface $-1 0 0 -7.2968004353189189 0 0 1 1 0 0 forward_v I I I I #
coedge $-1 $129 $130 $131 $132 forward $51 $-1 #
face $-1 $133 $134 $31 $-1 $135 reversed single #
loop $-1 $-1 $136 $53 #
plane-surface $-1 -43.327030336678554 0 5.4386293524479923 -1 0 0 0 0 1 forward_v I I I I #
coedge $-1 $137 $138 $139 $140 forward $54 $-1 #
face $-1 $141 $142 $32 $-1 $143 forward single #
loop $-1 $-1 $144 $56 #
plane-surface $-1 43.327030336678554 0 5.4386293524479923 1 0 0 0 0 -1 forward_v I I I I #
coedge $-1 $145 $146 $147 $148 reversed $57 $-1 #
face $-1 $149 $150 $33 $-1 $151 forward single #
loop $-1 $-1 $152 $59 #
plane-surface $-1 33.476467944663604 -22.621793500368526 3.8316754271071289 0 -0.74314483375859142 0.66913059716165679 1 0 0 forward_v I I I I #
coedge $-1 $153 $154 $155 $156 reversed $60 $-1 #
face $-1 $-1 $157 $34 $-1 $158 forward single #
loop $-1 $159 $160 $62 #
cone-surface $-1 29.254798348085764 -20.054384543927874 4.6571684798542003 0 0.74314483375859142 -0.66913059716165679 0.25 0 0 1 I I -0.70710678118654746 0.70710678118654746 0.25 forward I I I I #
loop $-1 $-1 $161 $44 #
coedge $-1 $100 $100 $162 $163 reversed $63 $-1 #
face $-1 $-1 $164 $35 $-1 $165 forward single #
loop $-1 $166 $167 $65 #
cone-surface $-1 37.698137541241444 -20.054384543927874 4.6571684798542003 0 0.74314483375859142 -0.66913059716165679 0.25 0 0 1 I I -0.70710678118654746 0.70710678118654746 0.25 forward I I I I #
loop $-1 $-1 $168 $45 #
coedge $-1 $105 $105 $169 $170 reversed $66 $-1 #
face $-1 $171 $172 $36 $-1 $173 reversed single #
loop $-1 $-1 $174 $68 #
plane-surface $-1 6.6127394800581669 -10.467270985052053 33.653096887323542 0 0.68199836817093118 0.7313536940579346 1 0 0 forward_v I I I I #
coedge $-1 $175 $176 $177 $178 reversed $69 $-1 #
face $-1 $-1 $179 $37 $-1 $180 forward single #
loop $-1 $181 $182 $71 #
cone-surface $-1 3.9304489402111926 19.356596796955571 4.132730291397702 0 -0.68199836817093118 -0.7313536940579346 0.25 0 0 1 I I -0.70710678118654746 0.70710678118654746 0.25 forward I I I I #
loop $-1 $-1 $183 $47 #
coedge $-1 $114 $114 $184 $185 reversed $72 $-1 #
face $-1 $-1 $186 $38 $-1 $187 forward single #
loop $-1 $188 $189 $74 #
cone-surface $-1 6.612739480058174 19.356596796955571 4.132730291397702 0 -0.68199836817093118 -0.7313536940579346 0.25 0 0 1 I I -0.70710678118654746 0.70710678118654746 0.25 forward I I I I #
loop $-1 $-1 $190 $48 #
coedge $-1 $119 $119 $191 $192 reversed $75 $-1 #
face $-1 $-1 $193 $39 $-1 $194 forward single #
loop $-1 $195 $196 $77 #
cone-surface $-1 9.2950300199051483 19.356596796955571 4.132730291397702 0 -0.68199836817093118 -0.7313536940579346 0.25 0 0 1 I I -0.70710678118654746 0.70710678118654746 0.25 forward I I I I #
loop $-1 $-1 $197 $49 #
coedge $-1 $124 $124 $198 $199 reversed $78 $-1 #
face $-1 $200 $201 $30 $-1 $202 reversed single #
loop $-1 $-1 $203 $80 #
plane-surface $-1 0 -22.621793500368526 0 0 1 0 0 0 1 forward_v I I I I #
coedge $-1 $204 $205 $206 $207 forward $81 $-1 #
coedge $-1 $208 $83 $209 $210 forward $51 $-1 #
coedge $-1 $83 $208 $211 $212 forward $51 $-1 #
coedge $-1 $213 $214 $83 $132 reversed $215 $-1 #
edge $-1 $216 -22.621793500368526 $217 22.621793500368526 $131 $218 forward 7 unknown #
face $-1 $219 $220 $31 $-1 $221 reversed single #
loop $-1 $-1 $222 $84 #
plane-surface $-1 0 22.621793500368526 0 0 -1 0 0 0 -1 forward_v I I I I #
coedge $-1 $139 $223 $224 $225 reversed $85 $-1 #
coedge $-1 $226 $87 $227 $228 reversed $54 $-1 #
coedge $-1 $87 $226 $229 $230 reversed $54 $-1 #
coedge $-1 $231 $136 $87 $140 reversed $85 $-1 #
edge $-1 $232 -22.621793500368526 $233 22.621793500368526 $139 $234 forward 7 unknown #
face $-1 $235 $236 $32 $-1 $237 reversed single #
loop $-1 $-1 $238 $88 #
plane-surface $-1 0 0 7.2968004353189189 0 0 1 1 0 0 forward_v I I I I #
coedge $-1 $239 $240 $238 $241 reversed $89 $-1 #
coedge $-1 $242 $91 $243 $244 reversed $57 $-1 #
coedge $-1 $91 $242 $245 $246 reversed $57 $-1 #
coedge $-1 $247 $248 $91 $148 forward $249 $-1 #
edge $-1 $250 -22.621793500368526 $251 22.621793500368526 $147 $252 forward 7 unknown #
face $-1 $253 $254 $33 $-1 $255 reversed single #
loop $-1 $-1 $256 $92 #
plane-surface $-1 0 0 7.2968004353189189 0 0 1 1 0 0 forward_v I I I I #
coedge $-1 $257 $258 $259 $260 reversed $93 $-1 #
coedge $-1 $154 $95 $261 $262 reversed $60 $-1 #
coedge $-1 $95 $153 $257 $263 reversed $60 $-1 #
coedge $-1 $259 $264 $95 $156 forward $254 $-1 #
edge $-1 $265 26.923217528546484 $266 30.388342536758273 $155 $267 forward 7 unknown #
loop $-1 $-1 $162 $96 #
plane-surface $-1 33.476467944663604 -22.621793500368526 3.8316754271071289 0 -0.74314483375859142 0.66913059716165679 1 0 0 forward_v I I I I #
loop $-1 $-1 $268 $62 #
coedge $-1 $160 $160 $161 $269 reversed $97 $-1 #
coedge $-1 $161 $161 $160 $269 forward $99 $-1 #
coedge $-1 $162 $162 $100 $163 forward $157 $-1 #
edge $-1 $270 2.6828484497641021e-016 $270 6.2831853071796004 $162 $271 forward 7 unknown #
loop $-1 $-1 $169 $101 #
plane-surface $-1 33.476467944663604 -22.621793500368526 3.8316754271071289 0 -0.74314483375859142 0.66913059716165679 1 0 0 forward_v I I I I #
loop $-1 $-1 $272 $65 #
coedge $-1 $167 $167 $168 $273 reversed $102 $-1 #
coedge $-1 $168 $168 $167 $273 forward $104 $-1 #
coedge $-1 $169 $169 $105 $170 forward $164 $-1 #
edge $-1 $274 2.6828484497641021e-016 $274 6.2831853071796004 $169 $275 forward 7 unknown #
face $-1 $276 $277 $36 $-1 $278 reversed single #
loop $-1 $-1 $279 $106 #
plane-surface $-1 11.083223713136462 55.383545908588459 104.26945088397432 -1 0 0 0 0.68199836817093118 0.7313536940579346 forward_v I I I I #
coedge $-1 $280 $281 $282 $283 reversed $107 $-1 #
coedge $-1 $176 $109 $284 $285 reversed $69 $-1 #
coedge $-1 $109 $175 $280 $286 reversed $69 $-1 #
coedge $-1 $282 $287 $109 $178 forward $288 $-1 #
edge $-1 $289 5.0699794539257041 $290 9.8953769403242617 $177 $291 forward 7 unknown #
loop $-1 $-1 $184 $110 #
plane-surface $-1 6.6127394800581669 -10.467270985052053 33.653096887323542 0 0.68199836817093118 0.7313536940579346 1 0 0 forward_v I I I I #
loop $-1 $-1 $292 $71 #
coedge $-1 $182 $182 $183 $293 reversed $111 $-1 #
coedge $-1 $183 $183 $182 $293 forward $113 $-1 #
coedge $-1 $184 $184 $114 $185 forward $179 $-1 #
edge $-1 $294 -7.0138136560165447e-016 $294 6.2831853071795996 $184 $295 forward 7 unknown #
loop $-1 $-1 $191 $115 #
plane-surface $-1 6.6127394800581669 -10.467270985052053 33.653096887323542 0 0.68199836817093118 0.7313536940579346 1 0 0 forward_v I I I I #
loop $-1 $-1 $296 $74 #
coedge $-1 $189 $189 $190 $297 reversed $116 $-1 #
coedge $-1 $190 $190 $189 $297 forward $118 $-1 #
coedge $-1 $191 $191 $119 $192 forward $186 $-1 #
edge $-1 $298 -7.0138136560165447e-016 $298 6.2831853071795996 $191 $299 forward 7 unknown #
loop $-1 $-1 $198 $120 #
plane-surface $-1 6.6127394800581669 -10.467270985052053 33.653096887323542 0 0.68199836817093118 0.7313536940579346 1 0 0 forward_v I I I I #
loop $-1 $-1 $300 $77 #
coedge $-1 $196 $196 $197 $301 reversed $121 $-1 #
coedge $-1 $197 $197 $196 $301 forward $123 $-1 #
coedge $-1 $198 $198 $124 $199 forward $193 $-1 #
edge $-1 $302 -7.0138136560165447e-016 $302 6.2831853071795996 $198 $303 forward 7 unknown #
face $-1 $304 $305 $30 $-1 $306 reversed single #
loop $-1 $-1 $307 $125 #
plane-surface $-1 -48.277840510269478 0 0 1 0 0 0 0 -1 forward_v I I I I #
coedge $-1 $308 $211 $309 $310 forward $126 $-1 #
coedge $-1 $311 $128 $308 $312 forward $81 $-1 #
coedge $-1 $128 $311 $313 $314 forward $81 $-1 #
coedge $-1 $214 $213 $128 $207 reversed $215 $-1 #
edge $-1 $315 -22.621793500368526 $316 22.621793500368526 $206 $317 forward 7 unknown #
coedge $-1 $130 $129 $318 $319 forward $51 $-1 #
coedge $-1 $320 $321 $129 $210 reversed $305 $-1 #
edge $-1 $217 -48.277840510269478 $322 48.277840510269478 $209 $323 forward 7 unknown #
coedge $-1 $203 $324 $130 $212 reversed $126 $-1 #
edge $-1 $325 -48.277840510269478 $216 48.277840510269478 $211 $326 forward 7 unknown #
coedge $-1 $206 $131 $324 $327 forward $215 $-1 #
coedge $-1 $131 $206 $320 $328 reversed $215 $-1 #
loop $-1 $-1 $213 $304 #
vertex $-1 $132 $329 #
vertex $-1 $132 $330 #
straight-curve $-1 48.277840510269478 0 7.2968004353189189 0 1 0 I I #
face $-1 $331 $332 $31 $-1 $333 forward single #
loop $-1 $-1 $334 $133 #
plane-surface $-1 -48.277840510269478 0 0 1 0 0 0 0 -1 forward_v I I I I #
coedge $-1 $229 $335 $231 $336 forward $134 $-1 #
coedge $-1 $136 $231 $337 $338 reversed $85 $-1 #
coedge $-1 $339 $227 $136 $225 forward $340 $-1 #
edge $-1 $233 0.86114359335306956 $341 4.5774857590949232 $224 $342 forward 7 unknown #
coedge $-1 $138 $137 $334 $343 reversed $54 $-1 #
coedge $-1 $224 $344 $137 $228 forward $340 $-1 #
edge $-1 $345 -25.37662279853247 $233 -20.425812624941546 $227 $346 forward 7 unknown #
coedge $-1 $347 $222 $138 $230 forward $134 $-1 #
edge $-1 $232 20.425812624941546 $348 25.37662279853247 $229 $349 forward 7 unknown #
coedge $-1 $223 $139 $222 $336 reversed $85 $-1 #
vertex $-1 $230 $350 #
vertex $-1 $228 $351 #
straight-curve $-1 -43.327030336678554 0 3.5804582695770657 0 -1 0 I I #
face $-1 $352 $353 $32 $-1 $354 reversed single #
loop $-1 $-1 $355 $141 #
plane-surface $-1 0 -22.621793500368526 0 0 1 0 0 0 1 forward_v I I I I #
coedge $-1 $356 $357 $144 $241 forward $142 $-1 #
coedge $-1 $358 $144 $359 $360 reversed $89 $-1 #
coedge $-1 $144 $358 $355 $361 reversed $89 $-1 #
edge $-1 $362 -22.621793500368526 $363 22.621793500368526 $238 $364 forward 7 unknown #
coedge $-1 $146 $145 $358 $365 forward $57 $-1 #
coedge $-1 $366 $355 $145 $244 forward $236 $-1 #
edge $-1 $367 20.425812624941546 $250 25.37662279853247 $243 $368 forward 7 unknown #
coedge $-1 $359 $369 $146 $246 forward $353 $-1 #
edge $-1 $251 -25.37662279853247 $370 -20.425812624941546 $245 $371 forward 7 unknown #
coedge $-1 $372 $147 $369 $373 reversed $249 $-1 #
coedge $-1 $147 $372 $366 $374 forward $249 $-1 #
loop $-1 $-1 $147 $352 #
vertex $-1 $244 $375 #
vertex $-1 $148 $376 #
straight-curve $-1 48.277840510269478 0 3.5804582695770657 0 1 0 I I #
face $-1 $-1 $377 $33 $-1 $378 forward single #
loop $-1 $-1 $155 $149 #
plane-surface $-1 0 -22.621793500368526 0 0 1 0 0 0 1 forward_v I I I I #
coedge $-1 $261 $379 $380 $381 forward $150 $-1 #
coedge $-1 $380 $152 $154 $263 forward $93 $-1 #
coedge $-1 $152 $380 $382 $383 reversed $93 $-1 #
coedge $-1 $384 $155 $152 $260 forward $254 $-1 #
edge $-1 $266 6.8876715803168373 $385 26.588796364346752 $259 $386 forward 7 unknown #
coedge $-1 $387 $256 $153 $262 forward $150 $-1 #
edge $-1 $388 -27.686543503782939 $265 -24.56653101004374 $261 $389 forward 7 unknown #
edge $-1 $266 0 $388 4.6627855712678299 $154 $390 forward 7 unknown #
coedge $-1 $155 $384 $387 $391 reversed $254 $-1 #
vertex $-1 $391 $392 #
vertex $-1 $156 $393 #
straight-curve $-1 23.625905552648639 -22.621793500368526 34.220017963865402 0 0 -1 I I #
coedge $-1 $268 $268 $-1 $394 reversed $159 $-1 #
edge $-1 $395 0 $395 6.2831853071796004 $160 $396 forward 7 unknown #
vertex $-1 $163 $397 #
ellipse-curve $-1 29.254798348085764 -21.061787253498927 5.5642379312130235 0 -0.74314483375859142 0.66913059716165679 0.5 0 0 1 I I #
coedge $-1 $272 $272 $-1 $398 reversed $166 $-1 #
edge $-1 $399 0 $399 6.2831853071796004 $167 $400 forward 7 unknown #
vertex $-1 $170 $401 #
ellipse-curve $-1 37.698137541241444 -21.061787253498927 5.5642379312130235 0 -0.74314483375859142 0.66913059716165679 0.5 0 0 1 I I #
face $-1 $-1 $288 $36 $-1 $402 forward single #
loop $-1 $-1 $403 $171 #
plane-surface $-1 0 22.621793500368526 0 0 -1 0 0 0 -1 forward_v I I I I #
coedge $-1 $404 $405 $406 $407 reversed $172 $-1 #
coedge $-1 $408 $174 $176 $286 forward $107 $-1 #
coedge $-1 $174 $408 $404 $409 forward $107 $-1 #
coedge $-1 $406 $177 $174 $283 forward $288 $-1 #
edge $-1 $290 -1.1641144930492118 $410 7.7768539731073787 $282 $411 forward 7 unknown #
coedge $-1 $412 $413 $175 $285 forward $277 $-1 #
edge $-1 $414 -49.337681059365821 $289 -44.837925006668236 $284 $415 forward 7 unknown #
edge $-1 $290 38.645688438654552 $414 45.24358700073703 $176 $416 forward 7 unknown #
coedge $-1 $177 $406 $412 $417 forward $288 $-1 #
loop $-1 $-1 $406 $276 #
vertex $-1 $285 $418 #
vertex $-1 $178 $419 #
straight-curve $-1 2.1422552469798717 27.69177295429423 7.2968004353189215 0 -1 0 I I #
coedge $-1 $292 $292 $-1 $420 reversed $181 $-1 #
edge $-1 $421 0 $421 6.2831853071796004 $182 $422 forward 7 unknown #
vertex $-1 $185 $423 #
ellipse-curve $-1 3.9304489402111926 20.209094757169243 5.0469224089701274 0 0.68199836817093118 0.7313536940579346 0.5 0 0 1 I I #
coedge $-1 $296 $296 $-1 $424 reversed $188 $-1 #
edge $-1 $425 0 $425 6.2831853071796004 $189 $426 forward 7 unknown #
vertex $-1 $192 $427 #
ellipse-curve $-1 6.612739480058174 20.209094757169243 5.0469224089701274 0 0.68199836817093118 0.7313536940579346 0.5 0 0 1 I I #
coedge $-1 $300 $300 $-1 $428 reversed $195 $-1 #
edge $-1 $429 0 $429 6.2831853071796004 $196 $430 forward 7 unknown #
vertex $-1 $199 $431 #
ellipse-curve $-1 9.2950300199051483 20.209094757169243 5.0469224089701274 0 0.68199836817093118 0.7313536940579346 0.5 0 0 1 I I #
face $-1 $-1 $215 $30 $-1 $432 reversed single #
loop $-1 $-1 $320 $200 #
plane-surface $-1 0 22.621793500368526 0 0 -1 0 0 0 -1 forward_v I I I I #
coedge $-1 $433 $318 $321 $434 forward $201 $-1 #
coedge $-1 $324 $203 $204 $312 reversed $126 $-1 #
coedge $-1 $318 $433 $203 $310 reversed $201 $-1 #
edge $-1 $325 -7.2968004353189189 $435 7.2968004353189189 $309 $436 forward 7 unknown #
coedge $-1 $205 $204 $433 $437 forward $81 $-1 #
edge $-1 $316 -48.277840510269478 $435 48.277840510269478 $308 $438 forward 7 unknown #
coedge $-1 $321 $320 $205 $314 reversed $305 $-1 #
edge $-1 $439 -48.277840510269478 $315 48.277840510269478 $313 $440 forward 7 unknown #
vertex $-1 $207 $441 #
vertex $-1 $327 $442 #
straight-curve $-1 48.277840510269478 0 -7.2968004353189189 0 -1 0 I I #
coedge $-1 $307 $309 $208 $319 reversed $201 $-1 #
edge $-1 $322 -22.621793500368526 $325 22.621793500368526 $318 $443 forward 7 unknown #
coedge $-1 $313 $209 $214 $328 forward $305 $-1 #
coedge $-1 $209 $313 $307 $434 reversed $305 $-1 #
vertex $-1 $210 $444 #
straight-curve $-1 0 22.621793500368526 7.2968004353189189 -1 0 0 I I #
coedge $-1 $211 $308 $213 $327 reversed $126 $-1 #
vertex $-1 $319 $445 #
straight-curve $-1 0 -22.621793500368526 7.2968004353189189 1 0 0 I I #
edge $-1 $216 -7.2968004353189189 $316 7.2968004353189189 $213 $446 forward 7 unknown #
edge $-1 $217 -7.2968004353189189 $315 7.2968004353189189 $214 $447 forward 7 unknown #
point $-1 48.277840510269478 -22.621793500368526 7.2968004353189189 #
point $-1 48.277840510269478 22.621793500368526 7.2968004353189189 #
face $-1 $-1 $340 $31 $-1 $448 reversed single #
loop $-1 $-1 $337 $219 #
plane-surface $-1 0 0 7.2968004353189189 0 0 1 1 0 0 forward_v I I I I #
coedge $-1 $449 $450 $226 $343 forward $220 $-1 #
coedge $-1 $222 $347 $451 $452 reversed $134 $-1 #
edge $-1 $453 -4.5774857590949232 $232 -0.86114359335306956 $222 $454 forward 7 unknown #
coedge $-1 $451 $455 $223 $338 forward $332 $-1 #
edge $-1 $341 -22.621793500368526 $453 22.621793500368526 $337 $456 forward 7 unknown #
coedge $-1 $344 $224 $455 $457 reversed $340 $-1 #
loop $-1 $-1 $224 $331 #
vertex $-1 $225 $458 #
straight-curve $-1 -43.327030336678554 -22.621793500368526 2.7193146762239961 0 0 1 I I #
edge $-1 $348 -22.621793500368526 $345 22.621793500368526 $334 $459 forward 7 unknown #
coedge $-1 $227 $339 $449 $460 forward $340 $-1 #
vertex $-1 $343 $461 #
straight-curve $-1 -22.901217711737008 -22.621793500368526 3.5804582695770657 1 0 0 I I #
coedge $-1 $335 $229 $450 $462 reversed $134 $-1 #
vertex $-1 $343 $463 #
straight-curve $-1 -22.901217711737008 22.621793500368526 3.5804582695770657 -1 0 0 I I #
point $-1 -43.327030336678554 22.621793500368526 3.5804582695770657 #
point $-1 -43.327030336678554 -22.621793500368526 3.5804582695770657 #
face $-1 $-1 $249 $32 $-1 $464 reversed single #
loop $-1 $-1 $359 $235 #
plane-surface $-1 0 22.621793500368526 0 0 -1 0 0 0 -1 forward_v I I I I #
coedge $-1 $243 $465 $240 $361 forward $236 $-1 #
coedge $-1 $466 $238 $465 $467 forward $142 $-1 #
coedge $-1 $238 $466 $468 $469 forward $142 $-1 #
coedge $-1 $240 $239 $242 $365 reversed $89 $-1 #
coedge $-1 $468 $245 $239 $360 forward $353 $-1 #
edge $-1 $370 0.86114359335306956 $362 4.5774857590949232 $359 $470 forward 7 unknown #
edge $-1 $363 -4.5774857590949232 $367 -0.86114359335306956 $355 $471 forward 7 unknown #
vertex $-1 $360 $472 #
vertex $-1 $467 $473 #
straight-curve $-1 43.327030336678554 0 7.2968004353189189 0 -1 0 I I #
edge $-1 $367 -22.621793500368526 $370 22.621793500368526 $358 $474 forward 7 unknown #
coedge $-1 $465 $243 $248 $374 reversed $236 $-1 #
vertex $-1 $244 $475 #
straight-curve $-1 22.901217711737008 -22.621793500368526 3.5804582695770657 1 0 0 I I #
coedge $-1 $245 $468 $247 $373 forward $353 $-1 #
vertex $-1 $246 $476 #
straight-curve $-1 22.901217711737008 22.621793500368526 3.5804582695770657 -1 0 0 I I #
coedge $-1 $248 $247 $466 $477 reversed $249 $-1 #
edge $-1 $478 -7.2968004353189189 $251 -3.5804582695770657 $247 $479 forward 7 unknown #
edge $-1 $480 -7.2968004353189189 $250 -3.5804582695770657 $248 $481 forward 7 unknown #
point $-1 48.277840510269478 -22.621793500368526 3.5804582695770657 #
point $-1 48.277840510269478 22.621793500368526 3.5804582695770657 #
loop $-1 $-1 $382 $253 #
plane-surface $-1 43.327030336678554 0 5.4386293524479923 1 0 0 0 0 -1 forward_v I I I I #
coedge $-1 $256 $387 $482 $483 forward $150 $-1 #
coedge $-1 $258 $257 $256 $381 reversed $93 $-1 #
edge $-1 $484 -26.588796364346752 $388 -6.8876715803168373 $256 $485 forward 7 unknown #
coedge $-1 $482 $486 $258 $383 forward $377 $-1 #
edge $-1 $385 -8.1655668507372141 $484 -3.5027812794693842 $382 $487 forward 7 unknown #
coedge $-1 $264 $259 $486 $488 forward $254 $-1 #
vertex $-1 $488 $489 #
straight-curve $-1 16.738233972331802 -22.621793500368526 3.8316754271071298 1 0 0 I I #
coedge $-1 $379 $261 $264 $391 forward $150 $-1 #
vertex $-1 $262 $490 #
straight-curve $-1 23.625905552648639 -47.188324510412265 7.296800435318918 0 -1 0 I I #
straight-curve $-1 23.625905552648639 -22.621793500368526 3.8316754271071289 0 0.66913059716165679 0.74314483375859142 I I #
edge $-1 $265 23.625905552648639 $491 43.327030336678554 $264 $492 forward 7 unknown #
point $-1 23.625905552648639 -22.621793500368526 7.2968004353189189 #
point $-1 23.625905552648639 -22.621793500368526 3.8316754271071289 #
edge $-1 $493 1 $493 0 $268 $-1 forward 7 unknown #
vertex $-1 $269 $494 #
ellipse-curve $-1 29.254798348085764 -20.240170752367522 4.8244511291446148 0 -0.74314483375859142 0.66913059716165679 0.5 0 0 1 I I #
point $-1 29.754798348085764 -21.06178725349892 5.5642379312130172 #
edge $-1 $495 1 $495 0 $272 $-1 forward 7 unknown #
vertex $-1 $273 $496 #
ellipse-curve $-1 37.698137541241444 -20.240170752367522 4.8244511291446148 0 -0.74314483375859142 0.66913059716165679 0.5 0 0 1 I I #
point $-1 38.198137541241444 -21.06178725349892 5.5642379312130172 #
plane-surface $-1 0 0 7.2968004353189189 0 0 1 1 0 0 forward_v I I I I #
coedge $-1 $413 $412 $405 $497 forward $277 $-1 #
coedge $-1 $405 $279 $281 $409 reversed $172 $-1 #
coedge $-1 $279 $404 $403 $497 reversed $172 $-1 #
coedge $-1 $287 $282 $279 $407 forward $288 $-1 #
edge $-1 $410 -9.8953769403242617 $498 -5.0699794539257041 $406 $499 forward 7 unknown #
coedge $-1 $281 $280 $413 $500 reversed $107 $-1 #
edge $-1 $501 -45.24358700073703 $410 -38.645688438654552 $404 $502 forward 7 unknown #
vertex $-1 $283 $503 #
straight-curve $-1 3.3063697400290835 17.796396013969968 7.2968004353189144 1 0 0 I I #
coedge $-1 $403 $284 $287 $417 reversed $277 $-1 #
coedge $-1 $284 $403 $408 $500 forward $277 $-1 #
vertex $-1 $285 $504 #
straight-curve $-1 2.1422552469798717 22.621793500368526 52.134725441987158 0 0 1 I I #
straight-curve $-1 2.1422552469798717 -10.467270985052053 33.653096887323542 0 0.7313536940579346 -0.68199836817093118 I I #
edge $-1 $498 -11.083223713136462 $289 -2.1422552469798717 $412 $505 forward 7 unknown #
point $-1 2.1422552469798717 22.621793500368526 7.2968004353189189 #
point $-1 2.1422552469798717 17.796396013969968 7.296800435318918 #
edge $-1 $506 1 $506 0 $292 $-1 forward 7 unknown #
vertex $-1 $293 $507 #
ellipse-curve $-1 3.9304489402111926 19.527096388998306 4.3155687149121853 0 0.68199836817093118 0.7313536940579346 0.5 0 0 1 I I #
point $-1 4.4304489402111926 20.209094757169236 5.0469224089701203 #
edge $-1 $508 1 $508 0 $296 $-1 forward 7 unknown #
vertex $-1 $297 $509 #
ellipse-curve $-1 6.612739480058174 19.527096388998306 4.3155687149121853 0 0.68199836817093118 0.7313536940579346 0.5 0 0 1 I I #
point $-1 7.112739480058174 20.209094757169236 5.0469224089701203 #
edge $-1 $510 1 $510 0 $300 $-1 forward 7 unknown #
vertex $-1 $301 $511 #
ellipse-curve $-1 9.2950300199051483 19.527096388998306 4.3155687149121853 0 0.68199836817093118 0.7313536940579346 0.5 0 0 1 I I #
point $-1 9.7950300199051483 20.209094757169236 5.0469224089701203 #
plane-surface $-1 48.277840510269478 0 0 -1 0 0 0 0 1 forward_v I I I I #
coedge $-1 $309 $307 $311 $437 reversed $201 $-1 #
edge $-1 $322 -7.2968004353189189 $439 7.2968004353189189 $321 $512 forward 7 unknown #
vertex $-1 $437 $513 #
straight-curve $-1 -48.277840510269478 -22.621793500368526 0 0 0 -1 I I #
edge $-1 $435 -22.621793500368526 $439 22.621793500368526 $433 $514 forward 7 unknown #
straight-curve $-1 0 -22.621793500368526 -7.2968004353189189 -1 0 0 I I #
vertex $-1 $314 $515 #
straight-curve $-1 0 22.621793500368526 -7.2968004353189189 1 0 0 I I #
point $-1 48.277840510269478 22.621793500368526 -7.2968004353189189 #
point $-1 48.277840510269478 -22.621793500368526 -7.2968004353189189 #
straight-curve $-1 -48.277840510269478 0 7.2968004353189189 0 -1 0 I I #
point $-1 -48.277840510269478 22.621793500368526 7.2968004353189189 #
point $-1 -48.277840510269478 -22.621793500368526 7.2968004353189189 #
straight-curve $-1 48.277840510269478 -22.621793500368526 0 0 0 -1 I I #
straight-curve $-1 48.277840510269478 22.621793500368526 0 0 0 -1 I I #
plane-surface $-1 0 -22.621793500368526 0 0 1 0 0 0 1 forward_v I I I I #
coedge $-1 $516 $334 $344 $460 reversed $220 $-1 #
coedge $-1 $334 $516 $347 $462 forward $220 $-1 #
coedge $-1 $517 $337 $335 $452 forward $332 $-1 #
edge $-1 $453 43.327030336678554 $518 48.277840510269478 $335 $519 forward 7 unknown #
vertex $-1 $452 $520 #
straight-curve $-1 -43.327030336678554 22.621793500368526 2.7193146762239961 0 0 -1 I I #
coedge $-1 $337 $517 $339 $457 forward $332 $-1 #
straight-curve $-1 -43.327030336678554 0 7.2968004353189189 0 1 0 I I #
edge $-1 $521 -48.277840510269478 $341 -43.327030336678554 $339 $522 forward 7 unknown #
point $-1 -43.327030336678554 -22.621793500368526 7.2968004353189189 #
straight-curve $-1 -48.277840510269478 0 3.5804582695770657 0 -1 0 I I #
edge $-1 $521 -7.2968004353189189 $345 -3.5804582695770657 $449 $523 forward 7 unknown #
point $-1 -48.277840510269478 -22.621793500368526 3.5804582695770657 #
edge $-1 $518 -7.2968004353189189 $348 -3.5804582695770657 $347 $524 forward 7 unknown #
point $-1 -48.277840510269478 22.621793500368526 3.5804582695770657 #
plane-surface $-1 48.277840510269478 0 0 -1 0 0 0 0 1 forward_v I I I I #
coedge $-1 $355 $366 $356 $467 reversed $236 $-1 #
coedge $-1 $357 $356 $372 $477 forward $142 $-1 #
edge $-1 $363 43.327030336678554 $480 48.277840510269478 $465 $525 forward 7 unknown #
coedge $-1 $369 $359 $357 $469 reversed $353 $-1 #
edge $-1 $478 -48.277840510269478 $362 -43.327030336678554 $468 $526 forward 7 unknown #
straight-curve $-1 43.327030336678554 22.621793500368526 2.7193146762239961 0 0 1 I I #
straight-curve $-1 43.327030336678554 -22.621793500368526 2.7193146762239961 0 0 -1 I I #
point $-1 43.327030336678554 22.621793500368526 7.2968004353189189 #
point $-1 43.327030336678554 -22.621793500368526 7.2968004353189189 #
straight-curve $-1 43.327030336678554 0 3.5804582695770657 0 1 0 I I #
point $-1 43.327030336678554 -22.621793500368526 3.5804582695770657 #
point $-1 43.327030336678554 22.621793500368526 3.5804582695770657 #
edge $-1 $480 -22.621793500368526 $478 22.621793500368526 $372 $527 forward 7 unknown #
vertex $-1 $477 $528 #
straight-curve $-1 48.277840510269478 22.621793500368526 0 0 0 -1 I I #
vertex $-1 $477 $529 #
straight-curve $-1 48.277840510269478 -22.621793500368526 0 0 0 -1 I I #
coedge $-1 $486 $382 $379 $483 reversed $377 $-1 #
edge $-1 $491 -22.621793500368526 $484 -19.501781006629326 $379 $530 forward 7 unknown #
vertex $-1 $383 $531 #
straight-curve $-1 16.738233972331802 -19.501781006629326 7.2968004353189189 -1 0 0 I I #
coedge $-1 $382 $482 $384 $488 reversed $377 $-1 #
straight-curve $-1 43.327030336678554 -17.157962877371304 9.8998742469429004 0 0.66913059716165679 0.74314483375859142 I I #
edge $-1 $385 1.1123607508831328 $491 4.5774857590949232 $384 $532 forward 7 unknown #
point $-1 43.327030336678554 -22.621793500368526 3.8316754271071289 #
point $-1 23.625905552648639 -19.501781006629326 7.2968004353189198 #
vertex $-1 $483 $533 #
straight-curve $-1 0 -22.621793500368526 7.2968004353189189 1 0 0 I I #
vertex $-1 $394 $534 #
point $-1 29.754798348085764 -20.240170752367522 4.8244511291446148 #
vertex $-1 $398 $535 #
point $-1 38.198137541241444 -20.240170752367522 4.8244511291446148 #
edge $-1 $498 44.837925006668236 $501 49.337681059365821 $403 $536 forward 7 unknown #
vertex $-1 $417 $537 #
straight-curve $-1 11.083223713136462 27.69177295429423 7.2968004353189215 0 1 0 I I #
edge $-1 $501 -7.7768539731073787 $414 1.1641144930492118 $413 $538 forward 7 unknown #
vertex $-1 $500 $539 #
straight-curve $-1 11.083223713136462 -10.467270985052053 33.653096887323542 0 -0.7313536940579346 0.68199836817093118 I I #
point $-1 11.083223713136462 17.796396013969968 7.296800435318918 #
point $-1 2.1422552469798717 22.621793500368526 2.7970443826213334 #
straight-curve $-1 0 22.621793500368526 7.2968004353189189 -1 0 0 I I #
vertex $-1 $420 $540 #
point $-1 4.4304489402111926 19.527096388998306 4.3155687149121853 #
vertex $-1 $424 $541 #
point $-1 7.112739480058174 19.527096388998306 4.3155687149121853 #
vertex $-1 $428 $542 #
point $-1 9.7950300199051483 19.527096388998306 4.3155687149121853 #
straight-curve $-1 -48.277840510269478 22.621793500368526 0 0 0 -1 I I #
point $-1 -48.277840510269478 -22.621793500368526 -7.2968004353189189 #
straight-curve $-1 -48.277840510269478 0 -7.2968004353189189 0 1 0 I I #
point $-1 -48.277840510269478 22.621793500368526 -7.2968004353189189 #
coedge $-1 $450 $449 $517 $543 reversed $220 $-1 #
coedge $-1 $455 $451 $516 $543 forward $332 $-1 #
vertex $-1 $452 $544 #
straight-curve $-1 0 22.621793500368526 7.2968004353189189 -1 0 0 I I #
point $-1 -43.327030336678554 22.621793500368526 7.2968004353189189 #
vertex $-1 $543 $545 #
straight-curve $-1 0 -22.621793500368526 7.2968004353189189 1 0 0 I I #
straight-curve $-1 -48.277840510269478 -22.621793500368526 0 0 0 -1 I I #
straight-curve $-1 -48.277840510269478 22.621793500368526 0 0 0 -1 I I #
straight-curve $-1 0 -22.621793500368526 7.2968004353189189 1 0 0 I I #
straight-curve $-1 0 22.621793500368526 7.2968004353189189 -1 0 0 I I #
straight-curve $-1 48.277840510269478 0 7.2968004353189189 0 1 0 I I #
point $-1 48.277840510269478 22.621793500368526 7.2968004353189189 #
point $-1 48.277840510269478 -22.621793500368526 7.2968004353189189 #
straight-curve $-1 43.327030336678554 0 7.2968004353189189 0 1 0 I I #
point $-1 43.327030336678554 -19.501781006629326 7.2968004353189189 #
straight-curve $-1 43.327030336678554 -22.621793500368526 2.7193146762239961 0 0 1 I I #
point $-1 43.327030336678554 -22.621793500368526 7.2968004353189189 #
point $-1 29.254798348085764 -19.868598335488226 4.4898858305637859 #
point $-1 37.698137541241444 -19.868598335488226 4.4898858305637859 #
straight-curve $-1 11.083223713136462 22.621793500368526 52.134725441987158 0 0 -1 I I #
point $-1 11.083223713136462 22.621793500368526 7.2968004353189189 #
straight-curve $-1 3.3063697400290835 22.621793500368526 2.7970443826213298 -1 0 0 I I #
point $-1 11.083223713136462 22.621793500368526 2.7970443826213334 #
point $-1 3.9304489402111926 19.186097204912837 3.9498918678832182 #
point $-1 6.612739480058174 19.186097204912837 3.9498918678832182 #
point $-1 9.2950300199051483 19.186097204912837 3.9498918678832182 #
edge $-1 $518 -22.621793500368526 $521 22.621793500368526 $516 $546 forward 7 unknown #
point $-1 -48.277840510269478 22.621793500368526 7.2968004353189189 #
point $-1 -48.277840510269478 -22.621793500368526 7.2968004353189189 #
straight-curve $-1 -48.277840510269478 0 7.2968004353189189 0 -1 0 I I #
End-of-ACIS-data 