500 0 12 0           
7 Unknown 11 ACIS 5.0 NT 24 Fri Mar 26 00:36:41 1999 
-1 9.9999999999999995e-007 1e-010 
body $-1 $12 $-1 $13 #
body $-1 $14 $-1 $15 #
body $-1 $16 $-1 $17 #
body $-1 $18 $-1 $19 #
body $-1 $20 $-1 $21 #
body $-1 $22 $-1 $23 #
body $-1 $24 $-1 $25 #
body $-1 $26 $-1 $27 #
body $-1 $28 $-1 $29 #
body $-1 $30 $-1 $31 #
body $-1 $32 $-1 $33 #
body $-1 $34 $-1 $35 #
lump $-1 $-1 $36 $0 #
transform $-1 1 0 0 0 1 0 0 0 1 69.229407635731064 44.904779410659032 10.973693689713803 1 rotate no_reflect no_shear #
lump $-1 $-1 $37 $1 #
transform $-1 1 0 0 0 1 0 0 0 1 69.229407635731064 44.904779410659032 10.973693689713803 1 rotate no_reflect no_shear #
lump $-1 $-1 $38 $2 #
transform $-1 1 0 0 0 1 0 0 0 1 69.229407635731064 44.904779410659032 10.973693689713803 1 rotate no_reflect no_shear #
lump $-1 $-1 $39 $3 #
transform $-1 1 0 0 0 1 0 0 0 1 69.229407635731064 44.904779410659032 10.973693689713803 1 rotate no_reflect no_shear #
lump $-1 $-1 $40 $4 #
transform $-1 1 0 0 0 1 0 0 0 1 69.229407635731064 44.904779410659032 10.973693689713803 1 rotate no_reflect no_shear #
lump $-1 $-1 $41 $5 #
transform $-1 1 0 0 0 1 0 0 0 1 69.229407635731064 44.904779410659032 10.973693689713803 1 rotate no_reflect no_shear #
lump $-1 $-1 $42 $6 #
transform $-1 1 0 0 0 1 0 0 0 1 69.229407635731064 44.904779410659032 10.973693689713803 1 rotate no_reflect no_shear #
lump $-1 $-1 $43 $7 #
transform $-1 1 0 0 0 1 0 0 0 1 69.229407635731064 44.904779410659032 10.973693689713803 1 rotate no_reflect no_shear #
lump $-1 $-1 $44 $8 #
transform $-1 1 0 0 0 1 0 0 0 1 69.229407635731064 44.904779410659032 10.973693689713803 1 rotate no_reflect no_shear #
lump $-1 $-1 $45 $9 #
transform $-1 1 0 0 0 1 0 0 0 1 69.229407635731064 44.904779410659032 10.973693689713803 1 rotate no_reflect no_shear #
lump $-1 $-1 $46 $10 #
transform $-1 1 0 0 0 1 0 0 0 1 69.229407635731064 44.904779410659032 10.973693689713803 1 rotate no_reflect no_shear #
lump $-1 $-1 $47 $11 #
transform $-1 1 0 0 0 1 0 0 0 1 69.229407635731064 44.904779410659032 10.973693689713803 1 rotate no_reflect no_shear #
shell $-1 $-1 $-1 $48 $-1 $12 #
shell $-1 $-1 $-1 $49 $-1 $14 #
shell $-1 $-1 $-1 $50 $-1 $16 #
shell $-1 $-1 $-1 $51 $-1 $18 #
shell $-1 $-1 $-1 $52 $-1 $20 #
shell $-1 $-1 $-1 $53 $-1 $22 #
shell $-1 $-1 $-1 $54 $-1 $24 #
shell $-1 $-1 $-1 $55 $-1 $26 #
shell $-1 $-1 $-1 $56 $-1 $28 #
shell $-1 $-1 $-1 $57 $-1 $30 #
shell $-1 $-1 $-1 $58 $-1 $32 #
shell $-1 $-1 $-1 $59 $-1 $34 #
face $-1 $60 $61 $36 $-1 $62 forward single #
face $-1 $63 $64 $37 $-1 $65 forward single #
face $-1 $66 $67 $38 $-1 $68 reversed single #
face $-1 $69 $70 $39 $-1 $71 forward single #
face $-1 $72 $73 $40 $-1 $74 forward single #
face $-1 $75 $76 $41 $-1 $77 reversed single #
face $-1 $78 $79 $42 $-1 $80 forward single #
face $-1 $81 $82 $43 $-1 $83 forward single #
face $-1 $84 $85 $44 $-1 $86 reversed single #
face $-1 $87 $88 $45 $-1 $89 forward single #
face $-1 $90 $91 $46 $-1 $92 reversed single #
face $-1 $93 $94 $47 $-1 $95 forward single #
face $-1 $96 $97 $36 $-1 $98 reversed single #
loop $-1 $-1 $99 $48 #
plane-surface $-1 0 0 10.973693689713803 0 0 1 1 0 0 forward_v I I I I #
face $-1 $100 $101 $37 $-1 $102 reversed single #
loop $-1 $-1 $103 $49 #
plane-surface $-1 -62.29953363415818 0 -3.8355875669521602 0 0 1 1 0 0 forward_v I I I I #
face $-1 $104 $105 $38 $-1 $106 reversed single #
loop $-1 $-1 $107 $50 #
plane-surface $-1 -16.216797416895965 76.482766129471145 167.47868685909268 1 0 0 0 -0.69465837861970381 -0.71933979245794832 forward_v I I I I #
face $-1 $108 $109 $39 $-1 $110 forward single #
loop $-1 $111 $112 $51 #
cone-surface $-1 -9.6034627259048619 41.144903731021252 7.2784262251415779 0 -0.69465837861970381 -0.71933979245794832 1.5 0 0 1 I I 0 1 1.5 forward I I I I #
face $-1 $113 $114 $40 $-1 $115 forward single #
loop $-1 $116 $117 $52 #
cone-surface $-1 0.31653931058178841 41.144903731021252 7.2784262251415779 0 -0.69465837861970381 -0.71933979245794832 1.5 0 0 1 I I 0 1 1.5 forward I I I I #
face $-1 $118 $119 $41 $-1 $120 reversed single #
loop $-1 $-1 $121 $53 #
plane-surface $-1 46.082736217262216 76.482766129471145 167.47868685909268 1 0 0 0 -0.69465837861970381 -0.71933979245794832 forward_v I I I I #
face $-1 $122 $123 $42 $-1 $124 forward single #
loop $-1 $125 $126 $54 #
cone-surface $-1 52.696070908253319 41.144903731021252 7.2784262251415779 0 -0.69465837861970381 -0.71933979245794832 1.5 0 0 1 I I 0 1 1.5 forward I I I I #
face $-1 $127 $128 $43 $-1 $129 forward single #
loop $-1 $130 $131 $55 #
cone-surface $-1 62.616072944739955 41.144903731021252 7.2784262251415779 0 -0.69465837861970381 -0.71933979245794832 1.5 0 0 1 I I 0 1 1.5 forward I I I I #
face $-1 $132 $133 $44 $-1 $134 reversed single #
loop $-1 $-1 $135 $56 #
plane-surface $-1 -32.676245982075287 -124.32149427896698 120.75568004258838 -1 0 0 0 -0.57357644374324357 0.81915203911291934 forward_v I I I I #
face $-1 $136 $137 $45 $-1 $138 forward single #
loop $-1 $139 $140 $57 #
cone-surface $-1 -39.231034555348458 -40.770972381292196 6.9604442060583391 0 0.57357644374324357 -0.81915203911291934 1.5 0 0 1 I I 0 1 1.5 forward I I I I #
face $-1 $141 $142 $46 $-1 $143 reversed single #
loop $-1 $-1 $144 $58 #
plane-surface $-1 29.623287652082894 -124.32149427896698 120.75568004258838 -1 0 0 0 -0.57357644374324357 0.81915203911291934 forward_v I I I I #
face $-1 $145 $146 $47 $-1 $147 forward single #
loop $-1 $148 $149 $59 #
cone-surface $-1 23.068499078809722 -40.770972381292196 6.9604442060583391 0 0.57357644374324357 -0.81915203911291934 1.5 0 0 1 I I 0 1 1.5 forward I I I I #
face $-1 $150 $151 $36 $-1 $152 reversed single #
loop $-1 $-1 $153 $60 #
plane-surface $-1 0 0 -10.973693689713803 0 0 1 1 0 0 forward_v I I I I #
coedge $-1 $154 $155 $156 $157 forward $61 $-1 #
face $-1 $158 $159 $37 $-1 $160 reversed single #
loop $-1 $-1 $161 $63 #
plane-surface $-1 -62.29953363415818 0 -10.333399380867537 0 0 1 1 0 0 forward_v I I I I #
coedge $-1 $162 $163 $164 $165 forward $64 $-1 #
face $-1 $166 $167 $38 $-1 $168 reversed single #
loop $-1 $-1 $169 $66 #
plane-surface $-1 -4.6434617076615439 -19.698809992607821 67.879751417745709 0 0.69465837861970381 0.71933979245794832 1 0 0 forward_v I I I I #
coedge $-1 $170 $171 $172 $173 reversed $67 $-1 #
face $-1 $-1 $174 $39 $-1 $175 forward single #
loop $-1 $176 $177 $69 #
cone-surface $-1 -9.6034627259048619 39.701855730133914 5.7841063098938026 0 -0.69465837861970381 -0.71933979245794832 0.75 0 0 1 I I -0.70710678118654757 0.70710678118654757 0.75 forward I I I I #
loop $-1 $-1 $178 $51 #
coedge $-1 $112 $112 $179 $180 reversed $70 $-1 #
face $-1 $-1 $181 $40 $-1 $182 forward single #
loop $-1 $183 $184 $72 #
cone-surface $-1 0.31653931058178841 39.701855730133914 5.7841063098938026 0 -0.69465837861970381 -0.71933979245794832 0.75 0 0 1 I I -0.70710678118654757 0.70710678118654757 0.75 forward I I I I #
loop $-1 $-1 $185 $52 #
coedge $-1 $117 $117 $186 $187 reversed $73 $-1 #
face $-1 $188 $189 $41 $-1 $190 forward single #
loop $-1 $-1 $191 $75 #
plane-surface $-1 57.656071926496637 -19.698809992607821 67.879751417745709 0 0.69465837861970381 0.71933979245794832 1 0 0 forward_v I I I I #
coedge $-1 $192 $193 $194 $195 reversed $76 $-1 #
face $-1 $-1 $196 $42 $-1 $197 forward single #
loop $-1 $198 $199 $78 #
cone-surface $-1 52.696070908253319 39.701855730133914 5.7841063098938026 0 -0.69465837861970381 -0.71933979245794832 0.75 0 0 1 I I -0.70710678118654757 0.70710678118654757 0.75 forward I I I I #
loop $-1 $-1 $200 $54 #
coedge $-1 $126 $126 $201 $202 reversed $79 $-1 #
face $-1 $-1 $203 $43 $-1 $204 forward single #
loop $-1 $205 $206 $81 #
cone-surface $-1 62.616072944739955 39.701855730133914 5.7841063098938026 0 -0.69465837861970381 -0.71933979245794832 0.75 0 0 1 I I -0.70710678118654757 0.70710678118654757 0.75 forward I I I I #
loop $-1 $-1 $207 $55 #
coedge $-1 $131 $131 $208 $209 reversed $82 $-1 #
face $-1 $210 $211 $44 $-1 $212 reversed single #
loop $-1 $-1 $213 $84 #
plane-surface $-1 -39.231034555348458 -44.904779410659032 7.3368591798111567 0 -0.57357644374324357 0.81915203911291934 1 0 0 forward_v I I I I #
coedge $-1 $214 $215 $216 $217 reversed $85 $-1 #
face $-1 $-1 $218 $45 $-1 $219 forward single #
loop $-1 $220 $221 $87 #
cone-surface $-1 -39.231034555348458 -38.803951947322901 4.1512479480195239 0 0.57357644374324357 -0.81915203911291934 0.75 0 0 1 I I -0.70710678118654757 0.70710678118654757 0.75 forward I I I I #
loop $-1 $-1 $222 $57 #
coedge $-1 $140 $140 $223 $224 reversed $88 $-1 #
face $-1 $225 $226 $46 $-1 $227 reversed single #
loop $-1 $-1 $228 $90 #
plane-surface $-1 23.068499078809722 -44.904779410659032 7.3368591798111567 0 -0.57357644374324357 0.81915203911291934 1 0 0 forward_v I I I I #
coedge $-1 $229 $230 $231 $232 reversed $91 $-1 #
face $-1 $-1 $233 $47 $-1 $234 forward single #
loop $-1 $235 $236 $93 #
cone-surface $-1 23.068499078809722 -38.803951947322901 4.1512479480195239 0 0.57357644374324357 -0.81915203911291934 0.75 0 0 1 I I -0.70710678118654757 0.70710678118654757 0.75 forward I I I I #
loop $-1 $-1 $237 $59 #
coedge $-1 $149 $149 $238 $239 reversed $94 $-1 #
face $-1 $240 $241 $36 $-1 $242 reversed single #
loop $-1 $-1 $243 $96 #
plane-surface $-1 0 -44.904779410659032 0 0 1 0 0 0 1 forward_v I I I I #
coedge $-1 $244 $245 $246 $247 forward $97 $-1 #
coedge $-1 $248 $99 $249 $250 forward $61 $-1 #
coedge $-1 $99 $248 $251 $252 forward $61 $-1 #
coedge $-1 $253 $254 $99 $157 reversed $255 $-1 #
edge $-1 $256 -44.904779410659032 $257 44.904779410659032 $156 $258 forward 7 unknown #
face $-1 $259 $260 $37 $-1 $261 reversed single #
loop $-1 $-1 $262 $100 #
plane-surface $-1 -55.369659632585297 0 -7.0844934739098484 -1 0 0 0 0 1 forward_v I I I I #
coedge $-1 $263 $264 $265 $266 forward $101 $-1 #
coedge $-1 $267 $103 $268 $269 reversed $64 $-1 #
coedge $-1 $103 $267 $270 $271 reversed $64 $-1 #
coedge $-1 $262 $272 $103 $165 reversed $159 $-1 #
edge $-1 $273 -44.904779410659032 $274 44.904779410659032 $164 $275 forward 7 unknown #
face $-1 $276 $277 $38 $-1 $278 forward single #
loop $-1 $-1 $279 $104 #
plane-surface $-1 6.9298740015728768 76.482766129471145 167.47868685909268 -1 0 0 0 0.69465837861970381 0.71933979245794832 forward_v I I I I #
coedge $-1 $280 $281 $282 $283 reversed $105 $-1 #
coedge $-1 $171 $107 $284 $285 reversed $67 $-1 #
coedge $-1 $107 $170 $280 $286 reversed $67 $-1 #
coedge $-1 $282 $287 $107 $173 forward $277 $-1 #
edge $-1 $288 -6.6633963459234593 $289 -0.98775342049297166 $172 $290 forward 7 unknown #
loop $-1 $-1 $179 $108 #
plane-surface $-1 -4.6434617076615439 -19.698809992607821 67.879751417745709 0 0.69465837861970381 0.71933979245794832 1 0 0 forward_v I I I I #
loop $-1 $-1 $291 $69 #
coedge $-1 $177 $177 $178 $292 reversed $109 $-1 #
coedge $-1 $178 $178 $177 $292 forward $111 $-1 #
coedge $-1 $179 $179 $112 $180 forward $174 $-1 #
edge $-1 $293 -5.8881145045782098e-016 $293 6.2831853071795996 $179 $294 forward 7 unknown #
loop $-1 $-1 $186 $113 #
plane-surface $-1 -4.6434617076615439 -19.698809992607821 67.879751417745709 0 0.69465837861970381 0.71933979245794832 1 0 0 forward_v I I I I #
loop $-1 $-1 $295 $72 #
coedge $-1 $184 $184 $185 $296 reversed $114 $-1 #
coedge $-1 $185 $185 $184 $296 forward $116 $-1 #
coedge $-1 $186 $186 $117 $187 forward $181 $-1 #
edge $-1 $297 -5.8881145045782098e-016 $297 6.2831853071795996 $186 $298 forward 7 unknown #
face $-1 $299 $300 $41 $-1 $301 reversed single #
loop $-1 $-1 $194 $118 #
plane-surface $-1 0 0 10.973693689713803 0 0 1 1 0 0 forward_v I I I I #
coedge $-1 $302 $303 $304 $305 reversed $119 $-1 #
coedge $-1 $193 $121 $306 $307 reversed $76 $-1 #
coedge $-1 $121 $192 $302 $308 reversed $76 $-1 #
coedge $-1 $304 $309 $121 $195 forward $189 $-1 #
edge $-1 $310 -6.6633963459234593 $311 -0.98775342049297166 $194 $312 forward 7 unknown #
loop $-1 $-1 $201 $122 #
plane-surface $-1 57.656071926496637 -19.698809992607821 67.879751417745709 0 0.69465837861970381 0.71933979245794832 1 0 0 forward_v I I I I #
loop $-1 $-1 $313 $78 #
coedge $-1 $199 $199 $200 $314 reversed $123 $-1 #
coedge $-1 $200 $200 $199 $314 forward $125 $-1 #
coedge $-1 $201 $201 $126 $202 forward $196 $-1 #
edge $-1 $315 -5.8881145045782098e-016 $315 6.2831853071795996 $201 $316 forward 7 unknown #
loop $-1 $-1 $208 $127 #
plane-surface $-1 57.656071926496637 -19.698809992607821 67.879751417745709 0 0.69465837861970381 0.71933979245794832 1 0 0 forward_v I I I I #
loop $-1 $-1 $317 $81 #
coedge $-1 $206 $206 $207 $318 reversed $128 $-1 #
coedge $-1 $207 $207 $206 $318 forward $130 $-1 #
coedge $-1 $208 $208 $131 $209 forward $203 $-1 #
edge $-1 $319 -5.8881145045782098e-016 $319 6.2831853071795996 $208 $320 forward 7 unknown #
face $-1 $321 $322 $44 $-1 $323 reversed single #
loop $-1 $-1 $324 $132 #
plane-surface $-1 -45.78582312862163 -124.32149427896698 120.75568004258838 1 0 0 0 0.57357644374324357 -0.81915203911291934 forward_v I I I I #
coedge $-1 $325 $326 $327 $328 reversed $133 $-1 #
coedge $-1 $215 $135 $329 $330 reversed $85 $-1 #
coedge $-1 $135 $214 $325 $331 reversed $85 $-1 #
coedge $-1 $327 $332 $135 $217 forward $333 $-1 #
edge $-1 $334 17.255967728824459 $335 22.449905585234347 $216 $336 forward 7 unknown #
loop $-1 $-1 $223 $136 #
plane-surface $-1 -39.231034555348458 -44.904779410659032 7.3368591798111567 0 -0.57357644374324357 0.81915203911291934 1 0 0 forward_v I I I I #
loop $-1 $-1 $337 $87 #
coedge $-1 $221 $221 $222 $338 reversed $137 $-1 #
coedge $-1 $222 $222 $221 $338 forward $139 $-1 #
coedge $-1 $223 $223 $140 $224 forward $218 $-1 #
edge $-1 $339 -1.0696953909421479e-015 $339 6.2831853071795996 $223 $340 forward 7 unknown #
face $-1 $341 $342 $46 $-1 $343 reversed single #
loop $-1 $-1 $344 $141 #
plane-surface $-1 16.513710505536551 -124.32149427896698 120.75568004258838 1 0 0 0 0.57357644374324357 -0.81915203911291934 forward_v I I I I #
coedge $-1 $345 $346 $347 $348 reversed $142 $-1 #
coedge $-1 $230 $144 $349 $350 reversed $91 $-1 #
coedge $-1 $144 $229 $345 $351 reversed $91 $-1 #
coedge $-1 $347 $352 $144 $232 forward $353 $-1 #
edge $-1 $354 17.255967728824459 $355 22.449905585234347 $231 $356 forward 7 unknown #
loop $-1 $-1 $238 $145 #
plane-surface $-1 23.068499078809722 -44.904779410659032 7.3368591798111567 0 -0.57357644374324357 0.81915203911291934 1 0 0 forward_v I I I I #
loop $-1 $-1 $357 $93 #
coedge $-1 $236 $236 $237 $358 reversed $146 $-1 #
coedge $-1 $237 $237 $236 $358 forward $148 $-1 #
coedge $-1 $238 $238 $149 $239 forward $233 $-1 #
edge $-1 $359 -1.0696953909421479e-015 $359 6.2831853071795996 $238 $360 forward 7 unknown #
face $-1 $361 $362 $36 $-1 $363 reversed single #
loop $-1 $-1 $364 $150 #
plane-surface $-1 -69.229407635731064 0 0 1 0 0 0 0 -1 forward_v I I I I #
coedge $-1 $365 $251 $366 $367 forward $151 $-1 #
coedge $-1 $368 $153 $365 $369 forward $97 $-1 #
coedge $-1 $153 $368 $370 $371 forward $97 $-1 #
coedge $-1 $254 $253 $153 $247 reversed $255 $-1 #
edge $-1 $372 -44.904779410659032 $373 44.904779410659032 $246 $374 forward 7 unknown #
coedge $-1 $155 $154 $375 $376 forward $61 $-1 #
coedge $-1 $377 $378 $154 $250 reversed $362 $-1 #
edge $-1 $257 -69.229407635731064 $379 69.229407635731064 $249 $380 forward 7 unknown #
coedge $-1 $243 $381 $155 $252 reversed $151 $-1 #
edge $-1 $382 -69.229407635731064 $256 69.229407635731064 $251 $383 forward 7 unknown #
coedge $-1 $246 $156 $381 $384 forward $255 $-1 #
coedge $-1 $156 $246 $377 $385 reversed $255 $-1 #
loop $-1 $-1 $253 $361 #
vertex $-1 $157 $386 #
vertex $-1 $157 $387 #
straight-curve $-1 69.229407635731064 0 10.973693689713803 0 1 0 I I #
face $-1 $388 $389 $37 $-1 $390 reversed single #
loop $-1 $-1 $391 $158 #
plane-surface $-1 0 -44.904779410659032 0 0 1 0 0 0 1 forward_v I I I I #
coedge $-1 $265 $164 $392 $393 reversed $159 $-1 #
coedge $-1 $394 $161 $391 $395 reversed $101 $-1 #
coedge $-1 $161 $394 $396 $397 reversed $101 $-1 #
coedge $-1 $272 $262 $161 $266 reversed $159 $-1 #
edge $-1 $398 -44.904779410659032 $399 44.904779410659032 $265 $400 forward 7 unknown #
coedge $-1 $163 $162 $401 $402 reversed $64 $-1 #
coedge $-1 $403 $404 $162 $269 forward $405 $-1 #
edge $-1 $406 -38.079640818651974 $274 -24.219892815506206 $268 $407 forward 7 unknown #
coedge $-1 $408 $392 $163 $271 forward $260 $-1 #
edge $-1 $273 24.219892815506206 $409 38.079640818651974 $270 $410 forward 7 unknown #
coedge $-1 $164 $265 $403 $411 reversed $159 $-1 #
vertex $-1 $271 $412 #
vertex $-1 $269 $413 #
straight-curve $-1 -55.369659632585297 0 -3.8355875669521602 0 1 0 I I #
face $-1 $-1 $414 $38 $-1 $415 reversed single #
loop $-1 $-1 $172 $166 #
plane-surface $-1 0 0 10.973693689713803 0 0 1 1 0 0 forward_v I I I I #
coedge $-1 $416 $417 $418 $419 reversed $167 $-1 #
coedge $-1 $420 $169 $171 $286 forward $105 $-1 #
coedge $-1 $169 $420 $416 $421 forward $105 $-1 #
coedge $-1 $418 $172 $169 $283 forward $277 $-1 #
edge $-1 $289 -13.895066563065193 $422 9.2516048554036487 $282 $423 forward 7 unknown #
coedge $-1 $424 $425 $170 $285 forward $414 $-1 #
edge $-1 $426 -78.246554527168371 $288 -72.76564973983254 $284 $427 forward 7 unknown #
edge $-1 $289 81.919486584333811 $426 89.809558821318078 $171 $428 forward 7 unknown #
coedge $-1 $172 $418 $424 $429 forward $277 $-1 #
vertex $-1 $285 $430 #
vertex $-1 $173 $431 #
straight-curve $-1 -16.216797416895965 38.241383064735572 10.973693689713798 0 -1 0 I I #
coedge $-1 $291 $291 $-1 $432 reversed $176 $-1 #
edge $-1 $433 0 $433 6.2831853071796004 $177 $434 forward 7 unknown #
vertex $-1 $180 $435 #
ellipse-curve $-1 -9.6034627259048619 42.066957947943791 8.2332412960458754 0 0.69465837861970381 0.71933979245794832 1.5 0 0 1 I I #
coedge $-1 $295 $295 $-1 $436 reversed $183 $-1 #
edge $-1 $437 0 $437 6.2831853071796004 $184 $438 forward 7 unknown #
vertex $-1 $187 $439 #
ellipse-curve $-1 0.31653931058178841 42.066957947943791 8.2332412960458754 0 0.69465837861970381 0.71933979245794832 1.5 0 0 1 I I #
face $-1 $-1 $440 $41 $-1 $441 reversed single #
loop $-1 $-1 $442 $188 #
plane-surface $-1 69.229407635731064 0 0 -1 0 0 0 0 1 forward_v I I I I #
coedge $-1 $443 $191 $193 $308 forward $119 $-1 #
coedge $-1 $191 $443 $442 $444 reversed $119 $-1 #
coedge $-1 $445 $194 $191 $305 forward $189 $-1 #
edge $-1 $311 17.254700254013898 $446 40.401371672482746 $304 $447 forward 7 unknown #
coedge $-1 $448 $449 $192 $307 forward $440 $-1 #
edge $-1 $450 -78.246554527168371 $310 -72.76564973983254 $306 $451 forward 7 unknown #
edge $-1 $311 81.919486584333811 $450 89.809558821318078 $193 $452 forward 7 unknown #
coedge $-1 $194 $445 $448 $453 forward $189 $-1 #
vertex $-1 $307 $454 #
vertex $-1 $195 $455 #
straight-curve $-1 46.082736217262216 38.241383064735572 10.973693689713798 0 -1 0 I I #
coedge $-1 $313 $313 $-1 $456 reversed $198 $-1 #
edge $-1 $457 0 $457 6.2831853071796004 $199 $458 forward 7 unknown #
vertex $-1 $202 $459 #
ellipse-curve $-1 52.696070908253319 42.066957947943791 8.2332412960458754 0 0.69465837861970381 0.71933979245794832 1.5 0 0 1 I I #
coedge $-1 $317 $317 $-1 $460 reversed $205 $-1 #
edge $-1 $461 0 $461 6.2831853071796004 $206 $462 forward 7 unknown #
vertex $-1 $209 $463 #
ellipse-curve $-1 62.616072944739955 42.066957947943791 8.2332412960458754 0 0.69465837861970381 0.71933979245794832 1.5 0 0 1 I I #
face $-1 $-1 $333 $44 $-1 $464 forward single #
loop $-1 $-1 $465 $210 #
plane-surface $-1 0 -44.904779410659032 0 0 1 0 0 0 1 forward_v I I I I #
coedge $-1 $466 $467 $468 $469 reversed $211 $-1 #
coedge $-1 $470 $213 $215 $331 forward $133 $-1 #
coedge $-1 $213 $470 $466 $471 forward $133 $-1 #
coedge $-1 $468 $216 $213 $328 forward $333 $-1 #
edge $-1 $335 13.060728704401058 $472 26.1703058509474 $327 $473 forward 7 unknown #
coedge $-1 $474 $475 $214 $330 forward $322 $-1 #
edge $-1 $476 -53.040980841483034 $334 -49.404146331580385 $329 $477 forward 7 unknown #
edge $-1 $335 -6.3406273907766071 $476 0 $215 $478 forward 7 unknown #
coedge $-1 $216 $468 $474 $479 forward $333 $-1 #
loop $-1 $-1 $468 $321 #
vertex $-1 $330 $480 #
vertex $-1 $217 $481 #
straight-curve $-1 -32.676245982075287 -62.16074713948349 10.973693689713805 0 1 0 I I #
coedge $-1 $337 $337 $-1 $482 reversed $220 $-1 #
edge $-1 $483 0 $483 6.2831853071796004 $221 $484 forward 7 unknown #
vertex $-1 $224 $485 #
ellipse-curve $-1 -39.231034555348458 -42.30781048245408 9.155276434762488 0 -0.57357644374324357 0.81915203911291934 1.5 0 0 1 I I #
face $-1 $-1 $353 $46 $-1 $486 forward single #
loop $-1 $-1 $487 $225 #
plane-surface $-1 0 -44.904779410659032 0 0 1 0 0 0 1 forward_v I I I I #
coedge $-1 $488 $489 $490 $491 reversed $226 $-1 #
coedge $-1 $492 $228 $230 $351 forward $142 $-1 #
coedge $-1 $228 $492 $488 $493 forward $142 $-1 #
coedge $-1 $490 $231 $228 $348 forward $353 $-1 #
edge $-1 $355 -18.089038112678033 $494 -4.9794609661316898 $347 $495 forward 7 unknown #
coedge $-1 $496 $497 $229 $350 forward $342 $-1 #
edge $-1 $498 -53.040980841483034 $354 -49.404146331580385 $349 $499 forward 7 unknown #
edge $-1 $355 -6.3406273907766071 $498 0 $230 $500 forward 7 unknown #
coedge $-1 $231 $490 $496 $501 forward $353 $-1 #
loop $-1 $-1 $490 $341 #
vertex $-1 $350 $502 #
vertex $-1 $232 $503 #
straight-curve $-1 29.623287652082894 -62.16074713948349 10.973693689713805 0 1 0 I I #
coedge $-1 $357 $357 $-1 $504 reversed $235 $-1 #
edge $-1 $505 0 $505 6.2831853071796004 $236 $506 forward 7 unknown #
vertex $-1 $239 $507 #
ellipse-curve $-1 23.068499078809722 -42.30781048245408 9.155276434762488 0 -0.57357644374324357 0.81915203911291934 1.5 0 0 1 I I #
face $-1 $-1 $255 $36 $-1 $508 reversed single #
loop $-1 $-1 $377 $240 #
plane-surface $-1 0 44.904779410659032 0 0 -1 0 0 0 -1 forward_v I I I I #
coedge $-1 $509 $375 $378 $510 forward $241 $-1 #
coedge $-1 $381 $243 $244 $369 reversed $151 $-1 #
coedge $-1 $375 $509 $243 $367 reversed $241 $-1 #
edge $-1 $382 -10.973693689713803 $511 10.973693689713803 $366 $512 forward 7 unknown #
coedge $-1 $245 $244 $509 $513 forward $97 $-1 #
edge $-1 $373 -69.229407635731064 $511 69.229407635731064 $365 $514 forward 7 unknown #
coedge $-1 $378 $377 $245 $371 reversed $362 $-1 #
edge $-1 $515 -69.229407635731064 $372 69.229407635731064 $370 $516 forward 7 unknown #
vertex $-1 $247 $517 #
vertex $-1 $384 $518 #
straight-curve $-1 69.229407635731064 0 -10.973693689713803 0 -1 0 I I #
coedge $-1 $364 $366 $248 $376 reversed $241 $-1 #
edge $-1 $379 -44.904779410659032 $382 44.904779410659032 $375 $519 forward 7 unknown #
coedge $-1 $370 $249 $254 $385 forward $362 $-1 #
coedge $-1 $249 $370 $364 $510 reversed $362 $-1 #
vertex $-1 $250 $520 #
straight-curve $-1 0 44.904779410659032 10.973693689713803 -1 0 0 I I #
coedge $-1 $251 $365 $253 $384 reversed $151 $-1 #
vertex $-1 $376 $521 #
straight-curve $-1 0 -44.904779410659032 10.973693689713803 1 0 0 I I #
edge $-1 $256 -10.973693689713803 $373 10.973693689713803 $253 $522 forward 7 unknown #
edge $-1 $257 -10.973693689713803 $372 10.973693689713803 $254 $523 forward 7 unknown #
point $-1 69.229407635731064 -44.904779410659032 10.973693689713803 #
point $-1 69.229407635731064 44.904779410659032 10.973693689713803 #
face $-1 $-1 $405 $37 $-1 $524 reversed single #
loop $-1 $-1 $525 $259 #
plane-surface $-1 -69.229407635731064 0 0 1 0 0 0 0 -1 forward_v I I I I #
coedge $-1 $392 $408 $263 $395 forward $260 $-1 #
coedge $-1 $270 $391 $262 $393 forward $260 $-1 #
edge $-1 $399 -6.7911526439126124 $273 -0.29334082999723599 $392 $526 forward 7 unknown #
coedge $-1 $264 $263 $525 $527 reversed $101 $-1 #
edge $-1 $528 -38.079640818651974 $399 -24.219892815506206 $391 $529 forward 7 unknown #
coedge $-1 $404 $403 $264 $397 forward $405 $-1 #
edge $-1 $398 24.219892815506206 $530 38.079640818651974 $396 $531 forward 7 unknown #
vertex $-1 $397 $532 #
vertex $-1 $395 $533 #
straight-curve $-1 -55.369659632585297 0 -10.333399380867537 0 -1 0 I I #
coedge $-1 $534 $535 $267 $402 forward $389 $-1 #
edge $-1 $409 -44.904779410659032 $406 44.904779410659032 $401 $536 forward 7 unknown #
coedge $-1 $396 $268 $272 $411 forward $405 $-1 #
coedge $-1 $268 $396 $534 $537 reversed $405 $-1 #
loop $-1 $-1 $396 $388 #
vertex $-1 $537 $538 #
straight-curve $-1 -31.14976681707909 44.904779410659032 -3.8355875669521602 1 0 0 I I #
coedge $-1 $391 $270 $535 $539 forward $260 $-1 #
vertex $-1 $539 $540 #
straight-curve $-1 -31.14976681707909 -44.904779410659032 -3.8355875669521602 -1 0 0 I I #
edge $-1 $274 0.29334082999723599 $398 6.7911526439126124 $403 $541 forward 7 unknown #
point $-1 -55.369659632585297 -44.904779410659032 -3.8355875669521602 #
point $-1 -55.369659632585297 44.904779410659032 -3.8355875669521602 #
loop $-1 $-1 $284 $276 #
plane-surface $-1 0 44.904779410659032 0 0 -1 0 0 0 -1 forward_v I I I I #
coedge $-1 $417 $279 $281 $421 reversed $167 $-1 #
coedge $-1 $279 $416 $542 $543 reversed $167 $-1 #
coedge $-1 $287 $282 $279 $419 forward $277 $-1 #
edge $-1 $422 0.98775342049297166 $544 6.6633963459234593 $418 $545 forward 7 unknown #
coedge $-1 $281 $280 $425 $546 reversed $105 $-1 #
edge $-1 $547 -89.809558821318078 $422 -81.919486584333811 $416 $548 forward 7 unknown #
vertex $-1 $283 $549 #
straight-curve $-1 -2.3217308538307719 39.229136485228544 10.973693689713805 1 0 0 I I #
coedge $-1 $542 $284 $287 $429 reversed $414 $-1 #
coedge $-1 $284 $542 $420 $546 forward $414 $-1 #
vertex $-1 $285 $550 #
straight-curve $-1 -16.216797416895965 44.904779410659032 83.739343429546338 0 0 1 I I #
straight-curve $-1 -16.216797416895965 -19.698809992607821 67.879751417745709 0 0.71933979245794832 -0.69465837861970381 I I #
edge $-1 $544 -6.9298740015728768 $288 16.216797416895965 $424 $551 forward 7 unknown #
point $-1 -16.216797416895965 44.904779410659032 10.973693689713803 #
point $-1 -16.216797416895965 39.229136485228544 10.973693689713805 #
edge $-1 $552 1 $552 0 $291 $-1 forward 7 unknown #
vertex $-1 $292 $553 #
ellipse-curve $-1 -9.6034627259048619 40.222849514098691 6.3236111542372635 0 0.69465837861970381 0.71933979245794832 1.5 0 0 1 I I #
point $-1 -8.1034627259048619 42.066957947943806 8.2332412960458914 #
edge $-1 $554 1 $554 0 $295 $-1 forward 7 unknown #
vertex $-1 $296 $555 #
ellipse-curve $-1 0.31653931058178841 40.222849514098691 6.3236111542372635 0 0.69465837861970381 0.71933979245794832 1.5 0 0 1 I I #
point $-1 1.8165393105817884 42.066957947943806 8.2332412960458914 #
loop $-1 $-1 $306 $299 #
plane-surface $-1 0 44.904779410659032 0 0 -1 0 0 0 -1 forward_v I I I I #
coedge $-1 $556 $557 $303 $444 forward $300 $-1 #
coedge $-1 $303 $302 $449 $558 reversed $119 $-1 #
edge $-1 $446 51.25779860797838 $559 59.147870844962654 $442 $560 forward 7 unknown #
coedge $-1 $309 $304 $557 $561 forward $189 $-1 #
vertex $-1 $561 $562 #
straight-curve $-1 28.828035963248318 39.229136485228544 10.973693689713805 1 0 0 I I #
coedge $-1 $563 $306 $309 $453 reversed $440 $-1 #
coedge $-1 $306 $563 $443 $558 forward $440 $-1 #
vertex $-1 $307 $564 #
straight-curve $-1 46.082736217262216 44.904779410659032 83.739343429546338 0 0 1 I I #
straight-curve $-1 46.082736217262216 -19.698809992607821 67.879751417745709 0 0.71933979245794832 -0.69465837861970381 I I #
edge $-1 $565 -69.229407635731064 $310 -46.082736217262216 $448 $566 forward 7 unknown #
point $-1 46.082736217262216 44.904779410659032 10.973693689713803 #
point $-1 46.082736217262216 39.229136485228544 10.973693689713805 #
edge $-1 $567 1 $567 0 $313 $-1 forward 7 unknown #
vertex $-1 $314 $568 #
ellipse-curve $-1 52.696070908253319 40.222849514098691 6.3236111542372635 0 0.69465837861970381 0.71933979245794832 1.5 0 0 1 I I #
point $-1 54.196070908253319 42.066957947943806 8.2332412960458914 #
edge $-1 $569 1 $569 0 $317 $-1 forward 7 unknown #
vertex $-1 $318 $570 #
ellipse-curve $-1 62.616072944739955 40.222849514098691 6.3236111542372635 0 0.69465837861970381 0.71933979245794832 1.5 0 0 1 I I #
point $-1 64.116072944739955 42.066957947943806 8.2332412960458914 #
plane-surface $-1 0 0 10.973693689713803 0 0 1 1 0 0 forward_v I I I I #
coedge $-1 $475 $474 $467 $571 forward $322 $-1 #
coedge $-1 $467 $324 $326 $471 reversed $211 $-1 #
coedge $-1 $324 $466 $465 $571 reversed $211 $-1 #
coedge $-1 $332 $327 $324 $469 forward $333 $-1 #
edge $-1 $472 -22.449905585234347 $572 -17.255967728824459 $468 $573 forward 7 unknown #
coedge $-1 $326 $325 $475 $574 reversed $133 $-1 #
edge $-1 $575 0 $472 6.3406273907766071 $466 $576 forward 7 unknown #
vertex $-1 $328 $577 #
straight-curve $-1 -19.615517277674229 -39.71084155424915 10.973693689713805 -1 0 0 I I #
coedge $-1 $465 $329 $332 $479 reversed $322 $-1 #
coedge $-1 $329 $465 $470 $574 forward $322 $-1 #
vertex $-1 $330 $578 #
straight-curve $-1 -32.676245982075287 -44.904779410659032 60.37784002129419 0 0 1 I I #
straight-curve $-1 -32.676245982075287 -44.904779410659032 7.3368591798111567 0 -0.81915203911291934 -0.57357644374324357 I I #
edge $-1 $572 -45.78582312862163 $334 -32.676245982075287 $474 $579 forward 7 unknown #
point $-1 -32.676245982075287 -44.904779410659032 10.973693689713803 #
point $-1 -32.676245982075287 -39.710841554249143 10.973693689713803 #
edge $-1 $580 1 $580 0 $337 $-1 forward 7 unknown #
vertex $-1 $338 $581 #
ellipse-curve $-1 -39.231034555348458 -39.234134280130334 4.7656119773542134 0 -0.57357644374324357 0.81915203911291934 1.5 0 0 1 I I #
point $-1 -37.731034555348458 -42.307810482454066 9.1552764347624649 #
plane-surface $-1 0 0 10.973693689713803 0 0 1 1 0 0 forward_v I I I I #
coedge $-1 $497 $496 $489 $582 forward $342 $-1 #
coedge $-1 $489 $344 $346 $493 reversed $226 $-1 #
coedge $-1 $344 $488 $487 $582 reversed $226 $-1 #
coedge $-1 $352 $347 $344 $491 forward $353 $-1 #
edge $-1 $494 -22.449905585234347 $583 -17.255967728824459 $490 $584 forward 7 unknown #
coedge $-1 $346 $345 $497 $585 reversed $142 $-1 #
edge $-1 $586 0 $494 6.3406273907766071 $488 $587 forward 7 unknown #
vertex $-1 $348 $588 #
straight-curve $-1 11.534249539404861 -39.71084155424915 10.973693689713805 -1 0 0 I I #
coedge $-1 $487 $349 $352 $501 reversed $342 $-1 #
coedge $-1 $349 $487 $492 $585 forward $342 $-1 #
vertex $-1 $350 $589 #
straight-curve $-1 29.623287652082894 -44.904779410659032 60.37784002129419 0 0 1 I I #
straight-curve $-1 29.623287652082894 -44.904779410659032 7.3368591798111567 0 -0.81915203911291934 -0.57357644374324357 I I #
edge $-1 $583 16.513710505536551 $354 29.623287652082894 $496 $590 forward 7 unknown #
point $-1 29.623287652082894 -44.904779410659032 10.973693689713803 #
point $-1 29.623287652082894 -39.710841554249143 10.973693689713803 #
edge $-1 $591 1 $591 0 $357 $-1 forward 7 unknown #
vertex $-1 $358 $592 #
ellipse-curve $-1 23.068499078809722 -39.234134280130334 4.7656119773542134 0 -0.57357644374324357 0.81915203911291934 1.5 0 0 1 I I #
point $-1 24.568499078809722 -42.307810482454066 9.1552764347624649 #
plane-surface $-1 69.229407635731064 0 0 -1 0 0 0 0 1 forward_v I I I I #
coedge $-1 $366 $364 $368 $513 reversed $241 $-1 #
edge $-1 $379 -10.973693689713803 $515 10.973693689713803 $378 $593 forward 7 unknown #
vertex $-1 $513 $594 #
straight-curve $-1 -69.229407635731064 -44.904779410659032 0 0 0 -1 I I #
edge $-1 $511 -44.904779410659032 $515 44.904779410659032 $509 $595 forward 7 unknown #
straight-curve $-1 0 -44.904779410659032 -10.973693689713803 -1 0 0 I I #
vertex $-1 $371 $596 #
straight-curve $-1 0 44.904779410659032 -10.973693689713803 1 0 0 I I #
point $-1 69.229407635731064 44.904779410659032 -10.973693689713803 #
point $-1 69.229407635731064 -44.904779410659032 -10.973693689713803 #
straight-curve $-1 -69.229407635731064 0 10.973693689713803 0 -1 0 I I #
point $-1 -69.229407635731064 44.904779410659032 10.973693689713803 #
point $-1 -69.229407635731064 -44.904779410659032 10.973693689713803 #
straight-curve $-1 69.229407635731064 -44.904779410659032 0 0 0 -1 I I #
straight-curve $-1 69.229407635731064 44.904779410659032 0 0 0 -1 I I #
plane-surface $-1 0 44.904779410659032 0 0 -1 0 0 0 -1 forward_v I I I I #
coedge $-1 $535 $534 $394 $527 forward $389 $-1 #
straight-curve $-1 -55.369659632585297 -44.904779410659032 -3.5422467369549242 0 0 1 I I #
edge $-1 $530 -44.904779410659032 $528 44.904779410659032 $525 $597 forward 7 unknown #
vertex $-1 $395 $598 #
straight-curve $-1 -31.14976681707909 -44.904779410659032 -10.333399380867537 1 0 0 I I #
vertex $-1 $397 $599 #
straight-curve $-1 -31.14976681707909 44.904779410659032 -10.333399380867537 -1 0 0 I I #
point $-1 -55.369659632585297 44.904779410659032 -10.333399380867537 #
point $-1 -55.369659632585297 -44.904779410659032 -10.333399380867537 #
coedge $-1 $525 $401 $404 $537 forward $389 $-1 #
coedge $-1 $401 $525 $408 $539 reversed $389 $-1 #
straight-curve $-1 -69.229407635731064 0 -3.8355875669521602 0 1 0 I I #
edge $-1 $406 3.8355875669521602 $530 10.333399380867537 $404 $600 forward 7 unknown #
point $-1 -69.229407635731064 44.904779410659032 -3.8355875669521602 #
edge $-1 $409 3.8355875669521602 $528 10.333399380867537 $535 $601 forward 7 unknown #
point $-1 -69.229407635731064 -44.904779410659032 -3.8355875669521602 #
straight-curve $-1 -55.369659632585297 44.904779410659032 -3.5422467369549242 0 0 -1 I I #
coedge $-1 $425 $424 $417 $543 forward $414 $-1 #
edge $-1 $544 72.76564973983254 $547 78.246554527168371 $542 $602 forward 7 unknown #
vertex $-1 $429 $603 #
straight-curve $-1 6.9298740015728768 38.241383064735572 10.973693689713798 0 1 0 I I #
edge $-1 $547 -9.2516048554036487 $426 13.895066563065193 $425 $604 forward 7 unknown #
vertex $-1 $546 $605 #
straight-curve $-1 6.9298740015728768 -19.698809992607821 67.879751417745709 0 -0.71933979245794832 0.69465837861970381 I I #
point $-1 6.9298740015728768 39.229136485228544 10.973693689713805 #
point $-1 -16.216797416895965 44.904779410659032 5.4927889023779741 #
straight-curve $-1 0 44.904779410659032 10.973693689713803 -1 0 0 I I #
vertex $-1 $432 $606 #
point $-1 -8.1034627259048619 40.222849514098691 6.3236111542372635 #
vertex $-1 $436 $607 #
point $-1 1.8165393105817884 40.222849514098691 6.3236111542372635 #
coedge $-1 $557 $442 $563 $608 reversed $300 $-1 #
coedge $-1 $442 $556 $445 $561 reversed $300 $-1 #
edge $-1 $559 -40.401371672482746 $450 -17.254700254013898 $449 $609 forward 7 unknown #
vertex $-1 $444 $610 #
straight-curve $-1 69.229407635731064 2.3573622727140613 46.580352962347384 0 0.71933979245794832 -0.69465837861970381 I I #
edge $-1 $446 39.229136485228544 $565 44.904779410659032 $557 $611 forward 7 unknown #
point $-1 69.229407635731064 39.229136485228544 10.973693689713805 #
coedge $-1 $449 $448 $556 $608 forward $440 $-1 #
point $-1 46.082736217262216 44.904779410659032 5.4927889023779741 #
vertex $-1 $561 $612 #
straight-curve $-1 0 44.904779410659032 10.973693689713803 -1 0 0 I I #
vertex $-1 $456 $613 #
point $-1 54.196070908253319 40.222849514098691 6.3236111542372635 #
vertex $-1 $460 $614 #
point $-1 64.116072944739955 40.222849514098691 6.3236111542372635 #
edge $-1 $572 49.404146331580385 $575 53.040980841483034 $465 $615 forward 7 unknown #
vertex $-1 $479 $616 #
straight-curve $-1 -45.78582312862163 -62.16074713948349 10.973693689713805 0 -1 0 I I #
edge $-1 $575 -26.1703058509474 $476 -13.060728704401058 $475 $617 forward 7 unknown #
vertex $-1 $574 $618 #
straight-curve $-1 -45.78582312862163 -44.904779410659032 7.3368591798111567 0 0.81915203911291934 0.57357644374324357 I I #
point $-1 -45.78582312862163 -39.710841554249143 10.973693689713803 #
point $-1 -32.676245982075287 -44.904779410659032 7.3368591798111567 #
straight-curve $-1 0 -44.904779410659032 10.973693689713803 1 0 0 I I #
vertex $-1 $482 $619 #
point $-1 -37.731034555348458 -39.234134280130334 4.7656119773542134 #
edge $-1 $583 49.404146331580385 $586 53.040980841483034 $487 $620 forward 7 unknown #
vertex $-1 $501 $621 #
straight-curve $-1 16.513710505536551 -62.16074713948349 10.973693689713805 0 -1 0 I I #
edge $-1 $586 4.9794609661316898 $498 18.089038112678033 $497 $622 forward 7 unknown #
vertex $-1 $585 $623 #
straight-curve $-1 16.513710505536551 -44.904779410659032 7.3368591798111567 0 0.81915203911291934 0.57357644374324357 I I #
point $-1 16.513710505536551 -39.710841554249143 10.973693689713803 #
point $-1 29.623287652082894 -44.904779410659032 7.3368591798111567 #
straight-curve $-1 0 -44.904779410659032 10.973693689713803 1 0 0 I I #
vertex $-1 $504 $624 #
point $-1 24.568499078809722 -39.234134280130334 4.7656119773542134 #
straight-curve $-1 -69.229407635731064 44.904779410659032 0 0 0 -1 I I #
point $-1 -69.229407635731064 -44.904779410659032 -10.973693689713803 #
straight-curve $-1 -69.229407635731064 0 -10.973693689713803 0 1 0 I I #
point $-1 -69.229407635731064 44.904779410659032 -10.973693689713803 #
straight-curve $-1 -69.229407635731064 0 -10.333399380867537 0 -1 0 I I #
point $-1 -69.229407635731064 -44.904779410659032 -10.333399380867537 #
point $-1 -69.229407635731064 44.904779410659032 -10.333399380867537 #
straight-curve $-1 -69.229407635731064 44.904779410659032 0 0 0 -1 I I #
straight-curve $-1 -69.229407635731064 -44.904779410659032 0 0 0 -1 I I #
straight-curve $-1 6.9298740015728768 44.904779410659032 83.739343429546338 0 0 -1 I I #
point $-1 6.9298740015728768 44.904779410659032 10.973693689713803 #
straight-curve $-1 -2.3217308538307719 44.904779410659032 5.4927889023779706 -1 0 0 I I #
point $-1 6.9298740015728768 44.904779410659032 5.4927889023779741 #
point $-1 -9.6034627259048619 39.180861946169138 5.2446014655503417 #
point $-1 0.31653931058178841 39.180861946169138 5.2446014655503417 #
edge $-1 $565 -10.973693689713803 $559 -5.4927889023779741 $556 $625 forward 7 unknown #
straight-curve $-1 28.828035963248318 44.904779410659032 5.4927889023779706 -1 0 0 I I #
point $-1 69.229407635731064 44.904779410659032 5.4927889023779741 #
straight-curve $-1 69.229407635731064 0 10.973693689713803 0 1 0 I I #
point $-1 69.229407635731064 44.904779410659032 10.973693689713803 #
point $-1 52.696070908253319 39.180861946169138 5.2446014655503417 #
point $-1 62.616072944739955 39.180861946169138 5.2446014655503417 #
straight-curve $-1 -45.78582312862163 -44.904779410659032 60.37784002129419 0 0 -1 I I #
point $-1 -45.78582312862163 -44.904779410659032 10.973693689713803 #
straight-curve $-1 -19.615517277674229 -44.904779410659032 7.3368591798111567 1 0 0 I I #
point $-1 -45.78582312862163 -44.904779410659032 7.3368591798111567 #
point $-1 -39.231034555348458 -38.373769614515467 3.5368839186848344 #
straight-curve $-1 16.513710505536551 -44.904779410659032 60.37784002129419 0 0 -1 I I #
point $-1 16.513710505536551 -44.904779410659032 10.973693689713803 #
straight-curve $-1 11.534249539404861 -44.904779410659032 7.3368591798111567 1 0 0 I I #
point $-1 16.513710505536551 -44.904779410659032 7.3368591798111567 #
point $-1 23.068499078809722 -38.373769614515467 3.5368839186848344 #
straight-curve $-1 69.229407635731064 44.904779410659032 0 0 0 -1 I I #
End-of-ACIS-data 