500 0 13 0           
7 Unknown 11 ACIS 5.0 NT 24 Fri Mar 26 15:40:06 1999 
-1 9.9999999999999995e-007 1e-010 
body $-1 $13 $-1 $14 #
body $-1 $15 $-1 $16 #
body $-1 $17 $-1 $18 #
body $-1 $19 $-1 $20 #
body $-1 $21 $-1 $22 #
body $-1 $23 $-1 $24 #
body $-1 $25 $-1 $26 #
body $-1 $27 $-1 $28 #
body $-1 $29 $-1 $30 #
body $-1 $31 $-1 $32 #
body $-1 $33 $-1 $34 #
body $-1 $35 $-1 $36 #
body $-1 $37 $-1 $38 #
lump $-1 $-1 $39 $0 #
transform $-1 1 0 0 0 1 0 0 0 1 49.344767601550338 32.785273796802635 15.939684432572509 1 rotate no_reflect no_shear #
lump $-1 $-1 $40 $1 #
transform $-1 1 0 0 0 1 0 0 0 1 49.344767601550338 32.785273796802635 15.939684432572509 1 rotate no_reflect no_shear #
lump $-1 $-1 $41 $2 #
transform $-1 1 0 0 0 1 0 0 0 1 49.344767601550338 32.785273796802635 15.939684432572509 1 rotate no_reflect no_shear #
lump $-1 $-1 $42 $3 #
transform $-1 1 0 0 0 1 0 0 0 1 49.344767601550338 32.785273796802635 15.939684432572509 1 rotate no_reflect no_shear #
lump $-1 $-1 $43 $4 #
transform $-1 1 0 0 0 1 0 0 0 1 49.344767601550338 32.785273796802635 15.939684432572509 1 rotate no_reflect no_shear #
lump $-1 $-1 $44 $5 #
transform $-1 1 0 0 0 1 0 0 0 1 49.344767601550338 32.785273796802635 15.939684432572509 1 rotate no_reflect no_shear #
lump $-1 $-1 $45 $6 #
transform $-1 1 0 0 0 1 0 0 0 1 49.344767601550338 32.785273796802635 15.939684432572509 1 rotate no_reflect no_shear #
lump $-1 $-1 $46 $7 #
transform $-1 1 0 0 0 1 0 0 0 1 49.344767601550338 32.785273796802635 15.939684432572509 1 rotate no_reflect no_shear #
lump $-1 $-1 $47 $8 #
transform $-1 1 0 0 0 1 0 0 0 1 49.344767601550338 32.785273796802635 15.939684432572509 1 rotate no_reflect no_shear #
lump $-1 $-1 $48 $9 #
transform $-1 1 0 0 0 1 0 0 0 1 49.344767601550338 32.785273796802635 15.939684432572509 1 rotate no_reflect no_shear #
lump $-1 $-1 $49 $10 #
transform $-1 1 0 0 0 1 0 0 0 1 49.344767601550338 32.785273796802635 15.939684432572509 1 rotate no_reflect no_shear #
lump $-1 $-1 $50 $11 #
transform $-1 1 0 0 0 1 0 0 0 1 49.344767601550338 32.785273796802635 15.939684432572509 1 rotate no_reflect no_shear #
lump $-1 $-1 $51 $12 #
transform $-1 1 0 0 0 1 0 0 0 1 49.344767601550338 32.785273796802635 15.939684432572509 1 rotate no_reflect no_shear #
shell $-1 $-1 $-1 $52 $-1 $13 #
shell $-1 $-1 $-1 $53 $-1 $15 #
shell $-1 $-1 $-1 $54 $-1 $17 #
shell $-1 $-1 $-1 $55 $-1 $19 #
shell $-1 $-1 $-1 $56 $-1 $21 #
shell $-1 $-1 $-1 $57 $-1 $23 #
shell $-1 $-1 $-1 $58 $-1 $25 #
shell $-1 $-1 $-1 $59 $-1 $27 #
shell $-1 $-1 $-1 $60 $-1 $29 #
shell $-1 $-1 $-1 $61 $-1 $31 #
shell $-1 $-1 $-1 $62 $-1 $33 #
shell $-1 $-1 $-1 $63 $-1 $35 #
shell $-1 $-1 $-1 $64 $-1 $37 #
face $-1 $65 $66 $39 $-1 $67 forward single #
face $-1 $68 $69 $40 $-1 $70 forward single #
face $-1 $71 $72 $41 $-1 $73 forward single #
face $-1 $74 $75 $42 $-1 $76 reversed single #
face $-1 $77 $78 $43 $-1 $79 forward single #
face $-1 $80 $81 $44 $-1 $82 reversed single #
face $-1 $83 $84 $45 $-1 $85 forward single #
face $-1 $86 $87 $46 $-1 $88 reversed single #
face $-1 $89 $90 $47 $-1 $91 forward single #
face $-1 $92 $93 $48 $-1 $94 reversed single #
face $-1 $95 $96 $49 $-1 $97 forward single #
face $-1 $98 $99 $50 $-1 $100 reversed single #
face $-1 $101 $102 $51 $-1 $103 forward single #
face $-1 $104 $105 $39 $-1 $106 reversed single #
loop $-1 $-1 $107 $52 #
plane-surface $-1 0 0 15.939684432572509 0 0 1 1 0 0 forward_v I I I I #
face $-1 $108 $109 $40 $-1 $110 reversed single #
loop $-1 $-1 $111 $53 #
plane-surface $-1 -49.344767601550338 0 0 1 0 0 0 0 -1 forward_v I I I I #
face $-1 $112 $113 $41 $-1 $114 reversed single #
loop $-1 $-1 $115 $54 #
plane-surface $-1 49.344767601550338 0 0 -1 0 0 0 0 1 forward_v I I I I #
face $-1 $116 $117 $42 $-1 $118 reversed single #
loop $-1 $-1 $119 $55 #
plane-surface $-1 -36.974945927305477 83.607389319205197 110.13257611185841 1 0 0 0 -0.85716730853699208 -0.51503806187062418 forward_v I I I I #
face $-1 $120 $121 $43 $-1 $122 forward single #
loop $-1 $123 $124 $56 #
cone-surface $-1 -32.127732164932198 27.659082693129172 8.7571038320972097 0 -0.85716730853699208 -0.51503806187062418 2 0 0 1 I I 0 1 2 forward I I I I #
face $-1 $125 $126 $44 $-1 $127 reversed single #
loop $-1 $-1 $128 $57 #
plane-surface $-1 -15.556457817350676 83.607389319205197 110.13257611185841 1 0 0 0 -0.85716730853699208 -0.51503806187062418 forward_v I I I I #
face $-1 $129 $130 $45 $-1 $131 forward single #
loop $-1 $132 $133 $58 #
cone-surface $-1 -10.709244054977397 27.659082693129172 8.7571038320972097 0 -0.85716730853699208 -0.51503806187062418 2 0 0 1 I I 0 1 2 forward I I I I #
face $-1 $134 $135 $46 $-1 $136 reversed single #
loop $-1 $-1 $137 $59 #
plane-surface $-1 5.8620302926041257 83.607389319205197 110.13257611185841 1 0 0 0 -0.85716730853699208 -0.51503806187062418 forward_v I I I I #
face $-1 $138 $139 $47 $-1 $140 forward single #
loop $-1 $141 $142 $60 #
cone-surface $-1 10.709244054977404 27.659082693129172 8.7571038320972097 0 -0.85716730853699208 -0.51503806187062418 2 0 0 1 I I 0 1 2 forward I I I I #
face $-1 $143 $144 $48 $-1 $145 reversed single #
loop $-1 $-1 $146 $61 #
plane-surface $-1 27.280518402558926 83.607389319205197 110.13257611185841 1 0 0 0 -0.85716730853699208 -0.51503806187062418 forward_v I I I I #
face $-1 $147 $148 $49 $-1 $149 forward single #
loop $-1 $150 $151 $62 #
cone-surface $-1 32.127732164932205 27.659082693129172 8.7571038320972097 0 -0.85716730853699208 -0.51503806187062418 2 0 0 1 I I 0 1 2 forward I I I I #
face $-1 $152 $153 $50 $-1 $154 reversed single #
loop $-1 $-1 $155 $63 #
plane-surface $-1 -7.8380807082088033 -90.793527885876273 86.324187070288403 -1 0 0 0 -0.5877852598018023 0.80901698891910034 forward_v I I I I #
face $-1 $156 $157 $51 $-1 $158 forward single #
loop $-1 $159 $160 $64 #
cone-surface $-1 -12.110618254049328 -25.509581985467282 10.154856147288019 0 0.5877852598018023 -0.80901698891910034 1 0 0 1 I I 0 1 1 forward I I I I #
face $-1 $161 $162 $39 $-1 $163 reversed single #
loop $-1 $-1 $164 $65 #
plane-surface $-1 0 0 -15.939684432572509 0 0 1 1 0 0 forward_v I I I I #
coedge $-1 $165 $166 $167 $168 forward $66 $-1 #
face $-1 $169 $170 $40 $-1 $171 forward single #
loop $-1 $-1 $172 $68 #
plane-surface $-1 0 32.785273796802635 0 0 -1 0 0 0 -1 forward_v I I I I #
coedge $-1 $173 $174 $175 $176 forward $69 $-1 #
face $-1 $177 $178 $41 $-1 $179 forward single #
loop $-1 $-1 $180 $71 #
plane-surface $-1 0 -32.785273796802635 0 0 1 0 0 0 1 forward_v I I I I #
coedge $-1 $181 $182 $183 $184 forward $72 $-1 #
face $-1 $185 $186 $42 $-1 $187 reversed single #
loop $-1 $-1 $188 $74 #
plane-surface $-1 -32.127732164932198 -0.98605395160332421 59.30370917394071 0 0.85716730853699208 0.51503806187062418 1 0 0 forward_v I I I I #
coedge $-1 $189 $190 $191 $192 reversed $75 $-1 #
face $-1 $-1 $193 $43 $-1 $194 forward single #
loop $-1 $195 $196 $77 #
cone-surface $-1 -32.127732164932198 25.533521229221435 7.479937699120871 0 -0.85716730853699208 -0.51503806187062418 1 0 0 1 I I -0.70710678118654746 0.70710678118654746 1 forward I I I I #
loop $-1 $-1 $197 $56 #
coedge $-1 $124 $124 $198 $199 reversed $78 $-1 #
face $-1 $200 $201 $44 $-1 $202 reversed single #
loop $-1 $-1 $203 $80 #
plane-surface $-1 -10.709244054977397 -0.98605395160332421 59.30370917394071 0 0.85716730853699208 0.51503806187062418 1 0 0 forward_v I I I I #
coedge $-1 $204 $205 $206 $207 reversed $81 $-1 #
face $-1 $-1 $208 $45 $-1 $209 forward single #
loop $-1 $210 $211 $83 #
cone-surface $-1 -10.709244054977397 25.533521229221435 7.479937699120871 0 -0.85716730853699208 -0.51503806187062418 1 0 0 1 I I -0.70710678118654746 0.70710678118654746 1 forward I I I I #
loop $-1 $-1 $212 $58 #
coedge $-1 $133 $133 $213 $214 reversed $84 $-1 #
face $-1 $215 $216 $46 $-1 $217 reversed single #
loop $-1 $-1 $218 $86 #
plane-surface $-1 10.709244054977404 -0.98605395160332421 59.30370917394071 0 0.85716730853699208 0.51503806187062418 1 0 0 forward_v I I I I #
coedge $-1 $219 $220 $221 $222 reversed $87 $-1 #
face $-1 $-1 $223 $47 $-1 $224 forward single #
loop $-1 $225 $226 $89 #
cone-surface $-1 10.709244054977404 25.533521229221435 7.479937699120871 0 -0.85716730853699208 -0.51503806187062418 1 0 0 1 I I -0.70710678118654746 0.70710678118654746 1 forward I I I I #
loop $-1 $-1 $227 $60 #
coedge $-1 $142 $142 $228 $229 reversed $90 $-1 #
face $-1 $230 $231 $48 $-1 $232 reversed single #
loop $-1 $-1 $233 $92 #
plane-surface $-1 32.127732164932205 -0.98605395160332421 59.30370917394071 0 0.85716730853699208 0.51503806187062418 1 0 0 forward_v I I I I #
coedge $-1 $234 $235 $236 $237 reversed $93 $-1 #
face $-1 $-1 $238 $49 $-1 $239 forward single #
loop $-1 $240 $241 $95 #
cone-surface $-1 32.127732164932205 25.533521229221435 7.479937699120871 0 -0.85716730853699208 -0.51503806187062418 1 0 0 1 I I -0.70710678118654746 0.70710678118654746 1 forward I I I I #
loop $-1 $-1 $242 $62 #
coedge $-1 $151 $151 $243 $244 reversed $96 $-1 #
face $-1 $245 $246 $50 $-1 $247 reversed single #
loop $-1 $-1 $248 $98 #
plane-surface $-1 -12.110618254049335 -32.785273796802628 6.4826764624503426 0 -0.5877852598018023 0.80901698891910034 1 0 0 forward_v I I I I #
coedge $-1 $249 $250 $251 $252 reversed $99 $-1 #
face $-1 $-1 $253 $51 $-1 $254 forward single #
loop $-1 $255 $256 $101 #
cone-surface $-1 -12.110618254049328 -24.448224813108101 8.6940233526050612 0 0.5877852598018023 -0.80901698891910034 0.5 0 0 1 I I -0.70710678118654746 0.70710678118654746 0.5 forward I I I I #
loop $-1 $-1 $257 $64 #
coedge $-1 $160 $160 $258 $259 reversed $102 $-1 #
face $-1 $260 $261 $39 $-1 $262 reversed single #
loop $-1 $-1 $263 $104 #
plane-surface $-1 0 -32.785273796802635 0 0 1 0 0 0 1 forward_v I I I I #
coedge $-1 $264 $265 $266 $267 forward $105 $-1 #
coedge $-1 $268 $107 $269 $270 forward $66 $-1 #
coedge $-1 $107 $268 $271 $272 forward $66 $-1 #
coedge $-1 $273 $274 $107 $168 reversed $275 $-1 #
edge $-1 $276 -32.785273796802635 $277 32.785273796802635 $167 $278 forward 7 unknown #
face $-1 $279 $280 $40 $-1 $281 reversed single #
loop $-1 $-1 $175 $108 #
plane-surface $-1 -55.529678438672768 0 -3.8787580388675913 0 0 1 1 0 0 forward_v I I I I #
coedge $-1 $282 $283 $174 $284 forward $109 $-1 #
coedge $-1 $285 $111 $286 $287 reversed $69 $-1 #
coedge $-1 $111 $285 $172 $284 reversed $69 $-1 #
coedge $-1 $288 $289 $111 $176 reversed $170 $-1 #
edge $-1 $290 -32.785273796802635 $291 32.785273796802635 $175 $292 forward 7 unknown #
face $-1 $293 $294 $41 $-1 $295 reversed single #
loop $-1 $-1 $296 $112 #
plane-surface $-1 55.529678438672768 0 -3.8787580388675913 0 0 1 1 0 0 forward_v I I I I #
coedge $-1 $297 $298 $182 $299 forward $113 $-1 #
coedge $-1 $300 $115 $301 $302 reversed $72 $-1 #
coedge $-1 $115 $300 $180 $299 reversed $72 $-1 #
coedge $-1 $303 $304 $115 $184 reversed $178 $-1 #
edge $-1 $305 -32.785273796802635 $306 32.785273796802635 $183 $307 forward 7 unknown #
face $-1 $308 $309 $42 $-1 $310 reversed single #
loop $-1 $-1 $311 $116 #
plane-surface $-1 -27.280518402558918 83.607389319205197 110.13257611185841 -1 0 0 0 0.85716730853699208 0.51503806187062418 forward_v I I I I #
coedge $-1 $312 $313 $314 $315 reversed $117 $-1 #
coedge $-1 $190 $119 $316 $317 reversed $75 $-1 #
coedge $-1 $119 $189 $312 $318 reversed $75 $-1 #
coedge $-1 $314 $319 $119 $192 forward $320 $-1 #
edge $-1 $321 9.0184208627999638 $322 16.734014759405369 $191 $323 forward 7 unknown #
loop $-1 $-1 $198 $120 #
plane-surface $-1 -32.127732164932198 -0.98605395160332421 59.30370917394071 0 0.85716730853699208 0.51503806187062418 1 0 0 forward_v I I I I #
loop $-1 $-1 $324 $77 #
coedge $-1 $196 $196 $197 $325 reversed $121 $-1 #
coedge $-1 $197 $197 $196 $325 forward $123 $-1 #
coedge $-1 $198 $198 $124 $199 forward $193 $-1 #
edge $-1 $326 -1.6012576392702874e-016 $326 6.2831853071796004 $198 $327 forward 7 unknown #
face $-1 $328 $329 $44 $-1 $330 forward single #
loop $-1 $-1 $331 $125 #
plane-surface $-1 -5.8620302926041186 83.607389319205197 110.13257611185841 -1 0 0 0 0.85716730853699208 0.51503806187062418 forward_v I I I I #
coedge $-1 $332 $333 $334 $335 reversed $126 $-1 #
coedge $-1 $205 $128 $336 $337 reversed $81 $-1 #
coedge $-1 $128 $204 $332 $338 reversed $81 $-1 #
coedge $-1 $334 $339 $128 $207 forward $329 $-1 #
edge $-1 $340 9.0184208627999638 $341 16.734014759405369 $206 $342 forward 7 unknown #
loop $-1 $-1 $213 $129 #
plane-surface $-1 -10.709244054977397 -0.98605395160332421 59.30370917394071 0 0.85716730853699208 0.51503806187062418 1 0 0 forward_v I I I I #
loop $-1 $-1 $343 $83 #
coedge $-1 $211 $211 $212 $344 reversed $130 $-1 #
coedge $-1 $212 $212 $211 $344 forward $132 $-1 #
coedge $-1 $213 $213 $133 $214 forward $208 $-1 #
edge $-1 $345 -1.6012576392702874e-016 $345 6.2831853071796004 $213 $346 forward 7 unknown #
face $-1 $347 $348 $46 $-1 $349 forward single #
loop $-1 $-1 $350 $134 #
plane-surface $-1 15.556457817350683 83.607389319205197 110.13257611185841 -1 0 0 0 0.85716730853699208 0.51503806187062418 forward_v I I I I #
coedge $-1 $351 $352 $353 $354 reversed $135 $-1 #
coedge $-1 $220 $137 $355 $356 reversed $87 $-1 #
coedge $-1 $137 $219 $351 $357 reversed $87 $-1 #
coedge $-1 $353 $358 $137 $222 forward $348 $-1 #
edge $-1 $359 9.0184208627999638 $360 16.734014759405369 $221 $361 forward 7 unknown #
loop $-1 $-1 $228 $138 #
plane-surface $-1 10.709244054977404 -0.98605395160332421 59.30370917394071 0 0.85716730853699208 0.51503806187062418 1 0 0 forward_v I I I I #
loop $-1 $-1 $362 $89 #
coedge $-1 $226 $226 $227 $363 reversed $139 $-1 #
coedge $-1 $227 $227 $226 $363 forward $141 $-1 #
coedge $-1 $228 $228 $142 $229 forward $223 $-1 #
edge $-1 $364 -1.6012576392702874e-016 $364 6.2831853071796004 $228 $365 forward 7 unknown #
face $-1 $366 $367 $48 $-1 $368 forward single #
loop $-1 $-1 $369 $143 #
plane-surface $-1 36.974945927305484 83.607389319205197 110.13257611185841 -1 0 0 0 0.85716730853699208 0.51503806187062418 forward_v I I I I #
coedge $-1 $370 $371 $372 $373 reversed $144 $-1 #
coedge $-1 $235 $146 $374 $375 reversed $93 $-1 #
coedge $-1 $146 $234 $370 $376 reversed $93 $-1 #
coedge $-1 $372 $377 $146 $237 forward $367 $-1 #
edge $-1 $378 9.0184208627999638 $379 16.734014759405369 $236 $380 forward 7 unknown #
loop $-1 $-1 $243 $147 #
plane-surface $-1 32.127732164932205 -0.98605395160332421 59.30370917394071 0 0.85716730853699208 0.51503806187062418 1 0 0 forward_v I I I I #
loop $-1 $-1 $381 $95 #
coedge $-1 $241 $241 $242 $382 reversed $148 $-1 #
coedge $-1 $242 $242 $241 $382 forward $150 $-1 #
coedge $-1 $243 $243 $151 $244 forward $238 $-1 #
edge $-1 $383 -1.6012576392702874e-016 $383 6.2831853071796004 $243 $384 forward 7 unknown #
face $-1 $385 $386 $50 $-1 $387 forward single #
loop $-1 $-1 $388 $152 #
plane-surface $-1 -16.383155799889867 -90.793527885876273 86.324187070288403 1 0 0 0 0.5877852598018023 -0.80901698891910034 forward_v I I I I #
coedge $-1 $389 $390 $391 $392 reversed $153 $-1 #
coedge $-1 $250 $155 $393 $394 reversed $99 $-1 #
coedge $-1 $155 $249 $389 $395 reversed $99 $-1 #
coedge $-1 $391 $396 $155 $252 forward $386 $-1 #
edge $-1 $397 12.611490146135502 $398 25.627944683889652 $251 $399 forward 7 unknown #
loop $-1 $-1 $258 $156 #
plane-surface $-1 -12.110618254049335 -32.785273796802628 6.4826764624503426 0 -0.5877852598018023 0.80901698891910034 1 0 0 forward_v I I I I #
loop $-1 $-1 $400 $101 #
coedge $-1 $256 $256 $257 $401 reversed $157 $-1 #
coedge $-1 $257 $257 $256 $401 forward $159 $-1 #
coedge $-1 $258 $258 $160 $259 forward $253 $-1 #
edge $-1 $402 1.0441163663475846e-015 $402 6.2831853071796013 $258 $403 forward 7 unknown #
face $-1 $404 $405 $39 $-1 $406 reversed single #
loop $-1 $-1 $407 $161 #
plane-surface $-1 -49.344767601550338 0 0 1 0 0 0 0 -1 forward_v I I I I #
coedge $-1 $408 $271 $409 $410 forward $162 $-1 #
coedge $-1 $411 $164 $408 $412 forward $105 $-1 #
coedge $-1 $164 $411 $413 $414 forward $105 $-1 #
coedge $-1 $274 $273 $164 $267 reversed $275 $-1 #
edge $-1 $415 -32.785273796802635 $416 32.785273796802635 $266 $417 forward 7 unknown #
coedge $-1 $166 $165 $418 $419 forward $66 $-1 #
coedge $-1 $420 $421 $165 $270 reversed $405 $-1 #
edge $-1 $277 -49.344767601550338 $422 49.344767601550338 $269 $423 forward 7 unknown #
coedge $-1 $263 $424 $166 $272 reversed $162 $-1 #
edge $-1 $425 -49.344767601550338 $276 49.344767601550338 $271 $426 forward 7 unknown #
coedge $-1 $266 $167 $424 $427 forward $275 $-1 #
coedge $-1 $167 $266 $420 $428 reversed $275 $-1 #
loop $-1 $-1 $273 $404 #
vertex $-1 $168 $429 #
vertex $-1 $168 $430 #
straight-curve $-1 49.344767601550338 0 15.939684432572509 0 1 0 I I #
face $-1 $431 $432 $40 $-1 $433 reversed single #
loop $-1 $-1 $434 $169 #
plane-surface $-1 -55.529678438672768 0 -11.664671464481657 0 0 1 1 0 0 forward_v I I I I #
coedge $-1 $435 $172 $436 $437 reversed $109 $-1 #
coedge $-1 $172 $435 $288 $438 reversed $109 $-1 #
edge $-1 $290 3.8787580388675913 $439 11.664671464481657 $172 $440 forward 7 unknown #
coedge $-1 $174 $173 $434 $441 forward $69 $-1 #
coedge $-1 $442 $443 $173 $287 forward $444 $-1 #
edge $-1 $445 -11.664671464481657 $291 -3.8787580388675913 $286 $446 forward 7 unknown #
coedge $-1 $447 $175 $283 $438 forward $170 $-1 #
coedge $-1 $175 $447 $442 $448 forward $170 $-1 #
vertex $-1 $284 $449 #
vertex $-1 $448 $450 #
straight-curve $-1 -49.344767601550338 0 -3.8787580388675913 0 -1 0 I I #
face $-1 $451 $452 $41 $-1 $453 reversed single #
loop $-1 $-1 $454 $177 #
plane-surface $-1 55.529678438672768 0 -11.664671464481657 0 0 1 1 0 0 forward_v I I I I #
coedge $-1 $304 $303 $455 $456 forward $178 $-1 #
coedge $-1 $457 $180 $458 $459 reversed $113 $-1 #
coedge $-1 $180 $457 $303 $460 reversed $113 $-1 #
edge $-1 $305 3.8787580388675913 $461 11.664671464481657 $180 $462 forward 7 unknown #
coedge $-1 $182 $181 $463 $464 forward $72 $-1 #
coedge $-1 $465 $466 $181 $302 forward $467 $-1 #
edge $-1 $468 -11.664671464481657 $306 -3.8787580388675913 $301 $469 forward 7 unknown #
coedge $-1 $296 $183 $298 $460 forward $178 $-1 #
coedge $-1 $183 $296 $465 $470 forward $178 $-1 #
vertex $-1 $299 $471 #
vertex $-1 $470 $472 #
straight-curve $-1 49.344767601550338 0 -3.8787580388675913 0 1 0 I I #
face $-1 $-1 $320 $42 $-1 $473 forward single #
loop $-1 $-1 $474 $185 #
plane-surface $-1 0 32.785273796802635 0 0 -1 0 0 0 -1 forward_v I I I I #
coedge $-1 $475 $476 $477 $478 reversed $186 $-1 #
coedge $-1 $479 $188 $190 $318 forward $117 $-1 #
coedge $-1 $188 $479 $475 $480 forward $117 $-1 #
coedge $-1 $477 $191 $188 $315 forward $320 $-1 #
edge $-1 $322 -20.911079844839378 $481 -11.21665232009282 $314 $482 forward 7 unknown #
coedge $-1 $483 $484 $189 $317 forward $309 $-1 #
edge $-1 $485 -51.967508682095826 $321 -39.126603623356701 $316 $486 forward 7 unknown #
edge $-1 $322 50.589919038538298 $485 65.570547593605241 $190 $487 forward 7 unknown #
coedge $-1 $191 $477 $483 $488 forward $320 $-1 #
loop $-1 $-1 $477 $308 #
vertex $-1 $317 $489 #
vertex $-1 $192 $490 #
straight-curve $-1 -36.974945927305477 41.803694659602598 15.939684432572506 0 -1 0 I I #
coedge $-1 $324 $324 $-1 $491 reversed $195 $-1 #
edge $-1 $492 0 $492 6.2831853071796004 $196 $493 forward 7 unknown #
vertex $-1 $199 $494 #
ellipse-curve $-1 -32.127732164932198 28.927476848499936 9.5192319032029378 0 0.85716730853699208 0.51503806187062418 2 0 0 1 I I #
face $-1 $-1 $495 $44 $-1 $496 reversed single #
loop $-1 $-1 $206 $200 #
plane-surface $-1 0 0 15.939684432572509 0 0 1 1 0 0 forward_v I I I I #
coedge $-1 $497 $498 $499 $500 reversed $201 $-1 #
coedge $-1 $501 $203 $205 $338 forward $126 $-1 #
coedge $-1 $203 $501 $497 $502 forward $126 $-1 #
coedge $-1 $499 $206 $203 $335 forward $329 $-1 #
edge $-1 $341 -10.201835789861978 $503 -0.50740826511542014 $334 $504 forward 7 unknown #
coedge $-1 $505 $506 $204 $337 forward $495 $-1 #
edge $-1 $507 -51.967508682095826 $340 -39.126603623356701 $336 $508 forward 7 unknown #
edge $-1 $341 50.589919038538298 $507 65.570547593605241 $205 $509 forward 7 unknown #
coedge $-1 $206 $499 $505 $510 forward $329 $-1 #
vertex $-1 $207 $511 #
vertex $-1 $207 $512 #
straight-curve $-1 -15.556457817350676 41.803694659602598 15.939684432572506 0 -1 0 I I #
coedge $-1 $343 $343 $-1 $513 reversed $210 $-1 #
edge $-1 $514 0 $514 6.2831853071796004 $211 $515 forward 7 unknown #
vertex $-1 $214 $516 #
ellipse-curve $-1 -10.709244054977397 28.927476848499936 9.5192319032029378 0 0.85716730853699208 0.51503806187062418 2 0 0 1 I I #
face $-1 $-1 $517 $46 $-1 $518 reversed single #
loop $-1 $-1 $221 $215 #
plane-surface $-1 0 0 15.939684432572509 0 0 1 1 0 0 forward_v I I I I #
coedge $-1 $519 $520 $521 $522 reversed $216 $-1 #
coedge $-1 $523 $218 $220 $357 forward $135 $-1 #
coedge $-1 $218 $523 $519 $524 forward $135 $-1 #
coedge $-1 $521 $221 $218 $354 forward $348 $-1 #
edge $-1 $360 0.5074082651154237 $525 10.201835789861981 $353 $526 forward 7 unknown #
coedge $-1 $527 $528 $219 $356 forward $517 $-1 #
edge $-1 $529 -51.967508682095826 $359 -39.126603623356701 $355 $530 forward 7 unknown #
edge $-1 $360 50.589919038538298 $529 65.570547593605241 $220 $531 forward 7 unknown #
coedge $-1 $221 $521 $527 $532 forward $348 $-1 #
vertex $-1 $222 $533 #
vertex $-1 $222 $534 #
straight-curve $-1 5.8620302926041257 41.803694659602598 15.939684432572506 0 -1 0 I I #
coedge $-1 $362 $362 $-1 $535 reversed $225 $-1 #
edge $-1 $536 0 $536 6.2831853071796004 $226 $537 forward 7 unknown #
vertex $-1 $229 $538 #
ellipse-curve $-1 10.709244054977404 28.927476848499936 9.5192319032029378 0 0.85716730853699208 0.51503806187062418 2 0 0 1 I I #
face $-1 $-1 $539 $48 $-1 $540 reversed single #
loop $-1 $-1 $236 $230 #
plane-surface $-1 0 0 15.939684432572509 0 0 1 1 0 0 forward_v I I I I #
coedge $-1 $541 $542 $543 $544 reversed $231 $-1 #
coedge $-1 $545 $233 $235 $376 forward $144 $-1 #
coedge $-1 $233 $545 $541 $546 forward $144 $-1 #
coedge $-1 $543 $236 $233 $373 forward $367 $-1 #
edge $-1 $379 11.216652320092823 $547 20.911079844839382 $372 $548 forward 7 unknown #
coedge $-1 $549 $550 $234 $375 forward $539 $-1 #
edge $-1 $551 -51.967508682095826 $378 -39.126603623356701 $374 $552 forward 7 unknown #
edge $-1 $379 50.589919038538298 $551 65.570547593605241 $235 $553 forward 7 unknown #
coedge $-1 $236 $543 $549 $554 forward $367 $-1 #
vertex $-1 $237 $555 #
vertex $-1 $237 $556 #
straight-curve $-1 27.280518402558926 41.803694659602598 15.939684432572506 0 -1 0 I I #
coedge $-1 $381 $381 $-1 $557 reversed $240 $-1 #
edge $-1 $558 0 $558 6.2831853071796004 $241 $559 forward 7 unknown #
vertex $-1 $244 $560 #
ellipse-curve $-1 32.127732164932205 28.927476848499936 9.5192319032029378 0 0.85716730853699208 0.51503806187062418 2 0 0 1 I I #
face $-1 $-1 $561 $50 $-1 $562 reversed single #
loop $-1 $-1 $251 $245 #
plane-surface $-1 0 0 15.939684432572509 0 0 1 1 0 0 forward_v I I I I #
coedge $-1 $563 $564 $565 $566 reversed $246 $-1 #
coedge $-1 $567 $248 $250 $395 forward $153 $-1 #
coedge $-1 $248 $567 $563 $568 forward $153 $-1 #
coedge $-1 $565 $251 $248 $392 forward $386 $-1 #
edge $-1 $398 1.7827715811841358 $569 10.327846672865199 $391 $570 forward 7 unknown #
coedge $-1 $571 $572 $249 $394 forward $561 $-1 #
edge $-1 $573 -36.679417072693866 $397 -27.222409102571692 $393 $574 forward 7 unknown #
edge $-1 $398 -16.089222743202189 $573 8.8807605448725156e-015 $250 $575 forward 7 unknown #
coedge $-1 $251 $565 $571 $576 forward $386 $-1 #
vertex $-1 $394 $577 #
vertex $-1 $252 $578 #
straight-curve $-1 -7.8380807082088033 -45.396763942938136 15.939684432572513 0 1 0 I I #
coedge $-1 $400 $400 $-1 $579 reversed $255 $-1 #
edge $-1 $580 0 $580 6.2831853071796004 $256 $581 forward 7 unknown #
vertex $-1 $259 $582 #
ellipse-curve $-1 -12.110618254049328 -26.27704652792556 11.211180447511422 0 -0.5877852598018023 0.80901698891910034 1 0 0 1 I I #
face $-1 $-1 $275 $39 $-1 $583 reversed single #
loop $-1 $-1 $420 $260 #
plane-surface $-1 0 32.785273796802635 0 0 -1 0 0 0 -1 forward_v I I I I #
coedge $-1 $584 $418 $421 $585 forward $261 $-1 #
coedge $-1 $424 $263 $264 $412 reversed $162 $-1 #
coedge $-1 $418 $584 $263 $410 reversed $261 $-1 #
edge $-1 $425 -15.939684432572509 $586 15.939684432572509 $409 $587 forward 7 unknown #
coedge $-1 $265 $264 $584 $588 forward $105 $-1 #
edge $-1 $416 -49.344767601550338 $586 49.344767601550338 $408 $589 forward 7 unknown #
coedge $-1 $421 $420 $265 $414 reversed $405 $-1 #
edge $-1 $590 -49.344767601550338 $415 49.344767601550338 $413 $591 forward 7 unknown #
vertex $-1 $267 $592 #
vertex $-1 $427 $593 #
straight-curve $-1 49.344767601550338 0 -15.939684432572509 0 -1 0 I I #
coedge $-1 $407 $409 $268 $419 reversed $261 $-1 #
edge $-1 $422 -32.785273796802635 $425 32.785273796802635 $418 $594 forward 7 unknown #
coedge $-1 $413 $269 $274 $428 forward $405 $-1 #
coedge $-1 $269 $413 $407 $585 reversed $405 $-1 #
vertex $-1 $270 $595 #
straight-curve $-1 0 32.785273796802635 15.939684432572509 -1 0 0 I I #
coedge $-1 $271 $408 $273 $427 reversed $162 $-1 #
vertex $-1 $419 $596 #
straight-curve $-1 0 -32.785273796802635 15.939684432572509 1 0 0 I I #
edge $-1 $276 -15.939684432572509 $416 15.939684432572509 $273 $597 forward 7 unknown #
edge $-1 $277 -15.939684432572509 $415 15.939684432572509 $274 $598 forward 7 unknown #
point $-1 49.344767601550338 -32.785273796802635 15.939684432572509 #
point $-1 49.344767601550338 32.785273796802635 15.939684432572509 #
face $-1 $-1 $444 $40 $-1 $599 reversed single #
loop $-1 $-1 $600 $279 #
plane-surface $-1 -61.714589275795198 0 -7.7717147516746241 1 0 0 0 0 -1 forward_v I I I I #
coedge $-1 $601 $436 $285 $441 reversed $280 $-1 #
coedge $-1 $283 $282 $600 $602 reversed $109 $-1 #
coedge $-1 $434 $603 $282 $437 forward $280 $-1 #
edge $-1 $604 -6.1849108371224304 $439 6.1849108371224304 $282 $605 forward 7 unknown #
edge $-1 $290 -6.1849108371224304 $606 6.1849108371224304 $283 $607 forward 7 unknown #
vertex $-1 $284 $608 #
straight-curve $-1 -49.344767601550338 32.785273796802635 0 0 0 -1 I I #
edge $-1 $445 -32.785273796802635 $439 32.785273796802635 $434 $609 forward 7 unknown #
coedge $-1 $610 $286 $289 $448 reversed $444 $-1 #
coedge $-1 $286 $610 $601 $611 reversed $444 $-1 #
loop $-1 $-1 $286 $431 #
vertex $-1 $287 $612 #
straight-curve $-1 -49.344767601550338 -32.785273796802635 0 0 0 1 I I #
coedge $-1 $289 $288 $613 $614 forward $170 $-1 #
edge $-1 $615 -6.1849108371224304 $291 6.1849108371224304 $442 $616 forward 7 unknown #
point $-1 -49.344767601550338 32.785273796802635 -3.8787580388675913 #
point $-1 -49.344767601550338 -32.785273796802635 -3.8787580388675913 #
face $-1 $-1 $467 $41 $-1 $617 reversed single #
loop $-1 $-1 $618 $293 #
plane-surface $-1 61.714589275795198 0 -7.7717147516746241 -1 0 0 0 0 1 forward_v I I I I #
coedge $-1 $458 $619 $620 $621 forward $294 $-1 #
coedge $-1 $618 $622 $296 $456 reversed $452 $-1 #
edge $-1 $623 -32.785273796802635 $624 32.785273796802635 $455 $625 forward 7 unknown #
coedge $-1 $298 $297 $618 $626 reversed $113 $-1 #
coedge $-1 $463 $454 $297 $459 forward $294 $-1 #
edge $-1 $627 -6.1849108371224304 $461 6.1849108371224304 $297 $628 forward 7 unknown #
edge $-1 $305 -6.1849108371224304 $623 6.1849108371224304 $298 $629 forward 7 unknown #
vertex $-1 $299 $630 #
straight-curve $-1 49.344767601550338 -32.785273796802635 0 0 0 -1 I I #
coedge $-1 $619 $458 $300 $464 reversed $294 $-1 #
edge $-1 $468 -32.785273796802635 $461 32.785273796802635 $463 $631 forward 7 unknown #
coedge $-1 $632 $301 $304 $470 reversed $467 $-1 #
coedge $-1 $301 $632 $619 $633 reversed $467 $-1 #
loop $-1 $-1 $301 $451 #
vertex $-1 $302 $634 #
straight-curve $-1 49.344767601550338 32.785273796802635 0 0 0 1 I I #
edge $-1 $624 -6.1849108371224304 $306 6.1849108371224304 $465 $635 forward 7 unknown #
point $-1 49.344767601550338 -32.785273796802635 -3.8787580388675913 #
point $-1 49.344767601550338 32.785273796802635 -3.8787580388675913 #
plane-surface $-1 0 0 15.939684432572509 0 0 1 1 0 0 forward_v I I I I #
coedge $-1 $484 $483 $476 $636 forward $309 $-1 #
coedge $-1 $476 $311 $313 $480 reversed $186 $-1 #
coedge $-1 $311 $475 $474 $636 reversed $186 $-1 #
coedge $-1 $319 $314 $311 $478 forward $320 $-1 #
edge $-1 $481 -16.734014759405369 $637 -9.0184208627999638 $477 $638 forward 7 unknown #
coedge $-1 $313 $312 $484 $639 reversed $117 $-1 #
edge $-1 $640 -65.570547593605241 $481 -50.589919038538298 $475 $641 forward 7 unknown #
vertex $-1 $315 $642 #
straight-curve $-1 -16.063866082466099 25.069679900197229 15.939684432572509 1 0 0 I I #
coedge $-1 $474 $316 $319 $488 reversed $309 $-1 #
coedge $-1 $316 $474 $479 $639 forward $309 $-1 #
vertex $-1 $317 $643 #
straight-curve $-1 -36.974945927305477 32.785273796802635 55.066288055929206 0 0 1 I I #
straight-curve $-1 -36.974945927305477 -0.98605395160332421 59.30370917394071 0 0.51503806187062418 -0.85716730853699208 I I #
edge $-1 $637 27.280518402558918 $321 36.974945927305477 $483 $644 forward 7 unknown #
point $-1 -36.974945927305477 32.785273796802635 15.939684432572509 #
point $-1 -36.974945927305477 25.069679900197229 15.939684432572513 #
edge $-1 $645 1 $645 0 $324 $-1 forward 7 unknown #
vertex $-1 $325 $646 #
ellipse-curve $-1 -32.127732164932198 26.390688537758429 7.9949757609914949 0 0.85716730853699208 0.51503806187062418 2 0 0 1 I I #
point $-1 -30.127732164932198 28.927476848499914 9.5192319032029253 #
loop $-1 $-1 $336 $328 #
plane-surface $-1 0 32.785273796802635 0 0 -1 0 0 0 -1 forward_v I I I I #
coedge $-1 $498 $331 $333 $502 reversed $201 $-1 #
coedge $-1 $331 $497 $647 $648 reversed $201 $-1 #
coedge $-1 $339 $334 $331 $500 forward $329 $-1 #
edge $-1 $503 -16.734014759405369 $649 -9.0184208627999638 $499 $650 forward 7 unknown #
coedge $-1 $333 $332 $506 $651 reversed $126 $-1 #
edge $-1 $652 -65.570547593605241 $503 -50.589919038538298 $497 $653 forward 7 unknown #
vertex $-1 $335 $654 #
straight-curve $-1 -5.3546220274886984 25.069679900197229 15.939684432572509 1 0 0 I I #
coedge $-1 $647 $336 $339 $510 reversed $495 $-1 #
coedge $-1 $336 $647 $501 $651 forward $495 $-1 #
vertex $-1 $337 $655 #
straight-curve $-1 -15.556457817350676 32.785273796802635 55.066288055929206 0 0 1 I I #
straight-curve $-1 -15.556457817350676 -0.98605395160332421 59.30370917394071 0 0.51503806187062418 -0.85716730853699208 I I #
edge $-1 $649 5.8620302926041186 $340 15.556457817350676 $505 $656 forward 7 unknown #
point $-1 -15.556457817350676 32.785273796802635 15.939684432572509 #
point $-1 -15.556457817350676 25.069679900197229 15.939684432572513 #
edge $-1 $657 1 $657 0 $343 $-1 forward 7 unknown #
vertex $-1 $344 $658 #
ellipse-curve $-1 -10.709244054977397 26.390688537758429 7.9949757609914949 0 0.85716730853699208 0.51503806187062418 2 0 0 1 I I #
point $-1 -8.7092440549773968 28.927476848499914 9.5192319032029253 #
loop $-1 $-1 $355 $347 #
plane-surface $-1 0 32.785273796802635 0 0 -1 0 0 0 -1 forward_v I I I I #
coedge $-1 $520 $350 $352 $524 reversed $216 $-1 #
coedge $-1 $350 $519 $659 $660 reversed $216 $-1 #
coedge $-1 $358 $353 $350 $522 forward $348 $-1 #
edge $-1 $525 -16.734014759405369 $661 -9.0184208627999638 $521 $662 forward 7 unknown #
coedge $-1 $352 $351 $528 $663 reversed $135 $-1 #
edge $-1 $664 -65.570547593605241 $525 -50.589919038538298 $519 $665 forward 7 unknown #
vertex $-1 $354 $666 #
straight-curve $-1 5.354622027488702 25.069679900197229 15.939684432572509 1 0 0 I I #
coedge $-1 $659 $355 $358 $532 reversed $517 $-1 #
coedge $-1 $355 $659 $523 $663 forward $517 $-1 #
vertex $-1 $356 $667 #
straight-curve $-1 5.8620302926041257 32.785273796802635 55.066288055929206 0 0 1 I I #
straight-curve $-1 5.8620302926041257 -0.98605395160332421 59.30370917394071 0 0.51503806187062418 -0.85716730853699208 I I #
edge $-1 $661 -15.556457817350683 $359 -5.8620302926041257 $527 $668 forward 7 unknown #
point $-1 5.8620302926041257 32.785273796802635 15.939684432572509 #
point $-1 5.8620302926041257 25.069679900197229 15.939684432572513 #
edge $-1 $669 1 $669 0 $362 $-1 forward 7 unknown #
vertex $-1 $363 $670 #
ellipse-curve $-1 10.709244054977404 26.390688537758429 7.9949757609914949 0 0.85716730853699208 0.51503806187062418 2 0 0 1 I I #
point $-1 12.709244054977404 28.927476848499914 9.5192319032029253 #
loop $-1 $-1 $374 $366 #
plane-surface $-1 0 32.785273796802635 0 0 -1 0 0 0 -1 forward_v I I I I #
coedge $-1 $542 $369 $371 $546 reversed $231 $-1 #
coedge $-1 $369 $541 $671 $672 reversed $231 $-1 #
coedge $-1 $377 $372 $369 $544 forward $367 $-1 #
edge $-1 $547 -16.734014759405369 $673 -9.0184208627999638 $543 $674 forward 7 unknown #
coedge $-1 $371 $370 $550 $675 reversed $144 $-1 #
edge $-1 $676 -65.570547593605241 $547 -50.589919038538298 $541 $677 forward 7 unknown #
vertex $-1 $373 $678 #
straight-curve $-1 16.063866082466102 25.069679900197229 15.939684432572509 1 0 0 I I #
coedge $-1 $671 $374 $377 $554 reversed $539 $-1 #
coedge $-1 $374 $671 $545 $675 forward $539 $-1 #
vertex $-1 $375 $679 #
straight-curve $-1 27.280518402558926 32.785273796802635 55.066288055929206 0 0 1 I I #
straight-curve $-1 27.280518402558926 -0.98605395160332421 59.30370917394071 0 0.51503806187062418 -0.85716730853699208 I I #
edge $-1 $673 -36.974945927305484 $378 -27.280518402558926 $549 $680 forward 7 unknown #
point $-1 27.280518402558926 32.785273796802635 15.939684432572509 #
point $-1 27.280518402558926 25.069679900197229 15.939684432572513 #
edge $-1 $681 1 $681 0 $381 $-1 forward 7 unknown #
vertex $-1 $382 $682 #
ellipse-curve $-1 32.127732164932205 26.390688537758429 7.9949757609914949 0 0.85716730853699208 0.51503806187062418 2 0 0 1 I I #
point $-1 34.127732164932205 28.927476848499914 9.5192319032029253 #
loop $-1 $-1 $393 $385 #
plane-surface $-1 0 -32.785273796802635 0 0 1 0 0 0 1 forward_v I I I I #
coedge $-1 $564 $388 $390 $568 reversed $246 $-1 #
coedge $-1 $388 $563 $683 $684 reversed $246 $-1 #
coedge $-1 $396 $391 $388 $566 forward $386 $-1 #
edge $-1 $569 -25.627944683889652 $685 -12.611490146135502 $565 $686 forward 7 unknown #
coedge $-1 $390 $389 $572 $687 reversed $153 $-1 #
edge $-1 $688 -8.8807605448725156e-015 $569 16.089222743202189 $563 $689 forward 7 unknown #
vertex $-1 $392 $690 #
straight-curve $-1 -6.0553091270246675 -19.768819259048485 15.939684432572509 -1 0 0 I I #
coedge $-1 $683 $393 $396 $576 reversed $561 $-1 #
coedge $-1 $393 $683 $567 $687 forward $561 $-1 #
vertex $-1 $394 $691 #
straight-curve $-1 -7.8380807082088033 -32.785273796802635 43.162093535144201 0 0 1 I I #
straight-curve $-1 -7.8380807082088033 -32.785273796802628 6.4826764624503426 0 -0.80901698891910034 -0.5877852598018023 I I #
edge $-1 $685 -16.383155799889867 $397 -7.8380807082088033 $571 $692 forward 7 unknown #
point $-1 -7.8380807082088033 -32.785273796802635 15.939684432572509 #
point $-1 -7.8380807082088033 -19.768819259048485 15.939684432572509 #
edge $-1 $693 1 $693 0 $400 $-1 forward 7 unknown #
vertex $-1 $401 $694 #
ellipse-curve $-1 -12.110618254049328 -24.742117443009004 9.0985318470646117 0 -0.5877852598018023 0.80901698891910034 1 0 0 1 I I #
point $-1 -11.110618254049328 -26.27704652792556 11.211180447511424 #
plane-surface $-1 49.344767601550338 0 0 -1 0 0 0 0 1 forward_v I I I I #
coedge $-1 $409 $407 $411 $588 reversed $261 $-1 #
edge $-1 $422 -15.939684432572509 $590 15.939684432572509 $421 $695 forward 7 unknown #
vertex $-1 $588 $696 #
straight-curve $-1 -49.344767601550338 -32.785273796802635 0 0 0 -1 I I #
edge $-1 $586 -32.785273796802635 $590 32.785273796802635 $584 $697 forward 7 unknown #
straight-curve $-1 0 -32.785273796802635 -15.939684432572509 -1 0 0 I I #
vertex $-1 $414 $698 #
straight-curve $-1 0 32.785273796802635 -15.939684432572509 1 0 0 I I #
point $-1 49.344767601550338 32.785273796802635 -15.939684432572509 #
point $-1 49.344767601550338 -32.785273796802635 -15.939684432572509 #
straight-curve $-1 -49.344767601550338 0 15.939684432572509 0 -1 0 I I #
point $-1 -49.344767601550338 32.785273796802635 15.939684432572509 #
point $-1 -49.344767601550338 -32.785273796802635 15.939684432572509 #
straight-curve $-1 49.344767601550338 -32.785273796802635 0 0 0 -1 I I #
straight-curve $-1 49.344767601550338 32.785273796802635 0 0 0 -1 I I #
plane-surface $-1 0 -32.785273796802635 0 0 1 0 0 0 1 forward_v I I I I #
coedge $-1 $699 $613 $435 $602 forward $432 $-1 #
coedge $-1 $603 $434 $443 $611 forward $280 $-1 #
edge $-1 $606 -3.8929567128070328 $604 3.8929567128070328 $435 $700 forward 7 unknown #
coedge $-1 $436 $601 $699 $701 forward $280 $-1 #
vertex $-1 $437 $702 #
straight-curve $-1 -55.529678438672768 32.785273796802635 -11.664671464481657 1 0 0 I I #
vertex $-1 $438 $703 #
straight-curve $-1 -55.529678438672768 32.785273796802635 -3.8787580388675913 -1 0 0 I I #
point $-1 -49.344767601550338 32.785273796802635 -11.664671464481657 #
straight-curve $-1 -49.344767601550338 0 -11.664671464481657 0 1 0 I I #
coedge $-1 $443 $442 $704 $705 forward $444 $-1 #
edge $-1 $445 -6.1849108371224304 $706 6.1849108371224304 $443 $707 forward 7 unknown #
point $-1 -49.344767601550338 -32.785273796802635 -11.664671464481657 #
coedge $-1 $600 $704 $447 $614 reversed $432 $-1 #
edge $-1 $606 -32.785273796802635 $615 32.785273796802635 $613 $708 forward 7 unknown #
vertex $-1 $614 $709 #
straight-curve $-1 -55.529678438672768 -32.785273796802635 -3.8787580388675913 1 0 0 I I #
plane-surface $-1 0 32.785273796802635 0 0 -1 0 0 0 -1 forward_v I I I I #
coedge $-1 $620 $455 $457 $626 forward $452 $-1 #
coedge $-1 $454 $463 $466 $633 forward $294 $-1 #
coedge $-1 $622 $618 $454 $621 reversed $452 $-1 #
edge $-1 $710 -32.785273796802635 $627 32.785273796802635 $620 $711 forward 7 unknown #
coedge $-1 $455 $620 $632 $712 reversed $452 $-1 #
vertex $-1 $456 $713 #
vertex $-1 $456 $714 #
straight-curve $-1 61.714589275795198 0 -3.8787580388675913 0 1 0 I I #
edge $-1 $623 -3.8929567128070328 $627 3.8929567128070328 $618 $715 forward 7 unknown #
vertex $-1 $626 $716 #
straight-curve $-1 55.529678438672768 -32.785273796802635 -11.664671464481657 -1 0 0 I I #
straight-curve $-1 55.529678438672768 -32.785273796802635 -3.8787580388675913 1 0 0 I I #
point $-1 49.344767601550338 -32.785273796802635 -11.664671464481657 #
straight-curve $-1 49.344767601550338 0 -11.664671464481657 0 -1 0 I I #
coedge $-1 $466 $465 $622 $712 forward $467 $-1 #
edge $-1 $468 -6.1849108371224304 $710 6.1849108371224304 $466 $717 forward 7 unknown #
point $-1 49.344767601550338 32.785273796802635 -11.664671464481657 #
straight-curve $-1 55.529678438672768 32.785273796802635 -3.8787580388675913 -1 0 0 I I #
edge $-1 $637 39.126603623356701 $640 51.967508682095826 $474 $718 forward 7 unknown #
vertex $-1 $488 $719 #
straight-curve $-1 -27.280518402558918 41.803694659602598 15.939684432572506 0 1 0 I I #
edge $-1 $640 11.21665232009282 $485 20.911079844839378 $484 $720 forward 7 unknown #
vertex $-1 $639 $721 #
straight-curve $-1 -27.280518402558918 -0.98605395160332421 59.30370917394071 0 -0.51503806187062418 0.85716730853699208 I I #
point $-1 -27.280518402558918 25.069679900197229 15.939684432572513 #
point $-1 -36.974945927305477 32.785273796802635 3.0987793738333806 #
straight-curve $-1 0 32.785273796802635 15.939684432572509 -1 0 0 I I #
vertex $-1 $491 $722 #
point $-1 -30.127732164932198 26.390688537758429 7.9949757609914949 #
coedge $-1 $506 $505 $498 $648 forward $495 $-1 #
edge $-1 $649 39.126603623356701 $652 51.967508682095826 $647 $723 forward 7 unknown #
vertex $-1 $510 $724 #
straight-curve $-1 -5.8620302926041186 41.803694659602598 15.939684432572506 0 1 0 I I #
edge $-1 $652 0.50740826511542014 $507 10.201835789861978 $506 $725 forward 7 unknown #
vertex $-1 $651 $726 #
straight-curve $-1 -5.8620302926041186 -0.98605395160332421 59.30370917394071 0 -0.51503806187062418 0.85716730853699208 I I #
point $-1 -5.8620302926041186 25.069679900197229 15.939684432572513 #
point $-1 -15.556457817350676 32.785273796802635 3.0987793738333806 #
straight-curve $-1 0 32.785273796802635 15.939684432572509 -1 0 0 I I #
vertex $-1 $513 $727 #
point $-1 -8.7092440549773968 26.390688537758429 7.9949757609914949 #
coedge $-1 $528 $527 $520 $660 forward $517 $-1 #
edge $-1 $661 39.126603623356701 $664 51.967508682095826 $659 $728 forward 7 unknown #
vertex $-1 $532 $729 #
straight-curve $-1 15.556457817350683 41.803694659602598 15.939684432572506 0 1 0 I I #
edge $-1 $664 -10.201835789861981 $529 -0.5074082651154237 $528 $730 forward 7 unknown #
vertex $-1 $663 $731 #
straight-curve $-1 15.556457817350683 -0.98605395160332421 59.30370917394071 0 -0.51503806187062418 0.85716730853699208 I I #
point $-1 15.556457817350683 25.069679900197229 15.939684432572513 #
point $-1 5.8620302926041257 32.785273796802635 3.0987793738333806 #
straight-curve $-1 0 32.785273796802635 15.939684432572509 -1 0 0 I I #
vertex $-1 $535 $732 #
point $-1 12.709244054977404 26.390688537758429 7.9949757609914949 #
coedge $-1 $550 $549 $542 $672 forward $539 $-1 #
edge $-1 $673 39.126603623356701 $676 51.967508682095826 $671 $733 forward 7 unknown #
vertex $-1 $554 $734 #
straight-curve $-1 36.974945927305484 41.803694659602598 15.939684432572506 0 1 0 I I #
edge $-1 $676 -20.911079844839382 $551 -11.216652320092823 $550 $735 forward 7 unknown #
vertex $-1 $675 $736 #
straight-curve $-1 36.974945927305484 -0.98605395160332421 59.30370917394071 0 -0.51503806187062418 0.85716730853699208 I I #
point $-1 36.974945927305484 25.069679900197229 15.939684432572513 #
point $-1 27.280518402558926 32.785273796802635 3.0987793738333806 #
straight-curve $-1 0 32.785273796802635 15.939684432572509 -1 0 0 I I #
vertex $-1 $557 $737 #
point $-1 34.127732164932205 26.390688537758429 7.9949757609914949 #
coedge $-1 $572 $571 $564 $684 forward $561 $-1 #
edge $-1 $685 27.222409102571692 $688 36.679417072693866 $683 $738 forward 7 unknown #
vertex $-1 $576 $739 #
straight-curve $-1 -16.383155799889867 -45.396763942938136 15.939684432572513 0 -1 0 I I #
edge $-1 $688 -10.327846672865199 $573 -1.7827715811841358 $572 $740 forward 7 unknown #
vertex $-1 $687 $741 #
straight-curve $-1 -16.383155799889867 -32.785273796802628 6.4826764624503426 0 0.80901698891910034 0.5877852598018023 I I #
point $-1 -16.383155799889867 -19.768819259048485 15.939684432572509 #
point $-1 -7.8380807082088033 -32.785273796802635 6.4826764624503372 #
straight-curve $-1 0 -32.785273796802635 15.939684432572509 1 0 0 I I #
vertex $-1 $579 $742 #
point $-1 -11.110618254049328 -24.742117443009004 9.0985318470646117 #
straight-curve $-1 -49.344767601550338 32.785273796802635 0 0 0 -1 I I #
point $-1 -49.344767601550338 -32.785273796802635 -15.939684432572509 #
straight-curve $-1 -49.344767601550338 0 -15.939684432572509 0 1 0 I I #
point $-1 -49.344767601550338 32.785273796802635 -15.939684432572509 #
coedge $-1 $704 $600 $603 $701 reversed $432 $-1 #
straight-curve $-1 -61.714589275795198 32.785273796802635 -7.7717147516746241 0 0 -1 I I #
edge $-1 $706 -32.785273796802635 $604 32.785273796802635 $699 $743 forward 7 unknown #
point $-1 -61.714589275795198 32.785273796802635 -11.664671464481657 #
point $-1 -61.714589275795198 32.785273796802635 -3.8787580388675913 #
coedge $-1 $613 $699 $610 $705 reversed $432 $-1 #
edge $-1 $615 -3.8929567128070328 $706 3.8929567128070328 $704 $744 forward 7 unknown #
vertex $-1 $701 $745 #
straight-curve $-1 -55.529678438672768 -32.785273796802635 -11.664671464481657 -1 0 0 I I #
straight-curve $-1 -61.714589275795198 0 -3.8787580388675913 0 -1 0 I I #
point $-1 -61.714589275795198 -32.785273796802635 -3.8787580388675913 #
vertex $-1 $621 $746 #
straight-curve $-1 61.714589275795198 0 -11.664671464481657 0 -1 0 I I #
edge $-1 $624 -3.8929567128070328 $710 3.8929567128070328 $622 $747 forward 7 unknown #
point $-1 61.714589275795198 -32.785273796802635 -3.8787580388675913 #
point $-1 61.714589275795198 32.785273796802635 -3.8787580388675913 #
straight-curve $-1 61.714589275795198 -32.785273796802635 -7.7717147516746241 0 0 -1 I I #
point $-1 61.714589275795198 -32.785273796802635 -11.664671464481657 #
straight-curve $-1 55.529678438672768 32.785273796802635 -11.664671464481657 1 0 0 I I #
straight-curve $-1 -27.280518402558918 32.785273796802635 55.066288055929206 0 0 -1 I I #
point $-1 -27.280518402558918 32.785273796802635 15.939684432572509 #
straight-curve $-1 -16.063866082466099 32.785273796802642 3.09877937383337 -1 0 0 I I #
point $-1 -27.280518402558918 32.785273796802635 3.0987793738333806 #
point $-1 -32.127732164932198 24.676353920684441 6.9648996372502472 #
straight-curve $-1 -5.8620302926041186 32.785273796802635 55.066288055929206 0 0 -1 I I #
point $-1 -5.8620302926041186 32.785273796802635 15.939684432572509 #
straight-curve $-1 -5.3546220274886984 32.785273796802642 3.09877937383337 -1 0 0 I I #
point $-1 -5.8620302926041186 32.785273796802635 3.0987793738333806 #
point $-1 -10.709244054977397 24.676353920684441 6.9648996372502472 #
straight-curve $-1 15.556457817350683 32.785273796802635 55.066288055929206 0 0 -1 I I #
point $-1 15.556457817350683 32.785273796802635 15.939684432572509 #
straight-curve $-1 5.354622027488702 32.785273796802642 3.09877937383337 -1 0 0 I I #
point $-1 15.556457817350683 32.785273796802635 3.0987793738333806 #
point $-1 10.709244054977404 24.676353920684441 6.9648996372502472 #
straight-curve $-1 36.974945927305484 32.785273796802635 55.066288055929206 0 0 -1 I I #
point $-1 36.974945927305484 32.785273796802635 15.939684432572509 #
straight-curve $-1 16.063866082466102 32.785273796802642 3.09877937383337 -1 0 0 I I #
point $-1 36.974945927305484 32.785273796802635 3.0987793738333806 #
point $-1 32.127732164932205 24.676353920684441 6.9648996372502472 #
straight-curve $-1 -16.383155799889867 -32.785273796802635 43.162093535144201 0 0 -1 I I #
point $-1 -16.383155799889867 -32.785273796802635 15.939684432572509 #
straight-curve $-1 -6.0553091270246675 -32.785273796802635 6.4826764624503372 1 0 0 I I #
point $-1 -16.383155799889867 -32.785273796802635 6.4826764624503372 #
point $-1 -12.110618254049328 -24.154332183207199 8.2895148581455107 #
straight-curve $-1 -61.714589275795198 0 -11.664671464481657 0 1 0 I I #
straight-curve $-1 -61.714589275795198 -32.785273796802635 -7.7717147516746241 0 0 -1 I I #
point $-1 -61.714589275795198 -32.785273796802635 -11.664671464481657 #
point $-1 61.714589275795198 32.785273796802635 -11.664671464481657 #
straight-curve $-1 61.714589275795198 32.785273796802635 -7.7717147516746241 0 0 -1 I I #
End-of-ACIS-data 