500 0 21 0           
7 Unknown 11 ACIS 5.0 NT 24 Fri Mar 26 00:50:42 1999 
-1 9.9999999999999995e-007 1e-010 
body $-1 $21 $-1 $22 #
body $-1 $23 $-1 $24 #
body $-1 $25 $-1 $26 #
body $-1 $27 $-1 $28 #
body $-1 $29 $-1 $30 #
body $-1 $31 $-1 $32 #
body $-1 $33 $-1 $34 #
body $-1 $35 $-1 $36 #
body $-1 $37 $-1 $38 #
body $-1 $39 $-1 $40 #
body $-1 $41 $-1 $42 #
body $-1 $43 $-1 $44 #
body $-1 $45 $-1 $46 #
body $-1 $47 $-1 $48 #
body $-1 $49 $-1 $50 #
body $-1 $51 $-1 $52 #
body $-1 $53 $-1 $54 #
body $-1 $55 $-1 $56 #
body $-1 $57 $-1 $58 #
body $-1 $59 $-1 $60 #
body $-1 $61 $-1 $62 #
lump $-1 $-1 $63 $0 #
transform $-1 1 0 0 0 1 0 0 0 1 42.478102969450973 24.410876019634255 6.3357871088772697 1 rotate no_reflect no_shear #
lump $-1 $-1 $64 $1 #
transform $-1 1 0 0 0 1 0 0 0 1 42.478102969450973 24.410876019634255 6.3357871088772697 1 rotate no_reflect no_shear #
lump $-1 $-1 $65 $2 #
transform $-1 1 0 0 0 1 0 0 0 1 42.478102969450973 24.410876019634255 6.3357871088772697 1 rotate no_reflect no_shear #
lump $-1 $-1 $66 $3 #
transform $-1 1 0 0 0 1 0 0 0 1 42.478102969450973 24.410876019634255 6.3357871088772697 1 rotate no_reflect no_shear #
lump $-1 $-1 $67 $4 #
transform $-1 1 0 0 0 1 0 0 0 1 42.478102969450973 24.410876019634255 6.3357871088772697 1 rotate no_reflect no_shear #
lump $-1 $-1 $68 $5 #
transform $-1 1 0 0 0 1 0 0 0 1 42.478102969450973 24.410876019634255 6.3357871088772697 1 rotate no_reflect no_shear #
lump $-1 $-1 $69 $6 #
transform $-1 1 0 0 0 1 0 0 0 1 42.478102969450973 24.410876019634255 6.3357871088772697 1 rotate no_reflect no_shear #
lump $-1 $-1 $70 $7 #
transform $-1 1 0 0 0 1 0 0 0 1 42.478102969450973 24.410876019634255 6.3357871088772697 1 rotate no_reflect no_shear #
lump $-1 $-1 $71 $8 #
transform $-1 1 0 0 0 1 0 0 0 1 42.478102969450973 24.410876019634255 6.3357871088772697 1 rotate no_reflect no_shear #
lump $-1 $-1 $72 $9 #
transform $-1 1 0 0 0 1 0 0 0 1 42.478102969450973 24.410876019634255 6.3357871088772697 1 rotate no_reflect no_shear #
lump $-1 $-1 $73 $10 #
transform $-1 1 0 0 0 1 0 0 0 1 42.478102969450973 24.410876019634255 6.3357871088772697 1 rotate no_reflect no_shear #
lump $-1 $-1 $74 $11 #
transform $-1 1 0 0 0 1 0 0 0 1 42.478102969450973 24.410876019634255 6.3357871088772697 1 rotate no_reflect no_shear #
lump $-1 $-1 $75 $12 #
transform $-1 1 0 0 0 1 0 0 0 1 42.478102969450973 24.410876019634255 6.3357871088772697 1 rotate no_reflect no_shear #
lump $-1 $-1 $76 $13 #
transform $-1 1 0 0 0 1 0 0 0 1 42.478102969450973 24.410876019634255 6.3357871088772697 1 rotate no_reflect no_shear #
lump $-1 $-1 $77 $14 #
transform $-1 1 0 0 0 1 0 0 0 1 42.478102969450973 24.410876019634255 6.3357871088772697 1 rotate no_reflect no_shear #
lump $-1 $-1 $78 $15 #
transform $-1 1 0 0 0 1 0 0 0 1 42.478102969450973 24.410876019634255 6.3357871088772697 1 rotate no_reflect no_shear #
lump $-1 $-1 $79 $16 #
transform $-1 1 0 0 0 1 0 0 0 1 42.478102969450973 24.410876019634255 6.3357871088772697 1 rotate no_reflect no_shear #
lump $-1 $-1 $80 $17 #
transform $-1 1 0 0 0 1 0 0 0 1 42.478102969450973 24.410876019634255 6.3357871088772697 1 rotate no_reflect no_shear #
lump $-1 $-1 $81 $18 #
transform $-1 1 0 0 0 1 0 0 0 1 42.478102969450973 24.410876019634255 6.3357871088772697 1 rotate no_reflect no_shear #
lump $-1 $-1 $82 $19 #
transform $-1 1 0 0 0 1 0 0 0 1 42.478102969450973 24.410876019634255 6.3357871088772697 1 rotate no_reflect no_shear #
lump $-1 $-1 $83 $20 #
transform $-1 1 0 0 0 1 0 0 0 1 42.478102969450973 24.410876019634255 6.3357871088772697 1 rotate no_reflect no_shear #
shell $-1 $-1 $-1 $84 $-1 $21 #
shell $-1 $-1 $-1 $85 $-1 $23 #
shell $-1 $-1 $-1 $86 $-1 $25 #
shell $-1 $-1 $-1 $87 $-1 $27 #
shell $-1 $-1 $-1 $88 $-1 $29 #
shell $-1 $-1 $-1 $89 $-1 $31 #
shell $-1 $-1 $-1 $90 $-1 $33 #
shell $-1 $-1 $-1 $91 $-1 $35 #
shell $-1 $-1 $-1 $92 $-1 $37 #
shell $-1 $-1 $-1 $93 $-1 $39 #
shell $-1 $-1 $-1 $94 $-1 $41 #
shell $-1 $-1 $-1 $95 $-1 $43 #
shell $-1 $-1 $-1 $96 $-1 $45 #
shell $-1 $-1 $-1 $97 $-1 $47 #
shell $-1 $-1 $-1 $98 $-1 $49 #
shell $-1 $-1 $-1 $99 $-1 $51 #
shell $-1 $-1 $-1 $100 $-1 $53 #
shell $-1 $-1 $-1 $101 $-1 $55 #
shell $-1 $-1 $-1 $102 $-1 $57 #
shell $-1 $-1 $-1 $103 $-1 $59 #
shell $-1 $-1 $-1 $104 $-1 $61 #
face $-1 $105 $106 $63 $-1 $107 forward single #
face $-1 $108 $109 $64 $-1 $110 forward single #
face $-1 $111 $112 $65 $-1 $113 reversed single #
face $-1 $114 $115 $66 $-1 $116 forward single #
face $-1 $117 $118 $67 $-1 $119 forward single #
face $-1 $120 $121 $68 $-1 $122 reversed single #
face $-1 $123 $124 $69 $-1 $125 forward single #
face $-1 $126 $127 $70 $-1 $128 forward single #
face $-1 $129 $130 $71 $-1 $131 forward single #
face $-1 $132 $133 $72 $-1 $134 reversed single #
face $-1 $135 $136 $73 $-1 $137 forward single #
face $-1 $138 $139 $74 $-1 $140 forward single #
face $-1 $141 $142 $75 $-1 $143 forward single #
face $-1 $144 $145 $76 $-1 $146 reversed single #
face $-1 $147 $148 $77 $-1 $149 forward single #
face $-1 $150 $151 $78 $-1 $152 forward single #
face $-1 $153 $154 $79 $-1 $155 forward single #
face $-1 $156 $157 $80 $-1 $158 reversed single #
face $-1 $159 $160 $81 $-1 $161 forward single #
face $-1 $162 $163 $82 $-1 $164 forward single #
face $-1 $165 $166 $83 $-1 $167 forward single #
face $-1 $168 $169 $63 $-1 $170 reversed single #
loop $-1 $-1 $171 $84 #
plane-surface $-1 0 0 6.3357871088772697 0 0 1 1 0 0 forward_v I I I I #
face $-1 $172 $173 $64 $-1 $174 reversed single #
loop $-1 $-1 $175 $85 #
plane-surface $-1 -39.344855441019256 0 0.88907760958929005 0 0 1 1 0 0 forward_v I I I I #
face $-1 $176 $177 $65 $-1 $178 reversed single #
loop $-1 $-1 $179 $86 #
plane-surface $-1 -11.282373213158635 -88.528139245268406 58.545545862274878 1 0 0 0 0.75470958851134928 -0.65605901945558964 forward_v I I I I #
face $-1 $180 $181 $66 $-1 $182 forward single #
loop $-1 $183 $184 $87 #
cone-surface $-1 -8.6429955217536261 -22.326958888939224 4.0934288304080857 0 0.75470958851134928 -0.65605901945558964 1 0 0 1 I I 0 1 1 forward I I I I #
face $-1 $185 $186 $67 $-1 $187 forward single #
loop $-1 $188 $189 $88 #
cone-surface $-1 -4.6839289846461156 -22.326958888939224 4.0934288304080857 0 0.75470958851134928 -0.65605901945558964 1 0 0 1 I I 0 1 1 forward I I I I #
face $-1 $190 $191 $68 $-1 $192 reversed single #
loop $-1 $-1 $193 $89 #
plane-surface $-1 -34.166645266730342 36.548013149949924 97.582029597195486 1 0 0 0 -0.6018150307709319 -0.79863550430605224 forward_v I I I I #
face $-1 $194 $195 $69 $-1 $196 forward single #
loop $-1 $197 $198 $90 #
cone-surface $-1 -32.324520263683382 20.139142541712442 2.9442373110098634 0 -0.6018150307709319 -0.79863550430605224 0.5 0 0 1 I I 0 1 0.5 forward I I I I #
face $-1 $199 $200 $70 $-1 $201 forward single #
loop $-1 $202 $203 $91 #
cone-surface $-1 -29.561332759112943 20.139142541712442 2.9442373110098634 0 -0.6018150307709319 -0.79863550430605224 0.5 0 0 1 I I 0 1 0.5 forward I I I I #
face $-1 $204 $205 $71 $-1 $206 forward single #
loop $-1 $207 $208 $92 #
cone-surface $-1 -26.798145254542504 20.139142541712442 2.9442373110098634 0 -0.6018150307709319 -0.79863550430605224 0.5 0 0 1 I I 0 1 0.5 forward I I I I #
face $-1 $209 $210 $72 $-1 $211 reversed single #
loop $-1 $-1 $212 $93 #
plane-surface $-1 -14.494217546220716 36.548013149949924 97.582029597195486 1 0 0 0 -0.6018150307709319 -0.79863550430605224 forward_v I I I I #
face $-1 $213 $214 $73 $-1 $215 forward single #
loop $-1 $216 $217 $94 #
cone-surface $-1 -12.652092543173755 20.139142541712442 2.9442373110098634 0 -0.6018150307709319 -0.79863550430605224 0.5 0 0 1 I I 0 1 0.5 forward I I I I #
face $-1 $218 $219 $74 $-1 $220 forward single #
loop $-1 $221 $222 $95 #
cone-surface $-1 -9.8889050386033119 20.139142541712442 2.9442373110098634 0 -0.6018150307709319 -0.79863550430605224 0.5 0 0 1 I I 0 1 0.5 forward I I I I #
face $-1 $223 $224 $75 $-1 $225 forward single #
loop $-1 $226 $227 $96 #
cone-surface $-1 -7.1257175340328729 20.139142541712442 2.9442373110098634 0 -0.6018150307709319 -0.79863550430605224 0.5 0 0 1 I I 0 1 0.5 forward I I I I #
face $-1 $228 $229 $76 $-1 $230 reversed single #
loop $-1 $-1 $231 $97 #
plane-surface $-1 5.1782101742889086 36.548013149949924 97.582029597195486 1 0 0 0 -0.6018150307709319 -0.79863550430605224 forward_v I I I I #
face $-1 $232 $233 $77 $-1 $234 forward single #
loop $-1 $235 $236 $98 #
cone-surface $-1 7.0203351773358733 20.139142541712442 2.9442373110098634 0 -0.6018150307709319 -0.79863550430605224 0.5 0 0 1 I I 0 1 0.5 forward I I I I #
face $-1 $237 $238 $78 $-1 $239 forward single #
loop $-1 $240 $241 $99 #
cone-surface $-1 9.7835226819063195 20.139142541712442 2.9442373110098634 0 -0.6018150307709319 -0.79863550430605224 0.5 0 0 1 I I 0 1 0.5 forward I I I I #
face $-1 $242 $243 $79 $-1 $244 forward single #
loop $-1 $245 $246 $100 #
cone-surface $-1 12.546710186476759 20.139142541712442 2.9442373110098634 0 -0.6018150307709319 -0.79863550430605224 0.5 0 0 1 I I 0 1 0.5 forward I I I I #
face $-1 $247 $248 $80 $-1 $249 reversed single #
loop $-1 $-1 $250 $101 #
plane-surface $-1 24.850637894798538 36.548013149949924 97.582029597195486 1 0 0 0 -0.6018150307709319 -0.79863550430605224 forward_v I I I I #
face $-1 $251 $252 $81 $-1 $253 forward single #
loop $-1 $254 $255 $102 #
cone-surface $-1 26.692762897845498 20.139142541712442 2.9442373110098634 0 -0.6018150307709319 -0.79863550430605224 0.5 0 0 1 I I 0 1 0.5 forward I I I I #
face $-1 $256 $257 $82 $-1 $258 forward single #
loop $-1 $259 $260 $103 #
cone-surface $-1 29.455950402415951 20.139142541712442 2.9442373110098634 0 -0.6018150307709319 -0.79863550430605224 0.5 0 0 1 I I 0 1 0.5 forward I I I I #
face $-1 $261 $262 $83 $-1 $263 forward single #
loop $-1 $264 $265 $104 #
cone-surface $-1 32.21913790698639 20.139142541712442 2.9442373110098634 0 -0.6018150307709319 -0.79863550430605224 0.5 0 0 1 I I 0 1 0.5 forward I I I I #
face $-1 $266 $267 $63 $-1 $268 reversed single #
loop $-1 $-1 $269 $105 #
plane-surface $-1 0 0 -6.3357871088772697 0 0 1 1 0 0 forward_v I I I I #
coedge $-1 $270 $271 $272 $273 forward $106 $-1 #
face $-1 $274 $275 $64 $-1 $276 reversed single #
loop $-1 $-1 $277 $108 #
plane-surface $-1 -39.344855441019256 0 -2.5733980445342266 0 0 1 1 0 0 forward_v I I I I #
coedge $-1 $278 $279 $280 $281 forward $109 $-1 #
face $-1 $282 $283 $65 $-1 $284 reversed single #
loop $-1 $-1 $285 $111 #
plane-surface $-1 -6.6634622531998744 -24.410876019634273 2.8092606973317231 0 -0.75470958851134928 0.65605901945558964 1 0 0 forward_v I I I I #
coedge $-1 $286 $287 $288 $289 reversed $112 $-1 #
face $-1 $-1 $290 $66 $-1 $291 forward single #
loop $-1 $292 $293 $114 #
cone-surface $-1 -8.6429955217536261 -21.398468244935515 3.2863042479838871 0 0.75470958851134928 -0.65605901945558964 0.5 0 0 1 I I -0.70710678118654746 0.70710678118654746 0.5 forward I I I I #
loop $-1 $-1 $294 $87 #
coedge $-1 $184 $184 $295 $296 reversed $115 $-1 #
face $-1 $-1 $297 $67 $-1 $298 forward single #
loop $-1 $299 $300 $117 #
cone-surface $-1 -4.6839289846461156 -21.398468244935515 3.2863042479838871 0 0.75470958851134928 -0.65605901945558964 0.5 0 0 1 I I -0.70710678118654746 0.70710678118654746 0.5 forward I I I I #
loop $-1 $-1 $301 $88 #
coedge $-1 $189 $189 $302 $303 reversed $118 $-1 #
face $-1 $304 $305 $68 $-1 $306 reversed single #
loop $-1 $-1 $307 $120 #
plane-surface $-1 -29.561332759112943 -14.579908541351976 29.732987223251698 0 0.6018150307709319 0.79863550430605224 1 0 0 forward_v I I I I #
coedge $-1 $308 $309 $310 $311 reversed $121 $-1 #
face $-1 $-1 $312 $69 $-1 $313 forward single #
loop $-1 $314 $315 $123 #
cone-surface $-1 -32.324520263683382 19.687781268634243 2.3452606827803244 0 -0.6018150307709319 -0.79863550430605224 0.25 0 0 1 I I -0.70710678118654746 0.70710678118654746 0.25 forward I I I I #
loop $-1 $-1 $316 $90 #
coedge $-1 $198 $198 $317 $318 reversed $124 $-1 #
face $-1 $-1 $319 $70 $-1 $320 forward single #
loop $-1 $321 $322 $126 #
cone-surface $-1 -29.561332759112943 19.687781268634243 2.3452606827803244 0 -0.6018150307709319 -0.79863550430605224 0.25 0 0 1 I I -0.70710678118654746 0.70710678118654746 0.25 forward I I I I #
loop $-1 $-1 $323 $91 #
coedge $-1 $203 $203 $324 $325 reversed $127 $-1 #
face $-1 $-1 $326 $71 $-1 $327 forward single #
loop $-1 $328 $329 $129 #
cone-surface $-1 -26.798145254542504 19.687781268634243 2.3452606827803244 0 -0.6018150307709319 -0.79863550430605224 0.25 0 0 1 I I -0.70710678118654746 0.70710678118654746 0.25 forward I I I I #
loop $-1 $-1 $330 $92 #
coedge $-1 $208 $208 $331 $332 reversed $130 $-1 #
face $-1 $333 $334 $72 $-1 $335 reversed single #
loop $-1 $-1 $336 $132 #
plane-surface $-1 -9.888905038603319 -14.579908541351976 29.732987223251698 0 0.6018150307709319 0.79863550430605224 1 0 0 forward_v I I I I #
coedge $-1 $337 $338 $339 $340 reversed $133 $-1 #
face $-1 $-1 $341 $73 $-1 $342 forward single #
loop $-1 $343 $344 $135 #
cone-surface $-1 -12.652092543173755 19.687781268634243 2.3452606827803244 0 -0.6018150307709319 -0.79863550430605224 0.25 0 0 1 I I -0.70710678118654746 0.70710678118654746 0.25 forward I I I I #
loop $-1 $-1 $345 $94 #
coedge $-1 $217 $217 $346 $347 reversed $136 $-1 #
face $-1 $-1 $348 $74 $-1 $349 forward single #
loop $-1 $350 $351 $138 #
cone-surface $-1 -9.8889050386033119 19.687781268634243 2.3452606827803244 0 -0.6018150307709319 -0.79863550430605224 0.25 0 0 1 I I -0.70710678118654746 0.70710678118654746 0.25 forward I I I I #
loop $-1 $-1 $352 $95 #
coedge $-1 $222 $222 $353 $354 reversed $139 $-1 #
face $-1 $-1 $355 $75 $-1 $356 forward single #
loop $-1 $357 $358 $141 #
cone-surface $-1 -7.1257175340328729 19.687781268634243 2.3452606827803244 0 -0.6018150307709319 -0.79863550430605224 0.25 0 0 1 I I -0.70710678118654746 0.70710678118654746 0.25 forward I I I I #
loop $-1 $-1 $359 $96 #
coedge $-1 $227 $227 $360 $361 reversed $142 $-1 #
face $-1 $362 $363 $76 $-1 $364 reversed single #
loop $-1 $-1 $365 $144 #
plane-surface $-1 9.7835226819063053 -14.579908541351976 29.732987223251698 0 0.6018150307709319 0.79863550430605224 1 0 0 forward_v I I I I #
coedge $-1 $366 $367 $368 $369 reversed $145 $-1 #
face $-1 $-1 $370 $77 $-1 $371 forward single #
loop $-1 $372 $373 $147 #
cone-surface $-1 7.0203351773358733 19.687781268634243 2.3452606827803244 0 -0.6018150307709319 -0.79863550430605224 0.25 0 0 1 I I -0.70710678118654746 0.70710678118654746 0.25 forward I I I I #
loop $-1 $-1 $374 $98 #
coedge $-1 $236 $236 $375 $376 reversed $148 $-1 #
face $-1 $-1 $377 $78 $-1 $378 forward single #
loop $-1 $379 $380 $150 #
cone-surface $-1 9.7835226819063195 19.687781268634243 2.3452606827803244 0 -0.6018150307709319 -0.79863550430605224 0.25 0 0 1 I I -0.70710678118654746 0.70710678118654746 0.25 forward I I I I #
loop $-1 $-1 $381 $99 #
coedge $-1 $241 $241 $382 $383 reversed $151 $-1 #
face $-1 $-1 $384 $79 $-1 $385 forward single #
loop $-1 $386 $387 $153 #
cone-surface $-1 12.546710186476759 19.687781268634243 2.3452606827803244 0 -0.6018150307709319 -0.79863550430605224 0.25 0 0 1 I I -0.70710678118654746 0.70710678118654746 0.25 forward I I I I #
loop $-1 $-1 $388 $100 #
coedge $-1 $246 $246 $389 $390 reversed $154 $-1 #
face $-1 $391 $392 $80 $-1 $393 reversed single #
loop $-1 $-1 $394 $156 #
plane-surface $-1 29.455950402415937 -14.579908541351976 29.732987223251698 0 0.6018150307709319 0.79863550430605224 1 0 0 forward_v I I I I #
coedge $-1 $395 $396 $397 $398 reversed $157 $-1 #
face $-1 $-1 $399 $81 $-1 $400 forward single #
loop $-1 $401 $402 $159 #
cone-surface $-1 26.692762897845498 19.687781268634243 2.3452606827803244 0 -0.6018150307709319 -0.79863550430605224 0.25 0 0 1 I I -0.70710678118654746 0.70710678118654746 0.25 forward I I I I #
loop $-1 $-1 $403 $102 #
coedge $-1 $255 $255 $404 $405 reversed $160 $-1 #
face $-1 $-1 $406 $82 $-1 $407 forward single #
loop $-1 $408 $409 $162 #
cone-surface $-1 29.455950402415951 19.687781268634243 2.3452606827803244 0 -0.6018150307709319 -0.79863550430605224 0.25 0 0 1 I I -0.70710678118654746 0.70710678118654746 0.25 forward I I I I #
loop $-1 $-1 $410 $103 #
coedge $-1 $260 $260 $411 $412 reversed $163 $-1 #
face $-1 $-1 $413 $83 $-1 $414 forward single #
loop $-1 $415 $416 $165 #
cone-surface $-1 32.21913790698639 19.687781268634243 2.3452606827803244 0 -0.6018150307709319 -0.79863550430605224 0.25 0 0 1 I I -0.70710678118654746 0.70710678118654746 0.25 forward I I I I #
loop $-1 $-1 $417 $104 #
coedge $-1 $265 $265 $418 $419 reversed $166 $-1 #
face $-1 $420 $421 $63 $-1 $422 reversed single #
loop $-1 $-1 $423 $168 #
plane-surface $-1 0 -24.410876019634255 0 0 1 0 0 0 1 forward_v I I I I #
coedge $-1 $424 $425 $426 $427 forward $169 $-1 #
coedge $-1 $428 $171 $429 $430 forward $106 $-1 #
coedge $-1 $171 $428 $431 $432 forward $106 $-1 #
coedge $-1 $433 $434 $171 $273 reversed $435 $-1 #
edge $-1 $436 -24.410876019634255 $437 24.410876019634255 $272 $438 forward 7 unknown #
face $-1 $439 $440 $64 $-1 $441 reversed single #
loop $-1 $-1 $442 $172 #
plane-surface $-1 -36.211607912587539 0 -0.84216021747246828 -1 0 0 0 0 1 forward_v I I I I #
coedge $-1 $443 $444 $445 $446 forward $173 $-1 #
coedge $-1 $447 $175 $448 $449 reversed $109 $-1 #
coedge $-1 $175 $447 $450 $451 reversed $109 $-1 #
coedge $-1 $442 $452 $175 $281 reversed $275 $-1 #
edge $-1 $453 -24.410876019634255 $454 24.410876019634255 $280 $455 forward 7 unknown #
face $-1 $456 $457 $65 $-1 $458 forward single #
loop $-1 $-1 $459 $176 #
plane-surface $-1 -2.0445512932411134 -88.528139245268406 58.545545862274878 -1 0 0 0 -0.75470958851134928 0.65605901945558964 forward_v I I I I #
coedge $-1 $460 $461 $462 $463 reversed $177 $-1 #
coedge $-1 $287 $179 $464 $465 reversed $112 $-1 #
coedge $-1 $179 $286 $460 $466 reversed $112 $-1 #
coedge $-1 $462 $467 $179 $289 forward $468 $-1 #
edge $-1 $469 22.936985822260169 $470 26.463512233805695 $288 $471 forward 7 unknown #
loop $-1 $-1 $295 $180 #
plane-surface $-1 -6.6634622531998744 -24.410876019634273 2.8092606973317231 0 -0.75470958851134928 0.65605901945558964 1 0 0 forward_v I I I I #
loop $-1 $-1 $472 $114 #
coedge $-1 $293 $293 $294 $473 reversed $181 $-1 #
coedge $-1 $294 $294 $293 $473 forward $183 $-1 #
coedge $-1 $295 $295 $184 $296 forward $290 $-1 #
edge $-1 $474 2.2695144874099977e-015 $474 6.2831853071796031 $295 $475 forward 7 unknown #
loop $-1 $-1 $302 $185 #
plane-surface $-1 -6.6634622531998744 -24.410876019634273 2.8092606973317231 0 -0.75470958851134928 0.65605901945558964 1 0 0 forward_v I I I I #
loop $-1 $-1 $476 $117 #
coedge $-1 $300 $300 $301 $477 reversed $186 $-1 #
coedge $-1 $301 $301 $300 $477 forward $188 $-1 #
coedge $-1 $302 $302 $189 $303 forward $297 $-1 #
edge $-1 $478 2.2695144874099977e-015 $478 6.2831853071796031 $302 $479 forward 7 unknown #
face $-1 $480 $481 $68 $-1 $482 reversed single #
loop $-1 $-1 $483 $190 #
plane-surface $-1 -24.956020251495545 36.548013149949924 97.582029597195486 -1 0 0 0 0.6018150307709319 0.79863550430605224 forward_v I I I I #
coedge $-1 $484 $485 $486 $487 reversed $191 $-1 #
coedge $-1 $309 $193 $488 $489 reversed $121 $-1 #
coedge $-1 $193 $308 $484 $490 reversed $121 $-1 #
coedge $-1 $486 $491 $193 $311 forward $492 $-1 #
edge $-1 $493 -6.1368694446592933 $494 1.8047824804134081 $310 $495 forward 7 unknown #
loop $-1 $-1 $317 $194 #
plane-surface $-1 -29.561332759112943 -14.579908541351976 29.732987223251698 0 0.6018150307709319 0.79863550430605224 1 0 0 forward_v I I I I #
loop $-1 $-1 $496 $123 #
coedge $-1 $315 $315 $316 $497 reversed $195 $-1 #
coedge $-1 $316 $316 $315 $497 forward $197 $-1 #
coedge $-1 $317 $317 $198 $318 forward $312 $-1 #
edge $-1 $498 -1.9330127001743356e-015 $498 6.2831853071795987 $317 $499 forward 7 unknown #
loop $-1 $-1 $324 $199 #
plane-surface $-1 -29.561332759112943 -14.579908541351976 29.732987223251698 0 0.6018150307709319 0.79863550430605224 1 0 0 forward_v I I I I #
loop $-1 $-1 $500 $126 #
coedge $-1 $322 $322 $323 $501 reversed $200 $-1 #
coedge $-1 $323 $323 $322 $501 forward $202 $-1 #
coedge $-1 $324 $324 $203 $325 forward $319 $-1 #
edge $-1 $502 -1.9330127001743356e-015 $502 6.2831853071795987 $324 $503 forward 7 unknown #
loop $-1 $-1 $331 $204 #
plane-surface $-1 -29.561332759112943 -14.579908541351976 29.732987223251698 0 0.6018150307709319 0.79863550430605224 1 0 0 forward_v I I I I #
loop $-1 $-1 $504 $129 #
coedge $-1 $329 $329 $330 $505 reversed $205 $-1 #
coedge $-1 $330 $330 $329 $505 forward $207 $-1 #
coedge $-1 $331 $331 $208 $332 forward $326 $-1 #
edge $-1 $506 -1.9330127001743356e-015 $506 6.2831853071795987 $331 $507 forward 7 unknown #
face $-1 $508 $509 $72 $-1 $510 forward single #
loop $-1 $-1 $511 $209 #
plane-surface $-1 -5.2835925309859224 36.548013149949924 97.582029597195486 -1 0 0 0 0.6018150307709319 0.79863550430605224 forward_v I I I I #
coedge $-1 $512 $513 $514 $515 reversed $210 $-1 #
coedge $-1 $338 $212 $516 $517 reversed $133 $-1 #
coedge $-1 $212 $337 $512 $518 reversed $133 $-1 #
coedge $-1 $514 $519 $212 $340 forward $509 $-1 #
edge $-1 $520 -6.1368694446592933 $521 1.8047824804134081 $339 $522 forward 7 unknown #
loop $-1 $-1 $346 $213 #
plane-surface $-1 -9.888905038603319 -14.579908541351976 29.732987223251698 0 0.6018150307709319 0.79863550430605224 1 0 0 forward_v I I I I #
loop $-1 $-1 $523 $135 #
coedge $-1 $344 $344 $345 $524 reversed $214 $-1 #
coedge $-1 $345 $345 $344 $524 forward $216 $-1 #
coedge $-1 $346 $346 $217 $347 forward $341 $-1 #
edge $-1 $525 -1.9330127001743356e-015 $525 6.2831853071795987 $346 $526 forward 7 unknown #
loop $-1 $-1 $353 $218 #
plane-surface $-1 -9.888905038603319 -14.579908541351976 29.732987223251698 0 0.6018150307709319 0.79863550430605224 1 0 0 forward_v I I I I #
loop $-1 $-1 $527 $138 #
coedge $-1 $351 $351 $352 $528 reversed $219 $-1 #
coedge $-1 $352 $352 $351 $528 forward $221 $-1 #
coedge $-1 $353 $353 $222 $354 forward $348 $-1 #
edge $-1 $529 -1.9330127001743356e-015 $529 6.2831853071795987 $353 $530 forward 7 unknown #
loop $-1 $-1 $360 $223 #
plane-surface $-1 -9.888905038603319 -14.579908541351976 29.732987223251698 0 0.6018150307709319 0.79863550430605224 1 0 0 forward_v I I I I #
loop $-1 $-1 $531 $141 #
coedge $-1 $358 $358 $359 $532 reversed $224 $-1 #
coedge $-1 $359 $359 $358 $532 forward $226 $-1 #
coedge $-1 $360 $360 $227 $361 forward $355 $-1 #
edge $-1 $533 -1.9330127001743356e-015 $533 6.2831853071795987 $360 $534 forward 7 unknown #
face $-1 $535 $536 $76 $-1 $537 forward single #
loop $-1 $-1 $538 $228 #
plane-surface $-1 14.388835189523702 36.548013149949924 97.582029597195486 -1 0 0 0 0.6018150307709319 0.79863550430605224 forward_v I I I I #
coedge $-1 $539 $540 $541 $542 reversed $229 $-1 #
coedge $-1 $367 $231 $543 $544 reversed $145 $-1 #
coedge $-1 $231 $366 $539 $545 reversed $145 $-1 #
coedge $-1 $541 $546 $231 $369 forward $536 $-1 #
edge $-1 $547 -6.1368694446592933 $548 1.8047824804134081 $368 $549 forward 7 unknown #
loop $-1 $-1 $375 $232 #
plane-surface $-1 9.7835226819063053 -14.579908541351976 29.732987223251698 0 0.6018150307709319 0.79863550430605224 1 0 0 forward_v I I I I #
loop $-1 $-1 $550 $147 #
coedge $-1 $373 $373 $374 $551 reversed $233 $-1 #
coedge $-1 $374 $374 $373 $551 forward $235 $-1 #
coedge $-1 $375 $375 $236 $376 forward $370 $-1 #
edge $-1 $552 -1.9330127001743356e-015 $552 6.2831853071795987 $375 $553 forward 7 unknown #
loop $-1 $-1 $382 $237 #
plane-surface $-1 9.7835226819063053 -14.579908541351976 29.732987223251698 0 0.6018150307709319 0.79863550430605224 1 0 0 forward_v I I I I #
loop $-1 $-1 $554 $150 #
coedge $-1 $380 $380 $381 $555 reversed $238 $-1 #
coedge $-1 $381 $381 $380 $555 forward $240 $-1 #
coedge $-1 $382 $382 $241 $383 forward $377 $-1 #
edge $-1 $556 -1.9330127001743356e-015 $556 6.2831853071795987 $382 $557 forward 7 unknown #
loop $-1 $-1 $389 $242 #
plane-surface $-1 9.7835226819063053 -14.579908541351976 29.732987223251698 0 0.6018150307709319 0.79863550430605224 1 0 0 forward_v I I I I #
loop $-1 $-1 $558 $153 #
coedge $-1 $387 $387 $388 $559 reversed $243 $-1 #
coedge $-1 $388 $388 $387 $559 forward $245 $-1 #
coedge $-1 $389 $389 $246 $390 forward $384 $-1 #
edge $-1 $560 -1.9330127001743356e-015 $560 6.2831853071795987 $389 $561 forward 7 unknown #
face $-1 $562 $563 $80 $-1 $564 forward single #
loop $-1 $-1 $565 $247 #
plane-surface $-1 34.061262910033335 36.548013149949924 97.582029597195486 -1 0 0 0 0.6018150307709319 0.79863550430605224 forward_v I I I I #
coedge $-1 $566 $567 $568 $569 reversed $248 $-1 #
coedge $-1 $396 $250 $570 $571 reversed $157 $-1 #
coedge $-1 $250 $395 $566 $572 reversed $157 $-1 #
coedge $-1 $568 $573 $250 $398 forward $563 $-1 #
edge $-1 $574 -6.1368694446592933 $575 1.8047824804134081 $397 $576 forward 7 unknown #
loop $-1 $-1 $404 $251 #
plane-surface $-1 29.455950402415937 -14.579908541351976 29.732987223251698 0 0.6018150307709319 0.79863550430605224 1 0 0 forward_v I I I I #
loop $-1 $-1 $577 $159 #
coedge $-1 $402 $402 $403 $578 reversed $252 $-1 #
coedge $-1 $403 $403 $402 $578 forward $254 $-1 #
coedge $-1 $404 $404 $255 $405 forward $399 $-1 #
edge $-1 $579 -1.9330127001743356e-015 $579 6.2831853071795987 $404 $580 forward 7 unknown #
loop $-1 $-1 $411 $256 #
plane-surface $-1 29.455950402415937 -14.579908541351976 29.732987223251698 0 0.6018150307709319 0.79863550430605224 1 0 0 forward_v I I I I #
loop $-1 $-1 $581 $162 #
coedge $-1 $409 $409 $410 $582 reversed $257 $-1 #
coedge $-1 $410 $410 $409 $582 forward $259 $-1 #
coedge $-1 $411 $411 $260 $412 forward $406 $-1 #
edge $-1 $583 -1.9330127001743356e-015 $583 6.2831853071795987 $411 $584 forward 7 unknown #
loop $-1 $-1 $418 $261 #
plane-surface $-1 29.455950402415937 -14.579908541351976 29.732987223251698 0 0.6018150307709319 0.79863550430605224 1 0 0 forward_v I I I I #
loop $-1 $-1 $585 $165 #
coedge $-1 $416 $416 $417 $586 reversed $262 $-1 #
coedge $-1 $417 $417 $416 $586 forward $264 $-1 #
coedge $-1 $418 $418 $265 $419 forward $413 $-1 #
edge $-1 $587 -1.9330127001743356e-015 $587 6.2831853071795987 $418 $588 forward 7 unknown #
face $-1 $589 $590 $63 $-1 $591 reversed single #
loop $-1 $-1 $592 $266 #
plane-surface $-1 -42.478102969450973 0 0 1 0 0 0 0 -1 forward_v I I I I #
coedge $-1 $593 $431 $594 $595 forward $267 $-1 #
coedge $-1 $596 $269 $593 $597 forward $169 $-1 #
coedge $-1 $269 $596 $598 $599 forward $169 $-1 #
coedge $-1 $434 $433 $269 $427 reversed $435 $-1 #
edge $-1 $600 -24.410876019634255 $601 24.410876019634255 $426 $602 forward 7 unknown #
coedge $-1 $271 $270 $603 $604 forward $106 $-1 #
coedge $-1 $605 $606 $270 $430 reversed $590 $-1 #
edge $-1 $437 -42.478102969450973 $607 42.478102969450973 $429 $608 forward 7 unknown #
coedge $-1 $423 $609 $271 $432 reversed $267 $-1 #
edge $-1 $610 -42.478102969450973 $436 42.478102969450973 $431 $611 forward 7 unknown #
coedge $-1 $426 $272 $609 $612 forward $435 $-1 #
coedge $-1 $272 $426 $605 $613 reversed $435 $-1 #
loop $-1 $-1 $433 $589 #
vertex $-1 $273 $614 #
vertex $-1 $273 $615 #
straight-curve $-1 42.478102969450973 0 6.3357871088772697 0 1 0 I I #
face $-1 $616 $617 $64 $-1 $618 reversed single #
loop $-1 $-1 $619 $274 #
plane-surface $-1 0 -24.410876019634255 0 0 1 0 0 0 1 forward_v I I I I #
coedge $-1 $445 $280 $620 $621 reversed $275 $-1 #
coedge $-1 $622 $277 $619 $623 reversed $173 $-1 #
coedge $-1 $277 $622 $624 $625 reversed $173 $-1 #
coedge $-1 $452 $442 $277 $446 reversed $275 $-1 #
edge $-1 $626 -24.410876019634255 $627 24.410876019634255 $445 $628 forward 7 unknown #
coedge $-1 $279 $278 $629 $630 reversed $109 $-1 #
coedge $-1 $631 $632 $278 $449 forward $633 $-1 #
edge $-1 $634 -22.805675248941345 $454 -16.539180192077911 $448 $635 forward 7 unknown #
coedge $-1 $636 $620 $279 $451 forward $440 $-1 #
edge $-1 $453 16.539180192077911 $637 22.805675248941345 $450 $638 forward 7 unknown #
coedge $-1 $280 $445 $631 $639 reversed $275 $-1 #
vertex $-1 $451 $640 #
vertex $-1 $449 $641 #
straight-curve $-1 -36.211607912587539 0 0.88907760958929005 0 1 0 I I #
face $-1 $-1 $468 $65 $-1 $642 reversed single #
loop $-1 $-1 $643 $282 #
plane-surface $-1 0 0 6.3357871088772697 0 0 1 1 0 0 forward_v I I I I #
coedge $-1 $644 $645 $646 $647 reversed $283 $-1 #
coedge $-1 $648 $285 $287 $466 forward $177 $-1 #
coedge $-1 $285 $648 $644 $649 forward $177 $-1 #
coedge $-1 $646 $288 $285 $463 forward $468 $-1 #
edge $-1 $470 -7.9506420865586982 $650 1.2871798333588238 $462 $651 forward 7 unknown #
coedge $-1 $652 $653 $286 $465 forward $457 $-1 #
edge $-1 $654 -22.918756164893921 $469 -19.853193602999948 $464 $655 forward 7 unknown #
edge $-1 $470 2.7071234964702059e-014 $654 4.672693265367883 $287 $656 forward 7 unknown #
coedge $-1 $288 $646 $652 $657 reversed $468 $-1 #
loop $-1 $-1 $646 $456 #
vertex $-1 $657 $658 #
vertex $-1 $289 $659 #
straight-curve $-1 -11.282373213158635 -24.410876019634252 29.272772931137439 0 0 -1 I I #
coedge $-1 $472 $472 $-1 $660 reversed $292 $-1 #
edge $-1 $661 0 $661 6.2831853071796004 $293 $662 forward 7 unknown #
vertex $-1 $296 $663 #
ellipse-curve $-1 -8.6429955217536261 -22.878094738687274 4.5725239031045026 0 -0.75470958851134928 0.65605901945558964 1 0 0 1 I I #
coedge $-1 $476 $476 $-1 $664 reversed $299 $-1 #
edge $-1 $665 0 $665 6.2831853071796004 $300 $666 forward 7 unknown #
vertex $-1 $303 $667 #
ellipse-curve $-1 -4.6839289846461156 -22.878094738687274 4.5725239031045026 0 -0.75470958851134928 0.65605901945558964 1 0 0 1 I I #
face $-1 $-1 $492 $68 $-1 $668 forward single #
loop $-1 $-1 $669 $304 #
plane-surface $-1 0 24.410876019634255 0 0 -1 0 0 0 -1 forward_v I I I I #
coedge $-1 $670 $671 $672 $673 reversed $305 $-1 #
coedge $-1 $674 $307 $309 $490 forward $191 $-1 #
coedge $-1 $307 $674 $670 $675 forward $191 $-1 #
coedge $-1 $672 $310 $307 $487 forward $492 $-1 #
edge $-1 $494 -19.38597888717387 $676 -10.175353871939073 $486 $677 forward 7 unknown #
coedge $-1 $678 $679 $308 $489 forward $481 $-1 #
edge $-1 $680 -48.439691781149222 $493 -42.455227689720473 $488 $681 forward 7 unknown #
edge $-1 $494 38.877726407734208 $680 48.821752039268503 $309 $682 forward 7 unknown #
coedge $-1 $310 $672 $678 $683 forward $492 $-1 #
loop $-1 $-1 $672 $480 #
vertex $-1 $489 $684 #
vertex $-1 $311 $685 #
straight-curve $-1 -34.166645266730342 18.274006574974962 6.3357871088772697 0 -1 0 I I #
coedge $-1 $496 $496 $-1 $686 reversed $314 $-1 #
edge $-1 $687 0 $687 6.2831853071796004 $315 $688 forward 7 unknown #
vertex $-1 $318 $689 #
ellipse-curve $-1 -32.324520263683382 20.44005005709791 3.3435550631628925 0 0.6018150307709319 0.79863550430605224 0.5 0 0 1 I I #
coedge $-1 $500 $500 $-1 $690 reversed $321 $-1 #
edge $-1 $691 0 $691 6.2831853071796004 $322 $692 forward 7 unknown #
vertex $-1 $325 $693 #
ellipse-curve $-1 -29.561332759112943 20.44005005709791 3.3435550631628925 0 0.6018150307709319 0.79863550430605224 0.5 0 0 1 I I #
coedge $-1 $504 $504 $-1 $694 reversed $328 $-1 #
edge $-1 $695 0 $695 6.2831853071796004 $329 $696 forward 7 unknown #
vertex $-1 $332 $697 #
ellipse-curve $-1 -26.798145254542504 20.44005005709791 3.3435550631628925 0 0.6018150307709319 0.79863550430605224 0.5 0 0 1 I I #
face $-1 $-1 $698 $72 $-1 $699 reversed single #
loop $-1 $-1 $339 $333 #
plane-surface $-1 0 0 6.3357871088772697 0 0 1 1 0 0 forward_v I I I I #
coedge $-1 $700 $701 $702 $703 reversed $334 $-1 #
coedge $-1 $704 $336 $338 $518 forward $210 $-1 #
coedge $-1 $336 $704 $700 $705 forward $210 $-1 #
coedge $-1 $702 $339 $336 $515 forward $509 $-1 #
edge $-1 $521 -9.5497650269190562 $706 -0.33914001168426289 $514 $707 forward 7 unknown #
coedge $-1 $708 $709 $337 $517 forward $698 $-1 #
edge $-1 $710 -48.439691781149222 $520 -42.455227689720473 $516 $711 forward 7 unknown #
edge $-1 $521 38.877726407734208 $710 48.821752039268503 $338 $712 forward 7 unknown #
coedge $-1 $339 $702 $708 $713 forward $509 $-1 #
vertex $-1 $340 $714 #
vertex $-1 $340 $715 #
straight-curve $-1 -14.494217546220716 18.274006574974962 6.3357871088772697 0 -1 0 I I #
coedge $-1 $523 $523 $-1 $716 reversed $343 $-1 #
edge $-1 $717 0 $717 6.2831853071796004 $344 $718 forward 7 unknown #
vertex $-1 $347 $719 #
ellipse-curve $-1 -12.652092543173755 20.44005005709791 3.3435550631628925 0 0.6018150307709319 0.79863550430605224 0.5 0 0 1 I I #
coedge $-1 $527 $527 $-1 $720 reversed $350 $-1 #
edge $-1 $721 0 $721 6.2831853071796004 $351 $722 forward 7 unknown #
vertex $-1 $354 $723 #
ellipse-curve $-1 -9.8889050386033119 20.44005005709791 3.3435550631628925 0 0.6018150307709319 0.79863550430605224 0.5 0 0 1 I I #
coedge $-1 $531 $531 $-1 $724 reversed $357 $-1 #
edge $-1 $725 0 $725 6.2831853071796004 $358 $726 forward 7 unknown #
vertex $-1 $361 $727 #
ellipse-curve $-1 -7.1257175340328729 20.44005005709791 3.3435550631628925 0 0.6018150307709319 0.79863550430605224 0.5 0 0 1 I I #
face $-1 $-1 $728 $76 $-1 $729 reversed single #
loop $-1 $-1 $368 $362 #
plane-surface $-1 0 0 6.3357871088772697 0 0 1 1 0 0 forward_v I I I I #
coedge $-1 $730 $731 $732 $733 reversed $363 $-1 #
coedge $-1 $734 $365 $367 $545 forward $229 $-1 #
coedge $-1 $365 $734 $730 $735 forward $229 $-1 #
coedge $-1 $732 $368 $365 $542 forward $536 $-1 #
edge $-1 $548 0.28644883333575599 $736 9.4970738485705493 $541 $737 forward 7 unknown #
coedge $-1 $738 $739 $366 $544 forward $728 $-1 #
edge $-1 $740 -48.439691781149222 $547 -42.455227689720473 $543 $741 forward 7 unknown #
edge $-1 $548 38.877726407734208 $740 48.821752039268503 $367 $742 forward 7 unknown #
coedge $-1 $368 $732 $738 $743 forward $536 $-1 #
vertex $-1 $369 $744 #
vertex $-1 $369 $745 #
straight-curve $-1 5.1782101742889086 18.274006574974962 6.3357871088772697 0 -1 0 I I #
coedge $-1 $550 $550 $-1 $746 reversed $372 $-1 #
edge $-1 $747 0 $747 6.2831853071796004 $373 $748 forward 7 unknown #
vertex $-1 $376 $749 #
ellipse-curve $-1 7.0203351773358733 20.44005005709791 3.3435550631628925 0 0.6018150307709319 0.79863550430605224 0.5 0 0 1 I I #
coedge $-1 $554 $554 $-1 $750 reversed $379 $-1 #
edge $-1 $751 0 $751 6.2831853071796004 $380 $752 forward 7 unknown #
vertex $-1 $383 $753 #
ellipse-curve $-1 9.7835226819063195 20.44005005709791 3.3435550631628925 0 0.6018150307709319 0.79863550430605224 0.5 0 0 1 I I #
coedge $-1 $558 $558 $-1 $754 reversed $386 $-1 #
edge $-1 $755 0 $755 6.2831853071796004 $387 $756 forward 7 unknown #
vertex $-1 $390 $757 #
ellipse-curve $-1 12.546710186476759 20.44005005709791 3.3435550631628925 0 0.6018150307709319 0.79863550430605224 0.5 0 0 1 I I #
face $-1 $-1 $758 $80 $-1 $759 reversed single #
loop $-1 $-1 $397 $391 #
plane-surface $-1 0 0 6.3357871088772697 0 0 1 1 0 0 forward_v I I I I #
coedge $-1 $760 $761 $762 $763 reversed $392 $-1 #
coedge $-1 $764 $394 $396 $572 forward $248 $-1 #
coedge $-1 $394 $764 $760 $765 forward $248 $-1 #
coedge $-1 $762 $397 $394 $569 forward $563 $-1 #
edge $-1 $575 10.12266269359057 $766 19.333287708825367 $568 $767 forward 7 unknown #
coedge $-1 $768 $769 $395 $571 forward $758 $-1 #
edge $-1 $770 -48.439691781149222 $574 -42.455227689720473 $570 $771 forward 7 unknown #
edge $-1 $575 38.877726407734208 $770 48.821752039268503 $396 $772 forward 7 unknown #
coedge $-1 $397 $762 $768 $773 forward $563 $-1 #
vertex $-1 $398 $774 #
vertex $-1 $398 $775 #
straight-curve $-1 24.850637894798538 18.274006574974962 6.3357871088772697 0 -1 0 I I #
coedge $-1 $577 $577 $-1 $776 reversed $401 $-1 #
edge $-1 $777 0 $777 6.2831853071796004 $402 $778 forward 7 unknown #
vertex $-1 $405 $779 #
ellipse-curve $-1 26.692762897845498 20.44005005709791 3.3435550631628925 0 0.6018150307709319 0.79863550430605224 0.5 0 0 1 I I #
coedge $-1 $581 $581 $-1 $780 reversed $408 $-1 #
edge $-1 $781 0 $781 6.2831853071796004 $409 $782 forward 7 unknown #
vertex $-1 $412 $783 #
ellipse-curve $-1 29.455950402415951 20.44005005709791 3.3435550631628925 0 0.6018150307709319 0.79863550430605224 0.5 0 0 1 I I #
coedge $-1 $585 $585 $-1 $784 reversed $415 $-1 #
edge $-1 $785 0 $785 6.2831853071796004 $416 $786 forward 7 unknown #
vertex $-1 $419 $787 #
ellipse-curve $-1 32.21913790698639 20.44005005709791 3.3435550631628925 0 0.6018150307709319 0.79863550430605224 0.5 0 0 1 I I #
face $-1 $-1 $435 $63 $-1 $788 reversed single #
loop $-1 $-1 $605 $420 #
plane-surface $-1 0 24.410876019634255 0 0 -1 0 0 0 -1 forward_v I I I I #
coedge $-1 $789 $603 $606 $790 forward $421 $-1 #
coedge $-1 $609 $423 $424 $597 reversed $267 $-1 #
coedge $-1 $603 $789 $423 $595 reversed $421 $-1 #
edge $-1 $610 -6.3357871088772697 $791 6.3357871088772697 $594 $792 forward 7 unknown #
coedge $-1 $425 $424 $789 $793 forward $169 $-1 #
edge $-1 $601 -42.478102969450973 $791 42.478102969450973 $593 $794 forward 7 unknown #
coedge $-1 $606 $605 $425 $599 reversed $590 $-1 #
edge $-1 $795 -42.478102969450973 $600 42.478102969450973 $598 $796 forward 7 unknown #
vertex $-1 $427 $797 #
vertex $-1 $612 $798 #
straight-curve $-1 42.478102969450973 0 -6.3357871088772697 0 -1 0 I I #
coedge $-1 $592 $594 $428 $604 reversed $421 $-1 #
edge $-1 $607 -24.410876019634255 $610 24.410876019634255 $603 $799 forward 7 unknown #
coedge $-1 $598 $429 $434 $613 forward $590 $-1 #
coedge $-1 $429 $598 $592 $790 reversed $590 $-1 #
vertex $-1 $430 $800 #
straight-curve $-1 0 24.410876019634255 6.3357871088772697 -1 0 0 I I #
coedge $-1 $431 $593 $433 $612 reversed $267 $-1 #
vertex $-1 $604 $801 #
straight-curve $-1 0 -24.410876019634255 6.3357871088772697 1 0 0 I I #
edge $-1 $436 -6.3357871088772697 $601 6.3357871088772697 $433 $802 forward 7 unknown #
edge $-1 $437 -6.3357871088772697 $600 6.3357871088772697 $434 $803 forward 7 unknown #
point $-1 42.478102969450973 -24.410876019634255 6.3357871088772697 #
point $-1 42.478102969450973 24.410876019634255 6.3357871088772697 #
face $-1 $-1 $633 $64 $-1 $804 reversed single #
loop $-1 $-1 $805 $439 #
plane-surface $-1 -42.478102969450973 0 0 1 0 0 0 0 -1 forward_v I I I I #
coedge $-1 $620 $636 $443 $623 forward $440 $-1 #
coedge $-1 $450 $619 $442 $621 forward $440 $-1 #
edge $-1 $627 -2.1523179357979925 $453 1.3101577183255242 $620 $806 forward 7 unknown #
coedge $-1 $444 $443 $805 $807 reversed $173 $-1 #
edge $-1 $808 -22.805675248941345 $627 -16.539180192077911 $619 $809 forward 7 unknown #
coedge $-1 $632 $631 $444 $625 forward $633 $-1 #
edge $-1 $626 16.539180192077911 $810 22.805675248941345 $624 $811 forward 7 unknown #
vertex $-1 $625 $812 #
vertex $-1 $623 $813 #
straight-curve $-1 -36.211607912587539 0 -2.5733980445342266 0 -1 0 I I #
coedge $-1 $814 $815 $447 $630 forward $617 $-1 #
edge $-1 $637 -24.410876019634255 $634 24.410876019634255 $629 $816 forward 7 unknown #
coedge $-1 $624 $448 $452 $639 forward $633 $-1 #
coedge $-1 $448 $624 $814 $817 reversed $633 $-1 #
loop $-1 $-1 $624 $616 #
vertex $-1 $817 $818 #
straight-curve $-1 -19.672427720509628 24.410876019634255 0.88907760958929005 1 0 0 I I #
coedge $-1 $619 $450 $815 $819 forward $440 $-1 #
vertex $-1 $819 $820 #
straight-curve $-1 -19.672427720509628 -24.410876019634255 0.88907760958929005 -1 0 0 I I #
edge $-1 $454 -1.3101577183255242 $626 2.1523179357979925 $631 $821 forward 7 unknown #
point $-1 -36.211607912587539 -24.410876019634255 0.88907760958929005 #
point $-1 -36.211607912587539 24.410876019634255 0.88907760958929005 #
plane-surface $-1 0 -24.410876019634255 0 0 1 0 0 0 1 forward_v I I I I #
coedge $-1 $653 $652 $645 $822 forward $457 $-1 #
coedge $-1 $645 $459 $461 $649 reversed $283 $-1 #
coedge $-1 $459 $644 $643 $822 reversed $283 $-1 #
coedge $-1 $467 $462 $459 $647 forward $468 $-1 #
edge $-1 $650 -26.463512233805695 $823 -22.936985822260169 $646 $824 forward 7 unknown #
coedge $-1 $461 $460 $653 $825 reversed $177 $-1 #
edge $-1 $826 -4.672693265367883 $650 -2.7071234964702059e-014 $644 $827 forward 7 unknown #
vertex $-1 $463 $828 #
straight-curve $-1 -3.3317311265999372 -24.410876019634255 2.8092606973317467 1 0 0 I I #
coedge $-1 $643 $464 $467 $657 forward $457 $-1 #
coedge $-1 $464 $643 $648 $825 forward $457 $-1 #
vertex $-1 $465 $829 #
straight-curve $-1 -11.282373213158635 -44.264069622634203 6.3357871088772697 0 -1 0 I I #
straight-curve $-1 -11.282373213158635 -24.410876019634273 2.8092606973317231 0 0.65605901945558964 0.75470958851134928 I I #
edge $-1 $469 -11.282373213158635 $823 -2.0445512932411134 $467 $830 forward 7 unknown #
point $-1 -11.282373213158635 -24.410876019634255 6.3357871088772697 #
point $-1 -11.282373213158635 -24.410876019634255 2.8092606973317436 #
edge $-1 $831 1 $831 0 $472 $-1 forward 7 unknown #
vertex $-1 $473 $832 #
ellipse-curve $-1 -8.6429955217536261 -21.775823039191188 3.6143337577116821 0 -0.75470958851134928 0.65605901945558964 1 0 0 1 I I #
point $-1 -7.6429955217536261 -22.878094738687256 4.5725239031044902 #
edge $-1 $833 1 $833 0 $476 $-1 forward 7 unknown #
vertex $-1 $477 $834 #
ellipse-curve $-1 -4.6839289846461156 -21.775823039191188 3.6143337577116821 0 -0.75470958851134928 0.65605901945558964 1 0 0 1 I I #
point $-1 -3.6839289846461156 -22.878094738687256 4.5725239031044902 #
plane-surface $-1 0 0 6.3357871088772697 0 0 1 1 0 0 forward_v I I I I #
coedge $-1 $679 $678 $671 $835 forward $481 $-1 #
coedge $-1 $671 $483 $485 $675 reversed $305 $-1 #
coedge $-1 $483 $670 $669 $835 reversed $305 $-1 #
coedge $-1 $491 $486 $483 $673 forward $492 $-1 #
edge $-1 $676 -1.8047824804134081 $836 6.1368694446592933 $672 $837 forward 7 unknown #
coedge $-1 $485 $484 $679 $838 reversed $191 $-1 #
edge $-1 $839 -48.821752039268503 $676 -38.877726407734208 $670 $840 forward 7 unknown #
vertex $-1 $487 $841 #
straight-curve $-1 -14.780666379556472 16.46922409456155 6.3357871088772697 1 0 0 I I #
coedge $-1 $669 $488 $491 $683 reversed $481 $-1 #
coedge $-1 $488 $669 $674 $838 forward $481 $-1 #
vertex $-1 $489 $842 #
straight-curve $-1 -34.166645266730342 24.410876019634255 48.791014798597743 0 0 1 I I #
straight-curve $-1 -34.166645266730342 -14.579908541351976 29.732987223251698 0 0.79863550430605224 -0.6018150307709319 I I #
edge $-1 $836 24.956020251495545 $493 34.166645266730342 $678 $843 forward 7 unknown #
point $-1 -34.166645266730342 24.410876019634255 6.3357871088772697 #
point $-1 -34.166645266730342 16.469224094561554 6.3357871088772661 #
edge $-1 $844 1 $844 0 $496 $-1 forward 7 unknown #
vertex $-1 $497 $845 #
ellipse-curve $-1 -32.324520263683382 19.838235026326977 2.5449195588568374 0 0.6018150307709319 0.79863550430605224 0.5 0 0 1 I I #
point $-1 -31.824520263683382 20.440050057097906 3.3435550631628894 #
edge $-1 $846 1 $846 0 $500 $-1 forward 7 unknown #
vertex $-1 $501 $847 #
ellipse-curve $-1 -29.561332759112943 19.838235026326977 2.5449195588568374 0 0.6018150307709319 0.79863550430605224 0.5 0 0 1 I I #
point $-1 -29.061332759112943 20.440050057097906 3.3435550631628894 #
edge $-1 $848 1 $848 0 $504 $-1 forward 7 unknown #
vertex $-1 $505 $849 #
ellipse-curve $-1 -26.798145254542504 19.838235026326977 2.5449195588568374 0 0.6018150307709319 0.79863550430605224 0.5 0 0 1 I I #
point $-1 -26.298145254542504 20.440050057097906 3.3435550631628894 #
loop $-1 $-1 $516 $508 #
plane-surface $-1 0 24.410876019634255 0 0 -1 0 0 0 -1 forward_v I I I I #
coedge $-1 $701 $511 $513 $705 reversed $334 $-1 #
coedge $-1 $511 $700 $850 $851 reversed $334 $-1 #
coedge $-1 $519 $514 $511 $703 forward $509 $-1 #
edge $-1 $706 -1.8047824804134081 $852 6.1368694446592933 $702 $853 forward 7 unknown #
coedge $-1 $513 $512 $709 $854 reversed $210 $-1 #
edge $-1 $855 -48.821752039268503 $706 -38.877726407734208 $700 $856 forward 7 unknown #
vertex $-1 $515 $857 #
straight-curve $-1 -4.9444525193016595 16.46922409456155 6.3357871088772697 1 0 0 I I #
coedge $-1 $850 $516 $519 $713 reversed $698 $-1 #
coedge $-1 $516 $850 $704 $854 forward $698 $-1 #
vertex $-1 $517 $858 #
straight-curve $-1 -14.494217546220716 24.410876019634255 48.791014798597743 0 0 1 I I #
straight-curve $-1 -14.494217546220716 -14.579908541351976 29.732987223251698 0 0.79863550430605224 -0.6018150307709319 I I #
edge $-1 $852 5.2835925309859224 $520 14.494217546220716 $708 $859 forward 7 unknown #
point $-1 -14.494217546220716 24.410876019634255 6.3357871088772697 #
point $-1 -14.494217546220716 16.469224094561554 6.3357871088772661 #
edge $-1 $860 1 $860 0 $523 $-1 forward 7 unknown #
vertex $-1 $524 $861 #
ellipse-curve $-1 -12.652092543173755 19.838235026326977 2.5449195588568374 0 0.6018150307709319 0.79863550430605224 0.5 0 0 1 I I #
point $-1 -12.152092543173755 20.440050057097906 3.3435550631628894 #
edge $-1 $862 1 $862 0 $527 $-1 forward 7 unknown #
vertex $-1 $528 $863 #
ellipse-curve $-1 -9.8889050386033119 19.838235026326977 2.5449195588568374 0 0.6018150307709319 0.79863550430605224 0.5 0 0 1 I I #
point $-1 -9.3889050386033119 20.440050057097906 3.3435550631628894 #
edge $-1 $864 1 $864 0 $531 $-1 forward 7 unknown #
vertex $-1 $532 $865 #
ellipse-curve $-1 -7.1257175340328729 19.838235026326977 2.5449195588568374 0 0.6018150307709319 0.79863550430605224 0.5 0 0 1 I I #
point $-1 -6.6257175340328729 20.440050057097906 3.3435550631628894 #
loop $-1 $-1 $543 $535 #
plane-surface $-1 0 24.410876019634255 0 0 -1 0 0 0 -1 forward_v I I I I #
coedge $-1 $731 $538 $540 $735 reversed $363 $-1 #
coedge $-1 $538 $730 $866 $867 reversed $363 $-1 #
coedge $-1 $546 $541 $538 $733 forward $536 $-1 #
edge $-1 $736 -1.8047824804134081 $868 6.1368694446592933 $732 $869 forward 7 unknown #
coedge $-1 $540 $539 $739 $870 reversed $229 $-1 #
edge $-1 $871 -48.821752039268503 $736 -38.877726407734208 $730 $872 forward 7 unknown #
vertex $-1 $542 $873 #
straight-curve $-1 4.8917613409531526 16.46922409456155 6.3357871088772697 1 0 0 I I #
coedge $-1 $866 $543 $546 $743 reversed $728 $-1 #
coedge $-1 $543 $866 $734 $870 forward $728 $-1 #
vertex $-1 $544 $874 #
straight-curve $-1 5.1782101742889086 24.410876019634255 48.791014798597743 0 0 1 I I #
straight-curve $-1 5.1782101742889086 -14.579908541351976 29.732987223251698 0 0.79863550430605224 -0.6018150307709319 I I #
edge $-1 $868 -14.388835189523702 $547 -5.1782101742889086 $738 $875 forward 7 unknown #
point $-1 5.1782101742889086 24.410876019634255 6.3357871088772697 #
point $-1 5.1782101742889086 16.469224094561554 6.3357871088772661 #
edge $-1 $876 1 $876 0 $550 $-1 forward 7 unknown #
vertex $-1 $551 $877 #
ellipse-curve $-1 7.0203351773358733 19.838235026326977 2.5449195588568374 0 0.6018150307709319 0.79863550430605224 0.5 0 0 1 I I #
point $-1 7.5203351773358733 20.440050057097906 3.3435550631628894 #
edge $-1 $878 1 $878 0 $554 $-1 forward 7 unknown #
vertex $-1 $555 $879 #
ellipse-curve $-1 9.7835226819063195 19.838235026326977 2.5449195588568374 0 0.6018150307709319 0.79863550430605224 0.5 0 0 1 I I #
point $-1 10.283522681906319 20.440050057097906 3.3435550631628894 #
edge $-1 $880 1 $880 0 $558 $-1 forward 7 unknown #
vertex $-1 $559 $881 #
ellipse-curve $-1 12.546710186476759 19.838235026326977 2.5449195588568374 0 0.6018150307709319 0.79863550430605224 0.5 0 0 1 I I #
point $-1 13.046710186476759 20.440050057097906 3.3435550631628894 #
loop $-1 $-1 $570 $562 #
plane-surface $-1 0 24.410876019634255 0 0 -1 0 0 0 -1 forward_v I I I I #
coedge $-1 $761 $565 $567 $765 reversed $392 $-1 #
coedge $-1 $565 $760 $882 $883 reversed $392 $-1 #
coedge $-1 $573 $568 $565 $763 forward $563 $-1 #
edge $-1 $766 -1.8047824804134081 $884 6.1368694446592933 $762 $885 forward 7 unknown #
coedge $-1 $567 $566 $769 $886 reversed $248 $-1 #
edge $-1 $887 -48.821752039268503 $766 -38.877726407734208 $760 $888 forward 7 unknown #
vertex $-1 $569 $889 #
straight-curve $-1 14.727975201207968 16.46922409456155 6.3357871088772697 1 0 0 I I #
coedge $-1 $882 $570 $573 $773 reversed $758 $-1 #
coedge $-1 $570 $882 $764 $886 forward $758 $-1 #
vertex $-1 $571 $890 #
straight-curve $-1 24.850637894798538 24.410876019634255 48.791014798597743 0 0 1 I I #
straight-curve $-1 24.850637894798538 -14.579908541351976 29.732987223251698 0 0.79863550430605224 -0.6018150307709319 I I #
edge $-1 $884 -34.061262910033335 $574 -24.850637894798538 $768 $891 forward 7 unknown #
point $-1 24.850637894798538 24.410876019634255 6.3357871088772697 #
point $-1 24.850637894798538 16.469224094561554 6.3357871088772661 #
edge $-1 $892 1 $892 0 $577 $-1 forward 7 unknown #
vertex $-1 $578 $893 #
ellipse-curve $-1 26.692762897845498 19.838235026326977 2.5449195588568374 0 0.6018150307709319 0.79863550430605224 0.5 0 0 1 I I #
point $-1 27.192762897845498 20.440050057097906 3.3435550631628894 #
edge $-1 $894 1 $894 0 $581 $-1 forward 7 unknown #
vertex $-1 $582 $895 #
ellipse-curve $-1 29.455950402415951 19.838235026326977 2.5449195588568374 0 0.6018150307709319 0.79863550430605224 0.5 0 0 1 I I #
point $-1 29.955950402415951 20.440050057097906 3.3435550631628894 #
edge $-1 $896 1 $896 0 $585 $-1 forward 7 unknown #
vertex $-1 $586 $897 #
ellipse-curve $-1 32.21913790698639 19.838235026326977 2.5449195588568374 0 0.6018150307709319 0.79863550430605224 0.5 0 0 1 I I #
point $-1 32.71913790698639 20.440050057097906 3.3435550631628894 #
plane-surface $-1 42.478102969450973 0 0 -1 0 0 0 0 1 forward_v I I I I #
coedge $-1 $594 $592 $596 $793 reversed $421 $-1 #
edge $-1 $607 -6.3357871088772697 $795 6.3357871088772697 $606 $898 forward 7 unknown #
vertex $-1 $793 $899 #
straight-curve $-1 -42.478102969450973 -24.410876019634255 0 0 0 -1 I I #
edge $-1 $791 -24.410876019634255 $795 24.410876019634255 $789 $900 forward 7 unknown #
straight-curve $-1 0 -24.410876019634255 -6.3357871088772697 -1 0 0 I I #
vertex $-1 $599 $901 #
straight-curve $-1 0 24.410876019634255 -6.3357871088772697 1 0 0 I I #
point $-1 42.478102969450973 24.410876019634255 -6.3357871088772697 #
point $-1 42.478102969450973 -24.410876019634255 -6.3357871088772697 #
straight-curve $-1 -42.478102969450973 0 6.3357871088772697 0 -1 0 I I #
point $-1 -42.478102969450973 24.410876019634255 6.3357871088772697 #
point $-1 -42.478102969450973 -24.410876019634255 6.3357871088772697 #
straight-curve $-1 42.478102969450973 -24.410876019634255 0 0 0 -1 I I #
straight-curve $-1 42.478102969450973 24.410876019634255 0 0 0 -1 I I #
plane-surface $-1 0 24.410876019634255 0 0 -1 0 0 0 -1 forward_v I I I I #
coedge $-1 $815 $814 $622 $807 forward $617 $-1 #
straight-curve $-1 -36.211607912587539 -24.410876019634255 -0.42108010873623414 0 0 1 I I #
edge $-1 $810 -24.410876019634255 $808 24.410876019634255 $805 $902 forward 7 unknown #
vertex $-1 $623 $903 #
straight-curve $-1 -19.672427720509628 -24.410876019634255 -2.5733980445342266 1 0 0 I I #
vertex $-1 $625 $904 #
straight-curve $-1 -19.672427720509628 24.410876019634255 -2.5733980445342266 -1 0 0 I I #
point $-1 -36.211607912587539 24.410876019634255 -2.5733980445342266 #
point $-1 -36.211607912587539 -24.410876019634255 -2.5733980445342266 #
coedge $-1 $805 $629 $632 $817 forward $617 $-1 #
coedge $-1 $629 $805 $636 $819 reversed $617 $-1 #
straight-curve $-1 -42.478102969450973 0 0.88907760958929005 0 1 0 I I #
edge $-1 $634 -0.88907760958929005 $810 2.5733980445342266 $632 $905 forward 7 unknown #
point $-1 -42.478102969450973 24.410876019634255 0.88907760958929005 #
edge $-1 $637 -0.88907760958929005 $808 2.5733980445342266 $815 $906 forward 7 unknown #
point $-1 -42.478102969450973 -24.410876019634255 0.88907760958929005 #
straight-curve $-1 -36.211607912587539 24.410876019634255 -0.42108010873623414 0 0 -1 I I #
edge $-1 $823 19.853193602999948 $826 22.918756164893921 $643 $907 forward 7 unknown #
vertex $-1 $822 $908 #
straight-curve $-1 -2.0445512932411134 -24.410876019634252 29.272772931137439 0 0 1 I I #
edge $-1 $826 -1.2871798333588238 $654 7.9506420865586982 $653 $909 forward 7 unknown #
vertex $-1 $825 $910 #
straight-curve $-1 -2.0445512932411134 -24.410876019634273 2.8092606973317231 0 -0.65605901945558964 -0.75470958851134928 I I #
point $-1 -2.0445512932411134 -24.410876019634255 2.8092606973317436 #
point $-1 -11.282373213158635 -21.345313457740282 6.3357871088772697 #
straight-curve $-1 0 -24.410876019634255 6.3357871088772697 1 0 0 I I #
vertex $-1 $660 $911 #
point $-1 -7.6429955217536261 -21.775823039191188 3.6143337577116821 #
vertex $-1 $664 $912 #
point $-1 -3.6839289846461156 -21.775823039191188 3.6143337577116821 #
edge $-1 $836 42.455227689720473 $839 48.439691781149222 $669 $913 forward 7 unknown #
vertex $-1 $683 $914 #
straight-curve $-1 -24.956020251495545 18.274006574974962 6.3357871088772697 0 1 0 I I #
edge $-1 $839 10.175353871939073 $680 19.38597888717387 $679 $915 forward 7 unknown #
vertex $-1 $838 $916 #
straight-curve $-1 -24.956020251495545 -14.579908541351976 29.732987223251698 0 -0.79863550430605224 0.6018150307709319 I I #
point $-1 -24.956020251495545 16.469224094561554 6.3357871088772661 #
point $-1 -34.166645266730342 24.410876019634252 0.35132301744852157 #
straight-curve $-1 0 24.410876019634255 6.3357871088772697 -1 0 0 I I #
vertex $-1 $686 $917 #
point $-1 -31.824520263683382 19.838235026326977 2.5449195588568374 #
vertex $-1 $690 $918 #
point $-1 -29.061332759112943 19.838235026326977 2.5449195588568374 #
vertex $-1 $694 $919 #
point $-1 -26.298145254542504 19.838235026326977 2.5449195588568374 #
coedge $-1 $709 $708 $701 $851 forward $698 $-1 #
edge $-1 $852 42.455227689720473 $855 48.439691781149222 $850 $920 forward 7 unknown #
vertex $-1 $713 $921 #
straight-curve $-1 -5.2835925309859224 18.274006574974962 6.3357871088772697 0 1 0 I I #
edge $-1 $855 0.33914001168426289 $710 9.5497650269190562 $709 $922 forward 7 unknown #
vertex $-1 $854 $923 #
straight-curve $-1 -5.2835925309859224 -14.579908541351976 29.732987223251698 0 -0.79863550430605224 0.6018150307709319 I I #
point $-1 -5.2835925309859224 16.469224094561554 6.3357871088772661 #
point $-1 -14.494217546220716 24.410876019634252 0.35132301744852157 #
straight-curve $-1 0 24.410876019634255 6.3357871088772697 -1 0 0 I I #
vertex $-1 $716 $924 #
point $-1 -12.152092543173755 19.838235026326977 2.5449195588568374 #
vertex $-1 $720 $925 #
point $-1 -9.3889050386033119 19.838235026326977 2.5449195588568374 #
vertex $-1 $724 $926 #
point $-1 -6.6257175340328729 19.838235026326977 2.5449195588568374 #
coedge $-1 $739 $738 $731 $867 forward $728 $-1 #
edge $-1 $868 42.455227689720473 $871 48.439691781149222 $866 $927 forward 7 unknown #
vertex $-1 $743 $928 #
straight-curve $-1 14.388835189523702 18.274006574974962 6.3357871088772697 0 1 0 I I #
edge $-1 $871 -9.4970738485705493 $740 -0.28644883333575599 $739 $929 forward 7 unknown #
vertex $-1 $870 $930 #
straight-curve $-1 14.388835189523702 -14.579908541351976 29.732987223251698 0 -0.79863550430605224 0.6018150307709319 I I #
point $-1 14.388835189523702 16.469224094561554 6.3357871088772661 #
point $-1 5.1782101742889086 24.410876019634252 0.35132301744852157 #
straight-curve $-1 0 24.410876019634255 6.3357871088772697 -1 0 0 I I #
vertex $-1 $746 $931 #
point $-1 7.5203351773358733 19.838235026326977 2.5449195588568374 #
vertex $-1 $750 $932 #
point $-1 10.283522681906319 19.838235026326977 2.5449195588568374 #
vertex $-1 $754 $933 #
point $-1 13.046710186476759 19.838235026326977 2.5449195588568374 #
coedge $-1 $769 $768 $761 $883 forward $758 $-1 #
edge $-1 $884 42.455227689720473 $887 48.439691781149222 $882 $934 forward 7 unknown #
vertex $-1 $773 $935 #
straight-curve $-1 34.061262910033335 18.274006574974962 6.3357871088772697 0 1 0 I I #
edge $-1 $887 -19.333287708825367 $770 -10.12266269359057 $769 $936 forward 7 unknown #
vertex $-1 $886 $937 #
straight-curve $-1 34.061262910033335 -14.579908541351976 29.732987223251698 0 -0.79863550430605224 0.6018150307709319 I I #
point $-1 34.061262910033335 16.469224094561554 6.3357871088772661 #
point $-1 24.850637894798538 24.410876019634252 0.35132301744852157 #
straight-curve $-1 0 24.410876019634255 6.3357871088772697 -1 0 0 I I #
vertex $-1 $776 $938 #
point $-1 27.192762897845498 19.838235026326977 2.5449195588568374 #
vertex $-1 $780 $939 #
point $-1 29.955950402415951 19.838235026326977 2.5449195588568374 #
vertex $-1 $784 $940 #
point $-1 32.71913790698639 19.838235026326977 2.5449195588568374 #
straight-curve $-1 -42.478102969450973 24.410876019634255 0 0 0 -1 I I #
point $-1 -42.478102969450973 -24.410876019634255 -6.3357871088772697 #
straight-curve $-1 -42.478102969450973 0 -6.3357871088772697 0 1 0 I I #
point $-1 -42.478102969450973 24.410876019634255 -6.3357871088772697 #
straight-curve $-1 -42.478102969450973 0 -2.5733980445342266 0 -1 0 I I #
point $-1 -42.478102969450973 -24.410876019634255 -2.5733980445342266 #
point $-1 -42.478102969450973 24.410876019634255 -2.5733980445342266 #
straight-curve $-1 -42.478102969450973 24.410876019634255 0 0 0 -1 I I #
straight-curve $-1 -42.478102969450973 -24.410876019634255 0 0 0 -1 I I #
straight-curve $-1 -2.0445512932411134 -44.264069622634203 6.3357871088772697 0 1 0 I I #
point $-1 -2.0445512932411134 -24.410876019634255 6.3357871088772697 #
straight-curve $-1 -3.3317311265999372 -21.345313457740282 6.3357871088772688 -1 0 0 I I #
point $-1 -2.0445512932411134 -21.345313457740282 6.3357871088772697 #
point $-1 -8.6429955217536261 -21.021113450679842 2.9582747382560921 #
point $-1 -4.6839289846461156 -21.021113450679842 2.9582747382560921 #
straight-curve $-1 -24.956020251495545 24.410876019634255 48.791014798597743 0 0 -1 I I #
point $-1 -24.956020251495545 24.410876019634255 6.3357871088772697 #
straight-curve $-1 -14.780666379556472 24.410876019634252 0.35132301744852157 -1 0 0 I I #
point $-1 -24.956020251495545 24.410876019634252 0.35132301744852157 #
point $-1 -32.324520263683382 19.537327510941509 2.1456018067038114 #
point $-1 -29.561332759112943 19.537327510941509 2.1456018067038114 #
point $-1 -26.798145254542504 19.537327510941509 2.1456018067038114 #
straight-curve $-1 -5.2835925309859224 24.410876019634255 48.791014798597743 0 0 -1 I I #
point $-1 -5.2835925309859224 24.410876019634255 6.3357871088772697 #
straight-curve $-1 -4.9444525193016595 24.410876019634252 0.35132301744852157 -1 0 0 I I #
point $-1 -5.2835925309859224 24.410876019634252 0.35132301744852157 #
point $-1 -12.652092543173755 19.537327510941509 2.1456018067038114 #
point $-1 -9.8889050386033119 19.537327510941509 2.1456018067038114 #
point $-1 -7.1257175340328729 19.537327510941509 2.1456018067038114 #
straight-curve $-1 14.388835189523702 24.410876019634255 48.791014798597743 0 0 -1 I I #
point $-1 14.388835189523702 24.410876019634255 6.3357871088772697 #
straight-curve $-1 4.8917613409531526 24.410876019634252 0.35132301744852157 -1 0 0 I I #
point $-1 14.388835189523702 24.410876019634252 0.35132301744852157 #
point $-1 7.0203351773358733 19.537327510941509 2.1456018067038114 #
point $-1 9.7835226819063195 19.537327510941509 2.1456018067038114 #
point $-1 12.546710186476759 19.537327510941509 2.1456018067038114 #
straight-curve $-1 34.061262910033335 24.410876019634255 48.791014798597743 0 0 -1 I I #
point $-1 34.061262910033335 24.410876019634255 6.3357871088772697 #
straight-curve $-1 14.727975201207968 24.410876019634252 0.35132301744852157 -1 0 0 I I #
point $-1 34.061262910033335 24.410876019634252 0.35132301744852157 #
point $-1 26.692762897845498 19.537327510941509 2.1456018067038114 #
point $-1 29.455950402415951 19.537327510941509 2.1456018067038114 #
point $-1 32.21913790698639 19.537327510941509 2.1456018067038114 #
End-of-ACIS-data 