500 0 9 0           
7 Unknown 11 ACIS 5.0 NT 24 Fri Mar 26 18:04:38 1999 
-1 9.9999999999999995e-007 1e-010 
body $-1 $9 $-1 $10 #
body $-1 $11 $-1 $12 #
body $-1 $13 $-1 $14 #
body $-1 $15 $-1 $16 #
body $-1 $17 $-1 $18 #
body $-1 $19 $-1 $20 #
body $-1 $21 $-1 $22 #
body $-1 $23 $-1 $24 #
body $-1 $25 $-1 $26 #
lump $-1 $-1 $27 $0 #
transform $-1 1 0 0 0 1 0 0 0 1 63.889889217810605 43.34595660983252 14.926422968445241 1 rotate no_reflect no_shear #
lump $-1 $-1 $28 $1 #
transform $-1 1 0 0 0 1 0 0 0 1 63.889889217810605 43.34595660983252 14.926422968445241 1 rotate no_reflect no_shear #
lump $-1 $-1 $29 $2 #
transform $-1 1 0 0 0 1 0 0 0 1 63.889889217810605 43.34595660983252 14.926422968445241 1 rotate no_reflect no_shear #
lump $-1 $-1 $30 $3 #
transform $-1 1 0 0 0 1 0 0 0 1 63.889889217810605 43.34595660983252 14.926422968445241 1 rotate no_reflect no_shear #
lump $-1 $-1 $31 $4 #
transform $-1 1 0 0 0 1 0 0 0 1 63.889889217810605 43.34595660983252 14.926422968445241 1 rotate no_reflect no_shear #
lump $-1 $-1 $32 $5 #
transform $-1 1 0 0 0 1 0 0 0 1 63.889889217810605 43.34595660983252 14.926422968445241 1 rotate no_reflect no_shear #
lump $-1 $-1 $33 $6 #
transform $-1 1 0 0 0 1 0 0 0 1 63.889889217810605 43.34595660983252 14.926422968445241 1 rotate no_reflect no_shear #
lump $-1 $-1 $34 $7 #
transform $-1 1 0 0 0 1 0 0 0 1 63.889889217810605 43.34595660983252 14.926422968445241 1 rotate no_reflect no_shear #
lump $-1 $-1 $35 $8 #
transform $-1 1 0 0 0 1 0 0 0 1 63.889889217810605 43.34595660983252 14.926422968445241 1 rotate no_reflect no_shear #
shell $-1 $-1 $-1 $36 $-1 $9 #
shell $-1 $-1 $-1 $37 $-1 $11 #
shell $-1 $-1 $-1 $38 $-1 $13 #
shell $-1 $-1 $-1 $39 $-1 $15 #
shell $-1 $-1 $-1 $40 $-1 $17 #
shell $-1 $-1 $-1 $41 $-1 $19 #
shell $-1 $-1 $-1 $42 $-1 $21 #
shell $-1 $-1 $-1 $43 $-1 $23 #
shell $-1 $-1 $-1 $44 $-1 $25 #
face $-1 $45 $46 $27 $-1 $47 forward single #
face $-1 $48 $49 $28 $-1 $50 reversed single #
face $-1 $51 $52 $29 $-1 $53 reversed single #
face $-1 $54 $55 $30 $-1 $56 forward single #
face $-1 $57 $58 $31 $-1 $59 forward single #
face $-1 $60 $61 $32 $-1 $62 forward single #
face $-1 $63 $64 $33 $-1 $65 reversed single #
face $-1 $66 $67 $34 $-1 $68 forward single #
face $-1 $69 $70 $35 $-1 $71 forward single #
face $-1 $72 $73 $27 $-1 $74 reversed single #
loop $-1 $-1 $75 $36 #
plane-surface $-1 0 0 14.926422968445241 0 0 1 1 0 0 forward_v I I I I #
face $-1 $76 $77 $28 $-1 $78 reversed single #
loop $-1 $-1 $79 $37 #
plane-surface $-1 -55.461883351251529 -20.764770875136051 0 0 1 0 0 0 1 forward_v I I I I #
face $-1 $80 $81 $29 $-1 $82 reversed single #
loop $-1 $-1 $83 $38 #
plane-surface $-1 8.2331546172021497 -132.10925031830615 102.86622495701472 -1 0 0 0 -0.69465837861970381 0.71933979245794832 forward_v I I I I #
face $-1 $84 $85 $30 $-1 $86 forward single #
loop $-1 $87 $88 $39 #
cone-surface $-1 -16.809679040434283 -40.166657704399441 11.777986927898734 0 0.69465837861970381 -0.71933979245794832 1 0 0 1 I I 0 1 1 forward I I I I #
face $-1 $89 $90 $31 $-1 $91 forward single #
loop $-1 $92 $93 $40 #
cone-surface $-1 -7.4186164188206192 -40.166657704399441 11.777986927898734 0 0.69465837861970381 -0.71933979245794832 1 0 0 1 I I 0 1 1 forward I I I I #
face $-1 $94 $95 $32 $-1 $96 forward single #
loop $-1 $97 $98 $41 #
cone-surface $-1 1.9724462027930372 -40.166657704399441 11.777986927898734 0 0.69465837861970381 -0.71933979245794832 1 0 0 1 I I 0 1 1 forward I I I I #
face $-1 $99 $100 $33 $-1 $101 reversed single #
loop $-1 $-1 $102 $42 #
plane-surface $-1 -47.033877484692461 75.041775540275836 155.30960336187115 1 0 0 0 -0.71933980857756763 -0.69465836192734942 forward_v I I I I #
face $-1 $103 $104 $34 $-1 $105 forward single #
loop $-1 $106 $107 $43 #
cone-surface $-1 -38.767634251099928 36.415792759495162 7.871825187993859 0 -0.71933980857756763 -0.69465836192734942 2.5 0 0 1 I I 0 1 2.5 forward I I I I #
face $-1 $108 $109 $35 $-1 $110 forward single #
loop $-1 $111 $112 $44 #
cone-surface $-1 -26.368269400711135 36.415792759495162 7.871825187993859 0 -0.71933980857756763 -0.69465836192734942 2.5 0 0 1 I I 0 1 2.5 forward I I I I #
face $-1 $113 $114 $27 $-1 $115 reversed single #
loop $-1 $-1 $116 $45 #
plane-surface $-1 0 0 -14.926422968445241 0 0 1 1 0 0 forward_v I I I I #
coedge $-1 $117 $118 $119 $120 forward $46 $-1 #
face $-1 $121 $122 $28 $-1 $123 reversed single #
loop $-1 $-1 $124 $48 #
plane-surface $-1 -55.461883351251529 -13.493110672942036 0 0 -1 0 0 0 -1 forward_v I I I I #
coedge $-1 $125 $126 $127 $128 reversed $49 $-1 #
face $-1 $129 $130 $29 $-1 $131 reversed single #
loop $-1 $-1 $132 $51 #
plane-surface $-1 -7.4186164188206192 -43.345956609832527 10.949145656812334 0 -0.69465837861970381 0.71933979245794832 1 0 0 forward_v I I I I #
coedge $-1 $133 $134 $135 $136 reversed $52 $-1 #
face $-1 $-1 $137 $30 $-1 $138 forward single #
loop $-1 $139 $140 $54 #
cone-surface $-1 -16.809679040434283 -38.699325174177446 10.258519646939707 0 0.69465837861970381 -0.71933979245794832 0.5 0 0 1 I I -0.70710678118654746 0.70710678118654746 0.5 forward I I I I #
loop $-1 $-1 $141 $39 #
coedge $-1 $88 $88 $142 $143 reversed $55 $-1 #
face $-1 $-1 $144 $31 $-1 $145 forward single #
loop $-1 $146 $147 $57 #
cone-surface $-1 -7.4186164188206192 -38.699325174177446 10.258519646939707 0 0.69465837861970381 -0.71933979245794832 0.5 0 0 1 I I -0.70710678118654746 0.70710678118654746 0.5 forward I I I I #
loop $-1 $-1 $148 $40 #
coedge $-1 $93 $93 $149 $150 reversed $58 $-1 #
face $-1 $-1 $151 $32 $-1 $152 forward single #
loop $-1 $153 $154 $60 #
cone-surface $-1 1.9724462027930372 -38.699325174177446 10.258519646939707 0 0.69465837861970381 -0.71933979245794832 0.5 0 0 1 I I -0.70710678118654746 0.70710678118654746 0.5 forward I I I I #
loop $-1 $-1 $155 $41 #
coedge $-1 $98 $98 $156 $157 reversed $61 $-1 #
face $-1 $158 $159 $33 $-1 $160 reversed single #
loop $-1 $-1 $161 $63 #
plane-surface $-1 -32.567951825905531 -16.875305819687924 66.546311786342883 0 0.71933980857756763 0.69465836192734942 1 0 0 forward_v I I I I #
coedge $-1 $162 $163 $164 $165 reversed $64 $-1 #
face $-1 $-1 $166 $34 $-1 $167 forward single #
loop $-1 $168 $169 $66 #
cone-surface $-1 -38.767634251099928 33.772712360665331 5.3194321765129295 0 -0.71933980857756763 -0.69465836192734942 1.25 0 0 1 I I -0.70710678118654746 0.70710678118654746 1.25 forward I I I I #
loop $-1 $-1 $170 $43 #
coedge $-1 $107 $107 $171 $172 reversed $67 $-1 #
face $-1 $-1 $173 $35 $-1 $174 forward single #
loop $-1 $175 $176 $69 #
cone-surface $-1 -26.368269400711135 33.772712360665331 5.3194321765129295 0 -0.71933980857756763 -0.69465836192734942 1.25 0 0 1 I I -0.70710678118654746 0.70710678118654746 1.25 forward I I I I #
loop $-1 $-1 $177 $44 #
coedge $-1 $112 $112 $178 $179 reversed $70 $-1 #
face $-1 $180 $181 $27 $-1 $182 reversed single #
loop $-1 $-1 $183 $72 #
plane-surface $-1 0 -43.34595660983252 0 0 1 0 0 0 1 forward_v I I I I #
coedge $-1 $184 $185 $186 $187 forward $73 $-1 #
coedge $-1 $188 $75 $189 $190 forward $46 $-1 #
coedge $-1 $75 $188 $191 $192 forward $46 $-1 #
coedge $-1 $193 $194 $75 $120 reversed $195 $-1 #
edge $-1 $196 -43.34595660983252 $197 43.34595660983252 $119 $198 forward 7 unknown #
face $-1 $199 $200 $28 $-1 $201 reversed single #
loop $-1 $-1 $202 $76 #
plane-surface $-1 -47.033877484692454 -17.128940774039044 0 -1 0 0 0 0 1 forward_v I I I I #
coedge $-1 $203 $204 $205 $206 forward $77 $-1 #
coedge $-1 $207 $79 $208 $209 reversed $49 $-1 #
coedge $-1 $79 $207 $210 $211 reversed $49 $-1 #
coedge $-1 $212 $213 $79 $128 forward $214 $-1 #
edge $-1 $215 -14.926422968445241 $216 14.926422968445241 $127 $217 forward 7 unknown #
face $-1 $218 $219 $29 $-1 $220 reversed single #
loop $-1 $-1 $221 $80 #
plane-surface $-1 -23.070387454843388 -132.10925031830615 102.86622495701472 1 0 0 0 0.69465837861970381 -0.71933979245794832 forward_v I I I I #
coedge $-1 $222 $223 $224 $225 reversed $81 $-1 #
coedge $-1 $134 $83 $226 $227 reversed $52 $-1 #
coedge $-1 $83 $133 $222 $228 reversed $52 $-1 #
coedge $-1 $224 $229 $83 $136 forward $230 $-1 #
edge $-1 $231 22.708668549320556 $232 26.827259678362424 $135 $233 forward 7 unknown #
loop $-1 $-1 $142 $84 #
plane-surface $-1 -7.4186164188206192 -43.345956609832527 10.949145656812334 0 -0.69465837861970381 0.71933979245794832 1 0 0 forward_v I I I I #
loop $-1 $-1 $234 $54 #
coedge $-1 $140 $140 $141 $235 reversed $85 $-1 #
coedge $-1 $141 $141 $140 $235 forward $87 $-1 #
coedge $-1 $142 $142 $88 $143 forward $137 $-1 #
edge $-1 $236 -1.2339611619077996e-015 $236 6.2831853071795996 $142 $237 forward 7 unknown #
loop $-1 $-1 $149 $89 #
plane-surface $-1 -7.4186164188206192 -43.345956609832527 10.949145656812334 0 -0.69465837861970381 0.71933979245794832 1 0 0 forward_v I I I I #
loop $-1 $-1 $238 $57 #
coedge $-1 $147 $147 $148 $239 reversed $90 $-1 #
coedge $-1 $148 $148 $147 $239 forward $92 $-1 #
coedge $-1 $149 $149 $93 $150 forward $144 $-1 #
edge $-1 $240 -1.2339611619077996e-015 $240 6.2831853071795996 $149 $241 forward 7 unknown #
loop $-1 $-1 $156 $94 #
plane-surface $-1 -7.4186164188206192 -43.345956609832527 10.949145656812334 0 -0.69465837861970381 0.71933979245794832 1 0 0 forward_v I I I I #
loop $-1 $-1 $242 $60 #
coedge $-1 $154 $154 $155 $243 reversed $95 $-1 #
coedge $-1 $155 $155 $154 $243 forward $97 $-1 #
coedge $-1 $156 $156 $98 $157 forward $151 $-1 #
edge $-1 $244 -1.2339611619077996e-015 $244 6.2831853071795996 $156 $245 forward 7 unknown #
face $-1 $246 $247 $33 $-1 $248 reversed single #
loop $-1 $-1 $249 $99 #
plane-surface $-1 -18.102026167118602 75.041775540275836 155.30960336187115 -1 0 0 0 0.71933980857756763 0.69465836192734942 forward_v I I I I #
coedge $-1 $250 $251 $252 $253 reversed $100 $-1 #
coedge $-1 $163 $102 $254 $255 reversed $64 $-1 #
coedge $-1 $102 $162 $250 $256 reversed $64 $-1 #
coedge $-1 $252 $257 $102 $165 forward $258 $-1 #
edge $-1 $259 -5.8250688396946018 $260 4.5474475847644058 $164 $261 forward 7 unknown #
loop $-1 $-1 $171 $103 #
plane-surface $-1 -32.567951825905531 -16.875305819687924 66.546311786342883 0 0.71933980857756763 0.69465836192734942 1 0 0 forward_v I I I I #
loop $-1 $-1 $262 $66 #
coedge $-1 $169 $169 $170 $263 reversed $104 $-1 #
coedge $-1 $170 $170 $169 $263 forward $106 $-1 #
coedge $-1 $171 $171 $107 $172 forward $166 $-1 #
edge $-1 $264 -2.1146355926128592e-015 $264 6.2831853071795987 $171 $265 forward 7 unknown #
loop $-1 $-1 $178 $108 #
plane-surface $-1 -32.567951825905531 -16.875305819687924 66.546311786342883 0 0.71933980857756763 0.69465836192734942 1 0 0 forward_v I I I I #
loop $-1 $-1 $266 $69 #
coedge $-1 $176 $176 $177 $267 reversed $109 $-1 #
coedge $-1 $177 $177 $176 $267 forward $111 $-1 #
coedge $-1 $178 $178 $112 $179 forward $173 $-1 #
edge $-1 $268 -2.1146355926128592e-015 $268 6.2831853071795987 $178 $269 forward 7 unknown #
face $-1 $270 $271 $27 $-1 $272 reversed single #
loop $-1 $-1 $273 $113 #
plane-surface $-1 -63.889889217810605 0 0 1 0 0 0 0 -1 forward_v I I I I #
coedge $-1 $274 $191 $275 $276 forward $114 $-1 #
coedge $-1 $277 $116 $274 $278 forward $73 $-1 #
coedge $-1 $116 $277 $279 $280 forward $73 $-1 #
coedge $-1 $194 $193 $116 $187 reversed $195 $-1 #
edge $-1 $281 -43.34595660983252 $282 43.34595660983252 $186 $283 forward 7 unknown #
coedge $-1 $118 $117 $284 $285 forward $46 $-1 #
coedge $-1 $286 $287 $117 $190 reversed $271 $-1 #
edge $-1 $197 -63.889889217810605 $288 63.889889217810605 $189 $289 forward 7 unknown #
coedge $-1 $183 $290 $118 $192 reversed $114 $-1 #
edge $-1 $291 -63.889889217810605 $196 63.889889217810605 $191 $292 forward 7 unknown #
coedge $-1 $186 $119 $290 $293 forward $195 $-1 #
coedge $-1 $119 $186 $286 $294 reversed $195 $-1 #
loop $-1 $-1 $193 $270 #
vertex $-1 $120 $295 #
vertex $-1 $120 $296 #
straight-curve $-1 63.889889217810605 0 14.926422968445241 0 1 0 I I #
face $-1 $297 $298 $28 $-1 $299 forward single #
loop $-1 $-1 $300 $121 #
plane-surface $-1 0 0 -14.926422968445241 0 0 1 1 0 0 forward_v I I I I #
coedge $-1 $301 $302 $207 $303 forward $122 $-1 #
coedge $-1 $304 $124 $300 $305 reversed $77 $-1 #
coedge $-1 $124 $304 $306 $307 reversed $77 $-1 #
coedge $-1 $302 $301 $124 $206 reversed $122 $-1 #
edge $-1 $308 -14.926422968445241 $309 14.926422968445241 $205 $310 forward 7 unknown #
coedge $-1 $126 $125 $202 $303 reversed $49 $-1 #
coedge $-1 $311 $312 $125 $209 forward $200 $-1 #
edge $-1 $313 19.302935809066689 $215 36.158947542184841 $208 $314 forward 7 unknown #
coedge $-1 $315 $316 $126 $211 forward $298 $-1 #
edge $-1 $216 -36.158947542184841 $317 -19.302935809066689 $210 $318 forward 7 unknown #
coedge $-1 $319 $127 $316 $320 reversed $214 $-1 #
coedge $-1 $127 $319 $311 $321 reversed $214 $-1 #
loop $-1 $-1 $319 $297 #
vertex $-1 $321 $322 #
vertex $-1 $128 $323 #
straight-curve $-1 -63.889889217810605 -20.764770875136051 0 0 0 1 I I #
face $-1 $-1 $230 $29 $-1 $324 forward single #
loop $-1 $-1 $325 $129 #
plane-surface $-1 0 -43.34595660983252 0 0 1 0 0 0 1 forward_v I I I I #
coedge $-1 $326 $327 $328 $329 reversed $130 $-1 #
coedge $-1 $330 $132 $134 $228 forward $81 $-1 #
coedge $-1 $132 $330 $326 $331 forward $81 $-1 #
coedge $-1 $328 $135 $132 $225 forward $230 $-1 #
edge $-1 $232 -11.942462826612459 $332 19.361079245433078 $224 $333 forward 7 unknown #
coedge $-1 $334 $335 $133 $227 forward $219 $-1 #
edge $-1 $336 -40.48396682169502 $231 -36.506689510062117 $226 $337 forward 7 unknown #
edge $-1 $232 -5.725515496603979 $336 -1.0047061288372931e-014 $134 $338 forward 7 unknown #
coedge $-1 $135 $328 $334 $339 forward $230 $-1 #
loop $-1 $-1 $328 $218 #
vertex $-1 $227 $340 #
vertex $-1 $136 $341 #
straight-curve $-1 8.2331546172021497 -66.054625159153076 14.926422968445237 0 1 0 I I #
coedge $-1 $234 $234 $-1 $342 reversed $139 $-1 #
edge $-1 $343 0 $343 6.2831853071796004 $140 $344 forward 7 unknown #
vertex $-1 $143 $345 #
ellipse-curve $-1 -16.809679040434283 -41.28666104531159 12.937784312628789 0 -0.69465837861970381 0.71933979245794832 1 0 0 1 I I #
coedge $-1 $238 $238 $-1 $346 reversed $146 $-1 #
edge $-1 $347 0 $347 6.2831853071796004 $147 $348 forward 7 unknown #
vertex $-1 $150 $349 #
ellipse-curve $-1 -7.4186164188206192 -41.28666104531159 12.937784312628789 0 -0.69465837861970381 0.71933979245794832 1 0 0 1 I I #
coedge $-1 $242 $242 $-1 $350 reversed $153 $-1 #
edge $-1 $351 0 $351 6.2831853071796004 $154 $352 forward 7 unknown #
vertex $-1 $157 $353 #
ellipse-curve $-1 1.9724462027930372 -41.28666104531159 12.937784312628789 0 -0.69465837861970381 0.71933979245794832 1 0 0 1 I I #
face $-1 $-1 $258 $33 $-1 $354 forward single #
loop $-1 $-1 $355 $158 #
plane-surface $-1 0 43.34595660983252 0 0 -1 0 0 0 -1 forward_v I I I I #
coedge $-1 $356 $357 $358 $359 reversed $159 $-1 #
coedge $-1 $360 $161 $163 $256 forward $100 $-1 #
coedge $-1 $161 $360 $356 $361 forward $100 $-1 #
coedge $-1 $358 $164 $161 $253 forward $258 $-1 #
edge $-1 $260 -30.749901571739695 $362 -1.8180502541658363 $252 $363 forward 7 unknown #
coedge $-1 $364 $365 $162 $255 forward $247 $-1 #
edge $-1 $366 -73.469434155249644 $259 -62.72837871249034 $254 $367 forward 7 unknown #
edge $-1 $260 71.760089185070314 $366 86.691913219665039 $163 $368 forward 7 unknown #
coedge $-1 $164 $358 $364 $369 forward $258 $-1 #
loop $-1 $-1 $358 $246 #
vertex $-1 $255 $370 #
vertex $-1 $165 $371 #
straight-curve $-1 -47.033877484692461 37.520887770137918 14.926422968445237 0 -1 0 I I #
coedge $-1 $262 $262 $-1 $372 reversed $168 $-1 #
edge $-1 $373 0 $373 6.2831853071796004 $169 $374 forward 7 unknown #
vertex $-1 $172 $375 #
ellipse-curve $-1 -38.767634251099928 38.159698397603016 9.5558952470655889 0 0.71933980857756763 0.69465836192734942 2.5 0 0 1 I I #
coedge $-1 $266 $266 $-1 $376 reversed $175 $-1 #
edge $-1 $377 0 $377 6.2831853071796004 $176 $378 forward 7 unknown #
vertex $-1 $179 $379 #
ellipse-curve $-1 -26.368269400711135 38.159698397603016 9.5558952470655889 0 0.71933980857756763 0.69465836192734942 2.5 0 0 1 I I #
face $-1 $-1 $195 $27 $-1 $380 reversed single #
loop $-1 $-1 $286 $180 #
plane-surface $-1 0 43.34595660983252 0 0 -1 0 0 0 -1 forward_v I I I I #
coedge $-1 $381 $284 $287 $382 forward $181 $-1 #
coedge $-1 $290 $183 $184 $278 reversed $114 $-1 #
coedge $-1 $284 $381 $183 $276 reversed $181 $-1 #
edge $-1 $291 -14.926422968445241 $383 14.926422968445241 $275 $384 forward 7 unknown #
coedge $-1 $185 $184 $381 $385 forward $73 $-1 #
edge $-1 $282 -63.889889217810605 $383 63.889889217810605 $274 $386 forward 7 unknown #
coedge $-1 $287 $286 $185 $280 reversed $271 $-1 #
edge $-1 $387 -63.889889217810605 $281 63.889889217810605 $279 $388 forward 7 unknown #
vertex $-1 $187 $389 #
vertex $-1 $293 $390 #
straight-curve $-1 63.889889217810605 0 -14.926422968445241 0 -1 0 I I #
coedge $-1 $273 $275 $188 $285 reversed $181 $-1 #
edge $-1 $288 -43.34595660983252 $291 43.34595660983252 $284 $391 forward 7 unknown #
coedge $-1 $279 $189 $194 $294 forward $271 $-1 #
coedge $-1 $189 $279 $273 $382 reversed $271 $-1 #
vertex $-1 $190 $392 #
straight-curve $-1 0 43.34595660983252 14.926422968445241 -1 0 0 I I #
coedge $-1 $191 $274 $193 $293 reversed $114 $-1 #
vertex $-1 $285 $393 #
straight-curve $-1 0 -43.34595660983252 14.926422968445241 1 0 0 I I #
edge $-1 $196 -14.926422968445241 $282 14.926422968445241 $193 $394 forward 7 unknown #
edge $-1 $197 -14.926422968445241 $281 14.926422968445241 $194 $395 forward 7 unknown #
point $-1 63.889889217810605 -43.34595660983252 14.926422968445241 #
point $-1 63.889889217810605 43.34595660983252 14.926422968445241 #
face $-1 $-1 $214 $28 $-1 $396 reversed single #
loop $-1 $-1 $306 $199 #
plane-surface $-1 0 0 14.926422968445241 0 0 1 1 0 0 forward_v I I I I #
coedge $-1 $312 $311 $203 $305 forward $200 $-1 #
coedge $-1 $205 $202 $312 $397 reversed $122 $-1 #
coedge $-1 $202 $205 $315 $398 reversed $122 $-1 #
edge $-1 $317 -14.926422968445241 $313 14.926422968445241 $202 $399 forward 7 unknown #
coedge $-1 $204 $203 $319 $400 reversed $77 $-1 #
edge $-1 $401 -36.158947542184841 $309 -19.302935809066689 $300 $402 forward 7 unknown #
coedge $-1 $316 $315 $204 $307 forward $298 $-1 #
edge $-1 $308 19.302935809066689 $403 36.158947542184841 $306 $404 forward 7 unknown #
vertex $-1 $307 $405 #
vertex $-1 $305 $406 #
straight-curve $-1 -47.033877484692454 -13.493110672942036 0 0 0 -1 I I #
coedge $-1 $300 $208 $213 $321 forward $200 $-1 #
coedge $-1 $208 $300 $301 $397 forward $200 $-1 #
vertex $-1 $209 $407 #
straight-curve $-1 -27.730941675625765 -20.764770875136051 -14.926422968445241 -1 0 0 I I #
coedge $-1 $306 $210 $302 $398 forward $298 $-1 #
coedge $-1 $210 $306 $212 $320 forward $298 $-1 #
vertex $-1 $211 $408 #
straight-curve $-1 -27.730941675625765 -20.764770875136051 14.926422968445241 1 0 0 I I #
coedge $-1 $213 $212 $304 $400 forward $214 $-1 #
edge $-1 $403 13.493110672942036 $216 20.764770875136051 $212 $409 forward 7 unknown #
edge $-1 $215 -20.764770875136051 $401 -13.493110672942036 $213 $410 forward 7 unknown #
point $-1 -63.889889217810605 -20.764770875136051 -14.926422968445241 #
point $-1 -63.889889217810605 -20.764770875136051 14.926422968445241 #
plane-surface $-1 0 0 14.926422968445241 0 0 1 1 0 0 forward_v I I I I #
coedge $-1 $335 $334 $327 $411 forward $219 $-1 #
coedge $-1 $327 $221 $223 $331 reversed $130 $-1 #
coedge $-1 $221 $326 $325 $411 reversed $130 $-1 #
coedge $-1 $229 $224 $221 $329 forward $230 $-1 #
edge $-1 $332 -26.827259678362424 $412 -22.708668549320556 $328 $413 forward 7 unknown #
coedge $-1 $223 $222 $335 $414 reversed $81 $-1 #
edge $-1 $415 1.0047061288372931e-014 $332 5.725515496603979 $326 $416 forward 7 unknown #
vertex $-1 $225 $417 #
straight-curve $-1 -3.7093082094103096 -39.227365480790652 14.926422968445241 -1 0 0 I I #
coedge $-1 $325 $226 $229 $339 reversed $219 $-1 #
coedge $-1 $226 $325 $330 $414 forward $219 $-1 #
vertex $-1 $227 $418 #
straight-curve $-1 8.2331546172021497 -43.34595660983252 51.433112478507361 0 0 1 I I #
straight-curve $-1 8.2331546172021497 -43.345956609832527 10.949145656812334 0 -0.71933979245794832 -0.69465837861970381 I I #
edge $-1 $412 -23.070387454843388 $231 8.2331546172021497 $334 $419 forward 7 unknown #
point $-1 8.2331546172021497 -43.34595660983252 14.926422968445241 #
point $-1 8.2331546172021497 -39.227365480790652 14.926422968445241 #
edge $-1 $420 1 $420 0 $234 $-1 forward 7 unknown #
vertex $-1 $235 $421 #
ellipse-curve $-1 -16.809679040434283 -39.046654363487299 10.618189543168681 0 -0.69465837861970381 0.71933979245794832 1 0 0 1 I I #
point $-1 -15.809679040434283 -41.28666104531159 12.937784312628787 #
edge $-1 $422 1 $422 0 $238 $-1 forward 7 unknown #
vertex $-1 $239 $423 #
ellipse-curve $-1 -7.4186164188206192 -39.046654363487299 10.618189543168681 0 -0.69465837861970381 0.71933979245794832 1 0 0 1 I I #
point $-1 -6.4186164188206192 -41.28666104531159 12.937784312628787 #
edge $-1 $424 1 $424 0 $242 $-1 forward 7 unknown #
vertex $-1 $243 $425 #
ellipse-curve $-1 1.9724462027930372 -39.046654363487299 10.618189543168681 0 -0.69465837861970381 0.71933979245794832 1 0 0 1 I I #
point $-1 2.9724462027930372 -41.28666104531159 12.937784312628787 #
plane-surface $-1 0 0 14.926422968445241 0 0 1 1 0 0 forward_v I I I I #
coedge $-1 $365 $364 $357 $426 forward $247 $-1 #
coedge $-1 $357 $249 $251 $361 reversed $159 $-1 #
coedge $-1 $249 $356 $355 $426 reversed $159 $-1 #
coedge $-1 $257 $252 $249 $359 forward $258 $-1 #
edge $-1 $362 -4.5474475847644058 $427 5.8250688396946018 $358 $428 forward 7 unknown #
coedge $-1 $251 $250 $365 $429 reversed $100 $-1 #
edge $-1 $430 -86.691913219665039 $362 -71.760089185070314 $356 $431 forward 7 unknown #
vertex $-1 $253 $432 #
straight-curve $-1 -16.283975912952766 32.973440185373505 14.926422968445245 1 0 0 I I #
coedge $-1 $355 $254 $257 $369 reversed $247 $-1 #
coedge $-1 $254 $355 $360 $429 forward $247 $-1 #
vertex $-1 $255 $433 #
straight-curve $-1 -47.033877484692461 43.34595660983252 77.654801680935577 0 0 1 I I #
straight-curve $-1 -47.033877484692461 -16.875305819687924 66.546311786342883 0 0.69465836192734942 -0.71933980857756763 I I #
edge $-1 $427 18.102026167118602 $259 47.033877484692461 $364 $434 forward 7 unknown #
point $-1 -47.033877484692461 43.34595660983252 14.926422968445241 #
point $-1 -47.033877484692461 32.973440185373512 14.92642296844523 #
edge $-1 $435 1 $435 0 $262 $-1 forward 7 unknown #
vertex $-1 $263 $436 #
ellipse-curve $-1 -38.767634251099928 34.671887121387293 6.1877551289221167 0 0.71933980857756763 0.69465836192734942 2.5 0 0 1 I I #
point $-1 -36.267634251099928 38.159698397603023 9.5558952470656031 #
edge $-1 $437 1 $437 0 $266 $-1 forward 7 unknown #
vertex $-1 $267 $438 #
ellipse-curve $-1 -26.368269400711135 34.671887121387293 6.1877551289221167 0 0.71933980857756763 0.69465836192734942 2.5 0 0 1 I I #
point $-1 -23.868269400711135 38.159698397603023 9.5558952470656031 #
plane-surface $-1 63.889889217810605 0 0 -1 0 0 0 0 1 forward_v I I I I #
coedge $-1 $275 $273 $277 $385 reversed $181 $-1 #
edge $-1 $288 -14.926422968445241 $387 14.926422968445241 $287 $439 forward 7 unknown #
vertex $-1 $385 $440 #
straight-curve $-1 -63.889889217810605 -43.34595660983252 0 0 0 -1 I I #
edge $-1 $383 -43.34595660983252 $387 43.34595660983252 $381 $441 forward 7 unknown #
straight-curve $-1 0 -43.34595660983252 -14.926422968445241 -1 0 0 I I #
vertex $-1 $280 $442 #
straight-curve $-1 0 43.34595660983252 -14.926422968445241 1 0 0 I I #
point $-1 63.889889217810605 43.34595660983252 -14.926422968445241 #
point $-1 63.889889217810605 -43.34595660983252 -14.926422968445241 #
straight-curve $-1 -63.889889217810605 0 14.926422968445241 0 -1 0 I I #
point $-1 -63.889889217810605 43.34595660983252 14.926422968445241 #
point $-1 -63.889889217810605 -43.34595660983252 14.926422968445241 #
straight-curve $-1 63.889889217810605 -43.34595660983252 0 0 0 -1 I I #
straight-curve $-1 63.889889217810605 43.34595660983252 0 0 0 -1 I I #
plane-surface $-1 -63.889889217810605 0 0 1 0 0 0 0 -1 forward_v I I I I #
edge $-1 $309 4.9286402859225138 $313 12.200300488116529 $312 $443 forward 7 unknown #
edge $-1 $317 -12.200300488116529 $308 -4.9286402859225138 $315 $444 forward 7 unknown #
straight-curve $-1 -47.033877484692454 -20.764770875136051 0 0 0 -1 I I #
edge $-1 $403 -14.926422968445241 $401 14.926422968445241 $319 $445 forward 7 unknown #
vertex $-1 $400 $446 #
straight-curve $-1 -27.730941675625765 -13.493110672942036 -14.926422968445241 1 0 0 I I #
vertex $-1 $320 $447 #
straight-curve $-1 -27.730941675625765 -13.493110672942036 14.926422968445241 -1 0 0 I I #
point $-1 -47.033877484692454 -13.493110672942036 14.926422968445241 #
point $-1 -47.033877484692454 -13.493110672942036 -14.926422968445241 #
point $-1 -47.033877484692454 -20.764770875136051 -14.926422968445241 #
point $-1 -47.033877484692454 -20.764770875136051 14.926422968445241 #
straight-curve $-1 -63.889889217810605 0 14.926422968445241 0 -1 0 I I #
straight-curve $-1 -63.889889217810605 0 -14.926422968445241 0 1 0 I I #
edge $-1 $412 36.506689510062117 $415 40.48396682169502 $325 $448 forward 7 unknown #
vertex $-1 $339 $449 #
straight-curve $-1 -23.070387454843388 -66.054625159153076 14.926422968445237 0 -1 0 I I #
edge $-1 $415 -19.361079245433078 $336 11.942462826612459 $335 $450 forward 7 unknown #
vertex $-1 $414 $451 #
straight-curve $-1 -23.070387454843388 -43.345956609832527 10.949145656812334 0 0.71933979245794832 0.69465837861970381 I I #
point $-1 -23.070387454843388 -39.227365480790652 14.926422968445241 #
point $-1 8.2331546172021497 -43.34595660983252 10.949145656812341 #
straight-curve $-1 0 -43.34595660983252 14.926422968445241 1 0 0 I I #
vertex $-1 $342 $452 #
point $-1 -15.809679040434283 -39.046654363487299 10.618189543168681 #
vertex $-1 $346 $453 #
point $-1 -6.4186164188206192 -39.046654363487299 10.618189543168681 #
vertex $-1 $350 $454 #
point $-1 2.9724462027930372 -39.046654363487299 10.618189543168681 #
edge $-1 $427 62.72837871249034 $430 73.469434155249644 $355 $455 forward 7 unknown #
vertex $-1 $369 $456 #
straight-curve $-1 -18.102026167118602 37.520887770137918 14.926422968445237 0 1 0 I I #
edge $-1 $430 1.8180502541658363 $366 30.749901571739695 $365 $457 forward 7 unknown #
vertex $-1 $429 $458 #
straight-curve $-1 -18.102026167118602 -16.875305819687924 66.546311786342883 0 -0.69465836192734942 0.71933980857756763 I I #
point $-1 -18.102026167118602 32.973440185373512 14.92642296844523 #
point $-1 -47.033877484692461 43.34595660983252 4.1853675256859262 #
straight-curve $-1 0 43.34595660983252 14.926422968445241 -1 0 0 I I #
vertex $-1 $372 $459 #
point $-1 -36.267634251099928 34.671887121387293 6.1877551289221167 #
vertex $-1 $376 $460 #
point $-1 -23.868269400711135 34.671887121387293 6.1877551289221167 #
straight-curve $-1 -63.889889217810605 43.34595660983252 0 0 0 -1 I I #
point $-1 -63.889889217810605 -43.34595660983252 -14.926422968445241 #
straight-curve $-1 -63.889889217810605 0 -14.926422968445241 0 1 0 I I #
point $-1 -63.889889217810605 43.34595660983252 -14.926422968445241 #
straight-curve $-1 -47.033877484692454 -8.5644703870195222 -14.926422968445241 0 -1 0 I I #
straight-curve $-1 -47.033877484692454 -8.5644703870195222 14.926422968445241 0 1 0 I I #
straight-curve $-1 -63.889889217810605 -13.493110672942036 0 0 0 -1 I I #
point $-1 -63.889889217810605 -13.493110672942036 -14.926422968445241 #
point $-1 -63.889889217810605 -13.493110672942036 14.926422968445241 #
straight-curve $-1 -23.070387454843388 -43.34595660983252 51.433112478507361 0 0 -1 I I #
point $-1 -23.070387454843388 -43.34595660983252 14.926422968445241 #
straight-curve $-1 -3.7093082094103096 -43.34595660983252 10.949145656812345 1 0 0 I I #
point $-1 -23.070387454843388 -43.34595660983252 10.949145656812341 #
point $-1 -16.809679040434283 -38.351995984867592 9.8988497507107329 #
point $-1 -7.4186164188206192 -38.351995984867592 9.8988497507107329 #
point $-1 1.9724462027930372 -38.351995984867592 9.8988497507107329 #
straight-curve $-1 -18.102026167118602 43.34595660983252 77.654801680935577 0 0 -1 I I #
point $-1 -18.102026167118602 43.34595660983252 14.926422968445241 #
straight-curve $-1 -16.283975912952766 43.34595660983252 4.1853675256859333 -1 0 0 I I #
point $-1 -18.102026167118602 43.34595660983252 4.1853675256859262 #
point $-1 -38.767634251099928 32.873537599943369 4.4511092241037424 #
point $-1 -26.368269400711135 32.873537599943369 4.4511092241037424 #
End-of-ACIS-data 