500 0 18 0           
7 Unknown 11 ACIS 5.0 NT 24 Thu Mar 25 23:35:55 1999 
-1 9.9999999999999995e-007 1e-010 
body $-1 $18 $-1 $19 #
body $-1 $20 $-1 $21 #
body $-1 $22 $-1 $23 #
body $-1 $24 $-1 $25 #
body $-1 $26 $-1 $27 #
body $-1 $28 $-1 $29 #
body $-1 $30 $-1 $31 #
body $-1 $32 $-1 $33 #
body $-1 $34 $-1 $35 #
body $-1 $36 $-1 $37 #
body $-1 $38 $-1 $39 #
body $-1 $40 $-1 $41 #
body $-1 $42 $-1 $43 #
body $-1 $44 $-1 $45 #
body $-1 $46 $-1 $47 #
body $-1 $48 $-1 $49 #
body $-1 $50 $-1 $51 #
body $-1 $52 $-1 $53 #
lump $-1 $-1 $54 $0 #
transform $-1 1 0 0 0 1 0 0 0 1 65.836970122379228 40.205217317600649 9.9437574896562833 1 rotate no_reflect no_shear #
lump $-1 $-1 $55 $1 #
transform $-1 1 0 0 0 1 0 0 0 1 65.836970122379228 40.205217317600649 9.9437574896562833 1 rotate no_reflect no_shear #
lump $-1 $-1 $56 $2 #
transform $-1 1 0 0 0 1 0 0 0 1 65.836970122379228 40.205217317600649 9.9437574896562833 1 rotate no_reflect no_shear #
lump $-1 $-1 $57 $3 #
transform $-1 1 0 0 0 1 0 0 0 1 65.836970122379228 40.205217317600649 9.9437574896562833 1 rotate no_reflect no_shear #
lump $-1 $-1 $58 $4 #
transform $-1 1 0 0 0 1 0 0 0 1 65.836970122379228 40.205217317600649 9.9437574896562833 1 rotate no_reflect no_shear #
lump $-1 $-1 $59 $5 #
transform $-1 1 0 0 0 1 0 0 0 1 65.836970122379228 40.205217317600649 9.9437574896562833 1 rotate no_reflect no_shear #
lump $-1 $-1 $60 $6 #
transform $-1 1 0 0 0 1 0 0 0 1 65.836970122379228 40.205217317600649 9.9437574896562833 1 rotate no_reflect no_shear #
lump $-1 $-1 $61 $7 #
transform $-1 1 0 0 0 1 0 0 0 1 65.836970122379228 40.205217317600649 9.9437574896562833 1 rotate no_reflect no_shear #
lump $-1 $-1 $62 $8 #
transform $-1 1 0 0 0 1 0 0 0 1 65.836970122379228 40.205217317600649 9.9437574896562833 1 rotate no_reflect no_shear #
lump $-1 $-1 $63 $9 #
transform $-1 1 0 0 0 1 0 0 0 1 65.836970122379228 40.205217317600649 9.9437574896562833 1 rotate no_reflect no_shear #
lump $-1 $-1 $64 $10 #
transform $-1 1 0 0 0 1 0 0 0 1 65.836970122379228 40.205217317600649 9.9437574896562833 1 rotate no_reflect no_shear #
lump $-1 $-1 $65 $11 #
transform $-1 1 0 0 0 1 0 0 0 1 65.836970122379228 40.205217317600649 9.9437574896562833 1 rotate no_reflect no_shear #
lump $-1 $-1 $66 $12 #
transform $-1 1 0 0 0 1 0 0 0 1 65.836970122379228 40.205217317600649 9.9437574896562833 1 rotate no_reflect no_shear #
lump $-1 $-1 $67 $13 #
transform $-1 1 0 0 0 1 0 0 0 1 65.836970122379228 40.205217317600649 9.9437574896562833 1 rotate no_reflect no_shear #
lump $-1 $-1 $68 $14 #
transform $-1 1 0 0 0 1 0 0 0 1 65.836970122379228 40.205217317600649 9.9437574896562833 1 rotate no_reflect no_shear #
lump $-1 $-1 $69 $15 #
transform $-1 1 0 0 0 1 0 0 0 1 65.836970122379228 40.205217317600649 9.9437574896562833 1 rotate no_reflect no_shear #
lump $-1 $-1 $70 $16 #
transform $-1 1 0 0 0 1 0 0 0 1 65.836970122379228 40.205217317600649 9.9437574896562833 1 rotate no_reflect no_shear #
lump $-1 $-1 $71 $17 #
transform $-1 1 0 0 0 1 0 0 0 1 65.836970122379228 40.205217317600649 9.9437574896562833 1 rotate no_reflect no_shear #
shell $-1 $-1 $-1 $72 $-1 $18 #
shell $-1 $-1 $-1 $73 $-1 $20 #
shell $-1 $-1 $-1 $74 $-1 $22 #
shell $-1 $-1 $-1 $75 $-1 $24 #
shell $-1 $-1 $-1 $76 $-1 $26 #
shell $-1 $-1 $-1 $77 $-1 $28 #
shell $-1 $-1 $-1 $78 $-1 $30 #
shell $-1 $-1 $-1 $79 $-1 $32 #
shell $-1 $-1 $-1 $80 $-1 $34 #
shell $-1 $-1 $-1 $81 $-1 $36 #
shell $-1 $-1 $-1 $82 $-1 $38 #
shell $-1 $-1 $-1 $83 $-1 $40 #
shell $-1 $-1 $-1 $84 $-1 $42 #
shell $-1 $-1 $-1 $85 $-1 $44 #
shell $-1 $-1 $-1 $86 $-1 $46 #
shell $-1 $-1 $-1 $87 $-1 $48 #
shell $-1 $-1 $-1 $88 $-1 $50 #
shell $-1 $-1 $-1 $89 $-1 $52 #
face $-1 $90 $91 $54 $-1 $92 forward single #
face $-1 $93 $94 $55 $-1 $95 reversed single #
face $-1 $96 $97 $56 $-1 $98 reversed single #
face $-1 $99 $100 $57 $-1 $101 forward single #
face $-1 $102 $103 $58 $-1 $104 forward single #
face $-1 $105 $106 $59 $-1 $107 forward single #
face $-1 $108 $109 $60 $-1 $110 reversed single #
face $-1 $111 $112 $61 $-1 $113 forward single #
face $-1 $114 $115 $62 $-1 $116 forward single #
face $-1 $117 $118 $63 $-1 $119 forward single #
face $-1 $120 $121 $64 $-1 $122 reversed single #
face $-1 $123 $124 $65 $-1 $125 forward single #
face $-1 $126 $127 $66 $-1 $128 forward single #
face $-1 $129 $130 $67 $-1 $131 forward single #
face $-1 $132 $133 $68 $-1 $134 reversed single #
face $-1 $135 $136 $69 $-1 $137 forward single #
face $-1 $138 $139 $70 $-1 $140 forward single #
face $-1 $141 $142 $71 $-1 $143 forward single #
face $-1 $144 $145 $54 $-1 $146 reversed single #
loop $-1 $-1 $147 $72 #
plane-surface $-1 0 0 9.9437574896562833 0 0 1 1 0 0 forward_v I I I I #
face $-1 $148 $149 $55 $-1 $150 reversed single #
loop $-1 $-1 $151 $73 #
plane-surface $-1 0 -35.083619276068603 4.1570350534472995 0 0 1 1 0 0 forward_v I I I I #
face $-1 $152 $153 $56 $-1 $154 reversed single #
loop $-1 $-1 $155 $74 #
plane-surface $-1 -179.86994840923666 -20.785481808666823 70.766279646067531 0 -1 0 0.86602541151947299 0 -0.49999998660252726 forward_v I I I I #
face $-1 $156 $157 $57 $-1 $158 forward single #
loop $-1 $159 $160 $75 #
cone-surface $-1 -63.956411536092119 -28.12671334936261 7.1865343954200451 0.86602541151947299 0 -0.49999998660252726 0.24999999330126363 0 0.43301270575973649 1 I I 0 1 0.5 forward I I I I #
face $-1 $161 $162 $58 $-1 $163 forward single #
loop $-1 $164 $165 $76 #
cone-surface $-1 -63.956411536092119 -25.37375152160169 7.1865343954200451 0.86602541151947299 0 -0.49999998660252726 0.24999999330126363 0 0.43301270575973649 1 I I 0 1 0.5 forward I I I I #
face $-1 $166 $167 $59 $-1 $168 forward single #
loop $-1 $169 $170 $77 #
cone-surface $-1 -63.956411536092119 -22.62078969384077 7.1865343954200451 0.86602541151947299 0 -0.49999998660252726 0.24999999330126363 0 0.43301270575973649 1 I I 0 1 0.5 forward I I I I #
face $-1 $171 $172 $60 $-1 $173 reversed single #
loop $-1 $-1 $174 $78 #
plane-surface $-1 -179.86994840923666 31.028677891730922 70.766279646067531 0 1 0 -0.86602541151947299 0 0.49999998660252726 forward_v I I I I #
face $-1 $175 $176 $61 $-1 $177 forward single #
loop $-1 $178 $179 $79 #
cone-surface $-1 -63.956411536092119 32.863985776904862 7.1865343954200451 0.86602541151947299 0 -0.49999998660252726 0.24999999330126363 0 0.43301270575973649 1 I I 0 1 0.5 forward I I I I #
face $-1 $180 $181 $62 $-1 $182 forward single #
loop $-1 $183 $184 $80 #
cone-surface $-1 -63.956411536092119 35.616947604665789 7.1865343954200451 0.86602541151947299 0 -0.49999998660252726 0.24999999330126363 0 0.43301270575973649 1 I I 0 1 0.5 forward I I I I #
face $-1 $185 $186 $63 $-1 $187 forward single #
loop $-1 $188 $189 $81 #
cone-surface $-1 -63.956411536092119 38.369909432426702 7.1865343954200451 0.86602541151947299 0 -0.49999998660252726 0.24999999330126363 0 0.43301270575973649 1 I I 0 1 0.5 forward I I I I #
face $-1 $190 $191 $64 $-1 $192 reversed single #
loop $-1 $-1 $193 $82 #
plane-surface $-1 1.7640980018995833e-006 -25.37375152160169 118.96228957464375 0.86602541151947299 0 0.49999998660252726 0.49999998660252726 0 -0.86602541151947299 forward_v I I I I #
face $-1 $194 $195 $65 $-1 $196 forward single #
loop $-1 $197 $198 $83 #
cone-surface $-1 63.956411536092126 -28.12671334936261 7.1865343954200274 -0.86602541151947299 0 -0.49999998660252726 0.24999999330126363 0 -0.43301270575973649 1 I I 0 1 0.5 forward I I I I #
face $-1 $199 $200 $66 $-1 $201 forward single #
loop $-1 $202 $203 $84 #
cone-surface $-1 63.956411536092126 -25.37375152160169 7.1865343954200274 -0.86602541151947299 0 -0.49999998660252726 0.24999999330126363 0 -0.43301270575973649 1 I I 0 1 0.5 forward I I I I #
face $-1 $204 $205 $67 $-1 $206 forward single #
loop $-1 $207 $208 $85 #
cone-surface $-1 63.956411536092126 -22.62078969384077 7.1865343954200274 -0.86602541151947299 0 -0.49999998660252726 0.24999999330126363 0 -0.43301270575973649 1 I I 0 1 0.5 forward I I I I #
face $-1 $209 $210 $68 $-1 $211 reversed single #
loop $-1 $-1 $212 $86 #
plane-surface $-1 114.03298005095544 31.028677891730922 184.79925793292495 0 1 0 0.86602541151947299 0 0.49999998660252726 forward_v I I I I #
face $-1 $213 $214 $69 $-1 $215 forward single #
loop $-1 $216 $217 $87 #
cone-surface $-1 63.956411536092126 32.863985776904862 7.1865343954200274 -0.86602541151947299 0 -0.49999998660252726 0.24999999330126363 0 -0.43301270575973649 1 I I 0 1 0.5 forward I I I I #
face $-1 $218 $219 $70 $-1 $220 forward single #
loop $-1 $221 $222 $88 #
cone-surface $-1 63.956411536092126 35.616947604665789 7.1865343954200274 -0.86602541151947299 0 -0.49999998660252726 0.24999999330126363 0 -0.43301270575973649 1 I I 0 1 0.5 forward I I I I #
face $-1 $223 $224 $71 $-1 $225 forward single #
loop $-1 $226 $227 $89 #
cone-surface $-1 63.956411536092126 38.369909432426702 7.1865343954200274 -0.86602541151947299 0 -0.49999998660252726 0.24999999330126363 0 -0.43301270575973649 1 I I 0 1 0.5 forward I I I I #
face $-1 $228 $229 $54 $-1 $230 reversed single #
loop $-1 $-1 $231 $90 #
plane-surface $-1 0 0 -9.9437574896562833 0 0 1 1 0 0 forward_v I I I I #
coedge $-1 $232 $233 $234 $235 forward $91 $-1 #
face $-1 $236 $237 $55 $-1 $238 reversed single #
loop $-1 $-1 $239 $93 #
plane-surface $-1 0 -29.962021234536557 7.0503962715517918 0 -1 0 0 0 -1 forward_v I I I I #
coedge $-1 $240 $241 $242 $243 reversed $94 $-1 #
face $-1 $244 $245 $56 $-1 $246 forward single #
loop $-1 $-1 $247 $96 #
plane-surface $-1 -65.836970122379213 -25.37375152160169 4.9293112877863337 -0.86602541151947299 0 0.49999998660252726 0.49999998660252726 0 0.86602541151947299 forward_v I I I I #
coedge $-1 $248 $249 $250 $251 reversed $97 $-1 #
face $-1 $-1 $252 $57 $-1 $253 forward single #
loop $-1 $254 $255 $99 #
cone-surface $-1 -63.306892477452514 -28.12671334936261 6.8115344054681497 0.86602541151947299 0 -0.49999998660252726 0.12499999665063181 0 0.21650635287986825 1 I I -0.70710678118654746 0.70710678118654746 0.25 forward I I I I #
loop $-1 $-1 $256 $75 #
coedge $-1 $160 $160 $257 $258 reversed $100 $-1 #
face $-1 $-1 $259 $58 $-1 $260 forward single #
loop $-1 $261 $262 $102 #
cone-surface $-1 -63.306892477452514 -25.37375152160169 6.8115344054681497 0.86602541151947299 0 -0.49999998660252726 0.12499999665063181 0 0.21650635287986825 1 I I -0.70710678118654746 0.70710678118654746 0.25 forward I I I I #
loop $-1 $-1 $263 $76 #
coedge $-1 $165 $165 $264 $265 reversed $103 $-1 #
face $-1 $-1 $266 $59 $-1 $267 forward single #
loop $-1 $268 $269 $105 #
cone-surface $-1 -63.306892477452514 -22.62078969384077 6.8115344054681497 0.86602541151947299 0 -0.49999998660252726 0.12499999665063181 0 0.21650635287986825 1 I I -0.70710678118654746 0.70710678118654746 0.25 forward I I I I #
loop $-1 $-1 $270 $77 #
coedge $-1 $170 $170 $271 $272 reversed $106 $-1 #
face $-1 $273 $274 $60 $-1 $275 forward single #
loop $-1 $-1 $276 $108 #
plane-surface $-1 -65.836970122379213 35.616947604665789 4.9293112877863337 -0.86602541151947299 0 0.49999998660252726 0.49999998660252726 0 0.86602541151947299 forward_v I I I I #
coedge $-1 $277 $278 $279 $280 reversed $109 $-1 #
face $-1 $-1 $281 $61 $-1 $282 forward single #
loop $-1 $283 $284 $111 #
cone-surface $-1 -63.306892477452514 32.863985776904862 6.8115344054681497 0.86602541151947299 0 -0.49999998660252726 0.12499999665063181 0 0.21650635287986825 1 I I -0.70710678118654746 0.70710678118654746 0.25 forward I I I I #
loop $-1 $-1 $285 $79 #
coedge $-1 $179 $179 $286 $287 reversed $112 $-1 #
face $-1 $-1 $288 $62 $-1 $289 forward single #
loop $-1 $290 $291 $114 #
cone-surface $-1 -63.306892477452514 35.616947604665789 6.8115344054681497 0.86602541151947299 0 -0.49999998660252726 0.12499999665063181 0 0.21650635287986825 1 I I -0.70710678118654746 0.70710678118654746 0.25 forward I I I I #
loop $-1 $-1 $292 $80 #
coedge $-1 $184 $184 $293 $294 reversed $115 $-1 #
face $-1 $-1 $295 $63 $-1 $296 forward single #
loop $-1 $297 $298 $117 #
cone-surface $-1 -63.306892477452514 38.369909432426702 6.8115344054681497 0.86602541151947299 0 -0.49999998660252726 0.12499999665063181 0 0.21650635287986825 1 I I -0.70710678118654746 0.70710678118654746 0.25 forward I I I I #
loop $-1 $-1 $299 $81 #
coedge $-1 $189 $189 $300 $301 reversed $118 $-1 #
face $-1 $302 $303 $64 $-1 $304 forward single #
loop $-1 $-1 $305 $120 #
plane-surface $-1 114.03298005095544 -20.785481808666823 184.79925793292495 0 -1 0 -0.86602541151947299 0 -0.49999998660252726 forward_v I I I I #
coedge $-1 $306 $307 $308 $309 reversed $121 $-1 #
face $-1 $-1 $310 $65 $-1 $311 forward single #
loop $-1 $312 $313 $123 #
cone-surface $-1 63.306892477452521 -28.12671334936261 6.8115344054681319 -0.86602541151947299 0 -0.49999998660252726 0.12499999665063181 0 -0.21650635287986825 1 I I -0.70710678118654746 0.70710678118654746 0.25 forward I I I I #
loop $-1 $-1 $314 $83 #
coedge $-1 $198 $198 $315 $316 reversed $124 $-1 #
face $-1 $-1 $317 $66 $-1 $318 forward single #
loop $-1 $319 $320 $126 #
cone-surface $-1 63.306892477452521 -25.37375152160169 6.8115344054681319 -0.86602541151947299 0 -0.49999998660252726 0.12499999665063181 0 -0.21650635287986825 1 I I -0.70710678118654746 0.70710678118654746 0.25 forward I I I I #
loop $-1 $-1 $321 $84 #
coedge $-1 $203 $203 $322 $323 reversed $127 $-1 #
face $-1 $-1 $324 $67 $-1 $325 forward single #
loop $-1 $326 $327 $129 #
cone-surface $-1 63.306892477452521 -22.62078969384077 6.8115344054681319 -0.86602541151947299 0 -0.49999998660252726 0.12499999665063181 0 -0.21650635287986825 1 I I -0.70710678118654746 0.70710678118654746 0.25 forward I I I I #
loop $-1 $-1 $328 $85 #
coedge $-1 $208 $208 $329 $330 reversed $130 $-1 #
face $-1 $331 $332 $68 $-1 $333 reversed single #
loop $-1 $-1 $334 $132 #
plane-surface $-1 1.7640980018995833e-006 35.616947604665789 118.96228957464375 0.86602541151947299 0 0.49999998660252726 0.49999998660252726 0 -0.86602541151947299 forward_v I I I I #
coedge $-1 $335 $336 $337 $338 reversed $133 $-1 #
face $-1 $-1 $339 $69 $-1 $340 forward single #
loop $-1 $341 $342 $135 #
cone-surface $-1 63.306892477452521 32.863985776904862 6.8115344054681319 -0.86602541151947299 0 -0.49999998660252726 0.12499999665063181 0 -0.21650635287986825 1 I I -0.70710678118654746 0.70710678118654746 0.25 forward I I I I #
loop $-1 $-1 $343 $87 #
coedge $-1 $217 $217 $344 $345 reversed $136 $-1 #
face $-1 $-1 $346 $70 $-1 $347 forward single #
loop $-1 $348 $349 $138 #
cone-surface $-1 63.306892477452521 35.616947604665789 6.8115344054681319 -0.86602541151947299 0 -0.49999998660252726 0.12499999665063181 0 -0.21650635287986825 1 I I -0.70710678118654746 0.70710678118654746 0.25 forward I I I I #
loop $-1 $-1 $350 $88 #
coedge $-1 $222 $222 $351 $352 reversed $139 $-1 #
face $-1 $-1 $353 $71 $-1 $354 forward single #
loop $-1 $355 $356 $141 #
cone-surface $-1 63.306892477452521 38.369909432426702 6.8115344054681319 -0.86602541151947299 0 -0.49999998660252726 0.12499999665063181 0 -0.21650635287986825 1 I I -0.70710678118654746 0.70710678118654746 0.25 forward I I I I #
loop $-1 $-1 $357 $89 #
coedge $-1 $227 $227 $358 $359 reversed $142 $-1 #
face $-1 $360 $361 $54 $-1 $362 reversed single #
loop $-1 $-1 $363 $144 #
plane-surface $-1 0 -40.205217317600649 0 0 1 0 0 0 1 forward_v I I I I #
coedge $-1 $364 $365 $366 $367 forward $145 $-1 #
coedge $-1 $368 $147 $369 $370 forward $91 $-1 #
coedge $-1 $147 $368 $371 $372 forward $91 $-1 #
coedge $-1 $373 $374 $147 $235 reversed $375 $-1 #
edge $-1 $376 -40.205217317600649 $377 40.205217317600649 $234 $378 forward 7 unknown #
face $-1 $379 $380 $55 $-1 $381 reversed single #
loop $-1 $-1 $382 $148 #
plane-surface $-1 -65.836970122379228 0 0 1 0 0 0 0 -1 forward_v I I I I #
coedge $-1 $383 $384 $385 $386 reversed $149 $-1 #
coedge $-1 $387 $151 $388 $389 reversed $94 $-1 #
coedge $-1 $151 $387 $383 $390 forward $94 $-1 #
coedge $-1 $385 $391 $151 $243 forward $392 $-1 #
edge $-1 $393 -22.663407679566347 $394 -12.420211596502256 $242 $395 forward 7 unknown #
face $-1 $396 $397 $56 $-1 $398 forward single #
loop $-1 $-1 $399 $152 #
plane-surface $-1 0 -29.962021234536557 7.0503962715517918 0 -1 0 0 0 -1 forward_v I I I I #
coedge $-1 $400 $401 $402 $403 reversed $153 $-1 #
coedge $-1 $249 $155 $404 $405 reversed $97 $-1 #
coedge $-1 $155 $248 $400 $406 reversed $97 $-1 #
coedge $-1 $402 $407 $155 $251 forward $408 $-1 #
edge $-1 $409 25.43938233337748 $410 30.453828535247457 $250 $411 forward 7 unknown #
loop $-1 $-1 $257 $156 #
plane-surface $-1 -65.836970122379213 -25.37375152160169 4.9293112877863337 -0.86602541151947299 0 0.49999998660252726 0.49999998660252726 0 0.86602541151947299 forward_v I I I I #
loop $-1 $-1 $412 $99 #
coedge $-1 $255 $255 $256 $413 reversed $157 $-1 #
coedge $-1 $256 $256 $255 $413 forward $159 $-1 #
coedge $-1 $257 $257 $160 $258 forward $252 $-1 #
edge $-1 $414 0 $414 6.2831853071796004 $257 $415 forward 7 unknown #
loop $-1 $-1 $264 $161 #
plane-surface $-1 -65.836970122379213 -25.37375152160169 4.9293112877863337 -0.86602541151947299 0 0.49999998660252726 0.49999998660252726 0 0.86602541151947299 forward_v I I I I #
loop $-1 $-1 $416 $102 #
coedge $-1 $262 $262 $263 $417 reversed $162 $-1 #
coedge $-1 $263 $263 $262 $417 forward $164 $-1 #
coedge $-1 $264 $264 $165 $265 forward $259 $-1 #
edge $-1 $418 0 $418 6.2831853071796004 $264 $419 forward 7 unknown #
loop $-1 $-1 $271 $166 #
plane-surface $-1 -65.836970122379213 -25.37375152160169 4.9293112877863337 -0.86602541151947299 0 0.49999998660252726 0.49999998660252726 0 0.86602541151947299 forward_v I I I I #
loop $-1 $-1 $420 $105 #
coedge $-1 $269 $269 $270 $421 reversed $167 $-1 #
coedge $-1 $270 $270 $269 $421 forward $169 $-1 #
coedge $-1 $271 $271 $170 $272 forward $266 $-1 #
edge $-1 $422 0 $422 6.2831853071796004 $271 $423 forward 7 unknown #
face $-1 $424 $425 $60 $-1 $426 reversed single #
loop $-1 $-1 $279 $171 #
plane-surface $-1 0 0 9.9437574896562833 0 0 1 1 0 0 forward_v I I I I #
coedge $-1 $427 $428 $429 $430 reversed $172 $-1 #
coedge $-1 $278 $174 $431 $432 reversed $109 $-1 #
coedge $-1 $174 $277 $427 $433 reversed $109 $-1 #
coedge $-1 $429 $434 $174 $280 forward $274 $-1 #
edge $-1 $435 24.0980040822391 $436 26.993095843293858 $279 $437 forward 7 unknown #
loop $-1 $-1 $286 $175 #
plane-surface $-1 -65.836970122379213 35.616947604665789 4.9293112877863337 -0.86602541151947299 0 0.49999998660252726 0.49999998660252726 0 0.86602541151947299 forward_v I I I I #
loop $-1 $-1 $438 $111 #
coedge $-1 $284 $284 $285 $439 reversed $176 $-1 #
coedge $-1 $285 $285 $284 $439 forward $178 $-1 #
coedge $-1 $286 $286 $179 $287 forward $281 $-1 #
edge $-1 $440 0 $440 6.2831853071796004 $286 $441 forward 7 unknown #
loop $-1 $-1 $293 $180 #
plane-surface $-1 -65.836970122379213 35.616947604665789 4.9293112877863337 -0.86602541151947299 0 0.49999998660252726 0.49999998660252726 0 0.86602541151947299 forward_v I I I I #
loop $-1 $-1 $442 $114 #
coedge $-1 $291 $291 $292 $443 reversed $181 $-1 #
coedge $-1 $292 $292 $291 $443 forward $183 $-1 #
coedge $-1 $293 $293 $184 $294 forward $288 $-1 #
edge $-1 $444 0 $444 6.2831853071796004 $293 $445 forward 7 unknown #
loop $-1 $-1 $300 $185 #
plane-surface $-1 -65.836970122379213 35.616947604665789 4.9293112877863337 -0.86602541151947299 0 0.49999998660252726 0.49999998660252726 0 0.86602541151947299 forward_v I I I I #
loop $-1 $-1 $446 $117 #
coedge $-1 $298 $298 $299 $447 reversed $186 $-1 #
coedge $-1 $299 $299 $298 $447 forward $188 $-1 #
coedge $-1 $300 $300 $189 $301 forward $295 $-1 #
edge $-1 $448 0 $448 6.2831853071796004 $300 $449 forward 7 unknown #
face $-1 $450 $451 $64 $-1 $452 reversed single #
loop $-1 $-1 $453 $190 #
plane-surface $-1 0 -29.962021234536557 7.0503962715517918 0 -1 0 0 0 -1 forward_v I I I I #
coedge $-1 $454 $455 $456 $457 reversed $191 $-1 #
coedge $-1 $458 $193 $453 $459 reversed $121 $-1 #
coedge $-1 $193 $458 $454 $460 forward $121 $-1 #
coedge $-1 $456 $461 $193 $309 forward $451 $-1 #
edge $-1 $462 -17.275145473735712 $463 -8.098606047865978 $308 $464 forward 7 unknown #
loop $-1 $-1 $315 $194 #
plane-surface $-1 1.7640980018995833e-006 -25.37375152160169 118.96228957464375 0.86602541151947299 0 0.49999998660252726 0.49999998660252726 0 -0.86602541151947299 forward_v I I I I #
loop $-1 $-1 $465 $123 #
coedge $-1 $313 $313 $314 $466 reversed $195 $-1 #
coedge $-1 $314 $314 $313 $466 forward $197 $-1 #
coedge $-1 $315 $315 $198 $316 forward $310 $-1 #
edge $-1 $467 0 $467 6.2831853071796004 $315 $468 forward 7 unknown #
loop $-1 $-1 $322 $199 #
plane-surface $-1 1.7640980018995833e-006 -25.37375152160169 118.96228957464375 0.86602541151947299 0 0.49999998660252726 0.49999998660252726 0 -0.86602541151947299 forward_v I I I I #
loop $-1 $-1 $469 $126 #
coedge $-1 $320 $320 $321 $470 reversed $200 $-1 #
coedge $-1 $321 $321 $320 $470 forward $202 $-1 #
coedge $-1 $322 $322 $203 $323 forward $317 $-1 #
edge $-1 $471 0 $471 6.2831853071796004 $322 $472 forward 7 unknown #
loop $-1 $-1 $329 $204 #
plane-surface $-1 1.7640980018995833e-006 -25.37375152160169 118.96228957464375 0.86602541151947299 0 0.49999998660252726 0.49999998660252726 0 -0.86602541151947299 forward_v I I I I #
loop $-1 $-1 $473 $129 #
coedge $-1 $327 $327 $328 $474 reversed $205 $-1 #
coedge $-1 $328 $328 $327 $474 forward $207 $-1 #
coedge $-1 $329 $329 $208 $330 forward $324 $-1 #
edge $-1 $475 0 $475 6.2831853071796004 $329 $476 forward 7 unknown #
face $-1 $477 $478 $68 $-1 $479 forward single #
loop $-1 $-1 $337 $209 #
plane-surface $-1 65.836970122379228 0 0 -1 0 0 0 0 1 forward_v I I I I #
coedge $-1 $480 $481 $482 $483 reversed $210 $-1 #
coedge $-1 $336 $212 $484 $485 reversed $133 $-1 #
coedge $-1 $212 $335 $480 $486 reversed $133 $-1 #
coedge $-1 $482 $487 $212 $338 forward $332 $-1 #
edge $-1 $488 82.455871476806195 $489 87.47031767867621 $337 $490 forward 7 unknown #
loop $-1 $-1 $344 $213 #
plane-surface $-1 1.7640980018995833e-006 35.616947604665789 118.96228957464375 0.86602541151947299 0 0.49999998660252726 0.49999998660252726 0 -0.86602541151947299 forward_v I I I I #
loop $-1 $-1 $491 $135 #
coedge $-1 $342 $342 $343 $492 reversed $214 $-1 #
coedge $-1 $343 $343 $342 $492 forward $216 $-1 #
coedge $-1 $344 $344 $217 $345 forward $339 $-1 #
edge $-1 $493 0 $493 6.2831853071796004 $344 $494 forward 7 unknown #
loop $-1 $-1 $351 $218 #
plane-surface $-1 1.7640980018995833e-006 35.616947604665789 118.96228957464375 0.86602541151947299 0 0.49999998660252726 0.49999998660252726 0 -0.86602541151947299 forward_v I I I I #
loop $-1 $-1 $495 $138 #
coedge $-1 $349 $349 $350 $496 reversed $219 $-1 #
coedge $-1 $350 $350 $349 $496 forward $221 $-1 #
coedge $-1 $351 $351 $222 $352 forward $346 $-1 #
edge $-1 $497 0 $497 6.2831853071796004 $351 $498 forward 7 unknown #
loop $-1 $-1 $358 $223 #
plane-surface $-1 1.7640980018995833e-006 35.616947604665789 118.96228957464375 0.86602541151947299 0 0.49999998660252726 0.49999998660252726 0 -0.86602541151947299 forward_v I I I I #
loop $-1 $-1 $499 $141 #
coedge $-1 $356 $356 $357 $500 reversed $224 $-1 #
coedge $-1 $357 $357 $356 $500 forward $226 $-1 #
coedge $-1 $358 $358 $227 $359 forward $353 $-1 #
edge $-1 $501 0 $501 6.2831853071796004 $358 $502 forward 7 unknown #
face $-1 $503 $504 $54 $-1 $505 reversed single #
loop $-1 $-1 $506 $228 #
plane-surface $-1 -65.836970122379228 0 0 1 0 0 0 0 -1 forward_v I I I I #
coedge $-1 $507 $371 $508 $509 forward $229 $-1 #
coedge $-1 $510 $231 $507 $511 forward $145 $-1 #
coedge $-1 $231 $510 $512 $513 forward $145 $-1 #
coedge $-1 $374 $373 $231 $367 reversed $375 $-1 #
edge $-1 $514 -40.205217317600649 $515 40.205217317600649 $366 $516 forward 7 unknown #
coedge $-1 $233 $232 $517 $518 forward $91 $-1 #
coedge $-1 $519 $520 $232 $370 reversed $504 $-1 #
edge $-1 $377 -65.836970122379228 $521 65.836970122379228 $369 $522 forward 7 unknown #
coedge $-1 $363 $523 $233 $372 reversed $229 $-1 #
edge $-1 $524 -65.836970122379228 $376 65.836970122379228 $371 $525 forward 7 unknown #
coedge $-1 $366 $234 $523 $526 forward $375 $-1 #
coedge $-1 $234 $366 $519 $527 reversed $375 $-1 #
loop $-1 $-1 $373 $503 #
vertex $-1 $235 $528 #
vertex $-1 $235 $529 #
straight-curve $-1 65.836970122379228 0 9.9437574896562833 0 1 0 I I #
face $-1 $530 $531 $55 $-1 $532 forward single #
loop $-1 $-1 $388 $236 #
plane-surface $-1 0 -40.205217317600649 0 0 1 0 0 0 1 forward_v I I I I #
coedge $-1 $533 $534 $535 $536 forward $237 $-1 #
coedge $-1 $535 $239 $241 $390 reversed $149 $-1 #
coedge $-1 $239 $535 $537 $538 reversed $149 $-1 #
coedge $-1 $539 $242 $239 $386 forward $392 $-1 #
edge $-1 $394 0.6318369176714036 $540 6.4185593538803891 $385 $541 forward 7 unknown #
coedge $-1 $241 $240 $533 $542 reversed $94 $-1 #
coedge $-1 $543 $544 $240 $389 forward $380 $-1 #
edge $-1 $545 -65.836970122379228 $393 65.836970122379228 $388 $546 forward 7 unknown #
edge $-1 $547 -65.836970122379228 $394 65.836970122379228 $383 $548 forward 7 unknown #
coedge $-1 $242 $539 $543 $549 forward $392 $-1 #
loop $-1 $-1 $385 $530 #
vertex $-1 $389 $550 #
vertex $-1 $243 $551 #
straight-curve $-1 65.836970122379228 -17.541809638034302 4.1570350534472995 0 1 0 I I #
face $-1 $-1 $408 $56 $-1 $552 reversed single #
loop $-1 $-1 $553 $244 #
plane-surface $-1 0 0 9.9437574896562833 0 0 1 1 0 0 forward_v I I I I #
coedge $-1 $554 $555 $401 $556 forward $245 $-1 #
coedge $-1 $557 $247 $249 $406 forward $153 $-1 #
coedge $-1 $247 $557 $399 $556 reversed $153 $-1 #
coedge $-1 $558 $250 $247 $403 forward $408 $-1 #
edge $-1 $410 8.098606047865978 $559 17.275145473735712 $402 $560 forward 7 unknown #
coedge $-1 $561 $553 $248 $405 forward $397 $-1 #
edge $-1 $562 -26.993095843293858 $409 -24.0980040822391 $404 $563 forward 7 unknown #
edge $-1 $410 -2.8642609447069912e-014 $562 5.79018367725714 $249 $564 forward 7 unknown #
coedge $-1 $250 $558 $561 $565 reversed $408 $-1 #
loop $-1 $-1 $402 $396 #
vertex $-1 $565 $566 #
vertex $-1 $251 $567 #
straight-curve $-1 -65.836970122379228 -20.785481808666823 35.383139823033765 0 0 -1 I I #
coedge $-1 $412 $412 $-1 $568 reversed $254 $-1 #
edge $-1 $569 0 $569 6.2831853071796004 $255 $570 forward 7 unknown #
vertex $-1 $258 $571 #
ellipse-curve $-1 -64.389424241851842 -28.12671334936261 7.4365343887213031 -0.86602541151947299 0 0.49999998660252726 0.24999999330126363 0 0.43301270575973649 1 I I #
coedge $-1 $416 $416 $-1 $572 reversed $261 $-1 #
edge $-1 $573 0 $573 6.2831853071796004 $262 $574 forward 7 unknown #
vertex $-1 $265 $575 #
ellipse-curve $-1 -64.389424241851842 -25.37375152160169 7.4365343887213031 -0.86602541151947299 0 0.49999998660252726 0.24999999330126363 0 0.43301270575973649 1 I I #
coedge $-1 $420 $420 $-1 $576 reversed $268 $-1 #
edge $-1 $577 0 $577 6.2831853071796004 $269 $578 forward 7 unknown #
vertex $-1 $272 $579 #
ellipse-curve $-1 -64.389424241851842 -22.62078969384077 7.4365343887213031 -0.86602541151947299 0 0.49999998660252726 0.24999999330126363 0 0.43301270575973649 1 I I #
face $-1 $-1 $580 $60 $-1 $581 reversed single #
loop $-1 $-1 $582 $273 #
plane-surface $-1 0 40.205217317600649 0 0 -1 0 0 0 -1 forward_v I I I I #
coedge $-1 $583 $276 $278 $433 forward $172 $-1 #
coedge $-1 $276 $583 $582 $584 reversed $172 $-1 #
coedge $-1 $585 $279 $276 $430 forward $274 $-1 #
edge $-1 $436 13.220204089398027 $586 22.396743515267762 $429 $587 forward 7 unknown #
coedge $-1 $588 $589 $277 $432 forward $580 $-1 #
edge $-1 $590 -30.453828535247457 $435 -25.43938233337748 $431 $591 forward 7 unknown #
edge $-1 $436 -5.79018367725714 $590 2.8642609447069912e-014 $278 $592 forward 7 unknown #
coedge $-1 $279 $585 $588 $593 forward $274 $-1 #
vertex $-1 $432 $594 #
vertex $-1 $280 $595 #
straight-curve $-1 -89.934974204618328 31.028677891730922 9.943757489656285 1 0 0 I I #
coedge $-1 $438 $438 $-1 $596 reversed $283 $-1 #
edge $-1 $597 0 $597 6.2831853071796004 $284 $598 forward 7 unknown #
vertex $-1 $287 $599 #
ellipse-curve $-1 -64.389424241851842 32.863985776904862 7.4365343887213031 -0.86602541151947299 0 0.49999998660252726 0.24999999330126363 0 0.43301270575973649 1 I I #
coedge $-1 $442 $442 $-1 $600 reversed $290 $-1 #
edge $-1 $601 0 $601 6.2831853071796004 $291 $602 forward 7 unknown #
vertex $-1 $294 $603 #
ellipse-curve $-1 -64.389424241851842 35.616947604665789 7.4365343887213031 -0.86602541151947299 0 0.49999998660252726 0.24999999330126363 0 0.43301270575973649 1 I I #
coedge $-1 $446 $446 $-1 $604 reversed $297 $-1 #
edge $-1 $605 0 $605 6.2831853071796004 $298 $606 forward 7 unknown #
vertex $-1 $301 $607 #
ellipse-curve $-1 -64.389424241851842 38.369909432426702 7.4365343887213031 -0.86602541151947299 0 0.49999998660252726 0.24999999330126363 0 0.43301270575973649 1 I I #
face $-1 $-1 $608 $64 $-1 $609 forward single #
loop $-1 $-1 $308 $302 #
plane-surface $-1 65.836970122379228 0 0 -1 0 0 0 0 1 forward_v I I I I #
coedge $-1 $610 $611 $306 $459 forward $303 $-1 #
coedge $-1 $455 $305 $307 $460 reversed $191 $-1 #
coedge $-1 $305 $454 $612 $613 reversed $191 $-1 #
coedge $-1 $614 $308 $305 $457 forward $451 $-1 #
edge $-1 $463 -87.47031767867621 $615 -82.455871476806195 $456 $616 forward 7 unknown #
coedge $-1 $307 $306 $617 $618 reversed $121 $-1 #
edge $-1 $619 77.424485282658992 $462 83.214668959916196 $453 $620 forward 7 unknown #
edge $-1 $621 125.88375656750129 $463 131.67394024475851 $454 $622 forward 7 unknown #
coedge $-1 $308 $614 $610 $623 forward $451 $-1 #
vertex $-1 $459 $624 #
vertex $-1 $309 $625 #
straight-curve $-1 65.836970122379228 -12.686875760800845 4.9293112877862697 0 1 0 I I #
coedge $-1 $465 $465 $-1 $626 reversed $312 $-1 #
edge $-1 $627 0 $627 6.2831853071796004 $313 $628 forward 7 unknown #
vertex $-1 $316 $629 #
ellipse-curve $-1 64.389424241851842 -28.12671334936261 7.4365343887212765 0.86602541151947299 0 0.49999998660252726 0.24999999330126363 0 -0.43301270575973649 1 I I #
coedge $-1 $469 $469 $-1 $630 reversed $319 $-1 #
edge $-1 $631 0 $631 6.2831853071796004 $320 $632 forward 7 unknown #
vertex $-1 $323 $633 #
ellipse-curve $-1 64.389424241851842 -25.37375152160169 7.4365343887212765 0.86602541151947299 0 0.49999998660252726 0.24999999330126363 0 -0.43301270575973649 1 I I #
coedge $-1 $473 $473 $-1 $634 reversed $326 $-1 #
edge $-1 $635 0 $635 6.2831853071796004 $327 $636 forward 7 unknown #
vertex $-1 $330 $637 #
ellipse-curve $-1 64.389424241851842 -22.62078969384077 7.4365343887212765 0.86602541151947299 0 0.49999998660252726 0.24999999330126363 0 -0.43301270575973649 1 I I #
face $-1 $-1 $638 $68 $-1 $639 reversed single #
loop $-1 $-1 $484 $331 #
plane-surface $-1 0 0 9.9437574896562833 0 0 1 1 0 0 forward_v I I I I #
coedge $-1 $640 $334 $336 $486 forward $210 $-1 #
coedge $-1 $334 $640 $641 $642 reversed $210 $-1 #
coedge $-1 $643 $337 $334 $483 forward $332 $-1 #
edge $-1 $489 13.220204089398027 $644 22.396743515267762 $482 $645 forward 7 unknown #
coedge $-1 $646 $647 $335 $485 forward $478 $-1 #
edge $-1 $648 5.9253883358467263 $488 8.8204800969015054 $484 $649 forward 7 unknown #
edge $-1 $489 -131.67394024475851 $648 -125.88375656750129 $336 $650 forward 7 unknown #
coedge $-1 $337 $643 $646 $651 reversed $332 $-1 #
vertex $-1 $651 $652 #
vertex $-1 $338 $653 #
straight-curve $-1 65.836970122379228 31.028677891730922 92.399628966462473 0 0 -1 I I #
coedge $-1 $491 $491 $-1 $654 reversed $341 $-1 #
edge $-1 $655 0 $655 6.2831853071796004 $342 $656 forward 7 unknown #
vertex $-1 $345 $657 #
ellipse-curve $-1 64.389424241851842 32.863985776904862 7.4365343887212765 0.86602541151947299 0 0.49999998660252726 0.24999999330126363 0 -0.43301270575973649 1 I I #
coedge $-1 $495 $495 $-1 $658 reversed $348 $-1 #
edge $-1 $659 0 $659 6.2831853071796004 $349 $660 forward 7 unknown #
vertex $-1 $352 $661 #
ellipse-curve $-1 64.389424241851842 35.616947604665789 7.4365343887212765 0.86602541151947299 0 0.49999998660252726 0.24999999330126363 0 -0.43301270575973649 1 I I #
coedge $-1 $499 $499 $-1 $662 reversed $355 $-1 #
edge $-1 $663 0 $663 6.2831853071796004 $356 $664 forward 7 unknown #
vertex $-1 $359 $665 #
ellipse-curve $-1 64.389424241851842 38.369909432426702 7.4365343887212765 0.86602541151947299 0 0.49999998660252726 0.24999999330126363 0 -0.43301270575973649 1 I I #
face $-1 $-1 $375 $54 $-1 $666 reversed single #
loop $-1 $-1 $519 $360 #
plane-surface $-1 0 40.205217317600649 0 0 -1 0 0 0 -1 forward_v I I I I #
coedge $-1 $667 $517 $520 $668 forward $361 $-1 #
coedge $-1 $523 $363 $364 $511 reversed $229 $-1 #
coedge $-1 $517 $667 $363 $509 reversed $361 $-1 #
edge $-1 $524 -9.9437574896562833 $669 9.9437574896562833 $508 $670 forward 7 unknown #
coedge $-1 $365 $364 $667 $671 forward $145 $-1 #
edge $-1 $515 -65.836970122379228 $669 65.836970122379228 $507 $672 forward 7 unknown #
coedge $-1 $520 $519 $365 $513 reversed $504 $-1 #
edge $-1 $673 -65.836970122379228 $514 65.836970122379228 $512 $674 forward 7 unknown #
vertex $-1 $367 $675 #
vertex $-1 $526 $676 #
straight-curve $-1 65.836970122379228 0 -9.9437574896562833 0 -1 0 I I #
coedge $-1 $506 $508 $368 $518 reversed $361 $-1 #
edge $-1 $521 -40.205217317600649 $524 40.205217317600649 $517 $677 forward 7 unknown #
coedge $-1 $512 $369 $374 $527 forward $504 $-1 #
coedge $-1 $369 $512 $506 $668 reversed $504 $-1 #
vertex $-1 $370 $678 #
straight-curve $-1 0 40.205217317600649 9.9437574896562833 -1 0 0 I I #
coedge $-1 $371 $507 $373 $526 reversed $229 $-1 #
vertex $-1 $518 $679 #
straight-curve $-1 0 -40.205217317600649 9.9437574896562833 1 0 0 I I #
edge $-1 $376 -9.9437574896562833 $515 9.9437574896562833 $373 $680 forward 7 unknown #
edge $-1 $377 -9.9437574896562833 $514 9.9437574896562833 $374 $681 forward 7 unknown #
point $-1 65.836970122379228 -40.205217317600649 9.9437574896562833 #
point $-1 65.836970122379228 40.205217317600649 9.9437574896562833 #
face $-1 $-1 $392 $55 $-1 $682 reversed single #
loop $-1 $-1 $537 $379 #
plane-surface $-1 0 0 9.9437574896562833 0 0 1 1 0 0 forward_v I I I I #
coedge $-1 $683 $382 $387 $542 forward $237 $-1 #
coedge $-1 $382 $683 $684 $685 reversed $237 $-1 #
coedge $-1 $384 $383 $382 $536 reversed $149 $-1 #
edge $-1 $686 -6.4185593538803891 $547 -0.6318369176714036 $382 $687 forward 7 unknown #
coedge $-1 $684 $688 $384 $538 forward $531 $-1 #
edge $-1 $540 -65.836970122379228 $686 65.836970122379228 $537 $689 forward 7 unknown #
coedge $-1 $391 $385 $688 $690 reversed $392 $-1 #
vertex $-1 $386 $691 #
straight-curve $-1 65.836970122379228 -29.962021234536557 3.5251981357758959 0 0 1 I I #
edge $-1 $547 12.420211596502256 $545 22.663407679566347 $533 $692 forward 7 unknown #
coedge $-1 $693 $388 $391 $549 reversed $380 $-1 #
coedge $-1 $388 $693 $683 $694 forward $380 $-1 #
vertex $-1 $389 $695 #
straight-curve $-1 0 -40.205217317600649 4.1570350534472995 1 0 0 I I #
vertex $-1 $542 $696 #
straight-curve $-1 0 -29.962021234536557 4.1570350534472995 1 0 0 I I #
edge $-1 $697 -9.9437574896562833 $393 -4.1570350534472995 $391 $698 forward 7 unknown #
point $-1 65.836970122379228 -40.205217317600649 4.1570350534472995 #
point $-1 65.836970122379228 -29.962021234536557 4.1570350534472995 #
plane-surface $-1 -65.836970122379228 0 0 1 0 0 0 0 -1 forward_v I I I I #
coedge $-1 $404 $699 $557 $700 forward $397 $-1 #
coedge $-1 $555 $399 $699 $701 reversed $245 $-1 #
coedge $-1 $399 $554 $558 $702 reversed $245 $-1 #
edge $-1 $559 -17.377698837536951 $703 -11.587515160279786 $399 $704 forward 7 unknown #
coedge $-1 $401 $400 $553 $700 reversed $153 $-1 #
coedge $-1 $407 $402 $555 $702 forward $408 $-1 #
vertex $-1 $702 $705 #
straight-curve $-1 -65.836970122379228 -12.686875760800845 4.9293112877863239 0 -1 0 I I #
coedge $-1 $699 $404 $407 $565 forward $397 $-1 #
vertex $-1 $405 $706 #
straight-curve $-1 -89.934974204618328 -20.785481808666823 9.943757489656285 -1 0 0 I I #
straight-curve $-1 -65.836970122379213 -20.785481808666823 4.9293112877863337 0.49999998660252726 0 0.86602541151947299 I I #
edge $-1 $409 20.785481808666823 $707 29.962021234536557 $407 $708 forward 7 unknown #
point $-1 -65.836970122379228 -20.785481808666823 9.9437574896562833 #
point $-1 -65.836970122379228 -20.785481808666823 4.9293112877863088 #
edge $-1 $709 1 $709 0 $412 $-1 forward 7 unknown #
vertex $-1 $413 $710 #
ellipse-curve $-1 -63.523398830332383 -28.12671334936261 6.9365344021187818 -0.86602541151947299 0 0.49999998660252726 0.24999999330126363 0 0.43301270575973649 1 I I #
point $-1 -64.139424248550597 -28.12671334936261 7.8695470944810451 #
edge $-1 $711 1 $711 0 $416 $-1 forward 7 unknown #
vertex $-1 $417 $712 #
ellipse-curve $-1 -63.523398830332383 -25.37375152160169 6.9365344021187818 -0.86602541151947299 0 0.49999998660252726 0.24999999330126363 0 0.43301270575973649 1 I I #
point $-1 -64.139424248550597 -25.37375152160169 7.8695470944810451 #
edge $-1 $713 1 $713 0 $420 $-1 forward 7 unknown #
vertex $-1 $421 $714 #
ellipse-curve $-1 -63.523398830332383 -22.62078969384077 6.9365344021187818 -0.86602541151947299 0 0.49999998660252726 0.24999999330126363 0 0.43301270575973649 1 I I #
point $-1 -64.139424248550597 -22.62078969384077 7.8695470944810451 #
loop $-1 $-1 $431 $424 #
plane-surface $-1 -65.836970122379228 0 0 1 0 0 0 0 -1 forward_v I I I I #
coedge $-1 $715 $716 $428 $584 forward $425 $-1 #
coedge $-1 $428 $427 $589 $717 reversed $172 $-1 #
edge $-1 $586 8.5346039940567842 $718 14.324787671313954 $582 $719 forward 7 unknown #
coedge $-1 $434 $429 $716 $720 forward $274 $-1 #
vertex $-1 $720 $721 #
straight-curve $-1 -62.94187836132447 17.808473802332895 9.9437574896562833 0 1 0 I I #
coedge $-1 $722 $431 $434 $593 reversed $580 $-1 #
coedge $-1 $431 $722 $583 $717 forward $580 $-1 #
vertex $-1 $432 $723 #
straight-curve $-1 -65.836970122379228 31.028677891730922 35.383139823033765 0 0 1 I I #
straight-curve $-1 -65.836970122379213 31.028677891730922 4.9293112877863337 -0.49999998660252726 0 -0.86602541151947299 I I #
edge $-1 $724 -40.205217317600649 $435 -31.028677891730922 $588 $725 forward 7 unknown #
point $-1 -65.836970122379228 31.028677891730922 9.9437574896562833 #
point $-1 -62.94187836132447 31.028677891730922 9.9437574896562833 #
edge $-1 $726 1 $726 0 $438 $-1 forward 7 unknown #
vertex $-1 $439 $727 #
ellipse-curve $-1 -63.523398830332383 32.863985776904862 6.9365344021187818 -0.86602541151947299 0 0.49999998660252726 0.24999999330126363 0 0.43301270575973649 1 I I #
point $-1 -64.139424248550597 32.863985776904862 7.8695470944810451 #
edge $-1 $728 1 $728 0 $442 $-1 forward 7 unknown #
vertex $-1 $443 $729 #
ellipse-curve $-1 -63.523398830332383 35.616947604665789 6.9365344021187818 -0.86602541151947299 0 0.49999998660252726 0.24999999330126363 0 0.43301270575973649 1 I I #
point $-1 -64.139424248550597 35.616947604665789 7.8695470944810451 #
edge $-1 $730 1 $730 0 $446 $-1 forward 7 unknown #
vertex $-1 $447 $731 #
ellipse-curve $-1 -63.523398830332383 38.369909432426702 6.9365344021187818 -0.86602541151947299 0 0.49999998660252726 0.24999999330126363 0 0.43301270575973649 1 I I #
point $-1 -64.139424248550597 38.369909432426702 7.8695470944810451 #
loop $-1 $-1 $617 $450 #
plane-surface $-1 0 0 9.9437574896562833 0 0 1 1 0 0 forward_v I I I I #
coedge $-1 $611 $453 $461 $623 reversed $303 $-1 #
coedge $-1 $453 $610 $732 $733 reversed $303 $-1 #
coedge $-1 $617 $734 $455 $613 forward $608 $-1 #
edge $-1 $615 -8.8204800969015054 $621 -5.9253883358467263 $612 $735 forward 7 unknown #
coedge $-1 $461 $456 $734 $736 reversed $451 $-1 #
vertex $-1 $457 $737 #
straight-curve $-1 65.836970122379228 -20.785481808666823 92.399628966462473 0 0 1 I I #
coedge $-1 $732 $612 $458 $618 forward $608 $-1 #
edge $-1 $621 8.098606047865978 $619 17.275145473735712 $617 $738 forward 7 unknown #
vertex $-1 $733 $739 #
straight-curve $-1 24.229636757287381 -29.962021234536557 76.995329218254412 0.49999998660252726 0 -0.86602541151947299 I I #
vertex $-1 $618 $740 #
straight-curve $-1 1.7640980018995833e-006 -20.785481808666823 118.96228957464375 0.49999998660252726 0 -0.86602541151947299 I I #
edge $-1 $741 -6.4185593538803891 $462 -1.4041131520103791 $461 $742 forward 7 unknown #
point $-1 65.836970122379228 -29.962021234536557 4.929311287786275 #
point $-1 65.836970122379228 -20.785481808666823 4.9293112877862626 #
edge $-1 $743 1 $743 0 $465 $-1 forward 7 unknown #
vertex $-1 $466 $744 #
ellipse-curve $-1 63.52339883033239 -28.12671334936261 6.936534402118764 0.86602541151947299 0 0.49999998660252726 0.24999999330126363 0 -0.43301270575973649 1 I I #
point $-1 64.639424235153129 -28.12671334936261 7.003521682961555 #
edge $-1 $745 1 $745 0 $469 $-1 forward 7 unknown #
vertex $-1 $470 $746 #
ellipse-curve $-1 63.52339883033239 -25.37375152160169 6.936534402118764 0.86602541151947299 0 0.49999998660252726 0.24999999330126363 0 -0.43301270575973649 1 I I #
point $-1 64.639424235153129 -25.37375152160169 7.003521682961555 #
edge $-1 $747 1 $747 0 $473 $-1 forward 7 unknown #
vertex $-1 $474 $748 #
ellipse-curve $-1 63.52339883033239 -22.62078969384077 6.936534402118764 0.86602541151947299 0 0.49999998660252726 0.24999999330126363 0 -0.43301270575973649 1 I I #
point $-1 64.639424235153129 -22.62078969384077 7.003521682961555 #
loop $-1 $-1 $641 $477 #
plane-surface $-1 0 40.205217317600649 0 0 -1 0 0 0 -1 forward_v I I I I #
coedge $-1 $481 $480 $647 $749 reversed $210 $-1 #
coedge $-1 $750 $751 $481 $642 forward $638 $-1 #
edge $-1 $644 -80.161757793693212 $752 -74.371574116435994 $641 $753 forward 7 unknown #
coedge $-1 $487 $482 $751 $754 reversed $332 $-1 #
vertex $-1 $642 $755 #
straight-curve $-1 65.836970122379228 17.808473802332895 4.9293112877862697 0 1 0 I I #
coedge $-1 $756 $484 $487 $651 forward $478 $-1 #
coedge $-1 $484 $756 $640 $749 forward $478 $-1 #
vertex $-1 $485 $757 #
straight-curve $-1 57.016490025477722 31.028677891730922 9.9437574896562779 1 0 0 I I #
straight-curve $-1 1.7640980018995833e-006 31.028677891730922 118.96228957464375 -0.49999998660252726 0 0.86602541151947299 I I #
edge $-1 $488 31.028677891730922 $758 40.205217317600649 $487 $759 forward 7 unknown #
point $-1 65.836970122379228 31.028677891730922 9.9437574896562833 #
point $-1 65.836970122379228 31.028677891730922 4.9293112877862626 #
edge $-1 $760 1 $760 0 $491 $-1 forward 7 unknown #
vertex $-1 $492 $761 #
ellipse-curve $-1 63.52339883033239 32.863985776904862 6.936534402118764 0.86602541151947299 0 0.49999998660252726 0.24999999330126363 0 -0.43301270575973649 1 I I #
point $-1 64.639424235153129 32.863985776904862 7.003521682961555 #
edge $-1 $762 1 $762 0 $495 $-1 forward 7 unknown #
vertex $-1 $496 $763 #
ellipse-curve $-1 63.52339883033239 35.616947604665789 6.936534402118764 0.86602541151947299 0 0.49999998660252726 0.24999999330126363 0 -0.43301270575973649 1 I I #
point $-1 64.639424235153129 35.616947604665789 7.003521682961555 #
edge $-1 $764 1 $764 0 $499 $-1 forward 7 unknown #
vertex $-1 $500 $765 #
ellipse-curve $-1 63.52339883033239 38.369909432426702 6.936534402118764 0.86602541151947299 0 0.49999998660252726 0.24999999330126363 0 -0.43301270575973649 1 I I #
point $-1 64.639424235153129 38.369909432426702 7.003521682961555 #
plane-surface $-1 65.836970122379228 0 0 -1 0 0 0 0 1 forward_v I I I I #
coedge $-1 $508 $506 $510 $671 reversed $361 $-1 #
edge $-1 $521 -9.9437574896562833 $673 9.9437574896562833 $520 $766 forward 7 unknown #
vertex $-1 $671 $767 #
straight-curve $-1 -65.836970122379228 -40.205217317600649 0 0 0 -1 I I #
edge $-1 $669 -40.205217317600649 $673 40.205217317600649 $667 $768 forward 7 unknown #
straight-curve $-1 0 -40.205217317600649 -9.9437574896562833 -1 0 0 I I #
vertex $-1 $513 $769 #
straight-curve $-1 0 40.205217317600649 -9.9437574896562833 1 0 0 I I #
point $-1 65.836970122379228 40.205217317600649 -9.9437574896562833 #
point $-1 65.836970122379228 -40.205217317600649 -9.9437574896562833 #
straight-curve $-1 -65.836970122379228 0 9.9437574896562833 0 -1 0 I I #
point $-1 -65.836970122379228 40.205217317600649 9.9437574896562833 #
point $-1 -65.836970122379228 -40.205217317600649 9.9437574896562833 #
straight-curve $-1 65.836970122379228 -40.205217317600649 0 0 0 -1 I I #
straight-curve $-1 65.836970122379228 40.205217317600649 0 0 0 -1 I I #
plane-surface $-1 65.836970122379228 0 0 -1 0 0 0 0 1 forward_v I I I I #
coedge $-1 $534 $533 $544 $694 reversed $237 $-1 #
coedge $-1 $770 $537 $534 $685 forward $531 $-1 #
edge $-1 $686 29.962021234536557 $771 40.205217317600649 $534 $772 forward 7 unknown #
vertex $-1 $685 $773 #
straight-curve $-1 -65.836970122379228 -29.962021234536557 3.5251981357758959 0 0 -1 I I #
coedge $-1 $537 $770 $539 $690 forward $531 $-1 #
straight-curve $-1 0 -29.962021234536557 9.9437574896562833 -1 0 0 I I #
edge $-1 $697 -40.205217317600649 $540 -29.962021234536557 $539 $774 forward 7 unknown #
point $-1 65.836970122379228 -29.962021234536557 9.943757489656285 #
straight-curve $-1 -65.836970122379228 -17.541809638034302 4.1570350534472995 0 -1 0 I I #
coedge $-1 $544 $543 $770 $775 reversed $380 $-1 #
edge $-1 $771 -9.9437574896562833 $545 -4.1570350534472995 $683 $776 forward 7 unknown #
point $-1 -65.836970122379228 -40.205217317600649 4.1570350534472995 #
point $-1 -65.836970122379228 -29.962021234536557 4.1570350534472995 #
vertex $-1 $690 $777 #
straight-curve $-1 65.836970122379228 -40.205217317600649 0 0 0 -1 I I #
coedge $-1 $553 $561 $554 $701 forward $397 $-1 #
edge $-1 $703 -17.275145473735712 $562 -8.098606047865978 $553 $778 forward 7 unknown #
edge $-1 $707 -65.836970122379228 $703 -62.941878361324477 $699 $779 forward 7 unknown #
edge $-1 $559 1.4041131520104129 $707 6.4185593538803891 $558 $780 forward 7 unknown #
vertex $-1 $556 $781 #
straight-curve $-1 -57.148120936428001 -29.962021234536557 19.978840074825715 0.49999998660252726 0 0.86602541151947299 I I #
point $-1 -65.836970122379228 -29.962021234536557 4.9293112877863088 #
point $-1 -62.94187836132447 -20.785481808666823 9.9437574896562833 #
vertex $-1 $702 $782 #
straight-curve $-1 -65.836970122379228 0 9.9437574896562833 0 -1 0 I I #
vertex $-1 $568 $783 #
point $-1 -63.273398837031117 -28.12671334936261 7.3695471078785175 #
vertex $-1 $572 $784 #
point $-1 -63.273398837031117 -25.37375152160169 7.3695471078785175 #
vertex $-1 $576 $785 #
point $-1 -63.273398837031117 -22.62078969384077 7.3695471078785175 #
coedge $-1 $716 $582 $722 $786 reversed $425 $-1 #
coedge $-1 $582 $715 $585 $720 reversed $425 $-1 #
edge $-1 $718 -22.396743515267762 $590 -13.220204089398027 $589 $787 forward 7 unknown #
vertex $-1 $584 $788 #
straight-curve $-1 -58.674576478638201 40.205217317600649 17.334941425765049 -0.49999998660252726 0 -0.86602541151947299 I I #
edge $-1 $586 62.94187836132447 $724 65.836970122379228 $716 $789 forward 7 unknown #
point $-1 -62.94187836132447 40.205217317600656 9.9437574896562833 #
coedge $-1 $589 $588 $715 $786 forward $580 $-1 #
point $-1 -65.836970122379228 31.028677891730922 4.9293112877863088 #
vertex $-1 $720 $790 #
straight-curve $-1 -65.836970122379228 0 9.9437574896562833 0 -1 0 I I #
vertex $-1 $596 $791 #
point $-1 -63.273398837031117 32.863985776904862 7.3695471078785175 #
vertex $-1 $600 $792 #
point $-1 -63.273398837031117 35.616947604665789 7.3695471078785175 #
vertex $-1 $604 $793 #
point $-1 -63.273398837031117 38.369909432426702 7.3695471078785175 #
coedge $-1 $734 $617 $611 $733 forward $608 $-1 #
edge $-1 $619 62.941878361324449 $741 65.836970122379228 $732 $794 forward 7 unknown #
coedge $-1 $612 $732 $614 $736 forward $608 $-1 #
straight-curve $-1 57.016490025477722 -20.785481808666823 9.9437574896562779 -1 0 0 I I #
edge $-1 $741 -29.962021234536557 $615 -20.785481808666823 $614 $795 forward 7 unknown #
point $-1 65.836970122379228 -20.785481808666823 9.9437574896562833 #
straight-curve $-1 62.941878361324456 -12.686875760800845 9.9437574896562779 0 -1 0 I I #
point $-1 62.941878361324449 -29.962021234536557 9.9437574896562779 #
point $-1 62.941878361324449 -20.785481808666823 9.9437574896562779 #
vertex $-1 $736 $796 #
straight-curve $-1 65.836970122379228 -29.962021234536557 3.5251981357758959 0 0 -1 I I #
vertex $-1 $626 $797 #
point $-1 63.773398823633656 -28.12671334936261 6.5035216963590274 #
vertex $-1 $630 $798 #
point $-1 63.773398823633656 -25.37375152160169 6.5035216963590274 #
vertex $-1 $634 $799 #
point $-1 63.773398823633656 -22.62078969384077 6.5035216963590274 #
edge $-1 $752 -22.396743515267762 $648 -13.220204089398027 $647 $800 forward 7 unknown #
coedge $-1 $751 $641 $756 $801 reversed $638 $-1 #
coedge $-1 $641 $750 $643 $754 forward $638 $-1 #
vertex $-1 $642 $802 #
straight-curve $-1 25.756092299497588 40.205217317600649 74.351430569193752 -0.49999998660252726 0 0.86602541151947299 I I #
edge $-1 $758 -9.9437574896562833 $644 -4.9293112877862626 $643 $803 forward 7 unknown #
point $-1 65.836970122379228 40.205217317600656 4.9293112877862626 #
coedge $-1 $647 $646 $750 $801 forward $478 $-1 #
point $-1 62.941878361324449 31.028677891730922 9.9437574896562779 #
vertex $-1 $651 $804 #
straight-curve $-1 65.836970122379228 0 9.9437574896562833 0 1 0 I I #
vertex $-1 $654 $805 #
point $-1 63.773398823633656 32.863985776904862 6.5035216963590274 #
vertex $-1 $658 $806 #
point $-1 63.773398823633656 35.616947604665789 6.5035216963590274 #
vertex $-1 $662 $807 #
point $-1 63.773398823633656 38.369909432426702 6.5035216963590274 #
straight-curve $-1 -65.836970122379228 40.205217317600649 0 0 0 -1 I I #
point $-1 -65.836970122379228 -40.205217317600649 -9.9437574896562833 #
straight-curve $-1 -65.836970122379228 0 -9.9437574896562833 0 1 0 I I #
point $-1 -65.836970122379228 40.205217317600649 -9.9437574896562833 #
coedge $-1 $688 $684 $693 $775 forward $531 $-1 #
vertex $-1 $685 $808 #
straight-curve $-1 -65.836970122379228 0 9.9437574896562833 0 -1 0 I I #
point $-1 -65.836970122379228 -29.962021234536557 9.943757489656285 #
straight-curve $-1 65.836970122379228 0 9.9437574896562833 0 1 0 I I #
edge $-1 $771 -65.836970122379228 $697 65.836970122379228 $693 $809 forward 7 unknown #
straight-curve $-1 -65.836970122379228 -40.205217317600649 0 0 0 -1 I I #
point $-1 65.836970122379228 -40.205217317600649 9.9437574896562833 #
straight-curve $-1 -62.94187836132447 -12.686875760800845 9.9437574896562833 0 1 0 I I #
straight-curve $-1 0 -29.962021234536557 9.9437574896562833 1 0 0 I I #
straight-curve $-1 -65.836970122379228 -29.962021234536557 3.5251981357758959 0 0 1 I I #
point $-1 -62.941878361324477 -29.962021234536557 9.9437574896562833 #
point $-1 -65.836970122379228 -29.962021234536557 9.943757489656285 #
point $-1 -63.090386124572646 -28.12671334936261 6.6865344088175176 #
point $-1 -63.090386124572646 -25.37375152160169 6.6865344088175176 #
point $-1 -63.090386124572646 -22.62078969384077 6.6865344088175176 #
edge $-1 $724 -9.9437574896562833 $718 -4.9293112877863088 $715 $810 forward 7 unknown #
straight-curve $-1 -65.836970122379228 17.808473802332895 4.9293112877863239 0 -1 0 I I #
point $-1 -65.836970122379228 40.205217317600656 4.9293112877863088 #
straight-curve $-1 0 40.205217317600649 9.9437574896562833 -1 0 0 I I #
point $-1 -65.836970122379228 40.205217317600649 9.9437574896562833 #
point $-1 -63.090386124572646 32.863985776904862 6.6865344088175176 #
point $-1 -63.090386124572646 35.616947604665789 6.6865344088175176 #
point $-1 -63.090386124572646 38.369909432426702 6.6865344088175176 #
straight-curve $-1 0 -29.962021234536557 9.9437574896562833 1 0 0 I I #
straight-curve $-1 65.836970122379228 0 9.9437574896562833 0 1 0 I I #
point $-1 65.836970122379228 -29.962021234536557 9.943757489656285 #
point $-1 63.090386124572653 -28.12671334936261 6.6865344088174998 #
point $-1 63.090386124572653 -25.37375152160169 6.6865344088174998 #
point $-1 63.090386124572653 -22.62078969384077 6.6865344088174998 #
straight-curve $-1 62.941878361324456 17.808473802332895 9.9437574896562779 0 -1 0 I I #
edge $-1 $758 -65.836970122379228 $752 -62.941878361324449 $750 $811 forward 7 unknown #
point $-1 62.941878361324449 40.205217317600656 9.9437574896562779 #
straight-curve $-1 65.836970122379228 40.205217317600649 0 0 0 -1 I I #
point $-1 65.836970122379228 40.205217317600649 9.9437574896562833 #
point $-1 63.090386124572653 32.863985776904862 6.6865344088174998 #
point $-1 63.090386124572653 35.616947604665789 6.6865344088174998 #
point $-1 63.090386124572653 38.369909432426702 6.6865344088174998 #
point $-1 -65.836970122379228 -40.205217317600649 9.9437574896562833 #
straight-curve $-1 0 -40.205217317600649 9.9437574896562833 1 0 0 I I #
straight-curve $-1 -65.836970122379228 40.205217317600649 0 0 0 -1 I I #
straight-curve $-1 0 40.205217317600649 9.9437574896562833 -1 0 0 I I #
End-of-ACIS-data 