500 0 4 0           
7 Unknown 11 ACIS 5.0 NT 24 Fri Mar 26 18:40:10 1999 
-1 9.9999999999999995e-007 1e-010 
body $-1 $4 $-1 $5 #
body $-1 $6 $-1 $7 #
body $-1 $8 $-1 $9 #
body $-1 $10 $-1 $11 #
lump $-1 $-1 $12 $0 #
transform $-1 1 0 0 0 1 0 0 0 1 75.243995483260591 41.913617455325955 16.572552499502642 1 rotate no_reflect no_shear #
lump $-1 $-1 $13 $1 #
transform $-1 1 0 0 0 1 0 0 0 1 75.243995483260591 41.913617455325955 16.572552499502642 1 rotate no_reflect no_shear #
lump $-1 $-1 $14 $2 #
transform $-1 1 0 0 0 1 0 0 0 1 75.243995483260591 41.913617455325955 16.572552499502642 1 rotate no_reflect no_shear #
lump $-1 $-1 $15 $3 #
transform $-1 1 0 0 0 1 0 0 0 1 75.243995483260591 41.913617455325955 16.572552499502642 1 rotate no_reflect no_shear #
shell $-1 $-1 $-1 $16 $-1 $4 #
shell $-1 $-1 $-1 $17 $-1 $6 #
shell $-1 $-1 $-1 $18 $-1 $8 #
shell $-1 $-1 $-1 $19 $-1 $10 #
face $-1 $20 $21 $12 $-1 $22 forward single #
face $-1 $23 $24 $13 $-1 $25 reversed single #
face $-1 $26 $27 $14 $-1 $28 forward single #
face $-1 $29 $30 $15 $-1 $31 reversed single #
face $-1 $32 $33 $12 $-1 $34 reversed single #
loop $-1 $-1 $35 $16 #
plane-surface $-1 0 0 16.572552499502642 0 0 1 1 0 0 forward_v I I I I #
face $-1 $36 $37 $13 $-1 $38 forward single #
loop $-1 $-1 $39 $17 #
plane-surface $-1 0 -36.338691110705824 -6.3775665117223452 0 0 1 1 0 0 forward_v I I I I #
face $-1 $40 $41 $14 $-1 $42 forward single #
loop $-1 $-1 $43 $18 #
plane-surface $-1 -169.94915798262349 14.293948851934051 121.04646800564461 0 1 0 -0.62932039886446345 0 0.77714595512881146 forward_v I I I I #
face $-1 $44 $45 $15 $-1 $46 reversed single #
loop $-1 $47 $48 $19 #
cone-surface $-1 -65.87760589817583 21.91157742245705 8.2811131979330916 0.62932039886446345 0 -0.77714595512881146 1.5542919102576229 0 1.2586407977289269 1 I I 0 1 2 forward I I I I #
face $-1 $49 $50 $12 $-1 $51 reversed single #
loop $-1 $-1 $52 $20 #
plane-surface $-1 0 0 -16.572552499502642 0 0 1 1 0 0 forward_v I I I I #
coedge $-1 $53 $54 $55 $56 forward $21 $-1 #
face $-1 $57 $58 $13 $-1 $59 forward single #
loop $-1 $-1 $60 $23 #
plane-surface $-1 0 -36.338691110705824 -13.690286857475964 0 0 1 1 0 0 forward_v I I I I #
coedge $-1 $61 $62 $63 $64 reversed $24 $-1 #
face $-1 $65 $66 $14 $-1 $67 forward single #
loop $-1 $-1 $68 $26 #
plane-surface $-1 -75.243995483260605 21.91157742245705 4.0953345305515541 -0.62932039886446345 0 0.77714595512881146 0.77714595512881146 0 0.62932039886446345 forward_v I I I I #
coedge $-1 $69 $70 $71 $72 reversed $27 $-1 #
face $-1 $73 $74 $15 $-1 $75 forward single #
loop $-1 $76 $77 $29 #
cone-surface $-1 -63.585936251491468 21.91157742245705 5.45113692571028 0.62932039886446345 0 -0.77714595512881146 0.77714595512881146 0 0.62932039886446345 1 I I -0.70710678118654746 0.70710678118654746 1 forward I I I I #
loop $-1 $-1 $78 $19 #
coedge $-1 $48 $48 $79 $80 reversed $30 $-1 #
face $-1 $81 $82 $12 $-1 $83 reversed single #
loop $-1 $-1 $84 $32 #
plane-surface $-1 0 -41.913617455325955 0 0 1 0 0 0 1 forward_v I I I I #
coedge $-1 $85 $86 $87 $88 forward $33 $-1 #
coedge $-1 $89 $35 $90 $91 forward $21 $-1 #
coedge $-1 $35 $89 $92 $93 forward $21 $-1 #
coedge $-1 $94 $95 $35 $56 reversed $96 $-1 #
edge $-1 $97 -41.913617455325955 $98 41.913617455325955 $55 $99 forward 7 unknown #
face $-1 $100 $101 $13 $-1 $102 reversed single #
loop $-1 $-1 $103 $36 #
plane-surface $-1 0 -30.763764766085693 -10.033926684599155 0 -1 0 0 0 -1 forward_v I I I I #
coedge $-1 $104 $105 $106 $107 reversed $37 $-1 #
coedge $-1 $108 $39 $109 $110 reversed $24 $-1 #
coedge $-1 $39 $108 $111 $112 reversed $24 $-1 #
coedge $-1 $113 $114 $39 $64 forward $101 $-1 #
edge $-1 $115 -23.744271899973043 $116 -12.594419210732781 $63 $117 forward 7 unknown #
face $-1 $118 $119 $14 $-1 $120 forward single #
loop $-1 $-1 $121 $40 #
plane-surface $-1 -169.94915798262349 29.529205992980049 121.04646800564461 0 -1 0 0.62932039886446345 0 -0.77714595512881146 forward_v I I I I #
coedge $-1 $122 $123 $124 $125 reversed $41 $-1 #
coedge $-1 $70 $43 $123 $126 forward $27 $-1 #
coedge $-1 $43 $69 $127 $128 reversed $27 $-1 #
coedge $-1 $129 $124 $43 $72 forward $119 $-1 #
edge $-1 $130 -25.13866418258084 $131 -9.7305835080511542 $71 $132 forward 7 unknown #
face $-1 $133 $134 $15 $-1 $135 forward single #
loop $-1 $-1 $136 $44 #
plane-surface $-1 -169.94915798262349 14.293948851934051 121.04646800564461 0 1 0 -0.62932039886446345 0 0.77714595512881146 forward_v I I I I #
loop $-1 $-1 $137 $29 #
coedge $-1 $77 $77 $78 $138 forward $45 $-1 #
coedge $-1 $78 $78 $77 $138 reversed $47 $-1 #
coedge $-1 $79 $79 $48 $80 forward $134 $-1 #
edge $-1 $139 0 $139 6.2831853071796004 $79 $140 forward 7 unknown #
face $-1 $141 $142 $12 $-1 $143 reversed single #
loop $-1 $-1 $144 $49 #
plane-surface $-1 -75.243995483260591 0 0 1 0 0 0 0 -1 forward_v I I I I #
coedge $-1 $145 $92 $146 $147 forward $50 $-1 #
coedge $-1 $148 $52 $145 $149 forward $33 $-1 #
coedge $-1 $52 $148 $150 $151 forward $33 $-1 #
coedge $-1 $95 $94 $52 $88 reversed $96 $-1 #
edge $-1 $152 -41.913617455325955 $153 41.913617455325955 $87 $154 forward 7 unknown #
coedge $-1 $54 $53 $155 $156 forward $21 $-1 #
coedge $-1 $157 $158 $53 $91 reversed $142 $-1 #
edge $-1 $98 -75.243995483260591 $159 75.243995483260591 $90 $160 forward 7 unknown #
coedge $-1 $84 $161 $54 $93 reversed $50 $-1 #
edge $-1 $162 -75.243995483260591 $97 75.243995483260591 $92 $163 forward 7 unknown #
coedge $-1 $87 $55 $161 $164 forward $96 $-1 #
coedge $-1 $55 $87 $157 $165 reversed $96 $-1 #
loop $-1 $-1 $94 $141 #
vertex $-1 $56 $166 #
vertex $-1 $56 $167 #
straight-curve $-1 75.243995483260591 0 16.572552499502642 0 1 0 I I #
face $-1 $168 $169 $13 $-1 $170 reversed single #
loop $-1 $-1 $63 $57 #
plane-surface $-1 75.243995483260591 0 0 -1 0 0 0 0 1 forward_v I I I I #
coedge $-1 $111 $171 $113 $172 reversed $58 $-1 #
coedge $-1 $173 $60 $171 $174 reversed $37 $-1 #
coedge $-1 $60 $173 $175 $176 reversed $37 $-1 #
coedge $-1 $177 $113 $60 $107 forward $101 $-1 #
edge $-1 $178 12.594419210732781 $179 23.744271899973043 $106 $180 forward 7 unknown #
coedge $-1 $62 $61 $181 $182 reversed $24 $-1 #
coedge $-1 $183 $184 $61 $110 forward $185 $-1 #
edge $-1 $186 -75.243995483260591 $115 75.243995483260591 $109 $187 forward 7 unknown #
coedge $-1 $188 $103 $62 $112 forward $58 $-1 #
edge $-1 $116 -75.243995483260591 $189 75.243995483260591 $111 $190 forward 7 unknown #
coedge $-1 $106 $63 $103 $172 forward $101 $-1 #
coedge $-1 $63 $191 $183 $192 forward $101 $-1 #
vertex $-1 $110 $193 #
vertex $-1 $64 $194 #
straight-curve $-1 75.243995483260591 -18.169345555352912 -6.3775665117223452 0 1 0 I I #
face $-1 $195 $196 $14 $-1 $197 reversed single #
loop $-1 $-1 $198 $65 #
plane-surface $-1 0 0 16.572552499502642 0 0 1 1 0 0 forward_v I I I I #
coedge $-1 $199 $200 $198 $201 reversed $66 $-1 #
coedge $-1 $202 $68 $200 $203 reversed $41 $-1 #
coedge $-1 $68 $202 $69 $126 reversed $41 $-1 #
coedge $-1 $71 $198 $68 $125 forward $119 $-1 #
edge $-1 $204 -18.573417281751524 $130 -3.3381601407055257 $124 $205 forward 7 unknown #
edge $-1 $130 -19.826495361448313 $206 -1.8310242626372826e-014 $69 $207 forward 7 unknown #
coedge $-1 $208 $209 $70 $128 forward $210 $-1 #
edge $-1 $131 43.950681503319665 $206 56.427899472270738 $127 $211 forward 7 unknown #
coedge $-1 $212 $71 $209 $213 forward $119 $-1 #
vertex $-1 $125 $214 #
vertex $-1 $213 $215 #
straight-curve $-1 -84.974578991311745 14.293948851934051 16.572552499502642 -1 0 0 I I #
face $-1 $216 $217 $15 $-1 $218 forward single #
loop $-1 $219 $79 $73 #
plane-surface $-1 -75.243995483260605 21.91157742245705 4.0953345305515541 -0.62932039886446345 0 0.77714595512881146 0.77714595512881146 0 0.62932039886446345 forward_v I I I I #
coedge $-1 $220 $221 $222 $223 reversed $74 $-1 #
coedge $-1 $137 $137 $-1 $224 forward $76 $-1 #
edge $-1 $225 0 $225 6.2831853071796004 $77 $226 forward 7 unknown #
vertex $-1 $80 $227 #
ellipse-curve $-1 -67.539955145995748 21.91157742245705 10.333943515027107 0.62932039886446345 0 -0.77714595512881146 1.5542919102576229 0 1.2586407977289269 1 I I #
face $-1 $-1 $96 $12 $-1 $228 reversed single #
loop $-1 $-1 $157 $81 #
plane-surface $-1 0 41.913617455325955 0 0 -1 0 0 0 -1 forward_v I I I I #
coedge $-1 $229 $155 $158 $230 forward $82 $-1 #
coedge $-1 $161 $84 $85 $149 reversed $50 $-1 #
coedge $-1 $155 $229 $84 $147 reversed $82 $-1 #
edge $-1 $162 -16.572552499502642 $231 16.572552499502642 $146 $232 forward 7 unknown #
coedge $-1 $86 $85 $229 $233 forward $33 $-1 #
edge $-1 $153 -75.243995483260591 $231 75.243995483260591 $145 $234 forward 7 unknown #
coedge $-1 $158 $157 $86 $151 reversed $142 $-1 #
edge $-1 $235 -75.243995483260591 $152 75.243995483260591 $150 $236 forward 7 unknown #
vertex $-1 $88 $237 #
vertex $-1 $164 $238 #
straight-curve $-1 75.243995483260591 0 -16.572552499502642 0 -1 0 I I #
coedge $-1 $144 $146 $89 $156 reversed $82 $-1 #
edge $-1 $159 -41.913617455325955 $162 41.913617455325955 $155 $239 forward 7 unknown #
coedge $-1 $150 $90 $95 $165 forward $142 $-1 #
coedge $-1 $90 $150 $144 $230 reversed $142 $-1 #
vertex $-1 $91 $240 #
straight-curve $-1 0 41.913617455325955 16.572552499502642 -1 0 0 I I #
coedge $-1 $92 $145 $94 $164 reversed $50 $-1 #
vertex $-1 $156 $241 #
straight-curve $-1 0 -41.913617455325955 16.572552499502642 1 0 0 I I #
edge $-1 $97 -16.572552499502642 $153 16.572552499502642 $94 $242 forward 7 unknown #
edge $-1 $98 -16.572552499502642 $152 16.572552499502642 $95 $243 forward 7 unknown #
point $-1 75.243995483260591 -41.913617455325955 16.572552499502642 #
point $-1 75.243995483260591 41.913617455325955 16.572552499502642 #
face $-1 $244 $245 $13 $-1 $246 forward single #
loop $-1 $-1 $175 $100 #
plane-surface $-1 0 -41.913617455325955 0 0 1 0 0 0 1 forward_v I I I I #
coedge $-1 $103 $188 $104 $174 forward $58 $-1 #
edge $-1 $116 1.3606031694227676 $178 8.6733235151763868 $113 $247 forward 7 unknown #
coedge $-1 $105 $104 $248 $249 reversed $37 $-1 #
edge $-1 $250 -75.243995483260591 $178 75.243995483260591 $171 $251 forward 7 unknown #
coedge $-1 $252 $253 $105 $176 forward $169 $-1 #
edge $-1 $179 -75.243995483260591 $254 75.243995483260591 $175 $255 forward 7 unknown #
coedge $-1 $256 $106 $253 $257 forward $101 $-1 #
vertex $-1 $107 $258 #
vertex $-1 $257 $259 #
straight-curve $-1 75.243995483260591 -18.169345555352912 -13.690286857475964 0 -1 0 I I #
coedge $-1 $260 $261 $108 $182 forward $262 $-1 #
edge $-1 $189 12.594419210732781 $186 23.744271899973043 $181 $263 forward 7 unknown #
coedge $-1 $264 $109 $114 $192 reversed $185 $-1 #
coedge $-1 $109 $264 $260 $265 forward $185 $-1 #
loop $-1 $-1 $109 $266 #
vertex $-1 $182 $267 #
straight-curve $-1 0 -41.913617455325955 -6.3775665117223452 1 0 0 I I #
coedge $-1 $171 $111 $261 $268 reversed $58 $-1 #
vertex $-1 $182 $269 #
straight-curve $-1 0 -30.763764766085693 -6.3775665117223452 -1 0 0 I I #
coedge $-1 $114 $270 $271 $272 reversed $101 $-1 #
edge $-1 $273 -16.572552499502642 $115 6.3775665117223452 $114 $274 forward 7 unknown #
point $-1 75.243995483260591 -41.913617455325955 -6.3775665117223452 #
point $-1 75.243995483260591 -30.763764766085693 -6.3775665117223452 #
face $-1 $275 $276 $14 $-1 $277 forward single #
loop $-1 $-1 $278 $118 #
plane-surface $-1 0 -36.338691110705824 -6.3775665117223452 0 0 1 1 0 0 forward_v I I I I #
coedge $-1 $124 $279 $121 $201 forward $119 $-1 #
coedge $-1 $200 $121 $280 $281 reversed $66 $-1 #
coedge $-1 $121 $199 $122 $203 forward $66 $-1 #
edge $-1 $282 9.7305835080511542 $204 25.13866418258084 $198 $283 forward 7 unknown #
coedge $-1 $123 $122 $208 $284 reversed $41 $-1 #
edge $-1 $285 1.8310242626372826e-014 $204 19.826495361448313 $200 $286 forward 7 unknown #
vertex $-1 $125 $287 #
straight-curve $-1 -59.835914808730905 10.955788711228525 16.572552499502642 0 -1 0 I I #
vertex $-1 $284 $288 #
straight-curve $-1 -75.243995483260605 14.293948851934051 4.0953345305515541 -0.77714595512881146 0 -0.62932039886446345 I I #
coedge $-1 $280 $127 $202 $284 forward $210 $-1 #
coedge $-1 $127 $289 $129 $213 reversed $210 $-1 #
loop $-1 $-1 $280 $290 #
straight-curve $-1 -75.243995483260591 14.293948851934051 60.523234002822306 0 0 -1 I I #
coedge $-1 $291 $129 $292 $293 forward $119 $-1 #
edge $-1 $131 -14.293948851934051 $294 41.913617455325955 $209 $295 forward 7 unknown #
point $-1 -59.835914808730905 14.293948851934051 16.572552499502642 #
point $-1 -75.243995483260591 14.293948851934051 16.572552499502642 #
face $-1 $296 $297 $15 $-1 $298 forward single #
loop $-1 $-1 $299 $133 #
plane-surface $-1 -169.94915798262349 29.529205992980049 121.04646800564461 0 -1 0 0.62932039886446345 0 -0.77714595512881146 forward_v I I I I #
loop $-1 $-1 $300 $73 #
coedge $-1 $221 $136 $301 $302 forward $74 $-1 #
coedge $-1 $136 $220 $303 $304 reversed $74 $-1 #
coedge $-1 $305 $306 $136 $223 forward $297 $-1 #
edge $-1 $307 -25.13866418258084 $308 -9.7305835080511542 $222 $309 forward 7 unknown #
edge $-1 $310 1 $310 0 $137 $-1 forward 7 unknown #
vertex $-1 $138 $311 #
ellipse-curve $-1 -64.215256650355926 21.91157742245705 6.2282828808390915 -0.62932039886446345 0 0.77714595512881146 1.5542919102576229 0 1.2586407977289269 1 I I #
point $-1 -65.985663235738116 21.91157742245705 11.592584312756021 #
plane-surface $-1 75.243995483260591 0 0 -1 0 0 0 0 1 forward_v I I I I #
coedge $-1 $146 $144 $148 $233 reversed $82 $-1 #
edge $-1 $159 -16.572552499502642 $235 16.572552499502642 $158 $312 forward 7 unknown #
vertex $-1 $233 $313 #
straight-curve $-1 -75.243995483260591 -41.913617455325955 0 0 0 -1 I I #
edge $-1 $231 -41.913617455325955 $235 41.913617455325955 $229 $314 forward 7 unknown #
straight-curve $-1 0 -41.913617455325955 -16.572552499502642 -1 0 0 I I #
vertex $-1 $151 $315 #
straight-curve $-1 0 41.913617455325955 -16.572552499502642 1 0 0 I I #
point $-1 75.243995483260591 41.913617455325955 -16.572552499502642 #
point $-1 75.243995483260591 -41.913617455325955 -16.572552499502642 #
straight-curve $-1 -75.243995483260591 0 16.572552499502642 0 -1 0 I I #
point $-1 -75.243995483260591 41.913617455325955 16.572552499502642 #
point $-1 -75.243995483260591 -41.913617455325955 16.572552499502642 #
straight-curve $-1 75.243995483260591 -41.913617455325955 0 0 0 -1 I I #
straight-curve $-1 75.243995483260591 41.913617455325955 0 0 0 -1 I I #
face $-1 $266 $316 $13 $-1 $317 reversed single #
loop $-1 $-1 $271 $168 #
plane-surface $-1 0 0 16.572552499502642 0 0 1 1 0 0 forward_v I I I I #
straight-curve $-1 75.243995483260591 -30.763764766085693 -5.0169633422995776 0 0 -1 I I #
coedge $-1 $261 $318 $173 $249 forward $262 $-1 #
edge $-1 $254 -23.744271899973043 $250 -12.594419210732781 $248 $319 forward 7 unknown #
vertex $-1 $249 $320 #
straight-curve $-1 0 -30.763764766085693 -13.690286857475964 1 0 0 I I #
coedge $-1 $321 $175 $318 $322 forward $169 $-1 #
coedge $-1 $175 $321 $177 $257 reversed $169 $-1 #
vertex $-1 $322 $323 #
straight-curve $-1 0 -41.913617455325955 -13.690286857475964 -1 0 0 I I #
coedge $-1 $270 $177 $324 $325 reversed $101 $-1 #
edge $-1 $179 13.690286857475964 $326 16.572552499502642 $177 $274 forward 7 unknown #
point $-1 75.243995483260591 -30.763764766085693 -13.690286857475964 #
point $-1 75.243995483260591 -41.913617455325955 -13.690286857475964 #
coedge $-1 $327 $181 $184 $265 reversed $262 $-1 #
coedge $-1 $181 $248 $188 $268 forward $262 $-1 #
loop $-1 $-1 $181 $328 #
straight-curve $-1 -75.243995483260591 -18.169345555352912 -6.3775665117223452 0 -1 0 I I #
coedge $-1 $184 $183 $329 $330 reversed $185 $-1 #
edge $-1 $331 -16.572552499502642 $186 6.3775665117223452 $260 $332 forward 7 unknown #
face $-1 $328 $185 $13 $-1 $170 reversed single #
point $-1 -75.243995483260591 -41.913617455325955 -6.3775665117223452 #
edge $-1 $250 -8.6733235151763868 $189 -1.3606031694227676 $261 $333 forward 7 unknown #
point $-1 -75.243995483260591 -30.763764766085693 -6.3775665117223452 #
coedge $-1 $191 $256 $334 $335 reversed $101 $-1 #
coedge $-1 $336 $329 $191 $272 forward $245 $-1 #
edge $-1 $273 -41.913617455325955 $337 41.913617455325955 $191 $338 forward 7 unknown #
vertex $-1 $272 $339 #
straight-curve $-1 75.243995483260591 -41.913617455325955 0 0 0 -1 I I #
face $-1 $340 $341 $14 $-1 $342 forward single #
loop $-1 $-1 $343 $195 #
plane-surface $-1 0 -36.338691110705824 -13.690286857475964 0 0 1 1 0 0 forward_v I I I I #
coedge $-1 $344 $345 $346 $347 reversed $196 $-1 #
coedge $-1 $198 $348 $349 $350 forward $119 $-1 #
coedge $-1 $349 $208 $199 $281 forward $210 $-1 #
edge $-1 $285 -56.427899472270738 $282 -43.950681503319665 $280 $351 forward 7 unknown #
vertex $-1 $281 $352 #
straight-curve $-1 -84.974578991311745 29.529205992980049 16.572552499502642 1 0 0 I I #
edge $-1 $206 3.3381601407055257 $285 18.573417281751524 $208 $353 forward 7 unknown #
vertex $-1 $284 $354 #
straight-curve $-1 -75.243995483260605 29.529205992980049 4.0953345305515541 0.77714595512881146 0 0.62932039886446345 I I #
point $-1 -59.835914808730905 29.529205992980049 16.572552499502642 #
point $-1 -75.243995483260591 14.293948851934051 4.0953345305515656 #
coedge $-1 $209 $355 $356 $357 reversed $210 $-1 #
face $-1 $358 $210 $14 $-1 $359 reversed single #
coedge $-1 $348 $212 $360 $361 forward $119 $-1 #
coedge $-1 $356 $362 $212 $293 reversed $363 $-1 #
edge $-1 $294 -75.243995483260591 $364 75.243995483260591 $292 $365 forward 7 unknown #
vertex $-1 $213 $366 #
straight-curve $-1 -75.243995483260591 0 16.572552499502642 0 -1 0 I I #
face $-1 $367 $368 $15 $-1 $369 reversed single #
loop $-1 $-1 $370 $216 #
plane-surface $-1 0 0 16.572552499502642 0 0 1 1 0 0 forward_v I I I I #
coedge $-1 $371 $372 $370 $373 reversed $217 $-1 #
coedge $-1 $374 $301 $306 $375 reversed $219 $-1 #
coedge $-1 $300 $376 $220 $302 reversed $219 $-1 #
edge $-1 $307 -19.826495361448313 $377 -1.8310242626372826e-014 $220 $378 forward 7 unknown #
coedge $-1 $379 $380 $221 $304 forward $381 $-1 #
edge $-1 $308 43.950681503319665 $377 56.427899472270738 $303 $382 forward 7 unknown #
coedge $-1 $383 $222 $380 $384 forward $297 $-1 #
coedge $-1 $222 $370 $300 $375 forward $297 $-1 #
vertex $-1 $375 $385 #
vertex $-1 $384 $386 #
straight-curve $-1 -84.974578991311745 14.293948851934051 16.572552499502642 -1 0 0 I I #
vertex $-1 $224 $387 #
point $-1 -62.660964740098308 21.91157742245705 7.4869236785680187 #
straight-curve $-1 -75.243995483260591 41.913617455325955 0 0 0 -1 I I #
point $-1 -75.243995483260591 -41.913617455325955 -16.572552499502642 #
straight-curve $-1 -75.243995483260591 0 -16.572552499502642 0 1 0 I I #
point $-1 -75.243995483260591 41.913617455325955 -16.572552499502642 #
loop $-1 $-1 $324 $244 #
plane-surface $-1 0 0 -16.572552499502642 0 0 1 1 0 0 forward_v I I I I #
coedge $-1 $248 $388 $252 $322 reversed $262 $-1 #
straight-curve $-1 -75.243995483260591 -18.169345555352912 -13.690286857475964 0 1 0 I I #
point $-1 -75.243995483260591 -30.763764766085693 -13.690286857475964 #
coedge $-1 $253 $252 $389 $390 reversed $169 $-1 #
edge $-1 $254 13.690286857475964 $391 16.572552499502642 $318 $332 forward 7 unknown #
point $-1 -75.243995483260591 -41.913617455325955 -13.690286857475964 #
coedge $-1 $389 $392 $256 $325 forward $316 $-1 #
edge $-1 $393 -41.913617455325955 $326 41.913617455325955 $256 $394 forward 7 unknown #
vertex $-1 $257 $395 #
coedge $-1 $396 $260 $397 $398 reversed $262 $-1 #
face $-1 $399 $262 $13 $-1 $400 reversed single #
coedge $-1 $271 $397 $264 $330 forward $245 $-1 #
edge $-1 $331 -75.243995483260591 $273 75.243995483260591 $264 $401 forward 7 unknown #
vertex $-1 $398 $402 #
straight-curve $-1 -75.243995483260591 -41.913617455325955 0 0 0 -1 I I #
straight-curve $-1 -75.243995483260591 -30.763764766085693 -5.0169633422995776 0 0 1 I I #
coedge $-1 $403 $404 $270 $335 forward $405 $-1 #
edge $-1 $337 -16.572552499502642 $393 16.572552499502642 $270 $406 forward 7 unknown #
coedge $-1 $397 $271 $404 $407 forward $245 $-1 #
vertex $-1 $272 $408 #
straight-curve $-1 75.243995483260591 0 16.572552499502642 0 1 0 I I #
point $-1 75.243995483260591 -41.913617455325955 16.572552499502642 #
face $-1 $409 $410 $14 $-1 $411 reversed single #
loop $-1 $-1 $412 $275 #
plane-surface $-1 0 -30.763764766085693 -10.033926684599155 0 -1 0 0 0 -1 forward_v I I I I #
coedge $-1 $413 $414 $415 $416 reversed $276 $-1 #
coedge $-1 $417 $278 $418 $419 reversed $196 $-1 #
coedge $-1 $278 $417 $420 $421 reversed $196 $-1 #
coedge $-1 $422 $423 $278 $347 forward $410 $-1 #
edge $-1 $424 -23.744271899973043 $425 -12.594419210732781 $346 $426 forward 7 unknown #
coedge $-1 $279 $291 $427 $428 forward $119 $-1 #
coedge $-1 $429 $280 $279 $350 reversed $210 $-1 #
edge $-1 $430 -41.913617455325955 $282 -29.529205992980049 $349 $295 forward 7 unknown #
straight-curve $-1 -75.243995483260591 29.529205992980049 60.523234002822306 0 0 1 I I #
point $-1 -75.243995483260591 29.529205992980049 16.572552499502642 #
straight-curve $-1 -75.243995483260591 10.955788711228525 4.0953345305515567 0 1 0 I I #
point $-1 -75.243995483260591 29.529205992980049 4.0953345305515656 #
coedge $-1 $289 $431 $417 $432 forward $210 $-1 #
coedge $-1 $418 $292 $289 $357 forward $363 $-1 #
edge $-1 $294 -16.572552499502642 $433 6.3775665117223452 $289 $434 forward 7 unknown #
face $-1 $-1 $435 $14 $-1 $436 reversed single #
plane-surface $-1 -75.243995483260591 0 0 1 0 0 0 0 -1 forward_v I I I I #
coedge $-1 $423 $437 $291 $361 reversed $410 $-1 #
edge $-1 $364 -41.913617455325955 $438 41.913617455325955 $360 $439 forward 7 unknown #
coedge $-1 $292 $418 $423 $440 reversed $363 $-1 #
loop $-1 $-1 $418 $441 #
vertex $-1 $361 $442 #
straight-curve $-1 0 -41.913617455325955 16.572552499502642 1 0 0 I I #
point $-1 -75.243995483260591 -41.913617455325955 16.572552499502642 #
face $-1 $443 $444 $15 $-1 $445 forward single #
loop $-1 $-1 $446 $296 #
plane-surface $-1 0 -36.338691110705824 -6.3775665117223452 0 0 1 1 0 0 forward_v I I I I #
coedge $-1 $306 $447 $299 $373 forward $297 $-1 #
coedge $-1 $372 $299 $448 $449 reversed $217 $-1 #
coedge $-1 $299 $371 $374 $450 forward $217 $-1 #
edge $-1 $451 9.7305835080511542 $452 25.13866418258084 $370 $453 forward 7 unknown #
coedge $-1 $376 $300 $372 $450 reversed $219 $-1 #
edge $-1 $452 -18.573417281751524 $307 -3.3381601407055257 $306 $454 forward 7 unknown #
coedge $-1 $301 $374 $379 $455 reversed $219 $-1 #
vertex $-1 $455 $456 #
straight-curve $-1 -75.243995483260605 14.293948851934051 4.0953345305515541 -0.77714595512881146 0 -0.62932039886446345 I I #
coedge $-1 $448 $303 $376 $455 forward $381 $-1 #
coedge $-1 $303 $457 $305 $384 reversed $381 $-1 #
loop $-1 $-1 $448 $458 #
straight-curve $-1 -75.243995483260591 14.293948851934051 60.523234002822306 0 0 -1 I I #
coedge $-1 $459 $305 $460 $461 forward $297 $-1 #
edge $-1 $308 -14.293948851934051 $462 41.913617455325955 $380 $463 forward 7 unknown #
point $-1 -59.835914808730905 14.293948851934051 16.572552499502642 #
point $-1 -75.243995483260591 14.293948851934051 16.572552499502642 #
point $-1 -62.956615852627003 21.91157742245705 4.6739909705814684 #
coedge $-1 $318 $396 $464 $465 reversed $262 $-1 #
coedge $-1 $464 $324 $321 $390 forward $316 $-1 #
edge $-1 $326 -75.243995483260591 $391 75.243995483260591 $321 $466 forward 7 unknown #
vertex $-1 $465 $467 #
coedge $-1 $324 $464 $403 $468 forward $316 $-1 #
vertex $-1 $325 $469 #
straight-curve $-1 75.243995483260591 0 -16.572552499502642 0 -1 0 I I #
point $-1 75.243995483260591 -41.913617455325955 -16.572552499502642 #
coedge $-1 $388 $327 $470 $471 forward $262 $-1 #
coedge $-1 $329 $336 $327 $398 forward $245 $-1 #
edge $-1 $472 -41.913617455325955 $331 41.913617455325955 $327 $473 forward 7 unknown #
face $-1 $-1 $405 $13 $-1 $474 reversed single #
plane-surface $-1 -75.243995483260591 0 0 1 0 0 0 0 -1 forward_v I I I I #
straight-curve $-1 0 -41.913617455325955 16.572552499502642 1 0 0 I I #
point $-1 -75.243995483260591 -41.913617455325955 16.572552499502642 #
coedge $-1 $470 $334 $392 $468 reversed $405 $-1 #
coedge $-1 $334 $470 $336 $407 reversed $405 $-1 #
loop $-1 $-1 $334 $399 #
straight-curve $-1 75.243995483260591 41.913617455325955 0 0 0 -1 I I #
edge $-1 $337 -75.243995483260591 $472 75.243995483260591 $404 $475 forward 7 unknown #
point $-1 75.243995483260591 41.913617455325955 16.572552499502642 #
face $-1 $476 $477 $14 $-1 $478 reversed single #
loop $-1 $-1 $346 $340 #
plane-surface $-1 75.243995483260591 0 0 -1 0 0 0 0 1 forward_v I I I I #
coedge $-1 $420 $479 $422 $480 reversed $341 $-1 #
coedge $-1 $481 $343 $479 $482 reversed $276 $-1 #
coedge $-1 $343 $481 $483 $484 reversed $276 $-1 #
coedge $-1 $485 $422 $343 $416 forward $410 $-1 #
edge $-1 $486 12.594419210732781 $487 23.744271899973043 $415 $488 forward 7 unknown #
coedge $-1 $345 $344 $355 $432 reversed $196 $-1 #
coedge $-1 $362 $356 $344 $419 forward $363 $-1 #
edge $-1 $433 -75.243995483260591 $424 75.243995483260591 $418 $489 forward 7 unknown #
coedge $-1 $490 $412 $345 $421 forward $341 $-1 #
edge $-1 $425 -75.243995483260591 $491 75.243995483260591 $420 $492 forward 7 unknown #
coedge $-1 $415 $346 $412 $480 forward $410 $-1 #
coedge $-1 $346 $360 $362 $440 forward $410 $-1 #
vertex $-1 $419 $493 #
vertex $-1 $347 $494 #
straight-curve $-1 75.243995483260591 -18.169345555352912 -6.3775665117223452 0 1 0 I I #
coedge $-1 $495 $496 $348 $428 reversed $435 $-1 #
edge $-1 $438 -75.243995483260591 $430 75.243995483260591 $427 $497 forward 7 unknown #
coedge $-1 $498 $349 $496 $499 forward $210 $-1 #
vertex $-1 $428 $500 #
coedge $-1 $355 $501 $490 $502 forward $210 $-1 #
edge $-1 $491 12.594419210732781 $433 23.744271899973043 $355 $503 forward 7 unknown #
vertex $-1 $432 $504 #
straight-curve $-1 -75.243995483260591 -41.913617455325955 0 0 0 -1 I I #
loop $-1 $-1 $495 $358 #
plane-surface $-1 0 41.913617455325955 0 0 -1 0 0 0 -1 forward_v I I I I #
coedge $-1 $360 $505 $495 $506 reversed $410 $-1 #
vertex $-1 $361 $507 #
straight-curve $-1 75.243995483260591 0 16.572552499502642 0 1 0 I I #
edge $-1 $364 -16.572552499502642 $424 6.3775665117223452 $423 $508 forward 7 unknown #
face $-1 $290 $363 $14 $-1 $478 reversed single #
point $-1 75.243995483260591 -41.913617455325955 16.572552499502642 #
face $-1 $509 $510 $15 $-1 $511 forward single #
loop $-1 $-1 $512 $367 #
plane-surface $-1 0 -36.338691110705824 -13.690286857475964 0 0 1 1 0 0 forward_v I I I I #
coedge $-1 $513 $514 $515 $516 reversed $368 $-1 #
coedge $-1 $370 $517 $518 $519 forward $297 $-1 #
coedge $-1 $518 $379 $371 $449 forward $381 $-1 #
edge $-1 $520 -56.427899472270738 $451 -43.950681503319665 $448 $521 forward 7 unknown #
edge $-1 $520 1.8310242626372826e-014 $452 19.826495361448313 $372 $522 forward 7 unknown #
vertex $-1 $449 $523 #
vertex $-1 $375 $524 #
straight-curve $-1 -84.974578991311745 29.529205992980049 16.572552499502642 1 0 0 I I #
straight-curve $-1 -59.835914808730905 10.955788711228525 16.572552499502642 0 -1 0 I I #
edge $-1 $377 3.3381601407055257 $520 18.573417281751524 $379 $525 forward 7 unknown #
point $-1 -75.243995483260591 14.293948851934051 4.0953345305515656 #
coedge $-1 $380 $526 $527 $528 reversed $381 $-1 #
face $-1 $529 $381 $15 $-1 $530 reversed single #
coedge $-1 $517 $383 $531 $532 forward $297 $-1 #
coedge $-1 $527 $533 $383 $461 reversed $534 $-1 #
edge $-1 $462 -75.243995483260591 $535 75.243995483260591 $460 $536 forward 7 unknown #
vertex $-1 $384 $537 #
straight-curve $-1 -75.243995483260591 0 16.572552499502642 0 -1 0 I I #
coedge $-1 $392 $389 $388 $465 forward $316 $-1 #
edge $-1 $391 -41.913617455325955 $538 41.913617455325955 $388 $539 forward 7 unknown #
straight-curve $-1 0 -41.913617455325955 -16.572552499502642 -1 0 0 I I #
point $-1 -75.243995483260591 -41.913617455325955 -16.572552499502642 #
edge $-1 $538 -75.243995483260591 $393 75.243995483260591 $403 $540 forward 7 unknown #
point $-1 75.243995483260591 41.913617455325955 -16.572552499502642 #
coedge $-1 $404 $403 $396 $471 reversed $405 $-1 #
edge $-1 $472 -16.572552499502642 $538 16.572552499502642 $470 $541 forward 7 unknown #
vertex $-1 $407 $542 #
straight-curve $-1 -75.243995483260591 0 16.572552499502642 0 -1 0 I I #
plane-surface $-1 0 41.913617455325955 0 0 -1 0 0 0 -1 forward_v I I I I #
straight-curve $-1 0 41.913617455325955 16.572552499502642 -1 0 0 I I #
face $-1 $441 $543 $14 $-1 $544 reversed single #
loop $-1 $-1 $483 $409 #
plane-surface $-1 0 -41.913617455325955 0 0 1 0 0 0 1 forward_v I I I I #
coedge $-1 $412 $490 $413 $482 forward $341 $-1 #
edge $-1 $425 1.3606031694227676 $486 8.6733235151763868 $422 $545 forward 7 unknown #
coedge $-1 $414 $413 $501 $546 reversed $276 $-1 #
edge $-1 $547 -75.243995483260591 $486 75.243995483260591 $479 $548 forward 7 unknown #
coedge $-1 $549 $550 $414 $484 forward $477 $-1 #
edge $-1 $487 -75.243995483260591 $551 75.243995483260591 $483 $552 forward 7 unknown #
coedge $-1 $505 $415 $550 $553 forward $410 $-1 #
vertex $-1 $416 $554 #
vertex $-1 $553 $555 #
straight-curve $-1 75.243995483260591 -18.169345555352912 -13.690286857475964 0 -1 0 I I #
straight-curve $-1 0 -41.913617455325955 -6.3775665117223452 1 0 0 I I #
coedge $-1 $479 $420 $431 $502 reversed $341 $-1 #
vertex $-1 $432 $556 #
straight-curve $-1 0 -30.763764766085693 -6.3775665117223452 -1 0 0 I I #
point $-1 75.243995483260591 -41.913617455325955 -6.3775665117223452 #
point $-1 75.243995483260591 -30.763764766085693 -6.3775665117223452 #
coedge $-1 $557 $427 $437 $506 forward $435 $-1 #
coedge $-1 $427 $557 $429 $499 reversed $435 $-1 #
straight-curve $-1 0 41.913617455325955 16.572552499502642 -1 0 0 I I #
coedge $-1 $558 $429 $559 $560 reversed $210 $-1 #
edge $-1 $430 -16.572552499502642 $561 16.572552499502642 $496 $562 forward 7 unknown #
point $-1 -75.243995483260591 41.913617455325955 16.572552499502642 #
coedge $-1 $431 $558 $481 $546 forward $210 $-1 #
edge $-1 $547 -8.6733235151763868 $491 -1.3606031694227676 $431 $563 forward 7 unknown #
straight-curve $-1 -75.243995483260591 -18.169345555352912 -6.3775665117223452 0 -1 0 I I #
point $-1 -75.243995483260591 -41.913617455325955 -6.3775665117223452 #
coedge $-1 $437 $485 $564 $565 reversed $410 $-1 #
edge $-1 $438 -16.572552499502642 $566 16.572552499502642 $437 $567 forward 7 unknown #
point $-1 75.243995483260591 41.913617455325955 16.572552499502642 #
straight-curve $-1 75.243995483260591 -41.913617455325955 0 0 0 -1 I I #
face $-1 $568 $569 $15 $-1 $570 reversed single #
loop $-1 $-1 $571 $443 #
plane-surface $-1 0 -30.763764766085693 -10.033926684599155 0 -1 0 0 0 -1 forward_v I I I I #
coedge $-1 $572 $573 $574 $575 reversed $444 $-1 #
coedge $-1 $576 $446 $577 $578 reversed $368 $-1 #
coedge $-1 $446 $576 $579 $580 reversed $368 $-1 #
coedge $-1 $581 $582 $446 $516 forward $569 $-1 #
edge $-1 $583 -23.744271899973043 $584 -12.594419210732781 $515 $585 forward 7 unknown #
coedge $-1 $447 $459 $586 $587 forward $297 $-1 #
coedge $-1 $588 $448 $447 $519 reversed $381 $-1 #
edge $-1 $589 -41.913617455325955 $451 -29.529205992980049 $518 $463 forward 7 unknown #
vertex $-1 $455 $590 #
straight-curve $-1 -75.243995483260591 29.529205992980049 60.523234002822306 0 0 1 I I #
straight-curve $-1 -75.243995483260605 29.529205992980049 4.0953345305515541 0.77714595512881146 0 0.62932039886446345 I I #
point $-1 -75.243995483260591 29.529205992980049 16.572552499502642 #
point $-1 -59.835914808730905 29.529205992980049 16.572552499502642 #
straight-curve $-1 -75.243995483260591 10.955788711228525 4.0953345305515567 0 1 0 I I #
coedge $-1 $457 $591 $576 $592 forward $381 $-1 #
coedge $-1 $577 $460 $457 $528 forward $534 $-1 #
edge $-1 $462 -16.572552499502642 $593 6.3775665117223452 $457 $594 forward 7 unknown #
face $-1 $-1 $595 $15 $-1 $596 reversed single #
plane-surface $-1 -75.243995483260591 0 0 1 0 0 0 0 -1 forward_v I I I I #
coedge $-1 $582 $597 $459 $532 reversed $569 $-1 #
edge $-1 $535 -41.913617455325955 $598 41.913617455325955 $531 $599 forward 7 unknown #
coedge $-1 $460 $577 $582 $600 reversed $534 $-1 #
loop $-1 $-1 $577 $601 #
vertex $-1 $532 $602 #
straight-curve $-1 0 -41.913617455325955 16.572552499502642 1 0 0 I I #
point $-1 -75.243995483260591 -41.913617455325955 16.572552499502642 #
vertex $-1 $468 $603 #
straight-curve $-1 -75.243995483260591 0 -16.572552499502642 0 1 0 I I #
straight-curve $-1 0 41.913617455325955 -16.572552499502642 1 0 0 I I #
straight-curve $-1 -75.243995483260591 41.913617455325955 0 0 0 -1 I I #
point $-1 -75.243995483260591 41.913617455325955 16.572552499502642 #
loop $-1 $-1 $564 $476 #
plane-surface $-1 0 0 -16.572552499502642 0 0 1 1 0 0 forward_v I I I I #
straight-curve $-1 75.243995483260591 -30.763764766085693 -5.0169633422995776 0 0 -1 I I #
edge $-1 $551 -23.744271899973043 $547 -12.594419210732781 $501 $604 forward 7 unknown #
vertex $-1 $546 $605 #
straight-curve $-1 0 -30.763764766085693 -13.690286857475964 1 0 0 I I #
coedge $-1 $606 $483 $558 $607 forward $477 $-1 #
coedge $-1 $483 $606 $485 $553 reversed $477 $-1 #
vertex $-1 $607 $608 #
straight-curve $-1 0 -41.913617455325955 -13.690286857475964 -1 0 0 I I #
edge $-1 $487 13.690286857475964 $609 16.572552499502642 $485 $508 forward 7 unknown #
point $-1 75.243995483260591 -30.763764766085693 -13.690286857475964 #
point $-1 75.243995483260591 -41.913617455325955 -13.690286857475964 #
point $-1 -75.243995483260591 -30.763764766085693 -6.3775665117223452 #
coedge $-1 $496 $495 $610 $611 reversed $435 $-1 #
coedge $-1 $501 $498 $549 $607 reversed $210 $-1 #
coedge $-1 $610 $612 $498 $560 forward $543 $-1 #
edge $-1 $613 -41.913617455325955 $561 41.913617455325955 $498 $614 forward 7 unknown #
vertex $-1 $611 $615 #
straight-curve $-1 -75.243995483260591 41.913617455325955 0 0 0 -1 I I #
straight-curve $-1 -75.243995483260591 -30.763764766085693 -5.0169633422995776 0 0 1 I I #
coedge $-1 $612 $610 $505 $565 forward $543 $-1 #
edge $-1 $566 -41.913617455325955 $609 41.913617455325955 $505 $616 forward 7 unknown #
vertex $-1 $565 $617 #
straight-curve $-1 75.243995483260591 41.913617455325955 0 0 0 -1 I I #
face $-1 $618 $619 $15 $-1 $620 reversed single #
loop $-1 $-1 $515 $509 #
plane-surface $-1 75.243995483260591 0 0 -1 0 0 0 0 1 forward_v I I I I #
coedge $-1 $579 $621 $581 $622 reversed $510 $-1 #
coedge $-1 $623 $512 $621 $624 reversed $444 $-1 #
coedge $-1 $512 $623 $625 $626 reversed $444 $-1 #
coedge $-1 $627 $581 $512 $575 forward $569 $-1 #
edge $-1 $628 12.594419210732781 $629 23.744271899973043 $574 $630 forward 7 unknown #
coedge $-1 $514 $513 $526 $592 reversed $368 $-1 #
coedge $-1 $533 $527 $513 $578 forward $534 $-1 #
edge $-1 $593 -75.243995483260591 $583 75.243995483260591 $577 $631 forward 7 unknown #
coedge $-1 $632 $571 $514 $580 forward $510 $-1 #
edge $-1 $584 -75.243995483260591 $633 75.243995483260591 $579 $634 forward 7 unknown #
coedge $-1 $574 $515 $571 $622 forward $569 $-1 #
coedge $-1 $515 $531 $533 $600 forward $569 $-1 #
vertex $-1 $578 $635 #
vertex $-1 $516 $636 #
straight-curve $-1 75.243995483260591 -18.169345555352912 -6.3775665117223452 0 1 0 I I #
coedge $-1 $637 $638 $517 $587 reversed $595 $-1 #
edge $-1 $598 -75.243995483260591 $589 75.243995483260591 $586 $639 forward 7 unknown #
coedge $-1 $640 $518 $638 $641 forward $381 $-1 #
vertex $-1 $587 $642 #
point $-1 -75.243995483260591 29.529205992980049 4.0953345305515656 #
coedge $-1 $526 $643 $632 $644 forward $381 $-1 #
edge $-1 $633 12.594419210732781 $593 23.744271899973043 $526 $645 forward 7 unknown #
vertex $-1 $592 $646 #
straight-curve $-1 -75.243995483260591 -41.913617455325955 0 0 0 -1 I I #
loop $-1 $-1 $637 $529 #
plane-surface $-1 0 41.913617455325955 0 0 -1 0 0 0 -1 forward_v I I I I #
coedge $-1 $531 $647 $637 $648 reversed $569 $-1 #
vertex $-1 $532 $649 #
straight-curve $-1 75.243995483260591 0 16.572552499502642 0 1 0 I I #
edge $-1 $535 -16.572552499502642 $583 6.3775665117223452 $582 $650 forward 7 unknown #
face $-1 $458 $534 $15 $-1 $620 reversed single #
point $-1 75.243995483260591 -41.913617455325955 16.572552499502642 #
point $-1 -75.243995483260591 41.913617455325955 -16.572552499502642 #
straight-curve $-1 -75.243995483260591 -18.169345555352912 -13.690286857475964 0 1 0 I I #
point $-1 -75.243995483260591 -30.763764766085693 -13.690286857475964 #
coedge $-1 $550 $549 $612 $651 reversed $477 $-1 #
edge $-1 $551 13.690286857475964 $613 16.572552499502642 $558 $434 forward 7 unknown #
point $-1 -75.243995483260591 -41.913617455325955 -13.690286857475964 #
vertex $-1 $553 $652 #
coedge $-1 $564 $559 $557 $611 forward $543 $-1 #
edge $-1 $561 -75.243995483260591 $566 75.243995483260591 $557 $653 forward 7 unknown #
coedge $-1 $559 $564 $606 $651 forward $543 $-1 #
vertex $-1 $560 $654 #
straight-curve $-1 -75.243995483260591 0 -16.572552499502642 0 1 0 I I #
point $-1 -75.243995483260591 41.913617455325955 -16.572552499502642 #
straight-curve $-1 75.243995483260591 0 -16.572552499502642 0 -1 0 I I #
point $-1 75.243995483260591 41.913617455325955 -16.572552499502642 #
face $-1 $601 $655 $15 $-1 $656 reversed single #
loop $-1 $-1 $625 $568 #
plane-surface $-1 0 -41.913617455325955 0 0 1 0 0 0 1 forward_v I I I I #
coedge $-1 $571 $632 $572 $624 forward $510 $-1 #
edge $-1 $584 1.3606031694227676 $628 8.6733235151763868 $581 $657 forward 7 unknown #
coedge $-1 $573 $572 $643 $658 reversed $444 $-1 #
edge $-1 $659 -75.243995483260591 $628 75.243995483260591 $621 $660 forward 7 unknown #
coedge $-1 $661 $662 $573 $626 forward $619 $-1 #
edge $-1 $629 -75.243995483260591 $663 75.243995483260591 $625 $664 forward 7 unknown #
coedge $-1 $647 $574 $662 $665 forward $569 $-1 #
vertex $-1 $575 $666 #
vertex $-1 $665 $667 #
straight-curve $-1 75.243995483260591 -18.169345555352912 -13.690286857475964 0 -1 0 I I #
straight-curve $-1 0 -41.913617455325955 -6.3775665117223452 1 0 0 I I #
coedge $-1 $621 $579 $591 $644 reversed $510 $-1 #
vertex $-1 $592 $668 #
straight-curve $-1 0 -30.763764766085693 -6.3775665117223452 -1 0 0 I I #
point $-1 75.243995483260591 -41.913617455325955 -6.3775665117223452 #
point $-1 75.243995483260591 -30.763764766085693 -6.3775665117223452 #
coedge $-1 $669 $586 $597 $648 forward $595 $-1 #
coedge $-1 $586 $669 $588 $641 reversed $595 $-1 #
straight-curve $-1 0 41.913617455325955 16.572552499502642 -1 0 0 I I #
coedge $-1 $670 $588 $671 $672 reversed $381 $-1 #
edge $-1 $589 -16.572552499502642 $673 16.572552499502642 $638 $674 forward 7 unknown #
point $-1 -75.243995483260591 41.913617455325955 16.572552499502642 #
coedge $-1 $591 $670 $623 $658 forward $381 $-1 #
edge $-1 $659 -8.6733235151763868 $633 -1.3606031694227676 $591 $675 forward 7 unknown #
straight-curve $-1 -75.243995483260591 -18.169345555352912 -6.3775665117223452 0 -1 0 I I #
point $-1 -75.243995483260591 -41.913617455325955 -6.3775665117223452 #
coedge $-1 $597 $627 $676 $677 reversed $569 $-1 #
edge $-1 $598 -16.572552499502642 $678 16.572552499502642 $597 $679 forward 7 unknown #
point $-1 75.243995483260591 41.913617455325955 16.572552499502642 #
straight-curve $-1 75.243995483260591 -41.913617455325955 0 0 0 -1 I I #
edge $-1 $609 -75.243995483260591 $613 75.243995483260591 $606 $680 forward 7 unknown #
point $-1 75.243995483260591 -41.913617455325955 -16.572552499502642 #
straight-curve $-1 0 41.913617455325955 -16.572552499502642 1 0 0 I I #
point $-1 -75.243995483260591 -41.913617455325955 -16.572552499502642 #
loop $-1 $-1 $676 $618 #
plane-surface $-1 0 0 -16.572552499502642 0 0 1 1 0 0 forward_v I I I I #
straight-curve $-1 75.243995483260591 -30.763764766085693 -5.0169633422995776 0 0 -1 I I #
edge $-1 $663 -23.744271899973043 $659 -12.594419210732781 $643 $681 forward 7 unknown #
vertex $-1 $658 $682 #
straight-curve $-1 0 -30.763764766085693 -13.690286857475964 1 0 0 I I #
coedge $-1 $683 $625 $670 $684 forward $619 $-1 #
coedge $-1 $625 $683 $627 $665 reversed $619 $-1 #
vertex $-1 $684 $685 #
straight-curve $-1 0 -41.913617455325955 -13.690286857475964 -1 0 0 I I #
edge $-1 $629 13.690286857475964 $686 16.572552499502642 $627 $650 forward 7 unknown #
point $-1 75.243995483260591 -30.763764766085693 -13.690286857475964 #
point $-1 75.243995483260591 -41.913617455325955 -13.690286857475964 #
point $-1 -75.243995483260591 -30.763764766085693 -6.3775665117223452 #
coedge $-1 $638 $637 $687 $688 reversed $595 $-1 #
coedge $-1 $643 $640 $661 $684 reversed $381 $-1 #
coedge $-1 $687 $689 $640 $672 forward $655 $-1 #
edge $-1 $690 -41.913617455325955 $673 41.913617455325955 $640 $691 forward 7 unknown #
vertex $-1 $688 $692 #
straight-curve $-1 -75.243995483260591 41.913617455325955 0 0 0 -1 I I #
straight-curve $-1 -75.243995483260591 -30.763764766085693 -5.0169633422995776 0 0 1 I I #
coedge $-1 $689 $687 $647 $677 forward $655 $-1 #
edge $-1 $678 -41.913617455325955 $686 41.913617455325955 $647 $693 forward 7 unknown #
vertex $-1 $677 $694 #
straight-curve $-1 75.243995483260591 41.913617455325955 0 0 0 -1 I I #
straight-curve $-1 0 -41.913617455325955 -16.572552499502642 -1 0 0 I I #
straight-curve $-1 -75.243995483260591 -18.169345555352912 -13.690286857475964 0 1 0 I I #
point $-1 -75.243995483260591 -30.763764766085693 -13.690286857475964 #
coedge $-1 $662 $661 $689 $695 reversed $619 $-1 #
edge $-1 $663 13.690286857475964 $690 16.572552499502642 $670 $594 forward 7 unknown #
point $-1 -75.243995483260591 -41.913617455325955 -13.690286857475964 #
vertex $-1 $665 $696 #
coedge $-1 $676 $671 $669 $688 forward $655 $-1 #
edge $-1 $673 -75.243995483260591 $678 75.243995483260591 $669 $697 forward 7 unknown #
coedge $-1 $671 $676 $683 $695 forward $655 $-1 #
vertex $-1 $672 $698 #
straight-curve $-1 -75.243995483260591 0 -16.572552499502642 0 1 0 I I #
point $-1 -75.243995483260591 41.913617455325955 -16.572552499502642 #
straight-curve $-1 75.243995483260591 0 -16.572552499502642 0 -1 0 I I #
point $-1 75.243995483260591 41.913617455325955 -16.572552499502642 #
edge $-1 $686 -75.243995483260591 $690 75.243995483260591 $683 $699 forward 7 unknown #
point $-1 75.243995483260591 -41.913617455325955 -16.572552499502642 #
straight-curve $-1 0 41.913617455325955 -16.572552499502642 1 0 0 I I #
point $-1 -75.243995483260591 -41.913617455325955 -16.572552499502642 #
straight-curve $-1 0 -41.913617455325955 -16.572552499502642 -1 0 0 I I #
End-of-ACIS-data 