500 0 9 0           
7 Unknown 11 ACIS 5.0 NT 24 Thu Mar 25 20:47:08 1999 
-1 9.9999999999999995e-007 1e-010 
body $-1 $9 $-1 $10 #
body $-1 $11 $-1 $12 #
body $-1 $13 $-1 $14 #
body $-1 $15 $-1 $16 #
body $-1 $17 $-1 $18 #
body $-1 $19 $-1 $20 #
body $-1 $21 $-1 $22 #
body $-1 $23 $-1 $24 #
body $-1 $25 $-1 $26 #
lump $-1 $-1 $27 $0 #
transform $-1 1 0 0 0 1 0 0 0 1 59.290139469588304 40.047216827380268 11.125272540552297 1 rotate no_reflect no_shear #
lump $-1 $-1 $28 $1 #
transform $-1 1 0 0 0 1 0 0 0 1 59.290139469588304 40.047216827380268 11.125272540552297 1 rotate no_reflect no_shear #
lump $-1 $-1 $29 $2 #
transform $-1 1 0 0 0 1 0 0 0 1 59.290139469588304 40.047216827380268 11.125272540552297 1 rotate no_reflect no_shear #
lump $-1 $-1 $30 $3 #
transform $-1 1 0 0 0 1 0 0 0 1 59.290139469588304 40.047216827380268 11.125272540552297 1 rotate no_reflect no_shear #
lump $-1 $-1 $31 $4 #
transform $-1 1 0 0 0 1 0 0 0 1 59.290139469588304 40.047216827380268 11.125272540552297 1 rotate no_reflect no_shear #
lump $-1 $-1 $32 $5 #
transform $-1 1 0 0 0 1 0 0 0 1 59.290139469588304 40.047216827380268 11.125272540552297 1 rotate no_reflect no_shear #
lump $-1 $-1 $33 $6 #
transform $-1 1 0 0 0 1 0 0 0 1 59.290139469588304 40.047216827380268 11.125272540552297 1 rotate no_reflect no_shear #
lump $-1 $-1 $34 $7 #
transform $-1 1 0 0 0 1 0 0 0 1 59.290139469588304 40.047216827380268 11.125272540552297 1 rotate no_reflect no_shear #
lump $-1 $-1 $35 $8 #
transform $-1 1 0 0 0 1 0 0 0 1 59.290139469588304 40.047216827380268 11.125272540552297 1 rotate no_reflect no_shear #
shell $-1 $-1 $-1 $36 $-1 $9 #
shell $-1 $-1 $-1 $37 $-1 $11 #
shell $-1 $-1 $-1 $38 $-1 $13 #
shell $-1 $-1 $-1 $39 $-1 $15 #
shell $-1 $-1 $-1 $40 $-1 $17 #
shell $-1 $-1 $-1 $41 $-1 $19 #
shell $-1 $-1 $-1 $42 $-1 $21 #
shell $-1 $-1 $-1 $43 $-1 $23 #
shell $-1 $-1 $-1 $44 $-1 $25 #
face $-1 $45 $46 $27 $-1 $47 forward single #
face $-1 $48 $49 $28 $-1 $50 forward single #
face $-1 $51 $52 $29 $-1 $53 reversed single #
face $-1 $54 $55 $30 $-1 $56 reversed single #
face $-1 $57 $58 $31 $-1 $59 forward single #
face $-1 $60 $61 $32 $-1 $62 forward single #
face $-1 $63 $64 $33 $-1 $65 reversed single #
face $-1 $66 $67 $34 $-1 $68 forward single #
face $-1 $69 $70 $35 $-1 $71 forward single #
face $-1 $72 $73 $27 $-1 $74 reversed single #
loop $-1 $-1 $75 $36 #
plane-surface $-1 0 0 11.125272540552297 0 0 1 1 0 0 forward_v I I I I #
face $-1 $76 $77 $28 $-1 $78 reversed single #
loop $-1 $-1 $79 $37 #
plane-surface $-1 -54.811747876304239 0 9.6630882584476776 0 0 1 1 0 0 forward_v I I I I #
face $-1 $80 $81 $29 $-1 $82 reversed single #
loop $-1 $-1 $83 $38 #
plane-surface $-1 53.889403127845036 0 4.6625169419196233 0 0 1 1 0 0 forward_v I I I I #
face $-1 $84 $85 $30 $-1 $86 reversed single #
loop $-1 $-1 $87 $39 #
plane-surface $-1 -23.592920410811491 79.401272787709686 143.10957106021502 1 0 0 0 -0.7660444514056185 -0.64278759981090561 forward_v I I I I #
face $-1 $88 $89 $31 $-1 $90 forward single #
loop $-1 $91 $92 $40 #
cone-surface $-1 -20.151992965334799 37.317429824723156 8.0071133135153207 0 -0.7660444514056185 -0.64278759981090561 0.5 0 0 1 I I 0 1 0.5 forward I I I I #
face $-1 $93 $94 $32 $-1 $95 forward single #
loop $-1 $96 $97 $41 #
cone-surface $-1 -14.990601797119766 37.317429824723156 8.0071133135153207 0 -0.7660444514056185 -0.64278759981090561 0.5 0 0 1 I I 0 1 0.5 forward I I I I #
face $-1 $98 $99 $33 $-1 $100 reversed single #
loop $-1 $-1 $101 $42 #
plane-surface $-1 25.818091123749479 79.401272787709686 143.10957106021502 1 0 0 0 -0.7660444514056185 -0.64278759981090561 forward_v I I I I #
face $-1 $102 $103 $34 $-1 $104 forward single #
loop $-1 $105 $106 $43 #
cone-surface $-1 29.259018569226178 37.317429824723156 8.0071133135153207 0 -0.7660444514056185 -0.64278759981090561 0.5 0 0 1 I I 0 1 0.5 forward I I I I #
face $-1 $107 $108 $35 $-1 $109 forward single #
loop $-1 $110 $111 $44 #
cone-surface $-1 34.420409737441211 37.317429824723156 8.0071133135153207 0 -0.7660444514056185 -0.64278759981090561 0.5 0 0 1 I I 0 1 0.5 forward I I I I #
face $-1 $112 $113 $27 $-1 $114 reversed single #
loop $-1 $-1 $115 $45 #
plane-surface $-1 0 0 -11.125272540552297 0 0 1 1 0 0 forward_v I I I I #
coedge $-1 $116 $117 $118 $119 forward $46 $-1 #
face $-1 $120 $121 $28 $-1 $122 reversed single #
loop $-1 $-1 $123 $48 #
plane-surface $-1 -54.811747876304239 0 3.074979389086165 0 0 1 1 0 0 forward_v I I I I #
coedge $-1 $124 $125 $126 $127 forward $49 $-1 #
face $-1 $128 $129 $29 $-1 $130 reversed single #
loop $-1 $-1 $131 $51 #
plane-surface $-1 48.488666786101767 0 7.8938947412359592 1 0 0 0 0 -1 forward_v I I I I #
coedge $-1 $132 $133 $134 $135 reversed $52 $-1 #
face $-1 $136 $137 $30 $-1 $138 reversed single #
loop $-1 $-1 $139 $54 #
plane-surface $-1 -17.571297381227289 -11.436491939777071 66.887638175993999 0 0.7660444514056185 0.64278759981090561 1 0 0 forward_v I I I I #
coedge $-1 $140 $141 $142 $143 reversed $55 $-1 #
face $-1 $-1 $144 $31 $-1 $145 forward single #
loop $-1 $146 $147 $57 #
cone-surface $-1 -20.151992965334799 36.742896486168945 7.525022613657141 0 -0.7660444514056185 -0.64278759981090561 0.25 0 0 1 I I -0.70710678118654746 0.70710678118654746 0.25 forward I I I I #
loop $-1 $-1 $148 $40 #
coedge $-1 $92 $92 $149 $150 reversed $58 $-1 #
face $-1 $-1 $151 $32 $-1 $152 forward single #
loop $-1 $153 $154 $60 #
cone-surface $-1 -14.990601797119766 36.742896486168945 7.525022613657141 0 -0.7660444514056185 -0.64278759981090561 0.25 0 0 1 I I -0.70710678118654746 0.70710678118654746 0.25 forward I I I I #
loop $-1 $-1 $155 $41 #
coedge $-1 $97 $97 $156 $157 reversed $61 $-1 #
face $-1 $158 $159 $33 $-1 $160 reversed single #
loop $-1 $-1 $161 $63 #
plane-surface $-1 31.839714153333681 -11.436491939777071 66.887638175993999 0 0.7660444514056185 0.64278759981090561 1 0 0 forward_v I I I I #
coedge $-1 $162 $163 $164 $165 reversed $64 $-1 #
face $-1 $-1 $166 $34 $-1 $167 forward single #
loop $-1 $168 $169 $66 #
cone-surface $-1 29.259018569226178 36.742896486168945 7.525022613657141 0 -0.7660444514056185 -0.64278759981090561 0.25 0 0 1 I I -0.70710678118654746 0.70710678118654746 0.25 forward I I I I #
loop $-1 $-1 $170 $43 #
coedge $-1 $106 $106 $171 $172 reversed $67 $-1 #
face $-1 $-1 $173 $35 $-1 $174 forward single #
loop $-1 $175 $176 $69 #
cone-surface $-1 34.420409737441211 36.742896486168945 7.525022613657141 0 -0.7660444514056185 -0.64278759981090561 0.25 0 0 1 I I -0.70710678118654746 0.70710678118654746 0.25 forward I I I I #
loop $-1 $-1 $177 $44 #
coedge $-1 $111 $111 $178 $179 reversed $70 $-1 #
face $-1 $180 $181 $27 $-1 $182 reversed single #
loop $-1 $-1 $183 $72 #
plane-surface $-1 0 -40.047216827380268 0 0 1 0 0 0 1 forward_v I I I I #
coedge $-1 $184 $185 $186 $187 forward $73 $-1 #
coedge $-1 $188 $75 $189 $190 forward $46 $-1 #
coedge $-1 $75 $188 $191 $192 forward $46 $-1 #
coedge $-1 $193 $194 $75 $119 reversed $195 $-1 #
edge $-1 $196 -40.047216827380268 $197 40.047216827380268 $118 $198 forward 7 unknown #
face $-1 $199 $200 $28 $-1 $201 reversed single #
loop $-1 $-1 $202 $76 #
plane-surface $-1 -50.33335628302018 0 6.3690338237669213 -1 0 0 0 0 1 forward_v I I I I #
coedge $-1 $203 $204 $205 $206 forward $77 $-1 #
coedge $-1 $207 $79 $208 $209 reversed $49 $-1 #
coedge $-1 $79 $207 $210 $211 reversed $49 $-1 #
coedge $-1 $202 $212 $79 $127 reversed $121 $-1 #
edge $-1 $213 -40.047216827380268 $214 40.047216827380268 $126 $215 forward 7 unknown #
face $-1 $216 $217 $29 $-1 $218 reversed single #
loop $-1 $-1 $219 $80 #
plane-surface $-1 0 -40.047216827380268 0 0 1 0 0 0 1 forward_v I I I I #
coedge $-1 $220 $221 $222 $223 reversed $81 $-1 #
coedge $-1 $224 $83 $225 $226 reversed $52 $-1 #
coedge $-1 $83 $224 $227 $228 reversed $52 $-1 #
coedge $-1 $229 $230 $83 $135 forward $217 $-1 #
edge $-1 $231 -40.047216827380268 $232 40.047216827380268 $134 $233 forward 7 unknown #
face $-1 $234 $235 $30 $-1 $236 reversed single #
loop $-1 $-1 $237 $84 #
plane-surface $-1 -11.549674351643088 79.401272787709686 143.10957106021502 -1 0 0 0 0.7660444514056185 0.64278759981090561 forward_v I I I I #
coedge $-1 $238 $239 $240 $241 reversed $85 $-1 #
coedge $-1 $141 $87 $242 $243 reversed $55 $-1 #
coedge $-1 $87 $140 $238 $244 reversed $55 $-1 #
coedge $-1 $240 $245 $87 $143 forward $246 $-1 #
edge $-1 $247 -0.34658043352542478 $248 4.3469491203831865 $142 $249 forward 7 unknown #
loop $-1 $-1 $149 $88 #
plane-surface $-1 -17.571297381227289 -11.436491939777071 66.887638175993999 0 0.7660444514056185 0.64278759981090561 1 0 0 forward_v I I I I #
loop $-1 $-1 $250 $57 #
coedge $-1 $147 $147 $148 $251 reversed $89 $-1 #
coedge $-1 $148 $148 $147 $251 forward $91 $-1 #
coedge $-1 $149 $149 $92 $150 forward $144 $-1 #
edge $-1 $252 0 $252 6.2831853071796004 $149 $253 forward 7 unknown #
loop $-1 $-1 $156 $93 #
plane-surface $-1 -17.571297381227289 -11.436491939777071 66.887638175993999 0 0.7660444514056185 0.64278759981090561 1 0 0 forward_v I I I I #
loop $-1 $-1 $254 $60 #
coedge $-1 $154 $154 $155 $255 reversed $94 $-1 #
coedge $-1 $155 $155 $154 $255 forward $96 $-1 #
coedge $-1 $156 $156 $97 $157 forward $151 $-1 #
edge $-1 $256 0 $256 6.2831853071796004 $156 $257 forward 7 unknown #
face $-1 $258 $259 $33 $-1 $260 forward single #
loop $-1 $-1 $261 $98 #
plane-surface $-1 37.861337182917879 79.401272787709686 143.10957106021502 -1 0 0 0 0.7660444514056185 0.64278759981090561 forward_v I I I I #
coedge $-1 $262 $263 $264 $265 reversed $99 $-1 #
coedge $-1 $163 $101 $266 $267 reversed $64 $-1 #
coedge $-1 $101 $162 $262 $268 reversed $64 $-1 #
coedge $-1 $264 $269 $101 $165 forward $259 $-1 #
edge $-1 $270 -0.34658043352542478 $271 4.3469491203831865 $164 $272 forward 7 unknown #
loop $-1 $-1 $171 $102 #
plane-surface $-1 31.839714153333681 -11.436491939777071 66.887638175993999 0 0.7660444514056185 0.64278759981090561 1 0 0 forward_v I I I I #
loop $-1 $-1 $273 $66 #
coedge $-1 $169 $169 $170 $274 reversed $103 $-1 #
coedge $-1 $170 $170 $169 $274 forward $105 $-1 #
coedge $-1 $171 $171 $106 $172 forward $166 $-1 #
edge $-1 $275 0 $275 6.2831853071796004 $171 $276 forward 7 unknown #
loop $-1 $-1 $178 $107 #
plane-surface $-1 31.839714153333681 -11.436491939777071 66.887638175993999 0 0.7660444514056185 0.64278759981090561 1 0 0 forward_v I I I I #
loop $-1 $-1 $277 $69 #
coedge $-1 $176 $176 $177 $278 reversed $108 $-1 #
coedge $-1 $177 $177 $176 $278 forward $110 $-1 #
coedge $-1 $178 $178 $111 $179 forward $173 $-1 #
edge $-1 $279 0 $279 6.2831853071796004 $178 $280 forward 7 unknown #
face $-1 $281 $282 $27 $-1 $283 reversed single #
loop $-1 $-1 $284 $112 #
plane-surface $-1 -59.290139469588304 0 0 1 0 0 0 0 -1 forward_v I I I I #
coedge $-1 $285 $191 $286 $287 forward $113 $-1 #
coedge $-1 $288 $115 $285 $289 forward $73 $-1 #
coedge $-1 $115 $288 $290 $291 forward $73 $-1 #
coedge $-1 $194 $193 $115 $187 reversed $195 $-1 #
edge $-1 $292 -40.047216827380268 $293 40.047216827380268 $186 $294 forward 7 unknown #
coedge $-1 $117 $116 $295 $296 forward $46 $-1 #
coedge $-1 $297 $298 $116 $190 reversed $282 $-1 #
edge $-1 $197 -59.290139469588304 $299 59.290139469588304 $189 $300 forward 7 unknown #
coedge $-1 $183 $301 $117 $192 reversed $113 $-1 #
edge $-1 $302 -59.290139469588304 $196 59.290139469588304 $191 $303 forward 7 unknown #
coedge $-1 $186 $118 $301 $304 forward $195 $-1 #
coedge $-1 $118 $186 $297 $305 reversed $195 $-1 #
loop $-1 $-1 $193 $281 #
vertex $-1 $119 $306 #
vertex $-1 $119 $307 #
straight-curve $-1 59.290139469588304 0 11.125272540552297 0 1 0 I I #
face $-1 $308 $309 $28 $-1 $310 reversed single #
loop $-1 $-1 $311 $120 #
plane-surface $-1 0 -40.047216827380268 0 0 1 0 0 0 1 forward_v I I I I #
coedge $-1 $205 $126 $312 $313 reversed $121 $-1 #
coedge $-1 $314 $123 $311 $315 reversed $77 $-1 #
coedge $-1 $123 $314 $316 $317 reversed $77 $-1 #
coedge $-1 $212 $202 $123 $206 reversed $121 $-1 #
edge $-1 $318 -40.047216827380268 $319 40.047216827380268 $205 $320 forward 7 unknown #
coedge $-1 $125 $124 $321 $322 reversed $49 $-1 #
coedge $-1 $323 $324 $124 $209 forward $325 $-1 #
edge $-1 $326 -31.884265531436178 $214 -22.927482344868061 $208 $327 forward 7 unknown #
coedge $-1 $328 $312 $125 $211 forward $200 $-1 #
edge $-1 $213 22.927482344868061 $329 31.884265531436178 $210 $330 forward 7 unknown #
coedge $-1 $126 $205 $323 $331 reversed $121 $-1 #
vertex $-1 $211 $332 #
vertex $-1 $209 $333 #
straight-curve $-1 -50.33335628302018 0 9.6630882584476776 0 1 0 I I #
face $-1 $334 $335 $29 $-1 $336 forward single #
loop $-1 $-1 $134 $128 #
plane-surface $-1 59.290139469588304 0 0 -1 0 0 0 0 1 forward_v I I I I #
coedge $-1 $225 $337 $338 $339 forward $129 $-1 #
coedge $-1 $338 $131 $224 $340 reversed $81 $-1 #
coedge $-1 $131 $338 $341 $342 reversed $81 $-1 #
coedge $-1 $343 $227 $131 $223 forward $344 $-1 #
edge $-1 $345 0.71556957130164367 $346 7.1783251699343156 $222 $347 forward 7 unknown #
coedge $-1 $133 $132 $220 $340 forward $52 $-1 #
coedge $-1 $348 $219 $132 $226 forward $129 $-1 #
edge $-1 $349 21.543965222179249 $231 32.34543790566579 $225 $350 forward 7 unknown #
coedge $-1 $222 $351 $133 $228 forward $344 $-1 #
edge $-1 $232 -32.34543790566579 $345 -21.543965222179249 $227 $352 forward 7 unknown #
coedge $-1 $353 $134 $351 $354 reversed $217 $-1 #
coedge $-1 $134 $353 $348 $355 forward $217 $-1 #
vertex $-1 $135 $356 #
vertex $-1 $135 $357 #
straight-curve $-1 59.290139469588304 0 4.6625169419196233 0 1 0 I I #
face $-1 $-1 $246 $30 $-1 $358 forward single #
loop $-1 $-1 $359 $136 #
plane-surface $-1 0 40.047216827380268 0 0 -1 0 0 0 -1 forward_v I I I I #
coedge $-1 $360 $361 $362 $363 reversed $137 $-1 #
coedge $-1 $364 $139 $141 $244 forward $85 $-1 #
coedge $-1 $139 $364 $360 $365 forward $85 $-1 #
coedge $-1 $362 $142 $139 $241 forward $246 $-1 #
edge $-1 $248 -14.807271720197846 $366 -2.7640256610294429 $240 $367 forward 7 unknown #
coedge $-1 $368 $369 $140 $243 forward $235 $-1 #
edge $-1 $370 -66.023043843818243 $247 -60.429512989555214 $242 $371 forward 7 unknown #
edge $-1 $248 72.79259778348775 $370 80.09443365476055 $141 $372 forward 7 unknown #
coedge $-1 $142 $362 $368 $373 forward $246 $-1 #
loop $-1 $-1 $362 $234 #
vertex $-1 $243 $374 #
vertex $-1 $143 $375 #
straight-curve $-1 -23.592920410811491 39.700636393854843 11.125272540552302 0 -1 0 I I #
coedge $-1 $250 $250 $-1 $376 reversed $146 $-1 #
edge $-1 $377 0 $377 6.2831853071796004 $147 $378 forward 7 unknown #
vertex $-1 $150 $379 #
ellipse-curve $-1 -20.151992965334799 37.700452050425966 8.3285071134207733 0 0.7660444514056185 0.64278759981090561 0.5 0 0 1 I I #
coedge $-1 $254 $254 $-1 $380 reversed $153 $-1 #
edge $-1 $381 0 $381 6.2831853071796004 $154 $382 forward 7 unknown #
vertex $-1 $157 $383 #
ellipse-curve $-1 -14.990601797119766 37.700452050425966 8.3285071134207733 0 0.7660444514056185 0.64278759981090561 0.5 0 0 1 I I #
face $-1 $-1 $384 $33 $-1 $385 reversed single #
loop $-1 $-1 $164 $158 #
plane-surface $-1 0 0 11.125272540552297 0 0 1 1 0 0 forward_v I I I I #
coedge $-1 $386 $387 $388 $389 reversed $159 $-1 #
coedge $-1 $390 $161 $163 $268 forward $99 $-1 #
coedge $-1 $161 $390 $386 $391 forward $99 $-1 #
coedge $-1 $388 $164 $161 $265 forward $259 $-1 #
edge $-1 $271 9.8982340470826387 $392 21.941480106251039 $264 $393 forward 7 unknown #
coedge $-1 $394 $395 $162 $267 forward $384 $-1 #
edge $-1 $396 -66.023043843818243 $270 -60.429512989555214 $266 $397 forward 7 unknown #
edge $-1 $271 72.79259778348775 $396 80.09443365476055 $163 $398 forward 7 unknown #
coedge $-1 $164 $388 $394 $399 forward $259 $-1 #
vertex $-1 $165 $400 #
vertex $-1 $165 $401 #
straight-curve $-1 25.818091123749479 39.700636393854843 11.125272540552302 0 -1 0 I I #
coedge $-1 $273 $273 $-1 $402 reversed $168 $-1 #
edge $-1 $403 0 $403 6.2831853071796004 $169 $404 forward 7 unknown #
vertex $-1 $172 $405 #
ellipse-curve $-1 29.259018569226178 37.700452050425966 8.3285071134207733 0 0.7660444514056185 0.64278759981090561 0.5 0 0 1 I I #
coedge $-1 $277 $277 $-1 $406 reversed $175 $-1 #
edge $-1 $407 0 $407 6.2831853071796004 $176 $408 forward 7 unknown #
vertex $-1 $179 $409 #
ellipse-curve $-1 34.420409737441211 37.700452050425966 8.3285071134207733 0 0.7660444514056185 0.64278759981090561 0.5 0 0 1 I I #
face $-1 $-1 $195 $27 $-1 $410 reversed single #
loop $-1 $-1 $297 $180 #
plane-surface $-1 0 40.047216827380268 0 0 -1 0 0 0 -1 forward_v I I I I #
coedge $-1 $411 $295 $298 $412 forward $181 $-1 #
coedge $-1 $301 $183 $184 $289 reversed $113 $-1 #
coedge $-1 $295 $411 $183 $287 reversed $181 $-1 #
edge $-1 $302 -11.125272540552297 $413 11.125272540552297 $286 $414 forward 7 unknown #
coedge $-1 $185 $184 $411 $415 forward $73 $-1 #
edge $-1 $293 -59.290139469588304 $413 59.290139469588304 $285 $416 forward 7 unknown #
coedge $-1 $298 $297 $185 $291 reversed $282 $-1 #
edge $-1 $417 -59.290139469588304 $292 59.290139469588304 $290 $418 forward 7 unknown #
vertex $-1 $187 $419 #
vertex $-1 $304 $420 #
straight-curve $-1 59.290139469588304 0 -11.125272540552297 0 -1 0 I I #
coedge $-1 $284 $286 $188 $296 reversed $181 $-1 #
edge $-1 $299 -40.047216827380268 $302 40.047216827380268 $295 $421 forward 7 unknown #
coedge $-1 $290 $189 $194 $305 forward $282 $-1 #
coedge $-1 $189 $290 $284 $412 reversed $282 $-1 #
vertex $-1 $190 $422 #
straight-curve $-1 0 40.047216827380268 11.125272540552297 -1 0 0 I I #
coedge $-1 $191 $285 $193 $304 reversed $113 $-1 #
vertex $-1 $296 $423 #
straight-curve $-1 0 -40.047216827380268 11.125272540552297 1 0 0 I I #
edge $-1 $196 -11.125272540552297 $293 11.125272540552297 $193 $424 forward 7 unknown #
edge $-1 $197 -11.125272540552297 $292 11.125272540552297 $194 $425 forward 7 unknown #
point $-1 59.290139469588304 -40.047216827380268 11.125272540552297 #
point $-1 59.290139469588304 40.047216827380268 11.125272540552297 #
face $-1 $-1 $325 $28 $-1 $426 reversed single #
loop $-1 $-1 $427 $199 #
plane-surface $-1 -59.290139469588304 0 0 1 0 0 0 0 -1 forward_v I I I I #
coedge $-1 $312 $328 $203 $315 forward $200 $-1 #
coedge $-1 $210 $311 $202 $313 forward $200 $-1 #
edge $-1 $319 -0.10953752279729567 $213 6.478571346564217 $312 $428 forward 7 unknown #
coedge $-1 $204 $203 $427 $429 reversed $77 $-1 #
edge $-1 $430 -31.884265531436178 $319 -22.927482344868061 $311 $431 forward 7 unknown #
coedge $-1 $324 $323 $204 $317 forward $325 $-1 #
edge $-1 $318 22.927482344868061 $432 31.884265531436178 $316 $433 forward 7 unknown #
vertex $-1 $317 $434 #
vertex $-1 $315 $435 #
straight-curve $-1 -50.33335628302018 0 3.074979389086165 0 -1 0 I I #
coedge $-1 $436 $437 $207 $322 forward $309 $-1 #
edge $-1 $329 -40.047216827380268 $326 40.047216827380268 $321 $438 forward 7 unknown #
coedge $-1 $316 $208 $212 $331 forward $325 $-1 #
coedge $-1 $208 $316 $436 $439 reversed $325 $-1 #
loop $-1 $-1 $316 $308 #
vertex $-1 $439 $440 #
straight-curve $-1 -27.405873938152119 40.047216827380268 9.6630882584476776 1 0 0 I I #
coedge $-1 $311 $210 $437 $441 forward $200 $-1 #
vertex $-1 $441 $442 #
straight-curve $-1 -27.405873938152119 -40.047216827380268 9.6630882584476776 -1 0 0 I I #
edge $-1 $214 -6.478571346564217 $318 0.10953752279729567 $323 $443 forward 7 unknown #
point $-1 -50.33335628302018 -40.047216827380268 9.6630882584476776 #
point $-1 -50.33335628302018 40.047216827380268 9.6630882584476776 #
face $-1 $-1 $344 $29 $-1 $444 reversed single #
loop $-1 $-1 $341 $216 #
plane-surface $-1 0 0 11.125272540552297 0 0 1 1 0 0 forward_v I I I I #
coedge $-1 $219 $348 $445 $446 reversed $129 $-1 #
coedge $-1 $221 $220 $219 $339 reversed $81 $-1 #
edge $-1 $447 -7.1783251699343156 $349 -0.71556957130164367 $219 $448 forward 7 unknown #
edge $-1 $349 -40.047216827380268 $345 40.047216827380268 $220 $449 forward 7 unknown #
coedge $-1 $445 $450 $221 $342 forward $335 $-1 #
edge $-1 $346 -40.047216827380268 $447 40.047216827380268 $341 $451 forward 7 unknown #
coedge $-1 $351 $222 $450 $452 reversed $344 $-1 #
loop $-1 $-1 $222 $334 #
vertex $-1 $228 $453 #
vertex $-1 $223 $454 #
straight-curve $-1 48.488666786101767 40.047216827380268 3.9469473706179796 0 0 1 I I #
coedge $-1 $337 $225 $230 $355 reversed $129 $-1 #
vertex $-1 $226 $455 #
straight-curve $-1 26.944701563922518 -40.047216827380268 4.6625169419196233 1 0 0 I I #
coedge $-1 $227 $343 $229 $354 forward $344 $-1 #
straight-curve $-1 26.944701563922518 40.047216827380268 4.6625169419196233 -1 0 0 I I #
coedge $-1 $230 $229 $456 $457 reversed $217 $-1 #
edge $-1 $458 -11.125272540552297 $232 -4.6625169419196233 $229 $459 forward 7 unknown #
edge $-1 $460 -11.125272540552297 $231 -4.6625169419196233 $230 $461 forward 7 unknown #
point $-1 59.290139469588304 -40.047216827380268 4.6625169419196233 #
point $-1 59.290139469588304 40.047216827380268 4.6625169419196233 #
plane-surface $-1 0 0 11.125272540552297 0 0 1 1 0 0 forward_v I I I I #
coedge $-1 $369 $368 $361 $462 forward $235 $-1 #
coedge $-1 $361 $237 $239 $365 reversed $137 $-1 #
coedge $-1 $237 $360 $359 $462 reversed $137 $-1 #
coedge $-1 $245 $240 $237 $363 forward $246 $-1 #
edge $-1 $366 -4.3469491203831865 $463 0.34658043352542478 $362 $464 forward 7 unknown #
coedge $-1 $239 $238 $369 $465 reversed $85 $-1 #
edge $-1 $466 -80.09443365476055 $366 -72.79259778348775 $360 $467 forward 7 unknown #
vertex $-1 $241 $468 #
straight-curve $-1 -8.7856486906136446 35.353687273471657 11.125272540552288 1 0 0 I I #
coedge $-1 $359 $242 $245 $373 reversed $235 $-1 #
coedge $-1 $242 $359 $364 $465 forward $235 $-1 #
vertex $-1 $243 $469 #
straight-curve $-1 -23.592920410811491 40.047216827380268 71.554785530107509 0 0 1 I I #
straight-curve $-1 -23.592920410811491 -11.436491939777071 66.887638175993999 0 0.64278759981090561 -0.7660444514056185 I I #
edge $-1 $463 11.549674351643088 $247 23.592920410811491 $368 $470 forward 7 unknown #
point $-1 -23.592920410811491 40.047216827380268 11.125272540552297 #
point $-1 -23.592920410811491 35.353687273471657 11.125272540552295 #
edge $-1 $471 1 $471 0 $250 $-1 forward 7 unknown #
vertex $-1 $251 $472 #
ellipse-curve $-1 -20.151992965334799 36.934407599020346 7.6857195136098673 0 0.7660444514056185 0.64278759981090561 0.5 0 0 1 I I #
point $-1 -19.651992965334799 37.700452050425966 8.3285071134207733 #
edge $-1 $473 1 $473 0 $254 $-1 forward 7 unknown #
vertex $-1 $255 $474 #
ellipse-curve $-1 -14.990601797119766 36.934407599020346 7.6857195136098673 0 0.7660444514056185 0.64278759981090561 0.5 0 0 1 I I #
point $-1 -14.490601797119766 37.700452050425966 8.3285071134207733 #
loop $-1 $-1 $266 $258 #
plane-surface $-1 0 40.047216827380268 0 0 -1 0 0 0 -1 forward_v I I I I #
coedge $-1 $387 $261 $263 $391 reversed $159 $-1 #
coedge $-1 $261 $386 $475 $476 reversed $159 $-1 #
coedge $-1 $269 $264 $261 $389 forward $259 $-1 #
edge $-1 $392 -4.3469491203831865 $477 0.34658043352542478 $388 $478 forward 7 unknown #
coedge $-1 $263 $262 $395 $479 reversed $99 $-1 #
edge $-1 $480 -80.09443365476055 $392 -72.79259778348775 $386 $481 forward 7 unknown #
vertex $-1 $265 $482 #
straight-curve $-1 15.91985707666684 35.353687273471657 11.125272540552288 1 0 0 I I #
coedge $-1 $475 $266 $269 $399 reversed $384 $-1 #
coedge $-1 $266 $475 $390 $479 forward $384 $-1 #
vertex $-1 $267 $483 #
straight-curve $-1 25.818091123749479 40.047216827380268 71.554785530107509 0 0 1 I I #
straight-curve $-1 25.818091123749479 -11.436491939777071 66.887638175993999 0 0.64278759981090561 -0.7660444514056185 I I #
edge $-1 $477 -37.861337182917879 $270 -25.818091123749479 $394 $484 forward 7 unknown #
point $-1 25.818091123749479 40.047216827380268 11.125272540552297 #
point $-1 25.818091123749479 35.353687273471657 11.125272540552295 #
edge $-1 $485 1 $485 0 $273 $-1 forward 7 unknown #
vertex $-1 $274 $486 #
ellipse-curve $-1 29.259018569226178 36.934407599020346 7.6857195136098673 0 0.7660444514056185 0.64278759981090561 0.5 0 0 1 I I #
point $-1 29.759018569226178 37.700452050425966 8.3285071134207733 #
edge $-1 $487 1 $487 0 $277 $-1 forward 7 unknown #
vertex $-1 $278 $488 #
ellipse-curve $-1 34.420409737441211 36.934407599020346 7.6857195136098673 0 0.7660444514056185 0.64278759981090561 0.5 0 0 1 I I #
point $-1 34.920409737441211 37.700452050425966 8.3285071134207733 #
plane-surface $-1 59.290139469588304 0 0 -1 0 0 0 0 1 forward_v I I I I #
coedge $-1 $286 $284 $288 $415 reversed $181 $-1 #
edge $-1 $299 -11.125272540552297 $417 11.125272540552297 $298 $489 forward 7 unknown #
vertex $-1 $415 $490 #
straight-curve $-1 -59.290139469588304 -40.047216827380268 0 0 0 -1 I I #
edge $-1 $413 -40.047216827380268 $417 40.047216827380268 $411 $491 forward 7 unknown #
straight-curve $-1 0 -40.047216827380268 -11.125272540552297 -1 0 0 I I #
vertex $-1 $291 $492 #
straight-curve $-1 0 40.047216827380268 -11.125272540552297 1 0 0 I I #
point $-1 59.290139469588304 40.047216827380268 -11.125272540552297 #
point $-1 59.290139469588304 -40.047216827380268 -11.125272540552297 #
straight-curve $-1 -59.290139469588304 0 11.125272540552297 0 -1 0 I I #
point $-1 -59.290139469588304 40.047216827380268 11.125272540552297 #
point $-1 -59.290139469588304 -40.047216827380268 11.125272540552297 #
straight-curve $-1 59.290139469588304 -40.047216827380268 0 0 0 -1 I I #
straight-curve $-1 59.290139469588304 40.047216827380268 0 0 0 -1 I I #
plane-surface $-1 0 40.047216827380268 0 0 -1 0 0 0 -1 forward_v I I I I #
coedge $-1 $437 $436 $314 $429 forward $309 $-1 #
straight-curve $-1 -50.33335628302018 -40.047216827380268 3.1845169118834606 0 0 1 I I #
edge $-1 $432 -40.047216827380268 $430 40.047216827380268 $427 $493 forward 7 unknown #
vertex $-1 $315 $494 #
straight-curve $-1 -27.405873938152119 -40.047216827380268 3.074979389086165 1 0 0 I I #
vertex $-1 $317 $495 #
straight-curve $-1 -27.405873938152119 40.047216827380268 3.074979389086165 -1 0 0 I I #
point $-1 -50.33335628302018 40.047216827380268 3.074979389086165 #
point $-1 -50.33335628302018 -40.047216827380268 3.074979389086165 #
coedge $-1 $427 $321 $324 $439 forward $309 $-1 #
coedge $-1 $321 $427 $328 $441 reversed $309 $-1 #
straight-curve $-1 -59.290139469588304 0 9.6630882584476776 0 1 0 I I #
edge $-1 $326 -9.6630882584476776 $432 -3.074979389086165 $324 $496 forward 7 unknown #
point $-1 -59.290139469588297 40.047216827380268 9.6630882584476776 #
edge $-1 $329 -9.6630882584476776 $430 -3.074979389086165 $437 $497 forward 7 unknown #
point $-1 -59.290139469588297 -40.047216827380268 9.6630882584476776 #
straight-curve $-1 -50.33335628302018 40.047216827380268 3.1845169118834606 0 0 -1 I I #
plane-surface $-1 0 40.047216827380268 0 0 -1 0 0 0 -1 forward_v I I I I #
coedge $-1 $456 $341 $337 $446 forward $335 $-1 #
edge $-1 $447 48.488666786101767 $460 59.290139469588304 $337 $498 forward 7 unknown #
vertex $-1 $446 $499 #
straight-curve $-1 48.488666786101767 -40.047216827380268 3.9469473706179796 0 0 -1 I I #
straight-curve $-1 48.488666786101767 0 4.6625169419196233 0 1 0 I I #
coedge $-1 $341 $456 $343 $452 forward $335 $-1 #
straight-curve $-1 48.488666786101767 0 11.125272540552297 0 -1 0 I I #
edge $-1 $458 -59.290139469588304 $346 -48.488666786101767 $343 $500 forward 7 unknown #
point $-1 48.488666786101767 40.047216827380268 4.6625169419196233 #
point $-1 48.488666786101767 40.047216827380268 11.125272540552295 #
point $-1 48.488666786101767 -40.047216827380268 4.6625169419196233 #
coedge $-1 $450 $445 $353 $457 forward $335 $-1 #
edge $-1 $460 -40.047216827380268 $458 40.047216827380268 $353 $501 forward 7 unknown #
vertex $-1 $457 $502 #
straight-curve $-1 59.290139469588304 40.047216827380268 0 0 0 -1 I I #
vertex $-1 $457 $503 #
straight-curve $-1 59.290139469588304 -40.047216827380268 0 0 0 -1 I I #
edge $-1 $463 60.429512989555214 $466 66.023043843818243 $359 $504 forward 7 unknown #
vertex $-1 $373 $505 #
straight-curve $-1 -11.549674351643088 39.700636393854843 11.125272540552302 0 1 0 I I #
edge $-1 $466 2.7640256610294429 $370 14.807271720197846 $369 $506 forward 7 unknown #
vertex $-1 $465 $507 #
straight-curve $-1 -11.549674351643088 -11.436491939777071 66.887638175993999 0 -0.64278759981090561 0.7660444514056185 I I #
point $-1 -11.549674351643088 35.353687273471657 11.125272540552295 #
point $-1 -23.592920410811491 40.047216827380268 5.5317416862892728 #
straight-curve $-1 0 40.047216827380268 11.125272540552297 -1 0 0 I I #
vertex $-1 $376 $508 #
point $-1 -19.651992965334799 36.934407599020346 7.6857195136098673 #
vertex $-1 $380 $509 #
point $-1 -14.490601797119766 36.934407599020346 7.6857195136098673 #
coedge $-1 $395 $394 $387 $476 forward $384 $-1 #
edge $-1 $477 60.429512989555214 $480 66.023043843818243 $475 $510 forward 7 unknown #
vertex $-1 $399 $511 #
straight-curve $-1 37.861337182917879 39.700636393854843 11.125272540552302 0 1 0 I I #
edge $-1 $480 -21.941480106251039 $396 -9.8982340470826387 $395 $512 forward 7 unknown #
vertex $-1 $479 $513 #
straight-curve $-1 37.861337182917879 -11.436491939777071 66.887638175993999 0 -0.64278759981090561 0.7660444514056185 I I #
point $-1 37.861337182917879 35.353687273471657 11.125272540552295 #
point $-1 25.818091123749479 40.047216827380268 5.5317416862892728 #
straight-curve $-1 0 40.047216827380268 11.125272540552297 -1 0 0 I I #
vertex $-1 $402 $514 #
point $-1 29.759018569226178 36.934407599020346 7.6857195136098673 #
vertex $-1 $406 $515 #
point $-1 34.920409737441211 36.934407599020346 7.6857195136098673 #
straight-curve $-1 -59.290139469588304 40.047216827380268 0 0 0 -1 I I #
point $-1 -59.290139469588304 -40.047216827380268 -11.125272540552297 #
straight-curve $-1 -59.290139469588304 0 -11.125272540552297 0 1 0 I I #
point $-1 -59.290139469588304 40.047216827380268 -11.125272540552297 #
straight-curve $-1 -59.290139469588304 0 3.074979389086165 0 -1 0 I I #
point $-1 -59.290139469588297 -40.047216827380268 3.074979389086165 #
point $-1 -59.290139469588297 40.047216827380268 3.074979389086165 #
straight-curve $-1 -59.290139469588304 40.047216827380268 0 0 0 -1 I I #
straight-curve $-1 -59.290139469588304 -40.047216827380268 0 0 0 -1 I I #
straight-curve $-1 0 -40.047216827380268 11.125272540552297 1 0 0 I I #
point $-1 48.488666786101767 -40.047216827380268 11.125272540552295 #
straight-curve $-1 0 40.047216827380268 11.125272540552297 -1 0 0 I I #
straight-curve $-1 59.290139469588304 0 11.125272540552297 0 1 0 I I #
point $-1 59.290139469588304 40.047216827380268 11.125272540552297 #
point $-1 59.290139469588304 -40.047216827380268 11.125272540552297 #
straight-curve $-1 -11.549674351643088 40.047216827380268 71.554785530107509 0 0 -1 I I #
point $-1 -11.549674351643088 40.047216827380268 11.125272540552297 #
straight-curve $-1 -8.7856486906136446 40.047216827380268 5.5317416862892692 -1 0 0 I I #
point $-1 -11.549674351643088 40.047216827380268 5.5317416862892728 #
point $-1 -20.151992965334799 36.551385373317544 7.3643257137044147 #
point $-1 -14.990601797119766 36.551385373317544 7.3643257137044147 #
straight-curve $-1 37.861337182917879 40.047216827380268 71.554785530107509 0 0 -1 I I #
point $-1 37.861337182917879 40.047216827380268 11.125272540552297 #
straight-curve $-1 15.91985707666684 40.047216827380268 5.5317416862892692 -1 0 0 I I #
point $-1 37.861337182917879 40.047216827380268 5.5317416862892728 #
point $-1 29.259018569226178 36.551385373317544 7.3643257137044147 #
point $-1 34.420409737441211 36.551385373317544 7.3643257137044147 #
End-of-ACIS-data 