500 0 5 0           
7 Unknown 11 ACIS 5.0 NT 24 Fri Mar 26 20:27:39 1999 
-1 9.9999999999999995e-007 1e-010 
body $-1 $5 $-1 $6 #
body $-1 $7 $-1 $8 #
body $-1 $9 $-1 $10 #
body $-1 $11 $-1 $12 #
body $-1 $13 $-1 $14 #
lump $-1 $-1 $15 $0 #
transform $-1 1 0 0 0 1 0 0 0 1 44.370250556962802 29.767756951927996 11.300791522806881 1 rotate no_reflect no_shear #
lump $-1 $-1 $16 $1 #
transform $-1 1 0 0 0 1 0 0 0 1 44.370250556962802 29.767756951927996 11.300791522806881 1 rotate no_reflect no_shear #
lump $-1 $-1 $17 $2 #
transform $-1 1 0 0 0 1 0 0 0 1 44.370250556962802 29.767756951927996 11.300791522806881 1 rotate no_reflect no_shear #
lump $-1 $-1 $18 $3 #
transform $-1 1 0 0 0 1 0 0 0 1 44.370250556962802 29.767756951927996 11.300791522806881 1 rotate no_reflect no_shear #
lump $-1 $-1 $19 $4 #
transform $-1 1 0 0 0 1 0 0 0 1 44.370250556962802 29.767756951927996 11.300791522806881 1 rotate no_reflect no_shear #
shell $-1 $-1 $-1 $20 $-1 $5 #
shell $-1 $-1 $-1 $21 $-1 $7 #
shell $-1 $-1 $-1 $22 $-1 $9 #
shell $-1 $-1 $-1 $23 $-1 $11 #
shell $-1 $-1 $-1 $24 $-1 $13 #
face $-1 $25 $26 $15 $-1 $27 forward single #
face $-1 $28 $29 $16 $-1 $30 forward single #
face $-1 $31 $32 $17 $-1 $33 reversed single #
face $-1 $34 $35 $18 $-1 $36 forward single #
face $-1 $37 $38 $19 $-1 $39 forward single #
face $-1 $40 $41 $15 $-1 $42 reversed single #
loop $-1 $-1 $43 $20 #
plane-surface $-1 0 0 11.300791522806881 0 0 1 1 0 0 forward_v I I I I #
face $-1 $44 $45 $16 $-1 $46 forward single #
loop $-1 $-1 $47 $21 #
plane-surface $-1 0 -29.767756951927996 0 0 1 0 0 0 1 forward_v I I I I #
face $-1 $48 $49 $17 $-1 $50 reversed single #
loop $-1 $-1 $51 $22 #
plane-surface $-1 -18.323540306206112 55.877767929077038 111.01991872799793 1 0 0 0 -0.74314483375859142 -0.66913059716165679 forward_v I I I I #
face $-1 $52 $53 $18 $-1 $54 forward single #
loop $-1 $55 $56 $23 #
cone-surface $-1 -11.373531307996522 27.411018244910856 8.8093743185023676 0 -0.74314483375859142 -0.66913059716165679 1 0 0 1 I I 0 1 1 forward I I I I #
face $-1 $57 $58 $19 $-1 $59 forward single #
loop $-1 $60 $61 $24 #
cone-surface $-1 -0.9485178106821337 27.411018244910856 8.8093743185023676 0 -0.74314483375859142 -0.66913059716165679 1 0 0 1 I I 0 1 1 forward I I I I #
face $-1 $62 $63 $15 $-1 $64 reversed single #
loop $-1 $-1 $65 $25 #
plane-surface $-1 0 0 -11.300791522806881 0 0 1 1 0 0 forward_v I I I I #
coedge $-1 $66 $67 $68 $69 forward $26 $-1 #
face $-1 $70 $71 $16 $-1 $72 reversed single #
loop $-1 $-1 $73 $28 #
plane-surface $-1 0 0 11.300791522806881 0 0 1 1 0 0 forward_v I I I I #
coedge $-1 $74 $75 $76 $77 forward $29 $-1 #
face $-1 $78 $79 $17 $-1 $80 reversed single #
loop $-1 $-1 $81 $31 #
plane-surface $-1 -6.1610245593393245 -10.069277018885302 51.640934225212227 0 0.74314483375859142 0.66913059716165679 1 0 0 forward_v I I I I #
coedge $-1 $82 $83 $84 $85 reversed $32 $-1 #
face $-1 $-1 $86 $18 $-1 $87 forward single #
loop $-1 $88 $89 $34 #
cone-surface $-1 -11.373531307996522 26.440010740026661 7.9350752558210349 0 -0.74314483375859142 -0.66913059716165679 0.5 0 0 1 I I -0.70710678118654746 0.70710678118654746 0.5 forward I I I I #
loop $-1 $-1 $90 $23 #
coedge $-1 $56 $56 $91 $92 reversed $35 $-1 #
face $-1 $-1 $93 $19 $-1 $94 forward single #
loop $-1 $95 $96 $37 #
cone-surface $-1 -0.9485178106821337 26.440010740026661 7.9350752558210349 0 -0.74314483375859142 -0.66913059716165679 0.5 0 0 1 I I -0.70710678118654746 0.70710678118654746 0.5 forward I I I I #
loop $-1 $-1 $97 $24 #
coedge $-1 $61 $61 $98 $99 reversed $38 $-1 #
face $-1 $100 $101 $15 $-1 $102 reversed single #
loop $-1 $-1 $103 $40 #
plane-surface $-1 0 -29.767756951927996 0 0 1 0 0 0 1 forward_v I I I I #
coedge $-1 $104 $105 $106 $107 forward $41 $-1 #
coedge $-1 $108 $43 $109 $110 forward $26 $-1 #
coedge $-1 $43 $108 $111 $112 forward $26 $-1 #
coedge $-1 $113 $114 $43 $69 reversed $115 $-1 #
edge $-1 $116 -29.767756951927996 $117 29.767756951927996 $68 $118 forward 7 unknown #
face $-1 $119 $120 $16 $-1 $121 reversed single #
loop $-1 $-1 $122 $44 #
plane-surface $-1 -44.370250556962802 0 0 1 0 0 0 0 -1 forward_v I I I I #
coedge $-1 $123 $124 $125 $126 forward $45 $-1 #
coedge $-1 $125 $47 $122 $127 reversed $29 $-1 #
coedge $-1 $47 $125 $128 $129 reversed $29 $-1 #
coedge $-1 $130 $131 $47 $77 reversed $120 $-1 #
edge $-1 $132 -44.370250556962802 $133 44.370250556962802 $76 $134 forward 7 unknown #
face $-1 $135 $136 $17 $-1 $137 reversed single #
loop $-1 $-1 $138 $48 #
plane-surface $-1 6.0014911875274652 55.877767929077038 111.01991872799793 -1 0 0 0 0.74314483375859142 0.66913059716165679 forward_v I I I I #
coedge $-1 $139 $140 $141 $142 reversed $49 $-1 #
coedge $-1 $83 $51 $143 $144 reversed $32 $-1 #
coedge $-1 $51 $82 $139 $145 reversed $32 $-1 #
coedge $-1 $141 $146 $51 $85 forward $147 $-1 #
edge $-1 $148 -1.8288729873894773 $149 1.6857342506350363 $84 $150 forward 7 unknown #
loop $-1 $-1 $91 $52 #
plane-surface $-1 -6.1610245593393245 -10.069277018885302 51.640934225212227 0 0.74314483375859142 0.66913059716165679 1 0 0 forward_v I I I I #
loop $-1 $-1 $151 $34 #
coedge $-1 $89 $89 $90 $152 reversed $53 $-1 #
coedge $-1 $90 $90 $89 $152 forward $55 $-1 #
coedge $-1 $91 $91 $56 $92 forward $86 $-1 #
edge $-1 $153 2.6828484497641021e-016 $153 6.2831853071796004 $91 $154 forward 7 unknown #
loop $-1 $-1 $98 $57 #
plane-surface $-1 -6.1610245593393245 -10.069277018885302 51.640934225212227 0 0.74314483375859142 0.66913059716165679 1 0 0 forward_v I I I I #
loop $-1 $-1 $155 $37 #
coedge $-1 $96 $96 $97 $156 reversed $58 $-1 #
coedge $-1 $97 $97 $96 $156 forward $60 $-1 #
coedge $-1 $98 $98 $61 $99 forward $93 $-1 #
edge $-1 $157 2.6828484497641021e-016 $157 6.2831853071796004 $98 $158 forward 7 unknown #
face $-1 $159 $160 $15 $-1 $161 reversed single #
loop $-1 $-1 $162 $62 #
plane-surface $-1 -44.370250556962802 0 0 1 0 0 0 0 -1 forward_v I I I I #
coedge $-1 $163 $111 $164 $165 forward $63 $-1 #
coedge $-1 $166 $65 $163 $167 forward $41 $-1 #
coedge $-1 $65 $166 $168 $169 forward $41 $-1 #
coedge $-1 $114 $113 $65 $107 reversed $115 $-1 #
edge $-1 $170 -29.767756951927996 $171 29.767756951927996 $106 $172 forward 7 unknown #
coedge $-1 $67 $66 $173 $174 forward $26 $-1 #
coedge $-1 $175 $176 $66 $110 reversed $160 $-1 #
edge $-1 $117 -44.370250556962802 $177 44.370250556962802 $109 $178 forward 7 unknown #
coedge $-1 $103 $179 $67 $112 reversed $63 $-1 #
edge $-1 $180 -44.370250556962802 $116 44.370250556962802 $111 $181 forward 7 unknown #
coedge $-1 $106 $68 $179 $182 forward $115 $-1 #
coedge $-1 $68 $106 $175 $183 reversed $115 $-1 #
loop $-1 $-1 $113 $159 #
vertex $-1 $69 $184 #
vertex $-1 $69 $185 #
straight-curve $-1 44.370250556962802 0 11.300791522806881 0 1 0 I I #
face $-1 $186 $187 $16 $-1 $188 reversed single #
loop $-1 $-1 $130 $70 #
plane-surface $-1 0 -36.444735832161427 7.3524983769162695 0 0 1 1 0 0 forward_v I I I I #
coedge $-1 $189 $190 $74 $127 forward $71 $-1 #
coedge $-1 $191 $73 $190 $192 forward $45 $-1 #
coedge $-1 $73 $191 $193 $194 forward $45 $-1 #
coedge $-1 $75 $74 $73 $126 reversed $29 $-1 #
edge $-1 $195 -44.370250556962802 $196 44.370250556962802 $73 $197 forward 7 unknown #
edge $-1 $196 -11.300791522806881 $133 -7.3524983769162695 $122 $198 forward 7 unknown #
coedge $-1 $193 $199 $75 $129 forward $200 $-1 #
edge $-1 $132 7.3524983769162695 $195 11.300791522806881 $128 $201 forward 7 unknown #
coedge $-1 $202 $76 $199 $203 forward $120 $-1 #
coedge $-1 $76 $202 $189 $204 forward $120 $-1 #
vertex $-1 $129 $205 #
vertex $-1 $127 $206 #
straight-curve $-1 0 -29.767756951927996 7.3524983769162695 -1 0 0 I I #
face $-1 $-1 $147 $17 $-1 $207 forward single #
loop $-1 $-1 $208 $78 #
plane-surface $-1 0 29.767756951927996 0 0 -1 0 0 0 -1 forward_v I I I I #
coedge $-1 $209 $210 $211 $212 reversed $79 $-1 #
coedge $-1 $213 $81 $83 $145 forward $49 $-1 #
coedge $-1 $81 $213 $209 $214 forward $49 $-1 #
coedge $-1 $211 $84 $81 $142 forward $147 $-1 #
edge $-1 $149 -15.24302802653645 $215 9.0820034671971275 $141 $216 forward 7 unknown #
coedge $-1 $217 $218 $82 $144 forward $136 $-1 #
edge $-1 $219 -48.112534721600127 $148 -44.209167841192084 $143 $220 forward 7 unknown #
edge $-1 $149 54.283015732448362 $219 59.535513903856014 $83 $221 forward 7 unknown #
coedge $-1 $84 $211 $217 $222 forward $147 $-1 #
loop $-1 $-1 $211 $135 #
vertex $-1 $144 $223 #
vertex $-1 $85 $224 #
straight-curve $-1 -18.323540306206112 27.938883964538519 11.300791522806882 0 -1 0 I I #
coedge $-1 $151 $151 $-1 $225 reversed $88 $-1 #
edge $-1 $226 0 $226 6.2831853071796004 $89 $227 forward 7 unknown #
vertex $-1 $92 $228 #
ellipse-curve $-1 -11.373531307996522 28.010453332915738 9.3491080826028572 0 0.74314483375859142 0.66913059716165679 1 0 0 1 I I #
coedge $-1 $155 $155 $-1 $229 reversed $95 $-1 #
edge $-1 $230 0 $230 6.2831853071796004 $96 $231 forward 7 unknown #
vertex $-1 $99 $232 #
ellipse-curve $-1 -0.9485178106821337 28.010453332915738 9.3491080826028572 0 0.74314483375859142 0.66913059716165679 1 0 0 1 I I #
face $-1 $-1 $115 $15 $-1 $233 reversed single #
loop $-1 $-1 $175 $100 #
plane-surface $-1 0 29.767756951927996 0 0 -1 0 0 0 -1 forward_v I I I I #
coedge $-1 $234 $173 $176 $235 forward $101 $-1 #
coedge $-1 $179 $103 $104 $167 reversed $63 $-1 #
coedge $-1 $173 $234 $103 $165 reversed $101 $-1 #
edge $-1 $180 -11.300791522806881 $236 11.300791522806881 $164 $237 forward 7 unknown #
coedge $-1 $105 $104 $234 $238 forward $41 $-1 #
edge $-1 $171 -44.370250556962802 $236 44.370250556962802 $163 $239 forward 7 unknown #
coedge $-1 $176 $175 $105 $169 reversed $160 $-1 #
edge $-1 $240 -44.370250556962802 $170 44.370250556962802 $168 $241 forward 7 unknown #
vertex $-1 $107 $242 #
vertex $-1 $182 $243 #
straight-curve $-1 44.370250556962802 0 -11.300791522806881 0 -1 0 I I #
coedge $-1 $162 $164 $108 $174 reversed $101 $-1 #
edge $-1 $177 -29.767756951927996 $180 29.767756951927996 $173 $244 forward 7 unknown #
coedge $-1 $168 $109 $114 $183 forward $160 $-1 #
coedge $-1 $109 $168 $162 $235 reversed $160 $-1 #
vertex $-1 $110 $245 #
straight-curve $-1 0 29.767756951927996 11.300791522806881 -1 0 0 I I #
coedge $-1 $111 $163 $113 $182 reversed $63 $-1 #
vertex $-1 $174 $246 #
straight-curve $-1 0 -29.767756951927996 11.300791522806881 1 0 0 I I #
edge $-1 $116 -11.300791522806881 $171 11.300791522806881 $113 $247 forward 7 unknown #
edge $-1 $117 -11.300791522806881 $170 11.300791522806881 $114 $248 forward 7 unknown #
point $-1 44.370250556962802 -29.767756951927996 11.300791522806881 #
point $-1 44.370250556962802 29.767756951927996 11.300791522806881 #
face $-1 $-1 $200 $16 $-1 $249 reversed single #
loop $-1 $-1 $250 $119 #
plane-surface $-1 0 -43.121714712394855 9.326644949861576 0 1 0 0 0 1 forward_v I I I I #
coedge $-1 $251 $122 $131 $204 reversed $71 $-1 #
coedge $-1 $122 $251 $123 $192 reversed $71 $-1 #
coedge $-1 $124 $123 $252 $253 forward $45 $-1 #
edge $-1 $196 29.767756951927996 $254 43.121714712394855 $190 $255 forward 7 unknown #
coedge $-1 $256 $128 $124 $194 reversed $200 $-1 #
edge $-1 $257 -43.121714712394855 $195 -29.767756951927996 $193 $258 forward 7 unknown #
vertex $-1 $129 $259 #
vertex $-1 $192 $260 #
straight-curve $-1 0 -29.767756951927996 11.300791522806881 -1 0 0 I I #
straight-curve $-1 -44.370250556962802 -29.767756951927996 0 0 0 -1 I I #
coedge $-1 $128 $256 $130 $203 reversed $200 $-1 #
loop $-1 $-1 $128 $186 #
straight-curve $-1 44.370250556962802 -29.767756951927996 0 0 0 1 I I #
coedge $-1 $131 $130 $261 $262 forward $120 $-1 #
edge $-1 $132 -6.6769788802334276 $263 6.6769788802334276 $199 $264 forward 7 unknown #
edge $-1 $265 -6.6769788802334276 $133 6.6769788802334276 $189 $266 forward 7 unknown #
point $-1 44.370250556962802 -29.767756951928 7.3524983769162695 #
point $-1 -44.370250556962802 -29.767756951928 7.3524983769162695 #
plane-surface $-1 0 0 11.300791522806881 0 0 1 1 0 0 forward_v I I I I #
coedge $-1 $218 $217 $210 $267 forward $136 $-1 #
coedge $-1 $210 $138 $140 $214 reversed $79 $-1 #
coedge $-1 $138 $209 $208 $267 reversed $79 $-1 #
coedge $-1 $146 $141 $138 $212 forward $147 $-1 #
edge $-1 $215 -1.6857342506350363 $268 1.8288729873894773 $211 $269 forward 7 unknown #
coedge $-1 $140 $139 $218 $270 reversed $49 $-1 #
edge $-1 $271 -59.535513903856014 $215 -54.283015732448362 $209 $272 forward 7 unknown #
vertex $-1 $142 $273 #
straight-curve $-1 -3.0805122796696622 26.253149713903486 11.300791522806882 1 0 0 I I #
coedge $-1 $208 $143 $146 $222 reversed $136 $-1 #
coedge $-1 $143 $208 $213 $270 forward $136 $-1 #
vertex $-1 $144 $274 #
straight-curve $-1 -18.323540306206112 29.767756951927996 55.509959363998966 0 0 1 I I #
straight-curve $-1 -18.323540306206112 -10.069277018885302 51.640934225212227 0 0.66913059716165679 -0.74314483375859142 I I #
edge $-1 $268 -6.0014911875274652 $148 18.323540306206112 $217 $275 forward 7 unknown #
point $-1 -18.323540306206112 29.767756951927996 11.300791522806881 #
point $-1 -18.323540306206112 26.253149713903483 11.300791522806882 #
edge $-1 $276 1 $276 0 $151 $-1 forward 7 unknown #
vertex $-1 $152 $277 #
ellipse-curve $-1 -11.373531307996522 26.811583156905957 8.2696405544018639 0 0.74314483375859142 0.66913059716165679 1 0 0 1 I I #
point $-1 -10.373531307996522 28.010453332915752 9.3491080826028696 #
edge $-1 $278 1 $278 0 $155 $-1 forward 7 unknown #
vertex $-1 $156 $279 #
ellipse-curve $-1 -0.9485178106821337 26.811583156905957 8.2696405544018639 0 0.74314483375859142 0.66913059716165679 1 0 0 1 I I #
point $-1 0.0514821893178663 28.010453332915752 9.3491080826028696 #
plane-surface $-1 44.370250556962802 0 0 -1 0 0 0 0 1 forward_v I I I I #
coedge $-1 $164 $162 $166 $238 reversed $101 $-1 #
edge $-1 $177 -11.300791522806881 $240 11.300791522806881 $176 $280 forward 7 unknown #
vertex $-1 $238 $281 #
straight-curve $-1 -44.370250556962802 -29.767756951927996 0 0 0 -1 I I #
edge $-1 $236 -29.767756951927996 $240 29.767756951927996 $234 $282 forward 7 unknown #
straight-curve $-1 0 -29.767756951927996 -11.300791522806881 -1 0 0 I I #
vertex $-1 $169 $283 #
straight-curve $-1 0 29.767756951927996 -11.300791522806881 1 0 0 I I #
point $-1 44.370250556962802 29.767756951927996 -11.300791522806881 #
point $-1 44.370250556962802 -29.767756951927996 -11.300791522806881 #
straight-curve $-1 -44.370250556962802 0 11.300791522806881 0 -1 0 I I #
point $-1 -44.370250556962802 29.767756951927996 11.300791522806881 #
point $-1 -44.370250556962802 -29.767756951927996 11.300791522806881 #
straight-curve $-1 44.370250556962802 -29.767756951927996 0 0 0 -1 I I #
straight-curve $-1 44.370250556962802 29.767756951927996 0 0 0 -1 I I #
plane-surface $-1 44.370250556962802 0 0 -1 0 0 0 0 1 forward_v I I I I #
coedge $-1 $261 $252 $251 $284 forward $187 $-1 #
coedge $-1 $190 $189 $250 $284 reversed $71 $-1 #
coedge $-1 $250 $285 $191 $253 reversed $187 $-1 #
edge $-1 $254 -44.370250556962802 $257 44.370250556962802 $252 $286 forward 7 unknown #
vertex $-1 $192 $287 #
straight-curve $-1 -44.370250556962802 0 11.300791522806881 0 -1 0 I I #
coedge $-1 $199 $193 $285 $288 forward $200 $-1 #
vertex $-1 $194 $289 #
straight-curve $-1 44.370250556962802 0 11.300791522806881 0 1 0 I I #
point $-1 44.370250556962802 -29.767756951927996 11.300791522806881 #
point $-1 -44.370250556962802 -29.767756951927996 11.300791522806881 #
coedge $-1 $285 $250 $202 $262 reversed $187 $-1 #
edge $-1 $263 -44.370250556962802 $265 44.370250556962802 $261 $290 forward 7 unknown #
vertex $-1 $288 $291 #
straight-curve $-1 44.370250556962802 -36.444735832161427 7.3524983769162695 0 -1 0 I I #
vertex $-1 $204 $292 #
straight-curve $-1 -44.370250556962802 -36.444735832161427 7.3524983769162695 0 1 0 I I #
edge $-1 $268 44.209167841192084 $271 48.112534721600127 $208 $293 forward 7 unknown #
vertex $-1 $222 $294 #
straight-curve $-1 6.0014911875274652 27.938883964538519 11.300791522806882 0 1 0 I I #
edge $-1 $271 -9.0820034671971275 $219 15.24302802653645 $218 $295 forward 7 unknown #
vertex $-1 $270 $296 #
straight-curve $-1 6.0014911875274652 -10.069277018885302 51.640934225212227 0 -0.66913059716165679 0.74314483375859142 I I #
point $-1 6.0014911875274652 26.253149713903483 11.300791522806882 #
point $-1 -18.323540306206112 29.767756951927993 7.397424642398839 #
straight-curve $-1 0 29.767756951927996 11.300791522806881 -1 0 0 I I #
vertex $-1 $225 $297 #
point $-1 -10.373531307996522 26.811583156905957 8.2696405544018639 #
vertex $-1 $229 $298 #
point $-1 0.0514821893178663 26.811583156905957 8.2696405544018639 #
straight-curve $-1 -44.370250556962802 29.767756951927996 0 0 0 -1 I I #
point $-1 -44.370250556962802 -29.767756951927996 -11.300791522806881 #
straight-curve $-1 -44.370250556962802 0 -11.300791522806881 0 1 0 I I #
point $-1 -44.370250556962802 29.767756951927996 -11.300791522806881 #
edge $-1 $254 -1.9741465729453065 $265 1.9741465729453065 $251 $299 forward 7 unknown #
coedge $-1 $252 $261 $256 $288 reversed $187 $-1 #
straight-curve $-1 0 -43.121714712394855 11.300791522806882 1 0 0 I I #
point $-1 -44.370250556962802 -43.121714712394855 11.300791522806882 #
edge $-1 $257 -1.9741465729453065 $263 1.9741465729453065 $256 $300 forward 7 unknown #
point $-1 44.370250556962802 -43.121714712394855 11.300791522806882 #
straight-curve $-1 0 -43.121714712394855 7.3524983769162695 -1 0 0 I I #
point $-1 44.370250556962802 -43.121714712394855 7.3524983769162695 #
point $-1 -44.370250556962802 -43.121714712394855 7.3524983769162695 #
straight-curve $-1 6.0014911875274652 29.767756951927996 55.509959363998966 0 0 -1 I I #
point $-1 6.0014911875274652 29.767756951927996 11.300791522806881 #
straight-curve $-1 -3.0805122796696622 29.767756951927996 7.3974246423988426 -1 0 0 I I #
point $-1 6.0014911875274652 29.767756951927993 7.397424642398839 #
point $-1 -11.373531307996522 26.068438323147365 7.6005099572402068 #
point $-1 -0.9485178106821337 26.068438323147365 7.6005099572402068 #
straight-curve $-1 -44.370250556962802 -43.121714712394855 9.326644949861576 0 0 -1 I I #
straight-curve $-1 44.370250556962802 -43.121714712394855 9.326644949861576 0 0 -1 I I #
End-of-ACIS-data 