500 0 17 0           
7 Unknown 11 ACIS 5.0 NT 24 Thu Mar 25 19:36:40 1999 
-1 9.9999999999999995e-007 1e-010 
body $-1 $17 $-1 $18 #
body $-1 $19 $-1 $20 #
body $-1 $21 $-1 $22 #
body $-1 $23 $-1 $24 #
body $-1 $25 $-1 $26 #
body $-1 $27 $-1 $28 #
body $-1 $29 $-1 $30 #
body $-1 $31 $-1 $32 #
body $-1 $33 $-1 $34 #
body $-1 $35 $-1 $36 #
body $-1 $37 $-1 $38 #
body $-1 $39 $-1 $40 #
body $-1 $41 $-1 $42 #
body $-1 $43 $-1 $44 #
body $-1 $45 $-1 $46 #
body $-1 $47 $-1 $48 #
body $-1 $49 $-1 $50 #
lump $-1 $-1 $51 $0 #
transform $-1 1 0 0 0 1 0 0 0 1 64.276863917966239 28.331881025641238 10.468797348126282 1 rotate no_reflect no_shear #
lump $-1 $-1 $52 $1 #
transform $-1 1 0 0 0 1 0 0 0 1 64.276863917966239 28.331881025641238 10.468797348126282 1 rotate no_reflect no_shear #
lump $-1 $-1 $53 $2 #
transform $-1 1 0 0 0 1 0 0 0 1 64.276863917966239 28.331881025641238 10.468797348126282 1 rotate no_reflect no_shear #
lump $-1 $-1 $54 $3 #
transform $-1 1 0 0 0 1 0 0 0 1 64.276863917966239 28.331881025641238 10.468797348126282 1 rotate no_reflect no_shear #
lump $-1 $-1 $55 $4 #
transform $-1 1 0 0 0 1 0 0 0 1 64.276863917966239 28.331881025641238 10.468797348126282 1 rotate no_reflect no_shear #
lump $-1 $-1 $56 $5 #
transform $-1 1 0 0 0 1 0 0 0 1 64.276863917966239 28.331881025641238 10.468797348126282 1 rotate no_reflect no_shear #
lump $-1 $-1 $57 $6 #
transform $-1 1 0 0 0 1 0 0 0 1 64.276863917966239 28.331881025641238 10.468797348126282 1 rotate no_reflect no_shear #
lump $-1 $-1 $58 $7 #
transform $-1 1 0 0 0 1 0 0 0 1 64.276863917966239 28.331881025641238 10.468797348126282 1 rotate no_reflect no_shear #
lump $-1 $-1 $59 $8 #
transform $-1 1 0 0 0 1 0 0 0 1 64.276863917966239 28.331881025641238 10.468797348126282 1 rotate no_reflect no_shear #
lump $-1 $-1 $60 $9 #
transform $-1 1 0 0 0 1 0 0 0 1 64.276863917966239 28.331881025641238 10.468797348126282 1 rotate no_reflect no_shear #
lump $-1 $-1 $61 $10 #
transform $-1 1 0 0 0 1 0 0 0 1 64.276863917966239 28.331881025641238 10.468797348126282 1 rotate no_reflect no_shear #
lump $-1 $-1 $62 $11 #
transform $-1 1 0 0 0 1 0 0 0 1 64.276863917966239 28.331881025641238 10.468797348126282 1 rotate no_reflect no_shear #
lump $-1 $-1 $63 $12 #
transform $-1 1 0 0 0 1 0 0 0 1 64.276863917966239 28.331881025641238 10.468797348126282 1 rotate no_reflect no_shear #
lump $-1 $-1 $64 $13 #
transform $-1 1 0 0 0 1 0 0 0 1 64.276863917966239 28.331881025641238 10.468797348126282 1 rotate no_reflect no_shear #
lump $-1 $-1 $65 $14 #
transform $-1 1 0 0 0 1 0 0 0 1 64.276863917966239 28.331881025641238 10.468797348126282 1 rotate no_reflect no_shear #
lump $-1 $-1 $66 $15 #
transform $-1 1 0 0 0 1 0 0 0 1 64.276863917966239 28.331881025641238 10.468797348126282 1 rotate no_reflect no_shear #
lump $-1 $-1 $67 $16 #
transform $-1 1 0 0 0 1 0 0 0 1 64.276863917966239 28.331881025641238 10.468797348126282 1 rotate no_reflect no_shear #
shell $-1 $-1 $-1 $68 $-1 $17 #
shell $-1 $-1 $-1 $69 $-1 $19 #
shell $-1 $-1 $-1 $70 $-1 $21 #
shell $-1 $-1 $-1 $71 $-1 $23 #
shell $-1 $-1 $-1 $72 $-1 $25 #
shell $-1 $-1 $-1 $73 $-1 $27 #
shell $-1 $-1 $-1 $74 $-1 $29 #
shell $-1 $-1 $-1 $75 $-1 $31 #
shell $-1 $-1 $-1 $76 $-1 $33 #
shell $-1 $-1 $-1 $77 $-1 $35 #
shell $-1 $-1 $-1 $78 $-1 $37 #
shell $-1 $-1 $-1 $79 $-1 $39 #
shell $-1 $-1 $-1 $80 $-1 $41 #
shell $-1 $-1 $-1 $81 $-1 $43 #
shell $-1 $-1 $-1 $82 $-1 $45 #
shell $-1 $-1 $-1 $83 $-1 $47 #
shell $-1 $-1 $-1 $84 $-1 $49 #
face $-1 $85 $86 $51 $-1 $87 forward single #
face $-1 $88 $89 $52 $-1 $90 reversed single #
face $-1 $91 $92 $53 $-1 $93 reversed single #
face $-1 $94 $95 $54 $-1 $96 reversed single #
face $-1 $97 $98 $55 $-1 $99 forward single #
face $-1 $100 $101 $56 $-1 $102 forward single #
face $-1 $103 $104 $57 $-1 $105 forward single #
face $-1 $106 $107 $58 $-1 $108 reversed single #
face $-1 $109 $110 $59 $-1 $111 forward single #
face $-1 $112 $113 $60 $-1 $114 forward single #
face $-1 $115 $116 $61 $-1 $117 forward single #
face $-1 $118 $119 $62 $-1 $120 reversed single #
face $-1 $121 $122 $63 $-1 $123 forward single #
face $-1 $124 $125 $64 $-1 $126 forward single #
face $-1 $127 $128 $65 $-1 $129 forward single #
face $-1 $130 $131 $66 $-1 $132 reversed single #
face $-1 $133 $134 $67 $-1 $135 forward single #
face $-1 $136 $137 $51 $-1 $138 reversed single #
loop $-1 $-1 $139 $68 #
plane-surface $-1 0 0 10.468797348126282 0 0 1 1 0 0 forward_v I I I I #
face $-1 $140 $141 $52 $-1 $142 reversed single #
loop $-1 $-1 $143 $69 #
plane-surface $-1 -46.339269221713678 -21.661806301299244 0 1 0 0 0 0 -1 forward_v I I I I #
face $-1 $144 $145 $53 $-1 $146 reversed single #
loop $-1 $-1 $147 $70 #
plane-surface $-1 -44.839269221713678 14.99173157695725 0 0 1 0 0 0 1 forward_v I I I I #
face $-1 $148 $149 $54 $-1 $150 reversed single #
loop $-1 $-1 $151 $71 #
plane-surface $-1 -159.81090261964749 -12.992770446880433 92.27244433376525 0 1 0 -0.74314483375859142 0 0.66913059716165679 forward_v I I I I #
face $-1 $152 $153 $55 $-1 $154 forward single #
loop $-1 $155 $156 $72 #
cone-surface $-1 -61.755653630765053 -11.793102055216092 7.7997420391533012 0.74314483375859142 0 -0.66913059716165679 0.3345652985808284 0 0.37157241687929571 1 I I 0 1 0.5 forward I I I I #
face $-1 $157 $158 $56 $-1 $159 forward single #
loop $-1 $160 $161 $73 #
cone-surface $-1 -61.755653630765053 -9.9935994677195836 7.7997420391533012 0.74314483375859142 0 -0.66913059716165679 0.3345652985808284 0 0.37157241687929571 1 I I 0 1 0.5 forward I I I I #
face $-1 $162 $163 $57 $-1 $164 forward single #
loop $-1 $165 $166 $74 #
cone-surface $-1 -61.755653630765053 -8.1940968802230749 7.7997420391533012 0.74314483375859142 0 -0.66913059716165679 0.3345652985808284 0 0.37157241687929571 1 I I 0 1 0.5 forward I I I I #
face $-1 $167 $168 $58 $-1 $169 reversed single #
loop $-1 $-1 $170 $75 #
plane-surface $-1 -159.81090261964749 -2.9991709791608496 92.27244433376525 0 1 0 -0.74314483375859142 0 0.66913059716165679 forward_v I I I I #
face $-1 $171 $172 $59 $-1 $173 forward single #
loop $-1 $174 $175 $76 #
cone-surface $-1 -61.755653630765053 -1.7995025874965087 7.7997420391533012 0.74314483375859142 0 -0.66913059716165679 0.3345652985808284 0 0.37157241687929571 1 I I 0 1 0.5 forward I I I I #
face $-1 $176 $177 $60 $-1 $178 forward single #
loop $-1 $179 $180 $77 #
cone-surface $-1 -61.755653630765053 0 7.7997420391533012 0.74314483375859142 0 -0.66913059716165679 0.3345652985808284 0 0.37157241687929571 1 I I 0 1 0.5 forward I I I I #
face $-1 $181 $182 $61 $-1 $183 forward single #
loop $-1 $184 $185 $78 #
cone-surface $-1 -61.755653630765053 1.7995025874965087 7.7997420391533012 0.74314483375859142 0 -0.66913059716165679 0.3345652985808284 0 0.37157241687929571 1 I I 0 1 0.5 forward I I I I #
face $-1 $186 $187 $62 $-1 $188 reversed single #
loop $-1 $-1 $189 $79 #
plane-surface $-1 -159.81090261964749 6.994428488558734 92.27244433376525 0 1 0 -0.74314483375859142 0 0.66913059716165679 forward_v I I I I #
face $-1 $190 $191 $63 $-1 $192 forward single #
loop $-1 $193 $194 $80 #
cone-surface $-1 -61.755653630765053 8.1940968802230714 7.7997420391533012 0.74314483375859142 0 -0.66913059716165679 0.3345652985808284 0 0.37157241687929571 1 I I 0 1 0.5 forward I I I I #
face $-1 $195 $196 $64 $-1 $197 forward single #
loop $-1 $198 $199 $81 #
cone-surface $-1 -61.755653630765053 9.9935994677195836 7.7997420391533012 0.74314483375859142 0 -0.66913059716165679 0.3345652985808284 0 0.37157241687929571 1 I I 0 1 0.5 forward I I I I #
face $-1 $200 $201 $65 $-1 $202 forward single #
loop $-1 $203 $204 $82 #
cone-surface $-1 -61.755653630765053 11.793102055216096 7.7997420391533012 0.74314483375859142 0 -0.66913059716165679 0.3345652985808284 0 0.37157241687929571 1 I I 0 1 0.5 forward I I I I #
face $-1 $205 $206 $66 $-1 $207 reversed single #
loop $-1 $-1 $208 $83 #
plane-surface $-1 42.120723473073326 6.3814696959335233 186.44932347362735 0 -1 0 -0.61566148304635926 0 -0.78801074757464917 forward_v I I I I #
face $-1 $209 $210 $67 $-1 $211 forward single #
loop $-1 $212 $213 $84 #
cone-surface $-1 60.758585512538168 2.5035330804971245 7.3910661304509304 -0.61566148304635926 0 -0.78801074757464917 0.78801074757464917 0 -0.61566148304635926 1 I I 0 1 1 forward I I I I #
face $-1 $214 $215 $51 $-1 $216 reversed single #
loop $-1 $-1 $217 $85 #
plane-surface $-1 0 0 -10.468797348126282 0 0 1 1 0 0 forward_v I I I I #
coedge $-1 $218 $219 $220 $221 forward $86 $-1 #
face $-1 $222 $223 $52 $-1 $224 reversed single #
loop $-1 $-1 $225 $88 #
plane-surface $-1 -44.839269221713678 -14.99173157695725 0 0 -1 0 0 0 -1 forward_v I I I I #
coedge $-1 $226 $227 $228 $229 forward $89 $-1 #
face $-1 $230 $231 $53 $-1 $232 reversed single #
loop $-1 $-1 $233 $91 #
plane-surface $-1 -46.339269221713678 21.661806301299244 0 1 0 0 0 0 -1 forward_v I I I I #
coedge $-1 $234 $235 $236 $237 forward $92 $-1 #
face $-1 $238 $239 $54 $-1 $240 reversed single #
loop $-1 $-1 $241 $94 #
plane-surface $-1 -64.276863917966253 -9.9935994677195836 6.2532116595506437 -0.74314483375859142 0 0.66913059716165679 0.66913059716165679 0 0.74314483375859142 forward_v I I I I #
coedge $-1 $242 $243 $244 $245 reversed $95 $-1 #
face $-1 $-1 $246 $55 $-1 $247 forward single #
loop $-1 $248 $249 $97 #
cone-surface $-1 -60.946522289428088 -11.793102055216092 7.0711969251777216 0.74314483375859142 0 -0.66913059716165679 0.1672826492904142 0 0.18578620843964785 1 I I -0.70710678118654746 0.70710678118654746 0.25 forward I I I I #
loop $-1 $-1 $250 $72 #
coedge $-1 $156 $156 $251 $252 reversed $98 $-1 #
face $-1 $-1 $253 $56 $-1 $254 forward single #
loop $-1 $255 $256 $100 #
cone-surface $-1 -60.946522289428088 -9.9935994677195836 7.0711969251777216 0.74314483375859142 0 -0.66913059716165679 0.1672826492904142 0 0.18578620843964785 1 I I -0.70710678118654746 0.70710678118654746 0.25 forward I I I I #
loop $-1 $-1 $257 $73 #
coedge $-1 $161 $161 $258 $259 reversed $101 $-1 #
face $-1 $-1 $260 $57 $-1 $261 forward single #
loop $-1 $262 $263 $103 #
cone-surface $-1 -60.946522289428088 -8.1940968802230749 7.0711969251777216 0.74314483375859142 0 -0.66913059716165679 0.1672826492904142 0 0.18578620843964785 1 I I -0.70710678118654746 0.70710678118654746 0.25 forward I I I I #
loop $-1 $-1 $264 $74 #
coedge $-1 $166 $166 $265 $266 reversed $104 $-1 #
face $-1 $267 $268 $58 $-1 $269 reversed single #
loop $-1 $-1 $270 $106 #
plane-surface $-1 -64.276863917966253 0 6.2532116595506437 -0.74314483375859142 0 0.66913059716165679 0.66913059716165679 0 0.74314483375859142 forward_v I I I I #
coedge $-1 $271 $272 $273 $274 reversed $107 $-1 #
face $-1 $-1 $275 $59 $-1 $276 forward single #
loop $-1 $277 $278 $109 #
cone-surface $-1 -60.946522289428088 -1.7995025874965087 7.0711969251777216 0.74314483375859142 0 -0.66913059716165679 0.1672826492904142 0 0.18578620843964785 1 I I -0.70710678118654746 0.70710678118654746 0.25 forward I I I I #
loop $-1 $-1 $279 $76 #
coedge $-1 $175 $175 $280 $281 reversed $110 $-1 #
face $-1 $-1 $282 $60 $-1 $283 forward single #
loop $-1 $284 $285 $112 #
cone-surface $-1 -60.946522289428088 0 7.0711969251777216 0.74314483375859142 0 -0.66913059716165679 0.1672826492904142 0 0.18578620843964785 1 I I -0.70710678118654746 0.70710678118654746 0.25 forward I I I I #
loop $-1 $-1 $286 $77 #
coedge $-1 $180 $180 $287 $288 reversed $113 $-1 #
face $-1 $-1 $289 $61 $-1 $290 forward single #
loop $-1 $291 $292 $115 #
cone-surface $-1 -60.946522289428088 1.7995025874965087 7.0711969251777216 0.74314483375859142 0 -0.66913059716165679 0.1672826492904142 0 0.18578620843964785 1 I I -0.70710678118654746 0.70710678118654746 0.25 forward I I I I #
loop $-1 $-1 $293 $78 #
coedge $-1 $185 $185 $294 $295 reversed $116 $-1 #
face $-1 $296 $297 $62 $-1 $298 reversed single #
loop $-1 $-1 $299 $118 #
plane-surface $-1 -64.276863917966253 9.9935994677195836 6.2532116595506437 -0.74314483375859142 0 0.66913059716165679 0.66913059716165679 0 0.74314483375859142 forward_v I I I I #
coedge $-1 $300 $301 $302 $303 reversed $119 $-1 #
face $-1 $-1 $304 $63 $-1 $305 forward single #
loop $-1 $306 $307 $121 #
cone-surface $-1 -60.946522289428088 8.1940968802230714 7.0711969251777216 0.74314483375859142 0 -0.66913059716165679 0.1672826492904142 0 0.18578620843964785 1 I I -0.70710678118654746 0.70710678118654746 0.25 forward I I I I #
loop $-1 $-1 $308 $80 #
coedge $-1 $194 $194 $309 $310 reversed $122 $-1 #
face $-1 $-1 $311 $64 $-1 $312 forward single #
loop $-1 $313 $314 $124 #
cone-surface $-1 -60.946522289428088 9.9935994677195836 7.0711969251777216 0.74314483375859142 0 -0.66913059716165679 0.1672826492904142 0 0.18578620843964785 1 I I -0.70710678118654746 0.70710678118654746 0.25 forward I I I I #
loop $-1 $-1 $315 $81 #
coedge $-1 $199 $199 $316 $317 reversed $125 $-1 #
face $-1 $-1 $318 $65 $-1 $319 forward single #
loop $-1 $320 $321 $127 #
cone-surface $-1 -60.946522289428088 11.793102055216096 7.0711969251777216 0.74314483375859142 0 -0.66913059716165679 0.1672826492904142 0 0.18578620843964785 1 I I -0.70710678118654746 0.70710678118654746 0.25 forward I I I I #
loop $-1 $-1 $322 $82 #
coedge $-1 $204 $204 $323 $324 reversed $128 $-1 #
face $-1 $325 $326 $66 $-1 $327 reversed single #
loop $-1 $-1 $328 $130 #
plane-surface $-1 -37.024855257534895 2.503533080497121 85.147604298126211 0.61566148304635926 0 0.78801074757464917 0.78801074757464917 0 -0.61566148304635926 forward_v I I I I #
coedge $-1 $329 $330 $331 $332 reversed $131 $-1 #
face $-1 $-1 $333 $67 $-1 $334 forward single #
loop $-1 $335 $336 $133 #
cone-surface $-1 59.791079889609421 2.5035330804971245 6.1527154292924049 -0.61566148304635926 0 -0.78801074757464917 0.39400537378732459 0 -0.30783074152317963 1 I I -0.70710678118654746 0.70710678118654746 0.5 forward I I I I #
loop $-1 $-1 $337 $84 #
coedge $-1 $213 $213 $338 $339 reversed $134 $-1 #
face $-1 $340 $341 $51 $-1 $342 reversed single #
loop $-1 $-1 $343 $136 #
plane-surface $-1 0 -28.331881025641238 0 0 1 0 0 0 1 forward_v I I I I #
coedge $-1 $344 $345 $346 $347 forward $137 $-1 #
coedge $-1 $348 $139 $349 $350 forward $86 $-1 #
coedge $-1 $139 $348 $351 $352 forward $86 $-1 #
coedge $-1 $353 $354 $139 $221 reversed $355 $-1 #
edge $-1 $356 -28.331881025641238 $357 28.331881025641238 $220 $358 forward 7 unknown #
face $-1 $359 $360 $52 $-1 $361 forward single #
loop $-1 $-1 $362 $140 #
plane-surface $-1 -43.339269221713678 -21.661806301299244 0 -1 0 0 0 0 1 forward_v I I I I #
coedge $-1 $363 $364 $365 $366 forward $141 $-1 #
coedge $-1 $367 $143 $368 $369 reversed $89 $-1 #
coedge $-1 $143 $367 $370 $371 reversed $89 $-1 #
coedge $-1 $364 $363 $143 $229 reversed $141 $-1 #
edge $-1 $372 -10.468797348126282 $373 10.468797348126282 $228 $374 forward 7 unknown #
face $-1 $375 $376 $53 $-1 $377 reversed single #
loop $-1 $-1 $378 $144 #
plane-surface $-1 -43.339269221713678 21.661806301299244 0 -1 0 0 0 0 1 forward_v I I I I #
coedge $-1 $379 $380 $381 $382 reversed $145 $-1 #
coedge $-1 $383 $147 $384 $385 reversed $92 $-1 #
coedge $-1 $147 $383 $386 $387 reversed $92 $-1 #
coedge $-1 $380 $379 $147 $237 reversed $145 $-1 #
edge $-1 $388 -10.468797348126282 $389 10.468797348126282 $236 $390 forward 7 unknown #
face $-1 $391 $392 $54 $-1 $393 reversed single #
loop $-1 $-1 $394 $148 #
plane-surface $-1 -159.81090261964749 -6.994428488558734 92.27244433376525 0 -1 0 0.74314483375859142 0 -0.66913059716165679 forward_v I I I I #
coedge $-1 $395 $396 $397 $398 reversed $149 $-1 #
coedge $-1 $243 $151 $399 $400 reversed $95 $-1 #
coedge $-1 $151 $242 $395 $401 reversed $95 $-1 #
coedge $-1 $397 $402 $151 $245 forward $403 $-1 #
edge $-1 $404 15.628587391857508 $405 19.424317700465238 $244 $406 forward 7 unknown #
loop $-1 $-1 $251 $152 #
plane-surface $-1 -64.276863917966253 -9.9935994677195836 6.2532116595506437 -0.74314483375859142 0 0.66913059716165679 0.66913059716165679 0 0.74314483375859142 forward_v I I I I #
loop $-1 $-1 $407 $97 #
coedge $-1 $249 $249 $250 $408 reversed $153 $-1 #
coedge $-1 $250 $250 $249 $408 forward $155 $-1 #
coedge $-1 $251 $251 $156 $252 forward $246 $-1 #
edge $-1 $409 0 $409 6.2831853071796004 $251 $410 forward 7 unknown #
loop $-1 $-1 $258 $157 #
plane-surface $-1 -64.276863917966253 -9.9935994677195836 6.2532116595506437 -0.74314483375859142 0 0.66913059716165679 0.66913059716165679 0 0.74314483375859142 forward_v I I I I #
loop $-1 $-1 $411 $100 #
coedge $-1 $256 $256 $257 $412 reversed $158 $-1 #
coedge $-1 $257 $257 $256 $412 forward $160 $-1 #
coedge $-1 $258 $258 $161 $259 forward $253 $-1 #
edge $-1 $413 0 $413 6.2831853071796004 $258 $414 forward 7 unknown #
loop $-1 $-1 $265 $162 #
plane-surface $-1 -64.276863917966253 -9.9935994677195836 6.2532116595506437 -0.74314483375859142 0 0.66913059716165679 0.66913059716165679 0 0.74314483375859142 forward_v I I I I #
loop $-1 $-1 $415 $103 #
coedge $-1 $263 $263 $264 $416 reversed $163 $-1 #
coedge $-1 $264 $264 $263 $416 forward $165 $-1 #
coedge $-1 $265 $265 $166 $266 forward $260 $-1 #
edge $-1 $417 0 $417 6.2831853071796004 $265 $418 forward 7 unknown #
face $-1 $419 $420 $58 $-1 $421 forward single #
loop $-1 $-1 $422 $167 #
plane-surface $-1 -159.81090261964749 2.9991709791608496 92.27244433376525 0 -1 0 0.74314483375859142 0 -0.66913059716165679 forward_v I I I I #
coedge $-1 $423 $424 $425 $426 reversed $168 $-1 #
coedge $-1 $272 $170 $427 $428 reversed $107 $-1 #
coedge $-1 $170 $271 $423 $429 reversed $107 $-1 #
coedge $-1 $425 $430 $170 $274 forward $420 $-1 #
edge $-1 $431 15.628587391857508 $432 19.424317700465238 $273 $433 forward 7 unknown #
loop $-1 $-1 $280 $171 #
plane-surface $-1 -64.276863917966253 0 6.2532116595506437 -0.74314483375859142 0 0.66913059716165679 0.66913059716165679 0 0.74314483375859142 forward_v I I I I #
loop $-1 $-1 $434 $109 #
coedge $-1 $278 $278 $279 $435 reversed $172 $-1 #
coedge $-1 $279 $279 $278 $435 forward $174 $-1 #
coedge $-1 $280 $280 $175 $281 forward $275 $-1 #
edge $-1 $436 0 $436 6.2831853071796004 $280 $437 forward 7 unknown #
loop $-1 $-1 $287 $176 #
plane-surface $-1 -64.276863917966253 0 6.2532116595506437 -0.74314483375859142 0 0.66913059716165679 0.66913059716165679 0 0.74314483375859142 forward_v I I I I #
loop $-1 $-1 $438 $112 #
coedge $-1 $285 $285 $286 $439 reversed $177 $-1 #
coedge $-1 $286 $286 $285 $439 forward $179 $-1 #
coedge $-1 $287 $287 $180 $288 forward $282 $-1 #
edge $-1 $440 0 $440 6.2831853071796004 $287 $441 forward 7 unknown #
loop $-1 $-1 $294 $181 #
plane-surface $-1 -64.276863917966253 0 6.2532116595506437 -0.74314483375859142 0 0.66913059716165679 0.66913059716165679 0 0.74314483375859142 forward_v I I I I #
loop $-1 $-1 $442 $115 #
coedge $-1 $292 $292 $293 $443 reversed $182 $-1 #
coedge $-1 $293 $293 $292 $443 forward $184 $-1 #
coedge $-1 $294 $294 $185 $295 forward $289 $-1 #
edge $-1 $444 0 $444 6.2831853071796004 $294 $445 forward 7 unknown #
face $-1 $446 $447 $62 $-1 $448 forward single #
loop $-1 $-1 $449 $186 #
plane-surface $-1 -159.81090261964749 12.992770446880433 92.27244433376525 0 -1 0 0.74314483375859142 0 -0.66913059716165679 forward_v I I I I #
coedge $-1 $450 $451 $452 $453 reversed $187 $-1 #
coedge $-1 $301 $189 $454 $455 reversed $119 $-1 #
coedge $-1 $189 $300 $450 $456 reversed $119 $-1 #
coedge $-1 $452 $457 $189 $303 forward $447 $-1 #
edge $-1 $458 15.628587391857508 $459 19.424317700465238 $302 $460 forward 7 unknown #
loop $-1 $-1 $309 $190 #
plane-surface $-1 -64.276863917966253 9.9935994677195836 6.2532116595506437 -0.74314483375859142 0 0.66913059716165679 0.66913059716165679 0 0.74314483375859142 forward_v I I I I #
loop $-1 $-1 $461 $121 #
coedge $-1 $307 $307 $308 $462 reversed $191 $-1 #
coedge $-1 $308 $308 $307 $462 forward $193 $-1 #
coedge $-1 $309 $309 $194 $310 forward $304 $-1 #
edge $-1 $463 0 $463 6.2831853071796004 $309 $464 forward 7 unknown #
loop $-1 $-1 $316 $195 #
plane-surface $-1 -64.276863917966253 9.9935994677195836 6.2532116595506437 -0.74314483375859142 0 0.66913059716165679 0.66913059716165679 0 0.74314483375859142 forward_v I I I I #
loop $-1 $-1 $465 $124 #
coedge $-1 $314 $314 $315 $466 reversed $196 $-1 #
coedge $-1 $315 $315 $314 $466 forward $198 $-1 #
coedge $-1 $316 $316 $199 $317 forward $311 $-1 #
edge $-1 $467 0 $467 6.2831853071796004 $316 $468 forward 7 unknown #
loop $-1 $-1 $323 $200 #
plane-surface $-1 -64.276863917966253 9.9935994677195836 6.2532116595506437 -0.74314483375859142 0 0.66913059716165679 0.66913059716165679 0 0.74314483375859142 forward_v I I I I #
loop $-1 $-1 $469 $127 #
coedge $-1 $321 $321 $322 $470 reversed $201 $-1 #
coedge $-1 $322 $322 $321 $470 forward $203 $-1 #
coedge $-1 $323 $323 $204 $324 forward $318 $-1 #
edge $-1 $471 0 $471 6.2831853071796004 $323 $472 forward 7 unknown #
face $-1 $473 $474 $66 $-1 $475 forward single #
loop $-1 $-1 $476 $205 #
plane-surface $-1 42.120723473073326 -1.3744035349392814 186.44932347362735 0 1 0 0.61566148304635926 0 0.78801074757464917 forward_v I I I I #
coedge $-1 $477 $478 $479 $480 reversed $206 $-1 #
coedge $-1 $330 $208 $481 $482 reversed $131 $-1 #
coedge $-1 $208 $329 $477 $483 reversed $131 $-1 #
coedge $-1 $479 $484 $208 $332 forward $474 $-1 #
edge $-1 $485 -43.216502181429576 $486 -37.499295133384564 $331 $487 forward 7 unknown #
loop $-1 $-1 $338 $209 #
plane-surface $-1 -37.024855257534895 2.503533080497121 85.147604298126211 0.61566148304635926 0 0.78801074757464917 0.78801074757464917 0 -0.61566148304635926 forward_v I I I I #
loop $-1 $-1 $488 $133 #
coedge $-1 $336 $336 $337 $489 reversed $210 $-1 #
coedge $-1 $337 $337 $336 $489 forward $212 $-1 #
coedge $-1 $338 $338 $213 $339 forward $333 $-1 #
edge $-1 $490 0 $490 6.2831853071796004 $338 $491 forward 7 unknown #
face $-1 $492 $493 $51 $-1 $494 reversed single #
loop $-1 $-1 $495 $214 #
plane-surface $-1 -64.276863917966239 0 0 1 0 0 0 0 -1 forward_v I I I I #
coedge $-1 $496 $351 $497 $498 forward $215 $-1 #
coedge $-1 $499 $217 $496 $500 forward $137 $-1 #
coedge $-1 $217 $499 $501 $502 forward $137 $-1 #
coedge $-1 $354 $353 $217 $347 reversed $355 $-1 #
edge $-1 $503 -28.331881025641238 $504 28.331881025641238 $346 $505 forward 7 unknown #
coedge $-1 $219 $218 $506 $507 forward $86 $-1 #
coedge $-1 $508 $509 $218 $350 reversed $493 $-1 #
edge $-1 $357 -64.276863917966239 $510 64.276863917966239 $349 $511 forward 7 unknown #
coedge $-1 $343 $512 $219 $352 reversed $215 $-1 #
edge $-1 $513 -64.276863917966239 $356 64.276863917966239 $351 $514 forward 7 unknown #
coedge $-1 $346 $220 $512 $515 forward $355 $-1 #
coedge $-1 $220 $346 $508 $516 reversed $355 $-1 #
loop $-1 $-1 $353 $492 #
vertex $-1 $221 $517 #
vertex $-1 $221 $518 #
straight-curve $-1 64.276863917966239 0 10.468797348126282 0 1 0 I I #
face $-1 $519 $520 $52 $-1 $521 reversed single #
loop $-1 $-1 $522 $222 #
plane-surface $-1 0 0 10.468797348126282 0 0 1 1 0 0 forward_v I I I I #
coedge $-1 $523 $524 $525 $526 reversed $223 $-1 #
coedge $-1 $228 $225 $527 $528 reversed $141 $-1 #
coedge $-1 $225 $228 $529 $530 reversed $141 $-1 #
coedge $-1 $524 $523 $225 $366 reversed $223 $-1 #
edge $-1 $531 -10.468797348126282 $532 10.468797348126282 $365 $533 forward 7 unknown #
coedge $-1 $227 $226 $534 $535 reversed $89 $-1 #
coedge $-1 $527 $536 $226 $369 forward $520 $-1 #
edge $-1 $537 -17.500977874991616 $373 -4.1608284263076278 $368 $538 forward 7 unknown #
coedge $-1 $539 $529 $227 $371 forward $360 $-1 #
edge $-1 $372 4.1608284263076278 $540 17.500977874991616 $370 $541 forward 7 unknown #
vertex $-1 $371 $542 #
vertex $-1 $369 $543 #
straight-curve $-1 -46.339269221713678 -14.99173157695725 0 0 0 -1 I I #
face $-1 $544 $545 $53 $-1 $546 forward single #
loop $-1 $-1 $547 $230 #
plane-surface $-1 0 0 -10.468797348126282 0 0 1 1 0 0 forward_v I I I I #
coedge $-1 $548 $549 $383 $550 forward $231 $-1 #
coedge $-1 $236 $233 $551 $552 reversed $145 $-1 #
coedge $-1 $233 $236 $553 $554 reversed $145 $-1 #
coedge $-1 $555 $556 $233 $382 forward $557 $-1 #
edge $-1 $558 -10.468797348126282 $559 10.468797348126282 $381 $560 forward 7 unknown #
coedge $-1 $235 $234 $378 $550 reversed $92 $-1 #
coedge $-1 $551 $547 $234 $385 forward $376 $-1 #
edge $-1 $561 20.919634610856839 $389 23.919634610856839 $384 $562 forward 7 unknown #
coedge $-1 $563 $553 $235 $387 forward $545 $-1 #
edge $-1 $388 -23.919634610856839 $564 -20.919634610856839 $386 $565 forward 7 unknown #
vertex $-1 $387 $566 #
vertex $-1 $385 $567 #
straight-curve $-1 -46.339269221713678 14.99173157695725 0 0 0 -1 I I #
face $-1 $-1 $403 $54 $-1 $568 forward single #
loop $-1 $-1 $569 $238 #
plane-surface $-1 -64.276863917966239 0 0 1 0 0 0 0 -1 forward_v I I I I #
coedge $-1 $570 $571 $572 $573 reversed $239 $-1 #
coedge $-1 $574 $241 $243 $401 forward $149 $-1 #
coedge $-1 $241 $574 $570 $575 forward $149 $-1 #
coedge $-1 $572 $244 $241 $398 forward $403 $-1 #
edge $-1 $405 -7.9959707130206414 $576 -1.9976287546989422 $397 $577 forward 7 unknown #
coedge $-1 $578 $579 $242 $400 forward $392 $-1 #
edge $-1 $580 -39.883010507331967 $404 -35.667424818756345 $399 $581 forward 7 unknown #
edge $-1 $405 -5.6726300137949401 $580 -2.1389731374768986e-014 $243 $582 forward 7 unknown #
coedge $-1 $244 $572 $578 $583 forward $403 $-1 #
loop $-1 $-1 $572 $391 #
vertex $-1 $400 $584 #
vertex $-1 $245 $585 #
straight-curve $-1 -79.905451309823746 -12.992770446880433 10.46879734812628 1 0 0 I I #
coedge $-1 $407 $407 $-1 $586 reversed $248 $-1 #
edge $-1 $587 0 $587 6.2831853071796004 $249 $588 forward 7 unknown #
vertex $-1 $252 $589 #
ellipse-curve $-1 -62.378998763662374 -11.793102055216092 8.361004503838469 -0.74314483375859142 0 0.66913059716165679 0.3345652985808284 0 0.37157241687929571 1 I I #
coedge $-1 $411 $411 $-1 $590 reversed $255 $-1 #
edge $-1 $591 0 $591 6.2831853071796004 $256 $592 forward 7 unknown #
vertex $-1 $259 $593 #
ellipse-curve $-1 -62.378998763662374 -9.9935994677195836 8.361004503838469 -0.74314483375859142 0 0.66913059716165679 0.3345652985808284 0 0.37157241687929571 1 I I #
coedge $-1 $415 $415 $-1 $594 reversed $262 $-1 #
edge $-1 $595 0 $595 6.2831853071796004 $263 $596 forward 7 unknown #
vertex $-1 $266 $597 #
ellipse-curve $-1 -62.378998763662374 -8.1940968802230749 8.361004503838469 -0.74314483375859142 0 0.66913059716165679 0.3345652985808284 0 0.37157241687929571 1 I I #
face $-1 $-1 $598 $58 $-1 $599 reversed single #
loop $-1 $-1 $273 $267 #
plane-surface $-1 0 0 10.468797348126282 0 0 1 1 0 0 forward_v I I I I #
coedge $-1 $600 $601 $602 $603 reversed $268 $-1 #
coedge $-1 $604 $270 $272 $429 forward $168 $-1 #
coedge $-1 $270 $604 $600 $605 forward $168 $-1 #
coedge $-1 $602 $273 $270 $426 forward $420 $-1 #
edge $-1 $432 -2.9991709791608496 $606 2.9991709791608496 $425 $607 forward 7 unknown #
coedge $-1 $608 $609 $271 $428 forward $598 $-1 #
edge $-1 $610 -39.883010507331967 $431 -35.667424818756345 $427 $611 forward 7 unknown #
edge $-1 $432 -5.6726300137949401 $610 -2.1389731374768986e-014 $272 $612 forward 7 unknown #
coedge $-1 $273 $602 $608 $613 forward $420 $-1 #
vertex $-1 $428 $614 #
vertex $-1 $274 $615 #
straight-curve $-1 -79.905451309823746 -2.9991709791608496 10.46879734812628 1 0 0 I I #
coedge $-1 $434 $434 $-1 $616 reversed $277 $-1 #
edge $-1 $617 0 $617 6.2831853071796004 $278 $618 forward 7 unknown #
vertex $-1 $281 $619 #
ellipse-curve $-1 -62.378998763662374 -1.7995025874965087 8.361004503838469 -0.74314483375859142 0 0.66913059716165679 0.3345652985808284 0 0.37157241687929571 1 I I #
coedge $-1 $438 $438 $-1 $620 reversed $284 $-1 #
edge $-1 $621 0 $621 6.2831853071796004 $285 $622 forward 7 unknown #
vertex $-1 $288 $623 #
ellipse-curve $-1 -62.378998763662374 0 8.361004503838469 -0.74314483375859142 0 0.66913059716165679 0.3345652985808284 0 0.37157241687929571 1 I I #
coedge $-1 $442 $442 $-1 $624 reversed $291 $-1 #
edge $-1 $625 0 $625 6.2831853071796004 $292 $626 forward 7 unknown #
vertex $-1 $295 $627 #
ellipse-curve $-1 -62.378998763662374 1.7995025874965087 8.361004503838469 -0.74314483375859142 0 0.66913059716165679 0.3345652985808284 0 0.37157241687929571 1 I I #
face $-1 $-1 $628 $62 $-1 $629 reversed single #
loop $-1 $-1 $302 $296 #
plane-surface $-1 0 0 10.468797348126282 0 0 1 1 0 0 forward_v I I I I #
coedge $-1 $630 $631 $632 $633 reversed $297 $-1 #
coedge $-1 $634 $299 $301 $456 forward $187 $-1 #
coedge $-1 $299 $634 $630 $635 forward $187 $-1 #
coedge $-1 $632 $302 $299 $453 forward $447 $-1 #
edge $-1 $459 1.9976287546989422 $636 7.9959707130206414 $452 $637 forward 7 unknown #
coedge $-1 $638 $639 $300 $455 forward $628 $-1 #
edge $-1 $640 -39.883010507331967 $458 -35.667424818756345 $454 $641 forward 7 unknown #
edge $-1 $459 -5.6726300137949401 $640 -2.1389731374768986e-014 $301 $642 forward 7 unknown #
coedge $-1 $302 $632 $638 $643 forward $447 $-1 #
vertex $-1 $303 $644 #
vertex $-1 $303 $645 #
straight-curve $-1 -79.905451309823746 6.994428488558734 10.46879734812628 1 0 0 I I #
coedge $-1 $461 $461 $-1 $646 reversed $306 $-1 #
edge $-1 $647 0 $647 6.2831853071796004 $307 $648 forward 7 unknown #
vertex $-1 $310 $649 #
ellipse-curve $-1 -62.378998763662374 8.1940968802230714 8.361004503838469 -0.74314483375859142 0 0.66913059716165679 0.3345652985808284 0 0.37157241687929571 1 I I #
coedge $-1 $465 $465 $-1 $650 reversed $313 $-1 #
edge $-1 $651 0 $651 6.2831853071796004 $314 $652 forward 7 unknown #
vertex $-1 $317 $653 #
ellipse-curve $-1 -62.378998763662374 9.9935994677195836 8.361004503838469 -0.74314483375859142 0 0.66913059716165679 0.3345652985808284 0 0.37157241687929571 1 I I #
coedge $-1 $469 $469 $-1 $654 reversed $320 $-1 #
edge $-1 $655 0 $655 6.2831853071796004 $321 $656 forward 7 unknown #
vertex $-1 $324 $657 #
ellipse-curve $-1 -62.378998763662374 11.793102055216096 8.361004503838469 -0.74314483375859142 0 0.66913059716165679 0.3345652985808284 0 0.37157241687929571 1 I I #
face $-1 $-1 $658 $66 $-1 $659 reversed single #
loop $-1 $-1 $331 $325 #
plane-surface $-1 0 0 10.468797348126282 0 0 1 1 0 0 forward_v I I I I #
coedge $-1 $660 $661 $662 $663 reversed $326 $-1 #
coedge $-1 $664 $328 $330 $483 forward $206 $-1 #
coedge $-1 $328 $664 $660 $665 forward $206 $-1 #
coedge $-1 $662 $331 $328 $480 forward $474 $-1 #
edge $-1 $486 -5.1297031556849628 $666 2.6261700751878418 $479 $667 forward 7 unknown #
coedge $-1 $668 $669 $329 $482 forward $658 $-1 #
edge $-1 $670 -87.222636169295683 $485 -82.755864388687385 $481 $671 forward 7 unknown #
edge $-1 $486 121.29848789708453 $670 128.55372783593248 $330 $672 forward 7 unknown #
coedge $-1 $331 $662 $668 $673 forward $474 $-1 #
vertex $-1 $332 $674 #
vertex $-1 $332 $675 #
straight-curve $-1 21.060361736536663 6.3814696959335233 10.468797348126287 -1 0 0 I I #
coedge $-1 $488 $488 $-1 $676 reversed $335 $-1 #
edge $-1 $677 0 $677 6.2831853071796004 $336 $678 forward 7 unknown #
vertex $-1 $339 $679 #
ellipse-curve $-1 61.418260393943733 2.5035330804971245 8.2354114578221296 0.61566148304635926 0 0.78801074757464917 0.78801074757464917 0 -0.61566148304635926 1 I I #
face $-1 $-1 $355 $51 $-1 $680 reversed single #
loop $-1 $-1 $508 $340 #
plane-surface $-1 0 28.331881025641238 0 0 -1 0 0 0 -1 forward_v I I I I #
coedge $-1 $681 $506 $509 $682 forward $341 $-1 #
coedge $-1 $512 $343 $344 $500 reversed $215 $-1 #
coedge $-1 $506 $681 $343 $498 reversed $341 $-1 #
edge $-1 $513 -10.468797348126282 $683 10.468797348126282 $497 $684 forward 7 unknown #
coedge $-1 $345 $344 $681 $685 forward $137 $-1 #
edge $-1 $504 -64.276863917966239 $683 64.276863917966239 $496 $686 forward 7 unknown #
coedge $-1 $509 $508 $345 $502 reversed $493 $-1 #
edge $-1 $687 -64.276863917966239 $503 64.276863917966239 $501 $688 forward 7 unknown #
vertex $-1 $347 $689 #
vertex $-1 $515 $690 #
straight-curve $-1 64.276863917966239 0 -10.468797348126282 0 -1 0 I I #
coedge $-1 $495 $497 $348 $507 reversed $341 $-1 #
edge $-1 $510 -28.331881025641238 $513 28.331881025641238 $506 $691 forward 7 unknown #
coedge $-1 $501 $349 $354 $516 forward $493 $-1 #
coedge $-1 $349 $501 $495 $682 reversed $493 $-1 #
vertex $-1 $350 $692 #
straight-curve $-1 0 28.331881025641238 10.468797348126282 -1 0 0 I I #
coedge $-1 $351 $496 $353 $515 reversed $215 $-1 #
vertex $-1 $507 $693 #
straight-curve $-1 0 -28.331881025641238 10.468797348126282 1 0 0 I I #
edge $-1 $356 -10.468797348126282 $504 10.468797348126282 $353 $694 forward 7 unknown #
edge $-1 $357 -10.468797348126282 $503 10.468797348126282 $354 $695 forward 7 unknown #
point $-1 64.276863917966239 -28.331881025641238 10.468797348126282 #
point $-1 64.276863917966239 28.331881025641238 10.468797348126282 #
face $-1 $-1 $696 $52 $-1 $697 reversed single #
loop $-1 $-1 $698 $359 #
plane-surface $-1 0 0 -10.468797348126282 0 0 1 1 0 0 forward_v I I I I #
coedge $-1 $529 $539 $524 $699 forward $360 $-1 #
coedge $-1 $365 $362 $698 $700 reversed $223 $-1 #
coedge $-1 $362 $365 $522 $699 reversed $223 $-1 #
coedge $-1 $701 $702 $362 $526 forward $696 $-1 #
edge $-1 $703 -10.468797348126282 $704 10.468797348126282 $525 $705 forward 7 unknown #
coedge $-1 $698 $368 $363 $528 forward $520 $-1 #
edge $-1 $373 -23.919634610856839 $532 -20.919634610856839 $527 $706 forward 7 unknown #
coedge $-1 $370 $522 $364 $530 forward $360 $-1 #
edge $-1 $531 20.919634610856839 $372 23.919634610856839 $529 $707 forward 7 unknown #
vertex $-1 $530 $708 #
vertex $-1 $528 $709 #
straight-curve $-1 -43.339269221713678 -14.99173157695725 0 0 0 -1 I I #
coedge $-1 $702 $701 $367 $535 forward $696 $-1 #
edge $-1 $540 -10.468797348126282 $537 10.468797348126282 $534 $710 forward 7 unknown #
coedge $-1 $368 $698 $702 $711 forward $520 $-1 #
vertex $-1 $369 $712 #
straight-curve $-1 -46.339269221713678 -10.830903150649622 -10.468797348126282 0 1 0 I I #
coedge $-1 $522 $370 $701 $713 forward $360 $-1 #
vertex $-1 $713 $714 #
straight-curve $-1 -46.339269221713678 -10.830903150649622 10.468797348126282 0 -1 0 I I #
point $-1 -46.339269221713678 -14.99173157695725 10.468797348126282 #
point $-1 -46.339269221713678 -14.99173157695725 -10.468797348126282 #
face $-1 $-1 $557 $53 $-1 $715 reversed single #
loop $-1 $-1 $563 $375 #
plane-surface $-1 0 0 10.468797348126282 0 0 1 1 0 0 forward_v I I I I #
coedge $-1 $384 $716 $548 $717 forward $376 $-1 #
coedge $-1 $718 $378 $547 $717 reversed $231 $-1 #
coedge $-1 $378 $718 $563 $719 reversed $231 $-1 #
edge $-1 $564 -10.468797348126282 $561 10.468797348126282 $378 $720 forward 7 unknown #
coedge $-1 $716 $384 $379 $552 forward $376 $-1 #
edge $-1 $389 4.1608284263076278 $558 17.500977874991616 $551 $721 forward 7 unknown #
coedge $-1 $386 $722 $380 $554 forward $545 $-1 #
edge $-1 $559 -17.500977874991616 $388 -4.1608284263076278 $553 $723 forward 7 unknown #
coedge $-1 $724 $381 $722 $725 reversed $557 $-1 #
coedge $-1 $381 $724 $716 $726 reversed $557 $-1 #
loop $-1 $-1 $724 $544 #
vertex $-1 $726 $727 #
vertex $-1 $382 $728 #
straight-curve $-1 -46.339269221713678 28.331881025641238 0 0 0 1 I I #
vertex $-1 $385 $729 #
straight-curve $-1 -22.419634610856839 14.99173157695725 -10.468797348126282 -1 0 0 I I #
coedge $-1 $722 $386 $549 $719 forward $545 $-1 #
vertex $-1 $387 $730 #
straight-curve $-1 -22.419634610856839 14.99173157695725 10.468797348126282 1 0 0 I I #
point $-1 -46.339269221713678 14.99173157695725 10.468797348126282 #
point $-1 -46.339269221713678 14.99173157695725 -10.468797348126282 #
plane-surface $-1 0 0 10.468797348126282 0 0 1 1 0 0 forward_v I I I I #
coedge $-1 $579 $578 $571 $731 forward $392 $-1 #
coedge $-1 $571 $394 $396 $575 reversed $239 $-1 #
coedge $-1 $394 $570 $569 $731 reversed $239 $-1 #
coedge $-1 $402 $397 $394 $573 forward $403 $-1 #
edge $-1 $576 -19.424317700465238 $732 -15.628587391857508 $572 $733 forward 7 unknown #
coedge $-1 $396 $395 $579 $734 reversed $149 $-1 #
edge $-1 $735 2.1389731374768986e-014 $576 5.6726300137949401 $570 $736 forward 7 unknown #
vertex $-1 $398 $737 #
straight-curve $-1 -60.481133609358501 -4.9967997338597918 10.468797348126282 0 1 0 I I #
coedge $-1 $569 $399 $402 $583 reversed $392 $-1 #
coedge $-1 $399 $569 $574 $734 forward $392 $-1 #
vertex $-1 $400 $738 #
straight-curve $-1 -64.276863917966239 -12.992770446880433 46.136222166882625 0 0 1 I I #
straight-curve $-1 -64.276863917966253 -12.992770446880433 6.2532116595506437 -0.66913059716165679 0 -0.74314483375859142 I I #
edge $-1 $732 6.994428488558734 $404 12.992770446880433 $578 $739 forward 7 unknown #
point $-1 -64.276863917966239 -12.992770446880433 10.468797348126282 #
point $-1 -60.481133609358508 -12.992770446880433 10.468797348126282 #
edge $-1 $740 1 $740 0 $407 $-1 forward 7 unknown #
vertex $-1 $408 $741 #
ellipse-curve $-1 -61.132308497867733 -11.793102055216092 7.2384795744681361 -0.74314483375859142 0 0.66913059716165679 0.3345652985808284 0 0.37157241687929571 1 I I #
point $-1 -62.044433465081546 -11.793102055216092 8.7325769207177633 #
edge $-1 $742 1 $742 0 $411 $-1 forward 7 unknown #
vertex $-1 $412 $743 #
ellipse-curve $-1 -61.132308497867733 -9.9935994677195836 7.2384795744681361 -0.74314483375859142 0 0.66913059716165679 0.3345652985808284 0 0.37157241687929571 1 I I #
point $-1 -62.044433465081546 -9.9935994677195836 8.7325769207177633 #
edge $-1 $744 1 $744 0 $415 $-1 forward 7 unknown #
vertex $-1 $416 $745 #
ellipse-curve $-1 -61.132308497867733 -8.1940968802230749 7.2384795744681361 -0.74314483375859142 0 0.66913059716165679 0.3345652985808284 0 0.37157241687929571 1 I I #
point $-1 -62.044433465081546 -8.1940968802230749 8.7325769207177633 #
loop $-1 $-1 $427 $419 #
plane-surface $-1 -64.276863917966239 0 0 1 0 0 0 0 -1 forward_v I I I I #
coedge $-1 $601 $422 $424 $605 reversed $268 $-1 #
coedge $-1 $422 $600 $746 $747 reversed $268 $-1 #
coedge $-1 $430 $425 $422 $603 forward $420 $-1 #
edge $-1 $606 -19.424317700465238 $748 -15.628587391857508 $602 $749 forward 7 unknown #
coedge $-1 $424 $423 $609 $750 reversed $168 $-1 #
edge $-1 $751 2.1389731374768986e-014 $606 5.6726300137949401 $600 $752 forward 7 unknown #
vertex $-1 $426 $753 #
straight-curve $-1 -60.481133609358501 0 10.468797348126282 0 1 0 I I #
coedge $-1 $746 $427 $430 $613 reversed $598 $-1 #
coedge $-1 $427 $746 $604 $750 forward $598 $-1 #
vertex $-1 $428 $754 #
straight-curve $-1 -64.276863917966239 -2.9991709791608496 46.136222166882625 0 0 1 I I #
straight-curve $-1 -64.276863917966253 -2.9991709791608496 6.2532116595506437 -0.66913059716165679 0 -0.74314483375859142 I I #
edge $-1 $748 -2.9991709791608496 $431 2.9991709791608496 $608 $755 forward 7 unknown #
point $-1 -64.276863917966239 -2.9991709791608496 10.468797348126282 #
point $-1 -60.481133609358508 -2.9991709791608496 10.468797348126282 #
edge $-1 $756 1 $756 0 $434 $-1 forward 7 unknown #
vertex $-1 $435 $757 #
ellipse-curve $-1 -61.132308497867733 -1.7995025874965087 7.2384795744681361 -0.74314483375859142 0 0.66913059716165679 0.3345652985808284 0 0.37157241687929571 1 I I #
point $-1 -62.044433465081546 -1.7995025874965087 8.7325769207177633 #
edge $-1 $758 1 $758 0 $438 $-1 forward 7 unknown #
vertex $-1 $439 $759 #
ellipse-curve $-1 -61.132308497867733 0 7.2384795744681361 -0.74314483375859142 0 0.66913059716165679 0.3345652985808284 0 0.37157241687929571 1 I I #
point $-1 -62.044433465081546 0 8.7325769207177633 #
edge $-1 $760 1 $760 0 $442 $-1 forward 7 unknown #
vertex $-1 $443 $761 #
ellipse-curve $-1 -61.132308497867733 1.7995025874965087 7.2384795744681361 -0.74314483375859142 0 0.66913059716165679 0.3345652985808284 0 0.37157241687929571 1 I I #
point $-1 -62.044433465081546 1.7995025874965087 8.7325769207177633 #
loop $-1 $-1 $454 $446 #
plane-surface $-1 -64.276863917966239 0 0 1 0 0 0 0 -1 forward_v I I I I #
coedge $-1 $631 $449 $451 $635 reversed $297 $-1 #
coedge $-1 $449 $630 $762 $763 reversed $297 $-1 #
coedge $-1 $457 $452 $449 $633 forward $447 $-1 #
edge $-1 $636 -19.424317700465238 $764 -15.628587391857508 $632 $765 forward 7 unknown #
coedge $-1 $451 $450 $639 $766 reversed $187 $-1 #
edge $-1 $767 2.1389731374768986e-014 $636 5.6726300137949401 $630 $768 forward 7 unknown #
vertex $-1 $453 $769 #
straight-curve $-1 -60.481133609358501 4.9967997338597918 10.468797348126282 0 1 0 I I #
coedge $-1 $762 $454 $457 $643 reversed $628 $-1 #
coedge $-1 $454 $762 $634 $766 forward $628 $-1 #
vertex $-1 $455 $770 #
straight-curve $-1 -64.276863917966239 6.994428488558734 46.136222166882625 0 0 1 I I #
straight-curve $-1 -64.276863917966253 6.994428488558734 6.2532116595506437 -0.66913059716165679 0 -0.74314483375859142 I I #
edge $-1 $764 -12.992770446880433 $458 -6.994428488558734 $638 $771 forward 7 unknown #
point $-1 -64.276863917966239 6.994428488558734 10.468797348126282 #
point $-1 -60.481133609358508 6.994428488558734 10.468797348126282 #
edge $-1 $772 1 $772 0 $461 $-1 forward 7 unknown #
vertex $-1 $462 $773 #
ellipse-curve $-1 -61.132308497867733 8.1940968802230714 7.2384795744681361 -0.74314483375859142 0 0.66913059716165679 0.3345652985808284 0 0.37157241687929571 1 I I #
point $-1 -62.044433465081546 8.1940968802230714 8.7325769207177633 #
edge $-1 $774 1 $774 0 $465 $-1 forward 7 unknown #
vertex $-1 $466 $775 #
ellipse-curve $-1 -61.132308497867733 9.9935994677195836 7.2384795744681361 -0.74314483375859142 0 0.66913059716165679 0.3345652985808284 0 0.37157241687929571 1 I I #
point $-1 -62.044433465081546 9.9935994677195836 8.7325769207177633 #
edge $-1 $776 1 $776 0 $469 $-1 forward 7 unknown #
vertex $-1 $470 $777 #
ellipse-curve $-1 -61.132308497867733 11.793102055216096 7.2384795744681361 -0.74314483375859142 0 0.66913059716165679 0.3345652985808284 0 0.37157241687929571 1 I I #
point $-1 -62.044433465081546 11.793102055216096 8.7325769207177633 #
loop $-1 $-1 $481 $473 #
plane-surface $-1 64.276863917966239 0 0 -1 0 0 0 0 1 forward_v I I I I #
coedge $-1 $661 $476 $478 $665 reversed $326 $-1 #
coedge $-1 $476 $660 $778 $779 reversed $326 $-1 #
coedge $-1 $484 $479 $476 $663 forward $474 $-1 #
edge $-1 $666 37.499295133384564 $780 43.216502181429576 $662 $781 forward 7 unknown #
coedge $-1 $478 $477 $669 $782 reversed $206 $-1 #
edge $-1 $783 -128.55372783593248 $666 -121.29848789708453 $660 $784 forward 7 unknown #
vertex $-1 $480 $785 #
straight-curve $-1 58.559656869921234 1.2517665402485605 10.468797348126273 0 -1 0 I I #
coedge $-1 $778 $481 $484 $673 reversed $658 $-1 #
coedge $-1 $481 $778 $664 $782 forward $658 $-1 #
vertex $-1 $482 $786 #
straight-curve $-1 64.276863917966239 6.3814696959335233 93.224661736813673 0 0 1 I I #
straight-curve $-1 -37.024855257534895 6.3814696959335233 85.147604298126211 0.78801074757464917 0 -0.61566148304635926 I I #
edge $-1 $780 -1.3744035349392814 $485 6.3814696959335233 $668 $787 forward 7 unknown #
point $-1 64.276863917966239 6.3814696959335233 10.468797348126282 #
point $-1 58.559656869921227 6.3814696959335233 10.468797348126287 #
edge $-1 $788 1 $788 0 $488 $-1 forward 7 unknown #
vertex $-1 $489 $789 #
ellipse-curve $-1 60.098910631132597 2.5035330804971245 6.5467208030797295 0.61566148304635926 0 0.78801074757464917 0.78801074757464917 0 -0.61566148304635926 1 I I #
point $-1 62.206271141518378 2.5035330804971245 7.6197499747757718 #
plane-surface $-1 64.276863917966239 0 0 -1 0 0 0 0 1 forward_v I I I I #
coedge $-1 $497 $495 $499 $685 reversed $341 $-1 #
edge $-1 $510 -10.468797348126282 $687 10.468797348126282 $509 $790 forward 7 unknown #
vertex $-1 $685 $791 #
straight-curve $-1 -64.276863917966239 -28.331881025641238 0 0 0 -1 I I #
edge $-1 $683 -28.331881025641238 $687 28.331881025641238 $681 $792 forward 7 unknown #
straight-curve $-1 0 -28.331881025641238 -10.468797348126282 -1 0 0 I I #
vertex $-1 $502 $793 #
straight-curve $-1 0 28.331881025641238 -10.468797348126282 1 0 0 I I #
point $-1 64.276863917966239 28.331881025641238 -10.468797348126282 #
point $-1 64.276863917966239 -28.331881025641238 -10.468797348126282 #
straight-curve $-1 -64.276863917966239 0 10.468797348126282 0 -1 0 I I #
point $-1 -64.276863917966239 28.331881025641238 10.468797348126282 #
point $-1 -64.276863917966239 -28.331881025641238 10.468797348126282 #
straight-curve $-1 64.276863917966239 -28.331881025641238 0 0 0 -1 I I #
straight-curve $-1 64.276863917966239 28.331881025641238 0 0 0 -1 I I #
loop $-1 $-1 $525 $519 #
plane-surface $-1 0 -28.331881025641238 0 0 1 0 0 0 1 forward_v I I I I #
coedge $-1 $536 $527 $523 $700 forward $520 $-1 #
edge $-1 $704 -17.500977874991616 $531 -4.1608284263076278 $522 $794 forward 7 unknown #
edge $-1 $532 4.1608284263076278 $703 17.500977874991616 $698 $795 forward 7 unknown #
coedge $-1 $534 $525 $539 $713 reversed $696 $-1 #
coedge $-1 $525 $534 $536 $711 reversed $696 $-1 #
vertex $-1 $711 $796 #
vertex $-1 $526 $797 #
straight-curve $-1 -43.339269221713678 -28.331881025641238 0 0 0 1 I I #
straight-curve $-1 -22.419634610856839 -14.99173157695725 -10.468797348126282 1 0 0 I I #
straight-curve $-1 -22.419634610856839 -14.99173157695725 10.468797348126282 -1 0 0 I I #
point $-1 -43.339269221713678 -14.99173157695725 10.468797348126282 #
point $-1 -43.339269221713678 -14.99173157695725 -10.468797348126282 #
straight-curve $-1 -46.339269221713678 -28.331881025641238 0 0 0 -1 I I #
edge $-1 $703 43.339269221713678 $537 46.339269221713678 $702 $798 forward 7 unknown #
point $-1 -46.339269221713678 -28.331881025641238 -10.468797348126282 #
edge $-1 $540 -46.339269221713678 $704 -43.339269221713678 $701 $799 forward 7 unknown #
point $-1 -46.339269221713678 -28.331881025641238 10.468797348126282 #
plane-surface $-1 0 28.331881025641238 0 0 -1 0 0 0 -1 forward_v I I I I #
coedge $-1 $547 $551 $556 $726 forward $376 $-1 #
edge $-1 $800 -17.500977874991616 $561 -4.1608284263076278 $547 $801 forward 7 unknown #
coedge $-1 $549 $548 $724 $802 reversed $231 $-1 #
edge $-1 $564 4.1608284263076278 $803 17.500977874991616 $563 $804 forward 7 unknown #
straight-curve $-1 -43.339269221713678 14.99173157695725 0 0 0 -1 I I #
straight-curve $-1 -46.339269221713678 10.830903150649622 -10.468797348126282 0 1 0 I I #
coedge $-1 $553 $563 $555 $725 forward $545 $-1 #
straight-curve $-1 -46.339269221713678 10.830903150649622 10.468797348126282 0 -1 0 I I #
coedge $-1 $556 $555 $718 $802 forward $557 $-1 #
edge $-1 $803 43.339269221713678 $559 46.339269221713678 $555 $805 forward 7 unknown #
edge $-1 $558 -46.339269221713678 $800 -43.339269221713678 $556 $806 forward 7 unknown #
point $-1 -46.339269221713678 28.331881025641238 -10.468797348126282 #
point $-1 -46.339269221713678 28.331881025641238 10.468797348126282 #
point $-1 -43.339269221713678 14.99173157695725 -10.468797348126282 #
point $-1 -43.339269221713678 14.99173157695725 10.468797348126282 #
edge $-1 $732 35.667424818756345 $735 39.883010507331967 $569 $807 forward 7 unknown #
vertex $-1 $583 $808 #
straight-curve $-1 -79.905451309823746 -6.994428488558734 10.46879734812628 -1 0 0 I I #
edge $-1 $735 1.9976287546989422 $580 7.9959707130206414 $579 $809 forward 7 unknown #
vertex $-1 $734 $810 #
straight-curve $-1 -64.276863917966253 -6.994428488558734 6.2532116595506437 0.66913059716165679 0 0.74314483375859142 I I #
point $-1 -60.481133609358508 -6.994428488558734 10.468797348126282 #
point $-1 -64.276863917966239 -12.992770446880433 6.2532116595506597 #
straight-curve $-1 -64.276863917966239 0 10.468797348126282 0 -1 0 I I #
vertex $-1 $586 $811 #
point $-1 -60.797743199286906 -11.793102055216092 7.6100519913474312 #
vertex $-1 $590 $812 #
point $-1 -60.797743199286906 -9.9935994677195836 7.6100519913474312 #
vertex $-1 $594 $813 #
point $-1 -60.797743199286906 -8.1940968802230749 7.6100519913474312 #
coedge $-1 $609 $608 $601 $747 forward $598 $-1 #
edge $-1 $748 35.667424818756345 $751 39.883010507331967 $746 $814 forward 7 unknown #
vertex $-1 $613 $815 #
straight-curve $-1 -79.905451309823746 2.9991709791608496 10.46879734812628 -1 0 0 I I #
edge $-1 $751 -2.9991709791608496 $610 2.9991709791608496 $609 $816 forward 7 unknown #
vertex $-1 $750 $817 #
straight-curve $-1 -64.276863917966253 2.9991709791608496 6.2532116595506437 0.66913059716165679 0 0.74314483375859142 I I #
point $-1 -60.481133609358508 2.9991709791608496 10.468797348126282 #
point $-1 -64.276863917966239 -2.9991709791608496 6.2532116595506597 #
straight-curve $-1 -64.276863917966239 0 10.468797348126282 0 -1 0 I I #
vertex $-1 $616 $818 #
point $-1 -60.797743199286906 -1.7995025874965087 7.6100519913474312 #
vertex $-1 $620 $819 #
point $-1 -60.797743199286906 0 7.6100519913474312 #
vertex $-1 $624 $820 #
point $-1 -60.797743199286906 1.7995025874965087 7.6100519913474312 #
coedge $-1 $639 $638 $631 $763 forward $628 $-1 #
edge $-1 $764 35.667424818756345 $767 39.883010507331967 $762 $821 forward 7 unknown #
vertex $-1 $643 $822 #
straight-curve $-1 -79.905451309823746 12.992770446880433 10.46879734812628 -1 0 0 I I #
edge $-1 $767 -7.9959707130206414 $640 -1.9976287546989422 $639 $823 forward 7 unknown #
vertex $-1 $766 $824 #
straight-curve $-1 -64.276863917966253 12.992770446880433 6.2532116595506437 0.66913059716165679 0 0.74314483375859142 I I #
point $-1 -60.481133609358508 12.992770446880433 10.468797348126282 #
point $-1 -64.276863917966239 6.994428488558734 6.2532116595506597 #
straight-curve $-1 -64.276863917966239 0 10.468797348126282 0 -1 0 I I #
vertex $-1 $646 $825 #
point $-1 -60.797743199286906 8.1940968802230714 7.6100519913474312 #
vertex $-1 $650 $826 #
point $-1 -60.797743199286906 9.9935994677195836 7.6100519913474312 #
vertex $-1 $654 $827 #
point $-1 -60.797743199286906 11.793102055216096 7.6100519913474312 #
coedge $-1 $669 $668 $661 $779 forward $658 $-1 #
edge $-1 $780 82.755864388687385 $783 87.222636169295683 $778 $828 forward 7 unknown #
vertex $-1 $673 $829 #
straight-curve $-1 21.060361736536663 -1.3744035349392814 10.468797348126287 1 0 0 I I #
edge $-1 $783 -2.6261700751878418 $670 5.1297031556849628 $669 $830 forward 7 unknown #
vertex $-1 $782 $831 #
straight-curve $-1 -37.024855257534895 -1.3744035349392814 85.147604298126211 -0.78801074757464917 0 0.61566148304635926 I I #
point $-1 58.559656869921227 -1.3744035349392814 10.468797348126287 #
point $-1 64.276863917966239 6.3814696959335233 6.0020255675179897 #
straight-curve $-1 64.276863917966239 0 10.468797348126282 0 1 0 I I #
vertex $-1 $676 $832 #
point $-1 60.88692137870725 2.5035330804971245 5.9310593200333699 #
straight-curve $-1 -64.276863917966239 28.331881025641238 0 0 0 -1 I I #
point $-1 -64.276863917966239 -28.331881025641238 -10.468797348126282 #
straight-curve $-1 -64.276863917966239 0 -10.468797348126282 0 1 0 I I #
point $-1 -64.276863917966239 28.331881025641238 -10.468797348126282 #
straight-curve $-1 -43.339269221713678 -10.830903150649622 10.468797348126282 0 1 0 I I #
straight-curve $-1 -43.339269221713678 -10.830903150649622 -10.468797348126282 0 -1 0 I I #
point $-1 -43.339269221713678 -28.331881025641238 -10.468797348126282 #
point $-1 -43.339269221713678 -28.331881025641238 10.468797348126282 #
straight-curve $-1 0 -28.331881025641238 -10.468797348126282 -1 0 0 I I #
straight-curve $-1 0 -28.331881025641238 10.468797348126282 1 0 0 I I #
vertex $-1 $802 $833 #
straight-curve $-1 -43.339269221713678 10.830903150649622 -10.468797348126282 0 -1 0 I I #
edge $-1 $803 -10.468797348126282 $800 10.468797348126282 $724 $834 forward 7 unknown #
vertex $-1 $725 $835 #
straight-curve $-1 -43.339269221713678 10.830903150649622 10.468797348126282 0 1 0 I I #
straight-curve $-1 0 28.331881025641238 10.468797348126282 -1 0 0 I I #
straight-curve $-1 0 28.331881025641238 -10.468797348126282 1 0 0 I I #
straight-curve $-1 -64.276863917966239 -6.994428488558734 46.136222166882625 0 0 -1 I I #
point $-1 -64.276863917966239 -6.994428488558734 10.468797348126282 #
straight-curve $-1 -64.276863917966239 -4.9967997338597918 6.2532116595506526 0 -1 0 I I #
point $-1 -64.276863917966239 -6.994428488558734 6.2532116595506597 #
point $-1 -60.760736080988444 -11.793102055216092 6.9039142758873071 #
point $-1 -60.760736080988444 -9.9935994677195836 6.9039142758873071 #
point $-1 -60.760736080988444 -8.1940968802230749 6.9039142758873071 #
straight-curve $-1 -64.276863917966239 2.9991709791608496 46.136222166882625 0 0 -1 I I #
point $-1 -64.276863917966239 2.9991709791608496 10.468797348126282 #
straight-curve $-1 -64.276863917966239 0 6.2532116595506526 0 -1 0 I I #
point $-1 -64.276863917966239 2.9991709791608496 6.2532116595506597 #
point $-1 -60.760736080988444 -1.7995025874965087 6.9039142758873071 #
point $-1 -60.760736080988444 0 6.9039142758873071 #
point $-1 -60.760736080988444 1.7995025874965087 6.9039142758873071 #
straight-curve $-1 -64.276863917966239 12.992770446880433 46.136222166882625 0 0 -1 I I #
point $-1 -64.276863917966239 12.992770446880433 10.468797348126282 #
straight-curve $-1 -64.276863917966239 4.9967997338597918 6.2532116595506526 0 -1 0 I I #
point $-1 -64.276863917966239 12.992770446880433 6.2532116595506597 #
point $-1 -60.760736080988444 8.1940968802230714 6.9039142758873071 #
point $-1 -60.760736080988444 9.9935994677195836 6.9039142758873071 #
point $-1 -60.760736080988444 11.793102055216096 6.9039142758873071 #
straight-curve $-1 64.276863917966239 -1.3744035349392814 93.224661736813673 0 0 -1 I I #
point $-1 64.276863917966239 -1.3744035349392814 10.468797348126282 #
straight-curve $-1 64.276863917966239 1.2517665402485605 6.0020255675179897 0 1 0 I I #
point $-1 64.276863917966239 -1.3744035349392814 6.0020255675179897 #
point $-1 59.483249148086244 2.5035330804971245 5.7587100555050803 #
point $-1 -43.339269221713678 28.331881025641238 -10.468797348126282 #
straight-curve $-1 -43.339269221713678 28.331881025641238 0 0 0 -1 I I #
point $-1 -43.339269221713678 28.331881025641238 10.468797348126282 #
End-of-ACIS-data 