500 0 15 0           
7 Unknown 11 ACIS 5.0 NT 24 Thu Mar 25 16:21:29 1999 
-1 9.9999999999999995e-007 1e-010 
body $-1 $15 $-1 $16 #
body $-1 $17 $-1 $18 #
body $-1 $19 $-1 $20 #
body $-1 $21 $-1 $22 #
body $-1 $23 $-1 $24 #
body $-1 $25 $-1 $26 #
body $-1 $27 $-1 $28 #
body $-1 $29 $-1 $30 #
body $-1 $31 $-1 $32 #
body $-1 $33 $-1 $34 #
body $-1 $35 $-1 $36 #
body $-1 $37 $-1 $38 #
body $-1 $39 $-1 $40 #
body $-1 $41 $-1 $42 #
body $-1 $43 $-1 $44 #
lump $-1 $-1 $45 $0 #
transform $-1 1 0 0 0 1 0 0 0 1 47.80907620471816 25.196974996250475 10.051183827585387 1 rotate no_reflect no_shear #
lump $-1 $-1 $46 $1 #
transform $-1 1 0 0 0 1 0 0 0 1 47.80907620471816 25.196974996250475 10.051183827585387 1 rotate no_reflect no_shear #
lump $-1 $-1 $47 $2 #
transform $-1 1 0 0 0 1 0 0 0 1 47.80907620471816 25.196974996250475 10.051183827585387 1 rotate no_reflect no_shear #
lump $-1 $-1 $48 $3 #
transform $-1 1 0 0 0 1 0 0 0 1 47.80907620471816 25.196974996250475 10.051183827585387 1 rotate no_reflect no_shear #
lump $-1 $-1 $49 $4 #
transform $-1 1 0 0 0 1 0 0 0 1 47.80907620471816 25.196974996250475 10.051183827585387 1 rotate no_reflect no_shear #
lump $-1 $-1 $50 $5 #
transform $-1 1 0 0 0 1 0 0 0 1 47.80907620471816 25.196974996250475 10.051183827585387 1 rotate no_reflect no_shear #
lump $-1 $-1 $51 $6 #
transform $-1 1 0 0 0 1 0 0 0 1 47.80907620471816 25.196974996250475 10.051183827585387 1 rotate no_reflect no_shear #
lump $-1 $-1 $52 $7 #
transform $-1 1 0 0 0 1 0 0 0 1 47.80907620471816 25.196974996250475 10.051183827585387 1 rotate no_reflect no_shear #
lump $-1 $-1 $53 $8 #
transform $-1 1 0 0 0 1 0 0 0 1 47.80907620471816 25.196974996250475 10.051183827585387 1 rotate no_reflect no_shear #
lump $-1 $-1 $54 $9 #
transform $-1 1 0 0 0 1 0 0 0 1 47.80907620471816 25.196974996250475 10.051183827585387 1 rotate no_reflect no_shear #
lump $-1 $-1 $55 $10 #
transform $-1 1 0 0 0 1 0 0 0 1 47.80907620471816 25.196974996250475 10.051183827585387 1 rotate no_reflect no_shear #
lump $-1 $-1 $56 $11 #
transform $-1 1 0 0 0 1 0 0 0 1 47.80907620471816 25.196974996250475 10.051183827585387 1 rotate no_reflect no_shear #
lump $-1 $-1 $57 $12 #
transform $-1 1 0 0 0 1 0 0 0 1 47.80907620471816 25.196974996250475 10.051183827585387 1 rotate no_reflect no_shear #
lump $-1 $-1 $58 $13 #
transform $-1 1 0 0 0 1 0 0 0 1 47.80907620471816 25.196974996250475 10.051183827585387 1 rotate no_reflect no_shear #
lump $-1 $-1 $59 $14 #
transform $-1 1 0 0 0 1 0 0 0 1 47.80907620471816 25.196974996250475 10.051183827585387 1 rotate no_reflect no_shear #
shell $-1 $-1 $-1 $60 $-1 $15 #
shell $-1 $-1 $-1 $61 $-1 $17 #
shell $-1 $-1 $-1 $62 $-1 $19 #
shell $-1 $-1 $-1 $63 $-1 $21 #
shell $-1 $-1 $-1 $64 $-1 $23 #
shell $-1 $-1 $-1 $65 $-1 $25 #
shell $-1 $-1 $-1 $66 $-1 $27 #
shell $-1 $-1 $-1 $67 $-1 $29 #
shell $-1 $-1 $-1 $68 $-1 $31 #
shell $-1 $-1 $-1 $69 $-1 $33 #
shell $-1 $-1 $-1 $70 $-1 $35 #
shell $-1 $-1 $-1 $71 $-1 $37 #
shell $-1 $-1 $-1 $72 $-1 $39 #
shell $-1 $-1 $-1 $73 $-1 $41 #
shell $-1 $-1 $-1 $74 $-1 $43 #
face $-1 $75 $76 $45 $-1 $77 reversed single #
face $-1 $78 $79 $46 $-1 $80 forward single #
face $-1 $81 $82 $47 $-1 $83 forward single #
face $-1 $84 $85 $48 $-1 $86 reversed single #
face $-1 $87 $88 $49 $-1 $89 forward single #
face $-1 $90 $91 $50 $-1 $92 reversed single #
face $-1 $93 $94 $51 $-1 $95 forward single #
face $-1 $96 $97 $52 $-1 $98 reversed single #
face $-1 $99 $100 $53 $-1 $101 forward single #
face $-1 $102 $103 $54 $-1 $104 reversed single #
face $-1 $105 $106 $55 $-1 $107 forward single #
face $-1 $108 $109 $56 $-1 $110 reversed single #
face $-1 $111 $112 $57 $-1 $113 forward single #
face $-1 $114 $115 $58 $-1 $116 forward single #
face $-1 $117 $118 $59 $-1 $119 forward single #
face $-1 $120 $121 $45 $-1 $122 reversed single #
loop $-1 $-1 $123 $60 #
plane-surface $-1 47.80907620471816 0 0 -1 0 0 0 0 1 forward_v I I I I #
face $-1 $124 $125 $46 $-1 $126 reversed single #
loop $-1 $-1 $127 $61 #
plane-surface $-1 -47.80907620471816 0 0 1 0 0 0 0 -1 forward_v I I I I #
face $-1 $128 $129 $47 $-1 $130 reversed single #
loop $-1 $-1 $131 $62 #
plane-surface $-1 47.80907620471816 0 0 -1 0 0 0 0 1 forward_v I I I I #
face $-1 $132 $133 $48 $-1 $134 reversed single #
loop $-1 $-1 $135 $63 #
plane-surface $-1 -35.430903863118495 62.534977121047859 102.9746045043899 1 0 0 0 -0.74314483375859142 -0.66913059716165679 forward_v I I I I #
face $-1 $136 $137 $49 $-1 $138 forward single #
loop $-1 $139 $140 $64 #
cone-surface $-1 -29.291426920218708 19.527616191173482 4.1413412267649292 0 -0.74314483375859142 -0.66913059716165679 1.5 0 0 1 I I 0 1 1.5 forward I I I I #
face $-1 $141 $142 $50 $-1 $143 reversed single #
loop $-1 $-1 $144 $65 #
plane-surface $-1 -15.866758163253937 62.534977121047859 102.9746045043899 1 0 0 0 -0.74314483375859142 -0.66913059716165679 forward_v I I I I #
face $-1 $145 $146 $51 $-1 $147 forward single #
loop $-1 $148 $149 $66 #
cone-surface $-1 -9.7272812203541505 19.527616191173482 4.1413412267649292 0 -0.74314483375859142 -0.66913059716165679 1.5 0 0 1 I I 0 1 1.5 forward I I I I #
face $-1 $150 $151 $52 $-1 $152 reversed single #
loop $-1 $-1 $153 $67 #
plane-surface $-1 3.6973875366106173 62.534977121047859 102.9746045043899 1 0 0 0 -0.74314483375859142 -0.66913059716165679 forward_v I I I I #
face $-1 $154 $155 $53 $-1 $156 forward single #
loop $-1 $157 $158 $68 #
cone-surface $-1 9.8368644795104032 19.527616191173482 4.1413412267649292 0 -0.74314483375859142 -0.66913059716165679 1.5 0 0 1 I I 0 1 1.5 forward I I I I #
face $-1 $159 $160 $54 $-1 $161 reversed single #
loop $-1 $-1 $162 $69 #
plane-surface $-1 23.26153323647517 62.534977121047859 102.9746045043899 1 0 0 0 -0.74314483375859142 -0.66913059716165679 forward_v I I I I #
face $-1 $163 $164 $55 $-1 $165 forward single #
loop $-1 $166 $167 $70 #
cone-surface $-1 29.401010179374957 19.527616191173482 4.1413412267649292 0 -0.74314483375859142 -0.66913059716165679 1.5 0 0 1 I I 0 1 1.5 forward I I I I #
face $-1 $168 $169 $56 $-1 $170 reversed single #
loop $-1 $-1 $171 $71 #
plane-surface $-1 -12.015613986726386 -89.17800806638229 75.826135226441409 -1 0 0 0 -0.66913061440640931 0.74314481823134659 forward_v I I I I #
face $-1 $172 $173 $57 $-1 $174 forward single #
loop $-1 $175 $176 $72 #
cone-surface $-1 -25.461598091494899 -21.28509206716836 6.323304022776667 0 0.66913061440640931 -0.74314481823134659 1 0 0 1 I I 0 1 1 forward I I I I #
face $-1 $177 $178 $58 $-1 $179 forward single #
loop $-1 $180 $181 $73 #
cone-surface $-1 -20.419354052206707 -21.28509206716836 6.323304022776667 0 0.66913061440640931 -0.74314481823134659 1 0 0 1 I I 0 1 1 forward I I I I #
face $-1 $182 $183 $59 $-1 $184 forward single #
loop $-1 $185 $186 $74 #
cone-surface $-1 -15.377110012918514 -21.28509206716836 6.323304022776667 0 0.66913061440640931 -0.74314481823134659 1 0 0 1 I I 0 1 1 forward I I I I #
face $-1 $187 $188 $45 $-1 $189 forward single #
loop $-1 $-1 $190 $75 #
plane-surface $-1 -47.80907620471816 0 0 1 0 0 0 0 -1 forward_v I I I I #
coedge $-1 $191 $192 $193 $194 reversed $76 $-1 #
face $-1 $195 $196 $46 $-1 $197 reversed single #
loop $-1 $-1 $198 $78 #
plane-surface $-1 0 0 -10.051183827585387 0 0 1 1 0 0 forward_v I I I I #
coedge $-1 $199 $200 $201 $202 forward $79 $-1 #
face $-1 $203 $204 $47 $-1 $205 reversed single #
loop $-1 $-1 $206 $81 #
plane-surface $-1 0 0 -10.051183827585387 0 0 1 1 0 0 forward_v I I I I #
coedge $-1 $207 $208 $209 $210 forward $82 $-1 #
face $-1 $211 $212 $48 $-1 $213 reversed single #
loop $-1 $-1 $214 $84 #
plane-surface $-1 -29.291426920218708 -8.5231588555663507 38.993573083169466 0 0.74314483375859142 0.66913059716165679 1 0 0 forward_v I I I I #
coedge $-1 $215 $216 $217 $218 reversed $85 $-1 #
face $-1 $-1 $219 $49 $-1 $220 forward single #
loop $-1 $221 $222 $87 #
cone-surface $-1 -29.291426920218708 17.131043842295426 1.9834578450891307 0 -0.74314483375859142 -0.66913059716165679 0.75 0 0 1 I I -0.70710678118654757 0.70710678118654757 0.75 forward I I I I #
loop $-1 $-1 $223 $64 #
coedge $-1 $140 $140 $224 $225 reversed $88 $-1 #
face $-1 $226 $227 $50 $-1 $228 reversed single #
loop $-1 $-1 $229 $90 #
plane-surface $-1 -9.7272812203541505 -8.5231588555663507 38.993573083169466 0 0.74314483375859142 0.66913059716165679 1 0 0 forward_v I I I I #
coedge $-1 $230 $231 $232 $233 reversed $91 $-1 #
face $-1 $-1 $234 $51 $-1 $235 forward single #
loop $-1 $236 $237 $93 #
cone-surface $-1 -9.7272812203541505 17.131043842295426 1.9834578450891307 0 -0.74314483375859142 -0.66913059716165679 0.75 0 0 1 I I -0.70710678118654757 0.70710678118654757 0.75 forward I I I I #
loop $-1 $-1 $238 $66 #
coedge $-1 $149 $149 $239 $240 reversed $94 $-1 #
face $-1 $241 $242 $52 $-1 $243 reversed single #
loop $-1 $-1 $244 $96 #
plane-surface $-1 9.8368644795104032 -8.5231588555663507 38.993573083169466 0 0.74314483375859142 0.66913059716165679 1 0 0 forward_v I I I I #
coedge $-1 $245 $246 $247 $248 reversed $97 $-1 #
face $-1 $-1 $249 $53 $-1 $250 forward single #
loop $-1 $251 $252 $99 #
cone-surface $-1 9.8368644795104032 17.131043842295426 1.9834578450891307 0 -0.74314483375859142 -0.66913059716165679 0.75 0 0 1 I I -0.70710678118654757 0.70710678118654757 0.75 forward I I I I #
loop $-1 $-1 $253 $68 #
coedge $-1 $158 $158 $254 $255 reversed $100 $-1 #
face $-1 $256 $257 $54 $-1 $258 reversed single #
loop $-1 $-1 $259 $102 #
plane-surface $-1 29.401010179374957 -8.5231588555663507 38.993573083169466 0 0.74314483375859142 0.66913059716165679 1 0 0 forward_v I I I I #
coedge $-1 $260 $261 $262 $263 reversed $103 $-1 #
face $-1 $-1 $264 $55 $-1 $265 forward single #
loop $-1 $266 $267 $105 #
cone-surface $-1 29.401010179374957 17.131043842295426 1.9834578450891307 0 -0.74314483375859142 -0.66913059716165679 0.75 0 0 1 I I -0.70710678118654757 0.70710678118654757 0.75 forward I I I I #
loop $-1 $-1 $268 $70 #
coedge $-1 $167 $167 $269 $270 reversed $106 $-1 #
face $-1 $271 $272 $56 $-1 $273 reversed single #
loop $-1 $-1 $274 $108 #
plane-surface $-1 -20.419354052206707 -25.196974996250482 4.768000734513663 0 -0.66913061440640931 0.74314481823134659 1 0 0 forward_v I I I I #
coedge $-1 $275 $276 $277 $278 reversed $109 $-1 #
face $-1 $-1 $279 $57 $-1 $280 forward single #
loop $-1 $281 $282 $111 #
cone-surface $-1 -25.461598091494899 -19.972428397642581 4.865443355388134 0 0.66913061440640931 -0.74314481823134659 0.5 0 0 1 I I -0.70710678118654746 0.70710678118654746 0.5 forward I I I I #
loop $-1 $-1 $283 $72 #
coedge $-1 $176 $176 $284 $285 reversed $112 $-1 #
face $-1 $-1 $286 $58 $-1 $287 forward single #
loop $-1 $288 $289 $114 #
cone-surface $-1 -20.419354052206707 -19.972428397642581 4.865443355388134 0 0.66913061440640931 -0.74314481823134659 0.5 0 0 1 I I -0.70710678118654746 0.70710678118654746 0.5 forward I I I I #
loop $-1 $-1 $290 $73 #
coedge $-1 $181 $181 $291 $292 reversed $115 $-1 #
face $-1 $-1 $293 $59 $-1 $294 forward single #
loop $-1 $295 $296 $117 #
cone-surface $-1 -15.377110012918514 -19.972428397642581 4.865443355388134 0 0.66913061440640931 -0.74314481823134659 0.5 0 0 1 I I -0.70710678118654746 0.70710678118654746 0.5 forward I I I I #
loop $-1 $-1 $297 $74 #
coedge $-1 $186 $186 $298 $299 reversed $118 $-1 #
face $-1 $300 $301 $45 $-1 $302 reversed single #
loop $-1 $-1 $303 $120 #
plane-surface $-1 0 0 10.051183827585387 0 0 1 1 0 0 forward_v I I I I #
coedge $-1 $304 $305 $306 $307 reversed $121 $-1 #
coedge $-1 $308 $123 $309 $310 reversed $76 $-1 #
coedge $-1 $123 $308 $311 $312 forward $76 $-1 #
coedge $-1 $313 $314 $123 $194 forward $301 $-1 #
edge $-1 $315 -25.196974996250475 $316 25.196974996250475 $123 $317 forward 7 unknown #
face $-1 $318 $319 $46 $-1 $320 reversed single #
loop $-1 $-1 $321 $124 #
plane-surface $-1 -52.149468607212683 -11.448585872899137 0 0 1 0 0 0 1 forward_v I I I I #
coedge $-1 $322 $323 $200 $324 forward $125 $-1 #
coedge $-1 $325 $127 $326 $327 reversed $79 $-1 #
coedge $-1 $127 $325 $198 $324 reversed $79 $-1 #
coedge $-1 $328 $329 $127 $202 reversed $330 $-1 #
edge $-1 $331 -10.051183827585387 $332 10.051183827585387 $201 $333 forward 7 unknown #
face $-1 $334 $335 $47 $-1 $336 reversed single #
loop $-1 $-1 $209 $128 #
plane-surface $-1 52.149468607212675 -11.448585872899137 0 0 1 0 0 0 1 forward_v I I I I #
coedge $-1 $337 $338 $208 $339 forward $129 $-1 #
coedge $-1 $340 $131 $341 $342 reversed $82 $-1 #
coedge $-1 $131 $340 $206 $339 reversed $82 $-1 #
coedge $-1 $343 $344 $131 $210 reversed $204 $-1 #
edge $-1 $345 -10.051183827585387 $346 10.051183827585387 $209 $347 forward 7 unknown #
face $-1 $348 $349 $48 $-1 $350 reversed single #
loop $-1 $-1 $351 $132 #
plane-surface $-1 -23.151949977318921 62.534977121047859 102.9746045043899 -1 0 0 0 0.74314483375859142 0.66913059716165679 forward_v I I I I #
coedge $-1 $352 $353 $354 $355 reversed $133 $-1 #
coedge $-1 $216 $135 $356 $357 reversed $85 $-1 #
coedge $-1 $135 $215 $352 $358 reversed $85 $-1 #
coedge $-1 $354 $359 $135 $218 forward $360 $-1 #
edge $-1 $361 6.0705135642734547 $362 13.730803727309201 $217 $363 forward 7 unknown #
loop $-1 $-1 $224 $136 #
plane-surface $-1 -29.291426920218708 -8.5231588555663507 38.993573083169466 0 0.74314483375859142 0.66913059716165679 1 0 0 forward_v I I I I #
loop $-1 $-1 $364 $87 #
coedge $-1 $222 $222 $223 $365 reversed $137 $-1 #
coedge $-1 $223 $223 $222 $365 forward $139 $-1 #
coedge $-1 $224 $224 $140 $225 forward $219 $-1 #
edge $-1 $366 1.0553611992639615e-015 $366 6.2831853071796013 $224 $367 forward 7 unknown #
face $-1 $368 $369 $50 $-1 $370 forward single #
loop $-1 $-1 $371 $141 #
plane-surface $-1 -3.5878042774543646 62.534977121047859 102.9746045043899 -1 0 0 0 0.74314483375859142 0.66913059716165679 forward_v I I I I #
coedge $-1 $372 $373 $374 $375 reversed $142 $-1 #
coedge $-1 $231 $144 $376 $377 reversed $91 $-1 #
coedge $-1 $144 $230 $372 $378 reversed $91 $-1 #
coedge $-1 $374 $379 $144 $233 forward $369 $-1 #
edge $-1 $380 6.0705135642734547 $381 13.730803727309201 $232 $382 forward 7 unknown #
loop $-1 $-1 $239 $145 #
plane-surface $-1 -9.7272812203541505 -8.5231588555663507 38.993573083169466 0 0.74314483375859142 0.66913059716165679 1 0 0 forward_v I I I I #
loop $-1 $-1 $383 $93 #
coedge $-1 $237 $237 $238 $384 reversed $146 $-1 #
coedge $-1 $238 $238 $237 $384 forward $148 $-1 #
coedge $-1 $239 $239 $149 $240 forward $234 $-1 #
edge $-1 $385 1.0553611992639615e-015 $385 6.2831853071796013 $239 $386 forward 7 unknown #
face $-1 $387 $388 $52 $-1 $389 forward single #
loop $-1 $-1 $390 $150 #
plane-surface $-1 15.97634142241019 62.534977121047859 102.9746045043899 -1 0 0 0 0.74314483375859142 0.66913059716165679 forward_v I I I I #
coedge $-1 $391 $392 $393 $394 reversed $151 $-1 #
coedge $-1 $246 $153 $395 $396 reversed $97 $-1 #
coedge $-1 $153 $245 $391 $397 reversed $97 $-1 #
coedge $-1 $393 $398 $153 $248 forward $388 $-1 #
edge $-1 $399 6.0705135642734547 $400 13.730803727309201 $247 $401 forward 7 unknown #
loop $-1 $-1 $254 $154 #
plane-surface $-1 9.8368644795104032 -8.5231588555663507 38.993573083169466 0 0.74314483375859142 0.66913059716165679 1 0 0 forward_v I I I I #
loop $-1 $-1 $402 $99 #
coedge $-1 $252 $252 $253 $403 reversed $155 $-1 #
coedge $-1 $253 $253 $252 $403 forward $157 $-1 #
coedge $-1 $254 $254 $158 $255 forward $249 $-1 #
edge $-1 $404 1.0553611992639615e-015 $404 6.2831853071796013 $254 $405 forward 7 unknown #
face $-1 $406 $407 $54 $-1 $408 forward single #
loop $-1 $-1 $409 $159 #
plane-surface $-1 35.54048712227474 62.534977121047859 102.9746045043899 -1 0 0 0 0.74314483375859142 0.66913059716165679 forward_v I I I I #
coedge $-1 $410 $411 $412 $413 reversed $160 $-1 #
coedge $-1 $261 $162 $414 $415 reversed $103 $-1 #
coedge $-1 $162 $260 $410 $416 reversed $103 $-1 #
coedge $-1 $412 $417 $162 $263 forward $407 $-1 #
edge $-1 $418 6.0705135642734547 $419 13.730803727309201 $262 $420 forward 7 unknown #
loop $-1 $-1 $269 $163 #
plane-surface $-1 29.401010179374957 -8.5231588555663507 38.993573083169466 0 0.74314483375859142 0.66913059716165679 1 0 0 forward_v I I I I #
loop $-1 $-1 $421 $105 #
coedge $-1 $267 $267 $268 $422 reversed $164 $-1 #
coedge $-1 $268 $268 $267 $422 forward $166 $-1 #
coedge $-1 $269 $269 $167 $270 forward $264 $-1 #
edge $-1 $423 1.0553611992639615e-015 $423 6.2831853071796013 $269 $424 forward 7 unknown #
face $-1 $425 $426 $56 $-1 $427 forward single #
loop $-1 $-1 $428 $168 #
plane-surface $-1 -28.823094117687027 -89.17800806638229 75.826135226441409 1 0 0 0 0.66913061440640931 -0.74314481823134659 forward_v I I I I #
coedge $-1 $429 $430 $431 $432 reversed $169 $-1 #
coedge $-1 $276 $171 $433 $434 reversed $109 $-1 #
coedge $-1 $171 $275 $429 $435 reversed $109 $-1 #
coedge $-1 $431 $436 $171 $278 forward $426 $-1 #
edge $-1 $437 19.39202903694067 $438 25.25959817045975 $277 $439 forward 7 unknown #
loop $-1 $-1 $284 $172 #
plane-surface $-1 -20.419354052206707 -25.196974996250482 4.768000734513663 0 -0.66913061440640931 0.74314481823134659 1 0 0 forward_v I I I I #
loop $-1 $-1 $440 $111 #
coedge $-1 $282 $282 $283 $441 reversed $173 $-1 #
coedge $-1 $283 $283 $282 $441 forward $175 $-1 #
coedge $-1 $284 $284 $176 $285 forward $279 $-1 #
edge $-1 $442 -5.9430737167645847e-016 $442 6.2831853071795996 $284 $443 forward 7 unknown #
loop $-1 $-1 $291 $177 #
plane-surface $-1 -20.419354052206707 -25.196974996250482 4.768000734513663 0 -0.66913061440640931 0.74314481823134659 1 0 0 forward_v I I I I #
loop $-1 $-1 $444 $114 #
coedge $-1 $289 $289 $290 $445 reversed $178 $-1 #
coedge $-1 $290 $290 $289 $445 forward $180 $-1 #
coedge $-1 $291 $291 $181 $292 forward $286 $-1 #
edge $-1 $446 -5.9430737167645847e-016 $446 6.2831853071795996 $291 $447 forward 7 unknown #
loop $-1 $-1 $298 $182 #
plane-surface $-1 -20.419354052206707 -25.196974996250482 4.768000734513663 0 -0.66913061440640931 0.74314481823134659 1 0 0 forward_v I I I I #
loop $-1 $-1 $448 $117 #
coedge $-1 $296 $296 $297 $449 reversed $183 $-1 #
coedge $-1 $297 $297 $296 $449 forward $185 $-1 #
coedge $-1 $298 $298 $186 $299 forward $293 $-1 #
edge $-1 $450 -5.9430737167645847e-016 $450 6.2831853071795996 $298 $451 forward 7 unknown #
face $-1 $452 $453 $45 $-1 $454 reversed single #
loop $-1 $-1 $193 $187 #
plane-surface $-1 0 0 -10.051183827585387 0 0 1 1 0 0 forward_v I I I I #
coedge $-1 $455 $456 $308 $457 forward $188 $-1 #
coedge $-1 $458 $190 $459 $460 reversed $121 $-1 #
coedge $-1 $190 $458 $461 $462 forward $121 $-1 #
coedge $-1 $314 $313 $190 $307 forward $301 $-1 #
edge $-1 $463 -25.196974996250475 $464 25.196974996250475 $190 $465 forward 7 unknown #
coedge $-1 $192 $191 $303 $457 reversed $76 $-1 #
coedge $-1 $466 $467 $191 $310 forward $468 $-1 #
edge $-1 $469 -10.051183827585387 $315 10.051183827585387 $191 $470 forward 7 unknown #
coedge $-1 $471 $472 $192 $312 reversed $453 $-1 #
edge $-1 $473 -10.051183827585387 $316 10.051183827585387 $192 $474 forward 7 unknown #
coedge $-1 $306 $193 $472 $475 forward $301 $-1 #
coedge $-1 $193 $306 $466 $476 forward $301 $-1 #
vertex $-1 $194 $477 #
vertex $-1 $312 $478 #
straight-curve $-1 47.80907620471816 0 -10.051183827585387 0 -1 0 I I #
face $-1 $479 $330 $46 $-1 $480 reversed single #
loop $-1 $-1 $481 $195 #
plane-surface $-1 -56.489861009707205 -9.9485858728991374 0 1 0 0 0 0 -1 forward_v I I I I #
coedge $-1 $482 $483 $484 $485 forward $196 $-1 #
coedge $-1 $486 $198 $482 $487 forward $125 $-1 #
coedge $-1 $198 $486 $328 $488 forward $125 $-1 #
edge $-1 $331 8.4485858728991374 $489 11.448585872899137 $198 $490 forward 7 unknown #
coedge $-1 $200 $199 $491 $492 forward $79 $-1 #
coedge $-1 $493 $494 $199 $327 forward $495 $-1 #
edge $-1 $496 -11.448585872899137 $332 -8.4485858728991374 $326 $497 forward 7 unknown #
coedge $-1 $498 $201 $323 $488 reversed $330 $-1 #
coedge $-1 $201 $498 $493 $499 reversed $330 $-1 #
loop $-1 $-1 $201 $318 #
vertex $-1 $324 $500 #
vertex $-1 $499 $501 #
straight-curve $-1 -47.80907620471816 -8.4485858728991374 0 0 0 1 I I #
face $-1 $502 $503 $47 $-1 $504 reversed single #
loop $-1 $-1 $505 $203 #
plane-surface $-1 52.149468607212675 -8.4485858728991374 0 0 -1 0 0 0 -1 forward_v I I I I #
coedge $-1 $506 $206 $507 $508 forward $129 $-1 #
coedge $-1 $206 $506 $343 $509 forward $129 $-1 #
edge $-1 $345 -11.448585872899137 $510 -8.4485858728991374 $206 $511 forward 7 unknown #
coedge $-1 $208 $207 $512 $513 forward $82 $-1 #
coedge $-1 $514 $515 $207 $342 forward $516 $-1 #
edge $-1 $517 8.4485858728991374 $346 11.448585872899137 $341 $518 forward 7 unknown #
coedge $-1 $519 $209 $338 $509 reversed $204 $-1 #
coedge $-1 $209 $519 $514 $520 reversed $204 $-1 #
vertex $-1 $339 $521 #
vertex $-1 $520 $522 #
straight-curve $-1 47.80907620471816 -11.448585872899137 0 0 0 1 I I #
face $-1 $-1 $360 $48 $-1 $523 forward single #
loop $-1 $-1 $524 $211 #
plane-surface $-1 0 25.196974996250475 0 0 -1 0 0 0 -1 forward_v I I I I #
coedge $-1 $525 $526 $527 $528 reversed $212 $-1 #
coedge $-1 $529 $214 $216 $358 forward $133 $-1 #
coedge $-1 $214 $529 $525 $530 forward $133 $-1 #
coedge $-1 $527 $217 $214 $355 forward $360 $-1 #
edge $-1 $362 -20.785190403009139 $531 -8.5062365172095671 $354 $532 forward 7 unknown #
coedge $-1 $533 $534 $215 $357 forward $349 $-1 #
edge $-1 $535 -49.943732758641367 $361 -41.43611842460956 $356 $536 forward 7 unknown #
edge $-1 $362 38.945825821330985 $535 50.393949992500936 $216 $537 forward 7 unknown #
coedge $-1 $217 $527 $533 $538 forward $360 $-1 #
loop $-1 $-1 $527 $348 #
vertex $-1 $357 $539 #
vertex $-1 $218 $540 #
straight-curve $-1 -35.430903863118495 31.26748856052393 10.05118382758539 0 -1 0 I I #
coedge $-1 $364 $364 $-1 $541 reversed $221 $-1 #
edge $-1 $542 0 $542 6.2831853071796004 $222 $543 forward 7 unknown #
vertex $-1 $225 $544 #
ellipse-curve $-1 -29.291426920218708 21.366829914732598 5.7973766605694887 0 0.74314483375859142 0.66913059716165679 1.5 0 0 1 I I #
face $-1 $-1 $545 $50 $-1 $546 reversed single #
loop $-1 $-1 $232 $226 #
plane-surface $-1 0 0 10.051183827585387 0 0 1 1 0 0 forward_v I I I I #
coedge $-1 $547 $548 $549 $550 reversed $227 $-1 #
coedge $-1 $551 $229 $231 $378 forward $142 $-1 #
coedge $-1 $229 $551 $547 $552 forward $142 $-1 #
coedge $-1 $549 $232 $229 $375 forward $369 $-1 #
edge $-1 $381 -11.003117553076862 $553 1.2758363327227107 $374 $554 forward 7 unknown #
coedge $-1 $555 $556 $230 $377 forward $545 $-1 #
edge $-1 $557 -49.943732758641367 $380 -41.43611842460956 $376 $558 forward 7 unknown #
edge $-1 $381 38.945825821330985 $557 50.393949992500936 $231 $559 forward 7 unknown #
coedge $-1 $232 $549 $555 $560 forward $369 $-1 #
vertex $-1 $377 $561 #
vertex $-1 $233 $562 #
straight-curve $-1 -15.866758163253937 31.26748856052393 10.05118382758539 0 -1 0 I I #
coedge $-1 $383 $383 $-1 $563 reversed $236 $-1 #
edge $-1 $564 0 $564 6.2831853071796004 $237 $565 forward 7 unknown #
vertex $-1 $240 $566 #
ellipse-curve $-1 -9.7272812203541505 21.366829914732598 5.7973766605694887 0 0.74314483375859142 0.66913059716165679 1.5 0 0 1 I I #
face $-1 $-1 $567 $52 $-1 $568 reversed single #
loop $-1 $-1 $247 $241 #
plane-surface $-1 0 0 10.051183827585387 0 0 1 1 0 0 forward_v I I I I #
coedge $-1 $569 $570 $571 $572 reversed $242 $-1 #
coedge $-1 $573 $244 $246 $397 forward $151 $-1 #
coedge $-1 $244 $573 $569 $574 forward $151 $-1 #
coedge $-1 $571 $247 $244 $394 forward $388 $-1 #
edge $-1 $400 -1.2210447031445844 $575 11.057909182654988 $393 $576 forward 7 unknown #
coedge $-1 $577 $578 $245 $396 forward $567 $-1 #
edge $-1 $579 -49.943732758641367 $399 -41.43611842460956 $395 $580 forward 7 unknown #
edge $-1 $400 38.945825821330985 $579 50.393949992500936 $246 $581 forward 7 unknown #
coedge $-1 $247 $571 $577 $582 forward $388 $-1 #
vertex $-1 $248 $583 #
vertex $-1 $248 $584 #
straight-curve $-1 3.6973875366106173 31.26748856052393 10.05118382758539 0 -1 0 I I #
coedge $-1 $402 $402 $-1 $585 reversed $251 $-1 #
edge $-1 $586 0 $586 6.2831853071796004 $252 $587 forward 7 unknown #
vertex $-1 $255 $588 #
ellipse-curve $-1 9.8368644795104032 21.366829914732598 5.7973766605694887 0 0.74314483375859142 0.66913059716165679 1.5 0 0 1 I I #
face $-1 $-1 $589 $54 $-1 $590 reversed single #
loop $-1 $-1 $262 $256 #
plane-surface $-1 0 0 10.051183827585387 0 0 1 1 0 0 forward_v I I I I #
coedge $-1 $591 $592 $593 $594 reversed $257 $-1 #
coedge $-1 $595 $259 $261 $416 forward $160 $-1 #
coedge $-1 $259 $595 $591 $596 forward $160 $-1 #
coedge $-1 $593 $262 $259 $413 forward $407 $-1 #
edge $-1 $419 8.5610281467876916 $597 20.839982032587262 $412 $598 forward 7 unknown #
coedge $-1 $599 $600 $260 $415 forward $589 $-1 #
edge $-1 $601 -49.943732758641367 $418 -41.43611842460956 $414 $602 forward 7 unknown #
edge $-1 $419 38.945825821330985 $601 50.393949992500936 $261 $603 forward 7 unknown #
coedge $-1 $262 $593 $599 $604 forward $407 $-1 #
vertex $-1 $263 $605 #
vertex $-1 $263 $606 #
straight-curve $-1 23.26153323647517 31.26748856052393 10.05118382758539 0 -1 0 I I #
coedge $-1 $421 $421 $-1 $607 reversed $266 $-1 #
edge $-1 $608 0 $608 6.2831853071796004 $267 $609 forward 7 unknown #
vertex $-1 $270 $610 #
ellipse-curve $-1 29.401010179374957 21.366829914732598 5.7973766605694887 0 0.74314483375859142 0.66913059716165679 1.5 0 0 1 I I #
face $-1 $-1 $611 $56 $-1 $612 reversed single #
loop $-1 $-1 $277 $271 #
plane-surface $-1 0 0 10.051183827585387 0 0 1 1 0 0 forward_v I I I I #
coedge $-1 $613 $614 $615 $616 reversed $272 $-1 #
coedge $-1 $617 $274 $276 $435 forward $169 $-1 #
coedge $-1 $274 $617 $613 $618 forward $169 $-1 #
coedge $-1 $615 $277 $274 $432 forward $426 $-1 #
edge $-1 $438 1.8059369606230327 $619 18.613417091583674 $431 $620 forward 7 unknown #
coedge $-1 $621 $622 $275 $434 forward $611 $-1 #
edge $-1 $623 -33.145066878707034 $437 -27.861883785635317 $433 $624 forward 7 unknown #
edge $-1 $438 -7.8955931462775375 $623 -9.4405131238556439e-015 $276 $625 forward 7 unknown #
coedge $-1 $277 $615 $621 $626 forward $426 $-1 #
vertex $-1 $278 $627 #
vertex $-1 $278 $628 #
straight-curve $-1 -12.015613986726386 -44.589004033191145 10.05118382758539 0 1 0 I I #
coedge $-1 $440 $440 $-1 $629 reversed $281 $-1 #
edge $-1 $630 0 $630 6.2831853071796004 $282 $631 forward 7 unknown #
vertex $-1 $285 $632 #
ellipse-curve $-1 -25.461598091494899 -22.263190429490933 7.4095922810495276 0 -0.66913061440640931 0.74314481823134659 1 0 0 1 I I #
coedge $-1 $444 $444 $-1 $633 reversed $288 $-1 #
edge $-1 $634 0 $634 6.2831853071796004 $289 $635 forward 7 unknown #
vertex $-1 $292 $636 #
ellipse-curve $-1 -20.419354052206707 -22.263190429490933 7.4095922810495276 0 -0.66913061440640931 0.74314481823134659 1 0 0 1 I I #
coedge $-1 $448 $448 $-1 $637 reversed $295 $-1 #
edge $-1 $638 0 $638 6.2831853071796004 $296 $639 forward 7 unknown #
vertex $-1 $299 $640 #
ellipse-curve $-1 -15.377110012918514 -22.263190429490933 7.4095922810495276 0 -0.66913061440640931 0.74314481823134659 1 0 0 1 I I #
face $-1 $-1 $468 $45 $-1 $641 reversed single #
loop $-1 $-1 $459 $300 #
plane-surface $-1 0 -25.196974996250475 0 0 1 0 0 0 1 forward_v I I I I #
coedge $-1 $642 $303 $467 $643 forward $188 $-1 #
coedge $-1 $303 $642 $471 $644 forward $188 $-1 #
edge $-1 $473 -25.196974996250475 $469 25.196974996250475 $308 $645 forward 7 unknown #
coedge $-1 $305 $304 $642 $646 reversed $121 $-1 #
coedge $-1 $472 $471 $304 $460 forward $453 $-1 #
edge $-1 $647 -10.051183827585387 $463 10.051183827585387 $304 $648 forward 7 unknown #
coedge $-1 $467 $466 $305 $462 reversed $468 $-1 #
edge $-1 $649 -10.051183827585387 $464 10.051183827585387 $461 $650 forward 7 unknown #
vertex $-1 $307 $651 #
vertex $-1 $476 $652 #
straight-curve $-1 -47.80907620471816 0 -10.051183827585387 0 1 0 I I #
coedge $-1 $461 $309 $314 $476 reversed $468 $-1 #
coedge $-1 $309 $461 $455 $643 reversed $468 $-1 #
loop $-1 $-1 $309 $452 #
vertex $-1 $457 $653 #
straight-curve $-1 47.80907620471816 25.196974996250475 0 0 0 -1 I I #
coedge $-1 $459 $311 $456 $644 reversed $453 $-1 #
coedge $-1 $311 $459 $313 $475 reversed $453 $-1 #
vertex $-1 $457 $654 #
straight-curve $-1 47.80907620471816 -25.196974996250475 0 0 0 -1 I I #
edge $-1 $316 -47.80907620471816 $463 47.80907620471816 $472 $655 forward 7 unknown #
edge $-1 $464 -47.80907620471816 $315 47.80907620471816 $466 $656 forward 7 unknown #
point $-1 47.80907620471816 25.196974996250475 -10.051183827585387 #
point $-1 47.80907620471816 -25.196974996250475 -10.051183827585387 #
face $-1 $-1 $495 $46 $-1 $657 forward single #
plane-surface $-1 -52.149468607212683 -8.4485858728991374 0 0 -1 0 0 0 -1 forward_v I I I I #
coedge $-1 $658 $659 $498 $660 forward $319 $-1 #
coedge $-1 $491 $321 $322 $487 reversed $196 $-1 #
coedge $-1 $321 $491 $494 $661 reversed $196 $-1 #
coedge $-1 $659 $658 $321 $485 reversed $319 $-1 #
edge $-1 $662 -10.051183827585387 $663 10.051183827585387 $484 $664 forward 7 unknown #
coedge $-1 $323 $322 $658 $665 forward $125 $-1 #
edge $-1 $489 -4.3403924024945226 $663 4.3403924024945226 $482 $666 forward 7 unknown #
edge $-1 $667 -4.3403924024945226 $331 4.3403924024945226 $328 $668 forward 7 unknown #
vertex $-1 $487 $669 #
straight-curve $-1 -47.80907620471816 0 -10.051183827585387 0 -1 0 I I #
coedge $-1 $483 $482 $325 $492 reversed $196 $-1 #
edge $-1 $496 -10.051183827585387 $489 10.051183827585387 $491 $670 forward 7 unknown #
coedge $-1 $671 $326 $329 $499 forward $495 $-1 #
coedge $-1 $326 $671 $483 $661 forward $495 $-1 #
loop $-1 $-1 $326 $479 #
vertex $-1 $327 $672 #
straight-curve $-1 -47.80907620471816 0 10.051183827585387 0 1 0 I I #
coedge $-1 $329 $328 $481 $660 reversed $330 $-1 #
edge $-1 $332 -4.3403924024945226 $673 4.3403924024945226 $329 $674 forward 7 unknown #
point $-1 -47.80907620471816 -8.4485858728991374 -10.051183827585387 #
point $-1 -47.80907620471816 -8.4485858728991374 10.051183827585387 #
face $-1 $-1 $516 $47 $-1 $675 forward single #
loop $-1 $-1 $676 $334 #
plane-surface $-1 56.489861009707198 -9.9485858728991374 0 -1 0 0 0 0 1 forward_v I I I I #
coedge $-1 $507 $677 $678 $679 forward $335 $-1 #
coedge $-1 $338 $337 $680 $681 forward $129 $-1 #
coedge $-1 $512 $505 $337 $508 reversed $335 $-1 #
edge $-1 $510 -4.3403924024945226 $682 4.3403924024945226 $507 $683 forward 7 unknown #
edge $-1 $684 -4.3403924024945226 $345 4.3403924024945226 $343 $685 forward 7 unknown #
vertex $-1 $508 $686 #
straight-curve $-1 47.80907620471816 0 -10.051183827585387 0 1 0 I I #
coedge $-1 $677 $507 $340 $513 reversed $335 $-1 #
edge $-1 $517 -10.051183827585387 $510 10.051183827585387 $512 $687 forward 7 unknown #
coedge $-1 $688 $341 $344 $520 forward $516 $-1 #
coedge $-1 $341 $688 $677 $689 forward $516 $-1 #
loop $-1 $-1 $341 $502 #
vertex $-1 $342 $690 #
straight-curve $-1 47.80907620471816 0 10.051183827585387 0 -1 0 I I #
coedge $-1 $344 $343 $676 $691 reversed $204 $-1 #
edge $-1 $346 -4.3403924024945226 $692 4.3403924024945226 $344 $693 forward 7 unknown #
point $-1 47.809076204718153 -11.448585872899137 -10.051183827585387 #
point $-1 47.809076204718153 -11.448585872899137 10.051183827585387 #
plane-surface $-1 0 0 10.051183827585387 0 0 1 1 0 0 forward_v I I I I #
coedge $-1 $534 $533 $526 $694 forward $349 $-1 #
coedge $-1 $526 $351 $353 $530 reversed $212 $-1 #
coedge $-1 $351 $525 $524 $694 reversed $212 $-1 #
coedge $-1 $359 $354 $351 $528 forward $360 $-1 #
edge $-1 $531 -13.730803727309201 $695 -6.0705135642734547 $527 $696 forward 7 unknown #
coedge $-1 $353 $352 $534 $697 reversed $133 $-1 #
edge $-1 $698 -50.393949992500936 $531 -38.945825821330985 $525 $699 forward 7 unknown #
vertex $-1 $355 $700 #
straight-curve $-1 -14.645713460109354 17.536684833214732 10.051183827585387 1 0 0 I I #
coedge $-1 $524 $356 $359 $538 reversed $349 $-1 #
coedge $-1 $356 $524 $529 $697 forward $349 $-1 #
vertex $-1 $357 $701 #
straight-curve $-1 -35.430903863118495 25.196974996250475 51.487302252194951 0 0 1 I I #
straight-curve $-1 -35.430903863118495 -8.5231588555663507 38.993573083169466 0 0.66913059716165679 -0.74314483375859142 I I #
edge $-1 $695 23.151949977318921 $361 35.430903863118495 $533 $702 forward 7 unknown #
point $-1 -35.430903863118495 25.196974996250475 10.051183827585387 #
point $-1 -35.430903863118495 17.536684833214728 10.05118382758539 #
edge $-1 $703 1 $703 0 $364 $-1 forward 7 unknown #
vertex $-1 $365 $704 #
ellipse-curve $-1 -29.291426920218708 17.68840246761437 2.4853057929603732 0 0.74314483375859142 0.66913059716165679 1.5 0 0 1 I I #
point $-1 -27.791426920218708 21.366829914732595 5.7973766605694834 #
loop $-1 $-1 $376 $368 #
plane-surface $-1 0 25.196974996250475 0 0 -1 0 0 0 -1 forward_v I I I I #
coedge $-1 $548 $371 $373 $552 reversed $227 $-1 #
coedge $-1 $371 $547 $705 $706 reversed $227 $-1 #
coedge $-1 $379 $374 $371 $550 forward $369 $-1 #
edge $-1 $553 -13.730803727309201 $707 -6.0705135642734547 $549 $708 forward 7 unknown #
coedge $-1 $373 $372 $556 $709 reversed $142 $-1 #
edge $-1 $710 -50.393949992500936 $553 -38.945825821330985 $547 $711 forward 7 unknown #
vertex $-1 $375 $712 #
straight-curve $-1 -4.8636406101770753 17.536684833214732 10.051183827585387 1 0 0 I I #
coedge $-1 $705 $376 $379 $560 reversed $545 $-1 #
coedge $-1 $376 $705 $551 $709 forward $545 $-1 #
vertex $-1 $377 $713 #
straight-curve $-1 -15.866758163253937 25.196974996250475 51.487302252194951 0 0 1 I I #
straight-curve $-1 -15.866758163253937 -8.5231588555663507 38.993573083169466 0 0.66913059716165679 -0.74314483375859142 I I #
edge $-1 $707 3.5878042774543646 $380 15.866758163253937 $555 $714 forward 7 unknown #
point $-1 -15.866758163253937 25.196974996250475 10.051183827585387 #
point $-1 -15.866758163253937 17.536684833214728 10.05118382758539 #
edge $-1 $715 1 $715 0 $383 $-1 forward 7 unknown #
vertex $-1 $384 $716 #
ellipse-curve $-1 -9.7272812203541505 17.68840246761437 2.4853057929603732 0 0.74314483375859142 0.66913059716165679 1.5 0 0 1 I I #
point $-1 -8.2272812203541505 21.366829914732595 5.7973766605694834 #
loop $-1 $-1 $395 $387 #
plane-surface $-1 0 25.196974996250475 0 0 -1 0 0 0 -1 forward_v I I I I #
coedge $-1 $570 $390 $392 $574 reversed $242 $-1 #
coedge $-1 $390 $569 $717 $718 reversed $242 $-1 #
coedge $-1 $398 $393 $390 $572 forward $388 $-1 #
edge $-1 $575 -13.730803727309201 $719 -6.0705135642734547 $571 $720 forward 7 unknown #
coedge $-1 $392 $391 $578 $721 reversed $151 $-1 #
edge $-1 $722 -50.393949992500936 $575 -38.945825821330985 $569 $723 forward 7 unknown #
vertex $-1 $394 $724 #
straight-curve $-1 4.9184322397552016 17.536684833214732 10.051183827585387 1 0 0 I I #
coedge $-1 $717 $395 $398 $582 reversed $567 $-1 #
coedge $-1 $395 $717 $573 $721 forward $567 $-1 #
vertex $-1 $396 $725 #
straight-curve $-1 3.6973875366106173 25.196974996250475 51.487302252194951 0 0 1 I I #
straight-curve $-1 3.6973875366106173 -8.5231588555663507 38.993573083169466 0 0.66913059716165679 -0.74314483375859142 I I #
edge $-1 $719 -15.97634142241019 $399 -3.6973875366106173 $577 $726 forward 7 unknown #
point $-1 3.6973875366106173 25.196974996250475 10.051183827585387 #
point $-1 3.6973875366106173 17.536684833214728 10.05118382758539 #
edge $-1 $727 1 $727 0 $402 $-1 forward 7 unknown #
vertex $-1 $403 $728 #
ellipse-curve $-1 9.8368644795104032 17.68840246761437 2.4853057929603732 0 0.74314483375859142 0.66913059716165679 1.5 0 0 1 I I #
point $-1 11.336864479510403 21.366829914732595 5.7973766605694834 #
loop $-1 $-1 $414 $406 #
plane-surface $-1 0 25.196974996250475 0 0 -1 0 0 0 -1 forward_v I I I I #
coedge $-1 $592 $409 $411 $596 reversed $257 $-1 #
coedge $-1 $409 $591 $729 $730 reversed $257 $-1 #
coedge $-1 $417 $412 $409 $594 forward $407 $-1 #
edge $-1 $597 -13.730803727309201 $731 -6.0705135642734547 $593 $732 forward 7 unknown #
coedge $-1 $411 $410 $600 $733 reversed $160 $-1 #
edge $-1 $734 -50.393949992500936 $597 -38.945825821330985 $591 $735 forward 7 unknown #
vertex $-1 $413 $736 #
straight-curve $-1 14.700505089687478 17.536684833214732 10.051183827585387 1 0 0 I I #
coedge $-1 $729 $414 $417 $604 reversed $589 $-1 #
coedge $-1 $414 $729 $595 $733 forward $589 $-1 #
vertex $-1 $415 $737 #
straight-curve $-1 23.26153323647517 25.196974996250475 51.487302252194951 0 0 1 I I #
straight-curve $-1 23.26153323647517 -8.5231588555663507 38.993573083169466 0 0.66913059716165679 -0.74314483375859142 I I #
edge $-1 $731 -35.54048712227474 $418 -23.26153323647517 $599 $738 forward 7 unknown #
point $-1 23.26153323647517 25.196974996250475 10.051183827585387 #
point $-1 23.26153323647517 17.536684833214728 10.05118382758539 #
edge $-1 $739 1 $739 0 $421 $-1 forward 7 unknown #
vertex $-1 $422 $740 #
ellipse-curve $-1 29.401010179374957 17.68840246761437 2.4853057929603732 0 0.74314483375859142 0.66913059716165679 1.5 0 0 1 I I #
point $-1 30.901010179374957 21.366829914732595 5.7973766605694834 #
loop $-1 $-1 $433 $425 #
plane-surface $-1 0 -25.196974996250475 0 0 1 0 0 0 1 forward_v I I I I #
coedge $-1 $614 $428 $430 $618 reversed $272 $-1 #
coedge $-1 $428 $613 $741 $742 reversed $272 $-1 #
coedge $-1 $436 $431 $428 $616 forward $426 $-1 #
edge $-1 $619 -25.25959817045975 $743 -19.39202903694067 $615 $744 forward 7 unknown #
coedge $-1 $430 $429 $622 $745 reversed $169 $-1 #
edge $-1 $746 9.4405131238556439e-015 $619 7.8955931462775375 $613 $747 forward 7 unknown #
vertex $-1 $432 $748 #
straight-curve $-1 -10.209677026103353 -19.329405862731395 10.051183827585387 -1 0 0 I I #
coedge $-1 $741 $433 $436 $626 reversed $611 $-1 #
coedge $-1 $433 $741 $617 $745 forward $611 $-1 #
vertex $-1 $434 $749 #
straight-curve $-1 -12.015613986726386 -25.196974996250475 37.913067613220704 0 0 1 I I #
straight-curve $-1 -12.015613986726386 -25.196974996250482 4.768000734513663 0 -0.74314481823134659 -0.66913061440640931 I I #
edge $-1 $743 -28.823094117687027 $437 -12.015613986726386 $621 $750 forward 7 unknown #
point $-1 -12.015613986726386 -25.196974996250475 10.051183827585387 #
point $-1 -12.015613986726386 -19.329405862731395 10.051183827585387 #
edge $-1 $751 1 $751 0 $440 $-1 forward 7 unknown #
vertex $-1 $441 $752 #
ellipse-curve $-1 -25.461598091494899 -20.306993704845787 5.2370157645038073 0 -0.66913061440640931 0.74314481823134659 1 0 0 1 I I #
point $-1 -24.461598091494899 -22.263190429490933 7.4095922810495267 #
edge $-1 $753 1 $753 0 $444 $-1 forward 7 unknown #
vertex $-1 $445 $754 #
ellipse-curve $-1 -20.419354052206707 -20.306993704845787 5.2370157645038073 0 -0.66913061440640931 0.74314481823134659 1 0 0 1 I I #
point $-1 -19.419354052206707 -22.263190429490933 7.4095922810495267 #
edge $-1 $755 1 $755 0 $448 $-1 forward 7 unknown #
vertex $-1 $449 $756 #
ellipse-curve $-1 -15.377110012918514 -20.306993704845787 5.2370157645038073 0 -0.66913061440640931 0.74314481823134659 1 0 0 1 I I #
point $-1 -14.377110012918514 -22.263190429490933 7.4095922810495267 #
plane-surface $-1 0 25.196974996250475 0 0 -1 0 0 0 -1 forward_v I I I I #
coedge $-1 $456 $455 $458 $646 forward $188 $-1 #
edge $-1 $469 -47.80907620471816 $649 47.80907620471816 $467 $757 forward 7 unknown #
edge $-1 $647 -47.80907620471816 $473 47.80907620471816 $471 $758 forward 7 unknown #
straight-curve $-1 47.80907620471816 0 10.051183827585387 0 1 0 I I #
edge $-1 $649 -25.196974996250475 $647 25.196974996250475 $458 $759 forward 7 unknown #
vertex $-1 $646 $760 #
straight-curve $-1 -47.80907620471816 -25.196974996250475 0 0 0 -1 I I #
vertex $-1 $643 $761 #
straight-curve $-1 -47.80907620471816 25.196974996250475 0 0 0 -1 I I #
point $-1 -47.80907620471816 -25.196974996250475 -10.051183827585387 #
point $-1 -47.80907620471816 25.196974996250475 -10.051183827585387 #
point $-1 47.80907620471816 25.196974996250475 10.051183827585387 #
point $-1 47.80907620471816 -25.196974996250475 10.051183827585387 #
straight-curve $-1 0 -25.196974996250475 -10.051183827585387 -1 0 0 I I #
straight-curve $-1 0 25.196974996250475 -10.051183827585387 1 0 0 I I #
plane-surface $-1 0 0 10.051183827585387 0 0 1 1 0 0 forward_v I I I I #
coedge $-1 $484 $481 $486 $665 reversed $319 $-1 #
coedge $-1 $481 $484 $671 $762 reversed $319 $-1 #
edge $-1 $673 -10.051183827585387 $667 10.051183827585387 $498 $763 forward 7 unknown #
edge $-1 $662 -4.3403924024945226 $496 4.3403924024945226 $483 $764 forward 7 unknown #
vertex $-1 $762 $765 #
vertex $-1 $665 $766 #
straight-curve $-1 -56.489861009707205 -11.448585872899137 0 0 0 -1 I I #
edge $-1 $663 -1.5 $667 1.5 $658 $767 forward 7 unknown #
straight-curve $-1 -52.149468607212683 -11.448585872899137 -10.051183827585387 -1 0 0 I I #
vertex $-1 $488 $768 #
straight-curve $-1 -52.149468607212683 -8.4485858728991374 -10.051183827585387 1 0 0 I I #
point $-1 -47.80907620471816 -11.448585872899137 -10.051183827585387 #
straight-curve $-1 -47.80907620471816 -11.448585872899137 0 0 0 -1 I I #
coedge $-1 $494 $493 $659 $762 forward $495 $-1 #
point $-1 -47.80907620471816 -11.448585872899137 10.051183827585387 #
vertex $-1 $499 $769 #
straight-curve $-1 -52.149468607212683 -8.4485858728991374 10.051183827585387 -1 0 0 I I #
plane-surface $-1 0 0 10.051183827585387 0 0 1 1 0 0 forward_v I I I I #
coedge $-1 $680 $770 $519 $691 forward $503 $-1 #
coedge $-1 $505 $512 $515 $689 reversed $335 $-1 #
coedge $-1 $770 $680 $505 $679 reversed $503 $-1 #
edge $-1 $771 -10.051183827585387 $682 10.051183827585387 $678 $772 forward 7 unknown #
coedge $-1 $678 $676 $506 $681 reversed $503 $-1 #
edge $-1 $682 -1.5 $684 1.5 $680 $773 forward 7 unknown #
vertex $-1 $681 $774 #
straight-curve $-1 52.149468607212675 -8.4485858728991374 -10.051183827585387 1 0 0 I I #
vertex $-1 $691 $775 #
straight-curve $-1 52.149468607212675 -11.448585872899137 -10.051183827585387 -1 0 0 I I #
point $-1 47.809076204718153 -8.4485858728991374 -10.051183827585387 #
straight-curve $-1 47.80907620471816 -8.4485858728991374 0 0 0 -1 I I #
coedge $-1 $515 $514 $770 $776 forward $516 $-1 #
edge $-1 $771 -4.3403924024945226 $517 4.3403924024945226 $677 $777 forward 7 unknown #
point $-1 47.809076204718153 -8.4485858728991374 10.051183827585387 #
edge $-1 $692 -10.051183827585387 $684 10.051183827585387 $676 $778 forward 7 unknown #
vertex $-1 $776 $779 #
straight-curve $-1 52.149468607212675 -11.448585872899137 10.051183827585387 1 0 0 I I #
edge $-1 $695 41.43611842460956 $698 49.943732758641367 $524 $780 forward 7 unknown #
vertex $-1 $538 $781 #
straight-curve $-1 -23.151949977318921 31.26748856052393 10.05118382758539 0 1 0 I I #
edge $-1 $698 8.5062365172095671 $535 20.785190403009139 $534 $782 forward 7 unknown #
vertex $-1 $697 $783 #
straight-curve $-1 -23.151949977318921 -8.5231588555663507 38.993573083169466 0 -0.66913059716165679 0.74314483375859142 I I #
point $-1 -23.151949977318921 17.536684833214728 10.05118382758539 #
point $-1 -35.430903863118495 25.196974996250475 1.5435694935535835 #
straight-curve $-1 0 25.196974996250475 10.051183827585387 -1 0 0 I I #
vertex $-1 $541 $784 #
point $-1 -27.791426920218708 17.68840246761437 2.4853057929603732 #
coedge $-1 $556 $555 $548 $706 forward $545 $-1 #
edge $-1 $707 41.43611842460956 $710 49.943732758641367 $705 $785 forward 7 unknown #
vertex $-1 $560 $786 #
straight-curve $-1 -3.5878042774543646 31.26748856052393 10.05118382758539 0 1 0 I I #
edge $-1 $710 -1.2758363327227107 $557 11.003117553076862 $556 $787 forward 7 unknown #
vertex $-1 $709 $788 #
straight-curve $-1 -3.5878042774543646 -8.5231588555663507 38.993573083169466 0 -0.66913059716165679 0.74314483375859142 I I #
point $-1 -3.5878042774543646 17.536684833214728 10.05118382758539 #
point $-1 -15.866758163253937 25.196974996250475 1.5435694935535835 #
straight-curve $-1 0 25.196974996250475 10.051183827585387 -1 0 0 I I #
vertex $-1 $563 $789 #
point $-1 -8.2272812203541505 17.68840246761437 2.4853057929603732 #
coedge $-1 $578 $577 $570 $718 forward $567 $-1 #
edge $-1 $719 41.43611842460956 $722 49.943732758641367 $717 $790 forward 7 unknown #
vertex $-1 $582 $791 #
straight-curve $-1 15.97634142241019 31.26748856052393 10.05118382758539 0 1 0 I I #
edge $-1 $722 -11.057909182654988 $579 1.2210447031445844 $578 $792 forward 7 unknown #
vertex $-1 $721 $793 #
straight-curve $-1 15.97634142241019 -8.5231588555663507 38.993573083169466 0 -0.66913059716165679 0.74314483375859142 I I #
point $-1 15.97634142241019 17.536684833214728 10.05118382758539 #
point $-1 3.6973875366106173 25.196974996250475 1.5435694935535835 #
straight-curve $-1 0 25.196974996250475 10.051183827585387 -1 0 0 I I #
vertex $-1 $585 $794 #
point $-1 11.336864479510403 17.68840246761437 2.4853057929603732 #
coedge $-1 $600 $599 $592 $730 forward $589 $-1 #
edge $-1 $731 41.43611842460956 $734 49.943732758641367 $729 $795 forward 7 unknown #
vertex $-1 $604 $796 #
straight-curve $-1 35.54048712227474 31.26748856052393 10.05118382758539 0 1 0 I I #
edge $-1 $734 -20.839982032587262 $601 -8.5610281467876916 $600 $797 forward 7 unknown #
vertex $-1 $733 $798 #
straight-curve $-1 35.54048712227474 -8.5231588555663507 38.993573083169466 0 -0.66913059716165679 0.74314483375859142 I I #
point $-1 35.54048712227474 17.536684833214728 10.05118382758539 #
point $-1 23.26153323647517 25.196974996250475 1.5435694935535835 #
straight-curve $-1 0 25.196974996250475 10.051183827585387 -1 0 0 I I #
vertex $-1 $607 $799 #
point $-1 30.901010179374957 17.68840246761437 2.4853057929603732 #
coedge $-1 $622 $621 $614 $742 forward $611 $-1 #
edge $-1 $743 27.861883785635317 $746 33.145066878707034 $741 $800 forward 7 unknown #
vertex $-1 $626 $801 #
straight-curve $-1 -28.823094117687027 -44.589004033191145 10.05118382758539 0 -1 0 I I #
edge $-1 $746 -18.613417091583674 $623 -1.8059369606230327 $622 $802 forward 7 unknown #
vertex $-1 $745 $803 #
straight-curve $-1 -28.823094117687027 -25.196974996250482 4.768000734513663 0 0.74314481823134659 0.66913061440640931 I I #
point $-1 -28.823094117687027 -19.329405862731395 10.051183827585387 #
point $-1 -12.015613986726386 -25.196974996250475 4.7680007345136692 #
straight-curve $-1 0 -25.196974996250475 10.051183827585387 1 0 0 I I #
vertex $-1 $629 $804 #
point $-1 -24.461598091494899 -20.306993704845787 5.2370157645038073 #
vertex $-1 $633 $805 #
point $-1 -19.419354052206707 -20.306993704845787 5.2370157645038073 #
vertex $-1 $637 $806 #
point $-1 -14.377110012918514 -20.306993704845787 5.2370157645038073 #
straight-curve $-1 0 25.196974996250475 10.051183827585387 -1 0 0 I I #
straight-curve $-1 0 -25.196974996250475 10.051183827585387 1 0 0 I I #
straight-curve $-1 -47.80907620471816 0 10.051183827585387 0 -1 0 I I #
point $-1 -47.80907620471816 -25.196974996250475 10.051183827585387 #
point $-1 -47.80907620471816 25.196974996250475 10.051183827585387 #
edge $-1 $673 -1.5 $662 1.5 $659 $807 forward 7 unknown #
straight-curve $-1 -56.489861009707205 -8.4485858728991374 0 0 0 -1 I I #
straight-curve $-1 -52.149468607212683 -11.448585872899137 10.051183827585387 1 0 0 I I #
point $-1 -56.489861009707205 -11.448585872899137 10.051183827585387 #
point $-1 -56.489861009707205 -11.448585872899137 -10.051183827585387 #
straight-curve $-1 -56.489861009707205 -9.9485858728991374 -10.051183827585387 0 1 0 I I #
point $-1 -56.489861009707205 -8.4485858728991374 -10.051183827585387 #
point $-1 -56.489861009707205 -8.4485858728991374 10.051183827585387 #
coedge $-1 $676 $678 $688 $776 reversed $503 $-1 #
vertex $-1 $776 $808 #
straight-curve $-1 56.489861009707198 -8.4485858728991374 0 0 0 -1 I I #
straight-curve $-1 56.489861009707198 -9.9485858728991374 -10.051183827585387 0 -1 0 I I #
point $-1 56.489861009707198 -8.4485858728991374 -10.051183827585387 #
point $-1 56.489861009707198 -11.448585872899137 -10.051183827585387 #
edge $-1 $692 -1.5 $771 1.5 $770 $809 forward 7 unknown #
straight-curve $-1 52.149468607212675 -8.4485858728991374 10.051183827585387 -1 0 0 I I #
straight-curve $-1 56.489861009707198 -11.448585872899137 0 0 0 -1 I I #
point $-1 56.489861009707198 -11.448585872899137 10.051183827585387 #
straight-curve $-1 -23.151949977318921 25.196974996250475 51.487302252194951 0 0 -1 I I #
point $-1 -23.151949977318921 25.196974996250475 10.051183827585387 #
straight-curve $-1 -14.645713460109354 25.196974996250475 1.54356949355358 -1 0 0 I I #
point $-1 -23.151949977318921 25.196974996250475 1.5435694935535835 #
point $-1 -29.291426920218708 16.573685216976482 1.4816098972178882 #
straight-curve $-1 -3.5878042774543646 25.196974996250475 51.487302252194951 0 0 -1 I I #
point $-1 -3.5878042774543646 25.196974996250475 10.051183827585387 #
straight-curve $-1 -4.8636406101770753 25.196974996250475 1.54356949355358 -1 0 0 I I #
point $-1 -3.5878042774543646 25.196974996250475 1.5435694935535835 #
point $-1 -9.7272812203541505 16.573685216976482 1.4816098972178882 #
straight-curve $-1 15.97634142241019 25.196974996250475 51.487302252194951 0 0 -1 I I #
point $-1 15.97634142241019 25.196974996250475 10.051183827585387 #
straight-curve $-1 4.9184322397552016 25.196974996250475 1.54356949355358 -1 0 0 I I #
point $-1 15.97634142241019 25.196974996250475 1.5435694935535835 #
point $-1 9.8368644795104032 16.573685216976482 1.4816098972178882 #
straight-curve $-1 35.54048712227474 25.196974996250475 51.487302252194951 0 0 -1 I I #
point $-1 35.54048712227474 25.196974996250475 10.051183827585387 #
straight-curve $-1 14.700505089687478 25.196974996250475 1.54356949355358 -1 0 0 I I #
point $-1 35.54048712227474 25.196974996250475 1.5435694935535835 #
point $-1 29.401010179374957 16.573685216976482 1.4816098972178882 #
straight-curve $-1 -28.823094117687027 -25.196974996250475 37.913067613220704 0 0 -1 I I #
point $-1 -28.823094117687027 -25.196974996250475 10.051183827585387 #
straight-curve $-1 -10.209677026103353 -25.196974996250475 4.7680007345136701 1 0 0 I I #
point $-1 -28.823094117687027 -25.196974996250475 4.7680007345136692 #
point $-1 -25.461598091494899 -19.637863090439375 4.4938709462724606 #
point $-1 -20.419354052206707 -19.637863090439375 4.4938709462724606 #
point $-1 -15.377110012918514 -19.637863090439375 4.4938709462724606 #
straight-curve $-1 -56.489861009707205 -9.9485858728991374 10.051183827585387 0 -1 0 I I #
point $-1 56.489861009707198 -8.4485858728991374 10.051183827585387 #
straight-curve $-1 56.489861009707198 -9.9485858728991374 10.051183827585387 0 1 0 I I #
End-of-ACIS-data 