500 0 3 0           
7 Unknown 11 ACIS 5.0 NT 24 Fri Mar 26 01:55:13 1999 
-1 9.9999999999999995e-007 1e-010 
body $-1 $3 $-1 $4 #
body $-1 $5 $-1 $6 #
body $-1 $7 $-1 $8 #
lump $-1 $-1 $9 $0 #
transform $-1 1 0 0 0 1 0 0 0 1 72.728049562059397 41.280553684649732 13.344401647813816 1 rotate no_reflect no_shear #
lump $-1 $-1 $10 $1 #
transform $-1 1 0 0 0 1 0 0 0 1 72.728049562059397 41.280553684649732 13.344401647813816 1 rotate no_reflect no_shear #
lump $-1 $-1 $11 $2 #
transform $-1 1 0 0 0 1 0 0 0 1 72.728049562059397 41.280553684649732 13.344401647813816 1 rotate no_reflect no_shear #
shell $-1 $-1 $-1 $12 $-1 $3 #
shell $-1 $-1 $-1 $13 $-1 $5 #
shell $-1 $-1 $-1 $14 $-1 $7 #
face $-1 $15 $16 $9 $-1 $17 forward single #
face $-1 $18 $19 $10 $-1 $20 forward single #
face $-1 $21 $22 $11 $-1 $23 reversed single #
face $-1 $24 $25 $9 $-1 $26 reversed single #
loop $-1 $-1 $27 $12 #
plane-surface $-1 0 0 13.344401647813816 0 0 1 1 0 0 forward_v I I I I #
face $-1 $28 $29 $10 $-1 $30 forward single #
loop $-1 $-1 $31 $13 #
plane-surface $-1 -162.2797672669526 -25.98657908761885 117.78171495584894 0 -1 0 0.61566148304635926 0 -0.78801074757464917 forward_v I I I I #
face $-1 $32 $33 $11 $-1 $34 reversed single #
loop $-1 $35 $36 $14 #
cone-surface $-1 -63.239174521459056 -33.633566386134291 4.4490575651227182 0.61566148304635926 0 -0.78801074757464917 1.9700268689366229 0 1.5391537076158981 1 I I 0 1 2.5 forward I I I I #
face $-1 $37 $38 $9 $-1 $39 reversed single #
loop $-1 $-1 $40 $15 #
plane-surface $-1 0 0 -13.344401647813816 0 0 1 1 0 0 forward_v I I I I #
coedge $-1 $41 $42 $43 $44 forward $16 $-1 #
face $-1 $45 $46 $10 $-1 $47 reversed single #
loop $-1 $-1 $48 $18 #
plane-surface $-1 -72.728049562059383 -33.633566386134291 3.1607455457598235 -0.61566148304635926 0 0.78801074757464917 0.78801074757464917 0 0.61566148304635926 forward_v I I I I #
coedge $-1 $49 $50 $51 $52 reversed $19 $-1 #
face $-1 $53 $54 $11 $-1 $55 forward single #
loop $-1 $56 $57 $21 #
cone-surface $-1 -59.497965201911043 -33.633566386134291 -0.33947190100969316 0.61566148304635926 0 -0.78801074757464917 0.98501343446831147 0 0.76957685380794905 1 I I -0.70710678118654746 0.70710678118654746 1.25 forward I I I I #
loop $-1 $-1 $58 $14 #
coedge $-1 $36 $36 $59 $60 reversed $22 $-1 #
face $-1 $61 $62 $9 $-1 $63 reversed single #
loop $-1 $-1 $64 $24 #
plane-surface $-1 0 -41.280553684649732 0 0 1 0 0 0 1 forward_v I I I I #
coedge $-1 $65 $66 $67 $68 forward $25 $-1 #
coedge $-1 $69 $27 $70 $71 forward $16 $-1 #
coedge $-1 $27 $69 $72 $73 forward $16 $-1 #
coedge $-1 $74 $75 $27 $44 reversed $76 $-1 #
edge $-1 $77 -41.280553684649732 $78 41.280553684649732 $43 $79 forward 7 unknown #
face $-1 $80 $81 $10 $-1 $82 forward single #
loop $-1 $-1 $83 $28 #
plane-surface $-1 -72.728049562059397 0 0 1 0 0 0 0 -1 forward_v I I I I #
coedge $-1 $84 $85 $83 $86 reversed $29 $-1 #
coedge $-1 $50 $31 $85 $87 forward $19 $-1 #
coedge $-1 $31 $49 $88 $89 reversed $19 $-1 #
coedge $-1 $90 $83 $31 $52 forward $46 $-1 #
edge $-1 $91 -55.730111932164661 $92 -45.546455830110652 $51 $93 forward 7 unknown #
face $-1 $94 $95 $11 $-1 $96 forward single #
loop $-1 $-1 $97 $32 #
plane-surface $-1 -162.2797672669526 -25.98657908761885 117.78171495584894 0 -1 0 0.61566148304635926 0 -0.78801074757464917 forward_v I I I I #
loop $-1 $-1 $98 $21 #
coedge $-1 $57 $57 $58 $99 forward $33 $-1 #
coedge $-1 $58 $58 $57 $99 reversed $35 $-1 #
coedge $-1 $59 $59 $36 $60 forward $95 $-1 #
edge $-1 $100 0 $100 6.2831853071796004 $59 $101 forward 7 unknown #
face $-1 $102 $103 $9 $-1 $104 reversed single #
loop $-1 $-1 $105 $37 #
plane-surface $-1 -72.728049562059397 0 0 1 0 0 0 0 -1 forward_v I I I I #
coedge $-1 $106 $72 $107 $108 forward $38 $-1 #
coedge $-1 $109 $40 $106 $110 forward $25 $-1 #
coedge $-1 $40 $109 $111 $112 forward $25 $-1 #
coedge $-1 $75 $74 $40 $68 reversed $76 $-1 #
edge $-1 $113 -41.280553684649732 $114 41.280553684649732 $67 $115 forward 7 unknown #
coedge $-1 $42 $41 $116 $117 forward $16 $-1 #
coedge $-1 $118 $119 $41 $71 reversed $103 $-1 #
edge $-1 $78 -72.728049562059397 $120 72.728049562059397 $70 $121 forward 7 unknown #
coedge $-1 $64 $122 $42 $73 reversed $38 $-1 #
edge $-1 $123 -72.728049562059397 $77 72.728049562059397 $72 $124 forward 7 unknown #
coedge $-1 $67 $43 $122 $125 forward $76 $-1 #
coedge $-1 $43 $67 $118 $126 reversed $76 $-1 #
loop $-1 $-1 $74 $102 #
vertex $-1 $44 $127 #
vertex $-1 $44 $128 #
straight-curve $-1 72.728049562059397 0 13.344401647813816 0 1 0 I I #
face $-1 $129 $130 $10 $-1 $131 reversed single #
loop $-1 $-1 $88 $45 #
plane-surface $-1 0 0 13.344401647813816 0 0 1 1 0 0 forward_v I I I I #
coedge $-1 $51 $132 $48 $86 forward $46 $-1 #
coedge $-1 $133 $48 $134 $135 reversed $29 $-1 #
coedge $-1 $48 $133 $49 $87 reversed $29 $-1 #
edge $-1 $136 -24.463770491582586 $91 -9.1697958945517044 $83 $137 forward 7 unknown #
edge $-1 $91 -1.8033521786330445e-014 $138 16.540999205706623 $49 $139 forward 7 unknown #
coedge $-1 $140 $141 $50 $89 forward $81 $-1 #
edge $-1 $92 8.4118340714169051 $138 21.446319221137472 $88 $142 forward 7 unknown #
coedge $-1 $143 $51 $141 $144 reversed $46 $-1 #
vertex $-1 $86 $145 #
vertex $-1 $89 $146 #
straight-curve $-1 -72.728049562059397 -25.98657908761885 58.89085747792447 0 0 1 I I #
face $-1 $147 $148 $11 $-1 $149 reversed single #
loop $-1 $150 $59 $53 #
plane-surface $-1 -72.728049562059383 -33.633566386134291 3.1607455457598235 -0.61566148304635926 0 0.78801074757464917 0.78801074757464917 0 0.61566148304635926 forward_v I I I I #
coedge $-1 $151 $152 $153 $154 reversed $54 $-1 #
coedge $-1 $98 $98 $-1 $155 forward $56 $-1 #
edge $-1 $156 0 $156 6.2831853071796004 $57 $157 forward 7 unknown #
vertex $-1 $60 $158 #
ellipse-curve $-1 -66.210806987199106 -33.633566386134291 8.2525735967868137 0.61566148304635926 0 -0.78801074757464917 1.9700268689366229 0 1.5391537076158981 1 I I #
face $-1 $-1 $76 $9 $-1 $159 reversed single #
loop $-1 $-1 $118 $61 #
plane-surface $-1 0 41.280553684649732 0 0 -1 0 0 0 -1 forward_v I I I I #
coedge $-1 $160 $116 $119 $161 forward $62 $-1 #
coedge $-1 $122 $64 $65 $110 reversed $38 $-1 #
coedge $-1 $116 $160 $64 $108 reversed $62 $-1 #
edge $-1 $123 -13.344401647813816 $162 13.344401647813816 $107 $163 forward 7 unknown #
coedge $-1 $66 $65 $160 $164 forward $25 $-1 #
edge $-1 $114 -72.728049562059397 $162 72.728049562059397 $106 $165 forward 7 unknown #
coedge $-1 $119 $118 $66 $112 reversed $103 $-1 #
edge $-1 $166 -72.728049562059397 $113 72.728049562059397 $111 $167 forward 7 unknown #
vertex $-1 $68 $168 #
vertex $-1 $125 $169 #
straight-curve $-1 72.728049562059397 0 -13.344401647813816 0 -1 0 I I #
coedge $-1 $105 $107 $69 $117 reversed $62 $-1 #
edge $-1 $120 -41.280553684649732 $123 41.280553684649732 $116 $170 forward 7 unknown #
coedge $-1 $111 $70 $75 $126 forward $103 $-1 #
coedge $-1 $70 $111 $105 $161 reversed $103 $-1 #
vertex $-1 $71 $171 #
straight-curve $-1 0 41.280553684649732 13.344401647813816 -1 0 0 I I #
coedge $-1 $72 $106 $74 $125 reversed $38 $-1 #
vertex $-1 $117 $172 #
straight-curve $-1 0 -41.280553684649732 13.344401647813816 1 0 0 I I #
edge $-1 $77 -13.344401647813816 $114 13.344401647813816 $74 $173 forward 7 unknown #
edge $-1 $78 -13.344401647813816 $113 13.344401647813816 $75 $174 forward 7 unknown #
point $-1 72.728049562059397 -41.280553684649732 13.344401647813816 #
point $-1 72.728049562059397 41.280553684649732 13.344401647813816 #
face $-1 $175 $176 $10 $-1 $177 reversed single #
loop $-1 $-1 $178 $80 #
plane-surface $-1 0 0 -13.344401647813816 0 0 1 1 0 0 forward_v I I I I #
coedge $-1 $83 $179 $180 $181 reversed $46 $-1 #
coedge $-1 $85 $84 $140 $182 reversed $29 $-1 #
coedge $-1 $180 $183 $84 $135 forward $176 $-1 #
edge $-1 $184 11.141268501698319 $136 27.682267707404961 $134 $185 forward 7 unknown #
vertex $-1 $181 $186 #
straight-curve $-1 -72.728049562059397 -16.816783193067145 3.1607455457598199 0 1 0 I I #
vertex $-1 $182 $187 #
straight-curve $-1 -72.728049562059383 -25.98657908761885 3.1607455457598235 0.78801074757464917 0 0.61566148304635926 I I #
coedge $-1 $188 $88 $133 $182 forward $81 $-1 #
coedge $-1 $88 $189 $90 $144 forward $81 $-1 #
straight-curve $-1 -81.139883633476302 -25.98657908761885 13.344401647813818 1 0 0 I I #
coedge $-1 $179 $90 $190 $191 forward $46 $-1 #
edge $-1 $192 -41.280553684649732 $92 25.98657908761885 $90 $193 forward 7 unknown #
point $-1 -72.728049562059397 -25.98657908761885 3.1607455457598124 #
point $-1 -72.728049562059397 -25.98657908761885 13.344401647813816 #
face $-1 $194 $195 $11 $-1 $196 forward single #
loop $-1 $-1 $197 $94 #
plane-surface $-1 -72.728049562059397 0 0 1 0 0 0 0 -1 forward_v I I I I #
loop $-1 $-1 $198 $53 #
coedge $-1 $152 $97 $199 $200 forward $54 $-1 #
coedge $-1 $97 $151 $201 $202 reversed $54 $-1 #
coedge $-1 $203 $197 $97 $154 forward $148 $-1 #
edge $-1 $204 -55.730111932164661 $205 -45.546455830110652 $153 $206 forward 7 unknown #
edge $-1 $207 1 $207 0 $98 $-1 forward 7 unknown #
vertex $-1 $99 $208 #
ellipse-curve $-1 -60.267542055718991 -33.633566386134291 0.64554153345861831 -0.61566148304635926 0 0.78801074757464917 1.9700268689366229 0 1.5391537076158981 1 I I #
point $-1 -64.240780118262492 -33.633566386134291 9.791727304402718 #
plane-surface $-1 72.728049562059397 0 0 -1 0 0 0 0 1 forward_v I I I I #
coedge $-1 $107 $105 $109 $164 reversed $62 $-1 #
edge $-1 $120 -13.344401647813816 $166 13.344401647813816 $119 $209 forward 7 unknown #
vertex $-1 $164 $210 #
straight-curve $-1 -72.728049562059397 -41.280553684649732 0 0 0 -1 I I #
edge $-1 $162 -41.280553684649732 $166 41.280553684649732 $160 $211 forward 7 unknown #
straight-curve $-1 0 -41.280553684649732 -13.344401647813816 -1 0 0 I I #
vertex $-1 $112 $212 #
straight-curve $-1 0 41.280553684649732 -13.344401647813816 1 0 0 I I #
point $-1 72.728049562059397 41.280553684649732 -13.344401647813816 #
point $-1 72.728049562059397 -41.280553684649732 -13.344401647813816 #
straight-curve $-1 -72.728049562059397 0 13.344401647813816 0 -1 0 I I #
point $-1 -72.728049562059397 41.280553684649732 13.344401647813816 #
point $-1 -72.728049562059397 -41.280553684649732 13.344401647813816 #
straight-curve $-1 72.728049562059397 -41.280553684649732 0 0 0 -1 I I #
straight-curve $-1 72.728049562059397 41.280553684649732 0 0 0 -1 I I #
face $-1 $213 $214 $10 $-1 $215 reversed single #
loop $-1 $-1 $134 $129 #
plane-surface $-1 0 -41.280553684649732 0 0 1 0 0 0 1 forward_v I I I I #
coedge $-1 $216 $217 $218 $219 forward $130 $-1 #
coedge $-1 $132 $143 $220 $221 reversed $46 $-1 #
coedge $-1 $222 $134 $132 $181 forward $176 $-1 #
edge $-1 $136 -3.1607455457598124 $223 13.344401647813816 $132 $224 forward 7 unknown #
edge $-1 $138 9.1697958945517044 $184 24.463770491582586 $140 $225 forward 7 unknown #
coedge $-1 $134 $226 $188 $227 reversed $176 $-1 #
vertex $-1 $227 $228 #
straight-curve $-1 -50.914125091385642 -41.280553684649732 20.203651536587088 -0.78801074757464917 0 -0.61566148304635926 I I #
point $-1 -72.728049562059397 -41.280553684649732 3.1607455457598124 #
point $-1 -59.69356441233883 -25.98657908761885 13.344401647813816 #
coedge $-1 $229 $140 $183 $227 forward $81 $-1 #
coedge $-1 $141 $229 $230 $231 forward $81 $-1 #
coedge $-1 $230 $232 $143 $191 reversed $214 $-1 #
edge $-1 $192 -13.344401647813816 $233 13.344401647813816 $190 $234 forward 7 unknown #
vertex $-1 $231 $235 #
straight-curve $-1 -72.728049562059397 0 13.344401647813816 0 -1 0 I I #
face $-1 $236 $237 $11 $-1 $238 reversed single #
loop $-1 $-1 $201 $147 #
plane-surface $-1 0 0 13.344401647813816 0 0 1 1 0 0 forward_v I I I I #
coedge $-1 $153 $239 $198 $240 forward $148 $-1 #
coedge $-1 $241 $199 $197 $240 reversed $150 $-1 #
coedge $-1 $198 $242 $151 $200 reversed $150 $-1 #
edge $-1 $204 -1.8033521786330445e-014 $243 16.540999205706623 $151 $244 forward 7 unknown #
coedge $-1 $245 $246 $152 $202 forward $195 $-1 #
edge $-1 $205 8.4118340714169051 $243 21.446319221137472 $201 $247 forward 7 unknown #
coedge $-1 $248 $153 $246 $249 reversed $148 $-1 #
vertex $-1 $240 $250 #
vertex $-1 $202 $251 #
straight-curve $-1 -72.728049562059397 -25.98657908761885 58.89085747792447 0 0 1 I I #
vertex $-1 $155 $252 #
point $-1 -58.29751518678237 -33.633566386134291 2.1846952410745164 #
straight-curve $-1 -72.728049562059397 41.280553684649732 0 0 0 -1 I I #
point $-1 -72.728049562059397 -41.280553684649732 -13.344401647813816 #
straight-curve $-1 -72.728049562059397 0 -13.344401647813816 0 1 0 I I #
point $-1 -72.728049562059397 41.280553684649732 -13.344401647813816 #
face $-1 $-1 $253 $10 $-1 $254 reversed single #
loop $-1 $-1 $255 $175 #
plane-surface $-1 0 41.280553684649732 0 0 -1 0 0 0 -1 forward_v I I I I #
coedge $-1 $220 $178 $222 $256 forward $130 $-1 #
coedge $-1 $178 $220 $232 $257 forward $130 $-1 #
coedge $-1 $258 $259 $178 $219 reversed $253 $-1 #
edge $-1 $260 -41.280553684649732 $261 41.280553684649732 $218 $262 forward 7 unknown #
coedge $-1 $217 $216 $179 $221 forward $130 $-1 #
edge $-1 $223 -41.280553684649732 $233 41.280553684649732 $179 $263 forward 7 unknown #
coedge $-1 $226 $180 $216 $256 reversed $176 $-1 #
vertex $-1 $221 $264 #
straight-curve $-1 -72.728049562059397 -41.280553684649732 0 0 0 -1 I I #
straight-curve $-1 -59.693564412338816 -16.816783193067145 13.344401647813816 0 -1 0 I I #
coedge $-1 $183 $222 $259 $265 reversed $176 $-1 #
edge $-1 $184 -59.69356441233883 $266 72.728049562059397 $183 $267 forward 7 unknown #
point $-1 -59.69356441233883 -41.280553684649732 13.344401647813816 #
coedge $-1 $189 $188 $268 $269 forward $81 $-1 #
coedge $-1 $255 $190 $189 $231 reversed $214 $-1 #
edge $-1 $270 -72.728049562059397 $192 72.728049562059397 $230 $271 forward 7 unknown #
coedge $-1 $190 $255 $217 $257 reversed $214 $-1 #
vertex $-1 $257 $272 #
straight-curve $-1 -72.728049562059397 41.280553684649732 0 0 0 -1 I I #
point $-1 -72.728049562059397 41.280553684649732 13.344401647813816 #
face $-1 $273 $274 $11 $-1 $275 reversed single #
loop $-1 $-1 $276 $194 #
plane-surface $-1 0 0 -13.344401647813816 0 0 1 1 0 0 forward_v I I I I #
coedge $-1 $197 $277 $278 $279 reversed $148 $-1 #
edge $-1 $280 -24.463770491582586 $204 -9.1697958945517044 $197 $281 forward 7 unknown #
coedge $-1 $242 $198 $282 $283 reversed $150 $-1 #
coedge $-1 $199 $241 $245 $284 reversed $150 $-1 #
vertex $-1 $284 $285 #
straight-curve $-1 -72.728049562059383 -25.98657908761885 3.1607455457598235 0.78801074757464917 0 0.61566148304635926 I I #
coedge $-1 $286 $201 $242 $284 forward $195 $-1 #
coedge $-1 $201 $287 $203 $249 forward $195 $-1 #
straight-curve $-1 -81.139883633476302 -25.98657908761885 13.344401647813818 1 0 0 I I #
coedge $-1 $277 $203 $288 $289 forward $148 $-1 #
edge $-1 $290 -41.280553684649732 $205 25.98657908761885 $203 $291 forward 7 unknown #
point $-1 -72.728049562059397 -25.98657908761885 3.1607455457598124 #
point $-1 -72.728049562059397 -25.98657908761885 13.344401647813816 #
point $-1 -58.728388348103095 -33.633566386134291 -1.3244853354780046 #
loop $-1 $-1 $259 $213 #
plane-surface $-1 72.728049562059397 0 0 -1 0 0 0 0 1 forward_v I I I I #
coedge $-1 $232 $230 $258 $292 forward $214 $-1 #
edge $-1 $261 -72.728049562059397 $223 72.728049562059397 $222 $293 forward 7 unknown #
edge $-1 $233 -72.728049562059397 $260 72.728049562059397 $232 $294 forward 7 unknown #
coedge $-1 $268 $218 $255 $292 reversed $253 $-1 #
coedge $-1 $218 $268 $226 $265 forward $253 $-1 #
vertex $-1 $219 $295 #
vertex $-1 $265 $296 #
straight-curve $-1 72.728049562059397 0 -13.344401647813816 0 -1 0 I I #
straight-curve $-1 -72.728049562059397 0 -13.344401647813816 0 1 0 I I #
point $-1 -72.728049562059397 -41.280553684649732 -13.344401647813816 #
edge $-1 $266 -13.344401647813816 $261 13.344401647813816 $259 $297 forward 7 unknown #
vertex $-1 $269 $298 #
straight-curve $-1 0 -41.280553684649732 13.344401647813816 1 0 0 I I #
coedge $-1 $259 $258 $229 $269 reversed $253 $-1 #
edge $-1 $266 -41.280553684649732 $270 41.280553684649732 $268 $299 forward 7 unknown #
vertex $-1 $269 $300 #
straight-curve $-1 0 41.280553684649732 13.344401647813816 -1 0 0 I I #
point $-1 -72.728049562059397 41.280553684649732 -13.344401647813816 #
face $-1 $301 $302 $11 $-1 $303 reversed single #
loop $-1 $-1 $282 $236 #
plane-surface $-1 0 -41.280553684649732 0 0 1 0 0 0 1 forward_v I I I I #
coedge $-1 $304 $305 $306 $307 forward $237 $-1 #
coedge $-1 $239 $248 $308 $309 reversed $148 $-1 #
coedge $-1 $310 $282 $239 $279 forward $274 $-1 #
edge $-1 $280 -3.1607455457598124 $311 13.344401647813816 $239 $312 forward 7 unknown #
vertex $-1 $279 $313 #
straight-curve $-1 -72.728049562059397 -16.816783193067145 3.1607455457598199 0 1 0 I I #
coedge $-1 $278 $314 $241 $283 forward $274 $-1 #
edge $-1 $315 11.141268501698319 $280 27.682267707404961 $282 $316 forward 7 unknown #
edge $-1 $243 9.1697958945517044 $315 24.463770491582586 $245 $317 forward 7 unknown #
point $-1 -59.69356441233883 -25.98657908761885 13.344401647813816 #
coedge $-1 $318 $245 $314 $319 forward $195 $-1 #
coedge $-1 $246 $318 $320 $321 forward $195 $-1 #
coedge $-1 $320 $322 $248 $289 reversed $302 $-1 #
edge $-1 $290 -13.344401647813816 $323 13.344401647813816 $288 $324 forward 7 unknown #
vertex $-1 $321 $325 #
straight-curve $-1 -72.728049562059397 0 13.344401647813816 0 -1 0 I I #
edge $-1 $270 -13.344401647813816 $260 13.344401647813816 $258 $326 forward 7 unknown #
straight-curve $-1 0 -41.280553684649732 -13.344401647813816 -1 0 0 I I #
straight-curve $-1 0 41.280553684649732 -13.344401647813816 1 0 0 I I #
point $-1 72.728049562059397 41.280553684649732 -13.344401647813816 #
point $-1 72.728049562059397 -41.280553684649732 -13.344401647813816 #
straight-curve $-1 72.728049562059397 -41.280553684649732 0 0 0 -1 I I #
point $-1 72.728049562059397 -41.280553684649732 13.344401647813816 #
straight-curve $-1 72.728049562059397 0 13.344401647813816 0 1 0 I I #
point $-1 72.728049562059397 41.280553684649732 13.344401647813816 #
face $-1 $-1 $327 $11 $-1 $328 reversed single #
loop $-1 $-1 $329 $273 #
plane-surface $-1 0 41.280553684649732 0 0 -1 0 0 0 -1 forward_v I I I I #
coedge $-1 $308 $276 $310 $330 forward $237 $-1 #
coedge $-1 $276 $308 $322 $331 forward $237 $-1 #
coedge $-1 $332 $333 $276 $307 reversed $327 $-1 #
edge $-1 $334 -41.280553684649732 $335 41.280553684649732 $306 $336 forward 7 unknown #
coedge $-1 $305 $304 $277 $309 forward $237 $-1 #
edge $-1 $311 -41.280553684649732 $323 41.280553684649732 $277 $337 forward 7 unknown #
coedge $-1 $338 $278 $304 $330 reversed $274 $-1 #
vertex $-1 $309 $339 #
straight-curve $-1 -72.728049562059397 -41.280553684649732 0 0 0 -1 I I #
point $-1 -72.728049562059397 -41.280553684649732 3.1607455457598124 #
coedge $-1 $282 $338 $286 $319 reversed $274 $-1 #
vertex $-1 $319 $340 #
straight-curve $-1 -50.914125091385642 -41.280553684649732 20.203651536587088 -0.78801074757464917 0 -0.61566148304635926 I I #
straight-curve $-1 -59.693564412338816 -16.816783193067145 13.344401647813816 0 -1 0 I I #
coedge $-1 $287 $286 $341 $342 forward $195 $-1 #
edge $-1 $315 -59.69356441233883 $343 72.728049562059397 $314 $344 forward 7 unknown #
coedge $-1 $329 $288 $287 $321 reversed $302 $-1 #
edge $-1 $345 -72.728049562059397 $290 72.728049562059397 $320 $346 forward 7 unknown #
coedge $-1 $288 $329 $305 $331 reversed $302 $-1 #
vertex $-1 $331 $347 #
straight-curve $-1 -72.728049562059397 41.280553684649732 0 0 0 -1 I I #
point $-1 -72.728049562059397 41.280553684649732 13.344401647813816 #
straight-curve $-1 72.728049562059397 41.280553684649732 0 0 0 -1 I I #
loop $-1 $-1 $333 $301 #
plane-surface $-1 72.728049562059397 0 0 -1 0 0 0 0 1 forward_v I I I I #
coedge $-1 $322 $320 $332 $348 forward $302 $-1 #
edge $-1 $335 -72.728049562059397 $311 72.728049562059397 $310 $349 forward 7 unknown #
edge $-1 $323 -72.728049562059397 $334 72.728049562059397 $322 $350 forward 7 unknown #
coedge $-1 $341 $306 $329 $348 reversed $327 $-1 #
coedge $-1 $306 $341 $338 $351 forward $327 $-1 #
vertex $-1 $307 $352 #
vertex $-1 $351 $353 #
straight-curve $-1 72.728049562059397 0 -13.344401647813816 0 -1 0 I I #
straight-curve $-1 -72.728049562059397 0 -13.344401647813816 0 1 0 I I #
coedge $-1 $314 $310 $333 $351 reversed $274 $-1 #
point $-1 -72.728049562059397 -41.280553684649732 -13.344401647813816 #
point $-1 -59.69356441233883 -41.280553684649732 13.344401647813816 #
coedge $-1 $333 $332 $318 $342 reversed $327 $-1 #
edge $-1 $343 -41.280553684649732 $345 41.280553684649732 $341 $354 forward 7 unknown #
vertex $-1 $342 $355 #
straight-curve $-1 0 -41.280553684649732 13.344401647813816 1 0 0 I I #
vertex $-1 $342 $356 #
straight-curve $-1 0 41.280553684649732 13.344401647813816 -1 0 0 I I #
point $-1 -72.728049562059397 41.280553684649732 -13.344401647813816 #
edge $-1 $345 -13.344401647813816 $334 13.344401647813816 $332 $357 forward 7 unknown #
straight-curve $-1 0 -41.280553684649732 -13.344401647813816 -1 0 0 I I #
straight-curve $-1 0 41.280553684649732 -13.344401647813816 1 0 0 I I #
edge $-1 $343 -13.344401647813816 $335 13.344401647813816 $333 $358 forward 7 unknown #
point $-1 72.728049562059397 41.280553684649732 -13.344401647813816 #
point $-1 72.728049562059397 -41.280553684649732 -13.344401647813816 #
straight-curve $-1 72.728049562059397 0 13.344401647813816 0 1 0 I I #
point $-1 72.728049562059397 -41.280553684649732 13.344401647813816 #
point $-1 72.728049562059397 41.280553684649732 13.344401647813816 #
straight-curve $-1 72.728049562059397 41.280553684649732 0 0 0 -1 I I #
straight-curve $-1 72.728049562059397 -41.280553684649732 0 0 0 -1 I I #
End-of-ACIS-data 