500 0 8 0           
7 Unknown 11 ACIS 5.0 NT 24 Thu Mar 25 16:57:33 1999 
-1 9.9999999999999995e-007 1e-010 
body $-1 $8 $-1 $9 #
body $-1 $10 $-1 $11 #
body $-1 $12 $-1 $13 #
body $-1 $14 $-1 $15 #
body $-1 $16 $-1 $17 #
body $-1 $18 $-1 $19 #
body $-1 $20 $-1 $21 #
body $-1 $22 $-1 $23 #
lump $-1 $-1 $24 $0 #
transform $-1 1 0 0 0 1 0 0 0 1 66.309396649067651 43.755054827330724 9.4168110184739611 1 rotate no_reflect no_shear #
lump $-1 $-1 $25 $1 #
transform $-1 1 0 0 0 1 0 0 0 1 66.309396649067651 43.755054827330724 9.4168110184739611 1 rotate no_reflect no_shear #
lump $-1 $-1 $26 $2 #
transform $-1 1 0 0 0 1 0 0 0 1 66.309396649067651 43.755054827330724 9.4168110184739611 1 rotate no_reflect no_shear #
lump $-1 $-1 $27 $3 #
transform $-1 1 0 0 0 1 0 0 0 1 66.309396649067651 43.755054827330724 9.4168110184739611 1 rotate no_reflect no_shear #
lump $-1 $-1 $28 $4 #
transform $-1 1 0 0 0 1 0 0 0 1 66.309396649067651 43.755054827330724 9.4168110184739611 1 rotate no_reflect no_shear #
lump $-1 $-1 $29 $5 #
transform $-1 1 0 0 0 1 0 0 0 1 66.309396649067651 43.755054827330724 9.4168110184739611 1 rotate no_reflect no_shear #
lump $-1 $-1 $30 $6 #
transform $-1 1 0 0 0 1 0 0 0 1 66.309396649067651 43.755054827330724 9.4168110184739611 1 rotate no_reflect no_shear #
lump $-1 $-1 $31 $7 #
transform $-1 1 0 0 0 1 0 0 0 1 66.309396649067651 43.755054827330724 9.4168110184739611 1 rotate no_reflect no_shear #
shell $-1 $-1 $-1 $32 $-1 $8 #
shell $-1 $-1 $-1 $33 $-1 $10 #
shell $-1 $-1 $-1 $34 $-1 $12 #
shell $-1 $-1 $-1 $35 $-1 $14 #
shell $-1 $-1 $-1 $36 $-1 $16 #
shell $-1 $-1 $-1 $37 $-1 $18 #
shell $-1 $-1 $-1 $38 $-1 $20 #
shell $-1 $-1 $-1 $39 $-1 $22 #
face $-1 $40 $41 $24 $-1 $42 forward single #
face $-1 $43 $44 $25 $-1 $45 forward single #
face $-1 $46 $47 $26 $-1 $48 reversed single #
face $-1 $49 $50 $27 $-1 $51 forward single #
face $-1 $52 $53 $28 $-1 $54 forward single #
face $-1 $55 $56 $29 $-1 $57 reversed single #
face $-1 $58 $59 $30 $-1 $60 forward single #
face $-1 $61 $62 $31 $-1 $63 forward single #
face $-1 $64 $65 $24 $-1 $66 reversed single #
loop $-1 $-1 $67 $32 #
plane-surface $-1 0 0 9.4168110184739611 0 0 1 1 0 0 forward_v I I I I #
face $-1 $68 $69 $25 $-1 $70 reversed single #
loop $-1 $-1 $71 $33 #
plane-surface $-1 -66.309396649067651 0 0 1 0 0 0 0 -1 forward_v I I I I #
face $-1 $72 $73 $26 $-1 $74 reversed single #
loop $-1 $-1 $75 $34 #
plane-surface $-1 17.264710225139854 -117.91454387032906 110.31099175163044 -1 0 0 0 -0.55919291073839883 0.82903756765294845 forward_v I I I I #
face $-1 $76 $77 $27 $-1 $78 forward single #
loop $-1 $79 $80 $35 #
cone-surface $-1 -8.5860490448635574 -35.335296250582893 2.3559635978912232 0 0.55919291073839883 -0.82903756765294845 2 0 0 1 I I 0 1 2 forward I I I I #
face $-1 $81 $82 $28 $-1 $83 forward single #
loop $-1 $84 $85 $36 #
cone-surface $-1 6.9244065171384932 -35.335296250582893 2.3559635978912232 0 0.55919291073839883 -0.82903756765294845 2 0 0 1 I I 0 1 2 forward I I I I #
face $-1 $86 $87 $29 $-1 $88 reversed single #
loop $-1 $-1 $89 $37 #
plane-surface $-1 -31.496299591307327 107.31711398667687 151.79550398636249 1 0 0 0 -0.83867057594974714 -0.54463902268945019 forward_v I I I I #
face $-1 $90 $91 $30 $-1 $92 forward single #
loop $-1 $93 $94 $38 #
cone-surface $-1 -24.109734974789234 42.282760013154309 7.5230759722479856 0 -0.83867057594974714 -0.54463902268945019 0.5 0 0 1 I I 0 1 0.5 forward I I I I #
face $-1 $95 $96 $31 $-1 $97 forward single #
loop $-1 $98 $99 $39 #
cone-surface $-1 -13.029888050012097 42.282760013154309 7.5230759722479856 0 -0.83867057594974714 -0.54463902268945019 0.5 0 0 1 I I 0 1 0.5 forward I I I I #
face $-1 $100 $101 $24 $-1 $102 reversed single #
loop $-1 $-1 $103 $40 #
plane-surface $-1 0 0 -9.4168110184739611 0 0 1 1 0 0 forward_v I I I I #
coedge $-1 $104 $105 $106 $107 forward $41 $-1 #
face $-1 $108 $109 $25 $-1 $110 reversed single #
loop $-1 $-1 $111 $43 #
plane-surface $-1 0 43.755054827330724 0 0 -1 0 0 0 -1 forward_v I I I I #
coedge $-1 $112 $113 $114 $115 forward $44 $-1 #
face $-1 $116 $117 $26 $-1 $118 reversed single #
loop $-1 $-1 $119 $46 #
plane-surface $-1 -0.83082126386253208 -43.75505482733071 0.36502993067520606 0 -0.55919291073839883 0.82903756765294845 1 0 0 forward_v I I I I #
coedge $-1 $120 $121 $122 $123 reversed $47 $-1 #
face $-1 $-1 $124 $27 $-1 $125 forward single #
loop $-1 $126 $127 $49 #
cone-surface $-1 -8.5860490448635574 -33.066253304360572 -1.0080308464451022 0 0.55919291073839883 -0.82903756765294845 1 0 0 1 I I -0.70710678118654746 0.70710678118654746 1 forward I I I I #
loop $-1 $-1 $128 $35 #
coedge $-1 $80 $80 $129 $130 reversed $50 $-1 #
face $-1 $-1 $131 $28 $-1 $132 forward single #
loop $-1 $133 $134 $52 #
cone-surface $-1 6.9244065171384932 -33.066253304360572 -1.0080308464451022 0 0.55919291073839883 -0.82903756765294845 1 0 0 1 I I -0.70710678118654746 0.70710678118654746 1 forward I I I I #
loop $-1 $-1 $135 $36 #
coedge $-1 $85 $85 $136 $137 reversed $53 $-1 #
face $-1 $138 $139 $29 $-1 $140 reversed single #
loop $-1 $-1 $141 $55 #
plane-surface $-1 -18.569811512400669 -3.9063657704307246 79.566134014211869 0 0.83867057594974714 0.54463902268945019 1 0 0 forward_v I I I I #
coedge $-1 $142 $143 $144 $145 reversed $56 $-1 #
face $-1 $-1 $146 $30 $-1 $147 forward single #
loop $-1 $148 $149 $58 #
cone-surface $-1 -24.109734974789234 41.653757081191998 7.1145967052308983 0 -0.83867057594974714 -0.54463902268945019 0.25 0 0 1 I I -0.70710678118654746 0.70710678118654746 0.25 forward I I I I #
loop $-1 $-1 $150 $38 #
coedge $-1 $94 $94 $151 $152 reversed $59 $-1 #
face $-1 $-1 $153 $31 $-1 $154 forward single #
loop $-1 $155 $156 $61 #
cone-surface $-1 -13.029888050012097 41.653757081191998 7.1145967052308983 0 -0.83867057594974714 -0.54463902268945019 0.25 0 0 1 I I -0.70710678118654746 0.70710678118654746 0.25 forward I I I I #
loop $-1 $-1 $157 $39 #
coedge $-1 $99 $99 $158 $159 reversed $62 $-1 #
face $-1 $160 $161 $24 $-1 $162 reversed single #
loop $-1 $-1 $163 $64 #
plane-surface $-1 0 -43.755054827330724 0 0 1 0 0 0 1 forward_v I I I I #
coedge $-1 $164 $165 $166 $167 forward $65 $-1 #
coedge $-1 $168 $67 $169 $170 forward $41 $-1 #
coedge $-1 $67 $168 $171 $172 forward $41 $-1 #
coedge $-1 $173 $174 $67 $107 reversed $175 $-1 #
edge $-1 $176 -43.755054827330724 $177 43.755054827330724 $106 $178 forward 7 unknown #
face $-1 $179 $180 $25 $-1 $181 reversed single #
loop $-1 $-1 $114 $68 #
plane-surface $-1 -72.084824242164331 0 6.352403050396692 0 0 1 1 0 0 forward_v I I I I #
coedge $-1 $182 $183 $112 $184 forward $69 $-1 #
coedge $-1 $185 $71 $111 $184 reversed $44 $-1 #
coedge $-1 $71 $185 $186 $187 reversed $44 $-1 #
coedge $-1 $188 $189 $71 $115 reversed $109 $-1 #
edge $-1 $190 -43.755054827330724 $191 43.755054827330724 $114 $192 forward 7 unknown #
face $-1 $193 $194 $26 $-1 $195 reversed single #
loop $-1 $-1 $196 $72 #
plane-surface $-1 -18.926352752864918 -117.91454387032906 110.31099175163044 1 0 0 0 0.55919291073839883 -0.82903756765294845 forward_v I I I I #
coedge $-1 $197 $198 $199 $200 reversed $73 $-1 #
coedge $-1 $121 $75 $201 $202 reversed $47 $-1 #
coedge $-1 $75 $120 $197 $203 reversed $47 $-1 #
coedge $-1 $199 $204 $75 $123 forward $205 $-1 #
edge $-1 $206 15.202217107833803 $207 28.622034190361674 $122 $208 forward 7 unknown #
loop $-1 $-1 $129 $76 #
plane-surface $-1 -0.83082126386253208 -43.75505482733071 0.36502993067520606 0 -0.55919291073839883 0.82903756765294845 1 0 0 forward_v I I I I #
loop $-1 $-1 $209 $49 #
coedge $-1 $127 $127 $128 $210 reversed $77 $-1 #
coedge $-1 $128 $128 $127 $210 forward $79 $-1 #
coedge $-1 $129 $129 $80 $130 forward $124 $-1 #
edge $-1 $211 -1.3860531840132128e-015 $211 6.2831853071795987 $129 $212 forward 7 unknown #
loop $-1 $-1 $136 $81 #
plane-surface $-1 -0.83082126386253208 -43.75505482733071 0.36502993067520606 0 -0.55919291073839883 0.82903756765294845 1 0 0 forward_v I I I I #
loop $-1 $-1 $213 $52 #
coedge $-1 $134 $134 $135 $214 reversed $82 $-1 #
coedge $-1 $135 $135 $134 $214 forward $84 $-1 #
coedge $-1 $136 $136 $85 $137 forward $131 $-1 #
edge $-1 $215 -1.3860531840132128e-015 $215 6.2831853071795987 $136 $216 forward 7 unknown #
face $-1 $217 $218 $29 $-1 $219 forward single #
loop $-1 $-1 $220 $86 #
plane-surface $-1 -5.643323433494011 107.31711398667687 151.79550398636249 -1 0 0 0 0.83867057594974714 0.54463902268945019 forward_v I I I I #
coedge $-1 $221 $222 $223 $224 reversed $87 $-1 #
coedge $-1 $143 $89 $225 $226 reversed $56 $-1 #
coedge $-1 $89 $142 $221 $227 reversed $56 $-1 #
coedge $-1 $223 $228 $89 $145 forward $218 $-1 #
edge $-1 $229 9.903502166007712 $230 12.009421218410829 $144 $231 forward 7 unknown #
loop $-1 $-1 $151 $90 #
plane-surface $-1 -18.569811512400669 -3.9063657704307246 79.566134014211869 0 0.83867057594974714 0.54463902268945019 1 0 0 forward_v I I I I #
loop $-1 $-1 $232 $58 #
coedge $-1 $149 $149 $150 $233 reversed $91 $-1 #
coedge $-1 $150 $150 $149 $233 forward $93 $-1 #
coedge $-1 $151 $151 $94 $152 forward $146 $-1 #
edge $-1 $234 -3.5966497736492964e-015 $234 6.2831853071795969 $151 $235 forward 7 unknown #
loop $-1 $-1 $158 $95 #
plane-surface $-1 -18.569811512400669 -3.9063657704307246 79.566134014211869 0 0.83867057594974714 0.54463902268945019 1 0 0 forward_v I I I I #
loop $-1 $-1 $236 $61 #
coedge $-1 $156 $156 $157 $237 reversed $96 $-1 #
coedge $-1 $157 $157 $156 $237 forward $98 $-1 #
coedge $-1 $158 $158 $99 $159 forward $153 $-1 #
edge $-1 $238 -3.5966497736492964e-015 $238 6.2831853071795969 $158 $239 forward 7 unknown #
face $-1 $240 $241 $24 $-1 $242 reversed single #
loop $-1 $-1 $243 $100 #
plane-surface $-1 -66.309396649067651 0 0 1 0 0 0 0 -1 forward_v I I I I #
coedge $-1 $244 $171 $245 $246 forward $101 $-1 #
coedge $-1 $247 $103 $244 $248 forward $65 $-1 #
coedge $-1 $103 $247 $249 $250 forward $65 $-1 #
coedge $-1 $174 $173 $103 $167 reversed $175 $-1 #
edge $-1 $251 -43.755054827330724 $252 43.755054827330724 $166 $253 forward 7 unknown #
coedge $-1 $105 $104 $254 $255 forward $41 $-1 #
coedge $-1 $256 $257 $104 $170 reversed $241 $-1 #
edge $-1 $177 -66.309396649067651 $258 66.309396649067651 $169 $259 forward 7 unknown #
coedge $-1 $163 $260 $105 $172 reversed $101 $-1 #
edge $-1 $261 -66.309396649067651 $176 66.309396649067651 $171 $262 forward 7 unknown #
coedge $-1 $166 $106 $260 $263 forward $175 $-1 #
coedge $-1 $106 $166 $256 $264 reversed $175 $-1 #
loop $-1 $-1 $173 $240 #
vertex $-1 $107 $265 #
vertex $-1 $107 $266 #
straight-curve $-1 66.309396649067651 0 9.4168110184739611 0 1 0 I I #
face $-1 $267 $268 $25 $-1 $269 forward single #
loop $-1 $-1 $270 $108 #
plane-surface $-1 -77.86025183526101 0 7.8846070344353265 1 0 0 0 0 -1 forward_v I I I I #
coedge $-1 $271 $111 $189 $272 reversed $69 $-1 #
coedge $-1 $111 $271 $273 $274 reversed $69 $-1 #
edge $-1 $275 -9.4168110184739611 $191 -6.352403050396692 $111 $276 forward 7 unknown #
coedge $-1 $113 $112 $277 $278 reversed $44 $-1 #
coedge $-1 $279 $280 $113 $187 forward $281 $-1 #
edge $-1 $190 6.352403050396692 $282 9.4168110184739611 $186 $283 forward 7 unknown #
coedge $-1 $284 $114 $280 $285 forward $109 $-1 #
coedge $-1 $114 $284 $182 $272 forward $109 $-1 #
vertex $-1 $187 $286 #
vertex $-1 $184 $287 #
straight-curve $-1 -66.309396649067651 0 6.352403050396692 0 1 0 I I #
face $-1 $-1 $205 $26 $-1 $288 forward single #
loop $-1 $-1 $289 $116 #
plane-surface $-1 0 -43.755054827330724 0 0 1 0 0 0 1 forward_v I I I I #
coedge $-1 $290 $291 $292 $293 reversed $117 $-1 #
coedge $-1 $294 $119 $121 $203 forward $73 $-1 #
coedge $-1 $119 $294 $290 $295 forward $73 $-1 #
coedge $-1 $292 $122 $119 $200 forward $205 $-1 #
edge $-1 $207 -17.68012085707112 $296 18.510942120933652 $199 $297 forward 7 unknown #
coedge $-1 $298 $299 $120 $202 forward $194 $-1 #
edge $-1 $300 -54.790465945140021 $206 -45.738684857341255 $201 $301 forward 7 unknown #
edge $-1 $207 -16.187224326299358 $300 1.715150193409275e-014 $121 $302 forward 7 unknown #
coedge $-1 $122 $292 $298 $303 forward $205 $-1 #
loop $-1 $-1 $292 $193 #
vertex $-1 $202 $304 #
vertex $-1 $123 $305 #
straight-curve $-1 17.264710225139854 -58.957271935164528 9.4168110184739646 0 1 0 I I #
coedge $-1 $209 $209 $-1 $306 reversed $126 $-1 #
edge $-1 $307 0 $307 6.2831853071796004 $127 $308 forward 7 unknown #
vertex $-1 $130 $309 #
ellipse-curve $-1 -8.5860490448635574 -37.045146286066796 4.8909204745745738 0 -0.55919291073839883 0.82903756765294845 2 0 0 1 I I #
coedge $-1 $213 $213 $-1 $310 reversed $133 $-1 #
edge $-1 $311 0 $311 6.2831853071796004 $134 $312 forward 7 unknown #
vertex $-1 $137 $313 #
ellipse-curve $-1 6.9244065171384932 -37.045146286066796 4.8909204745745738 0 -0.55919291073839883 0.82903756765294845 2 0 0 1 I I #
face $-1 $-1 $314 $29 $-1 $315 reversed single #
loop $-1 $-1 $144 $138 #
plane-surface $-1 0 0 9.4168110184739611 0 0 1 1 0 0 forward_v I I I I #
coedge $-1 $316 $317 $318 $319 reversed $139 $-1 #
coedge $-1 $320 $141 $143 $227 forward $87 $-1 #
coedge $-1 $141 $320 $316 $321 forward $87 $-1 #
coedge $-1 $318 $144 $141 $224 forward $218 $-1 #
edge $-1 $230 -22.211393835106993 $322 3.6415823227063235 $223 $323 forward 7 unknown #
coedge $-1 $324 $325 $142 $226 forward $314 $-1 #
edge $-1 $326 -69.72377204446984 $229 -66.480940974707281 $225 $327 forward 7 unknown #
edge $-1 $230 83.64347695911205 $326 87.510109654661477 $143 $328 forward 7 unknown #
coedge $-1 $144 $318 $324 $329 forward $218 $-1 #
vertex $-1 $226 $330 #
vertex $-1 $145 $331 #
straight-curve $-1 -31.496299591307327 53.658556993338436 9.4168110184739646 0 -1 0 I I #
coedge $-1 $232 $232 $-1 $332 reversed $148 $-1 #
edge $-1 $333 0 $333 6.2831853071796004 $149 $334 forward 7 unknown #
vertex $-1 $152 $335 #
ellipse-curve $-1 -24.109734974789234 42.702095301129162 7.7953954835926949 0 0.83867057594974714 0.54463902268945019 0.5 0 0 1 I I #
coedge $-1 $236 $236 $-1 $336 reversed $155 $-1 #
edge $-1 $337 0 $337 6.2831853071796004 $156 $338 forward 7 unknown #
vertex $-1 $159 $339 #
ellipse-curve $-1 -13.029888050012097 42.702095301129162 7.7953954835926949 0 0.83867057594974714 0.54463902268945019 0.5 0 0 1 I I #
face $-1 $-1 $175 $24 $-1 $340 reversed single #
loop $-1 $-1 $256 $160 #
plane-surface $-1 0 43.755054827330724 0 0 -1 0 0 0 -1 forward_v I I I I #
coedge $-1 $341 $254 $257 $342 forward $161 $-1 #
coedge $-1 $260 $163 $164 $248 reversed $101 $-1 #
coedge $-1 $254 $341 $163 $246 reversed $161 $-1 #
edge $-1 $261 -9.4168110184739611 $343 9.4168110184739611 $245 $344 forward 7 unknown #
coedge $-1 $165 $164 $341 $345 forward $65 $-1 #
edge $-1 $252 -66.309396649067651 $343 66.309396649067651 $244 $346 forward 7 unknown #
coedge $-1 $257 $256 $165 $250 reversed $241 $-1 #
edge $-1 $347 -66.309396649067651 $251 66.309396649067651 $249 $348 forward 7 unknown #
vertex $-1 $167 $349 #
vertex $-1 $263 $350 #
straight-curve $-1 66.309396649067651 0 -9.4168110184739611 0 -1 0 I I #
coedge $-1 $243 $245 $168 $255 reversed $161 $-1 #
edge $-1 $258 -43.755054827330724 $261 43.755054827330724 $254 $351 forward 7 unknown #
coedge $-1 $249 $169 $174 $264 forward $241 $-1 #
coedge $-1 $169 $249 $243 $342 reversed $241 $-1 #
vertex $-1 $170 $352 #
straight-curve $-1 0 43.755054827330724 9.4168110184739611 -1 0 0 I I #
coedge $-1 $171 $244 $173 $263 reversed $101 $-1 #
vertex $-1 $255 $353 #
straight-curve $-1 0 -43.755054827330724 9.4168110184739611 1 0 0 I I #
edge $-1 $176 -9.4168110184739611 $252 9.4168110184739611 $173 $354 forward 7 unknown #
edge $-1 $177 -9.4168110184739611 $251 9.4168110184739611 $174 $355 forward 7 unknown #
point $-1 66.309396649067651 -43.755054827330724 9.4168110184739611 #
point $-1 66.309396649067651 43.755054827330724 9.4168110184739611 #
face $-1 $-1 $281 $25 $-1 $356 reversed single #
loop $-1 $-1 $277 $179 #
plane-surface $-1 0 0 9.4168110184739611 0 0 1 1 0 0 forward_v I I I I #
coedge $-1 $357 $358 $271 $359 forward $180 $-1 #
coedge $-1 $183 $182 $270 $359 reversed $69 $-1 #
edge $-1 $360 -5.7754275930966799 $191 5.7754275930966799 $182 $361 forward 7 unknown #
coedge $-1 $362 $277 $183 $274 forward $268 $-1 #
edge $-1 $275 66.309396649067651 $363 77.86025183526101 $183 $364 forward 7 unknown #
vertex $-1 $274 $365 #
straight-curve $-1 -66.309396649067651 43.755054827330724 0 0 0 -1 I I #
coedge $-1 $273 $366 $185 $278 forward $268 $-1 #
edge $-1 $282 -43.755054827330724 $275 43.755054827330724 $277 $367 forward 7 unknown #
coedge $-1 $368 $186 $366 $369 reversed $281 $-1 #
coedge $-1 $186 $368 $188 $285 reversed $281 $-1 #
loop $-1 $-1 $186 $267 #
vertex $-1 $187 $370 #
straight-curve $-1 -66.309396649067651 -43.755054827330724 0 0 0 1 I I #
coedge $-1 $189 $188 $357 $371 forward $109 $-1 #
edge $-1 $190 -5.7754275930966799 $372 5.7754275930966799 $280 $373 forward 7 unknown #
point $-1 -66.309396649067651 -43.755054827330724 6.352403050396692 #
point $-1 -66.309396649067651 43.755054827330724 6.352403050396692 #
plane-surface $-1 0 0 9.4168110184739611 0 0 1 1 0 0 forward_v I I I I #
coedge $-1 $299 $298 $291 $374 forward $194 $-1 #
coedge $-1 $291 $196 $198 $295 reversed $117 $-1 #
coedge $-1 $196 $290 $289 $374 reversed $117 $-1 #
coedge $-1 $204 $199 $196 $293 forward $205 $-1 #
edge $-1 $296 -28.622034190361674 $375 -15.202217107833803 $292 $376 forward 7 unknown #
coedge $-1 $198 $197 $299 $377 reversed $73 $-1 #
edge $-1 $378 -1.715150193409275e-014 $296 16.187224326299358 $290 $379 forward 7 unknown #
vertex $-1 $200 $380 #
straight-curve $-1 -0.41541063193126604 -30.335237744802853 9.4168110184739611 -1 0 0 I I #
coedge $-1 $289 $201 $204 $303 reversed $194 $-1 #
coedge $-1 $201 $289 $294 $377 forward $194 $-1 #
vertex $-1 $202 $381 #
straight-curve $-1 17.264710225139854 -43.755054827330724 55.15549587581522 0 0 1 I I #
straight-curve $-1 17.264710225139854 -43.75505482733071 0.36502993067520606 0 -0.82903756765294845 -0.55919291073839883 I I #
edge $-1 $375 -18.926352752864918 $206 17.264710225139854 $298 $382 forward 7 unknown #
point $-1 17.264710225139854 -43.755054827330724 9.4168110184739611 #
point $-1 17.264710225139854 -30.335237744802853 9.4168110184739611 #
edge $-1 $383 1 $383 0 $209 $-1 forward 7 unknown #
vertex $-1 $210 $384 #
ellipse-curve $-1 -8.5860490448635574 -33.625446215098968 -0.17899327879215376 0 -0.55919291073839883 0.82903756765294845 2 0 0 1 I I #
point $-1 -6.5860490448635574 -37.045146286066817 4.8909204745746004 #
edge $-1 $385 1 $385 0 $213 $-1 forward 7 unknown #
vertex $-1 $214 $386 #
ellipse-curve $-1 6.9244065171384932 -33.625446215098968 -0.17899327879215376 0 -0.55919291073839883 0.82903756765294845 2 0 0 1 I I #
point $-1 8.9244065171384932 -37.045146286066817 4.8909204745746004 #
loop $-1 $-1 $225 $217 #
plane-surface $-1 0 43.755054827330724 0 0 -1 0 0 0 -1 forward_v I I I I #
coedge $-1 $317 $220 $222 $321 reversed $139 $-1 #
coedge $-1 $220 $316 $387 $388 reversed $139 $-1 #
coedge $-1 $228 $223 $220 $319 forward $218 $-1 #
edge $-1 $322 -12.009421218410829 $389 -9.903502166007712 $318 $390 forward 7 unknown #
coedge $-1 $222 $221 $325 $391 reversed $87 $-1 #
edge $-1 $392 -87.510109654661477 $322 -83.64347695911205 $316 $393 forward 7 unknown #
vertex $-1 $224 $394 #
straight-curve $-1 -9.2849057562003345 41.649135774927601 9.4168110184739717 1 0 0 I I #
coedge $-1 $387 $225 $228 $329 reversed $314 $-1 #
coedge $-1 $225 $387 $320 $391 forward $314 $-1 #
vertex $-1 $226 $395 #
straight-curve $-1 -31.496299591307327 43.755054827330724 75.897751993181245 0 0 1 I I #
straight-curve $-1 -31.496299591307327 -3.9063657704307246 79.566134014211869 0 0.54463902268945019 -0.83867057594974714 I I #
edge $-1 $389 5.643323433494011 $229 31.496299591307327 $324 $396 forward 7 unknown #
point $-1 -31.496299591307327 43.755054827330724 9.4168110184739611 #
point $-1 -31.496299591307327 41.649135774927608 9.4168110184739646 #
edge $-1 $397 1 $397 0 $232 $-1 forward 7 unknown #
vertex $-1 $233 $398 #
ellipse-curve $-1 -24.109734974789234 41.863424725179435 7.2507564609032604 0 0.83867057594974714 0.54463902268945019 0.5 0 0 1 I I #
point $-1 -23.609734974789234 42.702095301129184 7.7953954835927108 #
edge $-1 $399 1 $399 0 $236 $-1 forward 7 unknown #
vertex $-1 $237 $400 #
ellipse-curve $-1 -13.029888050012097 41.863424725179435 7.2507564609032604 0 0.83867057594974714 0.54463902268945019 0.5 0 0 1 I I #
point $-1 -12.529888050012097 42.702095301129184 7.7953954835927108 #
plane-surface $-1 66.309396649067651 0 0 -1 0 0 0 0 1 forward_v I I I I #
coedge $-1 $245 $243 $247 $345 reversed $161 $-1 #
edge $-1 $258 -9.4168110184739611 $347 9.4168110184739611 $257 $401 forward 7 unknown #
vertex $-1 $345 $402 #
straight-curve $-1 -66.309396649067651 -43.755054827330724 0 0 0 -1 I I #
edge $-1 $343 -43.755054827330724 $347 43.755054827330724 $341 $403 forward 7 unknown #
straight-curve $-1 0 -43.755054827330724 -9.4168110184739611 -1 0 0 I I #
vertex $-1 $250 $404 #
straight-curve $-1 0 43.755054827330724 -9.4168110184739611 1 0 0 I I #
point $-1 66.309396649067651 43.755054827330724 -9.4168110184739611 #
point $-1 66.309396649067651 -43.755054827330724 -9.4168110184739611 #
straight-curve $-1 -66.309396649067651 0 9.4168110184739611 0 -1 0 I I #
point $-1 -66.309396649067651 43.755054827330724 9.4168110184739611 #
point $-1 -66.309396649067651 -43.755054827330724 9.4168110184739611 #
straight-curve $-1 66.309396649067651 -43.755054827330724 0 0 0 -1 I I #
straight-curve $-1 66.309396649067651 43.755054827330724 0 0 0 -1 I I #
plane-surface $-1 0 -43.755054827330724 0 0 1 0 0 0 1 forward_v I I I I #
coedge $-1 $405 $270 $284 $371 reversed $180 $-1 #
coedge $-1 $270 $405 $362 $406 reversed $180 $-1 #
edge $-1 $363 -1.5322039840386346 $360 1.5322039840386346 $271 $407 forward 7 unknown #
vertex $-1 $272 $408 #
straight-curve $-1 -72.084824242164331 43.755054827330724 6.352403050396692 1 0 0 I I #
coedge $-1 $366 $273 $358 $406 forward $268 $-1 #
vertex $-1 $274 $409 #
straight-curve $-1 0 43.755054827330724 9.4168110184739611 -1 0 0 I I #
point $-1 -66.309396649067651 43.755054827330724 9.4168110184739611 #
coedge $-1 $277 $362 $279 $369 forward $268 $-1 #
straight-curve $-1 -66.309396649067651 0 9.4168110184739611 0 1 0 I I #
coedge $-1 $280 $279 $405 $410 forward $281 $-1 #
edge $-1 $411 -77.86025183526101 $282 -66.309396649067651 $279 $412 forward 7 unknown #
point $-1 -66.309396649067651 -43.755054827330724 9.4168110184739611 #
edge $-1 $372 -43.755054827330724 $360 43.755054827330724 $357 $413 forward 7 unknown #
vertex $-1 $371 $414 #
straight-curve $-1 -72.084824242164331 -43.755054827330724 6.352403050396692 -1 0 0 I I #
edge $-1 $375 45.738684857341255 $378 54.790465945140021 $289 $415 forward 7 unknown #
vertex $-1 $303 $416 #
straight-curve $-1 -18.926352752864918 -58.957271935164528 9.4168110184739646 0 -1 0 I I #
edge $-1 $378 -18.510942120933652 $300 17.68012085707112 $299 $417 forward 7 unknown #
vertex $-1 $377 $418 #
straight-curve $-1 -18.926352752864918 -43.75505482733071 0.36502993067520606 0 0.82903756765294845 0.55919291073839883 I I #
point $-1 -18.926352752864918 -30.335237744802853 9.4168110184739611 #
point $-1 17.264710225139854 -43.755054827330724 0.36502993067519646 #
straight-curve $-1 0 -43.755054827330724 9.4168110184739611 1 0 0 I I #
vertex $-1 $306 $419 #
point $-1 -6.5860490448635574 -33.625446215098968 -0.17899327879215376 #
vertex $-1 $310 $420 #
point $-1 8.9244065171384932 -33.625446215098968 -0.17899327879215376 #
coedge $-1 $325 $324 $317 $388 forward $314 $-1 #
edge $-1 $389 66.480940974707281 $392 69.72377204446984 $387 $421 forward 7 unknown #
vertex $-1 $329 $422 #
straight-curve $-1 -5.643323433494011 53.658556993338436 9.4168110184739646 0 1 0 I I #
edge $-1 $392 -3.6415823227063235 $326 22.211393835106993 $325 $423 forward 7 unknown #
vertex $-1 $391 $424 #
straight-curve $-1 -5.643323433494011 -3.9063657704307246 79.566134014211869 0 -0.54463902268945019 0.83867057594974714 I I #
point $-1 -5.643323433494011 41.649135774927608 9.4168110184739646 #
point $-1 -31.496299591307327 43.755054827330724 6.1739799487114055 #
straight-curve $-1 0 43.755054827330724 9.4168110184739611 -1 0 0 I I #
vertex $-1 $332 $425 #
point $-1 -23.609734974789234 41.863424725179435 7.2507564609032604 #
vertex $-1 $336 $426 #
point $-1 -12.529888050012097 41.863424725179435 7.2507564609032604 #
straight-curve $-1 -66.309396649067651 43.755054827330724 0 0 0 -1 I I #
point $-1 -66.309396649067651 -43.755054827330724 -9.4168110184739611 #
straight-curve $-1 -66.309396649067651 0 -9.4168110184739611 0 1 0 I I #
point $-1 -66.309396649067651 43.755054827330724 -9.4168110184739611 #
coedge $-1 $358 $357 $368 $410 reversed $180 $-1 #
edge $-1 $363 -43.755054827330724 $411 43.755054827330724 $358 $427 forward 7 unknown #
straight-curve $-1 -77.86025183526101 43.755054827330724 7.8846070344353265 0 0 -1 I I #
point $-1 -77.86025183526101 43.755054827330724 6.352403050396692 #
point $-1 -77.86025183526101 43.755054827330724 9.4168110184739611 #
edge $-1 $411 -1.5322039840386346 $372 1.5322039840386346 $405 $428 forward 7 unknown #
vertex $-1 $406 $429 #
straight-curve $-1 0 -43.755054827330724 9.4168110184739611 1 0 0 I I #
straight-curve $-1 -77.86025183526101 0 6.352403050396692 0 1 0 I I #
point $-1 -77.86025183526101 -43.755054827330724 6.352403050396692 #
straight-curve $-1 -18.926352752864918 -43.755054827330724 55.15549587581522 0 0 -1 I I #
point $-1 -18.926352752864918 -43.755054827330724 9.4168110184739611 #
straight-curve $-1 -0.41541063193126604 -43.755054827330724 0.36502993067519501 1 0 0 I I #
point $-1 -18.926352752864918 -43.755054827330724 0.36502993067519646 #
point $-1 -8.5860490448635574 -32.507060393622176 -1.8370684140980507 #
point $-1 6.9244065171384932 -32.507060393622176 -1.8370684140980507 #
straight-curve $-1 -5.643323433494011 43.755054827330724 75.897751993181245 0 0 -1 I I #
point $-1 -5.643323433494011 43.755054827330724 9.4168110184739611 #
straight-curve $-1 -9.2849057562003345 43.755054827330724 6.1739799487113984 -1 0 0 I I #
point $-1 -5.643323433494011 43.755054827330724 6.1739799487114055 #
point $-1 -24.109734974789234 41.444089437204561 6.9784369495585361 #
point $-1 -13.029888050012097 41.444089437204561 6.9784369495585361 #
straight-curve $-1 -77.86025183526101 0 9.4168110184739611 0 -1 0 I I #
straight-curve $-1 -77.86025183526101 -43.755054827330724 7.8846070344353265 0 0 -1 I I #
point $-1 -77.86025183526101 -43.755054827330724 9.4168110184739611 #
End-of-ACIS-data 