500 0 8 0           
7 Unknown 11 ACIS 5.0 NT 24 Fri Mar 26 17:47:41 1999 
-1 9.9999999999999995e-007 1e-010 
body $-1 $8 $-1 $9 #
body $-1 $10 $-1 $11 #
body $-1 $12 $-1 $13 #
body $-1 $14 $-1 $15 #
body $-1 $16 $-1 $17 #
body $-1 $18 $-1 $19 #
body $-1 $20 $-1 $21 #
body $-1 $22 $-1 $23 #
lump $-1 $-1 $24 $0 #
transform $-1 1 0 0 0 1 0 0 0 1 70.777306436353655 46.856188234217406 16.719910132443118 1 rotate no_reflect no_shear #
lump $-1 $-1 $25 $1 #
transform $-1 1 0 0 0 1 0 0 0 1 70.777306436353655 46.856188234217406 16.719910132443118 1 rotate no_reflect no_shear #
lump $-1 $-1 $26 $2 #
transform $-1 1 0 0 0 1 0 0 0 1 70.777306436353655 46.856188234217406 16.719910132443118 1 rotate no_reflect no_shear #
lump $-1 $-1 $27 $3 #
transform $-1 1 0 0 0 1 0 0 0 1 70.777306436353655 46.856188234217406 16.719910132443118 1 rotate no_reflect no_shear #
lump $-1 $-1 $28 $4 #
transform $-1 1 0 0 0 1 0 0 0 1 70.777306436353655 46.856188234217406 16.719910132443118 1 rotate no_reflect no_shear #
lump $-1 $-1 $29 $5 #
transform $-1 1 0 0 0 1 0 0 0 1 70.777306436353655 46.856188234217406 16.719910132443118 1 rotate no_reflect no_shear #
lump $-1 $-1 $30 $6 #
transform $-1 1 0 0 0 1 0 0 0 1 70.777306436353655 46.856188234217406 16.719910132443118 1 rotate no_reflect no_shear #
lump $-1 $-1 $31 $7 #
transform $-1 1 0 0 0 1 0 0 0 1 70.777306436353655 46.856188234217406 16.719910132443118 1 rotate no_reflect no_shear #
shell $-1 $-1 $-1 $32 $-1 $8 #
shell $-1 $-1 $-1 $33 $-1 $10 #
shell $-1 $-1 $-1 $34 $-1 $12 #
shell $-1 $-1 $-1 $35 $-1 $14 #
shell $-1 $-1 $-1 $36 $-1 $16 #
shell $-1 $-1 $-1 $37 $-1 $18 #
shell $-1 $-1 $-1 $38 $-1 $20 #
shell $-1 $-1 $-1 $39 $-1 $22 #
face $-1 $40 $41 $24 $-1 $42 forward single #
face $-1 $43 $44 $25 $-1 $45 forward single #
face $-1 $46 $47 $26 $-1 $48 reversed single #
face $-1 $49 $50 $27 $-1 $51 forward single #
face $-1 $52 $53 $28 $-1 $54 forward single #
face $-1 $55 $56 $29 $-1 $57 reversed single #
face $-1 $58 $59 $30 $-1 $60 forward single #
face $-1 $61 $62 $31 $-1 $63 forward single #
face $-1 $64 $65 $24 $-1 $66 reversed single #
loop $-1 $-1 $67 $32 #
plane-surface $-1 0 0 16.719910132443118 0 0 1 1 0 0 forward_v I I I I #
face $-1 $68 $69 $25 $-1 $70 reversed single #
loop $-1 $-1 $71 $33 #
plane-surface $-1 -70.777306436353655 0 0 1 0 0 0 0 -1 forward_v I I I I #
face $-1 $72 $73 $26 $-1 $74 reversed single #
loop $-1 $-1 $75 $34 #
plane-surface $-1 57.656688115764098 -46.856188234217399 2.4565786537383332 0 -0.80901700255871778 0.5877852410284794 1 0 0 forward_v I I I I #
face $-1 $76 $77 $27 $-1 $78 forward single #
loop $-1 $79 $80 $35 #
cone-surface $-1 52.033565978368571 -38.738200916322647 7.4547312418421097 0 0.80901700255871778 -0.5877852410284794 2 0 0 1 I I 0 1 2 forward I I I I #
face $-1 $81 $82 $28 $-1 $83 forward single #
loop $-1 $84 $85 $36 #
cone-surface $-1 63.279810253159638 -38.738200916322647 7.4547312418421097 0 0.80901700255871778 -0.5877852410284794 2 0 0 1 I I 0 1 2 forward I I I I #
face $-1 $86 $87 $29 $-1 $88 reversed single #
loop $-1 $-1 $89 $37 #
plane-surface $-1 -45.337944012808414 71.932846341130954 173.79894445294823 1 0 0 0 -0.66913061440640931 -0.74314481823134659 forward_v I I I I #
face $-1 $90 $91 $30 $-1 $92 forward single #
loop $-1 $93 $94 $38 #
cone-surface $-1 -39.747836977983972 39.997949962459394 10.36636001568888 0 -0.66913061440640931 -0.74314481823134659 2.5 0 0 1 I I 0 1 2.5 forward I I I I #
face $-1 $95 $96 $31 $-1 $97 forward single #
loop $-1 $98 $99 $39 #
cone-surface $-1 -31.36267642574731 39.997949962459394 10.36636001568888 0 -0.66913061440640931 -0.74314481823134659 2.5 0 0 1 I I 0 1 2.5 forward I I I I #
face $-1 $100 $101 $24 $-1 $102 reversed single #
loop $-1 $-1 $103 $40 #
plane-surface $-1 0 0 -16.719910132443118 0 0 1 1 0 0 forward_v I I I I #
coedge $-1 $104 $105 $106 $107 forward $41 $-1 #
face $-1 $108 $109 $25 $-1 $110 forward single #
loop $-1 $-1 $111 $43 #
plane-surface $-1 0 46.856188234217406 0 0 -1 0 0 0 -1 forward_v I I I I #
coedge $-1 $112 $113 $114 $115 forward $44 $-1 #
face $-1 $116 $117 $26 $-1 $118 reversed single #
loop $-1 $-1 $119 $46 #
plane-surface $-1 44.536069795174519 -161.37627683885475 85.660290899815692 1 0 0 0 0.80901700255871778 -0.5877852410284794 forward_v I I I I #
coedge $-1 $120 $121 $122 $123 reversed $47 $-1 #
face $-1 $-1 $124 $27 $-1 $125 forward single #
loop $-1 $126 $127 $49 #
cone-surface $-1 52.033565978368571 -34.992654899318794 4.7334328495650198 0 0.80901700255871778 -0.5877852410284794 1 0 0 1 I I -0.70710678118654746 0.70710678118654746 1 forward I I I I #
loop $-1 $-1 $128 $35 #
coedge $-1 $80 $80 $129 $130 reversed $50 $-1 #
face $-1 $-1 $131 $28 $-1 $132 forward single #
loop $-1 $133 $134 $52 #
cone-surface $-1 63.279810253159638 -34.992654899318794 4.7334328495650198 0 0.80901700255871778 -0.5877852410284794 1 0 0 1 I I -0.70710678118654746 0.70710678118654746 1 forward I I I I #
loop $-1 $-1 $135 $36 #
coedge $-1 $85 $85 $136 $137 reversed $53 $-1 #
face $-1 $138 $139 $29 $-1 $140 reversed single #
loop $-1 $-1 $141 $55 #
plane-surface $-1 -35.555256701865638 -22.7856787424451 68.603367399851521 0 0.66913061440640931 0.74314481823134659 1 0 0 forward_v I I I I #
coedge $-1 $142 $143 $144 $145 reversed $56 $-1 #
face $-1 $-1 $146 $30 $-1 $147 forward single #
loop $-1 $148 $149 $58 #
cone-surface $-1 -39.747836977983972 38.313024061562977 8.4950602643455042 0 -0.66913061440640931 -0.74314481823134659 1.25 0 0 1 I I -0.70710678118654746 0.70710678118654746 1.25 forward I I I I #
loop $-1 $-1 $150 $38 #
coedge $-1 $94 $94 $151 $152 reversed $59 $-1 #
face $-1 $-1 $153 $31 $-1 $154 forward single #
loop $-1 $155 $156 $61 #
cone-surface $-1 -31.36267642574731 38.313024061562977 8.4950602643455042 0 -0.66913061440640931 -0.74314481823134659 1.25 0 0 1 I I -0.70710678118654746 0.70710678118654746 1.25 forward I I I I #
loop $-1 $-1 $157 $39 #
coedge $-1 $99 $99 $158 $159 reversed $62 $-1 #
face $-1 $160 $161 $24 $-1 $162 reversed single #
loop $-1 $-1 $163 $64 #
plane-surface $-1 0 -46.856188234217406 0 0 1 0 0 0 1 forward_v I I I I #
coedge $-1 $164 $165 $166 $167 forward $65 $-1 #
coedge $-1 $168 $67 $169 $170 forward $41 $-1 #
coedge $-1 $67 $168 $171 $172 forward $41 $-1 #
coedge $-1 $173 $174 $67 $107 reversed $175 $-1 #
edge $-1 $176 -46.856188234217406 $177 46.856188234217406 $106 $178 forward 7 unknown #
face $-1 $179 $180 $25 $-1 $181 reversed single #
loop $-1 $-1 $114 $68 #
plane-surface $-1 -76.99671805916897 0 -12.903217001895676 0 0 1 1 0 0 forward_v I I I I #
coedge $-1 $182 $183 $113 $184 forward $69 $-1 #
coedge $-1 $185 $71 $186 $187 reversed $44 $-1 #
coedge $-1 $71 $185 $111 $184 reversed $44 $-1 #
coedge $-1 $188 $189 $71 $115 reversed $109 $-1 #
edge $-1 $190 -46.856188234217406 $191 46.856188234217406 $114 $192 forward 7 unknown #
face $-1 $193 $194 $26 $-1 $195 forward single #
loop $-1 $-1 $196 $72 #
plane-surface $-1 0 -46.856188234217406 0 0 1 0 0 0 1 forward_v I I I I #
coedge $-1 $197 $198 $199 $200 reversed $73 $-1 #
coedge $-1 $201 $75 $202 $203 reversed $47 $-1 #
coedge $-1 $75 $201 $197 $204 forward $47 $-1 #
coedge $-1 $199 $205 $75 $123 forward $194 $-1 #
edge $-1 $206 -41.948962378471634 $207 -15.707725737292471 $122 $208 forward 7 unknown #
loop $-1 $-1 $129 $76 #
plane-surface $-1 57.656688115764098 -46.856188234217399 2.4565786537383332 0 -0.80901700255871778 0.5877852410284794 1 0 0 forward_v I I I I #
loop $-1 $-1 $209 $49 #
coedge $-1 $127 $127 $128 $210 reversed $77 $-1 #
coedge $-1 $128 $128 $127 $210 forward $79 $-1 #
coedge $-1 $129 $129 $80 $130 forward $124 $-1 #
edge $-1 $211 7.1855144284313413e-016 $211 6.2831853071796013 $129 $212 forward 7 unknown #
loop $-1 $-1 $136 $81 #
plane-surface $-1 57.656688115764098 -46.856188234217399 2.4565786537383332 0 -0.80901700255871778 0.5877852410284794 1 0 0 forward_v I I I I #
loop $-1 $-1 $213 $52 #
coedge $-1 $134 $134 $135 $214 reversed $82 $-1 #
coedge $-1 $135 $135 $134 $214 forward $84 $-1 #
coedge $-1 $136 $136 $85 $137 forward $131 $-1 #
edge $-1 $215 7.1855144284313413e-016 $215 6.2831853071796013 $136 $216 forward 7 unknown #
face $-1 $217 $218 $29 $-1 $219 forward single #
loop $-1 $-1 $220 $86 #
plane-surface $-1 -25.772569390922861 71.932846341130954 173.79894445294823 -1 0 0 0 0.66913061440640931 0.74314481823134659 forward_v I I I I #
coedge $-1 $221 $222 $223 $224 reversed $87 $-1 #
coedge $-1 $143 $89 $225 $226 reversed $56 $-1 #
coedge $-1 $89 $142 $221 $227 reversed $56 $-1 #
coedge $-1 $223 $228 $89 $145 forward $218 $-1 #
edge $-1 $229 -10.889765063651929 $230 1.1296862140873074 $144 $231 forward 7 unknown #
loop $-1 $-1 $151 $90 #
plane-surface $-1 -35.555256701865638 -22.7856787424451 68.603367399851521 0 0.66913061440640931 0.74314481823134659 1 0 0 forward_v I I I I #
loop $-1 $-1 $232 $58 #
coedge $-1 $149 $149 $150 $233 reversed $91 $-1 #
coedge $-1 $150 $150 $149 $233 forward $93 $-1 #
coedge $-1 $151 $151 $94 $152 forward $146 $-1 #
edge $-1 $234 -7.4053077519882715e-016 $234 6.2831853071795996 $151 $235 forward 7 unknown #
loop $-1 $-1 $158 $95 #
plane-surface $-1 -35.555256701865638 -22.7856787424451 68.603367399851521 0 0.66913061440640931 0.74314481823134659 1 0 0 forward_v I I I I #
loop $-1 $-1 $236 $61 #
coedge $-1 $156 $156 $157 $237 reversed $96 $-1 #
coedge $-1 $157 $157 $156 $237 forward $98 $-1 #
coedge $-1 $158 $158 $99 $159 forward $153 $-1 #
edge $-1 $238 -7.4053077519882715e-016 $238 6.2831853071795996 $158 $239 forward 7 unknown #
face $-1 $240 $241 $24 $-1 $242 reversed single #
loop $-1 $-1 $243 $100 #
plane-surface $-1 -70.777306436353655 0 0 1 0 0 0 0 -1 forward_v I I I I #
coedge $-1 $244 $171 $245 $246 forward $101 $-1 #
coedge $-1 $247 $103 $244 $248 forward $65 $-1 #
coedge $-1 $103 $247 $249 $250 forward $65 $-1 #
coedge $-1 $174 $173 $103 $167 reversed $175 $-1 #
edge $-1 $251 -46.856188234217406 $252 46.856188234217406 $166 $253 forward 7 unknown #
coedge $-1 $105 $104 $254 $255 forward $41 $-1 #
coedge $-1 $256 $257 $104 $170 reversed $241 $-1 #
edge $-1 $177 -70.777306436353655 $258 70.777306436353655 $169 $259 forward 7 unknown #
coedge $-1 $163 $260 $105 $172 reversed $101 $-1 #
edge $-1 $261 -70.777306436353655 $176 70.777306436353655 $171 $262 forward 7 unknown #
coedge $-1 $166 $106 $260 $263 forward $175 $-1 #
coedge $-1 $106 $166 $256 $264 reversed $175 $-1 #
loop $-1 $-1 $173 $240 #
vertex $-1 $107 $265 #
vertex $-1 $107 $266 #
straight-curve $-1 70.777306436353655 0 16.719910132443118 0 1 0 I I #
face $-1 $267 $268 $25 $-1 $269 reversed single #
loop $-1 $-1 $270 $108 #
plane-surface $-1 -83.216129681984285 0 -14.811563567169397 1 0 0 0 0 -1 forward_v I I I I #
coedge $-1 $271 $111 $272 $273 reversed $69 $-1 #
coedge $-1 $111 $271 $188 $274 reversed $69 $-1 #
edge $-1 $190 12.903217001895676 $275 16.719910132443118 $111 $276 forward 7 unknown #
coedge $-1 $113 $112 $277 $278 reversed $44 $-1 #
coedge $-1 $279 $280 $112 $187 forward $281 $-1 #
edge $-1 $282 -16.719910132443118 $191 -12.903217001895676 $186 $283 forward 7 unknown #
coedge $-1 $284 $114 $183 $274 forward $109 $-1 #
coedge $-1 $114 $284 $279 $285 forward $109 $-1 #
vertex $-1 $184 $286 #
vertex $-1 $285 $287 #
straight-curve $-1 -70.777306436353655 0 -12.903217001895676 0 -1 0 I I #
face $-1 $-1 $288 $26 $-1 $289 reversed single #
loop $-1 $-1 $199 $116 #
plane-surface $-1 0 0 16.719910132443118 0 0 1 1 0 0 forward_v I I I I #
coedge $-1 $290 $291 $198 $292 forward $117 $-1 #
coedge $-1 $198 $119 $121 $204 reversed $73 $-1 #
coedge $-1 $119 $197 $196 $292 reversed $73 $-1 #
coedge $-1 $293 $122 $119 $200 forward $194 $-1 #
edge $-1 $207 -44.194866792109224 $294 -33.831950185209969 $199 $295 forward 7 unknown #
coedge $-1 $121 $120 $290 $296 reversed $47 $-1 #
coedge $-1 $297 $298 $120 $203 forward $288 $-1 #
edge $-1 $299 -12.776980997964094 $206 4.853466116983375 $202 $300 forward 7 unknown #
edge $-1 $301 -1.2080531203272332e-014 $207 17.630447114947454 $197 $302 forward 7 unknown #
coedge $-1 $122 $293 $297 $303 forward $194 $-1 #
vertex $-1 $203 $304 #
vertex $-1 $123 $305 #
straight-curve $-1 28.828344057882049 -36.493271627318151 16.719910132443118 -1 0 0 I I #
coedge $-1 $209 $209 $-1 $306 reversed $126 $-1 #
edge $-1 $307 0 $307 6.2831853071796004 $127 $308 forward 7 unknown #
vertex $-1 $130 $309 #
ellipse-curve $-1 52.033565978368571 -41.674729930767775 9.5882443930907186 0 -0.80901700255871778 0.5877852410284794 2 0 0 1 I I #
coedge $-1 $213 $213 $-1 $310 reversed $133 $-1 #
edge $-1 $311 0 $311 6.2831853071796004 $134 $312 forward 7 unknown #
vertex $-1 $137 $313 #
ellipse-curve $-1 63.279810253159638 -41.674729930767775 9.5882443930907186 0 -0.80901700255871778 0.5877852410284794 2 0 0 1 I I #
face $-1 $-1 $314 $29 $-1 $315 reversed single #
loop $-1 $-1 $144 $138 #
plane-surface $-1 0 0 16.719910132443118 0 0 1 1 0 0 forward_v I I I I #
coedge $-1 $316 $317 $318 $319 reversed $139 $-1 #
coedge $-1 $320 $141 $143 $227 forward $87 $-1 #
coedge $-1 $141 $320 $316 $321 forward $87 $-1 #
coedge $-1 $318 $144 $141 $224 forward $218 $-1 #
edge $-1 $230 -27.560315661875595 $322 -7.9949410399900422 $223 $323 forward 7 unknown #
coedge $-1 $324 $325 $142 $226 forward $314 $-1 #
edge $-1 $326 -81.001924870431111 $229 -70.179562094030999 $225 $327 forward 7 unknown #
edge $-1 $230 77.538609279497095 $326 93.712376468434798 $143 $328 forward 7 unknown #
coedge $-1 $144 $318 $324 $329 forward $218 $-1 #
vertex $-1 $226 $330 #
vertex $-1 $145 $331 #
straight-curve $-1 -45.337944012808414 35.966423170565477 16.719910132443118 0 -1 0 I I #
coedge $-1 $232 $232 $-1 $332 reversed $148 $-1 #
edge $-1 $333 0 $333 6.2831853071796004 $149 $334 forward 7 unknown #
vertex $-1 $152 $335 #
ellipse-curve $-1 -39.747836977983972 40.846462595347788 11.308728744243062 0 0.66913061440640931 0.74314481823134659 2.5 0 0 1 I I #
coedge $-1 $236 $236 $-1 $336 reversed $155 $-1 #
edge $-1 $337 0 $337 6.2831853071796004 $156 $338 forward 7 unknown #
vertex $-1 $159 $339 #
ellipse-curve $-1 -31.36267642574731 40.846462595347788 11.308728744243062 0 0.66913061440640931 0.74314481823134659 2.5 0 0 1 I I #
face $-1 $-1 $175 $24 $-1 $340 reversed single #
loop $-1 $-1 $256 $160 #
plane-surface $-1 0 46.856188234217406 0 0 -1 0 0 0 -1 forward_v I I I I #
coedge $-1 $341 $254 $257 $342 forward $161 $-1 #
coedge $-1 $260 $163 $164 $248 reversed $101 $-1 #
coedge $-1 $254 $341 $163 $246 reversed $161 $-1 #
edge $-1 $261 -16.719910132443118 $343 16.719910132443118 $245 $344 forward 7 unknown #
coedge $-1 $165 $164 $341 $345 forward $65 $-1 #
edge $-1 $252 -70.777306436353655 $343 70.777306436353655 $244 $346 forward 7 unknown #
coedge $-1 $257 $256 $165 $250 reversed $241 $-1 #
edge $-1 $347 -70.777306436353655 $251 70.777306436353655 $249 $348 forward 7 unknown #
vertex $-1 $167 $349 #
vertex $-1 $263 $350 #
straight-curve $-1 70.777306436353655 0 -16.719910132443118 0 -1 0 I I #
coedge $-1 $243 $245 $168 $255 reversed $161 $-1 #
edge $-1 $258 -46.856188234217406 $261 46.856188234217406 $254 $351 forward 7 unknown #
coedge $-1 $249 $169 $174 $264 forward $241 $-1 #
coedge $-1 $169 $249 $243 $342 reversed $241 $-1 #
vertex $-1 $170 $352 #
straight-curve $-1 0 46.856188234217406 16.719910132443118 -1 0 0 I I #
coedge $-1 $171 $244 $173 $263 reversed $101 $-1 #
vertex $-1 $255 $353 #
straight-curve $-1 0 -46.856188234217406 16.719910132443118 1 0 0 I I #
edge $-1 $176 -16.719910132443118 $252 16.719910132443118 $173 $354 forward 7 unknown #
edge $-1 $177 -16.719910132443118 $251 16.719910132443118 $174 $355 forward 7 unknown #
point $-1 70.777306436353655 -46.856188234217406 16.719910132443118 #
point $-1 70.777306436353655 46.856188234217406 16.719910132443118 #
face $-1 $-1 $281 $25 $-1 $356 reversed single #
loop $-1 $-1 $277 $179 #
plane-surface $-1 0 0 -16.719910132443118 0 0 1 1 0 0 forward_v I I I I #
coedge $-1 $357 $358 $271 $359 forward $180 $-1 #
coedge $-1 $183 $182 $270 $359 reversed $69 $-1 #
coedge $-1 $277 $360 $182 $273 forward $268 $-1 #
edge $-1 $361 -83.216129681984285 $275 -70.777306436353655 $182 $362 forward 7 unknown #
edge $-1 $190 -6.2194116228153149 $363 6.2194116228153149 $183 $364 forward 7 unknown #
vertex $-1 $184 $365 #
straight-curve $-1 -70.777306436353655 46.856188234217406 0 0 0 -1 I I #
coedge $-1 $366 $272 $185 $278 forward $268 $-1 #
edge $-1 $275 -46.856188234217406 $282 46.856188234217406 $277 $367 forward 7 unknown #
coedge $-1 $368 $186 $189 $285 reversed $281 $-1 #
coedge $-1 $186 $368 $366 $369 reversed $281 $-1 #
loop $-1 $-1 $186 $267 #
vertex $-1 $369 $370 #
straight-curve $-1 -70.777306436353655 -46.856188234217406 0 0 0 1 I I #
coedge $-1 $189 $188 $358 $371 forward $109 $-1 #
edge $-1 $372 -6.2194116228153149 $191 6.2194116228153149 $279 $373 forward 7 unknown #
point $-1 -70.777306436353655 46.856188234217406 -12.903217001895676 #
point $-1 -70.777306436353655 -46.856188234217406 -12.903217001895676 #
loop $-1 $-1 $202 $193 #
plane-surface $-1 70.777306436353655 0 0 -1 0 0 0 0 1 forward_v I I I I #
coedge $-1 $374 $196 $201 $296 forward $117 $-1 #
coedge $-1 $196 $374 $293 $375 reversed $117 $-1 #
edge $-1 $294 26.110235317464728 $301 40.37356679616952 $196 $376 forward 7 unknown #
coedge $-1 $205 $199 $291 $375 forward $194 $-1 #
vertex $-1 $375 $377 #
straight-curve $-1 44.536069795174519 -80.688138419427375 16.719910132443118 0 -1 0 I I #
edge $-1 $301 15.707725737292471 $299 41.948962378471634 $290 $378 forward 7 unknown #
coedge $-1 $298 $202 $205 $303 reversed $288 $-1 #
coedge $-1 $202 $297 $374 $379 forward $288 $-1 #
vertex $-1 $296 $380 #
straight-curve $-1 70.777306436353655 -39.346067378712782 12.793373522460929 0 0.5877852410284794 0.80901700255871778 I I #
vertex $-1 $296 $381 #
straight-curve $-1 44.536069795174519 -46.856188234217399 2.4565786537383332 0 0.5877852410284794 0.80901700255871778 I I #
edge $-1 $382 -46.856188234217406 $206 -36.493271627318151 $297 $383 forward 7 unknown #
point $-1 70.777306436353683 -36.493271627318151 16.719910132443118 #
point $-1 44.536069795174519 -36.493271627318151 16.719910132443118 #
edge $-1 $384 1 $384 0 $209 $-1 forward 7 unknown #
vertex $-1 $210 $385 #
ellipse-curve $-1 52.033565978368571 -35.801671901877512 5.3212180905934989 0 -0.80901700255871778 0.5877852410284794 2 0 0 1 I I #
point $-1 54.033565978368571 -41.674729930767775 9.5882443930907204 #
edge $-1 $386 1 $386 0 $213 $-1 forward 7 unknown #
vertex $-1 $214 $387 #
ellipse-curve $-1 63.279810253159638 -35.801671901877512 5.3212180905934989 0 -0.80901700255871778 0.5877852410284794 2 0 0 1 I I #
point $-1 65.279810253159638 -41.674729930767775 9.5882443930907204 #
loop $-1 $-1 $225 $217 #
plane-surface $-1 0 46.856188234217406 0 0 -1 0 0 0 -1 forward_v I I I I #
coedge $-1 $317 $220 $222 $321 reversed $139 $-1 #
coedge $-1 $220 $316 $388 $389 reversed $139 $-1 #
coedge $-1 $228 $223 $220 $319 forward $218 $-1 #
edge $-1 $322 -1.1296862140873074 $390 10.889765063651929 $318 $391 forward 7 unknown #
coedge $-1 $222 $221 $325 $392 reversed $87 $-1 #
edge $-1 $393 -93.712376468434798 $322 -77.538609279497095 $316 $394 forward 7 unknown #
vertex $-1 $224 $395 #
straight-curve $-1 -17.777628350932819 34.836736956478184 16.719910132443111 1 0 0 I I #
coedge $-1 $388 $225 $228 $329 reversed $314 $-1 #
coedge $-1 $225 $388 $320 $392 forward $314 $-1 #
vertex $-1 $226 $396 #
straight-curve $-1 -45.337944012808414 46.856188234217406 86.899472226474117 0 0 1 I I #
straight-curve $-1 -45.337944012808414 -22.7856787424451 68.603367399851521 0 0.74314481823134659 -0.66913061440640931 I I #
edge $-1 $390 25.772569390922861 $229 45.337944012808414 $324 $397 forward 7 unknown #
point $-1 -45.337944012808414 46.856188234217406 16.719910132443118 #
point $-1 -45.337944012808414 34.83673695647817 16.719910132443118 #
edge $-1 $398 1 $398 0 $232 $-1 forward 7 unknown #
vertex $-1 $233 $399 #
ellipse-curve $-1 -39.747836977983972 39.149437329570986 9.4239912871346867 0 0.66913061440640931 0.74314481823134659 2.5 0 0 1 I I #
point $-1 -37.247836977983972 40.846462595347795 11.308728744243073 #
edge $-1 $400 1 $400 0 $236 $-1 forward 7 unknown #
vertex $-1 $237 $401 #
ellipse-curve $-1 -31.36267642574731 39.149437329570986 9.4239912871346867 0 0.66913061440640931 0.74314481823134659 2.5 0 0 1 I I #
point $-1 -28.86267642574731 40.846462595347795 11.308728744243073 #
plane-surface $-1 70.777306436353655 0 0 -1 0 0 0 0 1 forward_v I I I I #
coedge $-1 $245 $243 $247 $345 reversed $161 $-1 #
edge $-1 $258 -16.719910132443118 $347 16.719910132443118 $257 $402 forward 7 unknown #
vertex $-1 $345 $403 #
straight-curve $-1 -70.777306436353655 -46.856188234217406 0 0 0 -1 I I #
edge $-1 $343 -46.856188234217406 $347 46.856188234217406 $341 $404 forward 7 unknown #
straight-curve $-1 0 -46.856188234217406 -16.719910132443118 -1 0 0 I I #
vertex $-1 $250 $405 #
straight-curve $-1 0 46.856188234217406 -16.719910132443118 1 0 0 I I #
point $-1 70.777306436353655 46.856188234217406 -16.719910132443118 #
point $-1 70.777306436353655 -46.856188234217406 -16.719910132443118 #
straight-curve $-1 -70.777306436353655 0 16.719910132443118 0 -1 0 I I #
point $-1 -70.777306436353655 46.856188234217406 16.719910132443118 #
point $-1 -70.777306436353655 -46.856188234217406 16.719910132443118 #
straight-curve $-1 70.777306436353655 -46.856188234217406 0 0 0 -1 I I #
straight-curve $-1 70.777306436353655 46.856188234217406 0 0 0 -1 I I #
plane-surface $-1 0 -46.856188234217406 0 0 1 0 0 0 1 forward_v I I I I #
coedge $-1 $406 $270 $360 $407 reversed $180 $-1 #
coedge $-1 $270 $406 $284 $371 reversed $180 $-1 #
edge $-1 $363 -1.908346565273721 $361 1.908346565273721 $271 $408 forward 7 unknown #
coedge $-1 $272 $366 $357 $407 forward $268 $-1 #
vertex $-1 $273 $409 #
straight-curve $-1 0 46.856188234217406 -16.719910132443118 1 0 0 I I #
vertex $-1 $274 $410 #
straight-curve $-1 -76.99671805916897 46.856188234217406 -12.903217001895676 -1 0 0 I I #
point $-1 -70.777306436353655 46.856188234217406 -16.719910132443118 #
coedge $-1 $360 $277 $280 $369 forward $268 $-1 #
straight-curve $-1 -70.777306436353655 0 -16.719910132443118 0 -1 0 I I #
coedge $-1 $280 $279 $406 $411 forward $281 $-1 #
edge $-1 $282 -6.2194116228153149 $412 6.2194116228153149 $280 $413 forward 7 unknown #
point $-1 -70.777306436353655 -46.856188234217406 -16.719910132443118 #
edge $-1 $363 -46.856188234217406 $372 46.856188234217406 $358 $414 forward 7 unknown #
vertex $-1 $371 $415 #
straight-curve $-1 -76.99671805916897 -46.856188234217406 -12.903217001895676 1 0 0 I I #
coedge $-1 $291 $290 $298 $379 reversed $117 $-1 #
edge $-1 $294 44.536069795174519 $382 70.777306436353655 $291 $416 forward 7 unknown #
straight-curve $-1 44.536069795174519 -46.856188234217406 42.830145449907846 0 0 -1 I I #
point $-1 44.536069795174519 -46.856188234217406 16.719910132443118 #
straight-curve $-1 28.828344057882049 -46.856188234217406 2.4565786537383167 1 0 0 I I #
edge $-1 $382 -16.719910132443118 $299 -2.4565786537383234 $298 $417 forward 7 unknown #
point $-1 70.777306436353683 -46.856188234217406 2.4565786537383234 #
point $-1 44.536069795174519 -46.856188234217406 2.4565786537383234 #
vertex $-1 $303 $418 #
straight-curve $-1 70.777306436353655 0 16.719910132443118 0 1 0 I I #
vertex $-1 $306 $419 #
point $-1 54.033565978368571 -35.801671901877512 5.3212180905934989 #
vertex $-1 $310 $420 #
point $-1 65.279810253159638 -35.801671901877512 5.3212180905934989 #
coedge $-1 $325 $324 $317 $389 forward $314 $-1 #
edge $-1 $390 70.179562094030999 $393 81.001924870431111 $388 $421 forward 7 unknown #
vertex $-1 $329 $422 #
straight-curve $-1 -25.772569390922861 35.966423170565477 16.719910132443118 0 1 0 I I #
edge $-1 $393 7.9949410399900422 $326 27.560315661875595 $325 $423 forward 7 unknown #
vertex $-1 $392 $424 #
straight-curve $-1 -25.772569390922861 -22.7856787424451 68.603367399851521 0 -0.74314481823134659 0.66913061440640931 I I #
point $-1 -25.772569390922861 34.83673695647817 16.719910132443118 #
point $-1 -45.337944012808414 46.856188234217399 5.8975473560430132 #
straight-curve $-1 0 46.856188234217406 16.719910132443118 -1 0 0 I I #
vertex $-1 $332 $425 #
point $-1 -37.247836977983972 39.149437329570986 9.4239912871346867 #
vertex $-1 $336 $426 #
point $-1 -28.86267642574731 39.149437329570986 9.4239912871346867 #
straight-curve $-1 -70.777306436353655 46.856188234217406 0 0 0 -1 I I #
point $-1 -70.777306436353655 -46.856188234217406 -16.719910132443118 #
straight-curve $-1 -70.777306436353655 0 -16.719910132443118 0 1 0 I I #
point $-1 -70.777306436353655 46.856188234217406 -16.719910132443118 #
coedge $-1 $358 $357 $368 $411 reversed $180 $-1 #
edge $-1 $412 -46.856188234217406 $361 46.856188234217406 $357 $427 forward 7 unknown #
straight-curve $-1 -83.216129681984285 46.856188234217406 -14.811563567169397 0 0 -1 I I #
point $-1 -83.216129681984285 46.856188234217406 -16.719910132443118 #
point $-1 -83.216129681984285 46.856188234217406 -12.903217001895676 #
edge $-1 $372 -1.908346565273721 $412 1.908346565273721 $406 $428 forward 7 unknown #
vertex $-1 $407 $429 #
straight-curve $-1 -76.99671805916897 -46.856188234217406 -16.719910132443118 -1 0 0 I I #
straight-curve $-1 -83.216129681984285 0 -12.903217001895676 0 -1 0 I I #
point $-1 -83.216129681984285 -46.856188234217406 -12.903217001895676 #
straight-curve $-1 0 -46.856188234217406 16.719910132443118 1 0 0 I I #
straight-curve $-1 70.777306436353655 -46.856188234217406 0 0 0 -1 I I #
point $-1 70.777306436353655 -46.856188234217406 16.719910132443118 #
point $-1 52.033565978368571 -34.183637896760075 4.1456476085365406 #
point $-1 63.279810253159638 -34.183637896760075 4.1456476085365406 #
straight-curve $-1 -25.772569390922861 46.856188234217406 86.899472226474117 0 0 -1 I I #
point $-1 -25.772569390922861 46.856188234217406 16.719910132443118 #
straight-curve $-1 -17.777628350932819 46.856188234217406 5.8975473560430132 -1 0 0 I I #
point $-1 -25.772569390922861 46.856188234217399 5.8975473560430132 #
point $-1 -39.747836977983972 37.476610793554968 7.5661292415563208 #
point $-1 -31.36267642574731 37.476610793554968 7.5661292415563208 #
straight-curve $-1 -83.216129681984285 0 -16.719910132443118 0 1 0 I I #
straight-curve $-1 -83.216129681984285 -46.856188234217406 -14.811563567169397 0 0 -1 I I #
point $-1 -83.216129681984285 -46.856188234217406 -16.719910132443118 #
End-of-ACIS-data 