500 0 9 0           
7 Unknown 11 ACIS 5.0 NT 24 Fri Mar 26 00:07:15 1999 
-1 9.9999999999999995e-007 1e-010 
body $-1 $9 $-1 $10 #
body $-1 $11 $-1 $12 #
body $-1 $13 $-1 $14 #
body $-1 $15 $-1 $16 #
body $-1 $17 $-1 $18 #
body $-1 $19 $-1 $20 #
body $-1 $21 $-1 $22 #
body $-1 $23 $-1 $24 #
body $-1 $25 $-1 $26 #
lump $-1 $-1 $27 $0 #
transform $-1 1 0 0 0 1 0 0 0 1 55.231177709280679 36.536485123031341 9.062480020674375 1 rotate no_reflect no_shear #
lump $-1 $-1 $28 $1 #
transform $-1 1 0 0 0 1 0 0 0 1 55.231177709280679 36.536485123031341 9.062480020674375 1 rotate no_reflect no_shear #
lump $-1 $-1 $29 $2 #
transform $-1 1 0 0 0 1 0 0 0 1 55.231177709280679 36.536485123031341 9.062480020674375 1 rotate no_reflect no_shear #
lump $-1 $-1 $30 $3 #
transform $-1 1 0 0 0 1 0 0 0 1 55.231177709280679 36.536485123031341 9.062480020674375 1 rotate no_reflect no_shear #
lump $-1 $-1 $31 $4 #
transform $-1 1 0 0 0 1 0 0 0 1 55.231177709280679 36.536485123031341 9.062480020674375 1 rotate no_reflect no_shear #
lump $-1 $-1 $32 $5 #
transform $-1 1 0 0 0 1 0 0 0 1 55.231177709280679 36.536485123031341 9.062480020674375 1 rotate no_reflect no_shear #
lump $-1 $-1 $33 $6 #
transform $-1 1 0 0 0 1 0 0 0 1 55.231177709280679 36.536485123031341 9.062480020674375 1 rotate no_reflect no_shear #
lump $-1 $-1 $34 $7 #
transform $-1 1 0 0 0 1 0 0 0 1 55.231177709280679 36.536485123031341 9.062480020674375 1 rotate no_reflect no_shear #
lump $-1 $-1 $35 $8 #
transform $-1 1 0 0 0 1 0 0 0 1 55.231177709280679 36.536485123031341 9.062480020674375 1 rotate no_reflect no_shear #
shell $-1 $-1 $-1 $36 $-1 $9 #
shell $-1 $-1 $-1 $37 $-1 $11 #
shell $-1 $-1 $-1 $38 $-1 $13 #
shell $-1 $-1 $-1 $39 $-1 $15 #
shell $-1 $-1 $-1 $40 $-1 $17 #
shell $-1 $-1 $-1 $41 $-1 $19 #
shell $-1 $-1 $-1 $42 $-1 $21 #
shell $-1 $-1 $-1 $43 $-1 $23 #
shell $-1 $-1 $-1 $44 $-1 $25 #
face $-1 $45 $46 $27 $-1 $47 forward single #
face $-1 $48 $49 $28 $-1 $50 reversed single #
face $-1 $51 $52 $29 $-1 $53 reversed single #
face $-1 $54 $55 $30 $-1 $56 reversed single #
face $-1 $57 $58 $31 $-1 $59 forward single #
face $-1 $60 $61 $32 $-1 $62 forward single #
face $-1 $63 $64 $33 $-1 $65 reversed single #
face $-1 $66 $67 $34 $-1 $68 forward single #
face $-1 $69 $70 $35 $-1 $71 forward single #
face $-1 $72 $73 $27 $-1 $74 reversed single #
loop $-1 $-1 $75 $36 #
plane-surface $-1 0 0 9.062480020674375 0 0 1 1 0 0 forward_v I I I I #
face $-1 $76 $77 $28 $-1 $78 reversed single #
loop $-1 $-1 $79 $37 #
plane-surface $-1 0 -30.990602470601608 6.062480020674375 0 0 1 1 0 0 forward_v I I I I #
face $-1 $80 $81 $29 $-1 $82 reversed single #
loop $-1 $-1 $83 $38 #
plane-surface $-1 0 30.990602470601615 6.062480020674375 0 0 1 1 0 0 forward_v I I I I #
face $-1 $84 $85 $30 $-1 $86 reversed single #
loop $-1 $-1 $87 $39 #
plane-surface $-1 1.6779666468049186 21.06050677791719 97.434403095675577 0.87461971476443456 0 0.48480960649040278 0.48480960649040278 0 -0.87461971476443456 forward_v I I I I #
face $-1 $88 $89 $31 $-1 $90 forward single #
loop $-1 $91 $92 $40 #
cone-surface $-1 51.62473671108804 19.181558332093758 4.2090837724496186 -0.87461971476443456 0 -0.48480960649040278 0.48480960649040278 0 -0.87461971476443456 1 I I 0 1 1 forward I I I I #
face $-1 $93 $94 $32 $-1 $95 forward single #
loop $-1 $96 $97 $41 #
cone-surface $-1 51.62473671108804 22.93945522374063 4.2090837724496186 -0.87461971476443456 0 -0.48480960649040278 0.48480960649040278 0 -0.87461971476443456 1 I I 0 1 1 forward I I I I #
face $-1 $98 $99 $33 $-1 $100 reversed single #
loop $-1 $-1 $101 $42 #
plane-surface $-1 -151.8437314976704 16.676293737662505 54.375060369761584 0 1 0 -0.87461971476443456 0 0.48480960649040278 forward_v I I I I #
face $-1 $102 $103 $34 $-1 $104 forward single #
loop $-1 $105 $106 $43 #
cone-surface $-1 -51.624736711088048 19.181558332093758 4.2090837724496115 0.87461971476443456 0 -0.48480960649040278 0.48480960649040278 0 0.87461971476443456 1 I I 0 1 1 forward I I I I #
face $-1 $107 $108 $35 $-1 $109 forward single #
loop $-1 $110 $111 $44 #
cone-surface $-1 -51.624736711088048 22.93945522374063 4.2090837724496115 0.87461971476443456 0 -0.48480960649040278 0.48480960649040278 0 0.87461971476443456 1 I I 0 1 1 forward I I I I #
face $-1 $112 $113 $27 $-1 $114 reversed single #
loop $-1 $-1 $115 $45 #
plane-surface $-1 0 0 -9.062480020674375 0 0 1 1 0 0 forward_v I I I I #
coedge $-1 $116 $117 $118 $119 forward $46 $-1 #
face $-1 $120 $121 $28 $-1 $122 reversed single #
loop $-1 $-1 $123 $48 #
plane-surface $-1 0 -25.444719818171876 7.562480020674375 0 -1 0 0 0 -1 forward_v I I I I #
coedge $-1 $124 $125 $126 $127 reversed $49 $-1 #
face $-1 $128 $129 $29 $-1 $130 forward single #
loop $-1 $-1 $131 $51 #
plane-surface $-1 0 25.444719818171883 7.562480020674375 0 1 0 0 0 1 forward_v I I I I #
coedge $-1 $132 $133 $134 $135 reversed $52 $-1 #
face $-1 $136 $137 $30 $-1 $138 forward single #
loop $-1 $-1 $139 $54 #
plane-surface $-1 98.290520435194651 16.676293737662505 150.98761415815133 0 1 0 0.87461971476443456 0 0.48480960649040278 forward_v I I I I #
coedge $-1 $140 $141 $142 $143 reversed $55 $-1 #
face $-1 $-1 $144 $31 $-1 $145 forward single #
loop $-1 $146 $147 $57 #
cone-surface $-1 49.864913867853183 19.181558332093758 3.2335980776739142 -0.87461971476443456 0 -0.48480960649040278 0.24240480324520139 0 -0.43730985738221728 1 I I -0.70710678118654746 0.70710678118654746 0.5 forward I I I I #
loop $-1 $-1 $148 $40 #
coedge $-1 $92 $92 $149 $150 reversed $58 $-1 #
face $-1 $-1 $151 $32 $-1 $152 forward single #
loop $-1 $153 $154 $60 #
cone-surface $-1 49.864913867853183 22.93945522374063 3.2335980776739142 -0.87461971476443456 0 -0.48480960649040278 0.24240480324520139 0 -0.43730985738221728 1 I I -0.70710678118654746 0.70710678118654746 0.5 forward I I I I #
loop $-1 $-1 $155 $41 #
coedge $-1 $97 $97 $156 $157 reversed $61 $-1 #
face $-1 $158 $159 $33 $-1 $160 forward single #
loop $-1 $-1 $161 $63 #
plane-surface $-1 -55.231177709280672 21.06050677791719 0.82184930728583794 -0.87461971476443456 0 0.48480960649040278 0.48480960649040278 0 0.87461971476443456 forward_v I I I I #
coedge $-1 $162 $163 $164 $165 reversed $64 $-1 #
face $-1 $-1 $166 $34 $-1 $167 forward single #
loop $-1 $168 $169 $66 #
cone-surface $-1 -49.86491386785319 19.181558332093758 3.2335980776739071 0.87461971476443456 0 -0.48480960649040278 0.24240480324520139 0 0.43730985738221728 1 I I -0.70710678118654746 0.70710678118654746 0.5 forward I I I I #
loop $-1 $-1 $170 $43 #
coedge $-1 $106 $106 $171 $172 reversed $67 $-1 #
face $-1 $-1 $173 $35 $-1 $174 forward single #
loop $-1 $175 $176 $69 #
cone-surface $-1 -49.86491386785319 22.93945522374063 3.2335980776739071 0.87461971476443456 0 -0.48480960649040278 0.24240480324520139 0 0.43730985738221728 1 I I -0.70710678118654746 0.70710678118654746 0.5 forward I I I I #
loop $-1 $-1 $177 $44 #
coedge $-1 $111 $111 $178 $179 reversed $70 $-1 #
face $-1 $180 $181 $27 $-1 $182 reversed single #
loop $-1 $-1 $183 $72 #
plane-surface $-1 0 -36.536485123031341 0 0 1 0 0 0 1 forward_v I I I I #
coedge $-1 $184 $185 $186 $187 forward $73 $-1 #
coedge $-1 $188 $75 $189 $190 forward $46 $-1 #
coedge $-1 $75 $188 $191 $192 forward $46 $-1 #
coedge $-1 $193 $194 $75 $119 reversed $195 $-1 #
edge $-1 $196 -36.536485123031341 $197 36.536485123031341 $118 $198 forward 7 unknown #
face $-1 $199 $200 $28 $-1 $201 reversed single #
loop $-1 $-1 $202 $76 #
plane-surface $-1 -55.231177709280679 0 0 1 0 0 0 0 -1 forward_v I I I I #
coedge $-1 $203 $204 $205 $206 reversed $77 $-1 #
coedge $-1 $207 $79 $208 $209 reversed $49 $-1 #
coedge $-1 $79 $207 $203 $210 forward $49 $-1 #
coedge $-1 $205 $211 $79 $127 forward $212 $-1 #
edge $-1 $213 -21.041183887730536 $214 -9.9494185828710719 $126 $215 forward 7 unknown #
face $-1 $216 $217 $29 $-1 $218 reversed single #
loop $-1 $-1 $219 $80 #
plane-surface $-1 0 0 9.062480020674375 0 0 1 1 0 0 forward_v I I I I #
coedge $-1 $220 $221 $222 $223 reversed $81 $-1 #
coedge $-1 $224 $83 $220 $225 forward $52 $-1 #
coedge $-1 $83 $224 $226 $227 reversed $52 $-1 #
coedge $-1 $228 $229 $83 $135 forward $217 $-1 #
edge $-1 $230 9.9494185828710755 $231 21.04118388773054 $134 $232 forward 7 unknown #
face $-1 $233 $234 $30 $-1 $235 reversed single #
loop $-1 $-1 $142 $84 #
plane-surface $-1 0 0 9.062480020674375 0 0 1 1 0 0 forward_v I I I I #
coedge $-1 $236 $237 $238 $239 reversed $85 $-1 #
coedge $-1 $240 $87 $241 $242 reversed $55 $-1 #
coedge $-1 $87 $240 $236 $243 forward $55 $-1 #
coedge $-1 $238 $244 $87 $143 forward $137 $-1 #
edge $-1 $245 -14.914466429213288 $246 -6.1460403487039095 $142 $247 forward 7 unknown #
loop $-1 $-1 $149 $88 #
plane-surface $-1 1.6779666468049186 21.06050677791719 97.434403095675577 0.87461971476443456 0 0.48480960649040278 0.48480960649040278 0 -0.87461971476443456 forward_v I I I I #
loop $-1 $-1 $248 $57 #
coedge $-1 $147 $147 $148 $249 reversed $89 $-1 #
coedge $-1 $148 $148 $147 $249 forward $91 $-1 #
coedge $-1 $149 $149 $92 $150 forward $144 $-1 #
edge $-1 $250 0 $250 6.2831853071796004 $149 $251 forward 7 unknown #
loop $-1 $-1 $156 $93 #
plane-surface $-1 1.6779666468049186 21.06050677791719 97.434403095675577 0.87461971476443456 0 0.48480960649040278 0.48480960649040278 0 -0.87461971476443456 forward_v I I I I #
loop $-1 $-1 $252 $60 #
coedge $-1 $154 $154 $155 $253 reversed $94 $-1 #
coedge $-1 $155 $155 $154 $253 forward $96 $-1 #
coedge $-1 $156 $156 $97 $157 forward $151 $-1 #
edge $-1 $254 0 $254 6.2831853071796004 $156 $255 forward 7 unknown #
face $-1 $256 $257 $33 $-1 $258 forward single #
loop $-1 $-1 $259 $98 #
plane-surface $-1 0 25.444719818171883 7.562480020674375 0 1 0 0 0 1 forward_v I I I I #
coedge $-1 $260 $261 $262 $263 reversed $99 $-1 #
coedge $-1 $163 $101 $264 $265 reversed $64 $-1 #
coedge $-1 $101 $162 $260 $266 reversed $64 $-1 #
coedge $-1 $262 $267 $101 $165 forward $257 $-1 #
edge $-1 $268 20.690688039554523 $269 25.258544064234528 $164 $270 forward 7 unknown #
loop $-1 $-1 $171 $102 #
plane-surface $-1 -55.231177709280672 21.06050677791719 0.82184930728583794 -0.87461971476443456 0 0.48480960649040278 0.48480960649040278 0 0.87461971476443456 forward_v I I I I #
loop $-1 $-1 $271 $66 #
coedge $-1 $169 $169 $170 $272 reversed $103 $-1 #
coedge $-1 $170 $170 $169 $272 forward $105 $-1 #
coedge $-1 $171 $171 $106 $172 forward $166 $-1 #
edge $-1 $273 0 $273 6.2831853071796004 $171 $274 forward 7 unknown #
loop $-1 $-1 $178 $107 #
plane-surface $-1 -55.231177709280672 21.06050677791719 0.82184930728583794 -0.87461971476443456 0 0.48480960649040278 0.48480960649040278 0 0.87461971476443456 forward_v I I I I #
loop $-1 $-1 $275 $69 #
coedge $-1 $176 $176 $177 $276 reversed $108 $-1 #
coedge $-1 $177 $177 $176 $276 forward $110 $-1 #
coedge $-1 $178 $178 $111 $179 forward $173 $-1 #
edge $-1 $277 0 $277 6.2831853071796004 $178 $278 forward 7 unknown #
face $-1 $279 $280 $27 $-1 $281 reversed single #
loop $-1 $-1 $282 $112 #
plane-surface $-1 -55.231177709280679 0 0 1 0 0 0 0 -1 forward_v I I I I #
coedge $-1 $283 $191 $284 $285 forward $113 $-1 #
coedge $-1 $286 $115 $283 $287 forward $73 $-1 #
coedge $-1 $115 $286 $288 $289 forward $73 $-1 #
coedge $-1 $194 $193 $115 $187 reversed $195 $-1 #
edge $-1 $290 -36.536485123031341 $291 36.536485123031341 $186 $292 forward 7 unknown #
coedge $-1 $117 $116 $293 $294 forward $46 $-1 #
coedge $-1 $295 $296 $116 $190 reversed $280 $-1 #
edge $-1 $197 -55.231177709280679 $297 55.231177709280679 $189 $298 forward 7 unknown #
coedge $-1 $183 $299 $117 $192 reversed $113 $-1 #
edge $-1 $300 -55.231177709280679 $196 55.231177709280679 $191 $301 forward 7 unknown #
coedge $-1 $186 $118 $299 $302 forward $195 $-1 #
coedge $-1 $118 $186 $295 $303 reversed $195 $-1 #
loop $-1 $-1 $193 $279 #
vertex $-1 $119 $304 #
vertex $-1 $119 $305 #
straight-curve $-1 55.231177709280679 0 9.062480020674375 0 1 0 I I #
face $-1 $306 $307 $28 $-1 $308 forward single #
loop $-1 $-1 $208 $120 #
plane-surface $-1 0 -36.536485123031341 0 0 1 0 0 0 1 forward_v I I I I #
coedge $-1 $309 $310 $311 $312 forward $121 $-1 #
coedge $-1 $311 $123 $125 $210 reversed $77 $-1 #
coedge $-1 $123 $311 $313 $314 reversed $77 $-1 #
coedge $-1 $315 $126 $123 $206 forward $212 $-1 #
edge $-1 $214 2.2812400103371875 $316 5.2812400103371875 $205 $317 forward 7 unknown #
coedge $-1 $125 $124 $309 $318 reversed $49 $-1 #
coedge $-1 $319 $320 $124 $209 forward $200 $-1 #
edge $-1 $321 -55.231177709280679 $213 55.231177709280679 $208 $322 forward 7 unknown #
edge $-1 $323 -55.231177709280679 $214 55.231177709280679 $203 $324 forward 7 unknown #
coedge $-1 $126 $315 $319 $325 forward $212 $-1 #
loop $-1 $-1 $205 $306 #
vertex $-1 $209 $326 #
vertex $-1 $127 $327 #
straight-curve $-1 55.231177709280679 -15.495301235300804 6.062480020674375 0 1 0 I I #
face $-1 $328 $329 $29 $-1 $330 reversed single #
loop $-1 $-1 $229 $128 #
plane-surface $-1 55.231177709280679 0 0 -1 0 0 0 0 1 forward_v I I I I #
coedge $-1 $331 $332 $221 $333 forward $129 $-1 #
coedge $-1 $334 $131 $132 $225 reversed $81 $-1 #
coedge $-1 $131 $334 $219 $333 reversed $81 $-1 #
coedge $-1 $335 $336 $131 $223 forward $329 $-1 #
edge $-1 $337 2.2812400103371875 $338 5.2812400103371875 $222 $339 forward 7 unknown #
coedge $-1 $133 $132 $336 $340 reversed $52 $-1 #
edge $-1 $230 -55.231177709280679 $337 55.231177709280679 $220 $341 forward 7 unknown #
coedge $-1 $342 $343 $133 $227 forward $344 $-1 #
edge $-1 $231 -55.231177709280679 $345 55.231177709280679 $226 $346 forward 7 unknown #
coedge $-1 $347 $134 $343 $348 reversed $217 $-1 #
coedge $-1 $134 $347 $334 $349 forward $217 $-1 #
vertex $-1 $135 $350 #
vertex $-1 $227 $351 #
straight-curve $-1 55.231177709280679 15.495301235300808 6.062480020674375 0 1 0 I I #
face $-1 $-1 $352 $30 $-1 $353 forward single #
loop $-1 $-1 $354 $136 #
plane-surface $-1 55.231177709280679 0 0 -1 0 0 0 0 1 forward_v I I I I #
coedge $-1 $237 $139 $141 $243 reversed $85 $-1 #
coedge $-1 $139 $236 $354 $355 reversed $85 $-1 #
coedge $-1 $356 $142 $139 $239 forward $137 $-1 #
edge $-1 $246 1.5180614670033421 $357 6.0859174916833538 $238 $358 forward 7 unknown #
coedge $-1 $141 $140 $359 $360 reversed $55 $-1 #
coedge $-1 $361 $362 $140 $242 forward $352 $-1 #
edge $-1 $363 -71.567224730837779 $245 -62.145266164984918 $241 $364 forward 7 unknown #
edge $-1 $365 -110.4623554185614 $246 -101.04039685270854 $236 $366 forward 7 unknown #
coedge $-1 $142 $356 $361 $367 forward $137 $-1 #
vertex $-1 $242 $368 #
vertex $-1 $143 $369 #
straight-curve $-1 50.66332168460066 10.530253388958595 9.0624800206743856 0 -1 0 I I #
coedge $-1 $248 $248 $-1 $370 reversed $146 $-1 #
edge $-1 $371 0 $371 6.2831853071796004 $147 $372 forward 7 unknown #
vertex $-1 $150 $373 #
ellipse-curve $-1 52.947249696940666 19.181558332093758 4.9421646639801144 0.87461971476443456 0 0.48480960649040278 0.48480960649040278 0 -0.87461971476443456 1 I I #
coedge $-1 $252 $252 $-1 $374 reversed $153 $-1 #
edge $-1 $375 0 $375 6.2831853071796004 $154 $376 forward 7 unknown #
vertex $-1 $157 $377 #
ellipse-curve $-1 52.947249696940666 22.93945522374063 4.9421646639801144 0.87461971476443456 0 0.48480960649040278 0.48480960649040278 0 -0.87461971476443456 1 I I #
face $-1 $-1 $378 $33 $-1 $379 reversed single #
loop $-1 $-1 $262 $158 #
plane-surface $-1 0 0 9.062480020674375 0 0 1 1 0 0 forward_v I I I I #
coedge $-1 $380 $381 $261 $382 reversed $159 $-1 #
coedge $-1 $383 $161 $163 $266 forward $99 $-1 #
coedge $-1 $161 $383 $259 $382 forward $99 $-1 #
coedge $-1 $384 $164 $161 $263 forward $257 $-1 #
edge $-1 $269 6.1460403487039095 $385 14.914466429213288 $262 $386 forward 7 unknown #
coedge $-1 $387 $388 $162 $265 forward $378 $-1 #
edge $-1 $389 -26.365680877594968 $268 -18.125050164206417 $264 $390 forward 7 unknown #
edge $-1 $269 -9.4219585658528473 $389 1.4611543310094151e-014 $163 $391 forward 7 unknown #
coedge $-1 $164 $384 $387 $392 forward $257 $-1 #
vertex $-1 $265 $393 #
vertex $-1 $165 $394 #
straight-curve $-1 -75.921865748835202 16.676293737662505 9.062480020674375 1 0 0 I I #
coedge $-1 $271 $271 $-1 $395 reversed $168 $-1 #
edge $-1 $396 0 $396 6.2831853071796004 $169 $397 forward 7 unknown #
vertex $-1 $172 $398 #
ellipse-curve $-1 -52.947249696940673 19.181558332093758 4.9421646639801065 -0.87461971476443456 0 0.48480960649040278 0.48480960649040278 0 0.87461971476443456 1 I I #
coedge $-1 $275 $275 $-1 $399 reversed $175 $-1 #
edge $-1 $400 0 $400 6.2831853071796004 $176 $401 forward 7 unknown #
vertex $-1 $179 $402 #
ellipse-curve $-1 -52.947249696940673 22.93945522374063 4.9421646639801065 -0.87461971476443456 0 0.48480960649040278 0.48480960649040278 0 0.87461971476443456 1 I I #
face $-1 $-1 $195 $27 $-1 $403 reversed single #
loop $-1 $-1 $295 $180 #
plane-surface $-1 0 36.536485123031341 0 0 -1 0 0 0 -1 forward_v I I I I #
coedge $-1 $404 $293 $296 $405 forward $181 $-1 #
coedge $-1 $299 $183 $184 $287 reversed $113 $-1 #
coedge $-1 $293 $404 $183 $285 reversed $181 $-1 #
edge $-1 $300 -9.062480020674375 $406 9.062480020674375 $284 $407 forward 7 unknown #
coedge $-1 $185 $184 $404 $408 forward $73 $-1 #
edge $-1 $291 -55.231177709280679 $406 55.231177709280679 $283 $409 forward 7 unknown #
coedge $-1 $296 $295 $185 $289 reversed $280 $-1 #
edge $-1 $410 -55.231177709280679 $290 55.231177709280679 $288 $411 forward 7 unknown #
vertex $-1 $187 $412 #
vertex $-1 $302 $413 #
straight-curve $-1 55.231177709280679 0 -9.062480020674375 0 -1 0 I I #
coedge $-1 $282 $284 $188 $294 reversed $181 $-1 #
edge $-1 $297 -36.536485123031341 $300 36.536485123031341 $293 $414 forward 7 unknown #
coedge $-1 $288 $189 $194 $303 forward $280 $-1 #
coedge $-1 $189 $288 $282 $405 reversed $280 $-1 #
vertex $-1 $190 $415 #
straight-curve $-1 0 36.536485123031341 9.062480020674375 -1 0 0 I I #
coedge $-1 $191 $283 $193 $302 reversed $113 $-1 #
vertex $-1 $294 $416 #
straight-curve $-1 0 -36.536485123031341 9.062480020674375 1 0 0 I I #
edge $-1 $196 -9.062480020674375 $291 9.062480020674375 $193 $417 forward 7 unknown #
edge $-1 $197 -9.062480020674375 $290 9.062480020674375 $194 $418 forward 7 unknown #
point $-1 55.231177709280679 -36.536485123031341 9.062480020674375 #
point $-1 55.231177709280679 36.536485123031341 9.062480020674375 #
face $-1 $-1 $212 $28 $-1 $419 reversed single #
loop $-1 $-1 $313 $199 #
plane-surface $-1 0 0 9.062480020674375 0 0 1 1 0 0 forward_v I I I I #
coedge $-1 $420 $202 $207 $318 forward $121 $-1 #
coedge $-1 $202 $420 $421 $422 reversed $121 $-1 #
coedge $-1 $204 $203 $202 $312 reversed $77 $-1 #
edge $-1 $423 -5.2812400103371875 $323 -2.2812400103371875 $202 $424 forward 7 unknown #
coedge $-1 $421 $425 $204 $314 forward $307 $-1 #
edge $-1 $316 -55.231177709280679 $423 55.231177709280679 $313 $426 forward 7 unknown #
coedge $-1 $211 $205 $425 $427 reversed $212 $-1 #
vertex $-1 $206 $428 #
straight-curve $-1 55.231177709280679 -25.444719818171876 3.7812400103371875 0 0 1 I I #
edge $-1 $323 9.9494185828710719 $321 21.041183887730536 $309 $429 forward 7 unknown #
coedge $-1 $430 $208 $211 $325 reversed $200 $-1 #
coedge $-1 $208 $430 $420 $431 forward $200 $-1 #
vertex $-1 $209 $432 #
straight-curve $-1 0 -36.536485123031341 6.062480020674375 1 0 0 I I #
vertex $-1 $318 $433 #
straight-curve $-1 0 -25.444719818171876 6.062480020674375 1 0 0 I I #
edge $-1 $434 -9.062480020674375 $213 -6.062480020674375 $211 $435 forward 7 unknown #
point $-1 55.231177709280679 -36.536485123031341 6.062480020674375 #
point $-1 55.231177709280679 -25.444719818171876 6.062480020674375 #
face $-1 $-1 $344 $29 $-1 $436 reversed single #
loop $-1 $-1 $222 $216 #
plane-surface $-1 -55.231177709280679 0 0 1 0 0 0 0 -1 forward_v I I I I #
coedge $-1 $437 $219 $347 $438 forward $129 $-1 #
coedge $-1 $219 $437 $335 $439 forward $129 $-1 #
edge $-1 $338 -55.231177709280679 $440 55.231177709280679 $219 $441 forward 7 unknown #
coedge $-1 $221 $220 $229 $349 reversed $81 $-1 #
coedge $-1 $442 $222 $332 $439 reversed $329 $-1 #
coedge $-1 $222 $442 $224 $340 forward $329 $-1 #
vertex $-1 $340 $443 #
vertex $-1 $223 $444 #
straight-curve $-1 -55.231177709280679 25.444719818171883 3.7812400103371875 0 0 1 I I #
edge $-1 $345 -21.04118388773054 $337 -9.9494185828710755 $336 $445 forward 7 unknown #
straight-curve $-1 0 25.444719818171883 6.062480020674375 -1 0 0 I I #
coedge $-1 $446 $226 $442 $447 reversed $344 $-1 #
coedge $-1 $226 $446 $228 $348 forward $344 $-1 #
loop $-1 $-1 $226 $328 #
vertex $-1 $227 $448 #
straight-curve $-1 0 36.536485123031341 6.062480020674375 -1 0 0 I I #
coedge $-1 $229 $228 $331 $438 reversed $217 $-1 #
edge $-1 $449 -9.062480020674375 $231 -6.062480020674375 $228 $450 forward 7 unknown #
edge $-1 $440 -5.2812400103371875 $230 -2.2812400103371875 $229 $451 forward 7 unknown #
point $-1 55.231177709280679 25.444719818171883 6.062480020674375 #
point $-1 55.231177709280679 36.536485123031348 6.062480020674375 #
loop $-1 $-1 $241 $233 #
plane-surface $-1 0 25.444719818171883 7.562480020674375 0 1 0 0 0 1 forward_v I I I I #
coedge $-1 $359 $452 $237 $355 forward $234 $-1 #
edge $-1 $357 66.431327058401294 $365 74.671957771789849 $354 $453 forward 7 unknown #
coedge $-1 $244 $238 $452 $454 forward $137 $-1 #
vertex $-1 $454 $455 #
straight-curve $-1 49.145260217597325 16.676293737662505 9.0624800206743714 1 0 0 I I #
coedge $-1 $456 $354 $240 $360 forward $234 $-1 #
edge $-1 $365 6.1460403487039095 $363 14.914466429213281 $359 $457 forward 7 unknown #
coedge $-1 $362 $241 $244 $367 reversed $352 $-1 #
coedge $-1 $241 $361 $456 $458 reversed $352 $-1 #
vertex $-1 $458 $459 #
straight-curve $-1 20.534699649912998 25.444719818171883 63.41595498785334 -0.48480960649040278 0 0.87461971476443456 I I #
vertex $-1 $360 $460 #
straight-curve $-1 1.6779666468049186 16.676293737662505 97.434403095675577 -0.48480960649040278 0 0.87461971476443456 I I #
edge $-1 $461 -55.231177709280679 $245 -50.663321684600668 $244 $462 forward 7 unknown #
point $-1 50.663321684600668 25.444719818171883 9.062480020674375 #
point $-1 50.663321684600668 16.676293737662505 9.0624800206743714 #
edge $-1 $463 1 $463 0 $248 $-1 forward 7 unknown #
vertex $-1 $249 $464 #
ellipse-curve $-1 50.3022237252354 19.181558332093758 3.4760028809191157 0.87461971476443456 0 0.48480960649040278 0.48480960649040278 0 -0.87461971476443456 1 I I #
point $-1 53.432059303431082 19.181558332093758 4.0675449492156872 #
edge $-1 $465 1 $465 0 $252 $-1 forward 7 unknown #
vertex $-1 $253 $466 #
ellipse-curve $-1 50.3022237252354 22.93945522374063 3.4760028809191157 0.87461971476443456 0 0.48480960649040278 0.48480960649040278 0 -0.87461971476443456 1 I I #
point $-1 53.432059303431082 22.93945522374063 4.0675449492156872 #
loop $-1 $-1 $264 $256 #
plane-surface $-1 -55.231177709280679 0 0 1 0 0 0 0 -1 forward_v I I I I #
coedge $-1 $381 $259 $467 $468 reversed $159 $-1 #
coedge $-1 $259 $380 $384 $469 reversed $159 $-1 #
edge $-1 $470 -1.4611543310094151e-014 $385 9.4219585658528473 $259 $471 forward 7 unknown #
coedge $-1 $261 $260 $388 $472 reversed $99 $-1 #
coedge $-1 $267 $262 $381 $469 forward $257 $-1 #
vertex $-1 $469 $473 #
straight-curve $-1 -50.663321684600675 10.530253388958595 9.062480020674375 0 1 0 I I #
coedge $-1 $467 $264 $267 $392 reversed $378 $-1 #
coedge $-1 $264 $467 $383 $472 forward $378 $-1 #
vertex $-1 $265 $474 #
straight-curve $-1 -55.231177709280679 16.676293737662505 27.187530184880792 0 0 1 I I #
straight-curve $-1 -55.231177709280672 16.676293737662505 0.82184930728583794 -0.48480960649040278 0 -0.87461971476443456 I I #
edge $-1 $475 -25.444719818171883 $268 -16.676293737662505 $387 $476 forward 7 unknown #
point $-1 -55.231177709280679 16.676293737662505 9.062480020674375 #
point $-1 -50.663321684600675 16.676293737662505 9.062480020674375 #
edge $-1 $477 1 $477 0 $271 $-1 forward 7 unknown #
vertex $-1 $272 $478 #
ellipse-curve $-1 -50.302223725235407 19.181558332093758 3.4760028809191086 -0.87461971476443456 0 0.48480960649040278 0.48480960649040278 0 0.87461971476443456 1 I I #
point $-1 -52.462440090450286 19.181558332093758 5.8167843787445488 #
edge $-1 $479 1 $479 0 $275 $-1 forward 7 unknown #
vertex $-1 $276 $480 #
ellipse-curve $-1 -50.302223725235407 22.93945522374063 3.4760028809191086 -0.87461971476443456 0 0.48480960649040278 0.48480960649040278 0 0.87461971476443456 1 I I #
point $-1 -52.462440090450286 22.93945522374063 5.8167843787445488 #
plane-surface $-1 55.231177709280679 0 0 -1 0 0 0 0 1 forward_v I I I I #
coedge $-1 $284 $282 $286 $408 reversed $181 $-1 #
edge $-1 $297 -9.062480020674375 $410 9.062480020674375 $296 $481 forward 7 unknown #
vertex $-1 $408 $482 #
straight-curve $-1 -55.231177709280679 -36.536485123031341 0 0 0 -1 I I #
edge $-1 $406 -36.536485123031341 $410 36.536485123031341 $404 $483 forward 7 unknown #
straight-curve $-1 0 -36.536485123031341 -9.062480020674375 -1 0 0 I I #
vertex $-1 $289 $484 #
straight-curve $-1 0 36.536485123031341 -9.062480020674375 1 0 0 I I #
point $-1 55.231177709280679 36.536485123031341 -9.062480020674375 #
point $-1 55.231177709280679 -36.536485123031341 -9.062480020674375 #
straight-curve $-1 -55.231177709280679 0 9.062480020674375 0 -1 0 I I #
point $-1 -55.231177709280679 36.536485123031341 9.062480020674375 #
point $-1 -55.231177709280679 -36.536485123031341 9.062480020674375 #
straight-curve $-1 55.231177709280679 -36.536485123031341 0 0 0 -1 I I #
straight-curve $-1 55.231177709280679 36.536485123031341 0 0 0 -1 I I #
plane-surface $-1 55.231177709280679 0 0 -1 0 0 0 0 1 forward_v I I I I #
coedge $-1 $310 $309 $320 $431 reversed $121 $-1 #
coedge $-1 $485 $313 $310 $422 forward $307 $-1 #
edge $-1 $423 25.444719818171876 $486 36.536485123031341 $310 $487 forward 7 unknown #
vertex $-1 $422 $488 #
straight-curve $-1 -55.231177709280679 -25.444719818171876 3.7812400103371875 0 0 -1 I I #
coedge $-1 $313 $485 $315 $427 forward $307 $-1 #
straight-curve $-1 0 -25.444719818171876 9.062480020674375 -1 0 0 I I #
edge $-1 $434 -36.536485123031341 $316 -25.444719818171876 $315 $489 forward 7 unknown #
point $-1 55.231177709280679 -25.444719818171876 9.062480020674375 #
straight-curve $-1 -55.231177709280679 -15.495301235300804 6.062480020674375 0 -1 0 I I #
coedge $-1 $320 $319 $485 $490 reversed $200 $-1 #
edge $-1 $486 -9.062480020674375 $321 -6.062480020674375 $420 $491 forward 7 unknown #
point $-1 -55.231177709280679 -36.536485123031341 6.062480020674375 #
point $-1 -55.231177709280679 -25.444719818171876 6.062480020674375 #
vertex $-1 $427 $492 #
straight-curve $-1 55.231177709280679 -36.536485123031341 0 0 0 -1 I I #
plane-surface $-1 0 36.536485123031341 0 0 -1 0 0 0 -1 forward_v I I I I #
coedge $-1 $332 $331 $446 $493 forward $129 $-1 #
edge $-1 $440 25.444719818171883 $449 36.536485123031341 $347 $494 forward 7 unknown #
edge $-1 $495 -36.536485123031341 $338 -25.444719818171883 $335 $496 forward 7 unknown #
vertex $-1 $438 $497 #
straight-curve $-1 0 25.444719818171883 9.062480020674375 1 0 0 I I #
coedge $-1 $336 $335 $342 $447 forward $329 $-1 #
point $-1 -55.231177709280679 25.444719818171883 6.062480020674375 #
point $-1 -55.231177709280679 25.444719818171883 9.062480020674375 #
straight-curve $-1 -55.231177709280679 15.495301235300808 6.062480020674375 0 -1 0 I I #
coedge $-1 $343 $342 $437 $493 reversed $344 $-1 #
edge $-1 $495 -9.062480020674375 $345 -6.062480020674375 $342 $498 forward 7 unknown #
point $-1 -55.231177709280679 36.536485123031348 6.062480020674375 #
vertex $-1 $438 $499 #
straight-curve $-1 55.231177709280679 36.536485123031341 0 0 0 -1 I I #
straight-curve $-1 55.231177709280679 25.444719818171883 3.7812400103371875 0 0 -1 I I #
coedge $-1 $354 $456 $356 $454 reversed $234 $-1 #
straight-curve $-1 55.231177709280679 16.676293737662505 75.493807079075665 0 0 -1 I I #
edge $-1 $357 16.676293737662505 $461 25.444719818171883 $452 $500 forward 7 unknown #
point $-1 55.231177709280679 16.676293737662505 9.062480020674375 #
coedge $-1 $452 $359 $362 $458 forward $234 $-1 #
straight-curve $-1 55.231177709280679 10.530253388958595 0.82184930728582373 0 1 0 I I #
edge $-1 $363 -74.671957771789849 $461 -66.431327058401294 $456 $501 forward 7 unknown #
point $-1 55.231177709280679 25.444719818171876 0.82184930728581662 #
point $-1 55.231177709280679 16.676293737662505 0.82184930728581662 #
vertex $-1 $367 $502 #
straight-curve $-1 0 25.444719818171883 9.062480020674375 -1 0 0 I I #
vertex $-1 $370 $503 #
point $-1 50.787033331725802 19.181558332093758 2.6013831661546809 #
vertex $-1 $374 $504 #
point $-1 50.787033331725802 22.93945522374063 2.6013831661546809 #
coedge $-1 $388 $387 $380 $468 forward $378 $-1 #
edge $-1 $475 18.125050164206417 $470 26.365680877594968 $467 $505 forward 7 unknown #
edge $-1 $385 50.663321684600675 $475 55.231177709280679 $384 $506 forward 7 unknown #
vertex $-1 $468 $507 #
straight-curve $-1 -55.231177709280672 25.444719818171876 0.82184930728583794 0.48480960649040278 0 0.87461971476443456 I I #
edge $-1 $470 -14.914466429213281 $389 -6.1460403487039095 $388 $508 forward 7 unknown #
point $-1 -50.663321684600675 25.444719818171883 9.062480020674375 #
point $-1 -55.231177709280679 16.676293737662505 0.82184930728582517 #
vertex $-1 $392 $509 #
straight-curve $-1 -55.231177709280679 0 9.062480020674375 0 -1 0 I I #
vertex $-1 $395 $510 #
point $-1 -49.817414118745006 19.181558332093758 4.3506225956835429 #
vertex $-1 $399 $511 #
point $-1 -49.817414118745006 22.93945522374063 4.3506225956835429 #
straight-curve $-1 -55.231177709280679 36.536485123031341 0 0 0 -1 I I #
point $-1 -55.231177709280679 -36.536485123031341 -9.062480020674375 #
straight-curve $-1 -55.231177709280679 0 -9.062480020674375 0 1 0 I I #
point $-1 -55.231177709280679 36.536485123031341 -9.062480020674375 #
coedge $-1 $425 $421 $430 $490 forward $307 $-1 #
vertex $-1 $422 $512 #
straight-curve $-1 -55.231177709280679 0 9.062480020674375 0 -1 0 I I #
point $-1 -55.231177709280679 -25.444719818171876 9.062480020674375 #
straight-curve $-1 55.231177709280679 0 9.062480020674375 0 1 0 I I #
edge $-1 $486 -55.231177709280679 $434 55.231177709280679 $430 $513 forward 7 unknown #
straight-curve $-1 -55.231177709280679 -36.536485123031341 0 0 0 -1 I I #
point $-1 55.231177709280679 -36.536485123031341 9.062480020674375 #
edge $-1 $449 -55.231177709280679 $495 55.231177709280679 $446 $514 forward 7 unknown #
straight-curve $-1 55.231177709280679 0 9.062480020674375 0 1 0 I I #
vertex $-1 $493 $515 #
straight-curve $-1 -55.231177709280679 0 9.062480020674375 0 -1 0 I I #
point $-1 55.231177709280679 25.444719818171883 9.062480020674375 #
straight-curve $-1 -55.231177709280679 36.536485123031341 0 0 0 -1 I I #
point $-1 55.231177709280679 36.536485123031341 9.062480020674375 #
straight-curve $-1 55.231177709280679 0 9.062480020674375 0 1 0 I I #
straight-curve $-1 55.231177709280679 25.444719818171876 75.493807079075665 0 0 1 I I #
point $-1 55.231177709280679 25.444719818171883 9.062480020674375 #
point $-1 49.427604010470965 19.181558332093758 2.9911932744287126 #
point $-1 49.427604010470965 22.93945522374063 2.9911932744287126 #
straight-curve $-1 -55.231177709280679 25.444719818171876 27.187530184880792 0 0 -1 I I #
straight-curve $-1 0 25.444719818171883 9.062480020674375 -1 0 0 I I #
point $-1 -55.231177709280679 25.444719818171876 0.82184930728582517 #
straight-curve $-1 -55.231177709280679 10.530253388958595 0.82184930728581351 0 -1 0 I I #
point $-1 -55.231177709280679 25.444719818171883 9.062480020674375 #
point $-1 -49.427604010470972 19.181558332093758 2.9911932744287055 #
point $-1 -49.427604010470972 22.93945522374063 2.9911932744287055 #
point $-1 -55.231177709280679 -36.536485123031341 9.062480020674375 #
straight-curve $-1 0 -36.536485123031341 9.062480020674375 1 0 0 I I #
straight-curve $-1 0 36.536485123031341 9.062480020674375 -1 0 0 I I #
point $-1 -55.231177709280679 36.536485123031341 9.062480020674375 #
End-of-ACIS-data 