500 0 10 0           
7 Unknown 11 ACIS 5.0 NT 24 Thu Mar 25 23:47:34 1999 
-1 9.9999999999999995e-007 1e-010 
body $-1 $10 $-1 $11 #
body $-1 $12 $-1 $13 #
body $-1 $14 $-1 $15 #
body $-1 $16 $-1 $17 #
body $-1 $18 $-1 $19 #
body $-1 $20 $-1 $21 #
body $-1 $22 $-1 $23 #
body $-1 $24 $-1 $25 #
body $-1 $26 $-1 $27 #
body $-1 $28 $-1 $29 #
lump $-1 $-1 $30 $0 #
transform $-1 1 0 0 0 1 0 0 0 1 66.707358012634671 34.702606140909204 15.423051018061846 1 rotate no_reflect no_shear #
lump $-1 $-1 $31 $1 #
transform $-1 1 0 0 0 1 0 0 0 1 66.707358012634671 34.702606140909204 15.423051018061846 1 rotate no_reflect no_shear #
lump $-1 $-1 $32 $2 #
transform $-1 1 0 0 0 1 0 0 0 1 66.707358012634671 34.702606140909204 15.423051018061846 1 rotate no_reflect no_shear #
lump $-1 $-1 $33 $3 #
transform $-1 1 0 0 0 1 0 0 0 1 66.707358012634671 34.702606140909204 15.423051018061846 1 rotate no_reflect no_shear #
lump $-1 $-1 $34 $4 #
transform $-1 1 0 0 0 1 0 0 0 1 66.707358012634671 34.702606140909204 15.423051018061846 1 rotate no_reflect no_shear #
lump $-1 $-1 $35 $5 #
transform $-1 1 0 0 0 1 0 0 0 1 66.707358012634671 34.702606140909204 15.423051018061846 1 rotate no_reflect no_shear #
lump $-1 $-1 $36 $6 #
transform $-1 1 0 0 0 1 0 0 0 1 66.707358012634671 34.702606140909204 15.423051018061846 1 rotate no_reflect no_shear #
lump $-1 $-1 $37 $7 #
transform $-1 1 0 0 0 1 0 0 0 1 66.707358012634671 34.702606140909204 15.423051018061846 1 rotate no_reflect no_shear #
lump $-1 $-1 $38 $8 #
transform $-1 1 0 0 0 1 0 0 0 1 66.707358012634671 34.702606140909204 15.423051018061846 1 rotate no_reflect no_shear #
lump $-1 $-1 $39 $9 #
transform $-1 1 0 0 0 1 0 0 0 1 66.707358012634671 34.702606140909204 15.423051018061846 1 rotate no_reflect no_shear #
shell $-1 $-1 $-1 $40 $-1 $10 #
shell $-1 $-1 $-1 $41 $-1 $12 #
shell $-1 $-1 $-1 $42 $-1 $14 #
shell $-1 $-1 $-1 $43 $-1 $16 #
shell $-1 $-1 $-1 $44 $-1 $18 #
shell $-1 $-1 $-1 $45 $-1 $20 #
shell $-1 $-1 $-1 $46 $-1 $22 #
shell $-1 $-1 $-1 $47 $-1 $24 #
shell $-1 $-1 $-1 $48 $-1 $26 #
shell $-1 $-1 $-1 $49 $-1 $28 #
face $-1 $50 $51 $30 $-1 $52 forward single #
face $-1 $53 $54 $31 $-1 $55 reversed single #
face $-1 $56 $57 $32 $-1 $58 reversed single #
face $-1 $59 $60 $33 $-1 $61 forward single #
face $-1 $62 $63 $34 $-1 $64 forward single #
face $-1 $65 $66 $35 $-1 $67 forward single #
face $-1 $68 $69 $36 $-1 $70 reversed single #
face $-1 $71 $72 $37 $-1 $73 forward single #
face $-1 $74 $75 $38 $-1 $76 forward single #
face $-1 $77 $78 $39 $-1 $79 forward single #
face $-1 $80 $81 $30 $-1 $82 reversed single #
loop $-1 $-1 $83 $40 #
plane-surface $-1 0 0 15.423051018061846 0 0 1 1 0 0 forward_v I I I I #
face $-1 $84 $85 $31 $-1 $86 reversed single #
loop $-1 $-1 $87 $41 #
plane-surface $-1 -59.267495094795635 -21.064481176765465 0 0 1 0 0 0 1 forward_v I I I I #
face $-1 $88 $89 $32 $-1 $90 reversed single #
loop $-1 $-1 $91 $42 #
plane-surface $-1 50.263084520563652 -17.592054506350834 199.14069799729762 0 -1 0 -0.64278761758704617 0 -0.76604443648966558 forward_v I I I I #
face $-1 $92 $93 $33 $-1 $94 forward single #
loop $-1 $95 $96 $43 #
cone-surface $-1 63.858683058501192 -26.029637288429697 12.919388078464204 -0.64278761758704617 0 -0.76604443648966558 0.38302221824483279 0 -0.32139380879352308 1 I I 0 1 0.5 forward I I I I #
face $-1 $97 $98 $34 $-1 $99 forward single #
loop $-1 $100 $101 $44 #
cone-surface $-1 63.858683058501192 -22.865543745150124 12.919388078464204 -0.64278761758704617 0 -0.76604443648966558 0.38302221824483279 0 -0.32139380879352308 1 I I 0 1 0.5 forward I I I I #
face $-1 $102 $103 $35 $-1 $104 forward single #
loop $-1 $105 $106 $45 #
cone-surface $-1 63.858683058501192 -19.70145020187055 12.919388078464204 -0.64278761758704617 0 -0.76604443648966558 0.38302221824483279 0 -0.32139380879352308 1 I I 0 1 0.5 forward I I I I #
face $-1 $107 $108 $36 $-1 $109 reversed single #
loop $-1 $-1 $110 $46 #
plane-surface $-1 50.263084520563652 28.139032983949413 199.14069799729762 0 -1 0 -0.64278761758704617 0 -0.76604443648966558 forward_v I I I I #
face $-1 $111 $112 $37 $-1 $113 forward single #
loop $-1 $114 $115 $47 #
cone-surface $-1 63.858683058501192 19.70145020187055 12.919388078464204 -0.64278761758704617 0 -0.76604443648966558 0.38302221824483279 0 -0.32139380879352308 1 I I 0 1 0.5 forward I I I I #
face $-1 $116 $117 $38 $-1 $118 forward single #
loop $-1 $119 $120 $48 #
cone-surface $-1 63.858683058501192 22.865543745150127 12.919388078464204 -0.64278761758704617 0 -0.76604443648966558 0.38302221824483279 0 -0.32139380879352308 1 I I 0 1 0.5 forward I I I I #
face $-1 $121 $122 $39 $-1 $123 forward single #
loop $-1 $124 $125 $49 #
cone-surface $-1 63.858683058501192 26.029637288429697 12.919388078464204 -0.64278761758704617 0 -0.76604443648966558 0.38302221824483279 0 -0.32139380879352308 1 I I 0 1 0.5 forward I I I I #
face $-1 $126 $127 $30 $-1 $128 reversed single #
loop $-1 $-1 $129 $50 #
plane-surface $-1 0 0 -15.423051018061846 0 0 1 1 0 0 forward_v I I I I #
coedge $-1 $130 $131 $132 $133 forward $51 $-1 #
face $-1 $134 $135 $31 $-1 $136 reversed single #
loop $-1 $-1 $137 $53 #
plane-surface $-1 -59.267495094795635 -17.813812060247667 0 0 -1 0 0 0 -1 forward_v I I I I #
coedge $-1 $138 $139 $140 $141 reversed $54 $-1 #
face $-1 $142 $143 $32 $-1 $144 reversed single #
loop $-1 $-1 $145 $56 #
plane-surface $-1 -35.494242944371535 -22.86554374515012 96.939097040291415 0.64278761758704617 0 0.76604443648966558 0.76604443648966558 0 -0.64278761758704617 forward_v I I I I #
coedge $-1 $146 $147 $148 $149 reversed $57 $-1 #
face $-1 $-1 $150 $33 $-1 $151 forward single #
loop $-1 $152 $153 $59 #
cone-surface $-1 63.376592345310911 -26.029637288429697 12.344854751096955 -0.64278761758704617 0 -0.76604443648966558 0.1915111091224164 0 -0.16069690439676154 1 I I -0.70710678118654746 0.70710678118654746 0.25 forward I I I I #
loop $-1 $-1 $154 $43 #
coedge $-1 $96 $96 $155 $156 reversed $60 $-1 #
face $-1 $-1 $157 $34 $-1 $158 forward single #
loop $-1 $159 $160 $62 #
cone-surface $-1 63.376592345310911 -22.865543745150124 12.344854751096955 -0.64278761758704617 0 -0.76604443648966558 0.1915111091224164 0 -0.16069690439676154 1 I I -0.70710678118654746 0.70710678118654746 0.25 forward I I I I #
loop $-1 $-1 $161 $44 #
coedge $-1 $101 $101 $162 $163 reversed $63 $-1 #
face $-1 $-1 $164 $35 $-1 $165 forward single #
loop $-1 $166 $167 $65 #
cone-surface $-1 63.376592345310911 -19.70145020187055 12.344854751096955 -0.64278761758704617 0 -0.76604443648966558 0.1915111091224164 0 -0.16069690439676154 1 I I -0.70710678118654746 0.70710678118654746 0.25 forward I I I I #
loop $-1 $-1 $168 $45 #
coedge $-1 $106 $106 $169 $170 reversed $66 $-1 #
face $-1 $171 $172 $36 $-1 $173 reversed single #
loop $-1 $-1 $174 $68 #
plane-surface $-1 -35.494242944371535 22.865543745150127 96.939097040291415 0.64278761758704617 0 0.76604443648966558 0.76604443648966558 0 -0.64278761758704617 forward_v I I I I #
coedge $-1 $175 $176 $177 $178 reversed $69 $-1 #
face $-1 $-1 $179 $37 $-1 $180 forward single #
loop $-1 $181 $182 $71 #
cone-surface $-1 63.376592345310911 19.70145020187055 12.344854751096955 -0.64278761758704617 0 -0.76604443648966558 0.1915111091224164 0 -0.16069690439676154 1 I I -0.70710678118654746 0.70710678118654746 0.25 forward I I I I #
loop $-1 $-1 $183 $47 #
coedge $-1 $115 $115 $184 $185 reversed $72 $-1 #
face $-1 $-1 $186 $38 $-1 $187 forward single #
loop $-1 $188 $189 $74 #
cone-surface $-1 63.376592345310911 22.865543745150127 12.344854751096955 -0.64278761758704617 0 -0.76604443648966558 0.1915111091224164 0 -0.16069690439676154 1 I I -0.70710678118654746 0.70710678118654746 0.25 forward I I I I #
loop $-1 $-1 $190 $48 #
coedge $-1 $120 $120 $191 $192 reversed $75 $-1 #
face $-1 $-1 $193 $39 $-1 $194 forward single #
loop $-1 $195 $196 $77 #
cone-surface $-1 63.376592345310911 26.029637288429697 12.344854751096955 -0.64278761758704617 0 -0.76604443648966558 0.1915111091224164 0 -0.16069690439676154 1 I I -0.70710678118654746 0.70710678118654746 0.25 forward I I I I #
loop $-1 $-1 $197 $49 #
coedge $-1 $125 $125 $198 $199 reversed $78 $-1 #
face $-1 $200 $201 $30 $-1 $202 reversed single #
loop $-1 $-1 $203 $80 #
plane-surface $-1 0 -34.702606140909204 0 0 1 0 0 0 1 forward_v I I I I #
coedge $-1 $204 $205 $206 $207 forward $81 $-1 #
coedge $-1 $208 $83 $209 $210 forward $51 $-1 #
coedge $-1 $83 $208 $211 $212 forward $51 $-1 #
coedge $-1 $213 $214 $83 $133 reversed $215 $-1 #
edge $-1 $216 -34.702606140909204 $217 34.702606140909204 $132 $218 forward 7 unknown #
face $-1 $219 $220 $31 $-1 $221 reversed single #
loop $-1 $-1 $222 $84 #
plane-surface $-1 -51.827632176956598 -19.439146618506566 0 -1 0 0 0 0 1 forward_v I I I I #
coedge $-1 $223 $224 $225 $226 forward $85 $-1 #
coedge $-1 $227 $87 $228 $229 reversed $54 $-1 #
coedge $-1 $87 $227 $230 $231 reversed $54 $-1 #
coedge $-1 $232 $233 $87 $141 forward $234 $-1 #
edge $-1 $235 -15.423051018061846 $236 15.423051018061846 $140 $237 forward 7 unknown #
face $-1 $238 $239 $32 $-1 $240 reversed single #
loop $-1 $-1 $241 $88 #
plane-surface $-1 50.263084520563652 -28.139032983949406 199.14069799729762 0 1 0 0.64278761758704617 0 0.76604443648966558 forward_v I I I I #
coedge $-1 $242 $243 $244 $245 reversed $89 $-1 #
coedge $-1 $147 $91 $246 $247 reversed $57 $-1 #
coedge $-1 $91 $146 $242 $248 reversed $57 $-1 #
coedge $-1 $244 $249 $91 $149 forward $250 $-1 #
edge $-1 $251 -41.575815752352845 $252 -36.521253461672877 $148 $253 forward 7 unknown #
loop $-1 $-1 $155 $92 #
plane-surface $-1 -35.494242944371535 -22.86554374515012 96.939097040291415 0.64278761758704617 0 0.76604443648966558 0.76604443648966558 0 -0.64278761758704617 forward_v I I I I #
loop $-1 $-1 $254 $59 #
coedge $-1 $153 $153 $154 $255 reversed $93 $-1 #
coedge $-1 $154 $154 $153 $255 forward $95 $-1 #
coedge $-1 $155 $155 $96 $156 forward $150 $-1 #
edge $-1 $256 0 $256 6.2831853071796004 $155 $257 forward 7 unknown #
loop $-1 $-1 $162 $97 #
plane-surface $-1 -35.494242944371535 -22.86554374515012 96.939097040291415 0.64278761758704617 0 0.76604443648966558 0.76604443648966558 0 -0.64278761758704617 forward_v I I I I #
loop $-1 $-1 $258 $62 #
coedge $-1 $160 $160 $161 $259 reversed $98 $-1 #
coedge $-1 $161 $161 $160 $259 forward $100 $-1 #
coedge $-1 $162 $162 $101 $163 forward $157 $-1 #
edge $-1 $260 0 $260 6.2831853071796004 $162 $261 forward 7 unknown #
loop $-1 $-1 $169 $102 #
plane-surface $-1 -35.494242944371535 -22.86554374515012 96.939097040291415 0.64278761758704617 0 0.76604443648966558 0.76604443648966558 0 -0.64278761758704617 forward_v I I I I #
loop $-1 $-1 $262 $65 #
coedge $-1 $167 $167 $168 $263 reversed $103 $-1 #
coedge $-1 $168 $168 $167 $263 forward $105 $-1 #
coedge $-1 $169 $169 $106 $170 forward $164 $-1 #
edge $-1 $264 0 $264 6.2831853071796004 $169 $265 forward 7 unknown #
face $-1 $266 $267 $36 $-1 $268 reversed single #
loop $-1 $-1 $269 $107 #
plane-surface $-1 50.263084520563652 17.592054506350841 199.14069799729762 0 1 0 0.64278761758704617 0 0.76604443648966558 forward_v I I I I #
coedge $-1 $270 $271 $272 $273 reversed $108 $-1 #
coedge $-1 $176 $110 $274 $275 reversed $69 $-1 #
coedge $-1 $110 $175 $270 $276 reversed $69 $-1 #
coedge $-1 $272 $277 $110 $178 forward $278 $-1 #
edge $-1 $279 -41.575815752352845 $280 -36.521253461672877 $177 $281 forward 7 unknown #
loop $-1 $-1 $184 $111 #
plane-surface $-1 -35.494242944371535 22.865543745150127 96.939097040291415 0.64278761758704617 0 0.76604443648966558 0.76604443648966558 0 -0.64278761758704617 forward_v I I I I #
loop $-1 $-1 $282 $71 #
coedge $-1 $182 $182 $183 $283 reversed $112 $-1 #
coedge $-1 $183 $183 $182 $283 forward $114 $-1 #
coedge $-1 $184 $184 $115 $185 forward $179 $-1 #
edge $-1 $284 0 $284 6.2831853071796004 $184 $285 forward 7 unknown #
loop $-1 $-1 $191 $116 #
plane-surface $-1 -35.494242944371535 22.865543745150127 96.939097040291415 0.64278761758704617 0 0.76604443648966558 0.76604443648966558 0 -0.64278761758704617 forward_v I I I I #
loop $-1 $-1 $286 $74 #
coedge $-1 $189 $189 $190 $287 reversed $117 $-1 #
coedge $-1 $190 $190 $189 $287 forward $119 $-1 #
coedge $-1 $191 $191 $120 $192 forward $186 $-1 #
edge $-1 $288 0 $288 6.2831853071796004 $191 $289 forward 7 unknown #
loop $-1 $-1 $198 $121 #
plane-surface $-1 -35.494242944371535 22.865543745150127 96.939097040291415 0.64278761758704617 0 0.76604443648966558 0.76604443648966558 0 -0.64278761758704617 forward_v I I I I #
loop $-1 $-1 $290 $77 #
coedge $-1 $196 $196 $197 $291 reversed $122 $-1 #
coedge $-1 $197 $197 $196 $291 forward $124 $-1 #
coedge $-1 $198 $198 $125 $199 forward $193 $-1 #
edge $-1 $292 0 $292 6.2831853071796004 $198 $293 forward 7 unknown #
face $-1 $294 $295 $30 $-1 $296 reversed single #
loop $-1 $-1 $297 $126 #
plane-surface $-1 -66.707358012634671 0 0 1 0 0 0 0 -1 forward_v I I I I #
coedge $-1 $298 $211 $299 $300 forward $127 $-1 #
coedge $-1 $301 $129 $298 $302 forward $81 $-1 #
coedge $-1 $129 $301 $303 $304 forward $81 $-1 #
coedge $-1 $214 $213 $129 $207 reversed $215 $-1 #
edge $-1 $305 -34.702606140909204 $306 34.702606140909204 $206 $307 forward 7 unknown #
coedge $-1 $131 $130 $308 $309 forward $51 $-1 #
coedge $-1 $310 $311 $130 $210 reversed $295 $-1 #
edge $-1 $217 -66.707358012634671 $312 66.707358012634671 $209 $313 forward 7 unknown #
coedge $-1 $203 $314 $131 $212 reversed $127 $-1 #
edge $-1 $315 -66.707358012634671 $216 66.707358012634671 $211 $316 forward 7 unknown #
coedge $-1 $206 $132 $314 $317 forward $215 $-1 #
coedge $-1 $132 $206 $310 $318 reversed $215 $-1 #
loop $-1 $-1 $213 $294 #
vertex $-1 $133 $319 #
vertex $-1 $133 $320 #
straight-curve $-1 66.707358012634671 0 15.423051018061846 0 1 0 I I #
face $-1 $321 $322 $31 $-1 $323 forward single #
loop $-1 $-1 $324 $134 #
plane-surface $-1 0 0 -15.423051018061846 0 0 1 1 0 0 forward_v I I I I #
coedge $-1 $325 $326 $227 $327 forward $135 $-1 #
coedge $-1 $328 $137 $324 $329 reversed $85 $-1 #
coedge $-1 $137 $328 $330 $331 reversed $85 $-1 #
coedge $-1 $326 $325 $137 $226 reversed $135 $-1 #
edge $-1 $332 -15.423051018061846 $333 15.423051018061846 $225 $334 forward 7 unknown #
coedge $-1 $139 $138 $222 $327 reversed $54 $-1 #
coedge $-1 $335 $336 $138 $229 forward $220 $-1 #
edge $-1 $337 22.193884629558781 $235 37.073610465236854 $228 $338 forward 7 unknown #
coedge $-1 $339 $340 $139 $231 forward $322 $-1 #
edge $-1 $236 -37.073610465236854 $341 -22.193884629558781 $230 $342 forward 7 unknown #
coedge $-1 $343 $140 $340 $344 reversed $234 $-1 #
coedge $-1 $140 $343 $335 $345 reversed $234 $-1 #
loop $-1 $-1 $343 $321 #
vertex $-1 $345 $346 #
vertex $-1 $141 $347 #
straight-curve $-1 -66.707358012634671 -21.064481176765465 0 0 0 1 I I #
face $-1 $-1 $250 $32 $-1 $348 forward single #
loop $-1 $-1 $349 $142 #
plane-surface $-1 66.707358012634671 0 0 -1 0 0 0 0 1 forward_v I I I I #
coedge $-1 $350 $351 $352 $353 reversed $143 $-1 #
coedge $-1 $354 $145 $147 $248 forward $89 $-1 #
coedge $-1 $145 $354 $350 $355 forward $89 $-1 #
coedge $-1 $352 $148 $145 $245 forward $250 $-1 #
edge $-1 $252 6.1592826337757742 $356 16.706261111374346 $244 $357 forward 7 unknown #
coedge $-1 $358 $359 $146 $247 forward $239 $-1 #
edge $-1 $360 -88.388579423292583 $251 -84.14729798058697 $246 $361 forward 7 unknown #
edge $-1 $252 126.8164535095306 $360 133.41471602526934 $147 $362 forward 7 unknown #
coedge $-1 $148 $352 $358 $363 forward $250 $-1 #
loop $-1 $-1 $352 $238 #
vertex $-1 $247 $364 #
vertex $-1 $149 $365 #
straight-curve $-1 25.131542260281826 -17.592054506350834 15.423051018061841 -1 0 0 I I #
coedge $-1 $254 $254 $-1 $366 reversed $152 $-1 #
edge $-1 $367 0 $367 6.2831853071796004 $153 $368 forward 7 unknown #
vertex $-1 $156 $369 #
ellipse-curve $-1 64.180076867294702 -26.029637288429697 13.302410296709025 0.64278761758704617 0 0.76604443648966558 0.38302221824483279 0 -0.32139380879352308 1 I I #
coedge $-1 $258 $258 $-1 $370 reversed $159 $-1 #
edge $-1 $371 0 $371 6.2831853071796004 $160 $372 forward 7 unknown #
vertex $-1 $163 $373 #
ellipse-curve $-1 64.180076867294702 -22.865543745150124 13.302410296709025 0.64278761758704617 0 0.76604443648966558 0.38302221824483279 0 -0.32139380879352308 1 I I #
coedge $-1 $262 $262 $-1 $374 reversed $166 $-1 #
edge $-1 $375 0 $375 6.2831853071796004 $167 $376 forward 7 unknown #
vertex $-1 $170 $377 #
ellipse-curve $-1 64.180076867294702 -19.70145020187055 13.302410296709025 0.64278761758704617 0 0.76604443648966558 0.38302221824483279 0 -0.32139380879352308 1 I I #
face $-1 $-1 $278 $36 $-1 $378 forward single #
loop $-1 $-1 $379 $171 #
plane-surface $-1 66.707358012634671 0 0 -1 0 0 0 0 1 forward_v I I I I #
coedge $-1 $380 $381 $382 $383 reversed $172 $-1 #
coedge $-1 $384 $174 $176 $276 forward $108 $-1 #
coedge $-1 $174 $384 $380 $385 forward $108 $-1 #
coedge $-1 $382 $177 $174 $273 forward $278 $-1 #
edge $-1 $280 -16.706261111374349 $386 -6.1592826337757778 $272 $387 forward 7 unknown #
coedge $-1 $388 $389 $175 $275 forward $267 $-1 #
edge $-1 $390 -88.388579423292583 $279 -84.14729798058697 $274 $391 forward 7 unknown #
edge $-1 $280 126.8164535095306 $390 133.41471602526934 $176 $392 forward 7 unknown #
coedge $-1 $177 $382 $388 $393 forward $278 $-1 #
loop $-1 $-1 $382 $266 #
vertex $-1 $275 $394 #
vertex $-1 $178 $395 #
straight-curve $-1 25.131542260281826 28.139032983949413 15.423051018061841 -1 0 0 I I #
coedge $-1 $282 $282 $-1 $396 reversed $181 $-1 #
edge $-1 $397 0 $397 6.2831853071796004 $182 $398 forward 7 unknown #
vertex $-1 $185 $399 #
ellipse-curve $-1 64.180076867294702 19.70145020187055 13.302410296709025 0.64278761758704617 0 0.76604443648966558 0.38302221824483279 0 -0.32139380879352308 1 I I #
coedge $-1 $286 $286 $-1 $400 reversed $188 $-1 #
edge $-1 $401 0 $401 6.2831853071796004 $189 $402 forward 7 unknown #
vertex $-1 $192 $403 #
ellipse-curve $-1 64.180076867294702 22.865543745150127 13.302410296709025 0.64278761758704617 0 0.76604443648966558 0.38302221824483279 0 -0.32139380879352308 1 I I #
coedge $-1 $290 $290 $-1 $404 reversed $195 $-1 #
edge $-1 $405 0 $405 6.2831853071796004 $196 $406 forward 7 unknown #
vertex $-1 $199 $407 #
ellipse-curve $-1 64.180076867294702 26.029637288429697 13.302410296709025 0.64278761758704617 0 0.76604443648966558 0.38302221824483279 0 -0.32139380879352308 1 I I #
face $-1 $-1 $215 $30 $-1 $408 reversed single #
loop $-1 $-1 $310 $200 #
plane-surface $-1 0 34.702606140909204 0 0 -1 0 0 0 -1 forward_v I I I I #
coedge $-1 $409 $308 $311 $410 forward $201 $-1 #
coedge $-1 $314 $203 $204 $302 reversed $127 $-1 #
coedge $-1 $308 $409 $203 $300 reversed $201 $-1 #
edge $-1 $315 -15.423051018061846 $411 15.423051018061846 $299 $412 forward 7 unknown #
coedge $-1 $205 $204 $409 $413 forward $81 $-1 #
edge $-1 $306 -66.707358012634671 $411 66.707358012634671 $298 $414 forward 7 unknown #
coedge $-1 $311 $310 $205 $304 reversed $295 $-1 #
edge $-1 $415 -66.707358012634671 $305 66.707358012634671 $303 $416 forward 7 unknown #
vertex $-1 $207 $417 #
vertex $-1 $317 $418 #
straight-curve $-1 66.707358012634671 0 -15.423051018061846 0 -1 0 I I #
coedge $-1 $297 $299 $208 $309 reversed $201 $-1 #
edge $-1 $312 -34.702606140909204 $315 34.702606140909204 $308 $419 forward 7 unknown #
coedge $-1 $303 $209 $214 $318 forward $295 $-1 #
coedge $-1 $209 $303 $297 $410 reversed $295 $-1 #
vertex $-1 $210 $420 #
straight-curve $-1 0 34.702606140909204 15.423051018061846 -1 0 0 I I #
coedge $-1 $211 $298 $213 $317 reversed $127 $-1 #
vertex $-1 $309 $421 #
straight-curve $-1 0 -34.702606140909204 15.423051018061846 1 0 0 I I #
edge $-1 $216 -15.423051018061846 $306 15.423051018061846 $213 $422 forward 7 unknown #
edge $-1 $217 -15.423051018061846 $305 15.423051018061846 $214 $423 forward 7 unknown #
point $-1 66.707358012634671 -34.702606140909204 15.423051018061846 #
point $-1 66.707358012634671 34.702606140909204 15.423051018061846 #
face $-1 $-1 $234 $31 $-1 $424 reversed single #
loop $-1 $-1 $330 $219 #
plane-surface $-1 0 0 15.423051018061846 0 0 1 1 0 0 forward_v I I I I #
coedge $-1 $336 $335 $223 $329 forward $220 $-1 #
coedge $-1 $225 $222 $336 $425 reversed $135 $-1 #
coedge $-1 $222 $225 $339 $426 reversed $135 $-1 #
edge $-1 $341 -15.423051018061846 $337 15.423051018061846 $222 $427 forward 7 unknown #
coedge $-1 $224 $223 $343 $428 reversed $85 $-1 #
edge $-1 $429 -37.073610465236854 $333 -22.193884629558781 $324 $430 forward 7 unknown #
coedge $-1 $340 $339 $224 $331 forward $322 $-1 #
edge $-1 $332 22.193884629558781 $431 37.073610465236854 $330 $432 forward 7 unknown #
vertex $-1 $331 $433 #
vertex $-1 $329 $434 #
straight-curve $-1 -51.827632176956598 -17.813812060247667 0 0 0 -1 I I #
coedge $-1 $324 $228 $233 $345 forward $220 $-1 #
coedge $-1 $228 $324 $325 $425 forward $220 $-1 #
vertex $-1 $229 $435 #
straight-curve $-1 -29.633747547397817 -21.064481176765465 -15.423051018061846 -1 0 0 I I #
coedge $-1 $330 $230 $326 $426 forward $322 $-1 #
coedge $-1 $230 $330 $232 $344 forward $322 $-1 #
vertex $-1 $231 $436 #
straight-curve $-1 -29.633747547397817 -21.064481176765465 15.423051018061846 1 0 0 I I #
coedge $-1 $233 $232 $328 $428 forward $234 $-1 #
edge $-1 $431 17.813812060247667 $236 21.064481176765465 $232 $437 forward 7 unknown #
edge $-1 $235 -21.064481176765465 $429 -17.813812060247667 $233 $438 forward 7 unknown #
point $-1 -66.707358012634671 -21.064481176765465 -15.423051018061846 #
point $-1 -66.707358012634671 -21.064481176765465 15.423051018061846 #
plane-surface $-1 0 0 15.423051018061846 0 0 1 1 0 0 forward_v I I I I #
coedge $-1 $359 $358 $351 $439 forward $239 $-1 #
coedge $-1 $351 $241 $243 $355 reversed $143 $-1 #
coedge $-1 $241 $350 $349 $439 reversed $143 $-1 #
coedge $-1 $249 $244 $241 $353 forward $250 $-1 #
edge $-1 $356 36.521253461672877 $440 41.575815752352845 $352 $441 forward 7 unknown #
coedge $-1 $243 $242 $359 $442 reversed $89 $-1 #
edge $-1 $443 -133.41471602526934 $356 -126.8164535095306 $350 $444 forward 7 unknown #
vertex $-1 $245 $445 #
straight-curve $-1 61.652795721954703 -11.43277187257506 15.423051018061855 0 -1 0 I I #
coedge $-1 $349 $246 $249 $363 reversed $239 $-1 #
coedge $-1 $246 $349 $354 $442 forward $239 $-1 #
vertex $-1 $247 $446 #
straight-curve $-1 66.707358012634671 -17.592054506350834 99.570348998648811 0 0 1 I I #
straight-curve $-1 -35.494242944371535 -17.592054506350834 96.939097040291415 0.76604443648966558 0 -0.64278761758704617 I I #
edge $-1 $440 -28.139032983949406 $251 -17.592054506350834 $358 $447 forward 7 unknown #
point $-1 66.707358012634671 -17.592054506350834 15.423051018061846 #
point $-1 61.652795721954703 -17.592054506350834 15.423051018061841 #
edge $-1 $448 1 $448 0 $254 $-1 forward 7 unknown #
vertex $-1 $255 $449 #
ellipse-curve $-1 63.537289249707669 -26.029637288429697 12.536365860219371 0.64278761758704617 0 0.76604443648966558 0.38302221824483279 0 -0.32139380879352308 1 I I #
point $-1 64.563099085539548 -26.029637288429697 12.981016487915515 #
edge $-1 $450 1 $450 0 $258 $-1 forward 7 unknown #
vertex $-1 $259 $451 #
ellipse-curve $-1 63.537289249707669 -22.865543745150124 12.536365860219371 0.64278761758704617 0 0.76604443648966558 0.38302221824483279 0 -0.32139380879352308 1 I I #
point $-1 64.563099085539548 -22.865543745150124 12.981016487915515 #
edge $-1 $452 1 $452 0 $262 $-1 forward 7 unknown #
vertex $-1 $263 $453 #
ellipse-curve $-1 63.537289249707669 -19.70145020187055 12.536365860219371 0.64278761758704617 0 0.76604443648966558 0.38302221824483279 0 -0.32139380879352308 1 I I #
point $-1 64.563099085539548 -19.70145020187055 12.981016487915515 #
plane-surface $-1 0 0 15.423051018061846 0 0 1 1 0 0 forward_v I I I I #
coedge $-1 $389 $388 $381 $454 forward $267 $-1 #
coedge $-1 $381 $269 $271 $385 reversed $172 $-1 #
coedge $-1 $269 $380 $379 $454 reversed $172 $-1 #
coedge $-1 $277 $272 $269 $383 forward $278 $-1 #
edge $-1 $386 36.521253461672877 $455 41.575815752352845 $382 $456 forward 7 unknown #
coedge $-1 $271 $270 $389 $457 reversed $108 $-1 #
edge $-1 $458 -133.41471602526934 $386 -126.8164535095306 $380 $459 forward 7 unknown #
vertex $-1 $273 $460 #
straight-curve $-1 61.652795721954703 11.432771872575064 15.423051018061855 0 -1 0 I I #
coedge $-1 $379 $274 $277 $393 reversed $267 $-1 #
coedge $-1 $274 $379 $384 $457 forward $267 $-1 #
vertex $-1 $275 $461 #
straight-curve $-1 66.707358012634671 28.139032983949413 99.570348998648811 0 0 1 I I #
straight-curve $-1 -35.494242944371535 28.139032983949413 96.939097040291415 0.76604443648966558 0 -0.64278761758704617 I I #
edge $-1 $455 17.592054506350841 $279 28.139032983949413 $388 $462 forward 7 unknown #
point $-1 66.707358012634671 28.139032983949413 15.423051018061846 #
point $-1 61.652795721954703 28.139032983949413 15.423051018061841 #
edge $-1 $463 1 $463 0 $282 $-1 forward 7 unknown #
vertex $-1 $283 $464 #
ellipse-curve $-1 63.537289249707669 19.70145020187055 12.536365860219371 0.64278761758704617 0 0.76604443648966558 0.38302221824483279 0 -0.32139380879352308 1 I I #
point $-1 64.563099085539548 19.70145020187055 12.981016487915515 #
edge $-1 $465 1 $465 0 $286 $-1 forward 7 unknown #
vertex $-1 $287 $466 #
ellipse-curve $-1 63.537289249707669 22.865543745150127 12.536365860219371 0.64278761758704617 0 0.76604443648966558 0.38302221824483279 0 -0.32139380879352308 1 I I #
point $-1 64.563099085539548 22.865543745150127 12.981016487915515 #
edge $-1 $467 1 $467 0 $290 $-1 forward 7 unknown #
vertex $-1 $291 $468 #
ellipse-curve $-1 63.537289249707669 26.029637288429697 12.536365860219371 0.64278761758704617 0 0.76604443648966558 0.38302221824483279 0 -0.32139380879352308 1 I I #
point $-1 64.563099085539548 26.029637288429697 12.981016487915515 #
plane-surface $-1 66.707358012634671 0 0 -1 0 0 0 0 1 forward_v I I I I #
coedge $-1 $299 $297 $301 $413 reversed $201 $-1 #
edge $-1 $312 -15.423051018061846 $415 15.423051018061846 $311 $469 forward 7 unknown #
vertex $-1 $413 $470 #
straight-curve $-1 -66.707358012634671 -34.702606140909204 0 0 0 -1 I I #
edge $-1 $411 -34.702606140909204 $415 34.702606140909204 $409 $471 forward 7 unknown #
straight-curve $-1 0 -34.702606140909204 -15.423051018061846 -1 0 0 I I #
vertex $-1 $304 $472 #
straight-curve $-1 0 34.702606140909204 -15.423051018061846 1 0 0 I I #
point $-1 66.707358012634671 34.702606140909204 -15.423051018061846 #
point $-1 66.707358012634671 -34.702606140909204 -15.423051018061846 #
straight-curve $-1 -66.707358012634671 0 15.423051018061846 0 -1 0 I I #
point $-1 -66.707358012634671 34.702606140909204 15.423051018061846 #
point $-1 -66.707358012634671 -34.702606140909204 15.423051018061846 #
straight-curve $-1 66.707358012634671 -34.702606140909204 0 0 0 -1 I I #
straight-curve $-1 66.707358012634671 34.702606140909204 0 0 0 -1 I I #
plane-surface $-1 -66.707358012634671 0 0 1 0 0 0 0 -1 forward_v I I I I #
edge $-1 $333 8.0942387509943838 $337 11.344907867512182 $336 $473 forward 7 unknown #
edge $-1 $341 -11.344907867512182 $332 -8.0942387509943838 $339 $474 forward 7 unknown #
straight-curve $-1 -51.827632176956598 -21.064481176765465 0 0 0 -1 I I #
edge $-1 $431 -15.423051018061846 $429 15.423051018061846 $343 $475 forward 7 unknown #
vertex $-1 $428 $476 #
straight-curve $-1 -29.633747547397817 -17.813812060247667 -15.423051018061846 1 0 0 I I #
vertex $-1 $344 $477 #
straight-curve $-1 -29.633747547397817 -17.813812060247667 15.423051018061846 -1 0 0 I I #
point $-1 -51.827632176956598 -17.813812060247667 15.423051018061846 #
point $-1 -51.827632176956598 -17.813812060247667 -15.423051018061846 #
point $-1 -51.827632176956598 -21.064481176765465 -15.423051018061846 #
point $-1 -51.827632176956598 -21.064481176765465 15.423051018061846 #
straight-curve $-1 -66.707358012634671 0 15.423051018061846 0 -1 0 I I #
straight-curve $-1 -66.707358012634671 0 -15.423051018061846 0 1 0 I I #
edge $-1 $440 84.14729798058697 $443 88.388579423292583 $349 $478 forward 7 unknown #
vertex $-1 $363 $479 #
straight-curve $-1 25.131542260281826 -28.139032983949406 15.423051018061841 1 0 0 I I #
edge $-1 $443 -16.706261111374346 $360 -6.1592826337757742 $359 $480 forward 7 unknown #
vertex $-1 $442 $481 #
straight-curve $-1 -35.494242944371535 -28.139032983949406 96.939097040291415 -0.76604443648966558 0 0.64278761758704617 I I #
point $-1 61.652795721954703 -28.139032983949406 15.423051018061841 #
point $-1 66.707358012634671 -17.592054506350834 11.181769575356228 #
straight-curve $-1 66.707358012634671 0 15.423051018061846 0 1 0 I I #
vertex $-1 $366 $482 #
point $-1 63.920311467952509 -26.029637288429697 12.214972051425848 #
vertex $-1 $370 $483 #
point $-1 63.920311467952509 -22.865543745150124 12.214972051425848 #
vertex $-1 $374 $484 #
point $-1 63.920311467952509 -19.70145020187055 12.214972051425848 #
edge $-1 $455 84.14729798058697 $458 88.388579423292583 $379 $485 forward 7 unknown #
vertex $-1 $393 $486 #
straight-curve $-1 25.131542260281826 17.592054506350841 15.423051018061841 1 0 0 I I #
edge $-1 $458 6.1592826337757778 $390 16.706261111374349 $389 $487 forward 7 unknown #
vertex $-1 $457 $488 #
straight-curve $-1 -35.494242944371535 17.592054506350841 96.939097040291415 -0.76604443648966558 0 0.64278761758704617 I I #
point $-1 61.652795721954703 17.592054506350841 15.423051018061841 #
point $-1 66.707358012634671 28.139032983949413 11.181769575356228 #
straight-curve $-1 66.707358012634671 0 15.423051018061846 0 1 0 I I #
vertex $-1 $396 $489 #
point $-1 63.920311467952509 19.70145020187055 12.214972051425848 #
vertex $-1 $400 $490 #
point $-1 63.920311467952509 22.865543745150127 12.214972051425848 #
vertex $-1 $404 $491 #
point $-1 63.920311467952509 26.029637288429697 12.214972051425848 #
straight-curve $-1 -66.707358012634671 34.702606140909204 0 0 0 -1 I I #
point $-1 -66.707358012634671 -34.702606140909204 -15.423051018061846 #
straight-curve $-1 -66.707358012634671 0 -15.423051018061846 0 1 0 I I #
point $-1 -66.707358012634671 34.702606140909204 -15.423051018061846 #
straight-curve $-1 -51.827632176956598 -9.719573309253283 -15.423051018061846 0 -1 0 I I #
straight-curve $-1 -51.827632176956598 -9.719573309253283 15.423051018061846 0 1 0 I I #
straight-curve $-1 -66.707358012634671 -17.813812060247667 0 0 0 -1 I I #
point $-1 -66.707358012634671 -17.813812060247667 -15.423051018061846 #
point $-1 -66.707358012634671 -17.813812060247667 15.423051018061846 #
straight-curve $-1 66.707358012634671 -28.139032983949406 99.570348998648811 0 0 -1 I I #
point $-1 66.707358012634671 -28.139032983949406 15.423051018061846 #
straight-curve $-1 66.707358012634657 -11.43277187257506 11.181769575356235 0 1 0 I I #
point $-1 66.707358012634671 -28.139032983949406 11.181769575356228 #
point $-1 63.215895440914153 -26.029637288429697 12.153343641974539 #
point $-1 63.215895440914153 -22.865543745150124 12.153343641974539 #
point $-1 63.215895440914153 -19.70145020187055 12.153343641974539 #
straight-curve $-1 66.707358012634671 17.592054506350841 99.570348998648811 0 0 -1 I I #
point $-1 66.707358012634671 17.592054506350841 15.423051018061846 #
straight-curve $-1 66.707358012634657 11.432771872575064 11.181769575356235 0 1 0 I I #
point $-1 66.707358012634671 17.592054506350841 11.181769575356228 #
point $-1 63.215895440914153 19.70145020187055 12.153343641974539 #
point $-1 63.215895440914153 22.865543745150127 12.153343641974539 #
point $-1 63.215895440914153 26.029637288429697 12.153343641974539 #
End-of-ACIS-data 