500 0 4 0           
7 Unknown 11 ACIS 5.0 NT 24 Thu Mar 25 21:16:20 1999 
-1 9.9999999999999995e-007 1e-010 
body $-1 $4 $-1 $5 #
body $-1 $6 $-1 $7 #
body $-1 $8 $-1 $9 #
body $-1 $10 $-1 $11 #
lump $-1 $-1 $12 $0 #
transform $-1 1 0 0 0 1 0 0 0 1 53.108310190130311 33.31315882305006 15.219112592472003 1 rotate no_reflect no_shear #
lump $-1 $-1 $13 $1 #
transform $-1 1 0 0 0 1 0 0 0 1 53.108310190130311 33.31315882305006 15.219112592472003 1 rotate no_reflect no_shear #
lump $-1 $-1 $14 $2 #
transform $-1 1 0 0 0 1 0 0 0 1 53.108310190130311 33.31315882305006 15.219112592472003 1 rotate no_reflect no_shear #
lump $-1 $-1 $15 $3 #
transform $-1 1 0 0 0 1 0 0 0 1 53.108310190130311 33.31315882305006 15.219112592472003 1 rotate no_reflect no_shear #
shell $-1 $-1 $-1 $16 $-1 $4 #
shell $-1 $-1 $-1 $17 $-1 $6 #
shell $-1 $-1 $-1 $18 $-1 $8 #
shell $-1 $-1 $-1 $19 $-1 $10 #
face $-1 $20 $21 $12 $-1 $22 forward single #
face $-1 $23 $24 $13 $-1 $25 reversed single #
face $-1 $26 $27 $14 $-1 $28 forward single #
face $-1 $29 $30 $15 $-1 $31 reversed single #
face $-1 $32 $33 $12 $-1 $34 reversed single #
loop $-1 $-1 $35 $16 #
plane-surface $-1 0 0 15.219112592472003 0 0 1 1 0 0 forward_v I I I I #
face $-1 $36 $37 $13 $-1 $38 forward single #
loop $-1 $-1 $39 $17 #
plane-surface $-1 -46.353248055730134 0 14.347291817310488 0 0 1 1 0 0 forward_v I I I I #
face $-1 $40 $41 $14 $-1 $42 forward single #
loop $-1 $-1 $43 $18 #
plane-surface $-1 42.629983623654851 29.905010187293389 150.18791284050943 0 -1 0 -0.6560590369687036 0 -0.75470957328743171 forward_v I I I I #
face $-1 $44 $45 $15 $-1 $46 reversed single #
loop $-1 $47 $48 $19 #
cone-surface $-1 41.91702603892054 22.927719691162814 4.7504388154269712 -0.6560590369687036 0 -0.75470957328743171 1.8867739332185793 0 -1.640147592421759 1 I I 0 1 2.5 forward I I I I #
face $-1 $49 $50 $12 $-1 $51 reversed single #
loop $-1 $-1 $52 $20 #
plane-surface $-1 0 0 -15.219112592472003 0 0 1 1 0 0 forward_v I I I I #
coedge $-1 $53 $54 $55 $56 forward $21 $-1 #
face $-1 $57 $58 $13 $-1 $59 forward single #
loop $-1 $-1 $60 $23 #
plane-surface $-1 -46.353248055730134 0 8.5569970376446207 0 0 1 1 0 0 forward_v I I I I #
coedge $-1 $61 $62 $63 $64 reversed $24 $-1 #
face $-1 $65 $66 $14 $-1 $67 forward single #
loop $-1 $-1 $68 $26 #
plane-surface $-1 -27.054390053089307 22.927719691162821 70.025212597289809 0.6560590369687036 0 0.75470957328743171 0.75470957328743171 0 -0.6560590369687036 forward_v I I I I #
coedge $-1 $69 $70 $71 $72 reversed $27 $-1 #
face $-1 $73 $74 $15 $-1 $75 forward single #
loop $-1 $76 $77 $29 #
cone-surface $-1 38.463415901876317 22.927719691162814 0.7775149077358261 -0.6560590369687036 0 -0.75470957328743171 0.94338696660928967 0 -0.8200737962108795 1 I I -0.70710678118654746 0.70710678118654746 1.25 forward I I I I #
loop $-1 $-1 $78 $19 #
coedge $-1 $48 $48 $79 $80 reversed $30 $-1 #
face $-1 $81 $82 $12 $-1 $83 reversed single #
loop $-1 $-1 $84 $32 #
plane-surface $-1 0 -33.31315882305006 0 0 1 0 0 0 1 forward_v I I I I #
coedge $-1 $85 $86 $87 $88 forward $33 $-1 #
coedge $-1 $89 $35 $90 $91 forward $21 $-1 #
coedge $-1 $35 $89 $92 $93 forward $21 $-1 #
coedge $-1 $94 $95 $35 $56 reversed $96 $-1 #
edge $-1 $97 -33.31315882305006 $98 33.31315882305006 $55 $99 forward 7 unknown #
face $-1 $100 $101 $13 $-1 $102 reversed single #
loop $-1 $-1 $103 $36 #
plane-surface $-1 -39.598185921329957 0 11.452144427477554 -1 0 0 0 0 1 forward_v I I I I #
coedge $-1 $104 $105 $106 $107 reversed $37 $-1 #
coedge $-1 $108 $39 $109 $110 reversed $24 $-1 #
coedge $-1 $39 $108 $111 $112 reversed $24 $-1 #
coedge $-1 $113 $103 $39 $64 forward $58 $-1 #
edge $-1 $114 -33.31315882305006 $115 33.31315882305006 $63 $116 forward 7 unknown #
face $-1 $117 $118 $14 $-1 $119 forward single #
loop $-1 $-1 $120 $40 #
plane-surface $-1 42.629983623654851 15.950429195032253 150.18791284050943 0 1 0 0.6560590369687036 0 0.75470957328743171 forward_v I I I I #
coedge $-1 $121 $122 $123 $124 reversed $41 $-1 #
coedge $-1 $70 $43 $122 $125 forward $27 $-1 #
coedge $-1 $43 $69 $126 $127 reversed $27 $-1 #
coedge $-1 $128 $123 $43 $72 forward $118 $-1 #
edge $-1 $129 14.677822757550054 $130 31.793318378302885 $71 $131 forward 7 unknown #
face $-1 $132 $133 $15 $-1 $134 forward single #
loop $-1 $-1 $135 $44 #
plane-surface $-1 42.629983623654851 29.905010187293389 150.18791284050943 0 -1 0 -0.6560590369687036 0 -0.75470957328743171 forward_v I I I I #
loop $-1 $-1 $136 $29 #
coedge $-1 $77 $77 $78 $137 forward $45 $-1 #
coedge $-1 $78 $78 $77 $137 reversed $47 $-1 #
coedge $-1 $79 $79 $48 $80 forward $133 $-1 #
edge $-1 $138 0 $138 6.2831853071796004 $79 $139 forward 7 unknown #
face $-1 $140 $141 $12 $-1 $142 reversed single #
loop $-1 $-1 $143 $49 #
plane-surface $-1 -53.108310190130311 0 0 1 0 0 0 0 -1 forward_v I I I I #
coedge $-1 $144 $92 $145 $146 forward $50 $-1 #
coedge $-1 $147 $52 $144 $148 forward $33 $-1 #
coedge $-1 $52 $147 $149 $150 forward $33 $-1 #
coedge $-1 $95 $94 $52 $88 reversed $96 $-1 #
edge $-1 $151 -33.31315882305006 $152 33.31315882305006 $87 $153 forward 7 unknown #
coedge $-1 $54 $53 $154 $155 forward $21 $-1 #
coedge $-1 $156 $157 $53 $91 reversed $141 $-1 #
edge $-1 $98 -53.108310190130311 $158 53.108310190130311 $90 $159 forward 7 unknown #
coedge $-1 $84 $160 $54 $93 reversed $50 $-1 #
edge $-1 $161 -53.108310190130311 $97 53.108310190130311 $92 $162 forward 7 unknown #
coedge $-1 $87 $55 $160 $163 forward $96 $-1 #
coedge $-1 $55 $87 $156 $164 reversed $96 $-1 #
loop $-1 $-1 $94 $140 #
vertex $-1 $56 $165 #
vertex $-1 $56 $166 #
straight-curve $-1 53.108310190130311 0 15.219112592472003 0 1 0 I I #
face $-1 $167 $168 $13 $-1 $102 reversed single #
loop $-1 $-1 $169 $57 #
plane-surface $-1 -53.108310190130311 0 0 1 0 0 0 0 -1 forward_v I I I I #
coedge $-1 $63 $106 $170 $171 reversed $58 $-1 #
coedge $-1 $172 $60 $173 $174 reversed $37 $-1 #
coedge $-1 $60 $172 $175 $176 reversed $37 $-1 #
coedge $-1 $103 $113 $60 $107 forward $58 $-1 #
edge $-1 $177 -33.31315882305006 $178 33.31315882305006 $106 $179 forward 7 unknown #
coedge $-1 $62 $61 $180 $181 reversed $24 $-1 #
coedge $-1 $170 $182 $61 $110 forward $183 $-1 #
edge $-1 $184 -29.931686162265244 $114 -16.42156189346489 $109 $185 forward 7 unknown #
coedge $-1 $186 $187 $62 $112 forward $188 $-1 #
edge $-1 $115 16.42156189346489 $189 29.931686162265244 $111 $190 forward 7 unknown #
coedge $-1 $106 $63 $187 $191 reversed $58 $-1 #
vertex $-1 $110 $192 #
vertex $-1 $112 $193 #
straight-curve $-1 -39.598185921329957 0 14.347291817310488 0 1 0 I I #
face $-1 $194 $195 $14 $-1 $196 reversed single #
loop $-1 $-1 $197 $65 #
plane-surface $-1 0 0 15.219112592472003 0 0 1 1 0 0 forward_v I I I I #
coedge $-1 $198 $199 $197 $200 reversed $66 $-1 #
coedge $-1 $201 $68 $199 $202 reversed $41 $-1 #
coedge $-1 $68 $201 $69 $125 reversed $41 $-1 #
coedge $-1 $71 $197 $68 $124 forward $118 $-1 #
edge $-1 $203 4.4865693494508427 $129 18.441150341711978 $123 $204 forward 7 unknown #
edge $-1 $129 83.538366086758543 $205 106.21662038026062 $69 $206 forward 7 unknown #
coedge $-1 $207 $208 $70 $127 forward $209 $-1 #
edge $-1 $130 59.874843827782712 $205 74.753117499709063 $126 $210 forward 7 unknown #
coedge $-1 $211 $71 $208 $212 forward $118 $-1 #
vertex $-1 $124 $213 #
vertex $-1 $212 $214 #
straight-curve $-1 21.314991811827426 29.905010187293389 15.219112592472001 1 0 0 I I #
face $-1 $215 $216 $15 $-1 $217 forward single #
loop $-1 $218 $79 $73 #
plane-surface $-1 -27.054390053089307 22.927719691162821 70.025212597289809 0.6560590369687036 0 0.75470957328743171 0.75470957328743171 0 -0.6560590369687036 forward_v I I I I #
coedge $-1 $219 $220 $221 $222 reversed $74 $-1 #
coedge $-1 $136 $136 $-1 $223 forward $76 $-1 #
edge $-1 $224 0 $224 6.2831853071796004 $77 $225 forward 7 unknown #
vertex $-1 $80 $226 #
ellipse-curve $-1 44.550562379753885 22.927719691162814 7.7799757565088301 -0.6560590369687036 0 -0.75470957328743171 1.8867739332185793 0 -1.640147592421759 1 I I #
face $-1 $-1 $96 $12 $-1 $227 reversed single #
loop $-1 $-1 $156 $81 #
plane-surface $-1 0 33.31315882305006 0 0 -1 0 0 0 -1 forward_v I I I I #
coedge $-1 $228 $154 $157 $229 forward $82 $-1 #
coedge $-1 $160 $84 $85 $148 reversed $50 $-1 #
coedge $-1 $154 $228 $84 $146 reversed $82 $-1 #
edge $-1 $161 -15.219112592472003 $230 15.219112592472003 $145 $231 forward 7 unknown #
coedge $-1 $86 $85 $228 $232 forward $33 $-1 #
edge $-1 $152 -53.108310190130311 $230 53.108310190130311 $144 $233 forward 7 unknown #
coedge $-1 $157 $156 $86 $150 reversed $141 $-1 #
edge $-1 $234 -53.108310190130311 $151 53.108310190130311 $149 $235 forward 7 unknown #
vertex $-1 $88 $236 #
vertex $-1 $163 $237 #
straight-curve $-1 53.108310190130311 0 -15.219112592472003 0 -1 0 I I #
coedge $-1 $143 $145 $89 $155 reversed $82 $-1 #
edge $-1 $158 -33.31315882305006 $161 33.31315882305006 $154 $238 forward 7 unknown #
coedge $-1 $149 $90 $95 $164 forward $141 $-1 #
coedge $-1 $90 $149 $143 $229 reversed $141 $-1 #
vertex $-1 $91 $239 #
straight-curve $-1 0 33.31315882305006 15.219112592472003 -1 0 0 I I #
coedge $-1 $92 $144 $94 $163 reversed $50 $-1 #
vertex $-1 $155 $240 #
straight-curve $-1 0 -33.31315882305006 15.219112592472003 1 0 0 I I #
edge $-1 $97 -15.219112592472003 $152 15.219112592472003 $94 $241 forward 7 unknown #
edge $-1 $98 -15.219112592472003 $151 15.219112592472003 $95 $242 forward 7 unknown #
point $-1 53.108310190130311 -33.31315882305006 15.219112592472003 #
point $-1 53.108310190130311 33.31315882305006 15.219112592472003 #
face $-1 $243 $183 $13 $-1 $244 reversed single #
loop $-1 $-1 $180 $100 #
coedge $-1 $245 $246 $172 $247 forward $101 $-1 #
coedge $-1 $175 $109 $103 $171 forward $183 $-1 #
edge $-1 $114 -8.6212196035717099 $178 -2.8309248239058435 $170 $248 forward 7 unknown #
coedge $-1 $105 $104 $169 $247 reversed $37 $-1 #
coedge $-1 $187 $249 $104 $174 forward $188 $-1 #
edge $-1 $250 -29.931686162265244 $177 -16.42156189346489 $173 $251 forward 7 unknown #
coedge $-1 $252 $170 $105 $176 forward $183 $-1 #
edge $-1 $178 16.42156189346489 $253 29.931686162265244 $175 $254 forward 7 unknown #
vertex $-1 $174 $255 #
vertex $-1 $176 $256 #
straight-curve $-1 -39.598185921329957 0 8.5569970376446207 0 -1 0 I I #
coedge $-1 $257 $258 $108 $181 forward $168 $-1 #
edge $-1 $189 -33.31315882305006 $184 33.31315882305006 $180 $259 forward 7 unknown #
coedge $-1 $109 $260 $257 $261 forward $183 $-1 #
loop $-1 $-1 $109 $167 #
vertex $-1 $110 $262 #
straight-curve $-1 -23.176624027865067 -33.31315882305006 14.347291817310488 1 0 0 I I #
coedge $-1 $263 $111 $258 $264 reversed $188 $-1 #
coedge $-1 $111 $173 $113 $191 forward $188 $-1 #
loop $-1 $-1 $111 $265 #
vertex $-1 $181 $266 #
straight-curve $-1 -23.176624027865067 33.31315882305006 14.347291817310488 -1 0 0 I I #
edge $-1 $177 2.8309248239058435 $115 8.6212196035717099 $187 $267 forward 7 unknown #
point $-1 -39.598185921329957 -33.31315882305006 14.347291817310488 #
point $-1 -39.598185921329957 33.31315882305006 14.347291817310488 #
face $-1 $268 $269 $14 $-1 $270 forward single #
loop $-1 $-1 $271 $117 #
plane-surface $-1 -46.353248055730134 0 14.347291817310488 0 0 1 1 0 0 forward_v I I I I #
coedge $-1 $123 $272 $120 $200 forward $118 $-1 #
coedge $-1 $199 $120 $273 $274 reversed $66 $-1 #
coedge $-1 $120 $198 $121 $202 forward $66 $-1 #
edge $-1 $275 -31.793318378302885 $203 -14.677822757550054 $197 $276 forward 7 unknown #
coedge $-1 $122 $121 $207 $277 reversed $41 $-1 #
edge $-1 $278 -106.21662038026062 $203 -83.538366086758543 $199 $279 forward 7 unknown #
vertex $-1 $124 $280 #
straight-curve $-1 35.992814569377465 11.46385984558141 15.219112592472008 0 1 0 I I #
vertex $-1 $277 $281 #
straight-curve $-1 -27.054390053089307 29.905010187293389 70.025212597289809 0.75470957328743171 0 -0.6560590369687036 I I #
coedge $-1 $273 $126 $201 $277 forward $209 $-1 #
coedge $-1 $126 $282 $128 $212 reversed $209 $-1 #
loop $-1 $-1 $273 $283 #
straight-curve $-1 53.108310190130311 29.905010187293389 75.093956420254713 0 0 -1 I I #
coedge $-1 $284 $128 $285 $286 forward $118 $-1 #
edge $-1 $130 29.905010187293389 $287 33.31315882305006 $208 $288 forward 7 unknown #
point $-1 35.992814569377479 29.905010187293389 15.219112592472001 #
point $-1 53.108310190130311 29.905010187293389 15.219112592472003 #
face $-1 $289 $290 $15 $-1 $291 forward single #
loop $-1 $-1 $292 $132 #
plane-surface $-1 42.629983623654851 15.950429195032253 150.18791284050943 0 1 0 0.6560590369687036 0 0.75470957328743171 forward_v I I I I #
loop $-1 $-1 $293 $73 #
coedge $-1 $220 $135 $294 $295 forward $74 $-1 #
coedge $-1 $135 $219 $296 $297 reversed $74 $-1 #
coedge $-1 $298 $299 $135 $222 forward $290 $-1 #
edge $-1 $300 14.677822757550054 $301 31.793318378302885 $221 $302 forward 7 unknown #
edge $-1 $303 1 $303 0 $136 $-1 forward 7 unknown #
vertex $-1 $137 $304 #
ellipse-curve $-1 39.283489698087195 22.927719691162814 1.7209018743451159 0.6560590369687036 0 0.75470957328743171 1.8867739332185793 0 -1.640147592421759 1 I I #
point $-1 46.437336312972455 22.927719691162814 6.1398281640870671 #
plane-surface $-1 53.108310190130311 0 0 -1 0 0 0 0 1 forward_v I I I I #
coedge $-1 $145 $143 $147 $232 reversed $82 $-1 #
edge $-1 $158 -15.219112592472003 $234 15.219112592472003 $157 $305 forward 7 unknown #
vertex $-1 $232 $306 #
straight-curve $-1 -53.108310190130311 -33.31315882305006 0 0 0 -1 I I #
edge $-1 $230 -33.31315882305006 $234 33.31315882305006 $228 $307 forward 7 unknown #
straight-curve $-1 0 -33.31315882305006 -15.219112592472003 -1 0 0 I I #
vertex $-1 $150 $308 #
straight-curve $-1 0 33.31315882305006 -15.219112592472003 1 0 0 I I #
point $-1 53.108310190130311 33.31315882305006 -15.219112592472003 #
point $-1 53.108310190130311 -33.31315882305006 -15.219112592472003 #
straight-curve $-1 -53.108310190130311 0 15.219112592472003 0 -1 0 I I #
point $-1 -53.108310190130311 33.31315882305006 15.219112592472003 #
point $-1 -53.108310190130311 -33.31315882305006 15.219112592472003 #
straight-curve $-1 53.108310190130311 -33.31315882305006 0 0 0 -1 I I #
straight-curve $-1 53.108310190130311 33.31315882305006 0 0 0 -1 I I #
face $-1 $309 $310 $13 $-1 $311 forward single #
plane-surface $-1 0 -33.31315882305006 0 0 1 0 0 0 1 forward_v I I I I #
coedge $-1 $312 $169 $249 $313 forward $101 $-1 #
coedge $-1 $169 $312 $252 $314 reversed $101 $-1 #
edge $-1 $253 -33.31315882305006 $250 33.31315882305006 $169 $315 forward 7 unknown #
straight-curve $-1 -39.598185921329957 -33.31315882305006 5.7260722137387772 0 0 -1 I I #
coedge $-1 $173 $316 $245 $313 reversed $188 $-1 #
vertex $-1 $313 $317 #
straight-curve $-1 -23.176624027865067 33.31315882305006 8.5569970376446207 1 0 0 I I #
coedge $-1 $318 $175 $246 $314 forward $183 $-1 #
vertex $-1 $314 $319 #
straight-curve $-1 -23.176624027865067 -33.31315882305006 8.5569970376446207 -1 0 0 I I #
point $-1 -39.598185921329957 33.31315882305006 8.5569970376446207 #
point $-1 -39.598185921329957 -33.31315882305006 8.5569970376446207 #
coedge $-1 $320 $180 $182 $261 reversed $168 $-1 #
coedge $-1 $180 $320 $186 $264 forward $168 $-1 #
straight-curve $-1 -53.108310190130311 0 14.347291817310488 0 -1 0 I I #
coedge $-1 $182 $321 $322 $323 reversed $183 $-1 #
edge $-1 $324 -15.219112592472003 $184 -14.347291817310488 $257 $325 forward 7 unknown #
point $-1 -53.108310190130311 -33.31315882305006 14.347291817310488 #
coedge $-1 $326 $186 $327 $328 reversed $188 $-1 #
edge $-1 $329 -15.219112592472003 $189 -14.347291817310488 $186 $330 forward 7 unknown #
face $-1 $331 $188 $13 $-1 $332 reversed single #
point $-1 -53.108310190130311 33.31315882305006 14.347291817310488 #
straight-curve $-1 -39.598185921329957 33.31315882305006 5.7260722137387772 0 0 1 I I #
face $-1 $333 $334 $14 $-1 $335 forward single #
loop $-1 $-1 $336 $194 #
plane-surface $-1 -46.353248055730134 0 8.5569970376446207 0 0 1 1 0 0 forward_v I I I I #
coedge $-1 $337 $338 $339 $340 reversed $195 $-1 #
coedge $-1 $197 $341 $342 $343 forward $118 $-1 #
coedge $-1 $342 $207 $198 $274 forward $209 $-1 #
edge $-1 $278 -74.753117499709063 $275 -59.874843827782712 $273 $344 forward 7 unknown #
vertex $-1 $274 $345 #
straight-curve $-1 21.314991811827426 15.950429195032253 15.219112592472001 -1 0 0 I I #
edge $-1 $205 -18.441150341711978 $278 -4.4865693494508427 $207 $346 forward 7 unknown #
vertex $-1 $277 $347 #
straight-curve $-1 -27.054390053089307 15.950429195032253 70.025212597289809 -0.75470957328743171 0 0.6560590369687036 I I #
point $-1 35.992814569377479 15.950429195032253 15.219112592472001 #
point $-1 53.108310190130311 29.905010187293389 0.34083892054565013 #
coedge $-1 $208 $348 $349 $350 reversed $209 $-1 #
face $-1 $-1 $209 $14 $-1 $351 reversed single #
coedge $-1 $341 $211 $352 $353 forward $118 $-1 #
coedge $-1 $349 $354 $211 $286 reversed $355 $-1 #
edge $-1 $287 -53.108310190130311 $356 53.108310190130311 $285 $357 forward 7 unknown #
vertex $-1 $212 $358 #
straight-curve $-1 53.108310190130311 0 15.219112592472003 0 1 0 I I #
face $-1 $359 $360 $15 $-1 $361 reversed single #
loop $-1 $-1 $362 $215 #
plane-surface $-1 0 0 15.219112592472003 0 0 1 1 0 0 forward_v I I I I #
coedge $-1 $363 $364 $362 $365 reversed $216 $-1 #
coedge $-1 $366 $294 $299 $367 reversed $218 $-1 #
coedge $-1 $293 $368 $219 $295 reversed $218 $-1 #
edge $-1 $300 83.538366086758543 $369 106.21662038026062 $219 $370 forward 7 unknown #
coedge $-1 $371 $372 $220 $297 forward $373 $-1 #
edge $-1 $301 59.874843827782712 $369 74.753117499709063 $296 $374 forward 7 unknown #
coedge $-1 $375 $221 $372 $376 forward $290 $-1 #
coedge $-1 $221 $362 $293 $367 forward $290 $-1 #
vertex $-1 $367 $377 #
vertex $-1 $376 $378 #
straight-curve $-1 21.314991811827426 29.905010187293389 15.219112592472001 1 0 0 I I #
vertex $-1 $223 $379 #
point $-1 41.170263631305772 22.927719691162814 0.080754281923356763 #
straight-curve $-1 -53.108310190130311 33.31315882305006 0 0 0 -1 I I #
point $-1 -53.108310190130311 -33.31315882305006 -15.219112592472003 #
straight-curve $-1 -53.108310190130311 0 -15.219112592472003 0 1 0 I I #
point $-1 -53.108310190130311 33.31315882305006 -15.219112592472003 #
face $-1 $265 $380 $13 $-1 $381 reversed single #
loop $-1 $-1 $382 $243 #
plane-surface $-1 0 0 15.219112592472003 0 0 1 1 0 0 forward_v I I I I #
coedge $-1 $246 $245 $383 $384 reversed $101 $-1 #
edge $-1 $250 -8.5569970376446207 $385 15.219112592472003 $249 $330 forward 7 unknown #
edge $-1 $253 -8.5569970376446207 $386 15.219112592472003 $246 $325 forward 7 unknown #
straight-curve $-1 -53.108310190130311 0 8.5569970376446207 0 1 0 I I #
coedge $-1 $249 $326 $387 $388 reversed $188 $-1 #
point $-1 -53.108310190130311 33.31315882305006 8.5569970376446207 #
coedge $-1 $321 $252 $389 $390 reversed $183 $-1 #
point $-1 -53.108310190130311 -33.31315882305006 8.5569970376446207 #
coedge $-1 $258 $257 $391 $392 reversed $168 $-1 #
coedge $-1 $260 $318 $393 $394 reversed $183 $-1 #
coedge $-1 $382 $391 $260 $323 forward $310 $-1 #
edge $-1 $324 -53.108310190130311 $395 53.108310190130311 $260 $396 forward 7 unknown #
vertex $-1 $392 $397 #
straight-curve $-1 -53.108310190130311 -33.31315882305006 0 0 0 -1 I I #
coedge $-1 $316 $263 $398 $399 forward $188 $-1 #
coedge $-1 $391 $382 $263 $328 forward $310 $-1 #
edge $-1 $400 -53.108310190130311 $329 53.108310190130311 $263 $401 forward 7 unknown #
vertex $-1 $328 $402 #
straight-curve $-1 -53.108310190130311 33.31315882305006 0 0 0 -1 I I #
face $-1 $-1 $403 $13 $-1 $404 reversed single #
plane-surface $-1 0 33.31315882305006 0 0 -1 0 0 0 -1 forward_v I I I I #
face $-1 $405 $406 $14 $-1 $407 reversed single #
loop $-1 $-1 $408 $268 #
plane-surface $-1 -39.598185921329957 0 11.452144427477554 -1 0 0 0 0 1 forward_v I I I I #
coedge $-1 $409 $410 $411 $412 reversed $269 $-1 #
coedge $-1 $413 $271 $414 $415 reversed $195 $-1 #
coedge $-1 $271 $413 $416 $417 reversed $195 $-1 #
coedge $-1 $418 $408 $271 $340 forward $334 $-1 #
edge $-1 $419 -33.31315882305006 $420 33.31315882305006 $339 $421 forward 7 unknown #
coedge $-1 $272 $284 $422 $423 forward $118 $-1 #
coedge $-1 $424 $273 $272 $343 reversed $209 $-1 #
edge $-1 $425 -33.31315882305006 $275 15.950429195032253 $342 $288 forward 7 unknown #
straight-curve $-1 53.108310190130311 15.950429195032253 75.093956420254713 0 0 1 I I #
point $-1 53.108310190130311 15.950429195032253 15.219112592472003 #
straight-curve $-1 53.108310190130311 11.46385984558141 0.34083892054565013 0 -1 0 I I #
point $-1 53.108310190130311 15.950429195032253 0.34083892054565013 #
coedge $-1 $282 $424 $426 $427 reversed $209 $-1 #
coedge $-1 $428 $285 $282 $350 forward $355 $-1 #
edge $-1 $287 -15.219112592472003 $429 15.219112592472003 $282 $430 forward 7 unknown #
plane-surface $-1 53.108310190130311 0 0 -1 0 0 0 0 1 forward_v I I I I #
coedge $-1 $431 $432 $284 $353 reversed $433 $-1 #
edge $-1 $356 -33.31315882305006 $434 33.31315882305006 $352 $435 forward 7 unknown #
coedge $-1 $285 $416 $431 $436 reversed $355 $-1 #
loop $-1 $-1 $416 $437 #
vertex $-1 $286 $438 #
straight-curve $-1 0 33.31315882305006 15.219112592472003 -1 0 0 I I #
point $-1 53.108310190130311 33.31315882305006 15.219112592472003 #
face $-1 $439 $440 $15 $-1 $441 forward single #
loop $-1 $-1 $442 $289 #
plane-surface $-1 -46.353248055730134 0 14.347291817310488 0 0 1 1 0 0 forward_v I I I I #
coedge $-1 $299 $443 $292 $365 forward $290 $-1 #
coedge $-1 $364 $292 $444 $445 reversed $216 $-1 #
coedge $-1 $292 $363 $366 $446 forward $216 $-1 #
edge $-1 $447 -31.793318378302885 $448 -14.677822757550054 $362 $449 forward 7 unknown #
coedge $-1 $368 $293 $364 $446 reversed $218 $-1 #
edge $-1 $448 4.4865693494508427 $300 18.441150341711978 $299 $450 forward 7 unknown #
coedge $-1 $294 $366 $371 $451 reversed $218 $-1 #
vertex $-1 $451 $452 #
straight-curve $-1 -27.054390053089307 29.905010187293389 70.025212597289809 0.75470957328743171 0 -0.6560590369687036 I I #
coedge $-1 $444 $296 $368 $451 forward $373 $-1 #
coedge $-1 $296 $453 $298 $376 reversed $373 $-1 #
loop $-1 $-1 $444 $454 #
straight-curve $-1 53.108310190130311 29.905010187293389 75.093956420254713 0 0 -1 I I #
coedge $-1 $455 $298 $456 $457 forward $290 $-1 #
edge $-1 $301 29.905010187293389 $458 33.31315882305006 $372 $459 forward 7 unknown #
point $-1 35.992814569377479 29.905010187293389 15.219112592472001 #
point $-1 53.108310190130311 29.905010187293389 15.219112592472003 #
point $-1 37.64334210566544 22.927719691162814 -0.16587205887346357 #
loop $-1 $-1 $460 $309 #
plane-surface $-1 0 0 -15.219112592472003 0 0 1 1 0 0 forward_v I I I I #
coedge $-1 $327 $322 $461 $462 forward $310 $-1 #
coedge $-1 $387 $389 $312 $384 forward $380 $-1 #
edge $-1 $386 -33.31315882305006 $385 33.31315882305006 $312 $463 forward 7 unknown #
vertex $-1 $388 $464 #
vertex $-1 $384 $465 #
coedge $-1 $460 $383 $316 $388 forward $380 $-1 #
edge $-1 $385 -53.108310190130311 $466 53.108310190130311 $316 $467 forward 7 unknown #
coedge $-1 $383 $460 $318 $390 forward $380 $-1 #
edge $-1 $468 -53.108310190130311 $386 53.108310190130311 $318 $469 forward 7 unknown #
coedge $-1 $322 $327 $320 $392 forward $310 $-1 #
edge $-1 $329 -33.31315882305006 $324 33.31315882305006 $320 $470 forward 7 unknown #
coedge $-1 $471 $461 $321 $394 forward $403 $-1 #
edge $-1 $395 -15.219112592472003 $468 15.219112592472003 $393 $472 forward 7 unknown #
vertex $-1 $462 $473 #
straight-curve $-1 0 -33.31315882305006 15.219112592472003 1 0 0 I I #
point $-1 -53.108310190130311 -33.31315882305006 15.219112592472003 #
coedge $-1 $461 $471 $326 $399 reversed $403 $-1 #
edge $-1 $400 -15.219112592472003 $466 15.219112592472003 $398 $474 forward 7 unknown #
vertex $-1 $462 $475 #
straight-curve $-1 0 33.31315882305006 15.219112592472003 -1 0 0 I I #
point $-1 -53.108310190130311 33.31315882305006 15.219112592472003 #
loop $-1 $-1 $393 $331 #
plane-surface $-1 53.108310190130311 0 0 -1 0 0 0 0 1 forward_v I I I I #
face $-1 $476 $433 $14 $-1 $407 reversed single #
loop $-1 $-1 $477 $333 #
plane-surface $-1 -53.108310190130311 0 0 1 0 0 0 0 -1 forward_v I I I I #
coedge $-1 $339 $411 $478 $479 reversed $334 $-1 #
coedge $-1 $480 $336 $481 $482 reversed $269 $-1 #
coedge $-1 $336 $480 $483 $484 reversed $269 $-1 #
coedge $-1 $408 $418 $336 $412 forward $334 $-1 #
edge $-1 $485 -33.31315882305006 $486 33.31315882305006 $411 $487 forward 7 unknown #
coedge $-1 $338 $337 $488 $489 reversed $195 $-1 #
coedge $-1 $478 $490 $337 $415 forward $491 $-1 #
edge $-1 $492 -29.931686162265244 $419 -16.42156189346489 $414 $493 forward 7 unknown #
coedge $-1 $354 $494 $338 $417 forward $355 $-1 #
edge $-1 $420 16.42156189346489 $495 29.931686162265244 $416 $496 forward 7 unknown #
coedge $-1 $411 $339 $494 $497 reversed $334 $-1 #
vertex $-1 $415 $498 #
vertex $-1 $417 $499 #
straight-curve $-1 -39.598185921329957 0 14.347291817310488 0 1 0 I I #
coedge $-1 $490 $500 $341 $423 reversed $491 $-1 #
edge $-1 $434 -53.108310190130311 $425 53.108310190130311 $422 $501 forward 7 unknown #
coedge $-1 $348 $342 $500 $502 forward $209 $-1 #
vertex $-1 $343 $503 #
coedge $-1 $504 $505 $348 $427 forward $506 $-1 #
edge $-1 $429 -33.31315882305006 $507 33.31315882305006 $348 $508 forward 7 unknown #
coedge $-1 $509 $349 $505 $510 reversed $355 $-1 #
vertex $-1 $427 $511 #
straight-curve $-1 53.108310190130311 33.31315882305006 0 0 0 -1 I I #
coedge $-1 $488 $352 $354 $436 forward $433 $-1 #
coedge $-1 $352 $488 $490 $512 reversed $433 $-1 #
loop $-1 $-1 $488 $405 #
vertex $-1 $353 $513 #
straight-curve $-1 -53.108310190130311 0 15.219112592472003 0 -1 0 I I #
edge $-1 $356 -15.219112592472003 $495 -14.347291817310488 $354 $514 forward 7 unknown #
face $-1 $283 $355 $14 $-1 $515 reversed single #
point $-1 -53.108310190130311 33.31315882305006 15.219112592472003 #
face $-1 $516 $517 $15 $-1 $518 forward single #
loop $-1 $-1 $519 $359 #
plane-surface $-1 -46.353248055730134 0 8.5569970376446207 0 0 1 1 0 0 forward_v I I I I #
coedge $-1 $520 $521 $522 $523 reversed $360 $-1 #
coedge $-1 $362 $524 $525 $526 forward $290 $-1 #
coedge $-1 $525 $371 $363 $445 forward $373 $-1 #
edge $-1 $527 -74.753117499709063 $447 -59.874843827782712 $444 $528 forward 7 unknown #
edge $-1 $527 -106.21662038026062 $448 -83.538366086758543 $364 $529 forward 7 unknown #
vertex $-1 $445 $530 #
vertex $-1 $367 $531 #
straight-curve $-1 21.314991811827426 15.950429195032253 15.219112592472001 -1 0 0 I I #
straight-curve $-1 35.992814569377465 11.46385984558141 15.219112592472008 0 1 0 I I #
edge $-1 $369 -18.441150341711978 $527 -4.4865693494508427 $371 $532 forward 7 unknown #
point $-1 53.108310190130311 29.905010187293389 0.34083892054565013 #
coedge $-1 $372 $533 $534 $535 reversed $373 $-1 #
face $-1 $-1 $373 $15 $-1 $536 reversed single #
coedge $-1 $524 $375 $537 $538 forward $290 $-1 #
coedge $-1 $534 $539 $375 $457 reversed $540 $-1 #
edge $-1 $458 -53.108310190130311 $541 53.108310190130311 $456 $542 forward 7 unknown #
vertex $-1 $376 $543 #
straight-curve $-1 53.108310190130311 0 15.219112592472003 0 1 0 I I #
coedge $-1 $389 $387 $471 $544 forward $380 $-1 #
coedge $-1 $393 $398 $382 $462 reversed $403 $-1 #
edge $-1 $395 -33.31315882305006 $400 33.31315882305006 $461 $545 forward 7 unknown #
straight-curve $-1 -53.108310190130311 0 -15.219112592472003 0 1 0 I I #
point $-1 -53.108310190130311 33.31315882305006 -15.219112592472003 #
point $-1 -53.108310190130311 -33.31315882305006 -15.219112592472003 #
vertex $-1 $544 $546 #
straight-curve $-1 0 33.31315882305006 -15.219112592472003 1 0 0 I I #
vertex $-1 $394 $547 #
straight-curve $-1 0 -33.31315882305006 -15.219112592472003 -1 0 0 I I #
straight-curve $-1 -53.108310190130311 0 15.219112592472003 0 -1 0 I I #
coedge $-1 $398 $393 $460 $544 reversed $403 $-1 #
straight-curve $-1 53.108310190130311 -33.31315882305006 0 0 0 -1 I I #
point $-1 53.108310190130311 -33.31315882305006 15.219112592472003 #
straight-curve $-1 53.108310190130311 33.31315882305006 0 0 0 -1 I I #
point $-1 53.108310190130311 33.31315882305006 15.219112592472003 #
face $-1 $548 $491 $14 $-1 $549 reversed single #
coedge $-1 $550 $551 $480 $552 forward $406 $-1 #
coedge $-1 $483 $414 $408 $479 forward $491 $-1 #
edge $-1 $419 -8.6212196035717099 $486 -2.8309248239058435 $478 $553 forward 7 unknown #
coedge $-1 $410 $409 $477 $552 reversed $269 $-1 #
coedge $-1 $494 $509 $409 $482 forward $355 $-1 #
edge $-1 $554 -29.931686162265244 $485 -16.42156189346489 $481 $555 forward 7 unknown #
coedge $-1 $556 $478 $410 $484 forward $491 $-1 #
edge $-1 $486 16.42156189346489 $557 29.931686162265244 $483 $558 forward 7 unknown #
vertex $-1 $482 $559 #
vertex $-1 $484 $560 #
straight-curve $-1 -39.598185921329957 0 8.5569970376446207 0 -1 0 I I #
coedge $-1 $432 $431 $413 $489 forward $433 $-1 #
edge $-1 $495 -33.31315882305006 $492 33.31315882305006 $488 $561 forward 7 unknown #
coedge $-1 $414 $422 $432 $512 forward $491 $-1 #
loop $-1 $-1 $414 $476 #
vertex $-1 $415 $562 #
straight-curve $-1 -23.176624027865067 -33.31315882305006 14.347291817310488 1 0 0 I I #
coedge $-1 $416 $481 $418 $497 forward $355 $-1 #
vertex $-1 $489 $563 #
straight-curve $-1 -23.176624027865067 33.31315882305006 14.347291817310488 -1 0 0 I I #
edge $-1 $485 2.8309248239058435 $420 8.6212196035717099 $494 $564 forward 7 unknown #
point $-1 -39.598185921329957 -33.31315882305006 14.347291817310488 #
point $-1 -39.598185921329957 33.31315882305006 14.347291817310488 #
coedge $-1 $422 $565 $424 $502 reversed $491 $-1 #
straight-curve $-1 0 -33.31315882305006 15.219112592472003 1 0 0 I I #
edge $-1 $425 -15.219112592472003 $507 15.219112592472003 $424 $566 forward 7 unknown #
point $-1 53.108310190130311 -33.31315882305006 15.219112592472003 #
coedge $-1 $567 $426 $565 $568 forward $506 $-1 #
coedge $-1 $426 $567 $428 $510 forward $506 $-1 #
loop $-1 $-1 $426 $548 #
vertex $-1 $502 $569 #
straight-curve $-1 53.108310190130311 0 -15.219112592472003 0 -1 0 I I #
coedge $-1 $481 $428 $550 $570 reversed $355 $-1 #
edge $-1 $571 -53.108310190130311 $429 53.108310190130311 $428 $572 forward 7 unknown #
point $-1 53.108310190130311 33.31315882305006 -15.219112592472003 #
edge $-1 $434 -15.219112592472003 $492 -14.347291817310488 $432 $573 forward 7 unknown #
point $-1 -53.108310190130311 -33.31315882305006 15.219112592472003 #
straight-curve $-1 -53.108310190130311 33.31315882305006 0 0 0 -1 I I #
plane-surface $-1 0 33.31315882305006 0 0 -1 0 0 0 -1 forward_v I I I I #
face $-1 $574 $575 $15 $-1 $576 reversed single #
loop $-1 $-1 $577 $439 #
plane-surface $-1 -39.598185921329957 0 11.452144427477554 -1 0 0 0 0 1 forward_v I I I I #
coedge $-1 $578 $579 $580 $581 reversed $440 $-1 #
coedge $-1 $582 $442 $583 $584 reversed $360 $-1 #
coedge $-1 $442 $582 $585 $586 reversed $360 $-1 #
coedge $-1 $587 $577 $442 $523 forward $517 $-1 #
edge $-1 $588 -33.31315882305006 $589 33.31315882305006 $522 $590 forward 7 unknown #
coedge $-1 $443 $455 $591 $592 forward $290 $-1 #
coedge $-1 $593 $444 $443 $526 reversed $373 $-1 #
edge $-1 $594 -33.31315882305006 $447 15.950429195032253 $525 $459 forward 7 unknown #
vertex $-1 $451 $595 #
straight-curve $-1 53.108310190130311 15.950429195032253 75.093956420254713 0 0 1 I I #
straight-curve $-1 -27.054390053089307 15.950429195032253 70.025212597289809 -0.75470957328743171 0 0.6560590369687036 I I #
point $-1 53.108310190130311 15.950429195032253 15.219112592472003 #
point $-1 35.992814569377479 15.950429195032253 15.219112592472001 #
straight-curve $-1 53.108310190130311 11.46385984558141 0.34083892054565013 0 -1 0 I I #
coedge $-1 $453 $593 $596 $597 reversed $373 $-1 #
coedge $-1 $598 $456 $453 $535 forward $540 $-1 #
edge $-1 $458 -15.219112592472003 $599 15.219112592472003 $453 $600 forward 7 unknown #
plane-surface $-1 53.108310190130311 0 0 -1 0 0 0 0 1 forward_v I I I I #
coedge $-1 $601 $602 $455 $538 reversed $603 $-1 #
edge $-1 $541 -33.31315882305006 $604 33.31315882305006 $537 $605 forward 7 unknown #
coedge $-1 $456 $585 $601 $606 reversed $540 $-1 #
loop $-1 $-1 $585 $607 #
vertex $-1 $457 $608 #
straight-curve $-1 0 33.31315882305006 15.219112592472003 -1 0 0 I I #
point $-1 53.108310190130311 33.31315882305006 15.219112592472003 #
edge $-1 $466 -33.31315882305006 $468 33.31315882305006 $471 $609 forward 7 unknown #
straight-curve $-1 53.108310190130311 0 15.219112592472003 0 1 0 I I #
point $-1 53.108310190130311 33.31315882305006 -15.219112592472003 #
point $-1 53.108310190130311 -33.31315882305006 -15.219112592472003 #
face $-1 $437 $506 $14 $-1 $610 reversed single #
plane-surface $-1 0 -33.31315882305006 0 0 1 0 0 0 1 forward_v I I I I #
coedge $-1 $611 $477 $509 $570 forward $406 $-1 #
coedge $-1 $477 $611 $556 $612 reversed $406 $-1 #
edge $-1 $557 -33.31315882305006 $554 33.31315882305006 $477 $613 forward 7 unknown #
straight-curve $-1 -39.598185921329957 -33.31315882305006 5.7260722137387772 0 0 -1 I I #
vertex $-1 $570 $614 #
straight-curve $-1 -23.176624027865067 33.31315882305006 8.5569970376446207 1 0 0 I I #
coedge $-1 $565 $483 $551 $612 forward $491 $-1 #
vertex $-1 $612 $615 #
straight-curve $-1 -23.176624027865067 -33.31315882305006 8.5569970376446207 -1 0 0 I I #
point $-1 -39.598185921329957 33.31315882305006 8.5569970376446207 #
point $-1 -39.598185921329957 -33.31315882305006 8.5569970376446207 #
straight-curve $-1 -53.108310190130311 0 14.347291817310488 0 -1 0 I I #
point $-1 -53.108310190130311 -33.31315882305006 14.347291817310488 #
point $-1 -53.108310190130311 33.31315882305006 14.347291817310488 #
straight-curve $-1 -39.598185921329957 33.31315882305006 5.7260722137387772 0 0 1 I I #
coedge $-1 $500 $556 $504 $568 reversed $491 $-1 #
straight-curve $-1 53.108310190130311 -33.31315882305006 0 0 0 -1 I I #
coedge $-1 $505 $504 $611 $616 forward $506 $-1 #
edge $-1 $507 -53.108310190130311 $617 53.108310190130311 $565 $618 forward 7 unknown #
point $-1 53.108310190130311 -33.31315882305006 -15.219112592472003 #
edge $-1 $554 -8.5569970376446207 $571 15.219112592472003 $509 $514 forward 7 unknown #
vertex $-1 $510 $619 #
straight-curve $-1 0 33.31315882305006 -15.219112592472003 1 0 0 I I #
straight-curve $-1 -53.108310190130311 -33.31315882305006 0 0 0 -1 I I #
face $-1 $620 $603 $15 $-1 $576 reversed single #
loop $-1 $-1 $621 $516 #
plane-surface $-1 -53.108310190130311 0 0 1 0 0 0 0 -1 forward_v I I I I #
coedge $-1 $522 $580 $622 $623 reversed $517 $-1 #
coedge $-1 $624 $519 $625 $626 reversed $440 $-1 #
coedge $-1 $519 $624 $627 $628 reversed $440 $-1 #
coedge $-1 $577 $587 $519 $581 forward $517 $-1 #
edge $-1 $629 -33.31315882305006 $630 33.31315882305006 $580 $631 forward 7 unknown #
coedge $-1 $521 $520 $632 $633 reversed $360 $-1 #
coedge $-1 $622 $634 $520 $584 forward $635 $-1 #
edge $-1 $636 -29.931686162265244 $588 -16.42156189346489 $583 $637 forward 7 unknown #
coedge $-1 $539 $638 $521 $586 forward $540 $-1 #
edge $-1 $589 16.42156189346489 $639 29.931686162265244 $585 $640 forward 7 unknown #
coedge $-1 $580 $522 $638 $641 reversed $517 $-1 #
vertex $-1 $584 $642 #
vertex $-1 $586 $643 #
straight-curve $-1 -39.598185921329957 0 14.347291817310488 0 1 0 I I #
coedge $-1 $634 $644 $524 $592 reversed $635 $-1 #
edge $-1 $604 -53.108310190130311 $594 53.108310190130311 $591 $645 forward 7 unknown #
coedge $-1 $533 $525 $644 $646 forward $373 $-1 #
vertex $-1 $526 $647 #
point $-1 53.108310190130311 15.950429195032253 0.34083892054565013 #
coedge $-1 $648 $649 $533 $597 forward $650 $-1 #
edge $-1 $599 -33.31315882305006 $651 33.31315882305006 $533 $652 forward 7 unknown #
coedge $-1 $653 $534 $649 $654 reversed $540 $-1 #
vertex $-1 $597 $655 #
straight-curve $-1 53.108310190130311 33.31315882305006 0 0 0 -1 I I #
coedge $-1 $632 $537 $539 $606 forward $603 $-1 #
coedge $-1 $537 $632 $634 $656 reversed $603 $-1 #
loop $-1 $-1 $632 $574 #
vertex $-1 $538 $657 #
straight-curve $-1 -53.108310190130311 0 15.219112592472003 0 -1 0 I I #
edge $-1 $541 -15.219112592472003 $639 -14.347291817310488 $539 $658 forward 7 unknown #
face $-1 $454 $540 $15 $-1 $659 reversed single #
point $-1 -53.108310190130311 33.31315882305006 15.219112592472003 #
straight-curve $-1 53.108310190130311 0 -15.219112592472003 0 -1 0 I I #
plane-surface $-1 0 0 -15.219112592472003 0 0 1 1 0 0 forward_v I I I I #
coedge $-1 $551 $550 $567 $616 reversed $406 $-1 #
edge $-1 $557 -8.5569970376446207 $617 15.219112592472003 $551 $573 forward 7 unknown #
straight-curve $-1 -53.108310190130311 0 8.5569970376446207 0 1 0 I I #
point $-1 -53.108310190130311 33.31315882305006 8.5569970376446207 #
point $-1 -53.108310190130311 -33.31315882305006 8.5569970376446207 #
edge $-1 $617 -33.31315882305006 $571 33.31315882305006 $611 $660 forward 7 unknown #
vertex $-1 $616 $661 #
straight-curve $-1 0 -33.31315882305006 -15.219112592472003 -1 0 0 I I #
point $-1 -53.108310190130311 33.31315882305006 -15.219112592472003 #
face $-1 $662 $635 $15 $-1 $663 reversed single #
coedge $-1 $664 $665 $624 $666 forward $575 $-1 #
coedge $-1 $627 $583 $577 $623 forward $635 $-1 #
edge $-1 $588 -8.6212196035717099 $630 -2.8309248239058435 $622 $667 forward 7 unknown #
coedge $-1 $579 $578 $621 $666 reversed $440 $-1 #
coedge $-1 $638 $653 $578 $626 forward $540 $-1 #
edge $-1 $668 -29.931686162265244 $629 -16.42156189346489 $625 $669 forward 7 unknown #
coedge $-1 $670 $622 $579 $628 forward $635 $-1 #
edge $-1 $630 16.42156189346489 $671 29.931686162265244 $627 $672 forward 7 unknown #
vertex $-1 $626 $673 #
vertex $-1 $628 $674 #
straight-curve $-1 -39.598185921329957 0 8.5569970376446207 0 -1 0 I I #
coedge $-1 $602 $601 $582 $633 forward $603 $-1 #
edge $-1 $639 -33.31315882305006 $636 33.31315882305006 $632 $675 forward 7 unknown #
coedge $-1 $583 $591 $602 $656 forward $635 $-1 #
loop $-1 $-1 $583 $620 #
vertex $-1 $584 $676 #
straight-curve $-1 -23.176624027865067 -33.31315882305006 14.347291817310488 1 0 0 I I #
coedge $-1 $585 $625 $587 $641 forward $540 $-1 #
vertex $-1 $633 $677 #
straight-curve $-1 -23.176624027865067 33.31315882305006 14.347291817310488 -1 0 0 I I #
edge $-1 $629 2.8309248239058435 $589 8.6212196035717099 $638 $678 forward 7 unknown #
point $-1 -39.598185921329957 -33.31315882305006 14.347291817310488 #
point $-1 -39.598185921329957 33.31315882305006 14.347291817310488 #
coedge $-1 $591 $679 $593 $646 reversed $635 $-1 #
straight-curve $-1 0 -33.31315882305006 15.219112592472003 1 0 0 I I #
edge $-1 $594 -15.219112592472003 $651 15.219112592472003 $593 $680 forward 7 unknown #
point $-1 53.108310190130311 -33.31315882305006 15.219112592472003 #
coedge $-1 $681 $596 $679 $682 forward $650 $-1 #
coedge $-1 $596 $681 $598 $654 forward $650 $-1 #
loop $-1 $-1 $596 $662 #
vertex $-1 $646 $683 #
straight-curve $-1 53.108310190130311 0 -15.219112592472003 0 -1 0 I I #
coedge $-1 $625 $598 $664 $684 reversed $540 $-1 #
edge $-1 $685 -53.108310190130311 $599 53.108310190130311 $598 $686 forward 7 unknown #
point $-1 53.108310190130311 33.31315882305006 -15.219112592472003 #
edge $-1 $604 -15.219112592472003 $636 -14.347291817310488 $602 $687 forward 7 unknown #
point $-1 -53.108310190130311 -33.31315882305006 15.219112592472003 #
straight-curve $-1 -53.108310190130311 33.31315882305006 0 0 0 -1 I I #
plane-surface $-1 0 33.31315882305006 0 0 -1 0 0 0 -1 forward_v I I I I #
straight-curve $-1 -53.108310190130311 0 -15.219112592472003 0 1 0 I I #
point $-1 -53.108310190130311 -33.31315882305006 -15.219112592472003 #
face $-1 $607 $650 $15 $-1 $688 reversed single #
plane-surface $-1 0 -33.31315882305006 0 0 1 0 0 0 1 forward_v I I I I #
coedge $-1 $689 $621 $653 $684 forward $575 $-1 #
coedge $-1 $621 $689 $670 $690 reversed $575 $-1 #
edge $-1 $671 -33.31315882305006 $668 33.31315882305006 $621 $691 forward 7 unknown #
straight-curve $-1 -39.598185921329957 -33.31315882305006 5.7260722137387772 0 0 -1 I I #
vertex $-1 $684 $692 #
straight-curve $-1 -23.176624027865067 33.31315882305006 8.5569970376446207 1 0 0 I I #
coedge $-1 $679 $627 $665 $690 forward $635 $-1 #
vertex $-1 $690 $693 #
straight-curve $-1 -23.176624027865067 -33.31315882305006 8.5569970376446207 -1 0 0 I I #
point $-1 -39.598185921329957 33.31315882305006 8.5569970376446207 #
point $-1 -39.598185921329957 -33.31315882305006 8.5569970376446207 #
straight-curve $-1 -53.108310190130311 0 14.347291817310488 0 -1 0 I I #
point $-1 -53.108310190130311 -33.31315882305006 14.347291817310488 #
point $-1 -53.108310190130311 33.31315882305006 14.347291817310488 #
straight-curve $-1 -39.598185921329957 33.31315882305006 5.7260722137387772 0 0 1 I I #
coedge $-1 $644 $670 $648 $682 reversed $635 $-1 #
straight-curve $-1 53.108310190130311 -33.31315882305006 0 0 0 -1 I I #
coedge $-1 $649 $648 $689 $694 forward $650 $-1 #
edge $-1 $651 -53.108310190130311 $695 53.108310190130311 $679 $696 forward 7 unknown #
point $-1 53.108310190130311 -33.31315882305006 -15.219112592472003 #
edge $-1 $668 -8.5569970376446207 $685 15.219112592472003 $653 $658 forward 7 unknown #
vertex $-1 $654 $697 #
straight-curve $-1 0 33.31315882305006 -15.219112592472003 1 0 0 I I #
straight-curve $-1 -53.108310190130311 -33.31315882305006 0 0 0 -1 I I #
plane-surface $-1 0 0 -15.219112592472003 0 0 1 1 0 0 forward_v I I I I #
coedge $-1 $665 $664 $681 $694 reversed $575 $-1 #
edge $-1 $671 -8.5569970376446207 $695 15.219112592472003 $665 $687 forward 7 unknown #
straight-curve $-1 -53.108310190130311 0 8.5569970376446207 0 1 0 I I #
point $-1 -53.108310190130311 33.31315882305006 8.5569970376446207 #
point $-1 -53.108310190130311 -33.31315882305006 8.5569970376446207 #
edge $-1 $695 -33.31315882305006 $685 33.31315882305006 $689 $698 forward 7 unknown #
vertex $-1 $694 $699 #
straight-curve $-1 0 -33.31315882305006 -15.219112592472003 -1 0 0 I I #
point $-1 -53.108310190130311 33.31315882305006 -15.219112592472003 #
straight-curve $-1 -53.108310190130311 0 -15.219112592472003 0 1 0 I I #
point $-1 -53.108310190130311 -33.31315882305006 -15.219112592472003 #
End-of-ACIS-data 