500 0 9 0           
7 Unknown 11 ACIS 5.0 NT 24 Fri Mar 26 17:29:07 1999 
-1 9.9999999999999995e-007 1e-010 
body $-1 $9 $-1 $10 #
body $-1 $11 $-1 $12 #
body $-1 $13 $-1 $14 #
body $-1 $15 $-1 $16 #
body $-1 $17 $-1 $18 #
body $-1 $19 $-1 $20 #
body $-1 $21 $-1 $22 #
body $-1 $23 $-1 $24 #
body $-1 $25 $-1 $26 #
lump $-1 $-1 $27 $0 #
transform $-1 1 0 0 0 1 0 0 0 1 40.181890316476945 19.760827513254323 5.168499406013475 1 rotate no_reflect no_shear #
lump $-1 $-1 $28 $1 #
transform $-1 1 0 0 0 1 0 0 0 1 40.181890316476945 19.760827513254323 5.168499406013475 1 rotate no_reflect no_shear #
lump $-1 $-1 $29 $2 #
transform $-1 1 0 0 0 1 0 0 0 1 40.181890316476945 19.760827513254323 5.168499406013475 1 rotate no_reflect no_shear #
lump $-1 $-1 $30 $3 #
transform $-1 1 0 0 0 1 0 0 0 1 40.181890316476945 19.760827513254323 5.168499406013475 1 rotate no_reflect no_shear #
lump $-1 $-1 $31 $4 #
transform $-1 1 0 0 0 1 0 0 0 1 40.181890316476945 19.760827513254323 5.168499406013475 1 rotate no_reflect no_shear #
lump $-1 $-1 $32 $5 #
transform $-1 1 0 0 0 1 0 0 0 1 40.181890316476945 19.760827513254323 5.168499406013475 1 rotate no_reflect no_shear #
lump $-1 $-1 $33 $6 #
transform $-1 1 0 0 0 1 0 0 0 1 40.181890316476945 19.760827513254323 5.168499406013475 1 rotate no_reflect no_shear #
lump $-1 $-1 $34 $7 #
transform $-1 1 0 0 0 1 0 0 0 1 40.181890316476945 19.760827513254323 5.168499406013475 1 rotate no_reflect no_shear #
lump $-1 $-1 $35 $8 #
transform $-1 1 0 0 0 1 0 0 0 1 40.181890316476945 19.760827513254323 5.168499406013475 1 rotate no_reflect no_shear #
shell $-1 $-1 $-1 $36 $-1 $9 #
shell $-1 $-1 $-1 $37 $-1 $11 #
shell $-1 $-1 $-1 $38 $-1 $13 #
shell $-1 $-1 $-1 $39 $-1 $15 #
shell $-1 $-1 $-1 $40 $-1 $17 #
shell $-1 $-1 $-1 $41 $-1 $19 #
shell $-1 $-1 $-1 $42 $-1 $21 #
shell $-1 $-1 $-1 $43 $-1 $23 #
shell $-1 $-1 $-1 $44 $-1 $25 #
face $-1 $45 $46 $27 $-1 $47 forward single #
face $-1 $48 $49 $28 $-1 $50 reversed single #
face $-1 $51 $52 $29 $-1 $53 reversed single #
face $-1 $54 $55 $30 $-1 $56 reversed single #
face $-1 $57 $58 $31 $-1 $59 forward single #
face $-1 $60 $61 $32 $-1 $62 forward single #
face $-1 $63 $64 $33 $-1 $65 reversed single #
face $-1 $66 $67 $34 $-1 $68 forward single #
face $-1 $69 $70 $35 $-1 $71 forward single #
face $-1 $72 $73 $27 $-1 $74 reversed single #
loop $-1 $-1 $75 $36 #
plane-surface $-1 0 0 5.168499406013475 0 0 1 1 0 0 forward_v I I I I #
face $-1 $76 $77 $28 $-1 $78 reversed single #
loop $-1 $-1 $79 $37 #
plane-surface $-1 0 -16.767651664274631 2.168499406013475 0 0 1 1 0 0 forward_v I I I I #
face $-1 $80 $81 $29 $-1 $82 reversed single #
loop $-1 $-1 $83 $38 #
plane-surface $-1 0 16.767651664274627 2.168499406013475 0 0 1 1 0 0 forward_v I I I I #
face $-1 $84 $85 $30 $-1 $86 reversed single #
loop $-1 $-1 $87 $39 #
plane-surface $-1 28.302069740904493 -6.4832035293275538 113.11995017324379 0 -1 0 -0.62932039886446345 0 -0.77714595512881146 forward_v I I I I #
face $-1 $88 $89 $31 $-1 $90 forward single #
loop $-1 $91 $92 $40 #
cone-surface $-1 36.657796797828063 -11.691255162161397 2.1493770923452562 -0.62932039886446345 0 -0.77714595512881146 0.38857297756440573 0 -0.31466019943223172 1 I I 0 1 0.5 forward I I I I #
face $-1 $93 $94 $32 $-1 $95 forward single #
loop $-1 $96 $97 $41 #
cone-surface $-1 36.657796797828063 -8.5664241824610912 2.1493770923452562 -0.62932039886446345 0 -0.77714595512881146 0.38857297756440573 0 -0.31466019943223172 1 I I 0 1 0.5 forward I I I I #
face $-1 $98 $99 $33 $-1 $100 reversed single #
loop $-1 $-1 $101 $42 #
plane-surface $-1 -40.181890316476967 -10.128839672311244 0.090996633297784513 -0.62932039886446345 0 0.77714595512881146 0.77714595512881146 0 0.62932039886446345 forward_v I I I I #
face $-1 $102 $103 $34 $-1 $104 forward single #
loop $-1 $105 $106 $43 #
cone-surface $-1 -36.657796797828077 -11.691255162161397 2.1493770923452589 0.62932039886446345 0 -0.77714595512881146 0.38857297756440573 0 0.31466019943223172 1 I I 0 1 0.5 forward I I I I #
face $-1 $107 $108 $35 $-1 $109 forward single #
loop $-1 $110 $111 $44 #
cone-surface $-1 -36.657796797828077 -8.5664241824610912 2.1493770923452589 0.62932039886446345 0 -0.77714595512881146 0.38857297756440573 0 0.31466019943223172 1 I I 0 1 0.5 forward I I I I #
face $-1 $112 $113 $27 $-1 $114 reversed single #
loop $-1 $-1 $115 $45 #
plane-surface $-1 0 0 -5.168499406013475 0 0 1 1 0 0 forward_v I I I I #
coedge $-1 $116 $117 $118 $119 forward $46 $-1 #
face $-1 $120 $121 $28 $-1 $122 reversed single #
loop $-1 $-1 $123 $48 #
plane-surface $-1 0 -13.774475815294936 3.668499406013475 0 -1 0 0 0 -1 forward_v I I I I #
coedge $-1 $124 $125 $126 $127 reversed $49 $-1 #
face $-1 $128 $129 $29 $-1 $130 forward single #
loop $-1 $-1 $131 $51 #
plane-surface $-1 0 13.774475815294934 3.668499406013475 0 1 0 0 0 1 forward_v I I I I #
coedge $-1 $132 $133 $134 $135 reversed $52 $-1 #
face $-1 $136 $137 $30 $-1 $138 forward single #
loop $-1 $-1 $139 $54 #
plane-surface $-1 -22.272496741282289 -10.128839672311244 50.665563115484559 0.62932039886446345 0 0.77714595512881146 0.77714595512881146 0 -0.62932039886446345 forward_v I I I I #
coedge $-1 $140 $141 $142 $143 reversed $55 $-1 #
face $-1 $-1 $144 $31 $-1 $145 forward single #
loop $-1 $146 $147 $57 #
cone-surface $-1 36.111469983167005 -11.691255162161397 1.4747196762526817 -0.62932039886446345 0 -0.77714595512881146 0.19428648878220287 0 -0.15733009971611586 1 I I -0.70710678118654779 0.70710678118654713 0.25 forward I I I I #
loop $-1 $-1 $148 $40 #
coedge $-1 $92 $92 $149 $150 reversed $58 $-1 #
face $-1 $-1 $151 $32 $-1 $152 forward single #
loop $-1 $153 $154 $60 #
cone-surface $-1 36.111469983167005 -8.5664241824610912 1.4747196762526817 -0.62932039886446345 0 -0.77714595512881146 0.19428648878220287 0 -0.15733009971611586 1 I I -0.70710678118654779 0.70710678118654713 0.25 forward I I I I #
loop $-1 $-1 $155 $41 #
coedge $-1 $97 $97 $156 $157 reversed $61 $-1 #
face $-1 $158 $159 $33 $-1 $160 reversed single #
loop $-1 $-1 $161 $63 #
plane-surface $-1 -90.756456798663748 -6.4832035293275538 62.545383691057019 0 -1 0 0.62932039886446345 0 -0.77714595512881146 forward_v I I I I #
coedge $-1 $162 $163 $164 $165 reversed $64 $-1 #
face $-1 $-1 $166 $34 $-1 $167 forward single #
loop $-1 $168 $169 $66 #
cone-surface $-1 -36.111469983167019 -11.691255162161397 1.4747196762526844 0.62932039886446345 0 -0.77714595512881146 0.19428648878220287 0 0.15733009971611586 1 I I -0.70710678118654779 0.70710678118654713 0.25 forward I I I I #
loop $-1 $-1 $170 $43 #
coedge $-1 $106 $106 $171 $172 reversed $67 $-1 #
face $-1 $-1 $173 $35 $-1 $174 forward single #
loop $-1 $175 $176 $69 #
cone-surface $-1 -36.111469983167019 -8.5664241824610912 1.4747196762526844 0.62932039886446345 0 -0.77714595512881146 0.19428648878220287 0 0.15733009971611586 1 I I -0.70710678118654779 0.70710678118654713 0.25 forward I I I I #
loop $-1 $-1 $177 $44 #
coedge $-1 $111 $111 $178 $179 reversed $70 $-1 #
face $-1 $180 $181 $27 $-1 $182 reversed single #
loop $-1 $-1 $183 $72 #
plane-surface $-1 0 -19.760827513254323 0 0 1 0 0 0 1 forward_v I I I I #
coedge $-1 $184 $185 $186 $187 forward $73 $-1 #
coedge $-1 $188 $75 $189 $190 forward $46 $-1 #
coedge $-1 $75 $188 $191 $192 forward $46 $-1 #
coedge $-1 $193 $194 $75 $119 reversed $195 $-1 #
edge $-1 $196 -19.760827513254323 $197 19.760827513254323 $118 $198 forward 7 unknown #
face $-1 $199 $200 $28 $-1 $201 reversed single #
loop $-1 $-1 $202 $76 #
plane-surface $-1 -40.181890316476945 0 0 1 0 0 0 0 -1 forward_v I I I I #
coedge $-1 $203 $204 $205 $206 reversed $77 $-1 #
coedge $-1 $207 $79 $208 $209 reversed $49 $-1 #
coedge $-1 $79 $207 $203 $210 forward $49 $-1 #
coedge $-1 $205 $211 $79 $127 forward $212 $-1 #
edge $-1 $213 -11.377001681117008 $214 -5.3906499831576209 $126 $215 forward 7 unknown #
face $-1 $216 $217 $29 $-1 $218 reversed single #
loop $-1 $-1 $219 $80 #
plane-surface $-1 0 0 5.168499406013475 0 0 1 1 0 0 forward_v I I I I #
coedge $-1 $220 $221 $222 $223 reversed $81 $-1 #
coedge $-1 $224 $83 $220 $225 forward $52 $-1 #
coedge $-1 $83 $224 $226 $227 reversed $52 $-1 #
coedge $-1 $228 $229 $83 $135 forward $217 $-1 #
edge $-1 $230 5.3906499831576209 $231 11.377001681117006 $134 $232 forward 7 unknown #
face $-1 $233 $234 $30 $-1 $235 forward single #
loop $-1 $-1 $142 $84 #
plane-surface $-1 0 0 5.168499406013475 0 0 1 1 0 0 forward_v I I I I #
coedge $-1 $236 $237 $238 $239 reversed $85 $-1 #
coedge $-1 $141 $87 $240 $241 reversed $55 $-1 #
coedge $-1 $87 $140 $236 $242 reversed $55 $-1 #
coedge $-1 $238 $243 $87 $143 forward $137 $-1 #
edge $-1 $244 -26.030855446024699 $245 -19.76066183861683 $142 $246 forward 7 unknown #
loop $-1 $-1 $149 $88 #
plane-surface $-1 -22.272496741282289 -10.128839672311244 50.665563115484559 0.62932039886446345 0 0.77714595512881146 0.77714595512881146 0 -0.62932039886446345 forward_v I I I I #
loop $-1 $-1 $247 $57 #
coedge $-1 $147 $147 $148 $248 reversed $89 $-1 #
coedge $-1 $148 $148 $147 $248 forward $91 $-1 #
coedge $-1 $149 $149 $92 $150 forward $144 $-1 #
edge $-1 $249 0 $249 6.2831853071796004 $149 $250 forward 7 unknown #
loop $-1 $-1 $156 $93 #
plane-surface $-1 -22.272496741282289 -10.128839672311244 50.665563115484559 0.62932039886446345 0 0.77714595512881146 0.77714595512881146 0 -0.62932039886446345 forward_v I I I I #
loop $-1 $-1 $251 $60 #
coedge $-1 $154 $154 $155 $252 reversed $94 $-1 #
coedge $-1 $155 $155 $154 $252 forward $96 $-1 #
coedge $-1 $156 $156 $97 $157 forward $151 $-1 #
edge $-1 $253 0 $253 6.2831853071796004 $156 $254 forward 7 unknown #
face $-1 $255 $256 $33 $-1 $257 forward single #
loop $-1 $-1 $258 $98 #
plane-surface $-1 -40.181890316476945 0 0 1 0 0 0 0 -1 forward_v I I I I #
coedge $-1 $259 $260 $261 $262 reversed $99 $-1 #
coedge $-1 $263 $101 $264 $265 reversed $64 $-1 #
coedge $-1 $101 $263 $259 $266 forward $64 $-1 #
coedge $-1 $261 $267 $101 $165 forward $256 $-1 #
edge $-1 $268 -8.7100559791393124 $269 -1.4187836931719318 $164 $270 forward 7 unknown #
loop $-1 $-1 $171 $102 #
plane-surface $-1 -40.181890316476967 -10.128839672311244 0.090996633297784513 -0.62932039886446345 0 0.77714595512881146 0.77714595512881146 0 0.62932039886446345 forward_v I I I I #
loop $-1 $-1 $271 $66 #
coedge $-1 $169 $169 $170 $272 reversed $103 $-1 #
coedge $-1 $170 $170 $169 $272 forward $105 $-1 #
coedge $-1 $171 $171 $106 $172 forward $166 $-1 #
edge $-1 $273 0 $273 6.2831853071796004 $171 $274 forward 7 unknown #
loop $-1 $-1 $178 $107 #
plane-surface $-1 -40.181890316476967 -10.128839672311244 0.090996633297784513 -0.62932039886446345 0 0.77714595512881146 0.77714595512881146 0 0.62932039886446345 forward_v I I I I #
loop $-1 $-1 $275 $69 #
coedge $-1 $176 $176 $177 $276 reversed $108 $-1 #
coedge $-1 $177 $177 $176 $276 forward $110 $-1 #
coedge $-1 $178 $178 $111 $179 forward $173 $-1 #
edge $-1 $277 0 $277 6.2831853071796004 $178 $278 forward 7 unknown #
face $-1 $279 $280 $27 $-1 $281 reversed single #
loop $-1 $-1 $282 $112 #
plane-surface $-1 -40.181890316476945 0 0 1 0 0 0 0 -1 forward_v I I I I #
coedge $-1 $283 $191 $284 $285 forward $113 $-1 #
coedge $-1 $286 $115 $283 $287 forward $73 $-1 #
coedge $-1 $115 $286 $288 $289 forward $73 $-1 #
coedge $-1 $194 $193 $115 $187 reversed $195 $-1 #
edge $-1 $290 -19.760827513254323 $291 19.760827513254323 $186 $292 forward 7 unknown #
coedge $-1 $117 $116 $293 $294 forward $46 $-1 #
coedge $-1 $295 $296 $116 $190 reversed $280 $-1 #
edge $-1 $197 -40.181890316476945 $297 40.181890316476945 $189 $298 forward 7 unknown #
coedge $-1 $183 $299 $117 $192 reversed $113 $-1 #
edge $-1 $300 -40.181890316476945 $196 40.181890316476945 $191 $301 forward 7 unknown #
coedge $-1 $186 $118 $299 $302 forward $195 $-1 #
coedge $-1 $118 $186 $295 $303 reversed $195 $-1 #
loop $-1 $-1 $193 $279 #
vertex $-1 $119 $304 #
vertex $-1 $119 $305 #
straight-curve $-1 40.181890316476945 0 5.168499406013475 0 1 0 I I #
face $-1 $306 $307 $28 $-1 $308 forward single #
loop $-1 $-1 $208 $120 #
plane-surface $-1 0 -19.760827513254323 0 0 1 0 0 0 1 forward_v I I I I #
coedge $-1 $309 $310 $311 $312 forward $121 $-1 #
coedge $-1 $311 $123 $125 $210 reversed $77 $-1 #
coedge $-1 $123 $311 $313 $314 reversed $77 $-1 #
coedge $-1 $315 $126 $123 $206 forward $212 $-1 #
edge $-1 $214 0.33424970300673751 $316 3.3342497030067375 $205 $317 forward 7 unknown #
coedge $-1 $125 $124 $309 $318 reversed $49 $-1 #
coedge $-1 $319 $320 $124 $209 forward $200 $-1 #
edge $-1 $321 -40.181890316476945 $213 40.181890316476945 $208 $322 forward 7 unknown #
edge $-1 $323 -40.181890316476945 $214 40.181890316476945 $203 $324 forward 7 unknown #
coedge $-1 $126 $315 $319 $325 forward $212 $-1 #
loop $-1 $-1 $205 $306 #
vertex $-1 $209 $326 #
vertex $-1 $127 $327 #
straight-curve $-1 40.181890316476945 -8.3838258321373154 2.168499406013475 0 1 0 I I #
face $-1 $328 $329 $29 $-1 $330 reversed single #
loop $-1 $-1 $229 $128 #
plane-surface $-1 40.181890316476945 0 0 -1 0 0 0 0 1 forward_v I I I I #
coedge $-1 $331 $332 $221 $333 forward $129 $-1 #
coedge $-1 $334 $131 $132 $225 reversed $81 $-1 #
coedge $-1 $131 $334 $219 $333 reversed $81 $-1 #
coedge $-1 $335 $336 $131 $223 forward $329 $-1 #
edge $-1 $337 0.33424970300673751 $338 3.3342497030067375 $222 $339 forward 7 unknown #
coedge $-1 $133 $132 $336 $340 reversed $52 $-1 #
edge $-1 $230 -40.181890316476945 $337 40.181890316476945 $220 $341 forward 7 unknown #
coedge $-1 $342 $343 $133 $227 forward $344 $-1 #
edge $-1 $231 -40.181890316476945 $345 40.181890316476945 $226 $346 forward 7 unknown #
coedge $-1 $347 $134 $343 $348 reversed $217 $-1 #
coedge $-1 $134 $347 $334 $349 forward $217 $-1 #
vertex $-1 $135 $350 #
vertex $-1 $227 $351 #
straight-curve $-1 40.181890316476945 8.3838258321373136 2.168499406013475 0 1 0 I I #
face $-1 $-1 $352 $30 $-1 $353 reversed single #
loop $-1 $-1 $354 $136 #
plane-surface $-1 0 -13.774475815294936 3.668499406013475 0 -1 0 0 0 -1 forward_v I I I I #
coedge $-1 $355 $139 $141 $242 forward $85 $-1 #
coedge $-1 $139 $355 $354 $356 forward $85 $-1 #
coedge $-1 $357 $142 $139 $239 forward $137 $-1 #
edge $-1 $245 1.4187836931719318 $358 8.7100559791393124 $238 $359 forward 7 unknown #
coedge $-1 $360 $361 $140 $241 forward $352 $-1 #
edge $-1 $362 -56.468978453324119 $244 -51.391475680608423 $240 $363 forward 7 unknown #
edge $-1 $245 72.295548962921472 $362 80.36378063295389 $141 $364 forward 7 unknown #
coedge $-1 $142 $357 $360 $365 forward $137 $-1 #
vertex $-1 $241 $366 #
vertex $-1 $143 $367 #
straight-curve $-1 14.151034870452246 -6.4832035293275538 5.1684994060134741 -1 0 0 I I #
coedge $-1 $247 $247 $-1 $368 reversed $146 $-1 #
edge $-1 $369 0 $369 6.2831853071796004 $147 $370 forward 7 unknown #
vertex $-1 $150 $371 #
ellipse-curve $-1 37.046793512773 -11.691255162161397 2.6297480196556253 0.62932039886446345 0 0.77714595512881146 0.38857297756440573 0 -0.31466019943223172 1 I I #
coedge $-1 $251 $251 $-1 $372 reversed $153 $-1 #
edge $-1 $373 0 $373 6.2831853071796004 $154 $374 forward 7 unknown #
vertex $-1 $157 $375 #
ellipse-curve $-1 37.046793512773 -8.5664241824610912 2.6297480196556253 0.62932039886446345 0 0.77714595512881146 0.38857297756440573 0 -0.31466019943223172 1 I I #
face $-1 $-1 $376 $33 $-1 $377 forward single #
loop $-1 $-1 $261 $158 #
plane-surface $-1 0 0 5.168499406013475 0 0 1 1 0 0 forward_v I I I I #
coedge $-1 $378 $379 $260 $380 forward $159 $-1 #
coedge $-1 $260 $161 $163 $266 reversed $99 $-1 #
coedge $-1 $161 $259 $258 $380 reversed $99 $-1 #
coedge $-1 $381 $164 $161 $262 forward $256 $-1 #
edge $-1 $269 -11.466531690262769 $382 -5.196338082854929 $261 $383 forward 7 unknown #
coedge $-1 $163 $162 $378 $384 reversed $64 $-1 #
coedge $-1 $385 $386 $162 $265 forward $376 $-1 #
edge $-1 $387 -16.739294500371869 $268 -8.6710628303394888 $264 $388 forward 7 unknown #
edge $-1 $389 2.743042963972496e-014 $269 8.0682316700324073 $259 $390 forward 7 unknown #
coedge $-1 $164 $381 $385 $391 forward $256 $-1 #
vertex $-1 $265 $392 #
vertex $-1 $165 $393 #
straight-curve $-1 -33.911696709069105 -5.0644198361556221 5.168499406013475 0 1 0 I I #
coedge $-1 $271 $271 $-1 $394 reversed $168 $-1 #
edge $-1 $395 0 $395 6.2831853071796004 $169 $396 forward 7 unknown #
vertex $-1 $172 $397 #
ellipse-curve $-1 -37.046793512773021 -11.691255162161397 2.62974801965564 -0.62932039886446345 0 0.77714595512881146 0.38857297756440573 0 0.31466019943223172 1 I I #
coedge $-1 $275 $275 $-1 $398 reversed $175 $-1 #
edge $-1 $399 0 $399 6.2831853071796004 $176 $400 forward 7 unknown #
vertex $-1 $179 $401 #
ellipse-curve $-1 -37.046793512773021 -8.5664241824610912 2.62974801965564 -0.62932039886446345 0 0.77714595512881146 0.38857297756440573 0 0.31466019943223172 1 I I #
face $-1 $-1 $195 $27 $-1 $402 reversed single #
loop $-1 $-1 $295 $180 #
plane-surface $-1 0 19.760827513254323 0 0 -1 0 0 0 -1 forward_v I I I I #
coedge $-1 $403 $293 $296 $404 forward $181 $-1 #
coedge $-1 $299 $183 $184 $287 reversed $113 $-1 #
coedge $-1 $293 $403 $183 $285 reversed $181 $-1 #
edge $-1 $300 -5.168499406013475 $405 5.168499406013475 $284 $406 forward 7 unknown #
coedge $-1 $185 $184 $403 $407 forward $73 $-1 #
edge $-1 $291 -40.181890316476945 $405 40.181890316476945 $283 $408 forward 7 unknown #
coedge $-1 $296 $295 $185 $289 reversed $280 $-1 #
edge $-1 $409 -40.181890316476945 $290 40.181890316476945 $288 $410 forward 7 unknown #
vertex $-1 $187 $411 #
vertex $-1 $302 $412 #
straight-curve $-1 40.181890316476945 0 -5.168499406013475 0 -1 0 I I #
coedge $-1 $282 $284 $188 $294 reversed $181 $-1 #
edge $-1 $297 -19.760827513254323 $300 19.760827513254323 $293 $413 forward 7 unknown #
coedge $-1 $288 $189 $194 $303 forward $280 $-1 #
coedge $-1 $189 $288 $282 $404 reversed $280 $-1 #
vertex $-1 $190 $414 #
straight-curve $-1 0 19.760827513254323 5.168499406013475 -1 0 0 I I #
coedge $-1 $191 $283 $193 $302 reversed $113 $-1 #
vertex $-1 $294 $415 #
straight-curve $-1 0 -19.760827513254323 5.168499406013475 1 0 0 I I #
edge $-1 $196 -5.168499406013475 $291 5.168499406013475 $193 $416 forward 7 unknown #
edge $-1 $197 -5.168499406013475 $290 5.168499406013475 $194 $417 forward 7 unknown #
point $-1 40.181890316476945 -19.760827513254323 5.168499406013475 #
point $-1 40.181890316476945 19.760827513254323 5.168499406013475 #
face $-1 $-1 $212 $28 $-1 $418 reversed single #
loop $-1 $-1 $313 $199 #
plane-surface $-1 0 0 5.168499406013475 0 0 1 1 0 0 forward_v I I I I #
coedge $-1 $419 $202 $207 $318 forward $121 $-1 #
coedge $-1 $202 $419 $420 $421 reversed $121 $-1 #
coedge $-1 $204 $203 $202 $312 reversed $77 $-1 #
edge $-1 $422 -3.3342497030067375 $323 -0.33424970300673751 $202 $423 forward 7 unknown #
coedge $-1 $420 $424 $204 $314 forward $307 $-1 #
edge $-1 $316 -40.181890316476945 $422 40.181890316476945 $313 $425 forward 7 unknown #
coedge $-1 $211 $205 $424 $426 reversed $212 $-1 #
vertex $-1 $206 $427 #
straight-curve $-1 40.181890316476945 -13.774475815294936 1.8342497030067375 0 0 1 I I #
edge $-1 $323 5.3906499831576209 $321 11.377001681117008 $309 $428 forward 7 unknown #
coedge $-1 $429 $208 $211 $325 reversed $200 $-1 #
coedge $-1 $208 $429 $419 $430 forward $200 $-1 #
vertex $-1 $209 $431 #
straight-curve $-1 0 -19.760827513254323 2.168499406013475 1 0 0 I I #
vertex $-1 $318 $432 #
straight-curve $-1 0 -13.774475815294936 2.168499406013475 1 0 0 I I #
edge $-1 $433 -5.168499406013475 $213 -2.168499406013475 $211 $434 forward 7 unknown #
point $-1 40.181890316476945 -19.760827513254323 2.168499406013475 #
point $-1 40.181890316476945 -13.774475815294936 2.168499406013475 #
face $-1 $-1 $344 $29 $-1 $435 reversed single #
loop $-1 $-1 $222 $216 #
plane-surface $-1 -40.181890316476945 0 0 1 0 0 0 0 -1 forward_v I I I I #
coedge $-1 $436 $219 $347 $437 forward $129 $-1 #
coedge $-1 $219 $436 $335 $438 forward $129 $-1 #
edge $-1 $338 -40.181890316476945 $439 40.181890316476945 $219 $440 forward 7 unknown #
coedge $-1 $221 $220 $229 $349 reversed $81 $-1 #
coedge $-1 $441 $222 $332 $438 reversed $329 $-1 #
coedge $-1 $222 $441 $224 $340 forward $329 $-1 #
vertex $-1 $340 $442 #
vertex $-1 $223 $443 #
straight-curve $-1 -40.181890316476945 13.774475815294934 1.8342497030067375 0 0 1 I I #
edge $-1 $345 -11.377001681117006 $337 -5.3906499831576209 $336 $444 forward 7 unknown #
straight-curve $-1 0 13.774475815294934 2.168499406013475 -1 0 0 I I #
coedge $-1 $445 $226 $441 $446 reversed $344 $-1 #
coedge $-1 $226 $445 $228 $348 forward $344 $-1 #
loop $-1 $-1 $226 $328 #
vertex $-1 $227 $447 #
straight-curve $-1 0 19.760827513254323 2.168499406013475 -1 0 0 I I #
coedge $-1 $229 $228 $331 $437 reversed $217 $-1 #
edge $-1 $448 -5.168499406013475 $231 -2.168499406013475 $228 $449 forward 7 unknown #
edge $-1 $439 -3.3342497030067375 $230 -0.33424970300673751 $229 $450 forward 7 unknown #
point $-1 40.181890316476945 13.774475815294934 2.168499406013475 #
point $-1 40.181890316476945 19.76082751325432 2.168499406013475 #
loop $-1 $-1 $240 $233 #
plane-surface $-1 40.181890316476945 0 0 -1 0 0 0 0 1 forward_v I I I I #
coedge $-1 $451 $452 $237 $356 reversed $234 $-1 #
coedge $-1 $237 $236 $361 $453 reversed $85 $-1 #
edge $-1 $454 -80.36378063295389 $358 -72.295548962921472 $354 $455 forward 7 unknown #
coedge $-1 $243 $238 $452 $456 forward $137 $-1 #
vertex $-1 $456 $457 #
straight-curve $-1 33.911696709069069 -5.0644198361556221 5.1684994060134741 0 -1 0 I I #
coedge $-1 $458 $240 $243 $365 reversed $352 $-1 #
coedge $-1 $240 $458 $355 $453 forward $352 $-1 #
vertex $-1 $241 $459 #
straight-curve $-1 40.181890316476945 -6.4832035293275538 56.559975086621897 0 0 1 I I #
straight-curve $-1 -22.272496741282289 -6.4832035293275538 50.665563115484559 0.77714595512881146 0 -0.62932039886446345 I I #
edge $-1 $460 -13.774475815294936 $244 -6.4832035293275538 $360 $461 forward 7 unknown #
point $-1 40.181890316476945 -6.4832035293275538 5.168499406013475 #
point $-1 33.911696709069076 -6.4832035293275538 5.1684994060134741 #
edge $-1 $462 1 $462 0 $247 $-1 forward 7 unknown #
vertex $-1 $248 $463 #
ellipse-curve $-1 36.268800082883118 -11.691255162161397 1.6690061650348844 0.62932039886446345 0 0.77714595512881146 0.38857297756440573 0 -0.31466019943223172 1 I I #
point $-1 37.435366490337408 -11.691255162161397 2.3150878202233964 #
edge $-1 $464 1 $464 0 $251 $-1 forward 7 unknown #
vertex $-1 $252 $465 #
ellipse-curve $-1 36.268800082883118 -8.5664241824610912 1.6690061650348844 0.62932039886446345 0 0.77714595512881146 0.38857297756440573 0 -0.31466019943223172 1 I I #
point $-1 37.435366490337408 -8.5664241824610912 2.3150878202233964 #
loop $-1 $-1 $264 $255 #
plane-surface $-1 0 -13.774475815294936 3.668499406013475 0 -1 0 0 0 -1 forward_v I I I I #
coedge $-1 $466 $258 $263 $384 forward $159 $-1 #
coedge $-1 $258 $466 $381 $467 reversed $159 $-1 #
edge $-1 $382 26.104192439515035 $389 31.181695212230707 $258 $468 forward 7 unknown #
coedge $-1 $267 $261 $379 $467 forward $256 $-1 #
vertex $-1 $467 $469 #
straight-curve $-1 -45.378228399331874 -6.4832035293275538 5.1684994060134741 -1 0 0 I I #
edge $-1 $389 1.4187836931719318 $387 8.7100559791393124 $378 $470 forward 7 unknown #
coedge $-1 $386 $264 $267 $391 reversed $376 $-1 #
coedge $-1 $264 $385 $466 $471 reversed $376 $-1 #
vertex $-1 $471 $472 #
straight-curve $-1 -27.173015303802988 -13.774475815294936 10.625376124981546 0.77714595512881146 0 0.62932039886446345 I I #
vertex $-1 $384 $473 #
straight-curve $-1 -40.181890316476967 -6.4832035293275538 0.090996633297784513 0.77714595512881146 0 0.62932039886446345 I I #
edge $-1 $474 -40.181890316476945 $268 -33.911696709069105 $267 $475 forward 7 unknown #
point $-1 -33.911696709069105 -13.774475815294934 5.168499406013475 #
point $-1 -33.911696709069105 -6.4832035293275538 5.168499406013475 #
edge $-1 $476 1 $476 0 $271 $-1 forward 7 unknown #
vertex $-1 $272 $477 #
ellipse-curve $-1 -36.268800082883132 -11.691255162161397 1.6690061650348871 -0.62932039886446345 0 0.77714595512881146 0.38857297756440573 0 0.31466019943223172 1 I I #
point $-1 -36.658220535208606 -11.691255162161397 2.9444082190878627 #
edge $-1 $478 1 $478 0 $275 $-1 forward 7 unknown #
vertex $-1 $276 $479 #
ellipse-curve $-1 -36.268800082883132 -8.5664241824610912 1.6690061650348871 -0.62932039886446345 0 0.77714595512881146 0.38857297756440573 0 0.31466019943223172 1 I I #
point $-1 -36.658220535208606 -8.5664241824610912 2.9444082190878627 #
plane-surface $-1 40.181890316476945 0 0 -1 0 0 0 0 1 forward_v I I I I #
coedge $-1 $284 $282 $286 $407 reversed $181 $-1 #
edge $-1 $297 -5.168499406013475 $409 5.168499406013475 $296 $480 forward 7 unknown #
vertex $-1 $407 $481 #
straight-curve $-1 -40.181890316476945 -19.760827513254323 0 0 0 -1 I I #
edge $-1 $405 -19.760827513254323 $409 19.760827513254323 $403 $482 forward 7 unknown #
straight-curve $-1 0 -19.760827513254323 -5.168499406013475 -1 0 0 I I #
vertex $-1 $289 $483 #
straight-curve $-1 0 19.760827513254323 -5.168499406013475 1 0 0 I I #
point $-1 40.181890316476945 19.760827513254323 -5.168499406013475 #
point $-1 40.181890316476945 -19.760827513254323 -5.168499406013475 #
straight-curve $-1 -40.181890316476945 0 5.168499406013475 0 -1 0 I I #
point $-1 -40.181890316476945 19.760827513254323 5.168499406013475 #
point $-1 -40.181890316476945 -19.760827513254323 5.168499406013475 #
straight-curve $-1 40.181890316476945 -19.760827513254323 0 0 0 -1 I I #
straight-curve $-1 40.181890316476945 19.760827513254323 0 0 0 -1 I I #
plane-surface $-1 40.181890316476945 0 0 -1 0 0 0 0 1 forward_v I I I I #
coedge $-1 $310 $309 $320 $430 reversed $121 $-1 #
coedge $-1 $484 $313 $310 $421 forward $307 $-1 #
edge $-1 $422 13.774475815294936 $485 19.760827513254323 $310 $486 forward 7 unknown #
vertex $-1 $421 $487 #
straight-curve $-1 -40.181890316476945 -13.774475815294936 1.8342497030067375 0 0 -1 I I #
coedge $-1 $313 $484 $315 $426 forward $307 $-1 #
straight-curve $-1 0 -13.774475815294936 5.168499406013475 -1 0 0 I I #
edge $-1 $433 -19.760827513254323 $316 -13.774475815294936 $315 $488 forward 7 unknown #
point $-1 40.181890316476945 -13.774475815294936 5.168499406013475 #
straight-curve $-1 -40.181890316476945 -8.3838258321373154 2.168499406013475 0 -1 0 I I #
coedge $-1 $320 $319 $484 $489 reversed $200 $-1 #
edge $-1 $485 -5.168499406013475 $321 -2.168499406013475 $419 $490 forward 7 unknown #
point $-1 -40.181890316476945 -19.760827513254323 2.168499406013475 #
point $-1 -40.181890316476945 -13.774475815294936 2.168499406013475 #
vertex $-1 $426 $491 #
straight-curve $-1 40.181890316476945 -19.760827513254323 0 0 0 -1 I I #
plane-surface $-1 0 19.760827513254323 0 0 -1 0 0 0 -1 forward_v I I I I #
coedge $-1 $332 $331 $445 $492 forward $129 $-1 #
edge $-1 $439 13.774475815294934 $448 19.760827513254323 $347 $493 forward 7 unknown #
edge $-1 $494 -19.760827513254323 $338 -13.774475815294934 $335 $495 forward 7 unknown #
vertex $-1 $437 $496 #
straight-curve $-1 0 13.774475815294934 5.168499406013475 1 0 0 I I #
coedge $-1 $336 $335 $342 $446 forward $329 $-1 #
point $-1 -40.181890316476945 13.774475815294934 2.168499406013475 #
point $-1 -40.181890316476945 13.774475815294934 5.168499406013475 #
straight-curve $-1 -40.181890316476945 8.3838258321373136 2.168499406013475 0 -1 0 I I #
coedge $-1 $343 $342 $436 $492 reversed $344 $-1 #
edge $-1 $494 -5.168499406013475 $345 -2.168499406013475 $342 $497 forward 7 unknown #
point $-1 -40.181890316476945 19.76082751325432 2.168499406013475 #
vertex $-1 $437 $498 #
straight-curve $-1 40.181890316476945 19.760827513254323 0 0 0 -1 I I #
straight-curve $-1 40.181890316476945 13.774475815294934 1.8342497030067375 0 0 -1 I I #
coedge $-1 $452 $354 $458 $499 reversed $234 $-1 #
coedge $-1 $354 $451 $357 $456 reversed $234 $-1 #
edge $-1 $454 -8.7100559791393124 $362 -1.4187836931719318 $361 $500 forward 7 unknown #
vertex $-1 $499 $501 #
straight-curve $-1 -22.272496741282289 -13.774475815294934 50.665563115484559 -0.77714595512881146 0 0.62932039886446345 I I #
edge $-1 $358 33.911696709069076 $460 40.181890316476945 $357 $502 forward 7 unknown #
point $-1 33.911696709069076 -13.774475815294934 5.1684994060134741 #
coedge $-1 $361 $360 $451 $499 forward $352 $-1 #
point $-1 40.181890316476945 -6.4832035293275538 0.090996633297777407 #
vertex $-1 $365 $503 #
straight-curve $-1 40.181890316476945 0 5.168499406013475 0 1 0 I I #
vertex $-1 $368 $504 #
point $-1 36.657373060447526 -11.691255162161397 1.3543459656026526 #
vertex $-1 $372 $505 #
point $-1 36.657373060447526 -8.5664241824610912 1.3543459656026526 #
coedge $-1 $379 $378 $386 $471 forward $159 $-1 #
edge $-1 $382 6.4832035293275538 $474 13.774475815294936 $379 $506 forward 7 unknown #
straight-curve $-1 -40.181890316476945 -6.4832035293275538 31.272691845528509 0 0 -1 I I #
point $-1 -40.181890316476945 -6.4832035293275538 5.168499406013475 #
straight-curve $-1 -40.181890316476945 -5.0644198361556221 0.090996633297796503 0 -1 0 I I #
edge $-1 $387 -31.181695212230707 $474 -26.104192439515035 $466 $507 forward 7 unknown #
point $-1 -40.181890316476945 -13.774475815294934 0.090996633297801777 #
point $-1 -40.181890316476945 -6.4832035293275538 0.090996633297801777 #
vertex $-1 $471 $508 #
straight-curve $-1 0 -13.774475815294936 5.168499406013475 1 0 0 I I #
vertex $-1 $394 $509 #
point $-1 -35.880227105318731 -11.691255162161397 1.9836663644671189 #
vertex $-1 $398 $510 #
point $-1 -35.880227105318731 -8.5664241824610912 1.9836663644671189 #
straight-curve $-1 -40.181890316476945 19.760827513254323 0 0 0 -1 I I #
point $-1 -40.181890316476945 -19.760827513254323 -5.168499406013475 #
straight-curve $-1 -40.181890316476945 0 -5.168499406013475 0 1 0 I I #
point $-1 -40.181890316476945 19.760827513254323 -5.168499406013475 #
coedge $-1 $424 $420 $429 $489 forward $307 $-1 #
vertex $-1 $421 $511 #
straight-curve $-1 -40.181890316476945 0 5.168499406013475 0 -1 0 I I #
point $-1 -40.181890316476945 -13.774475815294936 5.168499406013475 #
straight-curve $-1 40.181890316476945 0 5.168499406013475 0 1 0 I I #
edge $-1 $485 -40.181890316476945 $433 40.181890316476945 $429 $512 forward 7 unknown #
straight-curve $-1 -40.181890316476945 -19.760827513254323 0 0 0 -1 I I #
point $-1 40.181890316476945 -19.760827513254323 5.168499406013475 #
edge $-1 $448 -40.181890316476945 $494 40.181890316476945 $445 $513 forward 7 unknown #
straight-curve $-1 40.181890316476945 0 5.168499406013475 0 1 0 I I #
vertex $-1 $492 $514 #
straight-curve $-1 -40.181890316476945 0 5.168499406013475 0 -1 0 I I #
point $-1 40.181890316476945 13.774475815294934 5.168499406013475 #
straight-curve $-1 -40.181890316476945 19.760827513254323 0 0 0 -1 I I #
point $-1 40.181890316476945 19.760827513254323 5.168499406013475 #
edge $-1 $460 51.391475680608423 $454 56.468978453324119 $458 $515 forward 7 unknown #
straight-curve $-1 40.181890316476952 -5.0644198361556221 0.090996633297773855 0 1 0 I I #
point $-1 40.181890316476945 -13.774475815294934 0.090996633297777407 #
straight-curve $-1 0 -13.774475815294936 5.168499406013475 1 0 0 I I #
point $-1 40.181890316476945 -13.774475815294936 5.168499406013475 #
point $-1 35.954139883450893 -11.691255162161397 1.2804331874704791 #
point $-1 35.954139883450893 -8.5664241824610912 1.2804331874704791 #
straight-curve $-1 -40.181890316476945 0 5.168499406013475 0 -1 0 I I #
straight-curve $-1 -40.181890316476945 -13.774475815294934 31.272691845528509 0 0 1 I I #
point $-1 -40.181890316476945 -13.774475815294936 5.168499406013475 #
point $-1 -35.954139883450907 -11.691255162161397 1.2804331874704817 #
point $-1 -35.954139883450907 -8.5664241824610912 1.2804331874704817 #
point $-1 -40.181890316476945 -19.760827513254323 5.168499406013475 #
straight-curve $-1 0 -19.760827513254323 5.168499406013475 1 0 0 I I #
straight-curve $-1 0 19.760827513254323 5.168499406013475 -1 0 0 I I #
point $-1 -40.181890316476945 19.760827513254323 5.168499406013475 #
straight-curve $-1 40.181890316476945 -13.774475815294934 56.559975086621897 0 0 -1 I I #
End-of-ACIS-data 