500 0 15 0           
7 Unknown 11 ACIS 5.0 NT 24 Thu Mar 25 23:13:34 1999 
-1 9.9999999999999995e-007 1e-010 
body $-1 $15 $-1 $16 #
body $-1 $17 $-1 $18 #
body $-1 $19 $-1 $20 #
body $-1 $21 $-1 $22 #
body $-1 $23 $-1 $24 #
body $-1 $25 $-1 $26 #
body $-1 $27 $-1 $28 #
body $-1 $29 $-1 $30 #
body $-1 $31 $-1 $32 #
body $-1 $33 $-1 $34 #
body $-1 $35 $-1 $36 #
body $-1 $37 $-1 $38 #
body $-1 $39 $-1 $40 #
body $-1 $41 $-1 $42 #
body $-1 $43 $-1 $44 #
lump $-1 $-1 $45 $0 #
transform $-1 1 0 0 0 1 0 0 0 1 72.586443678090774 40.529627823419325 10.93051915267057 1 rotate no_reflect no_shear #
lump $-1 $-1 $46 $1 #
transform $-1 1 0 0 0 1 0 0 0 1 72.586443678090774 40.529627823419325 10.93051915267057 1 rotate no_reflect no_shear #
lump $-1 $-1 $47 $2 #
transform $-1 1 0 0 0 1 0 0 0 1 72.586443678090774 40.529627823419325 10.93051915267057 1 rotate no_reflect no_shear #
lump $-1 $-1 $48 $3 #
transform $-1 1 0 0 0 1 0 0 0 1 72.586443678090774 40.529627823419325 10.93051915267057 1 rotate no_reflect no_shear #
lump $-1 $-1 $49 $4 #
transform $-1 1 0 0 0 1 0 0 0 1 72.586443678090774 40.529627823419325 10.93051915267057 1 rotate no_reflect no_shear #
lump $-1 $-1 $50 $5 #
transform $-1 1 0 0 0 1 0 0 0 1 72.586443678090774 40.529627823419325 10.93051915267057 1 rotate no_reflect no_shear #
lump $-1 $-1 $51 $6 #
transform $-1 1 0 0 0 1 0 0 0 1 72.586443678090774 40.529627823419325 10.93051915267057 1 rotate no_reflect no_shear #
lump $-1 $-1 $52 $7 #
transform $-1 1 0 0 0 1 0 0 0 1 72.586443678090774 40.529627823419325 10.93051915267057 1 rotate no_reflect no_shear #
lump $-1 $-1 $53 $8 #
transform $-1 1 0 0 0 1 0 0 0 1 72.586443678090774 40.529627823419325 10.93051915267057 1 rotate no_reflect no_shear #
lump $-1 $-1 $54 $9 #
transform $-1 1 0 0 0 1 0 0 0 1 72.586443678090774 40.529627823419325 10.93051915267057 1 rotate no_reflect no_shear #
lump $-1 $-1 $55 $10 #
transform $-1 1 0 0 0 1 0 0 0 1 72.586443678090774 40.529627823419325 10.93051915267057 1 rotate no_reflect no_shear #
lump $-1 $-1 $56 $11 #
transform $-1 1 0 0 0 1 0 0 0 1 72.586443678090774 40.529627823419325 10.93051915267057 1 rotate no_reflect no_shear #
lump $-1 $-1 $57 $12 #
transform $-1 1 0 0 0 1 0 0 0 1 72.586443678090774 40.529627823419325 10.93051915267057 1 rotate no_reflect no_shear #
lump $-1 $-1 $58 $13 #
transform $-1 1 0 0 0 1 0 0 0 1 72.586443678090774 40.529627823419325 10.93051915267057 1 rotate no_reflect no_shear #
lump $-1 $-1 $59 $14 #
transform $-1 1 0 0 0 1 0 0 0 1 72.586443678090774 40.529627823419325 10.93051915267057 1 rotate no_reflect no_shear #
shell $-1 $-1 $-1 $60 $-1 $15 #
shell $-1 $-1 $-1 $61 $-1 $17 #
shell $-1 $-1 $-1 $62 $-1 $19 #
shell $-1 $-1 $-1 $63 $-1 $21 #
shell $-1 $-1 $-1 $64 $-1 $23 #
shell $-1 $-1 $-1 $65 $-1 $25 #
shell $-1 $-1 $-1 $66 $-1 $27 #
shell $-1 $-1 $-1 $67 $-1 $29 #
shell $-1 $-1 $-1 $68 $-1 $31 #
shell $-1 $-1 $-1 $69 $-1 $33 #
shell $-1 $-1 $-1 $70 $-1 $35 #
shell $-1 $-1 $-1 $71 $-1 $37 #
shell $-1 $-1 $-1 $72 $-1 $39 #
shell $-1 $-1 $-1 $73 $-1 $41 #
shell $-1 $-1 $-1 $74 $-1 $43 #
face $-1 $75 $76 $45 $-1 $77 forward single #
face $-1 $78 $79 $46 $-1 $80 reversed single #
face $-1 $81 $82 $47 $-1 $83 forward single #
face $-1 $84 $85 $48 $-1 $86 forward single #
face $-1 $87 $88 $49 $-1 $89 reversed single #
face $-1 $90 $91 $50 $-1 $92 forward single #
face $-1 $93 $94 $51 $-1 $95 forward single #
face $-1 $96 $97 $52 $-1 $98 reversed single #
face $-1 $99 $100 $53 $-1 $101 forward single #
face $-1 $102 $103 $54 $-1 $104 reversed single #
face $-1 $105 $106 $55 $-1 $107 forward single #
face $-1 $108 $109 $56 $-1 $110 reversed single #
face $-1 $111 $112 $57 $-1 $113 forward single #
face $-1 $114 $115 $58 $-1 $116 reversed single #
face $-1 $117 $118 $59 $-1 $119 forward single #
face $-1 $120 $121 $45 $-1 $122 reversed single #
loop $-1 $-1 $123 $60 #
plane-surface $-1 0 0 10.93051915267057 0 0 1 1 0 0 forward_v I I I I #
face $-1 $124 $125 $46 $-1 $126 reversed single #
loop $-1 $-1 $127 $61 #
plane-surface $-1 -57.398604800520104 -121.70927726442019 121.68589746492682 -1 0 0 0 -0.55919291073839883 0.82903756765294845 forward_v I I I I #
face $-1 $128 $129 $47 $-1 $130 forward single #
loop $-1 $131 $132 $62 #
cone-surface $-1 -68.247061141642007 -32.294864798451165 4.4713595382112885 0 0.55919291073839883 -0.82903756765294845 1.5 0 0 1 I I 0 1 1.5 forward I I I I #
face $-1 $133 $134 $48 $-1 $135 forward single #
loop $-1 $136 $137 $63 #
cone-surface $-1 -61.737987336968864 -32.294864798451165 4.4713595382112885 0 0.55919291073839883 -0.82903756765294845 1.5 0 0 1 I I 0 1 1.5 forward I I I I #
face $-1 $138 $139 $49 $-1 $140 reversed single #
loop $-1 $-1 $141 $64 #
plane-surface $-1 64.992524239305453 -40.529627823419332 1.3321200420026003 0 -0.55919291073839883 0.82903756765294845 1 0 0 forward_v I I I I #
face $-1 $142 $143 $50 $-1 $144 forward single #
loop $-1 $145 $146 $65 #
cone-surface $-1 61.737987336968871 -32.294864798451165 4.4713595382112885 0 0.55919291073839883 -0.82903756765294845 1.5 0 0 1 I I 0 1 1.5 forward I I I I #
face $-1 $147 $148 $51 $-1 $149 forward single #
loop $-1 $150 $151 $66 #
cone-surface $-1 68.247061141642007 -32.294864798451165 4.4713595382112885 0 0.55919291073839883 -0.82903756765294845 1.5 0 0 1 I I 0 1 1.5 forward I I I I #
face $-1 $152 $153 $52 $-1 $154 reversed single #
loop $-1 $-1 $155 $67 #
plane-surface $-1 -61.45683172729035 88.649775078184518 159.85441142827054 1 0 0 0 -0.71933980857756763 -0.69465836192734942 forward_v I I I I #
face $-1 $156 $157 $53 $-1 $158 forward single #
loop $-1 $159 $160 $68 #
cone-surface $-1 -51.673489649592668 34.334035360549045 4.6024952644148396 0 -0.71933980857756763 -0.69465836192734942 2 0 0 1 I I 0 1 2 forward I I I I #
face $-1 $161 $162 $54 $-1 $163 reversed single #
loop $-1 $-1 $164 $69 #
plane-surface $-1 -27.007838627561913 88.649775078184518 159.85441142827054 1 0 0 0 -0.71933980857756763 -0.69465836192734942 forward_v I I I I #
face $-1 $165 $166 $55 $-1 $167 forward single #
loop $-1 $168 $169 $70 #
cone-surface $-1 -17.224496549864227 34.334035360549045 4.6024952644148396 0 -0.71933980857756763 -0.69465836192734942 2 0 0 1 I I 0 1 2 forward I I I I #
face $-1 $170 $171 $56 $-1 $172 reversed single #
loop $-1 $-1 $173 $71 #
plane-surface $-1 7.4411544721665415 88.649775078184518 159.85441142827054 1 0 0 0 -0.71933980857756763 -0.69465836192734942 forward_v I I I I #
face $-1 $174 $175 $57 $-1 $176 forward single #
loop $-1 $177 $178 $72 #
cone-surface $-1 17.224496549864227 34.334035360549045 4.6024952644148396 0 -0.71933980857756763 -0.69465836192734942 2 0 0 1 I I 0 1 2 forward I I I I #
face $-1 $179 $180 $58 $-1 $181 reversed single #
loop $-1 $-1 $182 $73 #
plane-surface $-1 41.890147571895 88.649775078184518 159.85441142827054 1 0 0 0 -0.71933980857756763 -0.69465836192734942 forward_v I I I I #
face $-1 $183 $184 $59 $-1 $185 forward single #
loop $-1 $186 $187 $74 #
cone-surface $-1 51.673489649592682 34.334035360549045 4.6024952644148396 0 -0.71933980857756763 -0.69465836192734942 2 0 0 1 I I 0 1 2 forward I I I I #
face $-1 $188 $189 $45 $-1 $190 reversed single #
loop $-1 $-1 $191 $75 #
plane-surface $-1 0 0 -10.93051915267057 0 0 1 1 0 0 forward_v I I I I #
coedge $-1 $192 $193 $194 $195 forward $76 $-1 #
face $-1 $196 $197 $46 $-1 $198 forward single #
loop $-1 $-1 $199 $78 #
plane-surface $-1 -64.992524239305439 -40.529627823419332 1.3321200420026003 0 -0.55919291073839883 0.82903756765294845 1 0 0 forward_v I I I I #
coedge $-1 $200 $201 $202 $203 reversed $79 $-1 #
face $-1 $-1 $204 $47 $-1 $205 forward single #
loop $-1 $206 $207 $81 #
cone-surface $-1 -68.247061141642007 -30.755812896726745 2.1896213033462839 0 0.55919291073839883 -0.82903756765294845 0.75 0 0 1 I I -0.70710678118654757 0.70710678118654757 0.75 forward I I I I #
loop $-1 $-1 $208 $62 #
coedge $-1 $132 $132 $209 $210 reversed $82 $-1 #
face $-1 $-1 $211 $48 $-1 $212 forward single #
loop $-1 $213 $214 $84 #
cone-surface $-1 -61.737987336968864 -30.755812896726745 2.1896213033462839 0 0.55919291073839883 -0.82903756765294845 0.75 0 0 1 I I -0.70710678118654757 0.70710678118654757 0.75 forward I I I I #
loop $-1 $-1 $215 $63 #
coedge $-1 $137 $137 $216 $217 reversed $85 $-1 #
face $-1 $218 $219 $49 $-1 $220 reversed single #
loop $-1 $-1 $221 $87 #
plane-surface $-1 57.398604800520118 -121.70927726442019 121.68589746492682 1 0 0 0 0.55919291073839883 -0.82903756765294845 forward_v I I I I #
coedge $-1 $222 $223 $224 $225 reversed $88 $-1 #
face $-1 $-1 $226 $50 $-1 $227 forward single #
loop $-1 $228 $229 $90 #
cone-surface $-1 61.737987336968871 -30.755812896726745 2.1896213033462839 0 0.55919291073839883 -0.82903756765294845 0.75 0 0 1 I I -0.70710678118654757 0.70710678118654757 0.75 forward I I I I #
loop $-1 $-1 $230 $65 #
coedge $-1 $146 $146 $231 $232 reversed $91 $-1 #
face $-1 $-1 $233 $51 $-1 $234 forward single #
loop $-1 $235 $236 $93 #
cone-surface $-1 68.247061141642007 -30.755812896726745 2.1896213033462839 0 0.55919291073839883 -0.82903756765294845 0.75 0 0 1 I I -0.70710678118654757 0.70710678118654757 0.75 forward I I I I #
loop $-1 $-1 $237 $66 #
coedge $-1 $151 $151 $238 $239 reversed $94 $-1 #
face $-1 $240 $241 $52 $-1 $242 reversed single #
loop $-1 $-1 $243 $96 #
plane-surface $-1 -51.673489649592668 -15.778861923263904 59.008851301161855 0 0.71933980857756763 0.69465836192734942 1 0 0 forward_v I I I I #
coedge $-1 $244 $245 $246 $247 reversed $97 $-1 #
face $-1 $-1 $248 $53 $-1 $249 forward single #
loop $-1 $250 $251 $99 #
cone-surface $-1 -51.673489649592668 32.358995679818754 2.6952216602046306 0 -0.71933980857756763 -0.69465836192734942 1 0 0 1 I I -0.70710678118654746 0.70710678118654746 1 forward I I I I #
loop $-1 $-1 $252 $68 #
coedge $-1 $160 $160 $253 $254 reversed $100 $-1 #
face $-1 $255 $256 $54 $-1 $257 reversed single #
loop $-1 $-1 $258 $102 #
plane-surface $-1 -17.224496549864227 -15.778861923263904 59.008851301161855 0 0.71933980857756763 0.69465836192734942 1 0 0 forward_v I I I I #
coedge $-1 $259 $260 $261 $262 reversed $103 $-1 #
face $-1 $-1 $263 $55 $-1 $264 forward single #
loop $-1 $265 $266 $105 #
cone-surface $-1 -17.224496549864227 32.358995679818754 2.6952216602046306 0 -0.71933980857756763 -0.69465836192734942 1 0 0 1 I I -0.70710678118654746 0.70710678118654746 1 forward I I I I #
loop $-1 $-1 $267 $70 #
coedge $-1 $169 $169 $268 $269 reversed $106 $-1 #
face $-1 $270 $271 $56 $-1 $272 reversed single #
loop $-1 $-1 $273 $108 #
plane-surface $-1 17.224496549864227 -15.778861923263904 59.008851301161855 0 0.71933980857756763 0.69465836192734942 1 0 0 forward_v I I I I #
coedge $-1 $274 $275 $276 $277 reversed $109 $-1 #
face $-1 $-1 $278 $57 $-1 $279 forward single #
loop $-1 $280 $281 $111 #
cone-surface $-1 17.224496549864227 32.358995679818754 2.6952216602046306 0 -0.71933980857756763 -0.69465836192734942 1 0 0 1 I I -0.70710678118654746 0.70710678118654746 1 forward I I I I #
loop $-1 $-1 $282 $72 #
coedge $-1 $178 $178 $283 $284 reversed $112 $-1 #
face $-1 $285 $286 $58 $-1 $287 reversed single #
loop $-1 $-1 $288 $114 #
plane-surface $-1 51.673489649592682 -15.778861923263904 59.008851301161855 0 0.71933980857756763 0.69465836192734942 1 0 0 forward_v I I I I #
coedge $-1 $289 $290 $291 $292 reversed $115 $-1 #
face $-1 $-1 $293 $59 $-1 $294 forward single #
loop $-1 $295 $296 $117 #
cone-surface $-1 51.673489649592682 32.358995679818754 2.6952216602046306 0 -0.71933980857756763 -0.69465836192734942 1 0 0 1 I I -0.70710678118654746 0.70710678118654746 1 forward I I I I #
loop $-1 $-1 $297 $74 #
coedge $-1 $187 $187 $298 $299 reversed $118 $-1 #
face $-1 $300 $301 $45 $-1 $302 reversed single #
loop $-1 $-1 $303 $120 #
plane-surface $-1 0 -40.529627823419325 0 0 1 0 0 0 1 forward_v I I I I #
coedge $-1 $304 $305 $306 $307 forward $121 $-1 #
coedge $-1 $308 $123 $309 $310 forward $76 $-1 #
coedge $-1 $123 $308 $311 $312 forward $76 $-1 #
coedge $-1 $313 $314 $123 $195 reversed $315 $-1 #
edge $-1 $316 -40.529627823419325 $317 40.529627823419325 $194 $318 forward 7 unknown #
face $-1 $319 $320 $46 $-1 $321 reversed single #
loop $-1 $-1 $202 $124 #
plane-surface $-1 0 0 10.93051915267057 0 0 1 1 0 0 forward_v I I I I #
coedge $-1 $322 $323 $324 $325 reversed $125 $-1 #
coedge $-1 $201 $127 $326 $327 reversed $79 $-1 #
coedge $-1 $127 $200 $322 $328 reversed $79 $-1 #
coedge $-1 $324 $329 $127 $203 forward $197 $-1 #
edge $-1 $330 20.325010808790772 $331 34.555222421385828 $202 $332 forward 7 unknown #
loop $-1 $-1 $209 $128 #
plane-surface $-1 -64.992524239305439 -40.529627823419332 1.3321200420026003 0 -0.55919291073839883 0.82903756765294845 1 0 0 forward_v I I I I #
loop $-1 $-1 $333 $81 #
coedge $-1 $207 $207 $208 $334 reversed $129 $-1 #
coedge $-1 $208 $208 $207 $334 forward $131 $-1 #
coedge $-1 $209 $209 $132 $210 forward $204 $-1 #
edge $-1 $335 2.8491492016110993e-016 $335 6.2831853071796004 $209 $336 forward 7 unknown #
loop $-1 $-1 $216 $133 #
plane-surface $-1 -64.992524239305439 -40.529627823419332 1.3321200420026003 0 -0.55919291073839883 0.82903756765294845 1 0 0 forward_v I I I I #
loop $-1 $-1 $337 $84 #
coedge $-1 $214 $214 $215 $338 reversed $134 $-1 #
coedge $-1 $215 $215 $214 $338 forward $136 $-1 #
coedge $-1 $216 $216 $137 $217 forward $211 $-1 #
edge $-1 $339 2.8491492016110993e-016 $339 6.2831853071796004 $216 $340 forward 7 unknown #
face $-1 $341 $342 $49 $-1 $343 forward single #
loop $-1 $-1 $344 $138 #
plane-surface $-1 72.586443678090774 0 0 -1 0 0 0 0 1 forward_v I I I I #
coedge $-1 $345 $346 $347 $348 reversed $139 $-1 #
coedge $-1 $349 $141 $344 $350 reversed $88 $-1 #
coedge $-1 $141 $349 $345 $351 forward $88 $-1 #
coedge $-1 $347 $352 $141 $225 forward $342 $-1 #
edge $-1 $353 -40.090181558438061 $354 -24.902342680867392 $224 $355 forward 7 unknown #
loop $-1 $-1 $231 $142 #
plane-surface $-1 64.992524239305453 -40.529627823419332 1.3321200420026003 0 -0.55919291073839883 0.82903756765294845 1 0 0 forward_v I I I I #
loop $-1 $-1 $356 $90 #
coedge $-1 $229 $229 $230 $357 reversed $143 $-1 #
coedge $-1 $230 $230 $229 $357 forward $145 $-1 #
coedge $-1 $231 $231 $146 $232 forward $226 $-1 #
edge $-1 $358 2.8491492016110993e-016 $358 6.2831853071796004 $231 $359 forward 7 unknown #
loop $-1 $-1 $238 $147 #
plane-surface $-1 64.992524239305453 -40.529627823419332 1.3321200420026003 0 -0.55919291073839883 0.82903756765294845 1 0 0 forward_v I I I I #
loop $-1 $-1 $360 $93 #
coedge $-1 $236 $236 $237 $361 reversed $148 $-1 #
coedge $-1 $237 $237 $236 $361 forward $150 $-1 #
coedge $-1 $238 $238 $151 $239 forward $233 $-1 #
edge $-1 $362 2.8491492016110993e-016 $362 6.2831853071796004 $238 $363 forward 7 unknown #
face $-1 $364 $365 $52 $-1 $366 reversed single #
loop $-1 $-1 $367 $152 #
plane-surface $-1 -41.890147571894985 88.649775078184518 159.85441142827054 -1 0 0 0 0.71933980857756763 0.69465836192734942 forward_v I I I I #
coedge $-1 $368 $369 $370 $371 reversed $153 $-1 #
coedge $-1 $245 $155 $372 $373 reversed $97 $-1 #
coedge $-1 $155 $244 $368 $374 reversed $97 $-1 #
coedge $-1 $370 $375 $155 $247 forward $376 $-1 #
edge $-1 $377 3.795259715672934 $378 13.675044897108108 $246 $379 forward 7 unknown #
loop $-1 $-1 $253 $156 #
plane-surface $-1 -51.673489649592668 -15.778861923263904 59.008851301161855 0 0.71933980857756763 0.69465836192734942 1 0 0 forward_v I I I I #
loop $-1 $-1 $380 $99 #
coedge $-1 $251 $251 $252 $381 reversed $157 $-1 #
coedge $-1 $252 $252 $251 $381 forward $159 $-1 #
coedge $-1 $253 $253 $160 $254 forward $248 $-1 #
edge $-1 $382 1.4782757175953684e-015 $382 6.2831853071796022 $253 $383 forward 7 unknown #
face $-1 $384 $385 $54 $-1 $386 forward single #
loop $-1 $-1 $387 $161 #
plane-surface $-1 -7.4411544721665415 88.649775078184518 159.85441142827054 -1 0 0 0 0.71933980857756763 0.69465836192734942 forward_v I I I I #
coedge $-1 $388 $389 $390 $391 reversed $162 $-1 #
coedge $-1 $260 $164 $392 $393 reversed $103 $-1 #
coedge $-1 $164 $259 $388 $394 reversed $103 $-1 #
coedge $-1 $390 $395 $164 $262 forward $385 $-1 #
edge $-1 $396 3.795259715672934 $397 13.675044897108108 $261 $398 forward 7 unknown #
loop $-1 $-1 $268 $165 #
plane-surface $-1 -17.224496549864227 -15.778861923263904 59.008851301161855 0 0.71933980857756763 0.69465836192734942 1 0 0 forward_v I I I I #
loop $-1 $-1 $399 $105 #
coedge $-1 $266 $266 $267 $400 reversed $166 $-1 #
coedge $-1 $267 $267 $266 $400 forward $168 $-1 #
coedge $-1 $268 $268 $169 $269 forward $263 $-1 #
edge $-1 $401 1.4782757175953684e-015 $401 6.2831853071796022 $268 $402 forward 7 unknown #
face $-1 $403 $404 $56 $-1 $405 forward single #
loop $-1 $-1 $406 $170 #
plane-surface $-1 27.007838627561913 88.649775078184518 159.85441142827054 -1 0 0 0 0.71933980857756763 0.69465836192734942 forward_v I I I I #
coedge $-1 $407 $408 $409 $410 reversed $171 $-1 #
coedge $-1 $275 $173 $411 $412 reversed $109 $-1 #
coedge $-1 $173 $274 $407 $413 reversed $109 $-1 #
coedge $-1 $409 $414 $173 $277 forward $404 $-1 #
edge $-1 $415 3.795259715672934 $416 13.675044897108108 $276 $417 forward 7 unknown #
loop $-1 $-1 $283 $174 #
plane-surface $-1 17.224496549864227 -15.778861923263904 59.008851301161855 0 0.71933980857756763 0.69465836192734942 1 0 0 forward_v I I I I #
loop $-1 $-1 $418 $111 #
coedge $-1 $281 $281 $282 $419 reversed $175 $-1 #
coedge $-1 $282 $282 $281 $419 forward $177 $-1 #
coedge $-1 $283 $283 $178 $284 forward $278 $-1 #
edge $-1 $420 1.4782757175953684e-015 $420 6.2831853071796022 $283 $421 forward 7 unknown #
face $-1 $422 $423 $58 $-1 $424 forward single #
loop $-1 $-1 $425 $179 #
plane-surface $-1 61.456831727290364 88.649775078184518 159.85441142827054 -1 0 0 0 0.71933980857756763 0.69465836192734942 forward_v I I I I #
coedge $-1 $426 $427 $428 $429 reversed $180 $-1 #
coedge $-1 $290 $182 $430 $431 reversed $115 $-1 #
coedge $-1 $182 $289 $426 $432 reversed $115 $-1 #
coedge $-1 $428 $433 $182 $292 forward $423 $-1 #
edge $-1 $434 3.795259715672934 $435 13.675044897108108 $291 $436 forward 7 unknown #
loop $-1 $-1 $298 $183 #
plane-surface $-1 51.673489649592682 -15.778861923263904 59.008851301161855 0 0.71933980857756763 0.69465836192734942 1 0 0 forward_v I I I I #
loop $-1 $-1 $437 $117 #
coedge $-1 $296 $296 $297 $438 reversed $184 $-1 #
coedge $-1 $297 $297 $296 $438 forward $186 $-1 #
coedge $-1 $298 $298 $187 $299 forward $293 $-1 #
edge $-1 $439 1.4782757175953684e-015 $439 6.2831853071796022 $298 $440 forward 7 unknown #
face $-1 $441 $442 $45 $-1 $443 reversed single #
loop $-1 $-1 $444 $188 #
plane-surface $-1 -72.586443678090774 0 0 1 0 0 0 0 -1 forward_v I I I I #
coedge $-1 $445 $311 $446 $447 forward $189 $-1 #
coedge $-1 $448 $191 $445 $449 forward $121 $-1 #
coedge $-1 $191 $448 $450 $451 forward $121 $-1 #
coedge $-1 $314 $313 $191 $307 reversed $315 $-1 #
edge $-1 $452 -40.529627823419325 $453 40.529627823419325 $306 $454 forward 7 unknown #
coedge $-1 $193 $192 $455 $456 forward $76 $-1 #
coedge $-1 $457 $458 $192 $310 reversed $442 $-1 #
edge $-1 $317 -72.586443678090774 $459 72.586443678090774 $309 $460 forward 7 unknown #
coedge $-1 $303 $461 $193 $312 reversed $189 $-1 #
edge $-1 $462 -72.586443678090774 $316 72.586443678090774 $311 $463 forward 7 unknown #
coedge $-1 $306 $194 $461 $464 forward $315 $-1 #
coedge $-1 $194 $306 $457 $465 reversed $315 $-1 #
loop $-1 $-1 $313 $441 #
vertex $-1 $195 $466 #
vertex $-1 $195 $467 #
straight-curve $-1 72.586443678090774 0 10.93051915267057 0 1 0 I I #
face $-1 $-1 $468 $46 $-1 $469 reversed single #
loop $-1 $-1 $470 $196 #
plane-surface $-1 -72.586443678090774 0 0 1 0 0 0 0 -1 forward_v I I I I #
coedge $-1 $471 $199 $201 $328 forward $125 $-1 #
coedge $-1 $199 $471 $470 $472 reversed $125 $-1 #
coedge $-1 $473 $202 $199 $325 forward $197 $-1 #
edge $-1 $331 24.902342680867385 $474 40.090181558438054 $324 $475 forward 7 unknown #
coedge $-1 $476 $477 $200 $327 forward $468 $-1 #
edge $-1 $478 -59.510828690460805 $330 -49.912429579792843 $326 $479 forward 7 unknown #
edge $-1 $331 -17.164736759615831 $478 -8.6223131303995443e-015 $201 $480 forward 7 unknown #
coedge $-1 $202 $473 $476 $481 forward $197 $-1 #
vertex $-1 $327 $482 #
vertex $-1 $203 $483 #
straight-curve $-1 -57.398604800520104 -60.854638632210097 10.93051915267057 0 1 0 I I #
coedge $-1 $333 $333 $-1 $484 reversed $206 $-1 #
edge $-1 $485 0 $485 6.2831853071796004 $207 $486 forward 7 unknown #
vertex $-1 $210 $487 #
ellipse-curve $-1 -68.247061141642007 -33.41452201712179 6.1313195973365904 0 -0.55919291073839883 0.82903756765294845 1.5 0 0 1 I I #
coedge $-1 $337 $337 $-1 $488 reversed $213 $-1 #
edge $-1 $489 0 $489 6.2831853071796004 $214 $490 forward 7 unknown #
vertex $-1 $217 $491 #
ellipse-curve $-1 -61.737987336968864 -33.41452201712179 6.1313195973365904 0 -0.55919291073839883 0.82903756765294845 1.5 0 0 1 I I #
face $-1 $-1 $492 $49 $-1 $493 reversed single #
loop $-1 $-1 $224 $218 #
plane-surface $-1 0 0 10.93051915267057 0 0 1 1 0 0 forward_v I I I I #
coedge $-1 $494 $495 $222 $350 forward $219 $-1 #
coedge $-1 $346 $221 $223 $351 reversed $139 $-1 #
coedge $-1 $221 $345 $496 $497 reversed $139 $-1 #
coedge $-1 $498 $224 $221 $348 forward $342 $-1 #
edge $-1 $354 -34.555222421385828 $499 -20.325010808790772 $347 $500 forward 7 unknown #
coedge $-1 $223 $222 $501 $502 reversed $88 $-1 #
edge $-1 $503 -16.427835992433209 $353 0.73690076718261444 $344 $504 forward 7 unknown #
edge $-1 $505 8.6223131303995443e-015 $354 17.164736759615831 $345 $506 forward 7 unknown #
coedge $-1 $224 $498 $494 $507 forward $342 $-1 #
vertex $-1 $225 $508 #
vertex $-1 $225 $509 #
straight-curve $-1 32.496262119652727 -26.299416210824269 10.93051915267057 -1 0 0 I I #
coedge $-1 $356 $356 $-1 $510 reversed $228 $-1 #
edge $-1 $511 0 $511 6.2831853071796004 $229 $512 forward 7 unknown #
vertex $-1 $232 $513 #
ellipse-curve $-1 61.737987336968871 -33.41452201712179 6.1313195973365904 0 -0.55919291073839883 0.82903756765294845 1.5 0 0 1 I I #
coedge $-1 $360 $360 $-1 $514 reversed $235 $-1 #
edge $-1 $515 0 $515 6.2831853071796004 $236 $516 forward 7 unknown #
vertex $-1 $239 $517 #
ellipse-curve $-1 68.247061141642007 -33.41452201712179 6.1313195973365904 0 -0.55919291073839883 0.82903756765294845 1.5 0 0 1 I I #
face $-1 $-1 $376 $52 $-1 $518 forward single #
loop $-1 $-1 $519 $240 #
plane-surface $-1 0 40.529627823419325 0 0 -1 0 0 0 -1 forward_v I I I I #
coedge $-1 $520 $521 $522 $523 reversed $241 $-1 #
coedge $-1 $524 $243 $245 $374 forward $153 $-1 #
coedge $-1 $243 $524 $520 $525 forward $153 $-1 #
coedge $-1 $522 $246 $243 $371 forward $376 $-1 #
edge $-1 $378 -35.620086902494016 $526 -16.053402747098652 $370 $527 forward 7 unknown #
coedge $-1 $528 $529 $244 $373 forward $365 $-1 #
edge $-1 $530 -79.227503853410497 $377 -68.996686561464699 $372 $531 forward 7 unknown #
edge $-1 $378 66.836746104128494 $530 81.059255646838707 $245 $532 forward 7 unknown #
coedge $-1 $246 $522 $528 $533 forward $376 $-1 #
loop $-1 $-1 $522 $364 #
vertex $-1 $373 $534 #
vertex $-1 $247 $535 #
straight-curve $-1 -61.45683172729035 44.324887539092259 10.93051915267057 0 -1 0 I I #
coedge $-1 $380 $380 $-1 $536 reversed $250 $-1 #
edge $-1 $537 0 $537 6.2831853071796004 $251 $538 forward 7 unknown #
vertex $-1 $254 $539 #
ellipse-curve $-1 -51.673489649592668 35.589735232701734 5.8151105066976694 0 0.71933980857756763 0.69465836192734942 2 0 0 1 I I #
face $-1 $-1 $540 $54 $-1 $541 reversed single #
loop $-1 $-1 $261 $255 #
plane-surface $-1 0 0 10.93051915267057 0 0 1 1 0 0 forward_v I I I I #
coedge $-1 $542 $543 $544 $545 reversed $256 $-1 #
coedge $-1 $546 $258 $260 $394 forward $162 $-1 #
coedge $-1 $258 $546 $542 $547 forward $162 $-1 #
coedge $-1 $544 $261 $258 $391 forward $385 $-1 #
edge $-1 $397 -18.395590352629799 $548 1.1710938027655722 $390 $549 forward 7 unknown #
coedge $-1 $550 $551 $259 $393 forward $540 $-1 #
edge $-1 $552 -79.227503853410497 $396 -68.996686561464699 $392 $553 forward 7 unknown #
edge $-1 $397 66.836746104128494 $552 81.059255646838707 $260 $554 forward 7 unknown #
coedge $-1 $261 $544 $550 $555 forward $385 $-1 #
vertex $-1 $393 $556 #
vertex $-1 $262 $557 #
straight-curve $-1 -27.007838627561913 44.324887539092259 10.93051915267057 0 -1 0 I I #
coedge $-1 $399 $399 $-1 $558 reversed $265 $-1 #
edge $-1 $559 0 $559 6.2831853071796004 $266 $560 forward 7 unknown #
vertex $-1 $269 $561 #
ellipse-curve $-1 -17.224496549864227 35.589735232701734 5.8151105066976694 0 0.71933980857756763 0.69465836192734942 2 0 0 1 I I #
face $-1 $-1 $562 $56 $-1 $563 reversed single #
loop $-1 $-1 $276 $270 #
plane-surface $-1 0 0 10.93051915267057 0 0 1 1 0 0 forward_v I I I I #
coedge $-1 $564 $565 $566 $567 reversed $271 $-1 #
coedge $-1 $568 $273 $275 $413 forward $171 $-1 #
coedge $-1 $273 $568 $564 $569 forward $171 $-1 #
coedge $-1 $566 $276 $273 $410 forward $404 $-1 #
edge $-1 $416 -1.1710938027655722 $570 18.395590352629799 $409 $571 forward 7 unknown #
coedge $-1 $572 $573 $274 $412 forward $562 $-1 #
edge $-1 $574 -79.227503853410497 $415 -68.996686561464699 $411 $575 forward 7 unknown #
edge $-1 $416 66.836746104128494 $574 81.059255646838707 $275 $576 forward 7 unknown #
coedge $-1 $276 $566 $572 $577 forward $404 $-1 #
vertex $-1 $277 $578 #
vertex $-1 $277 $579 #
straight-curve $-1 7.4411544721665415 44.324887539092259 10.93051915267057 0 -1 0 I I #
coedge $-1 $418 $418 $-1 $580 reversed $280 $-1 #
edge $-1 $581 0 $581 6.2831853071796004 $281 $582 forward 7 unknown #
vertex $-1 $284 $583 #
ellipse-curve $-1 17.224496549864227 35.589735232701734 5.8151105066976694 0 0.71933980857756763 0.69465836192734942 2 0 0 1 I I #
face $-1 $-1 $584 $58 $-1 $585 reversed single #
loop $-1 $-1 $291 $285 #
plane-surface $-1 0 0 10.93051915267057 0 0 1 1 0 0 forward_v I I I I #
coedge $-1 $586 $587 $588 $589 reversed $286 $-1 #
coedge $-1 $590 $288 $290 $432 forward $180 $-1 #
coedge $-1 $288 $590 $586 $591 forward $180 $-1 #
coedge $-1 $588 $291 $288 $429 forward $423 $-1 #
edge $-1 $435 16.053402747098659 $592 35.620086902494023 $428 $593 forward 7 unknown #
coedge $-1 $594 $595 $289 $431 forward $584 $-1 #
edge $-1 $596 -79.227503853410497 $434 -68.996686561464699 $430 $597 forward 7 unknown #
edge $-1 $435 66.836746104128494 $596 81.059255646838707 $290 $598 forward 7 unknown #
coedge $-1 $291 $588 $594 $599 forward $423 $-1 #
vertex $-1 $292 $600 #
vertex $-1 $292 $601 #
straight-curve $-1 41.890147571895 44.324887539092259 10.93051915267057 0 -1 0 I I #
coedge $-1 $437 $437 $-1 $602 reversed $295 $-1 #
edge $-1 $603 0 $603 6.2831853071796004 $296 $604 forward 7 unknown #
vertex $-1 $299 $605 #
ellipse-curve $-1 51.673489649592682 35.589735232701734 5.8151105066976694 0 0.71933980857756763 0.69465836192734942 2 0 0 1 I I #
face $-1 $-1 $315 $45 $-1 $606 reversed single #
loop $-1 $-1 $457 $300 #
plane-surface $-1 0 40.529627823419325 0 0 -1 0 0 0 -1 forward_v I I I I #
coedge $-1 $607 $455 $458 $608 forward $301 $-1 #
coedge $-1 $461 $303 $304 $449 reversed $189 $-1 #
coedge $-1 $455 $607 $303 $447 reversed $301 $-1 #
edge $-1 $462 -10.93051915267057 $609 10.93051915267057 $446 $610 forward 7 unknown #
coedge $-1 $305 $304 $607 $611 forward $121 $-1 #
edge $-1 $453 -72.586443678090774 $609 72.586443678090774 $445 $612 forward 7 unknown #
coedge $-1 $458 $457 $305 $451 reversed $442 $-1 #
edge $-1 $613 -72.586443678090774 $452 72.586443678090774 $450 $614 forward 7 unknown #
vertex $-1 $307 $615 #
vertex $-1 $464 $616 #
straight-curve $-1 72.586443678090774 0 -10.93051915267057 0 -1 0 I I #
coedge $-1 $444 $446 $308 $456 reversed $301 $-1 #
edge $-1 $459 -40.529627823419325 $462 40.529627823419325 $455 $617 forward 7 unknown #
coedge $-1 $450 $309 $314 $465 forward $442 $-1 #
coedge $-1 $309 $450 $444 $608 reversed $442 $-1 #
vertex $-1 $310 $618 #
straight-curve $-1 0 40.529627823419325 10.93051915267057 -1 0 0 I I #
coedge $-1 $311 $445 $313 $464 reversed $189 $-1 #
vertex $-1 $456 $619 #
straight-curve $-1 0 -40.529627823419325 10.93051915267057 1 0 0 I I #
edge $-1 $316 -10.93051915267057 $453 10.93051915267057 $313 $620 forward 7 unknown #
edge $-1 $317 -10.93051915267057 $452 10.93051915267057 $314 $621 forward 7 unknown #
point $-1 72.586443678090774 -40.529627823419325 10.93051915267057 #
point $-1 72.586443678090774 40.529627823419325 10.93051915267057 #
loop $-1 $-1 $326 $319 #
plane-surface $-1 0 -40.529627823419325 0 0 1 0 0 0 1 forward_v I I I I #
coedge $-1 $622 $623 $323 $472 forward $320 $-1 #
coedge $-1 $323 $322 $477 $624 reversed $125 $-1 #
edge $-1 $474 -0.73690076718261444 $625 16.427835992433209 $470 $626 forward 7 unknown #
coedge $-1 $329 $324 $623 $627 forward $197 $-1 #
vertex $-1 $627 $628 #
straight-curve $-1 -32.496262119652719 -26.299416210824269 10.93051915267057 -1 0 0 I I #
coedge $-1 $629 $326 $329 $481 reversed $468 $-1 #
coedge $-1 $326 $629 $471 $624 forward $468 $-1 #
vertex $-1 $327 $630 #
straight-curve $-1 -57.398604800520104 -40.529627823419325 60.842948732463412 0 0 1 I I #
straight-curve $-1 -57.398604800520104 -40.529627823419332 1.3321200420026003 0 -0.82903756765294845 -0.55919291073839883 I I #
edge $-1 $631 -72.586443678090774 $330 -57.398604800520104 $476 $632 forward 7 unknown #
point $-1 -57.398604800520104 -40.529627823419325 10.93051915267057 #
point $-1 -57.398604800520104 -26.299416210824269 10.930519152670568 #
edge $-1 $633 1 $633 0 $333 $-1 forward 7 unknown #
vertex $-1 $334 $634 #
ellipse-curve $-1 -68.247061141642007 -31.175207579780544 2.8113994790859955 0 -0.55919291073839883 0.82903756765294845 1.5 0 0 1 I I #
point $-1 -66.747061141642007 -33.414522017121783 6.1313195973365806 #
edge $-1 $635 1 $635 0 $337 $-1 forward 7 unknown #
vertex $-1 $338 $636 #
ellipse-curve $-1 -61.737987336968864 -31.175207579780544 2.8113994790859955 0 -0.55919291073839883 0.82903756765294845 1.5 0 0 1 I I #
point $-1 -60.237987336968864 -33.414522017121783 6.1313195973365806 #
loop $-1 $-1 $501 $341 #
plane-surface $-1 0 -40.529627823419325 0 0 1 0 0 0 1 forward_v I I I I #
coedge $-1 $495 $344 $352 $507 reversed $219 $-1 #
coedge $-1 $344 $494 $637 $638 forward $219 $-1 #
coedge $-1 $501 $639 $346 $497 forward $492 $-1 #
edge $-1 $499 49.912429579792843 $505 59.510828690460805 $496 $640 forward 7 unknown #
coedge $-1 $352 $347 $639 $641 forward $342 $-1 #
vertex $-1 $641 $642 #
straight-curve $-1 57.398604800520118 -60.854638632210097 10.93051915267057 0 -1 0 I I #
coedge $-1 $637 $496 $349 $502 forward $492 $-1 #
edge $-1 $505 24.902342680867392 $503 40.090181558438061 $501 $643 forward 7 unknown #
vertex $-1 $502 $644 #
straight-curve $-1 72.586443678090774 -26.910334630450937 10.518449467744365 0 0.82903756765294845 0.55919291073839883 I I #
vertex $-1 $502 $645 #
straight-curve $-1 57.398604800520118 -40.529627823419332 1.3321200420026003 0 0.82903756765294845 0.55919291073839883 I I #
edge $-1 $646 -40.529627823419325 $353 -26.299416210824269 $494 $647 forward 7 unknown #
point $-1 72.586443678090788 -26.299416210824269 10.930519152670568 #
point $-1 57.398604800520118 -26.299416210824269 10.930519152670568 #
edge $-1 $648 1 $648 0 $356 $-1 forward 7 unknown #
vertex $-1 $357 $649 #
ellipse-curve $-1 61.737987336968871 -31.175207579780544 2.8113994790859955 0 -0.55919291073839883 0.82903756765294845 1.5 0 0 1 I I #
point $-1 63.237987336968871 -33.414522017121783 6.1313195973365806 #
edge $-1 $650 1 $650 0 $360 $-1 forward 7 unknown #
vertex $-1 $361 $651 #
ellipse-curve $-1 68.247061141642007 -31.175207579780544 2.8113994790859955 0 -0.55919291073839883 0.82903756765294845 1.5 0 0 1 I I #
point $-1 69.747061141642007 -33.414522017121783 6.1313195973365806 #
plane-surface $-1 0 0 10.93051915267057 0 0 1 1 0 0 forward_v I I I I #
coedge $-1 $529 $528 $521 $652 forward $365 $-1 #
coedge $-1 $521 $367 $369 $525 reversed $241 $-1 #
coedge $-1 $367 $520 $519 $652 reversed $241 $-1 #
coedge $-1 $375 $370 $367 $523 forward $376 $-1 #
edge $-1 $526 -13.675044897108108 $653 -3.795259715672934 $522 $654 forward 7 unknown #
coedge $-1 $369 $368 $529 $655 reversed $153 $-1 #
edge $-1 $656 -81.059255646838707 $526 -66.836746104128494 $520 $657 forward 7 unknown #
vertex $-1 $371 $658 #
straight-curve $-1 -25.836744824796334 30.649842641984151 10.930519152670573 1 0 0 I I #
coedge $-1 $519 $372 $375 $533 reversed $365 $-1 #
coedge $-1 $372 $519 $524 $655 forward $365 $-1 #
vertex $-1 $373 $659 #
straight-curve $-1 -61.45683172729035 40.529627823419325 79.927205714135269 0 0 1 I I #
straight-curve $-1 -61.45683172729035 -15.778861923263904 59.008851301161855 0 0.69465836192734942 -0.71933980857756763 I I #
edge $-1 $653 41.890147571894985 $377 61.45683172729035 $528 $660 forward 7 unknown #
point $-1 -61.45683172729035 40.529627823419325 10.93051915267057 #
point $-1 -61.45683172729035 30.649842641984151 10.930519152670577 #
edge $-1 $661 1 $661 0 $380 $-1 forward 7 unknown #
vertex $-1 $381 $662 #
ellipse-curve $-1 -51.673489649592668 33.07833548839632 3.38988002213198 0 0.71933980857756763 0.69465836192734942 2 0 0 1 I I #
point $-1 -49.673489649592668 35.58973523270177 5.8151105066976996 #
loop $-1 $-1 $392 $384 #
plane-surface $-1 0 40.529627823419325 0 0 -1 0 0 0 -1 forward_v I I I I #
coedge $-1 $543 $387 $389 $547 reversed $256 $-1 #
coedge $-1 $387 $542 $663 $664 reversed $256 $-1 #
coedge $-1 $395 $390 $387 $545 forward $385 $-1 #
edge $-1 $548 -13.675044897108108 $665 -3.795259715672934 $544 $666 forward 7 unknown #
coedge $-1 $389 $388 $551 $667 reversed $162 $-1 #
edge $-1 $668 -81.059255646838707 $548 -66.836746104128494 $542 $669 forward 7 unknown #
vertex $-1 $391 $670 #
straight-curve $-1 -8.6122482749321136 30.649842641984151 10.930519152670573 1 0 0 I I #
coedge $-1 $663 $392 $395 $555 reversed $540 $-1 #
coedge $-1 $392 $663 $546 $667 forward $540 $-1 #
vertex $-1 $393 $671 #
straight-curve $-1 -27.007838627561913 40.529627823419325 79.927205714135269 0 0 1 I I #
straight-curve $-1 -27.007838627561913 -15.778861923263904 59.008851301161855 0 0.69465836192734942 -0.71933980857756763 I I #
edge $-1 $665 7.4411544721665415 $396 27.007838627561913 $550 $672 forward 7 unknown #
point $-1 -27.007838627561913 40.529627823419325 10.93051915267057 #
point $-1 -27.007838627561913 30.649842641984151 10.930519152670577 #
edge $-1 $673 1 $673 0 $399 $-1 forward 7 unknown #
vertex $-1 $400 $674 #
ellipse-curve $-1 -17.224496549864227 33.07833548839632 3.38988002213198 0 0.71933980857756763 0.69465836192734942 2 0 0 1 I I #
point $-1 -15.224496549864227 35.58973523270177 5.8151105066976996 #
loop $-1 $-1 $411 $403 #
plane-surface $-1 0 40.529627823419325 0 0 -1 0 0 0 -1 forward_v I I I I #
coedge $-1 $565 $406 $408 $569 reversed $271 $-1 #
coedge $-1 $406 $564 $675 $676 reversed $271 $-1 #
coedge $-1 $414 $409 $406 $567 forward $404 $-1 #
edge $-1 $570 -13.675044897108108 $677 -3.795259715672934 $566 $678 forward 7 unknown #
coedge $-1 $408 $407 $573 $679 reversed $171 $-1 #
edge $-1 $680 -81.059255646838707 $570 -66.836746104128494 $564 $681 forward 7 unknown #
vertex $-1 $410 $682 #
straight-curve $-1 8.6122482749321136 30.649842641984151 10.930519152670573 1 0 0 I I #
coedge $-1 $675 $411 $414 $577 reversed $562 $-1 #
coedge $-1 $411 $675 $568 $679 forward $562 $-1 #
vertex $-1 $412 $683 #
straight-curve $-1 7.4411544721665415 40.529627823419325 79.927205714135269 0 0 1 I I #
straight-curve $-1 7.4411544721665415 -15.778861923263904 59.008851301161855 0 0.69465836192734942 -0.71933980857756763 I I #
edge $-1 $677 -27.007838627561913 $415 -7.4411544721665415 $572 $684 forward 7 unknown #
point $-1 7.4411544721665415 40.529627823419325 10.93051915267057 #
point $-1 7.4411544721665415 30.649842641984151 10.930519152670577 #
edge $-1 $685 1 $685 0 $418 $-1 forward 7 unknown #
vertex $-1 $419 $686 #
ellipse-curve $-1 17.224496549864227 33.07833548839632 3.38988002213198 0 0.71933980857756763 0.69465836192734942 2 0 0 1 I I #
point $-1 19.224496549864227 35.58973523270177 5.8151105066976996 #
loop $-1 $-1 $430 $422 #
plane-surface $-1 0 40.529627823419325 0 0 -1 0 0 0 -1 forward_v I I I I #
coedge $-1 $587 $425 $427 $591 reversed $286 $-1 #
coedge $-1 $425 $586 $687 $688 reversed $286 $-1 #
coedge $-1 $433 $428 $425 $589 forward $423 $-1 #
edge $-1 $592 -13.675044897108108 $689 -3.795259715672934 $588 $690 forward 7 unknown #
coedge $-1 $427 $426 $595 $691 reversed $180 $-1 #
edge $-1 $692 -81.059255646838707 $592 -66.836746104128494 $586 $693 forward 7 unknown #
vertex $-1 $429 $694 #
straight-curve $-1 25.836744824796341 30.649842641984151 10.930519152670573 1 0 0 I I #
coedge $-1 $687 $430 $433 $599 reversed $584 $-1 #
coedge $-1 $430 $687 $590 $691 forward $584 $-1 #
vertex $-1 $431 $695 #
straight-curve $-1 41.890147571895 40.529627823419325 79.927205714135269 0 0 1 I I #
straight-curve $-1 41.890147571895 -15.778861923263904 59.008851301161855 0 0.69465836192734942 -0.71933980857756763 I I #
edge $-1 $689 -61.456831727290364 $434 -41.890147571895 $594 $696 forward 7 unknown #
point $-1 41.890147571895 40.529627823419325 10.93051915267057 #
point $-1 41.890147571895 30.649842641984151 10.930519152670577 #
edge $-1 $697 1 $697 0 $437 $-1 forward 7 unknown #
vertex $-1 $438 $698 #
ellipse-curve $-1 51.673489649592682 33.07833548839632 3.38988002213198 0 0.71933980857756763 0.69465836192734942 2 0 0 1 I I #
point $-1 53.673489649592682 35.58973523270177 5.8151105066976996 #
plane-surface $-1 72.586443678090774 0 0 -1 0 0 0 0 1 forward_v I I I I #
coedge $-1 $446 $444 $448 $611 reversed $301 $-1 #
edge $-1 $459 -10.93051915267057 $613 10.93051915267057 $458 $699 forward 7 unknown #
vertex $-1 $611 $700 #
straight-curve $-1 -72.586443678090774 -40.529627823419325 0 0 0 -1 I I #
edge $-1 $609 -40.529627823419325 $613 40.529627823419325 $607 $701 forward 7 unknown #
straight-curve $-1 0 -40.529627823419325 -10.93051915267057 -1 0 0 I I #
vertex $-1 $451 $702 #
straight-curve $-1 0 40.529627823419325 -10.93051915267057 1 0 0 I I #
point $-1 72.586443678090774 40.529627823419325 -10.93051915267057 #
point $-1 72.586443678090774 -40.529627823419325 -10.93051915267057 #
straight-curve $-1 -72.586443678090774 0 10.93051915267057 0 -1 0 I I #
point $-1 -72.586443678090774 40.529627823419325 10.93051915267057 #
point $-1 -72.586443678090774 -40.529627823419325 10.93051915267057 #
straight-curve $-1 72.586443678090774 -40.529627823419325 0 0 0 -1 I I #
straight-curve $-1 72.586443678090774 40.529627823419325 0 0 0 -1 I I #
coedge $-1 $623 $470 $629 $703 reversed $320 $-1 #
coedge $-1 $470 $622 $473 $627 reversed $320 $-1 #
edge $-1 $625 -40.090181558438054 $478 -24.902342680867385 $477 $704 forward 7 unknown #
vertex $-1 $472 $705 #
straight-curve $-1 -72.586443678090774 -26.910334630450937 10.518449467744365 0 -0.82903756765294845 -0.55919291073839883 I I #
edge $-1 $474 26.299416210824269 $631 40.529627823419325 $623 $706 forward 7 unknown #
point $-1 -72.586443678090774 -26.299416210824269 10.930519152670568 #
coedge $-1 $477 $476 $622 $703 forward $468 $-1 #
point $-1 -57.398604800520104 -40.529627823419325 1.3321200420026051 #
vertex $-1 $627 $707 #
straight-curve $-1 0 -40.529627823419325 10.93051915267057 1 0 0 I I #
vertex $-1 $484 $708 #
point $-1 -66.747061141642007 -31.175207579780544 2.8113994790859955 #
vertex $-1 $488 $709 #
point $-1 -60.237987336968864 -31.175207579780544 2.8113994790859955 #
coedge $-1 $639 $501 $495 $638 reversed $492 $-1 #
edge $-1 $646 -10.93051915267057 $503 -1.3321200420026051 $495 $710 forward 7 unknown #
coedge $-1 $496 $637 $498 $641 reversed $492 $-1 #
straight-curve $-1 57.398604800520118 -40.529627823419325 60.842948732463412 0 0 -1 I I #
edge $-1 $499 57.398604800520118 $646 72.586443678090774 $639 $711 forward 7 unknown #
point $-1 57.398604800520118 -40.529627823419325 10.93051915267057 #
straight-curve $-1 32.496262119652727 -40.529627823419325 1.3321200420026069 1 0 0 I I #
point $-1 72.586443678090788 -40.529627823419325 1.3321200420026051 #
point $-1 57.398604800520118 -40.529627823419325 1.3321200420026051 #
vertex $-1 $507 $712 #
straight-curve $-1 72.586443678090774 0 10.93051915267057 0 1 0 I I #
vertex $-1 $510 $713 #
point $-1 63.237987336968871 -31.175207579780544 2.8113994790859955 #
vertex $-1 $514 $714 #
point $-1 69.747061141642007 -31.175207579780544 2.8113994790859955 #
edge $-1 $653 68.996686561464699 $656 79.227503853410497 $519 $715 forward 7 unknown #
vertex $-1 $533 $716 #
straight-curve $-1 -41.890147571894985 44.324887539092259 10.93051915267057 0 1 0 I I #
edge $-1 $656 16.053402747098652 $530 35.620086902494016 $529 $717 forward 7 unknown #
vertex $-1 $655 $718 #
straight-curve $-1 -41.890147571894985 -15.778861923263904 59.008851301161855 0 -0.69465836192734942 0.71933980857756763 I I #
point $-1 -41.890147571894985 30.649842641984151 10.930519152670577 #
point $-1 -61.45683172729035 40.529627823419318 0.69970186072477958 #
straight-curve $-1 0 40.529627823419325 10.93051915267057 -1 0 0 I I #
vertex $-1 $536 $719 #
point $-1 -49.673489649592668 33.07833548839632 3.38988002213198 #
coedge $-1 $551 $550 $543 $664 forward $540 $-1 #
edge $-1 $665 68.996686561464699 $668 79.227503853410497 $663 $720 forward 7 unknown #
vertex $-1 $555 $721 #
straight-curve $-1 -7.4411544721665415 44.324887539092259 10.93051915267057 0 1 0 I I #
edge $-1 $668 -1.1710938027655722 $552 18.395590352629799 $551 $722 forward 7 unknown #
vertex $-1 $667 $723 #
straight-curve $-1 -7.4411544721665415 -15.778861923263904 59.008851301161855 0 -0.69465836192734942 0.71933980857756763 I I #
point $-1 -7.4411544721665415 30.649842641984151 10.930519152670577 #
point $-1 -27.007838627561913 40.529627823419318 0.69970186072477958 #
straight-curve $-1 0 40.529627823419325 10.93051915267057 -1 0 0 I I #
vertex $-1 $558 $724 #
point $-1 -15.224496549864227 33.07833548839632 3.38988002213198 #
coedge $-1 $573 $572 $565 $676 forward $562 $-1 #
edge $-1 $677 68.996686561464699 $680 79.227503853410497 $675 $725 forward 7 unknown #
vertex $-1 $577 $726 #
straight-curve $-1 27.007838627561913 44.324887539092259 10.93051915267057 0 1 0 I I #
edge $-1 $680 -18.395590352629799 $574 1.1710938027655722 $573 $727 forward 7 unknown #
vertex $-1 $679 $728 #
straight-curve $-1 27.007838627561913 -15.778861923263904 59.008851301161855 0 -0.69465836192734942 0.71933980857756763 I I #
point $-1 27.007838627561913 30.649842641984151 10.930519152670577 #
point $-1 7.4411544721665415 40.529627823419318 0.69970186072477958 #
straight-curve $-1 0 40.529627823419325 10.93051915267057 -1 0 0 I I #
vertex $-1 $580 $729 #
point $-1 19.224496549864227 33.07833548839632 3.38988002213198 #
coedge $-1 $595 $594 $587 $688 forward $584 $-1 #
edge $-1 $689 68.996686561464699 $692 79.227503853410497 $687 $730 forward 7 unknown #
vertex $-1 $599 $731 #
straight-curve $-1 61.456831727290364 44.324887539092259 10.93051915267057 0 1 0 I I #
edge $-1 $692 -35.620086902494023 $596 -16.053402747098659 $595 $732 forward 7 unknown #
vertex $-1 $691 $733 #
straight-curve $-1 61.456831727290364 -15.778861923263904 59.008851301161855 0 -0.69465836192734942 0.71933980857756763 I I #
point $-1 61.456831727290364 30.649842641984151 10.930519152670577 #
point $-1 41.890147571895 40.529627823419318 0.69970186072477958 #
straight-curve $-1 0 40.529627823419325 10.93051915267057 -1 0 0 I I #
vertex $-1 $602 $734 #
point $-1 53.673489649592682 33.07833548839632 3.38988002213198 #
straight-curve $-1 -72.586443678090774 40.529627823419325 0 0 0 -1 I I #
point $-1 -72.586443678090774 -40.529627823419325 -10.93051915267057 #
straight-curve $-1 -72.586443678090774 0 -10.93051915267057 0 1 0 I I #
point $-1 -72.586443678090774 40.529627823419325 -10.93051915267057 #
edge $-1 $631 -10.93051915267057 $625 -1.3321200420026051 $622 $735 forward 7 unknown #
straight-curve $-1 -32.496262119652719 -40.529627823419325 1.3321200420026069 1 0 0 I I #
point $-1 -72.586443678090774 -40.529627823419325 1.3321200420026051 #
straight-curve $-1 -72.586443678090774 0 10.93051915267057 0 -1 0 I I #
point $-1 -72.586443678090774 -40.529627823419325 10.93051915267057 #
point $-1 -68.247061141642007 -30.336418213672946 1.5678431276065725 #
point $-1 -61.737987336968864 -30.336418213672946 1.5678431276065725 #
straight-curve $-1 72.586443678090774 -40.529627823419325 0 0 0 -1 I I #
straight-curve $-1 0 -40.529627823419325 10.93051915267057 1 0 0 I I #
point $-1 72.586443678090774 -40.529627823419325 10.93051915267057 #
point $-1 61.737987336968871 -30.336418213672946 1.5678431276065725 #
point $-1 68.247061141642007 -30.336418213672946 1.5678431276065725 #
straight-curve $-1 -41.890147571894985 40.529627823419325 79.927205714135269 0 0 -1 I I #
point $-1 -41.890147571894985 40.529627823419325 10.93051915267057 #
straight-curve $-1 -25.836744824796334 40.529627823419325 0.69970186072477958 -1 0 0 I I #
point $-1 -41.890147571894985 40.529627823419318 0.69970186072477958 #
point $-1 -51.673489649592668 31.639655871241185 2.0005632982772812 #
straight-curve $-1 -7.4411544721665415 40.529627823419325 79.927205714135269 0 0 -1 I I #
point $-1 -7.4411544721665415 40.529627823419325 10.93051915267057 #
straight-curve $-1 -8.6122482749321136 40.529627823419325 0.69970186072477958 -1 0 0 I I #
point $-1 -7.4411544721665415 40.529627823419318 0.69970186072477958 #
point $-1 -17.224496549864227 31.639655871241185 2.0005632982772812 #
straight-curve $-1 27.007838627561913 40.529627823419325 79.927205714135269 0 0 -1 I I #
point $-1 27.007838627561913 40.529627823419325 10.93051915267057 #
straight-curve $-1 8.6122482749321136 40.529627823419325 0.69970186072477958 -1 0 0 I I #
point $-1 27.007838627561913 40.529627823419318 0.69970186072477958 #
point $-1 17.224496549864227 31.639655871241185 2.0005632982772812 #
straight-curve $-1 61.456831727290364 40.529627823419325 79.927205714135269 0 0 -1 I I #
point $-1 61.456831727290364 40.529627823419325 10.93051915267057 #
straight-curve $-1 25.836744824796341 40.529627823419325 0.69970186072477958 -1 0 0 I I #
point $-1 61.456831727290364 40.529627823419318 0.69970186072477958 #
point $-1 51.673489649592682 31.639655871241185 2.0005632982772812 #
straight-curve $-1 -72.586443678090774 -40.529627823419325 0 0 0 -1 I I #
End-of-ACIS-data 