500 0 10 0           
7 Unknown 11 ACIS 5.0 NT 24 Thu Mar 25 17:38:52 1999 
-1 9.9999999999999995e-007 1e-010 
body $-1 $10 $-1 $11 #
body $-1 $12 $-1 $13 #
body $-1 $14 $-1 $15 #
body $-1 $16 $-1 $17 #
body $-1 $18 $-1 $19 #
body $-1 $20 $-1 $21 #
body $-1 $22 $-1 $23 #
body $-1 $24 $-1 $25 #
body $-1 $26 $-1 $27 #
body $-1 $28 $-1 $29 #
lump $-1 $-1 $30 $0 #
transform $-1 1 0 0 0 1 0 0 0 1 45.908383434553059 21.421156860436174 8.4010394746668027 1 rotate no_reflect no_shear #
lump $-1 $-1 $31 $1 #
transform $-1 1 0 0 0 1 0 0 0 1 45.908383434553059 21.421156860436174 8.4010394746668027 1 rotate no_reflect no_shear #
lump $-1 $-1 $32 $2 #
transform $-1 1 0 0 0 1 0 0 0 1 45.908383434553059 21.421156860436174 8.4010394746668027 1 rotate no_reflect no_shear #
lump $-1 $-1 $33 $3 #
transform $-1 1 0 0 0 1 0 0 0 1 45.908383434553059 21.421156860436174 8.4010394746668027 1 rotate no_reflect no_shear #
lump $-1 $-1 $34 $4 #
transform $-1 1 0 0 0 1 0 0 0 1 45.908383434553059 21.421156860436174 8.4010394746668027 1 rotate no_reflect no_shear #
lump $-1 $-1 $35 $5 #
transform $-1 1 0 0 0 1 0 0 0 1 45.908383434553059 21.421156860436174 8.4010394746668027 1 rotate no_reflect no_shear #
lump $-1 $-1 $36 $6 #
transform $-1 1 0 0 0 1 0 0 0 1 45.908383434553059 21.421156860436174 8.4010394746668027 1 rotate no_reflect no_shear #
lump $-1 $-1 $37 $7 #
transform $-1 1 0 0 0 1 0 0 0 1 45.908383434553059 21.421156860436174 8.4010394746668027 1 rotate no_reflect no_shear #
lump $-1 $-1 $38 $8 #
transform $-1 1 0 0 0 1 0 0 0 1 45.908383434553059 21.421156860436174 8.4010394746668027 1 rotate no_reflect no_shear #
lump $-1 $-1 $39 $9 #
transform $-1 1 0 0 0 1 0 0 0 1 45.908383434553059 21.421156860436174 8.4010394746668027 1 rotate no_reflect no_shear #
shell $-1 $-1 $-1 $40 $-1 $10 #
shell $-1 $-1 $-1 $41 $-1 $12 #
shell $-1 $-1 $-1 $42 $-1 $14 #
shell $-1 $-1 $-1 $43 $-1 $16 #
shell $-1 $-1 $-1 $44 $-1 $18 #
shell $-1 $-1 $-1 $45 $-1 $20 #
shell $-1 $-1 $-1 $46 $-1 $22 #
shell $-1 $-1 $-1 $47 $-1 $24 #
shell $-1 $-1 $-1 $48 $-1 $26 #
shell $-1 $-1 $-1 $49 $-1 $28 #
face $-1 $50 $51 $30 $-1 $52 forward single #
face $-1 $53 $54 $31 $-1 $55 forward single #
face $-1 $56 $57 $32 $-1 $58 reversed single #
face $-1 $59 $60 $33 $-1 $61 forward single #
face $-1 $62 $63 $34 $-1 $64 reversed single #
face $-1 $65 $66 $35 $-1 $67 forward single #
face $-1 $68 $69 $36 $-1 $70 reversed single #
face $-1 $71 $72 $37 $-1 $73 forward single #
face $-1 $74 $75 $38 $-1 $76 forward single #
face $-1 $77 $78 $39 $-1 $79 forward single #
face $-1 $80 $81 $30 $-1 $82 reversed single #
loop $-1 $-1 $83 $40 #
plane-surface $-1 0 0 8.4010394746668027 0 0 1 1 0 0 forward_v I I I I #
face $-1 $84 $85 $31 $-1 $86 forward single #
loop $-1 $-1 $87 $41 #
plane-surface $-1 0 -21.421156860436174 0 0 1 0 0 0 1 forward_v I I I I #
face $-1 $88 $89 $32 $-1 $90 reversed single #
loop $-1 $-1 $91 $42 #
plane-surface $-1 -123.77341850075032 -6.7822423626792521 52.716100677668337 0 1 0 -0.84804810408105047 0 0.52991925155115449 forward_v I I I I #
face $-1 $92 $93 $33 $-1 $94 forward single #
loop $-1 $95 $96 $43 #
cone-surface $-1 -43.893354082358883 -3.2985652695039995 5.81908596508437 0.84804810408105047 0 -0.52991925155115449 0.52991925155115449 0 0.84804810408105047 1 I I 0 1 1 forward I I I I #
face $-1 $97 $98 $34 $-1 $99 reversed single #
loop $-1 $-1 $100 $44 #
plane-surface $-1 -123.77341850075032 8.352489730703379 52.716100677668337 0 1 0 -0.84804810408105047 0 0.52991925155115449 forward_v I I I I #
face $-1 $101 $102 $35 $-1 $103 forward single #
loop $-1 $104 $105 $45 #
cone-surface $-1 -43.893354082358883 11.836166823878632 5.81908596508437 0.84804810408105047 0 -0.52991925155115449 0.52991925155115449 0 0.84804810408105047 1 I I 0 1 1 forward I I I I #
face $-1 $106 $107 $36 $-1 $108 reversed single #
loop $-1 $-1 $109 $46 #
plane-surface $-1 18.911359803994941 13.165502778796803 131.78421117944418 0 1 0 0.54463904215088732 0 0.83867056331134215 forward_v I I I I #
face $-1 $110 $111 $37 $-1 $112 forward single #
loop $-1 $113 $114 $47 #
cone-surface $-1 42.842869147842748 14.816633595124674 6.1677822691394635 -0.54463904215088732 0 -0.83867056331134215 0.41933528165567108 0 -0.27231952107544366 1 I I 0 1 0.5 forward I I I I #
face $-1 $115 $116 $38 $-1 $117 forward single #
loop $-1 $118 $119 $48 #
cone-surface $-1 42.842869147842748 17.293329819616485 6.1677822691394635 -0.54463904215088732 0 -0.83867056331134215 0.41933528165567108 0 -0.27231952107544366 1 I I 0 1 0.5 forward I I I I #
face $-1 $120 $121 $39 $-1 $122 forward single #
loop $-1 $123 $124 $49 #
cone-surface $-1 42.842869147842748 19.770026044108295 6.1677822691394635 -0.54463904215088732 0 -0.83867056331134215 0.41933528165567108 0 -0.27231952107544366 1 I I 0 1 0.5 forward I I I I #
face $-1 $125 $126 $30 $-1 $127 reversed single #
loop $-1 $-1 $128 $50 #
plane-surface $-1 0 0 -8.4010394746668027 0 0 1 1 0 0 forward_v I I I I #
coedge $-1 $129 $130 $131 $132 forward $51 $-1 #
face $-1 $133 $134 $31 $-1 $135 reversed single #
loop $-1 $-1 $136 $53 #
plane-surface $-1 0 0 8.4010394746668027 0 0 1 1 0 0 forward_v I I I I #
coedge $-1 $137 $138 $139 $140 forward $54 $-1 #
face $-1 $141 $142 $32 $-1 $143 reversed single #
loop $-1 $-1 $144 $56 #
plane-surface $-1 -45.908383434553073 -3.2985652695039995 4.0606282985447848 -0.84804810408105047 0 0.52991925155115449 0.52991925155115449 0 0.84804810408105047 forward_v I I I I #
coedge $-1 $145 $146 $147 $148 reversed $57 $-1 #
face $-1 $-1 $149 $33 $-1 $150 forward single #
loop $-1 $151 $152 $59 #
cone-surface $-1 -42.810395592319651 -3.2985652695039995 5.1423784177873717 0.84804810408105047 0 -0.52991925155115449 0.26495962577557725 0 0.42402405204052523 1 I I -0.70710678118654746 0.70710678118654746 0.5 forward I I I I #
loop $-1 $-1 $153 $43 #
coedge $-1 $96 $96 $154 $155 reversed $60 $-1 #
face $-1 $156 $157 $34 $-1 $158 reversed single #
loop $-1 $-1 $159 $62 #
plane-surface $-1 -45.908383434553073 11.836166823878632 4.0606282985447848 -0.84804810408105047 0 0.52991925155115449 0.52991925155115449 0 0.84804810408105047 forward_v I I I I #
coedge $-1 $160 $161 $162 $163 reversed $63 $-1 #
face $-1 $-1 $164 $35 $-1 $165 forward single #
loop $-1 $166 $167 $65 #
cone-surface $-1 -42.810395592319651 11.836166823878632 5.1423784177873717 0.84804810408105047 0 -0.52991925155115449 0.26495962577557725 0 0.42402405204052523 1 I I -0.70710678118654746 0.70710678118654746 0.5 forward I I I I #
loop $-1 $-1 $168 $45 #
coedge $-1 $105 $105 $169 $170 reversed $66 $-1 #
face $-1 $171 $172 $36 $-1 $173 reversed single #
loop $-1 $-1 $174 $68 #
plane-surface $-1 -31.095636156986338 17.293329819616485 54.780191587904781 0.54463904215088732 0 0.83867056331134215 0.83867056331134215 0 -0.54463904215088732 forward_v I I I I #
coedge $-1 $175 $176 $177 $178 reversed $69 $-1 #
face $-1 $-1 $179 $37 $-1 $180 forward single #
loop $-1 $181 $182 $71 #
cone-surface $-1 42.43438986622958 14.816633595124674 5.5387793466559572 -0.54463904215088732 0 -0.83867056331134215 0.20966764082783554 0 -0.13615976053772183 1 I I -0.70710678118654746 0.70710678118654746 0.25 forward I I I I #
loop $-1 $-1 $183 $47 #
coedge $-1 $114 $114 $184 $185 reversed $72 $-1 #
face $-1 $-1 $186 $38 $-1 $187 forward single #
loop $-1 $188 $189 $74 #
cone-surface $-1 42.43438986622958 17.293329819616485 5.5387793466559572 -0.54463904215088732 0 -0.83867056331134215 0.20966764082783554 0 -0.13615976053772183 1 I I -0.70710678118654746 0.70710678118654746 0.25 forward I I I I #
loop $-1 $-1 $190 $48 #
coedge $-1 $119 $119 $191 $192 reversed $75 $-1 #
face $-1 $-1 $193 $39 $-1 $194 forward single #
loop $-1 $195 $196 $77 #
cone-surface $-1 42.43438986622958 19.770026044108295 5.5387793466559572 -0.54463904215088732 0 -0.83867056331134215 0.20966764082783554 0 -0.13615976053772183 1 I I -0.70710678118654746 0.70710678118654746 0.25 forward I I I I #
loop $-1 $-1 $197 $49 #
coedge $-1 $124 $124 $198 $199 reversed $78 $-1 #
face $-1 $200 $201 $30 $-1 $202 reversed single #
loop $-1 $-1 $203 $80 #
plane-surface $-1 0 -21.421156860436174 0 0 1 0 0 0 1 forward_v I I I I #
coedge $-1 $204 $205 $206 $207 forward $81 $-1 #
coedge $-1 $208 $83 $209 $210 forward $51 $-1 #
coedge $-1 $83 $208 $211 $212 forward $51 $-1 #
coedge $-1 $213 $214 $83 $132 reversed $215 $-1 #
edge $-1 $216 -21.421156860436174 $217 21.421156860436174 $131 $218 forward 7 unknown #
face $-1 $219 $220 $31 $-1 $221 reversed single #
loop $-1 $-1 $222 $84 #
plane-surface $-1 -45.908383434553059 0 0 1 0 0 0 0 -1 forward_v I I I I #
coedge $-1 $223 $224 $225 $226 forward $85 $-1 #
coedge $-1 $225 $87 $222 $227 reversed $54 $-1 #
coedge $-1 $87 $225 $228 $229 reversed $54 $-1 #
coedge $-1 $230 $231 $87 $140 reversed $220 $-1 #
edge $-1 $232 -45.908383434553059 $233 45.908383434553059 $139 $234 forward 7 unknown #
face $-1 $235 $236 $32 $-1 $237 forward single #
loop $-1 $-1 $238 $88 #
plane-surface $-1 -123.77341850075032 0.18511182367125301 52.716100677668337 0 -1 0 0.84804810408105047 0 -0.52991925155115449 forward_v I I I I #
coedge $-1 $239 $240 $241 $242 reversed $89 $-1 #
coedge $-1 $146 $91 $243 $244 reversed $57 $-1 #
coedge $-1 $91 $145 $239 $245 reversed $57 $-1 #
coedge $-1 $241 $246 $91 $148 forward $236 $-1 #
edge $-1 $247 15.978325815822103 $248 18.690515644213029 $147 $249 forward 7 unknown #
loop $-1 $-1 $154 $92 #
plane-surface $-1 -45.908383434553073 -3.2985652695039995 4.0606282985447848 -0.84804810408105047 0 0.52991925155115449 0.52991925155115449 0 0.84804810408105047 forward_v I I I I #
loop $-1 $-1 $250 $59 #
coedge $-1 $152 $152 $153 $251 reversed $93 $-1 #
coedge $-1 $153 $153 $152 $251 forward $95 $-1 #
coedge $-1 $154 $154 $96 $155 forward $149 $-1 #
edge $-1 $252 0 $252 6.2831853071796004 $154 $253 forward 7 unknown #
face $-1 $254 $255 $34 $-1 $256 forward single #
loop $-1 $-1 $257 $97 #
plane-surface $-1 -123.77341850075032 15.319843917053884 52.716100677668337 0 -1 0 0.84804810408105047 0 -0.52991925155115449 forward_v I I I I #
coedge $-1 $258 $259 $260 $261 reversed $98 $-1 #
coedge $-1 $161 $100 $262 $263 reversed $63 $-1 #
coedge $-1 $100 $160 $258 $264 reversed $63 $-1 #
coedge $-1 $260 $265 $100 $163 forward $255 $-1 #
edge $-1 $266 15.978325815822103 $267 18.690515644213029 $162 $268 forward 7 unknown #
loop $-1 $-1 $169 $101 #
plane-surface $-1 -45.908383434553073 11.836166823878632 4.0606282985447848 -0.84804810408105047 0 0.52991925155115449 0.52991925155115449 0 0.84804810408105047 forward_v I I I I #
loop $-1 $-1 $269 $65 #
coedge $-1 $167 $167 $168 $270 reversed $102 $-1 #
coedge $-1 $168 $168 $167 $270 forward $104 $-1 #
coedge $-1 $169 $169 $105 $170 forward $164 $-1 #
edge $-1 $271 0 $271 6.2831853071796004 $169 $272 forward 7 unknown #
face $-1 $273 $274 $36 $-1 $275 forward single #
loop $-1 $-1 $276 $106 #
plane-surface $-1 0 21.421156860436174 0 0 -1 0 0 0 -1 forward_v I I I I #
coedge $-1 $277 $278 $279 $280 reversed $107 $-1 #
coedge $-1 $176 $109 $281 $282 reversed $69 $-1 #
coedge $-1 $109 $175 $277 $283 reversed $69 $-1 #
coedge $-1 $279 $284 $109 $178 forward $285 $-1 #
edge $-1 $286 57.49106611505529 $287 61.118909962798583 $177 $288 forward 7 unknown #
loop $-1 $-1 $184 $110 #
plane-surface $-1 -31.095636156986338 17.293329819616485 54.780191587904781 0.54463904215088732 0 0.83867056331134215 0.83867056331134215 0 -0.54463904215088732 forward_v I I I I #
loop $-1 $-1 $289 $71 #
coedge $-1 $182 $182 $183 $290 reversed $111 $-1 #
coedge $-1 $183 $183 $182 $290 forward $113 $-1 #
coedge $-1 $184 $184 $114 $185 forward $179 $-1 #
edge $-1 $291 0 $291 6.2831853071796004 $184 $292 forward 7 unknown #
loop $-1 $-1 $191 $115 #
plane-surface $-1 -31.095636156986338 17.293329819616485 54.780191587904781 0.54463904215088732 0 0.83867056331134215 0.83867056331134215 0 -0.54463904215088732 forward_v I I I I #
loop $-1 $-1 $293 $74 #
coedge $-1 $189 $189 $190 $294 reversed $116 $-1 #
coedge $-1 $190 $190 $189 $294 forward $118 $-1 #
coedge $-1 $191 $191 $119 $192 forward $186 $-1 #
edge $-1 $295 0 $295 6.2831853071796004 $191 $296 forward 7 unknown #
loop $-1 $-1 $198 $120 #
plane-surface $-1 -31.095636156986338 17.293329819616485 54.780191587904781 0.54463904215088732 0 0.83867056331134215 0.83867056331134215 0 -0.54463904215088732 forward_v I I I I #
loop $-1 $-1 $297 $77 #
coedge $-1 $196 $196 $197 $298 reversed $121 $-1 #
coedge $-1 $197 $197 $196 $298 forward $123 $-1 #
coedge $-1 $198 $198 $124 $199 forward $193 $-1 #
edge $-1 $299 0 $299 6.2831853071796004 $198 $300 forward 7 unknown #
face $-1 $301 $302 $30 $-1 $303 reversed single #
loop $-1 $-1 $304 $125 #
plane-surface $-1 -45.908383434553059 0 0 1 0 0 0 0 -1 forward_v I I I I #
coedge $-1 $305 $211 $306 $307 forward $126 $-1 #
coedge $-1 $308 $128 $305 $309 forward $81 $-1 #
coedge $-1 $128 $308 $310 $311 forward $81 $-1 #
coedge $-1 $214 $213 $128 $207 reversed $215 $-1 #
edge $-1 $312 -21.421156860436174 $313 21.421156860436174 $206 $314 forward 7 unknown #
coedge $-1 $130 $129 $315 $316 forward $51 $-1 #
coedge $-1 $317 $318 $129 $210 reversed $302 $-1 #
edge $-1 $217 -45.908383434553059 $319 45.908383434553059 $209 $320 forward 7 unknown #
coedge $-1 $203 $321 $130 $212 reversed $126 $-1 #
edge $-1 $322 -45.908383434553059 $216 45.908383434553059 $211 $323 forward 7 unknown #
coedge $-1 $206 $131 $321 $324 forward $215 $-1 #
coedge $-1 $131 $206 $317 $325 reversed $215 $-1 #
loop $-1 $-1 $213 $301 #
vertex $-1 $132 $326 #
vertex $-1 $132 $327 #
straight-curve $-1 45.908383434553059 0 8.4010394746668027 0 1 0 I I #
face $-1 $328 $329 $31 $-1 $330 reversed single #
loop $-1 $-1 $230 $133 #
plane-surface $-1 0 -25.689957637623493 3.4020530716040156 0 0 1 1 0 0 forward_v I I I I #
coedge $-1 $331 $332 $137 $227 forward $134 $-1 #
coedge $-1 $333 $136 $332 $334 forward $85 $-1 #
coedge $-1 $136 $333 $335 $336 forward $85 $-1 #
coedge $-1 $138 $137 $136 $226 reversed $54 $-1 #
edge $-1 $337 -45.908383434553059 $338 45.908383434553059 $136 $339 forward 7 unknown #
edge $-1 $338 -8.4010394746668027 $233 -3.4020530716040156 $222 $340 forward 7 unknown #
coedge $-1 $335 $341 $138 $229 forward $342 $-1 #
edge $-1 $232 3.4020530716040156 $337 8.4010394746668027 $228 $343 forward 7 unknown #
coedge $-1 $344 $139 $341 $345 forward $220 $-1 #
coedge $-1 $139 $344 $331 $346 forward $220 $-1 #
vertex $-1 $229 $347 #
vertex $-1 $227 $348 #
straight-curve $-1 0 -21.421156860436174 3.4020530716040156 -1 0 0 I I #
face $-1 $-1 $349 $32 $-1 $350 reversed single #
loop $-1 $-1 $147 $141 #
plane-surface $-1 0 0 8.4010394746668027 0 0 1 1 0 0 forward_v I I I I #
coedge $-1 $351 $352 $353 $354 reversed $142 $-1 #
coedge $-1 $355 $144 $146 $245 forward $89 $-1 #
coedge $-1 $144 $355 $351 $356 forward $89 $-1 #
coedge $-1 $353 $147 $144 $242 forward $236 $-1 #
edge $-1 $248 -5.1329597279272523 $357 1.8343944584232528 $241 $358 forward 7 unknown #
coedge $-1 $359 $360 $145 $244 forward $349 $-1 #
edge $-1 $361 -22.297422040289362 $247 -17.957010864167366 $243 $362 forward 7 unknown #
edge $-1 $248 -5.118119072768061 $361 -2.7114274142304302e-014 $146 $363 forward 7 unknown #
coedge $-1 $147 $353 $359 $364 forward $236 $-1 #
vertex $-1 $244 $365 #
vertex $-1 $148 $366 #
straight-curve $-1 -61.886709250375162 -6.7822423626792521 8.4010394746668027 1 0 0 I I #
coedge $-1 $250 $250 $-1 $367 reversed $151 $-1 #
edge $-1 $368 0 $368 6.2831853071796004 $152 $369 forward 7 unknown #
vertex $-1 $155 $370 #
ellipse-curve $-1 -44.5522885203576 -3.2985652695039995 6.2308338866057991 -0.84804810408105047 0 0.52991925155115449 0.52991925155115449 0 0.84804810408105047 1 I I #
face $-1 $-1 $371 $34 $-1 $372 reversed single #
loop $-1 $-1 $162 $156 #
plane-surface $-1 0 0 8.4010394746668027 0 0 1 1 0 0 forward_v I I I I #
coedge $-1 $373 $374 $375 $376 reversed $157 $-1 #
coedge $-1 $377 $159 $161 $264 forward $98 $-1 #
coedge $-1 $159 $377 $373 $378 forward $98 $-1 #
coedge $-1 $375 $162 $159 $261 forward $255 $-1 #
edge $-1 $267 2.4344063187640632 $379 9.4017605051145683 $260 $380 forward 7 unknown #
coedge $-1 $381 $382 $160 $263 forward $371 $-1 #
edge $-1 $383 -22.297422040289362 $266 -17.957010864167366 $262 $384 forward 7 unknown #
edge $-1 $267 -5.118119072768061 $383 -2.7114274142304302e-014 $161 $385 forward 7 unknown #
coedge $-1 $162 $375 $381 $386 forward $255 $-1 #
vertex $-1 $163 $387 #
vertex $-1 $163 $388 #
straight-curve $-1 -61.886709250375162 8.352489730703379 8.4010394746668027 1 0 0 I I #
coedge $-1 $269 $269 $-1 $389 reversed $166 $-1 #
edge $-1 $390 0 $390 6.2831853071796004 $167 $391 forward 7 unknown #
vertex $-1 $170 $392 #
ellipse-curve $-1 -44.5522885203576 11.836166823878632 6.2308338866057991 -0.84804810408105047 0 0.52991925155115449 0.52991925155115449 0 0.84804810408105047 1 I I #
face $-1 $-1 $285 $36 $-1 $393 reversed single #
loop $-1 $-1 $394 $171 #
plane-surface $-1 0 0 8.4010394746668027 0 0 1 1 0 0 forward_v I I I I #
coedge $-1 $395 $396 $278 $397 forward $172 $-1 #
coedge $-1 $398 $174 $176 $283 forward $107 $-1 #
coedge $-1 $174 $398 $276 $397 reversed $107 $-1 #
coedge $-1 $399 $177 $174 $280 forward $285 $-1 #
edge $-1 $287 4.5188378689885607 $400 12.774491950627931 $279 $401 forward 7 unknown #
coedge $-1 $402 $394 $175 $282 forward $274 $-1 #
edge $-1 $403 30.866314001285907 $286 36.452703532555589 $281 $404 forward 7 unknown #
edge $-1 $287 -91.816766869106104 $403 -85.155761015731684 $176 $405 forward 7 unknown #
coedge $-1 $177 $399 $402 $406 reversed $285 $-1 #
loop $-1 $-1 $279 $273 #
vertex $-1 $406 $407 #
vertex $-1 $178 $408 #
straight-curve $-1 45.908383434553059 13.165502778796803 65.892105589722092 0 0 -1 I I #
coedge $-1 $289 $289 $-1 $409 reversed $181 $-1 #
edge $-1 $410 0 $410 6.2831853071796004 $182 $411 forward 7 unknown #
vertex $-1 $185 $412 #
ellipse-curve $-1 43.115188668918208 14.816633595124674 6.5871175507951643 0.54463904215088732 0 0.83867056331134215 0.41933528165567108 0 -0.27231952107544366 1 I I #
coedge $-1 $293 $293 $-1 $413 reversed $188 $-1 #
edge $-1 $414 0 $414 6.2831853071796004 $189 $415 forward 7 unknown #
vertex $-1 $192 $416 #
ellipse-curve $-1 43.115188668918208 17.293329819616485 6.5871175507951643 0.54463904215088732 0 0.83867056331134215 0.41933528165567108 0 -0.27231952107544366 1 I I #
coedge $-1 $297 $297 $-1 $417 reversed $195 $-1 #
edge $-1 $418 0 $418 6.2831853071796004 $196 $419 forward 7 unknown #
vertex $-1 $199 $420 #
ellipse-curve $-1 43.115188668918208 19.770026044108295 6.5871175507951643 0.54463904215088732 0 0.83867056331134215 0.41933528165567108 0 -0.27231952107544366 1 I I #
face $-1 $-1 $215 $30 $-1 $421 reversed single #
loop $-1 $-1 $317 $200 #
plane-surface $-1 0 21.421156860436174 0 0 -1 0 0 0 -1 forward_v I I I I #
coedge $-1 $422 $315 $318 $423 forward $201 $-1 #
coedge $-1 $321 $203 $204 $309 reversed $126 $-1 #
coedge $-1 $315 $422 $203 $307 reversed $201 $-1 #
edge $-1 $322 -8.4010394746668027 $424 8.4010394746668027 $306 $425 forward 7 unknown #
coedge $-1 $205 $204 $422 $426 forward $81 $-1 #
edge $-1 $313 -45.908383434553059 $424 45.908383434553059 $305 $427 forward 7 unknown #
coedge $-1 $318 $317 $205 $311 reversed $302 $-1 #
edge $-1 $428 -45.908383434553059 $312 45.908383434553059 $310 $429 forward 7 unknown #
vertex $-1 $207 $430 #
vertex $-1 $324 $431 #
straight-curve $-1 45.908383434553059 0 -8.4010394746668027 0 -1 0 I I #
coedge $-1 $304 $306 $208 $316 reversed $201 $-1 #
edge $-1 $319 -21.421156860436174 $322 21.421156860436174 $315 $432 forward 7 unknown #
coedge $-1 $310 $209 $214 $325 forward $302 $-1 #
coedge $-1 $209 $310 $304 $423 reversed $302 $-1 #
vertex $-1 $210 $433 #
straight-curve $-1 0 21.421156860436174 8.4010394746668027 -1 0 0 I I #
coedge $-1 $211 $305 $213 $324 reversed $126 $-1 #
vertex $-1 $316 $434 #
straight-curve $-1 0 -21.421156860436174 8.4010394746668027 1 0 0 I I #
edge $-1 $216 -8.4010394746668027 $313 8.4010394746668027 $213 $435 forward 7 unknown #
edge $-1 $217 -8.4010394746668027 $312 8.4010394746668027 $214 $436 forward 7 unknown #
point $-1 45.908383434553059 -21.421156860436174 8.4010394746668027 #
point $-1 45.908383434553059 21.421156860436174 8.4010394746668027 #
face $-1 $-1 $342 $31 $-1 $437 reversed single #
loop $-1 $-1 $438 $219 #
plane-surface $-1 0 -29.958758414810809 5.9015462731354091 0 1 0 0 0 1 forward_v I I I I #
coedge $-1 $439 $222 $231 $346 reversed $134 $-1 #
coedge $-1 $222 $439 $223 $334 reversed $134 $-1 #
coedge $-1 $224 $223 $440 $441 forward $85 $-1 #
edge $-1 $338 21.421156860436174 $442 29.958758414810809 $332 $443 forward 7 unknown #
coedge $-1 $444 $228 $224 $336 reversed $342 $-1 #
edge $-1 $445 -29.958758414810809 $337 -21.421156860436174 $335 $446 forward 7 unknown #
vertex $-1 $229 $447 #
vertex $-1 $334 $448 #
straight-curve $-1 0 -21.421156860436174 8.4010394746668027 -1 0 0 I I #
straight-curve $-1 -45.908383434553059 -21.421156860436174 0 0 0 -1 I I #
coedge $-1 $228 $444 $230 $345 reversed $342 $-1 #
loop $-1 $-1 $228 $328 #
straight-curve $-1 45.908383434553059 -21.421156860436174 0 0 0 1 I I #
coedge $-1 $231 $230 $449 $450 forward $220 $-1 #
edge $-1 $232 -4.268800777187316 $451 4.268800777187316 $341 $452 forward 7 unknown #
edge $-1 $453 -4.268800777187316 $233 4.268800777187316 $331 $454 forward 7 unknown #
point $-1 45.908383434553059 -21.421156860436177 3.4020530716040156 #
point $-1 -45.908383434553059 -21.421156860436177 3.4020530716040156 #
loop $-1 $-1 $243 $235 #
plane-surface $-1 -45.908383434553059 0 0 1 0 0 0 0 -1 forward_v I I I I #
coedge $-1 $352 $238 $240 $356 reversed $142 $-1 #
coedge $-1 $238 $351 $455 $456 reversed $142 $-1 #
coedge $-1 $246 $241 $238 $354 forward $236 $-1 #
edge $-1 $357 -18.690515644213029 $457 -15.978325815822103 $353 $458 forward 7 unknown #
coedge $-1 $240 $239 $360 $459 reversed $89 $-1 #
edge $-1 $460 2.7114274142304302e-014 $357 5.118119072768061 $351 $461 forward 7 unknown #
vertex $-1 $242 $462 #
straight-curve $-1 -43.196193606162133 -1.6492826347519998 8.4010394746668027 0 1 0 I I #
coedge $-1 $455 $243 $246 $364 reversed $349 $-1 #
coedge $-1 $243 $455 $355 $459 forward $349 $-1 #
vertex $-1 $244 $463 #
straight-curve $-1 -45.908383434553059 -6.7822423626792521 26.358050338834168 0 0 1 I I #
straight-curve $-1 -45.908383434553073 -6.7822423626792521 4.0606282985447848 -0.52991925155115449 0 -0.84804810408105047 I I #
edge $-1 $457 -0.18511182367125301 $247 6.7822423626792521 $359 $464 forward 7 unknown #
point $-1 -45.908383434553059 -6.7822423626792521 8.4010394746668027 #
point $-1 -43.196193606162133 -6.7822423626792521 8.4010394746668027 #
edge $-1 $465 1 $465 0 $250 $-1 forward 7 unknown #
vertex $-1 $251 $466 #
ellipse-curve $-1 -43.234419644360173 -3.2985652695039995 5.407338043562949 -0.84804810408105047 0 0.52991925155115449 0.52991925155115449 0 0.84804810408105047 1 I I #
point $-1 -44.022369268806429 -3.2985652695039995 7.0788819906868419 #
loop $-1 $-1 $262 $254 #
plane-surface $-1 -45.908383434553059 0 0 1 0 0 0 0 -1 forward_v I I I I #
coedge $-1 $374 $257 $259 $378 reversed $157 $-1 #
coedge $-1 $257 $373 $467 $468 reversed $157 $-1 #
coedge $-1 $265 $260 $257 $376 forward $255 $-1 #
edge $-1 $379 -18.690515644213029 $469 -15.978325815822103 $375 $470 forward 7 unknown #
coedge $-1 $259 $258 $382 $471 reversed $98 $-1 #
edge $-1 $472 2.7114274142304302e-014 $379 5.118119072768061 $373 $473 forward 7 unknown #
vertex $-1 $261 $474 #
straight-curve $-1 -43.196193606162133 5.9180834119393158 8.4010394746668027 0 1 0 I I #
coedge $-1 $467 $262 $265 $386 reversed $371 $-1 #
coedge $-1 $262 $467 $377 $471 forward $371 $-1 #
vertex $-1 $263 $475 #
straight-curve $-1 -45.908383434553059 8.352489730703379 26.358050338834168 0 0 1 I I #
straight-curve $-1 -45.908383434553073 8.352489730703379 4.0606282985447848 -0.52991925155115449 0 -0.84804810408105047 I I #
edge $-1 $469 -15.319843917053884 $266 -8.352489730703379 $381 $476 forward 7 unknown #
point $-1 -45.908383434553059 8.352489730703379 8.4010394746668027 #
point $-1 -43.196193606162133 8.352489730703379 8.4010394746668027 #
edge $-1 $477 1 $477 0 $269 $-1 forward 7 unknown #
vertex $-1 $270 $478 #
ellipse-curve $-1 -43.234419644360173 11.836166823878632 5.407338043562949 -0.84804810408105047 0 0.52991925155115449 0.52991925155115449 0 0.84804810408105047 1 I I #
point $-1 -44.022369268806429 11.836166823878632 7.0788819906868419 #
plane-surface $-1 45.908383434553059 0 0 -1 0 0 0 0 1 forward_v I I I I #
coedge $-1 $281 $479 $398 $480 forward $274 $-1 #
coedge $-1 $396 $276 $479 $481 reversed $172 $-1 #
coedge $-1 $276 $395 $399 $482 forward $172 $-1 #
edge $-1 $400 -63.85955398531469 $483 -57.198548131940271 $276 $484 forward 7 unknown #
coedge $-1 $278 $277 $394 $480 reversed $107 $-1 #
coedge $-1 $284 $279 $396 $482 reversed $285 $-1 #
vertex $-1 $280 $485 #
straight-curve $-1 45.908383434553059 8.6466649098082424 4.7731956269235063 0 1 0 I I #
coedge $-1 $479 $281 $284 $406 forward $274 $-1 #
vertex $-1 $282 $486 #
straight-curve $-1 9.4556799019974704 13.165502778796803 8.4010394746668027 1 0 0 I I #
straight-curve $-1 -31.095636156986338 13.165502778796803 54.780191587904781 -0.83867056331134215 0 0.54463904215088732 I I #
edge $-1 $286 13.165502778796803 $487 21.421156860436174 $284 $488 forward 7 unknown #
point $-1 45.908383434553059 13.165502778796803 8.4010394746668027 #
point $-1 45.908383434553052 13.165502778796803 4.7731956269235098 #
edge $-1 $489 1 $489 0 $289 $-1 forward 7 unknown #
vertex $-1 $290 $490 #
ellipse-curve $-1 42.570549626767303 14.816633595124674 5.7484469874837929 0.54463904215088732 0 0.83867056331134215 0.41933528165567108 0 -0.27231952107544366 1 I I #
point $-1 43.534523950573863 14.816633595124674 6.3147980297196913 #
edge $-1 $491 1 $491 0 $293 $-1 forward 7 unknown #
vertex $-1 $294 $492 #
ellipse-curve $-1 42.570549626767303 17.293329819616485 5.7484469874837929 0.54463904215088732 0 0.83867056331134215 0.41933528165567108 0 -0.27231952107544366 1 I I #
point $-1 43.534523950573863 17.293329819616485 6.3147980297196913 #
edge $-1 $493 1 $493 0 $297 $-1 forward 7 unknown #
vertex $-1 $298 $494 #
ellipse-curve $-1 42.570549626767303 19.770026044108295 5.7484469874837929 0.54463904215088732 0 0.83867056331134215 0.41933528165567108 0 -0.27231952107544366 1 I I #
point $-1 43.534523950573863 19.770026044108295 6.3147980297196913 #
plane-surface $-1 45.908383434553059 0 0 -1 0 0 0 0 1 forward_v I I I I #
coedge $-1 $306 $304 $308 $426 reversed $201 $-1 #
edge $-1 $319 -8.4010394746668027 $428 8.4010394746668027 $318 $495 forward 7 unknown #
vertex $-1 $426 $496 #
straight-curve $-1 -45.908383434553059 -21.421156860436174 0 0 0 -1 I I #
edge $-1 $424 -21.421156860436174 $428 21.421156860436174 $422 $497 forward 7 unknown #
straight-curve $-1 0 -21.421156860436174 -8.4010394746668027 -1 0 0 I I #
vertex $-1 $311 $498 #
straight-curve $-1 0 21.421156860436174 -8.4010394746668027 1 0 0 I I #
point $-1 45.908383434553059 21.421156860436174 -8.4010394746668027 #
point $-1 45.908383434553059 -21.421156860436174 -8.4010394746668027 #
straight-curve $-1 -45.908383434553059 0 8.4010394746668027 0 -1 0 I I #
point $-1 -45.908383434553059 21.421156860436174 8.4010394746668027 #
point $-1 -45.908383434553059 -21.421156860436174 8.4010394746668027 #
straight-curve $-1 45.908383434553059 -21.421156860436174 0 0 0 -1 I I #
straight-curve $-1 45.908383434553059 21.421156860436174 0 0 0 -1 I I #
plane-surface $-1 45.908383434553059 0 0 -1 0 0 0 0 1 forward_v I I I I #
coedge $-1 $449 $440 $439 $499 forward $329 $-1 #
coedge $-1 $332 $331 $438 $499 reversed $134 $-1 #
coedge $-1 $438 $500 $333 $441 reversed $329 $-1 #
edge $-1 $442 -45.908383434553059 $445 45.908383434553059 $440 $501 forward 7 unknown #
vertex $-1 $334 $502 #
straight-curve $-1 -45.908383434553059 0 8.4010394746668027 0 -1 0 I I #
coedge $-1 $341 $335 $500 $503 forward $342 $-1 #
vertex $-1 $336 $504 #
straight-curve $-1 45.908383434553059 0 8.4010394746668027 0 1 0 I I #
point $-1 45.908383434553059 -21.421156860436174 8.4010394746668027 #
point $-1 -45.908383434553059 -21.421156860436174 8.4010394746668027 #
coedge $-1 $500 $438 $344 $450 reversed $329 $-1 #
edge $-1 $451 -45.908383434553059 $453 45.908383434553059 $449 $505 forward 7 unknown #
vertex $-1 $503 $506 #
straight-curve $-1 45.908383434553059 -25.689957637623493 3.4020530716040156 0 -1 0 I I #
vertex $-1 $346 $507 #
straight-curve $-1 -45.908383434553059 -25.689957637623493 3.4020530716040156 0 1 0 I I #
coedge $-1 $360 $359 $352 $456 forward $349 $-1 #
edge $-1 $457 17.957010864167366 $460 22.297422040289362 $455 $508 forward 7 unknown #
vertex $-1 $364 $509 #
straight-curve $-1 -61.886709250375162 0.18511182367125301 8.4010394746668027 -1 0 0 I I #
edge $-1 $460 -1.8343944584232528 $361 5.1329597279272523 $360 $510 forward 7 unknown #
vertex $-1 $459 $511 #
straight-curve $-1 -45.908383434553073 0.18511182367125301 4.0606282985447848 0.52991925155115449 0 0.84804810408105047 I I #
point $-1 -43.196193606162133 0.18511182367125301 8.4010394746668027 #
point $-1 -45.908383434553059 -6.7822423626792521 4.0606282985448079 #
straight-curve $-1 -45.908383434553059 0 8.4010394746668027 0 -1 0 I I #
vertex $-1 $367 $512 #
point $-1 -42.704500392809024 -3.2985652695039995 6.2553861476439998 #
coedge $-1 $382 $381 $374 $468 forward $371 $-1 #
edge $-1 $469 17.957010864167366 $472 22.297422040289362 $467 $513 forward 7 unknown #
vertex $-1 $386 $514 #
straight-curve $-1 -61.886709250375162 15.319843917053884 8.4010394746668027 -1 0 0 I I #
edge $-1 $472 -9.4017605051145683 $383 -2.4344063187640632 $382 $515 forward 7 unknown #
vertex $-1 $471 $516 #
straight-curve $-1 -45.908383434553073 15.319843917053884 4.0606282985447848 0.52991925155115449 0 0.84804810408105047 I I #
point $-1 -43.196193606162133 15.319843917053884 8.4010394746668027 #
point $-1 -45.908383434553059 8.352489730703379 4.0606282985448079 #
straight-curve $-1 -45.908383434553059 0 8.4010394746668027 0 -1 0 I I #
vertex $-1 $389 $517 #
point $-1 -42.704500392809024 11.836166823878632 6.2553861476439998 #
coedge $-1 $394 $402 $395 $481 forward $274 $-1 #
edge $-1 $483 -12.774491950627924 $403 -4.5188378689885607 $394 $518 forward 7 unknown #
edge $-1 $487 -45.908383434553059 $483 -40.321993903283378 $395 $519 forward 7 unknown #
edge $-1 $487 -8.4010394746668027 $400 -4.7731956269235116 $399 $520 forward 7 unknown #
vertex $-1 $480 $521 #
straight-curve $-1 -7.6487446791218803 21.421156860436174 39.553601941668177 -0.83867056331134215 0 0.54463904215088732 I I #
point $-1 45.908383434553059 21.421156860436174 4.7731956269235116 #
point $-1 40.321993903283378 13.165502778796803 8.4010394746668027 #
vertex $-1 $406 $522 #
straight-curve $-1 45.908383434553059 0 8.4010394746668027 0 1 0 I I #
vertex $-1 $409 $523 #
point $-1 42.989884908422972 14.816633595124674 5.4761274664083492 #
vertex $-1 $413 $524 #
point $-1 42.989884908422972 17.293329819616485 5.4761274664083492 #
vertex $-1 $417 $525 #
point $-1 42.989884908422972 19.770026044108295 5.4761274664083492 #
straight-curve $-1 -45.908383434553059 21.421156860436174 0 0 0 -1 I I #
point $-1 -45.908383434553059 -21.421156860436174 -8.4010394746668027 #
straight-curve $-1 -45.908383434553059 0 -8.4010394746668027 0 1 0 I I #
point $-1 -45.908383434553059 21.421156860436174 -8.4010394746668027 #
edge $-1 $442 -2.4994932015313935 $453 2.4994932015313935 $439 $526 forward 7 unknown #
coedge $-1 $440 $449 $444 $503 reversed $329 $-1 #
straight-curve $-1 0 -29.958758414810809 8.4010394746668027 1 0 0 I I #
point $-1 -45.908383434553059 -29.958758414810809 8.4010394746668027 #
edge $-1 $445 -2.4994932015313935 $451 2.4994932015313935 $444 $527 forward 7 unknown #
point $-1 45.908383434553059 -29.958758414810809 8.4010394746668027 #
straight-curve $-1 0 -29.958758414810809 3.4020530716040156 -1 0 0 I I #
point $-1 45.908383434553059 -29.958758414810809 3.4020530716040156 #
point $-1 -45.908383434553059 -29.958758414810809 3.4020530716040156 #
straight-curve $-1 -45.908383434553059 0.18511182367125301 26.358050338834168 0 0 -1 I I #
point $-1 -45.908383434553059 0.18511182367125301 8.4010394746668027 #
straight-curve $-1 -45.908383434553059 -1.6492826347519998 4.0606282985448088 0 -1 0 I I #
point $-1 -45.908383434553059 0.18511182367125301 4.0606282985448079 #
point $-1 -42.386371540279129 -3.2985652695039995 4.8774187920117944 #
straight-curve $-1 -45.908383434553059 15.319843917053884 26.358050338834168 0 0 -1 I I #
point $-1 -45.908383434553059 15.319843917053884 8.4010394746668027 #
straight-curve $-1 -45.908383434553059 5.9180834119393158 4.0606282985448088 0 -1 0 I I #
point $-1 -45.908383434553059 15.319843917053884 4.0606282985448079 #
point $-1 -42.386371540279129 11.836166823878632 4.8774187920117944 #
straight-curve $-1 40.321993903283399 8.6466649098082424 8.4010394746667956 0 -1 0 I I #
straight-curve $-1 0 21.421156860436174 8.4010394746668027 -1 0 0 I I #
straight-curve $-1 45.908383434553059 21.421156860436174 0 0 0 -1 I I #
point $-1 40.321993903283378 21.421156860436167 8.4010394746668027 #
point $-1 45.908383434553059 21.421156860436174 8.4010394746668027 #
point $-1 42.298230105691857 14.816633595124674 5.3291117058281214 #
point $-1 42.298230105691857 17.293329819616485 5.3291117058281214 #
point $-1 42.298230105691857 19.770026044108295 5.3291117058281214 #
straight-curve $-1 -45.908383434553059 -29.958758414810809 5.9015462731354091 0 0 -1 I I #
straight-curve $-1 45.908383434553059 -29.958758414810809 5.9015462731354091 0 0 -1 I I #
End-of-ACIS-data 