500 0 8 0           
7 Unknown 11 ACIS 5.0 NT 24 Thu Mar 25 23:57:53 1999 
-1 9.9999999999999995e-007 1e-010 
body $-1 $8 $-1 $9 #
body $-1 $10 $-1 $11 #
body $-1 $12 $-1 $13 #
body $-1 $14 $-1 $15 #
body $-1 $16 $-1 $17 #
body $-1 $18 $-1 $19 #
body $-1 $20 $-1 $21 #
body $-1 $22 $-1 $23 #
lump $-1 $-1 $24 $0 #
transform $-1 1 0 0 0 1 0 0 0 1 75.379497665334014 51.960253848914029 17.616884064287557 1 rotate no_reflect no_shear #
lump $-1 $-1 $25 $1 #
transform $-1 1 0 0 0 1 0 0 0 1 75.379497665334014 51.960253848914029 17.616884064287557 1 rotate no_reflect no_shear #
lump $-1 $-1 $26 $2 #
transform $-1 1 0 0 0 1 0 0 0 1 75.379497665334014 51.960253848914029 17.616884064287557 1 rotate no_reflect no_shear #
lump $-1 $-1 $27 $3 #
transform $-1 1 0 0 0 1 0 0 0 1 75.379497665334014 51.960253848914029 17.616884064287557 1 rotate no_reflect no_shear #
lump $-1 $-1 $28 $4 #
transform $-1 1 0 0 0 1 0 0 0 1 75.379497665334014 51.960253848914029 17.616884064287557 1 rotate no_reflect no_shear #
lump $-1 $-1 $29 $5 #
transform $-1 1 0 0 0 1 0 0 0 1 75.379497665334014 51.960253848914029 17.616884064287557 1 rotate no_reflect no_shear #
lump $-1 $-1 $30 $6 #
transform $-1 1 0 0 0 1 0 0 0 1 75.379497665334014 51.960253848914029 17.616884064287557 1 rotate no_reflect no_shear #
lump $-1 $-1 $31 $7 #
transform $-1 1 0 0 0 1 0 0 0 1 75.379497665334014 51.960253848914029 17.616884064287557 1 rotate no_reflect no_shear #
shell $-1 $-1 $-1 $32 $-1 $8 #
shell $-1 $-1 $-1 $33 $-1 $10 #
shell $-1 $-1 $-1 $34 $-1 $12 #
shell $-1 $-1 $-1 $35 $-1 $14 #
shell $-1 $-1 $-1 $36 $-1 $16 #
shell $-1 $-1 $-1 $37 $-1 $18 #
shell $-1 $-1 $-1 $38 $-1 $20 #
shell $-1 $-1 $-1 $39 $-1 $22 #
face $-1 $40 $41 $24 $-1 $42 forward single #
face $-1 $43 $44 $25 $-1 $45 reversed single #
face $-1 $46 $47 $26 $-1 $48 reversed single #
face $-1 $49 $50 $27 $-1 $51 forward single #
face $-1 $52 $53 $28 $-1 $54 forward single #
face $-1 $55 $56 $29 $-1 $57 reversed single #
face $-1 $58 $59 $30 $-1 $60 forward single #
face $-1 $61 $62 $31 $-1 $63 forward single #
face $-1 $64 $65 $24 $-1 $66 reversed single #
loop $-1 $-1 $67 $32 #
plane-surface $-1 0 0 17.616884064287557 0 0 1 1 0 0 forward_v I I I I #
face $-1 $68 $69 $25 $-1 $70 reversed single #
loop $-1 $-1 $71 $33 #
plane-surface $-1 0 -41.10560377025174 12.650263634920343 0 0 1 1 0 0 forward_v I I I I #
face $-1 $72 $73 $26 $-1 $74 reversed single #
loop $-1 $-1 $75 $34 #
plane-surface $-1 -75.379497665334014 -19.663503997086032 8.264180247657464 -0.68199836817093118 0 0.7313536940579346 0.7313536940579346 0 0.68199836817093118 forward_v I I I I #
face $-1 $76 $77 $27 $-1 $78 forward single #
loop $-1 $79 $80 $35 #
cone-surface $-1 -67.210349173938027 -24.200982437587498 9.5578790320724565 0.68199836817093118 0 -0.7313536940579346 1.8283842351448365 0 1.7049959204273279 1 I I 0 1 2.5 forward I I I I #
face $-1 $81 $82 $28 $-1 $83 forward single #
loop $-1 $84 $85 $36 #
cone-surface $-1 -67.210349173938027 -15.126025556584565 9.5578790320724565 0.68199836817093118 0 -0.7313536940579346 1.8283842351448365 0 1.7049959204273279 1 I I 0 1 2.5 forward I I I I #
face $-1 $86 $87 $29 $-1 $88 reversed single #
loop $-1 $-1 $89 $37 #
plane-surface $-1 93.961576779374212 43.590163809198856 223.18491323467657 0 -1 0 -0.7660444514056185 0 -0.64278759981090561 forward_v I I I I #
face $-1 $90 $91 $30 $-1 $92 forward single #
loop $-1 $93 $94 $38 #
cone-surface $-1 70.422684930389238 31.331905703312763 12.44766614081975 -0.7660444514056185 0 -0.64278759981090561 0.96418139971635841 0 -1.1490666771084277 1 I I 0 1 1.5 forward I I I I #
face $-1 $95 $96 $31 $-1 $97 forward single #
loop $-1 $98 $99 $39 #
cone-surface $-1 70.422684930389238 38.686860566844423 12.44766614081975 -0.7660444514056185 0 -0.64278759981090561 0.96418139971635841 0 -1.1490666771084277 1 I I 0 1 1.5 forward I I I I #
face $-1 $100 $101 $24 $-1 $102 reversed single #
loop $-1 $-1 $103 $40 #
plane-surface $-1 0 0 -17.616884064287557 0 0 1 1 0 0 forward_v I I I I #
coedge $-1 $104 $105 $106 $107 forward $41 $-1 #
face $-1 $108 $109 $25 $-1 $110 reversed single #
loop $-1 $-1 $111 $43 #
plane-surface $-1 0 -30.250953691589451 15.133573849603952 0 -1 0 0 0 -1 forward_v I I I I #
coedge $-1 $112 $113 $114 $115 reversed $44 $-1 #
face $-1 $116 $117 $26 $-1 $118 forward single #
loop $-1 $-1 $119 $46 #
plane-surface $-1 -178.19688646793864 -9.0760543025826124 118.52232839520444 0 -1 0 0.68199836817093118 0 -0.7313536940579346 forward_v I I I I #
coedge $-1 $120 $121 $122 $123 reversed $47 $-1 #
face $-1 $-1 $124 $27 $-1 $125 forward single #
loop $-1 $126 $127 $49 #
cone-surface $-1 -63.203476074401706 -24.200982437587498 5.2610337905999955 0.68199836817093118 0 -0.7313536940579346 0.91419211757241825 0 0.85249796021366397 1 I I -0.70710678118654746 0.70710678118654746 1.25 forward I I I I #
loop $-1 $-1 $128 $35 #
coedge $-1 $80 $80 $129 $130 reversed $50 $-1 #
face $-1 $-1 $131 $28 $-1 $132 forward single #
loop $-1 $133 $134 $52 #
cone-surface $-1 -63.203476074401706 -15.126025556584565 5.2610337905999955 0.68199836817093118 0 -0.7313536940579346 0.91419211757241825 0 0.85249796021366397 1 I I -0.70710678118654746 0.70710678118654746 1.25 forward I I I I #
loop $-1 $-1 $135 $36 #
coedge $-1 $85 $85 $136 $137 reversed $53 $-1 #
face $-1 $138 $139 $29 $-1 $140 reversed single #
loop $-1 $-1 $141 $55 #
plane-surface $-1 -21.526515093169579 35.009383135078586 126.27890047617295 0.7660444514056185 0 0.64278759981090561 0.64278759981090561 0 -0.7660444514056185 forward_v I I I I #
coedge $-1 $142 $143 $144 $145 reversed $56 $-1 #
face $-1 $-1 $146 $30 $-1 $147 forward single #
loop $-1 $148 $149 $58 #
cone-surface $-1 67.755217482623806 31.331905703312763 10.209395247823 -0.7660444514056185 0 -0.64278759981090561 0.48209069985817921 0 -0.57453333855421385 1 I I -0.70710678118654757 0.70710678118654757 0.75 forward I I I I #
loop $-1 $-1 $150 $38 #
coedge $-1 $94 $94 $151 $152 reversed $59 $-1 #
face $-1 $-1 $153 $31 $-1 $154 forward single #
loop $-1 $155 $156 $61 #
cone-surface $-1 67.755217482623806 38.686860566844423 10.209395247823 -0.7660444514056185 0 -0.64278759981090561 0.48209069985817921 0 -0.57453333855421385 1 I I -0.70710678118654757 0.70710678118654757 0.75 forward I I I I #
loop $-1 $-1 $157 $39 #
coedge $-1 $99 $99 $158 $159 reversed $62 $-1 #
face $-1 $160 $161 $24 $-1 $162 reversed single #
loop $-1 $-1 $163 $64 #
plane-surface $-1 0 -51.960253848914029 0 0 1 0 0 0 1 forward_v I I I I #
coedge $-1 $164 $165 $166 $167 forward $65 $-1 #
coedge $-1 $168 $67 $169 $170 forward $41 $-1 #
coedge $-1 $67 $168 $171 $172 forward $41 $-1 #
coedge $-1 $173 $174 $67 $107 reversed $175 $-1 #
edge $-1 $176 -51.960253848914029 $177 51.960253848914029 $106 $178 forward 7 unknown #
face $-1 $179 $180 $25 $-1 $181 reversed single #
loop $-1 $-1 $182 $68 #
plane-surface $-1 -75.379497665334014 0 0 1 0 0 0 0 -1 forward_v I I I I #
coedge $-1 $183 $184 $185 $186 reversed $69 $-1 #
coedge $-1 $187 $71 $188 $189 reversed $44 $-1 #
coedge $-1 $71 $187 $183 $190 forward $44 $-1 #
coedge $-1 $185 $191 $71 $115 forward $192 $-1 #
edge $-1 $193 -31.407451963788159 $194 -9.6981518064635814 $114 $195 forward 7 unknown #
face $-1 $196 $197 $26 $-1 $198 reversed single #
loop $-1 $-1 $122 $72 #
plane-surface $-1 0 0 17.616884064287557 0 0 1 1 0 0 forward_v I I I I #
coedge $-1 $199 $200 $201 $202 reversed $73 $-1 #
coedge $-1 $203 $75 $204 $205 reversed $47 $-1 #
coedge $-1 $75 $203 $199 $206 forward $47 $-1 #
coedge $-1 $201 $207 $75 $123 forward $117 $-1 #
edge $-1 $208 -20.419201693046436 $209 0.75569769596040359 $122 $210 forward 7 unknown #
loop $-1 $-1 $129 $76 #
plane-surface $-1 -75.379497665334014 -19.663503997086032 8.264180247657464 -0.68199836817093118 0 0.7313536940579346 0.7313536940579346 0 0.68199836817093118 forward_v I I I I #
loop $-1 $-1 $211 $49 #
coedge $-1 $127 $127 $128 $212 reversed $77 $-1 #
coedge $-1 $128 $128 $127 $212 forward $79 $-1 #
coedge $-1 $129 $129 $80 $130 forward $124 $-1 #
edge $-1 $213 0 $213 6.2831853071796004 $129 $214 forward 7 unknown #
loop $-1 $-1 $136 $81 #
plane-surface $-1 -75.379497665334014 -19.663503997086032 8.264180247657464 -0.68199836817093118 0 0.7313536940579346 0.7313536940579346 0 0.68199836817093118 forward_v I I I I #
loop $-1 $-1 $215 $52 #
coedge $-1 $134 $134 $135 $216 reversed $82 $-1 #
coedge $-1 $135 $135 $134 $216 forward $84 $-1 #
coedge $-1 $136 $136 $85 $137 forward $131 $-1 #
edge $-1 $217 0 $217 6.2831853071796004 $136 $218 forward 7 unknown #
face $-1 $219 $220 $29 $-1 $221 reversed single #
loop $-1 $-1 $222 $86 #
plane-surface $-1 93.961576779374212 26.428602460958317 223.18491323467657 0 1 0 0.7660444514056185 0 0.64278759981090561 forward_v I I I I #
coedge $-1 $223 $224 $225 $226 reversed $87 $-1 #
coedge $-1 $143 $89 $227 $228 reversed $56 $-1 #
coedge $-1 $89 $142 $223 $229 reversed $56 $-1 #
coedge $-1 $225 $230 $89 $145 forward $231 $-1 #
edge $-1 $232 -28.398709275646908 $233 -22.670952024179755 $144 $234 forward 7 unknown #
loop $-1 $-1 $151 $90 #
plane-surface $-1 -21.526515093169579 35.009383135078586 126.27890047617295 0.7660444514056185 0 0.64278759981090561 0.64278759981090561 0 -0.7660444514056185 forward_v I I I I #
loop $-1 $-1 $235 $58 #
coedge $-1 $149 $149 $150 $236 reversed $91 $-1 #
coedge $-1 $150 $150 $149 $236 forward $93 $-1 #
coedge $-1 $151 $151 $94 $152 forward $146 $-1 #
edge $-1 $237 0 $237 6.2831853071796004 $151 $238 forward 7 unknown #
loop $-1 $-1 $158 $95 #
plane-surface $-1 -21.526515093169579 35.009383135078586 126.27890047617295 0.7660444514056185 0 0.64278759981090561 0.64278759981090561 0 -0.7660444514056185 forward_v I I I I #
loop $-1 $-1 $239 $61 #
coedge $-1 $156 $156 $157 $240 reversed $96 $-1 #
coedge $-1 $157 $157 $156 $240 forward $98 $-1 #
coedge $-1 $158 $158 $99 $159 forward $153 $-1 #
edge $-1 $241 0 $241 6.2831853071796004 $158 $242 forward 7 unknown #
face $-1 $243 $244 $24 $-1 $245 reversed single #
loop $-1 $-1 $246 $100 #
plane-surface $-1 -75.379497665334014 0 0 1 0 0 0 0 -1 forward_v I I I I #
coedge $-1 $247 $171 $248 $249 forward $101 $-1 #
coedge $-1 $250 $103 $247 $251 forward $65 $-1 #
coedge $-1 $103 $250 $252 $253 forward $65 $-1 #
coedge $-1 $174 $173 $103 $167 reversed $175 $-1 #
edge $-1 $254 -51.960253848914029 $255 51.960253848914029 $166 $256 forward 7 unknown #
coedge $-1 $105 $104 $257 $258 forward $41 $-1 #
coedge $-1 $259 $260 $104 $170 reversed $244 $-1 #
edge $-1 $177 -75.379497665334014 $261 75.379497665334014 $169 $262 forward 7 unknown #
coedge $-1 $163 $263 $105 $172 reversed $101 $-1 #
edge $-1 $264 -75.379497665334014 $176 75.379497665334014 $171 $265 forward 7 unknown #
coedge $-1 $166 $106 $263 $266 forward $175 $-1 #
coedge $-1 $106 $166 $259 $267 reversed $175 $-1 #
loop $-1 $-1 $173 $243 #
vertex $-1 $107 $268 #
vertex $-1 $107 $269 #
straight-curve $-1 75.379497665334014 0 17.616884064287557 0 1 0 I I #
face $-1 $270 $271 $25 $-1 $272 forward single #
loop $-1 $-1 $188 $108 #
plane-surface $-1 0 -51.960253848914029 0 0 1 0 0 0 1 forward_v I I I I #
coedge $-1 $273 $274 $275 $276 forward $109 $-1 #
coedge $-1 $275 $111 $113 $190 reversed $69 $-1 #
coedge $-1 $111 $275 $277 $278 reversed $69 $-1 #
coedge $-1 $279 $114 $111 $186 forward $192 $-1 #
edge $-1 $194 5.0834767101183669 $280 10.050097139485585 $185 $281 forward 7 unknown #
coedge $-1 $113 $112 $273 $282 reversed $44 $-1 #
coedge $-1 $283 $284 $112 $189 forward $180 $-1 #
edge $-1 $285 -75.379497665334014 $193 75.379497665334014 $188 $286 forward 7 unknown #
edge $-1 $287 -75.379497665334014 $194 75.379497665334014 $183 $288 forward 7 unknown #
coedge $-1 $114 $279 $283 $289 forward $192 $-1 #
loop $-1 $-1 $185 $270 #
vertex $-1 $189 $290 #
vertex $-1 $115 $291 #
straight-curve $-1 75.379497665334014 -20.55280188512587 12.650263634920343 0 1 0 I I #
face $-1 $-1 $292 $26 $-1 $293 forward single #
loop $-1 $-1 $294 $116 #
plane-surface $-1 -75.379497665334014 0 0 1 0 0 0 0 -1 forward_v I I I I #
coedge $-1 $200 $119 $121 $206 reversed $73 $-1 #
coedge $-1 $119 $199 $294 $295 reversed $73 $-1 #
coedge $-1 $296 $122 $119 $202 forward $117 $-1 #
edge $-1 $209 -23.748492272781959 $297 -13.718945568635306 $201 $298 forward 7 unknown #
coedge $-1 $121 $120 $299 $300 reversed $47 $-1 #
coedge $-1 $301 $302 $120 $205 forward $292 $-1 #
edge $-1 $303 -29.906994650312416 $208 -16.193319877580414 $204 $304 forward 7 unknown #
edge $-1 $305 0 $209 13.713674772732002 $199 $306 forward 7 unknown #
coedge $-1 $122 $296 $301 $307 forward $117 $-1 #
vertex $-1 $205 $308 #
vertex $-1 $123 $309 #
straight-curve $-1 -65.349950961187361 -9.831751998543016 17.616884064287561 0 1 0 I I #
coedge $-1 $211 $211 $-1 $310 reversed $126 $-1 #
edge $-1 $311 0 $311 6.2831853071796004 $127 $312 forward 7 unknown #
vertex $-1 $130 $313 #
ellipse-curve $-1 -70.36472431326068 -24.200982437587498 12.940532155972509 -0.68199836817093118 0 0.7313536940579346 1.8283842351448365 0 1.7049959204273279 1 I I #
coedge $-1 $215 $215 $-1 $314 reversed $133 $-1 #
edge $-1 $315 0 $315 6.2831853071796004 $134 $316 forward 7 unknown #
vertex $-1 $137 $317 #
ellipse-curve $-1 -70.36472431326068 -15.126025556584565 12.940532155972509 -0.68199836817093118 0 0.7313536940579346 1.8283842351448365 0 1.7049959204273279 1 I I #
face $-1 $-1 $231 $29 $-1 $318 forward single #
loop $-1 $-1 $319 $138 #
plane-surface $-1 75.379497665334014 0 0 -1 0 0 0 0 1 forward_v I I I I #
coedge $-1 $320 $321 $322 $323 reversed $139 $-1 #
coedge $-1 $324 $141 $143 $229 forward $87 $-1 #
coedge $-1 $141 $324 $320 $325 forward $87 $-1 #
coedge $-1 $322 $144 $141 $226 forward $231 $-1 #
edge $-1 $233 -26.085472241659563 $326 -8.9239108934190234 $225 $327 forward 7 unknown #
coedge $-1 $328 $329 $142 $228 forward $220 $-1 #
edge $-1 $330 -100.80164801370908 $232 -93.975572553050725 $227 $331 forward 7 unknown #
edge $-1 $233 141.84818676318454 $330 150.758995330668 $143 $332 forward 7 unknown #
coedge $-1 $144 $322 $328 $333 forward $231 $-1 #
loop $-1 $-1 $322 $219 #
vertex $-1 $228 $334 #
vertex $-1 $145 $335 #
straight-curve $-1 46.980788389687106 43.590163809198856 17.616884064287561 -1 0 0 I I #
coedge $-1 $235 $235 $-1 $336 reversed $148 $-1 #
edge $-1 $337 0 $337 6.2831853071796004 $149 $338 forward 7 unknown #
vertex $-1 $152 $339 #
ellipse-curve $-1 72.515619039600466 31.331905703312763 14.203846333958341 0.7660444514056185 0 0.64278759981090561 0.96418139971635841 0 -1.1490666771084277 1 I I #
coedge $-1 $239 $239 $-1 $340 reversed $155 $-1 #
edge $-1 $341 0 $341 6.2831853071796004 $156 $342 forward 7 unknown #
vertex $-1 $159 $343 #
ellipse-curve $-1 72.515619039600466 38.686860566844423 14.203846333958341 0.7660444514056185 0 0.64278759981090561 0.96418139971635841 0 -1.1490666771084277 1 I I #
face $-1 $-1 $175 $24 $-1 $344 reversed single #
loop $-1 $-1 $259 $160 #
plane-surface $-1 0 51.960253848914029 0 0 -1 0 0 0 -1 forward_v I I I I #
coedge $-1 $345 $257 $260 $346 forward $161 $-1 #
coedge $-1 $263 $163 $164 $251 reversed $101 $-1 #
coedge $-1 $257 $345 $163 $249 reversed $161 $-1 #
edge $-1 $264 -17.616884064287557 $347 17.616884064287557 $248 $348 forward 7 unknown #
coedge $-1 $165 $164 $345 $349 forward $65 $-1 #
edge $-1 $255 -75.379497665334014 $347 75.379497665334014 $247 $350 forward 7 unknown #
coedge $-1 $260 $259 $165 $253 reversed $244 $-1 #
edge $-1 $351 -75.379497665334014 $254 75.379497665334014 $252 $352 forward 7 unknown #
vertex $-1 $167 $353 #
vertex $-1 $266 $354 #
straight-curve $-1 75.379497665334014 0 -17.616884064287557 0 -1 0 I I #
coedge $-1 $246 $248 $168 $258 reversed $161 $-1 #
edge $-1 $261 -51.960253848914029 $264 51.960253848914029 $257 $355 forward 7 unknown #
coedge $-1 $252 $169 $174 $267 forward $244 $-1 #
coedge $-1 $169 $252 $246 $346 reversed $244 $-1 #
vertex $-1 $170 $356 #
straight-curve $-1 0 51.960253848914029 17.616884064287557 -1 0 0 I I #
coedge $-1 $171 $247 $173 $266 reversed $101 $-1 #
vertex $-1 $258 $357 #
straight-curve $-1 0 -51.960253848914029 17.616884064287557 1 0 0 I I #
edge $-1 $176 -17.616884064287557 $255 17.616884064287557 $173 $358 forward 7 unknown #
edge $-1 $177 -17.616884064287557 $254 17.616884064287557 $174 $359 forward 7 unknown #
point $-1 75.379497665334014 -51.960253848914029 17.616884064287557 #
point $-1 75.379497665334014 51.960253848914029 17.616884064287557 #
face $-1 $-1 $192 $25 $-1 $360 reversed single #
loop $-1 $-1 $277 $179 #
plane-surface $-1 0 0 17.616884064287557 0 0 1 1 0 0 forward_v I I I I #
coedge $-1 $361 $182 $187 $282 forward $109 $-1 #
coedge $-1 $182 $361 $362 $363 reversed $109 $-1 #
coedge $-1 $184 $183 $182 $276 reversed $69 $-1 #
edge $-1 $364 -10.050097139485585 $287 -5.0834767101183669 $182 $365 forward 7 unknown #
coedge $-1 $362 $366 $184 $278 forward $271 $-1 #
edge $-1 $280 -75.379497665334014 $364 75.379497665334014 $277 $367 forward 7 unknown #
coedge $-1 $191 $185 $366 $368 reversed $192 $-1 #
vertex $-1 $186 $369 #
straight-curve $-1 75.379497665334014 -30.250953691589451 7.5667869248019759 0 0 1 I I #
edge $-1 $287 9.6981518064635814 $285 31.407451963788159 $273 $370 forward 7 unknown #
coedge $-1 $371 $188 $191 $289 reversed $180 $-1 #
coedge $-1 $188 $371 $361 $372 forward $180 $-1 #
vertex $-1 $189 $373 #
straight-curve $-1 0 -51.960253848914029 12.650263634920343 1 0 0 I I #
vertex $-1 $282 $374 #
straight-curve $-1 0 -30.250953691589451 12.650263634920343 1 0 0 I I #
edge $-1 $375 -17.616884064287557 $193 -12.650263634920343 $191 $376 forward 7 unknown #
point $-1 75.379497665334014 -51.960253848914029 12.650263634920343 #
point $-1 75.379497665334014 -30.250953691589451 12.650263634920343 #
loop $-1 $-1 $204 $196 #
plane-surface $-1 0 -30.250953691589451 15.133573849603952 0 -1 0 0 0 -1 forward_v I I I I #
coedge $-1 $299 $377 $200 $295 forward $197 $-1 #
edge $-1 $297 41.644280133314666 $305 50.996983949944756 $294 $378 forward 7 unknown #
coedge $-1 $207 $201 $377 $379 forward $117 $-1 #
vertex $-1 $379 $380 #
straight-curve $-1 -89.09844323396932 -9.0760543025826124 17.616884064287561 -1 0 0 I I #
coedge $-1 $381 $294 $203 $300 forward $197 $-1 #
edge $-1 $305 -0.75569769596040359 $303 20.419201693046436 $299 $382 forward 7 unknown #
coedge $-1 $302 $204 $207 $307 reversed $292 $-1 #
coedge $-1 $204 $301 $381 $383 reversed $292 $-1 #
vertex $-1 $383 $384 #
straight-curve $-1 -53.506906649657139 -30.250953691589451 28.660701796067301 0.7313536940579346 0 0.68199836817093118 I I #
vertex $-1 $300 $385 #
straight-curve $-1 -75.379497665334014 -9.0760543025826124 8.264180247657464 0.7313536940579346 0 0.68199836817093118 I I #
edge $-1 $386 -75.379497665334014 $208 -65.349950961187361 $207 $387 forward 7 unknown #
point $-1 -65.349950961187361 -30.250953691589451 17.616884064287557 #
point $-1 -65.349950961187361 -9.0760543025826124 17.616884064287557 #
edge $-1 $388 1 $388 0 $211 $-1 forward 7 unknown #
vertex $-1 $212 $389 #
ellipse-curve $-1 -64.055974034615375 -24.200982437587498 6.1752259081724139 -0.68199836817093118 0 0.7313536940579346 1.8283842351448365 0 1.7049959204273279 1 I I #
point $-1 -68.536340078115828 -24.200982437587498 14.645528076399827 #
edge $-1 $390 1 $390 0 $215 $-1 forward 7 unknown #
vertex $-1 $216 $391 #
ellipse-curve $-1 -64.055974034615375 -15.126025556584565 6.1752259081724139 -0.68199836817093118 0 0.7313536940579346 1.8283842351448365 0 1.7049959204273279 1 I I #
point $-1 -68.536340078115828 -15.126025556584565 14.645528076399827 #
plane-surface $-1 0 0 17.616884064287557 0 0 1 1 0 0 forward_v I I I I #
coedge $-1 $329 $328 $321 $392 forward $220 $-1 #
coedge $-1 $321 $222 $224 $325 reversed $139 $-1 #
coedge $-1 $222 $320 $319 $392 reversed $139 $-1 #
coedge $-1 $230 $225 $222 $323 forward $231 $-1 #
edge $-1 $326 22.670952024179755 $393 28.398709275646908 $322 $394 forward 7 unknown #
coedge $-1 $224 $223 $329 $395 reversed $87 $-1 #
edge $-1 $396 -150.758995330668 $326 -141.84818676318454 $320 $397 forward 7 unknown #
vertex $-1 $226 $398 #
straight-curve $-1 69.651740413866847 17.504691567539293 17.616884064287561 0 -1 0 I I #
coedge $-1 $319 $227 $230 $333 reversed $220 $-1 #
coedge $-1 $227 $319 $324 $395 forward $220 $-1 #
vertex $-1 $228 $399 #
straight-curve $-1 75.379497665334014 43.590163809198856 111.59245661733829 0 0 1 I I #
straight-curve $-1 -21.526515093169579 43.590163809198856 126.27890047617295 0.64278759981090561 0 -0.7660444514056185 I I #
edge $-1 $393 26.428602460958317 $232 43.590163809198856 $328 $400 forward 7 unknown #
point $-1 75.379497665334014 43.590163809198856 17.616884064287557 #
point $-1 69.651740413866861 43.590163809198856 17.616884064287561 #
edge $-1 $401 1 $401 0 $235 $-1 forward 7 unknown #
vertex $-1 $236 $402 #
ellipse-curve $-1 68.329750821178024 31.331905703312763 10.69148594768118 0.7660444514056185 0 0.64278759981090561 0.96418139971635841 0 -1.1490666771084277 1 I I #
point $-1 73.479800439316804 31.331905703312763 13.054779656849895 #
edge $-1 $403 1 $403 0 $239 $-1 forward 7 unknown #
vertex $-1 $240 $404 #
ellipse-curve $-1 68.329750821178024 38.686860566844423 10.69148594768118 0.7660444514056185 0 0.64278759981090561 0.96418139971635841 0 -1.1490666771084277 1 I I #
point $-1 73.479800439316804 38.686860566844423 13.054779656849895 #
plane-surface $-1 75.379497665334014 0 0 -1 0 0 0 0 1 forward_v I I I I #
coedge $-1 $248 $246 $250 $349 reversed $161 $-1 #
edge $-1 $261 -17.616884064287557 $351 17.616884064287557 $260 $405 forward 7 unknown #
vertex $-1 $349 $406 #
straight-curve $-1 -75.379497665334014 -51.960253848914029 0 0 0 -1 I I #
edge $-1 $347 -51.960253848914029 $351 51.960253848914029 $345 $407 forward 7 unknown #
straight-curve $-1 0 -51.960253848914029 -17.616884064287557 -1 0 0 I I #
vertex $-1 $253 $408 #
straight-curve $-1 0 51.960253848914029 -17.616884064287557 1 0 0 I I #
point $-1 75.379497665334014 51.960253848914029 -17.616884064287557 #
point $-1 75.379497665334014 -51.960253848914029 -17.616884064287557 #
straight-curve $-1 -75.379497665334014 0 17.616884064287557 0 -1 0 I I #
point $-1 -75.379497665334014 51.960253848914029 17.616884064287557 #
point $-1 -75.379497665334014 -51.960253848914029 17.616884064287557 #
straight-curve $-1 75.379497665334014 -51.960253848914029 0 0 0 -1 I I #
straight-curve $-1 75.379497665334014 51.960253848914029 0 0 0 -1 I I #
plane-surface $-1 75.379497665334014 0 0 -1 0 0 0 0 1 forward_v I I I I #
coedge $-1 $274 $273 $284 $372 reversed $109 $-1 #
coedge $-1 $409 $277 $274 $363 forward $271 $-1 #
edge $-1 $364 30.250953691589451 $410 51.960253848914029 $274 $411 forward 7 unknown #
vertex $-1 $363 $412 #
straight-curve $-1 -75.379497665334014 -30.250953691589451 7.5667869248019759 0 0 -1 I I #
coedge $-1 $277 $409 $279 $368 forward $271 $-1 #
straight-curve $-1 0 -30.250953691589451 17.616884064287557 -1 0 0 I I #
edge $-1 $375 -51.960253848914029 $280 -30.250953691589451 $279 $413 forward 7 unknown #
point $-1 75.379497665334014 -30.250953691589451 17.616884064287561 #
straight-curve $-1 -75.379497665334014 -20.55280188512587 12.650263634920343 0 -1 0 I I #
coedge $-1 $284 $283 $409 $414 reversed $180 $-1 #
edge $-1 $410 -17.616884064287557 $285 -12.650263634920343 $361 $415 forward 7 unknown #
point $-1 -75.379497665334014 -51.960253848914029 12.650263634920343 #
point $-1 -75.379497665334014 -30.250953691589451 12.650263634920343 #
vertex $-1 $368 $416 #
straight-curve $-1 75.379497665334014 -51.960253848914029 0 0 0 -1 I I #
coedge $-1 $294 $381 $296 $379 reversed $197 $-1 #
straight-curve $-1 -75.379497665334014 -9.0760543025826124 59.26116419760222 0 0 -1 I I #
edge $-1 $297 9.0760543025826124 $386 30.250953691589451 $377 $417 forward 7 unknown #
point $-1 -75.379497665334014 -9.0760543025826124 17.616884064287557 #
coedge $-1 $377 $299 $302 $383 forward $197 $-1 #
straight-curve $-1 -75.379497665334014 -9.831751998543016 8.2641802476574622 0 -1 0 I I #
edge $-1 $303 -50.996983949944756 $386 -41.644280133314659 $381 $418 forward 7 unknown #
point $-1 -75.379497665334014 -30.250953691589451 8.264180247657464 #
point $-1 -75.379497665334014 -9.0760543025826124 8.264180247657464 #
vertex $-1 $383 $419 #
straight-curve $-1 0 -30.250953691589451 17.616884064287557 1 0 0 I I #
vertex $-1 $310 $420 #
point $-1 -62.227589799470536 -24.200982437587498 7.8802218285997423 #
vertex $-1 $314 $421 #
point $-1 -62.227589799470536 -15.126025556584565 7.8802218285997423 #
edge $-1 $393 93.975572553050725 $396 100.80164801370908 $319 $422 forward 7 unknown #
vertex $-1 $333 $423 #
straight-curve $-1 46.980788389687106 26.428602460958317 17.616884064287561 1 0 0 I I #
edge $-1 $396 8.9239108934190234 $330 26.085472241659563 $329 $424 forward 7 unknown #
vertex $-1 $395 $425 #
straight-curve $-1 -21.526515093169579 26.428602460958317 126.27890047617295 -0.64278759981090561 0 0.7660444514056185 I I #
point $-1 69.651740413866861 26.428602460958317 17.616884064287561 #
point $-1 75.379497665334014 43.590163809198856 10.790808603629202 #
straight-curve $-1 75.379497665334014 0 17.616884064287557 0 1 0 I I #
vertex $-1 $336 $426 #
point $-1 69.293932220894376 31.331905703312763 9.5424192705727524 #
vertex $-1 $340 $427 #
point $-1 69.293932220894376 38.686860566844423 9.5424192705727524 #
straight-curve $-1 -75.379497665334014 51.960253848914029 0 0 0 -1 I I #
point $-1 -75.379497665334014 -51.960253848914029 -17.616884064287557 #
straight-curve $-1 -75.379497665334014 0 -17.616884064287557 0 1 0 I I #
point $-1 -75.379497665334014 51.960253848914029 -17.616884064287557 #
coedge $-1 $366 $362 $371 $414 forward $271 $-1 #
vertex $-1 $363 $428 #
straight-curve $-1 -75.379497665334014 0 17.616884064287557 0 -1 0 I I #
point $-1 -75.379497665334014 -30.250953691589451 17.616884064287561 #
straight-curve $-1 75.379497665334014 0 17.616884064287557 0 1 0 I I #
edge $-1 $410 -75.379497665334014 $375 75.379497665334014 $371 $429 forward 7 unknown #
straight-curve $-1 -75.379497665334014 -51.960253848914029 0 0 0 -1 I I #
point $-1 75.379497665334014 -51.960253848914029 17.616884064287557 #
straight-curve $-1 -75.379497665334014 0 17.616884064287557 0 -1 0 I I #
straight-curve $-1 -75.379497665334014 -30.250953691589451 59.26116419760222 0 0 1 I I #
point $-1 -75.379497665334014 -30.250953691589451 17.616884064287561 #
point $-1 -62.350978114188045 -24.200982437587498 4.3468416730275772 #
point $-1 -62.350978114188045 -15.126025556584565 4.3468416730275772 #
straight-curve $-1 75.379497665334014 26.428602460958317 111.59245661733829 0 0 -1 I I #
point $-1 75.379497665334014 26.428602460958317 17.616884064287557 #
straight-curve $-1 75.379497665334014 17.504691567539293 10.790808603629202 0 1 0 I I #
point $-1 75.379497665334014 26.428602460958317 10.790808603629202 #
point $-1 67.180684144069588 31.331905703312763 9.7273045479648204 #
point $-1 67.180684144069588 38.686860566844423 9.7273045479648204 #
point $-1 -75.379497665334014 -51.960253848914029 17.616884064287557 #
straight-curve $-1 0 -51.960253848914029 17.616884064287557 1 0 0 I I #
End-of-ACIS-data 