500 0 2 0           
7 Unknown 11 ACIS 5.0 NT 24 Thu Mar 25 15:44:35 1999 
-1 9.9999999999999995e-007 1e-010 
body $-1 $2 $-1 $3 #
body $-1 $4 $-1 $5 #
lump $-1 $-1 $6 $0 #
transform $-1 1 0 0 0 1 0 0 0 1 60.148319956053342 29.773299061836688 14.719006058006302 1 rotate no_reflect no_shear #
lump $-1 $-1 $7 $1 #
transform $-1 1 0 0 0 1 0 0 0 1 60.148319956053342 29.773299061836688 14.719006058006302 1 rotate no_reflect no_shear #
shell $-1 $-1 $-1 $8 $-1 $2 #
shell $-1 $-1 $-1 $9 $-1 $4 #
face $-1 $10 $11 $6 $-1 $12 forward single #
face $-1 $13 $14 $7 $-1 $15 forward single #
face $-1 $16 $17 $6 $-1 $18 reversed single #
loop $-1 $-1 $19 $8 #
plane-surface $-1 0 0 14.719006058006302 0 0 1 1 0 0 forward_v I I I I #
face $-1 $20 $21 $7 $-1 $22 reversed single #
loop $-1 $-1 $23 $9 #
plane-surface $-1 -68.178746788217524 0 -1.6590697873253939 0 0 1 1 0 0 forward_v I I I I #
face $-1 $24 $25 $6 $-1 $26 reversed single #
loop $-1 $-1 $27 $10 #
plane-surface $-1 0 0 -14.719006058006302 0 0 1 1 0 0 forward_v I I I I #
coedge $-1 $28 $29 $30 $31 forward $11 $-1 #
face $-1 $32 $33 $7 $-1 $34 reversed single #
loop $-1 $-1 $35 $13 #
plane-surface $-1 -68.178746788217524 0 -5.3715456766957628 0 0 1 1 0 0 forward_v I I I I #
coedge $-1 $36 $37 $38 $39 reversed $14 $-1 #
face $-1 $40 $41 $6 $-1 $42 reversed single #
loop $-1 $-1 $43 $16 #
plane-surface $-1 0 -29.773299061836688 0 0 1 0 0 0 1 forward_v I I I I #
coedge $-1 $44 $45 $46 $47 forward $17 $-1 #
coedge $-1 $48 $19 $49 $50 forward $11 $-1 #
coedge $-1 $19 $48 $51 $52 forward $11 $-1 #
coedge $-1 $53 $54 $19 $31 reversed $55 $-1 #
edge $-1 $56 -29.773299061836688 $57 29.773299061836688 $30 $58 forward 7 unknown #
face $-1 $59 $60 $7 $-1 $61 reversed single #
loop $-1 $-1 $62 $20 #
plane-surface $-1 -76.209173620381705 0 -3.5153077320105783 1 0 0 0 0 -1 forward_v I I I I #
coedge $-1 $63 $64 $65 $66 reversed $21 $-1 #
coedge $-1 $67 $23 $68 $69 forward $14 $-1 #
coedge $-1 $23 $67 $70 $71 forward $14 $-1 #
coedge $-1 $72 $73 $23 $39 forward $74 $-1 #
edge $-1 $75 -29.773299061836688 $76 29.773299061836688 $38 $77 forward 7 unknown #
face $-1 $78 $79 $6 $-1 $80 reversed single #
loop $-1 $-1 $81 $24 #
plane-surface $-1 -60.148319956053342 0 0 1 0 0 0 0 -1 forward_v I I I I #
coedge $-1 $82 $51 $83 $84 forward $25 $-1 #
coedge $-1 $85 $27 $82 $86 forward $17 $-1 #
coedge $-1 $27 $85 $87 $88 forward $17 $-1 #
coedge $-1 $54 $53 $27 $47 reversed $55 $-1 #
edge $-1 $89 -29.773299061836688 $90 29.773299061836688 $46 $91 forward 7 unknown #
coedge $-1 $29 $28 $92 $93 forward $11 $-1 #
coedge $-1 $94 $95 $28 $50 reversed $79 $-1 #
edge $-1 $57 -60.148319956053342 $96 60.148319956053342 $49 $97 forward 7 unknown #
coedge $-1 $43 $98 $29 $52 reversed $25 $-1 #
edge $-1 $99 -60.148319956053342 $56 60.148319956053342 $51 $100 forward 7 unknown #
coedge $-1 $46 $30 $98 $101 forward $55 $-1 #
coedge $-1 $30 $46 $94 $102 reversed $55 $-1 #
loop $-1 $-1 $53 $78 #
vertex $-1 $31 $103 #
vertex $-1 $31 $104 #
straight-curve $-1 60.148319956053342 0 14.719006058006302 0 1 0 I I #
face $-1 $105 $74 $7 $-1 $61 reversed single #
loop $-1 $-1 $65 $32 #
plane-surface $-1 -60.148319956053342 0 0 1 0 0 0 0 -1 forward_v I I I I #
coedge $-1 $106 $107 $108 $109 forward $33 $-1 #
coedge $-1 $110 $35 $111 $112 forward $21 $-1 #
coedge $-1 $35 $110 $113 $114 forward $21 $-1 #
coedge $-1 $115 $116 $35 $66 forward $60 $-1 #
edge $-1 $117 -29.773299061836688 $118 29.773299061836688 $65 $119 forward 7 unknown #
coedge $-1 $37 $36 $107 $120 forward $14 $-1 #
coedge $-1 $121 $108 $36 $69 reversed $122 $-1 #
edge $-1 $75 -8.0304268321641814 $123 8.0304268321641814 $68 $124 forward 7 unknown #
coedge $-1 $125 $126 $37 $71 reversed $127 $-1 #
edge $-1 $128 -8.0304268321641814 $76 8.0304268321641814 $70 $129 forward 7 unknown #
coedge $-1 $130 $38 $126 $131 reversed $74 $-1 #
coedge $-1 $38 $130 $121 $132 forward $74 $-1 #
loop $-1 $-1 $38 $59 #
vertex $-1 $132 $133 #
vertex $-1 $71 $134 #
straight-curve $-1 -60.148319956053342 0 -1.6590697873253939 0 -1 0 I I #
face $-1 $-1 $55 $6 $-1 $135 reversed single #
loop $-1 $-1 $94 $40 #
plane-surface $-1 0 29.773299061836688 0 0 -1 0 0 0 -1 forward_v I I I I #
coedge $-1 $136 $92 $95 $137 forward $41 $-1 #
coedge $-1 $98 $43 $44 $86 reversed $25 $-1 #
coedge $-1 $92 $136 $43 $84 reversed $41 $-1 #
edge $-1 $99 -14.719006058006302 $138 14.719006058006302 $83 $139 forward 7 unknown #
coedge $-1 $45 $44 $136 $140 forward $17 $-1 #
edge $-1 $90 -60.148319956053342 $138 60.148319956053342 $82 $141 forward 7 unknown #
coedge $-1 $95 $94 $45 $88 reversed $79 $-1 #
edge $-1 $142 -60.148319956053342 $89 60.148319956053342 $87 $143 forward 7 unknown #
vertex $-1 $47 $144 #
vertex $-1 $101 $145 #
straight-curve $-1 60.148319956053342 0 -14.719006058006302 0 -1 0 I I #
coedge $-1 $81 $83 $48 $93 reversed $41 $-1 #
edge $-1 $96 -29.773299061836688 $99 29.773299061836688 $92 $146 forward 7 unknown #
coedge $-1 $87 $49 $54 $102 forward $79 $-1 #
coedge $-1 $49 $87 $81 $137 reversed $79 $-1 #
vertex $-1 $50 $147 #
straight-curve $-1 0 29.773299061836688 14.719006058006302 -1 0 0 I I #
coedge $-1 $51 $82 $53 $101 reversed $25 $-1 #
vertex $-1 $93 $148 #
straight-curve $-1 0 -29.773299061836688 14.719006058006302 1 0 0 I I #
edge $-1 $56 -14.719006058006302 $90 14.719006058006302 $53 $149 forward 7 unknown #
edge $-1 $57 -14.719006058006302 $89 14.719006058006302 $54 $150 forward 7 unknown #
point $-1 60.148319956053342 -29.773299061836688 14.719006058006302 #
point $-1 60.148319956053342 29.773299061836688 14.719006058006302 #
face $-1 $151 $152 $7 $-1 $153 forward single #
coedge $-1 $154 $62 $110 $155 reversed $33 $-1 #
coedge $-1 $62 $154 $67 $120 reversed $33 $-1 #
coedge $-1 $68 $113 $62 $109 reversed $122 $-1 #
edge $-1 $123 -1.8562379446851844 $156 1.8562379446851844 $108 $157 forward 7 unknown #
coedge $-1 $64 $63 $106 $155 forward $21 $-1 #
coedge $-1 $158 $125 $63 $112 reversed $127 $-1 #
edge $-1 $117 -8.0304268321641814 $159 8.0304268321641814 $111 $160 forward 7 unknown #
coedge $-1 $108 $161 $64 $114 reversed $122 $-1 #
edge $-1 $156 -8.0304268321641814 $118 8.0304268321641814 $113 $162 forward 7 unknown #
coedge $-1 $163 $65 $161 $164 forward $60 $-1 #
coedge $-1 $65 $163 $158 $165 reversed $60 $-1 #
vertex $-1 $165 $166 #
vertex $-1 $164 $167 #
straight-curve $-1 -60.148319956053342 0 -5.3715456766957628 0 1 0 I I #
edge $-1 $123 -29.773299061836688 $128 29.773299061836688 $107 $168 forward 7 unknown #
coedge $-1 $169 $68 $73 $132 reversed $122 $-1 #
loop $-1 $-1 $170 $171 #
vertex $-1 $69 $172 #
straight-curve $-1 -68.178746788217524 29.773299061836688 -1.6590697873253939 -1 0 0 I I #
coedge $-1 $111 $70 $154 $173 forward $127 $-1 #
coedge $-1 $70 $174 $72 $131 forward $127 $-1 #
loop $-1 $-1 $126 $175 #
vertex $-1 $120 $176 #
straight-curve $-1 -68.178746788217524 -29.773299061836688 -1.6590697873253939 1 0 0 I I #
coedge $-1 $73 $72 $177 $178 reversed $74 $-1 #
edge $-1 $179 -14.719006058006302 $76 1.6590697873253939 $72 $180 forward 7 unknown #
edge $-1 $181 -14.719006058006302 $75 1.6590697873253939 $121 $182 forward 7 unknown #
point $-1 -60.148319956053342 29.773299061836688 -1.6590697873253939 #
point $-1 -60.148319956053342 -29.773299061836688 -1.6590697873253939 #
plane-surface $-1 60.148319956053342 0 0 -1 0 0 0 0 1 forward_v I I I I #
coedge $-1 $83 $81 $85 $140 reversed $41 $-1 #
edge $-1 $96 -14.719006058006302 $142 14.719006058006302 $95 $183 forward 7 unknown #
vertex $-1 $140 $184 #
straight-curve $-1 -60.148319956053342 -29.773299061836688 0 0 0 -1 I I #
edge $-1 $138 -29.773299061836688 $142 29.773299061836688 $136 $185 forward 7 unknown #
straight-curve $-1 0 -29.773299061836688 -14.719006058006302 -1 0 0 I I #
vertex $-1 $88 $186 #
straight-curve $-1 0 29.773299061836688 -14.719006058006302 1 0 0 I I #
point $-1 60.148319956053342 29.773299061836688 -14.719006058006302 #
point $-1 60.148319956053342 -29.773299061836688 -14.719006058006302 #
straight-curve $-1 -60.148319956053342 0 14.719006058006302 0 -1 0 I I #
point $-1 -60.148319956053342 29.773299061836688 14.719006058006302 #
point $-1 -60.148319956053342 -29.773299061836688 14.719006058006302 #
straight-curve $-1 60.148319956053342 -29.773299061836688 0 0 0 -1 I I #
straight-curve $-1 60.148319956053342 29.773299061836688 0 0 0 -1 I I #
face $-1 $175 $187 $7 $-1 $188 reversed single #
loop $-1 $-1 $189 $105 #
plane-surface $-1 0 0 14.719006058006302 0 0 1 1 0 0 forward_v I I I I #
coedge $-1 $107 $106 $125 $173 reversed $33 $-1 #
edge $-1 $159 -29.773299061836688 $156 29.773299061836688 $106 $190 forward 7 unknown #
vertex $-1 $114 $191 #
straight-curve $-1 -76.209173620381705 29.773299061836688 -3.5153077320105783 0 0 -1 I I #
coedge $-1 $192 $111 $116 $165 forward $127 $-1 #
vertex $-1 $155 $193 #
straight-curve $-1 -68.178746788217524 -29.773299061836688 -5.3715456766957628 -1 0 0 I I #
coedge $-1 $113 $194 $115 $164 reversed $122 $-1 #
straight-curve $-1 -68.178746788217524 29.773299061836688 -5.3715456766957628 1 0 0 I I #
coedge $-1 $116 $115 $195 $196 reversed $60 $-1 #
edge $-1 $118 5.3715456766957628 $197 14.719006058006302 $161 $182 forward 7 unknown #
edge $-1 $117 5.3715456766957628 $198 14.719006058006302 $116 $180 forward 7 unknown #
point $-1 -60.148319956053342 -29.773299061836688 -5.3715456766957628 #
point $-1 -60.148319956053342 29.773299061836688 -5.3715456766957628 #
straight-curve $-1 -76.209173620381705 0 -1.6590697873253939 0 -1 0 I I #
coedge $-1 $170 $121 $199 $200 reversed $122 $-1 #
coedge $-1 $194 $169 $201 $202 forward $122 $-1 #
face $-1 $203 $122 $7 $-1 $204 reversed single #
point $-1 -76.209173620381705 29.773299061836688 -1.6590697873253939 #
edge $-1 $128 -1.8562379446851844 $159 1.8562379446851844 $154 $205 forward 7 unknown #
coedge $-1 $126 $206 $207 $208 reversed $127 $-1 #
face $-1 $171 $127 $7 $-1 $209 reversed single #
point $-1 -76.209173620381705 -29.773299061836688 -1.6590697873253939 #
coedge $-1 $207 $199 $130 $178 forward $152 $-1 #
edge $-1 $181 -29.773299061836688 $179 29.773299061836688 $130 $210 forward 7 unknown #
vertex $-1 $178 $211 #
straight-curve $-1 -60.148319956053342 -29.773299061836688 0 0 0 -1 I I #
vertex $-1 $200 $212 #
straight-curve $-1 -60.148319956053342 29.773299061836688 0 0 0 -1 I I #
straight-curve $-1 -60.148319956053342 29.773299061836688 0 0 0 -1 I I #
point $-1 -60.148319956053342 -29.773299061836688 -14.719006058006302 #
straight-curve $-1 -60.148319956053342 0 -14.719006058006302 0 1 0 I I #
point $-1 -60.148319956053342 29.773299061836688 -14.719006058006302 #
loop $-1 $-1 $213 $151 #
plane-surface $-1 0 0 -14.719006058006302 0 0 1 1 0 0 forward_v I I I I #
coedge $-1 $199 $207 $214 $215 forward $152 $-1 #
straight-curve $-1 -76.209173620381705 0 -5.3715456766957628 0 1 0 I I #
point $-1 -76.209173620381705 29.773299061836688 -5.3715456766957628 #
coedge $-1 $206 $158 $216 $217 reversed $127 $-1 #
point $-1 -76.209173620381705 -29.773299061836688 -5.3715456766957628 #
coedge $-1 $161 $170 $218 $219 reversed $122 $-1 #
coedge $-1 $218 $216 $163 $196 forward $187 $-1 #
edge $-1 $198 -29.773299061836688 $197 29.773299061836688 $163 $220 forward 7 unknown #
vertex $-1 $219 $221 #
vertex $-1 $196 $222 #
coedge $-1 $177 $189 $169 $200 forward $152 $-1 #
edge $-1 $223 -60.148319956053342 $181 60.148319956053342 $169 $224 forward 7 unknown #
coedge $-1 $214 $225 $170 $202 reversed $226 $-1 #
edge $-1 $223 -14.719006058006302 $227 14.719006058006302 $201 $228 forward 7 unknown #
face $-1 $-1 $226 $7 $-1 $229 reversed single #
plane-surface $-1 0 29.773299061836688 0 0 -1 0 0 0 -1 forward_v I I I I #
straight-curve $-1 -76.209173620381705 -29.773299061836688 -3.5153077320105783 0 0 -1 I I #
coedge $-1 $174 $192 $230 $231 reversed $127 $-1 #
coedge $-1 $189 $177 $174 $208 forward $152 $-1 #
edge $-1 $179 -60.148319956053342 $232 60.148319956053342 $174 $233 forward 7 unknown #
plane-surface $-1 0 -29.773299061836688 0 0 1 0 0 0 1 forward_v I I I I #
straight-curve $-1 -60.148319956053342 0 14.719006058006302 0 -1 0 I I #
point $-1 -60.148319956053342 -29.773299061836688 14.719006058006302 #
point $-1 -60.148319956053342 29.773299061836688 14.719006058006302 #
coedge $-1 $216 $218 $225 $234 forward $187 $-1 #
coedge $-1 $230 $201 $189 $215 reversed $226 $-1 #
edge $-1 $232 -29.773299061836688 $223 29.773299061836688 $214 $235 forward 7 unknown #
coedge $-1 $195 $213 $192 $217 forward $187 $-1 #
edge $-1 $236 -60.148319956053342 $198 60.148319956053342 $192 $237 forward 7 unknown #
coedge $-1 $213 $195 $194 $219 forward $187 $-1 #
edge $-1 $197 -60.148319956053342 $227 60.148319956053342 $194 $238 forward 7 unknown #
straight-curve $-1 -60.148319956053342 0 -14.719006058006302 0 1 0 I I #
point $-1 -60.148319956053342 29.773299061836688 -14.719006058006302 #
point $-1 -60.148319956053342 -29.773299061836688 -14.719006058006302 #
vertex $-1 $215 $239 #
straight-curve $-1 0 29.773299061836688 14.719006058006302 -1 0 0 I I #
coedge $-1 $201 $230 $213 $234 reversed $226 $-1 #
loop $-1 $-1 $230 $203 #
vertex $-1 $234 $240 #
straight-curve $-1 60.148319956053342 29.773299061836688 0 0 0 -1 I I #
plane-surface $-1 60.148319956053342 0 0 -1 0 0 0 0 1 forward_v I I I I #
coedge $-1 $225 $214 $206 $231 forward $226 $-1 #
edge $-1 $232 -14.719006058006302 $236 14.719006058006302 $230 $241 forward 7 unknown #
vertex $-1 $215 $242 #
straight-curve $-1 0 -29.773299061836688 14.719006058006302 1 0 0 I I #
edge $-1 $227 -29.773299061836688 $236 29.773299061836688 $225 $243 forward 7 unknown #
straight-curve $-1 60.148319956053342 0 14.719006058006302 0 1 0 I I #
vertex $-1 $231 $244 #
straight-curve $-1 0 -29.773299061836688 -14.719006058006302 -1 0 0 I I #
straight-curve $-1 0 29.773299061836688 -14.719006058006302 1 0 0 I I #
point $-1 60.148319956053342 29.773299061836688 14.719006058006302 #
point $-1 60.148319956053342 29.773299061836688 -14.719006058006302 #
straight-curve $-1 60.148319956053342 -29.773299061836688 0 0 0 -1 I I #
point $-1 60.148319956053342 -29.773299061836688 14.719006058006302 #
straight-curve $-1 60.148319956053342 0 -14.719006058006302 0 -1 0 I I #
point $-1 60.148319956053342 -29.773299061836688 -14.719006058006302 #
End-of-ACIS-data 