500 0 4 0           
7 Unknown 11 ACIS 5.0 NT 24 Fri Mar 26 16:46:11 1999 
-1 9.9999999999999995e-007 1e-010 
body $-1 $4 $-1 $5 #
body $-1 $6 $-1 $7 #
body $-1 $8 $-1 $9 #
body $-1 $10 $-1 $11 #
lump $-1 $-1 $12 $0 #
transform $-1 1 0 0 0 1 0 0 0 1 47.903073213904236 24.818022751362072 9.0440701336547207 1 rotate no_reflect no_shear #
lump $-1 $-1 $13 $1 #
transform $-1 1 0 0 0 1 0 0 0 1 47.903073213904236 24.818022751362072 9.0440701336547207 1 rotate no_reflect no_shear #
lump $-1 $-1 $14 $2 #
transform $-1 1 0 0 0 1 0 0 0 1 47.903073213904236 24.818022751362072 9.0440701336547207 1 rotate no_reflect no_shear #
lump $-1 $-1 $15 $3 #
transform $-1 1 0 0 0 1 0 0 0 1 47.903073213904236 24.818022751362072 9.0440701336547207 1 rotate no_reflect no_shear #
shell $-1 $-1 $-1 $16 $-1 $4 #
shell $-1 $-1 $-1 $17 $-1 $6 #
shell $-1 $-1 $-1 $18 $-1 $8 #
shell $-1 $-1 $-1 $19 $-1 $10 #
face $-1 $20 $21 $12 $-1 $22 forward single #
face $-1 $23 $24 $13 $-1 $25 reversed single #
face $-1 $26 $27 $14 $-1 $28 forward single #
face $-1 $29 $30 $15 $-1 $31 forward single #
face $-1 $32 $33 $12 $-1 $34 reversed single #
loop $-1 $-1 $35 $16 #
plane-surface $-1 0 0 9.0440701336547207 0 0 1 1 0 0 forward_v I I I I #
face $-1 $36 $37 $13 $-1 $38 reversed single #
loop $-1 $-1 $39 $17 #
plane-surface $-1 -27.161464765674189 33.493792373460124 111.31956858080247 1 0 0 0 -0.52991927123019833 -0.84804809178421925 forward_v I I I I #
face $-1 $40 $41 $14 $-1 $42 forward single #
loop $-1 $43 $44 $18 #
cone-surface $-1 -19.858746523645198 20.296884952897081 5.926699499209561 0 -0.52991927123019833 -0.84804809178421925 1 0 0 1 I I 0 1 1 forward I I I I #
face $-1 $45 $46 $15 $-1 $47 forward single #
loop $-1 $48 $49 $19 #
cone-surface $-1 -8.9046691606017205 20.296884952897081 5.926699499209561 0 -0.52991927123019833 -0.84804809178421925 1 0 0 1 I I 0 1 1 forward I I I I #
face $-1 $50 $51 $12 $-1 $52 reversed single #
loop $-1 $-1 $53 $20 #
plane-surface $-1 0 0 -9.0440701336547207 0 0 1 1 0 0 forward_v I I I I #
coedge $-1 $54 $55 $56 $57 forward $21 $-1 #
face $-1 $58 $59 $13 $-1 $60 reversed single #
loop $-1 $-1 $61 $23 #
plane-surface $-1 -14.381707842123461 -17.275730920937811 30.071348921500004 0 0.52991927123019833 0.84804809178421925 1 0 0 forward_v I I I I #
coedge $-1 $62 $63 $64 $65 reversed $24 $-1 #
face $-1 $-1 $66 $14 $-1 $67 forward single #
loop $-1 $68 $69 $26 #
cone-surface $-1 -19.858746523645198 19.732324515891101 5.0232139547259251 0 -0.52991927123019833 -0.84804809178421925 0.5 0 0 1 I I -0.70710678118654746 0.70710678118654746 0.5 forward I I I I #
loop $-1 $-1 $70 $18 #
coedge $-1 $44 $44 $71 $72 reversed $27 $-1 #
face $-1 $-1 $73 $15 $-1 $74 forward single #
loop $-1 $75 $76 $29 #
cone-surface $-1 -8.9046691606017205 19.732324515891101 5.0232139547259251 0 -0.52991927123019833 -0.84804809178421925 0.5 0 0 1 I I -0.70710678118654746 0.70710678118654746 0.5 forward I I I I #
loop $-1 $-1 $77 $19 #
coedge $-1 $49 $49 $78 $79 reversed $30 $-1 #
face $-1 $80 $81 $12 $-1 $82 reversed single #
loop $-1 $-1 $83 $32 #
plane-surface $-1 0 -24.818022751362072 0 0 1 0 0 0 1 forward_v I I I I #
coedge $-1 $84 $85 $86 $87 forward $33 $-1 #
coedge $-1 $88 $35 $89 $90 forward $21 $-1 #
coedge $-1 $35 $88 $91 $92 forward $21 $-1 #
coedge $-1 $93 $94 $35 $57 reversed $95 $-1 #
edge $-1 $96 -24.818022751362072 $97 24.818022751362072 $56 $98 forward 7 unknown #
face $-1 $99 $100 $13 $-1 $101 reversed single #
loop $-1 $-1 $102 $36 #
plane-surface $-1 -1.6019509185727348 33.493792373460124 111.31956858080247 -1 0 0 0 0.52991927123019833 0.84804809178421925 forward_v I I I I #
coedge $-1 $103 $104 $105 $106 reversed $37 $-1 #
coedge $-1 $63 $39 $107 $108 reversed $24 $-1 #
coedge $-1 $39 $62 $103 $109 reversed $24 $-1 #
coedge $-1 $105 $110 $39 $65 forward $111 $-1 #
edge $-1 $112 -8.0711265646320101 $113 0.3719474295161902 $64 $114 forward 7 unknown #
loop $-1 $-1 $71 $40 #
plane-surface $-1 -14.381707842123461 -17.275730920937811 30.071348921500004 0 0.52991927123019833 0.84804809178421925 1 0 0 forward_v I I I I #
loop $-1 $-1 $115 $26 #
coedge $-1 $69 $69 $70 $116 reversed $41 $-1 #
coedge $-1 $70 $70 $69 $116 forward $43 $-1 #
coedge $-1 $71 $71 $44 $72 forward $66 $-1 #
edge $-1 $117 7.5243083115657809e-016 $117 6.2831853071796013 $71 $118 forward 7 unknown #
loop $-1 $-1 $78 $45 #
plane-surface $-1 -14.381707842123461 -17.275730920937811 30.071348921500004 0 0.52991927123019833 0.84804809178421925 1 0 0 forward_v I I I I #
loop $-1 $-1 $119 $29 #
coedge $-1 $76 $76 $77 $120 reversed $46 $-1 #
coedge $-1 $77 $77 $76 $120 forward $48 $-1 #
coedge $-1 $78 $78 $49 $79 forward $73 $-1 #
edge $-1 $121 7.5243083115657809e-016 $121 6.2831853071796013 $78 $122 forward 7 unknown #
face $-1 $123 $124 $12 $-1 $125 reversed single #
loop $-1 $-1 $126 $50 #
plane-surface $-1 -47.903073213904236 0 0 1 0 0 0 0 -1 forward_v I I I I #
coedge $-1 $127 $91 $128 $129 forward $51 $-1 #
coedge $-1 $130 $53 $127 $131 forward $33 $-1 #
coedge $-1 $53 $130 $132 $133 forward $33 $-1 #
coedge $-1 $94 $93 $53 $87 reversed $95 $-1 #
edge $-1 $134 -24.818022751362072 $135 24.818022751362072 $86 $136 forward 7 unknown #
coedge $-1 $55 $54 $137 $138 forward $21 $-1 #
coedge $-1 $139 $140 $54 $90 reversed $124 $-1 #
edge $-1 $97 -47.903073213904236 $141 47.903073213904236 $89 $142 forward 7 unknown #
coedge $-1 $83 $143 $55 $92 reversed $51 $-1 #
edge $-1 $144 -47.903073213904236 $96 47.903073213904236 $91 $145 forward 7 unknown #
coedge $-1 $86 $56 $143 $146 forward $95 $-1 #
coedge $-1 $56 $86 $139 $147 reversed $95 $-1 #
loop $-1 $-1 $93 $123 #
vertex $-1 $57 $148 #
vertex $-1 $57 $149 #
straight-curve $-1 47.903073213904236 0 9.0440701336547207 0 1 0 I I #
face $-1 $-1 $111 $13 $-1 $150 forward single #
loop $-1 $-1 $151 $58 #
plane-surface $-1 0 24.818022751362072 0 0 -1 0 0 0 -1 forward_v I I I I #
coedge $-1 $152 $153 $154 $155 reversed $59 $-1 #
coedge $-1 $156 $61 $63 $109 forward $37 $-1 #
coedge $-1 $61 $156 $152 $157 forward $37 $-1 #
coedge $-1 $154 $64 $61 $106 forward $111 $-1 #
edge $-1 $113 -19.970610844612459 $158 5.5889030024889959 $105 $159 forward 7 unknown #
coedge $-1 $160 $161 $62 $108 forward $100 $-1 #
edge $-1 $162 -51.891532428453772 $112 -46.615714156746513 $107 $163 forward 7 unknown #
edge $-1 $113 39.680154939507723 $162 49.636045502724137 $63 $164 forward 7 unknown #
coedge $-1 $64 $154 $160 $165 forward $111 $-1 #
loop $-1 $-1 $154 $99 #
vertex $-1 $108 $166 #
vertex $-1 $65 $167 #
straight-curve $-1 -27.161464765674189 16.746896186730062 9.0440701336547207 0 -1 0 I I #
coedge $-1 $115 $115 $-1 $168 reversed $68 $-1 #
edge $-1 $169 0 $169 6.2831853071796004 $69 $170 forward 7 unknown #
vertex $-1 $72 $171 #
ellipse-curve $-1 -19.858746523645198 20.596485754287968 6.4061609978010949 0 0.52991927123019833 0.84804809178421925 1 0 0 1 I I #
coedge $-1 $119 $119 $-1 $172 reversed $75 $-1 #
edge $-1 $173 0 $173 6.2831853071796004 $76 $174 forward 7 unknown #
vertex $-1 $79 $175 #
ellipse-curve $-1 -8.9046691606017205 20.596485754287968 6.4061609978010949 0 0.52991927123019833 0.84804809178421925 1 0 0 1 I I #
face $-1 $-1 $95 $12 $-1 $176 reversed single #
loop $-1 $-1 $139 $80 #
plane-surface $-1 0 24.818022751362072 0 0 -1 0 0 0 -1 forward_v I I I I #
coedge $-1 $177 $137 $140 $178 forward $81 $-1 #
coedge $-1 $143 $83 $84 $131 reversed $51 $-1 #
coedge $-1 $137 $177 $83 $129 reversed $81 $-1 #
edge $-1 $144 -9.0440701336547207 $179 9.0440701336547207 $128 $180 forward 7 unknown #
coedge $-1 $85 $84 $177 $181 forward $33 $-1 #
edge $-1 $135 -47.903073213904236 $179 47.903073213904236 $127 $182 forward 7 unknown #
coedge $-1 $140 $139 $85 $133 reversed $124 $-1 #
edge $-1 $183 -47.903073213904236 $134 47.903073213904236 $132 $184 forward 7 unknown #
vertex $-1 $87 $185 #
vertex $-1 $146 $186 #
straight-curve $-1 47.903073213904236 0 -9.0440701336547207 0 -1 0 I I #
coedge $-1 $126 $128 $88 $138 reversed $81 $-1 #
edge $-1 $141 -24.818022751362072 $144 24.818022751362072 $137 $187 forward 7 unknown #
coedge $-1 $132 $89 $94 $147 forward $124 $-1 #
coedge $-1 $89 $132 $126 $178 reversed $124 $-1 #
vertex $-1 $90 $188 #
straight-curve $-1 0 24.818022751362072 9.0440701336547207 -1 0 0 I I #
coedge $-1 $91 $127 $93 $146 reversed $51 $-1 #
vertex $-1 $138 $189 #
straight-curve $-1 0 -24.818022751362072 9.0440701336547207 1 0 0 I I #
edge $-1 $96 -9.0440701336547207 $135 9.0440701336547207 $93 $190 forward 7 unknown #
edge $-1 $97 -9.0440701336547207 $134 9.0440701336547207 $94 $191 forward 7 unknown #
point $-1 47.903073213904236 -24.818022751362072 9.0440701336547207 #
point $-1 47.903073213904236 24.818022751362072 9.0440701336547207 #
plane-surface $-1 0 0 9.0440701336547207 0 0 1 1 0 0 forward_v I I I I #
coedge $-1 $161 $160 $153 $192 forward $100 $-1 #
coedge $-1 $153 $102 $104 $157 reversed $59 $-1 #
coedge $-1 $102 $152 $151 $192 reversed $59 $-1 #
coedge $-1 $110 $105 $102 $155 forward $111 $-1 #
edge $-1 $158 -0.3719474295161902 $193 8.0711265646320101 $154 $194 forward 7 unknown #
coedge $-1 $104 $103 $161 $195 reversed $37 $-1 #
edge $-1 $196 -49.636045502724137 $158 -39.680154939507723 $152 $197 forward 7 unknown #
vertex $-1 $106 $198 #
straight-curve $-1 -7.1908539210617306 16.374948757213872 9.0440701336547189 1 0 0 I I #
coedge $-1 $151 $107 $110 $165 reversed $100 $-1 #
coedge $-1 $107 $151 $156 $195 forward $100 $-1 #
vertex $-1 $108 $199 #
straight-curve $-1 -27.161464765674189 24.818022751362072 55.659784290401234 0 0 1 I I #
straight-curve $-1 -27.161464765674189 -17.275730920937811 30.071348921500004 0 0.84804809178421925 -0.52991927123019833 I I #
edge $-1 $193 1.6019509185727348 $112 27.161464765674189 $160 $200 forward 7 unknown #
point $-1 -27.161464765674189 24.818022751362072 9.0440701336547207 #
point $-1 -27.161464765674189 16.374948757213872 9.0440701336547207 #
edge $-1 $201 1 $201 0 $115 $-1 forward 7 unknown #
vertex $-1 $116 $202 #
ellipse-curve $-1 -19.858746523645198 19.9972841515062 5.447238000618035 0 0.52991927123019833 0.84804809178421925 1 0 0 1 I I #
point $-1 -18.858746523645198 20.596485754287965 6.4061609978010878 #
edge $-1 $203 1 $203 0 $119 $-1 forward 7 unknown #
vertex $-1 $120 $204 #
ellipse-curve $-1 -8.9046691606017205 19.9972841515062 5.447238000618035 0 0.52991927123019833 0.84804809178421925 1 0 0 1 I I #
point $-1 -7.9046691606017205 20.596485754287965 6.4061609978010878 #
plane-surface $-1 47.903073213904236 0 0 -1 0 0 0 0 1 forward_v I I I I #
coedge $-1 $128 $126 $130 $181 reversed $81 $-1 #
edge $-1 $141 -9.0440701336547207 $183 9.0440701336547207 $140 $205 forward 7 unknown #
vertex $-1 $181 $206 #
straight-curve $-1 -47.903073213904236 -24.818022751362072 0 0 0 -1 I I #
edge $-1 $179 -24.818022751362072 $183 24.818022751362072 $177 $207 forward 7 unknown #
straight-curve $-1 0 -24.818022751362072 -9.0440701336547207 -1 0 0 I I #
vertex $-1 $133 $208 #
straight-curve $-1 0 24.818022751362072 -9.0440701336547207 1 0 0 I I #
point $-1 47.903073213904236 24.818022751362072 -9.0440701336547207 #
point $-1 47.903073213904236 -24.818022751362072 -9.0440701336547207 #
straight-curve $-1 -47.903073213904236 0 9.0440701336547207 0 -1 0 I I #
point $-1 -47.903073213904236 24.818022751362072 9.0440701336547207 #
point $-1 -47.903073213904236 -24.818022751362072 9.0440701336547207 #
straight-curve $-1 47.903073213904236 -24.818022751362072 0 0 0 -1 I I #
straight-curve $-1 47.903073213904236 24.818022751362072 0 0 0 -1 I I #
edge $-1 $193 46.615714156746513 $196 51.891532428453772 $151 $209 forward 7 unknown #
vertex $-1 $165 $210 #
straight-curve $-1 -1.6019509185727348 16.746896186730062 9.0440701336547207 0 1 0 I I #
edge $-1 $196 -5.5889030024889959 $162 19.970610844612459 $161 $211 forward 7 unknown #
vertex $-1 $195 $212 #
straight-curve $-1 -1.6019509185727348 -17.275730920937811 30.071348921500004 0 -0.84804809178421925 0.52991927123019833 I I #
point $-1 -1.6019509185727348 16.374948757213872 9.0440701336547207 #
point $-1 -27.161464765674189 24.818022751362072 3.7682518619474656 #
straight-curve $-1 0 24.818022751362072 9.0440701336547207 -1 0 0 I I #
vertex $-1 $168 $213 #
point $-1 -18.858746523645198 19.9972841515062 5.447238000618035 #
vertex $-1 $172 $214 #
point $-1 -7.9046691606017205 19.9972841515062 5.447238000618035 #
straight-curve $-1 -47.903073213904236 24.818022751362072 0 0 0 -1 I I #
point $-1 -47.903073213904236 -24.818022751362072 -9.0440701336547207 #
straight-curve $-1 -47.903073213904236 0 -9.0440701336547207 0 1 0 I I #
point $-1 -47.903073213904236 24.818022751362072 -9.0440701336547207 #
straight-curve $-1 -1.6019509185727348 24.818022751362072 55.659784290401234 0 0 -1 I I #
point $-1 -1.6019509185727348 24.818022751362072 9.0440701336547207 #
straight-curve $-1 -7.1908539210617306 24.818022751362076 3.7682518619474621 -1 0 0 I I #
point $-1 -1.6019509185727348 24.818022751362072 3.7682518619474656 #
point $-1 -19.858746523645198 19.467364880276001 4.5991899088338153 #
point $-1 -8.9046691606017205 19.467364880276001 4.5991899088338153 #
End-of-ACIS-data 