500 0 5 0           
7 Unknown 11 ACIS 5.0 NT 24 Fri Mar 26 17:40:35 1999 
-1 9.9999999999999995e-007 1e-010 
body $-1 $5 $-1 $6 #
body $-1 $7 $-1 $8 #
body $-1 $9 $-1 $10 #
body $-1 $11 $-1 $12 #
body $-1 $13 $-1 $14 #
lump $-1 $-1 $15 $0 #
transform $-1 1 0 0 0 1 0 0 0 1 60.122684408093505 24.210907948997281 6.8945708536908645 1 rotate no_reflect no_shear #
lump $-1 $-1 $16 $1 #
transform $-1 1 0 0 0 1 0 0 0 1 60.122684408093505 24.210907948997281 6.8945708536908645 1 rotate no_reflect no_shear #
lump $-1 $-1 $17 $2 #
transform $-1 1 0 0 0 1 0 0 0 1 60.122684408093505 24.210907948997281 6.8945708536908645 1 rotate no_reflect no_shear #
lump $-1 $-1 $18 $3 #
transform $-1 1 0 0 0 1 0 0 0 1 60.122684408093505 24.210907948997281 6.8945708536908645 1 rotate no_reflect no_shear #
lump $-1 $-1 $19 $4 #
transform $-1 1 0 0 0 1 0 0 0 1 60.122684408093505 24.210907948997281 6.8945708536908645 1 rotate no_reflect no_shear #
shell $-1 $-1 $-1 $20 $-1 $5 #
shell $-1 $-1 $-1 $21 $-1 $7 #
shell $-1 $-1 $-1 $22 $-1 $9 #
shell $-1 $-1 $-1 $23 $-1 $11 #
shell $-1 $-1 $-1 $24 $-1 $13 #
face $-1 $25 $26 $15 $-1 $27 forward single #
face $-1 $28 $29 $16 $-1 $30 reversed single #
face $-1 $31 $32 $17 $-1 $33 forward single #
face $-1 $34 $35 $18 $-1 $36 reversed single #
face $-1 $37 $38 $19 $-1 $39 forward single #
face $-1 $40 $41 $15 $-1 $42 reversed single #
loop $-1 $-1 $43 $20 #
plane-surface $-1 0 0 6.8945708536908645 0 0 1 1 0 0 forward_v I I I I #
face $-1 $44 $45 $16 $-1 $46 reversed single #
loop $-1 $-1 $47 $21 #
plane-surface $-1 36.470306233986321 49.091278828396334 130.61676989416156 1 0 0 0 -0.54463904215088732 -0.83867056331134215 forward_v I I I I #
face $-1 $48 $49 $17 $-1 $50 forward single #
loop $-1 $51 $52 $22 #
cone-surface $-1 48.296495321039913 20.955960959816323 4.2795396172323805 0 -0.54463904215088732 -0.83867056331134215 1 0 0 1 I I 0 1 1 forward I I I I #
face $-1 $53 $54 $18 $-1 $55 reversed single #
loop $-1 $-1 $56 $23 #
plane-surface $-1 48.296495321039913 -24.210907948997274 3.3981072636195506 0 -0.54463904215088732 0.83867056331134215 1 0 0 forward_v I I I I #
face $-1 $57 $58 $19 $-1 $59 forward single #
loop $-1 $60 $61 $24 #
cone-surface $-1 48.296495321039913 -20.955960959816323 4.2795396172323787 0 0.54463904215088732 -0.83867056331134215 1 0 0 1 I I 0 1 1 forward I I I I #
face $-1 $62 $63 $15 $-1 $64 reversed single #
loop $-1 $-1 $65 $25 #
plane-surface $-1 0 0 -6.8945708536908645 0 0 1 1 0 0 forward_v I I I I #
coedge $-1 $66 $67 $68 $69 forward $26 $-1 #
face $-1 $70 $71 $16 $-1 $72 forward single #
loop $-1 $-1 $73 $28 #
plane-surface $-1 48.296495321039913 -16.399043666731934 29.770518693509914 0 0.54463904215088732 0.83867056331134215 1 0 0 forward_v I I I I #
coedge $-1 $74 $75 $76 $77 reversed $29 $-1 #
face $-1 $-1 $78 $17 $-1 $79 forward single #
loop $-1 $80 $81 $31 #
cone-surface $-1 48.296495321039913 20.120735289215993 2.9934048941538771 0 -0.54463904215088732 -0.83867056331134215 0.5 0 0 1 I I -0.70710678118654746 0.70710678118654746 0.5 forward I I I I #
loop $-1 $-1 $82 $22 #
coedge $-1 $52 $52 $83 $84 reversed $32 $-1 #
face $-1 $85 $86 $18 $-1 $87 reversed single #
loop $-1 $-1 $88 $34 #
plane-surface $-1 36.470306233986321 -89.701230444125542 104.2443584642712 1 0 0 0 0.54463904215088732 -0.83867056331134215 forward_v I I I I #
coedge $-1 $89 $90 $91 $92 reversed $35 $-1 #
face $-1 $-1 $93 $19 $-1 $94 forward single #
loop $-1 $95 $96 $37 #
cone-surface $-1 48.296495321039913 -20.120735289215993 2.9934048941538753 0 0.54463904215088732 -0.83867056331134215 0.5 0 0 1 I I -0.70710678118654746 0.70710678118654746 0.5 forward I I I I #
loop $-1 $-1 $97 $24 #
coedge $-1 $61 $61 $98 $99 reversed $38 $-1 #
face $-1 $100 $101 $15 $-1 $102 reversed single #
loop $-1 $-1 $103 $40 #
plane-surface $-1 0 -24.210907948997281 0 0 1 0 0 0 1 forward_v I I I I #
coedge $-1 $104 $105 $106 $107 forward $41 $-1 #
coedge $-1 $108 $43 $109 $110 forward $26 $-1 #
coedge $-1 $43 $108 $111 $112 forward $26 $-1 #
coedge $-1 $113 $114 $43 $69 reversed $115 $-1 #
edge $-1 $116 -24.210907948997281 $117 24.210907948997281 $68 $118 forward 7 unknown #
face $-1 $119 $120 $16 $-1 $121 reversed single #
loop $-1 $-1 $76 $44 #
plane-surface $-1 0 0 6.8945708536908645 0 0 1 1 0 0 forward_v I I I I #
coedge $-1 $122 $123 $124 $125 reversed $45 $-1 #
coedge $-1 $75 $47 $126 $127 reversed $29 $-1 #
coedge $-1 $47 $74 $122 $128 reversed $29 $-1 #
coedge $-1 $124 $129 $47 $77 forward $71 $-1 #
edge $-1 $130 0.33473146520088548 $131 5.718813144513053 $76 $132 forward 7 unknown #
loop $-1 $-1 $83 $48 #
plane-surface $-1 48.296495321039913 -16.399043666731934 29.770518693509914 0 0.54463904215088732 0.83867056331134215 1 0 0 forward_v I I I I #
loop $-1 $-1 $133 $31 #
coedge $-1 $81 $81 $82 $134 reversed $49 $-1 #
coedge $-1 $82 $82 $81 $134 forward $51 $-1 #
coedge $-1 $83 $83 $52 $84 forward $78 $-1 #
edge $-1 $135 -8.1320024813685592e-016 $135 6.2831853071795996 $83 $136 forward 7 unknown #
face $-1 $137 $138 $18 $-1 $139 reversed single #
loop $-1 $-1 $140 $53 #
plane-surface $-1 0 -24.210907948997281 0 0 1 0 0 0 1 forward_v I I I I #
coedge $-1 $141 $142 $143 $144 reversed $54 $-1 #
coedge $-1 $145 $56 $146 $147 reversed $35 $-1 #
coedge $-1 $56 $145 $141 $148 forward $35 $-1 #
coedge $-1 $143 $149 $56 $92 forward $150 $-1 #
edge $-1 $151 -35.974436747573549 $152 -12.322058573466364 $91 $153 forward 7 unknown #
loop $-1 $-1 $98 $57 #
plane-surface $-1 48.296495321039913 -24.210907948997274 3.3981072636195506 0 -0.54463904215088732 0.83867056331134215 1 0 0 forward_v I I I I #
loop $-1 $-1 $154 $37 #
coedge $-1 $96 $96 $97 $155 reversed $58 $-1 #
coedge $-1 $97 $97 $96 $155 forward $60 $-1 #
coedge $-1 $98 $98 $61 $99 forward $93 $-1 #
edge $-1 $156 2.418683218822825e-015 $156 6.2831853071796031 $98 $157 forward 7 unknown #
face $-1 $158 $159 $15 $-1 $160 reversed single #
loop $-1 $-1 $161 $62 #
plane-surface $-1 -60.122684408093505 0 0 1 0 0 0 0 -1 forward_v I I I I #
coedge $-1 $162 $111 $163 $164 forward $63 $-1 #
coedge $-1 $165 $65 $162 $166 forward $41 $-1 #
coedge $-1 $65 $165 $167 $168 forward $41 $-1 #
coedge $-1 $114 $113 $65 $107 reversed $115 $-1 #
edge $-1 $169 -24.210907948997281 $170 24.210907948997281 $106 $171 forward 7 unknown #
coedge $-1 $67 $66 $172 $173 forward $26 $-1 #
coedge $-1 $174 $175 $66 $110 reversed $159 $-1 #
edge $-1 $117 -60.122684408093505 $176 60.122684408093505 $109 $177 forward 7 unknown #
coedge $-1 $103 $178 $67 $112 reversed $63 $-1 #
edge $-1 $179 -60.122684408093505 $116 60.122684408093505 $111 $180 forward 7 unknown #
coedge $-1 $106 $68 $178 $181 forward $115 $-1 #
coedge $-1 $68 $106 $174 $182 reversed $115 $-1 #
loop $-1 $-1 $113 $158 #
vertex $-1 $69 $183 #
vertex $-1 $69 $184 #
straight-curve $-1 60.122684408093505 0 6.8945708536908645 0 1 0 I I #
face $-1 $-1 $185 $16 $-1 $186 reversed single #
loop $-1 $-1 $126 $70 #
plane-surface $-1 0 24.210907948997281 0 0 -1 0 0 0 -1 forward_v I I I I #
coedge $-1 $187 $73 $75 $128 forward $45 $-1 #
coedge $-1 $73 $187 $188 $189 reversed $45 $-1 #
coedge $-1 $190 $76 $73 $125 forward $71 $-1 #
edge $-1 $131 12.322058573466364 $191 35.974436747573549 $124 $192 forward 7 unknown #
coedge $-1 $193 $194 $74 $127 forward $120 $-1 #
edge $-1 $195 -61.910277683461246 $130 -58.413814093389917 $126 $196 forward 7 unknown #
edge $-1 $131 42.002034502479667 $195 48.421815897994577 $75 $197 forward 7 unknown #
coedge $-1 $76 $190 $193 $198 forward $71 $-1 #
vertex $-1 $127 $199 #
vertex $-1 $77 $200 #
straight-curve $-1 36.470306233986321 24.545639414198167 6.8945708536908654 0 -1 0 I I #
coedge $-1 $133 $133 $-1 $201 reversed $80 $-1 #
edge $-1 $202 0 $202 6.2831853071796004 $81 $203 forward 7 unknown #
vertex $-1 $84 $204 #
ellipse-curve $-1 48.296495321039913 21.518867109341201 5.1463390586551991 0 0.54463904215088732 0.83867056331134215 1 0 0 1 I I #
face $-1 $-1 $150 $18 $-1 $205 forward single #
loop $-1 $-1 $146 $85 #
plane-surface $-1 60.122684408093505 0 0 -1 0 0 0 0 1 forward_v I I I I #
coedge $-1 $206 $207 $142 $208 forward $86 $-1 #
coedge $-1 $142 $88 $90 $148 reversed $54 $-1 #
coedge $-1 $88 $141 $140 $208 reversed $54 $-1 #
coedge $-1 $209 $91 $88 $144 forward $150 $-1 #
edge $-1 $152 -26.02378895237764 $210 -20.63970727306549 $143 $211 forward 7 unknown #
coedge $-1 $90 $89 $206 $212 reversed $35 $-1 #
coedge $-1 $213 $214 $89 $147 forward $138 $-1 #
edge $-1 $215 -9.2271169613404442 $151 -2.8073355658255519 $146 $216 forward 7 unknown #
edge $-1 $217 -8.3777959833898778e-015 $152 6.4197813955148852 $141 $218 forward 7 unknown #
coedge $-1 $91 $209 $213 $219 forward $150 $-1 #
loop $-1 $-1 $143 $137 #
vertex $-1 $147 $220 #
vertex $-1 $92 $221 #
straight-curve $-1 24.148247660519957 -18.826826269685135 6.8945708536908636 -1 0 0 I I #
coedge $-1 $154 $154 $-1 $222 reversed $95 $-1 #
edge $-1 $223 0 $223 6.2831853071796004 $96 $224 forward 7 unknown #
vertex $-1 $99 $225 #
ellipse-curve $-1 48.296495321039913 -21.518867109341208 5.1463390586552054 0 -0.54463904215088732 0.83867056331134215 1 0 0 1 I I #
face $-1 $-1 $115 $15 $-1 $226 reversed single #
loop $-1 $-1 $174 $100 #
plane-surface $-1 0 24.210907948997281 0 0 -1 0 0 0 -1 forward_v I I I I #
coedge $-1 $227 $172 $175 $228 forward $101 $-1 #
coedge $-1 $178 $103 $104 $166 reversed $63 $-1 #
coedge $-1 $172 $227 $103 $164 reversed $101 $-1 #
edge $-1 $179 -6.8945708536908645 $229 6.8945708536908645 $163 $230 forward 7 unknown #
coedge $-1 $105 $104 $227 $231 forward $41 $-1 #
edge $-1 $170 -60.122684408093505 $229 60.122684408093505 $162 $232 forward 7 unknown #
coedge $-1 $175 $174 $105 $168 reversed $159 $-1 #
edge $-1 $233 -60.122684408093505 $169 60.122684408093505 $167 $234 forward 7 unknown #
vertex $-1 $107 $235 #
vertex $-1 $181 $236 #
straight-curve $-1 60.122684408093505 0 -6.8945708536908645 0 -1 0 I I #
coedge $-1 $161 $163 $108 $173 reversed $101 $-1 #
edge $-1 $176 -24.210907948997281 $179 24.210907948997281 $172 $237 forward 7 unknown #
coedge $-1 $167 $109 $114 $182 forward $159 $-1 #
coedge $-1 $109 $167 $161 $228 reversed $159 $-1 #
vertex $-1 $110 $238 #
straight-curve $-1 0 24.210907948997281 6.8945708536908645 -1 0 0 I I #
coedge $-1 $111 $162 $113 $181 reversed $63 $-1 #
vertex $-1 $173 $239 #
straight-curve $-1 0 -24.210907948997281 6.8945708536908645 1 0 0 I I #
edge $-1 $116 -6.8945708536908645 $170 6.8945708536908645 $113 $240 forward 7 unknown #
edge $-1 $117 -6.8945708536908645 $169 6.8945708536908645 $114 $241 forward 7 unknown #
point $-1 60.122684408093505 -24.210907948997281 6.8945708536908645 #
point $-1 60.122684408093505 24.210907948997281 6.8945708536908645 #
loop $-1 $-1 $188 $119 #
plane-surface $-1 60.122684408093505 0 0 -1 0 0 0 0 1 forward_v I I I I #
coedge $-1 $123 $122 $194 $242 reversed $45 $-1 #
coedge $-1 $243 $244 $123 $189 forward $185 $-1 #
edge $-1 $191 27.018243514822817 $245 33.438024910337731 $188 $246 forward 7 unknown #
coedge $-1 $129 $124 $244 $247 forward $71 $-1 #
vertex $-1 $247 $248 #
straight-curve $-1 24.148247660519957 18.826826269685121 6.8945708536908654 1 0 0 I I #
coedge $-1 $249 $126 $129 $198 reversed $120 $-1 #
coedge $-1 $126 $249 $187 $242 forward $120 $-1 #
vertex $-1 $127 $250 #
straight-curve $-1 36.470306233986321 24.210907948997281 65.308384947080782 0 0 1 I I #
straight-curve $-1 36.470306233986321 -16.399043666731934 29.770518693509914 0 0.83867056331134215 -0.54463904215088732 I I #
edge $-1 $251 -60.122684408093505 $130 -36.470306233986321 $193 $252 forward 7 unknown #
point $-1 36.470306233986321 24.210907948997281 6.8945708536908645 #
point $-1 36.470306233986321 18.826826269685114 6.8945708536908654 #
edge $-1 $253 1 $253 0 $133 $-1 forward 7 unknown #
vertex $-1 $134 $254 #
ellipse-curve $-1 48.296495321039913 20.393054810291439 3.4127401758095481 0 0.54463904215088732 0.83867056331134215 1 0 0 1 I I #
point $-1 49.296495321039913 21.518867109341208 5.1463390586552116 #
plane-surface $-1 0 0 6.8945708536908645 0 0 1 1 0 0 forward_v I I I I #
coedge $-1 $255 $140 $145 $212 forward $86 $-1 #
coedge $-1 $140 $255 $209 $256 reversed $86 $-1 #
edge $-1 $210 45.227608378444735 $217 48.724071968516057 $140 $257 forward 7 unknown #
coedge $-1 $149 $143 $207 $256 forward $150 $-1 #
vertex $-1 $256 $258 #
straight-curve $-1 36.470306233986321 -44.850615222062771 6.8945708536908654 0 -1 0 I I #
edge $-1 $217 12.322058573466364 $215 35.974436747573549 $206 $259 forward 7 unknown #
coedge $-1 $214 $146 $149 $219 reversed $138 $-1 #
coedge $-1 $146 $213 $255 $260 forward $138 $-1 #
vertex $-1 $147 $261 #
straight-curve $-1 60.122684408093505 -16.47239656929025 8.4235554072582115 0 0.83867056331134215 0.54463904215088732 I I #
vertex $-1 $212 $262 #
straight-curve $-1 36.470306233986321 -24.210907948997274 3.3981072636195506 0 0.83867056331134215 0.54463904215088732 I I #
edge $-1 $263 -24.210907948997281 $151 -18.826826269685132 $213 $264 forward 7 unknown #
point $-1 60.122684408093505 -18.826826269685132 6.8945708536908645 #
point $-1 36.470306233986321 -18.826826269685132 6.8945708536908645 #
edge $-1 $265 1 $265 0 $154 $-1 forward 7 unknown #
vertex $-1 $155 $266 #
ellipse-curve $-1 48.296495321039913 -20.393054810291439 3.4127401758095464 0 -0.54463904215088732 0.83867056331134215 1 0 0 1 I I #
point $-1 49.296495321039913 -21.518867109341208 5.1463390586552098 #
plane-surface $-1 60.122684408093505 0 0 -1 0 0 0 0 1 forward_v I I I I #
coedge $-1 $163 $161 $165 $231 reversed $101 $-1 #
edge $-1 $176 -6.8945708536908645 $233 6.8945708536908645 $175 $267 forward 7 unknown #
vertex $-1 $231 $268 #
straight-curve $-1 -60.122684408093505 -24.210907948997281 0 0 0 -1 I I #
edge $-1 $229 -24.210907948997281 $233 24.210907948997281 $227 $269 forward 7 unknown #
straight-curve $-1 0 -24.210907948997281 -6.8945708536908645 -1 0 0 I I #
vertex $-1 $168 $270 #
straight-curve $-1 0 24.210907948997281 -6.8945708536908645 1 0 0 I I #
point $-1 60.122684408093505 24.210907948997281 -6.8945708536908645 #
point $-1 60.122684408093505 -24.210907948997281 -6.8945708536908645 #
straight-curve $-1 -60.122684408093505 0 6.8945708536908645 0 -1 0 I I #
point $-1 -60.122684408093505 24.210907948997281 6.8945708536908645 #
point $-1 -60.122684408093505 -24.210907948997281 6.8945708536908645 #
straight-curve $-1 60.122684408093505 -24.210907948997281 0 0 0 -1 I I #
straight-curve $-1 60.122684408093505 24.210907948997281 0 0 0 -1 I I #
edge $-1 $245 -35.974436747573549 $195 -12.322058573466364 $194 $271 forward 7 unknown #
coedge $-1 $244 $188 $249 $272 reversed $185 $-1 #
coedge $-1 $188 $243 $190 $247 reversed $185 $-1 #
vertex $-1 $189 $273 #
straight-curve $-1 60.122684408093505 -3.8325792385743549 21.609761122203391 0 0.83867056331134215 -0.54463904215088732 I I #
edge $-1 $191 18.826826269685114 $251 24.210907948997281 $244 $274 forward 7 unknown #
point $-1 60.122684408093505 18.826826269685114 6.8945708536908654 #
coedge $-1 $194 $193 $243 $272 forward $120 $-1 #
point $-1 36.470306233986321 24.210907948997281 3.39810726361954 #
vertex $-1 $247 $275 #
straight-curve $-1 0 24.210907948997281 6.8945708536908645 -1 0 0 I I #
vertex $-1 $201 $276 #
point $-1 49.296495321039913 20.393054810291439 3.4127401758095481 #
coedge $-1 $207 $206 $214 $260 reversed $86 $-1 #
edge $-1 $210 36.470306233986321 $263 60.122684408093505 $207 $277 forward 7 unknown #
straight-curve $-1 36.470306233986321 -24.210907948997281 52.122179232135601 0 0 -1 I I #
point $-1 36.470306233986321 -24.210907948997281 6.8945708536908645 #
straight-curve $-1 24.148247660519957 -24.210907948997281 3.3981072636195466 1 0 0 I I #
edge $-1 $263 -6.8945708536908645 $215 -3.3981072636195462 $214 $278 forward 7 unknown #
point $-1 60.122684408093505 -24.210907948997281 3.3981072636195462 #
point $-1 36.470306233986321 -24.210907948997281 3.3981072636195462 #
vertex $-1 $219 $279 #
straight-curve $-1 60.122684408093505 0 6.8945708536908645 0 1 0 I I #
vertex $-1 $222 $280 #
point $-1 49.296495321039913 -20.393054810291439 3.4127401758095464 #
straight-curve $-1 -60.122684408093505 24.210907948997281 0 0 0 -1 I I #
point $-1 -60.122684408093505 -24.210907948997281 -6.8945708536908645 #
straight-curve $-1 -60.122684408093505 0 -6.8945708536908645 0 1 0 I I #
point $-1 -60.122684408093505 24.210907948997281 -6.8945708536908645 #
straight-curve $-1 24.148247660519957 24.210907948997278 3.39810726361954 -1 0 0 I I #
edge $-1 $251 -6.8945708536908645 $245 -3.39810726361954 $243 $281 forward 7 unknown #
point $-1 60.122684408093505 24.210907948997281 3.39810726361954 #
straight-curve $-1 60.122684408093505 0 6.8945708536908645 0 1 0 I I #
point $-1 60.122684408093505 24.210907948997281 6.8945708536908645 #
point $-1 48.296495321039913 19.848415768140548 2.5740696124982061 #
straight-curve $-1 0 -24.210907948997281 6.8945708536908645 1 0 0 I I #
straight-curve $-1 60.122684408093505 -24.210907948997281 0 0 0 -1 I I #
point $-1 60.122684408093505 -24.210907948997281 6.8945708536908645 #
point $-1 48.296495321039913 -19.848415768140548 2.5740696124982043 #
straight-curve $-1 60.122684408093505 24.210907948997281 0 0 0 -1 I I #
End-of-ACIS-data 