500 0 11 0           
7 Unknown 11 ACIS 5.0 NT 24 Fri Mar 26 15:48:34 1999 
-1 9.9999999999999995e-007 1e-010 
body $-1 $11 $-1 $12 #
body $-1 $13 $-1 $14 #
body $-1 $15 $-1 $16 #
body $-1 $17 $-1 $18 #
body $-1 $19 $-1 $20 #
body $-1 $21 $-1 $22 #
body $-1 $23 $-1 $24 #
body $-1 $25 $-1 $26 #
body $-1 $27 $-1 $28 #
body $-1 $29 $-1 $30 #
body $-1 $31 $-1 $32 #
lump $-1 $-1 $33 $0 #
transform $-1 1 0 0 0 1 0 0 0 1 78.359324930570381 39.978632479607633 15.072116477258735 1 rotate no_reflect no_shear #
lump $-1 $-1 $34 $1 #
transform $-1 1 0 0 0 1 0 0 0 1 78.359324930570381 39.978632479607633 15.072116477258735 1 rotate no_reflect no_shear #
lump $-1 $-1 $35 $2 #
transform $-1 1 0 0 0 1 0 0 0 1 78.359324930570381 39.978632479607633 15.072116477258735 1 rotate no_reflect no_shear #
lump $-1 $-1 $36 $3 #
transform $-1 1 0 0 0 1 0 0 0 1 78.359324930570381 39.978632479607633 15.072116477258735 1 rotate no_reflect no_shear #
lump $-1 $-1 $37 $4 #
transform $-1 1 0 0 0 1 0 0 0 1 78.359324930570381 39.978632479607633 15.072116477258735 1 rotate no_reflect no_shear #
lump $-1 $-1 $38 $5 #
transform $-1 1 0 0 0 1 0 0 0 1 78.359324930570381 39.978632479607633 15.072116477258735 1 rotate no_reflect no_shear #
lump $-1 $-1 $39 $6 #
transform $-1 1 0 0 0 1 0 0 0 1 78.359324930570381 39.978632479607633 15.072116477258735 1 rotate no_reflect no_shear #
lump $-1 $-1 $40 $7 #
transform $-1 1 0 0 0 1 0 0 0 1 78.359324930570381 39.978632479607633 15.072116477258735 1 rotate no_reflect no_shear #
lump $-1 $-1 $41 $8 #
transform $-1 1 0 0 0 1 0 0 0 1 78.359324930570381 39.978632479607633 15.072116477258735 1 rotate no_reflect no_shear #
lump $-1 $-1 $42 $9 #
transform $-1 1 0 0 0 1 0 0 0 1 78.359324930570381 39.978632479607633 15.072116477258735 1 rotate no_reflect no_shear #
lump $-1 $-1 $43 $10 #
transform $-1 1 0 0 0 1 0 0 0 1 78.359324930570381 39.978632479607633 15.072116477258735 1 rotate no_reflect no_shear #
shell $-1 $-1 $-1 $44 $-1 $11 #
shell $-1 $-1 $-1 $45 $-1 $13 #
shell $-1 $-1 $-1 $46 $-1 $15 #
shell $-1 $-1 $-1 $47 $-1 $17 #
shell $-1 $-1 $-1 $48 $-1 $19 #
shell $-1 $-1 $-1 $49 $-1 $21 #
shell $-1 $-1 $-1 $50 $-1 $23 #
shell $-1 $-1 $-1 $51 $-1 $25 #
shell $-1 $-1 $-1 $52 $-1 $27 #
shell $-1 $-1 $-1 $53 $-1 $29 #
shell $-1 $-1 $-1 $54 $-1 $31 #
face $-1 $55 $56 $33 $-1 $57 forward single #
face $-1 $58 $59 $34 $-1 $60 reversed single #
face $-1 $61 $62 $35 $-1 $63 reversed single #
face $-1 $64 $65 $36 $-1 $66 reversed single #
face $-1 $67 $68 $37 $-1 $69 forward single #
face $-1 $70 $71 $38 $-1 $72 reversed single #
face $-1 $73 $74 $39 $-1 $75 forward single #
face $-1 $76 $77 $40 $-1 $78 reversed single #
face $-1 $79 $80 $41 $-1 $81 forward single #
face $-1 $82 $83 $42 $-1 $84 forward single #
face $-1 $85 $86 $43 $-1 $87 forward single #
face $-1 $88 $89 $33 $-1 $90 reversed single #
loop $-1 $-1 $91 $44 #
plane-surface $-1 0 0 15.072116477258735 0 0 1 1 0 0 forward_v I I I I #
face $-1 $92 $93 $34 $-1 $94 reversed single #
loop $-1 $-1 $95 $45 #
plane-surface $-1 0 -32.271954405018015 9.8361808755669067 0 0 1 1 0 0 forward_v I I I I #
face $-1 $96 $97 $35 $-1 $98 reversed single #
loop $-1 $-1 $99 $46 #
plane-surface $-1 0 32.271954405018015 9.8361808755669067 0 0 1 1 0 0 forward_v I I I I #
face $-1 $100 $101 $36 $-1 $102 reversed single #
loop $-1 $-1 $103 $47 #
plane-surface $-1 -176.98556817068368 -20.030924665454528 125.65949580644627 0 1 0 -0.62932039886446345 0 0.77714595512881146 forward_v I I I I #
face $-1 $104 $105 $37 $-1 $106 forward single #
loop $-1 $107 $108 $48 #
cone-surface $-1 -69.272230665789607 -14.859889418263137 6.7918718756393055 0.62932039886446345 0 -0.77714595512881146 1.9428648878220287 0 1.5733009971611587 1 I I 0 1 2.5 forward I I I I #
face $-1 $109 $110 $38 $-1 $111 reversed single #
loop $-1 $-1 $112 $49 #
plane-surface $-1 -176.98556817068368 9.6888541710717515 125.65949580644627 0 1 0 -0.62932039886446345 0 0.77714595512881146 forward_v I I I I #
face $-1 $113 $114 $39 $-1 $115 forward single #
loop $-1 $116 $117 $50 #
cone-surface $-1 -69.272230665789607 14.859889418263144 6.7918718756393055 0.62932039886446345 0 -0.77714595512881146 1.9428648878220287 0 1.5733009971611587 1 I I 0 1 2.5 forward I I I I #
face $-1 $118 $119 $40 $-1 $120 reversed single #
loop $-1 $-1 $121 $51 #
plane-surface $-1 116.84560574064909 9.0239956632873906 222.52586487908769 0 -1 0 -0.81915205242281985 0 -0.57357642473473569 forward_v I I I I #
face $-1 $122 $123 $41 $-1 $124 forward single #
loop $-1 $125 $126 $52 #
cone-surface $-1 73.829707748926239 2.2919751230312144 9.144756964113693 -0.81915205242281985 0 -0.57357642473473569 0.28678821236736785 0 -0.40957602621140993 1 I I 0 1 0.5 forward I I I I #
face $-1 $127 $128 $42 $-1 $129 forward single #
loop $-1 $130 $131 $53 #
cone-surface $-1 73.829707748926239 4.8164828256272756 9.144756964113693 -0.81915205242281985 0 -0.57357642473473569 0.28678821236736785 0 -0.40957602621140993 1 I I 0 1 0.5 forward I I I I #
face $-1 $132 $133 $43 $-1 $134 forward single #
loop $-1 $135 $136 $54 #
cone-surface $-1 73.829707748926239 7.3409905282233368 9.144756964113693 -0.81915205242281985 0 -0.57357642473473569 0.28678821236736785 0 -0.40957602621140993 1 I I 0 1 0.5 forward I I I I #
face $-1 $137 $138 $33 $-1 $139 reversed single #
loop $-1 $-1 $140 $55 #
plane-surface $-1 0 0 -15.072116477258735 0 0 1 1 0 0 forward_v I I I I #
coedge $-1 $141 $142 $143 $144 forward $56 $-1 #
face $-1 $145 $146 $34 $-1 $147 reversed single #
loop $-1 $-1 $148 $58 #
plane-surface $-1 0 -24.565276330428393 12.454148676412821 0 -1 0 0 0 -1 forward_v I I I I #
coedge $-1 $149 $150 $151 $152 reversed $59 $-1 #
face $-1 $153 $154 $35 $-1 $155 forward single #
loop $-1 $-1 $156 $61 #
plane-surface $-1 0 24.565276330428397 12.454148676412821 0 1 0 0 0 1 forward_v I I I I #
coedge $-1 $157 $158 $159 $160 reversed $62 $-1 #
face $-1 $161 $162 $36 $-1 $163 reversed single #
loop $-1 $-1 $164 $64 #
plane-surface $-1 -78.359324930570381 -14.859889418263137 3.8662309736122609 -0.62932039886446345 0 0.77714595512881146 0.77714595512881146 0 0.62932039886446345 forward_v I I I I #
coedge $-1 $165 $166 $167 $168 reversed $65 $-1 #
face $-1 $-1 $169 $37 $-1 $170 forward single #
loop $-1 $171 $172 $67 #
cone-surface $-1 -66.317543832624949 -14.859889418263137 3.1431375819320948 0.62932039886446345 0 -0.77714595512881146 0.97143244391101435 0 0.78665049858057934 1 I I -0.70710678118654746 0.70710678118654746 1.25 forward I I I I #
loop $-1 $-1 $173 $48 #
coedge $-1 $108 $108 $174 $175 reversed $68 $-1 #
face $-1 $176 $177 $38 $-1 $178 reversed single #
loop $-1 $-1 $179 $70 #
plane-surface $-1 -78.359324930570381 14.859889418263144 3.8662309736122609 -0.62932039886446345 0 0.77714595512881146 0.77714595512881146 0 0.62932039886446345 forward_v I I I I #
coedge $-1 $180 $181 $182 $183 reversed $71 $-1 #
face $-1 $-1 $184 $39 $-1 $185 forward single #
loop $-1 $186 $187 $73 #
cone-surface $-1 -66.317543832624949 14.859889418263144 3.1431375819320948 0.62932039886446345 0 -0.77714595512881146 0.97143244391101435 0 0.78665049858057934 1 I I -0.70710678118654746 0.70710678118654746 1.25 forward I I I I #
loop $-1 $-1 $188 $50 #
coedge $-1 $117 $117 $189 $190 reversed $74 $-1 #
face $-1 $191 $192 $40 $-1 $193 reversed single #
loop $-1 $-1 $194 $76 #
plane-surface $-1 -11.530797946037637 4.8164828256272827 132.63574200247967 0.81915205242281985 0 0.57357642473473569 0.57357642473473569 0 -0.81915205242281985 forward_v I I I I #
coedge $-1 $195 $196 $197 $198 reversed $77 $-1 #
face $-1 $-1 $199 $41 $-1 $200 forward single #
loop $-1 $201 $202 $79 #
cone-surface $-1 72.88089682874346 2.2919751230312144 8.4803924255178593 -0.81915205242281985 0 -0.57357642473473569 0.14339410618368392 0 -0.20478801310570496 1 I I -0.70710678118655002 0.70710678118654502 0.25 forward I I I I #
loop $-1 $-1 $203 $52 #
coedge $-1 $126 $126 $204 $205 reversed $80 $-1 #
face $-1 $-1 $206 $42 $-1 $207 forward single #
loop $-1 $208 $209 $82 #
cone-surface $-1 72.88089682874346 4.8164828256272756 8.4803924255178593 -0.81915205242281985 0 -0.57357642473473569 0.14339410618368392 0 -0.20478801310570496 1 I I -0.70710678118655002 0.70710678118654502 0.25 forward I I I I #
loop $-1 $-1 $210 $53 #
coedge $-1 $131 $131 $211 $212 reversed $83 $-1 #
face $-1 $-1 $213 $43 $-1 $214 forward single #
loop $-1 $215 $216 $85 #
cone-surface $-1 72.88089682874346 7.3409905282233368 8.4803924255178593 -0.81915205242281985 0 -0.57357642473473569 0.14339410618368392 0 -0.20478801310570496 1 I I -0.70710678118655002 0.70710678118654502 0.25 forward I I I I #
loop $-1 $-1 $217 $54 #
coedge $-1 $136 $136 $218 $219 reversed $86 $-1 #
face $-1 $220 $221 $33 $-1 $222 reversed single #
loop $-1 $-1 $223 $88 #
plane-surface $-1 0 -39.978632479607633 0 0 1 0 0 0 1 forward_v I I I I #
coedge $-1 $224 $225 $226 $227 forward $89 $-1 #
coedge $-1 $228 $91 $229 $230 forward $56 $-1 #
coedge $-1 $91 $228 $231 $232 forward $56 $-1 #
coedge $-1 $233 $234 $91 $144 reversed $235 $-1 #
edge $-1 $236 -39.978632479607633 $237 39.978632479607633 $143 $238 forward 7 unknown #
face $-1 $239 $240 $34 $-1 $241 reversed single #
loop $-1 $-1 $242 $92 #
plane-surface $-1 -78.359324930570381 0 0 1 0 0 0 0 -1 forward_v I I I I #
coedge $-1 $243 $244 $245 $246 reversed $93 $-1 #
coedge $-1 $247 $95 $248 $249 reversed $59 $-1 #
coedge $-1 $95 $247 $243 $250 forward $59 $-1 #
coedge $-1 $245 $251 $95 $152 forward $252 $-1 #
edge $-1 $253 -23.842655277098626 $254 -8.4292991279193856 $151 $255 forward 7 unknown #
face $-1 $256 $257 $35 $-1 $258 reversed single #
loop $-1 $-1 $259 $96 #
plane-surface $-1 0 0 15.072116477258735 0 0 1 1 0 0 forward_v I I I I #
coedge $-1 $260 $261 $262 $263 reversed $97 $-1 #
coedge $-1 $264 $99 $260 $265 forward $62 $-1 #
coedge $-1 $99 $264 $266 $267 reversed $62 $-1 #
coedge $-1 $268 $269 $99 $160 forward $257 $-1 #
edge $-1 $270 8.4292991279193892 $271 23.842655277098626 $159 $272 forward 7 unknown #
face $-1 $273 $274 $36 $-1 $275 reversed single #
loop $-1 $-1 $276 $100 #
plane-surface $-1 -176.98556817068368 -9.6888541710717444 125.65949580644627 0 -1 0 0.62932039886446345 0 -0.77714595512881146 forward_v I I I I #
coedge $-1 $277 $278 $279 $280 reversed $101 $-1 #
coedge $-1 $166 $103 $281 $282 reversed $65 $-1 #
coedge $-1 $103 $165 $277 $283 reversed $65 $-1 #
coedge $-1 $279 $284 $103 $168 forward $285 $-1 #
edge $-1 $286 10.133459154771458 $287 23.971575015164873 $167 $288 forward 7 unknown #
loop $-1 $-1 $174 $104 #
plane-surface $-1 -78.359324930570381 -14.859889418263137 3.8662309736122609 -0.62932039886446345 0 0.77714595512881146 0.77714595512881146 0 0.62932039886446345 forward_v I I I I #
loop $-1 $-1 $289 $67 #
coedge $-1 $172 $172 $173 $290 reversed $105 $-1 #
coedge $-1 $173 $173 $172 $290 forward $107 $-1 #
coedge $-1 $174 $174 $108 $175 forward $169 $-1 #
edge $-1 $291 0 $291 6.2831853071796004 $174 $292 forward 7 unknown #
face $-1 $293 $294 $38 $-1 $295 forward single #
loop $-1 $-1 $296 $109 #
plane-surface $-1 -176.98556817068368 20.030924665454535 125.65949580644627 0 -1 0 0.62932039886446345 0 -0.77714595512881146 forward_v I I I I #
coedge $-1 $297 $298 $299 $300 reversed $110 $-1 #
coedge $-1 $181 $112 $301 $302 reversed $71 $-1 #
coedge $-1 $112 $180 $297 $303 reversed $71 $-1 #
coedge $-1 $299 $304 $112 $183 forward $294 $-1 #
edge $-1 $305 10.133459154771458 $306 23.971575015164873 $182 $307 forward 7 unknown #
loop $-1 $-1 $189 $113 #
plane-surface $-1 -78.359324930570381 14.859889418263144 3.8662309736122609 -0.62932039886446345 0 0.77714595512881146 0.77714595512881146 0 0.62932039886446345 forward_v I I I I #
loop $-1 $-1 $308 $73 #
coedge $-1 $187 $187 $188 $309 reversed $114 $-1 #
coedge $-1 $188 $188 $187 $309 forward $116 $-1 #
coedge $-1 $189 $189 $117 $190 forward $184 $-1 #
edge $-1 $310 0 $310 6.2831853071796004 $189 $311 forward 7 unknown #
face $-1 $312 $313 $40 $-1 $314 forward single #
loop $-1 $-1 $315 $118 #
plane-surface $-1 116.84560574064909 0.60896998796717483 222.52586487908769 0 1 0 0.81915205242281985 0 0.57357642473473569 forward_v I I I I #
coedge $-1 $316 $317 $318 $319 reversed $119 $-1 #
coedge $-1 $196 $121 $320 $321 reversed $77 $-1 #
coedge $-1 $121 $195 $316 $322 reversed $77 $-1 #
coedge $-1 $318 $323 $121 $198 forward $313 $-1 #
edge $-1 $324 -19.936522060245835 $325 -12.365333511111686 $197 $326 forward 7 unknown #
loop $-1 $-1 $204 $122 #
plane-surface $-1 -11.530797946037637 4.8164828256272827 132.63574200247967 0.81915205242281985 0 0.57357642473473569 0.57357642473473569 0 -0.81915205242281985 forward_v I I I I #
loop $-1 $-1 $327 $79 #
coedge $-1 $202 $202 $203 $328 reversed $123 $-1 #
coedge $-1 $203 $203 $202 $328 forward $125 $-1 #
coedge $-1 $204 $204 $126 $205 forward $199 $-1 #
edge $-1 $329 0 $329 6.2831853071796004 $204 $330 forward 7 unknown #
loop $-1 $-1 $211 $127 #
plane-surface $-1 -11.530797946037637 4.8164828256272827 132.63574200247967 0.81915205242281985 0 0.57357642473473569 0.57357642473473569 0 -0.81915205242281985 forward_v I I I I #
loop $-1 $-1 $331 $82 #
coedge $-1 $209 $209 $210 $332 reversed $128 $-1 #
coedge $-1 $210 $210 $209 $332 forward $130 $-1 #
coedge $-1 $211 $211 $131 $212 forward $206 $-1 #
edge $-1 $333 0 $333 6.2831853071796004 $211 $334 forward 7 unknown #
loop $-1 $-1 $218 $132 #
plane-surface $-1 -11.530797946037637 4.8164828256272827 132.63574200247967 0.81915205242281985 0 0.57357642473473569 0.57357642473473569 0 -0.81915205242281985 forward_v I I I I #
loop $-1 $-1 $335 $85 #
coedge $-1 $216 $216 $217 $336 reversed $133 $-1 #
coedge $-1 $217 $217 $216 $336 forward $135 $-1 #
coedge $-1 $218 $218 $136 $219 forward $213 $-1 #
edge $-1 $337 0 $337 6.2831853071796004 $218 $338 forward 7 unknown #
face $-1 $339 $340 $33 $-1 $341 reversed single #
loop $-1 $-1 $342 $137 #
plane-surface $-1 -78.359324930570381 0 0 1 0 0 0 0 -1 forward_v I I I I #
coedge $-1 $343 $231 $344 $345 forward $138 $-1 #
coedge $-1 $346 $140 $343 $347 forward $89 $-1 #
coedge $-1 $140 $346 $348 $349 forward $89 $-1 #
coedge $-1 $234 $233 $140 $227 reversed $235 $-1 #
edge $-1 $350 -39.978632479607633 $351 39.978632479607633 $226 $352 forward 7 unknown #
coedge $-1 $142 $141 $353 $354 forward $56 $-1 #
coedge $-1 $355 $356 $141 $230 reversed $340 $-1 #
edge $-1 $237 -78.359324930570381 $357 78.359324930570381 $229 $358 forward 7 unknown #
coedge $-1 $223 $359 $142 $232 reversed $138 $-1 #
edge $-1 $360 -78.359324930570381 $236 78.359324930570381 $231 $361 forward 7 unknown #
coedge $-1 $226 $143 $359 $362 forward $235 $-1 #
coedge $-1 $143 $226 $355 $363 reversed $235 $-1 #
loop $-1 $-1 $233 $339 #
vertex $-1 $144 $364 #
vertex $-1 $144 $365 #
straight-curve $-1 78.359324930570381 0 15.072116477258735 0 1 0 I I #
face $-1 $366 $367 $34 $-1 $368 forward single #
loop $-1 $-1 $248 $145 #
plane-surface $-1 0 -39.978632479607633 0 0 1 0 0 0 1 forward_v I I I I #
coedge $-1 $369 $370 $371 $372 forward $146 $-1 #
coedge $-1 $371 $148 $150 $250 reversed $93 $-1 #
coedge $-1 $148 $371 $373 $374 reversed $93 $-1 #
coedge $-1 $375 $151 $148 $246 forward $252 $-1 #
edge $-1 $254 3.6091065373604962 $376 8.8450421390523246 $245 $377 forward 7 unknown #
coedge $-1 $150 $149 $369 $378 reversed $59 $-1 #
coedge $-1 $379 $380 $149 $249 forward $240 $-1 #
edge $-1 $381 -78.359324930570381 $253 78.359324930570381 $248 $382 forward 7 unknown #
edge $-1 $383 -78.359324930570381 $254 78.359324930570381 $243 $384 forward 7 unknown #
coedge $-1 $151 $375 $379 $385 forward $252 $-1 #
loop $-1 $-1 $245 $366 #
vertex $-1 $249 $386 #
vertex $-1 $152 $387 #
straight-curve $-1 78.359324930570381 -16.135977202509007 9.8361808755669067 0 1 0 I I #
face $-1 $388 $389 $35 $-1 $390 reversed single #
loop $-1 $-1 $269 $153 #
plane-surface $-1 78.359324930570381 0 0 -1 0 0 0 0 1 forward_v I I I I #
coedge $-1 $391 $392 $261 $393 forward $154 $-1 #
coedge $-1 $394 $156 $157 $265 reversed $97 $-1 #
coedge $-1 $156 $394 $259 $393 reversed $97 $-1 #
coedge $-1 $395 $396 $156 $263 forward $389 $-1 #
edge $-1 $397 3.6091065373604962 $398 8.8450421390523246 $262 $399 forward 7 unknown #
coedge $-1 $158 $157 $396 $400 reversed $62 $-1 #
edge $-1 $270 -78.359324930570381 $397 78.359324930570381 $260 $401 forward 7 unknown #
coedge $-1 $402 $403 $158 $267 forward $404 $-1 #
edge $-1 $271 -78.359324930570381 $405 78.359324930570381 $266 $406 forward 7 unknown #
coedge $-1 $407 $159 $403 $408 reversed $257 $-1 #
coedge $-1 $159 $407 $394 $409 forward $257 $-1 #
vertex $-1 $160 $410 #
vertex $-1 $267 $411 #
straight-curve $-1 78.359324930570381 16.135977202509007 9.8361808755669067 0 1 0 I I #
face $-1 $-1 $285 $36 $-1 $412 forward single #
loop $-1 $-1 $413 $161 #
plane-surface $-1 -78.359324930570381 0 0 1 0 0 0 0 -1 forward_v I I I I #
coedge $-1 $414 $415 $416 $417 reversed $162 $-1 #
coedge $-1 $418 $164 $166 $283 forward $101 $-1 #
coedge $-1 $164 $418 $414 $419 forward $101 $-1 #
coedge $-1 $416 $167 $164 $280 forward $285 $-1 #
edge $-1 $287 -12.600979956322959 $420 -2.2589094619401759 $279 $421 forward 7 unknown #
coedge $-1 $422 $423 $165 $282 forward $274 $-1 #
edge $-1 $424 -58.963516929610876 $286 -47.757631425964405 $281 $425 forward 7 unknown #
edge $-1 $287 -17.806328102292902 $424 0 $166 $426 forward 7 unknown #
coedge $-1 $167 $416 $422 $427 forward $285 $-1 #
loop $-1 $-1 $416 $273 #
vertex $-1 $282 $428 #
vertex $-1 $168 $429 #
straight-curve $-1 -88.492784085341839 -20.030924665454528 15.072116477258731 1 0 0 I I #
coedge $-1 $289 $289 $-1 $430 reversed $171 $-1 #
edge $-1 $431 0 $431 6.2831853071796004 $172 $432 forward 7 unknown #
vertex $-1 $175 $433 #
ellipse-curve $-1 -71.44026700037368 -14.859889418263137 9.4691737254354962 -0.62932039886446345 0 0.77714595512881146 1.9428648878220287 0 1.5733009971611587 1 I I #
face $-1 $-1 $434 $38 $-1 $435 reversed single #
loop $-1 $-1 $182 $176 #
plane-surface $-1 0 0 15.072116477258735 0 0 1 1 0 0 forward_v I I I I #
coedge $-1 $436 $437 $438 $439 reversed $177 $-1 #
coedge $-1 $440 $179 $181 $303 forward $110 $-1 #
coedge $-1 $179 $440 $436 $441 forward $110 $-1 #
coedge $-1 $438 $182 $179 $300 forward $294 $-1 #
edge $-1 $306 2.2589094619401795 $442 12.600979956322963 $299 $443 forward 7 unknown #
coedge $-1 $444 $445 $180 $302 forward $434 $-1 #
edge $-1 $446 -58.963516929610876 $305 -47.757631425964405 $301 $447 forward 7 unknown #
edge $-1 $306 -17.806328102292902 $446 0 $181 $448 forward 7 unknown #
coedge $-1 $182 $438 $444 $449 forward $294 $-1 #
vertex $-1 $183 $450 #
vertex $-1 $183 $451 #
straight-curve $-1 -88.492784085341839 9.6888541710717515 15.072116477258731 1 0 0 I I #
coedge $-1 $308 $308 $-1 $452 reversed $186 $-1 #
edge $-1 $453 0 $453 6.2831853071796004 $187 $454 forward 7 unknown #
vertex $-1 $190 $455 #
ellipse-curve $-1 -71.44026700037368 14.859889418263144 9.4691737254354962 -0.62932039886446345 0 0.77714595512881146 1.9428648878220287 0 1.5733009971611587 1 I I #
face $-1 $-1 $456 $40 $-1 $457 reversed single #
loop $-1 $-1 $197 $191 #
plane-surface $-1 0 0 15.072116477258735 0 0 1 1 0 0 forward_v I I I I #
coedge $-1 $458 $459 $460 $461 reversed $192 $-1 #
coedge $-1 $462 $194 $196 $322 forward $119 $-1 #
coedge $-1 $194 $462 $458 $463 forward $119 $-1 #
coedge $-1 $460 $197 $194 $319 forward $313 $-1 #
edge $-1 $325 -6.6157542504737492 $464 1.7992714248464665 $318 $465 forward 7 unknown #
coedge $-1 $466 $467 $195 $321 forward $456 $-1 #
edge $-1 $468 -107.00359412375093 $324 -96.190815962285114 $320 $469 forward 7 unknown #
edge $-1 $325 143.51868517877853 $468 156.71864986114082 $196 $470 forward 7 unknown #
coedge $-1 $197 $460 $466 $471 forward $313 $-1 #
vertex $-1 $321 $472 #
vertex $-1 $198 $473 #
straight-curve $-1 58.422802870324546 9.0239956632873906 15.072116477258731 -1 0 0 I I #
coedge $-1 $327 $327 $-1 $474 reversed $201 $-1 #
edge $-1 $475 0 $475 6.2831853071796004 $202 $476 forward 7 unknown #
vertex $-1 $205 $477 #
ellipse-curve $-1 74.573730656003292 2.2919751230312144 9.6657273965258277 0.81915205242281985 0 0.57357642473473569 0.28678821236736785 0 -0.40957602621140993 1 I I #
coedge $-1 $331 $331 $-1 $478 reversed $208 $-1 #
edge $-1 $479 0 $479 6.2831853071796004 $209 $480 forward 7 unknown #
vertex $-1 $212 $481 #
ellipse-curve $-1 74.573730656003292 4.8164828256272756 9.6657273965258277 0.81915205242281985 0 0.57357642473473569 0.28678821236736785 0 -0.40957602621140993 1 I I #
coedge $-1 $335 $335 $-1 $482 reversed $215 $-1 #
edge $-1 $483 0 $483 6.2831853071796004 $216 $484 forward 7 unknown #
vertex $-1 $219 $485 #
ellipse-curve $-1 74.573730656003292 7.3409905282233368 9.6657273965258277 0.81915205242281985 0 0.57357642473473569 0.28678821236736785 0 -0.40957602621140993 1 I I #
face $-1 $-1 $235 $33 $-1 $486 reversed single #
loop $-1 $-1 $355 $220 #
plane-surface $-1 0 39.978632479607633 0 0 -1 0 0 0 -1 forward_v I I I I #
coedge $-1 $487 $353 $356 $488 forward $221 $-1 #
coedge $-1 $359 $223 $224 $347 reversed $138 $-1 #
coedge $-1 $353 $487 $223 $345 reversed $221 $-1 #
edge $-1 $360 -15.072116477258735 $489 15.072116477258735 $344 $490 forward 7 unknown #
coedge $-1 $225 $224 $487 $491 forward $89 $-1 #
edge $-1 $351 -78.359324930570381 $489 78.359324930570381 $343 $492 forward 7 unknown #
coedge $-1 $356 $355 $225 $349 reversed $340 $-1 #
edge $-1 $493 -78.359324930570381 $350 78.359324930570381 $348 $494 forward 7 unknown #
vertex $-1 $227 $495 #
vertex $-1 $362 $496 #
straight-curve $-1 78.359324930570381 0 -15.072116477258735 0 -1 0 I I #
coedge $-1 $342 $344 $228 $354 reversed $221 $-1 #
edge $-1 $357 -39.978632479607633 $360 39.978632479607633 $353 $497 forward 7 unknown #
coedge $-1 $348 $229 $234 $363 forward $340 $-1 #
coedge $-1 $229 $348 $342 $488 reversed $340 $-1 #
vertex $-1 $230 $498 #
straight-curve $-1 0 39.978632479607633 15.072116477258735 -1 0 0 I I #
coedge $-1 $231 $343 $233 $362 reversed $138 $-1 #
vertex $-1 $354 $499 #
straight-curve $-1 0 -39.978632479607633 15.072116477258735 1 0 0 I I #
edge $-1 $236 -15.072116477258735 $351 15.072116477258735 $233 $500 forward 7 unknown #
edge $-1 $237 -15.072116477258735 $350 15.072116477258735 $234 $501 forward 7 unknown #
point $-1 78.359324930570381 -39.978632479607633 15.072116477258735 #
point $-1 78.359324930570381 39.978632479607633 15.072116477258735 #
face $-1 $-1 $252 $34 $-1 $502 reversed single #
loop $-1 $-1 $373 $239 #
plane-surface $-1 0 0 15.072116477258735 0 0 1 1 0 0 forward_v I I I I #
coedge $-1 $503 $242 $247 $378 forward $146 $-1 #
coedge $-1 $242 $503 $504 $505 reversed $146 $-1 #
coedge $-1 $244 $243 $242 $372 reversed $93 $-1 #
edge $-1 $506 -8.8450421390523246 $383 -3.6091065373604962 $242 $507 forward 7 unknown #
coedge $-1 $504 $508 $244 $374 forward $367 $-1 #
edge $-1 $376 -78.359324930570381 $506 78.359324930570381 $373 $509 forward 7 unknown #
coedge $-1 $251 $245 $508 $510 reversed $252 $-1 #
vertex $-1 $246 $511 #
straight-curve $-1 78.359324930570381 -24.565276330428393 6.2270743382064104 0 0 1 I I #
edge $-1 $383 8.4292991279193856 $381 23.842655277098626 $369 $512 forward 7 unknown #
coedge $-1 $513 $248 $251 $385 reversed $240 $-1 #
coedge $-1 $248 $513 $503 $514 forward $240 $-1 #
vertex $-1 $249 $515 #
straight-curve $-1 0 -39.978632479607633 9.8361808755669067 1 0 0 I I #
vertex $-1 $378 $516 #
straight-curve $-1 0 -24.565276330428393 9.8361808755669067 1 0 0 I I #
edge $-1 $517 -15.072116477258735 $253 -9.8361808755669067 $251 $518 forward 7 unknown #
point $-1 78.359324930570381 -39.978632479607633 9.8361808755669067 #
point $-1 78.359324930570381 -24.565276330428393 9.8361808755669067 #
face $-1 $-1 $404 $35 $-1 $519 reversed single #
loop $-1 $-1 $262 $256 #
plane-surface $-1 -78.359324930570381 0 0 1 0 0 0 0 -1 forward_v I I I I #
coedge $-1 $520 $259 $407 $521 forward $154 $-1 #
coedge $-1 $259 $520 $395 $522 forward $154 $-1 #
edge $-1 $398 -78.359324930570381 $523 78.359324930570381 $259 $524 forward 7 unknown #
coedge $-1 $261 $260 $269 $409 reversed $97 $-1 #
coedge $-1 $525 $262 $392 $522 reversed $389 $-1 #
coedge $-1 $262 $525 $264 $400 forward $389 $-1 #
vertex $-1 $400 $526 #
vertex $-1 $263 $527 #
straight-curve $-1 -78.359324930570381 24.565276330428397 6.2270743382064104 0 0 1 I I #
edge $-1 $405 -23.842655277098626 $397 -8.4292991279193892 $396 $528 forward 7 unknown #
straight-curve $-1 0 24.565276330428397 9.8361808755669067 -1 0 0 I I #
coedge $-1 $529 $266 $525 $530 reversed $404 $-1 #
coedge $-1 $266 $529 $268 $408 forward $404 $-1 #
loop $-1 $-1 $266 $388 #
vertex $-1 $267 $531 #
straight-curve $-1 0 39.978632479607633 9.8361808755669067 -1 0 0 I I #
coedge $-1 $269 $268 $391 $521 reversed $257 $-1 #
edge $-1 $532 -15.072116477258735 $271 -9.8361808755669067 $268 $533 forward 7 unknown #
edge $-1 $523 -8.8450421390523246 $270 -3.6091065373604962 $269 $534 forward 7 unknown #
point $-1 78.359324930570381 24.565276330428397 9.8361808755669067 #
point $-1 78.359324930570381 39.978632479607633 9.8361808755669067 #
plane-surface $-1 0 0 15.072116477258735 0 0 1 1 0 0 forward_v I I I I #
coedge $-1 $423 $422 $415 $535 forward $274 $-1 #
coedge $-1 $415 $276 $278 $419 reversed $162 $-1 #
coedge $-1 $276 $414 $413 $535 reversed $162 $-1 #
coedge $-1 $284 $279 $276 $417 forward $285 $-1 #
edge $-1 $420 -23.971575015164873 $536 -10.133459154771458 $416 $537 forward 7 unknown #
coedge $-1 $278 $277 $423 $538 reversed $101 $-1 #
edge $-1 $539 0 $420 17.806328102292902 $414 $540 forward 7 unknown #
vertex $-1 $280 $541 #
straight-curve $-1 -64.521209070176965 -7.4299447091315685 15.072116477258735 0 1 0 I I #
coedge $-1 $413 $281 $284 $427 reversed $274 $-1 #
coedge $-1 $281 $413 $418 $538 forward $274 $-1 #
vertex $-1 $282 $542 #
straight-curve $-1 -78.359324930570381 -20.030924665454528 62.829747903223137 0 0 1 I I #
straight-curve $-1 -78.359324930570381 -20.030924665454528 3.8662309736122609 -0.77714595512881146 0 -0.62932039886446345 I I #
edge $-1 $536 9.6888541710717444 $286 20.030924665454528 $422 $543 forward 7 unknown #
point $-1 -78.359324930570381 -20.030924665454528 15.072116477258735 #
point $-1 -64.521209070176965 -20.030924665454528 15.072116477258735 #
edge $-1 $544 1 $544 0 $289 $-1 forward 7 unknown #
vertex $-1 $290 $545 #
ellipse-curve $-1 -67.104194331205534 -14.859889418263137 4.1145700258431095 -0.62932039886446345 0 0.77714595512881146 1.9428648878220287 0 1.5733009971611587 1 I I #
point $-1 -69.497402112551654 -14.859889418263137 11.04247472259666 #
loop $-1 $-1 $301 $293 #
plane-surface $-1 -78.359324930570381 0 0 1 0 0 0 0 -1 forward_v I I I I #
coedge $-1 $437 $296 $298 $441 reversed $177 $-1 #
coedge $-1 $296 $436 $546 $547 reversed $177 $-1 #
coedge $-1 $304 $299 $296 $439 forward $294 $-1 #
edge $-1 $442 -23.971575015164873 $548 -10.133459154771458 $438 $549 forward 7 unknown #
coedge $-1 $298 $297 $445 $550 reversed $110 $-1 #
edge $-1 $551 0 $442 17.806328102292902 $436 $552 forward 7 unknown #
vertex $-1 $300 $553 #
straight-curve $-1 -64.521209070176965 7.429944709131572 15.072116477258735 0 1 0 I I #
coedge $-1 $546 $301 $304 $449 reversed $434 $-1 #
coedge $-1 $301 $546 $440 $550 forward $434 $-1 #
vertex $-1 $302 $554 #
straight-curve $-1 -78.359324930570381 9.6888541710717515 62.829747903223137 0 0 1 I I #
straight-curve $-1 -78.359324930570381 9.6888541710717515 3.8662309736122609 -0.77714595512881146 0 -0.62932039886446345 I I #
edge $-1 $548 -20.030924665454535 $305 -9.6888541710717515 $444 $555 forward 7 unknown #
point $-1 -78.359324930570381 9.6888541710717515 15.072116477258735 #
point $-1 -64.521209070176965 9.6888541710717515 15.072116477258735 #
edge $-1 $556 1 $556 0 $308 $-1 forward 7 unknown #
vertex $-1 $309 $557 #
ellipse-curve $-1 -67.104194331205534 14.859889418263144 4.1145700258431095 -0.62932039886446345 0 0.77714595512881146 1.9428648878220287 0 1.5733009971611587 1 I I #
point $-1 -69.497402112551654 14.859889418263144 11.04247472259666 #
loop $-1 $-1 $320 $312 #
plane-surface $-1 78.359324930570381 0 0 -1 0 0 0 0 1 forward_v I I I I #
coedge $-1 $459 $315 $317 $463 reversed $192 $-1 #
coedge $-1 $315 $458 $558 $559 reversed $192 $-1 #
coedge $-1 $323 $318 $315 $461 forward $313 $-1 #
edge $-1 $464 12.365333511111686 $560 19.936522060245835 $460 $561 forward 7 unknown #
coedge $-1 $317 $316 $467 $562 reversed $119 $-1 #
edge $-1 $563 -156.71864986114082 $464 -143.51868517877853 $458 $564 forward 7 unknown #
vertex $-1 $319 $565 #
straight-curve $-1 70.788136381436232 2.4082414128136413 15.072116477258731 0 -1 0 I I #
coedge $-1 $558 $320 $323 $471 reversed $456 $-1 #
coedge $-1 $320 $558 $462 $562 forward $456 $-1 #
vertex $-1 $321 $566 #
straight-curve $-1 78.359324930570381 9.0239956632873906 111.26293243954385 0 0 1 I I #
straight-curve $-1 -11.530797946037637 9.0239956632873906 132.63574200247967 0.57357642473473569 0 -0.81915205242281985 I I #
edge $-1 $560 0.60896998796717483 $324 9.0239956632873906 $466 $567 forward 7 unknown #
point $-1 78.359324930570381 9.0239956632873906 15.072116477258735 #
point $-1 70.788136381436232 9.0239956632873906 15.072116477258731 #
edge $-1 $568 1 $568 0 $327 $-1 forward 7 unknown #
vertex $-1 $328 $569 #
ellipse-curve $-1 73.085684841849158 2.2919751230312144 8.6237865317015423 0.81915205242281985 0 0.57357642473473569 0.28678821236736785 0 -0.40957602621140993 1 I I #
point $-1 74.860518868370704 2.2919751230312144 9.2561513703144378 #
edge $-1 $570 1 $570 0 $331 $-1 forward 7 unknown #
vertex $-1 $332 $571 #
ellipse-curve $-1 73.085684841849158 4.8164828256272756 8.6237865317015423 0.81915205242281985 0 0.57357642473473569 0.28678821236736785 0 -0.40957602621140993 1 I I #
point $-1 74.860518868370704 4.8164828256272756 9.2561513703144378 #
edge $-1 $572 1 $572 0 $335 $-1 forward 7 unknown #
vertex $-1 $336 $573 #
ellipse-curve $-1 73.085684841849158 7.3409905282233368 8.6237865317015423 0.81915205242281985 0 0.57357642473473569 0.28678821236736785 0 -0.40957602621140993 1 I I #
point $-1 74.860518868370704 7.3409905282233368 9.2561513703144378 #
plane-surface $-1 78.359324930570381 0 0 -1 0 0 0 0 1 forward_v I I I I #
coedge $-1 $344 $342 $346 $491 reversed $221 $-1 #
edge $-1 $357 -15.072116477258735 $493 15.072116477258735 $356 $574 forward 7 unknown #
vertex $-1 $491 $575 #
straight-curve $-1 -78.359324930570381 -39.978632479607633 0 0 0 -1 I I #
edge $-1 $489 -39.978632479607633 $493 39.978632479607633 $487 $576 forward 7 unknown #
straight-curve $-1 0 -39.978632479607633 -15.072116477258735 -1 0 0 I I #
vertex $-1 $349 $577 #
straight-curve $-1 0 39.978632479607633 -15.072116477258735 1 0 0 I I #
point $-1 78.359324930570381 39.978632479607633 -15.072116477258735 #
point $-1 78.359324930570381 -39.978632479607633 -15.072116477258735 #
straight-curve $-1 -78.359324930570381 0 15.072116477258735 0 -1 0 I I #
point $-1 -78.359324930570381 39.978632479607633 15.072116477258735 #
point $-1 -78.359324930570381 -39.978632479607633 15.072116477258735 #
straight-curve $-1 78.359324930570381 -39.978632479607633 0 0 0 -1 I I #
straight-curve $-1 78.359324930570381 39.978632479607633 0 0 0 -1 I I #
plane-surface $-1 78.359324930570381 0 0 -1 0 0 0 0 1 forward_v I I I I #
coedge $-1 $370 $369 $380 $514 reversed $146 $-1 #
coedge $-1 $578 $373 $370 $505 forward $367 $-1 #
edge $-1 $506 24.565276330428393 $579 39.978632479607633 $370 $580 forward 7 unknown #
vertex $-1 $505 $581 #
straight-curve $-1 -78.359324930570381 -24.565276330428393 6.2270743382064104 0 0 -1 I I #
coedge $-1 $373 $578 $375 $510 forward $367 $-1 #
straight-curve $-1 0 -24.565276330428393 15.072116477258735 -1 0 0 I I #
edge $-1 $517 -39.978632479607633 $376 -24.565276330428393 $375 $582 forward 7 unknown #
point $-1 78.359324930570381 -24.565276330428393 15.072116477258735 #
straight-curve $-1 -78.359324930570381 -16.135977202509007 9.8361808755669067 0 -1 0 I I #
coedge $-1 $380 $379 $578 $583 reversed $240 $-1 #
edge $-1 $579 -15.072116477258735 $381 -9.8361808755669067 $503 $584 forward 7 unknown #
point $-1 -78.359324930570381 -39.978632479607633 9.8361808755669067 #
point $-1 -78.359324930570381 -24.565276330428393 9.8361808755669067 #
vertex $-1 $510 $585 #
straight-curve $-1 78.359324930570381 -39.978632479607633 0 0 0 -1 I I #
plane-surface $-1 0 39.978632479607633 0 0 -1 0 0 0 -1 forward_v I I I I #
coedge $-1 $392 $391 $529 $586 forward $154 $-1 #
edge $-1 $523 24.565276330428397 $532 39.978632479607633 $407 $587 forward 7 unknown #
edge $-1 $588 -39.978632479607633 $398 -24.565276330428397 $395 $589 forward 7 unknown #
vertex $-1 $521 $590 #
straight-curve $-1 0 24.565276330428397 15.072116477258735 1 0 0 I I #
coedge $-1 $396 $395 $402 $530 forward $389 $-1 #
point $-1 -78.359324930570381 24.565276330428397 9.8361808755669067 #
point $-1 -78.359324930570381 24.565276330428397 15.072116477258735 #
straight-curve $-1 -78.359324930570381 16.135977202509007 9.8361808755669067 0 -1 0 I I #
coedge $-1 $403 $402 $520 $586 reversed $404 $-1 #
edge $-1 $588 -15.072116477258735 $405 -9.8361808755669067 $402 $591 forward 7 unknown #
point $-1 -78.359324930570381 39.978632479607633 9.8361808755669067 #
vertex $-1 $521 $592 #
straight-curve $-1 78.359324930570381 39.978632479607633 0 0 0 -1 I I #
straight-curve $-1 78.359324930570381 24.565276330428397 6.2270743382064104 0 0 -1 I I #
edge $-1 $536 47.757631425964405 $539 58.963516929610876 $413 $593 forward 7 unknown #
vertex $-1 $427 $594 #
straight-curve $-1 -88.492784085341839 -9.6888541710717444 15.072116477258731 -1 0 0 I I #
edge $-1 $539 2.2589094619401759 $424 12.600979956322959 $423 $595 forward 7 unknown #
vertex $-1 $538 $596 #
straight-curve $-1 -78.359324930570381 -9.6888541710717444 3.8662309736122609 0.77714595512881146 0 0.62932039886446345 I I #
point $-1 -64.521209070176965 -9.6888541710717444 15.072116477258735 #
point $-1 -78.359324930570381 -20.030924665454528 3.8662309736122609 #
straight-curve $-1 -78.359324930570381 0 15.072116477258735 0 -1 0 I I #
vertex $-1 $430 $597 #
point $-1 -65.161329443383494 -14.859889418263137 5.6878710230042682 #
coedge $-1 $445 $444 $437 $547 forward $434 $-1 #
edge $-1 $548 47.757631425964405 $551 58.963516929610876 $546 $598 forward 7 unknown #
vertex $-1 $449 $599 #
straight-curve $-1 -88.492784085341839 20.030924665454535 15.072116477258731 -1 0 0 I I #
edge $-1 $551 -12.600979956322963 $446 -2.2589094619401795 $445 $600 forward 7 unknown #
vertex $-1 $550 $601 #
straight-curve $-1 -78.359324930570381 20.030924665454535 3.8662309736122609 0.77714595512881146 0 0.62932039886446345 I I #
point $-1 -64.521209070176965 20.030924665454535 15.072116477258735 #
point $-1 -78.359324930570381 9.6888541710717515 3.8662309736122609 #
straight-curve $-1 -78.359324930570381 0 15.072116477258735 0 -1 0 I I #
vertex $-1 $452 $602 #
point $-1 -65.161329443383494 14.859889418263144 5.6878710230042682 #
coedge $-1 $467 $466 $459 $559 forward $456 $-1 #
edge $-1 $560 96.190815962285114 $563 107.00359412375093 $558 $603 forward 7 unknown #
vertex $-1 $471 $604 #
straight-curve $-1 58.422802870324546 0.60896998796717483 15.072116477258731 1 0 0 I I #
edge $-1 $563 -1.7992714248464665 $468 6.6157542504737492 $467 $605 forward 7 unknown #
vertex $-1 $562 $606 #
straight-curve $-1 -11.530797946037637 0.60896998796717483 132.63574200247967 -0.57357642473473569 0 0.81915205242281985 I I #
point $-1 70.788136381436232 0.60896998796717483 15.072116477258731 #
point $-1 78.359324930570381 9.0239956632873906 4.2593383157929168 #
straight-curve $-1 78.359324930570381 0 15.072116477258735 0 1 0 I I #
vertex $-1 $474 $607 #
point $-1 73.372473054216528 2.2919751230312144 8.2142105054901329 #
vertex $-1 $478 $608 #
point $-1 73.372473054216528 4.8164828256272756 8.2142105054901329 #
vertex $-1 $482 $609 #
point $-1 73.372473054216528 7.3409905282233368 8.2142105054901329 #
straight-curve $-1 -78.359324930570381 39.978632479607633 0 0 0 -1 I I #
point $-1 -78.359324930570381 -39.978632479607633 -15.072116477258735 #
straight-curve $-1 -78.359324930570381 0 -15.072116477258735 0 1 0 I I #
point $-1 -78.359324930570381 39.978632479607633 -15.072116477258735 #
coedge $-1 $508 $504 $513 $583 forward $367 $-1 #
vertex $-1 $505 $610 #
straight-curve $-1 -78.359324930570381 0 15.072116477258735 0 -1 0 I I #
point $-1 -78.359324930570381 -24.565276330428393 15.072116477258735 #
straight-curve $-1 78.359324930570381 0 15.072116477258735 0 1 0 I I #
edge $-1 $579 -78.359324930570381 $517 78.359324930570381 $513 $611 forward 7 unknown #
straight-curve $-1 -78.359324930570381 -39.978632479607633 0 0 0 -1 I I #
point $-1 78.359324930570381 -39.978632479607633 15.072116477258735 #
edge $-1 $532 -78.359324930570381 $588 78.359324930570381 $529 $612 forward 7 unknown #
straight-curve $-1 78.359324930570381 0 15.072116477258735 0 1 0 I I #
vertex $-1 $586 $613 #
straight-curve $-1 -78.359324930570381 0 15.072116477258735 0 -1 0 I I #
point $-1 78.359324930570381 24.565276330428397 15.072116477258735 #
straight-curve $-1 -78.359324930570381 39.978632479607633 0 0 0 -1 I I #
point $-1 78.359324930570381 39.978632479607633 15.072116477258735 #
straight-curve $-1 -78.359324930570381 -9.6888541710717444 62.829747903223137 0 0 -1 I I #
point $-1 -78.359324930570381 -9.6888541710717444 15.072116477258735 #
straight-curve $-1 -78.359324930570381 -7.4299447091315685 3.8662309736122595 0 -1 0 I I #
point $-1 -78.359324930570381 -9.6888541710717444 3.8662309736122609 #
point $-1 -65.530893334044364 -14.859889418263137 2.1717051380210806 #
straight-curve $-1 -78.359324930570381 20.030924665454535 62.829747903223137 0 0 -1 I I #
point $-1 -78.359324930570381 20.030924665454535 15.072116477258735 #
straight-curve $-1 -78.359324930570381 7.429944709131572 3.8662309736122595 0 -1 0 I I #
point $-1 -78.359324930570381 20.030924665454535 3.8662309736122609 #
point $-1 -65.530893334044364 14.859889418263144 2.1717051380210806 #
straight-curve $-1 78.359324930570381 0.60896998796717483 111.26293243954385 0 0 -1 I I #
point $-1 78.359324930570381 0.60896998796717483 15.072116477258735 #
straight-curve $-1 78.359324930570381 2.4082414128136413 4.2593383157929168 0 1 0 I I #
point $-1 78.359324930570381 0.60896998796717483 4.2593383157929168 #
point $-1 72.676108815637761 2.2919751230312144 8.3369983193341763 #
point $-1 72.676108815637761 4.8164828256272756 8.3369983193341763 #
point $-1 72.676108815637761 7.3409905282233368 8.3369983193341763 #
point $-1 -78.359324930570381 -39.978632479607633 15.072116477258735 #
straight-curve $-1 0 -39.978632479607633 15.072116477258735 1 0 0 I I #
straight-curve $-1 0 39.978632479607633 15.072116477258735 -1 0 0 I I #
point $-1 -78.359324930570381 39.978632479607633 15.072116477258735 #
End-of-ACIS-data 