500 0 7 0           
7 Unknown 11 ACIS 5.0 NT 24 Fri Mar 26 18:32:21 1999 
-1 9.9999999999999995e-007 1e-010 
body $-1 $7 $-1 $8 #
body $-1 $9 $-1 $10 #
body $-1 $11 $-1 $12 #
body $-1 $13 $-1 $14 #
body $-1 $15 $-1 $16 #
body $-1 $17 $-1 $18 #
body $-1 $19 $-1 $20 #
lump $-1 $-1 $21 $0 #
transform $-1 1 0 0 0 1 0 0 0 1 57.358928189947207 36.646380626181454 11.312208811292994 1 rotate no_reflect no_shear #
lump $-1 $-1 $22 $1 #
transform $-1 1 0 0 0 1 0 0 0 1 57.358928189947207 36.646380626181454 11.312208811292994 1 rotate no_reflect no_shear #
lump $-1 $-1 $23 $2 #
transform $-1 1 0 0 0 1 0 0 0 1 57.358928189947207 36.646380626181454 11.312208811292994 1 rotate no_reflect no_shear #
lump $-1 $-1 $24 $3 #
transform $-1 1 0 0 0 1 0 0 0 1 57.358928189947207 36.646380626181454 11.312208811292994 1 rotate no_reflect no_shear #
lump $-1 $-1 $25 $4 #
transform $-1 1 0 0 0 1 0 0 0 1 57.358928189947207 36.646380626181454 11.312208811292994 1 rotate no_reflect no_shear #
lump $-1 $-1 $26 $5 #
transform $-1 1 0 0 0 1 0 0 0 1 57.358928189947207 36.646380626181454 11.312208811292994 1 rotate no_reflect no_shear #
lump $-1 $-1 $27 $6 #
transform $-1 1 0 0 0 1 0 0 0 1 57.358928189947207 36.646380626181454 11.312208811292994 1 rotate no_reflect no_shear #
shell $-1 $-1 $-1 $28 $-1 $7 #
shell $-1 $-1 $-1 $29 $-1 $9 #
shell $-1 $-1 $-1 $30 $-1 $11 #
shell $-1 $-1 $-1 $31 $-1 $13 #
shell $-1 $-1 $-1 $32 $-1 $15 #
shell $-1 $-1 $-1 $33 $-1 $17 #
shell $-1 $-1 $-1 $34 $-1 $19 #
face $-1 $35 $36 $21 $-1 $37 forward single #
face $-1 $38 $39 $22 $-1 $40 forward single #
face $-1 $41 $42 $23 $-1 $43 reversed single #
face $-1 $44 $45 $24 $-1 $46 forward single #
face $-1 $47 $48 $25 $-1 $49 forward single #
face $-1 $50 $51 $26 $-1 $52 reversed single #
face $-1 $53 $54 $27 $-1 $55 forward single #
face $-1 $56 $57 $21 $-1 $58 reversed single #
loop $-1 $-1 $59 $28 #
plane-surface $-1 0 0 11.312208811292994 0 0 1 1 0 0 forward_v I I I I #
face $-1 $60 $61 $22 $-1 $62 reversed single #
loop $-1 $-1 $63 $29 #
plane-surface $-1 0 -36.646380626181454 0 0 1 0 0 0 1 forward_v I I I I #
face $-1 $64 $65 $23 $-1 $66 reversed single #
loop $-1 $-1 $67 $30 #
plane-surface $-1 74.317162866827957 -15.788992375995155 162.88940992137344 0 -1 0 -0.77714596973225614 0 -0.62932038083071107 forward_v I I I I #
face $-1 $68 $69 $24 $-1 $70 forward single #
loop $-1 $71 $72 $31 #
cone-surface $-1 52.798335648367029 -20.168783374271595 5.9375215612264283 -0.77714596973225614 0 -0.62932038083071107 0.31466019041535553 0 -0.38857298486612807 1 I I 0 1 0.5 forward I I I I #
face $-1 $73 $74 $25 $-1 $75 forward single #
loop $-1 $76 $77 $32 #
cone-surface $-1 52.798335648367029 -17.540908775305734 5.9375215612264283 -0.77714596973225614 0 -0.62932038083071107 0.31466019041535553 0 -0.38857298486612807 1 I I 0 1 0.5 forward I I I I #
face $-1 $78 $79 $26 $-1 $80 reversed single #
loop $-1 $-1 $81 $33 #
plane-surface $-1 -156.70750696997709 -21.920699773582164 58.155723670635325 0 1 0 -0.86602541151947299 0 0.49999998660252726 forward_v I I I I #
face $-1 $82 $83 $27 $-1 $84 forward single #
loop $-1 $85 $86 $34 #
cone-surface $-1 -51.25882148808023 -15.969995033807777 4.28517330092496 0.86602541151947299 0 -0.49999998660252726 1.2499999665063182 0 2.1650635287986826 1 I I 0 1 2.5 forward I I I I #
face $-1 $87 $88 $21 $-1 $89 reversed single #
loop $-1 $-1 $90 $35 #
plane-surface $-1 0 0 -11.312208811292994 0 0 1 1 0 0 forward_v I I I I #
coedge $-1 $91 $92 $93 $94 forward $36 $-1 #
face $-1 $95 $96 $22 $-1 $97 forward single #
loop $-1 $-1 $98 $38 #
plane-surface $-1 -57.358928189947207 0 0 1 0 0 0 0 -1 forward_v I I I I #
coedge $-1 $99 $100 $101 $102 forward $39 $-1 #
face $-1 $103 $104 $23 $-1 $105 reversed single #
loop $-1 $-1 $106 $41 #
plane-surface $-1 -14.835356875130771 -18.854846074788661 90.695124856295479 0.77714596973225614 0 0.62932038083071107 0.62932038083071107 0 -0.77714596973225614 forward_v I I I I #
coedge $-1 $107 $108 $109 $110 reversed $42 $-1 #
face $-1 $-1 $111 $24 $-1 $112 forward single #
loop $-1 $113 $114 $44 #
cone-surface $-1 51.99909105021905 -20.168783374271595 5.2903060644302933 -0.77714596973225614 0 -0.62932038083071107 0.15733009520767777 0 -0.19428649243306403 1 I I -0.70710678118654746 0.70710678118654746 0.25 forward I I I I #
loop $-1 $-1 $115 $31 #
coedge $-1 $72 $72 $116 $117 reversed $45 $-1 #
face $-1 $-1 $118 $25 $-1 $119 forward single #
loop $-1 $120 $121 $47 #
cone-surface $-1 51.99909105021905 -17.540908775305734 5.2903060644302933 -0.77714596973225614 0 -0.62932038083071107 0.15733009520767777 0 -0.19428649243306403 1 I I -0.70710678118654746 0.70710678118654746 0.25 forward I I I I #
loop $-1 $-1 $122 $32 #
coedge $-1 $77 $77 $123 $124 reversed $48 $-1 #
face $-1 $125 $126 $26 $-1 $127 reversed single #
loop $-1 $-1 $128 $50 #
plane-surface $-1 -57.358928189947235 -15.969995033807777 0.79679701761747168 -0.86602541151947299 0 0.49999998660252726 0.49999998660252726 0 0.86602541151947299 forward_v I I I I #
coedge $-1 $129 $130 $131 $132 reversed $51 $-1 #
face $-1 $-1 $133 $27 $-1 $134 forward single #
loop $-1 $135 $136 $53 #
cone-surface $-1 -47.111720828223653 -15.969995033807777 1.8908437041415329 0.86602541151947299 0 -0.49999998660252726 0.62499998325315909 0 1.0825317643993413 1 I I -0.70710678118654746 0.70710678118654746 1.25 forward I I I I #
loop $-1 $-1 $137 $34 #
coedge $-1 $86 $86 $138 $139 reversed $54 $-1 #
face $-1 $140 $141 $21 $-1 $142 reversed single #
loop $-1 $-1 $143 $56 #
plane-surface $-1 0 -36.646380626181454 0 0 1 0 0 0 1 forward_v I I I I #
coedge $-1 $144 $145 $146 $147 forward $57 $-1 #
coedge $-1 $148 $59 $149 $150 forward $36 $-1 #
coedge $-1 $59 $148 $151 $152 forward $36 $-1 #
coedge $-1 $153 $154 $59 $94 reversed $155 $-1 #
edge $-1 $156 -36.646380626181454 $157 36.646380626181454 $93 $158 forward 7 unknown #
face $-1 $159 $160 $22 $-1 $161 reversed single #
loop $-1 $-1 $162 $60 #
plane-surface $-1 0 -44.009221052481095 -0.66011358997314984 0 0 1 1 0 0 forward_v I I I I #
coedge $-1 $163 $164 $100 $165 forward $61 $-1 #
coedge $-1 $166 $63 $167 $168 reversed $39 $-1 #
coedge $-1 $63 $166 $98 $165 reversed $39 $-1 #
coedge $-1 $169 $162 $63 $102 reversed $96 $-1 #
edge $-1 $170 -57.358928189947207 $171 57.358928189947207 $101 $172 forward 7 unknown #
face $-1 $173 $174 $23 $-1 $175 reversed single #
loop $-1 $-1 $176 $64 #
plane-surface $-1 74.317162866827957 -21.920699773582164 162.88940992137344 0 1 0 0.77714596973225614 0 0.62932038083071107 forward_v I I I I #
coedge $-1 $177 $178 $179 $180 reversed $65 $-1 #
coedge $-1 $108 $67 $181 $182 reversed $42 $-1 #
coedge $-1 $67 $107 $177 $183 reversed $42 $-1 #
coedge $-1 $179 $184 $67 $110 forward $185 $-1 #
edge $-1 $186 -20.200346756533229 $187 -12.289077884802701 $109 $188 forward 7 unknown #
loop $-1 $-1 $116 $68 #
plane-surface $-1 -14.835356875130771 -18.854846074788661 90.695124856295479 0.77714596973225614 0 0.62932038083071107 0.62932038083071107 0 -0.77714596973225614 forward_v I I I I #
loop $-1 $-1 $189 $44 #
coedge $-1 $114 $114 $115 $190 reversed $69 $-1 #
coedge $-1 $115 $115 $114 $190 forward $71 $-1 #
coedge $-1 $116 $116 $72 $117 forward $111 $-1 #
edge $-1 $191 0 $191 6.2831853071796004 $116 $192 forward 7 unknown #
loop $-1 $-1 $123 $73 #
plane-surface $-1 -14.835356875130771 -18.854846074788661 90.695124856295479 0.77714596973225614 0 0.62932038083071107 0.62932038083071107 0 -0.77714596973225614 forward_v I I I I #
loop $-1 $-1 $193 $47 #
coedge $-1 $121 $121 $122 $194 reversed $74 $-1 #
coedge $-1 $122 $122 $121 $194 forward $76 $-1 #
coedge $-1 $123 $123 $77 $124 forward $118 $-1 #
edge $-1 $195 0 $195 6.2831853071796004 $123 $196 forward 7 unknown #
face $-1 $197 $198 $26 $-1 $199 forward single #
loop $-1 $-1 $200 $78 #
plane-surface $-1 -156.70750696997709 -10.019290294033388 58.155723670635325 0 -1 0 0.86602541151947299 0 -0.49999998660252726 forward_v I I I I #
coedge $-1 $201 $202 $203 $204 reversed $79 $-1 #
coedge $-1 $130 $81 $205 $206 reversed $51 $-1 #
coedge $-1 $81 $129 $201 $207 reversed $51 $-1 #
coedge $-1 $203 $208 $81 $132 forward $198 $-1 #
edge $-1 $209 20.994825295041338 $210 27.06590090786078 $131 $211 forward 7 unknown #
loop $-1 $-1 $138 $82 #
plane-surface $-1 -57.358928189947235 -15.969995033807777 0.79679701761747168 -0.86602541151947299 0 0.49999998660252726 0.49999998660252726 0 0.86602541151947299 forward_v I I I I #
loop $-1 $-1 $212 $53 #
coedge $-1 $136 $136 $137 $213 reversed $83 $-1 #
coedge $-1 $137 $137 $136 $213 forward $85 $-1 #
coedge $-1 $138 $138 $86 $139 forward $133 $-1 #
edge $-1 $214 0 $214 6.2831853071796004 $138 $215 forward 7 unknown #
face $-1 $216 $217 $21 $-1 $218 reversed single #
loop $-1 $-1 $219 $87 #
plane-surface $-1 -57.358928189947207 0 0 1 0 0 0 0 -1 forward_v I I I I #
coedge $-1 $220 $151 $221 $222 forward $88 $-1 #
coedge $-1 $223 $90 $220 $224 forward $57 $-1 #
coedge $-1 $90 $223 $225 $226 forward $57 $-1 #
coedge $-1 $154 $153 $90 $147 reversed $155 $-1 #
edge $-1 $227 -36.646380626181454 $228 36.646380626181454 $146 $229 forward 7 unknown #
coedge $-1 $92 $91 $230 $231 forward $36 $-1 #
coedge $-1 $232 $233 $91 $150 reversed $217 $-1 #
edge $-1 $157 -57.358928189947207 $234 57.358928189947207 $149 $235 forward 7 unknown #
coedge $-1 $143 $236 $92 $152 reversed $88 $-1 #
edge $-1 $237 -57.358928189947207 $156 57.358928189947207 $151 $238 forward 7 unknown #
coedge $-1 $146 $93 $236 $239 forward $155 $-1 #
coedge $-1 $93 $146 $232 $240 reversed $155 $-1 #
loop $-1 $-1 $153 $216 #
vertex $-1 $94 $241 #
vertex $-1 $94 $242 #
straight-curve $-1 57.358928189947207 0 11.312208811292994 0 1 0 I I #
face $-1 $243 $244 $22 $-1 $245 reversed single #
loop $-1 $-1 $246 $95 #
plane-surface $-1 0 -44.009221052481095 -7.3413836825953993 0 0 1 1 0 0 forward_v I I I I #
coedge $-1 $101 $247 $248 $249 forward $96 $-1 #
coedge $-1 $250 $98 $251 $252 reversed $61 $-1 #
coedge $-1 $98 $250 $169 $253 reversed $61 $-1 #
edge $-1 $170 0.66011358997314984 $254 7.3413836825953993 $98 $255 forward 7 unknown #
coedge $-1 $100 $99 $256 $257 forward $39 $-1 #
coedge $-1 $248 $258 $99 $168 forward $259 $-1 #
edge $-1 $260 -7.3413836825953993 $171 -0.66011358997314984 $167 $261 forward 7 unknown #
coedge $-1 $247 $101 $164 $253 forward $96 $-1 #
vertex $-1 $165 $262 #
vertex $-1 $249 $263 #
straight-curve $-1 0 -36.646380626181454 -0.66011358997314984 1 0 0 I I #
face $-1 $-1 $185 $23 $-1 $264 forward single #
loop $-1 $-1 $265 $103 #
plane-surface $-1 57.358928189947207 0 0 -1 0 0 0 0 1 forward_v I I I I #
coedge $-1 $266 $267 $268 $269 reversed $104 $-1 #
coedge $-1 $270 $106 $108 $183 forward $65 $-1 #
coedge $-1 $106 $270 $266 $271 forward $65 $-1 #
coedge $-1 $268 $109 $106 $180 forward $185 $-1 #
edge $-1 $187 6.361569338600825 $272 12.493276736187834 $179 $273 forward 7 unknown #
coedge $-1 $274 $275 $107 $182 forward $174 $-1 #
edge $-1 $276 -79.902099846349984 $186 -70.132496149393731 $181 $277 forward 7 unknown #
edge $-1 $187 102.14672550171193 $276 114.71785637989441 $108 $278 forward 7 unknown #
coedge $-1 $109 $268 $274 $279 forward $185 $-1 #
loop $-1 $-1 $268 $173 #
vertex $-1 $182 $280 #
vertex $-1 $110 $281 #
straight-curve $-1 37.158581433413978 -15.788992375995155 11.31220881129299 -1 0 0 I I #
coedge $-1 $189 $189 $-1 $282 reversed $113 $-1 #
edge $-1 $283 0 $283 6.2831853071796004 $114 $284 forward 7 unknown #
vertex $-1 $117 $285 #
ellipse-curve $-1 53.403293754081936 -20.168783374271595 6.4274069628148753 0.77714596973225614 0 0.62932038083071107 0.31466019041535553 0 -0.38857298486612807 1 I I #
coedge $-1 $193 $193 $-1 $286 reversed $120 $-1 #
edge $-1 $287 0 $287 6.2831853071796004 $121 $288 forward 7 unknown #
vertex $-1 $124 $289 #
ellipse-curve $-1 53.403293754081936 -17.540908775305734 6.4274069628148753 0.77714596973225614 0 0.62932038083071107 0.31466019041535553 0 -0.38857298486612807 1 I I #
face $-1 $-1 $290 $26 $-1 $291 reversed single #
loop $-1 $-1 $131 $125 #
plane-surface $-1 0 0 11.312208811292994 0 0 1 1 0 0 forward_v I I I I #
coedge $-1 $292 $293 $294 $295 reversed $126 $-1 #
coedge $-1 $296 $128 $130 $207 forward $79 $-1 #
coedge $-1 $128 $296 $292 $297 forward $79 $-1 #
coedge $-1 $294 $131 $128 $204 forward $198 $-1 #
edge $-1 $210 -13.935702256678276 $298 -2.0342927771294992 $203 $299 forward 7 unknown #
coedge $-1 $300 $301 $129 $206 forward $290 $-1 #
edge $-1 $302 -28.281064817700141 $209 -17.765653024024669 $205 $303 forward 7 unknown #
edge $-1 $210 -12.142151550987228 $302 -5.6804478218250136e-014 $130 $304 forward 7 unknown #
coedge $-1 $131 $294 $300 $305 forward $198 $-1 #
vertex $-1 $132 $306 #
vertex $-1 $132 $307 #
straight-curve $-1 -78.353753484988545 -21.920699773582164 11.312208811292994 1 0 0 I I #
coedge $-1 $212 $212 $-1 $308 reversed $135 $-1 #
edge $-1 $309 0 $309 6.2831853071796004 $136 $310 forward 7 unknown #
vertex $-1 $139 $311 #
ellipse-curve $-1 -54.323390383537493 -15.969995033807777 6.0545029144552434 -0.86602541151947299 0 0.49999998660252726 1.2499999665063182 0 2.1650635287986826 1 I I #
face $-1 $-1 $155 $21 $-1 $312 reversed single #
loop $-1 $-1 $232 $140 #
plane-surface $-1 0 36.646380626181454 0 0 -1 0 0 0 -1 forward_v I I I I #
coedge $-1 $313 $230 $233 $314 forward $141 $-1 #
coedge $-1 $236 $143 $144 $224 reversed $88 $-1 #
coedge $-1 $230 $313 $143 $222 reversed $141 $-1 #
edge $-1 $237 -11.312208811292994 $315 11.312208811292994 $221 $316 forward 7 unknown #
coedge $-1 $145 $144 $313 $317 forward $57 $-1 #
edge $-1 $228 -57.358928189947207 $315 57.358928189947207 $220 $318 forward 7 unknown #
coedge $-1 $233 $232 $145 $226 reversed $217 $-1 #
edge $-1 $319 -57.358928189947207 $227 57.358928189947207 $225 $320 forward 7 unknown #
vertex $-1 $147 $321 #
vertex $-1 $239 $322 #
straight-curve $-1 57.358928189947207 0 -11.312208811292994 0 -1 0 I I #
coedge $-1 $219 $221 $148 $231 reversed $141 $-1 #
edge $-1 $234 -36.646380626181454 $237 36.646380626181454 $230 $323 forward 7 unknown #
coedge $-1 $225 $149 $154 $240 forward $217 $-1 #
coedge $-1 $149 $225 $219 $314 reversed $217 $-1 #
vertex $-1 $150 $324 #
straight-curve $-1 0 36.646380626181454 11.312208811292994 -1 0 0 I I #
coedge $-1 $151 $220 $153 $239 reversed $88 $-1 #
vertex $-1 $231 $325 #
straight-curve $-1 0 -36.646380626181454 11.312208811292994 1 0 0 I I #
edge $-1 $156 -11.312208811292994 $228 11.312208811292994 $153 $326 forward 7 unknown #
edge $-1 $157 -11.312208811292994 $227 11.312208811292994 $154 $327 forward 7 unknown #
point $-1 57.358928189947207 -36.646380626181454 11.312208811292994 #
point $-1 57.358928189947207 36.646380626181454 11.312208811292994 #
face $-1 $-1 $259 $22 $-1 $328 reversed single #
loop $-1 $-1 $329 $159 #
plane-surface $-1 0 -51.372061478780736 -4.0007486362842748 0 1 0 0 0 1 forward_v I I I I #
coedge $-1 $330 $256 $258 $331 forward $160 $-1 #
coedge $-1 $162 $169 $332 $333 forward $96 $-1 #
coedge $-1 $334 $167 $162 $249 reversed $259 $-1 #
edge $-1 $335 -7.3628404262996412 $171 7.3628404262996412 $248 $336 forward 7 unknown #
coedge $-1 $164 $163 $329 $337 reversed $61 $-1 #
coedge $-1 $256 $330 $163 $252 forward $160 $-1 #
edge $-1 $338 -7.3628404262996412 $254 7.3628404262996412 $163 $339 forward 7 unknown #
edge $-1 $170 -7.3628404262996412 $340 7.3628404262996412 $164 $341 forward 7 unknown #
vertex $-1 $165 $342 #
straight-curve $-1 -57.358928189947207 -36.646380626181454 0 0 0 -1 I I #
coedge $-1 $246 $251 $166 $257 reversed $160 $-1 #
edge $-1 $260 -57.358928189947207 $254 57.358928189947207 $256 $343 forward 7 unknown #
coedge $-1 $167 $334 $246 $331 reversed $259 $-1 #
loop $-1 $-1 $167 $243 #
vertex $-1 $168 $344 #
straight-curve $-1 57.358928189947207 -36.646380626181454 0 0 0 1 I I #
point $-1 -57.358928189947207 -36.646380626181454 -0.66011358997314984 #
point $-1 57.358928189947207 -36.646380626181454 -0.66011358997314984 #
plane-surface $-1 0 0 11.312208811292994 0 0 1 1 0 0 forward_v I I I I #
coedge $-1 $275 $274 $267 $345 forward $174 $-1 #
coedge $-1 $267 $176 $178 $271 reversed $104 $-1 #
coedge $-1 $176 $266 $265 $345 reversed $104 $-1 #
coedge $-1 $184 $179 $176 $269 forward $185 $-1 #
edge $-1 $272 12.289077884802701 $346 20.200346756533229 $268 $347 forward 7 unknown #
coedge $-1 $178 $177 $275 $348 reversed $65 $-1 #
edge $-1 $349 -114.71785637989441 $272 -102.14672550171193 $266 $350 forward 7 unknown #
vertex $-1 $180 $351 #
straight-curve $-1 49.447659318216672 -9.4274230373943304 11.312208811293004 0 -1 0 I I #
coedge $-1 $265 $181 $184 $279 reversed $174 $-1 #
coedge $-1 $181 $265 $270 $348 forward $174 $-1 #
vertex $-1 $182 $352 #
straight-curve $-1 57.358928189947207 -15.788992375995155 81.444704960686721 0 0 1 I I #
straight-curve $-1 -14.835356875130771 -15.788992375995155 90.695124856295479 0.62932038083071107 0 -0.77714596973225614 I I #
edge $-1 $346 -21.920699773582164 $186 -15.788992375995155 $274 $353 forward 7 unknown #
point $-1 57.358928189947207 -15.788992375995155 11.312208811292994 #
point $-1 49.447659318216679 -15.788992375995155 11.31220881129299 #
edge $-1 $354 1 $354 0 $189 $-1 forward 7 unknown #
vertex $-1 $190 $355 #
ellipse-curve $-1 52.193377542652115 -20.168783374271595 5.4476361596379714 0.77714596973225614 0 0.62932038083071107 0.31466019041535553 0 -0.38857298486612807 1 I I #
point $-1 53.717953944497303 -20.168783374271595 6.0388339779487561 #
edge $-1 $356 1 $356 0 $193 $-1 forward 7 unknown #
vertex $-1 $194 $357 #
ellipse-curve $-1 52.193377542652115 -17.540908775305734 5.4476361596379714 0.77714596973225614 0 0.62932038083071107 0.31466019041535553 0 -0.38857298486612807 1 I I #
point $-1 53.717953944497303 -17.540908775305734 6.0388339779487561 #
loop $-1 $-1 $205 $197 #
plane-surface $-1 -57.358928189947207 0 0 1 0 0 0 0 -1 forward_v I I I I #
coedge $-1 $293 $200 $202 $297 reversed $126 $-1 #
coedge $-1 $200 $292 $358 $359 reversed $126 $-1 #
coedge $-1 $208 $203 $200 $295 forward $198 $-1 #
edge $-1 $298 -27.06590090786078 $360 -20.994825295041338 $294 $361 forward 7 unknown #
coedge $-1 $202 $201 $301 $362 reversed $79 $-1 #
edge $-1 $363 5.6804478218250136e-014 $298 12.142151550987228 $292 $364 forward 7 unknown #
vertex $-1 $204 $365 #
straight-curve $-1 -51.287852577127765 -7.9849975169038885 11.312208811292994 0 1 0 I I #
coedge $-1 $358 $205 $208 $305 reversed $290 $-1 #
coedge $-1 $205 $358 $296 $362 forward $290 $-1 #
vertex $-1 $206 $366 #
straight-curve $-1 -57.358928189947207 -21.920699773582164 29.077861835317663 0 0 1 I I #
straight-curve $-1 -57.358928189947235 -21.920699773582164 0.79679701761747168 -0.49999998660252726 0 -0.86602541151947299 I I #
edge $-1 $360 10.019290294033388 $209 21.920699773582164 $300 $367 forward 7 unknown #
point $-1 -57.358928189947207 -21.920699773582164 11.312208811292994 #
point $-1 -51.287852577127765 -21.920699773582164 11.312208811292994 #
edge $-1 $368 1 $368 0 $212 $-1 forward 7 unknown #
vertex $-1 $213 $369 #
ellipse-curve $-1 -48.194252592622995 -15.969995033807777 2.5158436873946921 -0.86602541151947299 0 0.49999998660252726 1.2499999665063182 0 2.1650635287986826 1 I I #
point $-1 -53.073390417031149 -15.969995033807777 8.2195664432539104 #
plane-surface $-1 57.358928189947207 0 0 -1 0 0 0 0 1 forward_v I I I I #
coedge $-1 $221 $219 $223 $317 reversed $141 $-1 #
edge $-1 $234 -11.312208811292994 $319 11.312208811292994 $233 $370 forward 7 unknown #
vertex $-1 $317 $371 #
straight-curve $-1 -57.358928189947207 -36.646380626181454 0 0 0 -1 I I #
edge $-1 $315 -36.646380626181454 $319 36.646380626181454 $313 $372 forward 7 unknown #
straight-curve $-1 0 -36.646380626181454 -11.312208811292994 -1 0 0 I I #
vertex $-1 $226 $373 #
straight-curve $-1 0 36.646380626181454 -11.312208811292994 1 0 0 I I #
point $-1 57.358928189947207 36.646380626181454 -11.312208811292994 #
point $-1 57.358928189947207 -36.646380626181454 -11.312208811292994 #
straight-curve $-1 -57.358928189947207 0 11.312208811292994 0 -1 0 I I #
point $-1 -57.358928189947207 36.646380626181454 11.312208811292994 #
point $-1 -57.358928189947207 -36.646380626181454 11.312208811292994 #
straight-curve $-1 57.358928189947207 -36.646380626181454 0 0 0 -1 I I #
straight-curve $-1 57.358928189947207 36.646380626181454 0 0 0 -1 I I #
plane-surface $-1 57.358928189947207 0 0 -1 0 0 0 0 1 forward_v I I I I #
coedge $-1 $374 $332 $250 $337 forward $244 $-1 #
coedge $-1 $251 $246 $374 $375 forward $160 $-1 #
edge $-1 $260 -7.3628404262996412 $376 7.3628404262996412 $258 $377 forward 7 unknown #
coedge $-1 $329 $378 $247 $333 reversed $244 $-1 #
edge $-1 $340 -57.358928189947207 $335 57.358928189947207 $332 $379 forward 7 unknown #
coedge $-1 $258 $248 $378 $380 forward $259 $-1 #
vertex $-1 $249 $381 #
straight-curve $-1 57.358928189947207 -44.009221052481095 -0.66011358997314984 0 1 0 I I #
edge $-1 $340 -3.340635046311125 $338 3.3406350463111245 $250 $382 forward 7 unknown #
vertex $-1 $252 $383 #
straight-curve $-1 -57.358928189947207 -44.009221052481095 -7.3413836825953993 0 1 0 I I #
vertex $-1 $253 $384 #
straight-curve $-1 -57.358928189947207 -44.009221052481095 -0.66011358997314984 0 -1 0 I I #
point $-1 -57.358928189947207 -36.646380626181454 -7.3413836825953993 #
straight-curve $-1 0 -36.646380626181454 -7.3413836825953993 -1 0 0 I I #
point $-1 57.358928189947207 -36.646380626181454 -7.3413836825953993 #
edge $-1 $346 70.132496149393731 $349 79.902099846349984 $265 $385 forward 7 unknown #
vertex $-1 $279 $386 #
straight-curve $-1 37.158581433413978 -21.920699773582164 11.31220881129299 1 0 0 I I #
edge $-1 $349 -12.493276736187834 $276 -6.361569338600825 $275 $387 forward 7 unknown #
vertex $-1 $348 $388 #
straight-curve $-1 -14.835356875130771 -21.920699773582164 90.695124856295479 -0.62932038083071107 0 0.77714596973225614 I I #
point $-1 49.447659318216679 -21.920699773582164 11.31220881129299 #
point $-1 57.358928189947207 -15.788992375995155 1.5426051143367374 #
straight-curve $-1 57.358928189947207 0 11.312208811292994 0 1 0 I I #
vertex $-1 $282 $389 #
point $-1 52.508037733067468 -20.168783374271595 5.0590631747718433 #
vertex $-1 $286 $390 #
point $-1 52.508037733067468 -17.540908775305734 5.0590631747718433 #
coedge $-1 $301 $300 $293 $359 forward $290 $-1 #
edge $-1 $360 17.765653024024669 $363 28.281064817700141 $358 $391 forward 7 unknown #
vertex $-1 $305 $392 #
straight-curve $-1 -78.353753484988545 -10.019290294033388 11.312208811292994 -1 0 0 I I #
edge $-1 $363 2.0342927771294992 $302 13.935702256678276 $301 $393 forward 7 unknown #
vertex $-1 $362 $394 #
straight-curve $-1 -57.358928189947235 -10.019290294033388 0.79679701761747168 0.49999998660252726 0 0.86602541151947299 I I #
point $-1 -51.287852577127765 -10.019290294033388 11.312208811292994 #
point $-1 -57.358928189947207 -21.920699773582164 0.79679701761752086 #
straight-curve $-1 -57.358928189947207 0 11.312208811292994 0 -1 0 I I #
vertex $-1 $308 $395 #
point $-1 -46.944252626116679 -15.969995033807777 4.6809072161933747 #
straight-curve $-1 -57.358928189947207 36.646380626181454 0 0 0 -1 I I #
point $-1 -57.358928189947207 -36.646380626181454 -11.312208811292994 #
straight-curve $-1 -57.358928189947207 0 -11.312208811292994 0 1 0 I I #
point $-1 -57.358928189947207 36.646380626181454 -11.312208811292994 #
coedge $-1 $378 $329 $330 $375 reversed $244 $-1 #
edge $-1 $376 -57.358928189947207 $338 57.358928189947207 $374 $396 forward 7 unknown #
vertex $-1 $380 $397 #
straight-curve $-1 57.358928189947207 -44.009221052481095 -7.3413836825953993 0 -1 0 I I #
coedge $-1 $332 $374 $334 $380 reversed $244 $-1 #
straight-curve $-1 0 -51.372061478780736 -0.66011358997314984 1 0 0 I I #
edge $-1 $335 -3.340635046311125 $376 3.3406350463111245 $334 $398 forward 7 unknown #
point $-1 57.358928189947207 -51.372061478780736 -0.66011358997314984 #
straight-curve $-1 -57.358928189947207 -51.372061478780736 -4.0007486362842748 0 0 -1 I I #
point $-1 -57.358928189947207 -51.372061478780736 -7.3413836825953993 #
point $-1 -57.358928189947207 -51.372061478780736 -0.66011358997314984 #
straight-curve $-1 57.358928189947207 -21.920699773582164 81.444704960686721 0 0 -1 I I #
point $-1 57.358928189947207 -21.920699773582164 11.312208811292994 #
straight-curve $-1 57.358928189947207 -9.4274230373943304 1.5426051143367374 0 1 0 I I #
point $-1 57.358928189947207 -21.920699773582164 1.5426051143367374 #
point $-1 51.804804557785985 -20.168783374271595 5.1329759692226151 #
point $-1 51.804804557785985 -17.540908775305734 5.1329759692226151 #
straight-curve $-1 -57.358928189947207 -10.019290294033388 29.077861835317663 0 0 -1 I I #
point $-1 -57.358928189947207 -10.019290294033388 11.312208811292994 #
straight-curve $-1 -57.358928189947207 -7.9849975169038885 0.79679701761752142 0 -1 0 I I #
point $-1 -57.358928189947207 -10.019290294033388 0.79679701761752086 #
point $-1 -46.029189063824312 -15.969995033807777 1.2658437208883737 #
straight-curve $-1 0 -51.372061478780736 -7.3413836825953993 -1 0 0 I I #
point $-1 57.358928189947207 -51.372061478780736 -7.3413836825953993 #
straight-curve $-1 57.358928189947207 -51.372061478780736 -4.0007486362842748 0 0 -1 I I #
End-of-ACIS-data 