500 0 3 0           
7 Unknown 11 ACIS 5.0 NT 24 Thu Mar 25 15:29:18 1999 
-1 9.9999999999999995e-007 1e-010 
body $-1 $3 $-1 $4 #
body $-1 $5 $-1 $6 #
body $-1 $7 $-1 $8 #
lump $-1 $-1 $9 $0 #
transform $-1 1 0 0 0 1 0 0 0 1 51.594592120120851 27.925197051641327 10.027827726314209 1 rotate no_reflect no_shear #
lump $-1 $-1 $10 $1 #
transform $-1 1 0 0 0 1 0 0 0 1 51.594592120120851 27.925197051641327 10.027827726314209 1 rotate no_reflect no_shear #
lump $-1 $-1 $11 $2 #
transform $-1 1 0 0 0 1 0 0 0 1 51.594592120120851 27.925197051641327 10.027827726314209 1 rotate no_reflect no_shear #
shell $-1 $-1 $-1 $12 $-1 $3 #
shell $-1 $-1 $-1 $13 $-1 $5 #
shell $-1 $-1 $-1 $14 $-1 $7 #
face $-1 $15 $16 $9 $-1 $17 forward single #
face $-1 $18 $19 $10 $-1 $20 forward single #
face $-1 $21 $22 $11 $-1 $23 reversed single #
face $-1 $24 $25 $9 $-1 $26 reversed single #
loop $-1 $-1 $27 $12 #
plane-surface $-1 0 0 10.027827726314209 0 0 1 1 0 0 forward_v I I I I #
face $-1 $28 $29 $10 $-1 $30 forward single #
loop $-1 $-1 $31 $13 #
plane-surface $-1 -0.98142186602338555 63.35634180950894 118.1571715199325 1 0 0 0 -0.71933980857756763 -0.69465836192734942 forward_v I I I I #
face $-1 $32 $33 $11 $-1 $34 reversed single #
loop $-1 $35 $36 $14 #
cone-surface $-1 11.092377167085374 25.095372334734638 7.1694035936238825 0 -0.71933980857756763 -0.69465836192734942 1 0 0 1 I I 0 1 1 forward I I I I #
face $-1 $37 $38 $9 $-1 $39 reversed single #
loop $-1 $-1 $40 $15 #
plane-surface $-1 0 0 -10.027827726314209 0 0 1 1 0 0 forward_v I I I I #
coedge $-1 $41 $42 $43 $44 forward $16 $-1 #
face $-1 $45 $46 $10 $-1 $47 forward single #
loop $-1 $-1 $48 $18 #
plane-surface $-1 11.092377167085374 -10.871746229141884 46.475941826986741 0 0.71933980857756763 0.69465836192734942 1 0 0 forward_v I I I I #
coedge $-1 $49 $50 $51 $52 reversed $19 $-1 #
face $-1 $53 $54 $11 $-1 $55 forward single #
loop $-1 $56 $57 $21 #
cone-surface $-1 11.092377167085374 23.705582446688126 5.8272991312521452 0 -0.71933980857756763 -0.69465836192734942 0.5 0 0 1 I I -0.70710678118654746 0.70710678118654746 0.5 forward I I I I #
loop $-1 $-1 $58 $14 #
coedge $-1 $36 $36 $59 $60 reversed $22 $-1 #
face $-1 $61 $62 $9 $-1 $63 reversed single #
loop $-1 $-1 $64 $24 #
plane-surface $-1 0 -27.925197051641327 0 0 1 0 0 0 1 forward_v I I I I #
coedge $-1 $65 $66 $67 $68 forward $25 $-1 #
coedge $-1 $69 $27 $70 $71 forward $16 $-1 #
coedge $-1 $27 $69 $72 $73 forward $16 $-1 #
coedge $-1 $74 $75 $27 $44 reversed $76 $-1 #
edge $-1 $77 -27.925197051641327 $78 27.925197051641327 $43 $79 forward 7 unknown #
face $-1 $80 $81 $10 $-1 $82 forward single #
loop $-1 $-1 $83 $28 #
plane-surface $-1 23.166176200194133 63.35634180950894 118.1571715199325 -1 0 0 0 0.71933980857756763 0.69465836192734942 forward_v I I I I #
coedge $-1 $84 $85 $86 $87 reversed $29 $-1 #
coedge $-1 $50 $31 $85 $88 forward $19 $-1 #
coedge $-1 $31 $49 $89 $90 reversed $19 $-1 #
coedge $-1 $91 $86 $31 $52 forward $81 $-1 #
edge $-1 $92 -7.3523833194110644 $93 -3.7529738531131436 $51 $94 forward 7 unknown #
face $-1 $95 $96 $11 $-1 $97 forward single #
loop $-1 $-1 $98 $32 #
plane-surface $-1 -0.98142186602338555 63.35634180950894 118.1571715199325 1 0 0 0 -0.71933980857756763 -0.69465836192734942 forward_v I I I I #
loop $-1 $-1 $99 $21 #
coedge $-1 $57 $57 $58 $100 forward $33 $-1 #
coedge $-1 $58 $58 $57 $100 reversed $35 $-1 #
coedge $-1 $59 $59 $36 $60 forward $96 $-1 #
edge $-1 $101 -1.2778041888196294e-015 $101 6.2831853071795996 $59 $102 forward 7 unknown #
face $-1 $103 $104 $9 $-1 $105 reversed single #
loop $-1 $-1 $106 $37 #
plane-surface $-1 -51.594592120120851 0 0 1 0 0 0 0 -1 forward_v I I I I #
coedge $-1 $107 $72 $108 $109 forward $38 $-1 #
coedge $-1 $110 $40 $107 $111 forward $25 $-1 #
coedge $-1 $40 $110 $112 $113 forward $25 $-1 #
coedge $-1 $75 $74 $40 $68 reversed $76 $-1 #
edge $-1 $114 -27.925197051641327 $115 27.925197051641327 $67 $116 forward 7 unknown #
coedge $-1 $42 $41 $117 $118 forward $16 $-1 #
coedge $-1 $119 $120 $41 $71 reversed $104 $-1 #
edge $-1 $78 -51.594592120120851 $121 51.594592120120851 $70 $122 forward 7 unknown #
coedge $-1 $64 $123 $42 $73 reversed $38 $-1 #
edge $-1 $124 -51.594592120120851 $77 51.594592120120851 $72 $125 forward 7 unknown #
coedge $-1 $67 $43 $123 $126 forward $76 $-1 #
coedge $-1 $43 $67 $119 $127 reversed $76 $-1 #
loop $-1 $-1 $74 $103 #
vertex $-1 $44 $128 #
vertex $-1 $44 $129 #
straight-curve $-1 51.594592120120851 0 10.027827726314209 0 1 0 I I #
face $-1 $130 $131 $10 $-1 $132 reversed single #
loop $-1 $-1 $133 $45 #
plane-surface $-1 0 0 10.027827726314209 0 0 1 1 0 0 forward_v I I I I #
coedge $-1 $134 $135 $133 $136 reversed $46 $-1 #
coedge $-1 $137 $48 $135 $138 reversed $29 $-1 #
coedge $-1 $48 $137 $49 $88 reversed $29 $-1 #
coedge $-1 $51 $133 $48 $87 forward $81 $-1 #
edge $-1 $139 -17.619987616651446 $92 6.5276104495660725 $86 $140 forward 7 unknown #
edge $-1 $92 50.668840603643964 $141 55.850394103282632 $49 $142 forward 7 unknown #
coedge $-1 $143 $144 $50 $90 forward $145 $-1 #
edge $-1 $93 49.050758033652045 $141 52.778055736216551 $89 $146 forward 7 unknown #
coedge $-1 $147 $51 $144 $148 forward $81 $-1 #
vertex $-1 $87 $149 #
vertex $-1 $148 $150 #
straight-curve $-1 -0.98142186602338555 31.67817090475447 10.027827726314207 0 1 0 I I #
face $-1 $151 $152 $11 $-1 $153 forward single #
loop $-1 $154 $59 $53 #
plane-surface $-1 11.092377167085374 -10.871746229141884 46.475941826986741 0 0.71933980857756763 0.69465836192734942 1 0 0 forward_v I I I I #
coedge $-1 $155 $156 $157 $158 reversed $54 $-1 #
coedge $-1 $99 $99 $-1 $159 forward $56 $-1 #
edge $-1 $160 0 $160 6.2831853071796004 $57 $161 forward 7 unknown #
vertex $-1 $60 $162 #
ellipse-curve $-1 11.092377167085374 26.125492318492366 8.1641788750319471 0 -0.71933980857756763 -0.69465836192734942 1 0 0 1 I I #
face $-1 $-1 $76 $9 $-1 $163 reversed single #
loop $-1 $-1 $119 $61 #
plane-surface $-1 0 27.925197051641327 0 0 -1 0 0 0 -1 forward_v I I I I #
coedge $-1 $164 $117 $120 $165 forward $62 $-1 #
coedge $-1 $123 $64 $65 $111 reversed $38 $-1 #
coedge $-1 $117 $164 $64 $109 reversed $62 $-1 #
edge $-1 $124 -10.027827726314209 $166 10.027827726314209 $108 $167 forward 7 unknown #
coedge $-1 $66 $65 $164 $168 forward $25 $-1 #
edge $-1 $115 -51.594592120120851 $166 51.594592120120851 $107 $169 forward 7 unknown #
coedge $-1 $120 $119 $66 $113 reversed $104 $-1 #
edge $-1 $170 -51.594592120120851 $114 51.594592120120851 $112 $171 forward 7 unknown #
vertex $-1 $68 $172 #
vertex $-1 $126 $173 #
straight-curve $-1 51.594592120120851 0 -10.027827726314209 0 -1 0 I I #
coedge $-1 $106 $108 $69 $118 reversed $62 $-1 #
edge $-1 $121 -27.925197051641327 $124 27.925197051641327 $117 $174 forward 7 unknown #
coedge $-1 $112 $70 $75 $127 forward $104 $-1 #
coedge $-1 $70 $112 $106 $165 reversed $104 $-1 #
vertex $-1 $71 $175 #
straight-curve $-1 0 27.925197051641327 10.027827726314209 -1 0 0 I I #
coedge $-1 $72 $107 $74 $126 reversed $38 $-1 #
vertex $-1 $118 $176 #
straight-curve $-1 0 -27.925197051641327 10.027827726314209 1 0 0 I I #
edge $-1 $77 -10.027827726314209 $115 10.027827726314209 $74 $177 forward 7 unknown #
edge $-1 $78 -10.027827726314209 $114 10.027827726314209 $75 $178 forward 7 unknown #
point $-1 51.594592120120851 -27.925197051641327 10.027827726314209 #
point $-1 51.594592120120851 27.925197051641327 10.027827726314209 #
face $-1 $179 $180 $10 $-1 $181 reversed single #
loop $-1 $-1 $182 $80 #
plane-surface $-1 0 0 -10.027827726314209 0 0 1 1 0 0 forward_v I I I I #
coedge $-1 $86 $183 $83 $136 forward $81 $-1 #
coedge $-1 $135 $83 $184 $185 reversed $46 $-1 #
coedge $-1 $83 $134 $84 $138 forward $46 $-1 #
edge $-1 $186 3.7529738531131436 $139 7.3523833194110644 $133 $187 forward 7 unknown #
coedge $-1 $85 $84 $143 $188 reversed $29 $-1 #
edge $-1 $189 -55.850394103282632 $139 -50.668840603643964 $135 $190 forward 7 unknown #
vertex $-1 $87 $191 #
straight-curve $-1 5.546188583542687 24.325787585343399 10.027827726314207 -1 0 0 I I #
vertex $-1 $188 $192 #
straight-curve $-1 -0.98142186602338555 -10.871746229141884 46.475941826986741 0 0.69465836192734942 -0.71933980857756763 I I #
coedge $-1 $184 $89 $137 $188 forward $145 $-1 #
coedge $-1 $89 $193 $91 $148 reversed $145 $-1 #
loop $-1 $-1 $184 $194 #
straight-curve $-1 -0.98142186602338555 27.925197051641327 59.078585759966252 0 0 -1 I I #
coedge $-1 $195 $91 $196 $197 forward $81 $-1 #
edge $-1 $93 0.98142186602338555 $198 51.594592120120851 $144 $199 forward 7 unknown #
point $-1 -0.98142186602338555 24.325787585343406 10.027827726314207 #
point $-1 -0.98142186602338555 27.925197051641327 10.027827726314209 #
face $-1 $200 $201 $11 $-1 $202 forward single #
loop $-1 $-1 $203 $95 #
plane-surface $-1 23.166176200194133 63.35634180950894 118.1571715199325 -1 0 0 0 0.71933980857756763 0.69465836192734942 forward_v I I I I #
loop $-1 $-1 $204 $53 #
coedge $-1 $156 $98 $205 $206 forward $54 $-1 #
coedge $-1 $98 $155 $207 $208 reversed $54 $-1 #
coedge $-1 $209 $210 $98 $158 forward $201 $-1 #
edge $-1 $211 -7.3523833194110644 $212 -3.7529738531131436 $157 $213 forward 7 unknown #
edge $-1 $214 1 $214 0 $99 $-1 forward 7 unknown #
vertex $-1 $100 $215 #
ellipse-curve $-1 11.092377167085374 24.065252350976909 6.1746283122158196 0 0.71933980857756763 0.69465836192734942 1 0 0 1 I I #
point $-1 12.092377167085374 26.125492318492366 8.1641788750319453 #
plane-surface $-1 51.594592120120851 0 0 -1 0 0 0 0 1 forward_v I I I I #
coedge $-1 $108 $106 $110 $168 reversed $62 $-1 #
edge $-1 $121 -10.027827726314209 $170 10.027827726314209 $120 $216 forward 7 unknown #
vertex $-1 $168 $217 #
straight-curve $-1 -51.594592120120851 -27.925197051641327 0 0 0 -1 I I #
edge $-1 $166 -27.925197051641327 $170 27.925197051641327 $164 $218 forward 7 unknown #
straight-curve $-1 0 -27.925197051641327 -10.027827726314209 -1 0 0 I I #
vertex $-1 $113 $219 #
straight-curve $-1 0 27.925197051641327 -10.027827726314209 1 0 0 I I #
point $-1 51.594592120120851 27.925197051641327 -10.027827726314209 #
point $-1 51.594592120120851 -27.925197051641327 -10.027827726314209 #
straight-curve $-1 -51.594592120120851 0 10.027827726314209 0 -1 0 I I #
point $-1 -51.594592120120851 27.925197051641327 10.027827726314209 #
point $-1 -51.594592120120851 -27.925197051641327 10.027827726314209 #
straight-curve $-1 51.594592120120851 -27.925197051641327 0 0 0 -1 I I #
straight-curve $-1 51.594592120120851 27.925197051641327 0 0 0 -1 I I #
face $-1 $194 $220 $10 $-1 $221 reversed single #
loop $-1 $-1 $222 $130 #
plane-surface $-1 0 -27.925197051641327 0 0 1 0 0 0 1 forward_v I I I I #
coedge $-1 $223 $224 $225 $226 forward $131 $-1 #
coedge $-1 $133 $227 $228 $229 forward $81 $-1 #
coedge $-1 $228 $143 $134 $185 forward $145 $-1 #
edge $-1 $189 -52.778055736216551 $186 -49.050758033652045 $184 $230 forward 7 unknown #
vertex $-1 $185 $231 #
straight-curve $-1 23.166176200194133 31.67817090475447 10.027827726314207 0 -1 0 I I #
edge $-1 $141 -6.5276104495660725 $189 17.619987616651446 $143 $232 forward 7 unknown #
vertex $-1 $188 $233 #
straight-curve $-1 23.166176200194133 -10.871746229141884 46.475941826986741 0 -0.69465836192734942 0.71933980857756763 I I #
point $-1 23.166176200194133 24.325787585343406 10.027827726314207 #
point $-1 -0.98142186602338555 27.925197051641327 6.3005300237497011 #
coedge $-1 $144 $234 $235 $236 reversed $145 $-1 #
face $-1 $237 $145 $10 $-1 $238 reversed single #
coedge $-1 $227 $147 $239 $240 forward $81 $-1 #
coedge $-1 $235 $241 $147 $197 reversed $220 $-1 #
edge $-1 $198 -27.925197051641327 $242 27.925197051641327 $196 $243 forward 7 unknown #
vertex $-1 $148 $244 #
straight-curve $-1 0 27.925197051641327 10.027827726314209 -1 0 0 I I #
face $-1 $245 $246 $11 $-1 $247 reversed single #
loop $-1 $-1 $248 $151 #
plane-surface $-1 0 0 10.027827726314209 0 0 1 1 0 0 forward_v I I I I #
coedge $-1 $249 $250 $248 $251 reversed $152 $-1 #
coedge $-1 $252 $205 $210 $253 reversed $154 $-1 #
coedge $-1 $204 $254 $155 $206 reversed $154 $-1 #
edge $-1 $211 50.668840603643964 $255 55.850394103282632 $155 $256 forward 7 unknown #
coedge $-1 $257 $258 $156 $208 forward $259 $-1 #
edge $-1 $212 49.050758033652045 $255 52.778055736216551 $207 $260 forward 7 unknown #
coedge $-1 $261 $157 $258 $262 forward $201 $-1 #
coedge $-1 $157 $248 $204 $253 forward $201 $-1 #
vertex $-1 $253 $263 #
vertex $-1 $262 $264 #
straight-curve $-1 -0.98142186602338555 31.67817090475447 10.027827726314207 0 1 0 I I #
vertex $-1 $159 $265 #
point $-1 12.092377167085374 24.065252350976909 6.1746283122158196 #
straight-curve $-1 -51.594592120120851 27.925197051641327 0 0 0 -1 I I #
point $-1 -51.594592120120851 -27.925197051641327 -10.027827726314209 #
straight-curve $-1 -51.594592120120851 0 -10.027827726314209 0 1 0 I I #
point $-1 -51.594592120120851 27.925197051641327 -10.027827726314209 #
loop $-1 $-1 $235 $179 #
plane-surface $-1 -51.594592120120851 0 0 1 0 0 0 0 -1 forward_v I I I I #
coedge $-1 $266 $239 $241 $267 forward $180 $-1 #
coedge $-1 $268 $182 $266 $269 forward $131 $-1 #
coedge $-1 $182 $268 $234 $270 forward $131 $-1 #
coedge $-1 $271 $272 $182 $226 reversed $273 $-1 #
edge $-1 $274 -27.925197051641327 $275 27.925197051641327 $225 $276 forward 7 unknown #
coedge $-1 $183 $195 $277 $278 forward $81 $-1 #
coedge $-1 $279 $184 $183 $229 reversed $145 $-1 #
edge $-1 $280 -51.594592120120851 $186 -23.166176200194133 $228 $199 forward 7 unknown #
straight-curve $-1 23.166176200194133 27.925197051641327 59.078585759966252 0 0 1 I I #
point $-1 23.166176200194133 27.925197051641327 10.027827726314209 #
straight-curve $-1 5.546188583542687 27.925197051641327 6.300530023749694 1 0 0 I I #
point $-1 23.166176200194133 27.925197051641327 6.3005300237497011 #
coedge $-1 $193 $279 $224 $270 reversed $145 $-1 #
coedge $-1 $281 $196 $193 $236 forward $220 $-1 #
edge $-1 $198 -10.027827726314209 $282 10.027827726314209 $193 $283 forward 7 unknown #
face $-1 $-1 $273 $10 $-1 $284 reversed single #
plane-surface $-1 0 27.925197051641327 0 0 -1 0 0 0 -1 forward_v I I I I #
coedge $-1 $222 $285 $195 $240 reversed $180 $-1 #
edge $-1 $242 -51.594592120120851 $286 51.594592120120851 $239 $287 forward 7 unknown #
coedge $-1 $196 $281 $222 $267 reversed $220 $-1 #
vertex $-1 $197 $288 #
straight-curve $-1 -51.594592120120851 0 10.027827726314209 0 -1 0 I I #
point $-1 -51.594592120120851 27.925197051641327 10.027827726314209 #
face $-1 $289 $290 $11 $-1 $291 reversed single #
loop $-1 $-1 $292 $200 #
plane-surface $-1 0 0 -10.027827726314209 0 0 1 1 0 0 forward_v I I I I #
coedge $-1 $210 $293 $203 $251 forward $201 $-1 #
coedge $-1 $250 $203 $294 $295 reversed $152 $-1 #
coedge $-1 $203 $249 $252 $296 forward $152 $-1 #
edge $-1 $297 3.7529738531131436 $298 7.3523833194110644 $248 $299 forward 7 unknown #
coedge $-1 $254 $204 $250 $296 reversed $154 $-1 #
edge $-1 $298 -17.619987616651446 $211 6.5276104495660725 $210 $300 forward 7 unknown #
coedge $-1 $205 $252 $257 $301 reversed $154 $-1 #
vertex $-1 $301 $302 #
straight-curve $-1 -0.98142186602338555 -10.871746229141884 46.475941826986741 0 0.69465836192734942 -0.71933980857756763 I I #
coedge $-1 $294 $207 $254 $301 forward $259 $-1 #
coedge $-1 $207 $303 $209 $262 reversed $259 $-1 #
loop $-1 $-1 $294 $304 #
straight-curve $-1 -0.98142186602338555 27.925197051641327 59.078585759966252 0 0 -1 I I #
coedge $-1 $305 $209 $306 $307 forward $201 $-1 #
edge $-1 $212 0.98142186602338555 $308 51.594592120120851 $258 $309 forward 7 unknown #
point $-1 -0.98142186602338555 24.325787585343406 10.027827726314207 #
point $-1 -0.98142186602338555 27.925197051641327 10.027827726314209 #
point $-1 11.092377167085374 23.345912542399343 5.4799699502884707 #
coedge $-1 $285 $222 $223 $269 reversed $180 $-1 #
edge $-1 $242 -10.027827726314209 $310 10.027827726314209 $241 $311 forward 7 unknown #
coedge $-1 $224 $223 $281 $312 forward $131 $-1 #
edge $-1 $275 -51.594592120120851 $310 51.594592120120851 $266 $313 forward 7 unknown #
edge $-1 $282 -51.594592120120851 $274 51.594592120120851 $234 $314 forward 7 unknown #
coedge $-1 $277 $225 $279 $315 reversed $273 $-1 #
coedge $-1 $225 $277 $285 $316 forward $273 $-1 #
loop $-1 $-1 $272 $237 #
vertex $-1 $226 $317 #
vertex $-1 $316 $318 #
straight-curve $-1 51.594592120120851 0 -10.027827726314209 0 -1 0 I I #
coedge $-1 $272 $271 $227 $278 reversed $273 $-1 #
edge $-1 $286 -27.925197051641327 $280 27.925197051641327 $277 $319 forward 7 unknown #
coedge $-1 $234 $228 $271 $315 forward $145 $-1 #
vertex $-1 $278 $320 #
coedge $-1 $241 $235 $268 $312 reversed $220 $-1 #
vertex $-1 $270 $321 #
straight-curve $-1 -51.594592120120851 27.925197051641327 0 0 0 -1 I I #
plane-surface $-1 51.594592120120851 0 0 -1 0 0 0 0 1 forward_v I I I I #
coedge $-1 $239 $266 $272 $316 reversed $180 $-1 #
vertex $-1 $278 $322 #
straight-curve $-1 0 -27.925197051641327 10.027827726314209 1 0 0 I I #
point $-1 -51.594592120120851 -27.925197051641327 10.027827726314209 #
face $-1 $304 $323 $11 $-1 $324 reversed single #
loop $-1 $-1 $325 $245 #
plane-surface $-1 0 -27.925197051641327 0 0 1 0 0 0 1 forward_v I I I I #
coedge $-1 $326 $327 $328 $329 forward $246 $-1 #
coedge $-1 $248 $330 $331 $332 forward $201 $-1 #
coedge $-1 $331 $257 $249 $295 forward $259 $-1 #
edge $-1 $333 -52.778055736216551 $297 -49.050758033652045 $294 $334 forward 7 unknown #
edge $-1 $333 -55.850394103282632 $298 -50.668840603643964 $250 $335 forward 7 unknown #
vertex $-1 $295 $336 #
vertex $-1 $253 $337 #
straight-curve $-1 23.166176200194133 31.67817090475447 10.027827726314207 0 -1 0 I I #
straight-curve $-1 5.546188583542687 24.325787585343399 10.027827726314207 -1 0 0 I I #
edge $-1 $255 -6.5276104495660725 $333 17.619987616651446 $257 $338 forward 7 unknown #
point $-1 -0.98142186602338555 27.925197051641327 6.3005300237497011 #
coedge $-1 $258 $339 $340 $341 reversed $259 $-1 #
face $-1 $342 $259 $11 $-1 $343 reversed single #
coedge $-1 $330 $261 $344 $345 forward $201 $-1 #
coedge $-1 $340 $346 $261 $307 reversed $323 $-1 #
edge $-1 $308 -27.925197051641327 $347 27.925197051641327 $306 $348 forward 7 unknown #
vertex $-1 $262 $349 #
straight-curve $-1 0 27.925197051641327 10.027827726314209 -1 0 0 I I #
vertex $-1 $312 $350 #
straight-curve $-1 -51.594592120120851 -27.925197051641327 0 0 0 -1 I I #
edge $-1 $310 -27.925197051641327 $282 27.925197051641327 $281 $351 forward 7 unknown #
straight-curve $-1 0 -27.925197051641327 -10.027827726314209 -1 0 0 I I #
straight-curve $-1 0 27.925197051641327 -10.027827726314209 1 0 0 I I #
edge $-1 $280 -10.027827726314209 $274 10.027827726314209 $271 $352 forward 7 unknown #
edge $-1 $286 -10.027827726314209 $275 10.027827726314209 $272 $353 forward 7 unknown #
point $-1 51.594592120120851 27.925197051641327 -10.027827726314209 #
point $-1 51.594592120120851 -27.925197051641327 -10.027827726314209 #
straight-curve $-1 51.594592120120851 0 10.027827726314209 0 1 0 I I #
point $-1 51.594592120120851 27.925197051641327 10.027827726314209 #
point $-1 -51.594592120120851 27.925197051641327 -10.027827726314209 #
point $-1 51.594592120120851 -27.925197051641327 10.027827726314209 #
loop $-1 $-1 $340 $289 #
plane-surface $-1 -51.594592120120851 0 0 1 0 0 0 0 -1 forward_v I I I I #
coedge $-1 $354 $344 $346 $355 forward $290 $-1 #
coedge $-1 $356 $292 $354 $357 forward $246 $-1 #
coedge $-1 $292 $356 $339 $358 forward $246 $-1 #
coedge $-1 $359 $360 $292 $329 reversed $361 $-1 #
edge $-1 $362 -27.925197051641327 $363 27.925197051641327 $328 $364 forward 7 unknown #
coedge $-1 $293 $305 $365 $366 forward $201 $-1 #
coedge $-1 $367 $294 $293 $332 reversed $259 $-1 #
edge $-1 $368 -51.594592120120851 $297 -23.166176200194133 $331 $309 forward 7 unknown #
vertex $-1 $301 $369 #
straight-curve $-1 23.166176200194133 27.925197051641327 59.078585759966252 0 0 1 I I #
straight-curve $-1 23.166176200194133 -10.871746229141884 46.475941826986741 0 -0.69465836192734942 0.71933980857756763 I I #
point $-1 23.166176200194133 27.925197051641327 10.027827726314209 #
point $-1 23.166176200194133 24.325787585343406 10.027827726314207 #
straight-curve $-1 5.546188583542687 27.925197051641327 6.300530023749694 1 0 0 I I #
coedge $-1 $303 $367 $327 $358 reversed $259 $-1 #
coedge $-1 $370 $306 $303 $341 forward $323 $-1 #
edge $-1 $308 -10.027827726314209 $371 10.027827726314209 $303 $372 forward 7 unknown #
face $-1 $-1 $361 $11 $-1 $373 reversed single #
plane-surface $-1 0 27.925197051641327 0 0 -1 0 0 0 -1 forward_v I I I I #
coedge $-1 $325 $374 $305 $345 reversed $290 $-1 #
edge $-1 $347 -51.594592120120851 $375 51.594592120120851 $344 $376 forward 7 unknown #
coedge $-1 $306 $370 $325 $355 reversed $323 $-1 #
vertex $-1 $307 $377 #
straight-curve $-1 -51.594592120120851 0 10.027827726314209 0 -1 0 I I #
point $-1 -51.594592120120851 27.925197051641327 10.027827726314209 #
point $-1 -51.594592120120851 -27.925197051641327 -10.027827726314209 #
straight-curve $-1 -51.594592120120851 0 -10.027827726314209 0 1 0 I I #
straight-curve $-1 51.594592120120851 27.925197051641327 0 0 0 -1 I I #
straight-curve $-1 51.594592120120851 -27.925197051641327 0 0 0 -1 I I #
coedge $-1 $374 $325 $326 $357 reversed $290 $-1 #
edge $-1 $347 -10.027827726314209 $378 10.027827726314209 $346 $379 forward 7 unknown #
coedge $-1 $327 $326 $370 $380 forward $246 $-1 #
edge $-1 $363 -51.594592120120851 $378 51.594592120120851 $354 $381 forward 7 unknown #
edge $-1 $371 -51.594592120120851 $362 51.594592120120851 $339 $382 forward 7 unknown #
coedge $-1 $365 $328 $367 $383 reversed $361 $-1 #
coedge $-1 $328 $365 $374 $384 forward $361 $-1 #
loop $-1 $-1 $360 $342 #
vertex $-1 $329 $385 #
vertex $-1 $384 $386 #
straight-curve $-1 51.594592120120851 0 -10.027827726314209 0 -1 0 I I #
coedge $-1 $360 $359 $330 $366 reversed $361 $-1 #
edge $-1 $375 -27.925197051641327 $368 27.925197051641327 $365 $387 forward 7 unknown #
coedge $-1 $339 $331 $359 $383 forward $259 $-1 #
vertex $-1 $366 $388 #
point $-1 23.166176200194133 27.925197051641327 6.3005300237497011 #
coedge $-1 $346 $340 $356 $380 reversed $323 $-1 #
vertex $-1 $358 $389 #
straight-curve $-1 -51.594592120120851 27.925197051641327 0 0 0 -1 I I #
plane-surface $-1 51.594592120120851 0 0 -1 0 0 0 0 1 forward_v I I I I #
coedge $-1 $344 $354 $360 $384 reversed $290 $-1 #
vertex $-1 $366 $390 #
straight-curve $-1 0 -27.925197051641327 10.027827726314209 1 0 0 I I #
point $-1 -51.594592120120851 -27.925197051641327 10.027827726314209 #
vertex $-1 $380 $391 #
straight-curve $-1 -51.594592120120851 -27.925197051641327 0 0 0 -1 I I #
edge $-1 $378 -27.925197051641327 $371 27.925197051641327 $370 $392 forward 7 unknown #
straight-curve $-1 0 -27.925197051641327 -10.027827726314209 -1 0 0 I I #
straight-curve $-1 0 27.925197051641327 -10.027827726314209 1 0 0 I I #
edge $-1 $368 -10.027827726314209 $362 10.027827726314209 $359 $393 forward 7 unknown #
edge $-1 $375 -10.027827726314209 $363 10.027827726314209 $360 $394 forward 7 unknown #
point $-1 51.594592120120851 27.925197051641327 -10.027827726314209 #
point $-1 51.594592120120851 -27.925197051641327 -10.027827726314209 #
straight-curve $-1 51.594592120120851 0 10.027827726314209 0 1 0 I I #
point $-1 51.594592120120851 27.925197051641327 10.027827726314209 #
point $-1 -51.594592120120851 27.925197051641327 -10.027827726314209 #
point $-1 51.594592120120851 -27.925197051641327 10.027827726314209 #
point $-1 -51.594592120120851 -27.925197051641327 -10.027827726314209 #
straight-curve $-1 -51.594592120120851 0 -10.027827726314209 0 1 0 I I #
straight-curve $-1 51.594592120120851 27.925197051641327 0 0 0 -1 I I #
straight-curve $-1 51.594592120120851 -27.925197051641327 0 0 0 -1 I I #
End-of-ACIS-data 