600 0 12 0           
109 GICL ACIS Healer - Source: /gicl/data5/repository/Drexel/CICIRELLO-THESISDATA/Part10008.smdg.deltas.sat - 6 0 18 ACIS 6.0.3 Solaris 24 Fri Apr 12 10:20:48 2002 
1 9.999999999999999547e-07 1.000000000000000036e-10 
body $-1 $12 $-1 $-1 #
body $-1 $13 $-1 $-1 #
body $-1 $14 $-1 $-1 #
body $-1 $15 $-1 $-1 #
body $-1 $16 $-1 $-1 #
body $-1 $17 $-1 $-1 #
body $-1 $18 $-1 $-1 #
body $-1 $19 $-1 $-1 #
body $-1 $20 $-1 $-1 #
body $-1 $21 $-1 $-1 #
body $-1 $22 $-1 $-1 #
body $-1 $23 $-1 $-1 #
lump $-1 $-1 $24 $0 #
lump $-1 $-1 $25 $1 #
lump $-1 $-1 $26 $2 #
lump $-1 $-1 $27 $3 #
lump $-1 $-1 $28 $4 #
lump $-1 $-1 $29 $5 #
lump $-1 $-1 $30 $6 #
lump $-1 $-1 $31 $7 #
lump $-1 $-1 $32 $8 #
lump $-1 $-1 $33 $9 #
lump $-1 $-1 $34 $10 #
lump $-1 $-1 $35 $11 #
shell $-1 $-1 $-1 $36 $-1 $12 #
shell $-1 $-1 $-1 $37 $-1 $13 #
shell $-1 $-1 $-1 $38 $-1 $14 #
shell $-1 $-1 $-1 $39 $-1 $15 #
shell $-1 $-1 $-1 $40 $-1 $16 #
shell $-1 $-1 $-1 $41 $-1 $17 #
shell $-1 $-1 $-1 $42 $-1 $18 #
shell $-1 $-1 $-1 $43 $-1 $19 #
shell $-1 $-1 $-1 $44 $-1 $20 #
shell $-1 $-1 $-1 $45 $-1 $21 #
shell $-1 $-1 $-1 $46 $-1 $22 #
shell $-1 $-1 $-1 $47 $-1 $23 #
face $-1 $48 $49 $24 $-1 $50 forward single #
face $-1 $51 $52 $25 $-1 $53 reversed single #
face $-1 $54 $55 $26 $-1 $56 forward single #
face $-1 $57 $58 $27 $-1 $59 reversed single #
face $-1 $60 $61 $28 $-1 $62 forward single #
face $-1 $63 $64 $29 $-1 $65 reversed single #
face $-1 $66 $67 $30 $-1 $68 forward single #
face $-1 $69 $70 $31 $-1 $71 reversed single #
face $-1 $72 $73 $32 $-1 $74 forward single #
face $-1 $75 $76 $33 $-1 $77 reversed single #
face $-1 $78 $79 $34 $-1 $80 forward single #
face $-1 $81 $82 $35 $-1 $83 forward single #
face $-1 $84 $85 $24 $-1 $86 reversed single #
loop $-1 $-1 $87 $36 #
plane-surface $-1 56.58009582811975235 33.87052686231016452 25.41400718517892088 0 0 1 1 0 0 forward_v I I I I #
face $-1 $88 $89 $25 $-1 $90 reversed single #
loop $-1 $-1 $91 $37 #
plane-surface $-1 74.44478413553426321 13.94434983789747662 177.4616647880631604 0 -1 0 -0.5150380817612800755 0 -0.8571672965854804094 forward_v I I I I #
face $-1 $92 $93 $26 $-1 $94 forward single #
loop $-1 $95 $96 $38 #
cone-surface $-1 109.5610344242466709 8.080191204437845442 22.28348169570542581 -0.5150380817612800755 0 -0.8571672965854804094 0.8571672965854804094 0 -0.5150380817612800755 1 I I 0 1 1 forward I I I I #
face $-1 $97 $98 $27 $-1 $99 reversed single #
loop $-1 $-1 $100 $39 #
plane-surface $-1 74.44478413553426321 31.13790694314568697 177.4616647880631604 0 -1 0 -0.5150380817612800755 0 -0.8571672965854804094 forward_v I I I I #
face $-1 $101 $102 $28 $-1 $103 forward single #
loop $-1 $104 $105 $40 #
cone-surface $-1 109.5610344242466709 25.27374830968605934 22.28348169570542581 -0.5150380817612800755 0 -0.8571672965854804094 0.8571672965854804094 0 -0.5150380817612800755 1 I I 0 1 1 forward I I I I #
face $-1 $106 $107 $29 $-1 $108 reversed single #
loop $-1 $-1 $109 $41 #
plane-surface $-1 74.44478413553426321 48.33146404839390442 177.4616647880631604 0 -1 0 -0.5150380817612800755 0 -0.8571672965854804094 forward_v I I I I #
face $-1 $110 $111 $30 $-1 $112 forward single #
loop $-1 $113 $114 $42 #
cone-surface $-1 109.5610344242466709 42.46730541493427324 22.28348169570542581 -0.5150380817612800755 0 -0.8571672965854804094 0.8571672965854804094 0 -0.5150380817612800755 1 I I 0 1 1 forward I I I I #
face $-1 $115 $116 $31 $-1 $117 reversed single #
loop $-1 $-1 $118 $43 #
plane-surface $-1 74.44478413553426321 65.52502115364211477 177.4616647880631604 0 -1 0 -0.5150380817612800755 0 -0.8571672965854804094 forward_v I I I I #
face $-1 $119 $120 $32 $-1 $121 forward single #
loop $-1 $122 $123 $44 #
cone-surface $-1 109.5610344242466709 59.6608625201824907 22.28348169570542581 -0.5150380817612800755 0 -0.8571672965854804094 0.8571672965854804094 0 -0.5150380817612800755 1 I I 0 1 1 forward I I I I #
face $-1 $124 $125 $33 $-1 $126 reversed single #
loop $-1 $-1 $127 $45 #
plane-surface $-1 -97.9996015467172441 41.29208933230059131 71.84012250137510591 0 1 0 -0.8660254115194729874 0 0.4999999866025272577 forward_v I I I I #
face $-1 $128 $129 $34 $-1 $130 forward single #
loop $-1 $131 $132 $46 #
cone-surface $-1 5.311892239253168668 46.30873537765608461 18.96252509429691457 0.8660254115194729874 0 -0.4999999866025272577 0.9999999732050545154 0 1.732050823038945975 1 I I 0 1 2 forward I I I I #
face $-1 $133 $134 $35 $-1 $135 forward single #
loop $-1 $136 $137 $47 #
cone-surface $-1 5.311892239253168668 53.83370444568933522 18.96252509429691457 0.8660254115194729874 0 -0.4999999866025272577 0.9999999732050545154 0 1.732050823038945975 1 I I 0 1 2 forward I I I I #
face $-1 $138 $139 $24 $-1 $140 reversed single #
loop $-1 $-1 $141 $48 #
plane-surface $-1 56.58009582811975235 33.87052686231016452 0 0 0 1 1 0 0 forward_v I I I I #
coedge $-1 $142 $143 $144 $145 forward $49 $-1 #
face $-1 $146 $147 $25 $-1 $148 reversed single #
loop $-1 $-1 $149 $51 #
plane-surface $-1 16.16297609316585948 8.080191204437845442 80.46444922498949381 0.5150380817612800755 0 0.8571672965854804094 0.8571672965854804094 0 -0.5150380817612800755 forward_v I I I I #
coedge $-1 $150 $151 $152 $153 reversed $52 $-1 #
face $-1 $-1 $154 $26 $-1 $155 forward single #
loop $-1 $156 $157 $54 #
cone-surface $-1 108.3933061717008712 8.080191204437845442 20.34005555921810071 -0.5150380817612800755 0 -0.8571672965854804094 0.4285836482927402047 0 -0.2575190408806400377 1 I I -0.7071067811865474617 0.7071067811865474617 0.5 forward I I I I #
loop $-1 $-1 $158 $38 #
coedge $-1 $96 $96 $159 $160 reversed $55 $-1 #
face $-1 $161 $162 $27 $-1 $163 reversed single #
loop $-1 $-1 $164 $57 #
plane-surface $-1 16.16297609316585948 25.27374830968605579 80.46444922498949381 0.5150380817612800755 0 0.8571672965854804094 0.8571672965854804094 0 -0.5150380817612800755 forward_v I I I I #
coedge $-1 $165 $166 $167 $168 reversed $58 $-1 #
face $-1 $-1 $169 $28 $-1 $170 forward single #
loop $-1 $171 $172 $60 #
cone-surface $-1 108.3933061717008712 25.27374830968605934 20.34005555921810071 -0.5150380817612800755 0 -0.8571672965854804094 0.4285836482927402047 0 -0.2575190408806400377 1 I I -0.7071067811865474617 0.7071067811865474617 0.5 forward I I I I #
loop $-1 $-1 $173 $40 #
coedge $-1 $105 $105 $174 $175 reversed $61 $-1 #
face $-1 $176 $177 $29 $-1 $178 reversed single #
loop $-1 $-1 $179 $63 #
plane-surface $-1 16.16297609316585948 42.46730541493427324 80.46444922498949381 0.5150380817612800755 0 0.8571672965854804094 0.8571672965854804094 0 -0.5150380817612800755 forward_v I I I I #
coedge $-1 $180 $181 $182 $183 reversed $64 $-1 #
face $-1 $-1 $184 $30 $-1 $185 forward single #
loop $-1 $186 $187 $66 #
cone-surface $-1 108.3933061717008712 42.46730541493427324 20.34005555921810071 -0.5150380817612800755 0 -0.8571672965854804094 0.4285836482927402047 0 -0.2575190408806400377 1 I I -0.7071067811865474617 0.7071067811865474617 0.5 forward I I I I #
loop $-1 $-1 $188 $42 #
coedge $-1 $114 $114 $189 $190 reversed $67 $-1 #
face $-1 $191 $192 $31 $-1 $193 reversed single #
loop $-1 $-1 $194 $69 #
plane-surface $-1 16.16297609316585948 59.6608625201824907 80.46444922498949381 0.5150380817612800755 0 0.8571672965854804094 0.8571672965854804094 0 -0.5150380817612800755 forward_v I I I I #
coedge $-1 $195 $196 $197 $198 reversed $70 $-1 #
face $-1 $-1 $199 $32 $-1 $200 forward single #
loop $-1 $201 $202 $72 #
cone-surface $-1 108.3933061717008712 59.6608625201824907 20.34005555921810071 -0.5150380817612800755 0 -0.8571672965854804094 0.4285836482927402047 0 -0.2575190408806400377 1 I I -0.7071067811865474617 0.7071067811865474617 0.5 forward I I I I #
loop $-1 $-1 $203 $44 #
coedge $-1 $123 $123 $204 $205 reversed $73 $-1 #
face $-1 $206 $207 $33 $-1 $208 reversed single #
loop $-1 $-1 $209 $75 #
plane-surface $-1 0 50.07121991167271347 15.26002818931594085 -0.8660254115194729874 0 0.4999999866025272577 0.4999999866025272577 0 0.8660254115194729874 forward_v I I I I #
coedge $-1 $210 $211 $212 $213 reversed $76 $-1 #
face $-1 $-1 $214 $34 $-1 $215 forward single #
loop $-1 $216 $217 $78 #
cone-surface $-1 8.558608741443990198 46.30873537765608461 17.08803251474387963 0.8660254115194729874 0 -0.4999999866025272577 0.4999999866025272577 0 0.8660254115194729874 1 I I -0.7071067811865474617 0.7071067811865474617 1 forward I I I I #
loop $-1 $-1 $218 $46 #
coedge $-1 $132 $132 $219 $220 reversed $79 $-1 #
face $-1 $-1 $221 $35 $-1 $222 forward single #
loop $-1 $223 $224 $81 #
cone-surface $-1 8.558608741443990198 53.83370444568933522 17.08803251474387963 0.8660254115194729874 0 -0.4999999866025272577 0.4999999866025272577 0 0.8660254115194729874 1 I I -0.7071067811865474617 0.7071067811865474617 1 forward I I I I #
loop $-1 $-1 $225 $47 #
coedge $-1 $137 $137 $226 $227 reversed $82 $-1 #
face $-1 $228 $229 $24 $-1 $230 reversed single #
loop $-1 $-1 $231 $84 #
plane-surface $-1 56.58009582811975235 0 12.70700359258946044 0 1 0 0 0 1 forward_v I I I I #
coedge $-1 $232 $233 $234 $235 forward $85 $-1 #
coedge $-1 $236 $87 $237 $238 forward $49 $-1 #
coedge $-1 $87 $236 $239 $240 forward $49 $-1 #
coedge $-1 $241 $242 $87 $145 reversed $243 $-1 #
edge $-1 $244 -33.87052686231016452 $245 33.87052686231016452 $144 $246 forward 7 unknown #
face $-1 $247 $248 $25 $-1 $249 forward single #
loop $-1 $-1 $250 $88 #
plane-surface $-1 74.44478413553426321 2.216032570978214267 177.4616647880631604 0 1 0 0.5150380817612800755 0 0.8571672965854804094 forward_v I I I I #
coedge $-1 $251 $252 $253 $254 reversed $89 $-1 #
coedge $-1 $151 $91 $255 $256 reversed $52 $-1 #
coedge $-1 $91 $150 $251 $257 reversed $52 $-1 #
coedge $-1 $253 $258 $91 $153 forward $248 $-1 #
edge $-1 $259 -47.64775167441248982 $260 -42.26985563375711763 $152 $261 forward 7 unknown #
loop $-1 $-1 $159 $92 #
plane-surface $-1 16.16297609316585948 8.080191204437845442 80.46444922498949381 0.5150380817612800755 0 0.8571672965854804094 0.8571672965854804094 0 -0.5150380817612800755 forward_v I I I I #
loop $-1 $-1 $262 $54 #
coedge $-1 $157 $157 $158 $263 reversed $93 $-1 #
coedge $-1 $158 $158 $157 $263 forward $95 $-1 #
coedge $-1 $159 $159 $96 $160 forward $154 $-1 #
edge $-1 $264 0 $264 6.283185307179586232 $159 $265 forward 7 unknown #
face $-1 $266 $267 $27 $-1 $268 reversed single #
loop $-1 $-1 $269 $97 #
plane-surface $-1 74.44478413553426321 19.40958967622642461 177.4616647880631604 0 1 0 0.5150380817612800755 0 0.8571672965854804094 forward_v I I I I #
coedge $-1 $270 $271 $272 $273 reversed $98 $-1 #
coedge $-1 $166 $100 $274 $275 reversed $58 $-1 #
coedge $-1 $100 $165 $270 $276 reversed $58 $-1 #
coedge $-1 $272 $277 $100 $168 forward $278 $-1 #
edge $-1 $279 -47.64775167441248982 $280 -42.26985563375711763 $167 $281 forward 7 unknown #
loop $-1 $-1 $174 $101 #
plane-surface $-1 16.16297609316585948 25.27374830968605579 80.46444922498949381 0.5150380817612800755 0 0.8571672965854804094 0.8571672965854804094 0 -0.5150380817612800755 forward_v I I I I #
loop $-1 $-1 $282 $60 #
coedge $-1 $172 $172 $173 $283 reversed $102 $-1 #
coedge $-1 $173 $173 $172 $283 forward $104 $-1 #
coedge $-1 $174 $174 $105 $175 forward $169 $-1 #
edge $-1 $284 0 $284 6.283185307179586232 $174 $285 forward 7 unknown #
face $-1 $286 $287 $29 $-1 $288 reversed single #
loop $-1 $-1 $289 $106 #
plane-surface $-1 74.44478413553426321 36.60314678147464207 177.4616647880631604 0 1 0 0.5150380817612800755 0 0.8571672965854804094 forward_v I I I I #
coedge $-1 $290 $291 $292 $293 reversed $107 $-1 #
coedge $-1 $181 $109 $294 $295 reversed $64 $-1 #
coedge $-1 $109 $180 $290 $296 reversed $64 $-1 #
coedge $-1 $292 $297 $109 $183 forward $298 $-1 #
edge $-1 $299 -47.64775167441248982 $300 -42.26985563375711763 $182 $301 forward 7 unknown #
loop $-1 $-1 $189 $110 #
plane-surface $-1 16.16297609316585948 42.46730541493427324 80.46444922498949381 0.5150380817612800755 0 0.8571672965854804094 0.8571672965854804094 0 -0.5150380817612800755 forward_v I I I I #
loop $-1 $-1 $302 $66 #
coedge $-1 $187 $187 $188 $303 reversed $111 $-1 #
coedge $-1 $188 $188 $187 $303 forward $113 $-1 #
coedge $-1 $189 $189 $114 $190 forward $184 $-1 #
edge $-1 $304 0 $304 6.283185307179586232 $189 $305 forward 7 unknown #
face $-1 $306 $307 $31 $-1 $308 reversed single #
loop $-1 $-1 $309 $115 #
plane-surface $-1 74.44478413553426321 53.79670388672285952 177.4616647880631604 0 1 0 0.5150380817612800755 0 0.8571672965854804094 forward_v I I I I #
coedge $-1 $310 $311 $312 $313 reversed $116 $-1 #
coedge $-1 $196 $118 $314 $315 reversed $70 $-1 #
coedge $-1 $118 $195 $310 $316 reversed $70 $-1 #
coedge $-1 $312 $317 $118 $198 forward $318 $-1 #
edge $-1 $319 -47.64775167441248982 $320 -42.26985563375711763 $197 $321 forward 7 unknown #
loop $-1 $-1 $204 $119 #
plane-surface $-1 16.16297609316585948 59.6608625201824907 80.46444922498949381 0.5150380817612800755 0 0.8571672965854804094 0.8571672965854804094 0 -0.5150380817612800755 forward_v I I I I #
loop $-1 $-1 $322 $72 #
coedge $-1 $202 $202 $203 $323 reversed $120 $-1 #
coedge $-1 $203 $203 $202 $323 forward $122 $-1 #
coedge $-1 $204 $204 $123 $205 forward $199 $-1 #
edge $-1 $324 0 $324 6.283185307179586232 $204 $325 forward 7 unknown #
face $-1 $326 $327 $33 $-1 $328 reversed single #
loop $-1 $-1 $329 $124 #
plane-surface $-1 -97.9996015467172441 58.85035049104483562 71.84012250137510591 0 -1 0 0.8660254115194729874 0 -0.4999999866025272577 forward_v I I I I #
coedge $-1 $330 $331 $332 $333 reversed $125 $-1 #
coedge $-1 $211 $127 $334 $335 reversed $76 $-1 #
coedge $-1 $127 $210 $330 $336 reversed $76 $-1 #
coedge $-1 $332 $337 $127 $213 forward $338 $-1 #
edge $-1 $339 20.70975285929874588 $340 26.57215515646237236 $212 $341 forward 7 unknown #
loop $-1 $-1 $219 $128 #
plane-surface $-1 0 50.07121991167271347 15.26002818931594085 -0.8660254115194729874 0 0.4999999866025272577 0.4999999866025272577 0 0.8660254115194729874 forward_v I I I I #
loop $-1 $-1 $342 $78 #
coedge $-1 $217 $217 $218 $343 reversed $129 $-1 #
coedge $-1 $218 $218 $217 $343 forward $131 $-1 #
coedge $-1 $219 $219 $132 $220 forward $214 $-1 #
edge $-1 $344 0 $344 6.283185307179586232 $219 $345 forward 7 unknown #
loop $-1 $-1 $226 $133 #
plane-surface $-1 0 50.07121991167271347 15.26002818931594085 -0.8660254115194729874 0 0.4999999866025272577 0.4999999866025272577 0 0.8660254115194729874 forward_v I I I I #
loop $-1 $-1 $346 $81 #
coedge $-1 $224 $224 $225 $347 reversed $134 $-1 #
coedge $-1 $225 $225 $224 $347 forward $136 $-1 #
coedge $-1 $226 $226 $137 $227 forward $221 $-1 #
edge $-1 $348 0 $348 6.283185307179586232 $226 $349 forward 7 unknown #
face $-1 $350 $351 $24 $-1 $352 reversed single #
loop $-1 $-1 $353 $138 #
plane-surface $-1 0 33.87052686231016452 12.70700359258946044 1 0 0 0 0 -1 forward_v I I I I #
coedge $-1 $354 $239 $355 $356 forward $139 $-1 #
coedge $-1 $357 $141 $354 $358 forward $85 $-1 #
coedge $-1 $141 $357 $359 $360 forward $85 $-1 #
coedge $-1 $242 $241 $141 $235 reversed $243 $-1 #
edge $-1 $361 -33.87052686231016452 $362 33.87052686231016452 $234 $363 forward 7 unknown #
coedge $-1 $143 $142 $364 $365 forward $49 $-1 #
coedge $-1 $366 $367 $142 $238 reversed $351 $-1 #
edge $-1 $245 -56.58009582811975235 $368 56.58009582811975235 $237 $369 forward 7 unknown #
coedge $-1 $231 $370 $143 $240 reversed $139 $-1 #
edge $-1 $371 -56.58009582811975235 $244 56.58009582811975235 $239 $372 forward 7 unknown #
coedge $-1 $234 $144 $370 $373 forward $243 $-1 #
coedge $-1 $144 $234 $366 $374 reversed $243 $-1 #
loop $-1 $-1 $241 $350 #
vertex $-1 $145 $375 #
vertex $-1 $145 $376 #
straight-curve $-1 113.1601916562395047 33.87052686231016452 25.41400718517892088 0 1 0 I I #
face $-1 $-1 $377 $25 $-1 $378 reversed single #
loop $-1 $-1 $152 $146 #
plane-surface $-1 56.58009582811975235 33.87052686231016452 25.41400718517892088 0 0 1 1 0 0 forward_v I I I I #
coedge $-1 $379 $380 $381 $382 reversed $147 $-1 #
coedge $-1 $383 $149 $151 $257 forward $89 $-1 #
coedge $-1 $149 $383 $379 $384 forward $89 $-1 #
coedge $-1 $381 $152 $149 $254 forward $248 $-1 #
edge $-1 $260 7.031009195476528362 $385 18.75932646239579071 $253 $386 forward 7 unknown #
coedge $-1 $387 $388 $150 $256 forward $377 $-1 #
edge $-1 $389 -72.90169300770520522 $259 -69.67032700514738508 $255 $390 forward 7 unknown #
edge $-1 $260 106.8861584983271626 $389 113.1601916562394763 $151 $391 forward 7 unknown #
coedge $-1 $152 $381 $387 $392 forward $248 $-1 #
vertex $-1 $256 $393 #
vertex $-1 $153 $394 #
straight-curve $-1 65.51243998182701489 13.94434983789747662 25.41400718517891733 -1 0 0 I I #
coedge $-1 $262 $262 $-1 $395 reversed $156 $-1 #
edge $-1 $396 0 $396 6.283185307179586232 $157 $397 forward 7 unknown #
vertex $-1 $160 $398 #
ellipse-curve $-1 110.4712436359118186 8.080191204437845442 23.79832418390000015 0.5150380817612800755 0 0.8571672965854804094 0.8571672965854804094 0 -0.5150380817612800755 1 I I #
face $-1 $-1 $278 $27 $-1 $399 forward single #
loop $-1 $-1 $400 $161 #
plane-surface $-1 113.1601916562395047 33.87052686231016452 12.70700359258946044 -1 0 0 0 0 1 forward_v I I I I #
coedge $-1 $401 $402 $403 $404 reversed $162 $-1 #
coedge $-1 $405 $164 $166 $276 forward $98 $-1 #
coedge $-1 $164 $405 $401 $406 forward $98 $-1 #
coedge $-1 $403 $167 $164 $273 forward $278 $-1 #
edge $-1 $280 -1.565769357147576812 $407 10.16254790977168554 $272 $408 forward 7 unknown #
coedge $-1 $409 $410 $165 $275 forward $267 $-1 #
edge $-1 $411 -72.90169300770520522 $279 -69.67032700514738508 $274 $412 forward 7 unknown #
edge $-1 $280 106.8861584983271626 $411 113.1601916562394763 $166 $413 forward 7 unknown #
coedge $-1 $167 $403 $409 $414 forward $278 $-1 #
loop $-1 $-1 $403 $266 #
vertex $-1 $275 $415 #
vertex $-1 $168 $416 #
straight-curve $-1 65.51243998182701489 31.13790694314568697 25.41400718517891733 -1 0 0 I I #
coedge $-1 $282 $282 $-1 $417 reversed $171 $-1 #
edge $-1 $418 0 $418 6.283185307179586232 $172 $419 forward 7 unknown #
vertex $-1 $175 $420 #
ellipse-curve $-1 110.4712436359118186 25.27374830968605934 23.79832418390000015 0.5150380817612800755 0 0.8571672965854804094 0.8571672965854804094 0 -0.5150380817612800755 1 I I #
face $-1 $-1 $298 $29 $-1 $421 forward single #
loop $-1 $-1 $422 $176 #
plane-surface $-1 113.1601916562395047 33.87052686231016452 12.70700359258946044 -1 0 0 0 0 1 forward_v I I I I #
coedge $-1 $423 $424 $425 $426 reversed $177 $-1 #
coedge $-1 $427 $179 $181 $296 forward $107 $-1 #
coedge $-1 $179 $427 $423 $428 forward $107 $-1 #
coedge $-1 $425 $182 $179 $293 forward $298 $-1 #
edge $-1 $300 -10.16254790977168199 $429 1.565769357147580365 $292 $430 forward 7 unknown #
coedge $-1 $431 $432 $180 $295 forward $287 $-1 #
edge $-1 $433 -72.90169300770520522 $299 -69.67032700514738508 $294 $434 forward 7 unknown #
edge $-1 $300 106.8861584983271626 $433 113.1601916562394763 $181 $435 forward 7 unknown #
coedge $-1 $182 $425 $431 $436 forward $298 $-1 #
loop $-1 $-1 $425 $286 #
vertex $-1 $295 $437 #
vertex $-1 $183 $438 #
straight-curve $-1 65.51243998182701489 48.33146404839390442 25.41400718517891733 -1 0 0 I I #
coedge $-1 $302 $302 $-1 $439 reversed $186 $-1 #
edge $-1 $440 0 $440 6.283185307179586232 $187 $441 forward 7 unknown #
vertex $-1 $190 $442 #
ellipse-curve $-1 110.4712436359118186 42.46730541493427324 23.79832418390000015 0.5150380817612800755 0 0.8571672965854804094 0.8571672965854804094 0 -0.5150380817612800755 1 I I #
face $-1 $-1 $318 $31 $-1 $443 forward single #
loop $-1 $-1 $444 $191 #
plane-surface $-1 113.1601916562395047 33.87052686231016452 12.70700359258946044 -1 0 0 0 0 1 forward_v I I I I #
coedge $-1 $445 $446 $447 $448 reversed $192 $-1 #
coedge $-1 $449 $194 $196 $316 forward $116 $-1 #
coedge $-1 $194 $449 $445 $450 forward $116 $-1 #
coedge $-1 $447 $197 $194 $313 forward $318 $-1 #
edge $-1 $320 -18.75932646239579071 $451 -7.031009195476535467 $312 $452 forward 7 unknown #
coedge $-1 $453 $454 $195 $315 forward $307 $-1 #
edge $-1 $455 -72.90169300770520522 $319 -69.67032700514738508 $314 $456 forward 7 unknown #
edge $-1 $320 106.8861584983271626 $455 113.1601916562394763 $196 $457 forward 7 unknown #
coedge $-1 $197 $447 $453 $458 forward $318 $-1 #
loop $-1 $-1 $447 $306 #
vertex $-1 $315 $459 #
vertex $-1 $198 $460 #
straight-curve $-1 65.51243998182701489 65.52502115364211477 25.41400718517891733 -1 0 0 I I #
coedge $-1 $322 $322 $-1 $461 reversed $201 $-1 #
edge $-1 $462 0 $462 6.283185307179586232 $202 $463 forward 7 unknown #
vertex $-1 $205 $464 #
ellipse-curve $-1 110.4712436359118186 59.6608625201824907 23.79832418390000015 0.5150380817612800755 0 0.8571672965854804094 0.8571672965854804094 0 -0.5150380817612800755 1 I I #
face $-1 $-1 $338 $33 $-1 $465 forward single #
loop $-1 $-1 $466 $206 #
plane-surface $-1 0 33.87052686231016452 12.70700359258946044 1 0 0 0 0 -1 forward_v I I I I #
coedge $-1 $467 $468 $469 $470 reversed $207 $-1 #
coedge $-1 $471 $209 $211 $336 forward $125 $-1 #
coedge $-1 $209 $471 $467 $472 forward $125 $-1 #
coedge $-1 $469 $212 $209 $333 forward $338 $-1 #
edge $-1 $340 -0.6787840546908512351 $473 16.87947710405339308 $332 $474 forward 7 unknown #
coedge $-1 $475 $476 $210 $335 forward $327 $-1 #
edge $-1 $477 -27.01353485766634321 $339 -16.85955586180336141 $334 $478 forward 7 unknown #
edge $-1 $340 -11.7248049084927608 $477 0 $211 $479 forward 7 unknown #
coedge $-1 $212 $469 $475 $480 forward $338 $-1 #
loop $-1 $-1 $469 $326 #
vertex $-1 $335 $481 #
vertex $-1 $213 $482 #
straight-curve $-1 -20.70975285929874588 41.29208933230059131 25.41400718517891733 1 0 0 I I #
coedge $-1 $342 $342 $-1 $483 reversed $216 $-1 #
edge $-1 $484 0 $484 6.283185307179586232 $217 $485 forward 7 unknown #
vertex $-1 $220 $486 #
ellipse-curve $-1 2.931201148581813243 46.30873537765608461 20.33701768724742465 -0.8660254115194729874 0 0.4999999866025272577 0.9999999732050545154 0 1.732050823038945975 1 I I #
coedge $-1 $346 $346 $-1 $487 reversed $223 $-1 #
edge $-1 $488 0 $488 6.283185307179586232 $224 $489 forward 7 unknown #
vertex $-1 $227 $490 #
ellipse-curve $-1 2.931201148581813243 53.83370444568933522 20.33701768724742465 -0.8660254115194729874 0 0.4999999866025272577 0.9999999732050545154 0 1.732050823038945975 1 I I #
face $-1 $-1 $243 $24 $-1 $491 reversed single #
loop $-1 $-1 $366 $228 #
plane-surface $-1 56.58009582811975235 67.74105372462032904 12.70700359258946044 0 -1 0 0 0 -1 forward_v I I I I #
coedge $-1 $492 $364 $367 $493 forward $229 $-1 #
coedge $-1 $370 $231 $232 $358 reversed $139 $-1 #
coedge $-1 $364 $492 $231 $356 reversed $229 $-1 #
edge $-1 $371 -12.70700359258946044 $494 12.70700359258946044 $355 $495 forward 7 unknown #
coedge $-1 $233 $232 $492 $496 forward $85 $-1 #
edge $-1 $362 -56.58009582811975235 $494 56.58009582811975235 $354 $497 forward 7 unknown #
coedge $-1 $367 $366 $233 $360 reversed $351 $-1 #
edge $-1 $498 -56.58009582811975235 $361 56.58009582811975235 $359 $499 forward 7 unknown #
vertex $-1 $235 $500 #
vertex $-1 $373 $501 #
straight-curve $-1 113.1601916562395047 33.87052686231016452 0 0 -1 0 I I #
coedge $-1 $353 $355 $236 $365 reversed $229 $-1 #
edge $-1 $368 -33.87052686231016452 $371 33.87052686231016452 $364 $502 forward 7 unknown #
coedge $-1 $359 $237 $242 $374 forward $351 $-1 #
coedge $-1 $237 $359 $353 $493 reversed $351 $-1 #
vertex $-1 $238 $503 #
straight-curve $-1 56.58009582811975235 67.74105372462032904 25.41400718517892088 -1 0 0 I I #
coedge $-1 $239 $354 $241 $373 reversed $139 $-1 #
vertex $-1 $365 $504 #
straight-curve $-1 56.58009582811975235 0 25.41400718517892088 1 0 0 I I #
edge $-1 $244 -12.70700359258946044 $362 12.70700359258946044 $241 $505 forward 7 unknown #
edge $-1 $245 -12.70700359258946044 $361 12.70700359258946044 $242 $506 forward 7 unknown #
point $-1 113.1601916562395047 0 25.41400718517892088 #
point $-1 113.1601916562395047 67.74105372462032904 25.41400718517892088 #
loop $-1 $-1 $255 $247 #
plane-surface $-1 113.1601916562395047 33.87052686231016452 12.70700359258946044 -1 0 0 0 0 1 forward_v I I I I #
coedge $-1 $380 $250 $252 $384 reversed $147 $-1 #
coedge $-1 $250 $379 $507 $508 reversed $147 $-1 #
coedge $-1 $258 $253 $250 $382 forward $248 $-1 #
edge $-1 $385 42.26985563375711763 $509 47.64775167441248982 $381 $510 forward 7 unknown #
coedge $-1 $252 $251 $388 $511 reversed $89 $-1 #
edge $-1 $512 -113.1601916562394763 $385 -106.8861584983271626 $379 $513 forward 7 unknown #
vertex $-1 $254 $514 #
straight-curve $-1 107.7822956155841325 20.97535903337400498 25.41400718517891733 0 -1 0 I I #
coedge $-1 $507 $255 $258 $392 reversed $377 $-1 #
coedge $-1 $255 $507 $383 $511 forward $377 $-1 #
vertex $-1 $256 $515 #
straight-curve $-1 113.1601916562395047 13.94434983789747662 95.08433419032630241 0 0 1 I I #
straight-curve $-1 16.16297609316585948 13.94434983789747662 80.46444922498949381 0.8571672965854804094 0 -0.5150380817612800755 I I #
edge $-1 $509 -31.65449429133195025 $259 -19.9261770244126879 $387 $516 forward 7 unknown #
point $-1 113.1601916562395047 13.94434983789747662 25.41400718517892088 #
point $-1 107.7822956155841325 13.94434983789747662 25.41400718517891733 #
edge $-1 $517 1 $517 0 $262 $-1 forward 7 unknown #
vertex $-1 $263 $518 #
ellipse-curve $-1 108.650825212581509 8.080191204437845442 20.76863920751084081 0.5150380817612800755 0 0.8571672965854804094 0.8571672965854804094 0 -0.5150380817612800755 1 I I #
point $-1 111.3284109324973059 8.080191204437845442 23.28328610213873162 #
plane-surface $-1 56.58009582811975235 33.87052686231016452 25.41400718517892088 0 0 1 1 0 0 forward_v I I I I #
coedge $-1 $410 $409 $402 $519 forward $267 $-1 #
coedge $-1 $402 $269 $271 $406 reversed $162 $-1 #
coedge $-1 $269 $401 $400 $519 reversed $162 $-1 #
coedge $-1 $277 $272 $269 $404 forward $278 $-1 #
edge $-1 $407 42.26985563375711763 $520 47.64775167441248982 $403 $521 forward 7 unknown #
coedge $-1 $271 $270 $410 $522 reversed $98 $-1 #
edge $-1 $523 -113.1601916562394763 $407 -106.8861584983271626 $401 $524 forward 7 unknown #
vertex $-1 $273 $525 #
straight-curve $-1 107.7822956155841325 29.57213758599811015 25.41400718517891733 0 -1 0 I I #
coedge $-1 $400 $274 $277 $414 reversed $267 $-1 #
coedge $-1 $274 $400 $405 $522 forward $267 $-1 #
vertex $-1 $275 $526 #
straight-curve $-1 113.1601916562395047 31.13790694314568697 95.08433419032630241 0 0 1 I I #
straight-curve $-1 16.16297609316585948 31.13790694314568697 80.46444922498949381 0.8571672965854804094 0 -0.5150380817612800755 I I #
edge $-1 $520 -14.4609371860837399 $279 -2.732619919164477551 $409 $527 forward 7 unknown #
point $-1 113.1601916562395047 31.13790694314568697 25.41400718517892088 #
point $-1 107.7822956155841325 31.13790694314568697 25.41400718517891733 #
edge $-1 $528 1 $528 0 $282 $-1 forward 7 unknown #
vertex $-1 $283 $529 #
ellipse-curve $-1 108.650825212581509 25.27374830968605934 20.76863920751084081 0.5150380817612800755 0 0.8571672965854804094 0.8571672965854804094 0 -0.5150380817612800755 1 I I #
point $-1 111.3284109324973059 25.27374830968605934 23.28328610213873162 #
plane-surface $-1 56.58009582811975235 33.87052686231016452 25.41400718517892088 0 0 1 1 0 0 forward_v I I I I #
coedge $-1 $432 $431 $424 $530 forward $287 $-1 #
coedge $-1 $424 $289 $291 $428 reversed $177 $-1 #
coedge $-1 $289 $423 $422 $530 reversed $177 $-1 #
coedge $-1 $297 $292 $289 $426 forward $298 $-1 #
edge $-1 $429 42.26985563375711763 $531 47.64775167441248982 $425 $532 forward 7 unknown #
coedge $-1 $291 $290 $432 $533 reversed $107 $-1 #
edge $-1 $534 -113.1601916562394763 $429 -106.8861584983271626 $423 $535 forward 7 unknown #
vertex $-1 $293 $536 #
straight-curve $-1 107.7822956155841325 38.16891613862222243 25.41400718517891733 0 -1 0 I I #
coedge $-1 $422 $294 $297 $436 reversed $287 $-1 #
coedge $-1 $294 $422 $427 $533 forward $287 $-1 #
vertex $-1 $295 $537 #
straight-curve $-1 113.1601916562395047 48.33146404839390442 95.08433419032630241 0 0 1 I I #
straight-curve $-1 16.16297609316585948 48.33146404839390442 80.46444922498949381 0.8571672965854804094 0 -0.5150380817612800755 I I #
edge $-1 $531 2.732619919164477551 $299 14.4609371860837399 $431 $538 forward 7 unknown #
point $-1 113.1601916562395047 48.33146404839390442 25.41400718517892088 #
point $-1 107.7822956155841325 48.33146404839390442 25.41400718517891733 #
edge $-1 $539 1 $539 0 $302 $-1 forward 7 unknown #
vertex $-1 $303 $540 #
ellipse-curve $-1 108.650825212581509 42.46730541493427324 20.76863920751084081 0.5150380817612800755 0 0.8571672965854804094 0.8571672965854804094 0 -0.5150380817612800755 1 I I #
point $-1 111.3284109324973059 42.46730541493427324 23.28328610213873162 #
plane-surface $-1 56.58009582811975235 33.87052686231016452 25.41400718517892088 0 0 1 1 0 0 forward_v I I I I #
coedge $-1 $454 $453 $446 $541 forward $307 $-1 #
coedge $-1 $446 $309 $311 $450 reversed $192 $-1 #
coedge $-1 $309 $445 $444 $541 reversed $192 $-1 #
coedge $-1 $317 $312 $309 $448 forward $318 $-1 #
edge $-1 $451 42.26985563375711763 $542 47.64775167441248982 $447 $543 forward 7 unknown #
coedge $-1 $311 $310 $454 $544 reversed $116 $-1 #
edge $-1 $545 -113.1601916562394763 $451 -106.8861584983271626 $445 $546 forward 7 unknown #
vertex $-1 $313 $547 #
straight-curve $-1 107.7822956155841325 46.76569469124632406 25.41400718517891733 0 -1 0 I I #
coedge $-1 $444 $314 $317 $458 reversed $307 $-1 #
coedge $-1 $314 $444 $449 $544 forward $307 $-1 #
vertex $-1 $315 $548 #
straight-curve $-1 113.1601916562395047 65.52502115364211477 95.08433419032630241 0 0 1 I I #
straight-curve $-1 16.16297609316585948 65.52502115364211477 80.46444922498949381 0.8571672965854804094 0 -0.5150380817612800755 I I #
edge $-1 $542 19.926177024412695 $319 31.65449429133195025 $453 $549 forward 7 unknown #
point $-1 113.1601916562395047 65.52502115364211477 25.41400718517892088 #
point $-1 107.7822956155841325 65.52502115364211477 25.41400718517891733 #
edge $-1 $550 1 $550 0 $322 $-1 forward 7 unknown #
vertex $-1 $323 $551 #
ellipse-curve $-1 108.650825212581509 59.6608625201824907 20.76863920751084081 0.5150380817612800755 0 0.8571672965854804094 0.8571672965854804094 0 -0.5150380817612800755 1 I I #
point $-1 111.3284109324973059 59.6608625201824907 23.28328610213873162 #
plane-surface $-1 56.58009582811975235 33.87052686231016452 25.41400718517892088 0 0 1 1 0 0 forward_v I I I I #
coedge $-1 $476 $475 $468 $552 forward $327 $-1 #
coedge $-1 $468 $329 $331 $472 reversed $207 $-1 #
coedge $-1 $329 $467 $466 $552 reversed $207 $-1 #
coedge $-1 $337 $332 $329 $470 forward $338 $-1 #
edge $-1 $473 -26.57215515646237236 $553 -20.70975285929874588 $469 $554 forward 7 unknown #
coedge $-1 $331 $330 $476 $555 reversed $125 $-1 #
edge $-1 $556 0 $473 11.7248049084927608 $467 $557 forward 7 unknown #
vertex $-1 $333 $558 #
straight-curve $-1 5.862402297163626486 41.97087338699144254 25.41400718517891733 0 1 0 I I #
coedge $-1 $466 $334 $337 $480 reversed $327 $-1 #
coedge $-1 $334 $466 $471 $555 forward $327 $-1 #
vertex $-1 $335 $559 #
straight-curve $-1 0 41.29208933230059131 42.27356304698228229 0 0 1 I I #
straight-curve $-1 0 41.29208933230059131 15.26002818931594085 -0.4999999866025272577 0 -0.8660254115194729874 I I #
edge $-1 $553 -24.9798236287346711 $339 -7.421562469990426791 $475 $560 forward 7 unknown #
point $-1 0 41.29208933230059131 25.41400718517892088 #
point $-1 5.862402297163626486 41.29208933230059131 25.41400718517892088 #
edge $-1 $561 1 $561 0 $342 $-1 forward 7 unknown #
vertex $-1 $343 $562 #
ellipse-curve $-1 7.692583329924516988 46.30873537765608461 17.58803250134640805 -0.8660254115194729874 0 0.4999999866025272577 0.9999999732050545154 0 1.732050823038945975 1 I I #
point $-1 3.931201121786877195 46.30873537765608461 22.06906851028636396 #
edge $-1 $563 1 $563 0 $346 $-1 forward 7 unknown #
vertex $-1 $347 $564 #
ellipse-curve $-1 7.692583329924516988 53.83370444568933522 17.58803250134640805 -0.8660254115194729874 0 0.4999999866025272577 0.9999999732050545154 0 1.732050823038945975 1 I I #
point $-1 3.931201121786877195 53.83370444568933522 22.06906851028636396 #
plane-surface $-1 113.1601916562395047 33.87052686231016452 12.70700359258946044 -1 0 0 0 0 1 forward_v I I I I #
coedge $-1 $355 $353 $357 $496 reversed $229 $-1 #
edge $-1 $368 -12.70700359258946044 $498 12.70700359258946044 $367 $565 forward 7 unknown #
vertex $-1 $496 $566 #
straight-curve $-1 0 0 12.70700359258946044 0 0 -1 I I #
edge $-1 $494 -33.87052686231016452 $498 33.87052686231016452 $492 $567 forward 7 unknown #
straight-curve $-1 56.58009582811975235 0 0 -1 0 0 I I #
vertex $-1 $360 $568 #
straight-curve $-1 56.58009582811975235 67.74105372462032904 0 1 0 0 I I #
point $-1 113.1601916562395047 67.74105372462032904 0 #
point $-1 113.1601916562395047 0 0 #
straight-curve $-1 0 33.87052686231016452 25.41400718517892088 0 -1 0 I I #
point $-1 0 67.74105372462032904 25.41400718517892088 #
point $-1 0 0 25.41400718517892088 #
straight-curve $-1 113.1601916562395047 0 12.70700359258946044 0 0 -1 I I #
straight-curve $-1 113.1601916562395047 67.74105372462032904 12.70700359258946044 0 0 -1 I I #
coedge $-1 $388 $387 $380 $508 forward $377 $-1 #
edge $-1 $509 69.67032700514738508 $512 72.90169300770520522 $507 $569 forward 7 unknown #
vertex $-1 $392 $570 #
straight-curve $-1 65.51243998182701489 2.216032570978214267 25.41400718517891733 1 0 0 I I #
edge $-1 $512 -18.75932646239579071 $389 -7.031009195476528362 $388 $571 forward 7 unknown #
vertex $-1 $511 $572 #
straight-curve $-1 16.16297609316585948 2.216032570978214267 80.46444922498949381 -0.8571672965854804094 0 0.5150380817612800755 I I #
point $-1 107.7822956155841325 2.216032570978214267 25.41400718517891733 #
point $-1 113.1601916562395047 13.94434983789747662 22.18264118262109719 #
straight-curve $-1 113.1601916562395047 33.87052686231016452 25.41400718517892088 0 1 0 I I #
vertex $-1 $395 $573 #
point $-1 109.5079925091669963 8.080191204437845442 20.25360112574956162 #
edge $-1 $520 69.67032700514738508 $523 72.90169300770520522 $400 $574 forward 7 unknown #
vertex $-1 $414 $575 #
straight-curve $-1 65.51243998182701489 19.40958967622642461 25.41400718517891733 1 0 0 I I #
edge $-1 $523 -10.16254790977168554 $411 1.565769357147576812 $410 $576 forward 7 unknown #
vertex $-1 $522 $577 #
straight-curve $-1 16.16297609316585948 19.40958967622642461 80.46444922498949381 -0.8571672965854804094 0 0.5150380817612800755 I I #
point $-1 107.7822956155841325 19.40958967622642461 25.41400718517891733 #
point $-1 113.1601916562395047 31.13790694314568697 22.18264118262109719 #
straight-curve $-1 113.1601916562395047 33.87052686231016452 25.41400718517892088 0 1 0 I I #
vertex $-1 $417 $578 #
point $-1 109.5079925091669963 25.27374830968605934 20.25360112574956162 #
edge $-1 $531 69.67032700514738508 $534 72.90169300770520522 $422 $579 forward 7 unknown #
vertex $-1 $436 $580 #
straight-curve $-1 65.51243998182701489 36.60314678147464207 25.41400718517891733 1 0 0 I I #
edge $-1 $534 -1.565769357147580365 $433 10.16254790977168199 $432 $581 forward 7 unknown #
vertex $-1 $533 $582 #
straight-curve $-1 16.16297609316585948 36.60314678147464207 80.46444922498949381 -0.8571672965854804094 0 0.5150380817612800755 I I #
point $-1 107.7822956155841325 36.60314678147464207 25.41400718517891733 #
point $-1 113.1601916562395047 48.33146404839390442 22.18264118262109719 #
straight-curve $-1 113.1601916562395047 33.87052686231016452 25.41400718517892088 0 1 0 I I #
vertex $-1 $439 $583 #
point $-1 109.5079925091669963 42.46730541493427324 20.25360112574956162 #
edge $-1 $542 69.67032700514738508 $545 72.90169300770520522 $444 $584 forward 7 unknown #
vertex $-1 $458 $585 #
straight-curve $-1 65.51243998182701489 53.79670388672285952 25.41400718517891733 1 0 0 I I #
edge $-1 $545 7.031009195476535467 $455 18.75932646239579071 $454 $586 forward 7 unknown #
vertex $-1 $544 $587 #
straight-curve $-1 16.16297609316585948 53.79670388672285952 80.46444922498949381 -0.8571672965854804094 0 0.5150380817612800755 I I #
point $-1 107.7822956155841325 53.79670388672285952 25.41400718517891733 #
point $-1 113.1601916562395047 65.52502115364211477 22.18264118262109719 #
straight-curve $-1 113.1601916562395047 33.87052686231016452 25.41400718517892088 0 1 0 I I #
vertex $-1 $461 $588 #
point $-1 109.5079925091669963 59.6608625201824907 20.25360112574956162 #
edge $-1 $553 16.85955586180336141 $556 27.01353485766634321 $466 $589 forward 7 unknown #
vertex $-1 $480 $590 #
straight-curve $-1 -20.70975285929874588 58.85035049104483562 25.41400718517891733 -1 0 0 I I #
edge $-1 $556 -16.87947710405339308 $477 0.6787840546908512351 $476 $591 forward 7 unknown #
vertex $-1 $555 $592 #
straight-curve $-1 0 58.85035049104483562 15.26002818931594085 0.4999999866025272577 0 0.8660254115194729874 I I #
point $-1 5.862402297163626486 58.85035049104483562 25.41400718517892088 #
point $-1 0 41.29208933230059131 15.26002818931594085 #
straight-curve $-1 0 33.87052686231016452 25.41400718517892088 0 -1 0 I I #
vertex $-1 $483 $593 #
point $-1 8.692583303129573835 46.30873537765608461 19.32008332438535092 #
vertex $-1 $487 $594 #
point $-1 8.692583303129573835 53.83370444568933522 19.32008332438535092 #
straight-curve $-1 0 67.74105372462032904 12.70700359258946044 0 0 -1 I I #
point $-1 0 0 0 #
straight-curve $-1 0 33.87052686231016452 0 0 1 0 I I #
point $-1 0 67.74105372462032904 0 #
straight-curve $-1 113.1601916562395047 2.216032570978214267 95.08433419032630241 0 0 -1 I I #
point $-1 113.1601916562395047 2.216032570978214267 25.41400718517892088 #
straight-curve $-1 113.1601916562395047 20.97535903337400498 22.18264118262110429 0 1 0 I I #
point $-1 113.1601916562395047 2.216032570978214267 22.18264118262109719 #
point $-1 108.1357871308202334 8.080191204437845442 19.91147191092536062 #
straight-curve $-1 113.1601916562395047 19.40958967622642461 95.08433419032630241 0 0 -1 I I #
point $-1 113.1601916562395047 19.40958967622642461 25.41400718517892088 #
straight-curve $-1 113.1601916562395047 29.57213758599811015 22.18264118262110429 0 1 0 I I #
point $-1 113.1601916562395047 19.40958967622642461 22.18264118262109719 #
point $-1 108.1357871308202334 25.27374830968605934 19.91147191092536062 #
straight-curve $-1 113.1601916562395047 36.60314678147464207 95.08433419032630241 0 0 -1 I I #
point $-1 113.1601916562395047 36.60314678147464207 25.41400718517892088 #
straight-curve $-1 113.1601916562395047 38.16891613862222243 22.18264118262110429 0 1 0 I I #
point $-1 113.1601916562395047 36.60314678147464207 22.18264118262109719 #
point $-1 108.1357871308202334 42.46730541493427324 19.91147191092536062 #
straight-curve $-1 113.1601916562395047 53.79670388672285952 95.08433419032630241 0 0 -1 I I #
point $-1 113.1601916562395047 53.79670388672285952 25.41400718517892088 #
straight-curve $-1 113.1601916562395047 46.76569469124632406 22.18264118262110429 0 1 0 I I #
point $-1 113.1601916562395047 53.79670388672285952 22.18264118262109719 #
point $-1 108.1357871308202334 59.6608625201824907 19.91147191092536062 #
straight-curve $-1 0 58.85035049104483562 42.27356304698228229 0 0 -1 I I #
point $-1 0 58.85035049104483562 25.41400718517892088 #
straight-curve $-1 0 41.97087338699144254 15.26002818931594618 0 -1 0 I I #
point $-1 0 58.85035049104483562 15.26002818931594085 #
point $-1 9.424634152963463407 46.30873537765608461 16.58803252814135121 #
point $-1 9.424634152963463407 53.83370444568933522 16.58803252814135121 #
End-of-ACIS-data 