500 0 7 0           
7 Unknown 11 ACIS 5.0 NT 24 Fri Mar 26 18:02:58 1999 
-1 9.9999999999999995e-007 1e-010 
body $-1 $7 $-1 $8 #
body $-1 $9 $-1 $10 #
body $-1 $11 $-1 $12 #
body $-1 $13 $-1 $14 #
body $-1 $15 $-1 $16 #
body $-1 $17 $-1 $18 #
body $-1 $19 $-1 $20 #
lump $-1 $-1 $21 $0 #
transform $-1 1 0 0 0 1 0 0 0 1 76.273079622791215 44.138386440608073 10.803377577816731 1 rotate no_reflect no_shear #
lump $-1 $-1 $22 $1 #
transform $-1 1 0 0 0 1 0 0 0 1 76.273079622791215 44.138386440608073 10.803377577816731 1 rotate no_reflect no_shear #
lump $-1 $-1 $23 $2 #
transform $-1 1 0 0 0 1 0 0 0 1 76.273079622791215 44.138386440608073 10.803377577816731 1 rotate no_reflect no_shear #
lump $-1 $-1 $24 $3 #
transform $-1 1 0 0 0 1 0 0 0 1 76.273079622791215 44.138386440608073 10.803377577816731 1 rotate no_reflect no_shear #
lump $-1 $-1 $25 $4 #
transform $-1 1 0 0 0 1 0 0 0 1 76.273079622791215 44.138386440608073 10.803377577816731 1 rotate no_reflect no_shear #
lump $-1 $-1 $26 $5 #
transform $-1 1 0 0 0 1 0 0 0 1 76.273079622791215 44.138386440608073 10.803377577816731 1 rotate no_reflect no_shear #
lump $-1 $-1 $27 $6 #
transform $-1 1 0 0 0 1 0 0 0 1 76.273079622791215 44.138386440608073 10.803377577816731 1 rotate no_reflect no_shear #
shell $-1 $-1 $-1 $28 $-1 $7 #
shell $-1 $-1 $-1 $29 $-1 $9 #
shell $-1 $-1 $-1 $30 $-1 $11 #
shell $-1 $-1 $-1 $31 $-1 $13 #
shell $-1 $-1 $-1 $32 $-1 $15 #
shell $-1 $-1 $-1 $33 $-1 $17 #
shell $-1 $-1 $-1 $34 $-1 $19 #
face $-1 $35 $36 $21 $-1 $37 reversed single #
face $-1 $38 $39 $22 $-1 $40 forward single #
face $-1 $41 $42 $23 $-1 $43 reversed single #
face $-1 $44 $45 $24 $-1 $46 forward single #
face $-1 $47 $48 $25 $-1 $49 forward single #
face $-1 $50 $51 $26 $-1 $52 reversed single #
face $-1 $53 $54 $27 $-1 $55 forward single #
face $-1 $56 $57 $21 $-1 $58 forward single #
loop $-1 $-1 $59 $28 #
plane-surface $-1 0 -44.138386440608073 0 0 1 0 0 0 1 forward_v I I I I #
face $-1 $60 $61 $22 $-1 $62 reversed single #
loop $-1 $-1 $63 $29 #
plane-surface $-1 0 -44.138386440608073 0 0 1 0 0 0 1 forward_v I I I I #
face $-1 $64 $65 $23 $-1 $66 reversed single #
loop $-1 $-1 $67 $30 #
plane-surface $-1 106.29729187885462 12.921848680869058 219.74206994814671 0 -1 0 -0.79863551827123203 0 -0.60181501223851219 forward_v I I I I #
face $-1 $68 $69 $24 $-1 $70 forward single #
loop $-1 $71 $72 $31 #
cone-surface $-1 73.645184076489656 -1.1146790236451736 7.8087033829489956 -0.79863551827123203 0 -0.60181501223851219 0.60181501223851219 0 -0.79863551827123203 1 I I 0 1 1 forward I I I I #
face $-1 $73 $74 $25 $-1 $75 forward single #
loop $-1 $76 $77 $32 #
cone-surface $-1 73.645184076489656 7.3072375990633631 7.8087033829489956 -0.79863551827123203 0 -0.60181501223851219 0.60181501223851219 0 -0.79863551827123203 1 I I 0 1 1 forward I I I I #
face $-1 $78 $79 $26 $-1 $80 reversed single #
loop $-1 $-1 $81 $33 #
plane-surface $-1 -201.23157905802839 -20.857786256372684 95.060205572739733 0 1 0 -0.81915205242281985 0 0.57357642473473569 forward_v I I I I #
face $-1 $82 $83 $27 $-1 $84 forward single #
loop $-1 $85 $86 $34 #
cone-surface $-1 -74.632595447028251 -14.178709857529721 8.8289555312365451 0.81915205242281985 0 -0.57357642473473569 0.28678821236736785 0 0.40957602621140993 1 I I 0 1 0.5 forward I I I I #
face $-1 $87 $88 $21 $-1 $89 reversed single #
loop $-1 $-1 $90 $35 #
plane-surface $-1 0 0 10.803377577816731 0 0 1 1 0 0 forward_v I I I I #
coedge $-1 $91 $92 $93 $94 reversed $36 $-1 #
face $-1 $95 $96 $22 $-1 $97 reversed single #
loop $-1 $-1 $98 $38 #
plane-surface $-1 0 0 -10.803377577816731 0 0 1 1 0 0 forward_v I I I I #
coedge $-1 $99 $100 $101 $102 forward $39 $-1 #
face $-1 $103 $104 $23 $-1 $105 reversed single #
loop $-1 $-1 $106 $41 #
plane-surface $-1 -15.531489070527002 3.0962792877090948 127.93750125482849 0.79863551827123203 0 0.60181501223851219 0.60181501223851219 0 -0.79863551827123203 forward_v I I I I #
coedge $-1 $107 $108 $109 $110 reversed $42 $-1 #
face $-1 $-1 $111 $24 $-1 $112 forward single #
loop $-1 $113 $114 $44 #
cone-surface $-1 72.386809721480518 -1.1146790236451736 6.8604503181469614 -0.79863551827123203 0 -0.60181501223851219 0.3009075061192561 0 -0.39931775913561601 1 I I -0.70710678118654746 0.70710678118654746 0.5 forward I I I I #
loop $-1 $-1 $115 $31 #
coedge $-1 $72 $72 $116 $117 reversed $45 $-1 #
face $-1 $-1 $118 $25 $-1 $119 forward single #
loop $-1 $120 $121 $47 #
cone-surface $-1 72.386809721480518 7.3072375990633631 6.8604503181469614 -0.79863551827123203 0 -0.60181501223851219 0.3009075061192561 0 -0.39931775913561601 1 I I -0.70710678118654746 0.70710678118654746 0.5 forward I I I I #
loop $-1 $-1 $122 $32 #
coedge $-1 $77 $77 $123 $124 reversed $48 $-1 #
face $-1 $125 $126 $26 $-1 $127 reversed single #
loop $-1 $-1 $128 $50 #
plane-surface $-1 -76.273079622791229 -14.178709857529721 7.5633249456429184 -0.81915205242281985 0 0.57357642473473569 0.57357642473473569 0 0.81915205242281985 forward_v I I I I #
coedge $-1 $129 $130 $131 $132 reversed $51 $-1 #
face $-1 $-1 $133 $27 $-1 $134 forward single #
loop $-1 $135 $136 $53 #
cone-surface $-1 -73.921677862544655 -14.178709857529721 8.3311656945595818 0.81915205242281985 0 -0.57357642473473569 0.14339410618368392 0 0.20478801310570496 1 I I -0.70710678118654746 0.70710678118654746 0.25 forward I I I I #
loop $-1 $-1 $137 $34 #
coedge $-1 $86 $86 $138 $139 reversed $54 $-1 #
face $-1 $140 $141 $21 $-1 $142 reversed single #
loop $-1 $-1 $143 $56 #
plane-surface $-1 0 0 -10.803377577816731 0 0 1 1 0 0 forward_v I I I I #
coedge $-1 $144 $145 $146 $147 forward $57 $-1 #
coedge $-1 $148 $59 $149 $150 reversed $36 $-1 #
coedge $-1 $59 $148 $151 $152 forward $36 $-1 #
coedge $-1 $153 $143 $59 $94 forward $88 $-1 #
edge $-1 $154 -76.273079622791215 $155 76.273079622791215 $59 $156 forward 7 unknown #
face $-1 $157 $158 $22 $-1 $159 reversed single #
loop $-1 $-1 $160 $60 #
plane-surface $-1 -57.447995547399522 -56.9992161247025 0 0 1 0 0 0 1 forward_v I I I I #
coedge $-1 $161 $162 $100 $163 forward $61 $-1 #
coedge $-1 $164 $63 $165 $166 reversed $39 $-1 #
coedge $-1 $63 $164 $98 $163 reversed $39 $-1 #
coedge $-1 $167 $168 $63 $102 reversed $158 $-1 #
edge $-1 $169 -10.803377577816731 $170 10.803377577816731 $101 $171 forward 7 unknown #
face $-1 $172 $173 $23 $-1 $174 forward single #
loop $-1 $-1 $175 $64 #
plane-surface $-1 106.29729187885462 -6.7292901054508683 219.74206994814671 0 1 0 0.79863551827123203 0 0.60181501223851219 forward_v I I I I #
coedge $-1 $176 $177 $178 $179 reversed $65 $-1 #
coedge $-1 $108 $67 $180 $181 reversed $42 $-1 #
coedge $-1 $67 $107 $176 $182 reversed $42 $-1 #
coedge $-1 $178 $183 $67 $110 forward $173 $-1 #
edge $-1 $184 -23.124433683363904 $185 -19.586755782507808 $109 $186 forward 7 unknown #
loop $-1 $-1 $116 $68 #
plane-surface $-1 -15.531489070527002 3.0962792877090948 127.93750125482849 0.79863551827123203 0 0.60181501223851219 0.60181501223851219 0 -0.79863551827123203 forward_v I I I I #
loop $-1 $-1 $187 $44 #
coedge $-1 $114 $114 $115 $188 reversed $69 $-1 #
coedge $-1 $115 $115 $114 $188 forward $71 $-1 #
coedge $-1 $116 $116 $72 $117 forward $111 $-1 #
edge $-1 $189 0 $189 6.2831853071796004 $116 $190 forward 7 unknown #
loop $-1 $-1 $123 $73 #
plane-surface $-1 -15.531489070527002 3.0962792877090948 127.93750125482849 0.79863551827123203 0 0.60181501223851219 0.60181501223851219 0 -0.79863551827123203 forward_v I I I I #
loop $-1 $-1 $191 $47 #
coedge $-1 $121 $121 $122 $192 reversed $74 $-1 #
coedge $-1 $122 $122 $121 $192 forward $76 $-1 #
coedge $-1 $123 $123 $77 $124 forward $118 $-1 #
edge $-1 $193 0 $193 6.2831853071796004 $123 $194 forward 7 unknown #
face $-1 $195 $196 $26 $-1 $197 reversed single #
loop $-1 $-1 $198 $78 #
plane-surface $-1 -201.23157905802839 -7.499633458686759 95.060205572739733 0 -1 0 0.81915205242281985 0 -0.57357642473473569 forward_v I I I I #
coedge $-1 $199 $200 $201 $202 reversed $79 $-1 #
coedge $-1 $130 $81 $203 $204 reversed $51 $-1 #
coedge $-1 $81 $129 $199 $205 reversed $51 $-1 #
coedge $-1 $201 $206 $81 $132 forward $207 $-1 #
edge $-1 $208 24.342709906222979 $209 26.611419114993126 $131 $210 forward 7 unknown #
loop $-1 $-1 $138 $82 #
plane-surface $-1 -76.273079622791229 -14.178709857529721 7.5633249456429184 -0.81915205242281985 0 0.57357642473473569 0.57357642473473569 0 0.81915205242281985 forward_v I I I I #
loop $-1 $-1 $211 $53 #
coedge $-1 $136 $136 $137 $212 reversed $83 $-1 #
coedge $-1 $137 $137 $136 $212 forward $85 $-1 #
coedge $-1 $138 $138 $86 $139 forward $133 $-1 #
edge $-1 $213 0 $213 6.2831853071796004 $138 $214 forward 7 unknown #
face $-1 $215 $216 $21 $-1 $217 reversed single #
loop $-1 $-1 $218 $87 #
plane-surface $-1 -76.273079622791215 0 0 1 0 0 0 0 -1 forward_v I I I I #
coedge $-1 $93 $219 $220 $221 forward $88 $-1 #
coedge $-1 $222 $90 $223 $224 forward $57 $-1 #
coedge $-1 $90 $222 $148 $225 forward $57 $-1 #
coedge $-1 $149 $226 $90 $147 reversed $227 $-1 #
edge $-1 $228 -44.138386440608073 $229 44.138386440608073 $146 $230 forward 7 unknown #
coedge $-1 $92 $91 $145 $225 reversed $36 $-1 #
coedge $-1 $220 $146 $91 $150 forward $227 $-1 #
edge $-1 $228 -10.803377577816731 $154 10.803377577816731 $149 $231 forward 7 unknown #
coedge $-1 $232 $233 $92 $152 reversed $141 $-1 #
edge $-1 $234 -10.803377577816731 $155 10.803377577816731 $151 $235 forward 7 unknown #
coedge $-1 $219 $93 $233 $236 forward $88 $-1 #
vertex $-1 $150 $237 #
vertex $-1 $236 $238 #
straight-curve $-1 0 -44.138386440608073 -10.803377577816731 -1 0 0 I I #
face $-1 $239 $240 $22 $-1 $241 reversed single #
loop $-1 $-1 $101 $95 #
plane-surface $-1 -60.229666627641286 -50.568801282655286 0 1 0 0 0 0 -1 forward_v I I I I #
coedge $-1 $242 $243 $244 $245 forward $96 $-1 #
coedge $-1 $246 $98 $247 $248 forward $61 $-1 #
coedge $-1 $98 $246 $167 $249 forward $61 $-1 #
edge $-1 $169 -60.229666627641286 $250 -54.666324467157757 $98 $251 forward 7 unknown #
coedge $-1 $100 $99 $252 $253 forward $39 $-1 #
coedge $-1 $254 $255 $99 $166 forward $256 $-1 #
edge $-1 $257 54.666324467157757 $170 60.229666627641286 $165 $258 forward 7 unknown #
coedge $-1 $244 $101 $162 $249 reversed $158 $-1 #
coedge $-1 $101 $244 $254 $259 reversed $158 $-1 #
vertex $-1 $163 $260 #
vertex $-1 $259 $261 #
straight-curve $-1 -60.229666627641286 -44.138386440608073 0 0 0 1 I I #
face $-1 $-1 $262 $23 $-1 $263 reversed single #
loop $-1 $-1 $109 $103 #
plane-surface $-1 0 0 10.803377577816731 0 0 1 1 0 0 forward_v I I I I #
coedge $-1 $264 $265 $266 $267 reversed $104 $-1 #
coedge $-1 $268 $106 $108 $182 forward $65 $-1 #
coedge $-1 $106 $268 $264 $269 forward $65 $-1 #
coedge $-1 $266 $109 $106 $179 forward $173 $-1 #
edge $-1 $185 -11.37370903701451 $270 8.2774297493054156 $178 $271 forward 7 unknown #
coedge $-1 $272 $273 $107 $181 forward $262 $-1 #
edge $-1 $274 -103.76231466862649 $184 -99.067657396256621 $180 $275 forward 7 unknown #
edge $-1 $185 146.66781153255789 $274 152.54615924558243 $108 $276 forward 7 unknown #
coedge $-1 $109 $266 $272 $277 forward $173 $-1 #
vertex $-1 $110 $278 #
vertex $-1 $110 $279 #
straight-curve $-1 53.148645939427311 12.921848680869058 10.803377577816732 -1 0 0 I I #
coedge $-1 $187 $187 $-1 $280 reversed $113 $-1 #
edge $-1 $281 0 $281 6.2831853071796004 $114 $282 forward 7 unknown #
vertex $-1 $117 $283 #
ellipse-curve $-1 74.504240672363196 -1.1146790236451736 8.4560489416317814 0.79863551827123203 0 0.60181501223851219 0.60181501223851219 0 -0.79863551827123203 1 I I #
coedge $-1 $191 $191 $-1 $284 reversed $120 $-1 #
edge $-1 $285 0 $285 6.2831853071796004 $121 $286 forward 7 unknown #
vertex $-1 $124 $287 #
ellipse-curve $-1 74.504240672363196 7.3072375990633631 8.4560489416317814 0.79863551827123203 0 0.60181501223851219 0.60181501223851219 0 -0.79863551827123203 1 I I #
face $-1 $-1 $207 $26 $-1 $288 forward single #
loop $-1 $-1 $289 $125 #
plane-surface $-1 -76.273079622791215 0 0 1 0 0 0 0 -1 forward_v I I I I #
coedge $-1 $290 $291 $292 $293 reversed $126 $-1 #
coedge $-1 $294 $128 $130 $205 forward $79 $-1 #
coedge $-1 $128 $294 $290 $295 forward $79 $-1 #
coedge $-1 $292 $131 $128 $202 forward $207 $-1 #
edge $-1 $209 -13.768431327607823 $296 -0.41027852992189828 $201 $297 forward 7 unknown #
coedge $-1 $298 $299 $129 $204 forward $196 $-1 #
edge $-1 $300 -39.966777840726927 $208 -36.726725208553134 $203 $301 forward 7 unknown #
edge $-1 $209 -3.9553738803322984 $300 -2.4884734274515653e-014 $130 $302 forward 7 unknown #
coedge $-1 $131 $292 $298 $303 forward $207 $-1 #
loop $-1 $-1 $292 $195 #
vertex $-1 $204 $304 #
vertex $-1 $132 $305 #
straight-curve $-1 -100.61578952901419 -20.857786256372684 10.803377577816732 1 0 0 I I #
coedge $-1 $211 $211 $-1 $306 reversed $135 $-1 #
edge $-1 $307 0 $307 6.2831853071796004 $136 $308 forward 7 unknown #
vertex $-1 $139 $309 #
ellipse-curve $-1 -75.138725018406149 -14.178709857529721 9.183351261729829 -0.81915205242281985 0 0.57357642473473569 0.28678821236736785 0 0.40957602621140993 1 I I #
face $-1 $-1 $227 $21 $-1 $310 reversed single #
loop $-1 $-1 $311 $140 #
plane-surface $-1 0 44.138386440608073 0 0 -1 0 0 0 -1 forward_v I I I I #
coedge $-1 $233 $232 $312 $313 forward $141 $-1 #
coedge $-1 $143 $153 $314 $315 forward $88 $-1 #
coedge $-1 $226 $149 $143 $221 reversed $227 $-1 #
edge $-1 $316 -44.138386440608073 $154 44.138386440608073 $220 $317 forward 7 unknown #
coedge $-1 $145 $144 $232 $318 forward $57 $-1 #
coedge $-1 $311 $312 $144 $224 reversed $216 $-1 #
edge $-1 $229 -76.273079622791215 $319 76.273079622791215 $223 $320 forward 7 unknown #
edge $-1 $234 -76.273079622791215 $228 76.273079622791215 $148 $321 forward 7 unknown #
coedge $-1 $146 $220 $311 $322 reversed $227 $-1 #
loop $-1 $-1 $149 $215 #
vertex $-1 $147 $323 #
vertex $-1 $147 $324 #
straight-curve $-1 76.273079622791215 0 10.803377577816731 0 1 0 I I #
straight-curve $-1 76.273079622791215 -44.138386440608073 0 0 0 -1 I I #
coedge $-1 $218 $151 $222 $318 reversed $141 $-1 #
coedge $-1 $151 $218 $153 $236 reversed $141 $-1 #
vertex $-1 $318 $325 #
straight-curve $-1 -76.273079622791215 -44.138386440608073 0 0 0 -1 I I #
edge $-1 $155 -44.138386440608073 $326 44.138386440608073 $233 $327 forward 7 unknown #
point $-1 76.273079622791215 -44.138386440608073 -10.803377577816731 #
point $-1 -76.273079622791215 -44.138386440608073 -10.803377577816731 #
face $-1 $-1 $256 $22 $-1 $328 forward single #
loop $-1 $-1 $329 $157 #
plane-surface $-1 -54.666324467157757 -50.568801282655286 0 -1 0 0 0 0 1 forward_v I I I I #
coedge $-1 $330 $160 $246 $331 reversed $96 $-1 #
coedge $-1 $160 $330 $332 $333 reversed $96 $-1 #
coedge $-1 $168 $167 $160 $245 reversed $158 $-1 #
edge $-1 $334 -10.803377577816731 $335 10.803377577816731 $244 $336 forward 7 unknown #
coedge $-1 $162 $161 $242 $331 forward $61 $-1 #
coedge $-1 $252 $329 $161 $248 reversed $240 $-1 #
edge $-1 $250 -6.4304148420472131 $337 6.4304148420472131 $247 $338 forward 7 unknown #
edge $-1 $335 -6.4304148420472131 $169 6.4304148420472131 $167 $339 forward 7 unknown #
vertex $-1 $248 $340 #
straight-curve $-1 0 -44.138386440608073 -10.803377577816731 1 0 0 I I #
coedge $-1 $341 $247 $164 $253 reversed $240 $-1 #
edge $-1 $257 -10.803377577816731 $250 10.803377577816731 $252 $342 forward 7 unknown #
coedge $-1 $332 $165 $168 $259 forward $256 $-1 #
coedge $-1 $165 $332 $341 $343 forward $256 $-1 #
loop $-1 $-1 $165 $239 #
vertex $-1 $166 $344 #
straight-curve $-1 0 -44.138386440608073 10.803377577816731 -1 0 0 I I #
edge $-1 $170 -6.4304148420472131 $334 6.4304148420472131 $168 $345 forward 7 unknown #
point $-1 -60.229666627641286 -44.138386440608073 -10.803377577816731 #
point $-1 -60.229666627641286 -44.138386440608073 10.803377577816731 #
loop $-1 $-1 $180 $172 #
plane-surface $-1 76.273079622791215 0 0 -1 0 0 0 0 1 forward_v I I I I #
coedge $-1 $265 $175 $177 $269 reversed $104 $-1 #
coedge $-1 $175 $264 $346 $347 reversed $104 $-1 #
coedge $-1 $183 $178 $175 $267 forward $173 $-1 #
edge $-1 $270 19.586755782507808 $348 23.124433683363904 $266 $349 forward 7 unknown #
coedge $-1 $177 $176 $273 $350 reversed $65 $-1 #
edge $-1 $351 -152.54615924558243 $270 -146.66781153255789 $264 $352 forward 7 unknown #
vertex $-1 $179 $353 #
straight-curve $-1 72.735401721935133 1.5481396438545474 10.803377577816732 0 -1 0 I I #
coedge $-1 $346 $180 $183 $277 reversed $262 $-1 #
coedge $-1 $180 $346 $268 $350 forward $262 $-1 #
vertex $-1 $181 $354 #
straight-curve $-1 76.273079622791215 12.921848680869058 109.87103497407335 0 0 1 I I #
straight-curve $-1 -15.531489070527002 12.921848680869058 127.93750125482849 0.60181501223851219 0 -0.79863551827123203 I I #
edge $-1 $348 -6.7292901054508683 $184 12.921848680869058 $272 $355 forward 7 unknown #
point $-1 76.273079622791215 12.921848680869058 10.803377577816731 #
point $-1 72.735401721935119 12.921848680869058 10.803377577816732 #
edge $-1 $356 1 $356 0 $187 $-1 forward 7 unknown #
vertex $-1 $188 $357 #
ellipse-curve $-1 72.78612748061613 -1.1146790236451736 7.1613578242662177 0.79863551827123203 0 0.60181501223851219 0.60181501223851219 0 -0.79863551827123203 1 I I #
point $-1 75.106055684601699 -1.1146790236451736 7.6574134233605422 #
edge $-1 $358 1 $358 0 $191 $-1 forward 7 unknown #
vertex $-1 $192 $359 #
ellipse-curve $-1 72.78612748061613 7.3072375990633631 7.1613578242662177 0.79863551827123203 0 0.60181501223851219 0.60181501223851219 0 -0.79863551827123203 1 I I #
point $-1 75.106055684601699 7.3072375990633631 7.6574134233605422 #
plane-surface $-1 0 0 10.803377577816731 0 0 1 1 0 0 forward_v I I I I #
coedge $-1 $299 $298 $291 $360 forward $196 $-1 #
coedge $-1 $291 $198 $200 $295 reversed $126 $-1 #
coedge $-1 $198 $290 $289 $360 reversed $126 $-1 #
coedge $-1 $206 $201 $198 $293 forward $207 $-1 #
edge $-1 $296 -26.611419114993126 $361 -24.342709906222979 $292 $362 forward 7 unknown #
coedge $-1 $200 $199 $299 $363 reversed $79 $-1 #
edge $-1 $364 2.4884734274515653e-014 $296 3.9553738803322984 $290 $365 forward 7 unknown #
vertex $-1 $202 $366 #
straight-curve $-1 -74.004370414021082 -7.0893549287648607 10.803377577816731 0 1 0 I I #
coedge $-1 $289 $203 $206 $303 reversed $196 $-1 #
coedge $-1 $203 $289 $294 $363 forward $196 $-1 #
vertex $-1 $204 $367 #
straight-curve $-1 -76.273079622791215 -20.857786256372684 47.530102786369866 0 0 1 I I #
straight-curve $-1 -76.273079622791229 -20.857786256372684 7.5633249456429184 -0.57357642473473569 0 -0.81915205242281985 I I #
edge $-1 $361 7.499633458686759 $208 20.857786256372684 $298 $368 forward 7 unknown #
point $-1 -76.273079622791215 -20.857786256372684 10.803377577816731 #
point $-1 -74.004370414021068 -20.857786256372684 10.803377577816731 #
edge $-1 $369 1 $369 0 $211 $-1 forward 7 unknown #
vertex $-1 $212 $370 #
ellipse-curve $-1 -74.126465875650354 -14.178709857529721 8.4745598007432665 -0.81915205242281985 0 0.57357642473473569 0.28678821236736785 0 0.40957602621140993 1 I I #
point $-1 -74.851936806038765 -14.178709857529721 9.5929272879412331 #
plane-surface $-1 76.273079622791215 0 0 -1 0 0 0 0 1 forward_v I I I I #
coedge $-1 $314 $223 $226 $322 forward $216 $-1 #
coedge $-1 $223 $314 $218 $313 reversed $216 $-1 #
edge $-1 $319 -10.803377577816731 $326 10.803377577816731 $312 $371 forward 7 unknown #
coedge $-1 $312 $311 $219 $315 reversed $216 $-1 #
edge $-1 $326 -76.273079622791215 $316 76.273079622791215 $314 $372 forward 7 unknown #
vertex $-1 $221 $373 #
straight-curve $-1 76.273079622791215 0 -10.803377577816731 0 -1 0 I I #
edge $-1 $319 -44.138386440608073 $234 44.138386440608073 $232 $374 forward 7 unknown #
vertex $-1 $224 $375 #
straight-curve $-1 0 44.138386440608073 10.803377577816731 -1 0 0 I I #
straight-curve $-1 0 -44.138386440608073 10.803377577816731 1 0 0 I I #
edge $-1 $229 -10.803377577816731 $316 10.803377577816731 $226 $376 forward 7 unknown #
point $-1 76.273079622791215 -44.138386440608073 10.803377577816731 #
point $-1 76.273079622791215 44.138386440608073 10.803377577816731 #
point $-1 -76.273079622791215 -44.138386440608073 10.803377577816731 #
vertex $-1 $315 $377 #
straight-curve $-1 -76.273079622791215 0 -10.803377577816731 0 1 0 I I #
plane-surface $-1 0 0 10.803377577816731 0 0 1 1 0 0 forward_v I I I I #
coedge $-1 $247 $341 $330 $378 forward $240 $-1 #
coedge $-1 $243 $242 $329 $378 reversed $96 $-1 #
edge $-1 $337 -2.7816710802417646 $335 2.7816710802417646 $242 $379 forward 7 unknown #
coedge $-1 $255 $254 $243 $333 forward $256 $-1 #
edge $-1 $334 -2.7816710802417646 $380 2.7816710802417646 $243 $381 forward 7 unknown #
vertex $-1 $259 $382 #
vertex $-1 $249 $383 #
straight-curve $-1 -60.229666627641286 -56.9992161247025 0 0 0 -1 I I #
vertex $-1 $378 $384 #
straight-curve $-1 -54.666324467157757 -50.568801282655286 -10.803377577816731 0 -1 0 I I #
straight-curve $-1 -60.229666627641286 -50.568801282655286 -10.803377577816731 0 1 0 I I #
point $-1 -54.666324467157757 -44.138386440608073 -10.803377577816731 #
coedge $-1 $329 $252 $255 $343 reversed $240 $-1 #
straight-curve $-1 -54.666324467157757 -44.138386440608073 0 0 0 -1 I I #
edge $-1 $380 -6.4304148420472131 $257 6.4304148420472131 $341 $385 forward 7 unknown #
point $-1 -54.666324467157757 -44.138386440608073 10.803377577816731 #
straight-curve $-1 -60.229666627641286 -50.568801282655286 10.803377577816731 0 -1 0 I I #
coedge $-1 $273 $272 $265 $347 forward $262 $-1 #
edge $-1 $348 99.067657396256621 $351 103.76231466862649 $346 $386 forward 7 unknown #
vertex $-1 $277 $387 #
straight-curve $-1 53.148645939427311 -6.7292901054508683 10.803377577816732 1 0 0 I I #
edge $-1 $351 -8.2774297493054156 $274 11.37370903701451 $273 $388 forward 7 unknown #
vertex $-1 $350 $389 #
straight-curve $-1 -15.531489070527002 -6.7292901054508683 127.93750125482849 -0.60181501223851219 0 0.79863551827123203 I I #
point $-1 72.735401721935119 -6.7292901054508683 10.803377577816732 #
point $-1 76.273079622791215 12.921848680869058 6.108720305446866 #
straight-curve $-1 76.273079622791215 0 10.803377577816731 0 1 0 I I #
vertex $-1 $280 $390 #
point $-1 73.387942492854648 -1.1146790236451736 6.3627223059949856 #
vertex $-1 $284 $391 #
point $-1 73.387942492854648 7.3072375990633631 6.3627223059949856 #
edge $-1 $361 36.726725208553134 $364 39.966777840726927 $289 $392 forward 7 unknown #
vertex $-1 $303 $393 #
straight-curve $-1 -100.61578952901419 -7.499633458686759 10.803377577816732 -1 0 0 I I #
edge $-1 $364 0.41027852992189828 $300 13.768431327607823 $299 $394 forward 7 unknown #
vertex $-1 $363 $395 #
straight-curve $-1 -76.273079622791229 -7.499633458686759 7.5633249456429184 0.57357642473473569 0 0.81915205242281985 I I #
point $-1 -74.004370414021068 -7.499633458686759 10.803377577816731 #
point $-1 -76.273079622791215 -20.857786256372684 7.5633249456429388 #
straight-curve $-1 -76.273079622791215 0 10.803377577816731 0 -1 0 I I #
vertex $-1 $306 $396 #
point $-1 -73.839677663282998 -14.178709857529721 8.884135826954676 #
straight-curve $-1 -76.273079622791215 44.138386440608073 0 0 0 -1 I I #
straight-curve $-1 0 44.138386440608073 -10.803377577816731 1 0 0 I I #
point $-1 76.273079622791215 44.138386440608073 -10.803377577816731 #
straight-curve $-1 -76.273079622791215 0 10.803377577816731 0 -1 0 I I #
point $-1 -76.273079622791215 44.138386440608073 10.803377577816731 #
straight-curve $-1 76.273079622791215 44.138386440608073 0 0 0 -1 I I #
point $-1 -76.273079622791215 44.138386440608073 -10.803377577816731 #
edge $-1 $380 -10.803377577816731 $337 10.803377577816731 $329 $397 forward 7 unknown #
straight-curve $-1 -57.447995547399522 -56.9992161247025 -10.803377577816731 -1 0 0 I I #
vertex $-1 $343 $398 #
straight-curve $-1 -57.447995547399522 -56.9992161247025 10.803377577816731 1 0 0 I I #
point $-1 -60.229666627641286 -56.9992161247025 10.803377577816731 #
point $-1 -60.229666627641286 -56.9992161247025 -10.803377577816731 #
point $-1 -54.666324467157757 -56.9992161247025 -10.803377577816731 #
straight-curve $-1 -54.666324467157757 -50.568801282655286 10.803377577816731 0 1 0 I I #
straight-curve $-1 76.273079622791215 -6.7292901054508683 109.87103497407335 0 0 -1 I I #
point $-1 76.273079622791215 -6.7292901054508683 10.803377577816731 #
straight-curve $-1 76.273079622791215 1.5481396438545474 6.108720305446866 0 1 0 I I #
point $-1 76.273079622791215 -6.7292901054508683 6.108720305446866 #
point $-1 71.987491962344905 -1.1146790236451736 6.5595428120277051 #
point $-1 71.987491962344905 7.3072375990633631 6.5595428120277051 #
straight-curve $-1 -76.273079622791215 -7.499633458686759 47.530102786369866 0 0 -1 I I #
point $-1 -76.273079622791215 -7.499633458686759 10.803377577816731 #
straight-curve $-1 -76.273079622791215 -7.0893549287648607 7.5633249456429255 0 -1 0 I I #
point $-1 -76.273079622791215 -7.499633458686759 7.5633249456429388 #
point $-1 -73.716889849438957 -14.178709857529721 8.187771588375897 #
straight-curve $-1 -54.666324467157757 -56.9992161247025 0 0 0 -1 I I #
point $-1 -54.666324467157757 -56.9992161247025 10.803377577816731 #
End-of-ACIS-data 