500 0 14 0           
7 Unknown 11 ACIS 5.0 NT 24 Thu Mar 25 17:05:30 1999 
-1 9.9999999999999995e-007 1e-010 
body $-1 $14 $-1 $15 #
body $-1 $16 $-1 $17 #
body $-1 $18 $-1 $19 #
body $-1 $20 $-1 $21 #
body $-1 $22 $-1 $23 #
body $-1 $24 $-1 $25 #
body $-1 $26 $-1 $27 #
body $-1 $28 $-1 $29 #
body $-1 $30 $-1 $31 #
body $-1 $32 $-1 $33 #
body $-1 $34 $-1 $35 #
body $-1 $36 $-1 $37 #
body $-1 $38 $-1 $39 #
body $-1 $40 $-1 $41 #
lump $-1 $-1 $42 $0 #
transform $-1 1 0 0 0 1 0 0 0 1 66.652424695577878 42.236120201775272 8.540417542677158 1 rotate no_reflect no_shear #
lump $-1 $-1 $43 $1 #
transform $-1 1 0 0 0 1 0 0 0 1 66.652424695577878 42.236120201775272 8.540417542677158 1 rotate no_reflect no_shear #
lump $-1 $-1 $44 $2 #
transform $-1 1 0 0 0 1 0 0 0 1 66.652424695577878 42.236120201775272 8.540417542677158 1 rotate no_reflect no_shear #
lump $-1 $-1 $45 $3 #
transform $-1 1 0 0 0 1 0 0 0 1 66.652424695577878 42.236120201775272 8.540417542677158 1 rotate no_reflect no_shear #
lump $-1 $-1 $46 $4 #
transform $-1 1 0 0 0 1 0 0 0 1 66.652424695577878 42.236120201775272 8.540417542677158 1 rotate no_reflect no_shear #
lump $-1 $-1 $47 $5 #
transform $-1 1 0 0 0 1 0 0 0 1 66.652424695577878 42.236120201775272 8.540417542677158 1 rotate no_reflect no_shear #
lump $-1 $-1 $48 $6 #
transform $-1 1 0 0 0 1 0 0 0 1 66.652424695577878 42.236120201775272 8.540417542677158 1 rotate no_reflect no_shear #
lump $-1 $-1 $49 $7 #
transform $-1 1 0 0 0 1 0 0 0 1 66.652424695577878 42.236120201775272 8.540417542677158 1 rotate no_reflect no_shear #
lump $-1 $-1 $50 $8 #
transform $-1 1 0 0 0 1 0 0 0 1 66.652424695577878 42.236120201775272 8.540417542677158 1 rotate no_reflect no_shear #
lump $-1 $-1 $51 $9 #
transform $-1 1 0 0 0 1 0 0 0 1 66.652424695577878 42.236120201775272 8.540417542677158 1 rotate no_reflect no_shear #
lump $-1 $-1 $52 $10 #
transform $-1 1 0 0 0 1 0 0 0 1 66.652424695577878 42.236120201775272 8.540417542677158 1 rotate no_reflect no_shear #
lump $-1 $-1 $53 $11 #
transform $-1 1 0 0 0 1 0 0 0 1 66.652424695577878 42.236120201775272 8.540417542677158 1 rotate no_reflect no_shear #
lump $-1 $-1 $54 $12 #
transform $-1 1 0 0 0 1 0 0 0 1 66.652424695577878 42.236120201775272 8.540417542677158 1 rotate no_reflect no_shear #
lump $-1 $-1 $55 $13 #
transform $-1 1 0 0 0 1 0 0 0 1 66.652424695577878 42.236120201775272 8.540417542677158 1 rotate no_reflect no_shear #
shell $-1 $-1 $-1 $56 $-1 $14 #
shell $-1 $-1 $-1 $57 $-1 $16 #
shell $-1 $-1 $-1 $58 $-1 $18 #
shell $-1 $-1 $-1 $59 $-1 $20 #
shell $-1 $-1 $-1 $60 $-1 $22 #
shell $-1 $-1 $-1 $61 $-1 $24 #
shell $-1 $-1 $-1 $62 $-1 $26 #
shell $-1 $-1 $-1 $63 $-1 $28 #
shell $-1 $-1 $-1 $64 $-1 $30 #
shell $-1 $-1 $-1 $65 $-1 $32 #
shell $-1 $-1 $-1 $66 $-1 $34 #
shell $-1 $-1 $-1 $67 $-1 $36 #
shell $-1 $-1 $-1 $68 $-1 $38 #
shell $-1 $-1 $-1 $69 $-1 $40 #
face $-1 $70 $71 $42 $-1 $72 forward single #
face $-1 $73 $74 $43 $-1 $75 reversed single #
face $-1 $76 $77 $44 $-1 $78 reversed single #
face $-1 $79 $80 $45 $-1 $81 reversed single #
face $-1 $82 $83 $46 $-1 $84 forward single #
face $-1 $85 $86 $47 $-1 $87 forward single #
face $-1 $88 $89 $48 $-1 $90 reversed single #
face $-1 $91 $92 $49 $-1 $93 forward single #
face $-1 $94 $95 $50 $-1 $96 reversed single #
face $-1 $97 $98 $51 $-1 $99 forward single #
face $-1 $100 $101 $52 $-1 $102 reversed single #
face $-1 $103 $104 $53 $-1 $105 forward single #
face $-1 $106 $107 $54 $-1 $108 reversed single #
face $-1 $109 $110 $55 $-1 $111 forward single #
face $-1 $112 $113 $42 $-1 $114 reversed single #
loop $-1 $-1 $115 $56 #
plane-surface $-1 0 0 8.540417542677158 0 0 1 1 0 0 forward_v I I I I #
face $-1 $116 $117 $43 $-1 $118 reversed single #
loop $-1 $-1 $119 $57 #
plane-surface $-1 -61.524592965191275 0 5.540417542677158 0 0 1 1 0 0 forward_v I I I I #
face $-1 $120 $121 $44 $-1 $122 reversed single #
loop $-1 $-1 $123 $58 #
plane-surface $-1 61.52459296519126 0 5.540417542677158 0 0 1 1 0 0 forward_v I I I I #
face $-1 $124 $125 $45 $-1 $126 reversed single #
loop $-1 $-1 $127 $59 #
plane-surface $-1 39.59822923229838 -112.87692884258789 113.27769554273239 -1 0 0 0 -0.52991927123019833 0.84804809178421925 forward_v I I I I #
face $-1 $128 $129 $46 $-1 $130 forward single #
loop $-1 $131 $132 $60 #
cone-surface $-1 30.569839712438267 -34.997775584003236 3.4441770017090647 0 0.52991927123019833 -0.84804809178421925 1.5 0 0 1 I I 0 1 1.5 forward I I I I #
face $-1 $133 $134 $47 $-1 $135 forward single #
loop $-1 $136 $137 $61 #
cone-surface $-1 35.986873424354329 -34.997775584003236 3.4441770017090647 0 0.52991927123019833 -0.84804809178421925 1.5 0 0 1 I I 0 1 1.5 forward I I I I #
face $-1 $138 $139 $48 $-1 $140 reversed single #
loop $-1 $-1 $141 $62 #
plane-surface $-1 -53.958812591367149 60.480321240896764 161.21603841460316 1 0 0 0 -0.62932039886446345 -0.77714595512881146 forward_v I I I I #
face $-1 $142 $143 $49 $-1 $144 forward single #
loop $-1 $145 $146 $63 #
cone-surface $-1 -47.904383529303438 38.816448675282253 5.3888901543651784 0 -0.62932039886446345 -0.77714595512881146 1 0 0 1 I I 0 1 1 forward I I I I #
face $-1 $147 $148 $50 $-1 $149 reversed single #
loop $-1 $-1 $150 $64 #
plane-surface $-1 -25.76043197396481 60.480321240896764 161.21603841460316 1 0 0 0 -0.62932039886446345 -0.77714595512881146 forward_v I I I I #
face $-1 $151 $152 $51 $-1 $153 forward single #
loop $-1 $154 $155 $65 #
cone-surface $-1 -19.706002911901102 38.816448675282253 5.3888901543651784 0 -0.62932039886446345 -0.77714595512881146 1 0 0 1 I I 0 1 1 forward I I I I #
face $-1 $156 $157 $52 $-1 $158 reversed single #
loop $-1 $-1 $159 $66 #
plane-surface $-1 2.437948643437533 60.480321240896764 161.21603841460316 1 0 0 0 -0.62932039886446345 -0.77714595512881146 forward_v I I I I #
face $-1 $160 $161 $53 $-1 $162 forward single #
loop $-1 $163 $164 $67 #
cone-surface $-1 8.4923777055012408 38.816448675282253 5.3888901543651784 0 -0.62932039886446345 -0.77714595512881146 1 0 0 1 I I 0 1 1 forward I I I I #
face $-1 $165 $166 $54 $-1 $167 reversed single #
loop $-1 $-1 $168 $68 #
plane-surface $-1 30.636329260839869 60.480321240896764 161.21603841460316 1 0 0 0 -0.62932039886446345 -0.77714595512881146 forward_v I I I I #
face $-1 $169 $170 $55 $-1 $171 forward single #
loop $-1 $172 $173 $69 #
cone-surface $-1 36.690758322903577 38.816448675282253 5.3888901543651784 0 -0.62932039886446345 -0.77714595512881146 1 0 0 1 I I 0 1 1 forward I I I I #
face $-1 $174 $175 $42 $-1 $176 reversed single #
loop $-1 $-1 $177 $70 #
plane-surface $-1 0 0 -8.540417542677158 0 0 1 1 0 0 forward_v I I I I #
coedge $-1 $178 $179 $180 $181 forward $71 $-1 #
face $-1 $182 $183 $43 $-1 $184 reversed single #
loop $-1 $-1 $185 $73 #
plane-surface $-1 -56.396761234804671 0 7.040417542677158 -1 0 0 0 0 1 forward_v I I I I #
coedge $-1 $186 $187 $188 $189 forward $74 $-1 #
face $-1 $190 $191 $44 $-1 $192 forward single #
loop $-1 $-1 $193 $76 #
plane-surface $-1 56.396761234804657 0 7.040417542677158 1 0 0 0 0 -1 forward_v I I I I #
coedge $-1 $194 $195 $196 $197 reversed $77 $-1 #
face $-1 $198 $199 $45 $-1 $200 reversed single #
loop $-1 $-1 $201 $79 #
plane-surface $-1 33.278356568396305 -42.236120201775279 0.22877239098001212 0 -0.52991927123019833 0.84804809178421925 1 0 0 forward_v I I I I #
coedge $-1 $202 $203 $204 $205 reversed $80 $-1 #
face $-1 $-1 $206 $46 $-1 $207 forward single #
loop $-1 $208 $209 $82 #
cone-surface $-1 30.569839712438267 -34.012697755403721 1.8677229677513782 0 0.52991927123019833 -0.84804809178421925 0.75 0 0 1 I I -0.70710678118654757 0.70710678118654757 0.75 forward I I I I #
loop $-1 $-1 $210 $60 #
coedge $-1 $132 $132 $211 $212 reversed $83 $-1 #
face $-1 $-1 $213 $47 $-1 $214 forward single #
loop $-1 $215 $216 $85 #
cone-surface $-1 35.986873424354329 -34.012697755403721 1.8677229677513782 0 0.52991927123019833 -0.84804809178421925 0.75 0 0 1 I I -0.70710678118654757 0.70710678118654757 0.75 forward I I I I #
loop $-1 $-1 $217 $61 #
coedge $-1 $137 $137 $218 $219 reversed $86 $-1 #
face $-1 $220 $221 $48 $-1 $222 reversed single #
loop $-1 $-1 $223 $88 #
plane-surface $-1 -47.904383529303438 -23.411139748512603 57.61871391121106 0 0.62932039886446345 0.77714595512881146 1 0 0 forward_v I I I I #
coedge $-1 $224 $225 $226 $227 reversed $89 $-1 #
face $-1 $-1 $228 $49 $-1 $229 forward single #
loop $-1 $230 $231 $91 #
cone-surface $-1 -47.904383529303438 37.602423231005339 3.8896936160904723 0 -0.62932039886446345 -0.77714595512881146 0.5 0 0 1 I I -0.70710678118654746 0.70710678118654746 0.5 forward I I I I #
loop $-1 $-1 $232 $63 #
coedge $-1 $146 $146 $233 $234 reversed $92 $-1 #
face $-1 $235 $236 $50 $-1 $237 reversed single #
loop $-1 $-1 $238 $94 #
plane-surface $-1 -19.706002911901102 -23.411139748512603 57.61871391121106 0 0.62932039886446345 0.77714595512881146 1 0 0 forward_v I I I I #
coedge $-1 $239 $240 $241 $242 reversed $95 $-1 #
face $-1 $-1 $243 $51 $-1 $244 forward single #
loop $-1 $245 $246 $97 #
cone-surface $-1 -19.706002911901102 37.602423231005339 3.8896936160904723 0 -0.62932039886446345 -0.77714595512881146 0.5 0 0 1 I I -0.70710678118654746 0.70710678118654746 0.5 forward I I I I #
loop $-1 $-1 $247 $65 #
coedge $-1 $155 $155 $248 $249 reversed $98 $-1 #
face $-1 $250 $251 $52 $-1 $252 reversed single #
loop $-1 $-1 $253 $100 #
plane-surface $-1 8.4923777055012408 -23.411139748512603 57.61871391121106 0 0.62932039886446345 0.77714595512881146 1 0 0 forward_v I I I I #
coedge $-1 $254 $255 $256 $257 reversed $101 $-1 #
face $-1 $-1 $258 $53 $-1 $259 forward single #
loop $-1 $260 $261 $103 #
cone-surface $-1 8.4923777055012408 37.602423231005339 3.8896936160904723 0 -0.62932039886446345 -0.77714595512881146 0.5 0 0 1 I I -0.70710678118654746 0.70710678118654746 0.5 forward I I I I #
loop $-1 $-1 $262 $67 #
coedge $-1 $164 $164 $263 $264 reversed $104 $-1 #
face $-1 $265 $266 $54 $-1 $267 reversed single #
loop $-1 $-1 $268 $106 #
plane-surface $-1 36.690758322903577 -23.411139748512603 57.61871391121106 0 0.62932039886446345 0.77714595512881146 1 0 0 forward_v I I I I #
coedge $-1 $269 $270 $271 $272 reversed $107 $-1 #
face $-1 $-1 $273 $55 $-1 $274 forward single #
loop $-1 $275 $276 $109 #
cone-surface $-1 36.690758322903577 37.602423231005339 3.8896936160904723 0 -0.62932039886446345 -0.77714595512881146 0.5 0 0 1 I I -0.70710678118654746 0.70710678118654746 0.5 forward I I I I #
loop $-1 $-1 $277 $69 #
coedge $-1 $173 $173 $278 $279 reversed $110 $-1 #
face $-1 $280 $281 $42 $-1 $282 reversed single #
loop $-1 $-1 $283 $112 #
plane-surface $-1 0 -42.236120201775272 0 0 1 0 0 0 1 forward_v I I I I #
coedge $-1 $284 $285 $286 $287 forward $113 $-1 #
coedge $-1 $288 $115 $289 $290 forward $71 $-1 #
coedge $-1 $115 $288 $291 $292 forward $71 $-1 #
coedge $-1 $293 $294 $115 $181 reversed $295 $-1 #
edge $-1 $296 -42.236120201775272 $297 42.236120201775272 $180 $298 forward 7 unknown #
face $-1 $299 $300 $43 $-1 $301 reversed single #
loop $-1 $-1 $302 $116 #
plane-surface $-1 0 42.236120201775272 0 0 -1 0 0 0 -1 forward_v I I I I #
coedge $-1 $188 $303 $304 $305 reversed $117 $-1 #
coedge $-1 $306 $119 $307 $308 reversed $74 $-1 #
coedge $-1 $119 $306 $309 $310 reversed $74 $-1 #
coedge $-1 $311 $185 $119 $189 reversed $117 $-1 #
edge $-1 $312 -42.236120201775272 $313 42.236120201775272 $188 $314 forward 7 unknown #
face $-1 $315 $316 $44 $-1 $317 reversed single #
loop $-1 $-1 $318 $120 #
plane-surface $-1 0 0 8.540417542677158 0 0 1 1 0 0 forward_v I I I I #
coedge $-1 $319 $320 $321 $322 reversed $121 $-1 #
coedge $-1 $323 $123 $324 $325 reversed $77 $-1 #
coedge $-1 $123 $323 $326 $327 reversed $77 $-1 #
coedge $-1 $328 $329 $123 $197 forward $330 $-1 #
edge $-1 $331 -42.236120201775272 $332 42.236120201775272 $196 $333 forward 7 unknown #
face $-1 $334 $335 $45 $-1 $336 forward single #
loop $-1 $-1 $337 $124 #
plane-surface $-1 26.95848390449423 -112.87692884258789 113.27769554273239 1 0 0 0 0.52991927123019833 -0.84804809178421925 forward_v I I I I #
coedge $-1 $338 $339 $340 $341 reversed $125 $-1 #
coedge $-1 $203 $127 $342 $343 reversed $80 $-1 #
coedge $-1 $127 $202 $338 $344 reversed $80 $-1 #
coedge $-1 $340 $345 $127 $205 forward $335 $-1 #
edge $-1 $346 14.202344219518672 $347 27.503756704708998 $204 $348 forward 7 unknown #
loop $-1 $-1 $211 $128 #
plane-surface $-1 33.278356568396305 -42.236120201775279 0.22877239098001212 0 -0.52991927123019833 0.84804809178421925 1 0 0 forward_v I I I I #
loop $-1 $-1 $349 $82 #
coedge $-1 $209 $209 $210 $350 reversed $129 $-1 #
coedge $-1 $210 $210 $209 $350 forward $131 $-1 #
coedge $-1 $211 $211 $132 $212 forward $206 $-1 #
edge $-1 $351 -6.2755048118650619e-016 $351 6.2831853071795996 $211 $352 forward 7 unknown #
loop $-1 $-1 $218 $133 #
plane-surface $-1 33.278356568396305 -42.236120201775279 0.22877239098001212 0 -0.52991927123019833 0.84804809178421925 1 0 0 forward_v I I I I #
loop $-1 $-1 $353 $85 #
coedge $-1 $216 $216 $217 $354 reversed $134 $-1 #
coedge $-1 $217 $217 $216 $354 forward $136 $-1 #
coedge $-1 $218 $218 $137 $219 forward $213 $-1 #
edge $-1 $355 -6.2755048118650619e-016 $355 6.2831853071795996 $218 $356 forward 7 unknown #
face $-1 $357 $358 $48 $-1 $359 reversed single #
loop $-1 $-1 $360 $138 #
plane-surface $-1 -41.849954467239726 60.480321240896764 161.21603841460316 -1 0 0 0 0.62932039886446345 0.77714595512881146 forward_v I I I I #
coedge $-1 $361 $362 $363 $364 reversed $139 $-1 #
coedge $-1 $225 $141 $365 $366 reversed $89 $-1 #
coedge $-1 $141 $224 $361 $367 reversed $89 $-1 #
coedge $-1 $363 $368 $141 $227 forward $369 $-1 #
edge $-1 $370 -11.99595958132689 $371 -6.9553470180301495 $226 $372 forward 7 unknown #
loop $-1 $-1 $233 $142 #
plane-surface $-1 -47.904383529303438 -23.411139748512603 57.61871391121106 0 0.62932039886446345 0.77714595512881146 1 0 0 forward_v I I I I #
loop $-1 $-1 $373 $91 #
coedge $-1 $231 $231 $232 $374 reversed $143 $-1 #
coedge $-1 $232 $232 $231 $374 forward $145 $-1 #
coedge $-1 $233 $233 $146 $234 forward $228 $-1 #
edge $-1 $375 -2.3708628755213656e-015 $375 6.2831853071795978 $233 $376 forward 7 unknown #
face $-1 $377 $378 $50 $-1 $379 forward single #
loop $-1 $-1 $380 $147 #
plane-surface $-1 -13.651573849837394 60.480321240896764 161.21603841460316 -1 0 0 0 0.62932039886446345 0.77714595512881146 forward_v I I I I #
coedge $-1 $381 $382 $383 $384 reversed $148 $-1 #
coedge $-1 $240 $150 $385 $386 reversed $95 $-1 #
coedge $-1 $150 $239 $381 $387 reversed $95 $-1 #
coedge $-1 $383 $388 $150 $242 forward $378 $-1 #
edge $-1 $389 -11.99595958132689 $390 -6.9553470180301495 $241 $391 forward 7 unknown #
loop $-1 $-1 $248 $151 #
plane-surface $-1 -19.706002911901102 -23.411139748512603 57.61871391121106 0 0.62932039886446345 0.77714595512881146 1 0 0 forward_v I I I I #
loop $-1 $-1 $392 $97 #
coedge $-1 $246 $246 $247 $393 reversed $152 $-1 #
coedge $-1 $247 $247 $246 $393 forward $154 $-1 #
coedge $-1 $248 $248 $155 $249 forward $243 $-1 #
edge $-1 $394 -2.3708628755213656e-015 $394 6.2831853071795978 $248 $395 forward 7 unknown #
face $-1 $396 $397 $52 $-1 $398 forward single #
loop $-1 $-1 $399 $156 #
plane-surface $-1 14.546806767564949 60.480321240896764 161.21603841460316 -1 0 0 0 0.62932039886446345 0.77714595512881146 forward_v I I I I #
coedge $-1 $400 $401 $402 $403 reversed $157 $-1 #
coedge $-1 $255 $159 $404 $405 reversed $101 $-1 #
coedge $-1 $159 $254 $400 $406 reversed $101 $-1 #
coedge $-1 $402 $407 $159 $257 forward $397 $-1 #
edge $-1 $408 -11.99595958132689 $409 -6.9553470180301495 $256 $410 forward 7 unknown #
loop $-1 $-1 $263 $160 #
plane-surface $-1 8.4923777055012408 -23.411139748512603 57.61871391121106 0 0.62932039886446345 0.77714595512881146 1 0 0 forward_v I I I I #
loop $-1 $-1 $411 $103 #
coedge $-1 $261 $261 $262 $412 reversed $161 $-1 #
coedge $-1 $262 $262 $261 $412 forward $163 $-1 #
coedge $-1 $263 $263 $164 $264 forward $258 $-1 #
edge $-1 $413 -2.3708628755213656e-015 $413 6.2831853071795978 $263 $414 forward 7 unknown #
face $-1 $415 $416 $54 $-1 $417 forward single #
loop $-1 $-1 $418 $165 #
plane-surface $-1 42.745187384967281 60.480321240896764 161.21603841460316 -1 0 0 0 0.62932039886446345 0.77714595512881146 forward_v I I I I #
coedge $-1 $419 $420 $421 $422 reversed $166 $-1 #
coedge $-1 $270 $168 $423 $424 reversed $107 $-1 #
coedge $-1 $168 $269 $419 $425 reversed $107 $-1 #
coedge $-1 $421 $426 $168 $272 forward $416 $-1 #
edge $-1 $427 -11.99595958132689 $428 -6.9553470180301495 $271 $429 forward 7 unknown #
loop $-1 $-1 $278 $169 #
plane-surface $-1 36.690758322903577 -23.411139748512603 57.61871391121106 0 0.62932039886446345 0.77714595512881146 1 0 0 forward_v I I I I #
loop $-1 $-1 $430 $109 #
coedge $-1 $276 $276 $277 $431 reversed $170 $-1 #
coedge $-1 $277 $277 $276 $431 forward $172 $-1 #
coedge $-1 $278 $278 $173 $279 forward $273 $-1 #
edge $-1 $432 -2.3708628755213656e-015 $432 6.2831853071795978 $278 $433 forward 7 unknown #
face $-1 $434 $435 $42 $-1 $436 reversed single #
loop $-1 $-1 $437 $174 #
plane-surface $-1 -66.652424695577878 0 0 1 0 0 0 0 -1 forward_v I I I I #
coedge $-1 $438 $291 $439 $440 forward $175 $-1 #
coedge $-1 $441 $177 $438 $442 forward $113 $-1 #
coedge $-1 $177 $441 $443 $444 forward $113 $-1 #
coedge $-1 $294 $293 $177 $287 reversed $295 $-1 #
edge $-1 $445 -42.236120201775272 $446 42.236120201775272 $286 $447 forward 7 unknown #
coedge $-1 $179 $178 $448 $449 forward $71 $-1 #
coedge $-1 $450 $451 $178 $290 reversed $435 $-1 #
edge $-1 $297 -66.652424695577878 $452 66.652424695577878 $289 $453 forward 7 unknown #
coedge $-1 $283 $454 $179 $292 reversed $175 $-1 #
edge $-1 $455 -66.652424695577878 $296 66.652424695577878 $291 $456 forward 7 unknown #
coedge $-1 $286 $180 $454 $457 forward $295 $-1 #
coedge $-1 $180 $286 $450 $458 reversed $295 $-1 #
loop $-1 $-1 $293 $434 #
vertex $-1 $181 $459 #
vertex $-1 $181 $460 #
straight-curve $-1 66.652424695577878 0 8.540417542677158 0 1 0 I I #
face $-1 $461 $462 $43 $-1 $463 forward single #
loop $-1 $-1 $464 $182 #
plane-surface $-1 -66.652424695577878 0 0 1 0 0 0 0 -1 forward_v I I I I #
coedge $-1 $309 $465 $311 $466 forward $183 $-1 #
coedge $-1 $185 $311 $467 $468 reversed $117 $-1 #
coedge $-1 $469 $307 $185 $305 forward $470 $-1 #
edge $-1 $313 2.020208771338579 $471 5.020208771338579 $304 $472 forward 7 unknown #
coedge $-1 $187 $186 $464 $473 reversed $74 $-1 #
coedge $-1 $304 $474 $186 $308 forward $470 $-1 #
edge $-1 $475 -35.890128212982241 $313 -25.634464752209034 $307 $476 forward 7 unknown #
coedge $-1 $477 $302 $187 $310 forward $183 $-1 #
edge $-1 $312 25.634464752209034 $478 35.890128212982241 $309 $479 forward 7 unknown #
coedge $-1 $303 $188 $302 $466 reversed $117 $-1 #
vertex $-1 $310 $480 #
vertex $-1 $308 $481 #
straight-curve $-1 -56.396761234804671 0 5.540417542677158 0 -1 0 I I #
face $-1 $482 $483 $44 $-1 $484 reversed single #
loop $-1 $-1 $485 $190 #
plane-surface $-1 0 -42.236120201775272 0 0 1 0 0 0 1 forward_v I I I I #
coedge $-1 $486 $487 $320 $488 forward $191 $-1 #
coedge $-1 $489 $193 $323 $490 reversed $121 $-1 #
coedge $-1 $193 $489 $318 $488 reversed $121 $-1 #
coedge $-1 $491 $326 $193 $322 forward $483 $-1 #
edge $-1 $492 2.020208771338579 $493 5.020208771338579 $321 $494 forward 7 unknown #
coedge $-1 $195 $194 $319 $490 forward $77 $-1 #
coedge $-1 $495 $485 $194 $325 forward $316 $-1 #
edge $-1 $496 25.634464752209027 $331 35.890128212982233 $324 $497 forward 7 unknown #
coedge $-1 $321 $498 $195 $327 forward $483 $-1 #
edge $-1 $332 -35.890128212982233 $492 -25.634464752209027 $326 $499 forward 7 unknown #
coedge $-1 $500 $196 $498 $501 reversed $330 $-1 #
coedge $-1 $196 $500 $495 $502 forward $330 $-1 #
loop $-1 $-1 $196 $482 #
vertex $-1 $325 $503 #
vertex $-1 $197 $504 #
straight-curve $-1 66.652424695577878 0 5.540417542677158 0 1 0 I I #
face $-1 $-1 $505 $45 $-1 $506 reversed single #
loop $-1 $-1 $204 $198 #
plane-surface $-1 0 0 8.540417542677158 0 0 1 1 0 0 forward_v I I I I #
coedge $-1 $507 $508 $509 $510 reversed $199 $-1 #
coedge $-1 $511 $201 $203 $344 forward $125 $-1 #
coedge $-1 $201 $511 $507 $512 forward $125 $-1 #
coedge $-1 $509 $204 $201 $341 forward $335 $-1 #
edge $-1 $347 -22.959050948100227 $513 -10.319305620296078 $340 $514 forward 7 unknown #
coedge $-1 $515 $516 $202 $343 forward $505 $-1 #
edge $-1 $517 -56.410075380386175 $346 -48.09843022868904 $342 $518 forward 7 unknown #
edge $-1 $347 -15.684738417611815 $517 -8.3790584163743152e-015 $203 $519 forward 7 unknown #
coedge $-1 $204 $509 $515 $520 forward $335 $-1 #
vertex $-1 $343 $521 #
vertex $-1 $205 $522 #
straight-curve $-1 39.59822923229838 -56.438464421293943 8.5404175426771616 0 1 0 I I #
coedge $-1 $349 $349 $-1 $523 reversed $208 $-1 #
edge $-1 $524 0 $524 6.2831853071796004 $209 $525 forward 7 unknown #
vertex $-1 $212 $526 #
ellipse-curve $-1 30.569839712438267 -35.585413959180109 4.3845949668285886 0 -0.52991927123019833 0.84804809178421925 1.5 0 0 1 I I #
coedge $-1 $353 $353 $-1 $527 reversed $215 $-1 #
edge $-1 $528 0 $528 6.2831853071796004 $216 $529 forward 7 unknown #
vertex $-1 $219 $530 #
ellipse-curve $-1 35.986873424354329 -35.585413959180109 4.3845949668285886 0 -0.52991927123019833 0.84804809178421925 1.5 0 0 1 I I #
face $-1 $-1 $369 $48 $-1 $531 forward single #
loop $-1 $-1 $532 $220 #
plane-surface $-1 0 42.236120201775272 0 0 -1 0 0 0 -1 forward_v I I I I #
coedge $-1 $533 $534 $535 $536 reversed $221 $-1 #
coedge $-1 $537 $223 $225 $367 forward $139 $-1 #
coedge $-1 $223 $537 $533 $538 forward $139 $-1 #
coedge $-1 $535 $226 $223 $364 forward $369 $-1 #
edge $-1 $371 -30.00662082671543 $539 -17.897762702588007 $363 $540 forward 7 unknown #
coedge $-1 $541 $542 $224 $366 forward $358 $-1 #
edge $-1 $543 -76.149409319827811 $370 -72.067601664624419 $365 $544 forward 7 unknown #
edge $-1 $371 77.986183916952413 $543 84.472240403550558 $225 $545 forward 7 unknown #
coedge $-1 $226 $535 $541 $546 forward $369 $-1 #
loop $-1 $-1 $535 $357 #
vertex $-1 $366 $547 #
vertex $-1 $227 $548 #
straight-curve $-1 -53.958812591367149 30.240160620448382 8.5404175426771616 0 -1 0 I I #
coedge $-1 $373 $373 $-1 $549 reversed $230 $-1 #
edge $-1 $550 0 $550 6.2831853071796004 $231 $551 forward 7 unknown #
vertex $-1 $234 $552 #
ellipse-curve $-1 -47.904383529303438 39.715813920126919 6.4995137150754587 0 0.62932039886446345 0.77714595512881146 1 0 0 1 I I #
face $-1 $-1 $553 $50 $-1 $554 reversed single #
loop $-1 $-1 $241 $235 #
plane-surface $-1 0 0 8.540417542677158 0 0 1 1 0 0 forward_v I I I I #
coedge $-1 $555 $556 $557 $558 reversed $236 $-1 #
coedge $-1 $559 $238 $240 $387 forward $148 $-1 #
coedge $-1 $238 $559 $555 $560 forward $148 $-1 #
coedge $-1 $557 $241 $238 $384 forward $378 $-1 #
edge $-1 $390 -15.907430518014259 $561 -3.7985723938868432 $383 $562 forward 7 unknown #
coedge $-1 $563 $564 $239 $386 forward $553 $-1 #
edge $-1 $565 -76.149409319827811 $389 -72.067601664624419 $385 $566 forward 7 unknown #
edge $-1 $390 77.986183916952413 $565 84.472240403550558 $240 $567 forward 7 unknown #
coedge $-1 $241 $557 $563 $568 forward $378 $-1 #
vertex $-1 $242 $569 #
vertex $-1 $242 $570 #
straight-curve $-1 -25.76043197396481 30.240160620448382 8.5404175426771616 0 -1 0 I I #
coedge $-1 $392 $392 $-1 $571 reversed $245 $-1 #
edge $-1 $572 0 $572 6.2831853071796004 $246 $573 forward 7 unknown #
vertex $-1 $249 $574 #
ellipse-curve $-1 -19.706002911901102 39.715813920126919 6.4995137150754587 0 0.62932039886446345 0.77714595512881146 1 0 0 1 I I #
face $-1 $-1 $575 $52 $-1 $576 reversed single #
loop $-1 $-1 $256 $250 #
plane-surface $-1 0 0 8.540417542677158 0 0 1 1 0 0 forward_v I I I I #
coedge $-1 $577 $578 $579 $580 reversed $251 $-1 #
coedge $-1 $581 $253 $255 $406 forward $157 $-1 #
coedge $-1 $253 $581 $577 $582 forward $157 $-1 #
coedge $-1 $579 $256 $253 $403 forward $397 $-1 #
edge $-1 $409 -1.8082402093130874 $583 10.300617914814328 $402 $584 forward 7 unknown #
coedge $-1 $585 $586 $254 $405 forward $575 $-1 #
edge $-1 $587 -76.149409319827811 $408 -72.067601664624419 $404 $588 forward 7 unknown #
edge $-1 $409 77.986183916952413 $587 84.472240403550558 $255 $589 forward 7 unknown #
coedge $-1 $256 $579 $585 $590 forward $397 $-1 #
vertex $-1 $257 $591 #
vertex $-1 $257 $592 #
straight-curve $-1 2.437948643437533 30.240160620448382 8.5404175426771616 0 -1 0 I I #
coedge $-1 $411 $411 $-1 $593 reversed $260 $-1 #
edge $-1 $594 0 $594 6.2831853071796004 $261 $595 forward 7 unknown #
vertex $-1 $264 $596 #
ellipse-curve $-1 8.4923777055012408 39.715813920126919 6.4995137150754587 0 0.62932039886446345 0.77714595512881146 1 0 0 1 I I #
face $-1 $-1 $597 $54 $-1 $598 reversed single #
loop $-1 $-1 $271 $265 #
plane-surface $-1 0 0 8.540417542677158 0 0 1 1 0 0 forward_v I I I I #
coedge $-1 $599 $600 $601 $602 reversed $266 $-1 #
coedge $-1 $603 $268 $270 $425 forward $166 $-1 #
coedge $-1 $268 $603 $599 $604 forward $166 $-1 #
coedge $-1 $601 $271 $268 $422 forward $416 $-1 #
edge $-1 $428 12.29095009938808 $605 24.399808223515493 $421 $606 forward 7 unknown #
coedge $-1 $607 $608 $269 $424 forward $597 $-1 #
edge $-1 $609 -76.149409319827811 $427 -72.067601664624419 $423 $610 forward 7 unknown #
edge $-1 $428 77.986183916952413 $609 84.472240403550558 $270 $611 forward 7 unknown #
coedge $-1 $271 $601 $607 $612 forward $416 $-1 #
vertex $-1 $272 $613 #
vertex $-1 $272 $614 #
straight-curve $-1 30.636329260839869 30.240160620448382 8.5404175426771616 0 -1 0 I I #
coedge $-1 $430 $430 $-1 $615 reversed $275 $-1 #
edge $-1 $616 0 $616 6.2831853071796004 $276 $617 forward 7 unknown #
vertex $-1 $279 $618 #
ellipse-curve $-1 36.690758322903577 39.715813920126919 6.4995137150754587 0 0.62932039886446345 0.77714595512881146 1 0 0 1 I I #
face $-1 $-1 $295 $42 $-1 $619 reversed single #
loop $-1 $-1 $450 $280 #
plane-surface $-1 0 42.236120201775272 0 0 -1 0 0 0 -1 forward_v I I I I #
coedge $-1 $620 $448 $451 $621 forward $281 $-1 #
coedge $-1 $454 $283 $284 $442 reversed $175 $-1 #
coedge $-1 $448 $620 $283 $440 reversed $281 $-1 #
edge $-1 $455 -8.540417542677158 $622 8.540417542677158 $439 $623 forward 7 unknown #
coedge $-1 $285 $284 $620 $624 forward $113 $-1 #
edge $-1 $446 -66.652424695577878 $622 66.652424695577878 $438 $625 forward 7 unknown #
coedge $-1 $451 $450 $285 $444 reversed $435 $-1 #
edge $-1 $626 -66.652424695577878 $445 66.652424695577878 $443 $627 forward 7 unknown #
vertex $-1 $287 $628 #
vertex $-1 $457 $629 #
straight-curve $-1 66.652424695577878 0 -8.540417542677158 0 -1 0 I I #
coedge $-1 $437 $439 $288 $449 reversed $281 $-1 #
edge $-1 $452 -42.236120201775272 $455 42.236120201775272 $448 $630 forward 7 unknown #
coedge $-1 $443 $289 $294 $458 forward $435 $-1 #
coedge $-1 $289 $443 $437 $621 reversed $435 $-1 #
vertex $-1 $290 $631 #
straight-curve $-1 0 42.236120201775272 8.540417542677158 -1 0 0 I I #
coedge $-1 $291 $438 $293 $457 reversed $175 $-1 #
vertex $-1 $449 $632 #
straight-curve $-1 0 -42.236120201775272 8.540417542677158 1 0 0 I I #
edge $-1 $296 -8.540417542677158 $446 8.540417542677158 $293 $633 forward 7 unknown #
edge $-1 $297 -8.540417542677158 $445 8.540417542677158 $294 $634 forward 7 unknown #
point $-1 66.652424695577878 -42.236120201775272 8.540417542677158 #
point $-1 66.652424695577878 42.236120201775272 8.540417542677158 #
face $-1 $-1 $470 $43 $-1 $635 reversed single #
loop $-1 $-1 $467 $299 #
plane-surface $-1 0 0 8.540417542677158 0 0 1 1 0 0 forward_v I I I I #
coedge $-1 $636 $637 $306 $473 forward $300 $-1 #
coedge $-1 $302 $477 $638 $639 reversed $183 $-1 #
edge $-1 $640 -5.020208771338579 $312 -2.020208771338579 $302 $641 forward 7 unknown #
coedge $-1 $638 $642 $303 $468 forward $462 $-1 #
edge $-1 $471 -42.236120201775272 $640 42.236120201775272 $467 $643 forward 7 unknown #
coedge $-1 $474 $304 $642 $644 reversed $470 $-1 #
loop $-1 $-1 $304 $461 #
vertex $-1 $305 $645 #
straight-curve $-1 -56.396761234804671 -42.236120201775272 3.520208771338579 0 0 1 I I #
edge $-1 $478 -42.236120201775272 $475 42.236120201775272 $464 $646 forward 7 unknown #
coedge $-1 $307 $469 $636 $647 forward $470 $-1 #
vertex $-1 $473 $648 #
straight-curve $-1 -30.762296482595637 -42.236120201775272 5.540417542677158 1 0 0 I I #
coedge $-1 $465 $309 $637 $649 reversed $183 $-1 #
vertex $-1 $473 $650 #
straight-curve $-1 -30.762296482595637 42.236120201775272 5.540417542677158 -1 0 0 I I #
point $-1 -56.396761234804671 42.236120201775272 5.540417542677158 #
point $-1 -56.396761234804671 -42.236120201775272 5.540417542677158 #
face $-1 $-1 $330 $44 $-1 $651 reversed single #
loop $-1 $-1 $321 $315 #
plane-surface $-1 0 42.236120201775272 0 0 -1 0 0 0 -1 forward_v I I I I #
coedge $-1 $324 $652 $489 $653 forward $316 $-1 #
coedge $-1 $654 $318 $652 $655 forward $191 $-1 #
coedge $-1 $318 $654 $491 $656 forward $191 $-1 #
edge $-1 $493 -42.236120201775272 $657 42.236120201775272 $318 $658 forward 7 unknown #
coedge $-1 $320 $319 $485 $653 reversed $121 $-1 #
edge $-1 $496 -42.236120201775272 $492 42.236120201775272 $319 $659 forward 7 unknown #
coedge $-1 $498 $321 $487 $656 reversed $483 $-1 #
vertex $-1 $327 $660 #
vertex $-1 $322 $661 #
straight-curve $-1 56.396761234804657 42.236120201775272 3.520208771338579 0 0 1 I I #
coedge $-1 $652 $324 $329 $502 reversed $316 $-1 #
vertex $-1 $325 $662 #
straight-curve $-1 30.76229648259563 -42.236120201775272 5.540417542677158 1 0 0 I I #
coedge $-1 $326 $491 $328 $501 forward $483 $-1 #
straight-curve $-1 30.76229648259563 42.236120201775272 5.540417542677158 -1 0 0 I I #
coedge $-1 $329 $328 $654 $663 reversed $330 $-1 #
edge $-1 $664 -8.540417542677158 $332 -5.540417542677158 $328 $665 forward 7 unknown #
edge $-1 $666 -8.540417542677158 $331 -5.540417542677158 $329 $667 forward 7 unknown #
point $-1 66.652424695577864 -42.236120201775272 5.540417542677158 #
point $-1 66.652424695577864 42.236120201775272 5.540417542677158 #
loop $-1 $-1 $342 $334 #
plane-surface $-1 0 -42.236120201775272 0 0 1 0 0 0 1 forward_v I I I I #
coedge $-1 $508 $337 $339 $512 reversed $199 $-1 #
coedge $-1 $337 $507 $668 $669 reversed $199 $-1 #
coedge $-1 $345 $340 $337 $510 forward $335 $-1 #
edge $-1 $513 -27.503756704708998 $670 -14.202344219518672 $509 $671 forward 7 unknown #
coedge $-1 $339 $338 $516 $672 reversed $125 $-1 #
edge $-1 $673 8.3790584163743152e-015 $513 15.684738417611815 $507 $674 forward 7 unknown #
vertex $-1 $341 $675 #
straight-curve $-1 16.639178284198152 -28.934707716584949 8.540417542677158 -1 0 0 I I #
coedge $-1 $668 $342 $345 $520 reversed $505 $-1 #
coedge $-1 $342 $668 $511 $672 forward $505 $-1 #
vertex $-1 $343 $676 #
straight-curve $-1 39.59822923229838 -42.236120201775272 56.638847771366194 0 0 1 I I #
straight-curve $-1 39.59822923229838 -42.236120201775279 0.22877239098001212 0 -0.84804809178421925 -0.52991927123019833 I I #
edge $-1 $670 26.95848390449423 $346 39.59822923229838 $515 $677 forward 7 unknown #
point $-1 39.59822923229838 -42.236120201775272 8.540417542677158 #
point $-1 39.59822923229838 -28.934707716584946 8.540417542677158 #
edge $-1 $678 1 $678 0 $349 $-1 forward 7 unknown #
vertex $-1 $350 $679 #
ellipse-curve $-1 30.569839712438267 -34.41013720882637 2.5037590365895426 0 -0.52991927123019833 0.84804809178421925 1.5 0 0 1 I I #
point $-1 32.069839712438267 -35.585413959180109 4.3845949668285868 #
edge $-1 $680 1 $680 0 $353 $-1 forward 7 unknown #
vertex $-1 $354 $681 #
ellipse-curve $-1 35.986873424354329 -34.41013720882637 2.5037590365895426 0 -0.52991927123019833 0.84804809178421925 1.5 0 0 1 I I #
point $-1 37.486873424354329 -35.585413959180109 4.3845949668285868 #
plane-surface $-1 0 0 8.540417542677158 0 0 1 1 0 0 forward_v I I I I #
coedge $-1 $542 $541 $534 $682 forward $358 $-1 #
coedge $-1 $534 $360 $362 $538 reversed $221 $-1 #
coedge $-1 $360 $533 $532 $682 reversed $221 $-1 #
coedge $-1 $368 $363 $360 $536 forward $369 $-1 #
edge $-1 $539 6.9553470180301495 $683 11.99595958132689 $535 $684 forward 7 unknown #
coedge $-1 $362 $361 $542 $685 reversed $139 $-1 #
edge $-1 $686 -84.472240403550558 $539 -77.986183916952413 $533 $687 forward 7 unknown #
vertex $-1 $364 $688 #
straight-curve $-1 -23.952191764651719 37.195507638478539 8.5404175426771545 1 0 0 I I #
coedge $-1 $532 $365 $368 $546 reversed $358 $-1 #
coedge $-1 $365 $532 $537 $685 forward $358 $-1 #
vertex $-1 $366 $689 #
straight-curve $-1 -53.958812591367149 42.236120201775272 80.608019207301581 0 0 1 I I #
straight-curve $-1 -53.958812591367149 -23.411139748512603 57.61871391121106 0 0.77714595512881146 -0.62932039886446345 I I #
edge $-1 $683 41.849954467239726 $370 53.958812591367149 $541 $690 forward 7 unknown #
point $-1 -53.958812591367149 42.236120201775272 8.540417542677158 #
point $-1 -53.958812591367149 37.195507638478531 8.5404175426771616 #
edge $-1 $691 1 $691 0 $373 $-1 forward 7 unknown #
vertex $-1 $374 $692 #
ellipse-curve $-1 -47.904383529303438 37.917083430437572 4.2782665936548776 0 0.62932039886446345 0.77714595512881146 1 0 0 1 I I #
point $-1 -46.904383529303438 39.715813920126934 6.49951371507548 #
loop $-1 $-1 $385 $377 #
plane-surface $-1 0 42.236120201775272 0 0 -1 0 0 0 -1 forward_v I I I I #
coedge $-1 $556 $380 $382 $560 reversed $236 $-1 #
coedge $-1 $380 $555 $693 $694 reversed $236 $-1 #
coedge $-1 $388 $383 $380 $558 forward $378 $-1 #
edge $-1 $561 6.9553470180301495 $695 11.99595958132689 $557 $696 forward 7 unknown #
coedge $-1 $382 $381 $564 $697 reversed $148 $-1 #
edge $-1 $698 -84.472240403550558 $561 -77.986183916952413 $555 $699 forward 7 unknown #
vertex $-1 $384 $700 #
straight-curve $-1 -9.853001455950551 37.195507638478539 8.5404175426771545 1 0 0 I I #
coedge $-1 $693 $385 $388 $568 reversed $553 $-1 #
coedge $-1 $385 $693 $559 $697 forward $553 $-1 #
vertex $-1 $386 $701 #
straight-curve $-1 -25.76043197396481 42.236120201775272 80.608019207301581 0 0 1 I I #
straight-curve $-1 -25.76043197396481 -23.411139748512603 57.61871391121106 0 0.77714595512881146 -0.62932039886446345 I I #
edge $-1 $695 13.651573849837394 $389 25.76043197396481 $563 $702 forward 7 unknown #
point $-1 -25.76043197396481 42.236120201775272 8.540417542677158 #
point $-1 -25.76043197396481 37.195507638478531 8.5404175426771616 #
edge $-1 $703 1 $703 0 $392 $-1 forward 7 unknown #
vertex $-1 $393 $704 #
ellipse-curve $-1 -19.706002911901102 37.917083430437572 4.2782665936548776 0 0.62932039886446345 0.77714595512881146 1 0 0 1 I I #
point $-1 -18.706002911901102 39.715813920126934 6.49951371507548 #
loop $-1 $-1 $404 $396 #
plane-surface $-1 0 42.236120201775272 0 0 -1 0 0 0 -1 forward_v I I I I #
coedge $-1 $578 $399 $401 $582 reversed $251 $-1 #
coedge $-1 $399 $577 $705 $706 reversed $251 $-1 #
coedge $-1 $407 $402 $399 $580 forward $397 $-1 #
edge $-1 $583 6.9553470180301495 $707 11.99595958132689 $579 $708 forward 7 unknown #
coedge $-1 $401 $400 $586 $709 reversed $157 $-1 #
edge $-1 $710 -84.472240403550558 $583 -77.986183916952413 $577 $711 forward 7 unknown #
vertex $-1 $403 $712 #
straight-curve $-1 4.2461888527506204 37.195507638478539 8.5404175426771545 1 0 0 I I #
coedge $-1 $705 $404 $407 $590 reversed $575 $-1 #
coedge $-1 $404 $705 $581 $709 forward $575 $-1 #
vertex $-1 $405 $713 #
straight-curve $-1 2.437948643437533 42.236120201775272 80.608019207301581 0 0 1 I I #
straight-curve $-1 2.437948643437533 -23.411139748512603 57.61871391121106 0 0.77714595512881146 -0.62932039886446345 I I #
edge $-1 $707 -14.546806767564949 $408 -2.437948643437533 $585 $714 forward 7 unknown #
point $-1 2.437948643437533 42.236120201775272 8.540417542677158 #
point $-1 2.437948643437533 37.195507638478531 8.5404175426771616 #
edge $-1 $715 1 $715 0 $411 $-1 forward 7 unknown #
vertex $-1 $412 $716 #
ellipse-curve $-1 8.4923777055012408 37.917083430437572 4.2782665936548776 0 0.62932039886446345 0.77714595512881146 1 0 0 1 I I #
point $-1 9.4923777055012408 39.715813920126934 6.49951371507548 #
loop $-1 $-1 $423 $415 #
plane-surface $-1 0 42.236120201775272 0 0 -1 0 0 0 -1 forward_v I I I I #
coedge $-1 $600 $418 $420 $604 reversed $266 $-1 #
coedge $-1 $418 $599 $717 $718 reversed $266 $-1 #
coedge $-1 $426 $421 $418 $602 forward $416 $-1 #
edge $-1 $605 6.9553470180301495 $719 11.99595958132689 $601 $720 forward 7 unknown #
coedge $-1 $420 $419 $608 $721 reversed $166 $-1 #
edge $-1 $722 -84.472240403550558 $605 -77.986183916952413 $599 $723 forward 7 unknown #
vertex $-1 $422 $724 #
straight-curve $-1 18.345379161451788 37.195507638478539 8.5404175426771545 1 0 0 I I #
coedge $-1 $717 $423 $426 $612 reversed $597 $-1 #
coedge $-1 $423 $717 $603 $721 forward $597 $-1 #
vertex $-1 $424 $725 #
straight-curve $-1 30.636329260839869 42.236120201775272 80.608019207301581 0 0 1 I I #
straight-curve $-1 30.636329260839869 -23.411139748512603 57.61871391121106 0 0.77714595512881146 -0.62932039886446345 I I #
edge $-1 $719 -42.745187384967281 $427 -30.636329260839869 $607 $726 forward 7 unknown #
point $-1 30.636329260839869 42.236120201775272 8.540417542677158 #
point $-1 30.636329260839869 37.195507638478531 8.5404175426771616 #
edge $-1 $727 1 $727 0 $430 $-1 forward 7 unknown #
vertex $-1 $431 $728 #
ellipse-curve $-1 36.690758322903577 37.917083430437572 4.2782665936548776 0 0.62932039886446345 0.77714595512881146 1 0 0 1 I I #
point $-1 37.690758322903577 39.715813920126934 6.49951371507548 #
plane-surface $-1 66.652424695577878 0 0 -1 0 0 0 0 1 forward_v I I I I #
coedge $-1 $439 $437 $441 $624 reversed $281 $-1 #
edge $-1 $452 -8.540417542677158 $626 8.540417542677158 $451 $729 forward 7 unknown #
vertex $-1 $624 $730 #
straight-curve $-1 -66.652424695577878 -42.236120201775272 0 0 0 -1 I I #
edge $-1 $622 -42.236120201775272 $626 42.236120201775272 $620 $731 forward 7 unknown #
straight-curve $-1 0 -42.236120201775272 -8.540417542677158 -1 0 0 I I #
vertex $-1 $444 $732 #
straight-curve $-1 0 42.236120201775272 -8.540417542677158 1 0 0 I I #
point $-1 66.652424695577878 42.236120201775272 -8.540417542677158 #
point $-1 66.652424695577878 -42.236120201775272 -8.540417542677158 #
straight-curve $-1 -66.652424695577878 0 8.540417542677158 0 -1 0 I I #
point $-1 -66.652424695577878 42.236120201775272 8.540417542677158 #
point $-1 -66.652424695577878 -42.236120201775272 8.540417542677158 #
straight-curve $-1 66.652424695577878 -42.236120201775272 0 0 0 -1 I I #
straight-curve $-1 66.652424695577878 42.236120201775272 0 0 0 -1 I I #
plane-surface $-1 0 -42.236120201775272 0 0 1 0 0 0 1 forward_v I I I I #
coedge $-1 $733 $464 $474 $647 reversed $300 $-1 #
coedge $-1 $464 $733 $477 $649 forward $300 $-1 #
coedge $-1 $734 $467 $465 $639 forward $462 $-1 #
edge $-1 $640 56.396761234804671 $735 66.652424695577878 $465 $736 forward 7 unknown #
vertex $-1 $639 $737 #
straight-curve $-1 -56.396761234804671 42.236120201775272 3.520208771338579 0 0 -1 I I #
coedge $-1 $467 $734 $469 $644 forward $462 $-1 #
straight-curve $-1 -56.396761234804671 0 8.540417542677158 0 1 0 I I #
edge $-1 $738 -66.652424695577878 $471 -56.396761234804671 $469 $739 forward 7 unknown #
point $-1 -56.396761234804671 -42.236120201775272 8.540417542677158 #
straight-curve $-1 -66.652424695577878 0 5.540417542677158 0 -1 0 I I #
edge $-1 $738 -8.540417542677158 $475 -5.540417542677158 $636 $740 forward 7 unknown #
point $-1 -66.652424695577878 -42.236120201775272 5.540417542677158 #
edge $-1 $735 -8.540417542677158 $478 -5.540417542677158 $477 $741 forward 7 unknown #
point $-1 -66.652424695577878 42.236120201775272 5.540417542677158 #
plane-surface $-1 66.652424695577878 0 0 -1 0 0 0 0 1 forward_v I I I I #
coedge $-1 $485 $495 $486 $655 reversed $316 $-1 #
edge $-1 $657 -5.020208771338579 $496 -2.020208771338579 $485 $742 forward 7 unknown #
coedge $-1 $487 $486 $500 $663 forward $191 $-1 #
edge $-1 $657 56.396761234804657 $666 66.652424695577878 $652 $743 forward 7 unknown #
edge $-1 $664 -66.652424695577878 $493 -56.396761234804657 $491 $744 forward 7 unknown #
vertex $-1 $655 $745 #
straight-curve $-1 56.396761234804657 0 8.540417542677158 0 -1 0 I I #
straight-curve $-1 56.396761234804657 0 5.540417542677158 0 1 0 I I #
point $-1 56.396761234804657 42.236120201775272 5.540417542677158 #
point $-1 56.396761234804657 42.236120201775272 8.540417542677158 #
point $-1 56.396761234804657 -42.236120201775272 5.540417542677158 #
edge $-1 $666 -42.236120201775272 $664 42.236120201775272 $500 $746 forward 7 unknown #
vertex $-1 $663 $747 #
straight-curve $-1 66.652424695577878 42.236120201775272 0 0 0 -1 I I #
vertex $-1 $663 $748 #
straight-curve $-1 66.652424695577878 -42.236120201775272 0 0 0 -1 I I #
coedge $-1 $516 $515 $508 $669 forward $505 $-1 #
edge $-1 $670 48.09843022868904 $673 56.410075380386175 $668 $749 forward 7 unknown #
vertex $-1 $520 $750 #
straight-curve $-1 26.95848390449423 -56.438464421293943 8.5404175426771616 0 -1 0 I I #
edge $-1 $673 10.319305620296078 $517 22.959050948100227 $516 $751 forward 7 unknown #
vertex $-1 $672 $752 #
straight-curve $-1 26.95848390449423 -42.236120201775279 0.22877239098001212 0 0.84804809178421925 0.52991927123019833 I I #
point $-1 26.95848390449423 -28.934707716584946 8.540417542677158 #
point $-1 39.59822923229838 -42.236120201775272 0.22877239098001656 #
straight-curve $-1 0 -42.236120201775272 8.540417542677158 1 0 0 I I #
vertex $-1 $523 $753 #
point $-1 32.069839712438267 -34.41013720882637 2.5037590365895426 #
vertex $-1 $527 $754 #
point $-1 37.486873424354329 -34.41013720882637 2.5037590365895426 #
edge $-1 $683 72.067601664624419 $686 76.149409319827811 $532 $755 forward 7 unknown #
vertex $-1 $546 $756 #
straight-curve $-1 -41.849954467239726 30.240160620448382 8.5404175426771616 0 1 0 I I #
edge $-1 $686 17.897762702588007 $543 30.00662082671543 $542 $757 forward 7 unknown #
vertex $-1 $685 $758 #
straight-curve $-1 -41.849954467239726 -23.411139748512603 57.61871391121106 0 -0.77714595512881146 0.62932039886446345 I I #
point $-1 -41.849954467239726 37.195507638478531 8.5404175426771616 #
point $-1 -53.958812591367149 42.236120201775272 4.4586098874737772 #
straight-curve $-1 0 42.236120201775272 8.540417542677158 -1 0 0 I I #
vertex $-1 $549 $759 #
point $-1 -46.904383529303438 37.917083430437572 4.2782665936548776 #
coedge $-1 $564 $563 $556 $694 forward $553 $-1 #
edge $-1 $695 72.067601664624419 $698 76.149409319827811 $693 $760 forward 7 unknown #
vertex $-1 $568 $761 #
straight-curve $-1 -13.651573849837394 30.240160620448382 8.5404175426771616 0 1 0 I I #
edge $-1 $698 3.7985723938868432 $565 15.907430518014259 $564 $762 forward 7 unknown #
vertex $-1 $697 $763 #
straight-curve $-1 -13.651573849837394 -23.411139748512603 57.61871391121106 0 -0.77714595512881146 0.62932039886446345 I I #
point $-1 -13.651573849837394 37.195507638478531 8.5404175426771616 #
point $-1 -25.76043197396481 42.236120201775272 4.4586098874737772 #
straight-curve $-1 0 42.236120201775272 8.540417542677158 -1 0 0 I I #
vertex $-1 $571 $764 #
point $-1 -18.706002911901102 37.917083430437572 4.2782665936548776 #
coedge $-1 $586 $585 $578 $706 forward $575 $-1 #
edge $-1 $707 72.067601664624419 $710 76.149409319827811 $705 $765 forward 7 unknown #
vertex $-1 $590 $766 #
straight-curve $-1 14.546806767564949 30.240160620448382 8.5404175426771616 0 1 0 I I #
edge $-1 $710 -10.300617914814328 $587 1.8082402093130874 $586 $767 forward 7 unknown #
vertex $-1 $709 $768 #
straight-curve $-1 14.546806767564949 -23.411139748512603 57.61871391121106 0 -0.77714595512881146 0.62932039886446345 I I #
point $-1 14.546806767564949 37.195507638478531 8.5404175426771616 #
point $-1 2.437948643437533 42.236120201775272 4.4586098874737772 #
straight-curve $-1 0 42.236120201775272 8.540417542677158 -1 0 0 I I #
vertex $-1 $593 $769 #
point $-1 9.4923777055012408 37.917083430437572 4.2782665936548776 #
coedge $-1 $608 $607 $600 $718 forward $597 $-1 #
edge $-1 $719 72.067601664624419 $722 76.149409319827811 $717 $770 forward 7 unknown #
vertex $-1 $612 $771 #
straight-curve $-1 42.745187384967281 30.240160620448382 8.5404175426771616 0 1 0 I I #
edge $-1 $722 -24.399808223515493 $609 -12.29095009938808 $608 $772 forward 7 unknown #
vertex $-1 $721 $773 #
straight-curve $-1 42.745187384967281 -23.411139748512603 57.61871391121106 0 -0.77714595512881146 0.62932039886446345 I I #
point $-1 42.745187384967281 37.195507638478531 8.5404175426771616 #
point $-1 30.636329260839869 42.236120201775272 4.4586098874737772 #
straight-curve $-1 0 42.236120201775272 8.540417542677158 -1 0 0 I I #
vertex $-1 $615 $774 #
point $-1 37.690758322903577 37.917083430437572 4.2782665936548776 #
straight-curve $-1 -66.652424695577878 42.236120201775272 0 0 0 -1 I I #
point $-1 -66.652424695577878 -42.236120201775272 -8.540417542677158 #
straight-curve $-1 -66.652424695577878 0 -8.540417542677158 0 1 0 I I #
point $-1 -66.652424695577878 42.236120201775272 -8.540417542677158 #
coedge $-1 $637 $636 $734 $775 reversed $300 $-1 #
coedge $-1 $642 $638 $733 $775 forward $462 $-1 #
vertex $-1 $639 $776 #
straight-curve $-1 0 42.236120201775272 8.540417542677158 -1 0 0 I I #
point $-1 -56.396761234804671 42.236120201775272 8.540417542677158 #
vertex $-1 $775 $777 #
straight-curve $-1 0 -42.236120201775272 8.540417542677158 1 0 0 I I #
straight-curve $-1 -66.652424695577878 -42.236120201775272 0 0 0 -1 I I #
straight-curve $-1 -66.652424695577878 42.236120201775272 0 0 0 -1 I I #
straight-curve $-1 56.396761234804657 -42.236120201775272 3.520208771338579 0 0 -1 I I #
straight-curve $-1 0 -42.236120201775272 8.540417542677158 1 0 0 I I #
straight-curve $-1 0 42.236120201775272 8.540417542677158 -1 0 0 I I #
point $-1 56.396761234804657 -42.236120201775272 8.540417542677158 #
straight-curve $-1 66.652424695577878 0 8.540417542677158 0 1 0 I I #
point $-1 66.652424695577878 42.236120201775272 8.540417542677158 #
point $-1 66.652424695577878 -42.236120201775272 8.540417542677158 #
straight-curve $-1 26.95848390449423 -42.236120201775272 56.638847771366194 0 0 -1 I I #
point $-1 26.95848390449423 -42.236120201775272 8.540417542677158 #
straight-curve $-1 16.639178284198152 -42.236120201775272 0.22877239098001823 1 0 0 I I #
point $-1 26.95848390449423 -42.236120201775272 0.22877239098001656 #
point $-1 30.569839712438267 -33.615258301981072 1.2316868989132139 #
point $-1 35.986873424354329 -33.615258301981072 1.2316868989132139 #
straight-curve $-1 -41.849954467239726 42.236120201775272 80.608019207301581 0 0 -1 I I #
point $-1 -41.849954467239726 42.236120201775272 8.540417542677158 #
straight-curve $-1 -23.952191764651719 42.236120201775272 4.4586098874737878 -1 0 0 I I #
point $-1 -41.849954467239726 42.236120201775272 4.4586098874737772 #
point $-1 -47.904383529303438 37.287763031573107 3.5011206385260665 #
straight-curve $-1 -13.651573849837394 42.236120201775272 80.608019207301581 0 0 -1 I I #
point $-1 -13.651573849837394 42.236120201775272 8.540417542677158 #
straight-curve $-1 -9.853001455950551 42.236120201775272 4.4586098874737878 -1 0 0 I I #
point $-1 -13.651573849837394 42.236120201775272 4.4586098874737772 #
point $-1 -19.706002911901102 37.287763031573107 3.5011206385260665 #
straight-curve $-1 14.546806767564949 42.236120201775272 80.608019207301581 0 0 -1 I I #
point $-1 14.546806767564949 42.236120201775272 8.540417542677158 #
straight-curve $-1 4.2461888527506204 42.236120201775272 4.4586098874737878 -1 0 0 I I #
point $-1 14.546806767564949 42.236120201775272 4.4586098874737772 #
point $-1 8.4923777055012408 37.287763031573107 3.5011206385260665 #
straight-curve $-1 42.745187384967281 42.236120201775272 80.608019207301581 0 0 -1 I I #
point $-1 42.745187384967281 42.236120201775272 8.540417542677158 #
straight-curve $-1 18.345379161451788 42.236120201775272 4.4586098874737878 -1 0 0 I I #
point $-1 42.745187384967281 42.236120201775272 4.4586098874737772 #
point $-1 36.690758322903577 37.287763031573107 3.5011206385260665 #
edge $-1 $735 -42.236120201775272 $738 42.236120201775272 $733 $778 forward 7 unknown #
point $-1 -66.652424695577878 42.236120201775272 8.540417542677158 #
point $-1 -66.652424695577878 -42.236120201775272 8.540417542677158 #
straight-curve $-1 -66.652424695577878 0 8.540417542677158 0 -1 0 I I #
End-of-ACIS-data 