500 0 4 0           
7 Unknown 11 ACIS 5.0 NT 24 Thu Mar 25 22:06:05 1999 
-1 9.9999999999999995e-007 1e-010 
body $-1 $4 $-1 $5 #
body $-1 $6 $-1 $7 #
body $-1 $8 $-1 $9 #
body $-1 $10 $-1 $11 #
lump $-1 $-1 $12 $0 #
transform $-1 1 0 0 0 1 0 0 0 1 46.805627613147372 27.095326010314825 11.331381600913941 1 rotate no_reflect no_shear #
lump $-1 $-1 $13 $1 #
transform $-1 1 0 0 0 1 0 0 0 1 46.805627613147372 27.095326010314825 11.331381600913941 1 rotate no_reflect no_shear #
lump $-1 $-1 $14 $2 #
transform $-1 1 0 0 0 1 0 0 0 1 46.805627613147372 27.095326010314825 11.331381600913941 1 rotate no_reflect no_shear #
lump $-1 $-1 $15 $3 #
transform $-1 1 0 0 0 1 0 0 0 1 46.805627613147372 27.095326010314825 11.331381600913941 1 rotate no_reflect no_shear #
shell $-1 $-1 $-1 $16 $-1 $4 #
shell $-1 $-1 $-1 $17 $-1 $6 #
shell $-1 $-1 $-1 $18 $-1 $8 #
shell $-1 $-1 $-1 $19 $-1 $10 #
face $-1 $20 $21 $12 $-1 $22 forward single #
face $-1 $23 $24 $13 $-1 $25 forward single #
face $-1 $26 $27 $14 $-1 $28 forward single #
face $-1 $29 $30 $15 $-1 $31 reversed single #
face $-1 $32 $33 $12 $-1 $34 reversed single #
loop $-1 $-1 $35 $16 #
plane-surface $-1 0 0 11.331381600913941 0 0 1 1 0 0 forward_v I I I I #
face $-1 $36 $37 $13 $-1 $38 forward single #
loop $-1 $-1 $39 $17 #
plane-surface $-1 -27.14286441131949 -19.981796775574018 0 1 0 0 0 0 -1 forward_v I I I I #
face $-1 $40 $41 $14 $-1 $42 forward single #
loop $-1 $-1 $43 $18 #
plane-surface $-1 -128.67987695790998 9.8820059991524793 50.22553466568823 0 1 0 -0.87461971476443456 0 0.48480960649040278 forward_v I I I I #
face $-1 $44 $45 $15 $-1 $46 reversed single #
loop $-1 $47 $48 $19 #
cone-surface $-1 -43.519401239640452 15.079908270821125 7.2620296447872654 0.87461971476443456 0 -0.48480960649040278 0.72721440973560414 0 1.311929572146652 1 I I 0 1 1.5 forward I I I I #
face $-1 $49 $50 $12 $-1 $51 reversed single #
loop $-1 $-1 $52 $20 #
plane-surface $-1 0 0 -11.331381600913941 0 0 1 1 0 0 forward_v I I I I #
coedge $-1 $53 $54 $55 $56 forward $21 $-1 #
face $-1 $57 $58 $13 $-1 $59 forward single #
loop $-1 $-1 $60 $23 #
plane-surface $-1 -25.64286441131949 -12.868267540833212 0 0 -1 0 0 0 -1 forward_v I I I I #
coedge $-1 $61 $62 $63 $64 reversed $24 $-1 #
face $-1 $65 $66 $14 $-1 $67 forward single #
loop $-1 $-1 $68 $26 #
plane-surface $-1 -46.805627613147394 15.079908270821125 4.8418988563556127 -0.87461971476443456 0 0.48480960649040278 0.48480960649040278 0 0.87461971476443456 forward_v I I I I #
coedge $-1 $69 $70 $71 $72 reversed $27 $-1 #
face $-1 $73 $74 $15 $-1 $75 forward single #
loop $-1 $76 $77 $29 #
cone-surface $-1 -41.375799525624537 15.079908270821125 6.0738118560719574 0.87461971476443456 0 -0.48480960649040278 0.36360720486780207 0 0.65596478607332598 1 I I -0.70710678118654757 0.70710678118654757 0.75 forward I I I I #
loop $-1 $-1 $78 $19 #
coedge $-1 $48 $48 $79 $80 reversed $30 $-1 #
face $-1 $81 $82 $12 $-1 $83 reversed single #
loop $-1 $-1 $84 $32 #
plane-surface $-1 0 -27.095326010314825 0 0 1 0 0 0 1 forward_v I I I I #
coedge $-1 $85 $86 $87 $88 forward $33 $-1 #
coedge $-1 $89 $35 $90 $91 forward $21 $-1 #
coedge $-1 $35 $89 $92 $93 forward $21 $-1 #
coedge $-1 $94 $95 $35 $56 reversed $96 $-1 #
edge $-1 $97 -27.095326010314825 $98 27.095326010314825 $55 $99 forward 7 unknown #
face $-1 $100 $101 $13 $-1 $102 forward single #
loop $-1 $-1 $103 $36 #
plane-surface $-1 -24.14286441131949 -19.981796775574018 0 -1 0 0 0 0 1 forward_v I I I I #
coedge $-1 $104 $105 $106 $107 reversed $37 $-1 #
coedge $-1 $108 $39 $109 $110 reversed $24 $-1 #
coedge $-1 $39 $108 $111 $112 reversed $24 $-1 #
coedge $-1 $105 $104 $39 $64 forward $37 $-1 #
edge $-1 $113 -11.331381600913941 $114 11.331381600913941 $63 $115 forward 7 unknown #
face $-1 $116 $117 $14 $-1 $118 forward single #
loop $-1 $-1 $119 $40 #
plane-surface $-1 -128.67987695790998 20.277810542489771 50.22553466568823 0 -1 0 0.87461971476443456 0 -0.48480960649040278 forward_v I I I I #
coedge $-1 $120 $121 $122 $123 reversed $41 $-1 #
coedge $-1 $70 $43 $121 $124 forward $27 $-1 #
coedge $-1 $43 $69 $125 $126 reversed $27 $-1 #
coedge $-1 $127 $122 $43 $72 forward $117 $-1 #
edge $-1 $128 -21.131489756936247 $129 -17.534310865807619 $71 $130 forward 7 unknown #
face $-1 $131 $132 $15 $-1 $133 forward single #
loop $-1 $-1 $134 $44 #
plane-surface $-1 -128.67987695790998 9.8820059991524793 50.22553466568823 0 1 0 -0.87461971476443456 0 0.48480960649040278 forward_v I I I I #
loop $-1 $-1 $135 $29 #
coedge $-1 $77 $77 $78 $136 forward $45 $-1 #
coedge $-1 $78 $78 $77 $136 reversed $47 $-1 #
coedge $-1 $79 $79 $48 $80 forward $132 $-1 #
edge $-1 $137 0 $137 6.2831853071796004 $79 $138 forward 7 unknown #
face $-1 $139 $140 $12 $-1 $141 reversed single #
loop $-1 $-1 $142 $49 #
plane-surface $-1 -46.805627613147372 0 0 1 0 0 0 0 -1 forward_v I I I I #
coedge $-1 $143 $92 $144 $145 forward $50 $-1 #
coedge $-1 $146 $52 $143 $147 forward $33 $-1 #
coedge $-1 $52 $146 $148 $149 forward $33 $-1 #
coedge $-1 $95 $94 $52 $88 reversed $96 $-1 #
edge $-1 $150 -27.095326010314825 $151 27.095326010314825 $87 $152 forward 7 unknown #
coedge $-1 $54 $53 $153 $154 forward $21 $-1 #
coedge $-1 $155 $156 $53 $91 reversed $140 $-1 #
edge $-1 $98 -46.805627613147372 $157 46.805627613147372 $90 $158 forward 7 unknown #
coedge $-1 $84 $159 $54 $93 reversed $50 $-1 #
edge $-1 $160 -46.805627613147372 $97 46.805627613147372 $92 $161 forward 7 unknown #
coedge $-1 $87 $55 $159 $162 forward $96 $-1 #
coedge $-1 $55 $87 $155 $163 reversed $96 $-1 #
loop $-1 $-1 $94 $139 #
vertex $-1 $56 $164 #
vertex $-1 $56 $165 #
straight-curve $-1 46.805627613147372 0 11.331381600913941 0 1 0 I I #
face $-1 $166 $167 $13 $-1 $168 reversed single #
loop $-1 $-1 $109 $57 #
plane-surface $-1 0 0 11.331381600913941 0 0 1 1 0 0 forward_v I I I I #
coedge $-1 $169 $170 $171 $172 reversed $58 $-1 #
coedge $-1 $63 $60 $173 $174 reversed $37 $-1 #
coedge $-1 $60 $63 $175 $176 reversed $37 $-1 #
coedge $-1 $170 $169 $60 $107 forward $58 $-1 #
edge $-1 $177 -11.331381600913941 $178 11.331381600913941 $106 $179 forward 7 unknown #
coedge $-1 $62 $61 $180 $181 reversed $24 $-1 #
coedge $-1 $173 $182 $61 $110 forward $101 $-1 #
edge $-1 $183 -17.104427622527815 $113 -2.8773691530462031 $109 $184 forward 7 unknown #
coedge $-1 $185 $175 $62 $112 forward $186 $-1 #
edge $-1 $114 2.8773691530462031 $187 17.104427622527815 $111 $188 forward 7 unknown #
vertex $-1 $110 $189 #
vertex $-1 $112 $190 #
straight-curve $-1 -27.14286441131949 -12.868267540833212 0 0 0 -1 I I #
face $-1 $191 $192 $14 $-1 $193 forward single #
loop $-1 $-1 $194 $65 #
plane-surface $-1 0 0 11.331381600913941 0 0 1 1 0 0 forward_v I I I I #
coedge $-1 $195 $196 $194 $197 reversed $66 $-1 #
coedge $-1 $198 $68 $196 $199 reversed $41 $-1 #
coedge $-1 $68 $198 $69 $124 reversed $41 $-1 #
coedge $-1 $71 $194 $68 $123 forward $117 $-1 #
edge $-1 $200 -12.737856407079208 $128 -2.3420518637419168 $122 $201 forward 7 unknown #
edge $-1 $128 -7.4197764296979898 $202 -4.3737527635770193e-014 $69 $203 forward 7 unknown #
coedge $-1 $204 $205 $70 $126 forward $206 $-1 #
edge $-1 $129 13.781385731930174 $202 20.270868476488463 $125 $207 forward 7 unknown #
coedge $-1 $208 $71 $205 $209 forward $117 $-1 #
vertex $-1 $123 $210 #
vertex $-1 $209 $211 #
straight-curve $-1 -64.339938478954991 9.8820059991524793 11.331381600913943 -1 0 0 I I #
face $-1 $212 $213 $15 $-1 $214 forward single #
loop $-1 $215 $79 $73 #
plane-surface $-1 -46.805627613147394 15.079908270821125 4.8418988563556127 -0.87461971476443456 0 0.48480960649040278 0.48480960649040278 0 0.87461971476443456 forward_v I I I I #
coedge $-1 $216 $217 $218 $219 reversed $74 $-1 #
coedge $-1 $135 $135 $-1 $220 forward $76 $-1 #
edge $-1 $221 0 $221 6.2831853071796004 $77 $222 forward 7 unknown #
vertex $-1 $80 $223 #
ellipse-curve $-1 -45.007038167583069 15.079908270821125 8.0866402286347849 0.87461971476443456 0 -0.48480960649040278 0.72721440973560414 0 1.311929572146652 1 I I #
face $-1 $-1 $96 $12 $-1 $224 reversed single #
loop $-1 $-1 $155 $81 #
plane-surface $-1 0 27.095326010314825 0 0 -1 0 0 0 -1 forward_v I I I I #
coedge $-1 $225 $153 $156 $226 forward $82 $-1 #
coedge $-1 $159 $84 $85 $147 reversed $50 $-1 #
coedge $-1 $153 $225 $84 $145 reversed $82 $-1 #
edge $-1 $160 -11.331381600913941 $227 11.331381600913941 $144 $228 forward 7 unknown #
coedge $-1 $86 $85 $225 $229 forward $33 $-1 #
edge $-1 $151 -46.805627613147372 $227 46.805627613147372 $143 $230 forward 7 unknown #
coedge $-1 $156 $155 $86 $149 reversed $140 $-1 #
edge $-1 $231 -46.805627613147372 $150 46.805627613147372 $148 $232 forward 7 unknown #
vertex $-1 $88 $233 #
vertex $-1 $162 $234 #
straight-curve $-1 46.805627613147372 0 -11.331381600913941 0 -1 0 I I #
coedge $-1 $142 $144 $89 $154 reversed $82 $-1 #
edge $-1 $157 -27.095326010314825 $160 27.095326010314825 $153 $235 forward 7 unknown #
coedge $-1 $148 $90 $95 $163 forward $140 $-1 #
coedge $-1 $90 $148 $142 $226 reversed $140 $-1 #
vertex $-1 $91 $236 #
straight-curve $-1 0 27.095326010314825 11.331381600913941 -1 0 0 I I #
coedge $-1 $92 $143 $94 $162 reversed $50 $-1 #
vertex $-1 $154 $237 #
straight-curve $-1 0 -27.095326010314825 11.331381600913941 1 0 0 I I #
edge $-1 $97 -11.331381600913941 $151 11.331381600913941 $94 $238 forward 7 unknown #
edge $-1 $98 -11.331381600913941 $150 11.331381600913941 $95 $239 forward 7 unknown #
point $-1 46.805627613147372 -27.095326010314825 11.331381600913941 #
point $-1 46.805627613147372 27.095326010314825 11.331381600913941 #
face $-1 $240 $186 $13 $-1 $241 reversed single #
loop $-1 $-1 $171 $100 #
plane-surface $-1 0 -27.095326010314825 0 0 1 0 0 0 1 forward_v I I I I #
coedge $-1 $106 $103 $242 $243 reversed $58 $-1 #
coedge $-1 $103 $106 $244 $245 reversed $58 $-1 #
coedge $-1 $246 $247 $103 $172 forward $167 $-1 #
edge $-1 $248 -11.331381600913941 $249 11.331381600913941 $171 $250 forward 7 unknown #
coedge $-1 $242 $109 $104 $174 forward $101 $-1 #
edge $-1 $113 -14.321432205659745 $177 -11.321432205659745 $173 $251 forward 7 unknown #
coedge $-1 $111 $244 $105 $176 forward $186 $-1 #
edge $-1 $178 11.321432205659745 $114 14.321432205659745 $175 $252 forward 7 unknown #
vertex $-1 $174 $253 #
vertex $-1 $176 $254 #
straight-curve $-1 -24.14286441131949 -12.868267540833212 0 0 0 -1 I I #
coedge $-1 $255 $256 $108 $181 forward $257 $-1 #
edge $-1 $187 -11.331381600913941 $183 11.331381600913941 $180 $258 forward 7 unknown #
coedge $-1 $109 $259 $255 $260 forward $101 $-1 #
vertex $-1 $181 $261 #
straight-curve $-1 -27.14286441131949 -9.9908983877870092 11.331381600913941 0 1 0 I I #
coedge $-1 $262 $111 $256 $263 forward $186 $-1 #
loop $-1 $-1 $111 $166 #
vertex $-1 $263 $264 #
straight-curve $-1 -27.14286441131949 -9.9908983877870092 -11.331381600913941 0 -1 0 I I #
point $-1 -27.14286441131949 -12.868267540833212 11.331381600913941 #
point $-1 -27.14286441131949 -12.868267540833212 -11.331381600913941 #
face $-1 $265 $266 $14 $-1 $267 forward single #
loop $-1 $-1 $268 $116 #
plane-surface $-1 -27.14286441131949 -19.981796775574018 0 1 0 0 0 0 -1 forward_v I I I I #
coedge $-1 $122 $269 $119 $197 forward $117 $-1 #
coedge $-1 $196 $119 $270 $271 reversed $66 $-1 #
coedge $-1 $119 $195 $120 $199 forward $66 $-1 #
edge $-1 $272 17.534310865807619 $200 21.131489756936247 $194 $273 forward 7 unknown #
coedge $-1 $121 $120 $204 $274 reversed $41 $-1 #
edge $-1 $275 4.3737527635770193e-014 $200 7.4197764296979898 $196 $276 forward 7 unknown #
vertex $-1 $123 $277 #
straight-curve $-1 -43.208448722018751 7.5399541354105626 11.331381600913943 0 -1 0 I I #
vertex $-1 $274 $278 #
straight-curve $-1 -46.805627613147394 9.8820059991524793 4.8418988563556127 -0.48480960649040278 0 -0.87461971476443456 I I #
coedge $-1 $270 $125 $198 $274 forward $206 $-1 #
coedge $-1 $125 $279 $127 $209 reversed $206 $-1 #
loop $-1 $-1 $270 $280 #
straight-curve $-1 -46.805627613147372 9.8820059991524793 25.112767332844115 0 0 -1 I I #
coedge $-1 $281 $127 $282 $283 forward $117 $-1 #
edge $-1 $129 -9.8820059991524793 $284 27.095326010314825 $205 $285 forward 7 unknown #
point $-1 -43.208448722018744 9.8820059991524793 11.331381600913941 #
point $-1 -46.805627613147372 9.8820059991524793 11.331381600913941 #
face $-1 $286 $287 $15 $-1 $288 forward single #
loop $-1 $-1 $289 $131 #
plane-surface $-1 -128.67987695790998 20.277810542489771 50.22553466568823 0 -1 0 0.87461971476443456 0 -0.48480960649040278 forward_v I I I I #
loop $-1 $-1 $290 $73 #
coedge $-1 $217 $134 $291 $292 forward $74 $-1 #
coedge $-1 $134 $216 $293 $294 reversed $74 $-1 #
coedge $-1 $295 $296 $134 $219 forward $287 $-1 #
edge $-1 $297 -21.131489756936247 $298 -17.534310865807619 $218 $299 forward 7 unknown #
edge $-1 $300 1 $300 0 $135 $-1 forward 7 unknown #
vertex $-1 $136 $301 #
ellipse-curve $-1 -42.031764311697863 15.079908270821125 6.4374190609397592 -0.87461971476443456 0 0.48480960649040278 0.72721440973560414 0 1.311929572146652 1 I I #
point $-1 -44.279823757847446 15.079908270821125 9.3985698007814236 #
plane-surface $-1 46.805627613147372 0 0 -1 0 0 0 0 1 forward_v I I I I #
coedge $-1 $144 $142 $146 $229 reversed $82 $-1 #
edge $-1 $157 -11.331381600913941 $231 11.331381600913941 $156 $302 forward 7 unknown #
vertex $-1 $229 $303 #
straight-curve $-1 -46.805627613147372 -27.095326010314825 0 0 0 -1 I I #
edge $-1 $227 -27.095326010314825 $231 27.095326010314825 $225 $304 forward 7 unknown #
straight-curve $-1 0 -27.095326010314825 -11.331381600913941 -1 0 0 I I #
vertex $-1 $149 $305 #
straight-curve $-1 0 27.095326010314825 -11.331381600913941 1 0 0 I I #
point $-1 46.805627613147372 27.095326010314825 -11.331381600913941 #
point $-1 46.805627613147372 -27.095326010314825 -11.331381600913941 #
straight-curve $-1 -46.805627613147372 0 11.331381600913941 0 -1 0 I I #
point $-1 -46.805627613147372 27.095326010314825 11.331381600913941 #
point $-1 -46.805627613147372 -27.095326010314825 11.331381600913941 #
straight-curve $-1 46.805627613147372 -27.095326010314825 0 0 0 -1 I I #
straight-curve $-1 46.805627613147372 27.095326010314825 0 0 0 -1 I I #
face $-1 $306 $257 $13 $-1 $168 reversed single #
plane-surface $-1 0 0 -11.331381600913941 0 0 1 1 0 0 forward_v I I I I #
coedge $-1 $307 $173 $169 $243 forward $101 $-1 #
edge $-1 $177 2.8773691530462031 $248 17.104427622527815 $242 $308 forward 7 unknown #
coedge $-1 $175 $309 $170 $245 forward $186 $-1 #
edge $-1 $249 -17.104427622527815 $178 -2.8773691530462031 $244 $310 forward 7 unknown #
coedge $-1 $311 $171 $309 $312 reversed $167 $-1 #
coedge $-1 $171 $311 $307 $313 reversed $167 $-1 #
vertex $-1 $313 $314 #
vertex $-1 $172 $315 #
straight-curve $-1 -24.14286441131949 -27.095326010314825 0 0 0 -1 I I #
straight-curve $-1 -12.821432205659745 -12.868267540833212 11.331381600913941 1 0 0 I I #
straight-curve $-1 -12.821432205659745 -12.868267540833212 -11.331381600913941 -1 0 0 I I #
point $-1 -24.14286441131949 -12.868267540833212 11.331381600913941 #
point $-1 -24.14286441131949 -12.868267540833212 -11.331381600913941 #
coedge $-1 $316 $180 $182 $260 reversed $257 $-1 #
coedge $-1 $180 $316 $185 $263 reversed $257 $-1 #
loop $-1 $-1 $180 $240 #
straight-curve $-1 -27.14286441131949 -27.095326010314825 0 0 0 1 I I #
coedge $-1 $182 $317 $318 $319 forward $101 $-1 #
edge $-1 $320 -46.805627613147372 $183 -27.14286441131949 $255 $321 forward 7 unknown #
point $-1 -27.14286441131949 -27.095326010314825 11.331381600913941 #
coedge $-1 $322 $185 $323 $324 forward $186 $-1 #
edge $-1 $187 27.14286441131949 $325 46.805627613147372 $256 $326 forward 7 unknown #
point $-1 -27.14286441131949 -27.095326010314825 -11.331381600913941 #
face $-1 $327 $328 $14 $-1 $329 forward single #
loop $-1 $-1 $330 $191 #
plane-surface $-1 -25.64286441131949 -12.868267540833212 0 0 -1 0 0 0 -1 forward_v I I I I #
coedge $-1 $331 $332 $333 $334 reversed $192 $-1 #
coedge $-1 $194 $335 $336 $337 forward $117 $-1 #
coedge $-1 $336 $204 $195 $271 forward $206 $-1 #
edge $-1 $275 -20.270868476488463 $272 -13.781385731930174 $270 $338 forward 7 unknown #
vertex $-1 $271 $339 #
straight-curve $-1 -64.339938478954991 20.277810542489771 11.331381600913943 1 0 0 I I #
edge $-1 $202 2.3420518637419168 $275 12.737856407079208 $204 $340 forward 7 unknown #
vertex $-1 $274 $341 #
straight-curve $-1 -46.805627613147394 20.277810542489771 4.8418988563556127 0.48480960649040278 0 0.87461971476443456 I I #
point $-1 -43.208448722018744 20.277810542489771 11.331381600913941 #
point $-1 -46.805627613147372 9.8820059991524793 4.8418988563556509 #
coedge $-1 $205 $342 $343 $344 reversed $206 $-1 #
face $-1 $345 $206 $14 $-1 $346 reversed single #
coedge $-1 $347 $208 $331 $348 forward $117 $-1 #
coedge $-1 $343 $349 $208 $283 reversed $350 $-1 #
edge $-1 $284 -46.805627613147372 $351 -27.14286441131949 $282 $352 forward 7 unknown #
vertex $-1 $209 $353 #
straight-curve $-1 -46.805627613147372 0 11.331381600913941 0 -1 0 I I #
face $-1 $354 $355 $15 $-1 $356 forward single #
loop $-1 $-1 $357 $212 #
plane-surface $-1 0 0 11.331381600913941 0 0 1 1 0 0 forward_v I I I I #
coedge $-1 $358 $359 $357 $360 reversed $213 $-1 #
coedge $-1 $361 $291 $296 $362 reversed $215 $-1 #
coedge $-1 $290 $363 $216 $292 reversed $215 $-1 #
edge $-1 $297 -7.4197764296979898 $364 -4.3737527635770193e-014 $216 $365 forward 7 unknown #
coedge $-1 $366 $367 $217 $294 forward $368 $-1 #
edge $-1 $298 13.781385731930174 $364 20.270868476488463 $293 $369 forward 7 unknown #
coedge $-1 $370 $218 $367 $371 forward $287 $-1 #
coedge $-1 $218 $357 $290 $362 forward $287 $-1 #
vertex $-1 $362 $372 #
vertex $-1 $371 $373 #
straight-curve $-1 -64.339938478954991 9.8820059991524793 11.331381600913943 -1 0 0 I I #
vertex $-1 $220 $374 #
point $-1 -41.304549901962261 15.079908270821125 7.7493486330864112 #
straight-curve $-1 -46.805627613147372 27.095326010314825 0 0 0 -1 I I #
point $-1 -46.805627613147372 -27.095326010314825 -11.331381600913941 #
straight-curve $-1 -46.805627613147372 0 -11.331381600913941 0 1 0 I I #
point $-1 -46.805627613147372 27.095326010314825 -11.331381600913941 #
face $-1 $375 $376 $13 $-1 $377 reversed single #
coedge $-1 $378 $242 $247 $313 forward $101 $-1 #
straight-curve $-1 -24.14286441131949 -9.9908983877870092 11.331381600913941 0 -1 0 I I #
coedge $-1 $244 $379 $246 $312 forward $186 $-1 #
straight-curve $-1 -24.14286441131949 -9.9908983877870092 -11.331381600913941 0 1 0 I I #
coedge $-1 $247 $246 $380 $381 reversed $167 $-1 #
edge $-1 $382 -46.805627613147372 $249 24.14286441131949 $246 $326 forward 7 unknown #
edge $-1 $248 -24.14286441131949 $383 46.805627613147372 $247 $321 forward 7 unknown #
point $-1 -24.14286441131949 -27.095326010314825 11.331381600913941 #
point $-1 -24.14286441131949 -27.095326010314825 -11.331381600913941 #
coedge $-1 $256 $255 $384 $385 forward $257 $-1 #
coedge $-1 $259 $378 $386 $387 forward $101 $-1 #
coedge $-1 $388 $384 $259 $319 reversed $376 $-1 #
edge $-1 $389 -27.095326010314825 $320 27.095326010314825 $318 $390 forward 7 unknown #
vertex $-1 $319 $391 #
straight-curve $-1 0 -27.095326010314825 11.331381600913941 1 0 0 I I #
coedge $-1 $379 $262 $392 $393 forward $186 $-1 #
coedge $-1 $384 $388 $262 $324 reversed $376 $-1 #
edge $-1 $325 -27.095326010314825 $394 27.095326010314825 $323 $395 forward 7 unknown #
vertex $-1 $324 $396 #
straight-curve $-1 0 -27.095326010314825 -11.331381600913941 -1 0 0 I I #
face $-1 $397 $398 $14 $-1 $399 reversed single #
loop $-1 $-1 $400 $265 #
plane-surface $-1 -24.14286441131949 -19.981796775574018 0 -1 0 0 0 0 1 forward_v I I I I #
coedge $-1 $401 $402 $403 $404 reversed $266 $-1 #
coedge $-1 $405 $268 $281 $348 reversed $192 $-1 #
coedge $-1 $268 $405 $406 $407 reversed $192 $-1 #
coedge $-1 $402 $401 $268 $334 forward $266 $-1 #
edge $-1 $408 -11.331381600913941 $409 11.331381600913941 $333 $410 forward 7 unknown #
coedge $-1 $269 $411 $412 $413 forward $117 $-1 #
coedge $-1 $414 $270 $269 $337 reversed $206 $-1 #
edge $-1 $415 -27.095326010314825 $272 -20.277810542489771 $336 $285 forward 7 unknown #
straight-curve $-1 -46.805627613147372 20.277810542489771 25.112767332844115 0 0 1 I I #
point $-1 -46.805627613147372 20.277810542489771 11.331381600913941 #
straight-curve $-1 -46.805627613147372 7.5399541354105626 4.8418988563556491 0 1 0 I I #
point $-1 -46.805627613147372 20.277810542489771 4.8418988563556509 #
coedge $-1 $279 $414 $416 $417 reversed $206 $-1 #
coedge $-1 $418 $282 $279 $344 forward $350 $-1 #
edge $-1 $284 -11.331381600913941 $419 11.331381600913941 $279 $420 forward 7 unknown #
face $-1 $421 $422 $14 $-1 $423 reversed single #
plane-surface $-1 -46.805627613147372 0 0 1 0 0 0 0 -1 forward_v I I I I #
coedge $-1 $424 $281 $401 $425 forward $117 $-1 #
edge $-1 $351 -17.104427622527815 $408 -2.8773691530462031 $281 $426 forward 7 unknown #
coedge $-1 $282 $418 $405 $427 forward $350 $-1 #
loop $-1 $-1 $349 $428 #
vertex $-1 $427 $429 #
straight-curve $-1 0 -27.095326010314825 11.331381600913941 1 0 0 I I #
point $-1 -46.805627613147372 -27.095326010314825 11.331381600913941 #
face $-1 $430 $431 $15 $-1 $432 forward single #
loop $-1 $-1 $433 $286 #
plane-surface $-1 -27.14286441131949 -19.981796775574018 0 1 0 0 0 0 -1 forward_v I I I I #
coedge $-1 $296 $434 $289 $360 forward $287 $-1 #
coedge $-1 $359 $289 $435 $436 reversed $213 $-1 #
coedge $-1 $289 $358 $361 $437 forward $213 $-1 #
edge $-1 $438 17.534310865807619 $439 21.131489756936247 $357 $440 forward 7 unknown #
coedge $-1 $363 $290 $359 $437 reversed $215 $-1 #
edge $-1 $439 -12.737856407079208 $297 -2.3420518637419168 $296 $441 forward 7 unknown #
coedge $-1 $291 $361 $366 $442 reversed $215 $-1 #
vertex $-1 $442 $443 #
straight-curve $-1 -46.805627613147394 9.8820059991524793 4.8418988563556127 -0.48480960649040278 0 -0.87461971476443456 I I #
coedge $-1 $435 $293 $363 $442 forward $368 $-1 #
coedge $-1 $293 $444 $295 $371 reversed $368 $-1 #
loop $-1 $-1 $435 $445 #
straight-curve $-1 -46.805627613147372 9.8820059991524793 25.112767332844115 0 0 -1 I I #
coedge $-1 $446 $295 $447 $448 forward $287 $-1 #
edge $-1 $298 -9.8820059991524793 $449 27.095326010314825 $367 $450 forward 7 unknown #
point $-1 -43.208448722018744 9.8820059991524793 11.331381600913941 #
point $-1 -46.805627613147372 9.8820059991524793 11.331381600913941 #
point $-1 -40.71983473955121 15.079908270821125 5.7102046512041555 #
face $-1 $451 $452 $13 $-1 $453 reversed single #
loop $-1 $-1 $388 $306 #
plane-surface $-1 -46.805627613147372 0 0 1 0 0 0 0 -1 forward_v I I I I #
coedge $-1 $317 $307 $454 $455 forward $101 $-1 #
coedge $-1 $309 $322 $456 $457 forward $186 $-1 #
coedge $-1 $456 $454 $311 $381 forward $458 $-1 #
edge $-1 $383 -11.331381600913941 $382 11.331381600913941 $380 $459 forward 7 unknown #
vertex $-1 $381 $460 #
vertex $-1 $455 $461 #
coedge $-1 $318 $323 $316 $385 reversed $376 $-1 #
edge $-1 $320 -11.331381600913941 $325 11.331381600913941 $384 $462 forward 7 unknown #
coedge $-1 $463 $464 $317 $387 reversed $452 $-1 #
edge $-1 $465 -46.805627613147372 $389 46.805627613147372 $386 $466 forward 7 unknown #
coedge $-1 $323 $318 $464 $467 forward $376 $-1 #
vertex $-1 $387 $468 #
straight-curve $-1 -46.805627613147372 0 11.331381600913941 0 -1 0 I I #
point $-1 -46.805627613147372 -27.095326010314825 11.331381600913941 #
coedge $-1 $464 $463 $322 $393 reversed $452 $-1 #
edge $-1 $394 -46.805627613147372 $469 46.805627613147372 $392 $470 forward 7 unknown #
vertex $-1 $393 $471 #
straight-curve $-1 -46.805627613147372 0 -11.331381600913941 0 1 0 I I #
point $-1 -46.805627613147372 -27.095326010314825 -11.331381600913941 #
face $-1 $428 $472 $14 $-1 $473 reversed single #
loop $-1 $-1 $474 $327 #
plane-surface $-1 0 -27.095326010314825 0 0 1 0 0 0 1 forward_v I I I I #
coedge $-1 $475 $476 $474 $477 reversed $328 $-1 #
coedge $-1 $333 $330 $347 $425 reversed $266 $-1 #
coedge $-1 $330 $333 $478 $479 reversed $266 $-1 #
coedge $-1 $476 $475 $330 $404 forward $328 $-1 #
edge $-1 $480 -11.331381600913941 $481 11.331381600913941 $403 $482 forward 7 unknown #
coedge $-1 $332 $331 $349 $427 reversed $192 $-1 #
coedge $-1 $483 $478 $332 $407 forward $472 $-1 #
edge $-1 $409 2.8773691530462031 $484 17.104427622527815 $406 $485 forward 7 unknown #
vertex $-1 $348 $486 #
vertex $-1 $407 $487 #
straight-curve $-1 -27.14286441131949 -12.868267540833212 0 0 0 -1 I I #
coedge $-1 $335 $488 $489 $490 forward $117 $-1 #
coedge $-1 $491 $492 $335 $413 reversed $422 $-1 #
edge $-1 $493 -46.805627613147372 $415 46.805627613147372 $412 $494 forward 7 unknown #
coedge $-1 $342 $336 $492 $495 forward $206 $-1 #
vertex $-1 $413 $496 #
coedge $-1 $497 $483 $342 $417 forward $472 $-1 #
edge $-1 $419 -27.095326010314825 $498 27.095326010314825 $342 $499 forward 7 unknown #
coedge $-1 $349 $343 $483 $500 reversed $350 $-1 #
vertex $-1 $417 $501 #
straight-curve $-1 -46.805627613147372 -27.095326010314825 0 0 0 -1 I I #
face $-1 $-1 $502 $14 $-1 $503 reversed single #
loop $-1 $-1 $491 $345 #
plane-surface $-1 0 27.095326010314825 0 0 -1 0 0 0 -1 forward_v I I I I #
coedge $-1 $488 $347 $475 $504 forward $117 $-1 #
edge $-1 $408 -14.321432205659745 $480 -11.321432205659745 $347 $505 forward 7 unknown #
straight-curve $-1 -27.14286441131949 -9.9908983877870092 11.331381600913941 0 1 0 I I #
edge $-1 $484 -11.331381600913941 $351 11.331381600913941 $349 $506 forward 7 unknown #
face $-1 $280 $350 $14 $-1 $399 reversed single #
point $-1 -27.14286441131949 -27.095326010314825 11.331381600913941 #
face $-1 $507 $508 $15 $-1 $509 forward single #
loop $-1 $-1 $510 $354 #
plane-surface $-1 -25.64286441131949 -12.868267540833212 0 0 -1 0 0 0 -1 forward_v I I I I #
coedge $-1 $511 $512 $513 $514 reversed $355 $-1 #
coedge $-1 $357 $515 $516 $517 forward $287 $-1 #
coedge $-1 $516 $366 $358 $436 forward $368 $-1 #
edge $-1 $518 -20.270868476488463 $438 -13.781385731930174 $435 $519 forward 7 unknown #
edge $-1 $518 4.3737527635770193e-014 $439 7.4197764296979898 $359 $520 forward 7 unknown #
vertex $-1 $436 $521 #
vertex $-1 $362 $522 #
straight-curve $-1 -64.339938478954991 20.277810542489771 11.331381600913943 1 0 0 I I #
straight-curve $-1 -43.208448722018751 7.5399541354105626 11.331381600913943 0 -1 0 I I #
edge $-1 $364 2.3420518637419168 $518 12.737856407079208 $366 $523 forward 7 unknown #
point $-1 -46.805627613147372 9.8820059991524793 4.8418988563556509 #
coedge $-1 $367 $524 $525 $526 reversed $368 $-1 #
face $-1 $527 $368 $15 $-1 $528 reversed single #
coedge $-1 $529 $370 $511 $530 forward $287 $-1 #
coedge $-1 $525 $531 $370 $448 reversed $532 $-1 #
edge $-1 $449 -46.805627613147372 $533 -27.14286441131949 $447 $534 forward 7 unknown #
vertex $-1 $371 $535 #
straight-curve $-1 -46.805627613147372 0 11.331381600913941 0 -1 0 I I #
face $-1 $-1 $458 $13 $-1 $536 reversed single #
loop $-1 $-1 $463 $375 #
plane-surface $-1 0 27.095326010314825 0 0 -1 0 0 0 -1 forward_v I I I I #
coedge $-1 $380 $537 $378 $455 reversed $458 $-1 #
edge $-1 $383 -27.095326010314825 $465 27.095326010314825 $454 $538 forward 7 unknown #
coedge $-1 $537 $380 $379 $457 reversed $458 $-1 #
edge $-1 $469 -27.095326010314825 $382 27.095326010314825 $456 $539 forward 7 unknown #
loop $-1 $-1 $380 $451 #
straight-curve $-1 46.805627613147372 -27.095326010314825 0 0 0 -1 I I #
point $-1 46.805627613147372 -27.095326010314825 -11.331381600913941 #
point $-1 46.805627613147372 -27.095326010314825 11.331381600913941 #
straight-curve $-1 -46.805627613147372 -27.095326010314825 0 0 0 -1 I I #
coedge $-1 $392 $386 $537 $540 forward $452 $-1 #
coedge $-1 $386 $392 $388 $467 reversed $452 $-1 #
vertex $-1 $455 $541 #
straight-curve $-1 0 27.095326010314825 11.331381600913941 -1 0 0 I I #
edge $-1 $389 -11.331381600913941 $394 11.331381600913941 $464 $542 forward 7 unknown #
point $-1 -46.805627613147372 27.095326010314825 11.331381600913941 #
vertex $-1 $457 $543 #
straight-curve $-1 0 27.095326010314825 -11.331381600913941 1 0 0 I I #
point $-1 -46.805627613147372 27.095326010314825 -11.331381600913941 #
loop $-1 $-1 $406 $397 #
plane-surface $-1 0 0 -11.331381600913941 0 0 1 1 0 0 forward_v I I I I #
coedge $-1 $544 $545 $400 $477 forward $398 $-1 #
coedge $-1 $403 $400 $424 $504 reversed $328 $-1 #
coedge $-1 $400 $403 $546 $547 reversed $328 $-1 #
edge $-1 $548 -11.331381600913941 $549 11.331381600913941 $474 $550 forward 7 unknown #
coedge $-1 $406 $546 $402 $479 forward $472 $-1 #
edge $-1 $481 11.321432205659745 $409 14.321432205659745 $478 $551 forward 7 unknown #
vertex $-1 $425 $552 #
vertex $-1 $479 $553 #
straight-curve $-1 -24.14286441131949 -12.868267540833212 0 0 0 -1 I I #
coedge $-1 $416 $406 $418 $500 forward $472 $-1 #
vertex $-1 $500 $554 #
straight-curve $-1 -27.14286441131949 -9.9908983877870092 -11.331381600913941 0 -1 0 I I #
point $-1 -27.14286441131949 -12.868267540833212 11.331381600913941 #
point $-1 -27.14286441131949 -12.868267540833212 -11.331381600913941 #
coedge $-1 $411 $424 $545 $555 forward $117 $-1 #
coedge $-1 $556 $557 $411 $490 reversed $502 $-1 #
edge $-1 $558 -27.095326010314825 $493 27.095326010314825 $489 $559 forward 7 unknown #
coedge $-1 $560 $412 $557 $561 forward $422 $-1 #
coedge $-1 $412 $560 $414 $495 reversed $422 $-1 #
vertex $-1 $490 $562 #
straight-curve $-1 0 27.095326010314825 11.331381600913941 -1 0 0 I I #
edge $-1 $415 -11.331381600913941 $498 11.331381600913941 $492 $563 forward 7 unknown #
point $-1 -46.805627613147372 27.095326010314825 11.331381600913941 #
coedge $-1 $564 $416 $560 $565 forward $472 $-1 #
vertex $-1 $565 $566 #
straight-curve $-1 -46.805627613147372 0 -11.331381600913941 0 1 0 I I #
edge $-1 $484 27.14286441131949 $419 46.805627613147372 $418 $567 forward 7 unknown #
point $-1 -46.805627613147372 -27.095326010314825 -11.331381600913941 #
loop $-1 $-1 $556 $421 #
plane-surface $-1 46.805627613147372 0 0 -1 0 0 0 0 1 forward_v I I I I #
edge $-1 $480 2.8773691530462031 $548 17.104427622527815 $424 $568 forward 7 unknown #
straight-curve $-1 -12.821432205659745 -12.868267540833212 11.331381600913941 1 0 0 I I #
straight-curve $-1 -27.14286441131949 -27.095326010314825 0 0 0 1 I I #
face $-1 $569 $570 $15 $-1 $571 reversed single #
loop $-1 $-1 $572 $430 #
plane-surface $-1 -24.14286441131949 -19.981796775574018 0 -1 0 0 0 0 1 forward_v I I I I #
coedge $-1 $573 $574 $575 $576 reversed $431 $-1 #
coedge $-1 $577 $433 $446 $530 reversed $355 $-1 #
coedge $-1 $433 $577 $578 $579 reversed $355 $-1 #
coedge $-1 $574 $573 $433 $514 forward $431 $-1 #
edge $-1 $580 -11.331381600913941 $581 11.331381600913941 $513 $582 forward 7 unknown #
coedge $-1 $434 $583 $584 $585 forward $287 $-1 #
coedge $-1 $586 $435 $434 $517 reversed $368 $-1 #
edge $-1 $587 -27.095326010314825 $438 -20.277810542489771 $516 $450 forward 7 unknown #
vertex $-1 $442 $588 #
straight-curve $-1 -46.805627613147372 20.277810542489771 25.112767332844115 0 0 1 I I #
straight-curve $-1 -46.805627613147394 20.277810542489771 4.8418988563556127 0.48480960649040278 0 0.87461971476443456 I I #
point $-1 -46.805627613147372 20.277810542489771 11.331381600913941 #
point $-1 -43.208448722018744 20.277810542489771 11.331381600913941 #
straight-curve $-1 -46.805627613147372 7.5399541354105626 4.8418988563556491 0 1 0 I I #
coedge $-1 $444 $586 $589 $590 reversed $368 $-1 #
coedge $-1 $591 $447 $444 $526 forward $532 $-1 #
edge $-1 $449 -11.331381600913941 $592 11.331381600913941 $444 $593 forward 7 unknown #
face $-1 $594 $595 $15 $-1 $596 reversed single #
plane-surface $-1 -46.805627613147372 0 0 1 0 0 0 0 -1 forward_v I I I I #
coedge $-1 $597 $446 $573 $598 forward $287 $-1 #
edge $-1 $533 -17.104427622527815 $580 -2.8773691530462031 $446 $599 forward 7 unknown #
coedge $-1 $447 $591 $577 $600 forward $532 $-1 #
loop $-1 $-1 $531 $601 #
vertex $-1 $600 $602 #
straight-curve $-1 0 -27.095326010314825 11.331381600913941 1 0 0 I I #
point $-1 -46.805627613147372 -27.095326010314825 11.331381600913941 #
plane-surface $-1 46.805627613147372 0 0 -1 0 0 0 0 1 forward_v I I I I #
coedge $-1 $454 $456 $463 $540 reversed $458 $-1 #
straight-curve $-1 46.805627613147372 0 11.331381600913941 0 1 0 I I #
straight-curve $-1 46.805627613147372 0 -11.331381600913941 0 -1 0 I I #
edge $-1 $465 -11.331381600913941 $469 11.331381600913941 $537 $603 forward 7 unknown #
point $-1 46.805627613147372 27.095326010314825 11.331381600913941 #
straight-curve $-1 -46.805627613147372 27.095326010314825 0 0 0 -1 I I #
point $-1 46.805627613147372 27.095326010314825 -11.331381600913941 #
coedge $-1 $604 $474 $605 $606 reversed $398 $-1 #
coedge $-1 $474 $604 $488 $555 reversed $398 $-1 #
coedge $-1 $478 $605 $476 $547 forward $472 $-1 #
edge $-1 $549 -17.104427622527815 $481 -2.8773691530462031 $546 $607 forward 7 unknown #
vertex $-1 $555 $608 #
vertex $-1 $477 $609 #
straight-curve $-1 -24.14286441131949 -27.095326010314825 0 0 0 -1 I I #
straight-curve $-1 -12.821432205659745 -12.868267540833212 -11.331381600913941 -1 0 0 I I #
point $-1 -24.14286441131949 -12.868267540833212 11.331381600913941 #
point $-1 -24.14286441131949 -12.868267540833212 -11.331381600913941 #
point $-1 -27.14286441131949 -27.095326010314825 -11.331381600913941 #
edge $-1 $548 -24.14286441131949 $558 46.805627613147372 $545 $352 forward 7 unknown #
coedge $-1 $610 $489 $604 $611 forward $502 $-1 #
coedge $-1 $489 $610 $491 $561 reversed $502 $-1 #
vertex $-1 $490 $612 #
straight-curve $-1 46.805627613147372 0 11.331381600913941 0 1 0 I I #
coedge $-1 $492 $491 $497 $565 reversed $422 $-1 #
edge $-1 $493 -11.331381600913941 $613 11.331381600913941 $557 $614 forward 7 unknown #
point $-1 46.805627613147372 27.095326010314825 11.331381600913941 #
straight-curve $-1 -46.805627613147372 27.095326010314825 0 0 0 -1 I I #
coedge $-1 $605 $497 $610 $615 forward $472 $-1 #
edge $-1 $498 -46.805627613147372 $613 46.805627613147372 $560 $616 forward 7 unknown #
point $-1 -46.805627613147372 27.095326010314825 -11.331381600913941 #
straight-curve $-1 0 -27.095326010314825 -11.331381600913941 -1 0 0 I I #
straight-curve $-1 -24.14286441131949 -9.9908983877870092 11.331381600913941 0 -1 0 I I #
face $-1 $601 $617 $15 $-1 $618 reversed single #
loop $-1 $-1 $619 $507 #
plane-surface $-1 0 -27.095326010314825 0 0 1 0 0 0 1 forward_v I I I I #
coedge $-1 $620 $621 $619 $622 reversed $508 $-1 #
coedge $-1 $513 $510 $529 $598 reversed $431 $-1 #
coedge $-1 $510 $513 $623 $624 reversed $431 $-1 #
coedge $-1 $621 $620 $510 $576 forward $508 $-1 #
edge $-1 $625 -11.331381600913941 $626 11.331381600913941 $575 $627 forward 7 unknown #
coedge $-1 $512 $511 $531 $600 reversed $355 $-1 #
coedge $-1 $628 $623 $512 $579 forward $617 $-1 #
edge $-1 $581 2.8773691530462031 $629 17.104427622527815 $578 $630 forward 7 unknown #
vertex $-1 $530 $631 #
vertex $-1 $579 $632 #
straight-curve $-1 -27.14286441131949 -12.868267540833212 0 0 0 -1 I I #
coedge $-1 $515 $633 $634 $635 forward $287 $-1 #
coedge $-1 $636 $637 $515 $585 reversed $595 $-1 #
edge $-1 $638 -46.805627613147372 $587 46.805627613147372 $584 $639 forward 7 unknown #
coedge $-1 $524 $516 $637 $640 forward $368 $-1 #
vertex $-1 $585 $641 #
point $-1 -46.805627613147372 20.277810542489771 4.8418988563556509 #
coedge $-1 $642 $628 $524 $590 forward $617 $-1 #
edge $-1 $592 -27.095326010314825 $643 27.095326010314825 $524 $644 forward 7 unknown #
coedge $-1 $531 $525 $628 $645 reversed $532 $-1 #
vertex $-1 $590 $646 #
straight-curve $-1 -46.805627613147372 -27.095326010314825 0 0 0 -1 I I #
face $-1 $-1 $647 $15 $-1 $648 reversed single #
loop $-1 $-1 $636 $527 #
plane-surface $-1 0 27.095326010314825 0 0 -1 0 0 0 -1 forward_v I I I I #
coedge $-1 $633 $529 $620 $649 forward $287 $-1 #
edge $-1 $580 -14.321432205659745 $625 -11.321432205659745 $529 $650 forward 7 unknown #
straight-curve $-1 -27.14286441131949 -9.9908983877870092 11.331381600913941 0 1 0 I I #
edge $-1 $629 -11.331381600913941 $533 11.331381600913941 $531 $651 forward 7 unknown #
face $-1 $445 $532 $15 $-1 $571 reversed single #
point $-1 -27.14286441131949 -27.095326010314825 11.331381600913941 #
straight-curve $-1 46.805627613147372 27.095326010314825 0 0 0 -1 I I #
coedge $-1 $545 $544 $556 $611 reversed $398 $-1 #
coedge $-1 $546 $564 $544 $606 forward $472 $-1 #
edge $-1 $652 -46.805627613147372 $549 24.14286441131949 $544 $567 forward 7 unknown #
straight-curve $-1 -24.14286441131949 -9.9908983877870092 -11.331381600913941 0 1 0 I I #
point $-1 -24.14286441131949 -27.095326010314825 11.331381600913941 #
point $-1 -24.14286441131949 -27.095326010314825 -11.331381600913941 #
coedge $-1 $557 $556 $564 $615 reversed $502 $-1 #
edge $-1 $558 -11.331381600913941 $652 11.331381600913941 $556 $653 forward 7 unknown #
point $-1 46.805627613147372 -27.095326010314825 11.331381600913941 #
vertex $-1 $615 $654 #
straight-curve $-1 46.805627613147372 27.095326010314825 0 0 0 -1 I I #
edge $-1 $613 -27.095326010314825 $652 27.095326010314825 $610 $655 forward 7 unknown #
straight-curve $-1 0 27.095326010314825 -11.331381600913941 1 0 0 I I #
loop $-1 $-1 $578 $569 #
plane-surface $-1 0 0 -11.331381600913941 0 0 1 1 0 0 forward_v I I I I #
coedge $-1 $656 $657 $572 $622 forward $570 $-1 #
coedge $-1 $575 $572 $597 $649 reversed $508 $-1 #
coedge $-1 $572 $575 $658 $659 reversed $508 $-1 #
edge $-1 $660 -11.331381600913941 $661 11.331381600913941 $619 $662 forward 7 unknown #
coedge $-1 $578 $658 $574 $624 forward $617 $-1 #
edge $-1 $626 11.321432205659745 $581 14.321432205659745 $623 $663 forward 7 unknown #
vertex $-1 $598 $664 #
vertex $-1 $624 $665 #
straight-curve $-1 -24.14286441131949 -12.868267540833212 0 0 0 -1 I I #
coedge $-1 $589 $578 $591 $645 forward $617 $-1 #
vertex $-1 $645 $666 #
straight-curve $-1 -27.14286441131949 -9.9908983877870092 -11.331381600913941 0 -1 0 I I #
point $-1 -27.14286441131949 -12.868267540833212 11.331381600913941 #
point $-1 -27.14286441131949 -12.868267540833212 -11.331381600913941 #
coedge $-1 $583 $597 $657 $667 forward $287 $-1 #
coedge $-1 $668 $669 $583 $635 reversed $647 $-1 #
edge $-1 $670 -27.095326010314825 $638 27.095326010314825 $634 $671 forward 7 unknown #
coedge $-1 $672 $584 $669 $673 forward $595 $-1 #
coedge $-1 $584 $672 $586 $640 reversed $595 $-1 #
vertex $-1 $635 $674 #
straight-curve $-1 0 27.095326010314825 11.331381600913941 -1 0 0 I I #
edge $-1 $587 -11.331381600913941 $643 11.331381600913941 $637 $675 forward 7 unknown #
point $-1 -46.805627613147372 27.095326010314825 11.331381600913941 #
coedge $-1 $676 $589 $672 $677 forward $617 $-1 #
vertex $-1 $677 $678 #
straight-curve $-1 -46.805627613147372 0 -11.331381600913941 0 1 0 I I #
edge $-1 $629 27.14286441131949 $592 46.805627613147372 $591 $679 forward 7 unknown #
point $-1 -46.805627613147372 -27.095326010314825 -11.331381600913941 #
loop $-1 $-1 $668 $594 #
plane-surface $-1 46.805627613147372 0 0 -1 0 0 0 0 1 forward_v I I I I #
edge $-1 $625 2.8773691530462031 $660 17.104427622527815 $597 $680 forward 7 unknown #
straight-curve $-1 -12.821432205659745 -12.868267540833212 11.331381600913941 1 0 0 I I #
straight-curve $-1 -27.14286441131949 -27.095326010314825 0 0 0 1 I I #
vertex $-1 $611 $681 #
straight-curve $-1 46.805627613147372 -27.095326010314825 0 0 0 -1 I I #
point $-1 46.805627613147372 27.095326010314825 -11.331381600913941 #
straight-curve $-1 46.805627613147372 0 -11.331381600913941 0 -1 0 I I #
coedge $-1 $682 $619 $683 $684 reversed $570 $-1 #
coedge $-1 $619 $682 $633 $667 reversed $570 $-1 #
coedge $-1 $623 $683 $621 $659 forward $617 $-1 #
edge $-1 $661 -17.104427622527815 $626 -2.8773691530462031 $658 $685 forward 7 unknown #
vertex $-1 $667 $686 #
vertex $-1 $622 $687 #
straight-curve $-1 -24.14286441131949 -27.095326010314825 0 0 0 -1 I I #
straight-curve $-1 -12.821432205659745 -12.868267540833212 -11.331381600913941 -1 0 0 I I #
point $-1 -24.14286441131949 -12.868267540833212 11.331381600913941 #
point $-1 -24.14286441131949 -12.868267540833212 -11.331381600913941 #
point $-1 -27.14286441131949 -27.095326010314825 -11.331381600913941 #
edge $-1 $660 -24.14286441131949 $670 46.805627613147372 $657 $534 forward 7 unknown #
coedge $-1 $688 $634 $682 $689 forward $647 $-1 #
coedge $-1 $634 $688 $636 $673 reversed $647 $-1 #
vertex $-1 $635 $690 #
straight-curve $-1 46.805627613147372 0 11.331381600913941 0 1 0 I I #
coedge $-1 $637 $636 $642 $677 reversed $595 $-1 #
edge $-1 $638 -11.331381600913941 $691 11.331381600913941 $669 $692 forward 7 unknown #
point $-1 46.805627613147372 27.095326010314825 11.331381600913941 #
straight-curve $-1 -46.805627613147372 27.095326010314825 0 0 0 -1 I I #
coedge $-1 $683 $642 $688 $693 forward $617 $-1 #
edge $-1 $643 -46.805627613147372 $691 46.805627613147372 $672 $694 forward 7 unknown #
point $-1 -46.805627613147372 27.095326010314825 -11.331381600913941 #
straight-curve $-1 0 -27.095326010314825 -11.331381600913941 -1 0 0 I I #
straight-curve $-1 -24.14286441131949 -9.9908983877870092 11.331381600913941 0 -1 0 I I #
point $-1 46.805627613147372 -27.095326010314825 -11.331381600913941 #
coedge $-1 $657 $656 $668 $689 reversed $570 $-1 #
coedge $-1 $658 $676 $656 $684 forward $617 $-1 #
edge $-1 $695 -46.805627613147372 $661 24.14286441131949 $656 $679 forward 7 unknown #
straight-curve $-1 -24.14286441131949 -9.9908983877870092 -11.331381600913941 0 1 0 I I #
point $-1 -24.14286441131949 -27.095326010314825 11.331381600913941 #
point $-1 -24.14286441131949 -27.095326010314825 -11.331381600913941 #
coedge $-1 $669 $668 $676 $693 reversed $647 $-1 #
edge $-1 $670 -11.331381600913941 $695 11.331381600913941 $668 $696 forward 7 unknown #
point $-1 46.805627613147372 -27.095326010314825 11.331381600913941 #
vertex $-1 $693 $697 #
straight-curve $-1 46.805627613147372 27.095326010314825 0 0 0 -1 I I #
edge $-1 $691 -27.095326010314825 $695 27.095326010314825 $688 $698 forward 7 unknown #
straight-curve $-1 0 27.095326010314825 -11.331381600913941 1 0 0 I I #
vertex $-1 $689 $699 #
straight-curve $-1 46.805627613147372 -27.095326010314825 0 0 0 -1 I I #
point $-1 46.805627613147372 27.095326010314825 -11.331381600913941 #
straight-curve $-1 46.805627613147372 0 -11.331381600913941 0 -1 0 I I #
point $-1 46.805627613147372 -27.095326010314825 -11.331381600913941 #
End-of-ACIS-data 