500 0 10 0           
7 Unknown 11 ACIS 5.0 NT 24 Fri Mar 26 02:05:27 1999 
-1 9.9999999999999995e-007 1e-010 
body $-1 $10 $-1 $11 #
body $-1 $12 $-1 $13 #
body $-1 $14 $-1 $15 #
body $-1 $16 $-1 $17 #
body $-1 $18 $-1 $19 #
body $-1 $20 $-1 $21 #
body $-1 $22 $-1 $23 #
body $-1 $24 $-1 $25 #
body $-1 $26 $-1 $27 #
body $-1 $28 $-1 $29 #
lump $-1 $-1 $30 $0 #
transform $-1 1 0 0 0 1 0 0 0 1 45.623950926236759 22.326872020548084 10.36029003869837 1 rotate no_reflect no_shear #
lump $-1 $-1 $31 $1 #
transform $-1 1 0 0 0 1 0 0 0 1 45.623950926236759 22.326872020548084 10.36029003869837 1 rotate no_reflect no_shear #
lump $-1 $-1 $32 $2 #
transform $-1 1 0 0 0 1 0 0 0 1 45.623950926236759 22.326872020548084 10.36029003869837 1 rotate no_reflect no_shear #
lump $-1 $-1 $33 $3 #
transform $-1 1 0 0 0 1 0 0 0 1 45.623950926236759 22.326872020548084 10.36029003869837 1 rotate no_reflect no_shear #
lump $-1 $-1 $34 $4 #
transform $-1 1 0 0 0 1 0 0 0 1 45.623950926236759 22.326872020548084 10.36029003869837 1 rotate no_reflect no_shear #
lump $-1 $-1 $35 $5 #
transform $-1 1 0 0 0 1 0 0 0 1 45.623950926236759 22.326872020548084 10.36029003869837 1 rotate no_reflect no_shear #
lump $-1 $-1 $36 $6 #
transform $-1 1 0 0 0 1 0 0 0 1 45.623950926236759 22.326872020548084 10.36029003869837 1 rotate no_reflect no_shear #
lump $-1 $-1 $37 $7 #
transform $-1 1 0 0 0 1 0 0 0 1 45.623950926236759 22.326872020548084 10.36029003869837 1 rotate no_reflect no_shear #
lump $-1 $-1 $38 $8 #
transform $-1 1 0 0 0 1 0 0 0 1 45.623950926236759 22.326872020548084 10.36029003869837 1 rotate no_reflect no_shear #
lump $-1 $-1 $39 $9 #
transform $-1 1 0 0 0 1 0 0 0 1 45.623950926236759 22.326872020548084 10.36029003869837 1 rotate no_reflect no_shear #
shell $-1 $-1 $-1 $40 $-1 $10 #
shell $-1 $-1 $-1 $41 $-1 $12 #
shell $-1 $-1 $-1 $42 $-1 $14 #
shell $-1 $-1 $-1 $43 $-1 $16 #
shell $-1 $-1 $-1 $44 $-1 $18 #
shell $-1 $-1 $-1 $45 $-1 $20 #
shell $-1 $-1 $-1 $46 $-1 $22 #
shell $-1 $-1 $-1 $47 $-1 $24 #
shell $-1 $-1 $-1 $48 $-1 $26 #
shell $-1 $-1 $-1 $49 $-1 $28 #
face $-1 $50 $51 $30 $-1 $52 forward single #
face $-1 $53 $54 $31 $-1 $55 reversed single #
face $-1 $56 $57 $32 $-1 $58 forward single #
face $-1 $59 $60 $33 $-1 $61 reversed single #
face $-1 $62 $63 $34 $-1 $64 forward single #
face $-1 $65 $66 $35 $-1 $67 forward single #
face $-1 $68 $69 $36 $-1 $70 reversed single #
face $-1 $71 $72 $37 $-1 $73 forward single #
face $-1 $74 $75 $38 $-1 $76 forward single #
face $-1 $77 $78 $39 $-1 $79 forward single #
face $-1 $80 $81 $30 $-1 $82 reversed single #
loop $-1 $-1 $83 $40 #
plane-surface $-1 0 0 10.36029003869837 0 0 1 1 0 0 forward_v I I I I #
face $-1 $84 $85 $31 $-1 $86 reversed single #
loop $-1 $-1 $87 $41 #
plane-surface $-1 0 -17.546761870422859 7.1527642253318895 0 0 1 1 0 0 forward_v I I I I #
face $-1 $88 $89 $32 $-1 $90 reversed single #
loop $-1 $-1 $91 $42 #
plane-surface $-1 0 17.785699557188334 -6.2746674360172392 0 0 1 1 0 0 forward_v I I I I #
face $-1 $92 $93 $33 $-1 $94 reversed single #
loop $-1 $-1 $95 $43 #
plane-surface $-1 76.842526846910189 13.244527093828591 126.12935291779465 0 -1 0 -0.85716730853699208 0 -0.51503806187062418 forward_v I I I I #
face $-1 $96 $97 $34 $-1 $98 forward single #
loop $-1 $99 $100 $44 #
cone-surface $-1 41.706727214491657 7.8691066355654016 4.9900881232740328 -0.85716730853699208 0 -0.51503806187062418 0.51503806187062418 0 -0.85716730853699208 1 I I 0 1 1 forward I I I I #
face $-1 $101 $102 $35 $-1 $103 forward single #
loop $-1 $104 $105 $45 #
cone-surface $-1 41.706727214491657 11.094358910523308 4.9900881232740328 -0.85716730853699208 0 -0.51503806187062418 0.51503806187062418 0 -0.85716730853699208 1 I I 0 1 1 forward I I I I #
face $-1 $106 $107 $36 $-1 $108 reversed single #
loop $-1 $-1 $109 $46 #
plane-surface $-1 -45.623950926236759 -9.6442524007143646 3.8857892812720962 -0.50000000669873634 0 0.8660253999169214 0.8660253999169214 0 0.50000000669873634 forward_v I I I I #
face $-1 $110 $111 $37 $-1 $112 forward single #
loop $-1 $113 $114 $47 #
cone-surface $-1 -39.617751636184423 -11.517691992464329 6.4317483042347243 0.50000000669873634 0 -0.8660253999169214 0.4330126999584607 0 0.25000000334936817 1 I I 0 1 0.5 forward I I I I #
face $-1 $115 $116 $38 $-1 $117 forward single #
loop $-1 $118 $119 $48 #
cone-surface $-1 -39.617751636184423 -9.6442524007143664 6.4317483042347243 0.50000000669873634 0 -0.8660253999169214 0.4330126999584607 0 0.25000000334936817 1 I I 0 1 0.5 forward I I I I #
face $-1 $120 $121 $39 $-1 $122 forward single #
loop $-1 $123 $124 $49 #
cone-surface $-1 -39.617751636184423 -7.7708128089644042 6.4317483042347243 0.50000000669873634 0 -0.8660253999169214 0.4330126999584607 0 0.25000000334936817 1 I I 0 1 0.5 forward I I I I #
face $-1 $125 $126 $30 $-1 $127 reversed single #
loop $-1 $-1 $128 $50 #
plane-surface $-1 0 0 -10.36029003869837 0 0 1 1 0 0 forward_v I I I I #
coedge $-1 $129 $130 $131 $132 forward $51 $-1 #
face $-1 $133 $134 $31 $-1 $135 reversed single #
loop $-1 $-1 $136 $53 #
plane-surface $-1 0 -12.766651720297634 8.7565271320151297 0 -1 0 0 0 -1 forward_v I I I I #
coedge $-1 $137 $138 $139 $140 reversed $54 $-1 #
face $-1 $141 $142 $32 $-1 $143 reversed single #
loop $-1 $-1 $144 $56 #
plane-surface $-1 0 13.244527093828587 -8.3174787373578045 0 1 0 0 0 1 forward_v I I I I #
coedge $-1 $145 $146 $147 $148 reversed $57 $-1 #
face $-1 $149 $150 $33 $-1 $151 reversed single #
loop $-1 $-1 $152 $59 #
plane-surface $-1 -1.3721915936221478 9.4817327730443601 79.133210397935756 0.85716730853699208 0 0.51503806187062418 0.51503806187062418 0 -0.85716730853699208 forward_v I I I I #
coedge $-1 $153 $154 $155 $156 reversed $60 $-1 #
face $-1 $-1 $157 $34 $-1 $158 forward single #
loop $-1 $159 $160 $62 #
cone-surface $-1 40.197522070664931 7.8691066355654016 4.083266217561853 -0.85716730853699208 0 -0.51503806187062418 0.25751903093531209 0 -0.42858365426849604 1 I I -0.70710678118654724 0.70710678118654791 0.5 forward I I I I #
loop $-1 $-1 $161 $44 #
coedge $-1 $100 $100 $162 $163 reversed $63 $-1 #
face $-1 $-1 $164 $35 $-1 $165 forward single #
loop $-1 $166 $167 $65 #
cone-surface $-1 40.197522070664931 11.094358910523308 4.083266217561853 -0.85716730853699208 0 -0.51503806187062418 0.25751903093531209 0 -0.42858365426849604 1 I I -0.70710678118654724 0.70710678118654791 0.5 forward I I I I #
loop $-1 $-1 $168 $45 #
coedge $-1 $105 $105 $169 $170 reversed $66 $-1 #
face $-1 $171 $172 $36 $-1 $173 forward single #
loop $-1 $-1 $174 $68 #
plane-surface $-1 -91.247902463719157 -6.521853081131094 82.90878997464047 0 -1 0 0.50000000669873634 0 -0.8660253999169214 forward_v I I I I #
coedge $-1 $175 $176 $177 $178 reversed $69 $-1 #
face $-1 $-1 $179 $37 $-1 $180 forward single #
loop $-1 $181 $182 $71 #
cone-surface $-1 -39.09363437704917 -11.517691992464329 5.5239505985049835 0.50000000669873634 0 -0.8660253999169214 0.21650634997923035 0 0.12500000167468409 1 I I -0.70710678118654746 0.70710678118654746 0.25 forward I I I I #
loop $-1 $-1 $183 $47 #
coedge $-1 $114 $114 $184 $185 reversed $72 $-1 #
face $-1 $-1 $186 $38 $-1 $187 forward single #
loop $-1 $188 $189 $74 #
cone-surface $-1 -39.09363437704917 -9.6442524007143664 5.5239505985049835 0.50000000669873634 0 -0.8660253999169214 0.21650634997923035 0 0.12500000167468409 1 I I -0.70710678118654746 0.70710678118654746 0.25 forward I I I I #
loop $-1 $-1 $190 $48 #
coedge $-1 $119 $119 $191 $192 reversed $75 $-1 #
face $-1 $-1 $193 $39 $-1 $194 forward single #
loop $-1 $195 $196 $77 #
cone-surface $-1 -39.09363437704917 -7.7708128089644042 5.5239505985049835 0.50000000669873634 0 -0.8660253999169214 0.21650634997923035 0 0.12500000167468409 1 I I -0.70710678118654746 0.70710678118654746 0.25 forward I I I I #
loop $-1 $-1 $197 $49 #
coedge $-1 $124 $124 $198 $199 reversed $78 $-1 #
face $-1 $200 $201 $30 $-1 $202 reversed single #
loop $-1 $-1 $203 $80 #
plane-surface $-1 0 -22.326872020548084 0 0 1 0 0 0 1 forward_v I I I I #
coedge $-1 $204 $205 $206 $207 forward $81 $-1 #
coedge $-1 $208 $83 $209 $210 forward $51 $-1 #
coedge $-1 $83 $208 $211 $212 forward $51 $-1 #
coedge $-1 $213 $214 $83 $132 reversed $215 $-1 #
edge $-1 $216 -22.326872020548084 $217 22.326872020548084 $131 $218 forward 7 unknown #
face $-1 $219 $220 $31 $-1 $221 reversed single #
loop $-1 $-1 $222 $84 #
plane-surface $-1 -45.623950926236759 0 0 1 0 0 0 0 -1 forward_v I I I I #
coedge $-1 $223 $224 $225 $226 reversed $85 $-1 #
coedge $-1 $227 $87 $228 $229 reversed $54 $-1 #
coedge $-1 $87 $227 $230 $231 forward $54 $-1 #
coedge $-1 $232 $233 $87 $140 forward $234 $-1 #
edge $-1 $235 -13.553491085336654 $236 -3.9932707850862048 $139 $237 forward 7 unknown #
face $-1 $238 $239 $32 $-1 $240 reversed single #
loop $-1 $-1 $147 $88 #
plane-surface $-1 45.623950926236759 0 0 -1 0 0 0 0 1 forward_v I I I I #
coedge $-1 $241 $242 $243 $244 reversed $89 $-1 #
coedge $-1 $245 $91 $246 $247 reversed $57 $-1 #
coedge $-1 $91 $245 $242 $248 forward $57 $-1 #
coedge $-1 $249 $250 $91 $148 forward $142 $-1 #
edge $-1 $251 -13.434022241953913 $252 -4.3516773152344204 $147 $253 forward 7 unknown #
face $-1 $254 $255 $33 $-1 $256 forward single #
loop $-1 $-1 $257 $92 #
plane-surface $-1 76.842526846910189 5.7189384522601294 126.12935291779465 0 1 0 0.85716730853699208 0 0.51503806187062418 forward_v I I I I #
coedge $-1 $258 $259 $260 $261 reversed $93 $-1 #
coedge $-1 $154 $95 $262 $263 reversed $60 $-1 #
coedge $-1 $95 $153 $258 $264 reversed $60 $-1 #
coedge $-1 $260 $265 $95 $156 forward $255 $-1 #
edge $-1 $266 -7.2026875027816644 $267 -1.5294830584079335 $155 $268 forward 7 unknown #
loop $-1 $-1 $162 $96 #
plane-surface $-1 -1.3721915936221478 9.4817327730443601 79.133210397935756 0.85716730853699208 0 0.51503806187062418 0.51503806187062418 0 -0.85716730853699208 forward_v I I I I #
loop $-1 $-1 $269 $62 #
coedge $-1 $160 $160 $161 $270 reversed $97 $-1 #
coedge $-1 $161 $161 $160 $270 forward $99 $-1 #
coedge $-1 $162 $162 $100 $163 forward $157 $-1 #
edge $-1 $271 0 $271 6.2831853071796004 $162 $272 forward 7 unknown #
loop $-1 $-1 $169 $101 #
plane-surface $-1 -1.3721915936221478 9.4817327730443601 79.133210397935756 0.85716730853699208 0 0.51503806187062418 0.51503806187062418 0 -0.85716730853699208 forward_v I I I I #
loop $-1 $-1 $273 $65 #
coedge $-1 $167 $167 $168 $274 reversed $102 $-1 #
coedge $-1 $168 $168 $167 $274 forward $104 $-1 #
coedge $-1 $169 $169 $105 $170 forward $164 $-1 #
edge $-1 $275 0 $275 6.2831853071796004 $169 $276 forward 7 unknown #
face $-1 $277 $278 $36 $-1 $279 forward single #
loop $-1 $-1 $280 $106 #
plane-surface $-1 0 -12.766651720297634 8.7565271320151297 0 -1 0 0 0 -1 forward_v I I I I #
coedge $-1 $281 $282 $283 $284 reversed $107 $-1 #
coedge $-1 $285 $109 $280 $286 reversed $69 $-1 #
coedge $-1 $109 $285 $281 $287 forward $69 $-1 #
coedge $-1 $283 $288 $109 $178 forward $278 $-1 #
edge $-1 $289 -7.9445255199404521 $290 -1.6997268807739117 $177 $291 forward 7 unknown #
loop $-1 $-1 $184 $110 #
plane-surface $-1 -45.623950926236759 -9.6442524007143646 3.8857892812720962 -0.50000000669873634 0 0.8660253999169214 0.8660253999169214 0 0.50000000669873634 forward_v I I I I #
loop $-1 $-1 $292 $71 #
coedge $-1 $182 $182 $183 $293 reversed $111 $-1 #
coedge $-1 $183 $183 $182 $293 forward $113 $-1 #
coedge $-1 $184 $184 $114 $185 forward $179 $-1 #
edge $-1 $294 0 $294 6.2831853071796004 $184 $295 forward 7 unknown #
loop $-1 $-1 $191 $115 #
plane-surface $-1 -45.623950926236759 -9.6442524007143646 3.8857892812720962 -0.50000000669873634 0 0.8660253999169214 0.8660253999169214 0 0.50000000669873634 forward_v I I I I #
loop $-1 $-1 $296 $74 #
coedge $-1 $189 $189 $190 $297 reversed $116 $-1 #
coedge $-1 $190 $190 $189 $297 forward $118 $-1 #
coedge $-1 $191 $191 $119 $192 forward $186 $-1 #
edge $-1 $298 0 $298 6.2831853071796004 $191 $299 forward 7 unknown #
loop $-1 $-1 $198 $120 #
plane-surface $-1 -45.623950926236759 -9.6442524007143646 3.8857892812720962 -0.50000000669873634 0 0.8660253999169214 0.8660253999169214 0 0.50000000669873634 forward_v I I I I #
loop $-1 $-1 $300 $77 #
coedge $-1 $196 $196 $197 $301 reversed $121 $-1 #
coedge $-1 $197 $197 $196 $301 forward $123 $-1 #
coedge $-1 $198 $198 $124 $199 forward $193 $-1 #
edge $-1 $302 0 $302 6.2831853071796004 $198 $303 forward 7 unknown #
face $-1 $304 $305 $30 $-1 $306 reversed single #
loop $-1 $-1 $307 $125 #
plane-surface $-1 -45.623950926236759 0 0 1 0 0 0 0 -1 forward_v I I I I #
coedge $-1 $308 $211 $309 $310 forward $126 $-1 #
coedge $-1 $311 $128 $308 $312 forward $81 $-1 #
coedge $-1 $128 $311 $313 $314 forward $81 $-1 #
coedge $-1 $214 $213 $128 $207 reversed $215 $-1 #
edge $-1 $315 -22.326872020548084 $316 22.326872020548084 $206 $317 forward 7 unknown #
coedge $-1 $130 $129 $318 $319 forward $51 $-1 #
coedge $-1 $320 $321 $129 $210 reversed $305 $-1 #
edge $-1 $217 -45.623950926236759 $322 45.623950926236759 $209 $323 forward 7 unknown #
coedge $-1 $203 $324 $130 $212 reversed $126 $-1 #
edge $-1 $325 -45.623950926236759 $216 45.623950926236759 $211 $326 forward 7 unknown #
coedge $-1 $206 $131 $324 $327 forward $215 $-1 #
coedge $-1 $131 $206 $320 $328 reversed $215 $-1 #
loop $-1 $-1 $213 $304 #
vertex $-1 $132 $329 #
vertex $-1 $132 $330 #
straight-curve $-1 45.623950926236759 0 10.36029003869837 0 1 0 I I #
face $-1 $331 $332 $31 $-1 $333 forward single #
loop $-1 $-1 $228 $133 #
plane-surface $-1 0 -22.326872020548084 0 0 1 0 0 0 1 forward_v I I I I #
coedge $-1 $334 $335 $224 $336 forward $134 $-1 #
coedge $-1 $230 $136 $232 $337 reversed $85 $-1 #
coedge $-1 $136 $230 $222 $336 reversed $85 $-1 #
coedge $-1 $338 $339 $136 $226 forward $332 $-1 #
edge $-1 $340 -45.623950926236759 $341 45.623950926236759 $225 $342 forward 7 unknown #
coedge $-1 $138 $137 $334 $343 reversed $54 $-1 #
coedge $-1 $344 $345 $137 $229 forward $220 $-1 #
edge $-1 $346 -45.623950926236759 $235 45.623950926236759 $228 $347 forward 7 unknown #
coedge $-1 $224 $223 $138 $231 reversed $85 $-1 #
edge $-1 $348 -45.623950926236759 $236 45.623950926236759 $230 $349 forward 7 unknown #
coedge $-1 $350 $139 $223 $337 forward $234 $-1 #
coedge $-1 $139 $350 $344 $351 forward $234 $-1 #
loop $-1 $-1 $232 $331 #
vertex $-1 $229 $352 #
vertex $-1 $140 $353 #
straight-curve $-1 45.623950926236759 -8.7733809352114296 7.1527642253318895 0 1 0 I I #
face $-1 $354 $355 $32 $-1 $356 reversed single #
loop $-1 $-1 $357 $141 #
plane-surface $-1 0 0 -10.36029003869837 0 0 1 1 0 0 forward_v I I I I #
coedge $-1 $358 $144 $357 $359 reversed $89 $-1 #
coedge $-1 $144 $358 $146 $248 reversed $89 $-1 #
coedge $-1 $360 $361 $144 $244 forward $355 $-1 #
edge $-1 $362 -6.2015506700194676 $363 -2.1159280673383369 $243 $364 forward 7 unknown #
coedge $-1 $146 $145 $360 $365 reversed $57 $-1 #
coedge $-1 $366 $367 $145 $247 forward $368 $-1 #
edge $-1 $369 -45.623950926236759 $251 45.623950926236759 $246 $370 forward 7 unknown #
edge $-1 $363 -45.623950926236759 $252 45.623950926236759 $242 $371 forward 7 unknown #
coedge $-1 $372 $147 $358 $373 forward $142 $-1 #
coedge $-1 $147 $372 $366 $374 reversed $142 $-1 #
vertex $-1 $374 $375 #
vertex $-1 $148 $376 #
straight-curve $-1 45.623950926236759 8.8928497785941669 -6.2746674360172392 0 -1 0 I I #
face $-1 $-1 $377 $33 $-1 $378 reversed single #
loop $-1 $-1 $155 $149 #
plane-surface $-1 0 0 10.36029003869837 0 0 1 1 0 0 forward_v I I I I #
coedge $-1 $379 $380 $381 $382 reversed $150 $-1 #
coedge $-1 $383 $152 $154 $264 forward $93 $-1 #
coedge $-1 $152 $383 $379 $384 forward $93 $-1 #
coedge $-1 $381 $155 $152 $261 forward $255 $-1 #
edge $-1 $267 -8.5036607073064108 $385 -0.97807206573794936 $260 $386 forward 7 unknown #
coedge $-1 $387 $388 $153 $263 forward $377 $-1 #
edge $-1 $389 -62.14618450149392 $266 -52.704386420198958 $262 $390 forward 7 unknown #
edge $-1 $267 80.232784981754151 $389 91.247901852473547 $154 $391 forward 7 unknown #
coedge $-1 $155 $381 $387 $392 forward $255 $-1 #
vertex $-1 $263 $393 #
vertex $-1 $156 $394 #
straight-curve $-1 38.421263423455095 13.244527093828591 10.360290038698366 -1 0 0 I I #
coedge $-1 $269 $269 $-1 $395 reversed $159 $-1 #
edge $-1 $396 0 $396 6.2831853071796004 $160 $397 forward 7 unknown #
vertex $-1 $163 $398 #
ellipse-curve $-1 42.787348704049883 7.8691066355654016 5.6393909980508967 0.85716730853699208 0 0.51503806187062418 0.51503806187062418 0 -0.85716730853699208 1 I I #
coedge $-1 $273 $273 $-1 $399 reversed $166 $-1 #
edge $-1 $400 0 $400 6.2831853071796004 $167 $401 forward 7 unknown #
vertex $-1 $170 $402 #
ellipse-curve $-1 42.787348704049883 11.094358910523308 5.6393909980508967 0.85716730853699208 0 0.51503806187062418 0.51503806187062418 0 -0.85716730853699208 1 I I #
face $-1 $-1 $403 $36 $-1 $404 reversed single #
loop $-1 $-1 $177 $171 #
plane-surface $-1 0 0 10.36029003869837 0 0 1 1 0 0 forward_v I I I I #
coedge $-1 $405 $406 $175 $286 forward $172 $-1 #
coedge $-1 $282 $174 $176 $287 reversed $107 $-1 #
coedge $-1 $174 $281 $407 $408 reversed $107 $-1 #
coedge $-1 $409 $177 $174 $284 forward $278 $-1 #
edge $-1 $290 -11.214164370806358 $410 -3.0562281949642056e-007 $283 $411 forward 7 unknown #
coedge $-1 $176 $175 $412 $413 reversed $69 $-1 #
edge $-1 $414 -20.973434652341744 $289 -8.024433310973091 $280 $415 forward 7 unknown #
edge $-1 $416 0 $290 12.949001341368653 $281 $417 forward 7 unknown #
coedge $-1 $177 $409 $405 $418 forward $278 $-1 #
vertex $-1 $178 $419 #
vertex $-1 $178 $420 #
straight-curve $-1 -34.409786861053213 -4.8221262003571823 10.36029003869837 0 1 0 I I #
coedge $-1 $292 $292 $-1 $421 reversed $181 $-1 #
edge $-1 $422 0 $422 6.2831853071796004 $182 $423 forward 7 unknown #
vertex $-1 $185 $424 #
ellipse-curve $-1 -40.01686889364499 -11.517691992464329 7.1230396599852321 -0.50000000669873634 0 0.8660253999169214 0.4330126999584607 0 0.25000000334936817 1 I I #
coedge $-1 $296 $296 $-1 $425 reversed $188 $-1 #
edge $-1 $426 0 $426 6.2831853071796004 $189 $427 forward 7 unknown #
vertex $-1 $192 $428 #
ellipse-curve $-1 -40.01686889364499 -9.6442524007143664 7.1230396599852321 -0.50000000669873634 0 0.8660253999169214 0.4330126999584607 0 0.25000000334936817 1 I I #
coedge $-1 $300 $300 $-1 $429 reversed $195 $-1 #
edge $-1 $430 0 $430 6.2831853071796004 $196 $431 forward 7 unknown #
vertex $-1 $199 $432 #
ellipse-curve $-1 -40.01686889364499 -7.7708128089644042 7.1230396599852321 -0.50000000669873634 0 0.8660253999169214 0.4330126999584607 0 0.25000000334936817 1 I I #
face $-1 $-1 $215 $30 $-1 $433 reversed single #
loop $-1 $-1 $320 $200 #
plane-surface $-1 0 22.326872020548084 0 0 -1 0 0 0 -1 forward_v I I I I #
coedge $-1 $434 $318 $321 $435 forward $201 $-1 #
coedge $-1 $324 $203 $204 $312 reversed $126 $-1 #
coedge $-1 $318 $434 $203 $310 reversed $201 $-1 #
edge $-1 $325 -10.36029003869837 $436 10.36029003869837 $309 $437 forward 7 unknown #
coedge $-1 $205 $204 $434 $438 forward $81 $-1 #
edge $-1 $316 -45.623950926236759 $436 45.623950926236759 $308 $439 forward 7 unknown #
coedge $-1 $321 $320 $205 $314 reversed $305 $-1 #
edge $-1 $440 -45.623950926236759 $315 45.623950926236759 $313 $441 forward 7 unknown #
vertex $-1 $207 $442 #
vertex $-1 $327 $443 #
straight-curve $-1 45.623950926236759 0 -10.36029003869837 0 -1 0 I I #
coedge $-1 $307 $309 $208 $319 reversed $201 $-1 #
edge $-1 $322 -22.326872020548084 $325 22.326872020548084 $318 $444 forward 7 unknown #
coedge $-1 $313 $209 $214 $328 forward $305 $-1 #
coedge $-1 $209 $313 $307 $435 reversed $305 $-1 #
vertex $-1 $210 $445 #
straight-curve $-1 0 22.326872020548084 10.36029003869837 -1 0 0 I I #
coedge $-1 $211 $308 $213 $327 reversed $126 $-1 #
vertex $-1 $319 $446 #
straight-curve $-1 0 -22.326872020548084 10.36029003869837 1 0 0 I I #
edge $-1 $216 -10.36029003869837 $316 10.36029003869837 $213 $447 forward 7 unknown #
edge $-1 $217 -10.36029003869837 $315 10.36029003869837 $214 $448 forward 7 unknown #
point $-1 45.623950926236759 -22.326872020548084 10.36029003869837 #
point $-1 45.623950926236759 22.326872020548084 10.36029003869837 #
face $-1 $-1 $234 $31 $-1 $449 reversed single #
loop $-1 $-1 $225 $219 #
plane-surface $-1 0 0 10.36029003869837 0 0 1 1 0 0 forward_v I I I I #
coedge $-1 $450 $222 $227 $343 forward $134 $-1 #
coedge $-1 $222 $450 $338 $451 reversed $134 $-1 #
edge $-1 $341 -5.982026472690805 $348 -2.7745006593243247 $222 $452 forward 7 unknown #
edge $-1 $236 2.7745006593243247 $340 5.982026472690805 $232 $453 forward 7 unknown #
coedge $-1 $454 $225 $335 $451 forward $332 $-1 #
coedge $-1 $225 $454 $350 $455 forward $332 $-1 #
vertex $-1 $337 $456 #
vertex $-1 $451 $457 #
straight-curve $-1 0 -12.766651720297634 10.36029003869837 -1 0 0 I I #
edge $-1 $348 3.9932707850862048 $346 13.553491085336654 $334 $458 forward 7 unknown #
coedge $-1 $459 $228 $233 $351 reversed $220 $-1 #
coedge $-1 $228 $459 $450 $460 forward $220 $-1 #
vertex $-1 $229 $461 #
straight-curve $-1 0 -22.326872020548084 7.1527642253318895 1 0 0 I I #
vertex $-1 $343 $462 #
straight-curve $-1 0 -12.766651720297634 7.1527642253318895 1 0 0 I I #
coedge $-1 $233 $232 $339 $455 reversed $234 $-1 #
edge $-1 $463 -10.36029003869837 $235 -7.1527642253318895 $233 $464 forward 7 unknown #
point $-1 45.623950926236759 -22.326872020548084 7.1527642253318895 #
point $-1 45.623950926236759 -12.766651720297634 7.1527642253318895 #
face $-1 $-1 $368 $32 $-1 $465 reversed single #
loop $-1 $-1 $360 $238 #
plane-surface $-1 -45.623950926236759 0 0 1 0 0 0 0 -1 forward_v I I I I #
coedge $-1 $466 $467 $241 $359 forward $239 $-1 #
coedge $-1 $242 $241 $249 $373 reversed $89 $-1 #
edge $-1 $468 -45.623950926236759 $362 45.623950926236759 $357 $469 forward 7 unknown #
coedge $-1 $470 $243 $245 $365 forward $355 $-1 #
coedge $-1 $243 $470 $466 $471 reversed $355 $-1 #
vertex $-1 $471 $472 #
vertex $-1 $365 $473 #
straight-curve $-1 -45.623950926236759 13.244527093828587 -4.1587393686789023 0 0 1 I I #
edge $-1 $363 4.3516773152344204 $369 13.434022241953913 $360 $474 forward 7 unknown #
coedge $-1 $475 $246 $250 $374 forward $368 $-1 #
coedge $-1 $246 $475 $470 $476 reversed $368 $-1 #
loop $-1 $-1 $246 $354 #
vertex $-1 $476 $477 #
straight-curve $-1 0 22.326872020548084 -6.2746674360172392 1 0 0 I I #
straight-curve $-1 0 13.244527093828587 -6.2746674360172392 1 0 0 I I #
coedge $-1 $250 $249 $467 $478 reversed $142 $-1 #
edge $-1 $252 2.1159280673383369 $468 6.2015506700194676 $249 $479 forward 7 unknown #
edge $-1 $251 6.2746674360172392 $480 10.36029003869837 $250 $481 forward 7 unknown #
point $-1 45.623950926236759 22.32687202054808 -6.2746674360172392 #
point $-1 45.623950926236759 13.244527093828587 -6.2746674360172392 #
loop $-1 $-1 $262 $254 #
plane-surface $-1 45.623950926236759 0 0 -1 0 0 0 0 1 forward_v I I I I #
coedge $-1 $380 $257 $259 $384 reversed $150 $-1 #
coedge $-1 $257 $379 $482 $483 reversed $150 $-1 #
coedge $-1 $265 $260 $257 $382 forward $255 $-1 #
edge $-1 $385 1.5294830584079335 $484 7.2026875027816644 $381 $485 forward 7 unknown #
coedge $-1 $259 $258 $388 $486 reversed $93 $-1 #
edge $-1 $487 -91.247901852473547 $385 -80.232784981754151 $379 $488 forward 7 unknown #
vertex $-1 $261 $489 #
straight-curve $-1 39.950746481863014 4.7408663865221801 10.360290038698373 0 -1 0 I I #
coedge $-1 $482 $262 $265 $392 reversed $377 $-1 #
coedge $-1 $262 $482 $383 $486 forward $377 $-1 #
vertex $-1 $263 $490 #
straight-curve $-1 45.623950926236759 13.244527093828591 63.064676458897324 0 0 1 I I #
straight-curve $-1 -1.3721915936221478 13.244527093828591 79.133210397935756 0.51503806187062418 0 -0.85716730853699208 I I #
edge $-1 $484 5.7189384522601294 $266 13.244527093828591 $387 $491 forward 7 unknown #
point $-1 45.623950926236759 13.244527093828591 10.36029003869837 #
point $-1 39.950746481863028 13.244527093828591 10.360290038698366 #
edge $-1 $492 1 $492 0 $269 $-1 forward 7 unknown #
vertex $-1 $270 $493 #
ellipse-curve $-1 40.626105724933424 7.8691066355654016 4.3407852484971654 0.85716730853699208 0 0.51503806187062418 0.51503806187062418 0 -0.85716730853699208 1 I I #
point $-1 43.302386765920517 7.8691066355654016 4.7822236895139074 #
edge $-1 $494 1 $494 0 $273 $-1 forward 7 unknown #
vertex $-1 $274 $495 #
ellipse-curve $-1 40.626105724933424 11.094358910523308 4.3407852484971654 0.85716730853699208 0 0.51503806187062418 0.51503806187062418 0 -0.85716730853699208 1 I I #
point $-1 43.302386765920517 11.094358910523308 4.7822236895139074 #
loop $-1 $-1 $496 $277 #
plane-surface $-1 -45.623950926236759 0 0 1 0 0 0 0 -1 forward_v I I I I #
coedge $-1 $406 $280 $288 $418 reversed $172 $-1 #
coedge $-1 $280 $405 $496 $497 reversed $172 $-1 #
coedge $-1 $412 $498 $282 $408 forward $403 $-1 #
edge $-1 $410 31.094104948621865 $416 37.568605706048139 $407 $499 forward 7 unknown #
coedge $-1 $288 $283 $498 $500 forward $278 $-1 #
vertex $-1 $500 $501 #
straight-curve $-1 -45.623951231859579 -6.521853081131094 10.360290038698373 -1 0 0 I I #
coedge $-1 $496 $407 $285 $413 forward $403 $-1 #
edge $-1 $416 1.6997268807739117 $414 7.9445255199404521 $412 $502 forward 7 unknown #
vertex $-1 $497 $503 #
straight-curve $-1 -27.460423793811081 -12.766651720297634 14.372506747938477 0.8660253999169214 0 0.50000000669873634 I I #
vertex $-1 $413 $504 #
straight-curve $-1 -45.623950926236759 -6.521853081131094 3.8857892812720962 0.8660253999169214 0 0.50000000669873634 I I #
edge $-1 $505 -45.623950926236759 $289 -34.40978686105322 $288 $506 forward 7 unknown #
point $-1 -34.40978686105322 -12.766651720297634 10.36029003869837 #
point $-1 -34.40978686105322 -6.521853081131094 10.36029003869837 #
edge $-1 $507 1 $507 0 $292 $-1 forward 7 unknown #
vertex $-1 $293 $508 #
ellipse-curve $-1 -39.218634378723856 -11.517691992464329 5.7404569484842138 -0.50000000669873634 0 0.8660253999169214 0.4330126999584607 0 0.25000000334936817 1 I I #
point $-1 -39.583856193686529 -11.517691992464329 7.3730396633346036 #
edge $-1 $509 1 $509 0 $296 $-1 forward 7 unknown #
vertex $-1 $297 $510 #
ellipse-curve $-1 -39.218634378723856 -9.6442524007143664 5.7404569484842138 -0.50000000669873634 0 0.8660253999169214 0.4330126999584607 0 0.25000000334936817 1 I I #
point $-1 -39.583856193686529 -9.6442524007143664 7.3730396633346036 #
edge $-1 $511 1 $511 0 $300 $-1 forward 7 unknown #
vertex $-1 $301 $512 #
ellipse-curve $-1 -39.218634378723856 -7.7708128089644042 5.7404569484842138 -0.50000000669873634 0 0.8660253999169214 0.4330126999584607 0 0.25000000334936817 1 I I #
point $-1 -39.583856193686529 -7.7708128089644042 7.3730396633346036 #
plane-surface $-1 45.623950926236759 0 0 -1 0 0 0 0 1 forward_v I I I I #
coedge $-1 $309 $307 $311 $438 reversed $201 $-1 #
edge $-1 $322 -10.36029003869837 $440 10.36029003869837 $321 $513 forward 7 unknown #
vertex $-1 $438 $514 #
straight-curve $-1 -45.623950926236759 -22.326872020548084 0 0 0 -1 I I #
edge $-1 $436 -22.326872020548084 $440 22.326872020548084 $434 $515 forward 7 unknown #
straight-curve $-1 0 -22.326872020548084 -10.36029003869837 -1 0 0 I I #
vertex $-1 $314 $516 #
straight-curve $-1 0 22.326872020548084 -10.36029003869837 1 0 0 I I #
point $-1 45.623950926236759 22.326872020548084 -10.36029003869837 #
point $-1 45.623950926236759 -22.326872020548084 -10.36029003869837 #
straight-curve $-1 -45.623950926236759 0 10.36029003869837 0 -1 0 I I #
point $-1 -45.623950926236759 22.326872020548084 10.36029003869837 #
point $-1 -45.623950926236759 -22.326872020548084 10.36029003869837 #
straight-curve $-1 45.623950926236759 -22.326872020548084 0 0 0 -1 I I #
straight-curve $-1 45.623950926236759 22.326872020548084 0 0 0 -1 I I #
plane-surface $-1 45.623950926236759 0 0 -1 0 0 0 0 1 forward_v I I I I #
coedge $-1 $335 $334 $345 $460 reversed $134 $-1 #
edge $-1 $341 12.766651720297634 $517 22.326872020548084 $335 $518 forward 7 unknown #
straight-curve $-1 -45.623950926236759 -12.766651720297634 4.3782635660075648 0 0 -1 I I #
straight-curve $-1 45.623950926236759 -12.766651720297634 4.3782635660075648 0 0 1 I I #
coedge $-1 $339 $338 $459 $519 forward $332 $-1 #
edge $-1 $463 -22.326872020548084 $340 -12.766651720297634 $350 $520 forward 7 unknown #
point $-1 45.623950926236759 -12.766651720297634 10.36029003869837 #
point $-1 -45.623950926236759 -12.766651720297634 10.36029003869837 #
straight-curve $-1 -45.623950926236759 -8.7733809352114296 7.1527642253318895 0 -1 0 I I #
coedge $-1 $345 $344 $454 $519 reversed $220 $-1 #
edge $-1 $517 -10.36029003869837 $346 -7.1527642253318895 $450 $521 forward 7 unknown #
point $-1 -45.623950926236759 -22.326872020548084 7.1527642253318895 #
point $-1 -45.623950926236759 -12.766651720297634 7.1527642253318895 #
vertex $-1 $455 $522 #
straight-curve $-1 45.623950926236759 -22.326872020548084 0 0 0 -1 I I #
plane-surface $-1 0 22.326872020548084 0 0 -1 0 0 0 -1 forward_v I I I I #
coedge $-1 $523 $357 $361 $471 forward $239 $-1 #
coedge $-1 $357 $523 $372 $478 forward $239 $-1 #
vertex $-1 $359 $524 #
straight-curve $-1 0 13.244527093828587 -10.36029003869837 -1 0 0 I I #
coedge $-1 $361 $360 $367 $476 forward $355 $-1 #
edge $-1 $362 13.244527093828587 $525 22.326872020548084 $361 $526 forward 7 unknown #
point $-1 -45.623950926236759 13.244527093828587 -10.36029003869837 #
point $-1 -45.623950926236759 13.244527093828587 -6.2746674360172392 #
straight-curve $-1 -45.623950926236759 8.8928497785941669 -6.2746674360172392 0 1 0 I I #
coedge $-1 $367 $366 $523 $527 reversed $368 $-1 #
edge $-1 $369 6.2746674360172392 $525 10.36029003869837 $367 $528 forward 7 unknown #
point $-1 -45.623950926236759 22.32687202054808 -6.2746674360172392 #
edge $-1 $480 -22.326872020548084 $468 -13.244527093828587 $372 $529 forward 7 unknown #
straight-curve $-1 45.623950926236759 13.244527093828587 -4.1587393686789023 0 0 -1 I I #
vertex $-1 $478 $530 #
straight-curve $-1 45.623950926236759 22.326872020548084 0 0 0 -1 I I #
coedge $-1 $388 $387 $380 $483 forward $377 $-1 #
edge $-1 $484 52.704386420198958 $487 62.14618450149392 $482 $531 forward 7 unknown #
vertex $-1 $392 $532 #
straight-curve $-1 38.421263423455095 5.7189384522601294 10.360290038698366 1 0 0 I I #
edge $-1 $487 0.97807206573794936 $389 8.5036607073064108 $388 $533 forward 7 unknown #
vertex $-1 $486 $534 #
straight-curve $-1 -1.3721915936221478 5.7189384522601294 79.133210397935756 -0.51503806187062418 0 0.85716730853699208 I I #
point $-1 39.950746481863028 5.7189384522601294 10.360290038698366 #
point $-1 45.623950926236759 13.244527093828591 0.91849195740340406 #
straight-curve $-1 45.623950926236759 0 10.36029003869837 0 1 0 I I #
vertex $-1 $395 $535 #
point $-1 41.141143786804051 7.8691066355654016 3.4836179399601734 #
vertex $-1 $399 $536 #
point $-1 41.141143786804051 11.094358910523308 3.4836179399601734 #
coedge $-1 $498 $412 $406 $497 forward $403 $-1 #
edge $-1 $414 -37.568605706048139 $505 -31.094104948621865 $496 $537 forward 7 unknown #
coedge $-1 $407 $496 $409 $500 reversed $403 $-1 #
straight-curve $-1 -45.623950926236759 -6.521853081131094 41.454394987320235 0 0 -1 I I #
edge $-1 $410 6.521853081131094 $505 12.766651720297634 $498 $538 forward 7 unknown #
point $-1 -45.623950926236759 -6.521853081131094 10.36029003869837 #
straight-curve $-1 -45.623950926236759 -4.8221262003571823 3.8857892812720962 0 -1 0 I I #
point $-1 -45.623950926236759 -12.766651720297634 3.8857892812720962 #
point $-1 -45.623950926236759 -6.521853081131094 3.8857892812720962 #
vertex $-1 $497 $539 #
straight-curve $-1 0 -12.766651720297634 10.36029003869837 1 0 0 I I #
vertex $-1 $421 $540 #
point $-1 -38.785621678765395 -11.517691992464329 5.9904569518335817 #
vertex $-1 $425 $541 #
point $-1 -38.785621678765395 -9.6442524007143664 5.9904569518335817 #
vertex $-1 $429 $542 #
point $-1 -38.785621678765395 -7.7708128089644042 5.9904569518335817 #
straight-curve $-1 -45.623950926236759 22.326872020548084 0 0 0 -1 I I #
point $-1 -45.623950926236759 -22.326872020548084 -10.36029003869837 #
straight-curve $-1 -45.623950926236759 0 -10.36029003869837 0 1 0 I I #
point $-1 -45.623950926236759 22.326872020548084 -10.36029003869837 #
vertex $-1 $451 $543 #
straight-curve $-1 -45.623950926236759 0 10.36029003869837 0 -1 0 I I #
edge $-1 $517 -45.623950926236759 $463 45.623950926236759 $459 $544 forward 7 unknown #
straight-curve $-1 45.623950926236759 0 10.36029003869837 0 1 0 I I #
straight-curve $-1 -45.623950926236759 -22.326872020548084 0 0 0 -1 I I #
point $-1 45.623950926236759 -22.326872020548084 10.36029003869837 #
coedge $-1 $467 $466 $475 $527 forward $239 $-1 #
point $-1 45.623950926236759 13.244527093828587 -10.36029003869837 #
vertex $-1 $527 $545 #
straight-curve $-1 -45.623950926236759 0 -10.36029003869837 0 1 0 I I #
edge $-1 $525 -45.623950926236759 $480 45.623950926236759 $475 $546 forward 7 unknown #
straight-curve $-1 -45.623950926236759 22.326872020548084 0 0 0 -1 I I #
straight-curve $-1 45.623950926236759 0 -10.36029003869837 0 -1 0 I I #
point $-1 45.623950926236759 22.326872020548084 -10.36029003869837 #
straight-curve $-1 45.623950926236759 5.7189384522601294 63.064676458897324 0 0 -1 I I #
point $-1 45.623950926236759 5.7189384522601294 10.36029003869837 #
straight-curve $-1 45.623950926236759 4.7408663865221801 0.91849195740341827 0 1 0 I I #
point $-1 45.623950926236759 5.7189384522601294 0.91849195740340406 #
point $-1 39.768938416396438 7.8691066355654016 3.8257471866265407 #
point $-1 39.768938416396438 11.094358910523308 3.8257471866265407 #
straight-curve $-1 -45.623950926236759 -12.766651720297634 41.454394987320235 0 0 1 I I #
straight-curve $-1 -45.623950926236759 0 10.36029003869837 0 -1 0 I I #
point $-1 -45.623950926236759 -12.766651720297634 10.36029003869837 #
point $-1 -38.968634375374485 -11.517691992464329 5.3074442485257531 #
point $-1 -38.968634375374485 -9.6442524007143664 5.3074442485257531 #
point $-1 -38.968634375374485 -7.7708128089644042 5.3074442485257531 #
point $-1 -45.623950926236759 -22.326872020548084 10.36029003869837 #
straight-curve $-1 0 -22.326872020548084 10.36029003869837 1 0 0 I I #
point $-1 -45.623950926236759 22.326872020548084 -10.36029003869837 #
straight-curve $-1 0 22.326872020548084 -10.36029003869837 1 0 0 I I #
End-of-ACIS-data 