500 0 14 0           
7 Unknown 11 ACIS 5.0 NT 24 Fri Mar 26 03:25:06 1999 
-1 9.9999999999999995e-007 1e-010 
body $-1 $14 $-1 $15 #
body $-1 $16 $-1 $17 #
body $-1 $18 $-1 $19 #
body $-1 $20 $-1 $21 #
body $-1 $22 $-1 $23 #
body $-1 $24 $-1 $25 #
body $-1 $26 $-1 $27 #
body $-1 $28 $-1 $29 #
body $-1 $30 $-1 $31 #
body $-1 $32 $-1 $33 #
body $-1 $34 $-1 $35 #
body $-1 $36 $-1 $37 #
body $-1 $38 $-1 $39 #
body $-1 $40 $-1 $41 #
lump $-1 $-1 $42 $0 #
transform $-1 1 0 0 0 1 0 0 0 1 55.779290139469587 37.503218577643374 14.905260329440958 1 rotate no_reflect no_shear #
lump $-1 $-1 $43 $1 #
transform $-1 1 0 0 0 1 0 0 0 1 55.779290139469587 37.503218577643374 14.905260329440958 1 rotate no_reflect no_shear #
lump $-1 $-1 $44 $2 #
transform $-1 1 0 0 0 1 0 0 0 1 55.779290139469587 37.503218577643374 14.905260329440958 1 rotate no_reflect no_shear #
lump $-1 $-1 $45 $3 #
transform $-1 1 0 0 0 1 0 0 0 1 55.779290139469587 37.503218577643374 14.905260329440958 1 rotate no_reflect no_shear #
lump $-1 $-1 $46 $4 #
transform $-1 1 0 0 0 1 0 0 0 1 55.779290139469587 37.503218577643374 14.905260329440958 1 rotate no_reflect no_shear #
lump $-1 $-1 $47 $5 #
transform $-1 1 0 0 0 1 0 0 0 1 55.779290139469587 37.503218577643374 14.905260329440958 1 rotate no_reflect no_shear #
lump $-1 $-1 $48 $6 #
transform $-1 1 0 0 0 1 0 0 0 1 55.779290139469587 37.503218577643374 14.905260329440958 1 rotate no_reflect no_shear #
lump $-1 $-1 $49 $7 #
transform $-1 1 0 0 0 1 0 0 0 1 55.779290139469587 37.503218577643374 14.905260329440958 1 rotate no_reflect no_shear #
lump $-1 $-1 $50 $8 #
transform $-1 1 0 0 0 1 0 0 0 1 55.779290139469587 37.503218577643374 14.905260329440958 1 rotate no_reflect no_shear #
lump $-1 $-1 $51 $9 #
transform $-1 1 0 0 0 1 0 0 0 1 55.779290139469587 37.503218577643374 14.905260329440958 1 rotate no_reflect no_shear #
lump $-1 $-1 $52 $10 #
transform $-1 1 0 0 0 1 0 0 0 1 55.779290139469587 37.503218577643374 14.905260329440958 1 rotate no_reflect no_shear #
lump $-1 $-1 $53 $11 #
transform $-1 1 0 0 0 1 0 0 0 1 55.779290139469587 37.503218577643374 14.905260329440958 1 rotate no_reflect no_shear #
lump $-1 $-1 $54 $12 #
transform $-1 1 0 0 0 1 0 0 0 1 55.779290139469587 37.503218577643374 14.905260329440958 1 rotate no_reflect no_shear #
lump $-1 $-1 $55 $13 #
transform $-1 1 0 0 0 1 0 0 0 1 55.779290139469587 37.503218577643374 14.905260329440958 1 rotate no_reflect no_shear #
shell $-1 $-1 $-1 $56 $-1 $14 #
shell $-1 $-1 $-1 $57 $-1 $16 #
shell $-1 $-1 $-1 $58 $-1 $18 #
shell $-1 $-1 $-1 $59 $-1 $20 #
shell $-1 $-1 $-1 $60 $-1 $22 #
shell $-1 $-1 $-1 $61 $-1 $24 #
shell $-1 $-1 $-1 $62 $-1 $26 #
shell $-1 $-1 $-1 $63 $-1 $28 #
shell $-1 $-1 $-1 $64 $-1 $30 #
shell $-1 $-1 $-1 $65 $-1 $32 #
shell $-1 $-1 $-1 $66 $-1 $34 #
shell $-1 $-1 $-1 $67 $-1 $36 #
shell $-1 $-1 $-1 $68 $-1 $38 #
shell $-1 $-1 $-1 $69 $-1 $40 #
face $-1 $70 $71 $42 $-1 $72 forward single #
face $-1 $73 $74 $43 $-1 $75 reversed single #
face $-1 $76 $77 $44 $-1 $78 reversed single #
face $-1 $79 $80 $45 $-1 $81 forward single #
face $-1 $82 $83 $46 $-1 $84 forward single #
face $-1 $85 $86 $47 $-1 $87 reversed single #
face $-1 $88 $89 $48 $-1 $90 forward single #
face $-1 $91 $92 $49 $-1 $93 forward single #
face $-1 $94 $95 $50 $-1 $96 reversed single #
face $-1 $97 $98 $51 $-1 $99 forward single #
face $-1 $100 $101 $52 $-1 $102 forward single #
face $-1 $103 $104 $53 $-1 $105 reversed single #
face $-1 $106 $107 $54 $-1 $108 forward single #
face $-1 $109 $110 $55 $-1 $111 forward single #
face $-1 $112 $113 $42 $-1 $114 reversed single #
loop $-1 $-1 $115 $56 #
plane-surface $-1 0 0 14.905260329440958 0 0 1 1 0 0 forward_v I I I I #
face $-1 $116 $117 $43 $-1 $118 reversed single #
loop $-1 $-1 $119 $57 #
plane-surface $-1 -55.279290139469587 -32.059239071876078 0 1 0 0 0 0 -1 forward_v I I I I #
face $-1 $120 $121 $44 $-1 $122 reversed single #
loop $-1 $-1 $123 $58 #
plane-surface $-1 -55.77929013946958 -20.385492027354655 0.0014533232007067909 -0.57357644374324357 0 0.81915203911291934 0.81915203911291934 0 0.57357644374324357 forward_v I I I I #
face $-1 $124 $125 $45 $-1 $126 forward single #
loop $-1 $127 $128 $59 #
cone-surface $-1 -43.594162658248862 -23.055392401106424 5.2501435825371292 0.57357644374324357 0 -0.81915203911291934 1.228728058669379 0 0.86036466561486535 1 I I 0 1 1.5 forward I I I I #
face $-1 $129 $130 $46 $-1 $131 forward single #
loop $-1 $132 $133 $60 #
cone-surface $-1 -43.594162658248862 -17.715591653602885 5.2501435825371292 0.57357644374324357 0 -0.81915203911291934 1.228728058669379 0 0.86036466561486535 1 I I 0 1 1.5 forward I I I I #
face $-1 $134 $135 $47 $-1 $136 reversed single #
loop $-1 $-1 $137 $61 #
plane-surface $-1 -119.76666388490867 5.4439795057672979 91.384891839236047 0 1 0 -0.57357644374324357 0 0.81915203911291934 forward_v I I I I #
face $-1 $138 $139 $48 $-1 $140 forward single #
loop $-1 $141 $142 $62 #
cone-surface $-1 -43.594162658248862 9.0038466707696543 5.2501435825371292 0.57357644374324357 0 -0.81915203911291934 1.228728058669379 0 0.86036466561486535 1 I I 0 1 1.5 forward I I I I #
face $-1 $143 $144 $49 $-1 $145 forward single #
loop $-1 $146 $147 $63 #
cone-surface $-1 -43.594162658248862 14.343647418273193 5.2501435825371292 0.57357644374324357 0 -0.81915203911291934 1.228728058669379 0 0.86036466561486535 1 I I 0 1 1.5 forward I I I I #
face $-1 $148 $149 $50 $-1 $150 reversed single #
loop $-1 $-1 $151 $64 #
plane-surface $-1 28.383225368873319 -14.155724488600526 155.37226558467515 0 -1 0 -0.57357644374324357 0 -0.81915203911291934 forward_v I I I I #
face $-1 $152 $153 $51 $-1 $154 forward single #
loop $-1 $155 $156 $65 #
cone-surface $-1 43.594162658248841 -23.055392401106424 5.2501435825371328 -0.57357644374324357 0 -0.81915203911291934 1.228728058669379 0 -0.86036466561486535 1 I I 0 1 1.5 forward I I I I #
face $-1 $157 $158 $52 $-1 $159 forward single #
loop $-1 $160 $161 $66 #
cone-surface $-1 43.594162658248841 -17.715591653602885 5.2501435825371328 -0.57357644374324357 0 -0.81915203911291934 1.228728058669379 0 -0.86036466561486535 1 I I 0 1 1.5 forward I I I I #
face $-1 $162 $163 $53 $-1 $164 reversed single #
loop $-1 $-1 $165 $67 #
plane-surface $-1 28.383225368873319 17.903514583275555 155.37226558467515 0 -1 0 -0.57357644374324357 0 -0.81915203911291934 forward_v I I I I #
face $-1 $166 $167 $54 $-1 $168 forward single #
loop $-1 $169 $170 $68 #
cone-surface $-1 43.594162658248841 9.0038466707696543 5.2501435825371328 -0.57357644374324357 0 -0.81915203911291934 1.228728058669379 0 -0.86036466561486535 1 I I 0 1 1.5 forward I I I I #
face $-1 $171 $172 $55 $-1 $173 forward single #
loop $-1 $174 $175 $69 #
cone-surface $-1 43.594162658248841 14.343647418273193 5.2501435825371328 -0.57357644374324357 0 -0.81915203911291934 1.228728058669379 0 -0.86036466561486535 1 I I 0 1 1.5 forward I I I I #
face $-1 $176 $177 $42 $-1 $178 reversed single #
loop $-1 $-1 $179 $70 #
plane-surface $-1 0 0 -14.905260329440958 0 0 1 1 0 0 forward_v I I I I #
coedge $-1 $180 $181 $182 $183 forward $71 $-1 #
face $-1 $184 $185 $43 $-1 $186 reversed single #
loop $-1 $-1 $187 $73 #
plane-surface $-1 -52.404726963108118 -26.615259566108783 0 0 -1 0 0 0 -1 forward_v I I I I #
coedge $-1 $188 $189 $190 $191 forward $74 $-1 #
face $-1 $192 $193 $44 $-1 $194 forward single #
loop $-1 $-1 $195 $76 #
plane-surface $-1 -119.76666388490867 -14.155724488600526 91.384891839236047 0 -1 0 0.57357644374324357 0 -0.81915203911291934 forward_v I I I I #
coedge $-1 $196 $197 $198 $199 reversed $77 $-1 #
face $-1 $-1 $200 $45 $-1 $201 forward single #
loop $-1 $202 $203 $79 #
cone-surface $-1 -41.621273774230275 -23.055392401106424 2.4325663094187338 0.57357644374324357 0 -0.81915203911291934 0.61436402933468948 0 0.43018233280743268 1 I I -0.70710678118654757 0.70710678118654757 0.75 forward I I I I #
loop $-1 $-1 $204 $59 #
coedge $-1 $128 $128 $205 $206 reversed $80 $-1 #
face $-1 $-1 $207 $46 $-1 $208 forward single #
loop $-1 $209 $210 $82 #
cone-surface $-1 -41.621273774230275 -17.715591653602885 2.4325663094187338 0.57357644374324357 0 -0.81915203911291934 0.61436402933468948 0 0.43018233280743268 1 I I -0.70710678118654757 0.70710678118654757 0.75 forward I I I I #
loop $-1 $-1 $211 $60 #
coedge $-1 $133 $133 $212 $213 reversed $83 $-1 #
face $-1 $214 $215 $47 $-1 $216 reversed single #
loop $-1 $-1 $217 $85 #
plane-surface $-1 -55.77929013946958 11.673747044521427 0.0014533232007067909 -0.57357644374324357 0 0.81915203911291934 0.81915203911291934 0 0.57357644374324357 forward_v I I I I #
coedge $-1 $218 $219 $220 $221 reversed $86 $-1 #
face $-1 $-1 $222 $48 $-1 $223 forward single #
loop $-1 $224 $225 $88 #
cone-surface $-1 -41.621273774230275 9.0038466707696543 2.4325663094187338 0.57357644374324357 0 -0.81915203911291934 0.61436402933468948 0 0.43018233280743268 1 I I -0.70710678118654757 0.70710678118654757 0.75 forward I I I I #
loop $-1 $-1 $226 $62 #
coedge $-1 $142 $142 $227 $228 reversed $89 $-1 #
face $-1 $-1 $229 $49 $-1 $230 forward single #
loop $-1 $231 $232 $91 #
cone-surface $-1 -41.621273774230275 14.343647418273193 2.4325663094187338 0.57357644374324357 0 -0.81915203911291934 0.61436402933468948 0 0.43018233280743268 1 I I -0.70710678118654757 0.70710678118654757 0.75 forward I I I I #
loop $-1 $-1 $233 $63 #
coedge $-1 $147 $147 $234 $235 reversed $92 $-1 #
face $-1 $236 $237 $50 $-1 $238 reversed single #
loop $-1 $-1 $239 $94 #
plane-surface $-1 -35.604148376565767 -20.385492027354655 63.988827068639807 0.57357644374324357 0 0.81915203911291934 0.81915203911291934 0 -0.57357644374324357 forward_v I I I I #
coedge $-1 $240 $241 $242 $243 reversed $95 $-1 #
face $-1 $-1 $244 $51 $-1 $245 forward single #
loop $-1 $246 $247 $97 #
cone-surface $-1 41.621273774230254 -23.055392401106424 2.4325663094187373 -0.57357644374324357 0 -0.81915203911291934 0.61436402933468948 0 -0.43018233280743268 1 I I -0.70710678118654757 0.70710678118654757 0.75 forward I I I I #
loop $-1 $-1 $248 $65 #
coedge $-1 $156 $156 $249 $250 reversed $98 $-1 #
face $-1 $-1 $251 $52 $-1 $252 forward single #
loop $-1 $253 $254 $100 #
cone-surface $-1 41.621273774230254 -17.715591653602885 2.4325663094187373 -0.57357644374324357 0 -0.81915203911291934 0.61436402933468948 0 -0.43018233280743268 1 I I -0.70710678118654757 0.70710678118654757 0.75 forward I I I I #
loop $-1 $-1 $255 $66 #
coedge $-1 $161 $161 $256 $257 reversed $101 $-1 #
face $-1 $258 $259 $53 $-1 $260 reversed single #
loop $-1 $-1 $261 $103 #
plane-surface $-1 -35.604148376565767 11.673747044521427 63.988827068639807 0.57357644374324357 0 0.81915203911291934 0.81915203911291934 0 -0.57357644374324357 forward_v I I I I #
coedge $-1 $262 $263 $264 $265 reversed $104 $-1 #
face $-1 $-1 $266 $54 $-1 $267 forward single #
loop $-1 $268 $269 $106 #
cone-surface $-1 41.621273774230254 9.0038466707696543 2.4325663094187373 -0.57357644374324357 0 -0.81915203911291934 0.61436402933468948 0 -0.43018233280743268 1 I I -0.70710678118654757 0.70710678118654757 0.75 forward I I I I #
loop $-1 $-1 $270 $68 #
coedge $-1 $170 $170 $271 $272 reversed $107 $-1 #
face $-1 $-1 $273 $55 $-1 $274 forward single #
loop $-1 $275 $276 $109 #
cone-surface $-1 41.621273774230254 14.343647418273193 2.4325663094187373 -0.57357644374324357 0 -0.81915203911291934 0.61436402933468948 0 -0.43018233280743268 1 I I -0.70710678118654757 0.70710678118654757 0.75 forward I I I I #
loop $-1 $-1 $277 $69 #
coedge $-1 $175 $175 $278 $279 reversed $110 $-1 #
face $-1 $280 $281 $42 $-1 $282 reversed single #
loop $-1 $-1 $283 $112 #
plane-surface $-1 0 -37.503218577643374 0 0 1 0 0 0 1 forward_v I I I I #
coedge $-1 $284 $285 $286 $287 forward $113 $-1 #
coedge $-1 $288 $115 $289 $290 forward $71 $-1 #
coedge $-1 $115 $288 $291 $292 forward $71 $-1 #
coedge $-1 $293 $294 $115 $183 reversed $295 $-1 #
edge $-1 $296 -37.503218577643374 $297 37.503218577643374 $182 $298 forward 7 unknown #
face $-1 $299 $300 $43 $-1 $301 forward single #
loop $-1 $-1 $302 $116 #
plane-surface $-1 -49.530163786746648 -32.059239071876078 0 -1 0 0 0 0 1 forward_v I I I I #
coedge $-1 $303 $304 $305 $306 forward $117 $-1 #
coedge $-1 $307 $119 $308 $309 reversed $74 $-1 #
coedge $-1 $119 $307 $310 $311 reversed $74 $-1 #
coedge $-1 $304 $303 $119 $191 reversed $117 $-1 #
edge $-1 $312 -14.905260329440958 $313 14.905260329440958 $190 $314 forward 7 unknown #
face $-1 $315 $316 $44 $-1 $317 forward single #
loop $-1 $-1 $318 $120 #
plane-surface $-1 -52.404726963108118 -26.615259566108783 0 0 -1 0 0 0 -1 forward_v I I I I #
coedge $-1 $319 $320 $321 $322 reversed $121 $-1 #
coedge $-1 $323 $123 $318 $324 reversed $77 $-1 #
coedge $-1 $123 $323 $319 $325 forward $77 $-1 #
coedge $-1 $321 $326 $123 $199 forward $316 $-1 #
edge $-1 $327 -16.422513552431454 $328 -3.9629784749231991 $198 $329 forward 7 unknown #
loop $-1 $-1 $205 $124 #
plane-surface $-1 -55.77929013946958 -20.385492027354655 0.0014533232007067909 -0.57357644374324357 0 0.81915203911291934 0.81915203911291934 0 0.57357644374324357 forward_v I I I I #
loop $-1 $-1 $330 $79 #
coedge $-1 $203 $203 $204 $331 reversed $125 $-1 #
coedge $-1 $204 $204 $203 $331 forward $127 $-1 #
coedge $-1 $205 $205 $128 $206 forward $200 $-1 #
edge $-1 $332 0 $332 6.2831853071796004 $205 $333 forward 7 unknown #
loop $-1 $-1 $212 $129 #
plane-surface $-1 -55.77929013946958 -20.385492027354655 0.0014533232007067909 -0.57357644374324357 0 0.81915203911291934 0.81915203911291934 0 0.57357644374324357 forward_v I I I I #
loop $-1 $-1 $334 $82 #
coedge $-1 $210 $210 $211 $335 reversed $130 $-1 #
coedge $-1 $211 $211 $210 $335 forward $132 $-1 #
coedge $-1 $212 $212 $133 $213 forward $207 $-1 #
edge $-1 $336 0 $336 6.2831853071796004 $212 $337 forward 7 unknown #
face $-1 $338 $339 $47 $-1 $340 reversed single #
loop $-1 $-1 $341 $134 #
plane-surface $-1 -119.76666388490867 17.903514583275555 91.384891839236047 0 -1 0 0.57357644374324357 0 -0.81915203911291934 forward_v I I I I #
coedge $-1 $342 $343 $344 $345 reversed $135 $-1 #
coedge $-1 $219 $137 $346 $347 reversed $86 $-1 #
coedge $-1 $137 $218 $342 $348 reversed $86 $-1 #
coedge $-1 $344 $349 $137 $221 forward $350 $-1 #
edge $-1 $351 4.1040418029847459 $352 25.388883663003909 $220 $353 forward 7 unknown #
loop $-1 $-1 $227 $138 #
plane-surface $-1 -55.77929013946958 11.673747044521427 0.0014533232007067909 -0.57357644374324357 0 0.81915203911291934 0.81915203911291934 0 0.57357644374324357 forward_v I I I I #
loop $-1 $-1 $354 $88 #
coedge $-1 $225 $225 $226 $355 reversed $139 $-1 #
coedge $-1 $226 $226 $225 $355 forward $141 $-1 #
coedge $-1 $227 $227 $142 $228 forward $222 $-1 #
edge $-1 $356 0 $356 6.2831853071796004 $227 $357 forward 7 unknown #
loop $-1 $-1 $234 $143 #
plane-surface $-1 -55.77929013946958 11.673747044521427 0.0014533232007067909 -0.57357644374324357 0 0.81915203911291934 0.81915203911291934 0 0.57357644374324357 forward_v I I I I #
loop $-1 $-1 $358 $91 #
coedge $-1 $232 $232 $233 $359 reversed $144 $-1 #
coedge $-1 $233 $233 $232 $359 forward $146 $-1 #
coedge $-1 $234 $234 $147 $235 forward $229 $-1 #
edge $-1 $360 0 $360 6.2831853071796004 $234 $361 forward 7 unknown #
face $-1 $362 $363 $50 $-1 $364 forward single #
loop $-1 $-1 $365 $148 #
plane-surface $-1 28.383225368873319 -26.615259566108783 155.37226558467515 0 1 0 0.57357644374324357 0 0.81915203911291934 forward_v I I I I #
coedge $-1 $366 $367 $368 $369 reversed $149 $-1 #
coedge $-1 $241 $151 $370 $371 reversed $95 $-1 #
coedge $-1 $151 $240 $366 $372 reversed $95 $-1 #
coedge $-1 $368 $373 $151 $243 forward $363 $-1 #
edge $-1 $374 -41.587677455032932 $375 -20.302835595013786 $242 $376 forward 7 unknown #
loop $-1 $-1 $249 $152 #
plane-surface $-1 -35.604148376565767 -20.385492027354655 63.988827068639807 0.57357644374324357 0 0.81915203911291934 0.81915203911291934 0 -0.57357644374324357 forward_v I I I I #
loop $-1 $-1 $377 $97 #
coedge $-1 $247 $247 $248 $378 reversed $153 $-1 #
coedge $-1 $248 $248 $247 $378 forward $155 $-1 #
coedge $-1 $249 $249 $156 $250 forward $244 $-1 #
edge $-1 $379 0 $379 6.2831853071796004 $249 $380 forward 7 unknown #
loop $-1 $-1 $256 $157 #
plane-surface $-1 -35.604148376565767 -20.385492027354655 63.988827068639807 0.57357644374324357 0 0.81915203911291934 0.81915203911291934 0 -0.57357644374324357 forward_v I I I I #
loop $-1 $-1 $381 $100 #
coedge $-1 $254 $254 $255 $382 reversed $158 $-1 #
coedge $-1 $255 $255 $254 $382 forward $160 $-1 #
coedge $-1 $256 $256 $161 $257 forward $251 $-1 #
edge $-1 $383 0 $383 6.2831853071796004 $256 $384 forward 7 unknown #
face $-1 $385 $386 $53 $-1 $387 reversed single #
loop $-1 $-1 $388 $162 #
plane-surface $-1 28.383225368873319 5.4439795057672979 155.37226558467515 0 1 0 0.57357644374324357 0 0.81915203911291934 forward_v I I I I #
coedge $-1 $389 $390 $391 $392 reversed $163 $-1 #
coedge $-1 $263 $165 $393 $394 reversed $104 $-1 #
coedge $-1 $165 $262 $389 $395 reversed $104 $-1 #
coedge $-1 $391 $396 $165 $265 forward $397 $-1 #
edge $-1 $398 -41.587677455032932 $399 -20.302835595013786 $264 $400 forward 7 unknown #
loop $-1 $-1 $271 $166 #
plane-surface $-1 -35.604148376565767 11.673747044521427 63.988827068639807 0.57357644374324357 0 0.81915203911291934 0.81915203911291934 0 -0.57357644374324357 forward_v I I I I #
loop $-1 $-1 $401 $106 #
coedge $-1 $269 $269 $270 $402 reversed $167 $-1 #
coedge $-1 $270 $270 $269 $402 forward $169 $-1 #
coedge $-1 $271 $271 $170 $272 forward $266 $-1 #
edge $-1 $403 0 $403 6.2831853071796004 $271 $404 forward 7 unknown #
loop $-1 $-1 $278 $171 #
plane-surface $-1 -35.604148376565767 11.673747044521427 63.988827068639807 0.57357644374324357 0 0.81915203911291934 0.81915203911291934 0 -0.57357644374324357 forward_v I I I I #
loop $-1 $-1 $405 $109 #
coedge $-1 $276 $276 $277 $406 reversed $172 $-1 #
coedge $-1 $277 $277 $276 $406 forward $174 $-1 #
coedge $-1 $278 $278 $175 $279 forward $273 $-1 #
edge $-1 $407 0 $407 6.2831853071796004 $278 $408 forward 7 unknown #
face $-1 $409 $410 $42 $-1 $411 reversed single #
loop $-1 $-1 $412 $176 #
plane-surface $-1 -55.779290139469587 0 0 1 0 0 0 0 -1 forward_v I I I I #
coedge $-1 $413 $291 $414 $415 forward $177 $-1 #
coedge $-1 $416 $179 $413 $417 forward $113 $-1 #
coedge $-1 $179 $416 $418 $419 forward $113 $-1 #
coedge $-1 $294 $293 $179 $287 reversed $295 $-1 #
edge $-1 $420 -37.503218577643374 $421 37.503218577643374 $286 $422 forward 7 unknown #
coedge $-1 $181 $180 $423 $424 forward $71 $-1 #
coedge $-1 $425 $426 $180 $290 reversed $410 $-1 #
edge $-1 $297 -55.779290139469587 $427 55.779290139469587 $289 $428 forward 7 unknown #
coedge $-1 $283 $429 $181 $292 reversed $177 $-1 #
edge $-1 $430 -55.779290139469587 $296 55.779290139469587 $291 $431 forward 7 unknown #
coedge $-1 $286 $182 $429 $432 forward $295 $-1 #
coedge $-1 $182 $286 $425 $433 reversed $295 $-1 #
loop $-1 $-1 $293 $409 #
vertex $-1 $183 $434 #
vertex $-1 $183 $435 #
straight-curve $-1 55.779290139469587 0 14.905260329440958 0 1 0 I I #
face $-1 $436 $437 $43 $-1 $438 reversed single #
loop $-1 $-1 $439 $184 #
plane-surface $-1 0 0 14.905260329440958 0 0 1 1 0 0 forward_v I I I I #
coedge $-1 $440 $441 $442 $443 reversed $185 $-1 #
coedge $-1 $190 $187 $444 $445 reversed $117 $-1 #
coedge $-1 $187 $190 $446 $447 reversed $117 $-1 #
coedge $-1 $441 $440 $187 $306 reversed $185 $-1 #
edge $-1 $448 -14.905260329440958 $449 14.905260329440958 $305 $450 forward 7 unknown #
coedge $-1 $189 $188 $451 $452 reversed $74 $-1 #
coedge $-1 $444 $453 $188 $309 forward $437 $-1 #
edge $-1 $454 -21.473599041705334 $313 -10.585640030170744 $308 $455 forward 7 unknown #
coedge $-1 $456 $446 $189 $311 forward $300 $-1 #
edge $-1 $312 10.585640030170744 $457 21.473599041705334 $310 $458 forward 7 unknown #
vertex $-1 $311 $459 #
vertex $-1 $309 $460 #
straight-curve $-1 -55.279290139469587 -26.615259566108783 0 0 0 -1 I I #
face $-1 $-1 $461 $44 $-1 $462 reversed single #
loop $-1 $-1 $326 $192 #
plane-surface $-1 0 0 14.905260329440958 0 0 1 1 0 0 forward_v I I I I #
coedge $-1 $463 $464 $196 $324 forward $193 $-1 #
coedge $-1 $320 $195 $197 $325 reversed $121 $-1 #
coedge $-1 $195 $319 $465 $466 reversed $121 $-1 #
coedge $-1 $467 $198 $195 $322 forward $316 $-1 #
edge $-1 $328 -25.388883663003909 $468 -4.1040418029847459 $321 $469 forward 7 unknown #
coedge $-1 $197 $196 $470 $471 reversed $77 $-1 #
edge $-1 $472 -1.3817233575394026 $327 24.602270875166241 $318 $473 forward 7 unknown #
edge $-1 $474 -8.6740753344994804e-015 $328 25.983994232705637 $319 $475 forward 7 unknown #
coedge $-1 $198 $467 $463 $476 forward $316 $-1 #
vertex $-1 $199 $477 #
vertex $-1 $199 $478 #
straight-curve $-1 -34.494448279450417 -10.192746013677327 14.905260329440958 0 1 0 I I #
coedge $-1 $330 $330 $-1 $479 reversed $202 $-1 #
edge $-1 $480 0 $480 6.2831853071796004 $203 $481 forward 7 unknown #
vertex $-1 $206 $482 #
ellipse-curve $-1 -45.136869209460009 -23.055392401106424 7.4533568263208272 -0.57357644374324357 0 0.81915203911291934 1.228728058669379 0 0.86036466561486535 1 I I #
coedge $-1 $334 $334 $-1 $483 reversed $209 $-1 #
edge $-1 $484 0 $484 6.2831853071796004 $210 $485 forward 7 unknown #
vertex $-1 $213 $486 #
ellipse-curve $-1 -45.136869209460009 -17.715591653602885 7.4533568263208272 -0.57357644374324357 0 0.81915203911291934 1.228728058669379 0 0.86036466561486535 1 I I #
face $-1 $-1 $350 $47 $-1 $487 forward single #
loop $-1 $-1 $488 $214 #
plane-surface $-1 -55.779290139469587 0 0 1 0 0 0 0 -1 forward_v I I I I #
coedge $-1 $489 $490 $491 $492 reversed $215 $-1 #
coedge $-1 $493 $217 $219 $348 forward $135 $-1 #
coedge $-1 $217 $493 $489 $494 forward $135 $-1 #
coedge $-1 $491 $220 $217 $345 forward $350 $-1 #
edge $-1 $352 -0.3928940164934156 $495 12.066641061014842 $344 $496 forward 7 unknown #
coedge $-1 $497 $498 $218 $347 forward $339 $-1 #
edge $-1 $499 -45.690992596417324 $351 -30.787185590177067 $346 $500 forward 7 unknown #
edge $-1 $352 -25.983994232705637 $499 8.6740753344994804e-015 $219 $501 forward 7 unknown #
coedge $-1 $220 $491 $497 $502 forward $350 $-1 #
loop $-1 $-1 $491 $338 #
vertex $-1 $347 $503 #
vertex $-1 $221 $504 #
straight-curve $-1 -59.883331942454333 5.4439795057672979 14.905260329440956 1 0 0 I I #
coedge $-1 $354 $354 $-1 $505 reversed $224 $-1 #
edge $-1 $506 0 $506 6.2831853071796004 $225 $507 forward 7 unknown #
vertex $-1 $228 $508 #
ellipse-curve $-1 -45.136869209460009 9.0038466707696543 7.4533568263208272 -0.57357644374324357 0 0.81915203911291934 1.228728058669379 0 0.86036466561486535 1 I I #
coedge $-1 $358 $358 $-1 $509 reversed $231 $-1 #
edge $-1 $510 0 $510 6.2831853071796004 $232 $511 forward 7 unknown #
vertex $-1 $235 $512 #
ellipse-curve $-1 -45.136869209460009 14.343647418273193 7.4533568263208272 -0.57357644374324357 0 0.81915203911291934 1.228728058669379 0 0.86036466561486535 1 I I #
face $-1 $-1 $513 $50 $-1 $514 reversed single #
loop $-1 $-1 $242 $236 #
plane-surface $-1 0 0 14.905260329440958 0 0 1 1 0 0 forward_v I I I I #
coedge $-1 $515 $516 $517 $518 reversed $237 $-1 #
coedge $-1 $519 $239 $241 $372 forward $149 $-1 #
coedge $-1 $239 $519 $515 $520 forward $149 $-1 #
coedge $-1 $517 $242 $239 $369 forward $363 $-1 #
edge $-1 $375 3.9629784749231991 $521 16.422513552431454 $368 $522 forward 7 unknown #
coedge $-1 $523 $524 $240 $371 forward $513 $-1 #
edge $-1 $525 -77.684679469136853 $374 -62.780872462896617 $370 $526 forward 7 unknown #
edge $-1 $375 85.574586046233577 $525 111.5585802789392 $241 $527 forward 7 unknown #
coedge $-1 $242 $517 $523 $528 forward $363 $-1 #
vertex $-1 $371 $529 #
vertex $-1 $243 $530 #
straight-curve $-1 14.191612684436659 -14.155724488600526 14.905260329440964 -1 0 0 I I #
coedge $-1 $377 $377 $-1 $531 reversed $246 $-1 #
edge $-1 $532 0 $532 6.2831853071796004 $247 $533 forward 7 unknown #
vertex $-1 $250 $534 #
ellipse-curve $-1 45.136869209459995 -23.055392401106424 7.4533568263208458 0.57357644374324357 0 0.81915203911291934 1.228728058669379 0 -0.86036466561486535 1 I I #
coedge $-1 $381 $381 $-1 $535 reversed $253 $-1 #
edge $-1 $536 0 $536 6.2831853071796004 $254 $537 forward 7 unknown #
vertex $-1 $257 $538 #
ellipse-curve $-1 45.136869209459995 -17.715591653602885 7.4533568263208458 0.57357644374324357 0 0.81915203911291934 1.228728058669379 0 -0.86036466561486535 1 I I #
face $-1 $-1 $397 $53 $-1 $539 forward single #
loop $-1 $-1 $540 $258 #
plane-surface $-1 55.779290139469587 0 0 -1 0 0 0 0 1 forward_v I I I I #
coedge $-1 $541 $542 $543 $544 reversed $259 $-1 #
coedge $-1 $545 $261 $263 $395 forward $163 $-1 #
coedge $-1 $261 $545 $541 $546 forward $163 $-1 #
coedge $-1 $543 $264 $261 $392 forward $397 $-1 #
edge $-1 $399 -12.066641061014842 $547 0.3928940164934156 $391 $548 forward 7 unknown #
coedge $-1 $549 $550 $262 $394 forward $386 $-1 #
edge $-1 $551 -77.684679469136853 $398 -62.780872462896617 $393 $552 forward 7 unknown #
edge $-1 $399 85.574586046233577 $551 111.5585802789392 $263 $553 forward 7 unknown #
coedge $-1 $264 $543 $549 $554 forward $397 $-1 #
loop $-1 $-1 $543 $385 #
vertex $-1 $394 $555 #
vertex $-1 $265 $556 #
straight-curve $-1 14.191612684436659 17.903514583275555 14.905260329440964 -1 0 0 I I #
coedge $-1 $401 $401 $-1 $557 reversed $268 $-1 #
edge $-1 $558 0 $558 6.2831853071796004 $269 $559 forward 7 unknown #
vertex $-1 $272 $560 #
ellipse-curve $-1 45.136869209459995 9.0038466707696543 7.4533568263208458 0.57357644374324357 0 0.81915203911291934 1.228728058669379 0 -0.86036466561486535 1 I I #
coedge $-1 $405 $405 $-1 $561 reversed $275 $-1 #
edge $-1 $562 0 $562 6.2831853071796004 $276 $563 forward 7 unknown #
vertex $-1 $279 $564 #
ellipse-curve $-1 45.136869209459995 14.343647418273193 7.4533568263208458 0.57357644374324357 0 0.81915203911291934 1.228728058669379 0 -0.86036466561486535 1 I I #
face $-1 $-1 $295 $42 $-1 $565 reversed single #
loop $-1 $-1 $425 $280 #
plane-surface $-1 0 37.503218577643374 0 0 -1 0 0 0 -1 forward_v I I I I #
coedge $-1 $566 $423 $426 $567 forward $281 $-1 #
coedge $-1 $429 $283 $284 $417 reversed $177 $-1 #
coedge $-1 $423 $566 $283 $415 reversed $281 $-1 #
edge $-1 $430 -14.905260329440958 $568 14.905260329440958 $414 $569 forward 7 unknown #
coedge $-1 $285 $284 $566 $570 forward $113 $-1 #
edge $-1 $421 -55.779290139469587 $568 55.779290139469587 $413 $571 forward 7 unknown #
coedge $-1 $426 $425 $285 $419 reversed $410 $-1 #
edge $-1 $572 -55.779290139469587 $420 55.779290139469587 $418 $573 forward 7 unknown #
vertex $-1 $287 $574 #
vertex $-1 $432 $575 #
straight-curve $-1 55.779290139469587 0 -14.905260329440958 0 -1 0 I I #
coedge $-1 $412 $414 $288 $424 reversed $281 $-1 #
edge $-1 $427 -37.503218577643374 $430 37.503218577643374 $423 $576 forward 7 unknown #
coedge $-1 $418 $289 $294 $433 forward $410 $-1 #
coedge $-1 $289 $418 $412 $567 reversed $410 $-1 #
vertex $-1 $290 $577 #
straight-curve $-1 0 37.503218577643374 14.905260329440958 -1 0 0 I I #
coedge $-1 $291 $413 $293 $432 reversed $177 $-1 #
vertex $-1 $424 $578 #
straight-curve $-1 0 -37.503218577643374 14.905260329440958 1 0 0 I I #
edge $-1 $296 -14.905260329440958 $421 14.905260329440958 $293 $579 forward 7 unknown #
edge $-1 $297 -14.905260329440958 $420 14.905260329440958 $294 $580 forward 7 unknown #
point $-1 55.779290139469587 -37.503218577643374 14.905260329440958 #
point $-1 55.779290139469587 37.503218577643374 14.905260329440958 #
face $-1 $-1 $581 $43 $-1 $582 reversed single #
loop $-1 $-1 $583 $299 #
plane-surface $-1 0 0 -14.905260329440958 0 0 1 1 0 0 forward_v I I I I #
coedge $-1 $446 $456 $441 $584 forward $300 $-1 #
coedge $-1 $305 $302 $583 $585 reversed $185 $-1 #
coedge $-1 $302 $305 $439 $584 reversed $185 $-1 #
coedge $-1 $586 $587 $302 $443 forward $581 $-1 #
edge $-1 $588 -14.905260329440958 $589 14.905260329440958 $442 $590 forward 7 unknown #
coedge $-1 $583 $308 $303 $445 forward $437 $-1 #
edge $-1 $313 -29.076926657915529 $449 -23.327800305192589 $444 $591 forward 7 unknown #
coedge $-1 $310 $439 $304 $447 forward $300 $-1 #
edge $-1 $448 23.327800305192589 $312 29.076926657915529 $446 $592 forward 7 unknown #
vertex $-1 $447 $593 #
vertex $-1 $445 $594 #
straight-curve $-1 -49.530163786746648 -26.615259566108783 0 0 0 -1 I I #
coedge $-1 $587 $586 $307 $452 forward $581 $-1 #
edge $-1 $457 -14.905260329440958 $454 14.905260329440958 $451 $595 forward 7 unknown #
coedge $-1 $308 $583 $587 $596 forward $437 $-1 #
vertex $-1 $309 $597 #
straight-curve $-1 -55.279290139469587 -16.029619535938039 -14.905260329440958 0 1 0 I I #
coedge $-1 $439 $310 $586 $598 forward $300 $-1 #
vertex $-1 $598 $599 #
straight-curve $-1 -55.279290139469587 -16.029619535938039 14.905260329440958 0 -1 0 I I #
point $-1 -55.279290139469587 -26.615259566108783 14.905260329440958 #
point $-1 -55.279290139469587 -26.615259566108783 -14.905260329440958 #
loop $-1 $-1 $600 $315 #
plane-surface $-1 -55.779290139469587 0 0 1 0 0 0 0 -1 forward_v I I I I #
coedge $-1 $464 $318 $326 $476 reversed $193 $-1 #
coedge $-1 $318 $463 $600 $601 reversed $193 $-1 #
coedge $-1 $470 $602 $320 $466 forward $461 $-1 #
edge $-1 $468 30.787185590177067 $474 45.690992596417324 $465 $603 forward 7 unknown #
coedge $-1 $326 $321 $602 $604 forward $316 $-1 #
vertex $-1 $604 $605 #
straight-curve $-1 -59.883331942454333 -14.155724488600526 14.905260329440956 -1 0 0 I I #
coedge $-1 $600 $465 $323 $471 forward $461 $-1 #
edge $-1 $474 3.9629784749231991 $472 16.422513552431454 $470 $606 forward 7 unknown #
vertex $-1 $601 $607 #
straight-curve $-1 -54.647448633651237 -26.615259566108783 0.79397729285512741 0.81915203911291934 0 0.57357644374324357 I I #
vertex $-1 $471 $608 #
straight-curve $-1 -55.77929013946958 -14.155724488600526 0.0014533232007067909 0.81915203911291934 0 0.57357644374324357 I I #
edge $-1 $609 4.1040418029847459 $327 25.388883663003909 $326 $610 forward 7 unknown #
point $-1 -34.494448279450424 -26.615259566108783 14.905260329440958 #
point $-1 -34.494448279450424 -14.155724488600526 14.905260329440958 #
edge $-1 $611 1 $611 0 $330 $-1 forward 7 unknown #
vertex $-1 $331 $612 #
ellipse-curve $-1 -42.051456107037708 -23.055392401106424 3.0469303387534232 -0.57357644374324357 0 0.81915203911291934 1.228728058669379 0 0.86036466561486535 1 I I #
point $-1 -43.908141150790634 -23.055392401106424 8.3137214919357003 #
edge $-1 $613 1 $613 0 $334 $-1 forward 7 unknown #
vertex $-1 $335 $614 #
ellipse-curve $-1 -42.051456107037708 -17.715591653602885 3.0469303387534232 -0.57357644374324357 0 0.81915203911291934 1.228728058669379 0 0.86036466561486535 1 I I #
point $-1 -43.908141150790634 -17.715591653602885 8.3137214919357003 #
plane-surface $-1 0 0 14.905260329440958 0 0 1 1 0 0 forward_v I I I I #
coedge $-1 $498 $497 $490 $615 forward $339 $-1 #
coedge $-1 $490 $341 $343 $494 reversed $215 $-1 #
coedge $-1 $341 $489 $488 $615 reversed $215 $-1 #
coedge $-1 $349 $344 $341 $492 forward $350 $-1 #
edge $-1 $495 -25.388883663003909 $616 -4.1040418029847459 $491 $617 forward 7 unknown #
coedge $-1 $343 $342 $498 $618 reversed $135 $-1 #
edge $-1 $619 -8.6740753344994804e-015 $495 25.983994232705637 $489 $620 forward 7 unknown #
vertex $-1 $345 $621 #
straight-curve $-1 -34.494448279450417 5.8368735222607135 14.905260329440958 0 1 0 I I #
coedge $-1 $488 $346 $349 $502 reversed $339 $-1 #
coedge $-1 $346 $488 $493 $618 forward $339 $-1 #
vertex $-1 $347 $622 #
straight-curve $-1 -55.779290139469587 5.4439795057672979 45.692445919618024 0 0 1 I I #
straight-curve $-1 -55.77929013946958 5.4439795057672979 0.0014533232007067909 -0.81915203911291934 0 -0.57357644374324357 I I #
edge $-1 $616 -17.903514583275555 $351 -5.4439795057672979 $497 $623 forward 7 unknown #
point $-1 -55.779290139469587 5.4439795057672979 14.905260329440958 #
point $-1 -34.494448279450424 5.4439795057672979 14.905260329440958 #
edge $-1 $624 1 $624 0 $354 $-1 forward 7 unknown #
vertex $-1 $355 $625 #
ellipse-curve $-1 -42.051456107037708 9.0038466707696543 3.0469303387534232 -0.57357644374324357 0 0.81915203911291934 1.228728058669379 0 0.86036466561486535 1 I I #
point $-1 -43.908141150790634 9.0038466707696543 8.3137214919357003 #
edge $-1 $626 1 $626 0 $358 $-1 forward 7 unknown #
vertex $-1 $359 $627 #
ellipse-curve $-1 -42.051456107037708 14.343647418273193 3.0469303387534232 -0.57357644374324357 0 0.81915203911291934 1.228728058669379 0 0.86036466561486535 1 I I #
point $-1 -43.908141150790634 14.343647418273193 8.3137214919357003 #
loop $-1 $-1 $370 $362 #
plane-surface $-1 55.779290139469587 0 0 -1 0 0 0 0 1 forward_v I I I I #
coedge $-1 $516 $365 $367 $520 reversed $237 $-1 #
coedge $-1 $365 $515 $628 $629 reversed $237 $-1 #
coedge $-1 $373 $368 $365 $518 forward $363 $-1 #
edge $-1 $521 20.302835595013786 $630 41.587677455032932 $517 $631 forward 7 unknown #
coedge $-1 $367 $366 $524 $632 reversed $149 $-1 #
edge $-1 $633 -111.5585802789392 $521 -85.574586046233577 $515 $634 forward 7 unknown #
vertex $-1 $369 $635 #
straight-curve $-1 34.494448279450445 -10.192746013677327 14.905260329440964 0 -1 0 I I #
coedge $-1 $628 $370 $373 $528 reversed $513 $-1 #
coedge $-1 $370 $628 $519 $632 forward $513 $-1 #
vertex $-1 $371 $636 #
straight-curve $-1 55.779290139469587 -14.155724488600526 77.686132792337574 0 0 1 I I #
straight-curve $-1 -35.604148376565767 -14.155724488600526 63.988827068639807 0.81915203911291934 0 -0.57357644374324357 I I #
edge $-1 $630 -26.615259566108783 $374 -14.155724488600526 $523 $637 forward 7 unknown #
point $-1 55.779290139469587 -14.155724488600526 14.905260329440958 #
point $-1 34.494448279450445 -14.155724488600526 14.905260329440956 #
edge $-1 $638 1 $638 0 $377 $-1 forward 7 unknown #
vertex $-1 $378 $639 #
ellipse-curve $-1 42.051456107037687 -23.055392401106424 3.0469303387534268 0.57357644374324357 0 0.81915203911291934 1.228728058669379 0 -0.86036466561486535 1 I I #
point $-1 46.36559726812937 -23.055392401106424 6.5929921607059736 #
edge $-1 $640 1 $640 0 $381 $-1 forward 7 unknown #
vertex $-1 $382 $641 #
ellipse-curve $-1 42.051456107037687 -17.715591653602885 3.0469303387534268 0.57357644374324357 0 0.81915203911291934 1.228728058669379 0 -0.86036466561486535 1 I I #
point $-1 46.36559726812937 -17.715591653602885 6.5929921607059736 #
plane-surface $-1 0 0 14.905260329440958 0 0 1 1 0 0 forward_v I I I I #
coedge $-1 $550 $549 $542 $642 forward $386 $-1 #
coedge $-1 $542 $388 $390 $546 reversed $259 $-1 #
coedge $-1 $388 $541 $540 $642 reversed $259 $-1 #
coedge $-1 $396 $391 $388 $544 forward $397 $-1 #
edge $-1 $547 20.302835595013786 $643 41.587677455032932 $543 $644 forward 7 unknown #
coedge $-1 $390 $389 $550 $645 reversed $163 $-1 #
edge $-1 $646 -111.5585802789392 $547 -85.574586046233577 $541 $647 forward 7 unknown #
vertex $-1 $392 $648 #
straight-curve $-1 34.494448279450445 5.8368735222607135 14.905260329440964 0 -1 0 I I #
coedge $-1 $540 $393 $396 $554 reversed $386 $-1 #
coedge $-1 $393 $540 $545 $645 forward $386 $-1 #
vertex $-1 $394 $649 #
straight-curve $-1 55.779290139469587 17.903514583275555 77.686132792337574 0 0 1 I I #
straight-curve $-1 -35.604148376565767 17.903514583275555 63.988827068639807 0.81915203911291934 0 -0.57357644374324357 I I #
edge $-1 $643 5.4439795057672979 $398 17.903514583275555 $549 $650 forward 7 unknown #
point $-1 55.779290139469587 17.903514583275555 14.905260329440958 #
point $-1 34.494448279450445 17.903514583275555 14.905260329440956 #
edge $-1 $651 1 $651 0 $401 $-1 forward 7 unknown #
vertex $-1 $402 $652 #
ellipse-curve $-1 42.051456107037687 9.0038466707696543 3.0469303387534268 0.57357644374324357 0 0.81915203911291934 1.228728058669379 0 -0.86036466561486535 1 I I #
point $-1 46.36559726812937 9.0038466707696543 6.5929921607059736 #
edge $-1 $653 1 $653 0 $405 $-1 forward 7 unknown #
vertex $-1 $406 $654 #
ellipse-curve $-1 42.051456107037687 14.343647418273193 3.0469303387534268 0.57357644374324357 0 0.81915203911291934 1.228728058669379 0 -0.86036466561486535 1 I I #
point $-1 46.36559726812937 14.343647418273193 6.5929921607059736 #
plane-surface $-1 55.779290139469587 0 0 -1 0 0 0 0 1 forward_v I I I I #
coedge $-1 $414 $412 $416 $570 reversed $281 $-1 #
edge $-1 $427 -14.905260329440958 $572 14.905260329440958 $426 $655 forward 7 unknown #
vertex $-1 $570 $656 #
straight-curve $-1 -55.779290139469587 -37.503218577643374 0 0 0 -1 I I #
edge $-1 $568 -37.503218577643374 $572 37.503218577643374 $566 $657 forward 7 unknown #
straight-curve $-1 0 -37.503218577643374 -14.905260329440958 -1 0 0 I I #
vertex $-1 $419 $658 #
straight-curve $-1 0 37.503218577643374 -14.905260329440958 1 0 0 I I #
point $-1 55.779290139469587 37.503218577643374 -14.905260329440958 #
point $-1 55.779290139469587 -37.503218577643374 -14.905260329440958 #
straight-curve $-1 -55.779290139469587 0 14.905260329440958 0 -1 0 I I #
point $-1 -55.779290139469587 37.503218577643374 14.905260329440958 #
point $-1 -55.779290139469587 -37.503218577643374 14.905260329440958 #
straight-curve $-1 55.779290139469587 -37.503218577643374 0 0 0 -1 I I #
straight-curve $-1 55.779290139469587 37.503218577643374 0 0 0 -1 I I #
loop $-1 $-1 $442 $436 #
plane-surface $-1 0 -37.503218577643374 0 0 1 0 0 0 1 forward_v I I I I #
coedge $-1 $453 $444 $440 $585 forward $437 $-1 #
edge $-1 $589 -21.473599041705334 $448 -10.585640030170744 $439 $659 forward 7 unknown #
edge $-1 $449 10.585640030170744 $588 21.473599041705334 $583 $660 forward 7 unknown #
coedge $-1 $451 $442 $456 $598 reversed $581 $-1 #
coedge $-1 $442 $451 $453 $596 reversed $581 $-1 #
vertex $-1 $596 $661 #
vertex $-1 $443 $662 #
straight-curve $-1 -49.530163786746648 -37.503218577643374 0 0 0 1 I I #
straight-curve $-1 -26.202363481554059 -26.615259566108783 -14.905260329440958 1 0 0 I I #
straight-curve $-1 -26.202363481554059 -26.615259566108783 14.905260329440958 -1 0 0 I I #
point $-1 -49.530163786746648 -26.615259566108783 14.905260329440958 #
point $-1 -49.530163786746648 -26.615259566108783 -14.905260329440958 #
straight-curve $-1 -55.279290139469587 -37.503218577643374 0 0 0 -1 I I #
edge $-1 $588 49.530163786746648 $454 55.279290139469587 $587 $663 forward 7 unknown #
point $-1 -55.279290139469587 -37.503218577643374 -14.905260329440958 #
edge $-1 $457 -55.279290139469587 $589 -49.530163786746648 $586 $664 forward 7 unknown #
point $-1 -55.279290139469587 -37.503218577643374 14.905260329440958 #
coedge $-1 $602 $470 $464 $601 forward $461 $-1 #
edge $-1 $472 -45.690992596417324 $609 -30.787185590177067 $600 $665 forward 7 unknown #
coedge $-1 $465 $600 $467 $604 reversed $461 $-1 #
straight-curve $-1 -55.779290139469587 -14.155724488600526 45.692445919618024 0 0 -1 I I #
edge $-1 $468 14.155724488600526 $609 26.615259566108783 $602 $666 forward 7 unknown #
point $-1 -55.779290139469587 -14.155724488600526 14.905260329440958 #
straight-curve $-1 -55.779290139469587 -10.192746013677327 0.0014533232006994166 0 -1 0 I I #
point $-1 -55.779290139469587 -26.615259566108783 0.0014533232007018157 #
point $-1 -55.779290139469587 -14.155724488600526 0.0014533232007018157 #
vertex $-1 $601 $667 #
straight-curve $-1 -59.883331942454333 -26.615259566108783 14.905260329440956 1 0 0 I I #
vertex $-1 $479 $668 #
point $-1 -40.822728048368326 -23.055392401106424 3.9072950043682884 #
vertex $-1 $483 $669 #
point $-1 -40.822728048368326 -17.715591653602885 3.9072950043682884 #
edge $-1 $616 30.787185590177067 $619 45.690992596417324 $488 $670 forward 7 unknown #
vertex $-1 $502 $671 #
straight-curve $-1 -59.883331942454333 17.903514583275555 14.905260329440956 -1 0 0 I I #
edge $-1 $619 -12.066641061014842 $499 0.3928940164934156 $498 $672 forward 7 unknown #
vertex $-1 $618 $673 #
straight-curve $-1 -55.77929013946958 17.903514583275555 0.0014533232007067909 0.81915203911291934 0 0.57357644374324357 I I #
point $-1 -34.494448279450424 17.903514583275555 14.905260329440958 #
point $-1 -55.779290139469587 5.4439795057672979 0.0014533232007018157 #
straight-curve $-1 -55.779290139469587 0 14.905260329440958 0 -1 0 I I #
vertex $-1 $505 $674 #
point $-1 -40.822728048368326 9.0038466707696543 3.9072950043682884 #
vertex $-1 $509 $675 #
point $-1 -40.822728048368326 14.343647418273193 3.9072950043682884 #
coedge $-1 $524 $523 $516 $629 forward $513 $-1 #
edge $-1 $630 62.780872462896617 $633 77.684679469136853 $628 $676 forward 7 unknown #
vertex $-1 $528 $677 #
straight-curve $-1 14.191612684436659 -26.615259566108783 14.905260329440964 1 0 0 I I #
edge $-1 $633 -16.422513552431454 $525 -3.9629784749231991 $524 $678 forward 7 unknown #
vertex $-1 $632 $679 #
straight-curve $-1 -35.604148376565767 -26.615259566108783 63.988827068639807 -0.81915203911291934 0 0.57357644374324357 I I #
point $-1 34.494448279450445 -26.615259566108783 14.905260329440956 #
point $-1 55.779290139469587 -14.155724488600526 0.0014533232007138963 #
straight-curve $-1 55.779290139469587 0 14.905260329440958 0 1 0 I I #
vertex $-1 $531 $680 #
point $-1 43.280184165707063 -23.055392401106424 2.1865656731385616 #
vertex $-1 $535 $681 #
point $-1 43.280184165707063 -17.715591653602885 2.1865656731385616 #
edge $-1 $643 62.780872462896617 $646 77.684679469136853 $540 $682 forward 7 unknown #
vertex $-1 $554 $683 #
straight-curve $-1 14.191612684436659 5.4439795057672979 14.905260329440964 1 0 0 I I #
edge $-1 $646 -0.3928940164934156 $551 12.066641061014842 $550 $684 forward 7 unknown #
vertex $-1 $645 $685 #
straight-curve $-1 -35.604148376565767 5.4439795057672979 63.988827068639807 -0.81915203911291934 0 0.57357644374324357 I I #
point $-1 34.494448279450445 5.4439795057672979 14.905260329440956 #
point $-1 55.779290139469587 17.903514583275555 0.0014533232007138963 #
straight-curve $-1 55.779290139469587 0 14.905260329440958 0 1 0 I I #
vertex $-1 $557 $686 #
point $-1 43.280184165707063 9.0038466707696543 2.1865656731385616 #
vertex $-1 $561 $687 #
point $-1 43.280184165707063 14.343647418273193 2.1865656731385616 #
straight-curve $-1 -55.779290139469587 37.503218577643374 0 0 0 -1 I I #
point $-1 -55.779290139469587 -37.503218577643374 -14.905260329440958 #
straight-curve $-1 -55.779290139469587 0 -14.905260329440958 0 1 0 I I #
point $-1 -55.779290139469587 37.503218577643374 -14.905260329440958 #
straight-curve $-1 -49.530163786746648 -16.029619535938039 14.905260329440958 0 1 0 I I #
straight-curve $-1 -49.530163786746648 -16.029619535938039 -14.905260329440958 0 -1 0 I I #
point $-1 -49.530163786746648 -37.503218577643374 -14.905260329440958 #
point $-1 -49.530163786746648 -37.503218577643374 14.905260329440958 #
straight-curve $-1 0 -37.503218577643374 -14.905260329440958 -1 0 0 I I #
straight-curve $-1 0 -37.503218577643374 14.905260329440958 1 0 0 I I #
straight-curve $-1 -55.779290139469587 -26.615259566108783 45.692445919618024 0 0 1 I I #
straight-curve $-1 -55.779290139469587 0 14.905260329440958 0 -1 0 I I #
point $-1 -55.779290139469587 -26.615259566108783 14.905260329440958 #
point $-1 -41.191091441422842 -23.055392401106424 1.8182022800840443 #
point $-1 -41.191091441422842 -17.715591653602885 1.8182022800840443 #
straight-curve $-1 -55.779290139469587 17.903514583275555 45.692445919618024 0 0 -1 I I #
point $-1 -55.779290139469587 17.903514583275555 14.905260329440958 #
straight-curve $-1 -55.779290139469587 5.8368735222607135 0.0014533232006994166 0 -1 0 I I #
point $-1 -55.779290139469587 17.903514583275555 0.0014533232007018157 #
point $-1 -41.191091441422842 9.0038466707696543 1.8182022800840443 #
point $-1 -41.191091441422842 14.343647418273193 1.8182022800840443 #
straight-curve $-1 55.779290139469587 -26.615259566108783 77.686132792337574 0 0 -1 I I #
point $-1 55.779290139469587 -26.615259566108783 14.905260329440958 #
straight-curve $-1 55.779290139469595 -10.192746013677327 0.0014533232007138963 0 1 0 I I #
point $-1 55.779290139469587 -26.615259566108783 0.0014533232007138963 #
point $-1 41.19109144142282 -23.055392401106424 1.8182022800840478 #
point $-1 41.19109144142282 -17.715591653602885 1.8182022800840478 #
straight-curve $-1 55.779290139469587 5.4439795057672979 77.686132792337574 0 0 -1 I I #
point $-1 55.779290139469587 5.4439795057672979 14.905260329440958 #
straight-curve $-1 55.779290139469595 5.8368735222607135 0.0014533232007138963 0 1 0 I I #
point $-1 55.779290139469587 5.4439795057672979 0.0014533232007138963 #
point $-1 41.19109144142282 9.0038466707696543 1.8182022800840478 #
point $-1 41.19109144142282 14.343647418273193 1.8182022800840478 #
End-of-ACIS-data 