500 0 9 0           
7 Unknown 11 ACIS 5.0 NT 24 Thu Mar 25 21:29:46 1999 
-1 9.9999999999999995e-007 1e-010 
body $-1 $9 $-1 $10 #
body $-1 $11 $-1 $12 #
body $-1 $13 $-1 $14 #
body $-1 $15 $-1 $16 #
body $-1 $17 $-1 $18 #
body $-1 $19 $-1 $20 #
body $-1 $21 $-1 $22 #
body $-1 $23 $-1 $24 #
body $-1 $25 $-1 $26 #
lump $-1 $-1 $27 $0 #
transform $-1 1 0 0 0 1 0 0 0 1 72.562028870509963 44.250281481255662 12.371091450707684 1 rotate no_reflect no_shear #
lump $-1 $-1 $28 $1 #
transform $-1 1 0 0 0 1 0 0 0 1 72.562028870509963 44.250281481255662 12.371091450707684 1 rotate no_reflect no_shear #
lump $-1 $-1 $29 $2 #
transform $-1 1 0 0 0 1 0 0 0 1 72.562028870509963 44.250281481255662 12.371091450707684 1 rotate no_reflect no_shear #
lump $-1 $-1 $30 $3 #
transform $-1 1 0 0 0 1 0 0 0 1 72.562028870509963 44.250281481255662 12.371091450707684 1 rotate no_reflect no_shear #
lump $-1 $-1 $31 $4 #
transform $-1 1 0 0 0 1 0 0 0 1 72.562028870509963 44.250281481255662 12.371091450707684 1 rotate no_reflect no_shear #
lump $-1 $-1 $32 $5 #
transform $-1 1 0 0 0 1 0 0 0 1 72.562028870509963 44.250281481255662 12.371091450707684 1 rotate no_reflect no_shear #
lump $-1 $-1 $33 $6 #
transform $-1 1 0 0 0 1 0 0 0 1 72.562028870509963 44.250281481255662 12.371091450707684 1 rotate no_reflect no_shear #
lump $-1 $-1 $34 $7 #
transform $-1 1 0 0 0 1 0 0 0 1 72.562028870509963 44.250281481255662 12.371091450707684 1 rotate no_reflect no_shear #
lump $-1 $-1 $35 $8 #
transform $-1 1 0 0 0 1 0 0 0 1 72.562028870509963 44.250281481255662 12.371091450707684 1 rotate no_reflect no_shear #
shell $-1 $-1 $-1 $36 $-1 $9 #
shell $-1 $-1 $-1 $37 $-1 $11 #
shell $-1 $-1 $-1 $38 $-1 $13 #
shell $-1 $-1 $-1 $39 $-1 $15 #
shell $-1 $-1 $-1 $40 $-1 $17 #
shell $-1 $-1 $-1 $41 $-1 $19 #
shell $-1 $-1 $-1 $42 $-1 $21 #
shell $-1 $-1 $-1 $43 $-1 $23 #
shell $-1 $-1 $-1 $44 $-1 $25 #
face $-1 $45 $46 $27 $-1 $47 reversed single #
face $-1 $48 $49 $28 $-1 $50 forward single #
face $-1 $51 $52 $29 $-1 $53 reversed single #
face $-1 $54 $55 $30 $-1 $56 forward single #
face $-1 $57 $58 $31 $-1 $59 forward single #
face $-1 $60 $61 $32 $-1 $62 reversed single #
face $-1 $63 $64 $33 $-1 $65 forward single #
face $-1 $66 $67 $34 $-1 $68 forward single #
face $-1 $69 $70 $35 $-1 $71 forward single #
face $-1 $72 $73 $27 $-1 $74 forward single #
loop $-1 $-1 $75 $36 #
plane-surface $-1 0 -44.250281481255662 0 0 1 0 0 0 1 forward_v I I I I #
face $-1 $76 $77 $28 $-1 $78 forward single #
loop $-1 $-1 $79 $37 #
plane-surface $-1 0 -44.250281481255662 0 0 1 0 0 0 1 forward_v I I I I #
face $-1 $80 $81 $29 $-1 $82 reversed single #
loop $-1 $-1 $83 $38 #
plane-surface $-1 104.66807980497184 -4.1686169825496506 209.51392500627352 0 -1 0 -0.80901700255871778 0 -0.5877852410284794 forward_v I I I I #
face $-1 $84 $85 $30 $-1 $86 forward single #
loop $-1 $87 $88 $39 #
cone-surface $-1 69.606256748660641 -11.774311853782329 8.9094597510700222 -0.80901700255871778 0 -0.5877852410284794 0.8816778615427191 0 -1.2135255038380768 1 I I 0 1 1.5 forward I I I I #
face $-1 $89 $90 $31 $-1 $91 forward single #
loop $-1 $92 $93 $40 #
cone-surface $-1 69.606256748660641 -7.2108949310427235 8.9094597510700222 -0.80901700255871778 0 -0.5877852410284794 0.8816778615427191 0 -1.2135255038380768 1 I I 0 1 1.5 forward I I I I #
face $-1 $94 $95 $32 $-1 $96 reversed single #
loop $-1 $-1 $97 $41 #
plane-surface $-1 -186.92134817539076 1.5892722651413038 93.366331928557713 0 1 0 -0.78801076186113728 0 0.61566146476048833 forward_v I I I I #
face $-1 $98 $99 $33 $-1 $100 forward single #
loop $-1 $101 $102 $42 #
cone-surface $-1 -68.56594713914383 3.9351044553778181 7.622061131187853 0.78801076186113728 0 -0.61566146476048833 0.30783073238024417 0 0.39400538093056864 1 I I 0 1 0.5 forward I I I I #
face $-1 $103 $104 $34 $-1 $105 forward single #
loop $-1 $106 $107 $43 #
cone-surface $-1 -68.56594713914383 7.4538527407325859 7.622061131187853 0.78801076186113728 0 -0.61566146476048833 0.30783073238024417 0 0.39400538093056864 1 I I 0 1 0.5 forward I I I I #
face $-1 $108 $109 $35 $-1 $110 forward single #
loop $-1 $111 $112 $44 #
cone-surface $-1 -68.56594713914383 10.972601026087354 7.622061131187853 0.78801076186113728 0 -0.61566146476048833 0.30783073238024417 0 0.39400538093056864 1 I I 0 1 0.5 forward I I I I #
face $-1 $113 $114 $27 $-1 $115 reversed single #
loop $-1 $-1 $116 $45 #
plane-surface $-1 0 0 12.371091450707684 0 0 1 1 0 0 forward_v I I I I #
coedge $-1 $117 $118 $119 $120 reversed $46 $-1 #
face $-1 $121 $122 $28 $-1 $123 reversed single #
loop $-1 $-1 $124 $48 #
plane-surface $-1 0 0 12.371091450707684 0 0 1 1 0 0 forward_v I I I I #
coedge $-1 $125 $126 $127 $128 forward $49 $-1 #
face $-1 $129 $130 $29 $-1 $131 reversed single #
loop $-1 $-1 $132 $51 #
plane-surface $-1 -12.73975038782639 -9.4926033924125264 124.21214574793717 0.80901700255871778 0 0.5877852410284794 0.5877852410284794 0 -0.80901700255871778 forward_v I I I I #
coedge $-1 $133 $134 $135 $136 reversed $52 $-1 #
face $-1 $-1 $137 $30 $-1 $138 forward single #
loop $-1 $139 $140 $54 #
cone-surface $-1 68.065971531685463 -11.774311853782329 7.7903770684453768 -0.80901700255871778 0 -0.5877852410284794 0.44083893077135955 0 -0.60676275191903839 1 I I -0.70710678118654791 0.70710678118654702 0.75 forward I I I I #
loop $-1 $-1 $141 $39 #
coedge $-1 $88 $88 $142 $143 reversed $55 $-1 #
face $-1 $-1 $144 $31 $-1 $145 forward single #
loop $-1 $146 $147 $57 #
cone-surface $-1 68.065971531685463 -7.2108949310427235 7.7903770684453768 -0.80901700255871778 0 -0.5877852410284794 0.44083893077135955 0 -0.60676275191903839 1 I I -0.70710678118654791 0.70710678118654702 0.75 forward I I I I #
loop $-1 $-1 $148 $40 #
coedge $-1 $93 $93 $149 $150 reversed $58 $-1 #
face $-1 $151 $152 $32 $-1 $153 reversed single #
loop $-1 $-1 $154 $60 #
plane-surface $-1 -72.562028870509977 7.4538527407325859 4.0190419677357028 -0.78801076186113728 0 0.61566146476048833 0.61566146476048833 0 0.78801076186113728 forward_v I I I I #
coedge $-1 $155 $156 $157 $158 reversed $61 $-1 #
face $-1 $-1 $159 $33 $-1 $160 forward single #
loop $-1 $161 $162 $63 #
cone-surface $-1 -67.635530733605805 3.9351044553778181 6.8951401869639035 0.78801076186113728 0 -0.61566146476048833 0.15391536619012208 0 0.19700269046528432 1 I I -0.70710678118654746 0.70710678118654746 0.25 forward I I I I #
loop $-1 $-1 $163 $42 #
coedge $-1 $102 $102 $164 $165 reversed $64 $-1 #
face $-1 $-1 $166 $34 $-1 $167 forward single #
loop $-1 $168 $169 $66 #
cone-surface $-1 -67.635530733605805 7.4538527407325859 6.8951401869639035 0.78801076186113728 0 -0.61566146476048833 0.15391536619012208 0 0.19700269046528432 1 I I -0.70710678118654746 0.70710678118654746 0.25 forward I I I I #
loop $-1 $-1 $170 $43 #
coedge $-1 $107 $107 $171 $172 reversed $67 $-1 #
face $-1 $-1 $173 $35 $-1 $174 forward single #
loop $-1 $175 $176 $69 #
cone-surface $-1 -67.635530733605805 10.972601026087354 6.8951401869639035 0.78801076186113728 0 -0.61566146476048833 0.15391536619012208 0 0.19700269046528432 1 I I -0.70710678118654746 0.70710678118654746 0.25 forward I I I I #
loop $-1 $-1 $177 $44 #
coedge $-1 $112 $112 $178 $179 reversed $70 $-1 #
face $-1 $180 $181 $27 $-1 $182 reversed single #
loop $-1 $-1 $183 $72 #
plane-surface $-1 0 0 -12.371091450707684 0 0 1 1 0 0 forward_v I I I I #
coedge $-1 $184 $185 $186 $187 forward $73 $-1 #
coedge $-1 $188 $75 $189 $190 reversed $46 $-1 #
coedge $-1 $75 $188 $191 $192 forward $46 $-1 #
coedge $-1 $193 $183 $75 $120 forward $114 $-1 #
edge $-1 $194 -72.562028870509963 $195 72.562028870509963 $75 $196 forward 7 unknown #
face $-1 $197 $198 $28 $-1 $199 reversed single #
loop $-1 $-1 $200 $76 #
plane-surface $-1 -72.562028870509963 0 0 1 0 0 0 0 -1 forward_v I I I I #
coedge $-1 $201 $202 $126 $203 forward $77 $-1 #
coedge $-1 $204 $79 $205 $206 reversed $49 $-1 #
coedge $-1 $79 $204 $124 $203 reversed $49 $-1 #
coedge $-1 $207 $208 $79 $128 reversed $209 $-1 #
edge $-1 $210 -12.371091450707684 $211 12.371091450707684 $127 $212 forward 7 unknown #
face $-1 $213 $214 $29 $-1 $215 forward single #
loop $-1 $-1 $216 $80 #
plane-surface $-1 104.66807980497184 -14.816589802275402 209.51392500627352 0 1 0 0.80901700255871778 0 0.5877852410284794 forward_v I I I I #
coedge $-1 $217 $218 $219 $220 reversed $81 $-1 #
coedge $-1 $134 $83 $221 $222 reversed $52 $-1 #
coedge $-1 $83 $133 $217 $223 reversed $52 $-1 #
coedge $-1 $219 $224 $83 $136 forward $214 $-1 #
edge $-1 $225 -20.227988968024043 $226 -16.183489654437729 $135 $227 forward 7 unknown #
loop $-1 $-1 $142 $84 #
plane-surface $-1 -12.73975038782639 -9.4926033924125264 124.21214574793717 0.80901700255871778 0 0.5877852410284794 0.5877852410284794 0 -0.80901700255871778 forward_v I I I I #
loop $-1 $-1 $228 $54 #
coedge $-1 $140 $140 $141 $229 reversed $85 $-1 #
coedge $-1 $141 $141 $140 $229 forward $87 $-1 #
coedge $-1 $142 $142 $88 $143 forward $137 $-1 #
edge $-1 $230 0 $230 6.2831853071796004 $142 $231 forward 7 unknown #
loop $-1 $-1 $149 $89 #
plane-surface $-1 -12.73975038782639 -9.4926033924125264 124.21214574793717 0.80901700255871778 0 0.5877852410284794 0.5877852410284794 0 -0.80901700255871778 forward_v I I I I #
loop $-1 $-1 $232 $57 #
coedge $-1 $147 $147 $148 $233 reversed $90 $-1 #
coedge $-1 $148 $148 $147 $233 forward $92 $-1 #
coedge $-1 $149 $149 $93 $150 forward $144 $-1 #
edge $-1 $234 0 $234 6.2831853071796004 $149 $235 forward 7 unknown #
face $-1 $236 $237 $32 $-1 $238 reversed single #
loop $-1 $-1 $239 $94 #
plane-surface $-1 -186.92134817539076 13.318433216323868 93.366331928557713 0 -1 0 0.78801076186113728 0 -0.61566146476048833 forward_v I I I I #
coedge $-1 $240 $241 $242 $243 reversed $95 $-1 #
coedge $-1 $156 $97 $244 $245 reversed $61 $-1 #
coedge $-1 $97 $155 $240 $246 reversed $61 $-1 #
coedge $-1 $242 $247 $97 $158 forward $248 $-1 #
edge $-1 $249 20.898645217185418 $250 27.42398124977214 $157 $251 forward 7 unknown #
loop $-1 $-1 $164 $98 #
plane-surface $-1 -72.562028870509977 7.4538527407325859 4.0190419677357028 -0.78801076186113728 0 0.61566146476048833 0.61566146476048833 0 0.78801076186113728 forward_v I I I I #
loop $-1 $-1 $252 $63 #
coedge $-1 $162 $162 $163 $253 reversed $99 $-1 #
coedge $-1 $163 $163 $162 $253 forward $101 $-1 #
coedge $-1 $164 $164 $102 $165 forward $159 $-1 #
edge $-1 $254 0 $254 6.2831853071796004 $164 $255 forward 7 unknown #
loop $-1 $-1 $171 $103 #
plane-surface $-1 -72.562028870509977 7.4538527407325859 4.0190419677357028 -0.78801076186113728 0 0.61566146476048833 0.61566146476048833 0 0.78801076186113728 forward_v I I I I #
loop $-1 $-1 $256 $66 #
coedge $-1 $169 $169 $170 $257 reversed $104 $-1 #
coedge $-1 $170 $170 $169 $257 forward $106 $-1 #
coedge $-1 $171 $171 $107 $172 forward $166 $-1 #
edge $-1 $258 0 $258 6.2831853071796004 $171 $259 forward 7 unknown #
loop $-1 $-1 $178 $108 #
plane-surface $-1 -72.562028870509977 7.4538527407325859 4.0190419677357028 -0.78801076186113728 0 0.61566146476048833 0.61566146476048833 0 0.78801076186113728 forward_v I I I I #
loop $-1 $-1 $260 $69 #
coedge $-1 $176 $176 $177 $261 reversed $109 $-1 #
coedge $-1 $177 $177 $176 $261 forward $111 $-1 #
coedge $-1 $178 $178 $112 $179 forward $173 $-1 #
edge $-1 $262 0 $262 6.2831853071796004 $178 $263 forward 7 unknown #
face $-1 $264 $265 $27 $-1 $266 reversed single #
loop $-1 $-1 $267 $113 #
plane-surface $-1 -72.562028870509963 0 0 1 0 0 0 0 -1 forward_v I I I I #
coedge $-1 $119 $268 $269 $270 forward $114 $-1 #
coedge $-1 $271 $116 $272 $273 forward $73 $-1 #
coedge $-1 $116 $271 $188 $274 forward $73 $-1 #
coedge $-1 $189 $275 $116 $187 reversed $276 $-1 #
edge $-1 $277 -44.250281481255662 $278 44.250281481255662 $186 $279 forward 7 unknown #
coedge $-1 $118 $117 $185 $274 reversed $46 $-1 #
coedge $-1 $269 $186 $117 $190 forward $276 $-1 #
edge $-1 $277 -12.371091450707684 $194 12.371091450707684 $189 $280 forward 7 unknown #
coedge $-1 $281 $282 $118 $192 reversed $181 $-1 #
edge $-1 $283 -12.371091450707684 $195 12.371091450707684 $191 $284 forward 7 unknown #
coedge $-1 $268 $119 $282 $285 forward $114 $-1 #
vertex $-1 $190 $286 #
vertex $-1 $285 $287 #
straight-curve $-1 0 -44.250281481255662 -12.371091450707684 -1 0 0 I I #
face $-1 $288 $209 $28 $-1 $289 reversed single #
loop $-1 $-1 $290 $121 #
plane-surface $-1 -70.946768378137676 -56.134729600675648 0 0 1 0 0 0 1 forward_v I I I I #
coedge $-1 $291 $292 $204 $293 forward $122 $-1 #
coedge $-1 $294 $124 $292 $295 forward $77 $-1 #
coedge $-1 $124 $294 $207 $296 forward $77 $-1 #
edge $-1 $210 69.33150788576539 $297 72.562028870509963 $124 $298 forward 7 unknown #
coedge $-1 $126 $125 $200 $293 reversed $49 $-1 #
coedge $-1 $299 $300 $125 $206 forward $301 $-1 #
edge $-1 $302 -72.562028870509963 $211 -69.33150788576539 $205 $303 forward 7 unknown #
coedge $-1 $304 $127 $202 $296 reversed $209 $-1 #
coedge $-1 $127 $304 $299 $305 reversed $209 $-1 #
loop $-1 $-1 $304 $197 #
vertex $-1 $203 $306 #
vertex $-1 $305 $307 #
straight-curve $-1 -69.33150788576539 -44.250281481255662 0 0 0 -1 I I #
face $-1 $-1 $308 $29 $-1 $309 reversed single #
loop $-1 $-1 $135 $129 #
plane-surface $-1 0 0 12.371091450707684 0 0 1 1 0 0 forward_v I I I I #
coedge $-1 $310 $311 $312 $313 reversed $130 $-1 #
coedge $-1 $314 $132 $134 $223 forward $81 $-1 #
coedge $-1 $132 $314 $310 $315 forward $81 $-1 #
coedge $-1 $312 $135 $132 $220 forward $214 $-1 #
edge $-1 $226 -0.57768471365661256 $316 10.070288106069139 $219 $317 forward 7 unknown #
coedge $-1 $318 $319 $133 $222 forward $308 $-1 #
edge $-1 $320 -97.95264694799782 $225 -92.385871052429081 $221 $321 forward 7 unknown #
edge $-1 $226 138.24314438819493 $320 145.12405774101993 $134 $322 forward 7 unknown #
coedge $-1 $135 $312 $318 $323 forward $214 $-1 #
vertex $-1 $222 $324 #
vertex $-1 $136 $325 #
straight-curve $-1 52.33403990248592 -4.1686169825496506 12.371091450707681 -1 0 0 I I #
coedge $-1 $228 $228 $-1 $326 reversed $139 $-1 #
edge $-1 $327 0 $327 6.2831853071796004 $140 $328 forward 7 unknown #
vertex $-1 $143 $329 #
ellipse-curve $-1 70.539779213716798 -11.774311853782329 9.5877035029233237 0.80901700255871778 0 0.5877852410284794 0.8816778615427191 0 -1.2135255038380768 1 I I #
coedge $-1 $232 $232 $-1 $330 reversed $146 $-1 #
edge $-1 $331 0 $331 6.2831853071796004 $147 $332 forward 7 unknown #
vertex $-1 $150 $333 #
ellipse-curve $-1 70.539779213716798 -7.2108949310427235 9.5877035029233237 0.80901700255871778 0 0.5877852410284794 0.8816778615427191 0 -1.2135255038380768 1 I I #
face $-1 $-1 $248 $32 $-1 $334 forward single #
loop $-1 $-1 $335 $151 #
plane-surface $-1 -72.562028870509963 0 0 1 0 0 0 0 -1 forward_v I I I I #
coedge $-1 $336 $337 $338 $339 reversed $152 $-1 #
coedge $-1 $340 $154 $156 $246 forward $95 $-1 #
coedge $-1 $154 $340 $336 $341 forward $95 $-1 #
coedge $-1 $338 $157 $154 $243 forward $248 $-1 #
edge $-1 $250 -2.1376541052249891 $342 9.591506845957575 $242 $343 forward 7 unknown #
coedge $-1 $344 $345 $155 $245 forward $237 $-1 #
edge $-1 $346 -42.66412399654314 $249 -34.312074513571176 $244 $347 forward 7 unknown #
edge $-1 $250 -10.598902816055412 $346 -2.274695869299009e-014 $156 $348 forward 7 unknown #
coedge $-1 $157 $338 $344 $349 forward $248 $-1 #
loop $-1 $-1 $338 $236 #
vertex $-1 $245 $350 #
vertex $-1 $158 $351 #
straight-curve $-1 -93.460674087695381 1.5892722651413038 12.371091450707688 1 0 0 I I #
coedge $-1 $252 $252 $-1 $352 reversed $161 $-1 #
edge $-1 $353 0 $353 6.2831853071796004 $162 $354 forward 7 unknown #
vertex $-1 $165 $355 #
ellipse-curve $-1 -69.299360854216602 3.9351044553778181 8.1950667092217007 -0.78801076186113728 0 0.61566146476048833 0.30783073238024417 0 0.39400538093056864 1 I I #
coedge $-1 $256 $256 $-1 $356 reversed $168 $-1 #
edge $-1 $357 0 $357 6.2831853071796004 $169 $358 forward 7 unknown #
vertex $-1 $172 $359 #
ellipse-curve $-1 -69.299360854216602 7.4538527407325859 8.1950667092217007 -0.78801076186113728 0 0.61566146476048833 0.30783073238024417 0 0.39400538093056864 1 I I #
coedge $-1 $260 $260 $-1 $360 reversed $175 $-1 #
edge $-1 $361 0 $361 6.2831853071796004 $176 $362 forward 7 unknown #
vertex $-1 $179 $363 #
ellipse-curve $-1 -69.299360854216602 10.972601026087354 8.1950667092217007 -0.78801076186113728 0 0.61566146476048833 0.30783073238024417 0 0.39400538093056864 1 I I #
face $-1 $-1 $276 $27 $-1 $364 reversed single #
loop $-1 $-1 $365 $180 #
plane-surface $-1 0 44.250281481255662 0 0 -1 0 0 0 -1 forward_v I I I I #
coedge $-1 $282 $281 $366 $367 forward $181 $-1 #
coedge $-1 $183 $193 $368 $369 forward $114 $-1 #
coedge $-1 $275 $189 $183 $270 reversed $276 $-1 #
edge $-1 $370 -44.250281481255662 $194 44.250281481255662 $269 $371 forward 7 unknown #
coedge $-1 $185 $184 $281 $372 forward $73 $-1 #
coedge $-1 $365 $366 $184 $273 reversed $265 $-1 #
edge $-1 $278 -72.562028870509963 $373 72.562028870509963 $272 $374 forward 7 unknown #
edge $-1 $283 -72.562028870509963 $277 72.562028870509963 $188 $375 forward 7 unknown #
coedge $-1 $186 $269 $365 $376 reversed $276 $-1 #
loop $-1 $-1 $189 $264 #
vertex $-1 $187 $377 #
vertex $-1 $187 $378 #
straight-curve $-1 72.562028870509963 0 12.371091450707684 0 1 0 I I #
straight-curve $-1 72.562028870509963 -44.250281481255662 0 0 0 -1 I I #
coedge $-1 $267 $191 $271 $372 reversed $181 $-1 #
coedge $-1 $191 $267 $193 $285 reversed $181 $-1 #
vertex $-1 $372 $379 #
straight-curve $-1 -72.562028870509963 -44.250281481255662 0 0 0 -1 I I #
edge $-1 $195 -44.250281481255662 $380 44.250281481255662 $282 $381 forward 7 unknown #
point $-1 72.562028870509963 -44.250281481255662 -12.371091450707684 #
point $-1 -72.562028870509963 -44.250281481255662 -12.371091450707684 #
face $-1 $-1 $301 $28 $-1 $382 reversed single #
plane-surface $-1 -69.33150788576539 -50.192505540965655 0 -1 0 0 0 0 1 forward_v I I I I #
coedge $-1 $383 $384 $385 $386 forward $198 $-1 #
coedge $-1 $385 $200 $300 $387 reversed $122 $-1 #
coedge $-1 $200 $385 $201 $295 reversed $122 $-1 #
edge $-1 $297 -12.371091450707684 $302 12.371091450707684 $200 $388 forward 7 unknown #
coedge $-1 $202 $201 $384 $389 forward $77 $-1 #
edge $-1 $297 44.250281481255662 $390 56.134729600675648 $292 $391 forward 7 unknown #
edge $-1 $392 -5.9422240597099929 $210 5.9422240597099929 $207 $393 forward 7 unknown #
vertex $-1 $295 $394 #
straight-curve $-1 0 -44.250281481255662 12.371091450707684 -1 0 0 I I #
coedge $-1 $395 $205 $208 $305 forward $301 $-1 #
coedge $-1 $205 $395 $291 $387 forward $301 $-1 #
loop $-1 $-1 $205 $288 #
vertex $-1 $293 $396 #
straight-curve $-1 0 -44.250281481255662 -12.371091450707684 1 0 0 I I #
coedge $-1 $208 $207 $397 $398 forward $209 $-1 #
edge $-1 $211 -5.9422240597099929 $399 5.9422240597099929 $208 $400 forward 7 unknown #
point $-1 -69.33150788576539 -44.250281481255662 12.371091450707684 #
point $-1 -69.33150788576539 -44.250281481255662 -12.371091450707684 #
loop $-1 $-1 $221 $213 #
plane-surface $-1 72.562028870509963 0 0 -1 0 0 0 0 1 forward_v I I I I #
coedge $-1 $311 $216 $218 $315 reversed $130 $-1 #
coedge $-1 $216 $310 $401 $402 reversed $130 $-1 #
coedge $-1 $224 $219 $216 $313 forward $214 $-1 #
edge $-1 $316 16.183489654437729 $403 20.227988968024043 $312 $404 forward 7 unknown #
coedge $-1 $218 $217 $319 $405 reversed $81 $-1 #
edge $-1 $406 -145.12405774101993 $316 -138.24314438819493 $310 $407 forward 7 unknown #
vertex $-1 $220 $408 #
straight-curve $-1 68.517529556923648 -4.7463016962062632 12.371091450707695 0 -1 0 I I #
coedge $-1 $401 $221 $224 $323 reversed $308 $-1 #
coedge $-1 $221 $401 $314 $405 forward $308 $-1 #
vertex $-1 $222 $409 #
straight-curve $-1 72.562028870509963 -4.1686169825496506 104.75696250313676 0 0 1 I I #
straight-curve $-1 -12.73975038782639 -4.1686169825496506 124.21214574793717 0.5877852410284794 0 -0.80901700255871778 I I #
edge $-1 $403 -14.816589802275402 $225 -4.1686169825496506 $318 $410 forward 7 unknown #
point $-1 72.562028870509963 -4.1686169825496506 12.371091450707684 #
point $-1 68.517529556923648 -4.1686169825496506 12.371091450707681 #
edge $-1 $411 1 $411 0 $228 $-1 forward 7 unknown #
vertex $-1 $229 $412 #
ellipse-curve $-1 68.672734283604498 -11.774311853782329 8.2312159992167366 0.80901700255871778 0 0.5877852410284794 0.8816778615427191 0 -1.2135255038380768 1 I I #
point $-1 71.421457075259497 -11.774311853782329 8.3741779990852301 #
edge $-1 $413 1 $413 0 $232 $-1 forward 7 unknown #
vertex $-1 $233 $414 #
ellipse-curve $-1 68.672734283604498 -7.2108949310427235 8.2312159992167366 0.80901700255871778 0 0.5877852410284794 0.8816778615427191 0 -1.2135255038380768 1 I I #
point $-1 71.421457075259497 -7.2108949310427235 8.3741779990852301 #
plane-surface $-1 0 0 12.371091450707684 0 0 1 1 0 0 forward_v I I I I #
coedge $-1 $345 $344 $337 $415 forward $237 $-1 #
coedge $-1 $337 $239 $241 $341 reversed $152 $-1 #
coedge $-1 $239 $336 $335 $415 reversed $152 $-1 #
coedge $-1 $247 $242 $239 $339 forward $248 $-1 #
edge $-1 $342 -27.42398124977214 $416 -20.898645217185418 $338 $417 forward 7 unknown #
coedge $-1 $241 $240 $345 $418 reversed $95 $-1 #
edge $-1 $419 2.274695869299009e-014 $342 10.598902816055412 $336 $420 forward 7 unknown #
vertex $-1 $243 $421 #
straight-curve $-1 -66.036692837923241 3.7269263703662929 12.371091450707684 0 1 0 I I #
coedge $-1 $335 $244 $247 $349 reversed $237 $-1 #
coedge $-1 $244 $335 $340 $418 forward $237 $-1 #
vertex $-1 $245 $422 #
straight-curve $-1 -72.562028870509963 1.5892722651413038 46.683165964278857 0 0 1 I I #
straight-curve $-1 -72.562028870509977 1.5892722651413038 4.0190419677357028 -0.61566146476048833 0 -0.78801076186113728 I I #
edge $-1 $416 -13.318433216323868 $249 -1.5892722651413038 $344 $423 forward 7 unknown #
point $-1 -72.562028870509963 1.5892722651413038 12.371091450707684 #
point $-1 -66.036692837923241 1.5892722651413038 12.371091450707684 #
edge $-1 $424 1 $424 0 $252 $-1 forward 7 unknown #
vertex $-1 $253 $425 #
ellipse-curve $-1 -67.832533424071087 3.9351044553778181 7.0490555531540258 -0.78801076186113728 0 0.61566146476048833 0.30783073238024417 0 0.39400538093056864 1 I I #
point $-1 -68.991530121836334 3.9351044553778181 8.5890720901522499 #
edge $-1 $426 1 $426 0 $256 $-1 forward 7 unknown #
vertex $-1 $257 $427 #
ellipse-curve $-1 -67.832533424071087 7.4538527407325859 7.0490555531540258 -0.78801076186113728 0 0.61566146476048833 0.30783073238024417 0 0.39400538093056864 1 I I #
point $-1 -68.991530121836334 7.4538527407325859 8.5890720901522499 #
edge $-1 $428 1 $428 0 $260 $-1 forward 7 unknown #
vertex $-1 $261 $429 #
ellipse-curve $-1 -67.832533424071087 10.972601026087354 7.0490555531540258 -0.78801076186113728 0 0.61566146476048833 0.30783073238024417 0 0.39400538093056864 1 I I #
point $-1 -68.991530121836334 10.972601026087354 8.5890720901522499 #
plane-surface $-1 72.562028870509963 0 0 -1 0 0 0 0 1 forward_v I I I I #
coedge $-1 $368 $272 $275 $376 forward $265 $-1 #
coedge $-1 $272 $368 $267 $367 reversed $265 $-1 #
edge $-1 $373 -12.371091450707684 $380 12.371091450707684 $366 $430 forward 7 unknown #
coedge $-1 $366 $365 $268 $369 reversed $265 $-1 #
edge $-1 $380 -72.562028870509963 $370 72.562028870509963 $368 $431 forward 7 unknown #
vertex $-1 $270 $432 #
straight-curve $-1 72.562028870509963 0 -12.371091450707684 0 -1 0 I I #
edge $-1 $373 -44.250281481255662 $283 44.250281481255662 $281 $433 forward 7 unknown #
vertex $-1 $273 $434 #
straight-curve $-1 0 44.250281481255662 12.371091450707684 -1 0 0 I I #
straight-curve $-1 0 -44.250281481255662 12.371091450707684 1 0 0 I I #
edge $-1 $278 -12.371091450707684 $370 12.371091450707684 $275 $435 forward 7 unknown #
point $-1 72.562028870509963 -44.250281481255662 12.371091450707684 #
point $-1 72.562028870509963 44.250281481255662 12.371091450707684 #
point $-1 -72.562028870509963 -44.250281481255662 12.371091450707684 #
vertex $-1 $369 $436 #
straight-curve $-1 -72.562028870509963 0 -12.371091450707684 0 1 0 I I #
plane-surface $-1 0 0 -12.371091450707684 0 0 1 1 0 0 forward_v I I I I #
coedge $-1 $397 $290 $395 $437 reversed $198 $-1 #
coedge $-1 $290 $397 $294 $389 reversed $198 $-1 #
coedge $-1 $292 $291 $290 $386 reversed $122 $-1 #
edge $-1 $390 -12.371091450707684 $438 12.371091450707684 $385 $439 forward 7 unknown #
edge $-1 $438 -56.134729600675648 $302 -44.250281481255662 $291 $440 forward 7 unknown #
straight-curve $-1 -72.562028870509963 -44.250281481255662 0 0 0 -1 I I #
edge $-1 $390 -1.6152604923722862 $392 1.6152604923722862 $384 $441 forward 7 unknown #
vertex $-1 $295 $442 #
straight-curve $-1 -72.562028870509963 0 12.371091450707684 0 -1 0 I I #
vertex $-1 $296 $443 #
straight-curve $-1 -69.33150788576539 -50.192505540965655 12.371091450707684 0 1 0 I I #
point $-1 -72.562028870509963 -44.250281481255662 12.371091450707684 #
coedge $-1 $300 $299 $383 $437 forward $301 $-1 #
point $-1 -72.562028870509963 -44.250281481255662 -12.371091450707684 #
coedge $-1 $384 $383 $304 $398 reversed $198 $-1 #
edge $-1 $392 -12.371091450707684 $399 12.371091450707684 $304 $444 forward 7 unknown #
vertex $-1 $398 $445 #
straight-curve $-1 -69.33150788576539 -50.192505540965655 -12.371091450707684 0 -1 0 I I #
coedge $-1 $319 $318 $311 $402 forward $308 $-1 #
edge $-1 $403 92.385871052429081 $406 97.95264694799782 $401 $446 forward 7 unknown #
vertex $-1 $323 $447 #
straight-curve $-1 52.33403990248592 -14.816589802275402 12.371091450707681 1 0 0 I I #
edge $-1 $406 -10.070288106069139 $320 0.57768471365661256 $319 $448 forward 7 unknown #
vertex $-1 $405 $449 #
straight-curve $-1 -12.73975038782639 -14.816589802275402 124.21214574793717 -0.5877852410284794 0 0.80901700255871778 I I #
point $-1 68.517529556923648 -14.816589802275402 12.371091450707681 #
point $-1 72.562028870509963 -4.1686169825496506 6.8043155551389418 #
straight-curve $-1 72.562028870509963 0 12.371091450707684 0 1 0 I I #
vertex $-1 $326 $450 #
point $-1 69.554412145147225 -11.774311853782329 7.017690495378659 #
vertex $-1 $330 $451 #
point $-1 69.554412145147225 -7.2108949310427235 7.017690495378659 #
edge $-1 $416 34.312074513571176 $419 42.66412399654314 $335 $452 forward 7 unknown #
vertex $-1 $349 $453 #
straight-curve $-1 -93.460674087695381 13.318433216323868 12.371091450707688 -1 0 0 I I #
edge $-1 $419 -9.591506845957575 $346 2.1376541052249891 $345 $454 forward 7 unknown #
vertex $-1 $418 $455 #
straight-curve $-1 -72.562028870509977 13.318433216323868 4.0190419677357028 0.61566146476048833 0 0.78801076186113728 I I #
point $-1 -66.036692837923241 13.318433216323868 12.371091450707684 #
point $-1 -72.562028870509963 1.5892722651413038 4.0190419677357205 #
straight-curve $-1 -72.562028870509963 0 12.371091450707684 0 -1 0 I I #
vertex $-1 $352 $456 #
point $-1 -67.524702691690848 3.9351044553778181 7.4430609340845946 #
vertex $-1 $356 $457 #
point $-1 -67.524702691690848 7.4538527407325859 7.4430609340845946 #
vertex $-1 $360 $458 #
point $-1 -67.524702691690848 10.972601026087354 7.4430609340845946 #
straight-curve $-1 -72.562028870509963 44.250281481255662 0 0 0 -1 I I #
straight-curve $-1 0 44.250281481255662 -12.371091450707684 1 0 0 I I #
point $-1 72.562028870509963 44.250281481255662 -12.371091450707684 #
straight-curve $-1 -72.562028870509963 0 12.371091450707684 0 -1 0 I I #
point $-1 -72.562028870509963 44.250281481255662 12.371091450707684 #
straight-curve $-1 72.562028870509963 44.250281481255662 0 0 0 -1 I I #
point $-1 -72.562028870509963 44.250281481255662 -12.371091450707684 #
edge $-1 $399 -1.6152604923722862 $438 1.6152604923722862 $383 $459 forward 7 unknown #
vertex $-1 $387 $460 #
straight-curve $-1 -72.562028870509963 -56.134729600675648 0 0 0 -1 I I #
straight-curve $-1 -72.562028870509963 0 -12.371091450707684 0 1 0 I I #
straight-curve $-1 -70.946768378137676 -56.134729600675648 12.371091450707684 1 0 0 I I #
point $-1 -72.562028870509963 -56.134729600675648 12.371091450707684 #
point $-1 -69.33150788576539 -56.134729600675648 12.371091450707684 #
straight-curve $-1 -69.33150788576539 -56.134729600675648 0 0 0 -1 I I #
point $-1 -69.33150788576539 -56.134729600675648 -12.371091450707684 #
straight-curve $-1 72.562028870509963 -14.816589802275402 104.75696250313676 0 0 -1 I I #
point $-1 72.562028870509963 -14.816589802275402 12.371091450707684 #
straight-curve $-1 72.562028870509977 -4.7463016962062632 6.804315555138956 0 1 0 I I #
point $-1 72.562028870509963 -14.816589802275402 6.8043155551389418 #
point $-1 67.459208779766428 -11.774311853782329 7.3495381376740179 #
point $-1 67.459208779766428 -7.2108949310427235 7.3495381376740179 #
straight-curve $-1 -72.562028870509963 13.318433216323868 46.683165964278857 0 0 -1 I I #
point $-1 -72.562028870509963 13.318433216323868 12.371091450707684 #
straight-curve $-1 -72.562028870509963 3.7269263703662929 4.0190419677357365 0 -1 0 I I #
point $-1 -72.562028870509963 13.318433216323868 4.0190419677357205 #
point $-1 -67.438528043140522 3.9351044553778181 6.7412248207737813 #
point $-1 -67.438528043140522 7.4538527407325859 6.7412248207737813 #
point $-1 -67.438528043140522 10.972601026087354 6.7412248207737813 #
straight-curve $-1 -70.946768378137676 -56.134729600675648 -12.371091450707684 -1 0 0 I I #
point $-1 -72.562028870509963 -56.134729600675648 -12.371091450707684 #
End-of-ACIS-data 