500 0 13 0           
7 Unknown 11 ACIS 5.0 NT 24 Thu Mar 25 15:11:38 1999 
-1 9.9999999999999995e-007 1e-010 
body $-1 $13 $-1 $14 #
body $-1 $15 $-1 $16 #
body $-1 $17 $-1 $18 #
body $-1 $19 $-1 $20 #
body $-1 $21 $-1 $22 #
body $-1 $23 $-1 $24 #
body $-1 $25 $-1 $26 #
body $-1 $27 $-1 $28 #
body $-1 $29 $-1 $30 #
body $-1 $31 $-1 $32 #
body $-1 $33 $-1 $34 #
body $-1 $35 $-1 $36 #
body $-1 $37 $-1 $38 #
lump $-1 $-1 $39 $0 #
transform $-1 1 0 0 0 1 0 0 0 1 48.718527787102879 30.359759344559766 10.570184714210674 1 rotate no_reflect no_shear #
lump $-1 $-1 $40 $1 #
transform $-1 1 0 0 0 1 0 0 0 1 48.718527787102879 30.359759344559766 10.570184714210674 1 rotate no_reflect no_shear #
lump $-1 $-1 $41 $2 #
transform $-1 1 0 0 0 1 0 0 0 1 48.718527787102879 30.359759344559766 10.570184714210674 1 rotate no_reflect no_shear #
lump $-1 $-1 $42 $3 #
transform $-1 1 0 0 0 1 0 0 0 1 48.718527787102879 30.359759344559766 10.570184714210674 1 rotate no_reflect no_shear #
lump $-1 $-1 $43 $4 #
transform $-1 1 0 0 0 1 0 0 0 1 48.718527787102879 30.359759344559766 10.570184714210674 1 rotate no_reflect no_shear #
lump $-1 $-1 $44 $5 #
transform $-1 1 0 0 0 1 0 0 0 1 48.718527787102879 30.359759344559766 10.570184714210674 1 rotate no_reflect no_shear #
lump $-1 $-1 $45 $6 #
transform $-1 1 0 0 0 1 0 0 0 1 48.718527787102879 30.359759344559766 10.570184714210674 1 rotate no_reflect no_shear #
lump $-1 $-1 $46 $7 #
transform $-1 1 0 0 0 1 0 0 0 1 48.718527787102879 30.359759344559766 10.570184714210674 1 rotate no_reflect no_shear #
lump $-1 $-1 $47 $8 #
transform $-1 1 0 0 0 1 0 0 0 1 48.718527787102879 30.359759344559766 10.570184714210674 1 rotate no_reflect no_shear #
lump $-1 $-1 $48 $9 #
transform $-1 1 0 0 0 1 0 0 0 1 48.718527787102879 30.359759344559766 10.570184714210674 1 rotate no_reflect no_shear #
lump $-1 $-1 $49 $10 #
transform $-1 1 0 0 0 1 0 0 0 1 48.718527787102879 30.359759344559766 10.570184714210674 1 rotate no_reflect no_shear #
lump $-1 $-1 $50 $11 #
transform $-1 1 0 0 0 1 0 0 0 1 48.718527787102879 30.359759344559766 10.570184714210674 1 rotate no_reflect no_shear #
lump $-1 $-1 $51 $12 #
transform $-1 1 0 0 0 1 0 0 0 1 48.718527787102879 30.359759344559766 10.570184714210674 1 rotate no_reflect no_shear #
shell $-1 $-1 $-1 $52 $-1 $13 #
shell $-1 $-1 $-1 $53 $-1 $15 #
shell $-1 $-1 $-1 $54 $-1 $17 #
shell $-1 $-1 $-1 $55 $-1 $19 #
shell $-1 $-1 $-1 $56 $-1 $21 #
shell $-1 $-1 $-1 $57 $-1 $23 #
shell $-1 $-1 $-1 $58 $-1 $25 #
shell $-1 $-1 $-1 $59 $-1 $27 #
shell $-1 $-1 $-1 $60 $-1 $29 #
shell $-1 $-1 $-1 $61 $-1 $31 #
shell $-1 $-1 $-1 $62 $-1 $33 #
shell $-1 $-1 $-1 $63 $-1 $35 #
shell $-1 $-1 $-1 $64 $-1 $37 #
face $-1 $65 $66 $39 $-1 $67 forward single #
face $-1 $68 $69 $40 $-1 $70 forward single #
face $-1 $71 $72 $41 $-1 $73 forward single #
face $-1 $74 $75 $42 $-1 $76 reversed single #
face $-1 $77 $78 $43 $-1 $79 forward single #
face $-1 $80 $81 $44 $-1 $82 forward single #
face $-1 $83 $84 $45 $-1 $85 forward single #
face $-1 $86 $87 $46 $-1 $88 reversed single #
face $-1 $89 $90 $47 $-1 $91 forward single #
face $-1 $92 $93 $48 $-1 $94 forward single #
face $-1 $95 $96 $49 $-1 $97 reversed single #
face $-1 $98 $99 $50 $-1 $100 forward single #
face $-1 $101 $102 $51 $-1 $103 forward single #
face $-1 $104 $105 $39 $-1 $106 reversed single #
loop $-1 $-1 $107 $52 #
plane-surface $-1 0 0 10.570184714210674 0 0 1 1 0 0 forward_v I I I I #
face $-1 $108 $109 $40 $-1 $110 reversed single #
loop $-1 $-1 $111 $53 #
plane-surface $-1 0 -23.412499231358865 6.5899622127789268 0 0 1 1 0 0 forward_v I I I I #
face $-1 $112 $113 $41 $-1 $114 reversed single #
loop $-1 $-1 $115 $54 #
plane-surface $-1 0 23.412499231358861 6.5899622127789268 0 0 1 1 0 0 forward_v I I I I #
face $-1 $116 $117 $42 $-1 $118 reversed single #
loop $-1 $-1 $119 $55 #
plane-surface $-1 82.054594208094926 2.6747849230650225 140.79745023522577 0 1 0 0.85716730853699208 0 0.51503806187062418 forward_v I I I I #
face $-1 $120 $121 $43 $-1 $122 forward single #
loop $-1 $123 $124 $56 #
cone-surface $-1 46.986560423169422 4.2924969449988346 8.4188667851963359 -0.85716730853699208 0 -0.51503806187062418 0.25751903093531209 0 -0.42858365426849604 1 I I 0 1 0.5 forward I I I I #
face $-1 $125 $126 $44 $-1 $127 forward single #
loop $-1 $128 $129 $57 #
cone-surface $-1 46.986560423169422 6.7190649778995457 8.4188667851963359 -0.85716730853699208 0 -0.51503806187062418 0.25751903093531209 0 -0.42858365426849604 1 I I 0 1 0.5 forward I I I I #
face $-1 $130 $131 $45 $-1 $132 forward single #
loop $-1 $133 $134 $58 #
cone-surface $-1 46.986560423169422 9.1456330108002639 8.4188667851963359 -0.85716730853699208 0 -0.51503806187062418 0.25751903093531209 0 -0.42858365426849604 1 I I 0 1 0.5 forward I I I I #
face $-1 $135 $136 $46 $-1 $137 reversed single #
loop $-1 $-1 $138 $59 #
plane-surface $-1 -128.53429184274989 -9.2056047973872737 62.435702631731893 0 -1 0 0.81915205242281985 0 -0.57357642473473569 forward_v I I I I #
face $-1 $139 $140 $47 $-1 $141 forward single #
loop $-1 $142 $143 $60 #
cone-surface $-1 -46.64180742190198 -14.391057883652051 8.0910034313091703 0.81915205242281985 0 -0.57357642473473569 0.28678821236736785 0 0.40957602621140993 1 I I 0 1 0.5 forward I I I I #
face $-1 $144 $145 $48 $-1 $146 forward single #
loop $-1 $147 $148 $61 #
cone-surface $-1 -46.64180742190198 -11.279786031893185 8.0910034313091703 0.81915205242281985 0 -0.57357642473473569 0.28678821236736785 0 0.40957602621140993 1 I I 0 1 0.5 forward I I I I #
face $-1 $149 $150 $49 $-1 $151 reversed single #
loop $-1 $-1 $152 $62 #
plane-surface $-1 -128.53429184274989 2.6645352591003757e-015 62.435702631731893 0 1 0 -0.81915205242281985 0 0.57357642473473569 forward_v I I I I #
face $-1 $153 $154 $50 $-1 $155 forward single #
loop $-1 $156 $157 $63 #
cone-surface $-1 -46.64180742190198 2.074181234505911 8.0910034313091703 0.81915205242281985 0 -0.57357642473473569 0.28678821236736785 0 0.40957602621140993 1 I I 0 1 0.5 forward I I I I #
face $-1 $158 $159 $51 $-1 $160 forward single #
loop $-1 $161 $162 $64 #
cone-surface $-1 -46.64180742190198 5.1854530862647827 8.0910034313091703 0.81915205242281985 0 -0.57357642473473569 0.28678821236736785 0 0.40957602621140993 1 I I 0 1 0.5 forward I I I I #
face $-1 $163 $164 $39 $-1 $165 reversed single #
loop $-1 $-1 $166 $65 #
plane-surface $-1 0 0 -10.570184714210674 0 0 1 1 0 0 forward_v I I I I #
coedge $-1 $167 $168 $169 $170 forward $66 $-1 #
face $-1 $171 $172 $40 $-1 $173 reversed single #
loop $-1 $-1 $174 $68 #
plane-surface $-1 0 -23.412499231358865 0.77508640414771968 0 0 1 1 0 0 forward_v I I I I #
coedge $-1 $175 $176 $177 $178 reversed $69 $-1 #
face $-1 $179 $180 $41 $-1 $181 reversed single #
loop $-1 $-1 $182 $71 #
plane-surface $-1 0 23.412499231358861 0.77508640414771968 0 0 1 1 0 0 forward_v I I I I #
coedge $-1 $183 $184 $185 $186 reversed $72 $-1 #
face $-1 $187 $188 $42 $-1 $189 reversed single #
loop $-1 $-1 $190 $74 #
plane-surface $-1 -1.46526447021634 6.7190649778995457 90.613657977906541 0.85716730853699208 0 0.51503806187062418 0.51503806187062418 0 -0.85716730853699208 forward_v I I I I #
coedge $-1 $191 $192 $193 $194 reversed $75 $-1 #
face $-1 $-1 $195 $43 $-1 $196 forward single #
loop $-1 $197 $198 $77 #
cone-surface $-1 46.084712742215636 4.2924969449988346 7.876982048022052 -0.85716730853699208 0 -0.51503806187062418 0.12875951546765604 0 -0.21429182713424802 1 I I -0.70710678118654746 0.70710678118654746 0.25 forward I I I I #
loop $-1 $-1 $199 $56 #
coedge $-1 $124 $124 $200 $201 reversed $78 $-1 #
face $-1 $-1 $202 $44 $-1 $203 forward single #
loop $-1 $204 $205 $80 #
cone-surface $-1 46.084712742215636 6.7190649778995457 7.876982048022052 -0.85716730853699208 0 -0.51503806187062418 0.12875951546765604 0 -0.21429182713424802 1 I I -0.70710678118654746 0.70710678118654746 0.25 forward I I I I #
loop $-1 $-1 $206 $57 #
coedge $-1 $129 $129 $207 $208 reversed $81 $-1 #
face $-1 $-1 $209 $45 $-1 $210 forward single #
loop $-1 $211 $212 $83 #
cone-surface $-1 46.084712742215636 9.1456330108002639 7.876982048022052 -0.85716730853699208 0 -0.51503806187062418 0.12875951546765604 0 -0.21429182713424802 1 I I -0.70710678118654746 0.70710678118654746 0.25 forward I I I I #
loop $-1 $-1 $213 $58 #
coedge $-1 $134 $134 $214 $215 reversed $84 $-1 #
face $-1 $216 $217 $46 $-1 $218 forward single #
loop $-1 $-1 $219 $86 #
plane-surface $-1 -48.718527787102886 -12.835421957772617 6.548104658799204 -0.81915205242281985 0 0.57357642473473569 0.57357642473473569 0 0.81915205242281985 forward_v I I I I #
coedge $-1 $220 $221 $222 $223 reversed $87 $-1 #
face $-1 $-1 $224 $47 $-1 $225 forward single #
loop $-1 $226 $227 $89 #
cone-surface $-1 -45.768444388135769 -14.391057883652051 7.4794680699297214 0.81915205242281985 0 -0.57357642473473569 0.14339410618368392 0 0.20478801310570496 1 I I -0.70710678118654746 0.70710678118654746 0.25 forward I I I I #
loop $-1 $-1 $228 $60 #
coedge $-1 $143 $143 $229 $230 reversed $90 $-1 #
face $-1 $-1 $231 $48 $-1 $232 forward single #
loop $-1 $233 $234 $92 #
cone-surface $-1 -45.768444388135769 -11.279786031893185 7.4794680699297214 0.81915205242281985 0 -0.57357642473473569 0.14339410618368392 0 0.20478801310570496 1 I I -0.70710678118654746 0.70710678118654746 0.25 forward I I I I #
loop $-1 $-1 $235 $61 #
coedge $-1 $148 $148 $236 $237 reversed $93 $-1 #
face $-1 $238 $239 $49 $-1 $240 reversed single #
loop $-1 $-1 $241 $95 #
plane-surface $-1 -48.718527787102886 3.6298171603853469 6.548104658799204 -0.81915205242281985 0 0.57357642473473569 0.57357642473473569 0 0.81915205242281985 forward_v I I I I #
coedge $-1 $242 $243 $244 $245 reversed $96 $-1 #
face $-1 $-1 $246 $50 $-1 $247 forward single #
loop $-1 $248 $249 $98 #
cone-surface $-1 -45.768444388135769 2.074181234505911 7.4794680699297214 0.81915205242281985 0 -0.57357642473473569 0.14339410618368392 0 0.20478801310570496 1 I I -0.70710678118654746 0.70710678118654746 0.25 forward I I I I #
loop $-1 $-1 $250 $63 #
coedge $-1 $157 $157 $251 $252 reversed $99 $-1 #
face $-1 $-1 $253 $51 $-1 $254 forward single #
loop $-1 $255 $256 $101 #
cone-surface $-1 -45.768444388135769 5.1854530862647827 7.4794680699297214 0.81915205242281985 0 -0.57357642473473569 0.14339410618368392 0 0.20478801310570496 1 I I -0.70710678118654746 0.70710678118654746 0.25 forward I I I I #
loop $-1 $-1 $257 $64 #
coedge $-1 $162 $162 $258 $259 reversed $102 $-1 #
face $-1 $260 $261 $39 $-1 $262 reversed single #
loop $-1 $-1 $263 $104 #
plane-surface $-1 0 -30.359759344559766 0 0 1 0 0 0 1 forward_v I I I I #
coedge $-1 $264 $265 $266 $267 forward $105 $-1 #
coedge $-1 $268 $107 $269 $270 forward $66 $-1 #
coedge $-1 $107 $268 $271 $272 forward $66 $-1 #
coedge $-1 $273 $274 $107 $170 reversed $275 $-1 #
edge $-1 $276 -30.359759344559766 $277 30.359759344559766 $169 $278 forward 7 unknown #
face $-1 $279 $280 $40 $-1 $281 reversed single #
loop $-1 $-1 $282 $108 #
plane-surface $-1 0 -16.465239118157964 3.6825243084633232 0 -1 0 0 0 -1 forward_v I I I I #
coedge $-1 $283 $284 $285 $286 reversed $109 $-1 #
coedge $-1 $287 $111 $282 $288 forward $69 $-1 #
coedge $-1 $111 $287 $289 $290 reversed $69 $-1 #
coedge $-1 $291 $292 $111 $178 forward $293 $-1 #
edge $-1 $294 4.7589895024785314 $295 18.653509728880334 $177 $296 forward 7 unknown #
face $-1 $297 $298 $41 $-1 $299 reversed single #
loop $-1 $-1 $300 $112 #
plane-surface $-1 0 16.46523911815796 3.6825243084633232 0 1 0 0 0 1 forward_v I I I I #
coedge $-1 $301 $302 $303 $304 reversed $113 $-1 #
coedge $-1 $305 $115 $306 $307 reversed $72 $-1 #
coedge $-1 $115 $305 $308 $309 forward $72 $-1 #
coedge $-1 $310 $311 $115 $186 forward $298 $-1 #
edge $-1 $312 -18.65350972888033 $313 -4.7589895024785296 $185 $314 forward 7 unknown #
face $-1 $315 $316 $42 $-1 $317 forward single #
loop $-1 $-1 $318 $116 #
plane-surface $-1 82.054594208094926 10.763345032734069 140.79745023522577 0 -1 0 -0.85716730853699208 0 -0.51503806187062418 forward_v I I I I #
coedge $-1 $319 $320 $321 $322 reversed $117 $-1 #
coedge $-1 $192 $119 $323 $324 reversed $75 $-1 #
coedge $-1 $119 $191 $319 $325 reversed $75 $-1 #
coedge $-1 $321 $326 $119 $194 forward $327 $-1 #
edge $-1 $328 59.828540403402208 $329 63.304925818017594 $193 $330 forward 7 unknown #
loop $-1 $-1 $200 $120 #
plane-surface $-1 -1.46526447021634 6.7190649778995457 90.613657977906541 0.85716730853699208 0 0.51503806187062418 0.51503806187062418 0 -0.85716730853699208 forward_v I I I I #
loop $-1 $-1 $331 $77 #
coedge $-1 $198 $198 $199 $332 reversed $121 $-1 #
coedge $-1 $199 $199 $198 $332 forward $123 $-1 #
coedge $-1 $200 $200 $124 $201 forward $195 $-1 #
edge $-1 $333 0 $333 6.2831853071796004 $200 $334 forward 7 unknown #
loop $-1 $-1 $207 $125 #
plane-surface $-1 -1.46526447021634 6.7190649778995457 90.613657977906541 0.85716730853699208 0 0.51503806187062418 0.51503806187062418 0 -0.85716730853699208 forward_v I I I I #
loop $-1 $-1 $335 $80 #
coedge $-1 $205 $205 $206 $336 reversed $126 $-1 #
coedge $-1 $206 $206 $205 $336 forward $128 $-1 #
coedge $-1 $207 $207 $129 $208 forward $202 $-1 #
edge $-1 $337 0 $337 6.2831853071796004 $207 $338 forward 7 unknown #
loop $-1 $-1 $214 $130 #
plane-surface $-1 -1.46526447021634 6.7190649778995457 90.613657977906541 0.85716730853699208 0 0.51503806187062418 0.51503806187062418 0 -0.85716730853699208 forward_v I I I I #
loop $-1 $-1 $339 $83 #
coedge $-1 $212 $212 $213 $340 reversed $131 $-1 #
coedge $-1 $213 $213 $212 $340 forward $133 $-1 #
coedge $-1 $214 $214 $134 $215 forward $209 $-1 #
edge $-1 $341 0 $341 6.2831853071796004 $214 $342 forward 7 unknown #
face $-1 $343 $344 $46 $-1 $345 reversed single #
loop $-1 $-1 $346 $135 #
plane-surface $-1 0 0 10.570184714210674 0 0 1 1 0 0 forward_v I I I I #
coedge $-1 $347 $348 $349 $350 reversed $136 $-1 #
coedge $-1 $221 $138 $351 $352 reversed $87 $-1 #
coedge $-1 $138 $220 $347 $353 reversed $87 $-1 #
coedge $-1 $349 $354 $138 $223 forward $344 $-1 #
edge $-1 $355 20.647666601655274 $356 24.669746657066732 $222 $357 forward 7 unknown #
loop $-1 $-1 $229 $139 #
plane-surface $-1 -48.718527787102886 -12.835421957772617 6.548104658799204 -0.81915205242281985 0 0.57357642473473569 0.57357642473473569 0 0.81915205242281985 forward_v I I I I #
loop $-1 $-1 $358 $89 #
coedge $-1 $227 $227 $228 $359 reversed $140 $-1 #
coedge $-1 $228 $228 $227 $359 forward $142 $-1 #
coedge $-1 $229 $229 $143 $230 forward $224 $-1 #
edge $-1 $360 0 $360 6.2831853071796004 $229 $361 forward 7 unknown #
loop $-1 $-1 $236 $144 #
plane-surface $-1 -48.718527787102886 -12.835421957772617 6.548104658799204 -0.81915205242281985 0 0.57357642473473569 0.57357642473473569 0 0.81915205242281985 forward_v I I I I #
loop $-1 $-1 $362 $92 #
coedge $-1 $234 $234 $235 $363 reversed $145 $-1 #
coedge $-1 $235 $235 $234 $363 forward $147 $-1 #
coedge $-1 $236 $236 $148 $237 forward $231 $-1 #
edge $-1 $364 0 $364 6.2831853071796004 $236 $365 forward 7 unknown #
face $-1 $366 $367 $49 $-1 $368 reversed single #
loop $-1 $-1 $369 $149 #
plane-surface $-1 -128.53429184274989 7.259634320770691 62.435702631731893 0 -1 0 0.81915205242281985 0 -0.57357642473473569 forward_v I I I I #
coedge $-1 $370 $371 $372 $373 reversed $150 $-1 #
coedge $-1 $243 $152 $374 $375 reversed $96 $-1 #
coedge $-1 $152 $242 $370 $376 reversed $96 $-1 #
coedge $-1 $372 $377 $152 $245 forward $378 $-1 #
edge $-1 $379 15.548618134272068 $380 18.364908823352842 $244 $381 forward 7 unknown #
loop $-1 $-1 $251 $153 #
plane-surface $-1 -48.718527787102886 3.6298171603853469 6.548104658799204 -0.81915205242281985 0 0.57357642473473569 0.57357642473473569 0 0.81915205242281985 forward_v I I I I #
loop $-1 $-1 $382 $98 #
coedge $-1 $249 $249 $250 $383 reversed $154 $-1 #
coedge $-1 $250 $250 $249 $383 forward $156 $-1 #
coedge $-1 $251 $251 $157 $252 forward $246 $-1 #
edge $-1 $384 0 $384 6.2831853071796004 $251 $385 forward 7 unknown #
loop $-1 $-1 $258 $158 #
plane-surface $-1 -48.718527787102886 3.6298171603853469 6.548104658799204 -0.81915205242281985 0 0.57357642473473569 0.57357642473473569 0 0.81915205242281985 forward_v I I I I #
loop $-1 $-1 $386 $101 #
coedge $-1 $256 $256 $257 $387 reversed $159 $-1 #
coedge $-1 $257 $257 $256 $387 forward $161 $-1 #
coedge $-1 $258 $258 $162 $259 forward $253 $-1 #
edge $-1 $388 0 $388 6.2831853071796004 $258 $389 forward 7 unknown #
face $-1 $390 $391 $39 $-1 $392 reversed single #
loop $-1 $-1 $393 $163 #
plane-surface $-1 -48.718527787102879 0 0 1 0 0 0 0 -1 forward_v I I I I #
coedge $-1 $394 $271 $395 $396 forward $164 $-1 #
coedge $-1 $397 $166 $394 $398 forward $105 $-1 #
coedge $-1 $166 $397 $399 $400 forward $105 $-1 #
coedge $-1 $274 $273 $166 $267 reversed $275 $-1 #
edge $-1 $401 -30.359759344559766 $402 30.359759344559766 $266 $403 forward 7 unknown #
coedge $-1 $168 $167 $404 $405 forward $66 $-1 #
coedge $-1 $406 $407 $167 $270 reversed $391 $-1 #
edge $-1 $277 -48.718527787102879 $408 48.718527787102879 $269 $409 forward 7 unknown #
coedge $-1 $263 $410 $168 $272 reversed $164 $-1 #
edge $-1 $411 -48.718527787102879 $276 48.718527787102879 $271 $412 forward 7 unknown #
coedge $-1 $266 $169 $410 $413 forward $275 $-1 #
coedge $-1 $169 $266 $406 $414 reversed $275 $-1 #
loop $-1 $-1 $273 $390 #
vertex $-1 $170 $415 #
vertex $-1 $170 $416 #
straight-curve $-1 48.718527787102879 0 10.570184714210674 0 1 0 I I #
face $-1 $417 $418 $40 $-1 $419 reversed single #
loop $-1 $-1 $420 $171 #
plane-surface $-1 -48.718527787102879 0 0 1 0 0 0 0 -1 forward_v I I I I #
coedge $-1 $421 $422 $175 $288 reversed $172 $-1 #
coedge $-1 $423 $174 $424 $425 reversed $109 $-1 #
coedge $-1 $174 $423 $426 $427 forward $109 $-1 #
coedge $-1 $292 $291 $174 $286 forward $293 $-1 #
edge $-1 $428 -18.653509728880334 $429 -4.7589895024785314 $285 $430 forward 7 unknown #
coedge $-1 $176 $175 $420 $431 reversed $69 $-1 #
edge $-1 $294 -48.718527787102879 $432 48.718527787102879 $282 $433 forward 7 unknown #
coedge $-1 $434 $435 $176 $290 forward $418 $-1 #
edge $-1 $295 -48.718527787102879 $436 48.718527787102879 $289 $437 forward 7 unknown #
coedge $-1 $285 $177 $435 $438 forward $293 $-1 #
coedge $-1 $177 $285 $421 $439 forward $293 $-1 #
loop $-1 $-1 $177 $417 #
vertex $-1 $178 $440 #
vertex $-1 $438 $441 #
straight-curve $-1 48.718527787102879 -11.706249615679432 6.5899622127789268 0 -1 0 I I #
face $-1 $442 $443 $41 $-1 $444 reversed single #
loop $-1 $-1 $185 $179 #
plane-surface $-1 48.718527787102879 0 0 -1 0 0 0 0 1 forward_v I I I I #
coedge $-1 $445 $308 $446 $447 reversed $180 $-1 #
coedge $-1 $448 $182 $445 $449 forward $113 $-1 #
coedge $-1 $182 $448 $450 $451 reversed $113 $-1 #
coedge $-1 $311 $310 $182 $304 forward $298 $-1 #
edge $-1 $452 4.7589895024785296 $453 18.65350972888033 $303 $454 forward 7 unknown #
coedge $-1 $184 $183 $455 $456 reversed $72 $-1 #
coedge $-1 $457 $458 $183 $307 forward $459 $-1 #
edge $-1 $460 -48.718527787102879 $312 48.718527787102879 $306 $461 forward 7 unknown #
coedge $-1 $300 $462 $184 $309 reversed $180 $-1 #
edge $-1 $463 -48.718527787102879 $313 48.718527787102879 $308 $464 forward 7 unknown #
coedge $-1 $303 $185 $462 $465 forward $298 $-1 #
coedge $-1 $185 $303 $457 $466 reversed $298 $-1 #
vertex $-1 $466 $467 #
vertex $-1 $186 $468 #
straight-curve $-1 48.718527787102879 11.706249615679431 6.5899622127789268 0 -1 0 I I #
face $-1 $-1 $327 $42 $-1 $469 reversed single #
loop $-1 $-1 $470 $187 #
plane-surface $-1 0 0 10.570184714210674 0 0 1 1 0 0 forward_v I I I I #
coedge $-1 $471 $472 $473 $474 reversed $188 $-1 #
coedge $-1 $475 $190 $192 $325 forward $117 $-1 #
coedge $-1 $190 $475 $471 $476 forward $117 $-1 #
coedge $-1 $473 $193 $190 $322 forward $327 $-1 #
edge $-1 $329 -0.68474756588475039 $477 7.4038125437842961 $321 $478 forward 7 unknown #
coedge $-1 $479 $480 $191 $324 forward $316 $-1 #
edge $-1 $481 5.6024076628275807 $328 7.6912306830554158 $323 $482 forward 7 unknown #
edge $-1 $329 -97.437055574205758 $481 -93.381388284993747 $192 $483 forward 7 unknown #
coedge $-1 $193 $473 $479 $484 reversed $327 $-1 #
loop $-1 $-1 $473 $315 #
vertex $-1 $484 $485 #
vertex $-1 $194 $486 #
straight-curve $-1 48.718527787102879 2.6747849230650225 70.398725117612884 0 0 -1 I I #
coedge $-1 $331 $331 $-1 $487 reversed $197 $-1 #
edge $-1 $488 0 $488 6.2831853071796004 $198 $489 forward 7 unknown #
vertex $-1 $201 $490 #
ellipse-curve $-1 47.674116276988961 4.2924969449988346 8.8319920069029632 0.85716730853699208 0 0.51503806187062418 0.25751903093531209 0 -0.42858365426849604 1 I I #
coedge $-1 $335 $335 $-1 $491 reversed $204 $-1 #
edge $-1 $492 0 $492 6.2831853071796004 $205 $493 forward 7 unknown #
vertex $-1 $208 $494 #
ellipse-curve $-1 47.674116276988961 6.7190649778995457 8.8319920069029632 0.85716730853699208 0 0.51503806187062418 0.25751903093531209 0 -0.42858365426849604 1 I I #
coedge $-1 $339 $339 $-1 $495 reversed $211 $-1 #
edge $-1 $496 0 $496 6.2831853071796004 $212 $497 forward 7 unknown #
vertex $-1 $215 $498 #
ellipse-curve $-1 47.674116276988961 9.1456330108002639 8.8319920069029632 0.85716730853699208 0 0.51503806187062418 0.25751903093531209 0 -0.42858365426849604 1 I I #
face $-1 $-1 $499 $46 $-1 $500 forward single #
loop $-1 $-1 $501 $216 #
plane-surface $-1 -48.718527787102879 0 0 1 0 0 0 0 -1 forward_v I I I I #
coedge $-1 $502 $503 $504 $505 forward $217 $-1 #
coedge $-1 $506 $219 $221 $353 forward $136 $-1 #
coedge $-1 $219 $506 $507 $508 forward $136 $-1 #
coedge $-1 $501 $222 $219 $350 forward $344 $-1 #
edge $-1 $356 2.7878938185009652 $509 10.047528139271652 $349 $510 forward 7 unknown #
coedge $-1 $503 $502 $220 $352 forward $217 $-1 #
edge $-1 $511 -18.364908823352842 $355 -15.548618134272068 $351 $512 forward 7 unknown #
edge $-1 $356 1.207859054955032e-014 $511 4.9100530768558741 $221 $513 forward 7 unknown #
coedge $-1 $222 $501 $503 $514 reversed $344 $-1 #
vertex $-1 $514 $515 #
vertex $-1 $223 $516 #
straight-curve $-1 -48.718527787102879 -9.2056047973872737 31.217851315865946 0 0 -1 I I #
coedge $-1 $358 $358 $-1 $517 reversed $226 $-1 #
edge $-1 $518 0 $518 6.2831853071796004 $227 $519 forward 7 unknown #
vertex $-1 $230 $520 #
ellipse-curve $-1 -47.310382442562492 -14.391057883652051 8.5591446865049399 -0.81915205242281985 0 0.57357642473473569 0.28678821236736785 0 0.40957602621140993 1 I I #
coedge $-1 $362 $362 $-1 $521 reversed $233 $-1 #
edge $-1 $522 0 $522 6.2831853071796004 $234 $523 forward 7 unknown #
vertex $-1 $237 $524 #
ellipse-curve $-1 -47.310382442562492 -11.279786031893185 8.5591446865049399 -0.81915205242281985 0 0.57357642473473569 0.28678821236736785 0 0.40957602621140993 1 I I #
face $-1 $-1 $378 $49 $-1 $525 forward single #
loop $-1 $-1 $526 $238 #
plane-surface $-1 -48.718527787102879 0 0 1 0 0 0 0 -1 forward_v I I I I #
coedge $-1 $527 $528 $529 $530 reversed $239 $-1 #
coedge $-1 $531 $241 $243 $376 forward $150 $-1 #
coedge $-1 $241 $531 $527 $532 forward $150 $-1 #
coedge $-1 $529 $244 $241 $373 forward $378 $-1 #
edge $-1 $380 -1.8149085801926708 $533 5.4447257405780176 $372 $534 forward 7 unknown #
coedge $-1 $535 $536 $242 $375 forward $367 $-1 #
edge $-1 $537 -24.669746657066732 $379 -20.647666601655274 $374 $538 forward 7 unknown #
edge $-1 $380 -4.9100530768558741 $537 -1.207859054955032e-014 $243 $539 forward 7 unknown #
coedge $-1 $244 $529 $535 $540 forward $378 $-1 #
loop $-1 $-1 $529 $366 #
vertex $-1 $375 $541 #
vertex $-1 $245 $542 #
straight-curve $-1 -64.267145921374947 2.6645352591003757e-015 10.570184714210676 1 0 0 I I #
coedge $-1 $382 $382 $-1 $543 reversed $248 $-1 #
edge $-1 $544 0 $544 6.2831853071796004 $249 $545 forward 7 unknown #
vertex $-1 $252 $546 #
ellipse-curve $-1 -47.310382442562492 2.074181234505911 8.5591446865049399 -0.81915205242281985 0 0.57357642473473569 0.28678821236736785 0 0.40957602621140993 1 I I #
coedge $-1 $386 $386 $-1 $547 reversed $255 $-1 #
edge $-1 $548 0 $548 6.2831853071796004 $256 $549 forward 7 unknown #
vertex $-1 $259 $550 #
ellipse-curve $-1 -47.310382442562492 5.1854530862647827 8.5591446865049399 -0.81915205242281985 0 0.57357642473473569 0.28678821236736785 0 0.40957602621140993 1 I I #
face $-1 $-1 $275 $39 $-1 $551 reversed single #
loop $-1 $-1 $406 $260 #
plane-surface $-1 0 30.359759344559766 0 0 -1 0 0 0 -1 forward_v I I I I #
coedge $-1 $552 $404 $407 $553 forward $261 $-1 #
coedge $-1 $410 $263 $264 $398 reversed $164 $-1 #
coedge $-1 $404 $552 $263 $396 reversed $261 $-1 #
edge $-1 $411 -10.570184714210674 $554 10.570184714210674 $395 $555 forward 7 unknown #
coedge $-1 $265 $264 $552 $556 forward $105 $-1 #
edge $-1 $402 -48.718527787102879 $554 48.718527787102879 $394 $557 forward 7 unknown #
coedge $-1 $407 $406 $265 $400 reversed $391 $-1 #
edge $-1 $558 -48.718527787102879 $401 48.718527787102879 $399 $559 forward 7 unknown #
vertex $-1 $267 $560 #
vertex $-1 $413 $561 #
straight-curve $-1 48.718527787102879 0 -10.570184714210674 0 -1 0 I I #
coedge $-1 $393 $395 $268 $405 reversed $261 $-1 #
edge $-1 $408 -30.359759344559766 $411 30.359759344559766 $404 $562 forward 7 unknown #
coedge $-1 $399 $269 $274 $414 forward $391 $-1 #
coedge $-1 $269 $399 $393 $553 reversed $391 $-1 #
vertex $-1 $270 $563 #
straight-curve $-1 0 30.359759344559766 10.570184714210674 -1 0 0 I I #
coedge $-1 $271 $394 $273 $413 reversed $164 $-1 #
vertex $-1 $405 $564 #
straight-curve $-1 0 -30.359759344559766 10.570184714210674 1 0 0 I I #
edge $-1 $276 -10.570184714210674 $402 10.570184714210674 $273 $565 forward 7 unknown #
edge $-1 $277 -10.570184714210674 $401 10.570184714210674 $274 $566 forward 7 unknown #
point $-1 48.718527787102879 -30.359759344559766 10.570184714210674 #
point $-1 48.718527787102879 30.359759344559766 10.570184714210674 #
face $-1 $-1 $293 $40 $-1 $567 reversed single #
loop $-1 $-1 $289 $279 #
plane-surface $-1 0 -30.359759344559766 0 0 1 0 0 0 1 forward_v I I I I #
coedge $-1 $568 $569 $287 $431 forward $280 $-1 #
coedge $-1 $426 $282 $292 $439 reversed $172 $-1 #
coedge $-1 $282 $426 $568 $570 reversed $172 $-1 #
coedge $-1 $284 $283 $571 $572 reversed $109 $-1 #
coedge $-1 $435 $434 $283 $425 forward $418 $-1 #
edge $-1 $573 -48.718527787102879 $428 48.718527787102879 $424 $574 forward 7 unknown #
coedge $-1 $422 $421 $284 $427 reversed $172 $-1 #
edge $-1 $575 -48.718527787102879 $429 48.718527787102879 $426 $576 forward 7 unknown #
vertex $-1 $425 $577 #
vertex $-1 $286 $578 #
straight-curve $-1 48.718527787102879 -11.706249615679432 0.77508640414771968 0 1 0 I I #
edge $-1 $436 -18.653509728880334 $432 -4.7589895024785314 $420 $579 forward 7 unknown #
vertex $-1 $431 $580 #
straight-curve $-1 0 -16.465239118157964 6.5899622127789268 -1 0 0 I I #
coedge $-1 $424 $289 $569 $581 forward $418 $-1 #
coedge $-1 $289 $424 $291 $438 reversed $418 $-1 #
vertex $-1 $581 $582 #
straight-curve $-1 0 -30.359759344559766 6.5899622127789268 -1 0 0 I I #
edge $-1 $295 -6.5899622127789268 $428 -0.77508640414771968 $291 $583 forward 7 unknown #
edge $-1 $429 -1.0661757500839419 $294 4.7487000585472652 $292 $584 forward 7 unknown #
point $-1 48.718527787102879 -16.465239118157964 6.5899622127789268 #
point $-1 48.718527787102879 -30.359759344559766 6.5899622127789268 #
face $-1 $-1 $459 $41 $-1 $585 reversed single #
loop $-1 $-1 $455 $297 #
plane-surface $-1 -48.718527787102879 0 0 1 0 0 0 0 -1 forward_v I I I I #
coedge $-1 $462 $300 $301 $449 reversed $180 $-1 #
coedge $-1 $455 $586 $300 $447 forward $443 $-1 #
edge $-1 $587 -1.0661757500839419 $463 4.7487000585472652 $446 $588 forward 7 unknown #
coedge $-1 $302 $301 $586 $589 reversed $113 $-1 #
edge $-1 $452 -48.718527787102879 $587 48.718527787102879 $445 $590 forward 7 unknown #
coedge $-1 $458 $457 $302 $451 forward $459 $-1 #
edge $-1 $453 -48.718527787102879 $591 48.718527787102879 $450 $592 forward 7 unknown #
vertex $-1 $304 $593 #
vertex $-1 $451 $594 #
straight-curve $-1 48.718527787102879 11.706249615679431 0.77508640414771968 0 1 0 I I #
coedge $-1 $595 $446 $305 $456 forward $443 $-1 #
edge $-1 $463 4.7589895024785296 $460 18.65350972888033 $455 $596 forward 7 unknown #
coedge $-1 $450 $306 $311 $466 forward $459 $-1 #
coedge $-1 $306 $450 $595 $597 reversed $459 $-1 #
loop $-1 $-1 $306 $442 #
vertex $-1 $597 $598 #
straight-curve $-1 0 30.359759344559766 6.5899622127789268 1 0 0 I I #
coedge $-1 $308 $445 $310 $465 reversed $180 $-1 #
vertex $-1 $456 $599 #
straight-curve $-1 0 16.46523911815796 6.5899622127789268 1 0 0 I I #
edge $-1 $313 -4.7487000585472652 $452 1.0661757500839419 $310 $600 forward 7 unknown #
edge $-1 $312 -6.5899622127789268 $453 -0.77508640414771968 $311 $601 forward 7 unknown #
point $-1 48.718527787102879 30.359759344559762 6.5899622127789268 #
point $-1 48.718527787102879 16.46523911815796 6.5899622127789268 #
plane-surface $-1 48.718527787102879 0 0 -1 0 0 0 0 1 forward_v I I I I #
coedge $-1 $480 $479 $472 $602 forward $316 $-1 #
coedge $-1 $472 $318 $320 $476 reversed $188 $-1 #
coedge $-1 $318 $471 $470 $602 reversed $188 $-1 #
coedge $-1 $326 $321 $318 $474 forward $327 $-1 #
edge $-1 $477 -63.304925818017594 $603 -59.828540403402208 $473 $604 forward 7 unknown #
coedge $-1 $320 $319 $480 $605 reversed $117 $-1 #
edge $-1 $606 93.381388284993747 $477 97.437055574205758 $471 $607 forward 7 unknown #
vertex $-1 $322 $608 #
straight-curve $-1 48.718527787102879 3.3595324889497729 7.0937992995952968 0 1 0 I I #
coedge $-1 $470 $323 $326 $484 forward $316 $-1 #
coedge $-1 $323 $470 $475 $605 forward $316 $-1 #
vertex $-1 $324 $609 #
straight-curve $-1 41.027297104047463 2.6747849230650225 10.570184714210669 1 0 0 I I #
straight-curve $-1 -1.46526447021634 2.6747849230650225 90.613657977906541 -0.51503806187062418 0 0.85716730853699208 I I #
edge $-1 $328 2.6747849230650225 $603 10.763345032734069 $326 $610 forward 7 unknown #
point $-1 48.718527787102879 2.6747849230650225 10.570184714210674 #
point $-1 48.718527787102879 2.6747849230650225 7.0937992995952897 #
edge $-1 $611 1 $611 0 $331 $-1 forward 7 unknown #
vertex $-1 $332 $612 #
ellipse-curve $-1 46.299004569349883 4.2924969449988346 8.0057415634897087 0.85716730853699208 0 0.51503806187062418 0.25751903093531209 0 -0.42858365426849604 1 I I #
point $-1 47.931635307924275 4.2924969449988346 8.4034083526344681 #
edge $-1 $613 1 $613 0 $335 $-1 forward 7 unknown #
vertex $-1 $336 $614 #
ellipse-curve $-1 46.299004569349883 6.7190649778995457 8.0057415634897087 0.85716730853699208 0 0.51503806187062418 0.25751903093531209 0 -0.42858365426849604 1 I I #
point $-1 47.931635307924275 6.7190649778995457 8.4034083526344681 #
edge $-1 $615 1 $615 0 $339 $-1 forward 7 unknown #
vertex $-1 $340 $616 #
ellipse-curve $-1 46.299004569349883 9.1456330108002639 8.0057415634897087 0.85716730853699208 0 0.51503806187062418 0.25751903093531209 0 -0.42858365426849604 1 I I #
point $-1 47.931635307924275 9.1456330108002639 8.4034083526344681 #
loop $-1 $-1 $507 $343 #
plane-surface $-1 0 -16.465239118157964 3.6825243084633232 0 -1 0 0 0 -1 forward_v I I I I #
coedge $-1 $354 $349 $617 $618 forward $344 $-1 #
coedge $-1 $351 $346 $506 $619 forward $217 $-1 #
coedge $-1 $346 $351 $354 $514 forward $217 $-1 #
coedge $-1 $617 $507 $346 $505 reversed $499 $-1 #
edge $-1 $620 15.548618134272068 $621 18.364908823352842 $346 $622 forward 7 unknown #
coedge $-1 $348 $347 $502 $619 reversed $136 $-1 #
coedge $-1 $504 $617 $348 $508 reversed $499 $-1 #
edge $-1 $621 -4.9100530768558741 $509 -1.207859054955032e-014 $507 $623 forward 7 unknown #
vertex $-1 $618 $624 #
straight-curve $-1 -48.718527787102879 -6.4177109788863085 6.5481046587992218 0 -1 0 I I #
vertex $-1 $352 $625 #
straight-curve $-1 -64.267145921374947 -9.2056047973872737 10.570184714210676 -1 0 0 I I #
straight-curve $-1 -48.718527787102886 -9.2056047973872737 6.548104658799204 0.57357642473473569 0 0.81915205242281985 I I #
edge $-1 $355 9.2056047973872737 $620 16.46523911815796 $354 $626 forward 7 unknown #
point $-1 -48.718527787102879 -9.2056047973872737 10.570184714210674 #
point $-1 -48.718527787102879 -9.2056047973872737 6.5481046587992138 #
edge $-1 $627 1 $627 0 $358 $-1 forward 7 unknown #
vertex $-1 $359 $628 #
ellipse-curve $-1 -45.973232401241475 -14.391057883652051 7.6228621761134052 -0.81915205242281985 0 0.57357642473473569 0.28678821236736785 0 0.40957602621140993 1 I I #
point $-1 -47.023594230195116 -14.391057883652051 8.968720712716344 #
edge $-1 $629 1 $629 0 $362 $-1 forward 7 unknown #
vertex $-1 $363 $630 #
ellipse-curve $-1 -45.973232401241475 -11.279786031893185 7.6228621761134052 -0.81915205242281985 0 0.57357642473473569 0.28678821236736785 0 0.40957602621140993 1 I I #
point $-1 -47.023594230195116 -11.279786031893185 8.968720712716344 #
plane-surface $-1 0 0 10.570184714210674 0 0 1 1 0 0 forward_v I I I I #
coedge $-1 $536 $535 $528 $631 forward $367 $-1 #
coedge $-1 $528 $369 $371 $532 reversed $239 $-1 #
coedge $-1 $369 $527 $526 $631 reversed $239 $-1 #
coedge $-1 $377 $372 $369 $530 forward $378 $-1 #
edge $-1 $533 -18.364908823352842 $632 -15.548618134272068 $529 $633 forward 7 unknown #
coedge $-1 $371 $370 $536 $634 reversed $150 $-1 #
edge $-1 $635 1.207859054955032e-014 $533 4.9100530768558741 $527 $636 forward 7 unknown #
vertex $-1 $373 $637 #
straight-curve $-1 -45.902237098022113 1.8149085801926734 10.570184714210674 0 1 0 I I #
coedge $-1 $526 $374 $377 $540 reversed $367 $-1 #
coedge $-1 $374 $526 $531 $634 forward $367 $-1 #
vertex $-1 $375 $638 #
straight-curve $-1 -48.718527787102879 2.6645352591003757e-015 31.217851315865946 0 0 1 I I #
straight-curve $-1 -48.718527787102886 2.6645352591003757e-015 6.548104658799204 -0.57357642473473569 0 -0.81915205242281985 I I #
edge $-1 $632 -7.259634320770691 $379 -2.6645352591003757e-015 $535 $639 forward 7 unknown #
point $-1 -48.718527787102879 2.6645352591003757e-015 10.570184714210674 #
point $-1 -45.902237098022105 2.6645352591003757e-015 10.570184714210674 #
edge $-1 $640 1 $640 0 $382 $-1 forward 7 unknown #
vertex $-1 $383 $641 #
ellipse-curve $-1 -45.973232401241475 2.074181234505911 7.6228621761134052 -0.81915205242281985 0 0.57357642473473569 0.28678821236736785 0 0.40957602621140993 1 I I #
point $-1 -47.023594230195116 2.074181234505911 8.968720712716344 #
edge $-1 $642 1 $642 0 $386 $-1 forward 7 unknown #
vertex $-1 $387 $643 #
ellipse-curve $-1 -45.973232401241475 5.1854530862647827 7.6228621761134052 -0.81915205242281985 0 0.57357642473473569 0.28678821236736785 0 0.40957602621140993 1 I I #
point $-1 -47.023594230195116 5.1854530862647827 8.968720712716344 #
plane-surface $-1 48.718527787102879 0 0 -1 0 0 0 0 1 forward_v I I I I #
coedge $-1 $395 $393 $397 $556 reversed $261 $-1 #
edge $-1 $408 -10.570184714210674 $558 10.570184714210674 $407 $644 forward 7 unknown #
vertex $-1 $556 $645 #
straight-curve $-1 -48.718527787102879 -30.359759344559766 0 0 0 -1 I I #
edge $-1 $554 -30.359759344559766 $558 30.359759344559766 $552 $646 forward 7 unknown #
straight-curve $-1 0 -30.359759344559766 -10.570184714210674 -1 0 0 I I #
vertex $-1 $400 $647 #
straight-curve $-1 0 30.359759344559766 -10.570184714210674 1 0 0 I I #
point $-1 48.718527787102879 30.359759344559766 -10.570184714210674 #
point $-1 48.718527787102879 -30.359759344559766 -10.570184714210674 #
straight-curve $-1 -48.718527787102879 0 10.570184714210674 0 -1 0 I I #
point $-1 -48.718527787102879 30.359759344559766 10.570184714210674 #
point $-1 -48.718527787102879 -30.359759344559766 10.570184714210674 #
straight-curve $-1 48.718527787102879 -30.359759344559766 0 0 0 -1 I I #
straight-curve $-1 48.718527787102879 30.359759344559766 0 0 0 -1 I I #
plane-surface $-1 48.718527787102879 0 0 -1 0 0 0 0 1 forward_v I I I I #
coedge $-1 $571 $420 $422 $570 forward $280 $-1 #
coedge $-1 $420 $571 $434 $581 reversed $280 $-1 #
edge $-1 $432 -4.7487000585472652 $575 1.0661757500839419 $568 $648 forward 7 unknown #
coedge $-1 $569 $568 $423 $572 forward $280 $-1 #
edge $-1 $575 4.7589895024785314 $573 18.653509728880334 $571 $649 forward 7 unknown #
vertex $-1 $425 $650 #
straight-curve $-1 0 -30.359759344559766 0.77508640414771968 1 0 0 I I #
vertex $-1 $572 $651 #
straight-curve $-1 0 -16.465239118157964 0.77508640414771968 1 0 0 I I #
point $-1 48.718527787102879 -30.359759344559766 0.77508640414771968 #
point $-1 48.718527787102879 -16.465239118157964 0.77508640414771968 #
straight-curve $-1 -48.718527787102879 -11.706249615679432 6.5899622127789268 0 1 0 I I #
point $-1 -48.718527787102879 -16.465239118157964 6.5899622127789268 #
edge $-1 $436 -6.5899622127789268 $573 -0.77508640414771968 $569 $652 forward 7 unknown #
point $-1 -48.718527787102879 -30.359759344559766 6.5899622127789268 #
straight-curve $-1 48.718527787102879 -30.359759344559766 0 0 0 -1 I I #
straight-curve $-1 48.718527787102879 -16.465239118157964 1.8412621542316616 0 0 1 I I #
plane-surface $-1 0 30.359759344559766 0 0 -1 0 0 0 -1 forward_v I I I I #
coedge $-1 $446 $595 $448 $589 forward $443 $-1 #
vertex $-1 $589 $653 #
straight-curve $-1 -48.718527787102879 16.46523911815796 1.8412621542316616 0 0 1 I I #
edge $-1 $591 -18.65350972888033 $587 -4.7589895024785296 $586 $654 forward 7 unknown #
straight-curve $-1 0 16.46523911815796 0.77508640414771968 -1 0 0 I I #
vertex $-1 $451 $655 #
straight-curve $-1 0 30.359759344559766 0.77508640414771968 -1 0 0 I I #
point $-1 48.718527787102879 16.46523911815796 0.77508640414771968 #
point $-1 48.718527787102879 30.359759344559762 0.77508640414771968 #
coedge $-1 $586 $455 $458 $597 forward $443 $-1 #
straight-curve $-1 -48.718527787102879 11.706249615679431 6.5899622127789268 0 1 0 I I #
edge $-1 $460 -6.5899622127789268 $591 -0.77508640414771968 $458 $656 forward 7 unknown #
point $-1 -48.718527787102879 30.359759344559762 6.5899622127789268 #
point $-1 -48.718527787102879 16.46523911815796 6.5899622127789268 #
straight-curve $-1 48.718527787102879 16.46523911815796 1.8412621542316616 0 0 -1 I I #
straight-curve $-1 48.718527787102879 30.359759344559766 0 0 0 -1 I I #
edge $-1 $603 -7.6912306830554158 $606 -5.6024076628275807 $470 $657 forward 7 unknown #
vertex $-1 $602 $658 #
straight-curve $-1 48.718527787102879 10.763345032734069 70.398725117612884 0 0 1 I I #
edge $-1 $606 -7.4038125437842961 $481 0.68474756588475039 $480 $659 forward 7 unknown #
vertex $-1 $605 $660 #
straight-curve $-1 -1.46526447021634 10.763345032734069 90.613657977906541 0.51503806187062418 0 -0.85716730853699208 I I #
point $-1 48.718527787102879 10.763345032734069 7.0937992995952897 #
point $-1 46.629704766875044 2.6747849230650225 10.570184714210669 #
straight-curve $-1 48.718527787102879 0 10.570184714210674 0 1 0 I I #
vertex $-1 $487 $661 #
point $-1 46.556523600285196 4.2924969449988346 7.5771579092212118 #
vertex $-1 $491 $662 #
point $-1 46.556523600285196 6.7190649778995457 7.5771579092212118 #
vertex $-1 $495 $663 #
point $-1 46.556523600285196 9.1456330108002639 7.5771579092212118 #
coedge $-1 $507 $504 $501 $618 reversed $499 $-1 #
edge $-1 $509 -24.669746657066732 $620 -20.647666601655274 $501 $664 forward 7 unknown #
edge $-1 $621 -10.047528139271652 $511 -2.7878938185009652 $502 $665 forward 7 unknown #
vertex $-1 $618 $666 #
vertex $-1 $505 $667 #
straight-curve $-1 -64.267145921374947 -16.46523911815796 10.570184714210676 1 0 0 I I #
straight-curve $-1 -48.718527787102886 -16.46523911815796 6.548104658799204 -0.57357642473473569 0 -0.81915205242281985 I I #
point $-1 -48.718527787102879 -16.46523911815796 6.5481046587992138 #
point $-1 -45.902237098022105 -9.2056047973872737 10.570184714210674 #
straight-curve $-1 -48.718527787102879 0 10.570184714210674 0 -1 0 I I #
vertex $-1 $517 $668 #
point $-1 -45.686444188874106 -14.391057883652051 8.0324382023248155 #
vertex $-1 $521 $669 #
point $-1 -45.686444188874106 -11.279786031893185 8.0324382023248155 #
edge $-1 $632 20.647666601655274 $635 24.669746657066732 $526 $670 forward 7 unknown #
vertex $-1 $540 $671 #
straight-curve $-1 -64.267145921374947 7.259634320770691 10.570184714210676 -1 0 0 I I #
edge $-1 $635 -5.4447257405780176 $537 1.8149085801926708 $536 $672 forward 7 unknown #
vertex $-1 $634 $673 #
straight-curve $-1 -48.718527787102886 7.259634320770691 6.548104658799204 0.57357642473473569 0 0.81915205242281985 I I #
point $-1 -45.902237098022105 7.259634320770691 10.570184714210674 #
point $-1 -48.718527787102879 2.6645352591003757e-015 6.5481046587992138 #
straight-curve $-1 -48.718527787102879 0 10.570184714210674 0 -1 0 I I #
vertex $-1 $543 $674 #
point $-1 -45.686444188874106 2.074181234505911 8.0324382023248155 #
vertex $-1 $547 $675 #
point $-1 -45.686444188874106 5.1854530862647827 8.0324382023248155 #
straight-curve $-1 -48.718527787102879 30.359759344559766 0 0 0 -1 I I #
point $-1 -48.718527787102879 -30.359759344559766 -10.570184714210674 #
straight-curve $-1 -48.718527787102879 0 -10.570184714210674 0 1 0 I I #
point $-1 -48.718527787102879 30.359759344559766 -10.570184714210674 #
straight-curve $-1 -48.718527787102879 -16.465239118157964 1.8412621542316616 0 0 -1 I I #
straight-curve $-1 -48.718527787102879 -11.706249615679432 0.77508640414771968 0 -1 0 I I #
point $-1 -48.718527787102879 -30.359759344559766 0.77508640414771968 #
point $-1 -48.718527787102879 -16.465239118157964 0.77508640414771968 #
straight-curve $-1 -48.718527787102879 -30.359759344559766 0 0 0 -1 I I #
point $-1 -48.718527787102879 16.46523911815796 0.77508640414771968 #
straight-curve $-1 -48.718527787102879 11.706249615679431 0.77508640414771968 0 -1 0 I I #
point $-1 -48.718527787102879 30.359759344559762 0.77508640414771968 #
straight-curve $-1 -48.718527787102879 30.359759344559766 0 0 0 -1 I I #
straight-curve $-1 41.027297104047463 10.763345032734069 10.570184714210669 -1 0 0 I I #
point $-1 48.718527787102879 10.763345032734069 10.570184714210674 #
straight-curve $-1 46.629704766875022 3.3595324889497729 10.570184714210676 0 -1 0 I I #
point $-1 46.629704766875044 10.763345032734069 10.570184714210669 #
point $-1 45.87042091508139 4.2924969449988346 7.7482225325543963 #
point $-1 45.87042091508139 6.7190649778995457 7.7482225325543963 #
point $-1 45.87042091508139 9.1456330108002639 7.7482225325543963 #
straight-curve $-1 -48.718527787102879 -16.46523911815796 31.217851315865946 0 0 1 I I #
straight-curve $-1 -45.902237098022113 -6.4177109788863085 10.570184714210674 0 1 0 I I #
point $-1 -48.718527787102879 -16.46523911815796 10.570184714210674 #
point $-1 -45.902237098022105 -16.46523911815796 10.570184714210674 #
point $-1 -45.563656375030064 -14.391057883652051 7.3360739637460375 #
point $-1 -45.563656375030064 -11.279786031893185 7.3360739637460375 #
straight-curve $-1 -48.718527787102879 7.259634320770691 31.217851315865946 0 0 -1 I I #
point $-1 -48.718527787102879 7.259634320770691 10.570184714210674 #
straight-curve $-1 -48.718527787102879 1.8149085801926734 6.5481046587992218 0 -1 0 I I #
point $-1 -48.718527787102879 7.259634320770691 6.5481046587992138 #
point $-1 -45.563656375030064 2.074181234505911 7.3360739637460375 #
point $-1 -45.563656375030064 5.1854530862647827 7.3360739637460375 #
End-of-ACIS-data 