500 0 4 0           
7 Unknown 11 ACIS 5.0 NT 24 Thu Mar 25 21:56:30 1999 
-1 9.9999999999999995e-007 1e-010 
body $-1 $4 $-1 $5 #
body $-1 $6 $-1 $7 #
body $-1 $8 $-1 $9 #
body $-1 $10 $-1 $11 #
lump $-1 $-1 $12 $0 #
transform $-1 1 0 0 0 1 0 0 0 1 75.358745078890337 44.072228269166885 17.745638932220839 1 rotate no_reflect no_shear #
lump $-1 $-1 $13 $1 #
transform $-1 1 0 0 0 1 0 0 0 1 75.358745078890337 44.072228269166885 17.745638932220839 1 rotate no_reflect no_shear #
lump $-1 $-1 $14 $2 #
transform $-1 1 0 0 0 1 0 0 0 1 75.358745078890337 44.072228269166885 17.745638932220839 1 rotate no_reflect no_shear #
lump $-1 $-1 $15 $3 #
transform $-1 1 0 0 0 1 0 0 0 1 75.358745078890337 44.072228269166885 17.745638932220839 1 rotate no_reflect no_shear #
shell $-1 $-1 $-1 $16 $-1 $4 #
shell $-1 $-1 $-1 $17 $-1 $6 #
shell $-1 $-1 $-1 $18 $-1 $8 #
shell $-1 $-1 $-1 $19 $-1 $10 #
face $-1 $20 $21 $12 $-1 $22 forward single #
face $-1 $23 $24 $13 $-1 $25 reversed single #
face $-1 $26 $27 $14 $-1 $28 reversed single #
face $-1 $29 $30 $15 $-1 $31 forward single #
face $-1 $32 $33 $12 $-1 $34 reversed single #
loop $-1 $-1 $35 $16 #
plane-surface $-1 0 0 17.745638932220839 0 0 1 1 0 0 forward_v I I I I #
face $-1 $36 $37 $13 $-1 $38 reversed single #
loop $-1 $-1 $39 $17 #
plane-surface $-1 0 -33.569314243052531 10.502567421026409 0 0 1 1 0 0 forward_v I I I I #
face $-1 $40 $41 $14 $-1 $42 reversed single #
loop $-1 $-1 $43 $18 #
plane-surface $-1 -21.988758834285246 70.420711425318842 186.96956883262118 1 0 0 0 -0.62932039886446345 -0.77714595512881146 forward_v I I I I #
face $-1 $44 $45 $15 $-1 $46 forward single #
loop $-1 $47 $48 $19 #
cone-surface $-1 -10.573060023039545 41.672652659305484 15.668734710015968 0 -0.62932039886446345 -0.77714595512881146 0.5 0 0 1 I I 0 1 0.5 forward I I I I #
face $-1 $49 $50 $12 $-1 $51 reversed single #
loop $-1 $-1 $52 $20 #
plane-surface $-1 0 0 -17.745638932220839 0 0 1 1 0 0 forward_v I I I I #
coedge $-1 $53 $54 $55 $56 forward $21 $-1 #
face $-1 $57 $58 $13 $-1 $59 reversed single #
loop $-1 $-1 $60 $23 #
plane-surface $-1 0 -23.066400216938181 14.124103176623624 0 -1 0 0 0 -1 forward_v I I I I #
coedge $-1 $61 $62 $63 $64 reversed $24 $-1 #
face $-1 $65 $66 $14 $-1 $67 reversed single #
loop $-1 $-1 $68 $26 #
plane-surface $-1 -10.573060023039545 -24.42887959662653 69.840080989335476 0 0.62932039886446345 0.77714595512881146 1 0 0 forward_v I I I I #
coedge $-1 $69 $70 $71 $72 reversed $27 $-1 #
face $-1 $-1 $73 $15 $-1 $74 forward single #
loop $-1 $75 $76 $29 #
cone-surface $-1 -10.573060023039545 41.200662360157139 15.08587524366936 0 -0.62932039886446345 -0.77714595512881146 0.25 0 0 1 I I -0.70710678118654746 0.70710678118654746 0.25 forward I I I I #
loop $-1 $-1 $77 $19 #
coedge $-1 $48 $48 $78 $79 reversed $30 $-1 #
face $-1 $80 $81 $12 $-1 $82 reversed single #
loop $-1 $-1 $83 $32 #
plane-surface $-1 0 -44.072228269166885 0 0 1 0 0 0 1 forward_v I I I I #
coedge $-1 $84 $85 $86 $87 forward $33 $-1 #
coedge $-1 $88 $35 $89 $90 forward $21 $-1 #
coedge $-1 $35 $88 $91 $92 forward $21 $-1 #
coedge $-1 $93 $94 $35 $56 reversed $95 $-1 #
edge $-1 $96 -44.072228269166885 $97 44.072228269166885 $55 $98 forward 7 unknown #
face $-1 $99 $100 $13 $-1 $101 reversed single #
loop $-1 $-1 $102 $36 #
plane-surface $-1 -75.358745078890337 0 0 1 0 0 0 0 -1 forward_v I I I I #
coedge $-1 $103 $104 $105 $106 reversed $37 $-1 #
coedge $-1 $107 $39 $108 $109 reversed $24 $-1 #
coedge $-1 $39 $107 $103 $110 forward $24 $-1 #
coedge $-1 $105 $111 $39 $64 forward $112 $-1 #
edge $-1 $113 -27.28757114764062 $114 -6.2817430954119153 $63 $115 forward 7 unknown #
face $-1 $116 $117 $14 $-1 $118 forward single #
loop $-1 $-1 $119 $40 #
plane-surface $-1 0.84263878820615545 70.420711425318842 186.96956883262118 -1 0 0 0 0.62932039886446345 0.77714595512881146 forward_v I I I I #
coedge $-1 $120 $121 $122 $123 reversed $41 $-1 #
coedge $-1 $70 $43 $124 $125 reversed $27 $-1 #
coedge $-1 $43 $69 $120 $126 reversed $27 $-1 #
coedge $-1 $122 $127 $43 $72 forward $117 $-1 #
edge $-1 $128 -8.8618725565074641 $129 -4.6920417356491839 $71 $130 forward 7 unknown #
loop $-1 $-1 $78 $44 #
plane-surface $-1 -10.573060023039545 -24.42887959662653 69.840080989335476 0 0.62932039886446345 0.77714595512881146 1 0 0 forward_v I I I I #
loop $-1 $-1 $131 $29 #
coedge $-1 $76 $76 $77 $132 reversed $45 $-1 #
coedge $-1 $77 $77 $76 $132 forward $47 $-1 #
coedge $-1 $78 $78 $48 $79 forward $73 $-1 #
edge $-1 $133 2.3708628755213656e-015 $133 6.2831853071796031 $78 $134 forward 7 unknown #
face $-1 $135 $136 $12 $-1 $137 reversed single #
loop $-1 $-1 $138 $49 #
plane-surface $-1 -75.358745078890337 0 0 1 0 0 0 0 -1 forward_v I I I I #
coedge $-1 $139 $91 $140 $141 forward $50 $-1 #
coedge $-1 $142 $52 $139 $143 forward $33 $-1 #
coedge $-1 $52 $142 $144 $145 forward $33 $-1 #
coedge $-1 $94 $93 $52 $87 reversed $95 $-1 #
edge $-1 $146 -44.072228269166885 $147 44.072228269166885 $86 $148 forward 7 unknown #
coedge $-1 $54 $53 $149 $150 forward $21 $-1 #
coedge $-1 $151 $152 $53 $90 reversed $136 $-1 #
edge $-1 $97 -75.358745078890337 $153 75.358745078890337 $89 $154 forward 7 unknown #
coedge $-1 $83 $155 $54 $92 reversed $50 $-1 #
edge $-1 $156 -75.358745078890337 $96 75.358745078890337 $91 $157 forward 7 unknown #
coedge $-1 $86 $55 $155 $158 forward $95 $-1 #
coedge $-1 $55 $86 $151 $159 reversed $95 $-1 #
loop $-1 $-1 $93 $135 #
vertex $-1 $56 $160 #
vertex $-1 $56 $161 #
straight-curve $-1 75.358745078890337 0 17.745638932220839 0 1 0 I I #
face $-1 $162 $163 $13 $-1 $164 forward single #
loop $-1 $-1 $108 $57 #
plane-surface $-1 0 -44.072228269166885 0 0 1 0 0 0 1 forward_v I I I I #
coedge $-1 $165 $166 $167 $168 forward $58 $-1 #
coedge $-1 $167 $60 $62 $110 reversed $37 $-1 #
coedge $-1 $60 $167 $169 $170 reversed $37 $-1 #
coedge $-1 $171 $63 $60 $106 forward $112 $-1 #
edge $-1 $114 3.4405158327145973 $172 10.683587343909027 $105 $173 forward 7 unknown #
coedge $-1 $62 $61 $165 $174 reversed $24 $-1 #
coedge $-1 $175 $176 $61 $109 forward $100 $-1 #
edge $-1 $177 -75.358745078890337 $113 75.358745078890337 $108 $178 forward 7 unknown #
edge $-1 $179 -75.358745078890337 $114 75.358745078890337 $103 $180 forward 7 unknown #
coedge $-1 $63 $171 $175 $181 forward $112 $-1 #
loop $-1 $-1 $105 $162 #
vertex $-1 $109 $182 #
vertex $-1 $64 $183 #
straight-curve $-1 75.358745078890337 -16.784657121526266 10.502567421026409 0 1 0 I I #
face $-1 $-1 $184 $14 $-1 $185 reversed single #
loop $-1 $-1 $71 $65 #
plane-surface $-1 0 0 17.745638932220839 0 0 1 1 0 0 forward_v I I I I #
coedge $-1 $186 $187 $188 $189 reversed $66 $-1 #
coedge $-1 $190 $68 $70 $126 forward $41 $-1 #
coedge $-1 $68 $190 $186 $191 forward $41 $-1 #
coedge $-1 $188 $71 $68 $123 forward $117 $-1 #
edge $-1 $129 -16.702228822765473 $192 6.1291687997259281 $122 $193 forward 7 unknown #
coedge $-1 $194 $195 $69 $125 forward $184 $-1 #
edge $-1 $196 -79.115807973370693 $128 -75.739145484089747 $124 $197 forward 7 unknown #
edge $-1 $129 82.778886797747361 $196 88.144456538333785 $70 $198 forward 7 unknown #
coedge $-1 $71 $188 $194 $199 forward $117 $-1 #
vertex $-1 $125 $200 #
vertex $-1 $72 $201 #
straight-curve $-1 -21.988758834285246 35.210355712659421 17.745638932220842 0 -1 0 I I #
coedge $-1 $131 $131 $-1 $202 reversed $75 $-1 #
edge $-1 $203 0 $203 6.2831853071796004 $76 $204 forward 7 unknown #
vertex $-1 $79 $205 #
ellipse-curve $-1 -10.573060023039545 41.987312858737724 16.057307687580384 0 0.62932039886446345 0.77714595512881146 0.5 0 0 1 I I #
face $-1 $-1 $95 $12 $-1 $206 reversed single #
loop $-1 $-1 $151 $80 #
plane-surface $-1 0 44.072228269166885 0 0 -1 0 0 0 -1 forward_v I I I I #
coedge $-1 $207 $149 $152 $208 forward $81 $-1 #
coedge $-1 $155 $83 $84 $143 reversed $50 $-1 #
coedge $-1 $149 $207 $83 $141 reversed $81 $-1 #
edge $-1 $156 -17.745638932220839 $209 17.745638932220839 $140 $210 forward 7 unknown #
coedge $-1 $85 $84 $207 $211 forward $33 $-1 #
edge $-1 $147 -75.358745078890337 $209 75.358745078890337 $139 $212 forward 7 unknown #
coedge $-1 $152 $151 $85 $145 reversed $136 $-1 #
edge $-1 $213 -75.358745078890337 $146 75.358745078890337 $144 $214 forward 7 unknown #
vertex $-1 $87 $215 #
vertex $-1 $158 $216 #
straight-curve $-1 75.358745078890337 0 -17.745638932220839 0 -1 0 I I #
coedge $-1 $138 $140 $88 $150 reversed $81 $-1 #
edge $-1 $153 -44.072228269166885 $156 44.072228269166885 $149 $217 forward 7 unknown #
coedge $-1 $144 $89 $94 $159 forward $136 $-1 #
coedge $-1 $89 $144 $138 $208 reversed $136 $-1 #
vertex $-1 $90 $218 #
straight-curve $-1 0 44.072228269166885 17.745638932220839 -1 0 0 I I #
coedge $-1 $91 $139 $93 $158 reversed $50 $-1 #
vertex $-1 $150 $219 #
straight-curve $-1 0 -44.072228269166885 17.745638932220839 1 0 0 I I #
edge $-1 $96 -17.745638932220839 $147 17.745638932220839 $93 $220 forward 7 unknown #
edge $-1 $97 -17.745638932220839 $146 17.745638932220839 $94 $221 forward 7 unknown #
point $-1 75.358745078890337 -44.072228269166885 17.745638932220839 #
point $-1 75.358745078890337 44.072228269166885 17.745638932220839 #
face $-1 $-1 $112 $13 $-1 $222 reversed single #
loop $-1 $-1 $169 $99 #
plane-surface $-1 0 0 17.745638932220839 0 0 1 1 0 0 forward_v I I I I #
coedge $-1 $223 $102 $107 $174 forward $58 $-1 #
coedge $-1 $102 $223 $224 $225 reversed $58 $-1 #
coedge $-1 $104 $103 $102 $168 reversed $37 $-1 #
edge $-1 $226 -10.683587343909027 $179 -3.4405158327145973 $102 $227 forward 7 unknown #
coedge $-1 $224 $228 $104 $170 forward $163 $-1 #
edge $-1 $172 -75.358745078890337 $226 75.358745078890337 $169 $229 forward 7 unknown #
coedge $-1 $111 $105 $228 $230 reversed $112 $-1 #
vertex $-1 $106 $231 #
straight-curve $-1 75.358745078890337 -23.066400216938181 7.062051588311812 0 0 1 I I #
edge $-1 $179 6.2817430954119153 $177 27.28757114764062 $165 $232 forward 7 unknown #
coedge $-1 $233 $108 $111 $181 reversed $100 $-1 #
coedge $-1 $108 $233 $223 $234 forward $100 $-1 #
vertex $-1 $109 $235 #
straight-curve $-1 0 -44.072228269166885 10.502567421026409 1 0 0 I I #
vertex $-1 $174 $236 #
straight-curve $-1 0 -23.066400216938181 10.502567421026409 1 0 0 I I #
edge $-1 $237 -17.745638932220839 $113 -10.502567421026409 $111 $238 forward 7 unknown #
point $-1 75.358745078890337 -44.072228269166885 10.502567421026409 #
point $-1 75.358745078890337 -23.066400216938181 10.502567421026409 #
loop $-1 $-1 $124 $116 #
plane-surface $-1 0 44.072228269166885 0 0 -1 0 0 0 -1 forward_v I I I I #
coedge $-1 $187 $119 $121 $191 reversed $66 $-1 #
coedge $-1 $119 $186 $239 $240 reversed $66 $-1 #
coedge $-1 $127 $122 $119 $189 forward $117 $-1 #
edge $-1 $192 4.6920417356491839 $241 8.8618725565074641 $188 $242 forward 7 unknown #
coedge $-1 $121 $120 $195 $243 reversed $41 $-1 #
edge $-1 $244 -88.144456538333785 $192 -82.778886797747361 $186 $245 forward 7 unknown #
vertex $-1 $123 $246 #
straight-curve $-1 -5.2865300115197726 39.902397448308612 17.745638932220835 1 0 0 I I #
coedge $-1 $239 $124 $127 $199 reversed $184 $-1 #
coedge $-1 $124 $239 $190 $243 forward $184 $-1 #
vertex $-1 $125 $247 #
straight-curve $-1 -21.988758834285246 44.072228269166885 93.484784416310589 0 0 1 I I #
straight-curve $-1 -21.988758834285246 -24.42887959662653 69.840080989335476 0 0.77714595512881146 -0.62932039886446345 I I #
edge $-1 $241 -0.84263878820615545 $128 21.988758834285246 $194 $248 forward 7 unknown #
point $-1 -21.988758834285246 44.072228269166885 17.745638932220839 #
point $-1 -21.988758834285246 39.902397448308605 17.745638932220842 #
edge $-1 $249 1 $249 0 $131 $-1 forward 7 unknown #
vertex $-1 $132 $250 #
ellipse-curve $-1 -10.573060023039545 41.357992459873252 15.280161732451562 0 0.62932039886446345 0.77714595512881146 0.5 0 0 1 I I #
point $-1 -10.073060023039545 41.987312858737717 16.057307687580373 #
plane-surface $-1 75.358745078890337 0 0 -1 0 0 0 0 1 forward_v I I I I #
coedge $-1 $140 $138 $142 $211 reversed $81 $-1 #
edge $-1 $153 -17.745638932220839 $213 17.745638932220839 $152 $251 forward 7 unknown #
vertex $-1 $211 $252 #
straight-curve $-1 -75.358745078890337 -44.072228269166885 0 0 0 -1 I I #
edge $-1 $209 -44.072228269166885 $213 44.072228269166885 $207 $253 forward 7 unknown #
straight-curve $-1 0 -44.072228269166885 -17.745638932220839 -1 0 0 I I #
vertex $-1 $145 $254 #
straight-curve $-1 0 44.072228269166885 -17.745638932220839 1 0 0 I I #
point $-1 75.358745078890337 44.072228269166885 -17.745638932220839 #
point $-1 75.358745078890337 -44.072228269166885 -17.745638932220839 #
straight-curve $-1 -75.358745078890337 0 17.745638932220839 0 -1 0 I I #
point $-1 -75.358745078890337 44.072228269166885 17.745638932220839 #
point $-1 -75.358745078890337 -44.072228269166885 17.745638932220839 #
straight-curve $-1 75.358745078890337 -44.072228269166885 0 0 0 -1 I I #
straight-curve $-1 75.358745078890337 44.072228269166885 0 0 0 -1 I I #
plane-surface $-1 75.358745078890337 0 0 -1 0 0 0 0 1 forward_v I I I I #
coedge $-1 $166 $165 $176 $234 reversed $58 $-1 #
coedge $-1 $255 $169 $166 $225 forward $163 $-1 #
edge $-1 $226 23.066400216938181 $256 44.072228269166885 $166 $257 forward 7 unknown #
vertex $-1 $225 $258 #
straight-curve $-1 -75.358745078890337 -23.066400216938181 7.062051588311812 0 0 -1 I I #
coedge $-1 $169 $255 $171 $230 forward $163 $-1 #
straight-curve $-1 0 -23.066400216938181 17.745638932220839 -1 0 0 I I #
edge $-1 $237 -44.072228269166885 $172 -23.066400216938181 $171 $259 forward 7 unknown #
point $-1 75.358745078890337 -23.066400216938181 17.745638932220839 #
straight-curve $-1 -75.358745078890337 -16.784657121526266 10.502567421026409 0 -1 0 I I #
coedge $-1 $176 $175 $255 $260 reversed $100 $-1 #
edge $-1 $256 -17.745638932220839 $177 -10.502567421026409 $223 $261 forward 7 unknown #
point $-1 -75.358745078890337 -44.072228269166885 10.502567421026409 #
point $-1 -75.358745078890337 -23.066400216938181 10.502567421026409 #
vertex $-1 $230 $262 #
straight-curve $-1 75.358745078890337 -44.072228269166885 0 0 0 -1 I I #
coedge $-1 $195 $194 $187 $240 forward $184 $-1 #
edge $-1 $241 75.739145484089747 $244 79.115807973370693 $239 $263 forward 7 unknown #
vertex $-1 $199 $264 #
straight-curve $-1 0.84263878820615545 35.210355712659421 17.745638932220842 0 1 0 I I #
edge $-1 $244 -6.1291687997259281 $196 16.702228822765473 $195 $265 forward 7 unknown #
vertex $-1 $243 $266 #
straight-curve $-1 0.84263878820615545 -24.42887959662653 69.840080989335476 0 -0.77714595512881146 0.62932039886446345 I I #
point $-1 0.84263878820615545 39.902397448308605 17.745638932220842 #
point $-1 -21.988758834285246 44.072228269166885 14.368976442939896 #
straight-curve $-1 0 44.072228269166885 17.745638932220839 -1 0 0 I I #
vertex $-1 $202 $267 #
point $-1 -10.073060023039545 41.357992459873252 15.280161732451562 #
straight-curve $-1 -75.358745078890337 44.072228269166885 0 0 0 -1 I I #
point $-1 -75.358745078890337 -44.072228269166885 -17.745638932220839 #
straight-curve $-1 -75.358745078890337 0 -17.745638932220839 0 1 0 I I #
point $-1 -75.358745078890337 44.072228269166885 -17.745638932220839 #
coedge $-1 $228 $224 $233 $260 forward $163 $-1 #
vertex $-1 $225 $268 #
straight-curve $-1 -75.358745078890337 0 17.745638932220839 0 -1 0 I I #
point $-1 -75.358745078890337 -23.066400216938181 17.745638932220839 #
straight-curve $-1 75.358745078890337 0 17.745638932220839 0 1 0 I I #
edge $-1 $256 -75.358745078890337 $237 75.358745078890337 $233 $269 forward 7 unknown #
straight-curve $-1 -75.358745078890337 -44.072228269166885 0 0 0 -1 I I #
point $-1 75.358745078890337 -44.072228269166885 17.745638932220839 #
straight-curve $-1 0.84263878820615545 44.072228269166885 93.484784416310589 0 0 -1 I I #
point $-1 0.84263878820615545 44.072228269166885 17.745638932220839 #
straight-curve $-1 -5.2865300115197726 44.072228269166885 14.3689764429399 -1 0 0 I I #
point $-1 0.84263878820615545 44.072228269166885 14.368976442939896 #
point $-1 -10.573060023039545 41.043332260441026 14.891588754887158 #
point $-1 -75.358745078890337 -44.072228269166885 17.745638932220839 #
straight-curve $-1 0 -44.072228269166885 17.745638932220839 1 0 0 I I #
End-of-ACIS-data 