500 0 8 0           
7 Unknown 11 ACIS 5.0 NT 24 Thu Mar 25 22:11:31 1999 
-1 9.9999999999999995e-007 1e-010 
body $-1 $8 $-1 $9 #
body $-1 $10 $-1 $11 #
body $-1 $12 $-1 $13 #
body $-1 $14 $-1 $15 #
body $-1 $16 $-1 $17 #
body $-1 $18 $-1 $19 #
body $-1 $20 $-1 $21 #
body $-1 $22 $-1 $23 #
lump $-1 $-1 $24 $0 #
transform $-1 1 0 0 0 1 0 0 0 1 77.813653981139566 49.637165303927098 12.272424420704825 1 rotate no_reflect no_shear #
lump $-1 $-1 $25 $1 #
transform $-1 1 0 0 0 1 0 0 0 1 77.813653981139566 49.637165303927098 12.272424420704825 1 rotate no_reflect no_shear #
lump $-1 $-1 $26 $2 #
transform $-1 1 0 0 0 1 0 0 0 1 77.813653981139566 49.637165303927098 12.272424420704825 1 rotate no_reflect no_shear #
lump $-1 $-1 $27 $3 #
transform $-1 1 0 0 0 1 0 0 0 1 77.813653981139566 49.637165303927098 12.272424420704825 1 rotate no_reflect no_shear #
lump $-1 $-1 $28 $4 #
transform $-1 1 0 0 0 1 0 0 0 1 77.813653981139566 49.637165303927098 12.272424420704825 1 rotate no_reflect no_shear #
lump $-1 $-1 $29 $5 #
transform $-1 1 0 0 0 1 0 0 0 1 77.813653981139566 49.637165303927098 12.272424420704825 1 rotate no_reflect no_shear #
lump $-1 $-1 $30 $6 #
transform $-1 1 0 0 0 1 0 0 0 1 77.813653981139566 49.637165303927098 12.272424420704825 1 rotate no_reflect no_shear #
lump $-1 $-1 $31 $7 #
transform $-1 1 0 0 0 1 0 0 0 1 77.813653981139566 49.637165303927098 12.272424420704825 1 rotate no_reflect no_shear #
shell $-1 $-1 $-1 $32 $-1 $8 #
shell $-1 $-1 $-1 $33 $-1 $10 #
shell $-1 $-1 $-1 $34 $-1 $12 #
shell $-1 $-1 $-1 $35 $-1 $14 #
shell $-1 $-1 $-1 $36 $-1 $16 #
shell $-1 $-1 $-1 $37 $-1 $18 #
shell $-1 $-1 $-1 $38 $-1 $20 #
shell $-1 $-1 $-1 $39 $-1 $22 #
face $-1 $40 $41 $24 $-1 $42 forward single #
face $-1 $43 $44 $25 $-1 $45 forward single #
face $-1 $46 $47 $26 $-1 $48 reversed single #
face $-1 $49 $50 $27 $-1 $51 forward single #
face $-1 $52 $53 $28 $-1 $54 forward single #
face $-1 $55 $56 $29 $-1 $57 reversed single #
face $-1 $58 $59 $30 $-1 $60 forward single #
face $-1 $61 $62 $31 $-1 $63 forward single #
face $-1 $64 $65 $24 $-1 $66 reversed single #
loop $-1 $-1 $67 $32 #
plane-surface $-1 0 0 12.272424420704825 0 0 1 1 0 0 forward_v I I I I #
face $-1 $68 $69 $25 $-1 $70 reversed single #
loop $-1 $-1 $71 $33 #
plane-surface $-1 -77.813653981139566 0 0 1 0 0 0 0 -1 forward_v I I I I #
face $-1 $72 $73 $26 $-1 $74 reversed single #
loop $-1 $-1 $75 $34 #
plane-surface $-1 -56.803526478282905 108.10694092224426 177.69039112539176 1 0 0 0 -0.77714596973225614 -0.62932038083071107 forward_v I I I I #
face $-1 $76 $77 $27 $-1 $78 forward single #
loop $-1 $79 $80 $35 #
cone-surface $-1 -45.875175123449878 44.222719432702981 6.2230804693599602 0 -0.77714596973225614 -0.62932038083071107 3 0 0 1 I I 0 1 3 forward I I I I #
face $-1 $81 $82 $28 $-1 $83 forward single #
loop $-1 $84 $85 $36 #
cone-surface $-1 -29.482648091200346 44.222719432702981 6.2230804693599602 0 -0.77714596973225614 -0.62932038083071107 3 0 0 1 I I 0 1 3 forward I I I I #
face $-1 $86 $87 $29 $-1 $88 reversed single #
loop $-1 $-1 $89 $37 #
plane-surface $-1 19.814115898729227 -183.03580600481152 84.719595624536524 -1 0 0 0 -0.85716730853699208 0.51503806187062418 forward_v I I I I #
face $-1 $90 $91 $30 $-1 $92 forward single #
loop $-1 $93 $94 $38 #
cone-surface $-1 4.6118462698595977 -45.876218992438368 7.5504212311301533 0 0.85716730853699208 -0.51503806187062418 1 0 0 1 I I 0 1 1 forward I I I I #
face $-1 $95 $96 $31 $-1 $97 forward single #
loop $-1 $98 $99 $39 #
cone-surface $-1 13.733208047181378 -45.876218992438368 7.5504212311301533 0 0.85716730853699208 -0.51503806187062418 1 0 0 1 I I 0 1 1 forward I I I I #
face $-1 $100 $101 $24 $-1 $102 reversed single #
loop $-1 $-1 $103 $40 #
plane-surface $-1 0 0 -12.272424420704825 0 0 1 1 0 0 forward_v I I I I #
coedge $-1 $104 $105 $106 $107 forward $41 $-1 #
face $-1 $108 $109 $25 $-1 $110 reversed single #
loop $-1 $-1 $111 $43 #
plane-surface $-1 0 0 -12.272424420704825 0 0 1 1 0 0 forward_v I I I I #
coedge $-1 $112 $113 $114 $115 forward $44 $-1 #
face $-1 $116 $117 $26 $-1 $118 reversed single #
loop $-1 $-1 $119 $46 #
plane-surface $-1 -37.678911607325112 -12.838194240921624 79.750954410911902 0 0.77714596973225614 0.62932038083071107 1 0 0 forward_v I I I I #
coedge $-1 $120 $121 $122 $123 reversed $47 $-1 #
face $-1 $-1 $124 $27 $-1 $125 forward single #
loop $-1 $126 $127 $49 #
cone-surface $-1 -45.875175123449878 41.558717029119002 4.065813916546217 0 -0.77714596973225614 -0.62932038083071107 1.5 0 0 1 I I -0.70710678118654757 0.70710678118654757 1.5 forward I I I I #
loop $-1 $-1 $128 $35 #
coedge $-1 $80 $80 $129 $130 reversed $50 $-1 #
face $-1 $-1 $131 $28 $-1 $132 forward single #
loop $-1 $133 $134 $52 #
cone-surface $-1 -29.482648091200346 41.558717029119002 4.065813916546217 0 -0.77714596973225614 -0.62932038083071107 1.5 0 0 1 I I -0.70710678118654757 0.70710678118654757 1.5 forward I I I I #
loop $-1 $-1 $135 $36 #
coedge $-1 $85 $85 $136 $137 reversed $53 $-1 #
face $-1 $138 $139 $29 $-1 $140 reversed single #
loop $-1 $-1 $141 $55 #
plane-surface $-1 9.1725271585204808 -49.637165303927105 4.5656085575015197 0 -0.85716730853699208 0.51503806187062418 1 0 0 forward_v I I I I #
coedge $-1 $142 $143 $144 $145 reversed $56 $-1 #
face $-1 $-1 $146 $30 $-1 $147 forward single #
loop $-1 $148 $149 $58 #
cone-surface $-1 4.6118462698595977 -44.002050022046689 6.4243069422218309 0 0.85716730853699208 -0.51503806187062418 0.5 0 0 1 I I -0.70710678118654746 0.70710678118654746 0.5 forward I I I I #
loop $-1 $-1 $150 $38 #
coedge $-1 $94 $94 $151 $152 reversed $59 $-1 #
face $-1 $-1 $153 $31 $-1 $154 forward single #
loop $-1 $155 $156 $61 #
cone-surface $-1 13.733208047181378 -44.002050022046689 6.4243069422218309 0 0.85716730853699208 -0.51503806187062418 0.5 0 0 1 I I -0.70710678118654746 0.70710678118654746 0.5 forward I I I I #
loop $-1 $-1 $157 $39 #
coedge $-1 $99 $99 $158 $159 reversed $62 $-1 #
face $-1 $160 $161 $24 $-1 $162 reversed single #
loop $-1 $-1 $163 $64 #
plane-surface $-1 0 -49.637165303927098 0 0 1 0 0 0 1 forward_v I I I I #
coedge $-1 $164 $165 $166 $167 forward $65 $-1 #
coedge $-1 $168 $67 $169 $170 forward $41 $-1 #
coedge $-1 $67 $168 $171 $172 forward $41 $-1 #
coedge $-1 $173 $174 $67 $107 reversed $175 $-1 #
edge $-1 $176 -49.637165303927098 $177 49.637165303927098 $106 $178 forward 7 unknown #
face $-1 $179 $180 $25 $-1 $181 reversed single #
loop $-1 $-1 $182 $68 #
plane-surface $-1 -83.813295347631822 -28.8641197210138 0 0 1 0 0 0 1 forward_v I I I I #
coedge $-1 $183 $184 $113 $185 forward $69 $-1 #
coedge $-1 $186 $71 $187 $188 reversed $44 $-1 #
coedge $-1 $71 $186 $111 $185 reversed $44 $-1 #
coedge $-1 $189 $190 $71 $115 reversed $191 $-1 #
edge $-1 $192 -12.272424420704825 $193 12.272424420704825 $114 $194 forward 7 unknown #
face $-1 $195 $196 $26 $-1 $197 forward single #
loop $-1 $-1 $198 $72 #
plane-surface $-1 -18.55429673636732 108.10694092224426 177.69039112539176 -1 0 0 0 0.77714596973225614 0.62932038083071107 forward_v I I I I #
coedge $-1 $199 $200 $201 $202 reversed $73 $-1 #
coedge $-1 $121 $75 $203 $204 reversed $47 $-1 #
coedge $-1 $75 $120 $199 $205 reversed $47 $-1 #
coedge $-1 $201 $206 $75 $123 forward $196 $-1 #
edge $-1 $207 4.4163051571950334 $208 12.248630001672069 $122 $209 forward 7 unknown #
loop $-1 $-1 $129 $76 #
plane-surface $-1 -37.678911607325112 -12.838194240921624 79.750954410911902 0 0.77714596973225614 0.62932038083071107 1 0 0 forward_v I I I I #
loop $-1 $-1 $210 $49 #
coedge $-1 $127 $127 $128 $211 reversed $77 $-1 #
coedge $-1 $128 $128 $127 $211 forward $79 $-1 #
coedge $-1 $129 $129 $80 $130 forward $124 $-1 #
edge $-1 $212 -1.600571608554044e-015 $212 6.2831853071795987 $129 $213 forward 7 unknown #
loop $-1 $-1 $136 $81 #
plane-surface $-1 -37.678911607325112 -12.838194240921624 79.750954410911902 0 0.77714596973225614 0.62932038083071107 1 0 0 forward_v I I I I #
loop $-1 $-1 $214 $52 #
coedge $-1 $134 $134 $135 $215 reversed $82 $-1 #
coedge $-1 $135 $135 $134 $215 forward $84 $-1 #
coedge $-1 $136 $136 $85 $137 forward $131 $-1 #
edge $-1 $216 -1.600571608554044e-015 $216 6.2831853071795987 $136 $217 forward 7 unknown #
face $-1 $218 $219 $29 $-1 $220 forward single #
loop $-1 $-1 $221 $86 #
plane-surface $-1 -1.4690615816882655 -183.03580600481152 84.719595624536524 1 0 0 0 0.85716730853699208 -0.51503806187062418 forward_v I I I I #
coedge $-1 $222 $223 $224 $225 reversed $87 $-1 #
coedge $-1 $143 $89 $226 $227 reversed $56 $-1 #
coedge $-1 $89 $142 $222 $228 reversed $56 $-1 #
coedge $-1 $224 $229 $89 $145 forward $219 $-1 #
edge $-1 $230 41.880737698478661 $231 46.511459689209723 $144 $232 forward 7 unknown #
loop $-1 $-1 $151 $90 #
plane-surface $-1 9.1725271585204808 -49.637165303927105 4.5656085575015197 0 -0.85716730853699208 0.51503806187062418 1 0 0 forward_v I I I I #
loop $-1 $-1 $233 $58 #
coedge $-1 $149 $149 $150 $234 reversed $91 $-1 #
coedge $-1 $150 $150 $149 $234 forward $93 $-1 #
coedge $-1 $151 $151 $94 $152 forward $146 $-1 #
edge $-1 $235 -3.9536095201286222e-015 $235 6.2831853071795969 $151 $236 forward 7 unknown #
loop $-1 $-1 $158 $95 #
plane-surface $-1 9.1725271585204808 -49.637165303927105 4.5656085575015197 0 -0.85716730853699208 0.51503806187062418 1 0 0 forward_v I I I I #
loop $-1 $-1 $237 $61 #
coedge $-1 $156 $156 $157 $238 reversed $96 $-1 #
coedge $-1 $157 $157 $156 $238 forward $98 $-1 #
coedge $-1 $158 $158 $99 $159 forward $153 $-1 #
edge $-1 $239 -3.9536095201286222e-015 $239 6.2831853071795969 $158 $240 forward 7 unknown #
face $-1 $241 $242 $24 $-1 $243 reversed single #
loop $-1 $-1 $244 $100 #
plane-surface $-1 -77.813653981139566 0 0 1 0 0 0 0 -1 forward_v I I I I #
coedge $-1 $245 $171 $246 $247 forward $101 $-1 #
coedge $-1 $248 $103 $245 $249 forward $65 $-1 #
coedge $-1 $103 $248 $250 $251 forward $65 $-1 #
coedge $-1 $174 $173 $103 $167 reversed $175 $-1 #
edge $-1 $252 -49.637165303927098 $253 49.637165303927098 $166 $254 forward 7 unknown #
coedge $-1 $105 $104 $255 $256 forward $41 $-1 #
coedge $-1 $257 $258 $104 $170 reversed $242 $-1 #
edge $-1 $177 -77.813653981139566 $259 77.813653981139566 $169 $260 forward 7 unknown #
coedge $-1 $163 $261 $105 $172 reversed $101 $-1 #
edge $-1 $262 -77.813653981139566 $176 77.813653981139566 $171 $263 forward 7 unknown #
coedge $-1 $166 $106 $261 $264 forward $175 $-1 #
coedge $-1 $106 $166 $257 $265 reversed $175 $-1 #
loop $-1 $-1 $173 $241 #
vertex $-1 $107 $266 #
vertex $-1 $107 $267 #
straight-curve $-1 77.813653981139566 0 12.272424420704825 0 1 0 I I #
face $-1 $268 $191 $25 $-1 $269 reversed single #
loop $-1 $-1 $270 $108 #
plane-surface $-1 -89.812936714124078 -26.978218091765623 0 1 0 0 0 0 -1 forward_v I I I I #
coedge $-1 $271 $272 $273 $274 forward $109 $-1 #
coedge $-1 $275 $111 $271 $276 forward $69 $-1 #
coedge $-1 $111 $275 $189 $277 forward $69 $-1 #
edge $-1 $192 25.092316462517445 $278 28.8641197210138 $111 $279 forward 7 unknown #
coedge $-1 $113 $112 $280 $281 forward $44 $-1 #
coedge $-1 $282 $283 $112 $188 forward $284 $-1 #
edge $-1 $285 -28.8641197210138 $193 -25.092316462517445 $187 $286 forward 7 unknown #
coedge $-1 $287 $114 $184 $277 reversed $191 $-1 #
coedge $-1 $114 $287 $282 $288 reversed $191 $-1 #
loop $-1 $-1 $114 $179 #
vertex $-1 $185 $289 #
vertex $-1 $288 $290 #
straight-curve $-1 -77.813653981139566 -25.092316462517445 0 0 0 1 I I #
face $-1 $-1 $291 $26 $-1 $292 reversed single #
loop $-1 $-1 $122 $116 #
plane-surface $-1 0 0 12.272424420704825 0 0 1 1 0 0 forward_v I I I I #
coedge $-1 $293 $294 $295 $296 reversed $117 $-1 #
coedge $-1 $297 $119 $121 $205 forward $73 $-1 #
coedge $-1 $119 $297 $293 $298 forward $73 $-1 #
coedge $-1 $295 $122 $119 $202 forward $196 $-1 #
edge $-1 $208 -37.964070674620345 $299 0.28515906729523621 $201 $300 forward 7 unknown #
coedge $-1 $301 $302 $120 $204 forward $291 $-1 #
edge $-1 $303 -86.244887081545428 $207 -76.572771141991055 $203 $304 forward 7 unknown #
edge $-1 $208 86.82864303273027 $303 99.27433060785421 $121 $305 forward 7 unknown #
coedge $-1 $122 $295 $301 $306 forward $196 $-1 #
vertex $-1 $204 $307 #
vertex $-1 $123 $308 #
straight-curve $-1 -56.803526478282905 54.053470461122131 12.272424420704823 0 -1 0 I I #
coedge $-1 $210 $210 $-1 $309 reversed $126 $-1 #
edge $-1 $310 0 $310 6.2831853071796004 $127 $311 forward 7 unknown #
vertex $-1 $130 $312 #
ellipse-curve $-1 -45.875175123449878 45.721002881688584 7.4363664509276433 0 0.77714596973225614 0.62932038083071107 3 0 0 1 I I #
coedge $-1 $214 $214 $-1 $313 reversed $133 $-1 #
edge $-1 $314 0 $314 6.2831853071796004 $134 $315 forward 7 unknown #
vertex $-1 $137 $316 #
ellipse-curve $-1 -29.482648091200346 45.721002881688584 7.4363664509276433 0 0.77714596973225614 0.62932038083071107 3 0 0 1 I I #
face $-1 $-1 $317 $29 $-1 $318 reversed single #
loop $-1 $-1 $144 $138 #
plane-surface $-1 0 0 12.272424420704825 0 0 1 1 0 0 forward_v I I I I #
coedge $-1 $319 $320 $321 $322 reversed $139 $-1 #
coedge $-1 $323 $141 $143 $228 forward $87 $-1 #
coedge $-1 $141 $323 $319 $324 forward $87 $-1 #
coedge $-1 $321 $144 $141 $225 forward $219 $-1 #
edge $-1 $231 -15.227852319468987 $325 6.0553251609485059 $224 $326 forward 7 unknown #
coedge $-1 $327 $328 $142 $227 forward $317 $-1 #
edge $-1 $329 -37.794189254766728 $230 -30.087373391563439 $226 $330 forward 7 unknown #
edge $-1 $231 -8.9910286900199843 $329 -1.3556693106716273e-014 $143 $331 forward 7 unknown #
coedge $-1 $144 $321 $327 $332 forward $219 $-1 #
vertex $-1 $145 $333 #
vertex $-1 $145 $334 #
straight-curve $-1 19.814115898729227 -91.51790300240576 12.272424420704823 0 1 0 I I #
coedge $-1 $233 $233 $-1 $335 reversed $148 $-1 #
edge $-1 $336 0 $336 6.2831853071796004 $149 $337 forward 7 unknown #
vertex $-1 $152 $338 #
ellipse-curve $-1 4.6118462698595977 -47.321804308561568 8.4190164891031731 0 -0.85716730853699208 0.51503806187062418 1 0 0 1 I I #
coedge $-1 $237 $237 $-1 $339 reversed $155 $-1 #
edge $-1 $340 0 $340 6.2831853071796004 $156 $341 forward 7 unknown #
vertex $-1 $159 $342 #
ellipse-curve $-1 13.733208047181378 -47.321804308561568 8.4190164891031731 0 -0.85716730853699208 0.51503806187062418 1 0 0 1 I I #
face $-1 $-1 $175 $24 $-1 $343 reversed single #
loop $-1 $-1 $257 $160 #
plane-surface $-1 0 49.637165303927098 0 0 -1 0 0 0 -1 forward_v I I I I #
coedge $-1 $344 $255 $258 $345 forward $161 $-1 #
coedge $-1 $261 $163 $164 $249 reversed $101 $-1 #
coedge $-1 $255 $344 $163 $247 reversed $161 $-1 #
edge $-1 $262 -12.272424420704825 $346 12.272424420704825 $246 $347 forward 7 unknown #
coedge $-1 $165 $164 $344 $348 forward $65 $-1 #
edge $-1 $253 -77.813653981139566 $346 77.813653981139566 $245 $349 forward 7 unknown #
coedge $-1 $258 $257 $165 $251 reversed $242 $-1 #
edge $-1 $350 -77.813653981139566 $252 77.813653981139566 $250 $351 forward 7 unknown #
vertex $-1 $167 $352 #
vertex $-1 $264 $353 #
straight-curve $-1 77.813653981139566 0 -12.272424420704825 0 -1 0 I I #
coedge $-1 $244 $246 $168 $256 reversed $161 $-1 #
edge $-1 $259 -49.637165303927098 $262 49.637165303927098 $255 $354 forward 7 unknown #
coedge $-1 $250 $169 $174 $265 forward $242 $-1 #
coedge $-1 $169 $250 $244 $345 reversed $242 $-1 #
vertex $-1 $170 $355 #
straight-curve $-1 0 49.637165303927098 12.272424420704825 -1 0 0 I I #
coedge $-1 $171 $245 $173 $264 reversed $101 $-1 #
vertex $-1 $256 $356 #
straight-curve $-1 0 -49.637165303927098 12.272424420704825 1 0 0 I I #
edge $-1 $176 -12.272424420704825 $253 12.272424420704825 $173 $357 forward 7 unknown #
edge $-1 $177 -12.272424420704825 $252 12.272424420704825 $174 $358 forward 7 unknown #
point $-1 77.813653981139566 -49.637165303927098 12.272424420704825 #
point $-1 77.813653981139566 49.637165303927098 12.272424420704825 #
face $-1 $-1 $284 $25 $-1 $359 forward single #
plane-surface $-1 -83.813295347631822 -25.092316462517445 0 0 -1 0 0 0 -1 forward_v I I I I #
coedge $-1 $360 $361 $287 $362 forward $180 $-1 #
coedge $-1 $280 $182 $183 $276 reversed $109 $-1 #
coedge $-1 $182 $280 $283 $363 reversed $109 $-1 #
coedge $-1 $361 $360 $182 $274 reversed $180 $-1 #
edge $-1 $364 -12.272424420704825 $365 12.272424420704825 $273 $366 forward 7 unknown #
coedge $-1 $184 $183 $360 $367 forward $69 $-1 #
edge $-1 $278 -5.9996413664922557 $365 5.9996413664922557 $271 $368 forward 7 unknown #
edge $-1 $369 -5.9996413664922557 $192 5.9996413664922557 $189 $370 forward 7 unknown #
vertex $-1 $276 $371 #
straight-curve $-1 -77.813653981139566 0 -12.272424420704825 0 -1 0 I I #
coedge $-1 $272 $271 $186 $281 reversed $109 $-1 #
edge $-1 $285 -12.272424420704825 $278 12.272424420704825 $280 $372 forward 7 unknown #
coedge $-1 $373 $187 $190 $288 forward $284 $-1 #
coedge $-1 $187 $373 $272 $363 forward $284 $-1 #
loop $-1 $-1 $187 $268 #
vertex $-1 $188 $374 #
straight-curve $-1 -77.813653981139566 0 12.272424420704825 0 1 0 I I #
coedge $-1 $190 $189 $270 $362 reversed $191 $-1 #
edge $-1 $193 -5.9996413664922557 $375 5.9996413664922557 $190 $376 forward 7 unknown #
point $-1 -77.813653981139566 -25.092316462517445 -12.272424420704825 #
point $-1 -77.813653981139566 -25.092316462517445 12.272424420704825 #
loop $-1 $-1 $203 $195 #
plane-surface $-1 0 49.637165303927098 0 0 -1 0 0 0 -1 forward_v I I I I #
coedge $-1 $294 $198 $200 $298 reversed $117 $-1 #
coedge $-1 $198 $293 $377 $378 reversed $117 $-1 #
coedge $-1 $206 $201 $198 $296 forward $196 $-1 #
edge $-1 $299 -12.248630001672069 $379 -4.4163051571950334 $295 $380 forward 7 unknown #
coedge $-1 $200 $199 $302 $381 reversed $73 $-1 #
edge $-1 $382 -99.27433060785421 $299 -86.82864303273027 $293 $383 forward 7 unknown #
vertex $-1 $202 $384 #
straight-curve $-1 -18.839455803662556 41.804840459450062 12.27242442070483 1 0 0 I I #
coedge $-1 $377 $203 $206 $306 reversed $291 $-1 #
coedge $-1 $203 $377 $297 $381 forward $291 $-1 #
vertex $-1 $204 $385 #
straight-curve $-1 -56.803526478282905 49.637165303927098 88.845195562695878 0 0 1 I I #
straight-curve $-1 -56.803526478282905 -12.838194240921624 79.750954410911902 0 0.62932038083071107 -0.77714596973225614 I I #
edge $-1 $379 18.55429673636732 $207 56.803526478282905 $301 $386 forward 7 unknown #
point $-1 -56.803526478282905 49.637165303927098 12.272424420704825 #
point $-1 -56.803526478282905 41.804840459450062 12.272424420704823 #
edge $-1 $387 1 $387 0 $210 $-1 forward 7 unknown #
vertex $-1 $211 $388 #
ellipse-curve $-1 -45.875175123449878 42.724435983717385 5.0097944877922833 0 0.77714596973225614 0.62932038083071107 3 0 0 1 I I #
point $-1 -42.875175123449878 45.72100288168857 7.4363664509276379 #
edge $-1 $389 1 $389 0 $214 $-1 forward 7 unknown #
vertex $-1 $215 $390 #
ellipse-curve $-1 -29.482648091200346 42.724435983717385 5.0097944877922833 0 0.77714596973225614 0.62932038083071107 3 0 0 1 I I #
point $-1 -26.482648091200346 45.72100288168857 7.4363664509276379 #
loop $-1 $-1 $226 $218 #
plane-surface $-1 0 -49.637165303927098 0 0 1 0 0 0 1 forward_v I I I I #
coedge $-1 $320 $221 $223 $324 reversed $139 $-1 #
coedge $-1 $221 $319 $391 $392 reversed $139 $-1 #
coedge $-1 $229 $224 $221 $322 forward $219 $-1 #
edge $-1 $325 -46.511459689209723 $393 -41.880737698478661 $321 $394 forward 7 unknown #
coedge $-1 $223 $222 $328 $395 reversed $87 $-1 #
edge $-1 $396 1.3556693106716273e-014 $325 8.9910286900199843 $319 $397 forward 7 unknown #
vertex $-1 $225 $398 #
straight-curve $-1 4.5862635792602404 -45.00644331319603 12.272424420704825 -1 0 0 I I #
coedge $-1 $391 $226 $229 $332 reversed $317 $-1 #
coedge $-1 $226 $391 $323 $395 forward $317 $-1 #
vertex $-1 $227 $399 #
straight-curve $-1 19.814115898729227 -49.637165303927105 42.359797812268262 0 0 1 I I #
straight-curve $-1 19.814115898729227 -49.637165303927105 4.5656085575015197 0 -0.51503806187062418 -0.85716730853699208 I I #
edge $-1 $393 -1.4690615816882655 $230 19.814115898729227 $327 $400 forward 7 unknown #
point $-1 19.814115898729227 -49.637165303927098 12.272424420704825 #
point $-1 19.814115898729227 -45.006443313196037 12.272424420704827 #
edge $-1 $401 1 $401 0 $233 $-1 forward 7 unknown #
vertex $-1 $234 $402 #
ellipse-curve $-1 4.6118462698595977 -44.430633676315182 6.6818259731571432 0 -0.85716730853699208 0.51503806187062418 1 0 0 1 I I #
point $-1 5.6118462698595977 -47.321804308561561 8.4190164891031642 #
edge $-1 $403 1 $403 0 $237 $-1 forward 7 unknown #
vertex $-1 $238 $404 #
ellipse-curve $-1 13.733208047181378 -44.430633676315182 6.6818259731571432 0 -0.85716730853699208 0.51503806187062418 1 0 0 1 I I #
point $-1 14.733208047181378 -47.321804308561561 8.4190164891031642 #
plane-surface $-1 77.813653981139566 0 0 -1 0 0 0 0 1 forward_v I I I I #
coedge $-1 $246 $244 $248 $348 reversed $161 $-1 #
edge $-1 $259 -12.272424420704825 $350 12.272424420704825 $258 $405 forward 7 unknown #
vertex $-1 $348 $406 #
straight-curve $-1 -77.813653981139566 -49.637165303927098 0 0 0 -1 I I #
edge $-1 $346 -49.637165303927098 $350 49.637165303927098 $344 $407 forward 7 unknown #
straight-curve $-1 0 -49.637165303927098 -12.272424420704825 -1 0 0 I I #
vertex $-1 $251 $408 #
straight-curve $-1 0 49.637165303927098 -12.272424420704825 1 0 0 I I #
point $-1 77.813653981139566 49.637165303927098 -12.272424420704825 #
point $-1 77.813653981139566 -49.637165303927098 -12.272424420704825 #
straight-curve $-1 -77.813653981139566 0 12.272424420704825 0 -1 0 I I #
point $-1 -77.813653981139566 49.637165303927098 12.272424420704825 #
point $-1 -77.813653981139566 -49.637165303927098 12.272424420704825 #
straight-curve $-1 77.813653981139566 -49.637165303927098 0 0 0 -1 I I #
straight-curve $-1 77.813653981139566 49.637165303927098 0 0 0 -1 I I #
plane-surface $-1 0 0 12.272424420704825 0 0 1 1 0 0 forward_v I I I I #
coedge $-1 $273 $270 $275 $367 reversed $180 $-1 #
coedge $-1 $270 $273 $373 $409 reversed $180 $-1 #
edge $-1 $375 -12.272424420704825 $369 12.272424420704825 $287 $410 forward 7 unknown #
edge $-1 $364 -5.9996413664922557 $285 5.9996413664922557 $272 $411 forward 7 unknown #
vertex $-1 $409 $412 #
vertex $-1 $367 $413 #
straight-curve $-1 -89.812936714124078 -28.8641197210138 0 0 0 -1 I I #
edge $-1 $365 -1.8859016292481776 $369 1.8859016292481776 $360 $414 forward 7 unknown #
straight-curve $-1 -83.813295347631822 -28.8641197210138 -12.272424420704825 -1 0 0 I I #
vertex $-1 $277 $415 #
straight-curve $-1 -83.813295347631822 -25.092316462517445 -12.272424420704825 1 0 0 I I #
point $-1 -77.813653981139566 -28.8641197210138 -12.272424420704825 #
straight-curve $-1 -77.813653981139566 -28.8641197210138 0 0 0 -1 I I #
coedge $-1 $283 $282 $361 $409 forward $284 $-1 #
point $-1 -77.813653981139566 -28.8641197210138 12.272424420704825 #
vertex $-1 $288 $416 #
straight-curve $-1 -83.813295347631822 -25.092316462517445 12.272424420704825 -1 0 0 I I #
coedge $-1 $302 $301 $294 $378 forward $291 $-1 #
edge $-1 $379 76.572771141991055 $382 86.244887081545428 $377 $417 forward 7 unknown #
vertex $-1 $306 $418 #
straight-curve $-1 -18.55429673636732 54.053470461122131 12.272424420704823 0 1 0 I I #
edge $-1 $382 -0.28515906729523621 $303 37.964070674620345 $302 $419 forward 7 unknown #
vertex $-1 $381 $420 #
straight-curve $-1 -18.55429673636732 -12.838194240921624 79.750954410911902 0 -0.62932038083071107 0.77714596973225614 I I #
point $-1 -18.55429673636732 41.804840459450062 12.272424420704823 #
point $-1 -56.803526478282905 49.637165303927098 2.6003084811504493 #
straight-curve $-1 0 49.637165303927098 12.272424420704825 -1 0 0 I I #
vertex $-1 $309 $421 #
point $-1 -42.875175123449878 42.724435983717385 5.0097944877922833 #
vertex $-1 $313 $422 #
point $-1 -26.482648091200346 42.724435983717385 5.0097944877922833 #
coedge $-1 $328 $327 $320 $392 forward $317 $-1 #
edge $-1 $393 30.087373391563439 $396 37.794189254766728 $391 $423 forward 7 unknown #
vertex $-1 $332 $424 #
straight-curve $-1 -1.4690615816882655 -91.51790300240576 12.272424420704823 0 -1 0 I I #
edge $-1 $396 -6.0553251609485059 $329 15.227852319468987 $328 $425 forward 7 unknown #
vertex $-1 $395 $426 #
straight-curve $-1 -1.4690615816882655 -49.637165303927105 4.5656085575015197 0 0.51503806187062418 0.85716730853699208 I I #
point $-1 -1.4690615816882655 -45.006443313196037 12.272424420704827 #
point $-1 19.814115898729227 -49.637165303927098 4.5656085575015313 #
straight-curve $-1 0 -49.637165303927098 12.272424420704825 1 0 0 I I #
vertex $-1 $335 $427 #
point $-1 5.6118462698595977 -44.430633676315182 6.6818259731571432 #
vertex $-1 $339 $428 #
point $-1 14.733208047181378 -44.430633676315182 6.6818259731571432 #
straight-curve $-1 -77.813653981139566 49.637165303927098 0 0 0 -1 I I #
point $-1 -77.813653981139566 -49.637165303927098 -12.272424420704825 #
straight-curve $-1 -77.813653981139566 0 -12.272424420704825 0 1 0 I I #
point $-1 -77.813653981139566 49.637165303927098 -12.272424420704825 #
edge $-1 $375 -1.8859016292481776 $364 1.8859016292481776 $361 $429 forward 7 unknown #
straight-curve $-1 -89.812936714124078 -25.092316462517445 0 0 0 -1 I I #
straight-curve $-1 -83.813295347631822 -28.8641197210138 12.272424420704825 1 0 0 I I #
point $-1 -89.812936714124078 -28.8641197210138 12.272424420704825 #
point $-1 -89.812936714124078 -28.8641197210138 -12.272424420704825 #
straight-curve $-1 -89.812936714124078 -26.978218091765623 -12.272424420704825 0 1 0 I I #
point $-1 -89.812936714124078 -25.092316462517445 -12.272424420704825 #
point $-1 -89.812936714124078 -25.092316462517445 12.272424420704825 #
straight-curve $-1 -18.55429673636732 49.637165303927098 88.845195562695878 0 0 -1 I I #
point $-1 -18.55429673636732 49.637165303927098 12.272424420704825 #
straight-curve $-1 -18.839455803662556 49.637165303927098 2.6003084811504564 -1 0 0 I I #
point $-1 -18.55429673636732 49.637165303927098 2.6003084811504493 #
point $-1 -45.875175123449878 40.392998074520619 3.1218333453001503 #
point $-1 -29.482648091200346 40.392998074520619 3.1218333453001503 #
straight-curve $-1 -1.4690615816882655 -49.637165303927105 42.359797812268262 0 0 -1 I I #
point $-1 -1.4690615816882655 -49.637165303927098 12.272424420704825 #
straight-curve $-1 4.5862635792602404 -49.637165303927098 4.5656085575015313 1 0 0 I I #
point $-1 -1.4690615816882655 -49.637165303927098 4.5656085575015313 #
point $-1 4.6118462698595977 -43.573466367778195 6.1667879112865185 #
point $-1 13.733208047181378 -43.573466367778195 6.1667879112865185 #
straight-curve $-1 -89.812936714124078 -26.978218091765623 12.272424420704825 0 -1 0 I I #
End-of-ACIS-data 