500 0 8 0           
7 Unknown 11 ACIS 5.0 NT 24 Fri Mar 26 17:29:11 1999 
-1 9.9999999999999995e-007 1e-010 
body $-1 $8 $-1 $9 #
body $-1 $10 $-1 $11 #
body $-1 $12 $-1 $13 #
body $-1 $14 $-1 $15 #
body $-1 $16 $-1 $17 #
body $-1 $18 $-1 $19 #
body $-1 $20 $-1 $21 #
body $-1 $22 $-1 $23 #
lump $-1 $-1 $24 $0 #
transform $-1 1 0 0 0 1 0 0 0 1 51.454206976531268 34.899573161757687 9.5795691070736115 1 rotate no_reflect no_shear #
lump $-1 $-1 $25 $1 #
transform $-1 1 0 0 0 1 0 0 0 1 51.454206976531268 34.899573161757687 9.5795691070736115 1 rotate no_reflect no_shear #
lump $-1 $-1 $26 $2 #
transform $-1 1 0 0 0 1 0 0 0 1 51.454206976531268 34.899573161757687 9.5795691070736115 1 rotate no_reflect no_shear #
lump $-1 $-1 $27 $3 #
transform $-1 1 0 0 0 1 0 0 0 1 51.454206976531268 34.899573161757687 9.5795691070736115 1 rotate no_reflect no_shear #
lump $-1 $-1 $28 $4 #
transform $-1 1 0 0 0 1 0 0 0 1 51.454206976531268 34.899573161757687 9.5795691070736115 1 rotate no_reflect no_shear #
lump $-1 $-1 $29 $5 #
transform $-1 1 0 0 0 1 0 0 0 1 51.454206976531268 34.899573161757687 9.5795691070736115 1 rotate no_reflect no_shear #
lump $-1 $-1 $30 $6 #
transform $-1 1 0 0 0 1 0 0 0 1 51.454206976531268 34.899573161757687 9.5795691070736115 1 rotate no_reflect no_shear #
lump $-1 $-1 $31 $7 #
transform $-1 1 0 0 0 1 0 0 0 1 51.454206976531268 34.899573161757687 9.5795691070736115 1 rotate no_reflect no_shear #
shell $-1 $-1 $-1 $32 $-1 $8 #
shell $-1 $-1 $-1 $33 $-1 $10 #
shell $-1 $-1 $-1 $34 $-1 $12 #
shell $-1 $-1 $-1 $35 $-1 $14 #
shell $-1 $-1 $-1 $36 $-1 $16 #
shell $-1 $-1 $-1 $37 $-1 $18 #
shell $-1 $-1 $-1 $38 $-1 $20 #
shell $-1 $-1 $-1 $39 $-1 $22 #
face $-1 $40 $41 $24 $-1 $42 forward single #
face $-1 $43 $44 $25 $-1 $45 reversed single #
face $-1 $46 $47 $26 $-1 $48 reversed single #
face $-1 $49 $50 $27 $-1 $51 forward single #
face $-1 $52 $53 $28 $-1 $54 forward single #
face $-1 $55 $56 $29 $-1 $57 reversed single #
face $-1 $58 $59 $30 $-1 $60 forward single #
face $-1 $61 $62 $31 $-1 $63 forward single #
face $-1 $64 $65 $24 $-1 $66 reversed single #
loop $-1 $-1 $67 $32 #
plane-surface $-1 0 0 9.5795691070736115 0 0 1 1 0 0 forward_v I I I I #
face $-1 $68 $69 $25 $-1 $70 reversed single #
loop $-1 $-1 $71 $33 #
plane-surface $-1 -40.220840772737326 -30.424396778254881 0 1 0 0 0 0 -1 forward_v I I I I #
face $-1 $72 $73 $26 $-1 $74 reversed single #
loop $-1 $-1 $75 $34 #
plane-surface $-1 -122.94039895949099 -25.949220394752075 77.956951353748437 0 1 0 -0.69465837861970381 0 0.71933979245794832 forward_v I I I I #
face $-1 $76 $77 $27 $-1 $78 forward single #
loop $-1 $79 $80 $35 #
cone-surface $-1 -45.908519363865246 -21.838798423503675 4.0411082798061582 0.69465837861970381 0 -0.71933979245794832 1.4386795849158966 0 1.3893167572394076 1 I I 0 1 2 forward I I I I #
face $-1 $81 $82 $28 $-1 $83 forward single #
loop $-1 $84 $85 $36 #
cone-surface $-1 -45.908519363865246 -15.67316546663108 4.0411082798061582 0.69465837861970381 0 -0.71933979245794832 1.4386795849158966 0 1.3893167572394076 1 I I 0 1 2 forward I I I I #
face $-1 $86 $87 $29 $-1 $88 reversed single #
loop $-1 $-1 $89 $37 #
plane-surface $-1 48.914281824318351 -11.562743495382684 149.44314333670815 0 -1 0 -0.69465837861970381 0 -0.71933979245794832 forward_v I I I I #
face $-1 $90 $91 $30 $-1 $92 forward single #
loop $-1 $93 $94 $38 #
cone-surface $-1 45.908519363865246 -21.838798423503675 4.0411082798061617 -0.69465837861970381 0 -0.71933979245794832 1.4386795849158966 0 -1.3893167572394076 1 I I 0 1 2 forward I I I I #
face $-1 $95 $96 $31 $-1 $97 forward single #
loop $-1 $98 $99 $39 #
cone-surface $-1 45.908519363865246 -15.67316546663108 4.0411082798061617 -0.69465837861970381 0 -0.71933979245794832 1.4386795849158966 0 -1.3893167572394076 1 I I 0 1 2 forward I I I I #
face $-1 $100 $101 $24 $-1 $102 reversed single #
loop $-1 $-1 $103 $40 #
plane-surface $-1 0 0 -9.5795691070736115 0 0 1 1 0 0 forward_v I I I I #
coedge $-1 $104 $105 $106 $107 forward $41 $-1 #
face $-1 $108 $109 $25 $-1 $110 reversed single #
loop $-1 $-1 $111 $43 #
plane-surface $-1 -38.650752699690088 -25.949220394752075 0 0 -1 0 0 0 -1 forward_v I I I I #
coedge $-1 $112 $113 $114 $115 forward $44 $-1 #
face $-1 $116 $117 $26 $-1 $118 reversed single #
loop $-1 $-1 $119 $46 #
plane-surface $-1 -51.454206976531268 -18.755981945067379 3.9308342185757965 -0.69465837861970381 0 0.71933979245794832 0.71933979245794832 0 0.69465837861970381 forward_v I I I I #
coedge $-1 $120 $121 $122 $123 reversed $47 $-1 #
face $-1 $-1 $124 $27 $-1 $125 forward single #
loop $-1 $126 $127 $49 #
cone-surface $-1 -42.59289141198181 -21.838798423503675 0.60767510432966709 0.69465837861970381 0 -0.71933979245794832 0.71933979245794832 0 0.69465837861970381 1 I I -0.70710678118654746 0.70710678118654746 1 forward I I I I #
loop $-1 $-1 $128 $35 #
coedge $-1 $80 $80 $129 $130 reversed $50 $-1 #
face $-1 $-1 $131 $28 $-1 $132 forward single #
loop $-1 $133 $134 $52 #
cone-surface $-1 -42.59289141198181 -15.67316546663108 0.60767510432966709 0.69465837861970381 0 -0.71933979245794832 0.71933979245794832 0 0.69465837861970381 1 I I -0.70710678118654746 0.70710678118654746 1 forward I I I I #
loop $-1 $-1 $135 $36 #
coedge $-1 $85 $85 $136 $137 reversed $53 $-1 #
face $-1 $138 $139 $29 $-1 $140 reversed single #
loop $-1 $-1 $141 $55 #
plane-surface $-1 -22.571910158641373 -18.755981945067379 75.417026201535506 0.69465837861970381 0 0.71933979245794832 0.71933979245794832 0 -0.69465837861970381 forward_v I I I I #
coedge $-1 $142 $143 $144 $145 reversed $56 $-1 #
face $-1 $-1 $146 $30 $-1 $147 forward single #
loop $-1 $148 $149 $58 #
cone-surface $-1 42.59289141198181 -21.838798423503675 0.60767510432967065 -0.69465837861970381 0 -0.71933979245794832 0.71933979245794832 0 -0.69465837861970381 1 I I -0.70710678118654746 0.70710678118654746 1 forward I I I I #
loop $-1 $-1 $150 $38 #
coedge $-1 $94 $94 $151 $152 reversed $59 $-1 #
face $-1 $-1 $153 $31 $-1 $154 forward single #
loop $-1 $155 $156 $61 #
cone-surface $-1 42.59289141198181 -15.67316546663108 0.60767510432967065 -0.69465837861970381 0 -0.71933979245794832 0.71933979245794832 0 -0.69465837861970381 1 I I -0.70710678118654746 0.70710678118654746 1 forward I I I I #
loop $-1 $-1 $157 $39 #
coedge $-1 $99 $99 $158 $159 reversed $62 $-1 #
face $-1 $160 $161 $24 $-1 $162 reversed single #
loop $-1 $-1 $163 $64 #
plane-surface $-1 0 -34.899573161757687 0 0 1 0 0 0 1 forward_v I I I I #
coedge $-1 $164 $165 $166 $167 forward $65 $-1 #
coedge $-1 $168 $67 $169 $170 forward $41 $-1 #
coedge $-1 $67 $168 $171 $172 forward $41 $-1 #
coedge $-1 $173 $174 $67 $107 reversed $175 $-1 #
edge $-1 $176 -34.899573161757687 $177 34.899573161757687 $106 $178 forward 7 unknown #
face $-1 $179 $180 $25 $-1 $181 forward single #
loop $-1 $-1 $182 $68 #
plane-surface $-1 -37.08066462664285 -30.424396778254881 0 -1 0 0 0 0 1 forward_v I I I I #
coedge $-1 $183 $184 $185 $186 forward $69 $-1 #
coedge $-1 $187 $71 $188 $189 reversed $44 $-1 #
coedge $-1 $71 $187 $190 $191 reversed $44 $-1 #
coedge $-1 $184 $183 $71 $115 reversed $69 $-1 #
edge $-1 $192 -9.5795691070736115 $193 9.5795691070736115 $114 $194 forward 7 unknown #
face $-1 $195 $196 $26 $-1 $197 reversed single #
loop $-1 $-1 $198 $72 #
plane-surface $-1 -122.94039895949099 -11.562743495382684 77.956951353748437 0 -1 0 0.69465837861970381 0 -0.71933979245794832 forward_v I I I I #
coedge $-1 $199 $200 $201 $202 reversed $73 $-1 #
coedge $-1 $121 $75 $203 $204 reversed $47 $-1 #
coedge $-1 $75 $120 $199 $205 reversed $47 $-1 #
coedge $-1 $201 $206 $75 $123 forward $207 $-1 #
edge $-1 $208 10.015992503214228 $209 15.865428582018815 $122 $210 forward 7 unknown #
loop $-1 $-1 $129 $76 #
plane-surface $-1 -51.454206976531268 -18.755981945067379 3.9308342185757965 -0.69465837861970381 0 0.71933979245794832 0.71933979245794832 0 0.69465837861970381 forward_v I I I I #
loop $-1 $-1 $211 $49 #
coedge $-1 $127 $127 $128 $212 reversed $77 $-1 #
coedge $-1 $128 $128 $127 $212 forward $79 $-1 #
coedge $-1 $129 $129 $80 $130 forward $124 $-1 #
edge $-1 $213 0 $213 6.2831853071796004 $129 $214 forward 7 unknown #
loop $-1 $-1 $136 $81 #
plane-surface $-1 -51.454206976531268 -18.755981945067379 3.9308342185757965 -0.69465837861970381 0 0.71933979245794832 0.71933979245794832 0 0.69465837861970381 forward_v I I I I #
loop $-1 $-1 $215 $52 #
coedge $-1 $134 $134 $135 $216 reversed $82 $-1 #
coedge $-1 $135 $135 $134 $216 forward $84 $-1 #
coedge $-1 $136 $136 $85 $137 forward $131 $-1 #
edge $-1 $217 0 $217 6.2831853071796004 $136 $218 forward 7 unknown #
face $-1 $219 $220 $29 $-1 $221 forward single #
loop $-1 $-1 $222 $86 #
plane-surface $-1 48.914281824318351 -25.949220394752075 149.44314333670815 0 1 0 0.69465837861970381 0 0.71933979245794832 forward_v I I I I #
coedge $-1 $223 $224 $225 $226 reversed $87 $-1 #
coedge $-1 $143 $89 $227 $228 reversed $56 $-1 #
coedge $-1 $89 $142 $223 $229 reversed $56 $-1 #
coedge $-1 $225 $230 $89 $145 forward $220 $-1 #
edge $-1 $231 -26.997066064372092 $232 -21.147629985567491 $144 $233 forward 7 unknown #
loop $-1 $-1 $151 $90 #
plane-surface $-1 -22.571910158641373 -18.755981945067379 75.417026201535506 0.69465837861970381 0 0.71933979245794832 0.71933979245794832 0 -0.69465837861970381 forward_v I I I I #
loop $-1 $-1 $234 $58 #
coedge $-1 $149 $149 $150 $235 reversed $91 $-1 #
coedge $-1 $150 $150 $149 $235 forward $93 $-1 #
coedge $-1 $151 $151 $94 $152 forward $146 $-1 #
edge $-1 $236 0 $236 6.2831853071796004 $151 $237 forward 7 unknown #
loop $-1 $-1 $158 $95 #
plane-surface $-1 -22.571910158641373 -18.755981945067379 75.417026201535506 0.69465837861970381 0 0.71933979245794832 0.71933979245794832 0 -0.69465837861970381 forward_v I I I I #
loop $-1 $-1 $238 $61 #
coedge $-1 $156 $156 $157 $239 reversed $96 $-1 #
coedge $-1 $157 $157 $156 $239 forward $98 $-1 #
coedge $-1 $158 $158 $99 $159 forward $153 $-1 #
edge $-1 $240 0 $240 6.2831853071796004 $158 $241 forward 7 unknown #
face $-1 $242 $243 $24 $-1 $244 reversed single #
loop $-1 $-1 $245 $100 #
plane-surface $-1 -51.454206976531268 0 0 1 0 0 0 0 -1 forward_v I I I I #
coedge $-1 $246 $171 $247 $248 forward $101 $-1 #
coedge $-1 $249 $103 $246 $250 forward $65 $-1 #
coedge $-1 $103 $249 $251 $252 forward $65 $-1 #
coedge $-1 $174 $173 $103 $167 reversed $175 $-1 #
edge $-1 $253 -34.899573161757687 $254 34.899573161757687 $166 $255 forward 7 unknown #
coedge $-1 $105 $104 $256 $257 forward $41 $-1 #
coedge $-1 $258 $259 $104 $170 reversed $243 $-1 #
edge $-1 $177 -51.454206976531268 $260 51.454206976531268 $169 $261 forward 7 unknown #
coedge $-1 $163 $262 $105 $172 reversed $101 $-1 #
edge $-1 $263 -51.454206976531268 $176 51.454206976531268 $171 $264 forward 7 unknown #
coedge $-1 $166 $106 $262 $265 forward $175 $-1 #
coedge $-1 $106 $166 $258 $266 reversed $175 $-1 #
loop $-1 $-1 $173 $242 #
vertex $-1 $107 $267 #
vertex $-1 $107 $268 #
straight-curve $-1 51.454206976531268 0 9.5795691070736115 0 1 0 I I #
face $-1 $269 $270 $25 $-1 $271 reversed single #
loop $-1 $-1 $272 $108 #
plane-surface $-1 0 0 9.5795691070736115 0 0 1 1 0 0 forward_v I I I I #
coedge $-1 $273 $274 $275 $276 reversed $109 $-1 #
coedge $-1 $114 $111 $277 $278 reversed $69 $-1 #
coedge $-1 $111 $114 $279 $280 reversed $69 $-1 #
coedge $-1 $274 $273 $111 $186 reversed $109 $-1 #
edge $-1 $281 -9.5795691070736115 $282 9.5795691070736115 $185 $283 forward 7 unknown #
coedge $-1 $113 $112 $284 $285 reversed $44 $-1 #
coedge $-1 $277 $286 $112 $189 forward $270 $-1 #
edge $-1 $287 -19.687374772630246 $193 -10.737022005624635 $188 $288 forward 7 unknown #
coedge $-1 $289 $279 $113 $191 forward $180 $-1 #
edge $-1 $192 10.737022005624635 $290 19.687374772630246 $190 $291 forward 7 unknown #
vertex $-1 $191 $292 #
vertex $-1 $189 $293 #
straight-curve $-1 -40.220840772737326 -25.949220394752075 0 0 0 -1 I I #
face $-1 $-1 $207 $26 $-1 $294 forward single #
loop $-1 $-1 $295 $116 #
plane-surface $-1 -51.454206976531268 0 0 1 0 0 0 0 -1 forward_v I I I I #
coedge $-1 $296 $297 $298 $299 reversed $117 $-1 #
coedge $-1 $300 $119 $121 $205 forward $73 $-1 #
coedge $-1 $119 $300 $296 $301 forward $73 $-1 #
coedge $-1 $298 $122 $119 $202 forward $207 $-1 #
edge $-1 $209 -16.571229422218387 $302 -2.1847525228489939 $201 $303 forward 7 unknown #
coedge $-1 $304 $305 $120 $204 forward $196 $-1 #
edge $-1 $306 -35.047641458298422 $208 -29.398906569800609 $203 $307 forward 7 unknown #
edge $-1 $209 -8.1316731538197722 $306 0 $121 $308 forward 7 unknown #
coedge $-1 $122 $298 $304 $309 forward $207 $-1 #
loop $-1 $-1 $298 $195 #
vertex $-1 $204 $310 #
vertex $-1 $123 $311 #
straight-curve $-1 -61.470199479745496 -25.949220394752075 9.5795691070736098 1 0 0 I I #
coedge $-1 $211 $211 $-1 $312 reversed $126 $-1 #
edge $-1 $313 0 $313 6.2831853071796004 $127 $314 forward 7 unknown #
vertex $-1 $130 $315 #
ellipse-curve $-1 -48.529488937128974 -21.838798423503675 6.7552016628247031 -0.69465837861970381 0 0.71933979245794832 1.4386795849158966 0 1.3893167572394076 1 I I #
coedge $-1 $215 $215 $-1 $316 reversed $133 $-1 #
edge $-1 $317 0 $317 6.2831853071796004 $134 $318 forward 7 unknown #
vertex $-1 $137 $319 #
ellipse-curve $-1 -48.529488937128974 -15.67316546663108 6.7552016628247031 -0.69465837861970381 0 0.71933979245794832 1.4386795849158966 0 1.3893167572394076 1 I I #
face $-1 $-1 $320 $29 $-1 $321 reversed single #
loop $-1 $-1 $144 $138 #
plane-surface $-1 0 0 9.5795691070736115 0 0 1 1 0 0 forward_v I I I I #
coedge $-1 $322 $323 $324 $325 reversed $139 $-1 #
coedge $-1 $326 $141 $143 $229 forward $87 $-1 #
coedge $-1 $141 $326 $322 $327 forward $87 $-1 #
coedge $-1 $324 $144 $141 $226 forward $220 $-1 #
edge $-1 $232 2.1847525228489939 $328 16.571229422218387 $225 $329 forward 7 unknown #
coedge $-1 $330 $331 $142 $228 forward $320 $-1 #
edge $-1 $332 -70.790737449778291 $231 -65.142002561280464 $227 $333 forward 7 unknown #
edge $-1 $232 94.776740799242731 $332 102.90841395306254 $143 $334 forward 7 unknown #
coedge $-1 $144 $324 $330 $335 forward $220 $-1 #
vertex $-1 $228 $336 #
vertex $-1 $145 $337 #
straight-curve $-1 24.457140912159176 -11.562743495382684 9.5795691070736098 -1 0 0 I I #
coedge $-1 $234 $234 $-1 $338 reversed $148 $-1 #
edge $-1 $339 0 $339 6.2831853071796004 $149 $340 forward 7 unknown #
vertex $-1 $152 $341 #
ellipse-curve $-1 48.52948893712896 -21.838798423503675 6.7552016628246889 0.69465837861970381 0 0.71933979245794832 1.4386795849158966 0 -1.3893167572394076 1 I I #
coedge $-1 $238 $238 $-1 $342 reversed $155 $-1 #
edge $-1 $343 0 $343 6.2831853071796004 $156 $344 forward 7 unknown #
vertex $-1 $159 $345 #
ellipse-curve $-1 48.52948893712896 -15.67316546663108 6.7552016628246889 0.69465837861970381 0 0.71933979245794832 1.4386795849158966 0 -1.3893167572394076 1 I I #
face $-1 $-1 $175 $24 $-1 $346 reversed single #
loop $-1 $-1 $258 $160 #
plane-surface $-1 0 34.899573161757687 0 0 -1 0 0 0 -1 forward_v I I I I #
coedge $-1 $347 $256 $259 $348 forward $161 $-1 #
coedge $-1 $262 $163 $164 $250 reversed $101 $-1 #
coedge $-1 $256 $347 $163 $248 reversed $161 $-1 #
edge $-1 $263 -9.5795691070736115 $349 9.5795691070736115 $247 $350 forward 7 unknown #
coedge $-1 $165 $164 $347 $351 forward $65 $-1 #
edge $-1 $254 -51.454206976531268 $349 51.454206976531268 $246 $352 forward 7 unknown #
coedge $-1 $259 $258 $165 $252 reversed $243 $-1 #
edge $-1 $353 -51.454206976531268 $253 51.454206976531268 $251 $354 forward 7 unknown #
vertex $-1 $167 $355 #
vertex $-1 $265 $356 #
straight-curve $-1 51.454206976531268 0 -9.5795691070736115 0 -1 0 I I #
coedge $-1 $245 $247 $168 $257 reversed $161 $-1 #
edge $-1 $260 -34.899573161757687 $263 34.899573161757687 $256 $357 forward 7 unknown #
coedge $-1 $251 $169 $174 $266 forward $243 $-1 #
coedge $-1 $169 $251 $245 $348 reversed $243 $-1 #
vertex $-1 $170 $358 #
straight-curve $-1 0 34.899573161757687 9.5795691070736115 -1 0 0 I I #
coedge $-1 $171 $246 $173 $265 reversed $101 $-1 #
vertex $-1 $257 $359 #
straight-curve $-1 0 -34.899573161757687 9.5795691070736115 1 0 0 I I #
edge $-1 $176 -9.5795691070736115 $254 9.5795691070736115 $173 $360 forward 7 unknown #
edge $-1 $177 -9.5795691070736115 $253 9.5795691070736115 $174 $361 forward 7 unknown #
point $-1 51.454206976531268 -34.899573161757687 9.5795691070736115 #
point $-1 51.454206976531268 34.899573161757687 9.5795691070736115 #
face $-1 $-1 $362 $25 $-1 $363 reversed single #
loop $-1 $-1 $364 $179 #
plane-surface $-1 0 0 -9.5795691070736115 0 0 1 1 0 0 forward_v I I I I #
coedge $-1 $279 $289 $274 $365 forward $180 $-1 #
coedge $-1 $185 $182 $364 $366 reversed $109 $-1 #
coedge $-1 $182 $185 $272 $365 reversed $109 $-1 #
coedge $-1 $367 $368 $182 $276 forward $362 $-1 #
edge $-1 $369 -9.5795691070736115 $370 9.5795691070736115 $275 $371 forward 7 unknown #
coedge $-1 $364 $188 $183 $278 forward $270 $-1 #
edge $-1 $193 -20.895464422892282 $282 -17.755288276797806 $277 $372 forward 7 unknown #
coedge $-1 $190 $272 $184 $280 forward $180 $-1 #
edge $-1 $281 17.755288276797806 $192 20.895464422892282 $279 $373 forward 7 unknown #
vertex $-1 $280 $374 #
vertex $-1 $278 $375 #
straight-curve $-1 -37.08066462664285 -25.949220394752075 0 0 0 -1 I I #
coedge $-1 $368 $367 $187 $285 forward $362 $-1 #
edge $-1 $290 -9.5795691070736115 $287 9.5795691070736115 $284 $376 forward 7 unknown #
coedge $-1 $188 $364 $368 $377 forward $270 $-1 #
vertex $-1 $189 $378 #
straight-curve $-1 -40.220840772737326 -15.21219838912744 -9.5795691070736115 0 1 0 I I #
coedge $-1 $272 $190 $367 $379 forward $180 $-1 #
vertex $-1 $379 $380 #
straight-curve $-1 -40.220840772737326 -15.21219838912744 9.5795691070736115 0 -1 0 I I #
point $-1 -40.220840772737326 -25.949220394752075 9.5795691070736115 #
point $-1 -40.220840772737326 -25.949220394752075 -9.5795691070736115 #
plane-surface $-1 0 0 9.5795691070736115 0 0 1 1 0 0 forward_v I I I I #
coedge $-1 $305 $304 $297 $381 forward $196 $-1 #
coedge $-1 $297 $198 $200 $301 reversed $117 $-1 #
coedge $-1 $198 $296 $295 $381 reversed $117 $-1 #
coedge $-1 $206 $201 $198 $299 forward $207 $-1 #
edge $-1 $302 -15.865428582018815 $382 -10.015992503214228 $298 $383 forward 7 unknown #
coedge $-1 $200 $199 $305 $384 reversed $73 $-1 #
edge $-1 $385 0 $302 8.1316731538197722 $296 $386 forward 7 unknown #
vertex $-1 $202 $387 #
straight-curve $-1 -45.604770897726681 -9.3779909725336896 9.5795691070736133 0 1 0 I I #
coedge $-1 $295 $203 $206 $309 reversed $196 $-1 #
coedge $-1 $203 $295 $300 $384 forward $196 $-1 #
vertex $-1 $204 $388 #
straight-curve $-1 -51.454206976531268 -25.949220394752075 38.978475676874218 0 0 1 I I #
straight-curve $-1 -51.454206976531268 -25.949220394752075 3.9308342185757965 -0.71933979245794832 0 -0.69465837861970381 I I #
edge $-1 $382 11.562743495382684 $208 25.949220394752075 $304 $389 forward 7 unknown #
point $-1 -51.454206976531268 -25.949220394752075 9.5795691070736115 #
point $-1 -45.604770897726681 -25.949220394752075 9.5795691070736115 #
edge $-1 $390 1 $390 0 $211 $-1 forward 7 unknown #
vertex $-1 $212 $391 #
ellipse-curve $-1 -43.287549790601517 -21.838798423503675 1.3270148967876154 -0.69465837861970381 0 0.71933979245794832 1.4386795849158966 0 1.3893167572394076 1 I I #
point $-1 -47.090809352213071 -21.838798423503675 8.1445184200641094 #
edge $-1 $392 1 $392 0 $215 $-1 forward 7 unknown #
vertex $-1 $216 $393 #
ellipse-curve $-1 -43.287549790601517 -15.67316546663108 1.3270148967876154 -0.69465837861970381 0 0.71933979245794832 1.4386795849158966 0 1.3893167572394076 1 I I #
point $-1 -47.090809352213071 -15.67316546663108 8.1445184200641094 #
loop $-1 $-1 $227 $219 #
plane-surface $-1 51.454206976531268 0 0 -1 0 0 0 0 1 forward_v I I I I #
coedge $-1 $323 $222 $224 $327 reversed $139 $-1 #
coedge $-1 $222 $322 $394 $395 reversed $139 $-1 #
coedge $-1 $230 $225 $222 $325 forward $220 $-1 #
edge $-1 $328 21.147629985567491 $396 26.997066064372092 $324 $397 forward 7 unknown #
coedge $-1 $224 $223 $331 $398 reversed $87 $-1 #
edge $-1 $399 -102.90841395306254 $328 -94.776740799242731 $322 $400 forward 7 unknown #
vertex $-1 $226 $401 #
straight-curve $-1 45.604770897726667 -9.3779909725336896 9.5795691070736098 0 -1 0 I I #
coedge $-1 $394 $227 $230 $335 reversed $320 $-1 #
coedge $-1 $227 $394 $326 $398 forward $320 $-1 #
vertex $-1 $228 $402 #
straight-curve $-1 51.454206976531268 -11.562743495382684 74.721571668354073 0 0 1 I I #
straight-curve $-1 -22.571910158641373 -11.562743495382684 75.417026201535506 0.71933979245794832 0 -0.69465837861970381 I I #
edge $-1 $396 -25.949220394752075 $231 -11.562743495382684 $330 $403 forward 7 unknown #
point $-1 51.454206976531268 -11.562743495382684 9.5795691070736115 #
point $-1 45.604770897726667 -11.562743495382684 9.5795691070736098 #
edge $-1 $404 1 $404 0 $234 $-1 forward 7 unknown #
vertex $-1 $235 $405 #
ellipse-curve $-1 43.287549790601517 -21.838798423503675 1.327014896787619 0.69465837861970381 0 0.71933979245794832 1.4386795849158966 0 -1.3893167572394076 1 I I #
point $-1 49.96816852204487 -21.838798423503675 5.3658849055852968 #
edge $-1 $406 1 $406 0 $238 $-1 forward 7 unknown #
vertex $-1 $239 $407 #
ellipse-curve $-1 43.287549790601517 -15.67316546663108 1.327014896787619 0.69465837861970381 0 0.71933979245794832 1.4386795849158966 0 -1.3893167572394076 1 I I #
point $-1 49.96816852204487 -15.67316546663108 5.3658849055852968 #
plane-surface $-1 51.454206976531268 0 0 -1 0 0 0 0 1 forward_v I I I I #
coedge $-1 $247 $245 $249 $351 reversed $161 $-1 #
edge $-1 $260 -9.5795691070736115 $353 9.5795691070736115 $259 $408 forward 7 unknown #
vertex $-1 $351 $409 #
straight-curve $-1 -51.454206976531268 -34.899573161757687 0 0 0 -1 I I #
edge $-1 $349 -34.899573161757687 $353 34.899573161757687 $347 $410 forward 7 unknown #
straight-curve $-1 0 -34.899573161757687 -9.5795691070736115 -1 0 0 I I #
vertex $-1 $252 $411 #
straight-curve $-1 0 34.899573161757687 -9.5795691070736115 1 0 0 I I #
point $-1 51.454206976531268 34.899573161757687 -9.5795691070736115 #
point $-1 51.454206976531268 -34.899573161757687 -9.5795691070736115 #
straight-curve $-1 -51.454206976531268 0 9.5795691070736115 0 -1 0 I I #
point $-1 -51.454206976531268 34.899573161757687 9.5795691070736115 #
point $-1 -51.454206976531268 -34.899573161757687 9.5795691070736115 #
straight-curve $-1 51.454206976531268 -34.899573161757687 0 0 0 -1 I I #
straight-curve $-1 51.454206976531268 34.899573161757687 0 0 0 -1 I I #
loop $-1 $-1 $275 $269 #
plane-surface $-1 0 -34.899573161757687 0 0 1 0 0 0 1 forward_v I I I I #
coedge $-1 $286 $277 $273 $366 forward $270 $-1 #
edge $-1 $370 -19.687374772630246 $281 -10.737022005624635 $272 $412 forward 7 unknown #
edge $-1 $282 10.737022005624635 $369 19.687374772630246 $364 $413 forward 7 unknown #
coedge $-1 $284 $275 $289 $379 reversed $362 $-1 #
coedge $-1 $275 $284 $286 $377 reversed $362 $-1 #
vertex $-1 $377 $414 #
vertex $-1 $276 $415 #
straight-curve $-1 -37.08066462664285 -34.899573161757687 0 0 0 1 I I #
straight-curve $-1 -19.325376349845044 -25.949220394752075 -9.5795691070736115 1 0 0 I I #
straight-curve $-1 -19.325376349845044 -25.949220394752075 9.5795691070736115 -1 0 0 I I #
point $-1 -37.08066462664285 -25.949220394752075 9.5795691070736115 #
point $-1 -37.08066462664285 -25.949220394752075 -9.5795691070736115 #
straight-curve $-1 -40.220840772737326 -34.899573161757687 0 0 0 -1 I I #
edge $-1 $369 37.08066462664285 $287 40.220840772737326 $368 $416 forward 7 unknown #
point $-1 -40.220840772737326 -34.899573161757687 -9.5795691070736115 #
edge $-1 $290 -40.220840772737326 $370 -37.08066462664285 $367 $417 forward 7 unknown #
point $-1 -40.220840772737326 -34.899573161757687 9.5795691070736115 #
edge $-1 $382 29.398906569800609 $385 35.047641458298422 $295 $418 forward 7 unknown #
vertex $-1 $309 $419 #
straight-curve $-1 -61.470199479745496 -11.562743495382684 9.5795691070736098 -1 0 0 I I #
edge $-1 $385 2.1847525228489939 $306 16.571229422218387 $305 $420 forward 7 unknown #
vertex $-1 $384 $421 #
straight-curve $-1 -51.454206976531268 -11.562743495382684 3.9308342185757965 0.71933979245794832 0 0.69465837861970381 I I #
point $-1 -45.604770897726681 -11.562743495382684 9.5795691070736115 #
point $-1 -51.454206976531268 -25.949220394752075 3.9308342185757965 #
straight-curve $-1 -51.454206976531268 0 9.5795691070736115 0 -1 0 I I #
vertex $-1 $312 $422 #
point $-1 -41.848870205685614 -21.838798423503675 2.716331654027023 #
vertex $-1 $316 $423 #
point $-1 -41.848870205685614 -15.67316546663108 2.716331654027023 #
coedge $-1 $331 $330 $323 $395 forward $320 $-1 #
edge $-1 $396 65.142002561280464 $399 70.790737449778291 $394 $424 forward 7 unknown #
vertex $-1 $335 $425 #
straight-curve $-1 24.457140912159176 -25.949220394752075 9.5795691070736098 1 0 0 I I #
edge $-1 $399 -16.571229422218387 $332 -2.1847525228489939 $331 $426 forward 7 unknown #
vertex $-1 $398 $427 #
straight-curve $-1 -22.571910158641373 -25.949220394752075 75.417026201535506 -0.71933979245794832 0 0.69465837861970381 I I #
point $-1 45.604770897726667 -25.949220394752075 9.5795691070736098 #
point $-1 51.454206976531268 -11.562743495382684 3.9308342185757823 #
straight-curve $-1 51.454206976531268 0 9.5795691070736115 0 1 0 I I #
vertex $-1 $338 $428 #
point $-1 44.726229375517413 -21.838798423503675 -0.062301860451788649 #
vertex $-1 $342 $429 #
point $-1 44.726229375517413 -15.67316546663108 -0.062301860451788649 #
straight-curve $-1 -51.454206976531268 34.899573161757687 0 0 0 -1 I I #
point $-1 -51.454206976531268 -34.899573161757687 -9.5795691070736115 #
straight-curve $-1 -51.454206976531268 0 -9.5795691070736115 0 1 0 I I #
point $-1 -51.454206976531268 34.899573161757687 -9.5795691070736115 #
straight-curve $-1 -37.08066462664285 -15.21219838912744 9.5795691070736115 0 1 0 I I #
straight-curve $-1 -37.08066462664285 -15.21219838912744 -9.5795691070736115 0 -1 0 I I #
point $-1 -37.08066462664285 -34.899573161757687 -9.5795691070736115 #
point $-1 -37.08066462664285 -34.899573161757687 9.5795691070736115 #
straight-curve $-1 0 -34.899573161757687 -9.5795691070736115 -1 0 0 I I #
straight-curve $-1 0 -34.899573161757687 9.5795691070736115 1 0 0 I I #
straight-curve $-1 -51.454206976531268 -11.562743495382684 38.978475676874218 0 0 -1 I I #
point $-1 -51.454206976531268 -11.562743495382684 9.5795691070736115 #
straight-curve $-1 -51.454206976531268 -9.3779909725336896 3.930834218575797 0 -1 0 I I #
point $-1 -51.454206976531268 -11.562743495382684 3.9308342185757965 #
point $-1 -41.898233033362104 -21.838798423503675 -0.11166468812828123 #
point $-1 -41.898233033362104 -15.67316546663108 -0.11166468812828123 #
straight-curve $-1 51.454206976531268 -25.949220394752075 74.721571668354073 0 0 -1 I I #
point $-1 51.454206976531268 -25.949220394752075 9.5795691070736115 #
straight-curve $-1 51.454206976531253 -9.3779909725336896 3.9308342185757894 0 1 0 I I #
point $-1 51.454206976531268 -25.949220394752075 3.9308342185757823 #
point $-1 41.898233033362104 -21.838798423503675 -0.11166468812827768 #
point $-1 41.898233033362104 -15.67316546663108 -0.11166468812827768 #
End-of-ACIS-data 