500 0 14 0           
7 Unknown 11 ACIS 5.0 NT 24 Fri Mar 26 02:40:27 1999 
-1 9.9999999999999995e-007 1e-010 
body $-1 $14 $-1 $15 #
body $-1 $16 $-1 $17 #
body $-1 $18 $-1 $19 #
body $-1 $20 $-1 $21 #
body $-1 $22 $-1 $23 #
body $-1 $24 $-1 $25 #
body $-1 $26 $-1 $27 #
body $-1 $28 $-1 $29 #
body $-1 $30 $-1 $31 #
body $-1 $32 $-1 $33 #
body $-1 $34 $-1 $35 #
body $-1 $36 $-1 $37 #
body $-1 $38 $-1 $39 #
body $-1 $40 $-1 $41 #
lump $-1 $-1 $42 $0 #
transform $-1 1 0 0 0 1 0 0 0 1 43.40342417676321 22.457798227487913 4.6718827362184934 1 rotate no_reflect no_shear #
lump $-1 $-1 $43 $1 #
transform $-1 1 0 0 0 1 0 0 0 1 43.40342417676321 22.457798227487913 4.6718827362184934 1 rotate no_reflect no_shear #
lump $-1 $-1 $44 $2 #
transform $-1 1 0 0 0 1 0 0 0 1 43.40342417676321 22.457798227487913 4.6718827362184934 1 rotate no_reflect no_shear #
lump $-1 $-1 $45 $3 #
transform $-1 1 0 0 0 1 0 0 0 1 43.40342417676321 22.457798227487913 4.6718827362184934 1 rotate no_reflect no_shear #
lump $-1 $-1 $46 $4 #
transform $-1 1 0 0 0 1 0 0 0 1 43.40342417676321 22.457798227487913 4.6718827362184934 1 rotate no_reflect no_shear #
lump $-1 $-1 $47 $5 #
transform $-1 1 0 0 0 1 0 0 0 1 43.40342417676321 22.457798227487913 4.6718827362184934 1 rotate no_reflect no_shear #
lump $-1 $-1 $48 $6 #
transform $-1 1 0 0 0 1 0 0 0 1 43.40342417676321 22.457798227487913 4.6718827362184934 1 rotate no_reflect no_shear #
lump $-1 $-1 $49 $7 #
transform $-1 1 0 0 0 1 0 0 0 1 43.40342417676321 22.457798227487913 4.6718827362184934 1 rotate no_reflect no_shear #
lump $-1 $-1 $50 $8 #
transform $-1 1 0 0 0 1 0 0 0 1 43.40342417676321 22.457798227487913 4.6718827362184934 1 rotate no_reflect no_shear #
lump $-1 $-1 $51 $9 #
transform $-1 1 0 0 0 1 0 0 0 1 43.40342417676321 22.457798227487913 4.6718827362184934 1 rotate no_reflect no_shear #
lump $-1 $-1 $52 $10 #
transform $-1 1 0 0 0 1 0 0 0 1 43.40342417676321 22.457798227487913 4.6718827362184934 1 rotate no_reflect no_shear #
lump $-1 $-1 $53 $11 #
transform $-1 1 0 0 0 1 0 0 0 1 43.40342417676321 22.457798227487913 4.6718827362184934 1 rotate no_reflect no_shear #
lump $-1 $-1 $54 $12 #
transform $-1 1 0 0 0 1 0 0 0 1 43.40342417676321 22.457798227487913 4.6718827362184934 1 rotate no_reflect no_shear #
lump $-1 $-1 $55 $13 #
transform $-1 1 0 0 0 1 0 0 0 1 43.40342417676321 22.457798227487913 4.6718827362184934 1 rotate no_reflect no_shear #
shell $-1 $-1 $-1 $56 $-1 $14 #
shell $-1 $-1 $-1 $57 $-1 $16 #
shell $-1 $-1 $-1 $58 $-1 $18 #
shell $-1 $-1 $-1 $59 $-1 $20 #
shell $-1 $-1 $-1 $60 $-1 $22 #
shell $-1 $-1 $-1 $61 $-1 $24 #
shell $-1 $-1 $-1 $62 $-1 $26 #
shell $-1 $-1 $-1 $63 $-1 $28 #
shell $-1 $-1 $-1 $64 $-1 $30 #
shell $-1 $-1 $-1 $65 $-1 $32 #
shell $-1 $-1 $-1 $66 $-1 $34 #
shell $-1 $-1 $-1 $67 $-1 $36 #
shell $-1 $-1 $-1 $68 $-1 $38 #
shell $-1 $-1 $-1 $69 $-1 $40 #
face $-1 $70 $71 $42 $-1 $72 forward single #
face $-1 $73 $74 $43 $-1 $75 reversed single #
face $-1 $76 $77 $44 $-1 $78 reversed single #
face $-1 $79 $80 $45 $-1 $81 forward single #
face $-1 $82 $83 $46 $-1 $84 reversed single #
face $-1 $85 $86 $47 $-1 $87 forward single #
face $-1 $88 $89 $48 $-1 $90 reversed single #
face $-1 $91 $92 $49 $-1 $93 forward single #
face $-1 $94 $95 $50 $-1 $96 forward single #
face $-1 $97 $98 $51 $-1 $99 forward single #
face $-1 $100 $101 $52 $-1 $102 reversed single #
face $-1 $103 $104 $53 $-1 $105 forward single #
face $-1 $106 $107 $54 $-1 $108 forward single #
face $-1 $109 $110 $55 $-1 $111 forward single #
face $-1 $112 $113 $42 $-1 $114 reversed single #
loop $-1 $-1 $115 $56 #
plane-surface $-1 0 0 4.6718827362184934 0 0 1 1 0 0 forward_v I I I I #
face $-1 $116 $117 $43 $-1 $118 reversed single #
loop $-1 $-1 $119 $57 #
plane-surface $-1 -41.015019477509242 -16.114032755050928 0 0 1 0 0 0 1 forward_v I I I I #
face $-1 $120 $121 $44 $-1 $122 reversed single #
loop $-1 $-1 $123 $58 #
plane-surface $-1 -19.157450214469652 -94.423937768530678 49.472949019440271 -1 0 0 0 -0.82903758062907751 0.55919289150049634 forward_v I I I I #
face $-1 $124 $125 $45 $-1 $126 forward single #
loop $-1 $127 $128 $59 #
cone-surface $-1 -25.970922778998784 -20.670689614623647 2.4470487267991237 0 0.82903758062907751 -0.55919289150049634 0.5 0 0 1 I I 0 1 0.5 forward I I I I #
face $-1 $129 $130 $46 $-1 $131 reversed single #
loop $-1 $-1 $132 $60 #
plane-surface $-1 37.561204742035841 -94.423937768530678 49.472949019440271 -1 0 0 0 -0.82903758062907751 0.55919289150049634 forward_v I I I I #
face $-1 $133 $134 $47 $-1 $135 forward single #
loop $-1 $136 $137 $61 #
cone-surface $-1 30.747732177506705 -20.670689614623647 2.4470487267991237 0 0.82903758062907751 -0.55919289150049634 0.5 0 0 1 I I 0 1 0.5 forward I I I I #
face $-1 $138 $139 $48 $-1 $140 reversed single #
loop $-1 $-1 $141 $62 #
plane-surface $-1 -25.021868171348316 70.797361175770504 85.298724930899596 1 0 0 0 -0.83867057594974714 -0.54463902268945019 forward_v I I I I #
face $-1 $142 $143 $49 $-1 $144 forward single #
loop $-1 $145 $146 $63 #
cone-surface $-1 -21.859679890283768 20.635436061874863 2.2390912231958509 0 -0.83867057594974714 -0.54463902268945019 0.5 0 0 1 I I 0 1 0.5 forward I I I I #
face $-1 $147 $148 $50 $-1 $149 forward single #
loop $-1 $150 $151 $64 #
cone-surface $-1 -17.116397468686948 20.635436061874863 2.2390912231958509 0 -0.83867057594974714 -0.54463902268945019 0.5 0 0 1 I I 0 1 0.5 forward I I I I #
face $-1 $152 $153 $51 $-1 $154 forward single #
loop $-1 $155 $156 $65 #
cone-surface $-1 -12.373115047090124 20.635436061874863 2.2390912231958509 0 -0.83867057594974714 -0.54463902268945019 0.5 0 0 1 I I 0 1 0.5 forward I I I I #
face $-1 $157 $158 $52 $-1 $159 reversed single #
loop $-1 $-1 $160 $66 #
plane-surface $-1 13.987736164533509 70.797361175770504 85.298724930899596 1 0 0 0 -0.83867057594974714 -0.54463902268945019 forward_v I I I I #
face $-1 $161 $162 $53 $-1 $163 forward single #
loop $-1 $164 $165 $67 #
cone-surface $-1 17.149924445598046 20.635436061874863 2.2390912231958509 0 -0.83867057594974714 -0.54463902268945019 0.5 0 0 1 I I 0 1 0.5 forward I I I I #
face $-1 $166 $167 $54 $-1 $168 forward single #
loop $-1 $169 $170 $68 #
cone-surface $-1 21.893206867194877 20.635436061874863 2.2390912231958509 0 -0.83867057594974714 -0.54463902268945019 0.5 0 0 1 I I 0 1 0.5 forward I I I I #
face $-1 $171 $172 $55 $-1 $173 forward single #
loop $-1 $174 $175 $69 #
cone-surface $-1 26.636489288791694 20.635436061874863 2.2390912231958509 0 -0.83867057594974714 -0.54463902268945019 0.5 0 0 1 I I 0 1 0.5 forward I I I I #
face $-1 $176 $177 $42 $-1 $178 reversed single #
loop $-1 $-1 $179 $70 #
plane-surface $-1 0 0 -4.6718827362184934 0 0 1 1 0 0 forward_v I I I I #
coedge $-1 $180 $181 $182 $183 forward $71 $-1 #
face $-1 $184 $185 $43 $-1 $186 reversed single #
loop $-1 $-1 $187 $73 #
plane-surface $-1 -41.015019477509242 -13.114032755050927 0 0 -1 0 0 0 -1 forward_v I I I I #
coedge $-1 $188 $189 $190 $191 reversed $74 $-1 #
face $-1 $192 $193 $44 $-1 $194 reversed single #
loop $-1 $-1 $195 $76 #
plane-surface $-1 -25.970922778998784 -22.457798227487913 0.93117648658673602 0 -0.82903758062907751 0.55919289150049634 1 0 0 forward_v I I I I #
coedge $-1 $196 $197 $198 $199 reversed $77 $-1 #
face $-1 $-1 $200 $45 $-1 $201 forward single #
loop $-1 $202 $203 $79 #
cone-surface $-1 -25.970922778998784 -19.937890679501265 1.9527696193205095 0 0.82903758062907751 -0.55919289150049634 0.25 0 0 1 I I -0.70710678118654724 0.70710678118654791 0.25 forward I I I I #
loop $-1 $-1 $204 $59 #
coedge $-1 $128 $128 $205 $206 reversed $80 $-1 #
face $-1 $207 $208 $46 $-1 $209 reversed single #
loop $-1 $-1 $210 $82 #
plane-surface $-1 30.747732177506705 -22.457798227487913 0.93117648658673602 0 -0.82903758062907751 0.55919289150049634 1 0 0 forward_v I I I I #
coedge $-1 $211 $212 $213 $214 reversed $83 $-1 #
face $-1 $-1 $215 $47 $-1 $216 forward single #
loop $-1 $217 $218 $85 #
cone-surface $-1 30.747732177506705 -19.937890679501265 1.9527696193205095 0 0.82903758062907751 -0.55919289150049634 0.25 0 0 1 I I -0.70710678118654724 0.70710678118654791 0.25 forward I I I I #
loop $-1 $-1 $219 $61 #
coedge $-1 $137 $137 $220 $221 reversed $86 $-1 #
face $-1 $222 $223 $48 $-1 $224 reversed single #
loop $-1 $-1 $225 $88 #
plane-surface $-1 -17.116397468686948 -2.0049883292638526 38.020327880883656 0 0.83867057594974714 0.54463902268945019 1 0 0 forward_v I I I I #
coedge $-1 $226 $227 $228 $229 reversed $89 $-1 #
face $-1 $-1 $230 $49 $-1 $231 forward single #
loop $-1 $232 $233 $91 #
cone-surface $-1 -21.859679890283768 20.006433129912551 1.830611956178763 0 -0.83867057594974714 -0.54463902268945019 0.25 0 0 1 I I -0.70710678118654746 0.70710678118654746 0.25 forward I I I I #
loop $-1 $-1 $234 $63 #
coedge $-1 $146 $146 $235 $236 reversed $92 $-1 #
face $-1 $-1 $237 $50 $-1 $238 forward single #
loop $-1 $239 $240 $94 #
cone-surface $-1 -17.116397468686948 20.006433129912551 1.830611956178763 0 -0.83867057594974714 -0.54463902268945019 0.25 0 0 1 I I -0.70710678118654746 0.70710678118654746 0.25 forward I I I I #
loop $-1 $-1 $241 $64 #
coedge $-1 $151 $151 $242 $243 reversed $95 $-1 #
face $-1 $-1 $244 $51 $-1 $245 forward single #
loop $-1 $246 $247 $97 #
cone-surface $-1 -12.373115047090124 20.006433129912551 1.830611956178763 0 -0.83867057594974714 -0.54463902268945019 0.25 0 0 1 I I -0.70710678118654746 0.70710678118654746 0.25 forward I I I I #
loop $-1 $-1 $248 $65 #
coedge $-1 $156 $156 $249 $250 reversed $98 $-1 #
face $-1 $251 $252 $52 $-1 $253 reversed single #
loop $-1 $-1 $254 $100 #
plane-surface $-1 21.893206867194877 -2.0049883292638526 38.020327880883656 0 0.83867057594974714 0.54463902268945019 1 0 0 forward_v I I I I #
coedge $-1 $255 $256 $257 $258 reversed $101 $-1 #
face $-1 $-1 $259 $53 $-1 $260 forward single #
loop $-1 $261 $262 $103 #
cone-surface $-1 17.149924445598046 20.006433129912551 1.830611956178763 0 -0.83867057594974714 -0.54463902268945019 0.25 0 0 1 I I -0.70710678118654746 0.70710678118654746 0.25 forward I I I I #
loop $-1 $-1 $263 $67 #
coedge $-1 $165 $165 $264 $265 reversed $104 $-1 #
face $-1 $-1 $266 $54 $-1 $267 forward single #
loop $-1 $268 $269 $106 #
cone-surface $-1 21.893206867194877 20.006433129912551 1.830611956178763 0 -0.83867057594974714 -0.54463902268945019 0.25 0 0 1 I I -0.70710678118654746 0.70710678118654746 0.25 forward I I I I #
loop $-1 $-1 $270 $68 #
coedge $-1 $170 $170 $271 $272 reversed $107 $-1 #
face $-1 $-1 $273 $55 $-1 $274 forward single #
loop $-1 $275 $276 $109 #
cone-surface $-1 26.636489288791694 20.006433129912551 1.830611956178763 0 -0.83867057594974714 -0.54463902268945019 0.25 0 0 1 I I -0.70710678118654746 0.70710678118654746 0.25 forward I I I I #
loop $-1 $-1 $277 $69 #
coedge $-1 $175 $175 $278 $279 reversed $110 $-1 #
face $-1 $280 $281 $42 $-1 $282 reversed single #
loop $-1 $-1 $283 $112 #
plane-surface $-1 0 -22.457798227487913 0 0 1 0 0 0 1 forward_v I I I I #
coedge $-1 $284 $285 $286 $287 forward $113 $-1 #
coedge $-1 $288 $115 $289 $290 forward $71 $-1 #
coedge $-1 $115 $288 $291 $292 forward $71 $-1 #
coedge $-1 $293 $294 $115 $183 reversed $295 $-1 #
edge $-1 $296 -22.457798227487913 $297 22.457798227487913 $182 $298 forward 7 unknown #
face $-1 $299 $300 $43 $-1 $301 reversed single #
loop $-1 $-1 $302 $116 #
plane-surface $-1 -38.626614778255274 -14.614032755050927 0 -1 0 0 0 0 1 forward_v I I I I #
coedge $-1 $303 $304 $305 $306 forward $117 $-1 #
coedge $-1 $307 $119 $308 $309 reversed $74 $-1 #
coedge $-1 $119 $307 $310 $311 reversed $74 $-1 #
coedge $-1 $312 $313 $119 $191 forward $314 $-1 #
edge $-1 $315 -4.6718827362184934 $316 4.6718827362184934 $190 $317 forward 7 unknown #
face $-1 $318 $319 $44 $-1 $320 reversed single #
loop $-1 $-1 $321 $120 #
plane-surface $-1 -32.784395343527919 -94.423937768530678 49.472949019440271 1 0 0 0 0.82903758062907751 -0.55919289150049634 forward_v I I I I #
coedge $-1 $322 $323 $324 $325 reversed $121 $-1 #
coedge $-1 $197 $123 $326 $327 reversed $77 $-1 #
coedge $-1 $123 $196 $322 $328 reversed $77 $-1 #
coedge $-1 $324 $329 $123 $199 forward $330 $-1 #
edge $-1 $331 24.754170656777426 $332 27.277308802575725 $198 $333 forward 7 unknown #
loop $-1 $-1 $205 $124 #
plane-surface $-1 -25.970922778998784 -22.457798227487913 0.93117648658673602 0 -0.82903758062907751 0.55919289150049634 1 0 0 forward_v I I I I #
loop $-1 $-1 $334 $79 #
coedge $-1 $203 $203 $204 $335 reversed $125 $-1 #
coedge $-1 $204 $204 $203 $335 forward $127 $-1 #
coedge $-1 $205 $205 $128 $206 forward $200 $-1 #
edge $-1 $336 -2.9453331529405969e-015 $336 6.2831853071795978 $205 $337 forward 7 unknown #
face $-1 $338 $339 $46 $-1 $340 reversed single #
loop $-1 $-1 $341 $129 #
plane-surface $-1 23.934259612977574 -94.423937768530678 49.472949019440271 1 0 0 0 0.82903758062907751 -0.55919289150049634 forward_v I I I I #
coedge $-1 $342 $343 $344 $345 reversed $130 $-1 #
coedge $-1 $212 $132 $346 $347 reversed $83 $-1 #
coedge $-1 $132 $211 $342 $348 reversed $83 $-1 #
coedge $-1 $344 $349 $132 $214 forward $350 $-1 #
edge $-1 $351 24.754170656777426 $352 27.277308802575725 $213 $353 forward 7 unknown #
loop $-1 $-1 $220 $133 #
plane-surface $-1 30.747732177506705 -22.457798227487913 0.93117648658673602 0 -0.82903758062907751 0.55919289150049634 1 0 0 forward_v I I I I #
loop $-1 $-1 $354 $85 #
coedge $-1 $218 $218 $219 $355 reversed $134 $-1 #
coedge $-1 $219 $219 $218 $355 forward $136 $-1 #
coedge $-1 $220 $220 $137 $221 forward $215 $-1 #
edge $-1 $356 -2.9453331529405969e-015 $356 6.2831853071795978 $220 $357 forward 7 unknown #
face $-1 $358 $359 $48 $-1 $360 reversed single #
loop $-1 $-1 $361 $138 #
plane-surface $-1 -9.2109267660255796 70.797361175770504 85.298724930899596 -1 0 0 0 0.83867057594974714 0.54463902268945019 forward_v I I I I #
coedge $-1 $362 $363 $364 $365 reversed $139 $-1 #
coedge $-1 $227 $141 $366 $367 reversed $89 $-1 #
coedge $-1 $141 $226 $362 $368 reversed $89 $-1 #
coedge $-1 $364 $369 $141 $229 forward $370 $-1 #
edge $-1 $371 12.940882360397339 $372 15.74693611567368 $228 $373 forward 7 unknown #
loop $-1 $-1 $235 $142 #
plane-surface $-1 -17.116397468686948 -2.0049883292638526 38.020327880883656 0 0.83867057594974714 0.54463902268945019 1 0 0 forward_v I I I I #
loop $-1 $-1 $374 $91 #
coedge $-1 $233 $233 $234 $375 reversed $143 $-1 #
coedge $-1 $234 $234 $233 $375 forward $145 $-1 #
coedge $-1 $235 $235 $146 $236 forward $230 $-1 #
edge $-1 $376 -2.9089495570898117e-016 $376 6.2831853071796004 $235 $377 forward 7 unknown #
loop $-1 $-1 $242 $147 #
plane-surface $-1 -17.116397468686948 -2.0049883292638526 38.020327880883656 0 0.83867057594974714 0.54463902268945019 1 0 0 forward_v I I I I #
loop $-1 $-1 $378 $94 #
coedge $-1 $240 $240 $241 $379 reversed $148 $-1 #
coedge $-1 $241 $241 $240 $379 forward $150 $-1 #
coedge $-1 $242 $242 $151 $243 forward $237 $-1 #
edge $-1 $380 -2.9089495570898117e-016 $380 6.2831853071796004 $242 $381 forward 7 unknown #
loop $-1 $-1 $249 $152 #
plane-surface $-1 -17.116397468686948 -2.0049883292638526 38.020327880883656 0 0.83867057594974714 0.54463902268945019 1 0 0 forward_v I I I I #
loop $-1 $-1 $382 $97 #
coedge $-1 $247 $247 $248 $383 reversed $153 $-1 #
coedge $-1 $248 $248 $247 $383 forward $155 $-1 #
coedge $-1 $249 $249 $156 $250 forward $244 $-1 #
edge $-1 $384 -2.9089495570898117e-016 $384 6.2831853071796004 $249 $385 forward 7 unknown #
face $-1 $386 $387 $52 $-1 $388 forward single #
loop $-1 $-1 $389 $157 #
plane-surface $-1 29.798677569856245 70.797361175770504 85.298724930899596 -1 0 0 0 0.83867057594974714 0.54463902268945019 forward_v I I I I #
coedge $-1 $390 $391 $392 $393 reversed $158 $-1 #
coedge $-1 $256 $160 $394 $395 reversed $101 $-1 #
coedge $-1 $160 $255 $390 $396 reversed $101 $-1 #
coedge $-1 $392 $397 $160 $258 forward $387 $-1 #
edge $-1 $398 12.940882360397339 $399 15.74693611567368 $257 $400 forward 7 unknown #
loop $-1 $-1 $264 $161 #
plane-surface $-1 21.893206867194877 -2.0049883292638526 38.020327880883656 0 0.83867057594974714 0.54463902268945019 1 0 0 forward_v I I I I #
loop $-1 $-1 $401 $103 #
coedge $-1 $262 $262 $263 $402 reversed $162 $-1 #
coedge $-1 $263 $263 $262 $402 forward $164 $-1 #
coedge $-1 $264 $264 $165 $265 forward $259 $-1 #
edge $-1 $403 -2.9089495570898117e-016 $403 6.2831853071796004 $264 $404 forward 7 unknown #
loop $-1 $-1 $271 $166 #
plane-surface $-1 21.893206867194877 -2.0049883292638526 38.020327880883656 0 0.83867057594974714 0.54463902268945019 1 0 0 forward_v I I I I #
loop $-1 $-1 $405 $106 #
coedge $-1 $269 $269 $270 $406 reversed $167 $-1 #
coedge $-1 $270 $270 $269 $406 forward $169 $-1 #
coedge $-1 $271 $271 $170 $272 forward $266 $-1 #
edge $-1 $407 -2.9089495570898117e-016 $407 6.2831853071796004 $271 $408 forward 7 unknown #
loop $-1 $-1 $278 $171 #
plane-surface $-1 21.893206867194877 -2.0049883292638526 38.020327880883656 0 0.83867057594974714 0.54463902268945019 1 0 0 forward_v I I I I #
loop $-1 $-1 $409 $109 #
coedge $-1 $276 $276 $277 $410 reversed $172 $-1 #
coedge $-1 $277 $277 $276 $410 forward $174 $-1 #
coedge $-1 $278 $278 $175 $279 forward $273 $-1 #
edge $-1 $411 -2.9089495570898117e-016 $411 6.2831853071796004 $278 $412 forward 7 unknown #
face $-1 $413 $414 $42 $-1 $415 reversed single #
loop $-1 $-1 $416 $176 #
plane-surface $-1 -43.40342417676321 0 0 1 0 0 0 0 -1 forward_v I I I I #
coedge $-1 $417 $291 $418 $419 forward $177 $-1 #
coedge $-1 $420 $179 $417 $421 forward $113 $-1 #
coedge $-1 $179 $420 $422 $423 forward $113 $-1 #
coedge $-1 $294 $293 $179 $287 reversed $295 $-1 #
edge $-1 $424 -22.457798227487913 $425 22.457798227487913 $286 $426 forward 7 unknown #
coedge $-1 $181 $180 $427 $428 forward $71 $-1 #
coedge $-1 $429 $430 $180 $290 reversed $414 $-1 #
edge $-1 $297 -43.40342417676321 $431 43.40342417676321 $289 $432 forward 7 unknown #
coedge $-1 $283 $433 $181 $292 reversed $177 $-1 #
edge $-1 $434 -43.40342417676321 $296 43.40342417676321 $291 $435 forward 7 unknown #
coedge $-1 $286 $182 $433 $436 forward $295 $-1 #
coedge $-1 $182 $286 $429 $437 reversed $295 $-1 #
loop $-1 $-1 $293 $413 #
vertex $-1 $183 $438 #
vertex $-1 $183 $439 #
straight-curve $-1 43.40342417676321 0 4.6718827362184934 0 1 0 I I #
face $-1 $440 $441 $43 $-1 $442 forward single #
loop $-1 $-1 $443 $184 #
plane-surface $-1 0 0 -4.6718827362184934 0 0 1 1 0 0 forward_v I I I I #
coedge $-1 $444 $445 $307 $446 forward $185 $-1 #
coedge $-1 $447 $187 $443 $448 reversed $117 $-1 #
coedge $-1 $187 $447 $449 $450 reversed $117 $-1 #
coedge $-1 $445 $444 $187 $306 reversed $185 $-1 #
edge $-1 $451 -4.6718827362184934 $452 4.6718827362184934 $305 $453 forward 7 unknown #
coedge $-1 $189 $188 $302 $446 reversed $74 $-1 #
coedge $-1 $454 $455 $188 $309 forward $300 $-1 #
edge $-1 $456 18.119105039500653 $315 22.895914438008589 $308 $457 forward 7 unknown #
coedge $-1 $458 $459 $189 $311 forward $441 $-1 #
edge $-1 $316 -22.895914438008589 $460 -18.119105039500653 $310 $461 forward 7 unknown #
coedge $-1 $462 $190 $459 $463 reversed $314 $-1 #
coedge $-1 $190 $462 $454 $464 reversed $314 $-1 #
loop $-1 $-1 $462 $440 #
vertex $-1 $464 $465 #
vertex $-1 $191 $466 #
straight-curve $-1 -43.40342417676321 -16.114032755050928 0 0 0 1 I I #
face $-1 $-1 $330 $44 $-1 $467 forward single #
loop $-1 $-1 $468 $192 #
plane-surface $-1 0 -22.457798227487913 0 0 1 0 0 0 1 forward_v I I I I #
coedge $-1 $469 $470 $471 $472 reversed $193 $-1 #
coedge $-1 $473 $195 $197 $328 forward $121 $-1 #
coedge $-1 $195 $473 $469 $474 forward $121 $-1 #
coedge $-1 $471 $198 $195 $325 forward $330 $-1 #
edge $-1 $332 6.1719888249702599 $475 19.798933954028527 $324 $476 forward 7 unknown #
coedge $-1 $477 $478 $196 $327 forward $319 $-1 #
edge $-1 $479 -23.8052980231334 $331 -20.064591773501643 $326 $480 forward 7 unknown #
edge $-1 $332 -4.5121069744429336 $479 0 $197 $481 forward 7 unknown #
coedge $-1 $198 $471 $477 $482 forward $330 $-1 #
loop $-1 $-1 $471 $318 #
vertex $-1 $327 $483 #
vertex $-1 $199 $484 #
straight-curve $-1 -19.157450214469652 -47.211968884265339 4.6718827362184925 0 1 0 I I #
coedge $-1 $334 $334 $-1 $485 reversed $202 $-1 #
edge $-1 $486 0 $486 6.2831853071796004 $203 $487 forward 7 unknown #
vertex $-1 $206 $488 #
ellipse-curve $-1 -25.970922778998784 -21.196229154588764 2.8015296114026151 0 -0.82903758062907751 0.55919289150049634 0.5 0 0 1 I I #
face $-1 $-1 $350 $46 $-1 $489 forward single #
loop $-1 $-1 $490 $207 #
plane-surface $-1 0 -22.457798227487913 0 0 1 0 0 0 1 forward_v I I I I #
coedge $-1 $491 $492 $493 $494 reversed $208 $-1 #
coedge $-1 $495 $210 $212 $348 forward $130 $-1 #
coedge $-1 $210 $495 $491 $496 forward $130 $-1 #
coedge $-1 $493 $213 $210 $345 forward $350 $-1 #
edge $-1 $352 -22.187338653282488 $497 -8.5603935242242208 $344 $498 forward 7 unknown #
coedge $-1 $499 $500 $211 $347 forward $339 $-1 #
edge $-1 $501 -23.8052980231334 $351 -20.064591773501643 $346 $502 forward 7 unknown #
edge $-1 $352 -4.5121069744429336 $501 0 $212 $503 forward 7 unknown #
coedge $-1 $213 $493 $499 $504 forward $350 $-1 #
loop $-1 $-1 $493 $338 #
vertex $-1 $347 $505 #
vertex $-1 $214 $506 #
straight-curve $-1 37.561204742035841 -47.211968884265339 4.6718827362184925 0 1 0 I I #
coedge $-1 $354 $354 $-1 $507 reversed $217 $-1 #
edge $-1 $508 0 $508 6.2831853071796004 $218 $509 forward 7 unknown #
vertex $-1 $221 $510 #
ellipse-curve $-1 30.747732177506705 -21.196229154588764 2.8015296114026151 0 -0.82903758062907751 0.55919289150049634 0.5 0 0 1 I I #
face $-1 $-1 $370 $48 $-1 $511 forward single #
loop $-1 $-1 $512 $222 #
plane-surface $-1 0 22.457798227487913 0 0 -1 0 0 0 -1 forward_v I I I I #
coedge $-1 $513 $514 $515 $516 reversed $223 $-1 #
coedge $-1 $517 $225 $227 $368 forward $139 $-1 #
coedge $-1 $225 $517 $513 $518 forward $139 $-1 #
coedge $-1 $515 $228 $225 $365 forward $370 $-1 #
edge $-1 $372 -16.463669437004842 $519 -0.65272803168210558 $364 $520 forward 7 unknown #
coedge $-1 $521 $522 $226 $367 forward $359 $-1 #
edge $-1 $523 -42.298423732587139 $371 -37.977479729231305 $366 $524 forward 7 unknown #
edge $-1 $372 39.763461484147015 $523 44.915596454975827 $227 $525 forward 7 unknown #
coedge $-1 $228 $515 $521 $526 forward $370 $-1 #
loop $-1 $-1 $515 $358 #
vertex $-1 $367 $527 #
vertex $-1 $229 $528 #
straight-curve $-1 -25.021868171348316 35.398680587885252 4.6718827362184925 0 -1 0 I I #
coedge $-1 $374 $374 $-1 $529 reversed $232 $-1 #
edge $-1 $530 0 $530 6.2831853071796004 $233 $531 forward 7 unknown #
vertex $-1 $236 $532 #
ellipse-curve $-1 -21.859679890283768 21.054771349849741 2.5114107345405801 0 0.83867057594974714 0.54463902268945019 0.5 0 0 1 I I #
coedge $-1 $378 $378 $-1 $533 reversed $239 $-1 #
edge $-1 $534 0 $534 6.2831853071796004 $240 $535 forward 7 unknown #
vertex $-1 $243 $536 #
ellipse-curve $-1 -17.116397468686948 21.054771349849741 2.5114107345405801 0 0.83867057594974714 0.54463902268945019 0.5 0 0 1 I I #
coedge $-1 $382 $382 $-1 $537 reversed $246 $-1 #
edge $-1 $538 0 $538 6.2831853071796004 $247 $539 forward 7 unknown #
vertex $-1 $250 $540 #
ellipse-curve $-1 -12.373115047090124 21.054771349849741 2.5114107345405801 0 0.83867057594974714 0.54463902268945019 0.5 0 0 1 I I #
face $-1 $-1 $541 $52 $-1 $542 reversed single #
loop $-1 $-1 $257 $251 #
plane-surface $-1 0 0 4.6718827362184934 0 0 1 1 0 0 forward_v I I I I #
coedge $-1 $543 $544 $545 $546 reversed $252 $-1 #
coedge $-1 $547 $254 $256 $396 forward $158 $-1 #
coedge $-1 $254 $547 $543 $548 forward $158 $-1 #
coedge $-1 $545 $257 $254 $393 forward $387 $-1 #
edge $-1 $399 3.0411327309360701 $549 18.852074136258807 $392 $550 forward 7 unknown #
coedge $-1 $551 $552 $255 $395 forward $541 $-1 #
edge $-1 $553 -42.298423732587139 $398 -37.977479729231305 $394 $554 forward 7 unknown #
edge $-1 $399 39.763461484147015 $553 44.915596454975827 $256 $555 forward 7 unknown #
coedge $-1 $257 $545 $551 $556 forward $387 $-1 #
vertex $-1 $395 $557 #
vertex $-1 $258 $558 #
straight-curve $-1 13.987736164533509 35.398680587885252 4.6718827362184925 0 -1 0 I I #
coedge $-1 $401 $401 $-1 $559 reversed $261 $-1 #
edge $-1 $560 0 $560 6.2831853071796004 $262 $561 forward 7 unknown #
vertex $-1 $265 $562 #
ellipse-curve $-1 17.149924445598046 21.054771349849741 2.5114107345405801 0 0.83867057594974714 0.54463902268945019 0.5 0 0 1 I I #
coedge $-1 $405 $405 $-1 $563 reversed $268 $-1 #
edge $-1 $564 0 $564 6.2831853071796004 $269 $565 forward 7 unknown #
vertex $-1 $272 $566 #
ellipse-curve $-1 21.893206867194877 21.054771349849741 2.5114107345405801 0 0.83867057594974714 0.54463902268945019 0.5 0 0 1 I I #
coedge $-1 $409 $409 $-1 $567 reversed $275 $-1 #
edge $-1 $568 0 $568 6.2831853071796004 $276 $569 forward 7 unknown #
vertex $-1 $279 $570 #
ellipse-curve $-1 26.636489288791694 21.054771349849741 2.5114107345405801 0 0.83867057594974714 0.54463902268945019 0.5 0 0 1 I I #
face $-1 $-1 $295 $42 $-1 $571 reversed single #
loop $-1 $-1 $429 $280 #
plane-surface $-1 0 22.457798227487913 0 0 -1 0 0 0 -1 forward_v I I I I #
coedge $-1 $572 $427 $430 $573 forward $281 $-1 #
coedge $-1 $433 $283 $284 $421 reversed $177 $-1 #
coedge $-1 $427 $572 $283 $419 reversed $281 $-1 #
edge $-1 $434 -4.6718827362184934 $574 4.6718827362184934 $418 $575 forward 7 unknown #
coedge $-1 $285 $284 $572 $576 forward $113 $-1 #
edge $-1 $425 -43.40342417676321 $574 43.40342417676321 $417 $577 forward 7 unknown #
coedge $-1 $430 $429 $285 $423 reversed $414 $-1 #
edge $-1 $578 -43.40342417676321 $424 43.40342417676321 $422 $579 forward 7 unknown #
vertex $-1 $287 $580 #
vertex $-1 $436 $581 #
straight-curve $-1 43.40342417676321 0 -4.6718827362184934 0 -1 0 I I #
coedge $-1 $416 $418 $288 $428 reversed $281 $-1 #
edge $-1 $431 -22.457798227487913 $434 22.457798227487913 $427 $582 forward 7 unknown #
coedge $-1 $422 $289 $294 $437 forward $414 $-1 #
coedge $-1 $289 $422 $416 $573 reversed $414 $-1 #
vertex $-1 $290 $583 #
straight-curve $-1 0 22.457798227487913 4.6718827362184934 -1 0 0 I I #
coedge $-1 $291 $417 $293 $436 reversed $177 $-1 #
vertex $-1 $428 $584 #
straight-curve $-1 0 -22.457798227487913 4.6718827362184934 1 0 0 I I #
edge $-1 $296 -4.6718827362184934 $425 4.6718827362184934 $293 $585 forward 7 unknown #
edge $-1 $297 -4.6718827362184934 $424 4.6718827362184934 $294 $586 forward 7 unknown #
point $-1 43.40342417676321 -22.457798227487913 4.6718827362184934 #
point $-1 43.40342417676321 22.457798227487913 4.6718827362184934 #
face $-1 $-1 $314 $43 $-1 $587 reversed single #
loop $-1 $-1 $449 $299 #
plane-surface $-1 0 0 4.6718827362184934 0 0 1 1 0 0 forward_v I I I I #
coedge $-1 $455 $454 $303 $448 forward $300 $-1 #
coedge $-1 $305 $302 $455 $588 reversed $185 $-1 #
coedge $-1 $302 $305 $458 $589 reversed $185 $-1 #
edge $-1 $460 -4.6718827362184934 $456 4.6718827362184934 $302 $590 forward 7 unknown #
coedge $-1 $304 $303 $462 $591 reversed $117 $-1 #
edge $-1 $592 -22.895914438008589 $452 -18.119105039500653 $443 $593 forward 7 unknown #
coedge $-1 $459 $458 $304 $450 forward $441 $-1 #
edge $-1 $451 18.119105039500653 $594 22.895914438008589 $449 $595 forward 7 unknown #
vertex $-1 $450 $596 #
vertex $-1 $448 $597 #
straight-curve $-1 -38.626614778255274 -13.114032755050927 0 0 0 -1 I I #
coedge $-1 $443 $308 $313 $464 forward $300 $-1 #
coedge $-1 $308 $443 $444 $588 forward $300 $-1 #
vertex $-1 $309 $598 #
straight-curve $-1 -20.507509738754621 -16.114032755050928 -4.6718827362184934 -1 0 0 I I #
coedge $-1 $449 $310 $445 $589 forward $441 $-1 #
coedge $-1 $310 $449 $312 $463 forward $441 $-1 #
vertex $-1 $311 $599 #
straight-curve $-1 -20.507509738754621 -16.114032755050928 4.6718827362184934 1 0 0 I I #
coedge $-1 $313 $312 $447 $591 forward $314 $-1 #
edge $-1 $594 13.114032755050927 $316 16.114032755050928 $312 $600 forward 7 unknown #
edge $-1 $315 -16.114032755050928 $592 -13.114032755050927 $313 $601 forward 7 unknown #
point $-1 -43.40342417676321 -16.114032755050928 -4.6718827362184934 #
point $-1 -43.40342417676321 -16.114032755050928 4.6718827362184934 #
plane-surface $-1 0 0 4.6718827362184934 0 0 1 1 0 0 forward_v I I I I #
coedge $-1 $478 $477 $470 $602 forward $319 $-1 #
coedge $-1 $470 $321 $323 $474 reversed $193 $-1 #
coedge $-1 $321 $469 $468 $602 reversed $193 $-1 #
coedge $-1 $329 $324 $321 $472 forward $330 $-1 #
edge $-1 $475 -27.277308802575725 $603 -24.754170656777426 $471 $604 forward 7 unknown #
coedge $-1 $323 $322 $478 $605 reversed $121 $-1 #
edge $-1 $606 0 $475 4.5121069744429336 $469 $607 forward 7 unknown #
vertex $-1 $325 $608 #
straight-curve $-1 -12.985461389499392 -19.934660081689614 4.6718827362184934 -1 0 0 I I #
coedge $-1 $468 $326 $329 $482 reversed $319 $-1 #
coedge $-1 $326 $468 $473 $605 forward $319 $-1 #
vertex $-1 $327 $609 #
straight-curve $-1 -19.157450214469652 -22.457798227487913 24.736474509720136 0 0 1 I I #
straight-curve $-1 -19.157450214469652 -22.457798227487913 0.93117648658673602 0 -0.55919289150049634 -0.82903758062907751 I I #
edge $-1 $603 -32.784395343527919 $331 -19.157450214469652 $477 $610 forward 7 unknown #
point $-1 -19.157450214469652 -22.457798227487913 4.6718827362184934 #
point $-1 -19.157450214469652 -19.934660081689614 4.6718827362184934 #
edge $-1 $611 1 $611 0 $334 $-1 forward 7 unknown #
vertex $-1 $335 $612 #
ellipse-curve $-1 -25.970922778998784 -20.145150074658535 2.0925678421956335 0 -0.82903758062907751 0.55919289150049634 0.5 0 0 1 I I #
point $-1 -25.470922778998784 -21.196229154588764 2.8015296114026134 #
plane-surface $-1 0 0 4.6718827362184934 0 0 1 1 0 0 forward_v I I I I #
coedge $-1 $500 $499 $492 $613 forward $339 $-1 #
coedge $-1 $492 $341 $343 $496 reversed $208 $-1 #
coedge $-1 $341 $491 $490 $613 reversed $208 $-1 #
coedge $-1 $349 $344 $341 $494 forward $350 $-1 #
edge $-1 $497 -27.277308802575725 $614 -24.754170656777426 $493 $615 forward 7 unknown #
coedge $-1 $343 $342 $500 $616 reversed $130 $-1 #
edge $-1 $617 0 $497 4.5121069744429336 $491 $618 forward 7 unknown #
vertex $-1 $345 $619 #
straight-curve $-1 15.373866088753353 -19.934660081689614 4.6718827362184934 -1 0 0 I I #
coedge $-1 $490 $346 $349 $504 reversed $339 $-1 #
coedge $-1 $346 $490 $495 $616 forward $339 $-1 #
vertex $-1 $347 $620 #
straight-curve $-1 37.561204742035841 -22.457798227487913 24.736474509720136 0 0 1 I I #
straight-curve $-1 37.561204742035841 -22.457798227487913 0.93117648658673602 0 -0.55919289150049634 -0.82903758062907751 I I #
edge $-1 $614 23.934259612977574 $351 37.561204742035841 $499 $621 forward 7 unknown #
point $-1 37.561204742035841 -22.457798227487913 4.6718827362184934 #
point $-1 37.561204742035841 -19.934660081689614 4.6718827362184934 #
edge $-1 $622 1 $622 0 $354 $-1 forward 7 unknown #
vertex $-1 $355 $623 #
ellipse-curve $-1 30.747732177506705 -20.145150074658535 2.0925678421956335 0 -0.82903758062907751 0.55919289150049634 0.5 0 0 1 I I #
point $-1 31.247732177506705 -21.196229154588764 2.8015296114026134 #
plane-surface $-1 0 0 4.6718827362184934 0 0 1 1 0 0 forward_v I I I I #
coedge $-1 $522 $521 $514 $624 forward $359 $-1 #
coedge $-1 $514 $361 $363 $518 reversed $223 $-1 #
coedge $-1 $361 $513 $512 $624 reversed $223 $-1 #
coedge $-1 $369 $364 $361 $516 forward $370 $-1 #
edge $-1 $519 -15.74693611567368 $625 -12.940882360397339 $515 $626 forward 7 unknown #
coedge $-1 $363 $362 $522 $627 reversed $139 $-1 #
edge $-1 $628 -44.915596454975827 $519 -39.763461484147015 $513 $629 forward 7 unknown #
vertex $-1 $365 $630 #
straight-curve $-1 -8.558198734343474 19.651744472211575 4.6718827362184925 1 0 0 I I #
coedge $-1 $512 $366 $369 $526 reversed $359 $-1 #
coedge $-1 $366 $512 $517 $627 forward $359 $-1 #
vertex $-1 $367 $631 #
straight-curve $-1 -25.021868171348316 22.457798227487913 42.649362465449798 0 0 1 I I #
straight-curve $-1 -25.021868171348316 -2.0049883292638526 38.020327880883656 0 0.54463902268945019 -0.83867057594974714 I I #
edge $-1 $625 9.2109267660255796 $371 25.021868171348316 $521 $632 forward 7 unknown #
point $-1 -25.021868171348316 22.457798227487913 4.6718827362184934 #
point $-1 -25.021868171348316 19.651744472211572 4.6718827362184925 #
edge $-1 $633 1 $633 0 $374 $-1 forward 7 unknown #
vertex $-1 $375 $634 #
ellipse-curve $-1 -21.859679890283768 20.216100773899988 1.9667717118511256 0 0.83867057594974714 0.54463902268945019 0.5 0 0 1 I I #
point $-1 -21.359679890283768 21.054771349849734 2.5114107345405756 #
edge $-1 $635 1 $635 0 $378 $-1 forward 7 unknown #
vertex $-1 $379 $636 #
ellipse-curve $-1 -17.116397468686948 20.216100773899988 1.9667717118511256 0 0.83867057594974714 0.54463902268945019 0.5 0 0 1 I I #
point $-1 -16.616397468686948 21.054771349849734 2.5114107345405756 #
edge $-1 $637 1 $637 0 $382 $-1 forward 7 unknown #
vertex $-1 $383 $638 #
ellipse-curve $-1 -12.373115047090124 20.216100773899988 1.9667717118511256 0 0.83867057594974714 0.54463902268945019 0.5 0 0 1 I I #
point $-1 -11.873115047090124 21.054771349849734 2.5114107345405756 #
loop $-1 $-1 $394 $386 #
plane-surface $-1 0 22.457798227487913 0 0 -1 0 0 0 -1 forward_v I I I I #
coedge $-1 $544 $389 $391 $548 reversed $252 $-1 #
coedge $-1 $389 $543 $639 $640 reversed $252 $-1 #
coedge $-1 $397 $392 $389 $546 forward $387 $-1 #
edge $-1 $549 -15.74693611567368 $641 -12.940882360397339 $545 $642 forward 7 unknown #
coedge $-1 $391 $390 $552 $643 reversed $158 $-1 #
edge $-1 $644 -44.915596454975827 $549 -39.763461484147015 $543 $645 forward 7 unknown #
vertex $-1 $393 $646 #
straight-curve $-1 10.946603433597438 19.651744472211575 4.6718827362184925 1 0 0 I I #
coedge $-1 $639 $394 $397 $556 reversed $541 $-1 #
coedge $-1 $394 $639 $547 $643 forward $541 $-1 #
vertex $-1 $395 $647 #
straight-curve $-1 13.987736164533509 22.457798227487913 42.649362465449798 0 0 1 I I #
straight-curve $-1 13.987736164533509 -2.0049883292638526 38.020327880883656 0 0.54463902268945019 -0.83867057594974714 I I #
edge $-1 $641 -29.798677569856245 $398 -13.987736164533509 $551 $648 forward 7 unknown #
point $-1 13.987736164533509 22.457798227487913 4.6718827362184934 #
point $-1 13.987736164533509 19.651744472211572 4.6718827362184925 #
edge $-1 $649 1 $649 0 $401 $-1 forward 7 unknown #
vertex $-1 $402 $650 #
ellipse-curve $-1 17.149924445598046 20.216100773899988 1.9667717118511256 0 0.83867057594974714 0.54463902268945019 0.5 0 0 1 I I #
point $-1 17.649924445598046 21.054771349849734 2.5114107345405756 #
edge $-1 $651 1 $651 0 $405 $-1 forward 7 unknown #
vertex $-1 $406 $652 #
ellipse-curve $-1 21.893206867194877 20.216100773899988 1.9667717118511256 0 0.83867057594974714 0.54463902268945019 0.5 0 0 1 I I #
point $-1 22.393206867194877 21.054771349849734 2.5114107345405756 #
edge $-1 $653 1 $653 0 $409 $-1 forward 7 unknown #
vertex $-1 $410 $654 #
ellipse-curve $-1 26.636489288791694 20.216100773899988 1.9667717118511256 0 0.83867057594974714 0.54463902268945019 0.5 0 0 1 I I #
point $-1 27.136489288791694 21.054771349849734 2.5114107345405756 #
plane-surface $-1 43.40342417676321 0 0 -1 0 0 0 0 1 forward_v I I I I #
coedge $-1 $418 $416 $420 $576 reversed $281 $-1 #
edge $-1 $431 -4.6718827362184934 $578 4.6718827362184934 $430 $655 forward 7 unknown #
vertex $-1 $576 $656 #
straight-curve $-1 -43.40342417676321 -22.457798227487913 0 0 0 -1 I I #
edge $-1 $574 -22.457798227487913 $578 22.457798227487913 $572 $657 forward 7 unknown #
straight-curve $-1 0 -22.457798227487913 -4.6718827362184934 -1 0 0 I I #
vertex $-1 $423 $658 #
straight-curve $-1 0 22.457798227487913 -4.6718827362184934 1 0 0 I I #
point $-1 43.40342417676321 22.457798227487913 -4.6718827362184934 #
point $-1 43.40342417676321 -22.457798227487913 -4.6718827362184934 #
straight-curve $-1 -43.40342417676321 0 4.6718827362184934 0 -1 0 I I #
point $-1 -43.40342417676321 22.457798227487913 4.6718827362184934 #
point $-1 -43.40342417676321 -22.457798227487913 4.6718827362184934 #
straight-curve $-1 43.40342417676321 -22.457798227487913 0 0 0 -1 I I #
straight-curve $-1 43.40342417676321 22.457798227487913 0 0 0 -1 I I #
plane-surface $-1 -43.40342417676321 0 0 1 0 0 0 0 -1 forward_v I I I I #
edge $-1 $452 5.8070163775254633 $456 8.8070163775254642 $455 $659 forward 7 unknown #
edge $-1 $460 -8.8070163775254642 $451 -5.8070163775254633 $458 $660 forward 7 unknown #
straight-curve $-1 -38.626614778255274 -16.114032755050928 0 0 0 -1 I I #
edge $-1 $594 -4.6718827362184934 $592 4.6718827362184934 $462 $661 forward 7 unknown #
vertex $-1 $591 $662 #
straight-curve $-1 -20.507509738754621 -13.114032755050927 -4.6718827362184934 1 0 0 I I #
vertex $-1 $463 $663 #
straight-curve $-1 -20.507509738754621 -13.114032755050927 4.6718827362184934 -1 0 0 I I #
point $-1 -38.626614778255274 -13.114032755050927 4.6718827362184934 #
point $-1 -38.626614778255274 -13.114032755050927 -4.6718827362184934 #
point $-1 -38.626614778255274 -16.114032755050928 -4.6718827362184934 #
point $-1 -38.626614778255274 -16.114032755050928 4.6718827362184934 #
straight-curve $-1 -43.40342417676321 0 4.6718827362184934 0 -1 0 I I #
straight-curve $-1 -43.40342417676321 0 -4.6718827362184934 0 1 0 I I #
edge $-1 $603 20.064591773501643 $606 23.8052980231334 $468 $664 forward 7 unknown #
vertex $-1 $482 $665 #
straight-curve $-1 -32.784395343527919 -47.211968884265339 4.6718827362184925 0 -1 0 I I #
edge $-1 $606 -19.798933954028527 $479 -6.1719888249702599 $478 $666 forward 7 unknown #
vertex $-1 $605 $667 #
straight-curve $-1 -32.784395343527919 -22.457798227487913 0.93117648658673602 0 0.55919289150049634 0.82903758062907751 I I #
point $-1 -32.784395343527919 -19.934660081689614 4.6718827362184934 #
point $-1 -19.157450214469652 -22.457798227487913 0.93117648658673602 #
straight-curve $-1 0 -22.457798227487913 4.6718827362184934 1 0 0 I I #
vertex $-1 $485 $668 #
point $-1 -25.470922778998784 -20.145150074658535 2.0925678421956335 #
edge $-1 $614 20.064591773501643 $617 23.8052980231334 $490 $669 forward 7 unknown #
vertex $-1 $504 $670 #
straight-curve $-1 23.934259612977574 -47.211968884265339 4.6718827362184925 0 -1 0 I I #
edge $-1 $617 8.5603935242242208 $501 22.187338653282488 $500 $671 forward 7 unknown #
vertex $-1 $616 $672 #
straight-curve $-1 23.934259612977574 -22.457798227487913 0.93117648658673602 0 0.55919289150049634 0.82903758062907751 I I #
point $-1 23.934259612977574 -19.934660081689614 4.6718827362184934 #
point $-1 37.561204742035841 -22.457798227487913 0.93117648658673602 #
straight-curve $-1 0 -22.457798227487913 4.6718827362184934 1 0 0 I I #
vertex $-1 $507 $673 #
point $-1 31.247732177506705 -20.145150074658535 2.0925678421956335 #
edge $-1 $625 37.977479729231305 $628 42.298423732587139 $512 $674 forward 7 unknown #
vertex $-1 $526 $675 #
straight-curve $-1 -9.2109267660255796 35.398680587885252 4.6718827362184925 0 1 0 I I #
edge $-1 $628 0.65272803168210558 $523 16.463669437004842 $522 $676 forward 7 unknown #
vertex $-1 $627 $677 #
straight-curve $-1 -9.2109267660255796 -2.0049883292638526 38.020327880883656 0 -0.54463902268945019 0.83867057594974714 I I #
point $-1 -9.2109267660255796 19.651744472211572 4.6718827362184925 #
point $-1 -25.021868171348316 22.457798227487917 0.35093873286265875 #
straight-curve $-1 0 22.457798227487913 4.6718827362184934 -1 0 0 I I #
vertex $-1 $529 $678 #
point $-1 -21.359679890283768 20.216100773899988 1.9667717118511256 #
vertex $-1 $533 $679 #
point $-1 -16.616397468686948 20.216100773899988 1.9667717118511256 #
vertex $-1 $537 $680 #
point $-1 -11.873115047090124 20.216100773899988 1.9667717118511256 #
coedge $-1 $552 $551 $544 $640 forward $541 $-1 #
edge $-1 $641 37.977479729231305 $644 42.298423732587139 $639 $681 forward 7 unknown #
vertex $-1 $556 $682 #
straight-curve $-1 29.798677569856245 35.398680587885252 4.6718827362184925 0 1 0 I I #
edge $-1 $644 -18.852074136258807 $553 -3.0411327309360701 $552 $683 forward 7 unknown #
vertex $-1 $643 $684 #
straight-curve $-1 29.798677569856245 -2.0049883292638526 38.020327880883656 0 -0.54463902268945019 0.83867057594974714 I I #
point $-1 29.798677569856245 19.651744472211572 4.6718827362184925 #
point $-1 13.987736164533509 22.457798227487917 0.35093873286265875 #
straight-curve $-1 0 22.457798227487913 4.6718827362184934 -1 0 0 I I #
vertex $-1 $559 $685 #
point $-1 17.649924445598046 20.216100773899988 1.9667717118511256 #
vertex $-1 $563 $686 #
point $-1 22.393206867194877 20.216100773899988 1.9667717118511256 #
vertex $-1 $567 $687 #
point $-1 27.136489288791694 20.216100773899988 1.9667717118511256 #
straight-curve $-1 -43.40342417676321 22.457798227487913 0 0 0 -1 I I #
point $-1 -43.40342417676321 -22.457798227487913 -4.6718827362184934 #
straight-curve $-1 -43.40342417676321 0 -4.6718827362184934 0 1 0 I I #
point $-1 -43.40342417676321 22.457798227487913 -4.6718827362184934 #
straight-curve $-1 -38.626614778255274 -7.3070163775254633 -4.6718827362184934 0 -1 0 I I #
straight-curve $-1 -38.626614778255274 -7.3070163775254633 4.6718827362184934 0 1 0 I I #
straight-curve $-1 -43.40342417676321 -13.114032755050927 0 0 0 -1 I I #
point $-1 -43.40342417676321 -13.114032755050927 -4.6718827362184934 #
point $-1 -43.40342417676321 -13.114032755050927 4.6718827362184934 #
straight-curve $-1 -32.784395343527919 -22.457798227487913 24.736474509720136 0 0 -1 I I #
point $-1 -32.784395343527919 -22.457798227487913 4.6718827362184934 #
straight-curve $-1 -12.985461389499392 -22.457798227487913 0.93117648658673391 1 0 0 I I #
point $-1 -32.784395343527919 -22.457798227487913 0.93117648658673602 #
point $-1 -25.970922778998784 -19.730631284343996 1.8129713964453853 #
straight-curve $-1 23.934259612977574 -22.457798227487913 24.736474509720136 0 0 -1 I I #
point $-1 23.934259612977574 -22.457798227487913 4.6718827362184934 #
straight-curve $-1 15.373866088753353 -22.457798227487913 0.93117648658673391 1 0 0 I I #
point $-1 23.934259612977574 -22.457798227487913 0.93117648658673602 #
point $-1 30.747732177506705 -19.730631284343996 1.8129713964453853 #
straight-curve $-1 -9.2109267660255796 22.457798227487913 42.649362465449798 0 0 -1 I I #
point $-1 -9.2109267660255796 22.457798227487913 4.6718827362184934 #
straight-curve $-1 -8.558198734343474 22.457798227487913 0.35093873286266231 -1 0 0 I I #
point $-1 -9.2109267660255796 22.457798227487917 0.35093873286265875 #
point $-1 -21.859679890283768 19.796765485925114 1.6944522005064004 #
point $-1 -17.116397468686948 19.796765485925114 1.6944522005064004 #
point $-1 -12.373115047090124 19.796765485925114 1.6944522005064004 #
straight-curve $-1 29.798677569856245 22.457798227487913 42.649362465449798 0 0 -1 I I #
point $-1 29.798677569856245 22.457798227487913 4.6718827362184934 #
straight-curve $-1 10.946603433597438 22.457798227487913 0.35093873286266231 -1 0 0 I I #
point $-1 29.798677569856245 22.457798227487917 0.35093873286265875 #
point $-1 17.149924445598046 19.796765485925114 1.6944522005064004 #
point $-1 21.893206867194877 19.796765485925114 1.6944522005064004 #
point $-1 26.636489288791694 19.796765485925114 1.6944522005064004 #
End-of-ACIS-data 