500 0 5 0           
7 Unknown 11 ACIS 5.0 NT 24 Fri Mar 26 01:47:28 1999 
-1 9.9999999999999995e-007 1e-010 
body $-1 $5 $-1 $6 #
body $-1 $7 $-1 $8 #
body $-1 $9 $-1 $10 #
body $-1 $11 $-1 $12 #
body $-1 $13 $-1 $14 #
lump $-1 $-1 $15 $0 #
transform $-1 1 0 0 0 1 0 0 0 1 74.047669911801506 40.683846741818094 18.293266273097228 1 rotate no_reflect no_shear #
lump $-1 $-1 $16 $1 #
transform $-1 1 0 0 0 1 0 0 0 1 74.047669911801506 40.683846741818094 18.293266273097228 1 rotate no_reflect no_shear #
lump $-1 $-1 $17 $2 #
transform $-1 1 0 0 0 1 0 0 0 1 74.047669911801506 40.683846741818094 18.293266273097228 1 rotate no_reflect no_shear #
lump $-1 $-1 $18 $3 #
transform $-1 1 0 0 0 1 0 0 0 1 74.047669911801506 40.683846741818094 18.293266273097228 1 rotate no_reflect no_shear #
lump $-1 $-1 $19 $4 #
transform $-1 1 0 0 0 1 0 0 0 1 74.047669911801506 40.683846741818094 18.293266273097228 1 rotate no_reflect no_shear #
shell $-1 $-1 $-1 $20 $-1 $5 #
shell $-1 $-1 $-1 $21 $-1 $7 #
shell $-1 $-1 $-1 $22 $-1 $9 #
shell $-1 $-1 $-1 $23 $-1 $11 #
shell $-1 $-1 $-1 $24 $-1 $13 #
face $-1 $25 $26 $15 $-1 $27 forward single #
face $-1 $28 $29 $16 $-1 $30 forward single #
face $-1 $31 $32 $17 $-1 $33 reversed single #
face $-1 $34 $35 $18 $-1 $36 forward single #
face $-1 $37 $38 $19 $-1 $39 forward single #
face $-1 $40 $41 $15 $-1 $42 reversed single #
loop $-1 $-1 $43 $20 #
plane-surface $-1 0 0 18.293266273097228 0 0 1 1 0 0 forward_v I I I I #
face $-1 $44 $45 $16 $-1 $46 reversed single #
loop $-1 $-1 $47 $21 #
plane-surface $-1 0 -32.205607024872748 10.097334790643172 0 0 1 1 0 0 forward_v I I I I #
face $-1 $48 $49 $17 $-1 $50 reversed single #
loop $-1 $-1 $51 $22 #
plane-surface $-1 31.828272411443749 107.28961494998165 168.36872134441882 1 0 0 0 -0.78801076186113728 -0.61566146476048833 forward_v I I I I #
face $-1 $52 $53 $18 $-1 $54 forward single #
loop $-1 $55 $56 $23 #
cone-surface $-1 43.890957411545969 38.091805551341146 15.251351941051928 0 -0.78801076186113728 -0.61566146476048833 1 0 0 1 I I 0 1 1 forward I I I I #
face $-1 $57 $58 $19 $-1 $59 forward single #
loop $-1 $60 $61 $24 #
cone-surface $-1 61.984984911699286 38.091805551341146 15.251351941051928 0 -0.78801076186113728 -0.61566146476048833 1 0 0 1 I I 0 1 1 forward I I I I #
face $-1 $62 $63 $15 $-1 $64 reversed single #
loop $-1 $-1 $65 $25 #
plane-surface $-1 0 0 -18.293266273097228 0 0 1 1 0 0 forward_v I I I I #
coedge $-1 $66 $67 $68 $69 forward $26 $-1 #
face $-1 $70 $71 $16 $-1 $72 reversed single #
loop $-1 $-1 $73 $28 #
plane-surface $-1 0 -32.205607024872748 5.9882586340450619 0 0 1 1 0 0 forward_v I I I I #
coedge $-1 $74 $75 $76 $77 reversed $29 $-1 #
face $-1 $78 $79 $17 $-1 $80 forward single #
loop $-1 $-1 $81 $31 #
plane-surface $-1 52.937971161622627 -9.4111066124997791 77.192127504417101 0 0.78801076186113728 0.61566146476048833 1 0 0 forward_v I I I I #
coedge $-1 $82 $83 $84 $85 reversed $32 $-1 #
face $-1 $-1 $86 $18 $-1 $87 forward single #
loop $-1 $88 $89 $34 #
cone-surface $-1 43.890957411545969 37.144819444123918 14.511485327428279 0 -0.78801076186113728 -0.61566146476048833 0.5 0 0 1 I I -0.70710678118654746 0.70710678118654746 0.5 forward I I I I #
loop $-1 $-1 $90 $23 #
coedge $-1 $56 $56 $91 $92 reversed $35 $-1 #
face $-1 $-1 $93 $19 $-1 $94 forward single #
loop $-1 $95 $96 $37 #
cone-surface $-1 61.984984911699286 37.144819444123918 14.511485327428279 0 -0.78801076186113728 -0.61566146476048833 0.5 0 0 1 I I -0.70710678118654746 0.70710678118654746 0.5 forward I I I I #
loop $-1 $-1 $97 $24 #
coedge $-1 $61 $61 $98 $99 reversed $38 $-1 #
face $-1 $100 $101 $15 $-1 $102 reversed single #
loop $-1 $-1 $103 $40 #
plane-surface $-1 0 -40.683846741818094 0 0 1 0 0 0 1 forward_v I I I I #
coedge $-1 $104 $105 $106 $107 forward $41 $-1 #
coedge $-1 $108 $43 $109 $110 forward $26 $-1 #
coedge $-1 $43 $108 $111 $112 forward $26 $-1 #
coedge $-1 $113 $114 $43 $69 reversed $115 $-1 #
edge $-1 $116 -40.683846741818094 $117 40.683846741818094 $68 $118 forward 7 unknown #
face $-1 $119 $120 $16 $-1 $121 reversed single #
loop $-1 $-1 $122 $44 #
plane-surface $-1 0 -23.727367307927398 8.0427967123441171 0 -1 0 0 0 -1 forward_v I I I I #
coedge $-1 $123 $124 $125 $126 reversed $45 $-1 #
coedge $-1 $127 $47 $128 $129 forward $29 $-1 #
coedge $-1 $47 $127 $130 $131 reversed $29 $-1 #
coedge $-1 $132 $133 $47 $77 forward $134 $-1 #
edge $-1 $135 7.6245637954910244 $136 24.581043229381727 $76 $137 forward 7 unknown #
face $-1 $138 $139 $17 $-1 $140 reversed single #
loop $-1 $-1 $84 $48 #
plane-surface $-1 0 0 18.293266273097228 0 0 1 1 0 0 forward_v I I I I #
coedge $-1 $141 $142 $143 $144 reversed $49 $-1 #
coedge $-1 $83 $51 $145 $146 reversed $32 $-1 #
coedge $-1 $51 $82 $141 $147 reversed $32 $-1 #
coedge $-1 $143 $148 $51 $85 forward $79 $-1 #
edge $-1 $149 12.960960733172733 $150 17.039081661553318 $84 $151 forward 7 unknown #
loop $-1 $-1 $91 $52 #
plane-surface $-1 52.937971161622627 -9.4111066124997791 77.192127504417101 0 0.78801076186113728 0.61566146476048833 1 0 0 forward_v I I I I #
loop $-1 $-1 $152 $34 #
coedge $-1 $89 $89 $90 $153 reversed $53 $-1 #
coedge $-1 $90 $90 $89 $153 forward $55 $-1 #
coedge $-1 $91 $91 $56 $92 forward $86 $-1 #
edge $-1 $154 -3.1499224040476249e-015 $154 6.2831853071795969 $91 $155 forward 7 unknown #
loop $-1 $-1 $98 $57 #
plane-surface $-1 52.937971161622627 -9.4111066124997791 77.192127504417101 0 0.78801076186113728 0.61566146476048833 1 0 0 forward_v I I I I #
loop $-1 $-1 $156 $37 #
coedge $-1 $96 $96 $97 $157 reversed $58 $-1 #
coedge $-1 $97 $97 $96 $157 forward $60 $-1 #
coedge $-1 $98 $98 $61 $99 forward $93 $-1 #
edge $-1 $158 -3.1499224040476249e-015 $158 6.2831853071795969 $98 $159 forward 7 unknown #
face $-1 $160 $161 $15 $-1 $162 reversed single #
loop $-1 $-1 $163 $62 #
plane-surface $-1 -74.047669911801506 0 0 1 0 0 0 0 -1 forward_v I I I I #
coedge $-1 $164 $111 $165 $166 forward $63 $-1 #
coedge $-1 $167 $65 $164 $168 forward $41 $-1 #
coedge $-1 $65 $167 $169 $170 forward $41 $-1 #
coedge $-1 $114 $113 $65 $107 reversed $115 $-1 #
edge $-1 $171 -40.683846741818094 $172 40.683846741818094 $106 $173 forward 7 unknown #
coedge $-1 $67 $66 $174 $175 forward $26 $-1 #
coedge $-1 $176 $177 $66 $110 reversed $161 $-1 #
edge $-1 $117 -74.047669911801506 $178 74.047669911801506 $109 $179 forward 7 unknown #
coedge $-1 $103 $180 $67 $112 reversed $63 $-1 #
edge $-1 $181 -74.047669911801506 $116 74.047669911801506 $111 $182 forward 7 unknown #
coedge $-1 $106 $68 $180 $183 forward $115 $-1 #
coedge $-1 $68 $106 $176 $184 reversed $115 $-1 #
loop $-1 $-1 $113 $160 #
vertex $-1 $69 $185 #
vertex $-1 $69 $186 #
straight-curve $-1 74.047669911801506 0 18.293266273097228 0 1 0 I I #
face $-1 $187 $188 $16 $-1 $189 reversed single #
loop $-1 $-1 $190 $70 #
plane-surface $-1 -74.047669911801506 0 0 1 0 0 0 0 -1 forward_v I I I I #
coedge $-1 $191 $128 $133 $192 reversed $71 $-1 #
coedge $-1 $193 $73 $194 $195 reversed $45 $-1 #
coedge $-1 $73 $193 $191 $196 forward $45 $-1 #
coedge $-1 $133 $132 $73 $126 forward $134 $-1 #
edge $-1 $197 -24.581043229381727 $198 -7.6245637954910244 $125 $199 forward 7 unknown #
coedge $-1 $75 $74 $190 $200 reversed $29 $-1 #
coedge $-1 $122 $201 $74 $129 reversed $71 $-1 #
edge $-1 $135 -74.047669911801506 $202 74.047669911801506 $128 $203 forward 7 unknown #
coedge $-1 $204 $205 $75 $131 forward $188 $-1 #
edge $-1 $136 -74.047669911801506 $206 74.047669911801506 $130 $207 forward 7 unknown #
coedge $-1 $125 $76 $205 $208 forward $134 $-1 #
coedge $-1 $76 $125 $122 $192 forward $134 $-1 #
loop $-1 $-1 $76 $187 #
vertex $-1 $77 $209 #
vertex $-1 $208 $210 #
straight-curve $-1 74.047669911801506 -16.102803512436374 10.097334790643172 0 -1 0 I I #
face $-1 $-1 $211 $17 $-1 $212 reversed single #
loop $-1 $-1 $213 $78 #
plane-surface $-1 74.047669911801506 0 0 -1 0 0 0 0 1 forward_v I I I I #
coedge $-1 $214 $81 $83 $147 forward $49 $-1 #
coedge $-1 $81 $214 $213 $215 reversed $49 $-1 #
coedge $-1 $216 $84 $81 $144 forward $79 $-1 #
edge $-1 $150 5.3592868306324348 $217 47.578684330990193 $143 $218 forward 7 unknown #
coedge $-1 $219 $220 $82 $146 forward $211 $-1 #
edge $-1 $221 -71.110851300715922 $149 -65.891094399112177 $145 $222 forward 7 unknown #
edge $-1 $150 74.74372696663626 $221 81.367693483636145 $83 $223 forward 7 unknown #
coedge $-1 $84 $216 $219 $224 forward $79 $-1 #
vertex $-1 $146 $225 #
vertex $-1 $85 $226 #
straight-curve $-1 31.828272411443749 53.644807474990827 18.293266273097231 0 -1 0 I I #
coedge $-1 $152 $152 $-1 $227 reversed $88 $-1 #
edge $-1 $228 0 $228 6.2831853071796004 $89 $229 forward 7 unknown #
vertex $-1 $92 $230 #
ellipse-curve $-1 43.890957411545969 38.644786277627816 15.683387822295339 0 0.78801076186113728 0.61566146476048833 1 0 0 1 I I #
coedge $-1 $156 $156 $-1 $231 reversed $95 $-1 #
edge $-1 $232 0 $232 6.2831853071796004 $96 $233 forward 7 unknown #
vertex $-1 $99 $234 #
ellipse-curve $-1 61.984984911699286 38.644786277627816 15.683387822295339 0 0.78801076186113728 0.61566146476048833 1 0 0 1 I I #
face $-1 $-1 $115 $15 $-1 $235 reversed single #
loop $-1 $-1 $176 $100 #
plane-surface $-1 0 40.683846741818094 0 0 -1 0 0 0 -1 forward_v I I I I #
coedge $-1 $236 $174 $177 $237 forward $101 $-1 #
coedge $-1 $180 $103 $104 $168 reversed $63 $-1 #
coedge $-1 $174 $236 $103 $166 reversed $101 $-1 #
edge $-1 $181 -18.293266273097228 $238 18.293266273097228 $165 $239 forward 7 unknown #
coedge $-1 $105 $104 $236 $240 forward $41 $-1 #
edge $-1 $172 -74.047669911801506 $238 74.047669911801506 $164 $241 forward 7 unknown #
coedge $-1 $177 $176 $105 $170 reversed $161 $-1 #
edge $-1 $242 -74.047669911801506 $171 74.047669911801506 $169 $243 forward 7 unknown #
vertex $-1 $107 $244 #
vertex $-1 $183 $245 #
straight-curve $-1 74.047669911801506 0 -18.293266273097228 0 -1 0 I I #
coedge $-1 $163 $165 $108 $175 reversed $101 $-1 #
edge $-1 $178 -40.683846741818094 $181 40.683846741818094 $174 $246 forward 7 unknown #
coedge $-1 $169 $109 $114 $184 forward $161 $-1 #
coedge $-1 $109 $169 $163 $237 reversed $161 $-1 #
vertex $-1 $110 $247 #
straight-curve $-1 0 40.683846741818094 18.293266273097228 -1 0 0 I I #
coedge $-1 $111 $164 $113 $183 reversed $63 $-1 #
vertex $-1 $175 $248 #
straight-curve $-1 0 -40.683846741818094 18.293266273097228 1 0 0 I I #
edge $-1 $116 -18.293266273097228 $172 18.293266273097228 $113 $249 forward 7 unknown #
edge $-1 $117 -18.293266273097228 $171 18.293266273097228 $114 $250 forward 7 unknown #
point $-1 74.047669911801506 -40.683846741818094 18.293266273097228 #
point $-1 74.047669911801506 40.683846741818094 18.293266273097228 #
face $-1 $-1 $134 $16 $-1 $251 reversed single #
loop $-1 $-1 $130 $119 #
plane-surface $-1 0 -40.683846741818094 0 0 1 0 0 0 1 forward_v I I I I #
coedge $-1 $252 $253 $127 $200 forward $120 $-1 #
coedge $-1 $201 $122 $124 $196 reversed $71 $-1 #
edge $-1 $198 1.9668602778730033 $135 6.0759364344711138 $133 $254 forward 7 unknown #
coedge $-1 $124 $123 $255 $256 reversed $45 $-1 #
coedge $-1 $205 $204 $123 $195 forward $188 $-1 #
edge $-1 $257 -74.047669911801506 $197 74.047669911801506 $194 $258 forward 7 unknown #
edge $-1 $259 -74.047669911801506 $198 74.047669911801506 $191 $260 forward 7 unknown #
vertex $-1 $195 $261 #
vertex $-1 $126 $262 #
straight-curve $-1 74.047669911801506 -16.102803512436374 5.9882586340450619 0 1 0 I I #
edge $-1 $206 -24.581043229381727 $202 -7.6245637954910244 $190 $263 forward 7 unknown #
coedge $-1 $128 $191 $252 $264 reversed $71 $-1 #
vertex $-1 $200 $265 #
straight-curve $-1 0 -23.727367307927398 10.097334790643172 -1 0 0 I I #
coedge $-1 $194 $130 $253 $266 forward $188 $-1 #
coedge $-1 $130 $194 $132 $208 reversed $188 $-1 #
vertex $-1 $266 $267 #
straight-curve $-1 0 -40.683846741818094 10.097334790643172 -1 0 0 I I #
edge $-1 $136 -10.097334790643172 $197 -5.9882586340450619 $132 $268 forward 7 unknown #
point $-1 74.047669911801506 -23.727367307927398 10.097334790643172 #
point $-1 74.047669911801506 -40.683846741818101 10.097334790643172 #
loop $-1 $-1 $145 $138 #
plane-surface $-1 0 40.683846741818094 0 0 -1 0 0 0 -1 forward_v I I I I #
coedge $-1 $269 $270 $142 $215 forward $139 $-1 #
coedge $-1 $142 $141 $220 $271 reversed $49 $-1 #
edge $-1 $217 41.432585523383011 $272 48.056552040382897 $213 $273 forward 7 unknown #
coedge $-1 $148 $143 $270 $274 forward $79 $-1 #
vertex $-1 $274 $275 #
straight-curve $-1 26.468985580811314 36.605725813437516 18.293266273097231 1 0 0 I I #
coedge $-1 $276 $145 $148 $224 reversed $211 $-1 #
coedge $-1 $145 $276 $214 $271 forward $211 $-1 #
vertex $-1 $146 $277 #
straight-curve $-1 31.828272411443749 40.683846741818094 84.184360672209408 0 0 1 I I #
straight-curve $-1 31.828272411443749 -9.4111066124997791 77.192127504417101 0 0.61566146476048833 -0.78801076186113728 I I #
edge $-1 $278 -74.047669911801506 $149 -31.828272411443749 $219 $279 forward 7 unknown #
point $-1 31.828272411443749 40.683846741818094 18.293266273097228 #
point $-1 31.828272411443749 36.605725813437509 18.293266273097231 #
edge $-1 $280 1 $280 0 $152 $-1 forward 7 unknown #
vertex $-1 $153 $281 #
ellipse-curve $-1 43.890957411545969 37.538824825054483 14.819316059808523 0 0.78801076186113728 0.61566146476048833 1 0 0 1 I I #
point $-1 44.890957411545969 38.644786277627801 15.683387822295332 #
edge $-1 $282 1 $282 0 $156 $-1 forward 7 unknown #
vertex $-1 $157 $283 #
ellipse-curve $-1 61.984984911699286 37.538824825054483 14.819316059808523 0 0.78801076186113728 0.61566146476048833 1 0 0 1 I I #
point $-1 62.984984911699286 38.644786277627801 15.683387822295332 #
plane-surface $-1 74.047669911801506 0 0 -1 0 0 0 0 1 forward_v I I I I #
coedge $-1 $165 $163 $167 $240 reversed $101 $-1 #
edge $-1 $178 -18.293266273097228 $242 18.293266273097228 $177 $284 forward 7 unknown #
vertex $-1 $240 $285 #
straight-curve $-1 -74.047669911801506 -40.683846741818094 0 0 0 -1 I I #
edge $-1 $238 -40.683846741818094 $242 40.683846741818094 $236 $286 forward 7 unknown #
straight-curve $-1 0 -40.683846741818094 -18.293266273097228 -1 0 0 I I #
vertex $-1 $170 $287 #
straight-curve $-1 0 40.683846741818094 -18.293266273097228 1 0 0 I I #
point $-1 74.047669911801506 40.683846741818094 -18.293266273097228 #
point $-1 74.047669911801506 -40.683846741818094 -18.293266273097228 #
straight-curve $-1 -74.047669911801506 0 18.293266273097228 0 -1 0 I I #
point $-1 -74.047669911801506 40.683846741818094 18.293266273097228 #
point $-1 -74.047669911801506 -40.683846741818094 18.293266273097228 #
straight-curve $-1 74.047669911801506 -40.683846741818094 0 0 0 -1 I I #
straight-curve $-1 74.047669911801506 40.683846741818094 0 0 0 -1 I I #
plane-surface $-1 74.047669911801506 0 0 -1 0 0 0 0 1 forward_v I I I I #
coedge $-1 $255 $190 $201 $264 forward $120 $-1 #
coedge $-1 $190 $255 $204 $266 reversed $120 $-1 #
straight-curve $-1 74.047669911801506 -23.727367307927398 4.0213983561720585 0 0 1 I I #
coedge $-1 $253 $252 $193 $256 forward $120 $-1 #
edge $-1 $259 7.6245637954910244 $257 24.581043229381727 $255 $288 forward 7 unknown #
vertex $-1 $195 $289 #
straight-curve $-1 0 -40.683846741818094 5.9882586340450619 1 0 0 I I #
vertex $-1 $256 $290 #
straight-curve $-1 0 -23.727367307927398 5.9882586340450619 1 0 0 I I #
point $-1 74.047669911801506 -40.683846741818101 5.9882586340450619 #
point $-1 74.047669911801506 -23.727367307927398 5.9882586340450619 #
straight-curve $-1 -74.047669911801506 -16.102803512436374 10.097334790643172 0 1 0 I I #
edge $-1 $202 -6.0759364344711138 $259 -1.9668602778730033 $252 $291 forward 7 unknown #
point $-1 -74.047669911801506 -23.727367307927398 10.097334790643172 #
edge $-1 $206 -10.097334790643172 $257 -5.9882586340450619 $253 $292 forward 7 unknown #
point $-1 -74.047669911801506 -40.683846741818101 10.097334790643172 #
straight-curve $-1 74.047669911801506 -40.683846741818094 0 0 0 -1 I I #
coedge $-1 $270 $213 $276 $293 reversed $139 $-1 #
coedge $-1 $213 $269 $216 $274 reversed $139 $-1 #
edge $-1 $272 -47.578684330990193 $221 -5.3592868306324348 $220 $294 forward 7 unknown #
vertex $-1 $215 $295 #
straight-curve $-1 74.047669911801506 11.097279521297327 50.942589557255005 0 0.61566146476048833 -0.78801076186113728 I I #
edge $-1 $217 36.605725813437516 $278 40.683846741818094 $270 $296 forward 7 unknown #
point $-1 74.047669911801506 36.605725813437516 18.293266273097228 #
coedge $-1 $220 $219 $269 $293 forward $211 $-1 #
point $-1 31.828272411443749 40.683846741818094 13.073509371493486 #
vertex $-1 $274 $297 #
straight-curve $-1 0 40.683846741818094 18.293266273097228 -1 0 0 I I #
vertex $-1 $227 $298 #
point $-1 44.890957411545969 37.538824825054483 14.819316059808523 #
vertex $-1 $231 $299 #
point $-1 62.984984911699286 37.538824825054483 14.819316059808523 #
straight-curve $-1 -74.047669911801506 40.683846741818094 0 0 0 -1 I I #
point $-1 -74.047669911801506 -40.683846741818094 -18.293266273097228 #
straight-curve $-1 -74.047669911801506 0 -18.293266273097228 0 1 0 I I #
point $-1 -74.047669911801506 40.683846741818094 -18.293266273097228 #
straight-curve $-1 -74.047669911801506 -16.102803512436374 5.9882586340450619 0 -1 0 I I #
point $-1 -74.047669911801506 -40.683846741818101 5.9882586340450619 #
point $-1 -74.047669911801506 -23.727367307927398 5.9882586340450619 #
straight-curve $-1 -74.047669911801506 -23.727367307927398 4.0213983561720585 0 0 -1 I I #
straight-curve $-1 -74.047669911801506 -40.683846741818094 0 0 0 -1 I I #
edge $-1 $278 -18.293266273097228 $272 -13.073509371493486 $269 $300 forward 7 unknown #
straight-curve $-1 26.468985580811314 40.683846741818094 13.073509371493483 -1 0 0 I I #
point $-1 74.047669911801506 40.683846741818094 13.073509371493486 #
straight-curve $-1 74.047669911801506 0 18.293266273097228 0 1 0 I I #
point $-1 74.047669911801506 40.683846741818094 18.293266273097228 #
point $-1 43.890957411545969 36.750814063193353 14.203654595048034 #
point $-1 61.984984911699286 36.750814063193353 14.203654595048034 #
straight-curve $-1 74.047669911801506 40.683846741818094 0 0 0 -1 I I #
End-of-ACIS-data 