500 0 4 0           
7 Unknown 11 ACIS 5.0 NT 24 Fri Mar 26 14:30:07 1999 
-1 9.9999999999999995e-007 1e-010 
body $-1 $4 $-1 $5 #
body $-1 $6 $-1 $7 #
body $-1 $8 $-1 $9 #
body $-1 $10 $-1 $11 #
lump $-1 $-1 $12 $0 #
transform $-1 1 0 0 0 1 0 0 0 1 71.794183172093881 36.239333824014444 16.747378774282161 1 rotate no_reflect no_shear #
lump $-1 $-1 $13 $1 #
transform $-1 1 0 0 0 1 0 0 0 1 71.794183172093881 36.239333824014444 16.747378774282161 1 rotate no_reflect no_shear #
lump $-1 $-1 $14 $2 #
transform $-1 1 0 0 0 1 0 0 0 1 71.794183172093881 36.239333824014444 16.747378774282161 1 rotate no_reflect no_shear #
lump $-1 $-1 $15 $3 #
transform $-1 1 0 0 0 1 0 0 0 1 71.794183172093881 36.239333824014444 16.747378774282161 1 rotate no_reflect no_shear #
shell $-1 $-1 $-1 $16 $-1 $4 #
shell $-1 $-1 $-1 $17 $-1 $6 #
shell $-1 $-1 $-1 $18 $-1 $8 #
shell $-1 $-1 $-1 $19 $-1 $10 #
face $-1 $20 $21 $12 $-1 $22 forward single #
face $-1 $23 $24 $13 $-1 $25 forward single #
face $-1 $26 $27 $14 $-1 $28 reversed single #
face $-1 $29 $30 $15 $-1 $31 forward single #
face $-1 $32 $33 $12 $-1 $34 reversed single #
loop $-1 $-1 $35 $16 #
plane-surface $-1 0 0 16.747378774282161 0 0 1 1 0 0 forward_v I I I I #
face $-1 $36 $37 $13 $-1 $38 forward single #
loop $-1 $-1 $39 $17 #
plane-surface $-1 -71.794183172093881 0 0 1 0 0 0 0 -1 forward_v I I I I #
face $-1 $40 $41 $14 $-1 $42 reversed single #
loop $-1 $-1 $43 $18 #
plane-surface $-1 41.585968563630523 124.35117502366504 135.72428181614936 1 0 0 0 -0.86602541151947299 -0.49999998660252726 forward_v I I I I #
face $-1 $44 $45 $15 $-1 $46 forward single #
loop $-1 $47 $48 $19 #
cone-surface $-1 52.320162096330364 26.958121616360863 6.1936530193636923 0 -0.86602541151947299 -0.49999998660252726 3 0 0 1 I I 0 1 3 forward I I I I #
face $-1 $49 $50 $12 $-1 $51 reversed single #
loop $-1 $-1 $52 $20 #
plane-surface $-1 0 0 -16.747378774282161 0 0 1 1 0 0 forward_v I I I I #
coedge $-1 $53 $54 $55 $56 forward $21 $-1 #
face $-1 $57 $58 $13 $-1 $59 reversed single #
loop $-1 $-1 $60 $23 #
plane-surface $-1 0 0 16.747378774282161 0 0 1 1 0 0 forward_v I I I I #
coedge $-1 $61 $62 $63 $64 forward $24 $-1 #
face $-1 $65 $66 $14 $-1 $67 reversed single #
loop $-1 $-1 $68 $26 #
plane-surface $-1 52.320162096330364 9.7103098539719213e-007 63.930100567776705 0 0.86602541151947299 0.49999998660252726 1 0 0 forward_v I I I I #
coedge $-1 $69 $70 $71 $72 reversed $27 $-1 #
face $-1 $-1 $73 $15 $-1 $74 forward single #
loop $-1 $75 $76 $29 #
cone-surface $-1 52.320162096330364 20.877059640246458 2.6827503759278386 0 -0.86602541151947299 -0.49999998660252726 1.5 0 0 1 I I -0.70710678118654757 0.70710678118654757 1.5 forward I I I I #
loop $-1 $-1 $77 $19 #
coedge $-1 $48 $48 $78 $79 reversed $30 $-1 #
face $-1 $80 $81 $12 $-1 $82 reversed single #
loop $-1 $-1 $83 $32 #
plane-surface $-1 0 -36.239333824014444 0 0 1 0 0 0 1 forward_v I I I I #
coedge $-1 $84 $85 $86 $87 forward $33 $-1 #
coedge $-1 $88 $35 $89 $90 forward $21 $-1 #
coedge $-1 $35 $88 $91 $92 forward $21 $-1 #
coedge $-1 $93 $94 $35 $56 reversed $95 $-1 #
edge $-1 $96 -36.239333824014444 $97 36.239333824014444 $55 $98 forward 7 unknown #
face $-1 $99 $100 $13 $-1 $101 reversed single #
loop $-1 $-1 $102 $36 #
plane-surface $-1 -83.22627399505231 -32.422043628040413 0 1 0 0 0 0 -1 forward_v I I I I #
coedge $-1 $103 $104 $61 $105 forward $37 $-1 #
coedge $-1 $106 $39 $60 $105 reversed $24 $-1 #
coedge $-1 $39 $106 $107 $108 reversed $24 $-1 #
coedge $-1 $109 $110 $39 $64 reversed $100 $-1 #
edge $-1 $111 -16.747378774282161 $112 16.747378774282161 $63 $113 forward 7 unknown #
face $-1 $114 $115 $14 $-1 $116 forward single #
loop $-1 $-1 $117 $40 #
plane-surface $-1 63.054355629030205 124.35117502366504 135.72428181614936 -1 0 0 0 0.86602541151947299 0.49999998660252726 forward_v I I I I #
coedge $-1 $118 $119 $120 $121 reversed $41 $-1 #
coedge $-1 $70 $43 $122 $123 reversed $27 $-1 #
coedge $-1 $43 $69 $118 $124 reversed $27 $-1 #
coedge $-1 $120 $125 $43 $72 forward $115 $-1 #
edge $-1 $126 25.936253687818073 $127 34.934630385454838 $71 $128 forward 7 unknown #
loop $-1 $-1 $78 $44 #
plane-surface $-1 52.320162096330364 9.7103098539719213e-007 63.930100567776705 0 0.86602541151947299 0.49999998660252726 1 0 0 forward_v I I I I #
loop $-1 $-1 $129 $29 #
coedge $-1 $76 $76 $77 $130 reversed $45 $-1 #
coedge $-1 $77 $77 $76 $130 forward $47 $-1 #
coedge $-1 $78 $78 $48 $79 forward $73 $-1 #
edge $-1 $131 -2.3798662895583364e-016 $131 6.2831853071796004 $78 $132 forward 7 unknown #
face $-1 $133 $134 $12 $-1 $135 reversed single #
loop $-1 $-1 $136 $49 #
plane-surface $-1 -71.794183172093881 0 0 1 0 0 0 0 -1 forward_v I I I I #
coedge $-1 $137 $91 $138 $139 forward $50 $-1 #
coedge $-1 $140 $52 $137 $141 forward $33 $-1 #
coedge $-1 $52 $140 $142 $143 forward $33 $-1 #
coedge $-1 $94 $93 $52 $87 reversed $95 $-1 #
edge $-1 $144 -36.239333824014444 $145 36.239333824014444 $86 $146 forward 7 unknown #
coedge $-1 $54 $53 $136 $147 forward $21 $-1 #
coedge $-1 $148 $149 $53 $90 reversed $134 $-1 #
edge $-1 $97 -71.794183172093881 $150 71.794183172093881 $89 $151 forward 7 unknown #
coedge $-1 $83 $152 $54 $92 reversed $50 $-1 #
edge $-1 $153 -71.794183172093881 $96 71.794183172093881 $91 $154 forward 7 unknown #
coedge $-1 $86 $55 $152 $155 forward $95 $-1 #
coedge $-1 $55 $86 $148 $156 reversed $95 $-1 #
loop $-1 $-1 $93 $133 #
vertex $-1 $56 $157 #
vertex $-1 $56 $158 #
straight-curve $-1 71.794183172093881 0 16.747378774282161 0 1 0 I I #
face $-1 $159 $160 $13 $-1 $161 reversed single #
loop $-1 $-1 $63 $57 #
plane-surface $-1 -77.510228583573095 -28.604753432066378 0 0 -1 0 0 0 -1 forward_v I I I I #
coedge $-1 $162 $163 $164 $165 forward $58 $-1 #
coedge $-1 $166 $60 $110 $167 forward $37 $-1 #
coedge $-1 $60 $166 $168 $169 forward $37 $-1 #
edge $-1 $170 -36.239333824014444 $112 -28.604753432066378 $60 $171 forward 7 unknown #
coedge $-1 $62 $61 $172 $173 reversed $24 $-1 #
coedge $-1 $174 $175 $62 $108 forward $160 $-1 #
edge $-1 $111 28.604753432066378 $176 36.239333824014444 $107 $177 forward 7 unknown #
coedge $-1 $164 $63 $175 $178 reversed $100 $-1 #
coedge $-1 $63 $164 $103 $167 reversed $100 $-1 #
vertex $-1 $108 $179 #
vertex $-1 $167 $180 #
straight-curve $-1 -71.794183172093881 -28.604753432066378 0 0 0 1 I I #
face $-1 $-1 $181 $14 $-1 $182 reversed single #
loop $-1 $-1 $71 $65 #
plane-surface $-1 0 0 16.747378774282161 0 0 1 1 0 0 forward_v I I I I #
coedge $-1 $183 $184 $185 $186 reversed $66 $-1 #
coedge $-1 $187 $68 $70 $124 forward $41 $-1 #
coedge $-1 $68 $187 $183 $188 forward $41 $-1 #
coedge $-1 $185 $71 $68 $121 forward $115 $-1 #
edge $-1 $127 15.425887515465341 $189 36.894274580865023 $120 $190 forward 7 unknown #
coedge $-1 $191 $192 $69 $123 forward $181 $-1 #
edge $-1 $193 -66.700408316565273 $126 -51.114762133792517 $122 $194 forward 7 unknown #
edge $-1 $127 54.481913770533296 $193 72.478667648028861 $70 $195 forward 7 unknown #
coedge $-1 $71 $185 $191 $196 forward $115 $-1 #
vertex $-1 $123 $197 #
vertex $-1 $72 $198 #
straight-curve $-1 41.585968563630523 62.175587511832518 16.747378774282161 0 -1 0 I I #
coedge $-1 $129 $129 $-1 $199 reversed $75 $-1 #
edge $-1 $200 0 $200 6.2831853071796004 $76 $201 forward 7 unknown #
vertex $-1 $79 $202 #
ellipse-curve $-1 52.320162096330364 31.740145475196069 8.9545556828957604 0 0.86602541151947299 0.49999998660252726 3 0 0 1 I I #
face $-1 $-1 $95 $12 $-1 $203 reversed single #
loop $-1 $-1 $148 $80 #
plane-surface $-1 0 36.239333824014444 0 0 -1 0 0 0 -1 forward_v I I I I #
coedge $-1 $204 $138 $88 $147 reversed $81 $-1 #
coedge $-1 $152 $83 $84 $141 reversed $50 $-1 #
coedge $-1 $136 $205 $83 $139 reversed $81 $-1 #
edge $-1 $153 -16.747378774282161 $206 16.747378774282161 $138 $207 forward 7 unknown #
coedge $-1 $85 $84 $205 $208 forward $33 $-1 #
edge $-1 $145 -71.794183172093881 $206 71.794183172093881 $137 $209 forward 7 unknown #
coedge $-1 $149 $148 $85 $143 reversed $134 $-1 #
edge $-1 $210 -71.794183172093881 $144 71.794183172093881 $142 $211 forward 7 unknown #
vertex $-1 $87 $212 #
vertex $-1 $155 $213 #
straight-curve $-1 71.794183172093881 0 -16.747378774282161 0 -1 0 I I #
edge $-1 $150 -36.239333824014444 $153 36.239333824014444 $136 $214 forward 7 unknown #
coedge $-1 $142 $89 $94 $156 forward $134 $-1 #
coedge $-1 $89 $142 $204 $215 reversed $134 $-1 #
vertex $-1 $90 $216 #
straight-curve $-1 0 36.239333824014444 16.747378774282161 -1 0 0 I I #
coedge $-1 $91 $137 $93 $155 reversed $50 $-1 #
vertex $-1 $147 $217 #
straight-curve $-1 0 -36.239333824014444 16.747378774282161 1 0 0 I I #
edge $-1 $96 -16.747378774282161 $145 16.747378774282161 $93 $218 forward 7 unknown #
edge $-1 $97 -16.747378774282161 $144 16.747378774282161 $94 $219 forward 7 unknown #
point $-1 71.794183172093881 -36.239333824014444 16.747378774282161 #
point $-1 71.794183172093881 36.239333824014444 16.747378774282161 #
face $-1 $-1 $220 $13 $-1 $221 reversed single #
loop $-1 $-1 $107 $99 #
plane-surface $-1 0 0 -16.747378774282161 0 0 1 1 0 0 forward_v I I I I #
coedge $-1 $222 $102 $223 $224 reversed $58 $-1 #
coedge $-1 $102 $222 $166 $225 reversed $58 $-1 #
coedge $-1 $110 $109 $102 $165 reversed $100 $-1 #
edge $-1 $226 -16.747378774282161 $227 16.747378774282161 $164 $228 forward 7 unknown #
coedge $-1 $104 $103 $163 $225 forward $37 $-1 #
edge $-1 $112 -5.7160454114792145 $226 5.7160454114792145 $110 $229 forward 7 unknown #
coedge $-1 $230 $172 $104 $169 reversed $220 $-1 #
edge $-1 $231 -83.22627399505231 $170 -71.794183172093881 $168 $232 forward 7 unknown #
vertex $-1 $173 $233 #
straight-curve $-1 -71.794183172093881 0 16.747378774282161 0 1 0 I I #
coedge $-1 $168 $234 $106 $173 forward $220 $-1 #
edge $-1 $176 -16.747378774282161 $170 16.747378774282161 $172 $235 forward 7 unknown #
coedge $-1 $223 $107 $234 $236 forward $160 $-1 #
coedge $-1 $107 $223 $109 $178 forward $160 $-1 #
vertex $-1 $236 $237 #
straight-curve $-1 -71.794183172093881 0 -16.747378774282161 0 -1 0 I I #
edge $-1 $227 -5.7160454114792145 $111 5.7160454114792145 $109 $238 forward 7 unknown #
point $-1 -71.794183172093881 -28.604753432066378 -16.747378774282161 #
point $-1 -71.794183172093881 -28.604753432066378 16.747378774282161 #
loop $-1 $-1 $122 $114 #
plane-surface $-1 0 36.239333824014444 0 0 -1 0 0 0 -1 forward_v I I I I #
coedge $-1 $184 $117 $119 $188 reversed $66 $-1 #
coedge $-1 $117 $183 $239 $240 reversed $66 $-1 #
coedge $-1 $125 $120 $117 $186 forward $115 $-1 #
edge $-1 $189 -34.934630385454838 $241 -25.936253687818073 $185 $242 forward 7 unknown #
coedge $-1 $119 $118 $192 $243 reversed $41 $-1 #
edge $-1 $244 -72.478667648028861 $189 -54.481913770533296 $183 $245 forward 7 unknown #
vertex $-1 $121 $246 #
straight-curve $-1 26.160081048165182 27.24095712637768 16.747378774282161 1 0 0 I I #
coedge $-1 $239 $122 $125 $196 reversed $181 $-1 #
coedge $-1 $122 $239 $187 $243 forward $181 $-1 #
vertex $-1 $123 $247 #
straight-curve $-1 41.585968563630523 36.239333824014444 67.862140908074679 0 0 1 I I #
straight-curve $-1 41.585968563630523 9.7103098539719213e-007 63.930100567776705 0 0.49999998660252726 -0.86602541151947299 I I #
edge $-1 $241 -63.054355629030205 $126 -41.585968563630523 $191 $248 forward 7 unknown #
point $-1 41.585968563630523 36.239333824014444 16.747378774282161 #
point $-1 41.585968563630523 27.240957126377683 16.747378774282161 #
edge $-1 $249 1 $249 0 $129 $-1 forward 7 unknown #
vertex $-1 $130 $250 #
ellipse-curve $-1 52.320162096330364 22.176097757525667 3.4327503558316295 0 0.86602541151947299 0.49999998660252726 3 0 0 1 I I #
point $-1 55.320162096330364 31.740145475196059 8.9545556828957551 #
plane-surface $-1 71.794183172093881 0 0 -1 0 0 0 0 1 forward_v I I I I #
coedge $-1 $205 $136 $149 $215 forward $81 $-1 #
coedge $-1 $138 $204 $140 $208 reversed $81 $-1 #
vertex $-1 $208 $251 #
straight-curve $-1 -71.794183172093881 -36.239333824014444 0 0 0 -1 I I #
edge $-1 $206 -36.239333824014444 $210 36.239333824014444 $205 $252 forward 7 unknown #
straight-curve $-1 0 -36.239333824014444 -16.747378774282161 -1 0 0 I I #
vertex $-1 $143 $253 #
straight-curve $-1 0 36.239333824014444 -16.747378774282161 1 0 0 I I #
point $-1 71.794183172093881 36.239333824014444 -16.747378774282161 #
point $-1 71.794183172093881 -36.239333824014444 -16.747378774282161 #
straight-curve $-1 -71.794183172093881 0 16.747378774282161 0 -1 0 I I #
edge $-1 $150 -16.747378774282161 $210 16.747378774282161 $149 $254 forward 7 unknown #
point $-1 -71.794183172093881 36.239333824014444 16.747378774282161 #
point $-1 -71.794183172093881 -36.239333824014444 16.747378774282161 #
straight-curve $-1 71.794183172093881 -36.239333824014444 0 0 0 -1 I I #
straight-curve $-1 71.794183172093881 36.239333824014444 0 0 0 -1 I I #
loop $-1 $-1 $172 $159 #
plane-surface $-1 0 -36.239333824014444 0 0 1 0 0 0 1 forward_v I I I I #
coedge $-1 $163 $162 $230 $255 reversed $58 $-1 #
coedge $-1 $175 $174 $162 $224 forward $160 $-1 #
edge $-1 $256 -3.8172901959740315 $227 3.8172901959740351 $162 $257 forward 7 unknown #
edge $-1 $226 -3.8172901959740351 $231 3.8172901959740315 $163 $258 forward 7 unknown #
vertex $-1 $167 $259 #
vertex $-1 $178 $260 #
straight-curve $-1 -83.22627399505231 -28.604753432066378 0 0 0 -1 I I #
straight-curve $-1 -77.510228583573095 -28.604753432066378 16.747378774282161 -1 0 0 I I #
coedge $-1 $234 $168 $222 $255 forward $220 $-1 #
vertex $-1 $225 $261 #
straight-curve $-1 0 -36.239333824014444 16.747378774282161 1 0 0 I I #
point $-1 -71.794183172093881 -36.239333824014444 16.747378774282161 #
coedge $-1 $172 $230 $174 $236 reversed $220 $-1 #
straight-curve $-1 -71.794183172093881 -36.239333824014444 0 0 0 1 I I #
edge $-1 $176 -5.7160454114792145 $256 5.7160454114792145 $234 $262 forward 7 unknown #
point $-1 -71.794183172093881 -36.239333824014444 -16.747378774282161 #
straight-curve $-1 -77.510228583573095 -28.604753432066378 -16.747378774282161 1 0 0 I I #
coedge $-1 $192 $191 $184 $240 forward $181 $-1 #
edge $-1 $241 51.114762133792517 $244 66.700408316565273 $239 $263 forward 7 unknown #
vertex $-1 $196 $264 #
straight-curve $-1 63.054355629030205 62.175587511832518 16.747378774282161 0 1 0 I I #
edge $-1 $244 -36.894274580865023 $193 -15.425887515465341 $192 $265 forward 7 unknown #
vertex $-1 $243 $266 #
straight-curve $-1 63.054355629030205 9.7103098539719213e-007 63.930100567776705 0 -0.49999998660252726 0.86602541151947299 I I #
point $-1 63.054355629030205 27.240957126377683 16.747378774282161 #
point $-1 41.585968563630523 36.239333824014444 1.1617325915093986 #
straight-curve $-1 0 36.239333824014444 16.747378774282161 -1 0 0 I I #
vertex $-1 $199 $267 #
point $-1 55.320162096330364 22.176097757525667 3.4327503558316295 #
point $-1 -71.794183172093881 -36.239333824014444 -16.747378774282161 #
straight-curve $-1 -71.794183172093881 0 -16.747378774282161 0 1 0 I I #
point $-1 -71.794183172093881 36.239333824014444 -16.747378774282161 #
straight-curve $-1 -71.794183172093881 36.239333824014444 0 0 0 -1 I I #
edge $-1 $231 -16.747378774282161 $256 16.747378774282161 $222 $268 forward 7 unknown #
vertex $-1 $224 $269 #
straight-curve $-1 -83.22627399505231 -32.422043628040413 -16.747378774282161 0 1 0 I I #
straight-curve $-1 -83.22627399505231 -32.422043628040413 16.747378774282161 0 -1 0 I I #
point $-1 -83.22627399505231 -28.604753432066378 16.747378774282161 #
point $-1 -83.22627399505231 -28.604753432066378 -16.747378774282161 #
point $-1 -83.22627399505231 -36.239333824014444 16.747378774282161 #
straight-curve $-1 -77.510228583573095 -36.239333824014444 -16.747378774282161 -1 0 0 I I #
straight-curve $-1 63.054355629030205 36.239333824014444 67.862140908074679 0 0 -1 I I #
point $-1 63.054355629030205 36.239333824014444 16.747378774282161 #
straight-curve $-1 26.160081048165182 36.239333824014452 1.1617325915093879 -1 0 0 I I #
point $-1 63.054355629030205 36.239333824014444 1.1617325915093986 #
point $-1 52.320162096330364 19.578021522967248 1.9327503960240477 #
straight-curve $-1 -83.22627399505231 -36.239333824014444 0 0 0 -1 I I #
point $-1 -83.22627399505231 -36.239333824014444 -16.747378774282161 #
End-of-ACIS-data 