500 0 9 0           
7 Unknown 11 ACIS 5.0 NT 24 Fri Mar 26 18:08:57 1999 
-1 9.9999999999999995e-007 1e-010 
body $-1 $9 $-1 $10 #
body $-1 $11 $-1 $12 #
body $-1 $13 $-1 $14 #
body $-1 $15 $-1 $16 #
body $-1 $17 $-1 $18 #
body $-1 $19 $-1 $20 #
body $-1 $21 $-1 $22 #
body $-1 $23 $-1 $24 #
body $-1 $25 $-1 $26 #
lump $-1 $-1 $27 $0 #
transform $-1 1 0 0 0 1 0 0 0 1 50.398266548661766 33.292817720034421 8.240548992479237 1 rotate no_reflect no_shear #
lump $-1 $-1 $28 $1 #
transform $-1 1 0 0 0 1 0 0 0 1 50.398266548661766 33.292817720034421 8.240548992479237 1 rotate no_reflect no_shear #
lump $-1 $-1 $29 $2 #
transform $-1 1 0 0 0 1 0 0 0 1 50.398266548661766 33.292817720034421 8.240548992479237 1 rotate no_reflect no_shear #
lump $-1 $-1 $30 $3 #
transform $-1 1 0 0 0 1 0 0 0 1 50.398266548661766 33.292817720034421 8.240548992479237 1 rotate no_reflect no_shear #
lump $-1 $-1 $31 $4 #
transform $-1 1 0 0 0 1 0 0 0 1 50.398266548661766 33.292817720034421 8.240548992479237 1 rotate no_reflect no_shear #
lump $-1 $-1 $32 $5 #
transform $-1 1 0 0 0 1 0 0 0 1 50.398266548661766 33.292817720034421 8.240548992479237 1 rotate no_reflect no_shear #
lump $-1 $-1 $33 $6 #
transform $-1 1 0 0 0 1 0 0 0 1 50.398266548661766 33.292817720034421 8.240548992479237 1 rotate no_reflect no_shear #
lump $-1 $-1 $34 $7 #
transform $-1 1 0 0 0 1 0 0 0 1 50.398266548661766 33.292817720034421 8.240548992479237 1 rotate no_reflect no_shear #
lump $-1 $-1 $35 $8 #
transform $-1 1 0 0 0 1 0 0 0 1 50.398266548661766 33.292817720034421 8.240548992479237 1 rotate no_reflect no_shear #
shell $-1 $-1 $-1 $36 $-1 $9 #
shell $-1 $-1 $-1 $37 $-1 $11 #
shell $-1 $-1 $-1 $38 $-1 $13 #
shell $-1 $-1 $-1 $39 $-1 $15 #
shell $-1 $-1 $-1 $40 $-1 $17 #
shell $-1 $-1 $-1 $41 $-1 $19 #
shell $-1 $-1 $-1 $42 $-1 $21 #
shell $-1 $-1 $-1 $43 $-1 $23 #
shell $-1 $-1 $-1 $44 $-1 $25 #
face $-1 $45 $46 $27 $-1 $47 reversed single #
face $-1 $48 $49 $28 $-1 $50 forward single #
face $-1 $51 $52 $29 $-1 $53 forward single #
face $-1 $54 $55 $30 $-1 $56 reversed single #
face $-1 $57 $58 $31 $-1 $59 forward single #
face $-1 $60 $61 $32 $-1 $62 reversed single #
face $-1 $63 $64 $33 $-1 $65 forward single #
face $-1 $66 $67 $34 $-1 $68 forward single #
face $-1 $69 $70 $35 $-1 $71 forward single #
face $-1 $72 $73 $27 $-1 $74 forward single #
loop $-1 $-1 $75 $36 #
plane-surface $-1 0 -33.292817720034421 0 0 1 0 0 0 1 forward_v I I I I #
face $-1 $76 $77 $28 $-1 $78 forward single #
loop $-1 $-1 $79 $37 #
plane-surface $-1 0 -33.292817720034421 0 0 1 0 0 0 1 forward_v I I I I #
face $-1 $80 $81 $29 $-1 $82 forward single #
loop $-1 $-1 $83 $38 #
plane-surface $-1 0 33.292817720034421 0 0 -1 0 0 0 -1 forward_v I I I I #
face $-1 $84 $85 $30 $-1 $86 reversed single #
loop $-1 $-1 $87 $39 #
plane-surface $-1 84.883708483830716 23.746758640657145 140.70023529761781 0 -1 0 -0.85716730853699208 0 -0.51503806187062418 forward_v I I I I #
face $-1 $88 $89 $31 $-1 $90 forward single #
loop $-1 $91 $92 $40 #
cone-surface $-1 46.950918141395476 18.524695207816166 4.2989635522853158 -0.85716730853699208 0 -0.51503806187062418 0.51503806187062418 0 -0.85716730853699208 1 I I 0 1 1 forward I I I I #
face $-1 $93 $94 $32 $-1 $95 reversed single #
loop $-1 $-1 $96 $41 #
plane-surface $-1 -128.73188600823073 -10.814167266960981 66.634706350600595 0 1 0 -0.77714596973225614 0 0.62932038083071107 forward_v I I I I #
face $-1 $97 $98 $33 $-1 $99 forward single #
loop $-1 $100 $101 $42 #
cone-surface $-1 -47.898714088231515 -9.1308104183227741 5.3490871448557096 0.77714596973225614 0 -0.62932038083071107 0.31466019041535553 0 0.38857298486612807 1 I I 0 1 0.5 forward I I I I #
face $-1 $102 $103 $34 $-1 $104 forward single #
loop $-1 $105 $106 $43 #
cone-surface $-1 -47.898714088231515 -6.6057751453654667 5.3490871448557096 0.77714596973225614 0 -0.62932038083071107 0.31466019041535553 0 0.38857298486612807 1 I I 0 1 0.5 forward I I I I #
face $-1 $107 $108 $35 $-1 $109 forward single #
loop $-1 $110 $111 $44 #
cone-surface $-1 -47.898714088231515 -4.0807398724081594 5.3490871448557096 0.77714596973225614 0 -0.62932038083071107 0.31466019041535553 0 0.38857298486612807 1 I I 0 1 0.5 forward I I I I #
face $-1 $112 $113 $27 $-1 $114 reversed single #
loop $-1 $-1 $115 $45 #
plane-surface $-1 0 0 8.240548992479237 0 0 1 1 0 0 forward_v I I I I #
coedge $-1 $116 $117 $118 $119 reversed $46 $-1 #
face $-1 $120 $121 $28 $-1 $122 reversed single #
loop $-1 $-1 $123 $48 #
plane-surface $-1 0 0 8.240548992479237 0 0 1 1 0 0 forward_v I I I I #
coedge $-1 $124 $125 $126 $127 forward $49 $-1 #
face $-1 $128 $129 $29 $-1 $130 reversed single #
loop $-1 $-1 $131 $51 #
plane-surface $-1 0 0 8.240548992479237 0 0 1 1 0 0 forward_v I I I I #
coedge $-1 $132 $133 $134 $135 forward $52 $-1 #
face $-1 $136 $137 $30 $-1 $138 reversed single #
loop $-1 $-1 $139 $54 #
plane-surface $-1 -1.515784501061944 18.524695207816166 88.786184247894084 0.85716730853699208 0 0.51503806187062418 0.51503806187062418 0 -0.85716730853699208 forward_v I I I I #
coedge $-1 $140 $141 $142 $143 reversed $55 $-1 #
face $-1 $-1 $144 $31 $-1 $145 forward single #
loop $-1 $146 $147 $57 #
cone-surface $-1 44.833662308777164 18.524695207816166 3.0267879458949913 -0.85716730853699208 0 -0.51503806187062418 0.25751903093531209 0 -0.42858365426849604 1 I I -0.70710678118654746 0.70710678118654746 0.5 forward I I I I #
loop $-1 $-1 $148 $40 #
coedge $-1 $92 $92 $149 $150 reversed $58 $-1 #
face $-1 $151 $152 $32 $-1 $153 reversed single #
loop $-1 $-1 $154 $60 #
plane-surface $-1 -50.39826654866178 -6.6057751453654703 3.2013937553775804 -0.77714596973225614 0 0.62932038083071107 0.62932038083071107 0 0.77714596973225614 forward_v I I I I #
coedge $-1 $155 $156 $157 $158 reversed $61 $-1 #
face $-1 $-1 $159 $33 $-1 $160 forward single #
loop $-1 $161 $162 $63 #
cone-surface $-1 -47.245188806408954 -9.1308104183227741 4.8198728205753341 0.77714596973225614 0 -0.62932038083071107 0.15733009520767777 0 0.19428649243306403 1 I I -0.70710678118654746 0.70710678118654746 0.25 forward I I I I #
loop $-1 $-1 $163 $42 #
coedge $-1 $101 $101 $164 $165 reversed $64 $-1 #
face $-1 $-1 $166 $34 $-1 $167 forward single #
loop $-1 $168 $169 $66 #
cone-surface $-1 -47.245188806408954 -6.6057751453654667 4.8198728205753341 0.77714596973225614 0 -0.62932038083071107 0.15733009520767777 0 0.19428649243306403 1 I I -0.70710678118654746 0.70710678118654746 0.25 forward I I I I #
loop $-1 $-1 $170 $43 #
coedge $-1 $106 $106 $171 $172 reversed $67 $-1 #
face $-1 $-1 $173 $35 $-1 $174 forward single #
loop $-1 $175 $176 $69 #
cone-surface $-1 -47.245188806408954 -4.0807398724081594 4.8198728205753341 0.77714596973225614 0 -0.62932038083071107 0.15733009520767777 0 0.19428649243306403 1 I I -0.70710678118654746 0.70710678118654746 0.25 forward I I I I #
loop $-1 $-1 $177 $44 #
coedge $-1 $111 $111 $178 $179 reversed $70 $-1 #
face $-1 $180 $181 $27 $-1 $182 reversed single #
loop $-1 $-1 $183 $72 #
plane-surface $-1 0 0 -8.240548992479237 0 0 1 1 0 0 forward_v I I I I #
coedge $-1 $184 $185 $186 $187 forward $73 $-1 #
coedge $-1 $188 $75 $189 $190 reversed $46 $-1 #
coedge $-1 $75 $188 $191 $192 forward $46 $-1 #
coedge $-1 $193 $183 $75 $119 forward $113 $-1 #
edge $-1 $194 -50.398266548661766 $195 50.398266548661766 $75 $196 forward 7 unknown #
face $-1 $197 $198 $28 $-1 $199 reversed single #
loop $-1 $-1 $200 $76 #
plane-surface $-1 -50.398266548661766 0 0 1 0 0 0 0 -1 forward_v I I I I #
coedge $-1 $201 $202 $125 $203 forward $77 $-1 #
coedge $-1 $204 $79 $205 $206 reversed $49 $-1 #
coedge $-1 $79 $204 $123 $203 reversed $49 $-1 #
coedge $-1 $207 $208 $79 $127 reversed $209 $-1 #
edge $-1 $210 -8.240548992479237 $211 8.240548992479237 $126 $212 forward 7 unknown #
face $-1 $213 $214 $29 $-1 $215 reversed single #
loop $-1 $-1 $216 $80 #
plane-surface $-1 -48.081471923477388 40.548263112932958 0 0 -1 0 0 0 -1 forward_v I I I I #
coedge $-1 $217 $218 $132 $219 forward $81 $-1 #
coedge $-1 $220 $83 $131 $219 reversed $52 $-1 #
coedge $-1 $83 $220 $221 $222 reversed $52 $-1 #
coedge $-1 $223 $224 $83 $135 reversed $214 $-1 #
edge $-1 $225 -8.240548992479237 $226 8.240548992479237 $134 $227 forward 7 unknown #
face $-1 $228 $229 $30 $-1 $230 forward single #
loop $-1 $-1 $231 $84 #
plane-surface $-1 84.883708483830716 13.302631774975186 140.70023529761781 0 1 0 0.85716730853699208 0 0.51503806187062418 forward_v I I I I #
coedge $-1 $232 $233 $234 $235 reversed $85 $-1 #
coedge $-1 $141 $87 $236 $237 reversed $55 $-1 #
coedge $-1 $87 $140 $232 $238 reversed $55 $-1 #
coedge $-1 $234 $239 $87 $143 forward $229 $-1 #
edge $-1 $240 -7.9564123067464081 $241 -4.4390598489135087 $142 $242 forward 7 unknown #
loop $-1 $-1 $149 $88 #
plane-surface $-1 -1.515784501061944 18.524695207816166 88.786184247894084 0.85716730853699208 0 0.51503806187062418 0.51503806187062418 0 -0.85716730853699208 forward_v I I I I #
loop $-1 $-1 $243 $57 #
coedge $-1 $147 $147 $148 $244 reversed $89 $-1 #
coedge $-1 $148 $148 $147 $244 forward $91 $-1 #
coedge $-1 $149 $149 $92 $150 forward $144 $-1 #
edge $-1 $245 0 $245 6.2831853071796004 $149 $246 forward 7 unknown #
face $-1 $247 $248 $32 $-1 $249 reversed single #
loop $-1 $-1 $250 $93 #
plane-surface $-1 -128.73188600823073 -2.3973830237699598 66.634706350600595 0 -1 0 0.77714596973225614 0 -0.62932038083071107 forward_v I I I I #
coedge $-1 $251 $252 $253 $254 reversed $94 $-1 #
coedge $-1 $156 $96 $255 $256 reversed $61 $-1 #
coedge $-1 $96 $155 $251 $257 reversed $61 $-1 #
coedge $-1 $253 $258 $96 $158 forward $259 $-1 #
edge $-1 $260 13.967676455453599 $261 18.048303797535084 $157 $262 forward 7 unknown #
loop $-1 $-1 $164 $97 #
plane-surface $-1 -50.39826654866178 -6.6057751453654703 3.2013937553775804 -0.77714596973225614 0 0.62932038083071107 0.62932038083071107 0 0.77714596973225614 forward_v I I I I #
loop $-1 $-1 $263 $63 #
coedge $-1 $162 $162 $163 $264 reversed $98 $-1 #
coedge $-1 $163 $163 $162 $264 forward $100 $-1 #
coedge $-1 $164 $164 $101 $165 forward $159 $-1 #
edge $-1 $265 0 $265 6.2831853071796004 $164 $266 forward 7 unknown #
loop $-1 $-1 $171 $102 #
plane-surface $-1 -50.39826654866178 -6.6057751453654703 3.2013937553775804 -0.77714596973225614 0 0.62932038083071107 0.62932038083071107 0 0.77714596973225614 forward_v I I I I #
loop $-1 $-1 $267 $66 #
coedge $-1 $169 $169 $170 $268 reversed $103 $-1 #
coedge $-1 $170 $170 $169 $268 forward $105 $-1 #
coedge $-1 $171 $171 $106 $172 forward $166 $-1 #
edge $-1 $269 0 $269 6.2831853071796004 $171 $270 forward 7 unknown #
loop $-1 $-1 $178 $107 #
plane-surface $-1 -50.39826654866178 -6.6057751453654703 3.2013937553775804 -0.77714596973225614 0 0.62932038083071107 0.62932038083071107 0 0.77714596973225614 forward_v I I I I #
loop $-1 $-1 $271 $69 #
coedge $-1 $176 $176 $177 $272 reversed $108 $-1 #
coedge $-1 $177 $177 $176 $272 forward $110 $-1 #
coedge $-1 $178 $178 $111 $179 forward $173 $-1 #
edge $-1 $273 0 $273 6.2831853071796004 $178 $274 forward 7 unknown #
face $-1 $275 $276 $27 $-1 $277 reversed single #
loop $-1 $-1 $278 $112 #
plane-surface $-1 -50.398266548661766 0 0 1 0 0 0 0 -1 forward_v I I I I #
coedge $-1 $118 $279 $280 $281 forward $113 $-1 #
coedge $-1 $282 $115 $283 $284 forward $73 $-1 #
coedge $-1 $115 $282 $188 $285 forward $73 $-1 #
coedge $-1 $189 $286 $115 $187 reversed $287 $-1 #
edge $-1 $288 -33.292817720034421 $289 33.292817720034421 $186 $290 forward 7 unknown #
coedge $-1 $117 $116 $185 $285 reversed $46 $-1 #
coedge $-1 $280 $186 $116 $190 forward $287 $-1 #
edge $-1 $288 -8.240548992479237 $194 8.240548992479237 $189 $291 forward 7 unknown #
coedge $-1 $292 $293 $117 $192 reversed $181 $-1 #
edge $-1 $294 -8.240548992479237 $195 8.240548992479237 $191 $295 forward 7 unknown #
coedge $-1 $279 $118 $293 $296 forward $113 $-1 #
vertex $-1 $190 $297 #
vertex $-1 $296 $298 #
straight-curve $-1 0 -33.292817720034421 -8.240548992479237 -1 0 0 I I #
face $-1 $299 $209 $28 $-1 $300 reversed single #
loop $-1 $-1 $301 $120 #
plane-surface $-1 -48.546877971192529 -39.469374133846202 0 0 1 0 0 0 1 forward_v I I I I #
coedge $-1 $302 $303 $204 $304 forward $121 $-1 #
coedge $-1 $305 $123 $303 $306 forward $77 $-1 #
coedge $-1 $123 $305 $207 $307 forward $77 $-1 #
edge $-1 $210 46.695489393723292 $308 50.398266548661766 $123 $309 forward 7 unknown #
coedge $-1 $125 $124 $200 $304 reversed $49 $-1 #
coedge $-1 $310 $311 $124 $206 forward $312 $-1 #
edge $-1 $313 -50.398266548661766 $211 -46.695489393723292 $205 $314 forward 7 unknown #
coedge $-1 $315 $126 $202 $307 reversed $209 $-1 #
coedge $-1 $126 $315 $310 $316 reversed $209 $-1 #
loop $-1 $-1 $315 $197 #
vertex $-1 $203 $317 #
vertex $-1 $316 $318 #
straight-curve $-1 -46.695489393723292 -33.292817720034421 0 0 0 -1 I I #
face $-1 $319 $320 $29 $-1 $321 reversed single #
loop $-1 $-1 $134 $128 #
plane-surface $-1 -45.764677298293009 36.920540416483689 0 -1 0 0 0 0 1 forward_v I I I I #
coedge $-1 $322 $323 $324 $325 forward $129 $-1 #
coedge $-1 $326 $131 $224 $327 forward $81 $-1 #
coedge $-1 $131 $326 $328 $329 forward $81 $-1 #
edge $-1 $330 -50.398266548661766 $226 -45.764677298293009 $131 $331 forward 7 unknown #
coedge $-1 $133 $132 $332 $333 reversed $52 $-1 #
coedge $-1 $334 $335 $133 $222 forward $320 $-1 #
edge $-1 $225 45.764677298293009 $336 50.398266548661766 $221 $337 forward 7 unknown #
coedge $-1 $324 $134 $335 $338 reversed $214 $-1 #
coedge $-1 $134 $324 $217 $327 reversed $214 $-1 #
vertex $-1 $222 $339 #
vertex $-1 $327 $340 #
straight-curve $-1 -45.764677298293009 33.292817720034421 0 0 0 1 I I #
face $-1 $-1 $341 $30 $-1 $342 reversed single #
loop $-1 $-1 $142 $136 #
plane-surface $-1 0 0 8.240548992479237 0 0 1 1 0 0 forward_v I I I I #
coedge $-1 $343 $344 $345 $346 reversed $137 $-1 #
coedge $-1 $347 $139 $141 $238 forward $85 $-1 #
coedge $-1 $139 $347 $343 $348 forward $85 $-1 #
coedge $-1 $345 $142 $139 $235 forward $229 $-1 #
edge $-1 $241 -14.484411036749062 $349 -4.0402841710671034 $234 $350 forward 7 unknown #
coedge $-1 $351 $352 $140 $237 forward $341 $-1 #
edge $-1 $353 -67.963426385807423 $240 -62.109568656329671 $236 $354 forward 7 unknown #
edge $-1 $241 93.967227229990442 $353 100.79653309732349 $141 $355 forward 7 unknown #
coedge $-1 $142 $345 $351 $356 forward $229 $-1 #
vertex $-1 $143 $357 #
vertex $-1 $143 $358 #
straight-curve $-1 42.441854241915358 23.746758640657145 8.2405489924792334 -1 0 0 I I #
coedge $-1 $243 $243 $-1 $359 reversed $146 $-1 #
edge $-1 $360 0 $360 6.2831853071796004 $147 $361 forward 7 unknown #
vertex $-1 $150 $362 #
ellipse-curve $-1 48.639590319745317 18.524695207816166 5.3136201277403439 0.85716730853699208 0 0.51503806187062418 0.51503806187062418 0 -0.85716730853699208 1 I I #
face $-1 $-1 $259 $32 $-1 $363 forward single #
loop $-1 $-1 $364 $151 #
plane-surface $-1 -50.398266548661766 0 0 1 0 0 0 0 -1 forward_v I I I I #
coedge $-1 $365 $366 $367 $368 reversed $152 $-1 #
coedge $-1 $369 $154 $156 $257 forward $94 $-1 #
coedge $-1 $154 $369 $365 $370 forward $94 $-1 #
coedge $-1 $367 $157 $154 $254 forward $259 $-1 #
edge $-1 $261 -7.5112796942782456 $371 0.90550454891277532 $253 $372 forward 7 unknown #
coedge $-1 $373 $374 $155 $256 forward $248 $-1 #
edge $-1 $375 -30.115959419922699 $260 -25.076804182821061 $255 $376 forward 7 unknown #
edge $-1 $261 -6.4841811363156854 $375 -2.2748066086763162e-014 $156 $377 forward 7 unknown #
coedge $-1 $157 $367 $373 $378 forward $259 $-1 #
loop $-1 $-1 $367 $247 #
vertex $-1 $256 $379 #
vertex $-1 $158 $380 #
straight-curve $-1 -64.365943004115366 -10.814167266960981 8.240548992479237 1 0 0 I I #
coedge $-1 $263 $263 $-1 $381 reversed $161 $-1 #
edge $-1 $382 0 $382 6.2831853071796004 $162 $383 forward 7 unknown #
vertex $-1 $165 $384 #
ellipse-curve $-1 -48.357952877621024 -9.1308104183227741 5.7209713739284158 -0.77714596973225614 0 0.62932038083071107 0.31466019041535553 0 0.38857298486612807 1 I I #
coedge $-1 $267 $267 $-1 $385 reversed $168 $-1 #
edge $-1 $386 0 $386 6.2831853071796004 $169 $387 forward 7 unknown #
vertex $-1 $172 $388 #
ellipse-curve $-1 -48.357952877621024 -6.6057751453654667 5.7209713739284158 -0.77714596973225614 0 0.62932038083071107 0.31466019041535553 0 0.38857298486612807 1 I I #
coedge $-1 $271 $271 $-1 $389 reversed $175 $-1 #
edge $-1 $390 0 $390 6.2831853071796004 $176 $391 forward 7 unknown #
vertex $-1 $179 $392 #
ellipse-curve $-1 -48.357952877621024 -4.0807398724081594 5.7209713739284158 -0.77714596973225614 0 0.62932038083071107 0.31466019041535553 0 0.38857298486612807 1 I I #
face $-1 $-1 $287 $27 $-1 $393 reversed single #
loop $-1 $-1 $283 $180 #
plane-surface $-1 0 33.292817720034421 0 0 -1 0 0 0 -1 forward_v I I I I #
coedge $-1 $293 $292 $394 $395 forward $181 $-1 #
coedge $-1 $183 $193 $396 $397 forward $113 $-1 #
coedge $-1 $286 $189 $183 $281 reversed $287 $-1 #
edge $-1 $398 -33.292817720034421 $194 33.292817720034421 $280 $399 forward 7 unknown #
coedge $-1 $185 $184 $292 $400 forward $73 $-1 #
coedge $-1 $401 $394 $184 $284 reversed $276 $-1 #
edge $-1 $289 -50.398266548661766 $402 50.398266548661766 $283 $403 forward 7 unknown #
edge $-1 $294 -50.398266548661766 $288 50.398266548661766 $188 $404 forward 7 unknown #
coedge $-1 $186 $280 $401 $405 reversed $287 $-1 #
loop $-1 $-1 $189 $275 #
vertex $-1 $187 $406 #
vertex $-1 $187 $407 #
straight-curve $-1 50.398266548661766 0 8.240548992479237 0 1 0 I I #
straight-curve $-1 50.398266548661766 -33.292817720034421 0 0 0 -1 I I #
coedge $-1 $278 $191 $282 $400 reversed $181 $-1 #
coedge $-1 $191 $278 $193 $296 reversed $181 $-1 #
vertex $-1 $400 $408 #
straight-curve $-1 -50.398266548661766 -33.292817720034421 0 0 0 -1 I I #
edge $-1 $195 -33.292817720034421 $409 33.292817720034421 $293 $410 forward 7 unknown #
point $-1 50.398266548661766 -33.292817720034421 -8.240548992479237 #
point $-1 -50.398266548661766 -33.292817720034421 -8.240548992479237 #
face $-1 $-1 $312 $28 $-1 $411 reversed single #
plane-surface $-1 -46.695489393723292 -36.381095926940311 0 -1 0 0 0 0 1 forward_v I I I I #
coedge $-1 $412 $413 $414 $415 forward $198 $-1 #
coedge $-1 $414 $200 $311 $416 reversed $121 $-1 #
coedge $-1 $200 $414 $201 $306 reversed $121 $-1 #
edge $-1 $308 -8.240548992479237 $313 8.240548992479237 $200 $417 forward 7 unknown #
coedge $-1 $202 $201 $413 $418 forward $77 $-1 #
edge $-1 $308 33.292817720034421 $419 39.469374133846202 $303 $420 forward 7 unknown #
edge $-1 $421 -3.0882782069058905 $210 3.0882782069058905 $207 $422 forward 7 unknown #
vertex $-1 $306 $423 #
straight-curve $-1 0 -33.292817720034421 8.240548992479237 -1 0 0 I I #
coedge $-1 $424 $205 $208 $316 forward $312 $-1 #
coedge $-1 $205 $424 $302 $416 forward $312 $-1 #
loop $-1 $-1 $205 $299 #
vertex $-1 $304 $425 #
straight-curve $-1 0 -33.292817720034421 -8.240548992479237 1 0 0 I I #
coedge $-1 $208 $207 $426 $427 forward $209 $-1 #
edge $-1 $211 -3.0882782069058905 $428 3.0882782069058905 $208 $429 forward 7 unknown #
point $-1 -46.695489393723292 -33.292817720034421 8.240548992479237 #
point $-1 -46.695489393723292 -33.292817720034421 -8.240548992479237 #
face $-1 $-1 $430 $29 $-1 $431 reversed single #
loop $-1 $-1 $221 $213 #
plane-surface $-1 0 0 -8.240548992479237 0 0 1 1 0 0 forward_v I I I I #
coedge $-1 $432 $216 $433 $434 reversed $129 $-1 #
coedge $-1 $216 $432 $326 $435 reversed $129 $-1 #
coedge $-1 $224 $223 $216 $325 reversed $214 $-1 #
edge $-1 $436 -8.240548992479237 $437 8.240548992479237 $324 $438 forward 7 unknown #
coedge $-1 $218 $217 $323 $435 forward $81 $-1 #
edge $-1 $226 -3.6277226964492684 $436 3.6277226964492684 $224 $439 forward 7 unknown #
coedge $-1 $440 $332 $218 $329 reversed $430 $-1 #
edge $-1 $441 -40.548263112932958 $330 -33.292817720034421 $328 $442 forward 7 unknown #
vertex $-1 $333 $443 #
straight-curve $-1 0 33.292817720034421 8.240548992479237 1 0 0 I I #
coedge $-1 $328 $444 $220 $333 forward $430 $-1 #
edge $-1 $336 -8.240548992479237 $330 8.240548992479237 $332 $445 forward 7 unknown #
coedge $-1 $433 $221 $444 $446 forward $320 $-1 #
coedge $-1 $221 $433 $223 $338 forward $320 $-1 #
vertex $-1 $446 $447 #
straight-curve $-1 0 33.292817720034421 -8.240548992479237 -1 0 0 I I #
edge $-1 $437 -3.6277226964492684 $225 3.6277226964492684 $223 $448 forward 7 unknown #
point $-1 -45.764677298293009 33.292817720034421 -8.240548992479237 #
point $-1 -45.764677298293009 33.292817720034421 8.240548992479237 #
loop $-1 $-1 $236 $228 #
plane-surface $-1 50.398266548661766 0 0 -1 0 0 0 0 1 forward_v I I I I #
coedge $-1 $344 $231 $233 $348 reversed $137 $-1 #
coedge $-1 $231 $343 $449 $450 reversed $137 $-1 #
coedge $-1 $239 $234 $231 $346 forward $229 $-1 #
edge $-1 $349 4.4390598489135087 $451 7.9564123067464081 $345 $452 forward 7 unknown #
coedge $-1 $233 $232 $352 $453 reversed $85 $-1 #
edge $-1 $454 -100.79653309732349 $349 -93.967227229990442 $343 $455 forward 7 unknown #
vertex $-1 $235 $456 #
straight-curve $-1 46.880914090828853 9.2623476039080828 8.2405489924792406 0 -1 0 I I #
coedge $-1 $449 $236 $239 $356 reversed $341 $-1 #
coedge $-1 $236 $449 $347 $453 forward $341 $-1 #
vertex $-1 $237 $457 #
straight-curve $-1 50.398266548661766 23.746758640657145 70.350117648808904 0 0 1 I I #
straight-curve $-1 -1.515784501061944 23.746758640657145 88.786184247894084 0.51503806187062418 0 -0.85716730853699208 I I #
edge $-1 $451 13.302631774975186 $240 23.746758640657145 $351 $458 forward 7 unknown #
point $-1 50.398266548661766 23.746758640657145 8.240548992479237 #
point $-1 46.880914090828867 23.746758640657145 8.2405489924792334 #
edge $-1 $459 1 $459 0 $243 $-1 forward 7 unknown #
vertex $-1 $244 $460 #
ellipse-curve $-1 45.262245963045658 18.524695207816166 3.2843069768303033 0.85716730853699208 0 0.51503806187062418 0.51503806187062418 0 -0.85716730853699208 1 I I #
point $-1 49.154628381615915 18.524695207816166 4.4564528192033368 #
plane-surface $-1 0 0 8.240548992479237 0 0 1 1 0 0 forward_v I I I I #
coedge $-1 $374 $373 $366 $461 forward $248 $-1 #
coedge $-1 $366 $250 $252 $370 reversed $152 $-1 #
coedge $-1 $250 $365 $364 $461 reversed $152 $-1 #
coedge $-1 $258 $253 $250 $368 forward $259 $-1 #
edge $-1 $371 -18.048303797535084 $462 -13.967676455453599 $367 $463 forward 7 unknown #
coedge $-1 $252 $251 $374 $464 reversed $94 $-1 #
edge $-1 $465 2.2748066086763162e-014 $371 6.4841811363156854 $365 $466 forward 7 unknown #
vertex $-1 $254 $467 #
straight-curve $-1 -46.317639206580274 -3.3028875726827351 8.240548992479237 0 1 0 I I #
coedge $-1 $364 $255 $258 $378 reversed $248 $-1 #
coedge $-1 $255 $364 $369 $464 forward $248 $-1 #
vertex $-1 $256 $468 #
straight-curve $-1 -50.398266548661766 -10.814167266960981 33.317353175300298 0 0 1 I I #
straight-curve $-1 -50.39826654866178 -10.814167266960981 3.2013937553775804 -0.62932038083071107 0 -0.77714596973225614 I I #
edge $-1 $462 2.3973830237699598 $260 10.814167266960981 $373 $469 forward 7 unknown #
point $-1 -50.398266548661766 -10.814167266960981 8.240548992479237 #
point $-1 -46.317639206580282 -10.814167266960981 8.240548992479237 #
edge $-1 $470 1 $470 0 $263 $-1 forward 7 unknown #
vertex $-1 $264 $471 #
ellipse-curve $-1 -47.439475298842019 -9.1308104183227741 4.9772029157830122 -0.77714596973225614 0 0.62932038083071107 0.31466019041535553 0 0.38857298486612807 1 I I #
point $-1 -48.043292687205657 -9.1308104183227741 6.1095443587945342 #
edge $-1 $472 1 $472 0 $267 $-1 forward 7 unknown #
vertex $-1 $268 $473 #
ellipse-curve $-1 -47.439475298842019 -6.6057751453654667 4.9772029157830122 -0.77714596973225614 0 0.62932038083071107 0.31466019041535553 0 0.38857298486612807 1 I I #
point $-1 -48.043292687205657 -6.6057751453654667 6.1095443587945342 #
edge $-1 $474 1 $474 0 $271 $-1 forward 7 unknown #
vertex $-1 $272 $475 #
ellipse-curve $-1 -47.439475298842019 -4.0807398724081594 4.9772029157830122 -0.77714596973225614 0 0.62932038083071107 0.31466019041535553 0 0.38857298486612807 1 I I #
point $-1 -48.043292687205657 -4.0807398724081594 6.1095443587945342 #
plane-surface $-1 50.398266548661766 0 0 -1 0 0 0 0 1 forward_v I I I I #
coedge $-1 $283 $396 $278 $395 reversed $276 $-1 #
edge $-1 $402 -8.240548992479237 $409 8.240548992479237 $394 $476 forward 7 unknown #
coedge $-1 $394 $401 $279 $397 reversed $276 $-1 #
edge $-1 $409 -50.398266548661766 $398 50.398266548661766 $396 $477 forward 7 unknown #
vertex $-1 $281 $478 #
straight-curve $-1 50.398266548661766 0 -8.240548992479237 0 -1 0 I I #
edge $-1 $402 -33.292817720034421 $294 33.292817720034421 $292 $479 forward 7 unknown #
coedge $-1 $396 $283 $286 $405 forward $276 $-1 #
vertex $-1 $284 $480 #
straight-curve $-1 0 33.292817720034421 8.240548992479237 -1 0 0 I I #
straight-curve $-1 0 -33.292817720034421 8.240548992479237 1 0 0 I I #
edge $-1 $289 -8.240548992479237 $398 8.240548992479237 $286 $481 forward 7 unknown #
point $-1 50.398266548661766 -33.292817720034421 8.240548992479237 #
point $-1 50.398266548661766 33.292817720034421 8.240548992479237 #
point $-1 -50.398266548661766 -33.292817720034421 8.240548992479237 #
vertex $-1 $397 $482 #
straight-curve $-1 -50.398266548661766 0 -8.240548992479237 0 1 0 I I #
plane-surface $-1 0 0 -8.240548992479237 0 0 1 1 0 0 forward_v I I I I #
coedge $-1 $426 $301 $424 $483 reversed $198 $-1 #
coedge $-1 $301 $426 $305 $418 reversed $198 $-1 #
coedge $-1 $303 $302 $301 $415 reversed $121 $-1 #
edge $-1 $419 -8.240548992479237 $484 8.240548992479237 $414 $485 forward 7 unknown #
edge $-1 $484 -39.469374133846202 $313 -33.292817720034421 $302 $486 forward 7 unknown #
straight-curve $-1 -50.398266548661766 -33.292817720034421 0 0 0 -1 I I #
edge $-1 $419 -1.8513885774692369 $421 1.8513885774692369 $413 $487 forward 7 unknown #
vertex $-1 $306 $488 #
straight-curve $-1 -50.398266548661766 0 8.240548992479237 0 -1 0 I I #
vertex $-1 $307 $489 #
straight-curve $-1 -46.695489393723292 -36.381095926940311 8.240548992479237 0 1 0 I I #
point $-1 -50.398266548661766 -33.292817720034421 8.240548992479237 #
coedge $-1 $311 $310 $412 $483 forward $312 $-1 #
point $-1 -50.398266548661766 -33.292817720034421 -8.240548992479237 #
coedge $-1 $413 $412 $315 $427 reversed $198 $-1 #
edge $-1 $421 -8.240548992479237 $428 8.240548992479237 $315 $490 forward 7 unknown #
vertex $-1 $427 $491 #
straight-curve $-1 -46.695489393723292 -36.381095926940311 -8.240548992479237 0 -1 0 I I #
loop $-1 $-1 $332 $319 #
plane-surface $-1 -50.398266548661766 0 0 1 0 0 0 0 -1 forward_v I I I I #
coedge $-1 $323 $322 $440 $492 reversed $129 $-1 #
coedge $-1 $335 $334 $322 $434 forward $320 $-1 #
edge $-1 $493 -2.3167946251843787 $437 2.3167946251843787 $322 $494 forward 7 unknown #
edge $-1 $436 -2.3167946251843787 $441 2.3167946251843787 $323 $495 forward 7 unknown #
vertex $-1 $327 $496 #
vertex $-1 $338 $497 #
straight-curve $-1 -45.764677298293009 40.548263112932958 0 0 0 -1 I I #
straight-curve $-1 -45.764677298293009 36.920540416483689 8.240548992479237 0 1 0 I I #
coedge $-1 $444 $328 $432 $492 forward $430 $-1 #
vertex $-1 $435 $498 #
straight-curve $-1 -50.398266548661766 0 8.240548992479237 0 -1 0 I I #
point $-1 -50.398266548661766 33.292817720034421 8.240548992479237 #
coedge $-1 $332 $440 $334 $446 reversed $430 $-1 #
straight-curve $-1 -50.398266548661766 33.292817720034421 0 0 0 1 I I #
edge $-1 $336 -3.6277226964492684 $493 3.6277226964492684 $444 $499 forward 7 unknown #
point $-1 -50.398266548661766 33.292817720034421 -8.240548992479237 #
straight-curve $-1 -45.764677298293009 36.920540416483689 -8.240548992479237 0 -1 0 I I #
coedge $-1 $352 $351 $344 $450 forward $341 $-1 #
edge $-1 $451 62.109568656329671 $454 67.963426385807423 $449 $500 forward 7 unknown #
vertex $-1 $356 $501 #
straight-curve $-1 42.441854241915358 13.302631774975186 8.2405489924792334 1 0 0 I I #
edge $-1 $454 4.0402841710671034 $353 14.484411036749062 $352 $502 forward 7 unknown #
vertex $-1 $453 $503 #
straight-curve $-1 -1.515784501061944 13.302631774975186 88.786184247894084 -0.51503806187062418 0 0.85716730853699208 I I #
point $-1 46.880914090828867 13.302631774975186 8.2405489924792334 #
point $-1 50.398266548661766 23.746758640657145 2.3866912630014809 #
straight-curve $-1 50.398266548661766 0 8.240548992479237 0 1 0 I I #
vertex $-1 $359 $504 #
point $-1 45.777284024916284 18.524695207816166 2.4271396682933113 #
edge $-1 $462 25.076804182821061 $465 30.115959419922699 $364 $505 forward 7 unknown #
vertex $-1 $378 $506 #
straight-curve $-1 -64.365943004115366 -2.3973830237699598 8.240548992479237 -1 0 0 I I #
edge $-1 $465 -0.90550454891277532 $375 7.5112796942782456 $374 $507 forward 7 unknown #
vertex $-1 $464 $508 #
straight-curve $-1 -50.39826654866178 -2.3973830237699598 3.2013937553775804 0.62932038083071107 0 0.77714596973225614 I I #
point $-1 -46.317639206580282 -2.3973830237699598 8.240548992479237 #
point $-1 -50.398266548661766 -10.814167266960981 3.2013937553775982 #
straight-curve $-1 -50.398266548661766 0 8.240548992479237 0 -1 0 I I #
vertex $-1 $381 $509 #
point $-1 -47.12481510842666 -9.1308104183227741 5.3657759006491403 #
vertex $-1 $385 $510 #
point $-1 -47.12481510842666 -6.6057751453654667 5.3657759006491403 #
vertex $-1 $389 $511 #
point $-1 -47.12481510842666 -4.0807398724081594 5.3657759006491403 #
straight-curve $-1 -50.398266548661766 33.292817720034421 0 0 0 -1 I I #
straight-curve $-1 0 33.292817720034421 -8.240548992479237 1 0 0 I I #
point $-1 50.398266548661766 33.292817720034421 -8.240548992479237 #
straight-curve $-1 -50.398266548661766 0 8.240548992479237 0 -1 0 I I #
point $-1 -50.398266548661766 33.292817720034421 8.240548992479237 #
straight-curve $-1 50.398266548661766 33.292817720034421 0 0 0 -1 I I #
point $-1 -50.398266548661766 33.292817720034421 -8.240548992479237 #
edge $-1 $428 -1.8513885774692369 $484 1.8513885774692369 $412 $512 forward 7 unknown #
vertex $-1 $416 $513 #
straight-curve $-1 -50.398266548661766 -39.469374133846202 0 0 0 -1 I I #
straight-curve $-1 -50.398266548661766 0 -8.240548992479237 0 1 0 I I #
straight-curve $-1 -48.546877971192529 -39.469374133846202 8.240548992479237 1 0 0 I I #
point $-1 -50.398266548661766 -39.469374133846202 8.240548992479237 #
point $-1 -46.695489393723292 -39.469374133846202 8.240548992479237 #
straight-curve $-1 -46.695489393723292 -39.469374133846202 0 0 0 -1 I I #
point $-1 -46.695489393723292 -39.469374133846202 -8.240548992479237 #
edge $-1 $441 -8.240548992479237 $493 8.240548992479237 $432 $514 forward 7 unknown #
vertex $-1 $434 $515 #
straight-curve $-1 -48.081471923477388 40.548263112932958 -8.240548992479237 1 0 0 I I #
straight-curve $-1 -48.081471923477388 40.548263112932958 8.240548992479237 -1 0 0 I I #
point $-1 -45.764677298293009 40.548263112932958 8.240548992479237 #
point $-1 -45.764677298293009 40.548263112932958 -8.240548992479237 #
point $-1 -50.398266548661766 40.548263112932958 8.240548992479237 #
straight-curve $-1 -50.398266548661766 36.920540416483689 -8.240548992479237 0 1 0 I I #
straight-curve $-1 50.398266548661766 13.302631774975186 70.350117648808904 0 0 -1 I I #
point $-1 50.398266548661766 13.302631774975186 8.240548992479237 #
straight-curve $-1 50.398266548661766 9.2623476039080828 2.3866912630014738 0 1 0 I I #
point $-1 50.398266548661766 13.302631774975186 2.3866912630014809 #
point $-1 44.405078654508671 18.524695207816166 2.7692689149596794 #
straight-curve $-1 -50.398266548661766 -2.3973830237699598 33.317353175300298 0 0 -1 I I #
point $-1 -50.398266548661766 -2.3973830237699598 8.240548992479237 #
straight-curve $-1 -50.398266548661766 -3.3028875726827351 3.2013937553775986 0 -1 0 I I #
point $-1 -50.398266548661766 -2.3973830237699598 3.2013937553775982 #
point $-1 -47.05090231397589 -9.1308104183227741 4.6625427253676559 #
point $-1 -47.05090231397589 -6.6057751453654667 4.6625427253676559 #
point $-1 -47.05090231397589 -4.0807398724081594 4.6625427253676559 #
straight-curve $-1 -48.546877971192529 -39.469374133846202 -8.240548992479237 -1 0 0 I I #
point $-1 -50.398266548661766 -39.469374133846202 -8.240548992479237 #
straight-curve $-1 -50.398266548661766 40.548263112932958 0 0 0 -1 I I #
point $-1 -50.398266548661766 40.548263112932958 -8.240548992479237 #
End-of-ACIS-data 