500 0 11 0           
7 Unknown 11 ACIS 5.0 NT 24 Thu Mar 25 22:34:16 1999 
-1 9.9999999999999995e-007 1e-010 
body $-1 $11 $-1 $12 #
body $-1 $13 $-1 $14 #
body $-1 $15 $-1 $16 #
body $-1 $17 $-1 $18 #
body $-1 $19 $-1 $20 #
body $-1 $21 $-1 $22 #
body $-1 $23 $-1 $24 #
body $-1 $25 $-1 $26 #
body $-1 $27 $-1 $28 #
body $-1 $29 $-1 $30 #
body $-1 $31 $-1 $32 #
lump $-1 $-1 $33 $0 #
transform $-1 1 0 0 0 1 0 0 0 1 76.8016602069155 49.154046958747735 14.742013784530219 1 rotate no_reflect no_shear #
lump $-1 $-1 $34 $1 #
transform $-1 1 0 0 0 1 0 0 0 1 76.8016602069155 49.154046958747735 14.742013784530219 1 rotate no_reflect no_shear #
lump $-1 $-1 $35 $2 #
transform $-1 1 0 0 0 1 0 0 0 1 76.8016602069155 49.154046958747735 14.742013784530219 1 rotate no_reflect no_shear #
lump $-1 $-1 $36 $3 #
transform $-1 1 0 0 0 1 0 0 0 1 76.8016602069155 49.154046958747735 14.742013784530219 1 rotate no_reflect no_shear #
lump $-1 $-1 $37 $4 #
transform $-1 1 0 0 0 1 0 0 0 1 76.8016602069155 49.154046958747735 14.742013784530219 1 rotate no_reflect no_shear #
lump $-1 $-1 $38 $5 #
transform $-1 1 0 0 0 1 0 0 0 1 76.8016602069155 49.154046958747735 14.742013784530219 1 rotate no_reflect no_shear #
lump $-1 $-1 $39 $6 #
transform $-1 1 0 0 0 1 0 0 0 1 76.8016602069155 49.154046958747735 14.742013784530219 1 rotate no_reflect no_shear #
lump $-1 $-1 $40 $7 #
transform $-1 1 0 0 0 1 0 0 0 1 76.8016602069155 49.154046958747735 14.742013784530219 1 rotate no_reflect no_shear #
lump $-1 $-1 $41 $8 #
transform $-1 1 0 0 0 1 0 0 0 1 76.8016602069155 49.154046958747735 14.742013784530219 1 rotate no_reflect no_shear #
lump $-1 $-1 $42 $9 #
transform $-1 1 0 0 0 1 0 0 0 1 76.8016602069155 49.154046958747735 14.742013784530219 1 rotate no_reflect no_shear #
lump $-1 $-1 $43 $10 #
transform $-1 1 0 0 0 1 0 0 0 1 76.8016602069155 49.154046958747735 14.742013784530219 1 rotate no_reflect no_shear #
shell $-1 $-1 $-1 $44 $-1 $11 #
shell $-1 $-1 $-1 $45 $-1 $13 #
shell $-1 $-1 $-1 $46 $-1 $15 #
shell $-1 $-1 $-1 $47 $-1 $17 #
shell $-1 $-1 $-1 $48 $-1 $19 #
shell $-1 $-1 $-1 $49 $-1 $21 #
shell $-1 $-1 $-1 $50 $-1 $23 #
shell $-1 $-1 $-1 $51 $-1 $25 #
shell $-1 $-1 $-1 $52 $-1 $27 #
shell $-1 $-1 $-1 $53 $-1 $29 #
shell $-1 $-1 $-1 $54 $-1 $31 #
face $-1 $55 $56 $33 $-1 $57 forward single #
face $-1 $58 $59 $34 $-1 $60 reversed single #
face $-1 $61 $62 $35 $-1 $63 reversed single #
face $-1 $64 $65 $36 $-1 $66 reversed single #
face $-1 $67 $68 $37 $-1 $69 forward single #
face $-1 $70 $71 $38 $-1 $72 forward single #
face $-1 $73 $74 $39 $-1 $75 forward single #
face $-1 $76 $77 $40 $-1 $78 reversed single #
face $-1 $79 $80 $41 $-1 $81 forward single #
face $-1 $82 $83 $42 $-1 $84 forward single #
face $-1 $85 $86 $43 $-1 $87 forward single #
face $-1 $88 $89 $33 $-1 $90 reversed single #
loop $-1 $-1 $91 $44 #
plane-surface $-1 0 0 14.742013784530219 0 0 1 1 0 0 forward_v I I I I #
face $-1 $92 $93 $34 $-1 $94 reversed single #
loop $-1 $-1 $95 $45 #
plane-surface $-1 -74.803500295381511 -35.451896953635362 0 0 -1 0 0 0 -1 forward_v I I I I #
face $-1 $96 $97 $35 $-1 $98 reversed single #
loop $-1 $-1 $99 $46 #
plane-surface $-1 -74.803500295381511 35.451896953635362 0 0 1 0 0 0 1 forward_v I I I I #
face $-1 $100 $101 $36 $-1 $102 reversed single #
loop $-1 $-1 $103 $47 #
plane-surface $-1 -190.95117422061958 -14.819048278031058 112.50841692498963 0 1 0 -0.74314483375859142 0 0.66913059716165679 forward_v I I I I #
face $-1 $104 $105 $37 $-1 $106 forward single #
loop $-1 $107 $108 $48 #
cone-surface $-1 -73.422961663282223 -11.477630983932443 11.225287281203784 0.74314483375859142 0 -0.66913059716165679 0.66913059716165679 0 0.74314483375859142 1 I I 0 1 1 forward I I I I #
face $-1 $109 $110 $38 $-1 $111 forward single #
loop $-1 $112 $113 $49 #
cone-surface $-1 -73.422961663282223 -6.4655050427845211 11.225287281203784 0.74314483375859142 0 -0.66913059716165679 0.66913059716165679 0 0.74314483375859142 1 I I 0 1 1 forward I I I I #
face $-1 $114 $115 $39 $-1 $116 forward single #
loop $-1 $117 $118 $50 #
cone-surface $-1 -73.422961663282223 -1.4533791016365996 11.225287281203784 0.74314483375859142 0 -0.66913059716165679 0.66913059716165679 0 0.74314483375859142 1 I I 0 1 1 forward I I I I #
face $-1 $119 $120 $40 $-1 $121 reversed single #
loop $-1 $-1 $122 $51 #
plane-surface $-1 121.96588309413329 35.451896953635355 222.38427381365989 0 -1 0 -0.83867057594974714 0 -0.54463902268945019 forward_v I I I I #
face $-1 $123 $124 $41 $-1 $125 forward single #
loop $-1 $126 $127 $52 #
cone-surface $-1 74.739435657228697 28.512772642534692 12.003756112701886 -0.83867057594974714 0 -0.54463902268945019 0.2723195113447251 0 -0.41933528797487357 1 I I 0 1 0.5 forward I I I I #
face $-1 $128 $129 $42 $-1 $130 forward single #
loop $-1 $131 $132 $53 #
cone-surface $-1 74.739435657228697 31.114944259197451 12.003756112701886 -0.83867057594974714 0 -0.54463902268945019 0.2723195113447251 0 -0.41933528797487357 1 I I 0 1 0.5 forward I I I I #
face $-1 $133 $134 $43 $-1 $135 forward single #
loop $-1 $136 $137 $54 #
cone-surface $-1 74.739435657228697 33.717115875860209 12.003756112701886 -0.83867057594974714 0 -0.54463902268945019 0.2723195113447251 0 -0.41933528797487357 1 I I 0 1 0.5 forward I I I I #
face $-1 $138 $139 $33 $-1 $140 reversed single #
loop $-1 $-1 $141 $55 #
plane-surface $-1 0 0 -14.742013784530219 0 0 1 1 0 0 forward_v I I I I #
coedge $-1 $142 $143 $144 $145 forward $56 $-1 #
face $-1 $146 $147 $34 $-1 $148 forward single #
loop $-1 $-1 $149 $58 #
plane-surface $-1 -72.805340383847522 -42.302971956191548 0 -1 0 0 0 0 1 forward_v I I I I #
coedge $-1 $150 $151 $152 $153 forward $59 $-1 #
face $-1 $154 $155 $35 $-1 $156 reversed single #
loop $-1 $-1 $157 $61 #
plane-surface $-1 -72.805340383847522 42.302971956191548 0 -1 0 0 0 0 1 forward_v I I I I #
coedge $-1 $158 $159 $160 $161 reversed $62 $-1 #
face $-1 $162 $163 $36 $-1 $164 reversed single #
loop $-1 $-1 $165 $64 #
plane-surface $-1 -76.801660206915486 -6.4655050427845211 9.7277354104695917 -0.74314483375859142 0 0.66913059716165679 0.66913059716165679 0 0.74314483375859142 forward_v I I I I #
coedge $-1 $166 $167 $168 $169 reversed $65 $-1 #
face $-1 $-1 $170 $37 $-1 $171 forward single #
loop $-1 $172 $173 $67 #
cone-surface $-1 -71.930128910205198 -11.477630983932443 9.8811346663268296 0.74314483375859142 0 -0.66913059716165679 0.3345652985808284 0 0.37157241687929571 1 I I -0.70710678118654746 0.70710678118654746 0.5 forward I I I I #
loop $-1 $-1 $174 $48 #
coedge $-1 $108 $108 $175 $176 reversed $68 $-1 #
face $-1 $-1 $177 $38 $-1 $178 forward single #
loop $-1 $179 $180 $70 #
cone-surface $-1 -71.930128910205198 -6.4655050427845211 9.8811346663268296 0.74314483375859142 0 -0.66913059716165679 0.3345652985808284 0 0.37157241687929571 1 I I -0.70710678118654746 0.70710678118654746 0.5 forward I I I I #
loop $-1 $-1 $181 $49 #
coedge $-1 $113 $113 $182 $183 reversed $71 $-1 #
face $-1 $-1 $184 $39 $-1 $185 forward single #
loop $-1 $186 $187 $73 #
cone-surface $-1 -71.930128910205198 -1.4533791016365996 9.8811346663268296 0.74314483375859142 0 -0.66913059716165679 0.3345652985808284 0 0.37157241687929571 1 I I -0.70710678118654746 0.70710678118654746 0.5 forward I I I I #
loop $-1 $-1 $188 $50 #
coedge $-1 $118 $118 $189 $190 reversed $74 $-1 #
face $-1 $191 $192 $40 $-1 $193 reversed single #
loop $-1 $-1 $194 $76 #
plane-surface $-1 -6.8567021051279085 31.114944259197436 138.72591150161651 0.83867057594974714 0 0.54463902268945019 0.54463902268945019 0 -0.83867057594974714 forward_v I I I I #
coedge $-1 $195 $196 $197 $198 reversed $77 $-1 #
face $-1 $-1 $199 $41 $-1 $200 forward single #
loop $-1 $201 $202 $79 #
cone-surface $-1 74.038683609020438 28.512772642534692 11.548682426288632 -0.83867057594974714 0 -0.54463902268945019 0.13615975567236255 0 -0.20966764398743679 1 I I -0.70710678118654746 0.70710678118654746 0.25 forward I I I I #
loop $-1 $-1 $203 $52 #
coedge $-1 $127 $127 $204 $205 reversed $80 $-1 #
face $-1 $-1 $206 $42 $-1 $207 forward single #
loop $-1 $208 $209 $82 #
cone-surface $-1 74.038683609020438 31.114944259197451 11.548682426288632 -0.83867057594974714 0 -0.54463902268945019 0.13615975567236255 0 -0.20966764398743679 1 I I -0.70710678118654746 0.70710678118654746 0.25 forward I I I I #
loop $-1 $-1 $210 $53 #
coedge $-1 $132 $132 $211 $212 reversed $83 $-1 #
face $-1 $-1 $213 $43 $-1 $214 forward single #
loop $-1 $215 $216 $85 #
cone-surface $-1 74.038683609020438 33.717115875860209 11.548682426288632 -0.83867057594974714 0 -0.54463902268945019 0.13615975567236255 0 -0.20966764398743679 1 I I -0.70710678118654746 0.70710678118654746 0.25 forward I I I I #
loop $-1 $-1 $217 $54 #
coedge $-1 $137 $137 $218 $219 reversed $86 $-1 #
face $-1 $220 $221 $33 $-1 $222 reversed single #
loop $-1 $-1 $223 $88 #
plane-surface $-1 0 -49.154046958747735 0 0 1 0 0 0 1 forward_v I I I I #
coedge $-1 $224 $225 $226 $227 forward $89 $-1 #
coedge $-1 $228 $91 $229 $230 forward $56 $-1 #
coedge $-1 $91 $228 $231 $232 forward $56 $-1 #
coedge $-1 $233 $234 $91 $145 reversed $235 $-1 #
edge $-1 $236 -49.154046958747735 $237 49.154046958747735 $144 $238 forward 7 unknown #
face $-1 $239 $240 $34 $-1 $241 reversed single #
loop $-1 $-1 $242 $92 #
plane-surface $-1 0 0 14.742013784530219 0 0 1 1 0 0 forward_v I I I I #
coedge $-1 $243 $244 $245 $246 reversed $93 $-1 #
coedge $-1 $247 $95 $248 $249 reversed $59 $-1 #
coedge $-1 $95 $247 $250 $251 reversed $59 $-1 #
coedge $-1 $244 $243 $95 $153 reversed $93 $-1 #
edge $-1 $252 -14.742013784530219 $253 14.742013784530219 $152 $254 forward 7 unknown #
face $-1 $255 $256 $35 $-1 $257 reversed single #
loop $-1 $-1 $258 $96 #
plane-surface $-1 0 0 -14.742013784530219 0 0 1 1 0 0 forward_v I I I I #
coedge $-1 $259 $260 $261 $262 forward $97 $-1 #
coedge $-1 $261 $99 $263 $264 reversed $62 $-1 #
coedge $-1 $99 $261 $265 $266 reversed $62 $-1 #
coedge $-1 $267 $268 $99 $161 forward $256 $-1 #
edge $-1 $269 -14.742013784530219 $270 14.742013784530219 $160 $271 forward 7 unknown #
face $-1 $272 $273 $36 $-1 $274 forward single #
loop $-1 $-1 $275 $100 #
plane-surface $-1 -190.95117422061958 1.888038192462016 112.50841692498963 0 -1 0 0.74314483375859142 0 -0.66913059716165679 forward_v I I I I #
coedge $-1 $276 $277 $278 $279 reversed $101 $-1 #
coedge $-1 $167 $103 $280 $281 reversed $65 $-1 #
coedge $-1 $103 $166 $276 $282 reversed $65 $-1 #
coedge $-1 $278 $283 $103 $169 forward $273 $-1 #
edge $-1 $284 18.673926903394289 $285 23.1888033182654 $168 $286 forward 7 unknown #
loop $-1 $-1 $175 $104 #
plane-surface $-1 -76.801660206915486 -6.4655050427845211 9.7277354104695917 -0.74314483375859142 0 0.66913059716165679 0.66913059716165679 0 0.74314483375859142 forward_v I I I I #
loop $-1 $-1 $287 $67 #
coedge $-1 $173 $173 $174 $288 reversed $105 $-1 #
coedge $-1 $174 $174 $173 $288 forward $107 $-1 #
coedge $-1 $175 $175 $108 $176 forward $170 $-1 #
edge $-1 $289 0 $289 6.2831853071796004 $175 $290 forward 7 unknown #
loop $-1 $-1 $182 $109 #
plane-surface $-1 -76.801660206915486 -6.4655050427845211 9.7277354104695917 -0.74314483375859142 0 0.66913059716165679 0.66913059716165679 0 0.74314483375859142 forward_v I I I I #
loop $-1 $-1 $291 $70 #
coedge $-1 $180 $180 $181 $292 reversed $110 $-1 #
coedge $-1 $181 $181 $180 $292 forward $112 $-1 #
coedge $-1 $182 $182 $113 $183 forward $177 $-1 #
edge $-1 $293 0 $293 6.2831853071796004 $182 $294 forward 7 unknown #
loop $-1 $-1 $189 $114 #
plane-surface $-1 -76.801660206915486 -6.4655050427845211 9.7277354104695917 -0.74314483375859142 0 0.66913059716165679 0.66913059716165679 0 0.74314483375859142 forward_v I I I I #
loop $-1 $-1 $295 $73 #
coedge $-1 $187 $187 $188 $296 reversed $115 $-1 #
coedge $-1 $188 $188 $187 $296 forward $117 $-1 #
coedge $-1 $189 $189 $118 $190 forward $184 $-1 #
edge $-1 $297 0 $297 6.2831853071796004 $189 $298 forward 7 unknown #
face $-1 $299 $300 $40 $-1 $301 reversed single #
loop $-1 $-1 $302 $119 #
plane-surface $-1 121.96588309413329 26.777991564759517 222.38427381365989 0 1 0 0.83867057594974714 0 0.54463902268945019 forward_v I I I I #
coedge $-1 $303 $304 $305 $306 reversed $120 $-1 #
coedge $-1 $196 $122 $307 $308 reversed $77 $-1 #
coedge $-1 $122 $195 $303 $309 reversed $77 $-1 #
coedge $-1 $305 $310 $122 $198 forward $311 $-1 #
edge $-1 $312 -15.818718659848855 $313 -12.676438368916905 $197 $314 forward 7 unknown #
loop $-1 $-1 $204 $123 #
plane-surface $-1 -6.8567021051279085 31.114944259197436 138.72591150161651 0.83867057594974714 0 0.54463902268945019 0.54463902268945019 0 -0.83867057594974714 forward_v I I I I #
loop $-1 $-1 $315 $79 #
coedge $-1 $202 $202 $203 $316 reversed $124 $-1 #
coedge $-1 $203 $203 $202 $316 forward $126 $-1 #
coedge $-1 $204 $204 $127 $205 forward $199 $-1 #
edge $-1 $317 0 $317 6.2831853071796004 $204 $318 forward 7 unknown #
loop $-1 $-1 $211 $128 #
plane-surface $-1 -6.8567021051279085 31.114944259197436 138.72591150161651 0.83867057594974714 0 0.54463902268945019 0.54463902268945019 0 -0.83867057594974714 forward_v I I I I #
loop $-1 $-1 $319 $82 #
coedge $-1 $209 $209 $210 $320 reversed $129 $-1 #
coedge $-1 $210 $210 $209 $320 forward $131 $-1 #
coedge $-1 $211 $211 $132 $212 forward $206 $-1 #
edge $-1 $321 0 $321 6.2831853071796004 $211 $322 forward 7 unknown #
loop $-1 $-1 $218 $133 #
plane-surface $-1 -6.8567021051279085 31.114944259197436 138.72591150161651 0.83867057594974714 0 0.54463902268945019 0.54463902268945019 0 -0.83867057594974714 forward_v I I I I #
loop $-1 $-1 $323 $85 #
coedge $-1 $216 $216 $217 $324 reversed $134 $-1 #
coedge $-1 $217 $217 $216 $324 forward $136 $-1 #
coedge $-1 $218 $218 $137 $219 forward $213 $-1 #
edge $-1 $325 0 $325 6.2831853071796004 $218 $326 forward 7 unknown #
face $-1 $327 $328 $33 $-1 $329 reversed single #
loop $-1 $-1 $330 $138 #
plane-surface $-1 -76.8016602069155 0 0 1 0 0 0 0 -1 forward_v I I I I #
coedge $-1 $331 $231 $332 $333 forward $139 $-1 #
coedge $-1 $334 $141 $331 $335 forward $89 $-1 #
coedge $-1 $141 $334 $336 $337 forward $89 $-1 #
coedge $-1 $234 $233 $141 $227 reversed $235 $-1 #
edge $-1 $338 -49.154046958747735 $339 49.154046958747735 $226 $340 forward 7 unknown #
coedge $-1 $143 $142 $341 $342 forward $56 $-1 #
coedge $-1 $343 $344 $142 $230 reversed $328 $-1 #
edge $-1 $237 -76.8016602069155 $345 76.8016602069155 $229 $346 forward 7 unknown #
coedge $-1 $223 $347 $143 $232 reversed $139 $-1 #
edge $-1 $348 -76.8016602069155 $236 76.8016602069155 $231 $349 forward 7 unknown #
coedge $-1 $226 $144 $347 $350 forward $235 $-1 #
coedge $-1 $144 $226 $343 $351 reversed $235 $-1 #
loop $-1 $-1 $233 $327 #
vertex $-1 $145 $352 #
vertex $-1 $145 $353 #
straight-curve $-1 76.8016602069155 0 14.742013784530219 0 1 0 I I #
face $-1 $354 $355 $34 $-1 $356 reversed single #
loop $-1 $-1 $357 $146 #
plane-surface $-1 -76.8016602069155 0 0 1 0 0 0 0 -1 forward_v I I I I #
coedge $-1 $250 $358 $244 $359 forward $147 $-1 #
coedge $-1 $152 $149 $360 $361 reversed $93 $-1 #
coedge $-1 $149 $152 $242 $359 reversed $93 $-1 #
coedge $-1 $362 $363 $149 $246 forward $364 $-1 #
edge $-1 $365 -14.742013784530219 $366 14.742013784530219 $245 $367 forward 7 unknown #
coedge $-1 $151 $150 $357 $368 reversed $59 $-1 #
coedge $-1 $360 $369 $150 $249 forward $355 $-1 #
edge $-1 $370 -39.399910059224744 $253 -35.403590236156766 $248 $371 forward 7 unknown #
coedge $-1 $372 $242 $151 $251 forward $147 $-1 #
edge $-1 $252 35.403590236156766 $373 39.399910059224744 $250 $374 forward 7 unknown #
vertex $-1 $251 $375 #
vertex $-1 $249 $376 #
straight-curve $-1 -72.805340383847522 -35.451896953635362 0 0 0 -1 I I #
face $-1 $377 $378 $35 $-1 $379 forward single #
loop $-1 $-1 $160 $154 #
plane-surface $-1 -76.8016602069155 0 0 1 0 0 0 0 -1 forward_v I I I I #
coedge $-1 $263 $380 $259 $381 forward $155 $-1 #
coedge $-1 $382 $157 $258 $381 reversed $97 $-1 #
coedge $-1 $157 $382 $383 $384 reversed $97 $-1 #
coedge $-1 $159 $158 $157 $262 reversed $62 $-1 #
edge $-1 $385 -14.742013784530219 $386 14.742013784530219 $157 $387 forward 7 unknown #
coedge $-1 $388 $258 $158 $264 forward $155 $-1 #
edge $-1 $386 35.403590236156766 $269 39.399910059224744 $263 $389 forward 7 unknown #
coedge $-1 $383 $390 $159 $266 forward $378 $-1 #
edge $-1 $270 -39.399910059224744 $385 -35.403590236156766 $265 $391 forward 7 unknown #
coedge $-1 $392 $160 $390 $393 reversed $256 $-1 #
coedge $-1 $160 $392 $388 $394 reversed $256 $-1 #
vertex $-1 $394 $395 #
vertex $-1 $161 $396 #
straight-curve $-1 -76.8016602069155 35.451896953635362 0 0 0 1 I I #
face $-1 $-1 $397 $36 $-1 $398 reversed single #
loop $-1 $-1 $168 $162 #
plane-surface $-1 0 0 14.742013784530219 0 0 1 1 0 0 forward_v I I I I #
coedge $-1 $399 $400 $401 $402 reversed $163 $-1 #
coedge $-1 $403 $165 $167 $282 forward $101 $-1 #
coedge $-1 $165 $403 $399 $404 forward $101 $-1 #
coedge $-1 $401 $168 $165 $279 forward $273 $-1 #
edge $-1 $285 -11.586295756638798 $405 5.1207907138542765 $278 $406 forward 7 unknown #
coedge $-1 $407 $408 $166 $281 forward $397 $-1 #
edge $-1 $409 -46.526473052025239 $284 -41.512194677964601 $280 $410 forward 7 unknown #
edge $-1 $285 -6.747377020304361 $409 2.1389731374768986e-014 $167 $411 forward 7 unknown #
coedge $-1 $168 $401 $407 $412 forward $273 $-1 #
vertex $-1 $169 $413 #
vertex $-1 $169 $414 #
straight-curve $-1 -95.475587110309789 -14.819048278031058 14.742013784530222 1 0 0 I I #
coedge $-1 $287 $287 $-1 $415 reversed $172 $-1 #
edge $-1 $416 0 $416 6.2831853071796004 $173 $417 forward 7 unknown #
vertex $-1 $176 $418 #
ellipse-curve $-1 -74.544221999479944 -11.477630983932443 12.2348745974999 -0.74314483375859142 0 0.66913059716165679 0.66913059716165679 0 0.74314483375859142 1 I I #
coedge $-1 $291 $291 $-1 $419 reversed $179 $-1 #
edge $-1 $420 0 $420 6.2831853071796004 $180 $421 forward 7 unknown #
vertex $-1 $183 $422 #
ellipse-curve $-1 -74.544221999479944 -6.4655050427845211 12.2348745974999 -0.74314483375859142 0 0.66913059716165679 0.66913059716165679 0 0.74314483375859142 1 I I #
coedge $-1 $295 $295 $-1 $423 reversed $186 $-1 #
edge $-1 $424 0 $424 6.2831853071796004 $187 $425 forward 7 unknown #
vertex $-1 $190 $426 #
ellipse-curve $-1 -74.544221999479944 -1.4533791016365996 12.2348745974999 -0.74314483375859142 0 0.66913059716165679 0.66913059716165679 0 0.74314483375859142 1 I I #
face $-1 $-1 $311 $40 $-1 $427 forward single #
loop $-1 $-1 $428 $191 #
plane-surface $-1 76.8016602069155 0 0 -1 0 0 0 0 1 forward_v I I I I #
coedge $-1 $429 $430 $431 $432 reversed $192 $-1 #
coedge $-1 $433 $194 $196 $309 forward $120 $-1 #
coedge $-1 $194 $433 $429 $434 forward $120 $-1 #
coedge $-1 $431 $197 $194 $306 forward $311 $-1 #
edge $-1 $313 -19.894424824036637 $435 -11.220519435160799 $305 $436 forward 7 unknown #
coedge $-1 $437 $438 $195 $308 forward $300 $-1 #
edge $-1 $439 -101.28881060447466 $312 -96.450123122299729 $307 $440 forward 7 unknown #
edge $-1 $313 147.83384712964505 $439 153.60332041383103 $196 $441 forward 7 unknown #
coedge $-1 $197 $431 $437 $442 forward $311 $-1 #
loop $-1 $-1 $431 $299 #
vertex $-1 $308 $443 #
vertex $-1 $198 $444 #
straight-curve $-1 60.982941547066645 35.451896953635355 14.742013784530215 -1 0 0 I I #
coedge $-1 $315 $315 $-1 $445 reversed $201 $-1 #
edge $-1 $446 0 $446 6.2831853071796004 $202 $447 forward 7 unknown #
vertex $-1 $205 $448 #
ellipse-curve $-1 75.230520061449511 28.512772642534692 12.322670043442773 0.83867057594974714 0 0.54463902268945019 0.2723195113447251 0 -0.41933528797487357 1 I I #
coedge $-1 $319 $319 $-1 $449 reversed $208 $-1 #
edge $-1 $450 0 $450 6.2831853071796004 $209 $451 forward 7 unknown #
vertex $-1 $212 $452 #
ellipse-curve $-1 75.230520061449511 31.114944259197451 12.322670043442773 0.83867057594974714 0 0.54463902268945019 0.2723195113447251 0 -0.41933528797487357 1 I I #
coedge $-1 $323 $323 $-1 $453 reversed $215 $-1 #
edge $-1 $454 0 $454 6.2831853071796004 $216 $455 forward 7 unknown #
vertex $-1 $219 $456 #
ellipse-curve $-1 75.230520061449511 33.717115875860209 12.322670043442773 0.83867057594974714 0 0.54463902268945019 0.2723195113447251 0 -0.41933528797487357 1 I I #
face $-1 $-1 $235 $33 $-1 $457 reversed single #
loop $-1 $-1 $343 $220 #
plane-surface $-1 0 49.154046958747735 0 0 -1 0 0 0 -1 forward_v I I I I #
coedge $-1 $458 $341 $344 $459 forward $221 $-1 #
coedge $-1 $347 $223 $224 $335 reversed $139 $-1 #
coedge $-1 $341 $458 $223 $333 reversed $221 $-1 #
edge $-1 $348 -14.742013784530219 $460 14.742013784530219 $332 $461 forward 7 unknown #
coedge $-1 $225 $224 $458 $462 forward $89 $-1 #
edge $-1 $339 -76.8016602069155 $460 76.8016602069155 $331 $463 forward 7 unknown #
coedge $-1 $344 $343 $225 $337 reversed $328 $-1 #
edge $-1 $464 -76.8016602069155 $338 76.8016602069155 $336 $465 forward 7 unknown #
vertex $-1 $227 $466 #
vertex $-1 $350 $467 #
straight-curve $-1 76.8016602069155 0 -14.742013784530219 0 -1 0 I I #
coedge $-1 $330 $332 $228 $342 reversed $221 $-1 #
edge $-1 $345 -49.154046958747735 $348 49.154046958747735 $341 $468 forward 7 unknown #
coedge $-1 $336 $229 $234 $351 forward $328 $-1 #
coedge $-1 $229 $336 $330 $459 reversed $328 $-1 #
vertex $-1 $230 $469 #
straight-curve $-1 0 49.154046958747735 14.742013784530219 -1 0 0 I I #
coedge $-1 $231 $331 $233 $350 reversed $139 $-1 #
vertex $-1 $342 $470 #
straight-curve $-1 0 -49.154046958747735 14.742013784530219 1 0 0 I I #
edge $-1 $236 -14.742013784530219 $339 14.742013784530219 $233 $471 forward 7 unknown #
edge $-1 $237 -14.742013784530219 $338 14.742013784530219 $234 $472 forward 7 unknown #
point $-1 76.8016602069155 -49.154046958747735 14.742013784530219 #
point $-1 76.8016602069155 49.154046958747735 14.742013784530219 #
face $-1 $-1 $364 $34 $-1 $473 reversed single #
loop $-1 $-1 $360 $239 #
plane-surface $-1 0 0 -14.742013784530219 0 0 1 1 0 0 forward_v I I I I #
coedge $-1 $474 $475 $247 $368 forward $240 $-1 #
coedge $-1 $242 $372 $362 $476 forward $147 $-1 #
edge $-1 $366 -28.00256098065196 $252 -14.300410975539588 $242 $477 forward 7 unknown #
coedge $-1 $478 $248 $243 $361 forward $355 $-1 #
edge $-1 $253 14.300410975539588 $365 28.00256098065196 $360 $479 forward 7 unknown #
coedge $-1 $480 $245 $358 $476 reversed $364 $-1 #
coedge $-1 $245 $480 $478 $481 reversed $364 $-1 #
loop $-1 $-1 $245 $354 #
vertex $-1 $481 $482 #
vertex $-1 $246 $483 #
straight-curve $-1 -72.805340383847522 -49.154046958747735 0 0 0 1 I I #
edge $-1 $373 -14.742013784530219 $370 14.742013784530219 $357 $484 forward 7 unknown #
coedge $-1 $248 $478 $474 $485 forward $355 $-1 #
vertex $-1 $249 $486 #
straight-curve $-1 -37.401750147690755 -35.451896953635362 -14.742013784530219 1 0 0 I I #
coedge $-1 $358 $250 $475 $487 forward $147 $-1 #
vertex $-1 $487 $488 #
straight-curve $-1 -37.401750147690755 -35.451896953635362 14.742013784530219 -1 0 0 I I #
point $-1 -72.805340383847522 -35.451896953635362 14.742013784530219 #
point $-1 -72.805340383847522 -35.451896953635362 -14.742013784530219 #
face $-1 $-1 $489 $35 $-1 $490 reversed single #
loop $-1 $-1 $383 $255 #
plane-surface $-1 0 0 14.742013784530219 0 0 1 1 0 0 forward_v I I I I #
coedge $-1 $258 $388 $491 $492 forward $155 $-1 #
edge $-1 $493 -28.00256098065196 $386 -14.300410975539588 $258 $494 forward 7 unknown #
coedge $-1 $260 $259 $495 $496 reversed $97 $-1 #
coedge $-1 $497 $265 $260 $384 forward $378 $-1 #
edge $-1 $385 14.300410975539588 $498 28.00256098065196 $383 $499 forward 7 unknown #
vertex $-1 $266 $500 #
vertex $-1 $264 $501 #
straight-curve $-1 -72.805340383847522 35.451896953635362 0 0 0 -1 I I #
coedge $-1 $380 $263 $268 $394 forward $155 $-1 #
straight-curve $-1 -37.401750147690755 35.451896953635362 -14.742013784530219 -1 0 0 I I #
coedge $-1 $265 $497 $267 $393 forward $378 $-1 #
straight-curve $-1 -37.401750147690755 35.451896953635362 14.742013784530219 1 0 0 I I #
coedge $-1 $268 $267 $502 $503 forward $256 $-1 #
edge $-1 $504 -49.154046958747735 $270 -35.451896953635362 $267 $505 forward 7 unknown #
edge $-1 $269 35.451896953635362 $506 49.154046958747735 $268 $507 forward 7 unknown #
point $-1 -76.8016602069155 35.451896953635362 -14.742013784530219 #
point $-1 -76.8016602069155 35.451896953635362 14.742013784530219 #
loop $-1 $-1 $280 $272 #
plane-surface $-1 -76.8016602069155 0 0 1 0 0 0 0 -1 forward_v I I I I #
coedge $-1 $400 $275 $277 $404 reversed $163 $-1 #
coedge $-1 $275 $399 $508 $509 reversed $163 $-1 #
coedge $-1 $283 $278 $275 $402 forward $273 $-1 #
edge $-1 $405 -23.1888033182654 $510 -18.673926903394289 $401 $511 forward 7 unknown #
coedge $-1 $277 $276 $408 $512 reversed $101 $-1 #
edge $-1 $513 -2.1389731374768986e-014 $405 6.747377020304361 $399 $514 forward 7 unknown #
vertex $-1 $279 $515 #
straight-curve $-1 -72.286783792044375 -3.2327525213922605 14.742013784530219 0 1 0 I I #
coedge $-1 $508 $280 $283 $412 reversed $397 $-1 #
coedge $-1 $280 $508 $403 $512 forward $397 $-1 #
vertex $-1 $281 $516 #
straight-curve $-1 -76.8016602069155 -14.819048278031058 56.254208462494816 0 0 1 I I #
straight-curve $-1 -76.801660206915486 -14.819048278031058 9.7277354104695917 -0.66913059716165679 0 -0.74314483375859142 I I #
edge $-1 $510 -1.888038192462016 $284 14.819048278031058 $407 $517 forward 7 unknown #
point $-1 -76.8016602069155 -14.819048278031058 14.742013784530219 #
point $-1 -72.286783792044389 -14.819048278031058 14.742013784530219 #
edge $-1 $518 1 $518 0 $287 $-1 forward 7 unknown #
vertex $-1 $288 $519 #
ellipse-curve $-1 -72.301701327084487 -11.477630983932443 10.215699964907659 -0.74314483375859142 0 0.66913059716165679 0.66913059716165679 0 0.74314483375859142 1 I I #
point $-1 -73.87509140231829 -11.477630983932443 12.978019431258501 #
edge $-1 $520 1 $520 0 $291 $-1 forward 7 unknown #
vertex $-1 $292 $521 #
ellipse-curve $-1 -72.301701327084487 -6.4655050427845211 10.215699964907659 -0.74314483375859142 0 0.66913059716165679 0.66913059716165679 0 0.74314483375859142 1 I I #
point $-1 -73.87509140231829 -6.4655050427845211 12.978019431258501 #
edge $-1 $522 1 $522 0 $295 $-1 forward 7 unknown #
vertex $-1 $296 $523 #
ellipse-curve $-1 -72.301701327084487 -1.4533791016365996 10.215699964907659 -0.74314483375859142 0 0.66913059716165679 0.66913059716165679 0 0.74314483375859142 1 I I #
point $-1 -73.87509140231829 -1.4533791016365996 12.978019431258501 #
plane-surface $-1 0 0 14.742013784530219 0 0 1 1 0 0 forward_v I I I I #
coedge $-1 $438 $437 $430 $524 forward $300 $-1 #
coedge $-1 $430 $302 $304 $434 reversed $192 $-1 #
coedge $-1 $302 $429 $428 $524 reversed $192 $-1 #
coedge $-1 $310 $305 $302 $432 forward $311 $-1 #
edge $-1 $435 12.676438368916905 $525 15.818718659848855 $431 $526 forward 7 unknown #
coedge $-1 $304 $303 $438 $527 reversed $120 $-1 #
edge $-1 $528 -153.60332041383103 $435 -147.83384712964505 $429 $529 forward 7 unknown #
vertex $-1 $306 $530 #
straight-curve $-1 73.659379915983564 15.557472129598718 14.742013784530215 0 -1 0 I I #
coedge $-1 $428 $307 $310 $442 reversed $300 $-1 #
coedge $-1 $307 $428 $433 $527 forward $300 $-1 #
vertex $-1 $308 $531 #
straight-curve $-1 76.8016602069155 35.451896953635355 111.19213690682994 0 0 1 I I #
straight-curve $-1 -6.8567021051279085 35.451896953635355 138.72591150161651 0.54463902268945019 0 -0.83867057594974714 I I #
edge $-1 $525 26.777991564759517 $312 35.451896953635355 $437 $532 forward 7 unknown #
point $-1 76.8016602069155 35.451896953635355 14.742013784530219 #
point $-1 73.65937991598355 35.451896953635355 14.742013784530215 #
edge $-1 $533 1 $533 0 $315 $-1 forward 7 unknown #
vertex $-1 $316 $534 #
ellipse-curve $-1 74.248351253007868 28.512772642534692 11.684842181960995 0.83867057594974714 0 0.54463902268945019 0.2723195113447251 0 -0.41933528797487357 1 I I #
point $-1 75.502839572794244 28.512772642534692 11.903334755467904 #
edge $-1 $535 1 $535 0 $319 $-1 forward 7 unknown #
vertex $-1 $320 $536 #
ellipse-curve $-1 74.248351253007868 31.114944259197451 11.684842181960995 0.83867057594974714 0 0.54463902268945019 0.2723195113447251 0 -0.41933528797487357 1 I I #
point $-1 75.502839572794244 31.114944259197451 11.903334755467904 #
edge $-1 $537 1 $537 0 $323 $-1 forward 7 unknown #
vertex $-1 $324 $538 #
ellipse-curve $-1 74.248351253007868 33.717115875860209 11.684842181960995 0.83867057594974714 0 0.54463902268945019 0.2723195113447251 0 -0.41933528797487357 1 I I #
point $-1 75.502839572794244 33.717115875860209 11.903334755467904 #
plane-surface $-1 76.8016602069155 0 0 -1 0 0 0 0 1 forward_v I I I I #
coedge $-1 $332 $330 $334 $462 reversed $221 $-1 #
edge $-1 $345 -14.742013784530219 $464 14.742013784530219 $344 $539 forward 7 unknown #
vertex $-1 $462 $540 #
straight-curve $-1 -76.8016602069155 -49.154046958747735 0 0 0 -1 I I #
edge $-1 $460 -49.154046958747735 $464 49.154046958747735 $458 $541 forward 7 unknown #
straight-curve $-1 0 -49.154046958747735 -14.742013784530219 -1 0 0 I I #
vertex $-1 $337 $542 #
straight-curve $-1 0 49.154046958747735 -14.742013784530219 1 0 0 I I #
point $-1 76.8016602069155 49.154046958747735 -14.742013784530219 #
point $-1 76.8016602069155 -49.154046958747735 -14.742013784530219 #
straight-curve $-1 -76.8016602069155 0 14.742013784530219 0 -1 0 I I #
point $-1 -76.8016602069155 49.154046958747735 14.742013784530219 #
point $-1 -76.8016602069155 -49.154046958747735 14.742013784530219 #
straight-curve $-1 76.8016602069155 -49.154046958747735 0 0 0 -1 I I #
straight-curve $-1 76.8016602069155 49.154046958747735 0 0 0 -1 I I #
plane-surface $-1 0 -49.154046958747735 0 0 1 0 0 0 1 forward_v I I I I #
coedge $-1 $543 $357 $369 $485 reversed $240 $-1 #
coedge $-1 $357 $543 $372 $487 reversed $240 $-1 #
edge $-1 $544 -76.8016602069155 $366 -72.805340383847522 $362 $545 forward 7 unknown #
straight-curve $-1 -72.805340383847522 -21.151485978095774 14.742013784530219 0 1 0 I I #
coedge $-1 $369 $360 $363 $481 forward $355 $-1 #
straight-curve $-1 -72.805340383847522 -21.151485978095774 -14.742013784530219 0 -1 0 I I #
coedge $-1 $363 $362 $543 $546 forward $364 $-1 #
edge $-1 $365 72.805340383847522 $547 76.8016602069155 $363 $548 forward 7 unknown #
point $-1 -72.805340383847522 -49.154046958747735 -14.742013784530219 #
point $-1 -72.805340383847522 -49.154046958747735 14.742013784530219 #
straight-curve $-1 -76.8016602069155 -35.451896953635362 0 0 0 -1 I I #
edge $-1 $547 -49.154046958747735 $370 -35.451896953635362 $474 $549 forward 7 unknown #
point $-1 -76.8016602069155 -35.451896953635362 -14.742013784530219 #
edge $-1 $373 35.451896953635362 $544 49.154046958747735 $475 $550 forward 7 unknown #
point $-1 -76.8016602069155 -35.451896953635362 14.742013784530219 #
loop $-1 $-1 $495 $377 #
plane-surface $-1 0 49.154046958747735 0 0 -1 0 0 0 -1 forward_v I I I I #
coedge $-1 $502 $495 $380 $492 reversed $489 $-1 #
edge $-1 $506 -76.8016602069155 $493 -72.805340383847522 $491 $551 forward 7 unknown #
vertex $-1 $381 $552 #
straight-curve $-1 -72.805340383847522 21.151485978095774 -14.742013784530219 0 -1 0 I I #
coedge $-1 $491 $553 $382 $496 forward $489 $-1 #
edge $-1 $498 -14.742013784530219 $493 14.742013784530219 $495 $554 forward 7 unknown #
coedge $-1 $390 $383 $553 $555 forward $378 $-1 #
vertex $-1 $555 $556 #
straight-curve $-1 -72.805340383847522 21.151485978095774 14.742013784530219 0 1 0 I I #
point $-1 -72.805340383847522 35.451896953635362 14.742013784530219 #
point $-1 -72.805340383847522 35.451896953635362 -14.742013784530219 #
coedge $-1 $553 $491 $392 $503 reversed $489 $-1 #
edge $-1 $504 -14.742013784530219 $506 14.742013784530219 $502 $557 forward 7 unknown #
vertex $-1 $555 $558 #
straight-curve $-1 -76.8016602069155 0 14.742013784530219 0 -1 0 I I #
vertex $-1 $492 $559 #
straight-curve $-1 -76.8016602069155 0 -14.742013784530219 0 1 0 I I #
coedge $-1 $408 $407 $400 $509 forward $397 $-1 #
edge $-1 $510 41.512194677964601 $513 46.526473052025239 $508 $560 forward 7 unknown #
vertex $-1 $412 $561 #
straight-curve $-1 -95.475587110309789 1.888038192462016 14.742013784530222 -1 0 0 I I #
edge $-1 $513 -5.1207907138542765 $409 11.586295756638798 $408 $562 forward 7 unknown #
vertex $-1 $512 $563 #
straight-curve $-1 -76.801660206915486 1.888038192462016 9.7277354104695917 0.66913059716165679 0 0.74314483375859142 I I #
point $-1 -72.286783792044389 1.888038192462016 14.742013784530219 #
point $-1 -76.8016602069155 -14.819048278031058 9.7277354104695757 #
straight-curve $-1 -76.8016602069155 0 14.742013784530219 0 -1 0 I I #
vertex $-1 $415 $564 #
point $-1 -71.632570729922833 -11.477630983932443 10.958844798666249 #
vertex $-1 $419 $565 #
point $-1 -71.632570729922833 -6.4655050427845211 10.958844798666249 #
vertex $-1 $423 $566 #
point $-1 -71.632570729922833 -1.4533791016365996 10.958844798666249 #
edge $-1 $525 96.450123122299729 $528 101.28881060447466 $428 $567 forward 7 unknown #
vertex $-1 $442 $568 #
straight-curve $-1 60.982941547066645 26.777991564759517 14.742013784530215 1 0 0 I I #
edge $-1 $528 11.220519435160799 $439 19.894424824036637 $438 $569 forward 7 unknown #
vertex $-1 $527 $570 #
straight-curve $-1 -6.8567021051279085 26.777991564759517 138.72591150161651 -0.54463902268945019 0 0.83867057594974714 I I #
point $-1 73.65937991598355 26.777991564759517 14.742013784530215 #
point $-1 76.8016602069155 35.451896953635355 9.903326302355282 #
straight-curve $-1 76.8016602069155 0 14.742013784530219 0 1 0 I I #
vertex $-1 $445 $571 #
point $-1 74.520670764352602 28.512772642534692 11.265506893986121 #
vertex $-1 $449 $572 #
point $-1 74.520670764352602 31.114944259197451 11.265506893986121 #
vertex $-1 $453 $573 #
point $-1 74.520670764352602 33.717115875860209 11.265506893986121 #
straight-curve $-1 -76.8016602069155 49.154046958747735 0 0 0 -1 I I #
point $-1 -76.8016602069155 -49.154046958747735 -14.742013784530219 #
straight-curve $-1 -76.8016602069155 0 -14.742013784530219 0 1 0 I I #
point $-1 -76.8016602069155 49.154046958747735 -14.742013784530219 #
coedge $-1 $475 $474 $480 $546 reversed $240 $-1 #
vertex $-1 $487 $574 #
straight-curve $-1 0 -49.154046958747735 14.742013784530219 1 0 0 I I #
edge $-1 $544 -14.742013784530219 $547 14.742013784530219 $543 $575 forward 7 unknown #
vertex $-1 $485 $576 #
straight-curve $-1 0 -49.154046958747735 -14.742013784530219 -1 0 0 I I #
straight-curve $-1 -76.8016602069155 0 -14.742013784530219 0 1 0 I I #
straight-curve $-1 -76.8016602069155 0 14.742013784530219 0 -1 0 I I #
straight-curve $-1 0 49.154046958747735 -14.742013784530219 1 0 0 I I #
point $-1 -72.805340383847522 49.154046958747735 -14.742013784530219 #
coedge $-1 $495 $502 $497 $555 reversed $489 $-1 #
straight-curve $-1 -72.805340383847522 49.154046958747735 0 0 0 -1 I I #
edge $-1 $498 72.805340383847522 $504 76.8016602069155 $553 $577 forward 7 unknown #
point $-1 -72.805340383847522 49.154046958747735 14.742013784530219 #
straight-curve $-1 -76.8016602069155 49.154046958747735 0 0 0 -1 I I #
point $-1 -76.8016602069155 49.154046958747735 14.742013784530219 #
point $-1 -76.8016602069155 49.154046958747735 -14.742013784530219 #
straight-curve $-1 -76.8016602069155 1.888038192462016 56.254208462494816 0 0 -1 I I #
point $-1 -76.8016602069155 1.888038192462016 14.742013784530219 #
straight-curve $-1 -76.8016602069155 -3.2327525213922605 9.7277354104695775 0 -1 0 I I #
point $-1 -76.8016602069155 1.888038192462016 9.7277354104695757 #
point $-1 -71.558556493325909 -11.477630983932443 9.5465693677460006 #
point $-1 -71.558556493325909 -6.4655050427845211 9.5465693677460006 #
point $-1 -71.558556493325909 -1.4533791016365996 9.5465693677460006 #
straight-curve $-1 76.8016602069155 26.777991564759517 111.19213690682994 0 0 -1 I I #
point $-1 76.8016602069155 26.777991564759517 14.742013784530219 #
straight-curve $-1 76.8016602069155 15.557472129598718 9.9033263023552962 0 1 0 I I #
point $-1 76.8016602069155 26.777991564759517 9.903326302355282 #
point $-1 73.829015965033008 28.512772642534692 11.412522670616269 #
point $-1 73.829015965033008 31.114944259197451 11.412522670616269 #
point $-1 73.829015965033008 33.717115875860209 11.412522670616269 #
point $-1 -76.8016602069155 -49.154046958747735 14.742013784530219 #
straight-curve $-1 -76.8016602069155 -49.154046958747735 0 0 0 -1 I I #
point $-1 -76.8016602069155 -49.154046958747735 -14.742013784530219 #
straight-curve $-1 0 49.154046958747735 14.742013784530219 -1 0 0 I I #
End-of-ACIS-data 