500 0 9 0           
7 Unknown 11 ACIS 5.0 NT 24 Thu Mar 25 16:52:24 1999 
-1 9.9999999999999995e-007 1e-010 
body $-1 $9 $-1 $10 #
body $-1 $11 $-1 $12 #
body $-1 $13 $-1 $14 #
body $-1 $15 $-1 $16 #
body $-1 $17 $-1 $18 #
body $-1 $19 $-1 $20 #
body $-1 $21 $-1 $22 #
body $-1 $23 $-1 $24 #
body $-1 $25 $-1 $26 #
lump $-1 $-1 $27 $0 #
transform $-1 1 0 0 0 1 0 0 0 1 54.55000457777642 37.208606900696864 14.088102684188529 1 rotate no_reflect no_shear #
lump $-1 $-1 $28 $1 #
transform $-1 1 0 0 0 1 0 0 0 1 54.55000457777642 37.208606900696864 14.088102684188529 1 rotate no_reflect no_shear #
lump $-1 $-1 $29 $2 #
transform $-1 1 0 0 0 1 0 0 0 1 54.55000457777642 37.208606900696864 14.088102684188529 1 rotate no_reflect no_shear #
lump $-1 $-1 $30 $3 #
transform $-1 1 0 0 0 1 0 0 0 1 54.55000457777642 37.208606900696864 14.088102684188529 1 rotate no_reflect no_shear #
lump $-1 $-1 $31 $4 #
transform $-1 1 0 0 0 1 0 0 0 1 54.55000457777642 37.208606900696864 14.088102684188529 1 rotate no_reflect no_shear #
lump $-1 $-1 $32 $5 #
transform $-1 1 0 0 0 1 0 0 0 1 54.55000457777642 37.208606900696864 14.088102684188529 1 rotate no_reflect no_shear #
lump $-1 $-1 $33 $6 #
transform $-1 1 0 0 0 1 0 0 0 1 54.55000457777642 37.208606900696864 14.088102684188529 1 rotate no_reflect no_shear #
lump $-1 $-1 $34 $7 #
transform $-1 1 0 0 0 1 0 0 0 1 54.55000457777642 37.208606900696864 14.088102684188529 1 rotate no_reflect no_shear #
lump $-1 $-1 $35 $8 #
transform $-1 1 0 0 0 1 0 0 0 1 54.55000457777642 37.208606900696864 14.088102684188529 1 rotate no_reflect no_shear #
shell $-1 $-1 $-1 $36 $-1 $9 #
shell $-1 $-1 $-1 $37 $-1 $11 #
shell $-1 $-1 $-1 $38 $-1 $13 #
shell $-1 $-1 $-1 $39 $-1 $15 #
shell $-1 $-1 $-1 $40 $-1 $17 #
shell $-1 $-1 $-1 $41 $-1 $19 #
shell $-1 $-1 $-1 $42 $-1 $21 #
shell $-1 $-1 $-1 $43 $-1 $23 #
shell $-1 $-1 $-1 $44 $-1 $25 #
face $-1 $45 $46 $27 $-1 $47 forward single #
face $-1 $48 $49 $28 $-1 $50 reversed single #
face $-1 $51 $52 $29 $-1 $53 reversed single #
face $-1 $54 $55 $30 $-1 $56 forward single #
face $-1 $57 $58 $31 $-1 $59 forward single #
face $-1 $60 $61 $32 $-1 $62 forward single #
face $-1 $63 $64 $33 $-1 $65 reversed single #
face $-1 $66 $67 $34 $-1 $68 forward single #
face $-1 $69 $70 $35 $-1 $71 forward single #
face $-1 $72 $73 $27 $-1 $74 reversed single #
loop $-1 $-1 $75 $36 #
plane-surface $-1 0 0 14.088102684188529 0 0 1 1 0 0 forward_v I I I I #
face $-1 $76 $77 $28 $-1 $78 reversed single #
loop $-1 $-1 $79 $37 #
plane-surface $-1 -47.34207429592248 0 5.7105679449260531 0 0 1 1 0 0 forward_v I I I I #
face $-1 $80 $81 $29 $-1 $82 reversed single #
loop $-1 $-1 $83 $38 #
plane-surface $-1 -18.292958152333867 -120.7840635626103 77.324385097627598 -1 0 0 0 -0.7660444514056185 0.64278759981090561 forward_v I I I I #
face $-1 $84 $85 $30 $-1 $86 forward single #
loop $-1 $87 $88 $39 #
cone-surface $-1 -35.765906841721602 -31.931095678236812 8.6400549620984055 0 0.7660444514056185 -0.64278759981090561 2 0 0 1 I I 0 1 2 forward I I I I #
face $-1 $89 $90 $31 $-1 $91 forward single #
loop $-1 $92 $93 $40 #
cone-surface $-1 -29.2135510832012 -31.931095678236812 8.6400549620984055 0 0.7660444514056185 -0.64278759981090561 2 0 0 1 I I 0 1 2 forward I I I I #
face $-1 $94 $95 $32 $-1 $96 forward single #
loop $-1 $97 $98 $41 #
cone-surface $-1 -22.661195324680797 -31.931095678236812 8.6400549620984055 0 0.7660444514056185 -0.64278759981090561 2 0 0 1 I I 0 1 2 forward I I I I #
face $-1 $99 $100 $33 $-1 $101 reversed single #
loop $-1 $-1 $102 $42 #
plane-surface $-1 37.984107319492537 96.551445649957813 129.04255646438435 1 0 0 0 -0.87461971476443456 -0.48480960649040278 forward_v I I I I #
face $-1 $103 $104 $34 $-1 $105 forward single #
loop $-1 $106 $107 $43 #
cone-surface $-1 42.717220821859357 35.656816973596491 12.180145784039571 0 -0.87461971476443456 -0.48480960649040278 0.5 0 0 1 I I 0 1 0.5 forward I I I I #
face $-1 $108 $109 $35 $-1 $110 forward single #
loop $-1 $111 $112 $44 #
cone-surface $-1 49.8168910754096 35.656816973596491 12.180145784039571 0 -0.87461971476443456 -0.48480960649040278 0.5 0 0 1 I I 0 1 0.5 forward I I I I #
face $-1 $113 $114 $27 $-1 $115 reversed single #
loop $-1 $-1 $116 $45 #
plane-surface $-1 0 0 -14.088102684188529 0 0 1 1 0 0 forward_v I I I I #
coedge $-1 $117 $118 $119 $120 forward $46 $-1 #
face $-1 $121 $122 $28 $-1 $123 reversed single #
loop $-1 $-1 $124 $48 #
plane-surface $-1 -40.134144014068539 0 9.8993353145572893 -1 0 0 0 0 1 forward_v I I I I #
coedge $-1 $125 $126 $127 $128 forward $49 $-1 #
face $-1 $129 $130 $29 $-1 $131 forward single #
loop $-1 $-1 $132 $51 #
plane-surface $-1 -29.213551083201203 -37.208606900696864 7.1962520731819666 0 -0.7660444514056185 0.64278759981090561 1 0 0 forward_v I I I I #
coedge $-1 $133 $134 $135 $136 reversed $52 $-1 #
face $-1 $-1 $137 $30 $-1 $138 forward single #
loop $-1 $139 $140 $54 #
cone-surface $-1 -35.765906841721602 -28.77901458158113 5.9951449457006643 0 0.7660444514056185 -0.64278759981090561 1 0 0 1 I I -0.70710678118654746 0.70710678118654746 1 forward I I I I #
loop $-1 $-1 $141 $39 #
coedge $-1 $88 $88 $142 $143 reversed $55 $-1 #
face $-1 $-1 $144 $31 $-1 $145 forward single #
loop $-1 $146 $147 $57 #
cone-surface $-1 -29.2135510832012 -28.77901458158113 5.9951449457006643 0 0.7660444514056185 -0.64278759981090561 1 0 0 1 I I -0.70710678118654746 0.70710678118654746 1 forward I I I I #
loop $-1 $-1 $148 $40 #
coedge $-1 $93 $93 $149 $150 reversed $58 $-1 #
face $-1 $-1 $151 $32 $-1 $152 forward single #
loop $-1 $153 $154 $60 #
cone-surface $-1 -22.661195324680797 -28.77901458158113 5.9951449457006643 0 0.7660444514056185 -0.64278759981090561 1 0 0 1 I I -0.70710678118654746 0.70710678118654746 1 forward I I I I #
loop $-1 $-1 $155 $41 #
coedge $-1 $98 $98 $156 $157 reversed $61 $-1 #
face $-1 $158 $159 $33 $-1 $160 forward single #
loop $-1 $-1 $161 $63 #
plane-surface $-1 46.267055948634479 1.130426761530984 76.149823957581432 0 0.87461971476443456 0.48480960649040278 1 0 0 forward_v I I I I #
coedge $-1 $162 $163 $164 $165 reversed $64 $-1 #
face $-1 $-1 $166 $34 $-1 $167 forward single #
loop $-1 $168 $169 $66 #
cone-surface $-1 42.717220821859357 34.724775900105683 11.663506999841031 0 -0.87461971476443456 -0.48480960649040278 0.25 0 0 1 I I -0.70710678118654746 0.70710678118654746 0.25 forward I I I I #
loop $-1 $-1 $170 $43 #
coedge $-1 $107 $107 $171 $172 reversed $67 $-1 #
face $-1 $-1 $173 $35 $-1 $174 forward single #
loop $-1 $175 $176 $69 #
cone-surface $-1 49.8168910754096 34.724775900105683 11.663506999841031 0 -0.87461971476443456 -0.48480960649040278 0.25 0 0 1 I I -0.70710678118654746 0.70710678118654746 0.25 forward I I I I #
loop $-1 $-1 $177 $44 #
coedge $-1 $112 $112 $178 $179 reversed $70 $-1 #
face $-1 $180 $181 $27 $-1 $182 reversed single #
loop $-1 $-1 $183 $72 #
plane-surface $-1 0 -37.208606900696864 0 0 1 0 0 0 1 forward_v I I I I #
coedge $-1 $184 $185 $186 $187 forward $73 $-1 #
coedge $-1 $188 $75 $189 $190 forward $46 $-1 #
coedge $-1 $75 $188 $191 $192 forward $46 $-1 #
coedge $-1 $193 $194 $75 $120 reversed $195 $-1 #
edge $-1 $196 -37.208606900696864 $197 37.208606900696864 $119 $198 forward 7 unknown #
face $-1 $199 $200 $28 $-1 $201 reversed single #
loop $-1 $-1 $202 $76 #
plane-surface $-1 0 37.208606900696864 0 0 -1 0 0 0 -1 forward_v I I I I #
coedge $-1 $127 $203 $204 $205 reversed $77 $-1 #
coedge $-1 $206 $79 $207 $208 reversed $49 $-1 #
coedge $-1 $79 $206 $209 $210 reversed $49 $-1 #
coedge $-1 $211 $124 $79 $128 reversed $77 $-1 #
edge $-1 $212 -37.208606900696864 $213 37.208606900696864 $127 $214 forward 7 unknown #
face $-1 $215 $216 $29 $-1 $217 reversed single #
loop $-1 $-1 $218 $80 #
plane-surface $-1 -40.134144014068539 0 9.8993353145572893 -1 0 0 0 0 1 forward_v I I I I #
coedge $-1 $219 $220 $221 $222 reversed $81 $-1 #
coedge $-1 $134 $83 $223 $224 reversed $52 $-1 #
coedge $-1 $83 $133 $219 $225 reversed $52 $-1 #
coedge $-1 $221 $226 $83 $136 forward $227 $-1 #
edge $-1 $228 23.183424880608285 $229 28.966374035028256 $135 $230 forward 7 unknown #
loop $-1 $-1 $142 $84 #
plane-surface $-1 -29.213551083201203 -37.208606900696864 7.1962520731819666 0 -0.7660444514056185 0.64278759981090561 1 0 0 forward_v I I I I #
loop $-1 $-1 $231 $54 #
coedge $-1 $140 $140 $141 $232 reversed $85 $-1 #
coedge $-1 $141 $141 $140 $232 forward $87 $-1 #
coedge $-1 $142 $142 $88 $143 forward $137 $-1 #
edge $-1 $233 2.4248784760307189e-016 $233 6.2831853071796004 $142 $234 forward 7 unknown #
loop $-1 $-1 $149 $89 #
plane-surface $-1 -29.213551083201203 -37.208606900696864 7.1962520731819666 0 -0.7660444514056185 0.64278759981090561 1 0 0 forward_v I I I I #
loop $-1 $-1 $235 $57 #
coedge $-1 $147 $147 $148 $236 reversed $90 $-1 #
coedge $-1 $148 $148 $147 $236 forward $92 $-1 #
coedge $-1 $149 $149 $93 $150 forward $144 $-1 #
edge $-1 $237 2.4248784760307189e-016 $237 6.2831853071796004 $149 $238 forward 7 unknown #
loop $-1 $-1 $156 $94 #
plane-surface $-1 -29.213551083201203 -37.208606900696864 7.1962520731819666 0 -0.7660444514056185 0.64278759981090561 1 0 0 forward_v I I I I #
loop $-1 $-1 $239 $60 #
coedge $-1 $154 $154 $155 $240 reversed $95 $-1 #
coedge $-1 $155 $155 $154 $240 forward $97 $-1 #
coedge $-1 $156 $156 $98 $157 forward $151 $-1 #
edge $-1 $241 2.4248784760307189e-016 $241 6.2831853071796004 $156 $242 forward 7 unknown #
face $-1 $243 $244 $33 $-1 $245 reversed single #
loop $-1 $-1 $164 $99 #
plane-surface $-1 0 0 14.088102684188529 0 0 1 1 0 0 forward_v I I I I #
coedge $-1 $246 $247 $248 $249 reversed $100 $-1 #
coedge $-1 $163 $102 $250 $251 reversed $64 $-1 #
coedge $-1 $102 $162 $246 $252 reversed $64 $-1 #
coedge $-1 $248 $253 $102 $165 forward $159 $-1 #
edge $-1 $254 11.067115924282042 $255 12.743923488883389 $164 $256 forward 7 unknown #
loop $-1 $-1 $171 $103 #
plane-surface $-1 46.267055948634479 1.130426761530984 76.149823957581432 0 0.87461971476443456 0.48480960649040278 1 0 0 forward_v I I I I #
loop $-1 $-1 $257 $66 #
coedge $-1 $169 $169 $170 $258 reversed $104 $-1 #
coedge $-1 $170 $170 $169 $258 forward $106 $-1 #
coedge $-1 $171 $171 $107 $172 forward $166 $-1 #
edge $-1 $259 -3.7822854579771699e-015 $259 6.2831853071795969 $171 $260 forward 7 unknown #
loop $-1 $-1 $178 $108 #
plane-surface $-1 46.267055948634479 1.130426761530984 76.149823957581432 0 0.87461971476443456 0.48480960649040278 1 0 0 forward_v I I I I #
loop $-1 $-1 $261 $69 #
coedge $-1 $176 $176 $177 $262 reversed $109 $-1 #
coedge $-1 $177 $177 $176 $262 forward $111 $-1 #
coedge $-1 $178 $178 $112 $179 forward $173 $-1 #
edge $-1 $263 -3.7822854579771699e-015 $263 6.2831853071795969 $178 $264 forward 7 unknown #
face $-1 $265 $266 $27 $-1 $267 reversed single #
loop $-1 $-1 $268 $113 #
plane-surface $-1 -54.55000457777642 0 0 1 0 0 0 0 -1 forward_v I I I I #
coedge $-1 $269 $191 $270 $271 forward $114 $-1 #
coedge $-1 $272 $116 $269 $273 forward $73 $-1 #
coedge $-1 $116 $272 $274 $275 forward $73 $-1 #
coedge $-1 $194 $193 $116 $187 reversed $195 $-1 #
edge $-1 $276 -37.208606900696864 $277 37.208606900696864 $186 $278 forward 7 unknown #
coedge $-1 $118 $117 $279 $280 forward $46 $-1 #
coedge $-1 $281 $282 $117 $190 reversed $266 $-1 #
edge $-1 $197 -54.55000457777642 $283 54.55000457777642 $189 $284 forward 7 unknown #
coedge $-1 $183 $285 $118 $192 reversed $114 $-1 #
edge $-1 $286 -54.55000457777642 $196 54.55000457777642 $191 $287 forward 7 unknown #
coedge $-1 $186 $119 $285 $288 forward $195 $-1 #
coedge $-1 $119 $186 $281 $289 reversed $195 $-1 #
loop $-1 $-1 $193 $265 #
vertex $-1 $120 $290 #
vertex $-1 $120 $291 #
straight-curve $-1 54.55000457777642 0 14.088102684188529 0 1 0 I I #
face $-1 $292 $293 $28 $-1 $294 forward single #
loop $-1 $-1 $295 $121 #
plane-surface $-1 -54.55000457777642 0 0 1 0 0 0 0 -1 forward_v I I I I #
coedge $-1 $209 $296 $211 $297 forward $122 $-1 #
coedge $-1 $124 $211 $298 $299 reversed $77 $-1 #
coedge $-1 $300 $207 $124 $205 forward $301 $-1 #
edge $-1 $213 0.76090028764740847 $302 9.1384350269098817 $204 $303 forward 7 unknown #
coedge $-1 $126 $125 $295 $304 reversed $49 $-1 #
coedge $-1 $204 $305 $125 $208 forward $301 $-1 #
edge $-1 $306 -30.87896742981518 $213 -16.463106866107299 $207 $307 forward 7 unknown #
coedge $-1 $308 $202 $126 $210 forward $122 $-1 #
edge $-1 $212 16.463106866107299 $309 30.87896742981518 $209 $310 forward 7 unknown #
coedge $-1 $203 $127 $202 $297 reversed $77 $-1 #
vertex $-1 $210 $311 #
vertex $-1 $208 $312 #
straight-curve $-1 -40.134144014068539 0 5.7105679449260531 0 -1 0 I I #
face $-1 $-1 $227 $29 $-1 $313 forward single #
loop $-1 $-1 $314 $129 #
plane-surface $-1 0 -37.208606900696864 0 0 1 0 0 0 1 forward_v I I I I #
coedge $-1 $315 $316 $220 $317 forward $130 $-1 #
coedge $-1 $318 $132 $134 $225 forward $81 $-1 #
coedge $-1 $132 $318 $218 $317 reversed $81 $-1 #
coedge $-1 $319 $135 $132 $222 forward $227 $-1 #
edge $-1 $229 3.6861826107332654 $320 25.527368472467938 $221 $321 forward 7 unknown #
coedge $-1 $322 $314 $133 $224 forward $216 $-1 #
edge $-1 $323 -31.465940475631832 $228 -24.574089864625272 $223 $324 forward 7 unknown #
edge $-1 $229 -8.99667192727612 $323 0 $134 $325 forward 7 unknown #
coedge $-1 $135 $319 $322 $326 forward $227 $-1 #
loop $-1 $-1 $221 $215 #
vertex $-1 $224 $327 #
vertex $-1 $136 $328 #
straight-curve $-1 -18.292958152333867 -60.39203178130515 14.088102684188527 0 1 0 I I #
coedge $-1 $231 $231 $-1 $329 reversed $139 $-1 #
edge $-1 $330 0 $330 6.2831853071796004 $140 $331 forward 7 unknown #
vertex $-1 $143 $332 #
ellipse-curve $-1 -35.765906841721602 -34.317132323486881 10.642177378685245 0 -0.7660444514056185 0.64278759981090561 2 0 0 1 I I #
coedge $-1 $235 $235 $-1 $333 reversed $146 $-1 #
edge $-1 $334 0 $334 6.2831853071796004 $147 $335 forward 7 unknown #
vertex $-1 $150 $336 #
ellipse-curve $-1 -29.2135510832012 -34.317132323486881 10.642177378685245 0 -0.7660444514056185 0.64278759981090561 2 0 0 1 I I #
coedge $-1 $239 $239 $-1 $337 reversed $153 $-1 #
edge $-1 $338 0 $338 6.2831853071796004 $154 $339 forward 7 unknown #
vertex $-1 $157 $340 #
ellipse-curve $-1 -22.661195324680797 -34.317132323486881 10.642177378685245 0 -0.7660444514056185 0.64278759981090561 2 0 0 1 I I #
face $-1 $-1 $341 $33 $-1 $342 reversed single #
loop $-1 $-1 $343 $158 #
plane-surface $-1 54.55000457777642 0 0 -1 0 0 0 0 1 forward_v I I I I #
coedge $-1 $344 $161 $163 $252 forward $100 $-1 #
coedge $-1 $161 $344 $343 $345 reversed $100 $-1 #
coedge $-1 $346 $164 $161 $249 forward $159 $-1 #
edge $-1 $255 14.850579345175298 $347 31.416476603459181 $248 $348 forward 7 unknown #
coedge $-1 $349 $350 $162 $251 forward $341 $-1 #
edge $-1 $351 -53.458216583149692 $254 -50.433175548003646 $250 $352 forward 7 unknown #
edge $-1 $255 70.958520858529099 $351 74.417213801393757 $163 $353 forward 7 unknown #
coedge $-1 $164 $346 $349 $354 forward $159 $-1 #
vertex $-1 $251 $355 #
vertex $-1 $165 $356 #
straight-curve $-1 37.984107319492537 48.275722824978907 14.088102684188527 0 -1 0 I I #
coedge $-1 $257 $257 $-1 $357 reversed $168 $-1 #
edge $-1 $358 0 $358 6.2831853071796004 $169 $359 forward 7 unknown #
vertex $-1 $172 $360 #
ellipse-curve $-1 42.717220821859357 36.370203118396191 12.57558216661551 0 0.87461971476443456 0.48480960649040278 0.5 0 0 1 I I #
coedge $-1 $261 $261 $-1 $361 reversed $175 $-1 #
edge $-1 $362 0 $362 6.2831853071796004 $176 $363 forward 7 unknown #
vertex $-1 $179 $364 #
ellipse-curve $-1 49.8168910754096 36.370203118396191 12.57558216661551 0 0.87461971476443456 0.48480960649040278 0.5 0 0 1 I I #
face $-1 $-1 $195 $27 $-1 $365 reversed single #
loop $-1 $-1 $281 $180 #
plane-surface $-1 0 37.208606900696864 0 0 -1 0 0 0 -1 forward_v I I I I #
coedge $-1 $366 $279 $282 $367 forward $181 $-1 #
coedge $-1 $285 $183 $184 $273 reversed $114 $-1 #
coedge $-1 $279 $366 $183 $271 reversed $181 $-1 #
edge $-1 $286 -14.088102684188529 $368 14.088102684188529 $270 $369 forward 7 unknown #
coedge $-1 $185 $184 $366 $370 forward $73 $-1 #
edge $-1 $277 -54.55000457777642 $368 54.55000457777642 $269 $371 forward 7 unknown #
coedge $-1 $282 $281 $185 $275 reversed $266 $-1 #
edge $-1 $372 -54.55000457777642 $276 54.55000457777642 $274 $373 forward 7 unknown #
vertex $-1 $187 $374 #
vertex $-1 $288 $375 #
straight-curve $-1 54.55000457777642 0 -14.088102684188529 0 -1 0 I I #
coedge $-1 $268 $270 $188 $280 reversed $181 $-1 #
edge $-1 $283 -37.208606900696864 $286 37.208606900696864 $279 $376 forward 7 unknown #
coedge $-1 $274 $189 $194 $289 forward $266 $-1 #
coedge $-1 $189 $274 $268 $367 reversed $266 $-1 #
vertex $-1 $190 $377 #
straight-curve $-1 0 37.208606900696864 14.088102684188529 -1 0 0 I I #
coedge $-1 $191 $269 $193 $288 reversed $114 $-1 #
vertex $-1 $280 $378 #
straight-curve $-1 0 -37.208606900696864 14.088102684188529 1 0 0 I I #
edge $-1 $196 -14.088102684188529 $277 14.088102684188529 $193 $379 forward 7 unknown #
edge $-1 $197 -14.088102684188529 $276 14.088102684188529 $194 $380 forward 7 unknown #
point $-1 54.55000457777642 -37.208606900696864 14.088102684188529 #
point $-1 54.55000457777642 37.208606900696864 14.088102684188529 #
face $-1 $-1 $301 $28 $-1 $381 reversed single #
loop $-1 $-1 $298 $199 #
plane-surface $-1 0 0 14.088102684188529 0 0 1 1 0 0 forward_v I I I I #
coedge $-1 $382 $383 $206 $304 forward $200 $-1 #
coedge $-1 $202 $308 $384 $385 reversed $122 $-1 #
edge $-1 $386 -9.1384350269098817 $212 -0.76090028764740847 $202 $387 forward 7 unknown #
coedge $-1 $384 $388 $203 $299 forward $293 $-1 #
edge $-1 $302 -37.208606900696864 $386 37.208606900696864 $298 $389 forward 7 unknown #
coedge $-1 $305 $204 $388 $390 reversed $301 $-1 #
loop $-1 $-1 $204 $292 #
vertex $-1 $205 $391 #
straight-curve $-1 -40.134144014068539 -37.208606900696864 4.9496676572786447 0 0 1 I I #
edge $-1 $309 -37.208606900696864 $306 37.208606900696864 $295 $392 forward 7 unknown #
coedge $-1 $207 $300 $382 $393 forward $301 $-1 #
vertex $-1 $304 $394 #
straight-curve $-1 -23.67103714796124 -37.208606900696864 5.7105679449260531 1 0 0 I I #
coedge $-1 $296 $209 $383 $395 reversed $122 $-1 #
vertex $-1 $304 $396 #
straight-curve $-1 -23.67103714796124 37.208606900696864 5.7105679449260531 -1 0 0 I I #
point $-1 -40.134144014068539 37.208606900696864 5.7105679449260531 #
point $-1 -40.134144014068539 -37.208606900696864 5.7105679449260531 #
plane-surface $-1 0 0 14.088102684188529 0 0 1 1 0 0 forward_v I I I I #
coedge $-1 $223 $397 $318 $398 forward $216 $-1 #
coedge $-1 $316 $218 $397 $399 reversed $130 $-1 #
coedge $-1 $218 $315 $319 $400 reversed $130 $-1 #
edge $-1 $320 3.9972845930986409 $401 12.993956520374759 $218 $402 forward 7 unknown #
coedge $-1 $220 $219 $314 $398 reversed $81 $-1 #
coedge $-1 $226 $221 $316 $400 forward $227 $-1 #
vertex $-1 $400 $403 #
straight-curve $-1 -14.606775541600602 -31.425657746276894 14.088102684188529 -1 0 0 I I #
coedge $-1 $397 $223 $226 $326 reversed $216 $-1 #
vertex $-1 $224 $404 #
straight-curve $-1 -18.292958152333867 -37.208606900696864 38.662192548813799 0 0 1 I I #
straight-curve $-1 -18.292958152333867 -37.208606900696864 7.1962520731819666 0 -0.64278759981090561 -0.7660444514056185 I I #
edge $-1 $405 -40.134144014068539 $228 -18.292958152333867 $322 $406 forward 7 unknown #
point $-1 -18.292958152333867 -37.208606900696864 14.088102684188529 #
point $-1 -18.292958152333867 -31.425657746276894 14.088102684188529 #
edge $-1 $407 1 $407 0 $231 $-1 forward 7 unknown #
vertex $-1 $232 $408 #
ellipse-curve $-1 -35.765906841721602 -29.54505903298675 6.6379325455115694 0 -0.7660444514056185 0.64278759981090561 2 0 0 1 I I #
point $-1 -33.765906841721602 -34.317132323486874 10.64217737868524 #
edge $-1 $409 1 $409 0 $235 $-1 forward 7 unknown #
vertex $-1 $236 $410 #
ellipse-curve $-1 -29.2135510832012 -29.54505903298675 6.6379325455115694 0 -0.7660444514056185 0.64278759981090561 2 0 0 1 I I #
point $-1 -27.2135510832012 -34.317132323486874 10.64217737868524 #
edge $-1 $411 1 $411 0 $239 $-1 forward 7 unknown #
vertex $-1 $240 $412 #
ellipse-curve $-1 -22.661195324680797 -29.54505903298675 6.6379325455115694 0 -0.7660444514056185 0.64278759981090561 2 0 0 1 I I #
point $-1 -20.661195324680797 -34.317132323486874 10.64217737868524 #
loop $-1 $-1 $250 $243 #
plane-surface $-1 0 37.208606900696864 0 0 -1 0 0 0 -1 forward_v I I I I #
coedge $-1 $413 $414 $247 $345 forward $244 $-1 #
coedge $-1 $247 $246 $350 $415 reversed $100 $-1 #
edge $-1 $347 37.931473080670244 $416 41.390166023534903 $343 $417 forward 7 unknown #
coedge $-1 $253 $248 $414 $418 forward $159 $-1 #
vertex $-1 $418 $419 #
straight-curve $-1 23.133527974317239 35.531799336095517 14.088102684188527 1 0 0 I I #
coedge $-1 $420 $250 $253 $354 reversed $341 $-1 #
coedge $-1 $250 $420 $344 $415 forward $341 $-1 #
vertex $-1 $251 $421 #
straight-curve $-1 37.984107319492537 37.208606900696864 64.521278232192174 0 0 1 I I #
straight-curve $-1 37.984107319492537 1.130426761530984 76.149823957581432 0 0.48480960649040278 -0.87461971476443456 I I #
edge $-1 $422 -54.55000457777642 $254 -37.984107319492537 $349 $423 forward 7 unknown #
point $-1 37.984107319492537 37.208606900696864 14.088102684188529 #
point $-1 37.984107319492537 35.531799336095517 14.088102684188534 #
edge $-1 $424 1 $424 0 $257 $-1 forward 7 unknown #
vertex $-1 $258 $425 #
ellipse-curve $-1 42.717220821859357 34.943430828796792 11.784709401463632 0 0.87461971476443456 0.48480960649040278 0.5 0 0 1 I I #
point $-1 43.217220821859357 36.370203118396184 12.575582166615508 #
edge $-1 $426 1 $426 0 $261 $-1 forward 7 unknown #
vertex $-1 $262 $427 #
ellipse-curve $-1 49.8168910754096 34.943430828796792 11.784709401463632 0 0.87461971476443456 0.48480960649040278 0.5 0 0 1 I I #
point $-1 50.3168910754096 36.370203118396184 12.575582166615508 #
plane-surface $-1 54.55000457777642 0 0 -1 0 0 0 0 1 forward_v I I I I #
coedge $-1 $270 $268 $272 $370 reversed $181 $-1 #
edge $-1 $283 -14.088102684188529 $372 14.088102684188529 $282 $428 forward 7 unknown #
vertex $-1 $370 $429 #
straight-curve $-1 -54.55000457777642 -37.208606900696864 0 0 0 -1 I I #
edge $-1 $368 -37.208606900696864 $372 37.208606900696864 $366 $430 forward 7 unknown #
straight-curve $-1 0 -37.208606900696864 -14.088102684188529 -1 0 0 I I #
vertex $-1 $275 $431 #
straight-curve $-1 0 37.208606900696864 -14.088102684188529 1 0 0 I I #
point $-1 54.55000457777642 37.208606900696864 -14.088102684188529 #
point $-1 54.55000457777642 -37.208606900696864 -14.088102684188529 #
straight-curve $-1 -54.55000457777642 0 14.088102684188529 0 -1 0 I I #
point $-1 -54.55000457777642 37.208606900696864 14.088102684188529 #
point $-1 -54.55000457777642 -37.208606900696864 14.088102684188529 #
straight-curve $-1 54.55000457777642 -37.208606900696864 0 0 0 -1 I I #
straight-curve $-1 54.55000457777642 37.208606900696864 0 0 0 -1 I I #
plane-surface $-1 0 -37.208606900696864 0 0 1 0 0 0 1 forward_v I I I I #
coedge $-1 $432 $295 $305 $393 reversed $200 $-1 #
coedge $-1 $295 $432 $308 $395 forward $200 $-1 #
coedge $-1 $433 $298 $296 $385 forward $293 $-1 #
edge $-1 $386 40.134144014068539 $434 54.55000457777642 $296 $435 forward 7 unknown #
vertex $-1 $385 $436 #
straight-curve $-1 -40.134144014068539 37.208606900696864 4.9496676572786447 0 0 -1 I I #
coedge $-1 $298 $433 $300 $390 forward $293 $-1 #
straight-curve $-1 -40.134144014068539 0 14.088102684188529 0 1 0 I I #
edge $-1 $437 -54.55000457777642 $302 -40.134144014068539 $300 $438 forward 7 unknown #
point $-1 -40.134144014068539 -37.208606900696864 14.088102684188526 #
straight-curve $-1 -54.55000457777642 0 5.7105679449260531 0 -1 0 I I #
edge $-1 $437 -14.088102684188529 $306 -5.7105679449260531 $382 $439 forward 7 unknown #
point $-1 -54.55000457777642 -37.208606900696864 5.7105679449260531 #
edge $-1 $434 -14.088102684188529 $309 -5.7105679449260531 $308 $440 forward 7 unknown #
point $-1 -54.55000457777642 37.208606900696864 5.7105679449260531 #
coedge $-1 $314 $322 $315 $399 forward $216 $-1 #
edge $-1 $401 -25.527368472467938 $323 -3.6861826107332654 $314 $441 forward 7 unknown #
edge $-1 $405 -9.1384350269098817 $401 -2.2465844159033219 $397 $442 forward 7 unknown #
edge $-1 $320 31.425657746276894 $405 37.208606900696864 $319 $443 forward 7 unknown #
vertex $-1 $317 $444 #
straight-curve $-1 -40.134144014068539 -28.856252776917906 17.150200367420908 0 -0.64278759981090572 -0.76604445140561861 I I #
point $-1 -40.134144014068539 -31.425657746276894 14.088102684188529 #
point $-1 -18.292958152333867 -37.208606900696864 7.1962520731819666 #
vertex $-1 $326 $445 #
straight-curve $-1 0 -37.208606900696864 14.088102684188529 1 0 0 I I #
vertex $-1 $329 $446 #
point $-1 -33.765906841721602 -29.54505903298675 6.6379325455115694 #
vertex $-1 $333 $447 #
point $-1 -27.2135510832012 -29.54505903298675 6.6379325455115694 #
vertex $-1 $337 $448 #
point $-1 -20.661195324680797 -29.54505903298675 6.6379325455115694 #
coedge $-1 $414 $343 $420 $449 reversed $244 $-1 #
coedge $-1 $343 $413 $346 $418 reversed $244 $-1 #
edge $-1 $416 -31.416476603459181 $351 -14.850579345175298 $350 $450 forward 7 unknown #
vertex $-1 $345 $451 #
straight-curve $-1 54.55000457777642 17.142256798254468 47.263716850599167 0 0.48480960649040278 -0.87461971476443456 I I #
edge $-1 $347 35.531799336095517 $422 37.208606900696864 $414 $452 forward 7 unknown #
point $-1 54.55000457777642 35.531799336095517 14.088102684188534 #
coedge $-1 $350 $349 $413 $449 forward $341 $-1 #
point $-1 37.984107319492537 37.208606900696864 11.063061649042481 #
vertex $-1 $418 $453 #
straight-curve $-1 0 37.208606900696864 14.088102684188529 -1 0 0 I I #
vertex $-1 $357 $454 #
point $-1 43.217220821859357 34.943430828796792 11.784709401463632 #
vertex $-1 $361 $455 #
point $-1 50.3168910754096 34.943430828796792 11.784709401463632 #
straight-curve $-1 -54.55000457777642 37.208606900696864 0 0 0 -1 I I #
point $-1 -54.55000457777642 -37.208606900696864 -14.088102684188529 #
straight-curve $-1 -54.55000457777642 0 -14.088102684188529 0 1 0 I I #
point $-1 -54.55000457777642 37.208606900696864 -14.088102684188529 #
coedge $-1 $383 $382 $433 $456 reversed $200 $-1 #
coedge $-1 $388 $384 $432 $456 forward $293 $-1 #
vertex $-1 $385 $457 #
straight-curve $-1 0 37.208606900696864 14.088102684188529 -1 0 0 I I #
point $-1 -40.134144014068539 37.208606900696864 14.088102684188526 #
vertex $-1 $456 $458 #
straight-curve $-1 0 -37.208606900696864 14.088102684188529 1 0 0 I I #
straight-curve $-1 -54.55000457777642 -37.208606900696864 0 0 0 -1 I I #
straight-curve $-1 -54.55000457777642 37.208606900696864 0 0 0 -1 I I #
straight-curve $-1 -14.606775541600602 -37.208606900696864 7.1962520731819701 1 0 0 I I #
straight-curve $-1 -40.134144014068539 -37.208606900696864 4.9496676572786447 0 0 -1 I I #
straight-curve $-1 -40.134144014068539 0 14.088102684188529 0 -1 0 I I #
point $-1 -40.134144014068539 -37.208606900696864 7.1962520731819666 #
point $-1 -40.134144014068539 -37.208606900696864 14.088102684188526 #
point $-1 -35.765906841721602 -28.012970130175511 5.3523573458897591 #
point $-1 -29.2135510832012 -28.012970130175511 5.3523573458897591 #
point $-1 -22.661195324680797 -28.012970130175511 5.3523573458897591 #
edge $-1 $422 -14.088102684188529 $416 -11.063061649042481 $413 $459 forward 7 unknown #
straight-curve $-1 23.133527974317239 37.208606900696864 11.063061649042478 -1 0 0 I I #
point $-1 54.55000457777642 37.208606900696864 11.063061649042481 #
straight-curve $-1 54.55000457777642 0 14.088102684188529 0 1 0 I I #
point $-1 54.55000457777642 37.208606900696864 14.088102684188529 #
point $-1 42.717220821859357 34.506120971414575 11.542304598218431 #
point $-1 49.8168910754096 34.506120971414575 11.542304598218431 #
edge $-1 $434 -37.208606900696864 $437 37.208606900696864 $432 $460 forward 7 unknown #
point $-1 -54.55000457777642 37.208606900696864 14.088102684188529 #
point $-1 -54.55000457777642 -37.208606900696864 14.088102684188529 #
straight-curve $-1 54.55000457777642 37.208606900696864 0 0 0 -1 I I #
straight-curve $-1 -54.55000457777642 0 14.088102684188529 0 -1 0 I I #
End-of-ACIS-data 