500 0 11 0           
7 Unknown 11 ACIS 5.0 NT 24 Thu Mar 25 22:53:46 1999 
-1 9.9999999999999995e-007 1e-010 
body $-1 $11 $-1 $12 #
body $-1 $13 $-1 $14 #
body $-1 $15 $-1 $16 #
body $-1 $17 $-1 $18 #
body $-1 $19 $-1 $20 #
body $-1 $21 $-1 $22 #
body $-1 $23 $-1 $24 #
body $-1 $25 $-1 $26 #
body $-1 $27 $-1 $28 #
body $-1 $29 $-1 $30 #
body $-1 $31 $-1 $32 #
lump $-1 $-1 $33 $0 #
transform $-1 1 0 0 0 1 0 0 0 1 62.542191839350565 30.089041431742004 14.447276154354689 1 rotate no_reflect no_shear #
lump $-1 $-1 $34 $1 #
transform $-1 1 0 0 0 1 0 0 0 1 62.542191839350565 30.089041431742004 14.447276154354689 1 rotate no_reflect no_shear #
lump $-1 $-1 $35 $2 #
transform $-1 1 0 0 0 1 0 0 0 1 62.542191839350565 30.089041431742004 14.447276154354689 1 rotate no_reflect no_shear #
lump $-1 $-1 $36 $3 #
transform $-1 1 0 0 0 1 0 0 0 1 62.542191839350565 30.089041431742004 14.447276154354689 1 rotate no_reflect no_shear #
lump $-1 $-1 $37 $4 #
transform $-1 1 0 0 0 1 0 0 0 1 62.542191839350565 30.089041431742004 14.447276154354689 1 rotate no_reflect no_shear #
lump $-1 $-1 $38 $5 #
transform $-1 1 0 0 0 1 0 0 0 1 62.542191839350565 30.089041431742004 14.447276154354689 1 rotate no_reflect no_shear #
lump $-1 $-1 $39 $6 #
transform $-1 1 0 0 0 1 0 0 0 1 62.542191839350565 30.089041431742004 14.447276154354689 1 rotate no_reflect no_shear #
lump $-1 $-1 $40 $7 #
transform $-1 1 0 0 0 1 0 0 0 1 62.542191839350565 30.089041431742004 14.447276154354689 1 rotate no_reflect no_shear #
lump $-1 $-1 $41 $8 #
transform $-1 1 0 0 0 1 0 0 0 1 62.542191839350565 30.089041431742004 14.447276154354689 1 rotate no_reflect no_shear #
lump $-1 $-1 $42 $9 #
transform $-1 1 0 0 0 1 0 0 0 1 62.542191839350565 30.089041431742004 14.447276154354689 1 rotate no_reflect no_shear #
lump $-1 $-1 $43 $10 #
transform $-1 1 0 0 0 1 0 0 0 1 62.542191839350565 30.089041431742004 14.447276154354689 1 rotate no_reflect no_shear #
shell $-1 $-1 $-1 $44 $-1 $11 #
shell $-1 $-1 $-1 $45 $-1 $13 #
shell $-1 $-1 $-1 $46 $-1 $15 #
shell $-1 $-1 $-1 $47 $-1 $17 #
shell $-1 $-1 $-1 $48 $-1 $19 #
shell $-1 $-1 $-1 $49 $-1 $21 #
shell $-1 $-1 $-1 $50 $-1 $23 #
shell $-1 $-1 $-1 $51 $-1 $25 #
shell $-1 $-1 $-1 $52 $-1 $27 #
shell $-1 $-1 $-1 $53 $-1 $29 #
shell $-1 $-1 $-1 $54 $-1 $31 #
face $-1 $55 $56 $33 $-1 $57 forward single #
face $-1 $58 $59 $34 $-1 $60 forward single #
face $-1 $61 $62 $35 $-1 $63 reversed single #
face $-1 $64 $65 $36 $-1 $66 forward single #
face $-1 $67 $68 $37 $-1 $69 forward single #
face $-1 $70 $71 $38 $-1 $72 reversed single #
face $-1 $73 $74 $39 $-1 $75 forward single #
face $-1 $76 $77 $40 $-1 $78 forward single #
face $-1 $79 $80 $41 $-1 $81 reversed single #
face $-1 $82 $83 $42 $-1 $84 forward single #
face $-1 $85 $86 $43 $-1 $87 forward single #
face $-1 $88 $89 $33 $-1 $90 reversed single #
loop $-1 $-1 $91 $44 #
plane-surface $-1 0 0 14.447276154354689 0 0 1 1 0 0 forward_v I I I I #
face $-1 $92 $93 $34 $-1 $94 reversed single #
loop $-1 $-1 $95 $45 #
plane-surface $-1 -62.542191839350565 0 0 1 0 0 0 0 -1 forward_v I I I I #
face $-1 $96 $97 $35 $-1 $98 reversed single #
loop $-1 $-1 $99 $46 #
plane-surface $-1 6.5208770984589961 -108.80719566013778 102.46100794194524 -1 0 0 0 -0.62932039886446345 0.77714595512881146 forward_v I I I I #
face $-1 $100 $101 $36 $-1 $102 forward single #
loop $-1 $103 $104 $47 #
cone-surface $-1 -10.263120423783896 -23.573831420103577 8.815239723786835 0 0.62932039886446345 -0.77714595512881146 2.5 0 0 1 I I 0 1 2.5 forward I I I I #
face $-1 $105 $106 $37 $-1 $107 forward single #
loop $-1 $108 $109 $48 #
cone-surface $-1 -0.19272191043816633 -23.573831420103577 8.815239723786835 0 0.62932039886446345 -0.77714595512881146 2.5 0 0 1 I I 0 1 2.5 forward I I I I #
face $-1 $110 $111 $38 $-1 $112 reversed single #
loop $-1 $-1 $113 $49 #
plane-surface $-1 30.018473629599022 -108.80719566013778 102.46100794194524 -1 0 0 0 -0.62932039886446345 0.77714595512881146 forward_v I I I I #
face $-1 $114 $115 $39 $-1 $116 forward single #
loop $-1 $117 $118 $50 #
cone-surface $-1 13.234476107356144 -23.573831420103577 8.815239723786835 0 0.62932039886446345 -0.77714595512881146 2.5 0 0 1 I I 0 1 2.5 forward I I I I #
face $-1 $119 $120 $40 $-1 $121 forward single #
loop $-1 $122 $123 $51 #
cone-surface $-1 23.304874620701867 -23.573831420103577 8.815239723786835 0 0.62932039886446345 -0.77714595512881146 2.5 0 0 1 I I 0 1 2.5 forward I I I I #
face $-1 $124 $125 $41 $-1 $126 reversed single #
loop $-1 $-1 $127 $52 #
plane-surface $-1 45.862143288214163 85.011051130955735 137.07436718300218 1 0 0 0 -0.75470958851134928 -0.65605901945558964 forward_v I I I I #
face $-1 $128 $129 $42 $-1 $130 forward single #
loop $-1 $131 $132 $53 #
cone-surface $-1 50.627871445681706 27.074929661096483 11.234302382032485 0 -0.75470958851134928 -0.65605901945558964 1 0 0 1 I I 0 1 1 forward I I I I #
face $-1 $133 $134 $43 $-1 $135 forward single #
loop $-1 $136 $137 $54 #
cone-surface $-1 57.776463681883016 27.074929661096483 11.234302382032485 0 -0.75470958851134928 -0.65605901945558964 1 0 0 1 I I 0 1 1 forward I I I I #
face $-1 $138 $139 $33 $-1 $140 reversed single #
loop $-1 $-1 $141 $55 #
plane-surface $-1 0 0 -14.447276154354689 0 0 1 1 0 0 forward_v I I I I #
coedge $-1 $142 $143 $144 $145 forward $56 $-1 #
face $-1 $146 $147 $34 $-1 $148 reversed single #
loop $-1 $-1 $149 $58 #
plane-surface $-1 0 0 -14.447276154354689 0 0 1 1 0 0 forward_v I I I I #
coedge $-1 $150 $151 $152 $153 forward $59 $-1 #
face $-1 $154 $155 $35 $-1 $156 reversed single #
loop $-1 $-1 $157 $61 #
plane-surface $-1 -5.2279211671110275 -30.08904143174199 5.252185116262325 0 -0.62932039886446345 0.77714595512881146 1 0 0 forward_v I I I I #
coedge $-1 $158 $159 $160 $161 reversed $62 $-1 #
face $-1 $-1 $162 $36 $-1 $163 forward single #
loop $-1 $164 $165 $64 #
cone-surface $-1 -10.263120423783896 -21.949466681663665 6.8093163683541391 0 0.62932039886446345 -0.77714595512881146 1.25 0 0 1 I I -0.70710678118654746 0.70710678118654746 1.25 forward I I I I #
loop $-1 $-1 $166 $47 #
coedge $-1 $104 $104 $167 $168 reversed $65 $-1 #
face $-1 $-1 $169 $37 $-1 $170 forward single #
loop $-1 $171 $172 $67 #
cone-surface $-1 -0.19272191043816633 -21.949466681663665 6.8093163683541391 0 0.62932039886446345 -0.77714595512881146 1.25 0 0 1 I I -0.70710678118654746 0.70710678118654746 1.25 forward I I I I #
loop $-1 $-1 $173 $48 #
coedge $-1 $109 $109 $174 $175 reversed $68 $-1 #
face $-1 $176 $177 $38 $-1 $178 forward single #
loop $-1 $-1 $179 $70 #
plane-surface $-1 -5.2279211671110275 -30.08904143174199 5.252185116262325 0 -0.62932039886446345 0.77714595512881146 1 0 0 forward_v I I I I #
coedge $-1 $180 $181 $182 $183 reversed $71 $-1 #
face $-1 $-1 $184 $39 $-1 $185 forward single #
loop $-1 $186 $187 $73 #
cone-surface $-1 13.234476107356144 -21.949466681663665 6.8093163683541391 0 0.62932039886446345 -0.77714595512881146 1.25 0 0 1 I I -0.70710678118654746 0.70710678118654746 1.25 forward I I I I #
loop $-1 $-1 $188 $50 #
coedge $-1 $118 $118 $189 $190 reversed $74 $-1 #
face $-1 $-1 $191 $40 $-1 $192 forward single #
loop $-1 $193 $194 $76 #
cone-surface $-1 23.304874620701867 -21.949466681663665 6.8093163683541391 0 0.62932039886446345 -0.77714595512881146 1.25 0 0 1 I I -0.70710678118654746 0.70710678118654746 1.25 forward I I I I #
loop $-1 $-1 $195 $51 #
coedge $-1 $123 $123 $196 $197 reversed $77 $-1 #
face $-1 $198 $199 $41 $-1 $200 reversed single #
loop $-1 $-1 $201 $79 #
plane-surface $-1 54.202167563782368 -9.3913326043925309 55.011629077546758 0 0.75470958851134928 0.65605901945558964 1 0 0 forward_v I I I I #
coedge $-1 $202 $203 $204 $205 reversed $80 $-1 #
face $-1 $-1 $206 $42 $-1 $207 forward single #
loop $-1 $208 $209 $82 #
cone-surface $-1 50.627871445681706 25.792623552023741 10.119610716037407 0 -0.75470958851134928 -0.65605901945558964 0.5 0 0 1 I I -0.70710678118654746 0.70710678118654746 0.5 forward I I I I #
loop $-1 $-1 $210 $53 #
coedge $-1 $132 $132 $211 $212 reversed $83 $-1 #
face $-1 $-1 $213 $43 $-1 $214 forward single #
loop $-1 $215 $216 $85 #
cone-surface $-1 57.776463681883016 25.792623552023741 10.119610716037407 0 -0.75470958851134928 -0.65605901945558964 0.5 0 0 1 I I -0.70710678118654746 0.70710678118654746 0.5 forward I I I I #
loop $-1 $-1 $217 $54 #
coedge $-1 $137 $137 $218 $219 reversed $86 $-1 #
face $-1 $220 $221 $33 $-1 $222 reversed single #
loop $-1 $-1 $223 $88 #
plane-surface $-1 0 -30.089041431742004 0 0 1 0 0 0 1 forward_v I I I I #
coedge $-1 $224 $225 $226 $227 forward $89 $-1 #
coedge $-1 $228 $91 $229 $230 forward $56 $-1 #
coedge $-1 $91 $228 $231 $232 forward $56 $-1 #
coedge $-1 $233 $234 $91 $145 reversed $235 $-1 #
edge $-1 $236 -30.089041431742004 $237 30.089041431742004 $144 $238 forward 7 unknown #
face $-1 $239 $240 $34 $-1 $241 reversed single #
loop $-1 $-1 $242 $92 #
plane-surface $-1 -69.063068937809547 -22.795804220961752 0 0 1 0 0 0 1 forward_v I I I I #
coedge $-1 $243 $244 $151 $245 forward $93 $-1 #
coedge $-1 $246 $95 $247 $248 reversed $59 $-1 #
coedge $-1 $95 $246 $149 $245 reversed $59 $-1 #
coedge $-1 $249 $250 $95 $153 reversed $251 $-1 #
edge $-1 $252 -14.447276154354689 $253 14.447276154354689 $152 $254 forward 7 unknown #
face $-1 $255 $256 $35 $-1 $257 forward single #
loop $-1 $-1 $258 $96 #
plane-surface $-1 -16.976719432681051 -108.80719566013778 102.46100794194524 1 0 0 0 0.62932039886446345 -0.77714595512881146 forward_v I I I I #
coedge $-1 $259 $260 $261 $262 reversed $97 $-1 #
coedge $-1 $159 $99 $263 $264 reversed $62 $-1 #
coedge $-1 $99 $158 $259 $265 reversed $62 $-1 #
coedge $-1 $261 $266 $99 $161 forward $256 $-1 #
edge $-1 $267 24.314556398326886 $268 35.669547941885114 $160 $269 forward 7 unknown #
loop $-1 $-1 $167 $100 #
plane-surface $-1 -5.2279211671110275 -30.08904143174199 5.252185116262325 0 -0.62932039886446345 0.77714595512881146 1 0 0 forward_v I I I I #
loop $-1 $-1 $270 $64 #
coedge $-1 $165 $165 $166 $271 reversed $101 $-1 #
coedge $-1 $166 $166 $165 $271 forward $103 $-1 #
coedge $-1 $167 $167 $104 $168 forward $162 $-1 #
edge $-1 $272 5.4027074450958785e-017 $272 6.2831853071796004 $167 $273 forward 7 unknown #
loop $-1 $-1 $174 $105 #
plane-surface $-1 -5.2279211671110275 -30.08904143174199 5.252185116262325 0 -0.62932039886446345 0.77714595512881146 1 0 0 forward_v I I I I #
loop $-1 $-1 $274 $67 #
coedge $-1 $172 $172 $173 $275 reversed $106 $-1 #
coedge $-1 $173 $173 $172 $275 forward $108 $-1 #
coedge $-1 $174 $174 $109 $175 forward $169 $-1 #
edge $-1 $276 5.4027074450958785e-017 $276 6.2831853071796004 $174 $277 forward 7 unknown #
face $-1 $278 $279 $38 $-1 $280 forward single #
loop $-1 $-1 $281 $110 #
plane-surface $-1 0 0 14.447276154354689 0 0 1 1 0 0 forward_v I I I I #
coedge $-1 $282 $283 $284 $285 reversed $111 $-1 #
coedge $-1 $181 $113 $286 $287 reversed $71 $-1 #
coedge $-1 $113 $180 $281 $288 reversed $71 $-1 #
coedge $-1 $289 $290 $113 $183 forward $291 $-1 #
edge $-1 $292 -45.978318854710309 $293 -36.783227816617931 $182 $294 forward 7 unknown #
loop $-1 $-1 $189 $114 #
plane-surface $-1 -5.2279211671110275 -30.08904143174199 5.252185116262325 0 -0.62932039886446345 0.77714595512881146 1 0 0 forward_v I I I I #
loop $-1 $-1 $295 $73 #
coedge $-1 $187 $187 $188 $296 reversed $115 $-1 #
coedge $-1 $188 $188 $187 $296 forward $117 $-1 #
coedge $-1 $189 $189 $118 $190 forward $184 $-1 #
edge $-1 $297 5.4027074450958785e-017 $297 6.2831853071796004 $189 $298 forward 7 unknown #
loop $-1 $-1 $196 $119 #
plane-surface $-1 -5.2279211671110275 -30.08904143174199 5.252185116262325 0 -0.62932039886446345 0.77714595512881146 1 0 0 forward_v I I I I #
loop $-1 $-1 $299 $76 #
coedge $-1 $194 $194 $195 $300 reversed $120 $-1 #
coedge $-1 $195 $195 $194 $300 forward $122 $-1 #
coedge $-1 $196 $196 $123 $197 forward $191 $-1 #
edge $-1 $301 5.4027074450958785e-017 $301 6.2831853071796004 $196 $302 forward 7 unknown #
face $-1 $303 $304 $41 $-1 $305 reversed single #
loop $-1 $-1 $306 $124 #
plane-surface $-1 62.542191839350565 0 0 -1 0 0 0 0 1 forward_v I I I I #
coedge $-1 $307 $308 $309 $310 reversed $125 $-1 #
coedge $-1 $203 $127 $311 $312 reversed $80 $-1 #
coedge $-1 $127 $202 $307 $313 reversed $80 $-1 #
coedge $-1 $309 $314 $127 $205 forward $315 $-1 #
edge $-1 $316 12.416484133735864 $317 16.634805045392739 $204 $318 forward 7 unknown #
loop $-1 $-1 $211 $128 #
plane-surface $-1 54.202167563782368 -9.3913326043925309 55.011629077546758 0 0.75470958851134928 0.65605901945558964 1 0 0 forward_v I I I I #
loop $-1 $-1 $319 $82 #
coedge $-1 $209 $209 $210 $320 reversed $129 $-1 #
coedge $-1 $210 $210 $209 $320 forward $131 $-1 #
coedge $-1 $211 $211 $132 $212 forward $206 $-1 #
edge $-1 $321 2.3920652176306361e-015 $321 6.2831853071796031 $211 $322 forward 7 unknown #
loop $-1 $-1 $218 $133 #
plane-surface $-1 54.202167563782368 -9.3913326043925309 55.011629077546758 0 0.75470958851134928 0.65605901945558964 1 0 0 forward_v I I I I #
loop $-1 $-1 $323 $85 #
coedge $-1 $216 $216 $217 $324 reversed $134 $-1 #
coedge $-1 $217 $217 $216 $324 forward $136 $-1 #
coedge $-1 $218 $218 $137 $219 forward $213 $-1 #
edge $-1 $325 2.3920652176306361e-015 $325 6.2831853071796031 $218 $326 forward 7 unknown #
face $-1 $327 $328 $33 $-1 $329 reversed single #
loop $-1 $-1 $330 $138 #
plane-surface $-1 -62.542191839350565 0 0 1 0 0 0 0 -1 forward_v I I I I #
coedge $-1 $331 $231 $332 $333 forward $139 $-1 #
coedge $-1 $334 $141 $331 $335 forward $89 $-1 #
coedge $-1 $141 $334 $336 $337 forward $89 $-1 #
coedge $-1 $234 $233 $141 $227 reversed $235 $-1 #
edge $-1 $338 -30.089041431742004 $339 30.089041431742004 $226 $340 forward 7 unknown #
coedge $-1 $143 $142 $341 $342 forward $56 $-1 #
coedge $-1 $343 $344 $142 $230 reversed $328 $-1 #
edge $-1 $237 -62.542191839350565 $345 62.542191839350565 $229 $346 forward 7 unknown #
coedge $-1 $223 $347 $143 $232 reversed $139 $-1 #
edge $-1 $348 -62.542191839350565 $236 62.542191839350565 $231 $349 forward 7 unknown #
coedge $-1 $226 $144 $347 $350 forward $235 $-1 #
coedge $-1 $144 $226 $343 $351 reversed $235 $-1 #
loop $-1 $-1 $233 $327 #
vertex $-1 $145 $352 #
vertex $-1 $145 $353 #
straight-curve $-1 62.542191839350565 0 14.447276154354689 0 1 0 I I #
face $-1 $354 $251 $34 $-1 $355 reversed single #
loop $-1 $-1 $356 $146 #
plane-surface $-1 -75.583946036268529 -18.675991492952633 0 1 0 0 0 0 -1 forward_v I I I I #
coedge $-1 $357 $358 $359 $360 forward $147 $-1 #
coedge $-1 $361 $149 $357 $362 forward $93 $-1 #
coedge $-1 $149 $361 $249 $363 forward $93 $-1 #
edge $-1 $252 14.556178764943514 $364 22.795804220961752 $149 $365 forward 7 unknown #
coedge $-1 $151 $150 $366 $367 forward $59 $-1 #
coedge $-1 $368 $369 $150 $248 forward $370 $-1 #
edge $-1 $371 -22.795804220961752 $253 -14.556178764943514 $247 $372 forward 7 unknown #
coedge $-1 $373 $152 $244 $363 reversed $251 $-1 #
coedge $-1 $152 $373 $368 $374 reversed $251 $-1 #
loop $-1 $-1 $152 $239 #
vertex $-1 $245 $375 #
vertex $-1 $374 $376 #
straight-curve $-1 -62.542191839350565 -14.556178764943514 0 0 0 1 I I #
face $-1 $-1 $377 $35 $-1 $378 reversed single #
loop $-1 $-1 $160 $154 #
plane-surface $-1 0 0 14.447276154354689 0 0 1 1 0 0 forward_v I I I I #
coedge $-1 $379 $380 $381 $382 reversed $155 $-1 #
coedge $-1 $383 $157 $159 $265 forward $97 $-1 #
coedge $-1 $157 $383 $379 $384 forward $97 $-1 #
coedge $-1 $381 $160 $157 $262 forward $256 $-1 #
edge $-1 $268 -9.1348376820145099 $385 14.362758849125537 $261 $386 forward 7 unknown #
coedge $-1 $387 $388 $158 $264 forward $377 $-1 #
edge $-1 $389 -45.978318854710309 $267 -36.783227816617931 $263 $390 forward 7 unknown #
edge $-1 $268 -14.611144108285465 $389 1.8310242626372826e-014 $159 $391 forward 7 unknown #
coedge $-1 $160 $381 $387 $392 forward $256 $-1 #
vertex $-1 $161 $393 #
vertex $-1 $161 $394 #
straight-curve $-1 6.5208770984589961 -54.40359783006889 14.447276154354689 0 1 0 I I #
coedge $-1 $270 $270 $-1 $395 reversed $164 $-1 #
edge $-1 $396 0 $396 6.2831853071796004 $165 $397 forward 7 unknown #
vertex $-1 $168 $398 #
ellipse-curve $-1 -10.263120423783896 -24.411545659962893 9.8497306353084983 0 -0.62932039886446345 0.77714595512881146 2.5 0 0 1 I I #
coedge $-1 $274 $274 $-1 $399 reversed $171 $-1 #
edge $-1 $400 0 $400 6.2831853071796004 $172 $401 forward 7 unknown #
vertex $-1 $175 $402 #
ellipse-curve $-1 -0.19272191043816633 -24.411545659962893 9.8497306353084983 0 -0.62932039886446345 0.77714595512881146 2.5 0 0 1 I I #
face $-1 $-1 $291 $38 $-1 $403 reversed single #
loop $-1 $-1 $404 $176 #
plane-surface $-1 6.5208770984589961 -108.80719566013778 102.46100794194524 -1 0 0 0 -0.62932039886446345 0.77714595512881146 forward_v I I I I #
coedge $-1 $405 $406 $181 $288 forward $177 $-1 #
coedge $-1 $286 $179 $405 $407 reversed $111 $-1 #
coedge $-1 $179 $286 $290 $408 reversed $111 $-1 #
coedge $-1 $409 $404 $179 $285 forward $279 $-1 #
edge $-1 $410 -14.611144108285465 $411 1.8310242626372826e-014 $284 $412 forward 7 unknown #
coedge $-1 $283 $282 $180 $287 forward $111 $-1 #
edge $-1 $413 -14.611144108285465 $292 1.8310242626372826e-014 $180 $414 forward 7 unknown #
edge $-1 $293 24.314556398326886 $413 35.669547941885114 $281 $415 forward 7 unknown #
coedge $-1 $416 $182 $406 $417 reversed $291 $-1 #
coedge $-1 $182 $416 $283 $408 forward $291 $-1 #
loop $-1 $-1 $182 $278 #
vertex $-1 $183 $418 #
vertex $-1 $288 $419 #
straight-curve $-1 30.018473629599022 -30.089041431742004 51.23050397097262 0 0 1 I I #
coedge $-1 $295 $295 $-1 $420 reversed $186 $-1 #
edge $-1 $421 0 $421 6.2831853071796004 $187 $422 forward 7 unknown #
vertex $-1 $190 $423 #
ellipse-curve $-1 13.234476107356144 -24.411545659962893 9.8497306353084983 0 -0.62932039886446345 0.77714595512881146 2.5 0 0 1 I I #
coedge $-1 $299 $299 $-1 $424 reversed $193 $-1 #
edge $-1 $425 0 $425 6.2831853071796004 $194 $426 forward 7 unknown #
vertex $-1 $197 $427 #
ellipse-curve $-1 23.304874620701867 -24.411545659962893 9.8497306353084983 0 -0.62932039886446345 0.77714595512881146 2.5 0 0 1 I I #
face $-1 $-1 $315 $41 $-1 $428 forward single #
loop $-1 $-1 $429 $198 #
plane-surface $-1 0 30.089041431742004 0 0 -1 0 0 0 -1 forward_v I I I I #
coedge $-1 $430 $431 $308 $432 forward $199 $-1 #
coedge $-1 $433 $201 $203 $313 forward $125 $-1 #
coedge $-1 $201 $433 $306 $432 reversed $125 $-1 #
coedge $-1 $434 $204 $201 $310 forward $315 $-1 #
edge $-1 $317 18.761059506322979 $435 35.441108057459388 $309 $436 forward 7 unknown #
coedge $-1 $437 $429 $202 $312 forward $304 $-1 #
edge $-1 $438 -58.942530669256222 $316 -54.089907437146401 $311 $439 forward 7 unknown #
edge $-1 $317 53.748294099727175 $438 60.178082863484015 $203 $440 forward 7 unknown #
coedge $-1 $204 $434 $437 $441 forward $315 $-1 #
loop $-1 $-1 $309 $303 #
vertex $-1 $312 $442 #
vertex $-1 $205 $443 #
straight-curve $-1 45.862143288214163 42.505525565477868 14.447276154354689 0 -1 0 I I #
coedge $-1 $319 $319 $-1 $444 reversed $208 $-1 #
edge $-1 $445 0 $445 6.2831853071796004 $209 $446 forward 7 unknown #
vertex $-1 $212 $447 #
ellipse-curve $-1 50.627871445681706 27.979880975913563 12.020964538299781 0 0.75470958851134928 0.65605901945558964 1 0 0 1 I I #
coedge $-1 $323 $323 $-1 $448 reversed $215 $-1 #
edge $-1 $449 0 $449 6.2831853071796004 $216 $450 forward 7 unknown #
vertex $-1 $219 $451 #
ellipse-curve $-1 57.776463681883016 27.979880975913563 12.020964538299781 0 0.75470958851134928 0.65605901945558964 1 0 0 1 I I #
face $-1 $-1 $235 $33 $-1 $452 reversed single #
loop $-1 $-1 $343 $220 #
plane-surface $-1 0 30.089041431742004 0 0 -1 0 0 0 -1 forward_v I I I I #
coedge $-1 $453 $341 $344 $454 forward $221 $-1 #
coedge $-1 $347 $223 $224 $335 reversed $139 $-1 #
coedge $-1 $341 $453 $223 $333 reversed $221 $-1 #
edge $-1 $348 -14.447276154354689 $455 14.447276154354689 $332 $456 forward 7 unknown #
coedge $-1 $225 $224 $453 $457 forward $89 $-1 #
edge $-1 $339 -62.542191839350565 $455 62.542191839350565 $331 $458 forward 7 unknown #
coedge $-1 $344 $343 $225 $337 reversed $328 $-1 #
edge $-1 $459 -62.542191839350565 $338 62.542191839350565 $336 $460 forward 7 unknown #
vertex $-1 $227 $461 #
vertex $-1 $350 $462 #
straight-curve $-1 62.542191839350565 0 -14.447276154354689 0 -1 0 I I #
coedge $-1 $330 $332 $228 $342 reversed $221 $-1 #
edge $-1 $345 -30.089041431742004 $348 30.089041431742004 $341 $463 forward 7 unknown #
coedge $-1 $336 $229 $234 $351 forward $328 $-1 #
coedge $-1 $229 $336 $330 $454 reversed $328 $-1 #
vertex $-1 $230 $464 #
straight-curve $-1 0 30.089041431742004 14.447276154354689 -1 0 0 I I #
coedge $-1 $231 $331 $233 $350 reversed $139 $-1 #
vertex $-1 $342 $465 #
straight-curve $-1 0 -30.089041431742004 14.447276154354689 1 0 0 I I #
edge $-1 $236 -14.447276154354689 $339 14.447276154354689 $233 $466 forward 7 unknown #
edge $-1 $237 -14.447276154354689 $338 14.447276154354689 $234 $467 forward 7 unknown #
point $-1 62.542191839350565 -30.089041431742004 14.447276154354689 #
point $-1 62.542191839350565 30.089041431742004 14.447276154354689 #
face $-1 $-1 $370 $34 $-1 $468 forward single #
plane-surface $-1 -69.063068937809547 -14.556178764943514 0 0 -1 0 0 0 -1 forward_v I I I I #
coedge $-1 $469 $470 $373 $471 forward $240 $-1 #
coedge $-1 $366 $242 $243 $362 reversed $147 $-1 #
coedge $-1 $242 $366 $369 $472 reversed $147 $-1 #
coedge $-1 $470 $469 $242 $360 reversed $240 $-1 #
edge $-1 $473 -14.447276154354689 $474 14.447276154354689 $359 $475 forward 7 unknown #
coedge $-1 $244 $243 $469 $476 forward $93 $-1 #
edge $-1 $364 -6.520877098458989 $474 6.5208770984589819 $357 $477 forward 7 unknown #
edge $-1 $478 -6.5208770984589819 $252 6.520877098458989 $249 $479 forward 7 unknown #
vertex $-1 $362 $480 #
straight-curve $-1 -62.542191839350565 0 -14.447276154354689 0 -1 0 I I #
coedge $-1 $358 $357 $246 $367 reversed $147 $-1 #
edge $-1 $371 -14.447276154354689 $364 14.447276154354689 $366 $481 forward 7 unknown #
coedge $-1 $482 $247 $250 $374 forward $370 $-1 #
coedge $-1 $247 $482 $358 $472 forward $370 $-1 #
loop $-1 $-1 $247 $354 #
vertex $-1 $248 $483 #
straight-curve $-1 -62.542191839350565 0 14.447276154354689 0 1 0 I I #
coedge $-1 $250 $249 $356 $471 reversed $251 $-1 #
edge $-1 $253 -6.520877098458989 $484 6.5208770984589819 $250 $485 forward 7 unknown #
point $-1 -62.542191839350558 -14.556178764943514 -14.447276154354689 #
point $-1 -62.542191839350558 -14.556178764943514 14.447276154354689 #
loop $-1 $-1 $263 $255 #
plane-surface $-1 0 -30.089041431742004 0 0 1 0 0 0 1 forward_v I I I I #
coedge $-1 $380 $258 $260 $384 reversed $155 $-1 #
coedge $-1 $258 $379 $486 $487 reversed $155 $-1 #
coedge $-1 $266 $261 $258 $382 forward $256 $-1 #
edge $-1 $385 -35.669547941885114 $488 -24.314556398326886 $381 $489 forward 7 unknown #
coedge $-1 $260 $259 $388 $490 reversed $97 $-1 #
edge $-1 $491 -1.8310242626372826e-014 $385 14.611144108285465 $379 $492 forward 7 unknown #
vertex $-1 $262 $493 #
straight-curve $-1 -2.6139605835555138 -18.734049888183772 14.447276154354689 -1 0 0 I I #
coedge $-1 $486 $263 $266 $392 reversed $377 $-1 #
coedge $-1 $263 $486 $383 $490 forward $377 $-1 #
vertex $-1 $264 $494 #
straight-curve $-1 6.5208770984589961 -30.089041431742004 51.23050397097262 0 0 1 I I #
straight-curve $-1 6.5208770984589961 -30.08904143174199 5.252185116262325 0 -0.77714595512881146 -0.62932039886446345 I I #
edge $-1 $488 -16.976719432681051 $267 6.5208770984589961 $387 $495 forward 7 unknown #
point $-1 6.5208770984589961 -30.089041431742004 14.447276154354689 #
point $-1 6.5208770984589961 -18.734049888183776 14.447276154354689 #
edge $-1 $496 1 $496 0 $270 $-1 forward 7 unknown #
vertex $-1 $271 $497 #
ellipse-curve $-1 -10.263120423783896 -22.736117180244243 7.7807488122651538 0 -0.62932039886446345 0.77714595512881146 2.5 0 0 1 I I #
point $-1 -7.7631204237838958 -24.411545659962908 9.8497306353085161 #
edge $-1 $498 1 $498 0 $274 $-1 forward 7 unknown #
vertex $-1 $275 $499 #
ellipse-curve $-1 -0.19272191043816633 -22.736117180244243 7.7807488122651538 0 -0.62932039886446345 0.77714595512881146 2.5 0 0 1 I I #
point $-1 2.3072780895618337 -24.411545659962908 9.8497306353085161 #
plane-surface $-1 0 -30.089041431742004 0 0 1 0 0 0 1 forward_v I I I I #
coedge $-1 $284 $409 $500 $501 reversed $279 $-1 #
coedge $-1 $500 $281 $282 $407 forward $177 $-1 #
coedge $-1 $281 $500 $289 $417 forward $177 $-1 #
edge $-1 $413 -32.632434213154539 $410 -9.1348376820145099 $405 $502 forward 7 unknown #
edge $-1 $411 9.1348376820145099 $292 32.632434213154539 $290 $503 forward 7 unknown #
coedge $-1 $404 $284 $416 $504 reversed $279 $-1 #
vertex $-1 $407 $505 #
vertex $-1 $408 $506 #
straight-curve $-1 6.5208770984589961 -30.08904143174199 5.252185116262325 0 -0.77714595512881146 -0.62932039886446345 I I #
vertex $-1 $288 $507 #
straight-curve $-1 30.018473629599022 -30.08904143174199 5.252185116262325 0 -0.77714595512881146 -0.62932039886446345 I I #
straight-curve $-1 30.018473629599022 -54.40359783006889 14.447276154354689 0 1 0 I I #
coedge $-1 $290 $289 $409 $504 forward $291 $-1 #
edge $-1 $508 6.5208770984589961 $293 30.018473629599022 $289 $509 forward 7 unknown #
point $-1 30.018473629599022 -30.089041431742004 5.2521851162623134 #
point $-1 30.018473629599022 -30.089041431742004 14.447276154354689 #
edge $-1 $510 1 $510 0 $295 $-1 forward 7 unknown #
vertex $-1 $296 $511 #
ellipse-curve $-1 13.234476107356144 -22.736117180244243 7.7807488122651538 0 -0.62932039886446345 0.77714595512881146 2.5 0 0 1 I I #
point $-1 15.734476107356144 -24.411545659962908 9.8497306353085161 #
edge $-1 $512 1 $512 0 $299 $-1 forward 7 unknown #
vertex $-1 $300 $513 #
ellipse-curve $-1 23.304874620701867 -22.736117180244243 7.7807488122651538 0 -0.62932039886446345 0.77714595512881146 2.5 0 0 1 I I #
point $-1 25.804874620701867 -24.411545659962908 9.8497306353085161 #
plane-surface $-1 0 0 14.447276154354689 0 0 1 1 0 0 forward_v I I I I #
coedge $-1 $311 $514 $433 $515 forward $304 $-1 #
coedge $-1 $431 $306 $514 $516 reversed $199 $-1 #
coedge $-1 $306 $430 $434 $517 reversed $199 $-1 #
edge $-1 $435 29.908757897590483 $518 36.338546661347316 $306 $519 forward 7 unknown #
coedge $-1 $308 $307 $429 $515 reversed $125 $-1 #
coedge $-1 $314 $309 $431 $517 forward $315 $-1 #
vertex $-1 $517 $520 #
straight-curve $-1 27.101083781891184 25.870720520085118 14.447276154354686 1 0 0 I I #
coedge $-1 $514 $311 $314 $441 reversed $304 $-1 #
vertex $-1 $312 $521 #
straight-curve $-1 45.862143288214163 30.089041431742004 68.537183591501091 0 0 1 I I #
straight-curve $-1 45.862143288214163 -9.3913326043925309 55.011629077546758 0 0.65605901945558964 -0.75470958851134928 I I #
edge $-1 $522 -62.542191839350565 $316 -45.862143288214163 $437 $523 forward 7 unknown #
point $-1 45.862143288214163 30.089041431742004 14.447276154354689 #
point $-1 45.862143288214163 25.870720520085129 14.447276154354689 #
edge $-1 $524 1 $524 0 $319 $-1 forward 7 unknown #
vertex $-1 $320 $525 #
ellipse-curve $-1 50.627871445681706 26.169978346279414 10.447640225765202 0 0.75470958851134928 0.65605901945558964 1 0 0 1 I I #
point $-1 51.627871445681706 27.979880975913552 12.020964538299769 #
edge $-1 $526 1 $526 0 $323 $-1 forward 7 unknown #
vertex $-1 $324 $527 #
ellipse-curve $-1 57.776463681883016 26.169978346279414 10.447640225765202 0 0.75470958851134928 0.65605901945558964 1 0 0 1 I I #
point $-1 58.776463681883016 27.979880975913552 12.020964538299769 #
plane-surface $-1 62.542191839350565 0 0 -1 0 0 0 0 1 forward_v I I I I #
coedge $-1 $332 $330 $334 $457 reversed $221 $-1 #
edge $-1 $345 -14.447276154354689 $459 14.447276154354689 $344 $528 forward 7 unknown #
vertex $-1 $457 $529 #
straight-curve $-1 -62.542191839350565 -30.089041431742004 0 0 0 -1 I I #
edge $-1 $455 -30.089041431742004 $459 30.089041431742004 $453 $530 forward 7 unknown #
straight-curve $-1 0 -30.089041431742004 -14.447276154354689 -1 0 0 I I #
vertex $-1 $337 $531 #
straight-curve $-1 0 30.089041431742004 -14.447276154354689 1 0 0 I I #
point $-1 62.542191839350565 30.089041431742004 -14.447276154354689 #
point $-1 62.542191839350565 -30.089041431742004 -14.447276154354689 #
straight-curve $-1 -62.542191839350565 0 14.447276154354689 0 -1 0 I I #
point $-1 -62.542191839350565 30.089041431742004 14.447276154354689 #
point $-1 -62.542191839350565 -30.089041431742004 14.447276154354689 #
straight-curve $-1 62.542191839350565 -30.089041431742004 0 0 0 -1 I I #
straight-curve $-1 62.542191839350565 30.089041431742004 0 0 0 -1 I I #
plane-surface $-1 0 0 14.447276154354689 0 0 1 1 0 0 forward_v I I I I #
coedge $-1 $359 $356 $361 $476 reversed $240 $-1 #
coedge $-1 $356 $359 $482 $532 reversed $240 $-1 #
edge $-1 $484 -14.447276154354689 $478 14.447276154354689 $373 $533 forward 7 unknown #
edge $-1 $473 -6.5208770984589819 $371 6.520877098458989 $358 $534 forward 7 unknown #
vertex $-1 $532 $535 #
vertex $-1 $476 $536 #
straight-curve $-1 -75.583946036268529 -22.795804220961752 0 0 0 -1 I I #
edge $-1 $474 -4.1198127280091192 $478 4.1198127280091192 $469 $537 forward 7 unknown #
straight-curve $-1 -69.063068937809547 -22.795804220961752 -14.447276154354689 -1 0 0 I I #
vertex $-1 $363 $538 #
straight-curve $-1 -69.063068937809547 -14.556178764943514 -14.447276154354689 1 0 0 I I #
point $-1 -62.542191839350558 -22.795804220961752 -14.447276154354689 #
straight-curve $-1 -62.542191839350565 -22.795804220961752 0 0 0 -1 I I #
coedge $-1 $369 $368 $470 $532 forward $370 $-1 #
point $-1 -62.542191839350558 -22.795804220961752 14.447276154354689 #
vertex $-1 $374 $539 #
straight-curve $-1 -69.063068937809547 -14.556178764943514 14.447276154354689 -1 0 0 I I #
coedge $-1 $388 $387 $380 $487 forward $377 $-1 #
edge $-1 $488 36.783227816617931 $491 45.978318854710309 $486 $540 forward 7 unknown #
vertex $-1 $392 $541 #
straight-curve $-1 -16.976719432681051 -54.40359783006889 14.447276154354689 0 -1 0 I I #
edge $-1 $491 -14.362758849125537 $389 9.1348376820145099 $388 $542 forward 7 unknown #
vertex $-1 $490 $543 #
straight-curve $-1 -16.976719432681051 -30.08904143174199 5.252185116262325 0 0.77714595512881146 0.62932039886446345 I I #
point $-1 -16.976719432681051 -18.734049888183776 14.447276154354689 #
point $-1 6.5208770984589961 -30.089041431742004 5.2521851162623134 #
straight-curve $-1 0 -30.089041431742004 14.447276154354689 1 0 0 I I #
vertex $-1 $395 $544 #
point $-1 -7.7631204237838958 -22.736117180244243 7.7807488122651538 #
vertex $-1 $399 $545 #
point $-1 2.3072780895618337 -22.736117180244243 7.7807488122651538 #
coedge $-1 $406 $405 $404 $501 forward $177 $-1 #
edge $-1 $410 -35.669547941885114 $508 -24.314556398326886 $500 $546 forward 7 unknown #
straight-curve $-1 -2.6139605835555138 -18.734049888183772 14.447276154354689 -1 0 0 I I #
straight-curve $-1 -2.6139605835555138 -30.089041431742004 5.2521851162623143 1 0 0 I I #
edge $-1 $508 36.783227816617931 $411 45.978318854710309 $416 $547 forward 7 unknown #
point $-1 6.5208770984589961 -18.734049888183776 14.447276154354689 #
point $-1 6.5208770984589961 -30.089041431742004 5.2521851162623134 #
point $-1 30.018473629599022 -18.734049888183776 14.447276154354689 #
vertex $-1 $417 $548 #
straight-curve $-1 0 -30.089041431742004 14.447276154354689 1 0 0 I I #
vertex $-1 $420 $549 #
point $-1 15.734476107356144 -22.736117180244243 7.7807488122651538 #
vertex $-1 $424 $550 #
point $-1 25.804874620701867 -22.736117180244243 7.7807488122651538 #
coedge $-1 $429 $437 $430 $516 forward $304 $-1 #
edge $-1 $518 -35.441108057459388 $438 -18.761059506322979 $429 $551 forward 7 unknown #
edge $-1 $522 -14.447276154354689 $518 -9.5946529222448689 $430 $552 forward 7 unknown #
edge $-1 $435 25.870720520085129 $522 30.089041431742004 $431 $553 forward 7 unknown #
vertex $-1 $432 $554 #
straight-curve $-1 62.542191839350565 6.2488101406572909 37.019702520130764 0 0.65605901945558975 -0.75470958851134939 I I #
point $-1 62.542191839350572 25.870720520085129 14.447276154354689 #
point $-1 45.862143288214163 30.089041431742004 9.5946529222448689 #
vertex $-1 $517 $555 #
straight-curve $-1 0 30.089041431742004 14.447276154354689 -1 0 0 I I #
vertex $-1 $444 $556 #
point $-1 51.627871445681706 26.169978346279414 10.447640225765202 #
vertex $-1 $448 $557 #
point $-1 58.776463681883016 26.169978346279414 10.447640225765202 #
straight-curve $-1 -62.542191839350565 30.089041431742004 0 0 0 -1 I I #
point $-1 -62.542191839350565 -30.089041431742004 -14.447276154354689 #
straight-curve $-1 -62.542191839350565 0 -14.447276154354689 0 1 0 I I #
point $-1 -62.542191839350565 30.089041431742004 -14.447276154354689 #
edge $-1 $484 -4.1198127280091192 $473 4.1198127280091192 $470 $558 forward 7 unknown #
straight-curve $-1 -75.583946036268529 -14.556178764943514 0 0 0 -1 I I #
straight-curve $-1 -69.063068937809547 -22.795804220961752 14.447276154354689 1 0 0 I I #
point $-1 -75.583946036268529 -22.795804220961752 14.447276154354689 #
point $-1 -75.583946036268529 -22.795804220961752 -14.447276154354689 #
straight-curve $-1 -75.583946036268529 -18.675991492952633 -14.447276154354689 0 1 0 I I #
point $-1 -75.583946036268529 -14.556178764943514 -14.447276154354689 #
point $-1 -75.583946036268529 -14.556178764943514 14.447276154354689 #
straight-curve $-1 -16.976719432681051 -30.089041431742004 51.23050397097262 0 0 -1 I I #
point $-1 -16.976719432681051 -30.089041431742004 14.447276154354689 #
straight-curve $-1 -2.6139605835555138 -30.089041431742004 5.2521851162623143 1 0 0 I I #
point $-1 -16.976719432681051 -30.089041431742004 5.2521851162623134 #
point $-1 -10.263120423783896 -21.162816183083088 5.8378839244431244 #
point $-1 -0.19272191043816633 -21.162816183083088 5.8378839244431244 #
straight-curve $-1 6.5208770984589961 -54.40359783006889 14.447276154354689 0 -1 0 I I #
straight-curve $-1 6.5208770984589961 -30.089041431742004 51.23050397097262 0 0 -1 I I #
point $-1 6.5208770984589961 -30.089041431742004 14.447276154354689 #
point $-1 13.234476107356144 -21.162816183083088 5.8378839244431244 #
point $-1 23.304874620701867 -21.162816183083088 5.8378839244431244 #
straight-curve $-1 27.101083781891184 30.089041431742004 9.5946529222448653 -1 0 0 I I #
straight-curve $-1 62.542191839350565 30.089041431742004 0 0 0 -1 I I #
straight-curve $-1 62.542191839350565 0 14.447276154354689 0 1 0 I I #
point $-1 62.542191839350572 30.089041431742004 9.5946529222448689 #
point $-1 62.542191839350565 30.089041431742004 14.447276154354689 #
point $-1 50.627871445681706 25.415268757768068 9.7915812063096119 #
point $-1 57.776463681883016 25.415268757768068 9.7915812063096119 #
straight-curve $-1 -75.583946036268529 -18.675991492952633 14.447276154354689 0 -1 0 I I #
End-of-ACIS-data 