500 0 8 0           
7 Unknown 11 ACIS 5.0 NT 24 Fri Mar 26 02:28:24 1999 
-1 9.9999999999999995e-007 1e-010 
body $-1 $8 $-1 $9 #
body $-1 $10 $-1 $11 #
body $-1 $12 $-1 $13 #
body $-1 $14 $-1 $15 #
body $-1 $16 $-1 $17 #
body $-1 $18 $-1 $19 #
body $-1 $20 $-1 $21 #
body $-1 $22 $-1 $23 #
lump $-1 $-1 $24 $0 #
transform $-1 1 0 0 0 1 0 0 0 1 67.155369731742297 42.102299412891291 9.4593010665536799 1 rotate no_reflect no_shear #
lump $-1 $-1 $25 $1 #
transform $-1 1 0 0 0 1 0 0 0 1 67.155369731742297 42.102299412891291 9.4593010665536799 1 rotate no_reflect no_shear #
lump $-1 $-1 $26 $2 #
transform $-1 1 0 0 0 1 0 0 0 1 67.155369731742297 42.102299412891291 9.4593010665536799 1 rotate no_reflect no_shear #
lump $-1 $-1 $27 $3 #
transform $-1 1 0 0 0 1 0 0 0 1 67.155369731742297 42.102299412891291 9.4593010665536799 1 rotate no_reflect no_shear #
lump $-1 $-1 $28 $4 #
transform $-1 1 0 0 0 1 0 0 0 1 67.155369731742297 42.102299412891291 9.4593010665536799 1 rotate no_reflect no_shear #
lump $-1 $-1 $29 $5 #
transform $-1 1 0 0 0 1 0 0 0 1 67.155369731742297 42.102299412891291 9.4593010665536799 1 rotate no_reflect no_shear #
lump $-1 $-1 $30 $6 #
transform $-1 1 0 0 0 1 0 0 0 1 67.155369731742297 42.102299412891291 9.4593010665536799 1 rotate no_reflect no_shear #
lump $-1 $-1 $31 $7 #
transform $-1 1 0 0 0 1 0 0 0 1 67.155369731742297 42.102299412891291 9.4593010665536799 1 rotate no_reflect no_shear #
shell $-1 $-1 $-1 $32 $-1 $8 #
shell $-1 $-1 $-1 $33 $-1 $10 #
shell $-1 $-1 $-1 $34 $-1 $12 #
shell $-1 $-1 $-1 $35 $-1 $14 #
shell $-1 $-1 $-1 $36 $-1 $16 #
shell $-1 $-1 $-1 $37 $-1 $18 #
shell $-1 $-1 $-1 $38 $-1 $20 #
shell $-1 $-1 $-1 $39 $-1 $22 #
face $-1 $40 $41 $24 $-1 $42 reversed single #
face $-1 $43 $44 $25 $-1 $45 forward single #
face $-1 $46 $47 $26 $-1 $48 reversed single #
face $-1 $49 $50 $27 $-1 $51 forward single #
face $-1 $52 $53 $28 $-1 $54 forward single #
face $-1 $55 $56 $29 $-1 $57 reversed single #
face $-1 $58 $59 $30 $-1 $60 forward single #
face $-1 $61 $62 $31 $-1 $63 forward single #
face $-1 $64 $65 $24 $-1 $66 forward single #
loop $-1 $-1 $67 $32 #
plane-surface $-1 -67.155369731742297 0 0 1 0 0 0 0 -1 forward_v I I I I #
face $-1 $68 $69 $25 $-1 $70 reversed single #
loop $-1 $-1 $71 $33 #
plane-surface $-1 -67.155369731742297 0 0 1 0 0 0 0 -1 forward_v I I I I #
face $-1 $72 $73 $26 $-1 $74 reversed single #
loop $-1 $-1 $75 $34 #
plane-surface $-1 -29.6193450196116 80.223932341398125 159.32318263694725 1 0 0 0 -0.71933980857756763 -0.69465836192734942 forward_v I I I I #
face $-1 $76 $77 $27 $-1 $78 forward single #
loop $-1 $79 $80 $35 #
cone-surface $-1 -19.53741681350278 38.80646331069363 6.1413917739562542 0 -0.71933980857756763 -0.69465836192734942 1 0 0 1 I I 0 1 1 forward I I I I #
face $-1 $81 $82 $28 $-1 $83 forward single #
loop $-1 $84 $85 $36 #
cone-surface $-1 -4.4145245043395533 38.80646331069363 6.1413917739562542 0 -0.71933980857756763 -0.69465836192734942 1 0 0 1 I I 0 1 1 forward I I I I #
face $-1 $86 $87 $29 $-1 $88 reversed single #
loop $-1 $-1 $89 $37 #
plane-surface $-1 -24.192923484547343 -157.22907446641952 70.675880238954278 -1 0 0 0 -0.85716730853699208 0.51503806187062418 forward_v I I I I #
face $-1 $90 $91 $30 $-1 $92 forward single #
loop $-1 $93 $94 $38 #
cone-surface $-1 -46.052462629868835 -38.196384731067006 4.5697628508172565 0 0.85716730853699208 -0.51503806187062418 1 0 0 1 I I 0 1 1 forward I I I I #
face $-1 $95 $96 $31 $-1 $97 forward single #
loop $-1 $98 $99 $39 #
cone-surface $-1 -32.936739142675933 -38.196384731067006 4.5697628508172565 0 0.85716730853699208 -0.51503806187062418 1 0 0 1 I I 0 1 1 forward I I I I #
face $-1 $100 $101 $24 $-1 $102 reversed single #
loop $-1 $-1 $103 $40 #
plane-surface $-1 0 0 9.4593010665536799 0 0 1 1 0 0 forward_v I I I I #
coedge $-1 $104 $105 $106 $107 reversed $41 $-1 #
face $-1 $108 $109 $25 $-1 $110 reversed single #
loop $-1 $-1 $111 $43 #
plane-surface $-1 0 0 -9.4593010665536799 0 0 1 1 0 0 forward_v I I I I #
coedge $-1 $112 $113 $114 $115 forward $44 $-1 #
face $-1 $116 $117 $26 $-1 $118 reversed single #
loop $-1 $-1 $119 $46 #
plane-surface $-1 -11.975970658921163 -16.391129274176436 66.023104371992034 0 0.71933980857756763 0.69465836192734942 1 0 0 forward_v I I I I #
coedge $-1 $120 $121 $122 $123 reversed $47 $-1 #
face $-1 $-1 $124 $27 $-1 $125 forward single #
loop $-1 $126 $127 $49 #
cone-surface $-1 -19.53741681350278 37.086157339757641 4.4801116480206513 0 -0.71933980857756763 -0.69465836192734942 0.5 0 0 1 I I -0.70710678118654746 0.70710678118654746 0.5 forward I I I I #
loop $-1 $-1 $128 $35 #
coedge $-1 $80 $80 $129 $130 reversed $50 $-1 #
face $-1 $-1 $131 $28 $-1 $132 forward single #
loop $-1 $133 $134 $52 #
cone-surface $-1 -4.4145245043395533 37.086157339757641 4.4801116480206513 0 -0.71933980857756763 -0.69465836192734942 0.5 0 0 1 I I -0.70710678118654746 0.70710678118654746 0.5 forward I I I I #
loop $-1 $-1 $135 $36 #
coedge $-1 $85 $85 $136 $137 reversed $53 $-1 #
face $-1 $138 $139 $29 $-1 $140 reversed single #
loop $-1 $-1 $141 $55 #
plane-surface $-1 -39.494600886272387 -42.102299412891256 1.5007372972708168 0 -0.85716730853699208 0.51503806187062418 1 0 0 forward_v I I I I #
coedge $-1 $142 $143 $144 $145 reversed $56 $-1 #
face $-1 $-1 $146 $30 $-1 $147 forward single #
loop $-1 $148 $149 $58 #
cone-surface $-1 -46.052462629868835 -36.252880089076541 3.4019874887869488 0 0.85716730853699208 -0.51503806187062418 0.5 0 0 1 I I -0.70710678118654746 0.70710678118654746 0.5 forward I I I I #
loop $-1 $-1 $150 $38 #
coedge $-1 $94 $94 $151 $152 reversed $59 $-1 #
face $-1 $-1 $153 $31 $-1 $154 forward single #
loop $-1 $155 $156 $61 #
cone-surface $-1 -32.936739142675933 -36.252880089076541 3.4019874887869488 0 0.85716730853699208 -0.51503806187062418 0.5 0 0 1 I I -0.70710678118654746 0.70710678118654746 0.5 forward I I I I #
loop $-1 $-1 $157 $39 #
coedge $-1 $99 $99 $158 $159 reversed $62 $-1 #
face $-1 $160 $161 $24 $-1 $162 reversed single #
loop $-1 $-1 $163 $64 #
plane-surface $-1 0 0 -9.4593010665536799 0 0 1 1 0 0 forward_v I I I I #
coedge $-1 $164 $165 $166 $167 forward $65 $-1 #
coedge $-1 $168 $67 $169 $170 reversed $41 $-1 #
coedge $-1 $67 $168 $171 $172 forward $41 $-1 #
coedge $-1 $173 $174 $67 $107 forward $101 $-1 #
edge $-1 $175 -42.102299412891291 $176 42.102299412891291 $67 $177 forward 7 unknown #
face $-1 $178 $179 $25 $-1 $180 reversed single #
loop $-1 $-1 $181 $68 #
plane-surface $-1 -70.3260961559305 -41.29258161645101 0 0 1 0 0 0 1 forward_v I I I I #
coedge $-1 $182 $183 $113 $184 forward $69 $-1 #
coedge $-1 $185 $71 $186 $187 reversed $44 $-1 #
coedge $-1 $71 $185 $111 $184 reversed $44 $-1 #
coedge $-1 $188 $189 $71 $115 reversed $190 $-1 #
edge $-1 $191 -9.4593010665536799 $192 9.4593010665536799 $114 $193 forward 7 unknown #
face $-1 $194 $195 $26 $-1 $196 forward single #
loop $-1 $-1 $197 $72 #
plane-surface $-1 5.667403701769274 80.223932341398125 159.32318263694725 -1 0 0 0 0.71933980857756763 0.69465836192734942 forward_v I I I I #
coedge $-1 $198 $199 $200 $201 reversed $73 $-1 #
coedge $-1 $121 $75 $202 $203 reversed $47 $-1 #
coedge $-1 $75 $120 $198 $204 reversed $47 $-1 #
coedge $-1 $200 $205 $75 $123 forward $195 $-1 #
edge $-1 $206 -1.9903332421922286 $207 1.8800668289086389 $122 $208 forward 7 unknown #
loop $-1 $-1 $129 $76 #
plane-surface $-1 -11.975970658921163 -16.391129274176436 66.023104371992034 0 0.71933980857756763 0.69465836192734942 1 0 0 forward_v I I I I #
loop $-1 $-1 $209 $49 #
coedge $-1 $127 $127 $128 $210 reversed $77 $-1 #
coedge $-1 $128 $128 $127 $210 forward $79 $-1 #
coedge $-1 $129 $129 $80 $130 forward $124 $-1 #
edge $-1 $211 1.1650187731707037e-015 $211 6.2831853071796013 $129 $212 forward 7 unknown #
loop $-1 $-1 $136 $81 #
plane-surface $-1 -11.975970658921163 -16.391129274176436 66.023104371992034 0 0.71933980857756763 0.69465836192734942 1 0 0 forward_v I I I I #
loop $-1 $-1 $213 $52 #
coedge $-1 $134 $134 $135 $214 reversed $82 $-1 #
coedge $-1 $135 $135 $134 $214 forward $84 $-1 #
coedge $-1 $136 $136 $85 $137 forward $131 $-1 #
edge $-1 $215 1.1650187731707037e-015 $215 6.2831853071796013 $136 $216 forward 7 unknown #
face $-1 $217 $218 $29 $-1 $219 forward single #
loop $-1 $-1 $220 $86 #
plane-surface $-1 -54.796278287997431 -157.22907446641952 70.675880238954278 1 0 0 0 0.85716730853699208 -0.51503806187062418 forward_v I I I I #
coedge $-1 $221 $222 $223 $224 reversed $87 $-1 #
coedge $-1 $143 $89 $225 $226 reversed $56 $-1 #
coedge $-1 $89 $142 $221 $227 reversed $56 $-1 #
coedge $-1 $223 $228 $89 $145 forward $218 $-1 #
edge $-1 $229 36.512237820318468 $230 41.294225208523152 $144 $231 forward 7 unknown #
loop $-1 $-1 $151 $90 #
plane-surface $-1 -39.494600886272387 -42.102299412891256 1.5007372972708168 0 -0.85716730853699208 0.51503806187062418 1 0 0 forward_v I I I I #
loop $-1 $-1 $232 $58 #
coedge $-1 $149 $149 $150 $233 reversed $91 $-1 #
coedge $-1 $150 $150 $149 $233 forward $93 $-1 #
coedge $-1 $151 $151 $94 $152 forward $146 $-1 #
edge $-1 $234 -7.8752504826176028e-016 $234 6.2831853071795996 $151 $235 forward 7 unknown #
loop $-1 $-1 $158 $95 #
plane-surface $-1 -39.494600886272387 -42.102299412891256 1.5007372972708168 0 -0.85716730853699208 0.51503806187062418 1 0 0 forward_v I I I I #
loop $-1 $-1 $236 $61 #
coedge $-1 $156 $156 $157 $237 reversed $96 $-1 #
coedge $-1 $157 $157 $156 $237 forward $98 $-1 #
coedge $-1 $158 $158 $99 $159 forward $153 $-1 #
edge $-1 $238 -7.8752504826176028e-016 $238 6.2831853071795996 $158 $239 forward 7 unknown #
face $-1 $240 $241 $24 $-1 $242 reversed single #
loop $-1 $-1 $169 $100 #
plane-surface $-1 0 -42.102299412891291 0 0 1 0 0 0 1 forward_v I I I I #
coedge $-1 $174 $173 $243 $244 forward $101 $-1 #
coedge $-1 $245 $103 $246 $247 forward $65 $-1 #
coedge $-1 $103 $245 $248 $249 forward $65 $-1 #
coedge $-1 $250 $251 $103 $167 reversed $252 $-1 #
edge $-1 $253 -42.102299412891291 $254 42.102299412891291 $166 $255 forward 7 unknown #
coedge $-1 $105 $104 $245 $256 reversed $41 $-1 #
coedge $-1 $257 $248 $104 $170 forward $161 $-1 #
edge $-1 $258 -9.4593010665536799 $175 9.4593010665536799 $104 $259 forward 7 unknown #
coedge $-1 $246 $260 $105 $172 reversed $241 $-1 #
edge $-1 $261 -9.4593010665536799 $176 9.4593010665536799 $171 $262 forward 7 unknown #
coedge $-1 $163 $106 $260 $263 forward $101 $-1 #
coedge $-1 $106 $163 $257 $264 forward $101 $-1 #
vertex $-1 $107 $265 #
vertex $-1 $263 $266 #
straight-curve $-1 -67.155369731742297 0 -9.4593010665536799 0 1 0 I I #
face $-1 $267 $190 $25 $-1 $268 reversed single #
loop $-1 $-1 $269 $108 #
plane-surface $-1 -73.496822580118703 -39.448671777210365 0 1 0 0 0 0 -1 forward_v I I I I #
coedge $-1 $270 $271 $272 $273 forward $109 $-1 #
coedge $-1 $274 $111 $270 $275 forward $69 $-1 #
coedge $-1 $111 $274 $188 $276 forward $69 $-1 #
edge $-1 $191 37.60476193796972 $277 41.29258161645101 $111 $278 forward 7 unknown #
coedge $-1 $113 $112 $279 $280 forward $44 $-1 #
coedge $-1 $281 $282 $112 $187 forward $283 $-1 #
edge $-1 $284 -41.29258161645101 $192 -37.60476193796972 $186 $285 forward 7 unknown #
coedge $-1 $286 $114 $183 $276 reversed $190 $-1 #
coedge $-1 $114 $286 $281 $287 reversed $190 $-1 #
loop $-1 $-1 $114 $178 #
vertex $-1 $184 $288 #
vertex $-1 $287 $289 #
straight-curve $-1 -67.155369731742297 -37.60476193796972 0 0 0 1 I I #
face $-1 $-1 $290 $26 $-1 $291 reversed single #
loop $-1 $-1 $122 $116 #
plane-surface $-1 0 0 9.4593010665536799 0 0 1 1 0 0 forward_v I I I I #
coedge $-1 $292 $293 $294 $295 reversed $117 $-1 #
coedge $-1 $296 $119 $121 $204 forward $73 $-1 #
coedge $-1 $119 $296 $292 $297 forward $73 $-1 #
coedge $-1 $294 $122 $119 $201 forward $195 $-1 #
edge $-1 $207 -23.631359690151019 $298 11.655389031229856 $200 $299 forward 7 unknown #
coedge $-1 $300 $301 $120 $203 forward $290 $-1 #
edge $-1 $302 -74.210206947170903 $206 -70.202290251919948 $202 $303 forward 7 unknown #
edge $-1 $207 78.632939024031486 $302 84.204598825782568 $121 $304 forward 7 unknown #
coedge $-1 $122 $294 $300 $305 forward $195 $-1 #
vertex $-1 $203 $306 #
vertex $-1 $123 $307 #
straight-curve $-1 -29.6193450196116 40.111966170699063 9.4593010665536781 0 -1 0 I I #
coedge $-1 $209 $209 $-1 $308 reversed $126 $-1 #
edge $-1 $309 0 $309 6.2831853071796004 $127 $310 forward 7 unknown #
vertex $-1 $130 $311 #
ellipse-curve $-1 -19.53741681350278 40.167099377340861 7.4553427189282049 0 0.71933980857756763 0.69465836192734942 1 0 0 1 I I #
coedge $-1 $213 $213 $-1 $312 reversed $133 $-1 #
edge $-1 $313 0 $313 6.2831853071796004 $134 $314 forward 7 unknown #
vertex $-1 $137 $315 #
ellipse-curve $-1 -4.4145245043395533 40.167099377340861 7.4553427189282049 0 0.71933980857756763 0.69465836192734942 1 0 0 1 I I #
face $-1 $-1 $316 $29 $-1 $317 reversed single #
loop $-1 $-1 $144 $138 #
plane-surface $-1 0 0 9.4593010665536799 0 0 1 1 0 0 forward_v I I I I #
coedge $-1 $318 $319 $320 $321 reversed $139 $-1 #
coedge $-1 $322 $141 $143 $227 forward $87 $-1 #
coedge $-1 $141 $322 $318 $323 forward $87 $-1 #
coedge $-1 $320 $144 $141 $224 forward $218 $-1 #
edge $-1 $230 4.4456230414111495 $324 35.048977844861241 $223 $325 forward 7 unknown #
coedge $-1 $326 $327 $142 $226 forward $316 $-1 #
edge $-1 $328 -33.837202822206379 $229 -25.878639052923461 $225 $329 forward 7 unknown #
edge $-1 $230 -9.2847262022469046 $328 6.8925441791853865e-014 $143 $330 forward 7 unknown #
coedge $-1 $144 $320 $326 $331 forward $218 $-1 #
vertex $-1 $145 $332 #
vertex $-1 $145 $333 #
straight-curve $-1 -24.192923484547343 -78.614537233209759 9.4593010665536781 0 1 0 I I #
coedge $-1 $232 $232 $-1 $334 reversed $148 $-1 #
edge $-1 $335 0 $335 6.2831853071796004 $149 $336 forward 7 unknown #
vertex $-1 $152 $337 #
ellipse-curve $-1 -46.052462629868835 -39.711305718788942 5.4800191819122324 0 -0.85716730853699208 0.51503806187062418 1 0 0 1 I I #
coedge $-1 $236 $236 $-1 $338 reversed $155 $-1 #
edge $-1 $339 0 $339 6.2831853071796004 $156 $340 forward 7 unknown #
vertex $-1 $159 $341 #
ellipse-curve $-1 -32.936739142675933 -39.711305718788942 5.4800191819122324 0 -0.85716730853699208 0.51503806187062418 1 0 0 1 I I #
face $-1 $-1 $252 $24 $-1 $342 reversed single #
loop $-1 $-1 $343 $160 #
plane-surface $-1 0 42.102299412891291 0 0 -1 0 0 0 -1 forward_v I I I I #
coedge $-1 $251 $250 $163 $244 reversed $252 $-1 #
edge $-1 $344 -42.102299412891291 $345 42.102299412891291 $243 $346 forward 7 unknown #
coedge $-1 $165 $164 $168 $256 forward $65 $-1 #
coedge $-1 $343 $171 $164 $247 reversed $241 $-1 #
edge $-1 $254 -67.155369731742297 $261 67.155369731742297 $246 $347 forward 7 unknown #
coedge $-1 $169 $348 $165 $249 reversed $161 $-1 #
edge $-1 $258 -67.155369731742297 $253 67.155369731742297 $248 $349 forward 7 unknown #
coedge $-1 $243 $166 $348 $350 forward $252 $-1 #
coedge $-1 $166 $243 $343 $351 reversed $252 $-1 #
loop $-1 $-1 $250 $240 #
vertex $-1 $167 $352 #
vertex $-1 $167 $353 #
straight-curve $-1 67.155369731742297 0 9.4593010665536799 0 1 0 I I #
edge $-1 $261 -42.102299412891291 $258 42.102299412891291 $168 $354 forward 7 unknown #
coedge $-1 $348 $169 $174 $264 reversed $161 $-1 #
vertex $-1 $256 $355 #
straight-curve $-1 -67.155369731742297 -42.102299412891291 0 0 0 -1 I I #
coedge $-1 $171 $343 $173 $263 reversed $241 $-1 #
vertex $-1 $247 $356 #
straight-curve $-1 -67.155369731742297 42.102299412891291 0 0 0 -1 I I #
edge $-1 $176 -67.155369731742297 $344 67.155369731742297 $260 $357 forward 7 unknown #
edge $-1 $345 -67.155369731742297 $175 67.155369731742297 $257 $358 forward 7 unknown #
point $-1 -67.155369731742297 -42.102299412891291 -9.4593010665536799 #
point $-1 -67.155369731742297 42.102299412891291 -9.4593010665536799 #
face $-1 $-1 $283 $25 $-1 $359 forward single #
plane-surface $-1 -70.3260961559305 -37.60476193796972 0 0 -1 0 0 0 -1 forward_v I I I I #
coedge $-1 $360 $361 $286 $362 forward $179 $-1 #
coedge $-1 $279 $181 $182 $275 reversed $109 $-1 #
coedge $-1 $181 $279 $282 $363 reversed $109 $-1 #
coedge $-1 $361 $360 $181 $273 reversed $179 $-1 #
edge $-1 $364 -9.4593010665536799 $365 9.4593010665536799 $272 $366 forward 7 unknown #
coedge $-1 $183 $182 $360 $367 forward $69 $-1 #
edge $-1 $277 -3.1707264241882029 $365 3.1707264241882029 $270 $368 forward 7 unknown #
edge $-1 $369 -3.1707264241882029 $191 3.1707264241882029 $188 $370 forward 7 unknown #
vertex $-1 $275 $371 #
straight-curve $-1 -67.155369731742297 0 -9.4593010665536799 0 -1 0 I I #
coedge $-1 $271 $270 $185 $280 reversed $109 $-1 #
edge $-1 $284 -9.4593010665536799 $277 9.4593010665536799 $279 $372 forward 7 unknown #
coedge $-1 $373 $186 $189 $287 forward $283 $-1 #
coedge $-1 $186 $373 $271 $363 forward $283 $-1 #
loop $-1 $-1 $186 $267 #
vertex $-1 $187 $374 #
straight-curve $-1 -67.155369731742297 0 9.4593010665536799 0 1 0 I I #
coedge $-1 $189 $188 $269 $362 reversed $190 $-1 #
edge $-1 $192 -3.1707264241882029 $375 3.1707264241882029 $189 $376 forward 7 unknown #
point $-1 -67.155369731742297 -37.60476193796972 -9.4593010665536799 #
point $-1 -67.155369731742297 -37.60476193796972 9.4593010665536799 #
loop $-1 $-1 $202 $194 #
plane-surface $-1 0 42.102299412891291 0 0 -1 0 0 0 -1 forward_v I I I I #
coedge $-1 $293 $197 $199 $297 reversed $117 $-1 #
coedge $-1 $197 $292 $377 $378 reversed $117 $-1 #
coedge $-1 $205 $200 $197 $295 forward $195 $-1 #
edge $-1 $298 -1.8800668289086389 $379 1.9903332421922286 $294 $380 forward 7 unknown #
coedge $-1 $199 $198 $301 $381 reversed $73 $-1 #
edge $-1 $382 -84.204598825782568 $298 -78.632939024031486 $292 $383 forward 7 unknown #
vertex $-1 $201 $384 #
straight-curve $-1 -5.9879853294605816 38.231899341790424 9.4593010665536852 1 0 0 I I #
coedge $-1 $377 $202 $205 $305 reversed $290 $-1 #
coedge $-1 $202 $377 $296 $381 forward $290 $-1 #
vertex $-1 $203 $385 #
straight-curve $-1 -29.6193450196116 42.102299412891291 79.661591318473626 0 0 1 I I #
straight-curve $-1 -29.6193450196116 -16.391129274176436 66.023104371992034 0 0.69465836192734942 -0.71933980857756763 I I #
edge $-1 $379 -5.667403701769274 $206 29.6193450196116 $300 $386 forward 7 unknown #
point $-1 -29.6193450196116 42.102299412891291 9.4593010665536799 #
point $-1 -29.6193450196116 38.231899341790424 9.4593010665536781 #
edge $-1 $387 1 $387 0 $209 $-1 forward 7 unknown #
vertex $-1 $210 $388 #
ellipse-curve $-1 -19.53741681350278 37.445827244046427 4.8274408289843258 0 0.71933980857756763 0.69465836192734942 1 0 0 1 I I #
point $-1 -18.53741681350278 40.16709937734084 7.4553427189281827 #
edge $-1 $389 1 $389 0 $213 $-1 forward 7 unknown #
vertex $-1 $214 $390 #
ellipse-curve $-1 -4.4145245043395533 37.445827244046427 4.8274408289843258 0 0.71933980857756763 0.69465836192734942 1 0 0 1 I I #
point $-1 -3.4145245043395533 40.16709937734084 7.4553427189281827 #
loop $-1 $-1 $225 $217 #
plane-surface $-1 0 -42.102299412891291 0 0 1 0 0 0 1 forward_v I I I I #
coedge $-1 $319 $220 $222 $323 reversed $139 $-1 #
coedge $-1 $220 $318 $391 $392 reversed $139 $-1 #
coedge $-1 $228 $223 $220 $321 forward $218 $-1 #
edge $-1 $324 -41.294225208523152 $393 -36.512237820318468 $320 $394 forward 7 unknown #
coedge $-1 $222 $221 $327 $395 reversed $87 $-1 #
edge $-1 $396 -6.8925441791853865e-014 $324 9.2847262022469046 $318 $397 forward 7 unknown #
vertex $-1 $224 $398 #
straight-curve $-1 -19.747300443136194 -37.320312024686608 9.4593010665536799 -1 0 0 I I #
coedge $-1 $391 $225 $228 $331 reversed $316 $-1 #
coedge $-1 $225 $391 $322 $395 forward $316 $-1 #
vertex $-1 $226 $399 #
straight-curve $-1 -24.192923484547343 -42.102299412891291 35.337940119477139 0 0 1 I I #
straight-curve $-1 -24.192923484547343 -42.102299412891256 1.5007372972708168 0 -0.51503806187062418 -0.85716730853699208 I I #
edge $-1 $393 -54.796278287997431 $229 -24.192923484547343 $326 $400 forward 7 unknown #
point $-1 -24.192923484547343 -42.102299412891291 9.4593010665536799 #
point $-1 -24.192923484547343 -37.320312024686608 9.4593010665536816 #
edge $-1 $401 1 $401 0 $232 $-1 forward 7 unknown #
vertex $-1 $233 $402 #
ellipse-curve $-1 -46.052462629868835 -36.681463743345034 3.6595065197222607 0 -0.85716730853699208 0.51503806187062418 1 0 0 1 I I #
point $-1 -45.052462629868835 -39.711305718788978 5.4800191819122528 #
edge $-1 $403 1 $403 0 $236 $-1 forward 7 unknown #
vertex $-1 $237 $404 #
ellipse-curve $-1 -32.936739142675933 -36.681463743345034 3.6595065197222607 0 -0.85716730853699208 0.51503806187062418 1 0 0 1 I I #
point $-1 -31.936739142675933 -39.711305718788978 5.4800191819122528 #
plane-surface $-1 67.155369731742297 0 0 -1 0 0 0 0 1 forward_v I I I I #
coedge $-1 $260 $246 $251 $351 forward $241 $-1 #
vertex $-1 $244 $405 #
vertex $-1 $350 $406 #
straight-curve $-1 67.155369731742297 0 -9.4593010665536799 0 -1 0 I I #
straight-curve $-1 0 42.102299412891291 9.4593010665536799 -1 0 0 I I #
coedge $-1 $248 $257 $250 $350 reversed $161 $-1 #
straight-curve $-1 0 -42.102299412891291 9.4593010665536799 1 0 0 I I #
edge $-1 $253 -9.4593010665536799 $345 9.4593010665536799 $250 $407 forward 7 unknown #
edge $-1 $254 -9.4593010665536799 $344 9.4593010665536799 $251 $408 forward 7 unknown #
point $-1 67.155369731742297 -42.102299412891291 9.4593010665536799 #
point $-1 67.155369731742297 42.102299412891291 9.4593010665536799 #
straight-curve $-1 -67.155369731742297 0 9.4593010665536799 0 -1 0 I I #
point $-1 -67.155369731742297 -42.102299412891291 9.4593010665536799 #
point $-1 -67.155369731742297 42.102299412891291 9.4593010665536799 #
straight-curve $-1 0 42.102299412891291 -9.4593010665536799 1 0 0 I I #
straight-curve $-1 0 -42.102299412891291 -9.4593010665536799 -1 0 0 I I #
plane-surface $-1 0 0 9.4593010665536799 0 0 1 1 0 0 forward_v I I I I #
coedge $-1 $272 $269 $274 $367 reversed $179 $-1 #
coedge $-1 $269 $272 $373 $409 reversed $179 $-1 #
edge $-1 $375 -9.4593010665536799 $369 9.4593010665536799 $286 $410 forward 7 unknown #
edge $-1 $364 -3.1707264241882029 $284 3.1707264241882029 $271 $411 forward 7 unknown #
vertex $-1 $409 $412 #
vertex $-1 $367 $413 #
straight-curve $-1 -73.496822580118703 -41.29258161645101 0 0 0 -1 I I #
edge $-1 $365 -1.843909839240645 $369 1.843909839240645 $360 $414 forward 7 unknown #
straight-curve $-1 -70.3260961559305 -41.29258161645101 -9.4593010665536799 -1 0 0 I I #
vertex $-1 $276 $415 #
straight-curve $-1 -70.3260961559305 -37.60476193796972 -9.4593010665536799 1 0 0 I I #
point $-1 -67.155369731742297 -41.29258161645101 -9.4593010665536799 #
straight-curve $-1 -67.155369731742297 -41.29258161645101 0 0 0 -1 I I #
coedge $-1 $282 $281 $361 $409 forward $283 $-1 #
point $-1 -67.155369731742297 -41.29258161645101 9.4593010665536799 #
vertex $-1 $287 $416 #
straight-curve $-1 -70.3260961559305 -37.60476193796972 9.4593010665536799 -1 0 0 I I #
coedge $-1 $301 $300 $293 $378 forward $290 $-1 #
edge $-1 $379 70.202290251919948 $382 74.210206947170903 $377 $417 forward 7 unknown #
vertex $-1 $305 $418 #
straight-curve $-1 5.667403701769274 40.111966170699063 9.4593010665536781 0 1 0 I I #
edge $-1 $382 -11.655389031229856 $302 23.631359690151019 $301 $419 forward 7 unknown #
vertex $-1 $381 $420 #
straight-curve $-1 5.667403701769274 -16.391129274176436 66.023104371992034 0 -0.69465836192734942 0.71933980857756763 I I #
point $-1 5.667403701769274 38.231899341790424 9.4593010665536781 #
point $-1 -29.6193450196116 42.102299412891291 5.4513843713027228 #
straight-curve $-1 0 42.102299412891291 9.4593010665536799 -1 0 0 I I #
vertex $-1 $308 $421 #
point $-1 -18.53741681350278 37.445827244046427 4.8274408289843258 #
vertex $-1 $312 $422 #
point $-1 -3.4145245043395533 37.445827244046427 4.8274408289843258 #
coedge $-1 $327 $326 $319 $392 forward $316 $-1 #
edge $-1 $393 25.878639052923461 $396 33.837202822206379 $391 $423 forward 7 unknown #
vertex $-1 $331 $424 #
straight-curve $-1 -54.796278287997431 -78.614537233209759 9.4593010665536781 0 -1 0 I I #
edge $-1 $396 -35.048977844861241 $328 -4.4456230414111495 $327 $425 forward 7 unknown #
vertex $-1 $395 $426 #
straight-curve $-1 -54.796278287997431 -42.102299412891256 1.5007372972708168 0 0.51503806187062418 0.85716730853699208 I I #
point $-1 -54.796278287997431 -37.320312024686608 9.4593010665536816 #
point $-1 -24.192923484547343 -42.102299412891291 1.5007372972707578 #
straight-curve $-1 0 -42.102299412891291 9.4593010665536799 1 0 0 I I #
vertex $-1 $334 $427 #
point $-1 -45.052462629868835 -36.681463743345034 3.6595065197222607 #
vertex $-1 $338 $428 #
point $-1 -31.936739142675933 -36.681463743345034 3.6595065197222607 #
point $-1 67.155369731742297 42.102299412891291 -9.4593010665536799 #
point $-1 67.155369731742297 -42.102299412891291 -9.4593010665536799 #
straight-curve $-1 67.155369731742297 -42.102299412891291 0 0 0 -1 I I #
straight-curve $-1 67.155369731742297 42.102299412891291 0 0 0 -1 I I #
edge $-1 $375 -1.843909839240645 $364 1.843909839240645 $361 $429 forward 7 unknown #
straight-curve $-1 -73.496822580118703 -37.60476193796972 0 0 0 -1 I I #
straight-curve $-1 -70.3260961559305 -41.29258161645101 9.4593010665536799 1 0 0 I I #
point $-1 -73.496822580118703 -41.29258161645101 9.4593010665536799 #
point $-1 -73.496822580118703 -41.29258161645101 -9.4593010665536799 #
straight-curve $-1 -73.496822580118703 -39.448671777210365 -9.4593010665536799 0 1 0 I I #
point $-1 -73.496822580118703 -37.60476193796972 -9.4593010665536799 #
point $-1 -73.496822580118703 -37.60476193796972 9.4593010665536799 #
straight-curve $-1 5.667403701769274 42.102299412891291 79.661591318473626 0 0 -1 I I #
point $-1 5.667403701769274 42.102299412891291 9.4593010665536799 #
straight-curve $-1 -5.9879853294605816 42.102299412891291 5.4513843713027299 -1 0 0 I I #
point $-1 5.667403701769274 42.102299412891291 5.4513843713027228 #
point $-1 -19.53741681350278 36.726487435468854 4.1327824670569768 #
point $-1 -4.4145245043395533 36.726487435468854 4.1327824670569768 #
straight-curve $-1 -54.796278287997431 -42.102299412891291 35.337940119477139 0 0 -1 I I #
point $-1 -54.796278287997431 -42.102299412891291 9.4593010665536799 #
straight-curve $-1 -19.747300443136194 -42.102299412891291 1.5007372972707544 1 0 0 I I #
point $-1 -54.796278287997431 -42.102299412891291 1.5007372972707578 #
point $-1 -46.052462629868835 -35.824296434808048 3.1444684578516369 #
point $-1 -32.936739142675933 -35.824296434808048 3.1444684578516369 #
straight-curve $-1 -73.496822580118703 -39.448671777210365 9.4593010665536799 0 -1 0 I I #
End-of-ACIS-data 