500 0 7 0           
7 Unknown 11 ACIS 5.0 NT 24 Fri Mar 26 03:14:57 1999 
-1 9.9999999999999995e-007 1e-010 
body $-1 $7 $-1 $8 #
body $-1 $9 $-1 $10 #
body $-1 $11 $-1 $12 #
body $-1 $13 $-1 $14 #
body $-1 $15 $-1 $16 #
body $-1 $17 $-1 $18 #
body $-1 $19 $-1 $20 #
lump $-1 $-1 $21 $0 #
transform $-1 1 0 0 0 1 0 0 0 1 77.173986022522655 50.939729663714303 19.719848714813175 1 rotate no_reflect no_shear #
lump $-1 $-1 $22 $1 #
transform $-1 1 0 0 0 1 0 0 0 1 77.173986022522655 50.939729663714303 19.719848714813175 1 rotate no_reflect no_shear #
lump $-1 $-1 $23 $2 #
transform $-1 1 0 0 0 1 0 0 0 1 77.173986022522655 50.939729663714303 19.719848714813175 1 rotate no_reflect no_shear #
lump $-1 $-1 $24 $3 #
transform $-1 1 0 0 0 1 0 0 0 1 77.173986022522655 50.939729663714303 19.719848714813175 1 rotate no_reflect no_shear #
lump $-1 $-1 $25 $4 #
transform $-1 1 0 0 0 1 0 0 0 1 77.173986022522655 50.939729663714303 19.719848714813175 1 rotate no_reflect no_shear #
lump $-1 $-1 $26 $5 #
transform $-1 1 0 0 0 1 0 0 0 1 77.173986022522655 50.939729663714303 19.719848714813175 1 rotate no_reflect no_shear #
lump $-1 $-1 $27 $6 #
transform $-1 1 0 0 0 1 0 0 0 1 77.173986022522655 50.939729663714303 19.719848714813175 1 rotate no_reflect no_shear #
shell $-1 $-1 $-1 $28 $-1 $7 #
shell $-1 $-1 $-1 $29 $-1 $9 #
shell $-1 $-1 $-1 $30 $-1 $11 #
shell $-1 $-1 $-1 $31 $-1 $13 #
shell $-1 $-1 $-1 $32 $-1 $15 #
shell $-1 $-1 $-1 $33 $-1 $17 #
shell $-1 $-1 $-1 $34 $-1 $19 #
face $-1 $35 $36 $21 $-1 $37 forward single #
face $-1 $38 $39 $22 $-1 $40 reversed single #
face $-1 $41 $42 $23 $-1 $43 forward single #
face $-1 $44 $45 $24 $-1 $46 reversed single #
face $-1 $47 $48 $25 $-1 $49 forward single #
face $-1 $50 $51 $26 $-1 $52 forward single #
face $-1 $53 $54 $27 $-1 $55 forward single #
face $-1 $56 $57 $21 $-1 $58 reversed single #
loop $-1 $-1 $59 $28 #
plane-surface $-1 0 0 19.719848714813175 0 0 1 1 0 0 forward_v I I I I #
face $-1 $60 $61 $22 $-1 $62 reversed single #
loop $-1 $-1 $63 $29 #
plane-surface $-1 -66.538718402237095 0 14.486057512284894 0 0 1 1 0 0 forward_v I I I I #
face $-1 $64 $65 $23 $-1 $66 reversed single #
loop $-1 $-1 $67 $30 #
plane-surface $-1 65.406098446708938 0 -9.1717427415922401 0 0 1 1 0 0 forward_v I I I I #
face $-1 $68 $69 $24 $-1 $70 reversed single #
loop $-1 $-1 $71 $31 #
plane-surface $-1 53.638210870895222 127.84634789004272 176.60287065768148 -1 0 0 0 0.84804810408105047 0.52991925155115449 forward_v I I I I #
face $-1 $72 $73 $25 $-1 $74 forward single #
loop $-1 $75 $76 $32 #
cone-surface $-1 40.677079125707905 46.195507436578517 13.309115228289816 0 -0.84804810408105047 -0.52991925155115449 1 0 0 1 I I 0 1 1 forward I I I I #
face $-1 $77 $78 $26 $-1 $79 forward single #
loop $-1 $80 $81 $33 #
cone-surface $-1 45.537503530153145 46.195507436578517 13.309115228289816 0 -0.84804810408105047 -0.52991925155115449 1 0 0 1 I I 0 1 1 forward I I I I #
face $-1 $82 $83 $27 $-1 $84 forward single #
loop $-1 $85 $86 $34 #
cone-surface $-1 50.397927934598385 46.195507436578517 13.309115228289816 0 -0.84804810408105047 -0.52991925155115449 1 0 0 1 I I 0 1 1 forward I I I I #
face $-1 $87 $88 $21 $-1 $89 reversed single #
loop $-1 $-1 $90 $35 #
plane-surface $-1 0 0 -19.719848714813175 0 0 1 1 0 0 forward_v I I I I #
coedge $-1 $91 $92 $93 $94 forward $36 $-1 #
face $-1 $95 $96 $22 $-1 $97 reversed single #
loop $-1 $-1 $98 $38 #
plane-surface $-1 -55.903450781951534 0 17.102953113549034 -1 0 0 0 0 1 forward_v I I I I #
coedge $-1 $99 $100 $101 $102 forward $39 $-1 #
face $-1 $103 $104 $23 $-1 $105 reversed single #
loop $-1 $-1 $106 $41 #
plane-surface $-1 53.638210870895222 0 -14.445795728202707 1 0 0 0 0 -1 forward_v I I I I #
coedge $-1 $107 $108 $109 $110 reversed $42 $-1 #
face $-1 $111 $112 $24 $-1 $113 reversed single #
loop $-1 $-1 $114 $44 #
plane-surface $-1 45.537503530153145 -3.0481571715129405 94.810908833132558 0 0.84804810408105047 0.52991925155115449 1 0 0 forward_v I I I I #
coedge $-1 $115 $116 $117 $118 reversed $45 $-1 #
face $-1 $-1 $119 $25 $-1 $120 forward single #
loop $-1 $121 $122 $47 #
cone-surface $-1 40.677079125707905 44.560154320560287 12.287233220545353 0 -0.84804810408105047 -0.52991925155115449 0.5 0 0 1 I I -0.70710678118654746 0.70710678118654746 0.5 forward I I I I #
loop $-1 $-1 $123 $32 #
coedge $-1 $76 $76 $124 $125 reversed $48 $-1 #
face $-1 $-1 $126 $26 $-1 $127 forward single #
loop $-1 $128 $129 $50 #
cone-surface $-1 45.537503530153145 44.560154320560287 12.287233220545353 0 -0.84804810408105047 -0.52991925155115449 0.5 0 0 1 I I -0.70710678118654746 0.70710678118654746 0.5 forward I I I I #
loop $-1 $-1 $130 $33 #
coedge $-1 $81 $81 $131 $132 reversed $51 $-1 #
face $-1 $-1 $133 $27 $-1 $134 forward single #
loop $-1 $135 $136 $53 #
cone-surface $-1 50.397927934598385 44.560154320560287 12.287233220545353 0 -0.84804810408105047 -0.52991925155115449 0.5 0 0 1 I I -0.70710678118654746 0.70710678118654746 0.5 forward I I I I #
loop $-1 $-1 $137 $34 #
coedge $-1 $86 $86 $138 $139 reversed $54 $-1 #
face $-1 $140 $141 $21 $-1 $142 reversed single #
loop $-1 $-1 $143 $56 #
plane-surface $-1 0 -50.939729663714303 0 0 1 0 0 0 1 forward_v I I I I #
coedge $-1 $144 $145 $146 $147 forward $57 $-1 #
coedge $-1 $148 $59 $149 $150 forward $36 $-1 #
coedge $-1 $59 $148 $151 $152 forward $36 $-1 #
coedge $-1 $153 $154 $59 $94 reversed $155 $-1 #
edge $-1 $156 -50.939729663714303 $157 50.939729663714303 $93 $158 forward 7 unknown #
face $-1 $159 $160 $22 $-1 $161 reversed single #
loop $-1 $-1 $162 $60 #
plane-surface $-1 0 50.939729663714303 0 0 -1 0 0 0 -1 forward_v I I I I #
coedge $-1 $101 $163 $164 $165 reversed $61 $-1 #
coedge $-1 $166 $63 $167 $168 reversed $39 $-1 #
coedge $-1 $63 $166 $169 $170 reversed $39 $-1 #
coedge $-1 $171 $98 $63 $102 reversed $61 $-1 #
edge $-1 $172 -50.939729663714303 $173 50.939729663714303 $101 $174 forward 7 unknown #
face $-1 $175 $176 $23 $-1 $177 reversed single #
loop $-1 $-1 $178 $64 #
plane-surface $-1 0 -50.939729663714303 0 0 1 0 0 0 1 forward_v I I I I #
coedge $-1 $179 $180 $181 $182 reversed $65 $-1 #
coedge $-1 $183 $67 $184 $185 reversed $42 $-1 #
coedge $-1 $67 $183 $178 $186 reversed $42 $-1 #
coedge $-1 $187 $188 $67 $110 forward $189 $-1 #
edge $-1 $190 -50.939729663714303 $191 50.939729663714303 $109 $192 forward 7 unknown #
face $-1 $193 $194 $24 $-1 $195 reversed single #
loop $-1 $-1 $196 $68 #
plane-surface $-1 37.436796189411069 127.84634789004272 176.60287065768148 1 0 0 0 -0.84804810408105047 -0.52991925155115449 forward_v I I I I #
coedge $-1 $197 $198 $199 $200 reversed $69 $-1 #
coedge $-1 $116 $71 $201 $202 reversed $45 $-1 #
coedge $-1 $71 $115 $197 $203 reversed $45 $-1 #
coedge $-1 $199 $204 $71 $118 forward $194 $-1 #
edge $-1 $205 68.581586614027572 $206 79.889208823136485 $117 $207 forward 7 unknown #
loop $-1 $-1 $124 $72 #
plane-surface $-1 45.537503530153145 -3.0481571715129405 94.810908833132558 0 0.84804810408105047 0.52991925155115449 1 0 0 forward_v I I I I #
loop $-1 $-1 $208 $47 #
coedge $-1 $122 $122 $123 $209 reversed $73 $-1 #
coedge $-1 $123 $123 $122 $209 forward $75 $-1 #
coedge $-1 $124 $124 $76 $125 forward $119 $-1 #
edge $-1 $210 1.5080108043666962e-015 $210 6.2831853071796022 $124 $211 forward 7 unknown #
loop $-1 $-1 $131 $77 #
plane-surface $-1 45.537503530153145 -3.0481571715129405 94.810908833132558 0 0.84804810408105047 0.52991925155115449 1 0 0 forward_v I I I I #
loop $-1 $-1 $212 $50 #
coedge $-1 $129 $129 $130 $213 reversed $78 $-1 #
coedge $-1 $130 $130 $129 $213 forward $80 $-1 #
coedge $-1 $131 $131 $81 $132 forward $126 $-1 #
edge $-1 $214 1.5080108043666962e-015 $214 6.2831853071796022 $131 $215 forward 7 unknown #
loop $-1 $-1 $138 $82 #
plane-surface $-1 45.537503530153145 -3.0481571715129405 94.810908833132558 0 0.84804810408105047 0.52991925155115449 1 0 0 forward_v I I I I #
loop $-1 $-1 $216 $53 #
coedge $-1 $136 $136 $137 $217 reversed $83 $-1 #
coedge $-1 $137 $137 $136 $217 forward $85 $-1 #
coedge $-1 $138 $138 $86 $139 forward $133 $-1 #
edge $-1 $218 1.5080108043666962e-015 $218 6.2831853071796022 $138 $219 forward 7 unknown #
face $-1 $220 $221 $21 $-1 $222 reversed single #
loop $-1 $-1 $223 $87 #
plane-surface $-1 -77.173986022522655 0 0 1 0 0 0 0 -1 forward_v I I I I #
coedge $-1 $224 $151 $225 $226 forward $88 $-1 #
coedge $-1 $227 $90 $224 $228 forward $57 $-1 #
coedge $-1 $90 $227 $229 $230 forward $57 $-1 #
coedge $-1 $154 $153 $90 $147 reversed $155 $-1 #
edge $-1 $231 -50.939729663714303 $232 50.939729663714303 $146 $233 forward 7 unknown #
coedge $-1 $92 $91 $234 $235 forward $36 $-1 #
coedge $-1 $236 $237 $91 $150 reversed $221 $-1 #
edge $-1 $157 -77.173986022522655 $238 77.173986022522655 $149 $239 forward 7 unknown #
coedge $-1 $143 $240 $92 $152 reversed $88 $-1 #
edge $-1 $241 -77.173986022522655 $156 77.173986022522655 $151 $242 forward 7 unknown #
coedge $-1 $146 $93 $240 $243 forward $155 $-1 #
coedge $-1 $93 $146 $236 $244 reversed $155 $-1 #
loop $-1 $-1 $153 $220 #
vertex $-1 $94 $245 #
vertex $-1 $94 $246 #
straight-curve $-1 77.173986022522655 0 19.719848714813175 0 1 0 I I #
face $-1 $247 $248 $22 $-1 $249 forward single #
loop $-1 $-1 $250 $95 #
plane-surface $-1 -77.173986022522655 0 0 1 0 0 0 0 -1 forward_v I I I I #
coedge $-1 $169 $251 $171 $252 forward $96 $-1 #
coedge $-1 $98 $171 $253 $254 reversed $61 $-1 #
coedge $-1 $255 $167 $98 $165 forward $256 $-1 #
edge $-1 $173 5.934580955510377 $257 11.168372158038657 $164 $258 forward 7 unknown #
coedge $-1 $100 $99 $250 $259 reversed $39 $-1 #
coedge $-1 $164 $260 $99 $168 forward $256 $-1 #
edge $-1 $261 -43.904626821404108 $173 -22.634091580832987 $167 $262 forward 7 unknown #
coedge $-1 $263 $162 $100 $170 forward $96 $-1 #
edge $-1 $172 22.634091580832987 $264 43.904626821404108 $169 $265 forward 7 unknown #
coedge $-1 $163 $101 $162 $252 reversed $61 $-1 #
vertex $-1 $170 $266 #
vertex $-1 $168 $267 #
straight-curve $-1 -55.903450781951534 0 14.486057512284894 0 -1 0 I I #
face $-1 $268 $269 $23 $-1 $270 reversed single #
loop $-1 $-1 $271 $103 #
plane-surface $-1 0 0 -19.719848714813175 0 0 1 1 0 0 forward_v I I I I #
coedge $-1 $272 $273 $108 $186 forward $104 $-1 #
coedge $-1 $274 $106 $271 $275 reversed $65 $-1 #
coedge $-1 $106 $274 $183 $276 reversed $65 $-1 #
coedge $-1 $184 $277 $106 $182 forward $269 $-1 #
edge $-1 $278 -12.496950850711821 $279 -1.9488448774908864 $181 $280 forward 7 unknown #
coedge $-1 $108 $107 $180 $276 forward $42 $-1 #
coedge $-1 $281 $181 $107 $185 forward $269 $-1 #
edge $-1 $279 20.935161647540752 $190 44.470936799168186 $184 $282 forward 7 unknown #
edge $-1 $191 -44.470936799168186 $283 -20.935161647540752 $178 $284 forward 7 unknown #
coedge $-1 $285 $109 $273 $286 forward $189 $-1 #
coedge $-1 $109 $285 $281 $287 reversed $189 $-1 #
loop $-1 $-1 $109 $268 #
vertex $-1 $287 $288 #
vertex $-1 $286 $289 #
straight-curve $-1 77.173986022522655 0 -9.1717427415922401 0 -1 0 I I #
face $-1 $-1 $290 $24 $-1 $291 forward single #
loop $-1 $-1 $117 $111 #
plane-surface $-1 0 50.939729663714303 0 0 -1 0 0 0 -1 forward_v I I I I #
coedge $-1 $292 $293 $294 $295 reversed $112 $-1 #
coedge $-1 $296 $114 $116 $203 forward $69 $-1 #
coedge $-1 $114 $296 $292 $297 forward $69 $-1 #
coedge $-1 $294 $117 $114 $200 forward $194 $-1 #
edge $-1 $206 -30.869459105818649 $298 -14.668044424334497 $199 $299 forward 7 unknown #
coedge $-1 $300 $301 $115 $202 forward $290 $-1 #
edge $-1 $302 -20.049230607623201 $205 -12.983444281307058 $201 $303 forward 7 unknown #
edge $-1 $206 -101.87945932742858 $302 -88.545755549667149 $116 $304 forward 7 unknown #
coedge $-1 $117 $294 $300 $305 reversed $194 $-1 #
vertex $-1 $305 $306 #
vertex $-1 $118 $307 #
straight-curve $-1 53.638210870895222 50.939729663714303 88.301435328840739 0 0 -1 I I #
coedge $-1 $208 $208 $-1 $308 reversed $121 $-1 #
edge $-1 $309 0 $309 6.2831853071796004 $122 $310 forward 7 unknown #
vertex $-1 $125 $311 #
ellipse-curve $-1 40.677079125707905 47.406836500556238 14.066037610258713 0 0.84804810408105047 0.52991925155115449 1 0 0 1 I I #
coedge $-1 $212 $212 $-1 $312 reversed $128 $-1 #
edge $-1 $313 0 $313 6.2831853071796004 $129 $314 forward 7 unknown #
vertex $-1 $132 $315 #
ellipse-curve $-1 45.537503530153145 47.406836500556238 14.066037610258713 0 0.84804810408105047 0.52991925155115449 1 0 0 1 I I #
coedge $-1 $216 $216 $-1 $316 reversed $135 $-1 #
edge $-1 $317 0 $317 6.2831853071796004 $136 $318 forward 7 unknown #
vertex $-1 $139 $319 #
ellipse-curve $-1 50.397927934598385 47.406836500556238 14.066037610258713 0 0.84804810408105047 0.52991925155115449 1 0 0 1 I I #
face $-1 $-1 $155 $21 $-1 $320 reversed single #
loop $-1 $-1 $236 $140 #
plane-surface $-1 0 50.939729663714303 0 0 -1 0 0 0 -1 forward_v I I I I #
coedge $-1 $321 $234 $237 $322 forward $141 $-1 #
coedge $-1 $240 $143 $144 $228 reversed $88 $-1 #
coedge $-1 $234 $321 $143 $226 reversed $141 $-1 #
edge $-1 $241 -19.719848714813175 $323 19.719848714813175 $225 $324 forward 7 unknown #
coedge $-1 $145 $144 $321 $325 forward $57 $-1 #
edge $-1 $232 -77.173986022522655 $323 77.173986022522655 $224 $326 forward 7 unknown #
coedge $-1 $237 $236 $145 $230 reversed $221 $-1 #
edge $-1 $327 -77.173986022522655 $231 77.173986022522655 $229 $328 forward 7 unknown #
vertex $-1 $147 $329 #
vertex $-1 $243 $330 #
straight-curve $-1 77.173986022522655 0 -19.719848714813175 0 -1 0 I I #
coedge $-1 $223 $225 $148 $235 reversed $141 $-1 #
edge $-1 $238 -50.939729663714303 $241 50.939729663714303 $234 $331 forward 7 unknown #
coedge $-1 $229 $149 $154 $244 forward $221 $-1 #
coedge $-1 $149 $229 $223 $322 reversed $221 $-1 #
vertex $-1 $150 $332 #
straight-curve $-1 0 50.939729663714303 19.719848714813175 -1 0 0 I I #
coedge $-1 $151 $224 $153 $243 reversed $88 $-1 #
vertex $-1 $235 $333 #
straight-curve $-1 0 -50.939729663714303 19.719848714813175 1 0 0 I I #
edge $-1 $156 -19.719848714813175 $232 19.719848714813175 $153 $334 forward 7 unknown #
edge $-1 $157 -19.719848714813175 $231 19.719848714813175 $154 $335 forward 7 unknown #
point $-1 77.173986022522655 -50.939729663714303 19.719848714813175 #
point $-1 77.173986022522655 50.939729663714303 19.719848714813175 #
face $-1 $-1 $256 $22 $-1 $336 reversed single #
loop $-1 $-1 $253 $159 #
plane-surface $-1 0 0 19.719848714813175 0 0 1 1 0 0 forward_v I I I I #
coedge $-1 $337 $338 $166 $259 forward $160 $-1 #
coedge $-1 $162 $263 $339 $340 reversed $96 $-1 #
edge $-1 $341 -11.168372158038657 $172 -5.934580955510377 $162 $342 forward 7 unknown #
coedge $-1 $339 $343 $163 $254 forward $248 $-1 #
edge $-1 $257 -50.939729663714303 $341 50.939729663714303 $253 $344 forward 7 unknown #
coedge $-1 $260 $164 $343 $345 reversed $256 $-1 #
loop $-1 $-1 $164 $247 #
vertex $-1 $165 $346 #
straight-curve $-1 -55.903450781951534 -50.939729663714303 8.5514765567745172 0 0 1 I I #
edge $-1 $264 -50.939729663714303 $261 50.939729663714303 $250 $347 forward 7 unknown #
coedge $-1 $167 $255 $337 $348 forward $256 $-1 #
vertex $-1 $259 $349 #
straight-curve $-1 -33.269359201118547 -50.939729663714303 14.486057512284894 1 0 0 I I #
coedge $-1 $251 $169 $338 $350 reversed $96 $-1 #
vertex $-1 $259 $351 #
straight-curve $-1 -33.269359201118547 50.939729663714303 14.486057512284894 -1 0 0 I I #
point $-1 -55.903450781951534 50.939729663714303 14.486057512284894 #
point $-1 -55.903450781951534 -50.939729663714303 14.486057512284894 #
face $-1 $-1 $189 $23 $-1 $352 reversed single #
loop $-1 $-1 $184 $175 #
plane-surface $-1 0 50.939729663714303 0 0 -1 0 0 0 -1 forward_v I I I I #
coedge $-1 $353 $354 $179 $275 forward $176 $-1 #
coedge $-1 $355 $178 $274 $356 forward $104 $-1 #
coedge $-1 $178 $355 $187 $286 reversed $104 $-1 #
coedge $-1 $180 $179 $272 $356 reversed $65 $-1 #
edge $-1 $357 -50.939729663714303 $278 50.939729663714303 $271 $358 forward 7 unknown #
edge $-1 $279 -50.939729663714303 $283 50.939729663714303 $180 $359 forward 7 unknown #
coedge $-1 $181 $281 $353 $360 reversed $269 $-1 #
vertex $-1 $360 $361 #
vertex $-1 $185 $362 #
straight-curve $-1 53.638210870895222 50.939729663714303 -7.2228978641013537 0 0 1 I I #
coedge $-1 $277 $184 $188 $287 forward $269 $-1 #
straight-curve $-1 32.703049223354469 50.939729663714303 -9.1717427415922401 1 0 0 I I #
vertex $-1 $186 $363 #
straight-curve $-1 32.703049223354469 -50.939729663714303 -9.1717427415922401 -1 0 0 I I #
coedge $-1 $188 $187 $364 $365 reversed $189 $-1 #
edge $-1 $191 9.1717427415922401 $366 19.719848714813175 $187 $367 forward 7 unknown #
edge $-1 $190 9.1717427415922401 $368 19.719848714813175 $188 $369 forward 7 unknown #
point $-1 77.173986022522655 50.939729663714303 -9.1717427415922401 #
point $-1 77.173986022522655 -50.939729663714303 -9.1717427415922401 #
loop $-1 $-1 $201 $193 #
plane-surface $-1 0 0 19.719848714813175 0 0 1 1 0 0 forward_v I I I I #
coedge $-1 $293 $196 $198 $297 reversed $112 $-1 #
coedge $-1 $196 $292 $370 $371 reversed $112 $-1 #
coedge $-1 $204 $199 $196 $295 forward $194 $-1 #
edge $-1 $298 -79.889208823136485 $372 -68.581586614027572 $294 $373 forward 7 unknown #
coedge $-1 $198 $197 $301 $374 reversed $69 $-1 #
edge $-1 $375 88.545755549667149 $298 101.87945932742858 $292 $376 forward 7 unknown #
vertex $-1 $200 $377 #
straight-curve $-1 22.768751765076573 50.939729663714303 8.412226505704254 -1 0 0 I I #
coedge $-1 $370 $201 $204 $305 forward $290 $-1 #
coedge $-1 $201 $370 $296 $374 forward $290 $-1 #
vertex $-1 $202 $378 #
straight-curve $-1 53.638210870895222 63.923173945021361 19.719848714813168 0 1 0 I I #
straight-curve $-1 53.638210870895222 -3.0481571715129405 94.810908833132558 0 -0.52991925155115449 0.84804810408105047 I I #
edge $-1 $205 -53.638210870895222 $372 -37.436796189411069 $204 $379 forward 7 unknown #
point $-1 53.638210870895222 50.939729663714303 19.719848714813175 #
point $-1 53.638210870895222 50.939729663714303 8.412226505704254 #
edge $-1 $380 1 $380 0 $208 $-1 forward 7 unknown #
vertex $-1 $209 $381 #
ellipse-curve $-1 40.677079125707905 44.984178372600809 12.55219284632093 0 0.84804810408105047 0.52991925155115449 1 0 0 1 I I #
point $-1 41.677079125707905 47.406836500556224 14.066037610258702 #
edge $-1 $382 1 $382 0 $212 $-1 forward 7 unknown #
vertex $-1 $213 $383 #
ellipse-curve $-1 45.537503530153145 44.984178372600809 12.55219284632093 0 0.84804810408105047 0.52991925155115449 1 0 0 1 I I #
point $-1 46.537503530153145 47.406836500556224 14.066037610258702 #
edge $-1 $384 1 $384 0 $216 $-1 forward 7 unknown #
vertex $-1 $217 $385 #
ellipse-curve $-1 50.397927934598385 44.984178372600809 12.55219284632093 0 0.84804810408105047 0.52991925155115449 1 0 0 1 I I #
point $-1 51.397927934598385 47.406836500556224 14.066037610258702 #
plane-surface $-1 77.173986022522655 0 0 -1 0 0 0 0 1 forward_v I I I I #
coedge $-1 $225 $223 $227 $325 reversed $141 $-1 #
edge $-1 $238 -19.719848714813175 $327 19.719848714813175 $237 $386 forward 7 unknown #
vertex $-1 $325 $387 #
straight-curve $-1 -77.173986022522655 -50.939729663714303 0 0 0 -1 I I #
edge $-1 $323 -50.939729663714303 $327 50.939729663714303 $321 $388 forward 7 unknown #
straight-curve $-1 0 -50.939729663714303 -19.719848714813175 -1 0 0 I I #
vertex $-1 $230 $389 #
straight-curve $-1 0 50.939729663714303 -19.719848714813175 1 0 0 I I #
point $-1 77.173986022522655 50.939729663714303 -19.719848714813175 #
point $-1 77.173986022522655 -50.939729663714303 -19.719848714813175 #
straight-curve $-1 -77.173986022522655 0 19.719848714813175 0 -1 0 I I #
point $-1 -77.173986022522655 50.939729663714303 19.719848714813175 #
point $-1 -77.173986022522655 -50.939729663714303 19.719848714813175 #
straight-curve $-1 77.173986022522655 -50.939729663714303 0 0 0 -1 I I #
straight-curve $-1 77.173986022522655 50.939729663714303 0 0 0 -1 I I #
plane-surface $-1 0 -50.939729663714303 0 0 1 0 0 0 1 forward_v I I I I #
coedge $-1 $390 $250 $260 $348 reversed $160 $-1 #
coedge $-1 $250 $390 $263 $350 forward $160 $-1 #
coedge $-1 $391 $253 $251 $340 forward $248 $-1 #
edge $-1 $341 55.903450781951534 $392 77.173986022522655 $251 $393 forward 7 unknown #
vertex $-1 $340 $394 #
straight-curve $-1 -55.903450781951534 50.939729663714303 8.5514765567745172 0 0 -1 I I #
coedge $-1 $253 $391 $255 $345 forward $248 $-1 #
straight-curve $-1 -55.903450781951534 0 19.719848714813175 0 1 0 I I #
edge $-1 $395 -77.173986022522655 $257 -55.903450781951534 $255 $396 forward 7 unknown #
point $-1 -55.903450781951534 -50.939729663714303 19.719848714813175 #
straight-curve $-1 -77.173986022522655 0 14.486057512284894 0 -1 0 I I #
edge $-1 $395 -19.719848714813175 $261 -14.486057512284894 $337 $397 forward 7 unknown #
point $-1 -77.173986022522655 -50.939729663714303 14.486057512284894 #
edge $-1 $392 -19.719848714813175 $264 -14.486057512284894 $263 $398 forward 7 unknown #
point $-1 -77.173986022522655 50.939729663714303 14.486057512284894 #
plane-surface $-1 77.173986022522655 0 0 -1 0 0 0 0 1 forward_v I I I I #
coedge $-1 $364 $271 $277 $360 forward $176 $-1 #
coedge $-1 $271 $364 $355 $399 forward $176 $-1 #
coedge $-1 $273 $272 $354 $399 reversed $104 $-1 #
edge $-1 $283 1.9488448774908864 $357 12.496950850711821 $272 $400 forward 7 unknown #
vertex $-1 $275 $401 #
straight-curve $-1 53.638210870895222 0 -19.719848714813175 0 1 0 I I #
straight-curve $-1 53.638210870895222 0 -9.1717427415922401 0 -1 0 I I #
edge $-1 $278 53.638210870895222 $368 77.173986022522655 $277 $402 forward 7 unknown #
point $-1 53.638210870895222 50.939729663714303 -19.719848714813175 #
point $-1 53.638210870895222 50.939729663714303 -9.1717427415922401 #
point $-1 53.638210870895222 -50.939729663714303 -9.1717427415922401 #
coedge $-1 $354 $353 $285 $365 forward $176 $-1 #
edge $-1 $368 -50.939729663714303 $366 50.939729663714303 $285 $403 forward 7 unknown #
vertex $-1 $286 $404 #
straight-curve $-1 77.173986022522655 -50.939729663714303 0 0 0 -1 I I #
vertex $-1 $365 $405 #
straight-curve $-1 77.173986022522655 50.939729663714303 0 0 0 -1 I I #
coedge $-1 $301 $300 $293 $371 forward $290 $-1 #
edge $-1 $372 12.983444281307058 $375 20.049230607623201 $370 $406 forward 7 unknown #
vertex $-1 $371 $407 #
straight-curve $-1 37.436796189411069 50.939729663714303 88.301435328840739 0 0 1 I I #
edge $-1 $375 14.668044424334497 $302 30.869459105818649 $301 $408 forward 7 unknown #
vertex $-1 $374 $409 #
straight-curve $-1 37.436796189411069 -3.0481571715129405 94.810908833132558 0 0.52991925155115449 -0.84804810408105047 I I #
point $-1 37.436796189411069 50.939729663714303 8.412226505704254 #
point $-1 53.638210870895222 43.87394333739816 19.719848714813182 #
straight-curve $-1 0 50.939729663714303 19.719848714813175 -1 0 0 I I #
vertex $-1 $308 $410 #
point $-1 41.677079125707905 44.984178372600809 12.55219284632093 #
vertex $-1 $312 $411 #
point $-1 46.537503530153145 44.984178372600809 12.55219284632093 #
vertex $-1 $316 $412 #
point $-1 51.397927934598385 44.984178372600809 12.55219284632093 #
straight-curve $-1 -77.173986022522655 50.939729663714303 0 0 0 -1 I I #
point $-1 -77.173986022522655 -50.939729663714303 -19.719848714813175 #
straight-curve $-1 -77.173986022522655 0 -19.719848714813175 0 1 0 I I #
point $-1 -77.173986022522655 50.939729663714303 -19.719848714813175 #
coedge $-1 $338 $337 $391 $413 reversed $160 $-1 #
coedge $-1 $343 $339 $390 $413 forward $248 $-1 #
vertex $-1 $340 $414 #
straight-curve $-1 0 50.939729663714303 19.719848714813175 -1 0 0 I I #
point $-1 -55.903450781951534 50.939729663714303 19.719848714813175 #
vertex $-1 $413 $415 #
straight-curve $-1 0 -50.939729663714303 19.719848714813175 1 0 0 I I #
straight-curve $-1 -77.173986022522655 -50.939729663714303 0 0 0 -1 I I #
straight-curve $-1 -77.173986022522655 50.939729663714303 0 0 0 -1 I I #
edge $-1 $366 -77.173986022522655 $357 -53.638210870895222 $355 $416 forward 7 unknown #
straight-curve $-1 53.638210870895222 -50.939729663714303 -7.2228978641013537 0 0 -1 I I #
point $-1 53.638210870895222 -50.939729663714303 -19.719848714813175 #
straight-curve $-1 0 50.939729663714303 -19.719848714813175 1 0 0 I I #
straight-curve $-1 77.173986022522655 0 -19.719848714813175 0 -1 0 I I #
point $-1 77.173986022522655 -50.939729663714303 -19.719848714813175 #
point $-1 77.173986022522655 50.939729663714303 -19.719848714813175 #
straight-curve $-1 37.436796189411069 63.923173945021361 19.719848714813168 0 -1 0 I I #
point $-1 37.436796189411069 50.939729663714303 19.719848714813175 #
straight-curve $-1 22.768751765076573 43.87394333739816 19.719848714813175 1 0 0 I I #
point $-1 37.436796189411069 43.87394333739816 19.719848714813182 #
point $-1 40.677079125707905 44.136130268519764 12.022273594769777 #
point $-1 45.537503530153145 44.136130268519764 12.022273594769777 #
point $-1 50.397927934598385 44.136130268519764 12.022273594769777 #
edge $-1 $392 -50.939729663714303 $395 50.939729663714303 $390 $417 forward 7 unknown #
point $-1 -77.173986022522655 50.939729663714303 19.719848714813175 #
point $-1 -77.173986022522655 -50.939729663714303 19.719848714813175 #
straight-curve $-1 0 -50.939729663714303 -19.719848714813175 -1 0 0 I I #
straight-curve $-1 -77.173986022522655 0 19.719848714813175 0 -1 0 I I #
End-of-ACIS-data 