500 0 5 0           
7 Unknown 11 ACIS 5.0 NT 24 Thu Mar 25 15:39:27 1999 
-1 9.9999999999999995e-007 1e-010 
body $-1 $5 $-1 $6 #
body $-1 $7 $-1 $8 #
body $-1 $9 $-1 $10 #
body $-1 $11 $-1 $12 #
body $-1 $13 $-1 $14 #
lump $-1 $-1 $15 $0 #
transform $-1 1 0 0 0 1 0 0 0 1 64.540543839838861 34.337058401780531 11.092608356157342 1 rotate no_reflect no_shear #
lump $-1 $-1 $16 $1 #
transform $-1 1 0 0 0 1 0 0 0 1 64.540543839838861 34.337058401780531 11.092608356157342 1 rotate no_reflect no_shear #
lump $-1 $-1 $17 $2 #
transform $-1 1 0 0 0 1 0 0 0 1 64.540543839838861 34.337058401780531 11.092608356157342 1 rotate no_reflect no_shear #
lump $-1 $-1 $18 $3 #
transform $-1 1 0 0 0 1 0 0 0 1 64.540543839838861 34.337058401780531 11.092608356157342 1 rotate no_reflect no_shear #
lump $-1 $-1 $19 $4 #
transform $-1 1 0 0 0 1 0 0 0 1 64.540543839838861 34.337058401780531 11.092608356157342 1 rotate no_reflect no_shear #
shell $-1 $-1 $-1 $20 $-1 $5 #
shell $-1 $-1 $-1 $21 $-1 $7 #
shell $-1 $-1 $-1 $22 $-1 $9 #
shell $-1 $-1 $-1 $23 $-1 $11 #
shell $-1 $-1 $-1 $24 $-1 $13 #
face $-1 $25 $26 $15 $-1 $27 forward single #
face $-1 $28 $29 $16 $-1 $30 forward single #
face $-1 $31 $32 $17 $-1 $33 reversed single #
face $-1 $34 $35 $18 $-1 $36 forward single #
face $-1 $37 $38 $19 $-1 $39 forward single #
face $-1 $40 $41 $15 $-1 $42 reversed single #
loop $-1 $-1 $43 $20 #
plane-surface $-1 0 0 11.092608356157342 0 0 1 1 0 0 forward_v I I I I #
face $-1 $44 $45 $16 $-1 $46 reversed single #
loop $-1 $-1 $47 $21 #
plane-surface $-1 0 -30.320015531840259 -5.7081553104703708 0 0 1 1 0 0 forward_v I I I I #
face $-1 $48 $49 $17 $-1 $50 reversed single #
loop $-1 $-1 $51 $22 #
plane-surface $-1 -176.32804591701293 11.952744831086196 70.047576050894065 0 1 0 -0.86602541151947299 0 0.49999998660252726 forward_v I I I I #
face $-1 $52 $53 $18 $-1 $54 forward single #
loop $-1 $55 $56 $23 #
cone-surface $-1 -61.199994846703369 16.978722075348514 7.3020833595356862 0.86602541151947299 0 -0.49999998660252726 0.74999997990379086 0 1.2990381172792094 1 I I 0 1 1.5 forward I I I I #
face $-1 $57 $58 $19 $-1 $59 forward single #
loop $-1 $60 $61 $24 #
cone-surface $-1 -61.199994846703369 24.517687941741997 7.3020833595356862 0.86602541151947299 0 -0.49999998660252726 0.74999997990379086 0 1.2990381172792094 1 I I 0 1 1.5 forward I I I I #
face $-1 $62 $63 $15 $-1 $64 reversed single #
loop $-1 $-1 $65 $25 #
plane-surface $-1 0 0 -11.092608356157342 0 0 1 1 0 0 forward_v I I I I #
coedge $-1 $66 $67 $68 $69 forward $26 $-1 #
face $-1 $70 $71 $16 $-1 $72 reversed single #
loop $-1 $-1 $73 $28 #
plane-surface $-1 0 -26.302972661899986 -8.4003818333138565 0 -1 0 0 0 -1 forward_v I I I I #
coedge $-1 $74 $75 $76 $77 reversed $29 $-1 #
face $-1 $78 $79 $17 $-1 $80 reversed single #
loop $-1 $-1 $81 $31 #
plane-surface $-1 -64.540543839838861 20.748205008545263 5.5070339404155533 -0.86602541151947299 0 0.49999998660252726 0.49999998660252726 0 0.86602541151947299 forward_v I I I I #
coedge $-1 $82 $83 $84 $85 reversed $32 $-1 #
face $-1 $-1 $86 $18 $-1 $87 forward single #
loop $-1 $88 $89 $34 #
cone-surface $-1 -58.822343183575732 16.978722075348514 5.9293455808330293 0.86602541151947299 0 -0.49999998660252726 0.37499998995189543 0 0.64951905863960469 1 I I -0.70710678118654757 0.70710678118654757 0.75 forward I I I I #
loop $-1 $-1 $90 $23 #
coedge $-1 $56 $56 $91 $92 reversed $35 $-1 #
face $-1 $-1 $93 $19 $-1 $94 forward single #
loop $-1 $95 $96 $37 #
cone-surface $-1 -58.822343183575732 24.517687941741997 5.9293455808330293 0.86602541151947299 0 -0.49999998660252726 0.37499998995189543 0 0.64951905863960469 1 I I -0.70710678118654757 0.70710678118654757 0.75 forward I I I I #
loop $-1 $-1 $97 $24 #
coedge $-1 $61 $61 $98 $99 reversed $38 $-1 #
face $-1 $100 $101 $15 $-1 $102 reversed single #
loop $-1 $-1 $103 $40 #
plane-surface $-1 0 -34.337058401780531 0 0 1 0 0 0 1 forward_v I I I I #
coedge $-1 $104 $105 $106 $107 forward $41 $-1 #
coedge $-1 $108 $43 $109 $110 forward $26 $-1 #
coedge $-1 $43 $108 $111 $112 forward $26 $-1 #
coedge $-1 $113 $114 $43 $69 reversed $115 $-1 #
edge $-1 $116 -34.337058401780531 $117 34.337058401780531 $68 $118 forward 7 unknown #
face $-1 $119 $120 $16 $-1 $121 reversed single #
loop $-1 $-1 $122 $44 #
plane-surface $-1 0 0 -11.092608356157342 0 0 1 1 0 0 forward_v I I I I #
coedge $-1 $123 $124 $125 $126 reversed $45 $-1 #
coedge $-1 $127 $47 $124 $128 forward $29 $-1 #
coedge $-1 $47 $127 $129 $130 reversed $29 $-1 #
coedge $-1 $131 $125 $47 $77 forward $120 $-1 #
edge $-1 $132 11.142964895979857 $133 19.177050635860404 $76 $134 forward 7 unknown #
face $-1 $135 $136 $17 $-1 $137 forward single #
loop $-1 $-1 $138 $48 #
plane-surface $-1 -176.32804591701293 29.543665186004329 70.047576050894065 0 -1 0 0.86602541151947299 0 -0.49999998660252726 forward_v I I I I #
coedge $-1 $139 $140 $141 $142 reversed $49 $-1 #
coedge $-1 $83 $51 $143 $144 reversed $32 $-1 #
coedge $-1 $51 $82 $139 $145 reversed $32 $-1 #
coedge $-1 $141 $146 $51 $85 forward $136 $-1 #
edge $-1 $147 23.623479118667603 $148 26.848311895962517 $84 $149 forward 7 unknown #
loop $-1 $-1 $91 $52 #
plane-surface $-1 -64.540543839838861 20.748205008545263 5.5070339404155533 -0.86602541151947299 0 0.49999998660252726 0.49999998660252726 0 0.86602541151947299 forward_v I I I I #
loop $-1 $-1 $150 $34 #
coedge $-1 $89 $89 $90 $151 reversed $53 $-1 #
coedge $-1 $90 $90 $89 $151 forward $55 $-1 #
coedge $-1 $91 $91 $56 $92 forward $86 $-1 #
edge $-1 $152 0 $152 6.2831853071796004 $91 $153 forward 7 unknown #
loop $-1 $-1 $98 $57 #
plane-surface $-1 -64.540543839838861 20.748205008545263 5.5070339404155533 -0.86602541151947299 0 0.49999998660252726 0.49999998660252726 0 0.86602541151947299 forward_v I I I I #
loop $-1 $-1 $154 $37 #
coedge $-1 $96 $96 $97 $155 reversed $58 $-1 #
coedge $-1 $97 $97 $96 $155 forward $60 $-1 #
coedge $-1 $98 $98 $61 $99 forward $93 $-1 #
edge $-1 $156 0 $156 6.2831853071796004 $98 $157 forward 7 unknown #
face $-1 $158 $159 $15 $-1 $160 reversed single #
loop $-1 $-1 $161 $62 #
plane-surface $-1 -64.540543839838861 0 0 1 0 0 0 0 -1 forward_v I I I I #
coedge $-1 $162 $111 $163 $164 forward $63 $-1 #
coedge $-1 $165 $65 $162 $166 forward $41 $-1 #
coedge $-1 $65 $165 $167 $168 forward $41 $-1 #
coedge $-1 $114 $113 $65 $107 reversed $115 $-1 #
edge $-1 $169 -34.337058401780531 $170 34.337058401780531 $106 $171 forward 7 unknown #
coedge $-1 $67 $66 $172 $173 forward $26 $-1 #
coedge $-1 $174 $175 $66 $110 reversed $159 $-1 #
edge $-1 $117 -64.540543839838861 $176 64.540543839838861 $109 $177 forward 7 unknown #
coedge $-1 $103 $178 $67 $112 reversed $63 $-1 #
edge $-1 $179 -64.540543839838861 $116 64.540543839838861 $111 $180 forward 7 unknown #
coedge $-1 $106 $68 $178 $181 forward $115 $-1 #
coedge $-1 $68 $106 $174 $182 reversed $115 $-1 #
loop $-1 $-1 $113 $158 #
vertex $-1 $69 $183 #
vertex $-1 $69 $184 #
straight-curve $-1 64.540543839838861 0 11.092608356157342 0 1 0 I I #
face $-1 $185 $186 $16 $-1 $187 reversed single #
loop $-1 $-1 $125 $70 #
plane-surface $-1 64.540543839838861 0 0 -1 0 0 0 0 1 forward_v I I I I #
coedge $-1 $188 $189 $123 $190 forward $71 $-1 #
coedge $-1 $191 $73 $122 $190 reversed $45 $-1 #
coedge $-1 $73 $191 $74 $128 reversed $45 $-1 #
coedge $-1 $76 $192 $73 $126 forward $120 $-1 #
edge $-1 $193 -6.8924174395004139 $132 -1.5079643938134426 $125 $194 forward 7 unknown #
coedge $-1 $75 $74 $195 $196 reversed $29 $-1 #
edge $-1 $132 -64.540543839838861 $197 64.540543839838861 $124 $198 forward 7 unknown #
coedge $-1 $199 $200 $75 $130 forward $186 $-1 #
edge $-1 $133 -64.540543839838861 $201 64.540543839838861 $129 $202 forward 7 unknown #
coedge $-1 $192 $76 $200 $203 forward $120 $-1 #
vertex $-1 $77 $204 #
vertex $-1 $203 $205 #
straight-curve $-1 64.540543839838861 -15.160007765920129 -5.7081553104703708 0 -1 0 I I #
face $-1 $-1 $206 $17 $-1 $207 reversed single #
loop $-1 $-1 $84 $78 #
plane-surface $-1 0 0 11.092608356157342 0 0 1 1 0 0 forward_v I I I I #
coedge $-1 $208 $209 $210 $211 reversed $79 $-1 #
coedge $-1 $212 $81 $83 $145 forward $49 $-1 #
coedge $-1 $81 $212 $208 $213 forward $49 $-1 #
coedge $-1 $210 $84 $81 $142 forward $136 $-1 #
edge $-1 $148 1.578642326813565 $214 19.169562681731698 $141 $215 forward 7 unknown #
coedge $-1 $216 $217 $82 $144 forward $206 $-1 #
edge $-1 $218 -29.516754085031479 $147 -23.931179669289691 $143 $219 forward 7 unknown #
edge $-1 $148 -6.44966572740827 $218 0 $83 $220 forward 7 unknown #
coedge $-1 $84 $210 $216 $221 forward $136 $-1 #
vertex $-1 $144 $222 #
vertex $-1 $85 $223 #
straight-curve $-1 -88.164022958506465 11.952744831086196 11.092608356157342 1 0 0 I I #
coedge $-1 $150 $150 $-1 $224 reversed $88 $-1 #
edge $-1 $225 0 $225 6.2831853071796004 $89 $226 forward 7 unknown #
vertex $-1 $92 $227 #
ellipse-curve $-1 -62.928127451191401 16.978722075348514 8.2998211482864477 -0.86602541151947299 0 0.49999998660252726 0.74999997990379086 0 1.2990381172792094 1 I I #
coedge $-1 $154 $154 $-1 $228 reversed $95 $-1 #
edge $-1 $229 0 $229 6.2831853071796004 $96 $230 forward 7 unknown #
vertex $-1 $99 $231 #
ellipse-curve $-1 -62.928127451191401 24.517687941741997 8.2998211482864477 -0.86602541151947299 0 0.49999998660252726 0.74999997990379086 0 1.2990381172792094 1 I I #
face $-1 $-1 $115 $15 $-1 $232 reversed single #
loop $-1 $-1 $174 $100 #
plane-surface $-1 0 34.337058401780531 0 0 -1 0 0 0 -1 forward_v I I I I #
coedge $-1 $233 $172 $175 $234 forward $101 $-1 #
coedge $-1 $178 $103 $104 $166 reversed $63 $-1 #
coedge $-1 $172 $233 $103 $164 reversed $101 $-1 #
edge $-1 $179 -11.092608356157342 $235 11.092608356157342 $163 $236 forward 7 unknown #
coedge $-1 $105 $104 $233 $237 forward $41 $-1 #
edge $-1 $170 -64.540543839838861 $235 64.540543839838861 $162 $238 forward 7 unknown #
coedge $-1 $175 $174 $105 $168 reversed $159 $-1 #
edge $-1 $239 -64.540543839838861 $169 64.540543839838861 $167 $240 forward 7 unknown #
vertex $-1 $107 $241 #
vertex $-1 $181 $242 #
straight-curve $-1 64.540543839838861 0 -11.092608356157342 0 -1 0 I I #
coedge $-1 $161 $163 $108 $173 reversed $101 $-1 #
edge $-1 $176 -34.337058401780531 $179 34.337058401780531 $172 $243 forward 7 unknown #
coedge $-1 $167 $109 $114 $182 forward $159 $-1 #
coedge $-1 $109 $167 $161 $234 reversed $159 $-1 #
vertex $-1 $110 $244 #
straight-curve $-1 0 34.337058401780531 11.092608356157342 -1 0 0 I I #
coedge $-1 $111 $162 $113 $181 reversed $63 $-1 #
vertex $-1 $173 $245 #
straight-curve $-1 0 -34.337058401780531 11.092608356157342 1 0 0 I I #
edge $-1 $116 -11.092608356157342 $170 11.092608356157342 $113 $246 forward 7 unknown #
edge $-1 $117 -11.092608356157342 $169 11.092608356157342 $114 $247 forward 7 unknown #
point $-1 64.540543839838861 -34.337058401780531 11.092608356157342 #
point $-1 64.540543839838861 34.337058401780531 11.092608356157342 #
face $-1 $-1 $248 $16 $-1 $249 reversed single #
loop $-1 $-1 $129 $119 #
plane-surface $-1 0 -34.337058401780531 0 0 1 0 0 0 1 forward_v I I I I #
coedge $-1 $250 $122 $192 $251 forward $71 $-1 #
coedge $-1 $122 $250 $252 $253 forward $71 $-1 #
edge $-1 $254 -64.540543839838861 $193 64.540543839838861 $122 $255 forward 7 unknown #
coedge $-1 $124 $123 $256 $257 reversed $45 $-1 #
coedge $-1 $125 $131 $188 $251 reversed $120 $-1 #
vertex $-1 $251 $258 #
straight-curve $-1 64.540543839838861 -26.302972661899986 -4.2001909166569282 0 0 1 I I #
coedge $-1 $256 $259 $127 $196 forward $248 $-1 #
edge $-1 $201 -19.177050635860404 $197 -11.142964895979857 $195 $260 forward 7 unknown #
vertex $-1 $196 $261 #
straight-curve $-1 0 -26.302972661899986 -5.7081553104703708 -1 0 0 I I #
coedge $-1 $262 $129 $259 $263 forward $186 $-1 #
coedge $-1 $129 $262 $131 $203 reversed $186 $-1 #
vertex $-1 $263 $264 #
straight-curve $-1 0 -34.337058401780531 -5.7081553104703708 -1 0 0 I I #
edge $-1 $133 5.7081553104703708 $265 11.092608356157342 $131 $266 forward 7 unknown #
point $-1 64.540543839838861 -26.302972661899986 -5.7081553104703708 #
point $-1 64.540543839838861 -34.337058401780531 -5.7081553104703708 #
loop $-1 $-1 $143 $135 #
plane-surface $-1 -64.540543839838861 0 0 1 0 0 0 0 -1 forward_v I I I I #
coedge $-1 $209 $138 $140 $213 reversed $79 $-1 #
coedge $-1 $138 $208 $267 $268 reversed $79 $-1 #
coedge $-1 $146 $141 $138 $211 forward $136 $-1 #
edge $-1 $214 -26.848311895962517 $269 -23.623479118667603 $210 $270 forward 7 unknown #
coedge $-1 $140 $139 $217 $271 reversed $49 $-1 #
edge $-1 $272 0 $214 6.44966572740827 $208 $273 forward 7 unknown #
vertex $-1 $142 $274 #
straight-curve $-1 -61.31571106254394 10.374102504272631 11.092608356157342 0 1 0 I I #
coedge $-1 $267 $143 $146 $221 reversed $206 $-1 #
coedge $-1 $143 $267 $212 $271 forward $206 $-1 #
vertex $-1 $144 $275 #
straight-curve $-1 -64.540543839838861 11.952744831086196 35.023788025447033 0 0 1 I I #
straight-curve $-1 -64.540543839838861 11.952744831086196 5.5070339404155533 -0.49999998660252726 0 -0.86602541151947299 I I #
edge $-1 $269 -29.543665186004329 $147 -11.952744831086196 $216 $276 forward 7 unknown #
point $-1 -64.540543839838861 11.952744831086196 11.092608356157342 #
point $-1 -61.315711062543947 11.952744831086196 11.092608356157342 #
edge $-1 $277 1 $277 0 $150 $-1 forward 7 unknown #
vertex $-1 $151 $278 #
ellipse-curve $-1 -59.471862242215337 16.978722075348514 6.3043455707849247 -0.86602541151947299 0 0.49999998660252726 0.74999997990379086 0 1.2990381172792094 1 I I #
point $-1 -62.17812747128761 16.978722075348514 9.5988592655656575 #
edge $-1 $279 1 $279 0 $154 $-1 forward 7 unknown #
vertex $-1 $155 $280 #
ellipse-curve $-1 -59.471862242215337 24.517687941741997 6.3043455707849247 -0.86602541151947299 0 0.49999998660252726 0.74999997990379086 0 1.2990381172792094 1 I I #
point $-1 -62.17812747128761 24.517687941741997 9.5988592655656575 #
plane-surface $-1 64.540543839838861 0 0 -1 0 0 0 0 1 forward_v I I I I #
coedge $-1 $163 $161 $165 $237 reversed $101 $-1 #
edge $-1 $176 -11.092608356157342 $239 11.092608356157342 $175 $281 forward 7 unknown #
vertex $-1 $237 $282 #
straight-curve $-1 -64.540543839838861 -34.337058401780531 0 0 0 -1 I I #
edge $-1 $235 -34.337058401780531 $239 34.337058401780531 $233 $283 forward 7 unknown #
straight-curve $-1 0 -34.337058401780531 -11.092608356157342 -1 0 0 I I #
vertex $-1 $168 $284 #
straight-curve $-1 0 34.337058401780531 -11.092608356157342 1 0 0 I I #
point $-1 64.540543839838861 34.337058401780531 -11.092608356157342 #
point $-1 64.540543839838861 -34.337058401780531 -11.092608356157342 #
straight-curve $-1 -64.540543839838861 0 11.092608356157342 0 -1 0 I I #
point $-1 -64.540543839838861 34.337058401780531 11.092608356157342 #
point $-1 -64.540543839838861 -34.337058401780531 11.092608356157342 #
straight-curve $-1 64.540543839838861 -34.337058401780531 0 0 0 -1 I I #
straight-curve $-1 64.540543839838861 34.337058401780531 0 0 0 -1 I I #
loop $-1 $-1 $256 $185 #
plane-surface $-1 -64.540543839838861 0 0 1 0 0 0 0 -1 forward_v I I I I #
coedge $-1 $189 $188 $262 $285 forward $71 $-1 #
edge $-1 $193 26.302972661899986 $265 34.337058401780531 $192 $286 forward 7 unknown #
coedge $-1 $259 $256 $189 $253 reversed $248 $-1 #
edge $-1 $287 -34.337058401780531 $254 -26.302972661899986 $252 $288 forward 7 unknown #
vertex $-1 $257 $289 #
straight-curve $-1 0 -26.302972661899986 -11.092608356157342 1 0 0 I I #
coedge $-1 $252 $195 $191 $257 forward $248 $-1 #
edge $-1 $197 1.5079643938134426 $254 6.8924174395004139 $256 $290 forward 7 unknown #
point $-1 64.540543839838861 -26.302972661899986 -11.092608356157342 #
coedge $-1 $195 $252 $199 $263 reversed $248 $-1 #
straight-curve $-1 -64.540543839838861 -15.160007765920129 -5.7081553104703708 0 1 0 I I #
point $-1 -64.540543839838861 -26.302972661899986 -5.7081553104703708 #
coedge $-1 $200 $199 $250 $285 reversed $186 $-1 #
edge $-1 $201 5.7081553104703708 $287 11.092608356157342 $259 $291 forward 7 unknown #
point $-1 -64.540543839838861 -34.337058401780531 -5.7081553104703708 #
vertex $-1 $203 $292 #
straight-curve $-1 64.540543839838861 -34.337058401780531 0 0 0 -1 I I #
coedge $-1 $217 $216 $209 $268 forward $206 $-1 #
edge $-1 $269 23.931179669289691 $272 29.516754085031479 $267 $293 forward 7 unknown #
vertex $-1 $221 $294 #
straight-curve $-1 -88.164022958506465 29.543665186004329 11.092608356157342 -1 0 0 I I #
edge $-1 $272 -19.169562681731698 $218 -1.578642326813565 $217 $295 forward 7 unknown #
vertex $-1 $271 $296 #
straight-curve $-1 -64.540543839838861 29.543665186004329 5.5070339404155533 0.49999998660252726 0 0.86602541151947299 I I #
point $-1 -61.315711062543947 29.543665186004329 11.092608356157342 #
point $-1 -64.540543839838861 11.952744831086196 5.5070339404155533 #
straight-curve $-1 -64.540543839838861 0 11.092608356157342 0 -1 0 I I #
vertex $-1 $224 $297 #
point $-1 -58.721862262311546 16.978722075348514 7.6033836880641346 #
vertex $-1 $228 $298 #
point $-1 -58.721862262311546 24.517687941741997 7.6033836880641346 #
straight-curve $-1 -64.540543839838861 34.337058401780531 0 0 0 -1 I I #
point $-1 -64.540543839838861 -34.337058401780531 -11.092608356157342 #
straight-curve $-1 -64.540543839838861 0 -11.092608356157342 0 1 0 I I #
point $-1 -64.540543839838861 34.337058401780531 -11.092608356157342 #
edge $-1 $265 -64.540543839838861 $287 64.540543839838861 $262 $299 forward 7 unknown #
straight-curve $-1 64.540543839838861 0 -11.092608356157342 0 -1 0 I I #
vertex $-1 $253 $300 #
straight-curve $-1 -64.540543839838861 0 -11.092608356157342 0 1 0 I I #
point $-1 -64.540543839838861 -26.302972661899986 -11.092608356157342 #
straight-curve $-1 -64.540543839838861 -26.302972661899986 -4.2001909166569282 0 0 -1 I I #
straight-curve $-1 -64.540543839838861 -34.337058401780531 0 0 0 -1 I I #
point $-1 64.540543839838861 -34.337058401780531 -11.092608356157342 #
straight-curve $-1 -64.540543839838861 29.543665186004329 35.023788025447033 0 0 -1 I I #
point $-1 -64.540543839838861 29.543665186004329 11.092608356157342 #
straight-curve $-1 -64.540543839838861 10.374102504272631 5.5070339404155604 0 -1 0 I I #
point $-1 -64.540543839838861 29.543665186004329 5.5070339404155533 #
point $-1 -58.172824124936128 16.978722075348514 5.5543455908811339 #
point $-1 -58.172824124936128 24.517687941741997 5.5543455908811339 #
straight-curve $-1 0 -34.337058401780531 -11.092608356157342 -1 0 0 I I #
point $-1 -64.540543839838861 -34.337058401780531 -11.092608356157342 #
End-of-ACIS-data 