500 0 15 0           
7 Unknown 11 ACIS 5.0 NT 24 Thu Mar 25 22:46:43 1999 
-1 9.9999999999999995e-007 1e-010 
body $-1 $15 $-1 $16 #
body $-1 $17 $-1 $18 #
body $-1 $19 $-1 $20 #
body $-1 $21 $-1 $22 #
body $-1 $23 $-1 $24 #
body $-1 $25 $-1 $26 #
body $-1 $27 $-1 $28 #
body $-1 $29 $-1 $30 #
body $-1 $31 $-1 $32 #
body $-1 $33 $-1 $34 #
body $-1 $35 $-1 $36 #
body $-1 $37 $-1 $38 #
body $-1 $39 $-1 $40 #
body $-1 $41 $-1 $42 #
body $-1 $43 $-1 $44 #
lump $-1 $-1 $45 $0 #
transform $-1 1 0 0 0 1 0 0 0 1 73.818170720542014 37.683379780774871 18.81098380682328 1 rotate no_reflect no_shear #
lump $-1 $-1 $46 $1 #
transform $-1 1 0 0 0 1 0 0 0 1 73.818170720542014 37.683379780774871 18.81098380682328 1 rotate no_reflect no_shear #
lump $-1 $-1 $47 $2 #
transform $-1 1 0 0 0 1 0 0 0 1 73.818170720542014 37.683379780774871 18.81098380682328 1 rotate no_reflect no_shear #
lump $-1 $-1 $48 $3 #
transform $-1 1 0 0 0 1 0 0 0 1 73.818170720542014 37.683379780774871 18.81098380682328 1 rotate no_reflect no_shear #
lump $-1 $-1 $49 $4 #
transform $-1 1 0 0 0 1 0 0 0 1 73.818170720542014 37.683379780774871 18.81098380682328 1 rotate no_reflect no_shear #
lump $-1 $-1 $50 $5 #
transform $-1 1 0 0 0 1 0 0 0 1 73.818170720542014 37.683379780774871 18.81098380682328 1 rotate no_reflect no_shear #
lump $-1 $-1 $51 $6 #
transform $-1 1 0 0 0 1 0 0 0 1 73.818170720542014 37.683379780774871 18.81098380682328 1 rotate no_reflect no_shear #
lump $-1 $-1 $52 $7 #
transform $-1 1 0 0 0 1 0 0 0 1 73.818170720542014 37.683379780774871 18.81098380682328 1 rotate no_reflect no_shear #
lump $-1 $-1 $53 $8 #
transform $-1 1 0 0 0 1 0 0 0 1 73.818170720542014 37.683379780774871 18.81098380682328 1 rotate no_reflect no_shear #
lump $-1 $-1 $54 $9 #
transform $-1 1 0 0 0 1 0 0 0 1 73.818170720542014 37.683379780774871 18.81098380682328 1 rotate no_reflect no_shear #
lump $-1 $-1 $55 $10 #
transform $-1 1 0 0 0 1 0 0 0 1 73.818170720542014 37.683379780774871 18.81098380682328 1 rotate no_reflect no_shear #
lump $-1 $-1 $56 $11 #
transform $-1 1 0 0 0 1 0 0 0 1 73.818170720542014 37.683379780774871 18.81098380682328 1 rotate no_reflect no_shear #
lump $-1 $-1 $57 $12 #
transform $-1 1 0 0 0 1 0 0 0 1 73.818170720542014 37.683379780774871 18.81098380682328 1 rotate no_reflect no_shear #
lump $-1 $-1 $58 $13 #
transform $-1 1 0 0 0 1 0 0 0 1 73.818170720542014 37.683379780774871 18.81098380682328 1 rotate no_reflect no_shear #
lump $-1 $-1 $59 $14 #
transform $-1 1 0 0 0 1 0 0 0 1 73.818170720542014 37.683379780774871 18.81098380682328 1 rotate no_reflect no_shear #
shell $-1 $-1 $-1 $60 $-1 $15 #
shell $-1 $-1 $-1 $61 $-1 $17 #
shell $-1 $-1 $-1 $62 $-1 $19 #
shell $-1 $-1 $-1 $63 $-1 $21 #
shell $-1 $-1 $-1 $64 $-1 $23 #
shell $-1 $-1 $-1 $65 $-1 $25 #
shell $-1 $-1 $-1 $66 $-1 $27 #
shell $-1 $-1 $-1 $67 $-1 $29 #
shell $-1 $-1 $-1 $68 $-1 $31 #
shell $-1 $-1 $-1 $69 $-1 $33 #
shell $-1 $-1 $-1 $70 $-1 $35 #
shell $-1 $-1 $-1 $71 $-1 $37 #
shell $-1 $-1 $-1 $72 $-1 $39 #
shell $-1 $-1 $-1 $73 $-1 $41 #
shell $-1 $-1 $-1 $74 $-1 $43 #
face $-1 $75 $76 $45 $-1 $77 forward single #
face $-1 $78 $79 $46 $-1 $80 reversed single #
face $-1 $81 $82 $47 $-1 $83 reversed single #
face $-1 $84 $85 $48 $-1 $86 reversed single #
face $-1 $87 $88 $49 $-1 $89 forward single #
face $-1 $90 $91 $50 $-1 $92 forward single #
face $-1 $93 $94 $51 $-1 $95 reversed single #
face $-1 $96 $97 $52 $-1 $98 forward single #
face $-1 $99 $100 $53 $-1 $101 forward single #
face $-1 $102 $103 $54 $-1 $104 reversed single #
face $-1 $105 $106 $55 $-1 $107 forward single #
face $-1 $108 $109 $56 $-1 $110 forward single #
face $-1 $111 $112 $57 $-1 $113 reversed single #
face $-1 $114 $115 $58 $-1 $116 forward single #
face $-1 $117 $118 $59 $-1 $119 forward single #
face $-1 $120 $121 $45 $-1 $122 reversed single #
loop $-1 $-1 $123 $60 #
plane-surface $-1 0 0 18.81098380682328 0 0 1 1 0 0 forward_v I I I I #
face $-1 $124 $125 $46 $-1 $126 reversed single #
loop $-1 $-1 $127 $61 #
plane-surface $-1 -66.817519030656811 0 8.4918385104077245 0 0 1 1 0 0 forward_v I I I I #
face $-1 $128 $129 $47 $-1 $130 reversed single #
loop $-1 $-1 $131 $62 #
plane-surface $-1 66.817519030656797 0 8.4918385104077245 0 0 1 1 0 0 forward_v I I I I #
face $-1 $132 $133 $48 $-1 $134 reversed single #
loop $-1 $-1 $135 $63 #
plane-surface $-1 -21.752828320935961 -164.23242521607727 86.280949777909768 -1 0 0 0 -0.85716730853699208 0.51503806187062418 forward_v I I I I #
face $-1 $136 $137 $49 $-1 $138 forward single #
loop $-1 $139 $140 $64 #
cone-surface $-1 -42.666916906694496 -33.499877712245777 13.559831638678828 0 0.85716730853699208 -0.51503806187062418 2 0 0 1 I I 0 1 2 forward I I I I #
face $-1 $141 $142 $50 $-1 $143 forward single #
loop $-1 $144 $145 $65 #
cone-surface $-1 -30.118463755239375 -33.499877712245777 13.559831638678828 0 0.85716730853699208 -0.51503806187062418 2 0 0 1 I I 0 1 2 forward I I I I #
face $-1 $146 $147 $51 $-1 $148 reversed single #
loop $-1 $-1 $149 $66 #
plane-surface $-1 38.064039019835654 -164.23242521607727 86.280949777909768 -1 0 0 0 -0.85716730853699208 0.51503806187062418 forward_v I I I I #
face $-1 $150 $151 $52 $-1 $152 forward single #
loop $-1 $153 $154 $67 #
cone-surface $-1 17.149950434077113 -33.499877712245777 13.559831638678828 0 0.85716730853699208 -0.51503806187062418 2 0 0 1 I I 0 1 2 forward I I I I #
face $-1 $155 $156 $53 $-1 $157 forward single #
loop $-1 $158 $159 $68 #
cone-surface $-1 29.698403585532233 -33.499877712245777 13.559831638678828 0 0.85716730853699208 -0.51503806187062418 2 0 0 1 I I 0 1 2 forward I I I I #
face $-1 $160 $161 $54 $-1 $162 reversed single #
loop $-1 $-1 $163 $69 #
plane-surface $-1 -51.03255234099791 125.41567544202736 150.88287222443799 1 0 0 0 -0.85716730853699208 -0.51503806187062418 forward_v I I I I #
face $-1 $164 $165 $55 $-1 $166 forward single #
loop $-1 $167 $168 $70 #
cone-surface $-1 -42.666916906694496 33.499877712245798 13.559831638678835 0 -0.85716730853699208 -0.51503806187062418 2 0 0 1 I I 0 1 2 forward I I I I #
face $-1 $169 $170 $56 $-1 $171 forward single #
loop $-1 $172 $173 $71 #
cone-surface $-1 -30.118463755239375 33.499877712245798 13.559831638678835 0 -0.85716730853699208 -0.51503806187062418 2 0 0 1 I I 0 1 2 forward I I I I #
face $-1 $174 $175 $57 $-1 $176 reversed single #
loop $-1 $-1 $177 $72 #
plane-surface $-1 8.7843149997737058 125.41567544202736 150.88287222443799 1 0 0 0 -0.85716730853699208 -0.51503806187062418 forward_v I I I I #
face $-1 $178 $179 $58 $-1 $180 forward single #
loop $-1 $181 $182 $73 #
cone-surface $-1 17.149950434077113 33.499877712245798 13.559831638678835 0 -0.85716730853699208 -0.51503806187062418 2 0 0 1 I I 0 1 2 forward I I I I #
face $-1 $183 $184 $59 $-1 $185 forward single #
loop $-1 $186 $187 $74 #
cone-surface $-1 29.698403585532233 33.499877712245798 13.559831638678835 0 -0.85716730853699208 -0.51503806187062418 2 0 0 1 I I 0 1 2 forward I I I I #
face $-1 $188 $189 $45 $-1 $190 reversed single #
loop $-1 $-1 $191 $75 #
plane-surface $-1 0 0 -18.81098380682328 0 0 1 1 0 0 forward_v I I I I #
coedge $-1 $192 $193 $194 $195 forward $76 $-1 #
face $-1 $196 $197 $46 $-1 $198 reversed single #
loop $-1 $-1 $199 $78 #
plane-surface $-1 -59.816867340771608 0 13.651411158615502 -1 0 0 0 0 1 forward_v I I I I #
coedge $-1 $200 $201 $202 $203 forward $79 $-1 #
face $-1 $204 $205 $47 $-1 $206 forward single #
loop $-1 $-1 $207 $81 #
plane-surface $-1 59.816867340771594 0 13.651411158615502 1 0 0 0 0 -1 forward_v I I I I #
coedge $-1 $208 $209 $210 $211 reversed $82 $-1 #
face $-1 $212 $213 $48 $-1 $214 reversed single #
loop $-1 $-1 $215 $84 #
plane-surface $-1 -36.392690330966936 -37.683379780774885 10.242614620424135 0 -0.85716730853699208 0.51503806187062418 1 0 0 forward_v I I I I #
coedge $-1 $216 $217 $218 $219 reversed $85 $-1 #
face $-1 $-1 $220 $49 $-1 $221 forward single #
loop $-1 $222 $223 $87 #
cone-surface $-1 -42.666916906694496 -31.03340605317663 12.077826001863322 0 0.85716730853699208 -0.51503806187062418 1 0 0 1 I I -0.70710678118654746 0.70710678118654746 1 forward I I I I #
loop $-1 $-1 $224 $64 #
coedge $-1 $140 $140 $225 $226 reversed $88 $-1 #
face $-1 $-1 $227 $50 $-1 $228 forward single #
loop $-1 $229 $230 $90 #
cone-surface $-1 -30.118463755239375 -31.03340605317663 12.077826001863322 0 0.85716730853699208 -0.51503806187062418 1 0 0 1 I I -0.70710678118654746 0.70710678118654746 1 forward I I I I #
loop $-1 $-1 $231 $65 #
coedge $-1 $145 $145 $232 $233 reversed $91 $-1 #
face $-1 $234 $235 $51 $-1 $236 reversed single #
loop $-1 $-1 $237 $93 #
plane-surface $-1 23.42417700980468 -37.683379780774885 10.242614620424135 0 -0.85716730853699208 0.51503806187062418 1 0 0 forward_v I I I I #
coedge $-1 $238 $239 $240 $241 reversed $94 $-1 #
face $-1 $-1 $242 $52 $-1 $243 forward single #
loop $-1 $244 $245 $96 #
cone-surface $-1 17.149950434077113 -31.03340605317663 12.077826001863322 0 0.85716730853699208 -0.51503806187062418 1 0 0 1 I I -0.70710678118654746 0.70710678118654746 1 forward I I I I #
loop $-1 $-1 $246 $67 #
coedge $-1 $154 $154 $247 $248 reversed $97 $-1 #
face $-1 $-1 $249 $53 $-1 $250 forward single #
loop $-1 $251 $252 $99 #
cone-surface $-1 29.698403585532233 -31.03340605317663 12.077826001863322 0 0.85716730853699208 -0.51503806187062418 1 0 0 1 I I -0.70710678118654746 0.70710678118654746 1 forward I I I I #
loop $-1 $-1 $253 $68 #
coedge $-1 $159 $159 $254 $255 reversed $100 $-1 #
face $-1 $256 $257 $54 $-1 $258 reversed single #
loop $-1 $-1 $259 $102 #
plane-surface $-1 -36.392690330966936 -1.133369993275025 74.844537066952356 0 0.85716730853699208 0.51503806187062418 1 0 0 forward_v I I I I #
coedge $-1 $260 $261 $262 $263 reversed $103 $-1 #
face $-1 $-1 $264 $55 $-1 $265 forward single #
loop $-1 $266 $267 $105 #
cone-surface $-1 -42.666916906694496 31.033406053176648 12.077826001863329 0 -0.85716730853699208 -0.51503806187062418 1 0 0 1 I I -0.70710678118654746 0.70710678118654746 1 forward I I I I #
loop $-1 $-1 $268 $70 #
coedge $-1 $168 $168 $269 $270 reversed $106 $-1 #
face $-1 $-1 $271 $56 $-1 $272 forward single #
loop $-1 $273 $274 $108 #
cone-surface $-1 -30.118463755239375 31.033406053176648 12.077826001863329 0 -0.85716730853699208 -0.51503806187062418 1 0 0 1 I I -0.70710678118654746 0.70710678118654746 1 forward I I I I #
loop $-1 $-1 $275 $71 #
coedge $-1 $173 $173 $276 $277 reversed $109 $-1 #
face $-1 $278 $279 $57 $-1 $280 reversed single #
loop $-1 $-1 $281 $111 #
plane-surface $-1 23.42417700980468 -1.133369993275025 74.844537066952356 0 0.85716730853699208 0.51503806187062418 1 0 0 forward_v I I I I #
coedge $-1 $282 $283 $284 $285 reversed $112 $-1 #
face $-1 $-1 $286 $58 $-1 $287 forward single #
loop $-1 $288 $289 $114 #
cone-surface $-1 17.149950434077113 31.033406053176648 12.077826001863329 0 -0.85716730853699208 -0.51503806187062418 1 0 0 1 I I -0.70710678118654746 0.70710678118654746 1 forward I I I I #
loop $-1 $-1 $290 $73 #
coedge $-1 $182 $182 $291 $292 reversed $115 $-1 #
face $-1 $-1 $293 $59 $-1 $294 forward single #
loop $-1 $295 $296 $117 #
cone-surface $-1 29.698403585532233 31.033406053176648 12.077826001863329 0 -0.85716730853699208 -0.51503806187062418 1 0 0 1 I I -0.70710678118654746 0.70710678118654746 1 forward I I I I #
loop $-1 $-1 $297 $74 #
coedge $-1 $187 $187 $298 $299 reversed $118 $-1 #
face $-1 $300 $301 $45 $-1 $302 reversed single #
loop $-1 $-1 $303 $120 #
plane-surface $-1 0 -37.683379780774871 0 0 1 0 0 0 1 forward_v I I I I #
coedge $-1 $304 $305 $306 $307 forward $121 $-1 #
coedge $-1 $308 $123 $309 $310 forward $76 $-1 #
coedge $-1 $123 $308 $311 $312 forward $76 $-1 #
coedge $-1 $313 $314 $123 $195 reversed $315 $-1 #
edge $-1 $316 -37.683379780774871 $317 37.683379780774871 $194 $318 forward 7 unknown #
face $-1 $319 $320 $46 $-1 $321 reversed single #
loop $-1 $-1 $322 $124 #
plane-surface $-1 0 37.683379780774871 0 0 -1 0 0 0 -1 forward_v I I I I #
coedge $-1 $202 $323 $324 $325 reversed $125 $-1 #
coedge $-1 $326 $127 $327 $328 reversed $79 $-1 #
coedge $-1 $127 $326 $329 $330 reversed $79 $-1 #
coedge $-1 $331 $199 $127 $203 reversed $125 $-1 #
edge $-1 $332 -37.683379780774871 $333 37.683379780774871 $202 $334 forward 7 unknown #
face $-1 $335 $336 $47 $-1 $337 reversed single #
loop $-1 $-1 $338 $128 #
plane-surface $-1 0 0 18.81098380682328 0 0 1 1 0 0 forward_v I I I I #
coedge $-1 $339 $340 $341 $342 reversed $129 $-1 #
coedge $-1 $343 $131 $344 $345 reversed $82 $-1 #
coedge $-1 $131 $343 $346 $347 reversed $82 $-1 #
coedge $-1 $348 $349 $131 $211 forward $350 $-1 #
edge $-1 $351 -37.683379780774871 $352 37.683379780774871 $210 $353 forward 7 unknown #
face $-1 $354 $355 $48 $-1 $356 forward single #
loop $-1 $-1 $357 $132 #
plane-surface $-1 -51.03255234099791 -164.23242521607727 86.280949777909768 1 0 0 0 0.85716730853699208 -0.51503806187062418 forward_v I I I I #
coedge $-1 $358 $359 $360 $361 reversed $133 $-1 #
coedge $-1 $217 $135 $362 $363 reversed $85 $-1 #
coedge $-1 $135 $216 $358 $364 reversed $85 $-1 #
coedge $-1 $360 $365 $135 $219 forward $355 $-1 #
edge $-1 $366 44.432832827263766 $367 49.581228263257614 $218 $368 forward 7 unknown #
loop $-1 $-1 $225 $136 #
plane-surface $-1 -36.392690330966936 -37.683379780774885 10.242614620424135 0 -0.85716730853699208 0.51503806187062418 1 0 0 forward_v I I I I #
loop $-1 $-1 $369 $87 #
coedge $-1 $223 $223 $224 $370 reversed $137 $-1 #
coedge $-1 $224 $224 $223 $370 forward $139 $-1 #
coedge $-1 $225 $225 $140 $226 forward $220 $-1 #
edge $-1 $371 -1.2154872545493161e-015 $371 6.2831853071795996 $225 $372 forward 7 unknown #
loop $-1 $-1 $232 $141 #
plane-surface $-1 -36.392690330966936 -37.683379780774885 10.242614620424135 0 -0.85716730853699208 0.51503806187062418 1 0 0 forward_v I I I I #
loop $-1 $-1 $373 $90 #
coedge $-1 $230 $230 $231 $374 reversed $142 $-1 #
coedge $-1 $231 $231 $230 $374 forward $144 $-1 #
coedge $-1 $232 $232 $145 $233 forward $227 $-1 #
edge $-1 $375 -1.2154872545493161e-015 $375 6.2831853071795996 $232 $376 forward 7 unknown #
face $-1 $377 $378 $51 $-1 $379 reversed single #
loop $-1 $-1 $380 $146 #
plane-surface $-1 8.7843149997737058 -164.23242521607727 86.280949777909768 1 0 0 0 0.85716730853699208 -0.51503806187062418 forward_v I I I I #
coedge $-1 $381 $382 $383 $384 reversed $147 $-1 #
coedge $-1 $239 $149 $385 $386 reversed $94 $-1 #
coedge $-1 $149 $238 $381 $387 reversed $94 $-1 #
coedge $-1 $383 $388 $149 $241 forward $389 $-1 #
edge $-1 $390 44.432832827263766 $391 49.581228263257614 $240 $392 forward 7 unknown #
loop $-1 $-1 $247 $150 #
plane-surface $-1 23.42417700980468 -37.683379780774885 10.242614620424135 0 -0.85716730853699208 0.51503806187062418 1 0 0 forward_v I I I I #
loop $-1 $-1 $393 $96 #
coedge $-1 $245 $245 $246 $394 reversed $151 $-1 #
coedge $-1 $246 $246 $245 $394 forward $153 $-1 #
coedge $-1 $247 $247 $154 $248 forward $242 $-1 #
edge $-1 $395 -1.2154872545493161e-015 $395 6.2831853071795996 $247 $396 forward 7 unknown #
loop $-1 $-1 $254 $155 #
plane-surface $-1 23.42417700980468 -37.683379780774885 10.242614620424135 0 -0.85716730853699208 0.51503806187062418 1 0 0 forward_v I I I I #
loop $-1 $-1 $397 $99 #
coedge $-1 $252 $252 $253 $398 reversed $156 $-1 #
coedge $-1 $253 $253 $252 $398 forward $158 $-1 #
coedge $-1 $254 $254 $159 $255 forward $249 $-1 #
edge $-1 $399 -1.2154872545493161e-015 $399 6.2831853071795996 $254 $400 forward 7 unknown #
face $-1 $401 $402 $54 $-1 $403 reversed single #
loop $-1 $-1 $404 $160 #
plane-surface $-1 -21.752828320935961 125.41567544202736 150.88287222443799 -1 0 0 0 0.85716730853699208 0.51503806187062418 forward_v I I I I #
coedge $-1 $405 $406 $407 $408 reversed $161 $-1 #
coedge $-1 $261 $163 $409 $410 reversed $103 $-1 #
coedge $-1 $163 $260 $405 $411 reversed $103 $-1 #
coedge $-1 $407 $412 $163 $263 forward $413 $-1 #
edge $-1 $414 25.024457940238811 $415 30.172853376232645 $262 $416 forward 7 unknown #
loop $-1 $-1 $269 $164 #
plane-surface $-1 -36.392690330966936 -1.133369993275025 74.844537066952356 0 0.85716730853699208 0.51503806187062418 1 0 0 forward_v I I I I #
loop $-1 $-1 $417 $105 #
coedge $-1 $267 $267 $268 $418 reversed $165 $-1 #
coedge $-1 $268 $268 $267 $418 forward $167 $-1 #
coedge $-1 $269 $269 $168 $270 forward $264 $-1 #
edge $-1 $419 -1.0684652619956698e-015 $419 6.2831853071795996 $269 $420 forward 7 unknown #
loop $-1 $-1 $276 $169 #
plane-surface $-1 -36.392690330966936 -1.133369993275025 74.844537066952356 0 0.85716730853699208 0.51503806187062418 1 0 0 forward_v I I I I #
loop $-1 $-1 $421 $108 #
coedge $-1 $274 $274 $275 $422 reversed $170 $-1 #
coedge $-1 $275 $275 $274 $422 forward $172 $-1 #
coedge $-1 $276 $276 $173 $277 forward $271 $-1 #
edge $-1 $423 -1.0684652619956698e-015 $423 6.2831853071795996 $276 $424 forward 7 unknown #
face $-1 $425 $426 $57 $-1 $427 forward single #
loop $-1 $-1 $428 $174 #
plane-surface $-1 38.064039019835654 125.41567544202736 150.88287222443799 -1 0 0 0 0.85716730853699208 0.51503806187062418 forward_v I I I I #
coedge $-1 $429 $430 $431 $432 reversed $175 $-1 #
coedge $-1 $283 $177 $433 $434 reversed $112 $-1 #
coedge $-1 $177 $282 $429 $435 reversed $112 $-1 #
coedge $-1 $431 $436 $177 $285 forward $426 $-1 #
edge $-1 $437 25.024457940238811 $438 30.172853376232645 $284 $439 forward 7 unknown #
loop $-1 $-1 $291 $178 #
plane-surface $-1 23.42417700980468 -1.133369993275025 74.844537066952356 0 0.85716730853699208 0.51503806187062418 1 0 0 forward_v I I I I #
loop $-1 $-1 $440 $114 #
coedge $-1 $289 $289 $290 $441 reversed $179 $-1 #
coedge $-1 $290 $290 $289 $441 forward $181 $-1 #
coedge $-1 $291 $291 $182 $292 forward $286 $-1 #
edge $-1 $442 -1.0684652619956698e-015 $442 6.2831853071795996 $291 $443 forward 7 unknown #
loop $-1 $-1 $298 $183 #
plane-surface $-1 23.42417700980468 -1.133369993275025 74.844537066952356 0 0.85716730853699208 0.51503806187062418 1 0 0 forward_v I I I I #
loop $-1 $-1 $444 $117 #
coedge $-1 $296 $296 $297 $445 reversed $184 $-1 #
coedge $-1 $297 $297 $296 $445 forward $186 $-1 #
coedge $-1 $298 $298 $187 $299 forward $293 $-1 #
edge $-1 $446 -1.0684652619956698e-015 $446 6.2831853071795996 $298 $447 forward 7 unknown #
face $-1 $448 $449 $45 $-1 $450 reversed single #
loop $-1 $-1 $451 $188 #
plane-surface $-1 -73.818170720542014 0 0 1 0 0 0 0 -1 forward_v I I I I #
coedge $-1 $452 $311 $453 $454 forward $189 $-1 #
coedge $-1 $455 $191 $452 $456 forward $121 $-1 #
coedge $-1 $191 $455 $457 $458 forward $121 $-1 #
coedge $-1 $314 $313 $191 $307 reversed $315 $-1 #
edge $-1 $459 -37.683379780774871 $460 37.683379780774871 $306 $461 forward 7 unknown #
coedge $-1 $193 $192 $462 $463 forward $76 $-1 #
coedge $-1 $464 $465 $192 $310 reversed $449 $-1 #
edge $-1 $317 -73.818170720542014 $466 73.818170720542014 $309 $467 forward 7 unknown #
coedge $-1 $303 $468 $193 $312 reversed $189 $-1 #
edge $-1 $469 -73.818170720542014 $316 73.818170720542014 $311 $470 forward 7 unknown #
coedge $-1 $306 $194 $468 $471 forward $315 $-1 #
coedge $-1 $194 $306 $464 $472 reversed $315 $-1 #
loop $-1 $-1 $313 $448 #
vertex $-1 $195 $473 #
vertex $-1 $195 $474 #
straight-curve $-1 73.818170720542014 0 18.81098380682328 0 1 0 I I #
face $-1 $475 $476 $46 $-1 $477 forward single #
loop $-1 $-1 $478 $196 #
plane-surface $-1 -73.818170720542014 0 0 1 0 0 0 0 -1 forward_v I I I I #
coedge $-1 $329 $479 $331 $480 forward $197 $-1 #
coedge $-1 $199 $331 $481 $482 reversed $125 $-1 #
coedge $-1 $483 $327 $199 $325 forward $484 $-1 #
edge $-1 $333 1.6661329310999733 $485 11.985278227515529 $324 $486 forward 7 unknown #
coedge $-1 $201 $200 $478 $487 reversed $79 $-1 #
coedge $-1 $324 $488 $200 $328 forward $484 $-1 #
edge $-1 $489 -40.409411205213608 $333 -26.408107825443203 $327 $490 forward 7 unknown #
coedge $-1 $491 $322 $201 $330 forward $197 $-1 #
edge $-1 $332 26.408107825443203 $492 40.409411205213608 $329 $493 forward 7 unknown #
coedge $-1 $323 $202 $322 $480 reversed $125 $-1 #
vertex $-1 $330 $494 #
vertex $-1 $328 $495 #
straight-curve $-1 -59.816867340771608 0 8.4918385104077245 0 -1 0 I I #
face $-1 $496 $497 $47 $-1 $498 reversed single #
loop $-1 $-1 $499 $204 #
plane-surface $-1 0 -37.683379780774871 0 0 1 0 0 0 1 forward_v I I I I #
coedge $-1 $500 $501 $340 $502 forward $205 $-1 #
coedge $-1 $503 $207 $343 $504 reversed $129 $-1 #
coedge $-1 $207 $503 $338 $502 reversed $129 $-1 #
coedge $-1 $505 $346 $207 $342 forward $497 $-1 #
edge $-1 $506 1.6661329310999733 $507 11.985278227515529 $341 $508 forward 7 unknown #
coedge $-1 $209 $208 $339 $504 forward $82 $-1 #
coedge $-1 $509 $499 $208 $345 forward $336 $-1 #
edge $-1 $510 26.408107825443196 $351 40.409411205213601 $344 $511 forward 7 unknown #
coedge $-1 $341 $512 $209 $347 forward $497 $-1 #
edge $-1 $352 -40.409411205213601 $506 -26.408107825443196 $346 $513 forward 7 unknown #
coedge $-1 $514 $210 $512 $515 reversed $350 $-1 #
coedge $-1 $210 $514 $509 $516 forward $350 $-1 #
loop $-1 $-1 $210 $496 #
vertex $-1 $345 $517 #
vertex $-1 $211 $518 #
straight-curve $-1 73.818170720542014 0 8.4918385104077245 0 1 0 I I #
face $-1 $-1 $519 $48 $-1 $520 reversed single #
loop $-1 $-1 $218 $212 #
plane-surface $-1 0 0 18.81098380682328 0 0 1 1 0 0 forward_v I I I I #
coedge $-1 $521 $522 $523 $524 reversed $213 $-1 #
coedge $-1 $525 $215 $217 $364 forward $133 $-1 #
coedge $-1 $215 $525 $521 $526 forward $133 $-1 #
coedge $-1 $523 $218 $215 $361 forward $355 $-1 #
edge $-1 $367 3.5564831554524936 $527 32.836207175514446 $360 $528 forward 7 unknown #
coedge $-1 $529 $530 $216 $363 forward $519 $-1 #
edge $-1 $531 -32.897860268530728 $366 -24.329491082131604 $362 $532 forward 7 unknown #
edge $-1 $367 -9.9961455611549006 $531 -2.7113386213432547e-014 $217 $533 forward 7 unknown #
coedge $-1 $218 $523 $529 $534 forward $355 $-1 #
vertex $-1 $363 $535 #
vertex $-1 $219 $536 #
straight-curve $-1 -21.752828320935961 -82.116212608038637 18.81098380682328 0 1 0 I I #
coedge $-1 $369 $369 $-1 $537 reversed $222 $-1 #
edge $-1 $538 0 $538 6.2831853071796004 $223 $539 forward 7 unknown #
vertex $-1 $226 $540 #
ellipse-curve $-1 -42.666916906694496 -35.109182062777947 14.526799213623717 0 -0.85716730853699208 0.51503806187062418 2 0 0 1 I I #
coedge $-1 $373 $373 $-1 $541 reversed $229 $-1 #
edge $-1 $542 0 $542 6.2831853071796004 $230 $543 forward 7 unknown #
vertex $-1 $233 $544 #
ellipse-curve $-1 -30.118463755239375 -35.109182062777947 14.526799213623717 0 -0.85716730853699208 0.51503806187062418 2 0 0 1 I I #
face $-1 $-1 $389 $51 $-1 $545 forward single #
loop $-1 $-1 $546 $234 #
plane-surface $-1 0 -37.683379780774871 0 0 1 0 0 0 1 forward_v I I I I #
coedge $-1 $547 $548 $549 $550 reversed $235 $-1 #
coedge $-1 $551 $237 $239 $387 forward $147 $-1 #
coedge $-1 $237 $551 $547 $552 forward $147 $-1 #
coedge $-1 $549 $240 $237 $384 forward $389 $-1 #
edge $-1 $391 -26.351950514933314 $553 2.9277735051286342 $383 $554 forward 7 unknown #
coedge $-1 $555 $556 $238 $386 forward $378 $-1 #
edge $-1 $557 -32.897860268530728 $390 -24.329491082131604 $385 $558 forward 7 unknown #
edge $-1 $391 -9.9961455611549006 $557 -2.7113386213432547e-014 $239 $559 forward 7 unknown #
coedge $-1 $240 $549 $555 $560 forward $389 $-1 #
loop $-1 $-1 $549 $377 #
vertex $-1 $386 $561 #
vertex $-1 $241 $562 #
straight-curve $-1 38.064039019835654 -82.116212608038637 18.81098380682328 0 1 0 I I #
coedge $-1 $393 $393 $-1 $563 reversed $244 $-1 #
edge $-1 $564 0 $564 6.2831853071796004 $245 $565 forward 7 unknown #
vertex $-1 $248 $566 #
ellipse-curve $-1 17.149950434077113 -35.109182062777947 14.526799213623717 0 -0.85716730853699208 0.51503806187062418 2 0 0 1 I I #
coedge $-1 $397 $397 $-1 $567 reversed $251 $-1 #
edge $-1 $568 0 $568 6.2831853071796004 $252 $569 forward 7 unknown #
vertex $-1 $255 $570 #
ellipse-curve $-1 29.698403585532233 -35.109182062777947 14.526799213623717 0 -0.85716730853699208 0.51503806187062418 2 0 0 1 I I #
face $-1 $-1 $413 $54 $-1 $571 forward single #
loop $-1 $-1 $572 $256 #
plane-surface $-1 0 37.683379780774871 0 0 -1 0 0 0 -1 forward_v I I I I #
coedge $-1 $573 $574 $575 $576 reversed $257 $-1 #
coedge $-1 $577 $259 $261 $411 forward $161 $-1 #
coedge $-1 $259 $577 $573 $578 forward $161 $-1 #
coedge $-1 $575 $262 $259 $408 forward $413 $-1 #
edge $-1 $415 -32.836207175514446 $579 -3.5564831554524936 $407 $580 forward 7 unknown #
coedge $-1 $581 $582 $260 $410 forward $402 $-1 #
edge $-1 $583 -65.198821491794817 $414 -56.630452305395714 $409 $584 forward 7 unknown #
edge $-1 $415 65.37061400039488 $583 75.366759561549728 $261 $585 forward 7 unknown #
coedge $-1 $262 $575 $581 $586 forward $413 $-1 #
loop $-1 $-1 $575 $401 #
vertex $-1 $410 $587 #
vertex $-1 $263 $588 #
straight-curve $-1 -51.03255234099791 62.707837721013682 18.810983806823273 0 -1 0 I I #
coedge $-1 $417 $417 $-1 $589 reversed $266 $-1 #
edge $-1 $590 0 $590 6.2831853071796004 $267 $591 forward 7 unknown #
vertex $-1 $270 $592 #
ellipse-curve $-1 -42.666916906694496 35.109182062777961 14.526799213623718 0 0.85716730853699208 0.51503806187062418 2 0 0 1 I I #
coedge $-1 $421 $421 $-1 $593 reversed $273 $-1 #
edge $-1 $594 0 $594 6.2831853071796004 $274 $595 forward 7 unknown #
vertex $-1 $277 $596 #
ellipse-curve $-1 -30.118463755239375 35.109182062777961 14.526799213623718 0 0.85716730853699208 0.51503806187062418 2 0 0 1 I I #
face $-1 $-1 $597 $57 $-1 $598 reversed single #
loop $-1 $-1 $284 $278 #
plane-surface $-1 0 0 18.81098380682328 0 0 1 1 0 0 forward_v I I I I #
coedge $-1 $599 $600 $601 $602 reversed $279 $-1 #
coedge $-1 $603 $281 $283 $435 forward $175 $-1 #
coedge $-1 $281 $603 $599 $604 forward $175 $-1 #
coedge $-1 $601 $284 $281 $432 forward $426 $-1 #
edge $-1 $438 -2.9277735051286342 $605 26.351950514933314 $431 $606 forward 7 unknown #
coedge $-1 $607 $608 $282 $434 forward $597 $-1 #
edge $-1 $609 -65.198821491794817 $437 -56.630452305395714 $433 $610 forward 7 unknown #
edge $-1 $438 65.37061400039488 $609 75.366759561549728 $283 $611 forward 7 unknown #
coedge $-1 $284 $601 $607 $612 forward $426 $-1 #
vertex $-1 $285 $613 #
vertex $-1 $285 $614 #
straight-curve $-1 8.7843149997737058 62.707837721013682 18.810983806823273 0 -1 0 I I #
coedge $-1 $440 $440 $-1 $615 reversed $288 $-1 #
edge $-1 $616 0 $616 6.2831853071796004 $289 $617 forward 7 unknown #
vertex $-1 $292 $618 #
ellipse-curve $-1 17.149950434077113 35.109182062777961 14.526799213623718 0 0.85716730853699208 0.51503806187062418 2 0 0 1 I I #
coedge $-1 $444 $444 $-1 $619 reversed $295 $-1 #
edge $-1 $620 0 $620 6.2831853071796004 $296 $621 forward 7 unknown #
vertex $-1 $299 $622 #
ellipse-curve $-1 29.698403585532233 35.109182062777961 14.526799213623718 0 0.85716730853699208 0.51503806187062418 2 0 0 1 I I #
face $-1 $-1 $315 $45 $-1 $623 reversed single #
loop $-1 $-1 $464 $300 #
plane-surface $-1 0 37.683379780774871 0 0 -1 0 0 0 -1 forward_v I I I I #
coedge $-1 $624 $462 $465 $625 forward $301 $-1 #
coedge $-1 $468 $303 $304 $456 reversed $189 $-1 #
coedge $-1 $462 $624 $303 $454 reversed $301 $-1 #
edge $-1 $469 -18.81098380682328 $626 18.81098380682328 $453 $627 forward 7 unknown #
coedge $-1 $305 $304 $624 $628 forward $121 $-1 #
edge $-1 $460 -73.818170720542014 $626 73.818170720542014 $452 $629 forward 7 unknown #
coedge $-1 $465 $464 $305 $458 reversed $449 $-1 #
edge $-1 $630 -73.818170720542014 $459 73.818170720542014 $457 $631 forward 7 unknown #
vertex $-1 $307 $632 #
vertex $-1 $471 $633 #
straight-curve $-1 73.818170720542014 0 -18.81098380682328 0 -1 0 I I #
coedge $-1 $451 $453 $308 $463 reversed $301 $-1 #
edge $-1 $466 -37.683379780774871 $469 37.683379780774871 $462 $634 forward 7 unknown #
coedge $-1 $457 $309 $314 $472 forward $449 $-1 #
coedge $-1 $309 $457 $451 $625 reversed $449 $-1 #
vertex $-1 $310 $635 #
straight-curve $-1 0 37.683379780774871 18.81098380682328 -1 0 0 I I #
coedge $-1 $311 $452 $313 $471 reversed $189 $-1 #
vertex $-1 $463 $636 #
straight-curve $-1 0 -37.683379780774871 18.81098380682328 1 0 0 I I #
edge $-1 $316 -18.81098380682328 $460 18.81098380682328 $313 $637 forward 7 unknown #
edge $-1 $317 -18.81098380682328 $459 18.81098380682328 $314 $638 forward 7 unknown #
point $-1 73.818170720542014 -37.683379780774871 18.81098380682328 #
point $-1 73.818170720542014 37.683379780774871 18.81098380682328 #
face $-1 $-1 $484 $46 $-1 $639 reversed single #
loop $-1 $-1 $481 $319 #
plane-surface $-1 0 0 18.81098380682328 0 0 1 1 0 0 forward_v I I I I #
coedge $-1 $640 $641 $326 $487 forward $320 $-1 #
coedge $-1 $322 $491 $642 $643 reversed $197 $-1 #
edge $-1 $644 -11.985278227515529 $332 -1.6661329310999733 $322 $645 forward 7 unknown #
coedge $-1 $642 $646 $323 $482 forward $476 $-1 #
edge $-1 $485 -37.683379780774871 $644 37.683379780774871 $481 $647 forward 7 unknown #
coedge $-1 $488 $324 $646 $648 reversed $484 $-1 #
loop $-1 $-1 $324 $475 #
vertex $-1 $325 $649 #
straight-curve $-1 -59.816867340771608 -37.683379780774871 6.8257055793077512 0 0 1 I I #
edge $-1 $492 -37.683379780774871 $489 37.683379780774871 $478 $650 forward 7 unknown #
coedge $-1 $327 $483 $640 $651 forward $484 $-1 #
vertex $-1 $487 $652 #
straight-curve $-1 -33.408759515328406 -37.683379780774871 8.4918385104077245 1 0 0 I I #
coedge $-1 $479 $329 $641 $653 reversed $197 $-1 #
vertex $-1 $487 $654 #
straight-curve $-1 -33.408759515328406 37.683379780774871 8.4918385104077245 -1 0 0 I I #
point $-1 -59.816867340771608 37.683379780774871 8.4918385104077245 #
point $-1 -59.816867340771608 -37.683379780774871 8.4918385104077245 #
face $-1 $-1 $350 $47 $-1 $655 reversed single #
loop $-1 $-1 $341 $335 #
plane-surface $-1 0 37.683379780774871 0 0 -1 0 0 0 -1 forward_v I I I I #
coedge $-1 $344 $656 $503 $657 forward $336 $-1 #
coedge $-1 $658 $338 $656 $659 forward $205 $-1 #
coedge $-1 $338 $658 $505 $660 forward $205 $-1 #
edge $-1 $507 -37.683379780774871 $661 37.683379780774871 $338 $662 forward 7 unknown #
coedge $-1 $340 $339 $499 $657 reversed $129 $-1 #
edge $-1 $510 -37.683379780774871 $506 37.683379780774871 $339 $663 forward 7 unknown #
coedge $-1 $512 $341 $501 $660 reversed $497 $-1 #
vertex $-1 $347 $664 #
vertex $-1 $342 $665 #
straight-curve $-1 59.816867340771594 37.683379780774871 6.8257055793077512 0 0 1 I I #
coedge $-1 $656 $344 $349 $516 reversed $336 $-1 #
vertex $-1 $345 $666 #
straight-curve $-1 33.408759515328398 -37.683379780774871 8.4918385104077245 1 0 0 I I #
coedge $-1 $346 $505 $348 $515 forward $497 $-1 #
straight-curve $-1 33.408759515328398 37.683379780774871 8.4918385104077245 -1 0 0 I I #
coedge $-1 $349 $348 $658 $667 reversed $350 $-1 #
edge $-1 $668 -18.81098380682328 $352 -8.4918385104077245 $348 $669 forward 7 unknown #
edge $-1 $670 -18.81098380682328 $351 -8.4918385104077245 $349 $671 forward 7 unknown #
point $-1 73.818170720542 -37.683379780774871 8.4918385104077245 #
point $-1 73.818170720542 37.683379780774871 8.4918385104077245 #
loop $-1 $-1 $362 $354 #
plane-surface $-1 0 -37.683379780774871 0 0 1 0 0 0 1 forward_v I I I I #
coedge $-1 $522 $357 $359 $526 reversed $213 $-1 #
coedge $-1 $357 $521 $672 $673 reversed $213 $-1 #
coedge $-1 $365 $360 $357 $524 forward $355 $-1 #
edge $-1 $527 -49.581228263257614 $674 -44.432832827263766 $523 $675 forward 7 unknown #
coedge $-1 $359 $358 $530 $676 reversed $133 $-1 #
edge $-1 $677 2.7113386213432547e-014 $527 9.9961455611549006 $521 $678 forward 7 unknown #
vertex $-1 $361 $679 #
straight-curve $-1 -18.196345165483468 -32.534984344781023 18.81098380682328 -1 0 0 I I #
coedge $-1 $672 $362 $365 $534 reversed $519 $-1 #
coedge $-1 $362 $672 $525 $676 forward $519 $-1 #
vertex $-1 $363 $680 #
straight-curve $-1 -21.752828320935961 -37.683379780774871 43.140474888954884 0 0 1 I I #
straight-curve $-1 -21.752828320935961 -37.683379780774885 10.242614620424135 0 -0.51503806187062418 -0.85716730853699208 I I #
edge $-1 $674 -51.03255234099791 $366 -21.752828320935961 $529 $681 forward 7 unknown #
point $-1 -21.752828320935961 -37.683379780774871 18.81098380682328 #
point $-1 -21.752828320935961 -32.534984344781023 18.81098380682328 #
edge $-1 $682 1 $682 0 $369 $-1 forward 7 unknown #
vertex $-1 $370 $683 #
ellipse-curve $-1 -42.666916906694496 -31.890573361713624 12.592864063733947 0 -0.85716730853699208 0.51503806187062418 2 0 0 1 I I #
point $-1 -40.666916906694496 -35.10918206277794 14.526799213623709 #
edge $-1 $684 1 $684 0 $373 $-1 forward 7 unknown #
vertex $-1 $374 $685 #
ellipse-curve $-1 -30.118463755239375 -31.890573361713624 12.592864063733947 0 -0.85716730853699208 0.51503806187062418 2 0 0 1 I I #
point $-1 -28.118463755239375 -35.10918206277794 14.526799213623709 #
plane-surface $-1 0 0 18.81098380682328 0 0 1 1 0 0 forward_v I I I I #
coedge $-1 $556 $555 $548 $686 forward $378 $-1 #
coedge $-1 $548 $380 $382 $552 reversed $235 $-1 #
coedge $-1 $380 $547 $546 $686 reversed $235 $-1 #
coedge $-1 $388 $383 $380 $550 forward $389 $-1 #
edge $-1 $553 -49.581228263257614 $687 -44.432832827263766 $549 $688 forward 7 unknown #
coedge $-1 $382 $381 $556 $689 reversed $147 $-1 #
edge $-1 $690 2.7113386213432547e-014 $553 9.9961455611549006 $547 $691 forward 7 unknown #
vertex $-1 $384 $692 #
straight-curve $-1 11.71208850490234 -32.534984344781023 18.81098380682328 -1 0 0 I I #
coedge $-1 $546 $385 $388 $560 reversed $378 $-1 #
coedge $-1 $385 $546 $551 $689 forward $378 $-1 #
vertex $-1 $386 $693 #
straight-curve $-1 38.064039019835654 -37.683379780774871 43.140474888954884 0 0 1 I I #
straight-curve $-1 38.064039019835654 -37.683379780774885 10.242614620424135 0 -0.51503806187062418 -0.85716730853699208 I I #
edge $-1 $687 8.7843149997737058 $390 38.064039019835654 $555 $694 forward 7 unknown #
point $-1 38.064039019835654 -37.683379780774871 18.81098380682328 #
point $-1 38.064039019835654 -32.534984344781023 18.81098380682328 #
edge $-1 $695 1 $695 0 $393 $-1 forward 7 unknown #
vertex $-1 $394 $696 #
ellipse-curve $-1 17.149950434077113 -31.890573361713624 12.592864063733947 0 -0.85716730853699208 0.51503806187062418 2 0 0 1 I I #
point $-1 19.149950434077113 -35.10918206277794 14.526799213623709 #
edge $-1 $697 1 $697 0 $397 $-1 forward 7 unknown #
vertex $-1 $398 $698 #
ellipse-curve $-1 29.698403585532233 -31.890573361713624 12.592864063733947 0 -0.85716730853699208 0.51503806187062418 2 0 0 1 I I #
point $-1 31.698403585532233 -35.10918206277794 14.526799213623709 #
plane-surface $-1 0 0 18.81098380682328 0 0 1 1 0 0 forward_v I I I I #
coedge $-1 $582 $581 $574 $699 forward $402 $-1 #
coedge $-1 $574 $404 $406 $578 reversed $257 $-1 #
coedge $-1 $404 $573 $572 $699 reversed $257 $-1 #
coedge $-1 $412 $407 $404 $576 forward $413 $-1 #
edge $-1 $579 -30.172853376232645 $700 -25.024457940238811 $575 $701 forward 7 unknown #
coedge $-1 $406 $405 $582 $702 reversed $161 $-1 #
edge $-1 $703 -75.366759561549728 $579 -65.37061400039488 $573 $704 forward 7 unknown #
vertex $-1 $408 $705 #
straight-curve $-1 -18.196345165483468 32.53498434478103 18.810983806823288 1 0 0 I I #
coedge $-1 $572 $409 $412 $586 reversed $402 $-1 #
coedge $-1 $409 $572 $577 $702 forward $402 $-1 #
vertex $-1 $410 $706 #
straight-curve $-1 -51.03255234099791 37.683379780774871 75.441436112218994 0 0 1 I I #
straight-curve $-1 -51.03255234099791 -1.133369993275025 74.844537066952356 0 0.51503806187062418 -0.85716730853699208 I I #
edge $-1 $700 21.752828320935961 $414 51.03255234099791 $581 $707 forward 7 unknown #
point $-1 -51.03255234099791 37.683379780774871 18.81098380682328 #
point $-1 -51.03255234099791 32.534984344781037 18.81098380682328 #
edge $-1 $708 1 $708 0 $417 $-1 forward 7 unknown #
vertex $-1 $418 $709 #
ellipse-curve $-1 -42.666916906694496 31.890573361713642 12.592864063733954 0 0.85716730853699208 0.51503806187062418 2 0 0 1 I I #
point $-1 -40.666916906694496 35.109182062777954 14.526799213623717 #
edge $-1 $710 1 $710 0 $421 $-1 forward 7 unknown #
vertex $-1 $422 $711 #
ellipse-curve $-1 -30.118463755239375 31.890573361713642 12.592864063733954 0 0.85716730853699208 0.51503806187062418 2 0 0 1 I I #
point $-1 -28.118463755239375 35.109182062777954 14.526799213623717 #
loop $-1 $-1 $433 $425 #
plane-surface $-1 0 37.683379780774871 0 0 -1 0 0 0 -1 forward_v I I I I #
coedge $-1 $600 $428 $430 $604 reversed $279 $-1 #
coedge $-1 $428 $599 $712 $713 reversed $279 $-1 #
coedge $-1 $436 $431 $428 $602 forward $426 $-1 #
edge $-1 $605 -30.172853376232645 $714 -25.024457940238811 $601 $715 forward 7 unknown #
coedge $-1 $430 $429 $608 $716 reversed $175 $-1 #
edge $-1 $717 -75.366759561549728 $605 -65.37061400039488 $599 $718 forward 7 unknown #
vertex $-1 $432 $719 #
straight-curve $-1 11.71208850490234 32.53498434478103 18.810983806823288 1 0 0 I I #
coedge $-1 $712 $433 $436 $612 reversed $597 $-1 #
coedge $-1 $433 $712 $603 $716 forward $597 $-1 #
vertex $-1 $434 $720 #
straight-curve $-1 8.7843149997737058 37.683379780774871 75.441436112218994 0 0 1 I I #
straight-curve $-1 8.7843149997737058 -1.133369993275025 74.844537066952356 0 0.51503806187062418 -0.85716730853699208 I I #
edge $-1 $714 -38.064039019835654 $437 -8.7843149997737058 $607 $721 forward 7 unknown #
point $-1 8.7843149997737058 37.683379780774871 18.81098380682328 #
point $-1 8.7843149997737058 32.534984344781037 18.81098380682328 #
edge $-1 $722 1 $722 0 $440 $-1 forward 7 unknown #
vertex $-1 $441 $723 #
ellipse-curve $-1 17.149950434077113 31.890573361713642 12.592864063733954 0 0.85716730853699208 0.51503806187062418 2 0 0 1 I I #
point $-1 19.149950434077113 35.109182062777954 14.526799213623717 #
edge $-1 $724 1 $724 0 $444 $-1 forward 7 unknown #
vertex $-1 $445 $725 #
ellipse-curve $-1 29.698403585532233 31.890573361713642 12.592864063733954 0 0.85716730853699208 0.51503806187062418 2 0 0 1 I I #
point $-1 31.698403585532233 35.109182062777954 14.526799213623717 #
plane-surface $-1 73.818170720542014 0 0 -1 0 0 0 0 1 forward_v I I I I #
coedge $-1 $453 $451 $455 $628 reversed $301 $-1 #
edge $-1 $466 -18.81098380682328 $630 18.81098380682328 $465 $726 forward 7 unknown #
vertex $-1 $628 $727 #
straight-curve $-1 -73.818170720542014 -37.683379780774871 0 0 0 -1 I I #
edge $-1 $626 -37.683379780774871 $630 37.683379780774871 $624 $728 forward 7 unknown #
straight-curve $-1 0 -37.683379780774871 -18.81098380682328 -1 0 0 I I #
vertex $-1 $458 $729 #
straight-curve $-1 0 37.683379780774871 -18.81098380682328 1 0 0 I I #
point $-1 73.818170720542014 37.683379780774871 -18.81098380682328 #
point $-1 73.818170720542014 -37.683379780774871 -18.81098380682328 #
straight-curve $-1 -73.818170720542014 0 18.81098380682328 0 -1 0 I I #
point $-1 -73.818170720542014 37.683379780774871 18.81098380682328 #
point $-1 -73.818170720542014 -37.683379780774871 18.81098380682328 #
straight-curve $-1 73.818170720542014 -37.683379780774871 0 0 0 -1 I I #
straight-curve $-1 73.818170720542014 37.683379780774871 0 0 0 -1 I I #
plane-surface $-1 0 -37.683379780774871 0 0 1 0 0 0 1 forward_v I I I I #
coedge $-1 $730 $478 $488 $651 reversed $320 $-1 #
coedge $-1 $478 $730 $491 $653 forward $320 $-1 #
coedge $-1 $731 $481 $479 $643 forward $476 $-1 #
edge $-1 $644 59.816867340771608 $732 73.818170720542014 $479 $733 forward 7 unknown #
vertex $-1 $643 $734 #
straight-curve $-1 -59.816867340771608 37.683379780774871 6.8257055793077512 0 0 -1 I I #
coedge $-1 $481 $731 $483 $648 forward $476 $-1 #
straight-curve $-1 -59.816867340771608 0 18.81098380682328 0 1 0 I I #
edge $-1 $735 -73.818170720542014 $485 -59.816867340771608 $483 $736 forward 7 unknown #
point $-1 -59.816867340771608 -37.683379780774871 18.81098380682328 #
straight-curve $-1 -73.818170720542014 0 8.4918385104077245 0 -1 0 I I #
edge $-1 $735 -18.81098380682328 $489 -8.4918385104077245 $640 $737 forward 7 unknown #
point $-1 -73.818170720542014 -37.683379780774871 8.4918385104077245 #
edge $-1 $732 -18.81098380682328 $492 -8.4918385104077245 $491 $738 forward 7 unknown #
point $-1 -73.818170720542014 37.683379780774871 8.4918385104077245 #
plane-surface $-1 73.818170720542014 0 0 -1 0 0 0 0 1 forward_v I I I I #
coedge $-1 $499 $509 $500 $659 reversed $336 $-1 #
edge $-1 $661 -11.985278227515529 $510 -1.6661329310999733 $499 $739 forward 7 unknown #
coedge $-1 $501 $500 $514 $667 forward $205 $-1 #
edge $-1 $661 59.816867340771594 $670 73.818170720542014 $656 $740 forward 7 unknown #
edge $-1 $668 -73.818170720542014 $507 -59.816867340771594 $505 $741 forward 7 unknown #
vertex $-1 $659 $742 #
straight-curve $-1 59.816867340771594 0 18.81098380682328 0 -1 0 I I #
straight-curve $-1 59.816867340771594 0 8.4918385104077245 0 1 0 I I #
point $-1 59.816867340771594 37.683379780774871 8.4918385104077245 #
point $-1 59.816867340771594 37.683379780774871 18.81098380682328 #
point $-1 59.816867340771594 -37.683379780774871 8.4918385104077245 #
edge $-1 $670 -37.683379780774871 $668 37.683379780774871 $514 $743 forward 7 unknown #
vertex $-1 $667 $744 #
straight-curve $-1 73.818170720542014 37.683379780774871 0 0 0 -1 I I #
vertex $-1 $667 $745 #
straight-curve $-1 73.818170720542014 -37.683379780774871 0 0 0 -1 I I #
coedge $-1 $530 $529 $522 $673 forward $519 $-1 #
edge $-1 $674 24.329491082131604 $677 32.897860268530728 $672 $746 forward 7 unknown #
vertex $-1 $534 $747 #
straight-curve $-1 -51.03255234099791 -82.116212608038637 18.81098380682328 0 -1 0 I I #
edge $-1 $677 -32.836207175514446 $531 -3.5564831554524936 $530 $748 forward 7 unknown #
vertex $-1 $676 $749 #
straight-curve $-1 -51.03255234099791 -37.683379780774885 10.242614620424135 0 0.51503806187062418 0.85716730853699208 I I #
point $-1 -51.03255234099791 -32.534984344781023 18.81098380682328 #
point $-1 -21.752828320935961 -37.683379780774871 10.242614620424158 #
straight-curve $-1 0 -37.683379780774871 18.81098380682328 1 0 0 I I #
vertex $-1 $537 $750 #
point $-1 -40.666916906694496 -31.890573361713624 12.592864063733947 #
vertex $-1 $541 $751 #
point $-1 -28.118463755239375 -31.890573361713624 12.592864063733947 #
edge $-1 $687 24.329491082131604 $690 32.897860268530728 $546 $752 forward 7 unknown #
vertex $-1 $560 $753 #
straight-curve $-1 8.7843149997737058 -82.116212608038637 18.81098380682328 0 -1 0 I I #
edge $-1 $690 -2.9277735051286342 $557 26.351950514933314 $556 $754 forward 7 unknown #
vertex $-1 $689 $755 #
straight-curve $-1 8.7843149997737058 -37.683379780774885 10.242614620424135 0 0.51503806187062418 0.85716730853699208 I I #
point $-1 8.7843149997737058 -32.534984344781023 18.81098380682328 #
point $-1 38.064039019835654 -37.683379780774871 10.242614620424158 #
straight-curve $-1 0 -37.683379780774871 18.81098380682328 1 0 0 I I #
vertex $-1 $563 $756 #
point $-1 19.149950434077113 -31.890573361713624 12.592864063733947 #
vertex $-1 $567 $757 #
point $-1 31.698403585532233 -31.890573361713624 12.592864063733947 #
edge $-1 $700 56.630452305395714 $703 65.198821491794817 $572 $758 forward 7 unknown #
vertex $-1 $586 $759 #
straight-curve $-1 -21.752828320935961 62.707837721013682 18.810983806823273 0 1 0 I I #
edge $-1 $703 3.5564831554524936 $583 32.836207175514446 $582 $760 forward 7 unknown #
vertex $-1 $702 $761 #
straight-curve $-1 -21.752828320935961 -1.133369993275025 74.844537066952356 0 -0.51503806187062418 0.85716730853699208 I I #
point $-1 -21.752828320935961 32.534984344781037 18.81098380682328 #
point $-1 -51.03255234099791 37.683379780774871 10.242614620424177 #
straight-curve $-1 0 37.683379780774871 18.81098380682328 -1 0 0 I I #
vertex $-1 $589 $762 #
point $-1 -40.666916906694496 31.890573361713642 12.592864063733954 #
vertex $-1 $593 $763 #
point $-1 -28.118463755239375 31.890573361713642 12.592864063733954 #
coedge $-1 $608 $607 $600 $713 forward $597 $-1 #
edge $-1 $714 56.630452305395714 $717 65.198821491794817 $712 $764 forward 7 unknown #
vertex $-1 $612 $765 #
straight-curve $-1 38.064039019835654 62.707837721013682 18.810983806823273 0 1 0 I I #
edge $-1 $717 -26.351950514933314 $609 2.9277735051286342 $608 $766 forward 7 unknown #
vertex $-1 $716 $767 #
straight-curve $-1 38.064039019835654 -1.133369993275025 74.844537066952356 0 -0.51503806187062418 0.85716730853699208 I I #
point $-1 38.064039019835654 32.534984344781037 18.81098380682328 #
point $-1 8.7843149997737058 37.683379780774871 10.242614620424177 #
straight-curve $-1 0 37.683379780774871 18.81098380682328 -1 0 0 I I #
vertex $-1 $615 $768 #
point $-1 19.149950434077113 31.890573361713642 12.592864063733954 #
vertex $-1 $619 $769 #
point $-1 31.698403585532233 31.890573361713642 12.592864063733954 #
straight-curve $-1 -73.818170720542014 37.683379780774871 0 0 0 -1 I I #
point $-1 -73.818170720542014 -37.683379780774871 -18.81098380682328 #
straight-curve $-1 -73.818170720542014 0 -18.81098380682328 0 1 0 I I #
point $-1 -73.818170720542014 37.683379780774871 -18.81098380682328 #
coedge $-1 $641 $640 $731 $770 reversed $320 $-1 #
coedge $-1 $646 $642 $730 $770 forward $476 $-1 #
vertex $-1 $643 $771 #
straight-curve $-1 0 37.683379780774871 18.81098380682328 -1 0 0 I I #
point $-1 -59.816867340771608 37.683379780774871 18.81098380682328 #
vertex $-1 $770 $772 #
straight-curve $-1 0 -37.683379780774871 18.81098380682328 1 0 0 I I #
straight-curve $-1 -73.818170720542014 -37.683379780774871 0 0 0 -1 I I #
straight-curve $-1 -73.818170720542014 37.683379780774871 0 0 0 -1 I I #
straight-curve $-1 59.816867340771594 -37.683379780774871 6.8257055793077512 0 0 -1 I I #
straight-curve $-1 0 -37.683379780774871 18.81098380682328 1 0 0 I I #
straight-curve $-1 0 37.683379780774871 18.81098380682328 -1 0 0 I I #
point $-1 59.816867340771594 -37.683379780774871 18.81098380682328 #
straight-curve $-1 73.818170720542014 0 18.81098380682328 0 1 0 I I #
point $-1 73.818170720542014 37.683379780774871 18.81098380682328 #
point $-1 73.818170720542014 -37.683379780774871 18.81098380682328 #
straight-curve $-1 -51.03255234099791 -37.683379780774871 43.140474888954884 0 0 -1 I I #
point $-1 -51.03255234099791 -37.683379780774871 18.81098380682328 #
straight-curve $-1 -18.196345165483468 -37.683379780774871 10.242614620424158 1 0 0 I I #
point $-1 -51.03255234099791 -37.683379780774871 10.242614620424158 #
point $-1 -42.666916906694496 -30.176238744639637 11.562787939992697 #
point $-1 -30.118463755239375 -30.176238744639637 11.562787939992697 #
straight-curve $-1 8.7843149997737058 -37.683379780774871 43.140474888954884 0 0 -1 I I #
point $-1 8.7843149997737058 -37.683379780774871 18.81098380682328 #
straight-curve $-1 11.71208850490234 -37.683379780774871 10.242614620424158 1 0 0 I I #
point $-1 8.7843149997737058 -37.683379780774871 10.242614620424158 #
point $-1 17.149950434077113 -30.176238744639637 11.562787939992697 #
point $-1 29.698403585532233 -30.176238744639637 11.562787939992697 #
straight-curve $-1 -21.752828320935961 37.683379780774871 75.441436112218994 0 0 -1 I I #
point $-1 -21.752828320935961 37.683379780774871 18.81098380682328 #
straight-curve $-1 -18.196345165483468 37.683379780774871 10.242614620424174 -1 0 0 I I #
point $-1 -21.752828320935961 37.683379780774871 10.242614620424177 #
point $-1 -42.666916906694496 30.176238744639654 11.562787939992704 #
point $-1 -30.118463755239375 30.176238744639654 11.562787939992704 #
straight-curve $-1 38.064039019835654 37.683379780774871 75.441436112218994 0 0 -1 I I #
point $-1 38.064039019835654 37.683379780774871 18.81098380682328 #
straight-curve $-1 11.71208850490234 37.683379780774871 10.242614620424174 -1 0 0 I I #
point $-1 38.064039019835654 37.683379780774871 10.242614620424177 #
point $-1 17.149950434077113 30.176238744639654 11.562787939992704 #
point $-1 29.698403585532233 30.176238744639654 11.562787939992704 #
edge $-1 $732 -37.683379780774871 $735 37.683379780774871 $730 $773 forward 7 unknown #
point $-1 -73.818170720542014 37.683379780774871 18.81098380682328 #
point $-1 -73.818170720542014 -37.683379780774871 18.81098380682328 #
straight-curve $-1 -73.818170720542014 0 18.81098380682328 0 -1 0 I I #
End-of-ACIS-data 