500 0 8 0           
7 Unknown 11 ACIS 5.0 NT 24 Thu Mar 25 22:53:01 1999 
-1 9.9999999999999995e-007 1e-010 
body $-1 $8 $-1 $9 #
body $-1 $10 $-1 $11 #
body $-1 $12 $-1 $13 #
body $-1 $14 $-1 $15 #
body $-1 $16 $-1 $17 #
body $-1 $18 $-1 $19 #
body $-1 $20 $-1 $21 #
body $-1 $22 $-1 $23 #
lump $-1 $-1 $24 $0 #
transform $-1 1 0 0 0 1 0 0 0 1 53.028962065492721 32.657470449177445 13.909548908438682 1 rotate no_reflect no_shear #
lump $-1 $-1 $25 $1 #
transform $-1 1 0 0 0 1 0 0 0 1 53.028962065492721 32.657470449177445 13.909548908438682 1 rotate no_reflect no_shear #
lump $-1 $-1 $26 $2 #
transform $-1 1 0 0 0 1 0 0 0 1 53.028962065492721 32.657470449177445 13.909548908438682 1 rotate no_reflect no_shear #
lump $-1 $-1 $27 $3 #
transform $-1 1 0 0 0 1 0 0 0 1 53.028962065492721 32.657470449177445 13.909548908438682 1 rotate no_reflect no_shear #
lump $-1 $-1 $28 $4 #
transform $-1 1 0 0 0 1 0 0 0 1 53.028962065492721 32.657470449177445 13.909548908438682 1 rotate no_reflect no_shear #
lump $-1 $-1 $29 $5 #
transform $-1 1 0 0 0 1 0 0 0 1 53.028962065492721 32.657470449177445 13.909548908438682 1 rotate no_reflect no_shear #
lump $-1 $-1 $30 $6 #
transform $-1 1 0 0 0 1 0 0 0 1 53.028962065492721 32.657470449177445 13.909548908438682 1 rotate no_reflect no_shear #
lump $-1 $-1 $31 $7 #
transform $-1 1 0 0 0 1 0 0 0 1 53.028962065492721 32.657470449177445 13.909548908438682 1 rotate no_reflect no_shear #
shell $-1 $-1 $-1 $32 $-1 $8 #
shell $-1 $-1 $-1 $33 $-1 $10 #
shell $-1 $-1 $-1 $34 $-1 $12 #
shell $-1 $-1 $-1 $35 $-1 $14 #
shell $-1 $-1 $-1 $36 $-1 $16 #
shell $-1 $-1 $-1 $37 $-1 $18 #
shell $-1 $-1 $-1 $38 $-1 $20 #
shell $-1 $-1 $-1 $39 $-1 $22 #
face $-1 $40 $41 $24 $-1 $42 forward single #
face $-1 $43 $44 $25 $-1 $45 reversed single #
face $-1 $46 $47 $26 $-1 $48 reversed single #
face $-1 $49 $50 $27 $-1 $51 forward single #
face $-1 $52 $53 $28 $-1 $54 forward single #
face $-1 $55 $56 $29 $-1 $57 forward single #
face $-1 $58 $59 $30 $-1 $60 reversed single #
face $-1 $61 $62 $31 $-1 $63 forward single #
face $-1 $64 $65 $24 $-1 $66 reversed single #
loop $-1 $-1 $67 $32 #
plane-surface $-1 0 0 13.909548908438682 0 0 1 1 0 0 forward_v I I I I #
face $-1 $68 $69 $25 $-1 $70 reversed single #
loop $-1 $-1 $71 $33 #
plane-surface $-1 -31.726356361325745 -24.164282990636522 0 1 0 0 0 0 -1 forward_v I I I I #
face $-1 $72 $73 $26 $-1 $74 reversed single #
loop $-1 $-1 $75 $34 #
plane-surface $-1 16.743447756674058 25.993499421203644 150.36459227396512 0 1 0 0.51503808176128008 0 0.85716729658548041 forward_v I I I I #
face $-1 $76 $77 $27 $-1 $78 forward single #
loop $-1 $79 $80 $35 #
cone-surface $-1 45.217103389543276 27.326293626798403 8.9418599884937322 -0.51503808176128008 0 -0.85716729658548041 0.4285836482927402 0 -0.25751904088064004 1 I I 0 1 0.5 forward I I I I #
face $-1 $81 $82 $28 $-1 $83 forward single #
loop $-1 $84 $85 $36 #
cone-surface $-1 45.217103389543276 29.325484935190545 8.9418599884937322 -0.51503808176128008 0 -0.85716729658548041 0.4285836482927402 0 -0.25751904088064004 1 I I 0 1 0.5 forward I I I I #
face $-1 $86 $87 $29 $-1 $88 forward single #
loop $-1 $89 $90 $37 #
cone-surface $-1 45.217103389543276 31.324676243582687 8.9418599884937322 -0.51503808176128008 0 -0.85716729658548041 0.4285836482927402 0 -0.25751904088064004 1 I I 0 1 0.5 forward I I I I #
face $-1 $91 $92 $30 $-1 $93 reversed single #
loop $-1 $-1 $94 $38 #
plane-surface $-1 -122.60922163376686 9.0926991458704585 88.9032143510194 0 1 0 -0.6560590369687036 0 0.75470957328743171 forward_v I I I I #
face $-1 $95 $96 $31 $-1 $97 forward single #
loop $-1 $98 $99 $39 #
cone-surface $-1 -49.578826252441004 16.222287703448174 10.75695518390398 0.6560590369687036 0 -0.75470957328743171 1.1320643599311475 0 0.9840885554530554 1 I I 0 1 1.5 forward I I I I #
face $-1 $100 $101 $24 $-1 $102 reversed single #
loop $-1 $-1 $103 $40 #
plane-surface $-1 0 0 -13.909548908438682 0 0 1 1 0 0 forward_v I I I I #
coedge $-1 $104 $105 $106 $107 forward $41 $-1 #
face $-1 $108 $109 $25 $-1 $110 reversed single #
loop $-1 $-1 $111 $43 #
plane-surface $-1 -29.593802241286578 -15.671095532095597 0 0 -1 0 0 0 -1 forward_v I I I I #
coedge $-1 $112 $113 $114 $115 forward $44 $-1 #
face $-1 $116 $117 $26 $-1 $118 reversed single #
loop $-1 $-1 $119 $46 #
plane-surface $-1 -37.880422043332061 29.325484935190545 59.455208165140334 0.51503808176128008 0 0.85716729658548041 0.85716729658548041 0 -0.51503808176128008 forward_v I I I I #
coedge $-1 $120 $121 $122 $123 reversed $47 $-1 #
face $-1 $-1 $124 $27 $-1 $125 forward single #
loop $-1 $126 $127 $49 #
cone-surface $-1 44.830824828222319 27.326293626798403 8.2989845160546221 -0.51503808176128008 0 -0.85716729658548041 0.2142918241463701 0 -0.12875952044032002 1 I I -0.70710678118654746 0.70710678118654746 0.25 forward I I I I #
loop $-1 $-1 $128 $35 #
coedge $-1 $80 $80 $129 $130 reversed $50 $-1 #
face $-1 $-1 $131 $28 $-1 $132 forward single #
loop $-1 $133 $134 $52 #
cone-surface $-1 44.830824828222319 29.325484935190545 8.2989845160546221 -0.51503808176128008 0 -0.85716729658548041 0.2142918241463701 0 -0.12875952044032002 1 I I -0.70710678118654746 0.70710678118654746 0.25 forward I I I I #
loop $-1 $-1 $135 $36 #
coedge $-1 $85 $85 $136 $137 reversed $53 $-1 #
face $-1 $-1 $138 $29 $-1 $139 forward single #
loop $-1 $140 $141 $55 #
cone-surface $-1 44.830824828222319 31.324676243582687 8.2989845160546221 -0.51503808176128008 0 -0.85716729658548041 0.2142918241463701 0 -0.12875952044032002 1 I I -0.70710678118654746 0.70710678118654746 0.25 forward I I I I #
loop $-1 $-1 $142 $37 #
coedge $-1 $90 $90 $143 $144 reversed $56 $-1 #
face $-1 $145 $146 $30 $-1 $147 reversed single #
loop $-1 $-1 $148 $58 #
plane-surface $-1 -53.028962065492721 16.222287703448167 8.8602836863725685 -0.6560590369687036 0 0.75470957328743171 0.75470957328743171 0 0.6560590369687036 forward_v I I I I #
coedge $-1 $149 $150 $151 $152 reversed $59 $-1 #
face $-1 $-1 $153 $31 $-1 $154 forward single #
loop $-1 $155 $156 $61 #
cone-surface $-1 -48.540903695228565 16.222287703448174 9.562961890436755 0.6560590369687036 0 -0.75470957328743171 0.56603217996557376 0 0.4920442777265277 1 I I -0.70710678118654757 0.70710678118654757 0.75 forward I I I I #
loop $-1 $-1 $157 $39 #
coedge $-1 $99 $99 $158 $159 reversed $62 $-1 #
face $-1 $160 $161 $24 $-1 $162 reversed single #
loop $-1 $-1 $163 $64 #
plane-surface $-1 0 -32.657470449177445 0 0 1 0 0 0 1 forward_v I I I I #
coedge $-1 $164 $165 $166 $167 forward $65 $-1 #
coedge $-1 $168 $67 $169 $170 forward $41 $-1 #
coedge $-1 $67 $168 $171 $172 forward $41 $-1 #
coedge $-1 $173 $174 $67 $107 reversed $175 $-1 #
edge $-1 $176 -32.657470449177445 $177 32.657470449177445 $106 $178 forward 7 unknown #
face $-1 $179 $180 $25 $-1 $181 forward single #
loop $-1 $-1 $182 $68 #
plane-surface $-1 -27.461248121247412 -24.164282990636522 0 -1 0 0 0 0 1 forward_v I I I I #
coedge $-1 $183 $184 $185 $186 forward $69 $-1 #
coedge $-1 $187 $71 $188 $189 reversed $44 $-1 #
coedge $-1 $71 $187 $190 $191 reversed $44 $-1 #
coedge $-1 $184 $183 $71 $115 reversed $69 $-1 #
edge $-1 $192 -13.909548908438682 $193 13.909548908438682 $114 $194 forward 7 unknown #
face $-1 $195 $196 $26 $-1 $197 reversed single #
loop $-1 $-1 $122 $72 #
plane-surface $-1 53.028962065492721 0 0 -1 0 0 0 0 1 forward_v I I I I #
coedge $-1 $198 $199 $200 $201 reversed $73 $-1 #
coedge $-1 $121 $75 $202 $203 reversed $47 $-1 #
coedge $-1 $75 $120 $198 $204 reversed $47 $-1 #
coedge $-1 $200 $205 $75 $123 forward $117 $-1 #
edge $-1 $206 61.272747228543878 $207 70.350957771848343 $122 $208 forward 7 unknown #
loop $-1 $-1 $129 $76 #
plane-surface $-1 -37.880422043332061 29.325484935190545 59.455208165140334 0.51503808176128008 0 0.85716729658548041 0.85716729658548041 0 -0.51503808176128008 forward_v I I I I #
loop $-1 $-1 $209 $49 #
coedge $-1 $127 $127 $128 $210 reversed $77 $-1 #
coedge $-1 $128 $128 $127 $210 forward $79 $-1 #
coedge $-1 $129 $129 $80 $130 forward $124 $-1 #
edge $-1 $211 0 $211 6.2831853071796004 $129 $212 forward 7 unknown #
loop $-1 $-1 $136 $81 #
plane-surface $-1 -37.880422043332061 29.325484935190545 59.455208165140334 0.51503808176128008 0 0.85716729658548041 0.85716729658548041 0 -0.51503808176128008 forward_v I I I I #
loop $-1 $-1 $213 $52 #
coedge $-1 $134 $134 $135 $214 reversed $82 $-1 #
coedge $-1 $135 $135 $134 $214 forward $84 $-1 #
coedge $-1 $136 $136 $85 $137 forward $131 $-1 #
edge $-1 $215 0 $215 6.2831853071796004 $136 $216 forward 7 unknown #
loop $-1 $-1 $143 $86 #
plane-surface $-1 -37.880422043332061 29.325484935190545 59.455208165140334 0.51503808176128008 0 0.85716729658548041 0.85716729658548041 0 -0.51503808176128008 forward_v I I I I #
loop $-1 $-1 $217 $55 #
coedge $-1 $141 $141 $142 $218 reversed $87 $-1 #
coedge $-1 $142 $142 $141 $218 forward $89 $-1 #
coedge $-1 $143 $143 $90 $144 forward $138 $-1 #
edge $-1 $219 0 $219 6.2831853071796004 $143 $220 forward 7 unknown #
face $-1 $221 $222 $30 $-1 $223 reversed single #
loop $-1 $-1 $224 $91 #
plane-surface $-1 -122.60922163376686 23.351876261025875 88.9032143510194 0 -1 0 0.6560590369687036 0 -0.75470957328743171 forward_v I I I I #
coedge $-1 $225 $226 $227 $228 reversed $92 $-1 #
coedge $-1 $150 $94 $229 $230 reversed $59 $-1 #
coedge $-1 $94 $149 $225 $231 reversed $59 $-1 #
coedge $-1 $227 $232 $94 $152 forward $233 $-1 #
edge $-1 $234 8.2756487513907118 $235 14.084163818522349 $151 $236 forward 7 unknown #
loop $-1 $-1 $158 $95 #
plane-surface $-1 -53.028962065492721 16.222287703448167 8.8602836863725685 -0.6560590369687036 0 0.75470957328743171 0.75470957328743171 0 0.6560590369687036 forward_v I I I I #
loop $-1 $-1 $237 $61 #
coedge $-1 $156 $156 $157 $238 reversed $96 $-1 #
coedge $-1 $157 $157 $156 $238 forward $98 $-1 #
coedge $-1 $158 $158 $99 $159 forward $153 $-1 #
edge $-1 $239 0 $239 6.2831853071796004 $158 $240 forward 7 unknown #
face $-1 $241 $242 $24 $-1 $243 reversed single #
loop $-1 $-1 $244 $100 #
plane-surface $-1 -53.028962065492721 0 0 1 0 0 0 0 -1 forward_v I I I I #
coedge $-1 $245 $171 $246 $247 forward $101 $-1 #
coedge $-1 $248 $103 $245 $249 forward $65 $-1 #
coedge $-1 $103 $248 $250 $251 forward $65 $-1 #
coedge $-1 $174 $173 $103 $167 reversed $175 $-1 #
edge $-1 $252 -32.657470449177445 $253 32.657470449177445 $166 $254 forward 7 unknown #
coedge $-1 $105 $104 $255 $256 forward $41 $-1 #
coedge $-1 $257 $258 $104 $170 reversed $242 $-1 #
edge $-1 $177 -53.028962065492721 $259 53.028962065492721 $169 $260 forward 7 unknown #
coedge $-1 $163 $261 $105 $172 reversed $101 $-1 #
edge $-1 $262 -53.028962065492721 $176 53.028962065492721 $171 $263 forward 7 unknown #
coedge $-1 $166 $106 $261 $264 forward $175 $-1 #
coedge $-1 $106 $166 $257 $265 reversed $175 $-1 #
loop $-1 $-1 $173 $241 #
vertex $-1 $107 $266 #
vertex $-1 $107 $267 #
straight-curve $-1 53.028962065492721 0 13.909548908438682 0 1 0 I I #
face $-1 $268 $269 $25 $-1 $270 reversed single #
loop $-1 $-1 $271 $108 #
plane-surface $-1 0 0 13.909548908438682 0 0 1 1 0 0 forward_v I I I I #
coedge $-1 $272 $273 $274 $275 reversed $109 $-1 #
coedge $-1 $114 $111 $276 $277 reversed $69 $-1 #
coedge $-1 $111 $114 $278 $279 reversed $69 $-1 #
coedge $-1 $273 $272 $111 $186 reversed $109 $-1 #
edge $-1 $280 -13.909548908438682 $281 13.909548908438682 $185 $282 forward 7 unknown #
coedge $-1 $113 $112 $283 $284 reversed $44 $-1 #
coedge $-1 $276 $285 $112 $189 forward $269 $-1 #
edge $-1 $286 -20.575328953859184 $193 -3.588954036777336 $188 $287 forward 7 unknown #
coedge $-1 $288 $278 $113 $191 forward $180 $-1 #
edge $-1 $192 3.588954036777336 $289 20.575328953859184 $190 $290 forward 7 unknown #
vertex $-1 $191 $291 #
vertex $-1 $189 $292 #
straight-curve $-1 -31.726356361325745 -15.671095532095597 0 0 0 -1 I I #
face $-1 $-1 $293 $26 $-1 $294 forward single #
loop $-1 $-1 $295 $116 #
plane-surface $-1 0 32.657470449177445 0 0 -1 0 0 0 -1 forward_v I I I I #
coedge $-1 $296 $119 $121 $204 forward $73 $-1 #
coedge $-1 $119 $296 $295 $297 reversed $73 $-1 #
coedge $-1 $298 $122 $119 $201 forward $117 $-1 #
edge $-1 $207 11.330756953608372 $299 17.994727981582173 $200 $300 forward 7 unknown #
coedge $-1 $301 $302 $120 $203 forward $293 $-1 #
edge $-1 $303 29.548558917018077 $206 44.657238187155691 $202 $304 forward 7 unknown #
edge $-1 $207 -106.05792413098544 $303 -88.431634221975926 $121 $305 forward 7 unknown #
coedge $-1 $122 $298 $301 $306 reversed $117 $-1 #
vertex $-1 $306 $307 #
vertex $-1 $123 $308 #
straight-curve $-1 53.028962065492721 25.993499421203644 75.182296136982558 0 0 -1 I I #
coedge $-1 $209 $209 $-1 $309 reversed $126 $-1 #
edge $-1 $310 0 $310 6.2831853071796004 $127 $311 forward 7 unknown #
vertex $-1 $130 $312 #
ellipse-curve $-1 45.474622430423906 27.326293626798403 9.3704436367864545 0.51503808176128008 0 0.85716729658548041 0.4285836482927402 0 -0.25751904088064004 1 I I #
coedge $-1 $213 $213 $-1 $313 reversed $133 $-1 #
edge $-1 $314 0 $314 6.2831853071796004 $134 $315 forward 7 unknown #
vertex $-1 $137 $316 #
ellipse-curve $-1 45.474622430423906 29.325484935190545 9.3704436367864545 0.51503808176128008 0 0.85716729658548041 0.4285836482927402 0 -0.25751904088064004 1 I I #
coedge $-1 $217 $217 $-1 $317 reversed $140 $-1 #
edge $-1 $318 0 $318 6.2831853071796004 $141 $319 forward 7 unknown #
vertex $-1 $144 $320 #
ellipse-curve $-1 45.474622430423906 31.324676243582687 9.3704436367864545 0.51503808176128008 0 0.85716729658548041 0.4285836482927402 0 -0.25751904088064004 1 I I #
face $-1 $-1 $233 $30 $-1 $321 forward single #
loop $-1 $-1 $322 $145 #
plane-surface $-1 -53.028962065492721 0 0 1 0 0 0 0 -1 forward_v I I I I #
coedge $-1 $323 $324 $325 $326 reversed $146 $-1 #
coedge $-1 $327 $148 $150 $231 forward $92 $-1 #
coedge $-1 $148 $327 $323 $328 forward $92 $-1 #
coedge $-1 $325 $151 $148 $228 forward $233 $-1 #
edge $-1 $235 0.98155529414637499 $329 15.240732409301792 $227 $330 forward 7 unknown #
coedge $-1 $331 $332 $149 $230 forward $222 $-1 #
edge $-1 $333 -35.591323489137132 $234 -30.54205826707102 $229 $334 forward 7 unknown #
edge $-1 $235 -7.6963580067367969 $333 0 $150 $335 forward 7 unknown #
coedge $-1 $151 $325 $331 $336 forward $233 $-1 #
loop $-1 $-1 $325 $221 #
vertex $-1 $230 $337 #
vertex $-1 $152 $338 #
straight-curve $-1 -61.304610816883432 9.0926991458704585 13.90954890843868 1 0 0 I I #
coedge $-1 $237 $237 $-1 $339 reversed $155 $-1 #
edge $-1 $340 0 $340 6.2831853071796004 $156 $341 forward 7 unknown #
vertex $-1 $159 $342 #
ellipse-curve $-1 -50.124704531926909 16.222287703448174 11.384916297405622 -0.6560590369687036 0 0.75470957328743171 1.1320643599311475 0 0.9840885554530554 1 I I #
face $-1 $-1 $175 $24 $-1 $343 reversed single #
loop $-1 $-1 $257 $160 #
plane-surface $-1 0 32.657470449177445 0 0 -1 0 0 0 -1 forward_v I I I I #
coedge $-1 $344 $255 $258 $345 forward $161 $-1 #
coedge $-1 $261 $163 $164 $249 reversed $101 $-1 #
coedge $-1 $255 $344 $163 $247 reversed $161 $-1 #
edge $-1 $262 -13.909548908438682 $346 13.909548908438682 $246 $347 forward 7 unknown #
coedge $-1 $165 $164 $344 $348 forward $65 $-1 #
edge $-1 $253 -53.028962065492721 $346 53.028962065492721 $245 $349 forward 7 unknown #
coedge $-1 $258 $257 $165 $251 reversed $242 $-1 #
edge $-1 $350 -53.028962065492721 $252 53.028962065492721 $250 $351 forward 7 unknown #
vertex $-1 $167 $352 #
vertex $-1 $264 $353 #
straight-curve $-1 53.028962065492721 0 -13.909548908438682 0 -1 0 I I #
coedge $-1 $244 $246 $168 $256 reversed $161 $-1 #
edge $-1 $259 -32.657470449177445 $262 32.657470449177445 $255 $354 forward 7 unknown #
coedge $-1 $250 $169 $174 $265 forward $242 $-1 #
coedge $-1 $169 $250 $244 $345 reversed $242 $-1 #
vertex $-1 $170 $355 #
straight-curve $-1 0 32.657470449177445 13.909548908438682 -1 0 0 I I #
coedge $-1 $171 $245 $173 $264 reversed $101 $-1 #
vertex $-1 $256 $356 #
straight-curve $-1 0 -32.657470449177445 13.909548908438682 1 0 0 I I #
edge $-1 $176 -13.909548908438682 $253 13.909548908438682 $173 $357 forward 7 unknown #
edge $-1 $177 -13.909548908438682 $252 13.909548908438682 $174 $358 forward 7 unknown #
point $-1 53.028962065492721 -32.657470449177445 13.909548908438682 #
point $-1 53.028962065492721 32.657470449177445 13.909548908438682 #
face $-1 $-1 $359 $25 $-1 $360 reversed single #
loop $-1 $-1 $361 $179 #
plane-surface $-1 0 0 -13.909548908438682 0 0 1 1 0 0 forward_v I I I I #
coedge $-1 $278 $288 $273 $362 forward $180 $-1 #
coedge $-1 $185 $182 $361 $363 reversed $109 $-1 #
coedge $-1 $182 $185 $271 $362 reversed $109 $-1 #
coedge $-1 $364 $365 $182 $275 forward $359 $-1 #
edge $-1 $366 -13.909548908438682 $367 13.909548908438682 $274 $368 forward 7 unknown #
coedge $-1 $361 $188 $183 $277 forward $269 $-1 #
edge $-1 $193 -16.929455240682458 $281 -12.664347000604122 $276 $369 forward 7 unknown #
coedge $-1 $190 $271 $184 $279 forward $180 $-1 #
edge $-1 $280 12.664347000604122 $192 16.929455240682458 $278 $370 forward 7 unknown #
vertex $-1 $279 $371 #
vertex $-1 $277 $372 #
straight-curve $-1 -27.461248121247412 -15.671095532095597 0 0 0 -1 I I #
coedge $-1 $365 $364 $187 $284 forward $359 $-1 #
edge $-1 $289 -13.909548908438682 $286 13.909548908438682 $283 $373 forward 7 unknown #
coedge $-1 $188 $361 $365 $374 forward $269 $-1 #
vertex $-1 $189 $375 #
straight-curve $-1 -31.726356361325745 -12.082141495318261 -13.909548908438682 0 1 0 I I #
coedge $-1 $271 $190 $364 $376 forward $180 $-1 #
vertex $-1 $376 $377 #
straight-curve $-1 -31.726356361325745 -12.082141495318261 13.909548908438682 0 -1 0 I I #
point $-1 -31.726356361325745 -15.671095532095597 13.909548908438682 #
point $-1 -31.726356361325745 -15.671095532095597 -13.909548908438682 #
loop $-1 $-1 $202 $195 #
plane-surface $-1 0 0 13.909548908438682 0 0 1 1 0 0 forward_v I I I I #
coedge $-1 $378 $379 $199 $297 forward $196 $-1 #
coedge $-1 $199 $198 $302 $380 reversed $73 $-1 #
edge $-1 $299 -74.512146470739708 $381 -56.885856561730208 $295 $382 forward 7 unknown #
coedge $-1 $205 $200 $379 $383 reversed $117 $-1 #
vertex $-1 $297 $384 #
straight-curve $-1 53.028962065492721 14.662742467595272 4.8313383651342114 0 1 0 I I #
coedge $-1 $385 $202 $205 $306 forward $293 $-1 #
coedge $-1 $202 $385 $296 $380 forward $293 $-1 #
vertex $-1 $203 $386 #
straight-curve $-1 8.3717238783370291 25.993499421203644 13.90954890843868 1 0 0 I I #
straight-curve $-1 -37.880422043332061 25.993499421203644 59.455208165140334 -0.85716729658548041 0 0.51503808176128008 I I #
edge $-1 $206 25.993499421203644 $387 32.657470449177445 $205 $388 forward 7 unknown #
point $-1 53.028962065492721 25.993499421203644 13.909548908438682 #
point $-1 53.028962065492721 25.993499421203644 4.831338365134215 #
edge $-1 $389 1 $389 0 $209 $-1 forward 7 unknown #
vertex $-1 $210 $390 #
ellipse-curve $-1 44.959584348662638 27.326293626798403 8.5132763402009921 0.51503808176128008 0 0.85716729658548041 0.4285836482927402 0 -0.25751904088064004 1 I I #
point $-1 45.903206078716657 27.326293626798403 9.1129245959058327 #
edge $-1 $391 1 $391 0 $213 $-1 forward 7 unknown #
vertex $-1 $214 $392 #
ellipse-curve $-1 44.959584348662638 29.325484935190545 8.5132763402009921 0.51503808176128008 0 0.85716729658548041 0.4285836482927402 0 -0.25751904088064004 1 I I #
point $-1 45.903206078716657 29.325484935190545 9.1129245959058327 #
edge $-1 $393 1 $393 0 $217 $-1 forward 7 unknown #
vertex $-1 $218 $394 #
ellipse-curve $-1 44.959584348662638 31.324676243582687 8.5132763402009921 0.51503808176128008 0 0.85716729658548041 0.4285836482927402 0 -0.25751904088064004 1 I I #
point $-1 45.903206078716657 31.324676243582687 9.1129245959058327 #
plane-surface $-1 0 0 13.909548908438682 0 0 1 1 0 0 forward_v I I I I #
coedge $-1 $332 $331 $324 $395 forward $222 $-1 #
coedge $-1 $324 $224 $226 $328 reversed $146 $-1 #
coedge $-1 $224 $323 $322 $395 reversed $146 $-1 #
coedge $-1 $232 $227 $224 $326 forward $233 $-1 #
edge $-1 $329 -14.084163818522349 $396 -8.2756487513907118 $325 $397 forward 7 unknown #
coedge $-1 $226 $225 $332 $398 reversed $92 $-1 #
edge $-1 $399 0 $329 7.6963580067367969 $323 $400 forward 7 unknown #
vertex $-1 $228 $401 #
straight-curve $-1 -47.220446998361084 8.1111438517240835 13.909548908438683 0 1 0 I I #
coedge $-1 $322 $229 $232 $336 reversed $222 $-1 #
coedge $-1 $229 $322 $327 $398 forward $222 $-1 #
vertex $-1 $230 $402 #
straight-curve $-1 -53.028962065492721 9.0926991458704585 44.4516071755097 0 0 1 I I #
straight-curve $-1 -53.028962065492721 9.0926991458704585 8.8602836863725685 -0.75470957328743171 0 -0.6560590369687036 I I #
edge $-1 $396 -23.351876261025875 $234 -9.0926991458704585 $331 $403 forward 7 unknown #
point $-1 -53.028962065492721 9.0926991458704585 13.909548908438682 #
point $-1 -47.220446998361084 9.0926991458704585 13.909548908438682 #
edge $-1 $404 1 $404 0 $237 $-1 forward 7 unknown #
vertex $-1 $238 $405 #
ellipse-curve $-1 -49.032947972955093 16.222287703448174 10.128994070402328 -0.6560590369687036 0 0.75470957328743171 1.1320643599311475 0 0.9840885554530554 1 I I #
point $-1 -48.99264017199576 16.222287703448174 12.369004852858684 #
plane-surface $-1 53.028962065492721 0 0 -1 0 0 0 0 1 forward_v I I I I #
coedge $-1 $246 $244 $248 $348 reversed $161 $-1 #
edge $-1 $259 -13.909548908438682 $350 13.909548908438682 $258 $406 forward 7 unknown #
vertex $-1 $348 $407 #
straight-curve $-1 -53.028962065492721 -32.657470449177445 0 0 0 -1 I I #
edge $-1 $346 -32.657470449177445 $350 32.657470449177445 $344 $408 forward 7 unknown #
straight-curve $-1 0 -32.657470449177445 -13.909548908438682 -1 0 0 I I #
vertex $-1 $251 $409 #
straight-curve $-1 0 32.657470449177445 -13.909548908438682 1 0 0 I I #
point $-1 53.028962065492721 32.657470449177445 -13.909548908438682 #
point $-1 53.028962065492721 -32.657470449177445 -13.909548908438682 #
straight-curve $-1 -53.028962065492721 0 13.909548908438682 0 -1 0 I I #
point $-1 -53.028962065492721 32.657470449177445 13.909548908438682 #
point $-1 -53.028962065492721 -32.657470449177445 13.909548908438682 #
straight-curve $-1 53.028962065492721 -32.657470449177445 0 0 0 -1 I I #
straight-curve $-1 53.028962065492721 32.657470449177445 0 0 0 -1 I I #
loop $-1 $-1 $274 $268 #
plane-surface $-1 0 -32.657470449177445 0 0 1 0 0 0 1 forward_v I I I I #
coedge $-1 $285 $276 $272 $363 forward $269 $-1 #
edge $-1 $367 -20.575328953859184 $280 -3.588954036777336 $271 $410 forward 7 unknown #
edge $-1 $281 3.588954036777336 $366 20.575328953859184 $361 $411 forward 7 unknown #
coedge $-1 $283 $274 $288 $376 reversed $359 $-1 #
coedge $-1 $274 $283 $285 $374 reversed $359 $-1 #
vertex $-1 $374 $412 #
vertex $-1 $275 $413 #
straight-curve $-1 -27.461248121247412 -32.657470449177445 0 0 0 1 I I #
straight-curve $-1 -14.796901120643289 -15.671095532095597 -13.909548908438682 1 0 0 I I #
straight-curve $-1 -14.796901120643289 -15.671095532095597 13.909548908438682 -1 0 0 I I #
point $-1 -27.461248121247412 -15.671095532095597 13.909548908438682 #
point $-1 -27.461248121247412 -15.671095532095597 -13.909548908438682 #
straight-curve $-1 -31.726356361325745 -32.657470449177445 0 0 0 -1 I I #
edge $-1 $366 27.461248121247412 $286 31.726356361325745 $365 $414 forward 7 unknown #
point $-1 -31.726356361325745 -32.657470449177445 -13.909548908438682 #
edge $-1 $289 -31.726356361325745 $367 -27.461248121247412 $364 $415 forward 7 unknown #
point $-1 -31.726356361325745 -32.657470449177445 13.909548908438682 #
coedge $-1 $379 $295 $385 $416 reversed $196 $-1 #
coedge $-1 $295 $378 $298 $383 forward $196 $-1 #
edge $-1 $381 -17.994727981582173 $303 -11.330756953608372 $302 $417 forward 7 unknown #
vertex $-1 $297 $418 #
straight-curve $-1 -10.840413087612589 32.657470449177445 43.207931351339532 -0.85716729658548041 0 0.51503808176128008 I I #
edge $-1 $387 -13.909548908438682 $299 -4.8313383651342141 $298 $419 forward 7 unknown #
point $-1 53.028962065492721 32.657470449177445 4.8313383651342141 #
coedge $-1 $302 $301 $378 $416 forward $293 $-1 #
point $-1 37.920282795355106 25.993499421203644 13.90954890843868 #
vertex $-1 $306 $420 #
straight-curve $-1 53.028962065492721 0 13.909548908438682 0 1 0 I I #
vertex $-1 $309 $421 #
point $-1 45.388167996955382 27.326293626798403 8.2557572993203525 #
vertex $-1 $313 $422 #
point $-1 45.388167996955382 29.325484935190545 8.2557572993203525 #
vertex $-1 $317 $423 #
point $-1 45.388167996955382 31.324676243582687 8.2557572993203525 #
edge $-1 $396 30.54205826707102 $399 35.591323489137132 $322 $424 forward 7 unknown #
vertex $-1 $336 $425 #
straight-curve $-1 -61.304610816883432 23.351876261025875 13.90954890843868 -1 0 0 I I #
edge $-1 $399 -15.240732409301792 $333 -0.98155529414637499 $332 $426 forward 7 unknown #
vertex $-1 $398 $427 #
straight-curve $-1 -53.028962065492721 23.351876261025875 8.8602836863725685 0.75470957328743171 0 0.6560590369687036 I I #
point $-1 -47.220446998361084 23.351876261025875 13.909548908438682 #
point $-1 -53.028962065492721 9.0926991458704585 8.8602836863725685 #
straight-curve $-1 -53.028962065492721 0 13.909548908438682 0 -1 0 I I #
vertex $-1 $339 $428 #
point $-1 -47.900883613023943 16.222287703448174 11.113082625855384 #
straight-curve $-1 -53.028962065492721 32.657470449177445 0 0 0 -1 I I #
point $-1 -53.028962065492721 -32.657470449177445 -13.909548908438682 #
straight-curve $-1 -53.028962065492721 0 -13.909548908438682 0 1 0 I I #
point $-1 -53.028962065492721 32.657470449177445 -13.909548908438682 #
straight-curve $-1 -27.461248121247412 -12.082141495318261 13.909548908438682 0 1 0 I I #
straight-curve $-1 -27.461248121247412 -12.082141495318261 -13.909548908438682 0 -1 0 I I #
point $-1 -27.461248121247412 -32.657470449177445 -13.909548908438682 #
point $-1 -27.461248121247412 -32.657470449177445 13.909548908438682 #
straight-curve $-1 0 -32.657470449177445 -13.909548908438682 -1 0 0 I I #
straight-curve $-1 0 -32.657470449177445 13.909548908438682 1 0 0 I I #
edge $-1 $387 -53.028962065492721 $381 -37.920282795355106 $378 $429 forward 7 unknown #
straight-curve $-1 37.920282795355092 14.662742467595272 13.909548908438683 0 -1 0 I I #
point $-1 37.920282795355106 32.657470449177445 13.90954890843868 #
straight-curve $-1 53.028962065492721 32.657470449177445 0 0 0 -1 I I #
point $-1 53.028962065492721 32.657470449177445 13.909548908438682 #
point $-1 44.702065307782 27.326293626798403 8.084692691908252 #
point $-1 44.702065307782 29.325484935190545 8.084692691908252 #
point $-1 44.702065307782 31.324676243582687 8.084692691908252 #
straight-curve $-1 -53.028962065492721 23.351876261025875 44.4516071755097 0 0 -1 I I #
point $-1 -53.028962065492721 23.351876261025875 13.909548908438682 #
straight-curve $-1 -53.028962065492721 8.1111438517240835 8.8602836863725685 0 -1 0 I I #
point $-1 -53.028962065492721 23.351876261025875 8.8602836863725685 #
point $-1 -48.048859417502037 16.222287703448174 8.9969297104711821 #
straight-curve $-1 0 32.657470449177445 13.909548908438682 -1 0 0 I I #
End-of-ACIS-data 