500 0 8 0           
7 Unknown 11 ACIS 5.0 NT 24 Fri Mar 26 03:32:02 1999 
-1 9.9999999999999995e-007 1e-010 
body $-1 $8 $-1 $9 #
body $-1 $10 $-1 $11 #
body $-1 $12 $-1 $13 #
body $-1 $14 $-1 $15 #
body $-1 $16 $-1 $17 #
body $-1 $18 $-1 $19 #
body $-1 $20 $-1 $21 #
body $-1 $22 $-1 $23 #
lump $-1 $-1 $24 $0 #
transform $-1 1 0 0 0 1 0 0 0 1 69.937437055574208 45.298081198475643 16.692703044632516 1 rotate no_reflect no_shear #
lump $-1 $-1 $25 $1 #
transform $-1 1 0 0 0 1 0 0 0 1 69.937437055574208 45.298081198475643 16.692703044632516 1 rotate no_reflect no_shear #
lump $-1 $-1 $26 $2 #
transform $-1 1 0 0 0 1 0 0 0 1 69.937437055574208 45.298081198475643 16.692703044632516 1 rotate no_reflect no_shear #
lump $-1 $-1 $27 $3 #
transform $-1 1 0 0 0 1 0 0 0 1 69.937437055574208 45.298081198475643 16.692703044632516 1 rotate no_reflect no_shear #
lump $-1 $-1 $28 $4 #
transform $-1 1 0 0 0 1 0 0 0 1 69.937437055574208 45.298081198475643 16.692703044632516 1 rotate no_reflect no_shear #
lump $-1 $-1 $29 $5 #
transform $-1 1 0 0 0 1 0 0 0 1 69.937437055574208 45.298081198475643 16.692703044632516 1 rotate no_reflect no_shear #
lump $-1 $-1 $30 $6 #
transform $-1 1 0 0 0 1 0 0 0 1 69.937437055574208 45.298081198475643 16.692703044632516 1 rotate no_reflect no_shear #
lump $-1 $-1 $31 $7 #
transform $-1 1 0 0 0 1 0 0 0 1 69.937437055574208 45.298081198475643 16.692703044632516 1 rotate no_reflect no_shear #
shell $-1 $-1 $-1 $32 $-1 $8 #
shell $-1 $-1 $-1 $33 $-1 $10 #
shell $-1 $-1 $-1 $34 $-1 $12 #
shell $-1 $-1 $-1 $35 $-1 $14 #
shell $-1 $-1 $-1 $36 $-1 $16 #
shell $-1 $-1 $-1 $37 $-1 $18 #
shell $-1 $-1 $-1 $38 $-1 $20 #
shell $-1 $-1 $-1 $39 $-1 $22 #
face $-1 $40 $41 $24 $-1 $42 forward single #
face $-1 $43 $44 $25 $-1 $45 forward single #
face $-1 $46 $47 $26 $-1 $48 reversed single #
face $-1 $49 $50 $27 $-1 $51 forward single #
face $-1 $52 $53 $28 $-1 $54 forward single #
face $-1 $55 $56 $29 $-1 $57 reversed single #
face $-1 $58 $59 $30 $-1 $60 forward single #
face $-1 $61 $62 $31 $-1 $63 forward single #
face $-1 $64 $65 $24 $-1 $66 reversed single #
loop $-1 $-1 $67 $32 #
plane-surface $-1 0 0 16.692703044632516 0 0 1 1 0 0 forward_v I I I I #
face $-1 $68 $69 $25 $-1 $70 forward single #
loop $-1 $-1 $71 $33 #
plane-surface $-1 -69.937437055574208 0 0 1 0 0 0 0 -1 forward_v I I I I #
face $-1 $72 $73 $26 $-1 $74 reversed single #
loop $-1 $-1 $75 $34 #
plane-surface $-1 -14.714736942813332 -163.91870299701068 84.31492132972221 -1 0 0 0 -0.84804810408105047 0.52991925155115449 forward_v I I I I #
face $-1 $76 $77 $27 $-1 $78 forward single #
loop $-1 $79 $80 $35 #
cone-surface $-1 -33.192764616035333 -42.448012054023302 12.930730801185813 0 0.84804810408105047 -0.52991925155115449 1 0 0 1 I I 0 1 1 forward I I I I #
face $-1 $81 $82 $28 $-1 $83 forward single #
loop $-1 $84 $85 $36 #
cone-surface $-1 -22.105948012102132 -42.448012054023302 12.930730801185813 0 0.84804810408105047 -0.52991925155115449 1 0 0 1 I I 0 1 1 forward I I I I #
face $-1 $86 $87 $29 $-1 $88 reversed single #
loop $-1 $-1 $89 $37 #
plane-surface $-1 46.656786589492249 -163.91870299701068 84.31492132972221 -1 0 0 0 -0.84804810408105047 0.52991925155115449 forward_v I I I I #
face $-1 $90 $91 $30 $-1 $92 forward single #
loop $-1 $93 $94 $38 #
cone-surface $-1 28.17875891627024 -42.448012054023302 12.930730801185813 0 0.84804810408105047 -0.52991925155115449 1 0 0 1 I I 0 1 1 forward I I I I #
face $-1 $95 $96 $31 $-1 $97 forward single #
loop $-1 $98 $99 $39 #
cone-surface $-1 39.265575520203441 -42.448012054023302 12.930730801185813 0 0.84804810408105047 -0.52991925155115449 1 0 0 1 I I 0 1 1 forward I I I I #
face $-1 $100 $101 $24 $-1 $102 reversed single #
loop $-1 $-1 $103 $40 #
plane-surface $-1 0 0 -16.692703044632516 0 0 1 1 0 0 forward_v I I I I #
coedge $-1 $104 $105 $106 $107 forward $41 $-1 #
face $-1 $108 $109 $25 $-1 $110 reversed single #
loop $-1 $-1 $111 $43 #
plane-surface $-1 0 0 16.692703044632516 0 0 1 1 0 0 forward_v I I I I #
coedge $-1 $112 $113 $114 $115 forward $44 $-1 #
face $-1 $116 $117 $26 $-1 $118 reversed single #
loop $-1 $-1 $119 $46 #
plane-surface $-1 -27.649356314068733 -45.298081198475657 10.192532729930491 0 -0.84804810408105047 0.52991925155115449 1 0 0 forward_v I I I I #
coedge $-1 $120 $121 $122 $123 reversed $47 $-1 #
face $-1 $-1 $124 $27 $-1 $125 forward single #
loop $-1 $126 $127 $49 #
cone-surface $-1 -33.192764616035333 -41.204797395873783 12.153884089314555 0 0.84804810408105047 -0.52991925155115449 0.5 0 0 1 I I -0.70710678118654624 0.70710678118654879 0.5 forward I I I I #
loop $-1 $-1 $128 $35 #
coedge $-1 $80 $80 $129 $130 reversed $50 $-1 #
face $-1 $-1 $131 $28 $-1 $132 forward single #
loop $-1 $133 $134 $52 #
cone-surface $-1 -22.105948012102132 -41.204797395873783 12.153884089314555 0 0.84804810408105047 -0.52991925155115449 0.5 0 0 1 I I -0.70710678118654624 0.70710678118654879 0.5 forward I I I I #
loop $-1 $-1 $135 $36 #
coedge $-1 $85 $85 $136 $137 reversed $53 $-1 #
face $-1 $138 $139 $29 $-1 $140 reversed single #
loop $-1 $-1 $141 $55 #
plane-surface $-1 33.722167218236848 -45.298081198475657 10.192532729930491 0 -0.84804810408105047 0.52991925155115449 1 0 0 forward_v I I I I #
coedge $-1 $142 $143 $144 $145 reversed $56 $-1 #
face $-1 $-1 $146 $30 $-1 $147 forward single #
loop $-1 $148 $149 $58 #
cone-surface $-1 28.17875891627024 -41.204797395873783 12.153884089314555 0 0.84804810408105047 -0.52991925155115449 0.5 0 0 1 I I -0.70710678118654624 0.70710678118654879 0.5 forward I I I I #
loop $-1 $-1 $150 $38 #
coedge $-1 $94 $94 $151 $152 reversed $59 $-1 #
face $-1 $-1 $153 $31 $-1 $154 forward single #
loop $-1 $155 $156 $61 #
cone-surface $-1 39.265575520203441 -41.204797395873783 12.153884089314555 0 0.84804810408105047 -0.52991925155115449 0.5 0 0 1 I I -0.70710678118654624 0.70710678118654879 0.5 forward I I I I #
loop $-1 $-1 $157 $39 #
coedge $-1 $99 $99 $158 $159 reversed $62 $-1 #
face $-1 $160 $161 $24 $-1 $162 reversed single #
loop $-1 $-1 $163 $64 #
plane-surface $-1 0 -45.298081198475643 0 0 1 0 0 0 1 forward_v I I I I #
coedge $-1 $164 $165 $166 $167 forward $65 $-1 #
coedge $-1 $168 $67 $169 $170 forward $41 $-1 #
coedge $-1 $67 $168 $171 $172 forward $41 $-1 #
coedge $-1 $173 $174 $67 $107 reversed $175 $-1 #
edge $-1 $176 -45.298081198475643 $177 45.298081198475643 $106 $178 forward 7 unknown #
face $-1 $179 $180 $25 $-1 $181 reversed single #
loop $-1 $-1 $182 $68 #
plane-surface $-1 -87.069264102111447 -42.362555738284414 0 1 0 0 0 0 -1 forward_v I I I I #
coedge $-1 $183 $184 $112 $185 forward $69 $-1 #
coedge $-1 $186 $71 $111 $185 reversed $44 $-1 #
coedge $-1 $71 $186 $187 $188 reversed $44 $-1 #
coedge $-1 $189 $190 $71 $115 reversed $180 $-1 #
edge $-1 $191 -16.692703044632516 $192 16.692703044632516 $114 $193 forward 7 unknown #
face $-1 $194 $195 $26 $-1 $196 forward single #
loop $-1 $-1 $197 $72 #
plane-surface $-1 -40.583975685324134 -163.91870299701068 84.31492132972221 1 0 0 0 0.84804810408105047 -0.52991925155115449 forward_v I I I I #
coedge $-1 $198 $199 $200 $201 reversed $73 $-1 #
coedge $-1 $121 $75 $202 $203 reversed $47 $-1 #
coedge $-1 $75 $120 $198 $204 reversed $47 $-1 #
coedge $-1 $200 $205 $75 $123 forward $195 $-1 #
edge $-1 $206 36.661270300029699 $207 40.723027376716367 $122 $208 forward 7 unknown #
loop $-1 $-1 $129 $76 #
plane-surface $-1 -27.649356314068733 -45.298081198475657 10.192532729930491 0 -0.84804810408105047 0.52991925155115449 1 0 0 forward_v I I I I #
loop $-1 $-1 $209 $49 #
coedge $-1 $127 $127 $128 $210 reversed $77 $-1 #
coedge $-1 $128 $128 $127 $210 forward $79 $-1 #
coedge $-1 $129 $129 $80 $130 forward $124 $-1 #
edge $-1 $211 -3.0144468541914851e-015 $211 6.2831853071795978 $129 $212 forward 7 unknown #
loop $-1 $-1 $136 $81 #
plane-surface $-1 -27.649356314068733 -45.298081198475657 10.192532729930491 0 -0.84804810408105047 0.52991925155115449 1 0 0 forward_v I I I I #
loop $-1 $-1 $213 $52 #
coedge $-1 $134 $134 $135 $214 reversed $82 $-1 #
coedge $-1 $135 $135 $134 $214 forward $84 $-1 #
coedge $-1 $136 $136 $85 $137 forward $131 $-1 #
edge $-1 $215 -3.0144468541914851e-015 $215 6.2831853071795978 $136 $216 forward 7 unknown #
face $-1 $217 $218 $29 $-1 $219 reversed single #
loop $-1 $-1 $220 $86 #
plane-surface $-1 20.787547846981447 -163.91870299701068 84.31492132972221 1 0 0 0 0.84804810408105047 -0.52991925155115449 forward_v I I I I #
coedge $-1 $221 $222 $223 $224 reversed $87 $-1 #
coedge $-1 $143 $89 $225 $226 reversed $56 $-1 #
coedge $-1 $89 $142 $221 $227 reversed $56 $-1 #
coedge $-1 $223 $228 $89 $145 forward $229 $-1 #
edge $-1 $230 36.661270300029699 $231 40.723027376716367 $144 $232 forward 7 unknown #
loop $-1 $-1 $151 $90 #
plane-surface $-1 33.722167218236848 -45.298081198475657 10.192532729930491 0 -0.84804810408105047 0.52991925155115449 1 0 0 forward_v I I I I #
loop $-1 $-1 $233 $58 #
coedge $-1 $149 $149 $150 $234 reversed $91 $-1 #
coedge $-1 $150 $150 $149 $234 forward $93 $-1 #
coedge $-1 $151 $151 $94 $152 forward $146 $-1 #
edge $-1 $235 -3.0144468541914851e-015 $235 6.2831853071795978 $151 $236 forward 7 unknown #
loop $-1 $-1 $158 $95 #
plane-surface $-1 33.722167218236848 -45.298081198475657 10.192532729930491 0 -0.84804810408105047 0.52991925155115449 1 0 0 forward_v I I I I #
loop $-1 $-1 $237 $61 #
coedge $-1 $156 $156 $157 $238 reversed $96 $-1 #
coedge $-1 $157 $157 $156 $238 forward $98 $-1 #
coedge $-1 $158 $158 $99 $159 forward $153 $-1 #
edge $-1 $239 -3.0144468541914851e-015 $239 6.2831853071795978 $158 $240 forward 7 unknown #
face $-1 $241 $242 $24 $-1 $243 reversed single #
loop $-1 $-1 $244 $100 #
plane-surface $-1 -69.937437055574208 0 0 1 0 0 0 0 -1 forward_v I I I I #
coedge $-1 $245 $171 $246 $247 forward $101 $-1 #
coedge $-1 $248 $103 $245 $249 forward $65 $-1 #
coedge $-1 $103 $248 $250 $251 forward $65 $-1 #
coedge $-1 $174 $173 $103 $167 reversed $175 $-1 #
edge $-1 $252 -45.298081198475643 $253 45.298081198475643 $166 $254 forward 7 unknown #
coedge $-1 $105 $104 $255 $256 forward $41 $-1 #
coedge $-1 $257 $258 $104 $170 reversed $242 $-1 #
edge $-1 $177 -69.937437055574208 $259 69.937437055574208 $169 $260 forward 7 unknown #
coedge $-1 $163 $261 $105 $172 reversed $101 $-1 #
edge $-1 $262 -69.937437055574208 $176 69.937437055574208 $171 $263 forward 7 unknown #
coedge $-1 $166 $106 $261 $264 forward $175 $-1 #
coedge $-1 $106 $166 $257 $265 reversed $175 $-1 #
loop $-1 $-1 $173 $241 #
vertex $-1 $107 $266 #
vertex $-1 $107 $267 #
straight-curve $-1 69.937437055574208 0 16.692703044632516 0 1 0 I I #
face $-1 $268 $269 $25 $-1 $270 reversed single #
loop $-1 $-1 $114 $108 #
plane-surface $-1 -78.503350578842827 -39.427030278093184 0 0 -1 0 0 0 -1 forward_v I I I I #
coedge $-1 $271 $272 $273 $274 forward $109 $-1 #
coedge $-1 $275 $111 $190 $276 forward $69 $-1 #
coedge $-1 $111 $275 $277 $278 forward $69 $-1 #
edge $-1 $279 -45.298081198475643 $192 -39.427030278093184 $111 $280 forward 7 unknown #
coedge $-1 $113 $112 $281 $282 reversed $44 $-1 #
coedge $-1 $283 $284 $113 $188 forward $269 $-1 #
edge $-1 $191 39.427030278093184 $285 45.298081198475643 $187 $286 forward 7 unknown #
coedge $-1 $273 $114 $284 $287 reversed $180 $-1 #
coedge $-1 $114 $273 $183 $276 reversed $180 $-1 #
vertex $-1 $188 $288 #
vertex $-1 $276 $289 #
straight-curve $-1 -69.937437055574208 -39.427030278093184 0 0 0 1 I I #
face $-1 $-1 $290 $26 $-1 $291 reversed single #
loop $-1 $-1 $122 $116 #
plane-surface $-1 0 0 16.692703044632516 0 0 1 1 0 0 forward_v I I I I #
coedge $-1 $292 $293 $294 $295 reversed $117 $-1 #
coedge $-1 $296 $119 $121 $204 forward $73 $-1 #
coedge $-1 $119 $296 $292 $297 forward $73 $-1 #
coedge $-1 $294 $122 $119 $201 forward $195 $-1 #
edge $-1 $207 0.89005878577896524 $298 26.759297528289768 $200 $299 forward 7 unknown #
coedge $-1 $300 $301 $120 $203 forward $290 $-1 #
edge $-1 $302 -31.964927934930593 $206 -25.464757620228589 $202 $303 forward 7 unknown #
edge $-1 $207 -7.6648603816473893 $302 -2.7114274142304302e-014 $121 $304 forward 7 unknown #
coedge $-1 $122 $294 $300 $305 forward $195 $-1 #
vertex $-1 $123 $306 #
vertex $-1 $123 $307 #
straight-curve $-1 -14.714736942813332 -81.959351498505342 16.692703044632516 0 1 0 I I #
coedge $-1 $209 $209 $-1 $308 reversed $126 $-1 #
edge $-1 $309 0 $309 6.2831853071796004 $127 $310 forward 7 unknown #
vertex $-1 $130 $311 #
ellipse-curve $-1 -33.192764616035333 -43.267202660132313 13.442617887281505 0 -0.84804810408105047 0.52991925155115449 1 0 0 1 I I #
coedge $-1 $213 $213 $-1 $312 reversed $133 $-1 #
edge $-1 $313 0 $313 6.2831853071796004 $134 $314 forward 7 unknown #
vertex $-1 $137 $315 #
ellipse-curve $-1 -22.105948012102132 -43.267202660132313 13.442617887281505 0 -0.84804810408105047 0.52991925155115449 1 0 0 1 I I #
face $-1 $-1 $229 $29 $-1 $316 forward single #
loop $-1 $-1 $317 $138 #
plane-surface $-1 0 -45.298081198475643 0 0 1 0 0 0 1 forward_v I I I I #
coedge $-1 $318 $319 $320 $321 reversed $139 $-1 #
coedge $-1 $322 $141 $143 $227 forward $87 $-1 #
coedge $-1 $141 $322 $318 $323 forward $87 $-1 #
coedge $-1 $320 $144 $141 $224 forward $229 $-1 #
edge $-1 $231 -29.795702980373825 $324 -3.9264642378630228 $223 $325 forward 7 unknown #
coedge $-1 $326 $327 $142 $226 forward $218 $-1 #
edge $-1 $328 -31.964927934930593 $230 -25.464757620228589 $225 $329 forward 7 unknown #
edge $-1 $231 -7.6648603816473893 $328 -2.7114274142304302e-014 $143 $330 forward 7 unknown #
coedge $-1 $144 $320 $326 $331 forward $229 $-1 #
loop $-1 $-1 $320 $217 #
vertex $-1 $226 $332 #
vertex $-1 $145 $333 #
straight-curve $-1 46.656786589492249 -81.959351498505342 16.692703044632516 0 1 0 I I #
coedge $-1 $233 $233 $-1 $334 reversed $148 $-1 #
edge $-1 $335 0 $335 6.2831853071796004 $149 $336 forward 7 unknown #
vertex $-1 $152 $337 #
ellipse-curve $-1 28.17875891627024 -43.267202660132313 13.442617887281505 0 -0.84804810408105047 0.52991925155115449 1 0 0 1 I I #
coedge $-1 $237 $237 $-1 $338 reversed $155 $-1 #
edge $-1 $339 0 $339 6.2831853071796004 $156 $340 forward 7 unknown #
vertex $-1 $159 $341 #
ellipse-curve $-1 39.265575520203441 -43.267202660132313 13.442617887281505 0 -0.84804810408105047 0.52991925155115449 1 0 0 1 I I #
face $-1 $-1 $175 $24 $-1 $342 reversed single #
loop $-1 $-1 $257 $160 #
plane-surface $-1 0 45.298081198475643 0 0 -1 0 0 0 -1 forward_v I I I I #
coedge $-1 $343 $255 $258 $344 forward $161 $-1 #
coedge $-1 $261 $163 $164 $249 reversed $101 $-1 #
coedge $-1 $255 $343 $163 $247 reversed $161 $-1 #
edge $-1 $262 -16.692703044632516 $345 16.692703044632516 $246 $346 forward 7 unknown #
coedge $-1 $165 $164 $343 $347 forward $65 $-1 #
edge $-1 $253 -69.937437055574208 $345 69.937437055574208 $245 $348 forward 7 unknown #
coedge $-1 $258 $257 $165 $251 reversed $242 $-1 #
edge $-1 $349 -69.937437055574208 $252 69.937437055574208 $250 $350 forward 7 unknown #
vertex $-1 $167 $351 #
vertex $-1 $264 $352 #
straight-curve $-1 69.937437055574208 0 -16.692703044632516 0 -1 0 I I #
coedge $-1 $244 $246 $168 $256 reversed $161 $-1 #
edge $-1 $259 -45.298081198475643 $262 45.298081198475643 $255 $353 forward 7 unknown #
coedge $-1 $250 $169 $174 $265 forward $242 $-1 #
coedge $-1 $169 $250 $244 $344 reversed $242 $-1 #
vertex $-1 $170 $354 #
straight-curve $-1 0 45.298081198475643 16.692703044632516 -1 0 0 I I #
coedge $-1 $171 $245 $173 $264 reversed $101 $-1 #
vertex $-1 $256 $355 #
straight-curve $-1 0 -45.298081198475643 16.692703044632516 1 0 0 I I #
edge $-1 $176 -16.692703044632516 $253 16.692703044632516 $173 $356 forward 7 unknown #
edge $-1 $177 -16.692703044632516 $252 16.692703044632516 $174 $357 forward 7 unknown #
point $-1 69.937437055574208 -45.298081198475643 16.692703044632516 #
point $-1 69.937437055574208 45.298081198475643 16.692703044632516 #
face $-1 $-1 $358 $25 $-1 $359 reversed single #
loop $-1 $-1 $187 $179 #
plane-surface $-1 0 0 -16.692703044632516 0 0 1 1 0 0 forward_v I I I I #
coedge $-1 $360 $182 $361 $362 reversed $109 $-1 #
coedge $-1 $182 $360 $275 $363 reversed $109 $-1 #
coedge $-1 $190 $189 $182 $274 reversed $180 $-1 #
edge $-1 $364 -16.692703044632516 $365 16.692703044632516 $273 $366 forward 7 unknown #
coedge $-1 $184 $183 $272 $363 forward $69 $-1 #
edge $-1 $192 -8.5659135232686197 $364 8.5659135232686197 $190 $367 forward 7 unknown #
coedge $-1 $368 $281 $184 $278 reversed $358 $-1 #
edge $-1 $369 -87.069264102111447 $279 -69.937437055574208 $277 $370 forward 7 unknown #
vertex $-1 $282 $371 #
straight-curve $-1 -69.937437055574208 0 16.692703044632516 0 1 0 I I #
coedge $-1 $277 $372 $186 $282 forward $358 $-1 #
edge $-1 $285 -16.692703044632516 $279 16.692703044632516 $281 $373 forward 7 unknown #
coedge $-1 $361 $187 $372 $374 forward $269 $-1 #
coedge $-1 $187 $361 $189 $287 forward $269 $-1 #
vertex $-1 $374 $375 #
straight-curve $-1 -69.937437055574208 0 -16.692703044632516 0 -1 0 I I #
edge $-1 $365 -8.5659135232686197 $191 8.5659135232686197 $189 $376 forward 7 unknown #
point $-1 -69.937437055574208 -39.427030278093184 -16.692703044632516 #
point $-1 -69.937437055574208 -39.427030278093184 16.692703044632516 #
loop $-1 $-1 $202 $194 #
plane-surface $-1 0 -45.298081198475643 0 0 1 0 0 0 1 forward_v I I I I #
coedge $-1 $293 $197 $199 $297 reversed $117 $-1 #
coedge $-1 $197 $292 $377 $378 reversed $117 $-1 #
coedge $-1 $205 $200 $197 $295 forward $195 $-1 #
edge $-1 $298 -40.723027376716367 $379 -36.661270300029699 $294 $380 forward 7 unknown #
coedge $-1 $199 $198 $301 $381 reversed $73 $-1 #
edge $-1 $382 2.7114274142304302e-014 $298 7.6648603816473893 $292 $383 forward 7 unknown #
vertex $-1 $201 $384 #
straight-curve $-1 -13.824678157034366 -41.236324121788975 16.692703044632516 -1 0 0 I I #
coedge $-1 $377 $202 $205 $305 reversed $290 $-1 #
coedge $-1 $202 $377 $296 $381 forward $290 $-1 #
vertex $-1 $203 $385 #
straight-curve $-1 -14.714736942813332 -45.298081198475643 42.157460664861105 0 0 1 I I #
straight-curve $-1 -14.714736942813332 -45.298081198475657 10.192532729930491 0 -0.52991925155115449 -0.84804810408105047 I I #
edge $-1 $379 -40.583975685324134 $206 -14.714736942813332 $300 $386 forward 7 unknown #
point $-1 -14.714736942813332 -45.298081198475643 16.692703044632516 #
point $-1 -14.714736942813332 -41.236324121788975 16.692703044632516 #
edge $-1 $387 1 $387 0 $209 $-1 forward 7 unknown #
vertex $-1 $210 $388 #
ellipse-curve $-1 -33.192764616035333 -41.628821447914312 12.418843715090134 0 -0.84804810408105047 0.52991925155115449 1 0 0 1 I I #
point $-1 -32.192764616035333 -43.267202660132298 13.442617887281493 #
edge $-1 $389 1 $389 0 $213 $-1 forward 7 unknown #
vertex $-1 $214 $390 #
ellipse-curve $-1 -22.105948012102132 -41.628821447914312 12.418843715090134 0 -0.84804810408105047 0.52991925155115449 1 0 0 1 I I #
point $-1 -21.105948012102132 -43.267202660132298 13.442617887281493 #
plane-surface $-1 0 0 16.692703044632516 0 0 1 1 0 0 forward_v I I I I #
coedge $-1 $327 $326 $319 $391 forward $218 $-1 #
coedge $-1 $319 $220 $222 $323 reversed $139 $-1 #
coedge $-1 $220 $318 $317 $391 reversed $139 $-1 #
coedge $-1 $228 $223 $220 $321 forward $229 $-1 #
edge $-1 $324 -40.723027376716367 $392 -36.661270300029699 $320 $393 forward 7 unknown #
coedge $-1 $222 $221 $327 $394 reversed $87 $-1 #
edge $-1 $395 2.7114274142304302e-014 $324 7.6648603816473893 $318 $396 forward 7 unknown #
vertex $-1 $224 $397 #
straight-curve $-1 16.861083609118424 -41.236324121788975 16.692703044632516 -1 0 0 I I #
coedge $-1 $317 $225 $228 $331 reversed $218 $-1 #
coedge $-1 $225 $317 $322 $394 forward $218 $-1 #
vertex $-1 $226 $398 #
straight-curve $-1 46.656786589492249 -45.298081198475643 42.157460664861105 0 0 1 I I #
straight-curve $-1 46.656786589492249 -45.298081198475657 10.192532729930491 0 -0.52991925155115449 -0.84804810408105047 I I #
edge $-1 $392 20.787547846981447 $230 46.656786589492249 $326 $399 forward 7 unknown #
point $-1 46.656786589492249 -45.298081198475643 16.692703044632516 #
point $-1 46.656786589492249 -41.236324121788975 16.692703044632516 #
edge $-1 $400 1 $400 0 $233 $-1 forward 7 unknown #
vertex $-1 $234 $401 #
ellipse-curve $-1 28.17875891627024 -41.628821447914312 12.418843715090134 0 -0.84804810408105047 0.52991925155115449 1 0 0 1 I I #
point $-1 29.17875891627024 -43.267202660132298 13.442617887281493 #
edge $-1 $402 1 $402 0 $237 $-1 forward 7 unknown #
vertex $-1 $238 $403 #
ellipse-curve $-1 39.265575520203441 -41.628821447914312 12.418843715090134 0 -0.84804810408105047 0.52991925155115449 1 0 0 1 I I #
point $-1 40.265575520203441 -43.267202660132298 13.442617887281493 #
plane-surface $-1 69.937437055574208 0 0 -1 0 0 0 0 1 forward_v I I I I #
coedge $-1 $246 $244 $248 $347 reversed $161 $-1 #
edge $-1 $259 -16.692703044632516 $349 16.692703044632516 $258 $404 forward 7 unknown #
vertex $-1 $347 $405 #
straight-curve $-1 -69.937437055574208 -45.298081198475643 0 0 0 -1 I I #
edge $-1 $345 -45.298081198475643 $349 45.298081198475643 $343 $406 forward 7 unknown #
straight-curve $-1 0 -45.298081198475643 -16.692703044632516 -1 0 0 I I #
vertex $-1 $251 $407 #
straight-curve $-1 0 45.298081198475643 -16.692703044632516 1 0 0 I I #
point $-1 69.937437055574208 45.298081198475643 -16.692703044632516 #
point $-1 69.937437055574208 -45.298081198475643 -16.692703044632516 #
straight-curve $-1 -69.937437055574208 0 16.692703044632516 0 -1 0 I I #
point $-1 -69.937437055574208 45.298081198475643 16.692703044632516 #
point $-1 -69.937437055574208 -45.298081198475643 16.692703044632516 #
straight-curve $-1 69.937437055574208 -45.298081198475643 0 0 0 -1 I I #
straight-curve $-1 69.937437055574208 45.298081198475643 0 0 0 -1 I I #
loop $-1 $-1 $281 $268 #
plane-surface $-1 0 -45.298081198475643 0 0 1 0 0 0 1 forward_v I I I I #
coedge $-1 $272 $271 $368 $408 reversed $109 $-1 #
coedge $-1 $284 $283 $271 $362 forward $269 $-1 #
edge $-1 $409 -2.9355254601912293 $365 2.9355254601912293 $271 $410 forward 7 unknown #
edge $-1 $364 -2.9355254601912293 $369 2.9355254601912293 $272 $411 forward 7 unknown #
vertex $-1 $276 $412 #
vertex $-1 $287 $413 #
straight-curve $-1 -87.069264102111447 -39.427030278093184 0 0 0 -1 I I #
straight-curve $-1 -78.503350578842827 -39.427030278093184 16.692703044632516 -1 0 0 I I #
coedge $-1 $372 $277 $360 $408 forward $358 $-1 #
vertex $-1 $363 $414 #
straight-curve $-1 0 -45.298081198475643 16.692703044632516 1 0 0 I I #
point $-1 -69.937437055574208 -45.298081198475643 16.692703044632516 #
coedge $-1 $281 $368 $283 $374 reversed $358 $-1 #
straight-curve $-1 -69.937437055574208 -45.298081198475643 0 0 0 1 I I #
edge $-1 $285 -8.5659135232686197 $409 8.5659135232686197 $372 $415 forward 7 unknown #
point $-1 -69.937437055574208 -45.298081198475643 -16.692703044632516 #
straight-curve $-1 -78.503350578842827 -39.427030278093184 -16.692703044632516 1 0 0 I I #
coedge $-1 $301 $300 $293 $378 forward $290 $-1 #
edge $-1 $379 25.464757620228589 $382 31.964927934930593 $377 $416 forward 7 unknown #
vertex $-1 $305 $417 #
straight-curve $-1 -40.583975685324134 -81.959351498505342 16.692703044632516 0 -1 0 I I #
edge $-1 $382 -26.759297528289768 $302 -0.89005878577896524 $301 $418 forward 7 unknown #
vertex $-1 $381 $419 #
straight-curve $-1 -40.583975685324134 -45.298081198475657 10.192532729930491 0 0.52991925155115449 0.84804810408105047 I I #
point $-1 -40.583975685324134 -41.236324121788975 16.692703044632516 #
point $-1 -14.714736942813332 -45.298081198475643 10.192532729930514 #
straight-curve $-1 0 -45.298081198475643 16.692703044632516 1 0 0 I I #
vertex $-1 $308 $420 #
point $-1 -32.192764616035333 -41.628821447914312 12.418843715090134 #
vertex $-1 $312 $421 #
point $-1 -21.105948012102132 -41.628821447914312 12.418843715090134 #
edge $-1 $392 25.464757620228589 $395 31.964927934930593 $317 $422 forward 7 unknown #
vertex $-1 $331 $423 #
straight-curve $-1 20.787547846981447 -81.959351498505342 16.692703044632516 0 -1 0 I I #
edge $-1 $395 3.9264642378630228 $328 29.795702980373825 $327 $424 forward 7 unknown #
vertex $-1 $394 $425 #
straight-curve $-1 20.787547846981447 -45.298081198475657 10.192532729930491 0 0.52991925155115449 0.84804810408105047 I I #
point $-1 20.787547846981447 -41.236324121788975 16.692703044632516 #
point $-1 46.656786589492249 -45.298081198475643 10.192532729930514 #
straight-curve $-1 0 -45.298081198475643 16.692703044632516 1 0 0 I I #
vertex $-1 $334 $426 #
point $-1 29.17875891627024 -41.628821447914312 12.418843715090134 #
vertex $-1 $338 $427 #
point $-1 40.265575520203441 -41.628821447914312 12.418843715090134 #
straight-curve $-1 -69.937437055574208 45.298081198475643 0 0 0 -1 I I #
point $-1 -69.937437055574208 -45.298081198475643 -16.692703044632516 #
straight-curve $-1 -69.937437055574208 0 -16.692703044632516 0 1 0 I I #
point $-1 -69.937437055574208 45.298081198475643 -16.692703044632516 #
edge $-1 $369 -16.692703044632516 $409 16.692703044632516 $360 $428 forward 7 unknown #
vertex $-1 $362 $429 #
straight-curve $-1 -87.069264102111447 -42.362555738284414 -16.692703044632516 0 1 0 I I #
straight-curve $-1 -87.069264102111447 -42.362555738284414 16.692703044632516 0 -1 0 I I #
point $-1 -87.069264102111447 -39.427030278093184 16.692703044632516 #
point $-1 -87.069264102111447 -39.427030278093184 -16.692703044632516 #
point $-1 -87.069264102111447 -45.298081198475643 16.692703044632516 #
straight-curve $-1 -78.503350578842827 -45.298081198475643 -16.692703044632516 -1 0 0 I I #
straight-curve $-1 -40.583975685324134 -45.298081198475643 42.157460664861105 0 0 -1 I I #
point $-1 -40.583975685324134 -45.298081198475643 16.692703044632516 #
straight-curve $-1 -13.824678157034366 -45.298081198475643 10.192532729930518 1 0 0 I I #
point $-1 -40.583975685324134 -45.298081198475643 10.192532729930514 #
point $-1 -33.192764616035333 -40.780773343833253 11.888924463538977 #
point $-1 -22.105948012102132 -40.780773343833253 11.888924463538977 #
straight-curve $-1 20.787547846981447 -45.298081198475643 42.157460664861105 0 0 -1 I I #
point $-1 20.787547846981447 -45.298081198475643 16.692703044632516 #
straight-curve $-1 16.861083609118424 -45.298081198475643 10.192532729930518 1 0 0 I I #
point $-1 20.787547846981447 -45.298081198475643 10.192532729930514 #
point $-1 28.17875891627024 -40.780773343833253 11.888924463538977 #
point $-1 39.265575520203441 -40.780773343833253 11.888924463538977 #
straight-curve $-1 -87.069264102111447 -45.298081198475643 0 0 0 -1 I I #
point $-1 -87.069264102111447 -45.298081198475643 -16.692703044632516 #
End-of-ACIS-data 