500 0 11 0           
7 Unknown 11 ACIS 5.0 NT 24 Thu Mar 25 17:17:14 1999 
-1 9.9999999999999995e-007 1e-010 
body $-1 $11 $-1 $12 #
body $-1 $13 $-1 $14 #
body $-1 $15 $-1 $16 #
body $-1 $17 $-1 $18 #
body $-1 $19 $-1 $20 #
body $-1 $21 $-1 $22 #
body $-1 $23 $-1 $24 #
body $-1 $25 $-1 $26 #
body $-1 $27 $-1 $28 #
body $-1 $29 $-1 $30 #
body $-1 $31 $-1 $32 #
lump $-1 $-1 $33 $0 #
transform $-1 1 0 0 0 1 0 0 0 1 54.143498031556135 23.584733912290016 10.43588667015295 1 rotate no_reflect no_shear #
lump $-1 $-1 $34 $1 #
transform $-1 1 0 0 0 1 0 0 0 1 54.143498031556135 23.584733912290016 10.43588667015295 1 rotate no_reflect no_shear #
lump $-1 $-1 $35 $2 #
transform $-1 1 0 0 0 1 0 0 0 1 54.143498031556135 23.584733912290016 10.43588667015295 1 rotate no_reflect no_shear #
lump $-1 $-1 $36 $3 #
transform $-1 1 0 0 0 1 0 0 0 1 54.143498031556135 23.584733912290016 10.43588667015295 1 rotate no_reflect no_shear #
lump $-1 $-1 $37 $4 #
transform $-1 1 0 0 0 1 0 0 0 1 54.143498031556135 23.584733912290016 10.43588667015295 1 rotate no_reflect no_shear #
lump $-1 $-1 $38 $5 #
transform $-1 1 0 0 0 1 0 0 0 1 54.143498031556135 23.584733912290016 10.43588667015295 1 rotate no_reflect no_shear #
lump $-1 $-1 $39 $6 #
transform $-1 1 0 0 0 1 0 0 0 1 54.143498031556135 23.584733912290016 10.43588667015295 1 rotate no_reflect no_shear #
lump $-1 $-1 $40 $7 #
transform $-1 1 0 0 0 1 0 0 0 1 54.143498031556135 23.584733912290016 10.43588667015295 1 rotate no_reflect no_shear #
lump $-1 $-1 $41 $8 #
transform $-1 1 0 0 0 1 0 0 0 1 54.143498031556135 23.584733912290016 10.43588667015295 1 rotate no_reflect no_shear #
lump $-1 $-1 $42 $9 #
transform $-1 1 0 0 0 1 0 0 0 1 54.143498031556135 23.584733912290016 10.43588667015295 1 rotate no_reflect no_shear #
lump $-1 $-1 $43 $10 #
transform $-1 1 0 0 0 1 0 0 0 1 54.143498031556135 23.584733912290016 10.43588667015295 1 rotate no_reflect no_shear #
shell $-1 $-1 $-1 $44 $-1 $11 #
shell $-1 $-1 $-1 $45 $-1 $13 #
shell $-1 $-1 $-1 $46 $-1 $15 #
shell $-1 $-1 $-1 $47 $-1 $17 #
shell $-1 $-1 $-1 $48 $-1 $19 #
shell $-1 $-1 $-1 $49 $-1 $21 #
shell $-1 $-1 $-1 $50 $-1 $23 #
shell $-1 $-1 $-1 $51 $-1 $25 #
shell $-1 $-1 $-1 $52 $-1 $27 #
shell $-1 $-1 $-1 $53 $-1 $29 #
shell $-1 $-1 $-1 $54 $-1 $31 #
face $-1 $55 $56 $33 $-1 $57 forward single #
face $-1 $58 $59 $34 $-1 $60 forward single #
face $-1 $61 $62 $35 $-1 $63 forward single #
face $-1 $64 $65 $36 $-1 $66 reversed single #
face $-1 $67 $68 $37 $-1 $69 forward single #
face $-1 $70 $71 $38 $-1 $72 forward single #
face $-1 $73 $74 $39 $-1 $75 reversed single #
face $-1 $76 $77 $40 $-1 $78 forward single #
face $-1 $79 $80 $41 $-1 $81 forward single #
face $-1 $82 $83 $42 $-1 $84 reversed single #
face $-1 $85 $86 $43 $-1 $87 forward single #
face $-1 $88 $89 $33 $-1 $90 reversed single #
loop $-1 $-1 $91 $44 #
plane-surface $-1 0 0 10.43588667015295 0 0 1 1 0 0 forward_v I I I I #
face $-1 $92 $93 $34 $-1 $94 reversed single #
loop $-1 $-1 $95 $45 #
plane-surface $-1 0 -18.622603087737346 -5.1973371804831672 0 0 1 1 0 0 forward_v I I I I #
face $-1 $96 $97 $35 $-1 $98 reversed single #
loop $-1 $-1 $99 $46 #
plane-surface $-1 0 18.62260308773735 -5.1973371804831672 0 0 1 1 0 0 forward_v I I I I #
face $-1 $100 $101 $36 $-1 $102 reversed single #
loop $-1 $-1 $103 $47 #
plane-surface $-1 -130.71396815051662 -4.7658616907569522 80.49730274688126 0 -1 0 0.70710678939079041 0 -0.70710677298230451 forward_v I I I I #
face $-1 $104 $105 $37 $-1 $106 forward single #
loop $-1 $107 $108 $48 #
cone-surface $-1 -50.508492327765211 -9.341365375628417 6.8008808996694832 0.70710678939079041 0 -0.70710677298230451 0.35355338649115226 0 0.35355339469539521 1 I I 0 1 0.5 forward I I I I #
face $-1 $109 $110 $38 $-1 $111 forward single #
loop $-1 $112 $113 $49 #
cone-surface $-1 -50.508492327765211 -6.5960631647055372 6.8008808996694832 0.70710678939079041 0 -0.70710677298230451 0.35355338649115226 0 0.35355339469539521 1 I I 0 1 0.5 forward I I I I #
face $-1 $114 $115 $39 $-1 $116 reversed single #
loop $-1 $-1 $117 $50 #
plane-surface $-1 -130.71396815051662 11.171566849577005 80.49730274688126 0 -1 0 0.70710678939079041 0 -0.70710677298230451 forward_v I I I I #
face $-1 $118 $119 $40 $-1 $120 forward single #
loop $-1 $121 $122 $51 #
cone-surface $-1 -50.508492327765211 6.5960631647055372 6.8008808996694832 0.70710678939079041 0 -0.70710677298230451 0.35355338649115226 0 0.35355339469539521 1 I I 0 1 0.5 forward I I I I #
face $-1 $123 $124 $41 $-1 $125 forward single #
loop $-1 $126 $127 $52 #
cone-surface $-1 -50.508492327765211 9.341365375628417 6.8008808996694832 0.70710678939079041 0 -0.70710677298230451 0.35355338649115226 0 0.35355339469539521 1 I I 0 1 0.5 forward I I I I #
face $-1 $128 $129 $42 $-1 $130 reversed single #
loop $-1 $-1 $131 $53 #
plane-surface $-1 17.09535309281226 9.2908941866777504 156.00723424478977 0 -1 0 -0.51503808176128008 0 -0.85716729658548041 forward_v I I I I #
face $-1 $132 $133 $43 $-1 $134 forward single #
loop $-1 $135 $136 $54 #
cone-surface $-1 50.871122212725687 5.2710403876637457 7.6627521648515415 -0.51503808176128008 0 -0.85716729658548041 0.85716729658548041 0 -0.51503808176128008 1 I I 0 1 1 forward I I I I #
face $-1 $137 $138 $33 $-1 $139 reversed single #
loop $-1 $-1 $140 $55 #
plane-surface $-1 0 0 -10.43588667015295 0 0 1 1 0 0 forward_v I I I I #
coedge $-1 $141 $142 $143 $144 forward $56 $-1 #
face $-1 $145 $146 $34 $-1 $147 reversed single #
loop $-1 $-1 $148 $58 #
plane-surface $-1 0 -13.660472263184676 -7.8166119253180586 0 -1 0 0 0 -1 forward_v I I I I #
coedge $-1 $149 $150 $151 $152 reversed $59 $-1 #
face $-1 $153 $154 $35 $-1 $155 reversed single #
loop $-1 $-1 $156 $61 #
plane-surface $-1 0 13.66047226318468 -7.8166119253180586 0 1 0 0 0 1 forward_v I I I I #
coedge $-1 $157 $158 $159 $160 reversed $62 $-1 #
face $-1 $161 $162 $36 $-1 $163 reversed single #
loop $-1 $-1 $164 $64 #
plane-surface $-1 -54.143498031556149 -7.9687142701669771 3.9268344047464296 -0.70710678939079041 0 0.70710677298230451 0.70710677298230451 0 0.70710678939079041 forward_v I I I I #
coedge $-1 $165 $166 $167 $168 reversed $65 $-1 #
face $-1 $-1 $169 $37 $-1 $170 forward single #
loop $-1 $171 $172 $67 #
cone-surface $-1 -49.951235983808232 -9.341365375628417 6.2436245686436926 0.70710678939079041 0 -0.70710677298230451 0.17677669324557613 0 0.1767766973476976 1 I I -0.70710678118654746 0.70710678118654746 0.25 forward I I I I #
loop $-1 $-1 $173 $48 #
coedge $-1 $108 $108 $174 $175 reversed $68 $-1 #
face $-1 $-1 $176 $38 $-1 $177 forward single #
loop $-1 $178 $179 $70 #
cone-surface $-1 -49.951235983808232 -6.5960631647055372 6.2436245686436926 0.70710678939079041 0 -0.70710677298230451 0.17677669324557613 0 0.1767766973476976 1 I I -0.70710678118654746 0.70710678118654746 0.25 forward I I I I #
loop $-1 $-1 $180 $49 #
coedge $-1 $113 $113 $181 $182 reversed $71 $-1 #
face $-1 $183 $184 $39 $-1 $185 reversed single #
loop $-1 $-1 $186 $73 #
plane-surface $-1 -54.143498031556149 7.9687142701669806 3.9268344047464296 -0.70710678939079041 0 0.70710677298230451 0.70710677298230451 0 0.70710678939079041 forward_v I I I I #
coedge $-1 $187 $188 $189 $190 reversed $74 $-1 #
face $-1 $-1 $191 $40 $-1 $192 forward single #
loop $-1 $193 $194 $76 #
cone-surface $-1 -49.951235983808232 6.5960631647055372 6.2436245686436926 0.70710678939079041 0 -0.70710677298230451 0.17677669324557613 0 0.1767766973476976 1 I I -0.70710678118654746 0.70710678118654746 0.25 forward I I I I #
loop $-1 $-1 $195 $51 #
coedge $-1 $122 $122 $196 $197 reversed $77 $-1 #
face $-1 $-1 $198 $41 $-1 $199 forward single #
loop $-1 $200 $201 $79 #
cone-surface $-1 -49.951235983808232 9.341365375628417 6.2436245686436926 0.70710678939079041 0 -0.70710677298230451 0.17677669324557613 0 0.1767766973476976 1 I I -0.70710678118654746 0.70710678118654746 0.25 forward I I I I #
loop $-1 $-1 $202 $52 #
coedge $-1 $127 $127 $203 $204 reversed $80 $-1 #
face $-1 $205 $206 $42 $-1 $207 reversed single #
loop $-1 $-1 $208 $82 #
plane-surface $-1 -38.676573639224372 5.2710403876637457 63.187162574009264 0.51503808176128008 0 0.85716729658548041 0.85716729658548041 0 -0.51503808176128008 forward_v I I I I #
coedge $-1 $209 $210 $211 $212 reversed $83 $-1 #
face $-1 $-1 $213 $43 $-1 $214 forward single #
loop $-1 $215 $216 $85 #
cone-surface $-1 49.854830905848672 5.2710403876637457 5.971359425347547 -0.51503808176128008 0 -0.85716729658548041 0.4285836482927402 0 -0.25751904088064004 1 I I -0.70710678118654746 0.70710678118654746 0.5 forward I I I I #
loop $-1 $-1 $217 $54 #
coedge $-1 $136 $136 $218 $219 reversed $86 $-1 #
face $-1 $220 $221 $33 $-1 $222 reversed single #
loop $-1 $-1 $223 $88 #
plane-surface $-1 0 -23.584733912290016 0 0 1 0 0 0 1 forward_v I I I I #
coedge $-1 $224 $225 $226 $227 forward $89 $-1 #
coedge $-1 $228 $91 $229 $230 forward $56 $-1 #
coedge $-1 $91 $228 $231 $232 forward $56 $-1 #
coedge $-1 $233 $234 $91 $144 reversed $235 $-1 #
edge $-1 $236 -23.584733912290016 $237 23.584733912290016 $143 $238 forward 7 unknown #
face $-1 $239 $240 $34 $-1 $241 reversed single #
loop $-1 $-1 $242 $92 #
plane-surface $-1 0 0 -10.43588667015295 0 0 1 1 0 0 forward_v I I I I #
coedge $-1 $243 $244 $245 $246 reversed $93 $-1 #
coedge $-1 $247 $95 $244 $248 forward $59 $-1 #
coedge $-1 $95 $247 $249 $250 reversed $59 $-1 #
coedge $-1 $251 $245 $95 $152 forward $240 $-1 #
edge $-1 $252 4.3491707193160032 $253 14.273432368421343 $151 $254 forward 7 unknown #
face $-1 $255 $256 $35 $-1 $257 reversed single #
loop $-1 $-1 $159 $96 #
plane-surface $-1 54.143498031556135 0 0 -1 0 0 0 0 1 forward_v I I I I #
coedge $-1 $258 $259 $260 $261 reversed $97 $-1 #
coedge $-1 $262 $99 $263 $264 reversed $62 $-1 #
coedge $-1 $99 $262 $259 $265 forward $62 $-1 #
coedge $-1 $266 $267 $99 $160 forward $154 $-1 #
edge $-1 $268 -14.273432368421345 $269 -4.349170719316005 $159 $270 forward 7 unknown #
face $-1 $271 $272 $36 $-1 $273 reversed single #
loop $-1 $-1 $274 $100 #
plane-surface $-1 -130.71396815051662 -11.171566849577001 80.49730274688126 0 1 0 -0.70710678939079041 0 0.70710677298230451 forward_v I I I I #
coedge $-1 $275 $276 $277 $278 reversed $101 $-1 #
coedge $-1 $166 $103 $279 $280 reversed $65 $-1 #
coedge $-1 $103 $165 $275 $281 reversed $65 $-1 #
coedge $-1 $277 $282 $103 $168 forward $272 $-1 #
edge $-1 $283 29.81276470328768 $284 36.321816968694186 $167 $285 forward 7 unknown #
loop $-1 $-1 $174 $104 #
plane-surface $-1 -54.143498031556149 -7.9687142701669771 3.9268344047464296 -0.70710678939079041 0 0.70710677298230451 0.70710677298230451 0 0.70710678939079041 forward_v I I I I #
loop $-1 $-1 $286 $67 #
coedge $-1 $172 $172 $173 $287 reversed $105 $-1 #
coedge $-1 $173 $173 $172 $287 forward $107 $-1 #
coedge $-1 $174 $174 $108 $175 forward $169 $-1 #
edge $-1 $288 0 $288 6.2831853071796004 $174 $289 forward 7 unknown #
loop $-1 $-1 $181 $109 #
plane-surface $-1 -54.143498031556149 -7.9687142701669771 3.9268344047464296 -0.70710678939079041 0 0.70710677298230451 0.70710677298230451 0 0.70710678939079041 forward_v I I I I #
loop $-1 $-1 $290 $70 #
coedge $-1 $179 $179 $180 $291 reversed $110 $-1 #
coedge $-1 $180 $180 $179 $291 forward $112 $-1 #
coedge $-1 $181 $181 $113 $182 forward $176 $-1 #
edge $-1 $292 0 $292 6.2831853071796004 $181 $293 forward 7 unknown #
face $-1 $294 $295 $39 $-1 $296 forward single #
loop $-1 $-1 $297 $114 #
plane-surface $-1 -130.71396815051662 4.7658616907569558 80.49730274688126 0 1 0 -0.70710678939079041 0 0.70710677298230451 forward_v I I I I #
coedge $-1 $298 $299 $300 $301 reversed $115 $-1 #
coedge $-1 $188 $117 $302 $303 reversed $74 $-1 #
coedge $-1 $117 $187 $298 $304 reversed $74 $-1 #
coedge $-1 $300 $305 $117 $190 forward $306 $-1 #
edge $-1 $307 29.81276470328768 $308 36.321816968694186 $189 $309 forward 7 unknown #
loop $-1 $-1 $196 $118 #
plane-surface $-1 -54.143498031556149 7.9687142701669806 3.9268344047464296 -0.70710678939079041 0 0.70710677298230451 0.70710677298230451 0 0.70710678939079041 forward_v I I I I #
loop $-1 $-1 $310 $76 #
coedge $-1 $194 $194 $195 $311 reversed $119 $-1 #
coedge $-1 $195 $195 $194 $311 forward $121 $-1 #
coedge $-1 $196 $196 $122 $197 forward $191 $-1 #
edge $-1 $312 0 $312 6.2831853071796004 $196 $313 forward 7 unknown #
loop $-1 $-1 $203 $123 #
plane-surface $-1 -54.143498031556149 7.9687142701669806 3.9268344047464296 -0.70710678939079041 0 0.70710677298230451 0.70710677298230451 0 0.70710678939079041 forward_v I I I I #
loop $-1 $-1 $314 $79 #
coedge $-1 $201 $201 $202 $315 reversed $124 $-1 #
coedge $-1 $202 $202 $201 $315 forward $126 $-1 #
coedge $-1 $203 $203 $127 $204 forward $198 $-1 #
edge $-1 $316 0 $316 6.2831853071796004 $203 $317 forward 7 unknown #
face $-1 $318 $319 $42 $-1 $320 forward single #
loop $-1 $-1 $321 $128 #
plane-surface $-1 17.09535309281226 1.2511865886497411 156.00723424478977 0 1 0 0.51503808176128008 0 0.85716729658548041 forward_v I I I I #
coedge $-1 $322 $323 $324 $325 reversed $129 $-1 #
coedge $-1 $210 $131 $326 $327 reversed $83 $-1 #
coedge $-1 $131 $209 $322 $328 reversed $83 $-1 #
coedge $-1 $324 $329 $131 $212 forward $319 $-1 #
edge $-1 $330 -45.595821485150005 $331 -40.568614379481822 $211 $332 forward 7 unknown #
loop $-1 $-1 $218 $132 #
plane-surface $-1 -38.676573639224372 5.2710403876637457 63.187162574009264 0.51503808176128008 0 0.85716729658548041 0.85716729658548041 0 -0.51503808176128008 forward_v I I I I #
loop $-1 $-1 $333 $85 #
coedge $-1 $216 $216 $217 $334 reversed $133 $-1 #
coedge $-1 $217 $217 $216 $334 forward $135 $-1 #
coedge $-1 $218 $218 $136 $219 forward $213 $-1 #
edge $-1 $335 0 $335 6.2831853071796004 $218 $336 forward 7 unknown #
face $-1 $337 $338 $33 $-1 $339 reversed single #
loop $-1 $-1 $340 $137 #
plane-surface $-1 -54.143498031556135 0 0 1 0 0 0 0 -1 forward_v I I I I #
coedge $-1 $341 $231 $342 $343 forward $138 $-1 #
coedge $-1 $344 $140 $341 $345 forward $89 $-1 #
coedge $-1 $140 $344 $346 $347 forward $89 $-1 #
coedge $-1 $234 $233 $140 $227 reversed $235 $-1 #
edge $-1 $348 -23.584733912290016 $349 23.584733912290016 $226 $350 forward 7 unknown #
coedge $-1 $142 $141 $351 $352 forward $56 $-1 #
coedge $-1 $353 $354 $141 $230 reversed $338 $-1 #
edge $-1 $237 -54.143498031556135 $355 54.143498031556135 $229 $356 forward 7 unknown #
coedge $-1 $223 $357 $142 $232 reversed $138 $-1 #
edge $-1 $358 -54.143498031556135 $236 54.143498031556135 $231 $359 forward 7 unknown #
coedge $-1 $226 $143 $357 $360 forward $235 $-1 #
coedge $-1 $143 $226 $353 $361 reversed $235 $-1 #
loop $-1 $-1 $233 $337 #
vertex $-1 $144 $362 #
vertex $-1 $144 $363 #
straight-curve $-1 54.143498031556135 0 10.43588667015295 0 1 0 I I #
face $-1 $364 $365 $34 $-1 $366 reversed single #
loop $-1 $-1 $245 $145 #
plane-surface $-1 54.143498031556135 0 0 -1 0 0 0 0 1 forward_v I I I I #
coedge $-1 $367 $368 $243 $369 forward $146 $-1 #
coedge $-1 $370 $148 $242 $369 reversed $93 $-1 #
coedge $-1 $148 $370 $149 $248 reversed $93 $-1 #
coedge $-1 $151 $371 $148 $246 forward $240 $-1 #
edge $-1 $372 -6.5275807074939207 $252 -1.2890312178241379 $245 $373 forward 7 unknown #
coedge $-1 $150 $149 $374 $375 reversed $59 $-1 #
edge $-1 $252 -54.143498031556135 $376 54.143498031556135 $244 $377 forward 7 unknown #
coedge $-1 $378 $379 $150 $250 forward $365 $-1 #
edge $-1 $253 -54.143498031556135 $380 54.143498031556135 $249 $381 forward 7 unknown #
coedge $-1 $371 $151 $379 $382 forward $240 $-1 #
vertex $-1 $152 $383 #
vertex $-1 $382 $384 #
straight-curve $-1 54.143498031556135 -9.311301543868673 -5.1973371804831672 0 -1 0 I I #
face $-1 $385 $386 $35 $-1 $387 reversed single #
loop $-1 $-1 $388 $153 #
plane-surface $-1 0 0 -10.43588667015295 0 0 1 1 0 0 forward_v I I I I #
coedge $-1 $389 $156 $388 $390 reversed $97 $-1 #
coedge $-1 $156 $389 $158 $265 reversed $97 $-1 #
coedge $-1 $391 $392 $156 $261 forward $386 $-1 #
edge $-1 $393 -6.5275807074939207 $394 -1.2890312178241379 $260 $395 forward 7 unknown #
coedge $-1 $158 $157 $391 $396 reversed $62 $-1 #
coedge $-1 $397 $398 $157 $264 forward $399 $-1 #
edge $-1 $400 -54.143498031556135 $268 54.143498031556135 $263 $401 forward 7 unknown #
edge $-1 $394 -54.143498031556135 $269 54.143498031556135 $259 $402 forward 7 unknown #
coedge $-1 $403 $159 $389 $404 forward $154 $-1 #
coedge $-1 $159 $403 $397 $405 reversed $154 $-1 #
vertex $-1 $405 $406 #
vertex $-1 $160 $407 #
straight-curve $-1 54.143498031556135 9.3113015438686748 -5.1973371804831672 0 -1 0 I I #
face $-1 $-1 $408 $36 $-1 $409 forward single #
loop $-1 $-1 $167 $161 #
plane-surface $-1 -54.143498031556135 0 0 1 0 0 0 0 -1 forward_v I I I I #
coedge $-1 $410 $411 $412 $413 reversed $162 $-1 #
coedge $-1 $414 $164 $166 $281 forward $101 $-1 #
coedge $-1 $164 $414 $410 $415 forward $101 $-1 #
coedge $-1 $412 $167 $164 $278 forward $272 $-1 #
edge $-1 $284 0.78150455567346366 $416 7.1872097144935125 $277 $417 forward 7 unknown #
coedge $-1 $418 $419 $165 $280 forward $408 $-1 #
edge $-1 $420 -17.722538158065454 $283 -11.213486043702176 $279 $421 forward 7 unknown #
edge $-1 $284 2.0097183471152325e-014 $420 9.2051898851295331 $166 $422 forward 7 unknown #
coedge $-1 $167 $412 $418 $423 reversed $272 $-1 #
vertex $-1 $423 $424 #
vertex $-1 $168 $425 #
straight-curve $-1 -54.143498031556135 -4.7658616907569522 40.24865137344063 0 0 -1 I I #
coedge $-1 $286 $286 $-1 $426 reversed $171 $-1 #
edge $-1 $427 0 $427 6.2831853071796004 $172 $428 forward 7 unknown #
vertex $-1 $175 $429 #
ellipse-curve $-1 -50.888971974374492 -9.341365375628417 7.1813605374496978 -0.70710678939079041 0 0.70710677298230451 0.35355338649115226 0 0.35355339469539521 1 I I #
coedge $-1 $290 $290 $-1 $430 reversed $178 $-1 #
edge $-1 $431 0 $431 6.2831853071796004 $179 $432 forward 7 unknown #
vertex $-1 $182 $433 #
ellipse-curve $-1 -50.888971974374492 -6.5960631647055372 7.1813605374496978 -0.70710678939079041 0 0.70710677298230451 0.35355338649115226 0 0.35355339469539521 1 I I #
face $-1 $-1 $306 $39 $-1 $434 reversed single #
loop $-1 $-1 $435 $183 #
plane-surface $-1 0 0 10.43588667015295 0 0 1 1 0 0 forward_v I I I I #
coedge $-1 $436 $437 $438 $439 reversed $184 $-1 #
coedge $-1 $440 $186 $188 $304 forward $115 $-1 #
coedge $-1 $186 $440 $436 $441 forward $115 $-1 #
coedge $-1 $438 $189 $186 $301 forward $306 $-1 #
edge $-1 $308 -7.1872097144935143 $442 -0.78150455567346544 $300 $443 forward 7 unknown #
coedge $-1 $444 $445 $187 $303 forward $295 $-1 #
edge $-1 $446 -17.722538158065454 $307 -11.213486043702176 $302 $447 forward 7 unknown #
edge $-1 $308 2.0097183471152325e-014 $446 9.2051898851295331 $188 $448 forward 7 unknown #
coedge $-1 $189 $438 $444 $449 reversed $306 $-1 #
loop $-1 $-1 $438 $294 #
vertex $-1 $449 $450 #
vertex $-1 $190 $451 #
straight-curve $-1 -54.143498031556135 11.171566849577005 40.24865137344063 0 0 -1 I I #
coedge $-1 $310 $310 $-1 $452 reversed $193 $-1 #
edge $-1 $453 0 $453 6.2831853071796004 $194 $454 forward 7 unknown #
vertex $-1 $197 $455 #
ellipse-curve $-1 -50.888971974374492 6.5960631647055372 7.1813605374496978 -0.70710678939079041 0 0.70710677298230451 0.35355338649115226 0 0.35355339469539521 1 I I #
coedge $-1 $314 $314 $-1 $456 reversed $200 $-1 #
edge $-1 $457 0 $457 6.2831853071796004 $201 $458 forward 7 unknown #
vertex $-1 $204 $459 #
ellipse-curve $-1 -50.888971974374492 9.341365375628417 7.1813605374496978 -0.70710678939079041 0 0.70710677298230451 0.35355338649115226 0 0.35355339469539521 1 I I #
face $-1 $-1 $460 $42 $-1 $461 reversed single #
loop $-1 $-1 $211 $205 #
plane-surface $-1 0 0 10.43588667015295 0 0 1 1 0 0 forward_v I I I I #
coedge $-1 $462 $463 $464 $465 reversed $206 $-1 #
coedge $-1 $466 $208 $210 $328 forward $129 $-1 #
coedge $-1 $208 $466 $462 $467 forward $129 $-1 #
coedge $-1 $464 $211 $208 $325 forward $319 $-1 #
edge $-1 $331 -6.6553739928458775 $468 1.3843336051821318 $324 $469 forward 7 unknown #
coedge $-1 $470 $471 $209 $327 forward $460 $-1 #
edge $-1 $472 -70.588381280422254 $330 -67.567730452241932 $326 $473 forward 7 unknown #
edge $-1 $331 102.42208833075473 $472 108.28699606311227 $210 $474 forward 7 unknown #
coedge $-1 $211 $464 $470 $475 forward $319 $-1 #
vertex $-1 $212 $476 #
vertex $-1 $212 $477 #
straight-curve $-1 8.5476765464061302 9.2908941866777504 10.435886670152954 -1 0 0 I I #
coedge $-1 $333 $333 $-1 $478 reversed $215 $-1 #
edge $-1 $479 0 $479 6.2831853071796004 $216 $480 forward 7 unknown #
vertex $-1 $219 $481 #
ellipse-curve $-1 51.629894478722051 5.2710403876637457 8.9255612560627853 0.51503808176128008 0 0.85716729658548041 0.85716729658548041 0 -0.51503808176128008 1 I I #
face $-1 $-1 $235 $33 $-1 $482 reversed single #
loop $-1 $-1 $353 $220 #
plane-surface $-1 0 23.584733912290016 0 0 -1 0 0 0 -1 forward_v I I I I #
coedge $-1 $483 $351 $354 $484 forward $221 $-1 #
coedge $-1 $357 $223 $224 $345 reversed $138 $-1 #
coedge $-1 $351 $483 $223 $343 reversed $221 $-1 #
edge $-1 $358 -10.43588667015295 $485 10.43588667015295 $342 $486 forward 7 unknown #
coedge $-1 $225 $224 $483 $487 forward $89 $-1 #
edge $-1 $349 -54.143498031556135 $485 54.143498031556135 $341 $488 forward 7 unknown #
coedge $-1 $354 $353 $225 $347 reversed $338 $-1 #
edge $-1 $489 -54.143498031556135 $348 54.143498031556135 $346 $490 forward 7 unknown #
vertex $-1 $227 $491 #
vertex $-1 $360 $492 #
straight-curve $-1 54.143498031556135 0 -10.43588667015295 0 -1 0 I I #
coedge $-1 $340 $342 $228 $352 reversed $221 $-1 #
edge $-1 $355 -23.584733912290016 $358 23.584733912290016 $351 $493 forward 7 unknown #
coedge $-1 $346 $229 $234 $361 forward $338 $-1 #
coedge $-1 $229 $346 $340 $484 reversed $338 $-1 #
vertex $-1 $230 $494 #
straight-curve $-1 0 23.584733912290016 10.43588667015295 -1 0 0 I I #
coedge $-1 $231 $341 $233 $360 reversed $138 $-1 #
vertex $-1 $352 $495 #
straight-curve $-1 0 -23.584733912290016 10.43588667015295 1 0 0 I I #
edge $-1 $236 -10.43588667015295 $349 10.43588667015295 $233 $496 forward 7 unknown #
edge $-1 $237 -10.43588667015295 $348 10.43588667015295 $234 $497 forward 7 unknown #
point $-1 54.143498031556135 -23.584733912290016 10.43588667015295 #
point $-1 54.143498031556135 23.584733912290016 10.43588667015295 #
face $-1 $-1 $498 $34 $-1 $499 reversed single #
loop $-1 $-1 $249 $239 #
plane-surface $-1 0 -23.584733912290016 0 0 1 0 0 0 1 forward_v I I I I #
coedge $-1 $500 $242 $371 $501 forward $146 $-1 #
coedge $-1 $242 $500 $502 $503 forward $146 $-1 #
edge $-1 $504 -54.143498031556135 $372 54.143498031556135 $242 $505 forward 7 unknown #
coedge $-1 $244 $243 $506 $507 reversed $93 $-1 #
coedge $-1 $245 $251 $367 $501 reversed $240 $-1 #
vertex $-1 $501 $508 #
straight-curve $-1 54.143498031556135 -13.660472263184676 -3.9083059626590293 0 0 1 I I #
coedge $-1 $506 $509 $247 $375 forward $498 $-1 #
edge $-1 $380 -14.273432368421343 $376 -4.3491707193160032 $374 $510 forward 7 unknown #
vertex $-1 $375 $511 #
straight-curve $-1 0 -13.660472263184676 -5.1973371804831672 -1 0 0 I I #
coedge $-1 $512 $249 $509 $513 forward $365 $-1 #
coedge $-1 $249 $512 $251 $382 reversed $365 $-1 #
vertex $-1 $513 $514 #
straight-curve $-1 0 -23.584733912290016 -5.1973371804831672 -1 0 0 I I #
edge $-1 $253 5.1973371804831672 $515 10.43588667015295 $251 $516 forward 7 unknown #
point $-1 54.143498031556135 -13.660472263184676 -5.1973371804831672 #
point $-1 54.143498031556135 -23.584733912290016 -5.1973371804831672 #
face $-1 $-1 $399 $35 $-1 $517 reversed single #
loop $-1 $-1 $391 $255 #
plane-surface $-1 -54.143498031556135 0 0 1 0 0 0 0 -1 forward_v I I I I #
coedge $-1 $518 $519 $258 $390 forward $256 $-1 #
coedge $-1 $259 $258 $266 $404 reversed $97 $-1 #
edge $-1 $520 -54.143498031556135 $393 54.143498031556135 $388 $521 forward 7 unknown #
coedge $-1 $522 $260 $262 $396 forward $386 $-1 #
coedge $-1 $260 $522 $518 $523 reversed $386 $-1 #
vertex $-1 $523 $524 #
vertex $-1 $396 $525 #
straight-curve $-1 -54.143498031556135 13.66047226318468 -3.9083059626590293 0 0 1 I I #
edge $-1 $394 4.349170719316005 $400 14.273432368421345 $391 $526 forward 7 unknown #
coedge $-1 $527 $263 $267 $405 forward $399 $-1 #
coedge $-1 $263 $527 $522 $528 reversed $399 $-1 #
loop $-1 $-1 $263 $385 #
vertex $-1 $528 $529 #
straight-curve $-1 0 23.584733912290016 -5.1973371804831672 1 0 0 I I #
straight-curve $-1 0 13.66047226318468 -5.1973371804831672 1 0 0 I I #
coedge $-1 $267 $266 $519 $530 reversed $154 $-1 #
edge $-1 $269 1.2890312178241379 $520 6.5275807074939207 $266 $531 forward 7 unknown #
edge $-1 $268 5.1973371804831672 $532 10.43588667015295 $267 $533 forward 7 unknown #
point $-1 54.143498031556135 23.584733912290019 -5.1973371804831672 #
point $-1 54.143498031556135 13.66047226318468 -5.1973371804831672 #
loop $-1 $-1 $279 $271 #
plane-surface $-1 0 0 10.43588667015295 0 0 1 1 0 0 forward_v I I I I #
coedge $-1 $411 $274 $276 $415 reversed $162 $-1 #
coedge $-1 $274 $410 $534 $535 reversed $162 $-1 #
coedge $-1 $282 $277 $274 $413 forward $272 $-1 #
edge $-1 $416 -36.321816968694186 $536 -29.81276470328768 $412 $537 forward 7 unknown #
coedge $-1 $276 $275 $419 $538 reversed $101 $-1 #
edge $-1 $539 -9.2051898851295331 $416 -2.0097183471152325e-014 $410 $540 forward 7 unknown #
vertex $-1 $278 $541 #
straight-curve $-1 -54.143498031556135 -3.9843571350834885 3.9268344047464443 0 -1 0 I I #
coedge $-1 $534 $279 $282 $423 forward $408 $-1 #
coedge $-1 $279 $534 $414 $538 forward $408 $-1 #
vertex $-1 $280 $542 #
straight-curve $-1 -65.35698407525831 -4.7658616907569522 10.435886670152954 -1 0 0 I I #
straight-curve $-1 -54.143498031556149 -4.7658616907569522 3.9268344047464296 0.70710677298230451 0 0.70710678939079041 I I #
edge $-1 $283 4.7658616907569522 $536 11.171566849577001 $282 $543 forward 7 unknown #
point $-1 -54.143498031556135 -4.7658616907569522 10.43588667015295 #
point $-1 -54.143498031556135 -4.7658616907569522 3.9268344047464439 #
edge $-1 $544 1 $544 0 $286 $-1 forward 7 unknown #
vertex $-1 $287 $545 #
ellipse-curve $-1 -50.12801268115593 -9.341365375628417 6.4204012618892685 -0.70710678939079041 0 0.70710677298230451 0.35355338649115226 0 0.35355339469539521 1 I I #
point $-1 -50.535418587883342 -9.341365375628417 7.5349139321450913 #
edge $-1 $546 1 $546 0 $290 $-1 forward 7 unknown #
vertex $-1 $291 $547 #
ellipse-curve $-1 -50.12801268115593 -6.5960631647055372 6.4204012618892685 -0.70710678939079041 0 0.70710677298230451 0.35355338649115226 0 0.35355339469539521 1 I I #
point $-1 -50.535418587883342 -6.5960631647055372 7.5349139321450913 #
plane-surface $-1 -54.143498031556135 0 0 1 0 0 0 0 -1 forward_v I I I I #
coedge $-1 $445 $444 $437 $548 forward $295 $-1 #
coedge $-1 $437 $297 $299 $441 reversed $184 $-1 #
coedge $-1 $297 $436 $435 $548 reversed $184 $-1 #
coedge $-1 $305 $300 $297 $439 forward $306 $-1 #
edge $-1 $442 -36.321816968694186 $549 -29.81276470328768 $438 $550 forward 7 unknown #
coedge $-1 $299 $298 $445 $551 reversed $115 $-1 #
edge $-1 $552 -9.2051898851295331 $442 -2.0097183471152325e-014 $436 $553 forward 7 unknown #
vertex $-1 $301 $554 #
straight-curve $-1 -54.143498031556135 3.9843571350834903 3.9268344047464443 0 -1 0 I I #
coedge $-1 $435 $302 $305 $449 forward $295 $-1 #
coedge $-1 $302 $435 $440 $551 forward $295 $-1 #
vertex $-1 $303 $555 #
straight-curve $-1 -65.35698407525831 11.171566849577005 10.435886670152954 -1 0 0 I I #
straight-curve $-1 -54.143498031556149 11.171566849577005 3.9268344047464296 0.70710677298230451 0 0.70710678939079041 I I #
edge $-1 $307 -11.171566849577005 $549 -4.7658616907569558 $305 $556 forward 7 unknown #
point $-1 -54.143498031556135 11.171566849577005 10.43588667015295 #
point $-1 -54.143498031556135 11.171566849577005 3.9268344047464439 #
edge $-1 $557 1 $557 0 $310 $-1 forward 7 unknown #
vertex $-1 $311 $558 #
ellipse-curve $-1 -50.12801268115593 6.5960631647055372 6.4204012618892685 -0.70710678939079041 0 0.70710677298230451 0.35355338649115226 0 0.35355339469539521 1 I I #
point $-1 -50.535418587883342 6.5960631647055372 7.5349139321450913 #
edge $-1 $559 1 $559 0 $314 $-1 forward 7 unknown #
vertex $-1 $315 $560 #
ellipse-curve $-1 -50.12801268115593 9.341365375628417 6.4204012618892685 -0.70710678939079041 0 0.70710677298230451 0.35355338649115226 0 0.35355339469539521 1 I I #
point $-1 -50.535418587883342 9.341365375628417 7.5349139321450913 #
loop $-1 $-1 $326 $318 #
plane-surface $-1 54.143498031556135 0 0 -1 0 0 0 0 1 forward_v I I I I #
coedge $-1 $463 $321 $323 $467 reversed $206 $-1 #
coedge $-1 $321 $462 $561 $562 reversed $206 $-1 #
coedge $-1 $329 $324 $321 $465 forward $319 $-1 #
edge $-1 $468 40.568614379481822 $563 45.595821485150005 $464 $564 forward 7 unknown #
coedge $-1 $323 $322 $471 $565 reversed $129 $-1 #
edge $-1 $566 -108.28699606311227 $468 -102.42208833075473 $462 $567 forward 7 unknown #
vertex $-1 $325 $568 #
straight-curve $-1 49.116290925887952 2.6355201938318729 10.435886670152954 0 -1 0 I I #
coedge $-1 $561 $326 $329 $475 reversed $460 $-1 #
coedge $-1 $326 $561 $466 $565 forward $460 $-1 #
vertex $-1 $327 $569 #
straight-curve $-1 54.143498031556135 9.2908941866777504 78.003617122394886 0 0 1 I I #
straight-curve $-1 -38.676573639224372 9.2908941866777504 63.187162574009264 0.85716729658548041 0 -0.51503808176128008 I I #
edge $-1 $563 1.2511865886497411 $330 9.2908941866777504 $470 $570 forward 7 unknown #
point $-1 54.143498031556135 9.2908941866777504 10.43588667015295 #
point $-1 49.116290925887952 9.2908941866777504 10.435886670152954 #
edge $-1 $571 1 $571 0 $333 $-1 forward 7 unknown #
vertex $-1 $334 $572 #
ellipse-curve $-1 50.11234994672931 5.2710403876637457 6.3999430736402871 0.51503808176128008 0 0.85716729658548041 0.85716729658548041 0 -0.51503808176128008 1 I I #
point $-1 52.487061775307538 5.2710403876637457 8.4105231743015167 #
plane-surface $-1 54.143498031556135 0 0 -1 0 0 0 0 1 forward_v I I I I #
coedge $-1 $342 $340 $344 $487 reversed $221 $-1 #
edge $-1 $355 -10.43588667015295 $489 10.43588667015295 $354 $573 forward 7 unknown #
vertex $-1 $487 $574 #
straight-curve $-1 -54.143498031556135 -23.584733912290016 0 0 0 -1 I I #
edge $-1 $485 -23.584733912290016 $489 23.584733912290016 $483 $575 forward 7 unknown #
straight-curve $-1 0 -23.584733912290016 -10.43588667015295 -1 0 0 I I #
vertex $-1 $347 $576 #
straight-curve $-1 0 23.584733912290016 -10.43588667015295 1 0 0 I I #
point $-1 54.143498031556135 23.584733912290016 -10.43588667015295 #
point $-1 54.143498031556135 -23.584733912290016 -10.43588667015295 #
straight-curve $-1 -54.143498031556135 0 10.43588667015295 0 -1 0 I I #
point $-1 -54.143498031556135 23.584733912290016 10.43588667015295 #
point $-1 -54.143498031556135 -23.584733912290016 10.43588667015295 #
straight-curve $-1 54.143498031556135 -23.584733912290016 0 0 0 -1 I I #
straight-curve $-1 54.143498031556135 23.584733912290016 0 0 0 -1 I I #
loop $-1 $-1 $506 $364 #
plane-surface $-1 -54.143498031556135 0 0 1 0 0 0 0 -1 forward_v I I I I #
coedge $-1 $368 $367 $512 $577 forward $146 $-1 #
edge $-1 $372 13.660472263184676 $515 23.584733912290016 $371 $578 forward 7 unknown #
coedge $-1 $509 $506 $368 $503 reversed $498 $-1 #
edge $-1 $579 -23.584733912290016 $504 -13.660472263184676 $502 $580 forward 7 unknown #
vertex $-1 $507 $581 #
straight-curve $-1 0 -13.660472263184676 -10.43588667015295 1 0 0 I I #
coedge $-1 $502 $374 $370 $507 forward $498 $-1 #
edge $-1 $376 1.2890312178241379 $504 6.5275807074939207 $506 $582 forward 7 unknown #
point $-1 54.143498031556135 -13.660472263184676 -10.43588667015295 #
coedge $-1 $374 $502 $378 $513 reversed $498 $-1 #
straight-curve $-1 -54.143498031556135 -9.311301543868673 -5.1973371804831672 0 1 0 I I #
point $-1 -54.143498031556135 -13.660472263184676 -5.1973371804831672 #
coedge $-1 $379 $378 $500 $577 reversed $365 $-1 #
edge $-1 $380 5.1973371804831672 $579 10.43588667015295 $509 $583 forward 7 unknown #
point $-1 -54.143498031556135 -23.584733912290016 -5.1973371804831672 #
vertex $-1 $382 $584 #
straight-curve $-1 54.143498031556135 -23.584733912290016 0 0 0 -1 I I #
plane-surface $-1 0 23.584733912290016 0 0 -1 0 0 0 -1 forward_v I I I I #
coedge $-1 $585 $388 $392 $523 forward $256 $-1 #
coedge $-1 $388 $585 $403 $530 forward $256 $-1 #
vertex $-1 $390 $586 #
straight-curve $-1 0 13.66047226318468 -10.43588667015295 -1 0 0 I I #
coedge $-1 $392 $391 $398 $528 forward $386 $-1 #
edge $-1 $393 13.66047226318468 $587 23.584733912290016 $392 $588 forward 7 unknown #
point $-1 -54.143498031556135 13.66047226318468 -10.43588667015295 #
point $-1 -54.143498031556135 13.66047226318468 -5.1973371804831672 #
straight-curve $-1 -54.143498031556135 9.3113015438686748 -5.1973371804831672 0 1 0 I I #
coedge $-1 $398 $397 $585 $589 reversed $399 $-1 #
edge $-1 $400 5.1973371804831672 $587 10.43588667015295 $398 $590 forward 7 unknown #
point $-1 -54.143498031556135 23.584733912290019 -5.1973371804831672 #
edge $-1 $532 -23.584733912290016 $520 -13.66047226318468 $403 $591 forward 7 unknown #
straight-curve $-1 54.143498031556135 13.66047226318468 -3.9083059626590293 0 0 -1 I I #
vertex $-1 $530 $592 #
straight-curve $-1 54.143498031556135 23.584733912290016 0 0 0 -1 I I #
coedge $-1 $419 $418 $411 $535 forward $408 $-1 #
edge $-1 $536 11.213486043702176 $539 17.722538158065454 $534 $593 forward 7 unknown #
vertex $-1 $535 $594 #
straight-curve $-1 -54.143498031556135 -11.171566849577001 40.24865137344063 0 0 1 I I #
edge $-1 $539 -7.1872097144935125 $420 -0.78150455567346366 $419 $595 forward 7 unknown #
vertex $-1 $538 $596 #
straight-curve $-1 -54.143498031556149 -11.171566849577001 3.9268344047464296 -0.70710677298230451 0 -0.70710678939079041 I I #
point $-1 -54.143498031556135 -11.171566849577001 3.9268344047464439 #
point $-1 -47.634445917192856 -4.7658616907569522 10.43588667015295 #
straight-curve $-1 -54.143498031556135 0 10.43588667015295 0 -1 0 I I #
vertex $-1 $426 $597 #
point $-1 -49.77445929466478 -9.341365375628417 6.7739546565846638 #
vertex $-1 $430 $598 #
point $-1 -49.77445929466478 -6.5960631647055372 6.7739546565846638 #
edge $-1 $549 11.213486043702176 $552 17.722538158065454 $435 $599 forward 7 unknown #
vertex $-1 $548 $600 #
straight-curve $-1 -54.143498031556135 4.7658616907569558 40.24865137344063 0 0 1 I I #
edge $-1 $552 0.78150455567346544 $446 7.1872097144935143 $445 $601 forward 7 unknown #
vertex $-1 $551 $602 #
straight-curve $-1 -54.143498031556149 4.7658616907569558 3.9268344047464296 -0.70710677298230451 0 -0.70710678939079041 I I #
point $-1 -54.143498031556135 4.7658616907569558 3.9268344047464439 #
point $-1 -47.634445917192856 11.171566849577005 10.43588667015295 #
straight-curve $-1 -54.143498031556135 0 10.43588667015295 0 -1 0 I I #
vertex $-1 $452 $603 #
point $-1 -49.77445929466478 6.5960631647055372 6.7739546565846638 #
vertex $-1 $456 $604 #
point $-1 -49.77445929466478 9.341365375628417 6.7739546565846638 #
coedge $-1 $471 $470 $463 $562 forward $460 $-1 #
edge $-1 $563 67.567730452241932 $566 70.588381280422254 $561 $605 forward 7 unknown #
vertex $-1 $475 $606 #
straight-curve $-1 8.5476765464061302 1.2511865886497411 10.435886670152954 1 0 0 I I #
edge $-1 $566 -1.3843336051821318 $472 6.6553739928458775 $471 $607 forward 7 unknown #
vertex $-1 $565 $608 #
straight-curve $-1 -38.676573639224372 1.2511865886497411 63.187162574009264 -0.85716729658548041 0 0.51503808176128008 I I #
point $-1 49.116290925887952 1.2511865886497411 10.435886670152954 #
point $-1 54.143498031556135 9.2908941866777504 7.4152358419726312 #
straight-curve $-1 54.143498031556135 0 10.43588667015295 0 1 0 I I #
vertex $-1 $478 $609 #
point $-1 50.96951724331479 5.2710403876637457 5.8849049918790071 #
straight-curve $-1 -54.143498031556135 23.584733912290016 0 0 0 -1 I I #
point $-1 -54.143498031556135 -23.584733912290016 -10.43588667015295 #
straight-curve $-1 -54.143498031556135 0 -10.43588667015295 0 1 0 I I #
point $-1 -54.143498031556135 23.584733912290016 -10.43588667015295 #
edge $-1 $515 -54.143498031556135 $579 54.143498031556135 $512 $610 forward 7 unknown #
straight-curve $-1 54.143498031556135 0 -10.43588667015295 0 -1 0 I I #
vertex $-1 $503 $611 #
straight-curve $-1 -54.143498031556135 0 -10.43588667015295 0 1 0 I I #
point $-1 -54.143498031556135 -13.660472263184676 -10.43588667015295 #
straight-curve $-1 -54.143498031556135 -13.660472263184676 -3.9083059626590293 0 0 -1 I I #
straight-curve $-1 -54.143498031556135 -23.584733912290016 0 0 0 -1 I I #
point $-1 54.143498031556135 -23.584733912290016 -10.43588667015295 #
coedge $-1 $519 $518 $527 $589 forward $256 $-1 #
point $-1 54.143498031556135 13.66047226318468 -10.43588667015295 #
vertex $-1 $589 $612 #
straight-curve $-1 -54.143498031556135 0 -10.43588667015295 0 1 0 I I #
edge $-1 $587 -54.143498031556135 $532 54.143498031556135 $527 $613 forward 7 unknown #
straight-curve $-1 -54.143498031556135 23.584733912290016 0 0 0 -1 I I #
straight-curve $-1 54.143498031556135 0 -10.43588667015295 0 -1 0 I I #
point $-1 54.143498031556135 23.584733912290016 -10.43588667015295 #
straight-curve $-1 -65.35698407525831 -11.171566849577001 10.435886670152954 1 0 0 I I #
point $-1 -54.143498031556135 -11.171566849577001 10.43588667015295 #
straight-curve $-1 -47.634445917192856 -3.9843571350834885 10.435886670152948 0 1 0 I I #
point $-1 -47.634445917192856 -11.171566849577001 10.43588667015295 #
point $-1 -49.774459286460534 -9.341365375628417 6.0668478753981168 #
point $-1 -49.774459286460534 -6.5960631647055372 6.0668478753981168 #
straight-curve $-1 -65.35698407525831 4.7658616907569558 10.435886670152954 1 0 0 I I #
point $-1 -54.143498031556135 4.7658616907569558 10.43588667015295 #
straight-curve $-1 -47.634445917192856 3.9843571350834903 10.435886670152948 0 1 0 I I #
point $-1 -47.634445917192856 4.7658616907569558 10.43588667015295 #
point $-1 -49.774459286460534 6.5960631647055372 6.0668478753981168 #
point $-1 -49.774459286460534 9.341365375628417 6.0668478753981168 #
straight-curve $-1 54.143498031556135 1.2511865886497411 78.003617122394886 0 0 -1 I I #
point $-1 54.143498031556135 1.2511865886497411 10.43588667015295 #
straight-curve $-1 54.143498031556142 2.6355201938318729 7.4152358419726312 0 1 0 I I #
point $-1 54.143498031556135 1.2511865886497411 7.4152358419726312 #
point $-1 49.597311864968034 5.2710403876637457 5.542775777054807 #
straight-curve $-1 0 -23.584733912290016 -10.43588667015295 -1 0 0 I I #
point $-1 -54.143498031556135 -23.584733912290016 -10.43588667015295 #
point $-1 -54.143498031556135 23.584733912290016 -10.43588667015295 #
straight-curve $-1 0 23.584733912290016 -10.43588667015295 1 0 0 I I #
End-of-ACIS-data 