500 0 13 0           
7 Unknown 11 ACIS 5.0 NT 24 Fri Mar 26 17:08:53 1999 
-1 9.9999999999999995e-007 1e-010 
body $-1 $13 $-1 $14 #
body $-1 $15 $-1 $16 #
body $-1 $17 $-1 $18 #
body $-1 $19 $-1 $20 #
body $-1 $21 $-1 $22 #
body $-1 $23 $-1 $24 #
body $-1 $25 $-1 $26 #
body $-1 $27 $-1 $28 #
body $-1 $29 $-1 $30 #
body $-1 $31 $-1 $32 #
body $-1 $33 $-1 $34 #
body $-1 $35 $-1 $36 #
body $-1 $37 $-1 $38 #
lump $-1 $-1 $39 $0 #
transform $-1 1 0 0 0 1 0 0 0 1 60.103152562028868 32.573315046915411 12.382273473094081 1 rotate no_reflect no_shear #
lump $-1 $-1 $40 $1 #
transform $-1 1 0 0 0 1 0 0 0 1 60.103152562028868 32.573315046915411 12.382273473094081 1 rotate no_reflect no_shear #
lump $-1 $-1 $41 $2 #
transform $-1 1 0 0 0 1 0 0 0 1 60.103152562028868 32.573315046915411 12.382273473094081 1 rotate no_reflect no_shear #
lump $-1 $-1 $42 $3 #
transform $-1 1 0 0 0 1 0 0 0 1 60.103152562028868 32.573315046915411 12.382273473094081 1 rotate no_reflect no_shear #
lump $-1 $-1 $43 $4 #
transform $-1 1 0 0 0 1 0 0 0 1 60.103152562028868 32.573315046915411 12.382273473094081 1 rotate no_reflect no_shear #
lump $-1 $-1 $44 $5 #
transform $-1 1 0 0 0 1 0 0 0 1 60.103152562028868 32.573315046915411 12.382273473094081 1 rotate no_reflect no_shear #
lump $-1 $-1 $45 $6 #
transform $-1 1 0 0 0 1 0 0 0 1 60.103152562028868 32.573315046915411 12.382273473094081 1 rotate no_reflect no_shear #
lump $-1 $-1 $46 $7 #
transform $-1 1 0 0 0 1 0 0 0 1 60.103152562028868 32.573315046915411 12.382273473094081 1 rotate no_reflect no_shear #
lump $-1 $-1 $47 $8 #
transform $-1 1 0 0 0 1 0 0 0 1 60.103152562028868 32.573315046915411 12.382273473094081 1 rotate no_reflect no_shear #
lump $-1 $-1 $48 $9 #
transform $-1 1 0 0 0 1 0 0 0 1 60.103152562028868 32.573315046915411 12.382273473094081 1 rotate no_reflect no_shear #
lump $-1 $-1 $49 $10 #
transform $-1 1 0 0 0 1 0 0 0 1 60.103152562028868 32.573315046915411 12.382273473094081 1 rotate no_reflect no_shear #
lump $-1 $-1 $50 $11 #
transform $-1 1 0 0 0 1 0 0 0 1 60.103152562028868 32.573315046915411 12.382273473094081 1 rotate no_reflect no_shear #
lump $-1 $-1 $51 $12 #
transform $-1 1 0 0 0 1 0 0 0 1 60.103152562028868 32.573315046915411 12.382273473094081 1 rotate no_reflect no_shear #
shell $-1 $-1 $-1 $52 $-1 $13 #
shell $-1 $-1 $-1 $53 $-1 $15 #
shell $-1 $-1 $-1 $54 $-1 $17 #
shell $-1 $-1 $-1 $55 $-1 $19 #
shell $-1 $-1 $-1 $56 $-1 $21 #
shell $-1 $-1 $-1 $57 $-1 $23 #
shell $-1 $-1 $-1 $58 $-1 $25 #
shell $-1 $-1 $-1 $59 $-1 $27 #
shell $-1 $-1 $-1 $60 $-1 $29 #
shell $-1 $-1 $-1 $61 $-1 $31 #
shell $-1 $-1 $-1 $62 $-1 $33 #
shell $-1 $-1 $-1 $63 $-1 $35 #
shell $-1 $-1 $-1 $64 $-1 $37 #
face $-1 $65 $66 $39 $-1 $67 forward single #
face $-1 $68 $69 $40 $-1 $70 reversed single #
face $-1 $71 $72 $41 $-1 $73 reversed single #
face $-1 $74 $75 $42 $-1 $76 forward single #
face $-1 $77 $78 $43 $-1 $79 forward single #
face $-1 $80 $81 $44 $-1 $82 reversed single #
face $-1 $83 $84 $45 $-1 $85 forward single #
face $-1 $86 $87 $46 $-1 $88 reversed single #
face $-1 $89 $90 $47 $-1 $91 forward single #
face $-1 $92 $93 $48 $-1 $94 reversed single #
face $-1 $95 $96 $49 $-1 $97 forward single #
face $-1 $98 $99 $50 $-1 $100 reversed single #
face $-1 $101 $102 $51 $-1 $103 forward single #
face $-1 $104 $105 $39 $-1 $106 reversed single #
loop $-1 $-1 $107 $52 #
plane-surface $-1 0 0 12.382273473094081 0 0 1 1 0 0 forward_v I I I I #
face $-1 $108 $109 $40 $-1 $110 forward single #
loop $-1 $-1 $111 $53 #
plane-surface $-1 -50.832964964868722 0 6.652368796162424 -1 0 0 0 0 1 forward_v I I I I #
face $-1 $112 $113 $41 $-1 $114 reversed single #
loop $-1 $-1 $115 $54 #
plane-surface $-1 -43.593018051040971 -32.573315046915411 1.9590903989656994 0 -0.86602541151947299 0.49999998660252726 1 0 0 forward_v I I I I #
face $-1 $116 $117 $42 $-1 $118 forward single #
loop $-1 $119 $120 $55 #
cone-surface $-1 -46.695852442681435 -27.987044201616786 6.2599943784132313 0 0.86602541151947299 -0.49999998660252726 1 0 0 1 I I 0 1 1 forward I I I I #
face $-1 $121 $122 $43 $-1 $123 forward single #
loop $-1 $124 $125 $56 #
cone-surface $-1 -40.4901836594005 -27.987044201616786 6.2599943784132313 0 0.86602541151947299 -0.49999998660252726 1 0 0 1 I I 0 1 1 forward I I I I #
face $-1 $126 $127 $44 $-1 $128 reversed single #
loop $-1 $-1 $129 $57 #
plane-surface $-1 -43.72975417111963 -18.762929635293361 40.938922937537896 0 0.61566148304635926 0.78801074757464917 1 0 0 forward_v I I I I #
face $-1 $130 $131 $45 $-1 $132 forward single #
loop $-1 $133 $134 $58 #
cone-surface $-1 -43.72975417111963 23.884769964241308 4.9478572918006414 0 -0.61566148304635926 -0.78801074757464917 2 0 0 1 I I 0 1 2 forward I I I I #
face $-1 $135 $136 $46 $-1 $137 reversed single #
loop $-1 $-1 $138 $59 #
plane-surface $-1 -8.892513995646139 55.243462448907195 135.66278330153301 -1 0 0 0 0.61566148304635926 0.78801074757464917 forward_v I I I I #
face $-1 $139 $140 $47 $-1 $141 forward single #
loop $-1 $142 $143 $60 #
cone-surface $-1 -15.995724789395233 23.884769964241308 4.9478572918006414 0 -0.61566148304635926 -0.78801074757464917 2 0 0 1 I I 0 1 2 forward I I I I #
face $-1 $144 $145 $48 $-1 $146 reversed single #
loop $-1 $-1 $147 $61 #
plane-surface $-1 18.841515386078264 55.243462448907195 135.66278330153301 -1 0 0 0 0.61566148304635926 0.78801074757464917 forward_v I I I I #
face $-1 $148 $149 $49 $-1 $150 forward single #
loop $-1 $151 $152 $62 #
cone-surface $-1 11.738304592329172 23.884769964241308 4.9478572918006414 0 -0.61566148304635926 -0.78801074757464917 2 0 0 1 I I 0 1 2 forward I I I I #
face $-1 $153 $154 $50 $-1 $155 reversed single #
loop $-1 $-1 $156 $63 #
plane-surface $-1 46.575544767802661 55.243462448907195 135.66278330153301 -1 0 0 0 0.61566148304635926 0.78801074757464917 forward_v I I I I #
face $-1 $157 $158 $51 $-1 $159 forward single #
loop $-1 $160 $161 $64 #
cone-surface $-1 39.472333974053569 23.884769964241308 4.9478572918006414 0 -0.61566148304635926 -0.78801074757464917 2 0 0 1 I I 0 1 2 forward I I I I #
face $-1 $162 $163 $39 $-1 $164 reversed single #
loop $-1 $-1 $165 $65 #
plane-surface $-1 0 0 -12.382273473094081 0 0 1 1 0 0 forward_v I I I I #
coedge $-1 $166 $167 $168 $169 forward $66 $-1 #
face $-1 $170 $171 $40 $-1 $172 reversed single #
loop $-1 $-1 $173 $68 #
plane-surface $-1 -55.468058763448795 0 8.719078957352 0 0 1 1 0 0 forward_v I I I I #
coedge $-1 $174 $175 $173 $176 reversed $69 $-1 #
face $-1 $177 $178 $41 $-1 $179 reversed single #
loop $-1 $-1 $180 $71 #
plane-surface $-1 -36.353071137213213 -136.67502990921284 62.062241350533874 -1 0 0 0 -0.86602541151947299 0.49999998660252726 forward_v I I I I #
coedge $-1 $181 $182 $183 $184 reversed $72 $-1 #
face $-1 $-1 $185 $42 $-1 $186 forward single #
loop $-1 $187 $188 $74 #
cone-surface $-1 -46.695852442681435 -25.97667431989057 5.0993068274952975 0 0.86602541151947299 -0.49999998660252726 0.5 0 0 1 I I -0.70710678118654746 0.70710678118654746 0.5 forward I I I I #
loop $-1 $-1 $189 $55 #
coedge $-1 $120 $120 $190 $191 reversed $75 $-1 #
face $-1 $-1 $192 $43 $-1 $193 forward single #
loop $-1 $194 $195 $77 #
cone-surface $-1 -40.4901836594005 -25.97667431989057 5.0993068274952975 0 0.86602541151947299 -0.49999998660252726 0.5 0 0 1 I I -0.70710678118654746 0.70710678118654746 0.5 forward I I I I #
loop $-1 $-1 $196 $56 #
coedge $-1 $125 $125 $197 $198 reversed $78 $-1 #
face $-1 $199 $200 $44 $-1 $201 forward single #
loop $-1 $-1 $202 $80 #
plane-surface $-1 -36.626543377370538 55.243462448907195 135.66278330153301 -1 0 0 0 0.61566148304635926 0.78801074757464917 forward_v I I I I #
coedge $-1 $203 $204 $205 $206 reversed $81 $-1 #
face $-1 $-1 $207 $45 $-1 $208 forward single #
loop $-1 $209 $210 $83 #
cone-surface $-1 -43.72975417111963 21.973263845960069 2.5012410802308622 0 -0.61566148304635926 -0.78801074757464917 1 0 0 1 I I -0.70710678118654735 0.70710678118654768 1 forward I I I I #
loop $-1 $-1 $211 $58 #
coedge $-1 $134 $134 $212 $213 reversed $84 $-1 #
face $-1 $214 $215 $46 $-1 $216 reversed single #
loop $-1 $-1 $217 $86 #
plane-surface $-1 -15.995724789395233 -18.762929635293361 40.938922937537896 0 0.61566148304635926 0.78801074757464917 1 0 0 forward_v I I I I #
coedge $-1 $218 $219 $220 $221 reversed $87 $-1 #
face $-1 $-1 $222 $47 $-1 $223 forward single #
loop $-1 $224 $225 $89 #
cone-surface $-1 -15.995724789395233 21.973263845960069 2.5012410802308622 0 -0.61566148304635926 -0.78801074757464917 1 0 0 1 I I -0.70710678118654735 0.70710678118654768 1 forward I I I I #
loop $-1 $-1 $226 $60 #
coedge $-1 $143 $143 $227 $228 reversed $90 $-1 #
face $-1 $229 $230 $48 $-1 $231 reversed single #
loop $-1 $-1 $232 $92 #
plane-surface $-1 11.738304592329172 -18.762929635293361 40.938922937537896 0 0.61566148304635926 0.78801074757464917 1 0 0 forward_v I I I I #
coedge $-1 $233 $234 $235 $236 reversed $93 $-1 #
face $-1 $-1 $237 $49 $-1 $238 forward single #
loop $-1 $239 $240 $95 #
cone-surface $-1 11.738304592329172 21.973263845960069 2.5012410802308622 0 -0.61566148304635926 -0.78801074757464917 1 0 0 1 I I -0.70710678118654735 0.70710678118654768 1 forward I I I I #
loop $-1 $-1 $241 $62 #
coedge $-1 $152 $152 $242 $243 reversed $96 $-1 #
face $-1 $244 $245 $50 $-1 $246 reversed single #
loop $-1 $-1 $247 $98 #
plane-surface $-1 39.472333974053569 -18.762929635293361 40.938922937537896 0 0.61566148304635926 0.78801074757464917 1 0 0 forward_v I I I I #
coedge $-1 $248 $249 $250 $251 reversed $99 $-1 #
face $-1 $-1 $252 $51 $-1 $253 forward single #
loop $-1 $254 $255 $101 #
cone-surface $-1 39.472333974053569 21.973263845960069 2.5012410802308622 0 -0.61566148304635926 -0.78801074757464917 1 0 0 1 I I -0.70710678118654735 0.70710678118654768 1 forward I I I I #
loop $-1 $-1 $256 $64 #
coedge $-1 $161 $161 $257 $258 reversed $102 $-1 #
face $-1 $259 $260 $39 $-1 $261 reversed single #
loop $-1 $-1 $262 $104 #
plane-surface $-1 0 -32.573315046915411 0 0 1 0 0 0 1 forward_v I I I I #
coedge $-1 $263 $264 $265 $266 forward $105 $-1 #
coedge $-1 $267 $107 $268 $269 forward $66 $-1 #
coedge $-1 $107 $267 $270 $271 forward $66 $-1 #
coedge $-1 $272 $273 $107 $169 reversed $274 $-1 #
edge $-1 $275 -32.573315046915411 $276 32.573315046915411 $168 $277 forward 7 unknown #
face $-1 $278 $279 $40 $-1 $280 reversed single #
loop $-1 $-1 $281 $108 #
plane-surface $-1 -55.468058763448795 0 4.5856586349728481 0 0 1 1 0 0 forward_v I I I I #
coedge $-1 $282 $283 $111 $176 forward $109 $-1 #
coedge $-1 $284 $111 $285 $286 reversed $69 $-1 #
coedge $-1 $111 $284 $287 $288 reversed $69 $-1 #
edge $-1 $289 -32.573315046915411 $290 32.573315046915411 $111 $291 forward 7 unknown #
face $-1 $292 $293 $41 $-1 $294 forward single #
loop $-1 $-1 $295 $112 #
plane-surface $-1 0 -32.573315046915411 0 0 1 0 0 0 1 forward_v I I I I #
coedge $-1 $296 $297 $298 $299 reversed $113 $-1 #
coedge $-1 $300 $115 $301 $302 forward $72 $-1 #
coedge $-1 $115 $300 $296 $303 forward $72 $-1 #
coedge $-1 $298 $295 $115 $184 forward $178 $-1 #
edge $-1 $304 -29.036455939348244 $305 -14.556562111692728 $183 $306 forward 7 unknown #
loop $-1 $-1 $190 $116 #
plane-surface $-1 -43.593018051040971 -32.573315046915411 1.9590903989656994 0 -0.86602541151947299 0.49999998660252726 1 0 0 forward_v I I I I #
loop $-1 $-1 $307 $74 #
coedge $-1 $188 $188 $189 $308 reversed $117 $-1 #
coedge $-1 $189 $189 $188 $308 forward $119 $-1 #
coedge $-1 $190 $190 $120 $191 forward $185 $-1 #
edge $-1 $309 -4.7597325791166719e-016 $309 6.2831853071795996 $190 $310 forward 7 unknown #
loop $-1 $-1 $197 $121 #
plane-surface $-1 -43.593018051040971 -32.573315046915411 1.9590903989656994 0 -0.86602541151947299 0.49999998660252726 1 0 0 forward_v I I I I #
loop $-1 $-1 $311 $77 #
coedge $-1 $195 $195 $196 $312 reversed $122 $-1 #
coedge $-1 $196 $196 $195 $312 forward $124 $-1 #
coedge $-1 $197 $197 $125 $198 forward $192 $-1 #
edge $-1 $313 -4.7597325791166719e-016 $313 6.2831853071795996 $197 $314 forward 7 unknown #
face $-1 $315 $316 $44 $-1 $317 forward single #
loop $-1 $-1 $318 $126 #
plane-surface $-1 0 0 12.382273473094081 0 0 1 1 0 0 forward_v I I I I #
coedge $-1 $319 $320 $321 $322 reversed $127 $-1 #
coedge $-1 $323 $129 $324 $325 forward $81 $-1 #
coedge $-1 $129 $323 $319 $326 forward $81 $-1 #
coedge $-1 $321 $318 $129 $206 forward $200 $-1 #
edge $-1 $327 -28.968087879308907 $328 -14.761666291810723 $205 $329 forward 7 unknown #
loop $-1 $-1 $212 $130 #
plane-surface $-1 -43.72975417111963 -18.762929635293361 40.938922937537896 0 0.61566148304635926 0.78801074757464917 1 0 0 forward_v I I I I #
loop $-1 $-1 $330 $83 #
coedge $-1 $210 $210 $211 $331 reversed $131 $-1 #
coedge $-1 $211 $211 $210 $331 forward $133 $-1 #
coedge $-1 $212 $212 $134 $213 forward $207 $-1 #
edge $-1 $332 -1.4242792846415409e-016 $332 6.2831853071796004 $212 $333 forward 7 unknown #
face $-1 $334 $335 $46 $-1 $336 forward single #
loop $-1 $-1 $337 $135 #
plane-surface $-1 -23.098935583144325 55.243462448907195 135.66278330153301 1 0 0 0 -0.61566148304635926 -0.78801074757464917 forward_v I I I I #
coedge $-1 $338 $339 $340 $341 reversed $136 $-1 #
coedge $-1 $219 $138 $342 $343 reversed $87 $-1 #
coedge $-1 $138 $218 $338 $344 reversed $87 $-1 #
coedge $-1 $340 $345 $138 $221 forward $346 $-1 #
edge $-1 $347 55.449118177672425 $348 67.000739612269086 $220 $349 forward 7 unknown #
loop $-1 $-1 $227 $139 #
plane-surface $-1 -15.995724789395233 -18.762929635293361 40.938922937537896 0 0.61566148304635926 0.78801074757464917 1 0 0 forward_v I I I I #
loop $-1 $-1 $350 $89 #
coedge $-1 $225 $225 $226 $351 reversed $140 $-1 #
coedge $-1 $226 $226 $225 $351 forward $142 $-1 #
coedge $-1 $227 $227 $143 $228 forward $222 $-1 #
edge $-1 $352 -1.4242792846415409e-016 $352 6.2831853071796004 $227 $353 forward 7 unknown #
face $-1 $354 $355 $48 $-1 $356 forward single #
loop $-1 $-1 $357 $144 #
plane-surface $-1 4.635093798580078 55.243462448907195 135.66278330153301 1 0 0 0 -0.61566148304635926 -0.78801074757464917 forward_v I I I I #
coedge $-1 $358 $359 $360 $361 reversed $145 $-1 #
coedge $-1 $234 $147 $362 $363 reversed $93 $-1 #
coedge $-1 $147 $233 $358 $364 reversed $93 $-1 #
coedge $-1 $360 $365 $147 $236 forward $366 $-1 #
edge $-1 $367 55.449118177672425 $368 67.000739612269086 $235 $369 forward 7 unknown #
loop $-1 $-1 $242 $148 #
plane-surface $-1 11.738304592329172 -18.762929635293361 40.938922937537896 0 0.61566148304635926 0.78801074757464917 1 0 0 forward_v I I I I #
loop $-1 $-1 $370 $95 #
coedge $-1 $240 $240 $241 $371 reversed $149 $-1 #
coedge $-1 $241 $241 $240 $371 forward $151 $-1 #
coedge $-1 $242 $242 $152 $243 forward $237 $-1 #
edge $-1 $372 -1.4242792846415409e-016 $372 6.2831853071796004 $242 $373 forward 7 unknown #
face $-1 $374 $375 $50 $-1 $376 forward single #
loop $-1 $-1 $377 $153 #
plane-surface $-1 32.369123180304477 55.243462448907195 135.66278330153301 1 0 0 0 -0.61566148304635926 -0.78801074757464917 forward_v I I I I #
coedge $-1 $378 $379 $380 $381 reversed $154 $-1 #
coedge $-1 $249 $156 $382 $383 reversed $99 $-1 #
coedge $-1 $156 $248 $378 $384 reversed $99 $-1 #
coedge $-1 $380 $385 $156 $251 forward $386 $-1 #
edge $-1 $387 55.449118177672425 $388 67.000739612269086 $250 $389 forward 7 unknown #
loop $-1 $-1 $257 $157 #
plane-surface $-1 39.472333974053569 -18.762929635293361 40.938922937537896 0 0.61566148304635926 0.78801074757464917 1 0 0 forward_v I I I I #
loop $-1 $-1 $390 $101 #
coedge $-1 $255 $255 $256 $391 reversed $158 $-1 #
coedge $-1 $256 $256 $255 $391 forward $160 $-1 #
coedge $-1 $257 $257 $161 $258 forward $252 $-1 #
edge $-1 $392 -1.4242792846415409e-016 $392 6.2831853071796004 $257 $393 forward 7 unknown #
face $-1 $394 $395 $39 $-1 $396 reversed single #
loop $-1 $-1 $397 $162 #
plane-surface $-1 -60.103152562028868 0 0 1 0 0 0 0 -1 forward_v I I I I #
coedge $-1 $398 $270 $399 $400 forward $163 $-1 #
coedge $-1 $401 $165 $398 $402 forward $105 $-1 #
coedge $-1 $165 $401 $403 $404 forward $105 $-1 #
coedge $-1 $273 $272 $165 $266 reversed $274 $-1 #
edge $-1 $405 -32.573315046915411 $406 32.573315046915411 $265 $407 forward 7 unknown #
coedge $-1 $167 $166 $408 $409 forward $66 $-1 #
coedge $-1 $410 $411 $166 $269 reversed $395 $-1 #
edge $-1 $276 -60.103152562028868 $412 60.103152562028868 $268 $413 forward 7 unknown #
coedge $-1 $262 $414 $167 $271 reversed $163 $-1 #
edge $-1 $415 -60.103152562028868 $275 60.103152562028868 $270 $416 forward 7 unknown #
coedge $-1 $265 $168 $414 $417 forward $274 $-1 #
coedge $-1 $168 $265 $410 $418 reversed $274 $-1 #
loop $-1 $-1 $272 $394 #
vertex $-1 $169 $419 #
vertex $-1 $169 $420 #
straight-curve $-1 60.103152562028868 0 12.382273473094081 0 1 0 I I #
face $-1 $421 $422 $40 $-1 $423 reversed single #
loop $-1 $-1 $424 $170 #
plane-surface $-1 0 -32.573315046915411 0 0 1 0 0 0 1 forward_v I I I I #
coedge $-1 $425 $426 $284 $427 forward $171 $-1 #
coedge $-1 $428 $173 $429 $430 reversed $109 $-1 #
coedge $-1 $173 $428 $431 $432 reversed $109 $-1 #
coedge $-1 $175 $174 $281 $427 reversed $69 $-1 #
coedge $-1 $431 $424 $174 $286 forward $279 $-1 #
edge $-1 $433 1.2594742368916361 $289 5.392894559270788 $285 $434 forward 7 unknown #
coedge $-1 $435 $429 $175 $288 forward $436 $-1 #
edge $-1 $290 -5.392894559270788 $437 -1.2594742368916361 $287 $438 forward 7 unknown #
vertex $-1 $432 $439 #
vertex $-1 $430 $440 #
straight-curve $-1 -50.832964964868722 0 8.719078957352 0 1 0 I I #
face $-1 $-1 $441 $41 $-1 $442 forward single #
loop $-1 $-1 $301 $177 #
plane-surface $-1 -50.832964964868722 0 6.652368796162424 -1 0 0 0 0 1 forward_v I I I I #
coedge $-1 $183 $443 $444 $445 forward $178 $-1 #
coedge $-1 $297 $180 $182 $303 reversed $113 $-1 #
coedge $-1 $180 $296 $446 $447 reversed $113 $-1 #
coedge $-1 $443 $183 $180 $299 forward $178 $-1 #
edge $-1 $305 -29.072030276301238 $448 -18.648847202172856 $298 $449 forward 7 unknown #
coedge $-1 $182 $181 $450 $451 reversed $72 $-1 #
coedge $-1 $444 $452 $181 $302 reversed $293 $-1 #
edge $-1 $304 0 $453 12.035654999823306 $301 $454 forward 7 unknown #
edge $-1 $455 -12.035654999823306 $305 0 $296 $456 forward 7 unknown #
vertex $-1 $184 $457 #
vertex $-1 $184 $458 #
straight-curve $-1 -21.796509025520486 -32.573315046915411 1.9590903989656971 1 0 0 I I #
coedge $-1 $307 $307 $-1 $459 reversed $187 $-1 #
edge $-1 $460 0 $460 6.2831853071796004 $188 $461 forward 7 unknown #
vertex $-1 $191 $462 #
ellipse-curve $-1 -46.695852442681435 -29.564401377583259 7.1706819360298972 0 -0.86602541151947299 0.49999998660252726 1 0 0 1 I I #
coedge $-1 $311 $311 $-1 $463 reversed $194 $-1 #
edge $-1 $464 0 $464 6.2831853071796004 $195 $465 forward 7 unknown #
vertex $-1 $198 $466 #
ellipse-curve $-1 -40.4901836594005 -29.564401377583259 7.1706819360298972 0 -0.86602541151947299 0.49999998660252726 1 0 0 1 I I #
face $-1 $-1 $467 $44 $-1 $468 reversed single #
loop $-1 $-1 $324 $199 #
plane-surface $-1 -50.832964964868722 0 6.652368796162424 -1 0 0 0 0 1 forward_v I I I I #
coedge $-1 $205 $469 $470 $471 forward $200 $-1 #
coedge $-1 $320 $202 $204 $326 reversed $127 $-1 #
coedge $-1 $202 $319 $472 $473 reversed $127 $-1 #
coedge $-1 $469 $205 $202 $322 forward $200 $-1 #
edge $-1 $328 -9.8338170724166645 $474 4.9515838224618136 $321 $475 forward 7 unknown #
coedge $-1 $204 $203 $476 $477 reversed $81 $-1 #
coedge $-1 $470 $478 $203 $325 reversed $316 $-1 #
edge $-1 $327 46.383686897452861 $479 65.146630093830836 $324 $480 forward 7 unknown #
edge $-1 $481 -65.146630093830836 $328 -46.383686897452861 $319 $482 forward 7 unknown #
vertex $-1 $471 $483 #
vertex $-1 $206 $484 #
straight-curve $-1 -21.864877085559815 17.787914152036929 12.382273473094081 1 0 0 I I #
coedge $-1 $330 $330 $-1 $485 reversed $209 $-1 #
edge $-1 $486 0 $486 6.2831853071796004 $210 $487 forward 7 unknown #
vertex $-1 $213 $488 #
ellipse-curve $-1 -43.72975417111963 25.180614599476172 6.6064627557957518 0 0.61566148304635926 0.78801074757464917 2 0 0 1 I I #
face $-1 $-1 $346 $46 $-1 $489 reversed single #
loop $-1 $-1 $490 $214 #
plane-surface $-1 0 0 12.382273473094081 0 0 1 1 0 0 forward_v I I I I #
coedge $-1 $491 $492 $493 $494 reversed $215 $-1 #
coedge $-1 $495 $217 $219 $344 forward $136 $-1 #
coedge $-1 $217 $495 $491 $496 forward $136 $-1 #
coedge $-1 $493 $220 $217 $341 forward $346 $-1 #
edge $-1 $348 0.89465160094852259 $497 15.101073188446708 $340 $498 forward 7 unknown #
coedge $-1 $499 $500 $218 $343 forward $335 $-1 #
edge $-1 $501 -9.8338170724166645 $347 4.9515838224618136 $342 $502 forward 7 unknown #
edge $-1 $348 -65.146630093830836 $501 -46.383686897452861 $219 $503 forward 7 unknown #
coedge $-1 $220 $493 $499 $504 reversed $346 $-1 #
loop $-1 $-1 $493 $334 #
vertex $-1 $504 $505 #
vertex $-1 $221 $506 #
straight-curve $-1 -8.892513995646139 32.573315046915411 67.831391650766506 0 0 -1 I I #
coedge $-1 $350 $350 $-1 $507 reversed $224 $-1 #
edge $-1 $508 0 $508 6.2831853071796004 $225 $509 forward 7 unknown #
vertex $-1 $228 $510 #
ellipse-curve $-1 -15.995724789395233 25.180614599476172 6.6064627557957518 0 0.61566148304635926 0.78801074757464917 2 0 0 1 I I #
face $-1 $-1 $366 $48 $-1 $511 reversed single #
loop $-1 $-1 $512 $229 #
plane-surface $-1 0 0 12.382273473094081 0 0 1 1 0 0 forward_v I I I I #
coedge $-1 $513 $514 $515 $516 reversed $230 $-1 #
coedge $-1 $517 $232 $234 $364 forward $145 $-1 #
coedge $-1 $232 $517 $513 $518 forward $145 $-1 #
coedge $-1 $515 $235 $232 $361 forward $366 $-1 #
edge $-1 $368 -12.972363089913678 $519 1.2340584975845079 $360 $520 forward 7 unknown #
coedge $-1 $521 $522 $233 $363 forward $355 $-1 #
edge $-1 $523 -9.8338170724166645 $367 4.9515838224618136 $362 $524 forward 7 unknown #
edge $-1 $368 -65.146630093830836 $523 -46.383686897452861 $234 $525 forward 7 unknown #
coedge $-1 $235 $515 $521 $526 reversed $366 $-1 #
loop $-1 $-1 $515 $354 #
vertex $-1 $526 $527 #
vertex $-1 $236 $528 #
straight-curve $-1 18.841515386078264 32.573315046915411 67.831391650766506 0 0 -1 I I #
coedge $-1 $370 $370 $-1 $529 reversed $239 $-1 #
edge $-1 $530 0 $530 6.2831853071796004 $240 $531 forward 7 unknown #
vertex $-1 $243 $532 #
ellipse-curve $-1 11.738304592329172 25.180614599476172 6.6064627557957518 0 0.61566148304635926 0.78801074757464917 2 0 0 1 I I #
face $-1 $-1 $386 $50 $-1 $533 reversed single #
loop $-1 $-1 $534 $244 #
plane-surface $-1 0 0 12.382273473094081 0 0 1 1 0 0 forward_v I I I I #
coedge $-1 $535 $536 $537 $538 reversed $245 $-1 #
coedge $-1 $539 $247 $249 $384 forward $154 $-1 #
coedge $-1 $247 $539 $535 $540 forward $154 $-1 #
coedge $-1 $537 $250 $247 $381 forward $386 $-1 #
edge $-1 $388 -26.839377780775877 $541 -12.632956193277693 $380 $542 forward 7 unknown #
coedge $-1 $543 $544 $248 $383 forward $375 $-1 #
edge $-1 $545 -9.8338170724166645 $387 4.9515838224618136 $382 $546 forward 7 unknown #
edge $-1 $388 -65.146630093830836 $545 -46.383686897452861 $249 $547 forward 7 unknown #
coedge $-1 $250 $537 $543 $548 reversed $386 $-1 #
loop $-1 $-1 $537 $374 #
vertex $-1 $548 $549 #
vertex $-1 $251 $550 #
straight-curve $-1 46.575544767802661 32.573315046915411 67.831391650766506 0 0 -1 I I #
coedge $-1 $390 $390 $-1 $551 reversed $254 $-1 #
edge $-1 $552 0 $552 6.2831853071796004 $255 $553 forward 7 unknown #
vertex $-1 $258 $554 #
ellipse-curve $-1 39.472333974053569 25.180614599476172 6.6064627557957518 0 0.61566148304635926 0.78801074757464917 2 0 0 1 I I #
face $-1 $-1 $274 $39 $-1 $555 reversed single #
loop $-1 $-1 $410 $259 #
plane-surface $-1 0 32.573315046915411 0 0 -1 0 0 0 -1 forward_v I I I I #
coedge $-1 $556 $408 $411 $557 forward $260 $-1 #
coedge $-1 $414 $262 $263 $402 reversed $163 $-1 #
coedge $-1 $408 $556 $262 $400 reversed $260 $-1 #
edge $-1 $415 -12.382273473094081 $558 12.382273473094081 $399 $559 forward 7 unknown #
coedge $-1 $264 $263 $556 $560 forward $105 $-1 #
edge $-1 $406 -60.103152562028868 $558 60.103152562028868 $398 $561 forward 7 unknown #
coedge $-1 $411 $410 $264 $404 reversed $395 $-1 #
edge $-1 $562 -60.103152562028868 $405 60.103152562028868 $403 $563 forward 7 unknown #
vertex $-1 $266 $564 #
vertex $-1 $417 $565 #
straight-curve $-1 60.103152562028868 0 -12.382273473094081 0 -1 0 I I #
coedge $-1 $397 $399 $267 $409 reversed $260 $-1 #
edge $-1 $412 -32.573315046915411 $415 32.573315046915411 $408 $566 forward 7 unknown #
coedge $-1 $403 $268 $273 $418 forward $395 $-1 #
coedge $-1 $268 $403 $397 $557 reversed $395 $-1 #
vertex $-1 $269 $567 #
straight-curve $-1 0 32.573315046915411 12.382273473094081 -1 0 0 I I #
coedge $-1 $270 $398 $272 $417 reversed $163 $-1 #
vertex $-1 $409 $568 #
straight-curve $-1 0 -32.573315046915411 12.382273473094081 1 0 0 I I #
edge $-1 $275 -12.382273473094081 $406 12.382273473094081 $272 $569 forward 7 unknown #
edge $-1 $276 -12.382273473094081 $405 12.382273473094081 $273 $570 forward 7 unknown #
point $-1 60.103152562028868 -32.573315046915411 12.382273473094081 #
point $-1 60.103152562028868 32.573315046915411 12.382273473094081 #
face $-1 $-1 $436 $40 $-1 $571 reversed single #
loop $-1 $-1 $572 $278 #
plane-surface $-1 -60.103152562028868 0 0 1 0 0 0 0 -1 forward_v I I I I #
coedge $-1 $285 $573 $425 $574 forward $279 $-1 #
coedge $-1 $575 $281 $424 $574 reversed $171 $-1 #
coedge $-1 $281 $575 $435 $576 reversed $171 $-1 #
edge $-1 $437 -32.573315046915411 $433 32.573315046915411 $284 $577 forward 7 unknown #
coedge $-1 $283 $282 $578 $579 reversed $109 $-1 #
coedge $-1 $287 $580 $282 $430 forward $436 $-1 #
edge $-1 $581 -32.36912318030447 $290 -23.098935583144325 $429 $582 forward 7 unknown #
coedge $-1 $573 $285 $283 $432 forward $279 $-1 #
edge $-1 $289 23.098935583144325 $583 32.36912318030447 $431 $584 forward 7 unknown #
vertex $-1 $574 $585 #
straight-curve $-1 -50.832964964868722 -32.573315046915411 3.326184398081212 0 0 1 I I #
coedge $-1 $580 $287 $426 $576 forward $436 $-1 #
loop $-1 $-1 $435 $421 #
vertex $-1 $576 $586 #
straight-curve $-1 -50.832964964868722 32.573315046915411 3.326184398081212 0 0 -1 I I #
point $-1 -50.832964964868722 -32.573315046915411 8.719078957352 #
point $-1 -50.832964964868722 32.573315046915411 8.719078957352 #
loop $-1 $-1 $587 $292 #
plane-surface $-1 0 0 12.382273473094081 0 0 1 1 0 0 forward_v I I I I #
coedge $-1 $295 $298 $588 $589 reversed $178 $-1 #
coedge $-1 $452 $301 $295 $445 reversed $293 $-1 #
edge $-1 $590 18.648847202172856 $304 29.072030276301238 $295 $591 forward 7 unknown #
coedge $-1 $450 $588 $297 $447 forward $441 $-1 #
edge $-1 $448 35.764199907691008 $455 41.782027246355298 $446 $592 forward 7 unknown #
vertex $-1 $299 $593 #
straight-curve $-1 -36.353071137213213 -32.573315046915411 31.031120675266937 0 0 1 I I #
coedge $-1 $587 $446 $300 $451 forward $441 $-1 #
edge $-1 $455 14.556562111692728 $453 29.036455939348244 $450 $594 forward 7 unknown #
coedge $-1 $301 $444 $587 $595 reversed $293 $-1 #
vertex $-1 $595 $596 #
straight-curve $-1 -50.832964964868729 -32.573315046915411 1.9590903989656994 0 0.49999998660252726 0.86602541151947299 I I #
vertex $-1 $451 $597 #
straight-curve $-1 -36.353071137213213 -32.573315046915411 1.9590903989656994 0 -0.49999998660252726 -0.86602541151947299 I I #
point $-1 -50.832964964868729 -32.573315046915411 1.9590903989656994 #
point $-1 -36.353071137213213 -32.573315046915411 1.9590903989656994 #
edge $-1 $598 1 $598 0 $307 $-1 forward 7 unknown #
vertex $-1 $308 $599 #
ellipse-curve $-1 -46.695852442681435 -26.409687025650307 5.3493068207965608 0 -0.86602541151947299 0.49999998660252726 1 0 0 1 I I #
point $-1 -45.695852442681435 -29.564401377583266 7.1706819360299008 #
edge $-1 $600 1 $600 0 $311 $-1 forward 7 unknown #
vertex $-1 $312 $601 #
ellipse-curve $-1 -40.4901836594005 -26.409687025650307 5.3493068207965608 0 -0.86602541151947299 0.49999998660252726 1 0 0 1 I I #
point $-1 -39.4901836594005 -29.564401377583266 7.1706819360299008 #
loop $-1 $-1 $602 $315 #
plane-surface $-1 0 32.573315046915411 0 0 -1 0 0 0 -1 forward_v I I I I #
coedge $-1 $318 $321 $603 $604 forward $200 $-1 #
coedge $-1 $478 $324 $318 $471 reversed $316 $-1 #
edge $-1 $605 -4.9515838224618136 $327 9.8338170724166645 $318 $606 forward 7 unknown #
coedge $-1 $476 $603 $320 $473 forward $467 $-1 #
edge $-1 $474 55.449118177672425 $481 67.000739612269086 $472 $607 forward 7 unknown #
vertex $-1 $604 $608 #
straight-curve $-1 -36.626543377370538 27.621731224453598 12.382273473094081 0 1 0 I I #
coedge $-1 $602 $472 $323 $477 forward $467 $-1 #
edge $-1 $481 14.761666291810723 $479 28.968087879308907 $476 $609 forward 7 unknown #
coedge $-1 $324 $470 $602 $610 reversed $316 $-1 #
vertex $-1 $610 $611 #
straight-curve $-1 -50.832964964868722 -18.762929635293361 40.938922937537896 0 0.78801074757464917 -0.61566148304635926 I I #
vertex $-1 $477 $612 #
straight-curve $-1 -36.626543377370538 -18.762929635293361 40.938922937537896 0 -0.78801074757464917 0.61566148304635926 I I #
point $-1 -50.832964964868722 17.787914152036933 12.382273473094081 #
point $-1 -36.626543377370538 17.787914152036933 12.382273473094081 #
edge $-1 $613 1 $613 0 $330 $-1 forward 7 unknown #
vertex $-1 $331 $614 #
ellipse-curve $-1 -43.72975417111963 22.588925329006429 3.2892518278055118 0 0.61566148304635926 0.78801074757464917 2 0 0 1 I I #
point $-1 -41.72975417111963 25.180614599476186 6.6064627557957705 #
plane-surface $-1 0 32.573315046915411 0 0 -1 0 0 0 -1 forward_v I I I I #
coedge $-1 $500 $499 $492 $615 forward $335 $-1 #
coedge $-1 $492 $337 $339 $496 reversed $215 $-1 #
coedge $-1 $337 $491 $490 $615 reversed $215 $-1 #
coedge $-1 $345 $340 $337 $494 forward $346 $-1 #
edge $-1 $497 -67.000739612269086 $616 -55.449118177672425 $493 $617 forward 7 unknown #
coedge $-1 $339 $338 $500 $618 reversed $136 $-1 #
edge $-1 $619 46.383686897452861 $497 65.146630093830836 $491 $620 forward 7 unknown #
vertex $-1 $341 $621 #
straight-curve $-1 -7.9978623946976164 32.573315046915418 0.8306520384974263 -1 0 0 I I #
coedge $-1 $490 $342 $345 $504 forward $335 $-1 #
coedge $-1 $342 $490 $495 $618 forward $335 $-1 #
vertex $-1 $343 $622 #
straight-curve $-1 -8.892513995646139 27.621731224453598 12.382273473094081 0 1 0 I I #
straight-curve $-1 -8.892513995646139 -18.762929635293361 40.938922937537896 0 -0.78801074757464917 0.61566148304635926 I I #
edge $-1 $347 8.892513995646139 $616 23.098935583144325 $345 $623 forward 7 unknown #
point $-1 -8.892513995646139 32.573315046915411 12.382273473094081 #
point $-1 -8.892513995646139 32.573315046915411 0.8306520384974263 #
edge $-1 $624 1 $624 0 $350 $-1 forward 7 unknown #
vertex $-1 $351 $625 #
ellipse-curve $-1 -15.995724789395233 22.588925329006429 3.2892518278055118 0 0.61566148304635926 0.78801074757464917 2 0 0 1 I I #
point $-1 -13.995724789395233 25.180614599476186 6.6064627557957705 #
plane-surface $-1 0 32.573315046915411 0 0 -1 0 0 0 -1 forward_v I I I I #
coedge $-1 $522 $521 $514 $626 forward $355 $-1 #
coedge $-1 $514 $357 $359 $518 reversed $230 $-1 #
coedge $-1 $357 $513 $512 $626 reversed $230 $-1 #
coedge $-1 $365 $360 $357 $516 forward $366 $-1 #
edge $-1 $519 -67.000739612269086 $627 -55.449118177672425 $515 $628 forward 7 unknown #
coedge $-1 $359 $358 $522 $629 reversed $145 $-1 #
edge $-1 $630 46.383686897452861 $519 65.146630093830836 $513 $631 forward 7 unknown #
vertex $-1 $361 $632 #
straight-curve $-1 5.8691522961645859 32.573315046915418 0.8306520384974263 -1 0 0 I I #
coedge $-1 $512 $362 $365 $526 forward $355 $-1 #
coedge $-1 $362 $512 $517 $629 forward $355 $-1 #
vertex $-1 $363 $633 #
straight-curve $-1 18.841515386078264 27.621731224453598 12.382273473094081 0 1 0 I I #
straight-curve $-1 18.841515386078264 -18.762929635293361 40.938922937537896 0 -0.78801074757464917 0.61566148304635926 I I #
edge $-1 $367 -18.841515386078264 $627 -4.635093798580078 $365 $634 forward 7 unknown #
point $-1 18.841515386078264 32.573315046915411 12.382273473094081 #
point $-1 18.841515386078264 32.573315046915411 0.8306520384974263 #
edge $-1 $635 1 $635 0 $370 $-1 forward 7 unknown #
vertex $-1 $371 $636 #
ellipse-curve $-1 11.738304592329172 22.588925329006429 3.2892518278055118 0 0.61566148304635926 0.78801074757464917 2 0 0 1 I I #
point $-1 13.738304592329172 25.180614599476186 6.6064627557957705 #
plane-surface $-1 0 32.573315046915411 0 0 -1 0 0 0 -1 forward_v I I I I #
coedge $-1 $544 $543 $536 $637 forward $375 $-1 #
coedge $-1 $536 $377 $379 $540 reversed $245 $-1 #
coedge $-1 $377 $535 $534 $637 reversed $245 $-1 #
coedge $-1 $385 $380 $377 $538 forward $386 $-1 #
edge $-1 $541 -67.000739612269086 $638 -55.449118177672425 $537 $639 forward 7 unknown #
coedge $-1 $379 $378 $544 $640 reversed $154 $-1 #
edge $-1 $641 46.383686897452861 $541 65.146630093830836 $535 $642 forward 7 unknown #
vertex $-1 $381 $643 #
straight-curve $-1 19.736166987026785 32.573315046915418 0.8306520384974263 -1 0 0 I I #
coedge $-1 $534 $382 $385 $548 forward $375 $-1 #
coedge $-1 $382 $534 $539 $640 forward $375 $-1 #
vertex $-1 $383 $644 #
straight-curve $-1 46.575544767802661 27.621731224453598 12.382273473094081 0 1 0 I I #
straight-curve $-1 46.575544767802661 -18.762929635293361 40.938922937537896 0 -0.78801074757464917 0.61566148304635926 I I #
edge $-1 $387 -46.575544767802661 $638 -32.369123180304477 $385 $645 forward 7 unknown #
point $-1 46.575544767802661 32.573315046915411 12.382273473094081 #
point $-1 46.575544767802661 32.573315046915411 0.8306520384974263 #
edge $-1 $646 1 $646 0 $390 $-1 forward 7 unknown #
vertex $-1 $391 $647 #
ellipse-curve $-1 39.472333974053569 22.588925329006429 3.2892518278055118 0 0.61566148304635926 0.78801074757464917 2 0 0 1 I I #
point $-1 41.472333974053569 25.180614599476186 6.6064627557957705 #
plane-surface $-1 60.103152562028868 0 0 -1 0 0 0 0 1 forward_v I I I I #
coedge $-1 $399 $397 $401 $560 reversed $260 $-1 #
edge $-1 $412 -12.382273473094081 $562 12.382273473094081 $411 $648 forward 7 unknown #
vertex $-1 $560 $649 #
straight-curve $-1 -60.103152562028868 -32.573315046915411 0 0 0 -1 I I #
edge $-1 $558 -32.573315046915411 $562 32.573315046915411 $556 $650 forward 7 unknown #
straight-curve $-1 0 -32.573315046915411 -12.382273473094081 -1 0 0 I I #
vertex $-1 $404 $651 #
straight-curve $-1 0 32.573315046915411 -12.382273473094081 1 0 0 I I #
point $-1 60.103152562028868 32.573315046915411 -12.382273473094081 #
point $-1 60.103152562028868 -32.573315046915411 -12.382273473094081 #
straight-curve $-1 -60.103152562028868 0 12.382273473094081 0 -1 0 I I #
point $-1 -60.103152562028868 32.573315046915411 12.382273473094081 #
point $-1 -60.103152562028868 -32.573315046915411 12.382273473094081 #
straight-curve $-1 60.103152562028868 -32.573315046915411 0 0 0 -1 I I #
straight-curve $-1 60.103152562028868 32.573315046915411 0 0 0 -1 I I #
plane-surface $-1 0 32.573315046915411 0 0 -1 0 0 0 -1 forward_v I I I I #
coedge $-1 $652 $653 $575 $654 forward $422 $-1 #
coedge $-1 $424 $431 $652 $655 forward $279 $-1 #
edge $-1 $656 -32.36912318030447 $433 -23.098935583144325 $424 $657 forward 7 unknown #
coedge $-1 $426 $425 $572 $654 reversed $171 $-1 #
edge $-1 $437 23.098935583144325 $658 32.36912318030447 $435 $659 forward 7 unknown #
straight-curve $-1 -50.832964964868722 0 4.5856586349728481 0 -1 0 I I #
coedge $-1 $653 $652 $428 $579 forward $422 $-1 #
edge $-1 $583 -32.573315046915411 $581 32.573315046915411 $578 $660 forward 7 unknown #
coedge $-1 $429 $435 $653 $661 reversed $436 $-1 #
vertex $-1 $661 $662 #
straight-curve $-1 -27.734029381724397 32.573315046915411 8.719078957352 1 0 0 I I #
vertex $-1 $655 $663 #
straight-curve $-1 -27.734029381724397 -32.573315046915411 8.719078957352 -1 0 0 I I #
point $-1 -50.832964964868722 -32.573315046915411 4.5856586349728481 #
point $-1 -50.832964964868722 32.573315046915411 4.5856586349728481 #
coedge $-1 $588 $450 $452 $595 forward $441 $-1 #
coedge $-1 $446 $587 $443 $589 forward $441 $-1 #
edge $-1 $590 -50.832964964868729 $448 -36.353071137213213 $443 $664 forward 7 unknown #
vertex $-1 $589 $665 #
straight-curve $-1 -50.832964964868729 -32.573315046915411 31.031120675266937 0 0 -1 I I #
straight-curve $-1 -36.353071137213213 -68.337514954606419 12.382273473094081 0 1 0 I I #
point $-1 -36.353071137213213 -32.573315046915411 12.382273473094081 #
straight-curve $-1 -21.796509025520486 -26.555487708251118 12.382273473094081 -1 0 0 I I #
edge $-1 $453 -41.782027246355298 $590 -35.764199907691008 $587 $666 forward 7 unknown #
point $-1 -50.832964964868729 -26.555487708251118 12.382273473094081 #
point $-1 -36.353071137213213 -26.555487708251118 12.382273473094081 #
vertex $-1 $459 $667 #
point $-1 -45.695852442681435 -26.409687025650307 5.3493068207965608 #
vertex $-1 $463 $668 #
point $-1 -39.4901836594005 -26.409687025650307 5.3493068207965608 #
coedge $-1 $603 $476 $478 $610 forward $467 $-1 #
coedge $-1 $472 $602 $469 $604 reversed $467 $-1 #
edge $-1 $474 36.626543377370538 $605 50.832964964868722 $603 $669 forward 7 unknown #
vertex $-1 $610 $670 #
straight-curve $-1 -50.832964964868722 27.621731224453598 12.382273473094081 0 -1 0 I I #
straight-curve $-1 -36.626543377370538 32.573315046915411 67.831391650766506 0 0 -1 I I #
point $-1 -36.626543377370538 32.573315046915411 12.382273473094081 #
straight-curve $-1 -21.864877085559815 32.573315046915418 0.8306520384974263 -1 0 0 I I #
edge $-1 $479 -67.000739612269086 $605 -55.449118177672425 $602 $671 forward 7 unknown #
point $-1 -50.832964964868722 32.573315046915411 0.8306520384974263 #
point $-1 -36.626543377370538 32.573315046915411 0.8306520384974263 #
vertex $-1 $485 $672 #
point $-1 -41.72975417111963 22.588925329006429 3.2892518278055118 #
edge $-1 $616 -4.9515838224618136 $619 9.8338170724166645 $490 $673 forward 7 unknown #
vertex $-1 $494 $674 #
straight-curve $-1 -23.098935583144325 32.573315046915411 67.831391650766506 0 0 1 I I #
edge $-1 $619 -15.101073188446708 $501 -0.89465160094852259 $500 $675 forward 7 unknown #
vertex $-1 $618 $676 #
straight-curve $-1 -23.098935583144325 -18.762929635293361 40.938922937537896 0 0.78801074757464917 -0.61566148304635926 I I #
point $-1 -23.098935583144325 32.573315046915411 0.8306520384974263 #
point $-1 -8.892513995646139 17.787914152036933 12.382273473094081 #
straight-curve $-1 0 32.573315046915411 12.382273473094081 -1 0 0 I I #
vertex $-1 $507 $677 #
point $-1 -13.995724789395233 22.588925329006429 3.2892518278055118 #
edge $-1 $627 -4.9515838224618136 $630 9.8338170724166645 $512 $678 forward 7 unknown #
vertex $-1 $516 $679 #
straight-curve $-1 4.635093798580078 32.573315046915411 67.831391650766506 0 0 1 I I #
edge $-1 $630 -1.2340584975845079 $523 12.972363089913678 $522 $680 forward 7 unknown #
vertex $-1 $629 $681 #
straight-curve $-1 4.635093798580078 -18.762929635293361 40.938922937537896 0 0.78801074757464917 -0.61566148304635926 I I #
point $-1 4.635093798580078 32.573315046915411 0.8306520384974263 #
point $-1 18.841515386078264 17.787914152036933 12.382273473094081 #
straight-curve $-1 0 32.573315046915411 12.382273473094081 -1 0 0 I I #
vertex $-1 $529 $682 #
point $-1 13.738304592329172 22.588925329006429 3.2892518278055118 #
edge $-1 $638 -4.9515838224618136 $641 9.8338170724166645 $534 $683 forward 7 unknown #
vertex $-1 $538 $684 #
straight-curve $-1 32.369123180304477 32.573315046915411 67.831391650766506 0 0 1 I I #
edge $-1 $641 12.632956193277693 $545 26.839377780775877 $544 $685 forward 7 unknown #
vertex $-1 $640 $686 #
straight-curve $-1 32.369123180304477 -18.762929635293361 40.938922937537896 0 0.78801074757464917 -0.61566148304635926 I I #
point $-1 32.369123180304477 32.573315046915411 0.8306520384974263 #
point $-1 46.575544767802661 17.787914152036933 12.382273473094081 #
straight-curve $-1 0 32.573315046915411 12.382273473094081 -1 0 0 I I #
vertex $-1 $551 $687 #
point $-1 41.472333974053569 22.588925329006429 3.2892518278055118 #
straight-curve $-1 -60.103152562028868 32.573315046915411 0 0 0 -1 I I #
point $-1 -60.103152562028868 -32.573315046915411 -12.382273473094081 #
straight-curve $-1 -60.103152562028868 0 -12.382273473094081 0 1 0 I I #
point $-1 -60.103152562028868 32.573315046915411 -12.382273473094081 #
coedge $-1 $578 $572 $573 $655 reversed $422 $-1 #
coedge $-1 $572 $578 $580 $661 forward $422 $-1 #
edge $-1 $658 -32.573315046915411 $656 32.573315046915411 $572 $688 forward 7 unknown #
edge $-1 $583 -8.719078957352 $656 -4.5856586349728481 $652 $689 forward 7 unknown #
vertex $-1 $574 $690 #
straight-curve $-1 -27.734029381724397 -32.573315046915411 4.5856586349728481 1 0 0 I I #
vertex $-1 $576 $691 #
straight-curve $-1 -27.734029381724397 32.573315046915411 4.5856586349728481 -1 0 0 I I #
straight-curve $-1 -60.103152562028868 0 8.719078957352 0 1 0 I I #
edge $-1 $581 -8.719078957352 $658 -4.5856586349728481 $580 $692 forward 7 unknown #
point $-1 -60.103152562028868 32.573315046915411 8.719078957352 #
point $-1 -60.103152562028868 -32.573315046915411 8.719078957352 #
straight-curve $-1 0 -32.573315046915411 12.382273473094081 1 0 0 I I #
point $-1 -50.832964964868729 -32.573315046915411 12.382273473094081 #
straight-curve $-1 -50.832964964868729 -68.337514954606419 12.382273473094081 0 -1 0 I I #
point $-1 -46.695852442681435 -25.543661614130833 4.8493068341940342 #
point $-1 -40.4901836594005 -25.543661614130833 4.8493068341940342 #
straight-curve $-1 0 32.573315046915411 12.382273473094081 -1 0 0 I I #
point $-1 -50.832964964868722 32.573315046915411 12.382273473094081 #
straight-curve $-1 -50.832964964868722 32.573315046915411 67.831391650766506 0 0 1 I I #
point $-1 -43.72975417111963 21.35760236291371 1.7132303326562126 #
straight-curve $-1 -23.098935583144325 27.621731224453598 12.382273473094081 0 -1 0 I I #
point $-1 -23.098935583144325 32.573315046915411 12.382273473094081 #
straight-curve $-1 -7.9978623946976164 17.787914152036929 12.382273473094081 1 0 0 I I #
point $-1 -23.098935583144325 17.787914152036933 12.382273473094081 #
point $-1 -15.995724789395233 21.35760236291371 1.7132303326562126 #
straight-curve $-1 4.635093798580078 27.621731224453598 12.382273473094081 0 -1 0 I I #
point $-1 4.635093798580078 32.573315046915411 12.382273473094081 #
straight-curve $-1 5.8691522961645859 17.787914152036929 12.382273473094081 1 0 0 I I #
point $-1 4.635093798580078 17.787914152036933 12.382273473094081 #
point $-1 11.738304592329172 21.35760236291371 1.7132303326562126 #
straight-curve $-1 32.369123180304477 27.621731224453598 12.382273473094081 0 -1 0 I I #
point $-1 32.369123180304477 32.573315046915411 12.382273473094081 #
straight-curve $-1 19.736166987026785 17.787914152036929 12.382273473094081 1 0 0 I I #
point $-1 32.369123180304477 17.787914152036933 12.382273473094081 #
point $-1 39.472333974053569 21.35760236291371 1.7132303326562126 #
straight-curve $-1 -60.103152562028868 0 4.5856586349728481 0 -1 0 I I #
straight-curve $-1 -60.103152562028868 -32.573315046915411 0 0 0 -1 I I #
point $-1 -60.103152562028868 -32.573315046915411 4.5856586349728481 #
point $-1 -60.103152562028868 32.573315046915411 4.5856586349728481 #
straight-curve $-1 -60.103152562028868 32.573315046915411 0 0 0 -1 I I #
End-of-ACIS-data 