500 0 14 0           
7 Unknown 11 ACIS 5.0 NT 24 Thu Mar 25 20:30:11 1999 
-1 9.9999999999999995e-007 1e-010 
body $-1 $14 $-1 $15 #
body $-1 $16 $-1 $17 #
body $-1 $18 $-1 $19 #
body $-1 $20 $-1 $21 #
body $-1 $22 $-1 $23 #
body $-1 $24 $-1 $25 #
body $-1 $26 $-1 $27 #
body $-1 $28 $-1 $29 #
body $-1 $30 $-1 $31 #
body $-1 $32 $-1 $33 #
body $-1 $34 $-1 $35 #
body $-1 $36 $-1 $37 #
body $-1 $38 $-1 $39 #
body $-1 $40 $-1 $41 #
lump $-1 $-1 $42 $0 #
transform $-1 1 0 0 0 1 0 0 0 1 52.72621845149083 30.699863623420299 6.561302985966817 1 rotate no_reflect no_shear #
lump $-1 $-1 $43 $1 #
transform $-1 1 0 0 0 1 0 0 0 1 52.72621845149083 30.699863623420299 6.561302985966817 1 rotate no_reflect no_shear #
lump $-1 $-1 $44 $2 #
transform $-1 1 0 0 0 1 0 0 0 1 52.72621845149083 30.699863623420299 6.561302985966817 1 rotate no_reflect no_shear #
lump $-1 $-1 $45 $3 #
transform $-1 1 0 0 0 1 0 0 0 1 52.72621845149083 30.699863623420299 6.561302985966817 1 rotate no_reflect no_shear #
lump $-1 $-1 $46 $4 #
transform $-1 1 0 0 0 1 0 0 0 1 52.72621845149083 30.699863623420299 6.561302985966817 1 rotate no_reflect no_shear #
lump $-1 $-1 $47 $5 #
transform $-1 1 0 0 0 1 0 0 0 1 52.72621845149083 30.699863623420299 6.561302985966817 1 rotate no_reflect no_shear #
lump $-1 $-1 $48 $6 #
transform $-1 1 0 0 0 1 0 0 0 1 52.72621845149083 30.699863623420299 6.561302985966817 1 rotate no_reflect no_shear #
lump $-1 $-1 $49 $7 #
transform $-1 1 0 0 0 1 0 0 0 1 52.72621845149083 30.699863623420299 6.561302985966817 1 rotate no_reflect no_shear #
lump $-1 $-1 $50 $8 #
transform $-1 1 0 0 0 1 0 0 0 1 52.72621845149083 30.699863623420299 6.561302985966817 1 rotate no_reflect no_shear #
lump $-1 $-1 $51 $9 #
transform $-1 1 0 0 0 1 0 0 0 1 52.72621845149083 30.699863623420299 6.561302985966817 1 rotate no_reflect no_shear #
lump $-1 $-1 $52 $10 #
transform $-1 1 0 0 0 1 0 0 0 1 52.72621845149083 30.699863623420299 6.561302985966817 1 rotate no_reflect no_shear #
lump $-1 $-1 $53 $11 #
transform $-1 1 0 0 0 1 0 0 0 1 52.72621845149083 30.699863623420299 6.561302985966817 1 rotate no_reflect no_shear #
lump $-1 $-1 $54 $12 #
transform $-1 1 0 0 0 1 0 0 0 1 52.72621845149083 30.699863623420299 6.561302985966817 1 rotate no_reflect no_shear #
lump $-1 $-1 $55 $13 #
transform $-1 1 0 0 0 1 0 0 0 1 52.72621845149083 30.699863623420299 6.561302985966817 1 rotate no_reflect no_shear #
shell $-1 $-1 $-1 $56 $-1 $14 #
shell $-1 $-1 $-1 $57 $-1 $16 #
shell $-1 $-1 $-1 $58 $-1 $18 #
shell $-1 $-1 $-1 $59 $-1 $20 #
shell $-1 $-1 $-1 $60 $-1 $22 #
shell $-1 $-1 $-1 $61 $-1 $24 #
shell $-1 $-1 $-1 $62 $-1 $26 #
shell $-1 $-1 $-1 $63 $-1 $28 #
shell $-1 $-1 $-1 $64 $-1 $30 #
shell $-1 $-1 $-1 $65 $-1 $32 #
shell $-1 $-1 $-1 $66 $-1 $34 #
shell $-1 $-1 $-1 $67 $-1 $36 #
shell $-1 $-1 $-1 $68 $-1 $38 #
shell $-1 $-1 $-1 $69 $-1 $40 #
face $-1 $70 $71 $42 $-1 $72 forward single #
face $-1 $73 $74 $43 $-1 $75 forward single #
face $-1 $76 $77 $44 $-1 $78 reversed single #
face $-1 $79 $80 $45 $-1 $81 forward single #
face $-1 $82 $83 $46 $-1 $84 forward single #
face $-1 $85 $86 $47 $-1 $87 reversed single #
face $-1 $88 $89 $48 $-1 $90 forward single #
face $-1 $91 $92 $49 $-1 $93 forward single #
face $-1 $94 $95 $50 $-1 $96 reversed single #
face $-1 $97 $98 $51 $-1 $99 forward single #
face $-1 $100 $101 $52 $-1 $102 forward single #
face $-1 $103 $104 $53 $-1 $105 reversed single #
face $-1 $106 $107 $54 $-1 $108 forward single #
face $-1 $109 $110 $55 $-1 $111 forward single #
face $-1 $112 $113 $42 $-1 $114 reversed single #
loop $-1 $-1 $115 $56 #
plane-surface $-1 0 0 6.561302985966817 0 0 1 1 0 0 forward_v I I I I #
face $-1 $116 $117 $43 $-1 $118 reversed single #
loop $-1 $-1 $119 $57 #
plane-surface $-1 0 -27.425487689248506 3.823284347420481 0 0 1 1 0 0 forward_v I I I I #
face $-1 $120 $121 $44 $-1 $122 reversed single #
loop $-1 $-1 $123 $58 #
plane-surface $-1 -139.10779857355615 -15.031601449806004 61.446356391561409 0 -1 0 0.81915205242281985 0 -0.57357642473473569 forward_v I I I I #
face $-1 $124 $125 $45 $-1 $126 forward single #
loop $-1 $127 $128 $59 #
cone-surface $-1 -49.923856071174249 -21.545537382142225 3.1718868912059457 0.81915205242281985 0 -0.57357642473473569 0.57357642473473569 0 0.81915205242281985 1 I I 0 1 1 forward I I I I #
face $-1 $129 $130 $46 $-1 $131 forward single #
loop $-1 $132 $133 $60 #
cone-surface $-1 -49.923856071174249 -17.637175822740495 3.1718868912059457 0.81915205242281985 0 -0.57357642473473569 0.57357642473473569 0 0.81915205242281985 1 I I 0 1 1 forward I I I I #
face $-1 $134 $135 $47 $-1 $136 reversed single #
loop $-1 $-1 $137 $61 #
plane-surface $-1 -139.10779857355615 12.393886239442502 61.446356391561409 0 -1 0 0.81915205242281985 0 -0.57357642473473569 forward_v I I I I #
face $-1 $138 $139 $48 $-1 $140 forward single #
loop $-1 $141 $142 $62 #
cone-surface $-1 -49.923856071174249 5.8799503071062844 3.1718868912059457 0.81915205242281985 0 -0.57357642473473569 0.57357642473473569 0 0.81915205242281985 1 I I 0 1 1 forward I I I I #
face $-1 $143 $144 $49 $-1 $145 forward single #
loop $-1 $146 $147 $63 #
cone-surface $-1 -49.923856071174249 9.7883118665080104 3.1718868912059457 0.81915205242281985 0 -0.57357642473473569 0.57357642473473569 0 0.81915205242281985 1 I I 0 1 1 forward I I I I #
face $-1 $148 $149 $50 $-1 $150 reversed single #
loop $-1 $-1 $151 $64 #
plane-surface $-1 -7.7588132868867064 -19.591356602441358 87.342904775249195 0.81915205242281985 0 0.57357642473473569 0.57357642473473569 0 -0.81915205242281985 forward_v I I I I #
face $-1 $152 $153 $51 $-1 $154 forward single #
loop $-1 $155 $156 $65 #
cone-surface $-1 49.923856071174249 -21.545537382142225 3.1718868912059315 -0.81915205242281985 0 -0.57357642473473569 0.57357642473473569 0 -0.81915205242281985 1 I I 0 1 1 forward I I I I #
face $-1 $157 $158 $52 $-1 $159 forward single #
loop $-1 $160 $161 $66 #
cone-surface $-1 49.923856071174249 -17.637175822740495 3.1718868912059315 -0.81915205242281985 0 -0.57357642473473569 0.57357642473473569 0 -0.81915205242281985 1 I I 0 1 1 forward I I I I #
face $-1 $162 $163 $53 $-1 $164 reversed single #
loop $-1 $-1 $165 $67 #
plane-surface $-1 78.622766835178624 3.2743759341717942 147.82793651362672 0 1 0 0.81915205242281985 0 0.57357642473473569 forward_v I I I I #
face $-1 $166 $167 $54 $-1 $168 forward single #
loop $-1 $169 $170 $68 #
cone-surface $-1 49.923856071174249 5.8799503071062844 3.1718868912059315 -0.81915205242281985 0 -0.57357642473473569 0.57357642473473569 0 -0.81915205242281985 1 I I 0 1 1 forward I I I I #
face $-1 $171 $172 $55 $-1 $173 forward single #
loop $-1 $174 $175 $69 #
cone-surface $-1 49.923856071174249 9.7883118665080104 3.1718868912059315 -0.81915205242281985 0 -0.57357642473473569 0.57357642473473569 0 -0.81915205242281985 1 I I 0 1 1 forward I I I I #
face $-1 $176 $177 $42 $-1 $178 reversed single #
loop $-1 $-1 $179 $70 #
plane-surface $-1 0 0 -6.561302985966817 0 0 1 1 0 0 forward_v I I I I #
coedge $-1 $180 $181 $182 $183 forward $71 $-1 #
face $-1 $184 $185 $43 $-1 $186 reversed single #
loop $-1 $-1 $187 $73 #
plane-surface $-1 0 -27.425487689248506 0.82328434742048096 0 0 1 1 0 0 forward_v I I I I #
coedge $-1 $188 $189 $190 $191 reversed $74 $-1 #
face $-1 $192 $193 $44 $-1 $194 forward single #
loop $-1 $-1 $195 $76 #
plane-surface $-1 -52.726218451490823 -19.591356602441358 0.96132465318388682 -0.81915205242281985 0 0.57357642473473569 0.57357642473473569 0 0.81915205242281985 forward_v I I I I #
coedge $-1 $196 $197 $198 $199 reversed $77 $-1 #
face $-1 $-1 $200 $45 $-1 $201 forward single #
loop $-1 $202 $203 $79 #
cone-surface $-1 -48.672491126685081 -21.545537382142225 2.2956717504691699 0.81915205242281985 0 -0.57357642473473569 0.28678821236736785 0 0.40957602621140993 1 I I -0.70710678118654746 0.70710678118654746 0.5 forward I I I I #
loop $-1 $-1 $204 $59 #
coedge $-1 $128 $128 $205 $206 reversed $80 $-1 #
face $-1 $-1 $207 $46 $-1 $208 forward single #
loop $-1 $209 $210 $82 #
cone-surface $-1 -48.672491126685081 -17.637175822740495 2.2956717504691699 0.81915205242281985 0 -0.57357642473473569 0.28678821236736785 0 0.40957602621140993 1 I I -0.70710678118654746 0.70710678118654746 0.5 forward I I I I #
loop $-1 $-1 $211 $60 #
coedge $-1 $133 $133 $212 $213 reversed $83 $-1 #
face $-1 $214 $215 $47 $-1 $216 reversed single #
loop $-1 $-1 $217 $85 #
plane-surface $-1 -52.726218451490823 7.8341310868071474 0.96132465318388682 -0.81915205242281985 0 0.57357642473473569 0.57357642473473569 0 0.81915205242281985 forward_v I I I I #
coedge $-1 $218 $219 $220 $221 reversed $86 $-1 #
face $-1 $-1 $222 $48 $-1 $223 forward single #
loop $-1 $224 $225 $88 #
cone-surface $-1 -48.672491126685081 5.8799503071062844 2.2956717504691699 0.81915205242281985 0 -0.57357642473473569 0.28678821236736785 0 0.40957602621140993 1 I I -0.70710678118654746 0.70710678118654746 0.5 forward I I I I #
loop $-1 $-1 $226 $62 #
coedge $-1 $142 $142 $227 $228 reversed $89 $-1 #
face $-1 $-1 $229 $49 $-1 $230 forward single #
loop $-1 $231 $232 $91 #
cone-surface $-1 -48.672491126685081 9.7883118665080104 2.2956717504691699 0.81915205242281985 0 -0.57357642473473569 0.28678821236736785 0 0.40957602621140993 1 I I -0.70710678118654746 0.70710678118654746 0.5 forward I I I I #
loop $-1 $-1 $233 $63 #
coedge $-1 $147 $147 $234 $235 reversed $92 $-1 #
face $-1 $236 $237 $50 $-1 $238 forward single #
loop $-1 $-1 $239 $94 #
plane-surface $-1 78.622766835178624 -15.031601449806004 147.82793651362672 0 -1 0 -0.81915205242281985 0 -0.57357642473473569 forward_v I I I I #
coedge $-1 $240 $241 $242 $243 reversed $95 $-1 #
face $-1 $-1 $244 $51 $-1 $245 forward single #
loop $-1 $246 $247 $97 #
cone-surface $-1 48.672491126685081 -21.545537382142225 2.2956717504691557 -0.81915205242281985 0 -0.57357642473473569 0.28678821236736785 0 -0.40957602621140993 1 I I -0.70710678118654746 0.70710678118654746 0.5 forward I I I I #
loop $-1 $-1 $248 $65 #
coedge $-1 $156 $156 $249 $250 reversed $98 $-1 #
face $-1 $-1 $251 $52 $-1 $252 forward single #
loop $-1 $253 $254 $100 #
cone-surface $-1 48.672491126685081 -17.637175822740495 2.2956717504691557 -0.81915205242281985 0 -0.57357642473473569 0.28678821236736785 0 -0.40957602621140993 1 I I -0.70710678118654746 0.70710678118654746 0.5 forward I I I I #
loop $-1 $-1 $255 $66 #
coedge $-1 $161 $161 $256 $257 reversed $101 $-1 #
face $-1 $258 $259 $53 $-1 $260 reversed single #
loop $-1 $-1 $261 $103 #
plane-surface $-1 -7.7588132868867064 7.8341310868071474 87.342904775249195 0.81915205242281985 0 0.57357642473473569 0.57357642473473569 0 -0.81915205242281985 forward_v I I I I #
coedge $-1 $262 $263 $264 $265 reversed $104 $-1 #
face $-1 $-1 $266 $54 $-1 $267 forward single #
loop $-1 $268 $269 $106 #
cone-surface $-1 48.672491126685081 5.8799503071062844 2.2956717504691557 -0.81915205242281985 0 -0.57357642473473569 0.28678821236736785 0 -0.40957602621140993 1 I I -0.70710678118654746 0.70710678118654746 0.5 forward I I I I #
loop $-1 $-1 $270 $68 #
coedge $-1 $170 $170 $271 $272 reversed $107 $-1 #
face $-1 $-1 $273 $55 $-1 $274 forward single #
loop $-1 $275 $276 $109 #
cone-surface $-1 48.672491126685081 9.7883118665080104 2.2956717504691557 -0.81915205242281985 0 -0.57357642473473569 0.28678821236736785 0 -0.40957602621140993 1 I I -0.70710678118654746 0.70710678118654746 0.5 forward I I I I #
loop $-1 $-1 $277 $69 #
coedge $-1 $175 $175 $278 $279 reversed $110 $-1 #
face $-1 $280 $281 $42 $-1 $282 reversed single #
loop $-1 $-1 $283 $112 #
plane-surface $-1 0 -30.699863623420299 0 0 1 0 0 0 1 forward_v I I I I #
coedge $-1 $284 $285 $286 $287 forward $113 $-1 #
coedge $-1 $288 $115 $289 $290 forward $71 $-1 #
coedge $-1 $115 $288 $291 $292 forward $71 $-1 #
coedge $-1 $293 $294 $115 $183 reversed $295 $-1 #
edge $-1 $296 -30.699863623420299 $297 30.699863623420299 $182 $298 forward 7 unknown #
face $-1 $299 $300 $43 $-1 $301 reversed single #
loop $-1 $-1 $302 $116 #
plane-surface $-1 0 -24.151111755076712 2.323284347420481 0 -1 0 0 0 -1 forward_v I I I I #
coedge $-1 $303 $304 $305 $306 reversed $117 $-1 #
coedge $-1 $307 $119 $308 $309 forward $74 $-1 #
coedge $-1 $119 $307 $310 $311 reversed $74 $-1 #
coedge $-1 $312 $313 $119 $191 forward $314 $-1 #
edge $-1 $315 10.43836791045246 $316 16.987119778796046 $190 $317 forward 7 unknown #
face $-1 $318 $319 $44 $-1 $320 forward single #
loop $-1 $-1 $321 $120 #
plane-surface $-1 0 -24.151111755076712 2.323284347420481 0 -1 0 0 0 -1 forward_v I I I I #
coedge $-1 $322 $323 $324 $325 reversed $121 $-1 #
coedge $-1 $197 $123 $326 $327 reversed $77 $-1 #
coedge $-1 $123 $196 $322 $328 reversed $77 $-1 #
coedge $-1 $324 $329 $123 $199 forward $330 $-1 #
edge $-1 $331 24.161875209813886 $332 29.761853542596828 $198 $333 forward 7 unknown #
loop $-1 $-1 $205 $124 #
plane-surface $-1 -52.726218451490823 -19.591356602441358 0.96132465318388682 -0.81915205242281985 0 0.57357642473473569 0.57357642473473569 0 0.81915205242281985 forward_v I I I I #
loop $-1 $-1 $334 $79 #
coedge $-1 $203 $203 $204 $335 reversed $125 $-1 #
coedge $-1 $204 $204 $203 $335 forward $127 $-1 #
coedge $-1 $205 $205 $128 $206 forward $200 $-1 #
edge $-1 $336 0 $336 6.2831853071796004 $205 $337 forward 7 unknown #
loop $-1 $-1 $212 $129 #
plane-surface $-1 -52.726218451490823 -19.591356602441358 0.96132465318388682 -0.81915205242281985 0 0.57357642473473569 0.57357642473473569 0 0.81915205242281985 forward_v I I I I #
loop $-1 $-1 $338 $82 #
coedge $-1 $210 $210 $211 $339 reversed $130 $-1 #
coedge $-1 $211 $211 $210 $339 forward $132 $-1 #
coedge $-1 $212 $212 $133 $213 forward $207 $-1 #
edge $-1 $340 0 $340 6.2831853071796004 $212 $341 forward 7 unknown #
face $-1 $342 $343 $47 $-1 $344 forward single #
loop $-1 $-1 $345 $134 #
plane-surface $-1 -139.10779857355615 3.2743759341717942 61.446356391561409 0 1 0 -0.81915205242281985 0 0.57357642473473569 forward_v I I I I #
coedge $-1 $346 $347 $348 $349 reversed $135 $-1 #
coedge $-1 $219 $137 $350 $351 reversed $86 $-1 #
coedge $-1 $137 $218 $346 $352 reversed $86 $-1 #
coedge $-1 $348 $353 $137 $221 forward $354 $-1 #
edge $-1 $355 24.161875209813886 $356 29.761853542596828 $220 $357 forward 7 unknown #
loop $-1 $-1 $227 $138 #
plane-surface $-1 -52.726218451490823 7.8341310868071474 0.96132465318388682 -0.81915205242281985 0 0.57357642473473569 0.57357642473473569 0 0.81915205242281985 forward_v I I I I #
loop $-1 $-1 $358 $88 #
coedge $-1 $225 $225 $226 $359 reversed $139 $-1 #
coedge $-1 $226 $226 $225 $359 forward $141 $-1 #
coedge $-1 $227 $227 $142 $228 forward $222 $-1 #
edge $-1 $360 0 $360 6.2831853071796004 $227 $361 forward 7 unknown #
loop $-1 $-1 $234 $143 #
plane-surface $-1 -52.726218451490823 7.8341310868071474 0.96132465318388682 -0.81915205242281985 0 0.57357642473473569 0.57357642473473569 0 0.81915205242281985 forward_v I I I I #
loop $-1 $-1 $362 $91 #
coedge $-1 $232 $232 $233 $363 reversed $144 $-1 #
coedge $-1 $233 $233 $232 $363 forward $146 $-1 #
coedge $-1 $234 $234 $147 $235 forward $229 $-1 #
edge $-1 $364 0 $364 6.2831853071796004 $234 $365 forward 7 unknown #
face $-1 $366 $367 $50 $-1 $368 forward single #
loop $-1 $-1 $369 $148 #
plane-surface $-1 0 0 6.561302985966817 0 0 1 1 0 0 forward_v I I I I #
coedge $-1 $370 $371 $372 $373 reversed $149 $-1 #
coedge $-1 $374 $151 $375 $376 reversed $95 $-1 #
coedge $-1 $151 $374 $370 $377 forward $95 $-1 #
coedge $-1 $372 $378 $151 $243 forward $379 $-1 #
edge $-1 $380 -14.355433453856033 $381 -5.235923148585325 $242 $382 forward 7 unknown #
loop $-1 $-1 $249 $152 #
plane-surface $-1 -7.7588132868867064 -19.591356602441358 87.342904775249195 0.81915205242281985 0 0.57357642473473569 0.57357642473473569 0 -0.81915205242281985 forward_v I I I I #
loop $-1 $-1 $383 $97 #
coedge $-1 $247 $247 $248 $384 reversed $153 $-1 #
coedge $-1 $248 $248 $247 $384 forward $155 $-1 #
coedge $-1 $249 $249 $156 $250 forward $244 $-1 #
edge $-1 $385 0 $385 6.2831853071796004 $249 $386 forward 7 unknown #
loop $-1 $-1 $256 $157 #
plane-surface $-1 -7.7588132868867064 -19.591356602441358 87.342904775249195 0.81915205242281985 0 0.57357642473473569 0.57357642473473569 0 -0.81915205242281985 forward_v I I I I #
loop $-1 $-1 $387 $100 #
coedge $-1 $254 $254 $255 $388 reversed $158 $-1 #
coedge $-1 $255 $255 $254 $388 forward $160 $-1 #
coedge $-1 $256 $256 $161 $257 forward $251 $-1 #
edge $-1 $389 0 $389 6.2831853071796004 $256 $390 forward 7 unknown #
face $-1 $391 $392 $53 $-1 $393 forward single #
loop $-1 $-1 $394 $162 #
plane-surface $-1 78.622766835178624 12.393886239442502 147.82793651362672 0 -1 0 -0.81915205242281985 0 -0.57357642473473569 forward_v I I I I #
coedge $-1 $395 $396 $397 $398 reversed $163 $-1 #
coedge $-1 $263 $165 $399 $400 reversed $104 $-1 #
coedge $-1 $165 $262 $395 $401 reversed $104 $-1 #
coedge $-1 $397 $402 $165 $265 forward $403 $-1 #
edge $-1 $404 67.352665270846543 $405 72.952643603629511 $264 $406 forward 7 unknown #
loop $-1 $-1 $271 $166 #
plane-surface $-1 -7.7588132868867064 7.8341310868071474 87.342904775249195 0.81915205242281985 0 0.57357642473473569 0.57357642473473569 0 -0.81915205242281985 forward_v I I I I #
loop $-1 $-1 $407 $106 #
coedge $-1 $269 $269 $270 $408 reversed $167 $-1 #
coedge $-1 $270 $270 $269 $408 forward $169 $-1 #
coedge $-1 $271 $271 $170 $272 forward $266 $-1 #
edge $-1 $409 0 $409 6.2831853071796004 $271 $410 forward 7 unknown #
loop $-1 $-1 $278 $171 #
plane-surface $-1 -7.7588132868867064 7.8341310868071474 87.342904775249195 0.81915205242281985 0 0.57357642473473569 0.57357642473473569 0 -0.81915205242281985 forward_v I I I I #
loop $-1 $-1 $411 $109 #
coedge $-1 $276 $276 $277 $412 reversed $172 $-1 #
coedge $-1 $277 $277 $276 $412 forward $174 $-1 #
coedge $-1 $278 $278 $175 $279 forward $273 $-1 #
edge $-1 $413 0 $413 6.2831853071796004 $278 $414 forward 7 unknown #
face $-1 $415 $416 $42 $-1 $417 reversed single #
loop $-1 $-1 $418 $176 #
plane-surface $-1 -52.72621845149083 0 0 1 0 0 0 0 -1 forward_v I I I I #
coedge $-1 $419 $291 $420 $421 forward $177 $-1 #
coedge $-1 $422 $179 $419 $423 forward $113 $-1 #
coedge $-1 $179 $422 $424 $425 forward $113 $-1 #
coedge $-1 $294 $293 $179 $287 reversed $295 $-1 #
edge $-1 $426 -30.699863623420299 $427 30.699863623420299 $286 $428 forward 7 unknown #
coedge $-1 $181 $180 $429 $430 forward $71 $-1 #
coedge $-1 $431 $432 $180 $290 reversed $416 $-1 #
edge $-1 $297 -52.72621845149083 $433 52.72621845149083 $289 $434 forward 7 unknown #
coedge $-1 $283 $435 $181 $292 reversed $177 $-1 #
edge $-1 $436 -52.72621845149083 $296 52.72621845149083 $291 $437 forward 7 unknown #
coedge $-1 $286 $182 $435 $438 forward $295 $-1 #
coedge $-1 $182 $286 $431 $439 reversed $295 $-1 #
loop $-1 $-1 $293 $415 #
vertex $-1 $183 $440 #
vertex $-1 $183 $441 #
straight-curve $-1 52.72621845149083 0 6.561302985966817 0 1 0 I I #
face $-1 $442 $443 $43 $-1 $444 reversed single #
loop $-1 $-1 $445 $184 #
plane-surface $-1 -52.72621845149083 0 0 1 0 0 0 0 -1 forward_v I I I I #
coedge $-1 $446 $308 $313 $447 reversed $185 $-1 #
coedge $-1 $448 $187 $449 $450 reversed $117 $-1 #
coedge $-1 $187 $448 $446 $451 forward $117 $-1 #
coedge $-1 $313 $312 $187 $306 forward $314 $-1 #
edge $-1 $452 -16.987119778796046 $453 -10.43836791045246 $305 $454 forward 7 unknown #
coedge $-1 $189 $188 $445 $455 reversed $74 $-1 #
coedge $-1 $302 $456 $188 $309 reversed $185 $-1 #
edge $-1 $315 -52.72621845149083 $457 52.72621845149083 $308 $458 forward 7 unknown #
coedge $-1 $459 $460 $189 $311 forward $443 $-1 #
edge $-1 $316 -52.72621845149083 $461 52.72621845149083 $310 $462 forward 7 unknown #
coedge $-1 $305 $190 $460 $463 forward $314 $-1 #
coedge $-1 $190 $305 $302 $447 forward $314 $-1 #
loop $-1 $-1 $190 $442 #
vertex $-1 $191 $464 #
vertex $-1 $463 $465 #
straight-curve $-1 52.72621845149083 -13.712743844624253 3.823284347420481 0 -1 0 I I #
face $-1 $-1 $330 $44 $-1 $466 reversed single #
loop $-1 $-1 $326 $192 #
plane-surface $-1 0 0 6.561302985966817 0 0 1 1 0 0 forward_v I I I I #
coedge $-1 $467 $468 $323 $469 reversed $193 $-1 #
coedge $-1 $470 $195 $197 $328 forward $121 $-1 #
coedge $-1 $195 $470 $321 $469 forward $121 $-1 #
coedge $-1 $471 $198 $195 $325 forward $330 $-1 #
edge $-1 $332 5.235923148585325 $472 14.355433453856033 $324 $473 forward 7 unknown #
coedge $-1 $474 $475 $196 $327 forward $319 $-1 #
edge $-1 $476 -20.748827759364886 $331 -16.827680835287246 $326 $477 forward 7 unknown #
edge $-1 $332 -1.2351422990330951e-014 $476 6.8363111783945127 $197 $478 forward 7 unknown #
coedge $-1 $198 $471 $474 $479 reversed $330 $-1 #
loop $-1 $-1 $324 $318 #
vertex $-1 $479 $480 #
vertex $-1 $199 $481 #
straight-curve $-1 -52.72621845149083 -15.031601449806004 30.723178195780704 0 0 -1 I I #
coedge $-1 $334 $334 $-1 $482 reversed $202 $-1 #
edge $-1 $483 0 $483 6.2831853071796004 $203 $484 forward 7 unknown #
vertex $-1 $206 $485 #
ellipse-curve $-1 -50.765644989452007 -21.545537382142225 3.7613138195753515 -0.81915205242281985 0 0.57357642473473569 0.57357642473473569 0 0.81915205242281985 1 I I #
coedge $-1 $338 $338 $-1 $486 reversed $209 $-1 #
edge $-1 $487 0 $487 6.2831853071796004 $210 $488 forward 7 unknown #
vertex $-1 $213 $489 #
ellipse-curve $-1 -50.765644989452007 -17.637175822740495 3.7613138195753515 -0.81915205242281985 0 0.57357642473473569 0.57357642473473569 0 0.81915205242281985 1 I I #
face $-1 $-1 $354 $47 $-1 $490 reversed single #
loop $-1 $-1 $491 $214 #
plane-surface $-1 0 0 6.561302985966817 0 0 1 1 0 0 forward_v I I I I #
coedge $-1 $492 $493 $494 $495 reversed $215 $-1 #
coedge $-1 $496 $217 $219 $352 forward $135 $-1 #
coedge $-1 $217 $496 $492 $497 forward $135 $-1 #
coedge $-1 $494 $220 $217 $349 forward $354 $-1 #
edge $-1 $356 -8.4768206960389278 $498 0.64268960923177954 $348 $499 forward 7 unknown #
coedge $-1 $500 $501 $218 $351 forward $343 $-1 #
edge $-1 $502 -20.748827759364886 $355 -16.827680835287246 $350 $503 forward 7 unknown #
edge $-1 $356 -1.2351422990330951e-014 $502 6.8363111783945127 $219 $504 forward 7 unknown #
coedge $-1 $220 $494 $500 $505 reversed $354 $-1 #
loop $-1 $-1 $494 $342 #
vertex $-1 $505 $506 #
vertex $-1 $221 $507 #
straight-curve $-1 -52.72621845149083 12.393886239442502 30.723178195780704 0 0 -1 I I #
coedge $-1 $358 $358 $-1 $508 reversed $224 $-1 #
edge $-1 $509 0 $509 6.2831853071796004 $225 $510 forward 7 unknown #
vertex $-1 $228 $511 #
ellipse-curve $-1 -50.765644989452007 5.8799503071062844 3.7613138195753515 -0.81915205242281985 0 0.57357642473473569 0.57357642473473569 0 0.81915205242281985 1 I I #
coedge $-1 $362 $362 $-1 $512 reversed $231 $-1 #
edge $-1 $513 0 $513 6.2831853071796004 $232 $514 forward 7 unknown #
vertex $-1 $235 $515 #
ellipse-curve $-1 -50.765644989452007 9.7883118665080104 3.7613138195753515 -0.81915205242281985 0 0.57357642473473569 0.57357642473473569 0 0.81915205242281985 1 I I #
face $-1 $-1 $379 $50 $-1 $516 reversed single #
loop $-1 $-1 $375 $236 #
plane-surface $-1 0 -24.151111755076712 2.323284347420481 0 -1 0 0 0 -1 forward_v I I I I #
coedge $-1 $517 $518 $371 $519 forward $237 $-1 #
coedge $-1 $371 $239 $241 $377 reversed $149 $-1 #
coedge $-1 $239 $370 $369 $519 reversed $149 $-1 #
coedge $-1 $520 $242 $239 $373 forward $379 $-1 #
edge $-1 $381 -72.952643603629511 $521 -67.352665270846543 $372 $522 forward 7 unknown #
coedge $-1 $241 $240 $517 $523 reversed $95 $-1 #
coedge $-1 $524 $525 $240 $376 forward $367 $-1 #
edge $-1 $526 61.568991247116202 $380 68.405302425510769 $375 $527 forward 7 unknown #
edge $-1 $528 98.616125724587121 $381 105.45243690298169 $370 $529 forward 7 unknown #
coedge $-1 $242 $520 $524 $530 forward $379 $-1 #
loop $-1 $-1 $372 $366 #
vertex $-1 $376 $531 #
vertex $-1 $243 $532 #
straight-curve $-1 52.726218451490837 -9.7956783012206792 0.96132465318383709 0 1 0 I I #
coedge $-1 $383 $383 $-1 $533 reversed $246 $-1 #
edge $-1 $534 0 $534 6.2831853071796004 $247 $535 forward 7 unknown #
vertex $-1 $250 $536 #
ellipse-curve $-1 50.765644989451999 -21.545537382142225 3.7613138195753306 0.81915205242281985 0 0.57357642473473569 0.57357642473473569 0 -0.81915205242281985 1 I I #
coedge $-1 $387 $387 $-1 $537 reversed $253 $-1 #
edge $-1 $538 0 $538 6.2831853071796004 $254 $539 forward 7 unknown #
vertex $-1 $257 $540 #
ellipse-curve $-1 50.765644989451999 -17.637175822740495 3.7613138195753306 0.81915205242281985 0 0.57357642473473569 0.57357642473473569 0 -0.81915205242281985 1 I I #
face $-1 $-1 $403 $53 $-1 $541 reversed single #
loop $-1 $-1 $542 $258 #
plane-surface $-1 0 0 6.561302985966817 0 0 1 1 0 0 forward_v I I I I #
coedge $-1 $543 $544 $545 $546 reversed $259 $-1 #
coedge $-1 $547 $261 $263 $401 forward $163 $-1 #
coedge $-1 $261 $547 $543 $548 forward $163 $-1 #
coedge $-1 $545 $264 $261 $398 forward $403 $-1 #
edge $-1 $405 -0.64268960923177954 $549 8.4768206960389278 $397 $550 forward 7 unknown #
coedge $-1 $551 $552 $262 $400 forward $392 $-1 #
edge $-1 $553 9.4936881098238501 $404 13.414835033901518 $399 $554 forward 7 unknown #
edge $-1 $405 -105.45243690298169 $553 -98.616125724587121 $263 $555 forward 7 unknown #
coedge $-1 $264 $545 $551 $556 reversed $403 $-1 #
loop $-1 $-1 $545 $391 #
vertex $-1 $556 $557 #
vertex $-1 $265 $558 #
straight-curve $-1 52.72621845149083 3.2743759341717942 73.913968256813362 0 0 -1 I I #
coedge $-1 $407 $407 $-1 $559 reversed $268 $-1 #
edge $-1 $560 0 $560 6.2831853071796004 $269 $561 forward 7 unknown #
vertex $-1 $272 $562 #
ellipse-curve $-1 50.765644989451999 5.8799503071062844 3.7613138195753306 0.81915205242281985 0 0.57357642473473569 0.57357642473473569 0 -0.81915205242281985 1 I I #
coedge $-1 $411 $411 $-1 $563 reversed $275 $-1 #
edge $-1 $564 0 $564 6.2831853071796004 $276 $565 forward 7 unknown #
vertex $-1 $279 $566 #
ellipse-curve $-1 50.765644989451999 9.7883118665080104 3.7613138195753306 0.81915205242281985 0 0.57357642473473569 0.57357642473473569 0 -0.81915205242281985 1 I I #
face $-1 $-1 $295 $42 $-1 $567 reversed single #
loop $-1 $-1 $431 $280 #
plane-surface $-1 0 30.699863623420299 0 0 -1 0 0 0 -1 forward_v I I I I #
coedge $-1 $568 $429 $432 $569 forward $281 $-1 #
coedge $-1 $435 $283 $284 $423 reversed $177 $-1 #
coedge $-1 $429 $568 $283 $421 reversed $281 $-1 #
edge $-1 $436 -6.561302985966817 $570 6.561302985966817 $420 $571 forward 7 unknown #
coedge $-1 $285 $284 $568 $572 forward $113 $-1 #
edge $-1 $427 -52.72621845149083 $570 52.72621845149083 $419 $573 forward 7 unknown #
coedge $-1 $432 $431 $285 $425 reversed $416 $-1 #
edge $-1 $574 -52.72621845149083 $426 52.72621845149083 $424 $575 forward 7 unknown #
vertex $-1 $287 $576 #
vertex $-1 $438 $577 #
straight-curve $-1 52.72621845149083 0 -6.561302985966817 0 -1 0 I I #
coedge $-1 $418 $420 $288 $430 reversed $281 $-1 #
edge $-1 $433 -30.699863623420299 $436 30.699863623420299 $429 $578 forward 7 unknown #
coedge $-1 $424 $289 $294 $439 forward $416 $-1 #
coedge $-1 $289 $424 $418 $569 reversed $416 $-1 #
vertex $-1 $290 $579 #
straight-curve $-1 0 30.699863623420299 6.561302985966817 -1 0 0 I I #
coedge $-1 $291 $419 $293 $438 reversed $177 $-1 #
vertex $-1 $430 $580 #
straight-curve $-1 0 -30.699863623420299 6.561302985966817 1 0 0 I I #
edge $-1 $296 -6.561302985966817 $427 6.561302985966817 $293 $581 forward 7 unknown #
edge $-1 $297 -6.561302985966817 $426 6.561302985966817 $294 $582 forward 7 unknown #
point $-1 52.72621845149083 -30.699863623420299 6.561302985966817 #
point $-1 52.72621845149083 30.699863623420299 6.561302985966817 #
face $-1 $-1 $314 $43 $-1 $583 reversed single #
loop $-1 $-1 $310 $299 #
plane-surface $-1 0 -30.699863623420299 0 0 1 0 0 0 1 forward_v I I I I #
coedge $-1 $584 $585 $307 $455 forward $300 $-1 #
coedge $-1 $456 $302 $304 $451 reversed $185 $-1 #
edge $-1 $453 -0.33835782628975952 $315 2.6616421737102405 $313 $586 forward 7 unknown #
coedge $-1 $304 $303 $587 $588 reversed $117 $-1 #
coedge $-1 $460 $459 $303 $450 forward $443 $-1 #
edge $-1 $589 -52.72621845149083 $452 52.72621845149083 $449 $590 forward 7 unknown #
edge $-1 $591 -52.72621845149083 $453 52.72621845149083 $446 $592 forward 7 unknown #
vertex $-1 $450 $593 #
vertex $-1 $306 $594 #
straight-curve $-1 52.72621845149083 -13.712743844624253 0.82328434742048096 0 1 0 I I #
edge $-1 $461 -16.987119778796046 $457 -10.43836791045246 $445 $595 forward 7 unknown #
coedge $-1 $308 $446 $584 $596 reversed $185 $-1 #
vertex $-1 $455 $597 #
straight-curve $-1 0 -24.151111755076712 3.823284347420481 -1 0 0 I I #
coedge $-1 $449 $310 $585 $598 forward $443 $-1 #
coedge $-1 $310 $449 $312 $463 reversed $443 $-1 #
vertex $-1 $598 $599 #
straight-curve $-1 0 -30.699863623420299 3.823284347420481 -1 0 0 I I #
edge $-1 $316 -3.823284347420481 $452 -0.82328434742048096 $312 $600 forward 7 unknown #
point $-1 52.72621845149083 -24.151111755076712 3.823284347420481 #
point $-1 52.72621845149083 -30.699863623420299 3.823284347420481 #
plane-surface $-1 -52.72621845149083 0 0 1 0 0 0 0 -1 forward_v I I I I #
coedge $-1 $468 $321 $601 $602 reversed $193 $-1 #
coedge $-1 $321 $467 $471 $603 reversed $193 $-1 #
edge $-1 $604 -6.8363111783945127 $472 1.2442367137257826e-014 $321 $605 forward 7 unknown #
coedge $-1 $323 $322 $475 $606 reversed $121 $-1 #
coedge $-1 $329 $324 $468 $603 forward $330 $-1 #
vertex $-1 $603 $607 #
straight-curve $-1 -52.72621845149083 -9.7956783012206792 0.96132465318387073 0 -1 0 I I #
coedge $-1 $601 $326 $329 $479 forward $319 $-1 #
coedge $-1 $326 $601 $470 $606 forward $319 $-1 #
vertex $-1 $327 $608 #
straight-curve $-1 -69.553899286778076 -15.031601449806004 6.5613029859668188 -1 0 0 I I #
straight-curve $-1 -52.726218451490823 -15.031601449806004 0.96132465318388682 0.57357642473473569 0 0.81915205242281985 I I #
edge $-1 $331 15.031601449806004 $609 24.151111755076712 $329 $610 forward 7 unknown #
point $-1 -52.72621845149083 -15.031601449806004 6.561302985966817 #
point $-1 -52.72621845149083 -15.031601449806004 0.96132465318387672 #
edge $-1 $611 1 $611 0 $334 $-1 forward 7 unknown #
vertex $-1 $335 $612 #
ellipse-curve $-1 -49.082067152896492 -21.545537382142225 2.5824599628365377 -0.81915205242281985 0 0.57357642473473569 0.57357642473473569 0 0.81915205242281985 1 I I #
point $-1 -50.192068564717275 -21.545537382142225 4.5804658719981735 #
edge $-1 $613 1 $613 0 $338 $-1 forward 7 unknown #
vertex $-1 $339 $614 #
ellipse-curve $-1 -49.082067152896492 -17.637175822740495 2.5824599628365377 -0.81915205242281985 0 0.57357642473473569 0.57357642473473569 0 0.81915205242281985 1 I I #
point $-1 -50.192068564717275 -17.637175822740495 4.5804658719981735 #
plane-surface $-1 -52.72621845149083 0 0 1 0 0 0 0 -1 forward_v I I I I #
coedge $-1 $501 $500 $493 $615 forward $343 $-1 #
coedge $-1 $493 $345 $347 $497 reversed $215 $-1 #
coedge $-1 $345 $492 $491 $615 reversed $215 $-1 #
coedge $-1 $353 $348 $345 $495 forward $354 $-1 #
edge $-1 $498 -29.761853542596828 $616 -24.161875209813886 $494 $617 forward 7 unknown #
coedge $-1 $347 $346 $501 $618 reversed $135 $-1 #
edge $-1 $619 -6.8363111783945127 $498 1.2351422990330951e-014 $492 $620 forward 7 unknown #
vertex $-1 $349 $621 #
straight-curve $-1 -52.72621845149083 3.9170655434035737 0.96132465318387073 0 -1 0 I I #
coedge $-1 $491 $350 $353 $505 forward $343 $-1 #
coedge $-1 $350 $491 $496 $618 forward $343 $-1 #
vertex $-1 $351 $622 #
straight-curve $-1 -69.553899286778076 12.393886239442502 6.5613029859668188 -1 0 0 I I #
straight-curve $-1 -52.726218451490823 12.393886239442502 0.96132465318388682 0.57357642473473569 0 0.81915205242281985 I I #
edge $-1 $355 -12.393886239442502 $616 -3.2743759341717942 $353 $623 forward 7 unknown #
point $-1 -52.72621845149083 12.393886239442502 6.561302985966817 #
point $-1 -52.72621845149083 12.393886239442502 0.96132465318387672 #
edge $-1 $624 1 $624 0 $358 $-1 forward 7 unknown #
vertex $-1 $359 $625 #
ellipse-curve $-1 -49.082067152896492 5.8799503071062844 2.5824599628365377 -0.81915205242281985 0 0.57357642473473569 0.57357642473473569 0 0.81915205242281985 1 I I #
point $-1 -50.192068564717275 5.8799503071062844 4.5804658719981735 #
edge $-1 $626 1 $626 0 $362 $-1 forward 7 unknown #
vertex $-1 $363 $627 #
ellipse-curve $-1 -49.082067152896492 9.7883118665080104 2.5824599628365377 -0.81915205242281985 0 0.57357642473473569 0.57357642473473569 0 0.81915205242281985 1 I I #
point $-1 -50.192068564717275 9.7883118665080104 4.5804658719981735 #
plane-surface $-1 52.72621845149083 0 0 -1 0 0 0 0 1 forward_v I I I I #
coedge $-1 $628 $369 $374 $523 forward $237 $-1 #
coedge $-1 $369 $628 $520 $629 forward $237 $-1 #
edge $-1 $521 -13.414835033901518 $528 -9.4936881098238501 $369 $630 forward 7 unknown #
coedge $-1 $378 $372 $518 $629 reversed $379 $-1 #
vertex $-1 $373 $631 #
straight-curve $-1 52.72621845149083 -15.031601449806004 73.913968256813362 0 0 1 I I #
edge $-1 $528 5.235923148585325 $526 14.355433453856033 $517 $632 forward 7 unknown #
coedge $-1 $525 $375 $378 $530 reversed $367 $-1 #
coedge $-1 $375 $524 $628 $633 reversed $367 $-1 #
vertex $-1 $633 $634 #
straight-curve $-1 13.490549653368021 -24.151111755076712 56.995668531644689 0.57357642473473569 0 -0.81915205242281985 I I #
vertex $-1 $523 $635 #
straight-curve $-1 -7.7588132868867064 -15.031601449806004 87.342904775249195 0.57357642473473569 0 -0.81915205242281985 I I #
edge $-1 $636 67.352665270846543 $380 72.952643603629511 $378 $637 forward 7 unknown #
point $-1 52.72621845149083 -24.151111755076712 0.96132465318384941 #
point $-1 52.726218451490823 -15.031601449806004 0.9613246531838513 #
edge $-1 $638 1 $638 0 $383 $-1 forward 7 unknown #
vertex $-1 $384 $639 #
ellipse-curve $-1 49.082067152896492 -21.545537382142225 2.5824599628365235 0.81915205242281985 0 0.57357642473473569 0.57357642473473569 0 -0.81915205242281985 1 I I #
point $-1 51.339221414186753 -21.545537382142225 2.9421617671525198 #
edge $-1 $640 1 $640 0 $387 $-1 forward 7 unknown #
vertex $-1 $388 $641 #
ellipse-curve $-1 49.082067152896492 -17.637175822740495 2.5824599628365235 0.81915205242281985 0 0.57357642473473569 0.57357642473473569 0 -0.81915205242281985 1 I I #
point $-1 51.339221414186753 -17.637175822740495 2.9421617671525198 #
plane-surface $-1 52.72621845149083 0 0 -1 0 0 0 0 1 forward_v I I I I #
coedge $-1 $552 $551 $544 $642 forward $392 $-1 #
coedge $-1 $544 $394 $396 $548 reversed $259 $-1 #
coedge $-1 $394 $543 $542 $642 reversed $259 $-1 #
coedge $-1 $402 $397 $394 $546 forward $403 $-1 #
edge $-1 $549 -72.952643603629511 $643 -67.352665270846543 $545 $644 forward 7 unknown #
coedge $-1 $396 $395 $552 $645 reversed $163 $-1 #
edge $-1 $646 98.616125724587121 $549 105.45243690298169 $543 $647 forward 7 unknown #
vertex $-1 $398 $648 #
straight-curve $-1 52.726218451490837 3.9170655434035737 0.96132465318383709 0 1 0 I I #
coedge $-1 $542 $399 $402 $556 forward $392 $-1 #
coedge $-1 $399 $542 $547 $645 forward $392 $-1 #
vertex $-1 $400 $649 #
straight-curve $-1 39.311383417589312 3.2743759341717942 6.5613029859668188 1 0 0 I I #
straight-curve $-1 -7.7588132868867064 3.2743759341717942 87.342904775249195 -0.57357642473473569 0 0.81915205242281985 I I #
edge $-1 $404 3.2743759341717942 $643 12.393886239442502 $402 $650 forward 7 unknown #
point $-1 52.72621845149083 3.2743759341717942 6.561302985966817 #
point $-1 52.726218451490823 3.2743759341717942 0.9613246531838513 #
edge $-1 $651 1 $651 0 $407 $-1 forward 7 unknown #
vertex $-1 $408 $652 #
ellipse-curve $-1 49.082067152896492 5.8799503071062844 2.5824599628365235 0.81915205242281985 0 0.57357642473473569 0.57357642473473569 0 -0.81915205242281985 1 I I #
point $-1 51.339221414186753 5.8799503071062844 2.9421617671525198 #
edge $-1 $653 1 $653 0 $411 $-1 forward 7 unknown #
vertex $-1 $412 $654 #
ellipse-curve $-1 49.082067152896492 9.7883118665080104 2.5824599628365235 0.81915205242281985 0 0.57357642473473569 0.57357642473473569 0 -0.81915205242281985 1 I I #
point $-1 51.339221414186753 9.7883118665080104 2.9421617671525198 #
plane-surface $-1 52.72621845149083 0 0 -1 0 0 0 0 1 forward_v I I I I #
coedge $-1 $420 $418 $422 $572 reversed $281 $-1 #
edge $-1 $433 -6.561302985966817 $574 6.561302985966817 $432 $655 forward 7 unknown #
vertex $-1 $572 $656 #
straight-curve $-1 -52.72621845149083 -30.699863623420299 0 0 0 -1 I I #
edge $-1 $570 -30.699863623420299 $574 30.699863623420299 $568 $657 forward 7 unknown #
straight-curve $-1 0 -30.699863623420299 -6.561302985966817 -1 0 0 I I #
vertex $-1 $425 $658 #
straight-curve $-1 0 30.699863623420299 -6.561302985966817 1 0 0 I I #
point $-1 52.72621845149083 30.699863623420299 -6.561302985966817 #
point $-1 52.72621845149083 -30.699863623420299 -6.561302985966817 #
straight-curve $-1 -52.72621845149083 0 6.561302985966817 0 -1 0 I I #
point $-1 -52.72621845149083 30.699863623420299 6.561302985966817 #
point $-1 -52.72621845149083 -30.699863623420299 6.561302985966817 #
straight-curve $-1 52.72621845149083 -30.699863623420299 0 0 0 -1 I I #
straight-curve $-1 52.72621845149083 30.699863623420299 0 0 0 -1 I I #
plane-surface $-1 52.72621845149083 0 0 -1 0 0 0 0 1 forward_v I I I I #
coedge $-1 $587 $445 $456 $596 forward $300 $-1 #
coedge $-1 $445 $587 $459 $598 reversed $300 $-1 #
straight-curve $-1 52.72621845149083 -24.151111755076712 1.1616421737102405 0 0 1 I I #
coedge $-1 $585 $584 $448 $588 forward $300 $-1 #
edge $-1 $591 10.43836791045246 $589 16.987119778796046 $587 $659 forward 7 unknown #
vertex $-1 $450 $660 #
straight-curve $-1 0 -30.699863623420299 0.82328434742048096 1 0 0 I I #
vertex $-1 $588 $661 #
straight-curve $-1 0 -24.151111755076712 0.82328434742048096 1 0 0 I I #
point $-1 52.72621845149083 -30.699863623420299 0.82328434742048096 #
point $-1 52.72621845149083 -24.151111755076712 0.82328434742048096 #
straight-curve $-1 -52.72621845149083 -13.712743844624253 3.823284347420481 0 1 0 I I #
edge $-1 $457 -2.6616421737102405 $591 0.33835782628975952 $584 $662 forward 7 unknown #
point $-1 -52.72621845149083 -24.151111755076712 3.823284347420481 #
edge $-1 $461 -3.823284347420481 $589 -0.82328434742048096 $585 $663 forward 7 unknown #
point $-1 -52.72621845149083 -30.699863623420299 3.823284347420481 #
straight-curve $-1 52.72621845149083 -30.699863623420299 0 0 0 -1 I I #
coedge $-1 $475 $474 $467 $602 forward $319 $-1 #
edge $-1 $609 16.827680835287246 $604 20.748827759364886 $601 $664 forward 7 unknown #
edge $-1 $472 -29.761853542596828 $609 -24.161875209813886 $471 $665 forward 7 unknown #
vertex $-1 $606 $666 #
straight-curve $-1 -52.726218451490823 -24.151111755076712 0.96132465318388682 -0.57357642473473569 0 -0.81915205242281985 I I #
edge $-1 $604 -14.355433453856033 $476 -5.235923148585325 $475 $667 forward 7 unknown #
point $-1 -52.72621845149083 -24.151111755076712 0.96132465318387661 #
point $-1 -48.80507152741319 -15.031601449806004 6.561302985966817 #
vertex $-1 $603 $668 #
straight-curve $-1 -52.72621845149083 0 6.561302985966817 0 -1 0 I I #
vertex $-1 $482 $669 #
point $-1 -48.508490728161753 -21.545537382142225 3.4016120152593574 #
vertex $-1 $486 $670 #
point $-1 -48.508490728161753 -17.637175822740495 3.4016120152593574 #
edge $-1 $616 16.827680835287246 $619 20.748827759364886 $491 $671 forward 7 unknown #
vertex $-1 $495 $672 #
straight-curve $-1 -52.72621845149083 3.2743759341717942 30.723178195780704 0 0 1 I I #
edge $-1 $619 -0.64268960923177954 $502 8.4768206960389278 $501 $673 forward 7 unknown #
vertex $-1 $618 $674 #
straight-curve $-1 -52.726218451490823 3.2743759341717942 0.96132465318388682 -0.57357642473473569 0 -0.81915205242281985 I I #
point $-1 -52.72621845149083 3.2743759341717942 0.96132465318387672 #
point $-1 -48.80507152741319 12.393886239442502 6.561302985966817 #
straight-curve $-1 -52.72621845149083 0 6.561302985966817 0 -1 0 I I #
vertex $-1 $508 $675 #
point $-1 -48.508490728161753 5.8799503071062844 3.4016120152593574 #
vertex $-1 $512 $676 #
point $-1 -48.508490728161753 9.7883118665080104 3.4016120152593574 #
coedge $-1 $518 $517 $525 $633 forward $237 $-1 #
edge $-1 $636 -24.151111755076712 $521 -15.031601449806004 $520 $677 forward 7 unknown #
straight-curve $-1 39.311383417589312 -15.031601449806004 6.5613029859668188 -1 0 0 I I #
point $-1 52.72621845149083 -15.031601449806004 6.561302985966817 #
straight-curve $-1 48.805071527413176 -9.7956783012206792 6.5613029859668117 0 -1 0 I I #
edge $-1 $526 9.4936881098238501 $636 13.414835033901518 $628 $678 forward 7 unknown #
point $-1 48.805071527413162 -24.151111755076712 6.5613029859668188 #
point $-1 48.805071527413162 -15.031601449806004 6.5613029859668188 #
vertex $-1 $629 $679 #
straight-curve $-1 52.72621845149083 -24.151111755076712 73.913968256813362 0 0 -1 I I #
vertex $-1 $533 $680 #
point $-1 49.655643577631224 -21.545537382142225 1.7633079104137037 #
vertex $-1 $537 $681 #
point $-1 49.655643577631224 -17.637175822740495 1.7633079104137037 #
edge $-1 $643 -13.414835033901518 $646 -9.4936881098238501 $542 $682 forward 7 unknown #
vertex $-1 $546 $683 #
straight-curve $-1 52.72621845149083 12.393886239442502 73.913968256813362 0 0 1 I I #
edge $-1 $646 -8.4768206960389278 $553 0.64268960923177954 $552 $684 forward 7 unknown #
vertex $-1 $645 $685 #
straight-curve $-1 -7.7588132868867064 12.393886239442502 87.342904775249195 0.57357642473473569 0 -0.81915205242281985 I I #
point $-1 52.726218451490823 12.393886239442502 0.9613246531838513 #
point $-1 48.805071527413162 3.2743759341717942 6.5613029859668188 #
straight-curve $-1 52.72621845149083 0 6.561302985966817 0 1 0 I I #
vertex $-1 $559 $686 #
point $-1 49.655643577631224 5.8799503071062844 1.7633079104137037 #
vertex $-1 $563 $687 #
point $-1 49.655643577631224 9.7883118665080104 1.7633079104137037 #
straight-curve $-1 -52.72621845149083 30.699863623420299 0 0 0 -1 I I #
point $-1 -52.72621845149083 -30.699863623420299 -6.561302985966817 #
straight-curve $-1 -52.72621845149083 0 -6.561302985966817 0 1 0 I I #
point $-1 -52.72621845149083 30.699863623420299 -6.561302985966817 #
straight-curve $-1 -52.72621845149083 -13.712743844624253 0.82328434742048096 0 -1 0 I I #
point $-1 -52.72621845149083 -30.699863623420299 0.82328434742048096 #
point $-1 -52.72621845149083 -24.151111755076712 0.82328434742048096 #
straight-curve $-1 -52.72621845149083 -24.151111755076712 1.1616421737102405 0 0 -1 I I #
straight-curve $-1 -52.72621845149083 -30.699863623420299 0 0 0 -1 I I #
straight-curve $-1 -69.553899286778076 -24.151111755076712 6.5613029859668188 1 0 0 I I #
straight-curve $-1 -52.72621845149083 -24.151111755076712 30.723178195780704 0 0 1 I I #
point $-1 -48.80507152741319 -24.151111755076712 6.561302985966817 #
straight-curve $-1 -48.80507152741319 -9.7956783012206792 6.561302985966817 0 1 0 I I #
point $-1 -52.72621845149083 -24.151111755076712 6.561302985966817 #
point $-1 -48.26291510047367 -21.545537382142225 2.0088835381018022 #
point $-1 -48.26291510047367 -17.637175822740495 2.0088835381018022 #
straight-curve $-1 -69.553899286778076 3.2743759341717942 6.5613029859668188 1 0 0 I I #
point $-1 -52.72621845149083 3.2743759341717942 6.561302985966817 #
straight-curve $-1 -48.80507152741319 3.9170655434035737 6.561302985966817 0 1 0 I I #
point $-1 -48.80507152741319 3.2743759341717942 6.561302985966817 #
point $-1 -48.26291510047367 5.8799503071062844 2.0088835381018022 #
point $-1 -48.26291510047367 9.7883118665080104 2.0088835381018022 #
straight-curve $-1 52.72621845149083 0 6.561302985966817 0 1 0 I I #
straight-curve $-1 39.311383417589312 -24.151111755076712 6.5613029859668188 1 0 0 I I #
point $-1 52.72621845149083 -24.151111755076712 6.561302985966817 #
point $-1 48.26291510047367 -21.545537382142225 2.008883538101788 #
point $-1 48.26291510047367 -17.637175822740495 2.008883538101788 #
straight-curve $-1 39.311383417589312 12.393886239442502 6.5613029859668188 -1 0 0 I I #
point $-1 52.72621845149083 12.393886239442502 6.561302985966817 #
straight-curve $-1 48.805071527413176 3.9170655434035737 6.5613029859668117 0 -1 0 I I #
point $-1 48.805071527413162 12.393886239442502 6.5613029859668188 #
point $-1 48.26291510047367 5.8799503071062844 2.008883538101788 #
point $-1 48.26291510047367 9.7883118665080104 2.008883538101788 #
End-of-ACIS-data 