500 0 6 0           
7 Unknown 11 ACIS 5.0 NT 24 Thu Mar 25 20:54:17 1999 
-1 9.9999999999999995e-007 1e-010 
body $-1 $6 $-1 $7 #
body $-1 $8 $-1 $9 #
body $-1 $10 $-1 $11 #
body $-1 $12 $-1 $13 #
body $-1 $14 $-1 $15 #
body $-1 $16 $-1 $17 #
lump $-1 $-1 $18 $0 #
transform $-1 1 0 0 0 1 0 0 0 1 61.629078035828726 30.06446497022344 13.384545293927685 1 rotate no_reflect no_shear #
lump $-1 $-1 $19 $1 #
transform $-1 1 0 0 0 1 0 0 0 1 61.629078035828726 30.06446497022344 13.384545293927685 1 rotate no_reflect no_shear #
lump $-1 $-1 $20 $2 #
transform $-1 1 0 0 0 1 0 0 0 1 61.629078035828726 30.06446497022344 13.384545293927685 1 rotate no_reflect no_shear #
lump $-1 $-1 $21 $3 #
transform $-1 1 0 0 0 1 0 0 0 1 61.629078035828726 30.06446497022344 13.384545293927685 1 rotate no_reflect no_shear #
lump $-1 $-1 $22 $4 #
transform $-1 1 0 0 0 1 0 0 0 1 61.629078035828726 30.06446497022344 13.384545293927685 1 rotate no_reflect no_shear #
lump $-1 $-1 $23 $5 #
transform $-1 1 0 0 0 1 0 0 0 1 61.629078035828726 30.06446497022344 13.384545293927685 1 rotate no_reflect no_shear #
shell $-1 $-1 $-1 $24 $-1 $6 #
shell $-1 $-1 $-1 $25 $-1 $8 #
shell $-1 $-1 $-1 $26 $-1 $10 #
shell $-1 $-1 $-1 $27 $-1 $12 #
shell $-1 $-1 $-1 $28 $-1 $14 #
shell $-1 $-1 $-1 $29 $-1 $16 #
face $-1 $30 $31 $18 $-1 $32 forward single #
face $-1 $33 $34 $19 $-1 $35 forward single #
face $-1 $36 $37 $20 $-1 $38 reversed single #
face $-1 $39 $40 $21 $-1 $41 forward single #
face $-1 $42 $43 $22 $-1 $44 reversed single #
face $-1 $45 $46 $23 $-1 $47 forward single #
face $-1 $48 $49 $18 $-1 $50 reversed single #
loop $-1 $-1 $51 $24 #
plane-surface $-1 0 0 13.384545293927685 0 0 1 1 0 0 forward_v I I I I #
face $-1 $52 $53 $19 $-1 $54 reversed single #
loop $-1 $-1 $55 $25 #
plane-surface $-1 -52.94463344263518 0 -10.181355276961769 0 0 1 1 0 0 forward_v I I I I #
face $-1 $56 $57 $20 $-1 $58 reversed single #
loop $-1 $-1 $59 $26 #
plane-surface $-1 -8.875005752413113 -98.989552036181422 108.15706444486568 1 0 0 0 0.55919291073839883 -0.82903756765294845 forward_v I I I I #
face $-1 $60 $61 $21 $-1 $62 forward single #
loop $-1 $63 $64 $27 #
cone-surface $-1 -0.09528057960977776 -23.734406136222891 8.4402594447942985 0 0.55919291073839883 -0.82903756765294845 2.5 0 0 1 I I 0 1 2.5 forward I I I I #
face $-1 $65 $66 $22 $-1 $67 reversed single #
loop $-1 $-1 $68 $28 #
plane-surface $-1 26.243894938800221 -98.989552036181422 108.15706444486568 -1 0 0 0 -0.55919291073839883 0.82903756765294845 forward_v I I I I #
face $-1 $69 $70 $23 $-1 $71 forward single #
loop $-1 $72 $73 $29 #
cone-surface $-1 17.464169765996886 -23.734406136222891 8.4402594447942985 0 0.55919291073839883 -0.82903756765294845 2.5 0 0 1 I I 0 1 2.5 forward I I I I #
face $-1 $74 $75 $18 $-1 $76 reversed single #
loop $-1 $-1 $77 $30 #
plane-surface $-1 0 0 -13.384545293927685 0 0 1 1 0 0 forward_v I I I I #
coedge $-1 $78 $79 $80 $81 forward $31 $-1 #
face $-1 $82 $83 $19 $-1 $84 reversed single #
loop $-1 $-1 $85 $33 #
plane-surface $-1 -44.260188849441633 0 -11.782950285444727 -1 0 0 0 0 1 forward_v I I I I #
coedge $-1 $86 $87 $88 $89 forward $34 $-1 #
face $-1 $90 $91 $20 $-1 $92 reversed single #
loop $-1 $-1 $93 $36 #
plane-surface $-1 -0.09528057960977776 -30.06446497022344 5.9714225418312878 0 -0.55919291073839883 0.82903756765294845 1 0 0 forward_v I I I I #
coedge $-1 $94 $95 $96 $97 reversed $37 $-1 #
face $-1 $-1 $98 $21 $-1 $99 forward single #
loop $-1 $100 $101 $39 #
cone-surface $-1 -0.09528057960977776 -22.20055928341278 6.1662380121429283 0 0.55919291073839883 -0.82903756765294845 1.25 0 0 1 I I -0.70710678118654746 0.70710678118654746 1.25 forward I I I I #
loop $-1 $-1 $102 $27 #
coedge $-1 $64 $64 $103 $104 reversed $40 $-1 #
face $-1 $105 $106 $22 $-1 $107 forward single #
loop $-1 $-1 $108 $42 #
plane-surface $-1 -0.09528057960977776 -30.06446497022344 5.9714225418312878 0 -0.55919291073839883 0.82903756765294845 1 0 0 forward_v I I I I #
coedge $-1 $109 $110 $111 $112 reversed $43 $-1 #
face $-1 $-1 $113 $23 $-1 $114 forward single #
loop $-1 $115 $116 $45 #
cone-surface $-1 17.464169765996886 -22.20055928341278 6.1662380121429283 0 0.55919291073839883 -0.82903756765294845 1.25 0 0 1 I I -0.70710678118654746 0.70710678118654746 1.25 forward I I I I #
loop $-1 $-1 $117 $29 #
coedge $-1 $73 $73 $118 $119 reversed $46 $-1 #
face $-1 $120 $121 $18 $-1 $122 reversed single #
loop $-1 $-1 $123 $48 #
plane-surface $-1 0 -30.06446497022344 0 0 1 0 0 0 1 forward_v I I I I #
coedge $-1 $124 $125 $126 $127 forward $49 $-1 #
coedge $-1 $128 $51 $129 $130 forward $31 $-1 #
coedge $-1 $51 $128 $131 $132 forward $31 $-1 #
coedge $-1 $133 $134 $51 $81 reversed $135 $-1 #
edge $-1 $136 -30.06446497022344 $137 30.06446497022344 $80 $138 forward 7 unknown #
face $-1 $139 $140 $19 $-1 $141 reversed single #
loop $-1 $-1 $142 $52 #
plane-surface $-1 0 0 -13.384545293927685 0 0 1 1 0 0 forward_v I I I I #
coedge $-1 $143 $88 $144 $145 reversed $53 $-1 #
coedge $-1 $146 $55 $147 $148 reversed $34 $-1 #
coedge $-1 $55 $146 $149 $150 reversed $34 $-1 #
coedge $-1 $85 $151 $55 $89 reversed $53 $-1 #
edge $-1 $152 -30.06446497022344 $153 30.06446497022344 $88 $154 forward 7 unknown #
face $-1 $155 $156 $20 $-1 $157 forward single #
loop $-1 $-1 $158 $56 #
plane-surface $-1 8.6844445931935574 -98.989552036181422 108.15706444486568 -1 0 0 0 -0.55919291073839883 0.82903756765294845 forward_v I I I I #
coedge $-1 $159 $160 $161 $162 reversed $57 $-1 #
coedge $-1 $95 $59 $163 $164 reversed $37 $-1 #
coedge $-1 $59 $94 $159 $165 reversed $37 $-1 #
coedge $-1 $161 $166 $59 $97 forward $167 $-1 #
edge $-1 $168 40.693986928505154 $169 48.107109680601553 $96 $170 forward 7 unknown #
loop $-1 $-1 $103 $60 #
plane-surface $-1 -0.09528057960977776 -30.06446497022344 5.9714225418312878 0 -0.55919291073839883 0.82903756765294845 1 0 0 forward_v I I I I #
loop $-1 $-1 $171 $39 #
coedge $-1 $101 $101 $102 $172 reversed $61 $-1 #
coedge $-1 $102 $102 $101 $172 forward $63 $-1 #
coedge $-1 $103 $103 $64 $104 forward $98 $-1 #
edge $-1 $173 -1.3858139105096109e-017 $173 6.2831853071796004 $103 $174 forward 7 unknown #
face $-1 $175 $176 $22 $-1 $177 forward single #
loop $-1 $-1 $178 $65 #
plane-surface $-1 0 0 13.384545293927685 0 0 1 1 0 0 forward_v I I I I #
coedge $-1 $179 $180 $181 $182 reversed $66 $-1 #
coedge $-1 $110 $68 $183 $184 reversed $43 $-1 #
coedge $-1 $68 $109 $178 $185 reversed $43 $-1 #
coedge $-1 $186 $187 $68 $112 forward $188 $-1 #
edge $-1 $189 -48.107109680601553 $190 -40.693986928505154 $111 $191 forward 7 unknown #
loop $-1 $-1 $118 $69 #
plane-surface $-1 -0.09528057960977776 -30.06446497022344 5.9714225418312878 0 -0.55919291073839883 0.82903756765294845 1 0 0 forward_v I I I I #
loop $-1 $-1 $192 $45 #
coedge $-1 $116 $116 $117 $193 reversed $70 $-1 #
coedge $-1 $117 $117 $116 $193 forward $72 $-1 #
coedge $-1 $118 $118 $73 $119 forward $113 $-1 #
edge $-1 $194 -1.3858139105096109e-017 $194 6.2831853071796004 $118 $195 forward 7 unknown #
face $-1 $196 $197 $18 $-1 $198 reversed single #
loop $-1 $-1 $199 $74 #
plane-surface $-1 -61.629078035828726 0 0 1 0 0 0 0 -1 forward_v I I I I #
coedge $-1 $200 $131 $201 $202 forward $75 $-1 #
coedge $-1 $203 $77 $200 $204 forward $49 $-1 #
coedge $-1 $77 $203 $205 $206 forward $49 $-1 #
coedge $-1 $134 $133 $77 $127 reversed $135 $-1 #
edge $-1 $207 -30.06446497022344 $208 30.06446497022344 $126 $209 forward 7 unknown #
coedge $-1 $79 $78 $210 $211 forward $31 $-1 #
coedge $-1 $212 $213 $78 $130 reversed $197 $-1 #
edge $-1 $137 -61.629078035828726 $214 61.629078035828726 $129 $215 forward 7 unknown #
coedge $-1 $123 $216 $79 $132 reversed $75 $-1 #
edge $-1 $217 -61.629078035828726 $136 61.629078035828726 $131 $218 forward 7 unknown #
coedge $-1 $126 $80 $216 $219 forward $135 $-1 #
coedge $-1 $80 $126 $212 $220 reversed $135 $-1 #
loop $-1 $-1 $133 $196 #
vertex $-1 $81 $221 #
vertex $-1 $81 $222 #
straight-curve $-1 61.629078035828726 0 13.384545293927685 0 1 0 I I #
face $-1 $223 $224 $19 $-1 $225 reversed single #
loop $-1 $-1 $144 $82 #
plane-surface $-1 0 -30.06446497022344 0 0 1 0 0 0 1 forward_v I I I I #
coedge $-1 $226 $227 $143 $228 forward $83 $-1 #
coedge $-1 $151 $85 $142 $228 reversed $53 $-1 #
coedge $-1 $149 $229 $85 $145 forward $140 $-1 #
edge $-1 $230 -7.4930701512053215 $152 -4.2898801342394055 $144 $231 forward 7 unknown #
coedge $-1 $87 $86 $232 $233 reversed $34 $-1 #
coedge $-1 $234 $235 $86 $148 forward $236 $-1 #
edge $-1 $237 -35.156761314511137 $153 -17.787872128124043 $147 $238 forward 7 unknown #
coedge $-1 $239 $144 $87 $150 forward $140 $-1 #
edge $-1 $152 17.787872128124043 $240 35.156761314511137 $149 $241 forward 7 unknown #
coedge $-1 $88 $143 $234 $242 reversed $53 $-1 #
vertex $-1 $150 $243 #
vertex $-1 $148 $244 #
straight-curve $-1 -44.260188849441633 0 -10.181355276961769 0 1 0 I I #
face $-1 $-1 $167 $20 $-1 $245 reversed single #
loop $-1 $-1 $246 $90 #
plane-surface $-1 0 0 13.384545293927685 0 0 1 1 0 0 forward_v I I I I #
coedge $-1 $247 $248 $249 $250 reversed $91 $-1 #
coedge $-1 $251 $93 $95 $165 forward $57 $-1 #
coedge $-1 $93 $251 $247 $252 forward $57 $-1 #
coedge $-1 $249 $96 $93 $162 forward $167 $-1 #
edge $-1 $169 -8.8273654626082241 $253 8.7320848829984463 $161 $254 forward 7 unknown #
coedge $-1 $255 $256 $94 $164 forward $156 $-1 #
edge $-1 $257 -30.420717287094135 $168 -19.430311047867271 $163 $258 forward 7 unknown #
edge $-1 $169 0 $257 13.256825345492262 $95 $259 forward 7 unknown #
coedge $-1 $96 $249 $255 $260 reversed $167 $-1 #
loop $-1 $-1 $249 $155 #
vertex $-1 $260 $261 #
vertex $-1 $97 $262 #
straight-curve $-1 -8.875005752413113 -30.06446497022344 54.078532222432841 0 0 -1 I I #
coedge $-1 $171 $171 $-1 $263 reversed $100 $-1 #
edge $-1 $264 0 $264 6.2831853071796004 $101 $265 forward 7 unknown #
vertex $-1 $104 $266 #
ellipse-curve $-1 -0.09528057960977776 -24.569261850610005 9.6779839178794891 0 -0.55919291073839883 0.82903756765294845 2.5 0 0 1 I I #
face $-1 $-1 $188 $22 $-1 $267 reversed single #
loop $-1 $-1 $268 $105 #
plane-surface $-1 8.6844445931935574 -98.989552036181422 108.15706444486568 -1 0 0 0 -0.55919291073839883 0.82903756765294845 forward_v I I I I #
coedge $-1 $269 $270 $110 $185 forward $106 $-1 #
coedge $-1 $183 $108 $269 $271 reversed $66 $-1 #
coedge $-1 $108 $183 $187 $272 reversed $66 $-1 #
coedge $-1 $268 $273 $108 $182 forward $176 $-1 #
edge $-1 $274 -13.256825345492262 $275 0 $181 $276 forward 7 unknown #
coedge $-1 $180 $179 $109 $184 forward $66 $-1 #
edge $-1 $277 -13.256825345492262 $189 0 $109 $278 forward 7 unknown #
edge $-1 $190 19.430311047867271 $277 30.420717287094135 $178 $279 forward 7 unknown #
coedge $-1 $280 $111 $270 $281 reversed $188 $-1 #
coedge $-1 $111 $280 $180 $272 forward $188 $-1 #
loop $-1 $-1 $111 $175 #
vertex $-1 $112 $282 #
vertex $-1 $185 $283 #
straight-curve $-1 26.243894938800221 -30.06446497022344 54.078532222432841 0 0 1 I I #
coedge $-1 $192 $192 $-1 $284 reversed $115 $-1 #
edge $-1 $285 0 $285 6.2831853071796004 $116 $286 forward 7 unknown #
vertex $-1 $119 $287 #
ellipse-curve $-1 17.464169765996886 -24.569261850610005 9.6779839178794891 0 -0.55919291073839883 0.82903756765294845 2.5 0 0 1 I I #
face $-1 $-1 $135 $18 $-1 $288 reversed single #
loop $-1 $-1 $212 $120 #
plane-surface $-1 0 30.06446497022344 0 0 -1 0 0 0 -1 forward_v I I I I #
coedge $-1 $289 $210 $213 $290 forward $121 $-1 #
coedge $-1 $216 $123 $124 $204 reversed $75 $-1 #
coedge $-1 $210 $289 $123 $202 reversed $121 $-1 #
edge $-1 $217 -13.384545293927685 $291 13.384545293927685 $201 $292 forward 7 unknown #
coedge $-1 $125 $124 $289 $293 forward $49 $-1 #
edge $-1 $208 -61.629078035828726 $291 61.629078035828726 $200 $294 forward 7 unknown #
coedge $-1 $213 $212 $125 $206 reversed $197 $-1 #
edge $-1 $295 -61.629078035828726 $207 61.629078035828726 $205 $296 forward 7 unknown #
vertex $-1 $127 $297 #
vertex $-1 $219 $298 #
straight-curve $-1 61.629078035828726 0 -13.384545293927685 0 -1 0 I I #
coedge $-1 $199 $201 $128 $211 reversed $121 $-1 #
edge $-1 $214 -30.06446497022344 $217 30.06446497022344 $210 $299 forward 7 unknown #
coedge $-1 $205 $129 $134 $220 forward $197 $-1 #
coedge $-1 $129 $205 $199 $290 reversed $197 $-1 #
vertex $-1 $130 $300 #
straight-curve $-1 0 30.06446497022344 13.384545293927685 -1 0 0 I I #
coedge $-1 $131 $200 $133 $219 reversed $75 $-1 #
vertex $-1 $211 $301 #
straight-curve $-1 0 -30.06446497022344 13.384545293927685 1 0 0 I I #
edge $-1 $136 -13.384545293927685 $208 13.384545293927685 $133 $302 forward 7 unknown #
edge $-1 $137 -13.384545293927685 $207 13.384545293927685 $134 $303 forward 7 unknown #
point $-1 61.629078035828726 -30.06446497022344 13.384545293927685 #
point $-1 61.629078035828726 30.06446497022344 13.384545293927685 #
face $-1 $-1 $236 $19 $-1 $304 reversed single #
loop $-1 $-1 $232 $139 #
plane-surface $-1 -61.629078035828726 0 0 1 0 0 0 0 -1 forward_v I I I I #
coedge $-1 $305 $142 $229 $306 forward $83 $-1 #
coedge $-1 $142 $305 $307 $308 forward $83 $-1 #
edge $-1 $309 -30.06446497022344 $230 30.06446497022344 $142 $310 forward 7 unknown #
coedge $-1 $144 $239 $226 $306 reversed $140 $-1 #
vertex $-1 $306 $311 #
straight-curve $-1 -44.260188849441633 -30.06446497022344 -5.8914751427223635 0 0 1 I I #
coedge $-1 $312 $313 $146 $233 forward $224 $-1 #
edge $-1 $240 -30.06446497022344 $237 30.06446497022344 $232 $314 forward 7 unknown #
coedge $-1 $307 $147 $151 $242 forward $236 $-1 #
coedge $-1 $147 $307 $312 $315 reversed $236 $-1 #
loop $-1 $-1 $234 $223 #
vertex $-1 $315 $316 #
straight-curve $-1 -26.47231672131759 30.06446497022344 -10.181355276961769 1 0 0 I I #
coedge $-1 $229 $149 $313 $317 forward $140 $-1 #
vertex $-1 $317 $318 #
straight-curve $-1 -26.47231672131759 -30.06446497022344 -10.181355276961769 -1 0 0 I I #
edge $-1 $153 4.2898801342394055 $309 7.4930701512053215 $234 $319 forward 7 unknown #
point $-1 -44.260188849441633 -30.06446497022344 -10.181355276961769 #
point $-1 -44.260188849441633 30.06446497022344 -10.181355276961769 #
plane-surface $-1 0 -30.06446497022344 0 0 1 0 0 0 1 forward_v I I I I #
coedge $-1 $256 $255 $248 $320 forward $156 $-1 #
coedge $-1 $248 $158 $160 $252 reversed $91 $-1 #
coedge $-1 $158 $247 $246 $320 reversed $91 $-1 #
coedge $-1 $166 $161 $158 $250 forward $167 $-1 #
edge $-1 $253 -48.107109680601553 $321 -40.693986928505154 $249 $322 forward 7 unknown #
coedge $-1 $160 $159 $256 $323 reversed $57 $-1 #
edge $-1 $324 -13.256825345492262 $253 0 $247 $325 forward 7 unknown #
vertex $-1 $162 $326 #
straight-curve $-1 -0.04764028980488888 -30.06446497022344 5.9714225418312878 1 0 0 I I #
coedge $-1 $246 $163 $166 $260 forward $156 $-1 #
coedge $-1 $163 $246 $251 $323 forward $156 $-1 #
vertex $-1 $164 $327 #
straight-curve $-1 -8.875005752413113 -49.494776018090711 13.384545293927687 0 -1 0 I I #
straight-curve $-1 -8.875005752413113 -30.06446497022344 5.9714225418312878 0 0.82903756765294845 0.55919291073839883 I I #
edge $-1 $168 -8.875005752413113 $321 8.6844445931935574 $166 $328 forward 7 unknown #
point $-1 -8.875005752413113 -30.06446497022344 13.384545293927685 #
point $-1 -8.875005752413113 -30.06446497022344 5.9714225418312878 #
edge $-1 $329 1 $329 0 $171 $-1 forward 7 unknown #
vertex $-1 $172 $330 #
ellipse-curve $-1 -0.09528057960977776 -22.899550421835777 7.2025349717091141 0 -0.55919291073839883 0.82903756765294845 2.5 0 0 1 I I #
point $-1 2.4047194203902222 -24.569261850610001 9.6779839178794838 #
plane-surface $-1 0 -30.06446497022344 0 0 1 0 0 0 1 forward_v I I I I #
coedge $-1 $273 $181 $280 $331 reversed $176 $-1 #
coedge $-1 $332 $178 $179 $271 forward $106 $-1 #
coedge $-1 $178 $332 $186 $281 forward $106 $-1 #
edge $-1 $277 -26.29153522860511 $274 -8.7320848829984463 $269 $333 forward 7 unknown #
edge $-1 $275 8.7320848829984463 $189 26.29153522860511 $187 $334 forward 7 unknown #
coedge $-1 $181 $268 $332 $335 reversed $176 $-1 #
vertex $-1 $271 $336 #
vertex $-1 $272 $337 #
straight-curve $-1 8.6844445931935574 -30.06446497022344 5.9714225418312878 0 -0.82903756765294845 -0.55919291073839883 I I #
vertex $-1 $185 $338 #
straight-curve $-1 26.243894938800221 -30.06446497022344 5.9714225418312878 0 -0.82903756765294845 -0.55919291073839883 I I #
straight-curve $-1 26.243894938800221 -49.494776018090711 13.384545293927687 0 1 0 I I #
coedge $-1 $187 $186 $268 $331 forward $188 $-1 #
edge $-1 $339 8.6844445931935574 $190 26.243894938800221 $186 $340 forward 7 unknown #
point $-1 26.243894938800221 -30.06446497022344 5.9714225418312878 #
point $-1 26.243894938800221 -30.06446497022344 13.384545293927685 #
edge $-1 $341 1 $341 0 $192 $-1 forward 7 unknown #
vertex $-1 $193 $342 #
ellipse-curve $-1 17.464169765996886 -22.899550421835777 7.2025349717091141 0 -0.55919291073839883 0.82903756765294845 2.5 0 0 1 I I #
point $-1 19.964169765996886 -24.569261850610001 9.6779839178794838 #
plane-surface $-1 61.629078035828726 0 0 -1 0 0 0 0 1 forward_v I I I I #
coedge $-1 $201 $199 $203 $293 reversed $121 $-1 #
edge $-1 $214 -13.384545293927685 $295 13.384545293927685 $213 $343 forward 7 unknown #
vertex $-1 $293 $344 #
straight-curve $-1 -61.629078035828726 -30.06446497022344 0 0 0 -1 I I #
edge $-1 $291 -30.06446497022344 $295 30.06446497022344 $289 $345 forward 7 unknown #
straight-curve $-1 0 -30.06446497022344 -13.384545293927685 -1 0 0 I I #
vertex $-1 $206 $346 #
straight-curve $-1 0 30.06446497022344 -13.384545293927685 1 0 0 I I #
point $-1 61.629078035828726 30.06446497022344 -13.384545293927685 #
point $-1 61.629078035828726 -30.06446497022344 -13.384545293927685 #
straight-curve $-1 -61.629078035828726 0 13.384545293927685 0 -1 0 I I #
point $-1 -61.629078035828726 30.06446497022344 13.384545293927685 #
point $-1 -61.629078035828726 -30.06446497022344 13.384545293927685 #
straight-curve $-1 61.629078035828726 -30.06446497022344 0 0 0 -1 I I #
straight-curve $-1 61.629078035828726 30.06446497022344 0 0 0 -1 I I #
plane-surface $-1 0 30.06446497022344 0 0 -1 0 0 0 -1 forward_v I I I I #
coedge $-1 $227 $226 $347 $348 forward $83 $-1 #
edge $-1 $230 44.260188849441633 $349 61.629078035828726 $229 $350 forward 7 unknown #
coedge $-1 $235 $234 $227 $308 reversed $236 $-1 #
edge $-1 $351 -61.629078035828726 $309 -44.260188849441633 $307 $352 forward 7 unknown #
vertex $-1 $242 $353 #
straight-curve $-1 -44.260188849441633 0 -13.384545293927685 0 -1 0 I I #
point $-1 -44.260188849441633 -30.06446497022344 -13.384545293927685 #
coedge $-1 $347 $232 $235 $315 forward $224 $-1 #
coedge $-1 $232 $347 $239 $317 reversed $224 $-1 #
straight-curve $-1 -61.629078035828726 0 -10.181355276961769 0 1 0 I I #
edge $-1 $237 10.181355276961769 $351 13.384545293927685 $235 $354 forward 7 unknown #
point $-1 -61.629078035828726 30.06446497022344 -10.181355276961769 #
edge $-1 $240 10.181355276961769 $349 13.384545293927685 $313 $355 forward 7 unknown #
point $-1 -61.629078035828726 -30.06446497022344 -10.181355276961769 #
straight-curve $-1 -44.260188849441633 30.06446497022344 -5.8914751427223635 0 0 -1 I I #
edge $-1 $321 19.430311047867271 $324 30.420717287094135 $246 $356 forward 7 unknown #
vertex $-1 $250 $357 #
straight-curve $-1 8.6844445931935574 -30.06446497022344 54.078532222432841 0 0 1 I I #
edge $-1 $324 -8.7320848829984463 $257 8.8273654626082241 $256 $358 forward 7 unknown #
vertex $-1 $323 $359 #
straight-curve $-1 8.6844445931935574 -30.06446497022344 5.9714225418312878 0 -0.82903756765294845 -0.55919291073839883 I I #
point $-1 8.6844445931935574 -30.06446497022344 5.9714225418312878 #
point $-1 -8.875005752413113 -19.074058730996576 13.384545293927685 #
straight-curve $-1 0 -30.06446497022344 13.384545293927685 1 0 0 I I #
vertex $-1 $263 $360 #
point $-1 2.4047194203902222 -22.899550421835777 7.2025349717091141 #
edge $-1 $339 40.693986928505154 $275 48.107109680601553 $280 $361 forward 7 unknown #
coedge $-1 $270 $269 $273 $335 forward $106 $-1 #
straight-curve $-1 -0.04764028980488888 -19.07405873099658 13.384545293927685 -1 0 0 I I #
straight-curve $-1 -0.04764028980488888 -30.06446497022344 5.9714225418312878 1 0 0 I I #
edge $-1 $274 -30.420717287094135 $339 -19.430311047867271 $332 $362 forward 7 unknown #
point $-1 8.6844445931935574 -19.074058730996576 13.384545293927685 #
point $-1 8.6844445931935574 -30.06446497022344 5.9714225418312878 #
point $-1 26.243894938800221 -19.074058730996576 13.384545293927685 #
vertex $-1 $281 $363 #
straight-curve $-1 0 -30.06446497022344 13.384545293927685 1 0 0 I I #
vertex $-1 $284 $364 #
point $-1 19.964169765996886 -22.899550421835777 7.2025349717091141 #
straight-curve $-1 -61.629078035828726 30.06446497022344 0 0 0 -1 I I #
point $-1 -61.629078035828726 -30.06446497022344 -13.384545293927685 #
straight-curve $-1 -61.629078035828726 0 -13.384545293927685 0 1 0 I I #
point $-1 -61.629078035828726 30.06446497022344 -13.384545293927685 #
coedge $-1 $313 $312 $305 $348 reversed $224 $-1 #
edge $-1 $349 -30.06446497022344 $351 30.06446497022344 $347 $365 forward 7 unknown #
vertex $-1 $348 $366 #
straight-curve $-1 0 -30.06446497022344 -13.384545293927685 -1 0 0 I I #
vertex $-1 $308 $367 #
straight-curve $-1 0 30.06446497022344 -13.384545293927685 1 0 0 I I #
point $-1 -44.260188849441633 30.06446497022344 -13.384545293927685 #
straight-curve $-1 -61.629078035828726 30.06446497022344 0 0 0 -1 I I #
straight-curve $-1 -61.629078035828726 -30.06446497022344 0 0 0 -1 I I #
straight-curve $-1 8.6844445931935574 -49.494776018090711 13.384545293927687 0 1 0 I I #
point $-1 8.6844445931935574 -30.06446497022344 13.384545293927685 #
straight-curve $-1 -0.04764028980488888 -19.07405873099658 13.384545293927685 -1 0 0 I I #
point $-1 8.6844445931935574 -19.074058730996576 13.384545293927685 #
point $-1 -0.09528057960977776 -21.501568144989783 5.1299410525767426 #
straight-curve $-1 8.6844445931935574 -30.06446497022344 54.078532222432841 0 0 -1 I I #
straight-curve $-1 8.6844445931935574 -49.494776018090711 13.384545293927687 0 -1 0 I I #
point $-1 8.6844445931935574 -30.06446497022344 13.384545293927685 #
point $-1 17.464169765996886 -21.501568144989783 5.1299410525767426 #
straight-curve $-1 -61.629078035828726 0 -13.384545293927685 0 1 0 I I #
point $-1 -61.629078035828726 -30.06446497022344 -13.384545293927685 #
point $-1 -61.629078035828726 30.06446497022344 -13.384545293927685 #
End-of-ACIS-data 