500 0 10 0           
7 Unknown 11 ACIS 5.0 NT 24 Thu Mar 25 22:52:56 1999 
-1 9.9999999999999995e-007 1e-010 
body $-1 $10 $-1 $11 #
body $-1 $12 $-1 $13 #
body $-1 $14 $-1 $15 #
body $-1 $16 $-1 $17 #
body $-1 $18 $-1 $19 #
body $-1 $20 $-1 $21 #
body $-1 $22 $-1 $23 #
body $-1 $24 $-1 $25 #
body $-1 $26 $-1 $27 #
body $-1 $28 $-1 $29 #
lump $-1 $-1 $30 $0 #
transform $-1 1 0 0 0 1 0 0 0 1 56.238288521988586 35.992195718499282 12.646533004724196 1 rotate no_reflect no_shear #
lump $-1 $-1 $31 $1 #
transform $-1 1 0 0 0 1 0 0 0 1 56.238288521988586 35.992195718499282 12.646533004724196 1 rotate no_reflect no_shear #
lump $-1 $-1 $32 $2 #
transform $-1 1 0 0 0 1 0 0 0 1 56.238288521988586 35.992195718499282 12.646533004724196 1 rotate no_reflect no_shear #
lump $-1 $-1 $33 $3 #
transform $-1 1 0 0 0 1 0 0 0 1 56.238288521988586 35.992195718499282 12.646533004724196 1 rotate no_reflect no_shear #
lump $-1 $-1 $34 $4 #
transform $-1 1 0 0 0 1 0 0 0 1 56.238288521988586 35.992195718499282 12.646533004724196 1 rotate no_reflect no_shear #
lump $-1 $-1 $35 $5 #
transform $-1 1 0 0 0 1 0 0 0 1 56.238288521988586 35.992195718499282 12.646533004724196 1 rotate no_reflect no_shear #
lump $-1 $-1 $36 $6 #
transform $-1 1 0 0 0 1 0 0 0 1 56.238288521988586 35.992195718499282 12.646533004724196 1 rotate no_reflect no_shear #
lump $-1 $-1 $37 $7 #
transform $-1 1 0 0 0 1 0 0 0 1 56.238288521988586 35.992195718499282 12.646533004724196 1 rotate no_reflect no_shear #
lump $-1 $-1 $38 $8 #
transform $-1 1 0 0 0 1 0 0 0 1 56.238288521988586 35.992195718499282 12.646533004724196 1 rotate no_reflect no_shear #
lump $-1 $-1 $39 $9 #
transform $-1 1 0 0 0 1 0 0 0 1 56.238288521988586 35.992195718499282 12.646533004724196 1 rotate no_reflect no_shear #
shell $-1 $-1 $-1 $40 $-1 $10 #
shell $-1 $-1 $-1 $41 $-1 $12 #
shell $-1 $-1 $-1 $42 $-1 $14 #
shell $-1 $-1 $-1 $43 $-1 $16 #
shell $-1 $-1 $-1 $44 $-1 $18 #
shell $-1 $-1 $-1 $45 $-1 $20 #
shell $-1 $-1 $-1 $46 $-1 $22 #
shell $-1 $-1 $-1 $47 $-1 $24 #
shell $-1 $-1 $-1 $48 $-1 $26 #
shell $-1 $-1 $-1 $49 $-1 $28 #
face $-1 $50 $51 $30 $-1 $52 reversed single #
face $-1 $53 $54 $31 $-1 $55 forward single #
face $-1 $56 $57 $32 $-1 $58 forward single #
face $-1 $59 $60 $33 $-1 $61 reversed single #
face $-1 $62 $63 $34 $-1 $64 forward single #
face $-1 $65 $66 $35 $-1 $67 forward single #
face $-1 $68 $69 $36 $-1 $70 forward single #
face $-1 $71 $72 $37 $-1 $73 reversed single #
face $-1 $74 $75 $38 $-1 $76 forward single #
face $-1 $77 $78 $39 $-1 $79 forward single #
face $-1 $80 $81 $30 $-1 $82 forward single #
loop $-1 $-1 $83 $40 #
plane-surface $-1 56.238288521988586 0 0 -1 0 0 0 0 1 forward_v I I I I #
face $-1 $84 $85 $31 $-1 $86 reversed single #
loop $-1 $-1 $87 $41 #
plane-surface $-1 -56.238288521988586 0 0 1 0 0 0 0 -1 forward_v I I I I #
face $-1 $88 $89 $32 $-1 $90 reversed single #
loop $-1 $-1 $91 $42 #
plane-surface $-1 56.238288521988586 0 0 -1 0 0 0 0 1 forward_v I I I I #
face $-1 $92 $93 $33 $-1 $94 reversed single #
loop $-1 $-1 $95 $43 #
plane-surface $-1 18.113231054446175 60.054987127982493 132.29164342692789 1 0 0 0 -0.68199836817093118 -0.7313536940579346 forward_v I I I I #
face $-1 $96 $97 $34 $-1 $98 forward single #
loop $-1 $99 $100 $44 #
cone-surface $-1 20.828356331605768 29.373396259913875 6.4267125638394926 0 -0.68199836817093118 -0.7313536940579346 0.5 0 0 1 I I 0 1 0.5 forward I I I I #
face $-1 $101 $102 $35 $-1 $103 forward single #
loop $-1 $104 $105 $45 #
cone-surface $-1 24.901044247345162 29.373396259913875 6.4267125638394926 0 -0.68199836817093118 -0.7313536940579346 0.5 0 0 1 I I 0 1 0.5 forward I I I I #
face $-1 $106 $107 $36 $-1 $108 forward single #
loop $-1 $109 $110 $46 #
cone-surface $-1 28.973732163084556 29.373396259913875 6.4267125638394926 0 -0.68199836817093118 -0.7313536940579346 0.5 0 0 1 I I 0 1 0.5 forward I I I I #
face $-1 $111 $112 $37 $-1 $113 reversed single #
loop $-1 $-1 $114 $47 #
plane-surface $-1 -10.250318602133461 -128.12761465356661 73.152427834284055 -1 0 0 0 -0.81915205242281985 0.57357642473473569 forward_v I I I I #
face $-1 $115 $116 $38 $-1 $117 forward single #
loop $-1 $118 $119 $48 #
cone-surface $-1 -26.507105738884768 -34.179397491985704 10.355735743494016 0 0.81915205242281985 -0.57357642473473569 0.5 0 0 1 I I 0 1 0.5 forward I I I I #
face $-1 $120 $121 $39 $-1 $122 forward single #
loop $-1 $123 $124 $49 #
cone-surface $-1 -16.753033456833982 -34.179397491985704 10.355735743494016 0 0.81915205242281985 -0.57357642473473569 0.5 0 0 1 I I 0 1 0.5 forward I I I I #
face $-1 $125 $126 $30 $-1 $127 reversed single #
loop $-1 $-1 $128 $50 #
plane-surface $-1 0 0 12.646533004724196 0 0 1 1 0 0 forward_v I I I I #
coedge $-1 $129 $130 $131 $132 reversed $51 $-1 #
face $-1 $133 $134 $31 $-1 $135 forward single #
loop $-1 $-1 $136 $53 #
plane-surface $-1 0 35.992195718499282 0 0 -1 0 0 0 -1 forward_v I I I I #
coedge $-1 $137 $138 $139 $140 forward $54 $-1 #
face $-1 $141 $142 $32 $-1 $143 forward single #
loop $-1 $-1 $144 $56 #
plane-surface $-1 0 -35.992195718499282 0 0 1 0 0 0 1 forward_v I I I I #
coedge $-1 $145 $146 $147 $148 forward $57 $-1 #
face $-1 $149 $150 $33 $-1 $151 reversed single #
loop $-1 $-1 $152 $59 #
plane-surface $-1 24.901044247345162 -16.65385487346196 50.031483310823305 0 0.68199836817093118 0.7313536940579346 1 0 0 forward_v I I I I #
coedge $-1 $153 $154 $155 $156 reversed $60 $-1 #
face $-1 $-1 $157 $34 $-1 $158 forward single #
loop $-1 $159 $160 $62 #
cone-surface $-1 20.828356331605768 28.861897483785675 5.8781972932960418 0 -0.68199836817093118 -0.7313536940579346 0.25 0 0 1 I I -0.70710678118654746 0.70710678118654746 0.25 forward I I I I #
loop $-1 $-1 $161 $44 #
coedge $-1 $100 $100 $162 $163 reversed $63 $-1 #
face $-1 $-1 $164 $35 $-1 $165 forward single #
loop $-1 $166 $167 $65 #
cone-surface $-1 24.901044247345162 28.861897483785675 5.8781972932960418 0 -0.68199836817093118 -0.7313536940579346 0.25 0 0 1 I I -0.70710678118654746 0.70710678118654746 0.25 forward I I I I #
loop $-1 $-1 $168 $45 #
coedge $-1 $105 $105 $169 $170 reversed $66 $-1 #
face $-1 $-1 $171 $36 $-1 $172 forward single #
loop $-1 $173 $174 $68 #
cone-surface $-1 28.973732163084556 28.861897483785675 5.8781972932960418 0 -0.68199836817093118 -0.7313536940579346 0.25 0 0 1 I I -0.70710678118654746 0.70710678118654746 0.25 forward I I I I #
loop $-1 $-1 $175 $46 #
coedge $-1 $110 $110 $176 $177 reversed $69 $-1 #
face $-1 $178 $179 $37 $-1 $180 reversed single #
loop $-1 $-1 $181 $71 #
plane-surface $-1 -21.630069597859375 -35.992195718499289 8.63851490699858 0 -0.81915205242281985 0.57357642473473569 1 0 0 forward_v I I I I #
coedge $-1 $182 $183 $184 $185 reversed $72 $-1 #
face $-1 $-1 $186 $38 $-1 $187 forward single #
loop $-1 $188 $189 $74 #
cone-surface $-1 -26.507105738884768 -33.565033452668587 9.9255534249429633 0 0.81915205242281985 -0.57357642473473569 0.25 0 0 1 I I -0.70710678118654746 0.70710678118654746 0.25 forward I I I I #
loop $-1 $-1 $190 $48 #
coedge $-1 $119 $119 $191 $192 reversed $75 $-1 #
face $-1 $-1 $193 $39 $-1 $194 forward single #
loop $-1 $195 $196 $77 #
cone-surface $-1 -16.753033456833982 -33.565033452668587 9.9255534249429633 0 0.81915205242281985 -0.57357642473473569 0.25 0 0 1 I I -0.70710678118654746 0.70710678118654746 0.25 forward I I I I #
loop $-1 $-1 $197 $49 #
coedge $-1 $124 $124 $198 $199 reversed $78 $-1 #
face $-1 $200 $201 $30 $-1 $202 reversed single #
loop $-1 $-1 $203 $80 #
plane-surface $-1 0 0 -12.646533004724196 0 0 1 1 0 0 forward_v I I I I #
coedge $-1 $204 $205 $129 $206 forward $81 $-1 #
coedge $-1 $207 $83 $128 $206 reversed $51 $-1 #
coedge $-1 $83 $207 $203 $208 reversed $51 $-1 #
coedge $-1 $209 $210 $83 $132 forward $211 $-1 #
edge $-1 $212 -12.646533004724196 $213 12.646533004724196 $83 $214 forward 7 unknown #
face $-1 $215 $216 $31 $-1 $217 reversed single #
loop $-1 $-1 $139 $84 #
plane-surface $-1 -62.80839148124852 0 4.4943811710574 0 0 1 1 0 0 forward_v I I I I #
coedge $-1 $218 $219 $138 $220 forward $85 $-1 #
coedge $-1 $221 $87 $222 $223 reversed $54 $-1 #
coedge $-1 $87 $221 $136 $220 reversed $54 $-1 #
coedge $-1 $224 $225 $87 $140 reversed $134 $-1 #
edge $-1 $226 -35.992195718499282 $227 35.992195718499282 $139 $228 forward 7 unknown #
face $-1 $229 $230 $32 $-1 $231 reversed single #
loop $-1 $-1 $232 $88 #
plane-surface $-1 62.808391481248513 0 4.4943811710574 0 0 1 1 0 0 forward_v I I I I #
coedge $-1 $233 $234 $146 $235 forward $89 $-1 #
coedge $-1 $236 $91 $237 $238 reversed $57 $-1 #
coedge $-1 $91 $236 $144 $235 reversed $57 $-1 #
coedge $-1 $239 $240 $91 $148 reversed $142 $-1 #
edge $-1 $241 -35.992195718499282 $242 35.992195718499282 $147 $243 forward 7 unknown #
face $-1 $244 $245 $33 $-1 $246 reversed single #
loop $-1 $-1 $247 $92 #
plane-surface $-1 31.688857440244149 60.054987127982493 132.29164342692789 -1 0 0 0 0.68199836817093118 0.7313536940579346 forward_v I I I I #
coedge $-1 $248 $249 $250 $251 reversed $93 $-1 #
coedge $-1 $154 $95 $252 $253 reversed $60 $-1 #
coedge $-1 $95 $153 $248 $254 reversed $60 $-1 #
coedge $-1 $250 $255 $95 $156 forward $256 $-1 #
edge $-1 $257 -5.9647021545080356 $258 6.590898394491834 $155 $259 forward 7 unknown #
loop $-1 $-1 $162 $96 #
plane-surface $-1 24.901044247345162 -16.65385487346196 50.031483310823305 0 0.68199836817093118 0.7313536940579346 1 0 0 forward_v I I I I #
loop $-1 $-1 $260 $62 #
coedge $-1 $160 $160 $161 $261 reversed $97 $-1 #
coedge $-1 $161 $161 $160 $261 forward $99 $-1 #
coedge $-1 $162 $162 $100 $163 forward $157 $-1 #
edge $-1 $262 5.1009110015858872e-016 $262 6.2831853071796013 $162 $263 forward 7 unknown #
loop $-1 $-1 $169 $101 #
plane-surface $-1 24.901044247345162 -16.65385487346196 50.031483310823305 0 0.68199836817093118 0.7313536940579346 1 0 0 forward_v I I I I #
loop $-1 $-1 $264 $65 #
coedge $-1 $167 $167 $168 $265 reversed $102 $-1 #
coedge $-1 $168 $168 $167 $265 forward $104 $-1 #
coedge $-1 $169 $169 $105 $170 forward $164 $-1 #
edge $-1 $266 5.1009110015858872e-016 $266 6.2831853071796013 $169 $267 forward 7 unknown #
loop $-1 $-1 $176 $106 #
plane-surface $-1 24.901044247345162 -16.65385487346196 50.031483310823305 0 0.68199836817093118 0.7313536940579346 1 0 0 forward_v I I I I #
loop $-1 $-1 $268 $68 #
coedge $-1 $174 $174 $175 $269 reversed $107 $-1 #
coedge $-1 $175 $175 $174 $269 forward $109 $-1 #
coedge $-1 $176 $176 $110 $177 forward $171 $-1 #
edge $-1 $270 5.1009110015858872e-016 $270 6.2831853071796013 $176 $271 forward 7 unknown #
face $-1 $272 $273 $37 $-1 $274 forward single #
loop $-1 $-1 $275 $111 #
plane-surface $-1 -33.009820593585289 -128.12761465356661 73.152427834284055 1 0 0 0 0.81915205242281985 -0.57357642473473569 forward_v I I I I #
coedge $-1 $276 $277 $278 $279 reversed $112 $-1 #
coedge $-1 $183 $114 $280 $281 reversed $72 $-1 #
coedge $-1 $114 $182 $276 $282 reversed $72 $-1 #
coedge $-1 $278 $283 $114 $185 forward $273 $-1 #
edge $-1 $284 28.071611608284023 $285 30.878056008888358 $184 $286 forward 7 unknown #
loop $-1 $-1 $191 $115 #
plane-surface $-1 -21.630069597859375 -35.992195718499289 8.63851490699858 0 -0.81915205242281985 0.57357642473473569 1 0 0 forward_v I I I I #
loop $-1 $-1 $287 $74 #
coedge $-1 $189 $189 $190 $288 reversed $116 $-1 #
coedge $-1 $190 $190 $189 $288 forward $118 $-1 #
coedge $-1 $191 $191 $119 $192 forward $186 $-1 #
edge $-1 $289 2.330585836650212e-015 $289 6.2831853071796031 $191 $290 forward 7 unknown #
loop $-1 $-1 $198 $120 #
plane-surface $-1 -21.630069597859375 -35.992195718499289 8.63851490699858 0 -0.81915205242281985 0.57357642473473569 1 0 0 forward_v I I I I #
loop $-1 $-1 $291 $77 #
coedge $-1 $196 $196 $197 $292 reversed $121 $-1 #
coedge $-1 $197 $197 $196 $292 forward $123 $-1 #
coedge $-1 $198 $198 $124 $199 forward $193 $-1 #
edge $-1 $293 2.330585836650212e-015 $293 6.2831853071796031 $198 $294 forward 7 unknown #
face $-1 $295 $296 $30 $-1 $297 reversed single #
loop $-1 $-1 $298 $125 #
plane-surface $-1 0 -35.992195718499282 0 0 1 0 0 0 1 forward_v I I I I #
coedge $-1 $299 $300 $130 $208 forward $126 $-1 #
coedge $-1 $301 $128 $210 $302 forward $81 $-1 #
coedge $-1 $128 $301 $303 $304 forward $81 $-1 #
edge $-1 $305 -35.992195718499282 $212 35.992195718499282 $129 $306 forward 7 unknown #
coedge $-1 $130 $129 $307 $308 forward $51 $-1 #
edge $-1 $213 -35.992195718499282 $309 35.992195718499282 $130 $310 forward 7 unknown #
coedge $-1 $311 $131 $300 $312 reversed $211 $-1 #
coedge $-1 $131 $311 $204 $302 reversed $211 $-1 #
loop $-1 $-1 $131 $295 #
vertex $-1 $206 $313 #
vertex $-1 $208 $314 #
straight-curve $-1 56.238288521988586 35.992195718499282 0 0 0 -1 I I #
face $-1 $315 $316 $31 $-1 $317 reversed single #
loop $-1 $-1 $318 $133 #
plane-surface $-1 -62.80839148124852 0 -0.31390269623148903 0 0 1 1 0 0 forward_v I I I I #
coedge $-1 $319 $136 $320 $321 reversed $85 $-1 #
coedge $-1 $136 $319 $224 $322 reversed $85 $-1 #
edge $-1 $226 -4.4943811710574 $323 0.31390269623148903 $136 $324 forward 7 unknown #
coedge $-1 $138 $137 $318 $325 forward $54 $-1 #
coedge $-1 $326 $327 $137 $223 forward $328 $-1 #
edge $-1 $329 -0.31390269623148903 $227 4.4943811710574 $222 $330 forward 7 unknown #
coedge $-1 $331 $139 $219 $322 forward $134 $-1 #
coedge $-1 $139 $331 $326 $332 forward $134 $-1 #
vertex $-1 $220 $333 #
vertex $-1 $332 $334 #
straight-curve $-1 -56.238288521988586 0 4.4943811710574 0 -1 0 I I #
face $-1 $335 $336 $32 $-1 $337 reversed single #
loop $-1 $-1 $338 $141 #
plane-surface $-1 62.808391481248513 0 -0.31390269623148903 0 0 1 1 0 0 forward_v I I I I #
coedge $-1 $240 $239 $339 $340 forward $142 $-1 #
coedge $-1 $341 $144 $342 $343 reversed $89 $-1 #
coedge $-1 $144 $341 $239 $344 reversed $89 $-1 #
edge $-1 $241 -4.4943811710574 $345 0.31390269623148903 $144 $346 forward 7 unknown #
coedge $-1 $146 $145 $347 $348 forward $57 $-1 #
coedge $-1 $349 $350 $145 $238 forward $351 $-1 #
edge $-1 $352 -0.31390269623148903 $242 4.4943811710574 $237 $353 forward 7 unknown #
coedge $-1 $232 $147 $234 $344 forward $142 $-1 #
coedge $-1 $147 $232 $349 $354 forward $142 $-1 #
vertex $-1 $235 $355 #
vertex $-1 $354 $356 #
straight-curve $-1 56.238288521988586 0 4.4943811710574 0 1 0 I I #
face $-1 $-1 $256 $33 $-1 $357 forward single #
loop $-1 $-1 $358 $149 #
plane-surface $-1 0 35.992195718499282 0 0 -1 0 0 0 -1 forward_v I I I I #
coedge $-1 $359 $360 $361 $362 reversed $150 $-1 #
coedge $-1 $363 $152 $154 $254 forward $93 $-1 #
coedge $-1 $152 $363 $359 $364 forward $93 $-1 #
coedge $-1 $361 $155 $152 $251 forward $256 $-1 #
edge $-1 $258 5.6627089307735936 $365 19.238335316571568 $250 $366 forward 7 unknown #
coedge $-1 $367 $368 $153 $253 forward $245 $-1 #
edge $-1 $369 -65.207575896451203 $257 -53.499288708739748 $252 $370 forward 7 unknown #
edge $-1 $258 54.816773838275829 $369 71.98439143699855 $154 $371 forward 7 unknown #
coedge $-1 $155 $361 $367 $372 forward $256 $-1 #
loop $-1 $-1 $361 $244 #
vertex $-1 $253 $373 #
vertex $-1 $156 $374 #
straight-curve $-1 18.113231054446175 30.027493563991246 12.646533004724198 0 -1 0 I I #
coedge $-1 $260 $260 $-1 $375 reversed $159 $-1 #
edge $-1 $376 0 $376 6.2831853071796004 $160 $377 forward 7 unknown #
vertex $-1 $163 $378 #
ellipse-curve $-1 20.828356331605768 29.714395443999347 6.7923894108684681 0 0.68199836817093118 0.7313536940579346 0.5 0 0 1 I I #
coedge $-1 $264 $264 $-1 $379 reversed $166 $-1 #
edge $-1 $380 0 $380 6.2831853071796004 $167 $381 forward 7 unknown #
vertex $-1 $170 $382 #
ellipse-curve $-1 24.901044247345162 29.714395443999347 6.7923894108684681 0 0.68199836817093118 0.7313536940579346 0.5 0 0 1 I I #
coedge $-1 $268 $268 $-1 $383 reversed $173 $-1 #
edge $-1 $384 0 $384 6.2831853071796004 $174 $385 forward 7 unknown #
vertex $-1 $177 $386 #
ellipse-curve $-1 28.973732163084556 29.714395443999347 6.7923894108684681 0 0.68199836817093118 0.7313536940579346 0.5 0 0 1 I I #
face $-1 $-1 $387 $37 $-1 $388 reversed single #
loop $-1 $-1 $184 $178 #
plane-surface $-1 0 0 12.646533004724196 0 0 1 1 0 0 forward_v I I I I #
coedge $-1 $389 $390 $391 $392 reversed $179 $-1 #
coedge $-1 $393 $181 $183 $282 forward $112 $-1 #
coedge $-1 $181 $393 $389 $394 forward $112 $-1 #
coedge $-1 $391 $184 $181 $279 forward $273 $-1 #
edge $-1 $285 -0.5647161967962262 $395 22.194785794655601 $278 $396 forward 7 unknown #
coedge $-1 $397 $398 $182 $281 forward $387 $-1 #
edge $-1 $399 -27.937699010143437 $284 -23.92968091241783 $280 $400 forward 7 unknown #
edge $-1 $285 -4.8928865964152015 $399 -1.2806143724965335e-014 $183 $401 forward 7 unknown #
coedge $-1 $184 $391 $397 $402 forward $273 $-1 #
vertex $-1 $281 $403 #
vertex $-1 $185 $404 #
straight-curve $-1 -10.250318602133461 -64.063807326783305 12.646533004724198 0 1 0 I I #
coedge $-1 $287 $287 $-1 $405 reversed $188 $-1 #
edge $-1 $406 0 $406 6.2831853071796004 $189 $407 forward 7 unknown #
vertex $-1 $192 $408 #
ellipse-curve $-1 -26.507105738884768 -34.588973518197122 10.642523955861387 0 -0.81915205242281985 0.57357642473473569 0.5 0 0 1 I I #
coedge $-1 $291 $291 $-1 $409 reversed $195 $-1 #
edge $-1 $410 0 $410 6.2831853071796004 $196 $411 forward 7 unknown #
vertex $-1 $199 $412 #
ellipse-curve $-1 -16.753033456833982 -34.588973518197122 10.642523955861387 0 -0.81915205242281985 0.57357642473473569 0.5 0 0 1 I I #
face $-1 $-1 $211 $30 $-1 $413 reversed single #
loop $-1 $-1 $414 $200 #
plane-surface $-1 -56.238288521988586 0 0 1 0 0 0 0 -1 forward_v I I I I #
coedge $-1 $415 $303 $414 $416 forward $201 $-1 #
coedge $-1 $417 $203 $415 $418 forward $126 $-1 #
coedge $-1 $203 $417 $209 $312 forward $126 $-1 #
coedge $-1 $205 $204 $419 $420 forward $81 $-1 #
edge $-1 $212 -56.238288521988586 $421 56.238288521988586 $210 $422 forward 7 unknown #
coedge $-1 $298 $307 $205 $304 reversed $201 $-1 #
edge $-1 $423 -56.238288521988586 $305 56.238288521988586 $303 $424 forward 7 unknown #
vertex $-1 $206 $425 #
straight-curve $-1 56.238288521988586 0 12.646533004724196 0 1 0 I I #
coedge $-1 $303 $415 $207 $308 reversed $201 $-1 #
edge $-1 $305 -12.646533004724196 $309 12.646533004724196 $207 $426 forward 7 unknown #
vertex $-1 $308 $427 #
straight-curve $-1 56.238288521988586 0 -12.646533004724196 0 -1 0 I I #
coedge $-1 $210 $209 $428 $429 reversed $211 $-1 #
edge $-1 $430 -56.238288521988586 $213 56.238288521988586 $209 $431 forward 7 unknown #
point $-1 56.238288521988586 35.992195718499282 12.646533004724196 #
point $-1 56.238288521988586 35.992195718499282 -12.646533004724196 #
face $-1 $-1 $328 $31 $-1 $432 reversed single #
loop $-1 $-1 $433 $215 #
plane-surface $-1 -69.378494440508462 0 2.0902392374129555 1 0 0 0 0 -1 forward_v I I I I #
coedge $-1 $434 $320 $221 $325 reversed $216 $-1 #
coedge $-1 $219 $218 $433 $435 reversed $85 $-1 #
coedge $-1 $318 $436 $218 $321 forward $216 $-1 #
edge $-1 $437 -6.5701029592599411 $323 6.570102959259934 $218 $438 forward 7 unknown #
edge $-1 $226 -6.570102959259934 $439 6.5701029592599411 $219 $440 forward 7 unknown #
vertex $-1 $220 $441 #
straight-curve $-1 -56.238288521988586 35.992195718499282 0 0 0 -1 I I #
edge $-1 $329 -35.992195718499282 $323 35.992195718499282 $318 $442 forward 7 unknown #
coedge $-1 $443 $222 $225 $332 reversed $328 $-1 #
coedge $-1 $222 $443 $434 $444 reversed $328 $-1 #
loop $-1 $-1 $222 $315 #
vertex $-1 $223 $445 #
straight-curve $-1 -56.238288521988586 -35.992195718499282 0 0 0 1 I I #
coedge $-1 $225 $224 $446 $447 forward $134 $-1 #
edge $-1 $448 -6.5701029592599411 $227 6.570102959259934 $326 $449 forward 7 unknown #
point $-1 -56.238288521988586 35.992195718499282 4.4943811710574 #
point $-1 -56.238288521988586 -35.992195718499282 4.4943811710574 #
face $-1 $-1 $351 $32 $-1 $450 reversed single #
loop $-1 $-1 $451 $229 #
plane-surface $-1 69.378494440508447 0 2.0902392374129555 -1 0 0 0 0 1 forward_v I I I I #
coedge $-1 $342 $452 $453 $454 forward $230 $-1 #
coedge $-1 $451 $455 $232 $340 reversed $336 $-1 #
edge $-1 $456 -35.992195718499282 $457 35.992195718499282 $339 $458 forward 7 unknown #
coedge $-1 $234 $233 $451 $459 reversed $89 $-1 #
coedge $-1 $347 $338 $233 $343 forward $230 $-1 #
edge $-1 $460 -6.570102959259934 $345 6.570102959259934 $233 $461 forward 7 unknown #
edge $-1 $241 -6.570102959259934 $456 6.570102959259934 $234 $462 forward 7 unknown #
vertex $-1 $235 $463 #
straight-curve $-1 56.238288521988586 -35.992195718499282 0 0 0 -1 I I #
coedge $-1 $452 $342 $236 $348 reversed $230 $-1 #
edge $-1 $352 -35.992195718499282 $345 35.992195718499282 $347 $464 forward 7 unknown #
coedge $-1 $465 $237 $240 $354 reversed $351 $-1 #
coedge $-1 $237 $465 $452 $466 reversed $351 $-1 #
loop $-1 $-1 $237 $335 #
vertex $-1 $238 $467 #
straight-curve $-1 56.238288521988586 35.992195718499282 0 0 0 1 I I #
edge $-1 $457 -6.570102959259934 $242 6.570102959259934 $349 $468 forward 7 unknown #
point $-1 56.238288521988579 -35.992195718499282 4.4943811710574 #
point $-1 56.238288521988579 35.992195718499282 4.4943811710574 #
plane-surface $-1 0 0 12.646533004724196 0 0 1 1 0 0 forward_v I I I I #
coedge $-1 $368 $367 $360 $469 forward $245 $-1 #
coedge $-1 $360 $247 $249 $364 reversed $150 $-1 #
coedge $-1 $247 $359 $358 $469 reversed $150 $-1 #
coedge $-1 $255 $250 $247 $362 forward $256 $-1 #
edge $-1 $365 -6.590898394491834 $470 5.9647021545080356 $361 $471 forward 7 unknown #
coedge $-1 $249 $248 $368 $472 reversed $93 $-1 #
edge $-1 $473 -71.98439143699855 $365 -54.816773838275829 $359 $474 forward 7 unknown #
vertex $-1 $251 $475 #
straight-curve $-1 12.450522123672581 23.436595169499412 12.646533004724198 1 0 0 I I #
coedge $-1 $358 $252 $255 $372 reversed $245 $-1 #
coedge $-1 $252 $358 $363 $472 forward $245 $-1 #
vertex $-1 $253 $476 #
straight-curve $-1 18.113231054446175 35.992195718499282 66.145821713463945 0 0 1 I I #
straight-curve $-1 18.113231054446175 -16.65385487346196 50.031483310823305 0 0.7313536940579346 -0.68199836817093118 I I #
edge $-1 $470 -31.688857440244149 $257 -18.113231054446175 $367 $477 forward 7 unknown #
point $-1 18.113231054446175 35.992195718499282 12.646533004724196 #
point $-1 18.113231054446175 23.436595169499412 12.646533004724198 #
edge $-1 $478 1 $478 0 $260 $-1 forward 7 unknown #
vertex $-1 $261 $479 #
ellipse-curve $-1 20.828356331605768 29.03239707582841 6.0610357168105251 0 0.68199836817093118 0.7313536940579346 0.5 0 0 1 I I #
point $-1 21.328356331605768 29.71439544399934 6.7923894108684602 #
edge $-1 $480 1 $480 0 $264 $-1 forward 7 unknown #
vertex $-1 $265 $481 #
ellipse-curve $-1 24.901044247345162 29.03239707582841 6.0610357168105251 0 0.68199836817093118 0.7313536940579346 0.5 0 0 1 I I #
point $-1 25.401044247345162 29.71439544399934 6.7923894108684602 #
edge $-1 $482 1 $482 0 $268 $-1 forward 7 unknown #
vertex $-1 $269 $483 #
ellipse-curve $-1 28.973732163084556 29.03239707582841 6.0610357168105251 0 0.68199836817093118 0.7313536940579346 0.5 0 0 1 I I #
point $-1 29.473732163084556 29.71439544399934 6.7923894108684602 #
loop $-1 $-1 $280 $272 #
plane-surface $-1 0 -35.992195718499282 0 0 1 0 0 0 1 forward_v I I I I #
coedge $-1 $390 $275 $277 $394 reversed $179 $-1 #
coedge $-1 $275 $389 $484 $485 reversed $179 $-1 #
coedge $-1 $283 $278 $275 $392 forward $273 $-1 #
edge $-1 $395 -30.878056008888358 $486 -28.071611608284023 $391 $487 forward 7 unknown #
coedge $-1 $277 $276 $398 $488 reversed $112 $-1 #
edge $-1 $489 1.2806143724965335e-014 $395 4.8928865964152015 $389 $490 forward 7 unknown #
vertex $-1 $279 $491 #
straight-curve $-1 -10.815034798929688 -33.185751317894947 12.646533004724196 -1 0 0 I I #
coedge $-1 $484 $280 $283 $402 reversed $387 $-1 #
coedge $-1 $280 $484 $393 $488 forward $387 $-1 #
vertex $-1 $281 $492 #
straight-curve $-1 -10.250318602133461 -35.992195718499282 36.576213917142027 0 0 1 I I #
straight-curve $-1 -10.250318602133461 -35.992195718499289 8.63851490699858 0 -0.57357642473473569 -0.81915205242281985 I I #
edge $-1 $486 -33.009820593585289 $284 -10.250318602133461 $397 $493 forward 7 unknown #
point $-1 -10.250318602133461 -35.992195718499282 12.646533004724196 #
point $-1 -10.250318602133461 -33.185751317894947 12.646533004724196 #
edge $-1 $494 1 $494 0 $287 $-1 forward 7 unknown #
vertex $-1 $288 $495 #
ellipse-curve $-1 -26.507105738884768 -33.769821465774292 10.068947531126648 0 -0.81915205242281985 0.57357642473473569 0.5 0 0 1 I I #
point $-1 -26.007105738884768 -34.588973518197115 10.642523955861384 #
edge $-1 $496 1 $496 0 $291 $-1 forward 7 unknown #
vertex $-1 $292 $497 #
ellipse-curve $-1 -16.753033456833982 -33.769821465774292 10.068947531126648 0 -0.81915205242281985 0.57357642473473569 0.5 0 0 1 I I #
point $-1 -16.253033456833982 -34.588973518197115 10.642523955861384 #
plane-surface $-1 0 35.992195718499282 0 0 -1 0 0 0 -1 forward_v I I I I #
coedge $-1 $419 $498 $298 $416 reversed $296 $-1 #
coedge $-1 $307 $298 $299 $418 reversed $201 $-1 #
edge $-1 $423 -12.646533004724196 $499 12.646533004724196 $414 $500 forward 7 unknown #
coedge $-1 $300 $299 $498 $501 forward $126 $-1 #
edge $-1 $309 -56.238288521988586 $499 56.238288521988586 $415 $502 forward 7 unknown #
coedge $-1 $428 $414 $301 $420 reversed $296 $-1 #
edge $-1 $421 -35.992195718499282 $423 35.992195718499282 $419 $503 forward 7 unknown #
vertex $-1 $302 $504 #
straight-curve $-1 0 35.992195718499282 12.646533004724196 -1 0 0 I I #
vertex $-1 $420 $505 #
straight-curve $-1 0 -35.992195718499282 12.646533004724196 1 0 0 I I #
point $-1 56.238288521988586 -35.992195718499282 12.646533004724196 #
straight-curve $-1 56.238288521988586 -35.992195718499282 0 0 0 -1 I I #
point $-1 56.238288521988586 -35.992195718499282 -12.646533004724196 #
coedge $-1 $498 $419 $311 $429 forward $296 $-1 #
edge $-1 $421 -12.646533004724196 $430 12.646533004724196 $311 $506 forward 7 unknown #
vertex $-1 $312 $507 #
straight-curve $-1 0 35.992195718499282 -12.646533004724196 1 0 0 I I #
plane-surface $-1 0 -35.992195718499282 0 0 1 0 0 0 1 forward_v I I I I #
coedge $-1 $508 $446 $319 $435 forward $316 $-1 #
coedge $-1 $436 $318 $327 $444 forward $216 $-1 #
edge $-1 $439 -2.4041419336444445 $437 2.4041419336444445 $319 $509 forward 7 unknown #
coedge $-1 $320 $434 $508 $510 forward $216 $-1 #
vertex $-1 $321 $511 #
straight-curve $-1 -62.80839148124852 35.992195718499282 -0.31390269623148903 1 0 0 I I #
vertex $-1 $322 $512 #
straight-curve $-1 -62.80839148124852 35.992195718499282 4.4943811710574 -1 0 0 I I #
point $-1 -56.238288521988586 35.992195718499282 -0.31390269623148903 #
straight-curve $-1 -56.238288521988586 0 -0.31390269623148903 0 1 0 I I #
coedge $-1 $327 $326 $513 $514 forward $328 $-1 #
edge $-1 $329 -6.570102959259934 $515 6.5701029592599411 $327 $516 forward 7 unknown #
point $-1 -56.238288521988586 -35.992195718499282 -0.31390269623148903 #
coedge $-1 $433 $513 $331 $447 reversed $316 $-1 #
edge $-1 $439 -35.992195718499282 $448 35.992195718499282 $446 $517 forward 7 unknown #
vertex $-1 $447 $518 #
straight-curve $-1 -62.80839148124852 -35.992195718499282 4.4943811710574 1 0 0 I I #
plane-surface $-1 0 35.992195718499282 0 0 -1 0 0 0 -1 forward_v I I I I #
coedge $-1 $453 $339 $341 $459 forward $336 $-1 #
coedge $-1 $338 $347 $350 $466 forward $230 $-1 #
coedge $-1 $455 $451 $338 $454 reversed $336 $-1 #
edge $-1 $519 -35.992195718499282 $460 35.992195718499282 $453 $520 forward 7 unknown #
coedge $-1 $339 $453 $465 $521 reversed $336 $-1 #
vertex $-1 $340 $522 #
vertex $-1 $340 $523 #
straight-curve $-1 69.378494440508447 0 4.4943811710574 0 1 0 I I #
edge $-1 $456 -2.4041419336444445 $460 2.4041419336444445 $451 $524 forward 7 unknown #
vertex $-1 $459 $525 #
straight-curve $-1 62.808391481248513 -35.992195718499282 -0.31390269623148903 -1 0 0 I I #
straight-curve $-1 62.808391481248513 -35.992195718499282 4.4943811710574 1 0 0 I I #
point $-1 56.238288521988579 -35.992195718499282 -0.31390269623148903 #
straight-curve $-1 56.238288521988586 0 -0.31390269623148903 0 -1 0 I I #
coedge $-1 $350 $349 $455 $521 forward $351 $-1 #
edge $-1 $352 -6.570102959259934 $519 6.570102959259934 $350 $526 forward 7 unknown #
point $-1 56.238288521988579 35.992195718499282 -0.31390269623148903 #
straight-curve $-1 62.808391481248513 35.992195718499282 4.4943811710574 -1 0 0 I I #
edge $-1 $470 53.499288708739748 $473 65.207575896451203 $358 $527 forward 7 unknown #
vertex $-1 $372 $528 #
straight-curve $-1 31.688857440244149 30.027493563991246 12.646533004724198 0 1 0 I I #
edge $-1 $473 -19.238335316571568 $369 -5.6627089307735936 $368 $529 forward 7 unknown #
vertex $-1 $472 $530 #
straight-curve $-1 31.688857440244149 -16.65385487346196 50.031483310823305 0 -0.7313536940579346 0.68199836817093118 I I #
point $-1 31.688857440244149 23.436595169499412 12.646533004724198 #
point $-1 18.113231054446175 35.992195718499282 0.93824581701274212 #
straight-curve $-1 0 35.992195718499282 12.646533004724196 -1 0 0 I I #
vertex $-1 $375 $531 #
point $-1 21.328356331605768 29.03239707582841 6.0610357168105251 #
vertex $-1 $379 $532 #
point $-1 25.401044247345162 29.03239707582841 6.0610357168105251 #
vertex $-1 $383 $533 #
point $-1 29.473732163084556 29.03239707582841 6.0610357168105251 #
coedge $-1 $398 $397 $390 $485 forward $387 $-1 #
edge $-1 $486 23.92968091241783 $489 27.937699010143437 $484 $534 forward 7 unknown #
vertex $-1 $402 $535 #
straight-curve $-1 -33.009820593585289 -64.063807326783305 12.646533004724198 0 -1 0 I I #
edge $-1 $489 -22.194785794655601 $399 0.5647161967962262 $398 $536 forward 7 unknown #
vertex $-1 $488 $537 #
straight-curve $-1 -33.009820593585289 -35.992195718499289 8.63851490699858 0 0.57357642473473569 0.81915205242281985 I I #
point $-1 -33.009820593585289 -33.185751317894947 12.646533004724196 #
point $-1 -10.250318602133461 -35.992195718499282 8.6385149069985907 #
straight-curve $-1 0 -35.992195718499282 12.646533004724196 1 0 0 I I #
vertex $-1 $405 $538 #
point $-1 -26.007105738884768 -33.769821465774292 10.068947531126648 #
vertex $-1 $409 $539 #
point $-1 -16.253033456833982 -33.769821465774292 10.068947531126648 #
coedge $-1 $414 $428 $417 $501 reversed $296 $-1 #
vertex $-1 $501 $540 #
straight-curve $-1 -56.238288521988586 -35.992195718499282 0 0 0 -1 I I #
edge $-1 $499 -35.992195718499282 $430 35.992195718499282 $498 $541 forward 7 unknown #
straight-curve $-1 0 -35.992195718499282 -12.646533004724196 -1 0 0 I I #
straight-curve $-1 -56.238288521988586 0 12.646533004724196 0 -1 0 I I #
point $-1 -56.238288521988586 35.992195718499282 12.646533004724196 #
point $-1 -56.238288521988586 -35.992195718499282 12.646533004724196 #
straight-curve $-1 -56.238288521988586 35.992195718499282 0 0 0 -1 I I #
point $-1 -56.238288521988586 35.992195718499282 -12.646533004724196 #
coedge $-1 $513 $433 $436 $510 reversed $316 $-1 #
straight-curve $-1 -69.378494440508462 35.992195718499282 2.0902392374129555 0 0 -1 I I #
edge $-1 $515 -35.992195718499282 $437 35.992195718499282 $508 $542 forward 7 unknown #
point $-1 -69.378494440508462 35.992195718499282 -0.31390269623148903 #
point $-1 -69.378494440508462 35.992195718499282 4.4943811710574 #
coedge $-1 $446 $508 $443 $514 reversed $316 $-1 #
edge $-1 $448 -2.4041419336444445 $515 2.4041419336444445 $513 $543 forward 7 unknown #
vertex $-1 $510 $544 #
straight-curve $-1 -62.80839148124852 -35.992195718499282 -0.31390269623148903 -1 0 0 I I #
straight-curve $-1 -69.378494440508462 0 4.4943811710574 0 -1 0 I I #
point $-1 -69.378494440508462 -35.992195718499282 4.4943811710574 #
vertex $-1 $454 $545 #
straight-curve $-1 69.378494440508447 0 -0.31390269623148903 0 -1 0 I I #
edge $-1 $457 -2.4041419336444445 $519 2.4041419336444445 $455 $546 forward 7 unknown #
point $-1 69.378494440508447 -35.992195718499282 4.4943811710574 #
point $-1 69.378494440508447 35.992195718499282 4.4943811710574 #
straight-curve $-1 69.378494440508447 -35.992195718499282 2.0902392374129555 0 0 -1 I I #
point $-1 69.378494440508447 -35.992195718499282 -0.31390269623148903 #
straight-curve $-1 62.808391481248513 35.992195718499282 -0.31390269623148903 1 0 0 I I #
straight-curve $-1 31.688857440244149 35.992195718499282 66.145821713463945 0 0 -1 I I #
point $-1 31.688857440244149 35.992195718499282 12.646533004724196 #
straight-curve $-1 12.450522123672581 35.992195718499275 0.93824581701274568 -1 0 0 I I #
point $-1 31.688857440244149 35.992195718499282 0.93824581701274212 #
point $-1 20.828356331605768 28.691397891742941 5.6953588697815585 #
point $-1 24.901044247345162 28.691397891742941 5.6953588697815585 #
point $-1 28.973732163084556 28.691397891742941 5.6953588697815585 #
straight-curve $-1 -33.009820593585289 -35.992195718499282 36.576213917142027 0 0 -1 I I #
point $-1 -33.009820593585289 -35.992195718499282 12.646533004724196 #
straight-curve $-1 -10.815034798929688 -35.992195718499282 8.6385149069985996 1 0 0 I I #
point $-1 -33.009820593585289 -35.992195718499282 8.6385149069985907 #
point $-1 -26.507105738884768 -33.360245439562881 9.7821593187592786 #
point $-1 -16.753033456833982 -33.360245439562881 9.7821593187592786 #
point $-1 -56.238288521988586 -35.992195718499282 -12.646533004724196 #
straight-curve $-1 -56.238288521988586 0 -12.646533004724196 0 1 0 I I #
straight-curve $-1 -69.378494440508462 0 -0.31390269623148903 0 1 0 I I #
straight-curve $-1 -69.378494440508462 -35.992195718499282 2.0902392374129555 0 0 -1 I I #
point $-1 -69.378494440508462 -35.992195718499282 -0.31390269623148903 #
point $-1 69.378494440508447 35.992195718499282 -0.31390269623148903 #
straight-curve $-1 69.378494440508447 35.992195718499282 2.0902392374129555 0 0 -1 I I #
End-of-ACIS-data 