500 0 3 0           
7 Unknown 11 ACIS 5.0 NT 24 Fri Mar 26 14:41:46 1999 
-1 9.9999999999999995e-007 1e-010 
body $-1 $3 $-1 $4 #
body $-1 $5 $-1 $6 #
body $-1 $7 $-1 $8 #
lump $-1 $-1 $9 $0 #
transform $-1 1 0 0 0 1 0 0 0 1 63.56883449812311 38.267208391336645 7.7403303255135052 1 rotate no_reflect no_shear #
lump $-1 $-1 $10 $1 #
transform $-1 1 0 0 0 1 0 0 0 1 63.56883449812311 38.267208391336645 7.7403303255135052 1 rotate no_reflect no_shear #
lump $-1 $-1 $11 $2 #
transform $-1 1 0 0 0 1 0 0 0 1 63.56883449812311 38.267208391336645 7.7403303255135052 1 rotate no_reflect no_shear #
shell $-1 $-1 $-1 $12 $-1 $3 #
shell $-1 $-1 $-1 $13 $-1 $5 #
shell $-1 $-1 $-1 $14 $-1 $7 #
face $-1 $15 $16 $9 $-1 $17 forward single #
face $-1 $18 $19 $10 $-1 $20 forward single #
face $-1 $21 $22 $11 $-1 $23 forward single #
face $-1 $24 $25 $9 $-1 $26 reversed single #
loop $-1 $-1 $27 $12 #
plane-surface $-1 0 0 7.7403303255135052 0 0 1 1 0 0 forward_v I I I I #
face $-1 $28 $29 $10 $-1 $30 reversed single #
loop $-1 $-1 $31 $13 #
plane-surface $-1 0 -41.669419833330565 1.1292024554040725 0 0 1 1 0 0 forward_v I I I I #
face $-1 $32 $33 $11 $-1 $34 reversed single #
loop $-1 $-1 $35 $14 #
plane-surface $-1 0 41.669419833330558 1.1292024554040725 0 0 1 1 0 0 forward_v I I I I #
face $-1 $36 $37 $9 $-1 $38 reversed single #
loop $-1 $-1 $39 $15 #
plane-surface $-1 0 0 -7.7403303255135052 0 0 1 1 0 0 forward_v I I I I #
coedge $-1 $40 $41 $42 $43 forward $16 $-1 #
face $-1 $44 $45 $10 $-1 $46 reversed single #
loop $-1 $-1 $47 $18 #
plane-surface $-1 0 -41.669419833330565 -1.8707975445959284 0 0 1 1 0 0 forward_v I I I I #
coedge $-1 $48 $49 $50 $51 forward $19 $-1 #
face $-1 $52 $53 $11 $-1 $54 reversed single #
loop $-1 $-1 $55 $21 #
plane-surface $-1 0 41.669419833330558 -1.8707975445959284 0 0 1 1 0 0 forward_v I I I I #
coedge $-1 $56 $57 $58 $59 forward $22 $-1 #
face $-1 $60 $61 $9 $-1 $62 reversed single #
loop $-1 $-1 $63 $24 #
plane-surface $-1 0 -38.267208391336645 0 0 1 0 0 0 1 forward_v I I I I #
coedge $-1 $64 $65 $66 $67 forward $25 $-1 #
coedge $-1 $68 $27 $69 $70 forward $16 $-1 #
coedge $-1 $27 $68 $71 $72 forward $16 $-1 #
coedge $-1 $73 $74 $27 $43 reversed $75 $-1 #
edge $-1 $76 -38.267208391336645 $77 38.267208391336645 $42 $78 forward 7 unknown #
face $-1 $79 $80 $10 $-1 $81 reversed single #
loop $-1 $-1 $82 $28 #
plane-surface $-1 0 -45.071631275324485 -0.37079754459592795 0 1 0 0 0 1 forward_v I I I I #
coedge $-1 $83 $84 $85 $86 forward $29 $-1 #
coedge $-1 $87 $31 $88 $89 reversed $19 $-1 #
coedge $-1 $31 $87 $90 $91 forward $19 $-1 #
coedge $-1 $92 $93 $31 $51 reversed $94 $-1 #
edge $-1 $95 -3.40221144199392 $96 3.40221144199392 $50 $97 forward 7 unknown #
face $-1 $98 $99 $11 $-1 $100 reversed single #
loop $-1 $-1 $101 $32 #
plane-surface $-1 0 45.071631275324478 -0.37079754459592795 0 -1 0 0 0 -1 forward_v I I I I #
coedge $-1 $102 $103 $104 $105 forward $33 $-1 #
coedge $-1 $106 $35 $107 $108 forward $22 $-1 #
coedge $-1 $35 $106 $109 $110 reversed $22 $-1 #
coedge $-1 $111 $112 $35 $59 reversed $113 $-1 #
edge $-1 $114 -3.40221144199392 $115 3.40221144199392 $58 $116 forward 7 unknown #
face $-1 $117 $118 $9 $-1 $119 reversed single #
loop $-1 $-1 $120 $36 #
plane-surface $-1 -63.56883449812311 0 0 1 0 0 0 0 -1 forward_v I I I I #
coedge $-1 $121 $71 $122 $123 forward $37 $-1 #
coedge $-1 $124 $39 $121 $125 forward $25 $-1 #
coedge $-1 $39 $124 $126 $127 forward $25 $-1 #
coedge $-1 $74 $73 $39 $67 reversed $75 $-1 #
edge $-1 $128 -38.267208391336645 $129 38.267208391336645 $66 $130 forward 7 unknown #
coedge $-1 $41 $40 $131 $132 forward $16 $-1 #
coedge $-1 $133 $134 $40 $70 reversed $118 $-1 #
edge $-1 $77 -63.56883449812311 $135 63.56883449812311 $69 $136 forward 7 unknown #
coedge $-1 $63 $137 $41 $72 reversed $37 $-1 #
edge $-1 $138 -63.56883449812311 $76 63.56883449812311 $71 $139 forward 7 unknown #
coedge $-1 $66 $42 $137 $140 forward $75 $-1 #
coedge $-1 $42 $66 $133 $141 reversed $75 $-1 #
loop $-1 $-1 $73 $117 #
vertex $-1 $43 $142 #
vertex $-1 $43 $143 #
straight-curve $-1 63.56883449812311 0 7.7403303255135052 0 1 0 I I #
face $-1 $144 $145 $10 $-1 $81 reversed single #
loop $-1 $-1 $146 $44 #
plane-surface $-1 0 -38.267208391336645 0 0 1 0 0 0 1 forward_v I I I I #
coedge $-1 $147 $90 $148 $149 forward $45 $-1 #
coedge $-1 $150 $47 $147 $151 forward $29 $-1 #
coedge $-1 $47 $150 $146 $152 reversed $29 $-1 #
coedge $-1 $153 $92 $47 $86 reversed $94 $-1 #
edge $-1 $154 -3.40221144199392 $155 3.40221144199392 $85 $156 forward 7 unknown #
coedge $-1 $49 $48 $157 $158 forward $19 $-1 #
coedge $-1 $159 $160 $48 $89 forward $145 $-1 #
edge $-1 $161 -63.56883449812311 $96 63.56883449812311 $88 $162 forward 7 unknown #
coedge $-1 $82 $163 $49 $91 reversed $45 $-1 #
edge $-1 $164 -63.56883449812311 $95 63.56883449812311 $90 $165 forward 7 unknown #
coedge $-1 $85 $50 $163 $166 forward $94 $-1 #
coedge $-1 $50 $167 $159 $168 forward $94 $-1 #
loop $-1 $-1 $93 $169 #
vertex $-1 $51 $170 #
vertex $-1 $51 $171 #
straight-curve $-1 63.56883449812311 -41.669419833330565 1.1292024554040725 0 1 0 I I #
face $-1 $172 $173 $11 $-1 $100 reversed single #
loop $-1 $-1 $174 $52 #
plane-surface $-1 0 38.267208391336645 0 0 -1 0 0 0 -1 forward_v I I I I #
coedge $-1 $175 $107 $112 $176 forward $53 $-1 #
coedge $-1 $177 $55 $174 $178 reversed $33 $-1 #
coedge $-1 $55 $177 $175 $179 forward $33 $-1 #
coedge $-1 $112 $180 $55 $105 reversed $113 $-1 #
edge $-1 $181 -3.40221144199392 $182 3.40221144199392 $104 $183 forward 7 unknown #
coedge $-1 $57 $56 $184 $185 forward $22 $-1 #
coedge $-1 $101 $186 $56 $108 reversed $53 $-1 #
edge $-1 $115 -63.56883449812311 $187 63.56883449812311 $107 $188 forward 7 unknown #
coedge $-1 $189 $190 $57 $110 forward $173 $-1 #
edge $-1 $114 -63.56883449812311 $191 63.56883449812311 $109 $192 forward 7 unknown #
coedge $-1 $193 $58 $190 $194 reversed $113 $-1 #
coedge $-1 $58 $104 $101 $176 reversed $113 $-1 #
loop $-1 $-1 $195 $196 #
vertex $-1 $194 $197 #
vertex $-1 $59 $198 #
straight-curve $-1 63.56883449812311 41.669419833330558 1.1292024554040725 0 1 0 I I #
face $-1 $-1 $75 $9 $-1 $199 reversed single #
loop $-1 $-1 $133 $60 #
plane-surface $-1 0 38.267208391336645 0 0 -1 0 0 0 -1 forward_v I I I I #
coedge $-1 $200 $131 $134 $201 forward $61 $-1 #
coedge $-1 $137 $63 $64 $125 reversed $37 $-1 #
coedge $-1 $131 $200 $63 $123 reversed $61 $-1 #
edge $-1 $138 -7.7403303255135052 $202 7.7403303255135052 $122 $203 forward 7 unknown #
coedge $-1 $65 $64 $200 $204 forward $25 $-1 #
edge $-1 $129 -63.56883449812311 $202 63.56883449812311 $121 $205 forward 7 unknown #
coedge $-1 $134 $133 $65 $127 reversed $118 $-1 #
edge $-1 $206 -63.56883449812311 $128 63.56883449812311 $126 $207 forward 7 unknown #
vertex $-1 $67 $208 #
vertex $-1 $140 $209 #
straight-curve $-1 63.56883449812311 0 -7.7403303255135052 0 -1 0 I I #
coedge $-1 $120 $122 $68 $132 reversed $61 $-1 #
edge $-1 $135 -38.267208391336645 $138 38.267208391336645 $131 $210 forward 7 unknown #
coedge $-1 $126 $69 $74 $141 forward $118 $-1 #
coedge $-1 $69 $126 $120 $201 reversed $118 $-1 #
vertex $-1 $70 $211 #
straight-curve $-1 0 38.267208391336645 7.7403303255135052 -1 0 0 I I #
coedge $-1 $71 $121 $73 $140 reversed $37 $-1 #
vertex $-1 $132 $212 #
straight-curve $-1 0 -38.267208391336645 7.7403303255135052 1 0 0 I I #
edge $-1 $76 -7.7403303255135052 $129 7.7403303255135052 $73 $213 forward 7 unknown #
edge $-1 $77 -7.7403303255135052 $128 7.7403303255135052 $74 $214 forward 7 unknown #
point $-1 63.56883449812311 -38.267208391336645 7.7403303255135052 #
point $-1 63.56883449812311 38.267208391336645 7.7403303255135052 #
face $-1 $215 $216 $10 $-1 $217 forward single #
loop $-1 $-1 $88 $79 #
coedge $-1 $218 $219 $84 $152 forward $80 $-1 #
coedge $-1 $163 $82 $83 $151 reversed $45 $-1 #
coedge $-1 $157 $220 $82 $149 reversed $221 $-1 #
edge $-1 $164 -1.5000000000000004 $222 1.5000000000000004 $148 $223 forward 7 unknown #
coedge $-1 $84 $83 $220 $224 forward $29 $-1 #
edge $-1 $155 -63.56883449812311 $222 63.56883449812311 $147 $225 forward 7 unknown #
edge $-1 $154 -63.56883449812311 $226 63.56883449812311 $146 $227 forward 7 unknown #
coedge $-1 $228 $85 $219 $229 forward $94 $-1 #
vertex $-1 $229 $230 #
vertex $-1 $166 $231 #
straight-curve $-1 63.56883449812311 -41.669419833330565 -1.8707975445959284 0 -1 0 I I #
coedge $-1 $232 $148 $87 $158 reversed $221 $-1 #
edge $-1 $161 -3.40221144199392 $164 3.40221144199392 $157 $233 forward 7 unknown #
coedge $-1 $234 $88 $93 $168 reversed $145 $-1 #
coedge $-1 $88 $234 $232 $235 forward $145 $-1 #
vertex $-1 $235 $236 #
straight-curve $-1 0 -38.267208391336645 1.1292024554040725 1 0 0 I I #
coedge $-1 $90 $147 $92 $166 reversed $45 $-1 #
vertex $-1 $158 $237 #
straight-curve $-1 0 -45.071631275324485 1.1292024554040725 1 0 0 I I #
edge $-1 $95 -1.5000000000000004 $155 1.5000000000000004 $92 $238 forward 7 unknown #
coedge $-1 $93 $239 $240 $241 reversed $94 $-1 #
edge $-1 $242 -7.7403303255135052 $96 -1.1292024554040725 $93 $243 forward 7 unknown #
face $-1 $-1 $94 $10 $-1 $244 reversed single #
point $-1 63.56883449812311 -45.071631275324485 1.1292024554040725 #
point $-1 63.56883449812311 -38.267208391336645 1.1292024554040725 #
face $-1 $245 $246 $11 $-1 $247 forward single #
loop $-1 $-1 $109 $98 #
coedge $-1 $248 $249 $102 $178 forward $99 $-1 #
coedge $-1 $186 $101 $103 $179 reversed $53 $-1 #
edge $-1 $115 -1.5000000000000004 $181 1.5000000000000004 $112 $250 forward 7 unknown #
coedge $-1 $103 $102 $251 $252 forward $33 $-1 #
edge $-1 $253 -63.56883449812311 $182 63.56883449812311 $174 $254 forward 7 unknown #
edge $-1 $255 -63.56883449812311 $181 63.56883449812311 $175 $256 forward 7 unknown #
coedge $-1 $104 $257 $248 $258 reversed $113 $-1 #
vertex $-1 $105 $259 #
vertex $-1 $258 $260 #
straight-curve $-1 63.56883449812311 41.669419833330558 -1.8707975445959284 0 -1 0 I I #
coedge $-1 $261 $262 $106 $185 reversed $263 $-1 #
edge $-1 $187 -3.40221144199392 $191 3.40221144199392 $184 $264 forward 7 unknown #
coedge $-1 $107 $175 $261 $265 reversed $53 $-1 #
vertex $-1 $108 $266 #
straight-curve $-1 0 45.071631275324478 1.1292024554040725 -1 0 0 I I #
coedge $-1 $267 $109 $262 $268 reversed $173 $-1 #
coedge $-1 $109 $267 $111 $194 forward $173 $-1 #
vertex $-1 $185 $269 #
straight-curve $-1 0 38.267208391336645 1.1292024554040725 -1 0 0 I I #
coedge $-1 $195 $111 $270 $271 reversed $113 $-1 #
edge $-1 $272 -7.7403303255135052 $114 -1.1292024554040725 $111 $273 forward 7 unknown #
coedge $-1 $274 $193 $275 $276 forward $113 $-1 #
face $-1 $-1 $113 $11 $-1 $277 reversed single #
point $-1 63.56883449812311 38.267208391336638 1.1292024554040725 #
point $-1 63.56883449812311 45.071631275324478 1.1292024554040725 #
plane-surface $-1 63.56883449812311 0 0 -1 0 0 0 0 1 forward_v I I I I #
coedge $-1 $122 $120 $124 $204 reversed $61 $-1 #
edge $-1 $135 -7.7403303255135052 $206 7.7403303255135052 $134 $278 forward 7 unknown #
vertex $-1 $204 $279 #
straight-curve $-1 -63.56883449812311 -38.267208391336645 0 0 0 -1 I I #
edge $-1 $202 -38.267208391336645 $206 38.267208391336645 $200 $280 forward 7 unknown #
straight-curve $-1 0 -38.267208391336645 -7.7403303255135052 -1 0 0 I I #
vertex $-1 $127 $281 #
straight-curve $-1 0 38.267208391336645 -7.7403303255135052 1 0 0 I I #
point $-1 63.56883449812311 38.267208391336645 -7.7403303255135052 #
point $-1 63.56883449812311 -38.267208391336645 -7.7403303255135052 #
straight-curve $-1 -63.56883449812311 0 7.7403303255135052 0 -1 0 I I #
point $-1 -63.56883449812311 38.267208391336645 7.7403303255135052 #
point $-1 -63.56883449812311 -38.267208391336645 7.7403303255135052 #
straight-curve $-1 63.56883449812311 -38.267208391336645 0 0 0 -1 I I #
straight-curve $-1 63.56883449812311 38.267208391336645 0 0 0 -1 I I #
face $-1 $282 $283 $10 $-1 $284 reversed single #
loop $-1 $-1 $240 $144 #
plane-surface $-1 0 0 7.7403303255135052 0 0 1 1 0 0 forward_v I I I I #
coedge $-1 $285 $146 $286 $287 forward $80 $-1 #
coedge $-1 $146 $285 $153 $229 reversed $80 $-1 #
coedge $-1 $148 $286 $150 $224 reversed $221 $-1 #
loop $-1 $-1 $288 $282 #
vertex $-1 $224 $289 #
straight-curve $-1 -63.56883449812311 -45.071631275324485 -0.37079754459592795 0 0 -1 I I #
edge $-1 $222 -3.40221144199392 $226 3.40221144199392 $220 $290 forward 7 unknown #
straight-curve $-1 0 -45.071631275324485 -1.8707975445959284 -1 0 0 I I #
vertex $-1 $287 $291 #
straight-curve $-1 0 -38.267208391336645 -1.8707975445959284 -1 0 0 I I #
coedge $-1 $239 $153 $292 $293 reversed $94 $-1 #
edge $-1 $154 1.8707975445959284 $294 7.7403303255135052 $153 $243 forward 7 unknown #
point $-1 63.56883449812311 -38.267208391336645 -1.8707975445959284 #
point $-1 63.56883449812311 -45.071631275324485 -1.8707975445959284 #
coedge $-1 $295 $157 $160 $235 reversed $221 $-1 #
straight-curve $-1 -63.56883449812311 -41.669419833330565 1.1292024554040725 0 -1 0 I I #
coedge $-1 $160 $159 $296 $297 reversed $145 $-1 #
edge $-1 $298 -7.7403303255135052 $161 -1.1292024554040725 $232 $299 forward 7 unknown #
point $-1 -63.56883449812311 -38.267208391336645 1.1292024554040725 #
point $-1 -63.56883449812311 -45.071631275324485 1.1292024554040725 #
straight-curve $-1 63.56883449812311 -45.071631275324485 -0.37079754459592795 0 0 -1 I I #
coedge $-1 $167 $228 $300 $301 reversed $94 $-1 #
coedge $-1 $302 $296 $167 $241 forward $216 $-1 #
edge $-1 $242 -38.267208391336645 $303 38.267208391336645 $167 $304 forward 7 unknown #
vertex $-1 $241 $305 #
straight-curve $-1 63.56883449812311 -38.267208391336645 0 0 0 -1 I I #
plane-surface $-1 63.56883449812311 0 0 -1 0 0 0 0 1 forward_v I I I I #
face $-1 $306 $307 $11 $-1 $308 reversed single #
loop $-1 $-1 $309 $172 #
plane-surface $-1 0 -41.669419833330565 1.1292024554040725 0 0 1 1 0 0 forward_v I I I I #
coedge $-1 $310 $174 $180 $258 forward $99 $-1 #
coedge $-1 $174 $310 $311 $312 reversed $99 $-1 #
straight-curve $-1 63.56883449812311 45.071631275324478 -0.37079754459592795 0 0 -1 I I #
coedge $-1 $311 $261 $177 $252 reversed $263 $-1 #
edge $-1 $253 -3.40221144199392 $255 3.40221144199392 $251 $313 forward 7 unknown #
vertex $-1 $312 $314 #
straight-curve $-1 0 38.267208391336645 -1.8707975445959284 1 0 0 I I #
vertex $-1 $179 $315 #
straight-curve $-1 0 45.071631275324478 -1.8707975445959284 1 0 0 I I #
coedge $-1 $180 $316 $317 $318 reversed $113 $-1 #
edge $-1 $182 1.8707975445959284 $319 7.7403303255135052 $180 $273 forward 7 unknown #
point $-1 63.56883449812311 45.071631275324478 -1.8707975445959284 #
point $-1 63.56883449812311 38.267208391336638 -1.8707975445959284 #
coedge $-1 $251 $184 $186 $265 forward $263 $-1 #
coedge $-1 $184 $320 $189 $268 forward $263 $-1 #
loop $-1 $-1 $262 $321 #
straight-curve $-1 -63.56883449812311 41.669419833330558 1.1292024554040725 0 -1 0 I I #
edge $-1 $187 -1.5000000000000004 $255 1.5000000000000004 $186 $322 forward 7 unknown #
point $-1 -63.56883449812311 45.071631275324478 1.1292024554040725 #
coedge $-1 $190 $189 $323 $324 reversed $173 $-1 #
edge $-1 $325 -7.7403303255135052 $191 -1.1292024554040725 $189 $326 forward 7 unknown #
point $-1 -63.56883449812311 38.267208391336638 1.1292024554040725 #
coedge $-1 $323 $327 $193 $271 forward $328 $-1 #
edge $-1 $329 -38.267208391336645 $272 38.267208391336645 $193 $330 forward 7 unknown #
vertex $-1 $271 $331 #
straight-curve $-1 63.56883449812311 38.267208391336645 0 0 0 -1 I I #
coedge $-1 $332 $195 $309 $333 reversed $113 $-1 #
coedge $-1 $334 $335 $195 $276 reversed $336 $-1 #
edge $-1 $329 -7.7403303255135052 $337 -1.1292024554040725 $195 $338 forward 7 unknown #
plane-surface $-1 63.56883449812311 0 0 -1 0 0 0 0 1 forward_v I I I I #
straight-curve $-1 -63.56883449812311 38.267208391336645 0 0 0 -1 I I #
point $-1 -63.56883449812311 -38.267208391336645 -7.7403303255135052 #
straight-curve $-1 -63.56883449812311 0 -7.7403303255135052 0 1 0 I I #
point $-1 -63.56883449812311 38.267208391336645 -7.7403303255135052 #
face $-1 $339 $221 $10 $-1 $340 reversed single #
loop $-1 $-1 $292 $215 #
plane-surface $-1 0 0 -7.7403303255135052 0 0 1 1 0 0 forward_v I I I I #
coedge $-1 $219 $218 $341 $342 reversed $80 $-1 #
coedge $-1 $220 $343 $218 $287 reversed $221 $-1 #
edge $-1 $226 1.8707975445959284 $344 7.7403303255135052 $286 $299 forward 7 unknown #
coedge $-1 $343 $295 $345 $346 forward $221 $-1 #
point $-1 -63.56883449812311 -45.071631275324485 -1.8707975445959284 #
straight-curve $-1 -63.56883449812311 -41.669419833330565 -1.8707975445959284 0 1 0 I I #
point $-1 -63.56883449812311 -38.267208391336645 -1.8707975445959284 #
coedge $-1 $341 $347 $228 $293 forward $283 $-1 #
edge $-1 $348 -38.267208391336645 $294 38.267208391336645 $228 $349 forward 7 unknown #
vertex $-1 $229 $350 #
coedge $-1 $288 $232 $351 $352 reversed $221 $-1 #
coedge $-1 $240 $351 $234 $297 forward $216 $-1 #
edge $-1 $298 -63.56883449812311 $242 63.56883449812311 $234 $353 forward 7 unknown #
vertex $-1 $352 $354 #
straight-curve $-1 -63.56883449812311 -38.267208391336645 0 0 0 -1 I I #
coedge $-1 $355 $356 $239 $301 forward $357 $-1 #
edge $-1 $303 -7.7403303255135052 $348 7.7403303255135052 $239 $358 forward 7 unknown #
coedge $-1 $351 $240 $356 $359 forward $216 $-1 #
vertex $-1 $241 $360 #
straight-curve $-1 63.56883449812311 0 7.7403303255135052 0 1 0 I I #
point $-1 63.56883449812311 -38.267208391336645 7.7403303255135052 #
face $-1 $361 $362 $11 $-1 $363 reversed single #
loop $-1 $-1 $364 $245 #
plane-surface $-1 0 -41.669419833330565 -1.8707975445959284 0 0 1 1 0 0 forward_v I I I I #
coedge $-1 $365 $366 $274 $333 forward $246 $-1 #
coedge $-1 $249 $248 $367 $368 reversed $99 $-1 #
coedge $-1 $369 $251 $249 $312 forward $263 $-1 #
edge $-1 $253 1.8707975445959284 $370 7.7403303255135052 $249 $326 forward 7 unknown #
straight-curve $-1 -63.56883449812311 41.669419833330558 -1.8707975445959284 0 1 0 I I #
point $-1 -63.56883449812311 38.267208391336638 -1.8707975445959284 #
point $-1 -63.56883449812311 45.071631275324478 -1.8707975445959284 #
coedge $-1 $257 $371 $372 $373 forward $113 $-1 #
coedge $-1 $374 $367 $257 $318 forward $375 $-1 #
edge $-1 $319 -38.267208391336645 $376 38.267208391336645 $257 $377 forward 7 unknown #
vertex $-1 $318 $378 #
coedge $-1 $262 $379 $380 $381 reversed $263 $-1 #
face $-1 $196 $263 $11 $-1 $382 reversed single #
straight-curve $-1 -63.56883449812311 45.071631275324478 -0.37079754459592795 0 0 -1 I I #
coedge $-1 $380 $270 $267 $324 forward $328 $-1 #
edge $-1 $272 -63.56883449812311 $325 63.56883449812311 $267 $383 forward 7 unknown #
vertex $-1 $324 $384 #
straight-curve $-1 -63.56883449812311 38.267208391336645 0 0 0 -1 I I #
coedge $-1 $270 $380 $334 $385 forward $328 $-1 #
loop $-1 $-1 $270 $386 #
vertex $-1 $271 $387 #
straight-curve $-1 63.56883449812311 0 7.7403303255135052 0 1 0 I I #
point $-1 63.56883449812311 38.267208391336645 7.7403303255135052 #
coedge $-1 $371 $274 $388 $389 forward $113 $-1 #
edge $-1 $390 -3.40221144199392 $337 3.40221144199392 $274 $391 forward 7 unknown #
coedge $-1 $392 $275 $327 $385 reversed $336 $-1 #
coedge $-1 $275 $392 $365 $393 forward $336 $-1 #
loop $-1 $-1 $335 $394 #
vertex $-1 $333 $395 #
straight-curve $-1 63.56883449812311 -38.267208391336645 0 0 0 -1 I I #
face $-1 $169 $357 $10 $-1 $396 reversed single #
plane-surface $-1 -63.56883449812311 0 0 1 0 0 0 0 -1 forward_v I I I I #
coedge $-1 $397 $292 $285 $342 forward $283 $-1 #
edge $-1 $294 -63.56883449812311 $344 63.56883449812311 $285 $398 forward 7 unknown #
coedge $-1 $286 $288 $397 $399 reversed $221 $-1 #
vertex $-1 $399 $400 #
coedge $-1 $356 $355 $288 $346 reversed $357 $-1 #
edge $-1 $401 -7.7403303255135052 $402 7.7403303255135052 $345 $403 forward 7 unknown #
coedge $-1 $292 $397 $355 $404 forward $283 $-1 #
vertex $-1 $293 $405 #
straight-curve $-1 63.56883449812311 0 -7.7403303255135052 0 -1 0 I I #
point $-1 63.56883449812311 -38.267208391336645 -7.7403303255135052 #
coedge $-1 $296 $302 $295 $352 forward $216 $-1 #
edge $-1 $401 -38.267208391336645 $298 38.267208391336645 $295 $406 forward 7 unknown #
straight-curve $-1 0 -38.267208391336645 7.7403303255135052 1 0 0 I I #
point $-1 -63.56883449812311 -38.267208391336645 7.7403303255135052 #
coedge $-1 $345 $300 $347 $404 reversed $357 $-1 #
coedge $-1 $300 $345 $302 $359 reversed $357 $-1 #
loop $-1 $-1 $300 $339 #
straight-curve $-1 63.56883449812311 38.267208391336645 0 0 0 -1 I I #
edge $-1 $303 -63.56883449812311 $401 63.56883449812311 $356 $407 forward 7 unknown #
point $-1 63.56883449812311 38.267208391336645 7.7403303255135052 #
face $-1 $394 $408 $11 $-1 $409 reversed single #
loop $-1 $-1 $410 $306 #
plane-surface $-1 0 -45.071631275324485 -0.37079754459592795 0 1 0 0 0 1 forward_v I I I I #
coedge $-1 $411 $412 $371 $413 forward $307 $-1 #
coedge $-1 $414 $309 $335 $393 reversed $246 $-1 #
coedge $-1 $309 $414 $415 $416 forward $246 $-1 #
coedge $-1 $317 $417 $310 $368 forward $375 $-1 #
edge $-1 $370 -63.56883449812311 $319 63.56883449812311 $310 $418 forward 7 unknown #
coedge $-1 $419 $311 $417 $420 reversed $263 $-1 #
vertex $-1 $368 $421 #
coedge $-1 $316 $332 $364 $413 reversed $113 $-1 #
coedge $-1 $422 $423 $316 $373 reversed $408 $-1 #
edge $-1 $424 1.8707975445959284 $376 7.7403303255135052 $316 $338 forward 7 unknown #
coedge $-1 $417 $317 $423 $425 forward $375 $-1 #
loop $-1 $-1 $317 $426 #
vertex $-1 $373 $427 #
straight-curve $-1 63.56883449812311 0 -7.7403303255135052 0 -1 0 I I #
point $-1 63.56883449812311 38.267208391336645 -7.7403303255135052 #
coedge $-1 $320 $428 $392 $429 reversed $263 $-1 #
coedge $-1 $327 $323 $320 $381 forward $328 $-1 #
edge $-1 $325 -38.267208391336645 $430 38.267208391336645 $320 $431 forward 7 unknown #
plane-surface $-1 -63.56883449812311 0 0 1 0 0 0 0 -1 forward_v I I I I #
straight-curve $-1 0 38.267208391336645 7.7403303255135052 -1 0 0 I I #
point $-1 -63.56883449812311 38.267208391336645 7.7403303255135052 #
edge $-1 $430 -63.56883449812311 $329 63.56883449812311 $334 $432 forward 7 unknown #
face $-1 $426 $328 $11 $-1 $433 forward single #
point $-1 63.56883449812311 -38.267208391336645 7.7403303255135052 #
coedge $-1 $415 $434 $332 $389 reversed $362 $-1 #
edge $-1 $390 -1.5000000000000004 $435 1.5000000000000004 $332 $436 forward 7 unknown #
vertex $-1 $333 $437 #
straight-curve $-1 63.56883449812311 -41.669419833330565 1.1292024554040725 0 1 0 I I #
coedge $-1 $335 $334 $379 $429 forward $336 $-1 #
edge $-1 $438 -63.56883449812311 $337 63.56883449812311 $335 $439 forward 7 unknown #
face $-1 $386 $336 $11 $-1 $409 reversed single #
point $-1 63.56883449812311 -38.267208391336645 1.1292024554040725 #
plane-surface $-1 0 38.267208391336645 0 0 -1 0 0 0 -1 forward_v I I I I #
coedge $-1 $347 $341 $343 $399 forward $283 $-1 #
straight-curve $-1 0 -38.267208391336645 -7.7403303255135052 -1 0 0 I I #
edge $-1 $344 -38.267208391336645 $402 38.267208391336645 $343 $440 forward 7 unknown #
point $-1 -63.56883449812311 -38.267208391336645 -7.7403303255135052 #
vertex $-1 $359 $441 #
vertex $-1 $404 $442 #
straight-curve $-1 -63.56883449812311 38.267208391336645 0 0 0 -1 I I #
edge $-1 $402 -63.56883449812311 $348 63.56883449812311 $355 $443 forward 7 unknown #
point $-1 63.56883449812311 38.267208391336645 -7.7403303255135052 #
straight-curve $-1 -63.56883449812311 0 7.7403303255135052 0 -1 0 I I #
straight-curve $-1 0 38.267208391336645 7.7403303255135052 -1 0 0 I I #
loop $-1 $-1 $422 $361 #
plane-surface $-1 0 -38.267208391336645 0 0 1 0 0 0 1 forward_v I I I I #
coedge $-1 $434 $415 $444 $445 forward $362 $-1 #
coedge $-1 $446 $364 $434 $447 forward $307 $-1 #
coedge $-1 $364 $446 $422 $448 reversed $307 $-1 #
edge $-1 $424 -3.40221144199392 $435 3.40221144199392 $371 $449 forward 7 unknown #
coedge $-1 $366 $365 $428 $450 forward $246 $-1 #
coedge $-1 $410 $388 $366 $416 reversed $362 $-1 #
edge $-1 $451 -63.56883449812311 $390 63.56883449812311 $415 $452 forward 7 unknown #
coedge $-1 $367 $374 $369 $420 forward $375 $-1 #
straight-curve $-1 0 38.267208391336645 -7.7403303255135052 1 0 0 I I #
coedge $-1 $453 $369 $454 $455 reversed $263 $-1 #
edge $-1 $456 -38.267208391336645 $370 38.267208391336645 $369 $457 forward 7 unknown #
point $-1 -63.56883449812311 38.267208391336645 -7.7403303255135052 #
coedge $-1 $454 $372 $412 $448 forward $408 $-1 #
coedge $-1 $372 $454 $374 $425 reversed $408 $-1 #
vertex $-1 $373 $458 #
edge $-1 $376 -63.56883449812311 $456 63.56883449812311 $423 $459 forward 7 unknown #
face $-1 $321 $375 $11 $-1 $460 reversed single #
point $-1 63.56883449812311 -38.267208391336645 -7.7403303255135052 #
coedge $-1 $379 $444 $414 $450 reversed $263 $-1 #
edge $-1 $430 -7.7403303255135052 $438 -1.1292024554040725 $379 $461 forward 7 unknown #
vertex $-1 $381 $462 #
straight-curve $-1 -63.56883449812311 0 7.7403303255135052 0 -1 0 I I #
straight-curve $-1 0 -38.267208391336645 7.7403303255135052 1 0 0 I I #
plane-surface $-1 0 0 7.7403303255135052 0 0 1 1 0 0 forward_v I I I I #
coedge $-1 $388 $410 $411 $447 reversed $362 $-1 #
vertex $-1 $389 $463 #
straight-curve $-1 63.56883449812311 -45.071631275324485 -0.37079754459592795 0 0 -1 I I #
point $-1 63.56883449812311 -45.071631275324485 1.1292024554040725 #
vertex $-1 $429 $464 #
straight-curve $-1 0 -38.267208391336645 1.1292024554040725 1 0 0 I I #
straight-curve $-1 -63.56883449812311 0 -7.7403303255135052 0 1 0 I I #
point $-1 -63.56883449812311 38.267208391336645 7.7403303255135052 #
point $-1 -63.56883449812311 38.267208391336645 -7.7403303255135052 #
straight-curve $-1 0 38.267208391336645 -7.7403303255135052 1 0 0 I I #
coedge $-1 $428 $453 $410 $445 reversed $263 $-1 #
edge $-1 $451 -1.5000000000000004 $465 1.5000000000000004 $444 $466 forward 7 unknown #
coedge $-1 $412 $411 $453 $467 forward $307 $-1 #
edge $-1 $435 -63.56883449812311 $465 63.56883449812311 $434 $468 forward 7 unknown #
edge $-1 $424 -63.56883449812311 $469 63.56883449812311 $422 $470 forward 7 unknown #
straight-curve $-1 63.56883449812311 -41.669419833330565 -1.8707975445959284 0 -1 0 I I #
edge $-1 $438 -3.40221144199392 $451 3.40221144199392 $428 $471 forward 7 unknown #
vertex $-1 $450 $472 #
straight-curve $-1 0 -45.071631275324485 1.1292024554040725 1 0 0 I I #
coedge $-1 $444 $419 $446 $467 reversed $263 $-1 #
coedge $-1 $423 $422 $419 $455 forward $408 $-1 #
edge $-1 $469 1.8707975445959284 $456 7.7403303255135052 $419 $461 forward 7 unknown #
vertex $-1 $420 $473 #
straight-curve $-1 -63.56883449812311 0 -7.7403303255135052 0 1 0 I I #
point $-1 63.56883449812311 -38.267208391336645 -1.8707975445959284 #
straight-curve $-1 0 -38.267208391336645 -7.7403303255135052 -1 0 0 I I #
plane-surface $-1 0 0 -7.7403303255135052 0 0 1 1 0 0 forward_v I I I I #
straight-curve $-1 -63.56883449812311 -38.267208391336645 0 0 0 -1 I I #
point $-1 -63.56883449812311 -38.267208391336645 7.7403303255135052 #
point $-1 63.56883449812311 -45.071631275324485 -1.8707975445959284 #
point $-1 -63.56883449812311 -38.267208391336645 1.1292024554040725 #
vertex $-1 $467 $474 #
straight-curve $-1 -63.56883449812311 -45.071631275324485 -0.37079754459592795 0 0 -1 I I #
edge $-1 $465 -3.40221144199392 $469 3.40221144199392 $453 $475 forward 7 unknown #
straight-curve $-1 0 -45.071631275324485 -1.8707975445959284 -1 0 0 I I #
vertex $-1 $455 $476 #
straight-curve $-1 0 -38.267208391336645 -1.8707975445959284 -1 0 0 I I #
straight-curve $-1 -63.56883449812311 -41.669419833330565 1.1292024554040725 0 -1 0 I I #
point $-1 -63.56883449812311 -45.071631275324485 1.1292024554040725 #
point $-1 -63.56883449812311 -38.267208391336645 -7.7403303255135052 #
point $-1 -63.56883449812311 -45.071631275324485 -1.8707975445959284 #
straight-curve $-1 -63.56883449812311 -41.669419833330565 -1.8707975445959284 0 1 0 I I #
point $-1 -63.56883449812311 -38.267208391336645 -1.8707975445959284 #
End-of-ACIS-data 