500 0 18 0           
7 Unknown 11 ACIS 5.0 NT 24 Thu Mar 25 16:20:10 1999 
-1 9.9999999999999995e-007 1e-010 
body $-1 $18 $-1 $19 #
body $-1 $20 $-1 $21 #
body $-1 $22 $-1 $23 #
body $-1 $24 $-1 $25 #
body $-1 $26 $-1 $27 #
body $-1 $28 $-1 $29 #
body $-1 $30 $-1 $31 #
body $-1 $32 $-1 $33 #
body $-1 $34 $-1 $35 #
body $-1 $36 $-1 $37 #
body $-1 $38 $-1 $39 #
body $-1 $40 $-1 $41 #
body $-1 $42 $-1 $43 #
body $-1 $44 $-1 $45 #
body $-1 $46 $-1 $47 #
body $-1 $48 $-1 $49 #
body $-1 $50 $-1 $51 #
body $-1 $52 $-1 $53 #
lump $-1 $-1 $54 $0 #
transform $-1 1 0 0 0 1 0 0 0 1 73.449507126071964 42.934797648306819 14.591829998812051 1 rotate no_reflect no_shear #
lump $-1 $-1 $55 $1 #
transform $-1 1 0 0 0 1 0 0 0 1 73.449507126071964 42.934797648306819 14.591829998812051 1 rotate no_reflect no_shear #
lump $-1 $-1 $56 $2 #
transform $-1 1 0 0 0 1 0 0 0 1 73.449507126071964 42.934797648306819 14.591829998812051 1 rotate no_reflect no_shear #
lump $-1 $-1 $57 $3 #
transform $-1 1 0 0 0 1 0 0 0 1 73.449507126071964 42.934797648306819 14.591829998812051 1 rotate no_reflect no_shear #
lump $-1 $-1 $58 $4 #
transform $-1 1 0 0 0 1 0 0 0 1 73.449507126071964 42.934797648306819 14.591829998812051 1 rotate no_reflect no_shear #
lump $-1 $-1 $59 $5 #
transform $-1 1 0 0 0 1 0 0 0 1 73.449507126071964 42.934797648306819 14.591829998812051 1 rotate no_reflect no_shear #
lump $-1 $-1 $60 $6 #
transform $-1 1 0 0 0 1 0 0 0 1 73.449507126071964 42.934797648306819 14.591829998812051 1 rotate no_reflect no_shear #
lump $-1 $-1 $61 $7 #
transform $-1 1 0 0 0 1 0 0 0 1 73.449507126071964 42.934797648306819 14.591829998812051 1 rotate no_reflect no_shear #
lump $-1 $-1 $62 $8 #
transform $-1 1 0 0 0 1 0 0 0 1 73.449507126071964 42.934797648306819 14.591829998812051 1 rotate no_reflect no_shear #
lump $-1 $-1 $63 $9 #
transform $-1 1 0 0 0 1 0 0 0 1 73.449507126071964 42.934797648306819 14.591829998812051 1 rotate no_reflect no_shear #
lump $-1 $-1 $64 $10 #
transform $-1 1 0 0 0 1 0 0 0 1 73.449507126071964 42.934797648306819 14.591829998812051 1 rotate no_reflect no_shear #
lump $-1 $-1 $65 $11 #
transform $-1 1 0 0 0 1 0 0 0 1 73.449507126071964 42.934797648306819 14.591829998812051 1 rotate no_reflect no_shear #
lump $-1 $-1 $66 $12 #
transform $-1 1 0 0 0 1 0 0 0 1 73.449507126071964 42.934797648306819 14.591829998812051 1 rotate no_reflect no_shear #
lump $-1 $-1 $67 $13 #
transform $-1 1 0 0 0 1 0 0 0 1 73.449507126071964 42.934797648306819 14.591829998812051 1 rotate no_reflect no_shear #
lump $-1 $-1 $68 $14 #
transform $-1 1 0 0 0 1 0 0 0 1 73.449507126071964 42.934797648306819 14.591829998812051 1 rotate no_reflect no_shear #
lump $-1 $-1 $69 $15 #
transform $-1 1 0 0 0 1 0 0 0 1 73.449507126071964 42.934797648306819 14.591829998812051 1 rotate no_reflect no_shear #
lump $-1 $-1 $70 $16 #
transform $-1 1 0 0 0 1 0 0 0 1 73.449507126071964 42.934797648306819 14.591829998812051 1 rotate no_reflect no_shear #
lump $-1 $-1 $71 $17 #
transform $-1 1 0 0 0 1 0 0 0 1 73.449507126071964 42.934797648306819 14.591829998812051 1 rotate no_reflect no_shear #
shell $-1 $-1 $-1 $72 $-1 $18 #
shell $-1 $-1 $-1 $73 $-1 $20 #
shell $-1 $-1 $-1 $74 $-1 $22 #
shell $-1 $-1 $-1 $75 $-1 $24 #
shell $-1 $-1 $-1 $76 $-1 $26 #
shell $-1 $-1 $-1 $77 $-1 $28 #
shell $-1 $-1 $-1 $78 $-1 $30 #
shell $-1 $-1 $-1 $79 $-1 $32 #
shell $-1 $-1 $-1 $80 $-1 $34 #
shell $-1 $-1 $-1 $81 $-1 $36 #
shell $-1 $-1 $-1 $82 $-1 $38 #
shell $-1 $-1 $-1 $83 $-1 $40 #
shell $-1 $-1 $-1 $84 $-1 $42 #
shell $-1 $-1 $-1 $85 $-1 $44 #
shell $-1 $-1 $-1 $86 $-1 $46 #
shell $-1 $-1 $-1 $87 $-1 $48 #
shell $-1 $-1 $-1 $88 $-1 $50 #
shell $-1 $-1 $-1 $89 $-1 $52 #
face $-1 $90 $91 $54 $-1 $92 forward single #
face $-1 $93 $94 $55 $-1 $95 forward single #
face $-1 $96 $97 $56 $-1 $98 forward single #
face $-1 $99 $100 $57 $-1 $101 reversed single #
face $-1 $102 $103 $58 $-1 $104 forward single #
face $-1 $105 $106 $59 $-1 $107 forward single #
face $-1 $108 $109 $60 $-1 $110 reversed single #
face $-1 $111 $112 $61 $-1 $113 forward single #
face $-1 $114 $115 $62 $-1 $116 forward single #
face $-1 $117 $118 $63 $-1 $119 reversed single #
face $-1 $120 $121 $64 $-1 $122 forward single #
face $-1 $123 $124 $65 $-1 $125 forward single #
face $-1 $126 $127 $66 $-1 $128 reversed single #
face $-1 $129 $130 $67 $-1 $131 forward single #
face $-1 $132 $133 $68 $-1 $134 forward single #
face $-1 $135 $136 $69 $-1 $137 reversed single #
face $-1 $138 $139 $70 $-1 $140 forward single #
face $-1 $141 $142 $71 $-1 $143 forward single #
face $-1 $144 $145 $54 $-1 $146 reversed single #
loop $-1 $-1 $147 $72 #
plane-surface $-1 0 0 14.591829998812051 0 0 1 1 0 0 forward_v I I I I #
face $-1 $148 $149 $55 $-1 $150 reversed single #
loop $-1 $-1 $151 $73 #
plane-surface $-1 0 -34.541117639947529 13.454990252738844 0 0 1 1 0 0 forward_v I I I I #
face $-1 $152 $153 $56 $-1 $154 reversed single #
loop $-1 $-1 $155 $74 #
plane-surface $-1 0 34.541117639947537 13.454990252738844 0 0 1 1 0 0 forward_v I I I I #
face $-1 $156 $157 $57 $-1 $158 reversed single #
loop $-1 $-1 $159 $75 #
plane-surface $-1 69.823831762884609 16.562348707676861 213.26870008677525 0 1 0 0.69465837861970381 0 0.71933979245794832 forward_v I I I I #
face $-1 $160 $161 $58 $-1 $162 forward single #
loop $-1 $163 $164 $76 #
cone-surface $-1 67.602112246291895 19.300945543080111 8.863505474827317 -0.69465837861970381 0 -0.71933979245794832 0.71933979245794832 0 -0.69465837861970381 1 I I 0 1 1 forward I I I I #
face $-1 $165 $166 $59 $-1 $167 forward single #
loop $-1 $168 $169 $77 #
cone-surface $-1 67.602112246291895 23.408840796184997 8.863505474827317 -0.69465837861970381 0 -0.71933979245794832 0.71933979245794832 0 -0.69465837861970381 1 I I 0 1 1 forward I I I I #
face $-1 $170 $171 $60 $-1 $172 reversed single #
loop $-1 $-1 $173 $78 #
plane-surface $-1 -161.8555419084455 -15.462614978417307 127.94517262340892 0 -1 0 0.6018150307709319 0 -0.79863550430605224 forward_v I I I I #
face $-1 $174 $175 $61 $-1 $176 forward single #
loop $-1 $177 $178 $79 #
cone-surface $-1 -70.517450839422679 -20.830842620077028 12.209799394296002 0.6018150307709319 0 -0.79863550430605224 0.19965887607651306 0 0.15045375769273298 1 I I 0 1 0.25 forward I I I I #
face $-1 $179 $180 $62 $-1 $181 forward single #
loop $-1 $182 $183 $80 #
cone-surface $-1 -70.517450839422679 -17.609906035081195 12.209799394296002 0.6018150307709319 0 -0.79863550430605224 0.19965887607651306 0 0.15045375769273298 1 I I 0 1 0.25 forward I I I I #
face $-1 $184 $185 $63 $-1 $186 reversed single #
loop $-1 $-1 $187 $81 #
plane-surface $-1 -161.8555419084455 -2.3888961626231868 127.94517262340892 0 -1 0 0.6018150307709319 0 -0.79863550430605224 forward_v I I I I #
face $-1 $188 $189 $64 $-1 $190 forward single #
loop $-1 $191 $192 $82 #
cone-surface $-1 -70.517450839422679 -7.7571238042829052 12.209799394296002 0.6018150307709319 0 -0.79863550430605224 0.19965887607651306 0 0.15045375769273298 1 I I 0 1 0.25 forward I I I I #
face $-1 $193 $194 $65 $-1 $195 forward single #
loop $-1 $196 $197 $83 #
cone-surface $-1 -70.517450839422679 -4.5361872192870791 12.209799394296002 0.6018150307709319 0 -0.79863550430605224 0.19965887607651306 0 0.15045375769273298 1 I I 0 1 0.25 forward I I I I #
face $-1 $198 $199 $66 $-1 $200 reversed single #
loop $-1 $-1 $201 $84 #
plane-surface $-1 -161.8555419084455 10.684822653170936 127.94517262340892 0 -1 0 0.6018150307709319 0 -0.79863550430605224 forward_v I I I I #
face $-1 $202 $203 $67 $-1 $204 forward single #
loop $-1 $205 $206 $85 #
cone-surface $-1 -70.517450839422679 5.3165950115112182 12.209799394296002 0.6018150307709319 0 -0.79863550430605224 0.19965887607651306 0 0.15045375769273298 1 I I 0 1 0.25 forward I I I I #
face $-1 $207 $208 $68 $-1 $209 forward single #
loop $-1 $210 $211 $86 #
cone-surface $-1 -70.517450839422679 8.5375315965070442 12.209799394296002 0.6018150307709319 0 -0.79863550430605224 0.19965887607651306 0 0.15045375769273298 1 I I 0 1 0.25 forward I I I I #
face $-1 $212 $213 $69 $-1 $214 reversed single #
loop $-1 $-1 $215 $87 #
plane-surface $-1 -161.8555419084455 23.75854146896506 127.94517262340892 0 -1 0 0.6018150307709319 0 -0.79863550430605224 forward_v I I I I #
face $-1 $216 $217 $70 $-1 $218 forward single #
loop $-1 $219 $220 $88 #
cone-surface $-1 -70.517450839422679 18.390313827305341 12.209799394296002 0.6018150307709319 0 -0.79863550430605224 0.19965887607651306 0 0.15045375769273298 1 I I 0 1 0.25 forward I I I I #
face $-1 $221 $222 $71 $-1 $223 forward single #
loop $-1 $224 $225 $89 #
cone-surface $-1 -70.517450839422679 21.611250412301168 12.209799394296002 0.6018150307709319 0 -0.79863550430605224 0.19965887607651306 0 0.15045375769273298 1 I I 0 1 0.25 forward I I I I #
face $-1 $226 $227 $54 $-1 $228 reversed single #
loop $-1 $-1 $229 $90 #
plane-surface $-1 0 0 -14.591829998812051 0 0 1 1 0 0 forward_v I I I I #
coedge $-1 $230 $231 $232 $233 forward $91 $-1 #
face $-1 $234 $235 $55 $-1 $236 reversed single #
loop $-1 $-1 $237 $93 #
plane-surface $-1 0 -34.541117639947529 5.7168270654663598 0 0 1 1 0 0 forward_v I I I I #
coedge $-1 $238 $239 $240 $241 reversed $94 $-1 #
face $-1 $242 $243 $56 $-1 $244 reversed single #
loop $-1 $-1 $245 $96 #
plane-surface $-1 0 34.541117639947537 5.7168270654663598 0 0 1 1 0 0 forward_v I I I I #
coedge $-1 $246 $247 $248 $249 reversed $97 $-1 #
face $-1 $250 $251 $57 $-1 $252 forward single #
loop $-1 $-1 $253 $99 #
plane-surface $-1 -32.220799298342456 21.354893169632554 107.59839366236085 0.69465837861970381 0 0.71933979245794832 0.71933979245794832 0 -0.69465837861970381 forward_v I I I I #
coedge $-1 $254 $255 $256 $257 reversed $100 $-1 #
face $-1 $-1 $258 $58 $-1 $259 forward single #
loop $-1 $260 $261 $102 #
cone-surface $-1 66.086984455148908 19.300945543080111 7.294544753452735 -0.69465837861970381 0 -0.71933979245794832 0.35966989622897416 0 -0.3473291893098519 1 I I -0.70710678118654746 0.70710678118654746 0.5 forward I I I I #
loop $-1 $-1 $262 $76 #
coedge $-1 $164 $164 $263 $264 reversed $103 $-1 #
face $-1 $-1 $265 $59 $-1 $266 forward single #
loop $-1 $267 $268 $105 #
cone-surface $-1 66.086984455148908 23.408840796184997 7.294544753452735 -0.69465837861970381 0 -0.71933979245794832 0.35966989622897416 0 -0.3473291893098519 1 I I -0.70710678118654746 0.70710678118654746 0.5 forward I I I I #
loop $-1 $-1 $269 $77 #
coedge $-1 $169 $169 $270 $271 reversed $106 $-1 #
face $-1 $272 $273 $60 $-1 $274 reversed single #
loop $-1 $-1 $275 $108 #
plane-surface $-1 -73.449507126071936 -19.220374327579112 10.626404294086001 -0.6018150307709319 0 0.79863550430605224 0.79863550430605224 0 0.6018150307709319 forward_v I I I I #
coedge $-1 $276 $277 $278 $279 reversed $109 $-1 #
face $-1 $-1 $280 $61 $-1 $281 forward single #
loop $-1 $282 $283 $111 #
cone-surface $-1 -70.141316445190853 -20.830842620077028 11.71065220410472 0.6018150307709319 0 -0.79863550430605224 0.099829438038256529 0 0.075226878846366488 1 I I -0.70710678118654746 0.70710678118654746 0.125 forward I I I I #
loop $-1 $-1 $284 $79 #
coedge $-1 $178 $178 $285 $286 reversed $112 $-1 #
face $-1 $-1 $287 $62 $-1 $288 forward single #
loop $-1 $289 $290 $114 #
cone-surface $-1 -70.141316445190853 -17.609906035081195 11.71065220410472 0.6018150307709319 0 -0.79863550430605224 0.099829438038256529 0 0.075226878846366488 1 I I -0.70710678118654746 0.70710678118654746 0.125 forward I I I I #
loop $-1 $-1 $291 $80 #
coedge $-1 $183 $183 $292 $293 reversed $115 $-1 #
face $-1 $294 $295 $63 $-1 $296 reversed single #
loop $-1 $-1 $297 $117 #
plane-surface $-1 -73.449507126071936 -6.1466555117849921 10.626404294086001 -0.6018150307709319 0 0.79863550430605224 0.79863550430605224 0 0.6018150307709319 forward_v I I I I #
coedge $-1 $298 $299 $300 $301 reversed $118 $-1 #
face $-1 $-1 $302 $64 $-1 $303 forward single #
loop $-1 $304 $305 $120 #
cone-surface $-1 -70.141316445190853 -7.7571238042829052 11.71065220410472 0.6018150307709319 0 -0.79863550430605224 0.099829438038256529 0 0.075226878846366488 1 I I -0.70710678118654746 0.70710678118654746 0.125 forward I I I I #
loop $-1 $-1 $306 $82 #
coedge $-1 $192 $192 $307 $308 reversed $121 $-1 #
face $-1 $-1 $309 $65 $-1 $310 forward single #
loop $-1 $311 $312 $123 #
cone-surface $-1 -70.141316445190853 -4.5361872192870791 11.71065220410472 0.6018150307709319 0 -0.79863550430605224 0.099829438038256529 0 0.075226878846366488 1 I I -0.70710678118654746 0.70710678118654746 0.125 forward I I I I #
loop $-1 $-1 $313 $83 #
coedge $-1 $197 $197 $314 $315 reversed $124 $-1 #
face $-1 $316 $317 $66 $-1 $318 reversed single #
loop $-1 $-1 $319 $126 #
plane-surface $-1 -73.449507126071936 6.9270633040091312 10.626404294086001 -0.6018150307709319 0 0.79863550430605224 0.79863550430605224 0 0.6018150307709319 forward_v I I I I #
coedge $-1 $320 $321 $322 $323 reversed $127 $-1 #
face $-1 $-1 $324 $67 $-1 $325 forward single #
loop $-1 $326 $327 $129 #
cone-surface $-1 -70.141316445190853 5.3165950115112182 11.71065220410472 0.6018150307709319 0 -0.79863550430605224 0.099829438038256529 0 0.075226878846366488 1 I I -0.70710678118654746 0.70710678118654746 0.125 forward I I I I #
loop $-1 $-1 $328 $85 #
coedge $-1 $206 $206 $329 $330 reversed $130 $-1 #
face $-1 $-1 $331 $68 $-1 $332 forward single #
loop $-1 $333 $334 $132 #
cone-surface $-1 -70.141316445190853 8.5375315965070442 11.71065220410472 0.6018150307709319 0 -0.79863550430605224 0.099829438038256529 0 0.075226878846366488 1 I I -0.70710678118654746 0.70710678118654746 0.125 forward I I I I #
loop $-1 $-1 $335 $86 #
coedge $-1 $211 $211 $336 $337 reversed $133 $-1 #
face $-1 $338 $339 $69 $-1 $340 reversed single #
loop $-1 $-1 $341 $135 #
plane-surface $-1 -73.449507126071936 20.000782119803254 10.626404294086001 -0.6018150307709319 0 0.79863550430605224 0.79863550430605224 0 0.6018150307709319 forward_v I I I I #
coedge $-1 $342 $343 $344 $345 reversed $136 $-1 #
face $-1 $-1 $346 $70 $-1 $347 forward single #
loop $-1 $348 $349 $138 #
cone-surface $-1 -70.141316445190853 18.390313827305341 11.71065220410472 0.6018150307709319 0 -0.79863550430605224 0.099829438038256529 0 0.075226878846366488 1 I I -0.70710678118654746 0.70710678118654746 0.125 forward I I I I #
loop $-1 $-1 $350 $88 #
coedge $-1 $220 $220 $351 $352 reversed $139 $-1 #
face $-1 $-1 $353 $71 $-1 $354 forward single #
loop $-1 $355 $356 $141 #
cone-surface $-1 -70.141316445190853 21.611250412301168 11.71065220410472 0.6018150307709319 0 -0.79863550430605224 0.099829438038256529 0 0.075226878846366488 1 I I -0.70710678118654746 0.70710678118654746 0.125 forward I I I I #
loop $-1 $-1 $357 $89 #
coedge $-1 $225 $225 $358 $359 reversed $142 $-1 #
face $-1 $360 $361 $54 $-1 $362 reversed single #
loop $-1 $-1 $363 $144 #
plane-surface $-1 0 -42.934797648306819 0 0 1 0 0 0 1 forward_v I I I I #
coedge $-1 $364 $365 $366 $367 forward $145 $-1 #
coedge $-1 $368 $147 $369 $370 forward $91 $-1 #
coedge $-1 $147 $368 $371 $372 forward $91 $-1 #
coedge $-1 $373 $374 $147 $233 reversed $375 $-1 #
edge $-1 $376 -42.934797648306819 $377 42.934797648306819 $232 $378 forward 7 unknown #
face $-1 $379 $380 $55 $-1 $381 reversed single #
loop $-1 $-1 $382 $148 #
plane-surface $-1 0 -26.14743763158824 9.5859086591026017 0 -1 0 0 0 -1 forward_v I I I I #
coedge $-1 $383 $384 $385 $386 reversed $149 $-1 #
coedge $-1 $387 $151 $388 $389 forward $94 $-1 #
coedge $-1 $151 $387 $390 $391 reversed $94 $-1 #
coedge $-1 $392 $393 $151 $241 forward $394 $-1 #
edge $-1 $395 8.8768788116144748 $396 25.664238828333055 $240 $397 forward 7 unknown #
face $-1 $398 $399 $56 $-1 $400 reversed single #
loop $-1 $-1 $401 $152 #
plane-surface $-1 0 26.147437631588247 9.5859086591026017 0 1 0 0 0 1 forward_v I I I I #
coedge $-1 $402 $403 $404 $405 reversed $153 $-1 #
coedge $-1 $406 $155 $407 $408 reversed $97 $-1 #
coedge $-1 $155 $406 $409 $410 forward $97 $-1 #
coedge $-1 $411 $412 $155 $249 forward $399 $-1 #
edge $-1 $413 -25.664238828333058 $414 -8.8768788116144783 $248 $415 forward 7 unknown #
face $-1 $416 $417 $57 $-1 $418 reversed single #
loop $-1 $-1 $419 $156 #
plane-surface $-1 0 0 14.591829998812051 0 0 1 1 0 0 forward_v I I I I #
coedge $-1 $420 $421 $422 $423 reversed $157 $-1 #
coedge $-1 $255 $159 $424 $425 reversed $100 $-1 #
coedge $-1 $159 $254 $420 $426 reversed $100 $-1 #
coedge $-1 $422 $427 $159 $257 forward $417 $-1 #
edge $-1 $428 92.042520044575582 $429 101.08058744225386 $256 $430 forward 7 unknown #
loop $-1 $-1 $263 $160 #
plane-surface $-1 -32.220799298342456 21.354893169632554 107.59839366236085 0.69465837861970381 0 0.71933979245794832 0.71933979245794832 0 -0.69465837861970381 forward_v I I I I #
loop $-1 $-1 $431 $102 #
coedge $-1 $261 $261 $262 $432 reversed $161 $-1 #
coedge $-1 $262 $262 $261 $432 forward $163 $-1 #
coedge $-1 $263 $263 $164 $264 forward $258 $-1 #
edge $-1 $433 0 $433 6.2831853071796004 $263 $434 forward 7 unknown #
loop $-1 $-1 $270 $165 #
plane-surface $-1 -32.220799298342456 21.354893169632554 107.59839366236085 0.69465837861970381 0 0.71933979245794832 0.71933979245794832 0 -0.69465837861970381 forward_v I I I I #
loop $-1 $-1 $435 $105 #
coedge $-1 $268 $268 $269 $436 reversed $166 $-1 #
coedge $-1 $269 $269 $268 $436 forward $168 $-1 #
coedge $-1 $270 $270 $169 $271 forward $265 $-1 #
edge $-1 $437 0 $437 6.2831853071796004 $270 $438 forward 7 unknown #
face $-1 $439 $440 $60 $-1 $441 reversed single #
loop $-1 $-1 $442 $170 #
plane-surface $-1 -161.8555419084455 -22.978133676740917 127.94517262340892 0 1 0 -0.6018150307709319 0 0.79863550430605224 forward_v I I I I #
coedge $-1 $443 $444 $445 $446 reversed $171 $-1 #
coedge $-1 $277 $173 $447 $448 reversed $109 $-1 #
coedge $-1 $173 $276 $443 $449 reversed $109 $-1 #
coedge $-1 $445 $450 $173 $279 forward $440 $-1 #
edge $-1 $451 49.380756312892409 $452 53.346182017618482 $278 $453 forward 7 unknown #
loop $-1 $-1 $285 $174 #
plane-surface $-1 -73.449507126071936 -19.220374327579112 10.626404294086001 -0.6018150307709319 0 0.79863550430605224 0.79863550430605224 0 0.6018150307709319 forward_v I I I I #
loop $-1 $-1 $454 $111 #
coedge $-1 $283 $283 $284 $455 reversed $175 $-1 #
coedge $-1 $284 $284 $283 $455 forward $177 $-1 #
coedge $-1 $285 $285 $178 $286 forward $280 $-1 #
edge $-1 $456 0 $456 6.2831853071796004 $285 $457 forward 7 unknown #
loop $-1 $-1 $292 $179 #
plane-surface $-1 -73.449507126071936 -19.220374327579112 10.626404294086001 -0.6018150307709319 0 0.79863550430605224 0.79863550430605224 0 0.6018150307709319 forward_v I I I I #
loop $-1 $-1 $458 $114 #
coedge $-1 $290 $290 $291 $459 reversed $180 $-1 #
coedge $-1 $291 $291 $290 $459 forward $182 $-1 #
coedge $-1 $292 $292 $183 $293 forward $287 $-1 #
edge $-1 $460 0 $460 6.2831853071796004 $292 $461 forward 7 unknown #
face $-1 $462 $463 $63 $-1 $464 reversed single #
loop $-1 $-1 $465 $184 #
plane-surface $-1 -161.8555419084455 -9.9044148609467975 127.94517262340892 0 1 0 -0.6018150307709319 0 0.79863550430605224 forward_v I I I I #
coedge $-1 $466 $467 $468 $469 reversed $185 $-1 #
coedge $-1 $299 $187 $470 $471 reversed $118 $-1 #
coedge $-1 $187 $298 $466 $472 reversed $118 $-1 #
coedge $-1 $468 $473 $187 $301 forward $463 $-1 #
edge $-1 $474 49.380756312892409 $475 53.346182017618482 $300 $476 forward 7 unknown #
loop $-1 $-1 $307 $188 #
plane-surface $-1 -73.449507126071936 -6.1466555117849921 10.626404294086001 -0.6018150307709319 0 0.79863550430605224 0.79863550430605224 0 0.6018150307709319 forward_v I I I I #
loop $-1 $-1 $477 $120 #
coedge $-1 $305 $305 $306 $478 reversed $189 $-1 #
coedge $-1 $306 $306 $305 $478 forward $191 $-1 #
coedge $-1 $307 $307 $192 $308 forward $302 $-1 #
edge $-1 $479 0 $479 6.2831853071796004 $307 $480 forward 7 unknown #
loop $-1 $-1 $314 $193 #
plane-surface $-1 -73.449507126071936 -6.1466555117849921 10.626404294086001 -0.6018150307709319 0 0.79863550430605224 0.79863550430605224 0 0.6018150307709319 forward_v I I I I #
loop $-1 $-1 $481 $123 #
coedge $-1 $312 $312 $313 $482 reversed $194 $-1 #
coedge $-1 $313 $313 $312 $482 forward $196 $-1 #
coedge $-1 $314 $314 $197 $315 forward $309 $-1 #
edge $-1 $483 0 $483 6.2831853071796004 $314 $484 forward 7 unknown #
face $-1 $485 $486 $66 $-1 $487 forward single #
loop $-1 $-1 $488 $198 #
plane-surface $-1 -161.8555419084455 3.1693039548473259 127.94517262340892 0 1 0 -0.6018150307709319 0 0.79863550430605224 forward_v I I I I #
coedge $-1 $489 $490 $491 $492 reversed $199 $-1 #
coedge $-1 $321 $201 $493 $494 reversed $127 $-1 #
coedge $-1 $201 $320 $489 $495 reversed $127 $-1 #
coedge $-1 $491 $496 $201 $323 forward $497 $-1 #
edge $-1 $498 49.380756312892409 $499 53.346182017618482 $322 $500 forward 7 unknown #
loop $-1 $-1 $329 $202 #
plane-surface $-1 -73.449507126071936 6.9270633040091312 10.626404294086001 -0.6018150307709319 0 0.79863550430605224 0.79863550430605224 0 0.6018150307709319 forward_v I I I I #
loop $-1 $-1 $501 $129 #
coedge $-1 $327 $327 $328 $502 reversed $203 $-1 #
coedge $-1 $328 $328 $327 $502 forward $205 $-1 #
coedge $-1 $329 $329 $206 $330 forward $324 $-1 #
edge $-1 $503 0 $503 6.2831853071796004 $329 $504 forward 7 unknown #
loop $-1 $-1 $336 $207 #
plane-surface $-1 -73.449507126071936 6.9270633040091312 10.626404294086001 -0.6018150307709319 0 0.79863550430605224 0.79863550430605224 0 0.6018150307709319 forward_v I I I I #
loop $-1 $-1 $505 $132 #
coedge $-1 $334 $334 $335 $506 reversed $208 $-1 #
coedge $-1 $335 $335 $334 $506 forward $210 $-1 #
coedge $-1 $336 $336 $211 $337 forward $331 $-1 #
edge $-1 $507 0 $507 6.2831853071796004 $336 $508 forward 7 unknown #
face $-1 $509 $510 $69 $-1 $511 forward single #
loop $-1 $-1 $512 $212 #
plane-surface $-1 -161.8555419084455 16.243022770641449 127.94517262340892 0 1 0 -0.6018150307709319 0 0.79863550430605224 forward_v I I I I #
coedge $-1 $513 $514 $515 $516 reversed $213 $-1 #
coedge $-1 $343 $215 $517 $518 reversed $136 $-1 #
coedge $-1 $215 $342 $513 $519 reversed $136 $-1 #
coedge $-1 $515 $520 $215 $345 forward $521 $-1 #
edge $-1 $522 49.380756312892409 $523 53.346182017618482 $344 $524 forward 7 unknown #
loop $-1 $-1 $351 $216 #
plane-surface $-1 -73.449507126071936 20.000782119803254 10.626404294086001 -0.6018150307709319 0 0.79863550430605224 0.79863550430605224 0 0.6018150307709319 forward_v I I I I #
loop $-1 $-1 $525 $138 #
coedge $-1 $349 $349 $350 $526 reversed $217 $-1 #
coedge $-1 $350 $350 $349 $526 forward $219 $-1 #
coedge $-1 $351 $351 $220 $352 forward $346 $-1 #
edge $-1 $527 0 $527 6.2831853071796004 $351 $528 forward 7 unknown #
loop $-1 $-1 $358 $221 #
plane-surface $-1 -73.449507126071936 20.000782119803254 10.626404294086001 -0.6018150307709319 0 0.79863550430605224 0.79863550430605224 0 0.6018150307709319 forward_v I I I I #
loop $-1 $-1 $529 $141 #
coedge $-1 $356 $356 $357 $530 reversed $222 $-1 #
coedge $-1 $357 $357 $356 $530 forward $224 $-1 #
coedge $-1 $358 $358 $225 $359 forward $353 $-1 #
edge $-1 $531 0 $531 6.2831853071796004 $358 $532 forward 7 unknown #
face $-1 $533 $534 $54 $-1 $535 reversed single #
loop $-1 $-1 $536 $226 #
plane-surface $-1 -73.449507126071964 0 0 1 0 0 0 0 -1 forward_v I I I I #
coedge $-1 $537 $371 $538 $539 forward $227 $-1 #
coedge $-1 $540 $229 $537 $541 forward $145 $-1 #
coedge $-1 $229 $540 $542 $543 forward $145 $-1 #
coedge $-1 $374 $373 $229 $367 reversed $375 $-1 #
edge $-1 $544 -42.934797648306819 $545 42.934797648306819 $366 $546 forward 7 unknown #
coedge $-1 $231 $230 $547 $548 forward $91 $-1 #
coedge $-1 $549 $550 $230 $370 reversed $534 $-1 #
edge $-1 $377 -73.449507126071964 $551 73.449507126071964 $369 $552 forward 7 unknown #
coedge $-1 $363 $553 $231 $372 reversed $227 $-1 #
edge $-1 $554 -73.449507126071964 $376 73.449507126071964 $371 $555 forward 7 unknown #
coedge $-1 $366 $232 $553 $556 forward $375 $-1 #
coedge $-1 $232 $366 $549 $557 reversed $375 $-1 #
loop $-1 $-1 $373 $533 #
vertex $-1 $233 $558 #
vertex $-1 $233 $559 #
straight-curve $-1 73.449507126071964 0 14.591829998812051 0 1 0 I I #
face $-1 $560 $561 $55 $-1 $562 reversed single #
loop $-1 $-1 $563 $234 #
plane-surface $-1 -73.449507126071964 0 0 1 0 0 0 0 -1 forward_v I I I I #
coedge $-1 $564 $388 $393 $565 reversed $235 $-1 #
coedge $-1 $566 $237 $567 $568 reversed $149 $-1 #
coedge $-1 $237 $566 $564 $569 forward $149 $-1 #
coedge $-1 $393 $392 $237 $386 forward $394 $-1 #
edge $-1 $570 -25.664238828333055 $571 -8.8768788116144748 $385 $572 forward 7 unknown #
coedge $-1 $239 $238 $563 $573 reversed $94 $-1 #
coedge $-1 $382 $574 $238 $389 reversed $235 $-1 #
edge $-1 $395 -73.449507126071964 $575 73.449507126071964 $388 $576 forward 7 unknown #
coedge $-1 $577 $578 $239 $391 forward $561 $-1 #
edge $-1 $396 -73.449507126071964 $579 73.449507126071964 $390 $580 forward 7 unknown #
coedge $-1 $385 $240 $578 $581 forward $394 $-1 #
coedge $-1 $240 $385 $382 $565 forward $394 $-1 #
loop $-1 $-1 $240 $560 #
vertex $-1 $241 $582 #
vertex $-1 $581 $583 #
straight-curve $-1 73.449507126071964 -17.270558819973765 13.454990252738844 0 -1 0 I I #
face $-1 $584 $585 $56 $-1 $586 reversed single #
loop $-1 $-1 $248 $242 #
plane-surface $-1 73.449507126071964 0 0 -1 0 0 0 0 1 forward_v I I I I #
coedge $-1 $587 $409 $588 $589 reversed $243 $-1 #
coedge $-1 $590 $245 $587 $591 forward $153 $-1 #
coedge $-1 $245 $590 $592 $593 reversed $153 $-1 #
coedge $-1 $412 $411 $245 $405 forward $399 $-1 #
edge $-1 $594 8.8768788116144783 $595 25.664238828333058 $404 $596 forward 7 unknown #
coedge $-1 $247 $246 $597 $598 reversed $97 $-1 #
coedge $-1 $599 $600 $246 $408 forward $601 $-1 #
edge $-1 $602 -73.449507126071964 $413 73.449507126071964 $407 $603 forward 7 unknown #
coedge $-1 $401 $604 $247 $410 reversed $243 $-1 #
edge $-1 $605 -73.449507126071964 $414 73.449507126071964 $409 $606 forward 7 unknown #
coedge $-1 $404 $248 $604 $607 forward $399 $-1 #
coedge $-1 $248 $404 $599 $608 reversed $399 $-1 #
vertex $-1 $608 $609 #
vertex $-1 $249 $610 #
straight-curve $-1 73.449507126071964 17.270558819973768 13.454990252738844 0 -1 0 I I #
face $-1 $-1 $611 $57 $-1 $612 forward single #
loop $-1 $-1 $613 $250 #
plane-surface $-1 73.449507126071964 0 0 -1 0 0 0 0 1 forward_v I I I I #
coedge $-1 $614 $615 $616 $617 forward $251 $-1 #
coedge $-1 $618 $253 $255 $426 forward $157 $-1 #
coedge $-1 $253 $618 $619 $620 forward $157 $-1 #
coedge $-1 $613 $256 $253 $423 forward $417 $-1 #
edge $-1 $429 5.8849021228605842 $621 15.46999104677197 $422 $622 forward 7 unknown #
coedge $-1 $615 $614 $254 $425 forward $251 $-1 #
edge $-1 $623 29.17839868873579 $428 38.53759124462966 $424 $624 forward 7 unknown #
edge $-1 $429 -146.89901425214396 $623 -133.88820537708648 $255 $625 forward 7 unknown #
coedge $-1 $256 $613 $615 $626 reversed $417 $-1 #
vertex $-1 $626 $627 #
vertex $-1 $257 $628 #
straight-curve $-1 73.449507126071964 16.562348707676861 106.63435004338763 0 0 -1 I I #
coedge $-1 $431 $431 $-1 $629 reversed $260 $-1 #
edge $-1 $630 0 $630 6.2831853071796004 $261 $631 forward 7 unknown #
vertex $-1 $264 $632 #
ellipse-curve $-1 68.769910848125022 19.300945543080111 10.072796299972909 0.69465837861970381 0 0.71933979245794832 0.71933979245794832 0 -0.69465837861970381 1 I I #
coedge $-1 $435 $435 $-1 $633 reversed $267 $-1 #
edge $-1 $634 0 $634 6.2831853071796004 $268 $635 forward 7 unknown #
vertex $-1 $271 $636 #
ellipse-curve $-1 68.769910848125022 23.408840796184997 10.072796299972909 0.69465837861970381 0 0.71933979245794832 0.71933979245794832 0 -0.69465837861970381 1 I I #
face $-1 $-1 $637 $60 $-1 $638 forward single #
loop $-1 $-1 $278 $272 #
plane-surface $-1 -73.449507126071964 0 0 1 0 0 0 0 -1 forward_v I I I I #
coedge $-1 $639 $640 $641 $642 reversed $273 $-1 #
coedge $-1 $643 $275 $277 $449 forward $171 $-1 #
coedge $-1 $275 $643 $639 $644 forward $171 $-1 #
coedge $-1 $641 $278 $275 $446 forward $440 $-1 #
edge $-1 $452 5.8524278146277506 $645 13.367946512951361 $445 $646 forward 7 unknown #
coedge $-1 $647 $648 $276 $448 forward $637 $-1 #
edge $-1 $649 -12.740561370678449 $451 -7.4782638281507872 $447 $650 forward 7 unknown #
edge $-1 $452 -3.5527045195756588e-014 $649 6.589110444194608 $277 $651 forward 7 unknown #
coedge $-1 $278 $641 $647 $652 reversed $440 $-1 #
vertex $-1 $652 $653 #
vertex $-1 $279 $654 #
straight-curve $-1 -73.449507126071964 -15.462614978417307 63.972586311704461 0 0 -1 I I #
coedge $-1 $454 $454 $-1 $655 reversed $282 $-1 #
edge $-1 $656 0 $656 6.2831853071796004 $283 $657 forward 7 unknown #
vertex $-1 $286 $658 #
ellipse-curve $-1 -70.81835835480814 -20.830842620077028 12.609117146449012 -0.6018150307709319 0 0.79863550430605224 0.19965887607651306 0 0.15045375769273298 1 I I #
coedge $-1 $458 $458 $-1 $659 reversed $289 $-1 #
edge $-1 $660 0 $660 6.2831853071796004 $290 $661 forward 7 unknown #
vertex $-1 $293 $662 #
ellipse-curve $-1 -70.81835835480814 -17.609906035081195 12.609117146449012 -0.6018150307709319 0 0.79863550430605224 0.19965887607651306 0 0.15045375769273298 1 I I #
face $-1 $-1 $663 $63 $-1 $664 forward single #
loop $-1 $-1 $300 $294 #
plane-surface $-1 -73.449507126071964 0 0 1 0 0 0 0 -1 forward_v I I I I #
coedge $-1 $665 $666 $667 $668 reversed $295 $-1 #
coedge $-1 $669 $297 $299 $472 forward $185 $-1 #
coedge $-1 $297 $669 $665 $670 forward $185 $-1 #
coedge $-1 $667 $300 $297 $469 forward $463 $-1 #
edge $-1 $475 -0.68443159326930925 $671 6.8310871050543014 $468 $672 forward 7 unknown #
coedge $-1 $673 $674 $298 $471 forward $663 $-1 #
edge $-1 $675 -12.740561370678449 $474 -7.4782638281507872 $470 $676 forward 7 unknown #
edge $-1 $475 -3.5527045195756588e-014 $675 6.589110444194608 $299 $677 forward 7 unknown #
coedge $-1 $300 $667 $673 $678 reversed $463 $-1 #
vertex $-1 $678 $679 #
vertex $-1 $301 $680 #
straight-curve $-1 -73.449507126071964 -2.3888961626231868 63.972586311704461 0 0 -1 I I #
coedge $-1 $477 $477 $-1 $681 reversed $304 $-1 #
edge $-1 $682 0 $682 6.2831853071796004 $305 $683 forward 7 unknown #
vertex $-1 $308 $684 #
ellipse-curve $-1 -70.81835835480814 -7.7571238042829052 12.609117146449012 -0.6018150307709319 0 0.79863550430605224 0.19965887607651306 0 0.15045375769273298 1 I I #
coedge $-1 $481 $481 $-1 $685 reversed $311 $-1 #
edge $-1 $686 0 $686 6.2831853071796004 $312 $687 forward 7 unknown #
vertex $-1 $315 $688 #
ellipse-curve $-1 -70.81835835480814 -4.5361872192870791 12.609117146449012 -0.6018150307709319 0 0.79863550430605224 0.19965887607651306 0 0.15045375769273298 1 I I #
face $-1 $-1 $497 $66 $-1 $689 reversed single #
loop $-1 $-1 $690 $316 #
plane-surface $-1 0 0 14.591829998812051 0 0 1 1 0 0 forward_v I I I I #
coedge $-1 $691 $692 $693 $694 reversed $317 $-1 #
coedge $-1 $695 $319 $321 $495 forward $199 $-1 #
coedge $-1 $319 $695 $691 $696 forward $199 $-1 #
coedge $-1 $693 $322 $319 $492 forward $497 $-1 #
edge $-1 $499 -7.2212910011663709 $697 0.29422769715723973 $491 $698 forward 7 unknown #
coedge $-1 $699 $700 $320 $494 forward $486 $-1 #
edge $-1 $701 -12.740561370678449 $498 -7.4782638281507872 $493 $702 forward 7 unknown #
edge $-1 $499 -3.5527045195756588e-014 $701 6.589110444194608 $321 $703 forward 7 unknown #
coedge $-1 $322 $693 $699 $704 reversed $497 $-1 #
loop $-1 $-1 $693 $485 #
vertex $-1 $704 $705 #
vertex $-1 $323 $706 #
straight-curve $-1 -73.449507126071964 10.684822653170936 63.972586311704461 0 0 -1 I I #
coedge $-1 $501 $501 $-1 $707 reversed $326 $-1 #
edge $-1 $708 0 $708 6.2831853071796004 $327 $709 forward 7 unknown #
vertex $-1 $330 $710 #
ellipse-curve $-1 -70.81835835480814 5.3165950115112182 12.609117146449012 -0.6018150307709319 0 0.79863550430605224 0.19965887607651306 0 0.15045375769273298 1 I I #
coedge $-1 $505 $505 $-1 $711 reversed $333 $-1 #
edge $-1 $712 0 $712 6.2831853071796004 $334 $713 forward 7 unknown #
vertex $-1 $337 $714 #
ellipse-curve $-1 -70.81835835480814 8.5375315965070442 12.609117146449012 -0.6018150307709319 0 0.79863550430605224 0.19965887607651306 0 0.15045375769273298 1 I I #
face $-1 $-1 $521 $69 $-1 $715 reversed single #
loop $-1 $-1 $716 $338 #
plane-surface $-1 0 0 14.591829998812051 0 0 1 1 0 0 forward_v I I I I #
coedge $-1 $717 $718 $719 $720 reversed $339 $-1 #
coedge $-1 $721 $341 $343 $519 forward $213 $-1 #
coedge $-1 $341 $721 $717 $722 forward $213 $-1 #
coedge $-1 $719 $344 $341 $516 forward $521 $-1 #
edge $-1 $523 -13.758150409063433 $723 -6.2426317107398219 $515 $724 forward 7 unknown #
coedge $-1 $725 $726 $342 $518 forward $510 $-1 #
edge $-1 $727 -12.740561370678449 $522 -7.4782638281507872 $517 $728 forward 7 unknown #
edge $-1 $523 -3.5527045195756588e-014 $727 6.589110444194608 $343 $729 forward 7 unknown #
coedge $-1 $344 $719 $725 $730 reversed $521 $-1 #
loop $-1 $-1 $719 $509 #
vertex $-1 $730 $731 #
vertex $-1 $345 $732 #
straight-curve $-1 -73.449507126071964 23.75854146896506 63.972586311704461 0 0 -1 I I #
coedge $-1 $525 $525 $-1 $733 reversed $348 $-1 #
edge $-1 $734 0 $734 6.2831853071796004 $349 $735 forward 7 unknown #
vertex $-1 $352 $736 #
ellipse-curve $-1 -70.81835835480814 18.390313827305341 12.609117146449012 -0.6018150307709319 0 0.79863550430605224 0.19965887607651306 0 0.15045375769273298 1 I I #
coedge $-1 $529 $529 $-1 $737 reversed $355 $-1 #
edge $-1 $738 0 $738 6.2831853071796004 $356 $739 forward 7 unknown #
vertex $-1 $359 $740 #
ellipse-curve $-1 -70.81835835480814 21.611250412301168 12.609117146449012 -0.6018150307709319 0 0.79863550430605224 0.19965887607651306 0 0.15045375769273298 1 I I #
face $-1 $-1 $375 $54 $-1 $741 reversed single #
loop $-1 $-1 $549 $360 #
plane-surface $-1 0 42.934797648306819 0 0 -1 0 0 0 -1 forward_v I I I I #
coedge $-1 $742 $547 $550 $743 forward $361 $-1 #
coedge $-1 $553 $363 $364 $541 reversed $227 $-1 #
coedge $-1 $547 $742 $363 $539 reversed $361 $-1 #
edge $-1 $554 -14.591829998812051 $744 14.591829998812051 $538 $745 forward 7 unknown #
coedge $-1 $365 $364 $742 $746 forward $145 $-1 #
edge $-1 $545 -73.449507126071964 $744 73.449507126071964 $537 $747 forward 7 unknown #
coedge $-1 $550 $549 $365 $543 reversed $534 $-1 #
edge $-1 $748 -73.449507126071964 $544 73.449507126071964 $542 $749 forward 7 unknown #
vertex $-1 $367 $750 #
vertex $-1 $556 $751 #
straight-curve $-1 73.449507126071964 0 -14.591829998812051 0 -1 0 I I #
coedge $-1 $536 $538 $368 $548 reversed $361 $-1 #
edge $-1 $551 -42.934797648306819 $554 42.934797648306819 $547 $752 forward 7 unknown #
coedge $-1 $542 $369 $374 $557 forward $534 $-1 #
coedge $-1 $369 $542 $536 $743 reversed $534 $-1 #
vertex $-1 $370 $753 #
straight-curve $-1 0 42.934797648306819 14.591829998812051 -1 0 0 I I #
coedge $-1 $371 $537 $373 $556 reversed $227 $-1 #
vertex $-1 $548 $754 #
straight-curve $-1 0 -42.934797648306819 14.591829998812051 1 0 0 I I #
edge $-1 $376 -14.591829998812051 $545 14.591829998812051 $373 $755 forward 7 unknown #
edge $-1 $377 -14.591829998812051 $544 14.591829998812051 $374 $756 forward 7 unknown #
point $-1 73.449507126071964 -42.934797648306819 14.591829998812051 #
point $-1 73.449507126071964 42.934797648306819 14.591829998812051 #
face $-1 $-1 $394 $55 $-1 $757 reversed single #
loop $-1 $-1 $390 $379 #
plane-surface $-1 0 -42.934797648306819 0 0 1 0 0 0 1 forward_v I I I I #
coedge $-1 $758 $759 $387 $573 forward $380 $-1 #
coedge $-1 $574 $382 $384 $569 reversed $235 $-1 #
edge $-1 $571 0.92387273591505892 $395 8.6620359231875419 $393 $760 forward 7 unknown #
coedge $-1 $384 $383 $761 $762 reversed $149 $-1 #
coedge $-1 $578 $577 $383 $568 forward $561 $-1 #
edge $-1 $763 -73.449507126071964 $570 73.449507126071964 $567 $764 forward 7 unknown #
edge $-1 $765 -73.449507126071964 $571 73.449507126071964 $564 $766 forward 7 unknown #
vertex $-1 $568 $767 #
vertex $-1 $386 $768 #
straight-curve $-1 73.449507126071964 -17.270558819973765 5.7168270654663598 0 1 0 I I #
edge $-1 $579 -25.664238828333055 $575 -8.8768788116144748 $563 $769 forward 7 unknown #
coedge $-1 $388 $564 $758 $770 reversed $235 $-1 #
vertex $-1 $573 $771 #
straight-curve $-1 0 -26.14743763158824 13.454990252738844 -1 0 0 I I #
coedge $-1 $567 $390 $759 $772 forward $561 $-1 #
coedge $-1 $390 $567 $392 $581 reversed $561 $-1 #
vertex $-1 $772 $773 #
straight-curve $-1 0 -42.934797648306819 13.454990252738844 -1 0 0 I I #
edge $-1 $396 -13.454990252738844 $570 -5.7168270654663598 $392 $774 forward 7 unknown #
point $-1 73.449507126071964 -26.14743763158824 13.454990252738844 #
point $-1 73.449507126071964 -42.934797648306819 13.454990252738844 #
face $-1 $-1 $601 $56 $-1 $775 reversed single #
loop $-1 $-1 $597 $398 #
plane-surface $-1 -73.449507126071964 0 0 1 0 0 0 0 -1 forward_v I I I I #
coedge $-1 $604 $401 $402 $591 reversed $243 $-1 #
coedge $-1 $597 $776 $401 $589 forward $585 $-1 #
edge $-1 $777 0.92387273591505892 $605 8.6620359231875419 $588 $778 forward 7 unknown #
coedge $-1 $403 $402 $776 $779 reversed $153 $-1 #
edge $-1 $594 -73.449507126071964 $777 73.449507126071964 $587 $780 forward 7 unknown #
coedge $-1 $600 $599 $403 $593 forward $601 $-1 #
edge $-1 $595 -73.449507126071964 $781 73.449507126071964 $592 $782 forward 7 unknown #
vertex $-1 $405 $783 #
vertex $-1 $593 $784 #
straight-curve $-1 73.449507126071964 17.270558819973768 5.7168270654663598 0 1 0 I I #
coedge $-1 $785 $588 $406 $598 forward $585 $-1 #
edge $-1 $605 8.8768788116144783 $602 25.664238828333058 $597 $786 forward 7 unknown #
coedge $-1 $592 $407 $412 $608 forward $601 $-1 #
coedge $-1 $407 $592 $785 $787 reversed $601 $-1 #
loop $-1 $-1 $407 $584 #
vertex $-1 $787 $788 #
straight-curve $-1 0 42.934797648306819 13.454990252738844 1 0 0 I I #
coedge $-1 $409 $587 $411 $607 reversed $243 $-1 #
vertex $-1 $598 $789 #
straight-curve $-1 0 26.147437631588247 13.454990252738844 1 0 0 I I #
edge $-1 $414 -8.6620359231875419 $594 -0.92387273591505892 $411 $790 forward 7 unknown #
edge $-1 $413 -13.454990252738844 $595 -5.7168270654663598 $412 $791 forward 7 unknown #
point $-1 73.449507126071964 42.934797648306827 13.454990252738844 #
point $-1 73.449507126071964 26.147437631588247 13.454990252738844 #
loop $-1 $-1 $619 $416 #
plane-surface $-1 0 26.147437631588247 9.5859086591026017 0 1 0 0 0 1 forward_v I I I I #
coedge $-1 $427 $422 $792 $793 forward $417 $-1 #
coedge $-1 $424 $419 $618 $794 forward $251 $-1 #
coedge $-1 $419 $424 $427 $626 forward $251 $-1 #
coedge $-1 $792 $619 $419 $617 reversed $611 $-1 #
edge $-1 $795 -38.53759124462966 $796 -29.17839868873579 $419 $797 forward 7 unknown #
coedge $-1 $421 $420 $614 $794 reversed $157 $-1 #
coedge $-1 $616 $792 $421 $620 reversed $611 $-1 #
edge $-1 $796 133.88820537708648 $621 146.89901425214396 $619 $798 forward 7 unknown #
vertex $-1 $793 $799 #
straight-curve $-1 73.44950712607195 10.677446584816277 5.5537626011337835 0 1 0 I I #
vertex $-1 $425 $800 #
straight-curve $-1 34.911915881442305 16.562348707676861 14.591829998812045 1 0 0 I I #
straight-curve $-1 -32.220799298342456 16.562348707676861 107.59839366236085 -0.71933979245794832 0 0.69465837861970381 I I #
edge $-1 $428 16.562348707676861 $795 26.147437631588247 $427 $801 forward 7 unknown #
point $-1 73.449507126071964 16.562348707676861 14.591829998812051 #
point $-1 73.449507126071964 16.562348707676861 5.5537626011337693 #
edge $-1 $802 1 $802 0 $431 $-1 forward 7 unknown #
vertex $-1 $432 $803 #
ellipse-curve $-1 66.434313644458754 19.300945543080111 7.6542146496817089 0.69465837861970381 0 0.71933979245794832 0.71933979245794832 0 -0.69465837861970381 1 I I #
point $-1 69.489250640582981 19.300945543080111 9.3781379213532183 #
edge $-1 $804 1 $804 0 $435 $-1 forward 7 unknown #
vertex $-1 $436 $805 #
ellipse-curve $-1 66.434313644458754 23.408840796184997 7.6542146496817089 0.69465837861970381 0 0.71933979245794832 0.71933979245794832 0 -0.69465837861970381 1 I I #
point $-1 69.489250640582981 23.408840796184997 9.3781379213532183 #
loop $-1 $-1 $447 $439 #
plane-surface $-1 0 0 14.591829998812051 0 0 1 1 0 0 forward_v I I I I #
coedge $-1 $640 $442 $444 $644 reversed $273 $-1 #
coedge $-1 $442 $639 $806 $807 reversed $273 $-1 #
coedge $-1 $450 $445 $442 $642 forward $440 $-1 #
edge $-1 $645 -53.346182017618482 $808 -49.380756312892409 $641 $809 forward 7 unknown #
coedge $-1 $444 $443 $648 $810 reversed $171 $-1 #
edge $-1 $811 -6.589110444194608 $645 3.5527045195756588e-014 $639 $812 forward 7 unknown #
vertex $-1 $446 $813 #
straight-curve $-1 -73.449507126071964 -9.610187163789556 10.626404294085976 0 -1 0 I I #
coedge $-1 $806 $447 $450 $652 forward $637 $-1 #
coedge $-1 $447 $806 $643 $810 forward $637 $-1 #
vertex $-1 $448 $814 #
straight-curve $-1 -80.927770954222751 -15.462614978417307 14.591829998812052 -1 0 0 I I #
straight-curve $-1 -73.449507126071936 -15.462614978417307 10.626404294086001 0.79863550430605224 0 0.6018150307709319 I I #
edge $-1 $451 15.462614978417307 $808 22.978133676740917 $450 $815 forward 7 unknown #
point $-1 -73.449507126071964 -15.462614978417307 14.591829998812051 #
point $-1 -73.449507126071964 -15.462614978417307 10.62640429408598 #
edge $-1 $816 1 $816 0 $454 $-1 forward 7 unknown #
vertex $-1 $455 $817 #
ellipse-curve $-1 -70.216543324037218 -20.830842620077028 11.810481642142976 -0.6018150307709319 0 0.79863550430605224 0.19965887607651306 0 0.15045375769273298 1 I I #
point $-1 -70.618699478731642 -20.830842620077028 12.759570904141762 #
edge $-1 $818 1 $818 0 $458 $-1 forward 7 unknown #
vertex $-1 $459 $819 #
ellipse-curve $-1 -70.216543324037218 -17.609906035081195 11.810481642142976 -0.6018150307709319 0 0.79863550430605224 0.19965887607651306 0 0.15045375769273298 1 I I #
point $-1 -70.618699478731642 -17.609906035081195 12.759570904141762 #
loop $-1 $-1 $470 $462 #
plane-surface $-1 0 0 14.591829998812051 0 0 1 1 0 0 forward_v I I I I #
coedge $-1 $666 $465 $467 $670 reversed $295 $-1 #
coedge $-1 $465 $665 $820 $821 reversed $295 $-1 #
coedge $-1 $473 $468 $465 $668 forward $463 $-1 #
edge $-1 $671 -53.346182017618482 $822 -49.380756312892409 $667 $823 forward 7 unknown #
coedge $-1 $467 $466 $674 $824 reversed $185 $-1 #
edge $-1 $825 -6.589110444194608 $671 3.5527045195756588e-014 $665 $826 forward 7 unknown #
vertex $-1 $469 $827 #
straight-curve $-1 -73.449507126071964 -3.0733277558924961 10.626404294085976 0 -1 0 I I #
coedge $-1 $820 $470 $473 $678 forward $663 $-1 #
coedge $-1 $470 $820 $669 $824 forward $663 $-1 #
vertex $-1 $471 $828 #
straight-curve $-1 -80.927770954222751 -2.3888961626231868 14.591829998812052 -1 0 0 I I #
straight-curve $-1 -73.449507126071936 -2.3888961626231868 10.626404294086001 0.79863550430605224 0 0.6018150307709319 I I #
edge $-1 $474 2.3888961626231868 $822 9.9044148609467975 $473 $829 forward 7 unknown #
point $-1 -73.449507126071964 -2.3888961626231868 14.591829998812051 #
point $-1 -73.449507126071964 -2.3888961626231868 10.62640429408598 #
edge $-1 $830 1 $830 0 $477 $-1 forward 7 unknown #
vertex $-1 $478 $831 #
ellipse-curve $-1 -70.216543324037218 -7.7571238042829052 11.810481642142976 -0.6018150307709319 0 0.79863550430605224 0.19965887607651306 0 0.15045375769273298 1 I I #
point $-1 -70.618699478731642 -7.7571238042829052 12.759570904141762 #
edge $-1 $832 1 $832 0 $481 $-1 forward 7 unknown #
vertex $-1 $482 $833 #
ellipse-curve $-1 -70.216543324037218 -4.5361872192870791 11.810481642142976 -0.6018150307709319 0 0.79863550430605224 0.19965887607651306 0 0.15045375769273298 1 I I #
point $-1 -70.618699478731642 -4.5361872192870791 12.759570904141762 #
plane-surface $-1 -73.449507126071964 0 0 1 0 0 0 0 -1 forward_v I I I I #
coedge $-1 $700 $699 $692 $834 forward $486 $-1 #
coedge $-1 $692 $488 $490 $696 reversed $317 $-1 #
coedge $-1 $488 $691 $690 $834 reversed $317 $-1 #
coedge $-1 $496 $491 $488 $694 forward $497 $-1 #
edge $-1 $697 -53.346182017618482 $835 -49.380756312892409 $693 $836 forward 7 unknown #
coedge $-1 $490 $489 $700 $837 reversed $199 $-1 #
edge $-1 $838 -6.589110444194608 $697 3.5527045195756588e-014 $691 $839 forward 7 unknown #
vertex $-1 $492 $840 #
straight-curve $-1 -73.449507126071964 3.4635316520045656 10.626404294085976 0 -1 0 I I #
coedge $-1 $690 $493 $496 $704 forward $486 $-1 #
coedge $-1 $493 $690 $695 $837 forward $486 $-1 #
vertex $-1 $494 $841 #
straight-curve $-1 -80.927770954222751 10.684822653170936 14.591829998812052 -1 0 0 I I #
straight-curve $-1 -73.449507126071936 10.684822653170936 10.626404294086001 0.79863550430605224 0 0.6018150307709319 I I #
edge $-1 $498 -10.684822653170936 $835 -3.1693039548473259 $496 $842 forward 7 unknown #
point $-1 -73.449507126071964 10.684822653170936 14.591829998812051 #
point $-1 -73.449507126071964 10.684822653170936 10.62640429408598 #
edge $-1 $843 1 $843 0 $501 $-1 forward 7 unknown #
vertex $-1 $502 $844 #
ellipse-curve $-1 -70.216543324037218 5.3165950115112182 11.810481642142976 -0.6018150307709319 0 0.79863550430605224 0.19965887607651306 0 0.15045375769273298 1 I I #
point $-1 -70.618699478731642 5.3165950115112182 12.759570904141762 #
edge $-1 $845 1 $845 0 $505 $-1 forward 7 unknown #
vertex $-1 $506 $846 #
ellipse-curve $-1 -70.216543324037218 8.5375315965070442 11.810481642142976 -0.6018150307709319 0 0.79863550430605224 0.19965887607651306 0 0.15045375769273298 1 I I #
point $-1 -70.618699478731642 8.5375315965070442 12.759570904141762 #
plane-surface $-1 -73.449507126071964 0 0 1 0 0 0 0 -1 forward_v I I I I #
coedge $-1 $726 $725 $718 $847 forward $510 $-1 #
coedge $-1 $718 $512 $514 $722 reversed $339 $-1 #
coedge $-1 $512 $717 $716 $847 reversed $339 $-1 #
coedge $-1 $520 $515 $512 $720 forward $521 $-1 #
edge $-1 $723 -53.346182017618482 $848 -49.380756312892409 $719 $849 forward 7 unknown #
coedge $-1 $514 $513 $726 $850 reversed $213 $-1 #
edge $-1 $851 -6.589110444194608 $723 3.5527045195756588e-014 $717 $852 forward 7 unknown #
vertex $-1 $516 $853 #
straight-curve $-1 -73.449507126071964 10.000391059901627 10.626404294085976 0 -1 0 I I #
coedge $-1 $716 $517 $520 $730 forward $510 $-1 #
coedge $-1 $517 $716 $721 $850 forward $510 $-1 #
vertex $-1 $518 $854 #
straight-curve $-1 -80.927770954222751 23.75854146896506 14.591829998812052 -1 0 0 I I #
straight-curve $-1 -73.449507126071936 23.75854146896506 10.626404294086001 0.79863550430605224 0 0.6018150307709319 I I #
edge $-1 $522 -23.75854146896506 $848 -16.243022770641449 $520 $855 forward 7 unknown #
point $-1 -73.449507126071964 23.75854146896506 14.591829998812051 #
point $-1 -73.449507126071964 23.75854146896506 10.62640429408598 #
edge $-1 $856 1 $856 0 $525 $-1 forward 7 unknown #
vertex $-1 $526 $857 #
ellipse-curve $-1 -70.216543324037218 18.390313827305341 11.810481642142976 -0.6018150307709319 0 0.79863550430605224 0.19965887607651306 0 0.15045375769273298 1 I I #
point $-1 -70.618699478731642 18.390313827305341 12.759570904141762 #
edge $-1 $858 1 $858 0 $529 $-1 forward 7 unknown #
vertex $-1 $530 $859 #
ellipse-curve $-1 -70.216543324037218 21.611250412301168 11.810481642142976 -0.6018150307709319 0 0.79863550430605224 0.19965887607651306 0 0.15045375769273298 1 I I #
point $-1 -70.618699478731642 21.611250412301168 12.759570904141762 #
plane-surface $-1 73.449507126071964 0 0 -1 0 0 0 0 1 forward_v I I I I #
coedge $-1 $538 $536 $540 $746 reversed $361 $-1 #
edge $-1 $551 -14.591829998812051 $748 14.591829998812051 $550 $860 forward 7 unknown #
vertex $-1 $746 $861 #
straight-curve $-1 -73.449507126071964 -42.934797648306819 0 0 0 -1 I I #
edge $-1 $744 -42.934797648306819 $748 42.934797648306819 $742 $862 forward 7 unknown #
straight-curve $-1 0 -42.934797648306819 -14.591829998812051 -1 0 0 I I #
vertex $-1 $543 $863 #
straight-curve $-1 0 42.934797648306819 -14.591829998812051 1 0 0 I I #
point $-1 73.449507126071964 42.934797648306819 -14.591829998812051 #
point $-1 73.449507126071964 -42.934797648306819 -14.591829998812051 #
straight-curve $-1 -73.449507126071964 0 14.591829998812051 0 -1 0 I I #
point $-1 -73.449507126071964 42.934797648306819 14.591829998812051 #
point $-1 -73.449507126071964 -42.934797648306819 14.591829998812051 #
straight-curve $-1 73.449507126071964 -42.934797648306819 0 0 0 -1 I I #
straight-curve $-1 73.449507126071964 42.934797648306819 0 0 0 -1 I I #
plane-surface $-1 73.449507126071964 0 0 -1 0 0 0 0 1 forward_v I I I I #
coedge $-1 $761 $563 $574 $770 forward $380 $-1 #
coedge $-1 $563 $761 $577 $772 reversed $380 $-1 #
straight-curve $-1 73.449507126071964 -26.14743763158824 4.7929543295513009 0 0 1 I I #
coedge $-1 $759 $758 $566 $762 forward $380 $-1 #
edge $-1 $765 8.8768788116144748 $763 25.664238828333055 $761 $864 forward 7 unknown #
vertex $-1 $568 $865 #
straight-curve $-1 0 -42.934797648306819 5.7168270654663598 1 0 0 I I #
vertex $-1 $762 $866 #
straight-curve $-1 0 -26.14743763158824 5.7168270654663598 1 0 0 I I #
point $-1 73.449507126071964 -42.934797648306819 5.7168270654663598 #
point $-1 73.449507126071964 -26.14743763158824 5.7168270654663598 #
straight-curve $-1 -73.449507126071964 -17.270558819973765 13.454990252738844 0 1 0 I I #
edge $-1 $575 -8.6620359231875419 $765 -0.92387273591505892 $758 $867 forward 7 unknown #
point $-1 -73.449507126071964 -26.14743763158824 13.454990252738844 #
edge $-1 $579 -13.454990252738844 $763 -5.7168270654663598 $759 $868 forward 7 unknown #
point $-1 -73.449507126071964 -42.934797648306819 13.454990252738844 #
straight-curve $-1 73.449507126071964 -42.934797648306819 0 0 0 -1 I I #
plane-surface $-1 0 42.934797648306819 0 0 -1 0 0 0 -1 forward_v I I I I #
coedge $-1 $588 $785 $590 $779 forward $585 $-1 #
vertex $-1 $779 $869 #
straight-curve $-1 -73.449507126071964 26.147437631588247 4.7929543295513009 0 0 1 I I #
edge $-1 $781 -25.664238828333058 $777 -8.8768788116144783 $776 $870 forward 7 unknown #
straight-curve $-1 0 26.147437631588247 5.7168270654663598 -1 0 0 I I #
vertex $-1 $593 $871 #
straight-curve $-1 0 42.934797648306819 5.7168270654663598 -1 0 0 I I #
point $-1 73.449507126071964 26.147437631588247 5.7168270654663598 #
point $-1 73.449507126071964 42.934797648306827 5.7168270654663598 #
coedge $-1 $776 $597 $600 $787 forward $585 $-1 #
straight-curve $-1 -73.449507126071964 17.270558819973768 13.454990252738844 0 1 0 I I #
edge $-1 $602 -13.454990252738844 $781 -5.7168270654663598 $600 $872 forward 7 unknown #
point $-1 -73.449507126071964 42.934797648306827 13.454990252738844 #
point $-1 -73.449507126071964 26.147437631588247 13.454990252738844 #
straight-curve $-1 73.449507126071964 26.147437631588247 4.7929543295513009 0 0 -1 I I #
straight-curve $-1 73.449507126071964 42.934797648306819 0 0 0 -1 I I #
coedge $-1 $619 $616 $613 $793 reversed $611 $-1 #
edge $-1 $621 -101.08058744225386 $795 -92.042520044575582 $613 $873 forward 7 unknown #
edge $-1 $796 -15.46999104677197 $623 -5.8849021228605842 $614 $874 forward 7 unknown #
vertex $-1 $617 $875 #
vertex $-1 $617 $876 #
straight-curve $-1 34.911915881442305 26.147437631588247 14.591829998812045 -1 0 0 I I #
straight-curve $-1 -32.220799298342456 26.147437631588247 107.59839366236085 0.71933979245794832 0 -0.69465837861970381 I I #
point $-1 73.449507126071964 26.147437631588247 5.5537626011337693 #
point $-1 64.090314570178094 16.562348707676861 14.591829998812045 #
straight-curve $-1 73.449507126071964 0 14.591829998812051 0 1 0 I I #
vertex $-1 $629 $877 #
point $-1 67.153653436916713 19.300945543080111 6.9595562710620058 #
vertex $-1 $633 $878 #
point $-1 67.153653436916713 23.408840796184997 6.9595562710620058 #
coedge $-1 $648 $647 $640 $807 forward $637 $-1 #
edge $-1 $808 7.4782638281507872 $811 12.740561370678449 $806 $879 forward 7 unknown #
vertex $-1 $807 $880 #
straight-curve $-1 -73.449507126071964 -22.978133676740917 63.972586311704461 0 0 1 I I #
edge $-1 $811 -13.367946512951361 $649 -5.8524278146277506 $648 $881 forward 7 unknown #
vertex $-1 $810 $882 #
straight-curve $-1 -73.449507126071936 -22.978133676740917 10.626404294086001 -0.79863550430605224 0 -0.6018150307709319 I I #
point $-1 -73.449507126071964 -22.978133676740917 10.62640429408598 #
point $-1 -68.187209583544302 -15.462614978417307 14.591829998812051 #
straight-curve $-1 -73.449507126071964 0 14.591829998812051 0 -1 0 I I #
vertex $-1 $655 $883 #
point $-1 -70.016884447960706 -20.830842620077028 11.96093539983571 #
vertex $-1 $659 $884 #
point $-1 -70.016884447960706 -17.609906035081195 11.96093539983571 #
coedge $-1 $674 $673 $666 $821 forward $663 $-1 #
edge $-1 $822 7.4782638281507872 $825 12.740561370678449 $820 $885 forward 7 unknown #
vertex $-1 $821 $886 #
straight-curve $-1 -73.449507126071964 -9.9044148609467975 63.972586311704461 0 0 1 I I #
edge $-1 $825 -6.8310871050543014 $675 0.68443159326930925 $674 $887 forward 7 unknown #
vertex $-1 $824 $888 #
straight-curve $-1 -73.449507126071936 -9.9044148609467975 10.626404294086001 -0.79863550430605224 0 -0.6018150307709319 I I #
point $-1 -73.449507126071964 -9.9044148609467975 10.62640429408598 #
point $-1 -68.187209583544302 -2.3888961626231868 14.591829998812051 #
straight-curve $-1 -73.449507126071964 0 14.591829998812051 0 -1 0 I I #
vertex $-1 $681 $889 #
point $-1 -70.016884447960706 -7.7571238042829052 11.96093539983571 #
vertex $-1 $685 $890 #
point $-1 -70.016884447960706 -4.5361872192870791 11.96093539983571 #
edge $-1 $835 7.4782638281507872 $838 12.740561370678449 $690 $891 forward 7 unknown #
vertex $-1 $694 $892 #
straight-curve $-1 -73.449507126071964 3.1693039548473259 63.972586311704461 0 0 1 I I #
edge $-1 $838 -0.29422769715723973 $701 7.2212910011663709 $700 $893 forward 7 unknown #
vertex $-1 $837 $894 #
straight-curve $-1 -73.449507126071936 3.1693039548473259 10.626404294086001 -0.79863550430605224 0 -0.6018150307709319 I I #
point $-1 -73.449507126071964 3.1693039548473259 10.62640429408598 #
point $-1 -68.187209583544302 10.684822653170936 14.591829998812051 #
straight-curve $-1 -73.449507126071964 0 14.591829998812051 0 -1 0 I I #
vertex $-1 $707 $895 #
point $-1 -70.016884447960706 5.3165950115112182 11.96093539983571 #
vertex $-1 $711 $896 #
point $-1 -70.016884447960706 8.5375315965070442 11.96093539983571 #
edge $-1 $848 7.4782638281507872 $851 12.740561370678449 $716 $897 forward 7 unknown #
vertex $-1 $720 $898 #
straight-curve $-1 -73.449507126071964 16.243022770641449 63.972586311704461 0 0 1 I I #
edge $-1 $851 6.2426317107398219 $727 13.758150409063433 $726 $899 forward 7 unknown #
vertex $-1 $850 $900 #
straight-curve $-1 -73.449507126071936 16.243022770641449 10.626404294086001 -0.79863550430605224 0 -0.6018150307709319 I I #
point $-1 -73.449507126071964 16.243022770641449 10.62640429408598 #
point $-1 -68.187209583544302 23.75854146896506 14.591829998812051 #
straight-curve $-1 -73.449507126071964 0 14.591829998812051 0 -1 0 I I #
vertex $-1 $733 $901 #
point $-1 -70.016884447960706 18.390313827305341 11.96093539983571 #
vertex $-1 $737 $902 #
point $-1 -70.016884447960706 21.611250412301168 11.96093539983571 #
straight-curve $-1 -73.449507126071964 42.934797648306819 0 0 0 -1 I I #
point $-1 -73.449507126071964 -42.934797648306819 -14.591829998812051 #
straight-curve $-1 -73.449507126071964 0 -14.591829998812051 0 1 0 I I #
point $-1 -73.449507126071964 42.934797648306819 -14.591829998812051 #
straight-curve $-1 -73.449507126071964 -17.270558819973765 5.7168270654663598 0 -1 0 I I #
point $-1 -73.449507126071964 -42.934797648306819 5.7168270654663598 #
point $-1 -73.449507126071964 -26.14743763158824 5.7168270654663598 #
straight-curve $-1 -73.449507126071964 -26.14743763158824 4.7929543295513009 0 0 -1 I I #
straight-curve $-1 -73.449507126071964 -42.934797648306819 0 0 0 -1 I I #
point $-1 -73.449507126071964 26.147437631588247 5.7168270654663598 #
straight-curve $-1 -73.449507126071964 17.270558819973768 5.7168270654663598 0 -1 0 I I #
point $-1 -73.449507126071964 42.934797648306827 5.7168270654663598 #
straight-curve $-1 -73.449507126071964 42.934797648306819 0 0 0 -1 I I #
straight-curve $-1 73.449507126071964 26.147437631588247 106.63435004338763 0 0 1 I I #
straight-curve $-1 64.090314570178066 10.677446584816277 14.591829998812052 0 -1 0 I I #
point $-1 73.449507126071964 26.147437631588247 14.591829998812051 #
point $-1 64.090314570178094 26.147437631588247 14.591829998812045 #
point $-1 65.739655265839062 19.300945543080111 6.9348748572237611 #
point $-1 65.739655265839062 23.408840796184997 6.9348748572237611 #
straight-curve $-1 -80.927770954222751 -22.978133676740917 14.591829998812052 1 0 0 I I #
point $-1 -73.449507126071964 -22.978133676740917 14.591829998812051 #
straight-curve $-1 -68.187209583544302 -9.610187163789556 14.591829998812052 0 1 0 I I #
point $-1 -68.187209583544302 -22.978133676740917 14.591829998812051 #
point $-1 -70.066089566344488 -20.830842620077028 11.610822766066464 #
point $-1 -70.066089566344488 -17.609906035081195 11.610822766066464 #
straight-curve $-1 -80.927770954222751 -9.9044148609467975 14.591829998812052 1 0 0 I I #
point $-1 -73.449507126071964 -9.9044148609467975 14.591829998812051 #
straight-curve $-1 -68.187209583544302 -3.0733277558924961 14.591829998812052 0 1 0 I I #
point $-1 -68.187209583544302 -9.9044148609467975 14.591829998812051 #
point $-1 -70.066089566344488 -7.7571238042829052 11.610822766066464 #
point $-1 -70.066089566344488 -4.5361872192870791 11.610822766066464 #
straight-curve $-1 -80.927770954222751 3.1693039548473259 14.591829998812052 1 0 0 I I #
point $-1 -73.449507126071964 3.1693039548473259 14.591829998812051 #
straight-curve $-1 -68.187209583544302 3.4635316520045656 14.591829998812052 0 1 0 I I #
point $-1 -68.187209583544302 3.1693039548473259 14.591829998812051 #
point $-1 -70.066089566344488 5.3165950115112182 11.610822766066464 #
point $-1 -70.066089566344488 8.5375315965070442 11.610822766066464 #
straight-curve $-1 -80.927770954222751 16.243022770641449 14.591829998812052 1 0 0 I I #
point $-1 -73.449507126071964 16.243022770641449 14.591829998812051 #
straight-curve $-1 -68.187209583544302 10.000391059901627 14.591829998812052 0 1 0 I I #
point $-1 -68.187209583544302 16.243022770641449 14.591829998812051 #
point $-1 -70.066089566344488 18.390313827305341 11.610822766066464 #
point $-1 -70.066089566344488 21.611250412301168 11.610822766066464 #
End-of-ACIS-data 