500 0 11 0           
7 Unknown 11 ACIS 5.0 NT 24 Thu Mar 25 23:09:16 1999 
-1 9.9999999999999995e-007 1e-010 
body $-1 $11 $-1 $12 #
body $-1 $13 $-1 $14 #
body $-1 $15 $-1 $16 #
body $-1 $17 $-1 $18 #
body $-1 $19 $-1 $20 #
body $-1 $21 $-1 $22 #
body $-1 $23 $-1 $24 #
body $-1 $25 $-1 $26 #
body $-1 $27 $-1 $28 #
body $-1 $29 $-1 $30 #
body $-1 $31 $-1 $32 #
lump $-1 $-1 $33 $0 #
transform $-1 1 0 0 0 1 0 0 0 1 67.531357768486586 39.993476879324099 8.561486970733327 1 rotate no_reflect no_shear #
lump $-1 $-1 $34 $1 #
transform $-1 1 0 0 0 1 0 0 0 1 67.531357768486586 39.993476879324099 8.561486970733327 1 rotate no_reflect no_shear #
lump $-1 $-1 $35 $2 #
transform $-1 1 0 0 0 1 0 0 0 1 67.531357768486586 39.993476879324099 8.561486970733327 1 rotate no_reflect no_shear #
lump $-1 $-1 $36 $3 #
transform $-1 1 0 0 0 1 0 0 0 1 67.531357768486586 39.993476879324099 8.561486970733327 1 rotate no_reflect no_shear #
lump $-1 $-1 $37 $4 #
transform $-1 1 0 0 0 1 0 0 0 1 67.531357768486586 39.993476879324099 8.561486970733327 1 rotate no_reflect no_shear #
lump $-1 $-1 $38 $5 #
transform $-1 1 0 0 0 1 0 0 0 1 67.531357768486586 39.993476879324099 8.561486970733327 1 rotate no_reflect no_shear #
lump $-1 $-1 $39 $6 #
transform $-1 1 0 0 0 1 0 0 0 1 67.531357768486586 39.993476879324099 8.561486970733327 1 rotate no_reflect no_shear #
lump $-1 $-1 $40 $7 #
transform $-1 1 0 0 0 1 0 0 0 1 67.531357768486586 39.993476879324099 8.561486970733327 1 rotate no_reflect no_shear #
lump $-1 $-1 $41 $8 #
transform $-1 1 0 0 0 1 0 0 0 1 67.531357768486586 39.993476879324099 8.561486970733327 1 rotate no_reflect no_shear #
lump $-1 $-1 $42 $9 #
transform $-1 1 0 0 0 1 0 0 0 1 67.531357768486586 39.993476879324099 8.561486970733327 1 rotate no_reflect no_shear #
lump $-1 $-1 $43 $10 #
transform $-1 1 0 0 0 1 0 0 0 1 67.531357768486586 39.993476879324099 8.561486970733327 1 rotate no_reflect no_shear #
shell $-1 $-1 $-1 $44 $-1 $11 #
shell $-1 $-1 $-1 $45 $-1 $13 #
shell $-1 $-1 $-1 $46 $-1 $15 #
shell $-1 $-1 $-1 $47 $-1 $17 #
shell $-1 $-1 $-1 $48 $-1 $19 #
shell $-1 $-1 $-1 $49 $-1 $21 #
shell $-1 $-1 $-1 $50 $-1 $23 #
shell $-1 $-1 $-1 $51 $-1 $25 #
shell $-1 $-1 $-1 $52 $-1 $27 #
shell $-1 $-1 $-1 $53 $-1 $29 #
shell $-1 $-1 $-1 $54 $-1 $31 #
face $-1 $55 $56 $33 $-1 $57 forward single #
face $-1 $58 $59 $34 $-1 $60 reversed single #
face $-1 $61 $62 $35 $-1 $63 forward single #
face $-1 $64 $65 $36 $-1 $66 forward single #
face $-1 $67 $68 $37 $-1 $69 forward single #
face $-1 $70 $71 $38 $-1 $72 reversed single #
face $-1 $73 $74 $39 $-1 $75 forward single #
face $-1 $76 $77 $40 $-1 $78 forward single #
face $-1 $79 $80 $41 $-1 $81 reversed single #
face $-1 $82 $83 $42 $-1 $84 forward single #
face $-1 $85 $86 $43 $-1 $87 forward single #
face $-1 $88 $89 $33 $-1 $90 reversed single #
loop $-1 $-1 $91 $44 #
plane-surface $-1 0 0 8.561486970733327 0 0 1 1 0 0 forward_v I I I I #
face $-1 $92 $93 $34 $-1 $94 reversed single #
loop $-1 $-1 $95 $45 #
plane-surface $-1 -183.30270212901127 25.38872375445407 74.863732738991033 0 1 0 -0.85716730853699208 0 0.51503806187062418 forward_v I I I I #
face $-1 $96 $97 $35 $-1 $98 forward single #
loop $-1 $99 $100 $46 #
cone-surface $-1 -66.123313213833526 28.309674379428081 6.6738712033538174 0.85716730853699208 0 -0.51503806187062418 0.25751903093531209 0 0.42858365426849604 1 I I 0 1 0.5 forward I I I I #
face $-1 $101 $102 $36 $-1 $103 forward single #
loop $-1 $104 $105 $47 #
cone-surface $-1 -66.123313213833526 32.691100316889084 6.6738712033538174 0.85716730853699208 0 -0.51503806187062418 0.25751903093531209 0 0.42858365426849604 1 I I 0 1 0.5 forward I I I I #
face $-1 $106 $107 $37 $-1 $108 forward single #
loop $-1 $109 $110 $48 #
cone-surface $-1 -66.123313213833526 37.072526254350088 6.6738712033538174 0.85716730853699208 0 -0.51503806187062418 0.25751903093531209 0 0.42858365426849604 1 I I 0 1 0.5 forward I I I I #
face $-1 $111 $112 $38 $-1 $113 reversed single #
loop $-1 $-1 $114 $49 #
plane-surface $-1 31.085405632464642 -14.694502295817074 188.0063447114207 0 -1 0 -0.55919291073839883 0 -0.82903756765294845 forward_v I I I I #
face $-1 $115 $116 $39 $-1 $117 forward single #
loop $-1 $118 $119 $50 #
cone-surface $-1 60.731144367290156 -23.765565260602887 3.3036425727668912 -0.55919291073839883 0 -0.82903756765294845 1.2435563514794228 0 -0.83878936610759824 1 I I 0 1 1.5 forward I I I I #
face $-1 $120 $121 $40 $-1 $122 forward single #
loop $-1 $123 $124 $51 #
cone-surface $-1 60.731144367290156 -18.322927481731398 3.3036425727668912 -0.55919291073839883 0 -0.82903756765294845 1.2435563514794228 0 -0.83878936610759824 1 I I 0 1 1.5 forward I I I I #
face $-1 $125 $126 $41 $-1 $127 reversed single #
loop $-1 $-1 $128 $52 #
plane-surface $-1 31.085405632464642 27.393990446517225 188.0063447114207 0 -1 0 -0.55919291073839883 0 -0.82903756765294845 forward_v I I I I #
face $-1 $129 $130 $42 $-1 $131 forward single #
loop $-1 $132 $133 $53 #
cone-surface $-1 60.731144367290156 18.322927481731405 3.3036425727668912 -0.55919291073839883 0 -0.82903756765294845 1.2435563514794228 0 -0.83878936610759824 1 I I 0 1 1.5 forward I I I I #
face $-1 $134 $135 $43 $-1 $136 forward single #
loop $-1 $137 $138 $54 #
cone-surface $-1 60.731144367290156 23.765565260602898 3.3036425727668912 -0.55919291073839883 0 -0.82903756765294845 1.2435563514794228 0 -0.83878936610759824 1 I I 0 1 1.5 forward I I I I #
face $-1 $139 $140 $33 $-1 $141 reversed single #
loop $-1 $-1 $142 $55 #
plane-surface $-1 0 0 -8.561486970733327 0 0 1 1 0 0 forward_v I I I I #
coedge $-1 $143 $144 $145 $146 forward $56 $-1 #
face $-1 $147 $148 $34 $-1 $149 forward single #
loop $-1 $-1 $150 $58 #
plane-surface $-1 -67.531357768486586 32.691100316889084 5.3012934978449238 -0.85716730853699208 0 0.51503806187062418 0.51503806187062418 0 0.85716730853699208 forward_v I I I I #
coedge $-1 $151 $152 $153 $154 reversed $59 $-1 #
face $-1 $-1 $155 $35 $-1 $156 forward single #
loop $-1 $157 $158 $61 #
cone-surface $-1 -65.480437732430786 28.309674379428081 6.2875926569508493 0.85716730853699208 0 -0.51503806187062418 0.12875951546765604 0 0.21429182713424802 1 I I -0.70710678118654746 0.70710678118654746 0.25 forward I I I I #
loop $-1 $-1 $159 $46 #
coedge $-1 $100 $100 $160 $161 reversed $62 $-1 #
face $-1 $-1 $162 $36 $-1 $163 forward single #
loop $-1 $164 $165 $64 #
cone-surface $-1 -65.480437732430786 32.691100316889084 6.2875926569508493 0.85716730853699208 0 -0.51503806187062418 0.12875951546765604 0 0.21429182713424802 1 I I -0.70710678118654746 0.70710678118654746 0.25 forward I I I I #
loop $-1 $-1 $166 $47 #
coedge $-1 $105 $105 $167 $168 reversed $65 $-1 #
face $-1 $-1 $169 $37 $-1 $170 forward single #
loop $-1 $171 $172 $67 #
cone-surface $-1 -65.480437732430786 37.072526254350088 6.2875926569508493 0.85716730853699208 0 -0.51503806187062418 0.12875951546765604 0 0.21429182713424802 1 I I -0.70710678118654746 0.70710678118654746 0.25 forward I I I I #
loop $-1 $-1 $173 $48 #
coedge $-1 $110 $110 $174 $175 reversed $68 $-1 #
face $-1 $176 $177 $38 $-1 $178 reversed single #
loop $-1 $-1 $179 $70 #
plane-surface $-1 -44.440707400887746 -21.044246371167144 76.034279542046363 0.55919291073839883 0 0.82903756765294845 0.82903756765294845 0 -0.55919291073839883 forward_v I I I I #
coedge $-1 $180 $181 $182 $183 reversed $71 $-1 #
face $-1 $-1 $184 $39 $-1 $185 forward single #
loop $-1 $186 $187 $73 #
cone-surface $-1 59.481305462125803 -23.765565260602887 1.4506802300804367 -0.55919291073839883 0 -0.82903756765294845 0.62177817573971139 0 -0.41939468305379912 1 I I -0.70710678118654757 0.70710678118654757 0.75 forward I I I I #
loop $-1 $-1 $188 $50 #
coedge $-1 $119 $119 $189 $190 reversed $74 $-1 #
face $-1 $-1 $191 $40 $-1 $192 forward single #
loop $-1 $193 $194 $76 #
cone-surface $-1 59.481305462125803 -18.322927481731398 1.4506802300804367 -0.55919291073839883 0 -0.82903756765294845 0.62177817573971139 0 -0.41939468305379912 1 I I -0.70710678118654757 0.70710678118654757 0.75 forward I I I I #
loop $-1 $-1 $195 $51 #
coedge $-1 $124 $124 $196 $197 reversed $77 $-1 #
face $-1 $198 $199 $41 $-1 $200 reversed single #
loop $-1 $-1 $201 $79 #
plane-surface $-1 -44.440707400887746 21.044246371167155 76.034279542046363 0.55919291073839883 0 0.82903756765294845 0.82903756765294845 0 -0.55919291073839883 forward_v I I I I #
coedge $-1 $202 $203 $204 $205 reversed $80 $-1 #
face $-1 $-1 $206 $42 $-1 $207 forward single #
loop $-1 $208 $209 $82 #
cone-surface $-1 59.481305462125803 18.322927481731405 1.4506802300804367 -0.55919291073839883 0 -0.82903756765294845 0.62177817573971139 0 -0.41939468305379912 1 I I -0.70710678118654757 0.70710678118654757 0.75 forward I I I I #
loop $-1 $-1 $210 $53 #
coedge $-1 $133 $133 $211 $212 reversed $83 $-1 #
face $-1 $-1 $213 $43 $-1 $214 forward single #
loop $-1 $215 $216 $85 #
cone-surface $-1 59.481305462125803 23.765565260602898 1.4506802300804367 -0.55919291073839883 0 -0.82903756765294845 0.62177817573971139 0 -0.41939468305379912 1 I I -0.70710678118654757 0.70710678118654757 0.75 forward I I I I #
loop $-1 $-1 $217 $54 #
coedge $-1 $138 $138 $218 $219 reversed $86 $-1 #
face $-1 $220 $221 $33 $-1 $222 reversed single #
loop $-1 $-1 $223 $88 #
plane-surface $-1 0 -39.993476879324099 0 0 1 0 0 0 1 forward_v I I I I #
coedge $-1 $224 $225 $226 $227 forward $89 $-1 #
coedge $-1 $228 $91 $229 $230 forward $56 $-1 #
coedge $-1 $91 $228 $231 $232 forward $56 $-1 #
coedge $-1 $233 $234 $91 $146 reversed $235 $-1 #
edge $-1 $236 -39.993476879324099 $237 39.993476879324099 $145 $238 forward 7 unknown #
face $-1 $239 $240 $34 $-1 $241 reversed single #
loop $-1 $-1 $153 $92 #
plane-surface $-1 0 0 8.561486970733327 0 0 1 1 0 0 forward_v I I I I #
coedge $-1 $242 $243 $244 $245 reversed $93 $-1 #
coedge $-1 $152 $95 $246 $247 reversed $59 $-1 #
coedge $-1 $95 $151 $242 $248 reversed $59 $-1 #
coedge $-1 $244 $249 $95 $154 forward $148 $-1 #
edge $-1 $250 24.119993296019047 $251 26.078915096788165 $153 $252 forward 7 unknown #
loop $-1 $-1 $160 $96 #
plane-surface $-1 -67.531357768486586 32.691100316889084 5.3012934978449238 -0.85716730853699208 0 0.51503806187062418 0.51503806187062418 0 0.85716730853699208 forward_v I I I I #
loop $-1 $-1 $253 $61 #
coedge $-1 $158 $158 $159 $254 reversed $97 $-1 #
coedge $-1 $159 $159 $158 $254 forward $99 $-1 #
coedge $-1 $160 $160 $100 $161 forward $155 $-1 #
edge $-1 $255 0 $255 6.2831853071796004 $160 $256 forward 7 unknown #
loop $-1 $-1 $167 $101 #
plane-surface $-1 -67.531357768486586 32.691100316889084 5.3012934978449238 -0.85716730853699208 0 0.51503806187062418 0.51503806187062418 0 0.85716730853699208 forward_v I I I I #
loop $-1 $-1 $257 $64 #
coedge $-1 $165 $165 $166 $258 reversed $102 $-1 #
coedge $-1 $166 $166 $165 $258 forward $104 $-1 #
coedge $-1 $167 $167 $105 $168 forward $162 $-1 #
edge $-1 $259 0 $259 6.2831853071796004 $167 $260 forward 7 unknown #
loop $-1 $-1 $174 $106 #
plane-surface $-1 -67.531357768486586 32.691100316889084 5.3012934978449238 -0.85716730853699208 0 0.51503806187062418 0.51503806187062418 0 0.85716730853699208 forward_v I I I I #
loop $-1 $-1 $261 $67 #
coedge $-1 $172 $172 $173 $262 reversed $107 $-1 #
coedge $-1 $173 $173 $172 $262 forward $109 $-1 #
coedge $-1 $174 $174 $110 $175 forward $169 $-1 #
edge $-1 $263 0 $263 6.2831853071796004 $174 $264 forward 7 unknown #
face $-1 $265 $266 $38 $-1 $267 forward single #
loop $-1 $-1 $268 $111 #
plane-surface $-1 31.085405632464642 -27.393990446517215 188.0063447114207 0 1 0 0.55919291073839883 0 0.82903756765294845 forward_v I I I I #
coedge $-1 $269 $270 $271 $272 reversed $112 $-1 #
coedge $-1 $181 $114 $273 $274 reversed $71 $-1 #
coedge $-1 $114 $180 $269 $275 reversed $71 $-1 #
coedge $-1 $271 $276 $114 $183 forward $266 $-1 #
edge $-1 $277 -51.988654952254265 $278 -40.049116594082506 $182 $279 forward 7 unknown #
loop $-1 $-1 $189 $115 #
plane-surface $-1 -44.440707400887746 -21.044246371167144 76.034279542046363 0.55919291073839883 0 0.82903756765294845 0.82903756765294845 0 -0.55919291073839883 forward_v I I I I #
loop $-1 $-1 $280 $73 #
coedge $-1 $187 $187 $188 $281 reversed $116 $-1 #
coedge $-1 $188 $188 $187 $281 forward $118 $-1 #
coedge $-1 $189 $189 $119 $190 forward $184 $-1 #
edge $-1 $282 0 $282 6.2831853071796004 $189 $283 forward 7 unknown #
loop $-1 $-1 $196 $120 #
plane-surface $-1 -44.440707400887746 -21.044246371167144 76.034279542046363 0.55919291073839883 0 0.82903756765294845 0.82903756765294845 0 -0.55919291073839883 forward_v I I I I #
loop $-1 $-1 $284 $76 #
coedge $-1 $194 $194 $195 $285 reversed $121 $-1 #
coedge $-1 $195 $195 $194 $285 forward $123 $-1 #
coedge $-1 $196 $196 $124 $197 forward $191 $-1 #
edge $-1 $286 0 $286 6.2831853071796004 $196 $287 forward 7 unknown #
face $-1 $288 $289 $41 $-1 $290 reversed single #
loop $-1 $-1 $291 $125 #
plane-surface $-1 31.085405632464642 14.694502295817085 188.0063447114207 0 1 0 0.55919291073839883 0 0.82903756765294845 forward_v I I I I #
coedge $-1 $292 $293 $294 $295 reversed $126 $-1 #
coedge $-1 $203 $128 $296 $297 reversed $80 $-1 #
coedge $-1 $128 $202 $292 $298 reversed $80 $-1 #
coedge $-1 $294 $299 $128 $205 forward $300 $-1 #
edge $-1 $301 -51.988654952254265 $302 -40.049116594082506 $204 $303 forward 7 unknown #
loop $-1 $-1 $211 $129 #
plane-surface $-1 -44.440707400887746 21.044246371167155 76.034279542046363 0.55919291073839883 0 0.82903756765294845 0.82903756765294845 0 -0.55919291073839883 forward_v I I I I #
loop $-1 $-1 $304 $82 #
coedge $-1 $209 $209 $210 $305 reversed $130 $-1 #
coedge $-1 $210 $210 $209 $305 forward $132 $-1 #
coedge $-1 $211 $211 $133 $212 forward $206 $-1 #
edge $-1 $306 0 $306 6.2831853071796004 $211 $307 forward 7 unknown #
loop $-1 $-1 $218 $134 #
plane-surface $-1 -44.440707400887746 21.044246371167155 76.034279542046363 0.55919291073839883 0 0.82903756765294845 0.82903756765294845 0 -0.55919291073839883 forward_v I I I I #
loop $-1 $-1 $308 $85 #
coedge $-1 $216 $216 $217 $309 reversed $135 $-1 #
coedge $-1 $217 $217 $216 $309 forward $137 $-1 #
coedge $-1 $218 $218 $138 $219 forward $213 $-1 #
edge $-1 $310 0 $310 6.2831853071796004 $218 $311 forward 7 unknown #
face $-1 $312 $313 $33 $-1 $314 reversed single #
loop $-1 $-1 $315 $139 #
plane-surface $-1 -67.531357768486586 0 0 1 0 0 0 0 -1 forward_v I I I I #
coedge $-1 $316 $231 $317 $318 forward $140 $-1 #
coedge $-1 $319 $142 $316 $320 forward $89 $-1 #
coedge $-1 $142 $319 $321 $322 forward $89 $-1 #
coedge $-1 $234 $233 $142 $227 reversed $235 $-1 #
edge $-1 $323 -39.993476879324099 $324 39.993476879324099 $226 $325 forward 7 unknown #
coedge $-1 $144 $143 $326 $327 forward $56 $-1 #
coedge $-1 $328 $329 $143 $230 reversed $313 $-1 #
edge $-1 $237 -67.531357768486586 $330 67.531357768486586 $229 $331 forward 7 unknown #
coedge $-1 $223 $332 $144 $232 reversed $140 $-1 #
edge $-1 $333 -67.531357768486586 $236 67.531357768486586 $231 $334 forward 7 unknown #
coedge $-1 $226 $145 $332 $335 forward $235 $-1 #
coedge $-1 $145 $226 $328 $336 reversed $235 $-1 #
loop $-1 $-1 $233 $312 #
vertex $-1 $146 $337 #
vertex $-1 $146 $338 #
straight-curve $-1 67.531357768486586 0 8.561486970733327 0 1 0 I I #
face $-1 $-1 $339 $34 $-1 $340 reversed single #
loop $-1 $-1 $341 $147 #
plane-surface $-1 0 39.993476879324099 0 0 -1 0 0 0 -1 forward_v I I I I #
coedge $-1 $342 $150 $152 $248 forward $93 $-1 #
coedge $-1 $150 $342 $341 $343 reversed $93 $-1 #
coedge $-1 $344 $153 $150 $245 forward $148 $-1 #
edge $-1 $251 9.0431735960095274 $345 23.647926720879557 $244 $346 forward 7 unknown #
coedge $-1 $347 $348 $151 $247 forward $339 $-1 #
edge $-1 $349 -32.130572871650593 $250 -28.870379398762189 $246 $350 forward 7 unknown #
edge $-1 $251 -3.8034505520898625 $349 0 $152 $351 forward 7 unknown #
coedge $-1 $153 $344 $347 $352 forward $148 $-1 #
vertex $-1 $247 $353 #
vertex $-1 $154 $354 #
straight-curve $-1 -91.651351064505633 25.38872375445407 8.561486970733327 1 0 0 I I #
coedge $-1 $253 $253 $-1 $355 reversed $157 $-1 #
edge $-1 $356 0 $356 6.2831853071796004 $158 $357 forward 7 unknown #
vertex $-1 $161 $358 #
ellipse-curve $-1 -66.55189686810202 28.309674379428081 6.9313902342891307 -0.85716730853699208 0 0.51503806187062418 0.25751903093531209 0 0.42858365426849604 1 I I #
coedge $-1 $257 $257 $-1 $359 reversed $164 $-1 #
edge $-1 $360 0 $360 6.2831853071796004 $165 $361 forward 7 unknown #
vertex $-1 $168 $362 #
ellipse-curve $-1 -66.55189686810202 32.691100316889084 6.9313902342891307 -0.85716730853699208 0 0.51503806187062418 0.25751903093531209 0 0.42858365426849604 1 I I #
coedge $-1 $261 $261 $-1 $363 reversed $171 $-1 #
edge $-1 $364 0 $364 6.2831853071796004 $172 $365 forward 7 unknown #
vertex $-1 $175 $366 #
ellipse-curve $-1 -66.55189686810202 37.072526254350088 6.9313902342891307 -0.85716730853699208 0 0.51503806187062418 0.25751903093531209 0 0.42858365426849604 1 I I #
face $-1 $-1 $367 $38 $-1 $368 reversed single #
loop $-1 $-1 $182 $176 #
plane-surface $-1 0 0 8.561486970733327 0 0 1 1 0 0 forward_v I I I I #
coedge $-1 $369 $370 $371 $372 reversed $177 $-1 #
coedge $-1 $373 $179 $181 $275 forward $112 $-1 #
coedge $-1 $179 $373 $369 $374 forward $112 $-1 #
coedge $-1 $371 $182 $179 $272 forward $266 $-1 #
edge $-1 $278 4.1723791102335017 $375 16.871867260933641 $271 $376 forward 7 unknown #
coedge $-1 $377 $378 $180 $274 forward $367 $-1 #
edge $-1 $379 -93.495005847016373 $277 -85.441685384977021 $273 $380 forward 7 unknown #
edge $-1 $278 120.66102998733848 $379 135.06271553697317 $181 $381 forward 7 unknown #
coedge $-1 $182 $371 $377 $382 forward $266 $-1 #
vertex $-1 $274 $383 #
vertex $-1 $183 $384 #
straight-curve $-1 15.542702816232321 -14.694502295817074 8.561486970733327 -1 0 0 I I #
coedge $-1 $280 $280 $-1 $385 reversed $186 $-1 #
edge $-1 $386 0 $386 6.2831853071796004 $187 $387 forward 7 unknown #
vertex $-1 $190 $388 #
ellipse-curve $-1 61.561588589400714 -23.765565260602887 4.5348267397136413 0.55919291073839883 0 0.82903756765294845 1.2435563514794228 0 -0.83878936610759824 1 I I #
coedge $-1 $284 $284 $-1 $389 reversed $193 $-1 #
edge $-1 $390 0 $390 6.2831853071796004 $194 $391 forward 7 unknown #
vertex $-1 $197 $392 #
ellipse-curve $-1 61.561588589400714 -18.322927481731398 4.5348267397136413 0.55919291073839883 0 0.82903756765294845 1.2435563514794228 0 -0.83878936610759824 1 I I #
face $-1 $-1 $300 $41 $-1 $393 forward single #
loop $-1 $-1 $394 $198 #
plane-surface $-1 67.531357768486586 0 0 -1 0 0 0 0 1 forward_v I I I I #
coedge $-1 $395 $396 $397 $398 reversed $199 $-1 #
coedge $-1 $399 $201 $203 $298 forward $126 $-1 #
coedge $-1 $201 $399 $395 $400 forward $126 $-1 #
coedge $-1 $397 $204 $201 $295 forward $300 $-1 #
edge $-1 $302 -16.871867260933648 $401 -4.172379110233507 $294 $402 forward 7 unknown #
coedge $-1 $403 $404 $202 $297 forward $289 $-1 #
edge $-1 $405 -93.495005847016373 $301 -85.441685384977021 $296 $406 forward 7 unknown #
edge $-1 $302 120.66102998733848 $405 135.06271553697317 $203 $407 forward 7 unknown #
coedge $-1 $204 $397 $403 $408 forward $300 $-1 #
loop $-1 $-1 $397 $288 #
vertex $-1 $297 $409 #
vertex $-1 $205 $410 #
straight-curve $-1 15.542702816232321 27.393990446517225 8.561486970733327 -1 0 0 I I #
coedge $-1 $304 $304 $-1 $411 reversed $208 $-1 #
edge $-1 $412 0 $412 6.2831853071796004 $209 $413 forward 7 unknown #
vertex $-1 $212 $414 #
ellipse-curve $-1 61.561588589400714 18.322927481731405 4.5348267397136413 0.55919291073839883 0 0.82903756765294845 1.2435563514794228 0 -0.83878936610759824 1 I I #
coedge $-1 $308 $308 $-1 $415 reversed $215 $-1 #
edge $-1 $416 0 $416 6.2831853071796004 $216 $417 forward 7 unknown #
vertex $-1 $219 $418 #
ellipse-curve $-1 61.561588589400714 23.765565260602898 4.5348267397136413 0.55919291073839883 0 0.82903756765294845 1.2435563514794228 0 -0.83878936610759824 1 I I #
face $-1 $-1 $235 $33 $-1 $419 reversed single #
loop $-1 $-1 $328 $220 #
plane-surface $-1 0 39.993476879324099 0 0 -1 0 0 0 -1 forward_v I I I I #
coedge $-1 $420 $326 $329 $421 forward $221 $-1 #
coedge $-1 $332 $223 $224 $320 reversed $140 $-1 #
coedge $-1 $326 $420 $223 $318 reversed $221 $-1 #
edge $-1 $333 -8.561486970733327 $422 8.561486970733327 $317 $423 forward 7 unknown #
coedge $-1 $225 $224 $420 $424 forward $89 $-1 #
edge $-1 $324 -67.531357768486586 $422 67.531357768486586 $316 $425 forward 7 unknown #
coedge $-1 $329 $328 $225 $322 reversed $313 $-1 #
edge $-1 $426 -67.531357768486586 $323 67.531357768486586 $321 $427 forward 7 unknown #
vertex $-1 $227 $428 #
vertex $-1 $335 $429 #
straight-curve $-1 67.531357768486586 0 -8.561486970733327 0 -1 0 I I #
coedge $-1 $315 $317 $228 $327 reversed $221 $-1 #
edge $-1 $330 -39.993476879324099 $333 39.993476879324099 $326 $430 forward 7 unknown #
coedge $-1 $321 $229 $234 $336 forward $313 $-1 #
coedge $-1 $229 $321 $315 $421 reversed $313 $-1 #
vertex $-1 $230 $431 #
straight-curve $-1 0 39.993476879324099 8.561486970733327 -1 0 0 I I #
coedge $-1 $231 $316 $233 $335 reversed $140 $-1 #
vertex $-1 $327 $432 #
straight-curve $-1 0 -39.993476879324099 8.561486970733327 1 0 0 I I #
edge $-1 $236 -8.561486970733327 $324 8.561486970733327 $233 $433 forward 7 unknown #
edge $-1 $237 -8.561486970733327 $323 8.561486970733327 $234 $434 forward 7 unknown #
point $-1 67.531357768486586 -39.993476879324099 8.561486970733327 #
point $-1 67.531357768486586 39.993476879324099 8.561486970733327 #
loop $-1 $-1 $246 $239 #
plane-surface $-1 -67.531357768486586 0 0 1 0 0 0 0 -1 forward_v I I I I #
coedge $-1 $435 $436 $243 $343 forward $240 $-1 #
coedge $-1 $243 $242 $348 $437 reversed $93 $-1 #
edge $-1 $345 11.315111518540473 $438 15.118562070630336 $341 $439 forward 7 unknown #
coedge $-1 $249 $244 $436 $440 forward $148 $-1 #
vertex $-1 $440 $441 #
straight-curve $-1 -65.572435967717468 16.345550158444542 8.561486970733327 0 1 0 I I #
coedge $-1 $442 $246 $249 $352 reversed $339 $-1 #
coedge $-1 $246 $442 $342 $437 forward $339 $-1 #
vertex $-1 $247 $443 #
straight-curve $-1 -67.531357768486586 25.38872375445407 37.431866369495516 0 0 1 I I #
straight-curve $-1 -67.531357768486586 25.38872375445407 5.3012934978449238 -0.51503806187062418 0 -0.85716730853699208 I I #
edge $-1 $444 -39.993476879324099 $250 -25.38872375445407 $347 $445 forward 7 unknown #
point $-1 -67.531357768486586 25.38872375445407 8.561486970733327 #
point $-1 -65.572435967717468 25.38872375445407 8.561486970733327 #
edge $-1 $446 1 $446 0 $253 $-1 forward 7 unknown #
vertex $-1 $254 $447 #
ellipse-curve $-1 -65.694729559565033 28.309674379428081 6.4163521724185051 -0.85716730853699208 0 0.51503806187062418 0.25751903093531209 0 0.42858365426849604 1 I I #
point $-1 -66.294377837166721 28.309674379428081 7.3599738885576258 #
edge $-1 $448 1 $448 0 $257 $-1 forward 7 unknown #
vertex $-1 $258 $449 #
ellipse-curve $-1 -65.694729559565033 32.691100316889084 6.4163521724185051 -0.85716730853699208 0 0.51503806187062418 0.25751903093531209 0 0.42858365426849604 1 I I #
point $-1 -66.294377837166721 32.691100316889084 7.3599738885576258 #
edge $-1 $450 1 $450 0 $261 $-1 forward 7 unknown #
vertex $-1 $262 $451 #
ellipse-curve $-1 -65.694729559565033 37.072526254350088 6.4163521724185051 -0.85716730853699208 0 0.51503806187062418 0.25751903093531209 0 0.42858365426849604 1 I I #
point $-1 -66.294377837166721 37.072526254350088 7.3599738885576258 #
loop $-1 $-1 $273 $265 #
plane-surface $-1 67.531357768486586 0 0 -1 0 0 0 0 1 forward_v I I I I #
coedge $-1 $370 $268 $270 $374 reversed $177 $-1 #
coedge $-1 $268 $369 $452 $453 reversed $177 $-1 #
coedge $-1 $276 $271 $268 $372 forward $266 $-1 #
edge $-1 $375 40.049116594082506 $454 51.988654952254265 $371 $455 forward 7 unknown #
coedge $-1 $270 $269 $378 $456 reversed $112 $-1 #
edge $-1 $457 -135.06271553697317 $375 -120.66102998733848 $369 $458 forward 7 unknown #
vertex $-1 $272 $459 #
straight-curve $-1 55.591819410314841 -10.522123185583572 8.561486970733327 0 -1 0 I I #
coedge $-1 $452 $273 $276 $382 reversed $367 $-1 #
coedge $-1 $273 $452 $373 $456 forward $367 $-1 #
vertex $-1 $274 $460 #
straight-curve $-1 67.531357768486586 -14.694502295817074 94.003172355710348 0 0 1 I I #
straight-curve $-1 -44.440707400887746 -14.694502295817074 76.034279542046363 0.82903756765294845 0 -0.55919291073839883 I I #
edge $-1 $454 -27.393990446517215 $277 -14.694502295817074 $377 $461 forward 7 unknown #
point $-1 67.531357768486586 -14.694502295817074 8.561486970733327 #
point $-1 55.591819410314827 -14.694502295817074 8.561486970733327 #
edge $-1 $462 1 $462 0 $280 $-1 forward 7 unknown #
vertex $-1 $281 $463 #
ellipse-curve $-1 59.900700145179606 -23.765565260602887 2.0724584058201483 0.55919291073839883 0 0.82903756765294845 1.2435563514794228 0 -0.83878936610759824 1 I I #
point $-1 62.80514494088014 -23.765565260602887 3.6960373736060368 #
edge $-1 $464 1 $464 0 $284 $-1 forward 7 unknown #
vertex $-1 $285 $465 #
ellipse-curve $-1 59.900700145179606 -18.322927481731398 2.0724584058201483 0.55919291073839883 0 0.82903756765294845 1.2435563514794228 0 -0.83878936610759824 1 I I #
point $-1 62.80514494088014 -18.322927481731398 3.6960373736060368 #
plane-surface $-1 0 0 8.561486970733327 0 0 1 1 0 0 forward_v I I I I #
coedge $-1 $404 $403 $396 $466 forward $289 $-1 #
coedge $-1 $396 $291 $293 $400 reversed $199 $-1 #
coedge $-1 $291 $395 $394 $466 reversed $199 $-1 #
coedge $-1 $299 $294 $291 $398 forward $300 $-1 #
edge $-1 $401 40.049116594082506 $467 51.988654952254265 $397 $468 forward 7 unknown #
coedge $-1 $293 $292 $404 $469 reversed $126 $-1 #
edge $-1 $470 -135.06271553697317 $401 -120.66102998733848 $395 $471 forward 7 unknown #
vertex $-1 $295 $472 #
straight-curve $-1 55.591819410314841 10.522123185583578 8.561486970733327 0 -1 0 I I #
coedge $-1 $394 $296 $299 $408 reversed $289 $-1 #
coedge $-1 $296 $394 $399 $469 forward $289 $-1 #
vertex $-1 $297 $473 #
straight-curve $-1 67.531357768486586 27.393990446517225 94.003172355710348 0 0 1 I I #
straight-curve $-1 -44.440707400887746 27.393990446517225 76.034279542046363 0.82903756765294845 0 -0.55919291073839883 I I #
edge $-1 $467 14.694502295817085 $301 27.393990446517225 $403 $474 forward 7 unknown #
point $-1 67.531357768486586 27.393990446517225 8.561486970733327 #
point $-1 55.591819410314827 27.393990446517225 8.561486970733327 #
edge $-1 $475 1 $475 0 $304 $-1 forward 7 unknown #
vertex $-1 $305 $476 #
ellipse-curve $-1 59.900700145179606 18.322927481731405 2.0724584058201483 0.55919291073839883 0 0.82903756765294845 1.2435563514794228 0 -0.83878936610759824 1 I I #
point $-1 62.80514494088014 18.322927481731405 3.6960373736060368 #
edge $-1 $477 1 $477 0 $308 $-1 forward 7 unknown #
vertex $-1 $309 $478 #
ellipse-curve $-1 59.900700145179606 23.765565260602898 2.0724584058201483 0.55919291073839883 0 0.82903756765294845 1.2435563514794228 0 -0.83878936610759824 1 I I #
point $-1 62.80514494088014 23.765565260602898 3.6960373736060368 #
plane-surface $-1 67.531357768486586 0 0 -1 0 0 0 0 1 forward_v I I I I #
coedge $-1 $317 $315 $319 $424 reversed $221 $-1 #
edge $-1 $330 -8.561486970733327 $426 8.561486970733327 $329 $479 forward 7 unknown #
vertex $-1 $424 $480 #
straight-curve $-1 -67.531357768486586 -39.993476879324099 0 0 0 -1 I I #
edge $-1 $422 -39.993476879324099 $426 39.993476879324099 $420 $481 forward 7 unknown #
straight-curve $-1 0 -39.993476879324099 -8.561486970733327 -1 0 0 I I #
vertex $-1 $322 $482 #
straight-curve $-1 0 39.993476879324099 -8.561486970733327 1 0 0 I I #
point $-1 67.531357768486586 39.993476879324099 -8.561486970733327 #
point $-1 67.531357768486586 -39.993476879324099 -8.561486970733327 #
straight-curve $-1 -67.531357768486586 0 8.561486970733327 0 -1 0 I I #
point $-1 -67.531357768486586 39.993476879324099 8.561486970733327 #
point $-1 -67.531357768486586 -39.993476879324099 8.561486970733327 #
straight-curve $-1 67.531357768486586 -39.993476879324099 0 0 0 -1 I I #
straight-curve $-1 67.531357768486586 39.993476879324099 0 0 0 -1 I I #
coedge $-1 $436 $341 $442 $483 reversed $240 $-1 #
coedge $-1 $341 $435 $344 $440 reversed $240 $-1 #
edge $-1 $438 -23.647926720879557 $349 -9.0431735960095274 $348 $484 forward 7 unknown #
vertex $-1 $343 $485 #
straight-curve $-1 -59.744722861358404 39.993476879324099 18.260430656876579 -0.51503806187062429 0 -0.85716730853699219 I I #
edge $-1 $345 65.572435967717468 $444 67.531357768486586 $436 $486 forward 7 unknown #
point $-1 -65.572435967717468 39.993476879324099 8.561486970733327 #
coedge $-1 $348 $347 $435 $483 forward $339 $-1 #
point $-1 -67.531357768486586 25.38872375445407 5.3012934978449238 #
vertex $-1 $440 $487 #
straight-curve $-1 -67.531357768486586 0 8.561486970733327 0 -1 0 I I #
vertex $-1 $355 $488 #
point $-1 -65.43721052862972 28.309674379428081 6.8449358266870011 #
vertex $-1 $359 $489 #
point $-1 -65.43721052862972 32.691100316889084 6.8449358266870011 #
vertex $-1 $363 $490 #
point $-1 -65.43721052862972 37.072526254350088 6.8449358266870011 #
coedge $-1 $378 $377 $370 $453 forward $367 $-1 #
edge $-1 $454 85.441685384977021 $457 93.495005847016373 $452 $491 forward 7 unknown #
vertex $-1 $382 $492 #
straight-curve $-1 15.542702816232321 -27.393990446517215 8.561486970733327 1 0 0 I I #
edge $-1 $457 -16.871867260933641 $379 -4.1723791102335017 $378 $493 forward 7 unknown #
vertex $-1 $456 $494 #
straight-curve $-1 -44.440707400887746 -27.393990446517215 76.034279542046363 -0.82903756765294845 0 0.55919291073839883 I I #
point $-1 55.591819410314827 -27.393990446517215 8.561486970733327 #
point $-1 67.531357768486586 -14.694502295817074 0.50816650869397506 #
straight-curve $-1 67.531357768486586 0 8.561486970733327 0 1 0 I I #
vertex $-1 $385 $495 #
point $-1 61.144256496659025 -23.765565260602887 1.2336690397125498 #
vertex $-1 $389 $496 #
point $-1 61.144256496659025 -18.322927481731398 1.2336690397125498 #
edge $-1 $467 85.441685384977021 $470 93.495005847016373 $394 $497 forward 7 unknown #
vertex $-1 $408 $498 #
straight-curve $-1 15.542702816232321 14.694502295817085 8.561486970733327 1 0 0 I I #
edge $-1 $470 4.172379110233507 $405 16.871867260933648 $404 $499 forward 7 unknown #
vertex $-1 $469 $500 #
straight-curve $-1 -44.440707400887746 14.694502295817085 76.034279542046363 -0.82903756765294845 0 0.55919291073839883 I I #
point $-1 55.591819410314827 14.694502295817085 8.561486970733327 #
point $-1 67.531357768486586 27.393990446517225 0.50816650869397506 #
straight-curve $-1 67.531357768486586 0 8.561486970733327 0 1 0 I I #
vertex $-1 $411 $501 #
point $-1 61.144256496659025 18.322927481731405 1.2336690397125498 #
vertex $-1 $415 $502 #
point $-1 61.144256496659025 23.765565260602898 1.2336690397125498 #
straight-curve $-1 -67.531357768486586 39.993476879324099 0 0 0 -1 I I #
point $-1 -67.531357768486586 -39.993476879324099 -8.561486970733327 #
straight-curve $-1 -67.531357768486586 0 -8.561486970733327 0 1 0 I I #
point $-1 -67.531357768486586 39.993476879324099 -8.561486970733327 #
edge $-1 $444 -8.561486970733327 $438 -5.3012934978449238 $435 $503 forward 7 unknown #
straight-curve $-1 -67.531357768486586 16.345550158444542 5.3012934978449255 0 -1 0 I I #
point $-1 -67.531357768486586 39.993476879324099 5.3012934978449238 #
straight-curve $-1 0 39.993476879324099 8.561486970733327 -1 0 0 I I #
point $-1 -67.531357768486586 39.993476879324099 8.561486970733327 #
point $-1 -65.26614590529654 28.309674379428081 6.1588331414831936 #
point $-1 -65.26614590529654 32.691100316889084 6.1588331414831936 #
point $-1 -65.26614590529654 37.072526254350088 6.1588331414831936 #
straight-curve $-1 67.531357768486586 -27.393990446517215 94.003172355710348 0 0 -1 I I #
point $-1 67.531357768486586 -27.393990446517215 8.561486970733327 #
straight-curve $-1 67.531357768486586 -10.522123185583572 0.50816650869396085 0 1 0 I I #
point $-1 67.531357768486586 -27.393990446517215 0.50816650869397506 #
point $-1 59.061910779072001 -23.765565260602887 0.82890205434072528 #
point $-1 59.061910779072001 -18.322927481731398 0.82890205434072528 #
straight-curve $-1 67.531357768486586 14.694502295817085 94.003172355710348 0 0 -1 I I #
point $-1 67.531357768486586 14.694502295817085 8.561486970733327 #
straight-curve $-1 67.531357768486586 10.522123185583578 0.50816650869396085 0 1 0 I I #
point $-1 67.531357768486586 14.694502295817085 0.50816650869397506 #
point $-1 59.061910779072001 18.322927481731405 0.82890205434072528 #
point $-1 59.061910779072001 23.765565260602898 0.82890205434072528 #
straight-curve $-1 -67.531357768486586 39.993476879324099 0 0 0 -1 I I #
End-of-ACIS-data 