500 0 18 0           
7 Unknown 11 ACIS 5.0 NT 24 Thu Mar 25 16:13:11 1999 
-1 9.9999999999999995e-007 1e-010 
body $-1 $18 $-1 $19 #
body $-1 $20 $-1 $21 #
body $-1 $22 $-1 $23 #
body $-1 $24 $-1 $25 #
body $-1 $26 $-1 $27 #
body $-1 $28 $-1 $29 #
body $-1 $30 $-1 $31 #
body $-1 $32 $-1 $33 #
body $-1 $34 $-1 $35 #
body $-1 $36 $-1 $37 #
body $-1 $38 $-1 $39 #
body $-1 $40 $-1 $41 #
body $-1 $42 $-1 $43 #
body $-1 $44 $-1 $45 #
body $-1 $46 $-1 $47 #
body $-1 $48 $-1 $49 #
body $-1 $50 $-1 $51 #
body $-1 $52 $-1 $53 #
lump $-1 $-1 $54 $0 #
transform $-1 1 0 0 0 1 0 0 0 1 45.995056001464889 25.07598740871514 6.7570552942060713 1 rotate no_reflect no_shear #
lump $-1 $-1 $55 $1 #
transform $-1 1 0 0 0 1 0 0 0 1 45.995056001464889 25.07598740871514 6.7570552942060713 1 rotate no_reflect no_shear #
lump $-1 $-1 $56 $2 #
transform $-1 1 0 0 0 1 0 0 0 1 45.995056001464889 25.07598740871514 6.7570552942060713 1 rotate no_reflect no_shear #
lump $-1 $-1 $57 $3 #
transform $-1 1 0 0 0 1 0 0 0 1 45.995056001464889 25.07598740871514 6.7570552942060713 1 rotate no_reflect no_shear #
lump $-1 $-1 $58 $4 #
transform $-1 1 0 0 0 1 0 0 0 1 45.995056001464889 25.07598740871514 6.7570552942060713 1 rotate no_reflect no_shear #
lump $-1 $-1 $59 $5 #
transform $-1 1 0 0 0 1 0 0 0 1 45.995056001464889 25.07598740871514 6.7570552942060713 1 rotate no_reflect no_shear #
lump $-1 $-1 $60 $6 #
transform $-1 1 0 0 0 1 0 0 0 1 45.995056001464889 25.07598740871514 6.7570552942060713 1 rotate no_reflect no_shear #
lump $-1 $-1 $61 $7 #
transform $-1 1 0 0 0 1 0 0 0 1 45.995056001464889 25.07598740871514 6.7570552942060713 1 rotate no_reflect no_shear #
lump $-1 $-1 $62 $8 #
transform $-1 1 0 0 0 1 0 0 0 1 45.995056001464889 25.07598740871514 6.7570552942060713 1 rotate no_reflect no_shear #
lump $-1 $-1 $63 $9 #
transform $-1 1 0 0 0 1 0 0 0 1 45.995056001464889 25.07598740871514 6.7570552942060713 1 rotate no_reflect no_shear #
lump $-1 $-1 $64 $10 #
transform $-1 1 0 0 0 1 0 0 0 1 45.995056001464889 25.07598740871514 6.7570552942060713 1 rotate no_reflect no_shear #
lump $-1 $-1 $65 $11 #
transform $-1 1 0 0 0 1 0 0 0 1 45.995056001464889 25.07598740871514 6.7570552942060713 1 rotate no_reflect no_shear #
lump $-1 $-1 $66 $12 #
transform $-1 1 0 0 0 1 0 0 0 1 45.995056001464889 25.07598740871514 6.7570552942060713 1 rotate no_reflect no_shear #
lump $-1 $-1 $67 $13 #
transform $-1 1 0 0 0 1 0 0 0 1 45.995056001464889 25.07598740871514 6.7570552942060713 1 rotate no_reflect no_shear #
lump $-1 $-1 $68 $14 #
transform $-1 1 0 0 0 1 0 0 0 1 45.995056001464889 25.07598740871514 6.7570552942060713 1 rotate no_reflect no_shear #
lump $-1 $-1 $69 $15 #
transform $-1 1 0 0 0 1 0 0 0 1 45.995056001464889 25.07598740871514 6.7570552942060713 1 rotate no_reflect no_shear #
lump $-1 $-1 $70 $16 #
transform $-1 1 0 0 0 1 0 0 0 1 45.995056001464889 25.07598740871514 6.7570552942060713 1 rotate no_reflect no_shear #
lump $-1 $-1 $71 $17 #
transform $-1 1 0 0 0 1 0 0 0 1 45.995056001464889 25.07598740871514 6.7570552942060713 1 rotate no_reflect no_shear #
shell $-1 $-1 $-1 $72 $-1 $18 #
shell $-1 $-1 $-1 $73 $-1 $20 #
shell $-1 $-1 $-1 $74 $-1 $22 #
shell $-1 $-1 $-1 $75 $-1 $24 #
shell $-1 $-1 $-1 $76 $-1 $26 #
shell $-1 $-1 $-1 $77 $-1 $28 #
shell $-1 $-1 $-1 $78 $-1 $30 #
shell $-1 $-1 $-1 $79 $-1 $32 #
shell $-1 $-1 $-1 $80 $-1 $34 #
shell $-1 $-1 $-1 $81 $-1 $36 #
shell $-1 $-1 $-1 $82 $-1 $38 #
shell $-1 $-1 $-1 $83 $-1 $40 #
shell $-1 $-1 $-1 $84 $-1 $42 #
shell $-1 $-1 $-1 $85 $-1 $44 #
shell $-1 $-1 $-1 $86 $-1 $46 #
shell $-1 $-1 $-1 $87 $-1 $48 #
shell $-1 $-1 $-1 $88 $-1 $50 #
shell $-1 $-1 $-1 $89 $-1 $52 #
face $-1 $90 $91 $54 $-1 $92 reversed single #
face $-1 $93 $94 $55 $-1 $95 forward single #
face $-1 $96 $97 $56 $-1 $98 reversed single #
face $-1 $99 $100 $57 $-1 $101 forward single #
face $-1 $102 $103 $58 $-1 $104 forward single #
face $-1 $105 $106 $59 $-1 $107 forward single #
face $-1 $108 $109 $60 $-1 $110 reversed single #
face $-1 $111 $112 $61 $-1 $113 forward single #
face $-1 $114 $115 $62 $-1 $116 forward single #
face $-1 $117 $118 $63 $-1 $119 forward single #
face $-1 $120 $121 $64 $-1 $122 reversed single #
face $-1 $123 $124 $65 $-1 $125 forward single #
face $-1 $126 $127 $66 $-1 $128 forward single #
face $-1 $129 $130 $67 $-1 $131 forward single #
face $-1 $132 $133 $68 $-1 $134 reversed single #
face $-1 $135 $136 $69 $-1 $137 forward single #
face $-1 $138 $139 $70 $-1 $140 forward single #
face $-1 $141 $142 $71 $-1 $143 forward single #
face $-1 $144 $145 $54 $-1 $146 forward single #
loop $-1 $-1 $147 $72 #
plane-surface $-1 0 -25.07598740871514 0 0 1 0 0 0 1 forward_v I I I I #
face $-1 $148 $149 $55 $-1 $150 reversed single #
loop $-1 $-1 $151 $73 #
plane-surface $-1 0 -25.07598740871514 0 0 1 0 0 0 1 forward_v I I I I #
face $-1 $152 $153 $56 $-1 $154 reversed single #
loop $-1 $-1 $155 $74 #
plane-surface $-1 73.043051518275007 -8.1654920585079225 129.57851204351607 0 -1 0 -0.83867057594974714 0 -0.54463902268945019 forward_v I I I I #
face $-1 $156 $157 $57 $-1 $158 forward single #
loop $-1 $159 $160 $75 #
cone-surface $-1 43.946920802427393 -13.231572720892686 4.1463016371666805 -0.83867057594974714 0 -0.54463902268945019 0.2723195113447251 0 -0.41933528797487357 1 I I 0 1 0.5 forward I I I I #
face $-1 $161 $162 $58 $-1 $163 forward single #
loop $-1 $164 $165 $76 #
cone-surface $-1 43.946920802427393 -11.3317924724984 4.1463016371666805 -0.83867057594974714 0 -0.54463902268945019 0.2723195113447251 0 -0.41933528797487357 1 I I 0 1 0.5 forward I I I I #
face $-1 $166 $167 $59 $-1 $168 forward single #
loop $-1 $169 $170 $77 #
cone-surface $-1 43.946920802427393 -9.4320122241041133 4.1463016371666805 -0.83867057594974714 0 -0.54463902268945019 0.2723195113447251 0 -0.41933528797487357 1 I I 0 1 0.5 forward I I I I #
face $-1 $171 $172 $60 $-1 $173 reversed single #
loop $-1 $-1 $174 $78 #
plane-surface $-1 73.043051518275007 2.2256755781138757 129.57851204351607 0 -1 0 -0.83867057594974714 0 -0.54463902268945019 forward_v I I I I #
face $-1 $175 $176 $61 $-1 $177 forward single #
loop $-1 $178 $179 $79 #
cone-surface $-1 43.946920802427393 -2.8404050842708877 4.1463016371666805 -0.83867057594974714 0 -0.54463902268945019 0.2723195113447251 0 -0.41933528797487357 1 I I 0 1 0.5 forward I I I I #
face $-1 $180 $181 $62 $-1 $182 forward single #
loop $-1 $183 $184 $80 #
cone-surface $-1 43.946920802427393 -0.9406248358766014 4.1463016371666805 -0.83867057594974714 0 -0.54463902268945019 0.2723195113447251 0 -0.41933528797487357 1 I I 0 1 0.5 forward I I I I #
face $-1 $185 $186 $63 $-1 $187 forward single #
loop $-1 $188 $189 $81 #
cone-surface $-1 43.946920802427393 0.95915541251768488 4.1463016371666805 -0.83867057594974714 0 -0.54463902268945019 0.2723195113447251 0 -0.41933528797487357 1 I I 0 1 0.5 forward I I I I #
face $-1 $190 $191 $64 $-1 $192 reversed single #
loop $-1 $-1 $193 $82 #
plane-surface $-1 73.043051518275007 12.61684321473567 129.57851204351607 0 -1 0 -0.83867057594974714 0 -0.54463902268945019 forward_v I I I I #
face $-1 $194 $195 $65 $-1 $196 forward single #
loop $-1 $197 $198 $83 #
cone-surface $-1 43.946920802427393 7.550762552350907 4.1463016371666805 -0.83867057594974714 0 -0.54463902268945019 0.2723195113447251 0 -0.41933528797487357 1 I I 0 1 0.5 forward I I I I #
face $-1 $199 $200 $66 $-1 $201 forward single #
loop $-1 $202 $203 $84 #
cone-surface $-1 43.946920802427393 9.4505428007451933 4.1463016371666805 -0.83867057594974714 0 -0.54463902268945019 0.2723195113447251 0 -0.41933528797487357 1 I I 0 1 0.5 forward I I I I #
face $-1 $204 $205 $67 $-1 $206 forward single #
loop $-1 $207 $208 $85 #
cone-surface $-1 43.946920802427393 11.35032304913948 4.1463016371666805 -0.83867057594974714 0 -0.54463902268945019 0.2723195113447251 0 -0.41933528797487357 1 I I 0 1 0.5 forward I I I I #
face $-1 $209 $210 $68 $-1 $211 reversed single #
loop $-1 $-1 $212 $86 #
plane-surface $-1 73.043051518275007 23.008010851357465 129.57851204351607 0 -1 0 -0.83867057594974714 0 -0.54463902268945019 forward_v I I I I #
face $-1 $213 $214 $69 $-1 $215 forward single #
loop $-1 $216 $217 $87 #
cone-surface $-1 43.946920802427393 17.941930188972702 4.1463016371666805 -0.83867057594974714 0 -0.54463902268945019 0.2723195113447251 0 -0.41933528797487357 1 I I 0 1 0.5 forward I I I I #
face $-1 $218 $219 $70 $-1 $220 forward single #
loop $-1 $221 $222 $88 #
cone-surface $-1 43.946920802427393 19.841710437366988 4.1463016371666805 -0.83867057594974714 0 -0.54463902268945019 0.2723195113447251 0 -0.41933528797487357 1 I I 0 1 0.5 forward I I I I #
face $-1 $223 $224 $71 $-1 $225 forward single #
loop $-1 $226 $227 $89 #
cone-surface $-1 43.946920802427393 21.741490685761274 4.1463016371666805 -0.83867057594974714 0 -0.54463902268945019 0.2723195113447251 0 -0.41933528797487357 1 I I 0 1 0.5 forward I I I I #
face $-1 $228 $229 $54 $-1 $230 reversed single #
loop $-1 $-1 $231 $90 #
plane-surface $-1 0 0 6.7570552942060713 0 0 1 1 0 0 forward_v I I I I #
coedge $-1 $232 $233 $234 $235 reversed $91 $-1 #
face $-1 $236 $237 $55 $-1 $238 reversed single #
loop $-1 $-1 $239 $93 #
plane-surface $-1 0 0 -6.7570552942060713 0 0 1 1 0 0 forward_v I I I I #
coedge $-1 $240 $241 $242 $243 forward $94 $-1 #
face $-1 $244 $245 $56 $-1 $246 reversed single #
loop $-1 $-1 $247 $96 #
plane-surface $-1 -4.1063486969038507 -11.3317924724984 79.477107345147346 0.83867057594974714 0 0.54463902268945019 0.54463902268945019 0 -0.83867057594974714 forward_v I I I I #
coedge $-1 $248 $249 $250 $251 reversed $97 $-1 #
face $-1 $-1 $252 $57 $-1 $253 forward single #
loop $-1 $254 $255 $99 #
cone-surface $-1 43.127344078513488 -13.231572720892686 3.6140623065737403 -0.83867057594974714 0 -0.54463902268945019 0.13615975567236255 0 -0.20966764398743679 1 I I -0.70710678118654746 0.70710678118654746 0.25 forward I I I I #
loop $-1 $-1 $256 $75 #
coedge $-1 $160 $160 $257 $258 reversed $100 $-1 #
face $-1 $-1 $259 $58 $-1 $260 forward single #
loop $-1 $261 $262 $102 #
cone-surface $-1 43.127344078513488 -11.3317924724984 3.6140623065737403 -0.83867057594974714 0 -0.54463902268945019 0.13615975567236255 0 -0.20966764398743679 1 I I -0.70710678118654746 0.70710678118654746 0.25 forward I I I I #
loop $-1 $-1 $263 $76 #
coedge $-1 $165 $165 $264 $265 reversed $103 $-1 #
face $-1 $-1 $266 $59 $-1 $267 forward single #
loop $-1 $268 $269 $105 #
cone-surface $-1 43.127344078513488 -9.4320122241041133 3.6140623065737403 -0.83867057594974714 0 -0.54463902268945019 0.13615975567236255 0 -0.20966764398743679 1 I I -0.70710678118654746 0.70710678118654746 0.25 forward I I I I #
loop $-1 $-1 $270 $77 #
coedge $-1 $170 $170 $271 $272 reversed $106 $-1 #
face $-1 $273 $274 $60 $-1 $275 reversed single #
loop $-1 $-1 $276 $108 #
plane-surface $-1 -4.1063486969038507 -0.9406248358766014 79.477107345147346 0.83867057594974714 0 0.54463902268945019 0.54463902268945019 0 -0.83867057594974714 forward_v I I I I #
coedge $-1 $277 $278 $279 $280 reversed $109 $-1 #
face $-1 $-1 $281 $61 $-1 $282 forward single #
loop $-1 $283 $284 $111 #
cone-surface $-1 43.127344078513488 -2.8404050842708877 3.6140623065737403 -0.83867057594974714 0 -0.54463902268945019 0.13615975567236255 0 -0.20966764398743679 1 I I -0.70710678118654746 0.70710678118654746 0.25 forward I I I I #
loop $-1 $-1 $285 $79 #
coedge $-1 $179 $179 $286 $287 reversed $112 $-1 #
face $-1 $-1 $288 $62 $-1 $289 forward single #
loop $-1 $290 $291 $114 #
cone-surface $-1 43.127344078513488 -0.9406248358766014 3.6140623065737403 -0.83867057594974714 0 -0.54463902268945019 0.13615975567236255 0 -0.20966764398743679 1 I I -0.70710678118654746 0.70710678118654746 0.25 forward I I I I #
loop $-1 $-1 $292 $80 #
coedge $-1 $184 $184 $293 $294 reversed $115 $-1 #
face $-1 $-1 $295 $63 $-1 $296 forward single #
loop $-1 $297 $298 $117 #
cone-surface $-1 43.127344078513488 0.95915541251768488 3.6140623065737403 -0.83867057594974714 0 -0.54463902268945019 0.13615975567236255 0 -0.20966764398743679 1 I I -0.70710678118654746 0.70710678118654746 0.25 forward I I I I #
loop $-1 $-1 $299 $81 #
coedge $-1 $189 $189 $300 $301 reversed $118 $-1 #
face $-1 $302 $303 $64 $-1 $304 reversed single #
loop $-1 $-1 $305 $120 #
plane-surface $-1 -4.1063486969038507 9.4505428007451933 79.477107345147346 0.83867057594974714 0 0.54463902268945019 0.54463902268945019 0 -0.83867057594974714 forward_v I I I I #
coedge $-1 $306 $307 $308 $309 reversed $121 $-1 #
face $-1 $-1 $310 $65 $-1 $311 forward single #
loop $-1 $312 $313 $123 #
cone-surface $-1 43.127344078513488 7.550762552350907 3.6140623065737403 -0.83867057594974714 0 -0.54463902268945019 0.13615975567236255 0 -0.20966764398743679 1 I I -0.70710678118654746 0.70710678118654746 0.25 forward I I I I #
loop $-1 $-1 $314 $83 #
coedge $-1 $198 $198 $315 $316 reversed $124 $-1 #
face $-1 $-1 $317 $66 $-1 $318 forward single #
loop $-1 $319 $320 $126 #
cone-surface $-1 43.127344078513488 9.4505428007451933 3.6140623065737403 -0.83867057594974714 0 -0.54463902268945019 0.13615975567236255 0 -0.20966764398743679 1 I I -0.70710678118654746 0.70710678118654746 0.25 forward I I I I #
loop $-1 $-1 $321 $84 #
coedge $-1 $203 $203 $322 $323 reversed $127 $-1 #
face $-1 $-1 $324 $67 $-1 $325 forward single #
loop $-1 $326 $327 $129 #
cone-surface $-1 43.127344078513488 11.35032304913948 3.6140623065737403 -0.83867057594974714 0 -0.54463902268945019 0.13615975567236255 0 -0.20966764398743679 1 I I -0.70710678118654746 0.70710678118654746 0.25 forward I I I I #
loop $-1 $-1 $328 $85 #
coedge $-1 $208 $208 $329 $330 reversed $130 $-1 #
face $-1 $331 $332 $68 $-1 $333 reversed single #
loop $-1 $-1 $334 $132 #
plane-surface $-1 -4.1063486969038507 19.841710437366988 79.477107345147346 0.83867057594974714 0 0.54463902268945019 0.54463902268945019 0 -0.83867057594974714 forward_v I I I I #
coedge $-1 $335 $336 $337 $338 reversed $133 $-1 #
face $-1 $-1 $339 $69 $-1 $340 forward single #
loop $-1 $341 $342 $135 #
cone-surface $-1 43.127344078513488 17.941930188972702 3.6140623065737403 -0.83867057594974714 0 -0.54463902268945019 0.13615975567236255 0 -0.20966764398743679 1 I I -0.70710678118654746 0.70710678118654746 0.25 forward I I I I #
loop $-1 $-1 $343 $87 #
coedge $-1 $217 $217 $344 $345 reversed $136 $-1 #
face $-1 $-1 $346 $70 $-1 $347 forward single #
loop $-1 $348 $349 $138 #
cone-surface $-1 43.127344078513488 19.841710437366988 3.6140623065737403 -0.83867057594974714 0 -0.54463902268945019 0.13615975567236255 0 -0.20966764398743679 1 I I -0.70710678118654746 0.70710678118654746 0.25 forward I I I I #
loop $-1 $-1 $350 $88 #
coedge $-1 $222 $222 $351 $352 reversed $139 $-1 #
face $-1 $-1 $353 $71 $-1 $354 forward single #
loop $-1 $355 $356 $141 #
cone-surface $-1 43.127344078513488 21.741490685761274 3.6140623065737403 -0.83867057594974714 0 -0.54463902268945019 0.13615975567236255 0 -0.20966764398743679 1 I I -0.70710678118654746 0.70710678118654746 0.25 forward I I I I #
loop $-1 $-1 $357 $89 #
coedge $-1 $227 $227 $358 $359 reversed $142 $-1 #
face $-1 $360 $361 $54 $-1 $362 reversed single #
loop $-1 $-1 $363 $144 #
plane-surface $-1 0 0 -6.7570552942060713 0 0 1 1 0 0 forward_v I I I I #
coedge $-1 $364 $365 $366 $367 forward $145 $-1 #
coedge $-1 $368 $147 $369 $370 reversed $91 $-1 #
coedge $-1 $147 $368 $371 $372 forward $91 $-1 #
coedge $-1 $373 $363 $147 $235 forward $229 $-1 #
edge $-1 $374 -45.995056001464889 $375 45.995056001464889 $147 $376 forward 7 unknown #
face $-1 $377 $378 $55 $-1 $379 reversed single #
loop $-1 $-1 $380 $148 #
plane-surface $-1 -33.992730076505431 -33.585905373583728 0 0 1 0 0 0 1 forward_v I I I I #
coedge $-1 $381 $382 $241 $383 forward $149 $-1 #
coedge $-1 $384 $151 $385 $386 reversed $94 $-1 #
coedge $-1 $151 $384 $239 $383 reversed $94 $-1 #
coedge $-1 $387 $388 $151 $243 reversed $378 $-1 #
edge $-1 $389 -6.7570552942060713 $390 6.7570552942060713 $242 $391 forward 7 unknown #
face $-1 $392 $393 $56 $-1 $394 forward single #
loop $-1 $-1 $395 $152 #
plane-surface $-1 73.043051518275007 -14.498092886488877 129.57851204351607 0 1 0 0.83867057594974714 0 0.54463902268945019 forward_v I I I I #
coedge $-1 $396 $397 $398 $399 reversed $153 $-1 #
coedge $-1 $249 $155 $400 $401 reversed $97 $-1 #
coedge $-1 $155 $248 $396 $402 reversed $97 $-1 #
coedge $-1 $398 $403 $155 $251 forward $393 $-1 #
edge $-1 $404 -9.4735302423273851 $405 -6.5970780041052777 $250 $406 forward 7 unknown #
loop $-1 $-1 $257 $156 #
plane-surface $-1 -4.1063486969038507 -11.3317924724984 79.477107345147346 0.83867057594974714 0 0.54463902268945019 0.54463902268945019 0 -0.83867057594974714 forward_v I I I I #
loop $-1 $-1 $407 $99 #
coedge $-1 $255 $255 $256 $408 reversed $157 $-1 #
coedge $-1 $256 $256 $255 $408 forward $159 $-1 #
coedge $-1 $257 $257 $160 $258 forward $252 $-1 #
edge $-1 $409 0 $409 6.2831853071796004 $257 $410 forward 7 unknown #
loop $-1 $-1 $264 $161 #
plane-surface $-1 -4.1063486969038507 -11.3317924724984 79.477107345147346 0.83867057594974714 0 0.54463902268945019 0.54463902268945019 0 -0.83867057594974714 forward_v I I I I #
loop $-1 $-1 $411 $102 #
coedge $-1 $262 $262 $263 $412 reversed $162 $-1 #
coedge $-1 $263 $263 $262 $412 forward $164 $-1 #
coedge $-1 $264 $264 $165 $265 forward $259 $-1 #
edge $-1 $413 0 $413 6.2831853071796004 $264 $414 forward 7 unknown #
loop $-1 $-1 $271 $166 #
plane-surface $-1 -4.1063486969038507 -11.3317924724984 79.477107345147346 0.83867057594974714 0 0.54463902268945019 0.54463902268945019 0 -0.83867057594974714 forward_v I I I I #
loop $-1 $-1 $415 $105 #
coedge $-1 $269 $269 $270 $416 reversed $167 $-1 #
coedge $-1 $270 $270 $269 $416 forward $169 $-1 #
coedge $-1 $271 $271 $170 $272 forward $266 $-1 #
edge $-1 $417 0 $417 6.2831853071796004 $271 $418 forward 7 unknown #
face $-1 $419 $420 $60 $-1 $421 reversed single #
loop $-1 $-1 $422 $171 #
plane-surface $-1 73.043051518275007 -4.1069252498670785 129.57851204351607 0 1 0 0.83867057594974714 0 0.54463902268945019 forward_v I I I I #
coedge $-1 $423 $424 $425 $426 reversed $172 $-1 #
coedge $-1 $278 $174 $427 $428 reversed $109 $-1 #
coedge $-1 $174 $277 $423 $429 reversed $109 $-1 #
coedge $-1 $425 $430 $174 $280 forward $431 $-1 #
edge $-1 $432 -9.4735302423273851 $433 -6.5970780041052777 $279 $434 forward 7 unknown #
loop $-1 $-1 $286 $175 #
plane-surface $-1 -4.1063486969038507 -0.9406248358766014 79.477107345147346 0.83867057594974714 0 0.54463902268945019 0.54463902268945019 0 -0.83867057594974714 forward_v I I I I #
loop $-1 $-1 $435 $111 #
coedge $-1 $284 $284 $285 $436 reversed $176 $-1 #
coedge $-1 $285 $285 $284 $436 forward $178 $-1 #
coedge $-1 $286 $286 $179 $287 forward $281 $-1 #
edge $-1 $437 0 $437 6.2831853071796004 $286 $438 forward 7 unknown #
loop $-1 $-1 $293 $180 #
plane-surface $-1 -4.1063486969038507 -0.9406248358766014 79.477107345147346 0.83867057594974714 0 0.54463902268945019 0.54463902268945019 0 -0.83867057594974714 forward_v I I I I #
loop $-1 $-1 $439 $114 #
coedge $-1 $291 $291 $292 $440 reversed $181 $-1 #
coedge $-1 $292 $292 $291 $440 forward $183 $-1 #
coedge $-1 $293 $293 $184 $294 forward $288 $-1 #
edge $-1 $441 0 $441 6.2831853071796004 $293 $442 forward 7 unknown #
loop $-1 $-1 $300 $185 #
plane-surface $-1 -4.1063486969038507 -0.9406248358766014 79.477107345147346 0.83867057594974714 0 0.54463902268945019 0.54463902268945019 0 -0.83867057594974714 forward_v I I I I #
loop $-1 $-1 $443 $117 #
coedge $-1 $298 $298 $299 $444 reversed $186 $-1 #
coedge $-1 $299 $299 $298 $444 forward $188 $-1 #
coedge $-1 $300 $300 $189 $301 forward $295 $-1 #
edge $-1 $445 0 $445 6.2831853071796004 $300 $446 forward 7 unknown #
face $-1 $447 $448 $64 $-1 $449 reversed single #
loop $-1 $-1 $450 $190 #
plane-surface $-1 73.043051518275007 6.2842423867547161 129.57851204351607 0 1 0 0.83867057594974714 0 0.54463902268945019 forward_v I I I I #
coedge $-1 $451 $452 $453 $454 reversed $191 $-1 #
coedge $-1 $307 $193 $455 $456 reversed $121 $-1 #
coedge $-1 $193 $306 $451 $457 reversed $121 $-1 #
coedge $-1 $453 $458 $193 $309 forward $459 $-1 #
edge $-1 $460 -9.4735302423273851 $461 -6.5970780041052777 $308 $462 forward 7 unknown #
loop $-1 $-1 $315 $194 #
plane-surface $-1 -4.1063486969038507 9.4505428007451933 79.477107345147346 0.83867057594974714 0 0.54463902268945019 0.54463902268945019 0 -0.83867057594974714 forward_v I I I I #
loop $-1 $-1 $463 $123 #
coedge $-1 $313 $313 $314 $464 reversed $195 $-1 #
coedge $-1 $314 $314 $313 $464 forward $197 $-1 #
coedge $-1 $315 $315 $198 $316 forward $310 $-1 #
edge $-1 $465 0 $465 6.2831853071796004 $315 $466 forward 7 unknown #
loop $-1 $-1 $322 $199 #
plane-surface $-1 -4.1063486969038507 9.4505428007451933 79.477107345147346 0.83867057594974714 0 0.54463902268945019 0.54463902268945019 0 -0.83867057594974714 forward_v I I I I #
loop $-1 $-1 $467 $126 #
coedge $-1 $320 $320 $321 $468 reversed $200 $-1 #
coedge $-1 $321 $321 $320 $468 forward $202 $-1 #
coedge $-1 $322 $322 $203 $323 forward $317 $-1 #
edge $-1 $469 0 $469 6.2831853071796004 $322 $470 forward 7 unknown #
loop $-1 $-1 $329 $204 #
plane-surface $-1 -4.1063486969038507 9.4505428007451933 79.477107345147346 0.83867057594974714 0 0.54463902268945019 0.54463902268945019 0 -0.83867057594974714 forward_v I I I I #
loop $-1 $-1 $471 $129 #
coedge $-1 $327 $327 $328 $472 reversed $205 $-1 #
coedge $-1 $328 $328 $327 $472 forward $207 $-1 #
coedge $-1 $329 $329 $208 $330 forward $324 $-1 #
edge $-1 $473 0 $473 6.2831853071796004 $329 $474 forward 7 unknown #
face $-1 $475 $476 $68 $-1 $477 reversed single #
loop $-1 $-1 $478 $209 #
plane-surface $-1 73.043051518275007 16.675410023376511 129.57851204351607 0 1 0 0.83867057594974714 0 0.54463902268945019 forward_v I I I I #
coedge $-1 $479 $480 $481 $482 reversed $210 $-1 #
coedge $-1 $336 $212 $483 $484 reversed $133 $-1 #
coedge $-1 $212 $335 $479 $485 reversed $133 $-1 #
coedge $-1 $481 $486 $212 $338 forward $487 $-1 #
edge $-1 $488 -9.4735302423273851 $489 -6.5970780041052777 $337 $490 forward 7 unknown #
loop $-1 $-1 $344 $213 #
plane-surface $-1 -4.1063486969038507 19.841710437366988 79.477107345147346 0.83867057594974714 0 0.54463902268945019 0.54463902268945019 0 -0.83867057594974714 forward_v I I I I #
loop $-1 $-1 $491 $135 #
coedge $-1 $342 $342 $343 $492 reversed $214 $-1 #
coedge $-1 $343 $343 $342 $492 forward $216 $-1 #
coedge $-1 $344 $344 $217 $345 forward $339 $-1 #
edge $-1 $493 0 $493 6.2831853071796004 $344 $494 forward 7 unknown #
loop $-1 $-1 $351 $218 #
plane-surface $-1 -4.1063486969038507 19.841710437366988 79.477107345147346 0.83867057594974714 0 0.54463902268945019 0.54463902268945019 0 -0.83867057594974714 forward_v I I I I #
loop $-1 $-1 $495 $138 #
coedge $-1 $349 $349 $350 $496 reversed $219 $-1 #
coedge $-1 $350 $350 $349 $496 forward $221 $-1 #
coedge $-1 $351 $351 $222 $352 forward $346 $-1 #
edge $-1 $497 0 $497 6.2831853071796004 $351 $498 forward 7 unknown #
loop $-1 $-1 $358 $223 #
plane-surface $-1 -4.1063486969038507 19.841710437366988 79.477107345147346 0.83867057594974714 0 0.54463902268945019 0.54463902268945019 0 -0.83867057594974714 forward_v I I I I #
loop $-1 $-1 $499 $141 #
coedge $-1 $356 $356 $357 $500 reversed $224 $-1 #
coedge $-1 $357 $357 $356 $500 forward $226 $-1 #
coedge $-1 $358 $358 $227 $359 forward $353 $-1 #
edge $-1 $501 0 $501 6.2831853071796004 $358 $502 forward 7 unknown #
face $-1 $503 $504 $54 $-1 $505 reversed single #
loop $-1 $-1 $506 $228 #
plane-surface $-1 -45.995056001464889 0 0 1 0 0 0 0 -1 forward_v I I I I #
coedge $-1 $234 $507 $508 $509 forward $229 $-1 #
coedge $-1 $510 $231 $511 $512 forward $145 $-1 #
coedge $-1 $231 $510 $368 $513 forward $145 $-1 #
coedge $-1 $369 $514 $231 $367 reversed $515 $-1 #
edge $-1 $516 -25.07598740871514 $517 25.07598740871514 $366 $518 forward 7 unknown #
coedge $-1 $233 $232 $365 $513 reversed $91 $-1 #
coedge $-1 $508 $366 $232 $370 forward $515 $-1 #
edge $-1 $516 -6.7570552942060713 $374 6.7570552942060713 $369 $519 forward 7 unknown #
coedge $-1 $520 $521 $233 $372 reversed $361 $-1 #
edge $-1 $522 -6.7570552942060713 $375 6.7570552942060713 $371 $523 forward 7 unknown #
coedge $-1 $507 $234 $521 $524 forward $229 $-1 #
vertex $-1 $370 $525 #
vertex $-1 $524 $526 #
straight-curve $-1 0 -25.07598740871514 -6.7570552942060713 -1 0 0 I I #
face $-1 $527 $528 $55 $-1 $529 reversed single #
loop $-1 $-1 $242 $236 #
plane-surface $-1 -35.504514739958118 -29.330946391149432 0 1 0 0 0 0 -1 forward_v I I I I #
coedge $-1 $530 $531 $532 $533 forward $237 $-1 #
coedge $-1 $534 $239 $535 $536 forward $149 $-1 #
coedge $-1 $239 $534 $387 $537 forward $149 $-1 #
edge $-1 $389 -35.504514739958118 $538 -32.480945413052744 $239 $539 forward 7 unknown #
coedge $-1 $241 $240 $540 $541 forward $94 $-1 #
coedge $-1 $542 $543 $240 $386 forward $544 $-1 #
edge $-1 $545 32.480945413052744 $390 35.504514739958118 $385 $546 forward 7 unknown #
coedge $-1 $532 $242 $382 $537 reversed $378 $-1 #
coedge $-1 $242 $532 $542 $547 reversed $378 $-1 #
vertex $-1 $383 $548 #
vertex $-1 $547 $549 #
straight-curve $-1 -35.504514739958118 -25.07598740871514 0 0 0 1 I I #
face $-1 $-1 $550 $56 $-1 $551 reversed single #
loop $-1 $-1 $250 $244 #
plane-surface $-1 0 0 6.7570552942060713 0 0 1 1 0 0 forward_v I I I I #
coedge $-1 $552 $553 $554 $555 reversed $245 $-1 #
coedge $-1 $556 $247 $249 $402 forward $153 $-1 #
coedge $-1 $247 $556 $552 $557 forward $153 $-1 #
coedge $-1 $554 $250 $247 $399 forward $393 $-1 #
edge $-1 $405 2.4995958222587227 $558 8.8321966502396769 $398 $559 forward 7 unknown #
coedge $-1 $560 $561 $248 $401 forward $550 $-1 #
edge $-1 $562 -62.461548891789562 $404 -58.032200727551967 $400 $563 forward 7 unknown #
edge $-1 $405 86.70871989110853 $562 91.990112002929806 $249 $564 forward 7 unknown #
coedge $-1 $250 $554 $560 $565 forward $393 $-1 #
vertex $-1 $251 $566 #
vertex $-1 $251 $567 #
straight-curve $-1 36.521525759137504 -8.1654920585079225 6.7570552942060687 -1 0 0 I I #
coedge $-1 $407 $407 $-1 $568 reversed $254 $-1 #
edge $-1 $569 0 $569 6.2831853071796004 $255 $570 forward 7 unknown #
vertex $-1 $258 $571 #
ellipse-curve $-1 44.556829882353846 -13.231572720892686 4.5423812120872515 0.83867057594974714 0 0.54463902268945019 0.2723195113447251 0 -0.41933528797487357 1 I I #
coedge $-1 $411 $411 $-1 $572 reversed $261 $-1 #
edge $-1 $573 0 $573 6.2831853071796004 $262 $574 forward 7 unknown #
vertex $-1 $265 $575 #
ellipse-curve $-1 44.556829882353846 -11.3317924724984 4.5423812120872515 0.83867057594974714 0 0.54463902268945019 0.2723195113447251 0 -0.41933528797487357 1 I I #
coedge $-1 $415 $415 $-1 $576 reversed $268 $-1 #
edge $-1 $577 0 $577 6.2831853071796004 $269 $578 forward 7 unknown #
vertex $-1 $272 $579 #
ellipse-curve $-1 44.556829882353846 -9.4320122241041133 4.5423812120872515 0.83867057594974714 0 0.54463902268945019 0.2723195113447251 0 -0.41933528797487357 1 I I #
face $-1 $-1 $431 $60 $-1 $580 forward single #
loop $-1 $-1 $581 $273 #
plane-surface $-1 45.995056001464889 0 0 -1 0 0 0 0 1 forward_v I I I I #
coedge $-1 $582 $583 $584 $585 reversed $274 $-1 #
coedge $-1 $586 $276 $278 $429 forward $172 $-1 #
coedge $-1 $276 $586 $582 $587 forward $172 $-1 #
coedge $-1 $584 $279 $276 $426 forward $431 $-1 #
edge $-1 $433 -2.6959879960521764 $588 3.6366128319287778 $425 $589 forward 7 unknown #
coedge $-1 $590 $591 $277 $428 forward $420 $-1 #
edge $-1 $592 -62.461548891789562 $432 -58.032200727551967 $427 $593 forward 7 unknown #
edge $-1 $433 86.70871989110853 $592 91.990112002929806 $278 $594 forward 7 unknown #
coedge $-1 $279 $584 $590 $595 forward $431 $-1 #
loop $-1 $-1 $584 $419 #
vertex $-1 $428 $596 #
vertex $-1 $280 $597 #
straight-curve $-1 36.521525759137504 2.2256755781138757 6.7570552942060687 -1 0 0 I I #
coedge $-1 $435 $435 $-1 $598 reversed $283 $-1 #
edge $-1 $599 0 $599 6.2831853071796004 $284 $600 forward 7 unknown #
vertex $-1 $287 $601 #
ellipse-curve $-1 44.556829882353846 -2.8404050842708877 4.5423812120872515 0.83867057594974714 0 0.54463902268945019 0.2723195113447251 0 -0.41933528797487357 1 I I #
coedge $-1 $439 $439 $-1 $602 reversed $290 $-1 #
edge $-1 $603 0 $603 6.2831853071796004 $291 $604 forward 7 unknown #
vertex $-1 $294 $605 #
ellipse-curve $-1 44.556829882353846 -0.9406248358766014 4.5423812120872515 0.83867057594974714 0 0.54463902268945019 0.2723195113447251 0 -0.41933528797487357 1 I I #
coedge $-1 $443 $443 $-1 $606 reversed $297 $-1 #
edge $-1 $607 0 $607 6.2831853071796004 $298 $608 forward 7 unknown #
vertex $-1 $301 $609 #
ellipse-curve $-1 44.556829882353846 0.95915541251768488 4.5423812120872515 0.83867057594974714 0 0.54463902268945019 0.2723195113447251 0 -0.41933528797487357 1 I I #
face $-1 $-1 $459 $64 $-1 $610 forward single #
loop $-1 $-1 $611 $302 #
plane-surface $-1 45.995056001464889 0 0 -1 0 0 0 0 1 forward_v I I I I #
coedge $-1 $612 $613 $614 $615 reversed $303 $-1 #
coedge $-1 $616 $305 $307 $457 forward $191 $-1 #
coedge $-1 $305 $616 $612 $617 forward $191 $-1 #
coedge $-1 $614 $308 $305 $454 forward $459 $-1 #
edge $-1 $461 -7.8915718143630738 $618 -1.5589709863821195 $453 $619 forward 7 unknown #
coedge $-1 $620 $621 $306 $456 forward $448 $-1 #
edge $-1 $622 -62.461548891789562 $460 -58.032200727551967 $455 $623 forward 7 unknown #
edge $-1 $461 86.70871989110853 $622 91.990112002929806 $307 $624 forward 7 unknown #
coedge $-1 $308 $614 $620 $625 forward $459 $-1 #
loop $-1 $-1 $614 $447 #
vertex $-1 $456 $626 #
vertex $-1 $309 $627 #
straight-curve $-1 36.521525759137504 12.61684321473567 6.7570552942060687 -1 0 0 I I #
coedge $-1 $463 $463 $-1 $628 reversed $312 $-1 #
edge $-1 $629 0 $629 6.2831853071796004 $313 $630 forward 7 unknown #
vertex $-1 $316 $631 #
ellipse-curve $-1 44.556829882353846 7.550762552350907 4.5423812120872515 0.83867057594974714 0 0.54463902268945019 0.2723195113447251 0 -0.41933528797487357 1 I I #
coedge $-1 $467 $467 $-1 $632 reversed $319 $-1 #
edge $-1 $633 0 $633 6.2831853071796004 $320 $634 forward 7 unknown #
vertex $-1 $323 $635 #
ellipse-curve $-1 44.556829882353846 9.4505428007451933 4.5423812120872515 0.83867057594974714 0 0.54463902268945019 0.2723195113447251 0 -0.41933528797487357 1 I I #
coedge $-1 $471 $471 $-1 $636 reversed $326 $-1 #
edge $-1 $637 0 $637 6.2831853071796004 $327 $638 forward 7 unknown #
vertex $-1 $330 $639 #
ellipse-curve $-1 44.556829882353846 11.35032304913948 4.5423812120872515 0.83867057594974714 0 0.54463902268945019 0.2723195113447251 0 -0.41933528797487357 1 I I #
face $-1 $-1 $487 $68 $-1 $640 forward single #
loop $-1 $-1 $641 $331 #
plane-surface $-1 45.995056001464889 0 0 -1 0 0 0 0 1 forward_v I I I I #
coedge $-1 $642 $643 $644 $645 reversed $332 $-1 #
coedge $-1 $646 $334 $336 $485 forward $210 $-1 #
coedge $-1 $334 $646 $642 $647 forward $210 $-1 #
coedge $-1 $644 $337 $334 $482 forward $487 $-1 #
edge $-1 $489 -13.087155632673971 $648 -6.7545548046930168 $481 $649 forward 7 unknown #
coedge $-1 $650 $651 $335 $484 forward $476 $-1 #
edge $-1 $652 -62.461548891789562 $488 -58.032200727551967 $483 $653 forward 7 unknown #
edge $-1 $489 86.70871989110853 $652 91.990112002929806 $336 $654 forward 7 unknown #
coedge $-1 $337 $644 $650 $655 forward $487 $-1 #
loop $-1 $-1 $644 $475 #
vertex $-1 $484 $656 #
vertex $-1 $338 $657 #
straight-curve $-1 36.521525759137504 23.008010851357465 6.7570552942060687 -1 0 0 I I #
coedge $-1 $491 $491 $-1 $658 reversed $341 $-1 #
edge $-1 $659 0 $659 6.2831853071796004 $342 $660 forward 7 unknown #
vertex $-1 $345 $661 #
ellipse-curve $-1 44.556829882353846 17.941930188972702 4.5423812120872515 0.83867057594974714 0 0.54463902268945019 0.2723195113447251 0 -0.41933528797487357 1 I I #
coedge $-1 $495 $495 $-1 $662 reversed $348 $-1 #
edge $-1 $663 0 $663 6.2831853071796004 $349 $664 forward 7 unknown #
vertex $-1 $352 $665 #
ellipse-curve $-1 44.556829882353846 19.841710437366988 4.5423812120872515 0.83867057594974714 0 0.54463902268945019 0.2723195113447251 0 -0.41933528797487357 1 I I #
coedge $-1 $499 $499 $-1 $666 reversed $355 $-1 #
edge $-1 $667 0 $667 6.2831853071796004 $356 $668 forward 7 unknown #
vertex $-1 $359 $669 #
ellipse-curve $-1 44.556829882353846 21.741490685761274 4.5423812120872515 0.83867057594974714 0 0.54463902268945019 0.2723195113447251 0 -0.41933528797487357 1 I I #
face $-1 $-1 $515 $54 $-1 $670 reversed single #
loop $-1 $-1 $671 $360 #
plane-surface $-1 0 25.07598740871514 0 0 -1 0 0 0 -1 forward_v I I I I #
coedge $-1 $521 $520 $672 $673 forward $361 $-1 #
coedge $-1 $363 $373 $674 $675 forward $229 $-1 #
coedge $-1 $514 $369 $363 $509 reversed $515 $-1 #
edge $-1 $676 -25.07598740871514 $374 25.07598740871514 $508 $677 forward 7 unknown #
coedge $-1 $365 $364 $520 $678 forward $145 $-1 #
coedge $-1 $671 $672 $364 $512 reversed $504 $-1 #
edge $-1 $517 -45.995056001464889 $679 45.995056001464889 $511 $680 forward 7 unknown #
edge $-1 $522 -45.995056001464889 $516 45.995056001464889 $368 $681 forward 7 unknown #
coedge $-1 $366 $508 $671 $682 reversed $515 $-1 #
loop $-1 $-1 $369 $503 #
vertex $-1 $367 $683 #
vertex $-1 $367 $684 #
straight-curve $-1 45.995056001464889 0 6.7570552942060713 0 1 0 I I #
straight-curve $-1 45.995056001464889 -25.07598740871514 0 0 0 -1 I I #
coedge $-1 $506 $371 $510 $678 reversed $361 $-1 #
coedge $-1 $371 $506 $373 $524 reversed $361 $-1 #
vertex $-1 $678 $685 #
straight-curve $-1 -45.995056001464889 -25.07598740871514 0 0 0 -1 I I #
edge $-1 $375 -25.07598740871514 $686 25.07598740871514 $521 $687 forward 7 unknown #
point $-1 45.995056001464889 -25.07598740871514 -6.7570552942060713 #
point $-1 -45.995056001464889 -25.07598740871514 -6.7570552942060713 #
face $-1 $-1 $544 $55 $-1 $688 forward single #
loop $-1 $-1 $689 $377 #
plane-surface $-1 -32.480945413052744 -29.330946391149432 0 -1 0 0 0 0 1 forward_v I I I I #
coedge $-1 $690 $380 $534 $691 reversed $237 $-1 #
coedge $-1 $380 $690 $692 $693 reversed $237 $-1 #
coedge $-1 $388 $387 $380 $533 reversed $378 $-1 #
edge $-1 $694 -6.7570552942060713 $695 6.7570552942060713 $532 $696 forward 7 unknown #
coedge $-1 $382 $381 $530 $691 forward $149 $-1 #
coedge $-1 $540 $689 $381 $536 reversed $528 $-1 #
edge $-1 $538 -4.2549589824342959 $697 4.2549589824342959 $535 $698 forward 7 unknown #
edge $-1 $695 -4.2549589824342959 $389 4.2549589824342959 $387 $699 forward 7 unknown #
vertex $-1 $536 $700 #
straight-curve $-1 0 -25.07598740871514 -6.7570552942060713 1 0 0 I I #
coedge $-1 $701 $535 $384 $541 reversed $528 $-1 #
edge $-1 $545 -6.7570552942060713 $538 6.7570552942060713 $540 $702 forward 7 unknown #
coedge $-1 $692 $385 $388 $547 forward $544 $-1 #
coedge $-1 $385 $692 $701 $703 forward $544 $-1 #
loop $-1 $-1 $385 $527 #
vertex $-1 $386 $704 #
straight-curve $-1 0 -25.07598740871514 6.7570552942060713 -1 0 0 I I #
edge $-1 $390 -4.2549589824342959 $694 4.2549589824342959 $388 $705 forward 7 unknown #
point $-1 -35.504514739958118 -25.075987408715136 -6.7570552942060713 #
point $-1 -35.504514739958118 -25.075987408715136 6.7570552942060713 #
loop $-1 $-1 $400 $392 #
plane-surface $-1 45.995056001464889 0 0 -1 0 0 0 0 1 forward_v I I I I #
coedge $-1 $553 $395 $397 $557 reversed $245 $-1 #
coedge $-1 $395 $552 $706 $707 reversed $245 $-1 #
coedge $-1 $403 $398 $395 $555 forward $393 $-1 #
edge $-1 $558 6.5970780041052777 $708 9.4735302423273851 $554 $709 forward 7 unknown #
coedge $-1 $397 $396 $561 $710 reversed $153 $-1 #
edge $-1 $711 -91.990112002929806 $558 -86.70871989110853 $552 $712 forward 7 unknown #
vertex $-1 $399 $713 #
straight-curve $-1 43.118603763242781 -5.6658962362491998 6.7570552942060758 0 -1 0 I I #
coedge $-1 $706 $400 $403 $565 reversed $550 $-1 #
coedge $-1 $400 $706 $556 $710 forward $550 $-1 #
vertex $-1 $401 $714 #
straight-curve $-1 45.995056001464889 -8.1654920585079225 64.789256021758035 0 0 1 I I #
straight-curve $-1 -4.1063486969038507 -8.1654920585079225 79.477107345147346 0.54463902268945019 0 -0.83867057594974714 I I #
edge $-1 $708 -14.498092886488877 $404 -8.1654920585079225 $560 $715 forward 7 unknown #
point $-1 45.995056001464889 -8.1654920585079225 6.7570552942060713 #
point $-1 43.118603763242781 -8.1654920585079225 6.7570552942060687 #
edge $-1 $716 1 $716 0 $407 $-1 forward 7 unknown #
vertex $-1 $408 $717 #
ellipse-curve $-1 43.337011722500925 -13.231572720892686 3.7502220622461029 0.83867057594974714 0 0.54463902268945019 0.2723195113447251 0 -0.41933528797487357 1 I I #
point $-1 44.829149393698579 -13.231572720892686 4.1230459241123842 #
edge $-1 $718 1 $718 0 $411 $-1 forward 7 unknown #
vertex $-1 $412 $719 #
ellipse-curve $-1 43.337011722500925 -11.3317924724984 3.7502220622461029 0.83867057594974714 0 0.54463902268945019 0.2723195113447251 0 -0.41933528797487357 1 I I #
point $-1 44.829149393698579 -11.3317924724984 4.1230459241123842 #
edge $-1 $720 1 $720 0 $415 $-1 forward 7 unknown #
vertex $-1 $416 $721 #
ellipse-curve $-1 43.337011722500925 -9.4320122241041133 3.7502220622461029 0.83867057594974714 0 0.54463902268945019 0.2723195113447251 0 -0.41933528797487357 1 I I #
point $-1 44.829149393698579 -9.4320122241041133 4.1230459241123842 #
plane-surface $-1 0 0 6.7570552942060713 0 0 1 1 0 0 forward_v I I I I #
coedge $-1 $591 $590 $583 $722 forward $420 $-1 #
coedge $-1 $583 $422 $424 $587 reversed $274 $-1 #
coedge $-1 $422 $582 $581 $722 reversed $274 $-1 #
coedge $-1 $430 $425 $422 $585 forward $431 $-1 #
edge $-1 $588 6.5970780041052777 $723 9.4735302423273851 $584 $724 forward 7 unknown #
coedge $-1 $424 $423 $591 $725 reversed $172 $-1 #
edge $-1 $726 -91.990112002929806 $588 -86.70871989110853 $582 $727 forward 7 unknown #
vertex $-1 $426 $728 #
straight-curve $-1 43.118603763242781 -0.4703124179383007 6.7570552942060758 0 -1 0 I I #
coedge $-1 $581 $427 $430 $595 reversed $420 $-1 #
coedge $-1 $427 $581 $586 $725 forward $420 $-1 #
vertex $-1 $428 $729 #
straight-curve $-1 45.995056001464889 2.2256755781138757 64.789256021758035 0 0 1 I I #
straight-curve $-1 -4.1063486969038507 2.2256755781138757 79.477107345147346 0.54463902268945019 0 -0.83867057594974714 I I #
edge $-1 $723 -4.1069252498670785 $432 2.2256755781138757 $590 $730 forward 7 unknown #
point $-1 45.995056001464889 2.2256755781138757 6.7570552942060713 #
point $-1 43.118603763242781 2.2256755781138757 6.7570552942060687 #
edge $-1 $731 1 $731 0 $435 $-1 forward 7 unknown #
vertex $-1 $436 $732 #
ellipse-curve $-1 43.337011722500925 -2.8404050842708877 3.7502220622461029 0.83867057594974714 0 0.54463902268945019 0.2723195113447251 0 -0.41933528797487357 1 I I #
point $-1 44.829149393698579 -2.8404050842708877 4.1230459241123842 #
edge $-1 $733 1 $733 0 $439 $-1 forward 7 unknown #
vertex $-1 $440 $734 #
ellipse-curve $-1 43.337011722500925 -0.9406248358766014 3.7502220622461029 0.83867057594974714 0 0.54463902268945019 0.2723195113447251 0 -0.41933528797487357 1 I I #
point $-1 44.829149393698579 -0.9406248358766014 4.1230459241123842 #
edge $-1 $735 1 $735 0 $443 $-1 forward 7 unknown #
vertex $-1 $444 $736 #
ellipse-curve $-1 43.337011722500925 0.95915541251768488 3.7502220622461029 0.83867057594974714 0 0.54463902268945019 0.2723195113447251 0 -0.41933528797487357 1 I I #
point $-1 44.829149393698579 0.95915541251768488 4.1230459241123842 #
plane-surface $-1 0 0 6.7570552942060713 0 0 1 1 0 0 forward_v I I I I #
coedge $-1 $621 $620 $613 $737 forward $448 $-1 #
coedge $-1 $613 $450 $452 $617 reversed $303 $-1 #
coedge $-1 $450 $612 $611 $737 reversed $303 $-1 #
coedge $-1 $458 $453 $450 $615 forward $459 $-1 #
edge $-1 $618 6.5970780041052777 $738 9.4735302423273851 $614 $739 forward 7 unknown #
coedge $-1 $452 $451 $621 $740 reversed $191 $-1 #
edge $-1 $741 -91.990112002929806 $618 -86.70871989110853 $612 $742 forward 7 unknown #
vertex $-1 $454 $743 #
straight-curve $-1 43.118603763242781 4.7252714003725966 6.7570552942060758 0 -1 0 I I #
coedge $-1 $611 $455 $458 $625 reversed $448 $-1 #
coedge $-1 $455 $611 $616 $740 forward $448 $-1 #
vertex $-1 $456 $744 #
straight-curve $-1 45.995056001464889 12.61684321473567 64.789256021758035 0 0 1 I I #
straight-curve $-1 -4.1063486969038507 12.61684321473567 79.477107345147346 0.54463902268945019 0 -0.83867057594974714 I I #
edge $-1 $738 6.2842423867547161 $460 12.61684321473567 $620 $745 forward 7 unknown #
point $-1 45.995056001464889 12.61684321473567 6.7570552942060713 #
point $-1 43.118603763242781 12.61684321473567 6.7570552942060687 #
edge $-1 $746 1 $746 0 $463 $-1 forward 7 unknown #
vertex $-1 $464 $747 #
ellipse-curve $-1 43.337011722500925 7.550762552350907 3.7502220622461029 0.83867057594974714 0 0.54463902268945019 0.2723195113447251 0 -0.41933528797487357 1 I I #
point $-1 44.829149393698579 7.550762552350907 4.1230459241123842 #
edge $-1 $748 1 $748 0 $467 $-1 forward 7 unknown #
vertex $-1 $468 $749 #
ellipse-curve $-1 43.337011722500925 9.4505428007451933 3.7502220622461029 0.83867057594974714 0 0.54463902268945019 0.2723195113447251 0 -0.41933528797487357 1 I I #
point $-1 44.829149393698579 9.4505428007451933 4.1230459241123842 #
edge $-1 $750 1 $750 0 $471 $-1 forward 7 unknown #
vertex $-1 $472 $751 #
ellipse-curve $-1 43.337011722500925 11.35032304913948 3.7502220622461029 0.83867057594974714 0 0.54463902268945019 0.2723195113447251 0 -0.41933528797487357 1 I I #
point $-1 44.829149393698579 11.35032304913948 4.1230459241123842 #
plane-surface $-1 0 0 6.7570552942060713 0 0 1 1 0 0 forward_v I I I I #
coedge $-1 $651 $650 $643 $752 forward $476 $-1 #
coedge $-1 $643 $478 $480 $647 reversed $332 $-1 #
coedge $-1 $478 $642 $641 $752 reversed $332 $-1 #
coedge $-1 $486 $481 $478 $645 forward $487 $-1 #
edge $-1 $648 6.5970780041052777 $753 9.4735302423273851 $644 $754 forward 7 unknown #
coedge $-1 $480 $479 $651 $755 reversed $210 $-1 #
edge $-1 $756 -91.990112002929806 $648 -86.70871989110853 $642 $757 forward 7 unknown #
vertex $-1 $482 $758 #
straight-curve $-1 43.118603763242781 9.920855218683494 6.7570552942060758 0 -1 0 I I #
coedge $-1 $641 $483 $486 $655 reversed $476 $-1 #
coedge $-1 $483 $641 $646 $755 forward $476 $-1 #
vertex $-1 $484 $759 #
straight-curve $-1 45.995056001464889 23.008010851357465 64.789256021758035 0 0 1 I I #
straight-curve $-1 -4.1063486969038507 23.008010851357465 79.477107345147346 0.54463902268945019 0 -0.83867057594974714 I I #
edge $-1 $753 16.675410023376511 $488 23.008010851357465 $650 $760 forward 7 unknown #
point $-1 45.995056001464889 23.008010851357465 6.7570552942060713 #
point $-1 43.118603763242781 23.008010851357465 6.7570552942060687 #
edge $-1 $761 1 $761 0 $491 $-1 forward 7 unknown #
vertex $-1 $492 $762 #
ellipse-curve $-1 43.337011722500925 17.941930188972702 3.7502220622461029 0.83867057594974714 0 0.54463902268945019 0.2723195113447251 0 -0.41933528797487357 1 I I #
point $-1 44.829149393698579 17.941930188972702 4.1230459241123842 #
edge $-1 $763 1 $763 0 $495 $-1 forward 7 unknown #
vertex $-1 $496 $764 #
ellipse-curve $-1 43.337011722500925 19.841710437366988 3.7502220622461029 0.83867057594974714 0 0.54463902268945019 0.2723195113447251 0 -0.41933528797487357 1 I I #
point $-1 44.829149393698579 19.841710437366988 4.1230459241123842 #
edge $-1 $765 1 $765 0 $499 $-1 forward 7 unknown #
vertex $-1 $500 $766 #
ellipse-curve $-1 43.337011722500925 21.741490685761274 3.7502220622461029 0.83867057594974714 0 0.54463902268945019 0.2723195113447251 0 -0.41933528797487357 1 I I #
point $-1 44.829149393698579 21.741490685761274 4.1230459241123842 #
plane-surface $-1 45.995056001464889 0 0 -1 0 0 0 0 1 forward_v I I I I #
coedge $-1 $674 $511 $514 $682 forward $504 $-1 #
coedge $-1 $511 $674 $506 $673 reversed $504 $-1 #
edge $-1 $679 -6.7570552942060713 $686 6.7570552942060713 $672 $767 forward 7 unknown #
coedge $-1 $672 $671 $507 $675 reversed $504 $-1 #
edge $-1 $686 -45.995056001464889 $676 45.995056001464889 $674 $768 forward 7 unknown #
vertex $-1 $509 $769 #
straight-curve $-1 45.995056001464889 0 -6.7570552942060713 0 -1 0 I I #
edge $-1 $679 -25.07598740871514 $522 25.07598740871514 $520 $770 forward 7 unknown #
vertex $-1 $512 $771 #
straight-curve $-1 0 25.07598740871514 6.7570552942060713 -1 0 0 I I #
straight-curve $-1 0 -25.07598740871514 6.7570552942060713 1 0 0 I I #
edge $-1 $517 -6.7570552942060713 $676 6.7570552942060713 $514 $772 forward 7 unknown #
point $-1 45.995056001464889 -25.07598740871514 6.7570552942060713 #
point $-1 45.995056001464889 25.07598740871514 6.7570552942060713 #
point $-1 -45.995056001464889 -25.07598740871514 6.7570552942060713 #
vertex $-1 $675 $773 #
straight-curve $-1 -45.995056001464889 0 -6.7570552942060713 0 1 0 I I #
plane-surface $-1 0 0 6.7570552942060713 0 0 1 1 0 0 forward_v I I I I #
coedge $-1 $535 $701 $690 $774 forward $528 $-1 #
coedge $-1 $531 $530 $689 $774 reversed $237 $-1 #
edge $-1 $697 -1.511784663452687 $695 1.511784663452687 $530 $775 forward 7 unknown #
coedge $-1 $543 $542 $531 $693 forward $544 $-1 #
edge $-1 $694 -1.511784663452687 $776 1.511784663452687 $531 $777 forward 7 unknown #
vertex $-1 $547 $778 #
vertex $-1 $537 $779 #
straight-curve $-1 -35.504514739958118 -33.585905373583728 0 0 0 -1 I I #
vertex $-1 $774 $780 #
straight-curve $-1 -32.480945413052744 -29.330946391149432 -6.7570552942060713 0 -1 0 I I #
straight-curve $-1 -35.504514739958118 -29.330946391149432 -6.7570552942060713 0 1 0 I I #
point $-1 -32.480945413052744 -25.075987408715136 -6.7570552942060713 #
coedge $-1 $689 $540 $543 $703 reversed $528 $-1 #
straight-curve $-1 -32.480945413052744 -25.07598740871514 0 0 0 -1 I I #
edge $-1 $776 -4.2549589824342959 $545 4.2549589824342959 $701 $781 forward 7 unknown #
point $-1 -32.480945413052744 -25.075987408715136 6.7570552942060713 #
straight-curve $-1 -35.504514739958118 -29.330946391149432 6.7570552942060713 0 -1 0 I I #
coedge $-1 $561 $560 $553 $707 forward $550 $-1 #
edge $-1 $708 58.032200727551967 $711 62.461548891789562 $706 $782 forward 7 unknown #
vertex $-1 $565 $783 #
straight-curve $-1 36.521525759137504 -14.498092886488877 6.7570552942060687 1 0 0 I I #
edge $-1 $711 -8.8321966502396769 $562 -2.4995958222587227 $561 $784 forward 7 unknown #
vertex $-1 $710 $785 #
straight-curve $-1 -4.1063486969038507 -14.498092886488877 79.477107345147346 -0.54463902268945019 0 0.83867057594974714 I I #
point $-1 43.118603763242781 -14.498092886488877 6.7570552942060687 #
point $-1 45.995056001464896 -8.1654920585079225 2.3277071299684735 #
straight-curve $-1 45.995056001464889 0 6.7570552942060713 0 1 0 I I #
vertex $-1 $568 $786 #
point $-1 43.609331233845651 -13.231572720892686 3.3308867742712294 #
vertex $-1 $572 $787 #
point $-1 43.609331233845651 -11.3317924724984 3.3308867742712294 #
vertex $-1 $576 $788 #
point $-1 43.609331233845651 -9.4320122241041133 3.3308867742712294 #
edge $-1 $723 58.032200727551967 $726 62.461548891789562 $581 $789 forward 7 unknown #
vertex $-1 $595 $790 #
straight-curve $-1 36.521525759137504 -4.1069252498670785 6.7570552942060687 1 0 0 I I #
edge $-1 $726 -3.6366128319287778 $592 2.6959879960521764 $591 $791 forward 7 unknown #
vertex $-1 $725 $792 #
straight-curve $-1 -4.1063486969038507 -4.1069252498670785 79.477107345147346 -0.54463902268945019 0 0.83867057594974714 I I #
point $-1 43.118603763242781 -4.1069252498670785 6.7570552942060687 #
point $-1 45.995056001464896 2.2256755781138757 2.3277071299684735 #
straight-curve $-1 45.995056001464889 0 6.7570552942060713 0 1 0 I I #
vertex $-1 $598 $793 #
point $-1 43.609331233845651 -2.8404050842708877 3.3308867742712294 #
vertex $-1 $602 $794 #
point $-1 43.609331233845651 -0.9406248358766014 3.3308867742712294 #
vertex $-1 $606 $795 #
point $-1 43.609331233845651 0.95915541251768488 3.3308867742712294 #
edge $-1 $738 58.032200727551967 $741 62.461548891789562 $611 $796 forward 7 unknown #
vertex $-1 $625 $797 #
straight-curve $-1 36.521525759137504 6.2842423867547161 6.7570552942060687 1 0 0 I I #
edge $-1 $741 1.5589709863821195 $622 7.8915718143630738 $621 $798 forward 7 unknown #
vertex $-1 $740 $799 #
straight-curve $-1 -4.1063486969038507 6.2842423867547161 79.477107345147346 -0.54463902268945019 0 0.83867057594974714 I I #
point $-1 43.118603763242781 6.2842423867547161 6.7570552942060687 #
point $-1 45.995056001464896 12.61684321473567 2.3277071299684735 #
straight-curve $-1 45.995056001464889 0 6.7570552942060713 0 1 0 I I #
vertex $-1 $628 $800 #
point $-1 43.609331233845651 7.550762552350907 3.3308867742712294 #
vertex $-1 $632 $801 #
point $-1 43.609331233845651 9.4505428007451933 3.3308867742712294 #
vertex $-1 $636 $802 #
point $-1 43.609331233845651 11.35032304913948 3.3308867742712294 #
edge $-1 $753 58.032200727551967 $756 62.461548891789562 $641 $803 forward 7 unknown #
vertex $-1 $655 $804 #
straight-curve $-1 36.521525759137504 16.675410023376511 6.7570552942060687 1 0 0 I I #
edge $-1 $756 6.7545548046930168 $652 13.087155632673971 $651 $805 forward 7 unknown #
vertex $-1 $755 $806 #
straight-curve $-1 -4.1063486969038507 16.675410023376511 79.477107345147346 -0.54463902268945019 0 0.83867057594974714 I I #
point $-1 43.118603763242781 16.675410023376511 6.7570552942060687 #
point $-1 45.995056001464896 23.008010851357465 2.3277071299684735 #
straight-curve $-1 45.995056001464889 0 6.7570552942060713 0 1 0 I I #
vertex $-1 $658 $807 #
point $-1 43.609331233845651 17.941930188972702 3.3308867742712294 #
vertex $-1 $662 $808 #
point $-1 43.609331233845651 19.841710437366988 3.3308867742712294 #
vertex $-1 $666 $809 #
point $-1 43.609331233845651 21.741490685761274 3.3308867742712294 #
straight-curve $-1 -45.995056001464889 25.07598740871514 0 0 0 -1 I I #
straight-curve $-1 0 25.07598740871514 -6.7570552942060713 1 0 0 I I #
point $-1 45.995056001464889 25.07598740871514 -6.7570552942060713 #
straight-curve $-1 -45.995056001464889 0 6.7570552942060713 0 -1 0 I I #
point $-1 -45.995056001464889 25.07598740871514 6.7570552942060713 #
straight-curve $-1 45.995056001464889 25.07598740871514 0 0 0 -1 I I #
point $-1 -45.995056001464889 25.07598740871514 -6.7570552942060713 #
edge $-1 $776 -6.7570552942060713 $697 6.7570552942060713 $689 $810 forward 7 unknown #
straight-curve $-1 -33.992730076505431 -33.585905373583728 -6.7570552942060713 -1 0 0 I I #
vertex $-1 $703 $811 #
straight-curve $-1 -33.992730076505431 -33.585905373583728 6.7570552942060713 1 0 0 I I #
point $-1 -35.504514739958118 -33.585905373583728 6.7570552942060713 #
point $-1 -35.504514739958118 -33.585905373583728 -6.7570552942060713 #
point $-1 -32.480945413052744 -33.585905373583728 -6.7570552942060713 #
straight-curve $-1 -32.480945413052744 -29.330946391149432 6.7570552942060713 0 1 0 I I #
straight-curve $-1 45.995056001464889 -14.498092886488877 64.789256021758035 0 0 -1 I I #
point $-1 45.995056001464889 -14.498092886488877 6.7570552942060713 #
straight-curve $-1 45.995056001464889 -5.6658962362491998 2.3277071299684735 0 1 0 I I #
point $-1 45.995056001464896 -14.498092886488877 2.3277071299684735 #
point $-1 42.917676434526051 -13.231572720892686 3.4779025509013777 #
point $-1 42.917676434526051 -11.3317924724984 3.4779025509013777 #
point $-1 42.917676434526051 -9.4320122241041133 3.4779025509013777 #
straight-curve $-1 45.995056001464889 -4.1069252498670785 64.789256021758035 0 0 -1 I I #
point $-1 45.995056001464889 -4.1069252498670785 6.7570552942060713 #
straight-curve $-1 45.995056001464889 -0.4703124179383007 2.3277071299684735 0 1 0 I I #
point $-1 45.995056001464896 -4.1069252498670785 2.3277071299684735 #
point $-1 42.917676434526051 -2.8404050842708877 3.4779025509013777 #
point $-1 42.917676434526051 -0.9406248358766014 3.4779025509013777 #
point $-1 42.917676434526051 0.95915541251768488 3.4779025509013777 #
straight-curve $-1 45.995056001464889 6.2842423867547161 64.789256021758035 0 0 -1 I I #
point $-1 45.995056001464889 6.2842423867547161 6.7570552942060713 #
straight-curve $-1 45.995056001464889 4.7252714003725966 2.3277071299684735 0 1 0 I I #
point $-1 45.995056001464896 6.2842423867547161 2.3277071299684735 #
point $-1 42.917676434526051 7.550762552350907 3.4779025509013777 #
point $-1 42.917676434526051 9.4505428007451933 3.4779025509013777 #
point $-1 42.917676434526051 11.35032304913948 3.4779025509013777 #
straight-curve $-1 45.995056001464889 16.675410023376511 64.789256021758035 0 0 -1 I I #
point $-1 45.995056001464889 16.675410023376511 6.7570552942060713 #
straight-curve $-1 45.995056001464889 9.920855218683494 2.3277071299684735 0 1 0 I I #
point $-1 45.995056001464896 16.675410023376511 2.3277071299684735 #
point $-1 42.917676434526051 17.941930188972702 3.4779025509013777 #
point $-1 42.917676434526051 19.841710437366988 3.4779025509013777 #
point $-1 42.917676434526051 21.741490685761274 3.4779025509013777 #
straight-curve $-1 -32.480945413052744 -33.585905373583728 0 0 0 -1 I I #
point $-1 -32.480945413052744 -33.585905373583728 6.7570552942060713 #
End-of-ACIS-data 