500 0 4 0           
7 Unknown 11 ACIS 5.0 NT 24 Thu Mar 25 16:01:40 1999 
-1 9.9999999999999995e-007 1e-010 
body $-1 $4 $-1 $5 #
body $-1 $6 $-1 $7 #
body $-1 $8 $-1 $9 #
body $-1 $10 $-1 $11 #
lump $-1 $-1 $12 $0 #
transform $-1 1 0 0 0 1 0 0 0 1 48.587908566545607 19.483207136373672 4.614797425056409 1 rotate no_reflect no_shear #
lump $-1 $-1 $13 $1 #
transform $-1 1 0 0 0 1 0 0 0 1 48.587908566545607 19.483207136373672 4.614797425056409 1 rotate no_reflect no_shear #
lump $-1 $-1 $14 $2 #
transform $-1 1 0 0 0 1 0 0 0 1 48.587908566545607 19.483207136373672 4.614797425056409 1 rotate no_reflect no_shear #
lump $-1 $-1 $15 $3 #
transform $-1 1 0 0 0 1 0 0 0 1 48.587908566545607 19.483207136373672 4.614797425056409 1 rotate no_reflect no_shear #
shell $-1 $-1 $-1 $16 $-1 $4 #
shell $-1 $-1 $-1 $17 $-1 $6 #
shell $-1 $-1 $-1 $18 $-1 $8 #
shell $-1 $-1 $-1 $19 $-1 $10 #
face $-1 $20 $21 $12 $-1 $22 forward single #
face $-1 $23 $24 $13 $-1 $25 forward single #
face $-1 $26 $27 $14 $-1 $28 reversed single #
face $-1 $29 $30 $15 $-1 $31 forward single #
face $-1 $32 $33 $12 $-1 $34 reversed single #
loop $-1 $-1 $35 $16 #
plane-surface $-1 0 0 4.614797425056409 0 0 1 1 0 0 forward_v I I I I #
face $-1 $36 $37 $13 $-1 $38 reversed single #
loop $-1 $-1 $39 $17 #
plane-surface $-1 -48.587908566545607 0 0 1 0 0 0 0 -1 forward_v I I I I #
face $-1 $40 $41 $14 $-1 $42 reversed single #
loop $-1 $-1 $43 $18 #
plane-surface $-1 -23.527076055025972 62.317295322371059 97.071611419500627 1 0 0 0 -0.71933980857756763 -0.69465836192734942 forward_v I I I I #
face $-1 $44 $45 $15 $-1 $46 forward single #
loop $-1 $47 $48 $19 #
cone-surface $-1 -17.482270164749721 16.963159929965659 2.0774424861709231 0 -0.71933980857756763 -0.69465836192734942 1 0 0 1 I I 0 1 1 forward I I I I #
face $-1 $49 $50 $12 $-1 $51 reversed single #
loop $-1 $-1 $52 $20 #
plane-surface $-1 0 0 -4.614797425056409 0 0 1 1 0 0 forward_v I I I I #
coedge $-1 $53 $54 $55 $56 forward $21 $-1 #
face $-1 $57 $58 $13 $-1 $59 reversed single #
loop $-1 $-1 $60 $23 #
plane-surface $-1 0 19.483207136373672 0 0 -1 0 0 0 -1 forward_v I I I I #
coedge $-1 $61 $62 $63 $64 forward $24 $-1 #
face $-1 $65 $66 $14 $-1 $67 reversed single #
loop $-1 $-1 $68 $26 #
plane-surface $-1 -17.482270164749721 -7.5851383725154946 29.567617470875831 0 0.71933980857756763 0.69465836192734942 1 0 0 forward_v I I I I #
coedge $-1 $69 $70 $71 $72 reversed $27 $-1 #
face $-1 $-1 $73 $15 $-1 $74 forward single #
loop $-1 $75 $76 $29 #
cone-surface $-1 -17.482270164749721 15.569286750668944 0.73139483536818872 0 -0.71933980857756763 -0.69465836192734942 0.5 0 0 1 I I -0.70710678118654746 0.70710678118654746 0.5 forward I I I I #
loop $-1 $-1 $77 $19 #
coedge $-1 $48 $48 $78 $79 reversed $30 $-1 #
face $-1 $80 $81 $12 $-1 $82 reversed single #
loop $-1 $-1 $83 $32 #
plane-surface $-1 0 -19.483207136373672 0 0 1 0 0 0 1 forward_v I I I I #
coedge $-1 $84 $85 $86 $87 forward $33 $-1 #
coedge $-1 $88 $35 $89 $90 forward $21 $-1 #
coedge $-1 $35 $88 $91 $92 forward $21 $-1 #
coedge $-1 $93 $94 $35 $56 reversed $95 $-1 #
edge $-1 $96 -19.483207136373672 $97 19.483207136373672 $55 $98 forward 7 unknown #
face $-1 $99 $100 $13 $-1 $101 reversed single #
loop $-1 $-1 $63 $36 #
plane-surface $-1 -51.32093702968065 0 1.614797425056409 0 0 1 1 0 0 forward_v I I I I #
coedge $-1 $102 $103 $61 $104 forward $37 $-1 #
coedge $-1 $105 $39 $60 $104 reversed $24 $-1 #
coedge $-1 $39 $105 $106 $107 reversed $24 $-1 #
coedge $-1 $108 $109 $39 $64 reversed $58 $-1 #
edge $-1 $110 -19.483207136373672 $111 19.483207136373672 $63 $112 forward 7 unknown #
face $-1 $113 $114 $14 $-1 $115 forward single #
loop $-1 $-1 $116 $40 #
plane-surface $-1 -11.43746427447347 62.317295322371059 97.071611419500627 -1 0 0 0 0.71933980857756763 0.69465836192734942 forward_v I I I I #
coedge $-1 $117 $118 $119 $120 reversed $41 $-1 #
coedge $-1 $70 $43 $121 $122 reversed $27 $-1 #
coedge $-1 $43 $69 $117 $123 reversed $27 $-1 #
coedge $-1 $119 $124 $43 $72 forward $114 $-1 #
edge $-1 $125 11.675440524811858 $126 14.647128387612014 $71 $127 forward 7 unknown #
loop $-1 $-1 $78 $44 #
plane-surface $-1 -17.482270164749721 -7.5851383725154946 29.567617470875831 0 0.71933980857756763 0.69465836192734942 1 0 0 forward_v I I I I #
loop $-1 $-1 $128 $29 #
coedge $-1 $76 $76 $77 $129 reversed $45 $-1 #
coedge $-1 $77 $77 $76 $129 forward $47 $-1 #
coedge $-1 $78 $78 $48 $79 forward $73 $-1 #
edge $-1 $130 -6.3890209440981471e-016 $130 6.2831853071795996 $78 $131 forward 7 unknown #
face $-1 $132 $133 $12 $-1 $134 reversed single #
loop $-1 $-1 $135 $49 #
plane-surface $-1 -48.587908566545607 0 0 1 0 0 0 0 -1 forward_v I I I I #
coedge $-1 $136 $91 $137 $138 forward $50 $-1 #
coedge $-1 $139 $52 $136 $140 forward $33 $-1 #
coedge $-1 $52 $139 $141 $142 forward $33 $-1 #
coedge $-1 $94 $93 $52 $87 reversed $95 $-1 #
edge $-1 $143 -19.483207136373672 $144 19.483207136373672 $86 $145 forward 7 unknown #
coedge $-1 $54 $53 $146 $147 forward $21 $-1 #
coedge $-1 $148 $149 $53 $90 reversed $133 $-1 #
edge $-1 $97 -48.587908566545607 $150 48.587908566545607 $89 $151 forward 7 unknown #
coedge $-1 $83 $152 $54 $92 reversed $50 $-1 #
edge $-1 $153 -48.587908566545607 $96 48.587908566545607 $91 $154 forward 7 unknown #
coedge $-1 $86 $55 $152 $155 forward $95 $-1 #
coedge $-1 $55 $86 $148 $156 reversed $95 $-1 #
loop $-1 $-1 $93 $132 #
vertex $-1 $56 $157 #
vertex $-1 $56 $158 #
straight-curve $-1 48.587908566545607 0 4.614797425056409 0 1 0 I I #
face $-1 $159 $160 $13 $-1 $161 forward single #
loop $-1 $-1 $162 $57 #
plane-surface $-1 -54.053965492815692 0 3.114797425056409 1 0 0 0 0 -1 forward_v I I I I #
coedge $-1 $163 $60 $109 $164 reversed $37 $-1 #
coedge $-1 $60 $163 $165 $166 reversed $37 $-1 #
edge $-1 $167 -4.614797425056409 $111 -1.614797425056409 $60 $168 forward 7 unknown #
coedge $-1 $62 $61 $169 $170 reversed $24 $-1 #
coedge $-1 $171 $172 $62 $107 forward $173 $-1 #
edge $-1 $110 1.614797425056409 $174 4.614797425056409 $106 $175 forward 7 unknown #
coedge $-1 $176 $63 $172 $177 forward $58 $-1 #
coedge $-1 $63 $176 $102 $164 forward $58 $-1 #
vertex $-1 $107 $178 #
vertex $-1 $104 $179 #
straight-curve $-1 -48.587908566545607 0 1.614797425056409 0 1 0 I I #
face $-1 $-1 $180 $14 $-1 $181 reversed single #
loop $-1 $-1 $71 $65 #
plane-surface $-1 0 0 4.614797425056409 0 0 1 1 0 0 forward_v I I I I #
coedge $-1 $182 $183 $184 $185 reversed $66 $-1 #
coedge $-1 $186 $68 $70 $123 forward $41 $-1 #
coedge $-1 $68 $186 $182 $187 forward $41 $-1 #
coedge $-1 $184 $71 $68 $120 forward $114 $-1 #
edge $-1 $126 -14.785940972651112 $188 -2.6963291920986094 $119 $189 forward 7 unknown #
coedge $-1 $190 $191 $69 $122 forward $180 $-1 #
edge $-1 $192 -46.998281222786765 $125 -43.921008284693904 $121 $193 forward 7 unknown #
edge $-1 $126 34.688501523586567 $192 38.966414272747357 $70 $194 forward 7 unknown #
coedge $-1 $71 $184 $190 $195 forward $114 $-1 #
vertex $-1 $122 $196 #
vertex $-1 $72 $197 #
straight-curve $-1 -23.527076055025972 31.15864766118553 4.614797425056409 0 -1 0 I I #
coedge $-1 $128 $128 $-1 $198 reversed $75 $-1 #
edge $-1 $199 0 $199 6.2831853071796004 $76 $200 forward 7 unknown #
vertex $-1 $79 $201 #
ellipse-curve $-1 -17.482270164749721 17.997363204973592 3.0761609560099816 0 0.71933980857756763 0.69465836192734942 1 0 0 1 I I #
face $-1 $-1 $95 $12 $-1 $202 reversed single #
loop $-1 $-1 $148 $80 #
plane-surface $-1 0 19.483207136373672 0 0 -1 0 0 0 -1 forward_v I I I I #
coedge $-1 $203 $146 $149 $204 forward $81 $-1 #
coedge $-1 $152 $83 $84 $140 reversed $50 $-1 #
coedge $-1 $146 $203 $83 $138 reversed $81 $-1 #
edge $-1 $153 -4.614797425056409 $205 4.614797425056409 $137 $206 forward 7 unknown #
coedge $-1 $85 $84 $203 $207 forward $33 $-1 #
edge $-1 $144 -48.587908566545607 $205 48.587908566545607 $136 $208 forward 7 unknown #
coedge $-1 $149 $148 $85 $142 reversed $133 $-1 #
edge $-1 $209 -48.587908566545607 $143 48.587908566545607 $141 $210 forward 7 unknown #
vertex $-1 $87 $211 #
vertex $-1 $155 $212 #
straight-curve $-1 48.587908566545607 0 -4.614797425056409 0 -1 0 I I #
coedge $-1 $135 $137 $88 $147 reversed $81 $-1 #
edge $-1 $150 -19.483207136373672 $153 19.483207136373672 $146 $213 forward 7 unknown #
coedge $-1 $141 $89 $94 $156 forward $133 $-1 #
coedge $-1 $89 $141 $135 $204 reversed $133 $-1 #
vertex $-1 $90 $214 #
straight-curve $-1 0 19.483207136373672 4.614797425056409 -1 0 0 I I #
coedge $-1 $91 $136 $93 $155 reversed $50 $-1 #
vertex $-1 $147 $215 #
straight-curve $-1 0 -19.483207136373672 4.614797425056409 1 0 0 I I #
edge $-1 $96 -4.614797425056409 $144 4.614797425056409 $93 $216 forward 7 unknown #
edge $-1 $97 -4.614797425056409 $143 4.614797425056409 $94 $217 forward 7 unknown #
point $-1 48.587908566545607 -19.483207136373672 4.614797425056409 #
point $-1 48.587908566545607 19.483207136373672 4.614797425056409 #
face $-1 $-1 $173 $13 $-1 $218 reversed single #
loop $-1 $-1 $169 $99 #
plane-surface $-1 0 0 4.614797425056409 0 0 1 1 0 0 forward_v I I I I #
coedge $-1 $219 $220 $163 $221 forward $100 $-1 #
coedge $-1 $103 $102 $162 $221 reversed $37 $-1 #
edge $-1 $222 -2.7330284631350423 $111 2.7330284631350423 $102 $223 forward 7 unknown #
coedge $-1 $224 $169 $103 $166 forward $160 $-1 #
edge $-1 $167 48.587908566545607 $225 54.053965492815692 $103 $226 forward 7 unknown #
vertex $-1 $166 $227 #
straight-curve $-1 -48.587908566545607 19.483207136373672 0 0 0 -1 I I #
coedge $-1 $165 $228 $105 $170 forward $160 $-1 #
edge $-1 $174 -19.483207136373672 $167 19.483207136373672 $169 $229 forward 7 unknown #
coedge $-1 $230 $106 $228 $231 reversed $173 $-1 #
coedge $-1 $106 $230 $108 $177 reversed $173 $-1 #
loop $-1 $-1 $106 $159 #
vertex $-1 $107 $232 #
straight-curve $-1 -48.587908566545607 -19.483207136373672 0 0 0 1 I I #
coedge $-1 $109 $108 $219 $233 forward $58 $-1 #
edge $-1 $110 -2.7330284631350423 $234 2.7330284631350423 $172 $235 forward 7 unknown #
point $-1 -48.587908566545607 -19.483207136373672 1.614797425056409 #
point $-1 -48.587908566545607 19.483207136373672 1.614797425056409 #
loop $-1 $-1 $121 $113 #
plane-surface $-1 0 19.483207136373672 0 0 -1 0 0 0 -1 forward_v I I I I #
coedge $-1 $183 $116 $118 $187 reversed $66 $-1 #
coedge $-1 $116 $182 $236 $237 reversed $66 $-1 #
coedge $-1 $124 $119 $116 $185 forward $114 $-1 #
edge $-1 $188 -14.647128387612014 $238 -11.675440524811858 $184 $239 forward 7 unknown #
coedge $-1 $118 $117 $191 $240 reversed $41 $-1 #
edge $-1 $241 -38.966414272747357 $188 -34.688501523586567 $182 $242 forward 7 unknown #
vertex $-1 $120 $243 #
straight-curve $-1 -8.7411350823748606 16.511519273573512 4.614797425056409 1 0 0 I I #
coedge $-1 $236 $121 $124 $195 reversed $180 $-1 #
coedge $-1 $121 $236 $186 $240 forward $180 $-1 #
vertex $-1 $122 $244 #
straight-curve $-1 -23.527076055025972 19.483207136373672 48.535805709750313 0 0 1 I I #
straight-curve $-1 -23.527076055025972 -7.5851383725154946 29.567617470875831 0 0.69465836192734942 -0.71933980857756763 I I #
edge $-1 $238 11.43746427447347 $125 23.527076055025972 $190 $245 forward 7 unknown #
point $-1 -23.527076055025972 19.483207136373672 4.614797425056409 #
point $-1 -23.527076055025972 16.511519273573516 4.6147974250564054 #
edge $-1 $246 1 $246 0 $128 $-1 forward 7 unknown #
vertex $-1 $129 $247 #
ellipse-curve $-1 -17.482270164749721 15.928956654957728 1.0787240163318634 0 0.71933980857756763 0.69465836192734942 1 0 0 1 I I #
point $-1 -16.482270164749721 17.997363204973592 3.0761609560099825 #
plane-surface $-1 48.587908566545607 0 0 -1 0 0 0 0 1 forward_v I I I I #
coedge $-1 $137 $135 $139 $207 reversed $81 $-1 #
edge $-1 $150 -4.614797425056409 $209 4.614797425056409 $149 $248 forward 7 unknown #
vertex $-1 $207 $249 #
straight-curve $-1 -48.587908566545607 -19.483207136373672 0 0 0 -1 I I #
edge $-1 $205 -19.483207136373672 $209 19.483207136373672 $203 $250 forward 7 unknown #
straight-curve $-1 0 -19.483207136373672 -4.614797425056409 -1 0 0 I I #
vertex $-1 $142 $251 #
straight-curve $-1 0 19.483207136373672 -4.614797425056409 1 0 0 I I #
point $-1 48.587908566545607 19.483207136373672 -4.614797425056409 #
point $-1 48.587908566545607 -19.483207136373672 -4.614797425056409 #
straight-curve $-1 -48.587908566545607 0 4.614797425056409 0 -1 0 I I #
point $-1 -48.587908566545607 19.483207136373672 4.614797425056409 #
point $-1 -48.587908566545607 -19.483207136373672 4.614797425056409 #
straight-curve $-1 48.587908566545607 -19.483207136373672 0 0 0 -1 I I #
straight-curve $-1 48.587908566545607 19.483207136373672 0 0 0 -1 I I #
plane-surface $-1 0 -19.483207136373672 0 0 1 0 0 0 1 forward_v I I I I #
coedge $-1 $252 $162 $176 $233 reversed $100 $-1 #
coedge $-1 $162 $252 $224 $253 reversed $100 $-1 #
edge $-1 $225 -1.5 $222 1.5 $163 $254 forward 7 unknown #
vertex $-1 $164 $255 #
straight-curve $-1 -51.32093702968065 19.483207136373672 1.614797425056409 1 0 0 I I #
coedge $-1 $228 $165 $220 $253 forward $160 $-1 #
vertex $-1 $166 $256 #
straight-curve $-1 0 19.483207136373672 4.614797425056409 -1 0 0 I I #
point $-1 -48.587908566545607 19.483207136373672 4.614797425056409 #
coedge $-1 $169 $224 $171 $231 forward $160 $-1 #
straight-curve $-1 -48.587908566545607 0 4.614797425056409 0 1 0 I I #
coedge $-1 $172 $171 $252 $257 forward $173 $-1 #
edge $-1 $258 -54.053965492815692 $174 -48.587908566545607 $171 $259 forward 7 unknown #
point $-1 -48.587908566545607 -19.483207136373672 4.614797425056409 #
edge $-1 $234 -19.483207136373672 $222 19.483207136373672 $219 $260 forward 7 unknown #
vertex $-1 $233 $261 #
straight-curve $-1 -51.32093702968065 -19.483207136373672 1.614797425056409 -1 0 0 I I #
coedge $-1 $191 $190 $183 $237 forward $180 $-1 #
edge $-1 $238 43.921008284693904 $241 46.998281222786765 $236 $262 forward 7 unknown #
vertex $-1 $195 $263 #
straight-curve $-1 -11.43746427447347 31.15864766118553 4.614797425056409 0 1 0 I I #
edge $-1 $241 2.6963291920986094 $192 14.785940972651112 $191 $264 forward 7 unknown #
vertex $-1 $240 $265 #
straight-curve $-1 -11.43746427447347 -7.5851383725154946 29.567617470875831 0 -0.69465836192734942 0.71933980857756763 I I #
point $-1 -11.43746427447347 16.511519273573516 4.6147974250564054 #
point $-1 -23.527076055025972 19.483207136373675 1.537524486963548 #
straight-curve $-1 0 19.483207136373672 4.614797425056409 -1 0 0 I I #
vertex $-1 $198 $266 #
point $-1 -16.482270164749721 15.928956654957728 1.0787240163318634 #
straight-curve $-1 -48.587908566545607 19.483207136373672 0 0 0 -1 I I #
point $-1 -48.587908566545607 -19.483207136373672 -4.614797425056409 #
straight-curve $-1 -48.587908566545607 0 -4.614797425056409 0 1 0 I I #
point $-1 -48.587908566545607 19.483207136373672 -4.614797425056409 #
coedge $-1 $220 $219 $230 $257 reversed $100 $-1 #
edge $-1 $225 -19.483207136373672 $258 19.483207136373672 $220 $267 forward 7 unknown #
straight-curve $-1 -54.053965492815692 19.483207136373672 3.114797425056409 0 0 -1 I I #
point $-1 -54.053965492815692 19.483207136373672 1.614797425056409 #
point $-1 -54.053965492815692 19.483207136373672 4.614797425056409 #
edge $-1 $258 -1.5 $234 1.5 $252 $268 forward 7 unknown #
vertex $-1 $253 $269 #
straight-curve $-1 0 -19.483207136373672 4.614797425056409 1 0 0 I I #
straight-curve $-1 -54.053965492815692 0 1.614797425056409 0 1 0 I I #
point $-1 -54.053965492815692 -19.483207136373672 1.614797425056409 #
straight-curve $-1 -11.43746427447347 19.483207136373672 48.535805709750313 0 0 -1 I I #
point $-1 -11.43746427447347 19.483207136373672 4.614797425056409 #
straight-curve $-1 -8.7411350823748606 19.483207136373672 1.537524486963548 -1 0 0 I I #
point $-1 -11.43746427447347 19.483207136373675 1.537524486963548 #
point $-1 -17.482270164749721 15.209616846380159 0.38406565440451401 #
straight-curve $-1 -54.053965492815692 0 4.614797425056409 0 -1 0 I I #
straight-curve $-1 -54.053965492815692 -19.483207136373672 3.114797425056409 0 0 -1 I I #
point $-1 -54.053965492815692 -19.483207136373672 4.614797425056409 #
End-of-ACIS-data 