500 0 5 0           
7 Unknown 11 ACIS 5.0 NT 24 Fri Mar 26 17:12:02 1999 
-1 9.9999999999999995e-007 1e-010 
body $-1 $5 $-1 $6 #
body $-1 $7 $-1 $8 #
body $-1 $9 $-1 $10 #
body $-1 $11 $-1 $12 #
body $-1 $13 $-1 $14 #
lump $-1 $-1 $15 $0 #
transform $-1 1 0 0 0 1 0 0 0 1 53.874935148167367 37.502821307065297 14.820636109113414 1 rotate no_reflect no_shear #
lump $-1 $-1 $16 $1 #
transform $-1 1 0 0 0 1 0 0 0 1 53.874935148167367 37.502821307065297 14.820636109113414 1 rotate no_reflect no_shear #
lump $-1 $-1 $17 $2 #
transform $-1 1 0 0 0 1 0 0 0 1 53.874935148167367 37.502821307065297 14.820636109113414 1 rotate no_reflect no_shear #
lump $-1 $-1 $18 $3 #
transform $-1 1 0 0 0 1 0 0 0 1 53.874935148167367 37.502821307065297 14.820636109113414 1 rotate no_reflect no_shear #
lump $-1 $-1 $19 $4 #
transform $-1 1 0 0 0 1 0 0 0 1 53.874935148167367 37.502821307065297 14.820636109113414 1 rotate no_reflect no_shear #
shell $-1 $-1 $-1 $20 $-1 $5 #
shell $-1 $-1 $-1 $21 $-1 $7 #
shell $-1 $-1 $-1 $22 $-1 $9 #
shell $-1 $-1 $-1 $23 $-1 $11 #
shell $-1 $-1 $-1 $24 $-1 $13 #
face $-1 $25 $26 $15 $-1 $27 forward single #
face $-1 $28 $29 $16 $-1 $30 reversed single #
face $-1 $31 $32 $17 $-1 $33 forward single #
face $-1 $34 $35 $18 $-1 $36 reversed single #
face $-1 $37 $38 $19 $-1 $39 forward single #
face $-1 $40 $41 $15 $-1 $42 reversed single #
loop $-1 $-1 $43 $20 #
plane-surface $-1 0 0 14.820636109113414 0 0 1 1 0 0 forward_v I I I I #
face $-1 $44 $45 $16 $-1 $46 reversed single #
loop $-1 $-1 $47 $21 #
plane-surface $-1 -32.177936854857634 -30.500928857032235 66.728597086417906 0.6018150307709319 0 0.79863550430605224 0.79863550430605224 0 -0.6018150307709319 forward_v I I I I #
face $-1 $48 $49 $17 $-1 $50 forward single #
loop $-1 $51 $52 $22 #
cone-surface $-1 44.471686837114717 -30.500928857032235 7.2651445267480064 -0.6018150307709319 0 -0.79863550430605224 1.5972710086121045 0 -1.2036300615418638 1 I I 0 1 2 forward I I I I #
face $-1 $53 $54 $18 $-1 $55 reversed single #
loop $-1 $-1 $56 $23 #
plane-surface $-1 32.667554653094982 -1.7763568394002505e-015 152.78146908944291 0 1 0 0.6018150307709319 0 0.79863550430605224 forward_v I I I I #
face $-1 $57 $58 $19 $-1 $59 forward single #
loop $-1 $60 $61 $24 #
cone-surface $-1 44.471686837114717 7.0018924500330613 7.2651445267480064 -0.6018150307709319 0 -0.79863550430605224 1.5972710086121045 0 -1.2036300615418638 1 I I 0 1 2 forward I I I I #
face $-1 $62 $63 $15 $-1 $64 reversed single #
loop $-1 $-1 $65 $25 #
plane-surface $-1 0 0 -14.820636109113414 0 0 1 1 0 0 forward_v I I I I #
coedge $-1 $66 $67 $68 $69 forward $26 $-1 #
face $-1 $70 $71 $16 $-1 $72 forward single #
loop $-1 $-1 $73 $28 #
plane-surface $-1 32.667554653094982 -23.499036406999174 152.78146908944291 0 -1 0 -0.6018150307709319 0 -0.79863550430605224 forward_v I I I I #
coedge $-1 $74 $75 $76 $77 reversed $29 $-1 #
face $-1 $-1 $78 $17 $-1 $79 forward single #
loop $-1 $80 $81 $31 #
cone-surface $-1 43.050964772529781 -30.500928857032235 5.3797827054006024 -0.6018150307709319 0 -0.79863550430605224 0.79863550430605224 0 -0.6018150307709319 1 I I -0.70710678118654746 0.70710678118654746 1 forward I I I I #
loop $-1 $-1 $82 $22 #
coedge $-1 $52 $52 $83 $84 reversed $32 $-1 #
face $-1 $85 $86 $18 $-1 $87 reversed single #
loop $-1 $-1 $88 $34 #
plane-surface $-1 -32.177936854857634 7.0018924500330613 66.728597086417906 0.6018150307709319 0 0.79863550430605224 0.79863550430605224 0 -0.6018150307709319 forward_v I I I I #
coedge $-1 $89 $90 $91 $92 reversed $35 $-1 #
face $-1 $-1 $93 $19 $-1 $94 forward single #
loop $-1 $95 $96 $37 #
cone-surface $-1 43.050964772529781 7.0018924500330613 5.3797827054006024 -0.6018150307709319 0 -0.79863550430605224 0.79863550430605224 0 -0.6018150307709319 1 I I -0.70710678118654746 0.70710678118654746 1 forward I I I I #
loop $-1 $-1 $97 $24 #
coedge $-1 $61 $61 $98 $99 reversed $38 $-1 #
face $-1 $100 $101 $15 $-1 $102 reversed single #
loop $-1 $-1 $103 $40 #
plane-surface $-1 0 -37.502821307065297 0 0 1 0 0 0 1 forward_v I I I I #
coedge $-1 $104 $105 $106 $107 forward $41 $-1 #
coedge $-1 $108 $43 $109 $110 forward $26 $-1 #
coedge $-1 $43 $108 $111 $112 forward $26 $-1 #
coedge $-1 $113 $114 $43 $69 reversed $115 $-1 #
edge $-1 $116 -37.502821307065297 $117 37.502821307065297 $68 $118 forward 7 unknown #
face $-1 $119 $120 $16 $-1 $121 reversed single #
loop $-1 $-1 $122 $44 #
plane-surface $-1 0 0 14.820636109113414 0 0 1 1 0 0 forward_v I I I I #
coedge $-1 $123 $124 $125 $126 reversed $45 $-1 #
coedge $-1 $127 $47 $128 $129 reversed $29 $-1 #
coedge $-1 $47 $127 $123 $130 forward $29 $-1 #
coedge $-1 $125 $131 $47 $77 forward $132 $-1 #
edge $-1 $133 -22.252356878549179 $134 -8.2485719784830565 $76 $135 forward 7 unknown #
loop $-1 $-1 $83 $48 #
plane-surface $-1 -32.177936854857634 -30.500928857032235 66.728597086417906 0.6018150307709319 0 0.79863550430605224 0.79863550430605224 0 -0.6018150307709319 forward_v I I I I #
loop $-1 $-1 $136 $31 #
coedge $-1 $81 $81 $82 $137 reversed $49 $-1 #
coedge $-1 $82 $82 $81 $137 forward $51 $-1 #
coedge $-1 $83 $83 $52 $84 forward $78 $-1 #
edge $-1 $138 0 $138 6.2831853071796004 $83 $139 forward 7 unknown #
face $-1 $140 $141 $18 $-1 $142 forward single #
loop $-1 $-1 $143 $53 #
plane-surface $-1 32.667554653094982 14.003784900066124 152.78146908944291 0 -1 0 -0.6018150307709319 0 -0.79863550430605224 forward_v I I I I #
coedge $-1 $144 $145 $146 $147 reversed $54 $-1 #
coedge $-1 $90 $56 $148 $149 reversed $35 $-1 #
coedge $-1 $56 $89 $144 $150 reversed $35 $-1 #
coedge $-1 $146 $151 $56 $92 forward $152 $-1 #
edge $-1 $153 61.570098435608038 $154 74.507628966256149 $91 $155 forward 7 unknown #
loop $-1 $-1 $98 $57 #
plane-surface $-1 -32.177936854857634 7.0018924500330613 66.728597086417906 0.6018150307709319 0 0.79863550430605224 0.79863550430605224 0 -0.6018150307709319 forward_v I I I I #
loop $-1 $-1 $156 $37 #
coedge $-1 $96 $96 $97 $157 reversed $58 $-1 #
coedge $-1 $97 $97 $96 $157 forward $60 $-1 #
coedge $-1 $98 $98 $61 $99 forward $93 $-1 #
edge $-1 $158 0 $158 6.2831853071796004 $98 $159 forward 7 unknown #
face $-1 $160 $161 $15 $-1 $162 reversed single #
loop $-1 $-1 $163 $62 #
plane-surface $-1 -53.874935148167367 0 0 1 0 0 0 0 -1 forward_v I I I I #
coedge $-1 $164 $111 $165 $166 forward $63 $-1 #
coedge $-1 $167 $65 $164 $168 forward $41 $-1 #
coedge $-1 $65 $167 $169 $170 forward $41 $-1 #
coedge $-1 $114 $113 $65 $107 reversed $115 $-1 #
edge $-1 $171 -37.502821307065297 $172 37.502821307065297 $106 $173 forward 7 unknown #
coedge $-1 $67 $66 $174 $175 forward $26 $-1 #
coedge $-1 $176 $177 $66 $110 reversed $161 $-1 #
edge $-1 $117 -53.874935148167367 $178 53.874935148167367 $109 $179 forward 7 unknown #
coedge $-1 $103 $180 $67 $112 reversed $63 $-1 #
edge $-1 $181 -53.874935148167367 $116 53.874935148167367 $111 $182 forward 7 unknown #
coedge $-1 $106 $68 $180 $183 forward $115 $-1 #
coedge $-1 $68 $106 $176 $184 reversed $115 $-1 #
loop $-1 $-1 $113 $160 #
vertex $-1 $69 $185 #
vertex $-1 $69 $186 #
straight-curve $-1 53.874935148167367 0 14.820636109113414 0 1 0 I I #
face $-1 $-1 $132 $16 $-1 $187 reversed single #
loop $-1 $-1 $128 $70 #
plane-surface $-1 0 -37.502821307065297 0 0 1 0 0 0 1 forward_v I I I I #
coedge $-1 $188 $189 $124 $190 forward $71 $-1 #
coedge $-1 $124 $73 $75 $130 reversed $45 $-1 #
coedge $-1 $73 $123 $122 $190 reversed $45 $-1 #
coedge $-1 $191 $76 $73 $126 forward $132 $-1 #
edge $-1 $134 -74.507628966256149 $192 -61.570098435608038 $125 $193 forward 7 unknown #
coedge $-1 $75 $74 $188 $194 reversed $29 $-1 #
coedge $-1 $195 $196 $74 $129 forward $120 $-1 #
edge $-1 $197 53.323992743531761 $133 74.821512528099106 $128 $198 forward 7 unknown #
edge $-1 $199 86.252350511767375 $134 107.74987029633473 $123 $200 forward 7 unknown #
coedge $-1 $76 $191 $195 $201 forward $132 $-1 #
loop $-1 $-1 $125 $119 #
vertex $-1 $129 $202 #
vertex $-1 $77 $203 #
straight-curve $-1 53.874935148167367 -15.250464428516118 1.8831055784653117 0 1 0 I I #
coedge $-1 $136 $136 $-1 $204 reversed $80 $-1 #
edge $-1 $205 0 $205 6.2831853071796004 $81 $206 forward 7 unknown #
vertex $-1 $84 $207 #
ellipse-curve $-1 45.290593870928731 -30.500928857032235 8.3518708437893672 0.6018150307709319 0 0.79863550430605224 1.5972710086121045 0 -1.2036300615418638 1 I I #
face $-1 $-1 $152 $18 $-1 $208 reversed single #
loop $-1 $-1 $209 $85 #
plane-surface $-1 0 0 14.820636109113414 0 0 1 1 0 0 forward_v I I I I #
coedge $-1 $210 $211 $212 $213 reversed $86 $-1 #
coedge $-1 $214 $88 $90 $150 forward $54 $-1 #
coedge $-1 $88 $214 $210 $215 forward $54 $-1 #
coedge $-1 $212 $91 $88 $147 forward $152 $-1 #
edge $-1 $154 -3.5009462250165324 $216 10.502838675049594 $146 $217 forward 7 unknown #
coedge $-1 $218 $219 $89 $149 forward $141 $-1 #
edge $-1 $220 20.37247526714259 $153 37.541157821619876 $148 $221 forward 7 unknown #
edge $-1 $154 -107.74987029633473 $220 -86.252350511767375 $90 $222 forward 7 unknown #
coedge $-1 $91 $212 $218 $223 reversed $152 $-1 #
loop $-1 $-1 $212 $140 #
vertex $-1 $223 $224 #
vertex $-1 $92 $225 #
straight-curve $-1 53.874935148167367 -1.7763568394002505e-015 76.390734544721454 0 0 -1 I I #
coedge $-1 $156 $156 $-1 $226 reversed $95 $-1 #
edge $-1 $227 0 $227 6.2831853071796004 $96 $228 forward 7 unknown #
vertex $-1 $99 $229 #
ellipse-curve $-1 45.290593870928731 7.0018924500330613 8.3518708437893672 0.6018150307709319 0 0.79863550430605224 1.5972710086121045 0 -1.2036300615418638 1 I I #
face $-1 $-1 $115 $15 $-1 $230 reversed single #
loop $-1 $-1 $176 $100 #
plane-surface $-1 0 37.502821307065297 0 0 -1 0 0 0 -1 forward_v I I I I #
coedge $-1 $231 $174 $177 $232 forward $101 $-1 #
coedge $-1 $180 $103 $104 $168 reversed $63 $-1 #
coedge $-1 $174 $231 $103 $166 reversed $101 $-1 #
edge $-1 $181 -14.820636109113414 $233 14.820636109113414 $165 $234 forward 7 unknown #
coedge $-1 $105 $104 $231 $235 forward $41 $-1 #
edge $-1 $172 -53.874935148167367 $233 53.874935148167367 $164 $236 forward 7 unknown #
coedge $-1 $177 $176 $105 $170 reversed $161 $-1 #
edge $-1 $237 -53.874935148167367 $171 53.874935148167367 $169 $238 forward 7 unknown #
vertex $-1 $107 $239 #
vertex $-1 $183 $240 #
straight-curve $-1 53.874935148167367 0 -14.820636109113414 0 -1 0 I I #
coedge $-1 $163 $165 $108 $175 reversed $101 $-1 #
edge $-1 $178 -37.502821307065297 $181 37.502821307065297 $174 $241 forward 7 unknown #
coedge $-1 $169 $109 $114 $184 forward $161 $-1 #
coedge $-1 $109 $169 $163 $232 reversed $161 $-1 #
vertex $-1 $110 $242 #
straight-curve $-1 0 37.502821307065297 14.820636109113414 -1 0 0 I I #
coedge $-1 $111 $164 $113 $183 reversed $63 $-1 #
vertex $-1 $175 $243 #
straight-curve $-1 0 -37.502821307065297 14.820636109113414 1 0 0 I I #
edge $-1 $116 -14.820636109113414 $172 14.820636109113414 $113 $244 forward 7 unknown #
edge $-1 $117 -14.820636109113414 $171 14.820636109113414 $114 $245 forward 7 unknown #
point $-1 53.874935148167367 -37.502821307065297 14.820636109113414 #
point $-1 53.874935148167367 37.502821307065297 14.820636109113414 #
plane-surface $-1 53.874935148167367 0 0 -1 0 0 0 0 1 forward_v I I I I #
coedge $-1 $246 $122 $127 $194 forward $71 $-1 #
coedge $-1 $122 $246 $191 $247 forward $71 $-1 #
edge $-1 $192 -37.541157821619876 $199 -20.37247526714259 $122 $248 forward 7 unknown #
coedge $-1 $131 $125 $189 $247 reversed $132 $-1 #
vertex $-1 $126 $249 #
straight-curve $-1 53.874935148167367 -23.499036406999174 76.390734544721454 0 0 1 I I #
edge $-1 $199 8.2485719784830565 $197 22.252356878549179 $188 $250 forward 7 unknown #
coedge $-1 $196 $128 $131 $201 reversed $120 $-1 #
coedge $-1 $128 $195 $246 $251 reversed $120 $-1 #
vertex $-1 $251 $252 #
straight-curve $-1 -5.8801812426526681 -37.502821307065297 46.911816442890938 0.79863550430605224 0 -0.6018150307709319 I I #
vertex $-1 $194 $253 #
straight-curve $-1 -32.177936854857634 -23.499036406999174 66.728597086417906 0.79863550430605224 0 -0.6018150307709319 I I #
edge $-1 $254 -14.820636109113414 $133 -1.8831055784653106 $131 $255 forward 7 unknown #
point $-1 53.874935148167367 -37.502821307065297 1.8831055784653106 #
point $-1 53.874935148167367 -23.499036406999174 1.8831055784653046 #
edge $-1 $256 1 $256 0 $136 $-1 forward 7 unknown #
vertex $-1 $137 $257 #
ellipse-curve $-1 43.65277980330071 -30.500928857032235 6.1784182097066545 0.6018150307709319 0 0.79863550430605224 1.5972710086121045 0 -1.2036300615418638 1 I I #
point $-1 46.887864879540828 -30.500928857032235 7.1482407822474938 #
plane-surface $-1 53.874935148167367 0 0 -1 0 0 0 0 1 forward_v I I I I #
coedge $-1 $219 $218 $211 $258 forward $141 $-1 #
coedge $-1 $211 $143 $145 $215 reversed $86 $-1 #
coedge $-1 $143 $210 $209 $258 reversed $86 $-1 #
coedge $-1 $151 $146 $143 $213 forward $152 $-1 #
edge $-1 $216 -74.507628966256149 $259 -61.570098435608038 $212 $260 forward 7 unknown #
coedge $-1 $145 $144 $219 $261 reversed $54 $-1 #
edge $-1 $262 86.252350511767375 $216 107.74987029633473 $210 $263 forward 7 unknown #
vertex $-1 $147 $264 #
straight-curve $-1 53.874935148167367 3.5009462250165306 1.8831055784653117 0 1 0 I I #
coedge $-1 $209 $148 $151 $223 forward $141 $-1 #
coedge $-1 $148 $209 $214 $261 forward $141 $-1 #
vertex $-1 $149 $265 #
straight-curve $-1 16.333777326547491 -1.7763568394002505e-015 14.820636109113408 1 0 0 I I #
straight-curve $-1 -32.177936854857634 -1.7763568394002505e-015 66.728597086417906 -0.79863550430605224 0 0.6018150307709319 I I #
edge $-1 $153 -1.7763568394002505e-015 $259 14.003784900066124 $151 $266 forward 7 unknown #
point $-1 53.874935148167367 -1.7763568394002505e-015 14.820636109113414 #
point $-1 53.874935148167367 -1.7763568394002505e-015 1.8831055784653046 #
edge $-1 $267 1 $267 0 $156 $-1 forward 7 unknown #
vertex $-1 $157 $268 #
ellipse-curve $-1 43.65277980330071 7.0018924500330613 6.1784182097066545 0.6018150307709319 0 0.79863550430605224 1.5972710086121045 0 -1.2036300615418638 1 I I #
point $-1 46.887864879540828 7.0018924500330613 7.1482407822474938 #
plane-surface $-1 53.874935148167367 0 0 -1 0 0 0 0 1 forward_v I I I I #
coedge $-1 $165 $163 $167 $235 reversed $101 $-1 #
edge $-1 $178 -14.820636109113414 $237 14.820636109113414 $177 $269 forward 7 unknown #
vertex $-1 $235 $270 #
straight-curve $-1 -53.874935148167367 -37.502821307065297 0 0 0 -1 I I #
edge $-1 $233 -37.502821307065297 $237 37.502821307065297 $231 $271 forward 7 unknown #
straight-curve $-1 0 -37.502821307065297 -14.820636109113414 -1 0 0 I I #
vertex $-1 $170 $272 #
straight-curve $-1 0 37.502821307065297 -14.820636109113414 1 0 0 I I #
point $-1 53.874935148167367 37.502821307065297 -14.820636109113414 #
point $-1 53.874935148167367 -37.502821307065297 -14.820636109113414 #
straight-curve $-1 -53.874935148167367 0 14.820636109113414 0 -1 0 I I #
point $-1 -53.874935148167367 37.502821307065297 14.820636109113414 #
point $-1 -53.874935148167367 -37.502821307065297 14.820636109113414 #
straight-curve $-1 53.874935148167367 -37.502821307065297 0 0 0 -1 I I #
straight-curve $-1 53.874935148167367 37.502821307065297 0 0 0 -1 I I #
coedge $-1 $189 $188 $196 $251 forward $71 $-1 #
edge $-1 $254 -37.502821307065297 $192 -23.499036406999174 $191 $273 forward 7 unknown #
straight-curve $-1 16.333777326547491 -23.499036406999174 14.820636109113408 -1 0 0 I I #
point $-1 53.874935148167367 -23.499036406999174 14.820636109113414 #
straight-curve $-1 36.706252593690081 -15.250464428516118 14.820636109113416 0 -1 0 I I #
edge $-1 $197 36.706252593690081 $254 53.874935148167367 $196 $274 forward 7 unknown #
point $-1 36.706252593690081 -37.502821307065297 14.820636109113423 #
point $-1 36.706252593690081 -23.499036406999174 14.820636109113423 #
vertex $-1 $247 $275 #
straight-curve $-1 53.874935148167367 -37.502821307065297 0 0 0 -1 I I #
vertex $-1 $204 $276 #
point $-1 45.250050811912814 -30.500928857032235 4.9747881481647909 #
edge $-1 $259 -37.541157821619876 $262 -20.37247526714259 $209 $277 forward 7 unknown #
vertex $-1 $213 $278 #
straight-curve $-1 53.874935148167367 14.003784900066124 76.390734544721454 0 0 1 I I #
edge $-1 $262 -10.502838675049594 $220 3.5009462250165324 $219 $279 forward 7 unknown #
vertex $-1 $261 $280 #
straight-curve $-1 -32.177936854857634 14.003784900066124 66.728597086417906 0.79863550430605224 0 -0.6018150307709319 I I #
point $-1 53.874935148167367 14.003784900066124 1.8831055784653046 #
point $-1 36.706252593690081 -1.7763568394002505e-015 14.820636109113423 #
straight-curve $-1 53.874935148167367 0 14.820636109113414 0 1 0 I I #
vertex $-1 $226 $281 #
point $-1 45.250050811912814 7.0018924500330613 4.9747881481647909 #
straight-curve $-1 -53.874935148167367 37.502821307065297 0 0 0 -1 I I #
point $-1 -53.874935148167367 -37.502821307065297 -14.820636109113414 #
straight-curve $-1 -53.874935148167367 0 -14.820636109113414 0 1 0 I I #
point $-1 -53.874935148167367 37.502821307065297 -14.820636109113414 #
straight-curve $-1 53.874935148167367 0 14.820636109113414 0 1 0 I I #
straight-curve $-1 0 -37.502821307065297 14.820636109113414 1 0 0 I I #
point $-1 53.874935148167367 -37.502821307065297 14.820636109113414 #
point $-1 42.449149741758852 -30.500928857032235 4.5811472010945504 #
straight-curve $-1 16.333777326547491 14.003784900066124 14.820636109113408 -1 0 0 I I #
point $-1 53.874935148167367 14.003784900066124 14.820636109113414 #
straight-curve $-1 36.706252593690081 3.5009462250165306 14.820636109113416 0 -1 0 I I #
point $-1 36.706252593690081 14.003784900066124 14.820636109113423 #
point $-1 42.449149741758852 7.0018924500330613 4.5811472010945504 #
End-of-ACIS-data 