500 0 14 0           
7 Unknown 11 ACIS 5.0 NT 24 Thu Mar 25 19:22:40 1999 
-1 9.9999999999999995e-007 1e-010 
body $-1 $14 $-1 $15 #
body $-1 $16 $-1 $17 #
body $-1 $18 $-1 $19 #
body $-1 $20 $-1 $21 #
body $-1 $22 $-1 $23 #
body $-1 $24 $-1 $25 #
body $-1 $26 $-1 $27 #
body $-1 $28 $-1 $29 #
body $-1 $30 $-1 $31 #
body $-1 $32 $-1 $33 #
body $-1 $34 $-1 $35 #
body $-1 $36 $-1 $37 #
body $-1 $38 $-1 $39 #
body $-1 $40 $-1 $41 #
lump $-1 $-1 $42 $0 #
transform $-1 1 0 0 0 1 0 0 0 1 68.897366252632224 34.283835764207694 16.907443942019039 1 rotate no_reflect no_shear #
lump $-1 $-1 $43 $1 #
transform $-1 1 0 0 0 1 0 0 0 1 68.897366252632224 34.283835764207694 16.907443942019039 1 rotate no_reflect no_shear #
lump $-1 $-1 $44 $2 #
transform $-1 1 0 0 0 1 0 0 0 1 68.897366252632224 34.283835764207694 16.907443942019039 1 rotate no_reflect no_shear #
lump $-1 $-1 $45 $3 #
transform $-1 1 0 0 0 1 0 0 0 1 68.897366252632224 34.283835764207694 16.907443942019039 1 rotate no_reflect no_shear #
lump $-1 $-1 $46 $4 #
transform $-1 1 0 0 0 1 0 0 0 1 68.897366252632224 34.283835764207694 16.907443942019039 1 rotate no_reflect no_shear #
lump $-1 $-1 $47 $5 #
transform $-1 1 0 0 0 1 0 0 0 1 68.897366252632224 34.283835764207694 16.907443942019039 1 rotate no_reflect no_shear #
lump $-1 $-1 $48 $6 #
transform $-1 1 0 0 0 1 0 0 0 1 68.897366252632224 34.283835764207694 16.907443942019039 1 rotate no_reflect no_shear #
lump $-1 $-1 $49 $7 #
transform $-1 1 0 0 0 1 0 0 0 1 68.897366252632224 34.283835764207694 16.907443942019039 1 rotate no_reflect no_shear #
lump $-1 $-1 $50 $8 #
transform $-1 1 0 0 0 1 0 0 0 1 68.897366252632224 34.283835764207694 16.907443942019039 1 rotate no_reflect no_shear #
lump $-1 $-1 $51 $9 #
transform $-1 1 0 0 0 1 0 0 0 1 68.897366252632224 34.283835764207694 16.907443942019039 1 rotate no_reflect no_shear #
lump $-1 $-1 $52 $10 #
transform $-1 1 0 0 0 1 0 0 0 1 68.897366252632224 34.283835764207694 16.907443942019039 1 rotate no_reflect no_shear #
lump $-1 $-1 $53 $11 #
transform $-1 1 0 0 0 1 0 0 0 1 68.897366252632224 34.283835764207694 16.907443942019039 1 rotate no_reflect no_shear #
lump $-1 $-1 $54 $12 #
transform $-1 1 0 0 0 1 0 0 0 1 68.897366252632224 34.283835764207694 16.907443942019039 1 rotate no_reflect no_shear #
lump $-1 $-1 $55 $13 #
transform $-1 1 0 0 0 1 0 0 0 1 68.897366252632224 34.283835764207694 16.907443942019039 1 rotate no_reflect no_shear #
shell $-1 $-1 $-1 $56 $-1 $14 #
shell $-1 $-1 $-1 $57 $-1 $16 #
shell $-1 $-1 $-1 $58 $-1 $18 #
shell $-1 $-1 $-1 $59 $-1 $20 #
shell $-1 $-1 $-1 $60 $-1 $22 #
shell $-1 $-1 $-1 $61 $-1 $24 #
shell $-1 $-1 $-1 $62 $-1 $26 #
shell $-1 $-1 $-1 $63 $-1 $28 #
shell $-1 $-1 $-1 $64 $-1 $30 #
shell $-1 $-1 $-1 $65 $-1 $32 #
shell $-1 $-1 $-1 $66 $-1 $34 #
shell $-1 $-1 $-1 $67 $-1 $36 #
shell $-1 $-1 $-1 $68 $-1 $38 #
shell $-1 $-1 $-1 $69 $-1 $40 #
face $-1 $70 $71 $42 $-1 $72 forward single #
face $-1 $73 $74 $43 $-1 $75 forward single #
face $-1 $76 $77 $44 $-1 $78 reversed single #
face $-1 $79 $80 $45 $-1 $81 forward single #
face $-1 $82 $83 $46 $-1 $84 forward single #
face $-1 $85 $86 $47 $-1 $87 reversed single #
face $-1 $88 $89 $48 $-1 $90 forward single #
face $-1 $91 $92 $49 $-1 $93 forward single #
face $-1 $94 $95 $50 $-1 $96 reversed single #
face $-1 $97 $98 $51 $-1 $99 forward single #
face $-1 $100 $101 $52 $-1 $102 forward single #
face $-1 $103 $104 $53 $-1 $105 reversed single #
face $-1 $106 $107 $54 $-1 $108 forward single #
face $-1 $109 $110 $55 $-1 $111 forward single #
face $-1 $112 $113 $42 $-1 $114 reversed single #
loop $-1 $-1 $115 $56 #
plane-surface $-1 0 0 16.907443942019039 0 0 1 1 0 0 forward_v I I I I #
face $-1 $116 $117 $43 $-1 $118 reversed single #
loop $-1 $-1 $119 $57 #
plane-surface $-1 -61.373009328996247 0 6.7512857573510683 0 0 1 1 0 0 forward_v I I I I #
face $-1 $120 $121 $44 $-1 $122 reversed single #
loop $-1 $-1 $123 $58 #
plane-surface $-1 -48.450148013780904 105.4590518879058 142.86786710653988 1 0 0 0 -0.80901700255871778 -0.5877852410284794 forward_v I I I I #
face $-1 $124 $125 $45 $-1 $126 forward single #
loop $-1 $127 $128 $59 #
cone-surface $-1 -43.423570408905533 29.011312640472067 10.596672500702848 0 -0.80901700255871778 -0.5877852410284794 1.5 0 0 1 I I 0 1 1.5 forward I I I I #
face $-1 $129 $130 $46 $-1 $131 forward single #
loop $-1 $132 $133 $60 #
cone-surface $-1 -35.883704001592484 29.011312640472067 10.596672500702848 0 -0.80901700255871778 -0.5877852410284794 1.5 0 0 1 I I 0 1 1.5 forward I I I I #
face $-1 $134 $135 $47 $-1 $136 reversed single #
loop $-1 $-1 $137 $61 #
plane-surface $-1 -17.763643349282781 105.4590518879058 142.86786710653988 1 0 0 0 -0.80901700255871778 -0.5877852410284794 forward_v I I I I #
face $-1 $138 $139 $48 $-1 $140 forward single #
loop $-1 $141 $142 $62 #
cone-surface $-1 -12.73706574440741 29.011312640472067 10.596672500702848 0 -0.80901700255871778 -0.5877852410284794 1.5 0 0 1 I I 0 1 1.5 forward I I I I #
face $-1 $143 $144 $49 $-1 $145 forward single #
loop $-1 $146 $147 $63 #
cone-surface $-1 -5.1971993370943608 29.011312640472067 10.596672500702848 0 -0.80901700255871778 -0.5877852410284794 1.5 0 0 1 I I 0 1 1.5 forward I I I I #
face $-1 $148 $149 $50 $-1 $150 reversed single #
loop $-1 $-1 $151 $64 #
plane-surface $-1 12.922861315215345 105.4590518879058 142.86786710653988 1 0 0 0 -0.80901700255871778 -0.5877852410284794 forward_v I I I I #
face $-1 $152 $153 $51 $-1 $154 forward single #
loop $-1 $155 $156 $65 #
cone-surface $-1 17.949438920090714 29.011312640472067 10.596672500702848 0 -0.80901700255871778 -0.5877852410284794 1.5 0 0 1 I I 0 1 1.5 forward I I I I #
face $-1 $157 $158 $52 $-1 $159 forward single #
loop $-1 $160 $161 $66 #
cone-surface $-1 25.48930532740377 29.011312640472067 10.596672500702848 0 -0.80901700255871778 -0.5877852410284794 1.5 0 0 1 I I 0 1 1.5 forward I I I I #
face $-1 $162 $163 $53 $-1 $164 reversed single #
loop $-1 $-1 $165 $67 #
plane-surface $-1 43.609365979713473 105.4590518879058 142.86786710653988 1 0 0 0 -0.80901700255871778 -0.5877852410284794 forward_v I I I I #
face $-1 $166 $167 $54 $-1 $168 forward single #
loop $-1 $169 $170 $68 #
cone-surface $-1 48.63594358458883 29.011312640472067 10.596672500702848 0 -0.80901700255871778 -0.5877852410284794 1.5 0 0 1 I I 0 1 1.5 forward I I I I #
face $-1 $171 $172 $55 $-1 $173 forward single #
loop $-1 $174 $175 $69 #
cone-surface $-1 56.1758099919019 29.011312640472067 10.596672500702848 0 -0.80901700255871778 -0.5877852410284794 1.5 0 0 1 I I 0 1 1.5 forward I I I I #
face $-1 $176 $177 $42 $-1 $178 reversed single #
loop $-1 $-1 $179 $70 #
plane-surface $-1 0 0 -16.907443942019039 0 0 1 1 0 0 forward_v I I I I #
coedge $-1 $180 $181 $182 $183 forward $71 $-1 #
face $-1 $184 $185 $43 $-1 $186 reversed single #
loop $-1 $-1 $187 $73 #
plane-surface $-1 -61.373009328996247 0 -1.5019741032585241 0 0 1 1 0 0 forward_v I I I I #
coedge $-1 $188 $189 $190 $191 forward $74 $-1 #
face $-1 $192 $193 $44 $-1 $194 reversed single #
loop $-1 $-1 $195 $76 #
plane-surface $-1 -39.653637205249012 -6.0192295718835567 61.874157048478168 0 0.80901700255871778 0.5877852410284794 1 0 0 forward_v I I I I #
coedge $-1 $196 $197 $198 $199 reversed $77 $-1 #
face $-1 $-1 $200 $45 $-1 $201 forward single #
loop $-1 $202 $203 $79 #
cone-surface $-1 -43.423570408905533 26.948445202911934 9.0979116215604101 0 -0.80901700255871778 -0.5877852410284794 0.75 0 0 1 I I -0.70710678118654757 0.70710678118654757 0.75 forward I I I I #
loop $-1 $-1 $204 $59 #
coedge $-1 $128 $128 $205 $206 reversed $80 $-1 #
face $-1 $-1 $207 $46 $-1 $208 forward single #
loop $-1 $209 $210 $82 #
cone-surface $-1 -35.883704001592484 26.948445202911934 9.0979116215604101 0 -0.80901700255871778 -0.5877852410284794 0.75 0 0 1 I I -0.70710678118654757 0.70710678118654757 0.75 forward I I I I #
loop $-1 $-1 $211 $60 #
coedge $-1 $133 $133 $212 $213 reversed $83 $-1 #
face $-1 $214 $215 $47 $-1 $216 reversed single #
loop $-1 $-1 $217 $85 #
plane-surface $-1 -8.9671325407508888 -6.0192295718835567 61.874157048478168 0 0.80901700255871778 0.5877852410284794 1 0 0 forward_v I I I I #
coedge $-1 $218 $219 $220 $221 reversed $86 $-1 #
face $-1 $-1 $222 $48 $-1 $223 forward single #
loop $-1 $224 $225 $88 #
cone-surface $-1 -12.73706574440741 26.948445202911934 9.0979116215604101 0 -0.80901700255871778 -0.5877852410284794 0.75 0 0 1 I I -0.70710678118654757 0.70710678118654757 0.75 forward I I I I #
loop $-1 $-1 $226 $62 #
coedge $-1 $142 $142 $227 $228 reversed $89 $-1 #
face $-1 $-1 $229 $49 $-1 $230 forward single #
loop $-1 $231 $232 $91 #
cone-surface $-1 -5.1971993370943608 26.948445202911934 9.0979116215604101 0 -0.80901700255871778 -0.5877852410284794 0.75 0 0 1 I I -0.70710678118654757 0.70710678118654757 0.75 forward I I I I #
loop $-1 $-1 $233 $63 #
coedge $-1 $147 $147 $234 $235 reversed $92 $-1 #
face $-1 $236 $237 $50 $-1 $238 reversed single #
loop $-1 $-1 $239 $94 #
plane-surface $-1 21.719372123747235 -6.0192295718835567 61.874157048478168 0 0.80901700255871778 0.5877852410284794 1 0 0 forward_v I I I I #
coedge $-1 $240 $241 $242 $243 reversed $95 $-1 #
face $-1 $-1 $244 $51 $-1 $245 forward single #
loop $-1 $246 $247 $97 #
cone-surface $-1 17.949438920090714 26.948445202911934 9.0979116215604101 0 -0.80901700255871778 -0.5877852410284794 0.75 0 0 1 I I -0.70710678118654757 0.70710678118654757 0.75 forward I I I I #
loop $-1 $-1 $248 $65 #
coedge $-1 $156 $156 $249 $250 reversed $98 $-1 #
face $-1 $-1 $251 $52 $-1 $252 forward single #
loop $-1 $253 $254 $100 #
cone-surface $-1 25.48930532740377 26.948445202911934 9.0979116215604101 0 -0.80901700255871778 -0.5877852410284794 0.75 0 0 1 I I -0.70710678118654757 0.70710678118654757 0.75 forward I I I I #
loop $-1 $-1 $255 $66 #
coedge $-1 $161 $161 $256 $257 reversed $101 $-1 #
face $-1 $258 $259 $53 $-1 $260 reversed single #
loop $-1 $-1 $261 $103 #
plane-surface $-1 52.405876788245365 -6.0192295718835567 61.874157048478168 0 0.80901700255871778 0.5877852410284794 1 0 0 forward_v I I I I #
coedge $-1 $262 $263 $264 $265 reversed $104 $-1 #
face $-1 $-1 $266 $54 $-1 $267 forward single #
loop $-1 $268 $269 $106 #
cone-surface $-1 48.63594358458883 26.948445202911934 9.0979116215604101 0 -0.80901700255871778 -0.5877852410284794 0.75 0 0 1 I I -0.70710678118654757 0.70710678118654757 0.75 forward I I I I #
loop $-1 $-1 $270 $68 #
coedge $-1 $170 $170 $271 $272 reversed $107 $-1 #
face $-1 $-1 $273 $55 $-1 $274 forward single #
loop $-1 $275 $276 $109 #
cone-surface $-1 56.1758099919019 26.948445202911934 9.0979116215604101 0 -0.80901700255871778 -0.5877852410284794 0.75 0 0 1 I I -0.70710678118654757 0.70710678118654757 0.75 forward I I I I #
loop $-1 $-1 $277 $69 #
coedge $-1 $175 $175 $278 $279 reversed $110 $-1 #
face $-1 $280 $281 $42 $-1 $282 reversed single #
loop $-1 $-1 $283 $112 #
plane-surface $-1 0 -34.283835764207694 0 0 1 0 0 0 1 forward_v I I I I #
coedge $-1 $284 $285 $286 $287 forward $113 $-1 #
coedge $-1 $288 $115 $289 $290 forward $71 $-1 #
coedge $-1 $115 $288 $291 $292 forward $71 $-1 #
coedge $-1 $293 $294 $115 $183 reversed $295 $-1 #
edge $-1 $296 -34.283835764207694 $297 34.283835764207694 $182 $298 forward 7 unknown #
face $-1 $299 $300 $43 $-1 $301 reversed single #
loop $-1 $-1 $302 $116 #
plane-surface $-1 -53.848652405360269 0 2.6246558270462721 -1 0 0 0 0 1 forward_v I I I I #
coedge $-1 $303 $304 $305 $306 forward $117 $-1 #
coedge $-1 $307 $119 $308 $309 reversed $74 $-1 #
coedge $-1 $119 $307 $310 $311 reversed $74 $-1 #
coedge $-1 $302 $312 $119 $191 reversed $185 $-1 #
edge $-1 $313 -34.283835764207694 $314 34.283835764207694 $190 $315 forward 7 unknown #
face $-1 $316 $317 $44 $-1 $318 forward single #
loop $-1 $-1 $319 $120 #
plane-surface $-1 -30.857126396717121 105.4590518879058 142.86786710653988 -1 0 0 0 0.80901700255871778 0.5877852410284794 forward_v I I I I #
coedge $-1 $320 $321 $322 $323 reversed $121 $-1 #
coedge $-1 $197 $123 $324 $325 reversed $77 $-1 #
coedge $-1 $123 $196 $320 $326 reversed $77 $-1 #
coedge $-1 $322 $327 $123 $199 forward $317 $-1 #
edge $-1 $328 18.445690179745206 $329 26.078527055934295 $198 $330 forward 7 unknown #
loop $-1 $-1 $205 $124 #
plane-surface $-1 -39.653637205249012 -6.0192295718835567 61.874157048478168 0 0.80901700255871778 0.5877852410284794 1 0 0 forward_v I I I I #
loop $-1 $-1 $331 $79 #
coedge $-1 $203 $203 $204 $332 reversed $125 $-1 #
coedge $-1 $204 $204 $203 $332 forward $127 $-1 #
coedge $-1 $205 $205 $128 $206 forward $200 $-1 #
edge $-1 $333 -1.0479641404981444e-015 $333 6.2831853071795996 $205 $334 forward 7 unknown #
loop $-1 $-1 $212 $129 #
plane-surface $-1 -39.653637205249012 -6.0192295718835567 61.874157048478168 0 0.80901700255871778 0.5877852410284794 1 0 0 forward_v I I I I #
loop $-1 $-1 $335 $82 #
coedge $-1 $210 $210 $211 $336 reversed $130 $-1 #
coedge $-1 $211 $211 $210 $336 forward $132 $-1 #
coedge $-1 $212 $212 $133 $213 forward $207 $-1 #
edge $-1 $337 -1.0479641404981444e-015 $337 6.2831853071795996 $212 $338 forward 7 unknown #
face $-1 $339 $340 $47 $-1 $341 forward single #
loop $-1 $-1 $342 $134 #
plane-surface $-1 -0.1706217322189989 105.4590518879058 142.86786710653988 -1 0 0 0 0.80901700255871778 0.5877852410284794 forward_v I I I I #
coedge $-1 $343 $344 $345 $346 reversed $135 $-1 #
coedge $-1 $219 $137 $347 $348 reversed $86 $-1 #
coedge $-1 $137 $218 $343 $349 reversed $86 $-1 #
coedge $-1 $345 $350 $137 $221 forward $340 $-1 #
edge $-1 $351 18.445690179745206 $352 26.078527055934295 $220 $353 forward 7 unknown #
loop $-1 $-1 $227 $138 #
plane-surface $-1 -8.9671325407508888 -6.0192295718835567 61.874157048478168 0 0.80901700255871778 0.5877852410284794 1 0 0 forward_v I I I I #
loop $-1 $-1 $354 $88 #
coedge $-1 $225 $225 $226 $355 reversed $139 $-1 #
coedge $-1 $226 $226 $225 $355 forward $141 $-1 #
coedge $-1 $227 $227 $142 $228 forward $222 $-1 #
edge $-1 $356 -1.0479641404981444e-015 $356 6.2831853071795996 $227 $357 forward 7 unknown #
loop $-1 $-1 $234 $143 #
plane-surface $-1 -8.9671325407508888 -6.0192295718835567 61.874157048478168 0 0.80901700255871778 0.5877852410284794 1 0 0 forward_v I I I I #
loop $-1 $-1 $358 $91 #
coedge $-1 $232 $232 $233 $359 reversed $144 $-1 #
coedge $-1 $233 $233 $232 $359 forward $146 $-1 #
coedge $-1 $234 $234 $147 $235 forward $229 $-1 #
edge $-1 $360 -1.0479641404981444e-015 $360 6.2831853071795996 $234 $361 forward 7 unknown #
face $-1 $362 $363 $50 $-1 $364 forward single #
loop $-1 $-1 $365 $148 #
plane-surface $-1 30.515882932279126 105.4590518879058 142.86786710653988 -1 0 0 0 0.80901700255871778 0.5877852410284794 forward_v I I I I #
coedge $-1 $366 $367 $368 $369 reversed $149 $-1 #
coedge $-1 $241 $151 $370 $371 reversed $95 $-1 #
coedge $-1 $151 $240 $366 $372 reversed $95 $-1 #
coedge $-1 $368 $373 $151 $243 forward $363 $-1 #
edge $-1 $374 18.445690179745206 $375 26.078527055934295 $242 $376 forward 7 unknown #
loop $-1 $-1 $249 $152 #
plane-surface $-1 21.719372123747235 -6.0192295718835567 61.874157048478168 0 0.80901700255871778 0.5877852410284794 1 0 0 forward_v I I I I #
loop $-1 $-1 $377 $97 #
coedge $-1 $247 $247 $248 $378 reversed $153 $-1 #
coedge $-1 $248 $248 $247 $378 forward $155 $-1 #
coedge $-1 $249 $249 $156 $250 forward $244 $-1 #
edge $-1 $379 -1.0479641404981444e-015 $379 6.2831853071795996 $249 $380 forward 7 unknown #
loop $-1 $-1 $256 $157 #
plane-surface $-1 21.719372123747235 -6.0192295718835567 61.874157048478168 0 0.80901700255871778 0.5877852410284794 1 0 0 forward_v I I I I #
loop $-1 $-1 $381 $100 #
coedge $-1 $254 $254 $255 $382 reversed $158 $-1 #
coedge $-1 $255 $255 $254 $382 forward $160 $-1 #
coedge $-1 $256 $256 $161 $257 forward $251 $-1 #
edge $-1 $383 -1.0479641404981444e-015 $383 6.2831853071795996 $256 $384 forward 7 unknown #
face $-1 $385 $386 $53 $-1 $387 forward single #
loop $-1 $-1 $388 $162 #
plane-surface $-1 61.202387596777257 105.4590518879058 142.86786710653988 -1 0 0 0 0.80901700255871778 0.5877852410284794 forward_v I I I I #
coedge $-1 $389 $390 $391 $392 reversed $163 $-1 #
coedge $-1 $263 $165 $393 $394 reversed $104 $-1 #
coedge $-1 $165 $262 $389 $395 reversed $104 $-1 #
coedge $-1 $391 $396 $165 $265 forward $386 $-1 #
edge $-1 $397 18.445690179745206 $398 26.078527055934295 $264 $399 forward 7 unknown #
loop $-1 $-1 $271 $166 #
plane-surface $-1 52.405876788245365 -6.0192295718835567 61.874157048478168 0 0.80901700255871778 0.5877852410284794 1 0 0 forward_v I I I I #
loop $-1 $-1 $400 $106 #
coedge $-1 $269 $269 $270 $401 reversed $167 $-1 #
coedge $-1 $270 $270 $269 $401 forward $169 $-1 #
coedge $-1 $271 $271 $170 $272 forward $266 $-1 #
edge $-1 $402 -1.0479641404981444e-015 $402 6.2831853071795996 $271 $403 forward 7 unknown #
loop $-1 $-1 $278 $171 #
plane-surface $-1 52.405876788245365 -6.0192295718835567 61.874157048478168 0 0.80901700255871778 0.5877852410284794 1 0 0 forward_v I I I I #
loop $-1 $-1 $404 $109 #
coedge $-1 $276 $276 $277 $405 reversed $172 $-1 #
coedge $-1 $277 $277 $276 $405 forward $174 $-1 #
coedge $-1 $278 $278 $175 $279 forward $273 $-1 #
edge $-1 $406 -1.0479641404981444e-015 $406 6.2831853071795996 $278 $407 forward 7 unknown #
face $-1 $408 $409 $42 $-1 $410 reversed single #
loop $-1 $-1 $411 $176 #
plane-surface $-1 -68.897366252632224 0 0 1 0 0 0 0 -1 forward_v I I I I #
coedge $-1 $412 $291 $413 $414 forward $177 $-1 #
coedge $-1 $415 $179 $412 $416 forward $113 $-1 #
coedge $-1 $179 $415 $417 $418 forward $113 $-1 #
coedge $-1 $294 $293 $179 $287 reversed $295 $-1 #
edge $-1 $419 -34.283835764207694 $420 34.283835764207694 $286 $421 forward 7 unknown #
coedge $-1 $181 $180 $422 $423 forward $71 $-1 #
coedge $-1 $424 $425 $180 $290 reversed $409 $-1 #
edge $-1 $297 -68.897366252632224 $426 68.897366252632224 $289 $427 forward 7 unknown #
coedge $-1 $283 $428 $181 $292 reversed $177 $-1 #
edge $-1 $429 -68.897366252632224 $296 68.897366252632224 $291 $430 forward 7 unknown #
coedge $-1 $286 $182 $428 $431 forward $295 $-1 #
coedge $-1 $182 $286 $424 $432 reversed $295 $-1 #
loop $-1 $-1 $293 $408 #
vertex $-1 $183 $433 #
vertex $-1 $183 $434 #
straight-curve $-1 68.897366252632224 0 16.907443942019039 0 1 0 I I #
face $-1 $435 $436 $43 $-1 $437 reversed single #
loop $-1 $-1 $438 $184 #
plane-surface $-1 0 -34.283835764207694 0 0 1 0 0 0 1 forward_v I I I I #
coedge $-1 $305 $190 $439 $440 reversed $185 $-1 #
coedge $-1 $441 $187 $438 $442 reversed $117 $-1 #
coedge $-1 $187 $441 $443 $444 reversed $117 $-1 #
coedge $-1 $312 $302 $187 $306 reversed $185 $-1 #
edge $-1 $445 -34.283835764207694 $446 34.283835764207694 $305 $447 forward 7 unknown #
coedge $-1 $189 $188 $448 $449 reversed $74 $-1 #
coedge $-1 $450 $451 $188 $309 forward $452 $-1 #
edge $-1 $453 -38.210861588134101 $314 -23.162147740862146 $308 $454 forward 7 unknown #
coedge $-1 $455 $439 $189 $311 forward $300 $-1 #
edge $-1 $313 23.162147740862146 $456 38.210861588134101 $310 $457 forward 7 unknown #
coedge $-1 $190 $305 $450 $458 reversed $185 $-1 #
vertex $-1 $311 $459 #
vertex $-1 $309 $460 #
straight-curve $-1 -53.848652405360269 0 6.7512857573510683 0 1 0 I I #
face $-1 $-1 $461 $44 $-1 $462 reversed single #
loop $-1 $-1 $198 $192 #
plane-surface $-1 0 0 16.907443942019039 0 0 1 1 0 0 forward_v I I I I #
coedge $-1 $463 $464 $465 $466 reversed $193 $-1 #
coedge $-1 $467 $195 $197 $326 forward $121 $-1 #
coedge $-1 $195 $467 $463 $468 forward $121 $-1 #
coedge $-1 $465 $198 $195 $323 forward $317 $-1 #
edge $-1 $329 -28.623329411156398 $469 -11.030307794092614 $322 $470 forward 7 unknown #
coedge $-1 $471 $472 $196 $325 forward $461 $-1 #
edge $-1 $473 -65.032188597141129 $328 -54.526489611250895 $324 $474 forward 7 unknown #
edge $-1 $329 55.581913562064443 $473 68.567671528415403 $197 $475 forward 7 unknown #
coedge $-1 $198 $465 $471 $476 forward $317 $-1 #
vertex $-1 $325 $477 #
vertex $-1 $199 $478 #
straight-curve $-1 -48.450148013780904 52.7295259439529 16.907443942019043 0 -1 0 I I #
coedge $-1 $331 $331 $-1 $479 reversed $202 $-1 #
edge $-1 $480 0 $480 6.2831853071796004 $203 $481 forward 7 unknown #
vertex $-1 $206 $482 #
ellipse-curve $-1 -43.423570408905533 30.46741732611315 11.654594449073919 0 0.80901700255871778 0.5877852410284794 1.5 0 0 1 I I #
coedge $-1 $335 $335 $-1 $483 reversed $209 $-1 #
edge $-1 $484 0 $484 6.2831853071796004 $210 $485 forward 7 unknown #
vertex $-1 $213 $486 #
ellipse-curve $-1 -35.883704001592484 30.46741732611315 11.654594449073919 0 0.80901700255871778 0.5877852410284794 1.5 0 0 1 I I #
face $-1 $-1 $487 $47 $-1 $488 reversed single #
loop $-1 $-1 $220 $214 #
plane-surface $-1 0 0 16.907443942019039 0 0 1 1 0 0 forward_v I I I I #
coedge $-1 $489 $490 $491 $492 reversed $215 $-1 #
coedge $-1 $493 $217 $219 $349 forward $135 $-1 #
coedge $-1 $217 $493 $489 $494 forward $135 $-1 #
coedge $-1 $491 $220 $217 $346 forward $340 $-1 #
edge $-1 $352 -13.280077078907336 $495 4.3129445381564455 $345 $496 forward 7 unknown #
coedge $-1 $497 $498 $218 $348 forward $487 $-1 #
edge $-1 $499 -65.032188597141129 $351 -54.526489611250895 $347 $500 forward 7 unknown #
edge $-1 $352 55.581913562064443 $499 68.567671528415403 $219 $501 forward 7 unknown #
coedge $-1 $220 $491 $497 $502 forward $340 $-1 #
vertex $-1 $221 $503 #
vertex $-1 $221 $504 #
straight-curve $-1 -17.763643349282781 52.7295259439529 16.907443942019043 0 -1 0 I I #
coedge $-1 $354 $354 $-1 $505 reversed $224 $-1 #
edge $-1 $506 0 $506 6.2831853071796004 $225 $507 forward 7 unknown #
vertex $-1 $228 $508 #
ellipse-curve $-1 -12.73706574440741 30.46741732611315 11.654594449073919 0 0.80901700255871778 0.5877852410284794 1.5 0 0 1 I I #
coedge $-1 $358 $358 $-1 $509 reversed $231 $-1 #
edge $-1 $510 0 $510 6.2831853071796004 $232 $511 forward 7 unknown #
vertex $-1 $235 $512 #
ellipse-curve $-1 -5.1971993370943608 30.46741732611315 11.654594449073919 0 0.80901700255871778 0.5877852410284794 1.5 0 0 1 I I #
face $-1 $-1 $513 $50 $-1 $514 reversed single #
loop $-1 $-1 $242 $236 #
plane-surface $-1 0 0 16.907443942019039 0 0 1 1 0 0 forward_v I I I I #
coedge $-1 $515 $516 $517 $518 reversed $237 $-1 #
coedge $-1 $519 $239 $241 $372 forward $149 $-1 #
coedge $-1 $239 $519 $515 $520 forward $149 $-1 #
coedge $-1 $517 $242 $239 $369 forward $363 $-1 #
edge $-1 $375 2.0631752533417274 $521 19.656196870405509 $368 $522 forward 7 unknown #
coedge $-1 $523 $524 $240 $371 forward $513 $-1 #
edge $-1 $525 -65.032188597141129 $374 -54.526489611250895 $370 $526 forward 7 unknown #
edge $-1 $375 55.581913562064443 $525 68.567671528415403 $241 $527 forward 7 unknown #
coedge $-1 $242 $517 $523 $528 forward $363 $-1 #
vertex $-1 $243 $529 #
vertex $-1 $243 $530 #
straight-curve $-1 12.922861315215345 52.7295259439529 16.907443942019043 0 -1 0 I I #
coedge $-1 $377 $377 $-1 $531 reversed $246 $-1 #
edge $-1 $532 0 $532 6.2831853071796004 $247 $533 forward 7 unknown #
vertex $-1 $250 $534 #
ellipse-curve $-1 17.949438920090714 30.46741732611315 11.654594449073919 0 0.80901700255871778 0.5877852410284794 1.5 0 0 1 I I #
coedge $-1 $381 $381 $-1 $535 reversed $253 $-1 #
edge $-1 $536 0 $536 6.2831853071796004 $254 $537 forward 7 unknown #
vertex $-1 $257 $538 #
ellipse-curve $-1 25.48930532740377 30.46741732611315 11.654594449073919 0 0.80901700255871778 0.5877852410284794 1.5 0 0 1 I I #
face $-1 $-1 $539 $53 $-1 $540 reversed single #
loop $-1 $-1 $264 $258 #
plane-surface $-1 0 0 16.907443942019039 0 0 1 1 0 0 forward_v I I I I #
coedge $-1 $541 $542 $543 $544 reversed $259 $-1 #
coedge $-1 $545 $261 $263 $395 forward $163 $-1 #
coedge $-1 $261 $545 $541 $546 forward $163 $-1 #
coedge $-1 $543 $264 $261 $392 forward $386 $-1 #
edge $-1 $398 17.406427585590791 $547 34.999449202654574 $391 $548 forward 7 unknown #
coedge $-1 $549 $550 $262 $394 forward $539 $-1 #
edge $-1 $551 -65.032188597141129 $397 -54.526489611250895 $393 $552 forward 7 unknown #
edge $-1 $398 55.581913562064443 $551 68.567671528415403 $263 $553 forward 7 unknown #
coedge $-1 $264 $543 $549 $554 forward $386 $-1 #
vertex $-1 $265 $555 #
vertex $-1 $265 $556 #
straight-curve $-1 43.609365979713473 52.7295259439529 16.907443942019043 0 -1 0 I I #
coedge $-1 $400 $400 $-1 $557 reversed $268 $-1 #
edge $-1 $558 0 $558 6.2831853071796004 $269 $559 forward 7 unknown #
vertex $-1 $272 $560 #
ellipse-curve $-1 48.63594358458883 30.46741732611315 11.654594449073919 0 0.80901700255871778 0.5877852410284794 1.5 0 0 1 I I #
coedge $-1 $404 $404 $-1 $561 reversed $275 $-1 #
edge $-1 $562 0 $562 6.2831853071796004 $276 $563 forward 7 unknown #
vertex $-1 $279 $564 #
ellipse-curve $-1 56.1758099919019 30.46741732611315 11.654594449073919 0 0.80901700255871778 0.5877852410284794 1.5 0 0 1 I I #
face $-1 $-1 $295 $42 $-1 $565 reversed single #
loop $-1 $-1 $424 $280 #
plane-surface $-1 0 34.283835764207694 0 0 -1 0 0 0 -1 forward_v I I I I #
coedge $-1 $566 $422 $425 $567 forward $281 $-1 #
coedge $-1 $428 $283 $284 $416 reversed $177 $-1 #
coedge $-1 $422 $566 $283 $414 reversed $281 $-1 #
edge $-1 $429 -16.907443942019039 $568 16.907443942019039 $413 $569 forward 7 unknown #
coedge $-1 $285 $284 $566 $570 forward $113 $-1 #
edge $-1 $420 -68.897366252632224 $568 68.897366252632224 $412 $571 forward 7 unknown #
coedge $-1 $425 $424 $285 $418 reversed $409 $-1 #
edge $-1 $572 -68.897366252632224 $419 68.897366252632224 $417 $573 forward 7 unknown #
vertex $-1 $287 $574 #
vertex $-1 $431 $575 #
straight-curve $-1 68.897366252632224 0 -16.907443942019039 0 -1 0 I I #
coedge $-1 $411 $413 $288 $423 reversed $281 $-1 #
edge $-1 $426 -34.283835764207694 $429 34.283835764207694 $422 $576 forward 7 unknown #
coedge $-1 $417 $289 $294 $432 forward $409 $-1 #
coedge $-1 $289 $417 $411 $567 reversed $409 $-1 #
vertex $-1 $290 $577 #
straight-curve $-1 0 34.283835764207694 16.907443942019039 -1 0 0 I I #
coedge $-1 $291 $412 $293 $431 reversed $177 $-1 #
vertex $-1 $423 $578 #
straight-curve $-1 0 -34.283835764207694 16.907443942019039 1 0 0 I I #
edge $-1 $296 -16.907443942019039 $420 16.907443942019039 $293 $579 forward 7 unknown #
edge $-1 $297 -16.907443942019039 $419 16.907443942019039 $294 $580 forward 7 unknown #
point $-1 68.897366252632224 -34.283835764207694 16.907443942019039 #
point $-1 68.897366252632224 34.283835764207694 16.907443942019039 #
face $-1 $-1 $452 $43 $-1 $581 reversed single #
loop $-1 $-1 $582 $299 #
plane-surface $-1 -68.897366252632224 0 0 1 0 0 0 0 -1 forward_v I I I I #
coedge $-1 $439 $455 $303 $442 forward $300 $-1 #
coedge $-1 $310 $438 $302 $440 forward $300 $-1 #
edge $-1 $446 -2.8143020167816601 $313 5.4389578438279322 $439 $583 forward 7 unknown #
coedge $-1 $304 $303 $582 $584 reversed $117 $-1 #
edge $-1 $585 -38.210861588134101 $446 -23.162147740862146 $438 $586 forward 7 unknown #
coedge $-1 $451 $450 $304 $444 forward $452 $-1 #
edge $-1 $445 23.162147740862146 $587 38.210861588134101 $443 $588 forward 7 unknown #
vertex $-1 $444 $589 #
vertex $-1 $442 $590 #
straight-curve $-1 -53.848652405360269 0 -1.5019741032585241 0 -1 0 I I #
coedge $-1 $591 $592 $307 $449 forward $436 $-1 #
edge $-1 $456 -34.283835764207694 $453 34.283835764207694 $448 $593 forward 7 unknown #
coedge $-1 $443 $308 $312 $458 forward $452 $-1 #
coedge $-1 $308 $443 $591 $594 reversed $452 $-1 #
loop $-1 $-1 $443 $435 #
vertex $-1 $594 $595 #
straight-curve $-1 -30.686504664498123 34.283835764207694 6.7512857573510683 1 0 0 I I #
coedge $-1 $438 $310 $592 $596 forward $300 $-1 #
vertex $-1 $596 $597 #
straight-curve $-1 -30.686504664498123 -34.283835764207694 6.7512857573510683 -1 0 0 I I #
edge $-1 $314 -5.4389578438279322 $445 2.8143020167816601 $450 $598 forward 7 unknown #
point $-1 -53.848652405360269 -34.283835764207694 6.7512857573510683 #
point $-1 -53.848652405360269 34.283835764207694 6.7512857573510683 #
loop $-1 $-1 $324 $316 #
plane-surface $-1 0 34.283835764207694 0 0 -1 0 0 0 -1 forward_v I I I I #
coedge $-1 $464 $319 $321 $468 reversed $193 $-1 #
coedge $-1 $319 $463 $599 $600 reversed $193 $-1 #
coedge $-1 $327 $322 $319 $466 forward $317 $-1 #
edge $-1 $469 -26.078527055934295 $601 -18.445690179745206 $465 $602 forward 7 unknown #
coedge $-1 $321 $320 $472 $603 reversed $121 $-1 #
edge $-1 $604 -68.567671528415403 $469 -55.581913562064443 $463 $605 forward 7 unknown #
vertex $-1 $323 $606 #
straight-curve $-1 -19.826818602624506 26.650998888018606 16.907443942019043 1 0 0 I I #
coedge $-1 $599 $324 $327 $476 reversed $461 $-1 #
coedge $-1 $324 $599 $467 $603 forward $461 $-1 #
vertex $-1 $325 $607 #
straight-curve $-1 -48.450148013780904 34.283835764207694 71.433933553269938 0 0 1 I I #
straight-curve $-1 -48.450148013780904 -6.0192295718835567 61.874157048478168 0 0.5877852410284794 -0.80901700255871778 I I #
edge $-1 $601 30.857126396717121 $328 48.450148013780904 $471 $608 forward 7 unknown #
point $-1 -48.450148013780904 34.283835764207694 16.907443942019039 #
point $-1 -48.450148013780904 26.650998888018606 16.907443942019043 #
edge $-1 $609 1 $609 0 $331 $-1 forward 7 unknown #
vertex $-1 $332 $610 #
ellipse-curve $-1 -43.423570408905533 27.555207954830973 9.5387505523317699 0 0.80901700255871778 0.5877852410284794 1.5 0 0 1 I I #
point $-1 -41.923570408905533 30.467417326113157 11.654594449073926 #
edge $-1 $611 1 $611 0 $335 $-1 forward 7 unknown #
vertex $-1 $336 $612 #
ellipse-curve $-1 -35.883704001592484 27.555207954830973 9.5387505523317699 0 0.80901700255871778 0.5877852410284794 1.5 0 0 1 I I #
point $-1 -34.383704001592484 30.467417326113157 11.654594449073926 #
loop $-1 $-1 $347 $339 #
plane-surface $-1 0 34.283835764207694 0 0 -1 0 0 0 -1 forward_v I I I I #
coedge $-1 $490 $342 $344 $494 reversed $215 $-1 #
coedge $-1 $342 $489 $613 $614 reversed $215 $-1 #
coedge $-1 $350 $345 $342 $492 forward $340 $-1 #
edge $-1 $495 -26.078527055934295 $615 -18.445690179745206 $491 $616 forward 7 unknown #
coedge $-1 $344 $343 $498 $617 reversed $135 $-1 #
edge $-1 $618 -68.567671528415403 $495 -55.581913562064443 $489 $619 forward 7 unknown #
vertex $-1 $346 $620 #
straight-curve $-1 -4.4835662703754444 26.650998888018606 16.907443942019043 1 0 0 I I #
coedge $-1 $613 $347 $350 $502 reversed $487 $-1 #
coedge $-1 $347 $613 $493 $617 forward $487 $-1 #
vertex $-1 $348 $621 #
straight-curve $-1 -17.763643349282781 34.283835764207694 71.433933553269938 0 0 1 I I #
straight-curve $-1 -17.763643349282781 -6.0192295718835567 61.874157048478168 0 0.5877852410284794 -0.80901700255871778 I I #
edge $-1 $615 0.1706217322189989 $351 17.763643349282781 $497 $622 forward 7 unknown #
point $-1 -17.763643349282781 34.283835764207694 16.907443942019039 #
point $-1 -17.763643349282781 26.650998888018606 16.907443942019043 #
edge $-1 $623 1 $623 0 $354 $-1 forward 7 unknown #
vertex $-1 $355 $624 #
ellipse-curve $-1 -12.73706574440741 27.555207954830973 9.5387505523317699 0 0.80901700255871778 0.5877852410284794 1.5 0 0 1 I I #
point $-1 -11.23706574440741 30.467417326113157 11.654594449073926 #
edge $-1 $625 1 $625 0 $358 $-1 forward 7 unknown #
vertex $-1 $359 $626 #
ellipse-curve $-1 -5.1971993370943608 27.555207954830973 9.5387505523317699 0 0.80901700255871778 0.5877852410284794 1.5 0 0 1 I I #
point $-1 -3.6971993370943608 30.467417326113157 11.654594449073926 #
loop $-1 $-1 $370 $362 #
plane-surface $-1 0 34.283835764207694 0 0 -1 0 0 0 -1 forward_v I I I I #
coedge $-1 $516 $365 $367 $520 reversed $237 $-1 #
coedge $-1 $365 $515 $627 $628 reversed $237 $-1 #
coedge $-1 $373 $368 $365 $518 forward $363 $-1 #
edge $-1 $521 -26.078527055934295 $629 -18.445690179745206 $517 $630 forward 7 unknown #
coedge $-1 $367 $366 $524 $631 reversed $149 $-1 #
edge $-1 $632 -68.567671528415403 $521 -55.581913562064443 $515 $633 forward 7 unknown #
vertex $-1 $369 $634 #
straight-curve $-1 10.859686061873617 26.650998888018606 16.907443942019043 1 0 0 I I #
coedge $-1 $627 $370 $373 $528 reversed $513 $-1 #
coedge $-1 $370 $627 $519 $631 forward $513 $-1 #
vertex $-1 $371 $635 #
straight-curve $-1 12.922861315215345 34.283835764207694 71.433933553269938 0 0 1 I I #
straight-curve $-1 12.922861315215345 -6.0192295718835567 61.874157048478168 0 0.5877852410284794 -0.80901700255871778 I I #
edge $-1 $629 -30.515882932279126 $374 -12.922861315215345 $523 $636 forward 7 unknown #
point $-1 12.922861315215345 34.283835764207694 16.907443942019039 #
point $-1 12.922861315215345 26.650998888018606 16.907443942019043 #
edge $-1 $637 1 $637 0 $377 $-1 forward 7 unknown #
vertex $-1 $378 $638 #
ellipse-curve $-1 17.949438920090714 27.555207954830973 9.5387505523317699 0 0.80901700255871778 0.5877852410284794 1.5 0 0 1 I I #
point $-1 19.449438920090714 30.467417326113157 11.654594449073926 #
edge $-1 $639 1 $639 0 $381 $-1 forward 7 unknown #
vertex $-1 $382 $640 #
ellipse-curve $-1 25.48930532740377 27.555207954830973 9.5387505523317699 0 0.80901700255871778 0.5877852410284794 1.5 0 0 1 I I #
point $-1 26.98930532740377 30.467417326113157 11.654594449073926 #
loop $-1 $-1 $393 $385 #
plane-surface $-1 0 34.283835764207694 0 0 -1 0 0 0 -1 forward_v I I I I #
coedge $-1 $542 $388 $390 $546 reversed $259 $-1 #
coedge $-1 $388 $541 $641 $642 reversed $259 $-1 #
coedge $-1 $396 $391 $388 $544 forward $386 $-1 #
edge $-1 $547 -26.078527055934295 $643 -18.445690179745206 $543 $644 forward 7 unknown #
coedge $-1 $390 $389 $550 $645 reversed $163 $-1 #
edge $-1 $646 -68.567671528415403 $547 -55.581913562064443 $541 $647 forward 7 unknown #
vertex $-1 $392 $648 #
straight-curve $-1 26.202938394122683 26.650998888018606 16.907443942019043 1 0 0 I I #
coedge $-1 $641 $393 $396 $554 reversed $539 $-1 #
coedge $-1 $393 $641 $545 $645 forward $539 $-1 #
vertex $-1 $394 $649 #
straight-curve $-1 43.609365979713473 34.283835764207694 71.433933553269938 0 0 1 I I #
straight-curve $-1 43.609365979713473 -6.0192295718835567 61.874157048478168 0 0.5877852410284794 -0.80901700255871778 I I #
edge $-1 $643 -61.202387596777257 $397 -43.609365979713473 $549 $650 forward 7 unknown #
point $-1 43.609365979713473 34.283835764207694 16.907443942019039 #
point $-1 43.609365979713473 26.650998888018606 16.907443942019043 #
edge $-1 $651 1 $651 0 $400 $-1 forward 7 unknown #
vertex $-1 $401 $652 #
ellipse-curve $-1 48.63594358458883 27.555207954830973 9.5387505523317699 0 0.80901700255871778 0.5877852410284794 1.5 0 0 1 I I #
point $-1 50.13594358458883 30.467417326113157 11.654594449073926 #
edge $-1 $653 1 $653 0 $404 $-1 forward 7 unknown #
vertex $-1 $405 $654 #
ellipse-curve $-1 56.1758099919019 27.555207954830973 9.5387505523317699 0 0.80901700255871778 0.5877852410284794 1.5 0 0 1 I I #
point $-1 57.6758099919019 30.467417326113157 11.654594449073926 #
plane-surface $-1 68.897366252632224 0 0 -1 0 0 0 0 1 forward_v I I I I #
coedge $-1 $413 $411 $415 $570 reversed $281 $-1 #
edge $-1 $426 -16.907443942019039 $572 16.907443942019039 $425 $655 forward 7 unknown #
vertex $-1 $570 $656 #
straight-curve $-1 -68.897366252632224 -34.283835764207694 0 0 0 -1 I I #
edge $-1 $568 -34.283835764207694 $572 34.283835764207694 $566 $657 forward 7 unknown #
straight-curve $-1 0 -34.283835764207694 -16.907443942019039 -1 0 0 I I #
vertex $-1 $418 $658 #
straight-curve $-1 0 34.283835764207694 -16.907443942019039 1 0 0 I I #
point $-1 68.897366252632224 34.283835764207694 -16.907443942019039 #
point $-1 68.897366252632224 -34.283835764207694 -16.907443942019039 #
straight-curve $-1 -68.897366252632224 0 16.907443942019039 0 -1 0 I I #
point $-1 -68.897366252632224 34.283835764207694 16.907443942019039 #
point $-1 -68.897366252632224 -34.283835764207694 16.907443942019039 #
straight-curve $-1 68.897366252632224 -34.283835764207694 0 0 0 -1 I I #
straight-curve $-1 68.897366252632224 34.283835764207694 0 0 0 -1 I I #
plane-surface $-1 0 34.283835764207694 0 0 -1 0 0 0 -1 forward_v I I I I #
coedge $-1 $592 $591 $441 $584 forward $436 $-1 #
straight-curve $-1 -53.848652405360269 -34.283835764207694 1.312327913523136 0 0 1 I I #
edge $-1 $587 -34.283835764207694 $585 34.283835764207694 $582 $659 forward 7 unknown #
vertex $-1 $442 $660 #
straight-curve $-1 -30.686504664498123 -34.283835764207694 -1.5019741032585241 1 0 0 I I #
vertex $-1 $444 $661 #
straight-curve $-1 -30.686504664498123 34.283835764207694 -1.5019741032585241 -1 0 0 I I #
point $-1 -53.848652405360269 34.283835764207694 -1.5019741032585241 #
point $-1 -53.848652405360269 -34.283835764207694 -1.5019741032585241 #
coedge $-1 $582 $448 $451 $594 forward $436 $-1 #
coedge $-1 $448 $582 $455 $596 reversed $436 $-1 #
straight-curve $-1 -68.897366252632224 0 6.7512857573510683 0 1 0 I I #
edge $-1 $453 -6.7512857573510683 $587 1.5019741032585241 $451 $662 forward 7 unknown #
point $-1 -68.897366252632224 34.283835764207694 6.7512857573510683 #
edge $-1 $456 -6.7512857573510683 $585 1.5019741032585241 $592 $663 forward 7 unknown #
point $-1 -68.897366252632224 -34.283835764207694 6.7512857573510683 #
straight-curve $-1 -53.848652405360269 34.283835764207694 1.312327913523136 0 0 -1 I I #
coedge $-1 $472 $471 $464 $600 forward $461 $-1 #
edge $-1 $601 54.526489611250895 $604 65.032188597141129 $599 $664 forward 7 unknown #
vertex $-1 $476 $665 #
straight-curve $-1 -30.857126396717121 52.7295259439529 16.907443942019043 0 1 0 I I #
edge $-1 $604 11.030307794092614 $473 28.623329411156398 $472 $666 forward 7 unknown #
vertex $-1 $603 $667 #
straight-curve $-1 -30.857126396717121 -6.0192295718835567 61.874157048478168 0 -0.5877852410284794 0.80901700255871778 I I #
point $-1 -30.857126396717121 26.650998888018606 16.907443942019043 #
point $-1 -48.450148013780904 34.283835764207694 6.4017449561288018 #
straight-curve $-1 0 34.283835764207694 16.907443942019039 -1 0 0 I I #
vertex $-1 $479 $668 #
point $-1 -41.923570408905533 27.555207954830973 9.5387505523317699 #
vertex $-1 $483 $669 #
point $-1 -34.383704001592484 27.555207954830973 9.5387505523317699 #
coedge $-1 $498 $497 $490 $614 forward $487 $-1 #
edge $-1 $615 54.526489611250895 $618 65.032188597141129 $613 $670 forward 7 unknown #
vertex $-1 $502 $671 #
straight-curve $-1 -0.1706217322189989 52.7295259439529 16.907443942019043 0 1 0 I I #
edge $-1 $618 -4.3129445381564455 $499 13.280077078907336 $498 $672 forward 7 unknown #
vertex $-1 $617 $673 #
straight-curve $-1 -0.1706217322189989 -6.0192295718835567 61.874157048478168 0 -0.5877852410284794 0.80901700255871778 I I #
point $-1 -0.1706217322189989 26.650998888018606 16.907443942019043 #
point $-1 -17.763643349282781 34.283835764207694 6.4017449561288018 #
straight-curve $-1 0 34.283835764207694 16.907443942019039 -1 0 0 I I #
vertex $-1 $505 $674 #
point $-1 -11.23706574440741 27.555207954830973 9.5387505523317699 #
vertex $-1 $509 $675 #
point $-1 -3.6971993370943608 27.555207954830973 9.5387505523317699 #
coedge $-1 $524 $523 $516 $628 forward $513 $-1 #
edge $-1 $629 54.526489611250895 $632 65.032188597141129 $627 $676 forward 7 unknown #
vertex $-1 $528 $677 #
straight-curve $-1 30.515882932279126 52.7295259439529 16.907443942019043 0 1 0 I I #
edge $-1 $632 -19.656196870405509 $525 -2.0631752533417274 $524 $678 forward 7 unknown #
vertex $-1 $631 $679 #
straight-curve $-1 30.515882932279126 -6.0192295718835567 61.874157048478168 0 -0.5877852410284794 0.80901700255871778 I I #
point $-1 30.515882932279126 26.650998888018606 16.907443942019043 #
point $-1 12.922861315215345 34.283835764207694 6.4017449561288018 #
straight-curve $-1 0 34.283835764207694 16.907443942019039 -1 0 0 I I #
vertex $-1 $531 $680 #
point $-1 19.449438920090714 27.555207954830973 9.5387505523317699 #
vertex $-1 $535 $681 #
point $-1 26.98930532740377 27.555207954830973 9.5387505523317699 #
coedge $-1 $550 $549 $542 $642 forward $539 $-1 #
edge $-1 $643 54.526489611250895 $646 65.032188597141129 $641 $682 forward 7 unknown #
vertex $-1 $554 $683 #
straight-curve $-1 61.202387596777257 52.7295259439529 16.907443942019043 0 1 0 I I #
edge $-1 $646 -34.999449202654574 $551 -17.406427585590791 $550 $684 forward 7 unknown #
vertex $-1 $645 $685 #
straight-curve $-1 61.202387596777257 -6.0192295718835567 61.874157048478168 0 -0.5877852410284794 0.80901700255871778 I I #
point $-1 61.202387596777257 26.650998888018606 16.907443942019043 #
point $-1 43.609365979713473 34.283835764207694 6.4017449561288018 #
straight-curve $-1 0 34.283835764207694 16.907443942019039 -1 0 0 I I #
vertex $-1 $557 $686 #
point $-1 50.13594358458883 27.555207954830973 9.5387505523317699 #
vertex $-1 $561 $687 #
point $-1 57.6758099919019 27.555207954830973 9.5387505523317699 #
straight-curve $-1 -68.897366252632224 34.283835764207694 0 0 0 -1 I I #
point $-1 -68.897366252632224 -34.283835764207694 -16.907443942019039 #
straight-curve $-1 -68.897366252632224 0 -16.907443942019039 0 1 0 I I #
point $-1 -68.897366252632224 34.283835764207694 -16.907443942019039 #
straight-curve $-1 -68.897366252632224 0 -1.5019741032585241 0 -1 0 I I #
point $-1 -68.897366252632224 -34.283835764207694 -1.5019741032585241 #
point $-1 -68.897366252632224 34.283835764207694 -1.5019741032585241 #
straight-curve $-1 -68.897366252632224 34.283835764207694 0 0 0 -1 I I #
straight-curve $-1 -68.897366252632224 -34.283835764207694 0 0 0 -1 I I #
straight-curve $-1 -30.857126396717121 34.283835764207694 71.433933553269938 0 0 -1 I I #
point $-1 -30.857126396717121 34.283835764207694 16.907443942019039 #
straight-curve $-1 -19.826818602624506 34.283835764207694 6.4017449561288018 -1 0 0 I I #
point $-1 -30.857126396717121 34.283835764207694 6.4017449561288018 #
point $-1 -43.423570408905533 26.341682450992895 8.6570726907890503 #
point $-1 -35.883704001592484 26.341682450992895 8.6570726907890503 #
straight-curve $-1 -0.1706217322189989 34.283835764207694 71.433933553269938 0 0 -1 I I #
point $-1 -0.1706217322189989 34.283835764207694 16.907443942019039 #
straight-curve $-1 -4.4835662703754444 34.283835764207694 6.4017449561288018 -1 0 0 I I #
point $-1 -0.1706217322189989 34.283835764207694 6.4017449561288018 #
point $-1 -12.73706574440741 26.341682450992895 8.6570726907890503 #
point $-1 -5.1971993370943608 26.341682450992895 8.6570726907890503 #
straight-curve $-1 30.515882932279126 34.283835764207694 71.433933553269938 0 0 -1 I I #
point $-1 30.515882932279126 34.283835764207694 16.907443942019039 #
straight-curve $-1 10.859686061873617 34.283835764207694 6.4017449561288018 -1 0 0 I I #
point $-1 30.515882932279126 34.283835764207694 6.4017449561288018 #
point $-1 17.949438920090714 26.341682450992895 8.6570726907890503 #
point $-1 25.48930532740377 26.341682450992895 8.6570726907890503 #
straight-curve $-1 61.202387596777257 34.283835764207694 71.433933553269938 0 0 -1 I I #
point $-1 61.202387596777257 34.283835764207694 16.907443942019039 #
straight-curve $-1 26.202938394122683 34.283835764207694 6.4017449561288018 -1 0 0 I I #
point $-1 61.202387596777257 34.283835764207694 6.4017449561288018 #
point $-1 48.63594358458883 26.341682450992895 8.6570726907890503 #
point $-1 56.1758099919019 26.341682450992895 8.6570726907890503 #
End-of-ACIS-data 