500 0 8 0           
7 Unknown 11 ACIS 5.0 NT 24 Thu Mar 25 23:23:15 1999 
-1 9.9999999999999995e-007 1e-010 
body $-1 $8 $-1 $9 #
body $-1 $10 $-1 $11 #
body $-1 $12 $-1 $13 #
body $-1 $14 $-1 $15 #
body $-1 $16 $-1 $17 #
body $-1 $18 $-1 $19 #
body $-1 $20 $-1 $21 #
body $-1 $22 $-1 $23 #
lump $-1 $-1 $24 $0 #
transform $-1 1 0 0 0 1 0 0 0 1 59.407330545976137 40.89165001575256 14.627123040547936 1 rotate no_reflect no_shear #
lump $-1 $-1 $25 $1 #
transform $-1 1 0 0 0 1 0 0 0 1 59.407330545976137 40.89165001575256 14.627123040547936 1 rotate no_reflect no_shear #
lump $-1 $-1 $26 $2 #
transform $-1 1 0 0 0 1 0 0 0 1 59.407330545976137 40.89165001575256 14.627123040547936 1 rotate no_reflect no_shear #
lump $-1 $-1 $27 $3 #
transform $-1 1 0 0 0 1 0 0 0 1 59.407330545976137 40.89165001575256 14.627123040547936 1 rotate no_reflect no_shear #
lump $-1 $-1 $28 $4 #
transform $-1 1 0 0 0 1 0 0 0 1 59.407330545976137 40.89165001575256 14.627123040547936 1 rotate no_reflect no_shear #
lump $-1 $-1 $29 $5 #
transform $-1 1 0 0 0 1 0 0 0 1 59.407330545976137 40.89165001575256 14.627123040547936 1 rotate no_reflect no_shear #
lump $-1 $-1 $30 $6 #
transform $-1 1 0 0 0 1 0 0 0 1 59.407330545976137 40.89165001575256 14.627123040547936 1 rotate no_reflect no_shear #
lump $-1 $-1 $31 $7 #
transform $-1 1 0 0 0 1 0 0 0 1 59.407330545976137 40.89165001575256 14.627123040547936 1 rotate no_reflect no_shear #
shell $-1 $-1 $-1 $32 $-1 $8 #
shell $-1 $-1 $-1 $33 $-1 $10 #
shell $-1 $-1 $-1 $34 $-1 $12 #
shell $-1 $-1 $-1 $35 $-1 $14 #
shell $-1 $-1 $-1 $36 $-1 $16 #
shell $-1 $-1 $-1 $37 $-1 $18 #
shell $-1 $-1 $-1 $38 $-1 $20 #
shell $-1 $-1 $-1 $39 $-1 $22 #
face $-1 $40 $41 $24 $-1 $42 forward single #
face $-1 $43 $44 $25 $-1 $45 forward single #
face $-1 $46 $47 $26 $-1 $48 reversed single #
face $-1 $49 $50 $27 $-1 $51 forward single #
face $-1 $52 $53 $28 $-1 $54 forward single #
face $-1 $55 $56 $29 $-1 $57 reversed single #
face $-1 $58 $59 $30 $-1 $60 forward single #
face $-1 $61 $62 $31 $-1 $63 forward single #
face $-1 $64 $65 $24 $-1 $66 reversed single #
loop $-1 $-1 $67 $32 #
plane-surface $-1 0 0 14.627123040547936 0 0 1 1 0 0 forward_v I I I I #
face $-1 $68 $69 $25 $-1 $70 reversed single #
loop $-1 $-1 $71 $33 #
plane-surface $-1 -59.407330545976137 0 0 1 0 0 0 0 -1 forward_v I I I I #
face $-1 $72 $73 $26 $-1 $74 reversed single #
loop $-1 $-1 $75 $34 #
plane-surface $-1 43.921269494876569 -40.89165001575256 9.8727818951129365 0 -0.61566148304635926 0.78801074757464917 1 0 0 forward_v I I I I #
face $-1 $76 $77 $27 $-1 $78 forward single #
loop $-1 $79 $80 $35 #
cone-surface $-1 37.28438618726247 -37.467864798552426 11.762108233694699 0 0.61566148304635926 -0.78801074757464917 0.5 0 0 1 I I 0 1 0.5 forward I I I I #
face $-1 $81 $82 $28 $-1 $83 forward single #
loop $-1 $84 $85 $36 #
cone-surface $-1 50.558152802490682 -37.467864798552426 11.762108233694699 0 0.61566148304635926 -0.78801074757464917 0.5 0 0 1 I I 0 1 0.5 forward I I I I #
face $-1 $86 $87 $29 $-1 $88 reversed single #
loop $-1 $-1 $89 $37 #
plane-surface $-1 43.921269494876569 -23.554469381195617 60.223609680934757 0 0.61566148304635926 0.78801074757464917 1 0 0 forward_v I I I I #
face $-1 $90 $91 $30 $-1 $92 forward single #
loop $-1 $93 $94 $38 #
cone-surface $-1 37.28438618726247 37.467864798552426 11.762108233694702 0 -0.61566148304635926 -0.78801074757464917 0.5 0 0 1 I I 0 1 0.5 forward I I I I #
face $-1 $95 $96 $31 $-1 $97 forward single #
loop $-1 $98 $99 $39 #
cone-surface $-1 50.558152802490682 37.467864798552426 11.762108233694702 0 -0.61566148304635926 -0.78801074757464917 0.5 0 0 1 I I 0 1 0.5 forward I I I I #
face $-1 $100 $101 $24 $-1 $102 reversed single #
loop $-1 $-1 $103 $40 #
plane-surface $-1 0 0 -14.627123040547936 0 0 1 1 0 0 forward_v I I I I #
coedge $-1 $104 $105 $106 $107 forward $41 $-1 #
face $-1 $108 $109 $25 $-1 $110 reversed single #
loop $-1 $-1 $111 $43 #
plane-surface $-1 0 0 -14.627123040547936 0 0 1 1 0 0 forward_v I I I I #
coedge $-1 $112 $113 $114 $115 forward $44 $-1 #
face $-1 $116 $117 $26 $-1 $118 reversed single #
loop $-1 $-1 $119 $46 #
plane-surface $-1 28.435208443777 -114.04126047127447 103.50001180501084 1 0 0 0 0.61566148304635926 -0.78801074757464917 forward_v I I I I #
coedge $-1 $120 $121 $122 $123 reversed $47 $-1 #
face $-1 $-1 $124 $27 $-1 $125 forward single #
loop $-1 $126 $127 $49 #
cone-surface $-1 37.28438618726247 -36.932803731989054 11.077261312665303 0 0.61566148304635926 -0.78801074757464917 0.25 0 0 1 I I -0.70710678118654746 0.70710678118654746 0.25 forward I I I I #
loop $-1 $-1 $128 $35 #
coedge $-1 $80 $80 $129 $130 reversed $50 $-1 #
face $-1 $-1 $131 $28 $-1 $132 forward single #
loop $-1 $133 $134 $52 #
cone-surface $-1 50.558152802490682 -36.932803731989054 11.077261312665303 0 0.61566148304635926 -0.78801074757464917 0.25 0 0 1 I I -0.70710678118654746 0.70710678118654746 0.25 forward I I I I #
loop $-1 $-1 $135 $36 #
coedge $-1 $85 $85 $136 $137 reversed $53 $-1 #
face $-1 $138 $139 $29 $-1 $140 reversed single #
loop $-1 $-1 $141 $55 #
plane-surface $-1 28.435208443777 49.595141074326293 153.85083959083266 1 0 0 0 -0.61566148304635926 -0.78801074757464917 forward_v I I I I #
coedge $-1 $142 $143 $144 $145 reversed $56 $-1 #
face $-1 $-1 $146 $30 $-1 $147 forward single #
loop $-1 $148 $149 $58 #
cone-surface $-1 37.28438618726247 36.932803731989054 11.077261312665307 0 -0.61566148304635926 -0.78801074757464917 0.25 0 0 1 I I -0.70710678118654746 0.70710678118654746 0.25 forward I I I I #
loop $-1 $-1 $150 $38 #
coedge $-1 $94 $94 $151 $152 reversed $59 $-1 #
face $-1 $-1 $153 $31 $-1 $154 forward single #
loop $-1 $155 $156 $61 #
cone-surface $-1 50.558152802490682 36.932803731989054 11.077261312665307 0 -0.61566148304635926 -0.78801074757464917 0.25 0 0 1 I I -0.70710678118654746 0.70710678118654746 0.25 forward I I I I #
loop $-1 $-1 $157 $39 #
coedge $-1 $99 $99 $158 $159 reversed $62 $-1 #
face $-1 $160 $161 $24 $-1 $162 reversed single #
loop $-1 $-1 $163 $64 #
plane-surface $-1 0 -40.89165001575256 0 0 1 0 0 0 1 forward_v I I I I #
coedge $-1 $164 $165 $166 $167 forward $65 $-1 #
coedge $-1 $168 $67 $169 $170 forward $41 $-1 #
coedge $-1 $67 $168 $171 $172 forward $41 $-1 #
coedge $-1 $173 $174 $67 $107 reversed $175 $-1 #
edge $-1 $176 -40.89165001575256 $177 40.89165001575256 $106 $178 forward 7 unknown #
face $-1 $179 $180 $25 $-1 $181 reversed single #
loop $-1 $-1 $182 $68 #
plane-surface $-1 -64.762981540467948 -29.647115586537986 0 0 1 0 0 0 1 forward_v I I I I #
coedge $-1 $183 $184 $113 $185 forward $69 $-1 #
coedge $-1 $186 $71 $187 $188 reversed $44 $-1 #
coedge $-1 $71 $186 $111 $185 reversed $44 $-1 #
coedge $-1 $189 $190 $71 $115 reversed $191 $-1 #
edge $-1 $192 -14.627123040547936 $193 14.627123040547936 $114 $194 forward 7 unknown #
face $-1 $195 $196 $26 $-1 $197 forward single #
loop $-1 $-1 $198 $72 #
plane-surface $-1 0 -40.89165001575256 0 0 1 0 0 0 1 forward_v I I I I #
coedge $-1 $199 $200 $201 $202 reversed $73 $-1 #
coedge $-1 $203 $75 $204 $205 reversed $47 $-1 #
coedge $-1 $75 $203 $199 $206 forward $47 $-1 #
coedge $-1 $201 $207 $75 $123 forward $196 $-1 #
edge $-1 $208 -37.446695798537853 $209 -6.4745736963387159 $122 $210 forward 7 unknown #
loop $-1 $-1 $129 $76 #
plane-surface $-1 43.921269494876569 -40.89165001575256 9.8727818951129365 0 -0.61566148304635926 0.78801074757464917 1 0 0 forward_v I I I I #
loop $-1 $-1 $211 $49 #
coedge $-1 $127 $127 $128 $212 reversed $77 $-1 #
coedge $-1 $128 $128 $127 $212 forward $79 $-1 #
coedge $-1 $129 $129 $80 $130 forward $124 $-1 #
edge $-1 $213 4.636499330812849e-015 $213 6.2831853071796049 $129 $214 forward 7 unknown #
loop $-1 $-1 $136 $81 #
plane-surface $-1 43.921269494876569 -40.89165001575256 9.8727818951129365 0 -0.61566148304635926 0.78801074757464917 1 0 0 forward_v I I I I #
loop $-1 $-1 $215 $52 #
coedge $-1 $134 $134 $135 $216 reversed $82 $-1 #
coedge $-1 $135 $135 $134 $216 forward $84 $-1 #
coedge $-1 $136 $136 $85 $137 forward $131 $-1 #
edge $-1 $217 4.636499330812849e-015 $217 6.2831853071796049 $136 $218 forward 7 unknown #
face $-1 $219 $220 $29 $-1 $221 forward single #
loop $-1 $-1 $144 $86 #
plane-surface $-1 0 40.89165001575256 0 0 -1 0 0 0 -1 forward_v I I I I #
coedge $-1 $222 $223 $224 $225 reversed $87 $-1 #
coedge $-1 $226 $89 $227 $228 reversed $56 $-1 #
coedge $-1 $89 $226 $222 $229 forward $56 $-1 #
coedge $-1 $224 $230 $89 $145 forward $139 $-1 #
edge $-1 $231 -37.446695798537853 $232 -6.4745736963387159 $144 $233 forward 7 unknown #
loop $-1 $-1 $151 $90 #
plane-surface $-1 43.921269494876569 -23.554469381195617 60.223609680934757 0 0.61566148304635926 0.78801074757464917 1 0 0 forward_v I I I I #
loop $-1 $-1 $234 $58 #
coedge $-1 $149 $149 $150 $235 reversed $91 $-1 #
coedge $-1 $150 $150 $149 $235 forward $93 $-1 #
coedge $-1 $151 $151 $94 $152 forward $146 $-1 #
edge $-1 $236 -4.8984607169668923e-015 $236 6.2831853071795951 $151 $237 forward 7 unknown #
loop $-1 $-1 $158 $95 #
plane-surface $-1 43.921269494876569 -23.554469381195617 60.223609680934757 0 0.61566148304635926 0.78801074757464917 1 0 0 forward_v I I I I #
loop $-1 $-1 $238 $61 #
coedge $-1 $156 $156 $157 $239 reversed $96 $-1 #
coedge $-1 $157 $157 $156 $239 forward $98 $-1 #
coedge $-1 $158 $158 $99 $159 forward $153 $-1 #
edge $-1 $240 -4.8984607169668923e-015 $240 6.2831853071795951 $158 $241 forward 7 unknown #
face $-1 $242 $243 $24 $-1 $244 reversed single #
loop $-1 $-1 $245 $100 #
plane-surface $-1 -59.407330545976137 0 0 1 0 0 0 0 -1 forward_v I I I I #
coedge $-1 $246 $171 $247 $248 forward $101 $-1 #
coedge $-1 $249 $103 $246 $250 forward $65 $-1 #
coedge $-1 $103 $249 $251 $252 forward $65 $-1 #
coedge $-1 $174 $173 $103 $167 reversed $175 $-1 #
edge $-1 $253 -40.89165001575256 $254 40.89165001575256 $166 $255 forward 7 unknown #
coedge $-1 $105 $104 $256 $257 forward $41 $-1 #
coedge $-1 $258 $259 $104 $170 reversed $243 $-1 #
edge $-1 $177 -59.407330545976137 $260 59.407330545976137 $169 $261 forward 7 unknown #
coedge $-1 $163 $262 $105 $172 reversed $101 $-1 #
edge $-1 $263 -59.407330545976137 $176 59.407330545976137 $171 $264 forward 7 unknown #
coedge $-1 $166 $106 $262 $265 forward $175 $-1 #
coedge $-1 $106 $166 $258 $266 reversed $175 $-1 #
loop $-1 $-1 $173 $242 #
vertex $-1 $107 $267 #
vertex $-1 $107 $268 #
straight-curve $-1 59.407330545976137 0 14.627123040547936 0 1 0 I I #
face $-1 $269 $191 $25 $-1 $270 reversed single #
loop $-1 $-1 $271 $108 #
plane-surface $-1 -70.118632534959758 -25.732606945073435 0 1 0 0 0 0 -1 forward_v I I I I #
coedge $-1 $272 $273 $274 $275 forward $109 $-1 #
coedge $-1 $276 $111 $272 $277 forward $69 $-1 #
coedge $-1 $111 $276 $189 $278 forward $69 $-1 #
edge $-1 $192 21.818098303608885 $279 29.647115586537986 $111 $280 forward 7 unknown #
coedge $-1 $113 $112 $281 $282 forward $44 $-1 #
coedge $-1 $283 $284 $112 $188 forward $285 $-1 #
edge $-1 $286 -29.647115586537986 $193 -21.818098303608885 $187 $287 forward 7 unknown #
coedge $-1 $288 $114 $184 $278 reversed $191 $-1 #
coedge $-1 $114 $288 $283 $289 reversed $191 $-1 #
loop $-1 $-1 $114 $179 #
vertex $-1 $185 $290 #
vertex $-1 $289 $291 #
straight-curve $-1 -59.407330545976137 -21.818098303608885 0 0 0 1 I I #
face $-1 $-1 $292 $26 $-1 $293 reversed single #
loop $-1 $-1 $201 $116 #
plane-surface $-1 0 0 14.627123040547936 0 0 1 1 0 0 forward_v I I I I #
coedge $-1 $294 $295 $200 $296 forward $117 $-1 #
coedge $-1 $200 $119 $121 $206 reversed $73 $-1 #
coedge $-1 $119 $199 $198 $296 reversed $73 $-1 #
coedge $-1 $297 $122 $119 $202 forward $196 $-1 #
edge $-1 $209 -22.214259262681374 $298 -16.128980219884674 $201 $299 forward 7 unknown #
coedge $-1 $121 $120 $294 $300 reversed $47 $-1 #
coedge $-1 $301 $302 $120 $205 forward $292 $-1 #
edge $-1 $303 -13.072384077567808 $208 -5.3500540693463989 $204 $304 forward 7 unknown #
edge $-1 $305 0 $209 7.7223300082214106 $199 $306 forward 7 unknown #
coedge $-1 $122 $297 $301 $307 forward $196 $-1 #
vertex $-1 $205 $308 #
vertex $-1 $123 $309 #
straight-curve $-1 21.960634747438284 -34.806370972955861 14.627123040547936 -1 0 0 I I #
coedge $-1 $211 $211 $-1 $310 reversed $126 $-1 #
edge $-1 $311 0 $311 6.2831853071796004 $127 $312 forward 7 unknown #
vertex $-1 $130 $313 #
ellipse-curve $-1 37.28438618726247 -37.849010494354211 12.249952467830436 0 -0.61566148304635926 0.78801074757464917 0.5 0 0 1 I I #
coedge $-1 $215 $215 $-1 $314 reversed $133 $-1 #
edge $-1 $315 0 $315 6.2831853071796004 $134 $316 forward 7 unknown #
vertex $-1 $137 $317 #
ellipse-curve $-1 50.558152802490682 -37.849010494354211 12.249952467830436 0 -0.61566148304635926 0.78801074757464917 0.5 0 0 1 I I #
face $-1 $-1 $318 $29 $-1 $319 reversed single #
loop $-1 $-1 $320 $138 #
plane-surface $-1 0 0 14.627123040547936 0 0 1 1 0 0 forward_v I I I I #
coedge $-1 $223 $141 $143 $229 reversed $87 $-1 #
coedge $-1 $141 $222 $321 $322 reversed $87 $-1 #
coedge $-1 $323 $144 $141 $225 forward $139 $-1 #
edge $-1 $232 -67.052637900303381 $324 -62.298296754868396 $224 $325 forward 7 unknown #
coedge $-1 $143 $142 $320 $326 reversed $56 $-1 #
coedge $-1 $327 $328 $142 $228 forward $318 $-1 #
edge $-1 $329 46.241704085098966 $231 53.964034093320365 $227 $330 forward 7 unknown #
edge $-1 $331 74.060970023283716 $232 81.783300031505121 $222 $332 forward 7 unknown #
coedge $-1 $144 $323 $327 $333 forward $139 $-1 #
vertex $-1 $228 $334 #
vertex $-1 $145 $335 #
straight-curve $-1 21.960634747438284 40.89165001575256 9.8727818951129507 -1 0 0 I I #
coedge $-1 $234 $234 $-1 $336 reversed $148 $-1 #
edge $-1 $337 0 $337 6.2831853071796004 $149 $338 forward 7 unknown #
vertex $-1 $152 $339 #
ellipse-curve $-1 37.28438618726247 37.849010494354218 12.249952467830449 0 0.61566148304635926 0.78801074757464917 0.5 0 0 1 I I #
coedge $-1 $238 $238 $-1 $340 reversed $155 $-1 #
edge $-1 $341 0 $341 6.2831853071796004 $156 $342 forward 7 unknown #
vertex $-1 $159 $343 #
ellipse-curve $-1 50.558152802490682 37.849010494354218 12.249952467830449 0 0.61566148304635926 0.78801074757464917 0.5 0 0 1 I I #
face $-1 $-1 $175 $24 $-1 $344 reversed single #
loop $-1 $-1 $258 $160 #
plane-surface $-1 0 40.89165001575256 0 0 -1 0 0 0 -1 forward_v I I I I #
coedge $-1 $345 $256 $259 $346 forward $161 $-1 #
coedge $-1 $262 $163 $164 $250 reversed $101 $-1 #
coedge $-1 $256 $345 $163 $248 reversed $161 $-1 #
edge $-1 $263 -14.627123040547936 $347 14.627123040547936 $247 $348 forward 7 unknown #
coedge $-1 $165 $164 $345 $349 forward $65 $-1 #
edge $-1 $254 -59.407330545976137 $347 59.407330545976137 $246 $350 forward 7 unknown #
coedge $-1 $259 $258 $165 $252 reversed $243 $-1 #
edge $-1 $351 -59.407330545976137 $253 59.407330545976137 $251 $352 forward 7 unknown #
vertex $-1 $167 $353 #
vertex $-1 $265 $354 #
straight-curve $-1 59.407330545976137 0 -14.627123040547936 0 -1 0 I I #
coedge $-1 $245 $247 $168 $257 reversed $161 $-1 #
edge $-1 $260 -40.89165001575256 $263 40.89165001575256 $256 $355 forward 7 unknown #
coedge $-1 $251 $169 $174 $266 forward $243 $-1 #
coedge $-1 $169 $251 $245 $346 reversed $243 $-1 #
vertex $-1 $170 $356 #
straight-curve $-1 0 40.89165001575256 14.627123040547936 -1 0 0 I I #
coedge $-1 $171 $246 $173 $265 reversed $101 $-1 #
vertex $-1 $257 $357 #
straight-curve $-1 0 -40.89165001575256 14.627123040547936 1 0 0 I I #
edge $-1 $176 -14.627123040547936 $254 14.627123040547936 $173 $358 forward 7 unknown #
edge $-1 $177 -14.627123040547936 $253 14.627123040547936 $174 $359 forward 7 unknown #
point $-1 59.407330545976137 -40.89165001575256 14.627123040547936 #
point $-1 59.407330545976137 40.89165001575256 14.627123040547936 #
face $-1 $-1 $285 $25 $-1 $360 forward single #
plane-surface $-1 -64.762981540467948 -21.818098303608885 0 0 -1 0 0 0 -1 forward_v I I I I #
coedge $-1 $361 $362 $288 $363 forward $180 $-1 #
coedge $-1 $281 $182 $183 $277 reversed $109 $-1 #
coedge $-1 $182 $281 $284 $364 reversed $109 $-1 #
coedge $-1 $362 $361 $182 $275 reversed $180 $-1 #
edge $-1 $365 -14.627123040547936 $366 14.627123040547936 $274 $367 forward 7 unknown #
coedge $-1 $184 $183 $361 $368 forward $69 $-1 #
edge $-1 $279 -5.3556509944918105 $366 5.3556509944918105 $272 $369 forward 7 unknown #
edge $-1 $370 -5.3556509944918105 $192 5.3556509944918105 $189 $371 forward 7 unknown #
vertex $-1 $277 $372 #
straight-curve $-1 -59.407330545976137 0 -14.627123040547936 0 -1 0 I I #
coedge $-1 $273 $272 $186 $282 reversed $109 $-1 #
edge $-1 $286 -14.627123040547936 $279 14.627123040547936 $281 $373 forward 7 unknown #
coedge $-1 $374 $187 $190 $289 forward $285 $-1 #
coedge $-1 $187 $374 $273 $364 forward $285 $-1 #
loop $-1 $-1 $187 $269 #
vertex $-1 $188 $375 #
straight-curve $-1 -59.407330545976137 0 14.627123040547936 0 1 0 I I #
coedge $-1 $190 $189 $271 $363 reversed $191 $-1 #
edge $-1 $193 -5.3556509944918105 $376 5.3556509944918105 $190 $377 forward 7 unknown #
point $-1 -59.407330545976137 -21.818098303608885 -14.627123040547936 #
point $-1 -59.407330545976137 -21.818098303608885 14.627123040547936 #
loop $-1 $-1 $204 $195 #
plane-surface $-1 59.407330545976137 0 0 -1 0 0 0 0 1 forward_v I I I I #
coedge $-1 $378 $198 $203 $300 forward $117 $-1 #
coedge $-1 $198 $378 $297 $379 reversed $117 $-1 #
edge $-1 $298 37.122882861957486 $305 41.877224007392485 $198 $380 forward 7 unknown #
coedge $-1 $207 $201 $295 $379 forward $196 $-1 #
vertex $-1 $379 $381 #
straight-curve $-1 28.435208443777 -57.020630235637235 14.627123040547936 0 -1 0 I I #
edge $-1 $305 6.4745736963387159 $303 37.446695798537853 $294 $382 forward 7 unknown #
coedge $-1 $302 $204 $207 $307 reversed $292 $-1 #
coedge $-1 $204 $301 $378 $383 forward $292 $-1 #
vertex $-1 $300 $384 #
straight-curve $-1 59.407330545976137 -30.590470866205408 17.920945263259945 0 0.78801074757464917 0.61566148304635926 I I #
vertex $-1 $300 $385 #
straight-curve $-1 28.435208443777 -40.89165001575256 9.8727818951129365 0 0.78801074757464917 0.61566148304635926 I I #
edge $-1 $386 -40.89165001575256 $208 -34.806370972955861 $301 $387 forward 7 unknown #
point $-1 59.407330545976137 -34.806370972955861 14.627123040547936 #
point $-1 28.435208443777 -34.806370972955861 14.627123040547936 #
edge $-1 $388 1 $388 0 $211 $-1 forward 7 unknown #
vertex $-1 $212 $389 #
ellipse-curve $-1 37.28438618726247 -37.086719102750642 11.274263999558965 0 -0.61566148304635926 0.78801074757464917 0.5 0 0 1 I I #
point $-1 37.78438618726247 -37.849010494354204 12.249952467830431 #
edge $-1 $390 1 $390 0 $215 $-1 forward 7 unknown #
vertex $-1 $216 $391 #
ellipse-curve $-1 50.558152802490682 -37.086719102750642 11.274263999558965 0 -0.61566148304635926 0.78801074757464917 0.5 0 0 1 I I #
point $-1 51.058152802490682 -37.849010494354204 12.249952467830431 #
loop $-1 $-1 $227 $219 #
plane-surface $-1 59.407330545976137 0 0 -1 0 0 0 0 1 forward_v I I I I #
coedge $-1 $392 $321 $226 $326 forward $220 $-1 #
coedge $-1 $320 $393 $223 $322 forward $220 $-1 #
edge $-1 $324 -16.094079478589414 $331 -10.008800435792729 $321 $394 forward 7 unknown #
coedge $-1 $230 $224 $393 $395 reversed $139 $-1 #
vertex $-1 $225 $396 #
straight-curve $-1 28.435208443777 40.89165001575256 76.925419795416332 0 0 1 I I #
edge $-1 $331 6.4745736963387159 $329 37.446695798537853 $320 $397 forward 7 unknown #
coedge $-1 $328 $227 $230 $333 reversed $318 $-1 #
coedge $-1 $227 $327 $392 $398 reversed $318 $-1 #
vertex $-1 $398 $399 #
straight-curve $-1 59.407330545976137 -1.6325888322686719 43.096359156170863 0 0.78801074757464917 -0.61566148304635926 I I #
vertex $-1 $326 $400 #
straight-curve $-1 28.435208443777 -23.554469381195617 60.223609680934757 0 0.78801074757464917 -0.61566148304635926 I I #
edge $-1 $401 -14.627123040547936 $231 -9.8727818951129542 $327 $402 forward 7 unknown #
point $-1 59.407330545976137 40.89165001575256 9.8727818951129542 #
point $-1 28.435208443777 40.89165001575256 9.8727818951129578 #
edge $-1 $403 1 $403 0 $234 $-1 forward 7 unknown #
vertex $-1 $235 $404 #
ellipse-curve $-1 37.28438618726247 37.086719102750642 11.274263999558968 0 0.61566148304635926 0.78801074757464917 0.5 0 0 1 I I #
point $-1 37.78438618726247 37.849010494354204 12.249952467830434 #
edge $-1 $405 1 $405 0 $238 $-1 forward 7 unknown #
vertex $-1 $239 $406 #
ellipse-curve $-1 50.558152802490682 37.086719102750642 11.274263999558968 0 0.61566148304635926 0.78801074757464917 0.5 0 0 1 I I #
point $-1 51.058152802490682 37.849010494354204 12.249952467830434 #
plane-surface $-1 59.407330545976137 0 0 -1 0 0 0 0 1 forward_v I I I I #
coedge $-1 $247 $245 $249 $349 reversed $161 $-1 #
edge $-1 $260 -14.627123040547936 $351 14.627123040547936 $259 $407 forward 7 unknown #
vertex $-1 $349 $408 #
straight-curve $-1 -59.407330545976137 -40.89165001575256 0 0 0 -1 I I #
edge $-1 $347 -40.89165001575256 $351 40.89165001575256 $345 $409 forward 7 unknown #
straight-curve $-1 0 -40.89165001575256 -14.627123040547936 -1 0 0 I I #
vertex $-1 $252 $410 #
straight-curve $-1 0 40.89165001575256 -14.627123040547936 1 0 0 I I #
point $-1 59.407330545976137 40.89165001575256 -14.627123040547936 #
point $-1 59.407330545976137 -40.89165001575256 -14.627123040547936 #
straight-curve $-1 -59.407330545976137 0 14.627123040547936 0 -1 0 I I #
point $-1 -59.407330545976137 40.89165001575256 14.627123040547936 #
point $-1 -59.407330545976137 -40.89165001575256 14.627123040547936 #
straight-curve $-1 59.407330545976137 -40.89165001575256 0 0 0 -1 I I #
straight-curve $-1 59.407330545976137 40.89165001575256 0 0 0 -1 I I #
plane-surface $-1 0 0 14.627123040547936 0 0 1 1 0 0 forward_v I I I I #
coedge $-1 $274 $271 $276 $368 reversed $180 $-1 #
coedge $-1 $271 $274 $374 $411 reversed $180 $-1 #
edge $-1 $376 -14.627123040547936 $370 14.627123040547936 $288 $412 forward 7 unknown #
edge $-1 $365 -5.3556509944918105 $286 5.3556509944918105 $273 $413 forward 7 unknown #
vertex $-1 $411 $414 #
vertex $-1 $368 $415 #
straight-curve $-1 -70.118632534959758 -29.647115586537986 0 0 0 -1 I I #
edge $-1 $366 -3.9145086414645505 $370 3.9145086414645505 $361 $416 forward 7 unknown #
straight-curve $-1 -64.762981540467948 -29.647115586537986 -14.627123040547936 -1 0 0 I I #
vertex $-1 $278 $417 #
straight-curve $-1 -64.762981540467948 -21.818098303608885 -14.627123040547936 1 0 0 I I #
point $-1 -59.407330545976137 -29.647115586537986 -14.627123040547936 #
straight-curve $-1 -59.407330545976137 -29.647115586537986 0 0 0 -1 I I #
coedge $-1 $284 $283 $362 $411 forward $285 $-1 #
point $-1 -59.407330545976137 -29.647115586537986 14.627123040547936 #
vertex $-1 $289 $418 #
straight-curve $-1 -64.762981540467948 -21.818098303608885 14.627123040547936 -1 0 0 I I #
coedge $-1 $295 $294 $302 $383 reversed $117 $-1 #
edge $-1 $298 28.435208443777 $386 59.407330545976137 $295 $419 forward 7 unknown #
straight-curve $-1 28.435208443777 -40.89165001575256 51.750005902505421 0 0 -1 I I #
point $-1 28.435208443777 -40.89165001575256 14.627123040547936 #
straight-curve $-1 21.960634747438284 -40.89165001575256 9.8727818951129365 1 0 0 I I #
edge $-1 $386 -14.627123040547936 $303 -9.8727818951129365 $302 $420 forward 7 unknown #
point $-1 59.407330545976137 -40.89165001575256 9.8727818951129365 #
point $-1 28.435208443777 -40.89165001575256 9.8727818951129365 #
vertex $-1 $307 $421 #
straight-curve $-1 59.407330545976137 0 14.627123040547936 0 1 0 I I #
vertex $-1 $310 $422 #
point $-1 37.78438618726247 -37.086719102750642 11.274263999558965 #
vertex $-1 $314 $423 #
point $-1 51.058152802490682 -37.086719102750642 11.274263999558965 #
coedge $-1 $393 $320 $328 $398 forward $220 $-1 #
coedge $-1 $321 $392 $323 $395 forward $220 $-1 #
straight-curve $-1 28.435208443777 24.797570537163146 14.627123040547929 0 -1 0 I I #
edge $-1 $401 -59.407330545976137 $324 -28.435208443777 $323 $424 forward 7 unknown #
point $-1 28.435208443777 40.89165001575256 14.627123040547936 #
straight-curve $-1 21.960634747438284 34.806370972955889 14.627123040547932 1 0 0 I I #
edge $-1 $329 34.806370972955875 $401 40.89165001575256 $328 $425 forward 7 unknown #
point $-1 59.407330545976137 34.806370972955875 14.627123040547943 #
point $-1 28.435208443777 34.806370972955875 14.627123040547943 #
vertex $-1 $398 $426 #
straight-curve $-1 59.407330545976137 40.89165001575256 0 0 0 -1 I I #
vertex $-1 $336 $427 #
point $-1 37.78438618726247 37.086719102750642 11.274263999558968 #
vertex $-1 $340 $428 #
point $-1 51.058152802490682 37.086719102750642 11.274263999558968 #
straight-curve $-1 -59.407330545976137 40.89165001575256 0 0 0 -1 I I #
point $-1 -59.407330545976137 -40.89165001575256 -14.627123040547936 #
straight-curve $-1 -59.407330545976137 0 -14.627123040547936 0 1 0 I I #
point $-1 -59.407330545976137 40.89165001575256 -14.627123040547936 #
edge $-1 $376 -3.9145086414645505 $365 3.9145086414645505 $362 $429 forward 7 unknown #
straight-curve $-1 -70.118632534959758 -21.818098303608885 0 0 0 -1 I I #
straight-curve $-1 -64.762981540467948 -29.647115586537986 14.627123040547936 1 0 0 I I #
point $-1 -70.118632534959758 -29.647115586537986 14.627123040547936 #
point $-1 -70.118632534959758 -29.647115586537986 -14.627123040547936 #
straight-curve $-1 -70.118632534959758 -25.732606945073435 -14.627123040547936 0 1 0 I I #
point $-1 -70.118632534959758 -21.818098303608885 -14.627123040547936 #
point $-1 -70.118632534959758 -21.818098303608885 14.627123040547936 #
straight-curve $-1 0 -40.89165001575256 14.627123040547936 1 0 0 I I #
straight-curve $-1 59.407330545976137 -40.89165001575256 0 0 0 -1 I I #
point $-1 59.407330545976137 -40.89165001575256 14.627123040547936 #
point $-1 37.28438618726247 -36.778888361227466 10.880258625771642 #
point $-1 50.558152802490682 -36.778888361227466 10.880258625771642 #
straight-curve $-1 0 40.89165001575256 14.627123040547936 -1 0 0 I I #
straight-curve $-1 59.407330545976137 0 14.627123040547936 0 1 0 I I #
point $-1 59.407330545976137 40.89165001575256 14.627123040547936 #
point $-1 37.28438618726247 36.778888361227466 10.880258625771646 #
point $-1 50.558152802490682 36.778888361227466 10.880258625771646 #
straight-curve $-1 -70.118632534959758 -25.732606945073435 14.627123040547936 0 -1 0 I I #
End-of-ACIS-data 