500 0 11 0           
7 Unknown 11 ACIS 5.0 NT 24 Fri Mar 26 02:42:05 1999 
-1 9.9999999999999995e-007 1e-010 
body $-1 $11 $-1 $12 #
body $-1 $13 $-1 $14 #
body $-1 $15 $-1 $16 #
body $-1 $17 $-1 $18 #
body $-1 $19 $-1 $20 #
body $-1 $21 $-1 $22 #
body $-1 $23 $-1 $24 #
body $-1 $25 $-1 $26 #
body $-1 $27 $-1 $28 #
body $-1 $29 $-1 $30 #
body $-1 $31 $-1 $32 #
lump $-1 $-1 $33 $0 #
transform $-1 1 0 0 0 1 0 0 0 1 72.911160618915375 36.036141429588746 12.448838859591351 1 rotate no_reflect no_shear #
lump $-1 $-1 $34 $1 #
transform $-1 1 0 0 0 1 0 0 0 1 72.911160618915375 36.036141429588746 12.448838859591351 1 rotate no_reflect no_shear #
lump $-1 $-1 $35 $2 #
transform $-1 1 0 0 0 1 0 0 0 1 72.911160618915375 36.036141429588746 12.448838859591351 1 rotate no_reflect no_shear #
lump $-1 $-1 $36 $3 #
transform $-1 1 0 0 0 1 0 0 0 1 72.911160618915375 36.036141429588746 12.448838859591351 1 rotate no_reflect no_shear #
lump $-1 $-1 $37 $4 #
transform $-1 1 0 0 0 1 0 0 0 1 72.911160618915375 36.036141429588746 12.448838859591351 1 rotate no_reflect no_shear #
lump $-1 $-1 $38 $5 #
transform $-1 1 0 0 0 1 0 0 0 1 72.911160618915375 36.036141429588746 12.448838859591351 1 rotate no_reflect no_shear #
lump $-1 $-1 $39 $6 #
transform $-1 1 0 0 0 1 0 0 0 1 72.911160618915375 36.036141429588746 12.448838859591351 1 rotate no_reflect no_shear #
lump $-1 $-1 $40 $7 #
transform $-1 1 0 0 0 1 0 0 0 1 72.911160618915375 36.036141429588746 12.448838859591351 1 rotate no_reflect no_shear #
lump $-1 $-1 $41 $8 #
transform $-1 1 0 0 0 1 0 0 0 1 72.911160618915375 36.036141429588746 12.448838859591351 1 rotate no_reflect no_shear #
lump $-1 $-1 $42 $9 #
transform $-1 1 0 0 0 1 0 0 0 1 72.911160618915375 36.036141429588746 12.448838859591351 1 rotate no_reflect no_shear #
lump $-1 $-1 $43 $10 #
transform $-1 1 0 0 0 1 0 0 0 1 72.911160618915375 36.036141429588746 12.448838859591351 1 rotate no_reflect no_shear #
shell $-1 $-1 $-1 $44 $-1 $11 #
shell $-1 $-1 $-1 $45 $-1 $13 #
shell $-1 $-1 $-1 $46 $-1 $15 #
shell $-1 $-1 $-1 $47 $-1 $17 #
shell $-1 $-1 $-1 $48 $-1 $19 #
shell $-1 $-1 $-1 $49 $-1 $21 #
shell $-1 $-1 $-1 $50 $-1 $23 #
shell $-1 $-1 $-1 $51 $-1 $25 #
shell $-1 $-1 $-1 $52 $-1 $27 #
shell $-1 $-1 $-1 $53 $-1 $29 #
shell $-1 $-1 $-1 $54 $-1 $31 #
face $-1 $55 $56 $33 $-1 $57 forward single #
face $-1 $58 $59 $34 $-1 $60 forward single #
face $-1 $61 $62 $35 $-1 $63 forward single #
face $-1 $64 $65 $36 $-1 $66 reversed single #
face $-1 $67 $68 $37 $-1 $69 forward single #
face $-1 $70 $71 $38 $-1 $72 reversed single #
face $-1 $73 $74 $39 $-1 $75 forward single #
face $-1 $76 $77 $40 $-1 $78 reversed single #
face $-1 $79 $80 $41 $-1 $81 forward single #
face $-1 $82 $83 $42 $-1 $84 forward single #
face $-1 $85 $86 $43 $-1 $87 forward single #
face $-1 $88 $89 $33 $-1 $90 reversed single #
loop $-1 $-1 $91 $44 #
plane-surface $-1 0 0 12.448838859591351 0 0 1 1 0 0 forward_v I I I I #
face $-1 $92 $93 $34 $-1 $94 reversed single #
loop $-1 $-1 $95 $45 #
plane-surface $-1 0 -36.036141429588746 0 0 1 0 0 0 1 forward_v I I I I #
face $-1 $96 $97 $35 $-1 $98 reversed single #
loop $-1 $-1 $99 $46 #
plane-surface $-1 0 36.036141429588746 0 0 -1 0 0 0 -1 forward_v I I I I #
face $-1 $100 $101 $36 $-1 $102 reversed single #
loop $-1 $-1 $103 $47 #
plane-surface $-1 -168.57921225874753 -10.194635466110164 114.10646457932161 0 1 0 -0.6560590369687036 0 0.75470957328743171 forward_v I I I I #
face $-1 $104 $105 $37 $-1 $106 forward single #
loop $-1 $107 $108 $48 #
cone-surface $-1 -67.50080843714197 -6.6972341444217136 7.582333193703386 0.6560590369687036 0 -0.75470957328743171 0.75470957328743171 0 0.6560590369687036 1 I I 0 1 1 forward I I I I #
face $-1 $109 $110 $38 $-1 $111 reversed single #
loop $-1 $-1 $112 $49 #
plane-surface $-1 -168.57921225874753 3.1998328227332564 114.10646457932161 0 1 0 -0.6560590369687036 0 0.75470957328743171 forward_v I I I I #
face $-1 $113 $114 $39 $-1 $115 forward single #
loop $-1 $116 $117 $50 #
cone-surface $-1 -67.50080843714197 6.6972341444217065 7.582333193703386 0.6560590369687036 0 -0.75470957328743171 0.75470957328743171 0 0.6560590369687036 1 I I 0 1 1 forward I I I I #
face $-1 $118 $119 $40 $-1 $120 reversed single #
loop $-1 $-1 $121 $51 #
plane-surface $-1 112.26053956134589 -12.042102291765676 203.27038175258281 0 -1 0 -0.82903758062907751 0 -0.55919289150049634 forward_v I I I I #
face $-1 $122 $123 $41 $-1 $124 forward single #
loop $-1 $125 $126 $52 #
cone-surface $-1 68.579957506343874 -18.095572319329971 6.3625189308247592 -0.82903758062907751 0 -0.55919289150049634 0.27959644575024817 0 -0.41451879031453875 1 I I 0 1 0.5 forward I I I I #
face $-1 $127 $128 $42 $-1 $129 forward single #
loop $-1 $130 $131 $53 #
cone-surface $-1 68.579957506343874 -15.82552105899336 6.3625189308247592 -0.82903758062907751 0 -0.55919289150049634 0.27959644575024817 0 -0.41451879031453875 1 I I 0 1 0.5 forward I I I I #
face $-1 $132 $133 $43 $-1 $134 forward single #
loop $-1 $135 $136 $54 #
cone-surface $-1 68.579957506343874 -13.555469798656752 6.3625189308247592 -0.82903758062907751 0 -0.55919289150049634 0.27959644575024817 0 -0.41451879031453875 1 I I 0 1 0.5 forward I I I I #
face $-1 $137 $138 $33 $-1 $139 reversed single #
loop $-1 $-1 $140 $55 #
plane-surface $-1 0 0 -12.448838859591351 0 0 1 1 0 0 forward_v I I I I #
coedge $-1 $141 $142 $143 $144 forward $56 $-1 #
face $-1 $145 $146 $34 $-1 $147 forward single #
loop $-1 $-1 $148 $58 #
plane-surface $-1 -72.911160618915375 0 0 1 0 0 0 0 -1 forward_v I I I I #
coedge $-1 $149 $150 $151 $152 forward $59 $-1 #
face $-1 $153 $154 $35 $-1 $155 forward single #
loop $-1 $-1 $156 $61 #
plane-surface $-1 72.911160618915375 0 0 -1 0 0 0 0 1 forward_v I I I I #
coedge $-1 $157 $158 $159 $160 forward $62 $-1 #
face $-1 $161 $162 $36 $-1 $163 reversed single #
loop $-1 $-1 $164 $64 #
plane-surface $-1 -72.91116061891536 -6.6972341444217136 4.0529627421355769 -0.6560590369687036 0 0.75470957328743171 0.75470957328743171 0 0.6560590369687036 forward_v I I I I #
coedge $-1 $165 $166 $167 $168 reversed $65 $-1 #
face $-1 $-1 $169 $37 $-1 $170 forward single #
loop $-1 $171 $172 $67 #
cone-surface $-1 -66.591601952011587 -6.6972341444217136 6.536410799899592 0.6560590369687036 0 -0.75470957328743171 0.37735478664371586 0 0.3280295184843518 1 I I -0.70710678118654746 0.70710678118654746 0.5 forward I I I I #
loop $-1 $-1 $173 $48 #
coedge $-1 $108 $108 $174 $175 reversed $68 $-1 #
face $-1 $176 $177 $38 $-1 $178 reversed single #
loop $-1 $-1 $179 $70 #
plane-surface $-1 -72.91116061891536 6.6972341444217065 4.0529627421355769 -0.6560590369687036 0 0.75470957328743171 0.75470957328743171 0 0.6560590369687036 forward_v I I I I #
coedge $-1 $180 $181 $182 $183 reversed $71 $-1 #
face $-1 $-1 $184 $39 $-1 $185 forward single #
loop $-1 $186 $187 $73 #
cone-surface $-1 -66.591601952011587 6.6972341444217065 6.536410799899592 0.6560590369687036 0 -0.75470957328743171 0.37735478664371586 0 0.3280295184843518 1 I I -0.70710678118654746 0.70710678118654746 0.5 forward I I I I #
loop $-1 $-1 $188 $50 #
coedge $-1 $117 $117 $189 $190 reversed $74 $-1 #
face $-1 $191 $192 $40 $-1 $193 reversed single #
loop $-1 $-1 $194 $76 #
plane-surface $-1 -8.6316448393814511 -15.82552105899336 121.727576294286 0.82903758062907751 0 0.55919289150049634 0.55919289150049634 0 -0.82903758062907751 forward_v I I I I #
coedge $-1 $195 $196 $197 $198 reversed $77 $-1 #
face $-1 $-1 $199 $41 $-1 $200 forward single #
loop $-1 $201 $202 $79 #
cone-surface $-1 67.958179320872063 -18.095572319329971 5.9431242621993867 -0.82903758062907751 0 -0.55919289150049634 0.13979822287512408 0 -0.20725939515726938 1 I I -0.70710678118654746 0.70710678118654746 0.25 forward I I I I #
loop $-1 $-1 $203 $52 #
coedge $-1 $126 $126 $204 $205 reversed $80 $-1 #
face $-1 $-1 $206 $42 $-1 $207 forward single #
loop $-1 $208 $209 $82 #
cone-surface $-1 67.958179320872063 -15.82552105899336 5.9431242621993867 -0.82903758062907751 0 -0.55919289150049634 0.13979822287512408 0 -0.20725939515726938 1 I I -0.70710678118654746 0.70710678118654746 0.25 forward I I I I #
loop $-1 $-1 $210 $53 #
coedge $-1 $131 $131 $211 $212 reversed $83 $-1 #
face $-1 $-1 $213 $43 $-1 $214 forward single #
loop $-1 $215 $216 $85 #
cone-surface $-1 67.958179320872063 -13.555469798656752 5.9431242621993867 -0.82903758062907751 0 -0.55919289150049634 0.13979822287512408 0 -0.20725939515726938 1 I I -0.70710678118654746 0.70710678118654746 0.25 forward I I I I #
loop $-1 $-1 $217 $54 #
coedge $-1 $136 $136 $218 $219 reversed $86 $-1 #
face $-1 $220 $221 $33 $-1 $222 reversed single #
loop $-1 $-1 $223 $88 #
plane-surface $-1 0 -36.036141429588746 0 0 1 0 0 0 1 forward_v I I I I #
coedge $-1 $224 $225 $226 $227 forward $89 $-1 #
coedge $-1 $228 $91 $229 $230 forward $56 $-1 #
coedge $-1 $91 $228 $231 $232 forward $56 $-1 #
coedge $-1 $233 $234 $91 $144 reversed $235 $-1 #
edge $-1 $236 -36.036141429588746 $237 36.036141429588746 $143 $238 forward 7 unknown #
face $-1 $239 $240 $34 $-1 $241 reversed single #
loop $-1 $-1 $242 $92 #
plane-surface $-1 0 -44.249742231272599 8.4829788831061705 0 0 1 1 0 0 forward_v I I I I #
coedge $-1 $243 $244 $150 $245 forward $93 $-1 #
coedge $-1 $246 $95 $247 $248 reversed $59 $-1 #
coedge $-1 $95 $246 $148 $245 reversed $59 $-1 #
coedge $-1 $249 $242 $95 $152 reversed $146 $-1 #
edge $-1 $250 -72.911160618915375 $251 72.911160618915375 $151 $252 forward 7 unknown #
face $-1 $253 $254 $35 $-1 $255 reversed single #
loop $-1 $-1 $256 $96 #
plane-surface $-1 0 44.249742231272599 8.4829788831061705 0 0 1 1 0 0 forward_v I I I I #
coedge $-1 $257 $258 $158 $259 forward $97 $-1 #
coedge $-1 $260 $99 $261 $262 reversed $62 $-1 #
coedge $-1 $99 $260 $156 $259 reversed $62 $-1 #
coedge $-1 $256 $263 $99 $160 reversed $154 $-1 #
edge $-1 $264 -72.911160618915375 $265 72.911160618915375 $159 $266 forward 7 unknown #
face $-1 $267 $268 $36 $-1 $269 reversed single #
loop $-1 $-1 $270 $100 #
plane-surface $-1 -168.57921225874753 -3.1998328227332635 114.10646457932161 0 -1 0 0.6560590369687036 0 -0.75470957328743171 forward_v I I I I #
coedge $-1 $271 $272 $273 $274 reversed $101 $-1 #
coedge $-1 $166 $103 $275 $276 reversed $65 $-1 #
coedge $-1 $103 $165 $271 $277 reversed $65 $-1 #
coedge $-1 $273 $278 $103 $168 forward $279 $-1 #
edge $-1 $280 11.378445510458391 $281 21.036795940713141 $167 $282 forward 7 unknown #
loop $-1 $-1 $174 $104 #
plane-surface $-1 -72.91116061891536 -6.6972341444217136 4.0529627421355769 -0.6560590369687036 0 0.75470957328743171 0.75470957328743171 0 0.6560590369687036 forward_v I I I I #
loop $-1 $-1 $283 $67 #
coedge $-1 $172 $172 $173 $284 reversed $105 $-1 #
coedge $-1 $173 $173 $172 $284 forward $107 $-1 #
coedge $-1 $174 $174 $108 $175 forward $169 $-1 #
edge $-1 $285 0 $285 6.2831853071796004 $174 $286 forward 7 unknown #
face $-1 $287 $288 $38 $-1 $289 forward single #
loop $-1 $-1 $290 $109 #
plane-surface $-1 -168.57921225874753 10.194635466110157 114.10646457932161 0 -1 0 0.6560590369687036 0 -0.75470957328743171 forward_v I I I I #
coedge $-1 $291 $292 $293 $294 reversed $110 $-1 #
coedge $-1 $181 $112 $295 $296 reversed $71 $-1 #
coedge $-1 $112 $180 $291 $297 reversed $71 $-1 #
coedge $-1 $293 $298 $112 $183 forward $288 $-1 #
edge $-1 $299 11.378445510458391 $300 21.036795940713141 $182 $301 forward 7 unknown #
loop $-1 $-1 $189 $113 #
plane-surface $-1 -72.91116061891536 6.6972341444217065 4.0529627421355769 -0.6560590369687036 0 0.75470957328743171 0.75470957328743171 0 0.6560590369687036 forward_v I I I I #
loop $-1 $-1 $302 $73 #
coedge $-1 $187 $187 $188 $303 reversed $114 $-1 #
coedge $-1 $188 $188 $187 $303 forward $116 $-1 #
coedge $-1 $189 $189 $117 $190 forward $184 $-1 #
edge $-1 $304 0 $304 6.2831853071796004 $189 $305 forward 7 unknown #
face $-1 $306 $307 $40 $-1 $308 forward single #
loop $-1 $-1 $309 $118 #
plane-surface $-1 112.26053956134589 -19.608939826221043 203.27038175258281 0 1 0 0.82903758062907751 0 0.55919289150049634 forward_v I I I I #
coedge $-1 $310 $311 $312 $313 reversed $119 $-1 #
coedge $-1 $196 $121 $314 $315 reversed $77 $-1 #
coedge $-1 $121 $195 $310 $316 reversed $77 $-1 #
coedge $-1 $312 $317 $121 $198 forward $307 $-1 #
edge $-1 $318 -16.780890838242428 $319 -8.9475221937285028 $197 $320 forward 7 unknown #
loop $-1 $-1 $204 $122 #
plane-surface $-1 -8.6316448393814511 -15.82552105899336 121.727576294286 0.82903758062907751 0 0.55919289150049634 0.55919289150049634 0 -0.82903758062907751 forward_v I I I I #
loop $-1 $-1 $321 $79 #
coedge $-1 $202 $202 $203 $322 reversed $123 $-1 #
coedge $-1 $203 $203 $202 $322 forward $125 $-1 #
coedge $-1 $204 $204 $126 $205 forward $199 $-1 #
edge $-1 $323 0 $323 6.2831853071796004 $204 $324 forward 7 unknown #
loop $-1 $-1 $211 $127 #
plane-surface $-1 -8.6316448393814511 -15.82552105899336 121.727576294286 0.82903758062907751 0 0.55919289150049634 0.55919289150049634 0 -0.82903758062907751 forward_v I I I I #
loop $-1 $-1 $325 $82 #
coedge $-1 $209 $209 $210 $326 reversed $128 $-1 #
coedge $-1 $210 $210 $209 $326 forward $130 $-1 #
coedge $-1 $211 $211 $131 $212 forward $206 $-1 #
edge $-1 $327 0 $327 6.2831853071796004 $211 $328 forward 7 unknown #
loop $-1 $-1 $218 $132 #
plane-surface $-1 -8.6316448393814511 -15.82552105899336 121.727576294286 0.82903758062907751 0 0.55919289150049634 0.55919289150049634 0 -0.82903758062907751 forward_v I I I I #
loop $-1 $-1 $329 $85 #
coedge $-1 $216 $216 $217 $330 reversed $133 $-1 #
coedge $-1 $217 $217 $216 $330 forward $135 $-1 #
coedge $-1 $218 $218 $136 $219 forward $213 $-1 #
edge $-1 $331 0 $331 6.2831853071796004 $218 $332 forward 7 unknown #
face $-1 $333 $334 $33 $-1 $335 reversed single #
loop $-1 $-1 $336 $137 #
plane-surface $-1 -72.911160618915375 0 0 1 0 0 0 0 -1 forward_v I I I I #
coedge $-1 $337 $231 $338 $339 forward $138 $-1 #
coedge $-1 $340 $140 $337 $341 forward $89 $-1 #
coedge $-1 $140 $340 $342 $343 forward $89 $-1 #
coedge $-1 $234 $233 $140 $227 reversed $235 $-1 #
edge $-1 $344 -36.036141429588746 $345 36.036141429588746 $226 $346 forward 7 unknown #
coedge $-1 $142 $141 $347 $348 forward $56 $-1 #
coedge $-1 $349 $350 $141 $230 reversed $334 $-1 #
edge $-1 $237 -72.911160618915375 $351 72.911160618915375 $229 $352 forward 7 unknown #
coedge $-1 $223 $353 $142 $232 reversed $138 $-1 #
edge $-1 $354 -72.911160618915375 $236 72.911160618915375 $231 $355 forward 7 unknown #
coedge $-1 $226 $143 $353 $356 forward $235 $-1 #
coedge $-1 $143 $226 $349 $357 reversed $235 $-1 #
loop $-1 $-1 $233 $333 #
vertex $-1 $144 $358 #
vertex $-1 $144 $359 #
straight-curve $-1 72.911160618915375 0 12.448838859591351 0 1 0 I I #
face $-1 $360 $361 $34 $-1 $362 reversed single #
loop $-1 $-1 $363 $145 #
plane-surface $-1 0 -44.249742231272599 1.2992234443882831 0 0 1 1 0 0 forward_v I I I I #
coedge $-1 $151 $364 $365 $366 forward $146 $-1 #
coedge $-1 $367 $148 $368 $369 reversed $93 $-1 #
coedge $-1 $148 $367 $249 $370 reversed $93 $-1 #
edge $-1 $250 -8.4829788831061705 $371 -1.2992234443882831 $148 $372 forward 7 unknown #
coedge $-1 $150 $149 $373 $374 forward $59 $-1 #
coedge $-1 $365 $375 $149 $248 forward $376 $-1 #
edge $-1 $377 1.2992234443882831 $251 8.4829788831061705 $247 $378 forward 7 unknown #
coedge $-1 $364 $151 $244 $370 forward $146 $-1 #
vertex $-1 $245 $379 #
vertex $-1 $366 $380 #
straight-curve $-1 0 -36.036141429588746 8.4829788831061705 1 0 0 I I #
face $-1 $381 $382 $35 $-1 $383 reversed single #
loop $-1 $-1 $384 $153 #
plane-surface $-1 0 44.249742231272599 1.2992234443882831 0 0 1 1 0 0 forward_v I I I I #
coedge $-1 $385 $159 $258 $386 forward $154 $-1 #
coedge $-1 $387 $156 $384 $388 reversed $97 $-1 #
coedge $-1 $156 $387 $256 $386 reversed $97 $-1 #
edge $-1 $264 -8.4829788831061705 $389 -1.2992234443882831 $156 $390 forward 7 unknown #
coedge $-1 $158 $157 $391 $392 forward $62 $-1 #
coedge $-1 $393 $394 $157 $262 forward $395 $-1 #
edge $-1 $396 1.2992234443882831 $265 8.4829788831061705 $261 $397 forward 7 unknown #
coedge $-1 $159 $385 $393 $398 forward $154 $-1 #
vertex $-1 $259 $399 #
vertex $-1 $398 $400 #
straight-curve $-1 0 36.036141429588746 8.4829788831061705 -1 0 0 I I #
face $-1 $-1 $279 $36 $-1 $401 forward single #
loop $-1 $-1 $402 $161 #
plane-surface $-1 -72.911160618915375 0 0 1 0 0 0 0 -1 forward_v I I I I #
coedge $-1 $403 $404 $405 $406 reversed $162 $-1 #
coedge $-1 $407 $164 $166 $277 forward $101 $-1 #
coedge $-1 $164 $407 $403 $408 forward $101 $-1 #
coedge $-1 $405 $167 $164 $274 forward $279 $-1 #
edge $-1 $281 -6.8460183938993069 $409 0.14878424947759328 $273 $410 forward 7 unknown #
coedge $-1 $411 $412 $165 $276 forward $268 $-1 #
edge $-1 $413 -53.000269547525242 $280 -44.60439343006945 $275 $414 forward 7 unknown #
edge $-1 $281 -12.797439932004607 $413 1.888283279974768e-014 $166 $415 forward 7 unknown #
coedge $-1 $167 $405 $411 $416 forward $279 $-1 #
loop $-1 $-1 $405 $267 #
vertex $-1 $276 $417 #
vertex $-1 $168 $418 #
straight-curve $-1 -84.289606129373766 -10.194635466110164 12.448838859591355 1 0 0 I I #
coedge $-1 $283 $283 $-1 $419 reversed $171 $-1 #
edge $-1 $420 0 $420 6.2831853071796004 $172 $421 forward 7 unknown #
vertex $-1 $175 $422 #
ellipse-curve $-1 -68.081985403787996 -6.6972341444217136 8.2509008008634588 -0.6560590369687036 0 0.75470957328743171 0.75470957328743171 0 0.6560590369687036 1 I I #
face $-1 $-1 $423 $38 $-1 $424 reversed single #
loop $-1 $-1 $182 $176 #
plane-surface $-1 0 0 12.448838859591351 0 0 1 1 0 0 forward_v I I I I #
coedge $-1 $425 $426 $427 $428 reversed $177 $-1 #
coedge $-1 $429 $179 $181 $297 forward $110 $-1 #
coedge $-1 $179 $429 $425 $430 forward $110 $-1 #
coedge $-1 $427 $182 $179 $294 forward $288 $-1 #
edge $-1 $300 -0.14878424947759683 $431 6.8460183938993033 $293 $432 forward 7 unknown #
coedge $-1 $433 $434 $180 $296 forward $423 $-1 #
edge $-1 $435 -53.000269547525242 $299 -44.60439343006945 $295 $436 forward 7 unknown #
edge $-1 $300 -12.797439932004607 $435 1.888283279974768e-014 $181 $437 forward 7 unknown #
coedge $-1 $182 $427 $433 $438 forward $288 $-1 #
vertex $-1 $183 $439 #
vertex $-1 $183 $440 #
straight-curve $-1 -84.289606129373766 3.1998328227332564 12.448838859591355 1 0 0 I I #
coedge $-1 $302 $302 $-1 $441 reversed $186 $-1 #
edge $-1 $442 0 $442 6.2831853071796004 $187 $443 forward 7 unknown #
vertex $-1 $190 $444 #
ellipse-curve $-1 -68.081985403787996 6.6972341444217065 8.2509008008634588 -0.6560590369687036 0 0.75470957328743171 0.75470957328743171 0 0.6560590369687036 1 I I #
face $-1 $-1 $445 $40 $-1 $446 reversed single #
loop $-1 $-1 $197 $191 #
plane-surface $-1 0 0 12.448838859591351 0 0 1 1 0 0 forward_v I I I I #
coedge $-1 $447 $448 $449 $450 reversed $192 $-1 #
coedge $-1 $451 $194 $196 $316 forward $119 $-1 #
coedge $-1 $194 $451 $447 $452 forward $119 $-1 #
coedge $-1 $449 $197 $194 $313 forward $307 $-1 #
edge $-1 $319 4.1293417622689965 $453 11.696179296724363 $312 $454 forward 7 unknown #
coedge $-1 $455 $456 $195 $315 forward $445 $-1 #
edge $-1 $457 -100.79979898273278 $318 -89.186352016700056 $314 $458 forward 7 unknown #
edge $-1 $319 131.81397319983185 $457 145.82232123783081 $196 $459 forward 7 unknown #
coedge $-1 $197 $449 $455 $460 forward $307 $-1 #
vertex $-1 $315 $461 #
vertex $-1 $198 $462 #
straight-curve $-1 56.130269780672947 -12.042102291765676 12.448838859591348 -1 0 0 I I #
coedge $-1 $321 $321 $-1 $463 reversed $201 $-1 #
edge $-1 $464 0 $464 6.2831853071796004 $202 $465 forward 7 unknown #
vertex $-1 $205 $466 #
ellipse-curve $-1 68.994476296658405 -18.095572319329971 6.6421153765749992 0.82903758062907751 0 0.55919289150049634 0.27959644575024817 0 -0.41451879031453875 1 I I #
coedge $-1 $325 $325 $-1 $467 reversed $208 $-1 #
edge $-1 $468 0 $468 6.2831853071796004 $209 $469 forward 7 unknown #
vertex $-1 $212 $470 #
ellipse-curve $-1 68.994476296658405 -15.82552105899336 6.6421153765749992 0.82903758062907751 0 0.55919289150049634 0.27959644575024817 0 -0.41451879031453875 1 I I #
coedge $-1 $329 $329 $-1 $471 reversed $215 $-1 #
edge $-1 $472 0 $472 6.2831853071796004 $216 $473 forward 7 unknown #
vertex $-1 $219 $474 #
ellipse-curve $-1 68.994476296658405 -13.555469798656752 6.6421153765749992 0.82903758062907751 0 0.55919289150049634 0.27959644575024817 0 -0.41451879031453875 1 I I #
face $-1 $-1 $235 $33 $-1 $475 reversed single #
loop $-1 $-1 $349 $220 #
plane-surface $-1 0 36.036141429588746 0 0 -1 0 0 0 -1 forward_v I I I I #
coedge $-1 $476 $347 $350 $477 forward $221 $-1 #
coedge $-1 $353 $223 $224 $341 reversed $138 $-1 #
coedge $-1 $347 $476 $223 $339 reversed $221 $-1 #
edge $-1 $354 -12.448838859591351 $478 12.448838859591351 $338 $479 forward 7 unknown #
coedge $-1 $225 $224 $476 $480 forward $89 $-1 #
edge $-1 $345 -72.911160618915375 $478 72.911160618915375 $337 $481 forward 7 unknown #
coedge $-1 $350 $349 $225 $343 reversed $334 $-1 #
edge $-1 $482 -72.911160618915375 $344 72.911160618915375 $342 $483 forward 7 unknown #
vertex $-1 $227 $484 #
vertex $-1 $356 $485 #
straight-curve $-1 72.911160618915375 0 -12.448838859591351 0 -1 0 I I #
coedge $-1 $336 $338 $228 $348 reversed $221 $-1 #
edge $-1 $351 -36.036141429588746 $354 36.036141429588746 $347 $486 forward 7 unknown #
coedge $-1 $342 $229 $234 $357 forward $334 $-1 #
coedge $-1 $229 $342 $336 $477 reversed $334 $-1 #
vertex $-1 $230 $487 #
straight-curve $-1 0 36.036141429588746 12.448838859591351 -1 0 0 I I #
coedge $-1 $231 $337 $233 $356 reversed $138 $-1 #
vertex $-1 $348 $488 #
straight-curve $-1 0 -36.036141429588746 12.448838859591351 1 0 0 I I #
edge $-1 $236 -12.448838859591351 $345 12.448838859591351 $233 $489 forward 7 unknown #
edge $-1 $237 -12.448838859591351 $344 12.448838859591351 $234 $490 forward 7 unknown #
point $-1 72.911160618915375 -36.036141429588746 12.448838859591351 #
point $-1 72.911160618915375 36.036141429588746 12.448838859591351 #
face $-1 $-1 $376 $34 $-1 $491 reversed single #
loop $-1 $-1 $492 $239 #
plane-surface $-1 0 -52.463343032956452 4.8911011637472264 0 1 0 0 0 1 forward_v I I I I #
coedge $-1 $493 $373 $375 $494 forward $240 $-1 #
coedge $-1 $242 $249 $495 $496 forward $146 $-1 #
coedge $-1 $497 $247 $242 $366 reversed $376 $-1 #
edge $-1 $498 -8.2136008016838531 $251 8.2136008016838531 $365 $499 forward 7 unknown #
coedge $-1 $244 $243 $492 $500 reversed $93 $-1 #
coedge $-1 $373 $493 $243 $369 forward $240 $-1 #
edge $-1 $501 -8.2136008016838531 $371 8.2136008016838531 $243 $502 forward 7 unknown #
edge $-1 $250 -8.2136008016838531 $503 8.2136008016838531 $244 $504 forward 7 unknown #
vertex $-1 $245 $505 #
straight-curve $-1 -72.911160618915375 -36.036141429588746 0 0 0 -1 I I #
coedge $-1 $363 $368 $246 $374 reversed $240 $-1 #
edge $-1 $377 -72.911160618915375 $371 72.911160618915375 $373 $506 forward 7 unknown #
coedge $-1 $247 $497 $363 $494 reversed $376 $-1 #
loop $-1 $-1 $247 $360 #
vertex $-1 $248 $507 #
straight-curve $-1 72.911160618915375 -36.036141429588746 0 0 0 1 I I #
point $-1 -72.911160618915375 -36.036141429588746 8.4829788831061705 #
point $-1 72.911160618915375 -36.036141429588746 8.4829788831061705 #
face $-1 $-1 $395 $35 $-1 $508 reversed single #
loop $-1 $-1 $509 $253 #
plane-surface $-1 0 52.463343032956452 4.8911011637472264 0 -1 0 0 0 -1 forward_v I I I I #
coedge $-1 $391 $510 $257 $388 forward $254 $-1 #
coedge $-1 $263 $256 $511 $512 forward $154 $-1 #
edge $-1 $264 -8.2136008016838531 $513 8.2136008016838531 $258 $514 forward 7 unknown #
coedge $-1 $258 $257 $509 $515 reversed $97 $-1 #
edge $-1 $516 -8.2136008016838531 $389 8.2136008016838531 $257 $517 forward 7 unknown #
vertex $-1 $259 $518 #
straight-curve $-1 72.911160618915375 36.036141429588746 0 0 0 -1 I I #
coedge $-1 $519 $384 $260 $392 reversed $254 $-1 #
edge $-1 $396 -72.911160618915375 $389 72.911160618915375 $391 $520 forward 7 unknown #
coedge $-1 $521 $261 $263 $398 reversed $395 $-1 #
coedge $-1 $261 $521 $519 $522 reversed $395 $-1 #
loop $-1 $-1 $261 $381 #
vertex $-1 $262 $523 #
straight-curve $-1 -72.911160618915375 36.036141429588746 0 0 0 1 I I #
edge $-1 $524 -8.2136008016838531 $265 8.2136008016838531 $393 $525 forward 7 unknown #
point $-1 72.911160618915375 36.036141429588746 8.4829788831061705 #
point $-1 -72.911160618915375 36.036141429588746 8.4829788831061705 #
plane-surface $-1 0 0 12.448838859591351 0 0 1 1 0 0 forward_v I I I I #
coedge $-1 $412 $411 $404 $526 forward $268 $-1 #
coedge $-1 $404 $270 $272 $408 reversed $162 $-1 #
coedge $-1 $270 $403 $402 $526 reversed $162 $-1 #
coedge $-1 $278 $273 $270 $406 forward $279 $-1 #
edge $-1 $409 -21.036795940713141 $527 -11.378445510458391 $405 $528 forward 7 unknown #
coedge $-1 $272 $271 $412 $529 reversed $101 $-1 #
edge $-1 $530 -1.888283279974768e-014 $409 12.797439932004607 $403 $531 forward 7 unknown #
vertex $-1 $274 $532 #
straight-curve $-1 -63.252810188660625 -3.3486170722108568 12.448838859591351 0 1 0 I I #
coedge $-1 $402 $275 $278 $416 reversed $268 $-1 #
coedge $-1 $275 $402 $407 $529 forward $268 $-1 #
vertex $-1 $276 $533 #
straight-curve $-1 -72.911160618915375 -10.194635466110164 57.053232289660805 0 0 1 I I #
straight-curve $-1 -72.91116061891536 -10.194635466110164 4.0529627421355769 -0.75470957328743171 0 -0.6560590369687036 I I #
edge $-1 $527 3.1998328227332635 $280 10.194635466110164 $411 $534 forward 7 unknown #
point $-1 -72.911160618915375 -10.194635466110164 12.448838859591351 #
point $-1 -63.252810188660625 -10.194635466110164 12.448838859591351 #
edge $-1 $535 1 $535 0 $283 $-1 forward 7 unknown #
vertex $-1 $284 $536 #
ellipse-curve $-1 -66.919631470495943 -6.6972341444217136 6.9137655865433079 -0.6560590369687036 0 0.75470957328743171 0.75470957328743171 0 0.6560590369687036 1 I I #
point $-1 -67.327275830500568 -6.6972341444217136 8.9069598378321668 #
loop $-1 $-1 $295 $287 #
plane-surface $-1 -72.911160618915375 0 0 1 0 0 0 0 -1 forward_v I I I I #
coedge $-1 $426 $290 $292 $430 reversed $177 $-1 #
coedge $-1 $290 $425 $537 $538 reversed $177 $-1 #
coedge $-1 $298 $293 $290 $428 forward $288 $-1 #
edge $-1 $431 -21.036795940713141 $539 -11.378445510458391 $427 $540 forward 7 unknown #
coedge $-1 $292 $291 $434 $541 reversed $110 $-1 #
edge $-1 $542 -1.888283279974768e-014 $431 12.797439932004607 $425 $543 forward 7 unknown #
vertex $-1 $294 $544 #
straight-curve $-1 -63.252810188660625 3.3486170722108533 12.448838859591351 0 1 0 I I #
coedge $-1 $537 $295 $298 $438 reversed $423 $-1 #
coedge $-1 $295 $537 $429 $541 forward $423 $-1 #
vertex $-1 $296 $545 #
straight-curve $-1 -72.911160618915375 3.1998328227332564 57.053232289660805 0 0 1 I I #
straight-curve $-1 -72.91116061891536 3.1998328227332564 4.0529627421355769 -0.75470957328743171 0 -0.6560590369687036 I I #
edge $-1 $539 -10.194635466110157 $299 -3.1998328227332564 $433 $546 forward 7 unknown #
point $-1 -72.911160618915375 3.1998328227332564 12.448838859591351 #
point $-1 -63.252810188660625 3.1998328227332564 12.448838859591351 #
edge $-1 $547 1 $547 0 $302 $-1 forward 7 unknown #
vertex $-1 $303 $548 #
ellipse-curve $-1 -66.919631470495943 6.6972341444217065 6.9137655865433079 -0.6560590369687036 0 0.75470957328743171 0.75470957328743171 0 0.6560590369687036 1 I I #
point $-1 -67.327275830500568 6.6972341444217065 8.9069598378321668 #
loop $-1 $-1 $314 $306 #
plane-surface $-1 72.911160618915375 0 0 -1 0 0 0 0 1 forward_v I I I I #
coedge $-1 $448 $309 $311 $452 reversed $192 $-1 #
coedge $-1 $309 $447 $549 $550 reversed $192 $-1 #
coedge $-1 $317 $312 $309 $450 forward $307 $-1 #
edge $-1 $453 8.9475221937285028 $551 16.780890838242428 $449 $552 forward 7 unknown #
coedge $-1 $311 $310 $456 $553 reversed $119 $-1 #
edge $-1 $554 -145.82232123783081 $453 -131.81397319983185 $447 $555 forward 7 unknown #
vertex $-1 $313 $556 #
straight-curve $-1 65.07779197440145 -7.9127605294966799 12.448838859591348 0 -1 0 I I #
coedge $-1 $549 $314 $317 $460 reversed $445 $-1 #
coedge $-1 $314 $549 $451 $553 forward $445 $-1 #
vertex $-1 $315 $557 #
straight-curve $-1 72.911160618915375 -12.042102291765676 101.6351908762914 0 0 1 I I #
straight-curve $-1 -8.6316448393814511 -12.042102291765676 121.727576294286 0.55919289150049634 0 -0.82903758062907751 I I #
edge $-1 $551 -19.608939826221043 $318 -12.042102291765676 $455 $558 forward 7 unknown #
point $-1 72.911160618915375 -12.042102291765676 12.448838859591351 #
point $-1 65.07779197440145 -12.042102291765676 12.448838859591334 #
edge $-1 $559 1 $559 0 $321 $-1 forward 7 unknown #
vertex $-1 $322 $560 #
ellipse-curve $-1 68.165438716029328 -18.095572319329971 6.0829224850745112 0.82903758062907751 0 0.55919289150049634 0.27959644575024817 0 -0.41451879031453875 1 I I #
point $-1 69.274072742408663 -18.095572319329971 6.2275965862604687 #
edge $-1 $561 1 $561 0 $325 $-1 forward 7 unknown #
vertex $-1 $326 $562 #
ellipse-curve $-1 68.165438716029328 -15.82552105899336 6.0829224850745112 0.82903758062907751 0 0.55919289150049634 0.27959644575024817 0 -0.41451879031453875 1 I I #
point $-1 69.274072742408663 -15.82552105899336 6.2275965862604687 #
edge $-1 $563 1 $563 0 $329 $-1 forward 7 unknown #
vertex $-1 $330 $564 #
ellipse-curve $-1 68.165438716029328 -13.555469798656752 6.0829224850745112 0.82903758062907751 0 0.55919289150049634 0.27959644575024817 0 -0.41451879031453875 1 I I #
point $-1 69.274072742408663 -13.555469798656752 6.2275965862604687 #
plane-surface $-1 72.911160618915375 0 0 -1 0 0 0 0 1 forward_v I I I I #
coedge $-1 $338 $336 $340 $480 reversed $221 $-1 #
edge $-1 $351 -12.448838859591351 $482 12.448838859591351 $350 $565 forward 7 unknown #
vertex $-1 $480 $566 #
straight-curve $-1 -72.911160618915375 -36.036141429588746 0 0 0 -1 I I #
edge $-1 $478 -36.036141429588746 $482 36.036141429588746 $476 $567 forward 7 unknown #
straight-curve $-1 0 -36.036141429588746 -12.448838859591351 -1 0 0 I I #
vertex $-1 $343 $568 #
straight-curve $-1 0 36.036141429588746 -12.448838859591351 1 0 0 I I #
point $-1 72.911160618915375 36.036141429588746 -12.448838859591351 #
point $-1 72.911160618915375 -36.036141429588746 -12.448838859591351 #
straight-curve $-1 -72.911160618915375 0 12.448838859591351 0 -1 0 I I #
point $-1 -72.911160618915375 36.036141429588746 12.448838859591351 #
point $-1 -72.911160618915375 -36.036141429588746 12.448838859591351 #
straight-curve $-1 72.911160618915375 -36.036141429588746 0 0 0 -1 I I #
straight-curve $-1 72.911160618915375 36.036141429588746 0 0 0 -1 I I #
plane-surface $-1 72.911160618915375 0 0 -1 0 0 0 0 1 forward_v I I I I #
coedge $-1 $569 $495 $367 $500 forward $361 $-1 #
coedge $-1 $368 $363 $569 $570 forward $240 $-1 #
edge $-1 $377 -8.2136008016838531 $571 8.2136008016838531 $375 $572 forward 7 unknown #
coedge $-1 $492 $573 $364 $496 reversed $361 $-1 #
edge $-1 $503 -72.911160618915375 $498 72.911160618915375 $495 $574 forward 7 unknown #
coedge $-1 $375 $365 $573 $575 forward $376 $-1 #
vertex $-1 $366 $576 #
straight-curve $-1 72.911160618915375 -44.249742231272599 8.4829788831061705 0 1 0 I I #
edge $-1 $503 -3.5918777193589442 $501 3.5918777193589433 $367 $577 forward 7 unknown #
vertex $-1 $369 $578 #
straight-curve $-1 -72.911160618915375 -44.249742231272599 1.2992234443882831 0 1 0 I I #
vertex $-1 $370 $579 #
straight-curve $-1 -72.911160618915375 -44.249742231272599 8.4829788831061705 0 -1 0 I I #
point $-1 -72.911160618915375 -36.036141429588746 1.2992234443882831 #
straight-curve $-1 0 -36.036141429588746 1.2992234443882831 -1 0 0 I I #
point $-1 72.911160618915375 -36.036141429588746 1.2992234443882831 #
plane-surface $-1 -72.911160618915375 0 0 1 0 0 0 0 -1 forward_v I I I I #
coedge $-1 $580 $511 $387 $515 forward $382 $-1 #
coedge $-1 $384 $519 $580 $581 forward $254 $-1 #
coedge $-1 $509 $582 $385 $512 reversed $382 $-1 #
edge $-1 $513 -72.911160618915375 $524 72.911160618915375 $511 $583 forward 7 unknown #
vertex $-1 $386 $584 #
straight-curve $-1 72.911160618915375 44.249742231272599 8.4829788831061705 0 1 0 I I #
edge $-1 $513 -3.5918777193589442 $516 3.5918777193589433 $387 $585 forward 7 unknown #
vertex $-1 $388 $586 #
straight-curve $-1 72.911160618915375 44.249742231272599 1.2992234443882831 0 -1 0 I I #
point $-1 72.911160618915375 36.036141429588746 1.2992234443882831 #
coedge $-1 $510 $391 $394 $522 forward $254 $-1 #
straight-curve $-1 0 36.036141429588746 1.2992234443882831 1 0 0 I I #
coedge $-1 $394 $393 $582 $587 forward $395 $-1 #
edge $-1 $396 -8.2136008016838531 $588 8.2136008016838531 $394 $589 forward 7 unknown #
point $-1 -72.911160618915375 36.036141429588746 1.2992234443882831 #
vertex $-1 $512 $590 #
straight-curve $-1 -72.911160618915375 44.249742231272599 8.4829788831061705 0 -1 0 I I #
edge $-1 $527 44.60439343006945 $530 53.000269547525242 $402 $591 forward 7 unknown #
vertex $-1 $416 $592 #
straight-curve $-1 -84.289606129373766 -3.1998328227332635 12.448838859591355 -1 0 0 I I #
edge $-1 $530 -0.14878424947759328 $413 6.8460183938993069 $412 $593 forward 7 unknown #
vertex $-1 $529 $594 #
straight-curve $-1 -72.91116061891536 -3.1998328227332635 4.0529627421355769 0.75470957328743171 0 0.6560590369687036 I I #
point $-1 -63.252810188660625 -3.1998328227332635 12.448838859591351 #
point $-1 -72.911160618915375 -10.194635466110164 4.0529627421355645 #
straight-curve $-1 -72.911160618915375 0 12.448838859591351 0 -1 0 I I #
vertex $-1 $419 $595 #
point $-1 -66.164921897208501 -6.6972341444217136 7.5698246235120115 #
coedge $-1 $434 $433 $426 $538 forward $423 $-1 #
edge $-1 $539 44.60439343006945 $542 53.000269547525242 $537 $596 forward 7 unknown #
vertex $-1 $438 $597 #
straight-curve $-1 -84.289606129373766 10.194635466110157 12.448838859591355 -1 0 0 I I #
edge $-1 $542 -6.8460183938993033 $435 0.14878424947759683 $434 $598 forward 7 unknown #
vertex $-1 $541 $599 #
straight-curve $-1 -72.91116061891536 10.194635466110157 4.0529627421355769 0.75470957328743171 0 0.6560590369687036 I I #
point $-1 -63.252810188660625 10.194635466110157 12.448838859591351 #
point $-1 -72.911160618915375 3.1998328227332564 4.0529627421355645 #
straight-curve $-1 -72.911160618915375 0 12.448838859591351 0 -1 0 I I #
vertex $-1 $441 $600 #
point $-1 -66.164921897208501 6.6972341444217065 7.5698246235120115 #
coedge $-1 $456 $455 $448 $550 forward $445 $-1 #
edge $-1 $551 89.186352016700056 $554 100.79979898273278 $549 $601 forward 7 unknown #
vertex $-1 $460 $602 #
straight-curve $-1 56.130269780672947 -19.608939826221043 12.448838859591348 1 0 0 I I #
edge $-1 $554 -11.696179296724363 $457 -4.1293417622689965 $456 $603 forward 7 unknown #
vertex $-1 $553 $604 #
straight-curve $-1 -8.6316448393814511 -19.608939826221043 121.727576294286 -0.55919289150049634 0 0.82903758062907751 I I #
point $-1 65.07779197440145 -19.608939826221043 12.448838859591334 #
point $-1 72.911160618915375 -12.042102291765676 0.8353918935586222 #
straight-curve $-1 72.911160618915375 0 12.448838859591351 0 1 0 I I #
vertex $-1 $463 $605 #
point $-1 68.445035161779586 -18.095572319329971 5.6684036947599719 #
vertex $-1 $467 $606 #
point $-1 68.445035161779586 -15.82552105899336 5.6684036947599719 #
vertex $-1 $471 $607 #
point $-1 68.445035161779586 -13.555469798656752 5.6684036947599719 #
straight-curve $-1 -72.911160618915375 36.036141429588746 0 0 0 -1 I I #
point $-1 -72.911160618915375 -36.036141429588746 -12.448838859591351 #
straight-curve $-1 -72.911160618915375 0 -12.448838859591351 0 1 0 I I #
point $-1 -72.911160618915375 36.036141429588746 -12.448838859591351 #
coedge $-1 $573 $492 $493 $570 reversed $361 $-1 #
edge $-1 $571 -72.911160618915375 $501 72.911160618915375 $569 $608 forward 7 unknown #
vertex $-1 $575 $609 #
straight-curve $-1 72.911160618915375 -44.249742231272599 1.2992234443882831 0 -1 0 I I #
coedge $-1 $495 $569 $497 $575 reversed $361 $-1 #
straight-curve $-1 0 -52.463343032956452 8.4829788831061705 1 0 0 I I #
edge $-1 $498 -3.5918777193589442 $571 3.5918777193589433 $497 $610 forward 7 unknown #
point $-1 72.911160618915375 -52.463343032956452 8.4829788831061705 #
straight-curve $-1 -72.911160618915375 -52.463343032956452 4.8911011637472264 0 0 -1 I I #
point $-1 -72.911160618915375 -52.463343032956452 1.2992234443882831 #
point $-1 -72.911160618915375 -52.463343032956452 8.4829788831061705 #
coedge $-1 $582 $509 $510 $581 reversed $382 $-1 #
edge $-1 $588 -72.911160618915375 $516 72.911160618915375 $580 $611 forward 7 unknown #
coedge $-1 $511 $580 $521 $587 reversed $382 $-1 #
straight-curve $-1 0 52.463343032956452 8.4829788831061705 -1 0 0 I I #
point $-1 72.911160618915375 52.463343032956452 8.4829788831061705 #
straight-curve $-1 72.911160618915375 52.463343032956452 4.8911011637472264 0 0 -1 I I #
point $-1 72.911160618915375 52.463343032956452 1.2992234443882831 #
edge $-1 $524 -3.5918777193589442 $588 3.5918777193589433 $582 $612 forward 7 unknown #
vertex $-1 $581 $613 #
straight-curve $-1 -72.911160618915375 44.249742231272599 1.2992234443882831 0 1 0 I I #
point $-1 -72.911160618915375 52.463343032956452 8.4829788831061705 #
straight-curve $-1 -72.911160618915375 -3.1998328227332635 57.053232289660805 0 0 -1 I I #
point $-1 -72.911160618915375 -3.1998328227332635 12.448838859591351 #
straight-curve $-1 -72.911160618915375 -3.3486170722108568 4.0529627421355654 0 -1 0 I I #
point $-1 -72.911160618915375 -3.1998328227332635 4.0529627421355645 #
point $-1 -66.26357243352723 -6.6972341444217136 6.159056013255876 #
straight-curve $-1 -72.911160618915375 10.194635466110157 57.053232289660805 0 0 -1 I I #
point $-1 -72.911160618915375 10.194635466110157 12.448838859591351 #
straight-curve $-1 -72.911160618915375 3.3486170722108533 4.0529627421355654 0 -1 0 I I #
point $-1 -72.911160618915375 10.194635466110157 4.0529627421355645 #
point $-1 -66.26357243352723 6.6972341444217065 6.159056013255876 #
straight-curve $-1 72.911160618915375 -19.608939826221043 101.6351908762914 0 0 -1 I I #
point $-1 72.911160618915375 -19.608939826221043 12.448838859591351 #
straight-curve $-1 72.911160618915375 -7.9127605294966799 0.83539189355860088 0 1 0 I I #
point $-1 72.911160618915375 -19.608939826221043 0.8353918935586222 #
point $-1 67.750919925714797 -18.095572319329971 5.8033260393242623 #
point $-1 67.750919925714797 -15.82552105899336 5.8033260393242623 #
point $-1 67.750919925714797 -13.555469798656752 5.8033260393242623 #
straight-curve $-1 0 -52.463343032956452 1.2992234443882831 -1 0 0 I I #
point $-1 72.911160618915375 -52.463343032956452 1.2992234443882831 #
straight-curve $-1 72.911160618915375 -52.463343032956452 4.8911011637472264 0 0 -1 I I #
straight-curve $-1 0 52.463343032956452 1.2992234443882831 1 0 0 I I #
straight-curve $-1 -72.911160618915375 52.463343032956452 4.8911011637472264 0 0 -1 I I #
point $-1 -72.911160618915375 52.463343032956452 1.2992234443882831 #
End-of-ACIS-data 