500 0 10 0           
7 Unknown 11 ACIS 5.0 NT 24 Thu Mar 25 23:43:02 1999 
-1 9.9999999999999995e-007 1e-010 
body $-1 $10 $-1 $11 #
body $-1 $12 $-1 $13 #
body $-1 $14 $-1 $15 #
body $-1 $16 $-1 $17 #
body $-1 $18 $-1 $19 #
body $-1 $20 $-1 $21 #
body $-1 $22 $-1 $23 #
body $-1 $24 $-1 $25 #
body $-1 $26 $-1 $27 #
body $-1 $28 $-1 $29 #
lump $-1 $-1 $30 $0 #
transform $-1 1 0 0 0 1 0 0 0 1 55.768303476058229 27.413728474355828 8.7877535675813707 1 rotate no_reflect no_shear #
lump $-1 $-1 $31 $1 #
transform $-1 1 0 0 0 1 0 0 0 1 55.768303476058229 27.413728474355828 8.7877535675813707 1 rotate no_reflect no_shear #
lump $-1 $-1 $32 $2 #
transform $-1 1 0 0 0 1 0 0 0 1 55.768303476058229 27.413728474355828 8.7877535675813707 1 rotate no_reflect no_shear #
lump $-1 $-1 $33 $3 #
transform $-1 1 0 0 0 1 0 0 0 1 55.768303476058229 27.413728474355828 8.7877535675813707 1 rotate no_reflect no_shear #
lump $-1 $-1 $34 $4 #
transform $-1 1 0 0 0 1 0 0 0 1 55.768303476058229 27.413728474355828 8.7877535675813707 1 rotate no_reflect no_shear #
lump $-1 $-1 $35 $5 #
transform $-1 1 0 0 0 1 0 0 0 1 55.768303476058229 27.413728474355828 8.7877535675813707 1 rotate no_reflect no_shear #
lump $-1 $-1 $36 $6 #
transform $-1 1 0 0 0 1 0 0 0 1 55.768303476058229 27.413728474355828 8.7877535675813707 1 rotate no_reflect no_shear #
lump $-1 $-1 $37 $7 #
transform $-1 1 0 0 0 1 0 0 0 1 55.768303476058229 27.413728474355828 8.7877535675813707 1 rotate no_reflect no_shear #
lump $-1 $-1 $38 $8 #
transform $-1 1 0 0 0 1 0 0 0 1 55.768303476058229 27.413728474355828 8.7877535675813707 1 rotate no_reflect no_shear #
lump $-1 $-1 $39 $9 #
transform $-1 1 0 0 0 1 0 0 0 1 55.768303476058229 27.413728474355828 8.7877535675813707 1 rotate no_reflect no_shear #
shell $-1 $-1 $-1 $40 $-1 $10 #
shell $-1 $-1 $-1 $41 $-1 $12 #
shell $-1 $-1 $-1 $42 $-1 $14 #
shell $-1 $-1 $-1 $43 $-1 $16 #
shell $-1 $-1 $-1 $44 $-1 $18 #
shell $-1 $-1 $-1 $45 $-1 $20 #
shell $-1 $-1 $-1 $46 $-1 $22 #
shell $-1 $-1 $-1 $47 $-1 $24 #
shell $-1 $-1 $-1 $48 $-1 $26 #
shell $-1 $-1 $-1 $49 $-1 $28 #
face $-1 $50 $51 $30 $-1 $52 forward single #
face $-1 $53 $54 $31 $-1 $55 forward single #
face $-1 $56 $57 $32 $-1 $58 reversed single #
face $-1 $59 $60 $33 $-1 $61 forward single #
face $-1 $62 $63 $34 $-1 $64 reversed single #
face $-1 $65 $66 $35 $-1 $67 forward single #
face $-1 $68 $69 $36 $-1 $70 reversed single #
face $-1 $71 $72 $37 $-1 $73 forward single #
face $-1 $74 $75 $38 $-1 $76 reversed single #
face $-1 $77 $78 $39 $-1 $79 forward single #
face $-1 $80 $81 $30 $-1 $82 reversed single #
loop $-1 $-1 $83 $40 #
plane-surface $-1 0 0 8.7877535675813707 0 0 1 1 0 0 forward_v I I I I #
face $-1 $84 $85 $31 $-1 $86 forward single #
loop $-1 $-1 $87 $41 #
plane-surface $-1 0 -27.413728474355828 0 0 1 0 0 0 1 forward_v I I I I #
face $-1 $88 $89 $32 $-1 $90 reversed single #
loop $-1 $-1 $91 $42 #
plane-surface $-1 17.608371715375178 -6.0251555309577336 153.25125782474873 0 -1 0 -0.51503808176128008 0 -0.85716729658548041 forward_v I I I I #
face $-1 $92 $93 $33 $-1 $94 forward single #
loop $-1 $95 $96 $43 #
cone-surface $-1 47.869838083661769 -9.840642183044416 3.2418036968838169 -0.51503808176128008 0 -0.85716729658548041 0.85716729658548041 0 -0.51503808176128008 1 I I 0 1 1 forward I I I I #
face $-1 $97 $98 $34 $-1 $99 reversed single #
loop $-1 $-1 $100 $44 #
plane-surface $-1 17.608371715375178 24.835754071398377 153.25125782474873 0 -1 0 -0.51503808176128008 0 -0.85716729658548041 forward_v I I I I #
face $-1 $101 $102 $35 $-1 $103 forward single #
loop $-1 $104 $105 $45 #
cone-surface $-1 47.869838083661769 21.020267419311693 3.2418036968838169 -0.51503808176128008 0 -0.85716729658548041 0.85716729658548041 0 -0.51503808176128008 1 I I 0 1 1 forward I I I I #
face $-1 $106 $107 $36 $-1 $108 reversed single #
loop $-1 $-1 $109 $46 #
plane-surface $-1 -113.21390356683816 -13.656128835131099 95.805657733968829 0 1 0 -0.51503808176128008 0 0.85716729658548041 forward_v I I I I #
face $-1 $110 $111 $37 $-1 $112 forward single #
loop $-1 $113 $114 $47 #
cone-surface $-1 -47.869838083661776 -9.840642183044416 3.2418036968838133 0.51503808176128008 0 -0.85716729658548041 0.85716729658548041 0 0.51503808176128008 1 I I 0 1 1 forward I I I I #
face $-1 $115 $116 $38 $-1 $117 reversed single #
loop $-1 $-1 $118 $48 #
plane-surface $-1 -113.21390356683816 17.20478076722501 95.805657733968829 0 1 0 -0.51503808176128008 0 0.85716729658548041 forward_v I I I I #
face $-1 $119 $120 $39 $-1 $121 forward single #
loop $-1 $122 $123 $49 #
cone-surface $-1 -47.869838083661776 21.020267419311693 3.2418036968838133 0.51503808176128008 0 -0.85716729658548041 0.85716729658548041 0 0.51503808176128008 1 I I 0 1 1 forward I I I I #
face $-1 $124 $125 $30 $-1 $126 reversed single #
loop $-1 $-1 $127 $50 #
plane-surface $-1 0 0 -8.7877535675813707 0 0 1 1 0 0 forward_v I I I I #
coedge $-1 $128 $129 $130 $131 forward $51 $-1 #
face $-1 $132 $133 $31 $-1 $134 reversed single #
loop $-1 $-1 $135 $53 #
plane-surface $-1 0 0 8.7877535675813707 0 0 1 1 0 0 forward_v I I I I #
coedge $-1 $136 $137 $138 $139 forward $54 $-1 #
face $-1 $140 $141 $32 $-1 $142 reversed single #
loop $-1 $-1 $143 $56 #
plane-surface $-1 -39.837228375404734 -9.840642183044416 57.645725973285764 0.51503808176128008 0 0.85716729658548041 0.85716729658548041 0 -0.51503808176128008 forward_v I I I I #
coedge $-1 $144 $145 $146 $147 reversed $57 $-1 #
face $-1 $-1 $148 $33 $-1 $149 forward single #
loop $-1 $150 $151 $59 #
cone-surface $-1 46.859959800172881 -9.840642183044416 1.5610840204312719 -0.51503808176128008 0 -0.85716729658548041 0.4285836482927402 0 -0.25751904088064004 1 I I -0.70710678118654746 0.70710678118654746 0.5 forward I I I I #
loop $-1 $-1 $152 $43 #
coedge $-1 $96 $96 $153 $154 reversed $60 $-1 #
face $-1 $155 $156 $34 $-1 $157 reversed single #
loop $-1 $-1 $158 $62 #
plane-surface $-1 -39.837228375404734 21.020267419311693 57.645725973285764 0.51503808176128008 0 0.85716729658548041 0.85716729658548041 0 -0.51503808176128008 forward_v I I I I #
coedge $-1 $159 $160 $161 $162 reversed $63 $-1 #
face $-1 $-1 $163 $35 $-1 $164 forward single #
loop $-1 $165 $166 $65 #
cone-surface $-1 46.859959800172881 21.020267419311693 1.5610840204312719 -0.51503808176128008 0 -0.85716729658548041 0.4285836482927402 0 -0.25751904088064004 1 I I -0.70710678118654746 0.70710678118654746 0.5 forward I I I I #
loop $-1 $-1 $167 $45 #
coedge $-1 $105 $105 $168 $169 reversed $66 $-1 #
face $-1 $170 $171 $36 $-1 $172 reversed single #
loop $-1 $-1 $173 $68 #
plane-surface $-1 -55.768303476058243 -9.840642183044416 0.2001258825058585 -0.51503808176128008 0 0.85716729658548041 0.85716729658548041 0 0.51503808176128008 forward_v I I I I #
coedge $-1 $174 $175 $176 $177 reversed $69 $-1 #
face $-1 $-1 $178 $37 $-1 $179 forward single #
loop $-1 $180 $181 $71 #
cone-surface $-1 -46.859959800172888 -9.840642183044416 1.5610840204312684 0.51503808176128008 0 -0.85716729658548041 0.4285836482927402 0 0.25751904088064004 1 I I -0.70710678118654746 0.70710678118654746 0.5 forward I I I I #
loop $-1 $-1 $182 $47 #
coedge $-1 $114 $114 $183 $184 reversed $72 $-1 #
face $-1 $185 $186 $38 $-1 $187 reversed single #
loop $-1 $-1 $188 $74 #
plane-surface $-1 -55.768303476058243 21.020267419311693 0.2001258825058585 -0.51503808176128008 0 0.85716729658548041 0.85716729658548041 0 0.51503808176128008 forward_v I I I I #
coedge $-1 $189 $190 $191 $192 reversed $75 $-1 #
face $-1 $-1 $193 $39 $-1 $194 forward single #
loop $-1 $195 $196 $77 #
cone-surface $-1 -46.859959800172888 21.020267419311693 1.5610840204312684 0.51503808176128008 0 -0.85716729658548041 0.4285836482927402 0 0.25751904088064004 1 I I -0.70710678118654746 0.70710678118654746 0.5 forward I I I I #
loop $-1 $-1 $197 $49 #
coedge $-1 $123 $123 $198 $199 reversed $78 $-1 #
face $-1 $200 $201 $30 $-1 $202 reversed single #
loop $-1 $-1 $203 $80 #
plane-surface $-1 0 -27.413728474355828 0 0 1 0 0 0 1 forward_v I I I I #
coedge $-1 $204 $205 $206 $207 forward $81 $-1 #
coedge $-1 $208 $83 $209 $210 forward $51 $-1 #
coedge $-1 $83 $208 $211 $212 forward $51 $-1 #
coedge $-1 $213 $214 $83 $131 reversed $215 $-1 #
edge $-1 $216 -27.413728474355828 $217 27.413728474355828 $130 $218 forward 7 unknown #
face $-1 $219 $220 $31 $-1 $221 reversed single #
loop $-1 $-1 $222 $84 #
plane-surface $-1 -55.768303476058229 0 0 1 0 0 0 0 -1 forward_v I I I I #
coedge $-1 $223 $224 $225 $226 forward $85 $-1 #
coedge $-1 $225 $87 $222 $227 reversed $54 $-1 #
coedge $-1 $87 $225 $228 $229 reversed $54 $-1 #
coedge $-1 $230 $231 $87 $139 reversed $220 $-1 #
edge $-1 $232 -55.768303476058229 $233 55.768303476058229 $138 $234 forward 7 unknown #
face $-1 $235 $236 $32 $-1 $237 reversed single #
loop $-1 $-1 $238 $88 #
plane-surface $-1 17.608371715375178 -13.656128835131099 153.25125782474873 0 1 0 0.51503808176128008 0 0.85716729658548041 forward_v I I I I #
coedge $-1 $239 $240 $241 $242 reversed $89 $-1 #
coedge $-1 $145 $91 $243 $244 reversed $57 $-1 #
coedge $-1 $91 $144 $239 $245 reversed $57 $-1 #
coedge $-1 $241 $246 $91 $147 forward $247 $-1 #
edge $-1 $248 -46.964117618370636 $249 -32.671905318794231 $146 $250 forward 7 unknown #
loop $-1 $-1 $153 $92 #
plane-surface $-1 -39.837228375404734 -9.840642183044416 57.645725973285764 0.51503808176128008 0 0.85716729658548041 0.85716729658548041 0 -0.51503808176128008 forward_v I I I I #
loop $-1 $-1 $251 $59 #
coedge $-1 $151 $151 $152 $252 reversed $93 $-1 #
coedge $-1 $152 $152 $151 $252 forward $95 $-1 #
coedge $-1 $153 $153 $96 $154 forward $148 $-1 #
edge $-1 $253 0 $253 6.2831853071796004 $153 $254 forward 7 unknown #
face $-1 $255 $256 $34 $-1 $257 reversed single #
loop $-1 $-1 $258 $97 #
plane-surface $-1 17.608371715375178 17.20478076722501 153.25125782474873 0 1 0 0.51503808176128008 0 0.85716729658548041 forward_v I I I I #
coedge $-1 $259 $260 $261 $262 reversed $98 $-1 #
coedge $-1 $160 $100 $263 $264 reversed $63 $-1 #
coedge $-1 $100 $159 $259 $265 reversed $63 $-1 #
coedge $-1 $261 $266 $100 $162 forward $267 $-1 #
edge $-1 $268 -46.964117618370636 $269 -32.671905318794231 $161 $270 forward 7 unknown #
loop $-1 $-1 $168 $101 #
plane-surface $-1 -39.837228375404734 21.020267419311693 57.645725973285764 0.51503808176128008 0 0.85716729658548041 0.85716729658548041 0 -0.51503808176128008 forward_v I I I I #
loop $-1 $-1 $271 $65 #
coedge $-1 $166 $166 $167 $272 reversed $102 $-1 #
coedge $-1 $167 $167 $166 $272 forward $104 $-1 #
coedge $-1 $168 $168 $105 $169 forward $163 $-1 #
edge $-1 $273 0 $273 6.2831853071796004 $168 $274 forward 7 unknown #
face $-1 $275 $276 $36 $-1 $277 forward single #
loop $-1 $-1 $278 $106 #
plane-surface $-1 -113.21390356683816 -6.0251555309577336 95.805657733968829 0 -1 0 0.51503808176128008 0 -0.85716729658548041 forward_v I I I I #
coedge $-1 $279 $280 $281 $282 reversed $107 $-1 #
coedge $-1 $175 $109 $283 $284 reversed $69 $-1 #
coedge $-1 $109 $174 $279 $285 reversed $69 $-1 #
coedge $-1 $281 $286 $109 $177 forward $276 $-1 #
edge $-1 $287 0.83864830736084883 $288 15.130860606937233 $176 $289 forward 7 unknown #
loop $-1 $-1 $183 $110 #
plane-surface $-1 -55.768303476058243 -9.840642183044416 0.2001258825058585 -0.51503808176128008 0 0.85716729658548041 0.85716729658548041 0 0.51503808176128008 forward_v I I I I #
loop $-1 $-1 $290 $71 #
coedge $-1 $181 $181 $182 $291 reversed $111 $-1 #
coedge $-1 $182 $182 $181 $291 forward $113 $-1 #
coedge $-1 $183 $183 $114 $184 forward $178 $-1 #
edge $-1 $292 0 $292 6.2831853071796004 $183 $293 forward 7 unknown #
face $-1 $294 $295 $38 $-1 $296 forward single #
loop $-1 $-1 $297 $115 #
plane-surface $-1 -113.21390356683816 24.835754071398377 95.805657733968829 0 -1 0 0.51503808176128008 0 -0.85716729658548041 forward_v I I I I #
coedge $-1 $298 $299 $300 $301 reversed $116 $-1 #
coedge $-1 $190 $118 $302 $303 reversed $75 $-1 #
coedge $-1 $118 $189 $298 $304 reversed $75 $-1 #
coedge $-1 $300 $305 $118 $192 forward $295 $-1 #
edge $-1 $306 0.83864830736084883 $307 15.130860606937233 $191 $308 forward 7 unknown #
loop $-1 $-1 $198 $119 #
plane-surface $-1 -55.768303476058243 21.020267419311693 0.2001258825058585 -0.51503808176128008 0 0.85716729658548041 0.85716729658548041 0 0.51503808176128008 forward_v I I I I #
loop $-1 $-1 $309 $77 #
coedge $-1 $196 $196 $197 $310 reversed $120 $-1 #
coedge $-1 $197 $197 $196 $310 forward $122 $-1 #
coedge $-1 $198 $198 $123 $199 forward $193 $-1 #
edge $-1 $311 0 $311 6.2831853071796004 $198 $312 forward 7 unknown #
face $-1 $313 $314 $30 $-1 $315 reversed single #
loop $-1 $-1 $316 $124 #
plane-surface $-1 -55.768303476058229 0 0 1 0 0 0 0 -1 forward_v I I I I #
coedge $-1 $317 $211 $318 $319 forward $125 $-1 #
coedge $-1 $320 $127 $317 $321 forward $81 $-1 #
coedge $-1 $127 $320 $322 $323 forward $81 $-1 #
coedge $-1 $214 $213 $127 $207 reversed $215 $-1 #
edge $-1 $324 -27.413728474355828 $325 27.413728474355828 $206 $326 forward 7 unknown #
coedge $-1 $129 $128 $327 $328 forward $51 $-1 #
coedge $-1 $329 $330 $128 $210 reversed $314 $-1 #
edge $-1 $217 -55.768303476058229 $331 55.768303476058229 $209 $332 forward 7 unknown #
coedge $-1 $203 $333 $129 $212 reversed $125 $-1 #
edge $-1 $334 -55.768303476058229 $216 55.768303476058229 $211 $335 forward 7 unknown #
coedge $-1 $206 $130 $333 $336 forward $215 $-1 #
coedge $-1 $130 $206 $329 $337 reversed $215 $-1 #
loop $-1 $-1 $213 $313 #
vertex $-1 $131 $338 #
vertex $-1 $131 $339 #
straight-curve $-1 55.768303476058229 0 8.7877535675813707 0 1 0 I I #
face $-1 $340 $341 $31 $-1 $342 reversed single #
loop $-1 $-1 $230 $132 #
plane-surface $-1 0 -33.003541092489471 5.6946209342507945 0 0 1 1 0 0 forward_v I I I I #
coedge $-1 $343 $344 $136 $227 forward $133 $-1 #
coedge $-1 $345 $135 $344 $346 forward $85 $-1 #
coedge $-1 $135 $345 $347 $348 forward $85 $-1 #
coedge $-1 $137 $136 $135 $226 reversed $54 $-1 #
edge $-1 $349 -55.768303476058229 $350 55.768303476058229 $135 $351 forward 7 unknown #
edge $-1 $350 -8.7877535675813707 $233 -5.6946209342507945 $222 $352 forward 7 unknown #
coedge $-1 $347 $353 $137 $229 forward $354 $-1 #
edge $-1 $232 5.6946209342507945 $349 8.7877535675813707 $228 $355 forward 7 unknown #
coedge $-1 $356 $138 $353 $357 forward $220 $-1 #
coedge $-1 $138 $356 $343 $358 forward $220 $-1 #
vertex $-1 $229 $359 #
vertex $-1 $227 $360 #
straight-curve $-1 0 -27.413728474355828 5.6946209342507945 -1 0 0 I I #
face $-1 $-1 $247 $32 $-1 $361 forward single #
loop $-1 $-1 $362 $140 #
plane-surface $-1 55.768303476058229 0 0 -1 0 0 0 0 1 forward_v I I I I #
coedge $-1 $363 $364 $365 $366 reversed $141 $-1 #
coedge $-1 $367 $143 $145 $245 forward $89 $-1 #
coedge $-1 $143 $367 $363 $368 forward $89 $-1 #
coedge $-1 $365 $146 $143 $242 forward $247 $-1 #
edge $-1 $249 1.1048344394355256 $369 8.7358077436088912 $241 $370 forward 7 unknown #
coedge $-1 $371 $372 $144 $244 forward $236 $-1 #
edge $-1 $373 -76.425503029868509 $248 -67.837875344792991 $243 $374 forward 7 unknown #
edge $-1 $249 94.86283468326144 $373 111.53660695211644 $145 $375 forward 7 unknown #
coedge $-1 $146 $365 $371 $376 forward $247 $-1 #
loop $-1 $-1 $365 $235 #
vertex $-1 $244 $377 #
vertex $-1 $147 $378 #
straight-curve $-1 8.8041858576875889 -6.0251555309577336 8.787753567581376 -1 0 0 I I #
coedge $-1 $251 $251 $-1 $379 reversed $150 $-1 #
edge $-1 $380 0 $380 6.2831853071796004 $151 $381 forward 7 unknown #
vertex $-1 $154 $382 #
ellipse-curve $-1 48.622197326270012 -9.840642183044416 4.4939397250436102 0.51503808176128008 0 0.85716729658548041 0.85716729658548041 0 -0.51503808176128008 1 I I #
face $-1 $-1 $267 $34 $-1 $383 forward single #
loop $-1 $-1 $384 $155 #
plane-surface $-1 55.768303476058229 0 0 -1 0 0 0 0 1 forward_v I I I I #
coedge $-1 $385 $386 $387 $388 reversed $156 $-1 #
coedge $-1 $389 $158 $160 $265 forward $98 $-1 #
coedge $-1 $158 $389 $385 $390 forward $98 $-1 #
coedge $-1 $387 $161 $158 $262 forward $267 $-1 #
edge $-1 $269 -14.32562036174253 $391 -6.6946470575691635 $261 $392 forward 7 unknown #
coedge $-1 $393 $394 $159 $264 forward $256 $-1 #
edge $-1 $395 -76.425503029868509 $268 -67.837875344792991 $263 $396 forward 7 unknown #
edge $-1 $269 94.86283468326144 $395 111.53660695211644 $160 $397 forward 7 unknown #
coedge $-1 $161 $387 $393 $398 forward $267 $-1 #
loop $-1 $-1 $387 $255 #
vertex $-1 $264 $399 #
vertex $-1 $162 $400 #
straight-curve $-1 8.8041858576875889 24.835754071398377 8.787753567581376 -1 0 0 I I #
coedge $-1 $271 $271 $-1 $401 reversed $165 $-1 #
edge $-1 $402 0 $402 6.2831853071796004 $166 $403 forward 7 unknown #
vertex $-1 $169 $404 #
ellipse-curve $-1 48.622197326270012 21.020267419311693 4.4939397250436102 0.51503808176128008 0 0.85716729658548041 0.85716729658548041 0 -0.51503808176128008 1 I I #
face $-1 $-1 $405 $36 $-1 $406 reversed single #
loop $-1 $-1 $176 $170 #
plane-surface $-1 0 0 8.7877535675813707 0 0 1 1 0 0 forward_v I I I I #
coedge $-1 $407 $408 $409 $410 reversed $171 $-1 #
coedge $-1 $411 $173 $175 $285 forward $107 $-1 #
coedge $-1 $173 $411 $407 $412 forward $107 $-1 #
coedge $-1 $409 $176 $173 $282 forward $276 $-1 #
edge $-1 $288 -8.7358077436088912 $413 -1.1048344394355256 $281 $414 forward 7 unknown #
coedge $-1 $415 $416 $174 $284 forward $405 $-1 #
edge $-1 $417 -47.702702984478549 $287 -39.115075299403046 $283 $418 forward 7 unknown #
edge $-1 $288 -16.673772268855011 $417 -1.6583994872760861e-014 $175 $419 forward 7 unknown #
coedge $-1 $176 $409 $415 $420 forward $276 $-1 #
vertex $-1 $284 $421 #
vertex $-1 $177 $422 #
straight-curve $-1 -56.606951783419078 -13.656128835131099 8.7877535675813689 1 0 0 I I #
coedge $-1 $290 $290 $-1 $423 reversed $180 $-1 #
edge $-1 $424 0 $424 6.2831853071796004 $181 $425 forward 7 unknown #
vertex $-1 $184 $426 #
ellipse-curve $-1 -48.622197326270026 -9.840642183044416 4.4939397250436226 -0.51503808176128008 0 0.85716729658548041 0.85716729658548041 0 0.51503808176128008 1 I I #
face $-1 $-1 $427 $38 $-1 $428 reversed single #
loop $-1 $-1 $191 $185 #
plane-surface $-1 0 0 8.7877535675813707 0 0 1 1 0 0 forward_v I I I I #
coedge $-1 $429 $430 $431 $432 reversed $186 $-1 #
coedge $-1 $433 $188 $190 $304 forward $116 $-1 #
coedge $-1 $188 $433 $429 $434 forward $116 $-1 #
coedge $-1 $431 $191 $188 $301 forward $295 $-1 #
edge $-1 $307 6.6946470575691635 $435 14.32562036174253 $300 $436 forward 7 unknown #
coedge $-1 $437 $438 $189 $303 forward $427 $-1 #
edge $-1 $439 -47.702702984478549 $306 -39.115075299403046 $302 $440 forward 7 unknown #
edge $-1 $307 -16.673772268855011 $439 -1.6583994872760861e-014 $190 $441 forward 7 unknown #
coedge $-1 $191 $431 $437 $442 forward $295 $-1 #
vertex $-1 $192 $443 #
vertex $-1 $192 $444 #
straight-curve $-1 -56.606951783419078 17.20478076722501 8.7877535675813689 1 0 0 I I #
coedge $-1 $309 $309 $-1 $445 reversed $195 $-1 #
edge $-1 $446 0 $446 6.2831853071796004 $196 $447 forward 7 unknown #
vertex $-1 $199 $448 #
ellipse-curve $-1 -48.622197326270026 21.020267419311693 4.4939397250436226 -0.51503808176128008 0 0.85716729658548041 0.85716729658548041 0 0.51503808176128008 1 I I #
face $-1 $-1 $215 $30 $-1 $449 reversed single #
loop $-1 $-1 $329 $200 #
plane-surface $-1 0 27.413728474355828 0 0 -1 0 0 0 -1 forward_v I I I I #
coedge $-1 $450 $327 $330 $451 forward $201 $-1 #
coedge $-1 $333 $203 $204 $321 reversed $125 $-1 #
coedge $-1 $327 $450 $203 $319 reversed $201 $-1 #
edge $-1 $334 -8.7877535675813707 $452 8.7877535675813707 $318 $453 forward 7 unknown #
coedge $-1 $205 $204 $450 $454 forward $81 $-1 #
edge $-1 $325 -55.768303476058229 $452 55.768303476058229 $317 $455 forward 7 unknown #
coedge $-1 $330 $329 $205 $323 reversed $314 $-1 #
edge $-1 $456 -55.768303476058229 $324 55.768303476058229 $322 $457 forward 7 unknown #
vertex $-1 $207 $458 #
vertex $-1 $336 $459 #
straight-curve $-1 55.768303476058229 0 -8.7877535675813707 0 -1 0 I I #
coedge $-1 $316 $318 $208 $328 reversed $201 $-1 #
edge $-1 $331 -27.413728474355828 $334 27.413728474355828 $327 $460 forward 7 unknown #
coedge $-1 $322 $209 $214 $337 forward $314 $-1 #
coedge $-1 $209 $322 $316 $451 reversed $314 $-1 #
vertex $-1 $210 $461 #
straight-curve $-1 0 27.413728474355828 8.7877535675813707 -1 0 0 I I #
coedge $-1 $211 $317 $213 $336 reversed $125 $-1 #
vertex $-1 $328 $462 #
straight-curve $-1 0 -27.413728474355828 8.7877535675813707 1 0 0 I I #
edge $-1 $216 -8.7877535675813707 $325 8.7877535675813707 $213 $463 forward 7 unknown #
edge $-1 $217 -8.7877535675813707 $324 8.7877535675813707 $214 $464 forward 7 unknown #
point $-1 55.768303476058229 -27.413728474355828 8.7877535675813707 #
point $-1 55.768303476058229 27.413728474355828 8.7877535675813707 #
face $-1 $-1 $354 $31 $-1 $465 reversed single #
loop $-1 $-1 $466 $219 #
plane-surface $-1 0 -38.593353710623113 7.2411872509160826 0 1 0 0 0 1 forward_v I I I I #
coedge $-1 $467 $222 $231 $358 reversed $133 $-1 #
coedge $-1 $222 $467 $223 $346 reversed $133 $-1 #
coedge $-1 $224 $223 $468 $469 forward $85 $-1 #
edge $-1 $350 27.413728474355828 $470 38.593353710623113 $344 $471 forward 7 unknown #
coedge $-1 $472 $228 $224 $348 reversed $354 $-1 #
edge $-1 $473 -38.593353710623113 $349 -27.413728474355828 $347 $474 forward 7 unknown #
vertex $-1 $229 $475 #
vertex $-1 $346 $476 #
straight-curve $-1 0 -27.413728474355828 8.7877535675813707 -1 0 0 I I #
straight-curve $-1 -55.768303476058229 -27.413728474355828 0 0 0 -1 I I #
coedge $-1 $228 $472 $230 $357 reversed $354 $-1 #
loop $-1 $-1 $228 $340 #
straight-curve $-1 55.768303476058229 -27.413728474355828 0 0 0 1 I I #
coedge $-1 $231 $230 $477 $478 forward $220 $-1 #
edge $-1 $232 -5.5898126181336423 $479 5.5898126181336423 $353 $480 forward 7 unknown #
edge $-1 $481 -5.5898126181336423 $233 5.5898126181336423 $343 $482 forward 7 unknown #
point $-1 55.768303476058229 -27.413728474355828 5.6946209342507945 #
point $-1 -55.768303476058229 -27.413728474355828 5.6946209342507945 #
plane-surface $-1 0 0 8.7877535675813707 0 0 1 1 0 0 forward_v I I I I #
coedge $-1 $372 $371 $364 $483 forward $236 $-1 #
coedge $-1 $364 $238 $240 $368 reversed $141 $-1 #
coedge $-1 $238 $363 $362 $483 reversed $141 $-1 #
coedge $-1 $246 $241 $238 $366 forward $247 $-1 #
edge $-1 $369 32.671905318794231 $484 46.964117618370636 $365 $485 forward 7 unknown #
coedge $-1 $240 $239 $372 $486 reversed $89 $-1 #
edge $-1 $487 -111.53660695211644 $369 -94.86283468326144 $363 $488 forward 7 unknown #
vertex $-1 $242 $489 #
straight-curve $-1 41.476091176481823 -4.920321091522208 8.7877535675813689 0 -1 0 I I #
coedge $-1 $362 $243 $246 $376 reversed $236 $-1 #
coedge $-1 $243 $362 $367 $486 forward $236 $-1 #
vertex $-1 $244 $490 #
straight-curve $-1 55.768303476058229 -6.0251555309577336 76.625628912374367 0 0 1 I I #
straight-curve $-1 -39.837228375404734 -6.0251555309577336 57.645725973285764 0.85716729658548041 0 -0.51503808176128008 I I #
edge $-1 $484 -13.656128835131099 $248 -6.0251555309577336 $371 $491 forward 7 unknown #
point $-1 55.768303476058229 -6.0251555309577336 8.7877535675813707 #
point $-1 41.476091176481816 -6.0251555309577336 8.7877535675813689 #
edge $-1 $492 1 $492 0 $251 $-1 forward 7 unknown #
vertex $-1 $252 $493 #
ellipse-curve $-1 47.117478841053519 -9.840642183044416 1.989667668724012 0.51503808176128008 0 0.85716729658548041 0.85716729658548041 0 -0.51503808176128008 1 I I #
point $-1 49.479364622855499 -9.840642183044416 3.9789016432823412 #
plane-surface $-1 0 0 8.7877535675813707 0 0 1 1 0 0 forward_v I I I I #
coedge $-1 $394 $393 $386 $494 forward $256 $-1 #
coedge $-1 $386 $258 $260 $390 reversed $156 $-1 #
coedge $-1 $258 $385 $384 $494 reversed $156 $-1 #
coedge $-1 $266 $261 $258 $388 forward $267 $-1 #
edge $-1 $391 32.671905318794231 $495 46.964117618370636 $387 $496 forward 7 unknown #
coedge $-1 $260 $259 $394 $497 reversed $98 $-1 #
edge $-1 $498 -111.53660695211644 $391 -94.86283468326144 $385 $499 forward 7 unknown #
vertex $-1 $262 $500 #
straight-curve $-1 41.476091176481823 10.510133709655847 8.7877535675813689 0 -1 0 I I #
coedge $-1 $384 $263 $266 $398 reversed $256 $-1 #
coedge $-1 $263 $384 $389 $497 forward $256 $-1 #
vertex $-1 $264 $501 #
straight-curve $-1 55.768303476058229 24.835754071398377 76.625628912374367 0 0 1 I I #
straight-curve $-1 -39.837228375404734 24.835754071398377 57.645725973285764 0.85716729658548041 0 -0.51503808176128008 I I #
edge $-1 $495 17.20478076722501 $268 24.835754071398377 $393 $502 forward 7 unknown #
point $-1 55.768303476058229 24.835754071398377 8.7877535675813707 #
point $-1 41.476091176481816 24.835754071398377 8.7877535675813689 #
edge $-1 $503 1 $503 0 $271 $-1 forward 7 unknown #
vertex $-1 $272 $504 #
ellipse-curve $-1 47.117478841053519 21.020267419311693 1.989667668724012 0.51503808176128008 0 0.85716729658548041 0.85716729658548041 0 -0.51503808176128008 1 I I #
point $-1 49.479364622855499 21.020267419311693 3.9789016432823412 #
loop $-1 $-1 $283 $275 #
plane-surface $-1 -55.768303476058229 0 0 1 0 0 0 0 -1 forward_v I I I I #
coedge $-1 $408 $278 $280 $412 reversed $171 $-1 #
coedge $-1 $278 $407 $505 $506 reversed $171 $-1 #
coedge $-1 $286 $281 $278 $410 forward $276 $-1 #
edge $-1 $413 -15.130860606937233 $507 -0.83864830736084883 $409 $508 forward 7 unknown #
coedge $-1 $280 $279 $416 $509 reversed $107 $-1 #
edge $-1 $510 1.6583994872760861e-014 $413 16.673772268855011 $407 $511 forward 7 unknown #
vertex $-1 $282 $512 #
straight-curve $-1 -41.476091176481845 -4.920321091522208 8.7877535675813689 0 1 0 I I #
coedge $-1 $505 $283 $286 $420 reversed $405 $-1 #
coedge $-1 $283 $505 $411 $509 forward $405 $-1 #
vertex $-1 $284 $513 #
straight-curve $-1 -55.768303476058229 -13.656128835131099 47.902828866984414 0 0 1 I I #
straight-curve $-1 -55.768303476058243 -13.656128835131099 0.2001258825058585 -0.85716729658548041 0 -0.51503808176128008 I I #
edge $-1 $507 6.0251555309577336 $287 13.656128835131099 $415 $514 forward 7 unknown #
point $-1 -55.768303476058229 -13.656128835131099 8.7877535675813707 #
point $-1 -41.476091176481845 -13.656128835131099 8.7877535675813707 #
edge $-1 $515 1 $515 0 $290 $-1 forward 7 unknown #
vertex $-1 $291 $516 #
ellipse-curve $-1 -47.117478841053526 -9.840642183044416 1.9896676687240085 -0.51503808176128008 0 0.85716729658548041 0.85716729658548041 0 0.51503808176128008 1 I I #
point $-1 -47.765030029684546 -9.840642183044416 5.0089778068048982 #
loop $-1 $-1 $302 $294 #
plane-surface $-1 -55.768303476058229 0 0 1 0 0 0 0 -1 forward_v I I I I #
coedge $-1 $430 $297 $299 $434 reversed $186 $-1 #
coedge $-1 $297 $429 $517 $518 reversed $186 $-1 #
coedge $-1 $305 $300 $297 $432 forward $295 $-1 #
edge $-1 $435 -15.130860606937233 $519 -0.83864830736084883 $431 $520 forward 7 unknown #
coedge $-1 $299 $298 $438 $521 reversed $116 $-1 #
edge $-1 $522 1.6583994872760861e-014 $435 16.673772268855011 $429 $523 forward 7 unknown #
vertex $-1 $301 $524 #
straight-curve $-1 -41.476091176481845 10.510133709655847 8.7877535675813689 0 1 0 I I #
coedge $-1 $517 $302 $305 $442 reversed $427 $-1 #
coedge $-1 $302 $517 $433 $521 forward $427 $-1 #
vertex $-1 $303 $525 #
straight-curve $-1 -55.768303476058229 17.20478076722501 47.902828866984414 0 0 1 I I #
straight-curve $-1 -55.768303476058243 17.20478076722501 0.2001258825058585 -0.85716729658548041 0 -0.51503808176128008 I I #
edge $-1 $519 -24.835754071398377 $306 -17.20478076722501 $437 $526 forward 7 unknown #
point $-1 -55.768303476058229 17.20478076722501 8.7877535675813707 #
point $-1 -41.476091176481845 17.20478076722501 8.7877535675813707 #
edge $-1 $527 1 $527 0 $309 $-1 forward 7 unknown #
vertex $-1 $310 $528 #
ellipse-curve $-1 -47.117478841053526 21.020267419311693 1.9896676687240085 -0.51503808176128008 0 0.85716729658548041 0.85716729658548041 0 0.51503808176128008 1 I I #
point $-1 -47.765030029684546 21.020267419311693 5.0089778068048982 #
plane-surface $-1 55.768303476058229 0 0 -1 0 0 0 0 1 forward_v I I I I #
coedge $-1 $318 $316 $320 $454 reversed $201 $-1 #
edge $-1 $331 -8.7877535675813707 $456 8.7877535675813707 $330 $529 forward 7 unknown #
vertex $-1 $454 $530 #
straight-curve $-1 -55.768303476058229 -27.413728474355828 0 0 0 -1 I I #
edge $-1 $452 -27.413728474355828 $456 27.413728474355828 $450 $531 forward 7 unknown #
straight-curve $-1 0 -27.413728474355828 -8.7877535675813707 -1 0 0 I I #
vertex $-1 $323 $532 #
straight-curve $-1 0 27.413728474355828 -8.7877535675813707 1 0 0 I I #
point $-1 55.768303476058229 27.413728474355828 -8.7877535675813707 #
point $-1 55.768303476058229 -27.413728474355828 -8.7877535675813707 #
straight-curve $-1 -55.768303476058229 0 8.7877535675813707 0 -1 0 I I #
point $-1 -55.768303476058229 27.413728474355828 8.7877535675813707 #
point $-1 -55.768303476058229 -27.413728474355828 8.7877535675813707 #
straight-curve $-1 55.768303476058229 -27.413728474355828 0 0 0 -1 I I #
straight-curve $-1 55.768303476058229 27.413728474355828 0 0 0 -1 I I #
plane-surface $-1 55.768303476058229 0 0 -1 0 0 0 0 1 forward_v I I I I #
coedge $-1 $477 $468 $467 $533 forward $341 $-1 #
coedge $-1 $344 $343 $466 $533 reversed $133 $-1 #
coedge $-1 $466 $534 $345 $469 reversed $341 $-1 #
edge $-1 $470 -55.768303476058229 $473 55.768303476058229 $468 $535 forward 7 unknown #
vertex $-1 $346 $536 #
straight-curve $-1 -55.768303476058229 0 8.7877535675813707 0 -1 0 I I #
coedge $-1 $353 $347 $534 $537 forward $354 $-1 #
vertex $-1 $348 $538 #
straight-curve $-1 55.768303476058229 0 8.7877535675813707 0 1 0 I I #
point $-1 55.768303476058229 -27.413728474355828 8.7877535675813707 #
point $-1 -55.768303476058229 -27.413728474355828 8.7877535675813707 #
coedge $-1 $534 $466 $356 $478 reversed $341 $-1 #
edge $-1 $479 -55.768303476058229 $481 55.768303476058229 $477 $539 forward 7 unknown #
vertex $-1 $537 $540 #
straight-curve $-1 55.768303476058229 -33.003541092489471 5.6946209342507945 0 -1 0 I I #
vertex $-1 $358 $541 #
straight-curve $-1 -55.768303476058229 -33.003541092489471 5.6946209342507945 0 1 0 I I #
edge $-1 $484 67.837875344792991 $487 76.425503029868509 $362 $542 forward 7 unknown #
vertex $-1 $376 $543 #
straight-curve $-1 8.8041858576875889 -13.656128835131099 8.787753567581376 1 0 0 I I #
edge $-1 $487 -8.7358077436088912 $373 -1.1048344394355256 $372 $544 forward 7 unknown #
vertex $-1 $486 $545 #
straight-curve $-1 -39.837228375404734 -13.656128835131099 57.645725973285764 -0.85716729658548041 0 0.51503808176128008 I I #
point $-1 41.476091176481816 -13.656128835131099 8.7877535675813689 #
point $-1 55.768303476058222 -6.0251555309577336 0.2001258825058585 #
straight-curve $-1 55.768303476058229 0 8.7877535675813707 0 1 0 I I #
vertex $-1 $379 $546 #
point $-1 47.974646137638999 -9.840642183044416 1.4746295869627319 #
edge $-1 $495 67.837875344792991 $498 76.425503029868509 $384 $547 forward 7 unknown #
vertex $-1 $398 $548 #
straight-curve $-1 8.8041858576875889 17.20478076722501 8.787753567581376 1 0 0 I I #
edge $-1 $498 6.6946470575691635 $395 14.32562036174253 $394 $549 forward 7 unknown #
vertex $-1 $497 $550 #
straight-curve $-1 -39.837228375404734 17.20478076722501 57.645725973285764 -0.85716729658548041 0 0.51503808176128008 I I #
point $-1 41.476091176481816 17.20478076722501 8.7877535675813689 #
point $-1 55.768303476058222 24.835754071398377 0.2001258825058585 #
straight-curve $-1 55.768303476058229 0 8.7877535675813707 0 1 0 I I #
vertex $-1 $401 $551 #
point $-1 47.974646137638999 21.020267419311693 1.4746295869627319 #
coedge $-1 $416 $415 $408 $506 forward $405 $-1 #
edge $-1 $507 39.115075299403046 $510 47.702702984478549 $505 $552 forward 7 unknown #
vertex $-1 $420 $553 #
straight-curve $-1 -56.606951783419078 -6.0251555309577336 8.7877535675813689 -1 0 0 I I #
edge $-1 $510 1.1048344394355256 $417 8.7358077436088912 $416 $554 forward 7 unknown #
vertex $-1 $509 $555 #
straight-curve $-1 -55.768303476058243 -6.0251555309577336 0.2001258825058585 0.85716729658548041 0 0.51503808176128008 I I #
point $-1 -41.476091176481845 -6.0251555309577336 8.7877535675813707 #
point $-1 -55.768303476058229 -13.656128835131099 0.20012588250586705 #
straight-curve $-1 -55.768303476058229 0 8.7877535675813707 0 -1 0 I I #
vertex $-1 $423 $556 #
point $-1 -46.260311544468045 -9.840642183044416 2.5047057504852885 #
coedge $-1 $438 $437 $430 $518 forward $427 $-1 #
edge $-1 $519 39.115075299403046 $522 47.702702984478549 $517 $557 forward 7 unknown #
vertex $-1 $442 $558 #
straight-curve $-1 -56.606951783419078 24.835754071398377 8.7877535675813689 -1 0 0 I I #
edge $-1 $522 -14.32562036174253 $439 -6.6946470575691635 $438 $559 forward 7 unknown #
vertex $-1 $521 $560 #
straight-curve $-1 -55.768303476058243 24.835754071398377 0.2001258825058585 0.85716729658548041 0 0.51503808176128008 I I #
point $-1 -41.476091176481845 24.835754071398377 8.7877535675813707 #
point $-1 -55.768303476058229 17.20478076722501 0.20012588250586705 #
straight-curve $-1 -55.768303476058229 0 8.7877535675813707 0 -1 0 I I #
vertex $-1 $445 $561 #
point $-1 -46.260311544468045 21.020267419311693 2.5047057504852885 #
straight-curve $-1 -55.768303476058229 27.413728474355828 0 0 0 -1 I I #
point $-1 -55.768303476058229 -27.413728474355828 -8.7877535675813707 #
straight-curve $-1 -55.768303476058229 0 -8.7877535675813707 0 1 0 I I #
point $-1 -55.768303476058229 27.413728474355828 -8.7877535675813707 #
edge $-1 $470 -1.5465663166652881 $481 1.5465663166652881 $467 $562 forward 7 unknown #
coedge $-1 $468 $477 $472 $537 reversed $341 $-1 #
straight-curve $-1 0 -38.593353710623113 8.7877535675813707 1 0 0 I I #
point $-1 -55.768303476058229 -38.593353710623113 8.7877535675813707 #
edge $-1 $473 -1.5465663166652881 $479 1.5465663166652881 $472 $563 forward 7 unknown #
point $-1 55.768303476058229 -38.593353710623113 8.7877535675813707 #
straight-curve $-1 0 -38.593353710623113 5.6946209342507945 -1 0 0 I I #
point $-1 55.768303476058229 -38.593353710623113 5.6946209342507945 #
point $-1 -55.768303476058229 -38.593353710623113 5.6946209342507945 #
straight-curve $-1 55.768303476058229 -13.656128835131099 76.625628912374367 0 0 -1 I I #
point $-1 55.768303476058229 -13.656128835131099 8.7877535675813707 #
straight-curve $-1 55.768303476058222 -4.920321091522208 0.20012588250585495 0 1 0 I I #
point $-1 55.768303476058222 -13.656128835131099 0.2001258825058585 #
point $-1 46.602440759292243 -9.840642183044416 1.1325003721385318 #
straight-curve $-1 55.768303476058229 17.20478076722501 76.625628912374367 0 0 -1 I I #
point $-1 55.768303476058229 17.20478076722501 8.7877535675813707 #
straight-curve $-1 55.768303476058222 10.510133709655847 0.20012588250585495 0 1 0 I I #
point $-1 55.768303476058222 17.20478076722501 0.2001258825058585 #
point $-1 46.602440759292243 21.020267419311693 1.1325003721385318 #
straight-curve $-1 -55.768303476058229 -6.0251555309577336 47.902828866984414 0 0 -1 I I #
point $-1 -55.768303476058229 -6.0251555309577336 8.7877535675813707 #
straight-curve $-1 -55.768303476058229 -4.920321091522208 0.2001258825058688 0 -1 0 I I #
point $-1 -55.768303476058229 -6.0251555309577336 0.20012588250586705 #
point $-1 -46.60244075929225 -9.840642183044416 1.1325003721385283 #
straight-curve $-1 -55.768303476058229 24.835754071398377 47.902828866984414 0 0 -1 I I #
point $-1 -55.768303476058229 24.835754071398377 8.7877535675813707 #
straight-curve $-1 -55.768303476058229 10.510133709655847 0.2001258825058688 0 -1 0 I I #
point $-1 -55.768303476058229 24.835754071398377 0.20012588250586705 #
point $-1 -46.60244075929225 21.020267419311693 1.1325003721385283 #
straight-curve $-1 -55.768303476058229 -38.593353710623113 7.2411872509160826 0 0 -1 I I #
straight-curve $-1 55.768303476058229 -38.593353710623113 7.2411872509160826 0 0 -1 I I #
End-of-ACIS-data 