500 0 18 0           
7 Unknown 11 ACIS 5.0 NT 24 Fri Mar 26 01:13:08 1999 
-1 9.9999999999999995e-007 1e-010 
body $-1 $18 $-1 $19 #
body $-1 $20 $-1 $21 #
body $-1 $22 $-1 $23 #
body $-1 $24 $-1 $25 #
body $-1 $26 $-1 $27 #
body $-1 $28 $-1 $29 #
body $-1 $30 $-1 $31 #
body $-1 $32 $-1 $33 #
body $-1 $34 $-1 $35 #
body $-1 $36 $-1 $37 #
body $-1 $38 $-1 $39 #
body $-1 $40 $-1 $41 #
body $-1 $42 $-1 $43 #
body $-1 $44 $-1 $45 #
body $-1 $46 $-1 $47 #
body $-1 $48 $-1 $49 #
body $-1 $50 $-1 $51 #
body $-1 $52 $-1 $53 #
lump $-1 $-1 $54 $0 #
transform $-1 1 0 0 0 1 0 0 0 1 76.60023804437391 36.942134517045289 8.7991661508585874 1 rotate no_reflect no_shear #
lump $-1 $-1 $55 $1 #
transform $-1 1 0 0 0 1 0 0 0 1 76.60023804437391 36.942134517045289 8.7991661508585874 1 rotate no_reflect no_shear #
lump $-1 $-1 $56 $2 #
transform $-1 1 0 0 0 1 0 0 0 1 76.60023804437391 36.942134517045289 8.7991661508585874 1 rotate no_reflect no_shear #
lump $-1 $-1 $57 $3 #
transform $-1 1 0 0 0 1 0 0 0 1 76.60023804437391 36.942134517045289 8.7991661508585874 1 rotate no_reflect no_shear #
lump $-1 $-1 $58 $4 #
transform $-1 1 0 0 0 1 0 0 0 1 76.60023804437391 36.942134517045289 8.7991661508585874 1 rotate no_reflect no_shear #
lump $-1 $-1 $59 $5 #
transform $-1 1 0 0 0 1 0 0 0 1 76.60023804437391 36.942134517045289 8.7991661508585874 1 rotate no_reflect no_shear #
lump $-1 $-1 $60 $6 #
transform $-1 1 0 0 0 1 0 0 0 1 76.60023804437391 36.942134517045289 8.7991661508585874 1 rotate no_reflect no_shear #
lump $-1 $-1 $61 $7 #
transform $-1 1 0 0 0 1 0 0 0 1 76.60023804437391 36.942134517045289 8.7991661508585874 1 rotate no_reflect no_shear #
lump $-1 $-1 $62 $8 #
transform $-1 1 0 0 0 1 0 0 0 1 76.60023804437391 36.942134517045289 8.7991661508585874 1 rotate no_reflect no_shear #
lump $-1 $-1 $63 $9 #
transform $-1 1 0 0 0 1 0 0 0 1 76.60023804437391 36.942134517045289 8.7991661508585874 1 rotate no_reflect no_shear #
lump $-1 $-1 $64 $10 #
transform $-1 1 0 0 0 1 0 0 0 1 76.60023804437391 36.942134517045289 8.7991661508585874 1 rotate no_reflect no_shear #
lump $-1 $-1 $65 $11 #
transform $-1 1 0 0 0 1 0 0 0 1 76.60023804437391 36.942134517045289 8.7991661508585874 1 rotate no_reflect no_shear #
lump $-1 $-1 $66 $12 #
transform $-1 1 0 0 0 1 0 0 0 1 76.60023804437391 36.942134517045289 8.7991661508585874 1 rotate no_reflect no_shear #
lump $-1 $-1 $67 $13 #
transform $-1 1 0 0 0 1 0 0 0 1 76.60023804437391 36.942134517045289 8.7991661508585874 1 rotate no_reflect no_shear #
lump $-1 $-1 $68 $14 #
transform $-1 1 0 0 0 1 0 0 0 1 76.60023804437391 36.942134517045289 8.7991661508585874 1 rotate no_reflect no_shear #
lump $-1 $-1 $69 $15 #
transform $-1 1 0 0 0 1 0 0 0 1 76.60023804437391 36.942134517045289 8.7991661508585874 1 rotate no_reflect no_shear #
lump $-1 $-1 $70 $16 #
transform $-1 1 0 0 0 1 0 0 0 1 76.60023804437391 36.942134517045289 8.7991661508585874 1 rotate no_reflect no_shear #
lump $-1 $-1 $71 $17 #
transform $-1 1 0 0 0 1 0 0 0 1 76.60023804437391 36.942134517045289 8.7991661508585874 1 rotate no_reflect no_shear #
shell $-1 $-1 $-1 $72 $-1 $18 #
shell $-1 $-1 $-1 $73 $-1 $20 #
shell $-1 $-1 $-1 $74 $-1 $22 #
shell $-1 $-1 $-1 $75 $-1 $24 #
shell $-1 $-1 $-1 $76 $-1 $26 #
shell $-1 $-1 $-1 $77 $-1 $28 #
shell $-1 $-1 $-1 $78 $-1 $30 #
shell $-1 $-1 $-1 $79 $-1 $32 #
shell $-1 $-1 $-1 $80 $-1 $34 #
shell $-1 $-1 $-1 $81 $-1 $36 #
shell $-1 $-1 $-1 $82 $-1 $38 #
shell $-1 $-1 $-1 $83 $-1 $40 #
shell $-1 $-1 $-1 $84 $-1 $42 #
shell $-1 $-1 $-1 $85 $-1 $44 #
shell $-1 $-1 $-1 $86 $-1 $46 #
shell $-1 $-1 $-1 $87 $-1 $48 #
shell $-1 $-1 $-1 $88 $-1 $50 #
shell $-1 $-1 $-1 $89 $-1 $52 #
face $-1 $90 $91 $54 $-1 $92 forward single #
face $-1 $93 $94 $55 $-1 $95 reversed single #
face $-1 $96 $97 $56 $-1 $98 reversed single #
face $-1 $99 $100 $57 $-1 $101 forward single #
face $-1 $102 $103 $58 $-1 $104 forward single #
face $-1 $105 $106 $59 $-1 $107 forward single #
face $-1 $108 $109 $60 $-1 $110 reversed single #
face $-1 $111 $112 $61 $-1 $113 forward single #
face $-1 $114 $115 $62 $-1 $116 forward single #
face $-1 $117 $118 $63 $-1 $119 forward single #
face $-1 $120 $121 $64 $-1 $122 reversed single #
face $-1 $123 $124 $65 $-1 $125 forward single #
face $-1 $126 $127 $66 $-1 $128 forward single #
face $-1 $129 $130 $67 $-1 $131 forward single #
face $-1 $132 $133 $68 $-1 $134 reversed single #
face $-1 $135 $136 $69 $-1 $137 forward single #
face $-1 $138 $139 $70 $-1 $140 forward single #
face $-1 $141 $142 $71 $-1 $143 forward single #
face $-1 $144 $145 $54 $-1 $146 reversed single #
loop $-1 $-1 $147 $72 #
plane-surface $-1 0 0 8.7991661508585874 0 0 1 1 0 0 forward_v I I I I #
face $-1 $148 $149 $55 $-1 $150 reversed single #
loop $-1 $-1 $151 $73 #
plane-surface $-1 -75.10023804437391 -29.243236059392274 0 0 -1 0 0 0 -1 forward_v I I I I #
face $-1 $152 $153 $56 $-1 $154 reversed single #
loop $-1 $-1 $155 $74 #
plane-surface $-1 -73.822414643847722 55.468605790881568 169.81916323842597 1 0 0 0 -0.52991927123019833 -0.84804809178421925 forward_v I I I I #
face $-1 $156 $157 $57 $-1 $158 forward single #
loop $-1 $159 $160 $75 #
cone-surface $-1 -70.757914199803736 29.331507492156319 2.9061045556361522 0 -0.52991927123019833 -0.84804809178421925 1.5 0 0 1 I I 0 1 1.5 forward I I I I #
face $-1 $161 $162 $58 $-1 $163 forward single #
loop $-1 $164 $165 $76 #
cone-surface $-1 -66.161163533737749 29.331507492156319 2.9061045556361522 0 -0.52991927123019833 -0.84804809178421925 1.5 0 0 1 I I 0 1 1.5 forward I I I I #
face $-1 $166 $167 $59 $-1 $168 forward single #
loop $-1 $169 $170 $77 #
cone-surface $-1 -61.56441286767177 29.331507492156319 2.9061045556361522 0 -0.52991927123019833 -0.84804809178421925 1.5 0 0 1 I I 0 1 1.5 forward I I I I #
face $-1 $171 $172 $60 $-1 $173 reversed single #
loop $-1 $-1 $174 $78 #
plane-surface $-1 -35.52229562166076 55.468605790881568 169.81916323842597 1 0 0 0 -0.52991927123019833 -0.84804809178421925 forward_v I I I I #
face $-1 $175 $176 $61 $-1 $177 forward single #
loop $-1 $178 $179 $79 #
cone-surface $-1 -32.457795177616774 29.331507492156319 2.9061045556361522 0 -0.52991927123019833 -0.84804809178421925 1.5 0 0 1 I I 0 1 1.5 forward I I I I #
face $-1 $180 $181 $62 $-1 $182 forward single #
loop $-1 $183 $184 $80 #
cone-surface $-1 -27.861044511550794 29.331507492156319 2.9061045556361522 0 -0.52991927123019833 -0.84804809178421925 1.5 0 0 1 I I 0 1 1.5 forward I I I I #
face $-1 $185 $186 $63 $-1 $187 forward single #
loop $-1 $188 $189 $81 #
cone-surface $-1 -23.264293845484815 29.331507492156319 2.9061045556361522 0 -0.52991927123019833 -0.84804809178421925 1.5 0 0 1 I I 0 1 1.5 forward I I I I #
face $-1 $190 $191 $64 $-1 $192 reversed single #
loop $-1 $-1 $193 $82 #
plane-surface $-1 2.7778234005261933 55.468605790881568 169.81916323842597 1 0 0 0 -0.52991927123019833 -0.84804809178421925 forward_v I I I I #
face $-1 $194 $195 $65 $-1 $196 forward single #
loop $-1 $197 $198 $83 #
cone-surface $-1 5.8423238445701742 29.331507492156319 2.9061045556361522 0 -0.52991927123019833 -0.84804809178421925 1.5 0 0 1 I I 0 1 1.5 forward I I I I #
face $-1 $199 $200 $66 $-1 $201 forward single #
loop $-1 $202 $203 $84 #
cone-surface $-1 10.439074510636161 29.331507492156319 2.9061045556361522 0 -0.52991927123019833 -0.84804809178421925 1.5 0 0 1 I I 0 1 1.5 forward I I I I #
face $-1 $204 $205 $67 $-1 $206 forward single #
loop $-1 $207 $208 $85 #
cone-surface $-1 15.035825176702147 29.331507492156319 2.9061045556361522 0 -0.52991927123019833 -0.84804809178421925 1.5 0 0 1 I I 0 1 1.5 forward I I I I #
face $-1 $209 $210 $68 $-1 $211 reversed single #
loop $-1 $-1 $212 $86 #
plane-surface $-1 41.077942422713143 55.468605790881568 169.81916323842597 1 0 0 0 -0.52991927123019833 -0.84804809178421925 forward_v I I I I #
face $-1 $213 $214 $69 $-1 $215 forward single #
loop $-1 $216 $217 $87 #
cone-surface $-1 44.142442866757122 29.331507492156319 2.9061045556361522 0 -0.52991927123019833 -0.84804809178421925 1.5 0 0 1 I I 0 1 1.5 forward I I I I #
face $-1 $218 $219 $70 $-1 $220 forward single #
loop $-1 $221 $222 $88 #
cone-surface $-1 48.739193532823109 29.331507492156319 2.9061045556361522 0 -0.52991927123019833 -0.84804809178421925 1.5 0 0 1 I I 0 1 1.5 forward I I I I #
face $-1 $223 $224 $71 $-1 $225 forward single #
loop $-1 $226 $227 $89 #
cone-surface $-1 53.335944198889095 29.331507492156319 2.9061045556361522 0 -0.52991927123019833 -0.84804809178421925 1.5 0 0 1 I I 0 1 1.5 forward I I I I #
face $-1 $228 $229 $54 $-1 $230 reversed single #
loop $-1 $-1 $231 $90 #
plane-surface $-1 0 0 -8.7991661508585874 0 0 1 1 0 0 forward_v I I I I #
coedge $-1 $232 $233 $234 $235 forward $91 $-1 #
face $-1 $236 $237 $55 $-1 $238 forward single #
loop $-1 $-1 $239 $93 #
plane-surface $-1 -73.60023804437391 -33.092685288218782 0 -1 0 0 0 0 1 forward_v I I I I #
coedge $-1 $240 $241 $242 $243 forward $94 $-1 #
face $-1 $244 $245 $56 $-1 $246 reversed single #
loop $-1 $-1 $247 $96 #
plane-surface $-1 -66.161163533737749 -25.715278850187104 39.897791830929464 0 0.52991927123019833 0.84804809178421925 1 0 0 forward_v I I I I #
coedge $-1 $248 $249 $250 $251 reversed $97 $-1 #
face $-1 $-1 $252 $57 $-1 $253 forward single #
loop $-1 $254 $255 $99 #
cone-surface $-1 -70.757914199803736 27.768045913550424 0.40404305250069861 0 -0.52991927123019833 -0.84804809178421925 0.75 0 0 1 I I -0.70710678118654757 0.70710678118654757 0.75 forward I I I I #
loop $-1 $-1 $256 $75 #
coedge $-1 $160 $160 $257 $258 reversed $100 $-1 #
face $-1 $-1 $259 $58 $-1 $260 forward single #
loop $-1 $261 $262 $102 #
cone-surface $-1 -66.161163533737749 27.768045913550424 0.40404305250069861 0 -0.52991927123019833 -0.84804809178421925 0.75 0 0 1 I I -0.70710678118654757 0.70710678118654757 0.75 forward I I I I #
loop $-1 $-1 $263 $76 #
coedge $-1 $165 $165 $264 $265 reversed $103 $-1 #
face $-1 $-1 $266 $59 $-1 $267 forward single #
loop $-1 $268 $269 $105 #
cone-surface $-1 -61.56441286767177 27.768045913550424 0.40404305250069861 0 -0.52991927123019833 -0.84804809178421925 0.75 0 0 1 I I -0.70710678118654757 0.70710678118654757 0.75 forward I I I I #
loop $-1 $-1 $270 $77 #
coedge $-1 $170 $170 $271 $272 reversed $106 $-1 #
face $-1 $273 $274 $60 $-1 $275 reversed single #
loop $-1 $-1 $276 $108 #
plane-surface $-1 -27.861044511550794 -25.715278850187104 39.897791830929464 0 0.52991927123019833 0.84804809178421925 1 0 0 forward_v I I I I #
coedge $-1 $277 $278 $279 $280 reversed $109 $-1 #
face $-1 $-1 $281 $61 $-1 $282 forward single #
loop $-1 $283 $284 $111 #
cone-surface $-1 -32.457795177616774 27.768045913550424 0.40404305250069861 0 -0.52991927123019833 -0.84804809178421925 0.75 0 0 1 I I -0.70710678118654757 0.70710678118654757 0.75 forward I I I I #
loop $-1 $-1 $285 $79 #
coedge $-1 $179 $179 $286 $287 reversed $112 $-1 #
face $-1 $-1 $288 $62 $-1 $289 forward single #
loop $-1 $290 $291 $114 #
cone-surface $-1 -27.861044511550794 27.768045913550424 0.40404305250069861 0 -0.52991927123019833 -0.84804809178421925 0.75 0 0 1 I I -0.70710678118654757 0.70710678118654757 0.75 forward I I I I #
loop $-1 $-1 $292 $80 #
coedge $-1 $184 $184 $293 $294 reversed $115 $-1 #
face $-1 $-1 $295 $63 $-1 $296 forward single #
loop $-1 $297 $298 $117 #
cone-surface $-1 -23.264293845484815 27.768045913550424 0.40404305250069861 0 -0.52991927123019833 -0.84804809178421925 0.75 0 0 1 I I -0.70710678118654757 0.70710678118654757 0.75 forward I I I I #
loop $-1 $-1 $299 $81 #
coedge $-1 $189 $189 $300 $301 reversed $118 $-1 #
face $-1 $302 $303 $64 $-1 $304 reversed single #
loop $-1 $-1 $305 $120 #
plane-surface $-1 10.439074510636161 -25.715278850187104 39.897791830929464 0 0.52991927123019833 0.84804809178421925 1 0 0 forward_v I I I I #
coedge $-1 $306 $307 $308 $309 reversed $121 $-1 #
face $-1 $-1 $310 $65 $-1 $311 forward single #
loop $-1 $312 $313 $123 #
cone-surface $-1 5.8423238445701742 27.768045913550424 0.40404305250069861 0 -0.52991927123019833 -0.84804809178421925 0.75 0 0 1 I I -0.70710678118654757 0.70710678118654757 0.75 forward I I I I #
loop $-1 $-1 $314 $83 #
coedge $-1 $198 $198 $315 $316 reversed $124 $-1 #
face $-1 $-1 $317 $66 $-1 $318 forward single #
loop $-1 $319 $320 $126 #
cone-surface $-1 10.439074510636161 27.768045913550424 0.40404305250069861 0 -0.52991927123019833 -0.84804809178421925 0.75 0 0 1 I I -0.70710678118654757 0.70710678118654757 0.75 forward I I I I #
loop $-1 $-1 $321 $84 #
coedge $-1 $203 $203 $322 $323 reversed $127 $-1 #
face $-1 $-1 $324 $67 $-1 $325 forward single #
loop $-1 $326 $327 $129 #
cone-surface $-1 15.035825176702147 27.768045913550424 0.40404305250069861 0 -0.52991927123019833 -0.84804809178421925 0.75 0 0 1 I I -0.70710678118654757 0.70710678118654757 0.75 forward I I I I #
loop $-1 $-1 $328 $85 #
coedge $-1 $208 $208 $329 $330 reversed $130 $-1 #
face $-1 $331 $332 $68 $-1 $333 reversed single #
loop $-1 $-1 $334 $132 #
plane-surface $-1 48.739193532823109 -25.715278850187104 39.897791830929464 0 0.52991927123019833 0.84804809178421925 1 0 0 forward_v I I I I #
coedge $-1 $335 $336 $337 $338 reversed $133 $-1 #
face $-1 $-1 $339 $69 $-1 $340 forward single #
loop $-1 $341 $342 $135 #
cone-surface $-1 44.142442866757122 27.768045913550424 0.40404305250069861 0 -0.52991927123019833 -0.84804809178421925 0.75 0 0 1 I I -0.70710678118654757 0.70710678118654757 0.75 forward I I I I #
loop $-1 $-1 $343 $87 #
coedge $-1 $217 $217 $344 $345 reversed $136 $-1 #
face $-1 $-1 $346 $70 $-1 $347 forward single #
loop $-1 $348 $349 $138 #
cone-surface $-1 48.739193532823109 27.768045913550424 0.40404305250069861 0 -0.52991927123019833 -0.84804809178421925 0.75 0 0 1 I I -0.70710678118654757 0.70710678118654757 0.75 forward I I I I #
loop $-1 $-1 $350 $88 #
coedge $-1 $222 $222 $351 $352 reversed $139 $-1 #
face $-1 $-1 $353 $71 $-1 $354 forward single #
loop $-1 $355 $356 $141 #
cone-surface $-1 53.335944198889095 27.768045913550424 0.40404305250069861 0 -0.52991927123019833 -0.84804809178421925 0.75 0 0 1 I I -0.70710678118654757 0.70710678118654757 0.75 forward I I I I #
loop $-1 $-1 $357 $89 #
coedge $-1 $227 $227 $358 $359 reversed $142 $-1 #
face $-1 $360 $361 $54 $-1 $362 reversed single #
loop $-1 $-1 $363 $144 #
plane-surface $-1 0 -36.942134517045289 0 0 1 0 0 0 1 forward_v I I I I #
coedge $-1 $364 $365 $366 $367 forward $145 $-1 #
coedge $-1 $368 $147 $369 $370 forward $91 $-1 #
coedge $-1 $147 $368 $371 $372 forward $91 $-1 #
coedge $-1 $373 $374 $147 $235 reversed $375 $-1 #
edge $-1 $376 -36.942134517045289 $377 36.942134517045289 $234 $378 forward 7 unknown #
face $-1 $379 $380 $55 $-1 $381 reversed single #
loop $-1 $-1 $382 $148 #
plane-surface $-1 0 0 8.7991661508585874 0 0 1 1 0 0 forward_v I I I I #
coedge $-1 $383 $384 $385 $386 reversed $149 $-1 #
coedge $-1 $387 $151 $388 $389 reversed $94 $-1 #
coedge $-1 $151 $387 $390 $391 reversed $94 $-1 #
coedge $-1 $384 $383 $151 $243 reversed $149 $-1 #
edge $-1 $392 -8.7991661508585874 $393 8.7991661508585874 $242 $394 forward 7 unknown #
face $-1 $395 $396 $56 $-1 $397 reversed single #
loop $-1 $-1 $398 $152 #
plane-surface $-1 -58.499912423627784 55.468605790881568 169.81916323842597 -1 0 0 0 0.52991927123019833 0.84804809178421925 forward_v I I I I #
coedge $-1 $399 $400 $401 $402 reversed $153 $-1 #
coedge $-1 $249 $155 $403 $404 reversed $97 $-1 #
coedge $-1 $155 $248 $399 $405 reversed $97 $-1 #
coedge $-1 $401 $406 $155 $251 forward $407 $-1 #
edge $-1 $408 -9.2078316216045053 $409 3.6813781778069554 $250 $410 forward 7 unknown #
loop $-1 $-1 $257 $156 #
plane-surface $-1 -66.161163533737749 -25.715278850187104 39.897791830929464 0 0.52991927123019833 0.84804809178421925 1 0 0 forward_v I I I I #
loop $-1 $-1 $411 $99 #
coedge $-1 $255 $255 $256 $412 reversed $157 $-1 #
coedge $-1 $256 $256 $255 $412 forward $159 $-1 #
coedge $-1 $257 $257 $160 $258 forward $252 $-1 #
edge $-1 $413 1.005340262432867e-015 $413 6.2831853071796013 $257 $414 forward 7 unknown #
loop $-1 $-1 $264 $161 #
plane-surface $-1 -66.161163533737749 -25.715278850187104 39.897791830929464 0 0.52991927123019833 0.84804809178421925 1 0 0 forward_v I I I I #
loop $-1 $-1 $415 $102 #
coedge $-1 $262 $262 $263 $416 reversed $162 $-1 #
coedge $-1 $263 $263 $262 $416 forward $164 $-1 #
coedge $-1 $264 $264 $165 $265 forward $259 $-1 #
edge $-1 $417 1.005340262432867e-015 $417 6.2831853071796013 $264 $418 forward 7 unknown #
loop $-1 $-1 $271 $166 #
plane-surface $-1 -66.161163533737749 -25.715278850187104 39.897791830929464 0 0.52991927123019833 0.84804809178421925 1 0 0 forward_v I I I I #
loop $-1 $-1 $419 $105 #
coedge $-1 $269 $269 $270 $420 reversed $167 $-1 #
coedge $-1 $270 $270 $269 $420 forward $169 $-1 #
coedge $-1 $271 $271 $170 $272 forward $266 $-1 #
edge $-1 $421 1.005340262432867e-015 $421 6.2831853071796013 $271 $422 forward 7 unknown #
face $-1 $423 $424 $60 $-1 $425 forward single #
loop $-1 $-1 $426 $171 #
plane-surface $-1 -20.199793401440829 55.468605790881568 169.81916323842597 -1 0 0 0 0.52991927123019833 0.84804809178421925 forward_v I I I I #
coedge $-1 $427 $428 $429 $430 reversed $172 $-1 #
coedge $-1 $278 $174 $431 $432 reversed $109 $-1 #
coedge $-1 $174 $277 $427 $433 reversed $109 $-1 #
coedge $-1 $429 $434 $174 $280 forward $424 $-1 #
edge $-1 $435 -9.2078316216045053 $436 3.6813781778069554 $279 $437 forward 7 unknown #
loop $-1 $-1 $286 $175 #
plane-surface $-1 -27.861044511550794 -25.715278850187104 39.897791830929464 0 0.52991927123019833 0.84804809178421925 1 0 0 forward_v I I I I #
loop $-1 $-1 $438 $111 #
coedge $-1 $284 $284 $285 $439 reversed $176 $-1 #
coedge $-1 $285 $285 $284 $439 forward $178 $-1 #
coedge $-1 $286 $286 $179 $287 forward $281 $-1 #
edge $-1 $440 1.005340262432867e-015 $440 6.2831853071796013 $286 $441 forward 7 unknown #
loop $-1 $-1 $293 $180 #
plane-surface $-1 -27.861044511550794 -25.715278850187104 39.897791830929464 0 0.52991927123019833 0.84804809178421925 1 0 0 forward_v I I I I #
loop $-1 $-1 $442 $114 #
coedge $-1 $291 $291 $292 $443 reversed $181 $-1 #
coedge $-1 $292 $292 $291 $443 forward $183 $-1 #
coedge $-1 $293 $293 $184 $294 forward $288 $-1 #
edge $-1 $444 1.005340262432867e-015 $444 6.2831853071796013 $293 $445 forward 7 unknown #
loop $-1 $-1 $300 $185 #
plane-surface $-1 -27.861044511550794 -25.715278850187104 39.897791830929464 0 0.52991927123019833 0.84804809178421925 1 0 0 forward_v I I I I #
loop $-1 $-1 $446 $117 #
coedge $-1 $298 $298 $299 $447 reversed $186 $-1 #
coedge $-1 $299 $299 $298 $447 forward $188 $-1 #
coedge $-1 $300 $300 $189 $301 forward $295 $-1 #
edge $-1 $448 1.005340262432867e-015 $448 6.2831853071796013 $300 $449 forward 7 unknown #
face $-1 $450 $451 $64 $-1 $452 forward single #
loop $-1 $-1 $453 $190 #
plane-surface $-1 18.100325620746126 55.468605790881568 169.81916323842597 -1 0 0 0 0.52991927123019833 0.84804809178421925 forward_v I I I I #
coedge $-1 $454 $455 $456 $457 reversed $191 $-1 #
coedge $-1 $307 $193 $458 $459 reversed $121 $-1 #
coedge $-1 $193 $306 $454 $460 reversed $121 $-1 #
coedge $-1 $456 $461 $193 $309 forward $451 $-1 #
edge $-1 $462 -9.2078316216045053 $463 3.6813781778069554 $308 $464 forward 7 unknown #
loop $-1 $-1 $315 $194 #
plane-surface $-1 10.439074510636161 -25.715278850187104 39.897791830929464 0 0.52991927123019833 0.84804809178421925 1 0 0 forward_v I I I I #
loop $-1 $-1 $465 $123 #
coedge $-1 $313 $313 $314 $466 reversed $195 $-1 #
coedge $-1 $314 $314 $313 $466 forward $197 $-1 #
coedge $-1 $315 $315 $198 $316 forward $310 $-1 #
edge $-1 $467 1.005340262432867e-015 $467 6.2831853071796013 $315 $468 forward 7 unknown #
loop $-1 $-1 $322 $199 #
plane-surface $-1 10.439074510636161 -25.715278850187104 39.897791830929464 0 0.52991927123019833 0.84804809178421925 1 0 0 forward_v I I I I #
loop $-1 $-1 $469 $126 #
coedge $-1 $320 $320 $321 $470 reversed $200 $-1 #
coedge $-1 $321 $321 $320 $470 forward $202 $-1 #
coedge $-1 $322 $322 $203 $323 forward $317 $-1 #
edge $-1 $471 1.005340262432867e-015 $471 6.2831853071796013 $322 $472 forward 7 unknown #
loop $-1 $-1 $329 $204 #
plane-surface $-1 10.439074510636161 -25.715278850187104 39.897791830929464 0 0.52991927123019833 0.84804809178421925 1 0 0 forward_v I I I I #
loop $-1 $-1 $473 $129 #
coedge $-1 $327 $327 $328 $474 reversed $205 $-1 #
coedge $-1 $328 $328 $327 $474 forward $207 $-1 #
coedge $-1 $329 $329 $208 $330 forward $324 $-1 #
edge $-1 $475 1.005340262432867e-015 $475 6.2831853071796013 $329 $476 forward 7 unknown #
face $-1 $477 $478 $68 $-1 $479 forward single #
loop $-1 $-1 $480 $209 #
plane-surface $-1 56.400444642933074 55.468605790881568 169.81916323842597 -1 0 0 0 0.52991927123019833 0.84804809178421925 forward_v I I I I #
coedge $-1 $481 $482 $483 $484 reversed $210 $-1 #
coedge $-1 $336 $212 $485 $486 reversed $133 $-1 #
coedge $-1 $212 $335 $481 $487 reversed $133 $-1 #
coedge $-1 $483 $488 $212 $338 forward $478 $-1 #
edge $-1 $489 -9.2078316216045053 $490 3.6813781778069554 $337 $491 forward 7 unknown #
loop $-1 $-1 $344 $213 #
plane-surface $-1 48.739193532823109 -25.715278850187104 39.897791830929464 0 0.52991927123019833 0.84804809178421925 1 0 0 forward_v I I I I #
loop $-1 $-1 $492 $135 #
coedge $-1 $342 $342 $343 $493 reversed $214 $-1 #
coedge $-1 $343 $343 $342 $493 forward $216 $-1 #
coedge $-1 $344 $344 $217 $345 forward $339 $-1 #
edge $-1 $494 1.005340262432867e-015 $494 6.2831853071796013 $344 $495 forward 7 unknown #
loop $-1 $-1 $351 $218 #
plane-surface $-1 48.739193532823109 -25.715278850187104 39.897791830929464 0 0.52991927123019833 0.84804809178421925 1 0 0 forward_v I I I I #
loop $-1 $-1 $496 $138 #
coedge $-1 $349 $349 $350 $497 reversed $219 $-1 #
coedge $-1 $350 $350 $349 $497 forward $221 $-1 #
coedge $-1 $351 $351 $222 $352 forward $346 $-1 #
edge $-1 $498 1.005340262432867e-015 $498 6.2831853071796013 $351 $499 forward 7 unknown #
loop $-1 $-1 $358 $223 #
plane-surface $-1 48.739193532823109 -25.715278850187104 39.897791830929464 0 0.52991927123019833 0.84804809178421925 1 0 0 forward_v I I I I #
loop $-1 $-1 $500 $141 #
coedge $-1 $356 $356 $357 $501 reversed $224 $-1 #
coedge $-1 $357 $357 $356 $501 forward $226 $-1 #
coedge $-1 $358 $358 $227 $359 forward $353 $-1 #
edge $-1 $502 1.005340262432867e-015 $502 6.2831853071796013 $358 $503 forward 7 unknown #
face $-1 $504 $505 $54 $-1 $506 reversed single #
loop $-1 $-1 $507 $228 #
plane-surface $-1 -76.60023804437391 0 0 1 0 0 0 0 -1 forward_v I I I I #
coedge $-1 $508 $371 $509 $510 forward $229 $-1 #
coedge $-1 $511 $231 $508 $512 forward $145 $-1 #
coedge $-1 $231 $511 $513 $514 forward $145 $-1 #
coedge $-1 $374 $373 $231 $367 reversed $375 $-1 #
edge $-1 $515 -36.942134517045289 $516 36.942134517045289 $366 $517 forward 7 unknown #
coedge $-1 $233 $232 $518 $519 forward $91 $-1 #
coedge $-1 $520 $521 $232 $370 reversed $505 $-1 #
edge $-1 $377 -76.60023804437391 $522 76.60023804437391 $369 $523 forward 7 unknown #
coedge $-1 $363 $524 $233 $372 reversed $229 $-1 #
edge $-1 $525 -76.60023804437391 $376 76.60023804437391 $371 $526 forward 7 unknown #
coedge $-1 $366 $234 $524 $527 forward $375 $-1 #
coedge $-1 $234 $366 $520 $528 reversed $375 $-1 #
loop $-1 $-1 $373 $504 #
vertex $-1 $235 $529 #
vertex $-1 $235 $530 #
straight-curve $-1 76.60023804437391 0 8.7991661508585874 0 1 0 I I #
face $-1 $531 $532 $55 $-1 $533 reversed single #
loop $-1 $-1 $534 $236 #
plane-surface $-1 -76.60023804437391 0 0 1 0 0 0 0 -1 forward_v I I I I #
coedge $-1 $390 $535 $384 $536 forward $237 $-1 #
coedge $-1 $242 $239 $537 $538 reversed $149 $-1 #
coedge $-1 $239 $242 $382 $536 reversed $149 $-1 #
coedge $-1 $539 $540 $239 $386 forward $541 $-1 #
edge $-1 $542 -8.7991661508585874 $543 8.7991661508585874 $385 $544 forward 7 unknown #
coedge $-1 $241 $240 $534 $545 reversed $94 $-1 #
coedge $-1 $537 $546 $240 $389 forward $532 $-1 #
edge $-1 $547 -39.050119022186955 $393 -36.050119022186955 $388 $548 forward 7 unknown #
coedge $-1 $549 $382 $241 $391 forward $237 $-1 #
edge $-1 $392 36.050119022186955 $550 39.050119022186955 $390 $551 forward 7 unknown #
vertex $-1 $391 $552 #
vertex $-1 $389 $553 #
straight-curve $-1 -73.60023804437391 -29.243236059392274 0 0 0 -1 I I #
face $-1 $-1 $407 $56 $-1 $554 forward single #
loop $-1 $-1 $555 $244 #
plane-surface $-1 0 36.942134517045289 0 0 -1 0 0 0 -1 forward_v I I I I #
coedge $-1 $556 $557 $558 $559 reversed $245 $-1 #
coedge $-1 $560 $247 $249 $405 forward $153 $-1 #
coedge $-1 $247 $560 $556 $561 forward $153 $-1 #
coedge $-1 $558 $250 $247 $402 forward $407 $-1 #
edge $-1 $409 -40.741832876978847 $562 -25.419330656758909 $401 $563 forward 7 unknown #
coedge $-1 $564 $565 $248 $404 forward $396 $-1 #
edge $-1 $566 -84.164487790204703 $408 -76.110415468354404 $403 $567 forward 7 unknown #
edge $-1 $409 58.685591123863006 $566 73.884269034090579 $249 $568 forward 7 unknown #
coedge $-1 $250 $558 $564 $569 forward $407 $-1 #
loop $-1 $-1 $558 $395 #
vertex $-1 $404 $570 #
vertex $-1 $251 $571 #
straight-curve $-1 -73.822414643847722 27.734302895440784 8.7991661508585821 0 -1 0 I I #
coedge $-1 $411 $411 $-1 $572 reversed $254 $-1 #
edge $-1 $573 0 $573 6.2831853071796004 $255 $574 forward 7 unknown #
vertex $-1 $258 $575 #
ellipse-curve $-1 -70.757914199803736 30.497529617339559 4.7721299899334273 0 0.52991927123019833 0.84804809178421925 1.5 0 0 1 I I #
coedge $-1 $415 $415 $-1 $576 reversed $261 $-1 #
edge $-1 $577 0 $577 6.2831853071796004 $262 $578 forward 7 unknown #
vertex $-1 $265 $579 #
ellipse-curve $-1 -66.161163533737749 30.497529617339559 4.7721299899334273 0 0.52991927123019833 0.84804809178421925 1.5 0 0 1 I I #
coedge $-1 $419 $419 $-1 $580 reversed $268 $-1 #
edge $-1 $581 0 $581 6.2831853071796004 $269 $582 forward 7 unknown #
vertex $-1 $272 $583 #
ellipse-curve $-1 -61.56441286767177 30.497529617339559 4.7721299899334273 0 0.52991927123019833 0.84804809178421925 1.5 0 0 1 I I #
face $-1 $-1 $584 $60 $-1 $585 reversed single #
loop $-1 $-1 $279 $273 #
plane-surface $-1 0 0 8.7991661508585874 0 0 1 1 0 0 forward_v I I I I #
coedge $-1 $586 $587 $588 $589 reversed $274 $-1 #
coedge $-1 $590 $276 $278 $433 forward $172 $-1 #
coedge $-1 $276 $590 $586 $591 forward $172 $-1 #
coedge $-1 $588 $279 $276 $430 forward $424 $-1 #
edge $-1 $436 -21.591773365885363 $592 -6.2692711456654315 $429 $593 forward 7 unknown #
coedge $-1 $594 $595 $277 $432 forward $584 $-1 #
edge $-1 $596 -84.164487790204703 $435 -76.110415468354404 $431 $597 forward 7 unknown #
edge $-1 $436 58.685591123863006 $596 73.884269034090579 $278 $598 forward 7 unknown #
coedge $-1 $279 $588 $594 $599 forward $424 $-1 #
vertex $-1 $432 $600 #
vertex $-1 $280 $601 #
straight-curve $-1 -35.52229562166076 27.734302895440784 8.7991661508585821 0 -1 0 I I #
coedge $-1 $438 $438 $-1 $602 reversed $283 $-1 #
edge $-1 $603 0 $603 6.2831853071796004 $284 $604 forward 7 unknown #
vertex $-1 $287 $605 #
ellipse-curve $-1 -32.457795177616774 30.497529617339559 4.7721299899334273 0 0.52991927123019833 0.84804809178421925 1.5 0 0 1 I I #
coedge $-1 $442 $442 $-1 $606 reversed $290 $-1 #
edge $-1 $607 0 $607 6.2831853071796004 $291 $608 forward 7 unknown #
vertex $-1 $294 $609 #
ellipse-curve $-1 -27.861044511550794 30.497529617339559 4.7721299899334273 0 0.52991927123019833 0.84804809178421925 1.5 0 0 1 I I #
coedge $-1 $446 $446 $-1 $610 reversed $297 $-1 #
edge $-1 $611 0 $611 6.2831853071796004 $298 $612 forward 7 unknown #
vertex $-1 $301 $613 #
ellipse-curve $-1 -23.264293845484815 30.497529617339559 4.7721299899334273 0 0.52991927123019833 0.84804809178421925 1.5 0 0 1 I I #
face $-1 $-1 $614 $64 $-1 $615 reversed single #
loop $-1 $-1 $308 $302 #
plane-surface $-1 0 0 8.7991661508585874 0 0 1 1 0 0 forward_v I I I I #
coedge $-1 $616 $617 $618 $619 reversed $303 $-1 #
coedge $-1 $620 $305 $307 $460 forward $191 $-1 #
coedge $-1 $305 $620 $616 $621 forward $191 $-1 #
coedge $-1 $618 $308 $305 $457 forward $451 $-1 #
edge $-1 $463 -2.4417138547918871 $622 12.880788365428046 $456 $623 forward 7 unknown #
coedge $-1 $624 $625 $306 $459 forward $614 $-1 #
edge $-1 $626 -84.164487790204703 $462 -76.110415468354404 $458 $627 forward 7 unknown #
edge $-1 $463 58.685591123863006 $626 73.884269034090579 $307 $628 forward 7 unknown #
coedge $-1 $308 $618 $624 $629 forward $451 $-1 #
vertex $-1 $309 $630 #
vertex $-1 $309 $631 #
straight-curve $-1 2.7778234005261933 27.734302895440784 8.7991661508585821 0 -1 0 I I #
coedge $-1 $465 $465 $-1 $632 reversed $312 $-1 #
edge $-1 $633 0 $633 6.2831853071796004 $313 $634 forward 7 unknown #
vertex $-1 $316 $635 #
ellipse-curve $-1 5.8423238445701742 30.497529617339559 4.7721299899334273 0 0.52991927123019833 0.84804809178421925 1.5 0 0 1 I I #
coedge $-1 $469 $469 $-1 $636 reversed $319 $-1 #
edge $-1 $637 0 $637 6.2831853071796004 $320 $638 forward 7 unknown #
vertex $-1 $323 $639 #
ellipse-curve $-1 10.439074510636161 30.497529617339559 4.7721299899334273 0 0.52991927123019833 0.84804809178421925 1.5 0 0 1 I I #
coedge $-1 $473 $473 $-1 $640 reversed $326 $-1 #
edge $-1 $641 0 $641 6.2831853071796004 $327 $642 forward 7 unknown #
vertex $-1 $330 $643 #
ellipse-curve $-1 15.035825176702147 30.497529617339559 4.7721299899334273 0 0.52991927123019833 0.84804809178421925 1.5 0 0 1 I I #
face $-1 $-1 $644 $68 $-1 $645 reversed single #
loop $-1 $-1 $337 $331 #
plane-surface $-1 0 0 8.7991661508585874 0 0 1 1 0 0 forward_v I I I I #
coedge $-1 $646 $647 $648 $649 reversed $332 $-1 #
coedge $-1 $650 $334 $336 $487 forward $210 $-1 #
coedge $-1 $334 $650 $646 $651 forward $210 $-1 #
coedge $-1 $648 $337 $334 $484 forward $478 $-1 #
edge $-1 $490 16.708345656301589 $652 32.03084787652152 $483 $653 forward 7 unknown #
coedge $-1 $654 $655 $335 $486 forward $644 $-1 #
edge $-1 $656 -84.164487790204703 $489 -76.110415468354404 $485 $657 forward 7 unknown #
edge $-1 $490 58.685591123863006 $656 73.884269034090579 $336 $658 forward 7 unknown #
coedge $-1 $337 $648 $654 $659 forward $478 $-1 #
vertex $-1 $338 $660 #
vertex $-1 $338 $661 #
straight-curve $-1 41.077942422713143 27.734302895440784 8.7991661508585821 0 -1 0 I I #
coedge $-1 $492 $492 $-1 $662 reversed $341 $-1 #
edge $-1 $663 0 $663 6.2831853071796004 $342 $664 forward 7 unknown #
vertex $-1 $345 $665 #
ellipse-curve $-1 44.142442866757122 30.497529617339559 4.7721299899334273 0 0.52991927123019833 0.84804809178421925 1.5 0 0 1 I I #
coedge $-1 $496 $496 $-1 $666 reversed $348 $-1 #
edge $-1 $667 0 $667 6.2831853071796004 $349 $668 forward 7 unknown #
vertex $-1 $352 $669 #
ellipse-curve $-1 48.739193532823109 30.497529617339559 4.7721299899334273 0 0.52991927123019833 0.84804809178421925 1.5 0 0 1 I I #
coedge $-1 $500 $500 $-1 $670 reversed $355 $-1 #
edge $-1 $671 0 $671 6.2831853071796004 $356 $672 forward 7 unknown #
vertex $-1 $359 $673 #
ellipse-curve $-1 53.335944198889095 30.497529617339559 4.7721299899334273 0 0.52991927123019833 0.84804809178421925 1.5 0 0 1 I I #
face $-1 $-1 $375 $54 $-1 $674 reversed single #
loop $-1 $-1 $520 $360 #
plane-surface $-1 0 36.942134517045289 0 0 -1 0 0 0 -1 forward_v I I I I #
coedge $-1 $675 $518 $521 $676 forward $361 $-1 #
coedge $-1 $524 $363 $364 $512 reversed $229 $-1 #
coedge $-1 $518 $675 $363 $510 reversed $361 $-1 #
edge $-1 $525 -8.7991661508585874 $677 8.7991661508585874 $509 $678 forward 7 unknown #
coedge $-1 $365 $364 $675 $679 forward $145 $-1 #
edge $-1 $516 -76.60023804437391 $677 76.60023804437391 $508 $680 forward 7 unknown #
coedge $-1 $521 $520 $365 $514 reversed $505 $-1 #
edge $-1 $681 -76.60023804437391 $515 76.60023804437391 $513 $682 forward 7 unknown #
vertex $-1 $367 $683 #
vertex $-1 $527 $684 #
straight-curve $-1 76.60023804437391 0 -8.7991661508585874 0 -1 0 I I #
coedge $-1 $507 $509 $368 $519 reversed $361 $-1 #
edge $-1 $522 -36.942134517045289 $525 36.942134517045289 $518 $685 forward 7 unknown #
coedge $-1 $513 $369 $374 $528 forward $505 $-1 #
coedge $-1 $369 $513 $507 $676 reversed $505 $-1 #
vertex $-1 $370 $686 #
straight-curve $-1 0 36.942134517045289 8.7991661508585874 -1 0 0 I I #
coedge $-1 $371 $508 $373 $527 reversed $229 $-1 #
vertex $-1 $519 $687 #
straight-curve $-1 0 -36.942134517045289 8.7991661508585874 1 0 0 I I #
edge $-1 $376 -8.7991661508585874 $516 8.7991661508585874 $373 $688 forward 7 unknown #
edge $-1 $377 -8.7991661508585874 $515 8.7991661508585874 $374 $689 forward 7 unknown #
point $-1 76.60023804437391 -36.942134517045289 8.7991661508585874 #
point $-1 76.60023804437391 36.942134517045289 8.7991661508585874 #
face $-1 $-1 $541 $55 $-1 $690 reversed single #
loop $-1 $-1 $537 $379 #
plane-surface $-1 0 0 -8.7991661508585874 0 0 1 1 0 0 forward_v I I I I #
coedge $-1 $691 $692 $387 $545 forward $380 $-1 #
coedge $-1 $382 $549 $539 $693 forward $237 $-1 #
edge $-1 $543 -20.395791872935899 $392 -12.696893415282883 $382 $694 forward 7 unknown #
coedge $-1 $695 $388 $383 $538 forward $532 $-1 #
edge $-1 $393 12.696893415282883 $542 20.395791872935899 $537 $696 forward 7 unknown #
coedge $-1 $697 $385 $535 $693 reversed $541 $-1 #
coedge $-1 $385 $697 $695 $698 reversed $541 $-1 #
loop $-1 $-1 $385 $531 #
vertex $-1 $698 $699 #
vertex $-1 $386 $700 #
straight-curve $-1 -73.60023804437391 -36.942134517045289 0 0 0 1 I I #
edge $-1 $550 -8.7991661508585874 $547 8.7991661508585874 $534 $701 forward 7 unknown #
coedge $-1 $388 $695 $691 $702 forward $532 $-1 #
vertex $-1 $389 $703 #
straight-curve $-1 -37.550119022186955 -29.243236059392274 -8.7991661508585874 1 0 0 I I #
coedge $-1 $535 $390 $692 $704 forward $237 $-1 #
vertex $-1 $704 $705 #
straight-curve $-1 -37.550119022186955 -29.243236059392274 8.7991661508585874 -1 0 0 I I #
point $-1 -73.60023804437391 -29.243236059392274 8.7991661508585874 #
point $-1 -73.60023804437391 -29.243236059392274 -8.7991661508585874 #
plane-surface $-1 0 0 8.7991661508585874 0 0 1 1 0 0 forward_v I I I I #
coedge $-1 $565 $564 $557 $706 forward $396 $-1 #
coedge $-1 $557 $398 $400 $561 reversed $245 $-1 #
coedge $-1 $398 $556 $555 $706 reversed $245 $-1 #
coedge $-1 $406 $401 $398 $559 forward $407 $-1 #
edge $-1 $562 -3.6813781778069554 $707 9.2078316216045053 $558 $708 forward 7 unknown #
coedge $-1 $400 $399 $565 $709 reversed $153 $-1 #
edge $-1 $710 -73.884269034090579 $562 -58.685591123863006 $556 $711 forward 7 unknown #
vertex $-1 $402 $712 #
straight-curve $-1 -33.080581766868875 24.052924717633822 8.7991661508585857 1 0 0 I I #
coedge $-1 $555 $403 $406 $569 reversed $396 $-1 #
coedge $-1 $403 $555 $560 $709 forward $396 $-1 #
vertex $-1 $404 $713 #
straight-curve $-1 -73.822414643847722 36.942134517045289 84.909581619212986 0 0 1 I I #
straight-curve $-1 -73.822414643847722 -25.715278850187104 39.897791830929464 0 0.84804809178421925 -0.52991927123019833 I I #
edge $-1 $707 58.499912423627784 $408 73.822414643847722 $564 $714 forward 7 unknown #
point $-1 -73.822414643847722 36.942134517045289 8.7991661508585874 #
point $-1 -73.822414643847722 24.052924717633829 8.7991661508585892 #
edge $-1 $715 1 $715 0 $411 $-1 forward 7 unknown #
vertex $-1 $412 $716 #
ellipse-curve $-1 -70.757914199803736 28.165485366973073 1.0400791213388629 0 0.52991927123019833 0.84804809178421925 1.5 0 0 1 I I #
point $-1 -69.257914199803736 30.49752961733957 4.7721299899334415 #
edge $-1 $717 1 $717 0 $415 $-1 forward 7 unknown #
vertex $-1 $416 $718 #
ellipse-curve $-1 -66.161163533737749 28.165485366973073 1.0400791213388629 0 0.52991927123019833 0.84804809178421925 1.5 0 0 1 I I #
point $-1 -64.661163533737749 30.49752961733957 4.7721299899334415 #
edge $-1 $719 1 $719 0 $419 $-1 forward 7 unknown #
vertex $-1 $420 $720 #
ellipse-curve $-1 -61.56441286767177 28.165485366973073 1.0400791213388629 0 0.52991927123019833 0.84804809178421925 1.5 0 0 1 I I #
point $-1 -60.06441286767177 30.49752961733957 4.7721299899334415 #
loop $-1 $-1 $431 $423 #
plane-surface $-1 0 36.942134517045289 0 0 -1 0 0 0 -1 forward_v I I I I #
coedge $-1 $587 $426 $428 $591 reversed $274 $-1 #
coedge $-1 $426 $586 $721 $722 reversed $274 $-1 #
coedge $-1 $434 $429 $426 $589 forward $424 $-1 #
edge $-1 $592 -3.6813781778069554 $723 9.2078316216045053 $588 $724 forward 7 unknown #
coedge $-1 $428 $427 $595 $725 reversed $172 $-1 #
edge $-1 $726 -73.884269034090579 $592 -58.685591123863006 $586 $727 forward 7 unknown #
vertex $-1 $430 $728 #
straight-curve $-1 -13.930522255775397 24.052924717633822 8.7991661508585857 1 0 0 I I #
coedge $-1 $721 $431 $434 $599 reversed $584 $-1 #
coedge $-1 $431 $721 $590 $725 forward $584 $-1 #
vertex $-1 $432 $729 #
straight-curve $-1 -35.52229562166076 36.942134517045289 84.909581619212986 0 0 1 I I #
straight-curve $-1 -35.52229562166076 -25.715278850187104 39.897791830929464 0 0.84804809178421925 -0.52991927123019833 I I #
edge $-1 $723 20.199793401440829 $435 35.52229562166076 $594 $730 forward 7 unknown #
point $-1 -35.52229562166076 36.942134517045289 8.7991661508585874 #
point $-1 -35.52229562166076 24.052924717633829 8.7991661508585892 #
edge $-1 $731 1 $731 0 $438 $-1 forward 7 unknown #
vertex $-1 $439 $732 #
ellipse-curve $-1 -32.457795177616774 28.165485366973073 1.0400791213388629 0 0.52991927123019833 0.84804809178421925 1.5 0 0 1 I I #
point $-1 -30.957795177616774 30.49752961733957 4.7721299899334415 #
edge $-1 $733 1 $733 0 $442 $-1 forward 7 unknown #
vertex $-1 $443 $734 #
ellipse-curve $-1 -27.861044511550794 28.165485366973073 1.0400791213388629 0 0.52991927123019833 0.84804809178421925 1.5 0 0 1 I I #
point $-1 -26.361044511550794 30.49752961733957 4.7721299899334415 #
edge $-1 $735 1 $735 0 $446 $-1 forward 7 unknown #
vertex $-1 $447 $736 #
ellipse-curve $-1 -23.264293845484815 28.165485366973073 1.0400791213388629 0 0.52991927123019833 0.84804809178421925 1.5 0 0 1 I I #
point $-1 -21.764293845484815 30.49752961733957 4.7721299899334415 #
loop $-1 $-1 $458 $450 #
plane-surface $-1 0 36.942134517045289 0 0 -1 0 0 0 -1 forward_v I I I I #
coedge $-1 $617 $453 $455 $621 reversed $303 $-1 #
coedge $-1 $453 $616 $737 $738 reversed $303 $-1 #
coedge $-1 $461 $456 $453 $619 forward $451 $-1 #
edge $-1 $622 -3.6813781778069554 $739 9.2078316216045053 $618 $740 forward 7 unknown #
coedge $-1 $455 $454 $625 $741 reversed $191 $-1 #
edge $-1 $742 -73.884269034090579 $622 -58.685591123863006 $616 $743 forward 7 unknown #
vertex $-1 $457 $744 #
straight-curve $-1 5.2195372553180803 24.052924717633822 8.7991661508585857 1 0 0 I I #
coedge $-1 $737 $458 $461 $629 reversed $614 $-1 #
coedge $-1 $458 $737 $620 $741 forward $614 $-1 #
vertex $-1 $459 $745 #
straight-curve $-1 2.7778234005261933 36.942134517045289 84.909581619212986 0 0 1 I I #
straight-curve $-1 2.7778234005261933 -25.715278850187104 39.897791830929464 0 0.84804809178421925 -0.52991927123019833 I I #
edge $-1 $739 -18.100325620746126 $462 -2.7778234005261933 $624 $746 forward 7 unknown #
point $-1 2.7778234005261933 36.942134517045289 8.7991661508585874 #
point $-1 2.7778234005261933 24.052924717633829 8.7991661508585892 #
edge $-1 $747 1 $747 0 $465 $-1 forward 7 unknown #
vertex $-1 $466 $748 #
ellipse-curve $-1 5.8423238445701742 28.165485366973073 1.0400791213388629 0 0.52991927123019833 0.84804809178421925 1.5 0 0 1 I I #
point $-1 7.3423238445701742 30.49752961733957 4.7721299899334415 #
edge $-1 $749 1 $749 0 $469 $-1 forward 7 unknown #
vertex $-1 $470 $750 #
ellipse-curve $-1 10.439074510636161 28.165485366973073 1.0400791213388629 0 0.52991927123019833 0.84804809178421925 1.5 0 0 1 I I #
point $-1 11.939074510636161 30.49752961733957 4.7721299899334415 #
edge $-1 $751 1 $751 0 $473 $-1 forward 7 unknown #
vertex $-1 $474 $752 #
ellipse-curve $-1 15.035825176702147 28.165485366973073 1.0400791213388629 0 0.52991927123019833 0.84804809178421925 1.5 0 0 1 I I #
point $-1 16.535825176702147 30.49752961733957 4.7721299899334415 #
loop $-1 $-1 $485 $477 #
plane-surface $-1 0 36.942134517045289 0 0 -1 0 0 0 -1 forward_v I I I I #
coedge $-1 $647 $480 $482 $651 reversed $332 $-1 #
coedge $-1 $480 $646 $753 $754 reversed $332 $-1 #
coedge $-1 $488 $483 $480 $649 forward $478 $-1 #
edge $-1 $652 -3.6813781778069554 $755 9.2078316216045053 $648 $756 forward 7 unknown #
coedge $-1 $482 $481 $655 $757 reversed $210 $-1 #
edge $-1 $758 -73.884269034090579 $652 -58.685591123863006 $646 $759 forward 7 unknown #
vertex $-1 $484 $760 #
straight-curve $-1 24.369596766411554 24.052924717633822 8.7991661508585857 1 0 0 I I #
coedge $-1 $753 $485 $488 $659 reversed $644 $-1 #
coedge $-1 $485 $753 $650 $757 forward $644 $-1 #
vertex $-1 $486 $761 #
straight-curve $-1 41.077942422713143 36.942134517045289 84.909581619212986 0 0 1 I I #
straight-curve $-1 41.077942422713143 -25.715278850187104 39.897791830929464 0 0.84804809178421925 -0.52991927123019833 I I #
edge $-1 $755 -56.400444642933074 $489 -41.077942422713143 $654 $762 forward 7 unknown #
point $-1 41.077942422713143 36.942134517045289 8.7991661508585874 #
point $-1 41.077942422713143 24.052924717633829 8.7991661508585892 #
edge $-1 $763 1 $763 0 $492 $-1 forward 7 unknown #
vertex $-1 $493 $764 #
ellipse-curve $-1 44.142442866757122 28.165485366973073 1.0400791213388629 0 0.52991927123019833 0.84804809178421925 1.5 0 0 1 I I #
point $-1 45.642442866757122 30.49752961733957 4.7721299899334415 #
edge $-1 $765 1 $765 0 $496 $-1 forward 7 unknown #
vertex $-1 $497 $766 #
ellipse-curve $-1 48.739193532823109 28.165485366973073 1.0400791213388629 0 0.52991927123019833 0.84804809178421925 1.5 0 0 1 I I #
point $-1 50.239193532823109 30.49752961733957 4.7721299899334415 #
edge $-1 $767 1 $767 0 $500 $-1 forward 7 unknown #
vertex $-1 $501 $768 #
ellipse-curve $-1 53.335944198889095 28.165485366973073 1.0400791213388629 0 0.52991927123019833 0.84804809178421925 1.5 0 0 1 I I #
point $-1 54.835944198889095 30.49752961733957 4.7721299899334415 #
plane-surface $-1 76.60023804437391 0 0 -1 0 0 0 0 1 forward_v I I I I #
coedge $-1 $509 $507 $511 $679 reversed $361 $-1 #
edge $-1 $522 -8.7991661508585874 $681 8.7991661508585874 $521 $769 forward 7 unknown #
vertex $-1 $679 $770 #
straight-curve $-1 -76.60023804437391 -36.942134517045289 0 0 0 -1 I I #
edge $-1 $677 -36.942134517045289 $681 36.942134517045289 $675 $771 forward 7 unknown #
straight-curve $-1 0 -36.942134517045289 -8.7991661508585874 -1 0 0 I I #
vertex $-1 $514 $772 #
straight-curve $-1 0 36.942134517045289 -8.7991661508585874 1 0 0 I I #
point $-1 76.60023804437391 36.942134517045289 -8.7991661508585874 #
point $-1 76.60023804437391 -36.942134517045289 -8.7991661508585874 #
straight-curve $-1 -76.60023804437391 0 8.7991661508585874 0 -1 0 I I #
point $-1 -76.60023804437391 36.942134517045289 8.7991661508585874 #
point $-1 -76.60023804437391 -36.942134517045289 8.7991661508585874 #
straight-curve $-1 76.60023804437391 -36.942134517045289 0 0 0 -1 I I #
straight-curve $-1 76.60023804437391 36.942134517045289 0 0 0 -1 I I #
plane-surface $-1 0 -36.942134517045289 0 0 1 0 0 0 1 forward_v I I I I #
coedge $-1 $773 $534 $546 $702 reversed $380 $-1 #
coedge $-1 $534 $773 $549 $704 reversed $380 $-1 #
edge $-1 $774 -76.60023804437391 $543 -73.60023804437391 $539 $775 forward 7 unknown #
straight-curve $-1 -73.60023804437391 -16.546342644109391 8.7991661508585874 0 1 0 I I #
coedge $-1 $546 $537 $540 $698 forward $532 $-1 #
straight-curve $-1 -73.60023804437391 -16.546342644109391 -8.7991661508585874 0 -1 0 I I #
coedge $-1 $540 $539 $773 $776 forward $541 $-1 #
edge $-1 $542 73.60023804437391 $777 76.60023804437391 $540 $778 forward 7 unknown #
point $-1 -73.60023804437391 -36.942134517045289 -8.7991661508585874 #
point $-1 -73.60023804437391 -36.942134517045289 8.7991661508585874 #
straight-curve $-1 -76.60023804437391 -29.243236059392274 0 0 0 -1 I I #
edge $-1 $777 -36.942134517045289 $547 -29.243236059392274 $691 $779 forward 7 unknown #
point $-1 -76.60023804437391 -29.243236059392274 -8.7991661508585874 #
edge $-1 $550 29.243236059392274 $774 36.942134517045289 $692 $780 forward 7 unknown #
point $-1 -76.60023804437391 -29.243236059392274 8.7991661508585874 #
edge $-1 $707 76.110415468354404 $710 84.164487790204703 $555 $781 forward 7 unknown #
vertex $-1 $569 $782 #
straight-curve $-1 -58.499912423627784 27.734302895440784 8.7991661508585821 0 1 0 I I #
edge $-1 $710 25.419330656758909 $566 40.741832876978847 $565 $783 forward 7 unknown #
vertex $-1 $709 $784 #
straight-curve $-1 -58.499912423627784 -25.715278850187104 39.897791830929464 0 -0.84804809178421925 0.52991927123019833 I I #
point $-1 -58.499912423627784 24.052924717633829 8.7991661508585892 #
point $-1 -73.822414643847722 36.942134517045289 0.74509382900827603 #
straight-curve $-1 0 36.942134517045289 8.7991661508585874 -1 0 0 I I #
vertex $-1 $572 $785 #
point $-1 -69.257914199803736 28.165485366973073 1.0400791213388629 #
vertex $-1 $576 $786 #
point $-1 -64.661163533737749 28.165485366973073 1.0400791213388629 #
vertex $-1 $580 $787 #
point $-1 -60.06441286767177 28.165485366973073 1.0400791213388629 #
coedge $-1 $595 $594 $587 $722 forward $584 $-1 #
edge $-1 $723 76.110415468354404 $726 84.164487790204703 $721 $788 forward 7 unknown #
vertex $-1 $599 $789 #
straight-curve $-1 -20.199793401440829 27.734302895440784 8.7991661508585821 0 1 0 I I #
edge $-1 $726 6.2692711456654315 $596 21.591773365885363 $595 $790 forward 7 unknown #
vertex $-1 $725 $791 #
straight-curve $-1 -20.199793401440829 -25.715278850187104 39.897791830929464 0 -0.84804809178421925 0.52991927123019833 I I #
point $-1 -20.199793401440829 24.052924717633829 8.7991661508585892 #
point $-1 -35.52229562166076 36.942134517045289 0.74509382900827603 #
straight-curve $-1 0 36.942134517045289 8.7991661508585874 -1 0 0 I I #
vertex $-1 $602 $792 #
point $-1 -30.957795177616774 28.165485366973073 1.0400791213388629 #
vertex $-1 $606 $793 #
point $-1 -26.361044511550794 28.165485366973073 1.0400791213388629 #
vertex $-1 $610 $794 #
point $-1 -21.764293845484815 28.165485366973073 1.0400791213388629 #
coedge $-1 $625 $624 $617 $738 forward $614 $-1 #
edge $-1 $739 76.110415468354404 $742 84.164487790204703 $737 $795 forward 7 unknown #
vertex $-1 $629 $796 #
straight-curve $-1 18.100325620746126 27.734302895440784 8.7991661508585821 0 1 0 I I #
edge $-1 $742 -12.880788365428046 $626 2.4417138547918871 $625 $797 forward 7 unknown #
vertex $-1 $741 $798 #
straight-curve $-1 18.100325620746126 -25.715278850187104 39.897791830929464 0 -0.84804809178421925 0.52991927123019833 I I #
point $-1 18.100325620746126 24.052924717633829 8.7991661508585892 #
point $-1 2.7778234005261933 36.942134517045289 0.74509382900827603 #
straight-curve $-1 0 36.942134517045289 8.7991661508585874 -1 0 0 I I #
vertex $-1 $632 $799 #
point $-1 7.3423238445701742 28.165485366973073 1.0400791213388629 #
vertex $-1 $636 $800 #
point $-1 11.939074510636161 28.165485366973073 1.0400791213388629 #
vertex $-1 $640 $801 #
point $-1 16.535825176702147 28.165485366973073 1.0400791213388629 #
coedge $-1 $655 $654 $647 $754 forward $644 $-1 #
edge $-1 $755 76.110415468354404 $758 84.164487790204703 $753 $802 forward 7 unknown #
vertex $-1 $659 $803 #
straight-curve $-1 56.400444642933074 27.734302895440784 8.7991661508585821 0 1 0 I I #
edge $-1 $758 -32.03084787652152 $656 -16.708345656301589 $655 $804 forward 7 unknown #
vertex $-1 $757 $805 #
straight-curve $-1 56.400444642933074 -25.715278850187104 39.897791830929464 0 -0.84804809178421925 0.52991927123019833 I I #
point $-1 56.400444642933074 24.052924717633829 8.7991661508585892 #
point $-1 41.077942422713143 36.942134517045289 0.74509382900827603 #
straight-curve $-1 0 36.942134517045289 8.7991661508585874 -1 0 0 I I #
vertex $-1 $662 $806 #
point $-1 45.642442866757122 28.165485366973073 1.0400791213388629 #
vertex $-1 $666 $807 #
point $-1 50.239193532823109 28.165485366973073 1.0400791213388629 #
vertex $-1 $670 $808 #
point $-1 54.835944198889095 28.165485366973073 1.0400791213388629 #
straight-curve $-1 -76.60023804437391 36.942134517045289 0 0 0 -1 I I #
point $-1 -76.60023804437391 -36.942134517045289 -8.7991661508585874 #
straight-curve $-1 -76.60023804437391 0 -8.7991661508585874 0 1 0 I I #
point $-1 -76.60023804437391 36.942134517045289 -8.7991661508585874 #
coedge $-1 $692 $691 $697 $776 reversed $380 $-1 #
vertex $-1 $704 $809 #
straight-curve $-1 0 -36.942134517045289 8.7991661508585874 1 0 0 I I #
edge $-1 $774 -8.7991661508585874 $777 8.7991661508585874 $773 $810 forward 7 unknown #
vertex $-1 $702 $811 #
straight-curve $-1 0 -36.942134517045289 -8.7991661508585874 -1 0 0 I I #
straight-curve $-1 -76.60023804437391 0 -8.7991661508585874 0 1 0 I I #
straight-curve $-1 -76.60023804437391 0 8.7991661508585874 0 -1 0 I I #
straight-curve $-1 -58.499912423627784 36.942134517045289 84.909581619212986 0 0 -1 I I #
point $-1 -58.499912423627784 36.942134517045289 8.7991661508585874 #
straight-curve $-1 -33.080581766868875 36.942134517045289 0.74509382900827603 -1 0 0 I I #
point $-1 -58.499912423627784 36.942134517045289 0.74509382900827603 #
point $-1 -70.757914199803736 27.370606460127775 -0.23199301633746583 #
point $-1 -66.161163533737749 27.370606460127775 -0.23199301633746583 #
point $-1 -61.56441286767177 27.370606460127775 -0.23199301633746583 #
straight-curve $-1 -20.199793401440829 36.942134517045289 84.909581619212986 0 0 -1 I I #
point $-1 -20.199793401440829 36.942134517045289 8.7991661508585874 #
straight-curve $-1 -13.930522255775397 36.942134517045289 0.74509382900827603 -1 0 0 I I #
point $-1 -20.199793401440829 36.942134517045289 0.74509382900827603 #
point $-1 -32.457795177616774 27.370606460127775 -0.23199301633746583 #
point $-1 -27.861044511550794 27.370606460127775 -0.23199301633746583 #
point $-1 -23.264293845484815 27.370606460127775 -0.23199301633746583 #
straight-curve $-1 18.100325620746126 36.942134517045289 84.909581619212986 0 0 -1 I I #
point $-1 18.100325620746126 36.942134517045289 8.7991661508585874 #
straight-curve $-1 5.2195372553180803 36.942134517045289 0.74509382900827603 -1 0 0 I I #
point $-1 18.100325620746126 36.942134517045289 0.74509382900827603 #
point $-1 5.8423238445701742 27.370606460127775 -0.23199301633746583 #
point $-1 10.439074510636161 27.370606460127775 -0.23199301633746583 #
point $-1 15.035825176702147 27.370606460127775 -0.23199301633746583 #
straight-curve $-1 56.400444642933074 36.942134517045289 84.909581619212986 0 0 -1 I I #
point $-1 56.400444642933074 36.942134517045289 8.7991661508585874 #
straight-curve $-1 24.369596766411554 36.942134517045289 0.74509382900827603 -1 0 0 I I #
point $-1 56.400444642933074 36.942134517045289 0.74509382900827603 #
point $-1 44.142442866757122 27.370606460127775 -0.23199301633746583 #
point $-1 48.739193532823109 27.370606460127775 -0.23199301633746583 #
point $-1 53.335944198889095 27.370606460127775 -0.23199301633746583 #
point $-1 -76.60023804437391 -36.942134517045289 8.7991661508585874 #
straight-curve $-1 -76.60023804437391 -36.942134517045289 0 0 0 -1 I I #
point $-1 -76.60023804437391 -36.942134517045289 -8.7991661508585874 #
End-of-ACIS-data 