500 0 6 0           
7 Unknown 11 ACIS 5.0 NT 24 Fri Mar 26 20:30:02 1999 
-1 9.9999999999999995e-007 1e-010 
body $-1 $6 $-1 $7 #
body $-1 $8 $-1 $9 #
body $-1 $10 $-1 $11 #
body $-1 $12 $-1 $13 #
body $-1 $14 $-1 $15 #
body $-1 $16 $-1 $17 #
lump $-1 $-1 $18 $0 #
transform $-1 1 0 0 0 1 0 0 0 1 75.988647114474929 36.808588052930354 17.997194435096361 1 rotate no_reflect no_shear #
lump $-1 $-1 $19 $1 #
transform $-1 1 0 0 0 1 0 0 0 1 75.988647114474929 36.808588052930354 17.997194435096361 1 rotate no_reflect no_shear #
lump $-1 $-1 $20 $2 #
transform $-1 1 0 0 0 1 0 0 0 1 75.988647114474929 36.808588052930354 17.997194435096361 1 rotate no_reflect no_shear #
lump $-1 $-1 $21 $3 #
transform $-1 1 0 0 0 1 0 0 0 1 75.988647114474929 36.808588052930354 17.997194435096361 1 rotate no_reflect no_shear #
lump $-1 $-1 $22 $4 #
transform $-1 1 0 0 0 1 0 0 0 1 75.988647114474929 36.808588052930354 17.997194435096361 1 rotate no_reflect no_shear #
lump $-1 $-1 $23 $5 #
transform $-1 1 0 0 0 1 0 0 0 1 75.988647114474929 36.808588052930354 17.997194435096361 1 rotate no_reflect no_shear #
shell $-1 $-1 $-1 $24 $-1 $6 #
shell $-1 $-1 $-1 $25 $-1 $8 #
shell $-1 $-1 $-1 $26 $-1 $10 #
shell $-1 $-1 $-1 $27 $-1 $12 #
shell $-1 $-1 $-1 $28 $-1 $14 #
shell $-1 $-1 $-1 $29 $-1 $16 #
face $-1 $30 $31 $18 $-1 $32 forward single #
face $-1 $33 $34 $19 $-1 $35 forward single #
face $-1 $36 $37 $20 $-1 $38 forward single #
face $-1 $39 $40 $21 $-1 $41 reversed single #
face $-1 $42 $43 $22 $-1 $44 forward single #
face $-1 $45 $46 $23 $-1 $47 forward single #
face $-1 $48 $49 $18 $-1 $50 reversed single #
loop $-1 $-1 $51 $24 #
plane-surface $-1 0 0 17.997194435096361 0 0 1 1 0 0 forward_v I I I I #
face $-1 $52 $53 $19 $-1 $54 reversed single #
loop $-1 $-1 $55 $25 #
plane-surface $-1 0 -28.015887264041634 9.5011850967950426 0 0 1 1 0 0 forward_v I I I I #
face $-1 $56 $57 $20 $-1 $58 reversed single #
loop $-1 $-1 $59 $26 #
plane-surface $-1 0 36.808588052930354 0 0 -1 0 0 0 -1 forward_v I I I I #
face $-1 $60 $61 $21 $-1 $62 reversed single #
loop $-1 $-1 $63 $27 #
plane-surface $-1 34.97838629446241 -4.7395321483161901 219.47061423603853 0 1 0 0.55919291073839883 0 0.82903756765294845 forward_v I I I I #
face $-1 $64 $65 $22 $-1 $66 forward single #
loop $-1 $67 $68 $28 #
cone-surface $-1 68.662370258479243 -2.4545587991100462 12.829629615702158 -0.55919291073839883 0 -0.82903756765294845 0.41451878382647422 0 -0.27959645536919941 1 I I 0 1 0.5 forward I I I I #
face $-1 $69 $70 $23 $-1 $71 forward single #
loop $-1 $72 $73 $29 #
cone-surface $-1 68.662370258479243 0.9729012246991573 12.829629615702158 -0.55919291073839883 0 -0.82903756765294845 0.41451878382647422 0 -0.27959645536919941 1 I I 0 1 0.5 forward I I I I #
face $-1 $74 $75 $18 $-1 $76 reversed single #
loop $-1 $-1 $77 $30 #
plane-surface $-1 0 0 -17.997194435096361 0 0 1 1 0 0 forward_v I I I I #
coedge $-1 $78 $79 $80 $81 forward $31 $-1 #
face $-1 $82 $83 $19 $-1 $84 reversed single #
loop $-1 $-1 $85 $33 #
plane-surface $-1 0 -28.015887264041634 5.7912376029353094 0 0 1 1 0 0 forward_v I I I I #
coedge $-1 $86 $87 $88 $89 reversed $34 $-1 #
face $-1 $90 $91 $20 $-1 $92 forward single #
loop $-1 $-1 $93 $36 #
plane-surface $-1 -75.988647114474929 0 0 1 0 0 0 0 -1 forward_v I I I I #
coedge $-1 $94 $95 $96 $97 forward $37 $-1 #
face $-1 $98 $99 $21 $-1 $100 reversed single #
loop $-1 $-1 $101 $39 #
plane-surface $-1 -50.00623923157012 -0.74082878720545153 93.475727889993465 0.55919291073839883 0 0.82903756765294845 0.82903756765294845 0 -0.55919291073839883 forward_v I I I I #
coedge $-1 $102 $103 $104 $105 reversed $40 $-1 #
face $-1 $-1 $106 $22 $-1 $107 forward single #
loop $-1 $108 $109 $42 #
cone-surface $-1 68.242975575425447 -2.4545587991100462 12.207851439962447 -0.55919291073839883 0 -0.82903756765294845 0.20725939191323711 0 -0.13979822768459971 1 I I -0.70710678118654746 0.70710678118654746 0.25 forward I I I I #
loop $-1 $-1 $110 $28 #
coedge $-1 $68 $68 $111 $112 reversed $43 $-1 #
face $-1 $-1 $113 $23 $-1 $114 forward single #
loop $-1 $115 $116 $45 #
cone-surface $-1 68.242975575425447 0.9729012246991573 12.207851439962447 -0.55919291073839883 0 -0.82903756765294845 0.20725939191323711 0 -0.13979822768459971 1 I I -0.70710678118654746 0.70710678118654746 0.25 forward I I I I #
loop $-1 $-1 $117 $29 #
coedge $-1 $73 $73 $118 $119 reversed $46 $-1 #
face $-1 $120 $121 $18 $-1 $122 reversed single #
loop $-1 $-1 $123 $48 #
plane-surface $-1 0 -36.808588052930354 0 0 1 0 0 0 1 forward_v I I I I #
coedge $-1 $124 $125 $126 $127 forward $49 $-1 #
coedge $-1 $128 $51 $129 $130 forward $31 $-1 #
coedge $-1 $51 $128 $131 $132 forward $31 $-1 #
coedge $-1 $133 $134 $51 $81 reversed $135 $-1 #
edge $-1 $136 -36.808588052930354 $137 36.808588052930354 $80 $138 forward 7 unknown #
face $-1 $139 $140 $19 $-1 $141 reversed single #
loop $-1 $-1 $142 $52 #
plane-surface $-1 0 -19.223186475152914 7.646211349865176 0 -1 0 0 0 -1 forward_v I I I I #
coedge $-1 $143 $144 $145 $146 reversed $53 $-1 #
coedge $-1 $147 $55 $148 $149 forward $34 $-1 #
coedge $-1 $55 $147 $150 $151 reversed $34 $-1 #
coedge $-1 $152 $153 $55 $89 forward $154 $-1 #
edge $-1 $155 5.2152428431320974 $156 22.800644420909535 $88 $157 forward 7 unknown #
face $-1 $158 $159 $20 $-1 $160 reversed single #
loop $-1 $-1 $161 $56 #
plane-surface $-1 0 44.74578085963865 12.099189391131926 0 0 1 1 0 0 forward_v I I I I #
coedge $-1 $162 $163 $95 $164 forward $57 $-1 #
coedge $-1 $165 $59 $166 $167 reversed $37 $-1 #
coedge $-1 $59 $165 $93 $164 reversed $37 $-1 #
coedge $-1 $168 $169 $59 $97 reversed $159 $-1 #
edge $-1 $170 -75.988647114474929 $171 75.988647114474929 $96 $172 forward 7 unknown #
face $-1 $173 $174 $21 $-1 $175 forward single #
loop $-1 $-1 $176 $60 #
plane-surface $-1 34.97838629446241 3.257874573905287 219.47061423603853 0 -1 0 -0.55919291073839883 0 -0.82903756765294845 forward_v I I I I #
coedge $-1 $177 $178 $179 $180 reversed $61 $-1 #
coedge $-1 $103 $63 $181 $182 reversed $40 $-1 #
coedge $-1 $63 $102 $177 $183 reversed $40 $-1 #
coedge $-1 $179 $184 $63 $105 forward $185 $-1 #
edge $-1 $186 91.738112682922903 $187 101.24420475405832 $104 $188 forward 7 unknown #
loop $-1 $-1 $111 $64 #
plane-surface $-1 -50.00623923157012 -0.74082878720545153 93.475727889993465 0.55919291073839883 0 0.82903756765294845 0.82903756765294845 0 -0.55919291073839883 forward_v I I I I #
loop $-1 $-1 $189 $42 #
coedge $-1 $109 $109 $110 $190 reversed $65 $-1 #
coedge $-1 $110 $110 $109 $190 forward $67 $-1 #
coedge $-1 $111 $111 $68 $112 forward $106 $-1 #
edge $-1 $191 0 $191 6.2831853071796004 $111 $192 forward 7 unknown #
loop $-1 $-1 $118 $69 #
plane-surface $-1 -50.00623923157012 -0.74082878720545153 93.475727889993465 0.55919291073839883 0 0.82903756765294845 0.82903756765294845 0 -0.55919291073839883 forward_v I I I I #
loop $-1 $-1 $193 $45 #
coedge $-1 $116 $116 $117 $194 reversed $70 $-1 #
coedge $-1 $117 $117 $116 $194 forward $72 $-1 #
coedge $-1 $118 $118 $73 $119 forward $113 $-1 #
edge $-1 $195 0 $195 6.2831853071796004 $118 $196 forward 7 unknown #
face $-1 $197 $198 $18 $-1 $199 reversed single #
loop $-1 $-1 $200 $74 #
plane-surface $-1 -75.988647114474929 0 0 1 0 0 0 0 -1 forward_v I I I I #
coedge $-1 $201 $131 $202 $203 forward $75 $-1 #
coedge $-1 $204 $77 $201 $205 forward $49 $-1 #
coedge $-1 $77 $204 $206 $207 forward $49 $-1 #
coedge $-1 $134 $133 $77 $127 reversed $135 $-1 #
edge $-1 $208 -36.808588052930354 $209 36.808588052930354 $126 $210 forward 7 unknown #
coedge $-1 $79 $78 $211 $212 forward $31 $-1 #
coedge $-1 $213 $214 $78 $130 reversed $198 $-1 #
edge $-1 $137 -75.988647114474929 $215 75.988647114474929 $129 $216 forward 7 unknown #
coedge $-1 $123 $217 $79 $132 reversed $75 $-1 #
edge $-1 $218 -75.988647114474929 $136 75.988647114474929 $131 $219 forward 7 unknown #
coedge $-1 $126 $80 $217 $220 forward $135 $-1 #
coedge $-1 $80 $126 $213 $221 reversed $135 $-1 #
loop $-1 $-1 $133 $197 #
vertex $-1 $81 $222 #
vertex $-1 $81 $223 #
straight-curve $-1 75.988647114474929 0 17.997194435096361 0 1 0 I I #
face $-1 $224 $225 $19 $-1 $226 reversed single #
loop $-1 $-1 $227 $82 #
plane-surface $-1 -75.988647114474929 0 0 1 0 0 0 0 -1 forward_v I I I I #
coedge $-1 $228 $148 $153 $229 reversed $83 $-1 #
coedge $-1 $230 $85 $231 $232 reversed $53 $-1 #
coedge $-1 $85 $230 $228 $233 forward $53 $-1 #
coedge $-1 $153 $152 $85 $146 forward $154 $-1 #
edge $-1 $234 -22.800644420909535 $235 -5.2152428431320974 $145 $236 forward 7 unknown #
coedge $-1 $87 $86 $227 $237 reversed $34 $-1 #
coedge $-1 $142 $238 $86 $149 reversed $83 $-1 #
edge $-1 $155 -75.988647114474929 $239 75.988647114474929 $148 $240 forward 7 unknown #
coedge $-1 $241 $242 $87 $151 forward $225 $-1 #
edge $-1 $156 -75.988647114474929 $243 75.988647114474929 $150 $244 forward 7 unknown #
coedge $-1 $145 $88 $242 $245 forward $154 $-1 #
coedge $-1 $88 $145 $142 $229 forward $154 $-1 #
loop $-1 $-1 $88 $224 #
vertex $-1 $89 $246 #
vertex $-1 $245 $247 #
straight-curve $-1 75.988647114474929 -14.007943632020817 9.5011850967950426 0 -1 0 I I #
face $-1 $248 $249 $20 $-1 $250 reversed single #
loop $-1 $-1 $169 $90 #
plane-surface $-1 0 44.74578085963865 2.4668154268978206 0 0 1 1 0 0 forward_v I I I I #
coedge $-1 $251 $252 $253 $254 forward $91 $-1 #
coedge $-1 $255 $93 $256 $257 reversed $57 $-1 #
coedge $-1 $93 $255 $168 $258 reversed $57 $-1 #
edge $-1 $170 2.4668154268978206 $259 12.099189391131926 $93 $260 forward 7 unknown #
coedge $-1 $95 $94 $252 $261 forward $37 $-1 #
coedge $-1 $262 $253 $94 $167 forward $263 $-1 #
edge $-1 $264 -12.099189391131926 $171 -2.4668154268978206 $166 $265 forward 7 unknown #
coedge $-1 $266 $96 $163 $258 forward $159 $-1 #
coedge $-1 $96 $266 $262 $267 forward $159 $-1 #
vertex $-1 $164 $268 #
vertex $-1 $167 $269 #
straight-curve $-1 0 36.808588052930354 2.4668154268978206 1 0 0 I I #
face $-1 $-1 $185 $21 $-1 $270 reversed single #
loop $-1 $-1 $271 $98 #
plane-surface $-1 0 0 17.997194435096361 0 0 1 1 0 0 forward_v I I I I #
coedge $-1 $272 $273 $274 $275 reversed $99 $-1 #
coedge $-1 $276 $101 $103 $183 forward $61 $-1 #
coedge $-1 $101 $276 $272 $277 forward $61 $-1 #
coedge $-1 $274 $104 $101 $180 forward $185 $-1 #
edge $-1 $187 -4.3691177547134643 $278 3.6282889675080128 $179 $279 forward 7 unknown #
coedge $-1 $280 $281 $102 $182 forward $174 $-1 #
edge $-1 $282 44.406093165990796 $186 58.499453967243724 $181 $283 forward 7 unknown #
edge $-1 $187 -151.97729422894983 $282 -134.97762937521827 $103 $284 forward 7 unknown #
coedge $-1 $104 $274 $280 $285 reversed $185 $-1 #
loop $-1 $-1 $274 $173 #
vertex $-1 $285 $286 #
vertex $-1 $105 $287 #
straight-curve $-1 75.988647114474929 -4.7395321483161901 109.73530711801926 0 0 -1 I I #
coedge $-1 $189 $189 $-1 $288 reversed $108 $-1 #
edge $-1 $289 0 $289 6.2831853071796004 $109 $290 forward 7 unknown #
vertex $-1 $112 $291 #
ellipse-curve $-1 68.941966713848444 -2.4545587991100462 13.244148399528644 0.55919291073839883 0 0.82903756765294845 0.41451878382647422 0 -0.27959645536919941 1 I I #
coedge $-1 $193 $193 $-1 $292 reversed $115 $-1 #
edge $-1 $293 0 $293 6.2831853071796004 $116 $294 forward 7 unknown #
vertex $-1 $119 $295 #
ellipse-curve $-1 68.941966713848444 0.9729012246991573 13.244148399528644 0.55919291073839883 0 0.82903756765294845 0.41451878382647422 0 -0.27959645536919941 1 I I #
face $-1 $-1 $135 $18 $-1 $296 reversed single #
loop $-1 $-1 $214 $120 #
plane-surface $-1 0 36.808588052930354 0 0 -1 0 0 0 -1 forward_v I I I I #
coedge $-1 $297 $211 $214 $298 forward $121 $-1 #
coedge $-1 $217 $123 $124 $205 reversed $75 $-1 #
coedge $-1 $211 $297 $123 $203 reversed $121 $-1 #
edge $-1 $218 -17.997194435096361 $299 17.997194435096361 $202 $300 forward 7 unknown #
coedge $-1 $125 $124 $297 $301 forward $49 $-1 #
edge $-1 $209 -75.988647114474929 $299 75.988647114474929 $201 $302 forward 7 unknown #
coedge $-1 $214 $213 $125 $207 reversed $198 $-1 #
edge $-1 $303 -75.988647114474929 $208 75.988647114474929 $206 $304 forward 7 unknown #
vertex $-1 $127 $305 #
vertex $-1 $220 $306 #
straight-curve $-1 75.988647114474929 0 -17.997194435096361 0 -1 0 I I #
coedge $-1 $200 $202 $128 $212 reversed $121 $-1 #
edge $-1 $215 -36.808588052930354 $218 36.808588052930354 $211 $307 forward 7 unknown #
coedge $-1 $206 $129 $134 $221 forward $198 $-1 #
coedge $-1 $129 $206 $200 $298 reversed $198 $-1 #
vertex $-1 $130 $308 #
straight-curve $-1 0 36.808588052930354 17.997194435096361 -1 0 0 I I #
coedge $-1 $131 $201 $133 $220 reversed $75 $-1 #
vertex $-1 $212 $309 #
straight-curve $-1 0 -36.808588052930354 17.997194435096361 1 0 0 I I #
edge $-1 $136 -17.997194435096361 $209 17.997194435096361 $133 $310 forward 7 unknown #
edge $-1 $137 -17.997194435096361 $208 17.997194435096361 $134 $311 forward 7 unknown #
point $-1 75.988647114474929 -36.808588052930354 17.997194435096361 #
point $-1 75.988647114474929 36.808588052930354 17.997194435096361 #
face $-1 $-1 $154 $19 $-1 $312 reversed single #
loop $-1 $-1 $150 $139 #
plane-surface $-1 0 -36.808588052930354 0 0 1 0 0 0 1 forward_v I I I I #
coedge $-1 $313 $314 $147 $237 forward $140 $-1 #
coedge $-1 $238 $142 $144 $233 reversed $83 $-1 #
edge $-1 $235 1.9681319280027214 $155 5.6780794218624546 $153 $315 forward 7 unknown #
coedge $-1 $144 $143 $316 $317 reversed $53 $-1 #
coedge $-1 $242 $241 $143 $232 forward $225 $-1 #
edge $-1 $318 -75.988647114474929 $234 75.988647114474929 $231 $319 forward 7 unknown #
edge $-1 $320 -75.988647114474929 $235 75.988647114474929 $228 $321 forward 7 unknown #
vertex $-1 $232 $322 #
vertex $-1 $146 $323 #
straight-curve $-1 75.988647114474929 -14.007943632020817 5.7912376029353094 0 1 0 I I #
edge $-1 $243 -22.800644420909535 $239 -5.2152428431320974 $227 $324 forward 7 unknown #
coedge $-1 $148 $228 $313 $325 reversed $83 $-1 #
vertex $-1 $237 $326 #
straight-curve $-1 0 -19.223186475152914 9.5011850967950426 -1 0 0 I I #
coedge $-1 $231 $150 $314 $327 forward $225 $-1 #
coedge $-1 $150 $231 $152 $245 reversed $225 $-1 #
vertex $-1 $327 $328 #
straight-curve $-1 0 -36.808588052930354 9.5011850967950426 -1 0 0 I I #
edge $-1 $156 -9.5011850967950426 $234 -5.7912376029353094 $152 $329 forward 7 unknown #
point $-1 75.988647114474929 -19.223186475152914 9.5011850967950426 #
point $-1 75.988647114474929 -36.808588052930354 9.5011850967950426 #
face $-1 $-1 $263 $20 $-1 $330 reversed single #
loop $-1 $-1 $331 $158 #
plane-surface $-1 0 52.682973666346939 7.2830024090148733 0 -1 0 0 0 -1 forward_v I I I I #
coedge $-1 $256 $161 $332 $333 forward $91 $-1 #
coedge $-1 $161 $256 $165 $261 reversed $91 $-1 #
coedge $-1 $166 $334 $161 $254 reversed $263 $-1 #
edge $-1 $264 -7.9371928067082891 $335 7.9371928067082891 $253 $336 forward 7 unknown #
coedge $-1 $163 $162 $337 $338 forward $57 $-1 #
coedge $-1 $252 $251 $162 $257 forward $91 $-1 #
edge $-1 $339 -7.9371928067082891 $259 7.9371928067082891 $162 $340 forward 7 unknown #
edge $-1 $170 -7.9371928067082891 $341 7.9371928067082891 $163 $342 forward 7 unknown #
vertex $-1 $257 $343 #
straight-curve $-1 -75.988647114474929 36.808588052930354 0 0 0 1 I I #
edge $-1 $264 -75.988647114474929 $259 75.988647114474929 $252 $344 forward 7 unknown #
coedge $-1 $334 $166 $169 $267 reversed $263 $-1 #
loop $-1 $-1 $166 $248 #
vertex $-1 $167 $345 #
straight-curve $-1 75.988647114474929 36.808588052930354 0 0 0 -1 I I #
coedge $-1 $169 $168 $346 $347 forward $159 $-1 #
edge $-1 $348 -7.9371928067082891 $171 7.9371928067082891 $262 $349 forward 7 unknown #
point $-1 -75.988647114474929 36.808588052930361 2.4668154268978206 #
point $-1 75.988647114474929 36.808588052930361 2.4668154268978206 #
plane-surface $-1 75.988647114474929 0 0 -1 0 0 0 0 1 forward_v I I I I #
coedge $-1 $281 $280 $273 $350 forward $174 $-1 #
coedge $-1 $273 $176 $178 $277 reversed $99 $-1 #
coedge $-1 $176 $272 $271 $350 reversed $99 $-1 #
coedge $-1 $184 $179 $176 $275 forward $185 $-1 #
edge $-1 $278 -101.24420475405832 $351 -91.738112682922903 $274 $352 forward 7 unknown #
coedge $-1 $178 $177 $281 $353 reversed $61 $-1 #
edge $-1 $354 134.97762937521827 $278 151.97729422894983 $272 $355 forward 7 unknown #
vertex $-1 $180 $356 #
straight-curve $-1 75.988647114474944 -0.37041439360272577 8.4911023639609411 0 1 0 I I #
coedge $-1 $271 $181 $184 $285 forward $174 $-1 #
coedge $-1 $181 $271 $276 $353 forward $174 $-1 #
vertex $-1 $182 $357 #
straight-curve $-1 17.489193147231205 -4.7395321483161901 17.997194435096361 1 0 0 I I #
straight-curve $-1 -50.00623923157012 -4.7395321483161901 93.475727889993465 -0.82903756765294845 0 0.55919291073839883 I I #
edge $-1 $186 -4.7395321483161901 $351 3.257874573905287 $184 $358 forward 7 unknown #
point $-1 75.988647114474929 -4.7395321483161901 17.997194435096361 #
point $-1 75.988647114474929 -4.7395321483161901 8.4911023639609482 #
edge $-1 $359 1 $359 0 $189 $-1 forward 7 unknown #
vertex $-1 $190 $360 #
ellipse-curve $-1 68.382773803110041 -2.4545587991100462 12.415110831875683 0.55919291073839883 0 0.82903756765294845 0.41451878382647422 0 -0.27959645536919941 1 I I #
point $-1 69.356485497674925 -2.4545587991100462 12.964551944159433 #
edge $-1 $361 1 $361 0 $193 $-1 forward 7 unknown #
vertex $-1 $194 $362 #
ellipse-curve $-1 68.382773803110041 0.9729012246991573 12.415110831875683 0.55919291073839883 0 0.82903756765294845 0.41451878382647422 0 -0.27959645536919941 1 I I #
point $-1 69.356485497674925 0.9729012246991573 12.964551944159433 #
plane-surface $-1 75.988647114474929 0 0 -1 0 0 0 0 1 forward_v I I I I #
coedge $-1 $202 $200 $204 $301 reversed $121 $-1 #
edge $-1 $215 -17.997194435096361 $303 17.997194435096361 $214 $363 forward 7 unknown #
vertex $-1 $301 $364 #
straight-curve $-1 -75.988647114474929 -36.808588052930354 0 0 0 -1 I I #
edge $-1 $299 -36.808588052930354 $303 36.808588052930354 $297 $365 forward 7 unknown #
straight-curve $-1 0 -36.808588052930354 -17.997194435096361 -1 0 0 I I #
vertex $-1 $207 $366 #
straight-curve $-1 0 36.808588052930354 -17.997194435096361 1 0 0 I I #
point $-1 75.988647114474929 36.808588052930354 -17.997194435096361 #
point $-1 75.988647114474929 -36.808588052930354 -17.997194435096361 #
straight-curve $-1 -75.988647114474929 0 17.997194435096361 0 -1 0 I I #
point $-1 -75.988647114474929 36.808588052930354 17.997194435096361 #
point $-1 -75.988647114474929 -36.808588052930354 17.997194435096361 #
straight-curve $-1 75.988647114474929 -36.808588052930354 0 0 0 -1 I I #
straight-curve $-1 75.988647114474929 36.808588052930354 0 0 0 -1 I I #
plane-surface $-1 75.988647114474929 0 0 -1 0 0 0 0 1 forward_v I I I I #
coedge $-1 $316 $227 $238 $325 forward $140 $-1 #
coedge $-1 $227 $316 $241 $327 reversed $140 $-1 #
straight-curve $-1 75.988647114474929 -19.223186475152914 3.823105674932588 0 0 1 I I #
coedge $-1 $314 $313 $230 $317 forward $140 $-1 #
edge $-1 $320 5.2152428431320974 $318 22.800644420909535 $316 $367 forward 7 unknown #
vertex $-1 $232 $368 #
straight-curve $-1 0 -36.808588052930354 5.7912376029353094 1 0 0 I I #
vertex $-1 $317 $369 #
straight-curve $-1 0 -19.223186475152914 5.7912376029353094 1 0 0 I I #
point $-1 75.988647114474929 -36.808588052930354 5.7912376029353094 #
point $-1 75.988647114474929 -19.223186475152914 5.7912376029353094 #
straight-curve $-1 -75.988647114474929 -14.007943632020817 9.5011850967950426 0 1 0 I I #
edge $-1 $239 -5.6780794218624546 $320 -1.9681319280027214 $313 $370 forward 7 unknown #
point $-1 -75.988647114474929 -19.223186475152914 9.5011850967950426 #
edge $-1 $243 -9.5011850967950426 $318 -5.7912376029353094 $314 $371 forward 7 unknown #
point $-1 -75.988647114474929 -36.808588052930354 9.5011850967950426 #
straight-curve $-1 75.988647114474929 -36.808588052930354 0 0 0 -1 I I #
plane-surface $-1 75.988647114474929 0 0 -1 0 0 0 0 1 forward_v I I I I #
coedge $-1 $346 $332 $334 $372 forward $249 $-1 #
coedge $-1 $331 $337 $251 $333 reversed $249 $-1 #
edge $-1 $335 -75.988647114474929 $339 75.988647114474929 $332 $373 forward 7 unknown #
coedge $-1 $253 $262 $331 $372 reversed $263 $-1 #
vertex $-1 $254 $374 #
straight-curve $-1 75.988647114474929 44.74578085963865 12.099189391131926 0 1 0 I I #
coedge $-1 $332 $346 $255 $338 reversed $249 $-1 #
edge $-1 $339 -4.8161869821170527 $341 4.8161869821170527 $337 $375 forward 7 unknown #
vertex $-1 $333 $376 #
straight-curve $-1 -75.988647114474929 44.74578085963865 12.099189391131926 0 -1 0 I I #
vertex $-1 $347 $377 #
straight-curve $-1 -75.988647114474929 44.74578085963865 2.4668154268978206 0 1 0 I I #
point $-1 -75.988647114474929 36.808588052930361 12.099189391131926 #
straight-curve $-1 0 36.808588052930354 12.099189391131926 -1 0 0 I I #
point $-1 75.988647114474929 36.808588052930361 12.099189391131926 #
coedge $-1 $337 $331 $266 $347 reversed $249 $-1 #
edge $-1 $341 -75.988647114474929 $348 75.988647114474929 $346 $378 forward 7 unknown #
vertex $-1 $267 $379 #
straight-curve $-1 75.988647114474929 44.74578085963865 2.4668154268978206 0 -1 0 I I #
edge $-1 $351 -58.499453967243724 $354 -44.406093165990796 $271 $380 forward 7 unknown #
vertex $-1 $275 $381 #
straight-curve $-1 75.988647114474929 3.257874573905287 109.73530711801926 0 0 1 I I #
edge $-1 $354 -3.6282889675080128 $282 4.3691177547134643 $281 $382 forward 7 unknown #
vertex $-1 $353 $383 #
straight-curve $-1 -50.00623923157012 3.257874573905287 93.475727889993465 0.82903756765294845 0 -0.55919291073839883 I I #
point $-1 75.988647114474929 3.257874573905287 8.4911023639609482 #
point $-1 61.895286313222002 -4.7395321483161901 17.997194435096361 #
straight-curve $-1 75.988647114474929 0 17.997194435096361 0 1 0 I I #
vertex $-1 $288 $384 #
point $-1 68.797292586936521 -2.4545587991100462 12.135514376506485 #
vertex $-1 $292 $385 #
point $-1 68.797292586936521 0.9729012246991573 12.135514376506485 #
straight-curve $-1 -75.988647114474929 36.808588052930354 0 0 0 -1 I I #
point $-1 -75.988647114474929 -36.808588052930354 -17.997194435096361 #
straight-curve $-1 -75.988647114474929 0 -17.997194435096361 0 1 0 I I #
point $-1 -75.988647114474929 36.808588052930354 -17.997194435096361 #
straight-curve $-1 -75.988647114474929 -14.007943632020817 5.7912376029353094 0 -1 0 I I #
point $-1 -75.988647114474929 -36.808588052930354 5.7912376029353094 #
point $-1 -75.988647114474929 -19.223186475152914 5.7912376029353094 #
straight-curve $-1 -75.988647114474929 -19.223186475152914 3.823105674932588 0 0 -1 I I #
straight-curve $-1 -75.988647114474929 -36.808588052930354 0 0 0 -1 I I #
edge $-1 $335 -4.8161869821170527 $348 4.8161869821170527 $334 $386 forward 7 unknown #
straight-curve $-1 0 52.682973666346939 12.099189391131926 -1 0 0 I I #
point $-1 75.988647114474929 52.682973666346939 12.099189391131926 #
straight-curve $-1 -75.988647114474929 52.682973666346939 7.2830024090148733 0 0 -1 I I #
point $-1 -75.988647114474929 52.682973666346939 12.099189391131926 #
point $-1 -75.988647114474929 52.682973666346939 2.4668154268978206 #
straight-curve $-1 0 52.682973666346939 2.4668154268978206 1 0 0 I I #
point $-1 75.988647114474929 52.682973666346939 2.4668154268978206 #
straight-curve $-1 17.489193147231205 3.257874573905287 17.997194435096361 -1 0 0 I I #
point $-1 75.988647114474929 3.257874573905287 17.997194435096361 #
straight-curve $-1 61.895286313221973 -0.37041439360272577 17.997194435096361 0 -1 0 I I #
point $-1 61.895286313222002 3.257874573905287 17.997194435096361 #
point $-1 68.103177347740854 -2.4545587991100462 12.00059204804921 #
point $-1 68.103177347740854 0.9729012246991573 12.00059204804921 #
straight-curve $-1 75.988647114474929 52.682973666346939 7.2830024090148733 0 0 -1 I I #
End-of-ACIS-data 