500 0 5 0           
7 Unknown 11 ACIS 5.0 NT 24 Thu Mar 25 20:37:17 1999 
-1 9.9999999999999995e-007 1e-010 
body $-1 $5 $-1 $6 #
body $-1 $7 $-1 $8 #
body $-1 $9 $-1 $10 #
body $-1 $11 $-1 $12 #
body $-1 $13 $-1 $14 #
lump $-1 $-1 $15 $0 #
transform $-1 1 0 0 0 1 0 0 0 1 61.286049989318521 33.927001146618409 11.455268101618318 1 rotate no_reflect no_shear #
lump $-1 $-1 $16 $1 #
transform $-1 1 0 0 0 1 0 0 0 1 61.286049989318521 33.927001146618409 11.455268101618318 1 rotate no_reflect no_shear #
lump $-1 $-1 $17 $2 #
transform $-1 1 0 0 0 1 0 0 0 1 61.286049989318521 33.927001146618409 11.455268101618318 1 rotate no_reflect no_shear #
lump $-1 $-1 $18 $3 #
transform $-1 1 0 0 0 1 0 0 0 1 61.286049989318521 33.927001146618409 11.455268101618318 1 rotate no_reflect no_shear #
lump $-1 $-1 $19 $4 #
transform $-1 1 0 0 0 1 0 0 0 1 61.286049989318521 33.927001146618409 11.455268101618318 1 rotate no_reflect no_shear #
shell $-1 $-1 $-1 $20 $-1 $5 #
shell $-1 $-1 $-1 $21 $-1 $7 #
shell $-1 $-1 $-1 $22 $-1 $9 #
shell $-1 $-1 $-1 $23 $-1 $11 #
shell $-1 $-1 $-1 $24 $-1 $13 #
face $-1 $25 $26 $15 $-1 $27 forward single #
face $-1 $28 $29 $16 $-1 $30 reversed single #
face $-1 $31 $32 $17 $-1 $33 reversed single #
face $-1 $34 $35 $18 $-1 $36 forward single #
face $-1 $37 $38 $19 $-1 $39 forward single #
face $-1 $40 $41 $15 $-1 $42 reversed single #
loop $-1 $-1 $43 $20 #
plane-surface $-1 0 0 11.455268101618318 0 0 1 1 0 0 forward_v I I I I #
face $-1 $44 $45 $16 $-1 $46 reversed single #
loop $-1 $-1 $47 $21 #
plane-surface $-1 -54.334942823347475 -15.41936839885226 0 0 1 0 0 0 1 forward_v I I I I #
face $-1 $48 $49 $17 $-1 $50 reversed single #
loop $-1 $-1 $51 $22 #
plane-surface $-1 30.826053217154445 70.262653454732515 143.23829873686978 1 0 0 0 -0.69465837861970381 -0.71933979245794832 forward_v I I I I #
face $-1 $52 $53 $18 $-1 $54 forward single #
loop $-1 $55 $56 $23 #
cone-surface $-1 34.578845286734342 31.274483281240595 8.8359136329004997 0 -0.69465837861970381 -0.71933979245794832 1 0 0 1 I I 0 1 1 forward I I I I #
face $-1 $57 $58 $19 $-1 $59 forward single #
loop $-1 $60 $61 $24 #
cone-surface $-1 40.208033391104188 31.274483281240595 8.8359136329004997 0 -0.69465837861970381 -0.71933979245794832 1 0 0 1 I I 0 1 1 forward I I I I #
face $-1 $62 $63 $15 $-1 $64 reversed single #
loop $-1 $-1 $65 $25 #
plane-surface $-1 0 0 -11.455268101618318 0 0 1 1 0 0 forward_v I I I I #
coedge $-1 $66 $67 $68 $69 forward $26 $-1 #
face $-1 $70 $71 $16 $-1 $72 reversed single #
loop $-1 $-1 $73 $28 #
plane-surface $-1 -54.334942823347475 -11.016464943381774 0 0 -1 0 0 0 -1 forward_v I I I I #
coedge $-1 $74 $75 $76 $77 reversed $29 $-1 #
face $-1 $78 $79 $17 $-1 $80 reversed single #
loop $-1 $-1 $81 $31 #
plane-surface $-1 37.393439338919258 -14.883082780439722 55.067309777102125 0 0.69465837861970381 0.71933979245794832 1 0 0 forward_v I I I I #
coedge $-1 $82 $83 $84 $85 reversed $32 $-1 #
face $-1 $-1 $86 $18 $-1 $87 forward single #
loop $-1 $88 $89 $34 #
cone-surface $-1 34.578845286734342 30.098883102109198 7.6185440381505796 0 -0.69465837861970381 -0.71933979245794832 0.5 0 0 1 I I -0.70710678118654746 0.70710678118654746 0.5 forward I I I I #
loop $-1 $-1 $90 $23 #
coedge $-1 $56 $56 $91 $92 reversed $35 $-1 #
face $-1 $-1 $93 $19 $-1 $94 forward single #
loop $-1 $95 $96 $37 #
cone-surface $-1 40.208033391104188 30.098883102109198 7.6185440381505796 0 -0.69465837861970381 -0.71933979245794832 0.5 0 0 1 I I -0.70710678118654746 0.70710678118654746 0.5 forward I I I I #
loop $-1 $-1 $97 $24 #
coedge $-1 $61 $61 $98 $99 reversed $38 $-1 #
face $-1 $100 $101 $15 $-1 $102 reversed single #
loop $-1 $-1 $103 $40 #
plane-surface $-1 0 -33.927001146618409 0 0 1 0 0 0 1 forward_v I I I I #
coedge $-1 $104 $105 $106 $107 forward $41 $-1 #
coedge $-1 $108 $43 $109 $110 forward $26 $-1 #
coedge $-1 $43 $108 $111 $112 forward $26 $-1 #
coedge $-1 $113 $114 $43 $69 reversed $115 $-1 #
edge $-1 $116 -33.927001146618409 $117 33.927001146618409 $68 $118 forward 7 unknown #
face $-1 $119 $120 $16 $-1 $121 reversed single #
loop $-1 $-1 $122 $44 #
plane-surface $-1 -47.38383565737643 -13.217916671117017 0 -1 0 0 0 0 1 forward_v I I I I #
coedge $-1 $123 $124 $125 $126 forward $45 $-1 #
coedge $-1 $127 $47 $128 $129 reversed $29 $-1 #
coedge $-1 $47 $127 $130 $131 reversed $29 $-1 #
coedge $-1 $132 $133 $47 $77 forward $134 $-1 #
edge $-1 $135 -11.455268101618318 $136 11.455268101618318 $76 $137 forward 7 unknown #
face $-1 $138 $139 $17 $-1 $140 reversed single #
loop $-1 $-1 $141 $48 #
plane-surface $-1 43.96082546068407 70.262653454732515 143.23829873686978 -1 0 0 0 0.69465837861970381 0.71933979245794832 forward_v I I I I #
coedge $-1 $142 $143 $144 $145 reversed $49 $-1 #
coedge $-1 $83 $51 $146 $147 reversed $32 $-1 #
coedge $-1 $51 $82 $142 $148 reversed $32 $-1 #
coedge $-1 $144 $149 $51 $85 forward $150 $-1 #
edge $-1 $151 1.2043255807478488 $152 4.8528193318603741 $84 $153 forward 7 unknown #
loop $-1 $-1 $91 $52 #
plane-surface $-1 37.393439338919258 -14.883082780439722 55.067309777102125 0 0.69465837861970381 0.71933979245794832 1 0 0 forward_v I I I I #
loop $-1 $-1 $154 $34 #
coedge $-1 $89 $89 $90 $155 reversed $53 $-1 #
coedge $-1 $90 $90 $89 $155 forward $55 $-1 #
coedge $-1 $91 $91 $56 $92 forward $86 $-1 #
edge $-1 $156 0 $156 6.2831853071796004 $91 $157 forward 7 unknown #
loop $-1 $-1 $98 $57 #
plane-surface $-1 37.393439338919258 -14.883082780439722 55.067309777102125 0 0.69465837861970381 0.71933979245794832 1 0 0 forward_v I I I I #
loop $-1 $-1 $158 $37 #
coedge $-1 $96 $96 $97 $159 reversed $58 $-1 #
coedge $-1 $97 $97 $96 $159 forward $60 $-1 #
coedge $-1 $98 $98 $61 $99 forward $93 $-1 #
edge $-1 $160 0 $160 6.2831853071796004 $98 $161 forward 7 unknown #
face $-1 $162 $163 $15 $-1 $164 reversed single #
loop $-1 $-1 $165 $62 #
plane-surface $-1 -61.286049989318521 0 0 1 0 0 0 0 -1 forward_v I I I I #
coedge $-1 $166 $111 $167 $168 forward $63 $-1 #
coedge $-1 $169 $65 $166 $170 forward $41 $-1 #
coedge $-1 $65 $169 $171 $172 forward $41 $-1 #
coedge $-1 $114 $113 $65 $107 reversed $115 $-1 #
edge $-1 $173 -33.927001146618409 $174 33.927001146618409 $106 $175 forward 7 unknown #
coedge $-1 $67 $66 $176 $177 forward $26 $-1 #
coedge $-1 $178 $179 $66 $110 reversed $163 $-1 #
edge $-1 $117 -61.286049989318521 $180 61.286049989318521 $109 $181 forward 7 unknown #
coedge $-1 $103 $182 $67 $112 reversed $63 $-1 #
edge $-1 $183 -61.286049989318521 $116 61.286049989318521 $111 $184 forward 7 unknown #
coedge $-1 $106 $68 $182 $185 forward $115 $-1 #
coedge $-1 $68 $106 $178 $186 reversed $115 $-1 #
loop $-1 $-1 $113 $162 #
vertex $-1 $69 $187 #
vertex $-1 $69 $188 #
straight-curve $-1 61.286049989318521 0 11.455268101618318 0 1 0 I I #
face $-1 $189 $190 $16 $-1 $191 forward single #
loop $-1 $-1 $192 $70 #
plane-surface $-1 0 0 -11.455268101618318 0 0 1 1 0 0 forward_v I I I I #
coedge $-1 $193 $194 $127 $195 forward $71 $-1 #
coedge $-1 $196 $73 $192 $197 reversed $45 $-1 #
coedge $-1 $73 $196 $198 $199 reversed $45 $-1 #
coedge $-1 $194 $193 $73 $126 reversed $71 $-1 #
edge $-1 $200 -11.455268101618318 $201 11.455268101618318 $125 $202 forward 7 unknown #
coedge $-1 $75 $74 $122 $195 reversed $29 $-1 #
coedge $-1 $203 $204 $74 $129 forward $120 $-1 #
edge $-1 $205 20.216364245702692 $135 34.118578577644783 $128 $206 forward 7 unknown #
coedge $-1 $207 $208 $75 $131 forward $190 $-1 #
edge $-1 $136 -34.118578577644783 $209 -20.216364245702692 $130 $210 forward 7 unknown #
coedge $-1 $211 $76 $208 $212 reversed $134 $-1 #
coedge $-1 $76 $211 $203 $213 reversed $134 $-1 #
loop $-1 $-1 $211 $189 #
vertex $-1 $213 $214 #
vertex $-1 $77 $215 #
straight-curve $-1 -61.286049989318521 -15.41936839885226 0 0 0 1 I I #
face $-1 $-1 $150 $17 $-1 $216 forward single #
loop $-1 $-1 $217 $78 #
plane-surface $-1 0 33.927001146618409 0 0 -1 0 0 0 -1 forward_v I I I I #
coedge $-1 $218 $219 $220 $221 reversed $79 $-1 #
coedge $-1 $222 $81 $83 $148 forward $49 $-1 #
coedge $-1 $81 $222 $218 $223 forward $49 $-1 #
coedge $-1 $220 $84 $81 $145 forward $150 $-1 #
edge $-1 $152 12.129333547694817 $224 25.264105791224441 $144 $225 forward 7 unknown #
coedge $-1 $226 $227 $82 $147 forward $139 $-1 #
edge $-1 $228 -63.687190807210328 $151 -60.163881266816574 $146 $229 forward 7 unknown #
edge $-1 $152 62.781999062822159 $228 67.854002293236832 $83 $230 forward 7 unknown #
coedge $-1 $84 $220 $226 $231 forward $150 $-1 #
loop $-1 $-1 $220 $138 #
vertex $-1 $147 $232 #
vertex $-1 $85 $233 #
straight-curve $-1 30.826053217154445 35.131326727366258 11.455268101618316 0 -1 0 I I #
coedge $-1 $154 $154 $-1 $234 reversed $88 $-1 #
edge $-1 $235 0 $235 6.2831853071796004 $89 $236 forward 7 unknown #
vertex $-1 $92 $237 #
ellipse-curve $-1 34.578845286734342 32.102754271062139 9.6936133314214459 0 0.69465837861970381 0.71933979245794832 1 0 0 1 I I #
coedge $-1 $158 $158 $-1 $238 reversed $95 $-1 #
edge $-1 $239 0 $239 6.2831853071796004 $96 $240 forward 7 unknown #
vertex $-1 $99 $241 #
ellipse-curve $-1 40.208033391104188 32.102754271062139 9.6936133314214459 0 0.69465837861970381 0.71933979245794832 1 0 0 1 I I #
face $-1 $-1 $115 $15 $-1 $242 reversed single #
loop $-1 $-1 $178 $100 #
plane-surface $-1 0 33.927001146618409 0 0 -1 0 0 0 -1 forward_v I I I I #
coedge $-1 $243 $176 $179 $244 forward $101 $-1 #
coedge $-1 $182 $103 $104 $170 reversed $63 $-1 #
coedge $-1 $176 $243 $103 $168 reversed $101 $-1 #
edge $-1 $183 -11.455268101618318 $245 11.455268101618318 $167 $246 forward 7 unknown #
coedge $-1 $105 $104 $243 $247 forward $41 $-1 #
edge $-1 $174 -61.286049989318521 $245 61.286049989318521 $166 $248 forward 7 unknown #
coedge $-1 $179 $178 $105 $172 reversed $163 $-1 #
edge $-1 $249 -61.286049989318521 $173 61.286049989318521 $171 $250 forward 7 unknown #
vertex $-1 $107 $251 #
vertex $-1 $185 $252 #
straight-curve $-1 61.286049989318521 0 -11.455268101618318 0 -1 0 I I #
coedge $-1 $165 $167 $108 $177 reversed $101 $-1 #
edge $-1 $180 -33.927001146618409 $183 33.927001146618409 $176 $253 forward 7 unknown #
coedge $-1 $171 $109 $114 $186 forward $163 $-1 #
coedge $-1 $109 $171 $165 $244 reversed $163 $-1 #
vertex $-1 $110 $254 #
straight-curve $-1 0 33.927001146618409 11.455268101618318 -1 0 0 I I #
coedge $-1 $111 $166 $113 $185 reversed $63 $-1 #
vertex $-1 $177 $255 #
straight-curve $-1 0 -33.927001146618409 11.455268101618318 1 0 0 I I #
edge $-1 $116 -11.455268101618318 $174 11.455268101618318 $113 $256 forward 7 unknown #
edge $-1 $117 -11.455268101618318 $173 11.455268101618318 $114 $257 forward 7 unknown #
point $-1 61.286049989318521 -33.927001146618409 11.455268101618318 #
point $-1 61.286049989318521 33.927001146618409 11.455268101618318 #
face $-1 $-1 $134 $16 $-1 $258 reversed single #
loop $-1 $-1 $198 $119 #
plane-surface $-1 0 0 11.455268101618318 0 0 1 1 0 0 forward_v I I I I #
coedge $-1 $204 $203 $123 $197 forward $120 $-1 #
coedge $-1 $125 $122 $204 $259 reversed $71 $-1 #
coedge $-1 $122 $125 $207 $260 reversed $71 $-1 #
edge $-1 $209 -11.455268101618318 $205 11.455268101618318 $122 $261 forward 7 unknown #
coedge $-1 $124 $123 $211 $262 reversed $45 $-1 #
edge $-1 $263 -34.118578577644783 $201 -20.216364245702692 $192 $264 forward 7 unknown #
coedge $-1 $208 $207 $124 $199 forward $190 $-1 #
edge $-1 $200 20.216364245702692 $265 34.118578577644783 $198 $266 forward 7 unknown #
vertex $-1 $199 $267 #
vertex $-1 $197 $268 #
straight-curve $-1 -47.38383565737643 -11.016464943381774 0 0 0 -1 I I #
coedge $-1 $192 $128 $133 $213 forward $120 $-1 #
coedge $-1 $128 $192 $193 $259 forward $120 $-1 #
vertex $-1 $129 $269 #
straight-curve $-1 -27.167471411673738 -15.41936839885226 -11.455268101618318 -1 0 0 I I #
coedge $-1 $198 $130 $194 $260 forward $190 $-1 #
coedge $-1 $130 $198 $132 $212 forward $190 $-1 #
vertex $-1 $131 $270 #
straight-curve $-1 -27.167471411673738 -15.41936839885226 11.455268101618318 1 0 0 I I #
coedge $-1 $133 $132 $196 $262 forward $134 $-1 #
edge $-1 $265 11.016464943381774 $136 15.41936839885226 $132 $271 forward 7 unknown #
edge $-1 $135 -15.41936839885226 $263 -11.016464943381774 $133 $272 forward 7 unknown #
point $-1 -61.286049989318521 -15.41936839885226 -11.455268101618318 #
point $-1 -61.286049989318521 -15.41936839885226 11.455268101618318 #
plane-surface $-1 0 0 11.455268101618318 0 0 1 1 0 0 forward_v I I I I #
coedge $-1 $227 $226 $219 $273 forward $139 $-1 #
coedge $-1 $219 $141 $143 $223 reversed $79 $-1 #
coedge $-1 $141 $218 $217 $273 reversed $79 $-1 #
coedge $-1 $149 $144 $141 $221 forward $150 $-1 #
edge $-1 $224 -4.8528193318603741 $274 -1.2043255807478488 $220 $275 forward 7 unknown #
coedge $-1 $143 $142 $227 $276 reversed $49 $-1 #
edge $-1 $277 -67.854002293236832 $224 -62.781999062822159 $218 $278 forward 7 unknown #
vertex $-1 $145 $279 #
straight-curve $-1 18.696719669459629 30.278507395505876 11.455268101618319 1 0 0 I I #
coedge $-1 $217 $146 $149 $231 reversed $139 $-1 #
coedge $-1 $146 $217 $222 $276 forward $139 $-1 #
vertex $-1 $147 $280 #
straight-curve $-1 30.826053217154445 33.927001146618409 71.61914936843489 0 0 1 I I #
straight-curve $-1 30.826053217154445 -14.883082780439722 55.067309777102125 0 0.71933979245794832 -0.69465837861970381 I I #
edge $-1 $274 -43.96082546068407 $151 -30.826053217154445 $226 $281 forward 7 unknown #
point $-1 30.826053217154445 33.927001146618409 11.455268101618318 #
point $-1 30.826053217154445 30.278507395505883 11.455268101618316 #
edge $-1 $282 1 $282 0 $154 $-1 forward 7 unknown #
vertex $-1 $155 $283 #
ellipse-curve $-1 34.578845286734342 30.446212291419052 7.9782139343795535 0 0.69465837861970381 0.71933979245794832 1 0 0 1 I I #
point $-1 35.578845286734342 32.102754271062139 9.6936133314214459 #
edge $-1 $284 1 $284 0 $158 $-1 forward 7 unknown #
vertex $-1 $159 $285 #
ellipse-curve $-1 40.208033391104188 30.446212291419052 7.9782139343795535 0 0.69465837861970381 0.71933979245794832 1 0 0 1 I I #
point $-1 41.208033391104188 32.102754271062139 9.6936133314214459 #
plane-surface $-1 61.286049989318521 0 0 -1 0 0 0 0 1 forward_v I I I I #
coedge $-1 $167 $165 $169 $247 reversed $101 $-1 #
edge $-1 $180 -11.455268101618318 $249 11.455268101618318 $179 $286 forward 7 unknown #
vertex $-1 $247 $287 #
straight-curve $-1 -61.286049989318521 -33.927001146618409 0 0 0 -1 I I #
edge $-1 $245 -33.927001146618409 $249 33.927001146618409 $243 $288 forward 7 unknown #
straight-curve $-1 0 -33.927001146618409 -11.455268101618318 -1 0 0 I I #
vertex $-1 $172 $289 #
straight-curve $-1 0 33.927001146618409 -11.455268101618318 1 0 0 I I #
point $-1 61.286049989318521 33.927001146618409 -11.455268101618318 #
point $-1 61.286049989318521 -33.927001146618409 -11.455268101618318 #
straight-curve $-1 -61.286049989318521 0 11.455268101618318 0 -1 0 I I #
point $-1 -61.286049989318521 33.927001146618409 11.455268101618318 #
point $-1 -61.286049989318521 -33.927001146618409 11.455268101618318 #
straight-curve $-1 61.286049989318521 -33.927001146618409 0 0 0 -1 I I #
straight-curve $-1 61.286049989318521 33.927001146618409 0 0 0 -1 I I #
plane-surface $-1 -61.286049989318521 0 0 1 0 0 0 0 -1 forward_v I I I I #
edge $-1 $201 4.4075066078232652 $205 8.8104100632937516 $204 $290 forward 7 unknown #
edge $-1 $209 -8.8104100632937516 $200 -4.4075066078232652 $207 $291 forward 7 unknown #
straight-curve $-1 -47.38383565737643 -15.41936839885226 0 0 0 -1 I I #
edge $-1 $265 -11.455268101618318 $263 11.455268101618318 $211 $292 forward 7 unknown #
vertex $-1 $262 $293 #
straight-curve $-1 -27.167471411673738 -11.016464943381774 -11.455268101618318 1 0 0 I I #
vertex $-1 $212 $294 #
straight-curve $-1 -27.167471411673738 -11.016464943381774 11.455268101618318 -1 0 0 I I #
point $-1 -47.38383565737643 -11.016464943381774 11.455268101618318 #
point $-1 -47.38383565737643 -11.016464943381774 -11.455268101618318 #
point $-1 -47.38383565737643 -15.41936839885226 -11.455268101618318 #
point $-1 -47.38383565737643 -15.41936839885226 11.455268101618318 #
straight-curve $-1 -61.286049989318521 0 11.455268101618318 0 -1 0 I I #
straight-curve $-1 -61.286049989318521 0 -11.455268101618318 0 1 0 I I #
edge $-1 $274 60.163881266816574 $277 63.687190807210328 $217 $295 forward 7 unknown #
vertex $-1 $231 $296 #
straight-curve $-1 43.96082546068407 35.131326727366258 11.455268101618316 0 1 0 I I #
edge $-1 $277 -25.264105791224441 $228 -12.129333547694817 $227 $297 forward 7 unknown #
vertex $-1 $276 $298 #
straight-curve $-1 43.96082546068407 -14.883082780439722 55.067309777102125 0 -0.71933979245794832 0.69465837861970381 I I #
point $-1 43.96082546068407 30.278507395505883 11.455268101618316 #
point $-1 30.826053217154445 33.927001146618409 7.9319585612245618 #
straight-curve $-1 0 33.927001146618409 11.455268101618318 -1 0 0 I I #
vertex $-1 $234 $299 #
point $-1 35.578845286734342 30.446212291419052 7.9782139343795535 #
vertex $-1 $238 $300 #
point $-1 41.208033391104188 30.446212291419052 7.9782139343795535 #
straight-curve $-1 -61.286049989318521 33.927001146618409 0 0 0 -1 I I #
point $-1 -61.286049989318521 -33.927001146618409 -11.455268101618318 #
straight-curve $-1 -61.286049989318521 0 -11.455268101618318 0 1 0 I I #
point $-1 -61.286049989318521 33.927001146618409 -11.455268101618318 #
straight-curve $-1 -47.38383565737643 -6.6089583355585084 -11.455268101618318 0 -1 0 I I #
straight-curve $-1 -47.38383565737643 -6.6089583355585084 11.455268101618318 0 1 0 I I #
straight-curve $-1 -61.286049989318521 -11.016464943381774 0 0 0 -1 I I #
point $-1 -61.286049989318521 -11.016464943381774 -11.455268101618318 #
point $-1 -61.286049989318521 -11.016464943381774 11.455268101618318 #
straight-curve $-1 43.96082546068407 33.927001146618409 71.61914936843489 0 0 -1 I I #
point $-1 43.96082546068407 33.927001146618409 11.455268101618318 #
straight-curve $-1 18.696719669459629 33.927001146618409 7.9319585612245653 -1 0 0 I I #
point $-1 43.96082546068407 33.927001146618409 7.9319585612245618 #
point $-1 34.578845286734342 29.751553912799345 7.2588741419216056 #
point $-1 40.208033391104188 29.751553912799345 7.2588741419216056 #
End-of-ACIS-data 