500 0 4 0           
7 Unknown 11 ACIS 5.0 NT 24 Fri Mar 26 14:30:07 1999 
-1 9.9999999999999995e-007 1e-010 
body $-1 $4 $-1 $5 #
body $-1 $6 $-1 $7 #
body $-1 $8 $-1 $9 #
body $-1 $10 $-1 $11 #
lump $-1 $-1 $12 $0 #
transform $-1 1 0 0 0 1 0 0 0 1 71.794183172093881 36.239333824014444 16.747378774282161 1 rotate no_reflect no_shear #
lump $-1 $-1 $13 $1 #
transform $-1 1 0 0 0 1 0 0 0 1 71.794183172093881 36.239333824014444 16.747378774282161 1 rotate no_reflect no_shear #
lump $-1 $-1 $14 $2 #
transform $-1 1 0 0 0 1 0 0 0 1 71.794183172093881 36.239333824014444 16.747378774282161 1 rotate no_reflect no_shear #
lump $-1 $-1 $15 $3 #
transform $-1 1 0 0 0 1 0 0 0 1 71.794183172093881 36.239333824014444 16.747378774282161 1 rotate no_reflect no_shear #
shell $-1 $-1 $-1 $16 $-1 $4 #
shell $-1 $-1 $-1 $17 $-1 $6 #
shell $-1 $-1 $-1 $18 $-1 $8 #
shell $-1 $-1 $-1 $19 $-1 $10 #
face $-1 $20 $21 $12 $-1 $22 forward single #
face $-1 $23 $24 $13 $-1 $25 reversed single #
face $-1 $26 $27 $14 $-1 $28 forward single #
face $-1 $29 $30 $15 $-1 $31 reversed single #
face $-1 $32 $33 $12 $-1 $34 reversed single #
loop $-1 $-1 $35 $16 #
plane-surface $-1 0 0 16.747378774282161 0 0 1 1 0 0 forward_v I I I I #
face $-1 $36 $37 $13 $-1 $38 reversed single #
loop $-1 $-1 $39 $17 #
plane-surface $-1 -83.22627399505231 -32.422043628040413 0 1 0 0 0 0 -1 forward_v I I I I #
face $-1 $40 $41 $14 $-1 $42 forward single #
loop $-1 $-1 $43 $18 #
plane-surface $-1 41.585968563630523 124.35117502366504 135.72428181614936 1 0 0 0 -0.86602541151947299 -0.49999998660252726 forward_v I I I I #
face $-1 $44 $45 $15 $-1 $46 reversed single #
loop $-1 $47 $48 $19 #
cone-surface $-1 52.320162096330364 26.958121616360863 6.1936530193636923 0 -0.86602541151947299 -0.49999998660252726 3 0 0 1 I I 0 1 3 forward I I I I #
face $-1 $49 $50 $12 $-1 $51 reversed single #
loop $-1 $-1 $52 $20 #
plane-surface $-1 0 0 -16.747378774282161 0 0 1 1 0 0 forward_v I I I I #
coedge $-1 $53 $54 $55 $56 forward $21 $-1 #
face $-1 $57 $58 $13 $-1 $59 forward single #
loop $-1 $-1 $60 $23 #
plane-surface $-1 -77.510228583573095 -28.604753432066378 0 0 -1 0 0 0 -1 forward_v I I I I #
coedge $-1 $61 $62 $63 $64 forward $24 $-1 #
face $-1 $65 $66 $14 $-1 $67 forward single #
loop $-1 $-1 $68 $26 #
plane-surface $-1 52.320162096330364 9.7103098539719213e-007 63.930100567776705 0 0.86602541151947299 0.49999998660252726 1 0 0 forward_v I I I I #
coedge $-1 $69 $70 $71 $72 reversed $27 $-1 #
face $-1 $73 $74 $15 $-1 $75 forward single #
loop $-1 $76 $77 $29 #
cone-surface $-1 52.320162096330364 20.877059640246458 2.6827503759278386 0 -0.86602541151947299 -0.49999998660252726 1.5 0 0 1 I I -0.70710678118654757 0.70710678118654757 1.5 forward I I I I #
loop $-1 $-1 $78 $19 #
coedge $-1 $48 $48 $79 $80 reversed $30 $-1 #
face $-1 $81 $82 $12 $-1 $83 reversed single #
loop $-1 $-1 $84 $32 #
plane-surface $-1 0 -36.239333824014444 0 0 1 0 0 0 1 forward_v I I I I #
coedge $-1 $85 $86 $87 $88 forward $33 $-1 #
coedge $-1 $89 $35 $90 $91 forward $21 $-1 #
coedge $-1 $35 $89 $92 $93 forward $21 $-1 #
coedge $-1 $94 $95 $35 $56 reversed $96 $-1 #
edge $-1 $97 -36.239333824014444 $98 36.239333824014444 $55 $99 forward 7 unknown #
face $-1 $100 $101 $13 $-1 $102 reversed single #
loop $-1 $-1 $103 $36 #
plane-surface $-1 0 0 16.747378774282161 0 0 1 1 0 0 forward_v I I I I #
coedge $-1 $104 $105 $106 $107 reversed $37 $-1 #
coedge $-1 $108 $39 $109 $110 reversed $24 $-1 #
coedge $-1 $39 $108 $111 $112 reversed $24 $-1 #
coedge $-1 $105 $104 $39 $64 reversed $37 $-1 #
edge $-1 $113 -16.747378774282161 $114 16.747378774282161 $63 $115 forward 7 unknown #
face $-1 $116 $117 $14 $-1 $118 forward single #
loop $-1 $-1 $119 $40 #
plane-surface $-1 63.054355629030205 124.35117502366504 135.72428181614936 -1 0 0 0 0.86602541151947299 0.49999998660252726 forward_v I I I I #
coedge $-1 $120 $121 $122 $123 reversed $41 $-1 #
coedge $-1 $70 $43 $121 $124 forward $27 $-1 #
coedge $-1 $43 $69 $125 $126 reversed $27 $-1 #
coedge $-1 $127 $122 $43 $72 forward $117 $-1 #
edge $-1 $128 -34.934630385454838 $129 -25.936253687818073 $71 $130 forward 7 unknown #
face $-1 $131 $132 $15 $-1 $133 forward single #
loop $-1 $-1 $134 $44 #
plane-surface $-1 41.585968563630523 124.35117502366504 135.72428181614936 1 0 0 0 -0.86602541151947299 -0.49999998660252726 forward_v I I I I #
loop $-1 $-1 $135 $29 #
coedge $-1 $77 $77 $78 $136 forward $45 $-1 #
coedge $-1 $78 $78 $77 $136 reversed $47 $-1 #
coedge $-1 $79 $79 $48 $80 forward $132 $-1 #
edge $-1 $137 2.3798662895583364e-016 $137 6.2831853071796004 $79 $138 forward 7 unknown #
face $-1 $139 $140 $12 $-1 $141 reversed single #
loop $-1 $-1 $142 $49 #
plane-surface $-1 -71.794183172093881 0 0 1 0 0 0 0 -1 forward_v I I I I #
coedge $-1 $143 $92 $144 $145 forward $50 $-1 #
coedge $-1 $146 $52 $143 $147 forward $33 $-1 #
coedge $-1 $52 $146 $148 $149 forward $33 $-1 #
coedge $-1 $95 $94 $52 $88 reversed $96 $-1 #
edge $-1 $150 -36.239333824014444 $151 36.239333824014444 $87 $152 forward 7 unknown #
coedge $-1 $54 $53 $153 $154 forward $21 $-1 #
coedge $-1 $155 $156 $53 $91 reversed $140 $-1 #
edge $-1 $98 -71.794183172093881 $157 71.794183172093881 $90 $158 forward 7 unknown #
coedge $-1 $84 $159 $54 $93 reversed $50 $-1 #
edge $-1 $160 -71.794183172093881 $97 71.794183172093881 $92 $161 forward 7 unknown #
coedge $-1 $87 $55 $159 $162 forward $96 $-1 #
coedge $-1 $55 $87 $155 $163 reversed $96 $-1 #
loop $-1 $-1 $94 $139 #
vertex $-1 $56 $164 #
vertex $-1 $56 $165 #
straight-curve $-1 71.794183172093881 0 16.747378774282161 0 1 0 I I #
face $-1 $166 $167 $13 $-1 $168 reversed single #
loop $-1 $-1 $169 $57 #
plane-surface $-1 0 0 -16.747378774282161 0 0 1 1 0 0 forward_v I I I I #
coedge $-1 $170 $171 $172 $173 forward $58 $-1 #
coedge $-1 $63 $60 $174 $175 reversed $37 $-1 #
coedge $-1 $60 $63 $176 $177 reversed $37 $-1 #
coedge $-1 $178 $179 $60 $107 forward $180 $-1 #
edge $-1 $181 -16.747378774282161 $182 16.747378774282161 $106 $183 forward 7 unknown #
coedge $-1 $62 $61 $184 $185 reversed $24 $-1 #
coedge $-1 $174 $186 $61 $110 forward $101 $-1 #
edge $-1 $187 -3.8172901959740315 $114 3.8172901959740351 $61 $188 forward 7 unknown #
coedge $-1 $171 $176 $62 $112 forward $58 $-1 #
edge $-1 $113 -3.8172901959740351 $189 3.8172901959740315 $62 $190 forward 7 unknown #
vertex $-1 $177 $191 #
vertex $-1 $175 $192 #
straight-curve $-1 -83.22627399505231 -28.604753432066378 0 0 0 -1 I I #
face $-1 $193 $194 $14 $-1 $195 reversed single #
loop $-1 $-1 $196 $65 #
plane-surface $-1 0 0 16.747378774282161 0 0 1 1 0 0 forward_v I I I I #
coedge $-1 $197 $198 $196 $199 reversed $66 $-1 #
coedge $-1 $200 $68 $198 $201 reversed $41 $-1 #
coedge $-1 $68 $200 $69 $124 reversed $41 $-1 #
coedge $-1 $71 $196 $68 $123 forward $117 $-1 #
edge $-1 $202 -36.894274580865023 $128 -15.425887515465341 $122 $203 forward 7 unknown #
edge $-1 $128 54.481913770533296 $204 72.478667648028861 $69 $205 forward 7 unknown #
coedge $-1 $206 $207 $70 $126 forward $208 $-1 #
edge $-1 $129 51.114762133792517 $204 66.700408316565273 $125 $209 forward 7 unknown #
coedge $-1 $210 $71 $207 $211 forward $117 $-1 #
vertex $-1 $123 $212 #
vertex $-1 $211 $213 #
straight-curve $-1 41.585968563630523 62.175587511832518 16.747378774282161 0 1 0 I I #
face $-1 $214 $215 $15 $-1 $216 forward single #
loop $-1 $217 $79 $73 #
plane-surface $-1 52.320162096330364 9.7103098539719213e-007 63.930100567776705 0 0.86602541151947299 0.49999998660252726 1 0 0 forward_v I I I I #
coedge $-1 $218 $219 $220 $221 reversed $74 $-1 #
coedge $-1 $135 $135 $-1 $222 forward $76 $-1 #
edge $-1 $223 0 $223 6.2831853071796004 $77 $224 forward 7 unknown #
vertex $-1 $80 $225 #
ellipse-curve $-1 52.320162096330364 31.740145475196069 8.9545556828957604 0 -0.86602541151947299 -0.49999998660252726 3 0 0 1 I I #
face $-1 $-1 $96 $12 $-1 $226 reversed single #
loop $-1 $-1 $155 $81 #
plane-surface $-1 0 36.239333824014444 0 0 -1 0 0 0 -1 forward_v I I I I #
coedge $-1 $227 $153 $156 $228 forward $82 $-1 #
coedge $-1 $159 $84 $85 $147 reversed $50 $-1 #
coedge $-1 $153 $227 $84 $145 reversed $82 $-1 #
edge $-1 $160 -16.747378774282161 $229 16.747378774282161 $144 $230 forward 7 unknown #
coedge $-1 $86 $85 $227 $231 forward $33 $-1 #
edge $-1 $151 -71.794183172093881 $229 71.794183172093881 $143 $232 forward 7 unknown #
coedge $-1 $156 $155 $86 $149 reversed $140 $-1 #
edge $-1 $233 -71.794183172093881 $150 71.794183172093881 $148 $234 forward 7 unknown #
vertex $-1 $88 $235 #
vertex $-1 $162 $236 #
straight-curve $-1 71.794183172093881 0 -16.747378774282161 0 -1 0 I I #
coedge $-1 $142 $144 $89 $154 reversed $82 $-1 #
edge $-1 $157 -36.239333824014444 $160 36.239333824014444 $153 $237 forward 7 unknown #
coedge $-1 $148 $90 $95 $163 forward $140 $-1 #
coedge $-1 $90 $148 $142 $228 reversed $140 $-1 #
vertex $-1 $91 $238 #
straight-curve $-1 0 36.239333824014444 16.747378774282161 -1 0 0 I I #
coedge $-1 $92 $143 $94 $162 reversed $50 $-1 #
vertex $-1 $154 $239 #
straight-curve $-1 0 -36.239333824014444 16.747378774282161 1 0 0 I I #
edge $-1 $97 -16.747378774282161 $151 16.747378774282161 $94 $240 forward 7 unknown #
edge $-1 $98 -16.747378774282161 $150 16.747378774282161 $95 $241 forward 7 unknown #
point $-1 71.794183172093881 -36.239333824014444 16.747378774282161 #
point $-1 71.794183172093881 36.239333824014444 16.747378774282161 #
face $-1 $242 $180 $13 $-1 $243 reversed single #
loop $-1 $-1 $244 $100 #
plane-surface $-1 0 -36.239333824014444 0 0 1 0 0 0 1 forward_v I I I I #
coedge $-1 $186 $245 $246 $247 forward $101 $-1 #
coedge $-1 $248 $103 $249 $250 forward $58 $-1 #
coedge $-1 $103 $111 $251 $252 forward $58 $-1 #
coedge $-1 $253 $254 $103 $173 reversed $255 $-1 #
edge $-1 $256 -36.239333824014444 $257 36.239333824014444 $172 $258 forward 7 unknown #
coedge $-1 $259 $109 $104 $175 forward $101 $-1 #
edge $-1 $114 -5.7160454114792145 $181 5.7160454114792145 $104 $260 forward 7 unknown #
coedge $-1 $111 $248 $105 $177 forward $58 $-1 #
edge $-1 $182 -5.7160454114792145 $113 5.7160454114792145 $105 $261 forward 7 unknown #
coedge $-1 $262 $106 $248 $263 reversed $180 $-1 #
coedge $-1 $106 $262 $259 $264 reversed $180 $-1 #
loop $-1 $-1 $106 $166 #
vertex $-1 $264 $265 #
vertex $-1 $177 $266 #
straight-curve $-1 -71.794183172093881 -28.604753432066378 0 0 0 1 I I #
coedge $-1 $244 $251 $108 $185 forward $167 $-1 #
edge $-1 $189 -16.747378774282161 $187 16.747378774282161 $108 $267 forward 7 unknown #
coedge $-1 $109 $169 $244 $268 forward $101 $-1 #
vertex $-1 $110 $269 #
straight-curve $-1 -83.22627399505231 -32.422043628040413 -16.747378774282161 0 1 0 I I #
vertex $-1 $112 $270 #
straight-curve $-1 -83.22627399505231 -32.422043628040413 16.747378774282161 0 -1 0 I I #
point $-1 -83.22627399505231 -28.604753432066378 16.747378774282161 #
point $-1 -83.22627399505231 -28.604753432066378 -16.747378774282161 #
face $-1 $271 $272 $14 $-1 $273 reversed single #
loop $-1 $-1 $274 $116 #
plane-surface $-1 -83.22627399505231 -32.422043628040413 0 1 0 0 0 0 -1 forward_v I I I I #
coedge $-1 $122 $275 $119 $199 forward $117 $-1 #
coedge $-1 $198 $119 $276 $277 reversed $66 $-1 #
coedge $-1 $119 $197 $120 $201 forward $66 $-1 #
edge $-1 $278 25.936253687818073 $202 34.934630385454838 $196 $279 forward 7 unknown #
coedge $-1 $121 $120 $206 $280 reversed $41 $-1 #
edge $-1 $281 -72.478667648028861 $202 -54.481913770533296 $198 $282 forward 7 unknown #
vertex $-1 $123 $283 #
straight-curve $-1 26.160081048165182 27.24095712637768 16.747378774282161 -1 0 0 I I #
vertex $-1 $280 $284 #
straight-curve $-1 41.585968563630523 9.7103098539719213e-007 63.930100567776705 0 0.49999998660252726 -0.86602541151947299 I I #
coedge $-1 $276 $125 $200 $280 forward $208 $-1 #
coedge $-1 $125 $285 $127 $211 reversed $208 $-1 #
loop $-1 $-1 $276 $286 #
straight-curve $-1 41.585968563630523 36.239333824014444 67.862140908074679 0 0 -1 I I #
coedge $-1 $287 $127 $288 $289 forward $117 $-1 #
edge $-1 $129 -41.585968563630523 $290 71.794183172093881 $207 $291 forward 7 unknown #
point $-1 41.585968563630523 27.240957126377683 16.747378774282161 #
point $-1 41.585968563630523 36.239333824014444 16.747378774282161 #
face $-1 $292 $293 $15 $-1 $294 forward single #
loop $-1 $-1 $295 $131 #
plane-surface $-1 63.054355629030205 124.35117502366504 135.72428181614936 -1 0 0 0 0.86602541151947299 0.49999998660252726 forward_v I I I I #
loop $-1 $-1 $296 $73 #
coedge $-1 $219 $134 $297 $298 forward $74 $-1 #
coedge $-1 $134 $218 $299 $300 reversed $74 $-1 #
coedge $-1 $301 $302 $134 $221 forward $293 $-1 #
edge $-1 $303 -34.934630385454838 $304 -25.936253687818073 $220 $305 forward 7 unknown #
edge $-1 $306 1 $306 0 $135 $-1 forward 7 unknown #
vertex $-1 $136 $307 #
ellipse-curve $-1 52.320162096330364 22.176097757525667 3.4327503558316295 0 0.86602541151947299 0.49999998660252726 3 0 0 1 I I #
point $-1 55.320162096330364 31.740145475196059 8.9545556828957551 #
plane-surface $-1 71.794183172093881 0 0 -1 0 0 0 0 1 forward_v I I I I #
coedge $-1 $144 $142 $146 $231 reversed $82 $-1 #
edge $-1 $157 -16.747378774282161 $233 16.747378774282161 $156 $308 forward 7 unknown #
vertex $-1 $231 $309 #
straight-curve $-1 -71.794183172093881 -36.239333824014444 0 0 0 -1 I I #
edge $-1 $229 -36.239333824014444 $233 36.239333824014444 $227 $310 forward 7 unknown #
straight-curve $-1 0 -36.239333824014444 -16.747378774282161 -1 0 0 I I #
vertex $-1 $149 $311 #
straight-curve $-1 0 36.239333824014444 -16.747378774282161 1 0 0 I I #
point $-1 71.794183172093881 36.239333824014444 -16.747378774282161 #
point $-1 71.794183172093881 -36.239333824014444 -16.747378774282161 #
straight-curve $-1 -71.794183172093881 0 16.747378774282161 0 -1 0 I I #
point $-1 -71.794183172093881 36.239333824014444 16.747378774282161 #
point $-1 -71.794183172093881 -36.239333824014444 16.747378774282161 #
straight-curve $-1 71.794183172093881 -36.239333824014444 0 0 0 -1 I I #
straight-curve $-1 71.794183172093881 36.239333824014444 0 0 0 -1 I I #
face $-1 $312 $313 $13 $-1 $314 reversed single #
plane-surface $-1 -71.794183172093881 0 0 1 0 0 0 0 -1 forward_v I I I I #
coedge $-1 $315 $184 $186 $268 reversed $167 $-1 #
coedge $-1 $169 $259 $316 $317 forward $101 $-1 #
coedge $-1 $254 $253 $169 $247 reversed $255 $-1 #
edge $-1 $318 -36.239333824014444 $319 36.239333824014444 $246 $320 forward 7 unknown #
coedge $-1 $176 $170 $178 $263 forward $58 $-1 #
coedge $-1 $321 $322 $170 $250 reversed $313 $-1 #
edge $-1 $257 -71.794183172093881 $323 71.794183172093881 $249 $324 forward 7 unknown #
coedge $-1 $184 $315 $171 $252 reversed $167 $-1 #
edge $-1 $189 -83.22627399505231 $256 71.794183172093881 $251 $325 forward 7 unknown #
coedge $-1 $246 $172 $315 $326 forward $255 $-1 #
coedge $-1 $172 $246 $321 $327 reversed $255 $-1 #
loop $-1 $-1 $253 $312 #
vertex $-1 $173 $328 #
vertex $-1 $173 $329 #
straight-curve $-1 71.794183172093881 0 16.747378774282161 0 1 0 I I #
coedge $-1 $245 $174 $179 $264 forward $101 $-1 #
straight-curve $-1 -77.510228583573095 -28.604753432066378 -16.747378774282161 1 0 0 I I #
straight-curve $-1 -77.510228583573095 -28.604753432066378 16.747378774282161 -1 0 0 I I #
coedge $-1 $179 $178 $322 $330 forward $180 $-1 #
edge $-1 $323 -36.239333824014444 $182 28.604753432066378 $178 $331 forward 7 unknown #
edge $-1 $181 -28.604753432066378 $332 36.239333824014444 $179 $333 forward 7 unknown #
point $-1 -71.794183172093881 -28.604753432066378 -16.747378774282161 #
point $-1 -71.794183172093881 -28.604753432066378 16.747378774282161 #
straight-curve $-1 -83.22627399505231 -36.239333824014444 0 0 0 -1 I I #
edge $-1 $319 -149.30441175566699 $187 5.7160454114792145 $244 $334 forward 7 unknown #
point $-1 -83.22627399505231 -36.239333824014444 -16.747378774282161 #
point $-1 -83.22627399505231 -36.239333824014444 16.747378774282161 #
face $-1 $335 $336 $14 $-1 $337 reversed single #
loop $-1 $-1 $338 $193 #
plane-surface $-1 -77.510228583573095 -28.604753432066378 0 0 -1 0 0 0 -1 forward_v I I I I #
coedge $-1 $339 $340 $341 $342 forward $194 $-1 #
coedge $-1 $196 $343 $344 $345 forward $117 $-1 #
coedge $-1 $344 $206 $197 $277 forward $208 $-1 #
edge $-1 $281 -66.700408316565273 $278 -51.114762133792517 $276 $346 forward 7 unknown #
vertex $-1 $277 $347 #
straight-curve $-1 63.054355629030205 62.175587511832518 16.747378774282161 0 -1 0 I I #
edge $-1 $204 15.425887515465341 $281 36.894274580865023 $206 $348 forward 7 unknown #
vertex $-1 $280 $349 #
straight-curve $-1 63.054355629030205 9.7103098539719213e-007 63.930100567776705 0 -0.49999998660252726 0.86602541151947299 I I #
point $-1 63.054355629030205 27.240957126377683 16.747378774282161 #
point $-1 41.585968563630523 36.239333824014444 1.1617325915093986 #
coedge $-1 $207 $350 $351 $352 reversed $208 $-1 #
face $-1 $353 $208 $14 $-1 $354 reversed single #
coedge $-1 $355 $210 $356 $357 forward $117 $-1 #
coedge $-1 $351 $358 $210 $289 reversed $359 $-1 #
edge $-1 $290 -36.239333824014444 $360 28.604753432066378 $288 $361 forward 7 unknown #
vertex $-1 $211 $362 #
straight-curve $-1 0 36.239333824014444 16.747378774282161 -1 0 0 I I #
face $-1 $363 $364 $15 $-1 $365 reversed single #
loop $-1 $-1 $366 $214 #
plane-surface $-1 0 0 16.747378774282161 0 0 1 1 0 0 forward_v I I I I #
coedge $-1 $367 $368 $366 $369 reversed $215 $-1 #
coedge $-1 $370 $297 $302 $371 reversed $217 $-1 #
coedge $-1 $296 $372 $218 $298 reversed $217 $-1 #
edge $-1 $303 54.481913770533296 $373 72.478667648028861 $218 $374 forward 7 unknown #
coedge $-1 $375 $376 $219 $300 forward $377 $-1 #
edge $-1 $304 51.114762133792517 $373 66.700408316565273 $299 $378 forward 7 unknown #
coedge $-1 $379 $220 $376 $380 forward $293 $-1 #
coedge $-1 $220 $366 $296 $371 forward $293 $-1 #
vertex $-1 $371 $381 #
vertex $-1 $380 $382 #
straight-curve $-1 41.585968563630523 62.175587511832518 16.747378774282161 0 1 0 I I #
vertex $-1 $222 $383 #
point $-1 55.320162096330364 22.176097757525667 3.4327503558316295 #
straight-curve $-1 -71.794183172093881 36.239333824014444 0 0 0 -1 I I #
point $-1 -71.794183172093881 -36.239333824014444 -16.747378774282161 #
straight-curve $-1 -71.794183172093881 0 -16.747378774282161 0 1 0 I I #
point $-1 -71.794183172093881 36.239333824014444 -16.747378774282161 #
face $-1 $-1 $255 $13 $-1 $384 reversed single #
loop $-1 $-1 $321 $242 #
plane-surface $-1 0 36.239333824014444 0 0 -1 0 0 0 -1 forward_v I I I I #
coedge $-1 $251 $244 $253 $326 reversed $167 $-1 #
coedge $-1 $322 $321 $245 $317 reversed $313 $-1 #
edge $-1 $332 -71.794183172093881 $318 71.794183172093881 $316 $385 forward 7 unknown #
vertex $-1 $247 $386 #
vertex $-1 $326 $387 #
straight-curve $-1 71.794183172093881 0 -16.747378774282161 0 -1 0 I I #
coedge $-1 $316 $249 $254 $327 forward $313 $-1 #
coedge $-1 $249 $316 $262 $330 reversed $313 $-1 #
vertex $-1 $250 $388 #
straight-curve $-1 0 36.239333824014444 16.747378774282161 -1 0 0 I I #
straight-curve $-1 0 -36.239333824014444 16.747378774282161 1 0 0 I I #
edge $-1 $256 -16.747378774282161 $319 16.747378774282161 $253 $389 forward 7 unknown #
edge $-1 $257 -16.747378774282161 $318 16.747378774282161 $254 $390 forward 7 unknown #
point $-1 71.794183172093881 -36.239333824014444 16.747378774282161 #
point $-1 71.794183172093881 36.239333824014444 16.747378774282161 #
edge $-1 $323 -16.747378774282161 $332 16.747378774282161 $322 $391 forward 7 unknown #
straight-curve $-1 -71.794183172093881 0 16.747378774282161 0 -1 0 I I #
vertex $-1 $317 $392 #
straight-curve $-1 -71.794183172093881 0 -16.747378774282161 0 1 0 I I #
straight-curve $-1 -77.510228583573095 -36.239333824014444 -16.747378774282161 -1 0 0 I I #
face $-1 $393 $394 $14 $-1 $395 reversed single #
loop $-1 $-1 $396 $271 #
plane-surface $-1 0 0 -16.747378774282161 0 0 1 1 0 0 forward_v I I I I #
coedge $-1 $397 $356 $358 $398 reversed $272 $-1 #
coedge $-1 $399 $274 $400 $401 reversed $194 $-1 #
coedge $-1 $274 $399 $355 $402 reversed $194 $-1 #
coedge $-1 $356 $397 $274 $342 reversed $272 $-1 #
edge $-1 $403 -16.747378774282161 $404 16.747378774282161 $341 $405 forward 7 unknown #
coedge $-1 $275 $406 $407 $408 forward $117 $-1 #
coedge $-1 $409 $276 $275 $345 reversed $208 $-1 #
edge $-1 $410 -71.794183172093881 $278 -63.054355629030205 $344 $291 forward 7 unknown #
straight-curve $-1 63.054355629030205 36.239333824014444 67.862140908074679 0 0 1 I I #
point $-1 63.054355629030205 36.239333824014444 16.747378774282161 #
straight-curve $-1 26.160081048165182 36.239333824014452 1.1617325915093879 1 0 0 I I #
point $-1 63.054355629030205 36.239333824014444 1.1617325915093986 #
coedge $-1 $285 $409 $411 $412 reversed $208 $-1 #
coedge $-1 $413 $288 $285 $352 forward $359 $-1 #
edge $-1 $290 -16.747378774282161 $414 16.747378774282161 $285 $415 forward 7 unknown #
face $-1 $-1 $416 $14 $-1 $417 reversed single #
plane-surface $-1 0 36.239333824014444 0 0 -1 0 0 0 -1 forward_v I I I I #
coedge $-1 $406 $287 $340 $402 forward $117 $-1 #
coedge $-1 $338 $341 $287 $357 reversed $272 $-1 #
edge $-1 $360 -5.7160454114792145 $403 5.7160454114792145 $356 $418 forward 7 unknown #
coedge $-1 $288 $413 $338 $398 forward $359 $-1 #
loop $-1 $-1 $358 $393 #
vertex $-1 $357 $419 #
straight-curve $-1 -71.794183172093881 0 16.747378774282161 0 -1 0 I I #
point $-1 -71.794183172093881 36.239333824014444 16.747378774282161 #
face $-1 $420 $421 $15 $-1 $422 reversed single #
loop $-1 $-1 $423 $292 #
plane-surface $-1 -83.22627399505231 -32.422043628040413 0 1 0 0 0 0 -1 forward_v I I I I #
coedge $-1 $302 $424 $295 $369 forward $293 $-1 #
coedge $-1 $368 $295 $425 $426 reversed $215 $-1 #
coedge $-1 $295 $367 $370 $427 forward $215 $-1 #
edge $-1 $428 25.936253687818073 $429 34.934630385454838 $366 $430 forward 7 unknown #
coedge $-1 $372 $296 $368 $427 reversed $217 $-1 #
edge $-1 $429 -36.894274580865023 $303 -15.425887515465341 $302 $431 forward 7 unknown #
coedge $-1 $297 $370 $375 $432 reversed $217 $-1 #
vertex $-1 $432 $433 #
straight-curve $-1 41.585968563630523 9.7103098539719213e-007 63.930100567776705 0 0.49999998660252726 -0.86602541151947299 I I #
coedge $-1 $425 $299 $372 $432 forward $377 $-1 #
coedge $-1 $299 $434 $301 $380 reversed $377 $-1 #
loop $-1 $-1 $425 $435 #
straight-curve $-1 41.585968563630523 36.239333824014444 67.862140908074679 0 0 -1 I I #
coedge $-1 $436 $301 $437 $438 forward $293 $-1 #
edge $-1 $304 -41.585968563630523 $439 71.794183172093881 $376 $440 forward 7 unknown #
point $-1 41.585968563630523 27.240957126377683 16.747378774282161 #
point $-1 41.585968563630523 36.239333824014444 16.747378774282161 #
point $-1 52.320162096330364 19.578021522967248 1.9327503960240477 #
plane-surface $-1 71.794183172093881 0 0 -1 0 0 0 0 1 forward_v I I I I #
straight-curve $-1 0 36.239333824014444 -16.747378774282161 1 0 0 I I #
point $-1 71.794183172093881 36.239333824014444 -16.747378774282161 #
point $-1 71.794183172093881 -36.239333824014444 -16.747378774282161 #
point $-1 -71.794183172093881 36.239333824014444 16.747378774282161 #
straight-curve $-1 71.794183172093881 -36.239333824014444 0 0 0 -1 I I #
straight-curve $-1 71.794183172093881 36.239333824014444 0 0 0 -1 I I #
straight-curve $-1 -71.794183172093881 36.239333824014444 0 0 0 -1 I I #
point $-1 -71.794183172093881 36.239333824014444 -16.747378774282161 #
face $-1 $286 $359 $14 $-1 $441 reversed single #
loop $-1 $-1 $442 $335 #
plane-surface $-1 0 -36.239333824014444 0 0 1 0 0 0 1 forward_v I I I I #
coedge $-1 $443 $411 $444 $445 forward $336 $-1 #
coedge $-1 $341 $338 $446 $447 reversed $272 $-1 #
edge $-1 $448 -16.747378774282161 $360 16.747378774282161 $358 $449 forward 7 unknown #
coedge $-1 $340 $339 $450 $451 reversed $194 $-1 #
coedge $-1 $446 $443 $339 $401 forward $336 $-1 #
edge $-1 $452 -3.8172901959740315 $404 3.8172901959740351 $339 $453 forward 7 unknown #
edge $-1 $403 -3.8172901959740351 $454 3.8172901959740315 $340 $455 forward 7 unknown #
vertex $-1 $357 $456 #
vertex $-1 $447 $457 #
straight-curve $-1 -83.22627399505231 -28.604753432066378 0 0 0 -1 I I #
coedge $-1 $343 $355 $458 $459 forward $117 $-1 #
coedge $-1 $460 $461 $343 $408 reversed $416 $-1 #
edge $-1 $462 -36.239333824014444 $410 36.239333824014444 $407 $463 forward 7 unknown #
coedge $-1 $350 $344 $461 $464 forward $208 $-1 #
vertex $-1 $408 $465 #
coedge $-1 $396 $466 $350 $412 forward $336 $-1 #
edge $-1 $414 -71.794183172093881 $467 71.794183172093881 $350 $468 forward 7 unknown #
coedge $-1 $358 $351 $466 $469 reversed $359 $-1 #
vertex $-1 $412 $470 #
straight-curve $-1 -71.794183172093881 36.239333824014444 0 0 0 -1 I I #
loop $-1 $-1 $460 $353 #
plane-surface $-1 71.794183172093881 0 0 -1 0 0 0 0 1 forward_v I I I I #
straight-curve $-1 -77.510228583573095 -28.604753432066378 16.747378774282161 -1 0 0 I I #
point $-1 -71.794183172093881 -28.604753432066378 16.747378774282161 #
face $-1 $471 $472 $15 $-1 $473 reversed single #
loop $-1 $-1 $474 $363 #
plane-surface $-1 -77.510228583573095 -28.604753432066378 0 0 -1 0 0 0 -1 forward_v I I I I #
coedge $-1 $475 $476 $477 $478 forward $364 $-1 #
coedge $-1 $366 $479 $480 $481 forward $293 $-1 #
coedge $-1 $480 $375 $367 $426 forward $377 $-1 #
edge $-1 $482 -66.700408316565273 $428 -51.114762133792517 $425 $483 forward 7 unknown #
edge $-1 $482 -72.478667648028861 $429 -54.481913770533296 $368 $484 forward 7 unknown #
vertex $-1 $426 $485 #
vertex $-1 $371 $486 #
straight-curve $-1 63.054355629030205 62.175587511832518 16.747378774282161 0 -1 0 I I #
straight-curve $-1 26.160081048165182 27.24095712637768 16.747378774282161 -1 0 0 I I #
edge $-1 $373 15.425887515465341 $482 36.894274580865023 $375 $487 forward 7 unknown #
point $-1 41.585968563630523 36.239333824014444 1.1617325915093986 #
coedge $-1 $376 $488 $489 $490 reversed $377 $-1 #
face $-1 $491 $377 $15 $-1 $492 reversed single #
coedge $-1 $493 $379 $494 $495 forward $293 $-1 #
coedge $-1 $489 $496 $379 $438 reversed $497 $-1 #
edge $-1 $439 -36.239333824014444 $498 28.604753432066378 $437 $499 forward 7 unknown #
vertex $-1 $380 $500 #
straight-curve $-1 0 36.239333824014444 16.747378774282161 -1 0 0 I I #
plane-surface $-1 -71.794183172093881 0 0 1 0 0 0 0 -1 forward_v I I I I #
coedge $-1 $501 $450 $443 $502 reversed $394 $-1 #
coedge $-1 $400 $396 $442 $502 forward $336 $-1 #
coedge $-1 $461 $460 $396 $445 reversed $416 $-1 #
edge $-1 $467 -36.239333824014444 $503 36.239333824014444 $444 $504 forward 7 unknown #
coedge $-1 $466 $400 $397 $447 forward $336 $-1 #
edge $-1 $404 -5.7160454114792145 $448 5.7160454114792145 $397 $505 forward 7 unknown #
vertex $-1 $469 $506 #
straight-curve $-1 -71.794183172093881 -28.604753432066378 0 0 0 1 I I #
coedge $-1 $442 $458 $399 $451 forward $394 $-1 #
edge $-1 $454 -16.747378774282161 $452 16.747378774282161 $399 $507 forward 7 unknown #
vertex $-1 $401 $508 #
straight-curve $-1 -83.22627399505231 -32.422043628040413 -16.747378774282161 0 1 0 I I #
vertex $-1 $402 $509 #
straight-curve $-1 -83.22627399505231 -32.422043628040413 16.747378774282161 0 -1 0 I I #
point $-1 -83.22627399505231 -28.604753432066378 16.747378774282161 #
point $-1 -83.22627399505231 -28.604753432066378 -16.747378774282161 #
coedge $-1 $450 $501 $406 $459 reversed $394 $-1 #
edge $-1 $454 -83.22627399505231 $462 71.794183172093881 $458 $510 forward 7 unknown #
coedge $-1 $444 $407 $501 $511 forward $416 $-1 #
coedge $-1 $407 $444 $409 $464 reversed $416 $-1 #
vertex $-1 $408 $512 #
straight-curve $-1 71.794183172093881 0 16.747378774282161 0 1 0 I I #
edge $-1 $410 -16.747378774282161 $467 16.747378774282161 $461 $513 forward 7 unknown #
point $-1 71.794183172093881 36.239333824014444 16.747378774282161 #
coedge $-1 $411 $446 $413 $469 forward $336 $-1 #
vertex $-1 $445 $514 #
straight-curve $-1 0 36.239333824014444 -16.747378774282161 1 0 0 I I #
edge $-1 $448 -28.604753432066378 $414 36.239333824014444 $413 $515 forward 7 unknown #
point $-1 -71.794183172093881 36.239333824014444 -16.747378774282161 #
face $-1 $516 $517 $15 $-1 $518 reversed single #
loop $-1 $-1 $519 $420 #
plane-surface $-1 0 0 -16.747378774282161 0 0 1 1 0 0 forward_v I I I I #
coedge $-1 $520 $494 $496 $521 reversed $421 $-1 #
coedge $-1 $522 $423 $523 $524 reversed $364 $-1 #
coedge $-1 $423 $522 $493 $525 reversed $364 $-1 #
coedge $-1 $494 $520 $423 $478 reversed $421 $-1 #
edge $-1 $526 -16.747378774282161 $527 16.747378774282161 $477 $528 forward 7 unknown #
coedge $-1 $424 $529 $530 $531 forward $293 $-1 #
coedge $-1 $532 $425 $424 $481 reversed $377 $-1 #
edge $-1 $533 -71.794183172093881 $428 -63.054355629030205 $480 $440 forward 7 unknown #
vertex $-1 $432 $534 #
straight-curve $-1 63.054355629030205 36.239333824014444 67.862140908074679 0 0 1 I I #
straight-curve $-1 63.054355629030205 9.7103098539719213e-007 63.930100567776705 0 -0.49999998660252726 0.86602541151947299 I I #
point $-1 63.054355629030205 36.239333824014444 16.747378774282161 #
point $-1 63.054355629030205 27.240957126377683 16.747378774282161 #
straight-curve $-1 26.160081048165182 36.239333824014452 1.1617325915093879 1 0 0 I I #
coedge $-1 $434 $532 $535 $536 reversed $377 $-1 #
coedge $-1 $537 $437 $434 $490 forward $497 $-1 #
edge $-1 $439 -16.747378774282161 $538 16.747378774282161 $434 $539 forward 7 unknown #
face $-1 $-1 $540 $15 $-1 $541 reversed single #
plane-surface $-1 0 36.239333824014444 0 0 -1 0 0 0 -1 forward_v I I I I #
coedge $-1 $529 $436 $476 $525 forward $293 $-1 #
coedge $-1 $474 $477 $436 $495 reversed $421 $-1 #
edge $-1 $498 -5.7160454114792145 $526 5.7160454114792145 $494 $542 forward 7 unknown #
coedge $-1 $437 $537 $474 $521 forward $497 $-1 #
loop $-1 $-1 $496 $516 #
vertex $-1 $495 $543 #
straight-curve $-1 -71.794183172093881 0 16.747378774282161 0 -1 0 I I #
point $-1 -71.794183172093881 36.239333824014444 16.747378774282161 #
coedge $-1 $458 $442 $460 $511 reversed $394 $-1 #
edge $-1 $503 -149.30441175566699 $452 5.7160454114792145 $442 $544 forward 7 unknown #
vertex $-1 $511 $545 #
straight-curve $-1 71.794183172093881 0 -16.747378774282161 0 -1 0 I I #
straight-curve $-1 -77.510228583573095 -28.604753432066378 -16.747378774282161 1 0 0 I I #
point $-1 -71.794183172093881 -28.604753432066378 -16.747378774282161 #
straight-curve $-1 -83.22627399505231 -36.239333824014444 0 0 0 -1 I I #
point $-1 -83.22627399505231 -36.239333824014444 -16.747378774282161 #
point $-1 -83.22627399505231 -36.239333824014444 16.747378774282161 #
straight-curve $-1 0 -36.239333824014444 16.747378774282161 1 0 0 I I #
edge $-1 $462 -16.747378774282161 $503 16.747378774282161 $460 $546 forward 7 unknown #
point $-1 71.794183172093881 -36.239333824014444 16.747378774282161 #
straight-curve $-1 71.794183172093881 36.239333824014444 0 0 0 -1 I I #
point $-1 71.794183172093881 36.239333824014444 -16.747378774282161 #
straight-curve $-1 -71.794183172093881 0 -16.747378774282161 0 1 0 I I #
face $-1 $435 $497 $15 $-1 $547 reversed single #
loop $-1 $-1 $548 $471 #
plane-surface $-1 0 -36.239333824014444 0 0 1 0 0 0 1 forward_v I I I I #
coedge $-1 $549 $535 $550 $551 forward $472 $-1 #
coedge $-1 $477 $474 $552 $553 reversed $421 $-1 #
edge $-1 $554 -16.747378774282161 $498 16.747378774282161 $496 $555 forward 7 unknown #
coedge $-1 $476 $475 $556 $557 reversed $364 $-1 #
coedge $-1 $552 $549 $475 $524 forward $472 $-1 #
edge $-1 $558 -3.8172901959740315 $527 3.8172901959740351 $475 $559 forward 7 unknown #
edge $-1 $526 -3.8172901959740351 $560 3.8172901959740315 $476 $561 forward 7 unknown #
vertex $-1 $495 $562 #
vertex $-1 $553 $563 #
straight-curve $-1 -83.22627399505231 -28.604753432066378 0 0 0 -1 I I #
coedge $-1 $479 $493 $564 $565 forward $293 $-1 #
coedge $-1 $566 $567 $479 $531 reversed $540 $-1 #
edge $-1 $568 -36.239333824014444 $533 36.239333824014444 $530 $569 forward 7 unknown #
coedge $-1 $488 $480 $567 $570 forward $377 $-1 #
vertex $-1 $531 $571 #
point $-1 63.054355629030205 36.239333824014444 1.1617325915093986 #
coedge $-1 $519 $572 $488 $536 forward $472 $-1 #
edge $-1 $538 -71.794183172093881 $573 71.794183172093881 $488 $574 forward 7 unknown #
coedge $-1 $496 $489 $572 $575 reversed $497 $-1 #
vertex $-1 $536 $576 #
straight-curve $-1 -71.794183172093881 36.239333824014444 0 0 0 -1 I I #
loop $-1 $-1 $566 $491 #
plane-surface $-1 71.794183172093881 0 0 -1 0 0 0 0 1 forward_v I I I I #
straight-curve $-1 -77.510228583573095 -28.604753432066378 16.747378774282161 -1 0 0 I I #
point $-1 -71.794183172093881 -28.604753432066378 16.747378774282161 #
straight-curve $-1 -77.510228583573095 -36.239333824014444 -16.747378774282161 -1 0 0 I I #
point $-1 71.794183172093881 -36.239333824014444 -16.747378774282161 #
straight-curve $-1 71.794183172093881 -36.239333824014444 0 0 0 -1 I I #
plane-surface $-1 -71.794183172093881 0 0 1 0 0 0 0 -1 forward_v I I I I #
coedge $-1 $577 $556 $549 $578 reversed $517 $-1 #
coedge $-1 $523 $519 $548 $578 forward $472 $-1 #
coedge $-1 $567 $566 $519 $551 reversed $540 $-1 #
edge $-1 $573 -36.239333824014444 $579 36.239333824014444 $550 $580 forward 7 unknown #
coedge $-1 $572 $523 $520 $553 forward $472 $-1 #
edge $-1 $527 -5.7160454114792145 $554 5.7160454114792145 $520 $581 forward 7 unknown #
vertex $-1 $575 $582 #
straight-curve $-1 -71.794183172093881 -28.604753432066378 0 0 0 1 I I #
coedge $-1 $548 $564 $522 $557 forward $517 $-1 #
edge $-1 $560 -16.747378774282161 $558 16.747378774282161 $522 $583 forward 7 unknown #
vertex $-1 $524 $584 #
straight-curve $-1 -83.22627399505231 -32.422043628040413 -16.747378774282161 0 1 0 I I #
vertex $-1 $525 $585 #
straight-curve $-1 -83.22627399505231 -32.422043628040413 16.747378774282161 0 -1 0 I I #
point $-1 -83.22627399505231 -28.604753432066378 16.747378774282161 #
point $-1 -83.22627399505231 -28.604753432066378 -16.747378774282161 #
coedge $-1 $556 $577 $529 $565 reversed $517 $-1 #
edge $-1 $560 -83.22627399505231 $568 71.794183172093881 $564 $586 forward 7 unknown #
coedge $-1 $550 $530 $577 $587 forward $540 $-1 #
coedge $-1 $530 $550 $532 $570 reversed $540 $-1 #
vertex $-1 $531 $588 #
straight-curve $-1 71.794183172093881 0 16.747378774282161 0 1 0 I I #
edge $-1 $533 -16.747378774282161 $573 16.747378774282161 $567 $589 forward 7 unknown #
point $-1 71.794183172093881 36.239333824014444 16.747378774282161 #
coedge $-1 $535 $552 $537 $575 forward $472 $-1 #
vertex $-1 $551 $590 #
straight-curve $-1 0 36.239333824014444 -16.747378774282161 1 0 0 I I #
edge $-1 $554 -28.604753432066378 $538 36.239333824014444 $537 $591 forward 7 unknown #
point $-1 -71.794183172093881 36.239333824014444 -16.747378774282161 #
coedge $-1 $564 $548 $566 $587 reversed $517 $-1 #
edge $-1 $579 -149.30441175566699 $558 5.7160454114792145 $548 $592 forward 7 unknown #
vertex $-1 $587 $593 #
straight-curve $-1 71.794183172093881 0 -16.747378774282161 0 -1 0 I I #
straight-curve $-1 -77.510228583573095 -28.604753432066378 -16.747378774282161 1 0 0 I I #
point $-1 -71.794183172093881 -28.604753432066378 -16.747378774282161 #
straight-curve $-1 -83.22627399505231 -36.239333824014444 0 0 0 -1 I I #
point $-1 -83.22627399505231 -36.239333824014444 -16.747378774282161 #
point $-1 -83.22627399505231 -36.239333824014444 16.747378774282161 #
straight-curve $-1 0 -36.239333824014444 16.747378774282161 1 0 0 I I #
edge $-1 $568 -16.747378774282161 $579 16.747378774282161 $566 $594 forward 7 unknown #
point $-1 71.794183172093881 -36.239333824014444 16.747378774282161 #
straight-curve $-1 71.794183172093881 36.239333824014444 0 0 0 -1 I I #
point $-1 71.794183172093881 36.239333824014444 -16.747378774282161 #
straight-curve $-1 -71.794183172093881 0 -16.747378774282161 0 1 0 I I #
straight-curve $-1 -77.510228583573095 -36.239333824014444 -16.747378774282161 -1 0 0 I I #
point $-1 71.794183172093881 -36.239333824014444 -16.747378774282161 #
straight-curve $-1 71.794183172093881 -36.239333824014444 0 0 0 -1 I I #
End-of-ACIS-data 