500 0 14 0           
7 Unknown 11 ACIS 5.0 NT 24 Fri Mar 26 20:31:56 1999 
-1 9.9999999999999995e-007 1e-010 
body $-1 $14 $-1 $15 #
body $-1 $16 $-1 $17 #
body $-1 $18 $-1 $19 #
body $-1 $20 $-1 $21 #
body $-1 $22 $-1 $23 #
body $-1 $24 $-1 $25 #
body $-1 $26 $-1 $27 #
body $-1 $28 $-1 $29 #
body $-1 $30 $-1 $31 #
body $-1 $32 $-1 $33 #
body $-1 $34 $-1 $35 #
body $-1 $36 $-1 $37 #
body $-1 $38 $-1 $39 #
body $-1 $40 $-1 $41 #
lump $-1 $-1 $42 $0 #
transform $-1 1 0 0 0 1 0 0 0 1 72.627948850978129 31.572001288742257 10.029677206180144 1 rotate no_reflect no_shear #
lump $-1 $-1 $43 $1 #
transform $-1 1 0 0 0 1 0 0 0 1 72.627948850978129 31.572001288742257 10.029677206180144 1 rotate no_reflect no_shear #
lump $-1 $-1 $44 $2 #
transform $-1 1 0 0 0 1 0 0 0 1 72.627948850978129 31.572001288742257 10.029677206180144 1 rotate no_reflect no_shear #
lump $-1 $-1 $45 $3 #
transform $-1 1 0 0 0 1 0 0 0 1 72.627948850978129 31.572001288742257 10.029677206180144 1 rotate no_reflect no_shear #
lump $-1 $-1 $46 $4 #
transform $-1 1 0 0 0 1 0 0 0 1 72.627948850978129 31.572001288742257 10.029677206180144 1 rotate no_reflect no_shear #
lump $-1 $-1 $47 $5 #
transform $-1 1 0 0 0 1 0 0 0 1 72.627948850978129 31.572001288742257 10.029677206180144 1 rotate no_reflect no_shear #
lump $-1 $-1 $48 $6 #
transform $-1 1 0 0 0 1 0 0 0 1 72.627948850978129 31.572001288742257 10.029677206180144 1 rotate no_reflect no_shear #
lump $-1 $-1 $49 $7 #
transform $-1 1 0 0 0 1 0 0 0 1 72.627948850978129 31.572001288742257 10.029677206180144 1 rotate no_reflect no_shear #
lump $-1 $-1 $50 $8 #
transform $-1 1 0 0 0 1 0 0 0 1 72.627948850978129 31.572001288742257 10.029677206180144 1 rotate no_reflect no_shear #
lump $-1 $-1 $51 $9 #
transform $-1 1 0 0 0 1 0 0 0 1 72.627948850978129 31.572001288742257 10.029677206180144 1 rotate no_reflect no_shear #
lump $-1 $-1 $52 $10 #
transform $-1 1 0 0 0 1 0 0 0 1 72.627948850978129 31.572001288742257 10.029677206180144 1 rotate no_reflect no_shear #
lump $-1 $-1 $53 $11 #
transform $-1 1 0 0 0 1 0 0 0 1 72.627948850978129 31.572001288742257 10.029677206180144 1 rotate no_reflect no_shear #
lump $-1 $-1 $54 $12 #
transform $-1 1 0 0 0 1 0 0 0 1 72.627948850978129 31.572001288742257 10.029677206180144 1 rotate no_reflect no_shear #
lump $-1 $-1 $55 $13 #
transform $-1 1 0 0 0 1 0 0 0 1 72.627948850978129 31.572001288742257 10.029677206180144 1 rotate no_reflect no_shear #
shell $-1 $-1 $-1 $56 $-1 $14 #
shell $-1 $-1 $-1 $57 $-1 $16 #
shell $-1 $-1 $-1 $58 $-1 $18 #
shell $-1 $-1 $-1 $59 $-1 $20 #
shell $-1 $-1 $-1 $60 $-1 $22 #
shell $-1 $-1 $-1 $61 $-1 $24 #
shell $-1 $-1 $-1 $62 $-1 $26 #
shell $-1 $-1 $-1 $63 $-1 $28 #
shell $-1 $-1 $-1 $64 $-1 $30 #
shell $-1 $-1 $-1 $65 $-1 $32 #
shell $-1 $-1 $-1 $66 $-1 $34 #
shell $-1 $-1 $-1 $67 $-1 $36 #
shell $-1 $-1 $-1 $68 $-1 $38 #
shell $-1 $-1 $-1 $69 $-1 $40 #
face $-1 $70 $71 $42 $-1 $72 forward single #
face $-1 $73 $74 $43 $-1 $75 reversed single #
face $-1 $76 $77 $44 $-1 $78 reversed single #
face $-1 $79 $80 $45 $-1 $81 reversed single #
face $-1 $82 $83 $46 $-1 $84 forward single #
face $-1 $85 $86 $47 $-1 $87 forward single #
face $-1 $88 $89 $48 $-1 $90 forward single #
face $-1 $91 $92 $49 $-1 $93 reversed single #
face $-1 $94 $95 $50 $-1 $96 forward single #
face $-1 $97 $98 $51 $-1 $99 forward single #
face $-1 $100 $101 $52 $-1 $102 forward single #
face $-1 $103 $104 $53 $-1 $105 reversed single #
face $-1 $106 $107 $54 $-1 $108 forward single #
face $-1 $109 $110 $55 $-1 $111 forward single #
face $-1 $112 $113 $42 $-1 $114 reversed single #
loop $-1 $-1 $115 $56 #
plane-surface $-1 0 0 10.029677206180144 0 0 1 1 0 0 forward_v I I I I #
face $-1 $116 $117 $43 $-1 $118 reversed single #
loop $-1 $-1 $119 $57 #
plane-surface $-1 0 -27.297966697956308 5.8796369371035837 0 0 1 1 0 0 forward_v I I I I #
face $-1 $120 $121 $44 $-1 $122 reversed single #
loop $-1 $-1 $123 $58 #
plane-surface $-1 0 27.297966697956312 5.8796369371035837 0 0 1 1 0 0 forward_v I I I I #
face $-1 $124 $125 $45 $-1 $126 reversed single #
loop $-1 $-1 $127 $59 #
plane-surface $-1 -165.99664127528627 -12.664832085859462 117.9481663118662 0 1 0 -0.64278761758704617 0 0.76604443648966558 forward_v I I I I #
face $-1 $128 $129 $46 $-1 $130 forward single #
loop $-1 $131 $132 $60 #
cone-surface $-1 -70.307994322252739 -11.409993347693966 7.9696633898305533 0.64278761758704617 0 -0.76604443648966558 0.38302221824483279 0 0.32139380879352308 1 I I 0 1 0.5 forward I I I I #
face $-1 $133 $134 $47 $-1 $135 forward single #
loop $-1 $136 $137 $61 #
cone-surface $-1 -70.307994322252739 -9.5277352404457254 7.9696633898305533 0.64278761758704617 0 -0.76604443648966558 0.38302221824483279 0 0.32139380879352308 1 I I 0 1 0.5 forward I I I I #
face $-1 $138 $139 $48 $-1 $140 forward single #
loop $-1 $141 $142 $62 #
cone-surface $-1 -70.307994322252739 -7.6454771331974847 7.9696633898305533 0.64278761758704617 0 -0.76604443648966558 0.38302221824483279 0 0.32139380879352308 1 I I 0 1 0.5 forward I I I I #
face $-1 $143 $144 $49 $-1 $145 reversed single #
loop $-1 $-1 $146 $63 #
plane-surface $-1 -165.99664127528627 10.359100021310894 117.9481663118662 0 1 0 -0.64278761758704617 0 0.76604443648966558 forward_v I I I I #
face $-1 $147 $148 $50 $-1 $149 forward single #
loop $-1 $150 $151 $64 #
cone-surface $-1 -70.307994322252739 11.613938759476397 7.9696633898305533 0.64278761758704617 0 -0.76604443648966558 0.38302221824483279 0 0.32139380879352308 1 I I 0 1 0.5 forward I I I I #
face $-1 $152 $153 $51 $-1 $154 forward single #
loop $-1 $155 $156 $65 #
cone-surface $-1 -70.307994322252739 13.496196866724631 7.9696633898305533 0.64278761758704617 0 -0.76604443648966558 0.38302221824483279 0 0.32139380879352308 1 I I 0 1 0.5 forward I I I I #
face $-1 $157 $158 $52 $-1 $159 forward single #
loop $-1 $160 $161 $66 #
cone-surface $-1 -70.307994322252739 15.378454973972879 7.9696633898305533 0.64278761758704617 0 -0.76604443648966558 0.38302221824483279 0 0.32139380879352308 1 I I 0 1 0.5 forward I I I I #
face $-1 $162 $163 $53 $-1 $164 reversed single #
loop $-1 $-1 $165 $67 #
plane-surface $-1 86.957525817981292 2.5390425728449042 207.37545688207368 0 -1 0 -0.75470958851134928 0 -0.65605901945558964 forward_v I I I I #
face $-1 $166 $167 $54 $-1 $168 forward single #
loop $-1 $169 $170 $68 #
cone-surface $-1 67.956120256475884 -6.5471560509294626 5.0428732669491048 -0.75470958851134928 0 -0.65605901945558964 0.98408852918338452 0 -1.132064382767024 1 I I 0 1 1.5 forward I I I I #
face $-1 $171 $172 $55 $-1 $173 forward single #
loop $-1 $174 $175 $69 #
cone-surface $-1 67.956120256475884 -1.0954368766648415 5.0428732669491048 -0.75470958851134928 0 -0.65605901945558964 0.98408852918338452 0 -1.132064382767024 1 I I 0 1 1.5 forward I I I I #
face $-1 $176 $177 $42 $-1 $178 reversed single #
loop $-1 $-1 $179 $70 #
plane-surface $-1 0 0 -10.029677206180144 0 0 1 1 0 0 forward_v I I I I #
coedge $-1 $180 $181 $182 $183 forward $71 $-1 #
face $-1 $184 $185 $43 $-1 $186 reversed single #
loop $-1 $-1 $187 $73 #
plane-surface $-1 0 -23.02393210717036 7.9546570716418632 0 -1 0 0 0 -1 forward_v I I I I #
coedge $-1 $188 $189 $190 $191 reversed $74 $-1 #
face $-1 $192 $193 $44 $-1 $194 forward single #
loop $-1 $-1 $195 $76 #
plane-surface $-1 0 23.023932107170364 7.9546570716418632 0 1 0 0 0 1 forward_v I I I I #
coedge $-1 $196 $197 $198 $199 reversed $77 $-1 #
face $-1 $200 $201 $45 $-1 $202 reversed single #
loop $-1 $-1 $203 $79 #
plane-surface $-1 -72.627948850978115 -9.5277352404457254 6.6756940099706128 -0.64278761758704617 0 0.76604443648966558 0.76604443648966558 0 0.64278761758704617 forward_v I I I I #
coedge $-1 $204 $205 $206 $207 reversed $80 $-1 #
face $-1 $-1 $208 $46 $-1 $209 forward single #
loop $-1 $210 $211 $82 #
cone-surface $-1 -69.825903609062451 -11.409993347693966 7.3951300624633038 0.64278761758704617 0 -0.76604443648966558 0.1915111091224164 0 0.16069690439676154 1 I I -0.70710678118654746 0.70710678118654746 0.25 forward I I I I #
loop $-1 $-1 $212 $60 #
coedge $-1 $132 $132 $213 $214 reversed $83 $-1 #
face $-1 $-1 $215 $47 $-1 $216 forward single #
loop $-1 $217 $218 $85 #
cone-surface $-1 -69.825903609062451 -9.5277352404457254 7.3951300624633038 0.64278761758704617 0 -0.76604443648966558 0.1915111091224164 0 0.16069690439676154 1 I I -0.70710678118654746 0.70710678118654746 0.25 forward I I I I #
loop $-1 $-1 $219 $61 #
coedge $-1 $137 $137 $220 $221 reversed $86 $-1 #
face $-1 $-1 $222 $48 $-1 $223 forward single #
loop $-1 $224 $225 $88 #
cone-surface $-1 -69.825903609062451 -7.6454771331974847 7.3951300624633038 0.64278761758704617 0 -0.76604443648966558 0.1915111091224164 0 0.16069690439676154 1 I I -0.70710678118654746 0.70710678118654746 0.25 forward I I I I #
loop $-1 $-1 $226 $62 #
coedge $-1 $142 $142 $227 $228 reversed $89 $-1 #
face $-1 $229 $230 $49 $-1 $231 reversed single #
loop $-1 $-1 $232 $91 #
plane-surface $-1 -72.627948850978115 13.496196866724631 6.6756940099706128 -0.64278761758704617 0 0.76604443648966558 0.76604443648966558 0 0.64278761758704617 forward_v I I I I #
coedge $-1 $233 $234 $235 $236 reversed $92 $-1 #
face $-1 $-1 $237 $50 $-1 $238 forward single #
loop $-1 $239 $240 $94 #
cone-surface $-1 -69.825903609062451 11.613938759476397 7.3951300624633038 0.64278761758704617 0 -0.76604443648966558 0.1915111091224164 0 0.16069690439676154 1 I I -0.70710678118654746 0.70710678118654746 0.25 forward I I I I #
loop $-1 $-1 $241 $64 #
coedge $-1 $151 $151 $242 $243 reversed $95 $-1 #
face $-1 $-1 $244 $51 $-1 $245 forward single #
loop $-1 $246 $247 $97 #
cone-surface $-1 -69.825903609062451 13.496196866724631 7.3951300624633038 0.64278761758704617 0 -0.76604443648966558 0.1915111091224164 0 0.16069690439676154 1 I I -0.70710678118654746 0.70710678118654746 0.25 forward I I I I #
loop $-1 $-1 $248 $65 #
coedge $-1 $156 $156 $249 $250 reversed $98 $-1 #
face $-1 $-1 $251 $52 $-1 $252 forward single #
loop $-1 $253 $254 $100 #
cone-surface $-1 -69.825903609062451 15.378454973972879 7.3951300624633038 0.64278761758704617 0 -0.76604443648966558 0.1915111091224164 0 0.16069690439676154 1 I I -0.70710678118654746 0.70710678118654746 0.25 forward I I I I #
loop $-1 $-1 $255 $66 #
coedge $-1 $161 $161 $256 $257 reversed $101 $-1 #
face $-1 $258 $259 $53 $-1 $260 reversed single #
loop $-1 $-1 $261 $103 #
plane-surface $-1 -22.668492965508761 -3.8212964637971538 112.07901506558682 0.75470958851134928 0 0.65605901945558964 0.65605901945558964 0 -0.75470958851134928 forward_v I I I I #
coedge $-1 $262 $263 $264 $265 reversed $104 $-1 #
face $-1 $-1 $266 $54 $-1 $267 forward single #
loop $-1 $268 $269 $106 #
cone-surface $-1 66.011413508547122 -6.5471560509294626 3.3523655251680768 -0.75470958851134928 0 -0.65605901945558964 0.49204426459169226 0 -0.56603219138351202 1 I I -0.70710678118654724 0.70710678118654768 0.75 forward I I I I #
loop $-1 $-1 $270 $68 #
coedge $-1 $170 $170 $271 $272 reversed $107 $-1 #
face $-1 $-1 $273 $55 $-1 $274 forward single #
loop $-1 $275 $276 $109 #
cone-surface $-1 66.011413508547122 -1.0954368766648415 3.3523655251680768 -0.75470958851134928 0 -0.65605901945558964 0.49204426459169226 0 -0.56603219138351202 1 I I -0.70710678118654724 0.70710678118654768 0.75 forward I I I I #
loop $-1 $-1 $277 $69 #
coedge $-1 $175 $175 $278 $279 reversed $110 $-1 #
face $-1 $280 $281 $42 $-1 $282 reversed single #
loop $-1 $-1 $283 $112 #
plane-surface $-1 0 -31.572001288742257 0 0 1 0 0 0 1 forward_v I I I I #
coedge $-1 $284 $285 $286 $287 forward $113 $-1 #
coedge $-1 $288 $115 $289 $290 forward $71 $-1 #
coedge $-1 $115 $288 $291 $292 forward $71 $-1 #
coedge $-1 $293 $294 $115 $183 reversed $295 $-1 #
edge $-1 $296 -31.572001288742257 $297 31.572001288742257 $182 $298 forward 7 unknown #
face $-1 $299 $300 $43 $-1 $301 reversed single #
loop $-1 $-1 $302 $116 #
plane-surface $-1 -72.627948850978129 0 0 1 0 0 0 0 -1 forward_v I I I I #
coedge $-1 $303 $304 $305 $306 reversed $117 $-1 #
coedge $-1 $307 $119 $308 $309 reversed $74 $-1 #
coedge $-1 $119 $307 $303 $310 forward $74 $-1 #
coedge $-1 $305 $311 $119 $191 forward $312 $-1 #
edge $-1 $313 -17.923017939764101 $314 -9.3749487581922057 $190 $315 forward 7 unknown #
face $-1 $316 $317 $44 $-1 $318 reversed single #
loop $-1 $-1 $319 $120 #
plane-surface $-1 0 0 10.029677206180144 0 0 1 1 0 0 forward_v I I I I #
coedge $-1 $320 $321 $322 $323 reversed $121 $-1 #
coedge $-1 $324 $123 $320 $325 forward $77 $-1 #
coedge $-1 $123 $324 $326 $327 reversed $77 $-1 #
coedge $-1 $328 $329 $123 $199 forward $317 $-1 #
edge $-1 $330 9.3749487581922075 $331 17.923017939764105 $198 $332 forward 7 unknown #
face $-1 $333 $334 $45 $-1 $335 reversed single #
loop $-1 $-1 $336 $124 #
plane-surface $-1 -165.99664127528627 -6.3906383950319885 117.9481663118662 0 -1 0 0.64278761758704617 0 -0.76604443648966558 forward_v I I I I #
coedge $-1 $337 $338 $339 $340 reversed $125 $-1 #
coedge $-1 $205 $127 $341 $342 reversed $80 $-1 #
coedge $-1 $127 $204 $337 $343 reversed $80 $-1 #
coedge $-1 $339 $344 $127 $207 forward $345 $-1 #
edge $-1 $346 10.370371786665004 $347 14.367493226528794 $206 $348 forward 7 unknown #
loop $-1 $-1 $213 $128 #
plane-surface $-1 -72.627948850978115 -9.5277352404457254 6.6756940099706128 -0.64278761758704617 0 0.76604443648966558 0.76604443648966558 0 0.64278761758704617 forward_v I I I I #
loop $-1 $-1 $349 $82 #
coedge $-1 $211 $211 $212 $350 reversed $129 $-1 #
coedge $-1 $212 $212 $211 $350 forward $131 $-1 #
coedge $-1 $213 $213 $132 $214 forward $208 $-1 #
edge $-1 $351 0 $351 6.2831853071796004 $213 $352 forward 7 unknown #
loop $-1 $-1 $220 $133 #
plane-surface $-1 -72.627948850978115 -9.5277352404457254 6.6756940099706128 -0.64278761758704617 0 0.76604443648966558 0.76604443648966558 0 0.64278761758704617 forward_v I I I I #
loop $-1 $-1 $353 $85 #
coedge $-1 $218 $218 $219 $354 reversed $134 $-1 #
coedge $-1 $219 $219 $218 $354 forward $136 $-1 #
coedge $-1 $220 $220 $137 $221 forward $215 $-1 #
edge $-1 $355 0 $355 6.2831853071796004 $220 $356 forward 7 unknown #
loop $-1 $-1 $227 $138 #
plane-surface $-1 -72.627948850978115 -9.5277352404457254 6.6756940099706128 -0.64278761758704617 0 0.76604443648966558 0.76604443648966558 0 0.64278761758704617 forward_v I I I I #
loop $-1 $-1 $357 $88 #
coedge $-1 $225 $225 $226 $358 reversed $139 $-1 #
coedge $-1 $226 $226 $225 $358 forward $141 $-1 #
coedge $-1 $227 $227 $142 $228 forward $222 $-1 #
edge $-1 $359 0 $359 6.2831853071796004 $227 $360 forward 7 unknown #
face $-1 $361 $362 $49 $-1 $363 forward single #
loop $-1 $-1 $364 $143 #
plane-surface $-1 -165.99664127528627 16.633293712138368 117.9481663118662 0 -1 0 0.64278761758704617 0 -0.76604443648966558 forward_v I I I I #
coedge $-1 $365 $366 $367 $368 reversed $144 $-1 #
coedge $-1 $234 $146 $369 $370 reversed $92 $-1 #
coedge $-1 $146 $233 $365 $371 reversed $92 $-1 #
coedge $-1 $367 $372 $146 $236 forward $362 $-1 #
edge $-1 $373 10.370371786665004 $374 14.367493226528794 $235 $375 forward 7 unknown #
loop $-1 $-1 $242 $147 #
plane-surface $-1 -72.627948850978115 13.496196866724631 6.6756940099706128 -0.64278761758704617 0 0.76604443648966558 0.76604443648966558 0 0.64278761758704617 forward_v I I I I #
loop $-1 $-1 $376 $94 #
coedge $-1 $240 $240 $241 $377 reversed $148 $-1 #
coedge $-1 $241 $241 $240 $377 forward $150 $-1 #
coedge $-1 $242 $242 $151 $243 forward $237 $-1 #
edge $-1 $378 0 $378 6.2831853071796004 $242 $379 forward 7 unknown #
loop $-1 $-1 $249 $152 #
plane-surface $-1 -72.627948850978115 13.496196866724631 6.6756940099706128 -0.64278761758704617 0 0.76604443648966558 0.76604443648966558 0 0.64278761758704617 forward_v I I I I #
loop $-1 $-1 $380 $97 #
coedge $-1 $247 $247 $248 $381 reversed $153 $-1 #
coedge $-1 $248 $248 $247 $381 forward $155 $-1 #
coedge $-1 $249 $249 $156 $250 forward $244 $-1 #
edge $-1 $382 0 $382 6.2831853071796004 $249 $383 forward 7 unknown #
loop $-1 $-1 $256 $157 #
plane-surface $-1 -72.627948850978115 13.496196866724631 6.6756940099706128 -0.64278761758704617 0 0.76604443648966558 0.76604443648966558 0 0.64278761758704617 forward_v I I I I #
loop $-1 $-1 $384 $100 #
coedge $-1 $254 $254 $255 $385 reversed $158 $-1 #
coedge $-1 $255 $255 $254 $385 forward $160 $-1 #
coedge $-1 $256 $256 $161 $257 forward $251 $-1 #
edge $-1 $386 0 $386 6.2831853071796004 $256 $387 forward 7 unknown #
face $-1 $388 $389 $53 $-1 $390 forward single #
loop $-1 $-1 $391 $162 #
plane-surface $-1 86.957525817981292 -10.181635500439212 207.37545688207368 0 1 0 0.75470958851134928 0 0.65605901945558964 forward_v I I I I #
coedge $-1 $392 $393 $394 $395 reversed $163 $-1 #
coedge $-1 $263 $165 $396 $397 reversed $104 $-1 #
coedge $-1 $165 $262 $392 $398 reversed $104 $-1 #
coedge $-1 $394 $399 $165 $265 forward $389 $-1 #
edge $-1 $400 -29.149185941987483 $401 -22.562877866073478 $264 $402 forward 7 unknown #
loop $-1 $-1 $271 $166 #
plane-surface $-1 -22.668492965508761 -3.8212964637971538 112.07901506558682 0.75470958851134928 0 0.65605901945558964 0.65605901945558964 0 -0.75470958851134928 forward_v I I I I #
loop $-1 $-1 $403 $106 #
coedge $-1 $269 $269 $270 $404 reversed $167 $-1 #
coedge $-1 $270 $270 $269 $404 forward $169 $-1 #
coedge $-1 $271 $271 $170 $272 forward $266 $-1 #
edge $-1 $405 0 $405 6.2831853071796004 $271 $406 forward 7 unknown #
loop $-1 $-1 $278 $171 #
plane-surface $-1 -22.668492965508761 -3.8212964637971538 112.07901506558682 0.75470958851134928 0 0.65605901945558964 0.65605901945558964 0 -0.75470958851134928 forward_v I I I I #
loop $-1 $-1 $407 $109 #
coedge $-1 $276 $276 $277 $408 reversed $172 $-1 #
coedge $-1 $277 $277 $276 $408 forward $174 $-1 #
coedge $-1 $278 $278 $175 $279 forward $273 $-1 #
edge $-1 $409 0 $409 6.2831853071796004 $278 $410 forward 7 unknown #
face $-1 $411 $412 $42 $-1 $413 reversed single #
loop $-1 $-1 $414 $176 #
plane-surface $-1 -72.627948850978129 0 0 1 0 0 0 0 -1 forward_v I I I I #
coedge $-1 $415 $291 $416 $417 forward $177 $-1 #
coedge $-1 $418 $179 $415 $419 forward $113 $-1 #
coedge $-1 $179 $418 $420 $421 forward $113 $-1 #
coedge $-1 $294 $293 $179 $287 reversed $295 $-1 #
edge $-1 $422 -31.572001288742257 $423 31.572001288742257 $286 $424 forward 7 unknown #
coedge $-1 $181 $180 $425 $426 forward $71 $-1 #
coedge $-1 $427 $428 $180 $290 reversed $412 $-1 #
edge $-1 $297 -72.627948850978129 $429 72.627948850978129 $289 $430 forward 7 unknown #
coedge $-1 $283 $431 $181 $292 reversed $177 $-1 #
edge $-1 $432 -72.627948850978129 $296 72.627948850978129 $291 $433 forward 7 unknown #
coedge $-1 $286 $182 $431 $434 forward $295 $-1 #
coedge $-1 $182 $286 $427 $435 reversed $295 $-1 #
loop $-1 $-1 $293 $411 #
vertex $-1 $183 $436 #
vertex $-1 $183 $437 #
straight-curve $-1 72.627948850978129 0 10.029677206180144 0 1 0 I I #
face $-1 $438 $439 $43 $-1 $440 forward single #
loop $-1 $-1 $308 $184 #
plane-surface $-1 0 -31.572001288742257 0 0 1 0 0 0 1 forward_v I I I I #
coedge $-1 $441 $442 $443 $444 forward $185 $-1 #
coedge $-1 $443 $187 $189 $310 reversed $117 $-1 #
coedge $-1 $187 $443 $445 $446 reversed $117 $-1 #
coedge $-1 $447 $190 $187 $306 forward $312 $-1 #
edge $-1 $314 1.9023084012826521 $448 6.0523486703592111 $305 $449 forward 7 unknown #
coedge $-1 $189 $188 $441 $450 reversed $74 $-1 #
coedge $-1 $451 $452 $188 $309 forward $300 $-1 #
edge $-1 $453 -72.627948850978129 $313 72.627948850978129 $308 $454 forward 7 unknown #
edge $-1 $455 -72.627948850978129 $314 72.627948850978129 $303 $456 forward 7 unknown #
coedge $-1 $190 $447 $451 $457 forward $312 $-1 #
loop $-1 $-1 $305 $438 #
vertex $-1 $309 $458 #
vertex $-1 $191 $459 #
straight-curve $-1 72.627948850978129 -13.648983348978154 5.8796369371035837 0 1 0 I I #
face $-1 $460 $461 $44 $-1 $462 reversed single #
loop $-1 $-1 $329 $192 #
plane-surface $-1 72.627948850978129 0 0 -1 0 0 0 0 1 forward_v I I I I #
coedge $-1 $463 $464 $321 $465 forward $193 $-1 #
coedge $-1 $466 $195 $196 $325 reversed $121 $-1 #
coedge $-1 $195 $466 $319 $465 reversed $121 $-1 #
coedge $-1 $467 $468 $195 $323 forward $461 $-1 #
edge $-1 $469 1.9023084012826521 $470 6.0523486703592111 $322 $471 forward 7 unknown #
coedge $-1 $197 $196 $468 $472 reversed $77 $-1 #
edge $-1 $330 -72.627948850978129 $469 72.627948850978129 $320 $473 forward 7 unknown #
coedge $-1 $474 $475 $197 $327 forward $476 $-1 #
edge $-1 $331 -72.627948850978129 $477 72.627948850978129 $326 $478 forward 7 unknown #
coedge $-1 $479 $198 $475 $480 reversed $317 $-1 #
coedge $-1 $198 $479 $466 $481 forward $317 $-1 #
vertex $-1 $199 $482 #
vertex $-1 $327 $483 #
straight-curve $-1 72.627948850978129 13.648983348978156 5.8796369371035837 0 1 0 I I #
face $-1 $-1 $345 $45 $-1 $484 forward single #
loop $-1 $-1 $485 $200 #
plane-surface $-1 -72.627948850978129 0 0 1 0 0 0 0 -1 forward_v I I I I #
coedge $-1 $486 $487 $488 $489 reversed $201 $-1 #
coedge $-1 $490 $203 $205 $343 forward $125 $-1 #
coedge $-1 $203 $490 $486 $491 forward $125 $-1 #
coedge $-1 $488 $206 $203 $340 forward $345 $-1 #
edge $-1 $347 -7.9009644656365996 $492 -1.6267707748091258 $339 $493 forward 7 unknown #
coedge $-1 $494 $495 $204 $342 forward $334 $-1 #
edge $-1 $496 -52.298389145962503 $346 -48.944405949752955 $341 $497 forward 7 unknown #
edge $-1 $347 -5.2178715090997176 $496 1.8307977367429951e-014 $205 $498 forward 7 unknown #
coedge $-1 $206 $488 $494 $499 forward $345 $-1 #
loop $-1 $-1 $488 $333 #
vertex $-1 $342 $500 #
vertex $-1 $207 $501 #
straight-curve $-1 -82.998320637643133 -12.664832085859462 10.029677206180146 1 0 0 I I #
coedge $-1 $349 $349 $-1 $502 reversed $210 $-1 #
edge $-1 $503 0 $503 6.2831853071796004 $211 $504 forward 7 unknown #
vertex $-1 $214 $505 #
ellipse-curve $-1 -70.629388131046241 -11.409993347693966 8.3526856080753653 -0.64278761758704617 0 0.76604443648966558 0.38302221824483279 0 0.32139380879352308 1 I I #
coedge $-1 $353 $353 $-1 $506 reversed $217 $-1 #
edge $-1 $507 0 $507 6.2831853071796004 $218 $508 forward 7 unknown #
vertex $-1 $221 $509 #
ellipse-curve $-1 -70.629388131046241 -9.5277352404457254 8.3526856080753653 -0.64278761758704617 0 0.76604443648966558 0.38302221824483279 0 0.32139380879352308 1 I I #
coedge $-1 $357 $357 $-1 $510 reversed $224 $-1 #
edge $-1 $511 0 $511 6.2831853071796004 $225 $512 forward 7 unknown #
vertex $-1 $228 $513 #
ellipse-curve $-1 -70.629388131046241 -7.6454771331974847 8.3526856080753653 -0.64278761758704617 0 0.76604443648966558 0.38302221824483279 0 0.32139380879352308 1 I I #
face $-1 $-1 $514 $49 $-1 $515 reversed single #
loop $-1 $-1 $235 $229 #
plane-surface $-1 0 0 10.029677206180144 0 0 1 1 0 0 forward_v I I I I #
coedge $-1 $516 $517 $518 $519 reversed $230 $-1 #
coedge $-1 $520 $232 $234 $371 forward $144 $-1 #
coedge $-1 $232 $520 $516 $521 forward $144 $-1 #
coedge $-1 $518 $235 $232 $368 forward $362 $-1 #
edge $-1 $374 3.6110015879485786 $522 9.8851952787760524 $367 $523 forward 7 unknown #
coedge $-1 $524 $525 $233 $370 forward $514 $-1 #
edge $-1 $526 -52.298389145962503 $373 -48.944405949752955 $369 $527 forward 7 unknown #
edge $-1 $374 -5.2178715090997176 $526 1.8307977367429951e-014 $234 $528 forward 7 unknown #
coedge $-1 $235 $518 $524 $529 forward $362 $-1 #
vertex $-1 $236 $530 #
vertex $-1 $236 $531 #
straight-curve $-1 -82.998320637643133 10.359100021310894 10.029677206180146 1 0 0 I I #
coedge $-1 $376 $376 $-1 $532 reversed $239 $-1 #
edge $-1 $533 0 $533 6.2831853071796004 $240 $534 forward 7 unknown #
vertex $-1 $243 $535 #
ellipse-curve $-1 -70.629388131046241 11.613938759476397 8.3526856080753653 -0.64278761758704617 0 0.76604443648966558 0.38302221824483279 0 0.32139380879352308 1 I I #
coedge $-1 $380 $380 $-1 $536 reversed $246 $-1 #
edge $-1 $537 0 $537 6.2831853071796004 $247 $538 forward 7 unknown #
vertex $-1 $250 $539 #
ellipse-curve $-1 -70.629388131046241 13.496196866724631 8.3526856080753653 -0.64278761758704617 0 0.76604443648966558 0.38302221824483279 0 0.32139380879352308 1 I I #
coedge $-1 $384 $384 $-1 $540 reversed $253 $-1 #
edge $-1 $541 0 $541 6.2831853071796004 $254 $542 forward 7 unknown #
vertex $-1 $257 $543 #
ellipse-curve $-1 -70.629388131046241 15.378454973972879 8.3526856080753653 -0.64278761758704617 0 0.76604443648966558 0.38302221824483279 0 0.32139380879352308 1 I I #
face $-1 $-1 $544 $53 $-1 $545 reversed single #
loop $-1 $-1 $264 $258 #
plane-surface $-1 0 0 10.029677206180144 0 0 1 1 0 0 forward_v I I I I #
coedge $-1 $546 $547 $548 $549 reversed $259 $-1 #
coedge $-1 $550 $261 $263 $398 forward $163 $-1 #
coedge $-1 $261 $550 $546 $551 forward $163 $-1 #
coedge $-1 $548 $264 $261 $395 forward $389 $-1 #
edge $-1 $401 -4.4496908047434811 $552 8.2709872685406349 $394 $553 forward 7 unknown #
coedge $-1 $554 $555 $262 $397 forward $544 $-1 #
edge $-1 $556 -101.23473215894012 $400 -93.6580512348567 $396 $557 forward 7 unknown #
edge $-1 $401 135.21669714134299 $556 145.25589770195634 $263 $558 forward 7 unknown #
coedge $-1 $264 $548 $554 $559 forward $389 $-1 #
vertex $-1 $397 $560 #
vertex $-1 $265 $561 #
straight-curve $-1 43.478762908990646 2.5390425728449042 10.029677206180139 -1 0 0 I I #
coedge $-1 $403 $403 $-1 $562 reversed $268 $-1 #
edge $-1 $563 0 $563 6.2831853071796004 $269 $564 forward 7 unknown #
vertex $-1 $272 $565 #
ellipse-curve $-1 69.334794813021119 -6.5471560509294626 6.241336744138434 0.75470958851134928 0 0.65605901945558964 0.98408852918338452 0 -1.132064382767024 1 I I #
coedge $-1 $407 $407 $-1 $566 reversed $275 $-1 #
edge $-1 $567 0 $567 6.2831853071796004 $276 $568 forward 7 unknown #
vertex $-1 $279 $569 #
ellipse-curve $-1 69.334794813021119 -1.0954368766648415 6.241336744138434 0.75470958851134928 0 0.65605901945558964 0.98408852918338452 0 -1.132064382767024 1 I I #
face $-1 $-1 $295 $42 $-1 $570 reversed single #
loop $-1 $-1 $427 $280 #
plane-surface $-1 0 31.572001288742257 0 0 -1 0 0 0 -1 forward_v I I I I #
coedge $-1 $571 $425 $428 $572 forward $281 $-1 #
coedge $-1 $431 $283 $284 $419 reversed $177 $-1 #
coedge $-1 $425 $571 $283 $417 reversed $281 $-1 #
edge $-1 $432 -10.029677206180144 $573 10.029677206180144 $416 $574 forward 7 unknown #
coedge $-1 $285 $284 $571 $575 forward $113 $-1 #
edge $-1 $423 -72.627948850978129 $573 72.627948850978129 $415 $576 forward 7 unknown #
coedge $-1 $428 $427 $285 $421 reversed $412 $-1 #
edge $-1 $577 -72.627948850978129 $422 72.627948850978129 $420 $578 forward 7 unknown #
vertex $-1 $287 $579 #
vertex $-1 $434 $580 #
straight-curve $-1 72.627948850978129 0 -10.029677206180144 0 -1 0 I I #
coedge $-1 $414 $416 $288 $426 reversed $281 $-1 #
edge $-1 $429 -31.572001288742257 $432 31.572001288742257 $425 $581 forward 7 unknown #
coedge $-1 $420 $289 $294 $435 forward $412 $-1 #
coedge $-1 $289 $420 $414 $572 reversed $412 $-1 #
vertex $-1 $290 $582 #
straight-curve $-1 0 31.572001288742257 10.029677206180144 -1 0 0 I I #
coedge $-1 $291 $415 $293 $434 reversed $177 $-1 #
vertex $-1 $426 $583 #
straight-curve $-1 0 -31.572001288742257 10.029677206180144 1 0 0 I I #
edge $-1 $296 -10.029677206180144 $423 10.029677206180144 $293 $584 forward 7 unknown #
edge $-1 $297 -10.029677206180144 $422 10.029677206180144 $294 $585 forward 7 unknown #
point $-1 72.627948850978129 -31.572001288742257 10.029677206180144 #
point $-1 72.627948850978129 31.572001288742257 10.029677206180144 #
face $-1 $-1 $312 $43 $-1 $586 reversed single #
loop $-1 $-1 $445 $299 #
plane-surface $-1 0 0 10.029677206180144 0 0 1 1 0 0 forward_v I I I I #
coedge $-1 $587 $302 $307 $450 forward $185 $-1 #
coedge $-1 $302 $587 $588 $589 reversed $185 $-1 #
coedge $-1 $304 $303 $302 $444 reversed $117 $-1 #
edge $-1 $590 -6.0523486703592111 $455 -1.9023084012826521 $302 $591 forward 7 unknown #
coedge $-1 $588 $592 $304 $446 forward $439 $-1 #
edge $-1 $448 -72.627948850978129 $590 72.627948850978129 $445 $593 forward 7 unknown #
coedge $-1 $311 $305 $592 $594 reversed $312 $-1 #
vertex $-1 $306 $595 #
straight-curve $-1 72.627948850978129 -23.02393210717036 3.9773285358209316 0 0 1 I I #
edge $-1 $455 9.3749487581922057 $453 17.923017939764101 $441 $596 forward 7 unknown #
coedge $-1 $597 $308 $311 $457 reversed $300 $-1 #
coedge $-1 $308 $597 $587 $598 forward $300 $-1 #
vertex $-1 $309 $599 #
straight-curve $-1 0 -31.572001288742257 5.8796369371035837 1 0 0 I I #
vertex $-1 $450 $600 #
straight-curve $-1 0 -23.02393210717036 5.8796369371035837 1 0 0 I I #
edge $-1 $601 -10.029677206180144 $313 -5.8796369371035837 $311 $602 forward 7 unknown #
point $-1 72.627948850978129 -31.572001288742257 5.8796369371035837 #
point $-1 72.627948850978129 -23.02393210717036 5.8796369371035837 #
face $-1 $-1 $476 $44 $-1 $603 reversed single #
loop $-1 $-1 $322 $316 #
plane-surface $-1 -72.627948850978129 0 0 1 0 0 0 0 -1 forward_v I I I I #
coedge $-1 $604 $319 $479 $605 forward $193 $-1 #
coedge $-1 $319 $604 $467 $606 forward $193 $-1 #
edge $-1 $470 -72.627948850978129 $607 72.627948850978129 $319 $608 forward 7 unknown #
coedge $-1 $321 $320 $329 $481 reversed $121 $-1 #
coedge $-1 $609 $322 $464 $606 reversed $461 $-1 #
coedge $-1 $322 $609 $324 $472 forward $461 $-1 #
vertex $-1 $472 $610 #
vertex $-1 $323 $611 #
straight-curve $-1 -72.627948850978129 23.023932107170364 3.9773285358209316 0 0 1 I I #
edge $-1 $477 -17.923017939764105 $469 -9.3749487581922075 $468 $612 forward 7 unknown #
straight-curve $-1 0 23.023932107170364 5.8796369371035837 -1 0 0 I I #
coedge $-1 $613 $326 $609 $614 reversed $476 $-1 #
coedge $-1 $326 $613 $328 $480 forward $476 $-1 #
loop $-1 $-1 $326 $460 #
vertex $-1 $327 $615 #
straight-curve $-1 0 31.572001288742257 5.8796369371035837 -1 0 0 I I #
coedge $-1 $329 $328 $463 $605 reversed $317 $-1 #
edge $-1 $616 -10.029677206180144 $331 -5.8796369371035837 $328 $617 forward 7 unknown #
edge $-1 $607 -6.0523486703592111 $330 -1.9023084012826521 $329 $618 forward 7 unknown #
point $-1 72.627948850978129 23.023932107170364 5.8796369371035837 #
point $-1 72.627948850978129 31.572001288742261 5.8796369371035837 #
plane-surface $-1 0 0 10.029677206180144 0 0 1 1 0 0 forward_v I I I I #
coedge $-1 $495 $494 $487 $619 forward $334 $-1 #
coedge $-1 $487 $336 $338 $491 reversed $201 $-1 #
coedge $-1 $336 $486 $485 $619 reversed $201 $-1 #
coedge $-1 $344 $339 $336 $489 forward $345 $-1 #
edge $-1 $492 -14.367493226528794 $620 -10.370371786665004 $488 $621 forward 7 unknown #
coedge $-1 $338 $337 $495 $622 reversed $125 $-1 #
edge $-1 $623 -1.8307977367429951e-014 $492 5.2178715090997176 $486 $624 forward 7 unknown #
vertex $-1 $340 $625 #
straight-curve $-1 -68.630827411114339 -4.7638676202228627 10.029677206180146 0 1 0 I I #
coedge $-1 $485 $341 $344 $499 reversed $334 $-1 #
coedge $-1 $341 $485 $490 $622 forward $334 $-1 #
vertex $-1 $342 $626 #
straight-curve $-1 -72.627948850978129 -12.664832085859462 58.974083155933101 0 0 1 I I #
straight-curve $-1 -72.627948850978115 -12.664832085859462 6.6756940099706128 -0.76604443648966558 0 -0.64278761758704617 I I #
edge $-1 $620 6.3906383950319885 $346 12.664832085859462 $494 $627 forward 7 unknown #
point $-1 -72.627948850978129 -12.664832085859462 10.029677206180144 #
point $-1 -68.630827411114339 -12.664832085859462 10.029677206180144 #
edge $-1 $628 1 $628 0 $349 $-1 forward 7 unknown #
vertex $-1 $350 $629 #
ellipse-curve $-1 -69.986600513459209 -11.409993347693966 7.58664117158572 -0.64278761758704617 0 0.76604443648966558 0.38302221824483279 0 0.32139380879352308 1 I I #
point $-1 -70.246365912801423 -11.409993347693966 8.6740794168689099 #
edge $-1 $630 1 $630 0 $353 $-1 forward 7 unknown #
vertex $-1 $354 $631 #
ellipse-curve $-1 -69.986600513459209 -9.5277352404457254 7.58664117158572 -0.64278761758704617 0 0.76604443648966558 0.38302221824483279 0 0.32139380879352308 1 I I #
point $-1 -70.246365912801423 -9.5277352404457254 8.6740794168689099 #
edge $-1 $632 1 $632 0 $357 $-1 forward 7 unknown #
vertex $-1 $358 $633 #
ellipse-curve $-1 -69.986600513459209 -7.6454771331974847 7.58664117158572 -0.64278761758704617 0 0.76604443648966558 0.38302221824483279 0 0.32139380879352308 1 I I #
point $-1 -70.246365912801423 -7.6454771331974847 8.6740794168689099 #
loop $-1 $-1 $369 $361 #
plane-surface $-1 -72.627948850978129 0 0 1 0 0 0 0 -1 forward_v I I I I #
coedge $-1 $517 $364 $366 $521 reversed $230 $-1 #
coedge $-1 $364 $516 $634 $635 reversed $230 $-1 #
coedge $-1 $372 $367 $364 $519 forward $362 $-1 #
edge $-1 $522 -14.367493226528794 $636 -10.370371786665004 $518 $637 forward 7 unknown #
coedge $-1 $366 $365 $525 $638 reversed $144 $-1 #
edge $-1 $639 -1.8307977367429951e-014 $522 5.2178715090997176 $516 $640 forward 7 unknown #
vertex $-1 $368 $641 #
straight-curve $-1 -68.630827411114339 6.7480984333623155 10.029677206180146 0 1 0 I I #
coedge $-1 $634 $369 $372 $529 reversed $514 $-1 #
coedge $-1 $369 $634 $520 $638 forward $514 $-1 #
vertex $-1 $370 $642 #
straight-curve $-1 -72.627948850978129 10.359100021310894 58.974083155933101 0 0 1 I I #
straight-curve $-1 -72.627948850978115 10.359100021310894 6.6756940099706128 -0.76604443648966558 0 -0.64278761758704617 I I #
edge $-1 $636 -16.633293712138368 $373 -10.359100021310894 $524 $643 forward 7 unknown #
point $-1 -72.627948850978129 10.359100021310894 10.029677206180144 #
point $-1 -68.630827411114339 10.359100021310894 10.029677206180144 #
edge $-1 $644 1 $644 0 $376 $-1 forward 7 unknown #
vertex $-1 $377 $645 #
ellipse-curve $-1 -69.986600513459209 11.613938759476397 7.58664117158572 -0.64278761758704617 0 0.76604443648966558 0.38302221824483279 0 0.32139380879352308 1 I I #
point $-1 -70.246365912801423 11.613938759476397 8.6740794168689099 #
edge $-1 $646 1 $646 0 $380 $-1 forward 7 unknown #
vertex $-1 $381 $647 #
ellipse-curve $-1 -69.986600513459209 13.496196866724631 7.58664117158572 -0.64278761758704617 0 0.76604443648966558 0.38302221824483279 0 0.32139380879352308 1 I I #
point $-1 -70.246365912801423 13.496196866724631 8.6740794168689099 #
edge $-1 $648 1 $648 0 $384 $-1 forward 7 unknown #
vertex $-1 $385 $649 #
ellipse-curve $-1 -69.986600513459209 15.378454973972879 7.58664117158572 -0.64278761758704617 0 0.76604443648966558 0.38302221824483279 0 0.32139380879352308 1 I I #
point $-1 -70.246365912801423 15.378454973972879 8.6740794168689099 #
loop $-1 $-1 $396 $388 #
plane-surface $-1 72.627948850978129 0 0 -1 0 0 0 0 1 forward_v I I I I #
coedge $-1 $547 $391 $393 $551 reversed $259 $-1 #
coedge $-1 $391 $546 $650 $651 reversed $259 $-1 #
coedge $-1 $399 $394 $391 $549 forward $389 $-1 #
edge $-1 $552 22.562877866073478 $652 29.149185941987483 $548 $653 forward 7 unknown #
coedge $-1 $393 $392 $555 $654 reversed $163 $-1 #
edge $-1 $655 -145.25589770195634 $552 -135.21669714134299 $546 $656 forward 7 unknown #
vertex $-1 $395 $657 #
straight-curve $-1 66.041640775064124 -1.9106482318985769 10.029677206180139 0 -1 0 I I #
coedge $-1 $650 $396 $399 $559 reversed $544 $-1 #
coedge $-1 $396 $650 $550 $654 forward $544 $-1 #
vertex $-1 $397 $658 #
straight-curve $-1 72.627948850978129 2.5390425728449042 103.68772844103684 0 0 1 I I #
straight-curve $-1 -22.668492965508761 2.5390425728449042 112.07901506558682 0.65605901945558964 0 -0.75470958851134928 I I #
edge $-1 $652 -10.181635500439212 $400 2.5390425728449042 $554 $659 forward 7 unknown #
point $-1 72.627948850978129 2.5390425728449042 10.029677206180144 #
point $-1 66.041640775064124 2.5390425728449042 10.029677206180139 #
edge $-1 $660 1 $660 0 $403 $-1 forward 7 unknown #
vertex $-1 $404 $661 #
ellipse-curve $-1 66.577445699930635 -6.5471560509294626 3.8444097897597693 0.75470958851134928 0 0.65605901945558964 0.98408852918338452 0 -1.132064382767024 1 I I #
point $-1 70.318883342204515 -6.5471560509294626 5.1092723613714153 #
edge $-1 $662 1 $662 0 $407 $-1 forward 7 unknown #
vertex $-1 $408 $663 #
ellipse-curve $-1 66.577445699930635 -1.0954368766648415 3.8444097897597693 0.75470958851134928 0 0.65605901945558964 0.98408852918338452 0 -1.132064382767024 1 I I #
point $-1 70.318883342204515 -1.0954368766648415 5.1092723613714153 #
plane-surface $-1 72.627948850978129 0 0 -1 0 0 0 0 1 forward_v I I I I #
coedge $-1 $416 $414 $418 $575 reversed $281 $-1 #
edge $-1 $429 -10.029677206180144 $577 10.029677206180144 $428 $664 forward 7 unknown #
vertex $-1 $575 $665 #
straight-curve $-1 -72.627948850978129 -31.572001288742257 0 0 0 -1 I I #
edge $-1 $573 -31.572001288742257 $577 31.572001288742257 $571 $666 forward 7 unknown #
straight-curve $-1 0 -31.572001288742257 -10.029677206180144 -1 0 0 I I #
vertex $-1 $421 $667 #
straight-curve $-1 0 31.572001288742257 -10.029677206180144 1 0 0 I I #
point $-1 72.627948850978129 31.572001288742257 -10.029677206180144 #
point $-1 72.627948850978129 -31.572001288742257 -10.029677206180144 #
straight-curve $-1 -72.627948850978129 0 10.029677206180144 0 -1 0 I I #
point $-1 -72.627948850978129 31.572001288742257 10.029677206180144 #
point $-1 -72.627948850978129 -31.572001288742257 10.029677206180144 #
straight-curve $-1 72.627948850978129 -31.572001288742257 0 0 0 -1 I I #
straight-curve $-1 72.627948850978129 31.572001288742257 0 0 0 -1 I I #
plane-surface $-1 72.627948850978129 0 0 -1 0 0 0 0 1 forward_v I I I I #
coedge $-1 $442 $441 $452 $598 reversed $185 $-1 #
coedge $-1 $668 $445 $442 $589 forward $439 $-1 #
edge $-1 $590 23.02393210717036 $669 31.572001288742257 $442 $670 forward 7 unknown #
vertex $-1 $589 $671 #
straight-curve $-1 -72.627948850978129 -23.02393210717036 3.9773285358209316 0 0 -1 I I #
coedge $-1 $445 $668 $447 $594 forward $439 $-1 #
straight-curve $-1 0 -23.02393210717036 10.029677206180144 -1 0 0 I I #
edge $-1 $601 -31.572001288742257 $448 -23.02393210717036 $447 $672 forward 7 unknown #
point $-1 72.627948850978129 -23.02393210717036 10.029677206180143 #
straight-curve $-1 -72.627948850978129 -13.648983348978154 5.8796369371035837 0 -1 0 I I #
coedge $-1 $452 $451 $668 $673 reversed $300 $-1 #
edge $-1 $669 -10.029677206180144 $453 -5.8796369371035837 $587 $674 forward 7 unknown #
point $-1 -72.627948850978129 -31.572001288742257 5.8796369371035837 #
point $-1 -72.627948850978129 -23.02393210717036 5.8796369371035837 #
vertex $-1 $594 $675 #
straight-curve $-1 72.627948850978129 -31.572001288742257 0 0 0 -1 I I #
plane-surface $-1 0 31.572001288742257 0 0 -1 0 0 0 -1 forward_v I I I I #
coedge $-1 $464 $463 $613 $676 forward $193 $-1 #
edge $-1 $607 23.023932107170364 $616 31.572001288742257 $479 $677 forward 7 unknown #
edge $-1 $678 -31.572001288742257 $470 -23.023932107170364 $467 $679 forward 7 unknown #
vertex $-1 $605 $680 #
straight-curve $-1 0 23.023932107170364 10.029677206180144 1 0 0 I I #
coedge $-1 $468 $467 $474 $614 forward $461 $-1 #
point $-1 -72.627948850978129 23.023932107170364 5.8796369371035837 #
point $-1 -72.627948850978129 23.023932107170364 10.029677206180143 #
straight-curve $-1 -72.627948850978129 13.648983348978156 5.8796369371035837 0 -1 0 I I #
coedge $-1 $475 $474 $604 $676 reversed $476 $-1 #
edge $-1 $678 -10.029677206180144 $477 -5.8796369371035837 $474 $681 forward 7 unknown #
point $-1 -72.627948850978129 31.572001288742261 5.8796369371035837 #
vertex $-1 $605 $682 #
straight-curve $-1 72.627948850978129 31.572001288742257 0 0 0 -1 I I #
straight-curve $-1 72.627948850978129 23.023932107170364 3.9773285358209316 0 0 -1 I I #
edge $-1 $620 48.944405949752955 $623 52.298389145962503 $485 $683 forward 7 unknown #
vertex $-1 $499 $684 #
straight-curve $-1 -82.998320637643133 -6.3906383950319885 10.029677206180146 -1 0 0 I I #
edge $-1 $623 1.6267707748091258 $496 7.9009644656365996 $495 $685 forward 7 unknown #
vertex $-1 $622 $686 #
straight-curve $-1 -72.627948850978115 -6.3906383950319885 6.6756940099706128 0.76604443648966558 0 0.64278761758704617 I I #
point $-1 -68.630827411114339 -6.3906383950319885 10.029677206180144 #
point $-1 -72.627948850978129 -12.664832085859462 6.6756940099706013 #
straight-curve $-1 -72.627948850978129 0 10.029677206180144 0 -1 0 I I #
vertex $-1 $502 $687 #
point $-1 -69.603578295214376 -11.409993347693966 7.9080349803792434 #
vertex $-1 $506 $688 #
point $-1 -69.603578295214376 -9.5277352404457254 7.9080349803792434 #
vertex $-1 $510 $689 #
point $-1 -69.603578295214376 -7.6454771331974847 7.9080349803792434 #
coedge $-1 $525 $524 $517 $635 forward $514 $-1 #
edge $-1 $636 48.944405949752955 $639 52.298389145962503 $634 $690 forward 7 unknown #
vertex $-1 $529 $691 #
straight-curve $-1 -82.998320637643133 16.633293712138368 10.029677206180146 -1 0 0 I I #
edge $-1 $639 -9.8851952787760524 $526 -3.6110015879485786 $525 $692 forward 7 unknown #
vertex $-1 $638 $693 #
straight-curve $-1 -72.627948850978115 16.633293712138368 6.6756940099706128 0.76604443648966558 0 0.64278761758704617 I I #
point $-1 -68.630827411114339 16.633293712138368 10.029677206180144 #
point $-1 -72.627948850978129 10.359100021310894 6.6756940099706013 #
straight-curve $-1 -72.627948850978129 0 10.029677206180144 0 -1 0 I I #
vertex $-1 $532 $694 #
point $-1 -69.603578295214376 11.613938759476397 7.9080349803792434 #
vertex $-1 $536 $695 #
point $-1 -69.603578295214376 13.496196866724631 7.9080349803792434 #
vertex $-1 $540 $696 #
point $-1 -69.603578295214376 15.378454973972879 7.9080349803792434 #
coedge $-1 $555 $554 $547 $651 forward $544 $-1 #
edge $-1 $652 93.6580512348567 $655 101.23473215894012 $650 $697 forward 7 unknown #
vertex $-1 $559 $698 #
straight-curve $-1 43.478762908990646 -10.181635500439212 10.029677206180139 1 0 0 I I #
edge $-1 $655 -8.2709872685406349 $556 4.4496908047434811 $555 $699 forward 7 unknown #
vertex $-1 $654 $700 #
straight-curve $-1 -22.668492965508761 -10.181635500439212 112.07901506558682 -0.65605901945558964 0 0.75470958851134928 I I #
point $-1 66.041640775064124 -10.181635500439212 10.029677206180139 #
point $-1 72.627948850978129 2.5390425728449042 2.4529962820967199 #
straight-curve $-1 72.627948850978129 0 10.029677206180144 0 1 0 I I #
vertex $-1 $562 $701 #
point $-1 67.561534229114017 -6.5471560509294626 2.7123454069927453 #
vertex $-1 $566 $702 #
point $-1 67.561534229114017 -1.0954368766648415 2.7123454069927453 #
straight-curve $-1 -72.627948850978129 31.572001288742257 0 0 0 -1 I I #
point $-1 -72.627948850978129 -31.572001288742257 -10.029677206180144 #
straight-curve $-1 -72.627948850978129 0 -10.029677206180144 0 1 0 I I #
point $-1 -72.627948850978129 31.572001288742257 -10.029677206180144 #
coedge $-1 $592 $588 $597 $673 forward $439 $-1 #
vertex $-1 $589 $703 #
straight-curve $-1 -72.627948850978129 0 10.029677206180144 0 -1 0 I I #
point $-1 -72.627948850978129 -23.02393210717036 10.029677206180143 #
straight-curve $-1 72.627948850978129 0 10.029677206180144 0 1 0 I I #
edge $-1 $669 -72.627948850978129 $601 72.627948850978129 $597 $704 forward 7 unknown #
straight-curve $-1 -72.627948850978129 -31.572001288742257 0 0 0 -1 I I #
point $-1 72.627948850978129 -31.572001288742257 10.029677206180144 #
edge $-1 $616 -72.627948850978129 $678 72.627948850978129 $613 $705 forward 7 unknown #
straight-curve $-1 72.627948850978129 0 10.029677206180144 0 1 0 I I #
vertex $-1 $676 $706 #
straight-curve $-1 -72.627948850978129 0 10.029677206180144 0 -1 0 I I #
point $-1 72.627948850978129 23.023932107170364 10.029677206180143 #
straight-curve $-1 -72.627948850978129 31.572001288742257 0 0 0 -1 I I #
point $-1 72.627948850978129 31.572001288742257 10.029677206180144 #
straight-curve $-1 -72.627948850978129 -6.3906383950319885 58.974083155933101 0 0 -1 I I #
point $-1 -72.627948850978129 -6.3906383950319885 10.029677206180144 #
straight-curve $-1 -72.627948850978129 -4.7638676202228627 6.6756940099706039 0 -1 0 I I #
point $-1 -72.627948850978129 -6.3906383950319885 6.6756940099706013 #
point $-1 -69.665206704665692 -11.409993347693966 7.2036189533408876 #
point $-1 -69.665206704665692 -9.5277352404457254 7.2036189533408876 #
point $-1 -69.665206704665692 -7.6454771331974847 7.2036189533408876 #
straight-curve $-1 -72.627948850978129 16.633293712138368 58.974083155933101 0 0 -1 I I #
point $-1 -72.627948850978129 16.633293712138368 10.029677206180144 #
straight-curve $-1 -72.627948850978129 6.7480984333623155 6.6756940099706039 0 -1 0 I I #
point $-1 -72.627948850978129 16.633293712138368 6.6756940099706013 #
point $-1 -69.665206704665692 11.613938759476397 7.2036189533408876 #
point $-1 -69.665206704665692 13.496196866724631 7.2036189533408876 #
point $-1 -69.665206704665692 15.378454973972879 7.2036189533408876 #
straight-curve $-1 72.627948850978129 -10.181635500439212 103.68772844103684 0 0 -1 I I #
point $-1 72.627948850978129 -10.181635500439212 10.029677206180144 #
straight-curve $-1 72.627948850978129 -1.9106482318985769 2.452996282096727 0 1 0 I I #
point $-1 72.627948850978129 -10.181635500439212 2.4529962820967199 #
point $-1 65.445381317163609 -6.5471560509294626 2.8603212605763844 #
point $-1 65.445381317163609 -1.0954368766648415 2.8603212605763844 #
point $-1 -72.627948850978129 -31.572001288742257 10.029677206180144 #
straight-curve $-1 0 -31.572001288742257 10.029677206180144 1 0 0 I I #
straight-curve $-1 0 31.572001288742257 10.029677206180144 -1 0 0 I I #
point $-1 -72.627948850978129 31.572001288742257 10.029677206180144 #
End-of-ACIS-data 