500 0 8 0           
7 Unknown 11 ACIS 5.0 NT 24 Fri Mar 26 17:50:41 1999 
-1 9.9999999999999995e-007 1e-010 
body $-1 $8 $-1 $9 #
body $-1 $10 $-1 $11 #
body $-1 $12 $-1 $13 #
body $-1 $14 $-1 $15 #
body $-1 $16 $-1 $17 #
body $-1 $18 $-1 $19 #
body $-1 $20 $-1 $21 #
body $-1 $22 $-1 $23 #
lump $-1 $-1 $24 $0 #
transform $-1 1 0 0 0 1 0 0 0 1 75.640736106448557 31.977930875215591 9.5921105681423082 1 rotate no_reflect no_shear #
lump $-1 $-1 $25 $1 #
transform $-1 1 0 0 0 1 0 0 0 1 75.640736106448557 31.977930875215591 9.5921105681423082 1 rotate no_reflect no_shear #
lump $-1 $-1 $26 $2 #
transform $-1 1 0 0 0 1 0 0 0 1 75.640736106448557 31.977930875215591 9.5921105681423082 1 rotate no_reflect no_shear #
lump $-1 $-1 $27 $3 #
transform $-1 1 0 0 0 1 0 0 0 1 75.640736106448557 31.977930875215591 9.5921105681423082 1 rotate no_reflect no_shear #
lump $-1 $-1 $28 $4 #
transform $-1 1 0 0 0 1 0 0 0 1 75.640736106448557 31.977930875215591 9.5921105681423082 1 rotate no_reflect no_shear #
lump $-1 $-1 $29 $5 #
transform $-1 1 0 0 0 1 0 0 0 1 75.640736106448557 31.977930875215591 9.5921105681423082 1 rotate no_reflect no_shear #
lump $-1 $-1 $30 $6 #
transform $-1 1 0 0 0 1 0 0 0 1 75.640736106448557 31.977930875215591 9.5921105681423082 1 rotate no_reflect no_shear #
lump $-1 $-1 $31 $7 #
transform $-1 1 0 0 0 1 0 0 0 1 75.640736106448557 31.977930875215591 9.5921105681423082 1 rotate no_reflect no_shear #
shell $-1 $-1 $-1 $32 $-1 $8 #
shell $-1 $-1 $-1 $33 $-1 $10 #
shell $-1 $-1 $-1 $34 $-1 $12 #
shell $-1 $-1 $-1 $35 $-1 $14 #
shell $-1 $-1 $-1 $36 $-1 $16 #
shell $-1 $-1 $-1 $37 $-1 $18 #
shell $-1 $-1 $-1 $38 $-1 $20 #
shell $-1 $-1 $-1 $39 $-1 $22 #
face $-1 $40 $41 $24 $-1 $42 forward single #
face $-1 $43 $44 $25 $-1 $45 forward single #
face $-1 $46 $47 $26 $-1 $48 reversed single #
face $-1 $49 $50 $27 $-1 $51 forward single #
face $-1 $52 $53 $28 $-1 $54 forward single #
face $-1 $55 $56 $29 $-1 $57 reversed single #
face $-1 $58 $59 $30 $-1 $60 forward single #
face $-1 $61 $62 $31 $-1 $63 forward single #
face $-1 $64 $65 $24 $-1 $66 reversed single #
loop $-1 $-1 $67 $32 #
plane-surface $-1 0 0 9.5921105681423082 0 0 1 1 0 0 forward_v I I I I #
face $-1 $68 $69 $25 $-1 $70 reversed single #
loop $-1 $-1 $71 $33 #
plane-surface $-1 -75.640736106448557 0 0 1 0 0 0 0 -1 forward_v I I I I #
face $-1 $72 $73 $26 $-1 $74 reversed single #
loop $-1 $-1 $75 $34 #
plane-surface $-1 65.34808597370828 -137.06687307782846 109.00364489292605 -1 0 0 0 -0.69465837861970381 0.71933979245794832 forward_v I I I I #
face $-1 $76 $77 $27 $-1 $78 forward single #
loop $-1 $79 $80 $35 #
cone-surface $-1 50.258633029804031 -23.821270485510272 1.4859664454037249 0 0.69465837861970381 -0.71933979245794832 2.5 0 0 1 I I 0 1 2.5 forward I I I I #
face $-1 $81 $82 $28 $-1 $83 forward single #
loop $-1 $84 $85 $36 #
cone-surface $-1 59.312304796146591 -23.821270485510272 1.4859664454037249 0 0.69465837861970381 -0.71933979245794832 2.5 0 0 1 I I 0 1 2.5 forward I I I I #
face $-1 $86 $87 $29 $-1 $88 reversed single #
loop $-1 $-1 $89 $37 #
plane-surface $-1 44.222851852242329 91.06087675980406 153.43112011970649 1 0 0 0 -0.69465837861970381 -0.71933979245794832 forward_v I I I I #
face $-1 $90 $91 $30 $-1 $92 forward single #
loop $-1 $93 $94 $38 #
cone-surface $-1 50.258633029804031 23.821270485510272 1.4859664454037267 0 -0.69465837861970381 -0.71933979245794832 2.5 0 0 1 I I 0 1 2.5 forward I I I I #
face $-1 $95 $96 $31 $-1 $97 forward single #
loop $-1 $98 $99 $39 #
cone-surface $-1 59.312304796146591 23.821270485510272 1.4859664454037267 0 -0.69465837861970381 -0.71933979245794832 2.5 0 0 1 I I 0 1 2.5 forward I I I I #
face $-1 $100 $101 $24 $-1 $102 reversed single #
loop $-1 $-1 $103 $40 #
plane-surface $-1 0 0 -9.5921105681423082 0 0 1 1 0 0 forward_v I I I I #
coedge $-1 $104 $105 $106 $107 forward $41 $-1 #
face $-1 $108 $109 $25 $-1 $110 forward single #
loop $-1 $-1 $111 $43 #
plane-surface $-1 0 31.977930875215591 0 0 -1 0 0 0 -1 forward_v I I I I #
coedge $-1 $112 $113 $114 $115 forward $44 $-1 #
face $-1 $116 $117 $26 $-1 $118 reversed single #
loop $-1 $-1 $119 $46 #
plane-surface $-1 54.785468912975304 -31.977930875215577 0.18086206856776244 0 -0.69465837861970381 0.71933979245794832 1 0 0 forward_v I I I I #
coedge $-1 $120 $121 $122 $123 reversed $47 $-1 #
face $-1 $-1 $124 $27 $-1 $125 forward single #
loop $-1 $126 $127 $49 #
cone-surface $-1 50.258633029804031 -19.669103567864205 -2.8137281681200221 0 0.69465837861970381 -0.71933979245794832 1.25 0 0 1 I I -0.70710678118654746 0.70710678118654746 1.25 forward I I I I #
loop $-1 $-1 $128 $35 #
coedge $-1 $80 $80 $129 $130 reversed $50 $-1 #
face $-1 $-1 $131 $28 $-1 $132 forward single #
loop $-1 $133 $134 $52 #
cone-surface $-1 59.312304796146591 -19.669103567864205 -2.8137281681200221 0 0.69465837861970381 -0.71933979245794832 1.25 0 0 1 I I -0.70710678118654746 0.70710678118654746 1.25 forward I I I I #
loop $-1 $-1 $135 $36 #
coedge $-1 $85 $85 $136 $137 reversed $53 $-1 #
face $-1 $138 $139 $29 $-1 $140 reversed single #
loop $-1 $-1 $141 $55 #
plane-surface $-1 54.785468912975304 -14.028065442808824 44.608337295348207 0 0.69465837861970381 0.71933979245794832 1 0 0 forward_v I I I I #
coedge $-1 $142 $143 $144 $145 reversed $56 $-1 #
face $-1 $-1 $146 $30 $-1 $147 forward single #
loop $-1 $148 $149 $58 #
cone-surface $-1 50.258633029804031 19.669103567864205 -2.8137281681200204 0 -0.69465837861970381 -0.71933979245794832 1.25 0 0 1 I I -0.70710678118654746 0.70710678118654746 1.25 forward I I I I #
loop $-1 $-1 $150 $38 #
coedge $-1 $94 $94 $151 $152 reversed $59 $-1 #
face $-1 $-1 $153 $31 $-1 $154 forward single #
loop $-1 $155 $156 $61 #
cone-surface $-1 59.312304796146591 19.669103567864205 -2.8137281681200204 0 -0.69465837861970381 -0.71933979245794832 1.25 0 0 1 I I -0.70710678118654746 0.70710678118654746 1.25 forward I I I I #
loop $-1 $-1 $157 $39 #
coedge $-1 $99 $99 $158 $159 reversed $62 $-1 #
face $-1 $160 $161 $24 $-1 $162 reversed single #
loop $-1 $-1 $163 $64 #
plane-surface $-1 0 -31.977930875215591 0 0 1 0 0 0 1 forward_v I I I I #
coedge $-1 $164 $165 $166 $167 forward $65 $-1 #
coedge $-1 $168 $67 $169 $170 forward $41 $-1 #
coedge $-1 $67 $168 $171 $172 forward $41 $-1 #
coedge $-1 $173 $174 $67 $107 reversed $175 $-1 #
edge $-1 $176 -31.977930875215591 $177 31.977930875215591 $106 $178 forward 7 unknown #
face $-1 $179 $180 $25 $-1 $181 reversed single #
loop $-1 $-1 $114 $68 #
plane-surface $-1 -81.705580519453065 0 0.52821573272988198 0 0 1 1 0 0 forward_v I I I I #
coedge $-1 $182 $183 $113 $184 forward $69 $-1 #
coedge $-1 $185 $71 $186 $187 reversed $44 $-1 #
coedge $-1 $71 $185 $111 $184 reversed $44 $-1 #
coedge $-1 $188 $189 $71 $115 reversed $109 $-1 #
edge $-1 $190 -31.977930875215591 $191 31.977930875215591 $114 $192 forward 7 unknown #
face $-1 $193 $194 $26 $-1 $195 reversed single #
loop $-1 $-1 $196 $72 #
plane-surface $-1 44.222851852242329 -137.06687307782846 109.00364489292605 1 0 0 0 0.69465837861970381 -0.71933979245794832 forward_v I I I I #
coedge $-1 $197 $198 $199 $200 reversed $73 $-1 #
coedge $-1 $121 $75 $201 $202 reversed $47 $-1 #
coedge $-1 $75 $120 $197 $203 reversed $47 $-1 #
coedge $-1 $199 $204 $75 $123 forward $205 $-1 #
edge $-1 $206 36.555505663698639 $207 46.301138554366425 $122 $208 forward 7 unknown #
loop $-1 $-1 $129 $76 #
plane-surface $-1 54.785468912975304 -31.977930875215577 0.18086206856776244 0 -0.69465837861970381 0.71933979245794832 1 0 0 forward_v I I I I #
loop $-1 $-1 $209 $49 #
coedge $-1 $127 $127 $128 $210 reversed $77 $-1 #
coedge $-1 $128 $128 $127 $210 forward $79 $-1 #
coedge $-1 $129 $129 $80 $130 forward $124 $-1 #
edge $-1 $211 4.2343566751890601e-016 $211 6.2831853071796004 $129 $212 forward 7 unknown #
loop $-1 $-1 $136 $81 #
plane-surface $-1 54.785468912975304 -31.977930875215577 0.18086206856776244 0 -0.69465837861970381 0.71933979245794832 1 0 0 forward_v I I I I #
loop $-1 $-1 $213 $52 #
coedge $-1 $134 $134 $135 $214 reversed $82 $-1 #
coedge $-1 $135 $135 $134 $214 forward $84 $-1 #
coedge $-1 $136 $136 $85 $137 forward $131 $-1 #
edge $-1 $215 4.2343566751890601e-016 $215 6.2831853071796004 $136 $216 forward 7 unknown #
face $-1 $217 $218 $29 $-1 $219 forward single #
loop $-1 $-1 $220 $86 #
plane-surface $-1 65.34808597370828 91.06087675980406 153.43112011970649 -1 0 0 0 0.69465837861970381 0.71933979245794832 forward_v I I I I #
coedge $-1 $221 $222 $223 $224 reversed $87 $-1 #
coedge $-1 $143 $89 $225 $226 reversed $56 $-1 #
coedge $-1 $89 $142 $221 $227 reversed $56 $-1 #
coedge $-1 $223 $228 $89 $145 forward $218 $-1 #
edge $-1 $229 13.552507504686439 $230 23.298140395354238 $144 $231 forward 7 unknown #
loop $-1 $-1 $151 $90 #
plane-surface $-1 54.785468912975304 -14.028065442808824 44.608337295348207 0 0.69465837861970381 0.71933979245794832 1 0 0 forward_v I I I I #
loop $-1 $-1 $232 $58 #
coedge $-1 $149 $149 $150 $233 reversed $91 $-1 #
coedge $-1 $150 $150 $149 $233 forward $93 $-1 #
coedge $-1 $151 $151 $94 $152 forward $146 $-1 #
edge $-1 $234 -3.8836126889679935e-016 $234 6.2831853071796004 $151 $235 forward 7 unknown #
loop $-1 $-1 $158 $95 #
plane-surface $-1 54.785468912975304 -14.028065442808824 44.608337295348207 0 0.69465837861970381 0.71933979245794832 1 0 0 forward_v I I I I #
loop $-1 $-1 $236 $61 #
coedge $-1 $156 $156 $157 $237 reversed $96 $-1 #
coedge $-1 $157 $157 $156 $237 forward $98 $-1 #
coedge $-1 $158 $158 $99 $159 forward $153 $-1 #
edge $-1 $238 -3.8836126889679935e-016 $238 6.2831853071796004 $158 $239 forward 7 unknown #
face $-1 $240 $241 $24 $-1 $242 reversed single #
loop $-1 $-1 $243 $100 #
plane-surface $-1 -75.640736106448557 0 0 1 0 0 0 0 -1 forward_v I I I I #
coedge $-1 $244 $171 $243 $245 forward $101 $-1 #
coedge $-1 $246 $103 $244 $247 forward $65 $-1 #
coedge $-1 $103 $246 $248 $249 forward $65 $-1 #
coedge $-1 $174 $173 $103 $167 reversed $175 $-1 #
edge $-1 $250 -31.977930875215591 $251 31.977930875215591 $166 $252 forward 7 unknown #
coedge $-1 $105 $104 $253 $254 forward $41 $-1 #
coedge $-1 $255 $256 $104 $170 reversed $241 $-1 #
edge $-1 $177 -75.640736106448557 $257 75.640736106448557 $169 $258 forward 7 unknown #
coedge $-1 $163 $259 $105 $172 reversed $101 $-1 #
edge $-1 $260 -75.640736106448557 $176 75.640736106448557 $171 $261 forward 7 unknown #
coedge $-1 $166 $106 $259 $262 forward $175 $-1 #
coedge $-1 $106 $166 $255 $263 reversed $175 $-1 #
loop $-1 $-1 $173 $240 #
vertex $-1 $107 $264 #
vertex $-1 $107 $265 #
straight-curve $-1 75.640736106448557 0 9.5921105681423082 0 1 0 I I #
face $-1 $266 $267 $25 $-1 $268 reversed single #
loop $-1 $-1 $269 $108 #
plane-surface $-1 -81.705580519453065 0 -2.4717842672701189 0 0 1 1 0 0 forward_v I I I I #
coedge $-1 $270 $111 $271 $272 reversed $69 $-1 #
coedge $-1 $111 $270 $188 $273 reversed $69 $-1 #
edge $-1 $190 -0.52821573272988198 $274 2.4717842672701189 $111 $275 forward 7 unknown #
coedge $-1 $113 $112 $269 $276 forward $44 $-1 #
coedge $-1 $277 $278 $112 $187 forward $279 $-1 #
edge $-1 $280 -2.4717842672701189 $191 0.52821573272988198 $186 $281 forward 7 unknown #
coedge $-1 $282 $114 $183 $273 forward $109 $-1 #
coedge $-1 $114 $282 $277 $283 forward $109 $-1 #
vertex $-1 $184 $284 #
vertex $-1 $283 $285 #
straight-curve $-1 -75.640736106448557 0 0.52821573272988198 0 -1 0 I I #
face $-1 $-1 $205 $26 $-1 $286 forward single #
loop $-1 $-1 $287 $116 #
plane-surface $-1 0 -31.977930875215591 0 0 1 0 0 0 1 forward_v I I I I #
coedge $-1 $288 $289 $290 $291 reversed $117 $-1 #
coedge $-1 $292 $119 $121 $203 forward $73 $-1 #
coedge $-1 $119 $292 $288 $293 forward $73 $-1 #
coedge $-1 $290 $122 $119 $200 forward $205 $-1 #
edge $-1 $207 -37.955351517220627 $294 -16.830117395754677 $199 $295 forward 7 unknown #
coedge $-1 $296 $297 $120 $202 forward $194 $-1 #
edge $-1 $298 -54.320960377895275 $206 -44.909711878320714 $201 $299 forward 7 unknown #
edge $-1 $207 -13.548024164445884 $298 1.9747070999959293e-014 $121 $300 forward 7 unknown #
coedge $-1 $122 $290 $296 $301 forward $205 $-1 #
loop $-1 $-1 $290 $193 #
vertex $-1 $202 $302 #
vertex $-1 $123 $303 #
straight-curve $-1 65.34808597370828 -68.533436538914231 9.59211056814231 0 1 0 I I #
coedge $-1 $209 $209 $-1 $304 reversed $126 $-1 #
edge $-1 $305 0 $305 6.2831853071796004 $127 $306 forward 7 unknown #
vertex $-1 $130 $307 #
ellipse-curve $-1 50.258633029804031 -27.105114429881699 4.8864863183550273 0 -0.69465837861970381 0.71933979245794832 2.5 0 0 1 I I #
coedge $-1 $213 $213 $-1 $308 reversed $133 $-1 #
edge $-1 $309 0 $309 6.2831853071796004 $134 $310 forward 7 unknown #
vertex $-1 $137 $311 #
ellipse-curve $-1 59.312304796146591 -27.105114429881699 4.8864863183550273 0 -0.69465837861970381 0.71933979245794832 2.5 0 0 1 I I #
face $-1 $-1 $312 $29 $-1 $313 reversed single #
loop $-1 $-1 $144 $138 #
plane-surface $-1 0 0 9.5921105681423082 0 0 1 1 0 0 forward_v I I I I #
coedge $-1 $314 $315 $316 $317 reversed $139 $-1 #
coedge $-1 $318 $141 $143 $227 forward $87 $-1 #
coedge $-1 $141 $318 $314 $319 forward $87 $-1 #
coedge $-1 $316 $144 $141 $224 forward $218 $-1 #
edge $-1 $230 16.830117395754677 $320 37.955351517220627 $223 $321 forward 7 unknown #
coedge $-1 $322 $323 $142 $226 forward $312 $-1 #
edge $-1 $324 -76.534697991285512 $229 -67.123449491710943 $225 $325 forward 7 unknown #
edge $-1 $230 50.407837585985277 $324 63.955861750431197 $143 $326 forward 7 unknown #
coedge $-1 $144 $316 $322 $327 forward $218 $-1 #
vertex $-1 $145 $328 #
vertex $-1 $145 $329 #
straight-curve $-1 44.222851852242329 45.53043837990203 9.5921105681423029 0 -1 0 I I #
coedge $-1 $232 $232 $-1 $330 reversed $148 $-1 #
edge $-1 $331 0 $331 6.2831853071796004 $149 $332 forward 7 unknown #
vertex $-1 $152 $333 #
ellipse-curve $-1 50.258633029804031 27.105114429881695 4.8864863183550256 0 0.69465837861970381 0.71933979245794832 2.5 0 0 1 I I #
coedge $-1 $236 $236 $-1 $334 reversed $155 $-1 #
edge $-1 $335 0 $335 6.2831853071796004 $156 $336 forward 7 unknown #
vertex $-1 $159 $337 #
ellipse-curve $-1 59.312304796146591 27.105114429881695 4.8864863183550256 0 0.69465837861970381 0.71933979245794832 2.5 0 0 1 I I #
face $-1 $-1 $175 $24 $-1 $338 reversed single #
loop $-1 $-1 $255 $160 #
plane-surface $-1 0 31.977930875215591 0 0 -1 0 0 0 -1 forward_v I I I I #
coedge $-1 $253 $339 $163 $245 reversed $161 $-1 #
coedge $-1 $259 $163 $164 $247 reversed $101 $-1 #
edge $-1 $260 -9.5921105681423082 $340 9.5921105681423082 $243 $341 forward 7 unknown #
coedge $-1 $165 $164 $339 $342 forward $65 $-1 #
edge $-1 $251 -75.640736106448557 $340 75.640736106448557 $244 $343 forward 7 unknown #
coedge $-1 $256 $255 $165 $249 reversed $241 $-1 #
edge $-1 $344 -75.640736106448557 $250 75.640736106448557 $248 $345 forward 7 unknown #
vertex $-1 $167 $346 #
vertex $-1 $262 $347 #
straight-curve $-1 75.640736106448557 0 -9.5921105681423082 0 -1 0 I I #
coedge $-1 $348 $243 $168 $254 reversed $161 $-1 #
edge $-1 $257 -31.977930875215591 $260 31.977930875215591 $253 $349 forward 7 unknown #
coedge $-1 $248 $169 $174 $263 forward $241 $-1 #
coedge $-1 $169 $248 $348 $350 reversed $241 $-1 #
vertex $-1 $170 $351 #
straight-curve $-1 0 31.977930875215591 9.5921105681423082 -1 0 0 I I #
coedge $-1 $171 $244 $173 $262 reversed $101 $-1 #
vertex $-1 $254 $352 #
straight-curve $-1 0 -31.977930875215591 9.5921105681423082 1 0 0 I I #
edge $-1 $176 -9.5921105681423082 $251 9.5921105681423082 $173 $353 forward 7 unknown #
edge $-1 $177 -9.5921105681423082 $250 9.5921105681423082 $174 $354 forward 7 unknown #
point $-1 75.640736106448557 -31.977930875215591 9.5921105681423082 #
point $-1 75.640736106448557 31.977930875215591 9.5921105681423082 #
face $-1 $-1 $279 $25 $-1 $355 reversed single #
loop $-1 $-1 $356 $179 #
plane-surface $-1 -87.770424932457587 0 -0.97178426727011846 1 0 0 0 0 -1 forward_v I I I I #
coedge $-1 $357 $271 $185 $276 reversed $180 $-1 #
coedge $-1 $183 $182 $356 $358 reversed $69 $-1 #
coedge $-1 $269 $359 $182 $272 forward $180 $-1 #
edge $-1 $360 -6.064844413004522 $274 6.064844413004522 $182 $361 forward 7 unknown #
edge $-1 $190 -6.064844413004522 $362 6.064844413004522 $183 $363 forward 7 unknown #
vertex $-1 $184 $364 #
straight-curve $-1 -75.640736106448557 31.977930875215591 0 0 0 -1 I I #
edge $-1 $280 -31.977930875215591 $274 31.977930875215591 $269 $365 forward 7 unknown #
coedge $-1 $366 $186 $189 $283 reversed $279 $-1 #
coedge $-1 $186 $366 $357 $367 reversed $279 $-1 #
loop $-1 $-1 $186 $266 #
vertex $-1 $187 $368 #
straight-curve $-1 -75.640736106448557 -31.977930875215591 0 0 0 1 I I #
coedge $-1 $189 $188 $369 $370 forward $109 $-1 #
edge $-1 $371 -6.064844413004522 $191 6.064844413004522 $277 $372 forward 7 unknown #
point $-1 -75.640736106448543 31.977930875215591 0.52821573272988198 #
point $-1 -75.640736106448543 -31.977930875215591 0.52821573272988198 #
plane-surface $-1 0 0 9.5921105681423082 0 0 1 1 0 0 forward_v I I I I #
coedge $-1 $297 $296 $289 $373 forward $194 $-1 #
coedge $-1 $289 $196 $198 $293 reversed $117 $-1 #
coedge $-1 $196 $288 $287 $373 reversed $117 $-1 #
coedge $-1 $204 $199 $196 $291 forward $205 $-1 #
edge $-1 $294 -46.301138554366425 $374 -36.555505663698639 $290 $375 forward 7 unknown #
coedge $-1 $198 $197 $297 $376 reversed $73 $-1 #
edge $-1 $377 -1.9747070999959293e-014 $294 13.548024164445884 $288 $378 forward 7 unknown #
vertex $-1 $200 $379 #
straight-curve $-1 27.392734456487652 -22.232297984547802 9.5921105681423082 -1 0 0 I I #
coedge $-1 $287 $201 $204 $301 reversed $194 $-1 #
coedge $-1 $201 $287 $292 $376 forward $194 $-1 #
vertex $-1 $202 $380 #
straight-curve $-1 65.34808597370828 -31.977930875215591 54.501822446463024 0 0 1 I I #
straight-curve $-1 65.34808597370828 -31.977930875215577 0.18086206856776244 0 -0.71933979245794832 -0.69465837861970381 I I #
edge $-1 $374 44.222851852242329 $206 65.34808597370828 $296 $381 forward 7 unknown #
point $-1 65.34808597370828 -31.977930875215591 9.5921105681423082 #
point $-1 65.34808597370828 -22.232297984547806 9.5921105681423082 #
edge $-1 $382 1 $382 0 $209 $-1 forward 7 unknown #
vertex $-1 $210 $383 #
ellipse-curve $-1 50.258633029804031 -20.537426541138835 -1.9145534275475868 0 -0.69465837861970381 0.71933979245794832 2.5 0 0 1 I I #
point $-1 52.758633029804031 -27.105114429881706 4.8864863183550362 #
edge $-1 $384 1 $384 0 $213 $-1 forward 7 unknown #
vertex $-1 $214 $385 #
ellipse-curve $-1 59.312304796146591 -20.537426541138835 -1.9145534275475868 0 -0.69465837861970381 0.71933979245794832 2.5 0 0 1 I I #
point $-1 61.812304796146591 -27.105114429881706 4.8864863183550362 #
loop $-1 $-1 $225 $217 #
plane-surface $-1 0 31.977930875215591 0 0 -1 0 0 0 -1 forward_v I I I I #
coedge $-1 $315 $220 $222 $319 reversed $139 $-1 #
coedge $-1 $220 $314 $386 $387 reversed $139 $-1 #
coedge $-1 $228 $223 $220 $317 forward $218 $-1 #
edge $-1 $320 -23.298140395354238 $388 -13.552507504686439 $316 $389 forward 7 unknown #
coedge $-1 $222 $221 $323 $390 reversed $87 $-1 #
edge $-1 $391 -63.955861750431197 $320 -50.407837585985277 $314 $392 forward 7 unknown #
vertex $-1 $224 $393 #
straight-curve $-1 27.392734456487652 22.232297984547792 9.5921105681423064 1 0 0 I I #
coedge $-1 $386 $225 $228 $327 reversed $312 $-1 #
coedge $-1 $225 $386 $318 $390 forward $312 $-1 #
vertex $-1 $226 $394 #
straight-curve $-1 44.222851852242329 31.977930875215591 76.715560059853246 0 0 1 I I #
straight-curve $-1 44.222851852242329 -14.028065442808824 44.608337295348207 0 0.71933979245794832 -0.69465837861970381 I I #
edge $-1 $388 -65.34808597370828 $229 -44.222851852242329 $322 $395 forward 7 unknown #
point $-1 44.222851852242329 31.977930875215591 9.5921105681423082 #
point $-1 44.222851852242329 22.232297984547792 9.59211056814231 #
edge $-1 $396 1 $396 0 $232 $-1 forward 7 unknown #
vertex $-1 $233 $397 #
ellipse-curve $-1 50.258633029804031 20.537426541138835 -1.9145534275475851 0 0.69465837861970381 0.71933979245794832 2.5 0 0 1 I I #
point $-1 52.758633029804031 27.105114429881706 4.886486318355038 #
edge $-1 $398 1 $398 0 $236 $-1 forward 7 unknown #
vertex $-1 $237 $399 #
ellipse-curve $-1 59.312304796146591 20.537426541138835 -1.9145534275475851 0 0.69465837861970381 0.71933979245794832 2.5 0 0 1 I I #
point $-1 61.812304796146591 27.105114429881706 4.886486318355038 #
plane-surface $-1 75.640736106448557 0 0 -1 0 0 0 0 1 forward_v I I I I #
coedge $-1 $243 $348 $246 $342 reversed $161 $-1 #
vertex $-1 $342 $400 #
straight-curve $-1 -75.640736106448557 -31.977930875215591 0 0 0 -1 I I #
edge $-1 $340 -31.977930875215591 $344 31.977930875215591 $339 $401 forward 7 unknown #
straight-curve $-1 0 -31.977930875215591 -9.5921105681423082 -1 0 0 I I #
vertex $-1 $249 $402 #
straight-curve $-1 0 31.977930875215591 -9.5921105681423082 1 0 0 I I #
point $-1 75.640736106448557 31.977930875215591 -9.5921105681423082 #
point $-1 75.640736106448557 -31.977930875215591 -9.5921105681423082 #
coedge $-1 $339 $253 $256 $350 forward $161 $-1 #
straight-curve $-1 -75.640736106448557 0 9.5921105681423082 0 -1 0 I I #
edge $-1 $257 -9.5921105681423082 $344 9.5921105681423082 $256 $403 forward 7 unknown #
point $-1 -75.640736106448557 31.977930875215591 9.5921105681423082 #
point $-1 -75.640736106448557 -31.977930875215591 9.5921105681423082 #
straight-curve $-1 75.640736106448557 -31.977930875215591 0 0 0 -1 I I #
straight-curve $-1 75.640736106448557 31.977930875215591 0 0 0 -1 I I #
plane-surface $-1 0 -31.977930875215591 0 0 1 0 0 0 1 forward_v I I I I #
coedge $-1 $404 $369 $270 $358 forward $267 $-1 #
coedge $-1 $359 $269 $278 $367 forward $180 $-1 #
edge $-1 $362 -1.5000000000000004 $360 1.5000000000000004 $270 $405 forward 7 unknown #
coedge $-1 $271 $357 $404 $406 forward $180 $-1 #
vertex $-1 $272 $407 #
straight-curve $-1 -81.705580519453065 31.977930875215591 -2.4717842672701189 1 0 0 I I #
vertex $-1 $273 $408 #
straight-curve $-1 -81.705580519453065 31.977930875215591 0.52821573272988198 -1 0 0 I I #
point $-1 -75.640736106448543 31.977930875215591 -2.4717842672701189 #
straight-curve $-1 -75.640736106448557 0 -2.4717842672701189 0 1 0 I I #
coedge $-1 $278 $277 $409 $410 forward $279 $-1 #
edge $-1 $280 -6.064844413004522 $411 6.064844413004522 $278 $412 forward 7 unknown #
point $-1 -75.640736106448543 -31.977930875215591 -2.4717842672701189 #
coedge $-1 $356 $409 $282 $370 reversed $267 $-1 #
edge $-1 $362 -31.977930875215591 $371 31.977930875215591 $369 $413 forward 7 unknown #
vertex $-1 $370 $414 #
straight-curve $-1 -81.705580519453065 -31.977930875215591 0.52821573272988198 1 0 0 I I #
edge $-1 $374 44.909711878320714 $377 54.320960377895275 $287 $415 forward 7 unknown #
vertex $-1 $301 $416 #
straight-curve $-1 44.222851852242329 -68.533436538914231 9.59211056814231 0 -1 0 I I #
edge $-1 $377 16.830117395754677 $298 37.955351517220627 $297 $417 forward 7 unknown #
vertex $-1 $376 $418 #
straight-curve $-1 44.222851852242329 -31.977930875215577 0.18086206856776244 0 0.71933979245794832 0.69465837861970381 I I #
point $-1 44.222851852242329 -22.232297984547806 9.5921105681423082 #
point $-1 65.34808597370828 -31.977930875215591 0.18086206856774872 #
straight-curve $-1 0 -31.977930875215591 9.5921105681423082 1 0 0 I I #
vertex $-1 $304 $419 #
point $-1 52.758633029804031 -20.537426541138835 -1.9145534275475868 #
vertex $-1 $308 $420 #
point $-1 61.812304796146591 -20.537426541138835 -1.9145534275475868 #
coedge $-1 $323 $322 $315 $387 forward $312 $-1 #
edge $-1 $388 67.123449491710943 $391 76.534697991285512 $386 $421 forward 7 unknown #
vertex $-1 $327 $422 #
straight-curve $-1 65.34808597370828 45.53043837990203 9.5921105681423029 0 1 0 I I #
edge $-1 $391 -37.955351517220627 $324 -16.830117395754677 $323 $423 forward 7 unknown #
vertex $-1 $390 $424 #
straight-curve $-1 65.34808597370828 -14.028065442808824 44.608337295348207 0 -0.71933979245794832 0.69465837861970381 I I #
point $-1 65.34808597370828 22.232297984547792 9.59211056814231 #
point $-1 44.222851852242329 31.977930875215591 0.18086206856773401 #
straight-curve $-1 0 31.977930875215591 9.5921105681423082 -1 0 0 I I #
vertex $-1 $330 $425 #
point $-1 52.758633029804031 20.537426541138835 -1.9145534275475851 #
vertex $-1 $334 $426 #
point $-1 61.812304796146591 20.537426541138835 -1.9145534275475851 #
point $-1 -75.640736106448557 -31.977930875215591 -9.5921105681423082 #
straight-curve $-1 -75.640736106448557 0 -9.5921105681423082 0 1 0 I I #
point $-1 -75.640736106448557 31.977930875215591 -9.5921105681423082 #
straight-curve $-1 -75.640736106448557 31.977930875215591 0 0 0 -1 I I #
coedge $-1 $409 $356 $359 $406 reversed $267 $-1 #
straight-curve $-1 -87.770424932457587 31.977930875215591 -0.97178426727011846 0 0 -1 I I #
edge $-1 $411 -31.977930875215591 $360 31.977930875215591 $404 $427 forward 7 unknown #
point $-1 -87.770424932457587 31.977930875215591 -2.4717842672701189 #
point $-1 -87.770424932457587 31.977930875215591 0.52821573272988198 #
coedge $-1 $369 $404 $366 $410 reversed $267 $-1 #
edge $-1 $371 -1.5000000000000004 $411 1.5000000000000004 $409 $428 forward 7 unknown #
vertex $-1 $406 $429 #
straight-curve $-1 -81.705580519453065 -31.977930875215591 -2.4717842672701189 -1 0 0 I I #
straight-curve $-1 -87.770424932457587 0 0.52821573272988198 0 -1 0 I I #
point $-1 -87.770424932457587 -31.977930875215591 0.52821573272988198 #
straight-curve $-1 44.222851852242329 -31.977930875215591 54.501822446463024 0 0 -1 I I #
point $-1 44.222851852242329 -31.977930875215591 9.5921105681423082 #
straight-curve $-1 27.392734456487652 -31.977930875215591 0.18086206856774795 1 0 0 I I #
point $-1 44.222851852242329 -31.977930875215591 0.18086206856774872 #
point $-1 50.258633029804031 -18.800780594589575 -3.7129029086924574 #
point $-1 59.312304796146591 -18.800780594589575 -3.7129029086924574 #
straight-curve $-1 65.34808597370828 31.977930875215591 76.715560059853246 0 0 -1 I I #
point $-1 65.34808597370828 31.977930875215591 9.5921105681423082 #
straight-curve $-1 27.392734456487652 31.977930875215591 0.18086206856774112 -1 0 0 I I #
point $-1 65.34808597370828 31.977930875215591 0.18086206856773401 #
point $-1 50.258633029804031 18.800780594589575 -3.7129029086924557 #
point $-1 59.312304796146591 18.800780594589575 -3.7129029086924557 #
straight-curve $-1 -87.770424932457587 0 -2.4717842672701189 0 1 0 I I #
straight-curve $-1 -87.770424932457587 -31.977930875215591 -0.97178426727011846 0 0 -1 I I #
point $-1 -87.770424932457587 -31.977930875215591 -2.4717842672701189 #
End-of-ACIS-data 