600 0 4 0           
105 GICL ACIS Healer - Source: /gicl/data5/repository/Drexel/CICIRELLO-THESISDATA/Part1000.smdg.des.sat - 6 0 18 ACIS 6.0.3 Solaris 24 Fri Apr 12 10:10:51 2002 
1 9.999999999999999547e-07 1.000000000000000036e-10 
body $-1 $4 $-1 $-1 #
body $-1 $5 $-1 $-1 #
body $-1 $6 $-1 $-1 #
body $-1 $7 $-1 $-1 #
lump $-1 $-1 $8 $0 #
lump $-1 $-1 $9 $1 #
lump $-1 $-1 $10 $2 #
lump $-1 $-1 $11 $3 #
shell $-1 $-1 $-1 $12 $-1 $4 #
shell $-1 $-1 $-1 $13 $-1 $5 #
shell $-1 $-1 $-1 $14 $-1 $6 #
shell $-1 $-1 $-1 $15 $-1 $7 #
face $-1 $16 $17 $8 $-1 $18 forward single #
face $-1 $19 $20 $9 $-1 $21 forward single #
face $-1 $22 $23 $10 $-1 $24 forward single #
face $-1 $25 $26 $11 $-1 $27 reversed single #
face $-1 $28 $29 $8 $-1 $30 reversed single #
loop $-1 $-1 $31 $12 #
plane-surface $-1 46.69820245979186524 24.11042145310894824 10.32450232176131166 0 0 1 1 0 0 forward_v I I I I #
face $-1 $32 $33 $9 $-1 $34 forward single #
loop $-1 $-1 $35 $13 #
plane-surface $-1 46.69820245979186524 3.333208559330689269 7.253114911200907677 0 0 1 1 0 0 forward_v I I I I #
face $-1 $36 $37 $10 $-1 $38 forward single #
loop $-1 $-1 $39 $14 #
plane-surface $-1 69.17450957408874501 97.06836101316386589 100.3604326485608595 1 0 0 0 -0.8191520524228198541 -0.5735764247347356903 forward_v I I I I #
face $-1 $40 $41 $11 $-1 $42 reversed single #
loop $-1 $43 $44 $15 #
cone-surface $-1 75.32307535283808875 46.58264486594089249 8.404131293450802787 0 -0.8191520524228198541 -0.5735764247347356903 0.5 0 0 1 I I 0 1 0.5 forward I I I I #
face $-1 $45 $46 $8 $-1 $47 reversed single #
loop $-1 $-1 $48 $16 #
plane-surface $-1 46.69820245979186524 24.11042145310894824 0 0 0 1 1 0 0 forward_v I I I I #
coedge $-1 $49 $50 $51 $52 forward $17 $-1 #
face $-1 $53 $54 $9 $-1 $55 forward single #
loop $-1 $-1 $56 $19 #
plane-surface $-1 46.69820245979186524 6.666417118661378538 8.788808616481109226 0 -1 0 0 0 -1 forward_v I I I I #
coedge $-1 $57 $58 $59 $60 reversed $20 $-1 #
face $-1 $61 $62 $10 $-1 $63 forward single #
loop $-1 $-1 $64 $22 #
plane-surface $-1 75.32307535283808875 20.5625042343740958 46.79045663170834501 0 0.8191520524228198541 0.5735764247347356903 1 0 0 forward_v I I I I #
coedge $-1 $65 $66 $67 $68 reversed $23 $-1 #
face $-1 $69 $70 $11 $-1 $71 forward single #
loop $-1 $72 $73 $25 #
cone-surface $-1 75.32307535283808875 45.80196048589166935 7.857490222076478403 0 -0.8191520524228198541 -0.5735764247347356903 0.25 0 0 1 I I -0.7071067811865474617 0.7071067811865474617 0.25 forward I I I I #
loop $-1 $-1 $74 $15 #
coedge $-1 $44 $44 $75 $76 reversed $26 $-1 #
face $-1 $77 $78 $8 $-1 $79 reversed single #
loop $-1 $-1 $80 $28 #
plane-surface $-1 46.69820245979186524 0 5.162251160880655831 0 1 0 0 0 1 forward_v I I I I #
coedge $-1 $81 $82 $83 $84 forward $29 $-1 #
coedge $-1 $85 $31 $86 $87 forward $17 $-1 #
coedge $-1 $31 $85 $88 $89 forward $17 $-1 #
coedge $-1 $90 $91 $31 $52 reversed $92 $-1 #
edge $-1 $93 -24.11042145310894824 $94 24.11042145310894824 $51 $95 forward 7 unknown #
face $-1 $96 $97 $9 $-1 $98 reversed single #
loop $-1 $-1 $99 $32 #
plane-surface $-1 46.69820245979186524 24.11042145310894824 10.32450232176131166 0 0 1 1 0 0 forward_v I I I I #
coedge $-1 $100 $101 $102 $103 reversed $33 $-1 #
coedge $-1 $104 $35 $101 $105 reversed $20 $-1 #
coedge $-1 $35 $104 $106 $107 reversed $20 $-1 #
coedge $-1 $108 $102 $35 $60 forward $97 $-1 #
edge $-1 $109 7.055397887558440218 $110 13.72181500621981876 $59 $111 forward 7 unknown #
face $-1 $112 $113 $10 $-1 $114 forward single #
loop $-1 $-1 $115 $36 #
plane-surface $-1 81.47164113158743248 97.06836101316386589 100.3604326485608595 -1 0 0 0 0.8191520524228198541 0.5735764247347356903 forward_v I I I I #
coedge $-1 $116 $117 $118 $119 reversed $37 $-1 #
coedge $-1 $66 $39 $117 $120 forward $23 $-1 #
coedge $-1 $39 $65 $121 $122 reversed $23 $-1 #
coedge $-1 $123 $118 $39 $68 forward $113 $-1 #
edge $-1 $124 -14.49315167358549417 $125 -12.36854832691850703 $67 $126 forward 7 unknown #
face $-1 $127 $128 $11 $-1 $129 forward single #
loop $-1 $-1 $130 $40 #
plane-surface $-1 69.17450957408874501 97.06836101316386589 100.3604326485608595 1 0 0 0 -0.8191520524228198541 -0.5735764247347356903 forward_v I I I I #
loop $-1 $-1 $131 $25 #
coedge $-1 $73 $73 $74 $132 forward $41 $-1 #
coedge $-1 $74 $74 $73 $132 reversed $43 $-1 #
coedge $-1 $75 $75 $44 $76 forward $128 $-1 #
edge $-1 $133 -1.048159707662053832e-14 $133 6.283185307179575574 $75 $134 forward 7 unknown #
face $-1 $135 $136 $8 $-1 $137 reversed single #
loop $-1 $-1 $138 $45 #
plane-surface $-1 0 24.11042145310894824 5.162251160880655831 1 0 0 0 0 -1 forward_v I I I I #
coedge $-1 $139 $88 $140 $141 forward $46 $-1 #
coedge $-1 $142 $48 $139 $143 forward $29 $-1 #
coedge $-1 $48 $142 $144 $145 forward $29 $-1 #
coedge $-1 $91 $90 $48 $84 reversed $92 $-1 #
edge $-1 $146 -24.11042145310894824 $147 24.11042145310894824 $83 $148 forward 7 unknown #
coedge $-1 $50 $49 $149 $150 forward $17 $-1 #
coedge $-1 $151 $152 $49 $87 reversed $136 $-1 #
edge $-1 $94 -46.69820245979186524 $153 46.69820245979186524 $86 $154 forward 7 unknown #
coedge $-1 $80 $155 $50 $89 reversed $46 $-1 #
edge $-1 $156 -46.69820245979186524 $93 46.69820245979186524 $88 $157 forward 7 unknown #
coedge $-1 $83 $51 $155 $158 forward $92 $-1 #
coedge $-1 $51 $83 $151 $159 reversed $92 $-1 #
loop $-1 $-1 $90 $135 #
vertex $-1 $52 $160 #
vertex $-1 $52 $161 #
straight-curve $-1 93.39640491958373048 24.11042145310894824 10.32450232176131166 0 1 0 I I #
face $-1 $162 $163 $9 $-1 $164 reversed single #
loop $-1 $-1 $102 $53 #
plane-surface $-1 93.39640491958373048 24.11042145310894824 5.162251160880655831 -1 0 0 0 0 1 forward_v I I I I #
coedge $-1 $165 $166 $100 $167 forward $54 $-1 #
coedge $-1 $168 $56 $99 $167 reversed $33 $-1 #
coedge $-1 $56 $168 $57 $105 forward $33 $-1 #
coedge $-1 $59 $169 $56 $103 forward $97 $-1 #
edge $-1 $170 -3.348972433080429134 $109 -0.2775850225200251487 $102 $171 forward 7 unknown #
coedge $-1 $58 $57 $172 $173 reversed $20 $-1 #
edge $-1 $174 -46.69820245979186524 $109 46.69820245979186524 $101 $175 forward 7 unknown #
coedge $-1 $176 $177 $58 $107 forward $178 $-1 #
edge $-1 $110 -46.69820245979186524 $179 46.69820245979186524 $106 $180 forward 7 unknown #
coedge $-1 $181 $59 $177 $182 forward $97 $-1 #
vertex $-1 $60 $183 #
vertex $-1 $182 $184 #
straight-curve $-1 93.39640491958373048 13.72181500621981876 7.253114911200907677 0 -1 0 I I #
face $-1 $185 $186 $10 $-1 $187 forward single #
loop $-1 $-1 $188 $61 #
plane-surface $-1 46.69820245979186524 24.11042145310894824 10.32450232176131166 0 0 1 1 0 0 forward_v I I I I #
coedge $-1 $189 $190 $188 $191 reversed $62 $-1 #
coedge $-1 $192 $64 $190 $193 reversed $37 $-1 #
coedge $-1 $64 $192 $65 $120 reversed $37 $-1 #
coedge $-1 $67 $188 $64 $119 forward $113 $-1 #
edge $-1 $194 -20.46100222527245194 $124 -8.163870667773764467 $118 $195 forward 7 unknown #
edge $-1 $124 44.51670993448782099 $196 48.22084290621789648 $65 $197 forward 7 unknown #
coedge $-1 $198 $199 $66 $122 forward $200 $-1 #
edge $-1 $125 42.43683958295945047 $196 45.47108770919916765 $121 $201 forward 7 unknown #
coedge $-1 $202 $67 $199 $203 forward $113 $-1 #
vertex $-1 $119 $204 #
vertex $-1 $203 $205 #
straight-curve $-1 69.17450957408874501 60.58939123313640351 10.32450232176131344 0 1 0 I I #
face $-1 $206 $207 $11 $-1 $208 forward single #
loop $-1 $209 $75 $69 #
plane-surface $-1 75.32307535283808875 20.5625042343740958 46.79045663170834501 0 0.8191520524228198541 0.5735764247347356903 1 0 0 forward_v I I I I #
coedge $-1 $210 $211 $212 $213 reversed $70 $-1 #
coedge $-1 $131 $131 $-1 $214 forward $72 $-1 #
edge $-1 $215 0 $215 6.283185307179586232 $73 $216 forward 7 unknown #
vertex $-1 $76 $217 #
ellipse-curve $-1 75.32307535283808875 47.15854123288440292 8.807378258641442415 0 -0.8191520524228198541 -0.5735764247347356903 0.5 0 0 1 I I #
face $-1 $-1 $92 $8 $-1 $218 reversed single #
loop $-1 $-1 $151 $77 #
plane-surface $-1 46.69820245979186524 48.22084290621789648 5.162251160880655831 0 -1 0 0 0 -1 forward_v I I I I #
coedge $-1 $219 $149 $152 $220 forward $78 $-1 #
coedge $-1 $155 $80 $81 $143 reversed $46 $-1 #
coedge $-1 $149 $219 $80 $141 reversed $78 $-1 #
edge $-1 $156 -5.162251160880655831 $221 5.162251160880655831 $140 $222 forward 7 unknown #
coedge $-1 $82 $81 $219 $223 forward $29 $-1 #
edge $-1 $147 -46.69820245979186524 $221 46.69820245979186524 $139 $224 forward 7 unknown #
coedge $-1 $152 $151 $82 $145 reversed $136 $-1 #
edge $-1 $225 -46.69820245979186524 $146 46.69820245979186524 $144 $226 forward 7 unknown #
vertex $-1 $84 $227 #
vertex $-1 $158 $228 #
straight-curve $-1 93.39640491958373048 24.11042145310894824 0 0 -1 0 I I #
coedge $-1 $138 $140 $85 $150 reversed $78 $-1 #
edge $-1 $153 -24.11042145310894824 $156 24.11042145310894824 $149 $229 forward 7 unknown #
coedge $-1 $144 $86 $91 $159 forward $136 $-1 #
coedge $-1 $86 $144 $138 $220 reversed $136 $-1 #
vertex $-1 $87 $230 #
straight-curve $-1 46.69820245979186524 48.22084290621789648 10.32450232176131166 -1 0 0 I I #
coedge $-1 $88 $139 $90 $158 reversed $46 $-1 #
vertex $-1 $150 $231 #
straight-curve $-1 46.69820245979186524 0 10.32450232176131166 1 0 0 I I #
edge $-1 $93 -5.162251160880655831 $147 5.162251160880655831 $90 $232 forward 7 unknown #
edge $-1 $94 -5.162251160880655831 $146 5.162251160880655831 $91 $233 forward 7 unknown #
point $-1 93.39640491958373048 0 10.32450232176131166 #
point $-1 93.39640491958373048 48.22084290621789648 10.32450232176131166 #
face $-1 $234 $178 $9 $-1 $235 reversed single #
loop $-1 $-1 $236 $96 #
plane-surface $-1 46.69820245979186524 24.11042145310894824 0 0 0 1 1 0 0 forward_v I I I I #
coedge $-1 $237 $99 $169 $238 forward $54 $-1 #
coedge $-1 $99 $237 $239 $240 forward $54 $-1 #
edge $-1 $241 -46.69820245979186524 $170 46.69820245979186524 $99 $242 forward 7 unknown #
coedge $-1 $101 $100 $243 $244 reversed $33 $-1 #
coedge $-1 $102 $245 $165 $238 reversed $97 $-1 #
vertex $-1 $238 $246 #
straight-curve $-1 93.39640491958373048 6.666417118661378538 6.975529888680882529 0 0 -1 I I #
coedge $-1 $243 $247 $104 $173 forward $248 $-1 #
edge $-1 $179 -13.72181500621981876 $174 -7.055397887558440218 $172 $249 forward 7 unknown #
vertex $-1 $173 $250 #
straight-curve $-1 46.69820245979186524 6.666417118661378538 7.253114911200907677 1 0 0 I I #
coedge $-1 $251 $106 $247 $252 forward $178 $-1 #
coedge $-1 $106 $251 $108 $182 reversed $178 $-1 #
loop $-1 $-1 $106 $162 #
vertex $-1 $252 $253 #
straight-curve $-1 46.69820245979186524 0 7.253114911200907677 -1 0 0 I I #
coedge $-1 $245 $108 $236 $254 reversed $97 $-1 #
edge $-1 $110 -2.090863750320251846 $255 5.162251160880655831 $108 $256 forward 7 unknown #
point $-1 93.39640491958373048 6.666417118661378538 7.253114911200907677 #
point $-1 93.39640491958373048 0 7.253114911200907677 #
face $-1 $257 $258 $10 $-1 $259 forward single #
loop $-1 $-1 $260 $112 #
plane-surface $-1 46.69820245979186524 3.333208559330689269 7.253114911200907677 0 0 1 1 0 0 forward_v I I I I #
coedge $-1 $118 $261 $115 $191 forward $113 $-1 #
coedge $-1 $190 $115 $262 $263 reversed $62 $-1 #
coedge $-1 $115 $189 $116 $193 forward $62 $-1 #
edge $-1 $264 12.36854832691850703 $194 14.49315167358549417 $188 $265 forward 7 unknown #
coedge $-1 $117 $116 $198 $266 reversed $37 $-1 #
edge $-1 $267 -48.22084290621789648 $194 -44.51670993448782099 $190 $268 forward 7 unknown #
vertex $-1 $119 $269 #
straight-curve $-1 61.01063890631498055 46.09623955955090935 10.32450232176130989 -1 0 0 I I #
vertex $-1 $266 $270 #
straight-curve $-1 69.17450957408874501 20.5625042343740958 46.79045663170834501 0 0.5735764247347356903 -0.8191520524228198541 I I #
coedge $-1 $262 $121 $192 $266 forward $200 $-1 #
coedge $-1 $121 $271 $123 $203 reversed $200 $-1 #
loop $-1 $-1 $262 $272 #
straight-curve $-1 69.17450957408874501 48.22084290621789648 52.76134190472075858 0 0 -1 I I #
coedge $-1 $273 $123 $274 $275 forward $113 $-1 #
edge $-1 $125 -22.47630711429687977 $276 46.69820245979186524 $199 $277 forward 7 unknown #
point $-1 69.17450957408874501 46.09623955955090935 10.32450232176131344 #
point $-1 69.17450957408874501 48.22084290621789648 10.32450232176131166 #
face $-1 $278 $279 $11 $-1 $280 forward single #
loop $-1 $-1 $281 $127 #
plane-surface $-1 81.47164113158743248 97.06836101316386589 100.3604326485608595 -1 0 0 0 0.8191520524228198541 0.5735764247347356903 forward_v I I I I #
loop $-1 $-1 $282 $69 #
coedge $-1 $211 $130 $283 $284 forward $70 $-1 #
coedge $-1 $130 $210 $285 $286 reversed $70 $-1 #
coedge $-1 $287 $288 $130 $213 forward $279 $-1 #
edge $-1 $289 -14.49315167358549417 $290 -12.36854832691850703 $212 $291 forward 7 unknown #
edge $-1 $292 1 $292 0 $131 $-1 forward 7 unknown #
vertex $-1 $132 $293 #
ellipse-curve $-1 75.32307535283808875 46.00674849899737495 8.000884328260163159 0 0.8191520524228198541 0.5735764247347356903 0.5 0 0 1 I I #
point $-1 75.82307535283808875 47.15854123288441713 8.807378258641445967 #
plane-surface $-1 93.39640491958373048 24.11042145310894824 5.162251160880655831 -1 0 0 0 0 1 forward_v I I I I #
coedge $-1 $140 $138 $142 $223 reversed $78 $-1 #
edge $-1 $153 -5.162251160880655831 $225 5.162251160880655831 $152 $294 forward 7 unknown #
vertex $-1 $223 $295 #
straight-curve $-1 0 0 5.162251160880655831 0 0 -1 I I #
edge $-1 $221 -24.11042145310894824 $225 24.11042145310894824 $219 $296 forward 7 unknown #
straight-curve $-1 46.69820245979186524 0 0 -1 0 0 I I #
vertex $-1 $145 $297 #
straight-curve $-1 46.69820245979186524 48.22084290621789648 0 1 0 0 I I #
point $-1 93.39640491958373048 48.22084290621789648 0 #
point $-1 93.39640491958373048 0 0 #
straight-curve $-1 0 24.11042145310894824 10.32450232176131166 0 -1 0 I I #
point $-1 0 48.22084290621789648 10.32450232176131166 #
point $-1 0 0 10.32450232176131166 #
straight-curve $-1 93.39640491958373048 0 5.162251160880655831 0 0 -1 I I #
straight-curve $-1 93.39640491958373048 48.22084290621789648 5.162251160880655831 0 0 -1 I I #
face $-1 $298 $248 $9 $-1 $299 reversed single #
plane-surface $-1 46.69820245979186524 0 5.162251160880655831 0 1 0 0 0 1 forward_v I I I I #
coedge $-1 $300 $301 $181 $254 forward $163 $-1 #
coedge $-1 $166 $165 $302 $303 forward $54 $-1 #
edge $-1 $170 -17.4440043344475697 $304 24.11042145310894824 $169 $305 forward 7 unknown #
coedge $-1 $306 $243 $166 $240 reversed $248 $-1 #
edge $-1 $307 -24.11042145310894824 $241 17.4440043344475697 $239 $308 forward 7 unknown #
vertex $-1 $244 $309 #
straight-curve $-1 46.69820245979186524 6.666417118661378538 10.32450232176131166 1 0 0 I I #
coedge $-1 $239 $172 $168 $244 forward $248 $-1 #
edge $-1 $174 0.2775850225200251487 $241 3.348972433080429134 $243 $310 forward 7 unknown #
coedge $-1 $169 $181 $311 $312 reversed $97 $-1 #
point $-1 93.39640491958373048 6.666417118661378538 10.32450232176131166 #
coedge $-1 $172 $313 $176 $252 reversed $248 $-1 #
loop $-1 $-1 $243 $234 #
straight-curve $-1 0 13.72181500621981876 7.253114911200907677 0 1 0 I I #
point $-1 0 6.666417118661378538 7.253114911200907677 #
coedge $-1 $177 $176 $300 $314 reversed $178 $-1 #
edge $-1 $179 -2.090863750320251846 $315 5.162251160880655831 $247 $316 forward 7 unknown #
point $-1 0 0 7.253114911200907677 #
edge $-1 $317 -24.11042145310894824 $255 24.11042145310894824 $181 $318 forward 7 unknown #
vertex $-1 $182 $319 #
straight-curve $-1 93.39640491958373048 0 5.162251160880655831 0 0 -1 I I #
face $-1 $320 $321 $10 $-1 $322 reversed single #
loop $-1 $-1 $323 $185 #
plane-surface $-1 46.69820245979186524 6.666417118661378538 8.788808616481109226 0 -1 0 0 0 -1 forward_v I I I I #
coedge $-1 $324 $325 $326 $327 reversed $186 $-1 #
coedge $-1 $188 $328 $329 $330 forward $113 $-1 #
coedge $-1 $329 $198 $189 $263 forward $200 $-1 #
edge $-1 $267 -45.47108770919916765 $264 -42.43683958295945047 $262 $331 forward 7 unknown #
vertex $-1 $263 $332 #
straight-curve $-1 81.47164113158743248 60.58939123313640351 10.32450232176131344 0 -1 0 I I #
edge $-1 $196 8.163870667773764467 $267 20.46100222527245194 $198 $333 forward 7 unknown #
vertex $-1 $266 $334 #
straight-curve $-1 81.47164113158743248 20.5625042343740958 46.79045663170834501 0 -0.5735764247347356903 0.8191520524228198541 I I #
point $-1 81.47164113158743248 46.09623955955090935 10.32450232176131344 #
point $-1 69.17450957408874501 48.22084290621789648 7.290254195521589153 #
coedge $-1 $199 $335 $336 $337 reversed $200 $-1 #
face $-1 $-1 $200 $10 $-1 $338 reversed single #
coedge $-1 $328 $202 $339 $340 forward $113 $-1 #
coedge $-1 $336 $341 $202 $275 reversed $342 $-1 #
edge $-1 $276 -24.11042145310894824 $343 17.4440043344475697 $274 $344 forward 7 unknown #
vertex $-1 $203 $345 #
straight-curve $-1 46.69820245979186524 48.22084290621789648 10.32450232176131166 -1 0 0 I I #
face $-1 $346 $347 $11 $-1 $348 forward single #
loop $-1 $-1 $349 $206 #
plane-surface $-1 46.69820245979186524 24.11042145310894824 10.32450232176131166 0 0 1 1 0 0 forward_v I I I I #
coedge $-1 $350 $351 $349 $352 reversed $207 $-1 #
coedge $-1 $353 $283 $288 $354 reversed $209 $-1 #
coedge $-1 $282 $355 $210 $284 reversed $209 $-1 #
edge $-1 $289 44.51670993448782099 $356 48.22084290621789648 $210 $357 forward 7 unknown #
coedge $-1 $358 $359 $211 $286 forward $360 $-1 #
edge $-1 $290 42.43683958295945047 $356 45.47108770919916765 $285 $361 forward 7 unknown #
coedge $-1 $362 $212 $359 $363 forward $279 $-1 #
coedge $-1 $212 $349 $282 $354 forward $279 $-1 #
vertex $-1 $354 $364 #
vertex $-1 $363 $365 #
straight-curve $-1 69.17450957408874501 60.58939123313640351 10.32450232176131344 0 1 0 I I #
vertex $-1 $214 $366 #
point $-1 75.82307535283808875 46.00674849899737495 8.000884328260163159 #
straight-curve $-1 0 48.22084290621789648 5.162251160880655831 0 0 -1 I I #
point $-1 0 0 0 #
straight-curve $-1 0 24.11042145310894824 0 0 1 0 I I #
point $-1 0 48.22084290621789648 0 #
face $-1 $-1 $367 $9 $-1 $368 reversed single #
plane-surface $-1 0 24.11042145310894824 5.162251160880655831 1 0 0 0 0 -1 forward_v I I I I #
coedge $-1 $369 $236 $251 $314 forward $163 $-1 #
coedge $-1 $236 $369 $370 $371 forward $163 $-1 #
coedge $-1 $311 $372 $237 $303 reversed $367 $-1 #
edge $-1 $304 -46.69820245979186524 $307 46.69820245979186524 $302 $373 forward 7 unknown #
vertex $-1 $238 $374 #
straight-curve $-1 93.39640491958373048 24.11042145310894824 10.32450232176131166 0 1 0 I I #
coedge $-1 $313 $239 $372 $375 forward $248 $-1 #
vertex $-1 $303 $376 #
straight-curve $-1 0 24.11042145310894824 10.32450232176131166 0 -1 0 I I #
point $-1 0 6.666417118661378538 10.32450232176131166 #
straight-curve $-1 0 6.666417118661378538 6.975529888680882529 0 0 1 I I #
coedge $-1 $370 $302 $245 $312 forward $367 $-1 #
edge $-1 $304 -5.162251160880655831 $317 5.162251160880655831 $245 $377 forward 7 unknown #
coedge $-1 $247 $306 $369 $378 reversed $248 $-1 #
edge $-1 $255 -46.69820245979186524 $315 46.69820245979186524 $251 $379 forward 7 unknown #
vertex $-1 $378 $380 #
straight-curve $-1 0 0 5.162251160880655831 0 0 -1 I I #
vertex $-1 $254 $381 #
straight-curve $-1 93.39640491958373048 24.11042145310894824 0 0 -1 0 I I #
point $-1 93.39640491958373048 0 0 #
face $-1 $382 $383 $10 $-1 $384 reversed single #
loop $-1 $-1 $385 $257 #
plane-surface $-1 93.39640491958373048 24.11042145310894824 5.162251160880655831 -1 0 0 0 0 1 forward_v I I I I #
coedge $-1 $339 $386 $385 $387 reversed $258 $-1 #
coedge $-1 $388 $260 $386 $389 reversed $186 $-1 #
coedge $-1 $260 $388 $390 $391 reversed $186 $-1 #
coedge $-1 $392 $385 $260 $327 forward $321 $-1 #
edge $-1 $393 7.055397887558440218 $394 13.72181500621981876 $326 $395 forward 7 unknown #
coedge $-1 $261 $273 $396 $397 forward $113 $-1 #
coedge $-1 $398 $262 $261 $330 reversed $200 $-1 #
edge $-1 $399 -46.69820245979186524 $264 -34.77343867179556725 $329 $277 forward 7 unknown #
straight-curve $-1 81.47164113158743248 48.22084290621789648 52.76134190472075858 0 0 1 I I #
point $-1 81.47164113158743248 48.22084290621789648 10.32450232176131166 #
straight-curve $-1 61.01063890631498055 48.22084290621789648 7.290254195521582048 1 0 0 I I #
point $-1 81.47164113158743248 48.22084290621789648 7.290254195521589153 #
coedge $-1 $271 $398 $400 $401 reversed $200 $-1 #
coedge $-1 $402 $274 $271 $337 forward $342 $-1 #
edge $-1 $276 -5.162251160880655831 $403 5.162251160880655831 $271 $404 forward 7 unknown #
plane-surface $-1 46.69820245979186524 48.22084290621789648 5.162251160880655831 0 -1 0 0 0 -1 forward_v I I I I #
coedge $-1 $405 $323 $273 $340 reversed $258 $-1 #
edge $-1 $343 -46.69820245979186524 $406 46.69820245979186524 $273 $407 forward 7 unknown #
coedge $-1 $274 $408 $405 $409 forward $342 $-1 #
loop $-1 $-1 $341 $410 #
vertex $-1 $409 $411 #
straight-curve $-1 0 24.11042145310894824 10.32450232176131166 0 -1 0 I I #
point $-1 0 48.22084290621789648 10.32450232176131166 #
face $-1 $412 $413 $11 $-1 $414 forward single #
loop $-1 $-1 $415 $278 #
plane-surface $-1 46.69820245979186524 3.333208559330689269 7.253114911200907677 0 0 1 1 0 0 forward_v I I I I #
coedge $-1 $288 $416 $281 $352 forward $279 $-1 #
coedge $-1 $351 $281 $417 $418 reversed $207 $-1 #
coedge $-1 $281 $350 $353 $419 forward $207 $-1 #
edge $-1 $420 12.36854832691850703 $421 14.49315167358549417 $349 $422 forward 7 unknown #
coedge $-1 $355 $282 $351 $419 reversed $209 $-1 #
edge $-1 $421 -20.46100222527245194 $289 -8.163870667773764467 $288 $423 forward 7 unknown #
coedge $-1 $283 $353 $358 $424 reversed $209 $-1 #
vertex $-1 $424 $425 #
straight-curve $-1 69.17450957408874501 20.5625042343740958 46.79045663170834501 0 0.5735764247347356903 -0.8191520524228198541 I I #
coedge $-1 $417 $285 $355 $424 forward $360 $-1 #
coedge $-1 $285 $426 $287 $363 reversed $360 $-1 #
loop $-1 $-1 $417 $427 #
straight-curve $-1 69.17450957408874501 48.22084290621789648 52.76134190472075858 0 0 -1 I I #
coedge $-1 $428 $287 $429 $430 forward $279 $-1 #
edge $-1 $290 -22.47630711429687977 $431 46.69820245979186524 $359 $432 forward 7 unknown #
point $-1 69.17450957408874501 46.09623955955090935 10.32450232176131344 #
point $-1 69.17450957408874501 48.22084290621789648 10.32450232176131166 #
point $-1 75.32307535283808875 45.59717247278596375 7.714096115892794536 #
loop $-1 $-1 $311 $298 #
plane-surface $-1 46.69820245979186524 48.22084290621789648 5.162251160880655831 0 -1 0 0 0 -1 forward_v I I I I #
coedge $-1 $301 $300 $313 $378 forward $163 $-1 #
coedge $-1 $372 $311 $301 $371 reversed $367 $-1 #
edge $-1 $433 -46.69820245979186524 $317 46.69820245979186524 $370 $434 forward 7 unknown #
coedge $-1 $302 $370 $306 $375 reversed $367 $-1 #
straight-curve $-1 46.69820245979186524 48.22084290621789648 10.32450232176131166 -1 0 0 I I #
point $-1 93.39640491958373048 48.22084290621789648 10.32450232176131166 #
edge $-1 $307 -5.162251160880655831 $433 5.162251160880655831 $372 $435 forward 7 unknown #
point $-1 0 48.22084290621789648 10.32450232176131166 #
straight-curve $-1 93.39640491958373048 48.22084290621789648 5.162251160880655831 0 0 -1 I I #
edge $-1 $315 -24.11042145310894824 $433 24.11042145310894824 $313 $436 forward 7 unknown #
straight-curve $-1 46.69820245979186524 0 0 -1 0 0 I I #
point $-1 0 0 0 #
point $-1 93.39640491958373048 48.22084290621789648 0 #
face $-1 $410 $437 $10 $-1 $438 reversed single #
loop $-1 $-1 $439 $320 #
plane-surface $-1 46.69820245979186524 24.11042145310894824 0 0 0 1 1 0 0 forward_v I I I I #
coedge $-1 $326 $396 $323 $387 forward $321 $-1 #
coedge $-1 $323 $405 $324 $389 forward $258 $-1 #
edge $-1 $406 -3.348972433080429134 $393 -0.2775850225200251487 $385 $440 forward 7 unknown #
coedge $-1 $325 $324 $408 $441 reversed $186 $-1 #
edge $-1 $442 -46.69820245979186524 $393 46.69820245979186524 $386 $443 forward 7 unknown #
coedge $-1 $444 $445 $325 $391 forward $437 $-1 #
edge $-1 $394 -46.69820245979186524 $446 46.69820245979186524 $390 $447 forward 7 unknown #
coedge $-1 $448 $326 $445 $449 forward $321 $-1 #
vertex $-1 $327 $450 #
vertex $-1 $449 $451 #
straight-curve $-1 93.39640491958373048 13.72181500621981876 7.253114911200907677 0 -1 0 I I #
coedge $-1 $385 $452 $328 $397 reversed $321 $-1 #
edge $-1 $406 -17.4440043344475697 $399 24.11042145310894824 $396 $453 forward 7 unknown #
coedge $-1 $335 $329 $452 $454 forward $200 $-1 #
vertex $-1 $397 $455 #
coedge $-1 $439 $456 $335 $401 forward $383 $-1 #
edge $-1 $403 -46.69820245979186524 $457 46.69820245979186524 $335 $458 forward 7 unknown #
coedge $-1 $459 $336 $456 $460 reversed $342 $-1 #
vertex $-1 $401 $461 #
straight-curve $-1 0 48.22084290621789648 5.162251160880655831 0 0 -1 I I #
coedge $-1 $386 $339 $341 $409 reversed $258 $-1 #
vertex $-1 $397 $462 #
straight-curve $-1 46.69820245979186524 6.666417118661378538 10.32450232176131166 1 0 0 I I #
coedge $-1 $341 $459 $388 $441 forward $342 $-1 #
edge $-1 $442 0.2775850225200251487 $343 3.348972433080429134 $341 $463 forward 7 unknown #
face $-1 $272 $342 $10 $-1 $464 reversed single #
point $-1 0 6.666417118661378538 10.32450232176131166 #
face $-1 $465 $466 $11 $-1 $467 reversed single #
loop $-1 $-1 $468 $346 #
plane-surface $-1 46.69820245979186524 6.666417118661378538 8.788808616481109226 0 -1 0 0 0 -1 forward_v I I I I #
coedge $-1 $469 $470 $471 $472 reversed $347 $-1 #
coedge $-1 $349 $473 $474 $475 forward $279 $-1 #
coedge $-1 $474 $358 $350 $418 forward $360 $-1 #
edge $-1 $476 -45.47108770919916765 $420 -42.43683958295945047 $417 $477 forward 7 unknown #
edge $-1 $476 -48.22084290621789648 $421 -44.51670993448782099 $351 $478 forward 7 unknown #
vertex $-1 $418 $479 #
vertex $-1 $354 $480 #
straight-curve $-1 81.47164113158743248 60.58939123313640351 10.32450232176131344 0 -1 0 I I #
straight-curve $-1 61.01063890631498055 46.09623955955090935 10.32450232176130989 -1 0 0 I I #
edge $-1 $356 8.163870667773764467 $476 20.46100222527245194 $358 $481 forward 7 unknown #
point $-1 69.17450957408874501 48.22084290621789648 7.290254195521589153 #
coedge $-1 $359 $482 $483 $484 reversed $360 $-1 #
face $-1 $-1 $360 $11 $-1 $485 reversed single #
coedge $-1 $473 $362 $486 $487 forward $279 $-1 #
coedge $-1 $483 $488 $362 $430 reversed $489 $-1 #
edge $-1 $431 -24.11042145310894824 $490 17.4440043344475697 $429 $491 forward 7 unknown #
vertex $-1 $363 $492 #
straight-curve $-1 46.69820245979186524 48.22084290621789648 10.32450232176131166 -1 0 0 I I #
vertex $-1 $371 $493 #
straight-curve $-1 46.69820245979186524 48.22084290621789648 0 1 0 0 I I #
straight-curve $-1 0 48.22084290621789648 5.162251160880655831 0 0 -1 I I #
straight-curve $-1 0 24.11042145310894824 0 0 1 0 I I #
loop $-1 $-1 $390 $382 #
plane-surface $-1 46.69820245979186524 0 5.162251160880655831 0 1 0 0 0 1 forward_v I I I I #
coedge $-1 $494 $400 $448 $495 forward $383 $-1 #
straight-curve $-1 93.39640491958373048 6.666417118661378538 6.975529888680882529 0 0 -1 I I #
edge $-1 $446 -13.72181500621981876 $442 -7.055397887558440218 $408 $496 forward 7 unknown #
vertex $-1 $441 $497 #
straight-curve $-1 46.69820245979186524 6.666417118661378538 7.253114911200907677 1 0 0 I I #
coedge $-1 $498 $390 $459 $499 forward $437 $-1 #
coedge $-1 $390 $498 $392 $449 reversed $437 $-1 #
vertex $-1 $499 $500 #
straight-curve $-1 46.69820245979186524 0 7.253114911200907677 -1 0 0 I I #
coedge $-1 $452 $392 $439 $495 reversed $321 $-1 #
edge $-1 $394 -2.090863750320251846 $501 5.162251160880655831 $392 $502 forward 7 unknown #
point $-1 93.39640491958373048 6.666417118661378538 7.253114911200907677 #
point $-1 93.39640491958373048 0 7.253114911200907677 #
coedge $-1 $396 $448 $398 $454 reversed $321 $-1 #
straight-curve $-1 93.39640491958373048 24.11042145310894824 10.32450232176131166 0 1 0 I I #
edge $-1 $399 -5.162251160880655831 $457 5.162251160880655831 $452 $503 forward 7 unknown #
point $-1 93.39640491958373048 48.22084290621789648 10.32450232176131166 #
coedge $-1 $400 $494 $402 $460 forward $383 $-1 #
vertex $-1 $495 $504 #
straight-curve $-1 46.69820245979186524 48.22084290621789648 0 1 0 0 I I #
coedge $-1 $408 $402 $444 $499 reversed $342 $-1 #
edge $-1 $505 -24.11042145310894824 $403 24.11042145310894824 $402 $506 forward 7 unknown #
point $-1 0 48.22084290621789648 0 #
point $-1 93.39640491958373048 6.666417118661378538 10.32450232176131166 #
straight-curve $-1 0 6.666417118661378538 6.975529888680882529 0 0 1 I I #
plane-surface $-1 0 24.11042145310894824 5.162251160880655831 1 0 0 0 0 -1 forward_v I I I I #
face $-1 $507 $508 $11 $-1 $509 reversed single #
loop $-1 $-1 $510 $412 #
plane-surface $-1 93.39640491958373048 24.11042145310894824 5.162251160880655831 -1 0 0 0 0 1 forward_v I I I I #
coedge $-1 $486 $511 $510 $512 reversed $413 $-1 #
coedge $-1 $513 $415 $511 $514 reversed $347 $-1 #
coedge $-1 $415 $513 $515 $516 reversed $347 $-1 #
coedge $-1 $517 $510 $415 $472 forward $466 $-1 #
edge $-1 $518 7.055397887558440218 $519 13.72181500621981876 $471 $520 forward 7 unknown #
coedge $-1 $416 $428 $521 $522 forward $279 $-1 #
coedge $-1 $523 $417 $416 $475 reversed $360 $-1 #
edge $-1 $524 -46.69820245979186524 $420 -34.77343867179556725 $474 $432 forward 7 unknown #
vertex $-1 $424 $525 #
straight-curve $-1 81.47164113158743248 48.22084290621789648 52.76134190472075858 0 0 1 I I #
straight-curve $-1 81.47164113158743248 20.5625042343740958 46.79045663170834501 0 -0.5735764247347356903 0.8191520524228198541 I I #
point $-1 81.47164113158743248 48.22084290621789648 10.32450232176131166 #
point $-1 81.47164113158743248 46.09623955955090935 10.32450232176131344 #
straight-curve $-1 61.01063890631498055 48.22084290621789648 7.290254195521582048 1 0 0 I I #
coedge $-1 $426 $523 $526 $527 reversed $360 $-1 #
coedge $-1 $528 $429 $426 $484 forward $489 $-1 #
edge $-1 $431 -5.162251160880655831 $529 5.162251160880655831 $426 $530 forward 7 unknown #
plane-surface $-1 46.69820245979186524 48.22084290621789648 5.162251160880655831 0 -1 0 0 0 -1 forward_v I I I I #
coedge $-1 $531 $468 $428 $487 reversed $413 $-1 #
edge $-1 $490 -46.69820245979186524 $532 46.69820245979186524 $428 $533 forward 7 unknown #
coedge $-1 $429 $534 $531 $535 forward $489 $-1 #
loop $-1 $-1 $488 $536 #
vertex $-1 $535 $537 #
straight-curve $-1 0 24.11042145310894824 10.32450232176131166 0 -1 0 I I #
point $-1 0 48.22084290621789648 10.32450232176131166 #
point $-1 0 48.22084290621789648 0 #
coedge $-1 $456 $439 $498 $538 forward $383 $-1 #
edge $-1 $457 -24.11042145310894824 $501 24.11042145310894824 $448 $539 forward 7 unknown #
straight-curve $-1 0 13.72181500621981876 7.253114911200907677 0 1 0 I I #
point $-1 0 6.666417118661378538 7.253114911200907677 #
coedge $-1 $445 $444 $494 $538 reversed $437 $-1 #
edge $-1 $446 -2.090863750320251846 $505 5.162251160880655831 $459 $540 forward 7 unknown #
point $-1 0 0 7.253114911200907677 #
vertex $-1 $449 $541 #
straight-curve $-1 93.39640491958373048 0 5.162251160880655831 0 0 -1 I I #
straight-curve $-1 93.39640491958373048 48.22084290621789648 5.162251160880655831 0 0 -1 I I #
point $-1 93.39640491958373048 48.22084290621789648 0 #
vertex $-1 $460 $542 #
straight-curve $-1 0 24.11042145310894824 0 0 1 0 I I #
face $-1 $536 $543 $11 $-1 $544 reversed single #
loop $-1 $-1 $545 $465 #
plane-surface $-1 46.69820245979186524 24.11042145310894824 0 0 0 1 1 0 0 forward_v I I I I #
coedge $-1 $471 $521 $468 $512 forward $466 $-1 #
coedge $-1 $468 $531 $469 $514 forward $413 $-1 #
edge $-1 $532 -3.348972433080429134 $518 -0.2775850225200251487 $510 $546 forward 7 unknown #
coedge $-1 $470 $469 $534 $547 reversed $347 $-1 #
edge $-1 $548 -46.69820245979186524 $518 46.69820245979186524 $511 $549 forward 7 unknown #
coedge $-1 $550 $551 $470 $516 forward $543 $-1 #
edge $-1 $519 -46.69820245979186524 $552 46.69820245979186524 $515 $553 forward 7 unknown #
coedge $-1 $554 $471 $551 $555 forward $466 $-1 #
vertex $-1 $472 $556 #
vertex $-1 $555 $557 #
straight-curve $-1 93.39640491958373048 13.72181500621981876 7.253114911200907677 0 -1 0 I I #
coedge $-1 $510 $558 $473 $522 reversed $466 $-1 #
edge $-1 $532 -17.4440043344475697 $524 24.11042145310894824 $521 $559 forward 7 unknown #
coedge $-1 $482 $474 $558 $560 forward $360 $-1 #
vertex $-1 $522 $561 #
point $-1 81.47164113158743248 48.22084290621789648 7.290254195521589153 #
coedge $-1 $545 $562 $482 $527 forward $508 $-1 #
edge $-1 $529 -46.69820245979186524 $563 46.69820245979186524 $482 $564 forward 7 unknown #
coedge $-1 $565 $483 $562 $566 reversed $489 $-1 #
vertex $-1 $527 $567 #
straight-curve $-1 0 48.22084290621789648 5.162251160880655831 0 0 -1 I I #
coedge $-1 $511 $486 $488 $535 reversed $413 $-1 #
vertex $-1 $522 $568 #
straight-curve $-1 46.69820245979186524 6.666417118661378538 10.32450232176131166 1 0 0 I I #
coedge $-1 $488 $565 $513 $547 forward $489 $-1 #
edge $-1 $548 0.2775850225200251487 $490 3.348972433080429134 $488 $569 forward 7 unknown #
face $-1 $427 $489 $11 $-1 $570 reversed single #
point $-1 0 6.666417118661378538 10.32450232176131166 #
edge $-1 $501 -46.69820245979186524 $505 46.69820245979186524 $498 $571 forward 7 unknown #
straight-curve $-1 93.39640491958373048 24.11042145310894824 0 0 -1 0 I I #
straight-curve $-1 0 0 5.162251160880655831 0 0 -1 I I #
point $-1 93.39640491958373048 0 0 #
point $-1 0 0 0 #
loop $-1 $-1 $515 $507 #
plane-surface $-1 46.69820245979186524 0 5.162251160880655831 0 1 0 0 0 1 forward_v I I I I #
coedge $-1 $572 $526 $554 $573 forward $508 $-1 #
straight-curve $-1 93.39640491958373048 6.666417118661378538 6.975529888680882529 0 0 -1 I I #
edge $-1 $552 -13.72181500621981876 $548 -7.055397887558440218 $534 $574 forward 7 unknown #
vertex $-1 $547 $575 #
straight-curve $-1 46.69820245979186524 6.666417118661378538 7.253114911200907677 1 0 0 I I #
coedge $-1 $576 $515 $565 $577 forward $543 $-1 #
coedge $-1 $515 $576 $517 $555 reversed $543 $-1 #
vertex $-1 $577 $578 #
straight-curve $-1 46.69820245979186524 0 7.253114911200907677 -1 0 0 I I #
coedge $-1 $558 $517 $545 $573 reversed $466 $-1 #
edge $-1 $519 -2.090863750320251846 $579 5.162251160880655831 $517 $580 forward 7 unknown #
point $-1 93.39640491958373048 6.666417118661378538 7.253114911200907677 #
point $-1 93.39640491958373048 0 7.253114911200907677 #
coedge $-1 $521 $554 $523 $560 reversed $466 $-1 #
straight-curve $-1 93.39640491958373048 24.11042145310894824 10.32450232176131166 0 1 0 I I #
edge $-1 $524 -5.162251160880655831 $563 5.162251160880655831 $558 $581 forward 7 unknown #
point $-1 93.39640491958373048 48.22084290621789648 10.32450232176131166 #
coedge $-1 $526 $572 $528 $566 forward $508 $-1 #
vertex $-1 $573 $582 #
straight-curve $-1 46.69820245979186524 48.22084290621789648 0 1 0 0 I I #
coedge $-1 $534 $528 $550 $577 reversed $489 $-1 #
edge $-1 $583 -24.11042145310894824 $529 24.11042145310894824 $528 $584 forward 7 unknown #
point $-1 0 48.22084290621789648 0 #
point $-1 93.39640491958373048 6.666417118661378538 10.32450232176131166 #
straight-curve $-1 0 6.666417118661378538 6.975529888680882529 0 0 1 I I #
plane-surface $-1 0 24.11042145310894824 5.162251160880655831 1 0 0 0 0 -1 forward_v I I I I #
straight-curve $-1 46.69820245979186524 0 0 -1 0 0 I I #
coedge $-1 $562 $545 $576 $585 forward $508 $-1 #
edge $-1 $563 -24.11042145310894824 $579 24.11042145310894824 $554 $586 forward 7 unknown #
straight-curve $-1 0 13.72181500621981876 7.253114911200907677 0 1 0 I I #
point $-1 0 6.666417118661378538 7.253114911200907677 #
coedge $-1 $551 $550 $572 $585 reversed $543 $-1 #
edge $-1 $552 -2.090863750320251846 $583 5.162251160880655831 $565 $587 forward 7 unknown #
point $-1 0 0 7.253114911200907677 #
vertex $-1 $555 $588 #
straight-curve $-1 93.39640491958373048 0 5.162251160880655831 0 0 -1 I I #
straight-curve $-1 93.39640491958373048 48.22084290621789648 5.162251160880655831 0 0 -1 I I #
point $-1 93.39640491958373048 48.22084290621789648 0 #
vertex $-1 $566 $589 #
straight-curve $-1 0 24.11042145310894824 0 0 1 0 I I #
edge $-1 $579 -46.69820245979186524 $583 46.69820245979186524 $576 $590 forward 7 unknown #
straight-curve $-1 93.39640491958373048 24.11042145310894824 0 0 -1 0 I I #
straight-curve $-1 0 0 5.162251160880655831 0 0 -1 I I #
point $-1 93.39640491958373048 0 0 #
point $-1 0 0 0 #
straight-curve $-1 46.69820245979186524 0 0 -1 0 0 I I #
End-of-ACIS-data 