600 0 10 0           
107 GICL ACIS Healer - Source: /gicl/data5/repository/Drexel/CICIRELLO-THESISDATA/Part10011.smdg.feat.sat - 6 0 18 ACIS 6.0.3 Solaris 24 Fri Apr 12 10:25:29 2002 
1 9.999999999999999547e-07 1.000000000000000036e-10 
body $-1 $10 $-1 $-1 #
body $-1 $11 $-1 $-1 #
body $-1 $12 $-1 $-1 #
body $-1 $13 $-1 $-1 #
body $-1 $14 $-1 $-1 #
body $-1 $15 $-1 $-1 #
body $-1 $16 $-1 $-1 #
body $-1 $17 $-1 $-1 #
body $-1 $18 $-1 $-1 #
body $-1 $19 $-1 $-1 #
lump $-1 $-1 $20 $0 #
lump $-1 $-1 $21 $1 #
lump $-1 $-1 $22 $2 #
lump $-1 $-1 $23 $3 #
lump $-1 $-1 $24 $4 #
lump $-1 $-1 $25 $5 #
lump $-1 $-1 $26 $6 #
lump $-1 $-1 $27 $7 #
lump $-1 $-1 $28 $8 #
lump $-1 $-1 $29 $9 #
shell $-1 $-1 $-1 $30 $-1 $10 #
shell $-1 $-1 $-1 $31 $-1 $11 #
shell $-1 $-1 $-1 $32 $-1 $12 #
shell $-1 $-1 $-1 $33 $-1 $13 #
shell $-1 $-1 $-1 $34 $-1 $14 #
shell $-1 $-1 $-1 $35 $-1 $15 #
shell $-1 $-1 $-1 $36 $-1 $16 #
shell $-1 $-1 $-1 $37 $-1 $17 #
shell $-1 $-1 $-1 $38 $-1 $18 #
shell $-1 $-1 $-1 $39 $-1 $19 #
face $-1 $40 $41 $20 $-1 $42 forward single #
face $-1 $43 $44 $21 $-1 $45 forward single #
face $-1 $46 $47 $22 $-1 $48 forward single #
face $-1 $49 $50 $23 $-1 $51 forward single #
face $-1 $52 $53 $24 $-1 $54 forward single #
face $-1 $55 $56 $25 $-1 $57 forward single #
face $-1 $58 $59 $26 $-1 $60 forward single #
face $-1 $61 $62 $27 $-1 $63 forward single #
face $-1 $64 $65 $28 $-1 $66 forward single #
face $-1 $67 $68 $29 $-1 $69 forward single #
face $-1 $70 $71 $20 $-1 $72 reversed single #
loop $-1 $-1 $73 $30 #
plane-surface $-1 52.82753990295113766 25.4375720874282969 15.10495094514328152 0 0 1 1 0 0 forward_v I I I I #
face $-1 $74 $75 $21 $-1 $76 reversed single #
loop $-1 $-1 $77 $31 #
plane-surface $-1 52.82753990295113766 3.448870066421377167 3.272639492320190691 0 0 1 1 0 0 forward_v I I I I #
face $-1 $78 $79 $22 $-1 $80 reversed single #
loop $-1 $-1 $81 $32 #
plane-surface $-1 52.82753990295113766 47.42627410843521574 3.272639492320190691 0 0 1 1 0 0 forward_v I I I I #
face $-1 $82 $83 $23 $-1 $84 reversed single #
loop $-1 $-1 $85 $33 #
plane-surface $-1 -154.5424691682263187 12.21042993707889934 153.9437692752121905 -0.7313537098837770145 0 0.6819983511997929071 0.6819983511997929071 0 0.7313537098837770145 forward_v I I I I #
face $-1 $86 $87 $24 $-1 $88 forward single #
loop $-1 $89 $90 $34 #
cone-surface $-1 3.214659023261530191 9.933562878120550721 11.76330328326142904 0.7313537098837770145 0 -0.6819983511997929071 0.6819983511997929071 0 0.7313537098837770145 1 I I 0 1 1 forward I I I I #
face $-1 $91 $92 $25 $-1 $93 forward single #
loop $-1 $94 $95 $35 #
cone-surface $-1 3.214659023261530191 14.48729699603724619 11.76330328326142904 0.7313537098837770145 0 -0.6819983511997929071 0.6819983511997929071 0 0.7313537098837770145 1 I I 0 1 1 forward I I I I #
face $-1 $96 $97 $26 $-1 $98 reversed single #
loop $-1 $-1 $99 $36 #
plane-surface $-1 232.3668530568569395 12.82816099485487982 208.9804182650394466 0.8571673085369920786 0 0.5150380618706241753 0.5150380618706241753 0 -0.8571673085369920786 forward_v I I I I #
face $-1 $100 $101 $27 $-1 $102 forward single #
loop $-1 $103 $104 $37 #
cone-surface $-1 103.4656884759800022 10.9205445694669141 12.02544082195370834 -0.8571673085369920786 0 -0.5150380618706241753 0.2575190309353120877 0 -0.4285836542684960393 1 I I 0 1 0.5 forward I I I I #
face $-1 $105 $106 $28 $-1 $107 forward single #
loop $-1 $108 $109 $38 #
cone-surface $-1 103.4656884759800022 12.82816099485487982 12.02544082195370834 -0.8571673085369920786 0 -0.5150380618706241753 0.2575190309353120877 0 -0.4285836542684960393 1 I I 0 1 0.5 forward I I I I #
face $-1 $110 $111 $29 $-1 $112 forward single #
loop $-1 $113 $114 $39 #
cone-surface $-1 103.4656884759800022 14.73577742024284554 12.02544082195370834 -0.8571673085369920786 0 -0.5150380618706241753 0.2575190309353120877 0 -0.4285836542684960393 1 I I 0 1 0.5 forward I I I I #
face $-1 $115 $116 $20 $-1 $117 reversed single #
loop $-1 $-1 $118 $40 #
plane-surface $-1 52.82753990295113766 25.4375720874282969 0 0 0 1 1 0 0 forward_v I I I I #
coedge $-1 $119 $120 $121 $122 forward $41 $-1 #
face $-1 $123 $124 $21 $-1 $125 reversed single #
loop $-1 $-1 $126 $43 #
plane-surface $-1 52.82753990295113766 3.448870066421377167 0 0 0 1 1 0 0 forward_v I I I I #
coedge $-1 $127 $128 $129 $130 forward $44 $-1 #
face $-1 $131 $132 $22 $-1 $133 reversed single #
loop $-1 $-1 $134 $46 #
plane-surface $-1 52.82753990295113766 47.42627410843521574 0 0 0 1 1 0 0 forward_v I I I I #
coedge $-1 $135 $136 $137 $138 forward $47 $-1 #
face $-1 $139 $140 $23 $-1 $141 reversed single #
loop $-1 $-1 $142 $49 #
plane-surface $-1 0 12.21042993707889934 9.830588828196425766 -0.7313537098837770145 0 0.6819983511997929071 0.6819983511997929071 0 0.7313537098837770145 forward_v I I I I #
coedge $-1 $143 $144 $145 $146 forward $50 $-1 #
face $-1 $-1 $147 $24 $-1 $148 forward single #
loop $-1 $-1 $149 $52 #
plane-surface $-1 2.459211062154890826 9.933562878120550721 12.46776988666985275 -0.7313537098837770145 0 0.6819983511997929071 -0.6819983511997929071 0 -0.7313537098837770145 forward_v I I I I #
loop $-1 $-1 $150 $34 #
coedge $-1 $90 $90 $149 $151 reversed $53 $-1 #
face $-1 $-1 $152 $25 $-1 $153 forward single #
loop $-1 $-1 $154 $55 #
plane-surface $-1 2.459211062154890826 14.48729699603724619 12.46776988666985275 -0.7313537098837770145 0 0.6819983511997929071 -0.6819983511997929071 0 -0.7313537098837770145 forward_v I I I I #
loop $-1 $-1 $155 $35 #
coedge $-1 $95 $95 $154 $156 reversed $56 $-1 #
face $-1 $157 $158 $26 $-1 $159 reversed single #
loop $-1 $-1 $160 $58 #
plane-surface $-1 51.23869227588426156 12.82816099485487982 100.1476432050033907 0.8571673085369920786 0 0.5150380618706241753 0.5150380618706241753 0 -0.8571673085369920786 forward_v I I I I #
coedge $-1 $161 $162 $163 $164 forward $59 $-1 #
face $-1 $-1 $165 $27 $-1 $166 forward single #
loop $-1 $-1 $167 $61 #
plane-surface $-1 103.9962875180309396 10.9205445694669141 12.34425687983014974 0.8571673085369920786 0 0.5150380618706241753 -0.5150380618706241753 0 0.8571673085369920786 forward_v I I I I #
loop $-1 $-1 $168 $37 #
coedge $-1 $104 $104 $167 $169 reversed $62 $-1 #
face $-1 $-1 $170 $28 $-1 $171 forward single #
loop $-1 $-1 $172 $64 #
plane-surface $-1 103.9962875180309396 12.82816099485487982 12.34425687983014974 0.8571673085369920786 0 0.5150380618706241753 -0.5150380618706241753 0 0.8571673085369920786 forward_v I I I I #
loop $-1 $-1 $173 $38 #
coedge $-1 $109 $109 $172 $174 reversed $65 $-1 #
face $-1 $-1 $175 $29 $-1 $176 forward single #
loop $-1 $-1 $177 $67 #
plane-surface $-1 103.9962875180309396 14.73577742024284554 12.34425687983014974 0.8571673085369920786 0 0.5150380618706241753 -0.5150380618706241753 0 0.8571673085369920786 forward_v I I I I #
loop $-1 $-1 $178 $39 #
coedge $-1 $114 $114 $177 $179 reversed $68 $-1 #
face $-1 $180 $181 $20 $-1 $182 reversed single #
loop $-1 $-1 $183 $70 #
plane-surface $-1 52.82753990295113766 0 7.552475472571640758 0 1 0 0 0 1 forward_v I I I I #
coedge $-1 $184 $185 $186 $187 forward $71 $-1 #
coedge $-1 $188 $73 $189 $190 forward $41 $-1 #
coedge $-1 $73 $188 $191 $192 forward $41 $-1 #
coedge $-1 $193 $194 $73 $122 reversed $195 $-1 #
edge $-1 $196 -25.4375720874282969 $197 25.4375720874282969 $121 $198 forward 7 unknown #
face $-1 $199 $200 $21 $-1 $201 reversed single #
loop $-1 $-1 $202 $74 #
plane-surface $-1 52.82753990295113766 0 1.636319746160095345 0 1 0 0 0 1 forward_v I I I I #
coedge $-1 $203 $204 $205 $206 forward $75 $-1 #
coedge $-1 $207 $77 $208 $209 forward $44 $-1 #
coedge $-1 $77 $207 $210 $211 forward $44 $-1 #
coedge $-1 $212 $213 $77 $130 reversed $214 $-1 #
edge $-1 $215 -3.448870066421377167 $216 3.448870066421377167 $129 $217 forward 7 unknown #
face $-1 $218 $219 $22 $-1 $220 reversed single #
loop $-1 $-1 $221 $78 #
plane-surface $-1 52.82753990295113766 43.97740404201383768 1.636319746160095345 0 1 0 0 0 1 forward_v I I I I #
coedge $-1 $222 $223 $224 $225 forward $79 $-1 #
coedge $-1 $226 $81 $227 $228 forward $47 $-1 #
coedge $-1 $81 $226 $229 $230 forward $47 $-1 #
coedge $-1 $231 $232 $81 $138 reversed $233 $-1 #
edge $-1 $234 -3.448870066421378056 $235 3.448870066421378056 $137 $236 forward 7 unknown #
face $-1 $237 $238 $23 $-1 $239 reversed single #
loop $-1 $-1 $240 $82 #
plane-surface $-1 -77.27123458411315937 6.897740132842755223 81.88717905170430811 0 1 0 -0.7313537098837770145 0 0.6819983511997929071 forward_v I I I I #
coedge $-1 $241 $242 $243 $244 forward $83 $-1 #
coedge $-1 $245 $85 $246 $247 forward $50 $-1 #
coedge $-1 $85 $245 $248 $249 forward $50 $-1 #
coedge $-1 $250 $251 $85 $146 reversed $252 $-1 #
edge $-1 $253 -5.31268980423614412 $254 5.312689804236143232 $145 $255 forward 7 unknown #
loop $-1 $256 $257 $86 #
cone-surface $-1 4.335783839310058951 9.933562878120550721 10.71783750425310977 0.7313537098837770145 0 -0.6819983511997929071 0.3409991755998964535 0 0.3656768549418885073 1 I I -0.7071067811865474617 0.7071067811865474617 0.5 forward I I I I #
coedge $-1 $149 $149 $90 $151 forward $87 $-1 #
coedge $-1 $150 $150 $257 $258 forward $89 $-1 #
edge $-1 $259 0 $259 6.283185307179586232 $149 $260 forward 7 unknown #
loop $-1 $261 $262 $91 #
cone-surface $-1 4.335783839310058951 14.48729699603724619 10.71783750425310977 0.7313537098837770145 0 -0.6819983511997929071 0.3409991755998964535 0 0.3656768549418885073 1 I I -0.7071067811865474617 0.7071067811865474617 0.5 forward I I I I #
coedge $-1 $154 $154 $95 $156 forward $92 $-1 #
coedge $-1 $155 $155 $262 $263 forward $94 $-1 #
edge $-1 $264 0 $264 6.283185307179586232 $154 $265 forward 7 unknown #
face $-1 $266 $267 $26 $-1 $268 reversed single #
loop $-1 $-1 $269 $96 #
plane-surface $-1 141.8027726663706005 9.648800285874937543 154.5640307350214186 0 1 0 0.8571673085369920786 0 0.5150380618706241753 forward_v I I I I #
coedge $-1 $270 $271 $272 $273 forward $97 $-1 #
coedge $-1 $274 $99 $275 $276 forward $59 $-1 #
coedge $-1 $99 $274 $277 $278 forward $59 $-1 #
coedge $-1 $279 $280 $99 $164 reversed $281 $-1 #
edge $-1 $282 -3.179360708979942274 $283 3.179360708979942274 $163 $284 forward 7 unknown #
loop $-1 $285 $286 $100 #
cone-surface $-1 102.7207976067948181 10.9205445694669141 11.57786524860961208 -0.8571673085369920786 0 -0.5150380618706241753 0.1287595154676560438 0 -0.2142918271342480196 1 I I -0.7071067811865474617 0.7071067811865474617 0.25 forward I I I I #
coedge $-1 $167 $167 $104 $169 forward $101 $-1 #
coedge $-1 $168 $168 $286 $287 forward $103 $-1 #
edge $-1 $288 0 $288 6.283185307179586232 $167 $289 forward 7 unknown #
loop $-1 $290 $291 $105 #
cone-surface $-1 102.7207976067948181 12.82816099485487982 11.57786524860961208 -0.8571673085369920786 0 -0.5150380618706241753 0.1287595154676560438 0 -0.2142918271342480196 1 I I -0.7071067811865474617 0.7071067811865474617 0.25 forward I I I I #
coedge $-1 $172 $172 $109 $174 forward $106 $-1 #
coedge $-1 $173 $173 $291 $292 forward $108 $-1 #
edge $-1 $293 0 $293 6.283185307179586232 $172 $294 forward 7 unknown #
loop $-1 $295 $296 $110 #
cone-surface $-1 102.7207976067948181 14.73577742024284554 11.57786524860961208 -0.8571673085369920786 0 -0.5150380618706241753 0.1287595154676560438 0 -0.2142918271342480196 1 I I -0.7071067811865474617 0.7071067811865474617 0.25 forward I I I I #
coedge $-1 $177 $177 $114 $179 forward $111 $-1 #
coedge $-1 $178 $178 $296 $297 forward $113 $-1 #
edge $-1 $298 0 $298 6.283185307179586232 $177 $299 forward 7 unknown #
face $-1 $300 $301 $20 $-1 $302 reversed single #
loop $-1 $-1 $303 $115 #
plane-surface $-1 0 25.4375720874282969 7.552475472571640758 1 0 0 0 0 -1 forward_v I I I I #
coedge $-1 $304 $191 $305 $306 forward $116 $-1 #
coedge $-1 $307 $118 $304 $308 forward $71 $-1 #
coedge $-1 $118 $307 $309 $310 forward $71 $-1 #
coedge $-1 $194 $193 $118 $187 reversed $195 $-1 #
edge $-1 $311 -25.4375720874282969 $312 25.4375720874282969 $186 $313 forward 7 unknown #
coedge $-1 $120 $119 $314 $315 forward $41 $-1 #
coedge $-1 $316 $317 $119 $190 reversed $301 $-1 #
edge $-1 $197 -52.82753990295113766 $318 52.82753990295113766 $189 $319 forward 7 unknown #
coedge $-1 $183 $320 $120 $192 reversed $116 $-1 #
edge $-1 $321 -52.82753990295113766 $196 52.82753990295113766 $191 $322 forward 7 unknown #
coedge $-1 $186 $121 $320 $323 forward $195 $-1 #
coedge $-1 $121 $186 $316 $324 reversed $195 $-1 #
loop $-1 $-1 $193 $300 #
vertex $-1 $122 $325 #
vertex $-1 $122 $326 #
straight-curve $-1 105.6550798059022753 25.4375720874282969 15.10495094514328152 0 1 0 I I #
face $-1 $327 $328 $21 $-1 $329 reversed single #
loop $-1 $-1 $330 $123 #
plane-surface $-1 0 3.448870066421377167 1.636319746160095345 1 0 0 0 0 -1 forward_v I I I I #
coedge $-1 $331 $210 $332 $333 forward $124 $-1 #
coedge $-1 $334 $126 $331 $335 forward $75 $-1 #
coedge $-1 $126 $334 $336 $337 forward $75 $-1 #
coedge $-1 $213 $212 $126 $206 reversed $214 $-1 #
edge $-1 $338 -3.448870066421377167 $339 3.448870066421377167 $205 $340 forward 7 unknown #
coedge $-1 $128 $127 $341 $342 forward $44 $-1 #
coedge $-1 $343 $344 $127 $209 reversed $328 $-1 #
edge $-1 $216 -52.82753990295113766 $345 52.82753990295113766 $208 $346 forward 7 unknown #
coedge $-1 $202 $347 $128 $211 reversed $124 $-1 #
edge $-1 $348 -52.82753990295113766 $215 52.82753990295113766 $210 $349 forward 7 unknown #
coedge $-1 $205 $129 $347 $350 forward $214 $-1 #
coedge $-1 $129 $205 $343 $351 reversed $214 $-1 #
loop $-1 $-1 $212 $327 #
vertex $-1 $130 $352 #
vertex $-1 $130 $353 #
straight-curve $-1 105.6550798059022753 3.448870066421377167 3.272639492320190691 0 1 0 I I #
face $-1 $354 $355 $22 $-1 $356 reversed single #
loop $-1 $-1 $357 $131 #
plane-surface $-1 0 47.42627410843521574 1.636319746160095345 1 0 0 0 0 -1 forward_v I I I I #
coedge $-1 $358 $229 $359 $360 forward $132 $-1 #
coedge $-1 $361 $134 $358 $362 forward $79 $-1 #
coedge $-1 $134 $361 $363 $364 forward $79 $-1 #
coedge $-1 $232 $231 $134 $225 reversed $233 $-1 #
edge $-1 $365 -3.448870066421378056 $366 3.448870066421378056 $224 $367 forward 7 unknown #
coedge $-1 $136 $135 $368 $369 forward $47 $-1 #
coedge $-1 $370 $371 $135 $228 reversed $355 $-1 #
edge $-1 $235 -52.82753990295113766 $372 52.82753990295113766 $227 $373 forward 7 unknown #
coedge $-1 $221 $374 $136 $230 reversed $132 $-1 #
edge $-1 $375 -52.82753990295113766 $234 52.82753990295113766 $229 $376 forward 7 unknown #
coedge $-1 $224 $137 $374 $377 forward $233 $-1 #
coedge $-1 $137 $224 $370 $378 reversed $233 $-1 #
loop $-1 $-1 $231 $354 #
vertex $-1 $138 $379 #
vertex $-1 $138 $380 #
straight-curve $-1 105.6550798059022753 47.42627410843521574 3.272639492320190691 0 1 0 I I #
face $-1 $381 $382 $23 $-1 $383 reversed single #
loop $-1 $-1 $384 $139 #
plane-surface $-1 -221.3844150311289241 12.21042993707889934 -72.65529011652201063 0.6819983511997929071 0 0.7313537098837770145 0.7313537098837770145 0 -0.6819983511997929071 forward_v I I I I #
coedge $-1 $385 $248 $386 $387 forward $140 $-1 #
coedge $-1 $388 $142 $385 $389 forward $83 $-1 #
coedge $-1 $142 $388 $390 $391 forward $83 $-1 #
coedge $-1 $251 $250 $142 $244 reversed $252 $-1 #
edge $-1 $392 -5.312689804236143232 $393 5.31268980423614412 $243 $394 forward 7 unknown #
coedge $-1 $144 $143 $395 $396 forward $50 $-1 #
coedge $-1 $397 $398 $143 $247 reversed $382 $-1 #
edge $-1 $254 -211.3101596118045507 $399 211.3101596118045222 $246 $400 forward 7 unknown #
coedge $-1 $240 $401 $144 $249 reversed $140 $-1 #
edge $-1 $402 -211.3101596118045222 $253 211.3101596118045507 $248 $403 forward 7 unknown #
coedge $-1 $243 $145 $401 $404 forward $252 $-1 #
coedge $-1 $145 $243 $397 $405 reversed $252 $-1 #
loop $-1 $-1 $250 $381 #
vertex $-1 $146 $406 #
vertex $-1 $146 $407 #
straight-curve $-1 -10.42928872121055406 12.21042993707889934 308.4862384434385376 0 1 0 I I #
loop $-1 $-1 $408 $86 #
coedge $-1 $257 $257 $150 $258 reversed $147 $-1 #
edge $-1 $409 0 $409 6.283185307179586232 $257 $410 forward 7 unknown #
vertex $-1 $151 $411 #
ellipse-curve $-1 2.459211062154890826 9.933562878120550721 12.46776988666985275 -0.7313537098837770145 0 0.6819983511997929071 0.6819983511997929071 0 0.7313537098837770145 1 I I #
loop $-1 $-1 $412 $91 #
coedge $-1 $262 $262 $155 $263 reversed $152 $-1 #
edge $-1 $413 0 $413 6.283185307179586232 $262 $414 forward 7 unknown #
vertex $-1 $156 $415 #
ellipse-curve $-1 2.459211062154890826 14.48729699603724619 12.46776988666985275 -0.7313537098837770145 0 0.6819983511997929071 0.6819983511997929071 0 0.7313537098837770145 1 I I #
face $-1 $416 $417 $26 $-1 $418 reversed single #
loop $-1 $-1 $419 $157 #
plane-surface $-1 32.96999760633454457 12.82816099485487982 335.692191515994125 0.5150380618706241753 0 -0.8571673085369920786 -0.8571673085369920786 0 -0.5150380618706241753 forward_v I I I I #
coedge $-1 $420 $277 $421 $422 forward $158 $-1 #
coedge $-1 $423 $160 $420 $424 forward $97 $-1 #
coedge $-1 $160 $423 $425 $426 forward $97 $-1 #
coedge $-1 $280 $279 $160 $273 reversed $281 $-1 #
edge $-1 $427 -3.179360708979942274 $428 3.179360708979942274 $272 $429 forward 7 unknown #
coedge $-1 $162 $161 $430 $431 forward $59 $-1 #
coedge $-1 $432 $433 $161 $276 reversed $417 $-1 #
edge $-1 $283 -211.3101596118045791 $434 211.3101596118045791 $275 $435 forward 7 unknown #
coedge $-1 $269 $436 $162 $278 reversed $158 $-1 #
edge $-1 $437 -211.3101596118045791 $282 211.3101596118045791 $277 $438 forward 7 unknown #
coedge $-1 $272 $163 $436 $439 forward $281 $-1 #
coedge $-1 $163 $272 $432 $440 reversed $281 $-1 #
loop $-1 $-1 $279 $416 #
vertex $-1 $164 $441 #
vertex $-1 $164 $442 #
straight-curve $-1 341.1996281168929954 12.82816099485487982 27.85225748406674029 0 1 0 I I #
loop $-1 $-1 $443 $100 #
coedge $-1 $286 $286 $168 $287 reversed $165 $-1 #
edge $-1 $444 0 $444 6.283185307179586232 $286 $445 forward 7 unknown #
vertex $-1 $169 $446 #
ellipse-curve $-1 103.9962875180309396 10.9205445694669141 12.34425687983014974 0.8571673085369920786 0 0.5150380618706241753 0.2575190309353120877 0 -0.4285836542684960393 1 I I #
loop $-1 $-1 $447 $105 #
coedge $-1 $291 $291 $173 $292 reversed $170 $-1 #
edge $-1 $448 0 $448 6.283185307179586232 $291 $449 forward 7 unknown #
vertex $-1 $174 $450 #
ellipse-curve $-1 103.9962875180309396 12.82816099485487982 12.34425687983014974 0.8571673085369920786 0 0.5150380618706241753 0.2575190309353120877 0 -0.4285836542684960393 1 I I #
loop $-1 $-1 $451 $110 #
coedge $-1 $296 $296 $178 $297 reversed $175 $-1 #
edge $-1 $452 0 $452 6.283185307179586232 $296 $453 forward 7 unknown #
vertex $-1 $179 $454 #
ellipse-curve $-1 103.9962875180309396 14.73577742024284554 12.34425687983014974 0.8571673085369920786 0 0.5150380618706241753 0.2575190309353120877 0 -0.4285836542684960393 1 I I #
face $-1 $-1 $195 $20 $-1 $455 reversed single #
loop $-1 $-1 $316 $180 #
plane-surface $-1 52.82753990295113766 50.87514417485659379 7.552475472571640758 0 -1 0 0 0 -1 forward_v I I I I #
coedge $-1 $456 $314 $317 $457 forward $181 $-1 #
coedge $-1 $320 $183 $184 $308 reversed $116 $-1 #
coedge $-1 $314 $456 $183 $306 reversed $181 $-1 #
edge $-1 $321 -7.552475472571640758 $458 7.552475472571640758 $305 $459 forward 7 unknown #
coedge $-1 $185 $184 $456 $460 forward $71 $-1 #
edge $-1 $312 -52.82753990295113766 $458 52.82753990295113766 $304 $461 forward 7 unknown #
coedge $-1 $317 $316 $185 $310 reversed $301 $-1 #
edge $-1 $462 -52.82753990295113766 $311 52.82753990295113766 $309 $463 forward 7 unknown #
vertex $-1 $187 $464 #
vertex $-1 $323 $465 #
straight-curve $-1 105.6550798059022753 25.4375720874282969 0 0 -1 0 I I #
coedge $-1 $303 $305 $188 $315 reversed $181 $-1 #
edge $-1 $318 -25.4375720874282969 $321 25.4375720874282969 $314 $466 forward 7 unknown #
coedge $-1 $309 $189 $194 $324 forward $301 $-1 #
coedge $-1 $189 $309 $303 $457 reversed $301 $-1 #
vertex $-1 $190 $467 #
straight-curve $-1 52.82753990295113766 50.87514417485659379 15.10495094514328152 -1 0 0 I I #
coedge $-1 $191 $304 $193 $323 reversed $116 $-1 #
vertex $-1 $315 $468 #
straight-curve $-1 52.82753990295113766 0 15.10495094514328152 1 0 0 I I #
edge $-1 $196 -7.552475472571640758 $312 7.552475472571640758 $193 $469 forward 7 unknown #
edge $-1 $197 -7.552475472571640758 $311 7.552475472571640758 $194 $470 forward 7 unknown #
point $-1 105.6550798059022753 0 15.10495094514328152 #
point $-1 105.6550798059022753 50.87514417485659379 15.10495094514328152 #
face $-1 $-1 $214 $21 $-1 $471 reversed single #
loop $-1 $-1 $343 $199 #
plane-surface $-1 52.82753990295113766 6.897740132842754335 1.636319746160095345 0 -1 0 0 0 -1 forward_v I I I I #
coedge $-1 $472 $341 $344 $473 forward $200 $-1 #
coedge $-1 $347 $202 $203 $335 reversed $124 $-1 #
coedge $-1 $341 $472 $202 $333 reversed $200 $-1 #
edge $-1 $348 -1.636319746160095345 $474 1.636319746160095345 $332 $475 forward 7 unknown #
coedge $-1 $204 $203 $472 $476 forward $75 $-1 #
edge $-1 $339 -52.82753990295113766 $474 52.82753990295113766 $331 $477 forward 7 unknown #
coedge $-1 $344 $343 $204 $337 reversed $328 $-1 #
edge $-1 $478 -52.82753990295113766 $338 52.82753990295113766 $336 $479 forward 7 unknown #
vertex $-1 $206 $480 #
vertex $-1 $350 $481 #
straight-curve $-1 105.6550798059022753 3.448870066421377167 0 0 -1 0 I I #
coedge $-1 $330 $332 $207 $342 reversed $200 $-1 #
edge $-1 $345 -3.448870066421377167 $348 3.448870066421377167 $341 $482 forward 7 unknown #
coedge $-1 $336 $208 $213 $351 forward $328 $-1 #
coedge $-1 $208 $336 $330 $473 reversed $328 $-1 #
vertex $-1 $209 $483 #
straight-curve $-1 52.82753990295113766 6.897740132842754335 3.272639492320190691 -1 0 0 I I #
coedge $-1 $210 $331 $212 $350 reversed $124 $-1 #
vertex $-1 $342 $484 #
straight-curve $-1 52.82753990295113766 0 3.272639492320190691 1 0 0 I I #
edge $-1 $215 -1.636319746160095345 $339 1.636319746160095345 $212 $485 forward 7 unknown #
edge $-1 $216 -1.636319746160095345 $338 1.636319746160095345 $213 $486 forward 7 unknown #
point $-1 105.6550798059022753 0 3.272639492320190691 #
point $-1 105.6550798059022753 6.897740132842754335 3.272639492320190691 #
face $-1 $-1 $233 $22 $-1 $487 reversed single #
loop $-1 $-1 $370 $218 #
plane-surface $-1 52.82753990295113766 50.87514417485659379 1.636319746160095345 0 -1 0 0 0 -1 forward_v I I I I #
coedge $-1 $488 $368 $371 $489 forward $219 $-1 #
coedge $-1 $374 $221 $222 $362 reversed $132 $-1 #
coedge $-1 $368 $488 $221 $360 reversed $219 $-1 #
edge $-1 $375 -1.636319746160095345 $490 1.636319746160095345 $359 $491 forward 7 unknown #
coedge $-1 $223 $222 $488 $492 forward $79 $-1 #
edge $-1 $366 -52.82753990295113766 $490 52.82753990295113766 $358 $493 forward 7 unknown #
coedge $-1 $371 $370 $223 $364 reversed $355 $-1 #
edge $-1 $494 -52.82753990295113766 $365 52.82753990295113766 $363 $495 forward 7 unknown #
vertex $-1 $225 $496 #
vertex $-1 $377 $497 #
straight-curve $-1 105.6550798059022753 47.42627410843521574 0 0 -1 0 I I #
coedge $-1 $357 $359 $226 $369 reversed $219 $-1 #
edge $-1 $372 -3.448870066421378056 $375 3.448870066421378056 $368 $498 forward 7 unknown #
coedge $-1 $363 $227 $232 $378 forward $355 $-1 #
coedge $-1 $227 $363 $357 $489 reversed $355 $-1 #
vertex $-1 $228 $499 #
straight-curve $-1 52.82753990295113766 50.87514417485659379 3.272639492320190691 -1 0 0 I I #
coedge $-1 $229 $358 $231 $377 reversed $132 $-1 #
vertex $-1 $369 $500 #
straight-curve $-1 52.82753990295113766 43.97740404201383768 3.272639492320190691 1 0 0 I I #
edge $-1 $234 -1.636319746160095345 $366 1.636319746160095345 $231 $501 forward 7 unknown #
edge $-1 $235 -1.636319746160095345 $365 1.636319746160095345 $232 $502 forward 7 unknown #
point $-1 105.6550798059022753 43.97740404201383768 3.272639492320190691 #
point $-1 105.6550798059022753 50.87514417485659379 3.272639492320190691 #
face $-1 $-1 $252 $23 $-1 $503 reversed single #
loop $-1 $-1 $397 $237 #
plane-surface $-1 -77.27123458411315937 17.52311974131504257 81.88717905170430811 0 -1 0 0.7313537098837770145 0 -0.6819983511997929071 forward_v I I I I #
coedge $-1 $504 $395 $398 $505 forward $238 $-1 #
coedge $-1 $401 $240 $241 $389 reversed $140 $-1 #
coedge $-1 $395 $504 $240 $387 reversed $238 $-1 #
edge $-1 $402 -105.6550798059022469 $506 105.6550798059022611 $386 $507 forward 7 unknown #
coedge $-1 $242 $241 $504 $508 forward $83 $-1 #
edge $-1 $393 -211.3101596118045222 $506 211.3101596118045222 $385 $509 forward 7 unknown #
coedge $-1 $398 $397 $242 $391 reversed $382 $-1 #
edge $-1 $510 -211.3101596118045222 $392 211.3101596118045222 $390 $511 forward 7 unknown #
vertex $-1 $244 $512 #
vertex $-1 $404 $513 #
straight-curve $-1 144.1131804470157647 12.21042993707889934 164.3730579964227445 0 -1 0 I I #
coedge $-1 $384 $386 $245 $396 reversed $238 $-1 #
edge $-1 $399 -5.312689804236143232 $402 5.31268980423614412 $395 $514 forward 7 unknown #
coedge $-1 $390 $246 $251 $405 forward $382 $-1 #
coedge $-1 $246 $390 $384 $505 reversed $382 $-1 #
vertex $-1 $247 $515 #
straight-curve $-1 -154.5424691682263187 17.52311974131504257 153.9437692752121905 -0.6819983511997929071 0 -0.7313537098837770145 I I #
coedge $-1 $248 $385 $250 $404 reversed $140 $-1 #
vertex $-1 $396 $516 #
straight-curve $-1 -154.5424691682263187 6.897740132842755223 153.9437692752121905 0.6819983511997929071 0 0.7313537098837770145 I I #
edge $-1 $253 -105.6550798059022753 $393 105.6550798059022753 $250 $517 forward 7 unknown #
edge $-1 $254 -105.6550798059022753 $392 105.6550798059022753 $251 $518 forward 7 unknown #
point $-1 -10.42928872121055406 6.897740132842755223 308.4862384434385376 #
point $-1 -10.42928872121055406 17.52311974131504257 308.4862384434385376 #
coedge $-1 $408 $408 $-1 $519 reversed $256 $-1 #
vertex $-1 $258 $520 #
ellipse-curve $-1 3.970106984368170444 9.933562878120550721 11.05883667985300534 -0.7313537098837770145 0 0.6819983511997929071 0.6819983511997929071 0 0.7313537098837770145 1 I I #
point $-1 3.141209413354683733 9.933562878120550721 13.19912359655362977 #
coedge $-1 $412 $412 $-1 $521 reversed $261 $-1 #
vertex $-1 $263 $522 #
ellipse-curve $-1 3.970106984368170444 14.48729699603724619 11.05883667985300534 -0.7313537098837770145 0 0.6819983511997929071 0.6819983511997929071 0 0.7313537098837770145 1 I I #
point $-1 3.141209413354683733 14.48729699603724619 13.19912359655362977 #
face $-1 $-1 $281 $26 $-1 $523 reversed single #
loop $-1 $-1 $432 $266 #
plane-surface $-1 141.8027726663706005 16.00752170383482209 154.5640307350214186 0 -1 0 -0.8571673085369920786 0 -0.5150380618706241753 forward_v I I I I #
coedge $-1 $524 $430 $433 $525 forward $267 $-1 #
coedge $-1 $436 $269 $270 $424 reversed $158 $-1 #
coedge $-1 $430 $524 $269 $422 reversed $267 $-1 #
edge $-1 $437 -105.6550798059022753 $526 105.6550798059022753 $421 $527 forward 7 unknown #
coedge $-1 $271 $270 $524 $528 forward $97 $-1 #
edge $-1 $428 -211.3101596118045791 $526 211.3101596118045791 $420 $529 forward 7 unknown #
coedge $-1 $433 $432 $271 $426 reversed $417 $-1 #
edge $-1 $530 -211.3101596118045791 $427 211.3101596118045791 $425 $531 forward 7 unknown #
vertex $-1 $273 $532 #
vertex $-1 $439 $533 #
straight-curve $-1 160.0714673359203175 12.82816099485487982 -80.98051757596931566 0 -1 0 I I #
coedge $-1 $419 $421 $274 $431 reversed $267 $-1 #
edge $-1 $434 -3.179360708979942274 $437 3.179360708979942274 $430 $534 forward 7 unknown #
coedge $-1 $425 $275 $280 $440 forward $417 $-1 #
coedge $-1 $275 $425 $419 $525 reversed $417 $-1 #
vertex $-1 $276 $535 #
straight-curve $-1 232.3668530568569395 16.00752170383482209 208.9804182650394466 -0.5150380618706241753 0 0.8571673085369920786 I I #
coedge $-1 $277 $420 $279 $439 reversed $158 $-1 #
vertex $-1 $431 $536 #
straight-curve $-1 232.3668530568569395 9.648800285874937543 208.9804182650394466 0.5150380618706241753 0 -0.8571673085369920786 I I #
edge $-1 $282 -105.6550798059022753 $428 105.6550798059022753 $279 $537 forward 7 unknown #
edge $-1 $283 -105.6550798059022753 $427 105.6550798059022753 $280 $538 forward 7 unknown #
point $-1 341.1996281168929954 9.648800285874937543 27.85225748406674029 #
point $-1 341.1996281168929954 16.00752170383482209 27.85225748406674029 #
coedge $-1 $443 $443 $-1 $539 reversed $285 $-1 #
vertex $-1 $287 $540 #
ellipse-curve $-1 102.9350894339290647 10.9205445694669141 11.70662476407726871 0.8571673085369920786 0 0.5150380618706241753 0.2575190309353120877 0 -0.4285836542684960393 1 I I #
point $-1 104.2538065489662529 10.9205445694669141 11.91567322556165465 #
coedge $-1 $447 $447 $-1 $541 reversed $290 $-1 #
vertex $-1 $292 $542 #
ellipse-curve $-1 102.9350894339290647 12.82816099485487982 11.70662476407726871 0.8571673085369920786 0 0.5150380618706241753 0.2575190309353120877 0 -0.4285836542684960393 1 I I #
point $-1 104.2538065489662529 12.82816099485487982 11.91567322556165465 #
coedge $-1 $451 $451 $-1 $543 reversed $295 $-1 #
vertex $-1 $297 $544 #
ellipse-curve $-1 102.9350894339290647 14.73577742024284554 11.70662476407726871 0.8571673085369920786 0 0.5150380618706241753 0.2575190309353120877 0 -0.4285836542684960393 1 I I #
point $-1 104.2538065489662529 14.73577742024284554 11.91567322556165465 #
plane-surface $-1 105.6550798059022753 25.4375720874282969 7.552475472571640758 -1 0 0 0 0 1 forward_v I I I I #
coedge $-1 $305 $303 $307 $460 reversed $181 $-1 #
edge $-1 $318 -7.552475472571640758 $462 7.552475472571640758 $317 $545 forward 7 unknown #
vertex $-1 $460 $546 #
straight-curve $-1 0 0 7.552475472571640758 0 0 -1 I I #
edge $-1 $458 -25.4375720874282969 $462 25.4375720874282969 $456 $547 forward 7 unknown #
straight-curve $-1 52.82753990295113766 0 0 -1 0 0 I I #
vertex $-1 $310 $548 #
straight-curve $-1 52.82753990295113766 50.87514417485659379 0 1 0 0 I I #
point $-1 105.6550798059022753 50.87514417485659379 0 #
point $-1 105.6550798059022753 0 0 #
straight-curve $-1 0 25.4375720874282969 15.10495094514328152 0 -1 0 I I #
point $-1 0 50.87514417485659379 15.10495094514328152 #
point $-1 0 0 15.10495094514328152 #
straight-curve $-1 105.6550798059022753 0 7.552475472571640758 0 0 -1 I I #
straight-curve $-1 105.6550798059022753 50.87514417485659379 7.552475472571640758 0 0 -1 I I #
plane-surface $-1 105.6550798059022753 3.448870066421377167 1.636319746160095345 -1 0 0 0 0 1 forward_v I I I I #
coedge $-1 $332 $330 $334 $476 reversed $200 $-1 #
edge $-1 $345 -1.636319746160095345 $478 1.636319746160095345 $344 $549 forward 7 unknown #
vertex $-1 $476 $550 #
straight-curve $-1 0 0 1.636319746160095345 0 0 -1 I I #
edge $-1 $474 -3.448870066421377167 $478 3.448870066421377167 $472 $551 forward 7 unknown #
straight-curve $-1 52.82753990295113766 0 0 -1 0 0 I I #
vertex $-1 $337 $552 #
straight-curve $-1 52.82753990295113766 6.897740132842754335 0 1 0 0 I I #
point $-1 105.6550798059022753 6.897740132842754335 0 #
point $-1 105.6550798059022753 0 0 #
straight-curve $-1 0 3.448870066421377167 3.272639492320190691 0 -1 0 I I #
point $-1 0 6.897740132842754335 3.272639492320190691 #
point $-1 0 0 3.272639492320190691 #
straight-curve $-1 105.6550798059022753 0 1.636319746160095345 0 0 -1 I I #
straight-curve $-1 105.6550798059022753 6.897740132842754335 1.636319746160095345 0 0 -1 I I #
plane-surface $-1 105.6550798059022753 47.42627410843521574 1.636319746160095345 -1 0 0 0 0 1 forward_v I I I I #
coedge $-1 $359 $357 $361 $492 reversed $219 $-1 #
edge $-1 $372 -1.636319746160095345 $494 1.636319746160095345 $371 $553 forward 7 unknown #
vertex $-1 $492 $554 #
straight-curve $-1 0 43.97740404201383768 1.636319746160095345 0 0 -1 I I #
edge $-1 $490 -3.448870066421378056 $494 3.448870066421378056 $488 $555 forward 7 unknown #
straight-curve $-1 52.82753990295113766 43.97740404201383768 0 -1 0 0 I I #
vertex $-1 $364 $556 #
straight-curve $-1 52.82753990295113766 50.87514417485659379 0 1 0 0 I I #
point $-1 105.6550798059022753 50.87514417485659379 0 #
point $-1 105.6550798059022753 43.97740404201383768 0 #
straight-curve $-1 0 47.42627410843521574 3.272639492320190691 0 -1 0 I I #
point $-1 0 50.87514417485659379 3.272639492320190691 #
point $-1 0 43.97740404201383768 3.272639492320190691 #
straight-curve $-1 105.6550798059022753 43.97740404201383768 1.636319746160095345 0 0 -1 I I #
straight-curve $-1 105.6550798059022753 50.87514417485659379 1.636319746160095345 0 0 -1 I I #
plane-surface $-1 66.84194586290260531 12.21042993707889934 236.4296482199306411 -0.6819983511997929071 0 -0.7313537098837770145 -0.7313537098837770145 0 0.6819983511997929071 forward_v I I I I #
coedge $-1 $386 $384 $388 $508 reversed $238 $-1 #
edge $-1 $399 -105.6550798059022469 $510 105.6550798059022611 $398 $557 forward 7 unknown #
vertex $-1 $508 $558 #
straight-curve $-1 -221.3844150311289241 6.897740132842755223 -72.65529011652201063 0.7313537098837770145 0 -0.6819983511997929071 I I #
edge $-1 $506 -5.31268980423614412 $510 5.312689804236143232 $504 $559 forward 7 unknown #
straight-curve $-1 0 6.897740132842755223 9.830588828196425766 -0.6819983511997929071 0 -0.7313537098837770145 I I #
vertex $-1 $391 $560 #
straight-curve $-1 0 17.52311974131504257 9.830588828196425766 0.6819983511997929071 0 0.7313537098837770145 I I #
point $-1 144.1131804470157647 17.52311974131504257 164.3730579964227445 #
point $-1 144.1131804470157647 6.897740132842755223 164.3730579964227445 #
straight-curve $-1 -298.655649615242055 12.21042993707889934 -0.5986998930141282926 0 -1 0 I I #
point $-1 -298.655649615242055 17.52311974131504257 -0.5986998930141282926 #
point $-1 -298.655649615242055 6.897740132842755223 -0.5986998930141282926 #
straight-curve $-1 66.84194586290260531 6.897740132842755223 236.4296482199306411 0.7313537098837770145 0 -0.6819983511997929071 I I #
straight-curve $-1 66.84194586290260531 17.52311974131504257 236.4296482199306411 0.7313537098837770145 0 -0.6819983511997929071 I I #
edge $-1 $561 1 $561 0 $408 $-1 forward 7 unknown #
point $-1 4.652105335567963351 9.933562878120550721 11.79019038973678235 #
edge $-1 $562 1 $562 0 $412 $-1 forward 7 unknown #
point $-1 4.652105335567963351 14.48729699603724619 11.79019038973678235 #
plane-surface $-1 250.6355477264066565 12.82816099485487982 -26.56413004595128768 -0.5150380618706241753 0 0.8571673085369920786 0.8571673085369920786 0 0.5150380618706241753 forward_v I I I I #
coedge $-1 $421 $419 $423 $528 reversed $267 $-1 #
edge $-1 $434 -105.6550798059022753 $530 105.6550798059022753 $433 $563 forward 7 unknown #
vertex $-1 $528 $564 #
straight-curve $-1 32.96999760633454457 9.648800285874937543 335.692191515994125 -0.8571673085369920786 0 -0.5150380618706241753 I I #
edge $-1 $526 -3.179360708979942274 $530 3.179360708979942274 $524 $565 forward 7 unknown #
straight-curve $-1 51.23869227588426156 9.648800285874937543 100.1476432050033907 -0.5150380618706241753 0 0.8571673085369920786 I I #
vertex $-1 $426 $566 #
straight-curve $-1 51.23869227588426156 16.00752170383482209 100.1476432050033907 0.5150380618706241753 0 -0.8571673085369920786 I I #
point $-1 160.0714673359203175 16.00752170383482209 -80.98051757596931566 #
point $-1 160.0714673359203175 9.648800285874937543 -80.98051757596931566 #
straight-curve $-1 123.5340779968208835 12.82816099485487982 390.108579046012153 0 -1 0 I I #
point $-1 123.5340779968208835 16.00752170383482209 390.108579046012153 #
point $-1 123.5340779968208835 9.648800285874937543 390.108579046012153 #
straight-curve $-1 250.6355477264066565 9.648800285874937543 -26.56413004595128768 -0.8571673085369920786 0 -0.5150380618706241753 I I #
straight-curve $-1 250.6355477264066565 16.00752170383482209 -26.56413004595128768 -0.8571673085369920786 0 -0.5150380618706241753 I I #
edge $-1 $567 1 $567 0 $443 $-1 forward 7 unknown #
point $-1 103.192608464864378 10.9205445694669141 11.27804110980877184 #
edge $-1 $568 1 $568 0 $447 $-1 forward 7 unknown #
point $-1 103.192608464864378 12.82816099485487982 11.27804110980877184 #
edge $-1 $569 1 $569 0 $451 $-1 forward 7 unknown #
point $-1 103.192608464864378 14.73577742024284554 11.27804110980877184 #
straight-curve $-1 0 50.87514417485659379 7.552475472571640758 0 0 -1 I I #
point $-1 0 0 0 #
straight-curve $-1 0 25.4375720874282969 0 0 1 0 I I #
point $-1 0 50.87514417485659379 0 #
straight-curve $-1 0 6.897740132842754335 1.636319746160095345 0 0 -1 I I #
point $-1 0 0 0 #
straight-curve $-1 0 3.448870066421377167 0 0 1 0 I I #
point $-1 0 6.897740132842754335 0 #
straight-curve $-1 0 50.87514417485659379 1.636319746160095345 0 0 -1 I I #
point $-1 0 43.97740404201383768 0 #
straight-curve $-1 0 47.42627410843521574 0 0 1 0 I I #
point $-1 0 50.87514417485659379 0 #
straight-curve $-1 -221.3844150311289241 17.52311974131504257 -72.65529011652201063 0.7313537098837770145 0 -0.6819983511997929071 I I #
point $-1 -144.1131804470157647 6.897740132842755223 -144.711880340029893 #
straight-curve $-1 -144.1131804470157647 12.21042993707889934 -144.711880340029893 0 1 0 I I #
point $-1 -144.1131804470157647 17.52311974131504257 -144.711880340029893 #
vertex $-1 $519 $570 #
vertex $-1 $521 $571 #
straight-curve $-1 32.96999760633454457 16.00752170383482209 335.692191515994125 -0.8571673085369920786 0 -0.5150380618706241753 I I #
point $-1 -57.59408278415179439 9.648800285874937543 281.275803985976097 #
straight-curve $-1 -57.59408278415179439 12.82816099485487982 281.275803985976097 0 1 0 I I #
point $-1 -57.59408278415179439 16.00752170383482209 281.275803985976097 #
vertex $-1 $539 $572 #
vertex $-1 $541 $573 #
vertex $-1 $543 $574 #
point $-1 4.701460694251947459 9.933562878120550721 10.37683832865321421 #
point $-1 4.701460694251947459 14.48729699603724619 10.37683832865321421 #
point $-1 102.5065057796605714 10.9205445694669141 11.44910573314195545 #
point $-1 102.5065057796605714 12.82816099485487982 11.44910573314195545 #
point $-1 102.5065057796605714 14.73577742024284554 11.44910573314195545 #
End-of-ACIS-data 