500 0 9 0           
7 Unknown 11 ACIS 5.0 NT 24 Fri Mar 26 01:45:03 1999 
-1 9.9999999999999995e-007 1e-010 
body $-1 $9 $-1 $10 #
body $-1 $11 $-1 $12 #
body $-1 $13 $-1 $14 #
body $-1 $15 $-1 $16 #
body $-1 $17 $-1 $18 #
body $-1 $19 $-1 $20 #
body $-1 $21 $-1 $22 #
body $-1 $23 $-1 $24 #
body $-1 $25 $-1 $26 #
lump $-1 $-1 $27 $0 #
transform $-1 1 0 0 0 1 0 0 0 1 42.537919248023925 17.274546838763243 5.4116404705925065 1 rotate no_reflect no_shear #
lump $-1 $-1 $28 $1 #
transform $-1 1 0 0 0 1 0 0 0 1 42.537919248023925 17.274546838763243 5.4116404705925065 1 rotate no_reflect no_shear #
lump $-1 $-1 $29 $2 #
transform $-1 1 0 0 0 1 0 0 0 1 42.537919248023925 17.274546838763243 5.4116404705925065 1 rotate no_reflect no_shear #
lump $-1 $-1 $30 $3 #
transform $-1 1 0 0 0 1 0 0 0 1 42.537919248023925 17.274546838763243 5.4116404705925065 1 rotate no_reflect no_shear #
lump $-1 $-1 $31 $4 #
transform $-1 1 0 0 0 1 0 0 0 1 42.537919248023925 17.274546838763243 5.4116404705925065 1 rotate no_reflect no_shear #
lump $-1 $-1 $32 $5 #
transform $-1 1 0 0 0 1 0 0 0 1 42.537919248023925 17.274546838763243 5.4116404705925065 1 rotate no_reflect no_shear #
lump $-1 $-1 $33 $6 #
transform $-1 1 0 0 0 1 0 0 0 1 42.537919248023925 17.274546838763243 5.4116404705925065 1 rotate no_reflect no_shear #
lump $-1 $-1 $34 $7 #
transform $-1 1 0 0 0 1 0 0 0 1 42.537919248023925 17.274546838763243 5.4116404705925065 1 rotate no_reflect no_shear #
lump $-1 $-1 $35 $8 #
transform $-1 1 0 0 0 1 0 0 0 1 42.537919248023925 17.274546838763243 5.4116404705925065 1 rotate no_reflect no_shear #
shell $-1 $-1 $-1 $36 $-1 $9 #
shell $-1 $-1 $-1 $37 $-1 $11 #
shell $-1 $-1 $-1 $38 $-1 $13 #
shell $-1 $-1 $-1 $39 $-1 $15 #
shell $-1 $-1 $-1 $40 $-1 $17 #
shell $-1 $-1 $-1 $41 $-1 $19 #
shell $-1 $-1 $-1 $42 $-1 $21 #
shell $-1 $-1 $-1 $43 $-1 $23 #
shell $-1 $-1 $-1 $44 $-1 $25 #
face $-1 $45 $46 $27 $-1 $47 forward single #
face $-1 $48 $49 $28 $-1 $50 forward single #
face $-1 $51 $52 $29 $-1 $53 reversed single #
face $-1 $54 $55 $30 $-1 $56 forward single #
face $-1 $57 $58 $31 $-1 $59 forward single #
face $-1 $60 $61 $32 $-1 $62 reversed single #
face $-1 $63 $64 $33 $-1 $65 forward single #
face $-1 $66 $67 $34 $-1 $68 forward single #
face $-1 $69 $70 $35 $-1 $71 forward single #
face $-1 $72 $73 $27 $-1 $74 reversed single #
loop $-1 $-1 $75 $36 #
plane-surface $-1 0 0 5.4116404705925065 0 0 1 1 0 0 forward_v I I I I #
face $-1 $76 $77 $28 $-1 $78 reversed single #
loop $-1 $-1 $79 $37 #
plane-surface $-1 0 -17.274546838763243 0 0 1 0 0 0 1 forward_v I I I I #
face $-1 $80 $81 $29 $-1 $82 reversed single #
loop $-1 $-1 $83 $38 #
plane-surface $-1 59.282588831974024 9.1953218351927735 120.8197789020365 0 1 0 0.79863551827123203 0 0.60181501223851219 forward_v I I I I #
face $-1 $84 $85 $30 $-1 $86 forward single #
loop $-1 $87 $88 $39 #
cone-surface $-1 40.478111975875393 11.503671836212909 3.052117576780315 -0.79863551827123203 0 -0.60181501223851219 0.3009075061192561 0 -0.39931775913561601 1 I I 0 1 0.5 forward I I I I #
face $-1 $89 $90 $31 $-1 $91 forward single #
loop $-1 $92 $93 $40 #
cone-surface $-1 40.478111975875393 14.966196837743112 3.052117576780315 -0.79863551827123203 0 -0.60181501223851219 0.3009075061192561 0 -0.39931775913561601 1 I I 0 1 0.5 forward I I I I #
face $-1 $94 $95 $32 $-1 $96 reversed single #
loop $-1 $-1 $97 $41 #
plane-surface $-1 -105.76158910404217 -10.606214019062985 57.075002757741316 0 1 0 -0.74314483375859142 0 0.66913059716165679 forward_v I I I I #
face $-1 $98 $99 $33 $-1 $100 forward single #
loop $-1 $101 $102 $42 #
cone-surface $-1 -39.669590366195244 -9.1295083283702443 2.330868934149152 0.74314483375859142 0 -0.66913059716165679 0.3345652985808284 0 0.37157241687929571 1 I I 0 1 0.5 forward I I I I #
face $-1 $103 $104 $34 $-1 $105 forward single #
loop $-1 $106 $107 $43 #
cone-surface $-1 -39.669590366195244 -6.9144497923311317 2.330868934149152 0.74314483375859142 0 -0.66913059716165679 0.3345652985808284 0 0.37157241687929571 1 I I 0 1 0.5 forward I I I I #
face $-1 $108 $109 $35 $-1 $110 forward single #
loop $-1 $111 $112 $44 #
cone-surface $-1 -39.669590366195244 -4.699391256292019 2.330868934149152 0.74314483375859142 0 -0.66913059716165679 0.3345652985808284 0 0.37157241687929571 1 I I 0 1 0.5 forward I I I I #
face $-1 $113 $114 $27 $-1 $115 reversed single #
loop $-1 $-1 $116 $45 #
plane-surface $-1 0 0 -5.4116404705925065 0 0 1 1 0 0 forward_v I I I I #
coedge $-1 $117 $118 $119 $120 forward $46 $-1 #
face $-1 $121 $122 $28 $-1 $123 forward single #
loop $-1 $-1 $124 $48 #
plane-surface $-1 -42.537919248023925 0 0 1 0 0 0 0 -1 forward_v I I I I #
coedge $-1 $125 $126 $127 $128 forward $49 $-1 #
face $-1 $129 $130 $29 $-1 $131 forward single #
loop $-1 $-1 $132 $51 #
plane-surface $-1 -8.6619975376767826 13.234934336978007 69.619862116335781 0.79863551827123203 0 0.60181501223851219 0.60181501223851219 0 -0.79863551827123203 forward_v I I I I #
coedge $-1 $133 $134 $135 $136 reversed $52 $-1 #
face $-1 $-1 $137 $30 $-1 $138 forward single #
loop $-1 $139 $140 $54 #
cone-surface $-1 39.62642216931421 11.503671836212909 2.4103232918622721 -0.79863551827123203 0 -0.60181501223851219 0.15045375305962805 0 -0.19965887956780801 1 I I -0.70710678118654746 0.70710678118654746 0.25 forward I I I I #
loop $-1 $-1 $141 $39 #
coedge $-1 $88 $88 $142 $143 reversed $55 $-1 #
face $-1 $-1 $144 $31 $-1 $145 forward single #
loop $-1 $146 $147 $57 #
cone-surface $-1 39.62642216931421 14.966196837743112 2.4103232918622721 -0.79863551827123203 0 -0.60181501223851219 0.15045375305962805 0 -0.19965887956780801 1 I I -0.70710678118654746 0.70710678118654746 0.25 forward I I I I #
loop $-1 $-1 $148 $40 #
coedge $-1 $93 $93 $149 $150 reversed $58 $-1 #
face $-1 $151 $152 $32 $-1 $153 reversed single #
loop $-1 $-1 $154 $60 #
plane-surface $-1 -42.537919248023918 -6.9144497923311299 0.14815614085215145 -0.74314483375859142 0 0.66913059716165679 0.66913059716165679 0 0.74314483375859142 forward_v I I I I #
coedge $-1 $155 $156 $157 $158 reversed $61 $-1 #
face $-1 $-1 $159 $33 $-1 $160 forward single #
loop $-1 $161 $162 $63 #
cone-surface $-1 -38.985106505748725 -9.1295083283702443 1.7145569132855583 0.74314483375859142 0 -0.66913059716165679 0.1672826492904142 0 0.18578620843964785 1 I I -0.70710678118654746 0.70710678118654746 0.25 forward I I I I #
loop $-1 $-1 $163 $42 #
coedge $-1 $102 $102 $164 $165 reversed $64 $-1 #
face $-1 $-1 $166 $34 $-1 $167 forward single #
loop $-1 $168 $169 $66 #
cone-surface $-1 -38.985106505748725 -6.9144497923311317 1.7145569132855583 0.74314483375859142 0 -0.66913059716165679 0.1672826492904142 0 0.18578620843964785 1 I I -0.70710678118654746 0.70710678118654746 0.25 forward I I I I #
loop $-1 $-1 $170 $43 #
coedge $-1 $107 $107 $171 $172 reversed $67 $-1 #
face $-1 $-1 $173 $35 $-1 $174 forward single #
loop $-1 $175 $176 $69 #
cone-surface $-1 -38.985106505748725 -4.699391256292019 1.7145569132855583 0.74314483375859142 0 -0.66913059716165679 0.1672826492904142 0 0.18578620843964785 1 I I -0.70710678118654746 0.70710678118654746 0.25 forward I I I I #
loop $-1 $-1 $177 $44 #
coedge $-1 $112 $112 $178 $179 reversed $70 $-1 #
face $-1 $180 $181 $27 $-1 $182 reversed single #
loop $-1 $-1 $183 $72 #
plane-surface $-1 0 -17.274546838763243 0 0 1 0 0 0 1 forward_v I I I I #
coedge $-1 $184 $185 $186 $187 forward $73 $-1 #
coedge $-1 $188 $75 $189 $190 forward $46 $-1 #
coedge $-1 $75 $188 $191 $192 forward $46 $-1 #
coedge $-1 $193 $194 $75 $120 reversed $195 $-1 #
edge $-1 $196 -17.274546838763243 $197 17.274546838763243 $119 $198 forward 7 unknown #
face $-1 $199 $200 $28 $-1 $201 reversed single #
loop $-1 $-1 $202 $76 #
plane-surface $-1 0 -20.60871324861337 2.5766651022148448 0 0 1 1 0 0 forward_v I I I I #
coedge $-1 $203 $204 $126 $205 forward $77 $-1 #
coedge $-1 $206 $79 $207 $208 reversed $49 $-1 #
coedge $-1 $79 $206 $124 $205 reversed $49 $-1 #
coedge $-1 $209 $202 $79 $128 reversed $122 $-1 #
edge $-1 $210 -42.537919248023925 $211 42.537919248023925 $127 $212 forward 7 unknown #
face $-1 $213 $214 $29 $-1 $215 reversed single #
loop $-1 $-1 $216 $80 #
plane-surface $-1 0 0 5.4116404705925065 0 0 1 1 0 0 forward_v I I I I #
coedge $-1 $217 $218 $219 $220 reversed $81 $-1 #
coedge $-1 $134 $83 $221 $222 reversed $52 $-1 #
coedge $-1 $83 $133 $217 $223 reversed $52 $-1 #
coedge $-1 $219 $224 $83 $136 forward $214 $-1 #
edge $-1 $225 54.998248980425743 $226 58.734613704333249 $135 $227 forward 7 unknown #
loop $-1 $-1 $142 $84 #
plane-surface $-1 -8.6619975376767826 13.234934336978007 69.619862116335781 0.79863551827123203 0 0.60181501223851219 0.60181501223851219 0 -0.79863551827123203 forward_v I I I I #
loop $-1 $-1 $228 $54 #
coedge $-1 $140 $140 $141 $229 reversed $85 $-1 #
coedge $-1 $141 $141 $140 $229 forward $87 $-1 #
coedge $-1 $142 $142 $88 $143 forward $137 $-1 #
edge $-1 $230 0 $230 6.2831853071796004 $142 $231 forward 7 unknown #
loop $-1 $-1 $149 $89 #
plane-surface $-1 -8.6619975376767826 13.234934336978007 69.619862116335781 0.79863551827123203 0 0.60181501223851219 0.60181501223851219 0 -0.79863551827123203 forward_v I I I I #
loop $-1 $-1 $232 $57 #
coedge $-1 $147 $147 $148 $233 reversed $90 $-1 #
coedge $-1 $148 $148 $147 $233 forward $92 $-1 #
coedge $-1 $149 $149 $93 $150 forward $144 $-1 #
edge $-1 $234 0 $234 6.2831853071796004 $149 $235 forward 7 unknown #
face $-1 $236 $237 $32 $-1 $238 reversed single #
loop $-1 $-1 $239 $94 #
plane-surface $-1 -105.76158910404217 -3.2226855655992752 57.075002757741316 0 -1 0 0.74314483375859142 0 -0.66913059716165679 forward_v I I I I #
coedge $-1 $240 $241 $242 $243 reversed $95 $-1 #
coedge $-1 $156 $97 $244 $245 reversed $61 $-1 #
coedge $-1 $97 $155 $240 $246 reversed $61 $-1 #
coedge $-1 $242 $247 $97 $158 forward $248 $-1 #
edge $-1 $249 10.342875303997161 $250 15.08213776364078 $157 $251 forward 7 unknown #
loop $-1 $-1 $164 $98 #
plane-surface $-1 -42.537919248023918 -6.9144497923311299 0.14815614085215145 -0.74314483375859142 0 0.66913059716165679 0.66913059716165679 0 0.74314483375859142 forward_v I I I I #
loop $-1 $-1 $252 $63 #
coedge $-1 $162 $162 $163 $253 reversed $99 $-1 #
coedge $-1 $163 $163 $162 $253 forward $101 $-1 #
coedge $-1 $164 $164 $102 $165 forward $159 $-1 #
edge $-1 $254 0 $254 6.2831853071796004 $164 $255 forward 7 unknown #
loop $-1 $-1 $171 $103 #
plane-surface $-1 -42.537919248023918 -6.9144497923311299 0.14815614085215145 -0.74314483375859142 0 0.66913059716165679 0.66913059716165679 0 0.74314483375859142 forward_v I I I I #
loop $-1 $-1 $256 $66 #
coedge $-1 $169 $169 $170 $257 reversed $104 $-1 #
coedge $-1 $170 $170 $169 $257 forward $106 $-1 #
coedge $-1 $171 $171 $107 $172 forward $166 $-1 #
edge $-1 $258 0 $258 6.2831853071796004 $171 $259 forward 7 unknown #
loop $-1 $-1 $178 $108 #
plane-surface $-1 -42.537919248023918 -6.9144497923311299 0.14815614085215145 -0.74314483375859142 0 0.66913059716165679 0.66913059716165679 0 0.74314483375859142 forward_v I I I I #
loop $-1 $-1 $260 $69 #
coedge $-1 $176 $176 $177 $261 reversed $109 $-1 #
coedge $-1 $177 $177 $176 $261 forward $111 $-1 #
coedge $-1 $178 $178 $112 $179 forward $173 $-1 #
edge $-1 $262 0 $262 6.2831853071796004 $178 $263 forward 7 unknown #
face $-1 $264 $265 $27 $-1 $266 reversed single #
loop $-1 $-1 $267 $113 #
plane-surface $-1 -42.537919248023925 0 0 1 0 0 0 0 -1 forward_v I I I I #
coedge $-1 $268 $191 $269 $270 forward $114 $-1 #
coedge $-1 $271 $116 $268 $272 forward $73 $-1 #
coedge $-1 $116 $271 $273 $274 forward $73 $-1 #
coedge $-1 $194 $193 $116 $187 reversed $195 $-1 #
edge $-1 $275 -17.274546838763243 $276 17.274546838763243 $186 $277 forward 7 unknown #
coedge $-1 $118 $117 $278 $279 forward $46 $-1 #
coedge $-1 $280 $281 $117 $190 reversed $265 $-1 #
edge $-1 $197 -42.537919248023925 $282 42.537919248023925 $189 $283 forward 7 unknown #
coedge $-1 $183 $284 $118 $192 reversed $114 $-1 #
edge $-1 $285 -42.537919248023925 $196 42.537919248023925 $191 $286 forward 7 unknown #
coedge $-1 $186 $119 $284 $287 forward $195 $-1 #
coedge $-1 $119 $186 $280 $288 reversed $195 $-1 #
loop $-1 $-1 $193 $264 #
vertex $-1 $120 $289 #
vertex $-1 $120 $290 #
straight-curve $-1 42.537919248023925 0 5.4116404705925065 0 1 0 I I #
face $-1 $291 $292 $28 $-1 $293 reversed single #
loop $-1 $-1 $294 $121 #
plane-surface $-1 0 -20.60871324861337 -0.42333489778515521 0 0 1 1 0 0 forward_v I I I I #
coedge $-1 $127 $295 $296 $297 forward $122 $-1 #
coedge $-1 $298 $124 $299 $300 reversed $77 $-1 #
coedge $-1 $124 $298 $209 $301 reversed $77 $-1 #
edge $-1 $210 -2.5766651022148448 $302 0.42333489778515521 $124 $303 forward 7 unknown #
coedge $-1 $126 $125 $304 $305 forward $49 $-1 #
coedge $-1 $296 $306 $125 $208 forward $307 $-1 #
edge $-1 $308 -0.42333489778515521 $211 2.5766651022148448 $207 $309 forward 7 unknown #
coedge $-1 $295 $127 $204 $301 forward $122 $-1 #
vertex $-1 $205 $310 #
vertex $-1 $297 $311 #
straight-curve $-1 0 -17.274546838763243 2.5766651022148448 1 0 0 I I #
face $-1 $-1 $312 $29 $-1 $313 reversed single #
loop $-1 $-1 $135 $129 #
plane-surface $-1 42.537919248023925 0 0 -1 0 0 0 0 1 forward_v I I I I #
coedge $-1 $221 $314 $315 $316 forward $130 $-1 #
coedge $-1 $315 $132 $134 $223 forward $81 $-1 #
coedge $-1 $132 $315 $317 $318 reversed $81 $-1 #
coedge $-1 $319 $135 $132 $220 forward $214 $-1 #
edge $-1 $226 2.5778546667037698 $320 10.657079670274239 $219 $321 forward 7 unknown #
coedge $-1 $322 $216 $133 $222 forward $130 $-1 #
edge $-1 $323 10.081072141726594 $225 12.896624832036913 $221 $324 forward 7 unknown #
edge $-1 $226 -85.075838496047822 $323 -80.397403041542319 $134 $325 forward 7 unknown #
coedge $-1 $135 $319 $322 $326 reversed $214 $-1 #
vertex $-1 $326 $327 #
vertex $-1 $136 $328 #
straight-curve $-1 42.537919248023925 9.1953218351927735 60.409889451018252 0 0 -1 I I #
coedge $-1 $228 $228 $-1 $329 reversed $139 $-1 #
edge $-1 $330 0 $330 6.2831853071796004 $140 $331 forward 7 unknown #
vertex $-1 $143 $332 #
ellipse-curve $-1 41.130142902868776 11.503671836212909 3.5434581086387329 0.79863551827123203 0 0.60181501223851219 0.3009075061192561 0 -0.39931775913561601 1 I I #
coedge $-1 $232 $232 $-1 $333 reversed $146 $-1 #
edge $-1 $334 0 $334 6.2831853071796004 $147 $335 forward 7 unknown #
vertex $-1 $150 $336 #
ellipse-curve $-1 41.130142902868776 14.966196837743112 3.5434581086387329 0.79863551827123203 0 0.60181501223851219 0.3009075061192561 0 -0.39931775913561601 1 I I #
face $-1 $-1 $248 $32 $-1 $337 forward single #
loop $-1 $-1 $338 $151 #
plane-surface $-1 -42.537919248023925 0 0 1 0 0 0 0 -1 forward_v I I I I #
coedge $-1 $339 $340 $341 $342 reversed $152 $-1 #
coedge $-1 $343 $154 $156 $246 forward $95 $-1 #
coedge $-1 $154 $343 $339 $344 forward $95 $-1 #
coedge $-1 $341 $157 $154 $243 forward $248 $-1 #
edge $-1 $250 -7.1489891228974205 $345 0.23453933056628973 $242 $346 forward 7 unknown #
coedge $-1 $347 $348 $155 $245 forward $237 $-1 #
edge $-1 $349 -28.389345238018514 $249 -23.125860908278153 $244 $350 forward 7 unknown #
edge $-1 $250 -7.0827167069429997 $349 1.0612360036877491e-014 $156 $351 forward 7 unknown #
coedge $-1 $157 $341 $347 $352 forward $248 $-1 #
loop $-1 $-1 $341 $236 #
vertex $-1 $245 $353 #
vertex $-1 $158 $354 #
straight-curve $-1 -52.880794552021086 -10.606214019062985 5.4116404705925056 1 0 0 I I #
coedge $-1 $252 $252 $-1 $355 reversed $161 $-1 #
edge $-1 $356 0 $356 6.2831853071796004 $162 $357 forward 7 unknown #
vertex $-1 $165 $358 #
ellipse-curve $-1 -40.168288018202112 -9.1295083283702443 2.7798983057223272 -0.74314483375859142 0 0.66913059716165679 0.3345652985808284 0 0.37157241687929571 1 I I #
coedge $-1 $256 $256 $-1 $359 reversed $168 $-1 #
edge $-1 $360 0 $360 6.2831853071796004 $169 $361 forward 7 unknown #
vertex $-1 $172 $362 #
ellipse-curve $-1 -40.168288018202112 -6.9144497923311317 2.7798983057223272 -0.74314483375859142 0 0.66913059716165679 0.3345652985808284 0 0.37157241687929571 1 I I #
coedge $-1 $260 $260 $-1 $363 reversed $175 $-1 #
edge $-1 $364 0 $364 6.2831853071796004 $176 $365 forward 7 unknown #
vertex $-1 $179 $366 #
ellipse-curve $-1 -40.168288018202112 -4.699391256292019 2.7798983057223272 -0.74314483375859142 0 0.66913059716165679 0.3345652985808284 0 0.37157241687929571 1 I I #
face $-1 $-1 $195 $27 $-1 $367 reversed single #
loop $-1 $-1 $280 $180 #
plane-surface $-1 0 17.274546838763243 0 0 -1 0 0 0 -1 forward_v I I I I #
coedge $-1 $368 $278 $281 $369 forward $181 $-1 #
coedge $-1 $284 $183 $184 $272 reversed $114 $-1 #
coedge $-1 $278 $368 $183 $270 reversed $181 $-1 #
edge $-1 $285 -5.4116404705925065 $370 5.4116404705925065 $269 $371 forward 7 unknown #
coedge $-1 $185 $184 $368 $372 forward $73 $-1 #
edge $-1 $276 -42.537919248023925 $370 42.537919248023925 $268 $373 forward 7 unknown #
coedge $-1 $281 $280 $185 $274 reversed $265 $-1 #
edge $-1 $374 -42.537919248023925 $275 42.537919248023925 $273 $375 forward 7 unknown #
vertex $-1 $187 $376 #
vertex $-1 $287 $377 #
straight-curve $-1 42.537919248023925 0 -5.4116404705925065 0 -1 0 I I #
coedge $-1 $267 $269 $188 $279 reversed $181 $-1 #
edge $-1 $282 -17.274546838763243 $285 17.274546838763243 $278 $378 forward 7 unknown #
coedge $-1 $273 $189 $194 $288 forward $265 $-1 #
coedge $-1 $189 $273 $267 $369 reversed $265 $-1 #
vertex $-1 $190 $379 #
straight-curve $-1 0 17.274546838763243 5.4116404705925065 -1 0 0 I I #
coedge $-1 $191 $268 $193 $287 reversed $114 $-1 #
vertex $-1 $279 $380 #
straight-curve $-1 0 -17.274546838763243 5.4116404705925065 1 0 0 I I #
edge $-1 $196 -5.4116404705925065 $276 5.4116404705925065 $193 $381 forward 7 unknown #
edge $-1 $197 -5.4116404705925065 $275 5.4116404705925065 $194 $382 forward 7 unknown #
point $-1 42.537919248023925 -17.274546838763243 5.4116404705925065 #
point $-1 42.537919248023925 17.274546838763243 5.4116404705925065 #
face $-1 $-1 $307 $28 $-1 $383 reversed single #
loop $-1 $-1 $384 $199 #
plane-surface $-1 0 -23.942879658463497 1.0766651022148448 0 1 0 0 0 1 forward_v I I I I #
coedge $-1 $385 $304 $306 $386 forward $200 $-1 #
coedge $-1 $202 $209 $387 $388 forward $122 $-1 #
coedge $-1 $389 $207 $202 $297 reversed $307 $-1 #
edge $-1 $390 -3.3341664098501269 $211 3.3341664098501269 $296 $391 forward 7 unknown #
coedge $-1 $204 $203 $384 $392 reversed $77 $-1 #
coedge $-1 $304 $385 $203 $300 forward $200 $-1 #
edge $-1 $393 -3.3341664098501269 $302 3.3341664098501269 $203 $394 forward 7 unknown #
edge $-1 $210 -3.3341664098501269 $395 3.3341664098501269 $204 $396 forward 7 unknown #
vertex $-1 $205 $397 #
straight-curve $-1 -42.537919248023925 -17.274546838763243 0 0 0 -1 I I #
coedge $-1 $294 $299 $206 $305 reversed $200 $-1 #
edge $-1 $308 -42.537919248023925 $302 42.537919248023925 $304 $398 forward 7 unknown #
coedge $-1 $207 $389 $294 $386 reversed $307 $-1 #
loop $-1 $-1 $207 $291 #
vertex $-1 $208 $399 #
straight-curve $-1 42.537919248023925 -17.274546838763243 0 0 0 1 I I #
point $-1 -42.537919248023925 -17.274546838763243 2.5766651022148448 #
point $-1 42.537919248023925 -17.274546838763243 2.5766651022148448 #
loop $-1 $-1 $317 $213 #
plane-surface $-1 0 17.274546838763243 0 0 -1 0 0 0 -1 forward_v I I I I #
coedge $-1 $216 $322 $400 $401 forward $130 $-1 #
coedge $-1 $218 $217 $216 $316 reversed $81 $-1 #
edge $-1 $402 -10.657079670274239 $323 -2.5778546667037698 $216 $403 forward 7 unknown #
coedge $-1 $400 $404 $218 $318 forward $312 $-1 #
edge $-1 $320 -54.668931087348597 $402 -49.990495632843093 $317 $405 forward 7 unknown #
coedge $-1 $224 $219 $404 $406 reversed $214 $-1 #
vertex $-1 $220 $407 #
straight-curve $-1 42.537919248023925 6.6174671684890036 1.6752757466849957 0 1 0 I I #
coedge $-1 $314 $221 $224 $326 forward $130 $-1 #
vertex $-1 $222 $408 #
straight-curve $-1 29.641294415987012 9.1953218351927735 5.4116404705925092 1 0 0 I I #
straight-curve $-1 -8.6619975376767826 9.1953218351927735 69.619862116335781 -0.60181501223851219 0 0.79863551827123203 I I #
edge $-1 $225 9.1953218351927735 $409 17.274546838763243 $224 $410 forward 7 unknown #
point $-1 42.537919248023925 9.1953218351927735 5.4116404705925065 #
point $-1 42.537919248023925 9.1953218351927735 1.6752757466850028 #
edge $-1 $411 1 $411 0 $228 $-1 forward 7 unknown #
vertex $-1 $229 $412 #
ellipse-curve $-1 39.826081048882017 11.503671836212909 2.5607770449219003 0.79863551827123203 0 0.60181501223851219 0.3009075061192561 0 -0.39931775913561601 1 I I #
point $-1 41.431050408988028 11.503671836212909 3.1441403495031137 #
edge $-1 $413 1 $413 0 $232 $-1 forward 7 unknown #
vertex $-1 $233 $414 #
ellipse-curve $-1 39.826081048882017 14.966196837743112 2.5607770449219003 0.79863551827123203 0 0.60181501223851219 0.3009075061192561 0 -0.39931775913561601 1 I I #
point $-1 41.431050408988028 14.966196837743112 3.1441403495031137 #
plane-surface $-1 0 0 5.4116404705925065 0 0 1 1 0 0 forward_v I I I I #
coedge $-1 $348 $347 $340 $415 forward $237 $-1 #
coedge $-1 $340 $239 $241 $344 reversed $152 $-1 #
coedge $-1 $239 $339 $338 $415 reversed $152 $-1 #
coedge $-1 $247 $242 $239 $342 forward $248 $-1 #
edge $-1 $345 -15.08213776364078 $416 -10.342875303997161 $341 $417 forward 7 unknown #
coedge $-1 $241 $240 $348 $418 reversed $95 $-1 #
edge $-1 $419 -1.0612360036877491e-014 $345 7.0827167069429997 $339 $420 forward 7 unknown #
vertex $-1 $243 $421 #
straight-curve $-1 -37.798656788380299 -3.4572248961655649 5.4116404705925065 0 1 0 I I #
coedge $-1 $338 $244 $247 $352 reversed $237 $-1 #
coedge $-1 $244 $338 $343 $418 forward $237 $-1 #
vertex $-1 $245 $422 #
straight-curve $-1 -42.537919248023925 -10.606214019062985 28.537501378870658 0 0 1 I I #
straight-curve $-1 -42.537919248023918 -10.606214019062985 0.14815614085215145 -0.66913059716165679 0 -0.74314483375859142 I I #
edge $-1 $416 3.2226855655992752 $249 10.606214019062985 $347 $423 forward 7 unknown #
point $-1 -42.537919248023925 -10.606214019062985 5.4116404705925065 #
point $-1 -37.798656788380306 -10.606214019062985 5.4116404705925065 #
edge $-1 $424 1 $424 0 $252 $-1 forward 7 unknown #
vertex $-1 $253 $425 #
ellipse-curve $-1 -39.170892714188369 -9.1295083283702443 1.8818395625759725 -0.74314483375859142 0 0.66913059716165679 0.3345652985808284 0 0.37157241687929571 1 I I #
point $-1 -39.833722719621292 -9.1295083283702443 3.1514707226016272 #
edge $-1 $426 1 $426 0 $256 $-1 forward 7 unknown #
vertex $-1 $257 $427 #
ellipse-curve $-1 -39.170892714188369 -6.9144497923311317 1.8818395625759725 -0.74314483375859142 0 0.66913059716165679 0.3345652985808284 0 0.37157241687929571 1 I I #
point $-1 -39.833722719621292 -6.9144497923311317 3.1514707226016272 #
edge $-1 $428 1 $428 0 $260 $-1 forward 7 unknown #
vertex $-1 $261 $429 #
ellipse-curve $-1 -39.170892714188369 -4.699391256292019 1.8818395625759725 -0.74314483375859142 0 0.66913059716165679 0.3345652985808284 0 0.37157241687929571 1 I I #
point $-1 -39.833722719621292 -4.699391256292019 3.1514707226016272 #
plane-surface $-1 42.537919248023925 0 0 -1 0 0 0 0 1 forward_v I I I I #
coedge $-1 $269 $267 $271 $372 reversed $181 $-1 #
edge $-1 $282 -5.4116404705925065 $374 5.4116404705925065 $281 $430 forward 7 unknown #
vertex $-1 $372 $431 #
straight-curve $-1 -42.537919248023925 -17.274546838763243 0 0 0 -1 I I #
edge $-1 $370 -17.274546838763243 $374 17.274546838763243 $368 $432 forward 7 unknown #
straight-curve $-1 0 -17.274546838763243 -5.4116404705925065 -1 0 0 I I #
vertex $-1 $274 $433 #
straight-curve $-1 0 17.274546838763243 -5.4116404705925065 1 0 0 I I #
point $-1 42.537919248023925 17.274546838763243 -5.4116404705925065 #
point $-1 42.537919248023925 -17.274546838763243 -5.4116404705925065 #
straight-curve $-1 -42.537919248023925 0 5.4116404705925065 0 -1 0 I I #
point $-1 -42.537919248023925 17.274546838763243 5.4116404705925065 #
point $-1 -42.537919248023925 -17.274546838763243 5.4116404705925065 #
straight-curve $-1 42.537919248023925 -17.274546838763243 0 0 0 -1 I I #
straight-curve $-1 42.537919248023925 17.274546838763243 0 0 0 -1 I I #
plane-surface $-1 42.537919248023925 0 0 -1 0 0 0 0 1 forward_v I I I I #
coedge $-1 $434 $387 $298 $392 forward $292 $-1 #
coedge $-1 $299 $294 $434 $435 forward $200 $-1 #
edge $-1 $308 -3.3341664098501269 $436 3.3341664098501269 $306 $437 forward 7 unknown #
coedge $-1 $384 $438 $295 $388 reversed $292 $-1 #
edge $-1 $395 -42.537919248023925 $390 42.537919248023925 $387 $439 forward 7 unknown #
coedge $-1 $306 $296 $438 $440 forward $307 $-1 #
vertex $-1 $297 $441 #
straight-curve $-1 42.537919248023925 -20.60871324861337 2.5766651022148448 0 1 0 I I #
edge $-1 $395 -1.5 $393 1.5 $298 $442 forward 7 unknown #
vertex $-1 $300 $443 #
straight-curve $-1 -42.537919248023925 -20.60871324861337 -0.42333489778515521 0 1 0 I I #
vertex $-1 $301 $444 #
straight-curve $-1 -42.537919248023925 -20.60871324861337 2.5766651022148448 0 -1 0 I I #
point $-1 -42.537919248023925 -17.274546838763243 -0.42333489778515521 #
straight-curve $-1 0 -17.274546838763243 -0.42333489778515521 -1 0 0 I I #
point $-1 42.537919248023925 -17.274546838763243 -0.42333489778515521 #
coedge $-1 $404 $317 $314 $401 reversed $312 $-1 #
edge $-1 $409 -42.537919248023925 $402 -39.722366557713606 $400 $445 forward 7 unknown #
vertex $-1 $318 $446 #
straight-curve $-1 39.722366557713599 6.6174671684890036 5.4116404705925092 0 -1 0 I I #
coedge $-1 $317 $400 $319 $406 forward $312 $-1 #
straight-curve $-1 9.6373358166248497 17.274546838763243 45.335825858963908 -0.60181501223851219 0 0.79863551827123203 I I #
edge $-1 $409 -5.4116404705925065 $320 -1.6752757466849928 $319 $447 forward 7 unknown #
point $-1 42.537919248023925 17.274546838763243 1.6752757466849928 #
point $-1 39.722366557713606 9.1953218351927735 5.4116404705925021 #
vertex $-1 $326 $448 #
straight-curve $-1 42.537919248023925 0 5.4116404705925065 0 1 0 I I #
vertex $-1 $329 $449 #
point $-1 40.126988555001276 11.503671836212909 2.1614592857862842 #
vertex $-1 $333 $450 #
point $-1 40.126988555001276 14.966196837743112 2.1614592857862842 #
edge $-1 $416 23.125860908278153 $419 28.389345238018514 $338 $451 forward 7 unknown #
vertex $-1 $352 $452 #
straight-curve $-1 -52.880794552021086 -3.2226855655992752 5.4116404705925056 -1 0 0 I I #
edge $-1 $419 -0.23453933056628973 $349 7.1489891228974205 $348 $453 forward 7 unknown #
vertex $-1 $418 $454 #
straight-curve $-1 -42.537919248023918 -3.2226855655992752 0.14815614085215145 0.66913059716165679 0 0.74314483375859142 I I #
point $-1 -37.798656788380306 -3.2226855655992752 5.4116404705925065 #
point $-1 -42.537919248023925 -10.606214019062985 0.14815614085214357 #
straight-curve $-1 -42.537919248023925 0 5.4116404705925065 0 -1 0 I I #
vertex $-1 $355 $455 #
point $-1 -38.836327415607542 -9.1295083283702443 2.2534119794552683 #
vertex $-1 $359 $456 #
point $-1 -38.836327415607542 -6.9144497923311317 2.2534119794552683 #
vertex $-1 $363 $457 #
point $-1 -38.836327415607542 -4.699391256292019 2.2534119794552683 #
straight-curve $-1 -42.537919248023925 17.274546838763243 0 0 0 -1 I I #
point $-1 -42.537919248023925 -17.274546838763243 -5.4116404705925065 #
straight-curve $-1 -42.537919248023925 0 -5.4116404705925065 0 1 0 I I #
point $-1 -42.537919248023925 17.274546838763243 -5.4116404705925065 #
coedge $-1 $438 $384 $385 $435 reversed $292 $-1 #
edge $-1 $436 -42.537919248023925 $393 42.537919248023925 $434 $458 forward 7 unknown #
vertex $-1 $440 $459 #
straight-curve $-1 42.537919248023925 -20.60871324861337 -0.42333489778515521 0 -1 0 I I #
coedge $-1 $387 $434 $389 $440 reversed $292 $-1 #
straight-curve $-1 0 -23.942879658463497 2.5766651022148448 1 0 0 I I #
edge $-1 $390 -1.5 $436 1.5 $389 $460 forward 7 unknown #
point $-1 42.537919248023925 -23.942879658463497 2.5766651022148448 #
straight-curve $-1 -42.537919248023925 -23.942879658463497 1.0766651022148448 0 0 -1 I I #
point $-1 -42.537919248023925 -23.942879658463497 -0.42333489778515521 #
point $-1 -42.537919248023925 -23.942879658463497 2.5766651022148448 #
straight-curve $-1 0 17.274546838763243 5.4116404705925065 -1 0 0 I I #
point $-1 39.722366557713606 17.274546838763243 5.4116404705925021 #
straight-curve $-1 42.537919248023925 17.274546838763243 0 0 0 -1 I I #
point $-1 42.537919248023925 17.274546838763243 5.4116404705925065 #
point $-1 39.426763289746404 11.503671836212909 2.259869538802644 #
point $-1 39.426763289746404 14.966196837743112 2.259869538802644 #
straight-curve $-1 -42.537919248023925 -3.2226855655992752 28.537501378870658 0 0 -1 I I #
point $-1 -42.537919248023925 -3.2226855655992752 5.4116404705925065 #
straight-curve $-1 -42.537919248023925 -3.4572248961655649 0.1481561408521489 0 -1 0 I I #
point $-1 -42.537919248023925 -3.2226855655992752 0.14815614085214357 #
point $-1 -38.79932029730908 -9.1295083283702443 1.547274263995144 #
point $-1 -38.79932029730908 -6.9144497923311317 1.547274263995144 #
point $-1 -38.79932029730908 -4.699391256292019 1.547274263995144 #
straight-curve $-1 0 -23.942879658463497 -0.42333489778515521 -1 0 0 I I #
point $-1 42.537919248023925 -23.942879658463497 -0.42333489778515521 #
straight-curve $-1 42.537919248023925 -23.942879658463497 1.0766651022148448 0 0 -1 I I #
End-of-ACIS-data 