500 0 4 0           
7 Unknown 11 ACIS 5.0 NT 24 Thu Mar 25 20:39:24 1999 
-1 9.9999999999999995e-007 1e-010 
body $-1 $4 $-1 $5 #
body $-1 $6 $-1 $7 #
body $-1 $8 $-1 $9 #
body $-1 $10 $-1 $11 #
lump $-1 $-1 $12 $0 #
transform $-1 1 0 0 0 1 0 0 0 1 60.484023560289316 27.355051947133017 10.699918509354363 1 rotate no_reflect no_shear #
lump $-1 $-1 $13 $1 #
transform $-1 1 0 0 0 1 0 0 0 1 60.484023560289316 27.355051947133017 10.699918509354363 1 rotate no_reflect no_shear #
lump $-1 $-1 $14 $2 #
transform $-1 1 0 0 0 1 0 0 0 1 60.484023560289316 27.355051947133017 10.699918509354363 1 rotate no_reflect no_shear #
lump $-1 $-1 $15 $3 #
transform $-1 1 0 0 0 1 0 0 0 1 60.484023560289316 27.355051947133017 10.699918509354363 1 rotate no_reflect no_shear #
shell $-1 $-1 $-1 $16 $-1 $4 #
shell $-1 $-1 $-1 $17 $-1 $6 #
shell $-1 $-1 $-1 $18 $-1 $8 #
shell $-1 $-1 $-1 $19 $-1 $10 #
face $-1 $20 $21 $12 $-1 $22 forward single #
face $-1 $23 $24 $13 $-1 $25 reversed single #
face $-1 $26 $27 $14 $-1 $28 reversed single #
face $-1 $29 $30 $15 $-1 $31 forward single #
face $-1 $32 $33 $12 $-1 $34 reversed single #
loop $-1 $-1 $35 $16 #
plane-surface $-1 0 0 10.699918509354363 0 0 1 1 0 0 forward_v I I I I #
face $-1 $36 $37 $13 $-1 $38 reversed single #
loop $-1 $-1 $39 $17 #
plane-surface $-1 -49.495786994907604 -23.771491941351858 0 1 0 0 0 0 -1 forward_v I I I I #
face $-1 $40 $41 $14 $-1 $42 reversed single #
loop $-1 $-1 $43 $18 #
plane-surface $-1 29.413764416287684 93.062467229820967 121.02977678342738 1 0 0 0 -0.80901700255871778 -0.5877852410284794 forward_v I I I I #
face $-1 $44 $45 $15 $-1 $46 forward single #
loop $-1 $47 $48 $19 #
cone-surface $-1 44.948893988288503 24.359854438353725 7.3352300953711209 0 -0.80901700255871778 -0.5877852410284794 1 0 0 1 I I 0 1 1 forward I I I I #
face $-1 $49 $50 $12 $-1 $51 reversed single #
loop $-1 $-1 $52 $20 #
plane-surface $-1 0 0 -10.699918509354363 0 0 1 1 0 0 forward_v I I I I #
coedge $-1 $53 $54 $55 $56 forward $21 $-1 #
face $-1 $57 $58 $13 $-1 $59 reversed single #
loop $-1 $-1 $60 $23 #
plane-surface $-1 -47.379151300892772 -20.187931935570699 0 0 -1 0 0 0 -1 forward_v I I I I #
coedge $-1 $61 $62 $63 $64 forward $24 $-1 #
face $-1 $65 $66 $14 $-1 $67 forward single #
loop $-1 $-1 $68 $26 #
plane-surface $-1 44.948893988288503 -4.8027396570512906 49.926544049913616 0 0.80901700255871778 0.5877852410284794 1 0 0 forward_v I I I I #
coedge $-1 $69 $70 $71 $72 reversed $27 $-1 #
face $-1 $-1 $73 $15 $-1 $74 forward single #
loop $-1 $75 $76 $29 #
cone-surface $-1 44.948893988288503 22.78913880493354 6.1940384217015971 0 -0.80901700255871778 -0.5877852410284794 0.5 0 0 1 I I -0.70710678118654746 0.70710678118654746 0.5 forward I I I I #
loop $-1 $-1 $77 $19 #
coedge $-1 $48 $48 $78 $79 reversed $30 $-1 #
face $-1 $80 $81 $12 $-1 $82 reversed single #
loop $-1 $-1 $83 $32 #
plane-surface $-1 0 -27.355051947133017 0 0 1 0 0 0 1 forward_v I I I I #
coedge $-1 $84 $85 $86 $87 forward $33 $-1 #
coedge $-1 $88 $35 $89 $90 forward $21 $-1 #
coedge $-1 $35 $88 $91 $92 forward $21 $-1 #
coedge $-1 $93 $94 $35 $56 reversed $95 $-1 #
edge $-1 $96 -27.355051947133017 $97 27.355051947133017 $55 $98 forward 7 unknown #
face $-1 $99 $100 $13 $-1 $101 forward single #
loop $-1 $-1 $102 $36 #
plane-surface $-1 -45.26251560687794 -23.771491941351858 0 -1 0 0 0 0 1 forward_v I I I I #
coedge $-1 $103 $104 $105 $106 forward $37 $-1 #
coedge $-1 $107 $39 $108 $109 reversed $24 $-1 #
coedge $-1 $39 $107 $110 $111 reversed $24 $-1 #
coedge $-1 $104 $103 $39 $64 reversed $37 $-1 #
edge $-1 $112 -10.699918509354363 $113 10.699918509354363 $63 $114 forward 7 unknown #
face $-1 $115 $116 $14 $-1 $117 reversed single #
loop $-1 $-1 $71 $40 #
plane-surface $-1 0 0 10.699918509354363 0 0 1 1 0 0 forward_v I I I I #
coedge $-1 $118 $119 $120 $121 reversed $41 $-1 #
coedge $-1 $70 $43 $122 $123 reversed $27 $-1 #
coedge $-1 $43 $69 $118 $124 reversed $27 $-1 #
coedge $-1 $120 $125 $43 $72 forward $66 $-1 #
edge $-1 $126 19.176181667777467 $127 22.834162421054373 $71 $128 forward 7 unknown #
loop $-1 $-1 $78 $44 #
plane-surface $-1 44.948893988288503 -4.8027396570512906 49.926544049913616 0 0.80901700255871778 0.5877852410284794 1 0 0 forward_v I I I I #
loop $-1 $-1 $129 $29 #
coedge $-1 $76 $76 $77 $130 reversed $45 $-1 #
coedge $-1 $77 $77 $76 $130 forward $47 $-1 #
coedge $-1 $78 $78 $48 $79 forward $73 $-1 #
edge $-1 $131 -1.8185460158770302e-015 $131 6.2831853071795987 $78 $132 forward 7 unknown #
face $-1 $133 $134 $12 $-1 $135 reversed single #
loop $-1 $-1 $136 $49 #
plane-surface $-1 -60.484023560289316 0 0 1 0 0 0 0 -1 forward_v I I I I #
coedge $-1 $137 $91 $138 $139 forward $50 $-1 #
coedge $-1 $140 $52 $137 $141 forward $33 $-1 #
coedge $-1 $52 $140 $142 $143 forward $33 $-1 #
coedge $-1 $94 $93 $52 $87 reversed $95 $-1 #
edge $-1 $144 -27.355051947133017 $145 27.355051947133017 $86 $146 forward 7 unknown #
coedge $-1 $54 $53 $147 $148 forward $21 $-1 #
coedge $-1 $149 $150 $53 $90 reversed $134 $-1 #
edge $-1 $97 -60.484023560289316 $151 60.484023560289316 $89 $152 forward 7 unknown #
coedge $-1 $83 $153 $54 $92 reversed $50 $-1 #
edge $-1 $154 -60.484023560289316 $96 60.484023560289316 $91 $155 forward 7 unknown #
coedge $-1 $86 $55 $153 $156 forward $95 $-1 #
coedge $-1 $55 $86 $149 $157 reversed $95 $-1 #
loop $-1 $-1 $93 $133 #
vertex $-1 $56 $158 #
vertex $-1 $56 $159 #
straight-curve $-1 60.484023560289316 0 10.699918509354363 0 1 0 I I #
face $-1 $160 $161 $13 $-1 $162 reversed single #
loop $-1 $-1 $163 $57 #
plane-surface $-1 0 0 10.699918509354363 0 0 1 1 0 0 forward_v I I I I #
coedge $-1 $164 $165 $166 $167 reversed $58 $-1 #
coedge $-1 $63 $60 $168 $169 reversed $37 $-1 #
coedge $-1 $60 $63 $170 $171 reversed $37 $-1 #
coedge $-1 $165 $164 $60 $106 reversed $58 $-1 #
edge $-1 $172 -10.699918509354363 $173 10.699918509354363 $105 $174 forward 7 unknown #
coedge $-1 $62 $61 $175 $176 reversed $24 $-1 #
coedge $-1 $168 $177 $61 $109 forward $161 $-1 #
edge $-1 $178 -15.469305976457088 $113 -8.30218596489477 $108 $179 forward 7 unknown #
coedge $-1 $180 $170 $62 $111 forward $100 $-1 #
edge $-1 $112 8.30218596489477 $181 15.469305976457088 $110 $182 forward 7 unknown #
vertex $-1 $111 $183 #
vertex $-1 $109 $184 #
straight-curve $-1 -49.495786994907604 -20.187931935570699 0 0 0 -1 I I #
face $-1 $-1 $185 $14 $-1 $186 reversed single #
loop $-1 $-1 $187 $65 #
plane-surface $-1 60.484023560289316 0 0 -1 0 0 0 0 1 forward_v I I I I #
coedge $-1 $188 $68 $70 $124 forward $41 $-1 #
coedge $-1 $68 $188 $187 $189 reversed $41 $-1 #
coedge $-1 $190 $71 $68 $121 forward $66 $-1 #
edge $-1 $127 6.9393174221434322 $191 38.009576566145071 $120 $192 forward 7 unknown #
coedge $-1 $193 $194 $69 $123 forward $185 $-1 #
edge $-1 $195 -54.849748604015211 $126 -49.814969882359328 $122 $196 forward 7 unknown #
edge $-1 $127 48.486775205583172 $195 54.710103894266027 $70 $197 forward 7 unknown #
coedge $-1 $71 $190 $193 $198 forward $66 $-1 #
vertex $-1 $123 $199 #
vertex $-1 $72 $200 #
straight-curve $-1 29.413764416287684 46.531233614910484 10.699918509354362 0 -1 0 I I #
coedge $-1 $129 $129 $-1 $201 reversed $75 $-1 #
edge $-1 $202 0 $202 6.2831853071796004 $76 $203 forward 7 unknown #
vertex $-1 $79 $204 #
ellipse-curve $-1 44.948893988288503 25.526061570494569 8.1825291485264167 0 0.80901700255871778 0.5877852410284794 1 0 0 1 I I #
face $-1 $-1 $95 $12 $-1 $205 reversed single #
loop $-1 $-1 $149 $80 #
plane-surface $-1 0 27.355051947133017 0 0 -1 0 0 0 -1 forward_v I I I I #
coedge $-1 $206 $147 $150 $207 forward $81 $-1 #
coedge $-1 $153 $83 $84 $141 reversed $50 $-1 #
coedge $-1 $147 $206 $83 $139 reversed $81 $-1 #
edge $-1 $154 -10.699918509354363 $208 10.699918509354363 $138 $209 forward 7 unknown #
coedge $-1 $85 $84 $206 $210 forward $33 $-1 #
edge $-1 $145 -60.484023560289316 $208 60.484023560289316 $137 $211 forward 7 unknown #
coedge $-1 $150 $149 $85 $143 reversed $134 $-1 #
edge $-1 $212 -60.484023560289316 $144 60.484023560289316 $142 $213 forward 7 unknown #
vertex $-1 $87 $214 #
vertex $-1 $156 $215 #
straight-curve $-1 60.484023560289316 0 -10.699918509354363 0 -1 0 I I #
coedge $-1 $136 $138 $88 $148 reversed $81 $-1 #
edge $-1 $151 -27.355051947133017 $154 27.355051947133017 $147 $216 forward 7 unknown #
coedge $-1 $142 $89 $94 $157 forward $134 $-1 #
coedge $-1 $89 $142 $136 $207 reversed $134 $-1 #
vertex $-1 $90 $217 #
straight-curve $-1 0 27.355051947133017 10.699918509354363 -1 0 0 I I #
coedge $-1 $91 $137 $93 $156 reversed $50 $-1 #
vertex $-1 $148 $218 #
straight-curve $-1 0 -27.355051947133017 10.699918509354363 1 0 0 I I #
edge $-1 $96 -10.699918509354363 $145 10.699918509354363 $93 $219 forward 7 unknown #
edge $-1 $97 -10.699918509354363 $144 10.699918509354363 $94 $220 forward 7 unknown #
point $-1 60.484023560289316 -27.355051947133017 10.699918509354363 #
point $-1 60.484023560289316 27.355051947133017 10.699918509354363 #
face $-1 $-1 $221 $13 $-1 $222 reversed single #
loop $-1 $-1 $223 $99 #
plane-surface $-1 0 0 -10.699918509354363 0 0 1 1 0 0 forward_v I I I I #
coedge $-1 $170 $180 $165 $224 forward $100 $-1 #
coedge $-1 $105 $102 $223 $225 reversed $58 $-1 #
coedge $-1 $102 $105 $163 $224 reversed $58 $-1 #
coedge $-1 $226 $227 $102 $167 forward $221 $-1 #
edge $-1 $228 -10.699918509354363 $229 10.699918509354363 $166 $230 forward 7 unknown #
coedge $-1 $223 $108 $103 $169 forward $161 $-1 #
edge $-1 $113 -25.806211344461218 $173 -21.572939956431554 $168 $231 forward 7 unknown #
coedge $-1 $110 $163 $104 $171 forward $100 $-1 #
edge $-1 $172 21.572939956431554 $112 25.806211344461218 $170 $232 forward 7 unknown #
vertex $-1 $171 $233 #
vertex $-1 $169 $234 #
straight-curve $-1 -45.26251560687794 -20.187931935570699 0 0 0 -1 I I #
coedge $-1 $227 $226 $107 $176 forward $221 $-1 #
edge $-1 $181 -10.699918509354363 $178 10.699918509354363 $175 $235 forward 7 unknown #
coedge $-1 $108 $223 $227 $236 forward $161 $-1 #
vertex $-1 $109 $237 #
straight-curve $-1 -49.495786994907604 -11.885745970675929 -10.699918509354363 0 1 0 I I #
coedge $-1 $163 $110 $226 $238 forward $100 $-1 #
vertex $-1 $238 $239 #
straight-curve $-1 -49.495786994907604 -11.885745970675929 10.699918509354363 0 -1 0 I I #
point $-1 -49.495786994907604 -20.187931935570699 10.699918509354363 #
point $-1 -49.495786994907604 -20.187931935570699 -10.699918509354363 #
loop $-1 $-1 $122 $115 #
plane-surface $-1 0 27.355051947133017 0 0 -1 0 0 0 -1 forward_v I I I I #
coedge $-1 $240 $241 $119 $189 forward $116 $-1 #
coedge $-1 $119 $118 $194 $242 reversed $41 $-1 #
edge $-1 $191 26.879573954436257 $243 33.102902643119123 $187 $244 forward 7 unknown #
coedge $-1 $125 $120 $241 $245 forward $66 $-1 #
vertex $-1 $245 $246 #
straight-curve $-1 22.474446994144252 23.697071193856111 10.699918509354362 1 0 0 I I #
coedge $-1 $247 $122 $125 $198 reversed $185 $-1 #
coedge $-1 $122 $247 $188 $242 forward $185 $-1 #
vertex $-1 $123 $248 #
straight-curve $-1 29.413764416287684 27.35505194713302 60.51488839171369 0 0 1 I I #
straight-curve $-1 29.413764416287684 -4.8027396570512906 49.926544049913616 0 0.5877852410284794 -0.80901700255871778 I I #
edge $-1 $249 -60.484023560289316 $126 -29.413764416287684 $193 $250 forward 7 unknown #
point $-1 29.413764416287684 27.355051947133017 10.699918509354363 #
point $-1 29.413764416287684 23.697071193856111 10.699918509354362 #
edge $-1 $251 1 $251 0 $129 $-1 forward 7 unknown #
vertex $-1 $130 $252 #
ellipse-curve $-1 44.948893988288503 23.193647306212899 6.4879310422158367 0 0.80901700255871778 0.5877852410284794 1 0 0 1 I I #
point $-1 45.948893988288503 25.526061570494551 8.182529148526406 #
plane-surface $-1 60.484023560289316 0 0 -1 0 0 0 0 1 forward_v I I I I #
coedge $-1 $138 $136 $140 $210 reversed $81 $-1 #
edge $-1 $151 -10.699918509354363 $212 10.699918509354363 $150 $253 forward 7 unknown #
vertex $-1 $210 $254 #
straight-curve $-1 -60.484023560289316 -27.355051947133017 0 0 0 -1 I I #
edge $-1 $208 -27.355051947133017 $212 27.355051947133017 $206 $255 forward 7 unknown #
straight-curve $-1 0 -27.355051947133017 -10.699918509354363 -1 0 0 I I #
vertex $-1 $143 $256 #
straight-curve $-1 0 27.355051947133017 -10.699918509354363 1 0 0 I I #
point $-1 60.484023560289316 27.355051947133017 -10.699918509354363 #
point $-1 60.484023560289316 -27.355051947133017 -10.699918509354363 #
straight-curve $-1 -60.484023560289316 0 10.699918509354363 0 -1 0 I I #
point $-1 -60.484023560289316 27.355051947133017 10.699918509354363 #
point $-1 -60.484023560289316 -27.355051947133017 10.699918509354363 #
straight-curve $-1 60.484023560289316 -27.355051947133017 0 0 0 -1 I I #
straight-curve $-1 60.484023560289316 27.355051947133017 0 0 0 -1 I I #
loop $-1 $-1 $166 $160 #
plane-surface $-1 0 -27.355051947133017 0 0 1 0 0 0 1 forward_v I I I I #
coedge $-1 $177 $168 $164 $225 forward $161 $-1 #
edge $-1 $229 -15.469305976457088 $172 -8.30218596489477 $163 $257 forward 7 unknown #
edge $-1 $173 8.30218596489477 $228 15.469305976457088 $223 $258 forward 7 unknown #
coedge $-1 $175 $166 $180 $238 reversed $221 $-1 #
coedge $-1 $166 $175 $177 $236 reversed $221 $-1 #
vertex $-1 $236 $259 #
vertex $-1 $167 $260 #
straight-curve $-1 -45.26251560687794 -27.355051947133017 0 0 0 1 I I #
straight-curve $-1 -23.689575650446386 -20.187931935570699 -10.699918509354363 1 0 0 I I #
straight-curve $-1 -23.689575650446386 -20.187931935570699 10.699918509354363 -1 0 0 I I #
point $-1 -45.26251560687794 -20.187931935570699 10.699918509354363 #
point $-1 -45.26251560687794 -20.187931935570699 -10.699918509354363 #
straight-curve $-1 -49.495786994907604 -27.355051947133017 0 0 0 -1 I I #
edge $-1 $228 45.26251560687794 $178 49.495786994907604 $227 $261 forward 7 unknown #
point $-1 -49.495786994907604 -27.355051947133017 -10.699918509354363 #
edge $-1 $181 -49.495786994907604 $229 -45.26251560687794 $226 $262 forward 7 unknown #
point $-1 -49.495786994907604 -27.355051947133017 10.699918509354363 #
coedge $-1 $241 $187 $247 $263 reversed $116 $-1 #
coedge $-1 $187 $240 $190 $245 reversed $116 $-1 #
edge $-1 $243 -38.009576566145071 $195 -6.9393174221434322 $194 $264 forward 7 unknown #
vertex $-1 $189 $265 #
straight-curve $-1 60.484023560289316 7.8976543383049584 32.445950860027764 0 0.5877852410284794 -0.80901700255871778 I I #
edge $-1 $191 23.697071193856111 $249 27.355051947133017 $241 $266 forward 7 unknown #
point $-1 60.484023560289323 23.697071193856111 10.699918509354362 #
coedge $-1 $194 $193 $240 $263 forward $185 $-1 #
point $-1 29.413764416287684 27.35505194713302 5.6651397876984788 #
vertex $-1 $245 $267 #
straight-curve $-1 0 27.355051947133017 10.699918509354363 -1 0 0 I I #
vertex $-1 $201 $268 #
point $-1 45.948893988288503 23.193647306212899 6.4879310422158367 #
straight-curve $-1 -60.484023560289316 27.355051947133017 0 0 0 -1 I I #
point $-1 -60.484023560289316 -27.355051947133017 -10.699918509354363 #
straight-curve $-1 -60.484023560289316 0 -10.699918509354363 0 1 0 I I #
point $-1 -60.484023560289316 27.355051947133017 -10.699918509354363 #
straight-curve $-1 -45.26251560687794 -11.885745970675929 10.699918509354363 0 1 0 I I #
straight-curve $-1 -45.26251560687794 -11.885745970675929 -10.699918509354363 0 -1 0 I I #
point $-1 -45.26251560687794 -27.355051947133017 -10.699918509354363 #
point $-1 -45.26251560687794 -27.355051947133017 10.699918509354363 #
straight-curve $-1 0 -27.355051947133017 -10.699918509354363 -1 0 0 I I #
straight-curve $-1 0 -27.355051947133017 10.699918509354363 1 0 0 I I #
edge $-1 $249 -10.699918509354363 $243 -5.6651397876984788 $240 $269 forward 7 unknown #
straight-curve $-1 22.474446994144252 27.35505194713302 5.6651397876984717 -1 0 0 I I #
point $-1 60.484023560289323 27.35505194713302 5.6651397876984788 #
straight-curve $-1 60.484023560289316 0 10.699918509354363 0 1 0 I I #
point $-1 60.484023560289316 27.355051947133017 10.699918509354363 #
point $-1 44.948893988288503 22.38463030365418 5.9001458011873575 #
straight-curve $-1 60.484023560289316 27.355051947133017 0 0 0 -1 I I #
End-of-ACIS-data 