500 0 8 0           
7 Unknown 11 ACIS 5.0 NT 24 Fri Mar 26 15:34:41 1999 
-1 9.9999999999999995e-007 1e-010 
body $-1 $8 $-1 $9 #
body $-1 $10 $-1 $11 #
body $-1 $12 $-1 $13 #
body $-1 $14 $-1 $15 #
body $-1 $16 $-1 $17 #
body $-1 $18 $-1 $19 #
body $-1 $20 $-1 $21 #
body $-1 $22 $-1 $23 #
lump $-1 $-1 $24 $0 #
transform $-1 1 0 0 0 1 0 0 0 1 44.040650654622027 28.129727394957865 10.681776148479942 1 rotate no_reflect no_shear #
lump $-1 $-1 $25 $1 #
transform $-1 1 0 0 0 1 0 0 0 1 44.040650654622027 28.129727394957865 10.681776148479942 1 rotate no_reflect no_shear #
lump $-1 $-1 $26 $2 #
transform $-1 1 0 0 0 1 0 0 0 1 44.040650654622027 28.129727394957865 10.681776148479942 1 rotate no_reflect no_shear #
lump $-1 $-1 $27 $3 #
transform $-1 1 0 0 0 1 0 0 0 1 44.040650654622027 28.129727394957865 10.681776148479942 1 rotate no_reflect no_shear #
lump $-1 $-1 $28 $4 #
transform $-1 1 0 0 0 1 0 0 0 1 44.040650654622027 28.129727394957865 10.681776148479942 1 rotate no_reflect no_shear #
lump $-1 $-1 $29 $5 #
transform $-1 1 0 0 0 1 0 0 0 1 44.040650654622027 28.129727394957865 10.681776148479942 1 rotate no_reflect no_shear #
lump $-1 $-1 $30 $6 #
transform $-1 1 0 0 0 1 0 0 0 1 44.040650654622027 28.129727394957865 10.681776148479942 1 rotate no_reflect no_shear #
lump $-1 $-1 $31 $7 #
transform $-1 1 0 0 0 1 0 0 0 1 44.040650654622027 28.129727394957865 10.681776148479942 1 rotate no_reflect no_shear #
shell $-1 $-1 $-1 $32 $-1 $8 #
shell $-1 $-1 $-1 $33 $-1 $10 #
shell $-1 $-1 $-1 $34 $-1 $12 #
shell $-1 $-1 $-1 $35 $-1 $14 #
shell $-1 $-1 $-1 $36 $-1 $16 #
shell $-1 $-1 $-1 $37 $-1 $18 #
shell $-1 $-1 $-1 $38 $-1 $20 #
shell $-1 $-1 $-1 $39 $-1 $22 #
face $-1 $40 $41 $24 $-1 $42 forward single #
face $-1 $43 $44 $25 $-1 $45 forward single #
face $-1 $46 $47 $26 $-1 $48 forward single #
face $-1 $49 $50 $27 $-1 $51 reversed single #
face $-1 $52 $53 $28 $-1 $54 forward single #
face $-1 $55 $56 $29 $-1 $57 reversed single #
face $-1 $58 $59 $30 $-1 $60 forward single #
face $-1 $61 $62 $31 $-1 $63 forward single #
face $-1 $64 $65 $24 $-1 $66 reversed single #
loop $-1 $-1 $67 $32 #
plane-surface $-1 0 0 10.681776148479942 0 0 1 1 0 0 forward_v I I I I #
face $-1 $68 $69 $25 $-1 $70 reversed single #
loop $-1 $-1 $71 $33 #
plane-surface $-1 -39.975626366269054 0 -5.9590197240024292 0 0 1 1 0 0 forward_v I I I I #
face $-1 $72 $73 $26 $-1 $74 reversed single #
loop $-1 $-1 $75 $34 #
plane-surface $-1 39.975626366269054 0 -5.9590197240024292 0 0 1 1 0 0 forward_v I I I I #
face $-1 $76 $77 $27 $-1 $78 reversed single #
loop $-1 $-1 $79 $35 #
plane-surface $-1 15.541926547172309 54.179458472742468 102.44038659442086 -1 0 0 0 0.73135370988377701 0.68199835119979291 forward_v I I I I #
face $-1 $80 $81 $28 $-1 $82 forward single #
loop $-1 $83 $84 $36 #
cone-surface $-1 5.91268606018253 21.526532815819067 3.9074456130904367 0 -0.73135370988377701 -0.68199835119979291 2 0 0 1 I I 0 1 2 forward I I I I #
face $-1 $85 $86 $29 $-1 $87 reversed single #
loop $-1 $-1 $88 $37 #
plane-surface $-1 -19.379007364409091 -94.605530061601613 65.334210720916047 1 0 0 0 0.75470958851134928 -0.65605901945558964 forward_v I I I I #
face $-1 $89 $90 $30 $-1 $91 forward single #
loop $-1 $92 $93 $38 #
cone-surface $-1 -15.638852613070625 -26.375031229713574 8.7735484289833963 0 0.75470958851134928 -0.65605901945558964 0.5 0 0 1 I I 0 1 0.5 forward I I I I #
face $-1 $94 $95 $31 $-1 $96 forward single #
loop $-1 $97 $98 $39 #
cone-surface $-1 -10.028620486062927 -26.375031229713574 8.7735484289833963 0 0.75470958851134928 -0.65605901945558964 0.5 0 0 1 I I 0 1 0.5 forward I I I I #
face $-1 $99 $100 $24 $-1 $101 reversed single #
loop $-1 $-1 $102 $40 #
plane-surface $-1 0 0 -10.681776148479942 0 0 1 1 0 0 forward_v I I I I #
coedge $-1 $103 $104 $105 $106 forward $41 $-1 #
face $-1 $107 $108 $25 $-1 $109 reversed single #
loop $-1 $-1 $110 $43 #
plane-surface $-1 -39.975626366269054 0 -8.9590197240024292 0 0 1 1 0 0 forward_v I I I I #
coedge $-1 $111 $112 $113 $114 forward $44 $-1 #
face $-1 $115 $116 $26 $-1 $117 reversed single #
loop $-1 $-1 $118 $46 #
plane-surface $-1 39.975626366269054 0 -8.9590197240024292 0 0 1 1 0 0 forward_v I I I I #
coedge $-1 $119 $120 $121 $122 reversed $47 $-1 #
face $-1 $123 $124 $27 $-1 $125 reversed single #
loop $-1 $-1 $126 $49 #
plane-surface $-1 5.91268606018253 -10.239128011163956 42.369084329984254 0 0.73135370988377701 0.68199835119979291 1 0 0 forward_v I I I I #
coedge $-1 $127 $128 $129 $130 reversed $50 $-1 #
face $-1 $-1 $131 $28 $-1 $132 forward single #
loop $-1 $133 $134 $52 #
cone-surface $-1 5.91268606018253 18.601966129638722 1.1802431240707261 0 -0.73135370988377701 -0.68199835119979291 1 0 0 1 I I -0.70710678118654746 0.70710678118654746 1 forward I I I I #
loop $-1 $-1 $135 $36 #
coedge $-1 $84 $84 $136 $137 reversed $53 $-1 #
face $-1 $138 $139 $29 $-1 $140 reversed single #
loop $-1 $-1 $141 $55 #
plane-surface $-1 -12.833736549566773 -28.129727394957868 7.5476785516010523 0 -0.75470958851134928 0.65605901945558964 1 0 0 forward_v I I I I #
coedge $-1 $142 $143 $144 $145 reversed $56 $-1 #
face $-1 $-1 $146 $30 $-1 $147 forward single #
loop $-1 $148 $149 $58 #
cone-surface $-1 -15.638852613070625 -25.793872370577297 8.2683547530623951 0 0.75470958851134928 -0.65605901945558964 0.25 0 0 1 I I -0.70710678118654746 0.70710678118654746 0.25 forward I I I I #
loop $-1 $-1 $150 $38 #
coedge $-1 $93 $93 $151 $152 reversed $59 $-1 #
face $-1 $-1 $153 $31 $-1 $154 forward single #
loop $-1 $155 $156 $61 #
cone-surface $-1 -10.028620486062927 -25.793872370577297 8.2683547530623951 0 0.75470958851134928 -0.65605901945558964 0.25 0 0 1 I I -0.70710678118654746 0.70710678118654746 0.25 forward I I I I #
loop $-1 $-1 $157 $39 #
coedge $-1 $98 $98 $158 $159 reversed $62 $-1 #
face $-1 $160 $161 $24 $-1 $162 reversed single #
loop $-1 $-1 $163 $64 #
plane-surface $-1 0 -28.129727394957865 0 0 1 0 0 0 1 forward_v I I I I #
coedge $-1 $164 $165 $166 $167 forward $65 $-1 #
coedge $-1 $168 $67 $169 $170 forward $41 $-1 #
coedge $-1 $67 $168 $171 $172 forward $41 $-1 #
coedge $-1 $173 $174 $67 $106 reversed $175 $-1 #
edge $-1 $176 -28.129727394957865 $177 28.129727394957865 $105 $178 forward 7 unknown #
face $-1 $179 $180 $25 $-1 $181 reversed single #
loop $-1 $-1 $182 $68 #
plane-surface $-1 -35.910602077916081 0 -7.4590197240024292 -1 0 0 0 0 1 forward_v I I I I #
coedge $-1 $183 $184 $185 $186 forward $69 $-1 #
coedge $-1 $187 $71 $188 $189 reversed $44 $-1 #
coedge $-1 $71 $187 $190 $191 reversed $44 $-1 #
coedge $-1 $182 $192 $71 $114 reversed $108 $-1 #
edge $-1 $193 -28.129727394957865 $194 28.129727394957865 $113 $195 forward 7 unknown #
face $-1 $196 $197 $26 $-1 $198 reversed single #
loop $-1 $-1 $199 $72 #
plane-surface $-1 35.910602077916081 0 -7.4590197240024292 1 0 0 0 0 -1 forward_v I I I I #
coedge $-1 $200 $201 $202 $203 reversed $73 $-1 #
coedge $-1 $204 $75 $205 $206 reversed $47 $-1 #
coedge $-1 $75 $204 $207 $208 reversed $47 $-1 #
coedge $-1 $209 $210 $75 $122 forward $211 $-1 #
edge $-1 $212 -28.129727394957865 $213 28.129727394957865 $121 $214 forward 7 unknown #
face $-1 $215 $216 $27 $-1 $217 reversed single #
loop $-1 $-1 $218 $76 #
plane-surface $-1 -3.7165544268072495 54.179458472742468 102.44038659442086 1 0 0 0 -0.73135370988377701 -0.68199835119979291 forward_v I I I I #
coedge $-1 $219 $220 $221 $222 reversed $77 $-1 #
coedge $-1 $128 $79 $223 $224 reversed $50 $-1 #
coedge $-1 $79 $127 $219 $225 reversed $50 $-1 #
coedge $-1 $221 $226 $79 $130 forward $216 $-1 #
edge $-1 $227 40.538417148730488 $228 49.996669943869676 $129 $229 forward 7 unknown #
loop $-1 $-1 $136 $80 #
plane-surface $-1 5.91268606018253 -10.239128011163956 42.369084329984254 0 0.73135370988377701 0.68199835119979291 1 0 0 forward_v I I I I #
loop $-1 $-1 $230 $52 #
coedge $-1 $134 $134 $135 $231 reversed $81 $-1 #
coedge $-1 $135 $135 $134 $231 forward $83 $-1 #
coedge $-1 $136 $136 $84 $137 forward $131 $-1 #
edge $-1 $232 -1.1497043313482908e-015 $232 6.2831853071795996 $136 $233 forward 7 unknown #
face $-1 $234 $235 $29 $-1 $236 forward single #
loop $-1 $-1 $237 $85 #
plane-surface $-1 -6.2884657347244541 -94.605530061601613 65.334210720916047 -1 0 0 0 -0.75470958851134928 0.65605901945558964 forward_v I I I I #
coedge $-1 $238 $239 $240 $241 reversed $86 $-1 #
coedge $-1 $143 $88 $242 $243 reversed $56 $-1 #
coedge $-1 $88 $142 $238 $244 reversed $56 $-1 #
coedge $-1 $240 $245 $88 $145 forward $246 $-1 #
edge $-1 $247 21.985329211978083 $248 25.119426808856968 $144 $249 forward 7 unknown #
loop $-1 $-1 $151 $89 #
plane-surface $-1 -12.833736549566773 -28.129727394957868 7.5476785516010523 0 -0.75470958851134928 0.65605901945558964 1 0 0 forward_v I I I I #
loop $-1 $-1 $250 $58 #
coedge $-1 $149 $149 $150 $251 reversed $90 $-1 #
coedge $-1 $150 $150 $149 $251 forward $92 $-1 #
coedge $-1 $151 $151 $93 $152 forward $146 $-1 #
edge $-1 $252 0 $252 6.2831853071796004 $151 $253 forward 7 unknown #
loop $-1 $-1 $158 $94 #
plane-surface $-1 -12.833736549566773 -28.129727394957868 7.5476785516010523 0 -0.75470958851134928 0.65605901945558964 1 0 0 forward_v I I I I #
loop $-1 $-1 $254 $61 #
coedge $-1 $156 $156 $157 $255 reversed $95 $-1 #
coedge $-1 $157 $157 $156 $255 forward $97 $-1 #
coedge $-1 $158 $158 $98 $159 forward $153 $-1 #
edge $-1 $256 0 $256 6.2831853071796004 $158 $257 forward 7 unknown #
face $-1 $258 $259 $24 $-1 $260 reversed single #
loop $-1 $-1 $261 $99 #
plane-surface $-1 -44.040650654622027 0 0 1 0 0 0 0 -1 forward_v I I I I #
coedge $-1 $262 $171 $263 $264 forward $100 $-1 #
coedge $-1 $265 $102 $262 $266 forward $65 $-1 #
coedge $-1 $102 $265 $267 $268 forward $65 $-1 #
coedge $-1 $174 $173 $102 $167 reversed $175 $-1 #
edge $-1 $269 -28.129727394957865 $270 28.129727394957865 $166 $271 forward 7 unknown #
coedge $-1 $104 $103 $272 $273 forward $41 $-1 #
coedge $-1 $274 $275 $103 $170 reversed $259 $-1 #
edge $-1 $177 -44.040650654622027 $276 44.040650654622027 $169 $277 forward 7 unknown #
coedge $-1 $163 $278 $104 $172 reversed $100 $-1 #
edge $-1 $279 -44.040650654622027 $176 44.040650654622027 $171 $280 forward 7 unknown #
coedge $-1 $166 $105 $278 $281 forward $175 $-1 #
coedge $-1 $105 $166 $274 $282 reversed $175 $-1 #
loop $-1 $-1 $173 $258 #
vertex $-1 $106 $283 #
vertex $-1 $106 $284 #
straight-curve $-1 44.040650654622027 0 10.681776148479942 0 1 0 I I #
face $-1 $285 $286 $25 $-1 $287 reversed single #
loop $-1 $-1 $288 $107 #
plane-surface $-1 0 -28.129727394957865 0 0 1 0 0 0 1 forward_v I I I I #
coedge $-1 $185 $113 $289 $290 reversed $108 $-1 #
coedge $-1 $291 $110 $288 $292 reversed $69 $-1 #
coedge $-1 $110 $291 $293 $294 reversed $69 $-1 #
coedge $-1 $192 $182 $110 $186 reversed $108 $-1 #
edge $-1 $295 -28.129727394957865 $296 28.129727394957865 $185 $297 forward 7 unknown #
coedge $-1 $112 $111 $298 $299 reversed $44 $-1 #
coedge $-1 $300 $301 $111 $189 forward $302 $-1 #
edge $-1 $303 -24.0528374714875 $194 -15.922788894781554 $188 $304 forward 7 unknown #
coedge $-1 $305 $289 $112 $191 forward $180 $-1 #
edge $-1 $193 15.922788894781554 $306 24.0528374714875 $190 $307 forward 7 unknown #
coedge $-1 $113 $185 $300 $308 reversed $108 $-1 #
vertex $-1 $191 $309 #
vertex $-1 $189 $310 #
straight-curve $-1 -35.910602077916081 0 -5.9590197240024292 0 1 0 I I #
face $-1 $311 $312 $26 $-1 $313 reversed single #
loop $-1 $-1 $207 $115 #
plane-surface $-1 0 -28.129727394957865 0 0 1 0 0 0 1 forward_v I I I I #
coedge $-1 $314 $315 $316 $317 reversed $116 $-1 #
coedge $-1 $318 $118 $319 $320 reversed $73 $-1 #
coedge $-1 $118 $318 $321 $322 reversed $73 $-1 #
coedge $-1 $210 $209 $118 $203 forward $211 $-1 #
edge $-1 $323 -28.129727394957865 $324 28.129727394957865 $202 $325 forward 7 unknown #
coedge $-1 $120 $119 $315 $326 forward $47 $-1 #
coedge $-1 $327 $316 $119 $206 forward $312 $-1 #
edge $-1 $328 15.922788894781554 $212 24.0528374714875 $205 $329 forward 7 unknown #
coedge $-1 $330 $331 $120 $208 forward $197 $-1 #
edge $-1 $213 -24.0528374714875 $332 -15.922788894781554 $207 $333 forward 7 unknown #
coedge $-1 $202 $121 $331 $334 forward $211 $-1 #
coedge $-1 $121 $202 $327 $335 reversed $211 $-1 #
loop $-1 $-1 $121 $311 #
vertex $-1 $335 $336 #
vertex $-1 $334 $337 #
straight-curve $-1 44.040650654622027 0 -5.9590197240024292 0 -1 0 I I #
face $-1 $-1 $338 $27 $-1 $339 forward single #
loop $-1 $-1 $129 $123 #
plane-surface $-1 0 28.129727394957865 0 0 -1 0 0 0 -1 forward_v I I I I #
coedge $-1 $340 $341 $342 $343 reversed $124 $-1 #
coedge $-1 $344 $126 $128 $225 forward $77 $-1 #
coedge $-1 $126 $344 $340 $345 forward $77 $-1 #
coedge $-1 $342 $129 $126 $222 forward $216 $-1 #
edge $-1 $228 -12.585583517081044 $346 6.6728974568985144 $221 $347 forward 7 unknown #
coedge $-1 $348 $349 $127 $224 forward $338 $-1 #
edge $-1 $350 -7.7799650470978499 $227 1.0399981585866307 $223 $351 forward 7 unknown #
edge $-1 $228 -56.259454789915736 $350 -43.32692615525243 $128 $352 forward 7 unknown #
coedge $-1 $129 $342 $348 $353 reversed $216 $-1 #
vertex $-1 $353 $354 #
vertex $-1 $130 $355 #
straight-curve $-1 15.541926547172309 28.129727394957865 51.220193297210429 0 0 -1 I I #
coedge $-1 $230 $230 $-1 $356 reversed $133 $-1 #
edge $-1 $357 0 $357 6.2831853071796004 $134 $358 forward 7 unknown #
vertex $-1 $137 $359 #
ellipse-curve $-1 5.91268606018253 23.719745792115624 5.9526497509103447 0 0.73135370988377701 0.68199835119979291 2 0 0 1 I I #
face $-1 $-1 $246 $29 $-1 $360 reversed single #
loop $-1 $-1 $361 $138 #
plane-surface $-1 0 0 10.681776148479942 0 0 1 1 0 0 forward_v I I I I #
coedge $-1 $362 $363 $364 $365 reversed $139 $-1 #
coedge $-1 $366 $141 $143 $244 forward $86 $-1 #
coedge $-1 $141 $366 $362 $367 forward $86 $-1 #
coedge $-1 $364 $144 $141 $241 forward $246 $-1 #
edge $-1 $248 -12.962139089625705 $368 0.12840254005893215 $240 $369 forward 7 unknown #
coedge $-1 $370 $371 $142 $243 forward $235 $-1 #
edge $-1 $372 -21.897467042314648 $247 -19.173037635842942 $242 $373 forward 7 unknown #
edge $-1 $248 5.682373700803029e-015 $372 4.152719992680681 $143 $374 forward 7 unknown #
coedge $-1 $144 $364 $370 $375 reversed $246 $-1 #
loop $-1 $-1 $364 $234 #
vertex $-1 $375 $376 #
vertex $-1 $145 $377 #
straight-curve $-1 -19.379007364409091 -28.129727394957868 32.667105360458024 0 0 -1 I I #
coedge $-1 $250 $250 $-1 $378 reversed $148 $-1 #
edge $-1 $379 0 $379 6.2831853071796004 $149 $380 forward 7 unknown #
vertex $-1 $152 $381 #
ellipse-curve $-1 -15.638852613070625 -26.767512691722011 9.1147273500404982 0 -0.75470958851134928 0.65605901945558964 0.5 0 0 1 I I #
coedge $-1 $254 $254 $-1 $382 reversed $155 $-1 #
edge $-1 $383 0 $383 6.2831853071796004 $156 $384 forward 7 unknown #
vertex $-1 $159 $385 #
ellipse-curve $-1 -10.028620486062927 -26.767512691722011 9.1147273500404982 0 -0.75470958851134928 0.65605901945558964 0.5 0 0 1 I I #
face $-1 $-1 $175 $24 $-1 $386 reversed single #
loop $-1 $-1 $274 $160 #
plane-surface $-1 0 28.129727394957865 0 0 -1 0 0 0 -1 forward_v I I I I #
coedge $-1 $387 $272 $275 $388 forward $161 $-1 #
coedge $-1 $278 $163 $164 $266 reversed $100 $-1 #
coedge $-1 $272 $387 $163 $264 reversed $161 $-1 #
edge $-1 $279 -10.681776148479942 $389 10.681776148479942 $263 $390 forward 7 unknown #
coedge $-1 $165 $164 $387 $391 forward $65 $-1 #
edge $-1 $270 -44.040650654622027 $389 44.040650654622027 $262 $392 forward 7 unknown #
coedge $-1 $275 $274 $165 $268 reversed $259 $-1 #
edge $-1 $393 -44.040650654622027 $269 44.040650654622027 $267 $394 forward 7 unknown #
vertex $-1 $167 $395 #
vertex $-1 $281 $396 #
straight-curve $-1 44.040650654622027 0 -10.681776148479942 0 -1 0 I I #
coedge $-1 $261 $263 $168 $273 reversed $161 $-1 #
edge $-1 $276 -28.129727394957865 $279 28.129727394957865 $272 $397 forward 7 unknown #
coedge $-1 $267 $169 $174 $282 forward $259 $-1 #
coedge $-1 $169 $267 $261 $388 reversed $259 $-1 #
vertex $-1 $170 $398 #
straight-curve $-1 0 28.129727394957865 10.681776148479942 -1 0 0 I I #
coedge $-1 $171 $262 $173 $281 reversed $100 $-1 #
vertex $-1 $273 $399 #
straight-curve $-1 0 -28.129727394957865 10.681776148479942 1 0 0 I I #
edge $-1 $176 -10.681776148479942 $270 10.681776148479942 $173 $400 forward 7 unknown #
edge $-1 $177 -10.681776148479942 $269 10.681776148479942 $174 $401 forward 7 unknown #
point $-1 44.040650654622027 -28.129727394957865 10.681776148479942 #
point $-1 44.040650654622027 28.129727394957865 10.681776148479942 #
face $-1 $-1 $302 $25 $-1 $402 reversed single #
loop $-1 $-1 $403 $179 #
plane-surface $-1 -44.040650654622027 0 0 1 0 0 0 0 -1 forward_v I I I I #
coedge $-1 $289 $305 $183 $292 forward $180 $-1 #
coedge $-1 $190 $288 $182 $290 forward $180 $-1 #
edge $-1 $296 -5.2295098620012146 $193 -2.2295098620012146 $289 $404 forward 7 unknown #
coedge $-1 $184 $183 $403 $405 reversed $69 $-1 #
edge $-1 $406 -24.0528374714875 $296 -15.922788894781554 $288 $407 forward 7 unknown #
coedge $-1 $301 $300 $184 $294 forward $302 $-1 #
edge $-1 $295 15.922788894781554 $408 24.0528374714875 $293 $409 forward 7 unknown #
vertex $-1 $294 $410 #
vertex $-1 $292 $411 #
straight-curve $-1 -35.910602077916081 0 -8.9590197240024292 0 -1 0 I I #
coedge $-1 $412 $413 $187 $299 forward $286 $-1 #
edge $-1 $306 -28.129727394957865 $303 28.129727394957865 $298 $414 forward 7 unknown #
coedge $-1 $293 $188 $192 $308 forward $302 $-1 #
coedge $-1 $188 $293 $412 $415 reversed $302 $-1 #
loop $-1 $-1 $293 $285 #
vertex $-1 $415 $416 #
straight-curve $-1 -19.987813183134527 28.129727394957865 -5.9590197240024292 1 0 0 I I #
coedge $-1 $288 $190 $413 $417 forward $180 $-1 #
vertex $-1 $417 $418 #
straight-curve $-1 -19.987813183134527 -28.129727394957865 -5.9590197240024292 -1 0 0 I I #
edge $-1 $194 2.2295098620012146 $295 5.2295098620012146 $300 $419 forward 7 unknown #
point $-1 -35.910602077916081 -28.129727394957865 -5.9590197240024292 #
point $-1 -35.910602077916081 28.129727394957865 -5.9590197240024292 #
face $-1 $-1 $211 $26 $-1 $420 reversed single #
loop $-1 $-1 $205 $196 #
plane-surface $-1 0 28.129727394957865 0 0 -1 0 0 0 -1 forward_v I I I I #
coedge $-1 $421 $199 $318 $422 reversed $116 $-1 #
coedge $-1 $199 $421 $204 $326 reversed $116 $-1 #
coedge $-1 $205 $321 $199 $317 forward $312 $-1 #
edge $-1 $423 -5.2295098620012146 $328 -2.2295098620012146 $316 $424 forward 7 unknown #
coedge $-1 $201 $200 $314 $422 forward $73 $-1 #
coedge $-1 $331 $330 $200 $320 forward $197 $-1 #
edge $-1 $425 15.922788894781554 $323 24.0528374714875 $319 $426 forward 7 unknown #
coedge $-1 $316 $327 $201 $322 forward $312 $-1 #
edge $-1 $324 -24.0528374714875 $423 -15.922788894781554 $321 $427 forward 7 unknown #
vertex $-1 $203 $428 #
vertex $-1 $203 $429 #
straight-curve $-1 44.040650654622027 0 -8.9590197240024292 0 1 0 I I #
edge $-1 $328 -28.129727394957865 $332 28.129727394957865 $315 $430 forward 7 unknown #
coedge $-1 $321 $205 $210 $335 forward $312 $-1 #
vertex $-1 $206 $431 #
straight-curve $-1 19.987813183134527 28.129727394957865 -5.9590197240024292 1 0 0 I I #
coedge $-1 $319 $207 $421 $432 forward $197 $-1 #
coedge $-1 $207 $319 $209 $334 reversed $197 $-1 #
vertex $-1 $208 $433 #
straight-curve $-1 19.987813183134527 -28.129727394957865 -5.9590197240024292 -1 0 0 I I #
edge $-1 $213 5.9590197240024292 $323 8.9590197240024292 $209 $434 forward 7 unknown #
edge $-1 $212 5.9590197240024292 $324 8.9590197240024292 $210 $435 forward 7 unknown #
point $-1 44.040650654622027 28.129727394957865 -5.9590197240024292 #
point $-1 44.040650654622027 -28.129727394957865 -5.9590197240024292 #
loop $-1 $-1 $223 $215 #
plane-surface $-1 0 0 10.681776148479942 0 0 1 1 0 0 forward_v I I I I #
coedge $-1 $341 $218 $220 $345 reversed $124 $-1 #
coedge $-1 $218 $340 $436 $437 reversed $124 $-1 #
coedge $-1 $226 $221 $218 $343 forward $216 $-1 #
edge $-1 $346 -49.996669943869676 $438 -40.538417148730488 $342 $439 forward 7 unknown #
coedge $-1 $220 $219 $349 $440 reversed $77 $-1 #
edge $-1 $441 43.32692615525243 $346 56.259454789915736 $340 $442 forward 7 unknown #
vertex $-1 $222 $443 #
straight-curve $-1 2.956343030091265 28.129727394957865 1.2235233533407524 -1 0 0 I I #
coedge $-1 $436 $223 $226 $353 forward $338 $-1 #
coedge $-1 $223 $436 $344 $440 forward $338 $-1 #
vertex $-1 $224 $444 #
straight-curve $-1 15.541926547172309 27.089729236371234 10.681776148479941 0 1 0 I I #
straight-curve $-1 15.541926547172309 -10.239128011163956 42.369084329984254 0 -0.68199835119979291 0.73135370988377701 I I #
edge $-1 $227 -15.541926547172309 $438 3.7165544268072495 $226 $445 forward 7 unknown #
point $-1 15.541926547172309 28.129727394957865 10.681776148479942 #
point $-1 15.541926547172309 28.129727394957868 1.2235233533407524 #
edge $-1 $446 1 $446 0 $230 $-1 forward 7 unknown #
vertex $-1 $231 $447 #
ellipse-curve $-1 5.91268606018253 19.333319839522499 1.862241475270519 0 0.73135370988377701 0.68199835119979291 2 0 0 1 I I #
point $-1 7.91268606018253 23.719745792115631 5.9526497509103544 #
plane-surface $-1 0 -28.129727394957865 0 0 1 0 0 0 1 forward_v I I I I #
coedge $-1 $371 $370 $363 $448 forward $235 $-1 #
coedge $-1 $363 $237 $239 $367 reversed $139 $-1 #
coedge $-1 $237 $362 $361 $448 reversed $139 $-1 #
coedge $-1 $245 $240 $237 $365 forward $246 $-1 #
edge $-1 $368 -25.119426808856968 $449 -21.985329211978083 $364 $450 forward 7 unknown #
coedge $-1 $239 $238 $371 $451 reversed $86 $-1 #
edge $-1 $452 -4.152719992680681 $368 -5.682373700803029e-015 $362 $453 forward 7 unknown #
vertex $-1 $241 $454 #
straight-curve $-1 -6.4168682747833863 -28.129727394957865 7.5476785516010576 1 0 0 I I #
coedge $-1 $361 $242 $245 $375 forward $235 $-1 #
coedge $-1 $242 $361 $366 $451 forward $235 $-1 #
vertex $-1 $243 $455 #
straight-curve $-1 -19.379007364409091 -47.302765030800806 10.681776148479941 0 -1 0 I I #
straight-curve $-1 -19.379007364409091 -28.129727394957868 7.5476785516010523 0 0.65605901945558964 0.75470958851134928 I I #
edge $-1 $247 -19.379007364409091 $449 -6.2884657347244541 $245 $456 forward 7 unknown #
point $-1 -19.379007364409091 -28.129727394957865 10.681776148479942 #
point $-1 -19.379007364409091 -28.129727394957865 7.5476785516010567 #
edge $-1 $457 1 $457 0 $250 $-1 forward 7 unknown #
vertex $-1 $251 $458 #
ellipse-curve $-1 -15.638852613070625 -25.982549767705134 8.4323695079262926 0 -0.75470958851134928 0.65605901945558964 0.5 0 0 1 I I #
point $-1 -15.138852613070625 -26.767512691722011 9.1147273500404982 #
edge $-1 $459 1 $459 0 $254 $-1 forward 7 unknown #
vertex $-1 $255 $460 #
ellipse-curve $-1 -10.028620486062927 -25.982549767705134 8.4323695079262926 0 -0.75470958851134928 0.65605901945558964 0.5 0 0 1 I I #
point $-1 -9.5286204860629269 -26.767512691722011 9.1147273500404982 #
plane-surface $-1 44.040650654622027 0 0 -1 0 0 0 0 1 forward_v I I I I #
coedge $-1 $263 $261 $265 $391 reversed $161 $-1 #
edge $-1 $276 -10.681776148479942 $393 10.681776148479942 $275 $461 forward 7 unknown #
vertex $-1 $391 $462 #
straight-curve $-1 -44.040650654622027 -28.129727394957865 0 0 0 -1 I I #
edge $-1 $389 -28.129727394957865 $393 28.129727394957865 $387 $463 forward 7 unknown #
straight-curve $-1 0 -28.129727394957865 -10.681776148479942 -1 0 0 I I #
vertex $-1 $268 $464 #
straight-curve $-1 0 28.129727394957865 -10.681776148479942 1 0 0 I I #
point $-1 44.040650654622027 28.129727394957865 -10.681776148479942 #
point $-1 44.040650654622027 -28.129727394957865 -10.681776148479942 #
straight-curve $-1 -44.040650654622027 0 10.681776148479942 0 -1 0 I I #
point $-1 -44.040650654622027 28.129727394957865 10.681776148479942 #
point $-1 -44.040650654622027 -28.129727394957865 10.681776148479942 #
straight-curve $-1 44.040650654622027 -28.129727394957865 0 0 0 -1 I I #
straight-curve $-1 44.040650654622027 28.129727394957865 0 0 0 -1 I I #
plane-surface $-1 0 28.129727394957865 0 0 -1 0 0 0 -1 forward_v I I I I #
coedge $-1 $413 $412 $291 $405 forward $286 $-1 #
straight-curve $-1 -35.910602077916081 -28.129727394957865 -3.7295098620012146 0 0 1 I I #
edge $-1 $408 -28.129727394957865 $406 28.129727394957865 $403 $465 forward 7 unknown #
vertex $-1 $292 $466 #
straight-curve $-1 -19.987813183134527 -28.129727394957865 -8.9590197240024292 1 0 0 I I #
vertex $-1 $294 $467 #
straight-curve $-1 -19.987813183134527 28.129727394957865 -8.9590197240024292 -1 0 0 I I #
point $-1 -35.910602077916081 28.129727394957865 -8.9590197240024292 #
point $-1 -35.910602077916081 -28.129727394957865 -8.9590197240024292 #
coedge $-1 $403 $298 $301 $415 forward $286 $-1 #
coedge $-1 $298 $403 $305 $417 reversed $286 $-1 #
straight-curve $-1 -44.040650654622027 0 -5.9590197240024292 0 1 0 I I #
edge $-1 $303 5.9590197240024292 $408 8.9590197240024292 $301 $468 forward 7 unknown #
point $-1 -44.040650654622027 28.129727394957865 -5.9590197240024292 #
edge $-1 $306 5.9590197240024292 $406 8.9590197240024292 $413 $469 forward 7 unknown #
point $-1 -44.040650654622027 -28.129727394957865 -5.9590197240024292 #
straight-curve $-1 -35.910602077916081 28.129727394957865 -3.7295098620012146 0 0 -1 I I #
plane-surface $-1 44.040650654622027 0 0 -1 0 0 0 0 1 forward_v I I I I #
coedge $-1 $315 $314 $330 $432 reversed $116 $-1 #
edge $-1 $425 -28.129727394957865 $423 28.129727394957865 $314 $470 forward 7 unknown #
vertex $-1 $322 $471 #
straight-curve $-1 35.910602077916081 28.129727394957865 -3.7295098620012146 0 0 1 I I #
vertex $-1 $320 $472 #
straight-curve $-1 19.987813183134527 -28.129727394957865 -8.9590197240024292 1 0 0 I I #
straight-curve $-1 19.987813183134527 28.129727394957865 -8.9590197240024292 -1 0 0 I I #
point $-1 44.040650654622027 -28.129727394957865 -8.9590197240024292 #
point $-1 44.040650654622027 28.129727394957865 -8.9590197240024292 #
straight-curve $-1 35.910602077916081 0 -5.9590197240024292 0 -1 0 I I #
point $-1 35.910602077916081 28.129727394957865 -5.9590197240024292 #
edge $-1 $332 2.2295098620012146 $425 5.2295098620012146 $330 $473 forward 7 unknown #
point $-1 35.910602077916081 -28.129727394957865 -5.9590197240024292 #
straight-curve $-1 44.040650654622027 -28.129727394957865 0 0 0 -1 I I #
straight-curve $-1 44.040650654622027 28.129727394957865 0 0 0 -1 I I #
coedge $-1 $349 $348 $341 $437 forward $338 $-1 #
edge $-1 $438 -1.0399981585866307 $441 7.7799650470978499 $436 $474 forward 7 unknown #
vertex $-1 $437 $475 #
straight-curve $-1 -3.7165544268072495 28.129727394957865 51.220193297210429 0 0 1 I I #
edge $-1 $441 -6.6728974568985144 $350 12.585583517081044 $349 $476 forward 7 unknown #
vertex $-1 $440 $477 #
straight-curve $-1 -3.7165544268072495 -10.239128011163956 42.369084329984254 0 0.68199835119979291 -0.73135370988377701 I I #
point $-1 -3.7165544268072495 28.129727394957868 1.2235233533407524 #
point $-1 15.541926547172309 19.309764189273384 10.681776148479937 #
straight-curve $-1 0 28.129727394957865 10.681776148479942 -1 0 0 I I #
vertex $-1 $356 $478 #
point $-1 7.91268606018253 19.333319839522499 1.862241475270519 #
edge $-1 $449 19.173037635842942 $452 21.897467042314648 $361 $479 forward 7 unknown #
vertex $-1 $365 $480 #
straight-curve $-1 -6.2884657347244541 -28.129727394957868 32.667105360458024 0 0 1 I I #
edge $-1 $452 -0.12840254005893215 $372 12.962139089625705 $371 $481 forward 7 unknown #
vertex $-1 $451 $482 #
straight-curve $-1 -6.2884657347244541 -28.129727394957868 7.5476785516010523 0 -0.65605901945558964 -0.75470958851134928 I I #
point $-1 -6.2884657347244541 -28.129727394957865 7.5476785516010567 #
point $-1 -19.379007364409091 -25.405297988486158 10.681776148479942 #
straight-curve $-1 0 -28.129727394957865 10.681776148479942 1 0 0 I I #
vertex $-1 $378 $483 #
point $-1 -15.138852613070625 -25.982549767705134 8.4323695079262926 #
vertex $-1 $382 $484 #
point $-1 -9.5286204860629269 -25.982549767705134 8.4323695079262926 #
straight-curve $-1 -44.040650654622027 28.129727394957865 0 0 0 -1 I I #
point $-1 -44.040650654622027 -28.129727394957865 -10.681776148479942 #
straight-curve $-1 -44.040650654622027 0 -10.681776148479942 0 1 0 I I #
point $-1 -44.040650654622027 28.129727394957865 -10.681776148479942 #
straight-curve $-1 -44.040650654622027 0 -8.9590197240024292 0 -1 0 I I #
point $-1 -44.040650654622027 -28.129727394957865 -8.9590197240024292 #
point $-1 -44.040650654622027 28.129727394957865 -8.9590197240024292 #
straight-curve $-1 -44.040650654622027 28.129727394957865 0 0 0 -1 I I #
straight-curve $-1 -44.040650654622027 -28.129727394957865 0 0 0 -1 I I #
straight-curve $-1 35.910602077916081 0 -8.9590197240024292 0 1 0 I I #
point $-1 35.910602077916081 28.129727394957865 -8.9590197240024292 #
point $-1 35.910602077916081 -28.129727394957865 -8.9590197240024292 #
straight-curve $-1 35.910602077916081 -28.129727394957865 -3.7295098620012146 0 0 -1 I I #
straight-curve $-1 -3.7165544268072495 27.089729236371234 10.681776148479941 0 -1 0 I I #
point $-1 -3.7165544268072495 28.129727394957865 10.681776148479942 #
straight-curve $-1 2.956343030091265 19.30976418927338 10.681776148479937 1 0 0 I I #
point $-1 -3.7165544268072495 19.309764189273384 10.681776148479937 #
point $-1 5.91268606018253 17.870612419754945 0.49824477287093316 #
straight-curve $-1 -6.2884657347244541 -47.302765030800806 10.681776148479941 0 1 0 I I #
point $-1 -6.2884657347244541 -28.129727394957865 10.681776148479942 #
straight-curve $-1 -6.4168682747833863 -25.405297988486154 10.681776148479941 -1 0 0 I I #
point $-1 -6.2884657347244541 -25.405297988486158 10.681776148479942 #
point $-1 -15.638852613070625 -25.605194973449461 8.1043399981984976 #
point $-1 -10.028620486062927 -25.605194973449461 8.1043399981984976 #
End-of-ACIS-data 