500 0 10 0           
7 Unknown 11 ACIS 5.0 NT 24 Thu Mar 25 19:18:58 1999 
-1 9.9999999999999995e-007 1e-010 
body $-1 $10 $-1 $11 #
body $-1 $12 $-1 $13 #
body $-1 $14 $-1 $15 #
body $-1 $16 $-1 $17 #
body $-1 $18 $-1 $19 #
body $-1 $20 $-1 $21 #
body $-1 $22 $-1 $23 #
body $-1 $24 $-1 $25 #
body $-1 $26 $-1 $27 #
body $-1 $28 $-1 $29 #
lump $-1 $-1 $30 $0 #
transform $-1 1 0 0 0 1 0 0 0 1 61.638843958861045 33.298369352366308 15.466003688086591 1 rotate no_reflect no_shear #
lump $-1 $-1 $31 $1 #
transform $-1 1 0 0 0 1 0 0 0 1 61.638843958861045 33.298369352366308 15.466003688086591 1 rotate no_reflect no_shear #
lump $-1 $-1 $32 $2 #
transform $-1 1 0 0 0 1 0 0 0 1 61.638843958861045 33.298369352366308 15.466003688086591 1 rotate no_reflect no_shear #
lump $-1 $-1 $33 $3 #
transform $-1 1 0 0 0 1 0 0 0 1 61.638843958861045 33.298369352366308 15.466003688086591 1 rotate no_reflect no_shear #
lump $-1 $-1 $34 $4 #
transform $-1 1 0 0 0 1 0 0 0 1 61.638843958861045 33.298369352366308 15.466003688086591 1 rotate no_reflect no_shear #
lump $-1 $-1 $35 $5 #
transform $-1 1 0 0 0 1 0 0 0 1 61.638843958861045 33.298369352366308 15.466003688086591 1 rotate no_reflect no_shear #
lump $-1 $-1 $36 $6 #
transform $-1 1 0 0 0 1 0 0 0 1 61.638843958861045 33.298369352366308 15.466003688086591 1 rotate no_reflect no_shear #
lump $-1 $-1 $37 $7 #
transform $-1 1 0 0 0 1 0 0 0 1 61.638843958861045 33.298369352366308 15.466003688086591 1 rotate no_reflect no_shear #
lump $-1 $-1 $38 $8 #
transform $-1 1 0 0 0 1 0 0 0 1 61.638843958861045 33.298369352366308 15.466003688086591 1 rotate no_reflect no_shear #
lump $-1 $-1 $39 $9 #
transform $-1 1 0 0 0 1 0 0 0 1 61.638843958861045 33.298369352366308 15.466003688086591 1 rotate no_reflect no_shear #
shell $-1 $-1 $-1 $40 $-1 $10 #
shell $-1 $-1 $-1 $41 $-1 $12 #
shell $-1 $-1 $-1 $42 $-1 $14 #
shell $-1 $-1 $-1 $43 $-1 $16 #
shell $-1 $-1 $-1 $44 $-1 $18 #
shell $-1 $-1 $-1 $45 $-1 $20 #
shell $-1 $-1 $-1 $46 $-1 $22 #
shell $-1 $-1 $-1 $47 $-1 $24 #
shell $-1 $-1 $-1 $48 $-1 $26 #
shell $-1 $-1 $-1 $49 $-1 $28 #
face $-1 $50 $51 $30 $-1 $52 forward single #
face $-1 $53 $54 $31 $-1 $55 reversed single #
face $-1 $56 $57 $32 $-1 $58 reversed single #
face $-1 $59 $60 $33 $-1 $61 forward single #
face $-1 $62 $63 $34 $-1 $64 forward single #
face $-1 $65 $66 $35 $-1 $67 forward single #
face $-1 $68 $69 $36 $-1 $70 reversed single #
face $-1 $71 $72 $37 $-1 $73 forward single #
face $-1 $74 $75 $38 $-1 $76 reversed single #
face $-1 $77 $78 $39 $-1 $79 forward single #
face $-1 $80 $81 $30 $-1 $82 reversed single #
loop $-1 $-1 $83 $40 #
plane-surface $-1 0 0 15.466003688086591 0 0 1 1 0 0 forward_v I I I I #
face $-1 $84 $85 $31 $-1 $86 reversed single #
loop $-1 $-1 $87 $41 #
plane-surface $-1 -57.547801464845342 -26.376248283371755 0 1 0 0 0 0 -1 forward_v I I I I #
face $-1 $88 $89 $32 $-1 $90 reversed single #
loop $-1 $-1 $91 $42 #
plane-surface $-1 103.81574645692289 16.961271530293846 172.10465816104622 0 -1 0 -0.85716730853699208 0 -0.51503806187062418 forward_v I I I I #
face $-1 $92 $93 $33 $-1 $94 forward single #
loop $-1 $95 $96 $43 #
cone-surface $-1 56.376388909208934 4.8809753849705757 8.3029048352600636 -0.85716730853699208 0 -0.51503806187062418 0.51503806187062418 0 -0.85716730853699208 1 I I 0 1 1 forward I I I I #
face $-1 $97 $98 $34 $-1 $99 forward single #
loop $-1 $100 $101 $44 #
cone-surface $-1 56.376388909208934 9.4110864394667999 8.3029048352600636 -0.85716730853699208 0 -0.51503806187062418 0.51503806187062418 0 -0.85716730853699208 1 I I 0 1 1 forward I I I I #
face $-1 $102 $103 $35 $-1 $104 forward single #
loop $-1 $105 $106 $45 #
cone-surface $-1 56.376388909208934 13.941197493963024 8.3029048352600636 -0.85716730853699208 0 -0.51503806187062418 0.51503806187062418 0 -0.85716730853699208 1 I I 0 1 1 forward I I I I #
face $-1 $107 $108 $36 $-1 $109 reversed single #
loop $-1 $-1 $110 $46 #
plane-surface $-1 -134.09965177934481 -16.243050636362796 105.31904006665761 0 1 0 -0.5877852598018023 0 0.80901698891910034 forward_v I I I I #
face $-1 $111 $112 $37 $-1 $113 forward single #
loop $-1 $114 $115 $47 #
cone-surface $-1 -54.200228637920688 -11.975635638694712 9.6464146093254914 0.5877852598018023 0 -0.80901698891910034 1.6180339778382007 0 1.1755705196036046 1 I I 0 1 2 forward I I I I #
face $-1 $116 $117 $38 $-1 $118 reversed single #
loop $-1 $-1 $119 $48 #
plane-surface $-1 -134.09965177934481 21.552462779015727 105.31904006665761 0 1 0 -0.5877852598018023 0 0.80901698891910034 forward_v I I I I #
face $-1 $120 $121 $39 $-1 $122 forward single #
loop $-1 $123 $124 $49 #
cone-surface $-1 -54.200228637920688 25.819877776683811 9.6464146093254914 0.5877852598018023 0 -0.80901698891910034 1.6180339778382007 0 1.1755705196036046 1 I I 0 1 2 forward I I I I #
face $-1 $125 $126 $30 $-1 $127 reversed single #
loop $-1 $-1 $128 $50 #
plane-surface $-1 0 0 -15.466003688086591 0 0 1 1 0 0 forward_v I I I I #
coedge $-1 $129 $130 $131 $132 forward $51 $-1 #
face $-1 $133 $134 $31 $-1 $135 reversed single #
loop $-1 $-1 $136 $53 #
plane-surface $-1 -54.735298758579845 -19.454127214377202 0 0 -1 0 0 0 -1 forward_v I I I I #
coedge $-1 $137 $138 $139 $140 forward $54 $-1 #
face $-1 $141 $142 $32 $-1 $143 reversed single #
loop $-1 $-1 $144 $56 #
plane-surface $-1 -1.8538574981742073 9.4110864394667999 108.61195670401098 0.85716730853699208 0 0.51503806187062418 0.51503806187062418 0 -0.85716730853699208 forward_v I I I I #
coedge $-1 $145 $146 $147 $148 reversed $57 $-1 #
face $-1 $-1 $149 $33 $-1 $150 forward single #
loop $-1 $151 $152 $59 #
cone-surface $-1 54.447834403539431 4.8809753849705757 7.1441124210845821 -0.85716730853699208 0 -0.51503806187062418 0.25751903093531209 0 -0.42858365426849604 1 I I -0.70710678118654746 0.70710678118654746 0.5 forward I I I I #
loop $-1 $-1 $153 $43 #
coedge $-1 $96 $96 $154 $155 reversed $60 $-1 #
face $-1 $-1 $156 $34 $-1 $157 forward single #
loop $-1 $158 $159 $62 #
cone-surface $-1 54.447834403539431 9.4110864394667999 7.1441124210845821 -0.85716730853699208 0 -0.51503806187062418 0.25751903093531209 0 -0.42858365426849604 1 I I -0.70710678118654746 0.70710678118654746 0.5 forward I I I I #
loop $-1 $-1 $160 $44 #
coedge $-1 $101 $101 $161 $162 reversed $63 $-1 #
face $-1 $-1 $163 $35 $-1 $164 forward single #
loop $-1 $165 $166 $65 #
cone-surface $-1 54.447834403539431 13.941197493963024 7.1441124210845821 -0.85716730853699208 0 -0.51503806187062418 0.25751903093531209 0 -0.42858365426849604 1 I I -0.70710678118654746 0.70710678118654746 0.5 forward I I I I #
loop $-1 $-1 $167 $45 #
coedge $-1 $106 $106 $168 $169 reversed $66 $-1 #
face $-1 $170 $171 $36 $-1 $172 reversed single #
loop $-1 $-1 $173 $68 #
plane-surface $-1 -61.638843958861031 -11.975635638694712 5.5852961865535207 -0.5877852598018023 0 0.80901698891910034 0.80901698891910034 0 0.5877852598018023 forward_v I I I I #
coedge $-1 $174 $175 $176 $177 reversed $69 $-1 #
face $-1 $-1 $178 $37 $-1 $179 forward single #
loop $-1 $180 $181 $71 #
cone-surface $-1 -52.973641507737035 -11.975635638694712 7.9581622924118172 0.5877852598018023 0 -0.80901698891910034 0.80901698891910034 0 0.5877852598018023 1 I I -0.70710678118654691 0.70710678118654813 1 forward I I I I #
loop $-1 $-1 $182 $47 #
coedge $-1 $115 $115 $183 $184 reversed $72 $-1 #
face $-1 $185 $186 $38 $-1 $187 reversed single #
loop $-1 $-1 $188 $74 #
plane-surface $-1 -61.638843958861031 25.819877776683811 5.5852961865535207 -0.5877852598018023 0 0.80901698891910034 0.80901698891910034 0 0.5877852598018023 forward_v I I I I #
coedge $-1 $189 $190 $191 $192 reversed $75 $-1 #
face $-1 $-1 $193 $39 $-1 $194 forward single #
loop $-1 $195 $196 $77 #
cone-surface $-1 -52.973641507737035 25.819877776683811 7.9581622924118172 0.5877852598018023 0 -0.80901698891910034 0.80901698891910034 0 0.5877852598018023 1 I I -0.70710678118654691 0.70710678118654813 1 forward I I I I #
loop $-1 $-1 $197 $49 #
coedge $-1 $124 $124 $198 $199 reversed $78 $-1 #
face $-1 $200 $201 $30 $-1 $202 reversed single #
loop $-1 $-1 $203 $80 #
plane-surface $-1 0 -33.298369352366308 0 0 1 0 0 0 1 forward_v I I I I #
coedge $-1 $204 $205 $206 $207 forward $81 $-1 #
coedge $-1 $208 $83 $209 $210 forward $51 $-1 #
coedge $-1 $83 $208 $211 $212 forward $51 $-1 #
coedge $-1 $213 $214 $83 $132 reversed $215 $-1 #
edge $-1 $216 -33.298369352366308 $217 33.298369352366308 $131 $218 forward 7 unknown #
face $-1 $219 $220 $31 $-1 $221 forward single #
loop $-1 $-1 $222 $84 #
plane-surface $-1 -51.922796052314347 -26.376248283371755 0 -1 0 0 0 0 1 forward_v I I I I #
coedge $-1 $223 $224 $225 $226 forward $85 $-1 #
coedge $-1 $227 $87 $228 $229 reversed $54 $-1 #
coedge $-1 $87 $227 $230 $231 reversed $54 $-1 #
coedge $-1 $224 $223 $87 $140 reversed $85 $-1 #
edge $-1 $232 -15.466003688086591 $233 15.466003688086591 $139 $234 forward 7 unknown #
face $-1 $235 $236 $32 $-1 $237 reversed single #
loop $-1 $-1 $238 $88 #
plane-surface $-1 103.81574645692289 1.8609013486397536 172.10465816104622 0 1 0 0.85716730853699208 0 0.51503806187062418 forward_v I I I I #
coedge $-1 $239 $240 $241 $242 reversed $89 $-1 #
coedge $-1 $146 $91 $243 $244 reversed $57 $-1 #
coedge $-1 $91 $145 $239 $245 reversed $57 $-1 #
coedge $-1 $241 $246 $91 $148 forward $247 $-1 #
edge $-1 $248 -9.7309707303995978 $249 -2.2060023338973735 $147 $250 forward 7 unknown #
loop $-1 $-1 $154 $92 #
plane-surface $-1 -1.8538574981742073 9.4110864394667999 108.61195670401098 0.85716730853699208 0 0.51503806187062418 0.51503806187062418 0 -0.85716730853699208 forward_v I I I I #
loop $-1 $-1 $251 $59 #
coedge $-1 $152 $152 $153 $252 reversed $93 $-1 #
coedge $-1 $153 $153 $152 $252 forward $95 $-1 #
coedge $-1 $154 $154 $96 $155 forward $149 $-1 #
edge $-1 $253 0 $253 6.2831853071796004 $154 $254 forward 7 unknown #
loop $-1 $-1 $161 $97 #
plane-surface $-1 -1.8538574981742073 9.4110864394667999 108.61195670401098 0.85716730853699208 0 0.51503806187062418 0.51503806187062418 0 -0.85716730853699208 forward_v I I I I #
loop $-1 $-1 $255 $62 #
coedge $-1 $159 $159 $160 $256 reversed $98 $-1 #
coedge $-1 $160 $160 $159 $256 forward $100 $-1 #
coedge $-1 $161 $161 $101 $162 forward $156 $-1 #
edge $-1 $257 0 $257 6.2831853071796004 $161 $258 forward 7 unknown #
loop $-1 $-1 $168 $102 #
plane-surface $-1 -1.8538574981742073 9.4110864394667999 108.61195670401098 0.85716730853699208 0 0.51503806187062418 0.51503806187062418 0 -0.85716730853699208 forward_v I I I I #
loop $-1 $-1 $259 $65 #
coedge $-1 $166 $166 $167 $260 reversed $103 $-1 #
coedge $-1 $167 $167 $166 $260 forward $105 $-1 #
coedge $-1 $168 $168 $106 $169 forward $163 $-1 #
edge $-1 $261 0 $261 6.2831853071796004 $168 $262 forward 7 unknown #
face $-1 $263 $264 $36 $-1 $265 reversed single #
loop $-1 $-1 $266 $107 #
plane-surface $-1 -134.09965177934481 -7.7082206410266263 105.31904006665761 0 -1 0 0.5877852598018023 0 -0.80901698891910034 forward_v I I I I #
coedge $-1 $267 $268 $269 $270 reversed $108 $-1 #
coedge $-1 $175 $110 $271 $272 reversed $69 $-1 #
coedge $-1 $110 $174 $267 $273 reversed $69 $-1 #
coedge $-1 $269 $274 $110 $177 forward $275 $-1 #
edge $-1 $276 5.41098193081136 $277 19.010608831928401 $176 $278 forward 7 unknown #
loop $-1 $-1 $183 $111 #
plane-surface $-1 -61.638843958861031 -11.975635638694712 5.5852961865535207 -0.5877852598018023 0 0.80901698891910034 0.80901698891910034 0 0.5877852598018023 forward_v I I I I #
loop $-1 $-1 $279 $71 #
coedge $-1 $181 $181 $182 $280 reversed $112 $-1 #
coedge $-1 $182 $182 $181 $280 forward $114 $-1 #
coedge $-1 $183 $183 $115 $184 forward $178 $-1 #
edge $-1 $281 0 $281 6.2831853071796004 $183 $282 forward 7 unknown #
face $-1 $283 $284 $38 $-1 $285 forward single #
loop $-1 $-1 $286 $116 #
plane-surface $-1 -134.09965177934481 30.087292774351894 105.31904006665761 0 -1 0 0.5877852598018023 0 -0.80901698891910034 forward_v I I I I #
coedge $-1 $287 $288 $289 $290 reversed $117 $-1 #
coedge $-1 $190 $119 $291 $292 reversed $75 $-1 #
coedge $-1 $119 $189 $287 $293 reversed $75 $-1 #
coedge $-1 $289 $294 $119 $192 forward $284 $-1 #
edge $-1 $295 5.41098193081136 $296 19.010608831928401 $191 $297 forward 7 unknown #
loop $-1 $-1 $198 $120 #
plane-surface $-1 -61.638843958861031 25.819877776683811 5.5852961865535207 -0.5877852598018023 0 0.80901698891910034 0.80901698891910034 0 0.5877852598018023 forward_v I I I I #
loop $-1 $-1 $298 $77 #
coedge $-1 $196 $196 $197 $299 reversed $121 $-1 #
coedge $-1 $197 $197 $196 $299 forward $123 $-1 #
coedge $-1 $198 $198 $124 $199 forward $193 $-1 #
edge $-1 $300 0 $300 6.2831853071796004 $198 $301 forward 7 unknown #
face $-1 $302 $303 $30 $-1 $304 reversed single #
loop $-1 $-1 $305 $125 #
plane-surface $-1 -61.638843958861045 0 0 1 0 0 0 0 -1 forward_v I I I I #
coedge $-1 $306 $211 $307 $308 forward $126 $-1 #
coedge $-1 $309 $128 $306 $310 forward $81 $-1 #
coedge $-1 $128 $309 $311 $312 forward $81 $-1 #
coedge $-1 $214 $213 $128 $207 reversed $215 $-1 #
edge $-1 $313 -33.298369352366308 $314 33.298369352366308 $206 $315 forward 7 unknown #
coedge $-1 $130 $129 $316 $317 forward $51 $-1 #
coedge $-1 $318 $319 $129 $210 reversed $303 $-1 #
edge $-1 $217 -61.638843958861045 $320 61.638843958861045 $209 $321 forward 7 unknown #
coedge $-1 $203 $322 $130 $212 reversed $126 $-1 #
edge $-1 $323 -61.638843958861045 $216 61.638843958861045 $211 $324 forward 7 unknown #
coedge $-1 $206 $131 $322 $325 forward $215 $-1 #
coedge $-1 $131 $206 $318 $326 reversed $215 $-1 #
loop $-1 $-1 $213 $302 #
vertex $-1 $132 $327 #
vertex $-1 $132 $328 #
straight-curve $-1 61.638843958861045 0 15.466003688086591 0 1 0 I I #
face $-1 $329 $330 $31 $-1 $331 reversed single #
loop $-1 $-1 $332 $133 #
plane-surface $-1 0 0 15.466003688086591 0 0 1 1 0 0 forward_v I I I I #
coedge $-1 $333 $334 $335 $336 reversed $134 $-1 #
coedge $-1 $139 $136 $337 $338 reversed $85 $-1 #
coedge $-1 $136 $139 $339 $340 reversed $85 $-1 #
coedge $-1 $334 $333 $136 $226 reversed $134 $-1 #
edge $-1 $341 -15.466003688086591 $342 15.466003688086591 $225 $343 forward 7 unknown #
coedge $-1 $138 $137 $344 $345 reversed $54 $-1 #
coedge $-1 $337 $346 $137 $229 forward $330 $-1 #
edge $-1 $347 -20.110245210680432 $233 -6.2660030726913245 $228 $348 forward 7 unknown #
coedge $-1 $349 $339 $138 $231 forward $220 $-1 #
edge $-1 $232 6.2660030726913245 $350 20.110245210680432 $230 $351 forward 7 unknown #
vertex $-1 $231 $352 #
vertex $-1 $229 $353 #
straight-curve $-1 -57.547801464845342 -19.454127214377202 0 0 0 -1 I I #
face $-1 $-1 $247 $32 $-1 $354 forward single #
loop $-1 $-1 $355 $141 #
plane-surface $-1 61.638843958861045 0 0 -1 0 0 0 0 1 forward_v I I I I #
coedge $-1 $356 $357 $358 $359 reversed $142 $-1 #
coedge $-1 $360 $144 $146 $245 forward $89 $-1 #
coedge $-1 $144 $360 $356 $361 forward $89 $-1 #
coedge $-1 $358 $147 $144 $242 forward $247 $-1 #
edge $-1 $249 -12.255728310560446 $362 2.8446418710936463 $241 $363 forward 7 unknown #
coedge $-1 $364 $365 $145 $244 forward $236 $-1 #
edge $-1 $366 -83.109976331609246 $248 -70.586325392436521 $243 $367 forward 7 unknown #
edge $-1 $249 108.66717861056246 $366 123.2776879177221 $146 $368 forward 7 unknown #
coedge $-1 $147 $358 $364 $369 forward $247 $-1 #
loop $-1 $-1 $358 $235 #
vertex $-1 $244 $370 #
vertex $-1 $148 $371 #
straight-curve $-1 51.907873228461447 16.961271530293846 15.466003688086587 -1 0 0 I I #
coedge $-1 $251 $251 $-1 $372 reversed $151 $-1 #
edge $-1 $373 0 $373 6.2831853071796004 $152 $374 forward 7 unknown #
vertex $-1 $155 $375 #
ellipse-curve $-1 57.87635976060993 4.8809753849705757 9.2041782185002265 0.85716730853699208 0 0.51503806187062418 0.51503806187062418 0 -0.85716730853699208 1 I I #
coedge $-1 $255 $255 $-1 $376 reversed $158 $-1 #
edge $-1 $377 0 $377 6.2831853071796004 $159 $378 forward 7 unknown #
vertex $-1 $162 $379 #
ellipse-curve $-1 57.87635976060993 9.4110864394667999 9.2041782185002265 0.85716730853699208 0 0.51503806187062418 0.51503806187062418 0 -0.85716730853699208 1 I I #
coedge $-1 $259 $259 $-1 $380 reversed $165 $-1 #
edge $-1 $381 0 $381 6.2831853071796004 $166 $382 forward 7 unknown #
vertex $-1 $169 $383 #
ellipse-curve $-1 57.87635976060993 13.941197493963024 9.2041782185002265 0.85716730853699208 0 0.51503806187062418 0.51503806187062418 0 -0.85716730853699208 1 I I #
face $-1 $-1 $275 $36 $-1 $384 forward single #
loop $-1 $-1 $385 $170 #
plane-surface $-1 -61.638843958861045 0 0 1 0 0 0 0 -1 forward_v I I I I #
coedge $-1 $386 $387 $388 $389 reversed $171 $-1 #
coedge $-1 $390 $173 $175 $273 forward $108 $-1 #
coedge $-1 $173 $390 $386 $391 forward $108 $-1 #
coedge $-1 $388 $176 $173 $270 forward $275 $-1 #
edge $-1 $277 -10.25523281701544 $392 -1.7204028216792704 $269 $393 forward 7 unknown #
coedge $-1 $394 $395 $174 $272 forward $264 $-1 #
edge $-1 $396 -47.074223846775297 $276 -37.193516345242216 $271 $397 forward 7 unknown #
edge $-1 $277 -16.810063431779124 $396 1.7761521089745031e-014 $175 $398 forward 7 unknown #
coedge $-1 $176 $388 $394 $399 forward $275 $-1 #
loop $-1 $-1 $388 $263 #
vertex $-1 $272 $400 #
vertex $-1 $177 $401 #
straight-curve $-1 -67.049825889672405 -16.243050636362796 15.466003688086595 1 0 0 I I #
coedge $-1 $279 $279 $-1 $402 reversed $180 $-1 #
edge $-1 $403 0 $403 6.2831853071796004 $181 $404 forward 7 unknown #
vertex $-1 $184 $405 #
ellipse-curve $-1 -54.839030508302528 -11.975635638694712 10.52564993732005 -0.5877852598018023 0 0.80901698891910034 1.6180339778382007 0 1.1755705196036046 1 I I #
face $-1 $-1 $406 $38 $-1 $407 reversed single #
loop $-1 $-1 $191 $185 #
plane-surface $-1 0 0 15.466003688086591 0 0 1 1 0 0 forward_v I I I I #
coedge $-1 $408 $409 $410 $411 reversed $186 $-1 #
coedge $-1 $412 $188 $190 $293 forward $117 $-1 #
coedge $-1 $188 $412 $408 $413 forward $117 $-1 #
coedge $-1 $410 $191 $188 $290 forward $284 $-1 #
edge $-1 $296 8.6425238906738215 $414 17.177353886009989 $289 $415 forward 7 unknown #
coedge $-1 $416 $417 $189 $292 forward $406 $-1 #
edge $-1 $418 -47.074223846775297 $295 -37.193516345242216 $291 $419 forward 7 unknown #
edge $-1 $296 -16.810063431779124 $418 1.7761521089745031e-014 $190 $420 forward 7 unknown #
coedge $-1 $191 $410 $416 $421 forward $284 $-1 #
vertex $-1 $292 $422 #
vertex $-1 $192 $423 #
straight-curve $-1 -67.049825889672405 21.552462779015727 15.466003688086595 1 0 0 I I #
coedge $-1 $298 $298 $-1 $424 reversed $195 $-1 #
edge $-1 $425 0 $425 6.2831853071796004 $196 $426 forward 7 unknown #
vertex $-1 $199 $427 #
ellipse-curve $-1 -54.839030508302528 25.819877776683811 10.52564993732005 -0.5877852598018023 0 0.80901698891910034 1.6180339778382007 0 1.1755705196036046 1 I I #
face $-1 $-1 $215 $30 $-1 $428 reversed single #
loop $-1 $-1 $318 $200 #
plane-surface $-1 0 33.298369352366308 0 0 -1 0 0 0 -1 forward_v I I I I #
coedge $-1 $429 $316 $319 $430 forward $201 $-1 #
coedge $-1 $322 $203 $204 $310 reversed $126 $-1 #
coedge $-1 $316 $429 $203 $308 reversed $201 $-1 #
edge $-1 $323 -15.466003688086591 $431 15.466003688086591 $307 $432 forward 7 unknown #
coedge $-1 $205 $204 $429 $433 forward $81 $-1 #
edge $-1 $314 -61.638843958861045 $431 61.638843958861045 $306 $434 forward 7 unknown #
coedge $-1 $319 $318 $205 $312 reversed $303 $-1 #
edge $-1 $435 -61.638843958861045 $313 61.638843958861045 $311 $436 forward 7 unknown #
vertex $-1 $207 $437 #
vertex $-1 $325 $438 #
straight-curve $-1 61.638843958861045 0 -15.466003688086591 0 -1 0 I I #
coedge $-1 $305 $307 $208 $317 reversed $201 $-1 #
edge $-1 $320 -33.298369352366308 $323 33.298369352366308 $316 $439 forward 7 unknown #
coedge $-1 $311 $209 $214 $326 forward $303 $-1 #
coedge $-1 $209 $311 $305 $430 reversed $303 $-1 #
vertex $-1 $210 $440 #
straight-curve $-1 0 33.298369352366308 15.466003688086591 -1 0 0 I I #
coedge $-1 $211 $306 $213 $325 reversed $126 $-1 #
vertex $-1 $317 $441 #
straight-curve $-1 0 -33.298369352366308 15.466003688086591 1 0 0 I I #
edge $-1 $216 -15.466003688086591 $314 15.466003688086591 $213 $442 forward 7 unknown #
edge $-1 $217 -15.466003688086591 $313 15.466003688086591 $214 $443 forward 7 unknown #
point $-1 61.638843958861045 -33.298369352366308 15.466003688086591 #
point $-1 61.638843958861045 33.298369352366308 15.466003688086591 #
face $-1 $-1 $444 $31 $-1 $445 reversed single #
loop $-1 $-1 $446 $219 #
plane-surface $-1 0 0 -15.466003688086591 0 0 1 1 0 0 forward_v I I I I #
coedge $-1 $339 $349 $334 $447 forward $220 $-1 #
coedge $-1 $225 $222 $446 $448 reversed $134 $-1 #
coedge $-1 $222 $225 $332 $447 reversed $134 $-1 #
coedge $-1 $449 $450 $222 $336 forward $444 $-1 #
edge $-1 $451 -15.466003688086591 $452 15.466003688086591 $335 $453 forward 7 unknown #
coedge $-1 $446 $228 $223 $338 forward $330 $-1 #
edge $-1 $233 -30.18015208555542 $342 -24.555146673024424 $337 $454 forward 7 unknown #
coedge $-1 $230 $332 $224 $340 forward $220 $-1 #
edge $-1 $341 24.555146673024424 $232 30.18015208555542 $339 $455 forward 7 unknown #
vertex $-1 $340 $456 #
vertex $-1 $338 $457 #
straight-curve $-1 -51.922796052314347 -19.454127214377202 0 0 0 -1 I I #
coedge $-1 $450 $449 $227 $345 forward $444 $-1 #
edge $-1 $350 -15.466003688086591 $347 15.466003688086591 $344 $458 forward 7 unknown #
coedge $-1 $228 $446 $450 $459 forward $330 $-1 #
vertex $-1 $229 $460 #
straight-curve $-1 -57.547801464845342 -13.188124141685877 -15.466003688086591 0 1 0 I I #
coedge $-1 $332 $230 $449 $461 forward $220 $-1 #
vertex $-1 $461 $462 #
straight-curve $-1 -57.547801464845342 -13.188124141685877 15.466003688086591 0 -1 0 I I #
point $-1 -57.547801464845342 -19.454127214377202 15.466003688086591 #
point $-1 -57.547801464845342 -19.454127214377202 -15.466003688086591 #
plane-surface $-1 0 0 15.466003688086591 0 0 1 1 0 0 forward_v I I I I #
coedge $-1 $365 $364 $357 $463 forward $236 $-1 #
coedge $-1 $357 $238 $240 $361 reversed $142 $-1 #
coedge $-1 $238 $356 $355 $463 reversed $142 $-1 #
coedge $-1 $246 $241 $238 $359 forward $247 $-1 #
edge $-1 $362 2.2060023338973735 $464 9.7309707303995978 $358 $465 forward 7 unknown #
coedge $-1 $240 $239 $365 $466 reversed $89 $-1 #
edge $-1 $467 -123.2776879177221 $362 -108.66717861056246 $356 $468 forward 7 unknown #
vertex $-1 $242 $469 #
straight-curve $-1 54.113875562358814 4.7055432197334 15.46600368808658 0 -1 0 I I #
coedge $-1 $355 $243 $246 $369 reversed $236 $-1 #
coedge $-1 $243 $355 $360 $466 forward $236 $-1 #
vertex $-1 $244 $470 #
straight-curve $-1 61.638843958861045 16.961271530293846 86.052329080523108 0 0 1 I I #
straight-curve $-1 -1.8538574981742073 16.961271530293846 108.61195670401098 0.51503806187062418 0 -0.85716730853699208 I I #
edge $-1 $464 1.8609013486397536 $248 16.961271530293846 $364 $471 forward 7 unknown #
point $-1 61.638843958861045 16.961271530293846 15.466003688086591 #
point $-1 54.113875562358821 16.961271530293846 15.466003688086587 #
edge $-1 $472 1 $472 0 $251 $-1 forward 7 unknown #
vertex $-1 $252 $473 #
ellipse-curve $-1 54.876418057807925 4.8809753849705757 7.4016314520198945 0.85716730853699208 0 0.51503806187062418 0.51503806187062418 0 -0.85716730853699208 1 I I #
point $-1 58.39139782248057 4.8809753849705757 8.3470109099632417 #
edge $-1 $474 1 $474 0 $255 $-1 forward 7 unknown #
vertex $-1 $256 $475 #
ellipse-curve $-1 54.876418057807925 9.4110864394667999 7.4016314520198945 0.85716730853699208 0 0.51503806187062418 0.51503806187062418 0 -0.85716730853699208 1 I I #
point $-1 58.39139782248057 9.4110864394667999 8.3470109099632417 #
edge $-1 $476 1 $476 0 $259 $-1 forward 7 unknown #
vertex $-1 $260 $477 #
ellipse-curve $-1 54.876418057807925 13.941197493963024 7.4016314520198945 0.85716730853699208 0 0.51503806187062418 0.51503806187062418 0 -0.85716730853699208 1 I I #
point $-1 58.39139782248057 13.941197493963024 8.3470109099632417 #
plane-surface $-1 0 0 15.466003688086591 0 0 1 1 0 0 forward_v I I I I #
coedge $-1 $395 $394 $387 $478 forward $264 $-1 #
coedge $-1 $387 $266 $268 $391 reversed $171 $-1 #
coedge $-1 $266 $386 $385 $478 reversed $171 $-1 #
coedge $-1 $274 $269 $266 $389 forward $275 $-1 #
edge $-1 $392 -19.010608831928401 $479 -5.41098193081136 $388 $480 forward 7 unknown #
coedge $-1 $268 $267 $395 $481 reversed $108 $-1 #
edge $-1 $482 -1.7761521089745031e-014 $392 16.810063431779124 $386 $483 forward 7 unknown #
vertex $-1 $270 $484 #
straight-curve $-1 -48.039217057744004 -5.9878178193473559 15.466003688086591 0 1 0 I I #
coedge $-1 $385 $271 $274 $399 reversed $264 $-1 #
coedge $-1 $271 $385 $390 $481 forward $264 $-1 #
vertex $-1 $272 $485 #
straight-curve $-1 -61.638843958861045 -16.243050636362796 52.659520033328803 0 0 1 I I #
straight-curve $-1 -61.638843958861031 -16.243050636362796 5.5852961865535207 -0.80901698891910034 0 -0.5877852598018023 I I #
edge $-1 $479 7.7082206410266263 $276 16.243050636362796 $394 $486 forward 7 unknown #
point $-1 -61.638843958861045 -16.243050636362796 15.466003688086591 #
point $-1 -48.039217057744004 -16.243050636362796 15.466003688086591 #
edge $-1 $487 1 $487 0 $279 $-1 forward 7 unknown #
vertex $-1 $280 $488 #
ellipse-curve $-1 -53.56142676753884 -11.975635638694712 8.7671792813309182 -0.5877852598018023 0 0.80901698891910034 1.6180339778382007 0 1.1755705196036046 1 I I #
point $-1 -53.220996530464333 -11.975635638694712 11.701220456923666 #
loop $-1 $-1 $291 $283 #
plane-surface $-1 -61.638843958861045 0 0 1 0 0 0 0 -1 forward_v I I I I #
coedge $-1 $409 $286 $288 $413 reversed $186 $-1 #
coedge $-1 $286 $408 $489 $490 reversed $186 $-1 #
coedge $-1 $294 $289 $286 $411 forward $284 $-1 #
edge $-1 $414 -19.010608831928401 $491 -5.41098193081136 $410 $492 forward 7 unknown #
coedge $-1 $288 $287 $417 $493 reversed $117 $-1 #
edge $-1 $494 -1.7761521089745031e-014 $414 16.810063431779124 $408 $495 forward 7 unknown #
vertex $-1 $290 $496 #
straight-curve $-1 -48.039217057744004 12.909938888341905 15.466003688086591 0 1 0 I I #
coedge $-1 $489 $291 $294 $421 reversed $406 $-1 #
coedge $-1 $291 $489 $412 $493 forward $406 $-1 #
vertex $-1 $292 $497 #
straight-curve $-1 -61.638843958861045 21.552462779015727 52.659520033328803 0 0 1 I I #
straight-curve $-1 -61.638843958861031 21.552462779015727 5.5852961865535207 -0.80901698891910034 0 -0.5877852598018023 I I #
edge $-1 $491 -30.087292774351894 $295 -21.552462779015727 $416 $498 forward 7 unknown #
point $-1 -61.638843958861045 21.552462779015727 15.466003688086591 #
point $-1 -48.039217057744004 21.552462779015727 15.466003688086591 #
edge $-1 $499 1 $499 0 $298 $-1 forward 7 unknown #
vertex $-1 $299 $500 #
ellipse-curve $-1 -53.56142676753884 25.819877776683811 8.7671792813309182 -0.5877852598018023 0 0.80901698891910034 1.6180339778382007 0 1.1755705196036046 1 I I #
point $-1 -53.220996530464333 25.819877776683811 11.701220456923666 #
plane-surface $-1 61.638843958861045 0 0 -1 0 0 0 0 1 forward_v I I I I #
coedge $-1 $307 $305 $309 $433 reversed $201 $-1 #
edge $-1 $320 -15.466003688086591 $435 15.466003688086591 $319 $501 forward 7 unknown #
vertex $-1 $433 $502 #
straight-curve $-1 -61.638843958861045 -33.298369352366308 0 0 0 -1 I I #
edge $-1 $431 -33.298369352366308 $435 33.298369352366308 $429 $503 forward 7 unknown #
straight-curve $-1 0 -33.298369352366308 -15.466003688086591 -1 0 0 I I #
vertex $-1 $312 $504 #
straight-curve $-1 0 33.298369352366308 -15.466003688086591 1 0 0 I I #
point $-1 61.638843958861045 33.298369352366308 -15.466003688086591 #
point $-1 61.638843958861045 -33.298369352366308 -15.466003688086591 #
straight-curve $-1 -61.638843958861045 0 15.466003688086591 0 -1 0 I I #
point $-1 -61.638843958861045 33.298369352366308 15.466003688086591 #
point $-1 -61.638843958861045 -33.298369352366308 15.466003688086591 #
straight-curve $-1 61.638843958861045 -33.298369352366308 0 0 0 -1 I I #
straight-curve $-1 61.638843958861045 33.298369352366308 0 0 0 -1 I I #
loop $-1 $-1 $335 $329 #
plane-surface $-1 0 -33.298369352366308 0 0 1 0 0 0 1 forward_v I I I I #
coedge $-1 $346 $337 $333 $448 forward $330 $-1 #
edge $-1 $452 -20.110245210680432 $341 -6.2660030726913245 $332 $505 forward 7 unknown #
edge $-1 $342 6.2660030726913245 $451 20.110245210680432 $446 $506 forward 7 unknown #
coedge $-1 $344 $335 $349 $461 reversed $444 $-1 #
coedge $-1 $335 $344 $346 $459 reversed $444 $-1 #
vertex $-1 $459 $507 #
vertex $-1 $336 $508 #
straight-curve $-1 -51.922796052314347 -33.298369352366308 0 0 0 1 I I #
straight-curve $-1 -27.367649379289922 -19.454127214377202 -15.466003688086591 1 0 0 I I #
straight-curve $-1 -27.367649379289922 -19.454127214377202 15.466003688086591 -1 0 0 I I #
point $-1 -51.922796052314347 -19.454127214377202 15.466003688086591 #
point $-1 -51.922796052314347 -19.454127214377202 -15.466003688086591 #
straight-curve $-1 -57.547801464845342 -33.298369352366308 0 0 0 -1 I I #
edge $-1 $451 51.922796052314347 $347 57.547801464845342 $450 $509 forward 7 unknown #
point $-1 -57.547801464845342 -33.298369352366308 -15.466003688086591 #
edge $-1 $350 -57.547801464845342 $452 -51.922796052314347 $449 $510 forward 7 unknown #
point $-1 -57.547801464845342 -33.298369352366308 15.466003688086591 #
edge $-1 $464 70.586325392436521 $467 83.109976331609246 $355 $511 forward 7 unknown #
vertex $-1 $369 $512 #
straight-curve $-1 51.907873228461447 1.8609013486397536 15.466003688086587 1 0 0 I I #
edge $-1 $467 -2.8446418710936463 $366 12.255728310560446 $365 $513 forward 7 unknown #
vertex $-1 $466 $514 #
straight-curve $-1 -1.8538574981742073 1.8609013486397536 108.61195670401098 -0.51503806187062418 0 0.85716730853699208 I I #
point $-1 54.113875562358821 1.8609013486397536 15.466003688086587 #
point $-1 61.638843958861045 16.961271530293846 2.9423527489138621 #
straight-curve $-1 61.638843958861045 0 15.466003688086591 0 1 0 I I #
vertex $-1 $372 $515 #
point $-1 55.391456119678551 4.8809753849705757 6.5444641434829016 #
vertex $-1 $376 $516 #
point $-1 55.391456119678551 9.4110864394667999 6.5444641434829016 #
vertex $-1 $380 $517 #
point $-1 55.391456119678551 13.941197493963024 6.5444641434829016 #
edge $-1 $479 37.193516345242216 $482 47.074223846775297 $385 $518 forward 7 unknown #
vertex $-1 $399 $519 #
straight-curve $-1 -67.049825889672405 -7.7082206410266263 15.466003688086595 -1 0 0 I I #
edge $-1 $482 1.7204028216792704 $396 10.25523281701544 $395 $520 forward 7 unknown #
vertex $-1 $481 $521 #
straight-curve $-1 -61.638843958861031 -7.7082206410266263 5.5852961865535207 0.80901698891910034 0 0.5877852598018023 I I #
point $-1 -48.039217057744004 -7.7082206410266263 15.466003688086591 #
point $-1 -61.638843958861045 -16.243050636362796 5.58529618655351 #
straight-curve $-1 -61.638843958861045 0 15.466003688086591 0 -1 0 I I #
vertex $-1 $402 $522 #
point $-1 -51.943392789700638 -11.975635638694712 9.9427498009345232 #
coedge $-1 $417 $416 $409 $490 forward $406 $-1 #
edge $-1 $491 37.193516345242216 $494 47.074223846775297 $489 $523 forward 7 unknown #
vertex $-1 $421 $524 #
straight-curve $-1 -67.049825889672405 30.087292774351894 15.466003688086595 -1 0 0 I I #
edge $-1 $494 -17.177353886009989 $418 -8.6425238906738215 $417 $525 forward 7 unknown #
vertex $-1 $493 $526 #
straight-curve $-1 -61.638843958861031 30.087292774351894 5.5852961865535207 0.80901698891910034 0 0.5877852598018023 I I #
point $-1 -48.039217057744004 30.087292774351894 15.466003688086591 #
point $-1 -61.638843958861045 21.552462779015727 5.58529618655351 #
straight-curve $-1 -61.638843958861045 0 15.466003688086591 0 -1 0 I I #
vertex $-1 $424 $527 #
point $-1 -51.943392789700638 25.819877776683811 9.9427498009345232 #
straight-curve $-1 -61.638843958861045 33.298369352366308 0 0 0 -1 I I #
point $-1 -61.638843958861045 -33.298369352366308 -15.466003688086591 #
straight-curve $-1 -61.638843958861045 0 -15.466003688086591 0 1 0 I I #
point $-1 -61.638843958861045 33.298369352366308 -15.466003688086591 #
straight-curve $-1 -51.922796052314347 -13.188124141685877 15.466003688086591 0 1 0 I I #
straight-curve $-1 -51.922796052314347 -13.188124141685877 -15.466003688086591 0 -1 0 I I #
point $-1 -51.922796052314347 -33.298369352366308 -15.466003688086591 #
point $-1 -51.922796052314347 -33.298369352366308 15.466003688086591 #
straight-curve $-1 0 -33.298369352366308 -15.466003688086591 -1 0 0 I I #
straight-curve $-1 0 -33.298369352366308 15.466003688086591 1 0 0 I I #
straight-curve $-1 61.638843958861045 1.8609013486397536 86.052329080523108 0 0 -1 I I #
point $-1 61.638843958861045 1.8609013486397536 15.466003688086591 #
straight-curve $-1 61.638843958861045 4.7055432197334 2.942352748913855 0 1 0 I I #
point $-1 61.638843958861045 1.8609013486397536 2.9423527489138621 #
point $-1 54.019250749270938 4.8809753849705757 6.8865933901492697 #
point $-1 54.019250749270938 9.4110864394667999 6.8865933901492697 #
point $-1 54.019250749270938 13.941197493963024 6.8865933901492697 #
straight-curve $-1 -61.638843958861045 -7.7082206410266263 52.659520033328803 0 0 -1 I I #
point $-1 -61.638843958861045 -7.7082206410266263 15.466003688086591 #
straight-curve $-1 -61.638843958861045 -5.9878178193473559 5.5852961865535118 0 -1 0 I I #
point $-1 -61.638843958861045 -7.7082206410266263 5.58529618655351 #
point $-1 -52.38585624793523 -11.975635638694712 7.1491453034927153 #
straight-curve $-1 -61.638843958861045 30.087292774351894 52.659520033328803 0 0 -1 I I #
point $-1 -61.638843958861045 30.087292774351894 15.466003688086591 #
straight-curve $-1 -61.638843958861045 12.909938888341905 5.5852961865535118 0 -1 0 I I #
point $-1 -61.638843958861045 30.087292774351894 5.58529618655351 #
point $-1 -52.38585624793523 25.819877776683811 7.1491453034927153 #
End-of-ACIS-data 