500 0 6 0           
7 Unknown 11 ACIS 5.0 NT 24 Thu Mar 25 17:26:27 1999 
-1 9.9999999999999995e-007 1e-010 
body $-1 $6 $-1 $7 #
body $-1 $8 $-1 $9 #
body $-1 $10 $-1 $11 #
body $-1 $12 $-1 $13 #
body $-1 $14 $-1 $15 #
body $-1 $16 $-1 $17 #
lump $-1 $-1 $18 $0 #
transform $-1 1 0 0 0 1 0 0 0 1 57.376018555253765 35.418095257946042 15.612303307510459 1 rotate no_reflect no_shear #
lump $-1 $-1 $19 $1 #
transform $-1 1 0 0 0 1 0 0 0 1 57.376018555253765 35.418095257946042 15.612303307510459 1 rotate no_reflect no_shear #
lump $-1 $-1 $20 $2 #
transform $-1 1 0 0 0 1 0 0 0 1 57.376018555253765 35.418095257946042 15.612303307510459 1 rotate no_reflect no_shear #
lump $-1 $-1 $21 $3 #
transform $-1 1 0 0 0 1 0 0 0 1 57.376018555253765 35.418095257946042 15.612303307510459 1 rotate no_reflect no_shear #
lump $-1 $-1 $22 $4 #
transform $-1 1 0 0 0 1 0 0 0 1 57.376018555253765 35.418095257946042 15.612303307510459 1 rotate no_reflect no_shear #
lump $-1 $-1 $23 $5 #
transform $-1 1 0 0 0 1 0 0 0 1 57.376018555253765 35.418095257946042 15.612303307510459 1 rotate no_reflect no_shear #
shell $-1 $-1 $-1 $24 $-1 $6 #
shell $-1 $-1 $-1 $25 $-1 $8 #
shell $-1 $-1 $-1 $26 $-1 $10 #
shell $-1 $-1 $-1 $27 $-1 $12 #
shell $-1 $-1 $-1 $28 $-1 $14 #
shell $-1 $-1 $-1 $29 $-1 $16 #
face $-1 $30 $31 $18 $-1 $32 forward single #
face $-1 $33 $34 $19 $-1 $35 forward single #
face $-1 $36 $37 $20 $-1 $38 reversed single #
face $-1 $39 $40 $21 $-1 $41 forward single #
face $-1 $42 $43 $22 $-1 $44 forward single #
face $-1 $45 $46 $23 $-1 $47 forward single #
face $-1 $48 $49 $18 $-1 $50 reversed single #
loop $-1 $-1 $51 $24 #
plane-surface $-1 0 0 15.612303307510459 0 0 1 1 0 0 forward_v I I I I #
face $-1 $52 $53 $19 $-1 $54 reversed single #
loop $-1 $-1 $55 $25 #
plane-surface $-1 0 -35.418095257946042 0 0 1 0 0 0 1 forward_v I I I I #
face $-1 $56 $57 $20 $-1 $58 reversed single #
loop $-1 $-1 $59 $26 #
plane-surface $-1 57.376020438160936 21.2713666779728 173.21375458015365 0 1 0 0.70710678939079041 0 0.70710677298230451 forward_v I I I I #
face $-1 $60 $61 $21 $-1 $62 forward single #
loop $-1 $63 $64 $27 #
cone-surface $-1 53.669724378951855 24.100712393967449 11.906009108557065 -0.70710678939079041 0 -0.70710677298230451 0.70710677298230451 0 -0.70710678939079041 1 I I 0 1 1 forward I I I I #
face $-1 $65 $66 $22 $-1 $67 forward single #
loop $-1 $68 $69 $28 #
cone-surface $-1 53.669724378951855 28.344730967959421 11.906009108557065 -0.70710678939079041 0 -0.70710677298230451 0.70710677298230451 0 -0.70710678939079041 1 I I 0 1 1 forward I I I I #
face $-1 $70 $71 $23 $-1 $72 forward single #
loop $-1 $73 $74 $29 #
cone-surface $-1 53.669724378951855 32.588749541951394 11.906009108557065 -0.70710678939079041 0 -0.70710677298230451 0.70710677298230451 0 -0.70710678939079041 1 I I 0 1 1 forward I I I I #
face $-1 $75 $76 $18 $-1 $77 reversed single #
loop $-1 $-1 $78 $30 #
plane-surface $-1 0 0 -15.612303307510459 0 0 1 1 0 0 forward_v I I I I #
coedge $-1 $79 $80 $81 $82 forward $31 $-1 #
face $-1 $83 $84 $19 $-1 $85 reversed single #
loop $-1 $-1 $86 $33 #
plane-surface $-1 0 0 -15.612303307510459 0 0 1 1 0 0 forward_v I I I I #
coedge $-1 $87 $88 $89 $90 forward $34 $-1 #
face $-1 $91 $92 $20 $-1 $93 forward single #
loop $-1 $-1 $94 $36 #
plane-surface $-1 -23.765924099102861 28.344730967959414 92.071811925797022 0.70710678939079041 0 0.70710677298230451 0.70710677298230451 0 -0.70710678939079041 forward_v I I I I #
coedge $-1 $95 $96 $97 $98 reversed $37 $-1 #
face $-1 $-1 $99 $21 $-1 $100 forward single #
loop $-1 $101 $102 $39 #
cone-surface $-1 51.951094713114969 24.100712393967449 10.187379482601159 -0.70710678939079041 0 -0.70710677298230451 0.35355338649115226 0 -0.35355339469539521 1 I I -0.70710678118654746 0.70710678118654746 0.5 forward I I I I #
loop $-1 $-1 $103 $27 #
coedge $-1 $64 $64 $104 $105 reversed $40 $-1 #
face $-1 $-1 $106 $22 $-1 $107 forward single #
loop $-1 $108 $109 $42 #
cone-surface $-1 51.951094713114969 28.344730967959421 10.187379482601159 -0.70710678939079041 0 -0.70710677298230451 0.35355338649115226 0 -0.35355339469539521 1 I I -0.70710678118654746 0.70710678118654746 0.5 forward I I I I #
loop $-1 $-1 $110 $28 #
coedge $-1 $69 $69 $111 $112 reversed $43 $-1 #
face $-1 $-1 $113 $23 $-1 $114 forward single #
loop $-1 $115 $116 $45 #
cone-surface $-1 51.951094713114969 32.588749541951394 10.187379482601159 -0.70710678939079041 0 -0.70710677298230451 0.35355338649115226 0 -0.35355339469539521 1 I I -0.70710678118654746 0.70710678118654746 0.5 forward I I I I #
loop $-1 $-1 $117 $29 #
coedge $-1 $74 $74 $118 $119 reversed $46 $-1 #
face $-1 $120 $121 $18 $-1 $122 reversed single #
loop $-1 $-1 $123 $48 #
plane-surface $-1 0 -35.418095257946042 0 0 1 0 0 0 1 forward_v I I I I #
coedge $-1 $124 $125 $126 $127 forward $49 $-1 #
coedge $-1 $128 $51 $129 $130 forward $31 $-1 #
coedge $-1 $51 $128 $131 $132 forward $31 $-1 #
coedge $-1 $133 $134 $51 $82 reversed $135 $-1 #
edge $-1 $136 -35.418095257946042 $137 35.418095257946042 $81 $138 forward 7 unknown #
face $-1 $139 $140 $19 $-1 $141 forward single #
loop $-1 $-1 $142 $52 #
plane-surface $-1 57.376018555253765 0 0 -1 0 0 0 0 1 forward_v I I I I #
coedge $-1 $143 $144 $145 $146 forward $53 $-1 #
coedge $-1 $145 $55 $142 $147 reversed $34 $-1 #
coedge $-1 $55 $145 $148 $149 reversed $34 $-1 #
coedge $-1 $150 $151 $55 $90 reversed $140 $-1 #
edge $-1 $152 -57.376018555253765 $153 57.376018555253765 $89 $154 forward 7 unknown #
face $-1 $155 $156 $20 $-1 $157 reversed single #
loop $-1 $-1 $158 $56 #
plane-surface $-1 0 0 15.612303307510459 0 0 1 1 0 0 forward_v I I I I #
coedge $-1 $159 $160 $161 $162 reversed $57 $-1 #
coedge $-1 $96 $59 $163 $164 reversed $37 $-1 #
coedge $-1 $59 $95 $159 $165 reversed $37 $-1 #
coedge $-1 $161 $166 $59 $98 forward $167 $-1 #
edge $-1 $168 70.994573982566365 $169 75.677009901543613 $97 $170 forward 7 unknown #
loop $-1 $-1 $104 $60 #
plane-surface $-1 -23.765924099102861 28.344730967959414 92.071811925797022 0.70710678939079041 0 0.70710677298230451 0.70710677298230451 0 -0.70710678939079041 forward_v I I I I #
loop $-1 $-1 $171 $39 #
coedge $-1 $102 $102 $103 $172 reversed $61 $-1 #
coedge $-1 $103 $103 $102 $172 forward $63 $-1 #
coedge $-1 $104 $104 $64 $105 forward $99 $-1 #
edge $-1 $173 0 $173 6.2831853071796004 $104 $174 forward 7 unknown #
loop $-1 $-1 $111 $65 #
plane-surface $-1 -23.765924099102861 28.344730967959414 92.071811925797022 0.70710678939079041 0 0.70710677298230451 0.70710677298230451 0 -0.70710678939079041 forward_v I I I I #
loop $-1 $-1 $175 $42 #
coedge $-1 $109 $109 $110 $176 reversed $66 $-1 #
coedge $-1 $110 $110 $109 $176 forward $68 $-1 #
coedge $-1 $111 $111 $69 $112 forward $106 $-1 #
edge $-1 $177 0 $177 6.2831853071796004 $111 $178 forward 7 unknown #
loop $-1 $-1 $118 $70 #
plane-surface $-1 -23.765924099102861 28.344730967959414 92.071811925797022 0.70710678939079041 0 0.70710677298230451 0.70710677298230451 0 -0.70710678939079041 forward_v I I I I #
loop $-1 $-1 $179 $45 #
coedge $-1 $116 $116 $117 $180 reversed $71 $-1 #
coedge $-1 $117 $117 $116 $180 forward $73 $-1 #
coedge $-1 $118 $118 $74 $119 forward $113 $-1 #
edge $-1 $181 0 $181 6.2831853071796004 $118 $182 forward 7 unknown #
face $-1 $183 $184 $18 $-1 $185 reversed single #
loop $-1 $-1 $186 $75 #
plane-surface $-1 -57.376018555253765 0 0 1 0 0 0 0 -1 forward_v I I I I #
coedge $-1 $187 $131 $188 $189 forward $76 $-1 #
coedge $-1 $190 $78 $187 $191 forward $49 $-1 #
coedge $-1 $78 $190 $192 $193 forward $49 $-1 #
coedge $-1 $134 $133 $78 $127 reversed $135 $-1 #
edge $-1 $194 -35.418095257946042 $195 35.418095257946042 $126 $196 forward 7 unknown #
coedge $-1 $80 $79 $197 $198 forward $31 $-1 #
coedge $-1 $199 $200 $79 $130 reversed $184 $-1 #
edge $-1 $137 -57.376018555253765 $201 57.376018555253765 $129 $202 forward 7 unknown #
coedge $-1 $123 $203 $80 $132 reversed $76 $-1 #
edge $-1 $204 -57.376018555253765 $136 57.376018555253765 $131 $205 forward 7 unknown #
coedge $-1 $126 $81 $203 $206 forward $135 $-1 #
coedge $-1 $81 $126 $199 $207 reversed $135 $-1 #
loop $-1 $-1 $133 $183 #
vertex $-1 $82 $208 #
vertex $-1 $82 $209 #
straight-curve $-1 57.376018555253765 0 15.612303307510459 0 1 0 I I #
face $-1 $210 $211 $19 $-1 $212 reversed single #
loop $-1 $-1 $151 $83 #
plane-surface $-1 0 -42.749092961891563 -12.184333784019913 0 0 1 1 0 0 forward_v I I I I #
coedge $-1 $213 $214 $87 $147 forward $84 $-1 #
coedge $-1 $215 $86 $214 $216 forward $53 $-1 #
coedge $-1 $86 $215 $217 $218 forward $53 $-1 #
coedge $-1 $88 $87 $86 $146 reversed $34 $-1 #
edge $-1 $219 -57.376018555253765 $220 57.376018555253765 $86 $221 forward 7 unknown #
edge $-1 $220 -15.612303307510459 $153 -12.184333784019913 $142 $222 forward 7 unknown #
coedge $-1 $217 $223 $88 $149 forward $224 $-1 #
edge $-1 $152 12.184333784019913 $219 15.612303307510459 $148 $225 forward 7 unknown #
coedge $-1 $226 $89 $223 $227 forward $140 $-1 #
coedge $-1 $89 $226 $213 $228 forward $140 $-1 #
vertex $-1 $149 $229 #
vertex $-1 $228 $230 #
straight-curve $-1 0 -35.418095257946042 -12.184333784019913 1 0 0 I I #
face $-1 $-1 $167 $20 $-1 $231 reversed single #
loop $-1 $-1 $232 $91 #
plane-surface $-1 0 35.418095257946042 0 0 -1 0 0 0 -1 forward_v I I I I #
coedge $-1 $163 $233 $234 $235 forward $92 $-1 #
coedge $-1 $234 $94 $96 $165 forward $57 $-1 #
coedge $-1 $94 $234 $232 $236 reversed $57 $-1 #
coedge $-1 $237 $97 $94 $162 forward $167 $-1 #
edge $-1 $169 7.099001193993093 $238 21.245729773966335 $161 $239 forward 7 unknown #
coedge $-1 $240 $158 $95 $164 forward $92 $-1 #
edge $-1 $241 24.005572525852457 $168 28.688008336173297 $163 $242 forward 7 unknown #
edge $-1 $169 -114.75203711050754 $241 -108.13007280577868 $96 $243 forward 7 unknown #
coedge $-1 $97 $237 $240 $244 reversed $167 $-1 #
loop $-1 $-1 $161 $155 #
vertex $-1 $244 $245 #
vertex $-1 $98 $246 #
straight-curve $-1 57.376018555253765 21.2713666779728 86.606877290076824 0 0 -1 I I #
coedge $-1 $171 $171 $-1 $247 reversed $101 $-1 #
edge $-1 $248 0 $248 6.2831853071796004 $102 $249 forward 7 unknown #
vertex $-1 $105 $250 #
ellipse-curve $-1 55.034800650093352 24.100712393967449 13.271085348021826 0.70710678939079041 0 0.70710677298230451 0.70710677298230451 0 -0.70710678939079041 1 I I #
coedge $-1 $175 $175 $-1 $251 reversed $108 $-1 #
edge $-1 $252 0 $252 6.2831853071796004 $109 $253 forward 7 unknown #
vertex $-1 $112 $254 #
ellipse-curve $-1 55.034800650093352 28.344730967959421 13.271085348021826 0.70710678939079041 0 0.70710677298230451 0.70710677298230451 0 -0.70710678939079041 1 I I #
coedge $-1 $179 $179 $-1 $255 reversed $115 $-1 #
edge $-1 $256 0 $256 6.2831853071796004 $116 $257 forward 7 unknown #
vertex $-1 $119 $258 #
ellipse-curve $-1 55.034800650093352 32.588749541951394 13.271085348021826 0.70710678939079041 0 0.70710677298230451 0.70710677298230451 0 -0.70710678939079041 1 I I #
face $-1 $-1 $135 $18 $-1 $259 reversed single #
loop $-1 $-1 $199 $120 #
plane-surface $-1 0 35.418095257946042 0 0 -1 0 0 0 -1 forward_v I I I I #
coedge $-1 $260 $197 $200 $261 forward $121 $-1 #
coedge $-1 $203 $123 $124 $191 reversed $76 $-1 #
coedge $-1 $197 $260 $123 $189 reversed $121 $-1 #
edge $-1 $204 -15.612303307510459 $262 15.612303307510459 $188 $263 forward 7 unknown #
coedge $-1 $125 $124 $260 $264 forward $49 $-1 #
edge $-1 $195 -57.376018555253765 $262 57.376018555253765 $187 $265 forward 7 unknown #
coedge $-1 $200 $199 $125 $193 reversed $184 $-1 #
edge $-1 $266 -57.376018555253765 $194 57.376018555253765 $192 $267 forward 7 unknown #
vertex $-1 $127 $268 #
vertex $-1 $206 $269 #
straight-curve $-1 57.376018555253765 0 -15.612303307510459 0 -1 0 I I #
coedge $-1 $186 $188 $128 $198 reversed $121 $-1 #
edge $-1 $201 -35.418095257946042 $204 35.418095257946042 $197 $270 forward 7 unknown #
coedge $-1 $192 $129 $134 $207 forward $184 $-1 #
coedge $-1 $129 $192 $186 $261 reversed $184 $-1 #
vertex $-1 $130 $271 #
straight-curve $-1 0 35.418095257946042 15.612303307510459 -1 0 0 I I #
coedge $-1 $131 $187 $133 $206 reversed $76 $-1 #
vertex $-1 $198 $272 #
straight-curve $-1 0 -35.418095257946042 15.612303307510459 1 0 0 I I #
edge $-1 $136 -15.612303307510459 $195 15.612303307510459 $133 $273 forward 7 unknown #
edge $-1 $137 -15.612303307510459 $194 15.612303307510459 $134 $274 forward 7 unknown #
point $-1 57.376018555253765 -35.418095257946042 15.612303307510459 #
point $-1 57.376018555253765 35.418095257946042 15.612303307510459 #
face $-1 $-1 $224 $19 $-1 $275 reversed single #
loop $-1 $-1 $276 $139 #
plane-surface $-1 0 -50.080090665837083 -13.898318545765186 0 1 0 0 0 1 forward_v I I I I #
coedge $-1 $277 $142 $151 $228 reversed $84 $-1 #
coedge $-1 $142 $277 $143 $216 reversed $84 $-1 #
coedge $-1 $144 $143 $278 $279 forward $53 $-1 #
edge $-1 $220 35.418095257946042 $280 50.080090665837083 $214 $281 forward 7 unknown #
coedge $-1 $282 $148 $144 $218 reversed $224 $-1 #
edge $-1 $283 -50.080090665837083 $219 -35.418095257946042 $217 $284 forward 7 unknown #
vertex $-1 $149 $285 #
vertex $-1 $216 $286 #
straight-curve $-1 0 -35.418095257946042 -15.612303307510459 1 0 0 I I #
straight-curve $-1 57.376018555253765 -35.418095257946042 0 0 0 1 I I #
coedge $-1 $148 $282 $150 $227 reversed $224 $-1 #
loop $-1 $-1 $148 $210 #
straight-curve $-1 -57.376018555253765 -35.418095257946042 0 0 0 -1 I I #
coedge $-1 $151 $150 $287 $288 forward $140 $-1 #
edge $-1 $152 -7.3309977039455205 $289 7.3309977039455205 $223 $290 forward 7 unknown #
edge $-1 $291 -7.3309977039455205 $153 7.3309977039455205 $213 $292 forward 7 unknown #
point $-1 -57.376018555253765 -35.418095257946042 -12.184333784019913 #
point $-1 57.376018555253765 -35.418095257946042 -12.184333784019913 #
plane-surface $-1 57.376018555253765 0 0 -1 0 0 0 0 1 forward_v I I I I #
coedge $-1 $293 $294 $160 $236 forward $156 $-1 #
coedge $-1 $158 $240 $293 $295 forward $92 $-1 #
coedge $-1 $160 $159 $158 $235 reversed $57 $-1 #
edge $-1 $296 -21.245729773966321 $241 -7.099001193993093 $158 $297 forward 7 unknown #
edge $-1 $238 -73.797212500056517 $296 -67.175248195327654 $232 $298 forward 7 unknown #
coedge $-1 $166 $161 $294 $299 reversed $167 $-1 #
vertex $-1 $162 $300 #
straight-curve $-1 57.376018555253765 14.172365483979707 10.929867388533211 0 1 0 I I #
coedge $-1 $233 $163 $166 $244 forward $92 $-1 #
vertex $-1 $164 $301 #
straight-curve $-1 28.688010219080468 21.2713666779728 15.612303307510459 1 0 0 I I #
straight-curve $-1 -23.765924099102861 21.2713666779728 92.071811925797022 -0.70710677298230451 0 0.70710678939079041 I I #
edge $-1 $168 21.2713666779728 $302 35.418095257946042 $166 $303 forward 7 unknown #
point $-1 57.376018555253765 21.2713666779728 15.612303307510459 #
point $-1 57.376018555253765 21.2713666779728 10.929867388533211 #
edge $-1 $304 1 $304 0 $171 $-1 forward 7 unknown #
vertex $-1 $172 $305 #
ellipse-curve $-1 52.304648107810365 24.100712393967449 10.540932869092311 0.70710678939079041 0 0.70710677298230451 0.70710677298230451 0 -0.70710678939079041 1 I I #
point $-1 55.741907423075652 24.100712393967449 12.56397855863103 #
edge $-1 $306 1 $306 0 $175 $-1 forward 7 unknown #
vertex $-1 $176 $307 #
ellipse-curve $-1 52.304648107810365 28.344730967959421 10.540932869092311 0.70710678939079041 0 0.70710677298230451 0.70710677298230451 0 -0.70710678939079041 1 I I #
point $-1 55.741907423075652 28.344730967959421 12.56397855863103 #
edge $-1 $308 1 $308 0 $179 $-1 forward 7 unknown #
vertex $-1 $180 $309 #
ellipse-curve $-1 52.304648107810365 32.588749541951394 10.540932869092311 0.70710678939079041 0 0.70710677298230451 0.70710677298230451 0 -0.70710678939079041 1 I I #
point $-1 55.741907423075652 32.588749541951394 12.56397855863103 #
plane-surface $-1 57.376018555253765 0 0 -1 0 0 0 0 1 forward_v I I I I #
coedge $-1 $188 $186 $190 $264 reversed $121 $-1 #
edge $-1 $201 -15.612303307510459 $266 15.612303307510459 $200 $310 forward 7 unknown #
vertex $-1 $264 $311 #
straight-curve $-1 -57.376018555253765 -35.418095257946042 0 0 0 -1 I I #
edge $-1 $262 -35.418095257946042 $266 35.418095257946042 $260 $312 forward 7 unknown #
straight-curve $-1 0 -35.418095257946042 -15.612303307510459 -1 0 0 I I #
vertex $-1 $193 $313 #
straight-curve $-1 0 35.418095257946042 -15.612303307510459 1 0 0 I I #
point $-1 57.376018555253765 35.418095257946042 -15.612303307510459 #
point $-1 57.376018555253765 -35.418095257946042 -15.612303307510459 #
straight-curve $-1 -57.376018555253765 0 15.612303307510459 0 -1 0 I I #
point $-1 -57.376018555253765 35.418095257946042 15.612303307510459 #
point $-1 -57.376018555253765 -35.418095257946042 15.612303307510459 #
straight-curve $-1 57.376018555253765 -35.418095257946042 0 0 0 -1 I I #
straight-curve $-1 57.376018555253765 35.418095257946042 0 0 0 -1 I I #
plane-surface $-1 -57.376018555253765 0 0 1 0 0 0 0 -1 forward_v I I I I #
coedge $-1 $278 $287 $282 $314 forward $211 $-1 #
coedge $-1 $214 $213 $315 $316 forward $84 $-1 #
coedge $-1 $315 $276 $215 $279 reversed $211 $-1 #
edge $-1 $280 -57.376018555253765 $283 57.376018555253765 $278 $317 forward 7 unknown #
vertex $-1 $316 $318 #
straight-curve $-1 57.376018555253765 0 -15.612303307510459 0 -1 0 I I #
coedge $-1 $223 $217 $276 $314 reversed $224 $-1 #
vertex $-1 $218 $319 #
straight-curve $-1 -57.376018555253765 0 -15.612303307510459 0 1 0 I I #
point $-1 -57.376018555253765 -35.418095257946042 -15.612303307510459 #
point $-1 57.376018555253765 -35.418095257946042 -15.612303307510459 #
coedge $-1 $276 $315 $226 $288 reversed $211 $-1 #
edge $-1 $289 -57.376018555253765 $291 57.376018555253765 $287 $320 forward 7 unknown #
vertex $-1 $227 $321 #
straight-curve $-1 -57.376018555253765 -42.749092961891563 -12.184333784019913 0 -1 0 I I #
vertex $-1 $228 $322 #
straight-curve $-1 57.376018555253765 -42.749092961891563 -12.184333784019913 0 1 0 I I #
coedge $-1 $294 $232 $233 $295 reversed $156 $-1 #
coedge $-1 $232 $293 $237 $299 forward $156 $-1 #
edge $-1 $302 -57.376018555253765 $296 -52.693582744932925 $293 $323 forward 7 unknown #
vertex $-1 $235 $324 #
straight-curve $-1 52.693582744932925 14.172365483979707 15.612303307510452 0 -1 0 I I #
straight-curve $-1 5.1935097692494239 35.418095257946042 63.11237738543808 -0.70710677298230462 0 0.70710678939079052 I I #
edge $-1 $302 -15.612303307510459 $238 -10.929867388533218 $237 $325 forward 7 unknown #
point $-1 57.376018555253765 35.418095257946042 10.929867388533218 #
point $-1 52.693582744932925 21.2713666779728 15.612303307510459 #
vertex $-1 $244 $326 #
straight-curve $-1 57.376018555253765 0 15.612303307510459 0 1 0 I I #
vertex $-1 $247 $327 #
point $-1 53.011754880792665 24.100712393967449 9.8338260797015202 #
vertex $-1 $251 $328 #
point $-1 53.011754880792665 28.344730967959421 9.8338260797015202 #
vertex $-1 $255 $329 #
point $-1 53.011754880792665 32.588749541951394 9.8338260797015202 #
straight-curve $-1 -57.376018555253765 35.418095257946042 0 0 0 -1 I I #
point $-1 -57.376018555253765 -35.418095257946042 -15.612303307510459 #
straight-curve $-1 -57.376018555253765 0 -15.612303307510459 0 1 0 I I #
point $-1 -57.376018555253765 35.418095257946042 -15.612303307510459 #
edge $-1 $289 -1.713984761745273 $283 1.713984761745273 $282 $330 forward 7 unknown #
coedge $-1 $287 $278 $277 $316 reversed $211 $-1 #
edge $-1 $291 -1.713984761745273 $280 1.713984761745273 $277 $331 forward 7 unknown #
straight-curve $-1 0 -50.080090665837083 -15.612303307510459 -1 0 0 I I #
point $-1 57.376018555253765 -50.080090665837083 -15.612303307510459 #
point $-1 -57.376018555253765 -50.080090665837083 -15.612303307510459 #
straight-curve $-1 0 -50.080090665837083 -12.184333784019913 1 0 0 I I #
point $-1 -57.376018555253765 -50.080090665837083 -12.184333784019913 #
point $-1 57.376018555253765 -50.080090665837083 -12.184333784019913 #
straight-curve $-1 0 35.418095257946042 15.612303307510459 -1 0 0 I I #
point $-1 52.693582744932925 35.418095257946028 15.612303307510459 #
straight-curve $-1 57.376018555253765 35.418095257946042 0 0 0 -1 I I #
point $-1 57.376018555253765 35.418095257946042 15.612303307510459 #
point $-1 51.597541318419573 24.100712393967449 9.8338260961100072 #
point $-1 51.597541318419573 28.344730967959421 9.8338260961100072 #
point $-1 51.597541318419573 32.588749541951394 9.8338260961100072 #
straight-curve $-1 -57.376018555253765 -50.080090665837083 -13.898318545765186 0 0 -1 I I #
straight-curve $-1 57.376018555253765 -50.080090665837083 -13.898318545765186 0 0 -1 I I #
End-of-ACIS-data 