500 0 8 0           
7 Unknown 11 ACIS 5.0 NT 24 Thu Mar 25 21:28:58 1999 
-1 9.9999999999999995e-007 1e-010 
body $-1 $8 $-1 $9 #
body $-1 $10 $-1 $11 #
body $-1 $12 $-1 $13 #
body $-1 $14 $-1 $15 #
body $-1 $16 $-1 $17 #
body $-1 $18 $-1 $19 #
body $-1 $20 $-1 $21 #
body $-1 $22 $-1 $23 #
lump $-1 $-1 $24 $0 #
transform $-1 1 0 0 0 1 0 0 0 1 40.111087374492627 17.298556749631267 4.528761840297765 1 rotate no_reflect no_shear #
lump $-1 $-1 $25 $1 #
transform $-1 1 0 0 0 1 0 0 0 1 40.111087374492627 17.298556749631267 4.528761840297765 1 rotate no_reflect no_shear #
lump $-1 $-1 $26 $2 #
transform $-1 1 0 0 0 1 0 0 0 1 40.111087374492627 17.298556749631267 4.528761840297765 1 rotate no_reflect no_shear #
lump $-1 $-1 $27 $3 #
transform $-1 1 0 0 0 1 0 0 0 1 40.111087374492627 17.298556749631267 4.528761840297765 1 rotate no_reflect no_shear #
lump $-1 $-1 $28 $4 #
transform $-1 1 0 0 0 1 0 0 0 1 40.111087374492627 17.298556749631267 4.528761840297765 1 rotate no_reflect no_shear #
lump $-1 $-1 $29 $5 #
transform $-1 1 0 0 0 1 0 0 0 1 40.111087374492627 17.298556749631267 4.528761840297765 1 rotate no_reflect no_shear #
lump $-1 $-1 $30 $6 #
transform $-1 1 0 0 0 1 0 0 0 1 40.111087374492627 17.298556749631267 4.528761840297765 1 rotate no_reflect no_shear #
lump $-1 $-1 $31 $7 #
transform $-1 1 0 0 0 1 0 0 0 1 40.111087374492627 17.298556749631267 4.528761840297765 1 rotate no_reflect no_shear #
shell $-1 $-1 $-1 $32 $-1 $8 #
shell $-1 $-1 $-1 $33 $-1 $10 #
shell $-1 $-1 $-1 $34 $-1 $12 #
shell $-1 $-1 $-1 $35 $-1 $14 #
shell $-1 $-1 $-1 $36 $-1 $16 #
shell $-1 $-1 $-1 $37 $-1 $18 #
shell $-1 $-1 $-1 $38 $-1 $20 #
shell $-1 $-1 $-1 $39 $-1 $22 #
face $-1 $40 $41 $24 $-1 $42 forward single #
face $-1 $43 $44 $25 $-1 $45 reversed single #
face $-1 $46 $47 $26 $-1 $48 reversed single #
face $-1 $49 $50 $27 $-1 $51 forward single #
face $-1 $52 $53 $28 $-1 $54 forward single #
face $-1 $55 $56 $29 $-1 $57 forward single #
face $-1 $58 $59 $30 $-1 $60 reversed single #
face $-1 $61 $62 $31 $-1 $63 forward single #
face $-1 $64 $65 $24 $-1 $66 reversed single #
loop $-1 $-1 $67 $32 #
plane-surface $-1 0 0 4.528761840297765 0 0 1 1 0 0 forward_v I I I I #
face $-1 $68 $69 $25 $-1 $70 reversed single #
loop $-1 $-1 $71 $33 #
plane-surface $-1 0 -15.688216830887416 1.528761840297765 0 0 1 1 0 0 forward_v I I I I #
face $-1 $72 $73 $26 $-1 $74 reversed single #
loop $-1 $-1 $75 $34 #
plane-surface $-1 69.47444297475144 3.3411281137236317 110.01671863299804 0 -1 0 -0.86602541151947299 0 -0.49999998660252726 forward_v I I I I #
face $-1 $76 $77 $27 $-1 $78 forward single #
loop $-1 $79 $80 $35 #
cone-surface $-1 38.495207733566566 -4.0747259976256949 2.2299761434990053 -0.86602541151947299 0 -0.49999998660252726 0.24999999330126363 0 -0.43301270575973649 1 I I 0 1 0.5 forward I I I I #
face $-1 $81 $82 $28 $-1 $83 forward single #
loop $-1 $84 $85 $36 #
cone-surface $-1 38.495207733566566 -1.2937807058696968 2.2299761434990053 -0.86602541151947299 0 -0.49999998660252726 0.24999999330126363 0 -0.43301270575973649 1 I I 0 1 0.5 forward I I I I #
face $-1 $86 $87 $29 $-1 $88 forward single #
loop $-1 $89 $90 $37 #
cone-surface $-1 38.495207733566566 1.4871645858863012 2.2299761434990053 -0.86602541151947299 0 -0.49999998660252726 0.24999999330126363 0 -0.43301270575973649 1 I I 0 1 0.5 forward I I I I #
face $-1 $91 $92 $30 $-1 $93 reversed single #
loop $-1 $-1 $94 $38 #
plane-surface $-1 -90.596538385298715 -1.0874150980025732 63.606090844410886 0 1 0 -0.62932039886446345 0 0.77714595512881146 forward_v I I I I #
face $-1 $95 $96 $31 $-1 $97 forward single #
loop $-1 $98 $99 $39 #
cone-surface $-1 -37.242449707666971 3.1862753744210259 1.8438319438835382 0.62932039886446345 0 -0.77714595512881146 0.77714595512881146 0 0.62932039886446345 1 I I 0 1 1 forward I I I I #
face $-1 $100 $101 $24 $-1 $102 reversed single #
loop $-1 $-1 $103 $40 #
plane-surface $-1 0 0 -4.528761840297765 0 0 1 1 0 0 forward_v I I I I #
coedge $-1 $104 $105 $106 $107 forward $41 $-1 #
face $-1 $108 $109 $25 $-1 $110 reversed single #
loop $-1 $-1 $111 $43 #
plane-surface $-1 0 -14.077876912143566 3.028761840297765 0 -1 0 0 0 -1 forward_v I I I I #
coedge $-1 $112 $113 $114 $115 reversed $44 $-1 #
face $-1 $116 $117 $26 $-1 $118 reversed single #
loop $-1 $-1 $119 $46 #
plane-surface $-1 1.0747744170203077e-006 -1.2937807058696968 69.905632333279812 0.86602541151947299 0 0.49999998660252726 0.49999998660252726 0 -0.86602541151947299 forward_v I I I I #
coedge $-1 $120 $121 $122 $123 reversed $47 $-1 #
face $-1 $-1 $124 $27 $-1 $125 forward single #
loop $-1 $126 $127 $49 #
cone-surface $-1 37.845688674926961 -4.0747259976256949 1.8549761535471099 -0.86602541151947299 0 -0.49999998660252726 0.12499999665063181 0 -0.21650635287986825 1 I I -0.70710678118654746 0.70710678118654746 0.25 forward I I I I #
loop $-1 $-1 $128 $35 #
coedge $-1 $80 $80 $129 $130 reversed $50 $-1 #
face $-1 $-1 $131 $28 $-1 $132 forward single #
loop $-1 $133 $134 $52 #
cone-surface $-1 37.845688674926961 -1.2937807058696968 1.8549761535471099 -0.86602541151947299 0 -0.49999998660252726 0.12499999665063181 0 -0.21650635287986825 1 I I -0.70710678118654746 0.70710678118654746 0.25 forward I I I I #
loop $-1 $-1 $135 $36 #
coedge $-1 $85 $85 $136 $137 reversed $53 $-1 #
face $-1 $-1 $138 $29 $-1 $139 forward single #
loop $-1 $140 $141 $55 #
cone-surface $-1 37.845688674926961 1.4871645858863012 1.8549761535471099 -0.86602541151947299 0 -0.49999998660252726 0.12499999665063181 0 -0.21650635287986825 1 I I -0.70710678118654746 0.70710678118654746 0.25 forward I I I I #
loop $-1 $-1 $142 $37 #
coedge $-1 $90 $90 $143 $144 reversed $56 $-1 #
face $-1 $145 $146 $30 $-1 $147 reversed single #
loop $-1 $-1 $148 $58 #
plane-surface $-1 -40.111087374492627 3.1862753744210259 1.261752226600322 -0.62932039886446345 0 0.77714595512881146 0.77714595512881146 0 0.62932039886446345 forward_v I I I I #
coedge $-1 $149 $150 $151 $152 reversed $59 $-1 #
face $-1 $-1 $153 $31 $-1 $154 forward single #
loop $-1 $155 $156 $61 #
cone-surface $-1 -36.076362241098295 3.1862753744210259 0.40383387675362759 0.62932039886446345 0 -0.77714595512881146 0.38857297756440573 0 0.31466019943223172 1 I I -0.70710678118654746 0.70710678118654746 0.5 forward I I I I #
loop $-1 $-1 $157 $39 #
coedge $-1 $99 $99 $158 $159 reversed $62 $-1 #
face $-1 $160 $161 $24 $-1 $162 reversed single #
loop $-1 $-1 $163 $64 #
plane-surface $-1 0 -17.298556749631267 0 0 1 0 0 0 1 forward_v I I I I #
coedge $-1 $164 $165 $166 $167 forward $65 $-1 #
coedge $-1 $168 $67 $169 $170 forward $41 $-1 #
coedge $-1 $67 $168 $171 $172 forward $41 $-1 #
coedge $-1 $173 $174 $67 $107 reversed $175 $-1 #
edge $-1 $176 -17.298556749631267 $177 17.298556749631267 $106 $178 forward 7 unknown #
face $-1 $179 $180 $25 $-1 $181 reversed single #
loop $-1 $-1 $182 $68 #
plane-surface $-1 -40.111087374492627 0 0 1 0 0 0 0 -1 forward_v I I I I #
coedge $-1 $183 $184 $185 $186 reversed $69 $-1 #
coedge $-1 $187 $71 $188 $189 reversed $44 $-1 #
coedge $-1 $71 $187 $183 $190 forward $44 $-1 #
coedge $-1 $185 $191 $71 $115 forward $192 $-1 #
edge $-1 $193 -9.4544483341875587 $194 -6.2337684966998577 $114 $195 forward 7 unknown #
face $-1 $196 $197 $26 $-1 $198 reversed single #
loop $-1 $-1 $199 $72 #
plane-surface $-1 69.47444297475144 -5.9286895254630254 110.01671863299804 0 1 0 0.86602541151947299 0 0.49999998660252726 forward_v I I I I #
coedge $-1 $200 $201 $202 $203 reversed $73 $-1 #
coedge $-1 $121 $75 $204 $205 reversed $47 $-1 #
coedge $-1 $75 $120 $200 $206 reversed $47 $-1 #
coedge $-1 $202 $207 $75 $123 forward $208 $-1 #
edge $-1 $209 -5.3738658871169065 $210 -3.0081320167842733 $122 $211 forward 7 unknown #
loop $-1 $-1 $129 $76 #
plane-surface $-1 1.0747744170203077e-006 -1.2937807058696968 69.905632333279812 0.86602541151947299 0 0.49999998660252726 0.49999998660252726 0 -0.86602541151947299 forward_v I I I I #
loop $-1 $-1 $212 $49 #
coedge $-1 $127 $127 $128 $213 reversed $77 $-1 #
coedge $-1 $128 $128 $127 $213 forward $79 $-1 #
coedge $-1 $129 $129 $80 $130 forward $124 $-1 #
edge $-1 $214 0 $214 6.2831853071796004 $129 $215 forward 7 unknown #
loop $-1 $-1 $136 $81 #
plane-surface $-1 1.0747744170203077e-006 -1.2937807058696968 69.905632333279812 0.86602541151947299 0 0.49999998660252726 0.49999998660252726 0 -0.86602541151947299 forward_v I I I I #
loop $-1 $-1 $216 $52 #
coedge $-1 $134 $134 $135 $217 reversed $82 $-1 #
coedge $-1 $135 $135 $134 $217 forward $84 $-1 #
coedge $-1 $136 $136 $85 $137 forward $131 $-1 #
edge $-1 $218 0 $218 6.2831853071796004 $136 $219 forward 7 unknown #
loop $-1 $-1 $143 $86 #
plane-surface $-1 1.0747744170203077e-006 -1.2937807058696968 69.905632333279812 0.86602541151947299 0 0.49999998660252726 0.49999998660252726 0 -0.86602541151947299 forward_v I I I I #
loop $-1 $-1 $220 $55 #
coedge $-1 $141 $141 $142 $221 reversed $87 $-1 #
coedge $-1 $142 $142 $141 $221 forward $89 $-1 #
coedge $-1 $143 $143 $90 $144 forward $138 $-1 #
edge $-1 $222 0 $222 6.2831853071796004 $143 $223 forward 7 unknown #
face $-1 $224 $225 $30 $-1 $226 forward single #
loop $-1 $-1 $227 $91 #
plane-surface $-1 -90.596538385298715 7.459965846844625 63.606090844410886 0 -1 0 0.62932039886446345 0 -0.77714595512881146 forward_v I I I I #
coedge $-1 $228 $229 $230 $231 reversed $92 $-1 #
coedge $-1 $150 $94 $232 $233 reversed $59 $-1 #
coedge $-1 $94 $149 $228 $234 reversed $59 $-1 #
coedge $-1 $230 $235 $94 $152 forward $225 $-1 #
edge $-1 $236 5.1871818181567306 $237 9.2216026175351402 $151 $238 forward 7 unknown #
loop $-1 $-1 $158 $95 #
plane-surface $-1 -40.111087374492627 3.1862753744210259 1.261752226600322 -0.62932039886446345 0 0.77714595512881146 0.77714595512881146 0 0.62932039886446345 forward_v I I I I #
loop $-1 $-1 $239 $61 #
coedge $-1 $156 $156 $157 $240 reversed $96 $-1 #
coedge $-1 $157 $157 $156 $240 forward $98 $-1 #
coedge $-1 $158 $158 $99 $159 forward $153 $-1 #
edge $-1 $241 0 $241 6.2831853071796004 $158 $242 forward 7 unknown #
face $-1 $243 $244 $24 $-1 $245 reversed single #
loop $-1 $-1 $246 $100 #
plane-surface $-1 -40.111087374492627 0 0 1 0 0 0 0 -1 forward_v I I I I #
coedge $-1 $247 $171 $248 $249 forward $101 $-1 #
coedge $-1 $250 $103 $247 $251 forward $65 $-1 #
coedge $-1 $103 $250 $252 $253 forward $65 $-1 #
coedge $-1 $174 $173 $103 $167 reversed $175 $-1 #
edge $-1 $254 -17.298556749631267 $255 17.298556749631267 $166 $256 forward 7 unknown #
coedge $-1 $105 $104 $257 $258 forward $41 $-1 #
coedge $-1 $259 $260 $104 $170 reversed $244 $-1 #
edge $-1 $177 -40.111087374492627 $261 40.111087374492627 $169 $262 forward 7 unknown #
coedge $-1 $163 $263 $105 $172 reversed $101 $-1 #
edge $-1 $264 -40.111087374492627 $176 40.111087374492627 $171 $265 forward 7 unknown #
coedge $-1 $166 $106 $263 $266 forward $175 $-1 #
coedge $-1 $106 $166 $259 $267 reversed $175 $-1 #
loop $-1 $-1 $173 $243 #
vertex $-1 $107 $268 #
vertex $-1 $107 $269 #
straight-curve $-1 40.111087374492627 0 4.528761840297765 0 1 0 I I #
face $-1 $270 $271 $25 $-1 $272 forward single #
loop $-1 $-1 $188 $108 #
plane-surface $-1 0 -17.298556749631267 0 0 1 0 0 0 1 forward_v I I I I #
coedge $-1 $273 $274 $275 $276 forward $109 $-1 #
coedge $-1 $275 $111 $113 $190 reversed $69 $-1 #
coedge $-1 $111 $275 $277 $278 reversed $69 $-1 #
coedge $-1 $279 $114 $111 $186 forward $192 $-1 #
edge $-1 $194 0.014380920148882481 $280 3.0143809201488825 $185 $281 forward 7 unknown #
coedge $-1 $113 $112 $273 $282 reversed $44 $-1 #
coedge $-1 $283 $284 $112 $189 forward $180 $-1 #
edge $-1 $285 -40.111087374492627 $193 40.111087374492627 $188 $286 forward 7 unknown #
edge $-1 $287 -40.111087374492627 $194 40.111087374492627 $183 $288 forward 7 unknown #
coedge $-1 $114 $279 $283 $289 forward $192 $-1 #
loop $-1 $-1 $185 $270 #
vertex $-1 $189 $290 #
vertex $-1 $115 $291 #
straight-curve $-1 40.111087374492627 -7.8441084154437082 1.528761840297765 0 1 0 I I #
face $-1 $-1 $208 $26 $-1 $292 forward single #
loop $-1 $-1 $293 $116 #
plane-surface $-1 40.111087374492627 0 0 -1 0 0 0 0 1 forward_v I I I I #
coedge $-1 $294 $295 $296 $297 reversed $117 $-1 #
coedge $-1 $298 $119 $121 $206 forward $73 $-1 #
coedge $-1 $119 $298 $294 $299 forward $73 $-1 #
coedge $-1 $296 $122 $119 $203 forward $208 $-1 #
edge $-1 $210 -3.9880184666584801 $300 5.281799172528177 $202 $301 forward 7 unknown #
coedge $-1 $302 $303 $120 $205 forward $197 $-1 #
edge $-1 $304 -54.577168883196215 $209 -50.479597476201249 $204 $305 forward 7 unknown #
edge $-1 $210 75.490706881540532 $304 80.222174748985225 $121 $306 forward 7 unknown #
coedge $-1 $122 $296 $302 $307 forward $208 $-1 #
loop $-1 $-1 $296 $196 #
vertex $-1 $205 $308 #
vertex $-1 $123 $309 #
straight-curve $-1 34.73722148737572 3.3411281137236317 4.5287618402977685 -1 0 0 I I #
coedge $-1 $212 $212 $-1 $310 reversed $126 $-1 #
edge $-1 $311 0 $311 6.2831853071796004 $127 $312 forward 7 unknown #
vertex $-1 $130 $313 #
ellipse-curve $-1 38.928220439326324 -4.0747259976256949 2.4799761368002797 0.86602541151947299 0 0.49999998660252726 0.24999999330126363 0 -0.43301270575973649 1 I I #
coedge $-1 $216 $216 $-1 $314 reversed $133 $-1 #
edge $-1 $315 0 $315 6.2831853071796004 $134 $316 forward 7 unknown #
vertex $-1 $137 $317 #
ellipse-curve $-1 38.928220439326324 -1.2937807058696968 2.4799761368002797 0.86602541151947299 0 0.49999998660252726 0.24999999330126363 0 -0.43301270575973649 1 I I #
coedge $-1 $220 $220 $-1 $318 reversed $140 $-1 #
edge $-1 $319 0 $319 6.2831853071796004 $141 $320 forward 7 unknown #
vertex $-1 $144 $321 #
ellipse-curve $-1 38.928220439326324 1.4871645858863012 2.4799761368002797 0.86602541151947299 0 0.49999998660252726 0.24999999330126363 0 -0.43301270575973649 1 I I #
face $-1 $-1 $322 $30 $-1 $323 reversed single #
loop $-1 $-1 $151 $145 #
plane-surface $-1 0 0 4.528761840297765 0 0 1 1 0 0 forward_v I I I I #
coedge $-1 $324 $325 $326 $327 reversed $146 $-1 #
coedge $-1 $328 $148 $150 $234 forward $92 $-1 #
coedge $-1 $148 $328 $324 $329 forward $92 $-1 #
coedge $-1 $326 $151 $148 $231 forward $225 $-1 #
edge $-1 $237 -2.6805527852130862 $330 5.8668281596341121 $230 $331 forward 7 unknown #
coedge $-1 $332 $333 $149 $233 forward $322 $-1 #
edge $-1 $334 -30.541293195605121 $236 -27.274283581907678 $232 $335 forward 7 unknown #
edge $-1 $237 -5.1913295987105883 $334 0 $150 $336 forward 7 unknown #
coedge $-1 $151 $326 $332 $337 forward $225 $-1 #
vertex $-1 $233 $338 #
vertex $-1 $152 $339 #
straight-curve $-1 -45.298269192649357 -1.0874150980025732 4.528761840297765 1 0 0 I I #
coedge $-1 $239 $239 $-1 $340 reversed $155 $-1 #
edge $-1 $341 0 $341 6.2831853071796004 $156 $342 forward 7 unknown #
vertex $-1 $159 $343 #
ellipse-curve $-1 -38.093876974803422 3.1862753744210259 2.8952570334490453 -0.62932039886446345 0 0.77714595512881146 0.77714595512881146 0 0.62932039886446345 1 I I #
face $-1 $-1 $175 $24 $-1 $344 reversed single #
loop $-1 $-1 $259 $160 #
plane-surface $-1 0 17.298556749631267 0 0 -1 0 0 0 -1 forward_v I I I I #
coedge $-1 $345 $257 $260 $346 forward $161 $-1 #
coedge $-1 $263 $163 $164 $251 reversed $101 $-1 #
coedge $-1 $257 $345 $163 $249 reversed $161 $-1 #
edge $-1 $264 -4.528761840297765 $347 4.528761840297765 $248 $348 forward 7 unknown #
coedge $-1 $165 $164 $345 $349 forward $65 $-1 #
edge $-1 $255 -40.111087374492627 $347 40.111087374492627 $247 $350 forward 7 unknown #
coedge $-1 $260 $259 $165 $253 reversed $244 $-1 #
edge $-1 $351 -40.111087374492627 $254 40.111087374492627 $252 $352 forward 7 unknown #
vertex $-1 $167 $353 #
vertex $-1 $266 $354 #
straight-curve $-1 40.111087374492627 0 -4.528761840297765 0 -1 0 I I #
coedge $-1 $246 $248 $168 $258 reversed $161 $-1 #
edge $-1 $261 -17.298556749631267 $264 17.298556749631267 $257 $355 forward 7 unknown #
coedge $-1 $252 $169 $174 $267 forward $244 $-1 #
coedge $-1 $169 $252 $246 $346 reversed $244 $-1 #
vertex $-1 $170 $356 #
straight-curve $-1 0 17.298556749631267 4.528761840297765 -1 0 0 I I #
coedge $-1 $171 $247 $173 $266 reversed $101 $-1 #
vertex $-1 $258 $357 #
straight-curve $-1 0 -17.298556749631267 4.528761840297765 1 0 0 I I #
edge $-1 $176 -4.528761840297765 $255 4.528761840297765 $173 $358 forward 7 unknown #
edge $-1 $177 -4.528761840297765 $254 4.528761840297765 $174 $359 forward 7 unknown #
point $-1 40.111087374492627 -17.298556749631267 4.528761840297765 #
point $-1 40.111087374492627 17.298556749631267 4.528761840297765 #
face $-1 $-1 $192 $25 $-1 $360 reversed single #
loop $-1 $-1 $277 $179 #
plane-surface $-1 0 0 4.528761840297765 0 0 1 1 0 0 forward_v I I I I #
coedge $-1 $361 $182 $187 $282 forward $109 $-1 #
coedge $-1 $182 $361 $362 $363 reversed $109 $-1 #
coedge $-1 $184 $183 $182 $276 reversed $69 $-1 #
edge $-1 $364 -3.0143809201488825 $287 -0.014380920148882481 $182 $365 forward 7 unknown #
coedge $-1 $362 $366 $184 $278 forward $271 $-1 #
edge $-1 $280 -40.111087374492627 $364 40.111087374492627 $277 $367 forward 7 unknown #
coedge $-1 $191 $185 $366 $368 reversed $192 $-1 #
vertex $-1 $186 $369 #
straight-curve $-1 40.111087374492627 -14.077876912143566 1.5143809201488825 0 0 1 I I #
edge $-1 $287 6.2337684966998577 $285 9.4544483341875587 $273 $370 forward 7 unknown #
coedge $-1 $371 $188 $191 $289 reversed $180 $-1 #
coedge $-1 $188 $371 $361 $372 forward $180 $-1 #
vertex $-1 $189 $373 #
straight-curve $-1 0 -17.298556749631267 1.528761840297765 1 0 0 I I #
vertex $-1 $282 $374 #
straight-curve $-1 0 -14.077876912143566 1.528761840297765 1 0 0 I I #
edge $-1 $375 -4.528761840297765 $193 -1.528761840297765 $191 $376 forward 7 unknown #
point $-1 40.111087374492627 -17.298556749631267 1.528761840297765 #
point $-1 40.111087374492627 -14.077876912143566 1.528761840297765 #
plane-surface $-1 0 0 4.528761840297765 0 0 1 1 0 0 forward_v I I I I #
coedge $-1 $303 $302 $295 $377 forward $197 $-1 #
coedge $-1 $295 $199 $201 $299 reversed $117 $-1 #
coedge $-1 $199 $294 $293 $377 reversed $117 $-1 #
coedge $-1 $207 $202 $199 $297 forward $208 $-1 #
edge $-1 $300 3.0081320167842733 $378 5.3738658871169065 $296 $379 forward 7 unknown #
coedge $-1 $201 $200 $303 $380 reversed $73 $-1 #
edge $-1 $381 -80.222174748985225 $300 -75.490706881540532 $294 $382 forward 7 unknown #
vertex $-1 $203 $383 #
straight-curve $-1 37.745353504159986 -0.64689035293484842 4.5287618402977685 0 -1 0 I I #
coedge $-1 $293 $204 $207 $307 reversed $197 $-1 #
coedge $-1 $204 $293 $298 $380 forward $197 $-1 #
vertex $-1 $205 $384 #
straight-curve $-1 40.111087374492627 3.3411281137236317 55.008359316499018 0 0 1 I I #
straight-curve $-1 1.0747744170203077e-006 3.3411281137236317 69.905632333279812 0.49999998660252726 0 -0.86602541151947299 I I #
edge $-1 $378 -5.9286895254630254 $209 3.3411281137236317 $302 $385 forward 7 unknown #
point $-1 40.111087374492627 3.3411281137236317 4.528761840297765 #
point $-1 37.745353504159993 3.3411281137236317 4.5287618402977614 #
edge $-1 $386 1 $386 0 $212 $-1 forward 7 unknown #
vertex $-1 $213 $387 #
ellipse-curve $-1 38.06219502780683 -4.0747259976256949 1.9799761501977418 0.86602541151947299 0 0.49999998660252726 0.24999999330126363 0 -0.43301270575973649 1 I I #
point $-1 39.178220432627569 -4.0747259976256949 2.0469634310405325 #
edge $-1 $388 1 $388 0 $216 $-1 forward 7 unknown #
vertex $-1 $217 $389 #
ellipse-curve $-1 38.06219502780683 -1.2937807058696968 1.9799761501977418 0.86602541151947299 0 0.49999998660252726 0.24999999330126363 0 -0.43301270575973649 1 I I #
point $-1 39.178220432627569 -1.2937807058696968 2.0469634310405325 #
edge $-1 $390 1 $390 0 $220 $-1 forward 7 unknown #
vertex $-1 $221 $391 #
ellipse-curve $-1 38.06219502780683 1.4871645858863012 1.9799761501977418 0.86602541151947299 0 0.49999998660252726 0.24999999330126363 0 -0.43301270575973649 1 I I #
point $-1 39.178220432627569 1.4871645858863012 2.0469634310405325 #
loop $-1 $-1 $232 $224 #
plane-surface $-1 -40.111087374492627 0 0 1 0 0 0 0 -1 forward_v I I I I #
coedge $-1 $325 $227 $229 $329 reversed $146 $-1 #
coedge $-1 $227 $324 $392 $393 reversed $146 $-1 #
coedge $-1 $235 $230 $227 $327 forward $225 $-1 #
edge $-1 $330 -9.2216026175351402 $394 -5.1871818181567306 $326 $395 forward 7 unknown #
coedge $-1 $229 $228 $333 $396 reversed $92 $-1 #
edge $-1 $397 0 $330 5.1913295987105883 $324 $398 forward 7 unknown #
vertex $-1 $231 $399 #
straight-curve $-1 -36.076666575114217 1.593137687210513 4.5287618402977641 0 1 0 I I #
coedge $-1 $392 $232 $235 $337 reversed $322 $-1 #
coedge $-1 $232 $392 $328 $396 forward $322 $-1 #
vertex $-1 $233 $400 #
straight-curve $-1 -40.111087374492627 -1.0874150980025732 31.803045422205443 0 0 1 I I #
straight-curve $-1 -40.111087374492627 -1.0874150980025732 1.261752226600322 -0.77714595512881146 0 -0.62932039886446345 I I #
edge $-1 $394 -7.459965846844625 $236 1.0874150980025732 $332 $401 forward 7 unknown #
point $-1 -40.111087374492627 -1.0874150980025732 4.528761840297765 #
point $-1 -36.076666575114217 -1.0874150980025732 4.528761840297765 #
edge $-1 $402 1 $402 0 $239 $-1 forward 7 unknown #
vertex $-1 $240 $403 #
ellipse-curve $-1 -36.391022440530527 3.1862753744210259 0.79240685431803337 -0.62932039886446345 0 0.77714595512881146 0.77714595512881146 0 0.62932039886446345 1 I I #
point $-1 -37.316731019674606 3.1862753744210259 3.5245774323135071 #
plane-surface $-1 40.111087374492627 0 0 -1 0 0 0 0 1 forward_v I I I I #
coedge $-1 $248 $246 $250 $349 reversed $161 $-1 #
edge $-1 $261 -4.528761840297765 $351 4.528761840297765 $260 $404 forward 7 unknown #
vertex $-1 $349 $405 #
straight-curve $-1 -40.111087374492627 -17.298556749631267 0 0 0 -1 I I #
edge $-1 $347 -17.298556749631267 $351 17.298556749631267 $345 $406 forward 7 unknown #
straight-curve $-1 0 -17.298556749631267 -4.528761840297765 -1 0 0 I I #
vertex $-1 $253 $407 #
straight-curve $-1 0 17.298556749631267 -4.528761840297765 1 0 0 I I #
point $-1 40.111087374492627 17.298556749631267 -4.528761840297765 #
point $-1 40.111087374492627 -17.298556749631267 -4.528761840297765 #
straight-curve $-1 -40.111087374492627 0 4.528761840297765 0 -1 0 I I #
point $-1 -40.111087374492627 17.298556749631267 4.528761840297765 #
point $-1 -40.111087374492627 -17.298556749631267 4.528761840297765 #
straight-curve $-1 40.111087374492627 -17.298556749631267 0 0 0 -1 I I #
straight-curve $-1 40.111087374492627 17.298556749631267 0 0 0 -1 I I #
plane-surface $-1 40.111087374492627 0 0 -1 0 0 0 0 1 forward_v I I I I #
coedge $-1 $274 $273 $284 $372 reversed $109 $-1 #
coedge $-1 $408 $277 $274 $363 forward $271 $-1 #
edge $-1 $364 14.077876912143566 $409 17.298556749631267 $274 $410 forward 7 unknown #
vertex $-1 $363 $411 #
straight-curve $-1 -40.111087374492627 -14.077876912143566 1.5143809201488825 0 0 -1 I I #
coedge $-1 $277 $408 $279 $368 forward $271 $-1 #
straight-curve $-1 0 -14.077876912143566 4.528761840297765 -1 0 0 I I #
edge $-1 $375 -17.298556749631267 $280 -14.077876912143566 $279 $412 forward 7 unknown #
point $-1 40.111087374492627 -14.077876912143566 4.528761840297765 #
straight-curve $-1 -40.111087374492627 -7.8441084154437082 1.528761840297765 0 -1 0 I I #
coedge $-1 $284 $283 $408 $413 reversed $180 $-1 #
edge $-1 $409 -4.528761840297765 $285 -1.528761840297765 $361 $414 forward 7 unknown #
point $-1 -40.111087374492627 -17.298556749631267 1.528761840297765 #
point $-1 -40.111087374492627 -14.077876912143566 1.528761840297765 #
vertex $-1 $368 $415 #
straight-curve $-1 40.111087374492627 -17.298556749631267 0 0 0 -1 I I #
edge $-1 $378 50.479597476201249 $381 54.577168883196215 $293 $416 forward 7 unknown #
vertex $-1 $307 $417 #
straight-curve $-1 34.73722148737572 -5.9286895254630254 4.5287618402977685 1 0 0 I I #
edge $-1 $381 -5.281799172528177 $304 3.9880184666584801 $303 $418 forward 7 unknown #
vertex $-1 $380 $419 #
straight-curve $-1 1.0747744170203077e-006 -5.9286895254630254 69.905632333279812 -0.49999998660252726 0 0.86602541151947299 I I #
point $-1 37.745353504159993 -5.9286895254630254 4.5287618402977614 #
point $-1 40.111087374492627 3.3411281137236317 0.43119043330280249 #
straight-curve $-1 40.111087374492627 0 4.528761840297765 0 1 0 I I #
vertex $-1 $310 $420 #
point $-1 38.312195021108096 -4.0747259976256949 1.5469634444380052 #
vertex $-1 $314 $421 #
point $-1 38.312195021108096 -1.2937807058696968 1.5469634444380052 #
vertex $-1 $318 $422 #
point $-1 38.312195021108096 1.4871645858863012 1.5469634444380052 #
coedge $-1 $333 $332 $325 $393 forward $322 $-1 #
edge $-1 $394 27.274283581907678 $397 30.541293195605121 $392 $423 forward 7 unknown #
vertex $-1 $337 $424 #
straight-curve $-1 -45.298269192649357 7.459965846844625 4.528761840297765 -1 0 0 I I #
edge $-1 $397 -5.8668281596341121 $334 2.6805527852130862 $333 $425 forward 7 unknown #
vertex $-1 $396 $426 #
straight-curve $-1 -40.111087374492627 7.459965846844625 1.261752226600322 0.77714595512881146 0 0.62932039886446345 I I #
point $-1 -36.076666575114217 7.459965846844625 4.528761840297765 #
point $-1 -40.111087374492627 -1.0874150980025732 1.261752226600322 #
straight-curve $-1 -40.111087374492627 0 4.528761840297765 0 -1 0 I I #
vertex $-1 $340 $427 #
point $-1 -35.613876485401718 3.1862753744210259 1.4217272531824967 #
straight-curve $-1 -40.111087374492627 17.298556749631267 0 0 0 -1 I I #
point $-1 -40.111087374492627 -17.298556749631267 -4.528761840297765 #
straight-curve $-1 -40.111087374492627 0 -4.528761840297765 0 1 0 I I #
point $-1 -40.111087374492627 17.298556749631267 -4.528761840297765 #
coedge $-1 $366 $362 $371 $413 forward $271 $-1 #
vertex $-1 $363 $428 #
straight-curve $-1 -40.111087374492627 0 4.528761840297765 0 -1 0 I I #
point $-1 -40.111087374492627 -14.077876912143566 4.528761840297765 #
straight-curve $-1 40.111087374492627 0 4.528761840297765 0 1 0 I I #
edge $-1 $409 -40.111087374492627 $375 40.111087374492627 $371 $429 forward 7 unknown #
straight-curve $-1 -40.111087374492627 -17.298556749631267 0 0 0 -1 I I #
point $-1 40.111087374492627 -17.298556749631267 4.528761840297765 #
straight-curve $-1 40.111087374492627 -5.9286895254630254 55.008359316499018 0 0 -1 I I #
point $-1 40.111087374492627 -5.9286895254630254 4.528761840297765 #
straight-curve $-1 40.111087374492627 -0.64689035293484842 0.43119043330280959 0 1 0 I I #
point $-1 40.111087374492627 -5.9286895254630254 0.43119043330280249 #
point $-1 37.629182322047093 -4.0747259976256949 1.729976156896478 #
point $-1 37.629182322047093 -1.2937807058696968 1.729976156896478 #
point $-1 37.629182322047093 1.4871645858863012 1.729976156896478 #
straight-curve $-1 -40.111087374492627 7.459965846844625 31.803045422205443 0 0 -1 I I #
point $-1 -40.111087374492627 7.459965846844625 4.528761840297765 #
straight-curve $-1 -40.111087374492627 1.593137687210513 1.2617522266003227 0 -1 0 I I #
point $-1 -40.111087374492627 7.459965846844625 1.261752226600322 #
point $-1 -35.761702041666062 3.1862753744210259 0.015260899189221855 #
point $-1 -40.111087374492627 -17.298556749631267 4.528761840297765 #
straight-curve $-1 0 -17.298556749631267 4.528761840297765 1 0 0 I I #
End-of-ACIS-data 