500 0 13 0           
7 Unknown 11 ACIS 5.0 NT 24 Fri Mar 26 02:52:41 1999 
-1 9.9999999999999995e-007 1e-010 
body $-1 $13 $-1 $14 #
body $-1 $15 $-1 $16 #
body $-1 $17 $-1 $18 #
body $-1 $19 $-1 $20 #
body $-1 $21 $-1 $22 #
body $-1 $23 $-1 $24 #
body $-1 $25 $-1 $26 #
body $-1 $27 $-1 $28 #
body $-1 $29 $-1 $30 #
body $-1 $31 $-1 $32 #
body $-1 $33 $-1 $34 #
body $-1 $35 $-1 $36 #
body $-1 $37 $-1 $38 #
lump $-1 $-1 $39 $0 #
transform $-1 1 0 0 0 1 0 0 0 1 71.291238135929433 37.621156780523812 16.196604341913918 1 rotate no_reflect no_shear #
lump $-1 $-1 $40 $1 #
transform $-1 1 0 0 0 1 0 0 0 1 71.291238135929433 37.621156780523812 16.196604341913918 1 rotate no_reflect no_shear #
lump $-1 $-1 $41 $2 #
transform $-1 1 0 0 0 1 0 0 0 1 71.291238135929433 37.621156780523812 16.196604341913918 1 rotate no_reflect no_shear #
lump $-1 $-1 $42 $3 #
transform $-1 1 0 0 0 1 0 0 0 1 71.291238135929433 37.621156780523812 16.196604341913918 1 rotate no_reflect no_shear #
lump $-1 $-1 $43 $4 #
transform $-1 1 0 0 0 1 0 0 0 1 71.291238135929433 37.621156780523812 16.196604341913918 1 rotate no_reflect no_shear #
lump $-1 $-1 $44 $5 #
transform $-1 1 0 0 0 1 0 0 0 1 71.291238135929433 37.621156780523812 16.196604341913918 1 rotate no_reflect no_shear #
lump $-1 $-1 $45 $6 #
transform $-1 1 0 0 0 1 0 0 0 1 71.291238135929433 37.621156780523812 16.196604341913918 1 rotate no_reflect no_shear #
lump $-1 $-1 $46 $7 #
transform $-1 1 0 0 0 1 0 0 0 1 71.291238135929433 37.621156780523812 16.196604341913918 1 rotate no_reflect no_shear #
lump $-1 $-1 $47 $8 #
transform $-1 1 0 0 0 1 0 0 0 1 71.291238135929433 37.621156780523812 16.196604341913918 1 rotate no_reflect no_shear #
lump $-1 $-1 $48 $9 #
transform $-1 1 0 0 0 1 0 0 0 1 71.291238135929433 37.621156780523812 16.196604341913918 1 rotate no_reflect no_shear #
lump $-1 $-1 $49 $10 #
transform $-1 1 0 0 0 1 0 0 0 1 71.291238135929433 37.621156780523812 16.196604341913918 1 rotate no_reflect no_shear #
lump $-1 $-1 $50 $11 #
transform $-1 1 0 0 0 1 0 0 0 1 71.291238135929433 37.621156780523812 16.196604341913918 1 rotate no_reflect no_shear #
lump $-1 $-1 $51 $12 #
transform $-1 1 0 0 0 1 0 0 0 1 71.291238135929433 37.621156780523812 16.196604341913918 1 rotate no_reflect no_shear #
shell $-1 $-1 $-1 $52 $-1 $13 #
shell $-1 $-1 $-1 $53 $-1 $15 #
shell $-1 $-1 $-1 $54 $-1 $17 #
shell $-1 $-1 $-1 $55 $-1 $19 #
shell $-1 $-1 $-1 $56 $-1 $21 #
shell $-1 $-1 $-1 $57 $-1 $23 #
shell $-1 $-1 $-1 $58 $-1 $25 #
shell $-1 $-1 $-1 $59 $-1 $27 #
shell $-1 $-1 $-1 $60 $-1 $29 #
shell $-1 $-1 $-1 $61 $-1 $31 #
shell $-1 $-1 $-1 $62 $-1 $33 #
shell $-1 $-1 $-1 $63 $-1 $35 #
shell $-1 $-1 $-1 $64 $-1 $37 #
face $-1 $65 $66 $39 $-1 $67 forward single #
face $-1 $68 $69 $40 $-1 $70 forward single #
face $-1 $71 $72 $41 $-1 $73 reversed single #
face $-1 $74 $75 $42 $-1 $76 forward single #
face $-1 $77 $78 $43 $-1 $79 forward single #
face $-1 $80 $81 $44 $-1 $82 reversed single #
face $-1 $83 $84 $45 $-1 $85 forward single #
face $-1 $86 $87 $46 $-1 $88 reversed single #
face $-1 $89 $90 $47 $-1 $91 forward single #
face $-1 $92 $93 $48 $-1 $94 reversed single #
face $-1 $95 $96 $49 $-1 $97 forward single #
face $-1 $98 $99 $50 $-1 $100 reversed single #
face $-1 $101 $102 $51 $-1 $103 forward single #
face $-1 $104 $105 $39 $-1 $106 reversed single #
loop $-1 $-1 $107 $52 #
plane-surface $-1 0 0 16.196604341913918 0 0 1 1 0 0 forward_v I I I I #
face $-1 $108 $109 $40 $-1 $110 reversed single #
loop $-1 $-1 $111 $53 #
plane-surface $-1 -71.291238135929433 0 0 1 0 0 0 0 -1 forward_v I I I I #
face $-1 $112 $113 $41 $-1 $114 reversed single #
loop $-1 $-1 $115 $54 #
plane-surface $-1 22.978396542262125 63.338251089486839 162.55533374139006 1 0 0 0 -0.6018150307709319 -0.79863550430605224 forward_v I I I I #
face $-1 $116 $117 $42 $-1 $118 forward single #
loop $-1 $119 $120 $55 #
cone-surface $-1 32.738772573798002 27.500259240743546 7.6343920283393576 0 -0.6018150307709319 -0.79863550430605224 3 0 0 1 I I 0 1 3 forward I I I I #
face $-1 $121 $122 $43 $-1 $123 forward single #
loop $-1 $124 $125 $56 #
cone-surface $-1 47.3793366211018 27.500259240743546 7.6343920283393576 0 -0.6018150307709319 -0.79863550430605224 3 0 0 1 I I 0 1 3 forward I I I I #
face $-1 $126 $127 $44 $-1 $128 reversed single #
loop $-1 $-1 $129 $57 #
plane-surface $-1 -37.853006184054038 -133.02745673190003 111.72063404913266 -1 0 0 0 -0.66913061440640931 0.74314481823134659 forward_v I I I I #
face $-1 $130 $131 $45 $-1 $132 forward single #
loop $-1 $133 $134 $58 #
cone-surface $-1 -44.522600477282865 -31.176058081088364 10.256721858288822 0 0.66913061440640931 -0.74314481823134659 1.5 0 0 1 I I 0 1 1.5 forward I I I I #
face $-1 $135 $136 $46 $-1 $137 reversed single #
loop $-1 $-1 $138 $59 #
plane-surface $-1 -7.2321479574437593 -133.02745673190003 111.72063404913266 -1 0 0 0 -0.66913061440640931 0.74314481823134659 forward_v I I I I #
face $-1 $139 $140 $47 $-1 $141 forward single #
loop $-1 $142 $143 $60 #
cone-surface $-1 -13.901742250672577 -31.176058081088364 10.256721858288822 0 0.66913061440640931 -0.74314481823134659 1.5 0 0 1 I I 0 1 1.5 forward I I I I #
face $-1 $144 $145 $48 $-1 $146 reversed single #
loop $-1 $-1 $147 $61 #
plane-surface $-1 23.388710269166523 -133.02745673190003 111.72063404913266 -1 0 0 0 -0.66913061440640931 0.74314481823134659 forward_v I I I I #
face $-1 $148 $149 $49 $-1 $150 forward single #
loop $-1 $151 $152 $62 #
cone-surface $-1 16.719115975937711 -31.176058081088364 10.256721858288822 0 0.66913061440640931 -0.74314481823134659 1.5 0 0 1 I I 0 1 1.5 forward I I I I #
face $-1 $153 $154 $50 $-1 $155 reversed single #
loop $-1 $-1 $156 $63 #
plane-surface $-1 54.009568495776804 -133.02745673190003 111.72063404913266 -1 0 0 0 -0.66913061440640931 0.74314481823134659 forward_v I I I I #
face $-1 $157 $158 $51 $-1 $159 forward single #
loop $-1 $160 $161 $64 #
cone-surface $-1 47.339974202547992 -31.176058081088364 10.256721858288822 0 0.66913061440640931 -0.74314481823134659 1.5 0 0 1 I I 0 1 1.5 forward I I I I #
face $-1 $162 $163 $39 $-1 $164 reversed single #
loop $-1 $-1 $165 $65 #
plane-surface $-1 0 0 -16.196604341913918 0 0 1 1 0 0 forward_v I I I I #
coedge $-1 $166 $167 $168 $169 forward $66 $-1 #
face $-1 $170 $171 $40 $-1 $172 forward single #
loop $-1 $-1 $173 $68 #
plane-surface $-1 0 37.621156780523812 0 0 -1 0 0 0 -1 forward_v I I I I #
coedge $-1 $174 $175 $176 $177 forward $69 $-1 #
face $-1 $178 $179 $41 $-1 $180 reversed single #
loop $-1 $-1 $181 $71 #
plane-surface $-1 40.059054597449887 -22.470026255457576 48.68390589880832 0 0.6018150307709319 0.79863550430605224 1 0 0 forward_v I I I I #
coedge $-1 $182 $183 $184 $185 reversed $72 $-1 #
face $-1 $-1 $186 $42 $-1 $187 forward single #
loop $-1 $188 $189 $74 #
cone-surface $-1 32.738772573798002 24.966178450907499 4.2715533053674974 0 -0.6018150307709319 -0.79863550430605224 1.5 0 0 1 I I -0.70710678118654757 0.70710678118654757 1.5 forward I I I I #
loop $-1 $-1 $190 $55 #
coedge $-1 $120 $120 $191 $192 reversed $75 $-1 #
face $-1 $-1 $193 $43 $-1 $194 forward single #
loop $-1 $195 $196 $77 #
cone-surface $-1 47.3793366211018 24.966178450907499 4.2715533053674974 0 -0.6018150307709319 -0.79863550430605224 1.5 0 0 1 I I -0.70710678118654757 0.70710678118654757 1.5 forward I I I I #
loop $-1 $-1 $197 $56 #
coedge $-1 $125 $125 $198 $199 reversed $78 $-1 #
face $-1 $200 $201 $44 $-1 $202 reversed single #
loop $-1 $-1 $203 $80 #
plane-surface $-1 -44.522600477282865 -37.621156780523833 5.7612056371068121 0 -0.66913061440640931 0.74314481823134659 1 0 0 forward_v I I I I #
coedge $-1 $204 $205 $206 $207 reversed $81 $-1 #
face $-1 $-1 $208 $45 $-1 $209 forward single #
loop $-1 $210 $211 $83 #
cone-surface $-1 -44.522600477282865 -30.02395349404711 8.9771801133937714 0 0.66913061440640931 -0.74314481823134659 0.75 0 0 1 I I -0.70710678118654757 0.70710678118654757 0.75 forward I I I I #
loop $-1 $-1 $212 $58 #
coedge $-1 $134 $134 $213 $214 reversed $84 $-1 #
face $-1 $215 $216 $46 $-1 $217 reversed single #
loop $-1 $-1 $218 $86 #
plane-surface $-1 -13.901742250672584 -37.621156780523833 5.7612056371068121 0 -0.66913061440640931 0.74314481823134659 1 0 0 forward_v I I I I #
coedge $-1 $219 $220 $221 $222 reversed $87 $-1 #
face $-1 $-1 $223 $47 $-1 $224 forward single #
loop $-1 $225 $226 $89 #
cone-surface $-1 -13.901742250672577 -30.02395349404711 8.9771801133937714 0 0.66913061440640931 -0.74314481823134659 0.75 0 0 1 I I -0.70710678118654757 0.70710678118654757 0.75 forward I I I I #
loop $-1 $-1 $227 $60 #
coedge $-1 $143 $143 $228 $229 reversed $90 $-1 #
face $-1 $230 $231 $48 $-1 $232 reversed single #
loop $-1 $-1 $233 $92 #
plane-surface $-1 16.719115975937697 -37.621156780523833 5.7612056371068121 0 -0.66913061440640931 0.74314481823134659 1 0 0 forward_v I I I I #
coedge $-1 $234 $235 $236 $237 reversed $93 $-1 #
face $-1 $-1 $238 $49 $-1 $239 forward single #
loop $-1 $240 $241 $95 #
cone-surface $-1 16.719115975937711 -30.02395349404711 8.9771801133937714 0 0.66913061440640931 -0.74314481823134659 0.75 0 0 1 I I -0.70710678118654757 0.70710678118654757 0.75 forward I I I I #
loop $-1 $-1 $242 $62 #
coedge $-1 $152 $152 $243 $244 reversed $96 $-1 #
face $-1 $245 $246 $50 $-1 $247 reversed single #
loop $-1 $-1 $248 $98 #
plane-surface $-1 47.339974202547978 -37.621156780523833 5.7612056371068121 0 -0.66913061440640931 0.74314481823134659 1 0 0 forward_v I I I I #
coedge $-1 $249 $250 $251 $252 reversed $99 $-1 #
face $-1 $-1 $253 $51 $-1 $254 forward single #
loop $-1 $255 $256 $101 #
cone-surface $-1 47.339974202547992 -30.02395349404711 8.9771801133937714 0 0.66913061440640931 -0.74314481823134659 0.75 0 0 1 I I -0.70710678118654757 0.70710678118654757 0.75 forward I I I I #
loop $-1 $-1 $257 $64 #
coedge $-1 $161 $161 $258 $259 reversed $102 $-1 #
face $-1 $260 $261 $39 $-1 $262 reversed single #
loop $-1 $-1 $263 $104 #
plane-surface $-1 0 -37.621156780523812 0 0 1 0 0 0 1 forward_v I I I I #
coedge $-1 $264 $265 $266 $267 forward $105 $-1 #
coedge $-1 $268 $107 $269 $270 forward $66 $-1 #
coedge $-1 $107 $268 $271 $272 forward $66 $-1 #
coedge $-1 $273 $274 $107 $169 reversed $275 $-1 #
edge $-1 $276 -37.621156780523812 $277 37.621156780523812 $168 $278 forward 7 unknown #
face $-1 $279 $280 $40 $-1 $281 reversed single #
loop $-1 $-1 $176 $108 #
plane-surface $-1 -81.340759818638304 0 -12.847945148984142 0 0 1 1 0 0 forward_v I I I I #
coedge $-1 $282 $283 $175 $284 forward $109 $-1 #
coedge $-1 $285 $111 $286 $287 reversed $69 $-1 #
coedge $-1 $111 $285 $173 $284 reversed $69 $-1 #
coedge $-1 $288 $289 $111 $177 reversed $171 $-1 #
edge $-1 $290 -37.621156780523812 $291 37.621156780523812 $176 $292 forward 7 unknown #
face $-1 $293 $294 $41 $-1 $295 forward single #
loop $-1 $-1 $296 $112 #
plane-surface $-1 57.139712652637648 63.338251089486839 162.55533374139006 -1 0 0 0 0.6018150307709319 0.79863550430605224 forward_v I I I I #
coedge $-1 $297 $298 $299 $300 reversed $113 $-1 #
coedge $-1 $183 $115 $301 $302 reversed $72 $-1 #
coedge $-1 $115 $182 $297 $303 reversed $72 $-1 #
coedge $-1 $299 $304 $115 $185 forward $294 $-1 #
edge $-1 $305 -5.9520312357803924 $306 11.027047356420884 $184 $307 forward 7 unknown #
loop $-1 $-1 $191 $116 #
plane-surface $-1 40.059054597449887 -22.470026255457576 48.68390589880832 0 0.6018150307709319 0.79863550430605224 1 0 0 forward_v I I I I #
loop $-1 $-1 $308 $74 #
coedge $-1 $189 $189 $190 $309 reversed $117 $-1 #
coedge $-1 $190 $190 $189 $309 forward $119 $-1 #
coedge $-1 $191 $191 $120 $192 forward $186 $-1 #
edge $-1 $310 -1.3445375379664005e-017 $310 6.2831853071796004 $191 $311 forward 7 unknown #
loop $-1 $-1 $198 $121 #
plane-surface $-1 40.059054597449887 -22.470026255457576 48.68390589880832 0 0.6018150307709319 0.79863550430605224 1 0 0 forward_v I I I I #
loop $-1 $-1 $312 $77 #
coedge $-1 $196 $196 $197 $313 reversed $122 $-1 #
coedge $-1 $197 $197 $196 $313 forward $124 $-1 #
coedge $-1 $198 $198 $125 $199 forward $193 $-1 #
edge $-1 $314 -1.3445375379664005e-017 $314 6.2831853071796004 $198 $315 forward 7 unknown #
face $-1 $316 $317 $44 $-1 $318 reversed single #
loop $-1 $-1 $319 $126 #
plane-surface $-1 -51.192194770511691 -133.02745673190003 111.72063404913266 1 0 0 0 0.66913061440640931 -0.74314481823134659 forward_v I I I I #
coedge $-1 $320 $321 $322 $323 reversed $127 $-1 #
coedge $-1 $205 $129 $324 $325 reversed $81 $-1 #
coedge $-1 $129 $204 $320 $326 reversed $81 $-1 #
coedge $-1 $322 $327 $129 $207 forward $328 $-1 #
edge $-1 $329 28.892571585426204 $330 40.482255731824168 $206 $331 forward 7 unknown #
loop $-1 $-1 $213 $130 #
plane-surface $-1 -44.522600477282865 -37.621156780523833 5.7612056371068121 0 -0.66913061440640931 0.74314481823134659 1 0 0 forward_v I I I I #
loop $-1 $-1 $332 $83 #
coedge $-1 $211 $211 $212 $333 reversed $131 $-1 #
coedge $-1 $212 $212 $211 $333 forward $133 $-1 #
coedge $-1 $213 $213 $134 $214 forward $208 $-1 #
edge $-1 $334 7.0120339827835448e-016 $334 6.2831853071796013 $213 $335 forward 7 unknown #
face $-1 $336 $337 $46 $-1 $338 reversed single #
loop $-1 $-1 $339 $135 #
plane-surface $-1 -20.57133654390141 -133.02745673190003 111.72063404913266 1 0 0 0 0.66913061440640931 -0.74314481823134659 forward_v I I I I #
coedge $-1 $340 $341 $342 $343 reversed $136 $-1 #
coedge $-1 $220 $138 $344 $345 reversed $87 $-1 #
coedge $-1 $138 $219 $340 $346 reversed $87 $-1 #
coedge $-1 $342 $347 $138 $222 forward $348 $-1 #
edge $-1 $349 28.892571585426204 $350 40.482255731824168 $221 $351 forward 7 unknown #
loop $-1 $-1 $228 $139 #
plane-surface $-1 -13.901742250672584 -37.621156780523833 5.7612056371068121 0 -0.66913061440640931 0.74314481823134659 1 0 0 forward_v I I I I #
loop $-1 $-1 $352 $89 #
coedge $-1 $226 $226 $227 $353 reversed $140 $-1 #
coedge $-1 $227 $227 $226 $353 forward $142 $-1 #
coedge $-1 $228 $228 $143 $229 forward $223 $-1 #
edge $-1 $354 7.0120339827835448e-016 $354 6.2831853071796013 $228 $355 forward 7 unknown #
face $-1 $356 $357 $48 $-1 $358 reversed single #
loop $-1 $-1 $359 $144 #
plane-surface $-1 10.049521682708873 -133.02745673190003 111.72063404913266 1 0 0 0 0.66913061440640931 -0.74314481823134659 forward_v I I I I #
coedge $-1 $360 $361 $362 $363 reversed $145 $-1 #
coedge $-1 $235 $147 $364 $365 reversed $93 $-1 #
coedge $-1 $147 $234 $360 $366 reversed $93 $-1 #
coedge $-1 $362 $367 $147 $237 forward $368 $-1 #
edge $-1 $369 28.892571585426204 $370 40.482255731824168 $236 $371 forward 7 unknown #
loop $-1 $-1 $243 $148 #
plane-surface $-1 16.719115975937697 -37.621156780523833 5.7612056371068121 0 -0.66913061440640931 0.74314481823134659 1 0 0 forward_v I I I I #
loop $-1 $-1 $372 $95 #
coedge $-1 $241 $241 $242 $373 reversed $149 $-1 #
coedge $-1 $242 $242 $241 $373 forward $151 $-1 #
coedge $-1 $243 $243 $152 $244 forward $238 $-1 #
edge $-1 $374 7.0120339827835448e-016 $374 6.2831853071796013 $243 $375 forward 7 unknown #
face $-1 $376 $377 $50 $-1 $378 reversed single #
loop $-1 $-1 $379 $153 #
plane-surface $-1 40.670379909319152 -133.02745673190003 111.72063404913266 1 0 0 0 0.66913061440640931 -0.74314481823134659 forward_v I I I I #
coedge $-1 $380 $381 $382 $383 reversed $154 $-1 #
coedge $-1 $250 $156 $384 $385 reversed $99 $-1 #
coedge $-1 $156 $249 $380 $386 reversed $99 $-1 #
coedge $-1 $382 $387 $156 $252 forward $388 $-1 #
edge $-1 $389 28.892571585426204 $390 40.482255731824168 $251 $391 forward 7 unknown #
loop $-1 $-1 $258 $157 #
plane-surface $-1 47.339974202547978 -37.621156780523833 5.7612056371068121 0 -0.66913061440640931 0.74314481823134659 1 0 0 forward_v I I I I #
loop $-1 $-1 $392 $101 #
coedge $-1 $256 $256 $257 $393 reversed $158 $-1 #
coedge $-1 $257 $257 $256 $393 forward $160 $-1 #
coedge $-1 $258 $258 $161 $259 forward $253 $-1 #
edge $-1 $394 7.0120339827835448e-016 $394 6.2831853071796013 $258 $395 forward 7 unknown #
face $-1 $396 $397 $39 $-1 $398 reversed single #
loop $-1 $-1 $399 $162 #
plane-surface $-1 -71.291238135929433 0 0 1 0 0 0 0 -1 forward_v I I I I #
coedge $-1 $400 $271 $399 $401 forward $163 $-1 #
coedge $-1 $402 $165 $400 $403 forward $105 $-1 #
coedge $-1 $165 $402 $404 $405 forward $105 $-1 #
coedge $-1 $274 $273 $165 $267 reversed $275 $-1 #
edge $-1 $406 -37.621156780523812 $407 37.621156780523812 $266 $408 forward 7 unknown #
coedge $-1 $167 $166 $409 $410 forward $66 $-1 #
coedge $-1 $411 $412 $166 $270 reversed $397 $-1 #
edge $-1 $277 -71.291238135929433 $413 71.291238135929433 $269 $414 forward 7 unknown #
coedge $-1 $263 $415 $167 $272 reversed $163 $-1 #
edge $-1 $416 -71.291238135929433 $276 71.291238135929433 $271 $417 forward 7 unknown #
coedge $-1 $266 $168 $415 $418 forward $275 $-1 #
coedge $-1 $168 $266 $411 $419 reversed $275 $-1 #
loop $-1 $-1 $273 $396 #
vertex $-1 $169 $420 #
vertex $-1 $169 $421 #
straight-curve $-1 71.291238135929433 0 16.196604341913918 0 1 0 I I #
face $-1 $422 $423 $40 $-1 $424 reversed single #
loop $-1 $-1 $425 $170 #
plane-surface $-1 -91.390281501347175 0 -14.52227474544903 1 0 0 0 0 -1 forward_v I I I I #
coedge $-1 $426 $173 $427 $428 reversed $109 $-1 #
coedge $-1 $173 $426 $288 $429 reversed $109 $-1 #
edge $-1 $290 12.847945148984142 $430 16.196604341913918 $173 $431 forward 7 unknown #
coedge $-1 $175 $174 $432 $433 reversed $69 $-1 #
coedge $-1 $434 $435 $174 $287 forward $436 $-1 #
edge $-1 $437 -16.196604341913918 $291 -12.847945148984142 $286 $438 forward 7 unknown #
coedge $-1 $439 $176 $283 $429 forward $171 $-1 #
coedge $-1 $176 $439 $434 $440 forward $171 $-1 #
vertex $-1 $284 $441 #
vertex $-1 $440 $442 #
straight-curve $-1 -71.291238135929433 0 -12.847945148984142 0 -1 0 I I #
face $-1 $-1 $443 $41 $-1 $444 reversed single #
loop $-1 $-1 $184 $178 #
plane-surface $-1 0 0 16.196604341913918 0 0 1 1 0 0 forward_v I I I I #
coedge $-1 $445 $446 $447 $448 reversed $179 $-1 #
coedge $-1 $449 $181 $183 $303 forward $113 $-1 #
coedge $-1 $181 $449 $445 $450 forward $113 $-1 #
coedge $-1 $447 $184 $181 $300 forward $294 $-1 #
edge $-1 $306 2.9488692435371817 $451 37.110185353912705 $299 $452 forward 7 unknown #
coedge $-1 $453 $454 $182 $302 forward $443 $-1 #
edge $-1 $455 -77.8757162229047 $305 -65.081062528781104 $301 $456 forward 7 unknown #
edge $-1 $306 53.982203660280476 $455 75.242313561047638 $183 $457 forward 7 unknown #
coedge $-1 $184 $447 $453 $458 forward $294 $-1 #
vertex $-1 $302 $459 #
vertex $-1 $185 $460 #
straight-curve $-1 22.978396542262125 31.669125544743419 16.196604341913911 0 -1 0 I I #
coedge $-1 $308 $308 $-1 $461 reversed $188 $-1 #
edge $-1 $462 0 $462 6.2831853071796004 $189 $463 forward 7 unknown #
vertex $-1 $192 $464 #
ellipse-curve $-1 32.738772573798002 29.131617484423185 9.7992774948521237 0 0.6018150307709319 0.79863550430605224 3 0 0 1 I I #
coedge $-1 $312 $312 $-1 $465 reversed $195 $-1 #
edge $-1 $466 0 $466 6.2831853071796004 $196 $467 forward 7 unknown #
vertex $-1 $199 $468 #
ellipse-curve $-1 47.3793366211018 29.131617484423185 9.7992774948521237 0 0.6018150307709319 0.79863550430605224 3 0 0 1 I I #
face $-1 $-1 $328 $44 $-1 $469 forward single #
loop $-1 $-1 $470 $200 #
plane-surface $-1 0 -37.621156780523812 0 0 1 0 0 0 1 forward_v I I I I #
coedge $-1 $471 $472 $473 $474 reversed $201 $-1 #
coedge $-1 $475 $203 $205 $326 forward $127 $-1 #
coedge $-1 $203 $475 $471 $476 forward $127 $-1 #
coedge $-1 $473 $206 $203 $323 forward $328 $-1 #
edge $-1 $330 15.591705945412606 $477 28.930894531870258 $322 $478 forward 7 unknown #
coedge $-1 $479 $480 $204 $325 forward $317 $-1 #
edge $-1 $481 -50.099111387459494 $329 -39.66371268265241 $324 $482 forward 7 unknown #
edge $-1 $330 -15.595458465257076 $481 -2.8915846743243384e-014 $205 $483 forward 7 unknown #
coedge $-1 $206 $473 $479 $484 forward $328 $-1 #
loop $-1 $-1 $473 $316 #
vertex $-1 $325 $485 #
vertex $-1 $207 $486 #
straight-curve $-1 -37.853006184054038 -66.513728365950016 16.196604341913918 0 1 0 I I #
coedge $-1 $332 $332 $-1 $487 reversed $210 $-1 #
edge $-1 $488 0 $488 6.2831853071796004 $211 $489 forward 7 unknown #
vertex $-1 $214 $490 #
ellipse-curve $-1 -44.522600477282865 -31.826314707324826 10.978904989510378 0 -0.66913061440640931 0.74314481823134659 1.5 0 0 1 I I #
face $-1 $-1 $348 $46 $-1 $491 forward single #
loop $-1 $-1 $492 $215 #
plane-surface $-1 0 -37.621156780523812 0 0 1 0 0 0 1 forward_v I I I I #
coedge $-1 $493 $494 $495 $496 reversed $216 $-1 #
coedge $-1 $497 $218 $220 $346 forward $136 $-1 #
coedge $-1 $218 $497 $493 $498 forward $136 $-1 #
coedge $-1 $495 $221 $218 $343 forward $348 $-1 #
edge $-1 $350 0.28127683210746746 $499 13.620465418565118 $342 $500 forward 7 unknown #
coedge $-1 $501 $502 $219 $345 forward $337 $-1 #
edge $-1 $503 -50.099111387459494 $349 -39.66371268265241 $344 $504 forward 7 unknown #
edge $-1 $350 -15.595458465257076 $503 -2.8915846743243384e-014 $220 $505 forward 7 unknown #
coedge $-1 $221 $495 $501 $506 forward $348 $-1 #
loop $-1 $-1 $495 $336 #
vertex $-1 $345 $507 #
vertex $-1 $222 $508 #
straight-curve $-1 -7.2321479574437593 -66.513728365950016 16.196604341913918 0 1 0 I I #
coedge $-1 $352 $352 $-1 $509 reversed $225 $-1 #
edge $-1 $510 0 $510 6.2831853071796004 $226 $511 forward 7 unknown #
vertex $-1 $229 $512 #
ellipse-curve $-1 -13.901742250672577 -31.826314707324826 10.978904989510378 0 -0.66913061440640931 0.74314481823134659 1.5 0 0 1 I I #
face $-1 $-1 $368 $48 $-1 $513 forward single #
loop $-1 $-1 $514 $230 #
plane-surface $-1 0 -37.621156780523812 0 0 1 0 0 0 1 forward_v I I I I #
coedge $-1 $515 $516 $517 $518 reversed $231 $-1 #
coedge $-1 $519 $233 $235 $366 forward $145 $-1 #
coedge $-1 $233 $519 $515 $520 forward $145 $-1 #
coedge $-1 $517 $236 $233 $363 forward $368 $-1 #
edge $-1 $370 -15.029152281197675 $521 -1.6899636947400243 $362 $522 forward 7 unknown #
coedge $-1 $523 $524 $234 $365 forward $357 $-1 #
edge $-1 $525 -50.099111387459494 $369 -39.66371268265241 $364 $526 forward 7 unknown #
edge $-1 $370 -15.595458465257076 $525 -2.8915846743243384e-014 $235 $527 forward 7 unknown #
coedge $-1 $236 $517 $523 $528 forward $368 $-1 #
loop $-1 $-1 $517 $356 #
vertex $-1 $365 $529 #
vertex $-1 $237 $530 #
straight-curve $-1 23.388710269166523 -66.513728365950016 16.196604341913918 0 1 0 I I #
coedge $-1 $372 $372 $-1 $531 reversed $240 $-1 #
edge $-1 $532 0 $532 6.2831853071796004 $241 $533 forward 7 unknown #
vertex $-1 $244 $534 #
ellipse-curve $-1 16.719115975937711 -31.826314707324826 10.978904989510378 0 -0.66913061440640931 0.74314481823134659 1.5 0 0 1 I I #
face $-1 $-1 $388 $50 $-1 $535 forward single #
loop $-1 $-1 $536 $245 #
plane-surface $-1 0 -37.621156780523812 0 0 1 0 0 0 1 forward_v I I I I #
coedge $-1 $537 $538 $539 $540 reversed $246 $-1 #
coedge $-1 $541 $248 $250 $386 forward $154 $-1 #
coedge $-1 $248 $541 $537 $542 forward $154 $-1 #
coedge $-1 $539 $251 $248 $383 forward $388 $-1 #
edge $-1 $390 -30.339581394502815 $543 -17.000392808045163 $382 $544 forward 7 unknown #
coedge $-1 $545 $546 $249 $385 forward $377 $-1 #
edge $-1 $547 -50.099111387459494 $389 -39.66371268265241 $384 $548 forward 7 unknown #
edge $-1 $390 -15.595458465257076 $547 -2.8915846743243384e-014 $250 $549 forward 7 unknown #
coedge $-1 $251 $539 $545 $550 forward $388 $-1 #
loop $-1 $-1 $539 $376 #
vertex $-1 $385 $551 #
vertex $-1 $252 $552 #
straight-curve $-1 54.009568495776804 -66.513728365950016 16.196604341913918 0 1 0 I I #
coedge $-1 $392 $392 $-1 $553 reversed $255 $-1 #
edge $-1 $554 0 $554 6.2831853071796004 $256 $555 forward 7 unknown #
vertex $-1 $259 $556 #
ellipse-curve $-1 47.339974202547992 -31.826314707324826 10.978904989510378 0 -0.66913061440640931 0.74314481823134659 1.5 0 0 1 I I #
face $-1 $-1 $275 $39 $-1 $557 reversed single #
loop $-1 $-1 $411 $260 #
plane-surface $-1 0 37.621156780523812 0 0 -1 0 0 0 -1 forward_v I I I I #
coedge $-1 $409 $558 $263 $401 reversed $261 $-1 #
coedge $-1 $415 $263 $264 $403 reversed $163 $-1 #
edge $-1 $416 -16.196604341913918 $559 16.196604341913918 $399 $560 forward 7 unknown #
coedge $-1 $265 $264 $558 $561 forward $105 $-1 #
edge $-1 $407 -71.291238135929433 $559 71.291238135929433 $400 $562 forward 7 unknown #
coedge $-1 $412 $411 $265 $405 reversed $397 $-1 #
edge $-1 $563 -71.291238135929433 $406 71.291238135929433 $404 $564 forward 7 unknown #
vertex $-1 $267 $565 #
vertex $-1 $418 $566 #
straight-curve $-1 71.291238135929433 0 -16.196604341913918 0 -1 0 I I #
coedge $-1 $567 $399 $268 $410 reversed $261 $-1 #
edge $-1 $413 -37.621156780523812 $416 37.621156780523812 $409 $568 forward 7 unknown #
coedge $-1 $404 $269 $274 $419 forward $397 $-1 #
coedge $-1 $269 $404 $567 $569 reversed $397 $-1 #
vertex $-1 $270 $570 #
straight-curve $-1 0 37.621156780523812 16.196604341913918 -1 0 0 I I #
coedge $-1 $271 $400 $273 $418 reversed $163 $-1 #
vertex $-1 $410 $571 #
straight-curve $-1 0 -37.621156780523812 16.196604341913918 1 0 0 I I #
edge $-1 $276 -16.196604341913918 $407 16.196604341913918 $273 $572 forward 7 unknown #
edge $-1 $277 -16.196604341913918 $406 16.196604341913918 $274 $573 forward 7 unknown #
point $-1 71.291238135929433 -37.621156780523812 16.196604341913918 #
point $-1 71.291238135929433 37.621156780523812 16.196604341913918 #
face $-1 $-1 $436 $40 $-1 $574 reversed single #
loop $-1 $-1 $432 $279 #
plane-surface $-1 0 0 -16.196604341913918 0 0 1 1 0 0 forward_v I I I I #
coedge $-1 $575 $576 $426 $577 forward $280 $-1 #
coedge $-1 $283 $282 $425 $577 reversed $109 $-1 #
coedge $-1 $432 $578 $282 $428 forward $423 $-1 #
edge $-1 $579 -91.390281501347175 $430 -71.291238135929433 $282 $580 forward 7 unknown #
edge $-1 $290 -10.049521682708871 $581 10.049521682708871 $283 $582 forward 7 unknown #
vertex $-1 $284 $583 #
straight-curve $-1 -71.291238135929433 37.621156780523812 0 0 0 -1 I I #
coedge $-1 $584 $427 $285 $433 forward $423 $-1 #
edge $-1 $430 -37.621156780523812 $437 37.621156780523812 $432 $585 forward 7 unknown #
coedge $-1 $586 $286 $289 $440 reversed $436 $-1 #
coedge $-1 $286 $586 $584 $587 reversed $436 $-1 #
loop $-1 $-1 $286 $422 #
vertex $-1 $587 $588 #
straight-curve $-1 -71.291238135929433 -37.621156780523812 0 0 0 1 I I #
coedge $-1 $289 $288 $576 $589 forward $171 $-1 #
edge $-1 $590 -10.049521682708871 $291 10.049521682708871 $434 $591 forward 7 unknown #
point $-1 -71.291238135929433 37.621156780523812 -12.847945148984142 #
point $-1 -71.291238135929433 -37.621156780523812 -12.847945148984142 #
loop $-1 $-1 $301 $293 #
plane-surface $-1 0 37.621156780523812 0 0 -1 0 0 0 -1 forward_v I I I I #
coedge $-1 $446 $296 $298 $450 reversed $179 $-1 #
coedge $-1 $296 $445 $592 $593 reversed $179 $-1 #
coedge $-1 $304 $299 $296 $448 forward $294 $-1 #
edge $-1 $451 -11.027047356420884 $594 5.9520312357803924 $447 $595 forward 7 unknown #
coedge $-1 $298 $297 $454 $596 reversed $113 $-1 #
edge $-1 $597 -75.242313561047638 $451 -53.982203660280476 $445 $598 forward 7 unknown #
vertex $-1 $300 $599 #
straight-curve $-1 20.029527298724943 20.642078188322532 16.196604341913918 1 0 0 I I #
coedge $-1 $592 $301 $304 $458 reversed $443 $-1 #
coedge $-1 $301 $592 $449 $596 forward $443 $-1 #
vertex $-1 $302 $600 #
straight-curve $-1 22.978396542262125 37.621156780523812 81.277666870695029 0 0 1 I I #
straight-curve $-1 22.978396542262125 -22.470026255457576 48.68390589880832 0 0.79863550430605224 -0.6018150307709319 I I #
edge $-1 $594 -57.139712652637648 $305 -22.978396542262125 $453 $601 forward 7 unknown #
point $-1 22.978396542262125 37.621156780523812 16.196604341913918 #
point $-1 22.978396542262125 20.642078188322536 16.196604341913918 #
edge $-1 $602 1 $602 0 $308 $-1 forward 7 unknown #
vertex $-1 $309 $603 #
ellipse-curve $-1 32.738772573798002 25.868900997063896 5.4695065618265755 0 0.6018150307709319 0.79863550430605224 3 0 0 1 I I #
point $-1 35.738772573798002 29.131617484423195 9.7992774948521379 #
edge $-1 $604 1 $604 0 $312 $-1 forward 7 unknown #
vertex $-1 $313 $605 #
ellipse-curve $-1 47.3793366211018 25.868900997063896 5.4695065618265755 0 0.6018150307709319 0.79863550430605224 3 0 0 1 I I #
point $-1 50.3793366211018 29.131617484423195 9.7992774948521379 #
plane-surface $-1 0 0 16.196604341913918 0 0 1 1 0 0 forward_v I I I I #
coedge $-1 $480 $479 $472 $606 forward $317 $-1 #
coedge $-1 $472 $319 $321 $476 reversed $201 $-1 #
coedge $-1 $319 $471 $470 $606 reversed $201 $-1 #
coedge $-1 $327 $322 $319 $474 forward $328 $-1 #
edge $-1 $477 -40.482255731824168 $607 -28.892571585426204 $473 $608 forward 7 unknown #
coedge $-1 $321 $320 $480 $609 reversed $127 $-1 #
edge $-1 $610 2.8915846743243384e-014 $477 15.595458465257076 $471 $611 forward 7 unknown #
vertex $-1 $323 $612 #
straight-curve $-1 -22.261300238641432 -26.031472634125844 16.196604341913918 -1 0 0 I I #
coedge $-1 $470 $324 $327 $484 reversed $317 $-1 #
coedge $-1 $324 $470 $475 $609 forward $317 $-1 #
vertex $-1 $325 $613 #
straight-curve $-1 -37.853006184054038 -37.621156780523812 55.860317024566328 0 0 1 I I #
straight-curve $-1 -37.853006184054038 -37.621156780523833 5.7612056371068121 0 -0.74314481823134659 -0.66913061440640931 I I #
edge $-1 $607 -51.192194770511691 $329 -37.853006184054038 $479 $614 forward 7 unknown #
point $-1 -37.853006184054038 -37.621156780523812 16.196604341913918 #
point $-1 -37.853006184054038 -26.031472634125848 16.196604341913918 #
edge $-1 $615 1 $615 0 $332 $-1 forward 7 unknown #
vertex $-1 $333 $616 #
ellipse-curve $-1 -44.522600477282865 -30.525801454851916 9.5345387270672806 0 -0.66913061440640931 0.74314481823134659 1.5 0 0 1 I I #
point $-1 -43.022600477282865 -31.826314707324812 10.978904989510363 #
plane-surface $-1 0 0 16.196604341913918 0 0 1 1 0 0 forward_v I I I I #
coedge $-1 $502 $501 $494 $617 forward $337 $-1 #
coedge $-1 $494 $339 $341 $498 reversed $216 $-1 #
coedge $-1 $339 $493 $492 $617 reversed $216 $-1 #
coedge $-1 $347 $342 $339 $496 forward $348 $-1 #
edge $-1 $499 -40.482255731824168 $618 -28.892571585426204 $495 $619 forward 7 unknown #
coedge $-1 $341 $340 $502 $620 reversed $136 $-1 #
edge $-1 $621 2.8915846743243384e-014 $499 15.595458465257076 $493 $622 forward 7 unknown #
vertex $-1 $343 $623 #
straight-curve $-1 -6.9508711253362918 -26.031472634125844 16.196604341913918 -1 0 0 I I #
coedge $-1 $492 $344 $347 $506 reversed $337 $-1 #
coedge $-1 $344 $492 $497 $620 forward $337 $-1 #
vertex $-1 $345 $624 #
straight-curve $-1 -7.2321479574437593 -37.621156780523812 55.860317024566328 0 0 1 I I #
straight-curve $-1 -7.2321479574437593 -37.621156780523833 5.7612056371068121 0 -0.74314481823134659 -0.66913061440640931 I I #
edge $-1 $618 -20.57133654390141 $349 -7.2321479574437593 $501 $625 forward 7 unknown #
point $-1 -7.2321479574437593 -37.621156780523812 16.196604341913918 #
point $-1 -7.2321479574437593 -26.031472634125848 16.196604341913918 #
edge $-1 $626 1 $626 0 $352 $-1 forward 7 unknown #
vertex $-1 $353 $627 #
ellipse-curve $-1 -13.901742250672577 -30.525801454851916 9.5345387270672806 0 -0.66913061440640931 0.74314481823134659 1.5 0 0 1 I I #
point $-1 -12.401742250672577 -31.826314707324812 10.978904989510363 #
plane-surface $-1 0 0 16.196604341913918 0 0 1 1 0 0 forward_v I I I I #
coedge $-1 $524 $523 $516 $628 forward $357 $-1 #
coedge $-1 $516 $359 $361 $520 reversed $231 $-1 #
coedge $-1 $359 $515 $514 $628 reversed $231 $-1 #
coedge $-1 $367 $362 $359 $518 forward $368 $-1 #
edge $-1 $521 -40.482255731824168 $629 -28.892571585426204 $517 $630 forward 7 unknown #
coedge $-1 $361 $360 $524 $631 reversed $145 $-1 #
edge $-1 $632 2.8915846743243384e-014 $521 15.595458465257076 $515 $633 forward 7 unknown #
vertex $-1 $363 $634 #
straight-curve $-1 8.3595579879688486 -26.031472634125844 16.196604341913918 -1 0 0 I I #
coedge $-1 $514 $364 $367 $528 reversed $357 $-1 #
coedge $-1 $364 $514 $519 $631 forward $357 $-1 #
vertex $-1 $365 $635 #
straight-curve $-1 23.388710269166523 -37.621156780523812 55.860317024566328 0 0 1 I I #
straight-curve $-1 23.388710269166523 -37.621156780523833 5.7612056371068121 0 -0.74314481823134659 -0.66913061440640931 I I #
edge $-1 $629 10.049521682708873 $369 23.388710269166523 $523 $636 forward 7 unknown #
point $-1 23.388710269166523 -37.621156780523812 16.196604341913918 #
point $-1 23.388710269166523 -26.031472634125848 16.196604341913918 #
edge $-1 $637 1 $637 0 $372 $-1 forward 7 unknown #
vertex $-1 $373 $638 #
ellipse-curve $-1 16.719115975937711 -30.525801454851916 9.5345387270672806 0 -0.66913061440640931 0.74314481823134659 1.5 0 0 1 I I #
point $-1 18.219115975937711 -31.826314707324812 10.978904989510363 #
plane-surface $-1 0 0 16.196604341913918 0 0 1 1 0 0 forward_v I I I I #
coedge $-1 $546 $545 $538 $639 forward $377 $-1 #
coedge $-1 $538 $379 $381 $542 reversed $246 $-1 #
coedge $-1 $379 $537 $536 $639 reversed $246 $-1 #
coedge $-1 $387 $382 $379 $540 forward $388 $-1 #
edge $-1 $543 -40.482255731824168 $640 -28.892571585426204 $539 $641 forward 7 unknown #
coedge $-1 $381 $380 $546 $642 reversed $154 $-1 #
edge $-1 $643 2.8915846743243384e-014 $543 15.595458465257076 $537 $644 forward 7 unknown #
vertex $-1 $383 $645 #
straight-curve $-1 23.669987101273989 -26.031472634125844 16.196604341913918 -1 0 0 I I #
coedge $-1 $536 $384 $387 $550 reversed $377 $-1 #
coedge $-1 $384 $536 $541 $642 forward $377 $-1 #
vertex $-1 $385 $646 #
straight-curve $-1 54.009568495776804 -37.621156780523812 55.860317024566328 0 0 1 I I #
straight-curve $-1 54.009568495776804 -37.621156780523833 5.7612056371068121 0 -0.74314481823134659 -0.66913061440640931 I I #
edge $-1 $640 40.670379909319152 $389 54.009568495776804 $545 $647 forward 7 unknown #
point $-1 54.009568495776804 -37.621156780523812 16.196604341913918 #
point $-1 54.009568495776804 -26.031472634125848 16.196604341913918 #
edge $-1 $648 1 $648 0 $392 $-1 forward 7 unknown #
vertex $-1 $393 $649 #
ellipse-curve $-1 47.339974202547992 -30.525801454851916 9.5345387270672806 0 -0.66913061440640931 0.74314481823134659 1.5 0 0 1 I I #
point $-1 48.839974202547992 -31.826314707324812 10.978904989510363 #
plane-surface $-1 71.291238135929433 0 0 -1 0 0 0 0 1 forward_v I I I I #
coedge $-1 $399 $567 $402 $561 reversed $261 $-1 #
vertex $-1 $561 $650 #
straight-curve $-1 -71.291238135929433 -37.621156780523812 0 0 0 -1 I I #
edge $-1 $559 -37.621156780523812 $563 37.621156780523812 $558 $651 forward 7 unknown #
straight-curve $-1 0 -37.621156780523812 -16.196604341913918 -1 0 0 I I #
vertex $-1 $405 $652 #
straight-curve $-1 0 37.621156780523812 -16.196604341913918 1 0 0 I I #
point $-1 71.291238135929433 37.621156780523812 -16.196604341913918 #
point $-1 71.291238135929433 -37.621156780523812 -16.196604341913918 #
coedge $-1 $558 $409 $412 $569 forward $261 $-1 #
straight-curve $-1 -71.291238135929433 0 16.196604341913918 0 -1 0 I I #
edge $-1 $413 -16.196604341913918 $563 16.196604341913918 $412 $653 forward 7 unknown #
point $-1 -71.291238135929433 37.621156780523812 16.196604341913918 #
point $-1 -71.291238135929433 -37.621156780523812 16.196604341913918 #
straight-curve $-1 71.291238135929433 -37.621156780523812 0 0 0 -1 I I #
straight-curve $-1 71.291238135929433 37.621156780523812 0 0 0 -1 I I #
plane-surface $-1 0 -37.621156780523812 0 0 1 0 0 0 1 forward_v I I I I #
coedge $-1 $654 $425 $578 $655 reversed $280 $-1 #
coedge $-1 $425 $654 $439 $589 reversed $280 $-1 #
edge $-1 $581 -1.6743295964648883 $579 1.6743295964648883 $426 $656 forward 7 unknown #
coedge $-1 $427 $584 $575 $655 forward $423 $-1 #
vertex $-1 $428 $657 #
straight-curve $-1 0 37.621156780523812 -16.196604341913918 1 0 0 I I #
vertex $-1 $429 $658 #
straight-curve $-1 -81.340759818638304 37.621156780523812 -12.847945148984142 -1 0 0 I I #
point $-1 -71.291238135929433 37.621156780523812 -16.196604341913918 #
coedge $-1 $578 $432 $435 $587 forward $423 $-1 #
straight-curve $-1 -71.291238135929433 0 -16.196604341913918 0 -1 0 I I #
coedge $-1 $435 $434 $654 $659 forward $436 $-1 #
edge $-1 $437 -10.049521682708871 $660 10.049521682708871 $435 $661 forward 7 unknown #
point $-1 -71.291238135929433 -37.621156780523812 -16.196604341913918 #
edge $-1 $581 -37.621156780523812 $590 37.621156780523812 $576 $662 forward 7 unknown #
vertex $-1 $589 $663 #
straight-curve $-1 -81.340759818638304 -37.621156780523812 -12.847945148984142 1 0 0 I I #
coedge $-1 $454 $453 $446 $593 forward $443 $-1 #
edge $-1 $594 65.081062528781104 $597 77.8757162229047 $592 $664 forward 7 unknown #
vertex $-1 $458 $665 #
straight-curve $-1 57.139712652637648 31.669125544743419 16.196604341913911 0 1 0 I I #
edge $-1 $597 -37.110185353912705 $455 -2.9488692435371817 $454 $666 forward 7 unknown #
vertex $-1 $596 $667 #
straight-curve $-1 57.139712652637648 -22.470026255457576 48.68390589880832 0 -0.79863550430605224 0.6018150307709319 I I #
point $-1 57.139712652637648 20.642078188322536 16.196604341913918 #
point $-1 22.978396542262125 37.621156780523819 3.4019506477903292 #
straight-curve $-1 0 37.621156780523812 16.196604341913918 -1 0 0 I I #
vertex $-1 $461 $668 #
point $-1 35.738772573798002 25.868900997063896 5.4695065618265755 #
vertex $-1 $465 $669 #
point $-1 50.3793366211018 25.868900997063896 5.4695065618265755 #
edge $-1 $607 39.66371268265241 $610 50.099111387459494 $470 $670 forward 7 unknown #
vertex $-1 $484 $671 #
straight-curve $-1 -51.192194770511691 -66.513728365950016 16.196604341913918 0 -1 0 I I #
edge $-1 $610 -28.930894531870258 $481 -15.591705945412606 $480 $672 forward 7 unknown #
vertex $-1 $609 $673 #
straight-curve $-1 -51.192194770511691 -37.621156780523833 5.7612056371068121 0 0.74314481823134659 0.66913061440640931 I I #
point $-1 -51.192194770511691 -26.031472634125848 16.196604341913918 #
point $-1 -37.853006184054038 -37.621156780523812 5.7612056371068316 #
straight-curve $-1 0 -37.621156780523812 16.196604341913918 1 0 0 I I #
vertex $-1 $487 $674 #
point $-1 -43.022600477282865 -30.525801454851916 9.5345387270672806 #
edge $-1 $618 39.66371268265241 $621 50.099111387459494 $492 $675 forward 7 unknown #
vertex $-1 $506 $676 #
straight-curve $-1 -20.57133654390141 -66.513728365950016 16.196604341913918 0 -1 0 I I #
edge $-1 $621 -13.620465418565118 $503 -0.28127683210746746 $502 $677 forward 7 unknown #
vertex $-1 $620 $678 #
straight-curve $-1 -20.57133654390141 -37.621156780523833 5.7612056371068121 0 0.74314481823134659 0.66913061440640931 I I #
point $-1 -20.57133654390141 -26.031472634125848 16.196604341913918 #
point $-1 -7.2321479574437593 -37.621156780523812 5.7612056371068316 #
straight-curve $-1 0 -37.621156780523812 16.196604341913918 1 0 0 I I #
vertex $-1 $509 $679 #
point $-1 -12.401742250672577 -30.525801454851916 9.5345387270672806 #
edge $-1 $629 39.66371268265241 $632 50.099111387459494 $514 $680 forward 7 unknown #
vertex $-1 $528 $681 #
straight-curve $-1 10.049521682708873 -66.513728365950016 16.196604341913918 0 -1 0 I I #
edge $-1 $632 1.6899636947400243 $525 15.029152281197675 $524 $682 forward 7 unknown #
vertex $-1 $631 $683 #
straight-curve $-1 10.049521682708873 -37.621156780523833 5.7612056371068121 0 0.74314481823134659 0.66913061440640931 I I #
point $-1 10.049521682708873 -26.031472634125848 16.196604341913918 #
point $-1 23.388710269166523 -37.621156780523812 5.7612056371068316 #
straight-curve $-1 0 -37.621156780523812 16.196604341913918 1 0 0 I I #
vertex $-1 $531 $684 #
point $-1 18.219115975937711 -30.525801454851916 9.5345387270672806 #
edge $-1 $640 39.66371268265241 $643 50.099111387459494 $536 $685 forward 7 unknown #
vertex $-1 $550 $686 #
straight-curve $-1 40.670379909319152 -66.513728365950016 16.196604341913918 0 -1 0 I I #
edge $-1 $643 17.000392808045163 $547 30.339581394502815 $546 $687 forward 7 unknown #
vertex $-1 $642 $688 #
straight-curve $-1 40.670379909319152 -37.621156780523833 5.7612056371068121 0 0.74314481823134659 0.66913061440640931 I I #
point $-1 40.670379909319152 -26.031472634125848 16.196604341913918 #
point $-1 54.009568495776804 -37.621156780523812 5.7612056371068316 #
straight-curve $-1 0 -37.621156780523812 16.196604341913918 1 0 0 I I #
vertex $-1 $553 $689 #
point $-1 48.839974202547992 -30.525801454851916 9.5345387270672806 #
point $-1 -71.291238135929433 -37.621156780523812 -16.196604341913918 #
straight-curve $-1 -71.291238135929433 0 -16.196604341913918 0 1 0 I I #
point $-1 -71.291238135929433 37.621156780523812 -16.196604341913918 #
straight-curve $-1 -71.291238135929433 37.621156780523812 0 0 0 -1 I I #
coedge $-1 $576 $575 $586 $659 reversed $280 $-1 #
edge $-1 $660 -37.621156780523812 $579 37.621156780523812 $575 $690 forward 7 unknown #
straight-curve $-1 -91.390281501347175 37.621156780523812 -14.52227474544903 0 0 -1 I I #
point $-1 -91.390281501347175 37.621156780523812 -16.196604341913918 #
point $-1 -91.390281501347175 37.621156780523812 -12.847945148984142 #
edge $-1 $590 -1.6743295964648883 $660 1.6743295964648883 $654 $691 forward 7 unknown #
vertex $-1 $655 $692 #
straight-curve $-1 -81.340759818638304 -37.621156780523812 -16.196604341913918 -1 0 0 I I #
straight-curve $-1 -91.390281501347175 0 -12.847945148984142 0 -1 0 I I #
point $-1 -91.390281501347175 -37.621156780523812 -12.847945148984142 #
straight-curve $-1 57.139712652637648 37.621156780523812 81.277666870695029 0 0 -1 I I #
point $-1 57.139712652637648 37.621156780523812 16.196604341913918 #
straight-curve $-1 20.029527298724943 37.621156780523812 3.4019506477903292 -1 0 0 I I #
point $-1 57.139712652637648 37.621156780523819 3.4019506477903292 #
point $-1 32.738772573798002 24.063455904751102 3.073600048908419 #
point $-1 47.3793366211018 24.063455904751102 3.073600048908419 #
straight-curve $-1 -51.192194770511691 -37.621156780523812 55.860317024566328 0 0 -1 I I #
point $-1 -51.192194770511691 -37.621156780523812 16.196604341913918 #
straight-curve $-1 -22.261300238641432 -37.621156780523812 5.7612056371068272 1 0 0 I I #
point $-1 -51.192194770511691 -37.621156780523812 5.7612056371068316 #
point $-1 -44.522600477282865 -29.522105533242303 8.4198214997202623 #
straight-curve $-1 -20.57133654390141 -37.621156780523812 55.860317024566328 0 0 -1 I I #
point $-1 -20.57133654390141 -37.621156780523812 16.196604341913918 #
straight-curve $-1 -6.9508711253362918 -37.621156780523812 5.7612056371068272 1 0 0 I I #
point $-1 -20.57133654390141 -37.621156780523812 5.7612056371068316 #
point $-1 -13.901742250672577 -29.522105533242303 8.4198214997202623 #
straight-curve $-1 10.049521682708873 -37.621156780523812 55.860317024566328 0 0 -1 I I #
point $-1 10.049521682708873 -37.621156780523812 16.196604341913918 #
straight-curve $-1 8.3595579879688486 -37.621156780523812 5.7612056371068272 1 0 0 I I #
point $-1 10.049521682708873 -37.621156780523812 5.7612056371068316 #
point $-1 16.719115975937711 -29.522105533242303 8.4198214997202623 #
straight-curve $-1 40.670379909319152 -37.621156780523812 55.860317024566328 0 0 -1 I I #
point $-1 40.670379909319152 -37.621156780523812 16.196604341913918 #
straight-curve $-1 23.669987101273989 -37.621156780523812 5.7612056371068272 1 0 0 I I #
point $-1 40.670379909319152 -37.621156780523812 5.7612056371068316 #
point $-1 47.339974202547992 -29.522105533242303 8.4198214997202623 #
straight-curve $-1 -91.390281501347175 0 -16.196604341913918 0 1 0 I I #
straight-curve $-1 -91.390281501347175 -37.621156780523812 -14.52227474544903 0 0 -1 I I #
point $-1 -91.390281501347175 -37.621156780523812 -16.196604341913918 #
End-of-ACIS-data 