500 0 10 0           
7 Unknown 11 ACIS 5.0 NT 24 Thu Mar 25 20:14:24 1999 
-1 9.9999999999999995e-007 1e-010 
body $-1 $10 $-1 $11 #
body $-1 $12 $-1 $13 #
body $-1 $14 $-1 $15 #
body $-1 $16 $-1 $17 #
body $-1 $18 $-1 $19 #
body $-1 $20 $-1 $21 #
body $-1 $22 $-1 $23 #
body $-1 $24 $-1 $25 #
body $-1 $26 $-1 $27 #
body $-1 $28 $-1 $29 #
lump $-1 $-1 $30 $0 #
transform $-1 1 0 0 0 1 0 0 0 1 78.538773766289253 43.138440767038304 13.850194964490894 1 rotate no_reflect no_shear #
lump $-1 $-1 $31 $1 #
transform $-1 1 0 0 0 1 0 0 0 1 78.538773766289253 43.138440767038304 13.850194964490894 1 rotate no_reflect no_shear #
lump $-1 $-1 $32 $2 #
transform $-1 1 0 0 0 1 0 0 0 1 78.538773766289253 43.138440767038304 13.850194964490894 1 rotate no_reflect no_shear #
lump $-1 $-1 $33 $3 #
transform $-1 1 0 0 0 1 0 0 0 1 78.538773766289253 43.138440767038304 13.850194964490894 1 rotate no_reflect no_shear #
lump $-1 $-1 $34 $4 #
transform $-1 1 0 0 0 1 0 0 0 1 78.538773766289253 43.138440767038304 13.850194964490894 1 rotate no_reflect no_shear #
lump $-1 $-1 $35 $5 #
transform $-1 1 0 0 0 1 0 0 0 1 78.538773766289253 43.138440767038304 13.850194964490894 1 rotate no_reflect no_shear #
lump $-1 $-1 $36 $6 #
transform $-1 1 0 0 0 1 0 0 0 1 78.538773766289253 43.138440767038304 13.850194964490894 1 rotate no_reflect no_shear #
lump $-1 $-1 $37 $7 #
transform $-1 1 0 0 0 1 0 0 0 1 78.538773766289253 43.138440767038304 13.850194964490894 1 rotate no_reflect no_shear #
lump $-1 $-1 $38 $8 #
transform $-1 1 0 0 0 1 0 0 0 1 78.538773766289253 43.138440767038304 13.850194964490894 1 rotate no_reflect no_shear #
lump $-1 $-1 $39 $9 #
transform $-1 1 0 0 0 1 0 0 0 1 78.538773766289253 43.138440767038304 13.850194964490894 1 rotate no_reflect no_shear #
shell $-1 $-1 $-1 $40 $-1 $10 #
shell $-1 $-1 $-1 $41 $-1 $12 #
shell $-1 $-1 $-1 $42 $-1 $14 #
shell $-1 $-1 $-1 $43 $-1 $16 #
shell $-1 $-1 $-1 $44 $-1 $18 #
shell $-1 $-1 $-1 $45 $-1 $20 #
shell $-1 $-1 $-1 $46 $-1 $22 #
shell $-1 $-1 $-1 $47 $-1 $24 #
shell $-1 $-1 $-1 $48 $-1 $26 #
shell $-1 $-1 $-1 $49 $-1 $28 #
face $-1 $50 $51 $30 $-1 $52 forward single #
face $-1 $53 $54 $31 $-1 $55 forward single #
face $-1 $56 $57 $32 $-1 $58 forward single #
face $-1 $59 $60 $33 $-1 $61 reversed single #
face $-1 $62 $63 $34 $-1 $64 forward single #
face $-1 $65 $66 $35 $-1 $67 reversed single #
face $-1 $68 $69 $36 $-1 $70 forward single #
face $-1 $71 $72 $37 $-1 $73 reversed single #
face $-1 $74 $75 $38 $-1 $76 forward single #
face $-1 $77 $78 $39 $-1 $79 forward single #
face $-1 $80 $81 $30 $-1 $82 reversed single #
loop $-1 $-1 $83 $40 #
plane-surface $-1 0 0 13.850194964490894 0 0 1 1 0 0 forward_v I I I I #
face $-1 $84 $85 $31 $-1 $86 reversed single #
loop $-1 $-1 $87 $41 #
plane-surface $-1 0 -43.138440767038304 0 0 1 0 0 0 1 forward_v I I I I #
face $-1 $88 $89 $32 $-1 $90 reversed single #
loop $-1 $-1 $91 $42 #
plane-surface $-1 0 43.138440767038304 0 0 -1 0 0 0 -1 forward_v I I I I #
face $-1 $92 $93 $33 $-1 $94 reversed single #
loop $-1 $-1 $95 $43 #
plane-surface $-1 63.042989458569863 -6.4922260627296584 227.32070602894564 0 -1 0 -0.6560590369687036 0 -0.75470957328743171 forward_v I I I I #
face $-1 $96 $97 $34 $-1 $98 forward single #
loop $-1 $99 $100 $44 #
cone-surface $-1 73.255322240268782 -10.213278758220021 9.0866158697852839 -0.6560590369687036 0 -0.75470957328743171 0.75470957328743171 0 -0.6560590369687036 1 I I 0 1 1 forward I I I I #
face $-1 $101 $102 $35 $-1 $103 reversed single #
loop $-1 $-1 $104 $45 #
plane-surface $-1 63.042989458569863 13.93433145371039 227.32070602894564 0 -1 0 -0.6560590369687036 0 -0.75470957328743171 forward_v I I I I #
face $-1 $105 $106 $36 $-1 $107 forward single #
loop $-1 $108 $109 $46 #
cone-surface $-1 73.255322240268782 10.213278758220028 9.0866158697852839 -0.6560590369687036 0 -0.75470957328743171 0.75470957328743171 0 -0.6560590369687036 1 I I 0 1 1 forward I I I I #
face $-1 $110 $111 $37 $-1 $112 reversed single #
loop $-1 $-1 $113 $47 #
plane-surface $-1 -211.74809014499357 -4.8065381587980127 89.344486407328773 0 1 0 -0.84804810408105047 0 0.52991925155115449 forward_v I I I I #
face $-1 $114 $115 $38 $-1 $116 forward single #
loop $-1 $117 $118 $48 #
cone-surface $-1 -74.757800852014753 -0.45841877893367666 9.1274104869036385 0.84804810408105047 0 -0.52991925155115449 0.79487887732673168 0 1.2720721561215758 1 I I 0 1 1.5 forward I I I I #
face $-1 $119 $120 $39 $-1 $121 forward single #
loop $-1 $122 $123 $49 #
cone-surface $-1 -74.757800852014753 6.063760290862831 9.1274104869036385 0.84804810408105047 0 -0.52991925155115449 0.79487887732673168 0 1.2720721561215758 1 I I 0 1 1.5 forward I I I I #
face $-1 $124 $125 $30 $-1 $126 reversed single #
loop $-1 $-1 $127 $50 #
plane-surface $-1 0 0 -13.850194964490894 0 0 1 1 0 0 forward_v I I I I #
coedge $-1 $128 $129 $130 $131 forward $51 $-1 #
face $-1 $132 $133 $31 $-1 $134 reversed single #
loop $-1 $-1 $135 $53 #
plane-surface $-1 0 0 -13.850194964490894 0 0 1 1 0 0 forward_v I I I I #
coedge $-1 $136 $137 $138 $139 forward $54 $-1 #
face $-1 $140 $141 $32 $-1 $142 reversed single #
loop $-1 $-1 $143 $56 #
plane-surface $-1 0 0 -13.850194964490894 0 0 1 1 0 0 forward_v I I I I #
coedge $-1 $144 $145 $146 $147 forward $57 $-1 #
face $-1 $148 $149 $33 $-1 $150 reversed single #
loop $-1 $-1 $151 $59 #
plane-surface $-1 -40.009155105059349 -10.213278758220021 108.77277715759703 0.6560590369687036 0 0.75470957328743171 0.75470957328743171 0 -0.6560590369687036 forward_v I I I I #
coedge $-1 $152 $153 $154 $155 reversed $60 $-1 #
face $-1 $-1 $156 $34 $-1 $157 forward single #
loop $-1 $158 $159 $62 #
cone-surface $-1 72.319836953721691 -10.213278758220021 8.0104631736974898 -0.6560590369687036 0 -0.75470957328743171 0.37735478664371586 0 -0.3280295184843518 1 I I -0.70710678118654746 0.70710678118654746 0.5 forward I I I I #
loop $-1 $-1 $160 $44 #
coedge $-1 $100 $100 $161 $162 reversed $63 $-1 #
face $-1 $163 $164 $35 $-1 $165 reversed single #
loop $-1 $-1 $166 $65 #
plane-surface $-1 -40.009155105059349 10.213278758220028 108.77277715759703 0.6560590369687036 0 0.75470957328743171 0.75470957328743171 0 -0.6560590369687036 forward_v I I I I #
coedge $-1 $167 $168 $169 $170 reversed $66 $-1 #
face $-1 $-1 $171 $36 $-1 $172 forward single #
loop $-1 $173 $174 $68 #
cone-surface $-1 72.319836953721691 10.213278758220028 8.0104631736974898 -0.6560590369687036 0 -0.75470957328743171 0.37735478664371586 0 -0.3280295184843518 1 I I -0.70710678118654746 0.70710678118654746 0.5 forward I I I I #
loop $-1 $-1 $175 $46 #
coedge $-1 $109 $109 $176 $177 reversed $69 $-1 #
face $-1 $178 $179 $37 $-1 $180 reversed single #
loop $-1 $-1 $181 $71 #
plane-surface $-1 -78.538773766289268 2.8026707559645772 6.106069983373871 -0.84804810408105047 0 0.52991925155115449 0.52991925155115449 0 0.84804810408105047 forward_v I I I I #
coedge $-1 $182 $183 $184 $185 reversed $72 $-1 #
face $-1 $-1 $186 $38 $-1 $187 forward single #
loop $-1 $188 $189 $74 #
cone-surface $-1 -72.760324958193365 -0.45841877893367666 7.8792490612115191 0.84804810408105047 0 -0.52991925155115449 0.39743943866336584 0 0.63603607806078788 1 I I -0.70710678118654757 0.70710678118654757 0.75 forward I I I I #
loop $-1 $-1 $190 $48 #
coedge $-1 $118 $118 $191 $192 reversed $75 $-1 #
face $-1 $-1 $193 $39 $-1 $194 forward single #
loop $-1 $195 $196 $77 #
cone-surface $-1 -72.760324958193365 6.063760290862831 7.8792490612115191 0.84804810408105047 0 -0.52991925155115449 0.39743943866336584 0 0.63603607806078788 1 I I -0.70710678118654757 0.70710678118654757 0.75 forward I I I I #
loop $-1 $-1 $197 $49 #
coedge $-1 $123 $123 $198 $199 reversed $78 $-1 #
face $-1 $200 $201 $30 $-1 $202 reversed single #
loop $-1 $-1 $203 $80 #
plane-surface $-1 0 -43.138440767038304 0 0 1 0 0 0 1 forward_v I I I I #
coedge $-1 $204 $205 $206 $207 forward $81 $-1 #
coedge $-1 $208 $83 $209 $210 forward $51 $-1 #
coedge $-1 $83 $208 $211 $212 forward $51 $-1 #
coedge $-1 $213 $214 $83 $131 reversed $215 $-1 #
edge $-1 $216 -43.138440767038304 $217 43.138440767038304 $130 $218 forward 7 unknown #
face $-1 $219 $220 $31 $-1 $221 reversed single #
loop $-1 $-1 $222 $84 #
plane-surface $-1 -54.427464023561583 -58.969635876070356 0 0 1 0 0 0 1 forward_v I I I I #
coedge $-1 $223 $224 $137 $225 forward $85 $-1 #
coedge $-1 $226 $87 $227 $228 reversed $54 $-1 #
coedge $-1 $87 $226 $135 $225 reversed $54 $-1 #
coedge $-1 $229 $230 $87 $139 reversed $220 $-1 #
edge $-1 $231 -13.850194964490894 $232 13.850194964490894 $138 $233 forward 7 unknown #
face $-1 $234 $235 $32 $-1 $236 reversed single #
loop $-1 $-1 $237 $88 #
plane-surface $-1 -58.016544209815699 51.05403832155433 0 1 0 0 0 0 -1 forward_v I I I I #
coedge $-1 $238 $239 $145 $240 forward $89 $-1 #
coedge $-1 $241 $91 $242 $243 reversed $57 $-1 #
coedge $-1 $91 $241 $143 $240 reversed $57 $-1 #
coedge $-1 $244 $245 $91 $147 reversed $246 $-1 #
edge $-1 $247 -13.850194964490894 $248 13.850194964490894 $146 $249 forward 7 unknown #
face $-1 $250 $251 $33 $-1 $252 forward single #
loop $-1 $-1 $253 $92 #
plane-surface $-1 63.042989458569863 -13.934331453710383 227.32070602894564 0 1 0 0.6560590369687036 0 0.75470957328743171 forward_v I I I I #
coedge $-1 $254 $255 $256 $257 reversed $93 $-1 #
coedge $-1 $153 $95 $258 $259 reversed $60 $-1 #
coedge $-1 $95 $152 $254 $260 reversed $60 $-1 #
coedge $-1 $256 $261 $95 $155 forward $251 $-1 #
edge $-1 $262 -47.017279037004322 $263 -37.665287521088779 $154 $264 forward 7 unknown #
loop $-1 $-1 $161 $96 #
plane-surface $-1 -40.009155105059349 -10.213278758220021 108.77277715759703 0.6560590369687036 0 0.75470957328743171 0.75470957328743171 0 -0.6560590369687036 forward_v I I I I #
loop $-1 $-1 $265 $62 #
coedge $-1 $159 $159 $160 $266 reversed $97 $-1 #
coedge $-1 $160 $160 $159 $266 forward $99 $-1 #
coedge $-1 $161 $161 $100 $162 forward $156 $-1 #
edge $-1 $267 0 $267 6.2831853071796004 $161 $268 forward 7 unknown #
face $-1 $269 $270 $35 $-1 $271 reversed single #
loop $-1 $-1 $272 $101 #
plane-surface $-1 63.042989458569863 6.4922260627296655 227.32070602894564 0 1 0 0.6560590369687036 0 0.75470957328743171 forward_v I I I I #
coedge $-1 $273 $274 $275 $276 reversed $102 $-1 #
coedge $-1 $168 $104 $277 $278 reversed $66 $-1 #
coedge $-1 $104 $167 $273 $279 reversed $66 $-1 #
coedge $-1 $275 $280 $104 $170 forward $281 $-1 #
edge $-1 $282 -47.017279037004322 $283 -37.665287521088779 $169 $284 forward 7 unknown #
loop $-1 $-1 $176 $105 #
plane-surface $-1 -40.009155105059349 10.213278758220028 108.77277715759703 0.6560590369687036 0 0.75470957328743171 0.75470957328743171 0 -0.6560590369687036 forward_v I I I I #
loop $-1 $-1 $285 $68 #
coedge $-1 $174 $174 $175 $286 reversed $106 $-1 #
coedge $-1 $175 $175 $174 $286 forward $108 $-1 #
coedge $-1 $176 $176 $109 $177 forward $171 $-1 #
edge $-1 $287 0 $287 6.2831853071796004 $176 $288 forward 7 unknown #
face $-1 $289 $290 $37 $-1 $291 reversed single #
loop $-1 $-1 $292 $110 #
plane-surface $-1 -211.74809014499357 10.411879670727167 89.344486407328773 0 -1 0 0.84804810408105047 0 -0.52991925155115449 forward_v I I I I #
coedge $-1 $293 $294 $295 $296 reversed $111 $-1 #
coedge $-1 $183 $113 $297 $298 reversed $72 $-1 #
coedge $-1 $113 $182 $293 $299 reversed $72 $-1 #
coedge $-1 $295 $300 $113 $185 forward $301 $-1 #
edge $-1 $302 27.335271306207531 $303 32.174337503235321 $184 $304 forward 7 unknown #
loop $-1 $-1 $191 $114 #
plane-surface $-1 -78.538773766289268 2.8026707559645772 6.106069983373871 -0.84804810408105047 0 0.52991925155115449 0.52991925155115449 0 0.84804810408105047 forward_v I I I I #
loop $-1 $-1 $305 $74 #
coedge $-1 $189 $189 $190 $306 reversed $115 $-1 #
coedge $-1 $190 $190 $189 $306 forward $117 $-1 #
coedge $-1 $191 $191 $118 $192 forward $186 $-1 #
edge $-1 $307 0 $307 6.2831853071796004 $191 $308 forward 7 unknown #
loop $-1 $-1 $198 $119 #
plane-surface $-1 -78.538773766289268 2.8026707559645772 6.106069983373871 -0.84804810408105047 0 0.52991925155115449 0.52991925155115449 0 0.84804810408105047 forward_v I I I I #
loop $-1 $-1 $309 $77 #
coedge $-1 $196 $196 $197 $310 reversed $120 $-1 #
coedge $-1 $197 $197 $196 $310 forward $122 $-1 #
coedge $-1 $198 $198 $123 $199 forward $193 $-1 #
edge $-1 $311 0 $311 6.2831853071796004 $198 $312 forward 7 unknown #
face $-1 $313 $314 $30 $-1 $315 reversed single #
loop $-1 $-1 $316 $124 #
plane-surface $-1 -78.538773766289253 0 0 1 0 0 0 0 -1 forward_v I I I I #
coedge $-1 $317 $211 $318 $319 forward $125 $-1 #
coedge $-1 $320 $127 $317 $321 forward $81 $-1 #
coedge $-1 $127 $320 $322 $323 forward $81 $-1 #
coedge $-1 $214 $213 $127 $207 reversed $215 $-1 #
edge $-1 $324 -43.138440767038304 $325 43.138440767038304 $206 $326 forward 7 unknown #
coedge $-1 $129 $128 $327 $328 forward $51 $-1 #
coedge $-1 $329 $330 $128 $210 reversed $314 $-1 #
edge $-1 $217 -78.538773766289253 $331 78.538773766289253 $209 $332 forward 7 unknown #
coedge $-1 $203 $333 $129 $212 reversed $125 $-1 #
edge $-1 $334 -78.538773766289253 $216 78.538773766289253 $211 $335 forward 7 unknown #
coedge $-1 $206 $130 $333 $336 forward $215 $-1 #
coedge $-1 $130 $206 $329 $337 reversed $215 $-1 #
loop $-1 $-1 $213 $313 #
vertex $-1 $131 $338 #
vertex $-1 $131 $339 #
straight-curve $-1 78.538773766289253 0 13.850194964490894 0 1 0 I I #
face $-1 $340 $341 $31 $-1 $342 reversed single #
loop $-1 $-1 $138 $132 #
plane-surface $-1 -58.016544209815699 -51.05403832155433 0 1 0 0 0 0 -1 forward_v I I I I #
coedge $-1 $343 $344 $345 $346 forward $133 $-1 #
coedge $-1 $347 $135 $348 $349 forward $85 $-1 #
coedge $-1 $135 $347 $229 $350 forward $85 $-1 #
edge $-1 $231 -58.016544209815699 $351 -50.838383837307468 $135 $352 forward 7 unknown #
coedge $-1 $137 $136 $353 $354 forward $54 $-1 #
coedge $-1 $355 $356 $136 $228 forward $357 $-1 #
edge $-1 $358 50.838383837307468 $232 58.016544209815699 $227 $359 forward 7 unknown #
coedge $-1 $345 $138 $224 $350 reversed $220 $-1 #
coedge $-1 $138 $345 $355 $360 reversed $220 $-1 #
vertex $-1 $225 $361 #
vertex $-1 $360 $362 #
straight-curve $-1 -58.016544209815699 -43.138440767038304 0 0 0 1 I I #
face $-1 $363 $246 $32 $-1 $364 reversed single #
loop $-1 $-1 $365 $140 #
plane-surface $-1 -54.427464023561583 58.969635876070356 0 0 -1 0 0 0 -1 forward_v I I I I #
coedge $-1 $366 $367 $368 $369 forward $141 $-1 #
coedge $-1 $370 $143 $366 $371 forward $89 $-1 #
coedge $-1 $143 $370 $244 $372 forward $89 $-1 #
edge $-1 $247 50.838383837307468 $373 58.016544209815699 $143 $374 forward 7 unknown #
coedge $-1 $145 $144 $375 $376 forward $57 $-1 #
coedge $-1 $377 $378 $144 $243 forward $379 $-1 #
edge $-1 $380 -58.016544209815699 $248 -50.838383837307468 $242 $381 forward 7 unknown #
coedge $-1 $382 $146 $239 $372 reversed $246 $-1 #
coedge $-1 $146 $382 $377 $383 reversed $246 $-1 #
loop $-1 $-1 $146 $234 #
vertex $-1 $240 $384 #
vertex $-1 $383 $385 #
straight-curve $-1 -50.838383837307468 43.138440767038304 0 0 0 1 I I #
face $-1 $-1 $386 $33 $-1 $387 reversed single #
loop $-1 $-1 $154 $148 #
plane-surface $-1 0 0 13.850194964490894 0 0 1 1 0 0 forward_v I I I I #
coedge $-1 $388 $389 $390 $391 reversed $149 $-1 #
coedge $-1 $392 $151 $153 $260 forward $93 $-1 #
coedge $-1 $151 $392 $388 $393 forward $93 $-1 #
coedge $-1 $390 $154 $151 $257 forward $251 $-1 #
edge $-1 $263 1.385586683619648 $394 8.8276920746003729 $256 $395 forward 7 unknown #
coedge $-1 $396 $397 $152 $259 forward $386 $-1 #
edge $-1 $398 -107.939720420505 $262 -99.810158049981922 $258 $399 forward 7 unknown #
edge $-1 $263 144.68603714643183 $398 157.07754753257854 $153 $400 forward 7 unknown #
coedge $-1 $154 $390 $396 $401 forward $251 $-1 #
vertex $-1 $155 $402 #
vertex $-1 $155 $403 #
straight-curve $-1 31.521494729284932 -6.4922260627296584 13.850194964490896 -1 0 0 I I #
coedge $-1 $265 $265 $-1 $404 reversed $158 $-1 #
edge $-1 $405 0 $405 6.2831853071796004 $159 $406 forward 7 unknown #
vertex $-1 $162 $407 #
ellipse-curve $-1 73.862778008331517 -10.213278758220021 9.7854137792293407 0.6560590369687036 0 0.75470957328743171 0.75470957328743171 0 -0.6560590369687036 1 I I #
face $-1 $-1 $281 $35 $-1 $408 forward single #
loop $-1 $-1 $409 $163 #
plane-surface $-1 78.538773766289253 0 0 -1 0 0 0 0 1 forward_v I I I I #
coedge $-1 $410 $411 $412 $413 reversed $164 $-1 #
coedge $-1 $414 $166 $168 $279 forward $102 $-1 #
coedge $-1 $166 $414 $410 $415 forward $102 $-1 #
coedge $-1 $412 $169 $166 $276 forward $281 $-1 #
edge $-1 $283 -8.8276920746003764 $416 -1.3855866836196515 $275 $417 forward 7 unknown #
coedge $-1 $418 $419 $167 $278 forward $270 $-1 #
edge $-1 $420 -107.939720420505 $282 -99.810158049981922 $277 $421 forward 7 unknown #
edge $-1 $283 144.68603714643183 $420 157.07754753257854 $168 $422 forward 7 unknown #
coedge $-1 $169 $412 $418 $423 forward $281 $-1 #
loop $-1 $-1 $412 $269 #
vertex $-1 $278 $424 #
vertex $-1 $170 $425 #
straight-curve $-1 31.521494729284932 13.93433145371039 13.850194964490896 -1 0 0 I I #
coedge $-1 $285 $285 $-1 $426 reversed $173 $-1 #
edge $-1 $427 0 $427 6.2831853071796004 $174 $428 forward 7 unknown #
vertex $-1 $177 $429 #
ellipse-curve $-1 73.862778008331517 10.213278758220028 9.7854137792293407 0.6560590369687036 0 0.75470957328743171 0.75470957328743171 0 -0.6560590369687036 1 I I #
face $-1 $-1 $301 $37 $-1 $430 forward single #
loop $-1 $-1 $431 $178 #
plane-surface $-1 -78.538773766289253 0 0 1 0 0 0 0 -1 forward_v I I I I #
coedge $-1 $432 $433 $434 $435 reversed $179 $-1 #
coedge $-1 $436 $181 $183 $299 forward $111 $-1 #
coedge $-1 $181 $436 $432 $437 forward $111 $-1 #
coedge $-1 $434 $184 $181 $296 forward $301 $-1 #
edge $-1 $303 -6.2078735367803013 $438 9.0105442927448784 $295 $439 forward 7 unknown #
coedge $-1 $440 $441 $182 $298 forward $290 $-1 #
edge $-1 $442 -38.566173220290494 $302 -30.82204823917349 $297 $443 forward 7 unknown #
edge $-1 $303 -9.1317048453384579 $442 -2.7114274142304302e-014 $183 $444 forward 7 unknown #
coedge $-1 $184 $434 $440 $445 forward $301 $-1 #
loop $-1 $-1 $434 $289 #
vertex $-1 $298 $446 #
vertex $-1 $185 $447 #
straight-curve $-1 -105.87404507249678 -4.8065381587980127 13.850194964490896 1 0 0 I I #
coedge $-1 $305 $305 $-1 $448 reversed $188 $-1 #
edge $-1 $449 0 $449 6.2831853071796004 $189 $450 forward 7 unknown #
vertex $-1 $192 $451 #
ellipse-curve $-1 -76.119240667775358 -0.45841877893367666 9.9781324739323942 -0.84804810408105047 0 0.52991925155115449 0.79487887732673168 0 1.2720721561215758 1 I I #
coedge $-1 $309 $309 $-1 $452 reversed $195 $-1 #
edge $-1 $453 0 $453 6.2831853071796004 $196 $454 forward 7 unknown #
vertex $-1 $199 $455 #
ellipse-curve $-1 -76.119240667775358 6.063760290862831 9.9781324739323942 -0.84804810408105047 0 0.52991925155115449 0.79487887732673168 0 1.2720721561215758 1 I I #
face $-1 $-1 $215 $30 $-1 $456 reversed single #
loop $-1 $-1 $329 $200 #
plane-surface $-1 0 43.138440767038304 0 0 -1 0 0 0 -1 forward_v I I I I #
coedge $-1 $457 $327 $330 $458 forward $201 $-1 #
coedge $-1 $333 $203 $204 $321 reversed $125 $-1 #
coedge $-1 $327 $457 $203 $319 reversed $201 $-1 #
edge $-1 $334 -13.850194964490894 $459 13.850194964490894 $318 $460 forward 7 unknown #
coedge $-1 $205 $204 $457 $461 forward $81 $-1 #
edge $-1 $325 -78.538773766289253 $459 78.538773766289253 $317 $462 forward 7 unknown #
coedge $-1 $330 $329 $205 $323 reversed $314 $-1 #
edge $-1 $463 -78.538773766289253 $324 78.538773766289253 $322 $464 forward 7 unknown #
vertex $-1 $207 $465 #
vertex $-1 $336 $466 #
straight-curve $-1 78.538773766289253 0 -13.850194964490894 0 -1 0 I I #
coedge $-1 $316 $318 $208 $328 reversed $201 $-1 #
edge $-1 $331 -43.138440767038304 $334 43.138440767038304 $327 $467 forward 7 unknown #
coedge $-1 $322 $209 $214 $337 forward $314 $-1 #
coedge $-1 $209 $322 $316 $458 reversed $314 $-1 #
vertex $-1 $210 $468 #
straight-curve $-1 0 43.138440767038304 13.850194964490894 -1 0 0 I I #
coedge $-1 $211 $317 $213 $336 reversed $125 $-1 #
vertex $-1 $328 $469 #
straight-curve $-1 0 -43.138440767038304 13.850194964490894 1 0 0 I I #
edge $-1 $216 -13.850194964490894 $325 13.850194964490894 $213 $470 forward 7 unknown #
edge $-1 $217 -13.850194964490894 $324 13.850194964490894 $214 $471 forward 7 unknown #
point $-1 78.538773766289253 -43.138440767038304 13.850194964490894 #
point $-1 78.538773766289253 43.138440767038304 13.850194964490894 #
face $-1 $-1 $357 $31 $-1 $472 forward single #
loop $-1 $-1 $473 $219 #
plane-surface $-1 -50.838383837307468 -51.05403832155433 0 -1 0 0 0 0 1 forward_v I I I I #
coedge $-1 $474 $222 $347 $475 reversed $133 $-1 #
coedge $-1 $222 $474 $476 $477 reversed $133 $-1 #
coedge $-1 $230 $229 $222 $346 reversed $220 $-1 #
edge $-1 $478 -13.850194964490894 $479 13.850194964490894 $345 $480 forward 7 unknown #
coedge $-1 $224 $223 $343 $475 forward $85 $-1 #
coedge $-1 $353 $473 $223 $349 reversed $341 $-1 #
edge $-1 $351 -7.915597554516026 $481 7.915597554516026 $348 $482 forward 7 unknown #
edge $-1 $479 -7.915597554516026 $231 7.915597554516026 $229 $483 forward 7 unknown #
vertex $-1 $349 $484 #
straight-curve $-1 0 -43.138440767038304 -13.850194964490894 1 0 0 I I #
coedge $-1 $485 $348 $226 $354 reversed $341 $-1 #
edge $-1 $358 -13.850194964490894 $351 13.850194964490894 $353 $486 forward 7 unknown #
coedge $-1 $476 $227 $230 $360 forward $357 $-1 #
coedge $-1 $227 $476 $485 $487 forward $357 $-1 #
loop $-1 $-1 $227 $340 #
vertex $-1 $228 $488 #
straight-curve $-1 0 -43.138440767038304 13.850194964490894 -1 0 0 I I #
edge $-1 $232 -7.915597554516026 $478 7.915597554516026 $230 $489 forward 7 unknown #
point $-1 -58.016544209815699 -43.138440767038304 -13.850194964490894 #
point $-1 -58.016544209815699 -43.138440767038304 13.850194964490894 #
face $-1 $-1 $379 $32 $-1 $490 forward single #
plane-surface $-1 -50.838383837307468 51.05403832155433 0 -1 0 0 0 0 1 forward_v I I I I #
coedge $-1 $491 $492 $382 $493 forward $235 $-1 #
coedge $-1 $375 $237 $238 $371 reversed $141 $-1 #
coedge $-1 $237 $375 $378 $494 reversed $141 $-1 #
coedge $-1 $492 $491 $237 $369 reversed $235 $-1 #
edge $-1 $495 -13.850194964490894 $496 13.850194964490894 $368 $497 forward 7 unknown #
coedge $-1 $239 $238 $491 $498 forward $89 $-1 #
edge $-1 $373 -7.915597554516026 $496 7.915597554516026 $366 $499 forward 7 unknown #
edge $-1 $500 -7.915597554516026 $247 7.915597554516026 $244 $501 forward 7 unknown #
vertex $-1 $371 $502 #
straight-curve $-1 0 43.138440767038304 -13.850194964490894 -1 0 0 I I #
coedge $-1 $367 $366 $241 $376 reversed $141 $-1 #
edge $-1 $380 -13.850194964490894 $373 13.850194964490894 $375 $503 forward 7 unknown #
coedge $-1 $504 $242 $245 $383 forward $379 $-1 #
coedge $-1 $242 $504 $367 $494 forward $379 $-1 #
loop $-1 $-1 $242 $363 #
vertex $-1 $243 $505 #
straight-curve $-1 0 43.138440767038304 13.850194964490894 1 0 0 I I #
coedge $-1 $245 $244 $365 $493 reversed $246 $-1 #
edge $-1 $248 -7.915597554516026 $506 7.915597554516026 $245 $507 forward 7 unknown #
point $-1 -50.838383837307468 43.138440767038304 -13.850194964490894 #
point $-1 -50.838383837307468 43.138440767038304 13.850194964490894 #
loop $-1 $-1 $258 $250 #
plane-surface $-1 78.538773766289253 0 0 -1 0 0 0 0 1 forward_v I I I I #
coedge $-1 $389 $253 $255 $393 reversed $149 $-1 #
coedge $-1 $253 $388 $508 $509 reversed $149 $-1 #
coedge $-1 $261 $256 $253 $391 forward $251 $-1 #
edge $-1 $394 37.665287521088779 $510 47.017279037004322 $390 $511 forward 7 unknown #
coedge $-1 $255 $254 $397 $512 reversed $93 $-1 #
edge $-1 $513 -157.07754753257854 $394 -144.68603714643183 $388 $514 forward 7 unknown #
vertex $-1 $257 $515 #
straight-curve $-1 69.18678225037371 -5.1066393791100104 13.850194964490896 0 -1 0 I I #
coedge $-1 $508 $258 $261 $401 reversed $386 $-1 #
coedge $-1 $258 $508 $392 $512 forward $386 $-1 #
vertex $-1 $259 $516 #
straight-curve $-1 78.538773766289253 -6.4922260627296584 113.66035301447282 0 0 1 I I #
straight-curve $-1 -40.009155105059349 -6.4922260627296584 108.77277715759703 0.75470957328743171 0 -0.6560590369687036 I I #
edge $-1 $510 -13.934331453710383 $262 -6.4922260627296584 $396 $517 forward 7 unknown #
point $-1 78.538773766289253 -6.4922260627296584 13.850194964490894 #
point $-1 69.18678225037371 -6.4922260627296584 13.850194964490896 #
edge $-1 $518 1 $518 0 $265 $-1 forward 7 unknown #
vertex $-1 $266 $519 #
ellipse-curve $-1 72.647866472206047 -10.213278758220021 8.3878179603412057 0.6560590369687036 0 0.75470957328743171 0.75470957328743171 0 -0.6560590369687036 1 I I #
point $-1 74.617487581618974 -10.213278758220021 9.1293547422606558 #
plane-surface $-1 0 0 13.850194964490894 0 0 1 1 0 0 forward_v I I I I #
coedge $-1 $419 $418 $411 $520 forward $270 $-1 #
coedge $-1 $411 $272 $274 $415 reversed $164 $-1 #
coedge $-1 $272 $410 $409 $520 reversed $164 $-1 #
coedge $-1 $280 $275 $272 $413 forward $281 $-1 #
edge $-1 $416 37.665287521088779 $521 47.017279037004322 $412 $522 forward 7 unknown #
coedge $-1 $274 $273 $419 $523 reversed $102 $-1 #
edge $-1 $524 -157.07754753257854 $416 -144.68603714643183 $410 $525 forward 7 unknown #
vertex $-1 $276 $526 #
straight-curve $-1 69.18678225037371 5.106639379110014 13.850194964490896 0 -1 0 I I #
coedge $-1 $409 $277 $280 $423 reversed $270 $-1 #
coedge $-1 $277 $409 $414 $523 forward $270 $-1 #
vertex $-1 $278 $527 #
straight-curve $-1 78.538773766289253 13.93433145371039 113.66035301447282 0 0 1 I I #
straight-curve $-1 -40.009155105059349 13.93433145371039 108.77277715759703 0.75470957328743171 0 -0.6560590369687036 I I #
edge $-1 $521 6.4922260627296655 $282 13.93433145371039 $418 $528 forward 7 unknown #
point $-1 78.538773766289253 13.93433145371039 13.850194964490894 #
point $-1 69.18678225037371 13.93433145371039 13.850194964490896 #
edge $-1 $529 1 $529 0 $285 $-1 forward 7 unknown #
vertex $-1 $286 $530 #
ellipse-curve $-1 72.647866472206047 10.213278758220028 8.3878179603412057 0.6560590369687036 0 0.75470957328743171 0.75470957328743171 0 -0.6560590369687036 1 I I #
point $-1 74.617487581618974 10.213278758220028 9.1293547422606558 #
plane-surface $-1 0 0 13.850194964490894 0 0 1 1 0 0 forward_v I I I I #
coedge $-1 $441 $440 $433 $531 forward $290 $-1 #
coedge $-1 $433 $292 $294 $437 reversed $179 $-1 #
coedge $-1 $292 $432 $431 $531 reversed $179 $-1 #
coedge $-1 $300 $295 $292 $435 forward $301 $-1 #
edge $-1 $438 -32.174337503235321 $532 -27.335271306207531 $434 $533 forward 7 unknown #
coedge $-1 $294 $293 $441 $534 reversed $111 $-1 #
edge $-1 $535 2.7114274142304302e-014 $438 9.1317048453384579 $432 $536 forward 7 unknown #
vertex $-1 $296 $537 #
straight-curve $-1 -73.699707569261449 1.4013353779822886 13.850194964490894 0 1 0 I I #
coedge $-1 $431 $297 $300 $445 reversed $290 $-1 #
coedge $-1 $297 $431 $436 $534 forward $290 $-1 #
vertex $-1 $298 $538 #
straight-curve $-1 -78.538773766289253 -4.8065381587980127 44.672243203664387 0 0 1 I I #
straight-curve $-1 -78.538773766289268 -4.8065381587980127 6.106069983373871 -0.52991925155115449 0 -0.84804810408105047 I I #
edge $-1 $532 -10.411879670727167 $302 4.8065381587980127 $440 $539 forward 7 unknown #
point $-1 -78.538773766289253 -4.8065381587980127 13.850194964490894 #
point $-1 -73.699707569261463 -4.8065381587980127 13.850194964490893 #
edge $-1 $540 1 $540 0 $305 $-1 forward 7 unknown #
vertex $-1 $306 $541 #
ellipse-curve $-1 -73.396361036254149 -0.45841877893367666 8.2766884998748846 -0.84804810408105047 0 0.52991925155115449 0.79487887732673168 0 1.2720721561215758 1 I I #
point $-1 -75.32436179044862 -0.45841877893367666 11.250204630053968 #
edge $-1 $542 1 $542 0 $309 $-1 forward 7 unknown #
vertex $-1 $310 $543 #
ellipse-curve $-1 -73.396361036254149 6.063760290862831 8.2766884998748846 -0.84804810408105047 0 0.52991925155115449 0.79487887732673168 0 1.2720721561215758 1 I I #
point $-1 -75.32436179044862 6.063760290862831 11.250204630053968 #
plane-surface $-1 78.538773766289253 0 0 -1 0 0 0 0 1 forward_v I I I I #
coedge $-1 $318 $316 $320 $461 reversed $201 $-1 #
edge $-1 $331 -13.850194964490894 $463 13.850194964490894 $330 $544 forward 7 unknown #
vertex $-1 $461 $545 #
straight-curve $-1 -78.538773766289253 -43.138440767038304 0 0 0 -1 I I #
edge $-1 $459 -43.138440767038304 $463 43.138440767038304 $457 $546 forward 7 unknown #
straight-curve $-1 0 -43.138440767038304 -13.850194964490894 -1 0 0 I I #
vertex $-1 $323 $547 #
straight-curve $-1 0 43.138440767038304 -13.850194964490894 1 0 0 I I #
point $-1 78.538773766289253 43.138440767038304 -13.850194964490894 #
point $-1 78.538773766289253 -43.138440767038304 -13.850194964490894 #
straight-curve $-1 -78.538773766289253 0 13.850194964490894 0 -1 0 I I #
point $-1 -78.538773766289253 43.138440767038304 13.850194964490894 #
point $-1 -78.538773766289253 -43.138440767038304 13.850194964490894 #
straight-curve $-1 78.538773766289253 -43.138440767038304 0 0 0 -1 I I #
straight-curve $-1 78.538773766289253 43.138440767038304 0 0 0 -1 I I #
plane-surface $-1 0 0 13.850194964490894 0 0 1 1 0 0 forward_v I I I I #
coedge $-1 $348 $485 $474 $548 forward $341 $-1 #
coedge $-1 $344 $343 $473 $548 reversed $133 $-1 #
edge $-1 $481 -3.5890801862541153 $479 3.5890801862541153 $343 $549 forward 7 unknown #
coedge $-1 $356 $355 $344 $477 forward $357 $-1 #
edge $-1 $478 -3.5890801862541153 $550 3.5890801862541153 $344 $551 forward 7 unknown #
vertex $-1 $360 $552 #
vertex $-1 $350 $553 #
straight-curve $-1 -58.016544209815699 -58.969635876070356 0 0 0 -1 I I #
vertex $-1 $548 $554 #
straight-curve $-1 -50.838383837307468 -51.05403832155433 -13.850194964490894 0 -1 0 I I #
straight-curve $-1 -58.016544209815699 -51.05403832155433 -13.850194964490894 0 1 0 I I #
point $-1 -50.838383837307468 -43.138440767038304 -13.850194964490894 #
coedge $-1 $473 $353 $356 $487 reversed $341 $-1 #
straight-curve $-1 -50.838383837307468 -43.138440767038304 0 0 0 -1 I I #
edge $-1 $550 -7.915597554516026 $358 7.915597554516026 $485 $555 forward 7 unknown #
point $-1 -50.838383837307468 -43.138440767038304 13.850194964490894 #
straight-curve $-1 -58.016544209815699 -51.05403832155433 13.850194964490894 0 -1 0 I I #
plane-surface $-1 0 0 13.850194964490894 0 0 1 1 0 0 forward_v I I I I #
coedge $-1 $368 $365 $370 $498 reversed $235 $-1 #
coedge $-1 $365 $368 $504 $556 reversed $235 $-1 #
edge $-1 $506 -13.850194964490894 $500 13.850194964490894 $382 $557 forward 7 unknown #
edge $-1 $495 -7.915597554516026 $380 7.915597554516026 $367 $558 forward 7 unknown #
vertex $-1 $556 $559 #
vertex $-1 $498 $560 #
straight-curve $-1 -58.016544209815699 58.969635876070356 0 0 0 -1 I I #
edge $-1 $496 -3.5890801862541153 $500 3.5890801862541153 $491 $561 forward 7 unknown #
straight-curve $-1 -58.016544209815699 51.05403832155433 -13.850194964490894 0 1 0 I I #
vertex $-1 $372 $562 #
straight-curve $-1 -50.838383837307468 51.05403832155433 -13.850194964490894 0 -1 0 I I #
point $-1 -58.016544209815699 43.138440767038304 -13.850194964490894 #
straight-curve $-1 -58.016544209815699 43.138440767038304 0 0 0 -1 I I #
coedge $-1 $378 $377 $492 $556 forward $379 $-1 #
point $-1 -58.016544209815699 43.138440767038304 13.850194964490894 #
vertex $-1 $383 $563 #
straight-curve $-1 -50.838383837307468 51.05403832155433 13.850194964490894 0 1 0 I I #
coedge $-1 $397 $396 $389 $509 forward $386 $-1 #
edge $-1 $510 99.810158049981922 $513 107.939720420505 $508 $564 forward 7 unknown #
vertex $-1 $401 $565 #
straight-curve $-1 31.521494729284932 -13.934331453710383 13.850194964490896 1 0 0 I I #
edge $-1 $513 -8.8276920746003729 $398 -1.385586683619648 $397 $566 forward 7 unknown #
vertex $-1 $512 $567 #
straight-curve $-1 -40.009155105059349 -13.934331453710383 108.77277715759703 -0.75470957328743171 0 0.6560590369687036 I I #
point $-1 69.18678225037371 -13.934331453710383 13.850194964490896 #
point $-1 78.538773766289253 -6.4922260627296584 5.7206325939678209 #
straight-curve $-1 78.538773766289253 0 13.850194964490894 0 1 0 I I #
vertex $-1 $404 $568 #
point $-1 73.402576045493475 -10.213278758220021 7.7317589233725021 #
edge $-1 $521 99.810158049981922 $524 107.939720420505 $409 $569 forward 7 unknown #
vertex $-1 $423 $570 #
straight-curve $-1 31.521494729284932 6.4922260627296655 13.850194964490896 1 0 0 I I #
edge $-1 $524 1.3855866836196515 $420 8.8276920746003764 $419 $571 forward 7 unknown #
vertex $-1 $523 $572 #
straight-curve $-1 -40.009155105059349 6.4922260627296655 108.77277715759703 -0.75470957328743171 0 0.6560590369687036 I I #
point $-1 69.18678225037371 6.4922260627296655 13.850194964490896 #
point $-1 78.538773766289253 13.93433145371039 5.7206325939678209 #
straight-curve $-1 78.538773766289253 0 13.850194964490894 0 1 0 I I #
vertex $-1 $426 $573 #
point $-1 73.402576045493475 10.213278758220028 7.7317589233725021 #
edge $-1 $532 30.82204823917349 $535 38.566173220290494 $431 $574 forward 7 unknown #
vertex $-1 $445 $575 #
straight-curve $-1 -105.87404507249678 10.411879670727167 13.850194964490896 -1 0 0 I I #
edge $-1 $535 -9.0105442927448784 $442 6.2078735367803013 $441 $576 forward 7 unknown #
vertex $-1 $534 $577 #
straight-curve $-1 -78.538773766289268 10.411879670727167 6.106069983373871 0.52991925155115449 0 0.84804810408105047 I I #
point $-1 -73.699707569261463 10.411879670727167 13.850194964490893 #
point $-1 -78.538773766289253 -4.8065381587980127 6.1060699833738941 #
straight-curve $-1 -78.538773766289253 0 13.850194964490894 0 -1 0 I I #
vertex $-1 $448 $578 #
point $-1 -72.601482158927425 -0.45841877893367666 9.5487606559964604 #
vertex $-1 $452 $579 #
point $-1 -72.601482158927425 6.063760290862831 9.5487606559964604 #
straight-curve $-1 -78.538773766289253 43.138440767038304 0 0 0 -1 I I #
point $-1 -78.538773766289253 -43.138440767038304 -13.850194964490894 #
straight-curve $-1 -78.538773766289253 0 -13.850194964490894 0 1 0 I I #
point $-1 -78.538773766289253 43.138440767038304 -13.850194964490894 #
edge $-1 $550 -13.850194964490894 $481 13.850194964490894 $473 $580 forward 7 unknown #
straight-curve $-1 -54.427464023561583 -58.969635876070356 -13.850194964490894 -1 0 0 I I #
vertex $-1 $487 $581 #
straight-curve $-1 -54.427464023561583 -58.969635876070356 13.850194964490894 1 0 0 I I #
point $-1 -58.016544209815699 -58.969635876070356 13.850194964490894 #
point $-1 -58.016544209815699 -58.969635876070356 -13.850194964490894 #
point $-1 -50.838383837307468 -58.969635876070356 -13.850194964490894 #
straight-curve $-1 -50.838383837307468 -51.05403832155433 13.850194964490894 0 1 0 I I #
edge $-1 $506 -3.5890801862541153 $495 3.5890801862541153 $492 $582 forward 7 unknown #
straight-curve $-1 -50.838383837307468 58.969635876070356 0 0 0 -1 I I #
straight-curve $-1 -58.016544209815699 51.05403832155433 13.850194964490894 0 -1 0 I I #
point $-1 -58.016544209815699 58.969635876070356 13.850194964490894 #
point $-1 -58.016544209815699 58.969635876070356 -13.850194964490894 #
straight-curve $-1 -54.427464023561583 58.969635876070356 -13.850194964490894 1 0 0 I I #
point $-1 -50.838383837307468 58.969635876070356 -13.850194964490894 #
point $-1 -50.838383837307468 58.969635876070356 13.850194964490894 #
straight-curve $-1 78.538773766289253 -13.934331453710383 113.66035301447282 0 0 -1 I I #
point $-1 78.538773766289253 -13.934331453710383 13.850194964490894 #
straight-curve $-1 78.538773766289239 -5.1066393791100104 5.7206325939678138 0 1 0 I I #
point $-1 78.538773766289253 -13.934331453710383 5.7206325939678209 #
point $-1 71.991807435237334 -10.213278758220021 7.6331083870537739 #
straight-curve $-1 78.538773766289253 6.4922260627296655 113.66035301447282 0 0 -1 I I #
point $-1 78.538773766289253 6.4922260627296655 13.850194964490894 #
straight-curve $-1 78.538773766289239 5.106639379110014 5.7206325939678138 0 1 0 I I #
point $-1 78.538773766289253 6.4922260627296655 5.7206325939678209 #
point $-1 71.991807435237334 10.213278758220028 7.6331083870537739 #
straight-curve $-1 -78.538773766289253 10.411879670727167 44.672243203664387 0 0 -1 I I #
point $-1 -78.538773766289253 10.411879670727167 13.850194964490894 #
straight-curve $-1 -78.538773766289253 1.4013353779822886 6.1060699833739118 0 -1 0 I I #
point $-1 -78.538773766289253 10.411879670727167 6.1060699833738941 #
point $-1 -72.124288880132582 -0.45841877893367666 7.4818096225481536 #
point $-1 -72.124288880132582 6.063760290862831 7.4818096225481536 #
straight-curve $-1 -50.838383837307468 -58.969635876070356 0 0 0 -1 I I #
point $-1 -50.838383837307468 -58.969635876070356 13.850194964490894 #
straight-curve $-1 -54.427464023561583 58.969635876070356 13.850194964490894 -1 0 0 I I #
End-of-ACIS-data 