500 0 7 0           
7 Unknown 11 ACIS 5.0 NT 24 Fri Mar 26 20:32:19 1999 
-1 9.9999999999999995e-007 1e-010 
body $-1 $7 $-1 $8 #
body $-1 $9 $-1 $10 #
body $-1 $11 $-1 $12 #
body $-1 $13 $-1 $14 #
body $-1 $15 $-1 $16 #
body $-1 $17 $-1 $18 #
body $-1 $19 $-1 $20 #
lump $-1 $-1 $21 $0 #
transform $-1 1 0 0 0 1 0 0 0 1 68.700827051606808 34.811256501539454 16.155622928350486 1 rotate no_reflect no_shear #
lump $-1 $-1 $22 $1 #
transform $-1 1 0 0 0 1 0 0 0 1 68.700827051606808 34.811256501539454 16.155622928350486 1 rotate no_reflect no_shear #
lump $-1 $-1 $23 $2 #
transform $-1 1 0 0 0 1 0 0 0 1 68.700827051606808 34.811256501539454 16.155622928350486 1 rotate no_reflect no_shear #
lump $-1 $-1 $24 $3 #
transform $-1 1 0 0 0 1 0 0 0 1 68.700827051606808 34.811256501539454 16.155622928350486 1 rotate no_reflect no_shear #
lump $-1 $-1 $25 $4 #
transform $-1 1 0 0 0 1 0 0 0 1 68.700827051606808 34.811256501539454 16.155622928350486 1 rotate no_reflect no_shear #
lump $-1 $-1 $26 $5 #
transform $-1 1 0 0 0 1 0 0 0 1 68.700827051606808 34.811256501539454 16.155622928350486 1 rotate no_reflect no_shear #
lump $-1 $-1 $27 $6 #
transform $-1 1 0 0 0 1 0 0 0 1 68.700827051606808 34.811256501539454 16.155622928350486 1 rotate no_reflect no_shear #
shell $-1 $-1 $-1 $28 $-1 $7 #
shell $-1 $-1 $-1 $29 $-1 $9 #
shell $-1 $-1 $-1 $30 $-1 $11 #
shell $-1 $-1 $-1 $31 $-1 $13 #
shell $-1 $-1 $-1 $32 $-1 $15 #
shell $-1 $-1 $-1 $33 $-1 $17 #
shell $-1 $-1 $-1 $34 $-1 $19 #
face $-1 $35 $36 $21 $-1 $37 forward single #
face $-1 $38 $39 $22 $-1 $40 reversed single #
face $-1 $41 $42 $23 $-1 $43 forward single #
face $-1 $44 $45 $24 $-1 $46 forward single #
face $-1 $47 $48 $25 $-1 $49 reversed single #
face $-1 $50 $51 $26 $-1 $52 forward single #
face $-1 $53 $54 $27 $-1 $55 forward single #
face $-1 $56 $57 $21 $-1 $58 reversed single #
loop $-1 $-1 $59 $28 #
plane-surface $-1 0 0 16.155622928350486 0 0 1 1 0 0 forward_v I I I I #
face $-1 $60 $61 $22 $-1 $62 reversed single #
loop $-1 $-1 $63 $29 #
plane-surface $-1 -63.624337267059524 61.898626410373289 160.74914315064959 1 0 0 0 -0.6018150307709319 -0.79863550430605224 forward_v I I I I #
face $-1 $64 $65 $23 $-1 $66 forward single #
loop $-1 $67 $68 $30 #
cone-surface $-1 -54.678664045222575 28.381025777932329 10.301381065962314 0 -0.6018150307709319 -0.79863550430605224 2 0 0 1 I I 0 1 2 forward I I I I #
face $-1 $69 $70 $24 $-1 $71 forward single #
loop $-1 $72 $73 $31 #
cone-surface $-1 -41.260154212467143 28.381025777932329 10.301381065962314 0 -0.6018150307709319 -0.79863550430605224 2 0 0 1 I I 0 1 2 forward I I I I #
face $-1 $74 $75 $25 $-1 $76 reversed single #
loop $-1 $-1 $77 $32 #
plane-surface $-1 5.0764897845472845 61.898626410373289 160.74914315064959 1 0 0 0 -0.6018150307709319 -0.79863550430605224 forward_v I I I I #
face $-1 $78 $79 $26 $-1 $80 forward single #
loop $-1 $81 $82 $33 #
cone-surface $-1 14.022163006384233 28.381025777932329 10.301381065962314 0 -0.6018150307709319 -0.79863550430605224 2 0 0 1 I I 0 1 2 forward I I I I #
face $-1 $83 $84 $27 $-1 $85 forward single #
loop $-1 $86 $87 $34 #
cone-surface $-1 27.440672839139665 28.381025777932329 10.301381065962314 0 -0.6018150307709319 -0.79863550430605224 2 0 0 1 I I 0 1 2 forward I I I I #
face $-1 $88 $89 $21 $-1 $90 reversed single #
loop $-1 $-1 $91 $35 #
plane-surface $-1 0 0 -16.155622928350486 0 0 1 1 0 0 forward_v I I I I #
coedge $-1 $92 $93 $94 $95 forward $36 $-1 #
face $-1 $96 $97 $22 $-1 $98 reversed single #
loop $-1 $-1 $99 $38 #
plane-surface $-1 -47.969409128844859 -20.791754281729162 51.015303833443824 0 0.6018150307709319 0.79863550430605224 1 0 0 forward_v I I I I #
coedge $-1 $100 $101 $102 $103 reversed $39 $-1 #
face $-1 $-1 $104 $23 $-1 $105 forward single #
loop $-1 $106 $107 $41 #
cone-surface $-1 -54.678664045222575 26.020306360069512 7.1686006493701875 0 -0.6018150307709319 -0.79863550430605224 1 0 0 1 I I -0.70710678118654746 0.70710678118654746 1 forward I I I I #
loop $-1 $-1 $108 $30 #
coedge $-1 $68 $68 $109 $110 reversed $42 $-1 #
face $-1 $-1 $111 $24 $-1 $112 forward single #
loop $-1 $113 $114 $44 #
cone-surface $-1 -41.260154212467143 26.020306360069512 7.1686006493701875 0 -0.6018150307709319 -0.79863550430605224 1 0 0 1 I I -0.70710678118654746 0.70710678118654746 1 forward I I I I #
loop $-1 $-1 $115 $31 #
coedge $-1 $73 $73 $116 $117 reversed $45 $-1 #
face $-1 $118 $119 $25 $-1 $120 reversed single #
loop $-1 $-1 $121 $47 #
plane-surface $-1 20.731417922761949 -20.791754281729162 51.015303833443824 0 0.6018150307709319 0.79863550430605224 1 0 0 forward_v I I I I #
coedge $-1 $122 $123 $124 $125 reversed $48 $-1 #
face $-1 $-1 $126 $26 $-1 $127 forward single #
loop $-1 $128 $129 $50 #
cone-surface $-1 14.022163006384233 26.020306360069512 7.1686006493701875 0 -0.6018150307709319 -0.79863550430605224 1 0 0 1 I I -0.70710678118654746 0.70710678118654746 1 forward I I I I #
loop $-1 $-1 $130 $33 #
coedge $-1 $82 $82 $131 $132 reversed $51 $-1 #
face $-1 $-1 $133 $27 $-1 $134 forward single #
loop $-1 $135 $136 $53 #
cone-surface $-1 27.440672839139665 26.020306360069512 7.1686006493701875 0 -0.6018150307709319 -0.79863550430605224 1 0 0 1 I I -0.70710678118654746 0.70710678118654746 1 forward I I I I #
loop $-1 $-1 $137 $34 #
coedge $-1 $87 $87 $138 $139 reversed $54 $-1 #
face $-1 $140 $141 $21 $-1 $142 reversed single #
loop $-1 $-1 $143 $56 #
plane-surface $-1 0 -34.811256501539454 0 0 1 0 0 0 1 forward_v I I I I #
coedge $-1 $144 $145 $146 $147 forward $57 $-1 #
coedge $-1 $148 $59 $149 $150 forward $36 $-1 #
coedge $-1 $59 $148 $151 $152 forward $36 $-1 #
coedge $-1 $153 $154 $59 $95 reversed $155 $-1 #
edge $-1 $156 -34.811256501539454 $157 34.811256501539454 $94 $158 forward 7 unknown #
face $-1 $159 $160 $22 $-1 $161 reversed single #
loop $-1 $-1 $162 $60 #
plane-surface $-1 -32.314480990630194 61.898626410373289 160.74914315064959 -1 0 0 0 0.6018150307709319 0.79863550430605224 forward_v I I I I #
coedge $-1 $163 $164 $165 $166 reversed $61 $-1 #
coedge $-1 $101 $63 $167 $168 reversed $39 $-1 #
coedge $-1 $63 $100 $163 $169 reversed $39 $-1 #
coedge $-1 $165 $170 $63 $103 forward $171 $-1 #
edge $-1 $172 -3.8619432963528091 $173 5.4807093766776909 $102 $174 forward 7 unknown #
loop $-1 $-1 $109 $64 #
plane-surface $-1 -47.969409128844859 -20.791754281729162 51.015303833443824 0 0.6018150307709319 0.79863550430605224 1 0 0 forward_v I I I I #
loop $-1 $-1 $175 $41 #
coedge $-1 $107 $107 $108 $176 reversed $65 $-1 #
coedge $-1 $108 $108 $107 $176 forward $67 $-1 #
coedge $-1 $109 $109 $68 $110 forward $104 $-1 #
edge $-1 $177 5.1435105991241275e-016 $177 6.2831853071796013 $109 $178 forward 7 unknown #
loop $-1 $-1 $116 $69 #
plane-surface $-1 -47.969409128844859 -20.791754281729162 51.015303833443824 0 0.6018150307709319 0.79863550430605224 1 0 0 forward_v I I I I #
loop $-1 $-1 $179 $44 #
coedge $-1 $114 $114 $115 $180 reversed $70 $-1 #
coedge $-1 $115 $115 $114 $180 forward $72 $-1 #
coedge $-1 $116 $116 $73 $117 forward $111 $-1 #
edge $-1 $181 5.1435105991241275e-016 $181 6.2831853071796013 $116 $182 forward 7 unknown #
face $-1 $183 $184 $25 $-1 $185 forward single #
loop $-1 $-1 $186 $74 #
plane-surface $-1 36.386346060976614 61.898626410373289 160.74914315064959 -1 0 0 0 0.6018150307709319 0.79863550430605224 forward_v I I I I #
coedge $-1 $187 $188 $189 $190 reversed $75 $-1 #
coedge $-1 $123 $77 $191 $192 reversed $48 $-1 #
coedge $-1 $77 $122 $187 $193 reversed $48 $-1 #
coedge $-1 $189 $194 $77 $125 forward $184 $-1 #
edge $-1 $195 -3.8619432963528091 $196 5.4807093766776909 $124 $197 forward 7 unknown #
loop $-1 $-1 $131 $78 #
plane-surface $-1 20.731417922761949 -20.791754281729162 51.015303833443824 0 0.6018150307709319 0.79863550430605224 1 0 0 forward_v I I I I #
loop $-1 $-1 $198 $50 #
coedge $-1 $129 $129 $130 $199 reversed $79 $-1 #
coedge $-1 $130 $130 $129 $199 forward $81 $-1 #
coedge $-1 $131 $131 $82 $132 forward $126 $-1 #
edge $-1 $200 5.1435105991241275e-016 $200 6.2831853071796013 $131 $201 forward 7 unknown #
loop $-1 $-1 $138 $83 #
plane-surface $-1 20.731417922761949 -20.791754281729162 51.015303833443824 0 0.6018150307709319 0.79863550430605224 1 0 0 forward_v I I I I #
loop $-1 $-1 $202 $53 #
coedge $-1 $136 $136 $137 $203 reversed $84 $-1 #
coedge $-1 $137 $137 $136 $203 forward $86 $-1 #
coedge $-1 $138 $138 $87 $139 forward $133 $-1 #
edge $-1 $204 5.1435105991241275e-016 $204 6.2831853071796013 $138 $205 forward 7 unknown #
face $-1 $206 $207 $21 $-1 $208 reversed single #
loop $-1 $-1 $209 $88 #
plane-surface $-1 -68.700827051606808 0 0 1 0 0 0 0 -1 forward_v I I I I #
coedge $-1 $210 $151 $211 $212 forward $89 $-1 #
coedge $-1 $213 $91 $210 $214 forward $57 $-1 #
coedge $-1 $91 $213 $215 $216 forward $57 $-1 #
coedge $-1 $154 $153 $91 $147 reversed $155 $-1 #
edge $-1 $217 -34.811256501539454 $218 34.811256501539454 $146 $219 forward 7 unknown #
coedge $-1 $93 $92 $220 $221 forward $36 $-1 #
coedge $-1 $222 $223 $92 $150 reversed $207 $-1 #
edge $-1 $157 -68.700827051606808 $224 68.700827051606808 $149 $225 forward 7 unknown #
coedge $-1 $143 $226 $93 $152 reversed $89 $-1 #
edge $-1 $227 -68.700827051606808 $156 68.700827051606808 $151 $228 forward 7 unknown #
coedge $-1 $146 $94 $226 $229 forward $155 $-1 #
coedge $-1 $94 $146 $222 $230 reversed $155 $-1 #
loop $-1 $-1 $153 $206 #
vertex $-1 $95 $231 #
vertex $-1 $95 $232 #
straight-curve $-1 68.700827051606808 0 16.155622928350486 0 1 0 I I #
face $-1 $-1 $171 $22 $-1 $233 forward single #
loop $-1 $-1 $234 $96 #
plane-surface $-1 0 34.811256501539454 0 0 -1 0 0 0 -1 forward_v I I I I #
coedge $-1 $235 $236 $237 $238 reversed $97 $-1 #
coedge $-1 $239 $99 $101 $169 forward $61 $-1 #
coedge $-1 $99 $239 $235 $240 forward $61 $-1 #
coedge $-1 $237 $102 $99 $166 forward $171 $-1 #
edge $-1 $173 -39.639632702637094 $241 -8.3297764262077649 $165 $242 forward 7 unknown #
coedge $-1 $243 $244 $100 $168 forward $160 $-1 #
edge $-1 $245 -71.259142547178527 $172 -64.218948646974312 $167 $246 forward 7 unknown #
edge $-1 $173 57.924244365312205 $245 69.622513003078936 $101 $247 forward 7 unknown #
coedge $-1 $102 $237 $243 $248 forward $171 $-1 #
loop $-1 $-1 $237 $159 #
vertex $-1 $168 $249 #
vertex $-1 $103 $250 #
straight-curve $-1 -63.624337267059524 30.949313205186645 16.155622928350482 0 -1 0 I I #
coedge $-1 $175 $175 $-1 $251 reversed $106 $-1 #
edge $-1 $252 0 $252 6.2831853071796004 $107 $253 forward 7 unknown #
vertex $-1 $110 $254 #
ellipse-curve $-1 -54.678664045222575 30.139930165024207 12.635525978248372 0 0.6018150307709319 0.79863550430605224 2 0 0 1 I I #
coedge $-1 $179 $179 $-1 $255 reversed $113 $-1 #
edge $-1 $256 0 $256 6.2831853071796004 $114 $257 forward 7 unknown #
vertex $-1 $117 $258 #
ellipse-curve $-1 -41.260154212467143 30.139930165024207 12.635525978248372 0 0.6018150307709319 0.79863550430605224 2 0 0 1 I I #
face $-1 $-1 $259 $25 $-1 $260 reversed single #
loop $-1 $-1 $124 $118 #
plane-surface $-1 0 0 16.155622928350486 0 0 1 1 0 0 forward_v I I I I #
coedge $-1 $261 $262 $263 $264 reversed $119 $-1 #
coedge $-1 $265 $121 $123 $193 forward $75 $-1 #
coedge $-1 $121 $265 $261 $266 forward $75 $-1 #
coedge $-1 $263 $124 $121 $190 forward $184 $-1 #
edge $-1 $196 -5.28921917683369 $267 26.020637099595639 $189 $268 forward 7 unknown #
coedge $-1 $269 $270 $122 $192 forward $259 $-1 #
edge $-1 $271 -71.259142547178527 $195 -64.218948646974312 $191 $272 forward 7 unknown #
edge $-1 $196 57.924244365312205 $271 69.622513003078936 $123 $273 forward 7 unknown #
coedge $-1 $124 $263 $269 $274 forward $184 $-1 #
vertex $-1 $125 $275 #
vertex $-1 $125 $276 #
straight-curve $-1 5.0764897845472845 30.949313205186645 16.155622928350482 0 -1 0 I I #
coedge $-1 $198 $198 $-1 $277 reversed $128 $-1 #
edge $-1 $278 0 $278 6.2831853071796004 $129 $279 forward 7 unknown #
vertex $-1 $132 $280 #
ellipse-curve $-1 14.022163006384233 30.139930165024207 12.635525978248372 0 0.6018150307709319 0.79863550430605224 2 0 0 1 I I #
coedge $-1 $202 $202 $-1 $281 reversed $135 $-1 #
edge $-1 $282 0 $282 6.2831853071796004 $136 $283 forward 7 unknown #
vertex $-1 $139 $284 #
ellipse-curve $-1 27.440672839139665 30.139930165024207 12.635525978248372 0 0.6018150307709319 0.79863550430605224 2 0 0 1 I I #
face $-1 $-1 $155 $21 $-1 $285 reversed single #
loop $-1 $-1 $222 $140 #
plane-surface $-1 0 34.811256501539454 0 0 -1 0 0 0 -1 forward_v I I I I #
coedge $-1 $286 $220 $223 $287 forward $141 $-1 #
coedge $-1 $226 $143 $144 $214 reversed $89 $-1 #
coedge $-1 $220 $286 $143 $212 reversed $141 $-1 #
edge $-1 $227 -16.155622928350486 $288 16.155622928350486 $211 $289 forward 7 unknown #
coedge $-1 $145 $144 $286 $290 forward $57 $-1 #
edge $-1 $218 -68.700827051606808 $288 68.700827051606808 $210 $291 forward 7 unknown #
coedge $-1 $223 $222 $145 $216 reversed $207 $-1 #
edge $-1 $292 -68.700827051606808 $217 68.700827051606808 $215 $293 forward 7 unknown #
vertex $-1 $147 $294 #
vertex $-1 $229 $295 #
straight-curve $-1 68.700827051606808 0 -16.155622928350486 0 -1 0 I I #
coedge $-1 $209 $211 $148 $221 reversed $141 $-1 #
edge $-1 $224 -34.811256501539454 $227 34.811256501539454 $220 $296 forward 7 unknown #
coedge $-1 $215 $149 $154 $230 forward $207 $-1 #
coedge $-1 $149 $215 $209 $287 reversed $207 $-1 #
vertex $-1 $150 $297 #
straight-curve $-1 0 34.811256501539454 16.155622928350486 -1 0 0 I I #
coedge $-1 $151 $210 $153 $229 reversed $89 $-1 #
vertex $-1 $221 $298 #
straight-curve $-1 0 -34.811256501539454 16.155622928350486 1 0 0 I I #
edge $-1 $156 -16.155622928350486 $218 16.155622928350486 $153 $299 forward 7 unknown #
edge $-1 $157 -16.155622928350486 $217 16.155622928350486 $154 $300 forward 7 unknown #
point $-1 68.700827051606808 -34.811256501539454 16.155622928350486 #
point $-1 68.700827051606808 34.811256501539454 16.155622928350486 #
plane-surface $-1 0 0 16.155622928350486 0 0 1 1 0 0 forward_v I I I I #
coedge $-1 $244 $243 $236 $301 forward $160 $-1 #
coedge $-1 $236 $162 $164 $240 reversed $97 $-1 #
coedge $-1 $162 $235 $234 $301 reversed $97 $-1 #
coedge $-1 $170 $165 $162 $238 forward $171 $-1 #
edge $-1 $241 -5.4807093766776909 $302 3.8619432963528091 $237 $303 forward 7 unknown #
coedge $-1 $164 $163 $244 $304 reversed $61 $-1 #
edge $-1 $305 -69.622513003078936 $241 -57.924244365312205 $235 $306 forward 7 unknown #
vertex $-1 $166 $307 #
straight-curve $-1 -23.984704564422429 25.468603828508954 16.155622928350486 1 0 0 I I #
coedge $-1 $234 $167 $170 $248 reversed $160 $-1 #
coedge $-1 $167 $234 $239 $304 forward $160 $-1 #
vertex $-1 $168 $308 #
straight-curve $-1 -63.624337267059524 34.811256501539454 80.374571575324794 0 0 1 I I #
straight-curve $-1 -63.624337267059524 -20.791754281729162 51.015303833443824 0 0.79863550430605224 -0.6018150307709319 I I #
edge $-1 $302 32.314480990630194 $172 63.624337267059524 $243 $309 forward 7 unknown #
point $-1 -63.624337267059524 34.811256501539454 16.155622928350486 #
point $-1 -63.624337267059524 25.468603828508954 16.155622928350482 #
edge $-1 $310 1 $310 0 $175 $-1 forward 7 unknown #
vertex $-1 $176 $311 #
ellipse-curve $-1 -54.678664045222575 26.622121390840444 7.9672361536762395 0 0.6018150307709319 0.79863550430605224 2 0 0 1 I I #
point $-1 -52.678664045222575 30.139930165024218 12.635525978248385 #
edge $-1 $312 1 $312 0 $179 $-1 forward 7 unknown #
vertex $-1 $180 $313 #
ellipse-curve $-1 -41.260154212467143 26.622121390840444 7.9672361536762395 0 0.6018150307709319 0.79863550430605224 2 0 0 1 I I #
point $-1 -39.260154212467143 30.139930165024218 12.635525978248385 #
loop $-1 $-1 $191 $183 #
plane-surface $-1 0 34.811256501539454 0 0 -1 0 0 0 -1 forward_v I I I I #
coedge $-1 $262 $186 $188 $266 reversed $119 $-1 #
coedge $-1 $186 $261 $314 $315 reversed $119 $-1 #
coedge $-1 $194 $189 $186 $264 forward $184 $-1 #
edge $-1 $267 -5.4807093766776909 $316 3.8619432963528091 $263 $317 forward 7 unknown #
coedge $-1 $188 $187 $270 $318 reversed $75 $-1 #
edge $-1 $319 -69.622513003078936 $267 -57.924244365312205 $261 $320 forward 7 unknown #
vertex $-1 $190 $321 #
straight-curve $-1 10.365708961380975 25.468603828508954 16.155622928350486 1 0 0 I I #
coedge $-1 $314 $191 $194 $274 reversed $259 $-1 #
coedge $-1 $191 $314 $265 $318 forward $259 $-1 #
vertex $-1 $192 $322 #
straight-curve $-1 5.0764897845472845 34.811256501539454 80.374571575324794 0 0 1 I I #
straight-curve $-1 5.0764897845472845 -20.791754281729162 51.015303833443824 0 0.79863550430605224 -0.6018150307709319 I I #
edge $-1 $316 -36.386346060976614 $195 -5.0764897845472845 $269 $323 forward 7 unknown #
point $-1 5.0764897845472845 34.811256501539454 16.155622928350486 #
point $-1 5.0764897845472845 25.468603828508954 16.155622928350482 #
edge $-1 $324 1 $324 0 $198 $-1 forward 7 unknown #
vertex $-1 $199 $325 #
ellipse-curve $-1 14.022163006384233 26.622121390840444 7.9672361536762395 0 0.6018150307709319 0.79863550430605224 2 0 0 1 I I #
point $-1 16.022163006384233 30.139930165024218 12.635525978248385 #
edge $-1 $326 1 $326 0 $202 $-1 forward 7 unknown #
vertex $-1 $203 $327 #
ellipse-curve $-1 27.440672839139665 26.622121390840444 7.9672361536762395 0 0.6018150307709319 0.79863550430605224 2 0 0 1 I I #
point $-1 29.440672839139665 30.139930165024218 12.635525978248385 #
plane-surface $-1 68.700827051606808 0 0 -1 0 0 0 0 1 forward_v I I I I #
coedge $-1 $211 $209 $213 $290 reversed $141 $-1 #
edge $-1 $224 -16.155622928350486 $292 16.155622928350486 $223 $328 forward 7 unknown #
vertex $-1 $290 $329 #
straight-curve $-1 -68.700827051606808 -34.811256501539454 0 0 0 -1 I I #
edge $-1 $288 -34.811256501539454 $292 34.811256501539454 $286 $330 forward 7 unknown #
straight-curve $-1 0 -34.811256501539454 -16.155622928350486 -1 0 0 I I #
vertex $-1 $216 $331 #
straight-curve $-1 0 34.811256501539454 -16.155622928350486 1 0 0 I I #
point $-1 68.700827051606808 34.811256501539454 -16.155622928350486 #
point $-1 68.700827051606808 -34.811256501539454 -16.155622928350486 #
straight-curve $-1 -68.700827051606808 0 16.155622928350486 0 -1 0 I I #
point $-1 -68.700827051606808 34.811256501539454 16.155622928350486 #
point $-1 -68.700827051606808 -34.811256501539454 16.155622928350486 #
straight-curve $-1 68.700827051606808 -34.811256501539454 0 0 0 -1 I I #
straight-curve $-1 68.700827051606808 34.811256501539454 0 0 0 -1 I I #
edge $-1 $302 64.218948646974312 $305 71.259142547178527 $234 $332 forward 7 unknown #
vertex $-1 $248 $333 #
straight-curve $-1 -32.314480990630194 30.949313205186645 16.155622928350482 0 1 0 I I #
edge $-1 $305 8.3297764262077649 $245 39.639632702637094 $244 $334 forward 7 unknown #
vertex $-1 $304 $335 #
straight-curve $-1 -32.314480990630194 -20.791754281729162 51.015303833443824 0 -0.79863550430605224 0.6018150307709319 I I #
point $-1 -32.314480990630194 25.468603828508954 16.155622928350482 #
point $-1 -63.624337267059524 34.811256501539454 9.1154290281462735 #
straight-curve $-1 0 34.811256501539454 16.155622928350486 -1 0 0 I I #
vertex $-1 $251 $336 #
point $-1 -52.678664045222575 26.622121390840444 7.9672361536762395 #
vertex $-1 $255 $337 #
point $-1 -39.260154212467143 26.622121390840444 7.9672361536762395 #
coedge $-1 $270 $269 $262 $315 forward $259 $-1 #
edge $-1 $316 64.218948646974312 $319 71.259142547178527 $314 $338 forward 7 unknown #
vertex $-1 $274 $339 #
straight-curve $-1 36.386346060976614 30.949313205186645 16.155622928350482 0 1 0 I I #
edge $-1 $319 -26.020637099595639 $271 5.28921917683369 $270 $340 forward 7 unknown #
vertex $-1 $318 $341 #
straight-curve $-1 36.386346060976614 -20.791754281729162 51.015303833443824 0 -0.79863550430605224 0.6018150307709319 I I #
point $-1 36.386346060976614 25.468603828508954 16.155622928350482 #
point $-1 5.0764897845472845 34.811256501539454 9.1154290281462735 #
straight-curve $-1 0 34.811256501539454 16.155622928350486 -1 0 0 I I #
vertex $-1 $277 $342 #
point $-1 16.022163006384233 26.622121390840444 7.9672361536762395 #
vertex $-1 $281 $343 #
point $-1 29.440672839139665 26.622121390840444 7.9672361536762395 #
straight-curve $-1 -68.700827051606808 34.811256501539454 0 0 0 -1 I I #
point $-1 -68.700827051606808 -34.811256501539454 -16.155622928350486 #
straight-curve $-1 -68.700827051606808 0 -16.155622928350486 0 1 0 I I #
point $-1 -68.700827051606808 34.811256501539454 -16.155622928350486 #
straight-curve $-1 -32.314480990630194 34.811256501539454 80.374571575324794 0 0 -1 I I #
point $-1 -32.314480990630194 34.811256501539454 16.155622928350486 #
straight-curve $-1 -23.984704564422429 34.811256501539454 9.1154290281462771 -1 0 0 I I #
point $-1 -32.314480990630194 34.811256501539454 9.1154290281462735 #
point $-1 -54.678664045222575 25.418491329298579 6.3699651450641355 #
point $-1 -41.260154212467143 25.418491329298579 6.3699651450641355 #
straight-curve $-1 36.386346060976614 34.811256501539454 80.374571575324794 0 0 -1 I I #
point $-1 36.386346060976614 34.811256501539454 16.155622928350486 #
straight-curve $-1 10.365708961380975 34.811256501539454 9.1154290281462771 -1 0 0 I I #
point $-1 36.386346060976614 34.811256501539454 9.1154290281462735 #
point $-1 14.022163006384233 25.418491329298579 6.3699651450641355 #
point $-1 27.440672839139665 25.418491329298579 6.3699651450641355 #
End-of-ACIS-data 