500 0 13 0           
7 Unknown 11 ACIS 5.0 NT 24 Thu Mar 25 15:36:11 1999 
-1 9.9999999999999995e-007 1e-010 
body $-1 $13 $-1 $14 #
body $-1 $15 $-1 $16 #
body $-1 $17 $-1 $18 #
body $-1 $19 $-1 $20 #
body $-1 $21 $-1 $22 #
body $-1 $23 $-1 $24 #
body $-1 $25 $-1 $26 #
body $-1 $27 $-1 $28 #
body $-1 $29 $-1 $30 #
body $-1 $31 $-1 $32 #
body $-1 $33 $-1 $34 #
body $-1 $35 $-1 $36 #
body $-1 $37 $-1 $38 #
lump $-1 $-1 $39 $0 #
transform $-1 1 0 0 0 1 0 0 0 1 49.209265419476914 22.811791709409725 6.2603459507338481 1 rotate no_reflect no_shear #
lump $-1 $-1 $40 $1 #
transform $-1 1 0 0 0 1 0 0 0 1 49.209265419476914 22.811791709409725 6.2603459507338481 1 rotate no_reflect no_shear #
lump $-1 $-1 $41 $2 #
transform $-1 1 0 0 0 1 0 0 0 1 49.209265419476914 22.811791709409725 6.2603459507338481 1 rotate no_reflect no_shear #
lump $-1 $-1 $42 $3 #
transform $-1 1 0 0 0 1 0 0 0 1 49.209265419476914 22.811791709409725 6.2603459507338481 1 rotate no_reflect no_shear #
lump $-1 $-1 $43 $4 #
transform $-1 1 0 0 0 1 0 0 0 1 49.209265419476914 22.811791709409725 6.2603459507338481 1 rotate no_reflect no_shear #
lump $-1 $-1 $44 $5 #
transform $-1 1 0 0 0 1 0 0 0 1 49.209265419476914 22.811791709409725 6.2603459507338481 1 rotate no_reflect no_shear #
lump $-1 $-1 $45 $6 #
transform $-1 1 0 0 0 1 0 0 0 1 49.209265419476914 22.811791709409725 6.2603459507338481 1 rotate no_reflect no_shear #
lump $-1 $-1 $46 $7 #
transform $-1 1 0 0 0 1 0 0 0 1 49.209265419476914 22.811791709409725 6.2603459507338481 1 rotate no_reflect no_shear #
lump $-1 $-1 $47 $8 #
transform $-1 1 0 0 0 1 0 0 0 1 49.209265419476914 22.811791709409725 6.2603459507338481 1 rotate no_reflect no_shear #
lump $-1 $-1 $48 $9 #
transform $-1 1 0 0 0 1 0 0 0 1 49.209265419476914 22.811791709409725 6.2603459507338481 1 rotate no_reflect no_shear #
lump $-1 $-1 $49 $10 #
transform $-1 1 0 0 0 1 0 0 0 1 49.209265419476914 22.811791709409725 6.2603459507338481 1 rotate no_reflect no_shear #
lump $-1 $-1 $50 $11 #
transform $-1 1 0 0 0 1 0 0 0 1 49.209265419476914 22.811791709409725 6.2603459507338481 1 rotate no_reflect no_shear #
lump $-1 $-1 $51 $12 #
transform $-1 1 0 0 0 1 0 0 0 1 49.209265419476914 22.811791709409725 6.2603459507338481 1 rotate no_reflect no_shear #
shell $-1 $-1 $-1 $52 $-1 $13 #
shell $-1 $-1 $-1 $53 $-1 $15 #
shell $-1 $-1 $-1 $54 $-1 $17 #
shell $-1 $-1 $-1 $55 $-1 $19 #
shell $-1 $-1 $-1 $56 $-1 $21 #
shell $-1 $-1 $-1 $57 $-1 $23 #
shell $-1 $-1 $-1 $58 $-1 $25 #
shell $-1 $-1 $-1 $59 $-1 $27 #
shell $-1 $-1 $-1 $60 $-1 $29 #
shell $-1 $-1 $-1 $61 $-1 $31 #
shell $-1 $-1 $-1 $62 $-1 $33 #
shell $-1 $-1 $-1 $63 $-1 $35 #
shell $-1 $-1 $-1 $64 $-1 $37 #
face $-1 $65 $66 $39 $-1 $67 forward single #
face $-1 $68 $69 $40 $-1 $70 forward single #
face $-1 $71 $72 $41 $-1 $73 reversed single #
face $-1 $74 $75 $42 $-1 $76 forward single #
face $-1 $77 $78 $43 $-1 $79 forward single #
face $-1 $80 $81 $44 $-1 $82 reversed single #
face $-1 $83 $84 $45 $-1 $85 forward single #
face $-1 $86 $87 $46 $-1 $88 forward single #
face $-1 $89 $90 $47 $-1 $91 forward single #
face $-1 $92 $93 $48 $-1 $94 reversed single #
face $-1 $95 $96 $49 $-1 $97 forward single #
face $-1 $98 $99 $50 $-1 $100 forward single #
face $-1 $101 $102 $51 $-1 $103 forward single #
face $-1 $104 $105 $39 $-1 $106 reversed single #
loop $-1 $-1 $107 $52 #
plane-surface $-1 0 0 6.2603459507338481 0 0 1 1 0 0 forward_v I I I I #
face $-1 $108 $109 $40 $-1 $110 forward single #
loop $-1 $-1 $111 $53 #
plane-surface $-1 0 -22.811791709409725 0 0 1 0 0 0 1 forward_v I I I I #
face $-1 $112 $113 $41 $-1 $114 reversed single #
loop $-1 $-1 $115 $54 #
plane-surface $-1 22.651550731205397 13.701461665797062 139.08905738346331 0 1 0 0.55919291073839883 0 0.82903756765294845 forward_v I I I I #
face $-1 $116 $117 $42 $-1 $118 forward single #
loop $-1 $119 $120 $55 #
cone-surface $-1 46.079705838289804 16.304413106829251 3.8960950893619382 -0.55919291073839883 0 -0.82903756765294845 0.82903756765294845 0 -0.55919291073839883 1 I I 0 1 1 forward I I I I #
face $-1 $121 $122 $43 $-1 $123 forward single #
loop $-1 $124 $125 $56 #
cone-surface $-1 46.079705838289804 20.208840268377536 3.8960950893619382 -0.55919291073839883 0 -0.82903756765294845 0.82903756765294845 0 -0.55919291073839883 1 I I 0 1 1 forward I I I I #
face $-1 $126 $127 $44 $-1 $128 reversed single #
loop $-1 $-1 $129 $57 #
plane-surface $-1 -115.06411742872223 -7.8149063685295683 75.432617427178869 0 1 0 -0.66913061440640931 0 0.74314481823134659 forward_v I I I I #
face $-1 $130 $131 $45 $-1 $132 forward single #
loop $-1 $133 $134 $58 #
cone-surface $-1 -46.67182814984865 -6.2352782629544343 3.9052986743854179 0.66913061440640931 0 -0.74314481823134659 0.3715724091156733 0 0.33456530720320465 1 I I 0 1 0.5 forward I I I I #
face $-1 $135 $136 $46 $-1 $137 forward single #
loop $-1 $138 $139 $59 #
cone-surface $-1 -46.67182814984865 -3.865836104591736 3.9052986743854179 0.66913061440640931 0 -0.74314481823134659 0.3715724091156733 0 0.33456530720320465 1 I I 0 1 0.5 forward I I I I #
face $-1 $140 $141 $47 $-1 $142 forward single #
loop $-1 $143 $144 $60 #
cone-surface $-1 -46.67182814984865 -1.4963939462290377 3.9052986743854179 0.66913061440640931 0 -0.74314481823134659 0.3715724091156733 0 0.33456530720320465 1 I I 0 1 0.5 forward I I I I #
face $-1 $145 $146 $48 $-1 $147 reversed single #
loop $-1 $-1 $148 $61 #
plane-surface $-1 -115.06411742872223 11.182885111769922 75.432617427178869 0 1 0 -0.66913061440640931 0 0.74314481823134659 forward_v I I I I #
face $-1 $149 $150 $49 $-1 $151 forward single #
loop $-1 $152 $153 $62 #
cone-surface $-1 -46.67182814984865 12.762513217345052 3.9052986743854179 0.66913061440640931 0 -0.74314481823134659 0.3715724091156733 0 0.33456530720320465 1 I I 0 1 0.5 forward I I I I #
face $-1 $154 $155 $50 $-1 $156 forward single #
loop $-1 $157 $158 $63 #
cone-surface $-1 -46.67182814984865 15.131955375707754 3.9052986743854179 0.66913061440640931 0 -0.74314481823134659 0.3715724091156733 0 0.33456530720320465 1 I I 0 1 0.5 forward I I I I #
face $-1 $159 $160 $51 $-1 $161 forward single #
loop $-1 $162 $163 $64 #
cone-surface $-1 -46.67182814984865 17.501397534070456 3.9052986743854179 0.66913061440640931 0 -0.74314481823134659 0.3715724091156733 0 0.33456530720320465 1 I I 0 1 0.5 forward I I I I #
face $-1 $164 $165 $39 $-1 $166 reversed single #
loop $-1 $-1 $167 $65 #
plane-surface $-1 0 0 -6.2603459507338481 0 0 1 1 0 0 forward_v I I I I #
coedge $-1 $168 $169 $170 $171 forward $66 $-1 #
face $-1 $172 $173 $40 $-1 $174 reversed single #
loop $-1 $-1 $175 $68 #
plane-surface $-1 0 0 6.2603459507338481 0 0 1 1 0 0 forward_v I I I I #
coedge $-1 $176 $177 $178 $179 forward $69 $-1 #
face $-1 $180 $181 $41 $-1 $182 reversed single #
loop $-1 $-1 $183 $71 #
plane-surface $-1 -32.383393999226065 18.256626687603394 57.496397964760334 0.55919291073839883 0 0.82903756765294845 0.82903756765294845 0 -0.55919291073839883 forward_v I I I I #
coedge $-1 $184 $185 $186 $187 reversed $72 $-1 #
face $-1 $-1 $188 $42 $-1 $189 forward single #
loop $-1 $190 $191 $74 #
cone-surface $-1 45.486594780937658 16.304413106829251 3.0167718023660459 -0.55919291073839883 0 -0.82903756765294845 0.41451878382647422 0 -0.27959645536919941 1 I I -0.70710678118654746 0.70710678118654746 0.5 forward I I I I #
loop $-1 $-1 $192 $55 #
coedge $-1 $120 $120 $193 $194 reversed $75 $-1 #
face $-1 $-1 $195 $43 $-1 $196 forward single #
loop $-1 $197 $198 $77 #
cone-surface $-1 45.486594780937658 20.208840268377536 3.0167718023660459 -0.55919291073839883 0 -0.82903756765294845 0.41451878382647422 0 -0.27959645536919941 1 I I -0.70710678118654746 0.70710678118654746 0.5 forward I I I I #
loop $-1 $-1 $199 $56 #
coedge $-1 $125 $125 $200 $201 reversed $78 $-1 #
face $-1 $202 $203 $44 $-1 $204 reversed single #
loop $-1 $-1 $205 $80 #
plane-surface $-1 -49.209265419476907 -3.865836104591736 2.2933962162683486 -0.66913061440640931 0 0.74314481823134659 0.74314481823134659 0 0.66913061440640931 forward_v I I I I #
coedge $-1 $206 $207 $208 $209 reversed $81 $-1 #
face $-1 $-1 $210 $45 $-1 $211 forward single #
loop $-1 $212 $213 $83 #
cone-surface $-1 -46.169980189043841 -6.2352782629544343 3.3479400607119079 0.66913061440640931 0 -0.74314481823134659 0.18578620455783665 0 0.16728265360160233 1 I I -0.70710678118654746 0.70710678118654746 0.25 forward I I I I #
loop $-1 $-1 $214 $58 #
coedge $-1 $134 $134 $215 $216 reversed $84 $-1 #
face $-1 $-1 $217 $46 $-1 $218 forward single #
loop $-1 $219 $220 $86 #
cone-surface $-1 -46.169980189043841 -3.865836104591736 3.3479400607119079 0.66913061440640931 0 -0.74314481823134659 0.18578620455783665 0 0.16728265360160233 1 I I -0.70710678118654746 0.70710678118654746 0.25 forward I I I I #
loop $-1 $-1 $221 $59 #
coedge $-1 $139 $139 $222 $223 reversed $87 $-1 #
face $-1 $-1 $224 $47 $-1 $225 forward single #
loop $-1 $226 $227 $89 #
cone-surface $-1 -46.169980189043841 -1.4963939462290377 3.3479400607119079 0.66913061440640931 0 -0.74314481823134659 0.18578620455783665 0 0.16728265360160233 1 I I -0.70710678118654746 0.70710678118654746 0.25 forward I I I I #
loop $-1 $-1 $228 $60 #
coedge $-1 $144 $144 $229 $230 reversed $90 $-1 #
face $-1 $231 $232 $48 $-1 $233 reversed single #
loop $-1 $-1 $234 $92 #
plane-surface $-1 -49.209265419476907 15.131955375707754 2.2933962162683486 -0.66913061440640931 0 0.74314481823134659 0.74314481823134659 0 0.66913061440640931 forward_v I I I I #
coedge $-1 $235 $236 $237 $238 reversed $93 $-1 #
face $-1 $-1 $239 $49 $-1 $240 forward single #
loop $-1 $241 $242 $95 #
cone-surface $-1 -46.169980189043841 12.762513217345052 3.3479400607119079 0.66913061440640931 0 -0.74314481823134659 0.18578620455783665 0 0.16728265360160233 1 I I -0.70710678118654746 0.70710678118654746 0.25 forward I I I I #
loop $-1 $-1 $243 $62 #
coedge $-1 $153 $153 $244 $245 reversed $96 $-1 #
face $-1 $-1 $246 $50 $-1 $247 forward single #
loop $-1 $248 $249 $98 #
cone-surface $-1 -46.169980189043841 15.131955375707754 3.3479400607119079 0.66913061440640931 0 -0.74314481823134659 0.18578620455783665 0 0.16728265360160233 1 I I -0.70710678118654746 0.70710678118654746 0.25 forward I I I I #
loop $-1 $-1 $250 $63 #
coedge $-1 $158 $158 $251 $252 reversed $99 $-1 #
face $-1 $-1 $253 $51 $-1 $254 forward single #
loop $-1 $255 $256 $101 #
cone-surface $-1 -46.169980189043841 17.501397534070456 3.3479400607119079 0.66913061440640931 0 -0.74314481823134659 0.18578620455783665 0 0.16728265360160233 1 I I -0.70710678118654746 0.70710678118654746 0.25 forward I I I I #
loop $-1 $-1 $257 $64 #
coedge $-1 $163 $163 $258 $259 reversed $102 $-1 #
face $-1 $260 $261 $39 $-1 $262 reversed single #
loop $-1 $-1 $263 $104 #
plane-surface $-1 0 -22.811791709409725 0 0 1 0 0 0 1 forward_v I I I I #
coedge $-1 $264 $265 $266 $267 forward $105 $-1 #
coedge $-1 $268 $107 $269 $270 forward $66 $-1 #
coedge $-1 $107 $268 $271 $272 forward $66 $-1 #
coedge $-1 $273 $274 $107 $171 reversed $275 $-1 #
edge $-1 $276 -22.811791709409725 $277 22.811791709409725 $170 $278 forward 7 unknown #
face $-1 $279 $280 $40 $-1 $281 reversed single #
loop $-1 $-1 $282 $108 #
plane-surface $-1 -49.209265419476914 0 0 1 0 0 0 0 -1 forward_v I I I I #
coedge $-1 $283 $284 $285 $286 forward $109 $-1 #
coedge $-1 $285 $111 $282 $287 reversed $69 $-1 #
coedge $-1 $111 $285 $288 $289 reversed $69 $-1 #
coedge $-1 $290 $291 $111 $179 reversed $280 $-1 #
edge $-1 $292 -49.209265419476914 $293 49.209265419476914 $178 $294 forward 7 unknown #
face $-1 $295 $296 $41 $-1 $297 forward single #
loop $-1 $-1 $186 $112 #
plane-surface $-1 49.209265419476914 0 0 -1 0 0 0 0 1 forward_v I I I I #
coedge $-1 $298 $299 $300 $301 reversed $113 $-1 #
coedge $-1 $185 $115 $302 $303 reversed $72 $-1 #
coedge $-1 $115 $184 $298 $304 reversed $72 $-1 #
coedge $-1 $300 $305 $115 $187 forward $181 $-1 #
edge $-1 $306 63.284182740997807 $307 67.083075457402785 $186 $308 forward 7 unknown #
loop $-1 $-1 $193 $116 #
plane-surface $-1 -32.383393999226065 18.256626687603394 57.496397964760334 0.55919291073839883 0 0.82903756765294845 0.82903756765294845 0 -0.55919291073839883 forward_v I I I I #
loop $-1 $-1 $309 $74 #
coedge $-1 $191 $191 $192 $310 reversed $117 $-1 #
coedge $-1 $192 $192 $191 $310 forward $119 $-1 #
coedge $-1 $193 $193 $120 $194 forward $188 $-1 #
edge $-1 $311 0 $311 6.2831853071796004 $193 $312 forward 7 unknown #
loop $-1 $-1 $200 $121 #
plane-surface $-1 -32.383393999226065 18.256626687603394 57.496397964760334 0.55919291073839883 0 0.82903756765294845 0.82903756765294845 0 -0.55919291073839883 forward_v I I I I #
loop $-1 $-1 $313 $77 #
coedge $-1 $198 $198 $199 $314 reversed $122 $-1 #
coedge $-1 $199 $199 $198 $314 forward $124 $-1 #
coedge $-1 $200 $200 $125 $201 forward $195 $-1 #
edge $-1 $315 0 $315 6.2831853071796004 $200 $316 forward 7 unknown #
face $-1 $317 $318 $44 $-1 $319 forward single #
loop $-1 $-1 $320 $126 #
plane-surface $-1 -115.06411742872223 0.083234159346096348 75.432617427178869 0 -1 0 0.66913061440640931 0 -0.74314481823134659 forward_v I I I I #
coedge $-1 $321 $322 $323 $324 reversed $127 $-1 #
coedge $-1 $207 $129 $325 $326 reversed $81 $-1 #
coedge $-1 $129 $206 $321 $327 reversed $81 $-1 #
coedge $-1 $323 $328 $129 $209 forward $318 $-1 #
edge $-1 $329 8.3227932948841996 $330 12.728537219734307 $208 $331 forward 7 unknown #
loop $-1 $-1 $215 $130 #
plane-surface $-1 -49.209265419476907 -3.865836104591736 2.2933962162683486 -0.66913061440640931 0 0.74314481823134659 0.74314481823134659 0 0.66913061440640931 forward_v I I I I #
loop $-1 $-1 $332 $83 #
coedge $-1 $213 $213 $214 $333 reversed $131 $-1 #
coedge $-1 $214 $214 $213 $333 forward $133 $-1 #
coedge $-1 $215 $215 $134 $216 forward $210 $-1 #
edge $-1 $334 0 $334 6.2831853071796004 $215 $335 forward 7 unknown #
loop $-1 $-1 $222 $135 #
plane-surface $-1 -49.209265419476907 -3.865836104591736 2.2933962162683486 -0.66913061440640931 0 0.74314481823134659 0.74314481823134659 0 0.66913061440640931 forward_v I I I I #
loop $-1 $-1 $336 $86 #
coedge $-1 $220 $220 $221 $337 reversed $136 $-1 #
coedge $-1 $221 $221 $220 $337 forward $138 $-1 #
coedge $-1 $222 $222 $139 $223 forward $217 $-1 #
edge $-1 $338 0 $338 6.2831853071796004 $222 $339 forward 7 unknown #
loop $-1 $-1 $229 $140 #
plane-surface $-1 -49.209265419476907 -3.865836104591736 2.2933962162683486 -0.66913061440640931 0 0.74314481823134659 0.74314481823134659 0 0.66913061440640931 forward_v I I I I #
loop $-1 $-1 $340 $89 #
coedge $-1 $227 $227 $228 $341 reversed $141 $-1 #
coedge $-1 $228 $228 $227 $341 forward $143 $-1 #
coedge $-1 $229 $229 $144 $230 forward $224 $-1 #
edge $-1 $342 0 $342 6.2831853071796004 $229 $343 forward 7 unknown #
face $-1 $344 $345 $48 $-1 $346 forward single #
loop $-1 $-1 $347 $145 #
plane-surface $-1 -115.06411742872223 19.081025639645588 75.432617427178869 0 -1 0 0.66913061440640931 0 -0.74314481823134659 forward_v I I I I #
coedge $-1 $348 $349 $350 $351 reversed $146 $-1 #
coedge $-1 $236 $148 $352 $353 reversed $93 $-1 #
coedge $-1 $148 $235 $348 $354 reversed $93 $-1 #
coedge $-1 $350 $355 $148 $238 forward $345 $-1 #
edge $-1 $356 8.3227932948841996 $357 12.728537219734307 $237 $358 forward 7 unknown #
loop $-1 $-1 $244 $149 #
plane-surface $-1 -49.209265419476907 15.131955375707754 2.2933962162683486 -0.66913061440640931 0 0.74314481823134659 0.74314481823134659 0 0.66913061440640931 forward_v I I I I #
loop $-1 $-1 $359 $95 #
coedge $-1 $242 $242 $243 $360 reversed $150 $-1 #
coedge $-1 $243 $243 $242 $360 forward $152 $-1 #
coedge $-1 $244 $244 $153 $245 forward $239 $-1 #
edge $-1 $361 0 $361 6.2831853071796004 $244 $362 forward 7 unknown #
loop $-1 $-1 $251 $154 #
plane-surface $-1 -49.209265419476907 15.131955375707754 2.2933962162683486 -0.66913061440640931 0 0.74314481823134659 0.74314481823134659 0 0.66913061440640931 forward_v I I I I #
loop $-1 $-1 $363 $98 #
coedge $-1 $249 $249 $250 $364 reversed $155 $-1 #
coedge $-1 $250 $250 $249 $364 forward $157 $-1 #
coedge $-1 $251 $251 $158 $252 forward $246 $-1 #
edge $-1 $365 0 $365 6.2831853071796004 $251 $366 forward 7 unknown #
loop $-1 $-1 $258 $159 #
plane-surface $-1 -49.209265419476907 15.131955375707754 2.2933962162683486 -0.66913061440640931 0 0.74314481823134659 0.74314481823134659 0 0.66913061440640931 forward_v I I I I #
loop $-1 $-1 $367 $101 #
coedge $-1 $256 $256 $257 $368 reversed $160 $-1 #
coedge $-1 $257 $257 $256 $368 forward $162 $-1 #
coedge $-1 $258 $258 $163 $259 forward $253 $-1 #
edge $-1 $369 0 $369 6.2831853071796004 $258 $370 forward 7 unknown #
face $-1 $371 $372 $39 $-1 $373 reversed single #
loop $-1 $-1 $374 $164 #
plane-surface $-1 -49.209265419476914 0 0 1 0 0 0 0 -1 forward_v I I I I #
coedge $-1 $375 $271 $376 $377 forward $165 $-1 #
coedge $-1 $378 $167 $375 $379 forward $105 $-1 #
coedge $-1 $167 $378 $380 $381 forward $105 $-1 #
coedge $-1 $274 $273 $167 $267 reversed $275 $-1 #
edge $-1 $382 -22.811791709409725 $383 22.811791709409725 $266 $384 forward 7 unknown #
coedge $-1 $169 $168 $385 $386 forward $66 $-1 #
coedge $-1 $387 $388 $168 $270 reversed $372 $-1 #
edge $-1 $277 -49.209265419476914 $389 49.209265419476914 $269 $390 forward 7 unknown #
coedge $-1 $263 $391 $169 $272 reversed $165 $-1 #
edge $-1 $392 -49.209265419476914 $276 49.209265419476914 $271 $393 forward 7 unknown #
coedge $-1 $266 $170 $391 $394 forward $275 $-1 #
coedge $-1 $170 $266 $387 $395 reversed $275 $-1 #
loop $-1 $-1 $273 $371 #
vertex $-1 $171 $396 #
vertex $-1 $171 $397 #
straight-curve $-1 49.209265419476914 0 6.2603459507338481 0 1 0 I I #
face $-1 $398 $399 $40 $-1 $400 reversed single #
loop $-1 $-1 $290 $172 #
plane-surface $-1 0 -26.62579193851996 3.1069596194596354 0 0 1 1 0 0 forward_v I I I I #
coedge $-1 $401 $402 $176 $287 forward $173 $-1 #
coedge $-1 $403 $175 $402 $404 forward $109 $-1 #
coedge $-1 $175 $403 $405 $406 forward $109 $-1 #
coedge $-1 $177 $176 $175 $286 reversed $69 $-1 #
edge $-1 $407 -49.209265419476914 $408 49.209265419476914 $175 $409 forward 7 unknown #
edge $-1 $408 -6.2603459507338481 $293 -3.1069596194596354 $282 $410 forward 7 unknown #
coedge $-1 $405 $411 $177 $289 forward $412 $-1 #
edge $-1 $292 3.1069596194596354 $407 6.2603459507338481 $288 $413 forward 7 unknown #
coedge $-1 $414 $178 $411 $415 forward $280 $-1 #
coedge $-1 $178 $414 $401 $416 forward $280 $-1 #
vertex $-1 $289 $417 #
vertex $-1 $287 $418 #
straight-curve $-1 0 -22.811791709409725 3.1069596194596354 -1 0 0 I I #
face $-1 $-1 $419 $41 $-1 $420 reversed single #
loop $-1 $-1 $302 $180 #
plane-surface $-1 0 0 6.2603459507338481 0 0 1 1 0 0 forward_v I I I I #
coedge $-1 $421 $183 $185 $304 forward $113 $-1 #
coedge $-1 $183 $421 $422 $423 reversed $113 $-1 #
coedge $-1 $424 $186 $183 $301 forward $181 $-1 #
edge $-1 $307 4.5731483219953653 $425 13.683478365608028 $300 $426 forward 7 unknown #
coedge $-1 $427 $428 $184 $303 forward $296 $-1 #
edge $-1 $429 32.25140009546584 $306 37.883490053874212 $302 $430 forward 7 unknown #
edge $-1 $307 -98.418530838953814 $429 -91.625002803362946 $185 $431 forward 7 unknown #
coedge $-1 $186 $424 $427 $432 reversed $181 $-1 #
vertex $-1 $432 $433 #
vertex $-1 $187 $434 #
straight-curve $-1 49.209265419476914 13.701461665797062 69.544528691731657 0 0 -1 I I #
coedge $-1 $309 $309 $-1 $435 reversed $190 $-1 #
edge $-1 $436 0 $436 6.2831853071796004 $191 $437 forward 7 unknown #
vertex $-1 $194 $438 #
ellipse-curve $-1 46.393220440272749 16.304413106829251 4.3608995925313545 0.55919291073839883 0 0.82903756765294845 0.82903756765294845 0 -0.55919291073839883 1 I I #
coedge $-1 $313 $313 $-1 $439 reversed $197 $-1 #
edge $-1 $440 0 $440 6.2831853071796004 $198 $441 forward 7 unknown #
vertex $-1 $201 $442 #
ellipse-curve $-1 46.393220440272749 20.208840268377536 4.3608995925313545 0.55919291073839883 0 0.82903756765294845 0.82903756765294845 0 -0.55919291073839883 1 I I #
face $-1 $-1 $443 $44 $-1 $444 reversed single #
loop $-1 $-1 $208 $202 #
plane-surface $-1 0 0 6.2603459507338481 0 0 1 1 0 0 forward_v I I I I #
coedge $-1 $445 $446 $447 $448 reversed $203 $-1 #
coedge $-1 $449 $205 $207 $327 forward $127 $-1 #
coedge $-1 $205 $449 $445 $450 forward $127 $-1 #
coedge $-1 $447 $208 $205 $324 forward $318 $-1 #
edge $-1 $330 -5.8819883162337003 $451 2.0161522116419643 $323 $452 forward 7 unknown #
coedge $-1 $453 $454 $206 $326 forward $443 $-1 #
edge $-1 $455 -35.422912497321093 $329 -31.455962762855584 $325 $456 forward 7 unknown #
edge $-1 $330 -5.9285132813488293 $455 9.4405131238556439e-015 $207 $457 forward 7 unknown #
coedge $-1 $208 $447 $453 $458 forward $318 $-1 #
vertex $-1 $326 $459 #
vertex $-1 $209 $460 #
straight-curve $-1 -57.532058714361114 -7.8149063685295683 6.2603459507338499 1 0 0 I I #
coedge $-1 $332 $332 $-1 $461 reversed $212 $-1 #
edge $-1 $462 0 $462 6.2831853071796004 $213 $463 forward 7 unknown #
vertex $-1 $216 $464 #
ellipse-curve $-1 -47.006393457051857 -6.2352782629544343 4.2768710835010957 -0.66913061440640931 0 0.74314481823134659 0.3715724091156733 0 0.33456530720320465 1 I I #
coedge $-1 $336 $336 $-1 $465 reversed $219 $-1 #
edge $-1 $466 0 $466 6.2831853071796004 $220 $467 forward 7 unknown #
vertex $-1 $223 $468 #
ellipse-curve $-1 -47.006393457051857 -3.865836104591736 4.2768710835010957 -0.66913061440640931 0 0.74314481823134659 0.3715724091156733 0 0.33456530720320465 1 I I #
coedge $-1 $340 $340 $-1 $469 reversed $226 $-1 #
edge $-1 $470 0 $470 6.2831853071796004 $227 $471 forward 7 unknown #
vertex $-1 $230 $472 #
ellipse-curve $-1 -47.006393457051857 -1.4963939462290377 4.2768710835010957 -0.66913061440640931 0 0.74314481823134659 0.3715724091156733 0 0.33456530720320465 1 I I #
face $-1 $-1 $473 $48 $-1 $474 reversed single #
loop $-1 $-1 $237 $231 #
plane-surface $-1 0 0 6.2603459507338481 0 0 1 1 0 0 forward_v I I I I #
coedge $-1 $475 $476 $477 $478 reversed $232 $-1 #
coedge $-1 $479 $234 $236 $354 forward $146 $-1 #
coedge $-1 $234 $479 $475 $480 forward $146 $-1 #
coedge $-1 $477 $237 $234 $351 forward $345 $-1 #
edge $-1 $357 3.6169074239160448 $481 11.515047951791711 $350 $482 forward 7 unknown #
coedge $-1 $483 $484 $235 $353 forward $473 $-1 #
edge $-1 $485 -35.422912497321093 $356 -31.455962762855584 $352 $486 forward 7 unknown #
edge $-1 $357 -5.9285132813488293 $485 9.4405131238556439e-015 $236 $487 forward 7 unknown #
coedge $-1 $237 $477 $483 $488 forward $345 $-1 #
vertex $-1 $238 $489 #
vertex $-1 $238 $490 #
straight-curve $-1 -57.532058714361114 11.182885111769922 6.2603459507338499 1 0 0 I I #
coedge $-1 $359 $359 $-1 $491 reversed $241 $-1 #
edge $-1 $492 0 $492 6.2831853071796004 $242 $493 forward 7 unknown #
vertex $-1 $245 $494 #
ellipse-curve $-1 -47.006393457051857 12.762513217345052 4.2768710835010957 -0.66913061440640931 0 0.74314481823134659 0.3715724091156733 0 0.33456530720320465 1 I I #
coedge $-1 $363 $363 $-1 $495 reversed $248 $-1 #
edge $-1 $496 0 $496 6.2831853071796004 $249 $497 forward 7 unknown #
vertex $-1 $252 $498 #
ellipse-curve $-1 -47.006393457051857 15.131955375707754 4.2768710835010957 -0.66913061440640931 0 0.74314481823134659 0.3715724091156733 0 0.33456530720320465 1 I I #
coedge $-1 $367 $367 $-1 $499 reversed $255 $-1 #
edge $-1 $500 0 $500 6.2831853071796004 $256 $501 forward 7 unknown #
vertex $-1 $259 $502 #
ellipse-curve $-1 -47.006393457051857 17.501397534070456 4.2768710835010957 -0.66913061440640931 0 0.74314481823134659 0.3715724091156733 0 0.33456530720320465 1 I I #
face $-1 $-1 $275 $39 $-1 $503 reversed single #
loop $-1 $-1 $387 $260 #
plane-surface $-1 0 22.811791709409725 0 0 -1 0 0 0 -1 forward_v I I I I #
coedge $-1 $504 $385 $388 $505 forward $261 $-1 #
coedge $-1 $391 $263 $264 $379 reversed $165 $-1 #
coedge $-1 $385 $504 $263 $377 reversed $261 $-1 #
edge $-1 $392 -6.2603459507338481 $506 6.2603459507338481 $376 $507 forward 7 unknown #
coedge $-1 $265 $264 $504 $508 forward $105 $-1 #
edge $-1 $383 -49.209265419476914 $506 49.209265419476914 $375 $509 forward 7 unknown #
coedge $-1 $388 $387 $265 $381 reversed $372 $-1 #
edge $-1 $510 -49.209265419476914 $382 49.209265419476914 $380 $511 forward 7 unknown #
vertex $-1 $267 $512 #
vertex $-1 $394 $513 #
straight-curve $-1 49.209265419476914 0 -6.2603459507338481 0 -1 0 I I #
coedge $-1 $374 $376 $268 $386 reversed $261 $-1 #
edge $-1 $389 -22.811791709409725 $392 22.811791709409725 $385 $514 forward 7 unknown #
coedge $-1 $380 $269 $274 $395 forward $372 $-1 #
coedge $-1 $269 $380 $374 $505 reversed $372 $-1 #
vertex $-1 $270 $515 #
straight-curve $-1 0 22.811791709409725 6.2603459507338481 -1 0 0 I I #
coedge $-1 $271 $375 $273 $394 reversed $165 $-1 #
vertex $-1 $386 $516 #
straight-curve $-1 0 -22.811791709409725 6.2603459507338481 1 0 0 I I #
edge $-1 $276 -6.2603459507338481 $383 6.2603459507338481 $273 $517 forward 7 unknown #
edge $-1 $277 -6.2603459507338481 $382 6.2603459507338481 $274 $518 forward 7 unknown #
point $-1 49.209265419476914 -22.811791709409725 6.2603459507338481 #
point $-1 49.209265419476914 22.811791709409725 6.2603459507338481 #
face $-1 $-1 $412 $40 $-1 $519 reversed single #
loop $-1 $-1 $520 $279 #
plane-surface $-1 0 -30.439792167630195 4.6836527850967418 0 1 0 0 0 1 forward_v I I I I #
coedge $-1 $521 $282 $291 $416 reversed $173 $-1 #
coedge $-1 $282 $521 $283 $404 reversed $173 $-1 #
coedge $-1 $284 $283 $522 $523 forward $109 $-1 #
edge $-1 $408 22.811791709409725 $524 30.439792167630195 $402 $525 forward 7 unknown #
coedge $-1 $526 $288 $284 $406 reversed $412 $-1 #
edge $-1 $527 -30.439792167630195 $407 -22.811791709409725 $405 $528 forward 7 unknown #
vertex $-1 $289 $529 #
vertex $-1 $404 $530 #
straight-curve $-1 0 -22.811791709409725 6.2603459507338481 -1 0 0 I I #
straight-curve $-1 -49.209265419476914 -22.811791709409725 0 0 0 -1 I I #
coedge $-1 $288 $526 $290 $415 reversed $412 $-1 #
loop $-1 $-1 $288 $398 #
straight-curve $-1 49.209265419476914 -22.811791709409725 0 0 0 1 I I #
coedge $-1 $291 $290 $531 $532 forward $280 $-1 #
edge $-1 $292 -3.8140002291102348 $533 3.8140002291102348 $411 $534 forward 7 unknown #
edge $-1 $535 -3.8140002291102348 $293 3.8140002291102348 $401 $536 forward 7 unknown #
point $-1 49.209265419476914 -22.811791709409725 3.1069596194596354 #
point $-1 -49.209265419476914 -22.811791709409725 3.1069596194596354 #
loop $-1 $-1 $422 $295 #
plane-surface $-1 0 22.811791709409725 0 0 -1 0 0 0 -1 forward_v I I I I #
coedge $-1 $299 $298 $428 $537 reversed $113 $-1 #
coedge $-1 $538 $539 $299 $423 forward $419 $-1 #
edge $-1 $425 -68.91921667477726 $540 -62.125688639186379 $422 $541 forward 7 unknown #
coedge $-1 $305 $300 $539 $542 reversed $181 $-1 #
vertex $-1 $301 $543 #
straight-curve $-1 49.209265419476921 9.1283133438016968 2.4614532343288715 0 1 0 I I #
coedge $-1 $544 $302 $305 $432 forward $296 $-1 #
coedge $-1 $302 $544 $421 $537 forward $296 $-1 #
vertex $-1 $303 $545 #
straight-curve $-1 11.325775365602698 13.701461665797062 6.2603459507338499 1 0 0 I I #
straight-curve $-1 -32.383393999226065 13.701461665797062 57.496397964760334 -0.82903756765294845 0 0.55919291073839883 I I #
edge $-1 $306 13.701461665797062 $546 22.811791709409725 $305 $547 forward 7 unknown #
point $-1 49.209265419476914 13.701461665797062 6.2603459507338481 #
point $-1 49.209265419476914 13.701461665797062 2.4614532343288715 #
edge $-1 $548 1 $548 0 $309 $-1 forward 7 unknown #
vertex $-1 $310 $549 #
ellipse-curve $-1 45.766191236306859 16.304413106829251 3.43129058619252 0.55919291073839883 0 0.82903756765294845 0.82903756765294845 0 -0.55919291073839883 1 I I #
point $-1 47.222258007925696 16.304413106829251 3.8017066817929575 #
edge $-1 $550 1 $550 0 $313 $-1 forward 7 unknown #
vertex $-1 $314 $551 #
ellipse-curve $-1 45.766191236306859 20.208840268377536 3.43129058619252 0.55919291073839883 0 0.82903756765294845 0.82903756765294845 0 -0.55919291073839883 1 I I #
point $-1 47.222258007925696 20.208840268377536 3.8017066817929575 #
loop $-1 $-1 $325 $317 #
plane-surface $-1 -49.209265419476914 0 0 1 0 0 0 0 -1 forward_v I I I I #
coedge $-1 $446 $320 $322 $450 reversed $203 $-1 #
coedge $-1 $320 $445 $552 $553 reversed $203 $-1 #
coedge $-1 $328 $323 $320 $448 forward $318 $-1 #
edge $-1 $451 -12.728537219734307 $554 -8.3227932948841996 $447 $555 forward 7 unknown #
coedge $-1 $322 $321 $454 $556 reversed $127 $-1 #
edge $-1 $557 -9.4405131238556439e-015 $451 5.9285132813488293 $445 $558 forward 7 unknown #
vertex $-1 $324 $559 #
straight-curve $-1 -44.803521494626807 -1.932918052295868 6.2603459507338464 0 1 0 I I #
coedge $-1 $552 $325 $328 $458 reversed $443 $-1 #
coedge $-1 $325 $552 $449 $556 forward $443 $-1 #
vertex $-1 $326 $560 #
straight-curve $-1 -49.209265419476914 -7.8149063685295683 37.716308713589434 0 0 1 I I #
straight-curve $-1 -49.209265419476907 -7.8149063685295683 2.2933962162683486 -0.74314481823134659 0 -0.66913061440640931 I I #
edge $-1 $554 -0.083234159346096348 $329 7.8149063685295683 $453 $561 forward 7 unknown #
point $-1 -49.209265419476914 -7.8149063685295683 6.2603459507338481 #
point $-1 -44.803521494626807 -7.8149063685295683 6.2603459507338481 #
edge $-1 $562 1 $562 0 $332 $-1 forward 7 unknown #
vertex $-1 $333 $563 #
ellipse-curve $-1 -46.337262842645444 -6.2352782629544343 3.5337262652697445 -0.66913061440640931 0 0.74314481823134659 0.3715724091156733 0 0.33456530720320465 1 I I #
point $-1 -46.634821047936178 -6.2352782629544343 4.6114363907042959 #
edge $-1 $564 1 $564 0 $336 $-1 forward 7 unknown #
vertex $-1 $337 $565 #
ellipse-curve $-1 -46.337262842645444 -3.865836104591736 3.5337262652697445 -0.66913061440640931 0 0.74314481823134659 0.3715724091156733 0 0.33456530720320465 1 I I #
point $-1 -46.634821047936178 -3.865836104591736 4.6114363907042959 #
edge $-1 $566 1 $566 0 $340 $-1 forward 7 unknown #
vertex $-1 $341 $567 #
ellipse-curve $-1 -46.337262842645444 -1.4963939462290377 3.5337262652697445 -0.66913061440640931 0 0.74314481823134659 0.3715724091156733 0 0.33456530720320465 1 I I #
point $-1 -46.634821047936178 -1.4963939462290377 4.6114363907042959 #
loop $-1 $-1 $352 $344 #
plane-surface $-1 -49.209265419476914 0 0 1 0 0 0 0 -1 forward_v I I I I #
coedge $-1 $476 $347 $349 $480 reversed $232 $-1 #
coedge $-1 $347 $475 $568 $569 reversed $232 $-1 #
coedge $-1 $355 $350 $347 $478 forward $345 $-1 #
edge $-1 $481 -12.728537219734307 $570 -8.3227932948841996 $477 $571 forward 7 unknown #
coedge $-1 $349 $348 $484 $572 reversed $146 $-1 #
edge $-1 $573 -9.4405131238556439e-015 $481 5.9285132813488293 $475 $574 forward 7 unknown #
vertex $-1 $351 $575 #
straight-curve $-1 -44.803521494626807 7.5659776878538771 6.2603459507338464 0 1 0 I I #
coedge $-1 $568 $352 $355 $488 reversed $473 $-1 #
coedge $-1 $352 $568 $479 $572 forward $473 $-1 #
vertex $-1 $353 $576 #
straight-curve $-1 -49.209265419476914 11.182885111769922 37.716308713589434 0 0 1 I I #
straight-curve $-1 -49.209265419476907 11.182885111769922 2.2933962162683486 -0.74314481823134659 0 -0.66913061440640931 I I #
edge $-1 $570 -19.081025639645588 $356 -11.182885111769922 $483 $577 forward 7 unknown #
point $-1 -49.209265419476914 11.182885111769922 6.2603459507338481 #
point $-1 -44.803521494626807 11.182885111769922 6.2603459507338481 #
edge $-1 $578 1 $578 0 $359 $-1 forward 7 unknown #
vertex $-1 $360 $579 #
ellipse-curve $-1 -46.337262842645444 12.762513217345052 3.5337262652697445 -0.66913061440640931 0 0.74314481823134659 0.3715724091156733 0 0.33456530720320465 1 I I #
point $-1 -46.634821047936178 12.762513217345052 4.6114363907042959 #
edge $-1 $580 1 $580 0 $363 $-1 forward 7 unknown #
vertex $-1 $364 $581 #
ellipse-curve $-1 -46.337262842645444 15.131955375707754 3.5337262652697445 -0.66913061440640931 0 0.74314481823134659 0.3715724091156733 0 0.33456530720320465 1 I I #
point $-1 -46.634821047936178 15.131955375707754 4.6114363907042959 #
edge $-1 $582 1 $582 0 $367 $-1 forward 7 unknown #
vertex $-1 $368 $583 #
ellipse-curve $-1 -46.337262842645444 17.501397534070456 3.5337262652697445 -0.66913061440640931 0 0.74314481823134659 0.3715724091156733 0 0.33456530720320465 1 I I #
point $-1 -46.634821047936178 17.501397534070456 4.6114363907042959 #
plane-surface $-1 49.209265419476914 0 0 -1 0 0 0 0 1 forward_v I I I I #
coedge $-1 $376 $374 $378 $508 reversed $261 $-1 #
edge $-1 $389 -6.2603459507338481 $510 6.2603459507338481 $388 $584 forward 7 unknown #
vertex $-1 $508 $585 #
straight-curve $-1 -49.209265419476914 -22.811791709409725 0 0 0 -1 I I #
edge $-1 $506 -22.811791709409725 $510 22.811791709409725 $504 $586 forward 7 unknown #
straight-curve $-1 0 -22.811791709409725 -6.2603459507338481 -1 0 0 I I #
vertex $-1 $381 $587 #
straight-curve $-1 0 22.811791709409725 -6.2603459507338481 1 0 0 I I #
point $-1 49.209265419476914 22.811791709409725 -6.2603459507338481 #
point $-1 49.209265419476914 -22.811791709409725 -6.2603459507338481 #
straight-curve $-1 -49.209265419476914 0 6.2603459507338481 0 -1 0 I I #
point $-1 -49.209265419476914 22.811791709409725 6.2603459507338481 #
point $-1 -49.209265419476914 -22.811791709409725 6.2603459507338481 #
straight-curve $-1 49.209265419476914 -22.811791709409725 0 0 0 -1 I I #
straight-curve $-1 49.209265419476914 22.811791709409725 0 0 0 -1 I I #
plane-surface $-1 49.209265419476914 0 0 -1 0 0 0 0 1 forward_v I I I I #
coedge $-1 $531 $522 $521 $588 forward $399 $-1 #
coedge $-1 $402 $401 $520 $588 reversed $173 $-1 #
coedge $-1 $520 $589 $403 $523 reversed $399 $-1 #
edge $-1 $524 -49.209265419476914 $527 49.209265419476914 $522 $590 forward 7 unknown #
vertex $-1 $404 $591 #
straight-curve $-1 -49.209265419476914 0 6.2603459507338481 0 -1 0 I I #
coedge $-1 $411 $405 $589 $592 forward $412 $-1 #
vertex $-1 $406 $593 #
straight-curve $-1 49.209265419476914 0 6.2603459507338481 0 1 0 I I #
point $-1 49.209265419476914 -22.811791709409725 6.2603459507338481 #
point $-1 -49.209265419476914 -22.811791709409725 6.2603459507338481 #
coedge $-1 $589 $520 $414 $532 reversed $399 $-1 #
edge $-1 $533 -49.209265419476914 $535 49.209265419476914 $531 $594 forward 7 unknown #
vertex $-1 $592 $595 #
straight-curve $-1 49.209265419476914 -26.62579193851996 3.1069596194596354 0 -1 0 I I #
vertex $-1 $416 $596 #
straight-curve $-1 -49.209265419476914 -26.62579193851996 3.1069596194596354 0 1 0 I I #
edge $-1 $540 -13.683478365608028 $429 -4.5731483219953653 $428 $597 forward 7 unknown #
coedge $-1 $539 $422 $544 $598 reversed $419 $-1 #
coedge $-1 $422 $538 $424 $542 forward $419 $-1 #
vertex $-1 $423 $599 #
straight-curve $-1 -7.9273543371269497 22.811791709409725 41.000590612507956 -0.82903756765294845 0 0.55919291073839883 I I #
edge $-1 $546 -6.2603459507338481 $425 -2.4614532343288724 $424 $600 forward 7 unknown #
point $-1 49.209265419476914 22.811791709409725 2.4614532343288724 #
coedge $-1 $428 $427 $538 $598 forward $296 $-1 #
point $-1 43.577175461068542 13.701461665797062 6.2603459507338499 #
vertex $-1 $432 $601 #
straight-curve $-1 49.209265419476914 0 6.2603459507338481 0 1 0 I I #
vertex $-1 $435 $602 #
point $-1 46.595228803959806 16.304413106829251 2.8720976754541212 #
vertex $-1 $439 $603 #
point $-1 46.595228803959806 20.208840268377536 2.8720976754541212 #
coedge $-1 $454 $453 $446 $553 forward $443 $-1 #
edge $-1 $554 31.455962762855584 $557 35.422912497321093 $552 $604 forward 7 unknown #
vertex $-1 $458 $605 #
straight-curve $-1 -57.532058714361114 0.083234159346096348 6.2603459507338499 -1 0 0 I I #
edge $-1 $557 -2.0161522116419643 $455 5.8819883162337003 $454 $606 forward 7 unknown #
vertex $-1 $556 $607 #
straight-curve $-1 -49.209265419476907 0.083234159346096348 2.2933962162683486 0.74314481823134659 0 0.66913061440640931 I I #
point $-1 -44.803521494626807 0.083234159346096348 6.2603459507338481 #
point $-1 -49.209265419476914 -7.8149063685295683 2.2933962162683423 #
straight-curve $-1 -49.209265419476914 0 6.2603459507338481 0 -1 0 I I #
vertex $-1 $461 $608 #
point $-1 -45.965690433529772 -6.2352782629544343 3.8682915724729492 #
vertex $-1 $465 $609 #
point $-1 -45.965690433529772 -3.865836104591736 3.8682915724729492 #
vertex $-1 $469 $610 #
point $-1 -45.965690433529772 -1.4963939462290377 3.8682915724729492 #
coedge $-1 $484 $483 $476 $569 forward $473 $-1 #
edge $-1 $570 31.455962762855584 $573 35.422912497321093 $568 $611 forward 7 unknown #
vertex $-1 $488 $612 #
straight-curve $-1 -57.532058714361114 19.081025639645588 6.2603459507338499 -1 0 0 I I #
edge $-1 $573 -11.515047951791711 $485 -3.6169074239160448 $484 $613 forward 7 unknown #
vertex $-1 $572 $614 #
straight-curve $-1 -49.209265419476907 19.081025639645588 2.2933962162683486 0.74314481823134659 0 0.66913061440640931 I I #
point $-1 -44.803521494626807 19.081025639645588 6.2603459507338481 #
point $-1 -49.209265419476914 11.182885111769922 2.2933962162683423 #
straight-curve $-1 -49.209265419476914 0 6.2603459507338481 0 -1 0 I I #
vertex $-1 $491 $615 #
point $-1 -45.965690433529772 12.762513217345052 3.8682915724729492 #
vertex $-1 $495 $616 #
point $-1 -45.965690433529772 15.131955375707754 3.8682915724729492 #
vertex $-1 $499 $617 #
point $-1 -45.965690433529772 17.501397534070456 3.8682915724729492 #
straight-curve $-1 -49.209265419476914 22.811791709409725 0 0 0 -1 I I #
point $-1 -49.209265419476914 -22.811791709409725 -6.2603459507338481 #
straight-curve $-1 -49.209265419476914 0 -6.2603459507338481 0 1 0 I I #
point $-1 -49.209265419476914 22.811791709409725 -6.2603459507338481 #
edge $-1 $524 -1.5766931656371064 $535 1.5766931656371064 $521 $618 forward 7 unknown #
coedge $-1 $522 $531 $526 $592 reversed $399 $-1 #
straight-curve $-1 0 -30.439792167630195 6.2603459507338481 1 0 0 I I #
point $-1 -49.209265419476914 -30.439792167630195 6.2603459507338481 #
edge $-1 $527 -1.5766931656371064 $533 1.5766931656371064 $526 $619 forward 7 unknown #
point $-1 49.209265419476914 -30.439792167630195 6.2603459507338481 #
straight-curve $-1 0 -30.439792167630195 3.1069596194596354 -1 0 0 I I #
point $-1 49.209265419476914 -30.439792167630195 3.1069596194596354 #
point $-1 -49.209265419476914 -30.439792167630195 3.1069596194596354 #
straight-curve $-1 43.577175461068549 9.1283133438016968 6.2603459507338499 0 -1 0 I I #
edge $-1 $546 -49.209265419476914 $540 -43.577175461068542 $538 $620 forward 7 unknown #
point $-1 43.577175461068542 22.811791709409725 6.2603459507338499 #
straight-curve $-1 49.209265419476914 22.811791709409725 0 0 0 -1 I I #
point $-1 49.209265419476914 22.811791709409725 6.2603459507338481 #
point $-1 45.206998325568456 16.304413106829251 2.6022530185395718 #
point $-1 45.206998325568456 20.208840268377536 2.6022530185395718 #
straight-curve $-1 -49.209265419476914 0.083234159346096348 37.716308713589434 0 0 -1 I I #
point $-1 -49.209265419476914 0.083234159346096348 6.2603459507338481 #
straight-curve $-1 -49.209265419476914 -1.932918052295868 2.2933962162683414 0 -1 0 I I #
point $-1 -49.209265419476914 0.083234159346096348 2.2933962162683423 #
point $-1 -46.002697535442238 -6.2352782629544343 3.1621538561540712 #
point $-1 -46.002697535442238 -3.865836104591736 3.1621538561540712 #
point $-1 -46.002697535442238 -1.4963939462290377 3.1621538561540712 #
straight-curve $-1 -49.209265419476914 19.081025639645588 37.716308713589434 0 0 -1 I I #
point $-1 -49.209265419476914 19.081025639645588 6.2603459507338481 #
straight-curve $-1 -49.209265419476914 7.5659776878538771 2.2933962162683414 0 -1 0 I I #
point $-1 -49.209265419476914 19.081025639645588 2.2933962162683423 #
point $-1 -46.002697535442238 12.762513217345052 3.1621538561540712 #
point $-1 -46.002697535442238 15.131955375707754 3.1621538561540712 #
point $-1 -46.002697535442238 17.501397534070456 3.1621538561540712 #
straight-curve $-1 -49.209265419476914 -30.439792167630195 4.6836527850967418 0 0 -1 I I #
straight-curve $-1 49.209265419476914 -30.439792167630195 4.6836527850967418 0 0 -1 I I #
straight-curve $-1 0 22.811791709409725 6.2603459507338481 -1 0 0 I I #
End-of-ACIS-data 