500 0 4 0           
7 Unknown 11 ACIS 5.0 NT 24 Thu Mar 25 16:21:30 1999 
-1 9.9999999999999995e-007 1e-010 
body $-1 $4 $-1 $5 #
body $-1 $6 $-1 $7 #
body $-1 $8 $-1 $9 #
body $-1 $10 $-1 $11 #
lump $-1 $-1 $12 $0 #
transform $-1 1 0 0 0 1 0 0 0 1 65.044709616382335 33.452358972602774 13.261904767781749 1 rotate no_reflect no_shear #
lump $-1 $-1 $13 $1 #
transform $-1 1 0 0 0 1 0 0 0 1 65.044709616382335 33.452358972602774 13.261904767781749 1 rotate no_reflect no_shear #
lump $-1 $-1 $14 $2 #
transform $-1 1 0 0 0 1 0 0 0 1 65.044709616382335 33.452358972602774 13.261904767781749 1 rotate no_reflect no_shear #
lump $-1 $-1 $15 $3 #
transform $-1 1 0 0 0 1 0 0 0 1 65.044709616382335 33.452358972602774 13.261904767781749 1 rotate no_reflect no_shear #
shell $-1 $-1 $-1 $16 $-1 $4 #
shell $-1 $-1 $-1 $17 $-1 $6 #
shell $-1 $-1 $-1 $18 $-1 $8 #
shell $-1 $-1 $-1 $19 $-1 $10 #
face $-1 $20 $21 $12 $-1 $22 forward single #
face $-1 $23 $24 $13 $-1 $25 reversed single #
face $-1 $26 $27 $14 $-1 $28 forward single #
face $-1 $29 $30 $15 $-1 $31 reversed single #
face $-1 $32 $33 $12 $-1 $34 reversed single #
loop $-1 $-1 $35 $16 #
plane-surface $-1 0 0 13.261904767781749 0 0 1 1 0 0 forward_v I I I I #
face $-1 $36 $37 $13 $-1 $38 forward single #
loop $-1 $-1 $39 $17 #
plane-surface $-1 -57.053423432058082 0 -10.087903193945328 0 0 1 1 0 0 forward_v I I I I #
face $-1 $40 $41 $14 $-1 $42 forward single #
loop $-1 $-1 $43 $18 #
plane-surface $-1 26.809516380781396 73.242117986522175 142.9133630886318 1 0 0 0 -0.68199836817093118 -0.7313536940579346 forward_v I I I I #
face $-1 $44 $45 $15 $-1 $46 reversed single #
loop $-1 $47 $48 $19 #
cone-surface $-1 36.396309314970324 26.766648838502235 6.926129420107217 0 -0.68199836817093118 -0.7313536940579346 1.5 0 0 1 I I 0 1 1.5 forward I I I I #
face $-1 $49 $50 $12 $-1 $51 reversed single #
loop $-1 $-1 $52 $20 #
plane-surface $-1 0 0 -13.261904767781749 0 0 1 1 0 0 forward_v I I I I #
coedge $-1 $53 $54 $55 $56 forward $21 $-1 #
face $-1 $57 $58 $13 $-1 $59 reversed single #
loop $-1 $-1 $60 $23 #
plane-surface $-1 -49.06213724773383 0 -11.674903980863538 -1 0 0 0 0 1 forward_v I I I I #
coedge $-1 $61 $62 $63 $64 reversed $24 $-1 #
face $-1 $65 $66 $14 $-1 $67 forward single #
loop $-1 $-1 $68 $26 #
plane-surface $-1 36.396309314970324 -15.478653646527476 47.771985774898027 0 0.68199836817093118 0.7313536940579346 1 0 0 forward_v I I I I #
coedge $-1 $69 $70 $71 $72 reversed $27 $-1 #
face $-1 $73 $74 $15 $-1 $75 forward single #
loop $-1 $76 $77 $29 #
cone-surface $-1 36.396309314970324 25.531181122914411 5.6012525291144062 0 -0.68199836817093118 -0.7313536940579346 0.75 0 0 1 I I -0.70710678118654757 0.70710678118654757 0.75 forward I I I I #
loop $-1 $-1 $78 $19 #
coedge $-1 $48 $48 $79 $80 reversed $30 $-1 #
face $-1 $81 $82 $12 $-1 $83 reversed single #
loop $-1 $-1 $84 $32 #
plane-surface $-1 0 -33.452358972602774 0 0 1 0 0 0 1 forward_v I I I I #
coedge $-1 $85 $86 $87 $88 forward $33 $-1 #
coedge $-1 $89 $35 $90 $91 forward $21 $-1 #
coedge $-1 $35 $89 $92 $93 forward $21 $-1 #
coedge $-1 $94 $95 $35 $56 reversed $96 $-1 #
edge $-1 $97 -33.452358972602774 $98 33.452358972602774 $55 $99 forward 7 unknown #
face $-1 $100 $101 $13 $-1 $102 reversed single #
loop $-1 $-1 $103 $36 #
plane-surface $-1 -65.044709616382335 0 0 1 0 0 0 0 -1 forward_v I I I I #
coedge $-1 $63 $104 $105 $106 reversed $37 $-1 #
coedge $-1 $107 $39 $108 $109 reversed $24 $-1 #
coedge $-1 $39 $107 $110 $111 reversed $24 $-1 #
coedge $-1 $112 $60 $39 $64 forward $37 $-1 #
edge $-1 $113 -33.452358972602774 $114 33.452358972602774 $63 $115 forward 7 unknown #
face $-1 $116 $117 $14 $-1 $118 forward single #
loop $-1 $-1 $119 $40 #
plane-surface $-1 45.983102249159252 73.242117986522175 142.9133630886318 -1 0 0 0 0.68199836817093118 0.7313536940579346 forward_v I I I I #
coedge $-1 $120 $121 $122 $123 reversed $41 $-1 #
coedge $-1 $70 $43 $121 $124 forward $27 $-1 #
coedge $-1 $43 $69 $125 $126 reversed $27 $-1 #
coedge $-1 $127 $122 $43 $72 forward $117 $-1 #
edge $-1 $128 -15.092182409940101 $129 -3.1687000206583136 $71 $130 forward 7 unknown #
face $-1 $131 $132 $15 $-1 $133 forward single #
loop $-1 $-1 $134 $44 #
plane-surface $-1 26.809516380781396 73.242117986522175 142.9133630886318 1 0 0 0 -0.68199836817093118 -0.7313536940579346 forward_v I I I I #
loop $-1 $-1 $135 $29 #
coedge $-1 $77 $77 $78 $136 forward $45 $-1 #
coedge $-1 $78 $78 $77 $136 reversed $47 $-1 #
coedge $-1 $79 $79 $48 $80 forward $132 $-1 #
edge $-1 $137 -2.231638391721178e-016 $137 6.2831853071796004 $79 $138 forward 7 unknown #
face $-1 $139 $140 $12 $-1 $141 reversed single #
loop $-1 $-1 $142 $49 #
plane-surface $-1 -65.044709616382335 0 0 1 0 0 0 0 -1 forward_v I I I I #
coedge $-1 $143 $92 $144 $145 forward $50 $-1 #
coedge $-1 $146 $52 $143 $147 forward $33 $-1 #
coedge $-1 $52 $146 $148 $149 forward $33 $-1 #
coedge $-1 $95 $94 $52 $88 reversed $96 $-1 #
edge $-1 $150 -33.452358972602774 $151 33.452358972602774 $87 $152 forward 7 unknown #
coedge $-1 $54 $53 $153 $154 forward $21 $-1 #
coedge $-1 $155 $156 $53 $91 reversed $140 $-1 #
edge $-1 $98 -65.044709616382335 $157 65.044709616382335 $90 $158 forward 7 unknown #
coedge $-1 $84 $159 $54 $93 reversed $50 $-1 #
edge $-1 $160 -65.044709616382335 $97 65.044709616382335 $92 $161 forward 7 unknown #
coedge $-1 $87 $55 $159 $162 forward $96 $-1 #
coedge $-1 $55 $87 $155 $163 reversed $96 $-1 #
loop $-1 $-1 $94 $139 #
vertex $-1 $56 $164 #
vertex $-1 $56 $165 #
straight-curve $-1 65.044709616382335 0 13.261904767781749 0 1 0 I I #
face $-1 $166 $167 $13 $-1 $168 forward single #
loop $-1 $-1 $108 $57 #
plane-surface $-1 0 -33.452358972602774 0 0 1 0 0 0 1 forward_v I I I I #
coedge $-1 $169 $170 $107 $171 forward $58 $-1 #
coedge $-1 $60 $112 $172 $173 reversed $37 $-1 #
coedge $-1 $174 $108 $60 $106 forward $101 $-1 #
edge $-1 $113 4.2504512035135589 $175 7.4244527773499795 $105 $176 forward 7 unknown #
coedge $-1 $62 $61 $103 $171 reversed $24 $-1 #
coedge $-1 $105 $177 $61 $109 forward $101 $-1 #
edge $-1 $178 -36.517997900353294 $113 -20.535425531704789 $108 $179 forward 7 unknown #
coedge $-1 $180 $181 $62 $111 forward $182 $-1 #
edge $-1 $114 20.535425531704789 $183 36.517997900353294 $110 $184 forward 7 unknown #
coedge $-1 $104 $63 $181 $185 reversed $37 $-1 #
vertex $-1 $109 $186 #
vertex $-1 $111 $187 #
straight-curve $-1 -49.06213724773383 0 -10.087903193945328 0 1 0 I I #
face $-1 $188 $189 $14 $-1 $190 reversed single #
loop $-1 $-1 $191 $65 #
plane-surface $-1 0 0 13.261904767781749 0 0 1 1 0 0 forward_v I I I I #
coedge $-1 $192 $193 $191 $194 reversed $66 $-1 #
coedge $-1 $195 $68 $193 $196 reversed $41 $-1 #
coedge $-1 $68 $195 $69 $124 reversed $41 $-1 #
coedge $-1 $71 $191 $68 $123 forward $117 $-1 #
edge $-1 $197 -27.78494759167409 $128 -8.6113617232962341 $122 $198 forward 7 unknown #
edge $-1 $128 50.601412873860305 $199 66.904717945205533 $69 $200 forward 7 unknown #
coedge $-1 $201 $202 $70 $126 forward $203 $-1 #
edge $-1 $129 58.194776776534148 $199 69.313604230984453 $125 $204 forward 7 unknown #
coedge $-1 $205 $71 $202 $206 forward $117 $-1 #
vertex $-1 $123 $207 #
vertex $-1 $206 $208 #
straight-curve $-1 26.809516380781396 36.621058993261087 13.261904767781743 0 1 0 I I #
face $-1 $209 $210 $15 $-1 $211 forward single #
loop $-1 $212 $79 $73 #
plane-surface $-1 36.396309314970324 -15.478653646527476 47.771985774898027 0 0.68199836817093118 0.7313536940579346 1 0 0 forward_v I I I I #
coedge $-1 $213 $214 $215 $216 reversed $74 $-1 #
coedge $-1 $135 $135 $-1 $217 forward $76 $-1 #
edge $-1 $218 0 $218 6.2831853071796004 $77 $219 forward 7 unknown #
vertex $-1 $80 $220 #
ellipse-curve $-1 36.396309314970324 27.49061777796188 7.7024910405565965 0 -0.68199836817093118 -0.7313536940579346 1.5 0 0 1 I I #
face $-1 $-1 $96 $12 $-1 $221 reversed single #
loop $-1 $-1 $155 $81 #
plane-surface $-1 0 33.452358972602774 0 0 -1 0 0 0 -1 forward_v I I I I #
coedge $-1 $222 $153 $156 $223 forward $82 $-1 #
coedge $-1 $159 $84 $85 $147 reversed $50 $-1 #
coedge $-1 $153 $222 $84 $145 reversed $82 $-1 #
edge $-1 $160 -13.261904767781749 $224 13.261904767781749 $144 $225 forward 7 unknown #
coedge $-1 $86 $85 $222 $226 forward $33 $-1 #
edge $-1 $151 -65.044709616382335 $224 65.044709616382335 $143 $227 forward 7 unknown #
coedge $-1 $156 $155 $86 $149 reversed $140 $-1 #
edge $-1 $228 -65.044709616382335 $150 65.044709616382335 $148 $229 forward 7 unknown #
vertex $-1 $88 $230 #
vertex $-1 $162 $231 #
straight-curve $-1 65.044709616382335 0 -13.261904767781749 0 -1 0 I I #
coedge $-1 $142 $144 $89 $154 reversed $82 $-1 #
edge $-1 $157 -33.452358972602774 $160 33.452358972602774 $153 $232 forward 7 unknown #
coedge $-1 $148 $90 $95 $163 forward $140 $-1 #
coedge $-1 $90 $148 $142 $223 reversed $140 $-1 #
vertex $-1 $91 $233 #
straight-curve $-1 0 33.452358972602774 13.261904767781749 -1 0 0 I I #
coedge $-1 $92 $143 $94 $162 reversed $50 $-1 #
vertex $-1 $154 $234 #
straight-curve $-1 0 -33.452358972602774 13.261904767781749 1 0 0 I I #
edge $-1 $97 -13.261904767781749 $151 13.261904767781749 $94 $235 forward 7 unknown #
edge $-1 $98 -13.261904767781749 $150 13.261904767781749 $95 $236 forward 7 unknown #
point $-1 65.044709616382335 -33.452358972602774 13.261904767781749 #
point $-1 65.044709616382335 33.452358972602774 13.261904767781749 #
face $-1 $237 $238 $13 $-1 $239 reversed single #
loop $-1 $-1 $240 $100 #
plane-surface $-1 0 0 13.261904767781749 0 0 1 1 0 0 forward_v I I I I #
coedge $-1 $241 $103 $177 $242 reversed $58 $-1 #
coedge $-1 $103 $241 $180 $243 forward $58 $-1 #
edge $-1 $183 -33.452358972602774 $178 33.452358972602774 $103 $244 forward 7 unknown #
coedge $-1 $245 $246 $104 $173 forward $238 $-1 #
edge $-1 $175 -33.452358972602774 $247 33.452358972602774 $172 $248 forward 7 unknown #
coedge $-1 $249 $105 $246 $250 reversed $101 $-1 #
vertex $-1 $106 $251 #
straight-curve $-1 -49.06213724773383 -33.452358972602774 -5.8374519904317692 0 0 -1 I I #
coedge $-1 $108 $252 $169 $242 forward $101 $-1 #
vertex $-1 $109 $253 #
straight-curve $-1 -28.526711716029041 -33.452358972602774 -10.087903193945328 1 0 0 I I #
coedge $-1 $254 $110 $170 $243 reversed $182 $-1 #
coedge $-1 $110 $255 $112 $185 forward $182 $-1 #
loop $-1 $-1 $110 $237 #
vertex $-1 $171 $256 #
straight-curve $-1 -28.526711716029041 33.452358972602774 -10.087903193945328 -1 0 0 I I #
edge $-1 $247 -7.4244527773499795 $114 -4.2504512035135589 $181 $257 forward 7 unknown #
point $-1 -49.06213724773383 -33.452358972602774 -10.087903193945328 #
point $-1 -49.06213724773383 33.452358972602774 -10.087903193945328 #
face $-1 $258 $259 $14 $-1 $260 forward single #
loop $-1 $-1 $261 $116 #
plane-surface $-1 -57.053423432058082 0 -10.087903193945328 0 0 1 1 0 0 forward_v I I I I #
coedge $-1 $122 $262 $119 $194 forward $117 $-1 #
coedge $-1 $193 $119 $263 $264 reversed $66 $-1 #
coedge $-1 $119 $192 $120 $196 forward $66 $-1 #
edge $-1 $265 3.1687000206583136 $197 15.092182409940101 $191 $266 forward 7 unknown #
coedge $-1 $121 $120 $201 $267 reversed $41 $-1 #
edge $-1 $268 -66.904717945205533 $197 -50.601412873860305 $193 $269 forward 7 unknown #
vertex $-1 $123 $270 #
straight-curve $-1 18.198154657485162 21.528876583320994 13.261904767781751 -1 0 0 I I #
vertex $-1 $267 $271 #
straight-curve $-1 26.809516380781396 -15.478653646527476 47.771985774898027 0 0.7313536940579346 -0.68199836817093118 I I #
coedge $-1 $263 $125 $195 $267 forward $203 $-1 #
coedge $-1 $125 $272 $127 $206 reversed $203 $-1 #
loop $-1 $-1 $263 $273 #
straight-curve $-1 26.809516380781396 33.452358972602774 71.456681544315899 0 0 -1 I I #
coedge $-1 $274 $127 $275 $276 forward $117 $-1 #
edge $-1 $129 -26.809516380781396 $277 65.044709616382335 $202 $278 forward 7 unknown #
point $-1 26.809516380781396 21.528876583320987 13.261904767781751 #
point $-1 26.809516380781396 33.452358972602774 13.261904767781749 #
face $-1 $279 $280 $15 $-1 $281 forward single #
loop $-1 $-1 $282 $131 #
plane-surface $-1 45.983102249159252 73.242117986522175 142.9133630886318 -1 0 0 0 0.68199836817093118 0.7313536940579346 forward_v I I I I #
loop $-1 $-1 $283 $73 #
coedge $-1 $214 $134 $284 $285 forward $74 $-1 #
coedge $-1 $134 $213 $286 $287 reversed $74 $-1 #
coedge $-1 $288 $289 $134 $216 forward $280 $-1 #
edge $-1 $290 -15.092182409940101 $291 -3.1687000206583136 $215 $292 forward 7 unknown #
edge $-1 $293 1 $293 0 $135 $-1 forward 7 unknown #
vertex $-1 $136 $294 #
ellipse-curve $-1 36.396309314970324 26.042679899042611 6.149767799657857 0 0.68199836817093118 0.7313536940579346 1.5 0 0 1 I I #
point $-1 37.896309314970324 27.490617777961862 7.702491040556577 #
plane-surface $-1 65.044709616382335 0 0 -1 0 0 0 0 1 forward_v I I I I #
coedge $-1 $144 $142 $146 $226 reversed $82 $-1 #
edge $-1 $157 -13.261904767781749 $228 13.261904767781749 $156 $295 forward 7 unknown #
vertex $-1 $226 $296 #
straight-curve $-1 -65.044709616382335 -33.452358972602774 0 0 0 -1 I I #
edge $-1 $224 -33.452358972602774 $228 33.452358972602774 $222 $297 forward 7 unknown #
straight-curve $-1 0 -33.452358972602774 -13.261904767781749 -1 0 0 I I #
vertex $-1 $149 $298 #
straight-curve $-1 0 33.452358972602774 -13.261904767781749 1 0 0 I I #
point $-1 65.044709616382335 33.452358972602774 -13.261904767781749 #
point $-1 65.044709616382335 -33.452358972602774 -13.261904767781749 #
straight-curve $-1 -65.044709616382335 0 13.261904767781749 0 -1 0 I I #
point $-1 -65.044709616382335 33.452358972602774 13.261904767781749 #
point $-1 -65.044709616382335 -33.452358972602774 13.261904767781749 #
straight-curve $-1 65.044709616382335 -33.452358972602774 0 0 0 -1 I I #
straight-curve $-1 65.044709616382335 33.452358972602774 0 0 0 -1 I I #
face $-1 $299 $182 $13 $-1 $300 reversed single #
loop $-1 $-1 $172 $166 #
plane-surface $-1 0 0 -13.261904767781749 0 0 1 1 0 0 forward_v I I I I #
coedge $-1 $301 $302 $303 $304 forward $167 $-1 #
coedge $-1 $170 $169 $305 $306 reversed $58 $-1 #
edge $-1 $307 -13.261904767781749 $178 10.087903193945328 $169 $308 forward 7 unknown #
edge $-1 $309 -13.261904767781749 $183 10.087903193945328 $180 $310 forward 7 unknown #
straight-curve $-1 -65.044709616382335 0 -10.087903193945328 0 -1 0 I I #
coedge $-1 $311 $172 $255 $312 forward $238 $-1 #
coedge $-1 $172 $311 $174 $250 forward $238 $-1 #
vertex $-1 $312 $313 #
straight-curve $-1 -49.06213724773383 0 -13.261904767781749 0 1 0 I I #
coedge $-1 $252 $174 $314 $315 reversed $101 $-1 #
edge $-1 $316 -65.044709616382335 $175 49.06213724773383 $174 $317 forward 7 unknown #
point $-1 -49.06213724773383 -33.452358972602774 -13.261904767781749 #
coedge $-1 $177 $249 $302 $318 reversed $101 $-1 #
point $-1 -65.044709616382335 -33.452358972602774 -10.087903193945328 #
coedge $-1 $319 $180 $301 $320 reversed $182 $-1 #
coedge $-1 $181 $319 $245 $312 reversed $182 $-1 #
point $-1 -65.044709616382335 33.452358972602774 -10.087903193945328 #
straight-curve $-1 -49.06213724773383 33.452358972602774 -5.8374519904317692 0 0 1 I I #
face $-1 $321 $322 $14 $-1 $323 reversed single #
loop $-1 $-1 $324 $188 #
plane-surface $-1 -49.06213724773383 0 -11.674903980863538 -1 0 0 0 0 1 forward_v I I I I #
coedge $-1 $325 $326 $327 $328 reversed $189 $-1 #
coedge $-1 $191 $329 $330 $331 forward $117 $-1 #
coedge $-1 $330 $201 $192 $264 forward $203 $-1 #
edge $-1 $268 -69.313604230984453 $265 -58.194776776534148 $263 $332 forward 7 unknown #
vertex $-1 $264 $333 #
straight-curve $-1 45.983102249159252 36.621058993261087 13.261904767781743 0 -1 0 I I #
edge $-1 $199 8.6113617232962341 $268 27.78494759167409 $201 $334 forward 7 unknown #
vertex $-1 $267 $335 #
straight-curve $-1 45.983102249159252 -15.478653646527476 47.771985774898027 0 -0.7313536940579346 0.68199836817093118 I I #
point $-1 45.983102249159252 21.528876583320987 13.261904767781751 #
point $-1 26.809516380781396 33.452358972602781 2.1430773133314389 #
coedge $-1 $202 $336 $337 $338 reversed $203 $-1 #
face $-1 $339 $203 $14 $-1 $340 reversed single #
coedge $-1 $329 $205 $341 $342 forward $117 $-1 #
coedge $-1 $337 $343 $205 $276 reversed $322 $-1 #
edge $-1 $277 -33.452358972602774 $344 33.452358972602774 $275 $345 forward 7 unknown #
vertex $-1 $206 $346 #
straight-curve $-1 0 33.452358972602774 13.261904767781749 -1 0 0 I I #
face $-1 $347 $348 $15 $-1 $349 reversed single #
loop $-1 $-1 $350 $209 #
plane-surface $-1 0 0 13.261904767781749 0 0 1 1 0 0 forward_v I I I I #
coedge $-1 $351 $352 $350 $353 reversed $210 $-1 #
coedge $-1 $354 $284 $289 $355 reversed $212 $-1 #
coedge $-1 $283 $356 $213 $285 reversed $212 $-1 #
edge $-1 $290 50.601412873860305 $357 66.904717945205533 $213 $358 forward 7 unknown #
coedge $-1 $359 $360 $214 $287 forward $361 $-1 #
edge $-1 $291 58.194776776534148 $357 69.313604230984453 $286 $362 forward 7 unknown #
coedge $-1 $363 $215 $360 $364 forward $280 $-1 #
coedge $-1 $215 $350 $283 $355 forward $280 $-1 #
vertex $-1 $355 $365 #
vertex $-1 $364 $366 #
straight-curve $-1 26.809516380781396 36.621058993261087 13.261904767781743 0 1 0 I I #
vertex $-1 $217 $367 #
point $-1 37.896309314970324 26.042679899042611 6.149767799657857 #
straight-curve $-1 -65.044709616382335 33.452358972602774 0 0 0 -1 I I #
point $-1 -65.044709616382335 -33.452358972602774 -13.261904767781749 #
straight-curve $-1 -65.044709616382335 0 -13.261904767781749 0 1 0 I I #
point $-1 -65.044709616382335 33.452358972602774 -13.261904767781749 #
face $-1 $-1 $368 $13 $-1 $369 reversed single #
plane-surface $-1 0 33.452358972602774 0 0 -1 0 0 0 -1 forward_v I I I I #
coedge $-1 $305 $240 $254 $320 forward $167 $-1 #
coedge $-1 $240 $305 $252 $318 forward $167 $-1 #
coedge $-1 $314 $370 $240 $304 reversed $368 $-1 #
edge $-1 $371 -33.452358972602774 $372 33.452358972602774 $303 $373 forward 7 unknown #
coedge $-1 $302 $301 $241 $306 forward $167 $-1 #
edge $-1 $309 -33.452358972602774 $307 33.452358972602774 $241 $374 forward 7 unknown #
vertex $-1 $306 $375 #
straight-curve $-1 -65.044709616382335 -33.452358972602774 0 0 0 -1 I I #
vertex $-1 $320 $376 #
straight-curve $-1 -65.044709616382335 33.452358972602774 0 0 0 -1 I I #
coedge $-1 $246 $245 $377 $378 forward $238 $-1 #
edge $-1 $247 -49.06213724773383 $379 65.044709616382335 $255 $380 forward 7 unknown #
point $-1 -49.06213724773383 33.452358972602774 -13.261904767781749 #
coedge $-1 $377 $303 $249 $315 forward $368 $-1 #
edge $-1 $371 -13.261904767781749 $316 13.261904767781749 $314 $381 forward 7 unknown #
vertex $-1 $315 $382 #
straight-curve $-1 0 -33.452358972602774 -13.261904767781749 -1 0 0 I I #
edge $-1 $307 -65.044709616382335 $371 65.044709616382335 $252 $383 forward 7 unknown #
coedge $-1 $255 $254 $370 $384 forward $182 $-1 #
edge $-1 $372 -65.044709616382335 $309 65.044709616382335 $254 $385 forward 7 unknown #
face $-1 $386 $387 $14 $-1 $388 reversed single #
loop $-1 $-1 $389 $258 #
plane-surface $-1 -65.044709616382335 0 0 1 0 0 0 0 -1 forward_v I I I I #
coedge $-1 $327 $390 $391 $392 reversed $259 $-1 #
coedge $-1 $393 $261 $394 $395 reversed $189 $-1 #
coedge $-1 $261 $393 $336 $396 reversed $189 $-1 #
coedge $-1 $397 $324 $261 $328 forward $259 $-1 #
edge $-1 $398 -33.452358972602774 $399 33.452358972602774 $327 $400 forward 7 unknown #
coedge $-1 $262 $274 $401 $402 forward $117 $-1 #
coedge $-1 $403 $263 $262 $331 reversed $203 $-1 #
edge $-1 $404 -65.044709616382335 $265 -45.983102249159252 $330 $278 forward 7 unknown #
straight-curve $-1 45.983102249159252 33.452358972602774 71.456681544315899 0 0 1 I I #
point $-1 45.983102249159252 33.452358972602774 13.261904767781749 #
straight-curve $-1 18.198154657485162 33.452358972602774 2.143077313331446 1 0 0 I I #
point $-1 45.983102249159252 33.452358972602781 2.1430773133314389 #
coedge $-1 $272 $405 $326 $396 forward $203 $-1 #
coedge $-1 $389 $275 $272 $338 forward $322 $-1 #
edge $-1 $277 -13.261904767781749 $406 10.087903193945328 $272 $407 forward 7 unknown #
face $-1 $-1 $408 $14 $-1 $409 reversed single #
plane-surface $-1 0 33.452358972602774 0 0 -1 0 0 0 -1 forward_v I I I I #
coedge $-1 $410 $411 $274 $342 reversed $387 $-1 #
edge $-1 $344 -65.044709616382335 $412 65.044709616382335 $341 $413 forward 7 unknown #
coedge $-1 $275 $389 $410 $414 reversed $322 $-1 #
vertex $-1 $276 $415 #
straight-curve $-1 -65.044709616382335 0 13.261904767781749 0 -1 0 I I #
point $-1 -65.044709616382335 33.452358972602774 13.261904767781749 #
face $-1 $416 $417 $15 $-1 $418 forward single #
loop $-1 $-1 $419 $279 #
plane-surface $-1 -57.053423432058082 0 -10.087903193945328 0 0 1 1 0 0 forward_v I I I I #
coedge $-1 $289 $420 $282 $353 forward $280 $-1 #
coedge $-1 $352 $282 $421 $422 reversed $210 $-1 #
coedge $-1 $282 $351 $354 $423 forward $210 $-1 #
edge $-1 $424 3.1687000206583136 $425 15.092182409940101 $350 $426 forward 7 unknown #
coedge $-1 $356 $283 $352 $423 reversed $212 $-1 #
edge $-1 $425 -27.78494759167409 $290 -8.6113617232962341 $289 $427 forward 7 unknown #
coedge $-1 $284 $354 $359 $428 reversed $212 $-1 #
vertex $-1 $428 $429 #
straight-curve $-1 26.809516380781396 -15.478653646527476 47.771985774898027 0 0.7313536940579346 -0.68199836817093118 I I #
coedge $-1 $421 $286 $356 $428 forward $361 $-1 #
coedge $-1 $286 $430 $288 $364 reversed $361 $-1 #
loop $-1 $-1 $421 $431 #
straight-curve $-1 26.809516380781396 33.452358972602774 71.456681544315899 0 0 -1 I I #
coedge $-1 $432 $288 $433 $434 forward $280 $-1 #
edge $-1 $291 -26.809516380781396 $435 65.044709616382335 $360 $436 forward 7 unknown #
point $-1 26.809516380781396 21.528876583320987 13.261904767781751 #
point $-1 26.809516380781396 33.452358972602774 13.261904767781749 #
point $-1 36.396309314970324 25.019682346786212 5.0527372585709553 #
loop $-1 $-1 $314 $299 #
plane-surface $-1 65.044709616382335 0 0 -1 0 0 0 0 1 forward_v I I I I #
coedge $-1 $303 $377 $319 $384 reversed $368 $-1 #
vertex $-1 $304 $437 #
vertex $-1 $304 $438 #
straight-curve $-1 65.044709616382335 0 13.261904767781749 0 1 0 I I #
straight-curve $-1 -65.044709616382335 0 13.261904767781749 0 -1 0 I I #
point $-1 -65.044709616382335 -33.452358972602774 13.261904767781749 #
point $-1 -65.044709616382335 33.452358972602774 13.261904767781749 #
coedge $-1 $370 $314 $311 $378 reversed $368 $-1 #
edge $-1 $379 -33.452358972602774 $316 33.452358972602774 $377 $439 forward 7 unknown #
vertex $-1 $378 $440 #
straight-curve $-1 0 33.452358972602774 -13.261904767781749 1 0 0 I I #
straight-curve $-1 65.044709616382335 -33.452358972602774 0 0 0 -1 I I #
point $-1 65.044709616382335 -33.452358972602774 -13.261904767781749 #
straight-curve $-1 0 -33.452358972602774 13.261904767781749 1 0 0 I I #
edge $-1 $372 -13.261904767781749 $379 13.261904767781749 $370 $441 forward 7 unknown #
straight-curve $-1 0 33.452358972602774 13.261904767781749 -1 0 0 I I #
face $-1 $273 $442 $14 $-1 $443 reversed single #
loop $-1 $-1 $394 $321 #
plane-surface $-1 0 -33.452358972602774 0 0 1 0 0 0 1 forward_v I I I I #
coedge $-1 $343 $337 $393 $444 forward $322 $-1 #
coedge $-1 $324 $397 $445 $446 reversed $259 $-1 #
coedge $-1 $447 $394 $324 $392 forward $387 $-1 #
edge $-1 $398 4.2504512035135589 $448 7.4244527773499795 $391 $449 forward 7 unknown #
coedge $-1 $326 $325 $389 $444 reversed $189 $-1 #
coedge $-1 $391 $410 $325 $395 forward $387 $-1 #
edge $-1 $450 -36.517997900353294 $398 -20.535425531704789 $394 $451 forward 7 unknown #
edge $-1 $399 20.535425531704789 $406 36.517997900353294 $336 $452 forward 7 unknown #
coedge $-1 $390 $327 $405 $453 reversed $259 $-1 #
vertex $-1 $395 $454 #
vertex $-1 $396 $455 #
straight-curve $-1 -49.06213724773383 0 -10.087903193945328 0 1 0 I I #
coedge $-1 $456 $457 $329 $402 reversed $408 $-1 #
edge $-1 $412 -33.452358972602774 $404 33.452358972602774 $401 $458 forward 7 unknown #
coedge $-1 $459 $330 $457 $460 forward $203 $-1 #
vertex $-1 $402 $461 #
coedge $-1 $336 $459 $397 $453 forward $203 $-1 #
vertex $-1 $444 $462 #
straight-curve $-1 -65.044709616382335 33.452358972602774 0 0 0 -1 I I #
loop $-1 $-1 $456 $339 #
plane-surface $-1 65.044709616382335 0 0 -1 0 0 0 0 1 forward_v I I I I #
coedge $-1 $394 $341 $343 $414 forward $387 $-1 #
coedge $-1 $341 $447 $456 $463 reversed $387 $-1 #
vertex $-1 $402 $464 #
straight-curve $-1 0 -33.452358972602774 13.261904767781749 1 0 0 I I #
edge $-1 $344 -13.261904767781749 $450 10.087903193945328 $343 $465 forward 7 unknown #
point $-1 -65.044709616382335 -33.452358972602774 13.261904767781749 #
face $-1 $466 $467 $15 $-1 $468 reversed single #
loop $-1 $-1 $469 $347 #
plane-surface $-1 -49.06213724773383 0 -11.674903980863538 -1 0 0 0 0 1 forward_v I I I I #
coedge $-1 $470 $471 $472 $473 reversed $348 $-1 #
coedge $-1 $350 $474 $475 $476 forward $280 $-1 #
coedge $-1 $475 $359 $351 $422 forward $361 $-1 #
edge $-1 $477 -69.313604230984453 $424 -58.194776776534148 $421 $478 forward 7 unknown #
edge $-1 $477 -66.904717945205533 $425 -50.601412873860305 $352 $479 forward 7 unknown #
vertex $-1 $422 $480 #
vertex $-1 $355 $481 #
straight-curve $-1 45.983102249159252 36.621058993261087 13.261904767781743 0 -1 0 I I #
straight-curve $-1 18.198154657485162 21.528876583320994 13.261904767781751 -1 0 0 I I #
edge $-1 $357 8.6113617232962341 $477 27.78494759167409 $359 $482 forward 7 unknown #
point $-1 26.809516380781396 33.452358972602781 2.1430773133314389 #
coedge $-1 $360 $483 $484 $485 reversed $361 $-1 #
face $-1 $486 $361 $15 $-1 $487 reversed single #
coedge $-1 $474 $363 $488 $489 forward $280 $-1 #
coedge $-1 $484 $490 $363 $434 reversed $467 $-1 #
edge $-1 $435 -33.452358972602774 $491 33.452358972602774 $433 $492 forward 7 unknown #
vertex $-1 $364 $493 #
straight-curve $-1 0 33.452358972602774 13.261904767781749 -1 0 0 I I #
point $-1 65.044709616382335 -33.452358972602774 13.261904767781749 #
point $-1 65.044709616382335 33.452358972602774 13.261904767781749 #
straight-curve $-1 65.044709616382335 0 -13.261904767781749 0 -1 0 I I #
point $-1 65.044709616382335 33.452358972602774 -13.261904767781749 #
straight-curve $-1 65.044709616382335 33.452358972602774 0 0 0 -1 I I #
loop $-1 $-1 $445 $386 #
plane-surface $-1 0 0 -13.261904767781749 0 0 1 1 0 0 forward_v I I I I #
edge $-1 $406 -33.452358972602774 $450 33.452358972602774 $389 $494 forward 7 unknown #
coedge $-1 $495 $496 $390 $446 forward $442 $-1 #
edge $-1 $448 -33.452358972602774 $497 33.452358972602774 $445 $498 forward 7 unknown #
coedge $-1 $411 $391 $496 $499 reversed $387 $-1 #
vertex $-1 $392 $500 #
straight-curve $-1 -49.06213724773383 -33.452358972602774 -5.8374519904317692 0 0 -1 I I #
vertex $-1 $395 $501 #
straight-curve $-1 -28.526711716029041 -33.452358972602774 -10.087903193945328 1 0 0 I I #
straight-curve $-1 -28.526711716029041 33.452358972602774 -10.087903193945328 -1 0 0 I I #
edge $-1 $497 -7.4244527773499795 $399 -4.2504512035135589 $405 $502 forward 7 unknown #
point $-1 -49.06213724773383 -33.452358972602774 -10.087903193945328 #
point $-1 -49.06213724773383 33.452358972602774 -10.087903193945328 #
coedge $-1 $503 $401 $411 $463 forward $408 $-1 #
coedge $-1 $401 $503 $403 $460 reversed $408 $-1 #
straight-curve $-1 65.044709616382335 0 13.261904767781749 0 1 0 I I #
coedge $-1 $405 $403 $495 $504 reversed $203 $-1 #
edge $-1 $404 -13.261904767781749 $505 13.261904767781749 $457 $506 forward 7 unknown #
point $-1 65.044709616382335 33.452358972602774 13.261904767781749 #
point $-1 -65.044709616382335 33.452358972602774 -10.087903193945328 #
edge $-1 $412 -13.261904767781749 $507 13.261904767781749 $456 $508 forward 7 unknown #
point $-1 65.044709616382335 -33.452358972602774 13.261904767781749 #
straight-curve $-1 -65.044709616382335 -33.452358972602774 0 0 0 -1 I I #
face $-1 $509 $510 $15 $-1 $511 reversed single #
loop $-1 $-1 $512 $416 #
plane-surface $-1 -65.044709616382335 0 0 1 0 0 0 0 -1 forward_v I I I I #
coedge $-1 $472 $513 $514 $515 reversed $417 $-1 #
coedge $-1 $516 $419 $517 $518 reversed $348 $-1 #
coedge $-1 $419 $516 $483 $519 reversed $348 $-1 #
coedge $-1 $520 $469 $419 $473 forward $417 $-1 #
edge $-1 $521 -33.452358972602774 $522 33.452358972602774 $472 $523 forward 7 unknown #
coedge $-1 $420 $432 $524 $525 forward $280 $-1 #
coedge $-1 $526 $421 $420 $476 reversed $361 $-1 #
edge $-1 $527 -65.044709616382335 $424 -45.983102249159252 $475 $436 forward 7 unknown #
vertex $-1 $428 $528 #
straight-curve $-1 45.983102249159252 33.452358972602774 71.456681544315899 0 0 1 I I #
straight-curve $-1 45.983102249159252 -15.478653646527476 47.771985774898027 0 -0.7313536940579346 0.68199836817093118 I I #
point $-1 45.983102249159252 33.452358972602774 13.261904767781749 #
point $-1 45.983102249159252 21.528876583320987 13.261904767781751 #
straight-curve $-1 18.198154657485162 33.452358972602774 2.143077313331446 1 0 0 I I #
coedge $-1 $430 $529 $471 $519 forward $361 $-1 #
coedge $-1 $512 $433 $430 $485 forward $467 $-1 #
edge $-1 $435 -13.261904767781749 $530 10.087903193945328 $430 $531 forward 7 unknown #
face $-1 $-1 $532 $15 $-1 $533 reversed single #
plane-surface $-1 0 33.452358972602774 0 0 -1 0 0 0 -1 forward_v I I I I #
coedge $-1 $534 $535 $432 $489 reversed $510 $-1 #
edge $-1 $491 -65.044709616382335 $536 65.044709616382335 $488 $537 forward 7 unknown #
coedge $-1 $433 $512 $534 $538 reversed $467 $-1 #
vertex $-1 $434 $539 #
straight-curve $-1 -65.044709616382335 0 13.261904767781749 0 -1 0 I I #
point $-1 -65.044709616382335 33.452358972602774 13.261904767781749 #
straight-curve $-1 -65.044709616382335 0 -10.087903193945328 0 -1 0 I I #
coedge $-1 $540 $445 $459 $504 forward $442 $-1 #
coedge $-1 $445 $540 $447 $499 forward $442 $-1 #
vertex $-1 $504 $541 #
straight-curve $-1 -49.06213724773383 0 -13.261904767781749 0 1 0 I I #
edge $-1 $507 -65.044709616382335 $448 49.06213724773383 $447 $542 forward 7 unknown #
point $-1 -49.06213724773383 -33.452358972602774 -13.261904767781749 #
point $-1 -65.044709616382335 -33.452358972602774 -10.087903193945328 #
straight-curve $-1 -49.06213724773383 33.452358972602774 -5.8374519904317692 0 0 1 I I #
coedge $-1 $457 $456 $540 $543 reversed $408 $-1 #
edge $-1 $497 -49.06213724773383 $505 65.044709616382335 $459 $544 forward 7 unknown #
vertex $-1 $543 $545 #
straight-curve $-1 65.044709616382335 33.452358972602774 0 0 0 -1 I I #
vertex $-1 $463 $546 #
straight-curve $-1 65.044709616382335 -33.452358972602774 0 0 0 -1 I I #
face $-1 $431 $547 $15 $-1 $548 reversed single #
loop $-1 $-1 $517 $466 #
plane-surface $-1 0 -33.452358972602774 0 0 1 0 0 0 1 forward_v I I I I #
coedge $-1 $490 $484 $516 $549 forward $467 $-1 #
coedge $-1 $469 $520 $550 $551 reversed $417 $-1 #
coedge $-1 $552 $517 $469 $515 forward $510 $-1 #
edge $-1 $521 4.2504512035135589 $553 7.4244527773499795 $514 $554 forward 7 unknown #
coedge $-1 $471 $470 $512 $549 reversed $348 $-1 #
coedge $-1 $514 $534 $470 $518 forward $510 $-1 #
edge $-1 $555 -36.517997900353294 $521 -20.535425531704789 $517 $556 forward 7 unknown #
edge $-1 $522 20.535425531704789 $530 36.517997900353294 $483 $557 forward 7 unknown #
coedge $-1 $513 $472 $529 $558 reversed $417 $-1 #
vertex $-1 $518 $559 #
vertex $-1 $519 $560 #
straight-curve $-1 -49.06213724773383 0 -10.087903193945328 0 1 0 I I #
coedge $-1 $561 $562 $474 $525 reversed $532 $-1 #
edge $-1 $536 -33.452358972602774 $527 33.452358972602774 $524 $563 forward 7 unknown #
coedge $-1 $564 $475 $562 $565 forward $361 $-1 #
vertex $-1 $525 $566 #
point $-1 45.983102249159252 33.452358972602781 2.1430773133314389 #
coedge $-1 $483 $564 $520 $558 forward $361 $-1 #
vertex $-1 $549 $567 #
straight-curve $-1 -65.044709616382335 33.452358972602774 0 0 0 -1 I I #
loop $-1 $-1 $561 $486 #
plane-surface $-1 65.044709616382335 0 0 -1 0 0 0 0 1 forward_v I I I I #
coedge $-1 $517 $488 $490 $538 forward $510 $-1 #
coedge $-1 $488 $552 $561 $568 reversed $510 $-1 #
vertex $-1 $525 $569 #
straight-curve $-1 0 -33.452358972602774 13.261904767781749 1 0 0 I I #
edge $-1 $491 -13.261904767781749 $555 10.087903193945328 $490 $570 forward 7 unknown #
point $-1 -65.044709616382335 -33.452358972602774 13.261904767781749 #
coedge $-1 $496 $495 $503 $543 forward $442 $-1 #
point $-1 -49.06213724773383 33.452358972602774 -13.261904767781749 #
straight-curve $-1 0 -33.452358972602774 -13.261904767781749 -1 0 0 I I #
edge $-1 $505 -33.452358972602774 $507 33.452358972602774 $503 $571 forward 7 unknown #
straight-curve $-1 0 33.452358972602774 -13.261904767781749 1 0 0 I I #
point $-1 65.044709616382335 33.452358972602774 -13.261904767781749 #
point $-1 65.044709616382335 -33.452358972602774 -13.261904767781749 #
loop $-1 $-1 $550 $509 #
plane-surface $-1 0 0 -13.261904767781749 0 0 1 1 0 0 forward_v I I I I #
edge $-1 $530 -33.452358972602774 $555 33.452358972602774 $512 $572 forward 7 unknown #
coedge $-1 $573 $574 $513 $551 forward $547 $-1 #
edge $-1 $553 -33.452358972602774 $575 33.452358972602774 $550 $576 forward 7 unknown #
coedge $-1 $535 $514 $574 $577 reversed $510 $-1 #
vertex $-1 $515 $578 #
straight-curve $-1 -49.06213724773383 -33.452358972602774 -5.8374519904317692 0 0 -1 I I #
vertex $-1 $518 $579 #
straight-curve $-1 -28.526711716029041 -33.452358972602774 -10.087903193945328 1 0 0 I I #
straight-curve $-1 -28.526711716029041 33.452358972602774 -10.087903193945328 -1 0 0 I I #
edge $-1 $575 -7.4244527773499795 $522 -4.2504512035135589 $529 $580 forward 7 unknown #
point $-1 -49.06213724773383 -33.452358972602774 -10.087903193945328 #
point $-1 -49.06213724773383 33.452358972602774 -10.087903193945328 #
coedge $-1 $581 $524 $535 $568 forward $532 $-1 #
coedge $-1 $524 $581 $526 $565 reversed $532 $-1 #
straight-curve $-1 65.044709616382335 0 13.261904767781749 0 1 0 I I #
coedge $-1 $529 $526 $573 $582 reversed $361 $-1 #
edge $-1 $527 -13.261904767781749 $583 13.261904767781749 $562 $584 forward 7 unknown #
point $-1 65.044709616382335 33.452358972602774 13.261904767781749 #
point $-1 -65.044709616382335 33.452358972602774 -10.087903193945328 #
edge $-1 $536 -13.261904767781749 $585 13.261904767781749 $561 $586 forward 7 unknown #
point $-1 65.044709616382335 -33.452358972602774 13.261904767781749 #
straight-curve $-1 -65.044709616382335 -33.452358972602774 0 0 0 -1 I I #
straight-curve $-1 65.044709616382335 0 -13.261904767781749 0 -1 0 I I #
straight-curve $-1 -65.044709616382335 0 -10.087903193945328 0 -1 0 I I #
coedge $-1 $587 $550 $564 $582 forward $547 $-1 #
coedge $-1 $550 $587 $552 $577 forward $547 $-1 #
vertex $-1 $582 $588 #
straight-curve $-1 -49.06213724773383 0 -13.261904767781749 0 1 0 I I #
edge $-1 $585 -65.044709616382335 $553 49.06213724773383 $552 $589 forward 7 unknown #
point $-1 -49.06213724773383 -33.452358972602774 -13.261904767781749 #
point $-1 -65.044709616382335 -33.452358972602774 -10.087903193945328 #
straight-curve $-1 -49.06213724773383 33.452358972602774 -5.8374519904317692 0 0 1 I I #
coedge $-1 $562 $561 $587 $590 reversed $532 $-1 #
edge $-1 $575 -49.06213724773383 $583 65.044709616382335 $564 $591 forward 7 unknown #
vertex $-1 $590 $592 #
straight-curve $-1 65.044709616382335 33.452358972602774 0 0 0 -1 I I #
vertex $-1 $568 $593 #
straight-curve $-1 65.044709616382335 -33.452358972602774 0 0 0 -1 I I #
coedge $-1 $574 $573 $581 $590 forward $547 $-1 #
point $-1 -49.06213724773383 33.452358972602774 -13.261904767781749 #
straight-curve $-1 0 -33.452358972602774 -13.261904767781749 -1 0 0 I I #
edge $-1 $583 -33.452358972602774 $585 33.452358972602774 $581 $594 forward 7 unknown #
straight-curve $-1 0 33.452358972602774 -13.261904767781749 1 0 0 I I #
point $-1 65.044709616382335 33.452358972602774 -13.261904767781749 #
point $-1 65.044709616382335 -33.452358972602774 -13.261904767781749 #
straight-curve $-1 65.044709616382335 0 -13.261904767781749 0 -1 0 I I #
End-of-ACIS-data 