500 0 3 0           
7 Unknown 11 ACIS 5.0 NT 24 Fri Mar 26 03:27:28 1999 
-1 9.9999999999999995e-007 1e-010 
body $-1 $3 $-1 $4 #
body $-1 $5 $-1 $6 #
body $-1 $7 $-1 $8 #
lump $-1 $-1 $9 $0 #
transform $-1 1 0 0 0 1 0 0 0 1 66.34846034119694 42.525825655073213 18.9365618498237 1 rotate no_reflect no_shear #
lump $-1 $-1 $10 $1 #
transform $-1 1 0 0 0 1 0 0 0 1 66.34846034119694 42.525825655073213 18.9365618498237 1 rotate no_reflect no_shear #
lump $-1 $-1 $11 $2 #
transform $-1 1 0 0 0 1 0 0 0 1 66.34846034119694 42.525825655073213 18.9365618498237 1 rotate no_reflect no_shear #
shell $-1 $-1 $-1 $12 $-1 $3 #
shell $-1 $-1 $-1 $13 $-1 $5 #
shell $-1 $-1 $-1 $14 $-1 $7 #
face $-1 $15 $16 $9 $-1 $17 forward single #
face $-1 $18 $19 $10 $-1 $20 reversed single #
face $-1 $21 $22 $11 $-1 $23 forward single #
face $-1 $24 $25 $9 $-1 $26 reversed single #
loop $-1 $-1 $27 $12 #
plane-surface $-1 0 0 18.9365618498237 0 0 1 1 0 0 forward_v I I I I #
face $-1 $28 $29 $10 $-1 $30 reversed single #
loop $-1 $-1 $31 $13 #
plane-surface $-1 53.969097507004747 -42.525825655073206 15.673927388356205 0 -0.82903758062907751 0.55919289150049634 1 0 0 forward_v I I I I #
face $-1 $32 $33 $11 $-1 $34 forward single #
loop $-1 $35 $36 $14 #
cone-surface $-1 53.969097507004733 -41.006706316199981 17.022772597235157 0 0.82903758062907751 -0.55919289150049634 0.5 0 0 1 I I 0 1 0.5 forward I I I I #
face $-1 $37 $38 $9 $-1 $39 reversed single #
loop $-1 $-1 $40 $15 #
plane-surface $-1 0 0 -18.9365618498237 0 0 1 1 0 0 forward_v I I I I #
coedge $-1 $41 $42 $43 $44 forward $16 $-1 #
face $-1 $45 $46 $10 $-1 $47 reversed single #
loop $-1 $-1 $48 $18 #
plane-surface $-1 41.589734672812547 -152.53655973453363 89.87710215795606 1 0 0 0 0.82903758062907751 -0.55919289150049634 forward_v I I I I #
coedge $-1 $49 $50 $51 $52 reversed $19 $-1 #
face $-1 $-1 $53 $11 $-1 $54 forward single #
loop $-1 $55 $56 $21 #
cone-surface $-1 53.969097507004733 -40.380664913700798 16.600502352505234 0 0.82903758062907751 -0.55919289150049634 0.25 0 0 1 I I -0.70710678118654746 0.70710678118654746 0.25 forward I I I I #
loop $-1 $-1 $57 $14 #
coedge $-1 $36 $36 $58 $59 reversed $22 $-1 #
face $-1 $60 $61 $9 $-1 $62 reversed single #
loop $-1 $-1 $63 $24 #
plane-surface $-1 0 -42.525825655073213 0 0 1 0 0 0 1 forward_v I I I I #
coedge $-1 $64 $65 $66 $67 forward $25 $-1 #
coedge $-1 $68 $27 $69 $70 forward $16 $-1 #
coedge $-1 $27 $68 $71 $72 forward $16 $-1 #
coedge $-1 $73 $74 $27 $44 reversed $75 $-1 #
edge $-1 $76 -42.525825655073213 $77 42.525825655073213 $43 $78 forward 7 unknown #
face $-1 $79 $80 $10 $-1 $81 forward single #
loop $-1 $-1 $82 $28 #
plane-surface $-1 0 -42.525825655073213 0 0 1 0 0 0 1 forward_v I I I I #
coedge $-1 $83 $84 $85 $86 reversed $29 $-1 #
coedge $-1 $87 $31 $88 $89 reversed $19 $-1 #
coedge $-1 $31 $87 $83 $90 forward $19 $-1 #
coedge $-1 $85 $91 $31 $52 forward $80 $-1 #
edge $-1 $92 -39.363911587694581 $93 -14.605185919310173 $51 $94 forward 7 unknown #
loop $-1 $-1 $58 $32 #
plane-surface $-1 53.969097507004747 -42.525825655073206 15.673927388356205 0 -0.82903758062907751 0.55919289150049634 1 0 0 forward_v I I I I #
loop $-1 $-1 $95 $21 #
coedge $-1 $56 $56 $57 $96 reversed $33 $-1 #
coedge $-1 $57 $57 $56 $96 forward $35 $-1 #
coedge $-1 $58 $58 $36 $59 forward $53 $-1 #
edge $-1 $97 9.7253899787563103e-015 $97 6.2831853071796102 $58 $98 forward 7 unknown #
face $-1 $99 $100 $9 $-1 $101 reversed single #
loop $-1 $-1 $102 $37 #
plane-surface $-1 -66.34846034119694 0 0 1 0 0 0 0 -1 forward_v I I I I #
coedge $-1 $103 $71 $104 $105 forward $38 $-1 #
coedge $-1 $106 $40 $103 $107 forward $25 $-1 #
coedge $-1 $40 $106 $108 $109 forward $25 $-1 #
coedge $-1 $74 $73 $40 $67 reversed $75 $-1 #
edge $-1 $110 -42.525825655073213 $111 42.525825655073213 $66 $112 forward 7 unknown #
coedge $-1 $42 $41 $113 $114 forward $16 $-1 #
coedge $-1 $115 $116 $41 $70 reversed $100 $-1 #
edge $-1 $77 -66.34846034119694 $117 66.34846034119694 $69 $118 forward 7 unknown #
coedge $-1 $63 $119 $42 $72 reversed $38 $-1 #
edge $-1 $120 -66.34846034119694 $76 66.34846034119694 $71 $121 forward 7 unknown #
coedge $-1 $66 $43 $119 $122 forward $75 $-1 #
coedge $-1 $43 $66 $115 $123 reversed $75 $-1 #
loop $-1 $-1 $73 $99 #
vertex $-1 $44 $124 #
vertex $-1 $44 $125 #
straight-curve $-1 66.34846034119694 0 18.9365618498237 0 1 0 I I #
face $-1 $-1 $126 $10 $-1 $127 reversed single #
loop $-1 $-1 $85 $45 #
plane-surface $-1 0 0 18.9365618498237 0 0 1 1 0 0 forward_v I I I I #
coedge $-1 $128 $129 $84 $130 forward $46 $-1 #
coedge $-1 $84 $48 $50 $90 reversed $29 $-1 #
coedge $-1 $48 $83 $82 $130 reversed $29 $-1 #
coedge $-1 $131 $51 $48 $86 forward $80 $-1 #
edge $-1 $93 -35.943128875256264 $132 -33.7424542121936 $85 $133 forward 7 unknown #
coedge $-1 $50 $49 $128 $134 reversed $19 $-1 #
coedge $-1 $135 $136 $49 $89 forward $126 $-1 #
edge $-1 $137 -5.3929322852538668 $92 -1.4574840767519004 $88 $138 forward 7 unknown #
edge $-1 $139 -1.2809303928265426e-014 $93 3.9354482085019535 $83 $140 forward 7 unknown #
coedge $-1 $51 $131 $135 $141 forward $80 $-1 #
vertex $-1 $89 $142 #
vertex $-1 $52 $143 #
straight-curve $-1 26.984548753502374 -40.325150992010556 18.9365618498237 -1 0 0 I I #
coedge $-1 $95 $95 $-1 $144 reversed $55 $-1 #
edge $-1 $145 0 $145 6.2831853071796004 $56 $146 forward 7 unknown #
vertex $-1 $59 $147 #
ellipse-curve $-1 53.969097507004733 -41.425488323541884 17.305244619089947 0 -0.82903758062907751 0.55919289150049634 0.5 0 0 1 I I #
face $-1 $-1 $75 $9 $-1 $148 reversed single #
loop $-1 $-1 $115 $60 #
plane-surface $-1 0 42.525825655073213 0 0 -1 0 0 0 -1 forward_v I I I I #
coedge $-1 $149 $113 $116 $150 forward $61 $-1 #
coedge $-1 $119 $63 $64 $107 reversed $38 $-1 #
coedge $-1 $113 $149 $63 $105 reversed $61 $-1 #
edge $-1 $120 -18.9365618498237 $151 18.9365618498237 $104 $152 forward 7 unknown #
coedge $-1 $65 $64 $149 $153 forward $25 $-1 #
edge $-1 $111 -66.34846034119694 $151 66.34846034119694 $103 $154 forward 7 unknown #
coedge $-1 $116 $115 $65 $109 reversed $100 $-1 #
edge $-1 $155 -66.34846034119694 $110 66.34846034119694 $108 $156 forward 7 unknown #
vertex $-1 $67 $157 #
vertex $-1 $122 $158 #
straight-curve $-1 66.34846034119694 0 -18.9365618498237 0 -1 0 I I #
coedge $-1 $102 $104 $68 $114 reversed $61 $-1 #
edge $-1 $117 -42.525825655073213 $120 42.525825655073213 $113 $159 forward 7 unknown #
coedge $-1 $108 $69 $74 $123 forward $100 $-1 #
coedge $-1 $69 $108 $102 $150 reversed $100 $-1 #
vertex $-1 $70 $160 #
straight-curve $-1 0 42.525825655073213 18.9365618498237 -1 0 0 I I #
coedge $-1 $71 $103 $73 $122 reversed $38 $-1 #
vertex $-1 $114 $161 #
straight-curve $-1 0 -42.525825655073213 18.9365618498237 1 0 0 I I #
edge $-1 $76 -18.9365618498237 $111 18.9365618498237 $73 $162 forward 7 unknown #
edge $-1 $77 -18.9365618498237 $110 18.9365618498237 $74 $163 forward 7 unknown #
point $-1 66.34846034119694 -42.525825655073213 18.9365618498237 #
point $-1 66.34846034119694 42.525825655073213 18.9365618498237 #
loop $-1 $-1 $88 $79 #
plane-surface $-1 66.34846034119694 0 0 -1 0 0 0 0 1 forward_v I I I I #
coedge $-1 $164 $82 $87 $134 forward $46 $-1 #
coedge $-1 $82 $164 $131 $165 reversed $46 $-1 #
edge $-1 $132 26.001989229154329 $139 29.264623690621836 $82 $166 forward 7 unknown #
coedge $-1 $91 $85 $129 $165 forward $80 $-1 #
vertex $-1 $165 $167 #
straight-curve $-1 41.589734672812547 -76.268279867266813 18.936561849823697 0 -1 0 I I #
edge $-1 $139 14.605185919310173 $137 39.363911587694581 $128 $168 forward 7 unknown #
coedge $-1 $136 $88 $91 $141 reversed $126 $-1 #
coedge $-1 $88 $135 $164 $169 forward $126 $-1 #
vertex $-1 $134 $170 #
straight-curve $-1 66.34846034119694 -39.510136256815727 20.144870922619504 0 0.55919289150049634 0.82903758062907751 I I #
vertex $-1 $134 $171 #
straight-curve $-1 41.589734672812547 -42.525825655073206 15.673927388356205 0 0.55919289150049634 0.82903758062907751 I I #
edge $-1 $172 -42.525825655073213 $92 -40.325150992010549 $135 $173 forward 7 unknown #
point $-1 66.348460341196954 -40.325150992010549 18.9365618498237 #
point $-1 41.589734672812547 -40.325150992010549 18.9365618498237 #
edge $-1 $174 1 $174 0 $95 $-1 forward 7 unknown #
vertex $-1 $96 $175 #
ellipse-curve $-1 53.969097507004733 -40.587924308858071 16.74030057538036 0 -0.82903758062907751 0.55919289150049634 0.5 0 0 1 I I #
point $-1 54.469097507004733 -41.425488323541892 17.305244619089958 #
plane-surface $-1 66.34846034119694 0 0 -1 0 0 0 0 1 forward_v I I I I #
coedge $-1 $104 $102 $106 $153 reversed $61 $-1 #
edge $-1 $117 -18.9365618498237 $155 18.9365618498237 $116 $176 forward 7 unknown #
vertex $-1 $153 $177 #
straight-curve $-1 -66.34846034119694 -42.525825655073213 0 0 0 -1 I I #
edge $-1 $151 -42.525825655073213 $155 42.525825655073213 $149 $178 forward 7 unknown #
straight-curve $-1 0 -42.525825655073213 -18.9365618498237 -1 0 0 I I #
vertex $-1 $109 $179 #
straight-curve $-1 0 42.525825655073213 -18.9365618498237 1 0 0 I I #
point $-1 66.34846034119694 42.525825655073213 -18.9365618498237 #
point $-1 66.34846034119694 -42.525825655073213 -18.9365618498237 #
straight-curve $-1 -66.34846034119694 0 18.9365618498237 0 -1 0 I I #
point $-1 -66.34846034119694 42.525825655073213 18.9365618498237 #
point $-1 -66.34846034119694 -42.525825655073213 18.9365618498237 #
straight-curve $-1 66.34846034119694 -42.525825655073213 0 0 0 -1 I I #
straight-curve $-1 66.34846034119694 42.525825655073213 0 0 0 -1 I I #
coedge $-1 $129 $128 $136 $169 reversed $46 $-1 #
edge $-1 $132 41.589734672812547 $172 66.34846034119694 $129 $180 forward 7 unknown #
straight-curve $-1 41.589734672812547 -42.525825655073213 44.93855107897803 0 0 -1 I I #
point $-1 41.589734672812547 -42.525825655073213 18.9365618498237 #
straight-curve $-1 26.984548753502374 -42.525825655073213 15.673927388356185 1 0 0 I I #
edge $-1 $172 -18.9365618498237 $137 -15.673927388356194 $136 $181 forward 7 unknown #
point $-1 66.348460341196954 -42.525825655073213 15.673927388356194 #
point $-1 41.589734672812547 -42.525825655073213 15.673927388356194 #
vertex $-1 $141 $182 #
straight-curve $-1 66.34846034119694 0 18.9365618498237 0 1 0 I I #
vertex $-1 $144 $183 #
point $-1 54.469097507004733 -40.587924308858071 16.74030057538036 #
straight-curve $-1 -66.34846034119694 42.525825655073213 0 0 0 -1 I I #
point $-1 -66.34846034119694 -42.525825655073213 -18.9365618498237 #
straight-curve $-1 -66.34846034119694 0 -18.9365618498237 0 1 0 I I #
point $-1 -66.34846034119694 42.525825655073213 -18.9365618498237 #
straight-curve $-1 0 -42.525825655073213 18.9365618498237 1 0 0 I I #
straight-curve $-1 66.34846034119694 -42.525825655073213 0 0 0 -1 I I #
point $-1 66.34846034119694 -42.525825655073213 18.9365618498237 #
point $-1 53.969097507004733 -40.173405518543525 16.460704129630109 #
End-of-ACIS-data 