500 0 10 0           
7 Unknown 11 ACIS 5.0 NT 24 Thu Mar 25 21:31:22 1999 
-1 9.9999999999999995e-007 1e-010 
body $-1 $10 $-1 $11 #
body $-1 $12 $-1 $13 #
body $-1 $14 $-1 $15 #
body $-1 $16 $-1 $17 #
body $-1 $18 $-1 $19 #
body $-1 $20 $-1 $21 #
body $-1 $22 $-1 $23 #
body $-1 $24 $-1 $25 #
body $-1 $26 $-1 $27 #
body $-1 $28 $-1 $29 #
lump $-1 $-1 $30 $0 #
transform $-1 1 0 0 0 1 0 0 0 1 74.844813379314559 43.836762747025702 21.767473849544697 1 rotate no_reflect no_shear #
lump $-1 $-1 $31 $1 #
transform $-1 1 0 0 0 1 0 0 0 1 74.844813379314559 43.836762747025702 21.767473849544697 1 rotate no_reflect no_shear #
lump $-1 $-1 $32 $2 #
transform $-1 1 0 0 0 1 0 0 0 1 74.844813379314559 43.836762747025702 21.767473849544697 1 rotate no_reflect no_shear #
lump $-1 $-1 $33 $3 #
transform $-1 1 0 0 0 1 0 0 0 1 74.844813379314559 43.836762747025702 21.767473849544697 1 rotate no_reflect no_shear #
lump $-1 $-1 $34 $4 #
transform $-1 1 0 0 0 1 0 0 0 1 74.844813379314559 43.836762747025702 21.767473849544697 1 rotate no_reflect no_shear #
lump $-1 $-1 $35 $5 #
transform $-1 1 0 0 0 1 0 0 0 1 74.844813379314559 43.836762747025702 21.767473849544697 1 rotate no_reflect no_shear #
lump $-1 $-1 $36 $6 #
transform $-1 1 0 0 0 1 0 0 0 1 74.844813379314559 43.836762747025702 21.767473849544697 1 rotate no_reflect no_shear #
lump $-1 $-1 $37 $7 #
transform $-1 1 0 0 0 1 0 0 0 1 74.844813379314559 43.836762747025702 21.767473849544697 1 rotate no_reflect no_shear #
lump $-1 $-1 $38 $8 #
transform $-1 1 0 0 0 1 0 0 0 1 74.844813379314559 43.836762747025702 21.767473849544697 1 rotate no_reflect no_shear #
lump $-1 $-1 $39 $9 #
transform $-1 1 0 0 0 1 0 0 0 1 74.844813379314559 43.836762747025702 21.767473849544697 1 rotate no_reflect no_shear #
shell $-1 $-1 $-1 $40 $-1 $10 #
shell $-1 $-1 $-1 $41 $-1 $12 #
shell $-1 $-1 $-1 $42 $-1 $14 #
shell $-1 $-1 $-1 $43 $-1 $16 #
shell $-1 $-1 $-1 $44 $-1 $18 #
shell $-1 $-1 $-1 $45 $-1 $20 #
shell $-1 $-1 $-1 $46 $-1 $22 #
shell $-1 $-1 $-1 $47 $-1 $24 #
shell $-1 $-1 $-1 $48 $-1 $26 #
shell $-1 $-1 $-1 $49 $-1 $28 #
face $-1 $50 $51 $30 $-1 $52 reversed single #
face $-1 $53 $54 $31 $-1 $55 forward single #
face $-1 $56 $57 $32 $-1 $58 forward single #
face $-1 $59 $60 $33 $-1 $61 reversed single #
face $-1 $62 $63 $34 $-1 $64 forward single #
face $-1 $65 $66 $35 $-1 $67 forward single #
face $-1 $68 $69 $36 $-1 $70 reversed single #
face $-1 $71 $72 $37 $-1 $73 forward single #
face $-1 $74 $75 $38 $-1 $76 forward single #
face $-1 $77 $78 $39 $-1 $79 forward single #
face $-1 $80 $81 $30 $-1 $82 forward single #
loop $-1 $-1 $83 $40 #
plane-surface $-1 74.844813379314559 0 0 -1 0 0 0 0 1 forward_v I I I I #
face $-1 $84 $85 $31 $-1 $86 reversed single #
loop $-1 $-1 $87 $41 #
plane-surface $-1 -74.844813379314559 0 0 1 0 0 0 0 -1 forward_v I I I I #
face $-1 $88 $89 $32 $-1 $90 reversed single #
loop $-1 $-1 $91 $42 #
plane-surface $-1 74.844813379314559 0 0 -1 0 0 0 0 1 forward_v I I I I #
face $-1 $92 $93 $33 $-1 $94 reversed single #
loop $-1 $-1 $95 $43 #
plane-surface $-1 -38.41608277967471 -135.99490035389931 134.40714047659898 -1 0 0 0 -0.61566148304635926 0.78801074757464917 forward_v I I I I #
face $-1 $96 $97 $34 $-1 $98 forward single #
loop $-1 $99 $100 $44 #
cone-surface $-1 -46.379240491972503 -39.964878902096316 18.508595074327665 0 0.61566148304635926 -0.78801074757464917 0.5 0 0 1 I I 0 1 0.5 forward I I I I #
face $-1 $101 $102 $35 $-1 $103 forward single #
loop $-1 $104 $105 $45 #
cone-surface $-1 -41.601345864593824 -39.964878902096316 18.508595074327665 0 0.61566148304635926 -0.78801074757464917 0.5 0 0 1 I I 0 1 0.5 forward I I I I #
face $-1 $106 $107 $36 $-1 $108 reversed single #
loop $-1 $-1 $109 $46 #
plane-surface $-1 20.724962333640811 42.754077150959347 182.17823596018403 1 0 0 0 -0.50000000669873634 -0.8660253999169214 forward_v I I I I #
face $-1 $110 $111 $37 $-1 $112 forward single #
loop $-1 $113 $114 $47 #
cone-surface $-1 25.451824985623006 30.755666761723543 12.171370789853093 0 -0.50000000669873634 -0.8660253999169214 2 0 0 1 I I 0 1 2 forward I I I I #
face $-1 $115 $116 $38 $-1 $117 forward single #
loop $-1 $118 $119 $48 #
cone-surface $-1 32.54211896359628 30.755666761723543 12.171370789853093 0 -0.50000000669873634 -0.8660253999169214 2 0 0 1 I I 0 1 2 forward I I I I #
face $-1 $120 $121 $39 $-1 $122 forward single #
loop $-1 $123 $124 $49 #
cone-surface $-1 39.632412941569555 30.755666761723543 12.171370789853093 0 -0.50000000669873634 -0.8660253999169214 2 0 0 1 I I 0 1 2 forward I I I I #
face $-1 $125 $126 $30 $-1 $127 reversed single #
loop $-1 $-1 $128 $50 #
plane-surface $-1 0 0 21.767473849544697 0 0 1 1 0 0 forward_v I I I I #
coedge $-1 $129 $130 $131 $132 reversed $51 $-1 #
face $-1 $133 $134 $31 $-1 $135 forward single #
loop $-1 $-1 $136 $53 #
plane-surface $-1 0 43.836762747025702 0 0 -1 0 0 0 -1 forward_v I I I I #
coedge $-1 $137 $138 $139 $140 forward $54 $-1 #
face $-1 $141 $142 $32 $-1 $143 forward single #
loop $-1 $-1 $144 $56 #
plane-surface $-1 0 -43.836762747025702 0 0 1 0 0 0 1 forward_v I I I I #
coedge $-1 $145 $146 $147 $148 forward $57 $-1 #
face $-1 $149 $150 $33 $-1 $151 reversed single #
loop $-1 $-1 $152 $59 #
plane-surface $-1 -43.990293178283167 -43.83676274702573 16.450105790361448 0 -0.61566148304635926 0.78801074757464917 1 0 0 forward_v I I I I #
coedge $-1 $153 $154 $155 $156 reversed $60 $-1 #
face $-1 $-1 $157 $34 $-1 $158 forward single #
loop $-1 $159 $160 $62 #
cone-surface $-1 -46.379240491972503 -39.34203999400269 17.711397641808606 0 0.61566148304635926 -0.78801074757464917 0.25 0 0 1 I I -0.70710678118654746 0.70710678118654746 0.25 forward I I I I #
loop $-1 $-1 $161 $44 #
coedge $-1 $100 $100 $162 $163 reversed $63 $-1 #
face $-1 $-1 $164 $35 $-1 $165 forward single #
loop $-1 $166 $167 $65 #
cone-surface $-1 -41.601345864593824 -39.34203999400269 17.711397641808606 0 0.61566148304635926 -0.78801074757464917 0.25 0 0 1 I I -0.70710678118654746 0.70710678118654746 0.25 forward I I I I #
loop $-1 $-1 $168 $45 #
coedge $-1 $105 $105 $169 $170 reversed $66 $-1 #
face $-1 $171 $172 $36 $-1 $173 reversed single #
loop $-1 $-1 $174 $68 #
plane-surface $-1 32.542118963596266 -32.09073723108655 52.543217083127558 0 0.50000000669873634 0.8660253999169214 1 0 0 forward_v I I I I #
coedge $-1 $175 $176 $177 $178 reversed $69 $-1 #
face $-1 $-1 $179 $37 $-1 $180 forward single #
loop $-1 $181 $182 $71 #
cone-surface $-1 25.451824985623006 28.485745774251882 8.2397523806169275 0 -0.50000000669873634 -0.8660253999169214 1 0 0 1 I I -0.70710678118654746 0.70710678118654746 1 forward I I I I #
loop $-1 $-1 $183 $47 #
coedge $-1 $114 $114 $184 $185 reversed $72 $-1 #
face $-1 $-1 $186 $38 $-1 $187 forward single #
loop $-1 $188 $189 $74 #
cone-surface $-1 32.54211896359628 28.485745774251882 8.2397523806169275 0 -0.50000000669873634 -0.8660253999169214 1 0 0 1 I I -0.70710678118654746 0.70710678118654746 1 forward I I I I #
loop $-1 $-1 $190 $48 #
coedge $-1 $119 $119 $191 $192 reversed $75 $-1 #
face $-1 $-1 $193 $39 $-1 $194 forward single #
loop $-1 $195 $196 $77 #
cone-surface $-1 39.632412941569555 28.485745774251882 8.2397523806169275 0 -0.50000000669873634 -0.8660253999169214 1 0 0 1 I I -0.70710678118654746 0.70710678118654746 1 forward I I I I #
loop $-1 $-1 $197 $49 #
coedge $-1 $124 $124 $198 $199 reversed $78 $-1 #
face $-1 $200 $201 $30 $-1 $202 reversed single #
loop $-1 $-1 $203 $80 #
plane-surface $-1 0 0 -21.767473849544697 0 0 1 1 0 0 forward_v I I I I #
coedge $-1 $204 $205 $129 $206 forward $81 $-1 #
coedge $-1 $207 $83 $128 $206 reversed $51 $-1 #
coedge $-1 $83 $207 $203 $208 reversed $51 $-1 #
coedge $-1 $209 $210 $83 $132 forward $211 $-1 #
edge $-1 $212 -21.767473849544697 $213 21.767473849544697 $83 $214 forward 7 unknown #
face $-1 $215 $216 $31 $-1 $217 reversed single #
loop $-1 $-1 $139 $84 #
plane-surface $-1 -87.484968280526033 0 21.2674738495447 0 0 1 1 0 0 forward_v I I I I #
coedge $-1 $218 $219 $138 $220 forward $85 $-1 #
coedge $-1 $221 $87 $222 $223 reversed $54 $-1 #
coedge $-1 $87 $221 $136 $220 reversed $54 $-1 #
coedge $-1 $224 $225 $87 $140 reversed $134 $-1 #
edge $-1 $226 -43.836762747025702 $227 43.836762747025702 $139 $228 forward 7 unknown #
face $-1 $229 $230 $32 $-1 $231 reversed single #
loop $-1 $-1 $232 $88 #
plane-surface $-1 87.484968280526033 0 21.2674738495447 0 0 1 1 0 0 forward_v I I I I #
coedge $-1 $233 $234 $146 $235 forward $89 $-1 #
coedge $-1 $236 $91 $237 $238 reversed $57 $-1 #
coedge $-1 $91 $236 $144 $235 reversed $57 $-1 #
coedge $-1 $239 $240 $91 $148 reversed $142 $-1 #
edge $-1 $241 -43.836762747025702 $242 43.836762747025702 $147 $243 forward 7 unknown #
face $-1 $244 $245 $33 $-1 $246 forward single #
loop $-1 $-1 $247 $92 #
plane-surface $-1 -49.564503576891624 -135.99490035389931 134.40714047659898 1 0 0 0 0.61566148304635926 -0.78801074757464917 forward_v I I I I #
coedge $-1 $248 $249 $250 $251 reversed $93 $-1 #
coedge $-1 $154 $95 $252 $253 reversed $60 $-1 #
coedge $-1 $95 $153 $248 $254 reversed $60 $-1 #
coedge $-1 $250 $255 $95 $156 forward $245 $-1 #
edge $-1 $256 24.160687429923954 $257 30.966608045118619 $155 $258 forward 7 unknown #
loop $-1 $-1 $162 $96 #
plane-surface $-1 -43.990293178283167 -43.83676274702573 16.450105790361448 0 -0.61566148304635926 0.78801074757464917 1 0 0 forward_v I I I I #
loop $-1 $-1 $259 $62 #
coedge $-1 $160 $160 $161 $260 reversed $97 $-1 #
coedge $-1 $161 $161 $160 $260 forward $99 $-1 #
coedge $-1 $162 $162 $100 $163 forward $157 $-1 #
edge $-1 $261 7.3476910754503401e-015 $261 6.2831853071796075 $162 $262 forward 7 unknown #
loop $-1 $-1 $169 $101 #
plane-surface $-1 -43.990293178283167 -43.83676274702573 16.450105790361448 0 -0.61566148304635926 0.78801074757464917 1 0 0 forward_v I I I I #
loop $-1 $-1 $263 $65 #
coedge $-1 $167 $167 $168 $264 reversed $102 $-1 #
coedge $-1 $168 $168 $167 $264 forward $104 $-1 #
coedge $-1 $169 $169 $105 $170 forward $164 $-1 #
edge $-1 $265 7.3476910754503401e-015 $265 6.2831853071796075 $169 $266 forward 7 unknown #
face $-1 $267 $268 $36 $-1 $269 reversed single #
loop $-1 $-1 $270 $106 #
plane-surface $-1 44.359275593551722 42.754077150959347 182.17823596018403 -1 0 0 0 0.50000000669873634 0.8660253999169214 forward_v I I I I #
coedge $-1 $271 $272 $273 $274 reversed $107 $-1 #
coedge $-1 $176 $109 $275 $276 reversed $69 $-1 #
coedge $-1 $109 $175 $271 $277 reversed $69 $-1 #
coedge $-1 $273 $278 $109 $178 forward $279 $-1 #
edge $-1 $280 -22.459724171546029 $281 0.16262583751234416 $177 $282 forward 7 unknown #
loop $-1 $-1 $184 $110 #
plane-surface $-1 32.542118963596266 -32.09073723108655 52.543217083127558 0 0.50000000669873634 0.8660253999169214 1 0 0 forward_v I I I I #
loop $-1 $-1 $283 $71 #
coedge $-1 $182 $182 $183 $284 reversed $111 $-1 #
coedge $-1 $183 $183 $182 $284 forward $113 $-1 #
coedge $-1 $184 $184 $114 $185 forward $179 $-1 #
edge $-1 $285 5.3974189417362257e-016 $285 6.2831853071796013 $184 $286 forward 7 unknown #
loop $-1 $-1 $191 $115 #
plane-surface $-1 32.542118963596266 -32.09073723108655 52.543217083127558 0 0.50000000669873634 0.8660253999169214 1 0 0 forward_v I I I I #
loop $-1 $-1 $287 $74 #
coedge $-1 $189 $189 $190 $288 reversed $116 $-1 #
coedge $-1 $190 $190 $189 $288 forward $118 $-1 #
coedge $-1 $191 $191 $119 $192 forward $186 $-1 #
edge $-1 $289 5.3974189417362257e-016 $289 6.2831853071796013 $191 $290 forward 7 unknown #
loop $-1 $-1 $198 $120 #
plane-surface $-1 32.542118963596266 -32.09073723108655 52.543217083127558 0 0.50000000669873634 0.8660253999169214 1 0 0 forward_v I I I I #
loop $-1 $-1 $291 $77 #
coedge $-1 $196 $196 $197 $292 reversed $121 $-1 #
coedge $-1 $197 $197 $196 $292 forward $123 $-1 #
coedge $-1 $198 $198 $124 $199 forward $193 $-1 #
edge $-1 $293 5.3974189417362257e-016 $293 6.2831853071796013 $198 $294 forward 7 unknown #
face $-1 $295 $296 $30 $-1 $297 reversed single #
loop $-1 $-1 $298 $125 #
plane-surface $-1 0 -43.836762747025702 0 0 1 0 0 0 1 forward_v I I I I #
coedge $-1 $299 $300 $130 $208 forward $126 $-1 #
coedge $-1 $301 $128 $210 $302 forward $81 $-1 #
coedge $-1 $128 $301 $303 $304 forward $81 $-1 #
edge $-1 $305 -43.836762747025702 $212 43.836762747025702 $129 $306 forward 7 unknown #
coedge $-1 $130 $129 $307 $308 forward $51 $-1 #
edge $-1 $213 -43.836762747025702 $309 43.836762747025702 $130 $310 forward 7 unknown #
coedge $-1 $311 $131 $300 $312 reversed $211 $-1 #
coedge $-1 $131 $311 $204 $302 reversed $211 $-1 #
loop $-1 $-1 $131 $295 #
vertex $-1 $206 $313 #
vertex $-1 $208 $314 #
straight-curve $-1 74.844813379314559 43.836762747025702 0 0 0 -1 I I #
face $-1 $315 $316 $31 $-1 $317 reversed single #
loop $-1 $-1 $318 $133 #
plane-surface $-1 -87.484968280526033 0 9.375113750671467 0 0 1 1 0 0 forward_v I I I I #
coedge $-1 $319 $136 $320 $321 reversed $85 $-1 #
coedge $-1 $136 $319 $224 $322 reversed $85 $-1 #
edge $-1 $226 -21.2674738495447 $323 -9.375113750671467 $136 $324 forward 7 unknown #
coedge $-1 $138 $137 $318 $325 forward $54 $-1 #
coedge $-1 $326 $327 $137 $223 forward $328 $-1 #
edge $-1 $329 9.375113750671467 $227 21.2674738495447 $222 $330 forward 7 unknown #
coedge $-1 $331 $139 $219 $322 forward $134 $-1 #
coedge $-1 $139 $331 $326 $332 forward $134 $-1 #
vertex $-1 $220 $333 #
vertex $-1 $332 $334 #
straight-curve $-1 -74.844813379314559 0 21.2674738495447 0 -1 0 I I #
face $-1 $335 $336 $32 $-1 $337 reversed single #
loop $-1 $-1 $338 $141 #
plane-surface $-1 87.484968280526033 0 9.375113750671467 0 0 1 1 0 0 forward_v I I I I #
coedge $-1 $240 $239 $339 $340 forward $142 $-1 #
coedge $-1 $341 $144 $342 $343 reversed $89 $-1 #
coedge $-1 $144 $341 $239 $344 reversed $89 $-1 #
edge $-1 $241 -21.2674738495447 $345 -9.375113750671467 $144 $346 forward 7 unknown #
coedge $-1 $146 $145 $347 $348 forward $57 $-1 #
coedge $-1 $349 $350 $145 $238 forward $351 $-1 #
edge $-1 $352 9.375113750671467 $242 21.2674738495447 $237 $353 forward 7 unknown #
coedge $-1 $232 $147 $234 $344 forward $142 $-1 #
coedge $-1 $147 $232 $349 $354 forward $142 $-1 #
vertex $-1 $235 $355 #
vertex $-1 $354 $356 #
straight-curve $-1 74.844813379314559 0 21.2674738495447 0 1 0 I I #
face $-1 $-1 $357 $33 $-1 $358 reversed single #
loop $-1 $-1 $155 $149 #
plane-surface $-1 0 0 21.767473849544697 0 0 1 1 0 0 forward_v I I I I #
coedge $-1 $359 $360 $361 $362 reversed $150 $-1 #
coedge $-1 $363 $152 $154 $254 forward $93 $-1 #
coedge $-1 $152 $363 $359 $364 forward $93 $-1 #
coedge $-1 $361 $155 $152 $251 forward $245 $-1 #
edge $-1 $257 16.420936190533126 $365 27.569356987750041 $250 $366 forward 7 unknown #
coedge $-1 $367 $368 $153 $253 forward $357 $-1 #
edge $-1 $369 -50.753464447938022 $256 -45.436096388754791 $252 $370 forward 7 unknown #
edge $-1 $257 -8.6368372971333862 $369 -3.5520226329578538e-014 $154 $371 forward 7 unknown #
coedge $-1 $155 $361 $367 $372 forward $245 $-1 #
vertex $-1 $253 $373 #
vertex $-1 $156 $374 #
straight-curve $-1 -38.41608277967471 -67.997450176949656 21.7674738495447 0 1 0 I I #
coedge $-1 $259 $259 $-1 $375 reversed $159 $-1 #
edge $-1 $376 0 $376 6.2831853071796004 $160 $377 forward 7 unknown #
vertex $-1 $163 $378 #
ellipse-curve $-1 -46.379240491972503 -40.433802439428369 19.108789819953085 0 -0.61566148304635926 0.78801074757464917 0.5 0 0 1 I I #
coedge $-1 $263 $263 $-1 $379 reversed $166 $-1 #
edge $-1 $380 0 $380 6.2831853071796004 $167 $381 forward 7 unknown #
vertex $-1 $170 $382 #
ellipse-curve $-1 -41.601345864593824 -40.433802439428369 19.108789819953085 0 -0.61566148304635926 0.78801074757464917 0.5 0 0 1 I I #
face $-1 $-1 $279 $36 $-1 $383 forward single #
loop $-1 $-1 $384 $171 #
plane-surface $-1 0 43.836762747025702 0 0 -1 0 0 0 -1 forward_v I I I I #
coedge $-1 $385 $386 $387 $388 reversed $172 $-1 #
coedge $-1 $389 $174 $176 $277 forward $107 $-1 #
coedge $-1 $174 $389 $385 $390 forward $107 $-1 #
coedge $-1 $387 $177 $174 $274 forward $279 $-1 #
edge $-1 $281 4.4539028518426775 $391 28.088216111753589 $273 $392 forward 7 unknown #
coedge $-1 $393 $394 $175 $276 forward $268 $-1 #
edge $-1 $395 -82.382664231291983 $280 -69.321644130547313 $275 $396 forward 7 unknown #
edge $-1 $281 61.551485642531375 $395 87.67352549405139 $176 $397 forward 7 unknown #
coedge $-1 $177 $387 $393 $398 forward $279 $-1 #
loop $-1 $-1 $387 $267 #
vertex $-1 $276 $399 #
vertex $-1 $178 $400 #
straight-curve $-1 20.724962333640811 21.377038575479673 21.7674738495447 0 -1 0 I I #
coedge $-1 $283 $283 $-1 $401 reversed $181 $-1 #
edge $-1 $402 0 $402 6.2831853071796004 $182 $403 forward 7 unknown #
vertex $-1 $185 $404 #
ellipse-curve $-1 25.451824985623006 32.525587742496491 15.236963799172379 0 0.50000000669873634 0.8660253999169214 2 0 0 1 I I #
coedge $-1 $287 $287 $-1 $405 reversed $188 $-1 #
edge $-1 $406 0 $406 6.2831853071796004 $189 $407 forward 7 unknown #
vertex $-1 $192 $408 #
ellipse-curve $-1 32.54211896359628 32.525587742496491 15.236963799172379 0 0.50000000669873634 0.8660253999169214 2 0 0 1 I I #
coedge $-1 $291 $291 $-1 $409 reversed $195 $-1 #
edge $-1 $410 0 $410 6.2831853071796004 $196 $411 forward 7 unknown #
vertex $-1 $199 $412 #
ellipse-curve $-1 39.632412941569555 32.525587742496491 15.236963799172379 0 0.50000000669873634 0.8660253999169214 2 0 0 1 I I #
face $-1 $-1 $211 $30 $-1 $413 reversed single #
loop $-1 $-1 $414 $200 #
plane-surface $-1 -74.844813379314559 0 0 1 0 0 0 0 -1 forward_v I I I I #
coedge $-1 $415 $303 $414 $416 forward $201 $-1 #
coedge $-1 $417 $203 $415 $418 forward $126 $-1 #
coedge $-1 $203 $417 $209 $312 forward $126 $-1 #
coedge $-1 $205 $204 $419 $420 forward $81 $-1 #
edge $-1 $212 -74.844813379314559 $421 74.844813379314559 $210 $422 forward 7 unknown #
coedge $-1 $298 $307 $205 $304 reversed $201 $-1 #
edge $-1 $423 -74.844813379314559 $305 74.844813379314559 $303 $424 forward 7 unknown #
vertex $-1 $206 $425 #
straight-curve $-1 74.844813379314559 0 21.767473849544697 0 1 0 I I #
coedge $-1 $303 $415 $207 $308 reversed $201 $-1 #
edge $-1 $305 -21.767473849544697 $309 21.767473849544697 $207 $426 forward 7 unknown #
vertex $-1 $308 $427 #
straight-curve $-1 74.844813379314559 0 -21.767473849544697 0 -1 0 I I #
coedge $-1 $210 $209 $428 $429 reversed $211 $-1 #
edge $-1 $430 -74.844813379314559 $213 74.844813379314559 $209 $431 forward 7 unknown #
point $-1 74.844813379314559 43.836762747025702 21.767473849544697 #
point $-1 74.844813379314559 43.836762747025702 -21.767473849544697 #
face $-1 $-1 $328 $31 $-1 $432 reversed single #
loop $-1 $-1 $433 $215 #
plane-surface $-1 -100.12512318173751 0 15.321293800108084 1 0 0 0 0 -1 forward_v I I I I #
coedge $-1 $434 $320 $221 $325 reversed $216 $-1 #
coedge $-1 $219 $218 $433 $435 reversed $85 $-1 #
coedge $-1 $318 $436 $218 $321 forward $216 $-1 #
edge $-1 $437 -12.640154901211474 $323 12.640154901211474 $218 $438 forward 7 unknown #
edge $-1 $226 -12.640154901211474 $439 12.640154901211474 $219 $440 forward 7 unknown #
vertex $-1 $220 $441 #
straight-curve $-1 -74.844813379314559 43.836762747025702 0 0 0 -1 I I #
edge $-1 $329 -43.836762747025702 $323 43.836762747025702 $318 $442 forward 7 unknown #
coedge $-1 $443 $222 $225 $332 reversed $328 $-1 #
coedge $-1 $222 $443 $434 $444 reversed $328 $-1 #
loop $-1 $-1 $222 $315 #
vertex $-1 $223 $445 #
straight-curve $-1 -74.844813379314559 -43.836762747025702 0 0 0 1 I I #
coedge $-1 $225 $224 $446 $447 forward $134 $-1 #
edge $-1 $448 -12.640154901211474 $227 12.640154901211474 $326 $449 forward 7 unknown #
point $-1 -74.844813379314559 43.836762747025702 21.2674738495447 #
point $-1 -74.844813379314559 -43.836762747025702 21.2674738495447 #
face $-1 $-1 $351 $32 $-1 $450 reversed single #
loop $-1 $-1 $451 $229 #
plane-surface $-1 100.12512318173751 0 15.321293800108084 -1 0 0 0 0 1 forward_v I I I I #
coedge $-1 $342 $452 $453 $454 forward $230 $-1 #
coedge $-1 $451 $455 $232 $340 reversed $336 $-1 #
edge $-1 $456 -43.836762747025702 $457 43.836762747025702 $339 $458 forward 7 unknown #
coedge $-1 $234 $233 $451 $459 reversed $89 $-1 #
coedge $-1 $347 $338 $233 $343 forward $230 $-1 #
edge $-1 $460 -12.640154901211474 $345 12.640154901211474 $233 $461 forward 7 unknown #
edge $-1 $241 -12.640154901211474 $456 12.640154901211474 $234 $462 forward 7 unknown #
vertex $-1 $235 $463 #
straight-curve $-1 74.844813379314559 -43.836762747025702 0 0 0 -1 I I #
coedge $-1 $452 $342 $236 $348 reversed $230 $-1 #
edge $-1 $352 -43.836762747025702 $345 43.836762747025702 $347 $464 forward 7 unknown #
coedge $-1 $465 $237 $240 $354 reversed $351 $-1 #
coedge $-1 $237 $465 $452 $466 reversed $351 $-1 #
loop $-1 $-1 $237 $335 #
vertex $-1 $238 $467 #
straight-curve $-1 74.844813379314559 43.836762747025702 0 0 0 1 I I #
edge $-1 $457 -12.640154901211474 $242 12.640154901211474 $349 $468 forward 7 unknown #
point $-1 74.844813379314559 -43.836762747025702 21.2674738495447 #
point $-1 74.844813379314559 43.836762747025702 21.2674738495447 #
loop $-1 $-1 $252 $244 #
plane-surface $-1 0 -43.836762747025702 0 0 1 0 0 0 1 forward_v I I I I #
coedge $-1 $360 $247 $249 $364 reversed $150 $-1 #
coedge $-1 $247 $359 $469 $470 reversed $150 $-1 #
coedge $-1 $255 $250 $247 $362 forward $245 $-1 #
edge $-1 $365 -30.966608045118619 $471 -24.160687429923954 $361 $472 forward 7 unknown #
coedge $-1 $249 $248 $368 $473 reversed $93 $-1 #
edge $-1 $474 3.5520226329578538e-014 $365 8.6368372971333862 $359 $475 forward 7 unknown #
vertex $-1 $251 $476 #
straight-curve $-1 -21.995146589141584 -37.030842131831044 21.767473849544697 -1 0 0 I I #
coedge $-1 $469 $252 $255 $372 reversed $357 $-1 #
coedge $-1 $252 $469 $363 $473 forward $357 $-1 #
vertex $-1 $253 $477 #
straight-curve $-1 -38.41608277967471 -43.836762747025702 67.203570238299491 0 0 1 I I #
straight-curve $-1 -38.41608277967471 -43.83676274702573 16.450105790361448 0 -0.78801074757464917 -0.61566148304635926 I I #
edge $-1 $471 -49.564503576891624 $256 -38.41608277967471 $367 $478 forward 7 unknown #
point $-1 -38.41608277967471 -43.836762747025702 21.767473849544697 #
point $-1 -38.41608277967471 -37.030842131831037 21.767473849544697 #
edge $-1 $479 1 $479 0 $259 $-1 forward 7 unknown #
vertex $-1 $260 $480 #
ellipse-curve $-1 -46.379240491972503 -39.495955364764278 17.908400328702268 0 -0.61566148304635926 0.78801074757464917 0.5 0 0 1 I I #
point $-1 -45.879240491972503 -40.433802439428348 19.108789819953063 #
edge $-1 $481 1 $481 0 $263 $-1 forward 7 unknown #
vertex $-1 $264 $482 #
ellipse-curve $-1 -41.601345864593824 -39.495955364764278 17.908400328702268 0 -0.61566148304635926 0.78801074757464917 0.5 0 0 1 I I #
point $-1 -41.101345864593824 -40.433802439428348 19.108789819953063 #
plane-surface $-1 0 0 21.767473849544697 0 0 1 1 0 0 forward_v I I I I #
coedge $-1 $394 $393 $386 $483 forward $268 $-1 #
coedge $-1 $386 $270 $272 $390 reversed $172 $-1 #
coedge $-1 $270 $385 $384 $483 reversed $172 $-1 #
coedge $-1 $278 $273 $270 $388 forward $279 $-1 #
edge $-1 $391 -0.16262583751234416 $484 22.459724171546029 $387 $485 forward 7 unknown #
coedge $-1 $272 $271 $394 $486 reversed $107 $-1 #
edge $-1 $487 -87.67352549405139 $391 -61.551485642531375 $385 $488 forward 7 unknown #
vertex $-1 $274 $489 #
straight-curve $-1 16.271059481798133 21.214412737967329 21.7674738495447 1 0 0 I I #
coedge $-1 $384 $275 $278 $398 reversed $268 $-1 #
coedge $-1 $275 $384 $389 $486 forward $268 $-1 #
vertex $-1 $276 $490 #
straight-curve $-1 20.724962333640811 43.836762747025702 91.089117980092013 0 0 1 I I #
straight-curve $-1 20.724962333640811 -32.09073723108655 52.543217083127558 0 0.8660253999169214 -0.50000000669873634 I I #
edge $-1 $484 -44.359275593551722 $280 -20.724962333640811 $393 $491 forward 7 unknown #
point $-1 20.724962333640811 43.836762747025702 21.767473849544697 #
point $-1 20.724962333640811 21.214412737967329 21.767473849544697 #
edge $-1 $492 1 $492 0 $283 $-1 forward 7 unknown #
vertex $-1 $284 $493 #
ellipse-curve $-1 25.451824985623006 28.985745780950619 9.1057777805338489 0 0.50000000669873634 0.8660253999169214 2 0 0 1 I I #
point $-1 27.451824985623006 32.525587742496469 15.23696379917234 #
edge $-1 $494 1 $494 0 $287 $-1 forward 7 unknown #
vertex $-1 $288 $495 #
ellipse-curve $-1 32.54211896359628 28.985745780950619 9.1057777805338489 0 0.50000000669873634 0.8660253999169214 2 0 0 1 I I #
point $-1 34.54211896359628 32.525587742496469 15.23696379917234 #
edge $-1 $496 1 $496 0 $291 $-1 forward 7 unknown #
vertex $-1 $292 $497 #
ellipse-curve $-1 39.632412941569555 28.985745780950619 9.1057777805338489 0 0.50000000669873634 0.8660253999169214 2 0 0 1 I I #
point $-1 41.632412941569555 32.525587742496469 15.23696379917234 #
plane-surface $-1 0 43.836762747025702 0 0 -1 0 0 0 -1 forward_v I I I I #
coedge $-1 $419 $498 $298 $416 reversed $296 $-1 #
coedge $-1 $307 $298 $299 $418 reversed $201 $-1 #
edge $-1 $423 -21.767473849544697 $499 21.767473849544697 $414 $500 forward 7 unknown #
coedge $-1 $300 $299 $498 $501 forward $126 $-1 #
edge $-1 $309 -74.844813379314559 $499 74.844813379314559 $415 $502 forward 7 unknown #
coedge $-1 $428 $414 $301 $420 reversed $296 $-1 #
edge $-1 $421 -43.836762747025702 $423 43.836762747025702 $419 $503 forward 7 unknown #
vertex $-1 $302 $504 #
straight-curve $-1 0 43.836762747025702 21.767473849544697 -1 0 0 I I #
vertex $-1 $420 $505 #
straight-curve $-1 0 -43.836762747025702 21.767473849544697 1 0 0 I I #
point $-1 74.844813379314559 -43.836762747025702 21.767473849544697 #
straight-curve $-1 74.844813379314559 -43.836762747025702 0 0 0 -1 I I #
point $-1 74.844813379314559 -43.836762747025702 -21.767473849544697 #
coedge $-1 $498 $419 $311 $429 forward $296 $-1 #
edge $-1 $421 -21.767473849544697 $430 21.767473849544697 $311 $506 forward 7 unknown #
vertex $-1 $312 $507 #
straight-curve $-1 0 43.836762747025702 -21.767473849544697 1 0 0 I I #
plane-surface $-1 0 -43.836762747025702 0 0 1 0 0 0 1 forward_v I I I I #
coedge $-1 $508 $446 $319 $435 forward $316 $-1 #
coedge $-1 $436 $318 $327 $444 forward $216 $-1 #
edge $-1 $439 -5.9461800494366166 $437 5.9461800494366166 $319 $509 forward 7 unknown #
coedge $-1 $320 $434 $508 $510 forward $216 $-1 #
vertex $-1 $321 $511 #
straight-curve $-1 -87.484968280526033 43.836762747025702 9.375113750671467 1 0 0 I I #
vertex $-1 $322 $512 #
straight-curve $-1 -87.484968280526033 43.836762747025702 21.2674738495447 -1 0 0 I I #
point $-1 -74.844813379314559 43.836762747025702 9.375113750671467 #
straight-curve $-1 -74.844813379314559 0 9.375113750671467 0 1 0 I I #
coedge $-1 $327 $326 $513 $514 forward $328 $-1 #
edge $-1 $329 -12.640154901211474 $515 12.640154901211474 $327 $516 forward 7 unknown #
point $-1 -74.844813379314559 -43.836762747025702 9.375113750671467 #
coedge $-1 $433 $513 $331 $447 reversed $316 $-1 #
edge $-1 $439 -43.836762747025702 $448 43.836762747025702 $446 $517 forward 7 unknown #
vertex $-1 $447 $518 #
straight-curve $-1 -87.484968280526033 -43.836762747025702 21.2674738495447 1 0 0 I I #
plane-surface $-1 0 43.836762747025702 0 0 -1 0 0 0 -1 forward_v I I I I #
coedge $-1 $453 $339 $341 $459 forward $336 $-1 #
coedge $-1 $338 $347 $350 $466 forward $230 $-1 #
coedge $-1 $455 $451 $338 $454 reversed $336 $-1 #
edge $-1 $519 -43.836762747025702 $460 43.836762747025702 $453 $520 forward 7 unknown #
coedge $-1 $339 $453 $465 $521 reversed $336 $-1 #
vertex $-1 $340 $522 #
vertex $-1 $340 $523 #
straight-curve $-1 100.12512318173751 0 21.2674738495447 0 1 0 I I #
edge $-1 $456 -5.9461800494366166 $460 5.9461800494366166 $451 $524 forward 7 unknown #
vertex $-1 $459 $525 #
straight-curve $-1 87.484968280526033 -43.836762747025702 9.375113750671467 -1 0 0 I I #
straight-curve $-1 87.484968280526033 -43.836762747025702 21.2674738495447 1 0 0 I I #
point $-1 74.844813379314559 -43.836762747025702 9.375113750671467 #
straight-curve $-1 74.844813379314559 0 9.375113750671467 0 -1 0 I I #
coedge $-1 $350 $349 $455 $521 forward $351 $-1 #
edge $-1 $352 -12.640154901211474 $519 12.640154901211474 $350 $526 forward 7 unknown #
point $-1 74.844813379314559 43.836762747025702 9.375113750671467 #
straight-curve $-1 87.484968280526033 43.836762747025702 21.2674738495447 -1 0 0 I I #
coedge $-1 $368 $367 $360 $470 forward $357 $-1 #
edge $-1 $471 45.436096388754791 $474 50.753464447938022 $469 $527 forward 7 unknown #
vertex $-1 $372 $528 #
straight-curve $-1 -49.564503576891624 -67.997450176949656 21.7674738495447 0 -1 0 I I #
edge $-1 $474 -27.569356987750041 $369 -16.420936190533126 $368 $529 forward 7 unknown #
vertex $-1 $473 $530 #
straight-curve $-1 -49.564503576891624 -43.83676274702573 16.450105790361448 0 0.78801074757464917 0.61566148304635926 I I #
point $-1 -49.564503576891624 -37.030842131831037 21.767473849544697 #
point $-1 -38.41608277967471 -43.836762747025702 16.450105790361469 #
straight-curve $-1 0 -43.836762747025702 21.767473849544697 1 0 0 I I #
vertex $-1 $375 $531 #
point $-1 -45.879240491972503 -39.495955364764278 17.908400328702268 #
vertex $-1 $379 $532 #
point $-1 -41.101345864593824 -39.495955364764278 17.908400328702268 #
edge $-1 $484 69.321644130547313 $487 82.382664231291983 $384 $533 forward 7 unknown #
vertex $-1 $398 $534 #
straight-curve $-1 44.359275593551722 21.377038575479673 21.7674738495447 0 1 0 I I #
edge $-1 $487 -28.088216111753589 $395 -4.4539028518426775 $394 $535 forward 7 unknown #
vertex $-1 $486 $536 #
straight-curve $-1 44.359275593551722 -32.09073723108655 52.543217083127558 0 -0.8660253999169214 0.50000000669873634 I I #
point $-1 44.359275593551722 21.214412737967329 21.767473849544697 #
point $-1 20.724962333640811 43.836762747025702 8.7064537488000369 #
straight-curve $-1 0 43.836762747025702 21.767473849544697 -1 0 0 I I #
vertex $-1 $401 $537 #
point $-1 27.451824985623006 28.985745780950619 9.1057777805338489 #
vertex $-1 $405 $538 #
point $-1 34.54211896359628 28.985745780950619 9.1057777805338489 #
vertex $-1 $409 $539 #
point $-1 41.632412941569555 28.985745780950619 9.1057777805338489 #
coedge $-1 $414 $428 $417 $501 reversed $296 $-1 #
vertex $-1 $501 $540 #
straight-curve $-1 -74.844813379314559 -43.836762747025702 0 0 0 -1 I I #
edge $-1 $499 -43.836762747025702 $430 43.836762747025702 $498 $541 forward 7 unknown #
straight-curve $-1 0 -43.836762747025702 -21.767473849544697 -1 0 0 I I #
straight-curve $-1 -74.844813379314559 0 21.767473849544697 0 -1 0 I I #
point $-1 -74.844813379314559 43.836762747025702 21.767473849544697 #
point $-1 -74.844813379314559 -43.836762747025702 21.767473849544697 #
straight-curve $-1 -74.844813379314559 43.836762747025702 0 0 0 -1 I I #
point $-1 -74.844813379314559 43.836762747025702 -21.767473849544697 #
coedge $-1 $513 $433 $436 $510 reversed $316 $-1 #
straight-curve $-1 -100.12512318173751 43.836762747025702 15.321293800108084 0 0 -1 I I #
edge $-1 $515 -43.836762747025702 $437 43.836762747025702 $508 $542 forward 7 unknown #
point $-1 -100.12512318173751 43.836762747025702 9.375113750671467 #
point $-1 -100.12512318173751 43.836762747025702 21.2674738495447 #
coedge $-1 $446 $508 $443 $514 reversed $316 $-1 #
edge $-1 $448 -5.9461800494366166 $515 5.9461800494366166 $513 $543 forward 7 unknown #
vertex $-1 $510 $544 #
straight-curve $-1 -87.484968280526033 -43.836762747025702 9.375113750671467 -1 0 0 I I #
straight-curve $-1 -100.12512318173751 0 21.2674738495447 0 -1 0 I I #
point $-1 -100.12512318173751 -43.836762747025702 21.2674738495447 #
vertex $-1 $454 $545 #
straight-curve $-1 100.12512318173751 0 9.375113750671467 0 -1 0 I I #
edge $-1 $457 -5.9461800494366166 $519 5.9461800494366166 $455 $546 forward 7 unknown #
point $-1 100.12512318173751 -43.836762747025702 21.2674738495447 #
point $-1 100.12512318173751 43.836762747025702 21.2674738495447 #
straight-curve $-1 100.12512318173751 -43.836762747025702 15.321293800108084 0 0 -1 I I #
point $-1 100.12512318173751 -43.836762747025702 9.375113750671467 #
straight-curve $-1 87.484968280526033 43.836762747025702 9.375113750671467 1 0 0 I I #
straight-curve $-1 -49.564503576891624 -43.836762747025702 67.203570238299491 0 0 -1 I I #
point $-1 -49.564503576891624 -43.836762747025702 21.767473849544697 #
straight-curve $-1 -21.995146589141584 -43.836762747025702 16.450105790361469 1 0 0 I I #
point $-1 -49.564503576891624 -43.836762747025702 16.450105790361469 #
point $-1 -46.379240491972503 -39.188124623241102 17.514394954914945 #
point $-1 -41.601345864593824 -39.188124623241102 17.514394954914945 #
straight-curve $-1 44.359275593551722 43.836762747025702 91.089117980092013 0 0 -1 I I #
point $-1 44.359275593551722 43.836762747025702 21.767473849544697 #
straight-curve $-1 16.271059481798133 43.836762747025702 8.7064537488000369 -1 0 0 I I #
point $-1 44.359275593551722 43.836762747025702 8.7064537488000369 #
point $-1 25.451824985623006 27.985745767553144 7.3737269807000061 #
point $-1 32.54211896359628 27.985745767553144 7.3737269807000061 #
point $-1 39.632412941569555 27.985745767553144 7.3737269807000061 #
point $-1 -74.844813379314559 -43.836762747025702 -21.767473849544697 #
straight-curve $-1 -74.844813379314559 0 -21.767473849544697 0 1 0 I I #
straight-curve $-1 -100.12512318173751 0 9.375113750671467 0 1 0 I I #
straight-curve $-1 -100.12512318173751 -43.836762747025702 15.321293800108084 0 0 -1 I I #
point $-1 -100.12512318173751 -43.836762747025702 9.375113750671467 #
point $-1 100.12512318173751 43.836762747025702 9.375113750671467 #
straight-curve $-1 100.12512318173751 43.836762747025702 15.321293800108084 0 0 -1 I I #
End-of-ACIS-data 