500 0 5 0           
7 Unknown 11 ACIS 5.0 NT 24 Thu Mar 25 18:24:11 1999 
-1 9.9999999999999995e-007 1e-010 
body $-1 $5 $-1 $6 #
body $-1 $7 $-1 $8 #
body $-1 $9 $-1 $10 #
body $-1 $11 $-1 $12 #
body $-1 $13 $-1 $14 #
lump $-1 $-1 $15 $0 #
transform $-1 1 0 0 0 1 0 0 0 1 48.282723471785637 20.17377052460921 8.0922881258997936 1 rotate no_reflect no_shear #
lump $-1 $-1 $16 $1 #
transform $-1 1 0 0 0 1 0 0 0 1 48.282723471785637 20.17377052460921 8.0922881258997936 1 rotate no_reflect no_shear #
lump $-1 $-1 $17 $2 #
transform $-1 1 0 0 0 1 0 0 0 1 48.282723471785637 20.17377052460921 8.0922881258997936 1 rotate no_reflect no_shear #
lump $-1 $-1 $18 $3 #
transform $-1 1 0 0 0 1 0 0 0 1 48.282723471785637 20.17377052460921 8.0922881258997936 1 rotate no_reflect no_shear #
lump $-1 $-1 $19 $4 #
transform $-1 1 0 0 0 1 0 0 0 1 48.282723471785637 20.17377052460921 8.0922881258997936 1 rotate no_reflect no_shear #
shell $-1 $-1 $-1 $20 $-1 $5 #
shell $-1 $-1 $-1 $21 $-1 $7 #
shell $-1 $-1 $-1 $22 $-1 $9 #
shell $-1 $-1 $-1 $23 $-1 $11 #
shell $-1 $-1 $-1 $24 $-1 $13 #
face $-1 $25 $26 $15 $-1 $27 reversed single #
face $-1 $28 $29 $16 $-1 $30 forward single #
face $-1 $31 $32 $17 $-1 $33 reversed single #
face $-1 $34 $35 $18 $-1 $36 forward single #
face $-1 $37 $38 $19 $-1 $39 forward single #
face $-1 $40 $41 $15 $-1 $42 forward single #
loop $-1 $-1 $43 $20 #
plane-surface $-1 0 -20.17377052460921 0 0 1 0 0 0 1 forward_v I I I I #
face $-1 $44 $45 $16 $-1 $46 reversed single #
loop $-1 $-1 $47 $21 #
plane-surface $-1 0 -20.17377052460921 0 0 1 0 0 0 1 forward_v I I I I #
face $-1 $48 $49 $17 $-1 $50 reversed single #
loop $-1 $-1 $51 $22 #
plane-surface $-1 -129.26932247679531 -4.1706457311329785 52.996130889473655 0 1 0 -0.83867057594974714 0 0.54463902268945019 forward_v I I I I #
face $-1 $52 $53 $18 $-1 $54 forward single #
loop $-1 $55 $56 $23 #
cone-surface $-1 -44.682012824522531 -1.9625787927317653 3.5306658184529991 0.83867057594974714 0 -0.54463902268945019 0.54463902268945019 0 0.83867057594974714 1 I I 0 1 1 forward I I I I #
face $-1 $57 $58 $19 $-1 $59 forward single #
loop $-1 $60 $61 $24 #
cone-surface $-1 -44.682012824522531 1.3495216148700528 3.5306658184529991 0.83867057594974714 0 -0.54463902268945019 0.54463902268945019 0 0.83867057594974714 1 I I 0 1 1 forward I I I I #
face $-1 $62 $63 $15 $-1 $64 reversed single #
loop $-1 $-1 $65 $25 #
plane-surface $-1 0 0 8.0922881258997936 0 0 1 1 0 0 forward_v I I I I #
coedge $-1 $66 $67 $68 $69 reversed $26 $-1 #
face $-1 $70 $71 $16 $-1 $72 reversed single #
loop $-1 $-1 $73 $28 #
plane-surface $-1 0 0 -8.0922881258997936 0 0 1 1 0 0 forward_v I I I I #
coedge $-1 $74 $75 $76 $77 forward $29 $-1 #
face $-1 $78 $79 $17 $-1 $80 reversed single #
loop $-1 $-1 $81 $31 #
plane-surface $-1 -48.282723471785644 -0.30652858893085622 0.40282024055704113 -0.83867057594974714 0 0.54463902268945019 0.54463902268945019 0 0.83867057594974714 forward_v I I I I #
coedge $-1 $82 $83 $84 $85 reversed $32 $-1 #
face $-1 $-1 $86 $18 $-1 $87 forward single #
loop $-1 $88 $89 $34 #
cone-surface $-1 -43.158766225145555 -1.9625787927317653 2.54145794233286 0.83867057594974714 0 -0.54463902268945019 0.2723195113447251 0 0.41933528797487357 1 I I -0.70710678118654746 0.70710678118654746 0.5 forward I I I I #
loop $-1 $-1 $90 $23 #
coedge $-1 $56 $56 $91 $92 reversed $35 $-1 #
face $-1 $-1 $93 $19 $-1 $94 forward single #
loop $-1 $95 $96 $37 #
cone-surface $-1 -43.158766225145555 1.3495216148700528 2.54145794233286 0.83867057594974714 0 -0.54463902268945019 0.2723195113447251 0 0.41933528797487357 1 I I -0.70710678118654746 0.70710678118654746 0.5 forward I I I I #
loop $-1 $-1 $97 $24 #
coedge $-1 $61 $61 $98 $99 reversed $38 $-1 #
face $-1 $100 $101 $15 $-1 $102 reversed single #
loop $-1 $-1 $103 $40 #
plane-surface $-1 0 0 -8.0922881258997936 0 0 1 1 0 0 forward_v I I I I #
coedge $-1 $104 $105 $106 $107 forward $41 $-1 #
coedge $-1 $108 $43 $109 $110 reversed $26 $-1 #
coedge $-1 $43 $108 $111 $112 forward $26 $-1 #
coedge $-1 $113 $103 $43 $69 forward $63 $-1 #
edge $-1 $114 -48.282723471785637 $115 48.282723471785637 $43 $116 forward 7 unknown #
face $-1 $117 $118 $16 $-1 $119 reversed single #
loop $-1 $-1 $120 $44 #
plane-surface $-1 -36.838868995728788 -28.836062760928073 0 0 1 0 0 0 1 forward_v I I I I #
coedge $-1 $121 $122 $75 $123 forward $45 $-1 #
coedge $-1 $124 $47 $125 $126 reversed $29 $-1 #
coedge $-1 $47 $124 $73 $123 reversed $29 $-1 #
coedge $-1 $127 $128 $47 $77 reversed $118 $-1 #
edge $-1 $129 -8.0922881258997936 $130 8.0922881258997936 $76 $131 forward 7 unknown #
face $-1 $132 $133 $17 $-1 $134 reversed single #
loop $-1 $-1 $135 $48 #
plane-surface $-1 -129.26932247679531 3.5575885532712661 52.996130889473655 0 -1 0 0.83867057594974714 0 -0.54463902268945019 forward_v I I I I #
coedge $-1 $136 $137 $138 $139 reversed $49 $-1 #
coedge $-1 $83 $51 $140 $141 reversed $32 $-1 #
coedge $-1 $51 $82 $136 $142 reversed $32 $-1 #
coedge $-1 $138 $143 $51 $85 forward $144 $-1 #
edge $-1 $145 16.351937766612018 $146 21.345536438334022 $84 $147 forward 7 unknown #
loop $-1 $-1 $91 $52 #
plane-surface $-1 -48.282723471785644 -0.30652858893085622 0.40282024055704113 -0.83867057594974714 0 0.54463902268945019 0.54463902268945019 0 0.83867057594974714 forward_v I I I I #
loop $-1 $-1 $148 $34 #
coedge $-1 $89 $89 $90 $149 reversed $53 $-1 #
coedge $-1 $90 $90 $89 $149 forward $55 $-1 #
coedge $-1 $91 $91 $56 $92 forward $86 $-1 #
edge $-1 $150 0 $150 6.2831853071796004 $91 $151 forward 7 unknown #
loop $-1 $-1 $98 $57 #
plane-surface $-1 -48.282723471785644 -0.30652858893085622 0.40282024055704113 -0.83867057594974714 0 0.54463902268945019 0.54463902268945019 0 0.83867057594974714 forward_v I I I I #
loop $-1 $-1 $152 $37 #
coedge $-1 $96 $96 $97 $153 reversed $58 $-1 #
coedge $-1 $97 $97 $96 $153 forward $60 $-1 #
coedge $-1 $98 $98 $61 $99 forward $93 $-1 #
edge $-1 $154 0 $154 6.2831853071796004 $98 $155 forward 7 unknown #
face $-1 $156 $157 $15 $-1 $158 reversed single #
loop $-1 $-1 $159 $62 #
plane-surface $-1 -48.282723471785637 0 0 1 0 0 0 0 -1 forward_v I I I I #
coedge $-1 $68 $160 $161 $162 forward $63 $-1 #
coedge $-1 $163 $65 $164 $165 forward $41 $-1 #
coedge $-1 $65 $163 $108 $166 forward $41 $-1 #
coedge $-1 $109 $167 $65 $107 reversed $168 $-1 #
edge $-1 $169 -20.17377052460921 $170 20.17377052460921 $106 $171 forward 7 unknown #
coedge $-1 $67 $66 $105 $166 reversed $26 $-1 #
coedge $-1 $161 $106 $66 $110 forward $168 $-1 #
edge $-1 $169 -8.0922881258997936 $114 8.0922881258997936 $109 $172 forward 7 unknown #
coedge $-1 $173 $174 $67 $112 reversed $101 $-1 #
edge $-1 $175 -8.0922881258997936 $115 8.0922881258997936 $111 $176 forward 7 unknown #
coedge $-1 $160 $68 $174 $177 forward $63 $-1 #
vertex $-1 $110 $178 #
vertex $-1 $177 $179 #
straight-curve $-1 0 -20.17377052460921 -8.0922881258997936 -1 0 0 I I #
face $-1 $180 $181 $16 $-1 $182 reversed single #
loop $-1 $-1 $76 $70 #
plane-surface $-1 -39.151420550100966 -24.504916642768642 0 1 0 0 0 0 -1 forward_v I I I I #
coedge $-1 $183 $184 $185 $186 forward $71 $-1 #
coedge $-1 $187 $73 $188 $189 forward $45 $-1 #
coedge $-1 $73 $187 $127 $190 forward $45 $-1 #
edge $-1 $129 -39.151420550100966 $191 -34.526317441356611 $73 $192 forward 7 unknown #
coedge $-1 $75 $74 $193 $194 forward $29 $-1 #
coedge $-1 $195 $196 $74 $126 forward $197 $-1 #
edge $-1 $198 34.526317441356611 $130 39.151420550100966 $125 $199 forward 7 unknown #
coedge $-1 $185 $76 $122 $190 reversed $118 $-1 #
coedge $-1 $76 $185 $195 $200 reversed $118 $-1 #
vertex $-1 $123 $201 #
vertex $-1 $200 $202 #
straight-curve $-1 -39.151420550100966 -20.17377052460921 0 0 0 1 I I #
face $-1 $-1 $144 $17 $-1 $203 forward single #
loop $-1 $-1 $204 $78 #
plane-surface $-1 -48.282723471785637 0 0 1 0 0 0 0 -1 forward_v I I I I #
coedge $-1 $205 $206 $207 $208 reversed $79 $-1 #
coedge $-1 $209 $81 $83 $142 forward $49 $-1 #
coedge $-1 $81 $209 $205 $210 forward $49 $-1 #
coedge $-1 $207 $84 $81 $139 forward $144 $-1 #
edge $-1 $146 -4.0173814366675504 $211 3.7108528477366942 $138 $212 forward 7 unknown #
coedge $-1 $213 $214 $82 $141 forward $133 $-1 #
edge $-1 $215 -26.095245204179776 $145 -18.405777318837032 $140 $216 forward 7 unknown #
edge $-1 $146 -9.1686391604175039 $215 -1.3041340139260937e-014 $83 $217 forward 7 unknown #
coedge $-1 $84 $207 $213 $218 forward $144 $-1 #
loop $-1 $-1 $207 $132 #
vertex $-1 $141 $219 #
vertex $-1 $85 $220 #
straight-curve $-1 -64.634661238397655 -4.1706457311329785 8.0922881258997919 1 0 0 I I #
coedge $-1 $148 $148 $-1 $221 reversed $88 $-1 #
edge $-1 $222 0 $222 6.2831853071796004 $89 $223 forward 7 unknown #
vertex $-1 $92 $224 #
ellipse-curve $-1 -45.785924135924638 -1.9625787927317653 4.2475541832284183 -0.83867057594974714 0 0.54463902268945019 0.54463902268945019 0 0.83867057594974714 1 I I #
coedge $-1 $152 $152 $-1 $225 reversed $95 $-1 #
edge $-1 $226 0 $226 6.2831853071796004 $96 $227 forward 7 unknown #
vertex $-1 $99 $228 #
ellipse-curve $-1 -45.785924135924638 1.3495216148700528 4.2475541832284183 -0.83867057594974714 0 0.54463902268945019 0.54463902268945019 0 0.83867057594974714 1 I I #
face $-1 $-1 $168 $15 $-1 $229 reversed single #
loop $-1 $-1 $230 $100 #
plane-surface $-1 0 20.17377052460921 0 0 -1 0 0 0 -1 forward_v I I I I #
coedge $-1 $174 $173 $231 $232 forward $101 $-1 #
coedge $-1 $103 $113 $233 $234 forward $63 $-1 #
coedge $-1 $167 $109 $103 $162 reversed $168 $-1 #
edge $-1 $235 -20.17377052460921 $114 20.17377052460921 $161 $236 forward 7 unknown #
coedge $-1 $105 $104 $173 $237 forward $41 $-1 #
coedge $-1 $230 $231 $104 $165 reversed $157 $-1 #
edge $-1 $170 -48.282723471785637 $238 48.282723471785637 $164 $239 forward 7 unknown #
edge $-1 $175 -48.282723471785637 $169 48.282723471785637 $108 $240 forward 7 unknown #
coedge $-1 $106 $161 $230 $241 reversed $168 $-1 #
loop $-1 $-1 $109 $156 #
vertex $-1 $107 $242 #
vertex $-1 $107 $243 #
straight-curve $-1 48.282723471785637 0 8.0922881258997936 0 1 0 I I #
straight-curve $-1 48.282723471785637 -20.17377052460921 0 0 0 -1 I I #
coedge $-1 $159 $111 $163 $237 reversed $101 $-1 #
coedge $-1 $111 $159 $113 $177 reversed $101 $-1 #
vertex $-1 $237 $244 #
straight-curve $-1 -48.282723471785637 -20.17377052460921 0 0 0 -1 I I #
edge $-1 $115 -20.17377052460921 $245 20.17377052460921 $174 $246 forward 7 unknown #
point $-1 48.282723471785637 -20.17377052460921 -8.0922881258997936 #
point $-1 -48.282723471785637 -20.17377052460921 -8.0922881258997936 #
face $-1 $-1 $197 $16 $-1 $247 forward single #
loop $-1 $-1 $248 $117 #
plane-surface $-1 -34.526317441356611 -24.504916642768642 0 -1 0 0 0 0 1 forward_v I I I I #
coedge $-1 $249 $120 $187 $250 reversed $71 $-1 #
coedge $-1 $120 $249 $251 $252 reversed $71 $-1 #
coedge $-1 $128 $127 $120 $186 reversed $118 $-1 #
edge $-1 $253 -8.0922881258997936 $254 8.0922881258997936 $185 $255 forward 7 unknown #
coedge $-1 $122 $121 $183 $250 forward $45 $-1 #
coedge $-1 $193 $248 $121 $189 reversed $181 $-1 #
edge $-1 $191 -4.3311461181594311 $256 4.3311461181594311 $188 $257 forward 7 unknown #
edge $-1 $254 -4.3311461181594311 $129 4.3311461181594311 $127 $258 forward 7 unknown #
vertex $-1 $189 $259 #
straight-curve $-1 0 -20.17377052460921 -8.0922881258997936 1 0 0 I I #
coedge $-1 $260 $188 $124 $194 reversed $181 $-1 #
edge $-1 $198 -8.0922881258997936 $191 8.0922881258997936 $193 $261 forward 7 unknown #
coedge $-1 $251 $125 $128 $200 forward $197 $-1 #
coedge $-1 $125 $251 $260 $262 forward $197 $-1 #
loop $-1 $-1 $125 $180 #
vertex $-1 $126 $263 #
straight-curve $-1 0 -20.17377052460921 8.0922881258997936 -1 0 0 I I #
edge $-1 $130 -4.3311461181594311 $253 4.3311461181594311 $128 $264 forward 7 unknown #
point $-1 -39.151420550100966 -20.17377052460921 -8.0922881258997936 #
point $-1 -39.151420550100966 -20.17377052460921 8.0922881258997936 #
plane-surface $-1 0 0 8.0922881258997936 0 0 1 1 0 0 forward_v I I I I #
coedge $-1 $214 $213 $206 $265 forward $133 $-1 #
coedge $-1 $206 $135 $137 $210 reversed $79 $-1 #
coedge $-1 $135 $205 $204 $265 reversed $79 $-1 #
coedge $-1 $143 $138 $135 $208 forward $144 $-1 #
edge $-1 $211 -21.345536438334022 $266 -16.351937766612018 $207 $267 forward 7 unknown #
coedge $-1 $137 $136 $214 $268 reversed $49 $-1 #
edge $-1 $269 1.3041340139260937e-014 $211 9.1686391604175039 $205 $270 forward 7 unknown #
vertex $-1 $139 $271 #
straight-curve $-1 -43.289124800063632 -0.15326429446542811 8.0922881258997936 0 1 0 I I #
coedge $-1 $204 $140 $143 $218 reversed $133 $-1 #
coedge $-1 $140 $204 $209 $268 forward $133 $-1 #
vertex $-1 $141 $272 #
straight-curve $-1 -48.282723471785637 -4.1706457311329785 26.498065444736827 0 0 1 I I #
straight-curve $-1 -48.282723471785644 -4.1706457311329785 0.40282024055704113 -0.54463902268945019 0 -0.83867057594974714 I I #
edge $-1 $266 -3.5575885532712661 $145 4.1706457311329785 $213 $273 forward 7 unknown #
point $-1 -48.282723471785637 -4.1706457311329785 8.0922881258997936 #
point $-1 -43.289124800063632 -4.1706457311329785 8.0922881258997936 #
edge $-1 $274 1 $274 0 $148 $-1 forward 7 unknown #
vertex $-1 $149 $275 #
ellipse-curve $-1 -43.57810151312043 -1.9625787927317653 2.8137774536775852 -0.83867057594974714 0 0.54463902268945019 0.54463902268945019 0 0.83867057594974714 1 I I #
point $-1 -45.241285113235179 -1.9625787927317653 5.08622475917816 #
edge $-1 $276 1 $276 0 $152 $-1 forward 7 unknown #
vertex $-1 $153 $277 #
ellipse-curve $-1 -43.57810151312043 1.3495216148700528 2.8137774536775852 -0.83867057594974714 0 0.54463902268945019 0.54463902268945019 0 0.83867057594974714 1 I I #
point $-1 -45.241285113235179 1.3495216148700528 5.08622475917816 #
plane-surface $-1 48.282723471785637 0 0 -1 0 0 0 0 1 forward_v I I I I #
coedge $-1 $233 $164 $167 $241 forward $157 $-1 #
coedge $-1 $164 $233 $159 $232 reversed $157 $-1 #
edge $-1 $238 -8.0922881258997936 $245 8.0922881258997936 $231 $278 forward 7 unknown #
coedge $-1 $231 $230 $160 $234 reversed $157 $-1 #
edge $-1 $245 -48.282723471785637 $235 48.282723471785637 $233 $279 forward 7 unknown #
vertex $-1 $162 $280 #
straight-curve $-1 48.282723471785637 0 -8.0922881258997936 0 -1 0 I I #
edge $-1 $238 -20.17377052460921 $175 20.17377052460921 $173 $281 forward 7 unknown #
vertex $-1 $165 $282 #
straight-curve $-1 0 20.17377052460921 8.0922881258997936 -1 0 0 I I #
straight-curve $-1 0 -20.17377052460921 8.0922881258997936 1 0 0 I I #
edge $-1 $170 -8.0922881258997936 $235 8.0922881258997936 $167 $283 forward 7 unknown #
point $-1 48.282723471785637 -20.17377052460921 8.0922881258997936 #
point $-1 48.282723471785637 20.17377052460921 8.0922881258997936 #
point $-1 -48.282723471785637 -20.17377052460921 8.0922881258997936 #
vertex $-1 $234 $284 #
straight-curve $-1 -48.282723471785637 0 -8.0922881258997936 0 1 0 I I #
plane-surface $-1 0 0 8.0922881258997936 0 0 1 1 0 0 forward_v I I I I #
coedge $-1 $188 $260 $249 $285 forward $181 $-1 #
coedge $-1 $184 $183 $248 $285 reversed $71 $-1 #
edge $-1 $256 -2.3125515543721775 $254 2.3125515543721775 $183 $286 forward 7 unknown #
coedge $-1 $196 $195 $184 $252 forward $197 $-1 #
edge $-1 $253 -2.3125515543721775 $287 2.3125515543721775 $184 $288 forward 7 unknown #
vertex $-1 $200 $289 #
vertex $-1 $190 $290 #
straight-curve $-1 -39.151420550100966 -28.836062760928073 0 0 0 -1 I I #
vertex $-1 $285 $291 #
straight-curve $-1 -34.526317441356611 -24.504916642768642 -8.0922881258997936 0 -1 0 I I #
straight-curve $-1 -39.151420550100966 -24.504916642768642 -8.0922881258997936 0 1 0 I I #
point $-1 -34.526317441356611 -20.17377052460921 -8.0922881258997936 #
coedge $-1 $248 $193 $196 $262 reversed $181 $-1 #
straight-curve $-1 -34.526317441356611 -20.17377052460921 0 0 0 -1 I I #
edge $-1 $287 -4.3311461181594311 $198 4.3311461181594311 $260 $292 forward 7 unknown #
point $-1 -34.526317441356611 -20.17377052460921 8.0922881258997936 #
straight-curve $-1 -39.151420550100966 -24.504916642768642 8.0922881258997936 0 -1 0 I I #
edge $-1 $266 18.405777318837032 $269 26.095245204179776 $204 $293 forward 7 unknown #
vertex $-1 $218 $294 #
straight-curve $-1 -64.634661238397655 3.5575885532712661 8.0922881258997919 -1 0 0 I I #
edge $-1 $269 -3.7108528477366942 $215 4.0173814366675504 $214 $295 forward 7 unknown #
vertex $-1 $268 $296 #
straight-curve $-1 -48.282723471785644 3.5575885532712661 0.40282024055704113 0.54463902268945019 0 0.83867057594974714 I I #
point $-1 -43.289124800063632 3.5575885532712661 8.0922881258997936 #
point $-1 -48.282723471785637 -4.1706457311329785 0.40282024055705207 #
straight-curve $-1 -48.282723471785637 0 8.0922881258997936 0 -1 0 I I #
vertex $-1 $221 $297 #
point $-1 -43.033462490430978 -1.9625787927317653 3.6524480296273323 #
vertex $-1 $225 $298 #
point $-1 -43.033462490430978 1.3495216148700528 3.6524480296273323 #
straight-curve $-1 -48.282723471785637 20.17377052460921 0 0 0 -1 I I #
straight-curve $-1 0 20.17377052460921 -8.0922881258997936 1 0 0 I I #
point $-1 48.282723471785637 20.17377052460921 -8.0922881258997936 #
straight-curve $-1 -48.282723471785637 0 8.0922881258997936 0 -1 0 I I #
point $-1 -48.282723471785637 20.17377052460921 8.0922881258997936 #
straight-curve $-1 48.282723471785637 20.17377052460921 0 0 0 -1 I I #
point $-1 -48.282723471785637 20.17377052460921 -8.0922881258997936 #
edge $-1 $287 -8.0922881258997936 $256 8.0922881258997936 $248 $299 forward 7 unknown #
straight-curve $-1 -36.838868995728788 -28.836062760928073 -8.0922881258997936 -1 0 0 I I #
vertex $-1 $262 $300 #
straight-curve $-1 -36.838868995728788 -28.836062760928073 8.0922881258997936 1 0 0 I I #
point $-1 -39.151420550100966 -28.836062760928073 8.0922881258997936 #
point $-1 -39.151420550100966 -28.836062760928073 -8.0922881258997936 #
point $-1 -34.526317441356611 -28.836062760928073 -8.0922881258997936 #
straight-curve $-1 -34.526317441356611 -24.504916642768642 8.0922881258997936 0 1 0 I I #
straight-curve $-1 -48.282723471785637 3.5575885532712661 26.498065444736827 0 0 -1 I I #
point $-1 -48.282723471785637 3.5575885532712661 8.0922881258997936 #
straight-curve $-1 -48.282723471785637 -0.15326429446542811 0.40282024055706012 0 -1 0 I I #
point $-1 -48.282723471785637 3.5575885532712661 0.40282024055705207 #
point $-1 -42.739430937170681 -1.9625787927317653 2.2691384309881348 #
point $-1 -42.739430937170681 1.3495216148700528 2.2691384309881348 #
straight-curve $-1 -34.526317441356611 -28.836062760928073 0 0 0 -1 I I #
point $-1 -34.526317441356611 -28.836062760928073 8.0922881258997936 #
End-of-ACIS-data 