500 0 11 0           
7 Unknown 11 ACIS 5.0 NT 24 Thu Mar 25 16:36:51 1999 
-1 9.9999999999999995e-007 1e-010 
body $-1 $11 $-1 $12 #
body $-1 $13 $-1 $14 #
body $-1 $15 $-1 $16 #
body $-1 $17 $-1 $18 #
body $-1 $19 $-1 $20 #
body $-1 $21 $-1 $22 #
body $-1 $23 $-1 $24 #
body $-1 $25 $-1 $26 #
body $-1 $27 $-1 $28 #
body $-1 $29 $-1 $30 #
body $-1 $31 $-1 $32 #
lump $-1 $-1 $33 $0 #
transform $-1 1 0 0 0 1 0 0 0 1 46.806848353526412 32.187547000956449 8.0984092222444879 1 rotate no_reflect no_shear #
lump $-1 $-1 $34 $1 #
transform $-1 1 0 0 0 1 0 0 0 1 46.806848353526412 32.187547000956449 8.0984092222444879 1 rotate no_reflect no_shear #
lump $-1 $-1 $35 $2 #
transform $-1 1 0 0 0 1 0 0 0 1 46.806848353526412 32.187547000956449 8.0984092222444879 1 rotate no_reflect no_shear #
lump $-1 $-1 $36 $3 #
transform $-1 1 0 0 0 1 0 0 0 1 46.806848353526412 32.187547000956449 8.0984092222444879 1 rotate no_reflect no_shear #
lump $-1 $-1 $37 $4 #
transform $-1 1 0 0 0 1 0 0 0 1 46.806848353526412 32.187547000956449 8.0984092222444879 1 rotate no_reflect no_shear #
lump $-1 $-1 $38 $5 #
transform $-1 1 0 0 0 1 0 0 0 1 46.806848353526412 32.187547000956449 8.0984092222444879 1 rotate no_reflect no_shear #
lump $-1 $-1 $39 $6 #
transform $-1 1 0 0 0 1 0 0 0 1 46.806848353526412 32.187547000956449 8.0984092222444879 1 rotate no_reflect no_shear #
lump $-1 $-1 $40 $7 #
transform $-1 1 0 0 0 1 0 0 0 1 46.806848353526412 32.187547000956449 8.0984092222444879 1 rotate no_reflect no_shear #
lump $-1 $-1 $41 $8 #
transform $-1 1 0 0 0 1 0 0 0 1 46.806848353526412 32.187547000956449 8.0984092222444879 1 rotate no_reflect no_shear #
lump $-1 $-1 $42 $9 #
transform $-1 1 0 0 0 1 0 0 0 1 46.806848353526412 32.187547000956449 8.0984092222444879 1 rotate no_reflect no_shear #
lump $-1 $-1 $43 $10 #
transform $-1 1 0 0 0 1 0 0 0 1 46.806848353526412 32.187547000956449 8.0984092222444879 1 rotate no_reflect no_shear #
shell $-1 $-1 $-1 $44 $-1 $11 #
shell $-1 $-1 $-1 $45 $-1 $13 #
shell $-1 $-1 $-1 $46 $-1 $15 #
shell $-1 $-1 $-1 $47 $-1 $17 #
shell $-1 $-1 $-1 $48 $-1 $19 #
shell $-1 $-1 $-1 $49 $-1 $21 #
shell $-1 $-1 $-1 $50 $-1 $23 #
shell $-1 $-1 $-1 $51 $-1 $25 #
shell $-1 $-1 $-1 $52 $-1 $27 #
shell $-1 $-1 $-1 $53 $-1 $29 #
shell $-1 $-1 $-1 $54 $-1 $31 #
face $-1 $55 $56 $33 $-1 $57 forward single #
face $-1 $58 $59 $34 $-1 $60 reversed single #
face $-1 $61 $62 $35 $-1 $63 reversed single #
face $-1 $64 $65 $36 $-1 $66 reversed single #
face $-1 $67 $68 $37 $-1 $69 forward single #
face $-1 $70 $71 $38 $-1 $72 forward single #
face $-1 $73 $74 $39 $-1 $75 forward single #
face $-1 $76 $77 $40 $-1 $78 reversed single #
face $-1 $79 $80 $41 $-1 $81 forward single #
face $-1 $82 $83 $42 $-1 $84 forward single #
face $-1 $85 $86 $43 $-1 $87 forward single #
face $-1 $88 $89 $33 $-1 $90 reversed single #
loop $-1 $-1 $91 $44 #
plane-surface $-1 0 0 8.0984092222444879 0 0 1 1 0 0 forward_v I I I I #
face $-1 $92 $93 $34 $-1 $94 reversed single #
loop $-1 $-1 $95 $45 #
plane-surface $-1 -43.440216533737704 0 5.0984092222444879 0 0 1 1 0 0 forward_v I I I I #
face $-1 $96 $97 $35 $-1 $98 reversed single #
loop $-1 $-1 $99 $46 #
plane-surface $-1 43.440216533737704 0 5.0984092222444879 0 0 1 1 0 0 forward_v I I I I #
face $-1 $100 $101 $36 $-1 $102 reversed single #
loop $-1 $-1 $103 $47 #
plane-surface $-1 -23.297840964291822 27.202073310370729 116.5613785744785 1 0 0 0 -0.52991927123019833 -0.84804809178421925 forward_v I I I I #
face $-1 $104 $105 $37 $-1 $106 forward single #
loop $-1 $107 $108 $48 #
cone-surface $-1 -20.561703138518041 27.839525165204368 5.0736666348427644 0 -0.52991927123019833 -0.84804809178421925 1 0 0 1 I I 0 1 1 forward I I I I #
face $-1 $109 $110 $38 $-1 $111 forward single #
loop $-1 $112 $113 $49 #
cone-surface $-1 -16.457496399857369 27.839525165204368 5.0736666348427644 0 -0.52991927123019833 -0.84804809178421925 1 0 0 1 I I 0 1 1 forward I I I I #
face $-1 $114 $115 $39 $-1 $116 forward single #
loop $-1 $117 $118 $50 #
cone-surface $-1 -12.353289661196698 27.839525165204368 5.0736666348427644 0 -0.52991927123019833 -0.84804809178421925 1 0 0 1 I I 0 1 1 forward I I I I #
face $-1 $119 $120 $40 $-1 $121 reversed single #
loop $-1 $-1 $122 $51 #
plane-surface $-1 16.775743749657178 27.202073310370729 116.5613785744785 1 0 0 0 -0.52991927123019833 -0.84804809178421925 forward_v I I I I #
face $-1 $123 $124 $41 $-1 $125 forward single #
loop $-1 $126 $127 $52 #
cone-surface $-1 19.511881575430955 27.839525165204368 5.0736666348427644 0 -0.52991927123019833 -0.84804809178421925 1 0 0 1 I I 0 1 1 forward I I I I #
face $-1 $128 $129 $42 $-1 $130 forward single #
loop $-1 $131 $132 $53 #
cone-surface $-1 23.616088314091634 27.839525165204368 5.0736666348427644 0 -0.52991927123019833 -0.84804809178421925 1 0 0 1 I I 0 1 1 forward I I I I #
face $-1 $133 $134 $43 $-1 $135 forward single #
loop $-1 $136 $137 $54 #
cone-surface $-1 27.720295052752299 27.839525165204368 5.0736666348427644 0 -0.52991927123019833 -0.84804809178421925 1 0 0 1 I I 0 1 1 forward I I I I #
face $-1 $138 $139 $33 $-1 $140 reversed single #
loop $-1 $-1 $141 $55 #
plane-surface $-1 0 0 -8.0984092222444879 0 0 1 1 0 0 forward_v I I I I #
coedge $-1 $142 $143 $144 $145 forward $56 $-1 #
face $-1 $146 $147 $34 $-1 $148 reversed single #
loop $-1 $-1 $149 $58 #
plane-surface $-1 -40.073584713948996 0 6.5984092222444879 -1 0 0 0 0 1 forward_v I I I I #
coedge $-1 $150 $151 $152 $153 forward $59 $-1 #
face $-1 $154 $155 $35 $-1 $156 forward single #
loop $-1 $-1 $157 $61 #
plane-surface $-1 40.073584713948996 0 6.5984092222444879 1 0 0 0 0 -1 forward_v I I I I #
coedge $-1 $158 $159 $160 $161 reversed $62 $-1 #
face $-1 $162 $163 $36 $-1 $164 reversed single #
loop $-1 $-1 $165 $64 #
plane-surface $-1 -16.457496399857366 -22.405628625795522 37.172461717195702 0 0.52991927123019833 0.84804809178421925 1 0 0 forward_v I I I I #
coedge $-1 $166 $167 $168 $169 reversed $65 $-1 #
face $-1 $-1 $170 $37 $-1 $171 forward single #
loop $-1 $172 $173 $67 #
cone-surface $-1 -20.561703138518041 27.259026880919194 4.1446752035079264 0 -0.52991927123019833 -0.84804809178421925 0.5 0 0 1 I I -0.70710678118654746 0.70710678118654746 0.5 forward I I I I #
loop $-1 $-1 $174 $48 #
coedge $-1 $108 $108 $175 $176 reversed $68 $-1 #
face $-1 $-1 $177 $38 $-1 $178 forward single #
loop $-1 $179 $180 $70 #
cone-surface $-1 -16.457496399857369 27.259026880919194 4.1446752035079264 0 -0.52991927123019833 -0.84804809178421925 0.5 0 0 1 I I -0.70710678118654746 0.70710678118654746 0.5 forward I I I I #
loop $-1 $-1 $181 $49 #
coedge $-1 $113 $113 $182 $183 reversed $71 $-1 #
face $-1 $-1 $184 $39 $-1 $185 forward single #
loop $-1 $186 $187 $73 #
cone-surface $-1 -12.353289661196698 27.259026880919194 4.1446752035079264 0 -0.52991927123019833 -0.84804809178421925 0.5 0 0 1 I I -0.70710678118654746 0.70710678118654746 0.5 forward I I I I #
loop $-1 $-1 $188 $50 #
coedge $-1 $118 $118 $189 $190 reversed $74 $-1 #
face $-1 $191 $192 $40 $-1 $193 reversed single #
loop $-1 $-1 $194 $76 #
plane-surface $-1 23.616088314091634 -22.405628625795522 37.172461717195702 0 0.52991927123019833 0.84804809178421925 1 0 0 forward_v I I I I #
coedge $-1 $195 $196 $197 $198 reversed $77 $-1 #
face $-1 $-1 $199 $41 $-1 $200 forward single #
loop $-1 $201 $202 $79 #
cone-surface $-1 19.511881575430955 27.259026880919194 4.1446752035079264 0 -0.52991927123019833 -0.84804809178421925 0.5 0 0 1 I I -0.70710678118654746 0.70710678118654746 0.5 forward I I I I #
loop $-1 $-1 $203 $52 #
coedge $-1 $127 $127 $204 $205 reversed $80 $-1 #
face $-1 $-1 $206 $42 $-1 $207 forward single #
loop $-1 $208 $209 $82 #
cone-surface $-1 23.616088314091634 27.259026880919194 4.1446752035079264 0 -0.52991927123019833 -0.84804809178421925 0.5 0 0 1 I I -0.70710678118654746 0.70710678118654746 0.5 forward I I I I #
loop $-1 $-1 $210 $53 #
coedge $-1 $132 $132 $211 $212 reversed $83 $-1 #
face $-1 $-1 $213 $43 $-1 $214 forward single #
loop $-1 $215 $216 $85 #
cone-surface $-1 27.720295052752299 27.259026880919194 4.1446752035079264 0 -0.52991927123019833 -0.84804809178421925 0.5 0 0 1 I I -0.70710678118654746 0.70710678118654746 0.5 forward I I I I #
loop $-1 $-1 $217 $54 #
coedge $-1 $137 $137 $218 $219 reversed $86 $-1 #
face $-1 $220 $221 $33 $-1 $222 reversed single #
loop $-1 $-1 $223 $88 #
plane-surface $-1 0 -32.187547000956449 0 0 1 0 0 0 1 forward_v I I I I #
coedge $-1 $224 $225 $226 $227 forward $89 $-1 #
coedge $-1 $228 $91 $229 $230 forward $56 $-1 #
coedge $-1 $91 $228 $231 $232 forward $56 $-1 #
coedge $-1 $233 $234 $91 $145 reversed $235 $-1 #
edge $-1 $236 -32.187547000956449 $237 32.187547000956449 $144 $238 forward 7 unknown #
face $-1 $239 $240 $34 $-1 $241 reversed single #
loop $-1 $-1 $242 $92 #
plane-surface $-1 0 32.187547000956449 0 0 -1 0 0 0 -1 forward_v I I I I #
coedge $-1 $152 $243 $244 $245 reversed $93 $-1 #
coedge $-1 $246 $95 $247 $248 reversed $59 $-1 #
coedge $-1 $95 $246 $249 $250 reversed $59 $-1 #
coedge $-1 $251 $149 $95 $153 reversed $93 $-1 #
edge $-1 $252 -32.187547000956449 $253 32.187547000956449 $152 $254 forward 7 unknown #
face $-1 $255 $256 $35 $-1 $257 reversed single #
loop $-1 $-1 $258 $96 #
plane-surface $-1 0 0 8.0984092222444879 0 0 1 1 0 0 forward_v I I I I #
coedge $-1 $259 $260 $261 $262 reversed $97 $-1 #
coedge $-1 $263 $99 $264 $265 reversed $62 $-1 #
coedge $-1 $99 $263 $266 $267 reversed $62 $-1 #
coedge $-1 $268 $269 $99 $161 forward $270 $-1 #
edge $-1 $271 -32.187547000956449 $272 32.187547000956449 $160 $273 forward 7 unknown #
face $-1 $274 $275 $36 $-1 $276 reversed single #
loop $-1 $-1 $277 $100 #
plane-surface $-1 -9.6171518354229093 27.202073310370729 116.5613785744785 -1 0 0 0 0.52991927123019833 0.84804809178421925 forward_v I I I I #
coedge $-1 $278 $279 $280 $281 reversed $101 $-1 #
coedge $-1 $167 $103 $282 $283 reversed $65 $-1 #
coedge $-1 $103 $166 $278 $284 reversed $65 $-1 #
coedge $-1 $280 $285 $103 $169 forward $286 $-1 #
edge $-1 $287 -18.586510345771085 $288 -10.521543971607098 $168 $289 forward 7 unknown #
loop $-1 $-1 $175 $104 #
plane-surface $-1 -16.457496399857366 -22.405628625795522 37.172461717195702 0 0.52991927123019833 0.84804809178421925 1 0 0 forward_v I I I I #
loop $-1 $-1 $290 $67 #
coedge $-1 $173 $173 $174 $291 reversed $105 $-1 #
coedge $-1 $174 $174 $173 $291 forward $107 $-1 #
coedge $-1 $175 $175 $108 $176 forward $170 $-1 #
edge $-1 $292 1.8826514435595184e-015 $292 6.2831853071796022 $175 $293 forward 7 unknown #
loop $-1 $-1 $182 $109 #
plane-surface $-1 -16.457496399857366 -22.405628625795522 37.172461717195702 0 0.52991927123019833 0.84804809178421925 1 0 0 forward_v I I I I #
loop $-1 $-1 $294 $70 #
coedge $-1 $180 $180 $181 $295 reversed $110 $-1 #
coedge $-1 $181 $181 $180 $295 forward $112 $-1 #
coedge $-1 $182 $182 $113 $183 forward $177 $-1 #
edge $-1 $296 1.8826514435595184e-015 $296 6.2831853071796022 $182 $297 forward 7 unknown #
loop $-1 $-1 $189 $114 #
plane-surface $-1 -16.457496399857366 -22.405628625795522 37.172461717195702 0 0.52991927123019833 0.84804809178421925 1 0 0 forward_v I I I I #
loop $-1 $-1 $298 $73 #
coedge $-1 $187 $187 $188 $299 reversed $115 $-1 #
coedge $-1 $188 $188 $187 $299 forward $117 $-1 #
coedge $-1 $189 $189 $118 $190 forward $184 $-1 #
edge $-1 $300 1.8826514435595184e-015 $300 6.2831853071796022 $189 $301 forward 7 unknown #
face $-1 $302 $303 $40 $-1 $304 forward single #
loop $-1 $-1 $305 $119 #
plane-surface $-1 30.45643287852609 27.202073310370729 116.5613785744785 -1 0 0 0 0.52991927123019833 0.84804809178421925 forward_v I I I I #
coedge $-1 $306 $307 $308 $309 reversed $120 $-1 #
coedge $-1 $196 $122 $310 $311 reversed $77 $-1 #
coedge $-1 $122 $195 $306 $312 reversed $77 $-1 #
coedge $-1 $308 $313 $122 $198 forward $303 $-1 #
edge $-1 $314 -18.586510345771085 $315 -10.521543971607098 $197 $316 forward 7 unknown #
loop $-1 $-1 $204 $123 #
plane-surface $-1 23.616088314091634 -22.405628625795522 37.172461717195702 0 0.52991927123019833 0.84804809178421925 1 0 0 forward_v I I I I #
loop $-1 $-1 $317 $79 #
coedge $-1 $202 $202 $203 $318 reversed $124 $-1 #
coedge $-1 $203 $203 $202 $318 forward $126 $-1 #
coedge $-1 $204 $204 $127 $205 forward $199 $-1 #
edge $-1 $319 1.8826514435595184e-015 $319 6.2831853071796022 $204 $320 forward 7 unknown #
loop $-1 $-1 $211 $128 #
plane-surface $-1 23.616088314091634 -22.405628625795522 37.172461717195702 0 0.52991927123019833 0.84804809178421925 1 0 0 forward_v I I I I #
loop $-1 $-1 $321 $82 #
coedge $-1 $209 $209 $210 $322 reversed $129 $-1 #
coedge $-1 $210 $210 $209 $322 forward $131 $-1 #
coedge $-1 $211 $211 $132 $212 forward $206 $-1 #
edge $-1 $323 1.8826514435595184e-015 $323 6.2831853071796022 $211 $324 forward 7 unknown #
loop $-1 $-1 $218 $133 #
plane-surface $-1 23.616088314091634 -22.405628625795522 37.172461717195702 0 0.52991927123019833 0.84804809178421925 1 0 0 forward_v I I I I #
loop $-1 $-1 $325 $85 #
coedge $-1 $216 $216 $217 $326 reversed $134 $-1 #
coedge $-1 $217 $217 $216 $326 forward $136 $-1 #
coedge $-1 $218 $218 $137 $219 forward $213 $-1 #
edge $-1 $327 1.8826514435595184e-015 $327 6.2831853071796022 $218 $328 forward 7 unknown #
face $-1 $329 $330 $33 $-1 $331 reversed single #
loop $-1 $-1 $332 $138 #
plane-surface $-1 -46.806848353526412 0 0 1 0 0 0 0 -1 forward_v I I I I #
coedge $-1 $333 $231 $334 $335 forward $139 $-1 #
coedge $-1 $336 $141 $333 $337 forward $89 $-1 #
coedge $-1 $141 $336 $338 $339 forward $89 $-1 #
coedge $-1 $234 $233 $141 $227 reversed $235 $-1 #
edge $-1 $340 -32.187547000956449 $341 32.187547000956449 $226 $342 forward 7 unknown #
coedge $-1 $143 $142 $343 $344 forward $56 $-1 #
coedge $-1 $345 $346 $142 $230 reversed $330 $-1 #
edge $-1 $237 -46.806848353526412 $347 46.806848353526412 $229 $348 forward 7 unknown #
coedge $-1 $223 $349 $143 $232 reversed $139 $-1 #
edge $-1 $350 -46.806848353526412 $236 46.806848353526412 $231 $351 forward 7 unknown #
coedge $-1 $226 $144 $349 $352 forward $235 $-1 #
coedge $-1 $144 $226 $345 $353 reversed $235 $-1 #
loop $-1 $-1 $233 $329 #
vertex $-1 $145 $354 #
vertex $-1 $145 $355 #
straight-curve $-1 46.806848353526412 0 8.0984092222444879 0 1 0 I I #
face $-1 $356 $357 $34 $-1 $358 forward single #
loop $-1 $-1 $359 $146 #
plane-surface $-1 -46.806848353526412 0 0 1 0 0 0 0 -1 forward_v I I I I #
coedge $-1 $249 $360 $251 $361 forward $147 $-1 #
coedge $-1 $149 $251 $362 $363 reversed $93 $-1 #
coedge $-1 $364 $247 $149 $245 forward $365 $-1 #
edge $-1 $253 1.7992046111222439 $366 4.7992046111222439 $244 $367 forward 7 unknown #
coedge $-1 $151 $150 $359 $368 reversed $59 $-1 #
coedge $-1 $244 $369 $150 $248 forward $365 $-1 #
edge $-1 $370 -25.08674008665756 $253 -18.353476447080144 $247 $371 forward 7 unknown #
coedge $-1 $372 $242 $151 $250 forward $147 $-1 #
edge $-1 $252 18.353476447080144 $373 25.08674008665756 $249 $374 forward 7 unknown #
coedge $-1 $243 $152 $242 $361 reversed $93 $-1 #
vertex $-1 $250 $375 #
vertex $-1 $248 $376 #
straight-curve $-1 -40.073584713948996 0 5.0984092222444879 0 -1 0 I I #
face $-1 $377 $378 $35 $-1 $379 reversed single #
loop $-1 $-1 $380 $154 #
plane-surface $-1 0 -32.187547000956449 0 0 1 0 0 0 1 forward_v I I I I #
coedge $-1 $381 $382 $260 $383 forward $155 $-1 #
coedge $-1 $384 $157 $263 $385 reversed $97 $-1 #
coedge $-1 $157 $384 $258 $383 reversed $97 $-1 #
coedge $-1 $386 $266 $157 $262 forward $378 $-1 #
edge $-1 $387 1.7992046111222439 $388 4.7992046111222439 $261 $389 forward 7 unknown #
coedge $-1 $159 $158 $259 $385 forward $62 $-1 #
coedge $-1 $390 $380 $158 $265 forward $256 $-1 #
edge $-1 $391 18.353476447080144 $271 25.08674008665756 $264 $392 forward 7 unknown #
coedge $-1 $261 $393 $159 $267 forward $378 $-1 #
edge $-1 $272 -25.08674008665756 $387 -18.353476447080144 $266 $394 forward 7 unknown #
coedge $-1 $395 $160 $393 $396 reversed $270 $-1 #
coedge $-1 $160 $395 $390 $397 forward $270 $-1 #
loop $-1 $-1 $160 $377 #
vertex $-1 $265 $398 #
vertex $-1 $161 $399 #
straight-curve $-1 46.806848353526412 0 5.0984092222444879 0 1 0 I I #
face $-1 $-1 $286 $36 $-1 $400 forward single #
loop $-1 $-1 $401 $162 #
plane-surface $-1 0 32.187547000956449 0 0 -1 0 0 0 -1 forward_v I I I I #
coedge $-1 $402 $403 $404 $405 reversed $163 $-1 #
coedge $-1 $406 $165 $167 $284 forward $101 $-1 #
coedge $-1 $165 $406 $402 $407 forward $101 $-1 #
coedge $-1 $404 $168 $165 $281 forward $286 $-1 #
edge $-1 $288 -15.069092764363139 $408 -1.3884036354942264 $280 $409 forward 7 unknown #
coedge $-1 $410 $411 $166 $283 forward $275 $-1 #
edge $-1 $412 -55.221830468912742 $287 -50.182280064994757 $282 $413 forward 7 unknown #
edge $-1 $288 54.86505978062717 $412 64.375094001912899 $167 $414 forward 7 unknown #
coedge $-1 $168 $404 $410 $415 forward $286 $-1 #
loop $-1 $-1 $404 $274 #
vertex $-1 $283 $416 #
vertex $-1 $169 $417 #
straight-curve $-1 -23.297840964291822 13.601036655185364 8.0984092222444843 0 -1 0 I I #
coedge $-1 $290 $290 $-1 $418 reversed $172 $-1 #
edge $-1 $419 0 $419 6.2831853071796004 $173 $420 forward 7 unknown #
vertex $-1 $176 $421 #
ellipse-curve $-1 -20.561703138518041 28.155063813874445 5.5786340202854969 0 0.52991927123019833 0.84804809178421925 1 0 0 1 I I #
coedge $-1 $294 $294 $-1 $422 reversed $179 $-1 #
edge $-1 $423 0 $423 6.2831853071796004 $180 $424 forward 7 unknown #
vertex $-1 $183 $425 #
ellipse-curve $-1 -16.457496399857369 28.155063813874445 5.5786340202854969 0 0.52991927123019833 0.84804809178421925 1 0 0 1 I I #
coedge $-1 $298 $298 $-1 $426 reversed $186 $-1 #
edge $-1 $427 0 $427 6.2831853071796004 $187 $428 forward 7 unknown #
vertex $-1 $190 $429 #
ellipse-curve $-1 -12.353289661196698 28.155063813874445 5.5786340202854969 0 0.52991927123019833 0.84804809178421925 1 0 0 1 I I #
face $-1 $-1 $430 $40 $-1 $431 reversed single #
loop $-1 $-1 $197 $191 #
plane-surface $-1 0 0 8.0984092222444879 0 0 1 1 0 0 forward_v I I I I #
coedge $-1 $432 $433 $434 $435 reversed $192 $-1 #
coedge $-1 $436 $194 $196 $312 forward $120 $-1 #
coedge $-1 $194 $436 $432 $437 forward $120 $-1 #
coedge $-1 $434 $197 $194 $309 forward $303 $-1 #
edge $-1 $315 4.9676995926113605 $438 18.648388721480273 $308 $439 forward 7 unknown #
coedge $-1 $440 $441 $195 $311 forward $430 $-1 #
edge $-1 $442 -55.221830468912742 $314 -50.182280064994757 $310 $443 forward 7 unknown #
edge $-1 $315 54.86505978062717 $442 64.375094001912899 $196 $444 forward 7 unknown #
coedge $-1 $197 $434 $440 $445 forward $303 $-1 #
vertex $-1 $198 $446 #
vertex $-1 $198 $447 #
straight-curve $-1 16.775743749657178 13.601036655185364 8.0984092222444843 0 -1 0 I I #
coedge $-1 $317 $317 $-1 $448 reversed $201 $-1 #
edge $-1 $449 0 $449 6.2831853071796004 $202 $450 forward 7 unknown #
vertex $-1 $205 $451 #
ellipse-curve $-1 19.511881575430955 28.155063813874445 5.5786340202854969 0 0.52991927123019833 0.84804809178421925 1 0 0 1 I I #
coedge $-1 $321 $321 $-1 $452 reversed $208 $-1 #
edge $-1 $453 0 $453 6.2831853071796004 $209 $454 forward 7 unknown #
vertex $-1 $212 $455 #
ellipse-curve $-1 23.616088314091634 28.155063813874445 5.5786340202854969 0 0.52991927123019833 0.84804809178421925 1 0 0 1 I I #
coedge $-1 $325 $325 $-1 $456 reversed $215 $-1 #
edge $-1 $457 0 $457 6.2831853071796004 $216 $458 forward 7 unknown #
vertex $-1 $219 $459 #
ellipse-curve $-1 27.720295052752299 28.155063813874445 5.5786340202854969 0 0.52991927123019833 0.84804809178421925 1 0 0 1 I I #
face $-1 $-1 $235 $33 $-1 $460 reversed single #
loop $-1 $-1 $345 $220 #
plane-surface $-1 0 32.187547000956449 0 0 -1 0 0 0 -1 forward_v I I I I #
coedge $-1 $461 $343 $346 $462 forward $221 $-1 #
coedge $-1 $349 $223 $224 $337 reversed $139 $-1 #
coedge $-1 $343 $461 $223 $335 reversed $221 $-1 #
edge $-1 $350 -8.0984092222444879 $463 8.0984092222444879 $334 $464 forward 7 unknown #
coedge $-1 $225 $224 $461 $465 forward $89 $-1 #
edge $-1 $341 -46.806848353526412 $463 46.806848353526412 $333 $466 forward 7 unknown #
coedge $-1 $346 $345 $225 $339 reversed $330 $-1 #
edge $-1 $467 -46.806848353526412 $340 46.806848353526412 $338 $468 forward 7 unknown #
vertex $-1 $227 $469 #
vertex $-1 $352 $470 #
straight-curve $-1 46.806848353526412 0 -8.0984092222444879 0 -1 0 I I #
coedge $-1 $332 $334 $228 $344 reversed $221 $-1 #
edge $-1 $347 -32.187547000956449 $350 32.187547000956449 $343 $471 forward 7 unknown #
coedge $-1 $338 $229 $234 $353 forward $330 $-1 #
coedge $-1 $229 $338 $332 $462 reversed $330 $-1 #
vertex $-1 $230 $472 #
straight-curve $-1 0 32.187547000956449 8.0984092222444879 -1 0 0 I I #
coedge $-1 $231 $333 $233 $352 reversed $139 $-1 #
vertex $-1 $344 $473 #
straight-curve $-1 0 -32.187547000956449 8.0984092222444879 1 0 0 I I #
edge $-1 $236 -8.0984092222444879 $341 8.0984092222444879 $233 $474 forward 7 unknown #
edge $-1 $237 -8.0984092222444879 $340 8.0984092222444879 $234 $475 forward 7 unknown #
point $-1 46.806848353526412 -32.187547000956449 8.0984092222444879 #
point $-1 46.806848353526412 32.187547000956449 8.0984092222444879 #
face $-1 $-1 $365 $34 $-1 $476 reversed single #
loop $-1 $-1 $362 $239 #
plane-surface $-1 0 0 8.0984092222444879 0 0 1 1 0 0 forward_v I I I I #
coedge $-1 $477 $478 $246 $368 forward $240 $-1 #
coedge $-1 $242 $372 $479 $480 reversed $147 $-1 #
edge $-1 $481 -4.7992046111222439 $252 -1.7992046111222439 $242 $482 forward 7 unknown #
coedge $-1 $479 $483 $243 $363 forward $357 $-1 #
edge $-1 $366 -32.187547000956449 $481 32.187547000956449 $362 $484 forward 7 unknown #
coedge $-1 $369 $244 $483 $485 reversed $365 $-1 #
loop $-1 $-1 $244 $356 #
vertex $-1 $245 $486 #
straight-curve $-1 -40.073584713948996 -32.187547000956449 3.2992046111222439 0 0 1 I I #
edge $-1 $373 -32.187547000956449 $370 32.187547000956449 $359 $487 forward 7 unknown #
coedge $-1 $247 $364 $477 $488 forward $365 $-1 #
vertex $-1 $368 $489 #
straight-curve $-1 -21.720108266868852 -32.187547000956449 5.0984092222444879 1 0 0 I I #
coedge $-1 $360 $249 $478 $490 reversed $147 $-1 #
vertex $-1 $368 $491 #
straight-curve $-1 -21.720108266868852 32.187547000956449 5.0984092222444879 -1 0 0 I I #
point $-1 -40.073584713948996 32.187547000956449 5.0984092222444879 #
point $-1 -40.073584713948996 -32.187547000956449 5.0984092222444879 #
face $-1 $-1 $270 $35 $-1 $492 reversed single #
loop $-1 $-1 $261 $255 #
plane-surface $-1 0 32.187547000956449 0 0 -1 0 0 0 -1 forward_v I I I I #
coedge $-1 $264 $493 $384 $494 forward $256 $-1 #
coedge $-1 $495 $258 $493 $496 forward $155 $-1 #
coedge $-1 $258 $495 $386 $497 forward $155 $-1 #
edge $-1 $388 -32.187547000956449 $498 32.187547000956449 $258 $499 forward 7 unknown #
coedge $-1 $260 $259 $380 $494 reversed $97 $-1 #
edge $-1 $391 -32.187547000956449 $387 32.187547000956449 $259 $500 forward 7 unknown #
coedge $-1 $393 $261 $382 $497 reversed $378 $-1 #
vertex $-1 $267 $501 #
vertex $-1 $262 $502 #
straight-curve $-1 40.073584713948996 32.187547000956449 3.2992046111222439 0 0 1 I I #
coedge $-1 $493 $264 $269 $397 reversed $256 $-1 #
vertex $-1 $265 $503 #
straight-curve $-1 21.720108266868852 -32.187547000956449 5.0984092222444879 1 0 0 I I #
coedge $-1 $266 $386 $268 $396 forward $378 $-1 #
straight-curve $-1 21.720108266868852 32.187547000956449 5.0984092222444879 -1 0 0 I I #
coedge $-1 $269 $268 $495 $504 reversed $270 $-1 #
edge $-1 $505 -8.0984092222444879 $272 -5.0984092222444879 $268 $506 forward 7 unknown #
edge $-1 $507 -8.0984092222444879 $271 -5.0984092222444879 $269 $508 forward 7 unknown #
point $-1 46.806848353526412 -32.187547000956449 5.0984092222444879 #
point $-1 46.806848353526412 32.187547000956449 5.0984092222444879 #
plane-surface $-1 0 0 8.0984092222444879 0 0 1 1 0 0 forward_v I I I I #
coedge $-1 $411 $410 $403 $509 forward $275 $-1 #
coedge $-1 $403 $277 $279 $407 reversed $163 $-1 #
coedge $-1 $277 $402 $401 $509 reversed $163 $-1 #
coedge $-1 $285 $280 $277 $405 forward $286 $-1 #
edge $-1 $408 10.521543971607098 $510 18.586510345771085 $404 $511 forward 7 unknown #
coedge $-1 $279 $278 $411 $512 reversed $101 $-1 #
edge $-1 $513 -64.375094001912899 $408 -54.86505978062717 $402 $514 forward 7 unknown #
vertex $-1 $281 $515 #
straight-curve $-1 -8.2287481999286829 24.122580626792463 8.0984092222444843 1 0 0 I I #
coedge $-1 $401 $282 $285 $415 reversed $275 $-1 #
coedge $-1 $282 $401 $406 $512 forward $275 $-1 #
vertex $-1 $283 $516 #
straight-curve $-1 -23.297840964291822 32.187547000956449 58.280689287239248 0 0 1 I I #
straight-curve $-1 -23.297840964291822 -22.405628625795522 37.172461717195702 0 0.84804809178421925 -0.52991927123019833 I I #
edge $-1 $510 9.6171518354229093 $287 23.297840964291822 $410 $517 forward 7 unknown #
point $-1 -23.297840964291822 32.187547000956449 8.0984092222444879 #
point $-1 -23.297840964291822 24.122580626792463 8.0984092222444879 #
edge $-1 $518 1 $518 0 $290 $-1 forward 7 unknown #
vertex $-1 $291 $519 #
ellipse-curve $-1 -20.561703138518041 27.523986516534293 4.5686992494000362 0 0.52991927123019833 0.84804809178421925 1 0 0 1 I I #
point $-1 -19.561703138518041 28.155063813874445 5.5786340202854934 #
edge $-1 $520 1 $520 0 $294 $-1 forward 7 unknown #
vertex $-1 $295 $521 #
ellipse-curve $-1 -16.457496399857369 27.523986516534293 4.5686992494000362 0 0.52991927123019833 0.84804809178421925 1 0 0 1 I I #
point $-1 -15.457496399857369 28.155063813874445 5.5786340202854934 #
edge $-1 $522 1 $522 0 $298 $-1 forward 7 unknown #
vertex $-1 $299 $523 #
ellipse-curve $-1 -12.353289661196698 27.523986516534293 4.5686992494000362 0 0.52991927123019833 0.84804809178421925 1 0 0 1 I I #
point $-1 -11.353289661196698 28.155063813874445 5.5786340202854934 #
loop $-1 $-1 $310 $302 #
plane-surface $-1 0 32.187547000956449 0 0 -1 0 0 0 -1 forward_v I I I I #
coedge $-1 $433 $305 $307 $437 reversed $192 $-1 #
coedge $-1 $305 $432 $524 $525 reversed $192 $-1 #
coedge $-1 $313 $308 $305 $435 forward $303 $-1 #
edge $-1 $438 10.521543971607098 $526 18.586510345771085 $434 $527 forward 7 unknown #
coedge $-1 $307 $306 $441 $528 reversed $120 $-1 #
edge $-1 $529 -64.375094001912899 $438 -54.86505978062717 $432 $530 forward 7 unknown #
vertex $-1 $309 $531 #
straight-curve $-1 11.808044157045817 24.122580626792463 8.0984092222444843 1 0 0 I I #
coedge $-1 $524 $310 $313 $445 reversed $430 $-1 #
coedge $-1 $310 $524 $436 $528 forward $430 $-1 #
vertex $-1 $311 $532 #
straight-curve $-1 16.775743749657178 32.187547000956449 58.280689287239248 0 0 1 I I #
straight-curve $-1 16.775743749657178 -22.405628625795522 37.172461717195702 0 0.84804809178421925 -0.52991927123019833 I I #
edge $-1 $526 -30.45643287852609 $314 -16.775743749657178 $440 $533 forward 7 unknown #
point $-1 16.775743749657178 32.187547000956449 8.0984092222444879 #
point $-1 16.775743749657178 24.122580626792463 8.0984092222444879 #
edge $-1 $534 1 $534 0 $317 $-1 forward 7 unknown #
vertex $-1 $318 $535 #
ellipse-curve $-1 19.511881575430955 27.523986516534293 4.5686992494000362 0 0.52991927123019833 0.84804809178421925 1 0 0 1 I I #
point $-1 20.511881575430955 28.155063813874445 5.5786340202854934 #
edge $-1 $536 1 $536 0 $321 $-1 forward 7 unknown #
vertex $-1 $322 $537 #
ellipse-curve $-1 23.616088314091634 27.523986516534293 4.5686992494000362 0 0.52991927123019833 0.84804809178421925 1 0 0 1 I I #
point $-1 24.616088314091634 28.155063813874445 5.5786340202854934 #
edge $-1 $538 1 $538 0 $325 $-1 forward 7 unknown #
vertex $-1 $326 $539 #
ellipse-curve $-1 27.720295052752299 27.523986516534293 4.5686992494000362 0 0.52991927123019833 0.84804809178421925 1 0 0 1 I I #
point $-1 28.720295052752299 28.155063813874445 5.5786340202854934 #
plane-surface $-1 46.806848353526412 0 0 -1 0 0 0 0 1 forward_v I I I I #
coedge $-1 $334 $332 $336 $465 reversed $221 $-1 #
edge $-1 $347 -8.0984092222444879 $467 8.0984092222444879 $346 $540 forward 7 unknown #
vertex $-1 $465 $541 #
straight-curve $-1 -46.806848353526412 -32.187547000956449 0 0 0 -1 I I #
edge $-1 $463 -32.187547000956449 $467 32.187547000956449 $461 $542 forward 7 unknown #
straight-curve $-1 0 -32.187547000956449 -8.0984092222444879 -1 0 0 I I #
vertex $-1 $339 $543 #
straight-curve $-1 0 32.187547000956449 -8.0984092222444879 1 0 0 I I #
point $-1 46.806848353526412 32.187547000956449 -8.0984092222444879 #
point $-1 46.806848353526412 -32.187547000956449 -8.0984092222444879 #
straight-curve $-1 -46.806848353526412 0 8.0984092222444879 0 -1 0 I I #
point $-1 -46.806848353526412 32.187547000956449 8.0984092222444879 #
point $-1 -46.806848353526412 -32.187547000956449 8.0984092222444879 #
straight-curve $-1 46.806848353526412 -32.187547000956449 0 0 0 -1 I I #
straight-curve $-1 46.806848353526412 32.187547000956449 0 0 0 -1 I I #
plane-surface $-1 0 -32.187547000956449 0 0 1 0 0 0 1 forward_v I I I I #
coedge $-1 $544 $359 $369 $488 reversed $240 $-1 #
coedge $-1 $359 $544 $372 $490 forward $240 $-1 #
coedge $-1 $545 $362 $360 $480 forward $357 $-1 #
edge $-1 $481 40.073584713948996 $546 46.806848353526412 $360 $547 forward 7 unknown #
vertex $-1 $480 $548 #
straight-curve $-1 -40.073584713948996 32.187547000956449 3.2992046111222439 0 0 -1 I I #
coedge $-1 $362 $545 $364 $485 forward $357 $-1 #
straight-curve $-1 -40.073584713948996 0 8.0984092222444879 0 1 0 I I #
edge $-1 $549 -46.806848353526412 $366 -40.073584713948996 $364 $550 forward 7 unknown #
point $-1 -40.073584713948996 -32.187547000956449 8.0984092222444879 #
straight-curve $-1 -46.806848353526412 0 5.0984092222444879 0 -1 0 I I #
edge $-1 $549 -8.0984092222444879 $370 -5.0984092222444879 $477 $551 forward 7 unknown #
point $-1 -46.806848353526412 -32.187547000956449 5.0984092222444879 #
edge $-1 $546 -8.0984092222444879 $373 -5.0984092222444879 $372 $552 forward 7 unknown #
point $-1 -46.806848353526412 32.187547000956449 5.0984092222444879 #
plane-surface $-1 46.806848353526412 0 0 -1 0 0 0 0 1 forward_v I I I I #
coedge $-1 $380 $390 $381 $496 reversed $256 $-1 #
edge $-1 $498 -4.7992046111222439 $391 -1.7992046111222439 $380 $553 forward 7 unknown #
coedge $-1 $382 $381 $395 $504 forward $155 $-1 #
edge $-1 $498 40.073584713948996 $507 46.806848353526412 $493 $554 forward 7 unknown #
edge $-1 $505 -46.806848353526412 $388 -40.073584713948996 $386 $555 forward 7 unknown #
vertex $-1 $496 $556 #
straight-curve $-1 40.073584713948996 0 8.0984092222444879 0 -1 0 I I #
straight-curve $-1 40.073584713948996 0 5.0984092222444879 0 1 0 I I #
point $-1 40.073584713948996 32.187547000956449 5.0984092222444879 #
point $-1 40.073584713948996 32.187547000956449 8.0984092222444879 #
point $-1 40.073584713948996 -32.187547000956449 5.0984092222444879 #
edge $-1 $507 -32.187547000956449 $505 32.187547000956449 $395 $557 forward 7 unknown #
vertex $-1 $504 $558 #
straight-curve $-1 46.806848353526412 32.187547000956449 0 0 0 -1 I I #
vertex $-1 $504 $559 #
straight-curve $-1 46.806848353526412 -32.187547000956449 0 0 0 -1 I I #
edge $-1 $510 50.182280064994757 $513 55.221830468912742 $401 $560 forward 7 unknown #
vertex $-1 $415 $561 #
straight-curve $-1 -9.6171518354229093 13.601036655185364 8.0984092222444843 0 1 0 I I #
edge $-1 $513 1.3884036354942264 $412 15.069092764363139 $411 $562 forward 7 unknown #
vertex $-1 $512 $563 #
straight-curve $-1 -9.6171518354229093 -22.405628625795522 37.172461717195702 0 -0.84804809178421925 0.52991927123019833 I I #
point $-1 -9.6171518354229093 24.122580626792463 8.0984092222444879 #
point $-1 -23.297840964291822 32.187547000956449 3.058858818326506 #
straight-curve $-1 0 32.187547000956449 8.0984092222444879 -1 0 0 I I #
vertex $-1 $418 $564 #
point $-1 -19.561703138518041 27.523986516534293 4.5686992494000362 #
vertex $-1 $422 $565 #
point $-1 -15.457496399857369 27.523986516534293 4.5686992494000362 #
vertex $-1 $426 $566 #
point $-1 -11.353289661196698 27.523986516534293 4.5686992494000362 #
coedge $-1 $441 $440 $433 $525 forward $430 $-1 #
edge $-1 $526 50.182280064994757 $529 55.221830468912742 $524 $567 forward 7 unknown #
vertex $-1 $445 $568 #
straight-curve $-1 30.45643287852609 13.601036655185364 8.0984092222444843 0 1 0 I I #
edge $-1 $529 -18.648388721480273 $442 -4.9676995926113605 $441 $569 forward 7 unknown #
vertex $-1 $528 $570 #
straight-curve $-1 30.45643287852609 -22.405628625795522 37.172461717195702 0 -0.84804809178421925 0.52991927123019833 I I #
point $-1 30.45643287852609 24.122580626792463 8.0984092222444879 #
point $-1 16.775743749657178 32.187547000956449 3.058858818326506 #
straight-curve $-1 0 32.187547000956449 8.0984092222444879 -1 0 0 I I #
vertex $-1 $448 $571 #
point $-1 20.511881575430955 27.523986516534293 4.5686992494000362 #
vertex $-1 $452 $572 #
point $-1 24.616088314091634 27.523986516534293 4.5686992494000362 #
vertex $-1 $456 $573 #
point $-1 28.720295052752299 27.523986516534293 4.5686992494000362 #
straight-curve $-1 -46.806848353526412 32.187547000956449 0 0 0 -1 I I #
point $-1 -46.806848353526412 -32.187547000956449 -8.0984092222444879 #
straight-curve $-1 -46.806848353526412 0 -8.0984092222444879 0 1 0 I I #
point $-1 -46.806848353526412 32.187547000956449 -8.0984092222444879 #
coedge $-1 $478 $477 $545 $574 reversed $240 $-1 #
coedge $-1 $483 $479 $544 $574 forward $357 $-1 #
vertex $-1 $480 $575 #
straight-curve $-1 0 32.187547000956449 8.0984092222444879 -1 0 0 I I #
point $-1 -40.073584713948996 32.187547000956449 8.0984092222444879 #
vertex $-1 $574 $576 #
straight-curve $-1 0 -32.187547000956449 8.0984092222444879 1 0 0 I I #
straight-curve $-1 -46.806848353526412 -32.187547000956449 0 0 0 -1 I I #
straight-curve $-1 -46.806848353526412 32.187547000956449 0 0 0 -1 I I #
straight-curve $-1 40.073584713948996 -32.187547000956449 3.2992046111222439 0 0 -1 I I #
straight-curve $-1 0 -32.187547000956449 8.0984092222444879 1 0 0 I I #
straight-curve $-1 0 32.187547000956449 8.0984092222444879 -1 0 0 I I #
point $-1 40.073584713948996 -32.187547000956449 8.0984092222444879 #
straight-curve $-1 46.806848353526412 0 8.0984092222444879 0 1 0 I I #
point $-1 46.806848353526412 32.187547000956449 8.0984092222444879 #
point $-1 46.806848353526412 -32.187547000956449 8.0984092222444879 #
straight-curve $-1 -9.6171518354229093 32.187547000956449 58.280689287239248 0 0 -1 I I #
point $-1 -9.6171518354229093 32.187547000956449 8.0984092222444879 #
straight-curve $-1 -8.2287481999286829 32.187547000956457 3.058858818326506 -1 0 0 I I #
point $-1 -9.6171518354229093 32.187547000956449 3.058858818326506 #
point $-1 -20.561703138518041 26.994067245304095 3.7206511576158166 #
point $-1 -16.457496399857369 26.994067245304095 3.7206511576158166 #
point $-1 -12.353289661196698 26.994067245304095 3.7206511576158166 #
straight-curve $-1 30.45643287852609 32.187547000956449 58.280689287239248 0 0 -1 I I #
point $-1 30.45643287852609 32.187547000956449 8.0984092222444879 #
straight-curve $-1 11.808044157045817 32.187547000956457 3.058858818326506 -1 0 0 I I #
point $-1 30.45643287852609 32.187547000956449 3.058858818326506 #
point $-1 19.511881575430955 26.994067245304095 3.7206511576158166 #
point $-1 23.616088314091634 26.994067245304095 3.7206511576158166 #
point $-1 27.720295052752299 26.994067245304095 3.7206511576158166 #
edge $-1 $546 -32.187547000956449 $549 32.187547000956449 $544 $577 forward 7 unknown #
point $-1 -46.806848353526412 32.187547000956449 8.0984092222444879 #
point $-1 -46.806848353526412 -32.187547000956449 8.0984092222444879 #
straight-curve $-1 -46.806848353526412 0 8.0984092222444879 0 -1 0 I I #
End-of-ACIS-data 