500 0 9 0           
7 Unknown 11 ACIS 5.0 NT 24 Thu Mar 25 15:39:40 1999 
-1 9.9999999999999995e-007 1e-010 
body $-1 $9 $-1 $10 #
body $-1 $11 $-1 $12 #
body $-1 $13 $-1 $14 #
body $-1 $15 $-1 $16 #
body $-1 $17 $-1 $18 #
body $-1 $19 $-1 $20 #
body $-1 $21 $-1 $22 #
body $-1 $23 $-1 $24 #
body $-1 $25 $-1 $26 #
lump $-1 $-1 $27 $0 #
transform $-1 1 0 0 0 1 0 0 0 1 70.780968657490774 31.024430254508495 15.237542828391584 1 rotate no_reflect no_shear #
lump $-1 $-1 $28 $1 #
transform $-1 1 0 0 0 1 0 0 0 1 70.780968657490774 31.024430254508495 15.237542828391584 1 rotate no_reflect no_shear #
lump $-1 $-1 $29 $2 #
transform $-1 1 0 0 0 1 0 0 0 1 70.780968657490774 31.024430254508495 15.237542828391584 1 rotate no_reflect no_shear #
lump $-1 $-1 $30 $3 #
transform $-1 1 0 0 0 1 0 0 0 1 70.780968657490774 31.024430254508495 15.237542828391584 1 rotate no_reflect no_shear #
lump $-1 $-1 $31 $4 #
transform $-1 1 0 0 0 1 0 0 0 1 70.780968657490774 31.024430254508495 15.237542828391584 1 rotate no_reflect no_shear #
lump $-1 $-1 $32 $5 #
transform $-1 1 0 0 0 1 0 0 0 1 70.780968657490774 31.024430254508495 15.237542828391584 1 rotate no_reflect no_shear #
lump $-1 $-1 $33 $6 #
transform $-1 1 0 0 0 1 0 0 0 1 70.780968657490774 31.024430254508495 15.237542828391584 1 rotate no_reflect no_shear #
lump $-1 $-1 $34 $7 #
transform $-1 1 0 0 0 1 0 0 0 1 70.780968657490774 31.024430254508495 15.237542828391584 1 rotate no_reflect no_shear #
lump $-1 $-1 $35 $8 #
transform $-1 1 0 0 0 1 0 0 0 1 70.780968657490774 31.024430254508495 15.237542828391584 1 rotate no_reflect no_shear #
shell $-1 $-1 $-1 $36 $-1 $9 #
shell $-1 $-1 $-1 $37 $-1 $11 #
shell $-1 $-1 $-1 $38 $-1 $13 #
shell $-1 $-1 $-1 $39 $-1 $15 #
shell $-1 $-1 $-1 $40 $-1 $17 #
shell $-1 $-1 $-1 $41 $-1 $19 #
shell $-1 $-1 $-1 $42 $-1 $21 #
shell $-1 $-1 $-1 $43 $-1 $23 #
shell $-1 $-1 $-1 $44 $-1 $25 #
face $-1 $45 $46 $27 $-1 $47 forward single #
face $-1 $48 $49 $28 $-1 $50 forward single #
face $-1 $51 $52 $29 $-1 $53 reversed single #
face $-1 $54 $55 $30 $-1 $56 forward single #
face $-1 $57 $58 $31 $-1 $59 forward single #
face $-1 $60 $61 $32 $-1 $62 forward single #
face $-1 $63 $64 $33 $-1 $65 reversed single #
face $-1 $66 $67 $34 $-1 $68 forward single #
face $-1 $69 $70 $35 $-1 $71 forward single #
face $-1 $72 $73 $27 $-1 $74 reversed single #
loop $-1 $-1 $75 $36 #
plane-surface $-1 0 0 15.237542828391584 0 0 1 1 0 0 forward_v I I I I #
face $-1 $76 $77 $28 $-1 $78 forward single #
loop $-1 $-1 $79 $37 #
plane-surface $-1 0 -31.024430254508495 0 0 1 0 0 0 1 forward_v I I I I #
face $-1 $80 $81 $29 $-1 $82 reversed single #
loop $-1 $-1 $83 $38 #
plane-surface $-1 42.918681120607062 11.565306371609022 209.95284893250886 0 -1 0 -0.6018150307709319 0 -0.79863550430605224 forward_v I I I I #
face $-1 $84 $85 $30 $-1 $86 forward single #
loop $-1 $87 $88 $39 #
cone-surface $-1 67.886567723517587 4.1829828420566102 12.741765580522015 -0.6018150307709319 0 -0.79863550430605224 0.39931775215302612 0 -0.30090751538546595 1 I I 0 1 0.5 forward I I I I #
face $-1 $89 $90 $31 $-1 $91 forward single #
loop $-1 $92 $93 $40 #
cone-surface $-1 67.886567723517587 6.9513541656387616 12.741765580522015 -0.6018150307709319 0 -0.79863550430605224 0.39931775215302612 0 -0.30090751538546595 1 I I 0 1 0.5 forward I I I I #
face $-1 $94 $95 $32 $-1 $96 forward single #
loop $-1 $97 $98 $41 #
cone-surface $-1 67.886567723517587 9.7197254892209131 12.741765580522015 -0.6018150307709319 0 -0.79863550430605224 0.39931775215302612 0 -0.30090751538546595 1 I I 0 1 0.5 forward I I I I #
face $-1 $99 $100 $33 $-1 $101 reversed single #
loop $-1 $-1 $102 $42 #
plane-surface $-1 -153.98898876022363 18.768412338788771 121.0894015865577 0 1 0 -0.5877852598018023 0 0.80901698891910034 forward_v I I I I #
face $-1 $103 $104 $34 $-1 $105 forward single #
loop $-1 $106 $107 $43 #
cone-surface $-1 -63.723615744716746 22.270131743280125 9.4031291226092435 0.5877852598018023 0 -0.80901698891910034 0.80901698891910034 0 0.5877852598018023 1 I I 0 1 1 forward I I I I #
face $-1 $108 $109 $35 $-1 $110 forward single #
loop $-1 $111 $112 $44 #
cone-surface $-1 -63.723615744716746 27.522710850017148 9.4031291226092435 0.5877852598018023 0 -0.80901698891910034 0.80901698891910034 0 0.5877852598018023 1 I I 0 1 1 forward I I I I #
face $-1 $113 $114 $27 $-1 $115 reversed single #
loop $-1 $-1 $116 $45 #
plane-surface $-1 0 0 -15.237542828391584 0 0 1 1 0 0 forward_v I I I I #
coedge $-1 $117 $118 $119 $120 forward $46 $-1 #
face $-1 $121 $122 $28 $-1 $123 reversed single #
loop $-1 $-1 $124 $48 #
plane-surface $-1 0 0 15.237542828391584 0 0 1 1 0 0 forward_v I I I I #
coedge $-1 $125 $126 $127 $128 forward $49 $-1 #
face $-1 $129 $130 $29 $-1 $131 reversed single #
loop $-1 $-1 $132 $51 #
plane-surface $-1 -42.275420540601289 6.9513541656387687 96.896459734416808 0.6018150307709319 0 0.79863550430605224 0.79863550430605224 0 -0.6018150307709319 forward_v I I I I #
coedge $-1 $133 $134 $135 $136 reversed $52 $-1 #
face $-1 $-1 $137 $30 $-1 $138 forward single #
loop $-1 $139 $140 $54 #
cone-surface $-1 67.18738729671179 4.1829828420566102 11.813921834167486 -0.6018150307709319 0 -0.79863550430605224 0.19965887607651306 0 -0.15045375769273298 1 I I -0.70710678118654746 0.70710678118654746 0.25 forward I I I I #
loop $-1 $-1 $141 $39 #
coedge $-1 $88 $88 $142 $143 reversed $55 $-1 #
face $-1 $-1 $144 $31 $-1 $145 forward single #
loop $-1 $146 $147 $57 #
cone-surface $-1 67.18738729671179 6.9513541656387616 11.813921834167486 -0.6018150307709319 0 -0.79863550430605224 0.19965887607651306 0 -0.15045375769273298 1 I I -0.70710678118654746 0.70710678118654746 0.25 forward I I I I #
loop $-1 $-1 $148 $40 #
coedge $-1 $93 $93 $149 $150 reversed $58 $-1 #
face $-1 $-1 $151 $32 $-1 $152 forward single #
loop $-1 $153 $154 $60 #
cone-surface $-1 67.18738729671179 9.7197254892209131 11.813921834167486 -0.6018150307709319 0 -0.79863550430605224 0.19965887607651306 0 -0.15045375769273298 1 I I -0.70710678118654746 0.70710678118654746 0.25 forward I I I I #
loop $-1 $-1 $155 $41 #
coedge $-1 $98 $98 $156 $157 reversed $61 $-1 #
face $-1 $158 $159 $33 $-1 $160 forward single #
loop $-1 $-1 $161 $63 #
plane-surface $-1 -70.78096865749076 24.896421296648633 6.5633893144368898 -0.5877852598018023 0 0.80901698891910034 0.80901698891910034 0 0.5877852598018023 forward_v I I I I #
coedge $-1 $162 $163 $164 $165 reversed $64 $-1 #
face $-1 $-1 $166 $34 $-1 $167 forward single #
loop $-1 $168 $169 $66 #
cone-surface $-1 -62.341844121520452 22.270131743280125 7.5012836793446969 0.5877852598018023 0 -0.80901698891910034 0.40450849445955017 0 0.29389262990090115 1 I I -0.70710678118654746 0.70710678118654746 0.5 forward I I I I #
loop $-1 $-1 $170 $43 #
coedge $-1 $107 $107 $171 $172 reversed $67 $-1 #
face $-1 $-1 $173 $35 $-1 $174 forward single #
loop $-1 $175 $176 $69 #
cone-surface $-1 -62.341844121520452 27.522710850017148 7.5012836793446969 0.5877852598018023 0 -0.80901698891910034 0.40450849445955017 0 0.29389262990090115 1 I I -0.70710678118654746 0.70710678118654746 0.5 forward I I I I #
loop $-1 $-1 $177 $44 #
coedge $-1 $112 $112 $178 $179 reversed $70 $-1 #
face $-1 $180 $181 $27 $-1 $182 reversed single #
loop $-1 $-1 $183 $72 #
plane-surface $-1 0 -31.024430254508495 0 0 1 0 0 0 1 forward_v I I I I #
coedge $-1 $184 $185 $186 $187 forward $73 $-1 #
coedge $-1 $188 $75 $189 $190 forward $46 $-1 #
coedge $-1 $75 $188 $191 $192 forward $46 $-1 #
coedge $-1 $193 $194 $75 $120 reversed $195 $-1 #
edge $-1 $196 -31.024430254508495 $197 31.024430254508495 $119 $198 forward 7 unknown #
face $-1 $199 $200 $28 $-1 $201 reversed single #
loop $-1 $-1 $202 $76 #
plane-surface $-1 -70.780968657490774 0 0 1 0 0 0 0 -1 forward_v I I I I #
coedge $-1 $203 $204 $205 $206 forward $77 $-1 #
coedge $-1 $205 $79 $202 $207 reversed $49 $-1 #
coedge $-1 $79 $205 $208 $209 reversed $49 $-1 #
coedge $-1 $210 $211 $79 $128 reversed $200 $-1 #
edge $-1 $212 -70.780968657490774 $213 70.780968657490774 $127 $214 forward 7 unknown #
face $-1 $215 $216 $29 $-1 $217 reversed single #
loop $-1 $-1 $218 $80 #
plane-surface $-1 42.918681120607062 2.3374019596685152 209.95284893250886 0 1 0 0.6018150307709319 0 0.79863550430605224 forward_v I I I I #
coedge $-1 $219 $220 $221 $222 reversed $81 $-1 #
coedge $-1 $134 $83 $223 $224 reversed $52 $-1 #
coedge $-1 $83 $133 $219 $225 reversed $52 $-1 #
coedge $-1 $221 $226 $83 $136 forward $227 $-1 #
edge $-1 $228 -49.321628097187244 $229 -44.630279567466999 $135 $230 forward 7 unknown #
loop $-1 $-1 $142 $84 #
plane-surface $-1 -42.275420540601289 6.9513541656387687 96.896459734416808 0.6018150307709319 0 0.79863550430605224 0.79863550430605224 0 -0.6018150307709319 forward_v I I I I #
loop $-1 $-1 $231 $54 #
coedge $-1 $140 $140 $141 $232 reversed $85 $-1 #
coedge $-1 $141 $141 $140 $232 forward $87 $-1 #
coedge $-1 $142 $142 $88 $143 forward $137 $-1 #
edge $-1 $233 0 $233 6.2831853071796004 $142 $234 forward 7 unknown #
loop $-1 $-1 $149 $89 #
plane-surface $-1 -42.275420540601289 6.9513541656387687 96.896459734416808 0.6018150307709319 0 0.79863550430605224 0.79863550430605224 0 -0.6018150307709319 forward_v I I I I #
loop $-1 $-1 $235 $57 #
coedge $-1 $147 $147 $148 $236 reversed $90 $-1 #
coedge $-1 $148 $148 $147 $236 forward $92 $-1 #
coedge $-1 $149 $149 $93 $150 forward $144 $-1 #
edge $-1 $237 0 $237 6.2831853071796004 $149 $238 forward 7 unknown #
loop $-1 $-1 $156 $94 #
plane-surface $-1 -42.275420540601289 6.9513541656387687 96.896459734416808 0.6018150307709319 0 0.79863550430605224 0.79863550430605224 0 -0.6018150307709319 forward_v I I I I #
loop $-1 $-1 $239 $60 #
coedge $-1 $154 $154 $155 $240 reversed $95 $-1 #
coedge $-1 $155 $155 $154 $240 forward $97 $-1 #
coedge $-1 $156 $156 $98 $157 forward $151 $-1 #
edge $-1 $241 0 $241 6.2831853071796004 $156 $242 forward 7 unknown #
face $-1 $243 $244 $33 $-1 $245 reversed single #
loop $-1 $-1 $164 $99 #
plane-surface $-1 0 0 15.237542828391584 0 0 1 1 0 0 forward_v I I I I #
coedge $-1 $246 $247 $248 $249 reversed $100 $-1 #
coedge $-1 $163 $102 $250 $251 reversed $64 $-1 #
coedge $-1 $102 $162 $246 $252 reversed $64 $-1 #
coedge $-1 $248 $253 $102 $165 forward $159 $-1 #
edge $-1 $254 6.2135257226210427 $255 18.152473561578319 $164 $256 forward 7 unknown #
loop $-1 $-1 $171 $103 #
plane-surface $-1 -70.78096865749076 24.896421296648633 6.5633893144368898 -0.5877852598018023 0 0.80901698891910034 0.80901698891910034 0 0.5877852598018023 forward_v I I I I #
loop $-1 $-1 $257 $66 #
coedge $-1 $169 $169 $170 $258 reversed $104 $-1 #
coedge $-1 $170 $170 $169 $258 forward $106 $-1 #
coedge $-1 $171 $171 $107 $172 forward $166 $-1 #
edge $-1 $259 0 $259 6.2831853071796004 $171 $260 forward 7 unknown #
loop $-1 $-1 $178 $108 #
plane-surface $-1 -70.78096865749076 24.896421296648633 6.5633893144368898 -0.5877852598018023 0 0.80901698891910034 0.80901698891910034 0 0.5877852598018023 forward_v I I I I #
loop $-1 $-1 $261 $69 #
coedge $-1 $176 $176 $177 $262 reversed $109 $-1 #
coedge $-1 $177 $177 $176 $262 forward $111 $-1 #
coedge $-1 $178 $178 $112 $179 forward $173 $-1 #
edge $-1 $263 0 $263 6.2831853071796004 $178 $264 forward 7 unknown #
face $-1 $265 $266 $27 $-1 $267 reversed single #
loop $-1 $-1 $268 $113 #
plane-surface $-1 -70.780968657490774 0 0 1 0 0 0 0 -1 forward_v I I I I #
coedge $-1 $269 $191 $270 $271 forward $114 $-1 #
coedge $-1 $272 $116 $269 $273 forward $73 $-1 #
coedge $-1 $116 $272 $274 $275 forward $73 $-1 #
coedge $-1 $194 $193 $116 $187 reversed $195 $-1 #
edge $-1 $276 -31.024430254508495 $277 31.024430254508495 $186 $278 forward 7 unknown #
coedge $-1 $118 $117 $279 $280 forward $46 $-1 #
coedge $-1 $281 $282 $117 $190 reversed $266 $-1 #
edge $-1 $197 -70.780968657490774 $283 70.780968657490774 $189 $284 forward 7 unknown #
coedge $-1 $183 $285 $118 $192 reversed $114 $-1 #
edge $-1 $286 -70.780968657490774 $196 70.780968657490774 $191 $287 forward 7 unknown #
coedge $-1 $186 $119 $285 $288 forward $195 $-1 #
coedge $-1 $119 $186 $281 $289 reversed $195 $-1 #
loop $-1 $-1 $193 $265 #
vertex $-1 $120 $290 #
vertex $-1 $120 $291 #
straight-curve $-1 70.780968657490774 0 15.237542828391584 0 1 0 I I #
face $-1 $292 $293 $28 $-1 $294 reversed single #
loop $-1 $-1 $210 $121 #
plane-surface $-1 0 -40.671473147666944 10.842013719149882 0 0 1 1 0 0 forward_v I I I I #
coedge $-1 $295 $296 $125 $207 forward $122 $-1 #
coedge $-1 $297 $124 $296 $298 forward $77 $-1 #
coedge $-1 $124 $297 $299 $300 forward $77 $-1 #
coedge $-1 $126 $125 $124 $206 reversed $49 $-1 #
edge $-1 $301 -70.780968657490774 $302 70.780968657490774 $124 $303 forward 7 unknown #
edge $-1 $302 -15.237542828391584 $213 -10.842013719149882 $202 $304 forward 7 unknown #
coedge $-1 $299 $305 $126 $209 forward $306 $-1 #
edge $-1 $212 10.842013719149882 $301 15.237542828391584 $208 $307 forward 7 unknown #
coedge $-1 $308 $127 $305 $309 forward $200 $-1 #
coedge $-1 $127 $308 $295 $310 forward $200 $-1 #
vertex $-1 $209 $311 #
vertex $-1 $207 $312 #
straight-curve $-1 0 -31.024430254508495 10.842013719149882 -1 0 0 I I #
face $-1 $-1 $227 $29 $-1 $313 forward single #
loop $-1 $-1 $314 $129 #
plane-surface $-1 70.780968657490774 0 0 -1 0 0 0 0 1 forward_v I I I I #
coedge $-1 $315 $316 $317 $318 reversed $130 $-1 #
coedge $-1 $319 $132 $134 $225 forward $81 $-1 #
coedge $-1 $132 $319 $315 $320 forward $81 $-1 #
coedge $-1 $317 $135 $132 $222 forward $227 $-1 #
edge $-1 $229 -8.0896292887896379 $321 1.1382751231508692 $221 $322 forward 7 unknown #
coedge $-1 $323 $324 $133 $224 forward $216 $-1 #
edge $-1 $325 -93.274066393045985 $228 -89.738881637862846 $223 $326 forward 7 unknown #
edge $-1 $229 135.68773249385151 $325 141.56193731498158 $134 $327 forward 7 unknown #
coedge $-1 $135 $317 $323 $328 forward $227 $-1 #
loop $-1 $-1 $317 $215 #
vertex $-1 $224 $329 #
vertex $-1 $136 $330 #
straight-curve $-1 21.459340560303531 11.565306371609022 15.237542828391582 -1 0 0 I I #
coedge $-1 $231 $231 $-1 $331 reversed $139 $-1 #
edge $-1 $332 0 $332 6.2831853071796004 $140 $333 forward 7 unknown #
vertex $-1 $143 $334 #
ellipse-curve $-1 68.435294392630638 4.1829828420566102 13.469950450800022 0.6018150307709319 0 0.79863550430605224 0.39931775215302612 0 -0.30090751538546595 1 I I #
coedge $-1 $235 $235 $-1 $335 reversed $146 $-1 #
edge $-1 $336 0 $336 6.2831853071796004 $147 $337 forward 7 unknown #
vertex $-1 $150 $338 #
ellipse-curve $-1 68.435294392630638 6.9513541656387616 13.469950450800022 0.6018150307709319 0 0.79863550430605224 0.39931775215302612 0 -0.30090751538546595 1 I I #
coedge $-1 $239 $239 $-1 $339 reversed $153 $-1 #
edge $-1 $340 0 $340 6.2831853071796004 $154 $341 forward 7 unknown #
vertex $-1 $157 $342 #
ellipse-curve $-1 68.435294392630638 9.7197254892209131 13.469950450800022 0.6018150307709319 0 0.79863550430605224 0.39931775215302612 0 -0.30090751538546595 1 I I #
face $-1 $-1 $343 $33 $-1 $344 reversed single #
loop $-1 $-1 $345 $158 #
plane-surface $-1 0 31.024430254508495 0 0 -1 0 0 0 -1 forward_v I I I I #
coedge $-1 $346 $161 $163 $252 forward $100 $-1 #
coedge $-1 $161 $346 $345 $347 reversed $100 $-1 #
coedge $-1 $348 $164 $161 $249 forward $159 $-1 #
edge $-1 $255 6.3202016904644545 $349 18.576219606184178 $248 $350 forward 7 unknown #
coedge $-1 $351 $352 $162 $251 forward $343 $-1 #
edge $-1 $353 -53.981311478841974 $254 -45.307157964887267 $250 $354 forward 7 unknown #
edge $-1 $255 -14.757351208295979 $353 1.7761521089745031e-014 $163 $355 forward 7 unknown #
coedge $-1 $164 $348 $351 $356 forward $159 $-1 #
vertex $-1 $251 $357 #
vertex $-1 $165 $358 #
straight-curve $-1 -76.994494380111817 18.768412338788771 15.237542828391582 1 0 0 I I #
coedge $-1 $257 $257 $-1 $359 reversed $168 $-1 #
edge $-1 $360 0 $360 6.2831853071796004 $169 $361 forward 7 unknown #
vertex $-1 $172 $362 #
ellipse-curve $-1 -64.811494738012129 22.270131743280125 10.900466071414233 -0.5877852598018023 0 0.80901698891910034 0.80901698891910034 0 0.5877852598018023 1 I I #
coedge $-1 $261 $261 $-1 $363 reversed $175 $-1 #
edge $-1 $364 0 $364 6.2831853071796004 $176 $365 forward 7 unknown #
vertex $-1 $179 $366 #
ellipse-curve $-1 -64.811494738012129 27.522710850017148 10.900466071414233 -0.5877852598018023 0 0.80901698891910034 0.80901698891910034 0 0.5877852598018023 1 I I #
face $-1 $-1 $195 $27 $-1 $367 reversed single #
loop $-1 $-1 $281 $180 #
plane-surface $-1 0 31.024430254508495 0 0 -1 0 0 0 -1 forward_v I I I I #
coedge $-1 $368 $279 $282 $369 forward $181 $-1 #
coedge $-1 $285 $183 $184 $273 reversed $114 $-1 #
coedge $-1 $279 $368 $183 $271 reversed $181 $-1 #
edge $-1 $286 -15.237542828391584 $370 15.237542828391584 $270 $371 forward 7 unknown #
coedge $-1 $185 $184 $368 $372 forward $73 $-1 #
edge $-1 $277 -70.780968657490774 $370 70.780968657490774 $269 $373 forward 7 unknown #
coedge $-1 $282 $281 $185 $275 reversed $266 $-1 #
edge $-1 $374 -70.780968657490774 $276 70.780968657490774 $274 $375 forward 7 unknown #
vertex $-1 $187 $376 #
vertex $-1 $288 $377 #
straight-curve $-1 70.780968657490774 0 -15.237542828391584 0 -1 0 I I #
coedge $-1 $268 $270 $188 $280 reversed $181 $-1 #
edge $-1 $283 -31.024430254508495 $286 31.024430254508495 $279 $378 forward 7 unknown #
coedge $-1 $274 $189 $194 $289 forward $266 $-1 #
coedge $-1 $189 $274 $268 $369 reversed $266 $-1 #
vertex $-1 $190 $379 #
straight-curve $-1 0 31.024430254508495 15.237542828391584 -1 0 0 I I #
coedge $-1 $191 $269 $193 $288 reversed $114 $-1 #
vertex $-1 $280 $380 #
straight-curve $-1 0 -31.024430254508495 15.237542828391584 1 0 0 I I #
edge $-1 $196 -15.237542828391584 $277 15.237542828391584 $193 $381 forward 7 unknown #
edge $-1 $197 -15.237542828391584 $276 15.237542828391584 $194 $382 forward 7 unknown #
point $-1 70.780968657490774 -31.024430254508495 15.237542828391584 #
point $-1 70.780968657490774 31.024430254508495 15.237542828391584 #
face $-1 $-1 $306 $28 $-1 $383 reversed single #
loop $-1 $-1 $384 $199 #
plane-surface $-1 0 -50.318516040825394 13.039778273770734 0 1 0 0 0 1 forward_v I I I I #
coedge $-1 $385 $202 $211 $310 reversed $122 $-1 #
coedge $-1 $202 $385 $203 $298 reversed $122 $-1 #
coedge $-1 $204 $203 $386 $387 forward $77 $-1 #
edge $-1 $302 31.024430254508495 $388 50.318516040825394 $296 $389 forward 7 unknown #
coedge $-1 $390 $208 $204 $300 reversed $306 $-1 #
edge $-1 $391 -50.318516040825394 $301 -31.024430254508495 $299 $392 forward 7 unknown #
vertex $-1 $209 $393 #
vertex $-1 $298 $394 #
straight-curve $-1 0 -31.024430254508495 15.237542828391584 -1 0 0 I I #
straight-curve $-1 -70.780968657490774 -31.024430254508495 0 0 0 -1 I I #
coedge $-1 $208 $390 $210 $309 reversed $306 $-1 #
loop $-1 $-1 $208 $292 #
straight-curve $-1 70.780968657490774 -31.024430254508495 0 0 0 1 I I #
coedge $-1 $211 $210 $395 $396 forward $200 $-1 #
edge $-1 $212 -9.6470428931584493 $397 9.6470428931584493 $305 $398 forward 7 unknown #
edge $-1 $399 -9.6470428931584493 $213 9.6470428931584493 $295 $400 forward 7 unknown #
point $-1 70.780968657490774 -31.024430254508495 10.842013719149882 #
point $-1 -70.780968657490774 -31.024430254508495 10.842013719149882 #
plane-surface $-1 0 0 15.237542828391584 0 0 1 1 0 0 forward_v I I I I #
coedge $-1 $324 $323 $316 $401 forward $216 $-1 #
coedge $-1 $316 $218 $220 $320 reversed $130 $-1 #
coedge $-1 $218 $315 $314 $401 reversed $130 $-1 #
coedge $-1 $226 $221 $218 $318 forward $227 $-1 #
edge $-1 $321 44.630279567466999 $402 49.321628097187244 $317 $403 forward 7 unknown #
coedge $-1 $220 $219 $324 $404 reversed $81 $-1 #
edge $-1 $405 -141.56193731498158 $321 -135.68773249385151 $315 $406 forward 7 unknown #
vertex $-1 $222 $407 #
straight-curve $-1 66.08962012777053 3.4756770828193844 15.237542828391582 0 -1 0 I I #
coedge $-1 $314 $223 $226 $328 reversed $216 $-1 #
coedge $-1 $223 $314 $319 $404 forward $216 $-1 #
vertex $-1 $224 $408 #
straight-curve $-1 70.780968657490774 11.565306371609022 104.97642446625443 0 0 1 I I #
straight-curve $-1 -42.275420540601289 11.565306371609022 96.896459734416808 0.79863550430605224 0 -0.6018150307709319 I I #
edge $-1 $402 2.3374019596685152 $228 11.565306371609022 $323 $409 forward 7 unknown #
point $-1 70.780968657490774 11.565306371609022 15.237542828391584 #
point $-1 66.08962012777053 11.565306371609022 15.237542828391582 #
edge $-1 $410 1 $410 0 $231 $-1 forward 7 unknown #
vertex $-1 $232 $411 #
ellipse-curve $-1 67.337841054404521 4.1829828420566102 12.013580710244 0.6018150307709319 0 0.79863550430605224 0.39931775215302612 0 -0.30090751538546595 1 I I #
point $-1 68.834612144783677 4.1829828420566102 13.169042935414566 #
edge $-1 $412 1 $412 0 $235 $-1 forward 7 unknown #
vertex $-1 $236 $413 #
ellipse-curve $-1 67.337841054404521 6.9513541656387616 12.013580710244 0.6018150307709319 0 0.79863550430605224 0.39931775215302612 0 -0.30090751538546595 1 I I #
point $-1 68.834612144783677 6.9513541656387616 13.169042935414566 #
edge $-1 $414 1 $414 0 $239 $-1 forward 7 unknown #
vertex $-1 $240 $415 #
ellipse-curve $-1 67.337841054404521 9.7197254892209131 12.013580710244 0.6018150307709319 0 0.79863550430605224 0.39931775215302612 0 -0.30090751538546595 1 I I #
point $-1 68.834612144783677 9.7197254892209131 13.169042935414566 #
loop $-1 $-1 $250 $243 #
plane-surface $-1 -70.780968657490774 0 0 1 0 0 0 0 -1 forward_v I I I I #
coedge $-1 $416 $417 $247 $347 forward $244 $-1 #
coedge $-1 $247 $246 $352 $418 reversed $100 $-1 #
edge $-1 $349 11.945220113050883 $419 26.70257132134688 $345 $420 forward 7 unknown #
coedge $-1 $253 $248 $417 $421 forward $159 $-1 #
vertex $-1 $421 $422 #
straight-curve $-1 -58.842020818533499 12.448210648324316 15.237542828391584 0 1 0 I I #
coedge $-1 $423 $250 $253 $356 reversed $343 $-1 #
coedge $-1 $250 $423 $346 $418 forward $343 $-1 #
vertex $-1 $251 $424 #
straight-curve $-1 -70.780968657490774 18.768412338788771 60.544700793278849 0 0 1 I I #
straight-curve $-1 -70.78096865749076 18.768412338788771 6.5633893144368898 -0.80901698891910034 0 -0.5877852598018023 I I #
edge $-1 $425 -31.024430254508495 $254 -18.768412338788771 $351 $426 forward 7 unknown #
point $-1 -70.780968657490774 18.768412338788771 15.237542828391584 #
point $-1 -58.842020818533499 18.768412338788771 15.237542828391584 #
edge $-1 $427 1 $427 0 $257 $-1 forward 7 unknown #
vertex $-1 $258 $428 #
ellipse-curve $-1 -62.635736751421355 22.270131743280125 7.9057921738042474 -0.5877852598018023 0 0.80901698891910034 0.80901698891910034 0 0.5877852598018023 1 I I #
point $-1 -64.002477749093046 22.270131743280125 11.488251331216041 #
edge $-1 $429 1 $429 0 $261 $-1 forward 7 unknown #
vertex $-1 $262 $430 #
ellipse-curve $-1 -62.635736751421355 27.522710850017148 7.9057921738042474 -0.5877852598018023 0 0.80901698891910034 0.80901698891910034 0 0.5877852598018023 1 I I #
point $-1 -64.002477749093046 27.522710850017148 11.488251331216041 #
plane-surface $-1 70.780968657490774 0 0 -1 0 0 0 0 1 forward_v I I I I #
coedge $-1 $270 $268 $272 $372 reversed $181 $-1 #
edge $-1 $283 -15.237542828391584 $374 15.237542828391584 $282 $431 forward 7 unknown #
vertex $-1 $372 $432 #
straight-curve $-1 -70.780968657490774 -31.024430254508495 0 0 0 -1 I I #
edge $-1 $370 -31.024430254508495 $374 31.024430254508495 $368 $433 forward 7 unknown #
straight-curve $-1 0 -31.024430254508495 -15.237542828391584 -1 0 0 I I #
vertex $-1 $275 $434 #
straight-curve $-1 0 31.024430254508495 -15.237542828391584 1 0 0 I I #
point $-1 70.780968657490774 31.024430254508495 -15.237542828391584 #
point $-1 70.780968657490774 -31.024430254508495 -15.237542828391584 #
straight-curve $-1 -70.780968657490774 0 15.237542828391584 0 -1 0 I I #
point $-1 -70.780968657490774 31.024430254508495 15.237542828391584 #
point $-1 -70.780968657490774 -31.024430254508495 15.237542828391584 #
straight-curve $-1 70.780968657490774 -31.024430254508495 0 0 0 -1 I I #
straight-curve $-1 70.780968657490774 31.024430254508495 0 0 0 -1 I I #
plane-surface $-1 70.780968657490774 0 0 -1 0 0 0 0 1 forward_v I I I I #
coedge $-1 $395 $386 $385 $435 forward $293 $-1 #
coedge $-1 $296 $295 $384 $435 reversed $122 $-1 #
coedge $-1 $384 $436 $297 $387 reversed $293 $-1 #
edge $-1 $388 -70.780968657490774 $391 70.780968657490774 $386 $437 forward 7 unknown #
vertex $-1 $298 $438 #
straight-curve $-1 -70.780968657490774 0 15.237542828391584 0 -1 0 I I #
coedge $-1 $305 $299 $436 $439 forward $306 $-1 #
vertex $-1 $300 $440 #
straight-curve $-1 70.780968657490774 0 15.237542828391584 0 1 0 I I #
point $-1 70.780968657490774 -31.024430254508495 15.237542828391584 #
point $-1 -70.780968657490774 -31.024430254508495 15.237542828391584 #
coedge $-1 $436 $384 $308 $396 reversed $293 $-1 #
edge $-1 $397 -70.780968657490774 $399 70.780968657490774 $395 $441 forward 7 unknown #
vertex $-1 $439 $442 #
straight-curve $-1 70.780968657490774 -40.671473147666944 10.842013719149882 0 -1 0 I I #
vertex $-1 $310 $443 #
straight-curve $-1 -70.780968657490774 -40.671473147666944 10.842013719149882 0 1 0 I I #
edge $-1 $402 89.738881637862846 $405 93.274066393045985 $314 $444 forward 7 unknown #
vertex $-1 $328 $445 #
straight-curve $-1 21.459340560303531 2.3374019596685152 15.237542828391582 1 0 0 I I #
edge $-1 $405 -1.1382751231508692 $325 8.0896292887896379 $324 $446 forward 7 unknown #
vertex $-1 $404 $447 #
straight-curve $-1 -42.275420540601289 2.3374019596685152 96.896459734416808 -0.79863550430605224 0 0.6018150307709319 I I #
point $-1 66.08962012777053 2.3374019596685152 15.237542828391582 #
point $-1 70.780968657490774 11.565306371609022 11.702358073208444 #
straight-curve $-1 70.780968657490774 0 15.237542828391584 0 1 0 I I #
vertex $-1 $331 $448 #
point $-1 67.737158806557545 4.1829828420566102 11.712673194858533 #
vertex $-1 $335 $449 #
point $-1 67.737158806557545 6.9513541656387616 11.712673194858533 #
vertex $-1 $339 $450 #
point $-1 67.737158806557545 9.7197254892209131 11.712673194858533 #
coedge $-1 $417 $345 $423 $451 reversed $244 $-1 #
coedge $-1 $345 $416 $348 $421 reversed $244 $-1 #
edge $-1 $419 -18.576219606184178 $353 -6.3202016904644545 $352 $452 forward 7 unknown #
vertex $-1 $347 $453 #
straight-curve $-1 -49.178134810697195 31.024430254508495 22.25876713593091 -0.80901698891910034 0 -0.5877852598018023 I I #
edge $-1 $349 58.842020818533499 $425 70.780968657490774 $417 $454 forward 7 unknown #
point $-1 -58.842020818533499 31.024430254508495 15.237542828391584 #
coedge $-1 $352 $351 $416 $451 forward $343 $-1 #
point $-1 -70.780968657490774 18.768412338788771 6.5633893144368791 #
vertex $-1 $421 $455 #
straight-curve $-1 -70.780968657490774 0 15.237542828391584 0 -1 0 I I #
vertex $-1 $359 $456 #
point $-1 -61.82671976250225 22.270131743280125 8.493577433606049 #
vertex $-1 $363 $457 #
point $-1 -61.82671976250225 27.522710850017148 8.493577433606049 #
straight-curve $-1 -70.780968657490774 31.024430254508495 0 0 0 -1 I I #
point $-1 -70.780968657490774 -31.024430254508495 -15.237542828391584 #
straight-curve $-1 -70.780968657490774 0 -15.237542828391584 0 1 0 I I #
point $-1 -70.780968657490774 31.024430254508495 -15.237542828391584 #
edge $-1 $388 -2.1977645546208517 $399 2.1977645546208517 $385 $458 forward 7 unknown #
coedge $-1 $386 $395 $390 $439 reversed $293 $-1 #
straight-curve $-1 0 -50.318516040825394 15.237542828391586 1 0 0 I I #
point $-1 -70.780968657490774 -50.318516040825394 15.237542828391586 #
edge $-1 $391 -2.1977645546208517 $397 2.1977645546208517 $390 $459 forward 7 unknown #
point $-1 70.780968657490774 -50.318516040825394 15.237542828391586 #
straight-curve $-1 0 -50.318516040825394 10.842013719149882 -1 0 0 I I #
point $-1 70.780968657490774 -50.318516040825394 10.842013719149882 #
point $-1 -70.780968657490774 -50.318516040825394 10.842013719149882 #
straight-curve $-1 70.780968657490774 2.3374019596685152 104.97642446625443 0 0 -1 I I #
point $-1 70.780968657490774 2.3374019596685152 15.237542828391584 #
straight-curve $-1 70.780968657490774 3.4756770828193844 11.702358073208444 0 1 0 I I #
point $-1 70.780968657490774 2.3374019596685152 11.702358073208444 #
point $-1 67.03693353901906 4.1829828420566102 11.614262958090972 #
point $-1 67.03693353901906 6.9513541656387616 11.614262958090972 #
point $-1 67.03693353901906 9.7197254892209131 11.614262958090972 #
edge $-1 $425 -15.237542828391584 $419 -6.5633893144368791 $416 $460 forward 7 unknown #
straight-curve $-1 -70.780968657490774 12.448210648324316 6.563389314436888 0 -1 0 I I #
point $-1 -70.780968657490774 31.024430254508495 6.5633893144368791 #
straight-curve $-1 0 31.024430254508495 15.237542828391584 -1 0 0 I I #
point $-1 -70.780968657490774 31.024430254508495 15.237542828391584 #
point $-1 -62.04795149161955 22.270131743280125 7.0967751848851464 #
point $-1 -62.04795149161955 27.522710850017148 7.0967751848851464 #
straight-curve $-1 -70.780968657490774 -50.318516040825394 13.039778273770734 0 0 -1 I I #
straight-curve $-1 70.780968657490774 -50.318516040825394 13.039778273770734 0 0 -1 I I #
straight-curve $-1 -70.780968657490774 31.024430254508495 0 0 0 -1 I I #
End-of-ACIS-data 