500 0 7 0           
7 Unknown 11 ACIS 5.0 NT 24 Fri Mar 26 02:47:46 1999 
-1 9.9999999999999995e-007 1e-010 
body $-1 $7 $-1 $8 #
body $-1 $9 $-1 $10 #
body $-1 $11 $-1 $12 #
body $-1 $13 $-1 $14 #
body $-1 $15 $-1 $16 #
body $-1 $17 $-1 $18 #
body $-1 $19 $-1 $20 #
lump $-1 $-1 $21 $0 #
transform $-1 1 0 0 0 1 0 0 0 1 49.929502243110448 27.475625897891092 7.7638956191034696 1 rotate no_reflect no_shear #
lump $-1 $-1 $22 $1 #
transform $-1 1 0 0 0 1 0 0 0 1 49.929502243110448 27.475625897891092 7.7638956191034696 1 rotate no_reflect no_shear #
lump $-1 $-1 $23 $2 #
transform $-1 1 0 0 0 1 0 0 0 1 49.929502243110448 27.475625897891092 7.7638956191034696 1 rotate no_reflect no_shear #
lump $-1 $-1 $24 $3 #
transform $-1 1 0 0 0 1 0 0 0 1 49.929502243110448 27.475625897891092 7.7638956191034696 1 rotate no_reflect no_shear #
lump $-1 $-1 $25 $4 #
transform $-1 1 0 0 0 1 0 0 0 1 49.929502243110448 27.475625897891092 7.7638956191034696 1 rotate no_reflect no_shear #
lump $-1 $-1 $26 $5 #
transform $-1 1 0 0 0 1 0 0 0 1 49.929502243110448 27.475625897891092 7.7638956191034696 1 rotate no_reflect no_shear #
lump $-1 $-1 $27 $6 #
transform $-1 1 0 0 0 1 0 0 0 1 49.929502243110448 27.475625897891092 7.7638956191034696 1 rotate no_reflect no_shear #
shell $-1 $-1 $-1 $28 $-1 $7 #
shell $-1 $-1 $-1 $29 $-1 $9 #
shell $-1 $-1 $-1 $30 $-1 $11 #
shell $-1 $-1 $-1 $31 $-1 $13 #
shell $-1 $-1 $-1 $32 $-1 $15 #
shell $-1 $-1 $-1 $33 $-1 $17 #
shell $-1 $-1 $-1 $34 $-1 $19 #
face $-1 $35 $36 $21 $-1 $37 forward single #
face $-1 $38 $39 $22 $-1 $40 reversed single #
face $-1 $41 $42 $23 $-1 $43 reversed single #
face $-1 $44 $45 $24 $-1 $46 reversed single #
face $-1 $47 $48 $25 $-1 $49 forward single #
face $-1 $50 $51 $26 $-1 $52 forward single #
face $-1 $53 $54 $27 $-1 $55 forward single #
face $-1 $56 $57 $21 $-1 $58 reversed single #
loop $-1 $-1 $59 $28 #
plane-surface $-1 0 0 7.7638956191034696 0 0 1 1 0 0 forward_v I I I I #
face $-1 $60 $61 $22 $-1 $62 reversed single #
loop $-1 $-1 $63 $29 #
plane-surface $-1 -37.981770347146679 -23.39147370947078 0 1 0 0 0 0 -1 forward_v I I I I #
face $-1 $64 $65 $23 $-1 $66 reversed single #
loop $-1 $-1 $67 $30 #
plane-surface $-1 -36.191740676025091 19.307321521050469 0 0 1 0 0 0 1 forward_v I I I I #
face $-1 $68 $69 $24 $-1 $70 reversed single #
loop $-1 $-1 $71 $31 #
plane-surface $-1 86.480436791962632 19.307321521050472 136.60257412586893 0 -1 0 -0.86602541151947299 0 -0.49999998660252726 forward_v I I I I #
face $-1 $72 $73 $25 $-1 $74 forward single #
loop $-1 $75 $76 $32 #
cone-surface $-1 47.310855735787207 12.336486132888012 3.7282666995066931 -0.86602541151947299 0 -0.49999998660252726 0.24999999330126363 0 -0.43301270575973649 1 I I 0 1 0.5 forward I I I I #
face $-1 $77 $78 $26 $-1 $79 forward single #
loop $-1 $80 $81 $33 #
cone-surface $-1 47.310855735787207 14.950549403448939 3.7282666995066931 -0.86602541151947299 0 -0.49999998660252726 0.24999999330126363 0 -0.43301270575973649 1 I I 0 1 0.5 forward I I I I #
face $-1 $82 $83 $27 $-1 $84 forward single #
loop $-1 $85 $86 $34 #
cone-surface $-1 47.310855735787207 17.564612674009865 3.7282666995066931 -0.86602541151947299 0 -0.49999998660252726 0.24999999330126363 0 -0.43301270575973649 1 I I 0 1 0.5 forward I I I I #
face $-1 $87 $88 $21 $-1 $89 reversed single #
loop $-1 $-1 $90 $35 #
plane-surface $-1 0 0 -7.7638956191034696 0 0 1 1 0 0 forward_v I I I I #
coedge $-1 $91 $92 $93 $94 forward $36 $-1 #
face $-1 $95 $96 $22 $-1 $97 reversed single #
loop $-1 $-1 $98 $38 #
plane-surface $-1 -36.191740676025091 -19.307321521050469 0 0 -1 0 0 0 -1 forward_v I I I I #
coedge $-1 $99 $100 $101 $102 forward $39 $-1 #
face $-1 $103 $104 $23 $-1 $105 reversed single #
loop $-1 $-1 $106 $41 #
plane-surface $-1 -37.981770347146679 23.39147370947078 0 1 0 0 0 0 -1 forward_v I I I I #
coedge $-1 $107 $108 $109 $110 forward $42 $-1 #
face $-1 $111 $112 $24 $-1 $113 reversed single #
loop $-1 $-1 $114 $44 #
plane-surface $-1 1.3378582792711313e-006 14.950549403448932 86.673073220616772 0.86602541151947299 0 0.49999998660252726 0.49999998660252726 0 -0.86602541151947299 forward_v I I I I #
coedge $-1 $115 $116 $117 $118 reversed $45 $-1 #
face $-1 $-1 $119 $25 $-1 $120 forward single #
loop $-1 $121 $122 $47 #
cone-surface $-1 46.661336677147602 12.336486132888012 3.3532667095547977 -0.86602541151947299 0 -0.49999998660252726 0.12499999665063181 0 -0.21650635287986825 1 I I -0.70710678118654746 0.70710678118654746 0.25 forward I I I I #
loop $-1 $-1 $123 $32 #
coedge $-1 $76 $76 $124 $125 reversed $48 $-1 #
face $-1 $-1 $126 $26 $-1 $127 forward single #
loop $-1 $128 $129 $50 #
cone-surface $-1 46.661336677147602 14.950549403448939 3.3532667095547977 -0.86602541151947299 0 -0.49999998660252726 0.12499999665063181 0 -0.21650635287986825 1 I I -0.70710678118654746 0.70710678118654746 0.25 forward I I I I #
loop $-1 $-1 $130 $33 #
coedge $-1 $81 $81 $131 $132 reversed $51 $-1 #
face $-1 $-1 $133 $27 $-1 $134 forward single #
loop $-1 $135 $136 $53 #
cone-surface $-1 46.661336677147602 17.564612674009865 3.3532667095547977 -0.86602541151947299 0 -0.49999998660252726 0.12499999665063181 0 -0.21650635287986825 1 I I -0.70710678118654746 0.70710678118654746 0.25 forward I I I I #
loop $-1 $-1 $137 $34 #
coedge $-1 $86 $86 $138 $139 reversed $54 $-1 #
face $-1 $140 $141 $21 $-1 $142 reversed single #
loop $-1 $-1 $143 $56 #
plane-surface $-1 0 -27.475625897891092 0 0 1 0 0 0 1 forward_v I I I I #
coedge $-1 $144 $145 $146 $147 forward $57 $-1 #
coedge $-1 $148 $59 $149 $150 forward $36 $-1 #
coedge $-1 $59 $148 $151 $152 forward $36 $-1 #
coedge $-1 $153 $154 $59 $94 reversed $155 $-1 #
edge $-1 $156 -27.475625897891092 $157 27.475625897891092 $93 $158 forward 7 unknown #
face $-1 $159 $160 $22 $-1 $161 forward single #
loop $-1 $-1 $162 $60 #
plane-surface $-1 -34.401711004903504 -23.39147370947078 0 -1 0 0 0 0 1 forward_v I I I I #
coedge $-1 $163 $164 $165 $166 forward $61 $-1 #
coedge $-1 $167 $63 $168 $169 reversed $39 $-1 #
coedge $-1 $63 $167 $170 $171 reversed $39 $-1 #
coedge $-1 $164 $163 $63 $102 reversed $61 $-1 #
edge $-1 $172 -7.7638956191034696 $173 7.7638956191034696 $101 $174 forward 7 unknown #
face $-1 $175 $176 $23 $-1 $177 reversed single #
loop $-1 $-1 $178 $64 #
plane-surface $-1 -34.401711004903504 23.39147370947078 0 -1 0 0 0 0 1 forward_v I I I I #
coedge $-1 $179 $180 $181 $182 reversed $65 $-1 #
coedge $-1 $183 $67 $184 $185 reversed $42 $-1 #
coedge $-1 $67 $183 $186 $187 reversed $42 $-1 #
coedge $-1 $180 $179 $67 $110 reversed $65 $-1 #
edge $-1 $188 -7.7638956191034696 $189 7.7638956191034696 $109 $190 forward 7 unknown #
face $-1 $191 $192 $24 $-1 $193 forward single #
loop $-1 $-1 $194 $68 #
plane-surface $-1 86.480436791962632 10.593777285847391 136.60257412586893 0 1 0 0.86602541151947299 0 0.49999998660252726 forward_v I I I I #
coedge $-1 $195 $196 $197 $198 reversed $69 $-1 #
coedge $-1 $116 $71 $199 $200 reversed $45 $-1 #
coedge $-1 $71 $115 $195 $201 reversed $45 $-1 #
coedge $-1 $197 $202 $71 $118 forward $192 $-1 #
edge $-1 $203 -6.6892838471291327 $204 -2.3180162440021164 $117 $205 forward 7 unknown #
loop $-1 $-1 $124 $72 #
plane-surface $-1 1.3378582792711313e-006 14.950549403448932 86.673073220616772 0.86602541151947299 0 0.49999998660252726 0.49999998660252726 0 -0.86602541151947299 forward_v I I I I #
loop $-1 $-1 $206 $47 #
coedge $-1 $122 $122 $123 $207 reversed $73 $-1 #
coedge $-1 $123 $123 $122 $207 forward $75 $-1 #
coedge $-1 $124 $124 $76 $125 forward $119 $-1 #
edge $-1 $208 0 $208 6.2831853071796004 $124 $209 forward 7 unknown #
loop $-1 $-1 $131 $77 #
plane-surface $-1 1.3378582792711313e-006 14.950549403448932 86.673073220616772 0.86602541151947299 0 0.49999998660252726 0.49999998660252726 0 -0.86602541151947299 forward_v I I I I #
loop $-1 $-1 $210 $50 #
coedge $-1 $129 $129 $130 $211 reversed $78 $-1 #
coedge $-1 $130 $130 $129 $211 forward $80 $-1 #
coedge $-1 $131 $131 $81 $132 forward $126 $-1 #
edge $-1 $212 0 $212 6.2831853071796004 $131 $213 forward 7 unknown #
loop $-1 $-1 $138 $82 #
plane-surface $-1 1.3378582792711313e-006 14.950549403448932 86.673073220616772 0.86602541151947299 0 0.49999998660252726 0.49999998660252726 0 -0.86602541151947299 forward_v I I I I #
loop $-1 $-1 $214 $53 #
coedge $-1 $136 $136 $137 $215 reversed $83 $-1 #
coedge $-1 $137 $137 $136 $215 forward $85 $-1 #
coedge $-1 $138 $138 $86 $139 forward $133 $-1 #
edge $-1 $216 0 $216 6.2831853071796004 $138 $217 forward 7 unknown #
face $-1 $218 $219 $21 $-1 $220 reversed single #
loop $-1 $-1 $221 $87 #
plane-surface $-1 -49.929502243110448 0 0 1 0 0 0 0 -1 forward_v I I I I #
coedge $-1 $222 $151 $223 $224 forward $88 $-1 #
coedge $-1 $225 $90 $222 $226 forward $57 $-1 #
coedge $-1 $90 $225 $227 $228 forward $57 $-1 #
coedge $-1 $154 $153 $90 $147 reversed $155 $-1 #
edge $-1 $229 -27.475625897891092 $230 27.475625897891092 $146 $231 forward 7 unknown #
coedge $-1 $92 $91 $232 $233 forward $36 $-1 #
coedge $-1 $234 $235 $91 $150 reversed $219 $-1 #
edge $-1 $157 -49.929502243110448 $236 49.929502243110448 $149 $237 forward 7 unknown #
coedge $-1 $143 $238 $92 $152 reversed $88 $-1 #
edge $-1 $239 -49.929502243110448 $156 49.929502243110448 $151 $240 forward 7 unknown #
coedge $-1 $146 $93 $238 $241 forward $155 $-1 #
coedge $-1 $93 $146 $234 $242 reversed $155 $-1 #
loop $-1 $-1 $153 $218 #
vertex $-1 $94 $243 #
vertex $-1 $94 $244 #
straight-curve $-1 49.929502243110448 0 7.7638956191034696 0 1 0 I I #
face $-1 $245 $246 $22 $-1 $247 reversed single #
loop $-1 $-1 $248 $95 #
plane-surface $-1 0 0 7.7638956191034696 0 0 1 1 0 0 forward_v I I I I #
coedge $-1 $249 $250 $251 $252 reversed $96 $-1 #
coedge $-1 $101 $98 $253 $254 reversed $61 $-1 #
coedge $-1 $98 $101 $255 $256 reversed $61 $-1 #
coedge $-1 $250 $249 $98 $166 reversed $96 $-1 #
edge $-1 $257 -7.7638956191034696 $258 7.7638956191034696 $165 $259 forward 7 unknown #
coedge $-1 $100 $99 $260 $261 reversed $39 $-1 #
coedge $-1 $253 $262 $99 $169 forward $246 $-1 #
edge $-1 $263 -15.779889043155702 $173 -7.6115846663150784 $168 $264 forward 7 unknown #
coedge $-1 $265 $255 $100 $171 forward $160 $-1 #
edge $-1 $172 7.6115846663150784 $266 15.779889043155702 $170 $267 forward 7 unknown #
vertex $-1 $171 $268 #
vertex $-1 $169 $269 #
straight-curve $-1 -37.981770347146679 -19.307321521050469 0 0 0 -1 I I #
face $-1 $270 $271 $23 $-1 $272 forward single #
loop $-1 $-1 $273 $103 #
plane-surface $-1 0 0 -7.7638956191034696 0 0 1 1 0 0 forward_v I I I I #
coedge $-1 $274 $275 $183 $276 forward $104 $-1 #
coedge $-1 $109 $106 $277 $278 reversed $65 $-1 #
coedge $-1 $106 $109 $279 $280 reversed $65 $-1 #
coedge $-1 $281 $282 $106 $182 forward $283 $-1 #
edge $-1 $284 -7.7638956191034696 $285 7.7638956191034696 $181 $286 forward 7 unknown #
coedge $-1 $108 $107 $178 $276 reversed $42 $-1 #
coedge $-1 $277 $273 $107 $185 forward $176 $-1 #
edge $-1 $287 16.305840666890958 $189 19.885900009134133 $184 $288 forward 7 unknown #
coedge $-1 $289 $279 $108 $187 forward $271 $-1 #
edge $-1 $188 -19.885900009134133 $290 -16.305840666890958 $186 $291 forward 7 unknown #
vertex $-1 $187 $292 #
vertex $-1 $185 $293 #
straight-curve $-1 -37.981770347146679 19.307321521050469 0 0 0 -1 I I #
face $-1 $-1 $294 $24 $-1 $295 reversed single #
loop $-1 $-1 $117 $111 #
plane-surface $-1 0 0 7.7638956191034696 0 0 1 1 0 0 forward_v I I I I #
coedge $-1 $296 $297 $298 $299 reversed $112 $-1 #
coedge $-1 $300 $114 $116 $201 forward $69 $-1 #
coedge $-1 $114 $300 $296 $301 forward $69 $-1 #
coedge $-1 $298 $117 $114 $198 forward $192 $-1 #
edge $-1 $204 -11.832046819326006 $302 -3.1185025841229255 $197 $303 forward 7 unknown #
coedge $-1 $304 $305 $115 $200 forward $294 $-1 #
edge $-1 $306 -68.108649296422072 $203 -60.537391443830991 $199 $307 forward 7 unknown #
edge $-1 $204 91.116469045711128 $306 99.859004486220925 $116 $308 forward 7 unknown #
coedge $-1 $117 $298 $304 $309 forward $192 $-1 #
vertex $-1 $118 $310 #
vertex $-1 $118 $311 #
straight-curve $-1 43.240218395981316 19.307321521050472 7.7638956191034652 -1 0 0 I I #
coedge $-1 $206 $206 $-1 $312 reversed $121 $-1 #
edge $-1 $313 0 $313 6.2831853071796004 $122 $314 forward 7 unknown #
vertex $-1 $125 $315 #
ellipse-curve $-1 47.743868441546937 12.336486132888012 3.9782666928079533 0.86602541151947299 0 0.49999998660252726 0.24999999330126363 0 -0.43301270575973649 1 I I #
coedge $-1 $210 $210 $-1 $316 reversed $128 $-1 #
edge $-1 $317 0 $317 6.2831853071796004 $129 $318 forward 7 unknown #
vertex $-1 $132 $319 #
ellipse-curve $-1 47.743868441546937 14.950549403448939 3.9782666928079533 0.86602541151947299 0 0.49999998660252726 0.24999999330126363 0 -0.43301270575973649 1 I I #
coedge $-1 $214 $214 $-1 $320 reversed $135 $-1 #
edge $-1 $321 0 $321 6.2831853071796004 $136 $322 forward 7 unknown #
vertex $-1 $139 $323 #
ellipse-curve $-1 47.743868441546937 17.564612674009865 3.9782666928079533 0.86602541151947299 0 0.49999998660252726 0.24999999330126363 0 -0.43301270575973649 1 I I #
face $-1 $-1 $155 $21 $-1 $324 reversed single #
loop $-1 $-1 $234 $140 #
plane-surface $-1 0 27.475625897891092 0 0 -1 0 0 0 -1 forward_v I I I I #
coedge $-1 $325 $232 $235 $326 forward $141 $-1 #
coedge $-1 $238 $143 $144 $226 reversed $88 $-1 #
coedge $-1 $232 $325 $143 $224 reversed $141 $-1 #
edge $-1 $239 -7.7638956191034696 $327 7.7638956191034696 $223 $328 forward 7 unknown #
coedge $-1 $145 $144 $325 $329 forward $57 $-1 #
edge $-1 $230 -49.929502243110448 $327 49.929502243110448 $222 $330 forward 7 unknown #
coedge $-1 $235 $234 $145 $228 reversed $219 $-1 #
edge $-1 $331 -49.929502243110448 $229 49.929502243110448 $227 $332 forward 7 unknown #
vertex $-1 $147 $333 #
vertex $-1 $241 $334 #
straight-curve $-1 49.929502243110448 0 -7.7638956191034696 0 -1 0 I I #
coedge $-1 $221 $223 $148 $233 reversed $141 $-1 #
edge $-1 $236 -27.475625897891092 $239 27.475625897891092 $232 $335 forward 7 unknown #
coedge $-1 $227 $149 $154 $242 forward $219 $-1 #
coedge $-1 $149 $227 $221 $326 reversed $219 $-1 #
vertex $-1 $150 $336 #
straight-curve $-1 0 27.475625897891092 7.7638956191034696 -1 0 0 I I #
coedge $-1 $151 $222 $153 $241 reversed $88 $-1 #
vertex $-1 $233 $337 #
straight-curve $-1 0 -27.475625897891092 7.7638956191034696 1 0 0 I I #
edge $-1 $156 -7.7638956191034696 $230 7.7638956191034696 $153 $338 forward 7 unknown #
edge $-1 $157 -7.7638956191034696 $229 7.7638956191034696 $154 $339 forward 7 unknown #
point $-1 49.929502243110448 -27.475625897891092 7.7638956191034696 #
point $-1 49.929502243110448 27.475625897891092 7.7638956191034696 #
face $-1 $-1 $340 $22 $-1 $341 reversed single #
loop $-1 $-1 $342 $159 #
plane-surface $-1 0 0 -7.7638956191034696 0 0 1 1 0 0 forward_v I I I I #
coedge $-1 $255 $265 $250 $343 forward $160 $-1 #
coedge $-1 $165 $162 $342 $344 reversed $96 $-1 #
coedge $-1 $162 $165 $248 $343 reversed $96 $-1 #
coedge $-1 $345 $346 $162 $252 forward $340 $-1 #
edge $-1 $347 -7.7638956191034696 $348 7.7638956191034696 $251 $349 forward 7 unknown #
coedge $-1 $342 $168 $163 $254 forward $246 $-1 #
edge $-1 $173 -19.885900009134133 $258 -16.305840666890958 $253 $350 forward 7 unknown #
coedge $-1 $170 $248 $164 $256 forward $160 $-1 #
edge $-1 $257 16.305840666890958 $172 19.885900009134133 $255 $351 forward 7 unknown #
vertex $-1 $256 $352 #
vertex $-1 $254 $353 #
straight-curve $-1 -34.401711004903504 -19.307321521050469 0 0 0 -1 I I #
coedge $-1 $346 $345 $167 $261 forward $340 $-1 #
edge $-1 $266 -7.7638956191034696 $263 7.7638956191034696 $260 $354 forward 7 unknown #
coedge $-1 $168 $342 $346 $355 forward $246 $-1 #
vertex $-1 $169 $356 #
straight-curve $-1 -37.981770347146679 -11.69573685473539 -7.7638956191034696 0 1 0 I I #
coedge $-1 $248 $170 $345 $357 forward $160 $-1 #
vertex $-1 $357 $358 #
straight-curve $-1 -37.981770347146679 -11.69573685473539 7.7638956191034696 0 -1 0 I I #
point $-1 -37.981770347146679 -19.307321521050469 7.7638956191034696 #
point $-1 -37.981770347146679 -19.307321521050469 -7.7638956191034696 #
face $-1 $-1 $283 $23 $-1 $359 reversed single #
loop $-1 $-1 $289 $175 #
plane-surface $-1 0 0 7.7638956191034696 0 0 1 1 0 0 forward_v I I I I #
coedge $-1 $184 $360 $274 $361 forward $176 $-1 #
coedge $-1 $362 $178 $273 $361 reversed $104 $-1 #
coedge $-1 $178 $362 $289 $363 reversed $104 $-1 #
edge $-1 $290 -7.7638956191034696 $287 7.7638956191034696 $178 $364 forward 7 unknown #
coedge $-1 $360 $184 $179 $278 forward $176 $-1 #
edge $-1 $189 7.6115846663150784 $284 15.779889043155702 $277 $365 forward 7 unknown #
coedge $-1 $186 $366 $180 $280 forward $271 $-1 #
edge $-1 $285 -15.779889043155702 $188 -7.6115846663150784 $279 $367 forward 7 unknown #
coedge $-1 $368 $181 $366 $369 reversed $283 $-1 #
coedge $-1 $181 $368 $360 $370 reversed $283 $-1 #
loop $-1 $-1 $368 $270 #
vertex $-1 $370 $371 #
vertex $-1 $182 $372 #
straight-curve $-1 -37.981770347146679 27.475625897891092 0 0 0 1 I I #
vertex $-1 $185 $373 #
straight-curve $-1 -18.095870338012546 19.307321521050469 -7.7638956191034696 -1 0 0 I I #
coedge $-1 $366 $186 $275 $363 forward $271 $-1 #
vertex $-1 $187 $374 #
straight-curve $-1 -18.095870338012546 19.307321521050469 7.7638956191034696 1 0 0 I I #
point $-1 -37.981770347146679 19.307321521050469 7.7638956191034696 #
point $-1 -37.981770347146679 19.307321521050469 -7.7638956191034696 #
loop $-1 $-1 $199 $191 #
plane-surface $-1 49.929502243110448 0 0 -1 0 0 0 0 1 forward_v I I I I #
coedge $-1 $297 $194 $196 $301 reversed $112 $-1 #
coedge $-1 $194 $296 $375 $376 reversed $112 $-1 #
coedge $-1 $202 $197 $194 $299 forward $192 $-1 #
edge $-1 $302 2.3180162440021164 $377 6.6892838471291327 $298 $378 forward 7 unknown #
coedge $-1 $196 $195 $305 $379 reversed $69 $-1 #
edge $-1 $380 -99.859004486220925 $302 -91.116469045711128 $296 $381 forward 7 unknown #
vertex $-1 $198 $382 #
straight-curve $-1 45.558234639983432 7.4752747017244658 7.7638956191034723 0 -1 0 I I #
coedge $-1 $375 $199 $202 $309 reversed $294 $-1 #
coedge $-1 $199 $375 $300 $379 forward $294 $-1 #
vertex $-1 $200 $383 #
straight-curve $-1 49.929502243110448 19.307321521050472 68.301287062934463 0 0 1 I I #
straight-curve $-1 1.3378582792711313e-006 19.307321521050472 86.673073220616772 0.49999998660252726 0 -0.86602541151947299 I I #
edge $-1 $377 10.593777285847391 $203 19.307321521050472 $304 $384 forward 7 unknown #
point $-1 49.929502243110448 19.307321521050472 7.7638956191034696 #
point $-1 45.558234639983432 19.307321521050472 7.7638956191034652 #
edge $-1 $385 1 $385 0 $206 $-1 forward 7 unknown #
vertex $-1 $207 $386 #
ellipse-curve $-1 46.877843030027471 12.336486132888012 3.4782667062054293 0.86602541151947299 0 0.49999998660252726 0.24999999330126363 0 -0.43301270575973649 1 I I #
point $-1 47.99386843484821 12.336486132888012 3.5452539870482203 #
edge $-1 $387 1 $387 0 $210 $-1 forward 7 unknown #
vertex $-1 $211 $388 #
ellipse-curve $-1 46.877843030027471 14.950549403448939 3.4782667062054293 0.86602541151947299 0 0.49999998660252726 0.24999999330126363 0 -0.43301270575973649 1 I I #
point $-1 47.99386843484821 14.950549403448939 3.5452539870482203 #
edge $-1 $389 1 $389 0 $214 $-1 forward 7 unknown #
vertex $-1 $215 $390 #
ellipse-curve $-1 46.877843030027471 17.564612674009865 3.4782667062054293 0.86602541151947299 0 0.49999998660252726 0.24999999330126363 0 -0.43301270575973649 1 I I #
point $-1 47.99386843484821 17.564612674009865 3.5452539870482203 #
plane-surface $-1 49.929502243110448 0 0 -1 0 0 0 0 1 forward_v I I I I #
coedge $-1 $223 $221 $225 $329 reversed $141 $-1 #
edge $-1 $236 -7.7638956191034696 $331 7.7638956191034696 $235 $391 forward 7 unknown #
vertex $-1 $329 $392 #
straight-curve $-1 -49.929502243110448 -27.475625897891092 0 0 0 -1 I I #
edge $-1 $327 -27.475625897891092 $331 27.475625897891092 $325 $393 forward 7 unknown #
straight-curve $-1 0 -27.475625897891092 -7.7638956191034696 -1 0 0 I I #
vertex $-1 $228 $394 #
straight-curve $-1 0 27.475625897891092 -7.7638956191034696 1 0 0 I I #
point $-1 49.929502243110448 27.475625897891092 -7.7638956191034696 #
point $-1 49.929502243110448 -27.475625897891092 -7.7638956191034696 #
straight-curve $-1 -49.929502243110448 0 7.7638956191034696 0 -1 0 I I #
point $-1 -49.929502243110448 27.475625897891092 7.7638956191034696 #
point $-1 -49.929502243110448 -27.475625897891092 7.7638956191034696 #
straight-curve $-1 49.929502243110448 -27.475625897891092 0 0 0 -1 I I #
straight-curve $-1 49.929502243110448 27.475625897891092 0 0 0 -1 I I #
loop $-1 $-1 $251 $245 #
plane-surface $-1 0 -27.475625897891092 0 0 1 0 0 0 1 forward_v I I I I #
coedge $-1 $262 $253 $249 $344 forward $246 $-1 #
edge $-1 $348 -15.779889043155702 $257 -7.6115846663150784 $248 $395 forward 7 unknown #
edge $-1 $258 7.6115846663150784 $347 15.779889043155702 $342 $396 forward 7 unknown #
coedge $-1 $260 $251 $265 $357 reversed $340 $-1 #
coedge $-1 $251 $260 $262 $355 reversed $340 $-1 #
vertex $-1 $355 $397 #
vertex $-1 $252 $398 #
straight-curve $-1 -34.401711004903504 -27.475625897891092 0 0 0 1 I I #
straight-curve $-1 -18.095870338012546 -19.307321521050469 -7.7638956191034696 1 0 0 I I #
straight-curve $-1 -18.095870338012546 -19.307321521050469 7.7638956191034696 -1 0 0 I I #
point $-1 -34.401711004903504 -19.307321521050469 7.7638956191034696 #
point $-1 -34.401711004903504 -19.307321521050469 -7.7638956191034696 #
straight-curve $-1 -37.981770347146679 -27.475625897891092 0 0 0 -1 I I #
edge $-1 $347 34.401711004903504 $263 37.981770347146679 $346 $399 forward 7 unknown #
point $-1 -37.981770347146679 -27.475625897891092 -7.7638956191034696 #
edge $-1 $266 -37.981770347146679 $348 -34.401711004903504 $345 $400 forward 7 unknown #
point $-1 -37.981770347146679 -27.475625897891092 7.7638956191034696 #
plane-surface $-1 0 27.475625897891092 0 0 -1 0 0 0 -1 forward_v I I I I #
coedge $-1 $273 $277 $282 $370 forward $176 $-1 #
edge $-1 $401 -15.779889043155702 $287 -7.6115846663150784 $273 $402 forward 7 unknown #
coedge $-1 $275 $274 $368 $403 reversed $104 $-1 #
edge $-1 $290 7.6115846663150784 $404 15.779889043155702 $289 $405 forward 7 unknown #
straight-curve $-1 -34.401711004903504 19.307321521050469 0 0 0 -1 I I #
straight-curve $-1 -37.981770347146679 11.69573685473539 -7.7638956191034696 0 1 0 I I #
coedge $-1 $279 $289 $281 $369 forward $271 $-1 #
straight-curve $-1 -37.981770347146679 11.69573685473539 7.7638956191034696 0 -1 0 I I #
coedge $-1 $282 $281 $362 $403 forward $283 $-1 #
edge $-1 $404 34.401711004903504 $285 37.981770347146679 $281 $406 forward 7 unknown #
edge $-1 $284 -37.981770347146679 $401 -34.401711004903504 $282 $407 forward 7 unknown #
point $-1 -37.981770347146679 27.475625897891092 -7.7638956191034696 #
point $-1 -37.981770347146679 27.475625897891092 7.7638956191034696 #
point $-1 -34.401711004903504 19.307321521050469 -7.7638956191034696 #
point $-1 -34.401711004903504 19.307321521050469 7.7638956191034696 #
coedge $-1 $305 $304 $297 $376 forward $294 $-1 #
edge $-1 $377 60.537391443830991 $380 68.108649296422072 $375 $408 forward 7 unknown #
vertex $-1 $309 $409 #
straight-curve $-1 43.240218395981316 10.593777285847391 7.7638956191034652 1 0 0 I I #
edge $-1 $380 3.1185025841229255 $306 11.832046819326006 $305 $410 forward 7 unknown #
vertex $-1 $379 $411 #
straight-curve $-1 1.3378582792711313e-006 10.593777285847391 86.673073220616772 -0.49999998660252726 0 0.86602541151947299 I I #
point $-1 45.558234639983432 10.593777285847391 7.7638956191034652 #
point $-1 49.929502243110448 19.307321521050472 0.19263776651239084 #
straight-curve $-1 49.929502243110448 0 7.7638956191034696 0 1 0 I I #
vertex $-1 $312 $412 #
point $-1 47.127843023328737 12.336486132888012 3.0452540004456932 #
vertex $-1 $316 $413 #
point $-1 47.127843023328737 14.950549403448939 3.0452540004456932 #
vertex $-1 $320 $414 #
point $-1 47.127843023328737 17.564612674009865 3.0452540004456932 #
straight-curve $-1 -49.929502243110448 27.475625897891092 0 0 0 -1 I I #
point $-1 -49.929502243110448 -27.475625897891092 -7.7638956191034696 #
straight-curve $-1 -49.929502243110448 0 -7.7638956191034696 0 1 0 I I #
point $-1 -49.929502243110448 27.475625897891092 -7.7638956191034696 #
straight-curve $-1 -34.401711004903504 -11.69573685473539 7.7638956191034696 0 1 0 I I #
straight-curve $-1 -34.401711004903504 -11.69573685473539 -7.7638956191034696 0 -1 0 I I #
point $-1 -34.401711004903504 -27.475625897891092 -7.7638956191034696 #
point $-1 -34.401711004903504 -27.475625897891092 7.7638956191034696 #
straight-curve $-1 0 -27.475625897891092 -7.7638956191034696 -1 0 0 I I #
straight-curve $-1 0 -27.475625897891092 7.7638956191034696 1 0 0 I I #
vertex $-1 $403 $415 #
straight-curve $-1 -34.401711004903504 11.69573685473539 -7.7638956191034696 0 -1 0 I I #
edge $-1 $404 -7.7638956191034696 $401 7.7638956191034696 $368 $416 forward 7 unknown #
vertex $-1 $369 $417 #
straight-curve $-1 -34.401711004903504 11.69573685473539 7.7638956191034696 0 1 0 I I #
straight-curve $-1 0 27.475625897891092 7.7638956191034696 -1 0 0 I I #
straight-curve $-1 0 27.475625897891092 -7.7638956191034696 1 0 0 I I #
straight-curve $-1 49.929502243110448 10.593777285847391 68.301287062934463 0 0 -1 I I #
point $-1 49.929502243110448 10.593777285847391 7.7638956191034696 #
straight-curve $-1 49.929502243110448 7.4752747017244658 0.19263776651239084 0 1 0 I I #
point $-1 49.929502243110448 10.593777285847391 0.19263776651239084 #
point $-1 46.444830324267734 12.336486132888012 3.228266712904166 #
point $-1 46.444830324267734 14.950549403448939 3.228266712904166 #
point $-1 46.444830324267734 17.564612674009865 3.228266712904166 #
point $-1 -34.401711004903504 27.475625897891092 -7.7638956191034696 #
straight-curve $-1 -34.401711004903504 27.475625897891092 0 0 0 -1 I I #
point $-1 -34.401711004903504 27.475625897891092 7.7638956191034696 #
End-of-ACIS-data 