500 0 13 0           
7 Unknown 11 ACIS 5.0 NT 24 Thu Mar 25 22:25:01 1999 
-1 9.9999999999999995e-007 1e-010 
body $-1 $13 $-1 $14 #
body $-1 $15 $-1 $16 #
body $-1 $17 $-1 $18 #
body $-1 $19 $-1 $20 #
body $-1 $21 $-1 $22 #
body $-1 $23 $-1 $24 #
body $-1 $25 $-1 $26 #
body $-1 $27 $-1 $28 #
body $-1 $29 $-1 $30 #
body $-1 $31 $-1 $32 #
body $-1 $33 $-1 $34 #
body $-1 $35 $-1 $36 #
body $-1 $37 $-1 $38 #
lump $-1 $-1 $39 $0 #
transform $-1 1 0 0 0 1 0 0 0 1 64.46363719595935 30.607390812930582 9.273197799474115 1 rotate no_reflect no_shear #
lump $-1 $-1 $40 $1 #
transform $-1 0.5877852410284794 0 -0.80901700255871778 0 1 0 0.80901700255871778 0 0.5877852410284794 157.45008241493525 5.0953781592899876 193.80932771730323 1 rotate no_reflect no_shear #
lump $-1 $-1 $41 $2 #
transform $-1 0.5877852410284794 0 -0.80901700255871778 0 -1 0 -0.80901700255871778 0 -0.5877852410284794 123.57435157500133 2.0381512637159949 13.518719842143113 1 rotate no_reflect no_shear #
lump $-1 $-1 $42 $3 #
transform $-1 0.5877852410284794 0 -0.80901700255871778 0 -1 0 -0.80901700255871778 0 -0.5877852410284794 123.57435157500133 5.0953781592899876 13.518719842143113 1 rotate no_reflect no_shear #
lump $-1 $-1 $43 $4 #
transform $-1 0.5877852410284794 0 -0.80901700255871778 0 -1 0 -0.80901700255871778 0 -0.5877852410284794 123.57435157500133 8.1526050548639795 13.518719842143113 1 rotate no_reflect no_shear #
lump $-1 $-1 $44 $5 #
transform $-1 0.66913059716165679 0 0.74314483375859142 0 1 0 -0.74314483375859142 0 0.66913059716165679 -95.811637894930726 6.6157492136505098 97.750742041003178 1 rotate no_reflect no_shear #
lump $-1 $-1 $45 $6 #
transform $-1 0.66913059716165679 0 0.74314483375859142 0 -1 0 0.74314483375859142 0 -0.66913059716165679 6.238328618616217 6.6157492136505098 12.260789333730317 1 rotate no_reflect no_shear #
lump $-1 $-1 $46 $7 #
transform $-1 0.66913059716165679 0 0.74314483375859142 0 1 0 -0.74314483375859142 0 0.66913059716165679 -95.811637894930726 22.610176946503891 97.750742041003178 1 rotate no_reflect no_shear #
lump $-1 $-1 $47 $8 #
transform $-1 0.66913059716165679 0 0.74314483375859142 0 -1 0 0.74314483375859142 0 -0.66913059716165679 6.238328618616217 22.610176946503891 12.260789333730317 1 rotate no_reflect no_shear #
lump $-1 $-1 $48 $9 #
transform $-1 0.66913059716165679 0 0.74314483375859142 0 1 0 -0.74314483375859142 0 0.66913059716165679 -95.811637894930726 38.604604679357273 97.750742041003178 1 rotate no_reflect no_shear #
lump $-1 $-1 $49 $10 #
transform $-1 0.66913059716165679 0 0.74314483375859142 0 -1 0 0.74314483375859142 0 -0.66913059716165679 6.238328618616217 38.604604679357273 12.260789333730317 1 rotate no_reflect no_shear #
lump $-1 $-1 $50 $11 #
transform $-1 0.66913059716165679 0 0.74314483375859142 0 1 0 -0.74314483375859142 0 0.66913059716165679 -95.811637894930726 54.599032412210654 97.750742041003178 1 rotate no_reflect no_shear #
lump $-1 $-1 $51 $12 #
transform $-1 0.66913059716165679 0 0.74314483375859142 0 -1 0 0.74314483375859142 0 -0.66913059716165679 6.238328618616217 54.599032412210654 12.260789333730317 1 rotate no_reflect no_shear #
shell $-1 $-1 $-1 $52 $-1 $13 #
shell $-1 $-1 $-1 $53 $-1 $15 #
shell $-1 $-1 $-1 $54 $-1 $17 #
shell $-1 $-1 $-1 $55 $-1 $19 #
shell $-1 $-1 $-1 $56 $-1 $21 #
shell $-1 $-1 $-1 $57 $-1 $23 #
shell $-1 $-1 $-1 $58 $-1 $25 #
shell $-1 $-1 $-1 $59 $-1 $27 #
shell $-1 $-1 $-1 $60 $-1 $29 #
shell $-1 $-1 $-1 $61 $-1 $31 #
shell $-1 $-1 $-1 $62 $-1 $33 #
shell $-1 $-1 $-1 $63 $-1 $35 #
shell $-1 $-1 $-1 $64 $-1 $37 #
face $-1 $65 $66 $39 $-1 $67 forward single #
face $-1 $68 $69 $40 $-1 $70 forward single #
face $-1 $71 $72 $41 $-1 $73 forward single #
face $-1 $74 $75 $42 $-1 $76 forward single #
face $-1 $77 $78 $43 $-1 $79 forward single #
face $-1 $80 $81 $44 $-1 $82 forward single #
face $-1 $83 $84 $45 $-1 $85 forward single #
face $-1 $86 $87 $46 $-1 $88 forward single #
face $-1 $89 $90 $47 $-1 $91 forward single #
face $-1 $92 $93 $48 $-1 $94 forward single #
face $-1 $95 $96 $49 $-1 $97 forward single #
face $-1 $98 $99 $50 $-1 $100 forward single #
face $-1 $101 $102 $51 $-1 $103 forward single #
face $-1 $104 $105 $39 $-1 $106 reversed single #
loop $-1 $-1 $107 $52 #
plane-surface $-1 0 0 9.273197799474115 0 0 1 1 0 0 forward_v I I I I #
face $-1 $108 $109 $40 $-1 $110 reversed single #
loop $-1 $-1 $111 $53 #
plane-surface $-1 0 0 128.9272743919187 0 0 1 1 0 0 forward_v I I I I #
face $-1 $112 $113 $41 $-1 $114 forward single #
loop $-1 $115 $116 $54 #
cone-surface $-1 0 0 -2.4754631183812972 0 0 1 1 0 0 1 I I 0 1 1 forward I I I I #
face $-1 $117 $118 $42 $-1 $119 forward single #
loop $-1 $120 $121 $55 #
cone-surface $-1 0 0 -2.4754631183812972 0 0 1 1 0 0 1 I I 0 1 1 forward I I I I #
face $-1 $122 $123 $43 $-1 $124 forward single #
loop $-1 $125 $126 $56 #
cone-surface $-1 0 0 -2.4754631183812972 0 0 1 1 0 0 1 I I 0 1 1 forward I I I I #
face $-1 $127 $128 $44 $-1 $129 reversed single #
loop $-1 $-1 $130 $57 #
plane-surface $-1 0 0 128.9272743919187 0 0 1 1 0 0 forward_v I I I I #
face $-1 $131 $132 $45 $-1 $133 forward single #
loop $-1 $134 $135 $58 #
cone-surface $-1 0 0 -2.4322870571001314 0 0 1 1.5 0 0 1 I I 0 1 1.5 forward I I I I #
face $-1 $136 $137 $46 $-1 $138 reversed single #
loop $-1 $-1 $139 $59 #
plane-surface $-1 0 0 128.9272743919187 0 0 1 1 0 0 forward_v I I I I #
face $-1 $140 $141 $47 $-1 $142 forward single #
loop $-1 $143 $144 $60 #
cone-surface $-1 0 0 -2.4322870571001314 0 0 1 1.5 0 0 1 I I 0 1 1.5 forward I I I I #
face $-1 $145 $146 $48 $-1 $147 reversed single #
loop $-1 $-1 $148 $61 #
plane-surface $-1 0 0 128.9272743919187 0 0 1 1 0 0 forward_v I I I I #
face $-1 $149 $150 $49 $-1 $151 forward single #
loop $-1 $152 $153 $62 #
cone-surface $-1 0 0 -2.4322870571001314 0 0 1 1.5 0 0 1 I I 0 1 1.5 forward I I I I #
face $-1 $154 $155 $50 $-1 $156 reversed single #
loop $-1 $-1 $157 $63 #
plane-surface $-1 0 0 128.9272743919187 0 0 1 1 0 0 forward_v I I I I #
face $-1 $158 $159 $51 $-1 $160 forward single #
loop $-1 $161 $162 $64 #
cone-surface $-1 0 0 -2.4322870571001314 0 0 1 1.5 0 0 1 I I 0 1 1.5 forward I I I I #
face $-1 $163 $164 $39 $-1 $165 reversed single #
loop $-1 $-1 $166 $65 #
plane-surface $-1 0 0 -9.273197799474115 0 0 1 1 0 0 forward_v I I I I #
coedge $-1 $167 $168 $169 $170 forward $66 $-1 #
face $-1 $171 $172 $40 $-1 $173 reversed single #
loop $-1 $-1 $174 $68 #
plane-surface $-1 0 0 -128.9272743919187 0 0 1 1 0 0 forward_v I I I I #
coedge $-1 $175 $176 $177 $178 forward $69 $-1 #
face $-1 $-1 $179 $41 $-1 $180 forward single #
loop $-1 $-1 $181 $71 #
plane-surface $-1 0 0 -4.4509262367625952 0 0 -1 -1 0 0 forward_v I I I I #
loop $-1 $-1 $182 $54 #
coedge $-1 $116 $116 $181 $183 reversed $72 $-1 #
face $-1 $-1 $184 $42 $-1 $185 forward single #
loop $-1 $-1 $186 $74 #
plane-surface $-1 0 0 -4.4509262367625952 0 0 -1 -1 0 0 forward_v I I I I #
loop $-1 $-1 $187 $55 #
coedge $-1 $121 $121 $186 $188 reversed $75 $-1 #
face $-1 $-1 $189 $43 $-1 $190 forward single #
loop $-1 $-1 $191 $77 #
plane-surface $-1 0 0 -4.4509262367625952 0 0 -1 -1 0 0 forward_v I I I I #
loop $-1 $-1 $192 $56 #
coedge $-1 $126 $126 $191 $193 reversed $78 $-1 #
face $-1 $194 $195 $44 $-1 $196 reversed single #
loop $-1 $-1 $197 $80 #
plane-surface $-1 0 0 -128.9272743919187 0 0 1 1 0 0 forward_v I I I I #
coedge $-1 $198 $199 $200 $201 forward $81 $-1 #
face $-1 $-1 $202 $45 $-1 $203 forward single #
loop $-1 $-1 $204 $83 #
plane-surface $-1 0 0 -4.1145741142002628 0 0 -1 -1 0 0 forward_v I I I I #
loop $-1 $-1 $205 $58 #
coedge $-1 $135 $135 $204 $206 reversed $84 $-1 #
face $-1 $207 $208 $46 $-1 $209 reversed single #
loop $-1 $-1 $210 $86 #
plane-surface $-1 0 0 -128.9272743919187 0 0 1 1 0 0 forward_v I I I I #
coedge $-1 $211 $212 $213 $214 forward $87 $-1 #
face $-1 $-1 $215 $47 $-1 $216 forward single #
loop $-1 $-1 $217 $89 #
plane-surface $-1 0 0 -4.1145741142002628 0 0 -1 -1 0 0 forward_v I I I I #
loop $-1 $-1 $218 $60 #
coedge $-1 $144 $144 $217 $219 reversed $90 $-1 #
face $-1 $220 $221 $48 $-1 $222 reversed single #
loop $-1 $-1 $223 $92 #
plane-surface $-1 0 0 -128.9272743919187 0 0 1 1 0 0 forward_v I I I I #
coedge $-1 $224 $225 $226 $227 forward $93 $-1 #
face $-1 $-1 $228 $49 $-1 $229 forward single #
loop $-1 $-1 $230 $95 #
plane-surface $-1 0 0 -4.1145741142002628 0 0 -1 -1 0 0 forward_v I I I I #
loop $-1 $-1 $231 $62 #
coedge $-1 $153 $153 $230 $232 reversed $96 $-1 #
face $-1 $233 $234 $50 $-1 $235 reversed single #
loop $-1 $-1 $236 $98 #
plane-surface $-1 0 0 -128.9272743919187 0 0 1 1 0 0 forward_v I I I I #
coedge $-1 $237 $238 $239 $240 forward $99 $-1 #
face $-1 $-1 $241 $51 $-1 $242 forward single #
loop $-1 $-1 $243 $101 #
plane-surface $-1 0 0 -4.1145741142002628 0 0 -1 -1 0 0 forward_v I I I I #
loop $-1 $-1 $244 $64 #
coedge $-1 $162 $162 $243 $245 reversed $102 $-1 #
face $-1 $246 $247 $39 $-1 $248 reversed single #
loop $-1 $-1 $249 $104 #
plane-surface $-1 0 -30.607390812930582 0 0 1 0 0 0 1 forward_v I I I I #
coedge $-1 $250 $251 $252 $253 forward $105 $-1 #
coedge $-1 $254 $107 $255 $256 forward $66 $-1 #
coedge $-1 $107 $254 $257 $258 forward $66 $-1 #
coedge $-1 $259 $260 $107 $170 reversed $261 $-1 #
edge $-1 $262 -30.607390812930582 $263 30.607390812930582 $169 $264 forward 7 unknown #
face $-1 $265 $266 $40 $-1 $267 reversed single #
loop $-1 $-1 $268 $108 #
plane-surface $-1 0 -5.0953781592899876 0 0 1 0 0 0 1 forward_v I I I I #
coedge $-1 $269 $270 $271 $272 forward $109 $-1 #
coedge $-1 $273 $111 $274 $275 forward $69 $-1 #
coedge $-1 $111 $273 $276 $277 forward $69 $-1 #
coedge $-1 $278 $279 $111 $178 reversed $280 $-1 #
edge $-1 $281 -5.0953781592899876 $282 5.0953781592899876 $177 $283 forward 7 unknown #
loop $-1 $284 $285 $112 #
cone-surface $-1 0 0 0 0 0 1 0.5 0 0 1 I I -0.70710678118654746 0.70710678118654746 0.5 forward I I I I #
coedge $-1 $181 $181 $116 $183 forward $113 $-1 #
coedge $-1 $182 $182 $285 $286 forward $115 $-1 #
edge $-1 $287 0 $287 6.2831853071796004 $181 $288 forward 7 unknown #
loop $-1 $289 $290 $117 #
cone-surface $-1 0 0 0 0 0 1 0.5 0 0 1 I I -0.70710678118654746 0.70710678118654746 0.5 forward I I I I #
coedge $-1 $186 $186 $121 $188 forward $118 $-1 #
coedge $-1 $187 $187 $290 $291 forward $120 $-1 #
edge $-1 $292 0 $292 6.2831853071796004 $186 $293 forward 7 unknown #
loop $-1 $294 $295 $122 #
cone-surface $-1 0 0 0 0 0 1 0.5 0 0 1 I I -0.70710678118654746 0.70710678118654746 0.5 forward I I I I #
coedge $-1 $191 $191 $126 $193 forward $123 $-1 #
coedge $-1 $192 $192 $295 $296 forward $125 $-1 #
edge $-1 $297 0 $297 6.2831853071796004 $191 $298 forward 7 unknown #
face $-1 $299 $300 $44 $-1 $301 reversed single #
loop $-1 $-1 $302 $127 #
plane-surface $-1 0 -3.6938432503727436 0 0 1 0 0 0 1 forward_v I I I I #
coedge $-1 $303 $304 $305 $306 forward $128 $-1 #
coedge $-1 $307 $130 $308 $309 forward $81 $-1 #
coedge $-1 $130 $307 $310 $311 forward $81 $-1 #
coedge $-1 $312 $313 $130 $201 reversed $314 $-1 #
edge $-1 $315 -3.6938432503727436 $316 3.6938432503727436 $200 $317 forward 7 unknown #
loop $-1 $318 $319 $131 #
cone-surface $-1 0 0 0 0 0 1 0.75 0 0 1 I I -0.70710678118654757 0.70710678118654757 0.75 forward I I I I #
coedge $-1 $204 $204 $135 $206 forward $132 $-1 #
coedge $-1 $205 $205 $319 $320 forward $134 $-1 #
edge $-1 $321 0 $321 6.2831853071796004 $204 $322 forward 7 unknown #
face $-1 $323 $324 $46 $-1 $325 reversed single #
loop $-1 $-1 $326 $136 #
plane-surface $-1 0 -3.6938432503727436 0 0 1 0 0 0 1 forward_v I I I I #
coedge $-1 $327 $328 $329 $330 forward $137 $-1 #
coedge $-1 $331 $139 $332 $333 forward $87 $-1 #
coedge $-1 $139 $331 $334 $335 forward $87 $-1 #
coedge $-1 $336 $337 $139 $214 reversed $338 $-1 #
edge $-1 $339 -3.6938432503727436 $340 3.6938432503727436 $213 $341 forward 7 unknown #
loop $-1 $342 $343 $140 #
cone-surface $-1 0 0 0 0 0 1 0.75 0 0 1 I I -0.70710678118654757 0.70710678118654757 0.75 forward I I I I #
coedge $-1 $217 $217 $144 $219 forward $141 $-1 #
coedge $-1 $218 $218 $343 $344 forward $143 $-1 #
edge $-1 $345 0 $345 6.2831853071796004 $217 $346 forward 7 unknown #
face $-1 $347 $348 $48 $-1 $349 reversed single #
loop $-1 $-1 $350 $145 #
plane-surface $-1 0 -3.6938432503727436 0 0 1 0 0 0 1 forward_v I I I I #
coedge $-1 $351 $352 $353 $354 forward $146 $-1 #
coedge $-1 $355 $148 $356 $357 forward $93 $-1 #
coedge $-1 $148 $355 $358 $359 forward $93 $-1 #
coedge $-1 $360 $361 $148 $227 reversed $362 $-1 #
edge $-1 $363 -3.6938432503727436 $364 3.6938432503727436 $226 $365 forward 7 unknown #
loop $-1 $366 $367 $149 #
cone-surface $-1 0 0 0 0 0 1 0.75 0 0 1 I I -0.70710678118654757 0.70710678118654757 0.75 forward I I I I #
coedge $-1 $230 $230 $153 $232 forward $150 $-1 #
coedge $-1 $231 $231 $367 $368 forward $152 $-1 #
edge $-1 $369 0 $369 6.2831853071796004 $230 $370 forward 7 unknown #
face $-1 $371 $372 $50 $-1 $373 reversed single #
loop $-1 $-1 $374 $154 #
plane-surface $-1 0 -3.6938432503727436 0 0 1 0 0 0 1 forward_v I I I I #
coedge $-1 $375 $376 $377 $378 forward $155 $-1 #
coedge $-1 $379 $157 $380 $381 forward $99 $-1 #
coedge $-1 $157 $379 $382 $383 forward $99 $-1 #
coedge $-1 $384 $385 $157 $240 reversed $386 $-1 #
edge $-1 $387 -3.6938432503727436 $388 3.6938432503727436 $239 $389 forward 7 unknown #
loop $-1 $390 $391 $158 #
cone-surface $-1 0 0 0 0 0 1 0.75 0 0 1 I I -0.70710678118654757 0.70710678118654757 0.75 forward I I I I #
coedge $-1 $243 $243 $162 $245 forward $159 $-1 #
coedge $-1 $244 $244 $391 $392 forward $161 $-1 #
edge $-1 $393 0 $393 6.2831853071796004 $243 $394 forward 7 unknown #
face $-1 $395 $396 $39 $-1 $397 reversed single #
loop $-1 $-1 $398 $163 #
plane-surface $-1 -64.46363719595935 0 0 1 0 0 0 0 -1 forward_v I I I I #
coedge $-1 $399 $257 $400 $401 forward $164 $-1 #
coedge $-1 $402 $166 $399 $403 forward $105 $-1 #
coedge $-1 $166 $402 $404 $405 forward $105 $-1 #
coedge $-1 $260 $259 $166 $253 reversed $261 $-1 #
edge $-1 $406 -30.607390812930582 $407 30.607390812930582 $252 $408 forward 7 unknown #
coedge $-1 $168 $167 $409 $410 forward $66 $-1 #
coedge $-1 $411 $412 $167 $256 reversed $396 $-1 #
edge $-1 $263 -64.46363719595935 $413 64.46363719595935 $255 $414 forward 7 unknown #
coedge $-1 $249 $415 $168 $258 reversed $164 $-1 #
edge $-1 $416 -64.46363719595935 $262 64.46363719595935 $257 $417 forward 7 unknown #
coedge $-1 $252 $169 $415 $418 forward $261 $-1 #
coedge $-1 $169 $252 $411 $419 reversed $261 $-1 #
loop $-1 $-1 $259 $395 #
vertex $-1 $170 $420 #
vertex $-1 $170 $421 #
straight-curve $-1 64.46363719595935 0 9.273197799474115 0 1 0 I I #
face $-1 $422 $423 $40 $-1 $424 reversed single #
loop $-1 $-1 $425 $171 #
plane-surface $-1 -257.8545487838374 0 0 1 0 0 0 0 -1 forward_v I I I I #
coedge $-1 $426 $276 $427 $428 forward $172 $-1 #
coedge $-1 $429 $174 $426 $430 forward $109 $-1 #
coedge $-1 $174 $429 $431 $432 forward $109 $-1 #
coedge $-1 $279 $278 $174 $272 reversed $280 $-1 #
edge $-1 $433 -5.0953781592899876 $434 5.0953781592899876 $271 $435 forward 7 unknown #
coedge $-1 $176 $175 $436 $437 forward $69 $-1 #
coedge $-1 $438 $439 $175 $275 reversed $423 $-1 #
edge $-1 $282 -257.8545487838374 $440 257.8545487838374 $274 $441 forward 7 unknown #
coedge $-1 $268 $442 $176 $277 reversed $172 $-1 #
edge $-1 $443 -257.8545487838374 $281 257.8545487838374 $276 $444 forward 7 unknown #
coedge $-1 $271 $177 $442 $445 forward $280 $-1 #
coedge $-1 $177 $271 $438 $446 reversed $280 $-1 #
loop $-1 $-1 $278 $422 #
vertex $-1 $178 $447 #
vertex $-1 $178 $448 #
straight-curve $-1 257.8545487838374 0 128.9272743919187 0 1 0 I I #
loop $-1 $-1 $449 $112 #
coedge $-1 $285 $285 $182 $286 reversed $179 $-1 #
edge $-1 $450 0 $450 6.2831853071796004 $285 $451 forward 7 unknown #
vertex $-1 $183 $452 #
ellipse-curve $-1 0 0 -4.4509262367625952 0 0 -1 1 0 0 1 I I #
loop $-1 $-1 $453 $117 #
coedge $-1 $290 $290 $187 $291 reversed $184 $-1 #
edge $-1 $454 0 $454 6.2831853071796004 $290 $455 forward 7 unknown #
vertex $-1 $188 $456 #
ellipse-curve $-1 0 0 -4.4509262367625952 0 0 -1 1 0 0 1 I I #
loop $-1 $-1 $457 $122 #
coedge $-1 $295 $295 $192 $296 reversed $189 $-1 #
edge $-1 $458 0 $458 6.2831853071796004 $295 $459 forward 7 unknown #
vertex $-1 $193 $460 #
ellipse-curve $-1 0 0 -4.4509262367625952 0 0 -1 1 0 0 1 I I #
face $-1 $461 $462 $44 $-1 $463 reversed single #
loop $-1 $-1 $464 $194 #
plane-surface $-1 -257.8545487838374 0 0 1 0 0 0 0 -1 forward_v I I I I #
coedge $-1 $465 $310 $466 $467 forward $195 $-1 #
coedge $-1 $468 $197 $465 $469 forward $128 $-1 #
coedge $-1 $197 $468 $470 $471 forward $128 $-1 #
coedge $-1 $313 $312 $197 $306 reversed $314 $-1 #
edge $-1 $472 -3.6938432503727436 $473 3.6938432503727436 $305 $474 forward 7 unknown #
coedge $-1 $199 $198 $475 $476 forward $81 $-1 #
coedge $-1 $477 $478 $198 $309 reversed $462 $-1 #
edge $-1 $316 -257.8545487838374 $479 257.8545487838374 $308 $480 forward 7 unknown #
coedge $-1 $302 $481 $199 $311 reversed $195 $-1 #
edge $-1 $482 -257.8545487838374 $315 257.8545487838374 $310 $483 forward 7 unknown #
coedge $-1 $305 $200 $481 $484 forward $314 $-1 #
coedge $-1 $200 $305 $477 $485 reversed $314 $-1 #
loop $-1 $-1 $312 $461 #
vertex $-1 $201 $486 #
vertex $-1 $201 $487 #
straight-curve $-1 257.8545487838374 0 128.9272743919187 0 1 0 I I #
loop $-1 $-1 $488 $131 #
coedge $-1 $319 $319 $205 $320 reversed $202 $-1 #
edge $-1 $489 0 $489 6.2831853071796004 $319 $490 forward 7 unknown #
vertex $-1 $206 $491 #
ellipse-curve $-1 0 0 -4.1145741142002628 0 0 -1 1.5 0 0 1 I I #
face $-1 $492 $493 $46 $-1 $494 reversed single #
loop $-1 $-1 $495 $207 #
plane-surface $-1 -257.8545487838374 0 0 1 0 0 0 0 -1 forward_v I I I I #
coedge $-1 $496 $334 $497 $498 forward $208 $-1 #
coedge $-1 $499 $210 $496 $500 forward $137 $-1 #
coedge $-1 $210 $499 $501 $502 forward $137 $-1 #
coedge $-1 $337 $336 $210 $330 reversed $338 $-1 #
edge $-1 $503 -3.6938432503727436 $504 3.6938432503727436 $329 $505 forward 7 unknown #
coedge $-1 $212 $211 $506 $507 forward $87 $-1 #
coedge $-1 $508 $509 $211 $333 reversed $493 $-1 #
edge $-1 $340 -257.8545487838374 $510 257.8545487838374 $332 $511 forward 7 unknown #
coedge $-1 $326 $512 $212 $335 reversed $208 $-1 #
edge $-1 $513 -257.8545487838374 $339 257.8545487838374 $334 $514 forward 7 unknown #
coedge $-1 $329 $213 $512 $515 forward $338 $-1 #
coedge $-1 $213 $329 $508 $516 reversed $338 $-1 #
loop $-1 $-1 $336 $492 #
vertex $-1 $214 $517 #
vertex $-1 $214 $518 #
straight-curve $-1 257.8545487838374 0 128.9272743919187 0 1 0 I I #
loop $-1 $-1 $519 $140 #
coedge $-1 $343 $343 $218 $344 reversed $215 $-1 #
edge $-1 $520 0 $520 6.2831853071796004 $343 $521 forward 7 unknown #
vertex $-1 $219 $522 #
ellipse-curve $-1 0 0 -4.1145741142002628 0 0 -1 1.5 0 0 1 I I #
face $-1 $523 $524 $48 $-1 $525 reversed single #
loop $-1 $-1 $526 $220 #
plane-surface $-1 -257.8545487838374 0 0 1 0 0 0 0 -1 forward_v I I I I #
coedge $-1 $527 $358 $528 $529 forward $221 $-1 #
coedge $-1 $530 $223 $527 $531 forward $146 $-1 #
coedge $-1 $223 $530 $532 $533 forward $146 $-1 #
coedge $-1 $361 $360 $223 $354 reversed $362 $-1 #
edge $-1 $534 -3.6938432503727436 $535 3.6938432503727436 $353 $536 forward 7 unknown #
coedge $-1 $225 $224 $537 $538 forward $93 $-1 #
coedge $-1 $539 $540 $224 $357 reversed $524 $-1 #
edge $-1 $364 -257.8545487838374 $541 257.8545487838374 $356 $542 forward 7 unknown #
coedge $-1 $350 $543 $225 $359 reversed $221 $-1 #
edge $-1 $544 -257.8545487838374 $363 257.8545487838374 $358 $545 forward 7 unknown #
coedge $-1 $353 $226 $543 $546 forward $362 $-1 #
coedge $-1 $226 $353 $539 $547 reversed $362 $-1 #
loop $-1 $-1 $360 $523 #
vertex $-1 $227 $548 #
vertex $-1 $227 $549 #
straight-curve $-1 257.8545487838374 0 128.9272743919187 0 1 0 I I #
loop $-1 $-1 $550 $149 #
coedge $-1 $367 $367 $231 $368 reversed $228 $-1 #
edge $-1 $551 0 $551 6.2831853071796004 $367 $552 forward 7 unknown #
vertex $-1 $232 $553 #
ellipse-curve $-1 0 0 -4.1145741142002628 0 0 -1 1.5 0 0 1 I I #
face $-1 $554 $555 $50 $-1 $556 reversed single #
loop $-1 $-1 $557 $233 #
plane-surface $-1 -257.8545487838374 0 0 1 0 0 0 0 -1 forward_v I I I I #
coedge $-1 $558 $382 $559 $560 forward $234 $-1 #
coedge $-1 $561 $236 $558 $562 forward $155 $-1 #
coedge $-1 $236 $561 $563 $564 forward $155 $-1 #
coedge $-1 $385 $384 $236 $378 reversed $386 $-1 #
edge $-1 $565 -3.6938432503727436 $566 3.6938432503727436 $377 $567 forward 7 unknown #
coedge $-1 $238 $237 $568 $569 forward $99 $-1 #
coedge $-1 $570 $571 $237 $381 reversed $555 $-1 #
edge $-1 $388 -257.8545487838374 $572 257.8545487838374 $380 $573 forward 7 unknown #
coedge $-1 $374 $574 $238 $383 reversed $234 $-1 #
edge $-1 $575 -257.8545487838374 $387 257.8545487838374 $382 $576 forward 7 unknown #
coedge $-1 $377 $239 $574 $577 forward $386 $-1 #
coedge $-1 $239 $377 $570 $578 reversed $386 $-1 #
loop $-1 $-1 $384 $554 #
vertex $-1 $240 $579 #
vertex $-1 $240 $580 #
straight-curve $-1 257.8545487838374 0 128.9272743919187 0 1 0 I I #
loop $-1 $-1 $581 $158 #
coedge $-1 $391 $391 $244 $392 reversed $241 $-1 #
edge $-1 $582 0 $582 6.2831853071796004 $391 $583 forward 7 unknown #
vertex $-1 $245 $584 #
ellipse-curve $-1 0 0 -4.1145741142002628 0 0 -1 1.5 0 0 1 I I #
face $-1 $-1 $261 $39 $-1 $585 reversed single #
loop $-1 $-1 $411 $246 #
plane-surface $-1 0 30.607390812930582 0 0 -1 0 0 0 -1 forward_v I I I I #
coedge $-1 $586 $409 $412 $587 forward $247 $-1 #
coedge $-1 $415 $249 $250 $403 reversed $164 $-1 #
coedge $-1 $409 $586 $249 $401 reversed $247 $-1 #
edge $-1 $416 -9.273197799474115 $588 9.273197799474115 $400 $589 forward 7 unknown #
coedge $-1 $251 $250 $586 $590 forward $105 $-1 #
edge $-1 $407 -64.46363719595935 $588 64.46363719595935 $399 $591 forward 7 unknown #
coedge $-1 $412 $411 $251 $405 reversed $396 $-1 #
edge $-1 $592 -64.46363719595935 $406 64.46363719595935 $404 $593 forward 7 unknown #
vertex $-1 $253 $594 #
vertex $-1 $418 $595 #
straight-curve $-1 64.46363719595935 0 -9.273197799474115 0 -1 0 I I #
coedge $-1 $398 $400 $254 $410 reversed $247 $-1 #
edge $-1 $413 -30.607390812930582 $416 30.607390812930582 $409 $596 forward 7 unknown #
coedge $-1 $404 $255 $260 $419 forward $396 $-1 #
coedge $-1 $255 $404 $398 $587 reversed $396 $-1 #
vertex $-1 $256 $597 #
straight-curve $-1 0 30.607390812930582 9.273197799474115 -1 0 0 I I #
coedge $-1 $257 $399 $259 $418 reversed $164 $-1 #
vertex $-1 $410 $598 #
straight-curve $-1 0 -30.607390812930582 9.273197799474115 1 0 0 I I #
edge $-1 $262 -9.273197799474115 $407 9.273197799474115 $259 $599 forward 7 unknown #
edge $-1 $263 -9.273197799474115 $406 9.273197799474115 $260 $600 forward 7 unknown #
point $-1 64.46363719595935 -30.607390812930582 9.273197799474115 #
point $-1 64.46363719595935 30.607390812930582 9.273197799474115 #
face $-1 $-1 $280 $40 $-1 $601 reversed single #
loop $-1 $-1 $438 $265 #
plane-surface $-1 0 5.0953781592899876 0 0 -1 0 0 0 -1 forward_v I I I I #
coedge $-1 $602 $436 $439 $603 forward $266 $-1 #
coedge $-1 $442 $268 $269 $430 reversed $172 $-1 #
coedge $-1 $436 $602 $268 $428 reversed $266 $-1 #
edge $-1 $443 -128.9272743919187 $604 128.9272743919187 $427 $605 forward 7 unknown #
coedge $-1 $270 $269 $602 $606 forward $109 $-1 #
edge $-1 $434 -257.8545487838374 $604 257.8545487838374 $426 $607 forward 7 unknown #
coedge $-1 $439 $438 $270 $432 reversed $423 $-1 #
edge $-1 $608 -257.8545487838374 $433 257.8545487838374 $431 $609 forward 7 unknown #
vertex $-1 $272 $610 #
vertex $-1 $445 $611 #
straight-curve $-1 257.8545487838374 0 -128.9272743919187 0 -1 0 I I #
coedge $-1 $425 $427 $273 $437 reversed $266 $-1 #
edge $-1 $440 -5.0953781592899876 $443 5.0953781592899876 $436 $612 forward 7 unknown #
coedge $-1 $431 $274 $279 $446 forward $423 $-1 #
coedge $-1 $274 $431 $425 $603 reversed $423 $-1 #
vertex $-1 $275 $613 #
straight-curve $-1 0 5.0953781592899876 128.9272743919187 -1 0 0 I I #
coedge $-1 $276 $426 $278 $445 reversed $172 $-1 #
vertex $-1 $437 $614 #
straight-curve $-1 0 -5.0953781592899876 128.9272743919187 1 0 0 I I #
edge $-1 $281 -128.9272743919187 $434 128.9272743919187 $278 $615 forward 7 unknown #
edge $-1 $282 -128.9272743919187 $433 128.9272743919187 $279 $616 forward 7 unknown #
point $-1 257.8545487838374 -5.0953781592899876 128.9272743919187 #
point $-1 257.8545487838374 5.0953781592899876 128.9272743919187 #
coedge $-1 $449 $449 $-1 $617 reversed $284 $-1 #
vertex $-1 $286 $618 #
ellipse-curve $-1 0 0 -0.5 0 0 -1 1 0 0 1 I I #
point $-1 1 0 -4.4509262367625952 #
coedge $-1 $453 $453 $-1 $619 reversed $289 $-1 #
vertex $-1 $291 $620 #
ellipse-curve $-1 0 0 -0.5 0 0 -1 1 0 0 1 I I #
point $-1 1 0 -4.4509262367625952 #
coedge $-1 $457 $457 $-1 $621 reversed $294 $-1 #
vertex $-1 $296 $622 #
ellipse-curve $-1 0 0 -0.5 0 0 -1 1 0 0 1 I I #
point $-1 1 0 -4.4509262367625952 #
face $-1 $-1 $314 $44 $-1 $623 reversed single #
loop $-1 $-1 $477 $299 #
plane-surface $-1 0 3.6938432503727436 0 0 -1 0 0 0 -1 forward_v I I I I #
coedge $-1 $624 $475 $478 $625 forward $300 $-1 #
coedge $-1 $481 $302 $303 $469 reversed $195 $-1 #
coedge $-1 $475 $624 $302 $467 reversed $300 $-1 #
edge $-1 $482 -128.9272743919187 $626 128.9272743919187 $466 $627 forward 7 unknown #
coedge $-1 $304 $303 $624 $628 forward $128 $-1 #
edge $-1 $473 -257.8545487838374 $626 257.8545487838374 $465 $629 forward 7 unknown #
coedge $-1 $478 $477 $304 $471 reversed $462 $-1 #
edge $-1 $630 -257.8545487838374 $472 257.8545487838374 $470 $631 forward 7 unknown #
vertex $-1 $306 $632 #
vertex $-1 $484 $633 #
straight-curve $-1 257.8545487838374 0 -128.9272743919187 0 -1 0 I I #
coedge $-1 $464 $466 $307 $476 reversed $300 $-1 #
edge $-1 $479 -3.6938432503727436 $482 3.6938432503727436 $475 $634 forward 7 unknown #
coedge $-1 $470 $308 $313 $485 forward $462 $-1 #
coedge $-1 $308 $470 $464 $625 reversed $462 $-1 #
vertex $-1 $309 $635 #
straight-curve $-1 0 3.6938432503727436 128.9272743919187 -1 0 0 I I #
coedge $-1 $310 $465 $312 $484 reversed $195 $-1 #
vertex $-1 $476 $636 #
straight-curve $-1 0 -3.6938432503727436 128.9272743919187 1 0 0 I I #
edge $-1 $315 -128.9272743919187 $473 128.9272743919187 $312 $637 forward 7 unknown #
edge $-1 $316 -128.9272743919187 $472 128.9272743919187 $313 $638 forward 7 unknown #
point $-1 257.8545487838374 -3.6938432503727436 128.9272743919187 #
point $-1 257.8545487838374 3.6938432503727436 128.9272743919187 #
coedge $-1 $488 $488 $-1 $639 reversed $318 $-1 #
vertex $-1 $320 $640 #
ellipse-curve $-1 0 0 -0.75 0 0 -1 1.5 0 0 1 I I #
point $-1 1.5 0 -4.1145741142002628 #
face $-1 $-1 $338 $46 $-1 $641 reversed single #
loop $-1 $-1 $508 $323 #
plane-surface $-1 0 3.6938432503727436 0 0 -1 0 0 0 -1 forward_v I I I I #
coedge $-1 $642 $506 $509 $643 forward $324 $-1 #
coedge $-1 $512 $326 $327 $500 reversed $208 $-1 #
coedge $-1 $506 $642 $326 $498 reversed $324 $-1 #
edge $-1 $513 -128.9272743919187 $644 128.9272743919187 $497 $645 forward 7 unknown #
coedge $-1 $328 $327 $642 $646 forward $137 $-1 #
edge $-1 $504 -257.8545487838374 $644 257.8545487838374 $496 $647 forward 7 unknown #
coedge $-1 $509 $508 $328 $502 reversed $493 $-1 #
edge $-1 $648 -257.8545487838374 $503 257.8545487838374 $501 $649 forward 7 unknown #
vertex $-1 $330 $650 #
vertex $-1 $515 $651 #
straight-curve $-1 257.8545487838374 0 -128.9272743919187 0 -1 0 I I #
coedge $-1 $495 $497 $331 $507 reversed $324 $-1 #
edge $-1 $510 -3.6938432503727436 $513 3.6938432503727436 $506 $652 forward 7 unknown #
coedge $-1 $501 $332 $337 $516 forward $493 $-1 #
coedge $-1 $332 $501 $495 $643 reversed $493 $-1 #
vertex $-1 $333 $653 #
straight-curve $-1 0 3.6938432503727436 128.9272743919187 -1 0 0 I I #
coedge $-1 $334 $496 $336 $515 reversed $208 $-1 #
vertex $-1 $507 $654 #
straight-curve $-1 0 -3.6938432503727436 128.9272743919187 1 0 0 I I #
edge $-1 $339 -128.9272743919187 $504 128.9272743919187 $336 $655 forward 7 unknown #
edge $-1 $340 -128.9272743919187 $503 128.9272743919187 $337 $656 forward 7 unknown #
point $-1 257.8545487838374 -3.6938432503727436 128.9272743919187 #
point $-1 257.8545487838374 3.6938432503727436 128.9272743919187 #
coedge $-1 $519 $519 $-1 $657 reversed $342 $-1 #
vertex $-1 $344 $658 #
ellipse-curve $-1 0 0 -0.75 0 0 -1 1.5 0 0 1 I I #
point $-1 1.5 0 -4.1145741142002628 #
face $-1 $-1 $362 $48 $-1 $659 reversed single #
loop $-1 $-1 $539 $347 #
plane-surface $-1 0 3.6938432503727436 0 0 -1 0 0 0 -1 forward_v I I I I #
coedge $-1 $660 $537 $540 $661 forward $348 $-1 #
coedge $-1 $543 $350 $351 $531 reversed $221 $-1 #
coedge $-1 $537 $660 $350 $529 reversed $348 $-1 #
edge $-1 $544 -128.9272743919187 $662 128.9272743919187 $528 $663 forward 7 unknown #
coedge $-1 $352 $351 $660 $664 forward $146 $-1 #
edge $-1 $535 -257.8545487838374 $662 257.8545487838374 $527 $665 forward 7 unknown #
coedge $-1 $540 $539 $352 $533 reversed $524 $-1 #
edge $-1 $666 -257.8545487838374 $534 257.8545487838374 $532 $667 forward 7 unknown #
vertex $-1 $354 $668 #
vertex $-1 $546 $669 #
straight-curve $-1 257.8545487838374 0 -128.9272743919187 0 -1 0 I I #
coedge $-1 $526 $528 $355 $538 reversed $348 $-1 #
edge $-1 $541 -3.6938432503727436 $544 3.6938432503727436 $537 $670 forward 7 unknown #
coedge $-1 $532 $356 $361 $547 forward $524 $-1 #
coedge $-1 $356 $532 $526 $661 reversed $524 $-1 #
vertex $-1 $357 $671 #
straight-curve $-1 0 3.6938432503727436 128.9272743919187 -1 0 0 I I #
coedge $-1 $358 $527 $360 $546 reversed $221 $-1 #
vertex $-1 $538 $672 #
straight-curve $-1 0 -3.6938432503727436 128.9272743919187 1 0 0 I I #
edge $-1 $363 -128.9272743919187 $535 128.9272743919187 $360 $673 forward 7 unknown #
edge $-1 $364 -128.9272743919187 $534 128.9272743919187 $361 $674 forward 7 unknown #
point $-1 257.8545487838374 -3.6938432503727436 128.9272743919187 #
point $-1 257.8545487838374 3.6938432503727436 128.9272743919187 #
coedge $-1 $550 $550 $-1 $675 reversed $366 $-1 #
vertex $-1 $368 $676 #
ellipse-curve $-1 0 0 -0.75 0 0 -1 1.5 0 0 1 I I #
point $-1 1.5 0 -4.1145741142002628 #
face $-1 $-1 $386 $50 $-1 $677 reversed single #
loop $-1 $-1 $570 $371 #
plane-surface $-1 0 3.6938432503727436 0 0 -1 0 0 0 -1 forward_v I I I I #
coedge $-1 $678 $568 $571 $679 forward $372 $-1 #
coedge $-1 $574 $374 $375 $562 reversed $234 $-1 #
coedge $-1 $568 $678 $374 $560 reversed $372 $-1 #
edge $-1 $575 -128.9272743919187 $680 128.9272743919187 $559 $681 forward 7 unknown #
coedge $-1 $376 $375 $678 $682 forward $155 $-1 #
edge $-1 $566 -257.8545487838374 $680 257.8545487838374 $558 $683 forward 7 unknown #
coedge $-1 $571 $570 $376 $564 reversed $555 $-1 #
edge $-1 $684 -257.8545487838374 $565 257.8545487838374 $563 $685 forward 7 unknown #
vertex $-1 $378 $686 #
vertex $-1 $577 $687 #
straight-curve $-1 257.8545487838374 0 -128.9272743919187 0 -1 0 I I #
coedge $-1 $557 $559 $379 $569 reversed $372 $-1 #
edge $-1 $572 -3.6938432503727436 $575 3.6938432503727436 $568 $688 forward 7 unknown #
coedge $-1 $563 $380 $385 $578 forward $555 $-1 #
coedge $-1 $380 $563 $557 $679 reversed $555 $-1 #
vertex $-1 $381 $689 #
straight-curve $-1 0 3.6938432503727436 128.9272743919187 -1 0 0 I I #
coedge $-1 $382 $558 $384 $577 reversed $234 $-1 #
vertex $-1 $569 $690 #
straight-curve $-1 0 -3.6938432503727436 128.9272743919187 1 0 0 I I #
edge $-1 $387 -128.9272743919187 $566 128.9272743919187 $384 $691 forward 7 unknown #
edge $-1 $388 -128.9272743919187 $565 128.9272743919187 $385 $692 forward 7 unknown #
point $-1 257.8545487838374 -3.6938432503727436 128.9272743919187 #
point $-1 257.8545487838374 3.6938432503727436 128.9272743919187 #
coedge $-1 $581 $581 $-1 $693 reversed $390 $-1 #
vertex $-1 $392 $694 #
ellipse-curve $-1 0 0 -0.75 0 0 -1 1.5 0 0 1 I I #
point $-1 1.5 0 -4.1145741142002628 #
plane-surface $-1 64.46363719595935 0 0 -1 0 0 0 0 1 forward_v I I I I #
coedge $-1 $400 $398 $402 $590 reversed $247 $-1 #
edge $-1 $413 -9.273197799474115 $592 9.273197799474115 $412 $695 forward 7 unknown #
vertex $-1 $590 $696 #
straight-curve $-1 -64.46363719595935 -30.607390812930582 0 0 0 -1 I I #
edge $-1 $588 -30.607390812930582 $592 30.607390812930582 $586 $697 forward 7 unknown #
straight-curve $-1 0 -30.607390812930582 -9.273197799474115 -1 0 0 I I #
vertex $-1 $405 $698 #
straight-curve $-1 0 30.607390812930582 -9.273197799474115 1 0 0 I I #
point $-1 64.46363719595935 30.607390812930582 -9.273197799474115 #
point $-1 64.46363719595935 -30.607390812930582 -9.273197799474115 #
straight-curve $-1 -64.46363719595935 0 9.273197799474115 0 -1 0 I I #
point $-1 -64.46363719595935 30.607390812930582 9.273197799474115 #
point $-1 -64.46363719595935 -30.607390812930582 9.273197799474115 #
straight-curve $-1 64.46363719595935 -30.607390812930582 0 0 0 -1 I I #
straight-curve $-1 64.46363719595935 30.607390812930582 0 0 0 -1 I I #
plane-surface $-1 257.8545487838374 0 0 -1 0 0 0 0 1 forward_v I I I I #
coedge $-1 $427 $425 $429 $606 reversed $266 $-1 #
edge $-1 $440 -128.9272743919187 $608 128.9272743919187 $439 $699 forward 7 unknown #
vertex $-1 $606 $700 #
straight-curve $-1 -257.8545487838374 -5.0953781592899876 0 0 0 -1 I I #
edge $-1 $604 -5.0953781592899876 $608 5.0953781592899876 $602 $701 forward 7 unknown #
straight-curve $-1 0 -5.0953781592899876 -128.9272743919187 -1 0 0 I I #
vertex $-1 $432 $702 #
straight-curve $-1 0 5.0953781592899876 -128.9272743919187 1 0 0 I I #
point $-1 257.8545487838374 5.0953781592899876 -128.9272743919187 #
point $-1 257.8545487838374 -5.0953781592899876 -128.9272743919187 #
straight-curve $-1 -257.8545487838374 0 128.9272743919187 0 -1 0 I I #
point $-1 -257.8545487838374 5.0953781592899876 128.9272743919187 #
point $-1 -257.8545487838374 -5.0953781592899876 128.9272743919187 #
straight-curve $-1 257.8545487838374 -5.0953781592899876 0 0 0 -1 I I #
straight-curve $-1 257.8545487838374 5.0953781592899876 0 0 0 -1 I I #
edge $-1 $703 1 $703 0 $449 $-1 forward 7 unknown #
point $-1 1 0 -0.5 #
edge $-1 $704 1 $704 0 $453 $-1 forward 7 unknown #
point $-1 1 0 -0.5 #
edge $-1 $705 1 $705 0 $457 $-1 forward 7 unknown #
point $-1 1 0 -0.5 #
plane-surface $-1 257.8545487838374 0 0 -1 0 0 0 0 1 forward_v I I I I #
coedge $-1 $466 $464 $468 $628 reversed $300 $-1 #
edge $-1 $479 -128.9272743919187 $630 128.9272743919187 $478 $706 forward 7 unknown #
vertex $-1 $628 $707 #
straight-curve $-1 -257.8545487838374 -3.6938432503727436 0 0 0 -1 I I #
edge $-1 $626 -3.6938432503727436 $630 3.6938432503727436 $624 $708 forward 7 unknown #
straight-curve $-1 0 -3.6938432503727436 -128.9272743919187 -1 0 0 I I #
vertex $-1 $471 $709 #
straight-curve $-1 0 3.6938432503727436 -128.9272743919187 1 0 0 I I #
point $-1 257.8545487838374 3.6938432503727436 -128.9272743919187 #
point $-1 257.8545487838374 -3.6938432503727436 -128.9272743919187 #
straight-curve $-1 -257.8545487838374 0 128.9272743919187 0 -1 0 I I #
point $-1 -257.8545487838374 3.6938432503727436 128.9272743919187 #
point $-1 -257.8545487838374 -3.6938432503727436 128.9272743919187 #
straight-curve $-1 257.8545487838374 -3.6938432503727436 0 0 0 -1 I I #
straight-curve $-1 257.8545487838374 3.6938432503727436 0 0 0 -1 I I #
edge $-1 $710 1 $710 0 $488 $-1 forward 7 unknown #
point $-1 1.5 0 -0.75 #
plane-surface $-1 257.8545487838374 0 0 -1 0 0 0 0 1 forward_v I I I I #
coedge $-1 $497 $495 $499 $646 reversed $324 $-1 #
edge $-1 $510 -128.9272743919187 $648 128.9272743919187 $509 $711 forward 7 unknown #
vertex $-1 $646 $712 #
straight-curve $-1 -257.8545487838374 -3.6938432503727436 0 0 0 -1 I I #
edge $-1 $644 -3.6938432503727436 $648 3.6938432503727436 $642 $713 forward 7 unknown #
straight-curve $-1 0 -3.6938432503727436 -128.9272743919187 -1 0 0 I I #
vertex $-1 $502 $714 #
straight-curve $-1 0 3.6938432503727436 -128.9272743919187 1 0 0 I I #
point $-1 257.8545487838374 3.6938432503727436 -128.9272743919187 #
point $-1 257.8545487838374 -3.6938432503727436 -128.9272743919187 #
straight-curve $-1 -257.8545487838374 0 128.9272743919187 0 -1 0 I I #
point $-1 -257.8545487838374 3.6938432503727436 128.9272743919187 #
point $-1 -257.8545487838374 -3.6938432503727436 128.9272743919187 #
straight-curve $-1 257.8545487838374 -3.6938432503727436 0 0 0 -1 I I #
straight-curve $-1 257.8545487838374 3.6938432503727436 0 0 0 -1 I I #
edge $-1 $715 1 $715 0 $519 $-1 forward 7 unknown #
point $-1 1.5 0 -0.75 #
plane-surface $-1 257.8545487838374 0 0 -1 0 0 0 0 1 forward_v I I I I #
coedge $-1 $528 $526 $530 $664 reversed $348 $-1 #
edge $-1 $541 -128.9272743919187 $666 128.9272743919187 $540 $716 forward 7 unknown #
vertex $-1 $664 $717 #
straight-curve $-1 -257.8545487838374 -3.6938432503727436 0 0 0 -1 I I #
edge $-1 $662 -3.6938432503727436 $666 3.6938432503727436 $660 $718 forward 7 unknown #
straight-curve $-1 0 -3.6938432503727436 -128.9272743919187 -1 0 0 I I #
vertex $-1 $533 $719 #
straight-curve $-1 0 3.6938432503727436 -128.9272743919187 1 0 0 I I #
point $-1 257.8545487838374 3.6938432503727436 -128.9272743919187 #
point $-1 257.8545487838374 -3.6938432503727436 -128.9272743919187 #
straight-curve $-1 -257.8545487838374 0 128.9272743919187 0 -1 0 I I #
point $-1 -257.8545487838374 3.6938432503727436 128.9272743919187 #
point $-1 -257.8545487838374 -3.6938432503727436 128.9272743919187 #
straight-curve $-1 257.8545487838374 -3.6938432503727436 0 0 0 -1 I I #
straight-curve $-1 257.8545487838374 3.6938432503727436 0 0 0 -1 I I #
edge $-1 $720 1 $720 0 $550 $-1 forward 7 unknown #
point $-1 1.5 0 -0.75 #
plane-surface $-1 257.8545487838374 0 0 -1 0 0 0 0 1 forward_v I I I I #
coedge $-1 $559 $557 $561 $682 reversed $372 $-1 #
edge $-1 $572 -128.9272743919187 $684 128.9272743919187 $571 $721 forward 7 unknown #
vertex $-1 $682 $722 #
straight-curve $-1 -257.8545487838374 -3.6938432503727436 0 0 0 -1 I I #
edge $-1 $680 -3.6938432503727436 $684 3.6938432503727436 $678 $723 forward 7 unknown #
straight-curve $-1 0 -3.6938432503727436 -128.9272743919187 -1 0 0 I I #
vertex $-1 $564 $724 #
straight-curve $-1 0 3.6938432503727436 -128.9272743919187 1 0 0 I I #
point $-1 257.8545487838374 3.6938432503727436 -128.9272743919187 #
point $-1 257.8545487838374 -3.6938432503727436 -128.9272743919187 #
straight-curve $-1 -257.8545487838374 0 128.9272743919187 0 -1 0 I I #
point $-1 -257.8545487838374 3.6938432503727436 128.9272743919187 #
point $-1 -257.8545487838374 -3.6938432503727436 128.9272743919187 #
straight-curve $-1 257.8545487838374 -3.6938432503727436 0 0 0 -1 I I #
straight-curve $-1 257.8545487838374 3.6938432503727436 0 0 0 -1 I I #
edge $-1 $725 1 $725 0 $581 $-1 forward 7 unknown #
point $-1 1.5 0 -0.75 #
straight-curve $-1 -64.46363719595935 30.607390812930582 0 0 0 -1 I I #
point $-1 -64.46363719595935 -30.607390812930582 -9.273197799474115 #
straight-curve $-1 -64.46363719595935 0 -9.273197799474115 0 1 0 I I #
point $-1 -64.46363719595935 30.607390812930582 -9.273197799474115 #
straight-curve $-1 -257.8545487838374 5.0953781592899876 0 0 0 -1 I I #
point $-1 -257.8545487838374 -5.0953781592899876 -128.9272743919187 #
straight-curve $-1 -257.8545487838374 0 -128.9272743919187 0 1 0 I I #
point $-1 -257.8545487838374 5.0953781592899876 -128.9272743919187 #
vertex $-1 $617 $726 #
vertex $-1 $619 $727 #
vertex $-1 $621 $728 #
straight-curve $-1 -257.8545487838374 3.6938432503727436 0 0 0 -1 I I #
point $-1 -257.8545487838374 -3.6938432503727436 -128.9272743919187 #
straight-curve $-1 -257.8545487838374 0 -128.9272743919187 0 1 0 I I #
point $-1 -257.8545487838374 3.6938432503727436 -128.9272743919187 #
vertex $-1 $639 $729 #
straight-curve $-1 -257.8545487838374 3.6938432503727436 0 0 0 -1 I I #
point $-1 -257.8545487838374 -3.6938432503727436 -128.9272743919187 #
straight-curve $-1 -257.8545487838374 0 -128.9272743919187 0 1 0 I I #
point $-1 -257.8545487838374 3.6938432503727436 -128.9272743919187 #
vertex $-1 $657 $730 #
straight-curve $-1 -257.8545487838374 3.6938432503727436 0 0 0 -1 I I #
point $-1 -257.8545487838374 -3.6938432503727436 -128.9272743919187 #
straight-curve $-1 -257.8545487838374 0 -128.9272743919187 0 1 0 I I #
point $-1 -257.8545487838374 3.6938432503727436 -128.9272743919187 #
vertex $-1 $675 $731 #
straight-curve $-1 -257.8545487838374 3.6938432503727436 0 0 0 -1 I I #
point $-1 -257.8545487838374 -3.6938432503727436 -128.9272743919187 #
straight-curve $-1 -257.8545487838374 0 -128.9272743919187 0 1 0 I I #
point $-1 -257.8545487838374 3.6938432503727436 -128.9272743919187 #
vertex $-1 $693 $732 #
point $-1 0 0 0.5 #
point $-1 0 0 0.5 #
point $-1 0 0 0.5 #
point $-1 0 0 0.75 #
point $-1 0 0 0.75 #
point $-1 0 0 0.75 #
point $-1 0 0 0.75 #
End-of-ACIS-data 