500 0 8 0           
7 Unknown 11 ACIS 5.0 NT 24 Fri Mar 26 17:12:43 1999 
-1 9.9999999999999995e-007 1e-010 
body $-1 $8 $-1 $9 #
body $-1 $10 $-1 $11 #
body $-1 $12 $-1 $13 #
body $-1 $14 $-1 $15 #
body $-1 $16 $-1 $17 #
body $-1 $18 $-1 $19 #
body $-1 $20 $-1 $21 #
body $-1 $22 $-1 $23 #
lump $-1 $-1 $24 $0 #
transform $-1 1 0 0 0 1 0 0 0 1 67.608264412366097 44.488949164080864 20.750828750093493 1 rotate no_reflect no_shear #
lump $-1 $-1 $25 $1 #
transform $-1 1 0 0 0 1 0 0 0 1 67.608264412366097 44.488949164080864 20.750828750093493 1 rotate no_reflect no_shear #
lump $-1 $-1 $26 $2 #
transform $-1 1 0 0 0 1 0 0 0 1 67.608264412366097 44.488949164080864 20.750828750093493 1 rotate no_reflect no_shear #
lump $-1 $-1 $27 $3 #
transform $-1 1 0 0 0 1 0 0 0 1 67.608264412366097 44.488949164080864 20.750828750093493 1 rotate no_reflect no_shear #
lump $-1 $-1 $28 $4 #
transform $-1 1 0 0 0 1 0 0 0 1 67.608264412366097 44.488949164080864 20.750828750093493 1 rotate no_reflect no_shear #
lump $-1 $-1 $29 $5 #
transform $-1 1 0 0 0 1 0 0 0 1 67.608264412366097 44.488949164080864 20.750828750093493 1 rotate no_reflect no_shear #
lump $-1 $-1 $30 $6 #
transform $-1 1 0 0 0 1 0 0 0 1 67.608264412366097 44.488949164080864 20.750828750093493 1 rotate no_reflect no_shear #
lump $-1 $-1 $31 $7 #
transform $-1 1 0 0 0 1 0 0 0 1 67.608264412366097 44.488949164080864 20.750828750093493 1 rotate no_reflect no_shear #
shell $-1 $-1 $-1 $32 $-1 $8 #
shell $-1 $-1 $-1 $33 $-1 $10 #
shell $-1 $-1 $-1 $34 $-1 $12 #
shell $-1 $-1 $-1 $35 $-1 $14 #
shell $-1 $-1 $-1 $36 $-1 $16 #
shell $-1 $-1 $-1 $37 $-1 $18 #
shell $-1 $-1 $-1 $38 $-1 $20 #
shell $-1 $-1 $-1 $39 $-1 $22 #
face $-1 $40 $41 $24 $-1 $42 forward single #
face $-1 $43 $44 $25 $-1 $45 forward single #
face $-1 $46 $47 $26 $-1 $48 reversed single #
face $-1 $49 $50 $27 $-1 $51 forward single #
face $-1 $52 $53 $28 $-1 $54 forward single #
face $-1 $55 $56 $29 $-1 $57 reversed single #
face $-1 $58 $59 $30 $-1 $60 forward single #
face $-1 $61 $62 $31 $-1 $63 forward single #
face $-1 $64 $65 $24 $-1 $66 reversed single #
loop $-1 $-1 $67 $32 #
plane-surface $-1 0 0 20.750828750093493 0 0 1 1 0 0 forward_v I I I I #
face $-1 $68 $69 $25 $-1 $70 reversed single #
loop $-1 $-1 $71 $33 #
plane-surface $-1 0 -44.488949164080864 0 0 1 0 0 0 1 forward_v I I I I #
face $-1 $72 $73 $26 $-1 $74 reversed single #
loop $-1 $-1 $75 $34 #
plane-surface $-1 54.269081324649477 31.871900103952001 198.7952399982949 0 -1 0 -0.6560590369687036 0 -0.75470957328743171 forward_v I I I I #
face $-1 $76 $77 $27 $-1 $78 forward single #
loop $-1 $79 $80 $35 #
cone-surface $-1 58.654100803390193 18.401368277524099 12.505894654246493 -0.6560590369687036 0 -0.75470957328743171 1.8867739332185793 0 -1.640147592421759 1 I I 0 1 2.5 forward I I I I #
face $-1 $81 $82 $28 $-1 $83 forward single #
loop $-1 $84 $85 $36 #
cone-surface $-1 58.654100803390193 26.483687373380832 12.505894654246493 -0.6560590369687036 0 -0.75470957328743171 1.8867739332185793 0 -1.640147592421759 1 I I 0 1 2.5 forward I I I I #
face $-1 $86 $87 $29 $-1 $88 reversed single #
loop $-1 $-1 $89 $37 #
plane-surface $-1 -168.0937292472355 36.343179990115672 92.449951368371032 0 1 0 -0.74314483375859142 0 0.66913059716165679 forward_v I I I I #
face $-1 $90 $91 $30 $-1 $92 forward single #
loop $-1 $93 $94 $38 #
cone-surface $-1 -58.667283751953171 38.670542611248592 10.923216094736723 0.74314483375859142 0 -0.66913059716165679 0.3345652985808284 0 0.37157241687929571 1 I I 0 1 0.5 forward I I I I #
face $-1 $95 $96 $31 $-1 $97 forward single #
loop $-1 $98 $99 $39 #
cone-surface $-1 -58.667283751953171 42.161586542947958 10.923216094736723 0.74314483375859142 0 -0.66913059716165679 0.3345652985808284 0 0.37157241687929571 1 I I 0 1 0.5 forward I I I I #
face $-1 $100 $101 $24 $-1 $102 reversed single #
loop $-1 $-1 $103 $40 #
plane-surface $-1 0 0 -20.750828750093493 0 0 1 1 0 0 forward_v I I I I #
coedge $-1 $104 $105 $106 $107 forward $41 $-1 #
face $-1 $108 $109 $25 $-1 $110 reversed single #
loop $-1 $-1 $111 $43 #
plane-surface $-1 0 0 -20.750828750093493 0 0 1 1 0 0 forward_v I I I I #
coedge $-1 $112 $113 $114 $115 forward $44 $-1 #
face $-1 $116 $117 $26 $-1 $118 reversed single #
loop $-1 $-1 $119 $46 #
plane-surface $-1 -34.440944358355281 22.442527825452473 96.746031227573553 0.6560590369687036 0 0.75470957328743171 0.75470957328743171 0 -0.6560590369687036 forward_v I I I I #
coedge $-1 $120 $121 $122 $123 reversed $47 $-1 #
face $-1 $-1 $124 $27 $-1 $125 forward single #
loop $-1 $126 $127 $49 #
cone-surface $-1 56.193228701579613 18.401368277524099 9.6749851945525442 -0.6560590369687036 0 -0.75470957328743171 0.94338696660928967 0 -0.8200737962108795 1 I I -0.70710678118654746 0.70710678118654746 1.25 forward I I I I #
loop $-1 $-1 $128 $35 #
coedge $-1 $80 $80 $129 $130 reversed $50 $-1 #
face $-1 $-1 $131 $28 $-1 $132 forward single #
loop $-1 $133 $134 $52 #
cone-surface $-1 56.193228701579613 26.483687373380832 9.6749851945525442 -0.6560590369687036 0 -0.75470957328743171 0.94338696660928967 0 -0.8200737962108795 1 I I -0.70710678118654746 0.70710678118654746 1.25 forward I I I I #
loop $-1 $-1 $135 $36 #
coedge $-1 $85 $85 $136 $137 reversed $53 $-1 #
face $-1 $138 $139 $29 $-1 $140 reversed single #
loop $-1 $-1 $141 $55 #
plane-surface $-1 -67.608264412366111 40.416064577098268 1.9724346897515943 -0.74314483375859142 0 0.66913059716165679 0.66913059716165679 0 0.74314483375859142 forward_v I I I I #
coedge $-1 $142 $143 $144 $145 reversed $56 $-1 #
face $-1 $-1 $146 $30 $-1 $147 forward single #
loop $-1 $148 $149 $58 #
cone-surface $-1 -57.994587651367063 38.670542611248592 10.317517820260495 0.74314483375859142 0 -0.66913059716165679 0.1672826492904142 0 0.18578620843964785 1 I I -0.70710678118654746 0.70710678118654746 0.25 forward I I I I #
loop $-1 $-1 $150 $38 #
coedge $-1 $94 $94 $151 $152 reversed $59 $-1 #
face $-1 $-1 $153 $31 $-1 $154 forward single #
loop $-1 $155 $156 $61 #
cone-surface $-1 -57.994587651367063 42.161586542947958 10.317517820260495 0.74314483375859142 0 -0.66913059716165679 0.1672826492904142 0 0.18578620843964785 1 I I -0.70710678118654746 0.70710678118654746 0.25 forward I I I I #
loop $-1 $-1 $157 $39 #
coedge $-1 $99 $99 $158 $159 reversed $62 $-1 #
face $-1 $160 $161 $24 $-1 $162 reversed single #
loop $-1 $-1 $163 $64 #
plane-surface $-1 0 -44.488949164080864 0 0 1 0 0 0 1 forward_v I I I I #
coedge $-1 $164 $165 $166 $167 forward $65 $-1 #
coedge $-1 $168 $67 $169 $170 forward $41 $-1 #
coedge $-1 $67 $168 $171 $172 forward $41 $-1 #
coedge $-1 $173 $174 $67 $107 reversed $175 $-1 #
edge $-1 $176 -44.488949164080864 $177 44.488949164080864 $106 $178 forward 7 unknown #
face $-1 $179 $180 $25 $-1 $181 forward single #
loop $-1 $-1 $182 $68 #
plane-surface $-1 67.608264412366097 0 0 -1 0 0 0 0 1 forward_v I I I I #
coedge $-1 $183 $184 $185 $186 forward $69 $-1 #
coedge $-1 $185 $71 $182 $187 reversed $44 $-1 #
coedge $-1 $71 $185 $188 $189 reversed $44 $-1 #
coedge $-1 $190 $191 $71 $115 reversed $180 $-1 #
edge $-1 $192 -67.608264412366097 $193 67.608264412366097 $114 $194 forward 7 unknown #
face $-1 $195 $196 $26 $-1 $197 reversed single #
loop $-1 $-1 $198 $72 #
plane-surface $-1 54.269081324649477 13.013155546952945 198.7952399982949 0 1 0 0.6560590369687036 0 0.75470957328743171 forward_v I I I I #
coedge $-1 $199 $200 $201 $202 reversed $73 $-1 #
coedge $-1 $121 $75 $203 $204 reversed $47 $-1 #
coedge $-1 $75 $120 $199 $205 reversed $47 $-1 #
coedge $-1 $201 $206 $75 $123 forward $207 $-1 #
edge $-1 $208 -40.473723750041358 $209 -25.846993143288884 $122 $210 forward 7 unknown #
loop $-1 $-1 $129 $76 #
plane-surface $-1 -34.440944358355281 22.442527825452473 96.746031227573553 0.6560590369687036 0 0.75470957328743171 0.75470957328743171 0 -0.6560590369687036 forward_v I I I I #
loop $-1 $-1 $211 $49 #
coedge $-1 $127 $127 $128 $212 reversed $77 $-1 #
coedge $-1 $128 $128 $127 $212 forward $79 $-1 #
coedge $-1 $129 $129 $80 $130 forward $124 $-1 #
edge $-1 $213 0 $213 6.2831853071796004 $129 $214 forward 7 unknown #
loop $-1 $-1 $136 $81 #
plane-surface $-1 -34.440944358355281 22.442527825452473 96.746031227573553 0.6560590369687036 0 0.75470957328743171 0.75470957328743171 0 -0.6560590369687036 forward_v I I I I #
loop $-1 $-1 $215 $52 #
coedge $-1 $134 $134 $135 $216 reversed $82 $-1 #
coedge $-1 $135 $135 $134 $216 forward $84 $-1 #
coedge $-1 $136 $136 $85 $137 forward $131 $-1 #
edge $-1 $217 0 $217 6.2831853071796004 $136 $218 forward 7 unknown #
face $-1 $219 $220 $29 $-1 $221 reversed single #
loop $-1 $-1 $222 $86 #
plane-surface $-1 0 44.488949164080864 0 0 -1 0 0 0 -1 forward_v I I I I #
coedge $-1 $223 $224 $225 $226 reversed $87 $-1 #
coedge $-1 $143 $89 $227 $228 reversed $56 $-1 #
coedge $-1 $89 $142 $223 $229 reversed $56 $-1 #
coedge $-1 $225 $230 $89 $145 forward $231 $-1 #
edge $-1 $232 16.438600211251654 $233 33.346741747784549 $144 $234 forward 7 unknown #
loop $-1 $-1 $151 $90 #
plane-surface $-1 -67.608264412366111 40.416064577098268 1.9724346897515943 -0.74314483375859142 0 0.66913059716165679 0.66913059716165679 0 0.74314483375859142 forward_v I I I I #
loop $-1 $-1 $235 $58 #
coedge $-1 $149 $149 $150 $236 reversed $91 $-1 #
coedge $-1 $150 $150 $149 $236 forward $93 $-1 #
coedge $-1 $151 $151 $94 $152 forward $146 $-1 #
edge $-1 $237 0 $237 6.2831853071796004 $151 $238 forward 7 unknown #
loop $-1 $-1 $158 $95 #
plane-surface $-1 -67.608264412366111 40.416064577098268 1.9724346897515943 -0.74314483375859142 0 0.66913059716165679 0.66913059716165679 0 0.74314483375859142 forward_v I I I I #
loop $-1 $-1 $239 $61 #
coedge $-1 $156 $156 $157 $240 reversed $96 $-1 #
coedge $-1 $157 $157 $156 $240 forward $98 $-1 #
coedge $-1 $158 $158 $99 $159 forward $153 $-1 #
edge $-1 $241 0 $241 6.2831853071796004 $158 $242 forward 7 unknown #
face $-1 $243 $244 $24 $-1 $245 reversed single #
loop $-1 $-1 $246 $100 #
plane-surface $-1 -67.608264412366097 0 0 1 0 0 0 0 -1 forward_v I I I I #
coedge $-1 $247 $171 $248 $249 forward $101 $-1 #
coedge $-1 $250 $103 $247 $251 forward $65 $-1 #
coedge $-1 $103 $250 $252 $253 forward $65 $-1 #
coedge $-1 $174 $173 $103 $167 reversed $175 $-1 #
edge $-1 $254 -44.488949164080864 $255 44.488949164080864 $166 $256 forward 7 unknown #
coedge $-1 $105 $104 $257 $258 forward $41 $-1 #
coedge $-1 $259 $260 $104 $170 reversed $244 $-1 #
edge $-1 $177 -67.608264412366097 $261 67.608264412366097 $169 $262 forward 7 unknown #
coedge $-1 $163 $263 $105 $172 reversed $101 $-1 #
edge $-1 $264 -67.608264412366097 $176 67.608264412366097 $171 $265 forward 7 unknown #
coedge $-1 $166 $106 $263 $266 forward $175 $-1 #
coedge $-1 $106 $166 $259 $267 reversed $175 $-1 #
loop $-1 $-1 $173 $243 #
vertex $-1 $107 $268 #
vertex $-1 $107 $269 #
straight-curve $-1 67.608264412366097 0 20.750828750093493 0 1 0 I I #
face $-1 $270 $271 $25 $-1 $272 reversed single #
loop $-1 $-1 $191 $108 #
plane-surface $-1 0 -56.110958477981001 -13.521381109317186 0 0 1 1 0 0 forward_v I I I I #
coedge $-1 $273 $274 $112 $187 forward $109 $-1 #
coedge $-1 $275 $111 $274 $276 forward $69 $-1 #
coedge $-1 $111 $275 $277 $278 forward $69 $-1 #
coedge $-1 $113 $112 $111 $186 reversed $44 $-1 #
edge $-1 $279 -67.608264412366097 $280 67.608264412366097 $111 $281 forward 7 unknown #
edge $-1 $280 -20.750828750093493 $193 -13.521381109317186 $182 $282 forward 7 unknown #
coedge $-1 $277 $283 $113 $189 forward $284 $-1 #
edge $-1 $192 13.521381109317186 $279 20.750828750093493 $188 $285 forward 7 unknown #
coedge $-1 $286 $114 $283 $287 forward $180 $-1 #
coedge $-1 $114 $286 $273 $288 forward $180 $-1 #
vertex $-1 $189 $289 #
vertex $-1 $288 $290 #
straight-curve $-1 0 -44.488949164080864 -13.521381109317186 1 0 0 I I #
face $-1 $-1 $207 $26 $-1 $291 forward single #
loop $-1 $-1 $292 $116 #
plane-surface $-1 67.608264412366097 0 0 -1 0 0 0 0 1 forward_v I I I I #
coedge $-1 $293 $294 $295 $296 reversed $117 $-1 #
coedge $-1 $297 $119 $121 $205 forward $73 $-1 #
coedge $-1 $119 $297 $293 $298 forward $73 $-1 #
coedge $-1 $295 $122 $119 $202 forward $207 $-1 #
edge $-1 $209 -20.650636191225765 $299 -1.7918916342267082 $201 $300 forward 7 unknown #
coedge $-1 $301 $302 $120 $204 forward $196 $-1 #
edge $-1 $303 -91.361614454578685 $208 -78.646791249053962 $203 $304 forward 7 unknown #
edge $-1 $209 115.835920542476 $303 135.21652882473225 $121 $305 forward 7 unknown #
coedge $-1 $122 $295 $301 $306 forward $207 $-1 #
loop $-1 $-1 $295 $195 #
vertex $-1 $204 $307 #
vertex $-1 $123 $308 #
straight-curve $-1 27.134540662324738 31.871900103952001 20.75082875009349 -1 0 0 I I #
coedge $-1 $211 $211 $-1 $309 reversed $126 $-1 #
edge $-1 $310 0 $310 6.2831853071796004 $127 $311 forward 7 unknown #
vertex $-1 $130 $312 #
ellipse-curve $-1 60.294899108989867 18.401368277524099 14.393417147331125 0.6560590369687036 0 0.75470957328743171 1.8867739332185793 0 -1.640147592421759 1 I I #
coedge $-1 $215 $215 $-1 $313 reversed $133 $-1 #
edge $-1 $314 0 $314 6.2831853071796004 $134 $315 forward 7 unknown #
vertex $-1 $137 $316 #
ellipse-curve $-1 60.294899108989867 26.483687373380832 14.393417147331125 0.6560590369687036 0 0.75470957328743171 1.8867739332185793 0 -1.640147592421759 1 I I #
face $-1 $-1 $231 $29 $-1 $317 forward single #
loop $-1 $-1 $318 $138 #
plane-surface $-1 -67.608264412366097 0 0 1 0 0 0 0 -1 forward_v I I I I #
coedge $-1 $319 $320 $224 $321 forward $139 $-1 #
coedge $-1 $322 $141 $143 $229 forward $87 $-1 #
coedge $-1 $141 $322 $222 $321 reversed $87 $-1 #
coedge $-1 $323 $144 $141 $226 forward $231 $-1 #
edge $-1 $233 16.135147701566538 $324 24.28091687553173 $225 $325 forward 7 unknown #
coedge $-1 $326 $318 $142 $228 forward $220 $-1 #
edge $-1 $327 -44.252540994433907 $232 -25.474146934092023 $227 $328 forward 7 unknown #
edge $-1 $233 -25.268821375460181 $327 -2.1224720073754982e-014 $143 $329 forward 7 unknown #
coedge $-1 $144 $323 $326 $330 forward $231 $-1 #
loop $-1 $-1 $225 $219 #
vertex $-1 $228 $331 #
vertex $-1 $145 $332 #
straight-curve $-1 -84.046864623617751 36.343179990115672 20.750828750093497 1 0 0 I I #
coedge $-1 $235 $235 $-1 $333 reversed $148 $-1 #
edge $-1 $334 0 $334 6.2831853071796004 $149 $335 forward 7 unknown #
vertex $-1 $152 $336 #
ellipse-curve $-1 -59.154193644099649 38.670542611248592 11.361631719922551 -0.74314483375859142 0 0.66913059716165679 0.3345652985808284 0 0.37157241687929571 1 I I #
coedge $-1 $239 $239 $-1 $337 reversed $155 $-1 #
edge $-1 $338 0 $338 6.2831853071796004 $156 $339 forward 7 unknown #
vertex $-1 $159 $340 #
ellipse-curve $-1 -59.154193644099649 42.161586542947958 11.361631719922551 -0.74314483375859142 0 0.66913059716165679 0.3345652985808284 0 0.37157241687929571 1 I I #
face $-1 $-1 $175 $24 $-1 $341 reversed single #
loop $-1 $-1 $259 $160 #
plane-surface $-1 0 44.488949164080864 0 0 -1 0 0 0 -1 forward_v I I I I #
coedge $-1 $342 $257 $260 $343 forward $161 $-1 #
coedge $-1 $263 $163 $164 $251 reversed $101 $-1 #
coedge $-1 $257 $342 $163 $249 reversed $161 $-1 #
edge $-1 $264 -20.750828750093493 $344 20.750828750093493 $248 $345 forward 7 unknown #
coedge $-1 $165 $164 $342 $346 forward $65 $-1 #
edge $-1 $255 -67.608264412366097 $344 67.608264412366097 $247 $347 forward 7 unknown #
coedge $-1 $260 $259 $165 $253 reversed $244 $-1 #
edge $-1 $348 -67.608264412366097 $254 67.608264412366097 $252 $349 forward 7 unknown #
vertex $-1 $167 $350 #
vertex $-1 $266 $351 #
straight-curve $-1 67.608264412366097 0 -20.750828750093493 0 -1 0 I I #
coedge $-1 $246 $248 $168 $258 reversed $161 $-1 #
edge $-1 $261 -44.488949164080864 $264 44.488949164080864 $257 $352 forward 7 unknown #
coedge $-1 $252 $169 $174 $267 forward $244 $-1 #
coedge $-1 $169 $252 $246 $343 reversed $244 $-1 #
vertex $-1 $170 $353 #
straight-curve $-1 0 44.488949164080864 20.750828750093493 -1 0 0 I I #
coedge $-1 $171 $247 $173 $266 reversed $101 $-1 #
vertex $-1 $258 $354 #
straight-curve $-1 0 -44.488949164080864 20.750828750093493 1 0 0 I I #
edge $-1 $176 -20.750828750093493 $255 20.750828750093493 $173 $355 forward 7 unknown #
edge $-1 $177 -20.750828750093493 $254 20.750828750093493 $174 $356 forward 7 unknown #
point $-1 67.608264412366097 -44.488949164080864 20.750828750093493 #
point $-1 67.608264412366097 44.488949164080864 20.750828750093493 #
face $-1 $-1 $284 $25 $-1 $357 reversed single #
loop $-1 $-1 $358 $179 #
plane-surface $-1 0 -67.732967791881137 -17.13610492970534 0 1 0 0 0 1 forward_v I I I I #
coedge $-1 $359 $182 $191 $288 reversed $109 $-1 #
coedge $-1 $182 $359 $183 $276 reversed $109 $-1 #
coedge $-1 $184 $183 $360 $361 forward $69 $-1 #
edge $-1 $280 44.488949164080864 $362 67.732967791881137 $274 $363 forward 7 unknown #
coedge $-1 $364 $188 $184 $278 reversed $284 $-1 #
edge $-1 $365 -67.732967791881137 $279 -44.488949164080864 $277 $366 forward 7 unknown #
vertex $-1 $189 $367 #
vertex $-1 $276 $368 #
straight-curve $-1 0 -44.488949164080864 -20.750828750093493 1 0 0 I I #
straight-curve $-1 67.608264412366097 -44.488949164080864 0 0 0 1 I I #
coedge $-1 $188 $364 $190 $287 reversed $284 $-1 #
loop $-1 $-1 $188 $270 #
straight-curve $-1 -67.608264412366097 -44.488949164080864 0 0 0 -1 I I #
coedge $-1 $191 $190 $369 $370 forward $180 $-1 #
edge $-1 $192 -11.622009313900136 $371 11.622009313900136 $283 $372 forward 7 unknown #
edge $-1 $373 -11.622009313900136 $193 11.622009313900136 $273 $374 forward 7 unknown #
point $-1 -67.608264412366097 -44.488949164080864 -13.521381109317186 #
point $-1 67.608264412366097 -44.488949164080864 -13.521381109317186 #
plane-surface $-1 0 0 20.750828750093493 0 0 1 1 0 0 forward_v I I I I #
coedge $-1 $302 $301 $294 $375 forward $196 $-1 #
coedge $-1 $294 $198 $200 $298 reversed $117 $-1 #
coedge $-1 $198 $293 $292 $375 reversed $117 $-1 #
coedge $-1 $206 $201 $198 $296 forward $207 $-1 #
edge $-1 $299 25.846993143288884 $376 40.473723750041358 $295 $377 forward 7 unknown #
coedge $-1 $200 $199 $302 $378 reversed $73 $-1 #
edge $-1 $379 -135.21652882473225 $299 -115.835920542476 $293 $380 forward 7 unknown #
vertex $-1 $202 $381 #
straight-curve $-1 52.981533805613608 11.221263912726236 20.750828750093497 0 -1 0 I I #
coedge $-1 $292 $203 $206 $306 reversed $196 $-1 #
coedge $-1 $203 $292 $297 $378 forward $196 $-1 #
vertex $-1 $204 $382 #
straight-curve $-1 67.608264412366097 31.871900103952001 99.397619999147452 0 0 1 I I #
straight-curve $-1 -34.440944358355281 31.871900103952001 96.746031227573553 0.75470957328743171 0 -0.6560590369687036 I I #
edge $-1 $376 13.013155546952945 $208 31.871900103952001 $301 $383 forward 7 unknown #
point $-1 67.608264412366097 31.871900103952001 20.750828750093493 #
point $-1 52.981533805613623 31.871900103952001 20.75082875009349 #
edge $-1 $384 1 $384 0 $211 $-1 forward 7 unknown #
vertex $-1 $212 $385 #
ellipse-curve $-1 57.013302497790491 18.401368277524099 10.618372161161833 0.6560590369687036 0 0.75470957328743171 1.8867739332185793 0 -1.640147592421759 1 I I #
point $-1 62.181673042208466 18.401368277524099 12.753269554909393 #
edge $-1 $386 1 $386 0 $215 $-1 forward 7 unknown #
vertex $-1 $216 $387 #
ellipse-curve $-1 57.013302497790491 26.483687373380832 10.618372161161833 0.6560590369687036 0 0.75470957328743171 1.8867739332185793 0 -1.640147592421759 1 I I #
point $-1 62.181673042208466 26.483687373380832 12.753269554909393 #
plane-surface $-1 0 0 20.750828750093493 0 0 1 1 0 0 forward_v I I I I #
coedge $-1 $227 $388 $322 $389 forward $220 $-1 #
coedge $-1 $320 $222 $388 $390 reversed $139 $-1 #
coedge $-1 $222 $319 $323 $391 reversed $139 $-1 #
edge $-1 $324 -3.3823445306128823 $392 21.886476844847277 $222 $393 forward 7 unknown #
coedge $-1 $224 $223 $318 $389 reversed $87 $-1 #
coedge $-1 $230 $225 $320 $391 forward $231 $-1 #
vertex $-1 $391 $394 #
straight-curve $-1 -50.700122875833202 20.208032288549134 20.750828750093493 0 1 0 I I #
coedge $-1 $388 $227 $230 $330 reversed $220 $-1 #
vertex $-1 $228 $395 #
straight-curve $-1 -67.608264412366097 36.343179990115672 46.224975684185516 0 0 1 I I #
straight-curve $-1 -67.608264412366111 36.343179990115672 1.9724346897515943 -0.66913059716165679 0 -0.74314483375859142 I I #
edge $-1 $396 -44.488949164080864 $232 -36.343179990115672 $326 $397 forward 7 unknown #
point $-1 -67.608264412366097 36.343179990115672 20.750828750093493 #
point $-1 -50.700122875833202 36.343179990115672 20.750828750093493 #
edge $-1 $398 1 $398 0 $235 $-1 forward 7 unknown #
vertex $-1 $236 $399 #
ellipse-curve $-1 -58.180373859806707 38.670542611248592 10.484800469550908 -0.74314483375859142 0 0.66913059716165679 0.3345652985808284 0 0.37157241687929571 1 I I #
point $-1 -58.819628345518808 38.670542611248592 11.733204136801834 #
edge $-1 $400 1 $400 0 $239 $-1 forward 7 unknown #
vertex $-1 $240 $401 #
ellipse-curve $-1 -58.180373859806707 42.161586542947958 10.484800469550908 -0.74314483375859142 0 0.66913059716165679 0.3345652985808284 0 0.37157241687929571 1 I I #
point $-1 -58.819628345518808 42.161586542947958 11.733204136801834 #
plane-surface $-1 67.608264412366097 0 0 -1 0 0 0 0 1 forward_v I I I I #
coedge $-1 $248 $246 $250 $346 reversed $161 $-1 #
edge $-1 $261 -20.750828750093493 $348 20.750828750093493 $260 $402 forward 7 unknown #
vertex $-1 $346 $403 #
straight-curve $-1 -67.608264412366097 -44.488949164080864 0 0 0 -1 I I #
edge $-1 $344 -44.488949164080864 $348 44.488949164080864 $342 $404 forward 7 unknown #
straight-curve $-1 0 -44.488949164080864 -20.750828750093493 -1 0 0 I I #
vertex $-1 $253 $405 #
straight-curve $-1 0 44.488949164080864 -20.750828750093493 1 0 0 I I #
point $-1 67.608264412366097 44.488949164080864 -20.750828750093493 #
point $-1 67.608264412366097 -44.488949164080864 -20.750828750093493 #
straight-curve $-1 -67.608264412366097 0 20.750828750093493 0 -1 0 I I #
point $-1 -67.608264412366097 44.488949164080864 20.750828750093493 #
point $-1 -67.608264412366097 -44.488949164080864 20.750828750093493 #
straight-curve $-1 67.608264412366097 -44.488949164080864 0 0 0 -1 I I #
straight-curve $-1 67.608264412366097 44.488949164080864 0 0 0 -1 I I #
plane-surface $-1 -67.608264412366097 0 0 1 0 0 0 0 -1 forward_v I I I I #
coedge $-1 $360 $369 $364 $406 forward $271 $-1 #
coedge $-1 $274 $273 $407 $408 forward $109 $-1 #
coedge $-1 $407 $358 $275 $361 reversed $271 $-1 #
edge $-1 $362 -67.608264412366097 $365 67.608264412366097 $360 $409 forward 7 unknown #
vertex $-1 $408 $410 #
straight-curve $-1 67.608264412366097 0 -20.750828750093493 0 -1 0 I I #
coedge $-1 $283 $277 $358 $406 reversed $284 $-1 #
vertex $-1 $278 $411 #
straight-curve $-1 -67.608264412366097 0 -20.750828750093493 0 1 0 I I #
point $-1 -67.608264412366097 -44.488949164080864 -20.750828750093493 #
point $-1 67.608264412366097 -44.488949164080864 -20.750828750093493 #
coedge $-1 $358 $407 $286 $370 reversed $271 $-1 #
edge $-1 $371 -67.608264412366097 $373 67.608264412366097 $369 $412 forward 7 unknown #
vertex $-1 $287 $413 #
straight-curve $-1 -67.608264412366097 -56.110958477981001 -13.521381109317186 0 -1 0 I I #
vertex $-1 $288 $414 #
straight-curve $-1 67.608264412366097 -56.110958477981001 -13.521381109317186 0 1 0 I I #
edge $-1 $376 78.646791249053962 $379 91.361614454578685 $292 $415 forward 7 unknown #
vertex $-1 $306 $416 #
straight-curve $-1 27.134540662324738 13.013155546952945 20.75082875009349 1 0 0 I I #
edge $-1 $379 1.7918916342267082 $303 20.650636191225765 $302 $417 forward 7 unknown #
vertex $-1 $378 $418 #
straight-curve $-1 -34.440944358355281 13.013155546952945 96.746031227573553 -0.75470957328743171 0 0.6560590369687036 I I #
point $-1 52.981533805613623 13.013155546952945 20.75082875009349 #
point $-1 67.608264412366111 31.871900103952001 8.0360055445687664 #
straight-curve $-1 67.608264412366097 0 20.750828750093493 0 1 0 I I #
vertex $-1 $309 $419 #
point $-1 58.900076431009069 18.401368277524099 8.9782245687400746 #
vertex $-1 $313 $420 #
point $-1 58.900076431009069 26.483687373380832 8.9782245687400746 #
coedge $-1 $318 $326 $319 $390 forward $220 $-1 #
edge $-1 $392 -24.28091687553173 $327 -16.135147701566538 $318 $421 forward 7 unknown #
edge $-1 $396 -20.750828750093493 $392 -1.9724346897516101 $319 $422 forward 7 unknown #
edge $-1 $324 50.700122875833202 $396 67.608264412366097 $320 $423 forward 7 unknown #
vertex $-1 $321 $424 #
straight-curve $-1 -52.963353091408663 44.488949164080864 18.237256886176901 -0.66913059716165679 0 -0.74314483375859142 I I #
point $-1 -50.700122875833202 44.488949164080864 20.750828750093493 #
point $-1 -67.608264412366097 36.343179990115672 1.9724346897516101 #
vertex $-1 $391 $425 #
straight-curve $-1 -67.608264412366097 0 20.750828750093493 0 -1 0 I I #
vertex $-1 $333 $426 #
point $-1 -57.84580856122588 38.670542611248592 10.856372886430204 #
vertex $-1 $337 $427 #
point $-1 -57.84580856122588 42.161586542947958 10.856372886430204 #
straight-curve $-1 -67.608264412366097 44.488949164080864 0 0 0 -1 I I #
point $-1 -67.608264412366097 -44.488949164080864 -20.750828750093493 #
straight-curve $-1 -67.608264412366097 0 -20.750828750093493 0 1 0 I I #
point $-1 -67.608264412366097 44.488949164080864 -20.750828750093493 #
edge $-1 $371 -3.6147238203881535 $365 3.6147238203881535 $364 $428 forward 7 unknown #
coedge $-1 $369 $360 $359 $408 reversed $271 $-1 #
edge $-1 $373 -3.6147238203881535 $362 3.6147238203881535 $359 $429 forward 7 unknown #
straight-curve $-1 0 -67.732967791881137 -20.750828750093493 -1 0 0 I I #
point $-1 67.608264412366097 -67.732967791881137 -20.750828750093493 #
point $-1 -67.608264412366097 -67.732967791881137 -20.750828750093493 #
straight-curve $-1 0 -67.732967791881137 -13.521381109317186 1 0 0 I I #
point $-1 -67.608264412366097 -67.732967791881137 -13.521381109317186 #
point $-1 67.608264412366097 -67.732967791881137 -13.521381109317186 #
straight-curve $-1 67.608264412366097 13.013155546952945 99.397619999147452 0 0 -1 I I #
point $-1 67.608264412366097 13.013155546952945 20.750828750093493 #
straight-curve $-1 67.608264412366097 11.221263912726236 8.0360055445687735 0 1 0 I I #
point $-1 67.608264412366111 13.013155546952945 8.0360055445687664 #
point $-1 55.373154905368736 18.401368277524099 8.7315982279432554 #
point $-1 55.373154905368736 26.483687373380832 8.7315982279432554 #
straight-curve $-1 -67.608264412366097 20.208032288549134 1.9724346897516234 0 -1 0 I I #
straight-curve $-1 -67.608264412366097 44.488949164080864 0 0 0 -1 I I #
straight-curve $-1 0 44.488949164080864 20.750828750093493 -1 0 0 I I #
point $-1 -67.608264412366097 44.488949164080864 1.9724346897516101 #
point $-1 -67.608264412366097 44.488949164080864 20.750828750093493 #
point $-1 -57.808801442927418 38.670542611248592 10.150235170970081 #
point $-1 -57.808801442927418 42.161586542947958 10.150235170970081 #
straight-curve $-1 -67.608264412366097 -67.732967791881137 -17.13610492970534 0 0 -1 I I #
straight-curve $-1 67.608264412366097 -67.732967791881137 -17.13610492970534 0 0 -1 I I #
End-of-ACIS-data 