500 0 8 0           
7 Unknown 11 ACIS 5.0 NT 24 Thu Mar 25 18:32:01 1999 
-1 9.9999999999999995e-007 1e-010 
body $-1 $8 $-1 $9 #
body $-1 $10 $-1 $11 #
body $-1 $12 $-1 $13 #
body $-1 $14 $-1 $15 #
body $-1 $16 $-1 $17 #
body $-1 $18 $-1 $19 #
body $-1 $20 $-1 $21 #
body $-1 $22 $-1 $23 #
lump $-1 $-1 $24 $0 #
transform $-1 1 0 0 0 1 0 0 0 1 58.025452436902981 32.302611943030435 7.3634418587626946 1 rotate no_reflect no_shear #
lump $-1 $-1 $25 $1 #
transform $-1 1 0 0 0 1 0 0 0 1 58.025452436902981 32.302611943030435 7.3634418587626946 1 rotate no_reflect no_shear #
lump $-1 $-1 $26 $2 #
transform $-1 1 0 0 0 1 0 0 0 1 58.025452436902981 32.302611943030435 7.3634418587626946 1 rotate no_reflect no_shear #
lump $-1 $-1 $27 $3 #
transform $-1 1 0 0 0 1 0 0 0 1 58.025452436902981 32.302611943030435 7.3634418587626946 1 rotate no_reflect no_shear #
lump $-1 $-1 $28 $4 #
transform $-1 1 0 0 0 1 0 0 0 1 58.025452436902981 32.302611943030435 7.3634418587626946 1 rotate no_reflect no_shear #
lump $-1 $-1 $29 $5 #
transform $-1 1 0 0 0 1 0 0 0 1 58.025452436902981 32.302611943030435 7.3634418587626946 1 rotate no_reflect no_shear #
lump $-1 $-1 $30 $6 #
transform $-1 1 0 0 0 1 0 0 0 1 58.025452436902981 32.302611943030435 7.3634418587626946 1 rotate no_reflect no_shear #
lump $-1 $-1 $31 $7 #
transform $-1 1 0 0 0 1 0 0 0 1 58.025452436902981 32.302611943030435 7.3634418587626946 1 rotate no_reflect no_shear #
shell $-1 $-1 $-1 $32 $-1 $8 #
shell $-1 $-1 $-1 $33 $-1 $10 #
shell $-1 $-1 $-1 $34 $-1 $12 #
shell $-1 $-1 $-1 $35 $-1 $14 #
shell $-1 $-1 $-1 $36 $-1 $16 #
shell $-1 $-1 $-1 $37 $-1 $18 #
shell $-1 $-1 $-1 $38 $-1 $20 #
shell $-1 $-1 $-1 $39 $-1 $22 #
face $-1 $40 $41 $24 $-1 $42 forward single #
face $-1 $43 $44 $25 $-1 $45 forward single #
face $-1 $46 $47 $26 $-1 $48 reversed single #
face $-1 $49 $50 $27 $-1 $51 forward single #
face $-1 $52 $53 $28 $-1 $54 forward single #
face $-1 $55 $56 $29 $-1 $57 reversed single #
face $-1 $58 $59 $30 $-1 $60 forward single #
face $-1 $61 $62 $31 $-1 $63 forward single #
face $-1 $64 $65 $24 $-1 $66 reversed single #
loop $-1 $-1 $67 $32 #
plane-surface $-1 0 0 7.3634418587626946 0 0 1 1 0 0 forward_v I I I I #
face $-1 $68 $69 $25 $-1 $70 reversed single #
loop $-1 $-1 $71 $33 #
plane-surface $-1 0 -28.928941177973272 3.9832160539472676 0 0 1 1 0 0 forward_v I I I I #
face $-1 $72 $73 $26 $-1 $74 reversed single #
loop $-1 $-1 $75 $34 #
plane-surface $-1 -42.477578867155422 -19.497305078109697 61.991927997008858 0.50000000669873634 0 0.8660253999169214 0.8660253999169214 0 -0.50000000669873634 forward_v I I I I #
face $-1 $76 $77 $27 $-1 $78 forward single #
loop $-1 $79 $80 $35 #
cone-surface $-1 54.75829209409801 -22.093575935883873 5.1015211436448968 -0.50000000669873634 0 -0.8660253999169214 0.4330126999584607 0 -0.25000000334936817 1 I I 0 1 0.5 forward I I I I #
face $-1 $81 $82 $28 $-1 $83 forward single #
loop $-1 $84 $85 $36 #
cone-surface $-1 54.75829209409801 -16.901034220335525 5.1015211436448968 -0.50000000669873634 0 -0.8660253999169214 0.4330126999584607 0 -0.25000000334936817 1 I I 0 1 0.5 forward I I I I #
face $-1 $86 $87 $29 $-1 $88 reversed single #
loop $-1 $-1 $89 $37 #
plane-surface $-1 -137.17198018559861 23.273588530066625 87.622532555730132 0 1 0 -0.68199836817093118 0 0.7313536940579346 forward_v I I I I #
face $-1 $90 $91 $30 $-1 $92 forward single #
loop $-1 $93 $94 $38 #
cone-surface $-1 -54.311600603758656 25.853309505199142 3.726902379188219 0.68199836817093118 0 -0.7313536940579346 0.7313536940579346 0 0.68199836817093118 1 I I 0 1 1 forward I I I I #
face $-1 $95 $96 $31 $-1 $97 forward single #
loop $-1 $98 $99 $39 #
cone-surface $-1 -54.311600603758656 29.722890967897918 3.726902379188219 0.68199836817093118 0 -0.7313536940579346 0.7313536940579346 0 0.68199836817093118 1 I I 0 1 1 forward I I I I #
face $-1 $100 $101 $24 $-1 $102 reversed single #
loop $-1 $-1 $103 $40 #
plane-surface $-1 0 0 -7.3634418587626946 0 0 1 1 0 0 forward_v I I I I #
coedge $-1 $104 $105 $106 $107 forward $41 $-1 #
face $-1 $108 $109 $25 $-1 $110 reversed single #
loop $-1 $-1 $111 $43 #
plane-surface $-1 0 -28.928941177973272 0.64552091702723313 0 0 1 1 0 0 forward_v I I I I #
coedge $-1 $112 $113 $114 $115 reversed $44 $-1 #
face $-1 $116 $117 $26 $-1 $118 reversed single #
loop $-1 $-1 $119 $46 #
plane-surface $-1 15.54787434714197 -13.439339743303291 162.49495930106727 0 -1 0 -0.50000000669873634 0 -0.8660253999169214 forward_v I I I I #
coedge $-1 $120 $121 $122 $123 reversed $47 $-1 #
face $-1 $-1 $124 $27 $-1 $125 forward single #
loop $-1 $126 $127 $49 #
cone-surface $-1 54.307991480746779 -22.093575935883873 4.3215776165735029 -0.50000000669873634 0 -0.8660253999169214 0.21650634997923035 0 -0.12500000167468409 1 I I -0.70710678118654746 0.70710678118654746 0.25 forward I I I I #
loop $-1 $-1 $128 $35 #
coedge $-1 $80 $80 $129 $130 reversed $50 $-1 #
face $-1 $-1 $131 $28 $-1 $132 forward single #
loop $-1 $133 $134 $52 #
cone-surface $-1 54.307991480746779 -16.901034220335525 4.3215776165735029 -0.50000000669873634 0 -0.8660253999169214 0.21650634997923035 0 -0.12500000167468409 1 I I -0.70710678118654746 0.70710678118654746 0.25 forward I I I I #
loop $-1 $-1 $135 $36 #
coedge $-1 $85 $85 $136 $137 reversed $53 $-1 #
face $-1 $138 $139 $29 $-1 $140 reversed single #
loop $-1 $-1 $141 $55 #
plane-surface $-1 -58.025452436902981 27.78810023654853 2.7482745775061801 -0.68199836817093118 0 0.7313536940579346 0.7313536940579346 0 0.68199836817093118 forward_v I I I I #
coedge $-1 $142 $143 $144 $145 reversed $56 $-1 #
face $-1 $-1 $146 $30 $-1 $147 forward single #
loop $-1 $148 $149 $58 #
cone-surface $-1 -52.7313300234987 25.853309505199142 2.0322696932130402 0.68199836817093118 0 -0.7313536940579346 0.3656768470289673 0 0.34099918408546559 1 I I -0.70710678118654746 0.70710678118654746 0.5 forward I I I I #
loop $-1 $-1 $150 $38 #
coedge $-1 $94 $94 $151 $152 reversed $59 $-1 #
face $-1 $-1 $153 $31 $-1 $154 forward single #
loop $-1 $155 $156 $61 #
cone-surface $-1 -52.7313300234987 29.722890967897918 2.0322696932130402 0.68199836817093118 0 -0.7313536940579346 0.3656768470289673 0 0.34099918408546559 1 I I -0.70710678118654746 0.70710678118654746 0.5 forward I I I I #
loop $-1 $-1 $157 $39 #
coedge $-1 $99 $99 $158 $159 reversed $62 $-1 #
face $-1 $160 $161 $24 $-1 $162 reversed single #
loop $-1 $-1 $163 $64 #
plane-surface $-1 0 -32.302611943030435 0 0 1 0 0 0 1 forward_v I I I I #
coedge $-1 $164 $165 $166 $167 forward $65 $-1 #
coedge $-1 $168 $67 $169 $170 forward $41 $-1 #
coedge $-1 $67 $168 $171 $172 forward $41 $-1 #
coedge $-1 $173 $174 $67 $107 reversed $175 $-1 #
edge $-1 $176 -32.302611943030435 $177 32.302611943030435 $106 $178 forward 7 unknown #
face $-1 $179 $180 $25 $-1 $181 reversed single #
loop $-1 $-1 $182 $68 #
plane-surface $-1 0 -25.555270412916109 2.3143684854872504 0 -1 0 0 0 -1 forward_v I I I I #
coedge $-1 $183 $184 $185 $186 reversed $69 $-1 #
coedge $-1 $187 $71 $188 $189 forward $44 $-1 #
coedge $-1 $71 $187 $190 $191 reversed $44 $-1 #
coedge $-1 $192 $193 $71 $115 forward $194 $-1 #
edge $-1 $195 11.090799823929473 $196 17.838141354043799 $114 $197 forward 7 unknown #
face $-1 $198 $199 $26 $-1 $200 forward single #
loop $-1 $-1 $201 $72 #
plane-surface $-1 58.025452436902981 0 0 -1 0 0 0 0 1 forward_v I I I I #
coedge $-1 $202 $203 $204 $205 reversed $73 $-1 #
coedge $-1 $206 $75 $207 $208 reversed $47 $-1 #
coedge $-1 $75 $206 $202 $209 forward $47 $-1 #
coedge $-1 $204 $201 $75 $123 forward $117 $-1 #
edge $-1 $210 -15.80661787386126 $211 -3.6906872042484427 $122 $212 forward 7 unknown #
loop $-1 $-1 $129 $76 #
plane-surface $-1 -42.477578867155422 -19.497305078109697 61.991927997008858 0.50000000669873634 0 0.8660253999169214 0.8660253999169214 0 -0.50000000669873634 forward_v I I I I #
loop $-1 $-1 $213 $49 #
coedge $-1 $127 $127 $128 $214 reversed $77 $-1 #
coedge $-1 $128 $128 $127 $214 forward $79 $-1 #
coedge $-1 $129 $129 $80 $130 forward $124 $-1 #
edge $-1 $215 0 $215 6.2831853071796004 $129 $216 forward 7 unknown #
loop $-1 $-1 $136 $81 #
plane-surface $-1 -42.477578867155422 -19.497305078109697 61.991927997008858 0.50000000669873634 0 0.8660253999169214 0.8660253999169214 0 -0.50000000669873634 forward_v I I I I #
loop $-1 $-1 $217 $52 #
coedge $-1 $134 $134 $135 $218 reversed $82 $-1 #
coedge $-1 $135 $135 $134 $218 forward $84 $-1 #
coedge $-1 $136 $136 $85 $137 forward $131 $-1 #
edge $-1 $219 0 $219 6.2831853071796004 $136 $220 forward 7 unknown #
face $-1 $221 $222 $29 $-1 $223 reversed single #
loop $-1 $-1 $224 $86 #
plane-surface $-1 0 32.302611943030435 0 0 -1 0 0 0 -1 forward_v I I I I #
coedge $-1 $225 $226 $227 $228 reversed $87 $-1 #
coedge $-1 $143 $89 $229 $230 reversed $56 $-1 #
coedge $-1 $89 $142 $225 $231 reversed $56 $-1 #
coedge $-1 $227 $232 $89 $145 forward $233 $-1 #
edge $-1 $234 10.560537655896326 $235 15.509698529835987 $144 $236 forward 7 unknown #
loop $-1 $-1 $151 $90 #
plane-surface $-1 -58.025452436902981 27.78810023654853 2.7482745775061801 -0.68199836817093118 0 0.7313536940579346 0.7313536940579346 0 0.68199836817093118 forward_v I I I I #
loop $-1 $-1 $237 $58 #
coedge $-1 $149 $149 $150 $238 reversed $91 $-1 #
coedge $-1 $150 $150 $149 $238 forward $93 $-1 #
coedge $-1 $151 $151 $94 $152 forward $146 $-1 #
edge $-1 $239 0 $239 6.2831853071796004 $151 $240 forward 7 unknown #
loop $-1 $-1 $158 $95 #
plane-surface $-1 -58.025452436902981 27.78810023654853 2.7482745775061801 -0.68199836817093118 0 0.7313536940579346 0.7313536940579346 0 0.68199836817093118 forward_v I I I I #
loop $-1 $-1 $241 $61 #
coedge $-1 $156 $156 $157 $242 reversed $96 $-1 #
coedge $-1 $157 $157 $156 $242 forward $98 $-1 #
coedge $-1 $158 $158 $99 $159 forward $153 $-1 #
edge $-1 $243 0 $243 6.2831853071796004 $158 $244 forward 7 unknown #
face $-1 $245 $246 $24 $-1 $247 reversed single #
loop $-1 $-1 $248 $100 #
plane-surface $-1 -58.025452436902981 0 0 1 0 0 0 0 -1 forward_v I I I I #
coedge $-1 $249 $171 $250 $251 forward $101 $-1 #
coedge $-1 $252 $103 $249 $253 forward $65 $-1 #
coedge $-1 $103 $252 $254 $255 forward $65 $-1 #
coedge $-1 $174 $173 $103 $167 reversed $175 $-1 #
edge $-1 $256 -32.302611943030435 $257 32.302611943030435 $166 $258 forward 7 unknown #
coedge $-1 $105 $104 $259 $260 forward $41 $-1 #
coedge $-1 $261 $262 $104 $170 reversed $246 $-1 #
edge $-1 $177 -58.025452436902981 $263 58.025452436902981 $169 $264 forward 7 unknown #
coedge $-1 $163 $265 $105 $172 reversed $101 $-1 #
edge $-1 $266 -58.025452436902981 $176 58.025452436902981 $171 $267 forward 7 unknown #
coedge $-1 $166 $106 $265 $268 forward $175 $-1 #
coedge $-1 $106 $166 $261 $269 reversed $175 $-1 #
loop $-1 $-1 $173 $245 #
vertex $-1 $107 $270 #
vertex $-1 $107 $271 #
straight-curve $-1 58.025452436902981 0 7.3634418587626946 0 1 0 I I #
face $-1 $272 $273 $25 $-1 $274 reversed single #
loop $-1 $-1 $275 $108 #
plane-surface $-1 -58.025452436902981 0 0 1 0 0 0 0 -1 forward_v I I I I #
coedge $-1 $276 $188 $193 $277 reversed $109 $-1 #
coedge $-1 $278 $111 $279 $280 reversed $69 $-1 #
coedge $-1 $111 $278 $276 $281 forward $69 $-1 #
coedge $-1 $193 $192 $111 $186 forward $194 $-1 #
edge $-1 $282 -17.838141354043799 $283 -11.090799823929473 $185 $284 forward 7 unknown #
coedge $-1 $113 $112 $275 $285 reversed $44 $-1 #
coedge $-1 $182 $286 $112 $189 reversed $109 $-1 #
edge $-1 $195 -58.025452436902981 $287 58.025452436902981 $188 $288 forward 7 unknown #
coedge $-1 $289 $290 $113 $191 forward $273 $-1 #
edge $-1 $196 -58.025452436902981 $291 58.025452436902981 $190 $292 forward 7 unknown #
coedge $-1 $185 $114 $290 $293 forward $194 $-1 #
coedge $-1 $114 $185 $182 $277 forward $194 $-1 #
loop $-1 $-1 $114 $272 #
vertex $-1 $115 $294 #
vertex $-1 $293 $295 #
straight-curve $-1 58.025452436902981 -14.464470588986636 3.9832160539472676 0 -1 0 I I #
face $-1 $-1 $296 $26 $-1 $297 forward single #
loop $-1 $-1 $207 $116 #
plane-surface $-1 0 -25.555270412916109 2.3143684854872504 0 -1 0 0 0 -1 forward_v I I I I #
coedge $-1 $122 $298 $299 $300 forward $117 $-1 #
coedge $-1 $203 $119 $121 $209 reversed $73 $-1 #
coedge $-1 $119 $202 $301 $302 reversed $73 $-1 #
coedge $-1 $298 $122 $119 $205 forward $117 $-1 #
edge $-1 $211 -77.281004867822162 $303 -73.884037791770936 $204 $304 forward 7 unknown #
coedge $-1 $121 $120 $305 $306 reversed $47 $-1 #
coedge $-1 $299 $307 $120 $208 forward $199 $-1 #
edge $-1 $308 75.944249621997102 $210 82.738183683078006 $207 $309 forward 7 unknown #
edge $-1 $310 109.25697081272506 $211 116.05090487380595 $202 $311 forward 7 unknown #
vertex $-1 $208 $312 #
vertex $-1 $123 $313 #
straight-curve $-1 58.025452436902981 -9.7486525390548486 3.9664747827114688 0 1 0 I I #
coedge $-1 $213 $213 $-1 $314 reversed $126 $-1 #
edge $-1 $315 0 $315 6.2831853071796004 $127 $316 forward 7 unknown #
vertex $-1 $130 $317 #
ellipse-curve $-1 55.083592705774571 -22.093575935883873 5.6649583207370933 0.50000000669873634 0 0.8660253999169214 0.4330126999584607 0 -0.25000000334936817 1 I I #
coedge $-1 $217 $217 $-1 $318 reversed $133 $-1 #
edge $-1 $319 0 $319 6.2831853071796004 $134 $320 forward 7 unknown #
vertex $-1 $137 $321 #
ellipse-curve $-1 55.083592705774571 -16.901034220335525 5.6649583207370933 0.50000000669873634 0 0.8660253999169214 0.4330126999584607 0 -0.25000000334936817 1 I I #
face $-1 $-1 $233 $29 $-1 $322 forward single #
loop $-1 $-1 $323 $138 #
plane-surface $-1 -58.025452436902981 0 0 1 0 0 0 0 -1 forward_v I I I I #
coedge $-1 $324 $325 $226 $326 forward $139 $-1 #
coedge $-1 $327 $141 $143 $231 forward $87 $-1 #
coedge $-1 $141 $327 $224 $326 reversed $87 $-1 #
coedge $-1 $328 $144 $141 $228 forward $233 $-1 #
edge $-1 $235 9.3795384117923604 $329 18.40856182475617 $227 $330 forward 7 unknown #
coedge $-1 $331 $323 $142 $230 forward $222 $-1 #
edge $-1 $332 -41.062991700358886 $234 -36.447824419102375 $229 $333 forward 7 unknown #
edge $-1 $235 -6.7671236422955827 $332 0 $143 $334 forward 7 unknown #
coedge $-1 $144 $328 $331 $335 forward $233 $-1 #
loop $-1 $-1 $227 $221 #
vertex $-1 $230 $336 #
vertex $-1 $145 $337 #
straight-curve $-1 -68.585990092799307 23.273588530066625 7.3634418587626982 1 0 0 I I #
coedge $-1 $237 $237 $-1 $338 reversed $148 $-1 #
edge $-1 $339 0 $339 6.2831853071796004 $149 $340 forward 7 unknown #
vertex $-1 $152 $341 #
ellipse-curve $-1 -55.55087199993315 25.853309505199142 5.0558582181344374 -0.68199836817093118 0 0.7313536940579346 0.7313536940579346 0 0.68199836817093118 1 I I #
coedge $-1 $241 $241 $-1 $342 reversed $155 $-1 #
edge $-1 $343 0 $343 6.2831853071796004 $156 $344 forward 7 unknown #
vertex $-1 $159 $345 #
ellipse-curve $-1 -55.55087199993315 29.722890967897918 5.0558582181344374 -0.68199836817093118 0 0.7313536940579346 0.7313536940579346 0 0.68199836817093118 1 I I #
face $-1 $-1 $175 $24 $-1 $346 reversed single #
loop $-1 $-1 $261 $160 #
plane-surface $-1 0 32.302611943030435 0 0 -1 0 0 0 -1 forward_v I I I I #
coedge $-1 $347 $259 $262 $348 forward $161 $-1 #
coedge $-1 $265 $163 $164 $253 reversed $101 $-1 #
coedge $-1 $259 $347 $163 $251 reversed $161 $-1 #
edge $-1 $266 -7.3634418587626946 $349 7.3634418587626946 $250 $350 forward 7 unknown #
coedge $-1 $165 $164 $347 $351 forward $65 $-1 #
edge $-1 $257 -58.025452436902981 $349 58.025452436902981 $249 $352 forward 7 unknown #
coedge $-1 $262 $261 $165 $255 reversed $246 $-1 #
edge $-1 $353 -58.025452436902981 $256 58.025452436902981 $254 $354 forward 7 unknown #
vertex $-1 $167 $355 #
vertex $-1 $268 $356 #
straight-curve $-1 58.025452436902981 0 -7.3634418587626946 0 -1 0 I I #
coedge $-1 $248 $250 $168 $260 reversed $161 $-1 #
edge $-1 $263 -32.302611943030435 $266 32.302611943030435 $259 $357 forward 7 unknown #
coedge $-1 $254 $169 $174 $269 forward $246 $-1 #
coedge $-1 $169 $254 $248 $348 reversed $246 $-1 #
vertex $-1 $170 $358 #
straight-curve $-1 0 32.302611943030435 7.3634418587626946 -1 0 0 I I #
coedge $-1 $171 $249 $173 $268 reversed $101 $-1 #
vertex $-1 $260 $359 #
straight-curve $-1 0 -32.302611943030435 7.3634418587626946 1 0 0 I I #
edge $-1 $176 -7.3634418587626946 $257 7.3634418587626946 $173 $360 forward 7 unknown #
edge $-1 $177 -7.3634418587626946 $256 7.3634418587626946 $174 $361 forward 7 unknown #
point $-1 58.025452436902981 -32.302611943030435 7.3634418587626946 #
point $-1 58.025452436902981 32.302611943030435 7.3634418587626946 #
face $-1 $-1 $194 $25 $-1 $362 reversed single #
loop $-1 $-1 $190 $179 #
plane-surface $-1 0 -32.302611943030435 0 0 1 0 0 0 1 forward_v I I I I #
coedge $-1 $363 $364 $187 $285 forward $180 $-1 #
coedge $-1 $286 $182 $184 $281 reversed $109 $-1 #
edge $-1 $283 -0.51166332571639206 $195 2.8260318112036424 $193 $365 forward 7 unknown #
coedge $-1 $184 $183 $366 $367 reversed $69 $-1 #
coedge $-1 $290 $289 $183 $280 forward $273 $-1 #
edge $-1 $368 -58.025452436902981 $282 58.025452436902981 $279 $369 forward 7 unknown #
edge $-1 $370 -58.025452436902981 $283 58.025452436902981 $276 $371 forward 7 unknown #
vertex $-1 $280 $372 #
vertex $-1 $186 $373 #
straight-curve $-1 58.025452436902981 -14.464470588986636 0.64552091702723313 0 1 0 I I #
edge $-1 $291 -17.838141354043799 $287 -11.090799823929473 $275 $374 forward 7 unknown #
coedge $-1 $188 $276 $363 $375 reversed $109 $-1 #
vertex $-1 $285 $376 #
straight-curve $-1 0 -25.555270412916109 3.9832160539472676 -1 0 0 I I #
coedge $-1 $279 $190 $364 $377 forward $273 $-1 #
coedge $-1 $190 $279 $192 $293 reversed $273 $-1 #
vertex $-1 $377 $378 #
straight-curve $-1 0 -32.302611943030435 3.9832160539472676 -1 0 0 I I #
edge $-1 $196 -3.9832160539472676 $282 -0.64552091702723313 $192 $379 forward 7 unknown #
point $-1 58.025452436902981 -25.555270412916109 3.9832160539472676 #
point $-1 58.025452436902981 -32.302611943030435 3.9832160539472676 #
loop $-1 $-1 $380 $198 #
plane-surface $-1 0 0 7.3634418587626946 0 0 1 1 0 0 forward_v I I I I #
coedge $-1 $201 $204 $381 $382 reversed $117 $-1 #
coedge $-1 $307 $207 $201 $300 reversed $199 $-1 #
edge $-1 $383 73.884037791770936 $210 77.281004867822162 $201 $384 forward 7 unknown #
coedge $-1 $305 $381 $203 $302 forward $296 $-1 #
edge $-1 $303 -50.251515263331996 $310 -44.367795801075211 $301 $385 forward 7 unknown #
vertex $-1 $205 $386 #
straight-curve $-1 58.025452436902981 -13.439339743303291 81.247479650533634 0 0 1 I I #
coedge $-1 $380 $301 $206 $306 forward $296 $-1 #
edge $-1 $310 3.6906872042484427 $308 15.806617873861253 $305 $387 forward 7 unknown #
coedge $-1 $207 $299 $380 $388 reversed $199 $-1 #
vertex $-1 $388 $389 #
straight-curve $-1 -13.627916175634354 -25.555270412916109 45.33556717849175 0.8660253999169214 0 -0.50000000669873634 I I #
vertex $-1 $306 $390 #
straight-curve $-1 -42.477578867155422 -13.439339743303291 61.991927997008858 0.8660253999169214 0 -0.50000000669873634 I I #
point $-1 58.025452436902981 -25.555270412916109 3.9664747827114732 #
point $-1 58.025452436902974 -13.439339743303291 3.9664747827114724 #
edge $-1 $391 1 $391 0 $213 $-1 forward 7 unknown #
vertex $-1 $214 $392 #
ellipse-curve $-1 54.432991482421464 -22.093575935883873 4.5380839665527333 0.50000000669873634 0 0.8660253999169214 0.4330126999584607 0 -0.25000000334936817 1 I I #
point $-1 55.51660540573301 -22.093575935883873 5.4149583173876925 #
edge $-1 $393 1 $393 0 $217 $-1 forward 7 unknown #
vertex $-1 $218 $394 #
ellipse-curve $-1 54.432991482421464 -16.901034220335525 4.5380839665527333 0.50000000669873634 0 0.8660253999169214 0.4330126999584607 0 -0.25000000334936817 1 I I #
point $-1 55.51660540573301 -16.901034220335525 5.4149583173876925 #
plane-surface $-1 0 0 7.3634418587626946 0 0 1 1 0 0 forward_v I I I I #
coedge $-1 $229 $395 $327 $396 forward $222 $-1 #
coedge $-1 $325 $224 $395 $397 reversed $139 $-1 #
coedge $-1 $224 $324 $328 $398 reversed $139 $-1 #
edge $-1 $329 13.514281463687976 $399 20.281405105983559 $224 $400 forward 7 unknown #
coedge $-1 $226 $225 $323 $396 reversed $87 $-1 #
coedge $-1 $232 $227 $325 $398 forward $233 $-1 #
vertex $-1 $398 $401 #
straight-curve $-1 -53.076291562963327 13.894050118274265 7.3634418587626946 0 1 0 I I #
coedge $-1 $395 $229 $232 $335 reversed $222 $-1 #
vertex $-1 $230 $402 #
straight-curve $-1 -58.025452436902981 23.273588530066625 43.811266277865066 0 0 1 I I #
straight-curve $-1 -58.025452436902981 23.273588530066625 2.7482745775061801 -0.7313536940579346 0 -0.68199836817093118 I I #
edge $-1 $403 -32.302611943030435 $234 -23.273588530066625 $331 $404 forward 7 unknown #
point $-1 -58.025452436902981 23.273588530066625 7.3634418587626946 #
point $-1 -53.07629156296332 23.273588530066625 7.3634418587626946 #
edge $-1 $405 1 $405 0 $237 $-1 forward 7 unknown #
vertex $-1 $238 $406 #
ellipse-curve $-1 -53.072329207584168 25.853309505199142 2.3979465402420077 -0.68199836817093118 0 0.7313536940579346 0.7313536940579346 0 0.68199836817093118 1 I I #
point $-1 -54.819518305875206 25.853309505199142 5.7378565863053614 #
edge $-1 $407 1 $407 0 $241 $-1 forward 7 unknown #
vertex $-1 $242 $408 #
ellipse-curve $-1 -53.072329207584168 29.722890967897918 2.3979465402420077 -0.68199836817093118 0 0.7313536940579346 0.7313536940579346 0 0.68199836817093118 1 I I #
point $-1 -54.819518305875206 29.722890967897918 5.7378565863053614 #
plane-surface $-1 58.025452436902981 0 0 -1 0 0 0 0 1 forward_v I I I I #
coedge $-1 $250 $248 $252 $351 reversed $161 $-1 #
edge $-1 $263 -7.3634418587626946 $353 7.3634418587626946 $262 $409 forward 7 unknown #
vertex $-1 $351 $410 #
straight-curve $-1 -58.025452436902981 -32.302611943030435 0 0 0 -1 I I #
edge $-1 $349 -32.302611943030435 $353 32.302611943030435 $347 $411 forward 7 unknown #
straight-curve $-1 0 -32.302611943030435 -7.3634418587626946 -1 0 0 I I #
vertex $-1 $255 $412 #
straight-curve $-1 0 32.302611943030435 -7.3634418587626946 1 0 0 I I #
point $-1 58.025452436902981 32.302611943030435 -7.3634418587626946 #
point $-1 58.025452436902981 -32.302611943030435 -7.3634418587626946 #
straight-curve $-1 -58.025452436902981 0 7.3634418587626946 0 -1 0 I I #
point $-1 -58.025452436902981 32.302611943030435 7.3634418587626946 #
point $-1 -58.025452436902981 -32.302611943030435 7.3634418587626946 #
straight-curve $-1 58.025452436902981 -32.302611943030435 0 0 0 -1 I I #
straight-curve $-1 58.025452436902981 32.302611943030435 0 0 0 -1 I I #
plane-surface $-1 58.025452436902981 0 0 -1 0 0 0 0 1 forward_v I I I I #
coedge $-1 $366 $275 $286 $375 forward $180 $-1 #
coedge $-1 $275 $366 $289 $377 reversed $180 $-1 #
straight-curve $-1 58.025452436902981 -25.555270412916109 1.1571842427436252 0 0 1 I I #
coedge $-1 $364 $363 $278 $367 forward $180 $-1 #
edge $-1 $370 11.090799823929473 $368 17.838141354043799 $366 $413 forward 7 unknown #
vertex $-1 $280 $414 #
straight-curve $-1 0 -32.302611943030435 0.64552091702723313 1 0 0 I I #
vertex $-1 $367 $415 #
straight-curve $-1 0 -25.555270412916109 0.64552091702723313 1 0 0 I I #
point $-1 58.025452436902981 -32.302611943030435 0.64552091702723313 #
point $-1 58.025452436902981 -25.555270412916109 0.64552091702723313 #
straight-curve $-1 -58.025452436902981 -14.464470588986636 3.9832160539472676 0 1 0 I I #
edge $-1 $287 -2.8260318112036424 $370 0.51166332571639206 $363 $416 forward 7 unknown #
point $-1 -58.025452436902981 -25.555270412916109 3.9832160539472676 #
edge $-1 $291 -3.9832160539472676 $368 -0.64552091702723313 $364 $417 forward 7 unknown #
point $-1 -58.025452436902981 -32.302611943030435 3.9832160539472676 #
straight-curve $-1 58.025452436902981 -32.302611943030435 0 0 0 -1 I I #
coedge $-1 $381 $305 $307 $388 forward $296 $-1 #
coedge $-1 $301 $380 $298 $382 forward $296 $-1 #
edge $-1 $383 -25.555270412916101 $303 -13.439339743303291 $298 $418 forward 7 unknown #
vertex $-1 $382 $419 #
straight-curve $-1 58.025452436902981 -25.555270412916101 81.247479650533634 0 0 -1 I I #
straight-curve $-1 7.7739371735709852 -13.439339743303291 7.3634418587626982 -1 0 0 I I #
point $-1 58.025452436902981 -13.439339743303291 7.3634418587626946 #
straight-curve $-1 52.141732974646196 -9.7486525390548486 7.3634418587626911 0 -1 0 I I #
edge $-1 $308 44.367795801075211 $383 50.251515263331996 $380 $420 forward 7 unknown #
point $-1 52.141732974646196 -25.555270412916101 7.3634418587626982 #
point $-1 52.141732974646196 -13.439339743303291 7.3634418587626982 #
vertex $-1 $314 $421 #
point $-1 54.866004182379925 -22.093575935883873 4.2880839632033654 #
vertex $-1 $318 $422 #
point $-1 54.866004182379925 -16.901034220335525 4.2880839632033654 #
coedge $-1 $323 $331 $324 $397 forward $222 $-1 #
edge $-1 $399 -18.40856182475617 $332 -9.3795384117923604 $323 $423 forward 7 unknown #
edge $-1 $403 -7.3634418587626946 $399 -2.7482745775061801 $324 $424 forward 7 unknown #
edge $-1 $329 53.07629156296332 $403 58.025452436902981 $325 $425 forward 7 unknown #
vertex $-1 $326 $426 #
straight-curve $-1 -43.192571891956447 32.302611943030435 16.580159764000555 -0.7313536940579346 0 -0.68199836817093118 I I #
point $-1 -53.07629156296332 32.302611943030435 7.3634418587626946 #
point $-1 -58.025452436902981 23.273588530066625 2.7482745775061801 #
vertex $-1 $398 $427 #
straight-curve $-1 -58.025452436902981 0 7.3634418587626946 0 -1 0 I I #
vertex $-1 $338 $428 #
point $-1 -52.340975513526232 25.853309505199142 3.0799449084129389 #
vertex $-1 $342 $429 #
point $-1 -52.340975513526232 29.722890967897918 3.0799449084129389 #
straight-curve $-1 -58.025452436902981 32.302611943030435 0 0 0 -1 I I #
point $-1 -58.025452436902981 -32.302611943030435 -7.3634418587626946 #
straight-curve $-1 -58.025452436902981 0 -7.3634418587626946 0 1 0 I I #
point $-1 -58.025452436902981 32.302611943030435 -7.3634418587626946 #
straight-curve $-1 -58.025452436902981 -14.464470588986636 0.64552091702723313 0 -1 0 I I #
point $-1 -58.025452436902981 -32.302611943030435 0.64552091702723313 #
point $-1 -58.025452436902981 -25.555270412916109 0.64552091702723313 #
straight-curve $-1 -58.025452436902981 -25.555270412916109 1.1571842427436252 0 0 -1 I I #
straight-curve $-1 -58.025452436902981 -32.302611943030435 0 0 0 -1 I I #
straight-curve $-1 58.025452436902981 0 7.3634418587626946 0 1 0 I I #
point $-1 58.025452436902981 -25.555270412916101 7.3634418587626946 #
straight-curve $-1 7.7739371735709852 -25.555270412916101 7.3634418587626982 1 0 0 I I #
point $-1 54.182991479072093 -22.093575935883873 4.1050712665942726 #
point $-1 54.182991479072093 -16.901034220335525 4.1050712665942726 #
straight-curve $-1 -58.025452436902981 13.894050118274265 2.7482745775061828 0 -1 0 I I #
straight-curve $-1 -58.025452436902981 32.302611943030435 0 0 0 -1 I I #
straight-curve $-1 0 32.302611943030435 7.3634418587626946 -1 0 0 I I #
point $-1 -58.025452436902981 32.302611943030435 2.7482745775061801 #
point $-1 -58.025452436902981 32.302611943030435 7.3634418587626946 #
point $-1 -52.390330839413231 25.853309505199142 1.6665928461840729 #
point $-1 -52.390330839413231 29.722890967897918 1.6665928461840729 #
End-of-ACIS-data 