500 0 11 0           
7 Unknown 11 ACIS 5.0 NT 24 Fri Mar 26 19:15:07 1999 
-1 9.9999999999999995e-007 1e-010 
body $-1 $11 $-1 $12 #
body $-1 $13 $-1 $14 #
body $-1 $15 $-1 $16 #
body $-1 $17 $-1 $18 #
body $-1 $19 $-1 $20 #
body $-1 $21 $-1 $22 #
body $-1 $23 $-1 $24 #
body $-1 $25 $-1 $26 #
body $-1 $27 $-1 $28 #
body $-1 $29 $-1 $30 #
body $-1 $31 $-1 $32 #
lump $-1 $-1 $33 $0 #
transform $-1 1 0 0 0 1 0 0 0 1 48.830835901974545 28.300335890159531 12.851273473653912 1 rotate no_reflect no_shear #
lump $-1 $-1 $34 $1 #
transform $-1 1 0 0 0 1 0 0 0 1 48.830835901974545 28.300335890159531 12.851273473653912 1 rotate no_reflect no_shear #
lump $-1 $-1 $35 $2 #
transform $-1 1 0 0 0 1 0 0 0 1 48.830835901974545 28.300335890159531 12.851273473653912 1 rotate no_reflect no_shear #
lump $-1 $-1 $36 $3 #
transform $-1 1 0 0 0 1 0 0 0 1 48.830835901974545 28.300335890159531 12.851273473653912 1 rotate no_reflect no_shear #
lump $-1 $-1 $37 $4 #
transform $-1 1 0 0 0 1 0 0 0 1 48.830835901974545 28.300335890159531 12.851273473653912 1 rotate no_reflect no_shear #
lump $-1 $-1 $38 $5 #
transform $-1 1 0 0 0 1 0 0 0 1 48.830835901974545 28.300335890159531 12.851273473653912 1 rotate no_reflect no_shear #
lump $-1 $-1 $39 $6 #
transform $-1 1 0 0 0 1 0 0 0 1 48.830835901974545 28.300335890159531 12.851273473653912 1 rotate no_reflect no_shear #
lump $-1 $-1 $40 $7 #
transform $-1 1 0 0 0 1 0 0 0 1 48.830835901974545 28.300335890159531 12.851273473653912 1 rotate no_reflect no_shear #
lump $-1 $-1 $41 $8 #
transform $-1 1 0 0 0 1 0 0 0 1 48.830835901974545 28.300335890159531 12.851273473653912 1 rotate no_reflect no_shear #
lump $-1 $-1 $42 $9 #
transform $-1 1 0 0 0 1 0 0 0 1 48.830835901974545 28.300335890159531 12.851273473653912 1 rotate no_reflect no_shear #
lump $-1 $-1 $43 $10 #
transform $-1 1 0 0 0 1 0 0 0 1 48.830835901974545 28.300335890159531 12.851273473653912 1 rotate no_reflect no_shear #
shell $-1 $-1 $-1 $44 $-1 $11 #
shell $-1 $-1 $-1 $45 $-1 $13 #
shell $-1 $-1 $-1 $46 $-1 $15 #
shell $-1 $-1 $-1 $47 $-1 $17 #
shell $-1 $-1 $-1 $48 $-1 $19 #
shell $-1 $-1 $-1 $49 $-1 $21 #
shell $-1 $-1 $-1 $50 $-1 $23 #
shell $-1 $-1 $-1 $51 $-1 $25 #
shell $-1 $-1 $-1 $52 $-1 $27 #
shell $-1 $-1 $-1 $53 $-1 $29 #
shell $-1 $-1 $-1 $54 $-1 $31 #
face $-1 $55 $56 $33 $-1 $57 forward single #
face $-1 $58 $59 $34 $-1 $60 forward single #
face $-1 $61 $62 $35 $-1 $63 reversed single #
face $-1 $64 $65 $36 $-1 $66 reversed single #
face $-1 $67 $68 $37 $-1 $69 forward single #
face $-1 $70 $71 $38 $-1 $72 reversed single #
face $-1 $73 $74 $39 $-1 $75 forward single #
face $-1 $76 $77 $40 $-1 $78 reversed single #
face $-1 $79 $80 $41 $-1 $81 forward single #
face $-1 $82 $83 $42 $-1 $84 reversed single #
face $-1 $85 $86 $43 $-1 $87 forward single #
face $-1 $88 $89 $33 $-1 $90 reversed single #
loop $-1 $-1 $91 $44 #
plane-surface $-1 0 0 12.851273473653912 0 0 1 1 0 0 forward_v I I I I #
face $-1 $92 $93 $34 $-1 $94 reversed single #
loop $-1 $-1 $95 $45 #
plane-surface $-1 -41.105881959867929 0 -1.2695655645854318 0 0 1 1 0 0 forward_v I I I I #
face $-1 $96 $97 $35 $-1 $98 reversed single #
loop $-1 $-1 $99 $46 #
plane-surface $-1 43.302639042925527 -5.7980764665896505 0 0 1 0 0 0 1 forward_v I I I I #
face $-1 $100 $101 $36 $-1 $102 reversed single #
loop $-1 $-1 $103 $47 #
plane-surface $-1 -23.539816974210265 -109.26553200269647 64.20232587794024 -1 0 0 0 -0.82903758062907751 0.55919289150049634 forward_v I I I I #
face $-1 $104 $105 $37 $-1 $106 forward single #
loop $-1 $107 $108 $48 #
cone-surface $-1 -28.460372495985791 -26.786145582708986 10.941346907635435 0 0.82903758062907751 -0.55919289150049634 0.5 0 0 1 I I 0 1 0.5 forward I I I I #
face $-1 $109 $110 $38 $-1 $111 reversed single #
loop $-1 $-1 $112 $49 #
plane-surface $-1 -5.7509744238008054 -109.26553200269647 64.20232587794024 -1 0 0 0 -0.82903758062907751 0.55919289150049634 forward_v I I I I #
face $-1 $113 $114 $39 $-1 $115 forward single #
loop $-1 $116 $117 $50 #
cone-surface $-1 -10.671529945576331 -26.786145582708986 10.941346907635435 0 0.82903758062907751 -0.55919289150049634 0.5 0 0 1 I I 0 1 0.5 forward I I I I #
face $-1 $118 $119 $40 $-1 $120 reversed single #
loop $-1 $-1 $121 $51 #
plane-surface $-1 12.03786812660865 -109.26553200269647 64.20232587794024 -1 0 0 0 -0.82903758062907751 0.55919289150049634 forward_v I I I I #
face $-1 $122 $123 $41 $-1 $124 forward single #
loop $-1 $125 $126 $52 #
cone-surface $-1 7.1173126048331241 -26.786145582708986 10.941346907635435 0 0.82903758062907751 -0.55919289150049634 0.5 0 0 1 I I 0 1 0.5 forward I I I I #
face $-1 $127 $128 $42 $-1 $129 reversed single #
loop $-1 $-1 $130 $53 #
plane-surface $-1 29.826710677018106 -109.26553200269647 64.20232587794024 -1 0 0 0 -0.82903758062907751 0.55919289150049634 forward_v I I I I #
face $-1 $131 $132 $43 $-1 $133 forward single #
loop $-1 $134 $135 $54 #
cone-surface $-1 24.90615515524258 -26.786145582708986 10.941346907635435 0 0.82903758062907751 -0.55919289150049634 0.5 0 0 1 I I 0 1 0.5 forward I I I I #
face $-1 $136 $137 $33 $-1 $138 reversed single #
loop $-1 $-1 $139 $55 #
plane-surface $-1 0 0 -12.851273473653912 0 0 1 1 0 0 forward_v I I I I #
coedge $-1 $140 $141 $142 $143 forward $56 $-1 #
face $-1 $144 $145 $34 $-1 $146 reversed single #
loop $-1 $-1 $147 $58 #
plane-surface $-1 -41.105881959867929 0 -4.7920860143145871 0 0 1 1 0 0 forward_v I I I I #
coedge $-1 $148 $149 $150 $151 forward $59 $-1 #
face $-1 $152 $153 $35 $-1 $154 reversed single #
loop $-1 $-1 $155 $61 #
plane-surface $-1 37.774442183876509 -4.197932704720678 0 1 0 0 0 0 -1 forward_v I I I I #
coedge $-1 $156 $157 $158 $159 forward $62 $-1 #
face $-1 $160 $161 $36 $-1 $162 reversed single #
loop $-1 $-1 $163 $64 #
plane-surface $-1 -28.460372495985791 -28.300335890159516 9.5906132331174447 0 -0.82903758062907751 0.55919289150049634 1 0 0 forward_v I I I I #
coedge $-1 $164 $165 $166 $167 reversed $65 $-1 #
face $-1 $-1 $168 $37 $-1 $169 forward single #
loop $-1 $170 $171 $67 #
cone-surface $-1 -28.460372495985791 -26.164367397237179 10.521952239010062 0 0.82903758062907751 -0.55919289150049634 0.25 0 0 1 I I -0.70710678118654746 0.70710678118654746 0.25 forward I I I I #
loop $-1 $-1 $172 $48 #
coedge $-1 $108 $108 $173 $174 reversed $68 $-1 #
face $-1 $175 $176 $38 $-1 $177 reversed single #
loop $-1 $-1 $178 $70 #
plane-surface $-1 -10.671529945576331 -28.300335890159516 9.5906132331174447 0 -0.82903758062907751 0.55919289150049634 1 0 0 forward_v I I I I #
coedge $-1 $179 $180 $181 $182 reversed $71 $-1 #
face $-1 $-1 $183 $39 $-1 $184 forward single #
loop $-1 $185 $186 $73 #
cone-surface $-1 -10.671529945576331 -26.164367397237179 10.521952239010062 0 0.82903758062907751 -0.55919289150049634 0.25 0 0 1 I I -0.70710678118654746 0.70710678118654746 0.25 forward I I I I #
loop $-1 $-1 $187 $50 #
coedge $-1 $117 $117 $188 $189 reversed $74 $-1 #
face $-1 $190 $191 $40 $-1 $192 reversed single #
loop $-1 $-1 $193 $76 #
plane-surface $-1 7.1173126048331241 -28.300335890159516 9.5906132331174447 0 -0.82903758062907751 0.55919289150049634 1 0 0 forward_v I I I I #
coedge $-1 $194 $195 $196 $197 reversed $77 $-1 #
face $-1 $-1 $198 $41 $-1 $199 forward single #
loop $-1 $200 $201 $79 #
cone-surface $-1 7.1173126048331241 -26.164367397237179 10.521952239010062 0 0.82903758062907751 -0.55919289150049634 0.25 0 0 1 I I -0.70710678118654746 0.70710678118654746 0.25 forward I I I I #
loop $-1 $-1 $202 $52 #
coedge $-1 $126 $126 $203 $204 reversed $80 $-1 #
face $-1 $205 $206 $42 $-1 $207 reversed single #
loop $-1 $-1 $208 $82 #
plane-surface $-1 24.90615515524258 -28.300335890159516 9.5906132331174447 0 -0.82903758062907751 0.55919289150049634 1 0 0 forward_v I I I I #
coedge $-1 $209 $210 $211 $212 reversed $83 $-1 #
face $-1 $-1 $213 $43 $-1 $214 forward single #
loop $-1 $215 $216 $85 #
cone-surface $-1 24.90615515524258 -26.164367397237179 10.521952239010062 0 0.82903758062907751 -0.55919289150049634 0.25 0 0 1 I I -0.70710678118654746 0.70710678118654746 0.25 forward I I I I #
loop $-1 $-1 $217 $54 #
coedge $-1 $135 $135 $218 $219 reversed $86 $-1 #
face $-1 $220 $221 $33 $-1 $222 reversed single #
loop $-1 $-1 $223 $88 #
plane-surface $-1 0 -28.300335890159531 0 0 1 0 0 0 1 forward_v I I I I #
coedge $-1 $224 $225 $226 $227 forward $89 $-1 #
coedge $-1 $228 $91 $229 $230 forward $56 $-1 #
coedge $-1 $91 $228 $231 $232 forward $56 $-1 #
coedge $-1 $233 $234 $91 $143 reversed $235 $-1 #
edge $-1 $236 -28.300335890159531 $237 28.300335890159531 $142 $238 forward 7 unknown #
face $-1 $239 $240 $34 $-1 $241 reversed single #
loop $-1 $-1 $242 $92 #
plane-surface $-1 -33.380928017761313 0 -3.0308257894500095 -1 0 0 0 0 1 forward_v I I I I #
coedge $-1 $243 $244 $245 $246 forward $93 $-1 #
coedge $-1 $247 $95 $248 $249 reversed $59 $-1 #
coedge $-1 $95 $247 $250 $251 reversed $59 $-1 #
coedge $-1 $242 $252 $95 $151 reversed $145 $-1 #
edge $-1 $253 -28.300335890159531 $254 28.300335890159531 $150 $255 forward 7 unknown #
face $-1 $256 $257 $35 $-1 $258 reversed single #
loop $-1 $-1 $259 $96 #
plane-surface $-1 43.302639042925527 -2.5977889428517056 0 0 -1 0 0 0 -1 forward_v I I I I #
coedge $-1 $260 $261 $262 $263 forward $97 $-1 #
coedge $-1 $264 $99 $265 $266 reversed $62 $-1 #
coedge $-1 $99 $264 $267 $268 reversed $62 $-1 #
coedge $-1 $261 $260 $99 $159 reversed $97 $-1 #
edge $-1 $269 -12.851273473653912 $270 12.851273473653912 $158 $271 forward 7 unknown #
face $-1 $272 $273 $36 $-1 $274 reversed single #
loop $-1 $-1 $275 $100 #
plane-surface $-1 -33.38092801776132 -109.26553200269647 64.20232587794024 1 0 0 0 0.82903758062907751 -0.55919289150049634 forward_v I I I I #
coedge $-1 $276 $277 $278 $279 reversed $101 $-1 #
coedge $-1 $165 $103 $280 $281 reversed $65 $-1 #
coedge $-1 $103 $164 $276 $282 reversed $65 $-1 #
coedge $-1 $278 $283 $103 $167 forward $284 $-1 #
edge $-1 $285 26.332430111188707 $286 28.531773145460743 $166 $287 forward 7 unknown #
loop $-1 $-1 $173 $104 #
plane-surface $-1 -28.460372495985791 -28.300335890159516 9.5906132331174447 0 -0.82903758062907751 0.55919289150049634 1 0 0 forward_v I I I I #
loop $-1 $-1 $288 $67 #
coedge $-1 $171 $171 $172 $289 reversed $105 $-1 #
coedge $-1 $172 $172 $171 $289 forward $107 $-1 #
coedge $-1 $173 $173 $108 $174 forward $168 $-1 #
edge $-1 $290 -1.1665521130715569e-015 $290 6.2831853071795996 $173 $291 forward 7 unknown #
face $-1 $292 $293 $38 $-1 $294 reversed single #
loop $-1 $-1 $295 $109 #
plane-surface $-1 -15.592085467351858 -109.26553200269647 64.20232587794024 1 0 0 0 0.82903758062907751 -0.55919289150049634 forward_v I I I I #
coedge $-1 $296 $297 $298 $299 reversed $110 $-1 #
coedge $-1 $180 $112 $300 $301 reversed $71 $-1 #
coedge $-1 $112 $179 $296 $302 reversed $71 $-1 #
coedge $-1 $298 $303 $112 $182 forward $304 $-1 #
edge $-1 $305 26.332430111188707 $306 28.531773145460743 $181 $307 forward 7 unknown #
loop $-1 $-1 $188 $113 #
plane-surface $-1 -10.671529945576331 -28.300335890159516 9.5906132331174447 0 -0.82903758062907751 0.55919289150049634 1 0 0 forward_v I I I I #
loop $-1 $-1 $308 $73 #
coedge $-1 $186 $186 $187 $309 reversed $114 $-1 #
coedge $-1 $187 $187 $186 $309 forward $116 $-1 #
coedge $-1 $188 $188 $117 $189 forward $183 $-1 #
edge $-1 $310 -1.1665521130715569e-015 $310 6.2831853071795996 $188 $311 forward 7 unknown #
face $-1 $312 $313 $40 $-1 $314 reversed single #
loop $-1 $-1 $315 $118 #
plane-surface $-1 2.196757083057598 -109.26553200269647 64.20232587794024 1 0 0 0 0.82903758062907751 -0.55919289150049634 forward_v I I I I #
coedge $-1 $316 $317 $318 $319 reversed $119 $-1 #
coedge $-1 $195 $121 $320 $321 reversed $77 $-1 #
coedge $-1 $121 $194 $316 $322 reversed $77 $-1 #
coedge $-1 $318 $323 $121 $197 forward $324 $-1 #
edge $-1 $325 26.332430111188707 $326 28.531773145460743 $196 $327 forward 7 unknown #
loop $-1 $-1 $203 $122 #
plane-surface $-1 7.1173126048331241 -28.300335890159516 9.5906132331174447 0 -0.82903758062907751 0.55919289150049634 1 0 0 forward_v I I I I #
loop $-1 $-1 $328 $79 #
coedge $-1 $201 $201 $202 $329 reversed $123 $-1 #
coedge $-1 $202 $202 $201 $329 forward $125 $-1 #
coedge $-1 $203 $203 $126 $204 forward $198 $-1 #
edge $-1 $330 -1.1665521130715569e-015 $330 6.2831853071795996 $203 $331 forward 7 unknown #
face $-1 $332 $333 $42 $-1 $334 reversed single #
loop $-1 $-1 $335 $127 #
plane-surface $-1 19.985599633467054 -109.26553200269647 64.20232587794024 1 0 0 0 0.82903758062907751 -0.55919289150049634 forward_v I I I I #
coedge $-1 $336 $337 $338 $339 reversed $128 $-1 #
coedge $-1 $210 $130 $340 $341 reversed $83 $-1 #
coedge $-1 $130 $209 $336 $342 reversed $83 $-1 #
coedge $-1 $338 $343 $130 $212 forward $344 $-1 #
edge $-1 $345 26.332430111188707 $346 28.531773145460743 $211 $347 forward 7 unknown #
loop $-1 $-1 $218 $131 #
plane-surface $-1 24.90615515524258 -28.300335890159516 9.5906132331174447 0 -0.82903758062907751 0.55919289150049634 1 0 0 forward_v I I I I #
loop $-1 $-1 $348 $85 #
coedge $-1 $216 $216 $217 $349 reversed $132 $-1 #
coedge $-1 $217 $217 $216 $349 forward $134 $-1 #
coedge $-1 $218 $218 $135 $219 forward $213 $-1 #
edge $-1 $350 -1.1665521130715569e-015 $350 6.2831853071795996 $218 $351 forward 7 unknown #
face $-1 $352 $353 $33 $-1 $354 reversed single #
loop $-1 $-1 $355 $136 #
plane-surface $-1 -48.830835901974545 0 0 1 0 0 0 0 -1 forward_v I I I I #
coedge $-1 $356 $231 $357 $358 forward $137 $-1 #
coedge $-1 $359 $139 $356 $360 forward $89 $-1 #
coedge $-1 $139 $359 $361 $362 forward $89 $-1 #
coedge $-1 $234 $233 $139 $227 reversed $235 $-1 #
edge $-1 $363 -28.300335890159531 $364 28.300335890159531 $226 $365 forward 7 unknown #
coedge $-1 $141 $140 $366 $367 forward $56 $-1 #
coedge $-1 $368 $369 $140 $230 reversed $353 $-1 #
edge $-1 $237 -48.830835901974545 $370 48.830835901974545 $229 $371 forward 7 unknown #
coedge $-1 $223 $372 $141 $232 reversed $137 $-1 #
edge $-1 $373 -48.830835901974545 $236 48.830835901974545 $231 $374 forward 7 unknown #
coedge $-1 $226 $142 $372 $375 forward $235 $-1 #
coedge $-1 $142 $226 $368 $376 reversed $235 $-1 #
loop $-1 $-1 $233 $352 #
vertex $-1 $143 $377 #
vertex $-1 $143 $378 #
straight-curve $-1 48.830835901974545 0 12.851273473653912 0 1 0 I I #
face $-1 $379 $380 $34 $-1 $381 reversed single #
loop $-1 $-1 $382 $144 #
plane-surface $-1 0 -28.300335890159531 0 0 1 0 0 0 1 forward_v I I I I #
coedge $-1 $245 $150 $383 $384 reversed $145 $-1 #
coedge $-1 $385 $147 $382 $386 reversed $93 $-1 #
coedge $-1 $147 $385 $387 $388 reversed $93 $-1 #
coedge $-1 $252 $242 $147 $246 reversed $145 $-1 #
edge $-1 $389 -28.300335890159531 $390 28.300335890159531 $245 $391 forward 7 unknown #
coedge $-1 $149 $148 $392 $393 reversed $59 $-1 #
coedge $-1 $394 $395 $148 $249 forward $396 $-1 #
edge $-1 $397 -28.277894922040581 $254 -12.827987037827349 $248 $398 forward 7 unknown #
coedge $-1 $399 $383 $149 $251 forward $240 $-1 #
edge $-1 $253 12.827987037827349 $400 28.277894922040581 $250 $401 forward 7 unknown #
coedge $-1 $150 $245 $394 $402 reversed $145 $-1 #
vertex $-1 $251 $403 #
vertex $-1 $249 $404 #
straight-curve $-1 -33.380928017761313 0 -1.2695655645854318 0 1 0 I I #
face $-1 $405 $406 $35 $-1 $407 reversed single #
loop $-1 $-1 $408 $152 #
plane-surface $-1 48.830835901974545 0 0 -1 0 0 0 0 1 forward_v I I I I #
coedge $-1 $409 $410 $411 $412 reversed $153 $-1 #
coedge $-1 $158 $155 $413 $414 reversed $97 $-1 #
coedge $-1 $155 $158 $415 $416 reversed $97 $-1 #
coedge $-1 $410 $409 $155 $263 reversed $153 $-1 #
edge $-1 $417 -12.851273473653912 $418 12.851273473653912 $262 $419 forward 7 unknown #
coedge $-1 $157 $156 $408 $420 reversed $62 $-1 #
coedge $-1 $413 $421 $156 $266 forward $406 $-1 #
edge $-1 $422 -27.179516380511782 $270 -16.123122662413746 $265 $423 forward 7 unknown #
coedge $-1 $424 $415 $157 $268 forward $425 $-1 #
edge $-1 $269 16.123122662413746 $426 27.179516380511782 $267 $427 forward 7 unknown #
vertex $-1 $268 $428 #
vertex $-1 $266 $429 #
straight-curve $-1 37.774442183876509 -5.7980764665896505 0 0 0 -1 I I #
face $-1 $-1 $284 $36 $-1 $430 forward single #
loop $-1 $-1 $431 $160 #
plane-surface $-1 0 -28.300335890159531 0 0 1 0 0 0 1 forward_v I I I I #
coedge $-1 $432 $433 $434 $435 reversed $161 $-1 #
coedge $-1 $436 $163 $165 $282 forward $101 $-1 #
coedge $-1 $163 $436 $432 $437 forward $101 $-1 #
coedge $-1 $434 $166 $163 $279 forward $284 $-1 #
edge $-1 $286 9.3096307262173692 $438 19.150741769768423 $278 $439 forward 7 unknown #
coedge $-1 $440 $441 $164 $281 forward $273 $-1 #
edge $-1 $442 -22.510549705852696 $285 -19.249889465316208 $280 $443 forward 7 unknown #
edge $-1 $286 -3.9330668678038263 $442 2.5618607856530852e-014 $165 $444 forward 7 unknown #
coedge $-1 $166 $434 $440 $445 forward $284 $-1 #
loop $-1 $-1 $434 $272 #
vertex $-1 $281 $446 #
vertex $-1 $167 $447 #
straight-curve $-1 -23.539816974210265 -54.632766001348237 12.851273473653912 0 1 0 I I #
coedge $-1 $288 $288 $-1 $448 reversed $170 $-1 #
edge $-1 $449 0 $449 6.2831853071796004 $171 $450 forward 7 unknown #
vertex $-1 $174 $451 #
ellipse-curve $-1 -28.460372495985791 -27.20066437302351 11.220943353385673 0 -0.82903758062907751 0.55919289150049634 0.5 0 0 1 I I #
face $-1 $-1 $304 $38 $-1 $452 forward single #
loop $-1 $-1 $453 $175 #
plane-surface $-1 0 -28.300335890159531 0 0 1 0 0 0 1 forward_v I I I I #
coedge $-1 $454 $455 $456 $457 reversed $176 $-1 #
coedge $-1 $458 $178 $180 $302 forward $110 $-1 #
coedge $-1 $178 $458 $454 $459 forward $110 $-1 #
coedge $-1 $456 $181 $178 $299 forward $304 $-1 #
edge $-1 $306 0.41520945101263962 $460 10.256320494563692 $298 $461 forward 7 unknown #
coedge $-1 $462 $463 $179 $301 forward $293 $-1 #
edge $-1 $464 -22.510549705852696 $305 -19.249889465316208 $300 $465 forward 7 unknown #
edge $-1 $306 -3.9330668678038263 $464 2.5618607856530852e-014 $180 $466 forward 7 unknown #
coedge $-1 $181 $456 $462 $467 forward $304 $-1 #
loop $-1 $-1 $456 $292 #
vertex $-1 $301 $468 #
vertex $-1 $182 $469 #
straight-curve $-1 -5.7509744238008054 -54.632766001348237 12.851273473653912 0 1 0 I I #
coedge $-1 $308 $308 $-1 $470 reversed $185 $-1 #
edge $-1 $471 0 $471 6.2831853071796004 $186 $472 forward 7 unknown #
vertex $-1 $189 $473 #
ellipse-curve $-1 -10.671529945576331 -27.20066437302351 11.220943353385673 0 -0.82903758062907751 0.55919289150049634 0.5 0 0 1 I I #
face $-1 $-1 $324 $40 $-1 $474 forward single #
loop $-1 $-1 $475 $190 #
plane-surface $-1 0 -28.300335890159531 0 0 1 0 0 0 1 forward_v I I I I #
coedge $-1 $476 $477 $478 $479 reversed $191 $-1 #
coedge $-1 $480 $193 $195 $322 forward $119 $-1 #
coedge $-1 $193 $480 $476 $481 forward $119 $-1 #
coedge $-1 $478 $196 $193 $319 forward $324 $-1 #
edge $-1 $326 -8.4792118241920882 $482 1.3618992193589641 $318 $483 forward 7 unknown #
coedge $-1 $484 $485 $194 $321 forward $313 $-1 #
edge $-1 $486 -22.510549705852696 $325 -19.249889465316208 $320 $487 forward 7 unknown #
edge $-1 $326 -3.9330668678038263 $486 2.5618607856530852e-014 $195 $488 forward 7 unknown #
coedge $-1 $196 $478 $484 $489 forward $324 $-1 #
loop $-1 $-1 $478 $312 #
vertex $-1 $321 $490 #
vertex $-1 $197 $491 #
straight-curve $-1 12.03786812660865 -54.632766001348237 12.851273473653912 0 1 0 I I #
coedge $-1 $328 $328 $-1 $492 reversed $200 $-1 #
edge $-1 $493 0 $493 6.2831853071796004 $201 $494 forward 7 unknown #
vertex $-1 $204 $495 #
ellipse-curve $-1 7.1173126048331241 -27.20066437302351 11.220943353385673 0 -0.82903758062907751 0.55919289150049634 0.5 0 0 1 I I #
face $-1 $-1 $344 $42 $-1 $496 forward single #
loop $-1 $-1 $497 $205 #
plane-surface $-1 0 -28.300335890159531 0 0 1 0 0 0 1 forward_v I I I I #
coedge $-1 $498 $499 $500 $501 reversed $206 $-1 #
coedge $-1 $502 $208 $210 $342 forward $128 $-1 #
coedge $-1 $208 $502 $498 $503 forward $128 $-1 #
coedge $-1 $500 $211 $208 $339 forward $344 $-1 #
edge $-1 $346 -17.373633099396816 $504 -7.5325220558457637 $338 $505 forward 7 unknown #
coedge $-1 $506 $507 $209 $341 forward $333 $-1 #
edge $-1 $508 -22.510549705852696 $345 -19.249889465316208 $340 $509 forward 7 unknown #
edge $-1 $346 -3.9330668678038263 $508 2.5618607856530852e-014 $210 $510 forward 7 unknown #
coedge $-1 $211 $500 $506 $511 forward $344 $-1 #
loop $-1 $-1 $500 $332 #
vertex $-1 $341 $512 #
vertex $-1 $212 $513 #
straight-curve $-1 29.826710677018106 -54.632766001348237 12.851273473653912 0 1 0 I I #
coedge $-1 $348 $348 $-1 $514 reversed $215 $-1 #
edge $-1 $515 0 $515 6.2831853071796004 $216 $516 forward 7 unknown #
vertex $-1 $219 $517 #
ellipse-curve $-1 24.90615515524258 -27.20066437302351 11.220943353385673 0 -0.82903758062907751 0.55919289150049634 0.5 0 0 1 I I #
face $-1 $-1 $235 $33 $-1 $518 reversed single #
loop $-1 $-1 $368 $220 #
plane-surface $-1 0 28.300335890159531 0 0 -1 0 0 0 -1 forward_v I I I I #
coedge $-1 $519 $366 $369 $520 forward $221 $-1 #
coedge $-1 $372 $223 $224 $360 reversed $137 $-1 #
coedge $-1 $366 $519 $223 $358 reversed $221 $-1 #
edge $-1 $373 -12.851273473653912 $521 12.851273473653912 $357 $522 forward 7 unknown #
coedge $-1 $225 $224 $519 $523 forward $89 $-1 #
edge $-1 $364 -48.830835901974545 $521 48.830835901974545 $356 $524 forward 7 unknown #
coedge $-1 $369 $368 $225 $362 reversed $353 $-1 #
edge $-1 $525 -48.830835901974545 $363 48.830835901974545 $361 $526 forward 7 unknown #
vertex $-1 $227 $527 #
vertex $-1 $375 $528 #
straight-curve $-1 48.830835901974545 0 -12.851273473653912 0 -1 0 I I #
coedge $-1 $355 $357 $228 $367 reversed $221 $-1 #
edge $-1 $370 -28.300335890159531 $373 28.300335890159531 $366 $529 forward 7 unknown #
coedge $-1 $361 $229 $234 $376 forward $353 $-1 #
coedge $-1 $229 $361 $355 $520 reversed $353 $-1 #
vertex $-1 $230 $530 #
straight-curve $-1 0 28.300335890159531 12.851273473653912 -1 0 0 I I #
coedge $-1 $231 $356 $233 $375 reversed $137 $-1 #
vertex $-1 $367 $531 #
straight-curve $-1 0 -28.300335890159531 12.851273473653912 1 0 0 I I #
edge $-1 $236 -12.851273473653912 $364 12.851273473653912 $233 $532 forward 7 unknown #
edge $-1 $237 -12.851273473653912 $363 12.851273473653912 $234 $533 forward 7 unknown #
point $-1 48.830835901974545 -28.300335890159531 12.851273473653912 #
point $-1 48.830835901974545 28.300335890159531 12.851273473653912 #
face $-1 $-1 $396 $34 $-1 $534 reversed single #
loop $-1 $-1 $535 $239 #
plane-surface $-1 -48.830835901974545 0 0 1 0 0 0 0 -1 forward_v I I I I #
coedge $-1 $383 $399 $243 $386 forward $240 $-1 #
coedge $-1 $250 $382 $242 $384 forward $240 $-1 #
edge $-1 $390 -3.2766731195895824 $253 0.24584733013957294 $383 $536 forward 7 unknown #
coedge $-1 $244 $243 $535 $537 reversed $93 $-1 #
edge $-1 $538 -28.277894922040581 $390 -12.827987037827349 $382 $539 forward 7 unknown #
coedge $-1 $395 $394 $244 $388 forward $396 $-1 #
edge $-1 $389 12.827987037827349 $540 28.277894922040581 $387 $541 forward 7 unknown #
vertex $-1 $388 $542 #
vertex $-1 $386 $543 #
straight-curve $-1 -33.380928017761313 0 -4.7920860143145871 0 -1 0 I I #
coedge $-1 $544 $545 $247 $393 forward $380 $-1 #
edge $-1 $400 -28.300335890159531 $397 28.300335890159531 $392 $546 forward 7 unknown #
coedge $-1 $387 $248 $252 $402 forward $396 $-1 #
coedge $-1 $248 $387 $544 $547 reversed $396 $-1 #
loop $-1 $-1 $387 $379 #
vertex $-1 $547 $548 #
straight-curve $-1 -20.552940979933965 28.300335890159531 -1.2695655645854318 1 0 0 I I #
coedge $-1 $382 $250 $545 $549 forward $240 $-1 #
vertex $-1 $549 $550 #
straight-curve $-1 -20.552940979933965 -28.300335890159531 -1.2695655645854318 -1 0 0 I I #
edge $-1 $254 -0.24584733013957294 $389 3.2766731195895824 $394 $551 forward 7 unknown #
point $-1 -33.380928017761313 -28.300335890159531 -1.2695655645854318 #
point $-1 -33.380928017761313 28.300335890159531 -1.2695655645854318 #
face $-1 $-1 $425 $35 $-1 $552 forward single #
loop $-1 $-1 $265 $256 #
plane-surface $-1 0 0 -12.851273473653912 0 0 1 1 0 0 forward_v I I I I #
coedge $-1 $553 $554 $264 $420 forward $257 $-1 #
coedge $-1 $262 $259 $555 $556 reversed $153 $-1 #
coedge $-1 $259 $262 $557 $558 reversed $153 $-1 #
coedge $-1 $554 $553 $259 $412 forward $257 $-1 #
edge $-1 $559 -12.851273473653912 $560 12.851273473653912 $411 $561 forward 7 unknown #
coedge $-1 $555 $265 $260 $414 forward $406 $-1 #
edge $-1 $270 -3.6991101142293115 $418 -0.49882259049136657 $413 $562 forward 7 unknown #
coedge $-1 $267 $557 $261 $416 forward $425 $-1 #
edge $-1 $417 0.49882259049136657 $269 3.6991101142293115 $415 $563 forward 7 unknown #
vertex $-1 $416 $564 #
vertex $-1 $414 $565 #
straight-curve $-1 37.774442183876509 -2.5977889428517056 0 0 0 -1 I I #
edge $-1 $426 -12.851273473653912 $422 12.851273473653912 $408 $566 forward 7 unknown #
coedge $-1 $265 $555 $553 $567 forward $406 $-1 #
vertex $-1 $420 $568 #
straight-curve $-1 21.651319521462764 -5.7980764665896505 -12.851273473653912 -1 0 0 I I #
coedge $-1 $557 $267 $554 $569 forward $425 $-1 #
loop $-1 $-1 $267 $405 #
vertex $-1 $569 $570 #
straight-curve $-1 21.651319521462764 -5.7980764665896505 12.851273473653912 1 0 0 I I #
point $-1 37.774442183876509 -5.7980764665896505 12.851273473653912 #
point $-1 37.774442183876509 -5.7980764665896505 -12.851273473653912 #
plane-surface $-1 0 0 12.851273473653912 0 0 1 1 0 0 forward_v I I I I #
coedge $-1 $441 $440 $433 $571 forward $273 $-1 #
coedge $-1 $433 $275 $277 $437 reversed $161 $-1 #
coedge $-1 $275 $432 $431 $571 reversed $161 $-1 #
coedge $-1 $283 $278 $275 $435 forward $284 $-1 #
edge $-1 $438 -28.531773145460743 $572 -26.332430111188707 $434 $573 forward 7 unknown #
coedge $-1 $277 $276 $441 $574 reversed $101 $-1 #
edge $-1 $575 -2.5618607856530852e-014 $438 3.9330668678038263 $432 $576 forward 7 unknown #
vertex $-1 $279 $577 #
straight-curve $-1 -14.230186247992895 -26.100992855887498 12.851273473653912 -1 0 0 I I #
coedge $-1 $431 $280 $283 $445 reversed $273 $-1 #
coedge $-1 $280 $431 $436 $574 forward $273 $-1 #
vertex $-1 $281 $578 #
straight-curve $-1 -23.539816974210265 -28.300335890159531 32.10116293897012 0 0 1 I I #
straight-curve $-1 -23.539816974210265 -28.300335890159516 9.5906132331174447 0 -0.55919289150049634 -0.82903758062907751 I I #
edge $-1 $572 -33.38092801776132 $285 -23.539816974210265 $440 $579 forward 7 unknown #
point $-1 -23.539816974210265 -28.300335890159531 12.851273473653912 #
point $-1 -23.539816974210265 -26.100992855887494 12.851273473653912 #
edge $-1 $580 1 $580 0 $288 $-1 forward 7 unknown #
vertex $-1 $289 $581 #
ellipse-curve $-1 -28.460372495985791 -26.371626792394448 10.661750461885186 0 -0.82903758062907751 0.55919289150049634 0.5 0 0 1 I I #
point $-1 -27.960372495985791 -27.200664373023525 11.220943353385682 #
plane-surface $-1 0 0 12.851273473653912 0 0 1 1 0 0 forward_v I I I I #
coedge $-1 $463 $462 $455 $582 forward $293 $-1 #
coedge $-1 $455 $295 $297 $459 reversed $176 $-1 #
coedge $-1 $295 $454 $453 $582 reversed $176 $-1 #
coedge $-1 $303 $298 $295 $457 forward $304 $-1 #
edge $-1 $460 -28.531773145460743 $583 -26.332430111188707 $456 $584 forward 7 unknown #
coedge $-1 $297 $296 $463 $585 reversed $110 $-1 #
edge $-1 $586 -2.5618607856530852e-014 $460 3.9330668678038263 $454 $587 forward 7 unknown #
vertex $-1 $299 $588 #
straight-curve $-1 -5.3357649727881657 -26.100992855887498 12.851273473653912 -1 0 0 I I #
coedge $-1 $453 $300 $303 $467 reversed $293 $-1 #
coedge $-1 $300 $453 $458 $585 forward $293 $-1 #
vertex $-1 $301 $589 #
straight-curve $-1 -5.7509744238008054 -28.300335890159531 32.10116293897012 0 0 1 I I #
straight-curve $-1 -5.7509744238008054 -28.300335890159516 9.5906132331174447 0 -0.55919289150049634 -0.82903758062907751 I I #
edge $-1 $583 -15.592085467351858 $305 -5.7509744238008054 $462 $590 forward 7 unknown #
point $-1 -5.7509744238008054 -28.300335890159531 12.851273473653912 #
point $-1 -5.7509744238008054 -26.100992855887494 12.851273473653912 #
edge $-1 $591 1 $591 0 $308 $-1 forward 7 unknown #
vertex $-1 $309 $592 #
ellipse-curve $-1 -10.671529945576331 -26.371626792394448 10.661750461885186 0 -0.82903758062907751 0.55919289150049634 0.5 0 0 1 I I #
point $-1 -10.171529945576331 -27.200664373023525 11.220943353385682 #
plane-surface $-1 0 0 12.851273473653912 0 0 1 1 0 0 forward_v I I I I #
coedge $-1 $485 $484 $477 $593 forward $313 $-1 #
coedge $-1 $477 $315 $317 $481 reversed $191 $-1 #
coedge $-1 $315 $476 $475 $593 reversed $191 $-1 #
coedge $-1 $323 $318 $315 $479 forward $324 $-1 #
edge $-1 $482 -28.531773145460743 $594 -26.332430111188707 $478 $595 forward 7 unknown #
coedge $-1 $317 $316 $485 $596 reversed $119 $-1 #
edge $-1 $597 -2.5618607856530852e-014 $482 3.9330668678038263 $476 $598 forward 7 unknown #
vertex $-1 $319 $599 #
straight-curve $-1 3.5586563024165621 -26.100992855887498 12.851273473653912 -1 0 0 I I #
coedge $-1 $475 $320 $323 $489 reversed $313 $-1 #
coedge $-1 $320 $475 $480 $596 forward $313 $-1 #
vertex $-1 $321 $600 #
straight-curve $-1 12.03786812660865 -28.300335890159531 32.10116293897012 0 0 1 I I #
straight-curve $-1 12.03786812660865 -28.300335890159516 9.5906132331174447 0 -0.55919289150049634 -0.82903758062907751 I I #
edge $-1 $594 2.196757083057598 $325 12.03786812660865 $484 $601 forward 7 unknown #
point $-1 12.03786812660865 -28.300335890159531 12.851273473653912 #
point $-1 12.03786812660865 -26.100992855887494 12.851273473653912 #
edge $-1 $602 1 $602 0 $328 $-1 forward 7 unknown #
vertex $-1 $329 $603 #
ellipse-curve $-1 7.1173126048331241 -26.371626792394448 10.661750461885186 0 -0.82903758062907751 0.55919289150049634 0.5 0 0 1 I I #
point $-1 7.6173126048331241 -27.200664373023525 11.220943353385682 #
plane-surface $-1 0 0 12.851273473653912 0 0 1 1 0 0 forward_v I I I I #
coedge $-1 $507 $506 $499 $604 forward $333 $-1 #
coedge $-1 $499 $335 $337 $503 reversed $206 $-1 #
coedge $-1 $335 $498 $497 $604 reversed $206 $-1 #
coedge $-1 $343 $338 $335 $501 forward $344 $-1 #
edge $-1 $504 -28.531773145460743 $605 -26.332430111188707 $500 $606 forward 7 unknown #
coedge $-1 $337 $336 $507 $607 reversed $128 $-1 #
edge $-1 $608 -2.5618607856530852e-014 $504 3.9330668678038263 $498 $609 forward 7 unknown #
vertex $-1 $339 $610 #
straight-curve $-1 12.45307757762129 -26.100992855887498 12.851273473653912 -1 0 0 I I #
coedge $-1 $497 $340 $343 $511 reversed $333 $-1 #
coedge $-1 $340 $497 $502 $607 forward $333 $-1 #
vertex $-1 $341 $611 #
straight-curve $-1 29.826710677018106 -28.300335890159531 32.10116293897012 0 0 1 I I #
straight-curve $-1 29.826710677018106 -28.300335890159516 9.5906132331174447 0 -0.55919289150049634 -0.82903758062907751 I I #
edge $-1 $605 19.985599633467054 $345 29.826710677018106 $506 $612 forward 7 unknown #
point $-1 29.826710677018106 -28.300335890159531 12.851273473653912 #
point $-1 29.826710677018106 -26.100992855887494 12.851273473653912 #
edge $-1 $613 1 $613 0 $348 $-1 forward 7 unknown #
vertex $-1 $349 $614 #
ellipse-curve $-1 24.90615515524258 -26.371626792394448 10.661750461885186 0 -0.82903758062907751 0.55919289150049634 0.5 0 0 1 I I #
point $-1 25.40615515524258 -27.200664373023525 11.220943353385682 #
plane-surface $-1 48.830835901974545 0 0 -1 0 0 0 0 1 forward_v I I I I #
coedge $-1 $357 $355 $359 $523 reversed $221 $-1 #
edge $-1 $370 -12.851273473653912 $525 12.851273473653912 $369 $615 forward 7 unknown #
vertex $-1 $523 $616 #
straight-curve $-1 -48.830835901974545 -28.300335890159531 0 0 0 -1 I I #
edge $-1 $521 -28.300335890159531 $525 28.300335890159531 $519 $617 forward 7 unknown #
straight-curve $-1 0 -28.300335890159531 -12.851273473653912 -1 0 0 I I #
vertex $-1 $362 $618 #
straight-curve $-1 0 28.300335890159531 -12.851273473653912 1 0 0 I I #
point $-1 48.830835901974545 28.300335890159531 -12.851273473653912 #
point $-1 48.830835901974545 -28.300335890159531 -12.851273473653912 #
straight-curve $-1 -48.830835901974545 0 12.851273473653912 0 -1 0 I I #
point $-1 -48.830835901974545 28.300335890159531 12.851273473653912 #
point $-1 -48.830835901974545 -28.300335890159531 12.851273473653912 #
straight-curve $-1 48.830835901974545 -28.300335890159531 0 0 0 -1 I I #
straight-curve $-1 48.830835901974545 28.300335890159531 0 0 0 -1 I I #
plane-surface $-1 0 28.300335890159531 0 0 -1 0 0 0 -1 forward_v I I I I #
coedge $-1 $545 $544 $385 $537 forward $380 $-1 #
straight-curve $-1 -33.380928017761313 -28.300335890159531 -1.5154128947250047 0 0 1 I I #
edge $-1 $540 -28.300335890159531 $538 28.300335890159531 $535 $619 forward 7 unknown #
vertex $-1 $386 $620 #
straight-curve $-1 -20.552940979933965 -28.300335890159531 -4.7920860143145871 1 0 0 I I #
vertex $-1 $388 $621 #
straight-curve $-1 -20.552940979933965 28.300335890159531 -4.7920860143145871 -1 0 0 I I #
point $-1 -33.380928017761313 28.300335890159531 -4.7920860143145871 #
point $-1 -33.380928017761313 -28.300335890159531 -4.7920860143145871 #
coedge $-1 $535 $392 $395 $547 forward $380 $-1 #
coedge $-1 $392 $535 $399 $549 reversed $380 $-1 #
straight-curve $-1 -48.830835901974545 0 -1.2695655645854318 0 1 0 I I #
edge $-1 $397 1.2695655645854318 $540 4.7920860143145871 $395 $622 forward 7 unknown #
point $-1 -48.830835901974545 28.300335890159531 -1.2695655645854318 #
edge $-1 $400 1.2695655645854318 $538 4.7920860143145871 $545 $623 forward 7 unknown #
point $-1 -48.830835901974545 -28.300335890159531 -1.2695655645854318 #
straight-curve $-1 -33.380928017761313 28.300335890159531 -1.5154128947250047 0 0 -1 I I #
plane-surface $-1 0 0 12.851273473653912 0 0 1 1 0 0 forward_v I I I I #
coedge $-1 $411 $408 $421 $567 reversed $257 $-1 #
coedge $-1 $408 $411 $424 $569 reversed $257 $-1 #
coedge $-1 $421 $413 $409 $556 forward $406 $-1 #
edge $-1 $418 16.123122662413746 $559 27.179516380511782 $555 $624 forward 7 unknown #
coedge $-1 $415 $424 $410 $558 forward $425 $-1 #
edge $-1 $560 -27.179516380511782 $417 -16.123122662413746 $557 $625 forward 7 unknown #
vertex $-1 $567 $626 #
vertex $-1 $412 $627 #
straight-curve $-1 48.830835901974545 -2.5977889428517056 0 0 0 1 I I #
straight-curve $-1 37.774442183876509 -2.098966352360339 -12.851273473653912 0 1 0 I I #
straight-curve $-1 37.774442183876509 -2.098966352360339 12.851273473653912 0 -1 0 I I #
point $-1 37.774442183876509 -2.5977889428517056 12.851273473653912 #
point $-1 37.774442183876509 -2.5977889428517056 -12.851273473653912 #
straight-curve $-1 48.830835901974545 -5.7980764665896505 0 0 0 -1 I I #
edge $-1 $559 2.5977889428517056 $422 5.7980764665896505 $553 $628 forward 7 unknown #
point $-1 48.830835901974545 -5.7980764665896505 -12.851273473653912 #
edge $-1 $426 -5.7980764665896505 $560 -2.5977889428517056 $554 $629 forward 7 unknown #
point $-1 48.830835901974545 -5.7980764665896505 12.851273473653912 #
edge $-1 $572 19.249889465316208 $575 22.510549705852696 $431 $630 forward 7 unknown #
vertex $-1 $445 $631 #
straight-curve $-1 -33.38092801776132 -54.632766001348237 12.851273473653912 0 -1 0 I I #
edge $-1 $575 -19.150741769768423 $442 -9.3096307262173692 $441 $632 forward 7 unknown #
vertex $-1 $574 $633 #
straight-curve $-1 -33.38092801776132 -28.300335890159516 9.5906132331174447 0 0.55919289150049634 0.82903758062907751 I I #
point $-1 -33.38092801776132 -26.100992855887494 12.851273473653912 #
point $-1 -23.539816974210265 -28.300335890159531 9.5906132331174234 #
straight-curve $-1 0 -28.300335890159531 12.851273473653912 1 0 0 I I #
vertex $-1 $448 $634 #
point $-1 -27.960372495985791 -26.371626792394448 10.661750461885186 #
edge $-1 $583 19.249889465316208 $586 22.510549705852696 $453 $635 forward 7 unknown #
vertex $-1 $467 $636 #
straight-curve $-1 -15.592085467351858 -54.632766001348237 12.851273473653912 0 -1 0 I I #
edge $-1 $586 -10.256320494563692 $464 -0.41520945101263962 $463 $637 forward 7 unknown #
vertex $-1 $585 $638 #
straight-curve $-1 -15.592085467351858 -28.300335890159516 9.5906132331174447 0 0.55919289150049634 0.82903758062907751 I I #
point $-1 -15.592085467351858 -26.100992855887494 12.851273473653912 #
point $-1 -5.7509744238008054 -28.300335890159531 9.5906132331174234 #
straight-curve $-1 0 -28.300335890159531 12.851273473653912 1 0 0 I I #
vertex $-1 $470 $639 #
point $-1 -10.171529945576331 -26.371626792394448 10.661750461885186 #
edge $-1 $594 19.249889465316208 $597 22.510549705852696 $475 $640 forward 7 unknown #
vertex $-1 $489 $641 #
straight-curve $-1 2.196757083057598 -54.632766001348237 12.851273473653912 0 -1 0 I I #
edge $-1 $597 -1.3618992193589641 $486 8.4792118241920882 $485 $642 forward 7 unknown #
vertex $-1 $596 $643 #
straight-curve $-1 2.196757083057598 -28.300335890159516 9.5906132331174447 0 0.55919289150049634 0.82903758062907751 I I #
point $-1 2.196757083057598 -26.100992855887494 12.851273473653912 #
point $-1 12.03786812660865 -28.300335890159531 9.5906132331174234 #
straight-curve $-1 0 -28.300335890159531 12.851273473653912 1 0 0 I I #
vertex $-1 $492 $644 #
point $-1 7.6173126048331241 -26.371626792394448 10.661750461885186 #
edge $-1 $605 19.249889465316208 $608 22.510549705852696 $497 $645 forward 7 unknown #
vertex $-1 $511 $646 #
straight-curve $-1 19.985599633467054 -54.632766001348237 12.851273473653912 0 -1 0 I I #
edge $-1 $608 7.5325220558457637 $508 17.373633099396816 $507 $647 forward 7 unknown #
vertex $-1 $607 $648 #
straight-curve $-1 19.985599633467054 -28.300335890159516 9.5906132331174447 0 0.55919289150049634 0.82903758062907751 I I #
point $-1 19.985599633467054 -26.100992855887494 12.851273473653912 #
point $-1 29.826710677018106 -28.300335890159531 9.5906132331174234 #
straight-curve $-1 0 -28.300335890159531 12.851273473653912 1 0 0 I I #
vertex $-1 $514 $649 #
point $-1 25.40615515524258 -26.371626792394448 10.661750461885186 #
straight-curve $-1 -48.830835901974545 28.300335890159531 0 0 0 -1 I I #
point $-1 -48.830835901974545 -28.300335890159531 -12.851273473653912 #
straight-curve $-1 -48.830835901974545 0 -12.851273473653912 0 1 0 I I #
point $-1 -48.830835901974545 28.300335890159531 -12.851273473653912 #
straight-curve $-1 -48.830835901974545 0 -4.7920860143145871 0 -1 0 I I #
point $-1 -48.830835901974545 -28.300335890159531 -4.7920860143145871 #
point $-1 -48.830835901974545 28.300335890159531 -4.7920860143145871 #
straight-curve $-1 -48.830835901974545 28.300335890159531 0 0 0 -1 I I #
straight-curve $-1 -48.830835901974545 -28.300335890159531 0 0 0 -1 I I #
straight-curve $-1 21.651319521462764 -2.5977889428517056 -12.851273473653912 1 0 0 I I #
straight-curve $-1 21.651319521462764 -2.5977889428517056 12.851273473653912 -1 0 0 I I #
point $-1 48.830835901974545 -2.5977889428517056 -12.851273473653912 #
point $-1 48.830835901974545 -2.5977889428517056 12.851273473653912 #
straight-curve $-1 48.830835901974545 0 -12.851273473653912 0 -1 0 I I #
straight-curve $-1 48.830835901974545 0 12.851273473653912 0 1 0 I I #
straight-curve $-1 -33.38092801776132 -28.300335890159531 32.10116293897012 0 0 -1 I I #
point $-1 -33.38092801776132 -28.300335890159531 12.851273473653912 #
straight-curve $-1 -14.230186247992895 -28.300335890159531 9.5906132331174252 1 0 0 I I #
point $-1 -33.38092801776132 -28.300335890159531 9.5906132331174234 #
point $-1 -28.460372495985791 -25.957108002079909 10.382154016134939 #
straight-curve $-1 -15.592085467351858 -28.300335890159531 32.10116293897012 0 0 -1 I I #
point $-1 -15.592085467351858 -28.300335890159531 12.851273473653912 #
straight-curve $-1 -5.3357649727881657 -28.300335890159531 9.5906132331174252 1 0 0 I I #
point $-1 -15.592085467351858 -28.300335890159531 9.5906132331174234 #
point $-1 -10.671529945576331 -25.957108002079909 10.382154016134939 #
straight-curve $-1 2.196757083057598 -28.300335890159531 32.10116293897012 0 0 -1 I I #
point $-1 2.196757083057598 -28.300335890159531 12.851273473653912 #
straight-curve $-1 3.5586563024165621 -28.300335890159531 9.5906132331174252 1 0 0 I I #
point $-1 2.196757083057598 -28.300335890159531 9.5906132331174234 #
point $-1 7.1173126048331241 -25.957108002079909 10.382154016134939 #
straight-curve $-1 19.985599633467054 -28.300335890159531 32.10116293897012 0 0 -1 I I #
point $-1 19.985599633467054 -28.300335890159531 12.851273473653912 #
straight-curve $-1 12.45307757762129 -28.300335890159531 9.5906132331174252 1 0 0 I I #
point $-1 19.985599633467054 -28.300335890159531 9.5906132331174234 #
point $-1 24.90615515524258 -25.957108002079909 10.382154016134939 #
End-of-ACIS-data 