500 0 8 0           
7 Unknown 11 ACIS 5.0 NT 24 Thu Mar 25 15:32:30 1999 
-1 9.9999999999999995e-007 1e-010 
body $-1 $8 $-1 $9 #
body $-1 $10 $-1 $11 #
body $-1 $12 $-1 $13 #
body $-1 $14 $-1 $15 #
body $-1 $16 $-1 $17 #
body $-1 $18 $-1 $19 #
body $-1 $20 $-1 $21 #
body $-1 $22 $-1 $23 #
lump $-1 $-1 $24 $0 #
transform $-1 1 0 0 0 1 0 0 0 1 78.061464278084657 43.256490534271265 21.164089803655614 1 rotate no_reflect no_shear #
lump $-1 $-1 $25 $1 #
transform $-1 1 0 0 0 1 0 0 0 1 78.061464278084657 43.256490534271265 21.164089803655614 1 rotate no_reflect no_shear #
lump $-1 $-1 $26 $2 #
transform $-1 1 0 0 0 1 0 0 0 1 78.061464278084657 43.256490534271265 21.164089803655614 1 rotate no_reflect no_shear #
lump $-1 $-1 $27 $3 #
transform $-1 1 0 0 0 1 0 0 0 1 78.061464278084657 43.256490534271265 21.164089803655614 1 rotate no_reflect no_shear #
lump $-1 $-1 $28 $4 #
transform $-1 1 0 0 0 1 0 0 0 1 78.061464278084657 43.256490534271265 21.164089803655614 1 rotate no_reflect no_shear #
lump $-1 $-1 $29 $5 #
transform $-1 1 0 0 0 1 0 0 0 1 78.061464278084657 43.256490534271265 21.164089803655614 1 rotate no_reflect no_shear #
lump $-1 $-1 $30 $6 #
transform $-1 1 0 0 0 1 0 0 0 1 78.061464278084657 43.256490534271265 21.164089803655614 1 rotate no_reflect no_shear #
lump $-1 $-1 $31 $7 #
transform $-1 1 0 0 0 1 0 0 0 1 78.061464278084657 43.256490534271265 21.164089803655614 1 rotate no_reflect no_shear #
shell $-1 $-1 $-1 $32 $-1 $8 #
shell $-1 $-1 $-1 $33 $-1 $10 #
shell $-1 $-1 $-1 $34 $-1 $12 #
shell $-1 $-1 $-1 $35 $-1 $14 #
shell $-1 $-1 $-1 $36 $-1 $16 #
shell $-1 $-1 $-1 $37 $-1 $18 #
shell $-1 $-1 $-1 $38 $-1 $20 #
shell $-1 $-1 $-1 $39 $-1 $22 #
face $-1 $40 $41 $24 $-1 $42 forward single #
face $-1 $43 $44 $25 $-1 $45 reversed single #
face $-1 $46 $47 $26 $-1 $48 reversed single #
face $-1 $49 $50 $27 $-1 $51 forward single #
face $-1 $52 $53 $28 $-1 $54 reversed single #
face $-1 $55 $56 $29 $-1 $57 forward single #
face $-1 $58 $59 $30 $-1 $60 forward single #
face $-1 $61 $62 $31 $-1 $63 forward single #
face $-1 $64 $65 $24 $-1 $66 reversed single #
loop $-1 $-1 $67 $32 #
plane-surface $-1 0 0 21.164089803655614 0 0 1 1 0 0 forward_v I I I I #
face $-1 $68 $69 $25 $-1 $70 reversed single #
loop $-1 $-1 $71 $33 #
plane-surface $-1 -71.734714534325761 -22.894668742491035 0 0 -1 0 0 0 -1 forward_v I I I I #
face $-1 $72 $73 $26 $-1 $74 reversed single #
loop $-1 $-1 $75 $34 #
plane-surface $-1 39.721483147046001 8.7147799726702786 234.88306770464993 0 -1 0 -0.57357644374324357 0 -0.81915203911291934 forward_v I I I I #
face $-1 $76 $77 $27 $-1 $78 forward single #
loop $-1 $79 $80 $35 #
cone-surface $-1 74.298336466783581 0.63752295468382414 17.722348406754385 -0.57357644374324357 0 -0.81915203911291934 0.81915203911291934 0 -0.57357644374324357 1 I I 0 1 1 forward I I I I #
face $-1 $81 $82 $28 $-1 $83 reversed single #
loop $-1 $-1 $84 $36 #
plane-surface $-1 -165.36429913041206 -6.2545877362289843 137.04231980362022 0 1 0 -0.55919291073839883 0 0.82903756765294845 forward_v I I I I #
face $-1 $85 $86 $29 $-1 $87 forward single #
loop $-1 $88 $89 $37 #
cone-surface $-1 -67.512080909968674 -3.921420379554462 13.642469810555335 0.55919291073839883 0 -0.82903756765294845 0.82903756765294845 0 0.55919291073839883 1 I I 0 1 1 forward I I I I #
face $-1 $90 $91 $30 $-1 $92 forward single #
loop $-1 $93 $94 $38 #
cone-surface $-1 -67.512080909968674 -0.42166934454267135 13.642469810555335 0.55919291073839883 0 -0.82903756765294845 0.82903756765294845 0 0.55919291073839883 1 I I 0 1 1 forward I I I I #
face $-1 $95 $96 $31 $-1 $97 forward single #
loop $-1 $98 $99 $39 #
cone-surface $-1 -67.512080909968674 3.0780816904691193 13.642469810555335 0.55919291073839883 0 -0.82903756765294845 0.82903756765294845 0 0.55919291073839883 1 I I 0 1 1 forward I I I I #
face $-1 $100 $101 $24 $-1 $102 reversed single #
loop $-1 $-1 $103 $40 #
plane-surface $-1 0 0 -21.164089803655614 0 0 1 1 0 0 forward_v I I I I #
coedge $-1 $104 $105 $106 $107 forward $41 $-1 #
face $-1 $108 $109 $25 $-1 $110 forward single #
loop $-1 $-1 $111 $43 #
plane-surface $-1 -65.407964790566865 -33.07557963838115 0 -1 0 0 0 0 1 forward_v I I I I #
coedge $-1 $112 $113 $114 $115 forward $44 $-1 #
face $-1 $116 $117 $26 $-1 $118 reversed single #
loop $-1 $-1 $119 $46 #
plane-surface $-1 -49.826951000982078 0.63752295468382414 106.99465242558321 0.57357644374324357 0 0.81915203911291934 0.81915203911291934 0 -0.57357644374324357 forward_v I I I I #
coedge $-1 $120 $121 $122 $123 reversed $47 $-1 #
face $-1 $-1 $124 $27 $-1 $125 forward single #
loop $-1 $126 $127 $49 #
cone-surface $-1 72.903255787282035 0.63752295468382414 15.729966753346936 -0.57357644374324357 0 -0.81915203911291934 0.40957601955645967 0 -0.28678822187162178 1 I I -0.70710678118654502 0.70710678118655002 0.5 forward I I I I #
loop $-1 $-1 $128 $35 #
coedge $-1 $80 $80 $129 $130 reversed $50 $-1 #
face $-1 $131 $132 $28 $-1 $133 reversed single #
loop $-1 $-1 $134 $52 #
plane-surface $-1 -78.061464278084657 -0.42166934454267135 7.6105468585585641 -0.55919291073839883 0 0.82903756765294845 0.82903756765294845 0 0.55919291073839883 forward_v I I I I #
coedge $-1 $135 $136 $137 $138 reversed $53 $-1 #
face $-1 $-1 $139 $29 $-1 $140 forward single #
loop $-1 $141 $142 $55 #
cone-surface $-1 -66.7300777742295 -3.921420379554462 12.483102506177119 0.55919291073839883 0 -0.82903756765294845 0.41451878382647422 0 0.27959645536919941 1 I I -0.70710678118654746 0.70710678118654746 0.5 forward I I I I #
loop $-1 $-1 $143 $37 #
coedge $-1 $89 $89 $144 $145 reversed $56 $-1 #
face $-1 $-1 $146 $30 $-1 $147 forward single #
loop $-1 $148 $149 $58 #
cone-surface $-1 -66.7300777742295 -0.42166934454267135 12.483102506177119 0.55919291073839883 0 -0.82903756765294845 0.41451878382647422 0 0.27959645536919941 1 I I -0.70710678118654746 0.70710678118654746 0.5 forward I I I I #
loop $-1 $-1 $150 $38 #
coedge $-1 $94 $94 $151 $152 reversed $59 $-1 #
face $-1 $-1 $153 $31 $-1 $154 forward single #
loop $-1 $155 $156 $61 #
cone-surface $-1 -66.7300777742295 3.0780816904691193 12.483102506177119 0.55919291073839883 0 -0.82903756765294845 0.41451878382647422 0 0.27959645536919941 1 I I -0.70710678118654746 0.70710678118654746 0.5 forward I I I I #
loop $-1 $-1 $157 $39 #
coedge $-1 $99 $99 $158 $159 reversed $62 $-1 #
face $-1 $160 $161 $24 $-1 $162 reversed single #
loop $-1 $-1 $163 $64 #
plane-surface $-1 0 -43.256490534271265 0 0 1 0 0 0 1 forward_v I I I I #
coedge $-1 $164 $165 $166 $167 forward $65 $-1 #
coedge $-1 $168 $67 $169 $170 forward $41 $-1 #
coedge $-1 $67 $168 $171 $172 forward $41 $-1 #
coedge $-1 $173 $174 $67 $107 reversed $175 $-1 #
edge $-1 $176 -43.256490534271265 $177 43.256490534271265 $106 $178 forward 7 unknown #
face $-1 $179 $180 $25 $-1 $181 reversed single #
loop $-1 $-1 $182 $68 #
plane-surface $-1 0 0 21.164089803655614 0 0 1 1 0 0 forward_v I I I I #
coedge $-1 $183 $184 $185 $186 reversed $69 $-1 #
coedge $-1 $187 $71 $188 $189 reversed $44 $-1 #
coedge $-1 $71 $187 $190 $191 reversed $44 $-1 #
coedge $-1 $184 $183 $71 $115 reversed $69 $-1 #
edge $-1 $192 -21.164089803655614 $193 21.164089803655614 $114 $194 forward 7 unknown #
face $-1 $195 $196 $26 $-1 $197 reversed single #
loop $-1 $-1 $198 $72 #
plane-surface $-1 39.721483147046001 -7.4397340633026303 234.88306770464993 0 1 0 0.57357644374324357 0 0.81915203911291934 forward_v I I I I #
coedge $-1 $199 $200 $201 $202 reversed $73 $-1 #
coedge $-1 $121 $75 $203 $204 reversed $47 $-1 #
coedge $-1 $75 $120 $199 $205 reversed $47 $-1 #
coedge $-1 $201 $206 $75 $123 forward $207 $-1 #
edge $-1 $208 -58.200722704561656 $209 -52.891051997219321 $122 $210 forward 7 unknown #
loop $-1 $-1 $129 $76 #
plane-surface $-1 -49.826951000982078 0.63752295468382414 106.99465242558321 0.57357644374324357 0 0.81915203911291934 0.81915203911291934 0 -0.57357644374324357 forward_v I I I I #
loop $-1 $-1 $211 $49 #
coedge $-1 $127 $127 $128 $212 reversed $77 $-1 #
coedge $-1 $128 $128 $127 $212 forward $79 $-1 #
coedge $-1 $129 $129 $80 $130 forward $124 $-1 #
edge $-1 $213 0 $213 6.2831853071796004 $129 $214 forward 7 unknown #
face $-1 $215 $216 $28 $-1 $217 reversed single #
loop $-1 $-1 $218 $81 #
plane-surface $-1 -165.36429913041206 5.4112490471436416 137.04231980362022 0 -1 0 0.55919291073839883 0 -0.82903756765294845 forward_v I I I I #
coedge $-1 $219 $220 $221 $222 reversed $82 $-1 #
coedge $-1 $136 $84 $223 $224 reversed $53 $-1 #
coedge $-1 $84 $135 $219 $225 reversed $53 $-1 #
coedge $-1 $221 $226 $84 $138 forward $227 $-1 #
edge $-1 $228 4.6206852871213755 $229 24.714638662613361 $137 $230 forward 7 unknown #
loop $-1 $-1 $144 $85 #
plane-surface $-1 -78.061464278084657 -0.42166934454267135 7.6105468585585641 -0.55919291073839883 0 0.82903756765294845 0.82903756765294845 0 0.55919291073839883 forward_v I I I I #
loop $-1 $-1 $231 $55 #
coedge $-1 $142 $142 $143 $232 reversed $86 $-1 #
coedge $-1 $143 $143 $142 $232 forward $88 $-1 #
coedge $-1 $144 $144 $89 $145 forward $139 $-1 #
edge $-1 $233 0 $233 6.2831853071796004 $144 $234 forward 7 unknown #
loop $-1 $-1 $151 $90 #
plane-surface $-1 -78.061464278084657 -0.42166934454267135 7.6105468585585641 -0.55919291073839883 0 0.82903756765294845 0.82903756765294845 0 0.55919291073839883 forward_v I I I I #
loop $-1 $-1 $235 $58 #
coedge $-1 $149 $149 $150 $236 reversed $91 $-1 #
coedge $-1 $150 $150 $149 $236 forward $93 $-1 #
coedge $-1 $151 $151 $94 $152 forward $146 $-1 #
edge $-1 $237 0 $237 6.2831853071796004 $151 $238 forward 7 unknown #
loop $-1 $-1 $158 $95 #
plane-surface $-1 -78.061464278084657 -0.42166934454267135 7.6105468585585641 -0.55919291073839883 0 0.82903756765294845 0.82903756765294845 0 0.55919291073839883 forward_v I I I I #
loop $-1 $-1 $239 $61 #
coedge $-1 $156 $156 $157 $240 reversed $96 $-1 #
coedge $-1 $157 $157 $156 $240 forward $98 $-1 #
coedge $-1 $158 $158 $99 $159 forward $153 $-1 #
edge $-1 $241 0 $241 6.2831853071796004 $158 $242 forward 7 unknown #
face $-1 $243 $244 $24 $-1 $245 reversed single #
loop $-1 $-1 $246 $100 #
plane-surface $-1 -78.061464278084657 0 0 1 0 0 0 0 -1 forward_v I I I I #
coedge $-1 $247 $171 $248 $249 forward $101 $-1 #
coedge $-1 $250 $103 $247 $251 forward $65 $-1 #
coedge $-1 $103 $250 $252 $253 forward $65 $-1 #
coedge $-1 $174 $173 $103 $167 reversed $175 $-1 #
edge $-1 $254 -43.256490534271265 $255 43.256490534271265 $166 $256 forward 7 unknown #
coedge $-1 $105 $104 $257 $258 forward $41 $-1 #
coedge $-1 $259 $260 $104 $170 reversed $244 $-1 #
edge $-1 $177 -78.061464278084657 $261 78.061464278084657 $169 $262 forward 7 unknown #
coedge $-1 $163 $263 $105 $172 reversed $101 $-1 #
edge $-1 $264 -78.061464278084657 $176 78.061464278084657 $171 $265 forward 7 unknown #
coedge $-1 $166 $106 $263 $266 forward $175 $-1 #
coedge $-1 $106 $166 $259 $267 reversed $175 $-1 #
loop $-1 $-1 $173 $243 #
vertex $-1 $107 $268 #
vertex $-1 $107 $269 #
straight-curve $-1 78.061464278084657 0 21.164089803655614 0 1 0 I I #
face $-1 $270 $271 $25 $-1 $272 reversed single #
loop $-1 $-1 $273 $108 #
plane-surface $-1 -78.061464278084657 0 0 1 0 0 0 0 -1 forward_v I I I I #
coedge $-1 $190 $274 $184 $275 forward $109 $-1 #
coedge $-1 $114 $111 $276 $277 reversed $69 $-1 #
coedge $-1 $111 $114 $182 $275 reversed $69 $-1 #
coedge $-1 $278 $279 $111 $186 forward $280 $-1 #
edge $-1 $281 -21.164089803655614 $282 21.164089803655614 $185 $283 forward 7 unknown #
coedge $-1 $113 $112 $273 $284 reversed $44 $-1 #
coedge $-1 $276 $285 $112 $189 forward $271 $-1 #
edge $-1 $286 -42.194107010921776 $193 -29.540607523403985 $188 $287 forward 7 unknown #
coedge $-1 $288 $182 $113 $191 forward $109 $-1 #
edge $-1 $192 29.540607523403985 $289 42.194107010921776 $190 $290 forward 7 unknown #
vertex $-1 $191 $291 #
vertex $-1 $189 $292 #
straight-curve $-1 -65.407964790566865 -22.894668742491035 0 0 0 -1 I I #
face $-1 $-1 $207 $26 $-1 $293 forward single #
loop $-1 $-1 $294 $116 #
plane-surface $-1 78.061464278084657 0 0 -1 0 0 0 0 1 forward_v I I I I #
coedge $-1 $295 $296 $297 $298 reversed $117 $-1 #
coedge $-1 $299 $119 $121 $205 forward $73 $-1 #
coedge $-1 $119 $299 $295 $300 forward $73 $-1 #
coedge $-1 $297 $122 $119 $202 forward $207 $-1 #
edge $-1 $209 -8.3960184953283665 $301 7.7584955406445424 $201 $302 forward 7 unknown #
coedge $-1 $303 $304 $120 $204 forward $196 $-1 #
edge $-1 $305 -99.995315574769847 $208 -96.277444048669352 $203 $306 forward 7 unknown #
edge $-1 $209 149.64101744099673 $305 156.12292855616931 $121 $307 forward 7 unknown #
coedge $-1 $122 $297 $303 $308 forward $207 $-1 #
loop $-1 $-1 $297 $195 #
vertex $-1 $204 $309 #
vertex $-1 $123 $310 #
straight-curve $-1 19.860741573523001 8.7147799726702786 21.164089803655614 -1 0 0 I I #
coedge $-1 $211 $211 $-1 $311 reversed $126 $-1 #
edge $-1 $312 0 $312 6.2831853071796004 $127 $313 forward 7 unknown #
vertex $-1 $130 $314 #
ellipse-curve $-1 75.406628924413496 0.63752295468382414 19.305154040605366 0.57357644374324357 0 0.81915203911291934 0.81915203911291934 0 -0.57357644374324357 1 I I #
face $-1 $-1 $227 $28 $-1 $315 forward single #
loop $-1 $-1 $316 $131 #
plane-surface $-1 -78.061464278084657 0 0 1 0 0 0 0 -1 forward_v I I I I #
coedge $-1 $317 $318 $319 $320 reversed $132 $-1 #
coedge $-1 $321 $134 $136 $225 forward $82 $-1 #
coedge $-1 $134 $321 $317 $322 forward $82 $-1 #
coedge $-1 $319 $137 $134 $222 forward $227 $-1 #
edge $-1 $229 -6.0437530639576487 $323 5.6220837194149773 $221 $324 forward 7 unknown #
coedge $-1 $325 $326 $135 $224 forward $216 $-1 #
edge $-1 $327 -60.910613043251544 $228 -47.357070098154495 $223 $328 forward 7 unknown #
edge $-1 $229 -24.23768736123634 $327 0 $136 $329 forward 7 unknown #
coedge $-1 $137 $319 $325 $330 forward $227 $-1 #
loop $-1 $-1 $319 $215 #
vertex $-1 $224 $331 #
vertex $-1 $138 $332 #
straight-curve $-1 -82.682149565206032 -6.2545877362289843 21.164089803655614 1 0 0 I I #
coedge $-1 $231 $231 $-1 $333 reversed $141 $-1 #
edge $-1 $334 0 $334 6.2831853071796004 $142 $335 forward 7 unknown #
vertex $-1 $145 $336 #
ellipse-curve $-1 -68.014487590338661 -3.921420379554462 14.387318331107091 -0.55919291073839883 0 0.82903756765294845 0.82903756765294845 0 0.55919291073839883 1 I I #
coedge $-1 $235 $235 $-1 $337 reversed $148 $-1 #
edge $-1 $338 0 $338 6.2831853071796004 $149 $339 forward 7 unknown #
vertex $-1 $152 $340 #
ellipse-curve $-1 -68.014487590338661 -0.42166934454267135 14.387318331107091 -0.55919291073839883 0 0.82903756765294845 0.82903756765294845 0 0.55919291073839883 1 I I #
coedge $-1 $239 $239 $-1 $341 reversed $155 $-1 #
edge $-1 $342 0 $342 6.2831853071796004 $156 $343 forward 7 unknown #
vertex $-1 $159 $344 #
ellipse-curve $-1 -68.014487590338661 3.0780816904691193 14.387318331107091 -0.55919291073839883 0 0.82903756765294845 0.82903756765294845 0 0.55919291073839883 1 I I #
face $-1 $-1 $175 $24 $-1 $345 reversed single #
loop $-1 $-1 $259 $160 #
plane-surface $-1 0 43.256490534271265 0 0 -1 0 0 0 -1 forward_v I I I I #
coedge $-1 $346 $257 $260 $347 forward $161 $-1 #
coedge $-1 $263 $163 $164 $251 reversed $101 $-1 #
coedge $-1 $257 $346 $163 $249 reversed $161 $-1 #
edge $-1 $264 -21.164089803655614 $348 21.164089803655614 $248 $349 forward 7 unknown #
coedge $-1 $165 $164 $346 $350 forward $65 $-1 #
edge $-1 $255 -78.061464278084657 $348 78.061464278084657 $247 $351 forward 7 unknown #
coedge $-1 $260 $259 $165 $253 reversed $244 $-1 #
edge $-1 $352 -78.061464278084657 $254 78.061464278084657 $252 $353 forward 7 unknown #
vertex $-1 $167 $354 #
vertex $-1 $266 $355 #
straight-curve $-1 78.061464278084657 0 -21.164089803655614 0 -1 0 I I #
coedge $-1 $246 $248 $168 $258 reversed $161 $-1 #
edge $-1 $261 -43.256490534271265 $264 43.256490534271265 $257 $356 forward 7 unknown #
coedge $-1 $252 $169 $174 $267 forward $244 $-1 #
coedge $-1 $169 $252 $246 $347 reversed $244 $-1 #
vertex $-1 $170 $357 #
straight-curve $-1 0 43.256490534271265 21.164089803655614 -1 0 0 I I #
coedge $-1 $171 $247 $173 $266 reversed $101 $-1 #
vertex $-1 $258 $358 #
straight-curve $-1 0 -43.256490534271265 21.164089803655614 1 0 0 I I #
edge $-1 $176 -21.164089803655614 $255 21.164089803655614 $173 $359 forward 7 unknown #
edge $-1 $177 -21.164089803655614 $254 21.164089803655614 $174 $360 forward 7 unknown #
point $-1 78.061464278084657 -43.256490534271265 21.164089803655614 #
point $-1 78.061464278084657 43.256490534271265 21.164089803655614 #
face $-1 $-1 $280 $25 $-1 $361 reversed single #
loop $-1 $-1 $276 $179 #
plane-surface $-1 0 0 -21.164089803655614 0 0 1 1 0 0 forward_v I I I I #
coedge $-1 $362 $363 $187 $284 forward $180 $-1 #
coedge $-1 $182 $288 $278 $364 forward $109 $-1 #
edge $-1 $282 -26.71870071508069 $192 -6.3568789233004601 $182 $365 forward 7 unknown #
coedge $-1 $366 $188 $183 $277 forward $271 $-1 #
edge $-1 $193 6.3568789233004601 $281 26.71870071508069 $276 $367 forward 7 unknown #
coedge $-1 $368 $185 $274 $364 reversed $280 $-1 #
coedge $-1 $185 $368 $366 $369 reversed $280 $-1 #
loop $-1 $-1 $185 $270 #
vertex $-1 $369 $370 #
vertex $-1 $186 $371 #
straight-curve $-1 -65.407964790566865 -43.256490534271265 0 0 0 1 I I #
edge $-1 $289 -21.164089803655614 $286 21.164089803655614 $273 $372 forward 7 unknown #
coedge $-1 $188 $366 $362 $373 forward $271 $-1 #
vertex $-1 $189 $374 #
straight-curve $-1 -35.86735726716288 -22.894668742491035 -21.164089803655614 1 0 0 I I #
coedge $-1 $274 $190 $363 $375 forward $109 $-1 #
vertex $-1 $375 $376 #
straight-curve $-1 -35.86735726716288 -22.894668742491035 21.164089803655614 -1 0 0 I I #
point $-1 -65.407964790566865 -22.894668742491035 21.164089803655614 #
point $-1 -65.407964790566865 -22.894668742491035 -21.164089803655614 #
plane-surface $-1 0 0 21.164089803655614 0 0 1 1 0 0 forward_v I I I I #
coedge $-1 $304 $303 $296 $377 forward $196 $-1 #
coedge $-1 $296 $198 $200 $300 reversed $117 $-1 #
coedge $-1 $198 $295 $294 $377 reversed $117 $-1 #
coedge $-1 $206 $201 $198 $298 forward $207 $-1 #
edge $-1 $301 52.891051997219321 $378 58.200722704561656 $297 $379 forward 7 unknown #
coedge $-1 $200 $199 $304 $380 reversed $73 $-1 #
edge $-1 $381 -156.12292855616931 $301 -149.64101744099673 $295 $382 forward 7 unknown #
vertex $-1 $202 $383 #
straight-curve $-1 72.751793570742322 0.31876147734191207 21.164089803655621 0 -1 0 I I #
coedge $-1 $294 $203 $206 $308 reversed $196 $-1 #
coedge $-1 $203 $294 $299 $380 forward $196 $-1 #
vertex $-1 $204 $384 #
straight-curve $-1 78.061464278084657 8.7147799726702786 117.44153385232497 0 0 1 I I #
straight-curve $-1 -49.826951000982078 8.7147799726702786 106.99465242558321 0.81915203911291934 0 -0.57357644374324357 I I #
edge $-1 $378 -7.4397340633026303 $208 8.7147799726702786 $303 $385 forward 7 unknown #
point $-1 78.061464278084657 8.7147799726702786 21.164089803655614 #
point $-1 72.751793570742322 8.7147799726702786 21.164089803655614 #
edge $-1 $386 1 $386 0 $211 $-1 forward 7 unknown #
vertex $-1 $212 $387 #
ellipse-curve $-1 73.190044009153652 0.63752295468382414 16.139542772903397 0.57357644374324357 0 0.81915203911291934 0.81915203911291934 0 -0.57357644374324357 1 I I #
point $-1 76.225780963526418 0.63752295468382414 18.731577596862131 #
plane-surface $-1 0 0 21.164089803655614 0 0 1 1 0 0 forward_v I I I I #
coedge $-1 $326 $325 $318 $388 forward $216 $-1 #
coedge $-1 $318 $218 $220 $322 reversed $132 $-1 #
coedge $-1 $218 $317 $316 $388 reversed $132 $-1 #
coedge $-1 $226 $221 $218 $320 forward $227 $-1 #
edge $-1 $323 -24.714638662613361 $389 -4.6206852871213755 $319 $390 forward 7 unknown #
coedge $-1 $220 $219 $326 $391 reversed $82 $-1 #
edge $-1 $392 0 $323 24.23768736123634 $317 $393 forward 7 unknown #
vertex $-1 $222 $394 #
straight-curve $-1 -57.967510902592664 -0.21083467227133568 21.164089803655614 0 1 0 I I #
coedge $-1 $316 $223 $226 $330 reversed $216 $-1 #
coedge $-1 $223 $316 $321 $391 forward $216 $-1 #
vertex $-1 $224 $395 #
straight-curve $-1 -78.061464278084657 -6.2545877362289843 68.521159901810108 0 0 1 I I #
straight-curve $-1 -78.061464278084657 -6.2545877362289843 7.6105468585585641 -0.82903756765294845 0 -0.55919291073839883 I I #
edge $-1 $389 -5.4112490471436416 $228 6.2545877362289843 $325 $396 forward 7 unknown #
point $-1 -78.061464278084657 -6.2545877362289843 21.164089803655614 #
point $-1 -57.967510902592672 -6.2545877362289843 21.164089803655614 #
edge $-1 $397 1 $397 0 $231 $-1 forward 7 unknown #
vertex $-1 $232 $398 #
ellipse-curve $-1 -67.009674229598701 -3.921420379554462 12.897621290003594 -0.55919291073839883 0 0.82903756765294845 0.82903756765294845 0 0.55919291073839883 1 I I #
point $-1 -67.185450022685714 -3.921420379554462 14.946511241845478 #
edge $-1 $399 1 $399 0 $235 $-1 forward 7 unknown #
vertex $-1 $236 $400 #
ellipse-curve $-1 -67.009674229598701 -0.42166934454267135 12.897621290003594 -0.55919291073839883 0 0.82903756765294845 0.82903756765294845 0 0.55919291073839883 1 I I #
point $-1 -67.185450022685714 -0.42166934454267135 14.946511241845478 #
edge $-1 $401 1 $401 0 $239 $-1 forward 7 unknown #
vertex $-1 $240 $402 #
ellipse-curve $-1 -67.009674229598701 3.0780816904691193 12.897621290003594 -0.55919291073839883 0 0.82903756765294845 0.82903756765294845 0 0.55919291073839883 1 I I #
point $-1 -67.185450022685714 3.0780816904691193 14.946511241845478 #
plane-surface $-1 78.061464278084657 0 0 -1 0 0 0 0 1 forward_v I I I I #
coedge $-1 $248 $246 $250 $350 reversed $161 $-1 #
edge $-1 $261 -21.164089803655614 $352 21.164089803655614 $260 $403 forward 7 unknown #
vertex $-1 $350 $404 #
straight-curve $-1 -78.061464278084657 -43.256490534271265 0 0 0 -1 I I #
edge $-1 $348 -43.256490534271265 $352 43.256490534271265 $346 $405 forward 7 unknown #
straight-curve $-1 0 -43.256490534271265 -21.164089803655614 -1 0 0 I I #
vertex $-1 $253 $406 #
straight-curve $-1 0 43.256490534271265 -21.164089803655614 1 0 0 I I #
point $-1 78.061464278084657 43.256490534271265 -21.164089803655614 #
point $-1 78.061464278084657 -43.256490534271265 -21.164089803655614 #
straight-curve $-1 -78.061464278084657 0 21.164089803655614 0 -1 0 I I #
point $-1 -78.061464278084657 43.256490534271265 21.164089803655614 #
point $-1 -78.061464278084657 -43.256490534271265 21.164089803655614 #
straight-curve $-1 78.061464278084657 -43.256490534271265 0 0 0 -1 I I #
straight-curve $-1 78.061464278084657 43.256490534271265 0 0 0 -1 I I #
plane-surface $-1 0 -43.256490534271265 0 0 1 0 0 0 1 forward_v I I I I #
coedge $-1 $407 $273 $285 $373 reversed $180 $-1 #
coedge $-1 $273 $407 $288 $375 reversed $180 $-1 #
edge $-1 $408 -78.061464278084657 $282 -65.407964790566865 $278 $409 forward 7 unknown #
straight-curve $-1 -65.407964790566865 -16.537789819190575 21.164089803655614 0 1 0 I I #
coedge $-1 $285 $276 $279 $369 forward $271 $-1 #
straight-curve $-1 -65.407964790566865 -16.537789819190575 -21.164089803655614 0 -1 0 I I #
coedge $-1 $279 $278 $407 $410 forward $280 $-1 #
edge $-1 $281 65.407964790566865 $411 78.061464278084657 $279 $412 forward 7 unknown #
point $-1 -65.407964790566865 -43.256490534271265 -21.164089803655614 #
point $-1 -65.407964790566865 -43.256490534271265 21.164089803655614 #
straight-curve $-1 -78.061464278084657 -22.894668742491035 0 0 0 -1 I I #
edge $-1 $411 -43.256490534271265 $286 -22.894668742491035 $362 $413 forward 7 unknown #
point $-1 -78.061464278084657 -22.894668742491035 -21.164089803655614 #
edge $-1 $289 22.894668742491035 $408 43.256490534271265 $363 $414 forward 7 unknown #
point $-1 -78.061464278084657 -22.894668742491035 21.164089803655614 #
edge $-1 $378 96.277444048669352 $381 99.995315574769847 $294 $415 forward 7 unknown #
vertex $-1 $308 $416 #
straight-curve $-1 19.860741573523001 -7.4397340633026303 21.164089803655614 1 0 0 I I #
edge $-1 $381 -7.7584955406445424 $305 8.3960184953283665 $304 $417 forward 7 unknown #
vertex $-1 $380 $418 #
straight-curve $-1 -49.826951000982078 -7.4397340633026303 106.99465242558321 -0.81915203911291934 0 0.57357644374324357 I I #
point $-1 72.751793570742322 -7.4397340633026303 21.164089803655614 #
point $-1 78.061464278084657 8.7147799726702786 17.446218277555118 #
straight-curve $-1 78.061464278084657 0 21.164089803655614 0 1 0 I I #
vertex $-1 $311 $419 #
point $-1 74.009196048266574 0.63752295468382414 15.565966329160155 #
edge $-1 $389 47.357070098154495 $392 60.910613043251544 $316 $420 forward 7 unknown #
vertex $-1 $330 $421 #
straight-curve $-1 -82.682149565206032 5.4112490471436416 21.164089803655614 -1 0 0 I I #
edge $-1 $392 -5.6220837194149773 $327 6.0437530639576487 $326 $422 forward 7 unknown #
vertex $-1 $391 $423 #
straight-curve $-1 -78.061464278084657 5.4112490471436416 7.6105468585585641 0.82903756765294845 0 0.55919291073839883 I I #
point $-1 -57.967510902592672 5.4112490471436416 21.164089803655614 #
point $-1 -78.061464278084657 -6.2545877362289843 7.6105468585585641 #
straight-curve $-1 -78.061464278084657 0 21.164089803655614 0 -1 0 I I #
vertex $-1 $333 $424 #
point $-1 -66.180636661945755 -3.921420379554462 13.456814200741992 #
vertex $-1 $337 $425 #
point $-1 -66.180636661945755 -0.42166934454267135 13.456814200741992 #
vertex $-1 $341 $426 #
point $-1 -66.180636661945755 3.0780816904691193 13.456814200741992 #
straight-curve $-1 -78.061464278084657 43.256490534271265 0 0 0 -1 I I #
point $-1 -78.061464278084657 -43.256490534271265 -21.164089803655614 #
straight-curve $-1 -78.061464278084657 0 -21.164089803655614 0 1 0 I I #
point $-1 -78.061464278084657 43.256490534271265 -21.164089803655614 #
coedge $-1 $363 $362 $368 $410 reversed $180 $-1 #
vertex $-1 $375 $427 #
straight-curve $-1 0 -43.256490534271265 21.164089803655614 1 0 0 I I #
edge $-1 $408 -21.164089803655614 $411 21.164089803655614 $407 $428 forward 7 unknown #
vertex $-1 $373 $429 #
straight-curve $-1 0 -43.256490534271265 -21.164089803655614 -1 0 0 I I #
straight-curve $-1 -78.061464278084657 0 -21.164089803655614 0 1 0 I I #
straight-curve $-1 -78.061464278084657 0 21.164089803655614 0 -1 0 I I #
straight-curve $-1 78.061464278084657 -7.4397340633026303 117.44153385232497 0 0 -1 I I #
point $-1 78.061464278084657 -7.4397340633026303 21.164089803655614 #
straight-curve $-1 78.061464278084657 0.31876147734191207 17.446218277555126 0 1 0 I I #
point $-1 78.061464278084657 -7.4397340633026303 17.446218277555118 #
point $-1 72.616467565410417 0.63752295468382414 15.320390733790473 #
straight-curve $-1 -78.061464278084657 5.4112490471436416 68.521159901810108 0 0 -1 I I #
point $-1 -78.061464278084657 5.4112490471436416 21.164089803655614 #
straight-curve $-1 -78.061464278084657 -0.21083467227133568 7.6105468585585658 0 -1 0 I I #
point $-1 -78.061464278084657 5.4112490471436416 7.6105468585585641 #
point $-1 -66.450481318860298 -3.921420379554462 12.068583722350644 #
point $-1 -66.450481318860298 -0.42166934454267135 12.068583722350644 #
point $-1 -66.450481318860298 3.0780816904691193 12.068583722350644 #
point $-1 -78.061464278084657 -43.256490534271265 21.164089803655614 #
straight-curve $-1 -78.061464278084657 -43.256490534271265 0 0 0 -1 I I #
point $-1 -78.061464278084657 -43.256490534271265 -21.164089803655614 #
End-of-ACIS-data 