500 0 4 0           
7 Unknown 11 ACIS 5.0 NT 24 Thu Mar 25 16:16:47 1999 
-1 9.9999999999999995e-007 1e-010 
body $-1 $4 $-1 $5 #
body $-1 $6 $-1 $7 #
body $-1 $8 $-1 $9 #
body $-1 $10 $-1 $11 #
lump $-1 $-1 $12 $0 #
transform $-1 1 0 0 0 1 0 0 0 1 74.887539292580954 31.486042743372909 15.002162002347164 1 rotate no_reflect no_shear #
lump $-1 $-1 $13 $1 #
transform $-1 1 0 0 0 1 0 0 0 1 74.887539292580954 31.486042743372909 15.002162002347164 1 rotate no_reflect no_shear #
lump $-1 $-1 $14 $2 #
transform $-1 1 0 0 0 1 0 0 0 1 74.887539292580954 31.486042743372909 15.002162002347164 1 rotate no_reflect no_shear #
lump $-1 $-1 $15 $3 #
transform $-1 1 0 0 0 1 0 0 0 1 74.887539292580954 31.486042743372909 15.002162002347164 1 rotate no_reflect no_shear #
shell $-1 $-1 $-1 $16 $-1 $4 #
shell $-1 $-1 $-1 $17 $-1 $6 #
shell $-1 $-1 $-1 $18 $-1 $8 #
shell $-1 $-1 $-1 $19 $-1 $10 #
face $-1 $20 $21 $12 $-1 $22 forward single #
face $-1 $23 $24 $13 $-1 $25 forward single #
face $-1 $26 $27 $14 $-1 $28 forward single #
face $-1 $29 $30 $15 $-1 $31 reversed single #
face $-1 $32 $33 $12 $-1 $34 reversed single #
loop $-1 $-1 $35 $16 #
plane-surface $-1 0 0 15.002162002347164 0 0 1 1 0 0 forward_v I I I I #
face $-1 $36 $37 $13 $-1 $38 reversed single #
loop $-1 $-1 $39 $17 #
plane-surface $-1 0 -40.349039121512398 -7.0565404200545663 0 0 1 1 0 0 forward_v I I I I #
face $-1 $40 $41 $14 $-1 $42 forward single #
loop $-1 $-1 $43 $18 #
plane-surface $-1 -45.096619321915568 82.221700795144528 160.28542369660119 -1 0 0 0 0.6560590369687036 0.75470957328743171 forward_v I I I I #
face $-1 $44 $45 $15 $-1 $46 reversed single #
loop $-1 $47 $48 $19 #
cone-surface $-1 -59.992079307248261 25.47643985248375 9.5547728232268163 0 -0.6560590369687036 -0.75470957328743171 1.5 0 0 1 I I 0 1 1.5 forward I I I I #
face $-1 $49 $50 $12 $-1 $51 reversed single #
loop $-1 $-1 $52 $20 #
plane-surface $-1 0 0 -15.002162002347164 0 0 1 1 0 0 forward_v I I I I #
coedge $-1 $53 $54 $55 $56 forward $21 $-1 #
face $-1 $57 $58 $13 $-1 $59 reversed single #
loop $-1 $-1 $60 $23 #
plane-surface $-1 0 -40.349039121512398 -13.399048132646968 0 0 1 1 0 0 forward_v I I I I #
coedge $-1 $61 $62 $63 $64 forward $24 $-1 #
face $-1 $65 $66 $14 $-1 $67 reversed single #
loop $-1 $-1 $68 $26 #
plane-surface $-1 -59.992079307248261 -16.039593023348701 47.248738048502091 0 0.6560590369687036 0.75470957328743171 1 0 0 forward_v I I I I #
coedge $-1 $69 $70 $71 $72 reversed $27 $-1 #
face $-1 $73 $74 $15 $-1 $75 forward single #
loop $-1 $76 $77 $29 #
cone-surface $-1 -59.992079307248261 24.189889800953306 8.0747663212360781 0 -0.6560590369687036 -0.75470957328743171 0.75 0 0 1 I I -0.70710678118654757 0.70710678118654757 0.75 forward I I I I #
loop $-1 $-1 $78 $19 #
coedge $-1 $48 $48 $79 $80 reversed $30 $-1 #
face $-1 $81 $82 $12 $-1 $83 reversed single #
loop $-1 $-1 $84 $32 #
plane-surface $-1 0 -31.486042743372909 0 0 1 0 0 0 1 forward_v I I I I #
coedge $-1 $85 $86 $87 $88 forward $33 $-1 #
coedge $-1 $89 $35 $90 $91 forward $21 $-1 #
coedge $-1 $35 $89 $92 $93 forward $21 $-1 #
coedge $-1 $94 $95 $35 $56 reversed $96 $-1 #
edge $-1 $97 -31.486042743372909 $98 31.486042743372909 $55 $99 forward 7 unknown #
face $-1 $100 $101 $13 $-1 $102 reversed single #
loop $-1 $-1 $103 $36 #
plane-surface $-1 0 -49.21203549965189 -10.227794276350767 0 1 0 0 0 1 forward_v I I I I #
coedge $-1 $104 $105 $106 $107 forward $37 $-1 #
coedge $-1 $108 $39 $109 $110 reversed $24 $-1 #
coedge $-1 $39 $108 $111 $112 forward $24 $-1 #
coedge $-1 $113 $114 $39 $64 reversed $115 $-1 #
edge $-1 $116 -8.862996378139492 $117 8.862996378139492 $63 $118 forward 7 unknown #
face $-1 $119 $120 $14 $-1 $121 forward single #
loop $-1 $-1 $122 $40 #
plane-surface $-1 0 31.486042743372909 0 0 -1 0 0 0 -1 forward_v I I I I #
coedge $-1 $123 $124 $122 $125 reversed $41 $-1 #
coedge $-1 $70 $43 $124 $126 forward $27 $-1 #
coedge $-1 $43 $69 $127 $128 reversed $27 $-1 #
coedge $-1 $129 $122 $43 $72 forward $66 $-1 #
edge $-1 $130 -74.207379560143835 $131 -65.14054984595343 $71 $132 forward 7 unknown #
face $-1 $133 $134 $15 $-1 $135 forward single #
loop $-1 $-1 $136 $44 #
plane-surface $-1 -45.096619321915568 82.221700795144528 160.28542369660119 -1 0 0 0 0.6560590369687036 0.75470957328743171 forward_v I I I I #
loop $-1 $-1 $137 $29 #
coedge $-1 $77 $77 $78 $138 forward $45 $-1 #
coedge $-1 $78 $78 $77 $138 reversed $47 $-1 #
coedge $-1 $79 $79 $48 $80 forward $134 $-1 #
edge $-1 $139 1.5195150395739386e-016 $139 6.2831853071796004 $79 $140 forward 7 unknown #
face $-1 $141 $142 $12 $-1 $143 reversed single #
loop $-1 $-1 $144 $49 #
plane-surface $-1 -74.887539292580954 0 0 1 0 0 0 0 -1 forward_v I I I I #
coedge $-1 $145 $92 $146 $147 forward $50 $-1 #
coedge $-1 $148 $52 $145 $149 forward $33 $-1 #
coedge $-1 $52 $148 $150 $151 forward $33 $-1 #
coedge $-1 $95 $94 $52 $88 reversed $96 $-1 #
edge $-1 $152 -31.486042743372909 $153 31.486042743372909 $87 $154 forward 7 unknown #
coedge $-1 $54 $53 $155 $156 forward $21 $-1 #
coedge $-1 $157 $158 $53 $91 reversed $142 $-1 #
edge $-1 $98 -74.887539292580954 $159 74.887539292580954 $90 $160 forward 7 unknown #
coedge $-1 $84 $161 $54 $93 reversed $50 $-1 #
edge $-1 $162 -74.887539292580954 $97 74.887539292580954 $92 $163 forward 7 unknown #
coedge $-1 $87 $55 $161 $164 forward $96 $-1 #
coedge $-1 $55 $87 $157 $165 reversed $96 $-1 #
loop $-1 $-1 $94 $141 #
vertex $-1 $56 $166 #
vertex $-1 $56 $167 #
straight-curve $-1 74.887539292580954 0 15.002162002347164 0 1 0 I I #
face $-1 $168 $169 $13 $-1 $102 reversed single #
loop $-1 $-1 $170 $57 #
plane-surface $-1 0 -31.486042743372909 0 0 1 0 0 0 1 forward_v I I I I #
coedge $-1 $171 $111 $172 $173 forward $58 $-1 #
coedge $-1 $174 $60 $171 $175 forward $37 $-1 #
coedge $-1 $60 $174 $170 $176 reversed $37 $-1 #
coedge $-1 $177 $113 $60 $107 reversed $115 $-1 #
edge $-1 $178 -8.862996378139492 $179 8.862996378139492 $106 $180 forward 7 unknown #
coedge $-1 $62 $61 $181 $182 forward $24 $-1 #
coedge $-1 $183 $184 $61 $110 forward $169 $-1 #
edge $-1 $185 -74.887539292580954 $117 74.887539292580954 $109 $186 forward 7 unknown #
coedge $-1 $103 $187 $62 $112 reversed $58 $-1 #
edge $-1 $188 -74.887539292580954 $116 74.887539292580954 $111 $189 forward 7 unknown #
coedge $-1 $106 $63 $187 $190 forward $115 $-1 #
coedge $-1 $63 $191 $183 $192 forward $115 $-1 #
loop $-1 $-1 $114 $193 #
vertex $-1 $64 $194 #
vertex $-1 $64 $195 #
straight-curve $-1 74.887539292580954 -40.349039121512398 -7.0565404200545663 0 1 0 I I #
face $-1 $196 $197 $14 $-1 $198 forward single #
loop $-1 $-1 $127 $65 #
plane-surface $-1 0 0 15.002162002347164 0 0 1 1 0 0 forward_v I I I I #
coedge $-1 $71 $199 $68 $125 forward $66 $-1 #
coedge $-1 $200 $68 $201 $202 reversed $41 $-1 #
coedge $-1 $68 $200 $69 $126 reversed $41 $-1 #
edge $-1 $203 -44.891499638956823 $130 -15.100579668291438 $122 $204 forward 7 unknown #
edge $-1 $130 -62.972085486745826 $205 -49.151942476318951 $69 $206 forward 7 unknown #
coedge $-1 $207 $208 $70 $128 forward $120 $-1 #
edge $-1 $131 9.6248076541993548 $205 20.055001888369901 $127 $209 forward 7 unknown #
coedge $-1 $210 $71 $208 $211 reversed $66 $-1 #
vertex $-1 $125 $212 #
vertex $-1 $128 $213 #
straight-curve $-1 -45.096619321915568 31.486042743372909 80.142711848300593 0 0 1 I I #
face $-1 $214 $215 $15 $-1 $216 reversed single #
loop $-1 $217 $79 $73 #
plane-surface $-1 -59.992079307248261 -16.039593023348701 47.248738048502091 0 0.6560590369687036 0.75470957328743171 1 0 0 forward_v I I I I #
coedge $-1 $218 $219 $220 $221 reversed $74 $-1 #
coedge $-1 $137 $137 $-1 $222 forward $76 $-1 #
edge $-1 $223 0 $223 6.2831853071796004 $77 $224 forward 7 unknown #
vertex $-1 $80 $225 #
ellipse-curve $-1 -59.992079307248261 26.270945626287642 10.468747145251955 0 -0.6560590369687036 -0.75470957328743171 1.5 0 0 1 I I #
face $-1 $-1 $96 $12 $-1 $226 reversed single #
loop $-1 $-1 $157 $81 #
plane-surface $-1 0 31.486042743372909 0 0 -1 0 0 0 -1 forward_v I I I I #
coedge $-1 $227 $155 $158 $228 forward $82 $-1 #
coedge $-1 $161 $84 $85 $149 reversed $50 $-1 #
coedge $-1 $155 $227 $84 $147 reversed $82 $-1 #
edge $-1 $162 -15.002162002347164 $229 15.002162002347164 $146 $230 forward 7 unknown #
coedge $-1 $86 $85 $227 $231 forward $33 $-1 #
edge $-1 $153 -74.887539292580954 $229 74.887539292580954 $145 $232 forward 7 unknown #
coedge $-1 $158 $157 $86 $151 reversed $142 $-1 #
edge $-1 $233 -74.887539292580954 $152 74.887539292580954 $150 $234 forward 7 unknown #
vertex $-1 $88 $235 #
vertex $-1 $164 $236 #
straight-curve $-1 74.887539292580954 0 -15.002162002347164 0 -1 0 I I #
coedge $-1 $144 $146 $89 $156 reversed $82 $-1 #
edge $-1 $159 -31.486042743372909 $162 31.486042743372909 $155 $237 forward 7 unknown #
coedge $-1 $150 $90 $95 $165 forward $142 $-1 #
coedge $-1 $90 $150 $144 $228 reversed $142 $-1 #
vertex $-1 $91 $238 #
straight-curve $-1 0 31.486042743372909 15.002162002347164 -1 0 0 I I #
coedge $-1 $92 $145 $94 $164 reversed $50 $-1 #
vertex $-1 $156 $239 #
straight-curve $-1 0 -31.486042743372909 15.002162002347164 1 0 0 I I #
edge $-1 $97 -15.002162002347164 $153 15.002162002347164 $94 $240 forward 7 unknown #
edge $-1 $98 -15.002162002347164 $152 15.002162002347164 $95 $241 forward 7 unknown #
point $-1 74.887539292580954 -31.486042743372909 15.002162002347164 #
point $-1 74.887539292580954 31.486042743372909 15.002162002347164 #
face $-1 $242 $243 $13 $-1 $244 forward single #
loop $-1 $-1 $109 $100 #
coedge $-1 $245 $246 $105 $176 forward $101 $-1 #
coedge $-1 $187 $103 $104 $175 reversed $58 $-1 #
coedge $-1 $181 $247 $103 $173 reversed $248 $-1 #
edge $-1 $188 -3.1712538562962012 $249 3.1712538562962003 $172 $250 forward 7 unknown #
coedge $-1 $105 $104 $247 $251 forward $37 $-1 #
edge $-1 $179 -74.887539292580954 $249 74.887539292580954 $171 $252 forward 7 unknown #
edge $-1 $178 -74.887539292580954 $253 74.887539292580954 $170 $254 forward 7 unknown #
coedge $-1 $255 $106 $246 $256 forward $115 $-1 #
vertex $-1 $256 $257 #
vertex $-1 $190 $258 #
straight-curve $-1 74.887539292580954 -40.349039121512398 -13.399048132646968 0 -1 0 I I #
coedge $-1 $259 $172 $108 $182 reversed $248 $-1 #
edge $-1 $185 -8.862996378139492 $188 8.862996378139492 $181 $260 forward 7 unknown #
coedge $-1 $261 $109 $114 $192 reversed $169 $-1 #
coedge $-1 $109 $261 $259 $262 forward $169 $-1 #
vertex $-1 $262 $263 #
straight-curve $-1 0 -31.486042743372909 -7.0565404200545663 1 0 0 I I #
coedge $-1 $111 $171 $113 $190 reversed $58 $-1 #
vertex $-1 $182 $264 #
straight-curve $-1 0 -49.21203549965189 -7.0565404200545663 1 0 0 I I #
edge $-1 $116 -3.1712538562962012 $179 3.1712538562962003 $113 $265 forward 7 unknown #
coedge $-1 $114 $266 $267 $268 reversed $115 $-1 #
edge $-1 $269 -15.002162002347164 $117 7.0565404200545663 $114 $270 forward 7 unknown #
face $-1 $-1 $115 $13 $-1 $271 reversed single #
point $-1 74.887539292580954 -49.21203549965189 -7.0565404200545663 #
point $-1 74.887539292580954 -31.486042743372906 -7.0565404200545663 #
face $-1 $272 $273 $14 $-1 $274 reversed single #
loop $-1 $-1 $275 $119 #
plane-surface $-1 0 -40.349039121512398 -7.0565404200545663 0 0 1 1 0 0 forward_v I I I I #
coedge $-1 $122 $276 $277 $278 reversed $66 $-1 #
coedge $-1 $124 $123 $207 $279 reversed $41 $-1 #
coedge $-1 $277 $280 $123 $202 forward $281 $-1 #
edge $-1 $282 27.600344482097753 $203 41.420487492524629 $201 $283 forward 7 unknown #
vertex $-1 $278 $284 #
straight-curve $-1 -29.99603965362413 31.486042743372906 5.9353322881567543 1 0 0 I I #
vertex $-1 $279 $285 #
straight-curve $-1 -45.096619321915568 -16.039593023348701 47.248738048502091 0 -0.75470957328743171 0.6560590369687036 I I #
coedge $-1 $286 $127 $200 $279 forward $120 $-1 #
coedge $-1 $127 $287 $129 $211 forward $120 $-1 #
straight-curve $-1 -45.096619321915568 41.110850397572264 15.002162002347163 0 -1 0 I I #
coedge $-1 $276 $129 $288 $289 forward $66 $-1 #
edge $-1 $290 -74.887539292580954 $131 45.096619321915568 $129 $291 forward 7 unknown #
point $-1 -45.096619321915568 31.486042743372906 5.9353322881567507 #
point $-1 -45.096619321915568 31.486042743372909 15.002162002347164 #
face $-1 $292 $293 $15 $-1 $294 forward single #
loop $-1 $-1 $295 $133 #
plane-surface $-1 0 31.486042743372909 0 0 -1 0 0 0 -1 forward_v I I I I #
loop $-1 $-1 $296 $73 #
coedge $-1 $219 $136 $297 $298 forward $74 $-1 #
coedge $-1 $136 $218 $299 $300 reversed $74 $-1 #
coedge $-1 $301 $295 $136 $221 forward $215 $-1 #
edge $-1 $302 -74.207379560143835 $303 -65.14054984595343 $220 $304 forward 7 unknown #
edge $-1 $305 1 $305 0 $137 $-1 forward 7 unknown #
vertex $-1 $138 $306 #
ellipse-curve $-1 -59.992079307248261 24.681934078679834 8.640798501201651 0 0.6560590369687036 0.75470957328743171 1.5 0 0 1 I I #
point $-1 -58.492079307248261 26.270945626287663 10.46874714525198 #
plane-surface $-1 74.887539292580954 0 0 -1 0 0 0 0 1 forward_v I I I I #
coedge $-1 $146 $144 $148 $231 reversed $82 $-1 #
edge $-1 $159 -15.002162002347164 $233 15.002162002347164 $158 $307 forward 7 unknown #
vertex $-1 $231 $308 #
straight-curve $-1 -74.887539292580954 -31.486042743372909 0 0 0 -1 I I #
edge $-1 $229 -31.486042743372909 $233 31.486042743372909 $227 $309 forward 7 unknown #
straight-curve $-1 0 -31.486042743372909 -15.002162002347164 -1 0 0 I I #
vertex $-1 $151 $310 #
straight-curve $-1 0 31.486042743372909 -15.002162002347164 1 0 0 I I #
point $-1 74.887539292580954 31.486042743372909 -15.002162002347164 #
point $-1 74.887539292580954 -31.486042743372909 -15.002162002347164 #
straight-curve $-1 -74.887539292580954 0 15.002162002347164 0 -1 0 I I #
point $-1 -74.887539292580954 31.486042743372909 15.002162002347164 #
point $-1 -74.887539292580954 -31.486042743372909 15.002162002347164 #
straight-curve $-1 74.887539292580954 -31.486042743372909 0 0 0 -1 I I #
straight-curve $-1 74.887539292580954 31.486042743372909 0 0 0 -1 I I #
face $-1 $311 $312 $13 $-1 $313 reversed single #
loop $-1 $-1 $267 $168 #
plane-surface $-1 0 0 15.002162002347164 0 0 1 1 0 0 forward_v I I I I #
coedge $-1 $314 $170 $315 $316 forward $101 $-1 #
coedge $-1 $170 $314 $177 $256 reversed $101 $-1 #
coedge $-1 $172 $315 $174 $251 reversed $248 $-1 #
loop $-1 $-1 $317 $311 #
vertex $-1 $251 $318 #
straight-curve $-1 -74.887539292580954 -49.21203549965189 -10.227794276350767 0 0 -1 I I #
edge $-1 $249 -8.862996378139492 $253 8.862996378139492 $247 $319 forward 7 unknown #
straight-curve $-1 0 -49.21203549965189 -13.399048132646968 -1 0 0 I I #
vertex $-1 $316 $320 #
straight-curve $-1 0 -31.486042743372909 -13.399048132646968 -1 0 0 I I #
coedge $-1 $266 $177 $321 $322 reversed $115 $-1 #
edge $-1 $178 13.399048132646968 $323 15.002162002347164 $177 $270 forward 7 unknown #
point $-1 74.887539292580954 -31.486042743372906 -13.399048132646968 #
point $-1 74.887539292580954 -49.21203549965189 -13.399048132646968 #
coedge $-1 $324 $181 $184 $262 reversed $248 $-1 #
straight-curve $-1 -74.887539292580954 -40.349039121512398 -7.0565404200545663 0 -1 0 I I #
coedge $-1 $184 $183 $325 $326 reversed $169 $-1 #
edge $-1 $327 -15.002162002347164 $185 7.0565404200545663 $259 $328 forward 7 unknown #
point $-1 -74.887539292580954 -31.486042743372906 -7.0565404200545663 #
point $-1 -74.887539292580954 -49.21203549965189 -7.0565404200545663 #
straight-curve $-1 74.887539292580954 -49.21203549965189 -10.227794276350767 0 0 -1 I I #
coedge $-1 $191 $255 $329 $330 reversed $115 $-1 #
coedge $-1 $331 $325 $191 $268 forward $243 $-1 #
edge $-1 $269 -31.486042743372909 $332 31.486042743372909 $191 $333 forward 7 unknown #
vertex $-1 $268 $334 #
straight-curve $-1 74.887539292580954 -31.486042743372909 0 0 0 -1 I I #
plane-surface $-1 74.887539292580954 0 0 -1 0 0 0 0 1 forward_v I I I I #
face $-1 $335 $336 $14 $-1 $337 reversed single #
loop $-1 $-1 $338 $196 #
plane-surface $-1 0 -40.349039121512398 -13.399048132646968 0 0 1 1 0 0 forward_v I I I I #
coedge $-1 $339 $340 $341 $342 forward $197 $-1 #
coedge $-1 $199 $210 $343 $344 reversed $66 $-1 #
coedge $-1 $345 $201 $199 $278 forward $281 $-1 #
edge $-1 $203 -5.9353322881567543 $346 15.002162002347164 $199 $347 forward 7 unknown #
edge $-1 $205 15.100579668291438 $282 44.891499638956823 $207 $348 forward 7 unknown #
coedge $-1 $201 $349 $286 $350 reversed $281 $-1 #
loop $-1 $-1 $201 $351 #
vertex $-1 $350 $352 #
straight-curve $-1 -74.887539292580954 0.22560430253224695 33.109617423276688 0 0.75470957328743171 -0.6560590369687036 I I #
point $-1 -74.887539292580954 31.486042743372909 5.9353322881567543 #
point $-1 -45.096619321915568 21.055848509202363 15.002162002347163 #
coedge $-1 $353 $207 $280 $350 forward $120 $-1 #
coedge $-1 $208 $353 $354 $355 forward $120 $-1 #
coedge $-1 $354 $356 $210 $289 reversed $357 $-1 #
edge $-1 $290 -15.002162002347164 $358 15.002162002347164 $288 $359 forward 7 unknown #
vertex $-1 $355 $360 #
straight-curve $-1 0 31.486042743372909 15.002162002347164 -1 0 0 I I #
face $-1 $361 $362 $15 $-1 $363 forward single #
loop $-1 $-1 $299 $214 #
plane-surface $-1 0 0 15.002162002347164 0 0 1 1 0 0 forward_v I I I I #
coedge $-1 $220 $364 $296 $365 forward $215 $-1 #
coedge $-1 $366 $297 $295 $365 reversed $217 $-1 #
coedge $-1 $296 $367 $218 $298 reversed $217 $-1 #
edge $-1 $302 -62.972085486745826 $368 -49.151942476318951 $218 $369 forward 7 unknown #
coedge $-1 $370 $371 $219 $300 forward $293 $-1 #
edge $-1 $303 9.6248076541993548 $368 20.055001888369901 $299 $372 forward 7 unknown #
coedge $-1 $373 $220 $371 $374 reversed $215 $-1 #
vertex $-1 $365 $375 #
vertex $-1 $300 $376 #
straight-curve $-1 -45.096619321915568 31.486042743372909 80.142711848300593 0 0 1 I I #
vertex $-1 $222 $377 #
point $-1 -58.492079307248261 24.681934078679834 8.640798501201651 #
straight-curve $-1 -74.887539292580954 31.486042743372909 0 0 0 -1 I I #
point $-1 -74.887539292580954 -31.486042743372909 -15.002162002347164 #
straight-curve $-1 -74.887539292580954 0 -15.002162002347164 0 1 0 I I #
point $-1 -74.887539292580954 31.486042743372909 -15.002162002347164 #
face $-1 $378 $248 $13 $-1 $379 reversed single #
loop $-1 $-1 $321 $242 #
plane-surface $-1 0 0 -15.002162002347164 0 0 1 1 0 0 forward_v I I I I #
coedge $-1 $246 $245 $380 $381 reversed $101 $-1 #
coedge $-1 $247 $382 $245 $316 reversed $248 $-1 #
edge $-1 $253 13.399048132646968 $383 15.002162002347164 $315 $328 forward 7 unknown #
coedge $-1 $382 $324 $384 $385 forward $248 $-1 #
point $-1 -74.887539292580954 -49.21203549965189 -13.399048132646968 #
straight-curve $-1 -74.887539292580954 -40.349039121512398 -13.399048132646968 0 1 0 I I #
point $-1 -74.887539292580954 -31.486042743372906 -13.399048132646968 #
coedge $-1 $380 $386 $255 $322 forward $312 $-1 #
edge $-1 $387 -31.486042743372909 $323 31.486042743372909 $255 $388 forward 7 unknown #
vertex $-1 $256 $389 #
coedge $-1 $317 $259 $390 $391 reversed $248 $-1 #
coedge $-1 $267 $390 $261 $326 forward $243 $-1 #
edge $-1 $327 -74.887539292580954 $269 74.887539292580954 $261 $392 forward 7 unknown #
vertex $-1 $391 $393 #
straight-curve $-1 -74.887539292580954 -31.486042743372909 0 0 0 -1 I I #
coedge $-1 $394 $395 $266 $330 forward $396 $-1 #
edge $-1 $332 -15.002162002347164 $387 15.002162002347164 $266 $397 forward 7 unknown #
coedge $-1 $390 $267 $395 $398 forward $243 $-1 #
vertex $-1 $268 $399 #
straight-curve $-1 74.887539292580954 0 15.002162002347164 0 1 0 I I #
point $-1 74.887539292580954 -31.486042743372909 15.002162002347164 #
face $-1 $400 $401 $14 $-1 $402 reversed single #
loop $-1 $-1 $403 $272 #
plane-surface $-1 0 -49.21203549965189 -10.227794276350767 0 1 0 0 0 1 forward_v I I I I #
coedge $-1 $404 $405 $406 $407 forward $273 $-1 #
coedge $-1 $408 $275 $409 $410 reversed $197 $-1 #
coedge $-1 $275 $408 $411 $412 forward $197 $-1 #
coedge $-1 $413 $414 $275 $342 reversed $357 $-1 #
edge $-1 $415 -8.862996378139492 $416 8.862996378139492 $341 $417 forward 7 unknown #
coedge $-1 $418 $419 $276 $344 forward $420 $-1 #
edge $-1 $346 -74.887539292580954 $358 74.887539292580954 $276 $421 forward 7 unknown #
coedge $-1 $422 $277 $419 $423 reversed $281 $-1 #
vertex $-1 $344 $424 #
straight-curve $-1 -74.887539292580954 31.486042743372909 0 0 0 -1 I I #
straight-curve $-1 -29.99603965362413 21.05584850920236 15.002162002347166 -1 0 0 I I #
coedge $-1 $280 $425 $426 $427 reversed $281 $-1 #
edge $-1 $282 -21.055848509202363 $428 31.486042743372909 $280 $429 forward 7 unknown #
face $-1 $430 $281 $14 $-1 $431 reversed single #
point $-1 -74.887539292580954 21.055848509202363 15.002162002347163 #
coedge $-1 $287 $286 $432 $433 forward $120 $-1 #
coedge $-1 $414 $288 $287 $355 reversed $357 $-1 #
edge $-1 $434 -31.486042743372909 $290 31.486042743372909 $354 $435 forward 7 unknown #
coedge $-1 $288 $436 $418 $437 reversed $357 $-1 #
loop $-1 $-1 $414 $430 #
vertex $-1 $437 $438 #
straight-curve $-1 74.887539292580954 31.486042743372909 0 0 0 -1 I I #
point $-1 74.887539292580954 31.486042743372909 15.002162002347164 #
face $-1 $439 $440 $15 $-1 $441 reversed single #
loop $-1 $-1 $442 $292 #
plane-surface $-1 0 -40.349039121512398 -7.0565404200545663 0 0 1 1 0 0 forward_v I I I I #
coedge $-1 $295 $443 $444 $445 reversed $215 $-1 #
edge $-1 $446 -44.891499638956823 $302 -15.100579668291438 $295 $447 forward 7 unknown #
coedge $-1 $367 $296 $448 $449 reversed $217 $-1 #
coedge $-1 $297 $366 $370 $450 reversed $217 $-1 #
vertex $-1 $450 $451 #
straight-curve $-1 -45.096619321915568 -16.039593023348701 47.248738048502091 0 -0.75470957328743171 0.6560590369687036 I I #
coedge $-1 $452 $299 $367 $450 forward $293 $-1 #
coedge $-1 $299 $453 $301 $374 forward $293 $-1 #
straight-curve $-1 -45.096619321915568 41.110850397572264 15.002162002347163 0 -1 0 I I #
coedge $-1 $443 $301 $454 $455 forward $215 $-1 #
edge $-1 $456 -74.887539292580954 $303 45.096619321915568 $301 $457 forward 7 unknown #
point $-1 -45.096619321915568 31.486042743372906 5.9353322881567507 #
point $-1 -45.096619321915568 31.486042743372909 15.002162002347164 #
point $-1 -59.992079307248261 23.697845523226778 7.5087341412705042 #
face $-1 $193 $396 $13 $-1 $458 reversed single #
plane-surface $-1 -74.887539292580954 0 0 1 0 0 0 0 -1 forward_v I I I I #
coedge $-1 $459 $321 $314 $381 forward $312 $-1 #
edge $-1 $323 -74.887539292580954 $383 74.887539292580954 $314 $460 forward 7 unknown #
coedge $-1 $315 $317 $459 $461 reversed $248 $-1 #
vertex $-1 $461 $462 #
coedge $-1 $395 $394 $317 $385 reversed $396 $-1 #
edge $-1 $463 -15.002162002347164 $464 15.002162002347164 $384 $465 forward 7 unknown #
coedge $-1 $321 $459 $394 $466 forward $312 $-1 #
vertex $-1 $322 $467 #
straight-curve $-1 74.887539292580954 0 -15.002162002347164 0 -1 0 I I #
point $-1 74.887539292580954 -31.486042743372909 -15.002162002347164 #
coedge $-1 $325 $331 $324 $391 forward $243 $-1 #
edge $-1 $463 -31.486042743372909 $327 31.486042743372909 $324 $468 forward 7 unknown #
straight-curve $-1 0 -31.486042743372909 15.002162002347164 1 0 0 I I #
point $-1 -74.887539292580954 -31.486042743372909 15.002162002347164 #
coedge $-1 $384 $329 $386 $466 reversed $396 $-1 #
coedge $-1 $329 $384 $331 $398 reversed $396 $-1 #
loop $-1 $-1 $329 $378 #
straight-curve $-1 74.887539292580954 31.486042743372909 0 0 0 -1 I I #
edge $-1 $332 -74.887539292580954 $463 74.887539292580954 $395 $469 forward 7 unknown #
point $-1 74.887539292580954 31.486042743372909 15.002162002347164 #
face $-1 $470 $471 $14 $-1 $402 reversed single #
loop $-1 $-1 $472 $335 #
plane-surface $-1 0 -31.486042743372909 0 0 1 0 0 0 1 forward_v I I I I #
coedge $-1 $473 $411 $474 $475 forward $336 $-1 #
coedge $-1 $476 $338 $473 $477 forward $273 $-1 #
coedge $-1 $338 $476 $472 $478 reversed $273 $-1 #
coedge $-1 $436 $413 $338 $407 reversed $357 $-1 #
edge $-1 $479 -8.862996378139492 $480 8.862996378139492 $406 $481 forward 7 unknown #
coedge $-1 $340 $339 $425 $482 forward $197 $-1 #
coedge $-1 $483 $426 $339 $410 forward $471 $-1 #
edge $-1 $484 -74.887539292580954 $416 74.887539292580954 $409 $485 forward 7 unknown #
coedge $-1 $403 $486 $340 $412 reversed $336 $-1 #
edge $-1 $487 -74.887539292580954 $415 74.887539292580954 $411 $488 forward 7 unknown #
coedge $-1 $406 $341 $486 $489 forward $357 $-1 #
coedge $-1 $341 $354 $483 $490 forward $357 $-1 #
vertex $-1 $342 $491 #
vertex $-1 $342 $492 #
straight-curve $-1 74.887539292580954 -40.349039121512398 -7.0565404200545663 0 1 0 I I #
coedge $-1 $493 $343 $356 $437 forward $420 $-1 #
coedge $-1 $343 $493 $345 $423 forward $420 $-1 #
loop $-1 $-1 $418 $470 #
straight-curve $-1 0 31.486042743372909 -15.002162002347164 1 0 0 I I #
coedge $-1 $494 $345 $495 $496 reversed $281 $-1 #
edge $-1 $497 -31.486042743372909 $346 31.486042743372909 $345 $498 forward 7 unknown #
point $-1 -74.887539292580954 31.486042743372909 -15.002162002347164 #
coedge $-1 $349 $474 $408 $482 reversed $281 $-1 #
coedge $-1 $409 $432 $349 $427 forward $471 $-1 #
edge $-1 $428 -15.002162002347164 $484 7.0565404200545663 $349 $499 forward 7 unknown #
vertex $-1 $350 $500 #
straight-curve $-1 -74.887539292580954 0 15.002162002347164 0 -1 0 I I #
face $-1 $-1 $357 $14 $-1 $501 reversed single #
plane-surface $-1 -74.887539292580954 0 0 1 0 0 0 0 -1 forward_v I I I I #
coedge $-1 $426 $483 $353 $433 reversed $471 $-1 #
edge $-1 $428 -74.887539292580954 $434 74.887539292580954 $432 $502 forward 7 unknown #
vertex $-1 $355 $503 #
straight-curve $-1 74.887539292580954 0 15.002162002347164 0 1 0 I I #
coedge $-1 $356 $406 $504 $505 forward $357 $-1 #
edge $-1 $358 -31.486042743372909 $506 31.486042743372909 $356 $507 forward 7 unknown #
point $-1 74.887539292580954 31.486042743372909 -15.002162002347164 #
face $-1 $508 $509 $15 $-1 $510 reversed single #
loop $-1 $-1 $511 $361 #
plane-surface $-1 0 -40.349039121512398 -13.399048132646968 0 0 1 1 0 0 forward_v I I I I #
coedge $-1 $512 $513 $514 $515 forward $362 $-1 #
coedge $-1 $364 $373 $516 $517 reversed $215 $-1 #
coedge $-1 $518 $448 $364 $445 forward $519 $-1 #
edge $-1 $446 -5.9353322881567543 $520 15.002162002347164 $364 $521 forward 7 unknown #
vertex $-1 $445 $522 #
straight-curve $-1 -29.99603965362413 31.486042743372906 5.9353322881567543 1 0 0 I I #
coedge $-1 $444 $523 $366 $449 forward $519 $-1 #
edge $-1 $524 27.600344482097753 $446 41.420487492524629 $448 $525 forward 7 unknown #
edge $-1 $368 15.100579668291438 $524 44.891499638956823 $370 $526 forward 7 unknown #
point $-1 -45.096619321915568 21.055848509202363 15.002162002347163 #
coedge $-1 $527 $370 $523 $528 forward $293 $-1 #
coedge $-1 $371 $527 $529 $530 forward $293 $-1 #
coedge $-1 $529 $531 $373 $455 reversed $532 $-1 #
edge $-1 $456 -15.002162002347164 $533 15.002162002347164 $454 $534 forward 7 unknown #
vertex $-1 $530 $535 #
straight-curve $-1 0 31.486042743372909 15.002162002347164 -1 0 0 I I #
plane-surface $-1 0 31.486042743372909 0 0 -1 0 0 0 -1 forward_v I I I I #
coedge $-1 $386 $380 $382 $461 forward $312 $-1 #
straight-curve $-1 0 -31.486042743372909 -15.002162002347164 -1 0 0 I I #
edge $-1 $383 -31.486042743372909 $464 31.486042743372909 $382 $536 forward 7 unknown #
point $-1 -74.887539292580954 -31.486042743372909 -15.002162002347164 #
vertex $-1 $398 $537 #
vertex $-1 $466 $538 #
straight-curve $-1 -74.887539292580954 31.486042743372909 0 0 0 -1 I I #
edge $-1 $464 -74.887539292580954 $387 74.887539292580954 $394 $539 forward 7 unknown #
point $-1 74.887539292580954 31.486042743372909 -15.002162002347164 #
straight-curve $-1 -74.887539292580954 0 15.002162002347164 0 -1 0 I I #
straight-curve $-1 0 31.486042743372909 15.002162002347164 -1 0 0 I I #
face $-1 $351 $420 $14 $-1 $540 reversed single #
loop $-1 $-1 $409 $400 #
coedge $-1 $495 $504 $405 $478 forward $401 $-1 #
coedge $-1 $486 $403 $404 $477 reversed $336 $-1 #
coedge $-1 $425 $494 $403 $475 reversed $281 $-1 #
edge $-1 $487 -3.1712538562962012 $541 3.1712538562962003 $474 $542 forward 7 unknown #
coedge $-1 $405 $404 $494 $543 forward $273 $-1 #
edge $-1 $480 -74.887539292580954 $541 74.887539292580954 $473 $544 forward 7 unknown #
edge $-1 $479 -74.887539292580954 $545 74.887539292580954 $472 $546 forward 7 unknown #
vertex $-1 $505 $547 #
vertex $-1 $489 $548 #
straight-curve $-1 74.887539292580954 -40.349039121512398 -13.399048132646968 0 -1 0 I I #
edge $-1 $484 -8.862996378139492 $487 8.862996378139492 $425 $549 forward 7 unknown #
coedge $-1 $432 $409 $414 $490 reversed $471 $-1 #
vertex $-1 $427 $550 #
straight-curve $-1 0 -31.486042743372909 -7.0565404200545663 1 0 0 I I #
coedge $-1 $411 $473 $413 $489 reversed $336 $-1 #
vertex $-1 $482 $551 #
straight-curve $-1 0 -49.21203549965189 -7.0565404200545663 1 0 0 I I #
edge $-1 $415 -3.1712538562962012 $480 3.1712538562962003 $413 $552 forward 7 unknown #
edge $-1 $434 -15.002162002347164 $416 7.0565404200545663 $414 $553 forward 7 unknown #
point $-1 74.887539292580954 -49.21203549965189 -7.0565404200545663 #
point $-1 74.887539292580954 -31.486042743372906 -7.0565404200545663 #
coedge $-1 $419 $418 $554 $555 forward $420 $-1 #
coedge $-1 $474 $422 $476 $543 reversed $281 $-1 #
coedge $-1 $554 $472 $422 $496 forward $401 $-1 #
edge $-1 $545 13.399048132646968 $497 15.002162002347164 $422 $499 forward 7 unknown #
vertex $-1 $423 $556 #
straight-curve $-1 -74.887539292580954 0 -15.002162002347164 0 1 0 I I #
straight-curve $-1 -74.887539292580954 -31.486042743372909 0 0 0 -1 I I #
point $-1 -74.887539292580954 -31.486042743372909 15.002162002347164 #
plane-surface $-1 74.887539292580954 0 0 -1 0 0 0 0 1 forward_v I I I I #
straight-curve $-1 0 -31.486042743372909 15.002162002347164 1 0 0 I I #
point $-1 74.887539292580954 -31.486042743372909 15.002162002347164 #
coedge $-1 $472 $554 $436 $505 reversed $401 $-1 #
edge $-1 $479 13.399048132646968 $506 15.002162002347164 $436 $553 forward 7 unknown #
vertex $-1 $505 $557 #
straight-curve $-1 74.887539292580954 0 -15.002162002347164 0 -1 0 I I #
face $-1 $558 $559 $15 $-1 $560 reversed single #
loop $-1 $-1 $561 $439 #
plane-surface $-1 0 -49.21203549965189 -10.227794276350767 0 1 0 0 0 1 forward_v I I I I #
coedge $-1 $562 $563 $564 $565 forward $440 $-1 #
coedge $-1 $566 $442 $567 $568 reversed $362 $-1 #
coedge $-1 $442 $566 $569 $570 forward $362 $-1 #
coedge $-1 $571 $572 $442 $515 reversed $532 $-1 #
edge $-1 $573 -8.862996378139492 $574 8.862996378139492 $514 $575 forward 7 unknown #
coedge $-1 $576 $577 $443 $517 forward $578 $-1 #
edge $-1 $520 -74.887539292580954 $533 74.887539292580954 $443 $579 forward 7 unknown #
coedge $-1 $580 $444 $577 $581 reversed $519 $-1 #
loop $-1 $-1 $448 $582 #
vertex $-1 $517 $583 #
straight-curve $-1 -74.887539292580954 31.486042743372909 0 0 0 -1 I I #
point $-1 -74.887539292580954 31.486042743372909 5.9353322881567543 #
coedge $-1 $448 $584 $452 $528 reversed $519 $-1 #
vertex $-1 $528 $585 #
straight-curve $-1 -74.887539292580954 0.22560430253224695 33.109617423276688 0 0.75470957328743171 -0.6560590369687036 I I #
straight-curve $-1 -29.99603965362413 21.05584850920236 15.002162002347166 -1 0 0 I I #
coedge $-1 $453 $452 $586 $587 forward $293 $-1 #
edge $-1 $524 -21.055848509202363 $588 31.486042743372909 $523 $589 forward 7 unknown #
coedge $-1 $572 $454 $453 $530 reversed $532 $-1 #
edge $-1 $590 -31.486042743372909 $456 31.486042743372909 $529 $591 forward 7 unknown #
coedge $-1 $454 $592 $576 $593 reversed $532 $-1 #
loop $-1 $-1 $572 $594 #
vertex $-1 $593 $595 #
straight-curve $-1 74.887539292580954 31.486042743372909 0 0 0 -1 I I #
point $-1 74.887539292580954 31.486042743372909 15.002162002347164 #
straight-curve $-1 -74.887539292580954 0 -15.002162002347164 0 1 0 I I #
point $-1 -74.887539292580954 31.486042743372909 15.002162002347164 #
point $-1 -74.887539292580954 31.486042743372909 -15.002162002347164 #
straight-curve $-1 0 31.486042743372909 -15.002162002347164 1 0 0 I I #
plane-surface $-1 0 0 -15.002162002347164 0 0 1 1 0 0 forward_v I I I I #
vertex $-1 $543 $596 #
straight-curve $-1 -74.887539292580954 -49.21203549965189 -10.227794276350767 0 0 -1 I I #
edge $-1 $541 -8.862996378139492 $545 8.862996378139492 $494 $597 forward 7 unknown #
straight-curve $-1 0 -49.21203549965189 -13.399048132646968 -1 0 0 I I #
vertex $-1 $496 $598 #
straight-curve $-1 0 -31.486042743372909 -13.399048132646968 -1 0 0 I I #
point $-1 74.887539292580954 -31.486042743372906 -13.399048132646968 #
point $-1 74.887539292580954 -49.21203549965189 -13.399048132646968 #
straight-curve $-1 -74.887539292580954 -40.349039121512398 -7.0565404200545663 0 -1 0 I I #
point $-1 -74.887539292580954 -31.486042743372906 -7.0565404200545663 #
point $-1 -74.887539292580954 -49.21203549965189 -7.0565404200545663 #
straight-curve $-1 74.887539292580954 -49.21203549965189 -10.227794276350767 0 0 -1 I I #
straight-curve $-1 74.887539292580954 -31.486042743372909 0 0 0 -1 I I #
coedge $-1 $504 $495 $493 $555 reversed $401 $-1 #
edge $-1 $506 -74.887539292580954 $497 74.887539292580954 $554 $599 forward 7 unknown #
point $-1 -74.887539292580954 -31.486042743372909 -15.002162002347164 #
point $-1 74.887539292580954 -31.486042743372909 -15.002162002347164 #
face $-1 $600 $601 $15 $-1 $560 reversed single #
loop $-1 $-1 $602 $508 #
plane-surface $-1 0 -31.486042743372909 0 0 1 0 0 0 1 forward_v I I I I #
coedge $-1 $603 $569 $604 $605 forward $509 $-1 #
coedge $-1 $606 $511 $603 $607 forward $440 $-1 #
coedge $-1 $511 $606 $602 $608 reversed $440 $-1 #
coedge $-1 $592 $571 $511 $565 reversed $532 $-1 #
edge $-1 $609 -8.862996378139492 $610 8.862996378139492 $564 $611 forward 7 unknown #
coedge $-1 $513 $512 $612 $613 forward $362 $-1 #
coedge $-1 $614 $615 $512 $568 forward $601 $-1 #
edge $-1 $616 -74.887539292580954 $574 74.887539292580954 $567 $617 forward 7 unknown #
coedge $-1 $561 $618 $513 $570 reversed $509 $-1 #
edge $-1 $619 -74.887539292580954 $573 74.887539292580954 $569 $620 forward 7 unknown #
coedge $-1 $564 $514 $618 $621 forward $532 $-1 #
coedge $-1 $514 $529 $614 $622 forward $532 $-1 #
vertex $-1 $515 $623 #
vertex $-1 $515 $624 #
straight-curve $-1 74.887539292580954 -40.349039121512398 -7.0565404200545663 0 1 0 I I #
coedge $-1 $625 $516 $531 $593 forward $578 $-1 #
coedge $-1 $516 $625 $518 $581 forward $578 $-1 #
loop $-1 $-1 $576 $600 #
straight-curve $-1 0 31.486042743372909 -15.002162002347164 1 0 0 I I #
coedge $-1 $626 $518 $627 $628 reversed $519 $-1 #
edge $-1 $629 -31.486042743372909 $520 31.486042743372909 $518 $630 forward 7 unknown #
face $-1 $594 $519 $15 $-1 $631 reversed single #
point $-1 -74.887539292580954 31.486042743372909 -15.002162002347164 #
coedge $-1 $523 $612 $615 $632 reversed $519 $-1 #
point $-1 -74.887539292580954 21.055848509202363 15.002162002347163 #
coedge $-1 $615 $614 $527 $587 reversed $601 $-1 #
edge $-1 $588 -74.887539292580954 $590 74.887539292580954 $586 $633 forward 7 unknown #
vertex $-1 $528 $634 #
straight-curve $-1 -74.887539292580954 0 15.002162002347164 0 -1 0 I I #
vertex $-1 $530 $635 #
straight-curve $-1 74.887539292580954 0 15.002162002347164 0 1 0 I I #
coedge $-1 $531 $564 $636 $637 forward $532 $-1 #
edge $-1 $533 -31.486042743372909 $638 31.486042743372909 $531 $639 forward 7 unknown #
face $-1 $-1 $532 $15 $-1 $640 reversed single #
point $-1 74.887539292580954 31.486042743372909 -15.002162002347164 #
point $-1 -74.887539292580954 -49.21203549965189 -13.399048132646968 #
straight-curve $-1 -74.887539292580954 -40.349039121512398 -13.399048132646968 0 1 0 I I #
point $-1 -74.887539292580954 -31.486042743372906 -13.399048132646968 #
straight-curve $-1 0 -31.486042743372909 -15.002162002347164 -1 0 0 I I #
face $-1 $582 $578 $15 $-1 $641 reversed single #
loop $-1 $-1 $567 $558 #
coedge $-1 $627 $636 $563 $608 forward $559 $-1 #
coedge $-1 $618 $561 $562 $607 reversed $509 $-1 #
coedge $-1 $612 $626 $561 $605 reversed $519 $-1 #
edge $-1 $619 -3.1712538562962012 $642 3.1712538562962003 $604 $643 forward 7 unknown #
coedge $-1 $563 $562 $626 $644 forward $440 $-1 #
edge $-1 $610 -74.887539292580954 $642 74.887539292580954 $603 $645 forward 7 unknown #
edge $-1 $609 -74.887539292580954 $646 74.887539292580954 $602 $647 forward 7 unknown #
vertex $-1 $637 $648 #
vertex $-1 $621 $649 #
straight-curve $-1 74.887539292580954 -40.349039121512398 -13.399048132646968 0 -1 0 I I #
coedge $-1 $584 $604 $566 $613 reversed $519 $-1 #
edge $-1 $616 -8.862996378139492 $619 8.862996378139492 $612 $650 forward 7 unknown #
coedge $-1 $586 $567 $572 $622 reversed $601 $-1 #
coedge $-1 $567 $586 $584 $632 forward $601 $-1 #
vertex $-1 $632 $651 #
straight-curve $-1 0 -31.486042743372909 -7.0565404200545663 1 0 0 I I #
coedge $-1 $569 $603 $571 $621 reversed $509 $-1 #
vertex $-1 $613 $652 #
straight-curve $-1 0 -49.21203549965189 -7.0565404200545663 1 0 0 I I #
edge $-1 $573 -3.1712538562962012 $610 3.1712538562962003 $571 $653 forward 7 unknown #
edge $-1 $590 -15.002162002347164 $574 7.0565404200545663 $572 $654 forward 7 unknown #
point $-1 74.887539292580954 -49.21203549965189 -7.0565404200545663 #
point $-1 74.887539292580954 -31.486042743372906 -7.0565404200545663 #
coedge $-1 $577 $576 $655 $656 forward $578 $-1 #
coedge $-1 $604 $580 $606 $644 reversed $519 $-1 #
coedge $-1 $655 $602 $580 $628 forward $559 $-1 #
edge $-1 $646 13.399048132646968 $629 15.002162002347164 $580 $657 forward 7 unknown #
vertex $-1 $581 $658 #
straight-curve $-1 -74.887539292580954 0 -15.002162002347164 0 1 0 I I #
plane-surface $-1 -74.887539292580954 0 0 1 0 0 0 0 -1 forward_v I I I I #
edge $-1 $588 -15.002162002347164 $616 7.0565404200545663 $584 $657 forward 7 unknown #
straight-curve $-1 0 -31.486042743372909 15.002162002347164 1 0 0 I I #
point $-1 -74.887539292580954 -31.486042743372909 15.002162002347164 #
point $-1 74.887539292580954 -31.486042743372909 15.002162002347164 #
coedge $-1 $602 $655 $592 $637 reversed $559 $-1 #
edge $-1 $609 13.399048132646968 $638 15.002162002347164 $592 $654 forward 7 unknown #
vertex $-1 $637 $659 #
straight-curve $-1 74.887539292580954 0 -15.002162002347164 0 -1 0 I I #
plane-surface $-1 74.887539292580954 0 0 -1 0 0 0 0 1 forward_v I I I I #
plane-surface $-1 0 0 -15.002162002347164 0 0 1 1 0 0 forward_v I I I I #
vertex $-1 $644 $660 #
straight-curve $-1 -74.887539292580954 -49.21203549965189 -10.227794276350767 0 0 -1 I I #
edge $-1 $642 -8.862996378139492 $646 8.862996378139492 $626 $661 forward 7 unknown #
straight-curve $-1 0 -49.21203549965189 -13.399048132646968 -1 0 0 I I #
vertex $-1 $628 $662 #
straight-curve $-1 0 -31.486042743372909 -13.399048132646968 -1 0 0 I I #
point $-1 74.887539292580954 -31.486042743372906 -13.399048132646968 #
point $-1 74.887539292580954 -49.21203549965189 -13.399048132646968 #
straight-curve $-1 -74.887539292580954 -40.349039121512398 -7.0565404200545663 0 -1 0 I I #
point $-1 -74.887539292580954 -31.486042743372906 -7.0565404200545663 #
point $-1 -74.887539292580954 -49.21203549965189 -7.0565404200545663 #
straight-curve $-1 74.887539292580954 -49.21203549965189 -10.227794276350767 0 0 -1 I I #
straight-curve $-1 74.887539292580954 -31.486042743372909 0 0 0 -1 I I #
coedge $-1 $636 $627 $625 $656 reversed $559 $-1 #
edge $-1 $638 -74.887539292580954 $629 74.887539292580954 $655 $663 forward 7 unknown #
straight-curve $-1 -74.887539292580954 -31.486042743372909 0 0 0 -1 I I #
point $-1 -74.887539292580954 -31.486042743372909 -15.002162002347164 #
point $-1 74.887539292580954 -31.486042743372909 -15.002162002347164 #
point $-1 -74.887539292580954 -49.21203549965189 -13.399048132646968 #
straight-curve $-1 -74.887539292580954 -40.349039121512398 -13.399048132646968 0 1 0 I I #
point $-1 -74.887539292580954 -31.486042743372906 -13.399048132646968 #
straight-curve $-1 0 -31.486042743372909 -15.002162002347164 -1 0 0 I I #
End-of-ACIS-data 