500 0 3 0           
7 Unknown 11 ACIS 5.0 NT 24 Fri Mar 26 20:41:46 1999 
-1 9.9999999999999995e-007 1e-010 
body $-1 $3 $-1 $4 #
body $-1 $5 $-1 $6 #
body $-1 $7 $-1 $8 #
lump $-1 $-1 $9 $0 #
transform $-1 1 0 0 0 1 0 0 0 1 59.351176488540304 35.466344530590639 11.709403009150536 1 rotate no_reflect no_shear #
lump $-1 $-1 $10 $1 #
transform $-1 1 0 0 0 1 0 0 0 1 59.351176488540304 35.466344530590639 11.709403009150536 1 rotate no_reflect no_shear #
lump $-1 $-1 $11 $2 #
transform $-1 1 0 0 0 1 0 0 0 1 59.351176488540304 35.466344530590639 11.709403009150536 1 rotate no_reflect no_shear #
shell $-1 $-1 $-1 $12 $-1 $3 #
shell $-1 $-1 $-1 $13 $-1 $5 #
shell $-1 $-1 $-1 $14 $-1 $7 #
face $-1 $15 $16 $9 $-1 $17 forward single #
face $-1 $18 $19 $10 $-1 $20 forward single #
face $-1 $21 $22 $11 $-1 $23 forward single #
face $-1 $24 $25 $9 $-1 $26 reversed single #
loop $-1 $-1 $27 $12 #
plane-surface $-1 0 0 11.709403009150536 0 0 1 1 0 0 forward_v I I I I #
face $-1 $28 $29 $10 $-1 $30 forward single #
loop $-1 $-1 $31 $13 #
plane-surface $-1 -57.851176488540304 -24.028165701129581 0 0 -1 0 0 0 -1 forward_v I I I I #
face $-1 $32 $33 $11 $-1 $34 forward single #
loop $-1 $-1 $35 $14 #
plane-surface $-1 -57.851176488540304 24.028165701129577 0 0 1 0 0 0 1 forward_v I I I I #
face $-1 $36 $37 $9 $-1 $38 reversed single #
loop $-1 $-1 $39 $15 #
plane-surface $-1 0 0 -11.709403009150536 0 0 1 1 0 0 forward_v I I I I #
coedge $-1 $40 $41 $42 $43 forward $16 $-1 #
face $-1 $44 $45 $10 $-1 $46 forward single #
loop $-1 $-1 $47 $18 #
plane-surface $-1 -56.351176488540304 -29.74725511586011 0 -1 0 0 0 0 1 forward_v I I I I #
coedge $-1 $48 $49 $50 $51 reversed $19 $-1 #
face $-1 $52 $53 $11 $-1 $54 forward single #
loop $-1 $-1 $55 $21 #
plane-surface $-1 -56.351176488540304 29.747255115860106 0 -1 0 0 0 0 1 forward_v I I I I #
coedge $-1 $56 $57 $58 $59 reversed $22 $-1 #
face $-1 $60 $61 $9 $-1 $62 reversed single #
loop $-1 $-1 $63 $24 #
plane-surface $-1 0 -35.466344530590639 0 0 1 0 0 0 1 forward_v I I I I #
coedge $-1 $64 $65 $66 $67 forward $25 $-1 #
coedge $-1 $68 $27 $69 $70 forward $16 $-1 #
coedge $-1 $27 $68 $71 $72 forward $16 $-1 #
coedge $-1 $73 $74 $27 $43 reversed $75 $-1 #
edge $-1 $76 -35.466344530590639 $77 35.466344530590639 $42 $78 forward 7 unknown #
face $-1 $79 $80 $10 $-1 $81 reversed single #
loop $-1 $-1 $82 $28 #
plane-surface $-1 0 0 11.709403009150536 0 0 1 1 0 0 forward_v I I I I #
coedge $-1 $83 $84 $85 $86 reversed $29 $-1 #
coedge $-1 $87 $31 $82 $88 reversed $19 $-1 #
coedge $-1 $31 $87 $89 $90 reversed $19 $-1 #
coedge $-1 $84 $83 $31 $51 forward $29 $-1 #
edge $-1 $91 -11.709403009150536 $92 11.709403009150536 $50 $93 forward 7 unknown #
face $-1 $94 $95 $11 $-1 $96 reversed single #
loop $-1 $-1 $97 $32 #
plane-surface $-1 0 0 11.709403009150536 0 0 1 1 0 0 forward_v I I I I #
coedge $-1 $98 $99 $100 $101 reversed $33 $-1 #
coedge $-1 $100 $35 $102 $103 reversed $22 $-1 #
coedge $-1 $35 $100 $104 $105 reversed $22 $-1 #
coedge $-1 $106 $107 $35 $59 forward $95 $-1 #
edge $-1 $108 -11.709403009150536 $109 11.709403009150536 $58 $110 forward 7 unknown #
face $-1 $111 $112 $9 $-1 $113 reversed single #
loop $-1 $-1 $114 $36 #
plane-surface $-1 -59.351176488540304 0 0 1 0 0 0 0 -1 forward_v I I I I #
coedge $-1 $115 $71 $116 $117 forward $37 $-1 #
coedge $-1 $118 $39 $115 $119 forward $25 $-1 #
coedge $-1 $39 $118 $120 $121 forward $25 $-1 #
coedge $-1 $74 $73 $39 $67 reversed $75 $-1 #
edge $-1 $122 -35.466344530590639 $123 35.466344530590639 $66 $124 forward 7 unknown #
coedge $-1 $41 $40 $125 $126 forward $16 $-1 #
coedge $-1 $127 $128 $40 $70 reversed $112 $-1 #
edge $-1 $77 -59.351176488540304 $129 59.351176488540304 $69 $130 forward 7 unknown #
coedge $-1 $63 $131 $41 $72 reversed $37 $-1 #
edge $-1 $132 -59.351176488540304 $76 59.351176488540304 $71 $133 forward 7 unknown #
coedge $-1 $66 $42 $131 $134 forward $75 $-1 #
coedge $-1 $42 $66 $127 $135 reversed $75 $-1 #
loop $-1 $-1 $73 $111 #
vertex $-1 $43 $136 #
vertex $-1 $43 $137 #
straight-curve $-1 59.351176488540304 0 11.709403009150536 0 1 0 I I #
face $-1 $138 $139 $10 $-1 $140 reversed single #
loop $-1 $-1 $85 $44 #
plane-surface $-1 0 -35.466344530590639 0 0 1 0 0 0 1 forward_v I I I I #
coedge $-1 $141 $142 $48 $88 forward $45 $-1 #
coedge $-1 $50 $47 $141 $143 reversed $29 $-1 #
coedge $-1 $47 $50 $144 $145 reversed $29 $-1 #
coedge $-1 $146 $147 $47 $86 forward $80 $-1 #
edge $-1 $148 -11.709403009150536 $149 11.709403009150536 $85 $150 forward 7 unknown #
coedge $-1 $49 $48 $151 $152 reversed $19 $-1 #
edge $-1 $153 -30.425588244270152 $91 -27.425588244270152 $82 $154 forward 7 unknown #
coedge $-1 $155 $144 $49 $90 forward $139 $-1 #
edge $-1 $92 27.425588244270152 $156 30.425588244270152 $89 $157 forward 7 unknown #
vertex $-1 $88 $158 #
vertex $-1 $90 $159 #
straight-curve $-1 -56.351176488540304 -24.028165701129581 0 0 0 -1 I I #
face $-1 $160 $161 $11 $-1 $162 forward single #
loop $-1 $-1 $58 $52 #
plane-surface $-1 -59.351176488540304 0 0 1 0 0 0 0 -1 forward_v I I I I #
coedge $-1 $102 $163 $98 $164 forward $53 $-1 #
coedge $-1 $165 $55 $97 $164 reversed $33 $-1 #
coedge $-1 $55 $165 $166 $167 reversed $33 $-1 #
coedge $-1 $57 $56 $55 $101 forward $22 $-1 #
edge $-1 $168 -11.709403009150536 $169 11.709403009150536 $55 $170 forward 7 unknown #
coedge $-1 $171 $97 $56 $103 forward $53 $-1 #
edge $-1 $168 27.425588244270152 $108 30.425588244270152 $102 $172 forward 7 unknown #
coedge $-1 $166 $173 $57 $105 forward $174 $-1 #
edge $-1 $109 -30.425588244270152 $169 -27.425588244270152 $104 $175 forward 7 unknown #
coedge $-1 $176 $58 $173 $177 reversed $95 $-1 #
coedge $-1 $58 $176 $171 $178 reversed $95 $-1 #
vertex $-1 $178 $179 #
vertex $-1 $59 $180 #
straight-curve $-1 -59.351176488540304 24.028165701129577 0 0 0 -1 I I #
face $-1 $-1 $75 $9 $-1 $181 reversed single #
loop $-1 $-1 $127 $60 #
plane-surface $-1 0 35.466344530590639 0 0 -1 0 0 0 -1 forward_v I I I I #
coedge $-1 $182 $125 $128 $183 forward $61 $-1 #
coedge $-1 $131 $63 $64 $119 reversed $37 $-1 #
coedge $-1 $125 $182 $63 $117 reversed $61 $-1 #
edge $-1 $132 -11.709403009150536 $184 11.709403009150536 $116 $185 forward 7 unknown #
coedge $-1 $65 $64 $182 $186 forward $25 $-1 #
edge $-1 $123 -59.351176488540304 $184 59.351176488540304 $115 $187 forward 7 unknown #
coedge $-1 $128 $127 $65 $121 reversed $112 $-1 #
edge $-1 $188 -59.351176488540304 $122 59.351176488540304 $120 $189 forward 7 unknown #
vertex $-1 $67 $190 #
vertex $-1 $134 $191 #
straight-curve $-1 59.351176488540304 0 -11.709403009150536 0 -1 0 I I #
coedge $-1 $114 $116 $68 $126 reversed $61 $-1 #
edge $-1 $129 -35.466344530590639 $132 35.466344530590639 $125 $192 forward 7 unknown #
coedge $-1 $120 $69 $74 $135 forward $112 $-1 #
coedge $-1 $69 $120 $114 $183 reversed $112 $-1 #
vertex $-1 $70 $193 #
straight-curve $-1 0 35.466344530590639 11.709403009150536 -1 0 0 I I #
coedge $-1 $71 $115 $73 $134 reversed $37 $-1 #
vertex $-1 $126 $194 #
straight-curve $-1 0 -35.466344530590639 11.709403009150536 1 0 0 I I #
edge $-1 $76 -11.709403009150536 $123 11.709403009150536 $73 $195 forward 7 unknown #
edge $-1 $77 -11.709403009150536 $122 11.709403009150536 $74 $196 forward 7 unknown #
point $-1 59.351176488540304 -35.466344530590639 11.709403009150536 #
point $-1 59.351176488540304 35.466344530590639 11.709403009150536 #
face $-1 $197 $198 $10 $-1 $199 reversed single #
loop $-1 $-1 $89 $79 #
plane-surface $-1 0 0 -11.709403009150536 0 0 1 1 0 0 forward_v I I I I #
coedge $-1 $200 $82 $83 $143 forward $45 $-1 #
coedge $-1 $82 $201 $202 $203 forward $45 $-1 #
edge $-1 $91 9.1545381431995256 $148 20.592716972660583 $141 $204 forward 7 unknown #
coedge $-1 $89 $205 $84 $145 forward $139 $-1 #
edge $-1 $149 -20.592716972660583 $92 -9.1545381431995256 $144 $206 forward 7 unknown #
coedge $-1 $207 $85 $205 $208 reversed $80 $-1 #
coedge $-1 $85 $207 $200 $209 reversed $80 $-1 #
vertex $-1 $209 $210 #
vertex $-1 $86 $211 #
straight-curve $-1 -56.351176488540304 -35.466344530590639 0 0 0 -1 I I #
coedge $-1 $202 $212 $87 $152 forward $198 $-1 #
edge $-1 $156 -11.709403009150536 $153 11.709403009150536 $151 $213 forward 7 unknown #
vertex $-1 $152 $214 #
straight-curve $-1 -28.925588244270152 -24.028165701129581 11.709403009150536 1 0 0 I I #
coedge $-1 $215 $89 $212 $216 forward $139 $-1 #
vertex $-1 $216 $217 #
straight-curve $-1 -28.925588244270152 -24.028165701129581 -11.709403009150536 -1 0 0 I I #
point $-1 -56.351176488540304 -24.028165701129581 11.709403009150536 #
point $-1 -56.351176488540304 -24.028165701129581 -11.709403009150536 #
face $-1 $218 $219 $11 $-1 $220 forward single #
loop $-1 $-1 $221 $94 #
plane-surface $-1 -57.851176488540304 -24.028165701129581 0 0 -1 0 0 0 -1 forward_v I I I I #
coedge $-1 $97 $222 $223 $224 forward $53 $-1 #
edge $-1 $225 -20.592716972660579 $168 -9.1545381431995239 $97 $226 forward 7 unknown #
coedge $-1 $99 $98 $227 $228 reversed $33 $-1 #
coedge $-1 $229 $104 $99 $167 forward $174 $-1 #
edge $-1 $169 9.1545381431995239 $230 20.592716972660579 $166 $231 forward 7 unknown #
vertex $-1 $103 $232 #
vertex $-1 $105 $233 #
straight-curve $-1 -56.351176488540304 24.028165701129577 0 0 0 -1 I I #
coedge $-1 $234 $102 $107 $178 forward $53 $-1 #
straight-curve $-1 -28.925588244270152 24.028165701129577 11.709403009150536 -1 0 0 I I #
coedge $-1 $104 $235 $106 $177 forward $174 $-1 #
loop $-1 $-1 $166 $236 #
straight-curve $-1 -28.925588244270152 24.028165701129577 -11.709403009150536 1 0 0 I I #
coedge $-1 $107 $106 $237 $238 forward $95 $-1 #
edge $-1 $239 -24.028165701129581 $109 24.028165701129577 $106 $240 forward 7 unknown #
edge $-1 $108 -24.028165701129577 $241 24.028165701129581 $107 $242 forward 7 unknown #
point $-1 -59.351176488540304 24.028165701129577 11.709403009150536 #
point $-1 -59.351176488540304 24.028165701129577 -11.709403009150536 #
plane-surface $-1 59.351176488540304 0 0 -1 0 0 0 0 1 forward_v I I I I #
coedge $-1 $116 $114 $118 $186 reversed $61 $-1 #
edge $-1 $129 -11.709403009150536 $188 11.709403009150536 $128 $243 forward 7 unknown #
vertex $-1 $186 $244 #
straight-curve $-1 -59.351176488540304 -35.466344530590639 0 0 0 -1 I I #
edge $-1 $184 -35.466344530590639 $188 35.466344530590639 $182 $245 forward 7 unknown #
straight-curve $-1 0 -35.466344530590639 -11.709403009150536 -1 0 0 I I #
vertex $-1 $121 $246 #
straight-curve $-1 0 35.466344530590639 -11.709403009150536 1 0 0 I I #
point $-1 59.351176488540304 35.466344530590639 -11.709403009150536 #
point $-1 59.351176488540304 -35.466344530590639 -11.709403009150536 #
straight-curve $-1 -59.351176488540304 0 11.709403009150536 0 -1 0 I I #
point $-1 -59.351176488540304 35.466344530590639 11.709403009150536 #
point $-1 -59.351176488540304 -35.466344530590639 11.709403009150536 #
straight-curve $-1 59.351176488540304 -35.466344530590639 0 0 0 -1 I I #
straight-curve $-1 59.351176488540304 35.466344530590639 0 0 0 -1 I I #
face $-1 $247 $248 $10 $-1 $249 reversed single #
loop $-1 $-1 $151 $138 #
plane-surface $-1 -59.351176488540304 0 0 1 0 0 0 0 -1 forward_v I I I I #
coedge $-1 $250 $141 $147 $209 forward $45 $-1 #
coedge $-1 $142 $250 $251 $252 forward $45 $-1 #
coedge $-1 $253 $151 $142 $203 reversed $198 $-1 #
edge $-1 $254 -35.466344530590639 $153 24.028165701129581 $202 $255 forward 7 unknown #
straight-curve $-1 -56.351176488540304 -14.873627557930055 11.709403009150536 0 -1 0 I I #
coedge $-1 $144 $256 $146 $208 forward $139 $-1 #
straight-curve $-1 -56.351176488540304 -14.873627557930055 -11.709403009150536 0 1 0 I I #
coedge $-1 $147 $146 $257 $258 reversed $80 $-1 #
edge $-1 $259 -59.351176488540304 $149 56.351176488540304 $146 $260 forward 7 unknown #
edge $-1 $148 -56.351176488540304 $261 59.351176488540304 $147 $262 forward 7 unknown #
point $-1 -56.351176488540304 -35.466344530590639 11.709403009150536 #
point $-1 -56.351176488540304 -35.466344530590639 -11.709403009150536 #
coedge $-1 $151 $253 $155 $216 reversed $198 $-1 #
straight-curve $-1 -59.351176488540304 -24.028165701129581 0 0 0 1 I I #
point $-1 -59.351176488540304 -24.028165701129581 11.709403009150536 #
coedge $-1 $256 $155 $263 $264 forward $139 $-1 #
edge $-1 $156 -24.028165701129581 $265 35.466344530590639 $212 $266 forward 7 unknown #
point $-1 -59.351176488540304 -24.028165701129581 -11.709403009150536 #
face $-1 $236 $267 $11 $-1 $268 reversed single #
loop $-1 $-1 $269 $160 #
plane-surface $-1 -56.351176488540304 -29.74725511586011 0 -1 0 0 0 0 1 forward_v I I I I #
coedge $-1 $270 $271 $272 $273 reversed $161 $-1 #
coedge $-1 $163 $274 $275 $276 forward $53 $-1 #
coedge $-1 $277 $227 $163 $224 reversed $278 $-1 #
edge $-1 $279 -59.351176488540304 $225 56.351176488540304 $223 $280 forward 7 unknown #
vertex $-1 $228 $281 #
straight-curve $-1 -56.351176488540304 14.873627557930053 11.709403009150536 0 -1 0 I I #
coedge $-1 $223 $282 $165 $228 forward $278 $-1 #
edge $-1 $230 -11.709403009150536 $225 11.709403009150536 $227 $283 forward 7 unknown #
coedge $-1 $284 $166 $282 $285 forward $174 $-1 #
vertex $-1 $285 $286 #
straight-curve $-1 -56.351176488540304 14.873627557930053 -11.709403009150536 0 1 0 I I #
point $-1 -56.351176488540304 24.028165701129577 11.709403009150536 #
point $-1 -56.351176488540304 24.028165701129577 -11.709403009150536 #
coedge $-1 $287 $171 $270 $288 forward $53 $-1 #
coedge $-1 $173 $289 $271 $290 forward $174 $-1 #
face $-1 $291 $174 $11 $-1 $292 reversed single #
coedge $-1 $271 $270 $176 $238 reversed $161 $-1 #
edge $-1 $239 -11.709403009150536 $241 11.709403009150536 $176 $293 forward 7 unknown #
vertex $-1 $177 $294 #
straight-curve $-1 -59.351176488540304 0 -11.709403009150536 0 1 0 I I #
vertex $-1 $238 $295 #
straight-curve $-1 -59.351176488540304 0 11.709403009150536 0 -1 0 I I #
straight-curve $-1 -59.351176488540304 35.466344530590639 0 0 0 -1 I I #
point $-1 -59.351176488540304 -35.466344530590639 -11.709403009150536 #
straight-curve $-1 -59.351176488540304 0 -11.709403009150536 0 1 0 I I #
point $-1 -59.351176488540304 35.466344530590639 -11.709403009150536 #
face $-1 $-1 $296 $10 $-1 $297 reversed single #
loop $-1 $-1 $298 $197 #
plane-surface $-1 0 35.466344530590639 0 0 -1 0 0 0 -1 forward_v I I I I #
coedge $-1 $201 $200 $299 $300 forward $45 $-1 #
coedge $-1 $298 $301 $201 $252 reversed $248 $-1 #
edge $-1 $302 -59.351176488540304 $254 59.351176488540304 $251 $303 forward 7 unknown #
coedge $-1 $212 $202 $301 $304 forward $198 $-1 #
vertex $-1 $252 $305 #
straight-curve $-1 -59.351176488540304 0 11.709403009150536 0 -1 0 I I #
coedge $-1 $205 $215 $306 $307 forward $139 $-1 #
coedge $-1 $306 $299 $207 $258 forward $296 $-1 #
edge $-1 $261 -11.709403009150536 $259 11.709403009150536 $257 $308 forward 7 unknown #
vertex $-1 $258 $309 #
straight-curve $-1 0 -35.466344530590639 -11.709403009150536 -1 0 0 I I #
vertex $-1 $300 $310 #
straight-curve $-1 0 -35.466344530590639 11.709403009150536 1 0 0 I I #
coedge $-1 $301 $298 $215 $264 reversed $248 $-1 #
edge $-1 $265 -59.351176488540304 $311 59.351176488540304 $263 $312 forward 7 unknown #
vertex $-1 $264 $313 #
straight-curve $-1 -59.351176488540304 0 -11.709403009150536 0 1 0 I I #
loop $-1 $-1 $314 $218 #
plane-surface $-1 0 -35.466344530590639 0 0 1 0 0 0 1 forward_v I I I I #
coedge $-1 $315 $316 $314 $317 reversed $219 $-1 #
coedge $-1 $237 $221 $234 $288 reversed $161 $-1 #
coedge $-1 $221 $237 $235 $290 reversed $161 $-1 #
coedge $-1 $316 $315 $221 $273 forward $219 $-1 #
edge $-1 $318 -11.709403009150536 $319 11.709403009150536 $272 $320 forward 7 unknown #
coedge $-1 $222 $287 $321 $322 forward $53 $-1 #
coedge $-1 $323 $324 $222 $276 reversed $325 $-1 #
edge $-1 $326 -35.466344530590639 $279 35.466344530590639 $275 $327 forward 7 unknown #
coedge $-1 $282 $223 $324 $328 forward $278 $-1 #
loop $-1 $-1 $227 $291 #
vertex $-1 $276 $329 #
straight-curve $-1 0 35.466344530590639 11.709403009150536 -1 0 0 I I #
point $-1 -56.351176488540304 35.466344530590632 11.709403009150536 #
coedge $-1 $227 $277 $229 $285 reversed $278 $-1 #
straight-curve $-1 -56.351176488540304 35.466344530590639 0 0 0 1 I I #
coedge $-1 $330 $229 $331 $332 forward $174 $-1 #
edge $-1 $230 -56.351176488540304 $333 59.351176488540304 $282 $334 forward 7 unknown #
point $-1 -56.351176488540304 35.466344530590632 -11.709403009150536 #
coedge $-1 $274 $234 $315 $335 forward $53 $-1 #
edge $-1 $241 -30.425588244270152 $318 -27.425588244270152 $234 $336 forward 7 unknown #
coedge $-1 $235 $330 $316 $337 forward $174 $-1 #
edge $-1 $319 27.425588244270152 $239 30.425588244270152 $235 $338 forward 7 unknown #
face $-1 $339 $278 $11 $-1 $340 reversed single #
plane-surface $-1 0 0 -11.709403009150536 0 0 1 1 0 0 forward_v I I I I #
straight-curve $-1 -59.351176488540304 -24.028165701129581 0 0 0 1 I I #
point $-1 -59.351176488540304 -24.028165701129581 -11.709403009150536 #
point $-1 -59.351176488540304 -24.028165701129581 11.709403009150536 #
loop $-1 $-1 $257 $247 #
plane-surface $-1 59.351176488540304 0 0 -1 0 0 0 0 1 forward_v I I I I #
coedge $-1 $263 $251 $341 $342 forward $248 $-1 #
coedge $-1 $257 $341 $250 $300 reversed $296 $-1 #
edge $-1 $261 -35.466344530590639 $302 35.466344530590639 $299 $343 forward 7 unknown #
coedge $-1 $251 $263 $253 $304 reversed $248 $-1 #
vertex $-1 $300 $344 #
straight-curve $-1 0 35.466344530590639 11.709403009150536 -1 0 0 I I #
edge $-1 $254 -11.709403009150536 $265 11.709403009150536 $301 $345 forward 7 unknown #
point $-1 -59.351176488540304 35.466344530590639 11.709403009150536 #
coedge $-1 $341 $257 $256 $307 reversed $296 $-1 #
edge $-1 $311 -35.466344530590639 $259 35.466344530590639 $306 $346 forward 7 unknown #
straight-curve $-1 59.351176488540304 -35.466344530590639 0 0 0 -1 I I #
point $-1 59.351176488540304 -35.466344530590639 -11.709403009150536 #
point $-1 59.351176488540304 -35.466344530590639 11.709403009150536 #
vertex $-1 $307 $347 #
straight-curve $-1 0 35.466344530590639 -11.709403009150536 1 0 0 I I #
point $-1 -59.351176488540304 35.466344530590639 -11.709403009150536 #
coedge $-1 $348 $321 $269 $317 forward $267 $-1 #
coedge $-1 $272 $269 $287 $335 reversed $219 $-1 #
coedge $-1 $269 $272 $289 $337 reversed $219 $-1 #
edge $-1 $349 -11.709403009150536 $350 11.709403009150536 $314 $351 forward 7 unknown #
vertex $-1 $288 $352 #
vertex $-1 $290 $353 #
straight-curve $-1 -56.351176488540304 -24.028165701129581 0 0 0 -1 I I #
coedge $-1 $314 $354 $274 $322 reversed $267 $-1 #
edge $-1 $349 -56.351176488540304 $326 59.351176488540304 $321 $355 forward 7 unknown #
coedge $-1 $331 $275 $354 $356 forward $325 $-1 #
coedge $-1 $275 $331 $277 $328 reversed $325 $-1 #
loop $-1 $-1 $323 $339 #
vertex $-1 $276 $357 #
straight-curve $-1 59.351176488540304 0 11.709403009150536 0 1 0 I I #
edge $-1 $279 -11.709403009150536 $333 11.709403009150536 $324 $358 forward 7 unknown #
point $-1 59.351176488540304 35.466344530590639 11.709403009150536 #
coedge $-1 $289 $284 $348 $359 forward $174 $-1 #
coedge $-1 $324 $323 $284 $332 reversed $325 $-1 #
edge $-1 $333 -35.466344530590639 $360 35.466344530590639 $331 $361 forward 7 unknown #
vertex $-1 $332 $362 #
straight-curve $-1 0 35.466344530590639 -11.709403009150536 1 0 0 I I #
edge $-1 $318 9.1545381431995256 $349 20.592716972660583 $287 $363 forward 7 unknown #
straight-curve $-1 -28.925588244270152 -24.028165701129581 11.709403009150536 1 0 0 I I #
edge $-1 $350 -20.592716972660583 $319 -9.1545381431995256 $289 $364 forward 7 unknown #
straight-curve $-1 -28.925588244270152 -24.028165701129581 -11.709403009150536 -1 0 0 I I #
face $-1 $-1 $325 $11 $-1 $365 reversed single #
plane-surface $-1 0 35.466344530590639 0 0 -1 0 0 0 -1 forward_v I I I I #
coedge $-1 $299 $306 $298 $342 reversed $296 $-1 #
edge $-1 $302 -11.709403009150536 $311 11.709403009150536 $341 $366 forward 7 unknown #
straight-curve $-1 59.351176488540304 0 11.709403009150536 0 1 0 I I #
point $-1 59.351176488540304 35.466344530590639 11.709403009150536 #
straight-curve $-1 -59.351176488540304 35.466344530590639 0 0 0 -1 I I #
straight-curve $-1 59.351176488540304 0 -11.709403009150536 0 -1 0 I I #
point $-1 59.351176488540304 35.466344530590639 -11.709403009150536 #
coedge $-1 $354 $314 $330 $359 reversed $267 $-1 #
vertex $-1 $322 $367 #
vertex $-1 $317 $368 #
straight-curve $-1 -56.351176488540304 -35.466344530590639 0 0 0 -1 I I #
point $-1 -56.351176488540304 -24.028165701129581 11.709403009150536 #
point $-1 -56.351176488540304 -24.028165701129581 -11.709403009150536 #
coedge $-1 $321 $348 $323 $356 reversed $267 $-1 #
straight-curve $-1 0 -35.466344530590639 11.709403009150536 1 0 0 I I #
edge $-1 $326 -11.709403009150536 $360 11.709403009150536 $323 $369 forward 7 unknown #
point $-1 59.351176488540304 -35.466344530590639 11.709403009150536 #
straight-curve $-1 59.351176488540304 35.466344530590639 0 0 0 -1 I I #
edge $-1 $360 -59.351176488540304 $350 56.351176488540304 $348 $370 forward 7 unknown #
vertex $-1 $356 $371 #
straight-curve $-1 59.351176488540304 0 -11.709403009150536 0 -1 0 I I #
point $-1 59.351176488540304 35.466344530590639 -11.709403009150536 #
straight-curve $-1 -56.351176488540304 -14.873627557930055 11.709403009150536 0 -1 0 I I #
straight-curve $-1 -56.351176488540304 -14.873627557930055 -11.709403009150536 0 1 0 I I #
plane-surface $-1 59.351176488540304 0 0 -1 0 0 0 0 1 forward_v I I I I #
straight-curve $-1 59.351176488540304 35.466344530590639 0 0 0 -1 I I #
point $-1 -56.351176488540304 -35.466344530590639 11.709403009150536 #
point $-1 -56.351176488540304 -35.466344530590639 -11.709403009150536 #
straight-curve $-1 59.351176488540304 -35.466344530590639 0 0 0 -1 I I #
straight-curve $-1 0 -35.466344530590639 -11.709403009150536 -1 0 0 I I #
point $-1 59.351176488540304 -35.466344530590639 -11.709403009150536 #
End-of-ACIS-data 