500 0 8 0           
7 Unknown 11 ACIS 5.0 NT 24 Fri Mar 26 18:38:37 1999 
-1 9.9999999999999995e-007 1e-010 
body $-1 $8 $-1 $9 #
body $-1 $10 $-1 $11 #
body $-1 $12 $-1 $13 #
body $-1 $14 $-1 $15 #
body $-1 $16 $-1 $17 #
body $-1 $18 $-1 $19 #
body $-1 $20 $-1 $21 #
body $-1 $22 $-1 $23 #
lump $-1 $-1 $24 $0 #
transform $-1 1 0 0 0 1 0 0 0 1 47.815179906613359 19.258717607761199 6.8586002191304587 1 rotate no_reflect no_shear #
lump $-1 $-1 $25 $1 #
transform $-1 1 0 0 0 1 0 0 0 1 47.815179906613359 19.258717607761199 6.8586002191304587 1 rotate no_reflect no_shear #
lump $-1 $-1 $26 $2 #
transform $-1 1 0 0 0 1 0 0 0 1 47.815179906613359 19.258717607761199 6.8586002191304587 1 rotate no_reflect no_shear #
lump $-1 $-1 $27 $3 #
transform $-1 1 0 0 0 1 0 0 0 1 47.815179906613359 19.258717607761199 6.8586002191304587 1 rotate no_reflect no_shear #
lump $-1 $-1 $28 $4 #
transform $-1 1 0 0 0 1 0 0 0 1 47.815179906613359 19.258717607761199 6.8586002191304587 1 rotate no_reflect no_shear #
lump $-1 $-1 $29 $5 #
transform $-1 1 0 0 0 1 0 0 0 1 47.815179906613359 19.258717607761199 6.8586002191304587 1 rotate no_reflect no_shear #
lump $-1 $-1 $30 $6 #
transform $-1 1 0 0 0 1 0 0 0 1 47.815179906613359 19.258717607761199 6.8586002191304587 1 rotate no_reflect no_shear #
lump $-1 $-1 $31 $7 #
transform $-1 1 0 0 0 1 0 0 0 1 47.815179906613359 19.258717607761199 6.8586002191304587 1 rotate no_reflect no_shear #
shell $-1 $-1 $-1 $32 $-1 $8 #
shell $-1 $-1 $-1 $33 $-1 $10 #
shell $-1 $-1 $-1 $34 $-1 $12 #
shell $-1 $-1 $-1 $35 $-1 $14 #
shell $-1 $-1 $-1 $36 $-1 $16 #
shell $-1 $-1 $-1 $37 $-1 $18 #
shell $-1 $-1 $-1 $38 $-1 $20 #
shell $-1 $-1 $-1 $39 $-1 $22 #
face $-1 $40 $41 $24 $-1 $42 forward single #
face $-1 $43 $44 $25 $-1 $45 reversed single #
face $-1 $46 $47 $26 $-1 $48 forward single #
face $-1 $49 $50 $27 $-1 $51 reversed single #
face $-1 $52 $53 $28 $-1 $54 forward single #
face $-1 $55 $56 $29 $-1 $57 forward single #
face $-1 $58 $59 $30 $-1 $60 reversed single #
face $-1 $61 $62 $31 $-1 $63 forward single #
face $-1 $64 $65 $24 $-1 $66 reversed single #
loop $-1 $-1 $67 $32 #
plane-surface $-1 0 0 6.8586002191304587 0 0 1 1 0 0 forward_v I I I I #
face $-1 $68 $69 $25 $-1 $70 reversed single #
loop $-1 $-1 $71 $33 #
plane-surface $-1 -43.523285283267569 -15.399004594036358 0 0 -1 0 0 0 -1 forward_v I I I I #
face $-1 $72 $73 $26 $-1 $74 reversed single #
loop $-1 $-1 $75 $34 #
plane-surface $-1 47.815179906613359 0 0 -1 0 0 0 0 1 forward_v I I I I #
face $-1 $76 $77 $27 $-1 $78 reversed single #
loop $-1 $-1 $79 $35 #
plane-surface $-1 12.77290909332611 59.643654984775011 97.225649636888363 1 0 0 0 -0.70710678939079041 -0.70710677298230451 forward_v I I I I #
face $-1 $80 $81 $28 $-1 $82 forward single #
loop $-1 $83 $84 $36 #
cone-surface $-1 17.247068784000938 16.170278679068527 3.7701612579198462 0 -0.70710678939079041 -0.70710677298230451 1.5 0 0 1 I I 0 1 1.5 forward I I I I #
face $-1 $85 $86 $29 $-1 $87 forward single #
loop $-1 $88 $89 $37 #
cone-surface $-1 23.958308320013181 16.170278679068527 3.7701612579198462 0 -0.70710678939079041 -0.70710677298230451 1.5 0 0 1 I I 0 1 1.5 forward I I I I #
face $-1 $90 $91 $30 $-1 $92 reversed single #
loop $-1 $-1 $93 $38 #
plane-surface $-1 -7.3165351965690917 -102.89891563042579 46.968150244355442 -1 0 0 0 -0.87461971476443456 0.48480960649040278 forward_v I I I I #
face $-1 $94 $95 $31 $-1 $96 forward single #
loop $-1 $97 $98 $39 #
cone-surface $-1 -18.777848393873697 -17.088369688012055 3.4897118737047128 0 0.87461971476443456 -0.48480960649040278 0.5 0 0 1 I I 0 1 0.5 forward I I I I #
face $-1 $99 $100 $24 $-1 $101 reversed single #
loop $-1 $-1 $102 $40 #
plane-surface $-1 0 0 -6.8586002191304587 0 0 1 1 0 0 forward_v I I I I #
coedge $-1 $103 $104 $105 $106 forward $41 $-1 #
face $-1 $107 $108 $25 $-1 $109 forward single #
loop $-1 $-1 $110 $43 #
plane-surface $-1 -39.231390659921779 -17.328861100898777 0 -1 0 0 0 0 1 forward_v I I I I #
coedge $-1 $111 $112 $113 $114 forward $44 $-1 #
face $-1 $115 $116 $26 $-1 $117 reversed single #
loop $-1 $-1 $118 $46 #
plane-surface $-1 0 -19.258717607761199 0 0 1 0 0 0 1 forward_v I I I I #
coedge $-1 $119 $120 $121 $122 forward $47 $-1 #
face $-1 $123 $124 $27 $-1 $125 reversed single #
loop $-1 $-1 $126 $49 #
plane-surface $-1 20.602688552007059 -7.9772217110418069 29.604774510220963 0 0.70710678939079041 0.70710677298230451 1 0 0 forward_v I I I I #
coedge $-1 $127 $128 $129 $130 reversed $50 $-1 #
face $-1 $-1 $131 $28 $-1 $132 forward single #
loop $-1 $133 $134 $52 #
cone-surface $-1 17.247068784000938 14.796392436102678 2.3962750468351679 0 -0.70710678939079041 -0.70710677298230451 0.75 0 0 1 I I -0.70710678118654757 0.70710678118654757 0.75 forward I I I I #
loop $-1 $-1 $135 $36 #
coedge $-1 $84 $84 $136 $137 reversed $53 $-1 #
face $-1 $-1 $138 $29 $-1 $139 forward single #
loop $-1 $140 $141 $55 #
cone-surface $-1 23.958308320013181 14.796392436102678 2.3962750468351679 0 -0.70710678939079041 -0.70710677298230451 0.75 0 0 1 I I -0.70710678118654757 0.70710678118654757 0.75 forward I I I I #
loop $-1 $-1 $142 $37 #
coedge $-1 $89 $89 $143 $144 reversed $56 $-1 #
face $-1 $145 $146 $30 $-1 $147 reversed single #
loop $-1 $-1 $148 $58 #
plane-surface $-1 -18.777848393873697 -19.258717607761199 0.60563313476936997 0 -0.87461971476443456 0.48480960649040278 1 0 0 forward_v I I I I #
coedge $-1 $149 $150 $151 $152 reversed $59 $-1 #
face $-1 $-1 $153 $31 $-1 $154 forward single #
loop $-1 $155 $156 $61 #
cone-surface $-1 -18.777848393873697 -16.432404901938728 3.126104668836911 0 0.87461971476443456 -0.48480960649040278 0.25 0 0 1 I I -0.70710678118654746 0.70710678118654746 0.25 forward I I I I #
loop $-1 $-1 $157 $39 #
coedge $-1 $98 $98 $158 $159 reversed $62 $-1 #
face $-1 $160 $161 $24 $-1 $162 reversed single #
loop $-1 $-1 $163 $64 #
plane-surface $-1 0 -19.258717607761199 0 0 1 0 0 0 1 forward_v I I I I #
coedge $-1 $164 $165 $166 $167 forward $65 $-1 #
coedge $-1 $168 $67 $169 $170 forward $41 $-1 #
coedge $-1 $67 $168 $171 $172 forward $41 $-1 #
coedge $-1 $173 $174 $67 $106 reversed $175 $-1 #
edge $-1 $176 -19.258717607761199 $177 19.258717607761199 $105 $178 forward 7 unknown #
face $-1 $179 $180 $25 $-1 $181 reversed single #
loop $-1 $-1 $182 $68 #
plane-surface $-1 0 0 6.8586002191304587 0 0 1 1 0 0 forward_v I I I I #
coedge $-1 $183 $184 $185 $186 reversed $69 $-1 #
coedge $-1 $187 $71 $188 $189 reversed $44 $-1 #
coedge $-1 $71 $187 $190 $191 reversed $44 $-1 #
coedge $-1 $184 $183 $71 $114 reversed $69 $-1 #
edge $-1 $192 -6.8586002191304587 $193 6.8586002191304587 $113 $194 forward 7 unknown #
face $-1 $195 $196 $26 $-1 $197 reversed single #
loop $-1 $-1 $198 $72 #
plane-surface $-1 0 0 -6.8586002191304587 0 0 1 1 0 0 forward_v I I I I #
coedge $-1 $199 $200 $201 $202 forward $73 $-1 #
coedge $-1 $201 $75 $198 $203 reversed $47 $-1 #
coedge $-1 $75 $201 $204 $205 reversed $47 $-1 #
coedge $-1 $206 $207 $75 $122 reversed $196 $-1 #
edge $-1 $208 -6.8586002191304587 $209 6.8586002191304587 $121 $210 forward 7 unknown #
face $-1 $211 $212 $27 $-1 $213 reversed single #
loop $-1 $-1 $214 $76 #
plane-surface $-1 28.432468010688009 59.643654984775011 97.225649636888363 -1 0 0 0 0.70710678939079041 0.70710677298230451 forward_v I I I I #
coedge $-1 $215 $216 $217 $218 reversed $77 $-1 #
coedge $-1 $128 $79 $219 $220 reversed $50 $-1 #
coedge $-1 $79 $127 $215 $221 reversed $50 $-1 #
coedge $-1 $217 $222 $79 $130 forward $223 $-1 #
edge $-1 $224 10.563109884626307 $225 15.052875440166126 $129 $226 forward 7 unknown #
loop $-1 $-1 $136 $80 #
plane-surface $-1 20.602688552007059 -7.9772217110418069 29.604774510220963 0 0.70710678939079041 0.70710677298230451 1 0 0 forward_v I I I I #
loop $-1 $-1 $227 $52 #
coedge $-1 $134 $134 $135 $228 reversed $81 $-1 #
coedge $-1 $135 $135 $134 $228 forward $83 $-1 #
coedge $-1 $136 $136 $84 $137 forward $131 $-1 #
edge $-1 $229 4.1869144376286518e-016 $229 6.2831853071796004 $136 $230 forward 7 unknown #
loop $-1 $-1 $143 $85 #
plane-surface $-1 20.602688552007059 -7.9772217110418069 29.604774510220963 0 0.70710678939079041 0.70710677298230451 1 0 0 forward_v I I I I #
loop $-1 $-1 $231 $55 #
coedge $-1 $141 $141 $142 $232 reversed $86 $-1 #
coedge $-1 $142 $142 $141 $232 forward $88 $-1 #
coedge $-1 $143 $143 $89 $144 forward $138 $-1 #
edge $-1 $233 4.1869144376286518e-016 $233 6.2831853071796004 $143 $234 forward 7 unknown #
face $-1 $235 $236 $30 $-1 $237 forward single #
loop $-1 $-1 $238 $90 #
plane-surface $-1 -30.239161591178302 -102.89891563042579 46.968150244355442 1 0 0 0 0.87461971476443456 -0.48480960649040278 forward_v I I I I #
coedge $-1 $239 $240 $241 $242 reversed $91 $-1 #
coedge $-1 $150 $93 $243 $244 reversed $59 $-1 #
coedge $-1 $93 $149 $239 $245 reversed $59 $-1 #
coedge $-1 $241 $246 $93 $152 forward $236 $-1 #
edge $-1 $247 32.190740207451697 $248 35.656816332185549 $151 $249 forward 7 unknown #
loop $-1 $-1 $158 $94 #
plane-surface $-1 -18.777848393873697 -19.258717607761199 0.60563313476936997 0 -0.87461971476443456 0.48480960649040278 1 0 0 forward_v I I I I #
loop $-1 $-1 $250 $61 #
coedge $-1 $156 $156 $157 $251 reversed $95 $-1 #
coedge $-1 $157 $157 $156 $251 forward $97 $-1 #
coedge $-1 $158 $158 $98 $159 forward $153 $-1 #
edge $-1 $252 7.7681835609804978e-016 $252 6.2831853071796013 $158 $253 forward 7 unknown #
face $-1 $254 $255 $24 $-1 $256 reversed single #
loop $-1 $-1 $257 $99 #
plane-surface $-1 -47.815179906613359 0 0 1 0 0 0 0 -1 forward_v I I I I #
coedge $-1 $258 $171 $259 $260 forward $100 $-1 #
coedge $-1 $261 $102 $258 $262 forward $65 $-1 #
coedge $-1 $102 $261 $263 $264 forward $65 $-1 #
coedge $-1 $174 $173 $102 $167 reversed $175 $-1 #
edge $-1 $265 -19.258717607761199 $266 19.258717607761199 $166 $267 forward 7 unknown #
coedge $-1 $104 $103 $268 $269 forward $41 $-1 #
coedge $-1 $270 $271 $103 $170 reversed $255 $-1 #
edge $-1 $177 -47.815179906613359 $272 47.815179906613359 $169 $273 forward 7 unknown #
coedge $-1 $163 $274 $104 $172 reversed $100 $-1 #
edge $-1 $275 -47.815179906613359 $176 47.815179906613359 $171 $276 forward 7 unknown #
coedge $-1 $166 $105 $274 $277 forward $175 $-1 #
coedge $-1 $105 $166 $270 $278 reversed $175 $-1 #
loop $-1 $-1 $173 $254 #
vertex $-1 $106 $279 #
vertex $-1 $106 $280 #
straight-curve $-1 47.815179906613359 0 6.8586002191304587 0 1 0 I I #
face $-1 $281 $282 $25 $-1 $283 reversed single #
loop $-1 $-1 $284 $107 #
plane-surface $-1 -47.815179906613359 0 0 1 0 0 0 0 -1 forward_v I I I I #
coedge $-1 $190 $285 $184 $286 forward $108 $-1 #
coedge $-1 $113 $110 $287 $288 reversed $69 $-1 #
coedge $-1 $110 $113 $182 $286 reversed $69 $-1 #
coedge $-1 $289 $290 $110 $186 forward $291 $-1 #
edge $-1 $292 -6.8586002191304587 $293 6.8586002191304587 $185 $294 forward 7 unknown #
coedge $-1 $112 $111 $284 $295 reversed $44 $-1 #
coedge $-1 $287 $296 $111 $189 forward $282 $-1 #
edge $-1 $297 -26.053537264979575 $193 -17.469748018287994 $188 $298 forward 7 unknown #
coedge $-1 $299 $182 $112 $191 forward $108 $-1 #
edge $-1 $192 17.469748018287994 $300 26.053537264979575 $190 $301 forward 7 unknown #
vertex $-1 $191 $302 #
vertex $-1 $189 $303 #
straight-curve $-1 -39.231390659921779 -15.399004594036358 0 0 0 -1 I I #
face $-1 $304 $305 $26 $-1 $306 reversed single #
loop $-1 $-1 $307 $115 #
plane-surface $-1 51.870980608295092 -16.258717607761199 0 0 -1 0 0 0 -1 forward_v I I I I #
coedge $-1 $308 $309 $119 $203 forward $116 $-1 #
coedge $-1 $310 $118 $309 $311 reversed $73 $-1 #
coedge $-1 $118 $310 $312 $313 reversed $73 $-1 #
coedge $-1 $120 $119 $118 $202 reversed $47 $-1 #
edge $-1 $314 -6.8586002191304587 $315 6.8586002191304587 $118 $316 forward 7 unknown #
edge $-1 $315 -19.258717607761199 $209 -16.258717607761199 $198 $317 forward 7 unknown #
coedge $-1 $312 $318 $120 $205 forward $319 $-1 #
edge $-1 $208 16.258717607761199 $314 19.258717607761199 $204 $320 forward 7 unknown #
coedge $-1 $307 $121 $318 $321 reversed $196 $-1 #
coedge $-1 $121 $307 $308 $322 reversed $196 $-1 #
vertex $-1 $205 $323 #
vertex $-1 $322 $324 #
straight-curve $-1 47.815179906613359 -16.258717607761199 0 0 0 -1 I I #
face $-1 $-1 $223 $27 $-1 $325 forward single #
loop $-1 $-1 $326 $123 #
plane-surface $-1 0 19.258717607761199 0 0 -1 0 0 0 -1 forward_v I I I I #
coedge $-1 $327 $328 $329 $330 reversed $124 $-1 #
coedge $-1 $331 $126 $128 $221 forward $77 $-1 #
coedge $-1 $126 $331 $327 $332 forward $77 $-1 #
coedge $-1 $329 $129 $126 $218 forward $223 $-1 #
edge $-1 $225 2.4715648173225802 $333 18.131123734684479 $217 $334 forward 7 unknown #
coedge $-1 $335 $336 $127 $220 forward $212 $-1 #
edge $-1 $337 -46.243990259039016 $224 -41.754224599313723 $219 $338 forward 7 unknown #
edge $-1 $225 32.167947801332154 $337 38.51743521552239 $128 $339 forward 7 unknown #
coedge $-1 $129 $329 $335 $340 forward $223 $-1 #
loop $-1 $-1 $329 $211 #
vertex $-1 $220 $341 #
vertex $-1 $130 $342 #
straight-curve $-1 12.77290909332611 29.821827492387506 6.8586002191304587 0 -1 0 I I #
coedge $-1 $227 $227 $-1 $343 reversed $133 $-1 #
edge $-1 $344 0 $344 6.2831853071796004 $134 $345 forward 7 unknown #
vertex $-1 $137 $346 #
ellipse-curve $-1 17.247068784000938 17.013834829991296 4.6137173892678076 0 0.70710678939079041 0.70710677298230451 1.5 0 0 1 I I #
coedge $-1 $231 $231 $-1 $347 reversed $140 $-1 #
edge $-1 $348 0 $348 6.2831853071796004 $141 $349 forward 7 unknown #
vertex $-1 $144 $350 #
ellipse-curve $-1 23.958308320013181 17.013834829991296 4.6137173892678076 0 0.70710678939079041 0.70710677298230451 1.5 0 0 1 I I #
face $-1 $-1 $351 $30 $-1 $352 reversed single #
loop $-1 $-1 $151 $145 #
plane-surface $-1 0 0 6.8586002191304587 0 0 1 1 0 0 forward_v I I I I #
coedge $-1 $353 $354 $355 $356 reversed $146 $-1 #
coedge $-1 $357 $148 $150 $245 forward $91 $-1 #
coedge $-1 $148 $357 $353 $358 forward $91 $-1 #
coedge $-1 $355 $151 $148 $242 forward $236 $-1 #
edge $-1 $248 -2.0723890003677568 $359 20.850237394241454 $241 $360 forward 7 unknown #
coedge $-1 $361 $362 $149 $244 forward $351 $-1 #
edge $-1 $363 -22.878441987408351 $247 -16.625474903047262 $243 $364 forward 7 unknown #
edge $-1 $248 -7.1493552898532942 $363 0 $150 $365 forward 7 unknown #
coedge $-1 $151 $355 $361 $366 forward $236 $-1 #
vertex $-1 $152 $367 #
vertex $-1 $152 $368 #
straight-curve $-1 -7.3165351965690917 -51.449457815212895 6.8586002191304587 0 1 0 I I #
coedge $-1 $250 $250 $-1 $369 reversed $155 $-1 #
edge $-1 $370 0 $370 6.2831853071796004 $156 $371 forward 7 unknown #
vertex $-1 $159 $372 #
ellipse-curve $-1 -18.777848393873697 -17.525679545394272 3.7321166769499139 0 -0.87461971476443456 0.48480960649040278 0.5 0 0 1 I I #
face $-1 $-1 $175 $24 $-1 $373 reversed single #
loop $-1 $-1 $270 $160 #
plane-surface $-1 0 19.258717607761199 0 0 -1 0 0 0 -1 forward_v I I I I #
coedge $-1 $374 $268 $271 $375 forward $161 $-1 #
coedge $-1 $274 $163 $164 $262 reversed $100 $-1 #
coedge $-1 $268 $374 $163 $260 reversed $161 $-1 #
edge $-1 $275 -6.8586002191304587 $376 6.8586002191304587 $259 $377 forward 7 unknown #
coedge $-1 $165 $164 $374 $378 forward $65 $-1 #
edge $-1 $266 -47.815179906613359 $376 47.815179906613359 $258 $379 forward 7 unknown #
coedge $-1 $271 $270 $165 $264 reversed $255 $-1 #
edge $-1 $380 -47.815179906613359 $265 47.815179906613359 $263 $381 forward 7 unknown #
vertex $-1 $167 $382 #
vertex $-1 $277 $383 #
straight-curve $-1 47.815179906613359 0 -6.8586002191304587 0 -1 0 I I #
coedge $-1 $257 $259 $168 $269 reversed $161 $-1 #
edge $-1 $272 -19.258717607761199 $275 19.258717607761199 $268 $384 forward 7 unknown #
coedge $-1 $263 $169 $174 $278 forward $255 $-1 #
coedge $-1 $169 $263 $257 $375 reversed $255 $-1 #
vertex $-1 $170 $385 #
straight-curve $-1 0 19.258717607761199 6.8586002191304587 -1 0 0 I I #
coedge $-1 $171 $258 $173 $277 reversed $100 $-1 #
vertex $-1 $269 $386 #
straight-curve $-1 0 -19.258717607761199 6.8586002191304587 1 0 0 I I #
edge $-1 $176 -6.8586002191304587 $266 6.8586002191304587 $173 $387 forward 7 unknown #
edge $-1 $177 -6.8586002191304587 $265 6.8586002191304587 $174 $388 forward 7 unknown #
point $-1 47.815179906613359 -19.258717607761199 6.8586002191304587 #
point $-1 47.815179906613359 19.258717607761199 6.8586002191304587 #
face $-1 $-1 $291 $25 $-1 $389 reversed single #
loop $-1 $-1 $287 $179 #
plane-surface $-1 0 0 -6.8586002191304587 0 0 1 1 0 0 forward_v I I I I #
coedge $-1 $390 $391 $187 $295 forward $180 $-1 #
coedge $-1 $182 $299 $289 $392 forward $108 $-1 #
edge $-1 $293 -10.59428705731181 $192 -6.734574043586969 $182 $393 forward 7 unknown #
coedge $-1 $394 $188 $183 $288 forward $282 $-1 #
edge $-1 $193 6.734574043586969 $292 10.59428705731181 $287 $395 forward 7 unknown #
coedge $-1 $396 $185 $285 $392 reversed $291 $-1 #
coedge $-1 $185 $396 $394 $397 reversed $291 $-1 #
loop $-1 $-1 $185 $281 #
vertex $-1 $397 $398 #
vertex $-1 $186 $399 #
straight-curve $-1 -39.231390659921779 -19.258717607761199 0 0 0 1 I I #
edge $-1 $300 -6.8586002191304587 $297 6.8586002191304587 $284 $400 forward 7 unknown #
coedge $-1 $188 $394 $390 $401 forward $282 $-1 #
vertex $-1 $189 $402 #
straight-curve $-1 -21.761642641633784 -15.399004594036358 -6.8586002191304587 1 0 0 I I #
coedge $-1 $285 $190 $391 $403 forward $108 $-1 #
vertex $-1 $403 $404 #
straight-curve $-1 -21.761642641633784 -15.399004594036358 6.8586002191304587 -1 0 0 I I #
point $-1 -39.231390659921779 -15.399004594036358 6.8586002191304587 #
point $-1 -39.231390659921779 -15.399004594036358 -6.8586002191304587 #
face $-1 $-1 $319 $26 $-1 $405 forward single #
loop $-1 $-1 $406 $195 #
plane-surface $-1 55.926781309976825 -17.758717607761199 0 -1 0 0 0 0 1 forward_v I I I I #
coedge $-1 $207 $206 $407 $408 forward $196 $-1 #
coedge $-1 $409 $198 $207 $322 forward $116 $-1 #
coedge $-1 $198 $409 $199 $311 forward $116 $-1 #
coedge $-1 $200 $199 $406 $410 reversed $73 $-1 #
edge $-1 $411 -4.0558007016817328 $315 4.0558007016817328 $199 $412 forward 7 unknown #
coedge $-1 $413 $204 $200 $313 forward $319 $-1 #
edge $-1 $314 -4.0558007016817328 $414 4.0558007016817328 $200 $415 forward 7 unknown #
vertex $-1 $313 $416 #
vertex $-1 $203 $417 #
straight-curve $-1 47.815179906613359 -19.258717607761199 0 0 0 -1 I I #
straight-curve $-1 47.815179906613359 0 -6.8586002191304587 0 1 0 I I #
coedge $-1 $204 $413 $206 $321 forward $319 $-1 #
loop $-1 $-1 $204 $304 #
straight-curve $-1 47.815179906613359 0 6.8586002191304587 0 -1 0 I I #
edge $-1 $418 -4.0558007016817328 $208 4.0558007016817328 $206 $419 forward 7 unknown #
edge $-1 $209 -4.0558007016817328 $420 4.0558007016817328 $207 $421 forward 7 unknown #
point $-1 47.815179906613359 -16.258717607761199 6.8586002191304587 #
point $-1 47.815179906613359 -16.258717607761199 -6.8586002191304587 #
plane-surface $-1 0 0 6.8586002191304587 0 0 1 1 0 0 forward_v I I I I #
coedge $-1 $336 $335 $328 $422 forward $212 $-1 #
coedge $-1 $328 $214 $216 $332 reversed $124 $-1 #
coedge $-1 $214 $327 $326 $422 reversed $124 $-1 #
coedge $-1 $222 $217 $214 $330 forward $223 $-1 #
edge $-1 $333 -15.052875440166126 $423 -10.563109884626307 $329 $424 forward 7 unknown #
coedge $-1 $216 $215 $336 $425 reversed $77 $-1 #
edge $-1 $426 -38.51743521552239 $333 -32.167947801332154 $327 $427 forward 7 unknown #
vertex $-1 $218 $428 #
straight-curve $-1 10.30134427600353 14.768952052221382 6.8586002191304569 1 0 0 I I #
coedge $-1 $326 $219 $222 $340 reversed $212 $-1 #
coedge $-1 $219 $326 $331 $425 forward $212 $-1 #
vertex $-1 $220 $429 #
straight-curve $-1 12.77290909332611 19.258717607761199 48.612824818444182 0 0 1 I I #
straight-curve $-1 12.77290909332611 -7.9772217110418069 29.604774510220963 0 0.70710677298230451 -0.70710678939079041 I I #
edge $-1 $423 -28.432468010688009 $224 -12.77290909332611 $335 $430 forward 7 unknown #
point $-1 12.77290909332611 19.258717607761199 6.8586002191304587 #
point $-1 12.77290909332611 14.76895205222138 6.8586002191304587 #
edge $-1 $431 1 $431 0 $227 $-1 forward 7 unknown #
vertex $-1 $228 $432 #
ellipse-curve $-1 17.247068784000938 15.326722528145771 2.9266051265718964 0 0.70710678939079041 0.70710677298230451 1.5 0 0 1 I I #
point $-1 18.747068784000938 17.013834829991286 4.6137173892677961 #
edge $-1 $433 1 $433 0 $231 $-1 forward 7 unknown #
vertex $-1 $232 $434 #
ellipse-curve $-1 23.958308320013181 15.326722528145771 2.9266051265718964 0 0.70710678939079041 0.70710677298230451 1.5 0 0 1 I I #
point $-1 25.458308320013181 17.013834829991286 4.6137173892677961 #
loop $-1 $-1 $243 $235 #
plane-surface $-1 0 -19.258717607761199 0 0 1 0 0 0 1 forward_v I I I I #
coedge $-1 $354 $238 $240 $358 reversed $146 $-1 #
coedge $-1 $238 $353 $435 $436 reversed $146 $-1 #
coedge $-1 $246 $241 $238 $356 forward $236 $-1 #
edge $-1 $359 -35.656816332185549 $437 -32.190740207451697 $355 $438 forward 7 unknown #
coedge $-1 $240 $239 $362 $439 reversed $91 $-1 #
edge $-1 $440 0 $359 7.1493552898532942 $353 $441 forward 7 unknown #
vertex $-1 $242 $442 #
straight-curve $-1 -9.3889241969368484 -15.792641483027342 6.8586002191304587 -1 0 0 I I #
coedge $-1 $435 $243 $246 $366 reversed $351 $-1 #
coedge $-1 $243 $435 $357 $439 forward $351 $-1 #
vertex $-1 $244 $443 #
straight-curve $-1 -7.3165351965690917 -19.258717607761199 23.484075122177721 0 0 1 I I #
straight-curve $-1 -7.3165351965690917 -19.258717607761199 0.60563313476936997 0 -0.48480960649040278 -0.87461971476443456 I I #
edge $-1 $437 -82.110142199473387 $247 -59.187515804864184 $361 $444 forward 7 unknown #
point $-1 -7.3165351965690917 -19.258717607761199 6.8586002191304587 #
point $-1 -7.3165351965690917 -15.792641483027344 6.8586002191304587 #
edge $-1 $445 1 $445 0 $250 $-1 forward 7 unknown #
vertex $-1 $251 $446 #
ellipse-curve $-1 -18.777848393873697 -16.651059830629837 3.2473070704595117 0 -0.87461971476443456 0.48480960649040278 0.5 0 0 1 I I #
point $-1 -18.277848393873697 -17.525679545394272 3.7321166769499143 #
plane-surface $-1 47.815179906613359 0 0 -1 0 0 0 0 1 forward_v I I I I #
coedge $-1 $259 $257 $261 $378 reversed $161 $-1 #
edge $-1 $272 -6.8586002191304587 $380 6.8586002191304587 $271 $447 forward 7 unknown #
vertex $-1 $378 $448 #
straight-curve $-1 -47.815179906613359 -19.258717607761199 0 0 0 -1 I I #
edge $-1 $376 -19.258717607761199 $380 19.258717607761199 $374 $449 forward 7 unknown #
straight-curve $-1 0 -19.258717607761199 -6.8586002191304587 -1 0 0 I I #
vertex $-1 $264 $450 #
straight-curve $-1 0 19.258717607761199 -6.8586002191304587 1 0 0 I I #
point $-1 47.815179906613359 19.258717607761199 -6.8586002191304587 #
point $-1 47.815179906613359 -19.258717607761199 -6.8586002191304587 #
straight-curve $-1 -47.815179906613359 0 6.8586002191304587 0 -1 0 I I #
point $-1 -47.815179906613359 19.258717607761199 6.8586002191304587 #
point $-1 -47.815179906613359 -19.258717607761199 6.8586002191304587 #
straight-curve $-1 47.815179906613359 -19.258717607761199 0 0 0 -1 I I #
straight-curve $-1 47.815179906613359 19.258717607761199 0 0 0 -1 I I #
plane-surface $-1 0 -19.258717607761199 0 0 1 0 0 0 1 forward_v I I I I #
coedge $-1 $451 $284 $296 $401 reversed $180 $-1 #
coedge $-1 $284 $451 $299 $403 reversed $180 $-1 #
edge $-1 $452 -47.815179906613359 $293 -39.231390659921779 $289 $453 forward 7 unknown #
straight-curve $-1 -39.231390659921779 -8.6644305504493886 6.8586002191304587 0 1 0 I I #
coedge $-1 $296 $287 $290 $397 forward $282 $-1 #
straight-curve $-1 -39.231390659921779 -8.6644305504493886 -6.8586002191304587 0 -1 0 I I #
coedge $-1 $290 $289 $451 $454 forward $291 $-1 #
edge $-1 $292 39.231390659921779 $455 47.815179906613359 $290 $456 forward 7 unknown #
point $-1 -39.231390659921779 -19.258717607761199 -6.8586002191304587 #
point $-1 -39.231390659921779 -19.258717607761199 6.8586002191304587 #
straight-curve $-1 -47.815179906613359 -15.399004594036358 0 0 0 -1 I I #
edge $-1 $455 -19.258717607761199 $297 -15.399004594036358 $390 $457 forward 7 unknown #
point $-1 -47.815179906613359 -15.399004594036358 -6.8586002191304587 #
edge $-1 $300 15.399004594036358 $452 19.258717607761199 $391 $458 forward 7 unknown #
point $-1 -47.815179906613359 -15.399004594036358 6.8586002191304587 #
plane-surface $-1 0 0 6.8586002191304587 0 0 1 1 0 0 forward_v I I I I #
coedge $-1 $459 $460 $310 $410 forward $305 $-1 #
coedge $-1 $460 $459 $307 $408 reversed $305 $-1 #
edge $-1 $418 -6.8586002191304587 $420 6.8586002191304587 $407 $461 forward 7 unknown #
coedge $-1 $309 $308 $459 $462 forward $116 $-1 #
edge $-1 $414 -6.8586002191304587 $411 6.8586002191304587 $406 $463 forward 7 unknown #
vertex $-1 $410 $464 #
straight-curve $-1 51.870980608295092 -19.258717607761199 -6.8586002191304587 -1 0 0 I I #
coedge $-1 $318 $312 $460 $465 forward $319 $-1 #
vertex $-1 $465 $466 #
straight-curve $-1 51.870980608295092 -19.258717607761199 6.8586002191304587 1 0 0 I I #
point $-1 47.815179906613359 -19.258717607761199 6.8586002191304587 #
point $-1 47.815179906613359 -19.258717607761199 -6.8586002191304587 #
vertex $-1 $465 $467 #
straight-curve $-1 51.870980608295092 -16.258717607761199 6.8586002191304587 -1 0 0 I I #
vertex $-1 $462 $468 #
straight-curve $-1 51.870980608295092 -16.258717607761199 -6.8586002191304587 1 0 0 I I #
edge $-1 $423 41.754224599313723 $426 46.243990259039016 $326 $469 forward 7 unknown #
vertex $-1 $340 $470 #
straight-curve $-1 28.432468010688009 29.821827492387506 6.8586002191304587 0 1 0 I I #
edge $-1 $426 -18.131123734684479 $337 -2.4715648173225802 $336 $471 forward 7 unknown #
vertex $-1 $425 $472 #
straight-curve $-1 28.432468010688009 -7.9772217110418069 29.604774510220963 0 -0.70710677298230451 0.70710678939079041 I I #
point $-1 28.432468010688009 14.76895205222138 6.8586002191304587 #
point $-1 12.77290909332611 19.258717607761199 2.3688345594051654 #
straight-curve $-1 0 19.258717607761199 6.8586002191304587 -1 0 0 I I #
vertex $-1 $343 $473 #
point $-1 18.747068784000938 15.326722528145771 2.9266051265718964 #
vertex $-1 $347 $474 #
point $-1 25.458308320013181 15.326722528145771 2.9266051265718964 #
coedge $-1 $362 $361 $354 $436 forward $351 $-1 #
edge $-1 $437 16.625474903047262 $440 22.878441987408351 $435 $475 forward 7 unknown #
vertex $-1 $366 $476 #
straight-curve $-1 -30.239161591178302 -51.449457815212895 6.8586002191304587 0 -1 0 I I #
edge $-1 $440 -20.850237394241454 $363 2.0723890003677568 $362 $477 forward 7 unknown #
vertex $-1 $439 $478 #
straight-curve $-1 -30.239161591178302 -19.258717607761199 0.60563313476936997 0 0.48480960649040278 0.87461971476443456 I I #
point $-1 -30.239161591178302 -15.792641483027344 6.8586002191304587 #
point $-1 -7.3165351965690917 -19.258717607761199 0.60563313476936997 #
straight-curve $-1 51.870980608295092 -19.258717607761199 6.8586002191304587 1 0 0 I I #
vertex $-1 $369 $479 #
point $-1 -18.277848393873697 -16.651059830629837 3.2473070704595117 #
straight-curve $-1 -47.815179906613359 19.258717607761199 0 0 0 -1 I I #
point $-1 -47.815179906613359 -19.258717607761199 -6.8586002191304587 #
straight-curve $-1 -47.815179906613359 0 -6.8586002191304587 0 1 0 I I #
point $-1 -47.815179906613359 19.258717607761199 -6.8586002191304587 #
coedge $-1 $391 $390 $396 $454 reversed $180 $-1 #
vertex $-1 $403 $480 #
straight-curve $-1 0 -19.258717607761199 6.8586002191304587 1 0 0 I I #
edge $-1 $452 -6.8586002191304587 $455 6.8586002191304587 $451 $481 forward 7 unknown #
vertex $-1 $401 $482 #
straight-curve $-1 0 -19.258717607761199 -6.8586002191304587 -1 0 0 I I #
straight-curve $-1 -47.815179906613359 0 -6.8586002191304587 0 1 0 I I #
straight-curve $-1 -47.815179906613359 0 6.8586002191304587 0 -1 0 I I #
coedge $-1 $407 $406 $409 $462 reversed $305 $-1 #
coedge $-1 $406 $407 $413 $465 reversed $305 $-1 #
straight-curve $-1 55.926781309976825 -16.258717607761199 0 0 0 -1 I I #
edge $-1 $420 -1.5 $411 1.5 $459 $483 forward 7 unknown #
straight-curve $-1 55.926781309976825 -19.258717607761199 0 0 0 -1 I I #
point $-1 55.926781309976825 -19.258717607761199 -6.8586002191304587 #
edge $-1 $414 -1.5 $418 1.5 $460 $484 forward 7 unknown #
point $-1 55.926781309976825 -19.258717607761199 6.8586002191304587 #
point $-1 55.926781309976825 -16.258717607761199 6.8586002191304587 #
point $-1 55.926781309976825 -16.258717607761199 -6.8586002191304587 #
straight-curve $-1 28.432468010688009 19.258717607761199 48.612824818444182 0 0 -1 I I #
point $-1 28.432468010688009 19.258717607761199 6.8586002191304587 #
straight-curve $-1 10.30134427600353 19.258717607761199 2.3688345594051672 -1 0 0 I I #
point $-1 28.432468010688009 19.258717607761199 2.3688345594051654 #
point $-1 17.247068784000938 14.266062344059586 1.8659449670984394 #
point $-1 23.958308320013181 14.266062344059586 1.8659449670984394 #
straight-curve $-1 -30.239161591178302 -19.258717607761199 23.484075122177721 0 0 -1 I I #
point $-1 -30.239161591178295 -19.258717607761199 6.8586002191304587 #
straight-curve $-1 -9.3889241969368484 -19.258717607761199 0.60563313476936942 1 0 0 I I #
point $-1 -30.239161591178302 -19.258717607761199 0.60563313476936997 #
point $-1 -18.777848393873697 -16.213749973247619 3.0049022672143102 #
point $-1 -47.815179906613359 -19.258717607761199 6.8586002191304587 #
straight-curve $-1 -47.815179906613359 -19.258717607761199 0 0 0 -1 I I #
point $-1 -47.815179906613359 -19.258717607761199 -6.8586002191304587 #
straight-curve $-1 55.926781309976825 -17.758717607761199 -6.8586002191304587 0 -1 0 I I #
straight-curve $-1 55.926781309976825 -17.758717607761199 6.8586002191304587 0 1 0 I I #
End-of-ACIS-data 