500 0 3 0           
7 Unknown 11 ACIS 5.0 NT 24 Fri Mar 26 19:37:13 1999 
-1 9.9999999999999995e-007 1e-010 
body $-1 $3 $-1 $4 #
body $-1 $5 $-1 $6 #
body $-1 $7 $-1 $8 #
lump $-1 $-1 $9 $0 #
transform $-1 1 0 0 0 1 0 0 0 1 61.914731284524066 35.246066640109994 10.509495678391879 1 rotate no_reflect no_shear #
lump $-1 $-1 $10 $1 #
transform $-1 1 0 0 0 1 0 0 0 1 61.914731284524066 35.246066640109994 10.509495678391879 1 rotate no_reflect no_shear #
lump $-1 $-1 $11 $2 #
transform $-1 1 0 0 0 1 0 0 0 1 61.914731284524066 35.246066640109994 10.509495678391879 1 rotate no_reflect no_shear #
shell $-1 $-1 $-1 $12 $-1 $3 #
shell $-1 $-1 $-1 $13 $-1 $5 #
shell $-1 $-1 $-1 $14 $-1 $7 #
face $-1 $15 $16 $9 $-1 $17 forward single #
face $-1 $18 $19 $10 $-1 $20 forward single #
face $-1 $21 $22 $11 $-1 $23 reversed single #
face $-1 $24 $25 $9 $-1 $26 reversed single #
loop $-1 $-1 $27 $12 #
plane-surface $-1 0 0 10.509495678391879 0 0 1 1 0 0 forward_v I I I I #
face $-1 $28 $29 $10 $-1 $30 reversed single #
loop $-1 $-1 $31 $13 #
plane-surface $-1 -56.478778276303771 0 3.2762534463793882 0 0 1 1 0 0 forward_v I I I I #
face $-1 $32 $33 $11 $-1 $34 reversed single #
loop $-1 $-1 $35 $14 #
plane-surface $-1 56.754920751789015 0 6.1378251563539461 0 0 1 1 0 0 forward_v I I I I #
face $-1 $36 $37 $9 $-1 $38 reversed single #
loop $-1 $-1 $39 $15 #
plane-surface $-1 0 0 -10.509495678391879 0 0 1 1 0 0 forward_v I I I I #
coedge $-1 $40 $41 $42 $43 forward $16 $-1 #
face $-1 $44 $45 $10 $-1 $46 reversed single #
loop $-1 $-1 $47 $18 #
plane-surface $-1 -56.478778276303771 0 0.2535907316877557 0 0 1 1 0 0 forward_v I I I I #
coedge $-1 $48 $49 $50 $51 forward $19 $-1 #
face $-1 $52 $53 $11 $-1 $54 reversed single #
loop $-1 $-1 $55 $21 #
plane-surface $-1 51.595110219053964 0 8.3236604173729134 1 0 0 0 0 -1 forward_v I I I I #
coedge $-1 $56 $57 $58 $59 reversed $22 $-1 #
face $-1 $60 $61 $9 $-1 $62 reversed single #
loop $-1 $-1 $63 $24 #
plane-surface $-1 0 -35.246066640109994 0 0 1 0 0 0 1 forward_v I I I I #
coedge $-1 $64 $65 $66 $67 forward $25 $-1 #
coedge $-1 $68 $27 $69 $70 forward $16 $-1 #
coedge $-1 $27 $68 $71 $72 forward $16 $-1 #
coedge $-1 $73 $74 $27 $43 reversed $75 $-1 #
edge $-1 $76 -35.246066640109994 $77 35.246066640109994 $42 $78 forward 7 unknown #
face $-1 $79 $80 $10 $-1 $81 reversed single #
loop $-1 $-1 $82 $28 #
plane-surface $-1 -51.042825268083476 0 1.764922089033572 -1 0 0 0 0 1 forward_v I I I I #
coedge $-1 $83 $84 $85 $86 forward $29 $-1 #
coedge $-1 $87 $31 $88 $89 reversed $19 $-1 #
coedge $-1 $31 $87 $90 $91 reversed $19 $-1 #
coedge $-1 $82 $92 $31 $51 reversed $45 $-1 #
edge $-1 $93 -35.246066640109994 $94 35.246066640109994 $50 $95 forward 7 unknown #
face $-1 $96 $97 $11 $-1 $98 reversed single #
loop $-1 $-1 $99 $32 #
plane-surface $-1 0 -35.246066640109994 0 0 1 0 0 0 1 forward_v I I I I #
coedge $-1 $100 $101 $102 $103 reversed $33 $-1 #
coedge $-1 $104 $35 $105 $106 reversed $22 $-1 #
coedge $-1 $35 $104 $107 $108 reversed $22 $-1 #
coedge $-1 $109 $110 $35 $59 forward $97 $-1 #
edge $-1 $111 -35.246066640109994 $112 35.246066640109994 $58 $113 forward 7 unknown #
face $-1 $114 $115 $9 $-1 $116 reversed single #
loop $-1 $-1 $117 $36 #
plane-surface $-1 -61.914731284524066 0 0 1 0 0 0 0 -1 forward_v I I I I #
coedge $-1 $118 $71 $119 $120 forward $37 $-1 #
coedge $-1 $121 $39 $118 $122 forward $25 $-1 #
coedge $-1 $39 $121 $123 $124 forward $25 $-1 #
coedge $-1 $74 $73 $39 $67 reversed $75 $-1 #
edge $-1 $125 -35.246066640109994 $126 35.246066640109994 $66 $127 forward 7 unknown #
coedge $-1 $41 $40 $128 $129 forward $16 $-1 #
coedge $-1 $130 $131 $40 $70 reversed $115 $-1 #
edge $-1 $77 -61.914731284524066 $132 61.914731284524066 $69 $133 forward 7 unknown #
coedge $-1 $63 $134 $41 $72 reversed $37 $-1 #
edge $-1 $135 -61.914731284524066 $76 61.914731284524066 $71 $136 forward 7 unknown #
coedge $-1 $66 $42 $134 $137 forward $75 $-1 #
coedge $-1 $42 $66 $130 $138 reversed $75 $-1 #
loop $-1 $-1 $73 $114 #
vertex $-1 $43 $139 #
vertex $-1 $43 $140 #
straight-curve $-1 61.914731284524066 0 10.509495678391879 0 1 0 I I #
face $-1 $141 $142 $10 $-1 $143 reversed single #
loop $-1 $-1 $144 $44 #
plane-surface $-1 0 -35.246066640109994 0 0 1 0 0 0 1 forward_v I I I I #
coedge $-1 $85 $50 $145 $146 reversed $45 $-1 #
coedge $-1 $147 $47 $144 $148 reversed $29 $-1 #
coedge $-1 $47 $147 $149 $150 reversed $29 $-1 #
coedge $-1 $92 $82 $47 $86 reversed $45 $-1 #
edge $-1 $151 -35.246066640109994 $152 35.246066640109994 $85 $153 forward 7 unknown #
coedge $-1 $49 $48 $154 $155 reversed $19 $-1 #
coedge $-1 $156 $157 $48 $89 forward $158 $-1 #
edge $-1 $159 -33.675342146372181 $94 -22.80343612993159 $88 $160 forward 7 unknown #
coedge $-1 $161 $145 $49 $91 forward $80 $-1 #
edge $-1 $93 22.80343612993159 $162 33.675342146372181 $90 $163 forward 7 unknown #
coedge $-1 $50 $85 $156 $164 reversed $45 $-1 #
vertex $-1 $91 $165 #
vertex $-1 $89 $166 #
straight-curve $-1 -51.042825268083476 0 3.2762534463793882 0 1 0 I I #
face $-1 $167 $168 $11 $-1 $169 forward single #
loop $-1 $-1 $58 $52 #
plane-surface $-1 61.914731284524066 0 0 -1 0 0 0 0 1 forward_v I I I I #
coedge $-1 $105 $170 $171 $172 forward $53 $-1 #
coedge $-1 $171 $55 $104 $173 reversed $33 $-1 #
coedge $-1 $55 $171 $174 $175 reversed $33 $-1 #
coedge $-1 $176 $107 $55 $103 forward $177 $-1 #
edge $-1 $178 1.9759949476674894 $179 6.347665469705424 $102 $180 forward 7 unknown #
coedge $-1 $57 $56 $100 $173 forward $22 $-1 #
coedge $-1 $181 $99 $56 $106 forward $53 $-1 #
edge $-1 $182 23.217649843159457 $111 33.537270908629559 $105 $183 forward 7 unknown #
coedge $-1 $102 $184 $57 $108 forward $177 $-1 #
edge $-1 $112 -33.537270908629559 $178 -23.217649843159457 $107 $185 forward 7 unknown #
coedge $-1 $186 $58 $184 $187 reversed $97 $-1 #
coedge $-1 $58 $186 $181 $188 forward $97 $-1 #
vertex $-1 $59 $189 #
vertex $-1 $59 $190 #
straight-curve $-1 61.914731284524066 0 6.1378251563539461 0 1 0 I I #
face $-1 $-1 $75 $9 $-1 $191 reversed single #
loop $-1 $-1 $130 $60 #
plane-surface $-1 0 35.246066640109994 0 0 -1 0 0 0 -1 forward_v I I I I #
coedge $-1 $192 $128 $131 $193 forward $61 $-1 #
coedge $-1 $134 $63 $64 $122 reversed $37 $-1 #
coedge $-1 $128 $192 $63 $120 reversed $61 $-1 #
edge $-1 $135 -10.509495678391879 $194 10.509495678391879 $119 $195 forward 7 unknown #
coedge $-1 $65 $64 $192 $196 forward $25 $-1 #
edge $-1 $126 -61.914731284524066 $194 61.914731284524066 $118 $197 forward 7 unknown #
coedge $-1 $131 $130 $65 $124 reversed $115 $-1 #
edge $-1 $198 -61.914731284524066 $125 61.914731284524066 $123 $199 forward 7 unknown #
vertex $-1 $67 $200 #
vertex $-1 $137 $201 #
straight-curve $-1 61.914731284524066 0 -10.509495678391879 0 -1 0 I I #
coedge $-1 $117 $119 $68 $129 reversed $61 $-1 #
edge $-1 $132 -35.246066640109994 $135 35.246066640109994 $128 $202 forward 7 unknown #
coedge $-1 $123 $69 $74 $138 forward $115 $-1 #
coedge $-1 $69 $123 $117 $193 reversed $115 $-1 #
vertex $-1 $70 $203 #
straight-curve $-1 0 35.246066640109994 10.509495678391879 -1 0 0 I I #
coedge $-1 $71 $118 $73 $137 reversed $37 $-1 #
vertex $-1 $129 $204 #
straight-curve $-1 0 -35.246066640109994 10.509495678391879 1 0 0 I I #
edge $-1 $76 -10.509495678391879 $126 10.509495678391879 $73 $205 forward 7 unknown #
edge $-1 $77 -10.509495678391879 $125 10.509495678391879 $74 $206 forward 7 unknown #
point $-1 61.914731284524066 -35.246066640109994 10.509495678391879 #
point $-1 61.914731284524066 35.246066640109994 10.509495678391879 #
face $-1 $-1 $158 $10 $-1 $207 reversed single #
loop $-1 $-1 $208 $79 #
plane-surface $-1 -61.914731284524066 0 0 1 0 0 0 0 -1 forward_v I I I I #
coedge $-1 $145 $161 $83 $148 forward $80 $-1 #
coedge $-1 $90 $144 $82 $146 forward $80 $-1 #
edge $-1 $152 -0.62887031282903028 $93 2.3937924018626022 $145 $209 forward 7 unknown #
coedge $-1 $84 $83 $208 $210 reversed $29 $-1 #
edge $-1 $211 -33.675342146372181 $152 -22.80343612993159 $144 $212 forward 7 unknown #
coedge $-1 $157 $156 $84 $150 forward $158 $-1 #
edge $-1 $151 22.80343612993159 $213 33.675342146372181 $149 $214 forward 7 unknown #
vertex $-1 $150 $215 #
vertex $-1 $148 $216 #
straight-curve $-1 -51.042825268083476 0 0.2535907316877557 0 -1 0 I I #
coedge $-1 $217 $218 $87 $155 forward $142 $-1 #
edge $-1 $162 -35.246066640109994 $159 35.246066640109994 $154 $219 forward 7 unknown #
coedge $-1 $149 $88 $92 $164 forward $158 $-1 #
coedge $-1 $88 $149 $217 $220 reversed $158 $-1 #
loop $-1 $-1 $149 $141 #
vertex $-1 $220 $221 #
straight-curve $-1 -28.239389138151886 35.246066640109994 3.2762534463793882 1 0 0 I I #
coedge $-1 $144 $90 $218 $222 forward $80 $-1 #
vertex $-1 $222 $223 #
straight-curve $-1 -28.239389138151886 -35.246066640109994 3.2762534463793882 -1 0 0 I I #
edge $-1 $94 -2.3937924018626022 $151 0.62887031282903028 $156 $224 forward 7 unknown #
point $-1 -51.042825268083476 -35.246066640109994 3.2762534463793882 #
point $-1 -51.042825268083476 35.246066640109994 3.2762534463793882 #
face $-1 $-1 $177 $11 $-1 $225 reversed single #
loop $-1 $-1 $174 $96 #
plane-surface $-1 0 0 10.509495678391879 0 0 1 1 0 0 forward_v I I I I #
coedge $-1 $99 $181 $226 $227 reversed $53 $-1 #
coedge $-1 $101 $100 $99 $172 reversed $33 $-1 #
edge $-1 $228 -6.347665469705424 $182 -1.9759949476674894 $99 $229 forward 7 unknown #
edge $-1 $182 -35.246066640109994 $178 35.246066640109994 $100 $230 forward 7 unknown #
coedge $-1 $226 $231 $101 $175 forward $168 $-1 #
edge $-1 $179 -35.246066640109994 $228 35.246066640109994 $174 $232 forward 7 unknown #
coedge $-1 $184 $102 $231 $233 reversed $177 $-1 #
loop $-1 $-1 $102 $167 #
vertex $-1 $108 $234 #
vertex $-1 $103 $235 #
straight-curve $-1 51.595110219053964 35.246066640109994 4.1618302086864567 0 0 1 I I #
coedge $-1 $170 $105 $110 $188 reversed $53 $-1 #
vertex $-1 $106 $236 #
straight-curve $-1 28.377460375894508 -35.246066640109994 6.1378251563539461 1 0 0 I I #
coedge $-1 $107 $176 $109 $187 forward $177 $-1 #
straight-curve $-1 28.377460375894508 35.246066640109994 6.1378251563539461 -1 0 0 I I #
coedge $-1 $110 $109 $237 $238 reversed $97 $-1 #
edge $-1 $239 -10.509495678391879 $112 -6.1378251563539461 $109 $240 forward 7 unknown #
edge $-1 $241 -10.509495678391879 $111 -6.1378251563539461 $110 $242 forward 7 unknown #
point $-1 61.914731284524066 -35.246066640109994 6.1378251563539461 #
point $-1 61.914731284524066 35.246066640109994 6.1378251563539461 #
plane-surface $-1 61.914731284524066 0 0 -1 0 0 0 0 1 forward_v I I I I #
coedge $-1 $119 $117 $121 $196 reversed $61 $-1 #
edge $-1 $132 -10.509495678391879 $198 10.509495678391879 $131 $243 forward 7 unknown #
vertex $-1 $196 $244 #
straight-curve $-1 -61.914731284524066 -35.246066640109994 0 0 0 -1 I I #
edge $-1 $194 -35.246066640109994 $198 35.246066640109994 $192 $245 forward 7 unknown #
straight-curve $-1 0 -35.246066640109994 -10.509495678391879 -1 0 0 I I #
vertex $-1 $124 $246 #
straight-curve $-1 0 35.246066640109994 -10.509495678391879 1 0 0 I I #
point $-1 61.914731284524066 35.246066640109994 -10.509495678391879 #
point $-1 61.914731284524066 -35.246066640109994 -10.509495678391879 #
straight-curve $-1 -61.914731284524066 0 10.509495678391879 0 -1 0 I I #
point $-1 -61.914731284524066 35.246066640109994 10.509495678391879 #
point $-1 -61.914731284524066 -35.246066640109994 10.509495678391879 #
straight-curve $-1 61.914731284524066 -35.246066640109994 0 0 0 -1 I I #
straight-curve $-1 61.914731284524066 35.246066640109994 0 0 0 -1 I I #
plane-surface $-1 0 35.246066640109994 0 0 -1 0 0 0 -1 forward_v I I I I #
coedge $-1 $218 $217 $147 $210 forward $142 $-1 #
straight-curve $-1 -51.042825268083476 -35.246066640109994 0.88246104451678598 0 0 1 I I #
edge $-1 $213 -35.246066640109994 $211 35.246066640109994 $208 $247 forward 7 unknown #
vertex $-1 $148 $248 #
straight-curve $-1 -28.239389138151886 -35.246066640109994 0.2535907316877557 1 0 0 I I #
vertex $-1 $150 $249 #
straight-curve $-1 -28.239389138151886 35.246066640109994 0.2535907316877557 -1 0 0 I I #
point $-1 -51.042825268083476 35.246066640109994 0.2535907316877557 #
point $-1 -51.042825268083476 -35.246066640109994 0.2535907316877557 #
coedge $-1 $208 $154 $157 $220 forward $142 $-1 #
coedge $-1 $154 $208 $161 $222 reversed $142 $-1 #
straight-curve $-1 -61.914731284524066 0 3.2762534463793882 0 1 0 I I #
edge $-1 $159 -3.2762534463793882 $213 -0.2535907316877557 $157 $250 forward 7 unknown #
point $-1 -61.914731284524066 35.246066640109994 3.2762534463793882 #
edge $-1 $162 -3.2762534463793882 $211 -0.2535907316877557 $218 $251 forward 7 unknown #
point $-1 -61.914731284524066 -35.246066640109994 3.2762534463793882 #
straight-curve $-1 -51.042825268083476 35.246066640109994 0.88246104451678598 0 0 -1 I I #
plane-surface $-1 0 35.246066640109994 0 0 -1 0 0 0 -1 forward_v I I I I #
coedge $-1 $237 $174 $170 $227 forward $168 $-1 #
edge $-1 $228 51.595110219053964 $241 61.914731284524066 $170 $252 forward 7 unknown #
vertex $-1 $227 $253 #
straight-curve $-1 51.595110219053964 -35.246066640109994 4.1618302086864567 0 0 -1 I I #
straight-curve $-1 51.595110219053964 0 6.1378251563539461 0 1 0 I I #
coedge $-1 $174 $237 $176 $233 forward $168 $-1 #
straight-curve $-1 51.595110219053964 0 10.509495678391879 0 -1 0 I I #
edge $-1 $239 -61.914731284524066 $179 -51.595110219053964 $176 $254 forward 7 unknown #
point $-1 51.595110219053964 35.246066640109994 6.1378251563539461 #
point $-1 51.595110219053964 35.246066640109994 10.509495678391881 #
point $-1 51.595110219053964 -35.246066640109994 6.1378251563539461 #
coedge $-1 $231 $226 $186 $238 forward $168 $-1 #
edge $-1 $241 -35.246066640109994 $239 35.246066640109994 $186 $255 forward 7 unknown #
vertex $-1 $238 $256 #
straight-curve $-1 61.914731284524066 35.246066640109994 0 0 0 -1 I I #
vertex $-1 $238 $257 #
straight-curve $-1 61.914731284524066 -35.246066640109994 0 0 0 -1 I I #
straight-curve $-1 -61.914731284524066 35.246066640109994 0 0 0 -1 I I #
point $-1 -61.914731284524066 -35.246066640109994 -10.509495678391879 #
straight-curve $-1 -61.914731284524066 0 -10.509495678391879 0 1 0 I I #
point $-1 -61.914731284524066 35.246066640109994 -10.509495678391879 #
straight-curve $-1 -61.914731284524066 0 0.2535907316877557 0 -1 0 I I #
point $-1 -61.914731284524066 -35.246066640109994 0.2535907316877557 #
point $-1 -61.914731284524066 35.246066640109994 0.2535907316877557 #
straight-curve $-1 -61.914731284524066 35.246066640109994 0 0 0 -1 I I #
straight-curve $-1 -61.914731284524066 -35.246066640109994 0 0 0 -1 I I #
straight-curve $-1 0 -35.246066640109994 10.509495678391879 1 0 0 I I #
point $-1 51.595110219053964 -35.246066640109994 10.509495678391881 #
straight-curve $-1 0 35.246066640109994 10.509495678391879 -1 0 0 I I #
straight-curve $-1 61.914731284524066 0 10.509495678391879 0 1 0 I I #
point $-1 61.914731284524066 35.246066640109994 10.509495678391879 #
point $-1 61.914731284524066 -35.246066640109994 10.509495678391879 #
End-of-ACIS-data 