500 0 5 0           
7 Unknown 11 ACIS 5.0 NT 24 Fri Mar 26 00:43:10 1999 
-1 9.9999999999999995e-007 1e-010 
body $-1 $5 $-1 $6 #
body $-1 $7 $-1 $8 #
body $-1 $9 $-1 $10 #
body $-1 $11 $-1 $12 #
body $-1 $13 $-1 $14 #
lump $-1 $-1 $15 $0 #
transform $-1 1 0 0 0 1 0 0 0 1 42.3596911526841 19.807586530394172 5.4656292725367583 1 rotate no_reflect no_shear #
lump $-1 $-1 $16 $1 #
transform $-1 1 0 0 0 1 0 0 0 1 42.3596911526841 19.807586530394172 5.4656292725367583 1 rotate no_reflect no_shear #
lump $-1 $-1 $17 $2 #
transform $-1 1 0 0 0 1 0 0 0 1 42.3596911526841 19.807586530394172 5.4656292725367583 1 rotate no_reflect no_shear #
lump $-1 $-1 $18 $3 #
transform $-1 1 0 0 0 1 0 0 0 1 42.3596911526841 19.807586530394172 5.4656292725367583 1 rotate no_reflect no_shear #
lump $-1 $-1 $19 $4 #
transform $-1 1 0 0 0 1 0 0 0 1 42.3596911526841 19.807586530394172 5.4656292725367583 1 rotate no_reflect no_shear #
shell $-1 $-1 $-1 $20 $-1 $5 #
shell $-1 $-1 $-1 $21 $-1 $7 #
shell $-1 $-1 $-1 $22 $-1 $9 #
shell $-1 $-1 $-1 $23 $-1 $11 #
shell $-1 $-1 $-1 $24 $-1 $13 #
face $-1 $25 $26 $15 $-1 $27 forward single #
face $-1 $28 $29 $16 $-1 $30 forward single #
face $-1 $31 $32 $17 $-1 $33 forward single #
face $-1 $34 $35 $18 $-1 $36 reversed single #
face $-1 $37 $38 $19 $-1 $39 reversed single #
face $-1 $40 $41 $15 $-1 $42 reversed single #
loop $-1 $-1 $43 $20 #
plane-surface $-1 0 0 5.4656292725367583 0 0 1 1 0 0 forward_v I I I I #
face $-1 $44 $45 $16 $-1 $46 reversed single #
loop $-1 $-1 $47 $21 #
plane-surface $-1 -45.118818939919692 0 0.18361004677320736 0 0 1 1 0 0 forward_v I I I I #
face $-1 $48 $49 $17 $-1 $50 forward single #
loop $-1 $-1 $51 $22 #
plane-surface $-1 2.8111021988724403 -89.205642425830064 50.444877207579452 -1 0 0 0 -0.81915205242281985 0.57357642473473569 forward_v I I I I #
face $-1 $52 $53 $18 $-1 $54 reversed single #
loop $-1 $55 $56 $23 #
cone-surface $-1 -5.6247506260480122 -17.745544025414787 3.1007795536656841 0 0.81915205242281985 -0.57357642473473569 0.5 0 0 1 I I 0 1 0.5 forward I I I I #
face $-1 $57 $58 $19 $-1 $59 reversed single #
loop $-1 $60 $61 $24 #
cone-surface $-1 -0.5632389310957393 -17.745544025414787 3.1007795536656841 0 0.81915205242281985 -0.57357642473473569 0.5 0 0 1 I I 0 1 0.5 forward I I I I #
face $-1 $62 $63 $15 $-1 $64 reversed single #
loop $-1 $-1 $65 $25 #
plane-surface $-1 0 0 -5.4656292725367583 0 0 1 1 0 0 forward_v I I I I #
coedge $-1 $66 $67 $68 $69 forward $26 $-1 #
face $-1 $70 $71 $16 $-1 $72 reversed single #
loop $-1 $-1 $73 $28 #
plane-surface $-1 -45.118818939919692 0 -2.8163899532267926 0 0 1 1 0 0 forward_v I I I I #
coedge $-1 $74 $75 $76 $77 reversed $29 $-1 #
face $-1 $78 $79 $17 $-1 $80 forward single #
loop $-1 $-1 $81 $31 #
plane-surface $-1 -3.0939947785718758 -19.807586530394175 1.851836799131128 0 -0.81915205242281985 0.57357642473473569 1 0 0 forward_v I I I I #
coedge $-1 $82 $83 $84 $85 reversed $32 $-1 #
face $-1 $86 $87 $18 $-1 $88 forward single #
loop $-1 $89 $90 $34 #
cone-surface $-1 -5.6247506260480122 -16.743915834845438 2.3994319653137417 0 0.81915205242281985 -0.57357642473473569 0.25 0 0 1 I I -0.70710678118654746 0.70710678118654746 0.25 forward I I I I #
loop $-1 $-1 $91 $23 #
coedge $-1 $56 $56 $92 $93 reversed $35 $-1 #
face $-1 $94 $95 $19 $-1 $96 reversed single #
loop $-1 $97 $98 $37 #
cone-surface $-1 -0.5632389310957393 -16.743915834845438 2.3994319653137417 0 0.81915205242281985 -0.57357642473473569 0.25 0 0 1 I I -0.70710678118654746 0.70710678118654746 0.25 forward I I I I #
loop $-1 $-1 $99 $24 #
coedge $-1 $61 $61 $100 $101 reversed $38 $-1 #
face $-1 $102 $103 $15 $-1 $104 reversed single #
loop $-1 $-1 $105 $40 #
plane-surface $-1 0 -19.807586530394172 0 0 1 0 0 0 1 forward_v I I I I #
coedge $-1 $106 $107 $108 $109 forward $41 $-1 #
coedge $-1 $110 $43 $111 $112 forward $26 $-1 #
coedge $-1 $43 $110 $113 $114 forward $26 $-1 #
coedge $-1 $115 $116 $43 $69 reversed $117 $-1 #
edge $-1 $118 -19.807586530394172 $119 19.807586530394172 $68 $120 forward 7 unknown #
face $-1 $121 $122 $16 $-1 $123 reversed single #
loop $-1 $-1 $124 $44 #
plane-surface $-1 -47.877946727155283 0 -1.3163899532267926 1 0 0 0 0 -1 forward_v I I I I #
coedge $-1 $125 $126 $127 $128 reversed $45 $-1 #
coedge $-1 $129 $47 $130 $131 forward $29 $-1 #
coedge $-1 $47 $129 $132 $133 forward $29 $-1 #
coedge $-1 $134 $135 $47 $77 forward $136 $-1 #
edge $-1 $137 -19.807586530394172 $138 19.807586530394172 $76 $139 forward 7 unknown #
face $-1 $140 $141 $17 $-1 $142 forward single #
loop $-1 $-1 $143 $48 #
plane-surface $-1 -8.9990917560161918 -89.205642425830064 50.444877207579452 1 0 0 0 0.81915205242281985 -0.57357642473473569 forward_v I I I I #
coedge $-1 $144 $145 $146 $147 reversed $49 $-1 #
coedge $-1 $83 $51 $145 $148 forward $32 $-1 #
coedge $-1 $51 $82 $149 $150 reversed $32 $-1 #
coedge $-1 $151 $146 $51 $85 forward $141 $-1 #
edge $-1 $152 -27.325639337552342 $153 -24.79523468252086 $84 $154 forward 7 unknown #
face $-1 $155 $156 $18 $-1 $157 forward single #
loop $-1 $-1 $158 $52 #
plane-surface $-1 2.8111021988724403 -89.205642425830064 50.444877207579452 -1 0 0 0 -0.81915205242281985 0.57357642473473569 forward_v I I I I #
loop $-1 $-1 $159 $34 #
coedge $-1 $90 $90 $91 $160 forward $53 $-1 #
coedge $-1 $91 $91 $90 $160 reversed $55 $-1 #
coedge $-1 $92 $92 $56 $93 forward $156 $-1 #
edge $-1 $161 -1.165292918325106e-015 $161 6.2831853071795996 $92 $162 forward 7 unknown #
face $-1 $163 $164 $19 $-1 $165 reversed single #
loop $-1 $166 $167 $57 #
cone-surface $-1 -5.6247506260480122 -17.745544025414787 3.1007795536656841 0 0.81915205242281985 -0.57357642473473569 0.5 0 0 1 I I 0 1 0.5 forward I I I I #
loop $-1 $-1 $168 $37 #
coedge $-1 $98 $98 $99 $169 forward $58 $-1 #
coedge $-1 $99 $99 $98 $169 reversed $60 $-1 #
coedge $-1 $100 $100 $61 $101 forward $170 $-1 #
edge $-1 $171 -1.165292918325106e-015 $171 6.2831853071795996 $100 $172 forward 7 unknown #
face $-1 $173 $174 $15 $-1 $175 reversed single #
loop $-1 $-1 $176 $62 #
plane-surface $-1 -42.3596911526841 0 0 1 0 0 0 0 -1 forward_v I I I I #
coedge $-1 $177 $113 $178 $179 forward $63 $-1 #
coedge $-1 $180 $65 $177 $181 forward $41 $-1 #
coedge $-1 $65 $180 $182 $183 forward $41 $-1 #
coedge $-1 $116 $115 $65 $109 reversed $117 $-1 #
edge $-1 $184 -19.807586530394172 $185 19.807586530394172 $108 $186 forward 7 unknown #
coedge $-1 $67 $66 $187 $188 forward $26 $-1 #
coedge $-1 $189 $190 $66 $112 reversed $174 $-1 #
edge $-1 $119 -42.3596911526841 $191 42.3596911526841 $111 $192 forward 7 unknown #
coedge $-1 $105 $193 $67 $114 reversed $63 $-1 #
edge $-1 $194 -42.3596911526841 $118 42.3596911526841 $113 $195 forward 7 unknown #
coedge $-1 $108 $68 $193 $196 forward $117 $-1 #
coedge $-1 $68 $108 $189 $197 reversed $117 $-1 #
loop $-1 $-1 $115 $173 #
vertex $-1 $69 $198 #
vertex $-1 $69 $199 #
straight-curve $-1 42.3596911526841 0 5.4656292725367583 0 1 0 I I #
face $-1 $200 $136 $16 $-1 $123 reversed single #
loop $-1 $-1 $127 $70 #
plane-surface $-1 -42.3596911526841 0 0 1 0 0 0 0 -1 forward_v I I I I #
coedge $-1 $201 $202 $203 $204 forward $71 $-1 #
coedge $-1 $205 $73 $206 $207 forward $45 $-1 #
coedge $-1 $73 $205 $208 $209 forward $45 $-1 #
coedge $-1 $210 $211 $73 $128 forward $122 $-1 #
edge $-1 $212 -19.807586530394172 $213 19.807586530394172 $127 $214 forward 7 unknown #
coedge $-1 $75 $74 $202 $215 forward $29 $-1 #
coedge $-1 $216 $203 $74 $131 reversed $217 $-1 #
edge $-1 $137 -2.7591277872355917 $218 2.7591277872355917 $130 $219 forward 7 unknown #
coedge $-1 $220 $221 $75 $133 reversed $222 $-1 #
edge $-1 $223 -2.7591277872355917 $138 2.7591277872355917 $132 $224 forward 7 unknown #
coedge $-1 $225 $76 $221 $226 reversed $136 $-1 #
coedge $-1 $76 $225 $216 $227 forward $136 $-1 #
loop $-1 $-1 $76 $121 #
vertex $-1 $227 $228 #
vertex $-1 $133 $229 #
straight-curve $-1 -42.3596911526841 0 0.18361004677320736 0 -1 0 I I #
face $-1 $230 $231 $17 $-1 $232 forward single #
loop $-1 $-1 $233 $78 #
plane-surface $-1 0 0 5.4656292725367583 0 0 1 1 0 0 forward_v I I I I #
coedge $-1 $234 $235 $233 $236 reversed $79 $-1 #
coedge $-1 $237 $81 $235 $238 reversed $49 $-1 #
coedge $-1 $81 $237 $82 $148 reversed $49 $-1 #
coedge $-1 $84 $233 $81 $147 forward $141 $-1 #
edge $-1 $239 -7.4520943667302539 $152 4.3580995881583782 $146 $240 forward 7 unknown #
edge $-1 $152 -4.4116259767854515 $241 -6.2211835686289132e-015 $82 $242 forward 7 unknown #
coedge $-1 $243 $244 $83 $150 forward $245 $-1 #
edge $-1 $153 19.756809331252967 $241 23.370601804658595 $149 $246 forward 7 unknown #
coedge $-1 $247 $84 $244 $248 forward $141 $-1 #
vertex $-1 $147 $249 #
vertex $-1 $248 $250 #
straight-curve $-1 2.8111021988724403 -44.602821212915032 5.4656292725367592 0 -1 0 I I #
face $-1 $251 $252 $18 $-1 $253 forward single #
loop $-1 $254 $92 $86 #
plane-surface $-1 -3.0939947785718758 -19.807586530394175 1.851836799131128 0 -0.81915205242281985 0.57357642473473569 1 0 0 forward_v I I I I #
coedge $-1 $255 $256 $257 $258 reversed $87 $-1 #
coedge $-1 $159 $159 $-1 $259 forward $89 $-1 #
edge $-1 $260 0 $260 6.2831853071796004 $90 $261 forward 7 unknown #
vertex $-1 $93 $262 #
ellipse-curve $-1 -5.6247506260480122 -18.542384202878431 3.6587330358339445 0 0.81915205242281985 -0.57357642473473569 0.5 0 0 1 I I #
face $-1 $263 $264 $19 $-1 $265 forward single #
loop $-1 $266 $267 $94 #
cone-surface $-1 -5.6247506260480122 -16.743915834845438 2.3994319653137417 0 0.81915205242281985 -0.57357642473473569 0.25 0 0 1 I I -0.70710678118654746 0.70710678118654746 0.25 forward I I I I #
loop $-1 $-1 $268 $57 #
coedge $-1 $167 $167 $269 $270 reversed $95 $-1 #
coedge $-1 $168 $168 $-1 $271 forward $97 $-1 #
edge $-1 $272 0 $272 6.2831853071796004 $98 $273 forward 7 unknown #
loop $-1 $274 $100 $263 #
vertex $-1 $101 $275 #
ellipse-curve $-1 -0.5632389310957393 -18.542384202878431 3.6587330358339445 0 0.81915205242281985 -0.57357642473473569 0.5 0 0 1 I I #
face $-1 $-1 $117 $15 $-1 $276 reversed single #
loop $-1 $-1 $189 $102 #
plane-surface $-1 0 19.807586530394172 0 0 -1 0 0 0 -1 forward_v I I I I #
coedge $-1 $277 $187 $190 $278 forward $103 $-1 #
coedge $-1 $193 $105 $106 $181 reversed $63 $-1 #
coedge $-1 $187 $277 $105 $179 reversed $103 $-1 #
edge $-1 $194 -5.4656292725367583 $279 5.4656292725367583 $178 $280 forward 7 unknown #
coedge $-1 $107 $106 $277 $281 forward $41 $-1 #
edge $-1 $185 -42.3596911526841 $279 42.3596911526841 $177 $282 forward 7 unknown #
coedge $-1 $190 $189 $107 $183 reversed $174 $-1 #
edge $-1 $283 -42.3596911526841 $184 42.3596911526841 $182 $284 forward 7 unknown #
vertex $-1 $109 $285 #
vertex $-1 $196 $286 #
straight-curve $-1 42.3596911526841 0 -5.4656292725367583 0 -1 0 I I #
coedge $-1 $176 $178 $110 $188 reversed $103 $-1 #
edge $-1 $191 -19.807586530394172 $194 19.807586530394172 $187 $287 forward 7 unknown #
coedge $-1 $182 $111 $116 $197 forward $174 $-1 #
coedge $-1 $111 $182 $176 $278 reversed $174 $-1 #
vertex $-1 $112 $288 #
straight-curve $-1 0 19.807586530394172 5.4656292725367583 -1 0 0 I I #
coedge $-1 $113 $177 $115 $196 reversed $63 $-1 #
vertex $-1 $188 $289 #
straight-curve $-1 0 -19.807586530394172 5.4656292725367583 1 0 0 I I #
edge $-1 $118 -5.4656292725367583 $185 5.4656292725367583 $115 $290 forward 7 unknown #
edge $-1 $119 -5.4656292725367583 $184 5.4656292725367583 $116 $291 forward 7 unknown #
point $-1 42.3596911526841 -19.807586530394172 5.4656292725367583 #
point $-1 42.3596911526841 19.807586530394172 5.4656292725367583 #
face $-1 $292 $293 $16 $-1 $294 forward single #
coedge $-1 $295 $124 $205 $296 reversed $71 $-1 #
coedge $-1 $124 $295 $129 $215 reversed $71 $-1 #
coedge $-1 $130 $208 $124 $204 reversed $217 $-1 #
edge $-1 $218 -1.5 $297 1.5 $203 $298 forward 7 unknown #
coedge $-1 $126 $125 $201 $296 forward $45 $-1 #
coedge $-1 $299 $220 $125 $207 reversed $222 $-1 #
edge $-1 $212 -2.7591277872355917 $300 2.7591277872355917 $206 $301 forward 7 unknown #
coedge $-1 $203 $302 $126 $209 reversed $217 $-1 #
edge $-1 $297 -2.7591277872355917 $213 2.7591277872355917 $208 $303 forward 7 unknown #
coedge $-1 $304 $127 $302 $305 forward $122 $-1 #
coedge $-1 $127 $304 $299 $306 reversed $122 $-1 #
vertex $-1 $306 $307 #
vertex $-1 $305 $308 #
straight-curve $-1 -42.3596911526841 0 -2.8163899532267926 0 1 0 I I #
edge $-1 $218 -19.807586530394172 $223 19.807586530394172 $202 $309 forward 7 unknown #
coedge $-1 $310 $130 $135 $227 reversed $217 $-1 #
loop $-1 $-1 $311 $312 #
vertex $-1 $131 $313 #
straight-curve $-1 -45.118818939919692 19.807586530394172 0.18361004677320736 -1 0 0 I I #
coedge $-1 $206 $132 $295 $314 forward $222 $-1 #
coedge $-1 $132 $315 $134 $226 forward $222 $-1 #
loop $-1 $-1 $221 $316 #
vertex $-1 $215 $317 #
straight-curve $-1 -45.118818939919692 -19.807586530394172 0.18361004677320736 1 0 0 I I #
coedge $-1 $135 $134 $318 $319 reversed $136 $-1 #
edge $-1 $320 -5.4656292725367583 $138 -0.18361004677320736 $134 $321 forward 7 unknown #
edge $-1 $322 -5.4656292725367583 $137 -0.18361004677320736 $216 $323 forward 7 unknown #
point $-1 -42.3596911526841 19.807586530394172 0.18361004677320736 #
point $-1 -42.3596911526841 -19.807586530394172 0.18361004677320736 #
face $-1 $324 $325 $17 $-1 $326 reversed single #
loop $-1 $-1 $327 $140 #
plane-surface $-1 -45.118818939919692 0 0.18361004677320736 0 0 1 1 0 0 forward_v I I I I #
coedge $-1 $146 $328 $143 $236 forward $141 $-1 #
coedge $-1 $235 $143 $329 $330 reversed $79 $-1 #
coedge $-1 $143 $234 $144 $238 forward $79 $-1 #
edge $-1 $331 24.79523468252086 $239 27.325639337552342 $233 $332 forward 7 unknown #
coedge $-1 $145 $144 $243 $333 reversed $49 $-1 #
edge $-1 $334 6.2211835686289132e-015 $239 4.4116259767854515 $235 $335 forward 7 unknown #
vertex $-1 $147 $336 #
straight-curve $-1 -1.5469973892859379 -17.277181875362693 5.4656292725367583 1 0 0 I I #
vertex $-1 $333 $337 #
straight-curve $-1 2.8111021988724403 -19.807586530394175 1.851836799131128 0 -0.57357642473473569 -0.81915205242281985 I I #
coedge $-1 $329 $149 $237 $333 forward $245 $-1 #
coedge $-1 $149 $338 $151 $248 reversed $245 $-1 #
loop $-1 $-1 $329 $339 #
straight-curve $-1 2.8111021988724403 -19.807586530394168 25.222438603789726 0 0 -1 I I #
coedge $-1 $340 $151 $341 $342 forward $141 $-1 #
edge $-1 $153 2.8111021988724403 $343 42.3596911526841 $244 $344 forward 7 unknown #
point $-1 2.8111021988724403 -17.27718187536269 5.4656292725367575 #
point $-1 2.8111021988724403 -19.807586530394172 5.4656292725367583 #
face $-1 $345 $346 $18 $-1 $347 forward single #
loop $-1 $-1 $348 $155 #
plane-surface $-1 -8.9990917560161918 -89.205642425830064 50.444877207579452 1 0 0 0 0.81915205242281985 -0.57357642473473569 forward_v I I I I #
loop $-1 $-1 $349 $86 #
coedge $-1 $256 $158 $350 $351 forward $87 $-1 #
coedge $-1 $158 $255 $352 $353 reversed $87 $-1 #
coedge $-1 $354 $355 $158 $258 forward $346 $-1 #
edge $-1 $356 -27.325639337552342 $357 -24.79523468252086 $257 $358 forward 7 unknown #
edge $-1 $359 1 $359 0 $159 $-1 forward 7 unknown #
vertex $-1 $160 $360 #
ellipse-curve $-1 -5.6247506260480122 -16.948703847951144 2.5428260714974256 0 -0.81915205242281985 0.57357642473473569 0.5 0 0 1 I I #
point $-1 -5.1247506260480122 -18.542384202878427 3.6587330358339427 #
face $-1 $361 $170 $19 $-1 $362 forward single #
loop $-1 $-1 $363 $163 #
plane-surface $-1 2.8111021988724403 -89.205642425830064 50.444877207579452 -1 0 0 0 -0.81915205242281985 0.57357642473473569 forward_v I I I I #
loop $-1 $-1 $364 $94 #
coedge $-1 $267 $267 $268 $365 forward $164 $-1 #
coedge $-1 $268 $268 $267 $365 reversed $166 $-1 #
coedge $-1 $269 $269 $167 $270 forward $274 $-1 #
edge $-1 $366 -1.165292918325106e-015 $366 6.2831853071795996 $269 $367 forward 7 unknown #
edge $-1 $368 1 $368 0 $168 $-1 forward 7 unknown #
vertex $-1 $169 $369 #
ellipse-curve $-1 -0.5632389310957393 -16.948703847951144 2.5428260714974256 0 -0.81915205242281985 0.57357642473473569 0.5 0 0 1 I I #
loop $-1 $370 $269 $263 #
point $-1 -0.063238931095739304 -18.542384202878427 3.6587330358339427 #
plane-surface $-1 42.3596911526841 0 0 -1 0 0 0 0 1 forward_v I I I I #
coedge $-1 $178 $176 $180 $281 reversed $103 $-1 #
edge $-1 $191 -5.4656292725367583 $283 5.4656292725367583 $190 $371 forward 7 unknown #
vertex $-1 $281 $372 #
straight-curve $-1 -42.3596911526841 -19.807586530394172 0 0 0 -1 I I #
edge $-1 $279 -19.807586530394172 $283 19.807586530394172 $277 $373 forward 7 unknown #
straight-curve $-1 0 -19.807586530394172 -5.4656292725367583 -1 0 0 I I #
vertex $-1 $183 $374 #
straight-curve $-1 0 19.807586530394172 -5.4656292725367583 1 0 0 I I #
point $-1 42.3596911526841 19.807586530394172 -5.4656292725367583 #
point $-1 42.3596911526841 -19.807586530394172 -5.4656292725367583 #
straight-curve $-1 -42.3596911526841 0 5.4656292725367583 0 -1 0 I I #
point $-1 -42.3596911526841 19.807586530394172 5.4656292725367583 #
point $-1 -42.3596911526841 -19.807586530394172 5.4656292725367583 #
straight-curve $-1 42.3596911526841 -19.807586530394172 0 0 0 -1 I I #
straight-curve $-1 42.3596911526841 19.807586530394172 0 0 0 -1 I I #
face $-1 $316 $375 $16 $-1 $376 reversed single #
loop $-1 $-1 $377 $200 #
plane-surface $-1 0 0 5.4656292725367583 0 0 1 1 0 0 forward_v I I I I #
coedge $-1 $202 $201 $220 $314 reversed $71 $-1 #
edge $-1 $300 -19.807586530394172 $297 19.807586530394172 $201 $378 forward 7 unknown #
vertex $-1 $209 $379 #
straight-curve $-1 -47.877946727155283 19.807586530394172 -1.3163899532267926 0 0 -1 I I #
coedge $-1 $380 $206 $211 $306 forward $222 $-1 #
vertex $-1 $296 $381 #
straight-curve $-1 -45.118818939919692 -19.807586530394172 -2.8163899532267926 -1 0 0 I I #
coedge $-1 $208 $382 $210 $305 reversed $217 $-1 #
straight-curve $-1 -45.118818939919692 19.807586530394172 -2.8163899532267926 1 0 0 I I #
coedge $-1 $211 $210 $383 $384 reversed $122 $-1 #
edge $-1 $213 2.8163899532267926 $385 5.4656292725367583 $302 $323 forward 7 unknown #
edge $-1 $212 2.8163899532267926 $386 5.4656292725367583 $211 $321 forward 7 unknown #
point $-1 -42.3596911526841 -19.807586530394172 -2.8163899532267926 #
point $-1 -42.3596911526841 19.807586530394172 -2.8163899532267926 #
straight-curve $-1 -47.877946727155283 0 0.18361004677320736 0 -1 0 I I #
coedge $-1 $311 $216 $387 $388 reversed $217 $-1 #
coedge $-1 $382 $310 $389 $390 forward $217 $-1 #
face $-1 $391 $217 $16 $-1 $392 reversed single #
point $-1 -47.877946727155283 19.807586530394172 0.18361004677320736 #
edge $-1 $223 -1.5 $300 1.5 $295 $393 forward 7 unknown #
coedge $-1 $221 $394 $395 $396 reversed $222 $-1 #
face $-1 $312 $222 $16 $-1 $397 reversed single #
point $-1 -47.877946727155283 -19.807586530394172 0.18361004677320736 #
coedge $-1 $395 $387 $225 $319 forward $293 $-1 #
edge $-1 $322 -19.807586530394172 $320 19.807586530394172 $225 $398 forward 7 unknown #
vertex $-1 $319 $399 #
straight-curve $-1 -42.3596911526841 -19.807586530394172 0 0 0 -1 I I #
vertex $-1 $388 $400 #
straight-curve $-1 -42.3596911526841 19.807586530394172 0 0 0 -1 I I #
face $-1 $401 $402 $17 $-1 $403 reversed single #
loop $-1 $-1 $404 $230 #
plane-surface $-1 -45.118818939919692 0 -2.8163899532267926 0 0 1 1 0 0 forward_v I I I I #
coedge $-1 $405 $406 $407 $408 reversed $231 $-1 #
coedge $-1 $233 $409 $410 $411 forward $141 $-1 #
coedge $-1 $410 $243 $234 $330 forward $245 $-1 #
edge $-1 $334 -23.370601804658595 $331 -19.756809331252967 $329 $412 forward 7 unknown #
vertex $-1 $330 $413 #
straight-curve $-1 -8.9990917560161918 -44.602821212915032 5.4656292725367592 0 1 0 I I #
edge $-1 $241 -4.3580995881583782 $334 7.4520943667302539 $243 $414 forward 7 unknown #
vertex $-1 $333 $415 #
straight-curve $-1 -8.9990917560161918 -19.807586530394175 1.851836799131128 0 0.57357642473473569 0.81915205242281985 I I #
point $-1 -8.9990917560161918 -17.27718187536269 5.4656292725367575 #
point $-1 2.8111021988724403 -19.807586530394172 1.8518367991311331 #
coedge $-1 $244 $416 $417 $418 reversed $245 $-1 #
face $-1 $419 $245 $17 $-1 $420 reversed single #
coedge $-1 $409 $247 $421 $422 forward $141 $-1 #
coedge $-1 $417 $423 $247 $342 reversed $424 $-1 #
edge $-1 $343 -19.807586530394172 $425 19.807586530394172 $341 $426 forward 7 unknown #
vertex $-1 $342 $427 #
straight-curve $-1 0 -19.807586530394172 5.4656292725367583 1 0 0 I I #
face $-1 $428 $429 $18 $-1 $430 forward single #
loop $-1 $-1 $431 $251 #
plane-surface $-1 0 0 5.4656292725367583 0 0 1 1 0 0 forward_v I I I I #
coedge $-1 $432 $433 $431 $434 reversed $252 $-1 #
coedge $-1 $435 $350 $355 $436 reversed $254 $-1 #
coedge $-1 $349 $437 $255 $351 reversed $254 $-1 #
edge $-1 $356 -4.4116259767854515 $438 -6.2211835686289132e-015 $255 $439 forward 7 unknown #
coedge $-1 $440 $441 $256 $353 forward $442 $-1 #
edge $-1 $357 19.756809331252967 $438 23.370601804658595 $352 $443 forward 7 unknown #
coedge $-1 $444 $257 $441 $445 forward $346 $-1 #
coedge $-1 $257 $431 $349 $436 forward $346 $-1 #
vertex $-1 $436 $446 #
vertex $-1 $445 $447 #
straight-curve $-1 2.8111021988724403 -44.602821212915032 5.4656292725367592 0 -1 0 I I #
vertex $-1 $259 $448 #
point $-1 -5.1247506260480122 -16.948703847951144 2.5428260714974256 #
face $-1 $449 $450 $19 $-1 $451 forward single #
plane-surface $-1 -3.0939947785718758 -19.807586530394175 1.851836799131128 0 -0.81915205242281985 0.57357642473473569 1 0 0 forward_v I I I I #
coedge $-1 $452 $453 $454 $455 reversed $264 $-1 #
coedge $-1 $364 $364 $-1 $456 forward $266 $-1 #
edge $-1 $457 0 $457 6.2831853071796004 $267 $458 forward 7 unknown #
vertex $-1 $270 $459 #
ellipse-curve $-1 -5.6247506260480122 -18.542384202878431 3.6587330358339445 0 0.81915205242281985 -0.57357642473473569 0.5 0 0 1 I I #
vertex $-1 $271 $460 #
point $-1 -0.063238931095739304 -16.948703847951144 2.5428260714974256 #
loop $-1 $-1 $461 $263 #
straight-curve $-1 -42.3596911526841 19.807586530394172 0 0 0 -1 I I #
point $-1 -42.3596911526841 -19.807586530394172 -5.4656292725367583 #
straight-curve $-1 -42.3596911526841 0 -5.4656292725367583 0 1 0 I I #
point $-1 -42.3596911526841 19.807586530394172 -5.4656292725367583 #
loop $-1 $-1 $462 $292 #
plane-surface $-1 0 0 -5.4656292725367583 0 0 1 1 0 0 forward_v I I I I #
coedge $-1 $387 $395 $463 $464 forward $293 $-1 #
straight-curve $-1 -47.877946727155283 0 -2.8163899532267926 0 1 0 I I #
point $-1 -47.877946727155283 19.807586530394172 -2.8163899532267926 #
coedge $-1 $394 $299 $465 $466 reversed $222 $-1 #
point $-1 -47.877946727155283 -19.807586530394172 -2.8163899532267926 #
coedge $-1 $302 $311 $467 $468 reversed $217 $-1 #
coedge $-1 $467 $465 $304 $384 forward $375 $-1 #
edge $-1 $386 -19.807586530394172 $385 19.807586530394172 $304 $469 forward 7 unknown #
vertex $-1 $468 $470 #
vertex $-1 $384 $471 #
coedge $-1 $318 $377 $310 $388 forward $293 $-1 #
edge $-1 $472 -42.3596911526841 $322 42.3596911526841 $310 $473 forward 7 unknown #
coedge $-1 $463 $474 $311 $390 reversed $475 $-1 #
edge $-1 $472 -5.4656292725367583 $476 5.4656292725367583 $389 $477 forward 7 unknown #
face $-1 $-1 $475 $16 $-1 $478 reversed single #
plane-surface $-1 0 19.807586530394172 0 0 -1 0 0 0 -1 forward_v I I I I #
straight-curve $-1 -47.877946727155283 -19.807586530394172 -1.3163899532267926 0 0 -1 I I #
coedge $-1 $315 $380 $479 $480 reversed $222 $-1 #
coedge $-1 $377 $318 $315 $396 forward $293 $-1 #
edge $-1 $320 -42.3596911526841 $481 42.3596911526841 $315 $482 forward 7 unknown #
plane-surface $-1 0 -19.807586530394172 0 0 1 0 0 0 1 forward_v I I I I #
straight-curve $-1 -42.3596911526841 0 5.4656292725367583 0 -1 0 I I #
point $-1 -42.3596911526841 -19.807586530394172 5.4656292725367583 #
point $-1 -42.3596911526841 19.807586530394172 5.4656292725367583 #
face $-1 $483 $484 $17 $-1 $485 reversed single #
loop $-1 $-1 $486 $324 #
plane-surface $-1 -47.877946727155283 0 -1.3163899532267926 1 0 0 0 0 -1 forward_v I I I I #
coedge $-1 $487 $488 $489 $490 reversed $325 $-1 #
coedge $-1 $491 $327 $492 $493 forward $231 $-1 #
coedge $-1 $327 $491 $494 $495 forward $231 $-1 #
coedge $-1 $496 $497 $327 $408 forward $498 $-1 #
edge $-1 $499 -19.807586530394172 $500 19.807586530394172 $407 $501 forward 7 unknown #
coedge $-1 $328 $340 $502 $503 forward $141 $-1 #
coedge $-1 $504 $329 $328 $411 reversed $245 $-1 #
edge $-1 $505 -42.3596911526841 $331 -8.9990917560161918 $410 $344 forward 7 unknown #
straight-curve $-1 -8.9990917560161918 -19.807586530394168 25.222438603789726 0 0 1 I I #
point $-1 -8.9990917560161918 -19.807586530394172 5.4656292725367583 #
straight-curve $-1 -1.5469973892859379 -19.807586530394172 1.8518367991311346 -1 0 0 I I #
point $-1 -8.9990917560161918 -19.807586530394172 1.8518367991311331 #
coedge $-1 $338 $506 $507 $508 reversed $245 $-1 #
coedge $-1 $509 $341 $338 $418 forward $424 $-1 #
edge $-1 $343 -5.4656292725367583 $510 5.4656292725367583 $417 $511 forward 7 unknown #
face $-1 $512 $513 $17 $-1 $514 reversed single #
plane-surface $-1 0 -19.807586530394172 0 0 1 0 0 0 1 forward_v I I I I #
coedge $-1 $515 $516 $340 $422 reversed $513 $-1 #
edge $-1 $425 -42.3596911526841 $517 42.3596911526841 $421 $518 forward 7 unknown #
coedge $-1 $341 $509 $515 $519 reversed $424 $-1 #
loop $-1 $-1 $417 $512 #
vertex $-1 $342 $520 #
straight-curve $-1 42.3596911526841 0 5.4656292725367583 0 1 0 I I #
point $-1 42.3596911526841 -19.807586530394172 5.4656292725367583 #
face $-1 $521 $522 $18 $-1 $523 reversed single #
loop $-1 $-1 $524 $345 #
plane-surface $-1 -45.118818939919692 0 0.18361004677320736 0 0 1 1 0 0 forward_v I I I I #
coedge $-1 $355 $525 $348 $434 forward $346 $-1 #
coedge $-1 $433 $348 $526 $527 reversed $252 $-1 #
coedge $-1 $348 $432 $435 $528 forward $252 $-1 #
edge $-1 $529 24.79523468252086 $530 27.325639337552342 $431 $531 forward 7 unknown #
coedge $-1 $437 $349 $433 $528 reversed $254 $-1 #
edge $-1 $530 -7.4520943667302539 $356 4.3580995881583782 $355 $532 forward 7 unknown #
coedge $-1 $350 $435 $440 $533 reversed $254 $-1 #
vertex $-1 $533 $534 #
straight-curve $-1 2.8111021988724403 -19.807586530394175 1.851836799131128 0 -0.57357642473473569 -0.81915205242281985 I I #
coedge $-1 $526 $352 $437 $533 forward $442 $-1 #
coedge $-1 $352 $535 $354 $445 reversed $442 $-1 #
loop $-1 $-1 $526 $536 #
straight-curve $-1 2.8111021988724403 -19.807586530394168 25.222438603789726 0 0 -1 I I #
coedge $-1 $537 $354 $538 $539 forward $346 $-1 #
edge $-1 $357 2.8111021988724403 $540 42.3596911526841 $441 $541 forward 7 unknown #
point $-1 2.8111021988724403 -17.27718187536269 5.4656292725367575 #
point $-1 2.8111021988724403 -19.807586530394172 5.4656292725367583 #
point $-1 -5.6247506260480122 -16.539127821739733 2.2560378591300578 #
face $-1 $542 $543 $19 $-1 $544 forward single #
loop $-1 $-1 $545 $361 #
plane-surface $-1 -8.9990917560161918 -89.205642425830064 50.444877207579452 1 0 0 0 0.81915205242281985 -0.57357642473473569 forward_v I I I I #
coedge $-1 $453 $363 $546 $547 forward $264 $-1 #
coedge $-1 $363 $452 $548 $549 reversed $264 $-1 #
coedge $-1 $550 $551 $363 $455 forward $543 $-1 #
edge $-1 $552 -27.325639337552342 $553 -24.79523468252086 $454 $554 forward 7 unknown #
edge $-1 $555 1 $555 0 $364 $-1 forward 7 unknown #
vertex $-1 $365 $556 #
ellipse-curve $-1 -5.6247506260480122 -16.948703847951144 2.5428260714974256 0 -0.81915205242281985 0.57357642473473569 0.5 0 0 1 I I #
point $-1 -5.1247506260480122 -18.542384202878427 3.6587330358339427 #
point $-1 -0.5632389310957393 -16.539127821739733 2.2560378591300578 #
coedge $-1 $557 $546 $551 $558 reversed $370 $-1 #
coedge $-1 $465 $467 $474 $559 forward $375 $-1 #
coedge $-1 $479 $389 $377 $464 reversed $475 $-1 #
edge $-1 $481 -19.807586530394172 $472 19.807586530394172 $463 $560 forward 7 unknown #
coedge $-1 $383 $462 $380 $466 forward $375 $-1 #
edge $-1 $561 -42.3596911526841 $386 42.3596911526841 $380 $562 forward 7 unknown #
coedge $-1 $462 $383 $382 $468 forward $375 $-1 #
edge $-1 $385 -42.3596911526841 $476 42.3596911526841 $382 $563 forward 7 unknown #
straight-curve $-1 -42.3596911526841 0 -5.4656292725367583 0 1 0 I I #
point $-1 -42.3596911526841 19.807586530394172 -5.4656292725367583 #
point $-1 -42.3596911526841 -19.807586530394172 -5.4656292725367583 #
vertex $-1 $464 $564 #
straight-curve $-1 0 19.807586530394172 5.4656292725367583 -1 0 0 I I #
coedge $-1 $389 $479 $462 $559 reversed $475 $-1 #
loop $-1 $-1 $479 $391 #
vertex $-1 $559 $565 #
straight-curve $-1 42.3596911526841 19.807586530394172 0 0 0 -1 I I #
plane-surface $-1 42.3596911526841 0 0 -1 0 0 0 0 1 forward_v I I I I #
coedge $-1 $474 $463 $394 $480 forward $475 $-1 #
edge $-1 $481 -5.4656292725367583 $561 5.4656292725367583 $479 $566 forward 7 unknown #
vertex $-1 $464 $567 #
straight-curve $-1 0 -19.807586530394172 5.4656292725367583 1 0 0 I I #
face $-1 $568 $498 $17 $-1 $485 reversed single #
loop $-1 $-1 $489 $401 #
plane-surface $-1 -42.3596911526841 0 0 1 0 0 0 0 -1 forward_v I I I I #
coedge $-1 $569 $570 $571 $572 forward $402 $-1 #
coedge $-1 $573 $404 $574 $575 forward $325 $-1 #
coedge $-1 $404 $573 $576 $577 forward $325 $-1 #
coedge $-1 $578 $579 $404 $490 forward $484 $-1 #
edge $-1 $580 -19.807586530394172 $581 19.807586530394172 $489 $582 forward 7 unknown #
coedge $-1 $406 $405 $570 $583 forward $231 $-1 #
coedge $-1 $516 $571 $405 $493 reversed $513 $-1 #
edge $-1 $499 -2.7591277872355917 $584 2.7591277872355917 $492 $585 forward 7 unknown #
coedge $-1 $586 $504 $406 $495 reversed $245 $-1 #
edge $-1 $587 -2.7591277872355917 $500 2.7591277872355917 $494 $588 forward 7 unknown #
coedge $-1 $502 $407 $504 $589 reversed $498 $-1 #
coedge $-1 $407 $502 $516 $590 forward $498 $-1 #
loop $-1 $-1 $407 $483 #
vertex $-1 $590 $591 #
vertex $-1 $495 $592 #
straight-curve $-1 -42.3596911526841 0 0.18361004677320736 0 -1 0 I I #
coedge $-1 $497 $496 $409 $503 reversed $498 $-1 #
edge $-1 $517 -19.807586530394172 $505 19.807586530394172 $502 $593 forward 7 unknown #
coedge $-1 $494 $410 $496 $589 forward $245 $-1 #
vertex $-1 $503 $594 #
coedge $-1 $416 $574 $579 $595 forward $245 $-1 #
coedge $-1 $596 $597 $416 $508 forward $598 $-1 #
edge $-1 $510 -42.3596911526841 $599 42.3596911526841 $416 $600 forward 7 unknown #
coedge $-1 $423 $417 $597 $601 reversed $424 $-1 #
vertex $-1 $418 $602 #
straight-curve $-1 42.3596911526841 -19.807586530394172 0 0 0 -1 I I #
face $-1 $-1 $424 $17 $-1 $603 reversed single #
loop $-1 $-1 $515 $419 #
plane-surface $-1 0 19.807586530394172 0 0 -1 0 0 0 -1 forward_v I I I I #
coedge $-1 $604 $421 $423 $519 forward $513 $-1 #
coedge $-1 $421 $492 $497 $590 reversed $513 $-1 #
vertex $-1 $422 $605 #
straight-curve $-1 0 19.807586530394172 5.4656292725367583 -1 0 0 I I #
edge $-1 $425 -5.4656292725367583 $606 5.4656292725367583 $423 $607 forward 7 unknown #
point $-1 42.3596911526841 19.807586530394172 5.4656292725367583 #
face $-1 $608 $609 $18 $-1 $610 reversed single #
loop $-1 $-1 $611 $428 #
plane-surface $-1 -45.118818939919692 0 -2.8163899532267926 0 0 1 1 0 0 forward_v I I I I #
coedge $-1 $612 $613 $614 $615 reversed $429 $-1 #
coedge $-1 $431 $616 $617 $618 forward $346 $-1 #
coedge $-1 $617 $440 $432 $527 forward $442 $-1 #
edge $-1 $619 -23.370601804658595 $529 -19.756809331252967 $526 $620 forward 7 unknown #
edge $-1 $619 6.2211835686289132e-015 $530 4.4116259767854515 $433 $621 forward 7 unknown #
vertex $-1 $527 $622 #
vertex $-1 $436 $623 #
straight-curve $-1 -8.9990917560161918 -44.602821212915032 5.4656292725367592 0 1 0 I I #
straight-curve $-1 -1.5469973892859379 -17.277181875362693 5.4656292725367583 1 0 0 I I #
edge $-1 $438 -4.3580995881583782 $619 7.4520943667302539 $440 $624 forward 7 unknown #
point $-1 2.8111021988724403 -19.807586530394172 1.8518367991311331 #
coedge $-1 $441 $625 $626 $627 reversed $442 $-1 #
face $-1 $628 $442 $18 $-1 $629 reversed single #
coedge $-1 $616 $444 $630 $631 forward $346 $-1 #
coedge $-1 $626 $632 $444 $539 reversed $633 $-1 #
edge $-1 $540 -19.807586530394172 $634 19.807586530394172 $538 $635 forward 7 unknown #
vertex $-1 $539 $636 #
straight-curve $-1 0 -19.807586530394172 5.4656292725367583 1 0 0 I I #
face $-1 $637 $638 $19 $-1 $639 forward single #
loop $-1 $-1 $640 $449 #
plane-surface $-1 0 0 5.4656292725367583 0 0 1 1 0 0 forward_v I I I I #
coedge $-1 $641 $642 $640 $643 reversed $450 $-1 #
coedge $-1 $461 $644 $452 $547 reversed $370 $-1 #
edge $-1 $552 -4.4116259767854515 $645 -6.2211835686289132e-015 $452 $646 forward 7 unknown #
coedge $-1 $647 $648 $453 $549 forward $649 $-1 #
edge $-1 $553 19.756809331252967 $645 23.370601804658595 $548 $650 forward 7 unknown #
coedge $-1 $651 $454 $648 $652 forward $543 $-1 #
coedge $-1 $454 $640 $461 $558 forward $543 $-1 #
vertex $-1 $558 $653 #
vertex $-1 $652 $654 #
straight-curve $-1 2.8111021988724403 -44.602821212915032 5.4656292725367592 0 -1 0 I I #
vertex $-1 $456 $655 #
point $-1 -5.1247506260480122 -16.948703847951144 2.5428260714974256 #
coedge $-1 $644 $461 $642 $656 reversed $370 $-1 #
edge $-1 $657 -7.4520943667302539 $552 4.3580995881583782 $551 $658 forward 7 unknown #
edge $-1 $476 -19.807586530394172 $561 19.807586530394172 $474 $659 forward 7 unknown #
straight-curve $-1 42.3596911526841 0 5.4656292725367583 0 1 0 I I #
vertex $-1 $480 $660 #
straight-curve $-1 0 -19.807586530394172 -5.4656292725367583 -1 0 0 I I #
straight-curve $-1 0 19.807586530394172 -5.4656292725367583 1 0 0 I I #
point $-1 42.3596911526841 19.807586530394172 5.4656292725367583 #
point $-1 42.3596911526841 19.807586530394172 -5.4656292725367583 #
straight-curve $-1 42.3596911526841 -19.807586530394172 0 0 0 -1 I I #
point $-1 42.3596911526841 -19.807586530394172 5.4656292725367583 #
face $-1 $339 $598 $17 $-1 $661 reversed single #
coedge $-1 $662 $486 $573 $663 reversed $402 $-1 #
coedge $-1 $486 $662 $491 $583 reversed $402 $-1 #
coedge $-1 $492 $576 $486 $572 reversed $513 $-1 #
edge $-1 $584 -1.5 $664 1.5 $571 $665 forward 7 unknown #
coedge $-1 $488 $487 $569 $663 forward $325 $-1 #
coedge $-1 $506 $586 $487 $575 reversed $245 $-1 #
edge $-1 $580 -2.7591277872355917 $666 2.7591277872355917 $574 $667 forward 7 unknown #
coedge $-1 $571 $668 $488 $577 reversed $513 $-1 #
edge $-1 $664 -2.7591277872355917 $581 2.7591277872355917 $576 $669 forward 7 unknown #
coedge $-1 $670 $489 $668 $671 forward $484 $-1 #
coedge $-1 $489 $670 $506 $595 reversed $484 $-1 #
vertex $-1 $595 $672 #
vertex $-1 $671 $673 #
straight-curve $-1 -42.3596911526841 0 -2.8163899532267926 0 1 0 I I #
edge $-1 $584 -19.807586530394172 $587 19.807586530394172 $570 $674 forward 7 unknown #
vertex $-1 $493 $675 #
straight-curve $-1 -45.118818939919692 19.807586530394172 0.18361004677320736 -1 0 0 I I #
coedge $-1 $574 $494 $662 $676 forward $245 $-1 #
vertex $-1 $583 $677 #
straight-curve $-1 -45.118818939919692 -19.807586530394172 0.18361004677320736 1 0 0 I I #
edge $-1 $505 -5.4656292725367583 $500 -0.18361004677320736 $496 $678 forward 7 unknown #
edge $-1 $517 -5.4656292725367583 $499 -0.18361004677320736 $516 $679 forward 7 unknown #
point $-1 -42.3596911526841 19.807586530394172 0.18361004677320736 #
point $-1 -42.3596911526841 -19.807586530394172 0.18361004677320736 #
straight-curve $-1 -42.3596911526841 0 5.4656292725367583 0 -1 0 I I #
point $-1 -42.3596911526841 -19.807586530394172 5.4656292725367583 #
edge $-1 $580 2.8163899532267926 $599 5.4656292725367583 $579 $678 forward 7 unknown #
coedge $-1 $680 $507 $670 $681 forward $598 $-1 #
coedge $-1 $507 $680 $509 $601 forward $598 $-1 #
loop $-1 $-1 $597 $568 #
vertex $-1 $681 $682 #
straight-curve $-1 0 -19.807586530394172 -5.4656292725367583 -1 0 0 I I #
edge $-1 $606 -19.807586530394172 $510 19.807586530394172 $509 $683 forward 7 unknown #
point $-1 42.3596911526841 -19.807586530394172 -5.4656292725367583 #
plane-surface $-1 42.3596911526841 0 0 -1 0 0 0 0 1 forward_v I I I I #
coedge $-1 $668 $515 $680 $684 reversed $513 $-1 #
point $-1 -42.3596911526841 19.807586530394172 5.4656292725367583 #
vertex $-1 $601 $685 #
straight-curve $-1 42.3596911526841 19.807586530394172 0 0 0 -1 I I #
face $-1 $686 $687 $18 $-1 $688 reversed single #
loop $-1 $-1 $689 $521 #
plane-surface $-1 -47.877946727155283 0 -1.3163899532267926 1 0 0 0 0 -1 forward_v I I I I #
coedge $-1 $690 $691 $692 $693 reversed $522 $-1 #
coedge $-1 $694 $524 $695 $696 forward $429 $-1 #
coedge $-1 $524 $694 $697 $698 forward $429 $-1 #
coedge $-1 $699 $700 $524 $615 forward $701 $-1 #
edge $-1 $702 -19.807586530394172 $703 19.807586530394172 $614 $704 forward 7 unknown #
coedge $-1 $525 $537 $705 $706 forward $346 $-1 #
coedge $-1 $707 $526 $525 $618 reversed $442 $-1 #
edge $-1 $708 -42.3596911526841 $529 -8.9990917560161918 $617 $541 forward 7 unknown #
vertex $-1 $533 $709 #
straight-curve $-1 -8.9990917560161918 -19.807586530394168 25.222438603789726 0 0 1 I I #
straight-curve $-1 -8.9990917560161918 -19.807586530394175 1.851836799131128 0 0.57357642473473569 0.81915205242281985 I I #
point $-1 -8.9990917560161918 -19.807586530394172 5.4656292725367583 #
point $-1 -8.9990917560161918 -17.27718187536269 5.4656292725367575 #
straight-curve $-1 -1.5469973892859379 -19.807586530394172 1.8518367991311346 -1 0 0 I I #
coedge $-1 $535 $710 $711 $712 reversed $442 $-1 #
coedge $-1 $713 $538 $535 $627 forward $633 $-1 #
edge $-1 $540 -5.4656292725367583 $714 5.4656292725367583 $626 $715 forward 7 unknown #
face $-1 $716 $717 $18 $-1 $718 reversed single #
plane-surface $-1 0 -19.807586530394172 0 0 1 0 0 0 1 forward_v I I I I #
coedge $-1 $719 $720 $537 $631 reversed $717 $-1 #
edge $-1 $634 -42.3596911526841 $721 42.3596911526841 $630 $722 forward 7 unknown #
coedge $-1 $538 $713 $719 $723 reversed $633 $-1 #
loop $-1 $-1 $626 $716 #
vertex $-1 $539 $724 #
straight-curve $-1 42.3596911526841 0 5.4656292725367583 0 1 0 I I #
point $-1 42.3596911526841 -19.807586530394172 5.4656292725367583 #
face $-1 $725 $726 $19 $-1 $727 reversed single #
loop $-1 $-1 $728 $542 #
plane-surface $-1 -45.118818939919692 0 0.18361004677320736 0 0 1 1 0 0 forward_v I I I I #
coedge $-1 $551 $729 $545 $643 forward $543 $-1 #
coedge $-1 $642 $545 $730 $731 reversed $450 $-1 #
coedge $-1 $545 $641 $557 $656 forward $450 $-1 #
edge $-1 $732 24.79523468252086 $657 27.325639337552342 $640 $733 forward 7 unknown #
coedge $-1 $546 $557 $647 $734 reversed $370 $-1 #
vertex $-1 $734 $735 #
straight-curve $-1 2.8111021988724403 -19.807586530394175 1.851836799131128 0 -0.57357642473473569 -0.81915205242281985 I I #
coedge $-1 $730 $548 $644 $734 forward $649 $-1 #
coedge $-1 $548 $736 $550 $652 reversed $649 $-1 #
loop $-1 $-1 $730 $737 #
straight-curve $-1 2.8111021988724403 -19.807586530394168 25.222438603789726 0 0 -1 I I #
coedge $-1 $738 $550 $739 $740 forward $543 $-1 #
edge $-1 $553 2.8111021988724403 $741 42.3596911526841 $648 $742 forward 7 unknown #
point $-1 2.8111021988724403 -17.27718187536269 5.4656292725367575 #
point $-1 2.8111021988724403 -19.807586530394172 5.4656292725367583 #
point $-1 -5.6247506260480122 -16.539127821739733 2.2560378591300578 #
edge $-1 $743 6.2211835686289132e-015 $657 4.4116259767854515 $642 $744 forward 7 unknown #
vertex $-1 $558 $745 #
straight-curve $-1 -1.5469973892859379 -17.277181875362693 5.4656292725367583 1 0 0 I I #
straight-curve $-1 42.3596911526841 0 -5.4656292725367583 0 -1 0 I I #
point $-1 42.3596911526841 -19.807586530394172 -5.4656292725367583 #
plane-surface $-1 0 0 -5.4656292725367583 0 0 1 1 0 0 forward_v I I I I #
coedge $-1 $570 $569 $586 $676 reversed $402 $-1 #
edge $-1 $666 -19.807586530394172 $664 19.807586530394172 $569 $746 forward 7 unknown #
vertex $-1 $577 $747 #
straight-curve $-1 -47.877946727155283 19.807586530394172 -1.3163899532267926 0 0 -1 I I #
vertex $-1 $663 $748 #
straight-curve $-1 -45.118818939919692 -19.807586530394172 -2.8163899532267926 -1 0 0 I I #
coedge $-1 $576 $604 $578 $671 reversed $513 $-1 #
straight-curve $-1 -45.118818939919692 19.807586530394172 -2.8163899532267926 1 0 0 I I #
coedge $-1 $579 $578 $596 $681 reversed $484 $-1 #
edge $-1 $581 2.8163899532267926 $749 5.4656292725367583 $668 $679 forward 7 unknown #
point $-1 -42.3596911526841 -19.807586530394172 -2.8163899532267926 #
point $-1 -42.3596911526841 19.807586530394172 -2.8163899532267926 #
straight-curve $-1 -47.877946727155283 0 0.18361004677320736 0 -1 0 I I #
point $-1 -47.877946727155283 19.807586530394172 0.18361004677320736 #
edge $-1 $587 -1.5 $666 1.5 $662 $750 forward 7 unknown #
point $-1 -47.877946727155283 -19.807586530394172 0.18361004677320736 #
straight-curve $-1 -42.3596911526841 -19.807586530394172 0 0 0 -1 I I #
straight-curve $-1 -42.3596911526841 19.807586530394172 0 0 0 -1 I I #
coedge $-1 $597 $596 $604 $684 forward $598 $-1 #
edge $-1 $599 -19.807586530394172 $749 19.807586530394172 $670 $751 forward 7 unknown #
point $-1 -42.3596911526841 -19.807586530394172 -5.4656292725367583 #
straight-curve $-1 42.3596911526841 0 -5.4656292725367583 0 -1 0 I I #
edge $-1 $749 -42.3596911526841 $606 42.3596911526841 $604 $752 forward 7 unknown #
point $-1 42.3596911526841 19.807586530394172 -5.4656292725367583 #
face $-1 $753 $701 $18 $-1 $688 reversed single #
loop $-1 $-1 $692 $608 #
plane-surface $-1 -42.3596911526841 0 0 1 0 0 0 0 -1 forward_v I I I I #
coedge $-1 $754 $755 $756 $757 forward $609 $-1 #
coedge $-1 $758 $611 $759 $760 forward $522 $-1 #
coedge $-1 $611 $758 $761 $762 forward $522 $-1 #
coedge $-1 $763 $764 $611 $693 forward $687 $-1 #
edge $-1 $765 -19.807586530394172 $766 19.807586530394172 $692 $767 forward 7 unknown #
coedge $-1 $613 $612 $755 $768 forward $429 $-1 #
coedge $-1 $720 $756 $612 $696 reversed $717 $-1 #
edge $-1 $702 -2.7591277872355917 $769 2.7591277872355917 $695 $770 forward 7 unknown #
coedge $-1 $771 $707 $613 $698 reversed $442 $-1 #
edge $-1 $772 -2.7591277872355917 $703 2.7591277872355917 $697 $773 forward 7 unknown #
coedge $-1 $705 $614 $707 $774 reversed $701 $-1 #
coedge $-1 $614 $705 $720 $775 forward $701 $-1 #
loop $-1 $-1 $614 $686 #
vertex $-1 $775 $776 #
vertex $-1 $698 $777 #
straight-curve $-1 -42.3596911526841 0 0.18361004677320736 0 -1 0 I I #
coedge $-1 $700 $699 $616 $706 reversed $701 $-1 #
edge $-1 $721 -19.807586530394172 $708 19.807586530394172 $705 $778 forward 7 unknown #
coedge $-1 $697 $617 $699 $774 forward $442 $-1 #
vertex $-1 $706 $779 #
point $-1 -8.9990917560161918 -19.807586530394172 1.8518367991311331 #
coedge $-1 $625 $759 $764 $780 forward $442 $-1 #
coedge $-1 $781 $782 $625 $712 forward $783 $-1 #
edge $-1 $714 -42.3596911526841 $784 42.3596911526841 $625 $785 forward 7 unknown #
coedge $-1 $632 $626 $782 $786 reversed $633 $-1 #
vertex $-1 $627 $787 #
straight-curve $-1 42.3596911526841 -19.807586530394172 0 0 0 -1 I I #
face $-1 $-1 $633 $18 $-1 $788 reversed single #
loop $-1 $-1 $719 $628 #
plane-surface $-1 0 19.807586530394172 0 0 -1 0 0 0 -1 forward_v I I I I #
coedge $-1 $789 $630 $632 $723 forward $717 $-1 #
coedge $-1 $630 $695 $700 $775 reversed $717 $-1 #
vertex $-1 $631 $790 #
straight-curve $-1 0 19.807586530394172 5.4656292725367583 -1 0 0 I I #
edge $-1 $634 -5.4656292725367583 $791 5.4656292725367583 $632 $792 forward 7 unknown #
point $-1 42.3596911526841 19.807586530394172 5.4656292725367583 #
face $-1 $793 $794 $19 $-1 $795 reversed single #
loop $-1 $-1 $796 $637 #
plane-surface $-1 -45.118818939919692 0 -2.8163899532267926 0 0 1 1 0 0 forward_v I I I I #
coedge $-1 $797 $798 $799 $800 reversed $638 $-1 #
coedge $-1 $640 $801 $802 $803 forward $543 $-1 #
coedge $-1 $802 $647 $641 $731 forward $649 $-1 #
edge $-1 $743 -23.370601804658595 $732 -19.756809331252967 $730 $804 forward 7 unknown #
vertex $-1 $731 $805 #
straight-curve $-1 -8.9990917560161918 -44.602821212915032 5.4656292725367592 0 1 0 I I #
edge $-1 $645 -4.3580995881583782 $743 7.4520943667302539 $647 $806 forward 7 unknown #
point $-1 2.8111021988724403 -19.807586530394172 1.8518367991311331 #
coedge $-1 $648 $807 $808 $809 reversed $649 $-1 #
face $-1 $810 $649 $19 $-1 $811 reversed single #
coedge $-1 $801 $651 $812 $813 forward $543 $-1 #
coedge $-1 $808 $814 $651 $740 reversed $815 $-1 #
edge $-1 $741 -19.807586530394172 $816 19.807586530394172 $739 $817 forward 7 unknown #
vertex $-1 $740 $818 #
straight-curve $-1 0 -19.807586530394172 5.4656292725367583 1 0 0 I I #
vertex $-1 $734 $819 #
straight-curve $-1 -8.9990917560161918 -19.807586530394175 1.851836799131128 0 0.57357642473473569 0.81915205242281985 I I #
point $-1 -8.9990917560161918 -17.27718187536269 5.4656292725367575 #
straight-curve $-1 -47.877946727155283 0 -2.8163899532267926 0 1 0 I I #
point $-1 -47.877946727155283 19.807586530394172 -2.8163899532267926 #
point $-1 -47.877946727155283 -19.807586530394172 -2.8163899532267926 #
vertex $-1 $684 $820 #
straight-curve $-1 -47.877946727155283 -19.807586530394172 -1.3163899532267926 0 0 -1 I I #
straight-curve $-1 -42.3596911526841 0 -5.4656292725367583 0 1 0 I I #
straight-curve $-1 0 19.807586530394172 -5.4656292725367583 1 0 0 I I #
face $-1 $536 $783 $18 $-1 $821 reversed single #
coedge $-1 $822 $689 $758 $823 reversed $609 $-1 #
coedge $-1 $689 $822 $694 $768 reversed $609 $-1 #
coedge $-1 $695 $761 $689 $757 reversed $717 $-1 #
edge $-1 $769 -1.5 $824 1.5 $756 $825 forward 7 unknown #
coedge $-1 $691 $690 $754 $823 forward $522 $-1 #
coedge $-1 $710 $771 $690 $760 reversed $442 $-1 #
edge $-1 $765 -2.7591277872355917 $826 2.7591277872355917 $759 $827 forward 7 unknown #
coedge $-1 $756 $828 $691 $762 reversed $717 $-1 #
edge $-1 $824 -2.7591277872355917 $766 2.7591277872355917 $761 $829 forward 7 unknown #
coedge $-1 $830 $692 $828 $831 forward $687 $-1 #
coedge $-1 $692 $830 $710 $780 reversed $687 $-1 #
vertex $-1 $780 $832 #
vertex $-1 $831 $833 #
straight-curve $-1 -42.3596911526841 0 -2.8163899532267926 0 1 0 I I #
edge $-1 $769 -19.807586530394172 $772 19.807586530394172 $755 $834 forward 7 unknown #
vertex $-1 $696 $835 #
straight-curve $-1 -45.118818939919692 19.807586530394172 0.18361004677320736 -1 0 0 I I #
coedge $-1 $759 $697 $822 $836 forward $442 $-1 #
vertex $-1 $768 $837 #
straight-curve $-1 -45.118818939919692 -19.807586530394172 0.18361004677320736 1 0 0 I I #
edge $-1 $708 -5.4656292725367583 $703 -0.18361004677320736 $699 $838 forward 7 unknown #
edge $-1 $721 -5.4656292725367583 $702 -0.18361004677320736 $720 $839 forward 7 unknown #
point $-1 -42.3596911526841 19.807586530394172 0.18361004677320736 #
point $-1 -42.3596911526841 -19.807586530394172 0.18361004677320736 #
straight-curve $-1 -42.3596911526841 0 5.4656292725367583 0 -1 0 I I #
point $-1 -42.3596911526841 -19.807586530394172 5.4656292725367583 #
edge $-1 $765 2.8163899532267926 $784 5.4656292725367583 $764 $838 forward 7 unknown #
coedge $-1 $840 $711 $830 $841 forward $783 $-1 #
coedge $-1 $711 $840 $713 $786 forward $783 $-1 #
loop $-1 $-1 $782 $753 #
vertex $-1 $841 $842 #
straight-curve $-1 0 -19.807586530394172 -5.4656292725367583 -1 0 0 I I #
edge $-1 $791 -19.807586530394172 $714 19.807586530394172 $713 $843 forward 7 unknown #
point $-1 42.3596911526841 -19.807586530394172 -5.4656292725367583 #
plane-surface $-1 42.3596911526841 0 0 -1 0 0 0 0 1 forward_v I I I I #
coedge $-1 $828 $719 $840 $844 reversed $717 $-1 #
point $-1 -42.3596911526841 19.807586530394172 5.4656292725367583 #
vertex $-1 $786 $845 #
straight-curve $-1 42.3596911526841 19.807586530394172 0 0 0 -1 I I #
face $-1 $846 $847 $19 $-1 $848 reversed single #
loop $-1 $-1 $849 $725 #
plane-surface $-1 -47.877946727155283 0 -1.3163899532267926 1 0 0 0 0 -1 forward_v I I I I #
coedge $-1 $850 $851 $852 $853 reversed $726 $-1 #
coedge $-1 $854 $728 $855 $856 forward $638 $-1 #
coedge $-1 $728 $854 $857 $858 forward $638 $-1 #
coedge $-1 $859 $860 $728 $800 forward $861 $-1 #
edge $-1 $862 -19.807586530394172 $863 19.807586530394172 $799 $864 forward 7 unknown #
coedge $-1 $729 $738 $865 $866 forward $543 $-1 #
coedge $-1 $867 $730 $729 $803 reversed $649 $-1 #
edge $-1 $868 -42.3596911526841 $732 -8.9990917560161918 $802 $742 forward 7 unknown #
straight-curve $-1 -8.9990917560161918 -19.807586530394168 25.222438603789726 0 0 1 I I #
point $-1 -8.9990917560161918 -19.807586530394172 5.4656292725367583 #
straight-curve $-1 -1.5469973892859379 -19.807586530394172 1.8518367991311346 -1 0 0 I I #
coedge $-1 $736 $869 $870 $871 reversed $649 $-1 #
coedge $-1 $872 $739 $736 $809 forward $815 $-1 #
edge $-1 $741 -5.4656292725367583 $873 5.4656292725367583 $808 $874 forward 7 unknown #
face $-1 $875 $876 $19 $-1 $877 reversed single #
plane-surface $-1 0 -19.807586530394172 0 0 1 0 0 0 1 forward_v I I I I #
coedge $-1 $878 $879 $738 $813 reversed $876 $-1 #
edge $-1 $816 -42.3596911526841 $880 42.3596911526841 $812 $881 forward 7 unknown #
coedge $-1 $739 $872 $878 $882 reversed $815 $-1 #
loop $-1 $-1 $808 $875 #
vertex $-1 $740 $883 #
straight-curve $-1 42.3596911526841 0 5.4656292725367583 0 1 0 I I #
point $-1 42.3596911526841 -19.807586530394172 5.4656292725367583 #
point $-1 -8.9990917560161918 -19.807586530394172 1.8518367991311331 #
point $-1 -42.3596911526841 19.807586530394172 -5.4656292725367583 #
plane-surface $-1 0 0 -5.4656292725367583 0 0 1 1 0 0 forward_v I I I I #
coedge $-1 $755 $754 $771 $836 reversed $609 $-1 #
edge $-1 $826 -19.807586530394172 $824 19.807586530394172 $754 $884 forward 7 unknown #
vertex $-1 $762 $885 #
straight-curve $-1 -47.877946727155283 19.807586530394172 -1.3163899532267926 0 0 -1 I I #
vertex $-1 $823 $886 #
straight-curve $-1 -45.118818939919692 -19.807586530394172 -2.8163899532267926 -1 0 0 I I #
coedge $-1 $761 $789 $763 $831 reversed $717 $-1 #
straight-curve $-1 -45.118818939919692 19.807586530394172 -2.8163899532267926 1 0 0 I I #
coedge $-1 $764 $763 $781 $841 reversed $687 $-1 #
edge $-1 $766 2.8163899532267926 $887 5.4656292725367583 $828 $839 forward 7 unknown #
point $-1 -42.3596911526841 -19.807586530394172 -2.8163899532267926 #
point $-1 -42.3596911526841 19.807586530394172 -2.8163899532267926 #
straight-curve $-1 -47.877946727155283 0 0.18361004677320736 0 -1 0 I I #
point $-1 -47.877946727155283 19.807586530394172 0.18361004677320736 #
edge $-1 $772 -1.5 $826 1.5 $822 $888 forward 7 unknown #
point $-1 -47.877946727155283 -19.807586530394172 0.18361004677320736 #
straight-curve $-1 -42.3596911526841 -19.807586530394172 0 0 0 -1 I I #
straight-curve $-1 -42.3596911526841 19.807586530394172 0 0 0 -1 I I #
coedge $-1 $782 $781 $789 $844 forward $783 $-1 #
edge $-1 $784 -19.807586530394172 $887 19.807586530394172 $830 $889 forward 7 unknown #
point $-1 -42.3596911526841 -19.807586530394172 -5.4656292725367583 #
straight-curve $-1 42.3596911526841 0 -5.4656292725367583 0 -1 0 I I #
edge $-1 $887 -42.3596911526841 $791 42.3596911526841 $789 $890 forward 7 unknown #
point $-1 42.3596911526841 19.807586530394172 -5.4656292725367583 #
face $-1 $891 $861 $19 $-1 $848 reversed single #
loop $-1 $-1 $852 $793 #
plane-surface $-1 -42.3596911526841 0 0 1 0 0 0 0 -1 forward_v I I I I #
coedge $-1 $892 $893 $894 $895 forward $794 $-1 #
coedge $-1 $896 $796 $897 $898 forward $726 $-1 #
coedge $-1 $796 $896 $899 $900 forward $726 $-1 #
coedge $-1 $901 $902 $796 $853 forward $847 $-1 #
edge $-1 $903 -19.807586530394172 $904 19.807586530394172 $852 $905 forward 7 unknown #
coedge $-1 $798 $797 $893 $906 forward $638 $-1 #
coedge $-1 $879 $894 $797 $856 reversed $876 $-1 #
edge $-1 $862 -2.7591277872355917 $907 2.7591277872355917 $855 $908 forward 7 unknown #
coedge $-1 $909 $867 $798 $858 reversed $649 $-1 #
edge $-1 $910 -2.7591277872355917 $863 2.7591277872355917 $857 $911 forward 7 unknown #
coedge $-1 $865 $799 $867 $912 reversed $861 $-1 #
coedge $-1 $799 $865 $879 $913 forward $861 $-1 #
loop $-1 $-1 $799 $846 #
vertex $-1 $913 $914 #
vertex $-1 $858 $915 #
straight-curve $-1 -42.3596911526841 0 0.18361004677320736 0 -1 0 I I #
coedge $-1 $860 $859 $801 $866 reversed $861 $-1 #
edge $-1 $880 -19.807586530394172 $868 19.807586530394172 $865 $916 forward 7 unknown #
coedge $-1 $857 $802 $859 $912 forward $649 $-1 #
vertex $-1 $866 $917 #
coedge $-1 $807 $897 $902 $918 forward $649 $-1 #
coedge $-1 $919 $920 $807 $871 forward $921 $-1 #
edge $-1 $873 -42.3596911526841 $922 42.3596911526841 $807 $923 forward 7 unknown #
coedge $-1 $814 $808 $920 $924 reversed $815 $-1 #
vertex $-1 $809 $925 #
straight-curve $-1 42.3596911526841 -19.807586530394172 0 0 0 -1 I I #
face $-1 $-1 $815 $19 $-1 $926 reversed single #
loop $-1 $-1 $878 $810 #
plane-surface $-1 0 19.807586530394172 0 0 -1 0 0 0 -1 forward_v I I I I #
coedge $-1 $927 $812 $814 $882 forward $876 $-1 #
coedge $-1 $812 $855 $860 $913 reversed $876 $-1 #
vertex $-1 $813 $928 #
straight-curve $-1 0 19.807586530394172 5.4656292725367583 -1 0 0 I I #
edge $-1 $816 -5.4656292725367583 $929 5.4656292725367583 $814 $930 forward 7 unknown #
point $-1 42.3596911526841 19.807586530394172 5.4656292725367583 #
straight-curve $-1 -47.877946727155283 0 -2.8163899532267926 0 1 0 I I #
point $-1 -47.877946727155283 19.807586530394172 -2.8163899532267926 #
point $-1 -47.877946727155283 -19.807586530394172 -2.8163899532267926 #
vertex $-1 $844 $931 #
straight-curve $-1 -47.877946727155283 -19.807586530394172 -1.3163899532267926 0 0 -1 I I #
straight-curve $-1 -42.3596911526841 0 -5.4656292725367583 0 1 0 I I #
straight-curve $-1 0 19.807586530394172 -5.4656292725367583 1 0 0 I I #
face $-1 $737 $921 $19 $-1 $932 reversed single #
coedge $-1 $933 $849 $896 $934 reversed $794 $-1 #
coedge $-1 $849 $933 $854 $906 reversed $794 $-1 #
coedge $-1 $855 $899 $849 $895 reversed $876 $-1 #
edge $-1 $907 -1.5 $935 1.5 $894 $936 forward 7 unknown #
coedge $-1 $851 $850 $892 $934 forward $726 $-1 #
coedge $-1 $869 $909 $850 $898 reversed $649 $-1 #
edge $-1 $903 -2.7591277872355917 $937 2.7591277872355917 $897 $938 forward 7 unknown #
coedge $-1 $894 $939 $851 $900 reversed $876 $-1 #
edge $-1 $935 -2.7591277872355917 $904 2.7591277872355917 $899 $940 forward 7 unknown #
coedge $-1 $941 $852 $939 $942 forward $847 $-1 #
coedge $-1 $852 $941 $869 $918 reversed $847 $-1 #
vertex $-1 $918 $943 #
vertex $-1 $942 $944 #
straight-curve $-1 -42.3596911526841 0 -2.8163899532267926 0 1 0 I I #
edge $-1 $907 -19.807586530394172 $910 19.807586530394172 $893 $945 forward 7 unknown #
vertex $-1 $856 $946 #
straight-curve $-1 -45.118818939919692 19.807586530394172 0.18361004677320736 -1 0 0 I I #
coedge $-1 $897 $857 $933 $947 forward $649 $-1 #
vertex $-1 $906 $948 #
straight-curve $-1 -45.118818939919692 -19.807586530394172 0.18361004677320736 1 0 0 I I #
edge $-1 $868 -5.4656292725367583 $863 -0.18361004677320736 $859 $949 forward 7 unknown #
edge $-1 $880 -5.4656292725367583 $862 -0.18361004677320736 $879 $950 forward 7 unknown #
point $-1 -42.3596911526841 19.807586530394172 0.18361004677320736 #
point $-1 -42.3596911526841 -19.807586530394172 0.18361004677320736 #
straight-curve $-1 -42.3596911526841 0 5.4656292725367583 0 -1 0 I I #
point $-1 -42.3596911526841 -19.807586530394172 5.4656292725367583 #
edge $-1 $903 2.8163899532267926 $922 5.4656292725367583 $902 $949 forward 7 unknown #
coedge $-1 $951 $870 $941 $952 forward $921 $-1 #
coedge $-1 $870 $951 $872 $924 forward $921 $-1 #
loop $-1 $-1 $920 $891 #
vertex $-1 $952 $953 #
straight-curve $-1 0 -19.807586530394172 -5.4656292725367583 -1 0 0 I I #
edge $-1 $929 -19.807586530394172 $873 19.807586530394172 $872 $954 forward 7 unknown #
point $-1 42.3596911526841 -19.807586530394172 -5.4656292725367583 #
plane-surface $-1 42.3596911526841 0 0 -1 0 0 0 0 1 forward_v I I I I #
coedge $-1 $939 $878 $951 $955 reversed $876 $-1 #
point $-1 -42.3596911526841 19.807586530394172 5.4656292725367583 #
vertex $-1 $924 $956 #
straight-curve $-1 42.3596911526841 19.807586530394172 0 0 0 -1 I I #
point $-1 -42.3596911526841 19.807586530394172 -5.4656292725367583 #
plane-surface $-1 0 0 -5.4656292725367583 0 0 1 1 0 0 forward_v I I I I #
coedge $-1 $893 $892 $909 $947 reversed $794 $-1 #
edge $-1 $937 -19.807586530394172 $935 19.807586530394172 $892 $957 forward 7 unknown #
vertex $-1 $900 $958 #
straight-curve $-1 -47.877946727155283 19.807586530394172 -1.3163899532267926 0 0 -1 I I #
vertex $-1 $934 $959 #
straight-curve $-1 -45.118818939919692 -19.807586530394172 -2.8163899532267926 -1 0 0 I I #
coedge $-1 $899 $927 $901 $942 reversed $876 $-1 #
straight-curve $-1 -45.118818939919692 19.807586530394172 -2.8163899532267926 1 0 0 I I #
coedge $-1 $902 $901 $919 $952 reversed $847 $-1 #
edge $-1 $904 2.8163899532267926 $960 5.4656292725367583 $939 $950 forward 7 unknown #
point $-1 -42.3596911526841 -19.807586530394172 -2.8163899532267926 #
point $-1 -42.3596911526841 19.807586530394172 -2.8163899532267926 #
straight-curve $-1 -47.877946727155283 0 0.18361004677320736 0 -1 0 I I #
point $-1 -47.877946727155283 19.807586530394172 0.18361004677320736 #
edge $-1 $910 -1.5 $937 1.5 $933 $961 forward 7 unknown #
point $-1 -47.877946727155283 -19.807586530394172 0.18361004677320736 #
straight-curve $-1 -42.3596911526841 -19.807586530394172 0 0 0 -1 I I #
straight-curve $-1 -42.3596911526841 19.807586530394172 0 0 0 -1 I I #
coedge $-1 $920 $919 $927 $955 forward $921 $-1 #
edge $-1 $922 -19.807586530394172 $960 19.807586530394172 $941 $962 forward 7 unknown #
point $-1 -42.3596911526841 -19.807586530394172 -5.4656292725367583 #
straight-curve $-1 42.3596911526841 0 -5.4656292725367583 0 -1 0 I I #
edge $-1 $960 -42.3596911526841 $929 42.3596911526841 $927 $963 forward 7 unknown #
point $-1 42.3596911526841 19.807586530394172 -5.4656292725367583 #
straight-curve $-1 -47.877946727155283 0 -2.8163899532267926 0 1 0 I I #
point $-1 -47.877946727155283 19.807586530394172 -2.8163899532267926 #
point $-1 -47.877946727155283 -19.807586530394172 -2.8163899532267926 #
vertex $-1 $955 $964 #
straight-curve $-1 -47.877946727155283 -19.807586530394172 -1.3163899532267926 0 0 -1 I I #
straight-curve $-1 -42.3596911526841 0 -5.4656292725367583 0 1 0 I I #
straight-curve $-1 0 19.807586530394172 -5.4656292725367583 1 0 0 I I #
point $-1 -42.3596911526841 19.807586530394172 -5.4656292725367583 #
End-of-ACIS-data 