500 0 3 0           
7 Unknown 11 ACIS 5.0 NT 24 Thu Mar 25 18:51:18 1999 
-1 9.9999999999999995e-007 1e-010 
body $-1 $3 $-1 $4 #
body $-1 $5 $-1 $6 #
body $-1 $7 $-1 $8 #
lump $-1 $-1 $9 $0 #
transform $-1 1 0 0 0 1 0 0 0 1 73.310342722861407 36.163631632550647 17.781840991673523 1 rotate no_reflect no_shear #
lump $-1 $-1 $10 $1 #
transform $-1 1 0 0 0 1 0 0 0 1 73.310342722861407 36.163631632550647 17.781840991673523 1 rotate no_reflect no_shear #
lump $-1 $-1 $11 $2 #
transform $-1 1 0 0 0 1 0 0 0 1 73.310342722861407 36.163631632550647 17.781840991673523 1 rotate no_reflect no_shear #
shell $-1 $-1 $-1 $12 $-1 $3 #
shell $-1 $-1 $-1 $13 $-1 $5 #
shell $-1 $-1 $-1 $14 $-1 $7 #
face $-1 $15 $16 $9 $-1 $17 forward single #
face $-1 $18 $19 $10 $-1 $20 forward single #
face $-1 $21 $22 $11 $-1 $23 reversed single #
face $-1 $24 $25 $9 $-1 $26 reversed single #
loop $-1 $-1 $27 $12 #
plane-surface $-1 0 0 17.781840991673523 0 0 1 1 0 0 forward_v I I I I #
face $-1 $28 $29 $10 $-1 $30 reversed single #
loop $-1 $-1 $31 $13 #
plane-surface $-1 0 -24.47274545456419 -13.731421215873088 0 0 1 1 0 0 forward_v I I I I #
face $-1 $32 $33 $11 $-1 $34 reversed single #
loop $-1 $-1 $35 $14 #
plane-surface $-1 -41.860193650705028 18.850976836884726 0 0 1 0 0 0 1 forward_v I I I I #
face $-1 $36 $37 $9 $-1 $38 reversed single #
loop $-1 $-1 $39 $15 #
plane-surface $-1 0 0 -17.781840991673523 0 0 1 1 0 0 forward_v I I I I #
coedge $-1 $40 $41 $42 $43 forward $16 $-1 #
face $-1 $44 $45 $10 $-1 $46 reversed single #
loop $-1 $-1 $47 $18 #
plane-surface $-1 0 -12.781859276577734 -15.756631103773305 0 -1 0 0 0 -1 forward_v I I I I #
coedge $-1 $48 $49 $50 $51 reversed $19 $-1 #
face $-1 $52 $53 $11 $-1 $54 reversed single #
loop $-1 $-1 $55 $21 #
plane-surface $-1 -45.973726561895688 27.507304234717687 0 1 0 0 0 0 -1 forward_v I I I I #
coedge $-1 $56 $57 $58 $59 forward $22 $-1 #
face $-1 $60 $61 $9 $-1 $62 reversed single #
loop $-1 $-1 $63 $24 #
plane-surface $-1 0 -36.163631632550647 0 0 1 0 0 0 1 forward_v I I I I #
coedge $-1 $64 $65 $66 $67 forward $25 $-1 #
coedge $-1 $68 $27 $69 $70 forward $16 $-1 #
coedge $-1 $27 $68 $71 $72 forward $16 $-1 #
coedge $-1 $73 $74 $27 $43 reversed $75 $-1 #
edge $-1 $76 -36.163631632550647 $77 36.163631632550647 $42 $78 forward 7 unknown #
face $-1 $79 $80 $10 $-1 $81 reversed single #
loop $-1 $-1 $82 $28 #
plane-surface $-1 0 0 -17.781840991673523 0 0 1 1 0 0 forward_v I I I I #
coedge $-1 $83 $84 $85 $86 reversed $29 $-1 #
coedge $-1 $87 $31 $84 $88 forward $19 $-1 #
coedge $-1 $31 $87 $89 $90 reversed $19 $-1 #
coedge $-1 $91 $85 $31 $51 forward $80 $-1 #
edge $-1 $92 0.54548654929563867 $93 23.927258905268552 $50 $94 forward 7 unknown #
face $-1 $95 $96 $11 $-1 $97 reversed single #
loop $-1 $-1 $98 $32 #
plane-surface $-1 -37.746660739514368 27.507304234717687 0 -1 0 0 0 0 1 forward_v I I I I #
coedge $-1 $99 $100 $101 $102 reversed $33 $-1 #
coedge $-1 $103 $35 $104 $105 reversed $22 $-1 #
coedge $-1 $35 $103 $106 $107 reversed $22 $-1 #
coedge $-1 $100 $99 $35 $59 reversed $33 $-1 #
edge $-1 $108 -17.781840991673523 $109 17.781840991673523 $58 $110 forward 7 unknown #
face $-1 $111 $112 $9 $-1 $113 reversed single #
loop $-1 $-1 $114 $36 #
plane-surface $-1 -73.310342722861407 0 0 1 0 0 0 0 -1 forward_v I I I I #
coedge $-1 $115 $71 $116 $117 forward $37 $-1 #
coedge $-1 $118 $39 $115 $119 forward $25 $-1 #
coedge $-1 $39 $118 $120 $121 forward $25 $-1 #
coedge $-1 $74 $73 $39 $67 reversed $75 $-1 #
edge $-1 $122 -36.163631632550647 $123 36.163631632550647 $66 $124 forward 7 unknown #
coedge $-1 $41 $40 $125 $126 forward $16 $-1 #
coedge $-1 $127 $128 $40 $70 reversed $112 $-1 #
edge $-1 $77 -73.310342722861407 $129 73.310342722861407 $69 $130 forward 7 unknown #
coedge $-1 $63 $131 $41 $72 reversed $37 $-1 #
edge $-1 $132 -73.310342722861407 $76 73.310342722861407 $71 $133 forward 7 unknown #
coedge $-1 $66 $42 $131 $134 forward $75 $-1 #
coedge $-1 $42 $66 $127 $135 reversed $75 $-1 #
loop $-1 $-1 $73 $111 #
vertex $-1 $43 $136 #
vertex $-1 $43 $137 #
straight-curve $-1 73.310342722861407 0 17.781840991673523 0 1 0 I I #
face $-1 $138 $139 $10 $-1 $140 reversed single #
loop $-1 $-1 $85 $44 #
plane-surface $-1 73.310342722861407 0 0 -1 0 0 0 0 1 forward_v I I I I #
coedge $-1 $141 $142 $83 $143 forward $45 $-1 #
coedge $-1 $144 $47 $82 $143 reversed $29 $-1 #
coedge $-1 $47 $144 $48 $88 reversed $29 $-1 #
coedge $-1 $50 $145 $47 $86 forward $80 $-1 #
edge $-1 $146 -9.9035254397868702 $92 -5.8531056639864349 $85 $147 forward 7 unknown #
coedge $-1 $49 $48 $148 $149 reversed $19 $-1 #
edge $-1 $92 -73.310342722861407 $150 73.310342722861407 $84 $151 forward 7 unknown #
coedge $-1 $152 $153 $49 $90 forward $139 $-1 #
edge $-1 $93 -73.310342722861407 $154 73.310342722861407 $89 $155 forward 7 unknown #
coedge $-1 $145 $50 $153 $156 forward $80 $-1 #
vertex $-1 $51 $157 #
vertex $-1 $156 $158 #
straight-curve $-1 73.310342722861407 -12.236372727282095 -13.731421215873088 0 -1 0 I I #
face $-1 $159 $160 $11 $-1 $161 forward single #
loop $-1 $-1 $162 $52 #
plane-surface $-1 0 0 -17.781840991673523 0 0 1 1 0 0 forward_v I I I I #
coedge $-1 $163 $164 $103 $165 forward $53 $-1 #
coedge $-1 $58 $55 $166 $167 reversed $33 $-1 #
coedge $-1 $55 $58 $168 $169 reversed $33 $-1 #
coedge $-1 $170 $171 $55 $102 forward $172 $-1 #
edge $-1 $173 -17.781840991673523 $174 17.781840991673523 $101 $175 forward 7 unknown #
coedge $-1 $57 $56 $98 $165 reversed $22 $-1 #
coedge $-1 $166 $162 $56 $105 forward $96 $-1 #
edge $-1 $176 16.816563914161854 $109 25.043629736543174 $104 $177 forward 7 unknown #
coedge $-1 $178 $168 $57 $107 forward $160 $-1 #
edge $-1 $108 -25.043629736543174 $179 -16.816563914161854 $106 $180 forward 7 unknown #
vertex $-1 $107 $181 #
vertex $-1 $105 $182 #
straight-curve $-1 -45.973726561895688 18.850976836884726 0 0 0 -1 I I #
face $-1 $-1 $75 $9 $-1 $183 reversed single #
loop $-1 $-1 $127 $60 #
plane-surface $-1 0 36.163631632550647 0 0 -1 0 0 0 -1 forward_v I I I I #
coedge $-1 $184 $125 $128 $185 forward $61 $-1 #
coedge $-1 $131 $63 $64 $119 reversed $37 $-1 #
coedge $-1 $125 $184 $63 $117 reversed $61 $-1 #
edge $-1 $132 -17.781840991673523 $186 17.781840991673523 $116 $187 forward 7 unknown #
coedge $-1 $65 $64 $184 $188 forward $25 $-1 #
edge $-1 $123 -73.310342722861407 $186 73.310342722861407 $115 $189 forward 7 unknown #
coedge $-1 $128 $127 $65 $121 reversed $112 $-1 #
edge $-1 $190 -73.310342722861407 $122 73.310342722861407 $120 $191 forward 7 unknown #
vertex $-1 $67 $192 #
vertex $-1 $134 $193 #
straight-curve $-1 73.310342722861407 0 -17.781840991673523 0 -1 0 I I #
coedge $-1 $114 $116 $68 $126 reversed $61 $-1 #
edge $-1 $129 -36.163631632550647 $132 36.163631632550647 $125 $194 forward 7 unknown #
coedge $-1 $120 $69 $74 $135 forward $112 $-1 #
coedge $-1 $69 $120 $114 $185 reversed $112 $-1 #
vertex $-1 $70 $195 #
straight-curve $-1 0 36.163631632550647 17.781840991673523 -1 0 0 I I #
coedge $-1 $71 $115 $73 $134 reversed $37 $-1 #
vertex $-1 $126 $196 #
straight-curve $-1 0 -36.163631632550647 17.781840991673523 1 0 0 I I #
edge $-1 $76 -17.781840991673523 $123 17.781840991673523 $73 $197 forward 7 unknown #
edge $-1 $77 -17.781840991673523 $122 17.781840991673523 $74 $198 forward 7 unknown #
point $-1 73.310342722861407 -36.163631632550647 17.781840991673523 #
point $-1 73.310342722861407 36.163631632550647 17.781840991673523 #
face $-1 $-1 $199 $10 $-1 $200 reversed single #
loop $-1 $-1 $89 $79 #
plane-surface $-1 0 -36.163631632550647 0 0 1 0 0 0 1 forward_v I I I I #
coedge $-1 $201 $82 $145 $202 forward $45 $-1 #
coedge $-1 $82 $201 $203 $204 forward $45 $-1 #
edge $-1 $205 -73.310342722861407 $146 73.310342722861407 $82 $206 forward 7 unknown #
coedge $-1 $84 $83 $207 $208 reversed $29 $-1 #
coedge $-1 $85 $91 $141 $202 reversed $80 $-1 #
vertex $-1 $202 $209 #
straight-curve $-1 73.310342722861407 -12.781859276577734 -7.8783155518866526 0 0 1 I I #
coedge $-1 $207 $210 $87 $149 forward $199 $-1 #
edge $-1 $154 -23.927258905268552 $150 -0.54548654929563867 $148 $211 forward 7 unknown #
vertex $-1 $149 $212 #
straight-curve $-1 0 -12.781859276577734 -13.731421215873088 -1 0 0 I I #
coedge $-1 $213 $89 $210 $214 forward $139 $-1 #
coedge $-1 $89 $213 $91 $156 reversed $139 $-1 #
vertex $-1 $214 $215 #
straight-curve $-1 0 -36.163631632550647 -13.731421215873088 -1 0 0 I I #
edge $-1 $93 13.731421215873088 $216 17.781840991673523 $91 $217 forward 7 unknown #
point $-1 73.310342722861407 -12.781859276577734 -13.731421215873088 #
point $-1 73.310342722861407 -36.163631632550647 -13.731421215873088 #
face $-1 $-1 $172 $11 $-1 $218 reversed single #
loop $-1 $-1 $178 $95 #
plane-surface $-1 0 0 17.781840991673523 0 0 1 1 0 0 forward_v I I I I #
coedge $-1 $104 $219 $163 $220 forward $96 $-1 #
coedge $-1 $221 $98 $162 $220 reversed $53 $-1 #
coedge $-1 $98 $221 $178 $222 reversed $53 $-1 #
edge $-1 $179 -17.781840991673523 $176 17.781840991673523 $98 $223 forward 7 unknown #
coedge $-1 $219 $104 $99 $167 forward $96 $-1 #
edge $-1 $109 5.0973247195258828 $173 22.409979515191804 $166 $224 forward 7 unknown #
coedge $-1 $106 $225 $100 $169 forward $160 $-1 #
edge $-1 $174 -22.409979515191804 $108 -5.0973247195258828 $168 $226 forward 7 unknown #
coedge $-1 $227 $101 $225 $228 reversed $172 $-1 #
coedge $-1 $101 $227 $219 $229 reversed $172 $-1 #
loop $-1 $-1 $227 $159 #
vertex $-1 $229 $230 #
vertex $-1 $102 $231 #
straight-curve $-1 -45.973726561895688 36.163631632550647 0 0 0 1 I I #
vertex $-1 $105 $232 #
straight-curve $-1 -20.930096825352514 18.850976836884726 -17.781840991673523 -1 0 0 I I #
coedge $-1 $225 $106 $164 $222 forward $160 $-1 #
vertex $-1 $107 $233 #
straight-curve $-1 -20.930096825352514 18.850976836884726 17.781840991673523 1 0 0 I I #
point $-1 -45.973726561895688 18.850976836884726 17.781840991673523 #
point $-1 -45.973726561895688 18.850976836884726 -17.781840991673523 #
plane-surface $-1 73.310342722861407 0 0 -1 0 0 0 0 1 forward_v I I I I #
coedge $-1 $116 $114 $118 $188 reversed $61 $-1 #
edge $-1 $129 -17.781840991673523 $190 17.781840991673523 $128 $234 forward 7 unknown #
vertex $-1 $188 $235 #
straight-curve $-1 -73.310342722861407 -36.163631632550647 0 0 0 -1 I I #
edge $-1 $186 -36.163631632550647 $190 36.163631632550647 $184 $236 forward 7 unknown #
straight-curve $-1 0 -36.163631632550647 -17.781840991673523 -1 0 0 I I #
vertex $-1 $121 $237 #
straight-curve $-1 0 36.163631632550647 -17.781840991673523 1 0 0 I I #
point $-1 73.310342722861407 36.163631632550647 -17.781840991673523 #
point $-1 73.310342722861407 -36.163631632550647 -17.781840991673523 #
straight-curve $-1 -73.310342722861407 0 17.781840991673523 0 -1 0 I I #
point $-1 -73.310342722861407 36.163631632550647 17.781840991673523 #
point $-1 -73.310342722861407 -36.163631632550647 17.781840991673523 #
straight-curve $-1 73.310342722861407 -36.163631632550647 0 0 0 -1 I I #
straight-curve $-1 73.310342722861407 36.163631632550647 0 0 0 -1 I I #
loop $-1 $-1 $207 $138 #
plane-surface $-1 -73.310342722861407 0 0 1 0 0 0 0 -1 forward_v I I I I #
coedge $-1 $142 $141 $213 $238 forward $45 $-1 #
edge $-1 $146 12.781859276577734 $216 36.163631632550647 $145 $239 forward 7 unknown #
coedge $-1 $210 $207 $142 $204 reversed $199 $-1 #
edge $-1 $240 -36.163631632550647 $205 -12.781859276577734 $203 $241 forward 7 unknown #
vertex $-1 $208 $242 #
straight-curve $-1 0 -12.781859276577734 -17.781840991673523 1 0 0 I I #
coedge $-1 $203 $148 $144 $208 forward $199 $-1 #
edge $-1 $150 5.8531056639864349 $205 9.9035254397868702 $207 $243 forward 7 unknown #
point $-1 73.310342722861407 -12.781859276577734 -17.781840991673523 #
coedge $-1 $148 $203 $152 $214 reversed $199 $-1 #
straight-curve $-1 -73.310342722861407 -12.236372727282095 -13.731421215873088 0 1 0 I I #
point $-1 -73.310342722861407 -12.781859276577734 -13.731421215873088 #
coedge $-1 $153 $152 $201 $238 reversed $139 $-1 #
edge $-1 $154 13.731421215873088 $240 17.781840991673523 $210 $244 forward 7 unknown #
point $-1 -73.310342722861407 -36.163631632550647 -13.731421215873088 #
vertex $-1 $156 $245 #
straight-curve $-1 73.310342722861407 -36.163631632550647 0 0 0 -1 I I #
plane-surface $-1 0 36.163631632550647 0 0 -1 0 0 0 -1 forward_v I I I I #
coedge $-1 $162 $166 $171 $229 forward $96 $-1 #
edge $-1 $246 -22.409979515191804 $176 -5.0973247195258828 $162 $247 forward 7 unknown #
coedge $-1 $164 $163 $227 $248 reversed $53 $-1 #
edge $-1 $179 5.0973247195258828 $249 22.409979515191804 $178 $250 forward 7 unknown #
straight-curve $-1 -37.746660739514368 18.850976836884726 0 0 0 -1 I I #
straight-curve $-1 -45.973726561895688 13.753652117358843 -17.781840991673523 0 1 0 I I #
coedge $-1 $168 $178 $170 $228 forward $160 $-1 #
straight-curve $-1 -45.973726561895688 13.753652117358843 17.781840991673523 0 -1 0 I I #
coedge $-1 $171 $170 $221 $248 forward $172 $-1 #
edge $-1 $249 37.746660739514368 $174 45.973726561895688 $170 $251 forward 7 unknown #
edge $-1 $173 -45.973726561895688 $246 -37.746660739514368 $171 $252 forward 7 unknown #
point $-1 -45.973726561895688 36.163631632550647 -17.781840991673523 #
point $-1 -45.973726561895688 36.163631632550647 17.781840991673523 #
point $-1 -37.746660739514368 18.850976836884726 -17.781840991673523 #
point $-1 -37.746660739514368 18.850976836884726 17.781840991673523 #
straight-curve $-1 -73.310342722861407 36.163631632550647 0 0 0 -1 I I #
point $-1 -73.310342722861407 -36.163631632550647 -17.781840991673523 #
straight-curve $-1 -73.310342722861407 0 -17.781840991673523 0 1 0 I I #
point $-1 -73.310342722861407 36.163631632550647 -17.781840991673523 #
edge $-1 $216 -73.310342722861407 $240 73.310342722861407 $213 $253 forward 7 unknown #
straight-curve $-1 73.310342722861407 0 -17.781840991673523 0 -1 0 I I #
vertex $-1 $204 $254 #
straight-curve $-1 -73.310342722861407 0 -17.781840991673523 0 1 0 I I #
point $-1 -73.310342722861407 -12.781859276577734 -17.781840991673523 #
straight-curve $-1 -73.310342722861407 -12.781859276577734 -7.8783155518866526 0 0 -1 I I #
straight-curve $-1 -73.310342722861407 -36.163631632550647 0 0 0 -1 I I #
point $-1 73.310342722861407 -36.163631632550647 -17.781840991673523 #
vertex $-1 $248 $255 #
straight-curve $-1 -37.746660739514368 13.753652117358843 -17.781840991673523 0 -1 0 I I #
edge $-1 $249 -17.781840991673523 $246 17.781840991673523 $227 $256 forward 7 unknown #
vertex $-1 $228 $257 #
straight-curve $-1 -37.746660739514368 13.753652117358843 17.781840991673523 0 1 0 I I #
straight-curve $-1 0 36.163631632550647 17.781840991673523 -1 0 0 I I #
straight-curve $-1 0 36.163631632550647 -17.781840991673523 1 0 0 I I #
straight-curve $-1 0 -36.163631632550647 -17.781840991673523 -1 0 0 I I #
point $-1 -73.310342722861407 -36.163631632550647 -17.781840991673523 #
point $-1 -37.746660739514368 36.163631632550647 -17.781840991673523 #
straight-curve $-1 -37.746660739514368 36.163631632550647 0 0 0 -1 I I #
point $-1 -37.746660739514368 36.163631632550647 17.781840991673523 #
End-of-ACIS-data 