500 0 11 0           
7 Unknown 11 ACIS 5.0 NT 24 Fri Mar 26 00:11:04 1999 
-1 9.9999999999999995e-007 1e-010 
body $-1 $11 $-1 $12 #
body $-1 $13 $-1 $14 #
body $-1 $15 $-1 $16 #
body $-1 $17 $-1 $18 #
body $-1 $19 $-1 $20 #
body $-1 $21 $-1 $22 #
body $-1 $23 $-1 $24 #
body $-1 $25 $-1 $26 #
body $-1 $27 $-1 $28 #
body $-1 $29 $-1 $30 #
body $-1 $31 $-1 $32 #
lump $-1 $-1 $33 $0 #
transform $-1 1 0 0 0 1 0 0 0 1 56.550798059022796 25.636752978532062 5.4655801654753695 1 rotate no_reflect no_shear #
lump $-1 $-1 $34 $1 #
transform $-1 1 0 0 0 1 0 0 0 1 56.550798059022796 25.636752978532062 5.4655801654753695 1 rotate no_reflect no_shear #
lump $-1 $-1 $35 $2 #
transform $-1 1 0 0 0 1 0 0 0 1 56.550798059022796 25.636752978532062 5.4655801654753695 1 rotate no_reflect no_shear #
lump $-1 $-1 $36 $3 #
transform $-1 1 0 0 0 1 0 0 0 1 56.550798059022796 25.636752978532062 5.4655801654753695 1 rotate no_reflect no_shear #
lump $-1 $-1 $37 $4 #
transform $-1 1 0 0 0 1 0 0 0 1 56.550798059022796 25.636752978532062 5.4655801654753695 1 rotate no_reflect no_shear #
lump $-1 $-1 $38 $5 #
transform $-1 1 0 0 0 1 0 0 0 1 56.550798059022796 25.636752978532062 5.4655801654753695 1 rotate no_reflect no_shear #
lump $-1 $-1 $39 $6 #
transform $-1 1 0 0 0 1 0 0 0 1 56.550798059022796 25.636752978532062 5.4655801654753695 1 rotate no_reflect no_shear #
lump $-1 $-1 $40 $7 #
transform $-1 1 0 0 0 1 0 0 0 1 56.550798059022796 25.636752978532062 5.4655801654753695 1 rotate no_reflect no_shear #
lump $-1 $-1 $41 $8 #
transform $-1 1 0 0 0 1 0 0 0 1 56.550798059022796 25.636752978532062 5.4655801654753695 1 rotate no_reflect no_shear #
lump $-1 $-1 $42 $9 #
transform $-1 1 0 0 0 1 0 0 0 1 56.550798059022796 25.636752978532062 5.4655801654753695 1 rotate no_reflect no_shear #
lump $-1 $-1 $43 $10 #
transform $-1 1 0 0 0 1 0 0 0 1 56.550798059022796 25.636752978532062 5.4655801654753695 1 rotate no_reflect no_shear #
shell $-1 $-1 $-1 $44 $-1 $11 #
shell $-1 $-1 $-1 $45 $-1 $13 #
shell $-1 $-1 $-1 $46 $-1 $15 #
shell $-1 $-1 $-1 $47 $-1 $17 #
shell $-1 $-1 $-1 $48 $-1 $19 #
shell $-1 $-1 $-1 $49 $-1 $21 #
shell $-1 $-1 $-1 $50 $-1 $23 #
shell $-1 $-1 $-1 $51 $-1 $25 #
shell $-1 $-1 $-1 $52 $-1 $27 #
shell $-1 $-1 $-1 $53 $-1 $29 #
shell $-1 $-1 $-1 $54 $-1 $31 #
face $-1 $55 $56 $33 $-1 $57 forward single #
face $-1 $58 $59 $34 $-1 $60 reversed single #
face $-1 $61 $62 $35 $-1 $63 forward single #
face $-1 $64 $65 $36 $-1 $66 reversed single #
face $-1 $67 $68 $37 $-1 $69 forward single #
face $-1 $70 $71 $38 $-1 $72 forward single #
face $-1 $73 $74 $39 $-1 $75 forward single #
face $-1 $76 $77 $40 $-1 $78 reversed single #
face $-1 $79 $80 $41 $-1 $81 forward single #
face $-1 $82 $83 $42 $-1 $84 forward single #
face $-1 $85 $86 $43 $-1 $87 forward single #
face $-1 $88 $89 $33 $-1 $90 reversed single #
loop $-1 $-1 $91 $44 #
plane-surface $-1 0 0 5.4655801654753695 0 0 1 1 0 0 forward_v I I I I #
face $-1 $92 $93 $34 $-1 $94 reversed single #
loop $-1 $-1 $95 $45 #
plane-surface $-1 13.495646475109019 63.212853214799182 119.86182066141144 1 0 0 0 -0.66913061440640931 -0.74314481823134659 forward_v I I I I #
face $-1 $96 $97 $35 $-1 $98 forward single #
loop $-1 $99 $100 $46 #
cone-surface $-1 26.953966685810826 22.160656688930718 2.0676200891629826 0 -0.66913061440640931 -0.74314481823134659 1 0 0 1 I I 0 1 1 forward I I I I #
face $-1 $101 $102 $36 $-1 $103 reversed single #
loop $-1 $-1 $104 $47 #
plane-surface $-1 -29.06031382052808 -123.5856093001717 58.400263839722427 -1 0 0 0 -0.86602541151947299 0.49999998660252726 forward_v I I I I #
face $-1 $105 $106 $37 $-1 $107 forward single #
loop $-1 $108 $109 $48 #
cone-surface $-1 -51.05270121132385 -23.449544223788685 2.9974236477015461 0 0.86602541151947299 -0.49999998660252726 1 0 0 1 I I 0 1 1 forward I I I I #
face $-1 $110 $111 $38 $-1 $112 forward single #
loop $-1 $113 $114 $49 #
cone-surface $-1 -42.805555939775438 -23.449544223788685 2.9974236477015461 0 0.86602541151947299 -0.49999998660252726 1 0 0 1 I I 0 1 1 forward I I I I #
face $-1 $115 $116 $39 $-1 $117 forward single #
loop $-1 $118 $119 $50 #
cone-surface $-1 -34.558410668227026 -23.449544223788685 2.9974236477015461 0 0.86602541151947299 -0.49999998660252726 1 0 0 1 I I 0 1 1 forward I I I I #
face $-1 $120 $121 $40 $-1 $122 reversed single #
loop $-1 $-1 $123 $51 #
plane-surface $-1 42.805555939775431 -25.63675297853203 1.849467295975181 0 -0.86602541151947299 0.49999998660252726 1 0 0 forward_v I I I I #
face $-1 $124 $125 $41 $-1 $126 forward single #
loop $-1 $127 $128 $52 #
cone-surface $-1 34.558410668227026 -23.449544223788685 2.9974236477015461 0 0.86602541151947299 -0.49999998660252726 1 0 0 1 I I 0 1 1 forward I I I I #
face $-1 $129 $130 $42 $-1 $131 forward single #
loop $-1 $132 $133 $53 #
cone-surface $-1 42.805555939775431 -23.449544223788685 2.9974236477015461 0 0.86602541151947299 -0.49999998660252726 1 0 0 1 I I 0 1 1 forward I I I I #
face $-1 $134 $135 $43 $-1 $136 forward single #
loop $-1 $137 $138 $54 #
cone-surface $-1 51.05270121132385 -23.449544223788685 2.9974236477015461 0 0.86602541151947299 -0.49999998660252726 1 0 0 1 I I 0 1 1 forward I I I I #
face $-1 $139 $140 $33 $-1 $141 reversed single #
loop $-1 $-1 $142 $55 #
plane-surface $-1 0 0 -5.4655801654753695 0 0 1 1 0 0 forward_v I I I I #
coedge $-1 $143 $144 $145 $146 forward $56 $-1 #
face $-1 $147 $148 $34 $-1 $149 reversed single #
loop $-1 $-1 $150 $58 #
plane-surface $-1 26.953966685810812 -12.466887286014227 35.810955572591283 0 0.66913061440640931 0.74314481823134659 1 0 0 forward_v I I I I #
coedge $-1 $151 $152 $153 $154 reversed $59 $-1 #
face $-1 $-1 $155 $35 $-1 $156 forward single #
loop $-1 $157 $158 $61 #
cone-surface $-1 26.953966685810826 20.550838744203215 0.27973617208746404 0 -0.66913061440640931 -0.74314481823134659 0.5 0 0 1 I I -0.70710678118654746 0.70710678118654746 0.5 forward I I I I #
loop $-1 $-1 $159 $46 #
coedge $-1 $100 $100 $160 $161 reversed $62 $-1 #
face $-1 $162 $163 $36 $-1 $164 forward single #
loop $-1 $-1 $165 $64 #
plane-surface $-1 -42.805555939775438 -25.63675297853203 1.849467295975181 0 -0.86602541151947299 0.49999998660252726 1 0 0 forward_v I I I I #
coedge $-1 $166 $167 $168 $169 reversed $65 $-1 #
face $-1 $-1 $170 $37 $-1 $171 forward single #
loop $-1 $172 $173 $67 #
cone-surface $-1 -51.05270121132385 -21.87320459530423 2.0873235713765474 0 0.86602541151947299 -0.49999998660252726 0.5 0 0 1 I I -0.70710678118654735 0.70710678118654768 0.5 forward I I I I #
loop $-1 $-1 $174 $48 #
coedge $-1 $109 $109 $175 $176 reversed $68 $-1 #
face $-1 $-1 $177 $38 $-1 $178 forward single #
loop $-1 $179 $180 $70 #
cone-surface $-1 -42.805555939775438 -21.87320459530423 2.0873235713765474 0 0.86602541151947299 -0.49999998660252726 0.5 0 0 1 I I -0.70710678118654735 0.70710678118654768 0.5 forward I I I I #
loop $-1 $-1 $181 $49 #
coedge $-1 $114 $114 $182 $183 reversed $71 $-1 #
face $-1 $-1 $184 $39 $-1 $185 forward single #
loop $-1 $186 $187 $73 #
cone-surface $-1 -34.558410668227026 -21.87320459530423 2.0873235713765474 0 0.86602541151947299 -0.49999998660252726 0.5 0 0 1 I I -0.70710678118654735 0.70710678118654768 0.5 forward I I I I #
loop $-1 $-1 $188 $50 #
coedge $-1 $119 $119 $189 $190 reversed $74 $-1 #
face $-1 $191 $192 $40 $-1 $193 reversed single #
loop $-1 $-1 $194 $76 #
plane-surface $-1 29.060313820528073 -123.5856093001717 58.400263839722427 1 0 0 0 0.86602541151947299 -0.49999998660252726 forward_v I I I I #
coedge $-1 $195 $196 $197 $198 reversed $77 $-1 #
face $-1 $-1 $199 $41 $-1 $200 forward single #
loop $-1 $201 $202 $79 #
cone-surface $-1 34.558410668227026 -21.87320459530423 2.0873235713765474 0 0.86602541151947299 -0.49999998660252726 0.5 0 0 1 I I -0.70710678118654735 0.70710678118654768 0.5 forward I I I I #
loop $-1 $-1 $203 $52 #
coedge $-1 $128 $128 $204 $205 reversed $80 $-1 #
face $-1 $-1 $206 $42 $-1 $207 forward single #
loop $-1 $208 $209 $82 #
cone-surface $-1 42.805555939775431 -21.87320459530423 2.0873235713765474 0 0.86602541151947299 -0.49999998660252726 0.5 0 0 1 I I -0.70710678118654735 0.70710678118654768 0.5 forward I I I I #
loop $-1 $-1 $210 $53 #
coedge $-1 $133 $133 $211 $212 reversed $83 $-1 #
face $-1 $-1 $213 $43 $-1 $214 forward single #
loop $-1 $215 $216 $85 #
cone-surface $-1 51.05270121132385 -21.87320459530423 2.0873235713765474 0 0.86602541151947299 -0.49999998660252726 0.5 0 0 1 I I -0.70710678118654735 0.70710678118654768 0.5 forward I I I I #
loop $-1 $-1 $217 $54 #
coedge $-1 $138 $138 $218 $219 reversed $86 $-1 #
face $-1 $220 $221 $33 $-1 $222 reversed single #
loop $-1 $-1 $223 $88 #
plane-surface $-1 0 -25.636752978532062 0 0 1 0 0 0 1 forward_v I I I I #
coedge $-1 $224 $225 $226 $227 forward $89 $-1 #
coedge $-1 $228 $91 $229 $230 forward $56 $-1 #
coedge $-1 $91 $228 $231 $232 forward $56 $-1 #
coedge $-1 $233 $234 $91 $146 reversed $235 $-1 #
edge $-1 $236 -25.636752978532062 $237 25.636752978532062 $145 $238 forward 7 unknown #
face $-1 $239 $240 $34 $-1 $241 reversed single #
loop $-1 $-1 $242 $92 #
plane-surface $-1 40.412286896512605 63.212853214799182 119.86182066141144 -1 0 0 0 0.66913061440640931 0.74314481823134659 forward_v I I I I #
coedge $-1 $243 $244 $245 $246 reversed $93 $-1 #
coedge $-1 $152 $95 $247 $248 reversed $59 $-1 #
coedge $-1 $95 $151 $243 $249 reversed $59 $-1 #
coedge $-1 $245 $250 $95 $154 forward $251 $-1 #
edge $-1 $252 5.9696736288675289 $253 10.371360933021627 $153 $254 forward 7 unknown #
loop $-1 $-1 $160 $96 #
plane-surface $-1 26.953966685810812 -12.466887286014227 35.810955572591283 0 0.66913061440640931 0.74314481823134659 1 0 0 forward_v I I I I #
loop $-1 $-1 $255 $61 #
coedge $-1 $158 $158 $159 $256 reversed $97 $-1 #
coedge $-1 $159 $159 $158 $256 forward $99 $-1 #
coedge $-1 $160 $160 $100 $161 forward $155 $-1 #
edge $-1 $257 -1.5199708406749924e-015 $257 6.2831853071795987 $160 $258 forward 7 unknown #
face $-1 $259 $260 $36 $-1 $261 reversed single #
loop $-1 $-1 $168 $101 #
plane-surface $-1 0 0 5.4655801654753695 0 0 1 1 0 0 forward_v I I I I #
coedge $-1 $262 $263 $264 $265 reversed $102 $-1 #
coedge $-1 $167 $104 $266 $267 reversed $65 $-1 #
coedge $-1 $104 $166 $262 $268 reversed $65 $-1 #
coedge $-1 $264 $269 $104 $169 forward $163 $-1 #
edge $-1 $270 36.156051671553783 $271 38.243815335591137 $168 $272 forward 7 unknown #
loop $-1 $-1 $175 $105 #
plane-surface $-1 -42.805555939775438 -25.63675297853203 1.849467295975181 0 -0.86602541151947299 0.49999998660252726 1 0 0 forward_v I I I I #
loop $-1 $-1 $273 $67 #
coedge $-1 $173 $173 $174 $274 reversed $106 $-1 #
coedge $-1 $174 $174 $173 $274 forward $108 $-1 #
coedge $-1 $175 $175 $109 $176 forward $170 $-1 #
edge $-1 $275 -7.5011540951139433e-016 $275 6.2831853071795996 $175 $276 forward 7 unknown #
loop $-1 $-1 $182 $110 #
plane-surface $-1 -42.805555939775438 -25.63675297853203 1.849467295975181 0 -0.86602541151947299 0.49999998660252726 1 0 0 forward_v I I I I #
loop $-1 $-1 $277 $70 #
coedge $-1 $180 $180 $181 $278 reversed $111 $-1 #
coedge $-1 $181 $181 $180 $278 forward $113 $-1 #
coedge $-1 $182 $182 $114 $183 forward $177 $-1 #
edge $-1 $279 -7.5011540951139433e-016 $279 6.2831853071795996 $182 $280 forward 7 unknown #
loop $-1 $-1 $189 $115 #
plane-surface $-1 -42.805555939775438 -25.63675297853203 1.849467295975181 0 -0.86602541151947299 0.49999998660252726 1 0 0 forward_v I I I I #
loop $-1 $-1 $281 $73 #
coedge $-1 $187 $187 $188 $282 reversed $116 $-1 #
coedge $-1 $188 $188 $187 $282 forward $118 $-1 #
coedge $-1 $189 $189 $119 $190 forward $184 $-1 #
edge $-1 $283 -7.5011540951139433e-016 $283 6.2831853071795996 $189 $284 forward 7 unknown #
face $-1 $285 $286 $40 $-1 $287 reversed single #
loop $-1 $-1 $288 $120 #
plane-surface $-1 0 -25.636752978532062 0 0 1 0 0 0 1 forward_v I I I I #
coedge $-1 $289 $290 $291 $292 reversed $121 $-1 #
coedge $-1 $293 $123 $294 $295 reversed $77 $-1 #
coedge $-1 $123 $293 $289 $296 forward $77 $-1 #
coedge $-1 $291 $297 $123 $198 forward $298 $-1 #
edge $-1 $299 -35.148020089135073 $300 -7.6575358506403575 $197 $301 forward 7 unknown #
loop $-1 $-1 $204 $124 #
plane-surface $-1 42.805555939775431 -25.63675297853203 1.849467295975181 0 -0.86602541151947299 0.49999998660252726 1 0 0 forward_v I I I I #
loop $-1 $-1 $302 $79 #
coedge $-1 $202 $202 $203 $303 reversed $125 $-1 #
coedge $-1 $203 $203 $202 $303 forward $127 $-1 #
coedge $-1 $204 $204 $128 $205 forward $199 $-1 #
edge $-1 $304 -7.5011540951139433e-016 $304 6.2831853071795996 $204 $305 forward 7 unknown #
loop $-1 $-1 $211 $129 #
plane-surface $-1 42.805555939775431 -25.63675297853203 1.849467295975181 0 -0.86602541151947299 0.49999998660252726 1 0 0 forward_v I I I I #
loop $-1 $-1 $306 $82 #
coedge $-1 $209 $209 $210 $307 reversed $130 $-1 #
coedge $-1 $210 $210 $209 $307 forward $132 $-1 #
coedge $-1 $211 $211 $133 $212 forward $206 $-1 #
edge $-1 $308 -7.5011540951139433e-016 $308 6.2831853071795996 $211 $309 forward 7 unknown #
loop $-1 $-1 $218 $134 #
plane-surface $-1 42.805555939775431 -25.63675297853203 1.849467295975181 0 -0.86602541151947299 0.49999998660252726 1 0 0 forward_v I I I I #
loop $-1 $-1 $310 $85 #
coedge $-1 $216 $216 $217 $311 reversed $135 $-1 #
coedge $-1 $217 $217 $216 $311 forward $137 $-1 #
coedge $-1 $218 $218 $138 $219 forward $213 $-1 #
edge $-1 $312 -7.5011540951139433e-016 $312 6.2831853071795996 $218 $313 forward 7 unknown #
face $-1 $314 $315 $33 $-1 $316 reversed single #
loop $-1 $-1 $317 $139 #
plane-surface $-1 -56.550798059022796 0 0 1 0 0 0 0 -1 forward_v I I I I #
coedge $-1 $318 $231 $319 $320 forward $140 $-1 #
coedge $-1 $321 $142 $318 $322 forward $89 $-1 #
coedge $-1 $142 $321 $323 $324 forward $89 $-1 #
coedge $-1 $234 $233 $142 $227 reversed $235 $-1 #
edge $-1 $325 -25.636752978532062 $326 25.636752978532062 $226 $327 forward 7 unknown #
coedge $-1 $144 $143 $328 $329 forward $56 $-1 #
coedge $-1 $330 $331 $143 $230 reversed $315 $-1 #
edge $-1 $237 -56.550798059022796 $332 56.550798059022796 $229 $333 forward 7 unknown #
coedge $-1 $223 $334 $144 $232 reversed $140 $-1 #
edge $-1 $335 -56.550798059022796 $236 56.550798059022796 $231 $336 forward 7 unknown #
coedge $-1 $226 $145 $334 $337 forward $235 $-1 #
coedge $-1 $145 $226 $330 $338 reversed $235 $-1 #
loop $-1 $-1 $233 $314 #
vertex $-1 $146 $339 #
vertex $-1 $146 $340 #
straight-curve $-1 56.550798059022796 0 5.4655801654753695 0 1 0 I I #
face $-1 $-1 $251 $34 $-1 $341 forward single #
loop $-1 $-1 $342 $147 #
plane-surface $-1 0 25.636752978532062 0 0 -1 0 0 0 -1 forward_v I I I I #
coedge $-1 $343 $344 $345 $346 reversed $148 $-1 #
coedge $-1 $347 $150 $152 $249 forward $93 $-1 #
coedge $-1 $150 $347 $343 $348 forward $93 $-1 #
coedge $-1 $345 $153 $150 $246 forward $251 $-1 #
edge $-1 $253 0.018663132203613486 $349 26.935303553607199 $245 $350 forward 7 unknown #
coedge $-1 $351 $352 $151 $248 forward $240 $-1 #
edge $-1 $353 -58.428627301935443 $252 -54.465330165230355 $247 $354 forward 7 unknown #
edge $-1 $253 45.350451397348664 $353 51.273505957064124 $152 $355 forward 7 unknown #
coedge $-1 $153 $345 $351 $356 forward $251 $-1 #
loop $-1 $-1 $345 $239 #
vertex $-1 $248 $357 #
vertex $-1 $154 $358 #
straight-curve $-1 13.495646475109019 31.606426607399591 5.4655801654753731 0 -1 0 I I #
coedge $-1 $255 $255 $-1 $359 reversed $157 $-1 #
edge $-1 $360 0 $360 6.2831853071796004 $158 $361 forward 7 unknown #
vertex $-1 $161 $362 #
ellipse-curve $-1 26.953966685810826 23.435909326455011 3.4839315971228215 0 0.66913061440640931 0.74314481823134659 1 0 0 1 I I #
face $-1 $-1 $363 $36 $-1 $364 reversed single #
loop $-1 $-1 $365 $162 #
plane-surface $-1 -56.550798059022796 0 0 1 0 0 0 0 -1 forward_v I I I I #
coedge $-1 $366 $165 $167 $268 forward $102 $-1 #
coedge $-1 $165 $366 $365 $367 reversed $102 $-1 #
coedge $-1 $368 $168 $165 $265 forward $163 $-1 #
edge $-1 $271 7.657535850640361 $369 35.148020089135073 $264 $370 forward 7 unknown #
coedge $-1 $371 $372 $166 $267 forward $363 $-1 #
edge $-1 $373 -27.35066462388609 $270 -23.734551754385844 $266 $374 forward 7 unknown #
edge $-1 $271 -4.1755274399576656 $373 6.3868982444839678e-014 $167 $375 forward 7 unknown #
coedge $-1 $168 $368 $371 $376 forward $163 $-1 #
vertex $-1 $267 $377 #
vertex $-1 $169 $378 #
straight-curve $-1 -29.06031382052808 -61.792804650085849 5.4655801654753695 0 1 0 I I #
coedge $-1 $273 $273 $-1 $379 reversed $172 $-1 #
edge $-1 $380 0 $380 6.2831853071796004 $173 $381 forward 7 unknown #
vertex $-1 $176 $382 #
ellipse-curve $-1 -51.05270121132385 -24.592871146513378 3.6575237307252655 0 -0.86602541151947299 0.49999998660252726 1 0 0 1 I I #
coedge $-1 $277 $277 $-1 $383 reversed $179 $-1 #
edge $-1 $384 0 $384 6.2831853071796004 $180 $385 forward 7 unknown #
vertex $-1 $183 $386 #
ellipse-curve $-1 -42.805555939775438 -24.592871146513378 3.6575237307252655 0 -0.86602541151947299 0.49999998660252726 1 0 0 1 I I #
coedge $-1 $281 $281 $-1 $387 reversed $186 $-1 #
edge $-1 $388 0 $388 6.2831853071796004 $187 $389 forward 7 unknown #
vertex $-1 $190 $390 #
ellipse-curve $-1 -34.558410668227026 -24.592871146513378 3.6575237307252655 0 -0.86602541151947299 0.49999998660252726 1 0 0 1 I I #
face $-1 $-1 $298 $40 $-1 $391 forward single #
loop $-1 $-1 $294 $191 #
plane-surface $-1 56.550798059022796 0 0 -1 0 0 0 0 1 forward_v I I I I #
coedge $-1 $392 $393 $290 $394 forward $192 $-1 #
coedge $-1 $290 $194 $196 $296 reversed $121 $-1 #
coedge $-1 $194 $289 $288 $394 reversed $121 $-1 #
coedge $-1 $395 $197 $194 $292 forward $298 $-1 #
edge $-1 $300 -38.243815335591137 $396 -36.156051671553783 $291 $397 forward 7 unknown #
coedge $-1 $196 $195 $392 $398 reversed $77 $-1 #
coedge $-1 $399 $400 $195 $295 forward $286 $-1 #
edge $-1 $401 -5.6083452348548644 $299 -1.4328177948971352 $294 $402 forward 7 unknown #
edge $-1 $403 -6.3868982444839678e-014 $300 4.1755274399576656 $289 $404 forward 7 unknown #
coedge $-1 $197 $395 $399 $405 forward $298 $-1 #
loop $-1 $-1 $291 $285 #
vertex $-1 $295 $406 #
vertex $-1 $198 $407 #
straight-curve $-1 21.402777969887715 -23.548989314494712 5.4655801654753695 -1 0 0 I I #
coedge $-1 $302 $302 $-1 $408 reversed $201 $-1 #
edge $-1 $409 0 $409 6.2831853071796004 $202 $410 forward 7 unknown #
vertex $-1 $205 $411 #
ellipse-curve $-1 34.558410668227026 -24.592871146513378 3.6575237307252655 0 -0.86602541151947299 0.49999998660252726 1 0 0 1 I I #
coedge $-1 $306 $306 $-1 $412 reversed $208 $-1 #
edge $-1 $413 0 $413 6.2831853071796004 $209 $414 forward 7 unknown #
vertex $-1 $212 $415 #
ellipse-curve $-1 42.805555939775431 -24.592871146513378 3.6575237307252655 0 -0.86602541151947299 0.49999998660252726 1 0 0 1 I I #
coedge $-1 $310 $310 $-1 $416 reversed $215 $-1 #
edge $-1 $417 0 $417 6.2831853071796004 $216 $418 forward 7 unknown #
vertex $-1 $219 $419 #
ellipse-curve $-1 51.05270121132385 -24.592871146513378 3.6575237307252655 0 -0.86602541151947299 0.49999998660252726 1 0 0 1 I I #
face $-1 $-1 $235 $33 $-1 $420 reversed single #
loop $-1 $-1 $330 $220 #
plane-surface $-1 0 25.636752978532062 0 0 -1 0 0 0 -1 forward_v I I I I #
coedge $-1 $421 $328 $331 $422 forward $221 $-1 #
coedge $-1 $334 $223 $224 $322 reversed $140 $-1 #
coedge $-1 $328 $421 $223 $320 reversed $221 $-1 #
edge $-1 $335 -5.4655801654753695 $423 5.4655801654753695 $319 $424 forward 7 unknown #
coedge $-1 $225 $224 $421 $425 forward $89 $-1 #
edge $-1 $326 -56.550798059022796 $423 56.550798059022796 $318 $426 forward 7 unknown #
coedge $-1 $331 $330 $225 $324 reversed $315 $-1 #
edge $-1 $427 -56.550798059022796 $325 56.550798059022796 $323 $428 forward 7 unknown #
vertex $-1 $227 $429 #
vertex $-1 $337 $430 #
straight-curve $-1 56.550798059022796 0 -5.4655801654753695 0 -1 0 I I #
coedge $-1 $317 $319 $228 $329 reversed $221 $-1 #
edge $-1 $332 -25.636752978532062 $335 25.636752978532062 $328 $431 forward 7 unknown #
coedge $-1 $323 $229 $234 $338 forward $315 $-1 #
coedge $-1 $229 $323 $317 $422 reversed $315 $-1 #
vertex $-1 $230 $432 #
straight-curve $-1 0 25.636752978532062 5.4655801654753695 -1 0 0 I I #
coedge $-1 $231 $318 $233 $337 reversed $140 $-1 #
vertex $-1 $329 $433 #
straight-curve $-1 0 -25.636752978532062 5.4655801654753695 1 0 0 I I #
edge $-1 $236 -5.4655801654753695 $326 5.4655801654753695 $233 $434 forward 7 unknown #
edge $-1 $237 -5.4655801654753695 $325 5.4655801654753695 $234 $435 forward 7 unknown #
point $-1 56.550798059022796 -25.636752978532062 5.4655801654753695 #
point $-1 56.550798059022796 25.636752978532062 5.4655801654753695 #
plane-surface $-1 0 0 5.4655801654753695 0 0 1 1 0 0 forward_v I I I I #
coedge $-1 $352 $351 $344 $436 forward $240 $-1 #
coedge $-1 $344 $242 $244 $348 reversed $148 $-1 #
coedge $-1 $242 $343 $342 $436 reversed $148 $-1 #
coedge $-1 $250 $245 $242 $346 forward $251 $-1 #
edge $-1 $349 -10.371360933021627 $437 -5.9696736288675289 $345 $438 forward 7 unknown #
coedge $-1 $244 $243 $352 $439 reversed $93 $-1 #
edge $-1 $440 -51.273505957064124 $349 -45.350451397348664 $343 $441 forward 7 unknown #
vertex $-1 $246 $442 #
straight-curve $-1 13.476983342905406 21.235065674377967 5.465580165475366 1 0 0 I I #
coedge $-1 $342 $247 $250 $356 reversed $240 $-1 #
coedge $-1 $247 $342 $347 $439 forward $240 $-1 #
vertex $-1 $248 $443 #
straight-curve $-1 13.495646475109019 25.636752978532062 59.930910330705721 0 0 1 I I #
straight-curve $-1 13.495646475109019 -12.466887286014227 35.810955572591283 0 0.74314481823134659 -0.66913061440640931 I I #
edge $-1 $437 -40.412286896512605 $252 -13.495646475109019 $351 $444 forward 7 unknown #
point $-1 13.495646475109019 25.636752978532062 5.4655801654753695 #
point $-1 13.495646475109019 21.235065674377964 5.4655801654753695 #
edge $-1 $445 1 $445 0 $255 $-1 forward 7 unknown #
vertex $-1 $256 $446 #
ellipse-curve $-1 26.953966685810826 20.885404051406418 0.65130858120313739 0 0.66913061440640931 0.74314481823134659 1 0 0 1 I I #
point $-1 27.953966685810826 23.435909326455015 3.4839315971228277 #
loop $-1 $-1 $266 $259 #
plane-surface $-1 0 -25.636752978532062 0 0 1 0 0 0 1 forward_v I I I I #
coedge $-1 $447 $448 $263 $367 forward $260 $-1 #
coedge $-1 $263 $262 $372 $449 reversed $102 $-1 #
edge $-1 $369 1.4328177948971352 $450 5.6083452348548644 $365 $451 forward 7 unknown #
coedge $-1 $269 $264 $448 $452 forward $163 $-1 #
vertex $-1 $452 $453 #
straight-curve $-1 -21.402777969887719 -23.548989314494712 5.4655801654753695 -1 0 0 I I #
coedge $-1 $454 $266 $269 $376 reversed $363 $-1 #
coedge $-1 $266 $454 $366 $449 forward $363 $-1 #
vertex $-1 $267 $455 #
straight-curve $-1 -29.06031382052808 -25.636752978532058 29.200131919861214 0 0 1 I I #
straight-curve $-1 -29.06031382052808 -25.63675297853203 1.849467295975181 0 -0.49999998660252726 -0.86602541151947299 I I #
edge $-1 $456 -56.550798059022796 $270 -29.06031382052808 $371 $457 forward 7 unknown #
point $-1 -29.06031382052808 -25.636752978532062 5.4655801654753695 #
point $-1 -29.06031382052808 -23.548989314494712 5.4655801654753695 #
edge $-1 $458 1 $458 0 $273 $-1 forward 7 unknown #
vertex $-1 $274 $459 #
ellipse-curve $-1 -51.05270121132385 -22.306217301063967 2.3373235646778112 0 -0.86602541151947299 0.49999998660252726 1 0 0 1 I I #
point $-1 -50.05270121132385 -24.592871146513406 3.657523730725281 #
edge $-1 $460 1 $460 0 $277 $-1 forward 7 unknown #
vertex $-1 $278 $461 #
ellipse-curve $-1 -42.805555939775438 -22.306217301063967 2.3373235646778112 0 -0.86602541151947299 0.49999998660252726 1 0 0 1 I I #
point $-1 -41.805555939775438 -24.592871146513406 3.657523730725281 #
edge $-1 $462 1 $462 0 $281 $-1 forward 7 unknown #
vertex $-1 $282 $463 #
ellipse-curve $-1 -34.558410668227026 -22.306217301063967 2.3373235646778112 0 -0.86602541151947299 0.49999998660252726 1 0 0 1 I I #
point $-1 -33.558410668227026 -24.592871146513406 3.657523730725281 #
plane-surface $-1 0 0 5.4655801654753695 0 0 1 1 0 0 forward_v I I I I #
coedge $-1 $464 $288 $293 $398 forward $192 $-1 #
coedge $-1 $288 $464 $395 $465 reversed $192 $-1 #
edge $-1 $396 23.734551754385844 $403 27.35066462388609 $288 $466 forward 7 unknown #
coedge $-1 $297 $291 $393 $465 forward $298 $-1 #
vertex $-1 $465 $467 #
straight-curve $-1 29.060313820528073 -61.792804650085849 5.4655801654753695 0 -1 0 I I #
edge $-1 $403 7.6575358506403575 $401 35.148020089135073 $392 $468 forward 7 unknown #
coedge $-1 $400 $294 $297 $405 reversed $286 $-1 #
coedge $-1 $294 $399 $464 $469 forward $286 $-1 #
vertex $-1 $295 $470 #
straight-curve $-1 56.550798059022796 -22.832580436242282 6.7064367859335849 0 0.49999998660252726 0.86602541151947299 I I #
vertex $-1 $398 $471 #
straight-curve $-1 29.060313820528073 -25.63675297853203 1.849467295975181 0 0.49999998660252726 0.86602541151947299 I I #
edge $-1 $472 -25.636752978532062 $299 -23.548989314494712 $399 $473 forward 7 unknown #
point $-1 56.550798059022789 -23.548989314494712 5.4655801654753695 #
point $-1 29.060313820528073 -23.548989314494712 5.4655801654753695 #
edge $-1 $474 1 $474 0 $302 $-1 forward 7 unknown #
vertex $-1 $303 $475 #
ellipse-curve $-1 34.558410668227026 -22.306217301063967 2.3373235646778112 0 -0.86602541151947299 0.49999998660252726 1 0 0 1 I I #
point $-1 35.558410668227026 -24.592871146513406 3.657523730725281 #
edge $-1 $476 1 $476 0 $306 $-1 forward 7 unknown #
vertex $-1 $307 $477 #
ellipse-curve $-1 42.805555939775431 -22.306217301063967 2.3373235646778112 0 -0.86602541151947299 0.49999998660252726 1 0 0 1 I I #
point $-1 43.805555939775431 -24.592871146513406 3.657523730725281 #
edge $-1 $478 1 $478 0 $310 $-1 forward 7 unknown #
vertex $-1 $311 $479 #
ellipse-curve $-1 51.05270121132385 -22.306217301063967 2.3373235646778112 0 -0.86602541151947299 0.49999998660252726 1 0 0 1 I I #
point $-1 52.05270121132385 -24.592871146513406 3.657523730725281 #
plane-surface $-1 56.550798059022796 0 0 -1 0 0 0 0 1 forward_v I I I I #
coedge $-1 $319 $317 $321 $425 reversed $221 $-1 #
edge $-1 $332 -5.4655801654753695 $427 5.4655801654753695 $331 $480 forward 7 unknown #
vertex $-1 $425 $481 #
straight-curve $-1 -56.550798059022796 -25.636752978532062 0 0 0 -1 I I #
edge $-1 $423 -25.636752978532062 $427 25.636752978532062 $421 $482 forward 7 unknown #
straight-curve $-1 0 -25.636752978532062 -5.4655801654753695 -1 0 0 I I #
vertex $-1 $324 $483 #
straight-curve $-1 0 25.636752978532062 -5.4655801654753695 1 0 0 I I #
point $-1 56.550798059022796 25.636752978532062 -5.4655801654753695 #
point $-1 56.550798059022796 -25.636752978532062 -5.4655801654753695 #
straight-curve $-1 -56.550798059022796 0 5.4655801654753695 0 -1 0 I I #
point $-1 -56.550798059022796 25.636752978532062 5.4655801654753695 #
point $-1 -56.550798059022796 -25.636752978532062 5.4655801654753695 #
straight-curve $-1 56.550798059022796 -25.636752978532062 0 0 0 -1 I I #
straight-curve $-1 56.550798059022796 25.636752978532062 0 0 0 -1 I I #
edge $-1 $437 54.465330165230355 $440 58.428627301935443 $342 $484 forward 7 unknown #
vertex $-1 $356 $485 #
straight-curve $-1 40.412286896512605 31.606426607399591 5.4655801654753731 0 1 0 I I #
edge $-1 $440 -26.935303553607199 $353 -0.018663132203613486 $352 $486 forward 7 unknown #
vertex $-1 $439 $487 #
straight-curve $-1 40.412286896512605 -12.466887286014227 35.810955572591283 0 -0.74314481823134659 0.66913061440640931 I I #
point $-1 40.412286896512605 21.235065674377964 5.4655801654753695 #
point $-1 13.495646475109019 25.636752978532058 1.5022830287702789 #
straight-curve $-1 0 25.636752978532062 5.4655801654753695 -1 0 0 I I #
vertex $-1 $359 $488 #
point $-1 27.953966685810826 20.885404051406418 0.65130858120313739 #
coedge $-1 $448 $365 $454 $489 reversed $260 $-1 #
coedge $-1 $365 $447 $368 $452 reversed $260 $-1 #
edge $-1 $450 -35.148020089135073 $373 -7.657535850640361 $372 $490 forward 7 unknown #
vertex $-1 $367 $491 #
straight-curve $-1 -56.550798059022796 -22.832580436242282 6.7064367859335849 0 -0.49999998660252726 -0.86602541151947299 I I #
edge $-1 $369 23.548989314494712 $456 25.636752978532062 $448 $492 forward 7 unknown #
point $-1 -56.550798059022796 -23.548989314494712 5.4655801654753695 #
coedge $-1 $372 $371 $447 $489 forward $363 $-1 #
point $-1 -29.06031382052808 -25.636752978532062 1.8494672959751257 #
vertex $-1 $452 $493 #
straight-curve $-1 0 -25.636752978532062 5.4655801654753695 1 0 0 I I #
vertex $-1 $379 $494 #
point $-1 -50.05270121132385 -22.306217301063967 2.3373235646778112 #
vertex $-1 $383 $495 #
point $-1 -41.805555939775438 -22.306217301063967 2.3373235646778112 #
vertex $-1 $387 $496 #
point $-1 -33.558410668227026 -22.306217301063967 2.3373235646778112 #
coedge $-1 $393 $392 $400 $469 reversed $192 $-1 #
edge $-1 $396 29.060313820528073 $472 56.550798059022796 $393 $497 forward 7 unknown #
straight-curve $-1 29.060313820528073 -25.636752978532058 29.200131919861214 0 0 -1 I I #
point $-1 29.060313820528073 -25.636752978532062 5.4655801654753695 #
straight-curve $-1 21.402777969887715 -25.636752978532062 1.8494672959751224 1 0 0 I I #
edge $-1 $472 -5.4655801654753695 $401 -1.8494672959751257 $400 $498 forward 7 unknown #
point $-1 56.550798059022789 -25.636752978532062 1.8494672959751257 #
point $-1 29.060313820528073 -25.636752978532062 1.8494672959751257 #
vertex $-1 $405 $499 #
straight-curve $-1 56.550798059022796 0 5.4655801654753695 0 1 0 I I #
vertex $-1 $408 $500 #
point $-1 35.558410668227026 -22.306217301063967 2.3373235646778112 #
vertex $-1 $412 $501 #
point $-1 43.805555939775431 -22.306217301063967 2.3373235646778112 #
vertex $-1 $416 $502 #
point $-1 52.05270121132385 -22.306217301063967 2.3373235646778112 #
straight-curve $-1 -56.550798059022796 25.636752978532062 0 0 0 -1 I I #
point $-1 -56.550798059022796 -25.636752978532062 -5.4655801654753695 #
straight-curve $-1 -56.550798059022796 0 -5.4655801654753695 0 1 0 I I #
point $-1 -56.550798059022796 25.636752978532062 -5.4655801654753695 #
straight-curve $-1 40.412286896512605 25.636752978532062 59.930910330705721 0 0 -1 I I #
point $-1 40.412286896512605 25.636752978532062 5.4655801654753695 #
straight-curve $-1 13.476983342905406 25.636752978532058 1.5022830287702824 -1 0 0 I I #
point $-1 40.412286896512605 25.636752978532058 1.5022830287702789 #
point $-1 26.953966685810826 20.216273437000012 -0.091836237028209255 #
edge $-1 $456 -5.4655801654753695 $450 -1.8494672959751257 $447 $503 forward 7 unknown #
straight-curve $-1 -21.402777969887719 -25.636752978532062 1.8494672959751224 1 0 0 I I #
point $-1 -56.550798059022796 -25.636752978532062 1.8494672959751257 #
straight-curve $-1 -56.550798059022796 0 5.4655801654753695 0 -1 0 I I #
point $-1 -56.550798059022796 -25.636752978532062 5.4655801654753695 #
point $-1 -51.05270121132385 -21.440191889544494 1.8373235780752837 #
point $-1 -42.805555939775438 -21.440191889544494 1.8373235780752837 #
point $-1 -34.558410668227026 -21.440191889544494 1.8373235780752837 #
straight-curve $-1 0 -25.636752978532062 5.4655801654753695 1 0 0 I I #
straight-curve $-1 56.550798059022796 -25.636752978532062 0 0 0 -1 I I #
point $-1 56.550798059022796 -25.636752978532062 5.4655801654753695 #
point $-1 34.558410668227026 -21.440191889544494 1.8373235780752837 #
point $-1 42.805555939775431 -21.440191889544494 1.8373235780752837 #
point $-1 51.05270121132385 -21.440191889544494 1.8373235780752837 #
straight-curve $-1 -56.550798059022796 -25.636752978532062 0 0 0 -1 I I #
End-of-ACIS-data 