500 0 10 0           
7 Unknown 11 ACIS 5.0 NT 24 Fri Mar 26 14:27:37 1999 
-1 9.9999999999999995e-007 1e-010 
body $-1 $10 $-1 $11 #
body $-1 $12 $-1 $13 #
body $-1 $14 $-1 $15 #
body $-1 $16 $-1 $17 #
body $-1 $18 $-1 $19 #
body $-1 $20 $-1 $21 #
body $-1 $22 $-1 $23 #
body $-1 $24 $-1 $25 #
body $-1 $26 $-1 $27 #
body $-1 $28 $-1 $29 #
lump $-1 $-1 $30 $0 #
transform $-1 1 0 0 0 1 0 0 0 1 58.420972319711908 24.698091407698023 11.103550960903968 1 rotate no_reflect no_shear #
lump $-1 $-1 $31 $1 #
transform $-1 1 0 0 0 1 0 0 0 1 58.420972319711908 24.698091407698023 11.103550960903968 1 rotate no_reflect no_shear #
lump $-1 $-1 $32 $2 #
transform $-1 1 0 0 0 1 0 0 0 1 58.420972319711908 24.698091407698023 11.103550960903968 1 rotate no_reflect no_shear #
lump $-1 $-1 $33 $3 #
transform $-1 1 0 0 0 1 0 0 0 1 58.420972319711908 24.698091407698023 11.103550960903968 1 rotate no_reflect no_shear #
lump $-1 $-1 $34 $4 #
transform $-1 1 0 0 0 1 0 0 0 1 58.420972319711908 24.698091407698023 11.103550960903968 1 rotate no_reflect no_shear #
lump $-1 $-1 $35 $5 #
transform $-1 1 0 0 0 1 0 0 0 1 58.420972319711908 24.698091407698023 11.103550960903968 1 rotate no_reflect no_shear #
lump $-1 $-1 $36 $6 #
transform $-1 1 0 0 0 1 0 0 0 1 58.420972319711908 24.698091407698023 11.103550960903968 1 rotate no_reflect no_shear #
lump $-1 $-1 $37 $7 #
transform $-1 1 0 0 0 1 0 0 0 1 58.420972319711908 24.698091407698023 11.103550960903968 1 rotate no_reflect no_shear #
lump $-1 $-1 $38 $8 #
transform $-1 1 0 0 0 1 0 0 0 1 58.420972319711908 24.698091407698023 11.103550960903968 1 rotate no_reflect no_shear #
lump $-1 $-1 $39 $9 #
transform $-1 1 0 0 0 1 0 0 0 1 58.420972319711908 24.698091407698023 11.103550960903968 1 rotate no_reflect no_shear #
shell $-1 $-1 $-1 $40 $-1 $10 #
shell $-1 $-1 $-1 $41 $-1 $12 #
shell $-1 $-1 $-1 $42 $-1 $14 #
shell $-1 $-1 $-1 $43 $-1 $16 #
shell $-1 $-1 $-1 $44 $-1 $18 #
shell $-1 $-1 $-1 $45 $-1 $20 #
shell $-1 $-1 $-1 $46 $-1 $22 #
shell $-1 $-1 $-1 $47 $-1 $24 #
shell $-1 $-1 $-1 $48 $-1 $26 #
shell $-1 $-1 $-1 $49 $-1 $28 #
face $-1 $50 $51 $30 $-1 $52 reversed single #
face $-1 $53 $54 $31 $-1 $55 forward single #
face $-1 $56 $57 $32 $-1 $58 reversed single #
face $-1 $59 $60 $33 $-1 $61 forward single #
face $-1 $62 $63 $34 $-1 $64 forward single #
face $-1 $65 $66 $35 $-1 $67 forward single #
face $-1 $68 $69 $36 $-1 $70 reversed single #
face $-1 $71 $72 $37 $-1 $73 forward single #
face $-1 $74 $75 $38 $-1 $76 forward single #
face $-1 $77 $78 $39 $-1 $79 forward single #
face $-1 $80 $81 $30 $-1 $82 forward single #
loop $-1 $-1 $83 $40 #
plane-surface $-1 0 -24.698091407698023 0 0 1 0 0 0 1 forward_v I I I I #
face $-1 $84 $85 $31 $-1 $86 reversed single #
loop $-1 $-1 $87 $41 #
plane-surface $-1 0 -24.698091407698023 0 0 1 0 0 0 1 forward_v I I I I #
face $-1 $88 $89 $32 $-1 $90 reversed single #
loop $-1 $-1 $91 $42 #
plane-surface $-1 -52.308355762737932 66.172096313045472 121.05225749468003 1 0 0 0 -0.66913061440640931 -0.74314481823134659 forward_v I I I I #
face $-1 $92 $93 $33 $-1 $94 forward single #
loop $-1 $95 $96 $43 #
cone-surface $-1 -49.252108247524347 18.005303528222335 4.8300858563261793 0 -0.66913061440640931 -0.74314481823134659 1 0 0 1 I I 0 1 1 forward I I I I #
face $-1 $97 $98 $34 $-1 $99 forward single #
loop $-1 $100 $101 $44 #
cone-surface $-1 -44.667736974703956 18.005303528222335 4.8300858563261793 0 -0.66913061440640931 -0.74314481823134659 1 0 0 1 I I 0 1 1 forward I I I I #
face $-1 $102 $103 $35 $-1 $104 forward single #
loop $-1 $105 $106 $45 #
cone-surface $-1 -40.083365701883572 18.005303528222335 4.8300858563261793 0 -0.66913061440640931 -0.74314481823134659 1 0 0 1 I I 0 1 1 forward I I I I #
face $-1 $107 $108 $36 $-1 $109 reversed single #
loop $-1 $-1 $110 $46 #
plane-surface $-1 37.027118186669995 66.172096313045472 121.05225749468003 1 0 0 0 -0.66913061440640931 -0.74314481823134659 forward_v I I I I #
face $-1 $111 $112 $37 $-1 $113 forward single #
loop $-1 $114 $115 $47 #
cone-surface $-1 40.083365701883579 18.005303528222335 4.8300858563261793 0 -0.66913061440640931 -0.74314481823134659 1 0 0 1 I I 0 1 1 forward I I I I #
face $-1 $116 $117 $38 $-1 $118 forward single #
loop $-1 $119 $120 $48 #
cone-surface $-1 44.667736974703971 18.005303528222335 4.8300858563261793 0 -0.66913061440640931 -0.74314481823134659 1 0 0 1 I I 0 1 1 forward I I I I #
face $-1 $121 $122 $39 $-1 $123 forward single #
loop $-1 $124 $125 $49 #
cone-surface $-1 49.252108247524362 18.005303528222335 4.8300858563261793 0 -0.66913061440640931 -0.74314481823134659 1 0 0 1 I I 0 1 1 forward I I I I #
face $-1 $126 $127 $30 $-1 $128 reversed single #
loop $-1 $-1 $129 $50 #
plane-surface $-1 0 0 11.103550960903968 0 0 1 1 0 0 forward_v I I I I #
coedge $-1 $130 $131 $132 $133 reversed $51 $-1 #
face $-1 $134 $135 $31 $-1 $136 reversed single #
loop $-1 $-1 $137 $53 #
plane-surface $-1 0 0 -11.103550960903968 0 0 1 1 0 0 forward_v I I I I #
coedge $-1 $138 $139 $140 $141 forward $54 $-1 #
face $-1 $142 $143 $32 $-1 $144 reversed single #
loop $-1 $-1 $145 $56 #
plane-surface $-1 -44.667736974703956 -12.010425891971849 34.221771783818369 0 0.66913061440640931 0.74314481823134659 1 0 0 forward_v I I I I #
coedge $-1 $146 $147 $148 $149 reversed $57 $-1 #
face $-1 $-1 $150 $33 $-1 $151 forward single #
loop $-1 $152 $153 $59 #
cone-surface $-1 -49.252108247524347 16.494516587693077 3.1521870094741455 0 -0.66913061440640931 -0.74314481823134659 0.5 0 0 1 I I -0.70710678118654746 0.70710678118654746 0.5 forward I I I I #
loop $-1 $-1 $154 $43 #
coedge $-1 $96 $96 $155 $156 reversed $60 $-1 #
face $-1 $-1 $157 $34 $-1 $158 forward single #
loop $-1 $159 $160 $62 #
cone-surface $-1 -44.667736974703956 16.494516587693077 3.1521870094741455 0 -0.66913061440640931 -0.74314481823134659 0.5 0 0 1 I I -0.70710678118654746 0.70710678118654746 0.5 forward I I I I #
loop $-1 $-1 $161 $44 #
coedge $-1 $101 $101 $162 $163 reversed $63 $-1 #
face $-1 $-1 $164 $35 $-1 $165 forward single #
loop $-1 $166 $167 $65 #
cone-surface $-1 -40.083365701883572 16.494516587693077 3.1521870094741455 0 -0.66913061440640931 -0.74314481823134659 0.5 0 0 1 I I -0.70710678118654746 0.70710678118654746 0.5 forward I I I I #
loop $-1 $-1 $168 $45 #
coedge $-1 $106 $106 $169 $170 reversed $66 $-1 #
face $-1 $171 $172 $36 $-1 $173 reversed single #
loop $-1 $-1 $174 $68 #
plane-surface $-1 44.667736974703971 -12.010425891971849 34.221771783818369 0 0.66913061440640931 0.74314481823134659 1 0 0 forward_v I I I I #
coedge $-1 $175 $176 $177 $178 reversed $69 $-1 #
face $-1 $-1 $179 $37 $-1 $180 forward single #
loop $-1 $181 $182 $71 #
cone-surface $-1 40.083365701883579 16.494516587693077 3.1521870094741455 0 -0.66913061440640931 -0.74314481823134659 0.5 0 0 1 I I -0.70710678118654746 0.70710678118654746 0.5 forward I I I I #
loop $-1 $-1 $183 $47 #
coedge $-1 $115 $115 $184 $185 reversed $72 $-1 #
face $-1 $-1 $186 $38 $-1 $187 forward single #
loop $-1 $188 $189 $74 #
cone-surface $-1 44.667736974703971 16.494516587693077 3.1521870094741455 0 -0.66913061440640931 -0.74314481823134659 0.5 0 0 1 I I -0.70710678118654746 0.70710678118654746 0.5 forward I I I I #
loop $-1 $-1 $190 $48 #
coedge $-1 $120 $120 $191 $192 reversed $75 $-1 #
face $-1 $-1 $193 $39 $-1 $194 forward single #
loop $-1 $195 $196 $77 #
cone-surface $-1 49.252108247524362 16.494516587693077 3.1521870094741455 0 -0.66913061440640931 -0.74314481823134659 0.5 0 0 1 I I -0.70710678118654746 0.70710678118654746 0.5 forward I I I I #
loop $-1 $-1 $197 $49 #
coedge $-1 $125 $125 $198 $199 reversed $78 $-1 #
face $-1 $200 $201 $30 $-1 $202 reversed single #
loop $-1 $-1 $203 $80 #
plane-surface $-1 0 0 -11.103550960903968 0 0 1 1 0 0 forward_v I I I I #
coedge $-1 $204 $205 $206 $207 forward $81 $-1 #
coedge $-1 $208 $83 $209 $210 reversed $51 $-1 #
coedge $-1 $83 $208 $211 $212 forward $51 $-1 #
coedge $-1 $213 $203 $83 $133 forward $127 $-1 #
edge $-1 $214 -58.420972319711908 $215 58.420972319711908 $83 $216 forward 7 unknown #
face $-1 $217 $218 $31 $-1 $219 reversed single #
loop $-1 $-1 $220 $84 #
plane-surface $-1 -38.921629566069974 -38.902110823812627 0 0 1 0 0 0 1 forward_v I I I I #
coedge $-1 $221 $222 $139 $223 forward $85 $-1 #
coedge $-1 $224 $87 $225 $226 reversed $54 $-1 #
coedge $-1 $87 $224 $137 $223 reversed $54 $-1 #
coedge $-1 $227 $228 $87 $141 reversed $218 $-1 #
edge $-1 $229 -11.103550960903968 $230 11.103550960903968 $140 $231 forward 7 unknown #
face $-1 $232 $233 $32 $-1 $234 forward single #
loop $-1 $-1 $235 $88 #
plane-surface $-1 -37.027118186669981 66.172096313045472 121.05225749468003 -1 0 0 0 0.66913061440640931 0.74314481823134659 forward_v I I I I #
coedge $-1 $236 $237 $238 $239 reversed $89 $-1 #
coedge $-1 $147 $91 $240 $241 reversed $57 $-1 #
coedge $-1 $91 $146 $236 $242 reversed $57 $-1 #
coedge $-1 $238 $243 $91 $149 forward $233 $-1 #
edge $-1 $244 8.3879567488247133 $245 19.421089241124015 $148 $246 forward 7 unknown #
loop $-1 $-1 $155 $92 #
plane-surface $-1 -44.667736974703956 -12.010425891971849 34.221771783818369 0 0.66913061440640931 0.74314481823134659 1 0 0 forward_v I I I I #
loop $-1 $-1 $247 $59 #
coedge $-1 $153 $153 $154 $248 reversed $93 $-1 #
coedge $-1 $154 $154 $153 $248 forward $95 $-1 #
coedge $-1 $155 $155 $96 $156 forward $150 $-1 #
edge $-1 $249 -9.9406829196622665e-016 $249 6.2831853071795996 $155 $250 forward 7 unknown #
loop $-1 $-1 $162 $97 #
plane-surface $-1 -44.667736974703956 -12.010425891971849 34.221771783818369 0 0.66913061440640931 0.74314481823134659 1 0 0 forward_v I I I I #
loop $-1 $-1 $251 $62 #
coedge $-1 $160 $160 $161 $252 reversed $98 $-1 #
coedge $-1 $161 $161 $160 $252 forward $100 $-1 #
coedge $-1 $162 $162 $101 $163 forward $157 $-1 #
edge $-1 $253 -9.9406829196622665e-016 $253 6.2831853071795996 $162 $254 forward 7 unknown #
loop $-1 $-1 $169 $102 #
plane-surface $-1 -44.667736974703956 -12.010425891971849 34.221771783818369 0 0.66913061440640931 0.74314481823134659 1 0 0 forward_v I I I I #
loop $-1 $-1 $255 $65 #
coedge $-1 $167 $167 $168 $256 reversed $103 $-1 #
coedge $-1 $168 $168 $167 $256 forward $105 $-1 #
coedge $-1 $169 $169 $106 $170 forward $164 $-1 #
edge $-1 $257 -9.9406829196622665e-016 $257 6.2831853071795996 $169 $258 forward 7 unknown #
face $-1 $259 $260 $36 $-1 $261 forward single #
loop $-1 $-1 $262 $107 #
plane-surface $-1 52.308355762737946 66.172096313045472 121.05225749468003 -1 0 0 0 0.66913061440640931 0.74314481823134659 forward_v I I I I #
coedge $-1 $263 $264 $265 $266 reversed $108 $-1 #
coedge $-1 $176 $110 $267 $268 reversed $69 $-1 #
coedge $-1 $110 $175 $263 $269 reversed $69 $-1 #
coedge $-1 $265 $270 $110 $178 forward $260 $-1 #
edge $-1 $271 8.3879567488247133 $272 19.421089241124015 $177 $273 forward 7 unknown #
loop $-1 $-1 $184 $111 #
plane-surface $-1 44.667736974703971 -12.010425891971849 34.221771783818369 0 0.66913061440640931 0.74314481823134659 1 0 0 forward_v I I I I #
loop $-1 $-1 $274 $71 #
coedge $-1 $182 $182 $183 $275 reversed $112 $-1 #
coedge $-1 $183 $183 $182 $275 forward $114 $-1 #
coedge $-1 $184 $184 $115 $185 forward $179 $-1 #
edge $-1 $276 -9.9406829196622665e-016 $276 6.2831853071795996 $184 $277 forward 7 unknown #
loop $-1 $-1 $191 $116 #
plane-surface $-1 44.667736974703971 -12.010425891971849 34.221771783818369 0 0.66913061440640931 0.74314481823134659 1 0 0 forward_v I I I I #
loop $-1 $-1 $278 $74 #
coedge $-1 $189 $189 $190 $279 reversed $117 $-1 #
coedge $-1 $190 $190 $189 $279 forward $119 $-1 #
coedge $-1 $191 $191 $120 $192 forward $186 $-1 #
edge $-1 $280 -9.9406829196622665e-016 $280 6.2831853071795996 $191 $281 forward 7 unknown #
loop $-1 $-1 $198 $121 #
plane-surface $-1 44.667736974703971 -12.010425891971849 34.221771783818369 0 0.66913061440640931 0.74314481823134659 1 0 0 forward_v I I I I #
loop $-1 $-1 $282 $77 #
coedge $-1 $196 $196 $197 $283 reversed $122 $-1 #
coedge $-1 $197 $197 $196 $283 forward $124 $-1 #
coedge $-1 $198 $198 $125 $199 forward $193 $-1 #
edge $-1 $284 -9.9406829196622665e-016 $284 6.2831853071795996 $198 $285 forward 7 unknown #
face $-1 $286 $287 $30 $-1 $288 reversed single #
loop $-1 $-1 $289 $126 #
plane-surface $-1 -58.420972319711908 0 0 1 0 0 0 0 -1 forward_v I I I I #
coedge $-1 $132 $290 $291 $292 forward $127 $-1 #
coedge $-1 $293 $129 $294 $295 forward $81 $-1 #
coedge $-1 $129 $293 $208 $296 forward $81 $-1 #
coedge $-1 $209 $297 $129 $207 reversed $298 $-1 #
edge $-1 $299 -24.698091407698023 $300 24.698091407698023 $206 $301 forward 7 unknown #
coedge $-1 $131 $130 $205 $296 reversed $51 $-1 #
coedge $-1 $291 $206 $130 $210 forward $298 $-1 #
edge $-1 $299 -11.103550960903968 $214 11.103550960903968 $209 $302 forward 7 unknown #
coedge $-1 $303 $304 $131 $212 reversed $201 $-1 #
edge $-1 $305 -11.103550960903968 $215 11.103550960903968 $211 $306 forward 7 unknown #
coedge $-1 $290 $132 $304 $307 forward $127 $-1 #
vertex $-1 $210 $308 #
vertex $-1 $307 $309 #
straight-curve $-1 0 -24.698091407698023 -11.103550960903968 -1 0 0 I I #
face $-1 $310 $311 $31 $-1 $312 reversed single #
loop $-1 $-1 $140 $134 #
plane-surface $-1 -41.629388734235974 -31.800101115755325 0 1 0 0 0 0 -1 forward_v I I I I #
coedge $-1 $313 $314 $315 $316 forward $135 $-1 #
coedge $-1 $317 $137 $318 $319 forward $85 $-1 #
coedge $-1 $137 $317 $227 $320 forward $85 $-1 #
edge $-1 $229 -41.629388734235974 $321 -36.213870397903975 $137 $322 forward 7 unknown #
coedge $-1 $139 $138 $323 $324 forward $54 $-1 #
coedge $-1 $325 $326 $138 $226 forward $327 $-1 #
edge $-1 $328 36.213870397903975 $230 41.629388734235974 $225 $329 forward 7 unknown #
coedge $-1 $315 $140 $222 $320 reversed $218 $-1 #
coedge $-1 $140 $315 $325 $330 reversed $218 $-1 #
vertex $-1 $223 $331 #
vertex $-1 $330 $332 #
straight-curve $-1 -41.629388734235974 -24.698091407698023 0 0 0 1 I I #
face $-1 $-1 $333 $32 $-1 $334 reversed single #
loop $-1 $-1 $148 $142 #
plane-surface $-1 0 0 11.103550960903968 0 0 1 1 0 0 forward_v I I I I #
coedge $-1 $335 $336 $337 $338 reversed $143 $-1 #
coedge $-1 $339 $145 $147 $242 forward $89 $-1 #
coedge $-1 $145 $339 $335 $340 forward $89 $-1 #
coedge $-1 $337 $148 $145 $239 forward $233 $-1 #
edge $-1 $245 -29.974487275385954 $341 -14.693249699318002 $238 $342 forward 7 unknown #
coedge $-1 $343 $344 $146 $241 forward $333 $-1 #
edge $-1 $345 -59.356855120118929 $244 -49.422577786436051 $240 $346 forward 7 unknown #
edge $-1 $245 34.549638478913039 $345 49.39618281539606 $147 $347 forward 7 unknown #
coedge $-1 $148 $337 $343 $348 forward $233 $-1 #
vertex $-1 $241 $349 #
vertex $-1 $149 $350 #
straight-curve $-1 -52.308355762737932 33.086048156522736 11.103550960903966 0 -1 0 I I #
coedge $-1 $247 $247 $-1 $351 reversed $152 $-1 #
edge $-1 $352 0 $352 6.2831853071796004 $153 $353 forward 7 unknown #
vertex $-1 $156 $354 #
ellipse-curve $-1 -49.252108247524347 19.181525161548375 6.1364122940625263 0 0.66913061440640931 0.74314481823134659 1 0 0 1 I I #
coedge $-1 $251 $251 $-1 $355 reversed $159 $-1 #
edge $-1 $356 0 $356 6.2831853071796004 $160 $357 forward 7 unknown #
vertex $-1 $163 $358 #
ellipse-curve $-1 -44.667736974703956 19.181525161548375 6.1364122940625263 0 0.66913061440640931 0.74314481823134659 1 0 0 1 I I #
coedge $-1 $255 $255 $-1 $359 reversed $166 $-1 #
edge $-1 $360 0 $360 6.2831853071796004 $167 $361 forward 7 unknown #
vertex $-1 $170 $362 #
ellipse-curve $-1 -40.083365701883572 19.181525161548375 6.1364122940625263 0 0.66913061440640931 0.74314481823134659 1 0 0 1 I I #
face $-1 $-1 $363 $36 $-1 $364 reversed single #
loop $-1 $-1 $177 $171 #
plane-surface $-1 0 0 11.103550960903968 0 0 1 1 0 0 forward_v I I I I #
coedge $-1 $365 $366 $367 $368 reversed $172 $-1 #
coedge $-1 $369 $174 $176 $269 forward $108 $-1 #
coedge $-1 $174 $369 $365 $370 forward $108 $-1 #
coedge $-1 $367 $177 $174 $266 forward $260 $-1 #
edge $-1 $272 14.69324969931801 $371 29.974487275385961 $265 $372 forward 7 unknown #
coedge $-1 $373 $374 $175 $268 forward $363 $-1 #
edge $-1 $375 -59.356855120118929 $271 -49.422577786436051 $267 $376 forward 7 unknown #
edge $-1 $272 34.549638478913039 $375 49.39618281539606 $176 $377 forward 7 unknown #
coedge $-1 $177 $367 $373 $378 forward $260 $-1 #
vertex $-1 $178 $379 #
vertex $-1 $178 $380 #
straight-curve $-1 37.027118186669995 33.086048156522736 11.103550960903966 0 -1 0 I I #
coedge $-1 $274 $274 $-1 $381 reversed $181 $-1 #
edge $-1 $382 0 $382 6.2831853071796004 $182 $383 forward 7 unknown #
vertex $-1 $185 $384 #
ellipse-curve $-1 40.083365701883579 19.181525161548375 6.1364122940625263 0 0.66913061440640931 0.74314481823134659 1 0 0 1 I I #
coedge $-1 $278 $278 $-1 $385 reversed $188 $-1 #
edge $-1 $386 0 $386 6.2831853071796004 $189 $387 forward 7 unknown #
vertex $-1 $192 $388 #
ellipse-curve $-1 44.667736974703971 19.181525161548375 6.1364122940625263 0 0.66913061440640931 0.74314481823134659 1 0 0 1 I I #
coedge $-1 $282 $282 $-1 $389 reversed $195 $-1 #
edge $-1 $390 0 $390 6.2831853071796004 $196 $391 forward 7 unknown #
vertex $-1 $199 $392 #
ellipse-curve $-1 49.252108247524362 19.181525161548375 6.1364122940625263 0 0.66913061440640931 0.74314481823134659 1 0 0 1 I I #
face $-1 $-1 $298 $30 $-1 $393 reversed single #
loop $-1 $-1 $394 $200 #
plane-surface $-1 0 24.698091407698023 0 0 -1 0 0 0 -1 forward_v I I I I #
coedge $-1 $304 $303 $395 $396 forward $201 $-1 #
coedge $-1 $203 $213 $397 $398 forward $127 $-1 #
coedge $-1 $297 $209 $203 $292 reversed $298 $-1 #
edge $-1 $399 -24.698091407698023 $214 24.698091407698023 $291 $400 forward 7 unknown #
coedge $-1 $205 $204 $303 $401 forward $81 $-1 #
coedge $-1 $394 $395 $204 $295 reversed $287 $-1 #
edge $-1 $300 -58.420972319711908 $402 58.420972319711908 $294 $403 forward 7 unknown #
edge $-1 $305 -58.420972319711908 $299 58.420972319711908 $208 $404 forward 7 unknown #
coedge $-1 $206 $291 $394 $405 reversed $298 $-1 #
loop $-1 $-1 $209 $286 #
vertex $-1 $207 $406 #
vertex $-1 $207 $407 #
straight-curve $-1 58.420972319711908 0 11.103550960903968 0 1 0 I I #
straight-curve $-1 58.420972319711908 -24.698091407698023 0 0 0 -1 I I #
coedge $-1 $289 $211 $293 $401 reversed $201 $-1 #
coedge $-1 $211 $289 $213 $307 reversed $201 $-1 #
vertex $-1 $401 $408 #
straight-curve $-1 -58.420972319711908 -24.698091407698023 0 0 0 -1 I I #
edge $-1 $215 -24.698091407698023 $409 24.698091407698023 $304 $410 forward 7 unknown #
point $-1 58.420972319711908 -24.698091407698023 -11.103550960903968 #
point $-1 -58.420972319711908 -24.698091407698023 -11.103550960903968 #
face $-1 $-1 $327 $31 $-1 $411 forward single #
loop $-1 $-1 $412 $217 #
plane-surface $-1 -36.213870397903975 -31.800101115755325 0 -1 0 0 0 0 1 forward_v I I I I #
coedge $-1 $413 $220 $317 $414 reversed $135 $-1 #
coedge $-1 $220 $413 $415 $416 reversed $135 $-1 #
coedge $-1 $228 $227 $220 $316 reversed $218 $-1 #
edge $-1 $417 -11.103550960903968 $418 11.103550960903968 $315 $419 forward 7 unknown #
coedge $-1 $222 $221 $313 $414 forward $85 $-1 #
coedge $-1 $323 $412 $221 $319 reversed $311 $-1 #
edge $-1 $321 -7.1020097080573024 $420 7.1020097080573024 $318 $421 forward 7 unknown #
edge $-1 $418 -7.1020097080573024 $229 7.1020097080573024 $227 $422 forward 7 unknown #
vertex $-1 $319 $423 #
straight-curve $-1 0 -24.698091407698023 -11.103550960903968 1 0 0 I I #
coedge $-1 $424 $318 $224 $324 reversed $311 $-1 #
edge $-1 $328 -11.103550960903968 $321 11.103550960903968 $323 $425 forward 7 unknown #
coedge $-1 $415 $225 $228 $330 forward $327 $-1 #
coedge $-1 $225 $415 $424 $426 forward $327 $-1 #
loop $-1 $-1 $225 $310 #
vertex $-1 $226 $427 #
straight-curve $-1 0 -24.698091407698023 11.103550960903968 -1 0 0 I I #
edge $-1 $230 -7.1020097080573024 $417 7.1020097080573024 $228 $428 forward 7 unknown #
point $-1 -41.629388734235974 -24.698091407698023 -11.103550960903968 #
point $-1 -41.629388734235974 -24.698091407698023 11.103550960903968 #
loop $-1 $-1 $240 $232 #
plane-surface $-1 0 24.698091407698023 0 0 -1 0 0 0 -1 forward_v I I I I #
coedge $-1 $336 $235 $237 $340 reversed $143 $-1 #
coedge $-1 $235 $335 $429 $430 reversed $143 $-1 #
coedge $-1 $243 $238 $235 $338 forward $233 $-1 #
edge $-1 $341 -19.421089241124015 $431 -8.3879567488247133 $337 $432 forward 7 unknown #
coedge $-1 $237 $236 $344 $433 reversed $89 $-1 #
edge $-1 $434 -49.39618281539606 $341 -34.549638478913039 $335 $435 forward 7 unknown #
vertex $-1 $239 $436 #
straight-curve $-1 -22.333868487351978 13.664958915398721 11.103550960903965 1 0 0 I I #
coedge $-1 $429 $240 $243 $348 reversed $333 $-1 #
coedge $-1 $240 $429 $339 $433 forward $333 $-1 #
vertex $-1 $241 $437 #
straight-curve $-1 -52.308355762737932 24.698091407698023 60.526128747340017 0 0 1 I I #
straight-curve $-1 -52.308355762737932 -12.010425891971849 34.221771783818369 0 0.74314481823134659 -0.66913061440640931 I I #
edge $-1 $431 37.027118186669981 $244 52.308355762737932 $343 $438 forward 7 unknown #
point $-1 -52.308355762737932 24.698091407698023 11.103550960903968 #
point $-1 -52.308355762737932 13.664958915398721 11.103550960903966 #
edge $-1 $439 1 $439 0 $247 $-1 forward 7 unknown #
vertex $-1 $248 $440 #
ellipse-curve $-1 -49.252108247524347 16.829081894896284 3.5237594185898189 0 0.66913061440640931 0.74314481823134659 1 0 0 1 I I #
point $-1 -48.252108247524347 19.181525161548386 6.1364122940625396 #
edge $-1 $441 1 $441 0 $251 $-1 forward 7 unknown #
vertex $-1 $252 $442 #
ellipse-curve $-1 -44.667736974703956 16.829081894896284 3.5237594185898189 0 0.66913061440640931 0.74314481823134659 1 0 0 1 I I #
point $-1 -43.667736974703956 19.181525161548386 6.1364122940625396 #
edge $-1 $443 1 $443 0 $255 $-1 forward 7 unknown #
vertex $-1 $256 $444 #
ellipse-curve $-1 -40.083365701883572 16.829081894896284 3.5237594185898189 0 0.66913061440640931 0.74314481823134659 1 0 0 1 I I #
point $-1 -39.083365701883572 19.181525161548386 6.1364122940625396 #
loop $-1 $-1 $267 $259 #
plane-surface $-1 0 24.698091407698023 0 0 -1 0 0 0 -1 forward_v I I I I #
coedge $-1 $366 $262 $264 $370 reversed $172 $-1 #
coedge $-1 $262 $365 $445 $446 reversed $172 $-1 #
coedge $-1 $270 $265 $262 $368 forward $260 $-1 #
edge $-1 $371 -19.421089241124015 $447 -8.3879567488247133 $367 $448 forward 7 unknown #
coedge $-1 $264 $263 $374 $449 reversed $108 $-1 #
edge $-1 $450 -49.39618281539606 $371 -34.549638478913039 $365 $451 forward 7 unknown #
vertex $-1 $266 $452 #
straight-curve $-1 22.333868487351985 13.664958915398721 11.103550960903965 1 0 0 I I #
coedge $-1 $445 $267 $270 $378 reversed $363 $-1 #
coedge $-1 $267 $445 $369 $449 forward $363 $-1 #
vertex $-1 $268 $453 #
straight-curve $-1 37.027118186669995 24.698091407698023 60.526128747340017 0 0 1 I I #
straight-curve $-1 37.027118186669995 -12.010425891971849 34.221771783818369 0 0.74314481823134659 -0.66913061440640931 I I #
edge $-1 $447 -52.308355762737946 $271 -37.027118186669995 $373 $454 forward 7 unknown #
point $-1 37.027118186669995 24.698091407698023 11.103550960903968 #
point $-1 37.027118186669995 13.664958915398721 11.103550960903966 #
edge $-1 $455 1 $455 0 $274 $-1 forward 7 unknown #
vertex $-1 $275 $456 #
ellipse-curve $-1 40.083365701883579 16.829081894896284 3.5237594185898189 0 0.66913061440640931 0.74314481823134659 1 0 0 1 I I #
point $-1 41.083365701883579 19.181525161548386 6.1364122940625396 #
edge $-1 $457 1 $457 0 $278 $-1 forward 7 unknown #
vertex $-1 $279 $458 #
ellipse-curve $-1 44.667736974703971 16.829081894896284 3.5237594185898189 0 0.66913061440640931 0.74314481823134659 1 0 0 1 I I #
point $-1 45.667736974703971 19.181525161548386 6.1364122940625396 #
edge $-1 $459 1 $459 0 $282 $-1 forward 7 unknown #
vertex $-1 $283 $460 #
ellipse-curve $-1 49.252108247524362 16.829081894896284 3.5237594185898189 0 0.66913061440640931 0.74314481823134659 1 0 0 1 I I #
point $-1 50.252108247524362 19.181525161548386 6.1364122940625396 #
plane-surface $-1 58.420972319711908 0 0 -1 0 0 0 0 1 forward_v I I I I #
coedge $-1 $397 $294 $297 $405 forward $287 $-1 #
coedge $-1 $294 $397 $289 $396 reversed $287 $-1 #
edge $-1 $402 -11.103550960903968 $409 11.103550960903968 $395 $461 forward 7 unknown #
coedge $-1 $395 $394 $290 $398 reversed $287 $-1 #
edge $-1 $409 -58.420972319711908 $399 58.420972319711908 $397 $462 forward 7 unknown #
vertex $-1 $292 $463 #
straight-curve $-1 58.420972319711908 0 -11.103550960903968 0 -1 0 I I #
edge $-1 $402 -24.698091407698023 $305 24.698091407698023 $303 $464 forward 7 unknown #
vertex $-1 $295 $465 #
straight-curve $-1 0 24.698091407698023 11.103550960903968 -1 0 0 I I #
straight-curve $-1 0 -24.698091407698023 11.103550960903968 1 0 0 I I #
edge $-1 $300 -11.103550960903968 $399 11.103550960903968 $297 $466 forward 7 unknown #
point $-1 58.420972319711908 -24.698091407698023 11.103550960903968 #
point $-1 58.420972319711908 24.698091407698023 11.103550960903968 #
point $-1 -58.420972319711908 -24.698091407698023 11.103550960903968 #
vertex $-1 $398 $467 #
straight-curve $-1 -58.420972319711908 0 -11.103550960903968 0 1 0 I I #
plane-surface $-1 0 0 11.103550960903968 0 0 1 1 0 0 forward_v I I I I #
coedge $-1 $318 $424 $413 $468 forward $311 $-1 #
coedge $-1 $314 $313 $412 $468 reversed $135 $-1 #
edge $-1 $420 -2.7077591681659996 $418 2.7077591681659996 $313 $469 forward 7 unknown #
coedge $-1 $326 $325 $314 $416 forward $327 $-1 #
edge $-1 $417 -2.7077591681659996 $470 2.7077591681659996 $314 $471 forward 7 unknown #
vertex $-1 $330 $472 #
vertex $-1 $320 $473 #
straight-curve $-1 -41.629388734235974 -38.902110823812627 0 0 0 -1 I I #
vertex $-1 $468 $474 #
straight-curve $-1 -36.213870397903975 -31.800101115755325 -11.103550960903968 0 -1 0 I I #
straight-curve $-1 -41.629388734235974 -31.800101115755325 -11.103550960903968 0 1 0 I I #
point $-1 -36.213870397903975 -24.698091407698023 -11.103550960903968 #
coedge $-1 $412 $323 $326 $426 reversed $311 $-1 #
straight-curve $-1 -36.213870397903975 -24.698091407698023 0 0 0 -1 I I #
edge $-1 $470 -7.1020097080573024 $328 7.1020097080573024 $424 $475 forward 7 unknown #
point $-1 -36.213870397903975 -24.698091407698023 11.103550960903968 #
straight-curve $-1 -41.629388734235974 -31.800101115755325 11.103550960903968 0 -1 0 I I #
coedge $-1 $344 $343 $336 $430 forward $333 $-1 #
edge $-1 $431 49.422577786436051 $434 59.356855120118929 $429 $476 forward 7 unknown #
vertex $-1 $348 $477 #
straight-curve $-1 -37.027118186669981 33.086048156522736 11.103550960903966 0 1 0 I I #
edge $-1 $434 14.693249699318002 $345 29.974487275385954 $344 $478 forward 7 unknown #
vertex $-1 $433 $479 #
straight-curve $-1 -37.027118186669981 -12.010425891971849 34.221771783818369 0 -0.74314481823134659 0.66913061440640931 I I #
point $-1 -37.027118186669981 13.664958915398721 11.103550960903966 #
point $-1 -52.308355762737932 24.698091407698023 1.169273627221088 #
straight-curve $-1 0 24.698091407698023 11.103550960903968 -1 0 0 I I #
vertex $-1 $351 $480 #
point $-1 -48.252108247524347 16.829081894896284 3.5237594185898189 #
vertex $-1 $355 $481 #
point $-1 -43.667736974703956 16.829081894896284 3.5237594185898189 #
vertex $-1 $359 $482 #
point $-1 -39.083365701883572 16.829081894896284 3.5237594185898189 #
coedge $-1 $374 $373 $366 $446 forward $363 $-1 #
edge $-1 $447 49.422577786436051 $450 59.356855120118929 $445 $483 forward 7 unknown #
vertex $-1 $378 $484 #
straight-curve $-1 52.308355762737946 33.086048156522736 11.103550960903966 0 1 0 I I #
edge $-1 $450 -29.974487275385961 $375 -14.69324969931801 $374 $485 forward 7 unknown #
vertex $-1 $449 $486 #
straight-curve $-1 52.308355762737946 -12.010425891971849 34.221771783818369 0 -0.74314481823134659 0.66913061440640931 I I #
point $-1 52.308355762737946 13.664958915398721 11.103550960903966 #
point $-1 37.027118186669995 24.698091407698023 1.169273627221088 #
straight-curve $-1 0 24.698091407698023 11.103550960903968 -1 0 0 I I #
vertex $-1 $381 $487 #
point $-1 41.083365701883579 16.829081894896284 3.5237594185898189 #
vertex $-1 $385 $488 #
point $-1 45.667736974703971 16.829081894896284 3.5237594185898189 #
vertex $-1 $389 $489 #
point $-1 50.252108247524362 16.829081894896284 3.5237594185898189 #
straight-curve $-1 -58.420972319711908 24.698091407698023 0 0 0 -1 I I #
straight-curve $-1 0 24.698091407698023 -11.103550960903968 1 0 0 I I #
point $-1 58.420972319711908 24.698091407698023 -11.103550960903968 #
straight-curve $-1 -58.420972319711908 0 11.103550960903968 0 -1 0 I I #
point $-1 -58.420972319711908 24.698091407698023 11.103550960903968 #
straight-curve $-1 58.420972319711908 24.698091407698023 0 0 0 -1 I I #
point $-1 -58.420972319711908 24.698091407698023 -11.103550960903968 #
edge $-1 $470 -11.103550960903968 $420 11.103550960903968 $412 $490 forward 7 unknown #
straight-curve $-1 -38.921629566069974 -38.902110823812627 -11.103550960903968 -1 0 0 I I #
vertex $-1 $426 $491 #
straight-curve $-1 -38.921629566069974 -38.902110823812627 11.103550960903968 1 0 0 I I #
point $-1 -41.629388734235974 -38.902110823812627 11.103550960903968 #
point $-1 -41.629388734235974 -38.902110823812627 -11.103550960903968 #
point $-1 -36.213870397903975 -38.902110823812627 -11.103550960903968 #
straight-curve $-1 -36.213870397903975 -31.800101115755325 11.103550960903968 0 1 0 I I #
straight-curve $-1 -37.027118186669981 24.698091407698023 60.526128747340017 0 0 -1 I I #
point $-1 -37.027118186669981 24.698091407698023 11.103550960903968 #
straight-curve $-1 -22.333868487351978 24.698091407698023 1.1692736272210844 -1 0 0 I I #
point $-1 -37.027118186669981 24.698091407698023 1.169273627221088 #
point $-1 -49.252108247524347 16.159951280489871 2.7806146003584722 #
point $-1 -44.667736974703956 16.159951280489871 2.7806146003584722 #
point $-1 -40.083365701883572 16.159951280489871 2.7806146003584722 #
straight-curve $-1 52.308355762737946 24.698091407698023 60.526128747340017 0 0 -1 I I #
point $-1 52.308355762737946 24.698091407698023 11.103550960903968 #
straight-curve $-1 22.333868487351985 24.698091407698023 1.1692736272210844 -1 0 0 I I #
point $-1 52.308355762737946 24.698091407698023 1.169273627221088 #
point $-1 40.083365701883579 16.159951280489871 2.7806146003584722 #
point $-1 44.667736974703971 16.159951280489871 2.7806146003584722 #
point $-1 49.252108247524362 16.159951280489871 2.7806146003584722 #
straight-curve $-1 -36.213870397903975 -38.902110823812627 0 0 0 -1 I I #
point $-1 -36.213870397903975 -38.902110823812627 11.103550960903968 #
End-of-ACIS-data 