500 0 15 0           
7 Unknown 11 ACIS 5.0 NT 24 Fri Mar 26 00:42:11 1999 
-1 9.9999999999999995e-007 1e-010 
body $-1 $15 $-1 $16 #
body $-1 $17 $-1 $18 #
body $-1 $19 $-1 $20 #
body $-1 $21 $-1 $22 #
body $-1 $23 $-1 $24 #
body $-1 $25 $-1 $26 #
body $-1 $27 $-1 $28 #
body $-1 $29 $-1 $30 #
body $-1 $31 $-1 $32 #
body $-1 $33 $-1 $34 #
body $-1 $35 $-1 $36 #
body $-1 $37 $-1 $38 #
body $-1 $39 $-1 $40 #
body $-1 $41 $-1 $42 #
body $-1 $43 $-1 $44 #
lump $-1 $-1 $45 $0 #
transform $-1 1 0 0 0 1 0 0 0 1 64.436780907620474 42.429713691851866 21.195433471635404 1 rotate no_reflect no_shear #
lump $-1 $-1 $46 $1 #
transform $-1 1 0 0 0 1 0 0 0 1 64.436780907620474 42.429713691851866 21.195433471635404 1 rotate no_reflect no_shear #
lump $-1 $-1 $47 $2 #
transform $-1 1 0 0 0 1 0 0 0 1 64.436780907620474 42.429713691851866 21.195433471635404 1 rotate no_reflect no_shear #
lump $-1 $-1 $48 $3 #
transform $-1 1 0 0 0 1 0 0 0 1 64.436780907620474 42.429713691851866 21.195433471635404 1 rotate no_reflect no_shear #
lump $-1 $-1 $49 $4 #
transform $-1 1 0 0 0 1 0 0 0 1 64.436780907620474 42.429713691851866 21.195433471635404 1 rotate no_reflect no_shear #
lump $-1 $-1 $50 $5 #
transform $-1 1 0 0 0 1 0 0 0 1 64.436780907620474 42.429713691851866 21.195433471635404 1 rotate no_reflect no_shear #
lump $-1 $-1 $51 $6 #
transform $-1 1 0 0 0 1 0 0 0 1 64.436780907620474 42.429713691851866 21.195433471635404 1 rotate no_reflect no_shear #
lump $-1 $-1 $52 $7 #
transform $-1 1 0 0 0 1 0 0 0 1 64.436780907620474 42.429713691851866 21.195433471635404 1 rotate no_reflect no_shear #
lump $-1 $-1 $53 $8 #
transform $-1 1 0 0 0 1 0 0 0 1 64.436780907620474 42.429713691851866 21.195433471635404 1 rotate no_reflect no_shear #
lump $-1 $-1 $54 $9 #
transform $-1 1 0 0 0 1 0 0 0 1 64.436780907620474 42.429713691851866 21.195433471635404 1 rotate no_reflect no_shear #
lump $-1 $-1 $55 $10 #
transform $-1 1 0 0 0 1 0 0 0 1 64.436780907620474 42.429713691851866 21.195433471635404 1 rotate no_reflect no_shear #
lump $-1 $-1 $56 $11 #
transform $-1 1 0 0 0 1 0 0 0 1 64.436780907620474 42.429713691851866 21.195433471635404 1 rotate no_reflect no_shear #
lump $-1 $-1 $57 $12 #
transform $-1 1 0 0 0 1 0 0 0 1 64.436780907620474 42.429713691851866 21.195433471635404 1 rotate no_reflect no_shear #
lump $-1 $-1 $58 $13 #
transform $-1 1 0 0 0 1 0 0 0 1 64.436780907620474 42.429713691851866 21.195433471635404 1 rotate no_reflect no_shear #
lump $-1 $-1 $59 $14 #
transform $-1 1 0 0 0 1 0 0 0 1 64.436780907620474 42.429713691851866 21.195433471635404 1 rotate no_reflect no_shear #
shell $-1 $-1 $-1 $60 $-1 $15 #
shell $-1 $-1 $-1 $61 $-1 $17 #
shell $-1 $-1 $-1 $62 $-1 $19 #
shell $-1 $-1 $-1 $63 $-1 $21 #
shell $-1 $-1 $-1 $64 $-1 $23 #
shell $-1 $-1 $-1 $65 $-1 $25 #
shell $-1 $-1 $-1 $66 $-1 $27 #
shell $-1 $-1 $-1 $67 $-1 $29 #
shell $-1 $-1 $-1 $68 $-1 $31 #
shell $-1 $-1 $-1 $69 $-1 $33 #
shell $-1 $-1 $-1 $70 $-1 $35 #
shell $-1 $-1 $-1 $71 $-1 $37 #
shell $-1 $-1 $-1 $72 $-1 $39 #
shell $-1 $-1 $-1 $73 $-1 $41 #
shell $-1 $-1 $-1 $74 $-1 $43 #
face $-1 $75 $76 $45 $-1 $77 forward single #
face $-1 $78 $79 $46 $-1 $80 forward single #
face $-1 $81 $82 $47 $-1 $83 forward single #
face $-1 $84 $85 $48 $-1 $86 reversed single #
face $-1 $87 $88 $49 $-1 $89 forward single #
face $-1 $90 $91 $50 $-1 $92 forward single #
face $-1 $93 $94 $51 $-1 $95 reversed single #
face $-1 $96 $97 $52 $-1 $98 forward single #
face $-1 $99 $100 $53 $-1 $101 forward single #
face $-1 $102 $103 $54 $-1 $104 reversed single #
face $-1 $105 $106 $55 $-1 $107 forward single #
face $-1 $108 $109 $56 $-1 $110 forward single #
face $-1 $111 $112 $57 $-1 $113 reversed single #
face $-1 $114 $115 $58 $-1 $116 forward single #
face $-1 $117 $118 $59 $-1 $119 forward single #
face $-1 $120 $121 $45 $-1 $122 reversed single #
loop $-1 $-1 $123 $60 #
plane-surface $-1 0 0 21.195433471635404 0 0 1 1 0 0 forward_v I I I I #
face $-1 $124 $125 $46 $-1 $126 reversed single #
loop $-1 $-1 $127 $61 #
plane-surface $-1 0 -42.429713691851866 0 0 1 0 0 0 1 forward_v I I I I #
face $-1 $128 $129 $47 $-1 $130 reversed single #
loop $-1 $-1 $131 $62 #
plane-surface $-1 0 42.429713691851866 0 0 -1 0 0 0 -1 forward_v I I I I #
face $-1 $132 $133 $48 $-1 $134 reversed single #
loop $-1 $-1 $135 $63 #
plane-surface $-1 32.788579237431961 -8.7675022050815485 183.81386901098455 0 -1 0 -0.57357644374324357 0 -0.81915203911291934 forward_v I I I I #
face $-1 $136 $137 $49 $-1 $138 forward single #
loop $-1 $139 $140 $64 #
cone-surface $-1 51.717922668998256 -17.280646107467355 11.798775618852217 -0.57357644374324357 0 -0.81915203911291934 1.228728058669379 0 -0.86036466561486535 1 I I 0 1 1.5 forward I I I I #
face $-1 $141 $142 $50 $-1 $143 forward single #
loop $-1 $144 $145 $65 #
cone-surface $-1 51.717922668998256 -12.172759766035867 11.798775618852217 -0.57357644374324357 0 -0.81915203911291934 1.228728058669379 0 -0.86036466561486535 1 I I 0 1 1.5 forward I I I I #
face $-1 $146 $147 $51 $-1 $148 reversed single #
loop $-1 $-1 $149 $66 #
plane-surface $-1 32.788579237431961 15.120091551578035 183.81386901098455 0 -1 0 -0.57357644374324357 0 -0.81915203911291934 forward_v I I I I #
face $-1 $150 $151 $52 $-1 $152 forward single #
loop $-1 $153 $154 $67 #
cone-surface $-1 51.717922668998256 6.6069476491922288 11.798775618852217 -0.57357644374324357 0 -0.81915203911291934 1.228728058669379 0 -0.86036466561486535 1 I I 0 1 1.5 forward I I I I #
face $-1 $155 $156 $53 $-1 $157 forward single #
loop $-1 $158 $159 $68 #
cone-surface $-1 51.717922668998256 11.714833990623724 11.798775618852217 -0.57357644374324357 0 -0.81915203911291934 1.228728058669379 0 -0.86036466561486535 1 I I 0 1 1.5 forward I I I I #
face $-1 $160 $161 $54 $-1 $162 reversed single #
loop $-1 $-1 $163 $69 #
plane-surface $-1 -138.35562018613143 -20.68590366842168 109.8950297324736 0 1 0 -0.57357644374324357 0 0.81915203911291934 forward_v I I I I #
face $-1 $164 $165 $55 $-1 $166 forward single #
loop $-1 $167 $168 $70 #
cone-surface $-1 -51.717922668998256 -17.280646107467355 11.798775618852224 0.57357644374324357 0 -0.81915203911291934 1.228728058669379 0 0.86036466561486535 1 I I 0 1 1.5 forward I I I I #
face $-1 $169 $170 $56 $-1 $171 forward single #
loop $-1 $172 $173 $71 #
cone-surface $-1 -51.717922668998256 -12.172759766035867 11.798775618852224 0.57357644374324357 0 -0.81915203911291934 1.228728058669379 0 0.86036466561486535 1 I I 0 1 1.5 forward I I I I #
face $-1 $174 $175 $57 $-1 $176 reversed single #
loop $-1 $-1 $177 $72 #
plane-surface $-1 -138.35562018613143 3.2016900882379034 109.8950297324736 0 1 0 -0.57357644374324357 0 0.81915203911291934 forward_v I I I I #
face $-1 $178 $179 $58 $-1 $180 forward single #
loop $-1 $181 $182 $73 #
cone-surface $-1 -51.717922668998256 6.6069476491922288 11.798775618852224 0.57357644374324357 0 -0.81915203911291934 1.228728058669379 0 0.86036466561486535 1 I I 0 1 1.5 forward I I I I #
face $-1 $183 $184 $59 $-1 $185 forward single #
loop $-1 $186 $187 $74 #
cone-surface $-1 -51.717922668998256 11.714833990623724 11.798775618852224 0.57357644374324357 0 -0.81915203911291934 1.228728058669379 0 0.86036466561486535 1 I I 0 1 1.5 forward I I I I #
face $-1 $188 $189 $45 $-1 $190 reversed single #
loop $-1 $-1 $191 $75 #
plane-surface $-1 0 0 -21.195433471635404 0 0 1 1 0 0 forward_v I I I I #
coedge $-1 $192 $193 $194 $195 forward $76 $-1 #
face $-1 $196 $197 $46 $-1 $198 forward single #
loop $-1 $-1 $199 $78 #
plane-surface $-1 -64.436780907620474 0 0 1 0 0 0 0 -1 forward_v I I I I #
coedge $-1 $200 $201 $202 $203 forward $79 $-1 #
face $-1 $204 $205 $47 $-1 $206 forward single #
loop $-1 $-1 $207 $81 #
plane-surface $-1 64.436780907620474 0 0 -1 0 0 0 0 1 forward_v I I I I #
coedge $-1 $208 $209 $210 $211 forward $82 $-1 #
face $-1 $212 $213 $48 $-1 $214 reversed single #
loop $-1 $-1 $215 $84 #
plane-surface $-1 -41.130260041079012 -14.726702936751614 78.246828062285061 0.57357644374324357 0 0.81915203911291934 0.81915203911291934 0 -0.57357644374324357 forward_v I I I I #
coedge $-1 $216 $217 $218 $219 reversed $85 $-1 #
face $-1 $-1 $220 $49 $-1 $221 forward single #
loop $-1 $222 $223 $87 #
cone-surface $-1 50.613485621132256 -17.280646107467355 10.221476080664992 -0.57357644374324357 0 -0.81915203911291934 0.61436402933468948 0 -0.43018233280743268 1 I I -0.70710678118654757 0.70710678118654757 0.75 forward I I I I #
loop $-1 $-1 $224 $64 #
coedge $-1 $140 $140 $225 $226 reversed $88 $-1 #
face $-1 $-1 $227 $50 $-1 $228 forward single #
loop $-1 $229 $230 $90 #
cone-surface $-1 50.613485621132256 -12.172759766035867 10.221476080664992 -0.57357644374324357 0 -0.81915203911291934 0.61436402933468948 0 -0.43018233280743268 1 I I -0.70710678118654757 0.70710678118654757 0.75 forward I I I I #
loop $-1 $-1 $231 $65 #
coedge $-1 $145 $145 $232 $233 reversed $91 $-1 #
face $-1 $234 $235 $51 $-1 $236 reversed single #
loop $-1 $-1 $237 $93 #
plane-surface $-1 -41.130260041079012 9.1608908199079693 78.246828062285061 0.57357644374324357 0 0.81915203911291934 0.81915203911291934 0 -0.57357644374324357 forward_v I I I I #
coedge $-1 $238 $239 $240 $241 reversed $94 $-1 #
face $-1 $-1 $242 $52 $-1 $243 forward single #
loop $-1 $244 $245 $96 #
cone-surface $-1 50.613485621132256 6.6069476491922288 10.221476080664992 -0.57357644374324357 0 -0.81915203911291934 0.61436402933468948 0 -0.43018233280743268 1 I I -0.70710678118654757 0.70710678118654757 0.75 forward I I I I #
loop $-1 $-1 $246 $67 #
coedge $-1 $154 $154 $247 $248 reversed $97 $-1 #
face $-1 $-1 $249 $53 $-1 $250 forward single #
loop $-1 $251 $252 $99 #
cone-surface $-1 50.613485621132256 11.714833990623724 10.221476080664992 -0.57357644374324357 0 -0.81915203911291934 0.61436402933468948 0 -0.43018233280743268 1 I I -0.70710678118654757 0.70710678118654757 0.75 forward I I I I #
loop $-1 $-1 $253 $68 #
coedge $-1 $159 $159 $254 $255 reversed $100 $-1 #
face $-1 $256 $257 $54 $-1 $258 reversed single #
loop $-1 $-1 $259 $102 #
plane-surface $-1 -64.436780907620459 -14.726702936751614 4.3279887837741171 -0.57357644374324357 0 0.81915203911291934 0.81915203911291934 0 0.57357644374324357 forward_v I I I I #
coedge $-1 $260 $261 $262 $263 reversed $103 $-1 #
face $-1 $-1 $264 $55 $-1 $265 forward single #
loop $-1 $266 $267 $105 #
cone-surface $-1 -50.613485621132256 -17.280646107467355 10.221476080664999 0.57357644374324357 0 -0.81915203911291934 0.61436402933468948 0 0.43018233280743268 1 I I -0.70710678118654757 0.70710678118654757 0.75 forward I I I I #
loop $-1 $-1 $268 $70 #
coedge $-1 $168 $168 $269 $270 reversed $106 $-1 #
face $-1 $-1 $271 $56 $-1 $272 forward single #
loop $-1 $273 $274 $108 #
cone-surface $-1 -50.613485621132256 -12.172759766035867 10.221476080664999 0.57357644374324357 0 -0.81915203911291934 0.61436402933468948 0 0.43018233280743268 1 I I -0.70710678118654757 0.70710678118654757 0.75 forward I I I I #
loop $-1 $-1 $275 $71 #
coedge $-1 $173 $173 $276 $277 reversed $109 $-1 #
face $-1 $278 $279 $57 $-1 $280 reversed single #
loop $-1 $-1 $281 $111 #
plane-surface $-1 -64.436780907620459 9.1608908199079693 4.3279887837741171 -0.57357644374324357 0 0.81915203911291934 0.81915203911291934 0 0.57357644374324357 forward_v I I I I #
coedge $-1 $282 $283 $284 $285 reversed $112 $-1 #
face $-1 $-1 $286 $58 $-1 $287 forward single #
loop $-1 $288 $289 $114 #
cone-surface $-1 -50.613485621132256 6.6069476491922288 10.221476080664999 0.57357644374324357 0 -0.81915203911291934 0.61436402933468948 0 0.43018233280743268 1 I I -0.70710678118654757 0.70710678118654757 0.75 forward I I I I #
loop $-1 $-1 $290 $73 #
coedge $-1 $182 $182 $291 $292 reversed $115 $-1 #
face $-1 $-1 $293 $59 $-1 $294 forward single #
loop $-1 $295 $296 $117 #
cone-surface $-1 -50.613485621132256 11.714833990623724 10.221476080664999 0.57357644374324357 0 -0.81915203911291934 0.61436402933468948 0 0.43018233280743268 1 I I -0.70710678118654757 0.70710678118654757 0.75 forward I I I I #
loop $-1 $-1 $297 $74 #
coedge $-1 $187 $187 $298 $299 reversed $118 $-1 #
face $-1 $300 $301 $45 $-1 $302 reversed single #
loop $-1 $-1 $303 $120 #
plane-surface $-1 0 -42.429713691851866 0 0 1 0 0 0 1 forward_v I I I I #
coedge $-1 $304 $305 $306 $307 forward $121 $-1 #
coedge $-1 $308 $123 $309 $310 forward $76 $-1 #
coedge $-1 $123 $308 $311 $312 forward $76 $-1 #
coedge $-1 $313 $314 $123 $195 reversed $315 $-1 #
edge $-1 $316 -42.429713691851866 $317 42.429713691851866 $194 $318 forward 7 unknown #
face $-1 $319 $320 $46 $-1 $321 reversed single #
loop $-1 $-1 $322 $124 #
plane-surface $-1 0 -51.700773659448004 18.930845547580113 0 0 1 1 0 0 forward_v I I I I #
coedge $-1 $323 $324 $201 $325 forward $125 $-1 #
coedge $-1 $326 $127 $327 $328 reversed $79 $-1 #
coedge $-1 $127 $326 $199 $325 reversed $79 $-1 #
coedge $-1 $329 $322 $127 $203 reversed $197 $-1 #
edge $-1 $330 -64.436780907620474 $331 64.436780907620474 $202 $332 forward 7 unknown #
face $-1 $333 $334 $47 $-1 $335 reversed single #
loop $-1 $-1 $336 $128 #
plane-surface $-1 0 51.700773659448011 18.930845547580113 0 0 1 1 0 0 forward_v I I I I #
coedge $-1 $337 $338 $209 $339 forward $129 $-1 #
coedge $-1 $340 $131 $341 $342 reversed $82 $-1 #
coedge $-1 $131 $340 $207 $339 reversed $82 $-1 #
coedge $-1 $336 $343 $131 $211 reversed $205 $-1 #
edge $-1 $344 -64.436780907620474 $345 64.436780907620474 $210 $346 forward 7 unknown #
face $-1 $347 $348 $48 $-1 $349 forward single #
loop $-1 $-1 $350 $132 #
plane-surface $-1 32.788579237431961 -20.68590366842168 183.81386901098455 0 1 0 0.57357644374324357 0 0.81915203911291934 forward_v I I I I #
coedge $-1 $351 $352 $353 $354 reversed $133 $-1 #
coedge $-1 $217 $135 $355 $356 reversed $85 $-1 #
coedge $-1 $135 $216 $351 $357 reversed $85 $-1 #
coedge $-1 $353 $358 $135 $219 forward $348 $-1 #
edge $-1 $359 -48.042491288904493 $360 -23.953284241777162 $218 $361 forward 7 unknown #
loop $-1 $-1 $225 $136 #
plane-surface $-1 -41.130260041079012 -14.726702936751614 78.246828062285061 0.57357644374324357 0 0.81915203911291934 0.81915203911291934 0 -0.57357644374324357 forward_v I I I I #
loop $-1 $-1 $362 $87 #
coedge $-1 $223 $223 $224 $363 reversed $137 $-1 #
coedge $-1 $224 $224 $223 $363 forward $139 $-1 #
coedge $-1 $225 $225 $140 $226 forward $220 $-1 #
edge $-1 $364 0 $364 6.2831853071796004 $225 $365 forward 7 unknown #
loop $-1 $-1 $232 $141 #
plane-surface $-1 -41.130260041079012 -14.726702936751614 78.246828062285061 0.57357644374324357 0 0.81915203911291934 0.81915203911291934 0 -0.57357644374324357 forward_v I I I I #
loop $-1 $-1 $366 $90 #
coedge $-1 $230 $230 $231 $367 reversed $142 $-1 #
coedge $-1 $231 $231 $230 $367 forward $144 $-1 #
coedge $-1 $232 $232 $145 $233 forward $227 $-1 #
edge $-1 $368 0 $368 6.2831853071796004 $232 $369 forward 7 unknown #
face $-1 $370 $371 $51 $-1 $372 reversed single #
loop $-1 $-1 $373 $146 #
plane-surface $-1 32.788579237431961 3.2016900882379034 183.81386901098455 0 1 0 0.57357644374324357 0 0.81915203911291934 forward_v I I I I #
coedge $-1 $374 $375 $376 $377 reversed $147 $-1 #
coedge $-1 $239 $149 $378 $379 reversed $94 $-1 #
coedge $-1 $149 $238 $374 $380 reversed $94 $-1 #
coedge $-1 $376 $381 $149 $241 forward $382 $-1 #
edge $-1 $383 -48.042491288904493 $384 -23.953284241777162 $240 $385 forward 7 unknown #
loop $-1 $-1 $247 $150 #
plane-surface $-1 -41.130260041079012 9.1608908199079693 78.246828062285061 0.57357644374324357 0 0.81915203911291934 0.81915203911291934 0 -0.57357644374324357 forward_v I I I I #
loop $-1 $-1 $386 $96 #
coedge $-1 $245 $245 $246 $387 reversed $151 $-1 #
coedge $-1 $246 $246 $245 $387 forward $153 $-1 #
coedge $-1 $247 $247 $154 $248 forward $242 $-1 #
edge $-1 $388 0 $388 6.2831853071796004 $247 $389 forward 7 unknown #
loop $-1 $-1 $254 $155 #
plane-surface $-1 -41.130260041079012 9.1608908199079693 78.246828062285061 0.57357644374324357 0 0.81915203911291934 0.81915203911291934 0 -0.57357644374324357 forward_v I I I I #
loop $-1 $-1 $390 $99 #
coedge $-1 $252 $252 $253 $391 reversed $156 $-1 #
coedge $-1 $253 $253 $252 $391 forward $158 $-1 #
coedge $-1 $254 $254 $159 $255 forward $249 $-1 #
edge $-1 $392 0 $392 6.2831853071796004 $254 $393 forward 7 unknown #
face $-1 $394 $395 $54 $-1 $396 reversed single #
loop $-1 $-1 $397 $160 #
plane-surface $-1 -138.35562018613143 -8.7675022050815485 109.8950297324736 0 -1 0 0.57357644374324357 0 -0.81915203911291934 forward_v I I I I #
coedge $-1 $398 $399 $400 $401 reversed $161 $-1 #
coedge $-1 $261 $163 $402 $403 reversed $103 $-1 #
coedge $-1 $163 $260 $398 $404 reversed $103 $-1 #
coedge $-1 $400 $405 $163 $263 forward $406 $-1 #
edge $-1 $407 4.7410291854452424 $408 28.830236232572545 $262 $409 forward 7 unknown #
loop $-1 $-1 $269 $164 #
plane-surface $-1 -64.436780907620459 -14.726702936751614 4.3279887837741171 -0.57357644374324357 0 0.81915203911291934 0.81915203911291934 0 0.57357644374324357 forward_v I I I I #
loop $-1 $-1 $410 $105 #
coedge $-1 $267 $267 $268 $411 reversed $165 $-1 #
coedge $-1 $268 $268 $267 $411 forward $167 $-1 #
coedge $-1 $269 $269 $168 $270 forward $264 $-1 #
edge $-1 $412 0 $412 6.2831853071796004 $269 $413 forward 7 unknown #
loop $-1 $-1 $276 $169 #
plane-surface $-1 -64.436780907620459 -14.726702936751614 4.3279887837741171 -0.57357644374324357 0 0.81915203911291934 0.81915203911291934 0 0.57357644374324357 forward_v I I I I #
loop $-1 $-1 $414 $108 #
coedge $-1 $274 $274 $275 $415 reversed $170 $-1 #
coedge $-1 $275 $275 $274 $415 forward $172 $-1 #
coedge $-1 $276 $276 $173 $277 forward $271 $-1 #
edge $-1 $416 0 $416 6.2831853071796004 $276 $417 forward 7 unknown #
face $-1 $418 $419 $57 $-1 $420 forward single #
loop $-1 $-1 $421 $174 #
plane-surface $-1 -138.35562018613143 15.120091551578035 109.8950297324736 0 -1 0 0.57357644374324357 0 -0.81915203911291934 forward_v I I I I #
coedge $-1 $422 $423 $424 $425 reversed $175 $-1 #
coedge $-1 $283 $177 $426 $427 reversed $112 $-1 #
coedge $-1 $177 $282 $422 $428 reversed $112 $-1 #
coedge $-1 $424 $429 $177 $285 forward $419 $-1 #
edge $-1 $430 4.7410291854452424 $431 28.830236232572545 $284 $432 forward 7 unknown #
loop $-1 $-1 $291 $178 #
plane-surface $-1 -64.436780907620459 9.1608908199079693 4.3279887837741171 -0.57357644374324357 0 0.81915203911291934 0.81915203911291934 0 0.57357644374324357 forward_v I I I I #
loop $-1 $-1 $433 $114 #
coedge $-1 $289 $289 $290 $434 reversed $179 $-1 #
coedge $-1 $290 $290 $289 $434 forward $181 $-1 #
coedge $-1 $291 $291 $182 $292 forward $286 $-1 #
edge $-1 $435 0 $435 6.2831853071796004 $291 $436 forward 7 unknown #
loop $-1 $-1 $298 $183 #
plane-surface $-1 -64.436780907620459 9.1608908199079693 4.3279887837741171 -0.57357644374324357 0 0.81915203911291934 0.81915203911291934 0 0.57357644374324357 forward_v I I I I #
loop $-1 $-1 $437 $117 #
coedge $-1 $296 $296 $297 $438 reversed $184 $-1 #
coedge $-1 $297 $297 $296 $438 forward $186 $-1 #
coedge $-1 $298 $298 $187 $299 forward $293 $-1 #
edge $-1 $439 0 $439 6.2831853071796004 $298 $440 forward 7 unknown #
face $-1 $441 $442 $45 $-1 $443 reversed single #
loop $-1 $-1 $444 $188 #
plane-surface $-1 -64.436780907620474 0 0 1 0 0 0 0 -1 forward_v I I I I #
coedge $-1 $445 $311 $446 $447 forward $189 $-1 #
coedge $-1 $448 $191 $445 $449 forward $121 $-1 #
coedge $-1 $191 $448 $450 $451 forward $121 $-1 #
coedge $-1 $314 $313 $191 $307 reversed $315 $-1 #
edge $-1 $452 -42.429713691851866 $453 42.429713691851866 $306 $454 forward 7 unknown #
coedge $-1 $193 $192 $455 $456 forward $76 $-1 #
coedge $-1 $457 $458 $192 $310 reversed $442 $-1 #
edge $-1 $317 -64.436780907620474 $459 64.436780907620474 $309 $460 forward 7 unknown #
coedge $-1 $303 $461 $193 $312 reversed $189 $-1 #
edge $-1 $462 -64.436780907620474 $316 64.436780907620474 $311 $463 forward 7 unknown #
coedge $-1 $306 $194 $461 $464 forward $315 $-1 #
coedge $-1 $194 $306 $457 $465 reversed $315 $-1 #
loop $-1 $-1 $313 $441 #
vertex $-1 $195 $466 #
vertex $-1 $195 $467 #
straight-curve $-1 64.436780907620474 0 21.195433471635404 0 1 0 I I #
face $-1 $468 $469 $46 $-1 $470 reversed single #
loop $-1 $-1 $471 $196 #
plane-surface $-1 0 -51.700773659448004 8.346130557811172 0 0 1 1 0 0 forward_v I I I I #
coedge $-1 $202 $472 $473 $474 forward $197 $-1 #
coedge $-1 $475 $199 $476 $477 reversed $125 $-1 #
coedge $-1 $199 $475 $329 $478 reversed $125 $-1 #
edge $-1 $330 -18.930845547580113 $479 -8.346130557811172 $199 $480 forward 7 unknown #
coedge $-1 $201 $200 $481 $482 forward $79 $-1 #
coedge $-1 $473 $483 $200 $328 forward $484 $-1 #
edge $-1 $485 8.346130557811172 $331 18.930845547580113 $327 $486 forward 7 unknown #
coedge $-1 $472 $202 $324 $478 forward $197 $-1 #
vertex $-1 $325 $487 #
vertex $-1 $474 $488 #
straight-curve $-1 0 -42.429713691851866 18.930845547580113 1 0 0 I I #
face $-1 $489 $490 $47 $-1 $491 reversed single #
loop $-1 $-1 $492 $204 #
plane-surface $-1 0 51.700773659448011 8.346130557811172 0 0 1 1 0 0 forward_v I I I I #
coedge $-1 $493 $210 $338 $494 forward $205 $-1 #
coedge $-1 $495 $207 $492 $496 reversed $129 $-1 #
coedge $-1 $207 $495 $336 $494 reversed $129 $-1 #
edge $-1 $344 -18.930845547580113 $497 -8.346130557811172 $207 $498 forward 7 unknown #
coedge $-1 $209 $208 $499 $500 forward $82 $-1 #
coedge $-1 $501 $502 $208 $342 forward $503 $-1 #
edge $-1 $504 8.346130557811172 $345 18.930845547580113 $341 $505 forward 7 unknown #
coedge $-1 $210 $493 $501 $506 forward $205 $-1 #
vertex $-1 $339 $507 #
vertex $-1 $506 $508 #
straight-curve $-1 0 42.429713691851866 18.930845547580113 -1 0 0 I I #
face $-1 $-1 $509 $48 $-1 $510 reversed single #
loop $-1 $-1 $218 $212 #
plane-surface $-1 0 0 21.195433471635404 0 0 1 1 0 0 forward_v I I I I #
coedge $-1 $511 $512 $513 $514 reversed $213 $-1 #
coedge $-1 $515 $215 $217 $357 forward $133 $-1 #
coedge $-1 $215 $515 $511 $516 forward $133 $-1 #
coedge $-1 $513 $218 $215 $354 forward $348 $-1 #
edge $-1 $360 1.4041507367057413 $517 13.322552200045873 $353 $518 forward 7 unknown #
coedge $-1 $519 $520 $216 $356 forward $509 $-1 #
edge $-1 $521 -87.578945721718185 $359 -70.711501033856877 $355 $522 forward 7 unknown #
edge $-1 $360 99.466069802873932 $521 128.87356181524095 $217 $523 forward 7 unknown #
coedge $-1 $218 $513 $519 $524 forward $348 $-1 #
vertex $-1 $356 $525 #
vertex $-1 $219 $526 #
straight-curve $-1 16.39428961871598 -8.7675022050815485 21.195433471635397 -1 0 0 I I #
coedge $-1 $362 $362 $-1 $527 reversed $222 $-1 #
edge $-1 $528 0 $528 6.2831853071796004 $223 $529 forward 7 unknown #
vertex $-1 $226 $530 #
ellipse-curve $-1 52.392177384056815 -17.280646107467355 12.761711127704741 0.57357644374324357 0 0.81915203911291934 1.228728058669379 0 -0.86036466561486535 1 I I #
coedge $-1 $366 $366 $-1 $531 reversed $229 $-1 #
edge $-1 $532 0 $532 6.2831853071796004 $230 $533 forward 7 unknown #
vertex $-1 $233 $534 #
ellipse-curve $-1 52.392177384056815 -12.172759766035867 12.761711127704741 0.57357644374324357 0 0.81915203911291934 1.228728058669379 0 -0.86036466561486535 1 I I #
face $-1 $-1 $382 $51 $-1 $535 forward single #
loop $-1 $-1 $536 $234 #
plane-surface $-1 64.436780907620474 0 0 -1 0 0 0 0 1 forward_v I I I I #
coedge $-1 $537 $538 $539 $540 reversed $235 $-1 #
coedge $-1 $541 $237 $239 $380 forward $147 $-1 #
coedge $-1 $237 $541 $537 $542 forward $147 $-1 #
coedge $-1 $539 $240 $237 $377 forward $382 $-1 #
edge $-1 $384 -10.539646141624051 $543 1.3787553217160813 $376 $544 forward 7 unknown #
coedge $-1 $545 $546 $238 $379 forward $371 $-1 #
edge $-1 $547 -87.578945721718185 $383 -70.711501033856877 $378 $548 forward 7 unknown #
edge $-1 $384 99.466069802873932 $547 128.87356181524095 $239 $549 forward 7 unknown #
coedge $-1 $240 $539 $545 $550 forward $382 $-1 #
loop $-1 $-1 $539 $370 #
vertex $-1 $379 $551 #
vertex $-1 $241 $552 #
straight-curve $-1 16.39428961871598 15.120091551578035 21.195433471635397 -1 0 0 I I #
coedge $-1 $386 $386 $-1 $553 reversed $244 $-1 #
edge $-1 $554 0 $554 6.2831853071796004 $245 $555 forward 7 unknown #
vertex $-1 $248 $556 #
ellipse-curve $-1 52.392177384056815 6.6069476491922288 12.761711127704741 0.57357644374324357 0 0.81915203911291934 1.228728058669379 0 -0.86036466561486535 1 I I #
coedge $-1 $390 $390 $-1 $557 reversed $251 $-1 #
edge $-1 $558 0 $558 6.2831853071796004 $252 $559 forward 7 unknown #
vertex $-1 $255 $560 #
ellipse-curve $-1 52.392177384056815 11.714833990623724 12.761711127704741 0.57357644374324357 0 0.81915203911291934 1.228728058669379 0 -0.86036466561486535 1 I I #
face $-1 $-1 $406 $54 $-1 $561 forward single #
loop $-1 $-1 $562 $256 #
plane-surface $-1 -64.436780907620474 0 0 1 0 0 0 0 -1 forward_v I I I I #
coedge $-1 $563 $564 $565 $566 reversed $257 $-1 #
coedge $-1 $567 $259 $261 $404 forward $161 $-1 #
coedge $-1 $259 $567 $563 $568 forward $161 $-1 #
coedge $-1 $565 $262 $259 $401 forward $406 $-1 #
edge $-1 $408 -13.322552200045873 $569 -1.4041507367057413 $400 $570 forward 7 unknown #
coedge $-1 $571 $572 $260 $403 forward $395 $-1 #
edge $-1 $573 -50.619526082462691 $407 -33.752081394601397 $402 $574 forward 7 unknown #
edge $-1 $408 -29.407492012366966 $573 1.7244671030687178e-014 $261 $575 forward 7 unknown #
coedge $-1 $262 $565 $571 $576 forward $406 $-1 #
loop $-1 $-1 $565 $394 #
vertex $-1 $403 $577 #
vertex $-1 $263 $578 #
straight-curve $-1 -69.177810093065716 -20.68590366842168 21.195433471635404 1 0 0 I I #
coedge $-1 $410 $410 $-1 $579 reversed $266 $-1 #
edge $-1 $580 0 $580 6.2831853071796004 $267 $581 forward 7 unknown #
vertex $-1 $270 $582 #
ellipse-curve $-1 -52.392177384056822 -17.280646107467355 12.761711127704755 -0.57357644374324357 0 0.81915203911291934 1.228728058669379 0 0.86036466561486535 1 I I #
coedge $-1 $414 $414 $-1 $583 reversed $273 $-1 #
edge $-1 $584 0 $584 6.2831853071796004 $274 $585 forward 7 unknown #
vertex $-1 $277 $586 #
ellipse-curve $-1 -52.392177384056822 -12.172759766035867 12.761711127704755 -0.57357644374324357 0 0.81915203911291934 1.228728058669379 0 0.86036466561486535 1 I I #
face $-1 $-1 $587 $57 $-1 $588 reversed single #
loop $-1 $-1 $284 $278 #
plane-surface $-1 0 0 21.195433471635404 0 0 1 1 0 0 forward_v I I I I #
coedge $-1 $589 $590 $591 $592 reversed $279 $-1 #
coedge $-1 $593 $281 $283 $428 forward $175 $-1 #
coedge $-1 $281 $593 $589 $594 forward $175 $-1 #
coedge $-1 $591 $284 $281 $425 forward $419 $-1 #
edge $-1 $431 -1.3787553217160813 $595 10.539646141624051 $424 $596 forward 7 unknown #
coedge $-1 $597 $598 $282 $427 forward $587 $-1 #
edge $-1 $599 -50.619526082462691 $430 -33.752081394601397 $426 $600 forward 7 unknown #
edge $-1 $431 -29.407492012366966 $599 1.7244671030687178e-014 $283 $601 forward 7 unknown #
coedge $-1 $284 $591 $597 $602 forward $419 $-1 #
vertex $-1 $285 $603 #
vertex $-1 $285 $604 #
straight-curve $-1 -69.177810093065716 3.2016900882379034 21.195433471635404 1 0 0 I I #
coedge $-1 $433 $433 $-1 $605 reversed $288 $-1 #
edge $-1 $606 0 $606 6.2831853071796004 $289 $607 forward 7 unknown #
vertex $-1 $292 $608 #
ellipse-curve $-1 -52.392177384056822 6.6069476491922288 12.761711127704755 -0.57357644374324357 0 0.81915203911291934 1.228728058669379 0 0.86036466561486535 1 I I #
coedge $-1 $437 $437 $-1 $609 reversed $295 $-1 #
edge $-1 $610 0 $610 6.2831853071796004 $296 $611 forward 7 unknown #
vertex $-1 $299 $612 #
ellipse-curve $-1 -52.392177384056822 11.714833990623724 12.761711127704755 -0.57357644374324357 0 0.81915203911291934 1.228728058669379 0 0.86036466561486535 1 I I #
face $-1 $-1 $315 $45 $-1 $613 reversed single #
loop $-1 $-1 $457 $300 #
plane-surface $-1 0 42.429713691851866 0 0 -1 0 0 0 -1 forward_v I I I I #
coedge $-1 $614 $455 $458 $615 forward $301 $-1 #
coedge $-1 $461 $303 $304 $449 reversed $189 $-1 #
coedge $-1 $455 $614 $303 $447 reversed $301 $-1 #
edge $-1 $462 -21.195433471635404 $616 21.195433471635404 $446 $617 forward 7 unknown #
coedge $-1 $305 $304 $614 $618 forward $121 $-1 #
edge $-1 $453 -64.436780907620474 $616 64.436780907620474 $445 $619 forward 7 unknown #
coedge $-1 $458 $457 $305 $451 reversed $442 $-1 #
edge $-1 $620 -64.436780907620474 $452 64.436780907620474 $450 $621 forward 7 unknown #
vertex $-1 $307 $622 #
vertex $-1 $464 $623 #
straight-curve $-1 64.436780907620474 0 -21.195433471635404 0 -1 0 I I #
coedge $-1 $444 $446 $308 $456 reversed $301 $-1 #
edge $-1 $459 -42.429713691851866 $462 42.429713691851866 $455 $624 forward 7 unknown #
coedge $-1 $450 $309 $314 $465 forward $442 $-1 #
coedge $-1 $309 $450 $444 $615 reversed $442 $-1 #
vertex $-1 $310 $625 #
straight-curve $-1 0 42.429713691851866 21.195433471635404 -1 0 0 I I #
coedge $-1 $311 $445 $313 $464 reversed $189 $-1 #
vertex $-1 $456 $626 #
straight-curve $-1 0 -42.429713691851866 21.195433471635404 1 0 0 I I #
edge $-1 $316 -21.195433471635404 $453 21.195433471635404 $313 $627 forward 7 unknown #
edge $-1 $317 -21.195433471635404 $452 21.195433471635404 $314 $628 forward 7 unknown #
point $-1 64.436780907620474 -42.429713691851866 21.195433471635404 #
point $-1 64.436780907620474 42.429713691851866 21.195433471635404 #
face $-1 $-1 $484 $46 $-1 $629 reversed single #
loop $-1 $-1 $630 $319 #
plane-surface $-1 0 -60.971833627044148 13.638488052695642 0 1 0 0 0 1 forward_v I I I I #
coedge $-1 $631 $481 $483 $632 forward $320 $-1 #
coedge $-1 $322 $329 $633 $634 forward $197 $-1 #
coedge $-1 $635 $327 $322 $474 reversed $484 $-1 #
edge $-1 $636 -9.2710599675961447 $331 9.2710599675961447 $473 $637 forward 7 unknown #
coedge $-1 $324 $323 $630 $638 reversed $125 $-1 #
coedge $-1 $481 $631 $323 $477 forward $320 $-1 #
edge $-1 $639 -9.2710599675961447 $479 9.2710599675961447 $323 $640 forward 7 unknown #
edge $-1 $330 -9.2710599675961447 $641 9.2710599675961447 $324 $642 forward 7 unknown #
vertex $-1 $325 $643 #
straight-curve $-1 -64.436780907620474 -42.429713691851866 0 0 0 -1 I I #
coedge $-1 $471 $476 $326 $482 reversed $320 $-1 #
edge $-1 $485 -64.436780907620474 $479 64.436780907620474 $481 $644 forward 7 unknown #
coedge $-1 $327 $635 $471 $632 reversed $484 $-1 #
loop $-1 $-1 $327 $468 #
vertex $-1 $328 $645 #
straight-curve $-1 64.436780907620474 -42.429713691851866 0 0 0 1 I I #
point $-1 -64.436780907620474 -42.429713691851859 18.930845547580113 #
point $-1 64.436780907620474 -42.429713691851859 18.930845547580113 #
face $-1 $-1 $503 $47 $-1 $646 reversed single #
loop $-1 $-1 $647 $333 #
plane-surface $-1 0 60.971833627044148 13.638488052695642 0 -1 0 0 0 -1 forward_v I I I I #
coedge $-1 $499 $648 $337 $496 forward $334 $-1 #
coedge $-1 $343 $336 $649 $650 forward $205 $-1 #
edge $-1 $344 -9.2710599675961376 $651 9.2710599675961376 $338 $652 forward 7 unknown #
coedge $-1 $338 $337 $647 $653 reversed $129 $-1 #
edge $-1 $654 -9.2710599675961376 $497 9.2710599675961376 $337 $655 forward 7 unknown #
vertex $-1 $339 $656 #
straight-curve $-1 64.436780907620474 42.429713691851866 0 0 0 -1 I I #
coedge $-1 $657 $492 $340 $500 reversed $334 $-1 #
edge $-1 $504 -64.436780907620474 $497 64.436780907620474 $499 $658 forward 7 unknown #
coedge $-1 $659 $341 $343 $506 reversed $503 $-1 #
coedge $-1 $341 $659 $657 $660 reversed $503 $-1 #
loop $-1 $-1 $341 $489 #
vertex $-1 $342 $661 #
straight-curve $-1 -64.436780907620474 42.429713691851866 0 0 0 1 I I #
edge $-1 $662 -9.2710599675961376 $345 9.2710599675961376 $501 $663 forward 7 unknown #
point $-1 64.436780907620474 42.429713691851873 18.930845547580113 #
point $-1 -64.436780907620474 42.429713691851873 18.930845547580113 #
loop $-1 $-1 $355 $347 #
plane-surface $-1 64.436780907620474 0 0 -1 0 0 0 0 1 forward_v I I I I #
coedge $-1 $512 $350 $352 $516 reversed $213 $-1 #
coedge $-1 $350 $511 $664 $665 reversed $213 $-1 #
coedge $-1 $358 $353 $350 $514 forward $348 $-1 #
edge $-1 $517 23.953284241777162 $666 48.042491288904493 $513 $667 forward 7 unknown #
coedge $-1 $352 $351 $520 $668 reversed $133 $-1 #
edge $-1 $669 -128.87356181524095 $517 -99.466069802873932 $511 $670 forward 7 unknown #
vertex $-1 $354 $671 #
straight-curve $-1 40.347573860493128 -7.3633514683758072 21.195433471635411 0 -1 0 I I #
coedge $-1 $664 $355 $358 $524 reversed $509 $-1 #
coedge $-1 $355 $664 $515 $668 forward $509 $-1 #
vertex $-1 $356 $672 #
straight-curve $-1 64.436780907620474 -8.7675022050815485 91.906934505492274 0 0 1 I I #
straight-curve $-1 -41.130260041079012 -8.7675022050815485 78.246828062285061 0.81915203911291934 0 -0.57357644374324357 I I #
edge $-1 $666 -20.68590366842168 $359 -8.7675022050815485 $519 $673 forward 7 unknown #
point $-1 64.436780907620474 -8.7675022050815485 21.195433471635404 #
point $-1 40.347573860493142 -8.7675022050815485 21.195433471635404 #
edge $-1 $674 1 $674 0 $362 $-1 forward 7 unknown #
vertex $-1 $363 $675 #
ellipse-curve $-1 51.043667953939689 -17.280646107467355 10.835840109999682 0.57357644374324357 0 0.81915203911291934 1.228728058669379 0 -0.86036466561486535 1 I I #
point $-1 53.620905442726205 -17.280646107467355 11.901346462089887 #
edge $-1 $676 1 $676 0 $366 $-1 forward 7 unknown #
vertex $-1 $367 $677 #
ellipse-curve $-1 51.043667953939689 -12.172759766035867 10.835840109999682 0.57357644374324357 0 0.81915203911291934 1.228728058669379 0 -0.86036466561486535 1 I I #
point $-1 53.620905442726205 -12.172759766035867 11.901346462089887 #
plane-surface $-1 0 0 21.195433471635404 0 0 1 1 0 0 forward_v I I I I #
coedge $-1 $546 $545 $538 $678 forward $371 $-1 #
coedge $-1 $538 $373 $375 $542 reversed $235 $-1 #
coedge $-1 $373 $537 $536 $678 reversed $235 $-1 #
coedge $-1 $381 $376 $373 $540 forward $382 $-1 #
edge $-1 $543 23.953284241777162 $679 48.042491288904493 $539 $680 forward 7 unknown #
coedge $-1 $375 $374 $546 $681 reversed $147 $-1 #
edge $-1 $682 -128.87356181524095 $543 -99.466069802873932 $537 $683 forward 7 unknown #
vertex $-1 $377 $684 #
straight-curve $-1 40.347573860493128 4.5804454099539846 21.195433471635411 0 -1 0 I I #
coedge $-1 $536 $378 $381 $550 reversed $371 $-1 #
coedge $-1 $378 $536 $541 $681 forward $371 $-1 #
vertex $-1 $379 $685 #
straight-curve $-1 64.436780907620474 15.120091551578035 91.906934505492274 0 0 1 I I #
straight-curve $-1 -41.130260041079012 15.120091551578035 78.246828062285061 0.81915203911291934 0 -0.57357644374324357 I I #
edge $-1 $679 3.2016900882379034 $383 15.120091551578035 $545 $686 forward 7 unknown #
point $-1 64.436780907620474 15.120091551578035 21.195433471635404 #
point $-1 40.347573860493142 15.120091551578035 21.195433471635404 #
edge $-1 $687 1 $687 0 $386 $-1 forward 7 unknown #
vertex $-1 $387 $688 #
ellipse-curve $-1 51.043667953939689 6.6069476491922288 10.835840109999682 0.57357644374324357 0 0.81915203911291934 1.228728058669379 0 -0.86036466561486535 1 I I #
point $-1 53.620905442726205 6.6069476491922288 11.901346462089887 #
edge $-1 $689 1 $689 0 $390 $-1 forward 7 unknown #
vertex $-1 $391 $690 #
ellipse-curve $-1 51.043667953939689 11.714833990623724 10.835840109999682 0.57357644374324357 0 0.81915203911291934 1.228728058669379 0 -0.86036466561486535 1 I I #
point $-1 53.620905442726205 11.714833990623724 11.901346462089887 #
plane-surface $-1 0 0 21.195433471635404 0 0 1 1 0 0 forward_v I I I I #
coedge $-1 $572 $571 $564 $691 forward $395 $-1 #
coedge $-1 $564 $397 $399 $568 reversed $257 $-1 #
coedge $-1 $397 $563 $562 $691 reversed $257 $-1 #
coedge $-1 $405 $400 $397 $566 forward $406 $-1 #
edge $-1 $569 -28.830236232572545 $692 -4.7410291854452424 $565 $693 forward 7 unknown #
coedge $-1 $399 $398 $572 $694 reversed $161 $-1 #
edge $-1 $695 -1.7244671030687178e-014 $569 29.407492012366966 $563 $696 forward 7 unknown #
vertex $-1 $401 $697 #
straight-curve $-1 -40.347573860493171 -7.3633514683758072 21.195433471635404 0 1 0 I I #
coedge $-1 $562 $402 $405 $576 reversed $395 $-1 #
coedge $-1 $402 $562 $567 $694 forward $395 $-1 #
vertex $-1 $403 $698 #
straight-curve $-1 -64.436780907620474 -20.68590366842168 54.947514866236801 0 0 1 I I #
straight-curve $-1 -64.436780907620459 -20.68590366842168 4.3279887837741171 -0.81915203911291934 0 -0.57357644374324357 I I #
edge $-1 $692 8.7675022050815485 $407 20.68590366842168 $571 $699 forward 7 unknown #
point $-1 -64.436780907620474 -20.68590366842168 21.195433471635404 #
point $-1 -40.347573860493171 -20.68590366842168 21.195433471635404 #
edge $-1 $700 1 $700 0 $410 $-1 forward 7 unknown #
vertex $-1 $411 $701 #
ellipse-curve $-1 -51.043667953939689 -17.280646107467355 10.835840109999689 -0.57357644374324357 0 0.81915203911291934 1.228728058669379 0 0.86036466561486535 1 I I #
point $-1 -51.163449325387447 -17.280646107467355 13.622075793319624 #
edge $-1 $702 1 $702 0 $414 $-1 forward 7 unknown #
vertex $-1 $415 $703 #
ellipse-curve $-1 -51.043667953939689 -12.172759766035867 10.835840109999689 -0.57357644374324357 0 0.81915203911291934 1.228728058669379 0 0.86036466561486535 1 I I #
point $-1 -51.163449325387447 -12.172759766035867 13.622075793319624 #
loop $-1 $-1 $426 $418 #
plane-surface $-1 -64.436780907620474 0 0 1 0 0 0 0 -1 forward_v I I I I #
coedge $-1 $590 $421 $423 $594 reversed $279 $-1 #
coedge $-1 $421 $589 $704 $705 reversed $279 $-1 #
coedge $-1 $429 $424 $421 $592 forward $419 $-1 #
edge $-1 $595 -28.830236232572545 $706 -4.7410291854452424 $591 $707 forward 7 unknown #
coedge $-1 $423 $422 $598 $708 reversed $175 $-1 #
edge $-1 $709 -1.7244671030687178e-014 $595 29.407492012366966 $589 $710 forward 7 unknown #
vertex $-1 $425 $711 #
straight-curve $-1 -40.347573860493171 4.5804454099539846 21.195433471635404 0 1 0 I I #
coedge $-1 $704 $426 $429 $602 reversed $587 $-1 #
coedge $-1 $426 $704 $593 $708 forward $587 $-1 #
vertex $-1 $427 $712 #
straight-curve $-1 -64.436780907620474 3.2016900882379034 54.947514866236801 0 0 1 I I #
straight-curve $-1 -64.436780907620459 3.2016900882379034 4.3279887837741171 -0.81915203911291934 0 -0.57357644374324357 I I #
edge $-1 $706 -15.120091551578035 $430 -3.2016900882379034 $597 $713 forward 7 unknown #
point $-1 -64.436780907620474 3.2016900882379034 21.195433471635404 #
point $-1 -40.347573860493171 3.2016900882379034 21.195433471635404 #
edge $-1 $714 1 $714 0 $433 $-1 forward 7 unknown #
vertex $-1 $434 $715 #
ellipse-curve $-1 -51.043667953939689 6.6069476491922288 10.835840109999689 -0.57357644374324357 0 0.81915203911291934 1.228728058669379 0 0.86036466561486535 1 I I #
point $-1 -51.163449325387447 6.6069476491922288 13.622075793319624 #
edge $-1 $716 1 $716 0 $437 $-1 forward 7 unknown #
vertex $-1 $438 $717 #
ellipse-curve $-1 -51.043667953939689 11.714833990623724 10.835840109999689 -0.57357644374324357 0 0.81915203911291934 1.228728058669379 0 0.86036466561486535 1 I I #
point $-1 -51.163449325387447 11.714833990623724 13.622075793319624 #
plane-surface $-1 64.436780907620474 0 0 -1 0 0 0 0 1 forward_v I I I I #
coedge $-1 $446 $444 $448 $618 reversed $301 $-1 #
edge $-1 $459 -21.195433471635404 $620 21.195433471635404 $458 $718 forward 7 unknown #
vertex $-1 $618 $719 #
straight-curve $-1 -64.436780907620474 -42.429713691851866 0 0 0 -1 I I #
edge $-1 $616 -42.429713691851866 $620 42.429713691851866 $614 $720 forward 7 unknown #
straight-curve $-1 0 -42.429713691851866 -21.195433471635404 -1 0 0 I I #
vertex $-1 $451 $721 #
straight-curve $-1 0 42.429713691851866 -21.195433471635404 1 0 0 I I #
point $-1 64.436780907620474 42.429713691851866 -21.195433471635404 #
point $-1 64.436780907620474 -42.429713691851866 -21.195433471635404 #
straight-curve $-1 -64.436780907620474 0 21.195433471635404 0 -1 0 I I #
point $-1 -64.436780907620474 42.429713691851866 21.195433471635404 #
point $-1 -64.436780907620474 -42.429713691851866 21.195433471635404 #
straight-curve $-1 64.436780907620474 -42.429713691851866 0 0 0 -1 I I #
straight-curve $-1 64.436780907620474 42.429713691851866 0 0 0 -1 I I #
plane-surface $-1 64.436780907620474 0 0 -1 0 0 0 0 1 forward_v I I I I #
coedge $-1 $722 $633 $475 $638 forward $469 $-1 #
coedge $-1 $476 $471 $722 $723 forward $320 $-1 #
edge $-1 $485 -9.2710599675961447 $724 9.2710599675961447 $483 $725 forward 7 unknown #
coedge $-1 $630 $726 $472 $634 reversed $469 $-1 #
edge $-1 $641 -64.436780907620474 $636 64.436780907620474 $633 $727 forward 7 unknown #
coedge $-1 $483 $473 $726 $728 forward $484 $-1 #
vertex $-1 $474 $729 #
straight-curve $-1 64.436780907620474 -51.700773659448004 18.930845547580113 0 1 0 I I #
edge $-1 $641 -5.2923574948844703 $639 5.2923574948844703 $475 $730 forward 7 unknown #
vertex $-1 $477 $731 #
straight-curve $-1 -64.436780907620474 -51.700773659448004 8.346130557811172 0 1 0 I I #
vertex $-1 $478 $732 #
straight-curve $-1 -64.436780907620474 -51.700773659448004 18.930845547580113 0 -1 0 I I #
point $-1 -64.436780907620474 -42.429713691851859 8.346130557811172 #
straight-curve $-1 0 -42.429713691851866 8.346130557811172 -1 0 0 I I #
point $-1 64.436780907620474 -42.429713691851859 8.346130557811172 #
plane-surface $-1 -64.436780907620474 0 0 1 0 0 0 0 -1 forward_v I I I I #
coedge $-1 $733 $649 $495 $653 forward $490 $-1 #
coedge $-1 $492 $657 $733 $734 forward $334 $-1 #
coedge $-1 $647 $735 $493 $650 reversed $490 $-1 #
edge $-1 $651 -64.436780907620474 $662 64.436780907620474 $649 $736 forward 7 unknown #
vertex $-1 $494 $737 #
straight-curve $-1 64.436780907620474 51.700773659448011 18.930845547580113 0 1 0 I I #
edge $-1 $651 -5.2923574948844703 $654 5.2923574948844703 $495 $738 forward 7 unknown #
vertex $-1 $496 $739 #
straight-curve $-1 64.436780907620474 51.700773659448011 8.346130557811172 0 -1 0 I I #
point $-1 64.436780907620474 42.429713691851873 8.346130557811172 #
coedge $-1 $648 $499 $502 $660 forward $334 $-1 #
straight-curve $-1 0 42.429713691851866 8.346130557811172 1 0 0 I I #
coedge $-1 $502 $501 $735 $740 forward $503 $-1 #
edge $-1 $504 -9.2710599675961376 $741 9.2710599675961376 $502 $742 forward 7 unknown #
point $-1 -64.436780907620474 42.429713691851873 8.346130557811172 #
vertex $-1 $650 $743 #
straight-curve $-1 -64.436780907620474 51.700773659448011 18.930845547580113 0 -1 0 I I #
coedge $-1 $520 $519 $512 $665 forward $509 $-1 #
edge $-1 $666 70.711501033856877 $669 87.578945721718185 $664 $744 forward 7 unknown #
vertex $-1 $524 $745 #
straight-curve $-1 16.39428961871598 -20.68590366842168 21.195433471635397 1 0 0 I I #
edge $-1 $669 -13.322552200045873 $521 -1.4041507367057413 $520 $746 forward 7 unknown #
vertex $-1 $668 $747 #
straight-curve $-1 -41.130260041079012 -20.68590366842168 78.246828062285061 -0.81915203911291934 0 0.57357644374324357 I I #
point $-1 40.347573860493142 -20.68590366842168 21.195433471635404 #
point $-1 64.436780907620474 -8.7675022050815485 4.3279887837740887 #
straight-curve $-1 64.436780907620474 0 21.195433471635404 0 1 0 I I #
vertex $-1 $527 $748 #
point $-1 52.272396012609065 -17.280646107467355 9.9754754443848164 #
vertex $-1 $531 $749 #
point $-1 52.272396012609065 -12.172759766035867 9.9754754443848164 #
edge $-1 $679 70.711501033856877 $682 87.578945721718185 $536 $750 forward 7 unknown #
vertex $-1 $550 $751 #
straight-curve $-1 16.39428961871598 3.2016900882379034 21.195433471635397 1 0 0 I I #
edge $-1 $682 -1.3787553217160813 $547 10.539646141624051 $546 $752 forward 7 unknown #
vertex $-1 $681 $753 #
straight-curve $-1 -41.130260041079012 3.2016900882379034 78.246828062285061 -0.81915203911291934 0 0.57357644374324357 I I #
point $-1 40.347573860493142 3.2016900882379034 21.195433471635404 #
point $-1 64.436780907620474 15.120091551578035 4.3279887837740887 #
straight-curve $-1 64.436780907620474 0 21.195433471635404 0 1 0 I I #
vertex $-1 $553 $754 #
point $-1 52.272396012609065 6.6069476491922288 9.9754754443848164 #
vertex $-1 $557 $755 #
point $-1 52.272396012609065 11.714833990623724 9.9754754443848164 #
edge $-1 $692 33.752081394601397 $695 50.619526082462691 $562 $756 forward 7 unknown #
vertex $-1 $576 $757 #
straight-curve $-1 -69.177810093065716 -8.7675022050815485 21.195433471635404 -1 0 0 I I #
edge $-1 $695 1.4041507367057413 $573 13.322552200045873 $572 $758 forward 7 unknown #
vertex $-1 $694 $759 #
straight-curve $-1 -64.436780907620459 -8.7675022050815485 4.3279887837741171 0.81915203911291934 0 0.57357644374324357 I I #
point $-1 -40.347573860493171 -8.7675022050815485 21.195433471635404 #
point $-1 -64.436780907620474 -20.68590366842168 4.3279887837741073 #
straight-curve $-1 -64.436780907620474 0 21.195433471635404 0 -1 0 I I #
vertex $-1 $579 $760 #
point $-1 -49.814939895270307 -17.280646107467355 11.696204775614554 #
vertex $-1 $583 $761 #
point $-1 -49.814939895270307 -12.172759766035867 11.696204775614554 #
coedge $-1 $598 $597 $590 $705 forward $587 $-1 #
edge $-1 $706 33.752081394601397 $709 50.619526082462691 $704 $762 forward 7 unknown #
vertex $-1 $602 $763 #
straight-curve $-1 -69.177810093065716 15.120091551578035 21.195433471635404 -1 0 0 I I #
edge $-1 $709 -10.539646141624051 $599 1.3787553217160813 $598 $764 forward 7 unknown #
vertex $-1 $708 $765 #
straight-curve $-1 -64.436780907620459 15.120091551578035 4.3279887837741171 0.81915203911291934 0 0.57357644374324357 I I #
point $-1 -40.347573860493171 15.120091551578035 21.195433471635404 #
point $-1 -64.436780907620474 3.2016900882379034 4.3279887837741073 #
straight-curve $-1 -64.436780907620474 0 21.195433471635404 0 -1 0 I I #
vertex $-1 $605 $766 #
point $-1 -49.814939895270307 6.6069476491922288 11.696204775614554 #
vertex $-1 $609 $767 #
point $-1 -49.814939895270307 11.714833990623724 11.696204775614554 #
straight-curve $-1 -64.436780907620474 42.429713691851866 0 0 0 -1 I I #
point $-1 -64.436780907620474 -42.429713691851866 -21.195433471635404 #
straight-curve $-1 -64.436780907620474 0 -21.195433471635404 0 1 0 I I #
point $-1 -64.436780907620474 42.429713691851866 -21.195433471635404 #
coedge $-1 $726 $630 $631 $723 reversed $469 $-1 #
edge $-1 $724 -64.436780907620474 $639 64.436780907620474 $722 $768 forward 7 unknown #
vertex $-1 $728 $769 #
straight-curve $-1 64.436780907620474 -51.700773659448004 8.346130557811172 0 -1 0 I I #
coedge $-1 $633 $722 $635 $728 reversed $469 $-1 #
straight-curve $-1 0 -60.971833627044148 18.930845547580113 1 0 0 I I #
edge $-1 $636 -5.2923574948844703 $724 5.2923574948844703 $635 $770 forward 7 unknown #
point $-1 64.436780907620474 -60.971833627044148 18.930845547580113 #
straight-curve $-1 -64.436780907620474 -60.971833627044148 13.638488052695642 0 0 -1 I I #
point $-1 -64.436780907620474 -60.971833627044148 8.346130557811172 #
point $-1 -64.436780907620474 -60.971833627044148 18.930845547580113 #
coedge $-1 $735 $647 $648 $734 reversed $490 $-1 #
edge $-1 $741 -64.436780907620474 $654 64.436780907620474 $733 $771 forward 7 unknown #
coedge $-1 $649 $733 $659 $740 reversed $490 $-1 #
straight-curve $-1 0 60.971833627044148 18.930845547580113 -1 0 0 I I #
point $-1 64.436780907620474 60.971833627044148 18.930845547580113 #
straight-curve $-1 64.436780907620474 60.971833627044148 13.638488052695642 0 0 -1 I I #
point $-1 64.436780907620474 60.971833627044148 8.346130557811172 #
edge $-1 $662 -5.2923574948844703 $741 5.2923574948844703 $735 $772 forward 7 unknown #
vertex $-1 $734 $773 #
straight-curve $-1 -64.436780907620474 51.700773659448011 8.346130557811172 0 1 0 I I #
point $-1 -64.436780907620474 60.971833627044148 18.930845547580113 #
straight-curve $-1 64.436780907620474 -20.68590366842168 91.906934505492274 0 0 -1 I I #
point $-1 64.436780907620474 -20.68590366842168 21.195433471635404 #
straight-curve $-1 64.436780907620488 -7.3633514683758072 4.3279887837740887 0 1 0 I I #
point $-1 64.436780907620474 -20.68590366842168 4.3279887837740887 #
point $-1 50.183303288324822 -17.280646107467355 9.6071120513303025 #
point $-1 50.183303288324822 -12.172759766035867 9.6071120513303025 #
straight-curve $-1 64.436780907620474 3.2016900882379034 91.906934505492274 0 0 -1 I I #
point $-1 64.436780907620474 3.2016900882379034 21.195433471635404 #
straight-curve $-1 64.436780907620488 4.5804454099539846 4.3279887837740887 0 1 0 I I #
point $-1 64.436780907620474 3.2016900882379034 4.3279887837740887 #
point $-1 50.183303288324822 6.6069476491922288 9.6071120513303025 #
point $-1 50.183303288324822 11.714833990623724 9.6071120513303025 #
straight-curve $-1 -64.436780907620474 -8.7675022050815485 54.947514866236801 0 0 -1 I I #
point $-1 -64.436780907620474 -8.7675022050815485 21.195433471635404 #
straight-curve $-1 -64.436780907620474 -7.3633514683758072 4.3279887837741038 0 -1 0 I I #
point $-1 -64.436780907620474 -8.7675022050815485 4.3279887837741073 #
point $-1 -50.183303288324822 -17.280646107467355 9.6071120513303097 #
point $-1 -50.183303288324822 -12.172759766035867 9.6071120513303097 #
straight-curve $-1 -64.436780907620474 15.120091551578035 54.947514866236801 0 0 -1 I I #
point $-1 -64.436780907620474 15.120091551578035 21.195433471635404 #
straight-curve $-1 -64.436780907620474 4.5804454099539846 4.3279887837741038 0 -1 0 I I #
point $-1 -64.436780907620474 15.120091551578035 4.3279887837741073 #
point $-1 -50.183303288324822 6.6069476491922288 9.6071120513303097 #
point $-1 -50.183303288324822 11.714833990623724 9.6071120513303097 #
straight-curve $-1 0 -60.971833627044148 8.346130557811172 -1 0 0 I I #
point $-1 64.436780907620474 -60.971833627044148 8.346130557811172 #
straight-curve $-1 64.436780907620474 -60.971833627044148 13.638488052695642 0 0 -1 I I #
straight-curve $-1 0 60.971833627044148 8.346130557811172 1 0 0 I I #
straight-curve $-1 -64.436780907620474 60.971833627044148 13.638488052695642 0 0 -1 I I #
point $-1 -64.436780907620474 60.971833627044148 8.346130557811172 #
End-of-ACIS-data 