500 0 9 0           
7 Unknown 11 ACIS 5.0 NT 24 Fri Mar 26 00:45:08 1999 
-1 9.9999999999999995e-007 1e-010 
body $-1 $9 $-1 $10 #
body $-1 $11 $-1 $12 #
body $-1 $13 $-1 $14 #
body $-1 $15 $-1 $16 #
body $-1 $17 $-1 $18 #
body $-1 $19 $-1 $20 #
body $-1 $21 $-1 $22 #
body $-1 $23 $-1 $24 #
body $-1 $25 $-1 $26 #
lump $-1 $-1 $27 $0 #
transform $-1 1 0 0 0 1 0 0 0 1 43.897824030274364 18.647900680239388 4.5760685991903101 1 rotate no_reflect no_shear #
lump $-1 $-1 $28 $1 #
transform $-1 1 0 0 0 1 0 0 0 1 43.897824030274364 18.647900680239388 4.5760685991903101 1 rotate no_reflect no_shear #
lump $-1 $-1 $29 $2 #
transform $-1 1 0 0 0 1 0 0 0 1 43.897824030274364 18.647900680239388 4.5760685991903101 1 rotate no_reflect no_shear #
lump $-1 $-1 $30 $3 #
transform $-1 1 0 0 0 1 0 0 0 1 43.897824030274364 18.647900680239388 4.5760685991903101 1 rotate no_reflect no_shear #
lump $-1 $-1 $31 $4 #
transform $-1 1 0 0 0 1 0 0 0 1 43.897824030274364 18.647900680239388 4.5760685991903101 1 rotate no_reflect no_shear #
lump $-1 $-1 $32 $5 #
transform $-1 1 0 0 0 1 0 0 0 1 43.897824030274364 18.647900680239388 4.5760685991903101 1 rotate no_reflect no_shear #
lump $-1 $-1 $33 $6 #
transform $-1 1 0 0 0 1 0 0 0 1 43.897824030274364 18.647900680239388 4.5760685991903101 1 rotate no_reflect no_shear #
lump $-1 $-1 $34 $7 #
transform $-1 1 0 0 0 1 0 0 0 1 43.897824030274364 18.647900680239388 4.5760685991903101 1 rotate no_reflect no_shear #
lump $-1 $-1 $35 $8 #
transform $-1 1 0 0 0 1 0 0 0 1 43.897824030274364 18.647900680239388 4.5760685991903101 1 rotate no_reflect no_shear #
shell $-1 $-1 $-1 $36 $-1 $9 #
shell $-1 $-1 $-1 $37 $-1 $11 #
shell $-1 $-1 $-1 $38 $-1 $13 #
shell $-1 $-1 $-1 $39 $-1 $15 #
shell $-1 $-1 $-1 $40 $-1 $17 #
shell $-1 $-1 $-1 $41 $-1 $19 #
shell $-1 $-1 $-1 $42 $-1 $21 #
shell $-1 $-1 $-1 $43 $-1 $23 #
shell $-1 $-1 $-1 $44 $-1 $25 #
face $-1 $45 $46 $27 $-1 $47 forward single #
face $-1 $48 $49 $28 $-1 $50 forward single #
face $-1 $51 $52 $29 $-1 $53 forward single #
face $-1 $54 $55 $30 $-1 $56 reversed single #
face $-1 $57 $58 $31 $-1 $59 forward single #
face $-1 $60 $61 $32 $-1 $62 forward single #
face $-1 $63 $64 $33 $-1 $65 reversed single #
face $-1 $66 $67 $34 $-1 $68 forward single #
face $-1 $69 $70 $35 $-1 $71 forward single #
face $-1 $72 $73 $27 $-1 $74 reversed single #
loop $-1 $-1 $75 $36 #
plane-surface $-1 0 0 4.5760685991903101 0 0 1 1 0 0 forward_v I I I I #
face $-1 $76 $77 $28 $-1 $78 reversed single #
loop $-1 $-1 $79 $37 #
plane-surface $-1 -41.47019359278503 0 -1.5760685991903101 0 0 1 1 0 0 forward_v I I I I #
face $-1 $80 $81 $29 $-1 $82 reversed single #
loop $-1 $-1 $83 $38 #
plane-surface $-1 41.470193592785023 0 -1.5760685991903101 0 0 1 1 0 0 forward_v I I I I #
face $-1 $84 $85 $30 $-1 $86 reversed single #
loop $-1 $-1 $87 $39 #
plane-surface $-1 -13.700708005911046 33.543873342351027 95.619682958084383 -1 0 0 0 0.52991927123019833 0.84804809178421925 forward_v I I I I #
face $-1 $88 $89 $31 $-1 $90 forward single #
loop $-1 $91 $92 $40 #
cone-surface $-1 -20.68940323825959 15.49122714411854 2.0025979463078287 0 -0.52991927123019833 -0.84804809178421925 1 0 0 1 I I 0 1 1 forward I I I I #
face $-1 $93 $94 $32 $-1 $95 forward single #
loop $-1 $96 $97 $41 #
cone-surface $-1 -16.496186098850465 15.49122714411854 2.0025979463078287 0 -0.52991927123019833 -0.84804809178421925 1 0 0 1 I I 0 1 1 forward I I I I #
face $-1 $98 $99 $33 $-1 $100 reversed single #
loop $-1 $-1 $101 $42 #
plane-surface $-1 23.484881331199023 33.543873342351027 95.619682958084383 -1 0 0 0 0.52991927123019833 0.84804809178421925 forward_v I I I I #
face $-1 $102 $103 $34 $-1 $104 forward single #
loop $-1 $105 $106 $43 #
cone-surface $-1 16.496186098850487 15.49122714411854 2.0025979463078287 0 -0.52991927123019833 -0.84804809178421925 1 0 0 1 I I 0 1 1 forward I I I I #
face $-1 $107 $108 $35 $-1 $109 forward single #
loop $-1 $110 $111 $44 #
cone-surface $-1 20.689403238259615 15.49122714411854 2.0025979463078287 0 -0.52991927123019833 -0.84804809178421925 1 0 0 1 I I 0 1 1 forward I I I I #
face $-1 $112 $113 $27 $-1 $114 reversed single #
loop $-1 $-1 $115 $45 #
plane-surface $-1 0 0 -4.5760685991903101 0 0 1 1 0 0 forward_v I I I I #
coedge $-1 $116 $117 $118 $119 forward $46 $-1 #
face $-1 $120 $121 $28 $-1 $122 reversed single #
loop $-1 $-1 $123 $48 #
plane-surface $-1 -39.042563155295696 0 -3.0760685991903101 -1 0 0 0 0 1 forward_v I I I I #
coedge $-1 $124 $125 $126 $127 forward $49 $-1 #
face $-1 $128 $129 $29 $-1 $130 reversed single #
loop $-1 $-1 $131 $51 #
plane-surface $-1 39.042563155295689 0 -3.0760685991903101 1 0 0 0 0 -1 forward_v I I I I #
coedge $-1 $132 $133 $134 $135 reversed $52 $-1 #
face $-1 $136 $137 $30 $-1 $138 reversed single #
loop $-1 $-1 $139 $54 #
plane-surface $-1 -18.592794668555026 -12.98073249507793 21.164751153377139 0 0.52991927123019833 0.84804809178421925 1 0 0 forward_v I I I I #
coedge $-1 $140 $141 $142 $143 reversed $55 $-1 #
face $-1 $-1 $144 $31 $-1 $145 forward single #
loop $-1 $146 $147 $57 #
cone-surface $-1 -20.68940323825959 14.610190062357049 0.59264390888540053 0 -0.52991927123019833 -0.84804809178421925 0.5 0 0 1 I I -0.70710678118654746 0.70710678118654746 0.5 forward I I I I #
loop $-1 $-1 $148 $40 #
coedge $-1 $92 $92 $149 $150 reversed $58 $-1 #
face $-1 $-1 $151 $32 $-1 $152 forward single #
loop $-1 $153 $154 $60 #
cone-surface $-1 -16.496186098850465 14.610190062357049 0.59264390888540053 0 -0.52991927123019833 -0.84804809178421925 0.5 0 0 1 I I -0.70710678118654746 0.70710678118654746 0.5 forward I I I I #
loop $-1 $-1 $155 $41 #
coedge $-1 $97 $97 $156 $157 reversed $61 $-1 #
face $-1 $158 $159 $33 $-1 $160 reversed single #
loop $-1 $-1 $161 $63 #
plane-surface $-1 18.592794668555044 -12.98073249507793 21.164751153377139 0 0.52991927123019833 0.84804809178421925 1 0 0 forward_v I I I I #
coedge $-1 $162 $163 $164 $165 reversed $64 $-1 #
face $-1 $-1 $166 $34 $-1 $167 forward single #
loop $-1 $168 $169 $66 #
cone-surface $-1 16.496186098850487 14.610190062357049 0.59264390888540053 0 -0.52991927123019833 -0.84804809178421925 0.5 0 0 1 I I -0.70710678118654746 0.70710678118654746 0.5 forward I I I I #
loop $-1 $-1 $170 $43 #
coedge $-1 $106 $106 $171 $172 reversed $67 $-1 #
face $-1 $-1 $173 $35 $-1 $174 forward single #
loop $-1 $175 $176 $69 #
cone-surface $-1 20.689403238259615 14.610190062357049 0.59264390888540053 0 -0.52991927123019833 -0.84804809178421925 0.5 0 0 1 I I -0.70710678118654746 0.70710678118654746 0.5 forward I I I I #
loop $-1 $-1 $177 $44 #
coedge $-1 $111 $111 $178 $179 reversed $70 $-1 #
face $-1 $180 $181 $27 $-1 $182 reversed single #
loop $-1 $-1 $183 $72 #
plane-surface $-1 0 -18.647900680239388 0 0 1 0 0 0 1 forward_v I I I I #
coedge $-1 $184 $185 $186 $187 forward $73 $-1 #
coedge $-1 $188 $75 $189 $190 forward $46 $-1 #
coedge $-1 $75 $188 $191 $192 forward $46 $-1 #
coedge $-1 $193 $194 $75 $119 reversed $195 $-1 #
edge $-1 $196 -18.647900680239388 $197 18.647900680239388 $118 $198 forward 7 unknown #
face $-1 $199 $200 $28 $-1 $201 reversed single #
loop $-1 $-1 $202 $76 #
plane-surface $-1 0 0 -4.5760685991903101 0 0 1 1 0 0 forward_v I I I I #
coedge $-1 $203 $126 $204 $205 reversed $77 $-1 #
coedge $-1 $206 $79 $207 $208 reversed $49 $-1 #
coedge $-1 $79 $206 $209 $210 reversed $49 $-1 #
coedge $-1 $123 $211 $79 $127 reversed $77 $-1 #
edge $-1 $212 -18.647900680239388 $213 18.647900680239388 $126 $214 forward 7 unknown #
face $-1 $215 $216 $29 $-1 $217 reversed single #
loop $-1 $-1 $218 $80 #
plane-surface $-1 0 -18.647900680239388 0 0 1 0 0 0 1 forward_v I I I I #
coedge $-1 $219 $220 $221 $222 reversed $81 $-1 #
coedge $-1 $223 $83 $224 $225 reversed $52 $-1 #
coedge $-1 $83 $223 $218 $226 reversed $52 $-1 #
coedge $-1 $227 $228 $83 $135 forward $229 $-1 #
edge $-1 $230 -18.647900680239388 $231 18.647900680239388 $134 $232 forward 7 unknown #
face $-1 $233 $234 $30 $-1 $235 reversed single #
loop $-1 $-1 $236 $84 #
plane-surface $-1 -23.484881331199006 33.543873342351027 95.619682958084383 1 0 0 0 -0.52991927123019833 -0.84804809178421925 forward_v I I I I #
coedge $-1 $237 $238 $239 $240 reversed $85 $-1 #
coedge $-1 $141 $87 $241 $242 reversed $55 $-1 #
coedge $-1 $87 $140 $237 $243 reversed $55 $-1 #
coedge $-1 $239 $244 $87 $143 forward $234 $-1 #
edge $-1 $245 43.233772879851884 $246 46.408854202556213 $142 $247 forward 7 unknown #
loop $-1 $-1 $149 $88 #
plane-surface $-1 -18.592794668555026 -12.98073249507793 21.164751153377139 0 0.52991927123019833 0.84804809178421925 1 0 0 forward_v I I I I #
loop $-1 $-1 $248 $57 #
coedge $-1 $147 $147 $148 $249 reversed $89 $-1 #
coedge $-1 $148 $148 $147 $249 forward $91 $-1 #
coedge $-1 $149 $149 $92 $150 forward $144 $-1 #
edge $-1 $250 8.9488918195800028e-016 $250 6.2831853071796013 $149 $251 forward 7 unknown #
loop $-1 $-1 $156 $93 #
plane-surface $-1 -18.592794668555026 -12.98073249507793 21.164751153377139 0 0.52991927123019833 0.84804809178421925 1 0 0 forward_v I I I I #
loop $-1 $-1 $252 $60 #
coedge $-1 $154 $154 $155 $253 reversed $94 $-1 #
coedge $-1 $155 $155 $154 $253 forward $96 $-1 #
coedge $-1 $156 $156 $97 $157 forward $151 $-1 #
edge $-1 $254 8.9488918195800028e-016 $254 6.2831853071796013 $156 $255 forward 7 unknown #
face $-1 $256 $257 $33 $-1 $258 forward single #
loop $-1 $-1 $259 $98 #
plane-surface $-1 13.700708005911064 33.543873342351027 95.619682958084383 1 0 0 0 -0.52991927123019833 -0.84804809178421925 forward_v I I I I #
coedge $-1 $260 $261 $262 $263 reversed $99 $-1 #
coedge $-1 $163 $101 $264 $265 reversed $64 $-1 #
coedge $-1 $101 $162 $260 $266 reversed $64 $-1 #
coedge $-1 $262 $267 $101 $165 forward $268 $-1 #
edge $-1 $269 43.233772879851884 $270 46.408854202556213 $164 $271 forward 7 unknown #
loop $-1 $-1 $171 $102 #
plane-surface $-1 18.592794668555044 -12.98073249507793 21.164751153377139 0 0.52991927123019833 0.84804809178421925 1 0 0 forward_v I I I I #
loop $-1 $-1 $272 $66 #
coedge $-1 $169 $169 $170 $273 reversed $103 $-1 #
coedge $-1 $170 $170 $169 $273 forward $105 $-1 #
coedge $-1 $171 $171 $106 $172 forward $166 $-1 #
edge $-1 $274 8.9488918195800028e-016 $274 6.2831853071796013 $171 $275 forward 7 unknown #
loop $-1 $-1 $178 $107 #
plane-surface $-1 18.592794668555044 -12.98073249507793 21.164751153377139 0 0.52991927123019833 0.84804809178421925 1 0 0 forward_v I I I I #
loop $-1 $-1 $276 $69 #
coedge $-1 $176 $176 $177 $277 reversed $108 $-1 #
coedge $-1 $177 $177 $176 $277 forward $110 $-1 #
coedge $-1 $178 $178 $111 $179 forward $173 $-1 #
edge $-1 $278 8.9488918195800028e-016 $278 6.2831853071796013 $178 $279 forward 7 unknown #
face $-1 $280 $281 $27 $-1 $282 reversed single #
loop $-1 $-1 $283 $112 #
plane-surface $-1 -43.897824030274364 0 0 1 0 0 0 0 -1 forward_v I I I I #
coedge $-1 $284 $191 $285 $286 forward $113 $-1 #
coedge $-1 $287 $115 $284 $288 forward $73 $-1 #
coedge $-1 $115 $287 $289 $290 forward $73 $-1 #
coedge $-1 $194 $193 $115 $187 reversed $195 $-1 #
edge $-1 $291 -18.647900680239388 $292 18.647900680239388 $186 $293 forward 7 unknown #
coedge $-1 $117 $116 $294 $295 forward $46 $-1 #
coedge $-1 $296 $297 $116 $190 reversed $281 $-1 #
edge $-1 $197 -43.897824030274364 $298 43.897824030274364 $189 $299 forward 7 unknown #
coedge $-1 $183 $300 $117 $192 reversed $113 $-1 #
edge $-1 $301 -43.897824030274364 $196 43.897824030274364 $191 $302 forward 7 unknown #
coedge $-1 $186 $118 $300 $303 forward $195 $-1 #
coedge $-1 $118 $186 $296 $304 reversed $195 $-1 #
loop $-1 $-1 $193 $280 #
vertex $-1 $119 $305 #
vertex $-1 $119 $306 #
straight-curve $-1 43.897824030274364 0 4.5760685991903101 0 1 0 I I #
face $-1 $307 $308 $28 $-1 $309 reversed single #
loop $-1 $-1 $204 $120 #
plane-surface $-1 0 -18.647900680239388 0 0 1 0 0 0 1 forward_v I I I I #
coedge $-1 $310 $311 $203 $312 forward $121 $-1 #
coedge $-1 $211 $123 $202 $312 reversed $77 $-1 #
coedge $-1 $209 $313 $123 $205 forward $200 $-1 #
edge $-1 $314 -3.038034299595155 $212 -0.03803429959515503 $204 $315 forward 7 unknown #
coedge $-1 $125 $124 $316 $317 reversed $49 $-1 #
coedge $-1 $318 $319 $124 $208 forward $320 $-1 #
edge $-1 $321 -23.162727233881849 $213 -18.307466358903181 $207 $322 forward 7 unknown #
coedge $-1 $323 $204 $125 $210 forward $200 $-1 #
edge $-1 $212 18.307466358903181 $324 23.162727233881849 $209 $325 forward 7 unknown #
coedge $-1 $126 $203 $318 $326 reversed $77 $-1 #
vertex $-1 $210 $327 #
vertex $-1 $208 $328 #
straight-curve $-1 -39.042563155295696 0 -1.5760685991903101 0 1 0 I I #
face $-1 $329 $330 $29 $-1 $331 reversed single #
loop $-1 $-1 $332 $128 #
plane-surface $-1 0 0 -4.5760685991903101 0 0 1 1 0 0 forward_v I I I I #
coedge $-1 $333 $334 $133 $226 forward $129 $-1 #
coedge $-1 $335 $131 $332 $336 reversed $81 $-1 #
coedge $-1 $131 $335 $223 $337 reversed $81 $-1 #
coedge $-1 $224 $338 $131 $222 forward $330 $-1 #
edge $-1 $339 -3.038034299595155 $340 -0.03803429959515503 $221 $341 forward 7 unknown #
coedge $-1 $133 $132 $220 $337 forward $52 $-1 #
coedge $-1 $342 $221 $132 $225 forward $330 $-1 #
edge $-1 $340 18.307466358903177 $230 23.162727233881846 $224 $343 forward 7 unknown #
edge $-1 $231 -23.162727233881846 $344 -18.307466358903177 $218 $345 forward 7 unknown #
coedge $-1 $346 $134 $334 $347 forward $229 $-1 #
coedge $-1 $134 $346 $342 $348 reversed $229 $-1 #
loop $-1 $-1 $134 $329 #
vertex $-1 $348 $349 #
vertex $-1 $347 $350 #
straight-curve $-1 43.897824030274364 0 -1.5760685991903101 0 -1 0 I I #
face $-1 $-1 $351 $30 $-1 $352 forward single #
loop $-1 $-1 $142 $136 #
plane-surface $-1 0 18.647900680239388 0 0 -1 0 0 0 -1 forward_v I I I I #
coedge $-1 $353 $354 $355 $356 reversed $137 $-1 #
coedge $-1 $357 $139 $141 $243 forward $85 $-1 #
coedge $-1 $139 $357 $353 $358 forward $85 $-1 #
coedge $-1 $355 $142 $139 $240 forward $234 $-1 #
edge $-1 $246 4.4043106716335334 $359 14.188483996921493 $239 $360 forward 7 unknown #
coedge $-1 $361 $362 $140 $242 forward $351 $-1 #
edge $-1 $363 -3.2052281708850536 $245 1.8759640090638747 $241 $364 forward 7 unknown #
edge $-1 $246 -37.295801360478791 $363 -31.304169247660106 $141 $365 forward 7 unknown #
coedge $-1 $142 $355 $361 $366 reversed $234 $-1 #
vertex $-1 $366 $367 #
vertex $-1 $143 $368 #
straight-curve $-1 -13.700708005911046 18.647900680239388 47.809841479042191 0 0 -1 I I #
coedge $-1 $248 $248 $-1 $369 reversed $146 $-1 #
edge $-1 $370 0 $370 6.2831853071796004 $147 $371 forward 7 unknown #
vertex $-1 $150 $372 #
ellipse-curve $-1 -20.68940323825959 16.107304590264928 2.9885279378381431 0 0.52991927123019833 0.84804809178421925 1 0 0 1 I I #
coedge $-1 $252 $252 $-1 $373 reversed $153 $-1 #
edge $-1 $374 0 $374 6.2831853071796004 $154 $375 forward 7 unknown #
vertex $-1 $157 $376 #
ellipse-curve $-1 -16.496186098850465 16.107304590264928 2.9885279378381431 0 0.52991927123019833 0.84804809178421925 1 0 0 1 I I #
face $-1 $-1 $268 $33 $-1 $377 reversed single #
loop $-1 $-1 $378 $158 #
plane-surface $-1 0 0 4.5760685991903101 0 0 1 1 0 0 forward_v I I I I #
coedge $-1 $379 $380 $381 $382 reversed $159 $-1 #
coedge $-1 $383 $161 $163 $266 forward $99 $-1 #
coedge $-1 $161 $383 $379 $384 forward $99 $-1 #
coedge $-1 $381 $164 $161 $263 forward $268 $-1 #
edge $-1 $270 -14.188483996921502 $385 -4.4043106716335423 $262 $386 forward 7 unknown #
coedge $-1 $387 $388 $162 $265 forward $257 $-1 #
edge $-1 $389 -3.2052281708850536 $269 1.8759640090638747 $264 $390 forward 7 unknown #
edge $-1 $270 -37.295801360478791 $389 -31.304169247660106 $163 $391 forward 7 unknown #
coedge $-1 $164 $381 $387 $392 reversed $268 $-1 #
loop $-1 $-1 $381 $256 #
vertex $-1 $392 $393 #
vertex $-1 $165 $394 #
straight-curve $-1 23.484881331199023 18.647900680239388 47.809841479042191 0 0 -1 I I #
coedge $-1 $272 $272 $-1 $395 reversed $168 $-1 #
edge $-1 $396 0 $396 6.2831853071796004 $169 $397 forward 7 unknown #
vertex $-1 $172 $398 #
ellipse-curve $-1 16.496186098850487 16.107304590264928 2.9885279378381431 0 0.52991927123019833 0.84804809178421925 1 0 0 1 I I #
coedge $-1 $276 $276 $-1 $399 reversed $175 $-1 #
edge $-1 $400 0 $400 6.2831853071796004 $176 $401 forward 7 unknown #
vertex $-1 $179 $402 #
ellipse-curve $-1 20.689403238259615 16.107304590264928 2.9885279378381431 0 0.52991927123019833 0.84804809178421925 1 0 0 1 I I #
face $-1 $-1 $195 $27 $-1 $403 reversed single #
loop $-1 $-1 $296 $180 #
plane-surface $-1 0 18.647900680239388 0 0 -1 0 0 0 -1 forward_v I I I I #
coedge $-1 $404 $294 $297 $405 forward $181 $-1 #
coedge $-1 $300 $183 $184 $288 reversed $113 $-1 #
coedge $-1 $294 $404 $183 $286 reversed $181 $-1 #
edge $-1 $301 -4.5760685991903101 $406 4.5760685991903101 $285 $407 forward 7 unknown #
coedge $-1 $185 $184 $404 $408 forward $73 $-1 #
edge $-1 $292 -43.897824030274364 $406 43.897824030274364 $284 $409 forward 7 unknown #
coedge $-1 $297 $296 $185 $290 reversed $281 $-1 #
edge $-1 $410 -43.897824030274364 $291 43.897824030274364 $289 $411 forward 7 unknown #
vertex $-1 $187 $412 #
vertex $-1 $303 $413 #
straight-curve $-1 43.897824030274364 0 -4.5760685991903101 0 -1 0 I I #
coedge $-1 $283 $285 $188 $295 reversed $181 $-1 #
edge $-1 $298 -18.647900680239388 $301 18.647900680239388 $294 $414 forward 7 unknown #
coedge $-1 $289 $189 $194 $304 forward $281 $-1 #
coedge $-1 $189 $289 $283 $405 reversed $281 $-1 #
vertex $-1 $190 $415 #
straight-curve $-1 0 18.647900680239388 4.5760685991903101 -1 0 0 I I #
coedge $-1 $191 $284 $193 $303 reversed $113 $-1 #
vertex $-1 $295 $416 #
straight-curve $-1 0 -18.647900680239388 4.5760685991903101 1 0 0 I I #
edge $-1 $196 -4.5760685991903101 $292 4.5760685991903101 $193 $417 forward 7 unknown #
edge $-1 $197 -4.5760685991903101 $291 4.5760685991903101 $194 $418 forward 7 unknown #
point $-1 43.897824030274364 -18.647900680239388 4.5760685991903101 #
point $-1 43.897824030274364 18.647900680239388 4.5760685991903101 #
face $-1 $-1 $320 $28 $-1 $419 reversed single #
loop $-1 $-1 $316 $199 #
plane-surface $-1 -43.897824030274364 0 0 1 0 0 0 0 -1 forward_v I I I I #
coedge $-1 $420 $202 $313 $421 forward $121 $-1 #
coedge $-1 $202 $420 $422 $423 forward $121 $-1 #
edge $-1 $424 -18.647900680239388 $314 18.647900680239388 $202 $425 forward 7 unknown #
coedge $-1 $204 $323 $310 $421 reversed $200 $-1 #
vertex $-1 $421 $426 #
straight-curve $-1 -39.042563155295696 -18.647900680239388 -1.538034299595155 0 0 1 I I #
coedge $-1 $427 $428 $206 $317 forward $308 $-1 #
edge $-1 $324 -18.647900680239388 $321 18.647900680239388 $316 $429 forward 7 unknown #
coedge $-1 $422 $207 $211 $326 forward $320 $-1 #
coedge $-1 $207 $422 $427 $430 reversed $320 $-1 #
loop $-1 $-1 $318 $307 #
vertex $-1 $430 $431 #
straight-curve $-1 -20.735096796392515 18.647900680239388 -1.5760685991903101 1 0 0 I I #
coedge $-1 $313 $209 $428 $432 forward $200 $-1 #
vertex $-1 $432 $433 #
straight-curve $-1 -20.735096796392515 -18.647900680239388 -1.5760685991903101 -1 0 0 I I #
edge $-1 $213 0.03803429959515503 $424 3.038034299595155 $318 $434 forward 7 unknown #
point $-1 -39.042563155295696 -18.647900680239388 -1.5760685991903101 #
point $-1 -39.042563155295696 18.647900680239388 -1.5760685991903101 #
face $-1 $-1 $229 $29 $-1 $435 reversed single #
loop $-1 $-1 $224 $215 #
plane-surface $-1 0 18.647900680239388 0 0 -1 0 0 0 -1 forward_v I I I I #
coedge $-1 $436 $437 $219 $336 forward $216 $-1 #
coedge $-1 $438 $218 $335 $439 forward $129 $-1 #
coedge $-1 $218 $438 $227 $347 reversed $129 $-1 #
coedge $-1 $220 $219 $333 $439 reversed $81 $-1 #
edge $-1 $440 -18.647900680239388 $339 18.647900680239388 $332 $441 forward 7 unknown #
edge $-1 $340 -18.647900680239388 $344 18.647900680239388 $220 $442 forward 7 unknown #
coedge $-1 $221 $342 $436 $443 reversed $330 $-1 #
vertex $-1 $443 $444 #
vertex $-1 $225 $445 #
straight-curve $-1 39.042563155295689 18.647900680239388 -1.538034299595155 0 0 1 I I #
coedge $-1 $338 $224 $228 $348 forward $330 $-1 #
straight-curve $-1 20.735096796392511 18.647900680239388 -1.5760685991903101 1 0 0 I I #
vertex $-1 $226 $446 #
straight-curve $-1 20.735096796392511 -18.647900680239388 -1.5760685991903101 -1 0 0 I I #
coedge $-1 $228 $227 $447 $448 reversed $229 $-1 #
edge $-1 $231 1.5760685991903101 $449 4.5760685991903101 $227 $450 forward 7 unknown #
edge $-1 $230 1.5760685991903101 $451 4.5760685991903101 $228 $452 forward 7 unknown #
point $-1 43.897824030274357 18.647900680239388 -1.5760685991903101 #
point $-1 43.897824030274357 -18.647900680239388 -1.5760685991903101 #
loop $-1 $-1 $241 $233 #
plane-surface $-1 0 0 4.5760685991903101 0 0 1 1 0 0 forward_v I I I I #
coedge $-1 $354 $236 $238 $358 reversed $137 $-1 #
coedge $-1 $236 $353 $453 $454 reversed $137 $-1 #
coedge $-1 $244 $239 $236 $356 forward $234 $-1 #
edge $-1 $359 -46.408854202556213 $455 -43.233772879851884 $355 $456 forward 7 unknown #
coedge $-1 $238 $237 $362 $457 reversed $85 $-1 #
edge $-1 $458 31.304169247660106 $359 37.295801360478791 $353 $459 forward 7 unknown #
vertex $-1 $240 $460 #
straight-curve $-1 -9.296397334277513 18.647900680239392 1.4009872764859832 -1 0 0 I I #
coedge $-1 $453 $241 $244 $366 forward $351 $-1 #
coedge $-1 $241 $453 $357 $457 forward $351 $-1 #
vertex $-1 $242 $461 #
straight-curve $-1 -13.700708005911046 16.771936671175514 4.5760685991903074 0 1 0 I I #
straight-curve $-1 -13.700708005911046 -12.98073249507793 21.164751153377139 0 -0.84804809178421925 0.52991927123019833 I I #
edge $-1 $245 13.700708005911046 $455 23.484881331199006 $244 $462 forward 7 unknown #
point $-1 -13.700708005911046 18.647900680239388 4.5760685991903101 #
point $-1 -13.700708005911046 18.647900680239392 1.4009872764859814 #
edge $-1 $463 1 $463 0 $248 $-1 forward 7 unknown #
vertex $-1 $249 $464 #
ellipse-curve $-1 -20.68940323825959 14.875149697972148 1.0166679547775102 0 0.52991927123019833 0.84804809178421925 1 0 0 1 I I #
point $-1 -19.68940323825959 16.107304590264931 2.9885279378381471 #
edge $-1 $465 1 $465 0 $252 $-1 forward 7 unknown #
vertex $-1 $253 $466 #
ellipse-curve $-1 -16.496186098850465 14.875149697972148 1.0166679547775102 0 0.52991927123019833 0.84804809178421925 1 0 0 1 I I #
point $-1 -15.496186098850465 16.107304590264931 2.9885279378381471 #
plane-surface $-1 0 18.647900680239388 0 0 -1 0 0 0 -1 forward_v I I I I #
coedge $-1 $388 $387 $380 $467 forward $257 $-1 #
coedge $-1 $380 $259 $261 $384 reversed $159 $-1 #
coedge $-1 $259 $379 $378 $467 reversed $159 $-1 #
coedge $-1 $267 $262 $259 $382 forward $268 $-1 #
edge $-1 $385 -46.408854202556213 $468 -43.233772879851884 $381 $469 forward 7 unknown #
coedge $-1 $261 $260 $388 $470 reversed $99 $-1 #
edge $-1 $471 31.304169247660106 $385 37.295801360478791 $379 $472 forward 7 unknown #
vertex $-1 $263 $473 #
straight-curve $-1 9.2963973342775219 18.647900680239392 1.4009872764859832 -1 0 0 I I #
coedge $-1 $378 $264 $267 $392 forward $257 $-1 #
coedge $-1 $264 $378 $383 $470 forward $257 $-1 #
vertex $-1 $265 $474 #
straight-curve $-1 23.484881331199023 16.771936671175514 4.5760685991903074 0 1 0 I I #
straight-curve $-1 23.484881331199023 -12.98073249507793 21.164751153377139 0 -0.84804809178421925 0.52991927123019833 I I #
edge $-1 $269 -23.484881331199023 $468 -13.700708005911064 $267 $475 forward 7 unknown #
point $-1 23.484881331199023 18.647900680239388 4.5760685991903101 #
point $-1 23.484881331199023 18.647900680239392 1.4009872764859814 #
edge $-1 $476 1 $476 0 $272 $-1 forward 7 unknown #
vertex $-1 $273 $477 #
ellipse-curve $-1 16.496186098850487 14.875149697972148 1.0166679547775102 0 0.52991927123019833 0.84804809178421925 1 0 0 1 I I #
point $-1 17.496186098850487 16.107304590264931 2.9885279378381471 #
edge $-1 $478 1 $478 0 $276 $-1 forward 7 unknown #
vertex $-1 $277 $479 #
ellipse-curve $-1 20.689403238259615 14.875149697972148 1.0166679547775102 0 0.52991927123019833 0.84804809178421925 1 0 0 1 I I #
point $-1 21.689403238259615 16.107304590264931 2.9885279378381471 #
plane-surface $-1 43.897824030274364 0 0 -1 0 0 0 0 1 forward_v I I I I #
coedge $-1 $285 $283 $287 $408 reversed $181 $-1 #
edge $-1 $298 -4.5760685991903101 $410 4.5760685991903101 $297 $480 forward 7 unknown #
vertex $-1 $408 $481 #
straight-curve $-1 -43.897824030274364 -18.647900680239388 0 0 0 -1 I I #
edge $-1 $406 -18.647900680239388 $410 18.647900680239388 $404 $482 forward 7 unknown #
straight-curve $-1 0 -18.647900680239388 -4.5760685991903101 -1 0 0 I I #
vertex $-1 $290 $483 #
straight-curve $-1 0 18.647900680239388 -4.5760685991903101 1 0 0 I I #
point $-1 43.897824030274364 18.647900680239388 -4.5760685991903101 #
point $-1 43.897824030274364 -18.647900680239388 -4.5760685991903101 #
straight-curve $-1 -43.897824030274364 0 4.5760685991903101 0 -1 0 I I #
point $-1 -43.897824030274364 18.647900680239388 4.5760685991903101 #
point $-1 -43.897824030274364 -18.647900680239388 4.5760685991903101 #
straight-curve $-1 43.897824030274364 -18.647900680239388 0 0 0 -1 I I #
straight-curve $-1 43.897824030274364 18.647900680239388 0 0 0 -1 I I #
plane-surface $-1 0 18.647900680239388 0 0 -1 0 0 0 -1 forward_v I I I I #
coedge $-1 $311 $310 $484 $485 forward $121 $-1 #
edge $-1 $314 39.042563155295696 $486 43.897824030274364 $313 $487 forward 7 unknown #
coedge $-1 $319 $318 $311 $423 reversed $320 $-1 #
edge $-1 $488 -43.897824030274364 $424 -39.042563155295696 $422 $489 forward 7 unknown #
vertex $-1 $326 $490 #
straight-curve $-1 -39.042563155295696 0 -4.5760685991903101 0 -1 0 I I #
point $-1 -39.042563155295696 -18.647900680239388 -4.5760685991903101 #
coedge $-1 $484 $316 $319 $430 forward $308 $-1 #
coedge $-1 $316 $484 $323 $432 reversed $308 $-1 #
straight-curve $-1 -43.897824030274364 0 -1.5760685991903101 0 1 0 I I #
edge $-1 $321 1.5760685991903101 $488 4.5760685991903101 $319 $491 forward 7 unknown #
point $-1 -43.897824030274364 18.647900680239388 -1.5760685991903101 #
edge $-1 $324 1.5760685991903101 $486 4.5760685991903101 $428 $492 forward 7 unknown #
point $-1 -43.897824030274364 -18.647900680239388 -1.5760685991903101 #
straight-curve $-1 -39.042563155295696 18.647900680239388 -1.538034299595155 0 0 -1 I I #
plane-surface $-1 43.897824030274364 0 0 -1 0 0 0 0 1 forward_v I I I I #
coedge $-1 $447 $332 $338 $443 forward $216 $-1 #
coedge $-1 $332 $447 $438 $493 forward $216 $-1 #
coedge $-1 $334 $333 $437 $493 reversed $129 $-1 #
edge $-1 $344 0.03803429959515503 $440 3.038034299595155 $333 $494 forward 7 unknown #
vertex $-1 $336 $495 #
straight-curve $-1 39.042563155295689 0 -4.5760685991903101 0 1 0 I I #
straight-curve $-1 39.042563155295689 0 -1.5760685991903101 0 -1 0 I I #
edge $-1 $339 39.042563155295689 $451 43.897824030274364 $338 $496 forward 7 unknown #
point $-1 39.042563155295689 18.647900680239388 -4.5760685991903101 #
point $-1 39.042563155295689 18.647900680239388 -1.5760685991903101 #
point $-1 39.042563155295689 -18.647900680239388 -1.5760685991903101 #
coedge $-1 $437 $436 $346 $448 forward $216 $-1 #
edge $-1 $451 -18.647900680239388 $449 18.647900680239388 $346 $497 forward 7 unknown #
vertex $-1 $347 $498 #
straight-curve $-1 43.897824030274364 -18.647900680239388 0 0 0 -1 I I #
vertex $-1 $448 $499 #
straight-curve $-1 43.897824030274364 18.647900680239388 0 0 0 -1 I I #
coedge $-1 $362 $361 $354 $454 forward $351 $-1 #
edge $-1 $455 -1.8759640090638747 $458 3.2052281708850536 $453 $500 forward 7 unknown #
vertex $-1 $454 $501 #
straight-curve $-1 -23.484881331199006 18.647900680239388 47.809841479042191 0 0 1 I I #
edge $-1 $458 -14.188483996921493 $363 -4.4043106716335334 $362 $502 forward 7 unknown #
vertex $-1 $457 $503 #
straight-curve $-1 -23.484881331199006 -12.98073249507793 21.164751153377139 0 0.84804809178421925 -0.52991927123019833 I I #
point $-1 -23.484881331199006 18.647900680239392 1.4009872764859814 #
point $-1 -13.700708005911046 13.56670850029046 4.5760685991903109 #
straight-curve $-1 0 18.647900680239388 4.5760685991903101 -1 0 0 I I #
vertex $-1 $369 $504 #
point $-1 -19.68940323825959 14.875149697972148 1.0166679547775102 #
vertex $-1 $373 $505 #
point $-1 -15.496186098850465 14.875149697972148 1.0166679547775102 #
edge $-1 $468 -1.8759640090638747 $471 3.2052281708850536 $378 $506 forward 7 unknown #
vertex $-1 $467 $507 #
straight-curve $-1 13.700708005911064 18.647900680239388 47.809841479042191 0 0 1 I I #
edge $-1 $471 4.4043106716335423 $389 14.188483996921502 $388 $508 forward 7 unknown #
vertex $-1 $470 $509 #
straight-curve $-1 13.700708005911064 -12.98073249507793 21.164751153377139 0 0.84804809178421925 -0.52991927123019833 I I #
point $-1 13.700708005911064 18.647900680239392 1.4009872764859814 #
point $-1 23.484881331199023 13.56670850029046 4.5760685991903109 #
straight-curve $-1 0 18.647900680239388 4.5760685991903101 -1 0 0 I I #
vertex $-1 $395 $510 #
point $-1 17.496186098850487 14.875149697972148 1.0166679547775102 #
vertex $-1 $399 $511 #
point $-1 21.689403238259615 14.875149697972148 1.0166679547775102 #
straight-curve $-1 -43.897824030274364 18.647900680239388 0 0 0 -1 I I #
point $-1 -43.897824030274364 -18.647900680239388 -4.5760685991903101 #
straight-curve $-1 -43.897824030274364 0 -4.5760685991903101 0 1 0 I I #
point $-1 -43.897824030274364 18.647900680239388 -4.5760685991903101 #
coedge $-1 $428 $427 $420 $485 reversed $308 $-1 #
edge $-1 $486 -18.647900680239388 $488 18.647900680239388 $484 $512 forward 7 unknown #
vertex $-1 $485 $513 #
straight-curve $-1 0 -18.647900680239388 -4.5760685991903101 -1 0 0 I I #
vertex $-1 $423 $514 #
straight-curve $-1 0 18.647900680239388 -4.5760685991903101 1 0 0 I I #
point $-1 -39.042563155295696 18.647900680239388 -4.5760685991903101 #
straight-curve $-1 -43.897824030274364 18.647900680239388 0 0 0 -1 I I #
straight-curve $-1 -43.897824030274364 -18.647900680239388 0 0 0 -1 I I #
edge $-1 $449 -43.897824030274364 $440 -39.042563155295689 $438 $515 forward 7 unknown #
straight-curve $-1 39.042563155295689 -18.647900680239388 -1.538034299595155 0 0 -1 I I #
point $-1 39.042563155295689 -18.647900680239388 -4.5760685991903101 #
straight-curve $-1 0 18.647900680239388 -4.5760685991903101 1 0 0 I I #
straight-curve $-1 43.897824030274364 0 -4.5760685991903101 0 -1 0 I I #
point $-1 43.897824030274364 -18.647900680239388 -4.5760685991903101 #
point $-1 43.897824030274364 18.647900680239388 -4.5760685991903101 #
straight-curve $-1 -23.484881331199006 16.771936671175514 4.5760685991903074 0 -1 0 I I #
point $-1 -23.484881331199006 18.647900680239388 4.5760685991903101 #
straight-curve $-1 -9.296397334277513 13.566708500290462 4.5760685991903092 1 0 0 I I #
point $-1 -23.484881331199006 13.56670850029046 4.5760685991903109 #
point $-1 -20.68940323825959 14.345230426741949 0.1686198629932909 #
point $-1 -16.496186098850465 14.345230426741949 0.1686198629932909 #
straight-curve $-1 13.700708005911064 16.771936671175514 4.5760685991903074 0 -1 0 I I #
point $-1 13.700708005911064 18.647900680239388 4.5760685991903101 #
straight-curve $-1 9.2963973342775219 13.566708500290462 4.5760685991903092 1 0 0 I I #
point $-1 13.700708005911064 13.56670850029046 4.5760685991903109 #
point $-1 16.496186098850487 14.345230426741949 0.1686198629932909 #
point $-1 20.689403238259615 14.345230426741949 0.1686198629932909 #
straight-curve $-1 -43.897824030274364 0 -4.5760685991903101 0 1 0 I I #
point $-1 -43.897824030274364 -18.647900680239388 -4.5760685991903101 #
point $-1 -43.897824030274364 18.647900680239388 -4.5760685991903101 #
straight-curve $-1 0 -18.647900680239388 -4.5760685991903101 -1 0 0 I I #
End-of-ACIS-data 