500 0 9 0           
7 Unknown 11 ACIS 5.0 NT 24 Thu Mar 25 20:52:37 1999 
-1 9.9999999999999995e-007 1e-010 
body $-1 $9 $-1 $10 #
body $-1 $11 $-1 $12 #
body $-1 $13 $-1 $14 #
body $-1 $15 $-1 $16 #
body $-1 $17 $-1 $18 #
body $-1 $19 $-1 $20 #
body $-1 $21 $-1 $22 #
body $-1 $23 $-1 $24 #
body $-1 $25 $-1 $26 #
lump $-1 $-1 $27 $0 #
transform $-1 1 0 0 0 1 0 0 0 1 52.609027375102997 35.967992613460794 9.0317893985886855 1 rotate no_reflect no_shear #
lump $-1 $-1 $28 $1 #
transform $-1 1 0 0 0 1 0 0 0 1 52.609027375102997 35.967992613460794 9.0317893985886855 1 rotate no_reflect no_shear #
lump $-1 $-1 $29 $2 #
transform $-1 1 0 0 0 1 0 0 0 1 52.609027375102997 35.967992613460794 9.0317893985886855 1 rotate no_reflect no_shear #
lump $-1 $-1 $30 $3 #
transform $-1 1 0 0 0 1 0 0 0 1 52.609027375102997 35.967992613460794 9.0317893985886855 1 rotate no_reflect no_shear #
lump $-1 $-1 $31 $4 #
transform $-1 1 0 0 0 1 0 0 0 1 52.609027375102997 35.967992613460794 9.0317893985886855 1 rotate no_reflect no_shear #
lump $-1 $-1 $32 $5 #
transform $-1 1 0 0 0 1 0 0 0 1 52.609027375102997 35.967992613460794 9.0317893985886855 1 rotate no_reflect no_shear #
lump $-1 $-1 $33 $6 #
transform $-1 1 0 0 0 1 0 0 0 1 52.609027375102997 35.967992613460794 9.0317893985886855 1 rotate no_reflect no_shear #
lump $-1 $-1 $34 $7 #
transform $-1 1 0 0 0 1 0 0 0 1 52.609027375102997 35.967992613460794 9.0317893985886855 1 rotate no_reflect no_shear #
lump $-1 $-1 $35 $8 #
transform $-1 1 0 0 0 1 0 0 0 1 52.609027375102997 35.967992613460794 9.0317893985886855 1 rotate no_reflect no_shear #
shell $-1 $-1 $-1 $36 $-1 $9 #
shell $-1 $-1 $-1 $37 $-1 $11 #
shell $-1 $-1 $-1 $38 $-1 $13 #
shell $-1 $-1 $-1 $39 $-1 $15 #
shell $-1 $-1 $-1 $40 $-1 $17 #
shell $-1 $-1 $-1 $41 $-1 $19 #
shell $-1 $-1 $-1 $42 $-1 $21 #
shell $-1 $-1 $-1 $43 $-1 $23 #
shell $-1 $-1 $-1 $44 $-1 $25 #
face $-1 $45 $46 $27 $-1 $47 forward single #
face $-1 $48 $49 $28 $-1 $50 reversed single #
face $-1 $51 $52 $29 $-1 $53 reversed single #
face $-1 $54 $55 $30 $-1 $56 reversed single #
face $-1 $57 $58 $31 $-1 $59 forward single #
face $-1 $60 $61 $32 $-1 $62 reversed single #
face $-1 $63 $64 $33 $-1 $65 forward single #
face $-1 $66 $67 $34 $-1 $68 forward single #
face $-1 $69 $70 $35 $-1 $71 forward single #
face $-1 $72 $73 $27 $-1 $74 reversed single #
loop $-1 $-1 $75 $36 #
plane-surface $-1 0 0 9.0317893985886855 0 0 1 1 0 0 forward_v I I I I #
face $-1 $76 $77 $28 $-1 $78 reversed single #
loop $-1 $-1 $79 $37 #
plane-surface $-1 0 -31.199589843541947 4.3363173564438986 0 0 1 1 0 0 forward_v I I I I #
face $-1 $80 $81 $29 $-1 $82 reversed single #
loop $-1 $-1 $83 $38 #
plane-surface $-1 0 31.199589843541943 4.3363173564438986 0 0 1 1 0 0 forward_v I I I I #
face $-1 $84 $85 $30 $-1 $86 reversed single #
loop $-1 $-1 $87 $39 #
plane-surface $-1 57.802102207330506 13.386842770731697 153.65770554589892 0 1 0 0.73135370988377701 0 0.68199835119979291 forward_v I I I I #
face $-1 $88 $89 $31 $-1 $90 forward single #
loop $-1 $91 $92 $40 #
cone-surface $-1 49.618526171304076 19.909014922177398 5.9767776630016005 -0.73135370988377701 0 -0.68199835119979291 0.68199835119979291 0 -0.73135370988377701 1 I I 0 1 1 forward I I I I #
face $-1 $93 $94 $32 $-1 $95 reversed single #
loop $-1 $-1 $96 $41 #
plane-surface $-1 -112.95962503630804 16.100418188994102 88.643939031959349 0 1 0 -0.57357644374324357 0 0.81915203911291934 forward_v I I I I #
face $-1 $97 $98 $33 $-1 $99 forward single #
loop $-1 $100 $101 $42 #
cone-surface $-1 -47.446391219947657 18.1665719659199 5.0777533141434219 0.57357644374324357 0 -0.81915203911291934 0.81915203911291934 0 0.57357644374324357 1 I I 0 1 1 forward I I I I #
face $-1 $102 $103 $34 $-1 $104 forward single #
loop $-1 $105 $106 $43 #
cone-surface $-1 -47.446391219947657 21.265802631308603 5.0777533141434219 0.57357644374324357 0 -0.81915203911291934 0.81915203911291934 0 0.57357644374324357 1 I I 0 1 1 forward I I I I #
face $-1 $107 $108 $35 $-1 $109 forward single #
loop $-1 $110 $111 $44 #
cone-surface $-1 -47.446391219947657 24.365033296697305 5.0777533141434219 0.57357644374324357 0 -0.81915203911291934 0.81915203911291934 0 0.57357644374324357 1 I I 0 1 1 forward I I I I #
face $-1 $112 $113 $27 $-1 $114 reversed single #
loop $-1 $-1 $115 $45 #
plane-surface $-1 0 0 -9.0317893985886855 0 0 1 1 0 0 forward_v I I I I #
coedge $-1 $116 $117 $118 $119 forward $46 $-1 #
face $-1 $120 $121 $28 $-1 $122 reversed single #
loop $-1 $-1 $123 $48 #
plane-surface $-1 0 -26.4311870736231 6.6840533775162925 0 -1 0 0 0 -1 forward_v I I I I #
coedge $-1 $124 $125 $126 $127 reversed $49 $-1 #
face $-1 $128 $129 $29 $-1 $130 forward single #
loop $-1 $-1 $131 $51 #
plane-surface $-1 0 26.431187073623096 6.6840533775162925 0 1 0 0 0 1 forward_v I I I I #
coedge $-1 $132 $133 $134 $135 reversed $52 $-1 #
face $-1 $136 $137 $30 $-1 $138 forward single #
loop $-1 $-1 $139 $54 #
plane-surface $-1 -19.149512480987013 19.909014922177398 81.899165689808896 0.73135370988377701 0 0.68199835119979291 0.68199835119979291 0 -0.73135370988377701 forward_v I I I I #
coedge $-1 $140 $141 $142 $143 reversed $55 $-1 #
face $-1 $-1 $144 $31 $-1 $145 forward single #
loop $-1 $146 $147 $57 #
cone-surface $-1 48.166655026634899 19.909014922177398 4.6228859503632833 -0.73135370988377701 0 -0.68199835119979291 0.34099917559989645 0 -0.36567685494188851 1 I I -0.70710678118654746 0.70710678118654746 0.5 forward I I I I #
loop $-1 $-1 $148 $40 #
coedge $-1 $92 $92 $149 $150 reversed $58 $-1 #
face $-1 $151 $152 $32 $-1 $153 forward single #
loop $-1 $-1 $154 $60 #
plane-surface $-1 -52.60902737510299 21.265802631308603 2.454354931833322 -0.57357644374324357 0 0.81915203911291934 0.81915203911291934 0 0.57357644374324357 forward_v I I I I #
coedge $-1 $155 $156 $157 $158 reversed $61 $-1 #
face $-1 $-1 $159 $33 $-1 $160 forward single #
loop $-1 $161 $162 $63 #
cone-surface $-1 -46.693741714297822 18.1665719659199 4.0028584435193739 0.57357644374324357 0 -0.81915203911291934 0.40957601955645967 0 0.28678822187162178 1 I I -0.70710678118654746 0.70710678118654746 0.5 forward I I I I #
loop $-1 $-1 $163 $42 #
coedge $-1 $101 $101 $164 $165 reversed $64 $-1 #
face $-1 $-1 $166 $34 $-1 $167 forward single #
loop $-1 $168 $169 $66 #
cone-surface $-1 -46.693741714297822 21.265802631308603 4.0028584435193739 0.57357644374324357 0 -0.81915203911291934 0.40957601955645967 0 0.28678822187162178 1 I I -0.70710678118654746 0.70710678118654746 0.5 forward I I I I #
loop $-1 $-1 $170 $43 #
coedge $-1 $106 $106 $171 $172 reversed $67 $-1 #
face $-1 $-1 $173 $35 $-1 $174 forward single #
loop $-1 $175 $176 $69 #
cone-surface $-1 -46.693741714297822 24.365033296697305 4.0028584435193739 0.57357644374324357 0 -0.81915203911291934 0.40957601955645967 0 0.28678822187162178 1 I I -0.70710678118654746 0.70710678118654746 0.5 forward I I I I #
loop $-1 $-1 $177 $44 #
coedge $-1 $111 $111 $178 $179 reversed $70 $-1 #
face $-1 $180 $181 $27 $-1 $182 reversed single #
loop $-1 $-1 $183 $72 #
plane-surface $-1 0 -35.967992613460794 0 0 1 0 0 0 1 forward_v I I I I #
coedge $-1 $184 $185 $186 $187 forward $73 $-1 #
coedge $-1 $188 $75 $189 $190 forward $46 $-1 #
coedge $-1 $75 $188 $191 $192 forward $46 $-1 #
coedge $-1 $193 $194 $75 $119 reversed $195 $-1 #
edge $-1 $196 -35.967992613460794 $197 35.967992613460794 $118 $198 forward 7 unknown #
face $-1 $199 $200 $28 $-1 $201 reversed single #
loop $-1 $-1 $202 $76 #
plane-surface $-1 -52.609027375102997 0 0 1 0 0 0 0 -1 forward_v I I I I #
coedge $-1 $203 $204 $205 $206 reversed $77 $-1 #
coedge $-1 $207 $79 $208 $209 reversed $49 $-1 #
coedge $-1 $79 $207 $203 $210 forward $49 $-1 #
coedge $-1 $205 $211 $79 $127 forward $212 $-1 #
edge $-1 $213 -20.368197691689822 $214 -10.831392151852127 $126 $215 forward 7 unknown #
face $-1 $216 $217 $29 $-1 $218 reversed single #
loop $-1 $-1 $219 $80 #
plane-surface $-1 0 0 9.0317893985886855 0 0 1 1 0 0 forward_v I I I I #
coedge $-1 $220 $221 $132 $222 reversed $81 $-1 #
coedge $-1 $223 $83 $131 $222 forward $52 $-1 #
coedge $-1 $83 $223 $224 $225 reversed $52 $-1 #
coedge $-1 $226 $227 $83 $135 forward $217 $-1 #
edge $-1 $228 10.831392151852125 $229 20.368197691689822 $134 $230 forward 7 unknown #
face $-1 $231 $232 $30 $-1 $233 reversed single #
loop $-1 $-1 $234 $84 #
plane-surface $-1 0 0 9.0317893985886855 0 0 1 1 0 0 forward_v I I I I #
coedge $-1 $235 $236 $237 $238 reversed $85 $-1 #
coedge $-1 $141 $87 $239 $240 reversed $55 $-1 #
coedge $-1 $87 $140 $235 $241 reversed $55 $-1 #
coedge $-1 $237 $242 $87 $143 forward $232 $-1 #
edge $-1 $243 67.797063374360775 $244 71.88130177145807 $142 $245 forward 7 unknown #
loop $-1 $-1 $149 $88 #
plane-surface $-1 -19.149512480987013 19.909014922177398 81.899165689808896 0.73135370988377701 0 0.68199835119979291 0.68199835119979291 0 -0.73135370988377701 forward_v I I I I #
loop $-1 $-1 $246 $57 #
coedge $-1 $147 $147 $148 $247 reversed $89 $-1 #
coedge $-1 $148 $148 $147 $247 forward $91 $-1 #
coedge $-1 $149 $149 $92 $150 forward $144 $-1 #
edge $-1 $248 0 $248 6.2831853071796004 $149 $249 forward 7 unknown #
face $-1 $250 $251 $32 $-1 $252 forward single #
loop $-1 $-1 $157 $93 #
plane-surface $-1 0 0 9.0317893985886855 0 0 1 1 0 0 forward_v I I I I #
coedge $-1 $253 $254 $255 $256 reversed $94 $-1 #
coedge $-1 $156 $96 $257 $258 reversed $61 $-1 #
coedge $-1 $96 $155 $253 $259 reversed $61 $-1 #
coedge $-1 $255 $260 $96 $158 forward $152 $-1 #
edge $-1 $261 3.8707851430510232 $262 13.264334885805297 $157 $263 forward 7 unknown #
loop $-1 $-1 $164 $97 #
plane-surface $-1 -52.60902737510299 21.265802631308603 2.454354931833322 -0.57357644374324357 0 0.81915203911291934 0.81915203911291934 0 0.57357644374324357 forward_v I I I I #
loop $-1 $-1 $264 $63 #
coedge $-1 $162 $162 $163 $265 reversed $98 $-1 #
coedge $-1 $163 $163 $162 $265 forward $100 $-1 #
coedge $-1 $164 $164 $101 $165 forward $159 $-1 #
edge $-1 $266 0 $266 6.2831853071796004 $164 $267 forward 7 unknown #
loop $-1 $-1 $171 $102 #
plane-surface $-1 -52.60902737510299 21.265802631308603 2.454354931833322 -0.57357644374324357 0 0.81915203911291934 0.81915203911291934 0 0.57357644374324357 forward_v I I I I #
loop $-1 $-1 $268 $66 #
coedge $-1 $169 $169 $170 $269 reversed $103 $-1 #
coedge $-1 $170 $170 $169 $269 forward $105 $-1 #
coedge $-1 $171 $171 $106 $172 forward $166 $-1 #
edge $-1 $270 0 $270 6.2831853071796004 $171 $271 forward 7 unknown #
loop $-1 $-1 $178 $107 #
plane-surface $-1 -52.60902737510299 21.265802631308603 2.454354931833322 -0.57357644374324357 0 0.81915203911291934 0.81915203911291934 0 0.57357644374324357 forward_v I I I I #
loop $-1 $-1 $272 $69 #
coedge $-1 $176 $176 $177 $273 reversed $108 $-1 #
coedge $-1 $177 $177 $176 $273 forward $110 $-1 #
coedge $-1 $178 $178 $111 $179 forward $173 $-1 #
edge $-1 $274 0 $274 6.2831853071796004 $178 $275 forward 7 unknown #
face $-1 $276 $277 $27 $-1 $278 reversed single #
loop $-1 $-1 $279 $112 #
plane-surface $-1 -52.609027375102997 0 0 1 0 0 0 0 -1 forward_v I I I I #
coedge $-1 $280 $191 $281 $282 forward $113 $-1 #
coedge $-1 $283 $115 $280 $284 forward $73 $-1 #
coedge $-1 $115 $283 $285 $286 forward $73 $-1 #
coedge $-1 $194 $193 $115 $187 reversed $195 $-1 #
edge $-1 $287 -35.967992613460794 $288 35.967992613460794 $186 $289 forward 7 unknown #
coedge $-1 $117 $116 $290 $291 forward $46 $-1 #
coedge $-1 $292 $293 $116 $190 reversed $277 $-1 #
edge $-1 $197 -52.609027375102997 $294 52.609027375102997 $189 $295 forward 7 unknown #
coedge $-1 $183 $296 $117 $192 reversed $113 $-1 #
edge $-1 $297 -52.609027375102997 $196 52.609027375102997 $191 $298 forward 7 unknown #
coedge $-1 $186 $118 $296 $299 forward $195 $-1 #
coedge $-1 $118 $186 $292 $300 reversed $195 $-1 #
loop $-1 $-1 $193 $276 #
vertex $-1 $119 $301 #
vertex $-1 $119 $302 #
straight-curve $-1 52.609027375102997 0 9.0317893985886855 0 1 0 I I #
face $-1 $303 $304 $28 $-1 $305 forward single #
loop $-1 $-1 $208 $120 #
plane-surface $-1 0 -35.967992613460794 0 0 1 0 0 0 1 forward_v I I I I #
coedge $-1 $306 $307 $308 $309 forward $121 $-1 #
coedge $-1 $308 $123 $125 $210 reversed $77 $-1 #
coedge $-1 $123 $308 $310 $311 reversed $77 $-1 #
coedge $-1 $312 $126 $123 $206 forward $212 $-1 #
edge $-1 $214 0.99429066768575236 $313 5.6897627098305392 $205 $314 forward 7 unknown #
coedge $-1 $125 $124 $306 $315 reversed $49 $-1 #
coedge $-1 $316 $317 $124 $209 forward $200 $-1 #
edge $-1 $318 -52.609027375102997 $213 52.609027375102997 $208 $319 forward 7 unknown #
edge $-1 $320 -52.609027375102997 $214 52.609027375102997 $203 $321 forward 7 unknown #
coedge $-1 $126 $312 $316 $322 forward $212 $-1 #
loop $-1 $-1 $205 $303 #
vertex $-1 $209 $323 #
vertex $-1 $127 $324 #
straight-curve $-1 52.609027375102997 -15.599794921770973 4.3363173564438986 0 1 0 I I #
face $-1 $325 $326 $29 $-1 $327 reversed single #
loop $-1 $-1 $227 $128 #
plane-surface $-1 52.609027375102997 0 0 -1 0 0 0 0 1 forward_v I I I I #
coedge $-1 $328 $329 $330 $331 forward $129 $-1 #
coedge $-1 $330 $131 $227 $332 reversed $81 $-1 #
coedge $-1 $131 $330 $333 $334 reversed $81 $-1 #
edge $-1 $228 -52.609027375102997 $335 52.609027375102997 $131 $336 forward 7 unknown #
coedge $-1 $133 $132 $337 $338 reversed $52 $-1 #
coedge $-1 $339 $340 $133 $225 forward $341 $-1 #
edge $-1 $229 -52.609027375102997 $342 52.609027375102997 $224 $343 forward 7 unknown #
coedge $-1 $344 $134 $340 $345 reversed $217 $-1 #
coedge $-1 $134 $344 $220 $332 forward $217 $-1 #
vertex $-1 $135 $346 #
vertex $-1 $225 $347 #
straight-curve $-1 52.609027375102997 15.599794921770972 4.3363173564438986 0 1 0 I I #
face $-1 $-1 $348 $30 $-1 $349 forward single #
loop $-1 $-1 $142 $136 #
plane-surface $-1 52.609027375102997 0 0 -1 0 0 0 0 1 forward_v I I I I #
coedge $-1 $239 $350 $351 $352 forward $137 $-1 #
coedge $-1 $351 $139 $141 $241 forward $85 $-1 #
coedge $-1 $139 $351 $353 $354 reversed $85 $-1 #
coedge $-1 $355 $142 $139 $238 forward $232 $-1 #
edge $-1 $244 3.4323353096429976 $356 16.476679612534397 $237 $357 forward 7 unknown #
coedge $-1 $358 $234 $140 $240 forward $137 $-1 #
edge $-1 $359 19.899362443294478 $243 23.707976271437744 $239 $360 forward 7 unknown #
edge $-1 $244 -105.21805475020597 $359 -99.633563495288655 $141 $361 forward 7 unknown #
coedge $-1 $142 $355 $358 $362 reversed $232 $-1 #
vertex $-1 $362 $363 #
vertex $-1 $143 $364 #
straight-curve $-1 52.609027375102997 13.386842770731697 76.82885277294946 0 0 -1 I I #
coedge $-1 $246 $246 $-1 $365 reversed $146 $-1 #
edge $-1 $366 0 $366 6.2831853071796004 $147 $367 forward 7 unknown #
vertex $-1 $150 $368 #
ellipse-curve $-1 50.704720461031371 19.909014922177398 6.9896702000400257 0.73135370988377701 0 0.68199835119979291 0.68199835119979291 0 -0.73135370988377701 1 I I #
face $-1 $-1 $369 $32 $-1 $370 reversed single #
loop $-1 $-1 $371 $151 #
plane-surface $-1 0 26.431187073623096 6.6840533775162925 0 1 0 0 0 1 forward_v I I I I #
coedge $-1 $372 $154 $156 $259 forward $94 $-1 #
coedge $-1 $154 $372 $371 $373 forward $94 $-1 #
coedge $-1 $374 $157 $154 $256 forward $152 $-1 #
edge $-1 $262 5.4675168733398003 $375 15.798285757968802 $255 $376 forward 7 unknown #
coedge $-1 $377 $378 $155 $258 forward $369 $-1 #
edge $-1 $379 -41.867614584146359 $261 -35.290180117390989 $257 $380 forward 7 unknown #
edge $-1 $262 -11.467406896681576 $379 8.6223355153435888e-015 $156 $381 forward 7 unknown #
coedge $-1 $157 $374 $377 $382 forward $152 $-1 #
vertex $-1 $258 $383 #
vertex $-1 $158 $384 #
straight-curve $-1 -56.47981251815402 16.100418188994102 9.0317893985886855 1 0 0 I I #
coedge $-1 $264 $264 $-1 $385 reversed $161 $-1 #
edge $-1 $386 0 $386 6.2831853071796004 $162 $387 forward 7 unknown #
vertex $-1 $165 $388 #
ellipse-curve $-1 -47.912252503725867 18.1665719659199 5.7430721652109984 -0.57357644374324357 0 0.81915203911291934 0.81915203911291934 0 0.57357644374324357 1 I I #
coedge $-1 $268 $268 $-1 $389 reversed $168 $-1 #
edge $-1 $390 0 $390 6.2831853071796004 $169 $391 forward 7 unknown #
vertex $-1 $172 $392 #
ellipse-curve $-1 -47.912252503725867 21.265802631308603 5.7430721652109984 -0.57357644374324357 0 0.81915203911291934 0.81915203911291934 0 0.57357644374324357 1 I I #
coedge $-1 $272 $272 $-1 $393 reversed $175 $-1 #
edge $-1 $394 0 $394 6.2831853071796004 $176 $395 forward 7 unknown #
vertex $-1 $179 $396 #
ellipse-curve $-1 -47.912252503725867 24.365033296697305 5.7430721652109984 -0.57357644374324357 0 0.81915203911291934 0.81915203911291934 0 0.57357644374324357 1 I I #
face $-1 $-1 $195 $27 $-1 $397 reversed single #
loop $-1 $-1 $292 $180 #
plane-surface $-1 0 35.967992613460794 0 0 -1 0 0 0 -1 forward_v I I I I #
coedge $-1 $398 $290 $293 $399 forward $181 $-1 #
coedge $-1 $296 $183 $184 $284 reversed $113 $-1 #
coedge $-1 $290 $398 $183 $282 reversed $181 $-1 #
edge $-1 $297 -9.0317893985886855 $400 9.0317893985886855 $281 $401 forward 7 unknown #
coedge $-1 $185 $184 $398 $402 forward $73 $-1 #
edge $-1 $288 -52.609027375102997 $400 52.609027375102997 $280 $403 forward 7 unknown #
coedge $-1 $293 $292 $185 $286 reversed $277 $-1 #
edge $-1 $404 -52.609027375102997 $287 52.609027375102997 $285 $405 forward 7 unknown #
vertex $-1 $187 $406 #
vertex $-1 $299 $407 #
straight-curve $-1 52.609027375102997 0 -9.0317893985886855 0 -1 0 I I #
coedge $-1 $279 $281 $188 $291 reversed $181 $-1 #
edge $-1 $294 -35.967992613460794 $297 35.967992613460794 $290 $408 forward 7 unknown #
coedge $-1 $285 $189 $194 $300 forward $277 $-1 #
coedge $-1 $189 $285 $279 $399 reversed $277 $-1 #
vertex $-1 $190 $409 #
straight-curve $-1 0 35.967992613460794 9.0317893985886855 -1 0 0 I I #
coedge $-1 $191 $280 $193 $299 reversed $113 $-1 #
vertex $-1 $291 $410 #
straight-curve $-1 0 -35.967992613460794 9.0317893985886855 1 0 0 I I #
edge $-1 $196 -9.0317893985886855 $288 9.0317893985886855 $193 $411 forward 7 unknown #
edge $-1 $197 -9.0317893985886855 $287 9.0317893985886855 $194 $412 forward 7 unknown #
point $-1 52.609027375102997 -35.967992613460794 9.0317893985886855 #
point $-1 52.609027375102997 35.967992613460794 9.0317893985886855 #
face $-1 $-1 $212 $28 $-1 $413 reversed single #
loop $-1 $-1 $310 $199 #
plane-surface $-1 0 0 9.0317893985886855 0 0 1 1 0 0 forward_v I I I I #
coedge $-1 $414 $202 $207 $315 forward $121 $-1 #
coedge $-1 $202 $414 $415 $416 reversed $121 $-1 #
coedge $-1 $204 $203 $202 $309 reversed $77 $-1 #
edge $-1 $417 -5.6897627098305392 $320 -0.99429066768575236 $202 $418 forward 7 unknown #
coedge $-1 $415 $419 $204 $311 forward $304 $-1 #
edge $-1 $313 -52.609027375102997 $417 52.609027375102997 $310 $420 forward 7 unknown #
coedge $-1 $211 $205 $419 $421 reversed $212 $-1 #
vertex $-1 $206 $422 #
straight-curve $-1 52.609027375102997 -26.4311870736231 3.3420266887581462 0 0 1 I I #
edge $-1 $320 10.831392151852127 $318 20.368197691689822 $306 $423 forward 7 unknown #
coedge $-1 $424 $208 $211 $322 reversed $200 $-1 #
coedge $-1 $208 $424 $414 $425 forward $200 $-1 #
vertex $-1 $209 $426 #
straight-curve $-1 0 -35.967992613460794 4.3363173564438986 1 0 0 I I #
vertex $-1 $315 $427 #
straight-curve $-1 0 -26.4311870736231 4.3363173564438986 1 0 0 I I #
edge $-1 $428 -9.0317893985886855 $213 -4.3363173564438986 $211 $429 forward 7 unknown #
point $-1 52.609027375102997 -35.967992613460794 4.3363173564438986 #
point $-1 52.609027375102997 -26.4311870736231 4.3363173564438986 #
face $-1 $-1 $341 $29 $-1 $430 reversed single #
loop $-1 $-1 $333 $216 #
plane-surface $-1 -52.609027375102997 0 0 1 0 0 0 0 -1 forward_v I I I I #
coedge $-1 $431 $219 $344 $432 forward $129 $-1 #
coedge $-1 $219 $431 $433 $434 forward $129 $-1 #
coedge $-1 $221 $220 $219 $331 reversed $81 $-1 #
edge $-1 $435 -52.609027375102997 $436 52.609027375102997 $219 $437 forward 7 unknown #
edge $-1 $436 -5.6897627098305392 $228 -0.99429066768575236 $227 $438 forward 7 unknown #
coedge $-1 $433 $337 $221 $334 forward $326 $-1 #
edge $-1 $335 0.99429066768575236 $435 5.6897627098305392 $333 $439 forward 7 unknown #
vertex $-1 $338 $440 #
straight-curve $-1 0 26.431187073623096 4.3363173564438986 -1 0 0 I I #
coedge $-1 $333 $441 $223 $338 forward $326 $-1 #
edge $-1 $342 -20.368197691689822 $335 -10.831392151852125 $337 $442 forward 7 unknown #
coedge $-1 $443 $224 $441 $444 reversed $341 $-1 #
coedge $-1 $224 $443 $226 $345 forward $341 $-1 #
loop $-1 $-1 $224 $325 #
vertex $-1 $225 $445 #
straight-curve $-1 0 35.967992613460794 4.3363173564438986 -1 0 0 I I #
coedge $-1 $227 $226 $328 $432 reversed $217 $-1 #
edge $-1 $446 -9.0317893985886855 $229 -4.3363173564438986 $226 $447 forward 7 unknown #
point $-1 52.609027375102997 26.431187073623096 4.3363173564438986 #
point $-1 52.609027375102997 35.967992613460794 4.3363173564438986 #
loop $-1 $-1 $353 $231 #
plane-surface $-1 0 26.431187073623096 6.6840533775162925 0 1 0 0 0 1 forward_v I I I I #
coedge $-1 $234 $358 $448 $449 forward $137 $-1 #
coedge $-1 $236 $235 $234 $352 reversed $85 $-1 #
edge $-1 $450 -16.476679612534397 $359 -3.4323353096429976 $234 $451 forward 7 unknown #
coedge $-1 $448 $452 $236 $354 forward $348 $-1 #
edge $-1 $356 -71.183661066589394 $450 -65.59916981167207 $353 $453 forward 7 unknown #
coedge $-1 $242 $237 $452 $454 forward $232 $-1 #
vertex $-1 $454 $455 #
straight-curve $-1 52.609027375102997 9.9545074610886992 4.9475510014913979 0 1 0 I I #
coedge $-1 $350 $239 $242 $362 forward $137 $-1 #
vertex $-1 $240 $456 #
straight-curve $-1 28.901051103665253 13.386842770731697 9.0317893985886855 1 0 0 I I #
straight-curve $-1 -19.149512480987013 13.386842770731697 81.899165689808896 -0.68199835119979291 0 0.73135370988377701 I I #
edge $-1 $243 13.386842770731697 $457 26.431187073623096 $242 $458 forward 7 unknown #
point $-1 52.609027375102997 13.386842770731697 9.0317893985886855 #
point $-1 52.609027375102997 13.386842770731697 4.9475510014913908 #
edge $-1 $459 1 $459 0 $246 $-1 forward 7 unknown #
vertex $-1 $247 $460 #
ellipse-curve $-1 48.532331881576788 19.909014922177398 4.9638851259631798 0.73135370988377701 0 0.68199835119979291 0.68199835119979291 0 -0.73135370988377701 1 I I #
point $-1 51.386718812231152 19.909014922177398 6.2583164901562442 #
loop $-1 $-1 $257 $250 #
plane-surface $-1 -52.609027375102997 0 0 1 0 0 0 0 -1 forward_v I I I I #
coedge $-1 $461 $462 $254 $373 reversed $251 $-1 #
coedge $-1 $254 $253 $378 $463 reversed $94 $-1 #
edge $-1 $464 -8.6223355153435888e-015 $375 11.467406896681576 $371 $465 forward 7 unknown #
coedge $-1 $260 $255 $462 $466 forward $152 $-1 #
vertex $-1 $466 $467 #
straight-curve $-1 -43.215477632348723 10.632901315654301 9.0317893985886855 0 1 0 I I #
coedge $-1 $468 $257 $260 $382 reversed $369 $-1 #
coedge $-1 $257 $468 $372 $463 forward $369 $-1 #
vertex $-1 $258 $469 #
straight-curve $-1 -52.609027375102997 16.100418188994102 44.321969515979674 0 0 1 I I #
straight-curve $-1 -52.60902737510299 16.100418188994102 2.454354931833322 -0.81915203911291934 0 -0.57357644374324357 I I #
edge $-1 $470 -26.431187073623096 $261 -16.100418188994102 $377 $471 forward 7 unknown #
point $-1 -52.609027375102997 16.100418188994102 9.0317893985886855 #
point $-1 -43.215477632348723 16.100418188994102 9.0317893985886855 #
edge $-1 $472 1 $472 0 $264 $-1 forward 7 unknown #
vertex $-1 $265 $473 #
ellipse-curve $-1 -46.980529936169447 18.1665719659199 4.4124344630758339 -0.57357644374324357 0 0.81915203911291934 0.81915203911291934 0 0.57357644374324357 1 I I #
point $-1 -47.093100464612959 18.1665719659199 6.3166486089542548 #
edge $-1 $474 1 $474 0 $268 $-1 forward 7 unknown #
vertex $-1 $269 $475 #
ellipse-curve $-1 -46.980529936169447 21.265802631308603 4.4124344630758339 -0.57357644374324357 0 0.81915203911291934 0.81915203911291934 0 0.57357644374324357 1 I I #
point $-1 -47.093100464612959 21.265802631308603 6.3166486089542548 #
edge $-1 $476 1 $476 0 $272 $-1 forward 7 unknown #
vertex $-1 $273 $477 #
ellipse-curve $-1 -46.980529936169447 24.365033296697305 4.4124344630758339 -0.57357644374324357 0 0.81915203911291934 0.81915203911291934 0 0.57357644374324357 1 I I #
point $-1 -47.093100464612959 24.365033296697305 6.3166486089542548 #
plane-surface $-1 52.609027375102997 0 0 -1 0 0 0 0 1 forward_v I I I I #
coedge $-1 $281 $279 $283 $402 reversed $181 $-1 #
edge $-1 $294 -9.0317893985886855 $404 9.0317893985886855 $293 $478 forward 7 unknown #
vertex $-1 $402 $479 #
straight-curve $-1 -52.609027375102997 -35.967992613460794 0 0 0 -1 I I #
edge $-1 $400 -35.967992613460794 $404 35.967992613460794 $398 $480 forward 7 unknown #
straight-curve $-1 0 -35.967992613460794 -9.0317893985886855 -1 0 0 I I #
vertex $-1 $286 $481 #
straight-curve $-1 0 35.967992613460794 -9.0317893985886855 1 0 0 I I #
point $-1 52.609027375102997 35.967992613460794 -9.0317893985886855 #
point $-1 52.609027375102997 -35.967992613460794 -9.0317893985886855 #
straight-curve $-1 -52.609027375102997 0 9.0317893985886855 0 -1 0 I I #
point $-1 -52.609027375102997 35.967992613460794 9.0317893985886855 #
point $-1 -52.609027375102997 -35.967992613460794 9.0317893985886855 #
straight-curve $-1 52.609027375102997 -35.967992613460794 0 0 0 -1 I I #
straight-curve $-1 52.609027375102997 35.967992613460794 0 0 0 -1 I I #
plane-surface $-1 52.609027375102997 0 0 -1 0 0 0 0 1 forward_v I I I I #
coedge $-1 $307 $306 $317 $425 reversed $121 $-1 #
coedge $-1 $482 $310 $307 $416 forward $304 $-1 #
edge $-1 $417 26.4311870736231 $483 35.967992613460794 $307 $484 forward 7 unknown #
vertex $-1 $416 $485 #
straight-curve $-1 -52.609027375102997 -26.4311870736231 3.3420266887581462 0 0 -1 I I #
coedge $-1 $310 $482 $312 $421 forward $304 $-1 #
straight-curve $-1 0 -26.4311870736231 9.0317893985886855 -1 0 0 I I #
edge $-1 $428 -35.967992613460794 $313 -26.4311870736231 $312 $486 forward 7 unknown #
point $-1 52.609027375102997 -26.4311870736231 9.0317893985886855 #
straight-curve $-1 -52.609027375102997 -15.599794921770973 4.3363173564438986 0 -1 0 I I #
coedge $-1 $317 $316 $482 $487 reversed $200 $-1 #
edge $-1 $483 -9.0317893985886855 $318 -4.3363173564438986 $414 $488 forward 7 unknown #
point $-1 -52.609027375102997 -35.967992613460794 4.3363173564438986 #
point $-1 -52.609027375102997 -26.4311870736231 4.3363173564438986 #
vertex $-1 $421 $489 #
straight-curve $-1 52.609027375102997 -35.967992613460794 0 0 0 -1 I I #
plane-surface $-1 0 35.967992613460794 0 0 -1 0 0 0 -1 forward_v I I I I #
coedge $-1 $329 $328 $443 $490 forward $129 $-1 #
edge $-1 $436 26.431187073623096 $446 35.967992613460794 $344 $491 forward 7 unknown #
coedge $-1 $441 $333 $329 $434 reversed $326 $-1 #
edge $-1 $492 -35.967992613460794 $435 -26.431187073623096 $433 $493 forward 7 unknown #
vertex $-1 $334 $494 #
vertex $-1 $432 $495 #
straight-curve $-1 0 26.431187073623096 9.0317893985886855 1 0 0 I I #
straight-curve $-1 52.609027375102997 26.431187073623096 3.3420266887581462 0 0 -1 I I #
straight-curve $-1 -52.609027375102997 26.431187073623096 3.3420266887581462 0 0 1 I I #
point $-1 -52.609027375102997 26.431187073623096 4.3363173564438986 #
coedge $-1 $337 $433 $339 $444 forward $326 $-1 #
straight-curve $-1 -52.609027375102997 15.599794921770972 4.3363173564438986 0 -1 0 I I #
coedge $-1 $340 $339 $431 $490 reversed $341 $-1 #
edge $-1 $492 -9.0317893985886855 $342 -4.3363173564438986 $339 $496 forward 7 unknown #
point $-1 -52.609027375102997 35.967992613460794 4.3363173564438986 #
vertex $-1 $432 $497 #
straight-curve $-1 52.609027375102997 35.967992613460794 0 0 0 -1 I I #
coedge $-1 $452 $353 $350 $449 reversed $348 $-1 #
edge $-1 $457 -52.609027375102997 $450 -48.800413546959724 $350 $498 forward 7 unknown #
vertex $-1 $354 $499 #
straight-curve $-1 48.800413546959724 9.9545074610886992 9.0317893985886855 0 -1 0 I I #
coedge $-1 $353 $448 $355 $454 reversed $348 $-1 #
straight-curve $-1 4.0618878953241371 26.431187073623096 57.007985605650923 -0.68199835119979291 0 0.73135370988377701 I I #
edge $-1 $356 1.6055243127332526 $457 5.6897627098305392 $355 $500 forward 7 unknown #
point $-1 52.609027375102997 26.431187073623096 4.9475510014913988 #
point $-1 48.800413546959732 13.386842770731697 9.0317893985886855 #
vertex $-1 $449 $501 #
straight-curve $-1 52.609027375102997 0 9.0317893985886855 0 1 0 I I #
vertex $-1 $365 $502 #
point $-1 49.214330232776582 19.909014922177398 4.2325314160794028 #
coedge $-1 $462 $371 $468 $503 reversed $251 $-1 #
coedge $-1 $371 $461 $374 $466 reversed $251 $-1 #
edge $-1 $464 -15.798285757968802 $379 -5.4675168733398003 $378 $504 forward 7 unknown #
vertex $-1 $503 $505 #
straight-curve $-1 -52.60902737510299 26.431187073623104 2.454354931833322 0.81915203911291934 0 0.57357644374324357 I I #
edge $-1 $375 43.215477632348723 $470 52.609027375102997 $374 $506 forward 7 unknown #
point $-1 -43.215477632348723 26.431187073623104 9.0317893985886855 #
coedge $-1 $378 $377 $461 $503 forward $369 $-1 #
point $-1 -52.609027375102997 16.100418188994102 2.4543549318333171 #
vertex $-1 $382 $507 #
straight-curve $-1 -52.609027375102997 0 9.0317893985886855 0 -1 0 I I #
vertex $-1 $385 $508 #
point $-1 -46.161377897056525 18.1665719659199 4.986010906819077 #
vertex $-1 $389 $509 #
point $-1 -46.161377897056525 21.265802631308603 4.986010906819077 #
vertex $-1 $393 $510 #
point $-1 -46.161377897056525 24.365033296697305 4.986010906819077 #
straight-curve $-1 -52.609027375102997 35.967992613460794 0 0 0 -1 I I #
point $-1 -52.609027375102997 -35.967992613460794 -9.0317893985886855 #
straight-curve $-1 -52.609027375102997 0 -9.0317893985886855 0 1 0 I I #
point $-1 -52.609027375102997 35.967992613460794 -9.0317893985886855 #
coedge $-1 $419 $415 $424 $487 forward $304 $-1 #
vertex $-1 $416 $511 #
straight-curve $-1 -52.609027375102997 0 9.0317893985886855 0 -1 0 I I #
point $-1 -52.609027375102997 -26.4311870736231 9.0317893985886855 #
straight-curve $-1 52.609027375102997 0 9.0317893985886855 0 1 0 I I #
edge $-1 $483 -52.609027375102997 $428 52.609027375102997 $424 $512 forward 7 unknown #
straight-curve $-1 -52.609027375102997 -35.967992613460794 0 0 0 -1 I I #
point $-1 52.609027375102997 -35.967992613460794 9.0317893985886855 #
edge $-1 $446 -52.609027375102997 $492 52.609027375102997 $443 $513 forward 7 unknown #
straight-curve $-1 52.609027375102997 0 9.0317893985886855 0 1 0 I I #
vertex $-1 $490 $514 #
straight-curve $-1 -52.609027375102997 0 9.0317893985886855 0 -1 0 I I #
point $-1 -52.609027375102997 26.431187073623096 9.0317893985886855 #
point $-1 52.609027375102997 26.431187073623096 9.0317893985886855 #
straight-curve $-1 -52.609027375102997 35.967992613460794 0 0 0 -1 I I #
point $-1 52.609027375102997 35.967992613460794 9.0317893985886855 #
straight-curve $-1 0 26.431187073623096 9.0317893985886855 -1 0 0 I I #
point $-1 48.800413546959724 26.431187073623096 9.0317893985886855 #
straight-curve $-1 52.609027375102997 26.431187073623096 3.3420266887581462 0 0 1 I I #
point $-1 52.609027375102997 26.431187073623096 9.0317893985886855 #
point $-1 47.800978171693011 19.909014922177398 4.2818867747633869 #
edge $-1 $470 35.290180117390989 $464 41.867614584146359 $468 $515 forward 7 unknown #
straight-curve $-1 -52.609027375102997 10.632901315654301 2.4543549318333171 0 -1 0 I I #
point $-1 -52.609027375102997 26.431187073623104 2.4543549318333171 #
straight-curve $-1 0 26.431187073623096 9.0317893985886855 -1 0 0 I I #
point $-1 -52.609027375102997 26.431187073623096 9.0317893985886855 #
point $-1 -46.406953492426197 18.1665719659199 3.5932824239629144 #
point $-1 -46.406953492426197 21.265802631308603 3.5932824239629144 #
point $-1 -46.406953492426197 24.365033296697305 3.5932824239629144 #
point $-1 -52.609027375102997 -35.967992613460794 9.0317893985886855 #
straight-curve $-1 0 -35.967992613460794 9.0317893985886855 1 0 0 I I #
straight-curve $-1 0 35.967992613460794 9.0317893985886855 -1 0 0 I I #
point $-1 -52.609027375102997 35.967992613460794 9.0317893985886855 #
straight-curve $-1 -52.609027375102997 26.431187073623104 44.321969515979674 0 0 -1 I I #
End-of-ACIS-data 