500 0 6 0           
7 Unknown 11 ACIS 5.0 NT 24 Thu Mar 25 19:07:59 1999 
-1 9.9999999999999995e-007 1e-010 
body $-1 $6 $-1 $7 #
body $-1 $8 $-1 $9 #
body $-1 $10 $-1 $11 #
body $-1 $12 $-1 $13 #
body $-1 $14 $-1 $15 #
body $-1 $16 $-1 $17 #
lump $-1 $-1 $18 $0 #
transform $-1 1 0 0 0 1 0 0 0 1 72.266609698782304 42.345891075182337 12.491953865502715 1 rotate no_reflect no_shear #
lump $-1 $-1 $19 $1 #
transform $-1 1 0 0 0 1 0 0 0 1 72.266609698782304 42.345891075182337 12.491953865502715 1 rotate no_reflect no_shear #
lump $-1 $-1 $20 $2 #
transform $-1 1 0 0 0 1 0 0 0 1 72.266609698782304 42.345891075182337 12.491953865502715 1 rotate no_reflect no_shear #
lump $-1 $-1 $21 $3 #
transform $-1 1 0 0 0 1 0 0 0 1 72.266609698782304 42.345891075182337 12.491953865502715 1 rotate no_reflect no_shear #
lump $-1 $-1 $22 $4 #
transform $-1 1 0 0 0 1 0 0 0 1 72.266609698782304 42.345891075182337 12.491953865502715 1 rotate no_reflect no_shear #
lump $-1 $-1 $23 $5 #
transform $-1 1 0 0 0 1 0 0 0 1 72.266609698782304 42.345891075182337 12.491953865502715 1 rotate no_reflect no_shear #
shell $-1 $-1 $-1 $24 $-1 $6 #
shell $-1 $-1 $-1 $25 $-1 $8 #
shell $-1 $-1 $-1 $26 $-1 $10 #
shell $-1 $-1 $-1 $27 $-1 $12 #
shell $-1 $-1 $-1 $28 $-1 $14 #
shell $-1 $-1 $-1 $29 $-1 $16 #
face $-1 $30 $31 $18 $-1 $32 forward single #
face $-1 $33 $34 $19 $-1 $35 reversed single #
face $-1 $36 $37 $20 $-1 $38 forward single #
face $-1 $39 $40 $21 $-1 $41 reversed single #
face $-1 $42 $43 $22 $-1 $44 forward single #
face $-1 $45 $46 $23 $-1 $47 forward single #
face $-1 $48 $49 $18 $-1 $50 reversed single #
loop $-1 $-1 $51 $24 #
plane-surface $-1 0 0 12.491953865502715 0 0 1 1 0 0 forward_v I I I I #
face $-1 $52 $53 $19 $-1 $54 reversed single #
loop $-1 $-1 $55 $25 #
plane-surface $-1 -2.8041947283438979 -139.05749297281108 115.75451235906448 -1 0 0 0 -0.66913061440640931 0.74314481823134659 forward_v I I I I #
face $-1 $56 $57 $20 $-1 $58 forward single #
loop $-1 $59 $60 $26 #
cone-surface $-1 -21.424750745856912 -39.692932790271271 10.029572787777688 0 0.66913061440640931 -0.74314481823134659 0.5 0 0 1 I I 0 1 0.5 forward I I I I #
face $-1 $61 $62 $21 $-1 $63 reversed single #
loop $-1 $-1 $64 $27 #
plane-surface $-1 34.6902663433969 44.190977195651712 172.68001438726537 1 0 0 0 -0.51503808176128008 -0.85716729658548041 forward_v I I I I #
face $-1 $65 $66 $22 $-1 $67 forward single #
loop $-1 $68 $69 $28 #
cone-surface $-1 45.426364444935587 34.283821599279797 5.5524953224299285 0 -0.51503808176128008 -0.85716729658548041 2 0 0 1 I I 0 1 2 forward I I I I #
face $-1 $70 $71 $23 $-1 $72 forward single #
loop $-1 $73 $74 $29 #
cone-surface $-1 61.530511597243617 34.283821599279797 5.5524953224299285 0 -0.51503808176128008 -0.85716729658548041 2 0 0 1 I I 0 1 2 forward I I I I #
face $-1 $75 $76 $18 $-1 $77 reversed single #
loop $-1 $-1 $78 $30 #
plane-surface $-1 0 0 -12.491953865502715 0 0 1 1 0 0 forward_v I I I I #
coedge $-1 $79 $80 $81 $82 forward $31 $-1 #
face $-1 $83 $84 $19 $-1 $85 reversed single #
loop $-1 $-1 $86 $33 #
plane-surface $-1 -21.424750745856912 -42.345891075182308 8.3453993014699961 0 -0.66913061440640931 0.74314481823134659 1 0 0 forward_v I I I I #
coedge $-1 $87 $88 $89 $90 reversed $34 $-1 #
face $-1 $-1 $91 $20 $-1 $92 forward single #
loop $-1 $93 $94 $36 #
cone-surface $-1 -21.424750745856912 -39.175299497732212 9.4546827875111781 0 0.66913061440640931 -0.74314481823134659 0.25 0 0 1 I I -0.70710678118654746 0.70710678118654746 0.25 forward I I I I #
loop $-1 $-1 $95 $26 #
coedge $-1 $60 $60 $96 $97 reversed $37 $-1 #
face $-1 $98 $99 $21 $-1 $100 forward single #
loop $-1 $-1 $101 $39 #
plane-surface $-1 53.478438021089602 -30.249134873652196 48.790865449458806 0 0.51503808176128008 0.85716729658548041 1 0 0 forward_v I I I I #
coedge $-1 $102 $103 $104 $105 reversed $40 $-1 #
face $-1 $-1 $106 $22 $-1 $107 forward single #
loop $-1 $108 $109 $42 #
cone-surface $-1 45.426364444935587 31.798460672490847 1.4161602006276226 0 -0.51503808176128008 -0.85716729658548041 1 0 0 1 I I -0.70710678118654746 0.70710678118654746 1 forward I I I I #
loop $-1 $-1 $110 $28 #
coedge $-1 $69 $69 $111 $112 reversed $43 $-1 #
face $-1 $-1 $113 $23 $-1 $114 forward single #
loop $-1 $115 $116 $45 #
cone-surface $-1 61.530511597243617 31.798460672490847 1.4161602006276226 0 -0.51503808176128008 -0.85716729658548041 1 0 0 1 I I -0.70710678118654746 0.70710678118654746 1 forward I I I I #
loop $-1 $-1 $117 $29 #
coedge $-1 $74 $74 $118 $119 reversed $46 $-1 #
face $-1 $120 $121 $18 $-1 $122 reversed single #
loop $-1 $-1 $123 $48 #
plane-surface $-1 0 -42.345891075182337 0 0 1 0 0 0 1 forward_v I I I I #
coedge $-1 $124 $125 $126 $127 forward $49 $-1 #
coedge $-1 $128 $51 $129 $130 forward $31 $-1 #
coedge $-1 $51 $128 $131 $132 forward $31 $-1 #
coedge $-1 $133 $134 $51 $82 reversed $135 $-1 #
edge $-1 $136 -42.345891075182337 $137 42.345891075182337 $81 $138 forward 7 unknown #
face $-1 $139 $140 $19 $-1 $141 reversed single #
loop $-1 $-1 $142 $52 #
plane-surface $-1 -40.045306763369922 -139.05749297281108 115.75451235906448 1 0 0 0 0.66913061440640931 -0.74314481823134659 forward_v I I I I #
coedge $-1 $143 $144 $145 $146 reversed $53 $-1 #
coedge $-1 $88 $55 $147 $148 reversed $34 $-1 #
coedge $-1 $55 $87 $143 $149 reversed $34 $-1 #
coedge $-1 $145 $150 $55 $90 forward $151 $-1 #
edge $-1 $152 27.182855411223201 $153 31.788070703170483 $89 $154 forward 7 unknown #
loop $-1 $-1 $96 $56 #
plane-surface $-1 -21.424750745856912 -42.345891075182308 8.3453993014699961 0 -0.66913061440640931 0.74314481823134659 1 0 0 forward_v I I I I #
loop $-1 $-1 $155 $36 #
coedge $-1 $94 $94 $95 $156 reversed $57 $-1 #
coedge $-1 $95 $95 $94 $156 forward $59 $-1 #
coedge $-1 $96 $96 $60 $97 forward $91 $-1 #
edge $-1 $157 9.782537238694105e-015 $157 6.2831853071796102 $96 $158 forward 7 unknown #
face $-1 $159 $160 $21 $-1 $161 reversed single #
loop $-1 $-1 $104 $61 #
plane-surface $-1 0 0 12.491953865502715 0 0 1 1 0 0 forward_v I I I I #
coedge $-1 $162 $163 $164 $165 reversed $62 $-1 #
coedge $-1 $103 $64 $166 $167 reversed $40 $-1 #
coedge $-1 $64 $102 $162 $168 reversed $40 $-1 #
coedge $-1 $164 $169 $64 $105 forward $99 $-1 #
edge $-1 $170 -20.250402477356481 $171 -8.0669092156067421 $104 $172 forward 7 unknown #
loop $-1 $-1 $111 $65 #
plane-surface $-1 53.478438021089602 -30.249134873652196 48.790865449458806 0 0.51503808176128008 0.85716729658548041 1 0 0 forward_v I I I I #
loop $-1 $-1 $173 $42 #
coedge $-1 $109 $109 $110 $174 reversed $66 $-1 #
coedge $-1 $110 $110 $109 $174 forward $68 $-1 #
coedge $-1 $111 $111 $69 $112 forward $106 $-1 #
edge $-1 $175 1.2154871414232113e-015 $175 6.2831853071796013 $111 $176 forward 7 unknown #
loop $-1 $-1 $118 $70 #
plane-surface $-1 53.478438021089602 -30.249134873652196 48.790865449458806 0 0.51503808176128008 0.85716729658548041 1 0 0 forward_v I I I I #
loop $-1 $-1 $177 $45 #
coedge $-1 $116 $116 $117 $178 reversed $71 $-1 #
coedge $-1 $117 $117 $116 $178 forward $73 $-1 #
coedge $-1 $118 $118 $74 $119 forward $113 $-1 #
edge $-1 $179 1.2154871414232113e-015 $179 6.2831853071796013 $118 $180 forward 7 unknown #
face $-1 $181 $182 $18 $-1 $183 reversed single #
loop $-1 $-1 $184 $75 #
plane-surface $-1 -72.266609698782304 0 0 1 0 0 0 0 -1 forward_v I I I I #
coedge $-1 $185 $131 $186 $187 forward $76 $-1 #
coedge $-1 $188 $78 $185 $189 forward $49 $-1 #
coedge $-1 $78 $188 $190 $191 forward $49 $-1 #
coedge $-1 $134 $133 $78 $127 reversed $135 $-1 #
edge $-1 $192 -42.345891075182337 $193 42.345891075182337 $126 $194 forward 7 unknown #
coedge $-1 $80 $79 $195 $196 forward $31 $-1 #
coedge $-1 $197 $198 $79 $130 reversed $182 $-1 #
edge $-1 $137 -72.266609698782304 $199 72.266609698782304 $129 $200 forward 7 unknown #
coedge $-1 $123 $201 $80 $132 reversed $76 $-1 #
edge $-1 $202 -72.266609698782304 $136 72.266609698782304 $131 $203 forward 7 unknown #
coedge $-1 $126 $81 $201 $204 forward $135 $-1 #
coedge $-1 $81 $126 $197 $205 reversed $135 $-1 #
loop $-1 $-1 $133 $181 #
vertex $-1 $82 $206 #
vertex $-1 $82 $207 #
straight-curve $-1 72.266609698782304 0 12.491953865502715 0 1 0 I I #
face $-1 $-1 $151 $19 $-1 $208 forward single #
loop $-1 $-1 $209 $83 #
plane-surface $-1 0 -42.345891075182337 0 0 1 0 0 0 1 forward_v I I I I #
coedge $-1 $210 $211 $212 $213 reversed $84 $-1 #
coedge $-1 $214 $86 $88 $149 forward $53 $-1 #
coedge $-1 $86 $214 $210 $215 forward $53 $-1 #
coedge $-1 $212 $89 $86 $146 forward $151 $-1 #
edge $-1 $153 -7.9081806445845579 $216 29.332931390441466 $145 $217 forward 7 unknown #
coedge $-1 $218 $219 $87 $148 forward $140 $-1 #
edge $-1 $220 -49.531856878062271 $152 -45.385302314029524 $147 $221 forward 7 unknown #
edge $-1 $153 -6.1969284841512735 $220 3.7762052495422576e-014 $88 $222 forward 7 unknown #
coedge $-1 $89 $212 $218 $223 forward $151 $-1 #
loop $-1 $-1 $212 $139 #
vertex $-1 $148 $224 #
vertex $-1 $90 $225 #
straight-curve $-1 -2.8041947283438979 -69.528746486405538 12.491953865502715 0 1 0 I I #
coedge $-1 $155 $155 $-1 $226 reversed $93 $-1 #
edge $-1 $227 0 $227 6.2831853071796004 $94 $228 forward 7 unknown #
vertex $-1 $97 $229 #
ellipse-curve $-1 -21.424750745856912 -40.043283429208707 10.418676583486338 0 -0.66913061440640931 0.74314481823134659 0.5 0 0 1 I I #
face $-1 $-1 $230 $21 $-1 $231 reversed single #
loop $-1 $-1 $166 $98 #
plane-surface $-1 0 42.345891075182337 0 0 -1 0 0 0 -1 forward_v I I I I #
coedge $-1 $232 $101 $103 $168 forward $62 $-1 #
coedge $-1 $101 $232 $233 $234 reversed $62 $-1 #
coedge $-1 $235 $104 $101 $165 forward $99 $-1 #
edge $-1 $171 7.9510473328520987 $236 45.527390688237503 $164 $237 forward 7 unknown #
coedge $-1 $238 $239 $102 $167 forward $160 $-1 #
edge $-1 $240 -81.168634763841922 $170 -73.848053328129964 $166 $241 forward 7 unknown #
edge $-1 $171 70.478111948196911 $240 84.691782150364673 $103 $242 forward 7 unknown #
coedge $-1 $104 $235 $238 $243 forward $99 $-1 #
vertex $-1 $167 $244 #
vertex $-1 $105 $245 #
straight-curve $-1 34.6902663433969 22.095488597825856 12.491953865502708 0 -1 0 I I #
coedge $-1 $173 $173 $-1 $246 reversed $108 $-1 #
edge $-1 $247 0 $247 6.2831853071796004 $109 $248 forward 7 unknown #
vertex $-1 $112 $249 #
ellipse-curve $-1 45.426364444935587 36.254144444307464 8.8316631476467471 0 0.51503808176128008 0.85716729658548041 2 0 0 1 I I #
coedge $-1 $177 $177 $-1 $250 reversed $115 $-1 #
edge $-1 $251 0 $251 6.2831853071796004 $116 $252 forward 7 unknown #
vertex $-1 $119 $253 #
ellipse-curve $-1 61.530511597243617 36.254144444307464 8.8316631476467471 0 0.51503808176128008 0.85716729658548041 2 0 0 1 I I #
face $-1 $-1 $135 $18 $-1 $254 reversed single #
loop $-1 $-1 $197 $120 #
plane-surface $-1 0 42.345891075182337 0 0 -1 0 0 0 -1 forward_v I I I I #
coedge $-1 $255 $195 $198 $256 forward $121 $-1 #
coedge $-1 $201 $123 $124 $189 reversed $76 $-1 #
coedge $-1 $195 $255 $123 $187 reversed $121 $-1 #
edge $-1 $202 -12.491953865502715 $257 12.491953865502715 $186 $258 forward 7 unknown #
coedge $-1 $125 $124 $255 $259 forward $49 $-1 #
edge $-1 $193 -72.266609698782304 $257 72.266609698782304 $185 $260 forward 7 unknown #
coedge $-1 $198 $197 $125 $191 reversed $182 $-1 #
edge $-1 $261 -72.266609698782304 $192 72.266609698782304 $190 $262 forward 7 unknown #
vertex $-1 $127 $263 #
vertex $-1 $204 $264 #
straight-curve $-1 72.266609698782304 0 -12.491953865502715 0 -1 0 I I #
coedge $-1 $184 $186 $128 $196 reversed $121 $-1 #
edge $-1 $199 -42.345891075182337 $202 42.345891075182337 $195 $265 forward 7 unknown #
coedge $-1 $190 $129 $134 $205 forward $182 $-1 #
coedge $-1 $129 $190 $184 $256 reversed $182 $-1 #
vertex $-1 $130 $266 #
straight-curve $-1 0 42.345891075182337 12.491953865502715 -1 0 0 I I #
coedge $-1 $131 $185 $133 $204 reversed $76 $-1 #
vertex $-1 $196 $267 #
straight-curve $-1 0 -42.345891075182337 12.491953865502715 1 0 0 I I #
edge $-1 $136 -12.491953865502715 $193 12.491953865502715 $133 $268 forward 7 unknown #
edge $-1 $137 -12.491953865502715 $192 12.491953865502715 $134 $269 forward 7 unknown #
point $-1 72.266609698782304 -42.345891075182337 12.491953865502715 #
point $-1 72.266609698782304 42.345891075182337 12.491953865502715 #
plane-surface $-1 0 0 12.491953865502715 0 0 1 1 0 0 forward_v I I I I #
coedge $-1 $219 $218 $211 $270 forward $140 $-1 #
coedge $-1 $211 $142 $144 $215 reversed $84 $-1 #
coedge $-1 $142 $210 $209 $270 reversed $84 $-1 #
coedge $-1 $150 $145 $142 $213 forward $151 $-1 #
edge $-1 $216 -31.788070703170483 $271 -27.182855411223201 $212 $272 forward 7 unknown #
coedge $-1 $144 $143 $219 $273 reversed $53 $-1 #
edge $-1 $274 -3.7762052495422576e-014 $216 6.1969284841512735 $210 $275 forward 7 unknown #
vertex $-1 $146 $276 #
straight-curve $-1 -10.712375372928456 -37.740675783235055 12.491953865502714 -1 0 0 I I #
coedge $-1 $209 $147 $150 $223 reversed $140 $-1 #
coedge $-1 $147 $209 $214 $273 forward $140 $-1 #
vertex $-1 $148 $277 #
straight-curve $-1 -2.8041947283438979 -42.345891075182337 57.877256179532239 0 0 1 I I #
straight-curve $-1 -2.8041947283438979 -42.345891075182308 8.3453993014699961 0 -0.74314481823134659 -0.66913061440640931 I I #
edge $-1 $271 -40.045306763369922 $152 -2.8041947283438979 $218 $278 forward 7 unknown #
point $-1 -2.8041947283438979 -42.345891075182337 12.491953865502715 #
point $-1 -2.8041947283438979 -37.740675783235055 12.491953865502715 #
edge $-1 $279 1 $279 0 $155 $-1 forward 7 unknown #
vertex $-1 $156 $280 #
ellipse-curve $-1 -21.424750745856912 -39.342582151333815 9.6404689920690139 0 -0.66913061440640931 0.74314481823134659 0.5 0 0 1 I I #
point $-1 -20.924750745856912 -40.043283429208721 10.418676583486361 #
loop $-1 $-1 $233 $159 #
plane-surface $-1 72.266609698782304 0 0 -1 0 0 0 0 1 forward_v I I I I #
coedge $-1 $163 $162 $239 $281 reversed $62 $-1 #
coedge $-1 $282 $283 $163 $234 forward $230 $-1 #
edge $-1 $236 44.949250492066902 $284 59.162920694234671 $233 $285 forward 7 unknown #
coedge $-1 $169 $164 $283 $286 forward $99 $-1 #
vertex $-1 $286 $287 #
straight-curve $-1 26.739219010544801 30.162397813432595 12.491953865502712 1 0 0 I I #
coedge $-1 $288 $166 $169 $243 reversed $160 $-1 #
coedge $-1 $166 $288 $232 $281 forward $160 $-1 #
vertex $-1 $167 $289 #
straight-curve $-1 34.6902663433969 42.345891075182337 86.340007193632687 0 0 1 I I #
straight-curve $-1 34.6902663433969 -30.249134873652196 48.790865449458806 0 0.85716729658548041 -0.51503808176128008 I I #
edge $-1 $290 -72.266609698782304 $170 -34.6902663433969 $238 $291 forward 7 unknown #
point $-1 34.6902663433969 42.345891075182337 12.491953865502715 #
point $-1 34.6902663433969 30.162397813432598 12.491953865502715 #
edge $-1 $292 1 $292 0 $173 $-1 forward 7 unknown #
vertex $-1 $174 $293 #
ellipse-curve $-1 45.426364444935587 32.31349875425213 2.2733274972131028 0 0.51503808176128008 0.85716729658548041 2 0 0 1 I I #
point $-1 47.426364444935587 36.254144444307471 8.8316631476467542 #
edge $-1 $294 1 $294 0 $177 $-1 forward 7 unknown #
vertex $-1 $178 $295 #
ellipse-curve $-1 61.530511597243617 32.31349875425213 2.2733274972131028 0 0.51503808176128008 0.85716729658548041 2 0 0 1 I I #
point $-1 63.530511597243617 36.254144444307471 8.8316631476467542 #
plane-surface $-1 72.266609698782304 0 0 -1 0 0 0 0 1 forward_v I I I I #
coedge $-1 $186 $184 $188 $259 reversed $121 $-1 #
edge $-1 $199 -12.491953865502715 $261 12.491953865502715 $198 $296 forward 7 unknown #
vertex $-1 $259 $297 #
straight-curve $-1 -72.266609698782304 -42.345891075182337 0 0 0 -1 I I #
edge $-1 $257 -42.345891075182337 $261 42.345891075182337 $255 $298 forward 7 unknown #
straight-curve $-1 0 -42.345891075182337 -12.491953865502715 -1 0 0 I I #
vertex $-1 $191 $299 #
straight-curve $-1 0 42.345891075182337 -12.491953865502715 1 0 0 I I #
point $-1 72.266609698782304 42.345891075182337 -12.491953865502715 #
point $-1 72.266609698782304 -42.345891075182337 -12.491953865502715 #
straight-curve $-1 -72.266609698782304 0 12.491953865502715 0 -1 0 I I #
point $-1 -72.266609698782304 42.345891075182337 12.491953865502715 #
point $-1 -72.266609698782304 -42.345891075182337 12.491953865502715 #
straight-curve $-1 72.266609698782304 -42.345891075182337 0 0 0 -1 I I #
straight-curve $-1 72.266609698782304 42.345891075182337 0 0 0 -1 I I #
edge $-1 $271 45.385302314029524 $274 49.531856878062271 $209 $300 forward 7 unknown #
vertex $-1 $223 $301 #
straight-curve $-1 -40.045306763369922 -69.528746486405538 12.491953865502715 0 -1 0 I I #
edge $-1 $274 -29.332931390441466 $220 7.9081806445845579 $219 $302 forward 7 unknown #
vertex $-1 $273 $303 #
straight-curve $-1 -40.045306763369922 -42.345891075182308 8.3453993014699961 0 0.74314481823134659 0.66913061440640931 I I #
point $-1 -40.045306763369922 -37.740675783235055 12.491953865502715 #
point $-1 -2.8041947283438979 -42.345891075182337 8.3453993014699712 #
straight-curve $-1 0 -42.345891075182337 12.491953865502715 1 0 0 I I #
vertex $-1 $226 $304 #
point $-1 -20.924750745856912 -39.342582151333815 9.6404689920690139 #
edge $-1 $284 -45.527390688237503 $240 -7.9510473328520987 $239 $305 forward 7 unknown #
coedge $-1 $283 $233 $288 $306 reversed $230 $-1 #
coedge $-1 $233 $282 $235 $286 reversed $230 $-1 #
vertex $-1 $234 $307 #
straight-curve $-1 72.266609698782304 -8.366629714395966 35.642529615544127 0 0.85716729658548041 -0.51503808176128008 I I #
edge $-1 $236 30.162397813432598 $290 42.345891075182337 $283 $308 forward 7 unknown #
point $-1 72.266609698782304 30.162397813432598 12.491953865502715 #
coedge $-1 $239 $238 $282 $306 forward $160 $-1 #
point $-1 34.6902663433969 42.345891075182337 5.1713724297907646 #
vertex $-1 $286 $309 #
straight-curve $-1 0 42.345891075182337 12.491953865502715 -1 0 0 I I #
vertex $-1 $246 $310 #
point $-1 47.426364444935587 32.31349875425213 2.2733274972131028 #
vertex $-1 $250 $311 #
point $-1 63.530511597243617 32.31349875425213 2.2733274972131028 #
straight-curve $-1 -72.266609698782304 42.345891075182337 0 0 0 -1 I I #
point $-1 -72.266609698782304 -42.345891075182337 -12.491953865502715 #
straight-curve $-1 -72.266609698782304 0 -12.491953865502715 0 1 0 I I #
point $-1 -72.266609698782304 42.345891075182337 -12.491953865502715 #
straight-curve $-1 -40.045306763369922 -42.345891075182337 57.877256179532239 0 0 -1 I I #
point $-1 -40.045306763369922 -42.345891075182337 12.491953865502715 #
straight-curve $-1 -10.712375372928456 -42.345891075182337 8.3453993014699712 1 0 0 I I #
point $-1 -40.045306763369922 -42.345891075182337 8.3453993014699712 #
point $-1 -21.424750745856912 -39.008016844130609 9.2688965829533423 #
straight-curve $-1 26.739219010544801 42.345891075182337 5.1713724297907646 -1 0 0 I I #
edge $-1 $290 -12.491953865502715 $284 -5.1713724297907646 $282 $312 forward 7 unknown #
point $-1 72.266609698782304 42.345891075182337 5.1713724297907646 #
straight-curve $-1 72.266609698782304 0 12.491953865502715 0 1 0 I I #
point $-1 72.266609698782304 42.345891075182337 12.491953865502715 #
point $-1 45.426364444935587 31.283422590729568 0.55899290404214219 #
point $-1 61.530511597243617 31.283422590729568 0.55899290404214219 #
straight-curve $-1 72.266609698782304 42.345891075182337 0 0 0 -1 I I #
End-of-ACIS-data 