500 0 9 0           
7 Unknown 11 ACIS 5.0 NT 24 Thu Mar 25 16:00:52 1999 
-1 9.9999999999999995e-007 1e-010 
body $-1 $9 $-1 $10 #
body $-1 $11 $-1 $12 #
body $-1 $13 $-1 $14 #
body $-1 $15 $-1 $16 #
body $-1 $17 $-1 $18 #
body $-1 $19 $-1 $20 #
body $-1 $21 $-1 $22 #
body $-1 $23 $-1 $24 #
body $-1 $25 $-1 $26 #
lump $-1 $-1 $27 $0 #
transform $-1 1 0 0 0 1 0 0 0 1 77.630542924283588 44.930332173890456 16.901905986969389 1 rotate no_reflect no_shear #
lump $-1 $-1 $28 $1 #
transform $-1 1 0 0 0 1 0 0 0 1 77.630542924283588 44.930332173890456 16.901905986969389 1 rotate no_reflect no_shear #
lump $-1 $-1 $29 $2 #
transform $-1 1 0 0 0 1 0 0 0 1 77.630542924283588 44.930332173890456 16.901905986969389 1 rotate no_reflect no_shear #
lump $-1 $-1 $30 $3 #
transform $-1 1 0 0 0 1 0 0 0 1 77.630542924283588 44.930332173890456 16.901905986969389 1 rotate no_reflect no_shear #
lump $-1 $-1 $31 $4 #
transform $-1 1 0 0 0 1 0 0 0 1 77.630542924283588 44.930332173890456 16.901905986969389 1 rotate no_reflect no_shear #
lump $-1 $-1 $32 $5 #
transform $-1 1 0 0 0 1 0 0 0 1 77.630542924283588 44.930332173890456 16.901905986969389 1 rotate no_reflect no_shear #
lump $-1 $-1 $33 $6 #
transform $-1 1 0 0 0 1 0 0 0 1 77.630542924283588 44.930332173890456 16.901905986969389 1 rotate no_reflect no_shear #
lump $-1 $-1 $34 $7 #
transform $-1 1 0 0 0 1 0 0 0 1 77.630542924283588 44.930332173890456 16.901905986969389 1 rotate no_reflect no_shear #
lump $-1 $-1 $35 $8 #
transform $-1 1 0 0 0 1 0 0 0 1 77.630542924283588 44.930332173890456 16.901905986969389 1 rotate no_reflect no_shear #
shell $-1 $-1 $-1 $36 $-1 $9 #
shell $-1 $-1 $-1 $37 $-1 $11 #
shell $-1 $-1 $-1 $38 $-1 $13 #
shell $-1 $-1 $-1 $39 $-1 $15 #
shell $-1 $-1 $-1 $40 $-1 $17 #
shell $-1 $-1 $-1 $41 $-1 $19 #
shell $-1 $-1 $-1 $42 $-1 $21 #
shell $-1 $-1 $-1 $43 $-1 $23 #
shell $-1 $-1 $-1 $44 $-1 $25 #
face $-1 $45 $46 $27 $-1 $47 forward single #
face $-1 $48 $49 $28 $-1 $50 forward single #
face $-1 $51 $52 $29 $-1 $53 forward single #
face $-1 $54 $55 $30 $-1 $56 reversed single #
face $-1 $57 $58 $31 $-1 $59 forward single #
face $-1 $60 $61 $32 $-1 $62 forward single #
face $-1 $63 $64 $33 $-1 $65 reversed single #
face $-1 $66 $67 $34 $-1 $68 forward single #
face $-1 $69 $70 $35 $-1 $71 forward single #
face $-1 $72 $73 $27 $-1 $74 reversed single #
loop $-1 $-1 $75 $36 #
plane-surface $-1 0 0 16.901905986969389 0 0 1 1 0 0 forward_v I I I I #
face $-1 $76 $77 $28 $-1 $78 reversed single #
loop $-1 $-1 $79 $37 #
plane-surface $-1 0 -44.930332173890456 0 0 1 0 0 0 1 forward_v I I I I #
face $-1 $80 $81 $29 $-1 $82 reversed single #
loop $-1 $-1 $83 $38 #
plane-surface $-1 0 44.930332173890456 0 0 -1 0 0 0 -1 forward_v I I I I #
face $-1 $84 $85 $30 $-1 $86 reversed single #
loop $-1 $-1 $87 $39 #
plane-surface $-1 -168.89072060689358 -18.863649853678247 129.69707804184168 0 1 0 -0.5877852598018023 0 0.80901698891910034 forward_v I I I I #
face $-1 $88 $89 $31 $-1 $90 forward single #
loop $-1 $91 $92 $40 #
cone-surface $-1 -67.034646831295447 -14.688425728044471 8.0483597287458544 0.5877852598018023 0 -0.80901698891910034 1.6180339778382007 0 1.1755705196036046 1 I I 0 1 2 forward I I I I #
face $-1 $93 $94 $32 $-1 $95 forward single #
loop $-1 $96 $97 $41 #
cone-surface $-1 -67.034646831295447 -8.4255895395938083 8.0483597287458544 0.5877852598018023 0 -0.80901698891910034 1.6180339778382007 0 1.1755705196036046 1 I I 0 1 2 forward I I I I #
face $-1 $98 $99 $33 $-1 $100 reversed single #
loop $-1 $-1 $101 $42 #
plane-surface $-1 -168.89072060689358 4.2503654139600258 129.69707804184168 0 1 0 -0.5877852598018023 0 0.80901698891910034 forward_v I I I I #
face $-1 $102 $103 $34 $-1 $104 forward single #
loop $-1 $105 $106 $43 #
cone-surface $-1 -67.034646831295447 8.4255895395938012 8.0483597287458544 0.5877852598018023 0 -0.80901698891910034 1.6180339778382007 0 1.1755705196036046 1 I I 0 1 2 forward I I I I #
face $-1 $107 $108 $35 $-1 $109 forward single #
loop $-1 $110 $111 $44 #
cone-surface $-1 -67.034646831295447 14.688425728044464 8.0483597287458544 0.5877852598018023 0 -0.80901698891910034 1.6180339778382007 0 1.1755705196036046 1 I I 0 1 2 forward I I I I #
face $-1 $112 $113 $27 $-1 $114 reversed single #
loop $-1 $-1 $115 $45 #
plane-surface $-1 0 0 -16.901905986969389 0 0 1 1 0 0 forward_v I I I I #
coedge $-1 $116 $117 $118 $119 forward $46 $-1 #
face $-1 $120 $121 $28 $-1 $122 forward single #
loop $-1 $-1 $123 $48 #
plane-surface $-1 -77.630542924283588 0 0 1 0 0 0 0 -1 forward_v I I I I #
coedge $-1 $124 $125 $126 $127 forward $49 $-1 #
face $-1 $128 $129 $29 $-1 $130 forward single #
loop $-1 $-1 $131 $51 #
plane-surface $-1 77.630542924283588 0 0 -1 0 0 0 0 1 forward_v I I I I #
coedge $-1 $132 $133 $134 $135 forward $52 $-1 #
face $-1 $136 $137 $30 $-1 $138 reversed single #
loop $-1 $-1 $139 $54 #
plane-surface $-1 -77.630542924283588 -11.55700763381914 4.0882218723239134 -0.5877852598018023 0 0.80901698891910034 0.80901698891910034 0 0.5877852598018023 forward_v I I I I #
coedge $-1 $140 $141 $142 $143 reversed $55 $-1 #
face $-1 $-1 $144 $31 $-1 $145 forward single #
loop $-1 $146 $147 $57 #
cone-surface $-1 -64.669226881391438 -14.688425728044471 4.7926385389259671 0.5877852598018023 0 -0.80901698891910034 0.80901698891910034 0 0.5877852598018023 1 I I -0.70710678118654746 0.70710678118654746 1 forward I I I I #
loop $-1 $-1 $148 $40 #
coedge $-1 $92 $92 $149 $150 reversed $58 $-1 #
face $-1 $-1 $151 $32 $-1 $152 forward single #
loop $-1 $153 $154 $60 #
cone-surface $-1 -64.669226881391438 -8.4255895395938083 4.7926385389259671 0.5877852598018023 0 -0.80901698891910034 0.80901698891910034 0 0.5877852598018023 1 I I -0.70710678118654746 0.70710678118654746 1 forward I I I I #
loop $-1 $-1 $155 $41 #
coedge $-1 $97 $97 $156 $157 reversed $61 $-1 #
face $-1 $158 $159 $33 $-1 $160 reversed single #
loop $-1 $-1 $161 $63 #
plane-surface $-1 -77.630542924283588 11.557007633819133 4.0882218723239134 -0.5877852598018023 0 0.80901698891910034 0.80901698891910034 0 0.5877852598018023 forward_v I I I I #
coedge $-1 $162 $163 $164 $165 reversed $64 $-1 #
face $-1 $-1 $166 $34 $-1 $167 forward single #
loop $-1 $168 $169 $66 #
cone-surface $-1 -64.669226881391438 8.4255895395938012 4.7926385389259671 0.5877852598018023 0 -0.80901698891910034 0.80901698891910034 0 0.5877852598018023 1 I I -0.70710678118654746 0.70710678118654746 1 forward I I I I #
loop $-1 $-1 $170 $43 #
coedge $-1 $106 $106 $171 $172 reversed $67 $-1 #
face $-1 $-1 $173 $35 $-1 $174 forward single #
loop $-1 $175 $176 $69 #
cone-surface $-1 -64.669226881391438 14.688425728044464 4.7926385389259671 0.5877852598018023 0 -0.80901698891910034 0.80901698891910034 0 0.5877852598018023 1 I I -0.70710678118654746 0.70710678118654746 1 forward I I I I #
loop $-1 $-1 $177 $44 #
coedge $-1 $111 $111 $178 $179 reversed $70 $-1 #
face $-1 $180 $181 $27 $-1 $182 reversed single #
loop $-1 $-1 $183 $72 #
plane-surface $-1 0 -44.930332173890456 0 0 1 0 0 0 1 forward_v I I I I #
coedge $-1 $184 $185 $186 $187 forward $73 $-1 #
coedge $-1 $188 $75 $189 $190 forward $46 $-1 #
coedge $-1 $75 $188 $191 $192 forward $46 $-1 #
coedge $-1 $193 $194 $75 $119 reversed $195 $-1 #
edge $-1 $196 -44.930332173890456 $197 44.930332173890456 $118 $198 forward 7 unknown #
face $-1 $199 $200 $28 $-1 $201 reversed single #
loop $-1 $-1 $202 $76 #
plane-surface $-1 0 -51.062200474059452 -1.7919606073504522 0 0 1 1 0 0 forward_v I I I I #
coedge $-1 $203 $204 $125 $205 forward $77 $-1 #
coedge $-1 $206 $79 $207 $208 reversed $49 $-1 #
coedge $-1 $79 $206 $123 $205 reversed $49 $-1 #
coedge $-1 $209 $202 $79 $127 reversed $121 $-1 #
edge $-1 $210 -77.630542924283588 $211 77.630542924283588 $126 $212 forward 7 unknown #
face $-1 $213 $214 $29 $-1 $215 reversed single #
loop $-1 $-1 $216 $80 #
plane-surface $-1 0 51.062200474059445 -1.7919606073504522 0 0 1 1 0 0 forward_v I I I I #
coedge $-1 $217 $218 $133 $219 forward $81 $-1 #
coedge $-1 $220 $83 $221 $222 reversed $52 $-1 #
coedge $-1 $83 $220 $131 $219 reversed $52 $-1 #
coedge $-1 $216 $223 $83 $135 reversed $129 $-1 #
edge $-1 $224 -77.630542924283588 $225 77.630542924283588 $134 $226 forward 7 unknown #
face $-1 $227 $228 $30 $-1 $229 reversed single #
loop $-1 $-1 $230 $84 #
plane-surface $-1 -168.89072060689358 -4.2503654139600329 129.69707804184168 0 -1 0 0.5877852598018023 0 -0.80901698891910034 forward_v I I I I #
coedge $-1 $231 $232 $233 $234 reversed $85 $-1 #
coedge $-1 $141 $87 $235 $236 reversed $55 $-1 #
coedge $-1 $87 $140 $231 $237 reversed $55 $-1 #
coedge $-1 $233 $238 $87 $143 forward $239 $-1 #
edge $-1 $240 6.8148173791632018 $241 24.451340184935006 $142 $242 forward 7 unknown #
loop $-1 $-1 $149 $88 #
plane-surface $-1 -77.630542924283588 -11.55700763381914 4.0882218723239134 -0.5877852598018023 0 0.80901698891910034 0.80901698891910034 0 0.5877852598018023 forward_v I I I I #
loop $-1 $-1 $243 $57 #
coedge $-1 $147 $147 $148 $244 reversed $89 $-1 #
coedge $-1 $148 $148 $147 $244 forward $91 $-1 #
coedge $-1 $149 $149 $92 $150 forward $144 $-1 #
edge $-1 $245 0 $245 6.2831853071796004 $149 $246 forward 7 unknown #
loop $-1 $-1 $156 $93 #
plane-surface $-1 -77.630542924283588 -11.55700763381914 4.0882218723239134 -0.5877852598018023 0 0.80901698891910034 0.80901698891910034 0 0.5877852598018023 forward_v I I I I #
loop $-1 $-1 $247 $60 #
coedge $-1 $154 $154 $155 $248 reversed $94 $-1 #
coedge $-1 $155 $155 $154 $248 forward $96 $-1 #
coedge $-1 $156 $156 $97 $157 forward $151 $-1 #
edge $-1 $249 0 $249 6.2831853071796004 $156 $250 forward 7 unknown #
face $-1 $251 $252 $33 $-1 $253 forward single #
loop $-1 $-1 $254 $98 #
plane-surface $-1 -168.89072060689358 18.86364985367824 129.69707804184168 0 -1 0 0.5877852598018023 0 -0.80901698891910034 forward_v I I I I #
coedge $-1 $255 $256 $257 $258 reversed $99 $-1 #
coedge $-1 $163 $101 $259 $260 reversed $64 $-1 #
coedge $-1 $101 $162 $255 $261 reversed $64 $-1 #
coedge $-1 $257 $262 $101 $165 forward $252 $-1 #
edge $-1 $263 6.8148173791632018 $264 24.451340184935006 $164 $265 forward 7 unknown #
loop $-1 $-1 $171 $102 #
plane-surface $-1 -77.630542924283588 11.557007633819133 4.0882218723239134 -0.5877852598018023 0 0.80901698891910034 0.80901698891910034 0 0.5877852598018023 forward_v I I I I #
loop $-1 $-1 $266 $66 #
coedge $-1 $169 $169 $170 $267 reversed $103 $-1 #
coedge $-1 $170 $170 $169 $267 forward $105 $-1 #
coedge $-1 $171 $171 $106 $172 forward $166 $-1 #
edge $-1 $268 0 $268 6.2831853071796004 $171 $269 forward 7 unknown #
loop $-1 $-1 $178 $107 #
plane-surface $-1 -77.630542924283588 11.557007633819133 4.0882218723239134 -0.5877852598018023 0 0.80901698891910034 0.80901698891910034 0 0.5877852598018023 forward_v I I I I #
loop $-1 $-1 $270 $69 #
coedge $-1 $176 $176 $177 $271 reversed $108 $-1 #
coedge $-1 $177 $177 $176 $271 forward $110 $-1 #
coedge $-1 $178 $178 $111 $179 forward $173 $-1 #
edge $-1 $272 0 $272 6.2831853071796004 $178 $273 forward 7 unknown #
face $-1 $274 $275 $27 $-1 $276 reversed single #
loop $-1 $-1 $277 $112 #
plane-surface $-1 -77.630542924283588 0 0 1 0 0 0 0 -1 forward_v I I I I #
coedge $-1 $278 $191 $279 $280 forward $113 $-1 #
coedge $-1 $281 $115 $278 $282 forward $73 $-1 #
coedge $-1 $115 $281 $283 $284 forward $73 $-1 #
coedge $-1 $194 $193 $115 $187 reversed $195 $-1 #
edge $-1 $285 -44.930332173890456 $286 44.930332173890456 $186 $287 forward 7 unknown #
coedge $-1 $117 $116 $288 $289 forward $46 $-1 #
coedge $-1 $290 $291 $116 $190 reversed $275 $-1 #
edge $-1 $197 -77.630542924283588 $292 77.630542924283588 $189 $293 forward 7 unknown #
coedge $-1 $183 $294 $117 $192 reversed $113 $-1 #
edge $-1 $295 -77.630542924283588 $196 77.630542924283588 $191 $296 forward 7 unknown #
coedge $-1 $186 $118 $294 $297 forward $195 $-1 #
coedge $-1 $118 $186 $290 $298 reversed $195 $-1 #
loop $-1 $-1 $193 $274 #
vertex $-1 $119 $299 #
vertex $-1 $119 $300 #
straight-curve $-1 77.630542924283588 0 16.901905986969389 0 1 0 I I #
face $-1 $301 $302 $28 $-1 $303 reversed single #
loop $-1 $-1 $304 $120 #
plane-surface $-1 0 -51.062200474059452 -5.343800697840086 0 0 1 1 0 0 forward_v I I I I #
coedge $-1 $126 $305 $306 $307 forward $121 $-1 #
coedge $-1 $308 $123 $309 $310 reversed $77 $-1 #
coedge $-1 $123 $308 $209 $311 reversed $77 $-1 #
edge $-1 $210 1.7919606073504522 $312 5.343800697840086 $123 $313 forward 7 unknown #
coedge $-1 $125 $124 $314 $315 forward $49 $-1 #
coedge $-1 $306 $316 $124 $208 forward $317 $-1 #
edge $-1 $318 -5.343800697840086 $211 -1.7919606073504522 $207 $319 forward 7 unknown #
coedge $-1 $305 $126 $204 $311 forward $121 $-1 #
vertex $-1 $205 $320 #
vertex $-1 $307 $321 #
straight-curve $-1 0 -44.930332173890456 -1.7919606073504522 1 0 0 I I #
face $-1 $322 $323 $29 $-1 $324 reversed single #
loop $-1 $-1 $325 $128 #
plane-surface $-1 0 51.062200474059445 -5.343800697840086 0 0 1 1 0 0 forward_v I I I I #
coedge $-1 $326 $134 $218 $327 forward $129 $-1 #
coedge $-1 $328 $131 $325 $329 reversed $81 $-1 #
coedge $-1 $131 $328 $216 $327 reversed $81 $-1 #
edge $-1 $224 1.7919606073504522 $330 5.343800697840086 $131 $331 forward 7 unknown #
coedge $-1 $133 $132 $332 $333 forward $52 $-1 #
coedge $-1 $334 $335 $132 $222 forward $336 $-1 #
edge $-1 $337 -5.343800697840086 $225 -1.7919606073504522 $221 $338 forward 7 unknown #
coedge $-1 $134 $326 $334 $339 forward $129 $-1 #
vertex $-1 $219 $340 #
vertex $-1 $339 $341 #
straight-curve $-1 0 44.930332173890456 -1.7919606073504522 -1 0 0 I I #
face $-1 $-1 $239 $30 $-1 $342 forward single #
loop $-1 $-1 $343 $136 #
plane-surface $-1 -77.630542924283588 0 0 1 0 0 0 0 -1 forward_v I I I I #
coedge $-1 $344 $345 $346 $347 reversed $137 $-1 #
coedge $-1 $348 $139 $141 $237 forward $85 $-1 #
coedge $-1 $139 $348 $344 $349 forward $85 $-1 #
coedge $-1 $346 $142 $139 $234 forward $239 $-1 #
edge $-1 $241 -13.085146036768677 $350 1.5281384029495371 $233 $351 forward 7 unknown #
coedge $-1 $352 $353 $140 $236 forward $228 $-1 #
edge $-1 $354 -60.760317148596926 $240 -47.94663303395145 $235 $355 forward 7 unknown #
edge $-1 $241 -21.799941221673667 $354 0 $141 $356 forward 7 unknown #
coedge $-1 $142 $346 $352 $357 forward $239 $-1 #
loop $-1 $-1 $346 $227 #
vertex $-1 $236 $358 #
vertex $-1 $143 $359 #
straight-curve $-1 -84.44536030344679 -18.863649853678247 16.901905986969389 1 0 0 I I #
coedge $-1 $243 $243 $-1 $360 reversed $146 $-1 #
edge $-1 $361 0 $361 6.2831853071796004 $147 $362 forward 7 unknown #
vertex $-1 $150 $363 #
ellipse-curve $-1 -68.812281521397679 -14.688425728044471 10.49506392964666 -0.5877852598018023 0 0.80901698891910034 1.6180339778382007 0 1.1755705196036046 1 I I #
coedge $-1 $247 $247 $-1 $364 reversed $153 $-1 #
edge $-1 $365 0 $365 6.2831853071796004 $154 $366 forward 7 unknown #
vertex $-1 $157 $367 #
ellipse-curve $-1 -68.812281521397679 -8.4255895395938083 10.49506392964666 -0.5877852598018023 0 0.80901698891910034 1.6180339778382007 0 1.1755705196036046 1 I I #
face $-1 $-1 $368 $33 $-1 $369 reversed single #
loop $-1 $-1 $164 $158 #
plane-surface $-1 0 0 16.901905986969389 0 0 1 1 0 0 forward_v I I I I #
coedge $-1 $370 $371 $372 $373 reversed $159 $-1 #
coedge $-1 $374 $161 $163 $261 forward $99 $-1 #
coedge $-1 $161 $374 $370 $375 forward $99 $-1 #
coedge $-1 $372 $164 $161 $258 forward $252 $-1 #
edge $-1 $264 -1.5281384029495406 $376 13.085146036768673 $257 $377 forward 7 unknown #
coedge $-1 $378 $379 $162 $260 forward $368 $-1 #
edge $-1 $380 -60.760317148596926 $263 -47.94663303395145 $259 $381 forward 7 unknown #
edge $-1 $264 -21.799941221673667 $380 0 $163 $382 forward 7 unknown #
coedge $-1 $164 $372 $378 $383 forward $252 $-1 #
vertex $-1 $165 $384 #
vertex $-1 $165 $385 #
straight-curve $-1 -84.44536030344679 4.2503654139600258 16.901905986969389 1 0 0 I I #
coedge $-1 $266 $266 $-1 $386 reversed $168 $-1 #
edge $-1 $387 0 $387 6.2831853071796004 $169 $388 forward 7 unknown #
vertex $-1 $172 $389 #
ellipse-curve $-1 -68.812281521397679 8.4255895395938012 10.49506392964666 -0.5877852598018023 0 0.80901698891910034 1.6180339778382007 0 1.1755705196036046 1 I I #
coedge $-1 $270 $270 $-1 $390 reversed $175 $-1 #
edge $-1 $391 0 $391 6.2831853071796004 $176 $392 forward 7 unknown #
vertex $-1 $179 $393 #
ellipse-curve $-1 -68.812281521397679 14.688425728044464 10.49506392964666 -0.5877852598018023 0 0.80901698891910034 1.6180339778382007 0 1.1755705196036046 1 I I #
face $-1 $-1 $195 $27 $-1 $394 reversed single #
loop $-1 $-1 $290 $180 #
plane-surface $-1 0 44.930332173890456 0 0 -1 0 0 0 -1 forward_v I I I I #
coedge $-1 $395 $288 $291 $396 forward $181 $-1 #
coedge $-1 $294 $183 $184 $282 reversed $113 $-1 #
coedge $-1 $288 $395 $183 $280 reversed $181 $-1 #
edge $-1 $295 -16.901905986969389 $397 16.901905986969389 $279 $398 forward 7 unknown #
coedge $-1 $185 $184 $395 $399 forward $73 $-1 #
edge $-1 $286 -77.630542924283588 $397 77.630542924283588 $278 $400 forward 7 unknown #
coedge $-1 $291 $290 $185 $284 reversed $275 $-1 #
edge $-1 $401 -77.630542924283588 $285 77.630542924283588 $283 $402 forward 7 unknown #
vertex $-1 $187 $403 #
vertex $-1 $297 $404 #
straight-curve $-1 77.630542924283588 0 -16.901905986969389 0 -1 0 I I #
coedge $-1 $277 $279 $188 $289 reversed $181 $-1 #
edge $-1 $292 -44.930332173890456 $295 44.930332173890456 $288 $405 forward 7 unknown #
coedge $-1 $283 $189 $194 $298 forward $275 $-1 #
coedge $-1 $189 $283 $277 $396 reversed $275 $-1 #
vertex $-1 $190 $406 #
straight-curve $-1 0 44.930332173890456 16.901905986969389 -1 0 0 I I #
coedge $-1 $191 $278 $193 $297 reversed $113 $-1 #
vertex $-1 $289 $407 #
straight-curve $-1 0 -44.930332173890456 16.901905986969389 1 0 0 I I #
edge $-1 $196 -16.901905986969389 $286 16.901905986969389 $193 $408 forward 7 unknown #
edge $-1 $197 -16.901905986969389 $285 16.901905986969389 $194 $409 forward 7 unknown #
point $-1 77.630542924283588 -44.930332173890456 16.901905986969389 #
point $-1 77.630542924283588 44.930332173890456 16.901905986969389 #
face $-1 $-1 $317 $28 $-1 $410 reversed single #
loop $-1 $-1 $411 $199 #
plane-surface $-1 0 -57.194068774228448 -3.5678806525952691 0 1 0 0 0 1 forward_v I I I I #
coedge $-1 $412 $314 $316 $413 forward $200 $-1 #
coedge $-1 $202 $209 $414 $415 forward $121 $-1 #
coedge $-1 $416 $207 $202 $307 reversed $317 $-1 #
edge $-1 $417 -6.1318683001689962 $211 6.1318683001689962 $306 $418 forward 7 unknown #
coedge $-1 $204 $203 $411 $419 reversed $77 $-1 #
coedge $-1 $314 $412 $203 $310 forward $200 $-1 #
edge $-1 $420 -6.1318683001689962 $312 6.1318683001689962 $203 $421 forward 7 unknown #
edge $-1 $210 -6.1318683001689962 $422 6.1318683001689962 $204 $423 forward 7 unknown #
vertex $-1 $205 $424 #
straight-curve $-1 -77.630542924283588 -44.930332173890456 0 0 0 -1 I I #
coedge $-1 $304 $309 $206 $315 reversed $200 $-1 #
edge $-1 $318 -77.630542924283588 $312 77.630542924283588 $314 $425 forward 7 unknown #
coedge $-1 $207 $416 $304 $413 reversed $317 $-1 #
loop $-1 $-1 $207 $301 #
vertex $-1 $208 $426 #
straight-curve $-1 77.630542924283588 -44.930332173890456 0 0 0 1 I I #
point $-1 -77.630542924283588 -44.930332173890456 -1.7919606073504522 #
point $-1 77.630542924283588 -44.930332173890456 -1.7919606073504522 #
face $-1 $-1 $336 $29 $-1 $427 reversed single #
loop $-1 $-1 $428 $213 #
plane-surface $-1 0 57.194068774228441 -3.5678806525952691 0 -1 0 0 0 -1 forward_v I I I I #
coedge $-1 $332 $429 $217 $329 forward $214 $-1 #
coedge $-1 $223 $216 $430 $431 forward $129 $-1 #
edge $-1 $224 -6.1318683001689962 $432 6.1318683001689962 $218 $433 forward 7 unknown #
coedge $-1 $218 $217 $428 $434 reversed $81 $-1 #
edge $-1 $435 -6.1318683001689962 $330 6.1318683001689962 $217 $436 forward 7 unknown #
vertex $-1 $219 $437 #
straight-curve $-1 77.630542924283588 44.930332173890456 0 0 0 -1 I I #
coedge $-1 $438 $325 $220 $333 reversed $214 $-1 #
edge $-1 $337 -77.630542924283588 $330 77.630542924283588 $332 $439 forward 7 unknown #
coedge $-1 $440 $221 $223 $339 reversed $336 $-1 #
coedge $-1 $221 $440 $438 $441 reversed $336 $-1 #
loop $-1 $-1 $221 $322 #
vertex $-1 $222 $442 #
straight-curve $-1 -77.630542924283588 44.930332173890456 0 0 0 1 I I #
edge $-1 $443 -6.1318683001689962 $225 6.1318683001689962 $334 $444 forward 7 unknown #
point $-1 77.630542924283588 44.930332173890449 -1.7919606073504522 #
point $-1 -77.630542924283588 44.930332173890449 -1.7919606073504522 #
plane-surface $-1 0 0 16.901905986969389 0 0 1 1 0 0 forward_v I I I I #
coedge $-1 $353 $352 $345 $445 forward $228 $-1 #
coedge $-1 $345 $230 $232 $349 reversed $137 $-1 #
coedge $-1 $230 $344 $343 $445 reversed $137 $-1 #
coedge $-1 $238 $233 $230 $347 forward $239 $-1 #
edge $-1 $350 -24.451340184935006 $446 -6.8148173791632018 $346 $447 forward 7 unknown #
coedge $-1 $232 $231 $353 $448 reversed $85 $-1 #
edge $-1 $449 0 $350 21.799941221673667 $344 $450 forward 7 unknown #
vertex $-1 $234 $451 #
straight-curve $-1 -59.994020118511784 -5.7785038169095699 16.901905986969389 0 1 0 I I #
coedge $-1 $343 $235 $238 $357 reversed $228 $-1 #
coedge $-1 $235 $343 $348 $448 forward $228 $-1 #
vertex $-1 $236 $452 #
straight-curve $-1 -77.630542924283588 -18.863649853678247 64.848539020920839 0 0 1 I I #
straight-curve $-1 -77.630542924283588 -18.863649853678247 4.0882218723239134 -0.80901698891910034 0 -0.5877852598018023 I I #
edge $-1 $446 4.2503654139600329 $240 18.863649853678247 $352 $453 forward 7 unknown #
point $-1 -77.630542924283588 -18.863649853678247 16.901905986969389 #
point $-1 -59.994020118511784 -18.863649853678247 16.901905986969389 #
edge $-1 $454 1 $454 0 $243 $-1 forward 7 unknown #
vertex $-1 $244 $455 #
ellipse-curve $-1 -65.257012141193243 -14.688425728044471 5.6016555278450673 -0.5877852598018023 0 0.80901698891910034 1.6180339778382007 0 1.1755705196036046 1 I I #
point $-1 -67.19424754355947 -14.688425728044471 11.670634449250247 #
edge $-1 $456 1 $456 0 $247 $-1 forward 7 unknown #
vertex $-1 $248 $457 #
ellipse-curve $-1 -65.257012141193243 -8.4255895395938083 5.6016555278450673 -0.5877852598018023 0 0.80901698891910034 1.6180339778382007 0 1.1755705196036046 1 I I #
point $-1 -67.19424754355947 -8.4255895395938083 11.670634449250247 #
loop $-1 $-1 $259 $251 #
plane-surface $-1 -77.630542924283588 0 0 1 0 0 0 0 -1 forward_v I I I I #
coedge $-1 $371 $254 $256 $375 reversed $159 $-1 #
coedge $-1 $254 $370 $458 $459 reversed $159 $-1 #
coedge $-1 $262 $257 $254 $373 forward $252 $-1 #
edge $-1 $376 -24.451340184935006 $460 -6.8148173791632018 $372 $461 forward 7 unknown #
coedge $-1 $256 $255 $379 $462 reversed $99 $-1 #
edge $-1 $463 0 $376 21.799941221673667 $370 $464 forward 7 unknown #
vertex $-1 $258 $465 #
straight-curve $-1 -59.994020118511784 5.7785038169095664 16.901905986969389 0 1 0 I I #
coedge $-1 $458 $259 $262 $383 reversed $368 $-1 #
coedge $-1 $259 $458 $374 $462 forward $368 $-1 #
vertex $-1 $260 $466 #
straight-curve $-1 -77.630542924283588 4.2503654139600258 64.848539020920839 0 0 1 I I #
straight-curve $-1 -77.630542924283588 4.2503654139600258 4.0882218723239134 -0.80901698891910034 0 -0.5877852598018023 I I #
edge $-1 $460 -18.86364985367824 $263 -4.2503654139600258 $378 $467 forward 7 unknown #
point $-1 -77.630542924283588 4.2503654139600258 16.901905986969389 #
point $-1 -59.994020118511784 4.2503654139600258 16.901905986969389 #
edge $-1 $468 1 $468 0 $266 $-1 forward 7 unknown #
vertex $-1 $267 $469 #
ellipse-curve $-1 -65.257012141193243 8.4255895395938012 5.6016555278450673 -0.5877852598018023 0 0.80901698891910034 1.6180339778382007 0 1.1755705196036046 1 I I #
point $-1 -67.19424754355947 8.4255895395938012 11.670634449250247 #
edge $-1 $470 1 $470 0 $270 $-1 forward 7 unknown #
vertex $-1 $271 $471 #
ellipse-curve $-1 -65.257012141193243 14.688425728044464 5.6016555278450673 -0.5877852598018023 0 0.80901698891910034 1.6180339778382007 0 1.1755705196036046 1 I I #
point $-1 -67.19424754355947 14.688425728044464 11.670634449250247 #
plane-surface $-1 77.630542924283588 0 0 -1 0 0 0 0 1 forward_v I I I I #
coedge $-1 $279 $277 $281 $399 reversed $181 $-1 #
edge $-1 $292 -16.901905986969389 $401 16.901905986969389 $291 $472 forward 7 unknown #
vertex $-1 $399 $473 #
straight-curve $-1 -77.630542924283588 -44.930332173890456 0 0 0 -1 I I #
edge $-1 $397 -44.930332173890456 $401 44.930332173890456 $395 $474 forward 7 unknown #
straight-curve $-1 0 -44.930332173890456 -16.901905986969389 -1 0 0 I I #
vertex $-1 $284 $475 #
straight-curve $-1 0 44.930332173890456 -16.901905986969389 1 0 0 I I #
point $-1 77.630542924283588 44.930332173890456 -16.901905986969389 #
point $-1 77.630542924283588 -44.930332173890456 -16.901905986969389 #
straight-curve $-1 -77.630542924283588 0 16.901905986969389 0 -1 0 I I #
point $-1 -77.630542924283588 44.930332173890456 16.901905986969389 #
point $-1 -77.630542924283588 -44.930332173890456 16.901905986969389 #
straight-curve $-1 77.630542924283588 -44.930332173890456 0 0 0 -1 I I #
straight-curve $-1 77.630542924283588 44.930332173890456 0 0 0 -1 I I #
plane-surface $-1 77.630542924283588 0 0 -1 0 0 0 0 1 forward_v I I I I #
coedge $-1 $476 $414 $308 $419 forward $302 $-1 #
coedge $-1 $309 $304 $476 $477 forward $200 $-1 #
edge $-1 $318 -6.1318683001689962 $478 6.1318683001689962 $316 $479 forward 7 unknown #
coedge $-1 $411 $480 $305 $415 reversed $302 $-1 #
edge $-1 $422 -77.630542924283588 $417 77.630542924283588 $414 $481 forward 7 unknown #
coedge $-1 $316 $306 $480 $482 forward $317 $-1 #
vertex $-1 $307 $483 #
straight-curve $-1 77.630542924283588 -51.062200474059452 -1.7919606073504522 0 1 0 I I #
edge $-1 $422 -1.7759200452448169 $420 1.7759200452448169 $308 $484 forward 7 unknown #
vertex $-1 $310 $485 #
straight-curve $-1 -77.630542924283588 -51.062200474059452 -5.343800697840086 0 1 0 I I #
vertex $-1 $311 $486 #
straight-curve $-1 -77.630542924283588 -51.062200474059452 -1.7919606073504522 0 -1 0 I I #
point $-1 -77.630542924283588 -44.930332173890456 -5.343800697840086 #
straight-curve $-1 0 -44.930332173890456 -5.343800697840086 -1 0 0 I I #
point $-1 77.630542924283588 -44.930332173890456 -5.343800697840086 #
plane-surface $-1 -77.630542924283588 0 0 1 0 0 0 0 -1 forward_v I I I I #
coedge $-1 $487 $430 $328 $434 forward $323 $-1 #
coedge $-1 $325 $438 $487 $488 forward $214 $-1 #
coedge $-1 $428 $489 $326 $431 reversed $323 $-1 #
edge $-1 $432 -77.630542924283588 $443 77.630542924283588 $430 $490 forward 7 unknown #
vertex $-1 $327 $491 #
straight-curve $-1 77.630542924283588 51.062200474059445 -1.7919606073504522 0 1 0 I I #
edge $-1 $432 -1.7759200452448169 $435 1.7759200452448169 $328 $492 forward 7 unknown #
vertex $-1 $329 $493 #
straight-curve $-1 77.630542924283588 51.062200474059445 -5.343800697840086 0 -1 0 I I #
point $-1 77.630542924283588 44.930332173890449 -5.343800697840086 #
coedge $-1 $429 $332 $335 $441 forward $214 $-1 #
straight-curve $-1 0 44.930332173890456 -5.343800697840086 1 0 0 I I #
coedge $-1 $335 $334 $489 $494 forward $336 $-1 #
edge $-1 $337 -6.1318683001689962 $495 6.1318683001689962 $335 $496 forward 7 unknown #
point $-1 -77.630542924283588 44.930332173890449 -5.343800697840086 #
vertex $-1 $431 $497 #
straight-curve $-1 -77.630542924283588 51.062200474059445 -1.7919606073504522 0 -1 0 I I #
edge $-1 $446 47.94663303395145 $449 60.760317148596926 $343 $498 forward 7 unknown #
vertex $-1 $357 $499 #
straight-curve $-1 -84.44536030344679 -4.2503654139600329 16.901905986969389 -1 0 0 I I #
edge $-1 $449 -1.5281384029495371 $354 13.085146036768677 $353 $500 forward 7 unknown #
vertex $-1 $448 $501 #
straight-curve $-1 -77.630542924283588 -4.2503654139600329 4.0882218723239134 0.80901698891910034 0 0.5877852598018023 I I #
point $-1 -59.994020118511784 -4.2503654139600329 16.901905986969389 #
point $-1 -77.630542924283588 -18.863649853678247 4.0882218723239134 #
straight-curve $-1 -77.630542924283588 0 16.901905986969389 0 -1 0 I I #
vertex $-1 $360 $502 #
point $-1 -63.638978163355041 -14.688425728044471 6.7772260474486723 #
vertex $-1 $364 $503 #
point $-1 -63.638978163355041 -8.4255895395938083 6.7772260474486723 #
coedge $-1 $379 $378 $371 $459 forward $368 $-1 #
edge $-1 $460 47.94663303395145 $463 60.760317148596926 $458 $504 forward 7 unknown #
vertex $-1 $383 $505 #
straight-curve $-1 -84.44536030344679 18.86364985367824 16.901905986969389 -1 0 0 I I #
edge $-1 $463 -13.085146036768673 $380 1.5281384029495406 $379 $506 forward 7 unknown #
vertex $-1 $462 $507 #
straight-curve $-1 -77.630542924283588 18.86364985367824 4.0882218723239134 0.80901698891910034 0 0.5877852598018023 I I #
point $-1 -59.994020118511784 18.86364985367824 16.901905986969389 #
point $-1 -77.630542924283588 4.2503654139600258 4.0882218723239134 #
straight-curve $-1 -77.630542924283588 0 16.901905986969389 0 -1 0 I I #
vertex $-1 $386 $508 #
point $-1 -63.638978163355041 8.4255895395938012 6.7772260474486723 #
vertex $-1 $390 $509 #
point $-1 -63.638978163355041 14.688425728044464 6.7772260474486723 #
straight-curve $-1 -77.630542924283588 44.930332173890456 0 0 0 -1 I I #
point $-1 -77.630542924283588 -44.930332173890456 -16.901905986969389 #
straight-curve $-1 -77.630542924283588 0 -16.901905986969389 0 1 0 I I #
point $-1 -77.630542924283588 44.930332173890456 -16.901905986969389 #
coedge $-1 $480 $411 $412 $477 reversed $302 $-1 #
edge $-1 $478 -77.630542924283588 $420 77.630542924283588 $476 $510 forward 7 unknown #
vertex $-1 $482 $511 #
straight-curve $-1 77.630542924283588 -51.062200474059452 -5.343800697840086 0 -1 0 I I #
coedge $-1 $414 $476 $416 $482 reversed $302 $-1 #
straight-curve $-1 0 -57.194068774228448 -1.7919606073504522 1 0 0 I I #
edge $-1 $417 -1.7759200452448169 $478 1.7759200452448169 $416 $512 forward 7 unknown #
point $-1 77.630542924283588 -57.194068774228448 -1.7919606073504522 #
straight-curve $-1 -77.630542924283588 -57.194068774228448 -3.5678806525952691 0 0 -1 I I #
point $-1 -77.630542924283588 -57.194068774228448 -5.343800697840086 #
point $-1 -77.630542924283588 -57.194068774228448 -1.7919606073504522 #
coedge $-1 $489 $428 $429 $488 reversed $323 $-1 #
edge $-1 $495 -77.630542924283588 $435 77.630542924283588 $487 $513 forward 7 unknown #
coedge $-1 $430 $487 $440 $494 reversed $323 $-1 #
straight-curve $-1 0 57.194068774228441 -1.7919606073504522 -1 0 0 I I #
point $-1 77.630542924283588 57.194068774228441 -1.7919606073504522 #
straight-curve $-1 77.630542924283588 57.194068774228441 -3.5678806525952691 0 0 -1 I I #
point $-1 77.630542924283588 57.194068774228441 -5.343800697840086 #
edge $-1 $443 -1.7759200452448169 $495 1.7759200452448169 $489 $514 forward 7 unknown #
vertex $-1 $488 $515 #
straight-curve $-1 -77.630542924283588 51.062200474059445 -5.343800697840086 0 1 0 I I #
point $-1 -77.630542924283588 57.194068774228441 -1.7919606073504522 #
straight-curve $-1 -77.630542924283588 -4.2503654139600329 64.848539020920839 0 0 -1 I I #
point $-1 -77.630542924283588 -4.2503654139600329 16.901905986969389 #
straight-curve $-1 -77.630542924283588 -5.7785038169095699 4.0882218723239161 0 -1 0 I I #
point $-1 -77.630542924283588 -4.2503654139600329 4.0882218723239134 #
point $-1 -64.081441621589633 -14.688425728044471 3.983621550006867 #
point $-1 -64.081441621589633 -8.4255895395938083 3.983621550006867 #
straight-curve $-1 -77.630542924283588 18.86364985367824 64.848539020920839 0 0 -1 I I #
point $-1 -77.630542924283588 18.86364985367824 16.901905986969389 #
straight-curve $-1 -77.630542924283588 5.7785038169095664 4.0882218723239161 0 -1 0 I I #
point $-1 -77.630542924283588 18.86364985367824 4.0882218723239134 #
point $-1 -64.081441621589633 8.4255895395938012 3.983621550006867 #
point $-1 -64.081441621589633 14.688425728044464 3.983621550006867 #
straight-curve $-1 0 -57.194068774228448 -5.343800697840086 -1 0 0 I I #
point $-1 77.630542924283588 -57.194068774228448 -5.343800697840086 #
straight-curve $-1 77.630542924283588 -57.194068774228448 -3.5678806525952691 0 0 -1 I I #
straight-curve $-1 0 57.194068774228441 -5.343800697840086 1 0 0 I I #
straight-curve $-1 -77.630542924283588 57.194068774228441 -3.5678806525952691 0 0 -1 I I #
point $-1 -77.630542924283588 57.194068774228441 -5.343800697840086 #
End-of-ACIS-data 