500 0 13 0           
7 Unknown 11 ACIS 5.0 NT 24 Thu Mar 25 16:47:59 1999 
-1 9.9999999999999995e-007 1e-010 
body $-1 $13 $-1 $14 #
body $-1 $15 $-1 $16 #
body $-1 $17 $-1 $18 #
body $-1 $19 $-1 $20 #
body $-1 $21 $-1 $22 #
body $-1 $23 $-1 $24 #
body $-1 $25 $-1 $26 #
body $-1 $27 $-1 $28 #
body $-1 $29 $-1 $30 #
body $-1 $31 $-1 $32 #
body $-1 $33 $-1 $34 #
body $-1 $35 $-1 $36 #
body $-1 $37 $-1 $38 #
lump $-1 $-1 $39 $0 #
transform $-1 1 0 0 0 1 0 0 0 1 46.117130039368874 31.035152272045746 12.341698909441355 1 rotate no_reflect no_shear #
lump $-1 $-1 $40 $1 #
transform $-1 1 0 0 0 1 0 0 0 1 46.117130039368874 31.035152272045746 12.341698909441355 1 rotate no_reflect no_shear #
lump $-1 $-1 $41 $2 #
transform $-1 1 0 0 0 1 0 0 0 1 46.117130039368874 31.035152272045746 12.341698909441355 1 rotate no_reflect no_shear #
lump $-1 $-1 $42 $3 #
transform $-1 1 0 0 0 1 0 0 0 1 46.117130039368874 31.035152272045746 12.341698909441355 1 rotate no_reflect no_shear #
lump $-1 $-1 $43 $4 #
transform $-1 1 0 0 0 1 0 0 0 1 46.117130039368874 31.035152272045746 12.341698909441355 1 rotate no_reflect no_shear #
lump $-1 $-1 $44 $5 #
transform $-1 1 0 0 0 1 0 0 0 1 46.117130039368874 31.035152272045746 12.341698909441355 1 rotate no_reflect no_shear #
lump $-1 $-1 $45 $6 #
transform $-1 1 0 0 0 1 0 0 0 1 46.117130039368874 31.035152272045746 12.341698909441355 1 rotate no_reflect no_shear #
lump $-1 $-1 $46 $7 #
transform $-1 1 0 0 0 1 0 0 0 1 46.117130039368874 31.035152272045746 12.341698909441355 1 rotate no_reflect no_shear #
lump $-1 $-1 $47 $8 #
transform $-1 1 0 0 0 1 0 0 0 1 46.117130039368874 31.035152272045746 12.341698909441355 1 rotate no_reflect no_shear #
lump $-1 $-1 $48 $9 #
transform $-1 1 0 0 0 1 0 0 0 1 46.117130039368874 31.035152272045746 12.341698909441355 1 rotate no_reflect no_shear #
lump $-1 $-1 $49 $10 #
transform $-1 1 0 0 0 1 0 0 0 1 46.117130039368874 31.035152272045746 12.341698909441355 1 rotate no_reflect no_shear #
lump $-1 $-1 $50 $11 #
transform $-1 1 0 0 0 1 0 0 0 1 46.117130039368874 31.035152272045746 12.341698909441355 1 rotate no_reflect no_shear #
lump $-1 $-1 $51 $12 #
transform $-1 1 0 0 0 1 0 0 0 1 46.117130039368874 31.035152272045746 12.341698909441355 1 rotate no_reflect no_shear #
shell $-1 $-1 $-1 $52 $-1 $13 #
shell $-1 $-1 $-1 $53 $-1 $15 #
shell $-1 $-1 $-1 $54 $-1 $17 #
shell $-1 $-1 $-1 $55 $-1 $19 #
shell $-1 $-1 $-1 $56 $-1 $21 #
shell $-1 $-1 $-1 $57 $-1 $23 #
shell $-1 $-1 $-1 $58 $-1 $25 #
shell $-1 $-1 $-1 $59 $-1 $27 #
shell $-1 $-1 $-1 $60 $-1 $29 #
shell $-1 $-1 $-1 $61 $-1 $31 #
shell $-1 $-1 $-1 $62 $-1 $33 #
shell $-1 $-1 $-1 $63 $-1 $35 #
shell $-1 $-1 $-1 $64 $-1 $37 #
face $-1 $65 $66 $39 $-1 $67 forward single #
face $-1 $68 $69 $40 $-1 $70 forward single #
face $-1 $71 $72 $41 $-1 $73 reversed single #
face $-1 $74 $75 $42 $-1 $76 reversed single #
face $-1 $77 $78 $43 $-1 $79 forward single #
face $-1 $80 $81 $44 $-1 $82 reversed single #
face $-1 $83 $84 $45 $-1 $85 forward single #
face $-1 $86 $87 $46 $-1 $88 reversed single #
face $-1 $89 $90 $47 $-1 $91 forward single #
face $-1 $92 $93 $48 $-1 $94 reversed single #
face $-1 $95 $96 $49 $-1 $97 forward single #
face $-1 $98 $99 $50 $-1 $100 reversed single #
face $-1 $101 $102 $51 $-1 $103 forward single #
face $-1 $104 $105 $39 $-1 $106 reversed single #
loop $-1 $-1 $107 $52 #
plane-surface $-1 0 0 12.341698909441355 0 0 1 1 0 0 forward_v I I I I #
face $-1 $108 $109 $40 $-1 $110 reversed single #
loop $-1 $-1 $111 $53 #
plane-surface $-1 0 -24.797552859113111 -9.3416989094413552 0 0 1 1 0 0 forward_v I I I I #
face $-1 $112 $113 $41 $-1 $114 reversed single #
loop $-1 $-1 $115 $54 #
plane-surface $-1 0 25.857288483907144 6.2578179986273526 0 0 1 1 0 0 forward_v I I I I #
face $-1 $116 $117 $42 $-1 $118 reversed single #
loop $-1 $-1 $119 $55 #
plane-surface $-1 -96.351509102148412 -16.026139515638899 84.679952953858304 0 1 0 -0.54463904215088732 0 0.83867056331134215 forward_v I I I I #
face $-1 $120 $121 $43 $-1 $122 forward single #
loop $-1 $123 $124 $56 #
cone-surface $-1 -41.552395529391823 -11.791195930049049 8.7514885577647714 0.54463904215088732 0 -0.83867056331134215 0.83867056331134215 0 0.54463904215088732 1 I I 0 1 1 forward I I I I #
face $-1 $125 $126 $44 $-1 $127 reversed single #
loop $-1 $-1 $128 $57 #
plane-surface $-1 -96.351509102148412 -2.9463468016558929 84.679952953858304 0 1 0 -0.54463904215088732 0 0.83867056331134215 forward_v I I I I #
face $-1 $129 $130 $45 $-1 $131 forward single #
loop $-1 $132 $133 $58 #
cone-surface $-1 -41.552395529391823 1.2885967839339578 8.7514885577647714 0.54463904215088732 0 -0.83867056331134215 0.83867056331134215 0 0.54463904215088732 1 I I 0 1 1 forward I I I I #
face $-1 $134 $135 $46 $-1 $136 reversed single #
loop $-1 $-1 $137 $59 #
plane-surface $-1 -96.351509102148412 10.133445912327112 84.679952953858304 0 1 0 -0.54463904215088732 0 0.83867056331134215 forward_v I I I I #
face $-1 $138 $139 $47 $-1 $140 forward single #
loop $-1 $141 $142 $60 #
cone-surface $-1 -41.552395529391823 14.368389497916962 8.7514885577647714 0.54463904215088732 0 -0.83867056331134215 0.83867056331134215 0 0.54463904215088732 1 I I 0 1 1 forward I I I I #
face $-1 $143 $144 $48 $-1 $145 reversed single #
loop $-1 $-1 $146 $61 #
plane-surface $-1 39.290484714258909 -4.0236253479735833 134.31679242279037 0 -1 0 -0.66913061440640931 0 -0.74314481823134659 forward_v I I I I #
face $-1 $147 $148 $49 $-1 $149 forward single #
loop $-1 $150 $151 $62 #
cone-surface $-1 39.757137678500513 -7.0704824709265957 6.2453304792762765 -0.66913061440640931 0 -0.74314481823134659 1.1147172273470198 0 -1.003695921609614 1 I I 0 1 1.5 forward I I I I #
face $-1 $152 $153 $50 $-1 $154 reversed single #
loop $-1 $-1 $155 $63 #
plane-surface $-1 39.290484714258909 15.596063723000926 134.31679242279037 0 -1 0 -0.66913061440640931 0 -0.74314481823134659 forward_v I I I I #
face $-1 $156 $157 $51 $-1 $158 forward single #
loop $-1 $159 $160 $64 #
cone-surface $-1 39.757137678500513 12.549206600047913 6.2453304792762765 -0.66913061440640931 0 -0.74314481823134659 1.1147172273470198 0 -1.003695921609614 1 I I 0 1 1.5 forward I I I I #
face $-1 $161 $162 $39 $-1 $163 reversed single #
loop $-1 $-1 $164 $65 #
plane-surface $-1 0 0 -12.341698909441355 0 0 1 1 0 0 forward_v I I I I #
coedge $-1 $165 $166 $167 $168 forward $66 $-1 #
face $-1 $169 $170 $40 $-1 $171 reversed single #
loop $-1 $-1 $172 $68 #
plane-surface $-1 0 -18.559953446180476 -10.841698909441355 0 -1 0 0 0 -1 forward_v I I I I #
coedge $-1 $173 $174 $175 $176 reversed $69 $-1 #
face $-1 $177 $178 $41 $-1 $179 reversed single #
loop $-1 $-1 $180 $71 #
plane-surface $-1 0 20.679424695768539 9.2997584540343539 0 1 0 0 0 1 forward_v I I I I #
coedge $-1 $181 $182 $183 $184 reversed $72 $-1 #
face $-1 $185 $186 $42 $-1 $187 reversed single #
loop $-1 $-1 $188 $74 #
plane-surface $-1 -46.11713003936886 -11.791195930049049 7.3257940970184734 -0.54463904215088732 0 0.83867056331134215 0.83867056331134215 0 0.54463904215088732 forward_v I I I I #
coedge $-1 $189 $190 $191 $192 reversed $75 $-1 #
face $-1 $-1 $193 $43 $-1 $194 forward single #
loop $-1 $195 $196 $77 #
cone-surface $-1 -40.57724946764106 -11.791195930049049 7.2498953306439411 0.54463904215088732 0 -0.83867056331134215 0.41933528165567108 0 0.27231952107544366 1 I I -0.70710678118654746 0.70710678118654746 0.5 forward I I I I #
loop $-1 $-1 $197 $56 #
coedge $-1 $124 $124 $198 $199 reversed $78 $-1 #
face $-1 $200 $201 $44 $-1 $202 reversed single #
loop $-1 $-1 $203 $80 #
plane-surface $-1 -46.11713003936886 1.2885967839339578 7.3257940970184734 -0.54463904215088732 0 0.83867056331134215 0.83867056331134215 0 0.54463904215088732 forward_v I I I I #
coedge $-1 $204 $205 $206 $207 reversed $81 $-1 #
face $-1 $-1 $208 $45 $-1 $209 forward single #
loop $-1 $210 $211 $83 #
cone-surface $-1 -40.57724946764106 1.2885967839339578 7.2498953306439411 0.54463904215088732 0 -0.83867056331134215 0.41933528165567108 0 0.27231952107544366 1 I I -0.70710678118654746 0.70710678118654746 0.5 forward I I I I #
loop $-1 $-1 $212 $58 #
coedge $-1 $133 $133 $213 $214 reversed $84 $-1 #
face $-1 $215 $216 $46 $-1 $217 reversed single #
loop $-1 $-1 $218 $86 #
plane-surface $-1 -46.11713003936886 14.368389497916962 7.3257940970184734 -0.54463904215088732 0 0.83867056331134215 0.83867056331134215 0 0.54463904215088732 forward_v I I I I #
coedge $-1 $219 $220 $221 $222 reversed $87 $-1 #
face $-1 $-1 $223 $47 $-1 $224 forward single #
loop $-1 $225 $226 $89 #
cone-surface $-1 -40.57724946764106 14.368389497916962 7.2498953306439411 0.54463904215088732 0 -0.83867056331134215 0.41933528165567108 0 0.27231952107544366 1 I I -0.70710678118654746 0.70710678118654746 0.5 forward I I I I #
loop $-1 $-1 $227 $60 #
coedge $-1 $142 $142 $228 $229 reversed $90 $-1 #
face $-1 $230 $231 $48 $-1 $232 reversed single #
loop $-1 $-1 $233 $92 #
plane-surface $-1 -22.426282401547432 -7.0704824709265957 65.773379981874058 0.66913061440640931 0 0.74314481823134659 0.74314481823134659 0 -0.66913061440640931 forward_v I I I I #
coedge $-1 $234 $235 $236 $237 reversed $93 $-1 #
face $-1 $-1 $238 $49 $-1 $239 forward single #
loop $-1 $240 $241 $95 #
cone-surface $-1 37.496057379738488 -7.0704824709265957 3.7341464571244884 -0.66913061440640931 0 -0.74314481823134659 0.55735861367350992 0 -0.50184796080480698 1 I I -0.70710678118654757 0.70710678118654757 0.75 forward I I I I #
loop $-1 $-1 $242 $62 #
coedge $-1 $151 $151 $243 $244 reversed $96 $-1 #
face $-1 $245 $246 $50 $-1 $247 reversed single #
loop $-1 $-1 $248 $98 #
plane-surface $-1 -22.426282401547432 12.549206600047913 65.773379981874058 0.66913061440640931 0 0.74314481823134659 0.74314481823134659 0 -0.66913061440640931 forward_v I I I I #
coedge $-1 $249 $250 $251 $252 reversed $99 $-1 #
face $-1 $-1 $253 $51 $-1 $254 forward single #
loop $-1 $255 $256 $101 #
cone-surface $-1 37.496057379738488 12.549206600047913 3.7341464571244884 -0.66913061440640931 0 -0.74314481823134659 0.55735861367350992 0 -0.50184796080480698 1 I I -0.70710678118654757 0.70710678118654757 0.75 forward I I I I #
loop $-1 $-1 $257 $64 #
coedge $-1 $160 $160 $258 $259 reversed $102 $-1 #
face $-1 $260 $261 $39 $-1 $262 reversed single #
loop $-1 $-1 $263 $104 #
plane-surface $-1 0 -31.035152272045746 0 0 1 0 0 0 1 forward_v I I I I #
coedge $-1 $264 $265 $266 $267 forward $105 $-1 #
coedge $-1 $268 $107 $269 $270 forward $66 $-1 #
coedge $-1 $107 $268 $271 $272 forward $66 $-1 #
coedge $-1 $273 $274 $107 $168 reversed $275 $-1 #
edge $-1 $276 -31.035152272045746 $277 31.035152272045746 $167 $278 forward 7 unknown #
face $-1 $279 $280 $40 $-1 $281 reversed single #
loop $-1 $-1 $282 $108 #
plane-surface $-1 0 0 -12.341698909441355 0 0 1 1 0 0 forward_v I I I I #
coedge $-1 $283 $284 $285 $286 reversed $109 $-1 #
coedge $-1 $287 $111 $284 $288 forward $69 $-1 #
coedge $-1 $111 $287 $289 $290 reversed $69 $-1 #
coedge $-1 $291 $285 $111 $176 forward $280 $-1 #
edge $-1 $292 6.1611770166239204 $293 18.636375842489191 $175 $294 forward 7 unknown #
face $-1 $295 $296 $41 $-1 $297 reversed single #
loop $-1 $-1 $298 $112 #
plane-surface $-1 0 31.035152272045746 0 0 -1 0 0 0 -1 forward_v I I I I #
coedge $-1 $299 $300 $301 $302 reversed $113 $-1 #
coedge $-1 $303 $115 $299 $304 forward $72 $-1 #
coedge $-1 $115 $303 $298 $305 reversed $72 $-1 #
coedge $-1 $306 $307 $115 $184 forward $308 $-1 #
edge $-1 $309 7.7507804538149667 $310 18.106508030092179 $183 $311 forward 7 unknown #
face $-1 $312 $313 $42 $-1 $314 reversed single #
loop $-1 $-1 $315 $116 #
plane-surface $-1 -96.351509102148412 -7.5562523444591987 84.679952953858304 0 -1 0 0.54463904215088732 0 -0.83867056331134215 forward_v I I I I #
coedge $-1 $316 $317 $318 $319 reversed $117 $-1 #
coedge $-1 $190 $119 $320 $321 reversed $75 $-1 #
coedge $-1 $119 $189 $316 $322 reversed $75 $-1 #
coedge $-1 $318 $323 $119 $192 forward $324 $-1 #
edge $-1 $325 2.0586245117053323 $326 9.7824404503088545 $191 $327 forward 7 unknown #
loop $-1 $-1 $198 $120 #
plane-surface $-1 -46.11713003936886 -11.791195930049049 7.3257940970184734 -0.54463904215088732 0 0.83867056331134215 0.83867056331134215 0 0.54463904215088732 forward_v I I I I #
loop $-1 $-1 $328 $77 #
coedge $-1 $196 $196 $197 $329 reversed $121 $-1 #
coedge $-1 $197 $197 $196 $329 forward $123 $-1 #
coedge $-1 $198 $198 $124 $199 forward $193 $-1 #
edge $-1 $330 0 $330 6.2831853071796004 $198 $331 forward 7 unknown #
face $-1 $332 $333 $44 $-1 $334 forward single #
loop $-1 $-1 $335 $125 #
plane-surface $-1 -96.351509102148412 5.5235403695238086 84.679952953858304 0 -1 0 0.54463904215088732 0 -0.83867056331134215 forward_v I I I I #
coedge $-1 $336 $337 $338 $339 reversed $126 $-1 #
coedge $-1 $205 $128 $340 $341 reversed $81 $-1 #
coedge $-1 $128 $204 $336 $342 reversed $81 $-1 #
coedge $-1 $338 $343 $128 $207 forward $333 $-1 #
edge $-1 $344 2.0586245117053323 $345 9.7824404503088545 $206 $346 forward 7 unknown #
loop $-1 $-1 $213 $129 #
plane-surface $-1 -46.11713003936886 1.2885967839339578 7.3257940970184734 -0.54463904215088732 0 0.83867056331134215 0.83867056331134215 0 0.54463904215088732 forward_v I I I I #
loop $-1 $-1 $347 $83 #
coedge $-1 $211 $211 $212 $348 reversed $130 $-1 #
coedge $-1 $212 $212 $211 $348 forward $132 $-1 #
coedge $-1 $213 $213 $133 $214 forward $208 $-1 #
edge $-1 $349 0 $349 6.2831853071796004 $213 $350 forward 7 unknown #
face $-1 $351 $352 $46 $-1 $353 forward single #
loop $-1 $-1 $354 $134 #
plane-surface $-1 -96.351509102148412 18.603333083506811 84.679952953858304 0 -1 0 0.54463904215088732 0 -0.83867056331134215 forward_v I I I I #
coedge $-1 $355 $356 $357 $358 reversed $135 $-1 #
coedge $-1 $220 $137 $359 $360 reversed $87 $-1 #
coedge $-1 $137 $219 $355 $361 reversed $87 $-1 #
coedge $-1 $357 $362 $137 $222 forward $352 $-1 #
edge $-1 $363 2.0586245117053323 $364 9.7824404503088545 $221 $365 forward 7 unknown #
loop $-1 $-1 $228 $138 #
plane-surface $-1 -46.11713003936886 14.368389497916962 7.3257940970184734 -0.54463904215088732 0 0.83867056331134215 0.83867056331134215 0 0.54463904215088732 forward_v I I I I #
loop $-1 $-1 $366 $89 #
coedge $-1 $226 $226 $227 $367 reversed $139 $-1 #
coedge $-1 $227 $227 $226 $367 forward $141 $-1 #
coedge $-1 $228 $228 $142 $229 forward $223 $-1 #
edge $-1 $368 0 $368 6.2831853071796004 $228 $369 forward 7 unknown #
face $-1 $370 $371 $48 $-1 $372 forward single #
loop $-1 $-1 $373 $143 #
plane-surface $-1 39.290484714258909 -10.117339593879608 134.31679242279037 0 1 0 0.66913061440640931 0 0.74314481823134659 forward_v I I I I #
coedge $-1 $374 $375 $376 $377 reversed $144 $-1 #
coedge $-1 $235 $146 $378 $379 reversed $93 $-1 #
coedge $-1 $146 $234 $374 $380 reversed $93 $-1 #
coedge $-1 $376 $381 $146 $237 forward $371 $-1 #
edge $-1 $382 -26.471887682239419 $383 -17.27036763641712 $236 $384 forward 7 unknown #
loop $-1 $-1 $243 $147 #
plane-surface $-1 -22.426282401547432 -7.0704824709265957 65.773379981874058 0.66913061440640931 0 0.74314481823134659 0.74314481823134659 0 -0.66913061440640931 forward_v I I I I #
loop $-1 $-1 $385 $95 #
coedge $-1 $241 $241 $242 $386 reversed $148 $-1 #
coedge $-1 $242 $242 $241 $386 forward $150 $-1 #
coedge $-1 $243 $243 $151 $244 forward $238 $-1 #
edge $-1 $387 0 $387 6.2831853071796004 $243 $388 forward 7 unknown #
face $-1 $389 $390 $50 $-1 $391 reversed single #
loop $-1 $-1 $392 $152 #
plane-surface $-1 39.290484714258909 9.5023494770949011 134.31679242279037 0 1 0 0.66913061440640931 0 0.74314481823134659 forward_v I I I I #
coedge $-1 $393 $394 $395 $396 reversed $153 $-1 #
coedge $-1 $250 $155 $397 $398 reversed $99 $-1 #
coedge $-1 $155 $249 $393 $399 reversed $99 $-1 #
coedge $-1 $395 $400 $155 $252 forward $401 $-1 #
edge $-1 $402 -26.471887682239419 $403 -17.27036763641712 $251 $404 forward 7 unknown #
loop $-1 $-1 $258 $156 #
plane-surface $-1 -22.426282401547432 12.549206600047913 65.773379981874058 0.66913061440640931 0 0.74314481823134659 0.74314481823134659 0 -0.66913061440640931 forward_v I I I I #
loop $-1 $-1 $405 $101 #
coedge $-1 $256 $256 $257 $406 reversed $157 $-1 #
coedge $-1 $257 $257 $256 $406 forward $159 $-1 #
coedge $-1 $258 $258 $160 $259 forward $253 $-1 #
edge $-1 $407 0 $407 6.2831853071796004 $258 $408 forward 7 unknown #
face $-1 $409 $410 $39 $-1 $411 reversed single #
loop $-1 $-1 $412 $161 #
plane-surface $-1 -46.117130039368874 0 0 1 0 0 0 0 -1 forward_v I I I I #
coedge $-1 $413 $271 $414 $415 forward $162 $-1 #
coedge $-1 $416 $164 $413 $417 forward $105 $-1 #
coedge $-1 $164 $416 $418 $419 forward $105 $-1 #
coedge $-1 $274 $273 $164 $267 reversed $275 $-1 #
edge $-1 $420 -31.035152272045746 $421 31.035152272045746 $266 $422 forward 7 unknown #
coedge $-1 $166 $165 $423 $424 forward $66 $-1 #
coedge $-1 $425 $426 $165 $270 reversed $410 $-1 #
edge $-1 $277 -46.117130039368874 $427 46.117130039368874 $269 $428 forward 7 unknown #
coedge $-1 $263 $429 $166 $272 reversed $162 $-1 #
edge $-1 $430 -46.117130039368874 $276 46.117130039368874 $271 $431 forward 7 unknown #
coedge $-1 $266 $167 $429 $432 forward $275 $-1 #
coedge $-1 $167 $266 $425 $433 reversed $275 $-1 #
loop $-1 $-1 $273 $409 #
vertex $-1 $168 $434 #
vertex $-1 $168 $435 #
straight-curve $-1 46.117130039368874 0 12.341698909441355 0 1 0 I I #
face $-1 $436 $437 $40 $-1 $438 reversed single #
loop $-1 $-1 $285 $169 #
plane-surface $-1 46.117130039368874 0 0 -1 0 0 0 0 1 forward_v I I I I #
coedge $-1 $439 $440 $283 $441 forward $170 $-1 #
coedge $-1 $442 $172 $282 $441 reversed $109 $-1 #
coedge $-1 $172 $442 $173 $288 reversed $109 $-1 #
coedge $-1 $175 $443 $172 $286 forward $280 $-1 #
edge $-1 $444 -6.9208494547206776 $292 -3.9208494547206776 $285 $445 forward 7 unknown #
coedge $-1 $174 $173 $446 $447 reversed $69 $-1 #
edge $-1 $292 -46.117130039368874 $448 46.117130039368874 $284 $449 forward 7 unknown #
coedge $-1 $450 $451 $174 $290 forward $437 $-1 #
edge $-1 $293 -46.117130039368874 $452 46.117130039368874 $289 $453 forward 7 unknown #
coedge $-1 $443 $175 $451 $454 forward $280 $-1 #
vertex $-1 $176 $455 #
vertex $-1 $454 $456 #
straight-curve $-1 46.117130039368874 -12.398776429556555 -9.3416989094413552 0 -1 0 I I #
face $-1 $457 $458 $41 $-1 $459 forward single #
loop $-1 $-1 $460 $177 #
plane-surface $-1 -46.117130039368874 0 0 1 0 0 0 0 -1 forward_v I I I I #
coedge $-1 $461 $462 $182 $305 forward $178 $-1 #
coedge $-1 $463 $180 $181 $304 reversed $113 $-1 #
coedge $-1 $180 $463 $464 $465 reversed $113 $-1 #
coedge $-1 $466 $460 $180 $302 forward $296 $-1 #
edge $-1 $467 1.6079387716101756 $468 7.6918196824241782 $301 $469 forward 7 unknown #
coedge $-1 $182 $181 $460 $470 reversed $72 $-1 #
edge $-1 $309 -46.117130039368874 $467 46.117130039368874 $299 $471 forward 7 unknown #
edge $-1 $310 -46.117130039368874 $472 46.117130039368874 $298 $473 forward 7 unknown #
coedge $-1 $474 $183 $462 $475 reversed $308 $-1 #
coedge $-1 $183 $474 $463 $476 forward $308 $-1 #
loop $-1 $-1 $183 $457 #
vertex $-1 $184 $477 #
vertex $-1 $305 $478 #
straight-curve $-1 46.117130039368874 12.928644241953572 6.2578179986273526 0 1 0 I I #
face $-1 $-1 $324 $42 $-1 $479 forward single #
loop $-1 $-1 $480 $185 #
plane-surface $-1 -46.117130039368874 0 0 1 0 0 0 0 -1 forward_v I I I I #
coedge $-1 $481 $482 $483 $484 reversed $186 $-1 #
coedge $-1 $485 $188 $190 $322 forward $117 $-1 #
coedge $-1 $188 $485 $481 $486 forward $117 $-1 #
coedge $-1 $483 $191 $188 $319 forward $324 $-1 #
edge $-1 $326 -10.130541550614375 $487 -1.660654379434674 $318 $488 forward 7 unknown #
coedge $-1 $489 $490 $189 $321 forward $313 $-1 #
edge $-1 $491 -35.014182379910686 $325 -29.998277567487797 $320 $492 forward 7 unknown #
edge $-1 $326 -9.2095946566997515 $491 1.6755591966779756e-014 $190 $493 forward 7 unknown #
coedge $-1 $191 $483 $489 $494 forward $324 $-1 #
loop $-1 $-1 $483 $312 #
vertex $-1 $321 $495 #
vertex $-1 $192 $496 #
straight-curve $-1 -48.175754551074206 -16.026139515638899 12.341698909441355 1 0 0 I I #
coedge $-1 $328 $328 $-1 $497 reversed $195 $-1 #
edge $-1 $498 0 $498 6.2831853071796004 $196 $499 forward 7 unknown #
vertex $-1 $199 $500 #
ellipse-curve $-1 -42.255222070067127 -11.791195930049049 9.8337465032299036 -0.54463904215088732 0 0.83867056331134215 0.83867056331134215 0 0.54463904215088732 1 I I #
face $-1 $-1 $501 $44 $-1 $502 reversed single #
loop $-1 $-1 $206 $200 #
plane-surface $-1 0 0 12.341698909441355 0 0 1 1 0 0 forward_v I I I I #
coedge $-1 $503 $504 $505 $506 reversed $201 $-1 #
coedge $-1 $507 $203 $205 $342 forward $126 $-1 #
coedge $-1 $203 $507 $503 $508 forward $126 $-1 #
coedge $-1 $505 $206 $203 $339 forward $333 $-1 #
edge $-1 $345 -3.5906451936228718 $509 4.8792419775568296 $338 $510 forward 7 unknown #
coedge $-1 $511 $512 $204 $341 forward $501 $-1 #
edge $-1 $513 -35.014182379910686 $344 -29.998277567487797 $340 $514 forward 7 unknown #
edge $-1 $345 -9.2095946566997515 $513 1.6755591966779756e-014 $205 $515 forward 7 unknown #
coedge $-1 $206 $505 $511 $516 forward $333 $-1 #
vertex $-1 $341 $517 #
vertex $-1 $207 $518 #
straight-curve $-1 -48.175754551074206 -2.9463468016558929 12.341698909441355 1 0 0 I I #
coedge $-1 $347 $347 $-1 $519 reversed $210 $-1 #
edge $-1 $520 0 $520 6.2831853071796004 $211 $521 forward 7 unknown #
vertex $-1 $214 $522 #
ellipse-curve $-1 -42.255222070067127 1.2885967839339578 9.8337465032299036 -0.54463904215088732 0 0.83867056331134215 0.83867056331134215 0 0.54463904215088732 1 I I #
face $-1 $-1 $523 $46 $-1 $524 reversed single #
loop $-1 $-1 $221 $215 #
plane-surface $-1 0 0 12.341698909441355 0 0 1 1 0 0 forward_v I I I I #
coedge $-1 $525 $526 $527 $528 reversed $216 $-1 #
coedge $-1 $529 $218 $220 $361 forward $135 $-1 #
coedge $-1 $218 $529 $525 $530 forward $135 $-1 #
coedge $-1 $527 $221 $218 $358 forward $352 $-1 #
edge $-1 $364 2.9492511633686309 $531 11.419138334548331 $357 $532 forward 7 unknown #
coedge $-1 $533 $534 $219 $360 forward $523 $-1 #
edge $-1 $535 -35.014182379910686 $363 -29.998277567487797 $359 $536 forward 7 unknown #
edge $-1 $364 -9.2095946566997515 $535 1.6755591966779756e-014 $220 $537 forward 7 unknown #
coedge $-1 $221 $527 $533 $538 forward $352 $-1 #
vertex $-1 $222 $539 #
vertex $-1 $222 $540 #
straight-curve $-1 -48.175754551074206 10.133445912327112 12.341698909441355 1 0 0 I I #
coedge $-1 $366 $366 $-1 $541 reversed $225 $-1 #
edge $-1 $542 0 $542 6.2831853071796004 $226 $543 forward 7 unknown #
vertex $-1 $229 $544 #
ellipse-curve $-1 -42.255222070067127 14.368389497916962 9.8337465032299036 -0.54463904215088732 0 0.83867056331134215 0.83867056331134215 0 0.54463904215088732 1 I I #
face $-1 $-1 $545 $48 $-1 $546 reversed single #
loop $-1 $-1 $236 $230 #
plane-surface $-1 0 0 12.341698909441355 0 0 1 1 0 0 forward_v I I I I #
coedge $-1 $547 $548 $549 $550 reversed $231 $-1 #
coedge $-1 $551 $233 $235 $380 forward $144 $-1 #
coedge $-1 $233 $551 $547 $552 forward $144 $-1 #
coedge $-1 $549 $236 $233 $377 forward $371 $-1 #
edge $-1 $383 0.48838411251028546 $553 6.5820983584163102 $376 $554 forward 7 unknown #
coedge $-1 $555 $556 $234 $379 forward $545 $-1 #
edge $-1 $557 -63.101783345327469 $382 -54.81669730195383 $378 $558 forward 7 unknown #
edge $-1 $383 79.852393422220473 $557 92.234260078737748 $235 $559 forward 7 unknown #
coedge $-1 $236 $549 $555 $560 forward $371 $-1 #
vertex $-1 $237 $561 #
vertex $-1 $237 $562 #
straight-curve $-1 19.645242357129455 -4.0236253479735833 12.341698909441355 -1 0 0 I I #
coedge $-1 $385 $385 $-1 $563 reversed $240 $-1 #
edge $-1 $564 0 $564 6.2831853071796004 $241 $565 forward 7 unknown #
vertex $-1 $244 $566 #
ellipse-curve $-1 41.516370016457721 -7.0704824709265957 8.1991558877545412 0.66913061440640931 0 0.74314481823134659 1.1147172273470198 0 -1.003695921609614 1 I I #
face $-1 $-1 $401 $50 $-1 $567 forward single #
loop $-1 $-1 $568 $245 #
plane-surface $-1 46.117130039368874 0 0 -1 0 0 0 0 1 forward_v I I I I #
coedge $-1 $569 $570 $571 $572 reversed $246 $-1 #
coedge $-1 $573 $248 $250 $399 forward $153 $-1 #
coedge $-1 $248 $573 $569 $574 forward $153 $-1 #
coedge $-1 $571 $251 $248 $396 forward $401 $-1 #
edge $-1 $403 -9.3214604229769691 $575 -3.2277461770709444 $395 $576 forward 7 unknown #
coedge $-1 $577 $578 $249 $398 forward $390 $-1 #
edge $-1 $579 -63.101783345327469 $402 -54.81669730195383 $397 $580 forward 7 unknown #
edge $-1 $403 79.852393422220473 $579 92.234260078737748 $250 $581 forward 7 unknown #
coedge $-1 $251 $571 $577 $582 forward $401 $-1 #
loop $-1 $-1 $571 $389 #
vertex $-1 $398 $583 #
vertex $-1 $252 $584 #
straight-curve $-1 19.645242357129455 15.596063723000926 12.341698909441355 -1 0 0 I I #
coedge $-1 $405 $405 $-1 $585 reversed $255 $-1 #
edge $-1 $586 0 $586 6.2831853071796004 $256 $587 forward 7 unknown #
vertex $-1 $259 $588 #
ellipse-curve $-1 41.516370016457721 12.549206600047913 8.1991558877545412 0.66913061440640931 0 0.74314481823134659 1.1147172273470198 0 -1.003695921609614 1 I I #
face $-1 $-1 $275 $39 $-1 $589 reversed single #
loop $-1 $-1 $425 $260 #
plane-surface $-1 0 31.035152272045746 0 0 -1 0 0 0 -1 forward_v I I I I #
coedge $-1 $590 $423 $426 $591 forward $261 $-1 #
coedge $-1 $429 $263 $264 $417 reversed $162 $-1 #
coedge $-1 $423 $590 $263 $415 reversed $261 $-1 #
edge $-1 $430 -12.341698909441355 $592 12.341698909441355 $414 $593 forward 7 unknown #
coedge $-1 $265 $264 $590 $594 forward $105 $-1 #
edge $-1 $421 -46.117130039368874 $592 46.117130039368874 $413 $595 forward 7 unknown #
coedge $-1 $426 $425 $265 $419 reversed $410 $-1 #
edge $-1 $596 -46.117130039368874 $420 46.117130039368874 $418 $597 forward 7 unknown #
vertex $-1 $267 $598 #
vertex $-1 $432 $599 #
straight-curve $-1 46.117130039368874 0 -12.341698909441355 0 -1 0 I I #
coedge $-1 $412 $414 $268 $424 reversed $261 $-1 #
edge $-1 $427 -31.035152272045746 $430 31.035152272045746 $423 $600 forward 7 unknown #
coedge $-1 $418 $269 $274 $433 forward $410 $-1 #
coedge $-1 $269 $418 $412 $591 reversed $410 $-1 #
vertex $-1 $270 $601 #
straight-curve $-1 0 31.035152272045746 12.341698909441355 -1 0 0 I I #
coedge $-1 $271 $413 $273 $432 reversed $162 $-1 #
vertex $-1 $424 $602 #
straight-curve $-1 0 -31.035152272045746 12.341698909441355 1 0 0 I I #
edge $-1 $276 -12.341698909441355 $421 12.341698909441355 $273 $603 forward 7 unknown #
edge $-1 $277 -12.341698909441355 $420 12.341698909441355 $274 $604 forward 7 unknown #
point $-1 46.117130039368874 -31.035152272045746 12.341698909441355 #
point $-1 46.117130039368874 31.035152272045746 12.341698909441355 #
face $-1 $-1 $605 $40 $-1 $606 reversed single #
loop $-1 $-1 $289 $279 #
plane-surface $-1 0 -31.035152272045746 0 0 1 0 0 0 1 forward_v I I I I #
coedge $-1 $607 $282 $443 $608 forward $170 $-1 #
coedge $-1 $282 $607 $609 $610 forward $170 $-1 #
edge $-1 $611 -46.117130039368874 $444 46.117130039368874 $282 $612 forward 7 unknown #
coedge $-1 $284 $283 $613 $614 reversed $109 $-1 #
coedge $-1 $285 $291 $439 $608 reversed $280 $-1 #
vertex $-1 $608 $615 #
straight-curve $-1 46.117130039368874 -18.559953446180476 -5.4208494547206776 0 0 1 I I #
coedge $-1 $613 $616 $287 $447 forward $605 $-1 #
edge $-1 $452 -18.636375842489191 $448 -6.1611770166239204 $446 $617 forward 7 unknown #
vertex $-1 $447 $618 #
straight-curve $-1 0 -18.559953446180476 -9.3416989094413552 -1 0 0 I I #
coedge $-1 $619 $289 $616 $620 forward $437 $-1 #
coedge $-1 $289 $619 $291 $454 reversed $437 $-1 #
vertex $-1 $620 $621 #
straight-curve $-1 0 -31.035152272045746 -9.3416989094413552 -1 0 0 I I #
edge $-1 $293 9.3416989094413552 $622 12.341698909441355 $291 $623 forward 7 unknown #
point $-1 46.117130039368874 -18.559953446180476 -9.3416989094413552 #
point $-1 46.117130039368874 -31.035152272045746 -9.3416989094413552 #
face $-1 $-1 $308 $41 $-1 $624 reversed single #
loop $-1 $-1 $464 $295 #
plane-surface $-1 0 0 12.341698909441355 0 0 1 1 0 0 forward_v I I I I #
coedge $-1 $301 $625 $303 $470 forward $296 $-1 #
coedge $-1 $626 $298 $625 $627 reversed $178 $-1 #
coedge $-1 $298 $626 $306 $475 forward $178 $-1 #
coedge $-1 $300 $299 $307 $476 reversed $113 $-1 #
coedge $-1 $628 $629 $300 $465 forward $458 $-1 #
edge $-1 $468 -46.117130039368874 $630 46.117130039368874 $464 $631 forward 7 unknown #
coedge $-1 $625 $301 $629 $632 reversed $296 $-1 #
vertex $-1 $470 $633 #
vertex $-1 $302 $634 #
straight-curve $-1 -46.117130039368874 20.679424695768539 4.6498792270171769 0 0 1 I I #
edge $-1 $472 -18.106508030092179 $467 -7.7507804538149667 $460 $635 forward 7 unknown #
straight-curve $-1 0 20.679424695768539 6.2578179986273526 -1 0 0 I I #
vertex $-1 $305 $636 #
straight-curve $-1 0 31.035152272045746 6.2578179986273526 -1 0 0 I I #
coedge $-1 $307 $306 $628 $637 reversed $308 $-1 #
edge $-1 $638 -12.341698909441355 $310 -6.2578179986273526 $306 $639 forward 7 unknown #
edge $-1 $630 -7.6918196824241782 $309 -1.6079387716101756 $307 $640 forward 7 unknown #
point $-1 46.117130039368874 20.679424695768539 6.2578179986273526 #
point $-1 46.117130039368874 31.03515227204575 6.2578179986273526 #
plane-surface $-1 0 0 12.341698909441355 0 0 1 1 0 0 forward_v I I I I #
coedge $-1 $490 $489 $482 $641 forward $313 $-1 #
coedge $-1 $482 $315 $317 $486 reversed $186 $-1 #
coedge $-1 $315 $481 $480 $641 reversed $186 $-1 #
coedge $-1 $323 $318 $315 $484 forward $324 $-1 #
edge $-1 $487 -9.7824404503088545 $642 -2.0586245117053323 $483 $643 forward 7 unknown #
coedge $-1 $317 $316 $490 $644 reversed $117 $-1 #
edge $-1 $645 -1.6755591966779756e-014 $487 9.2095946566997515 $481 $646 forward 7 unknown #
vertex $-1 $319 $647 #
straight-curve $-1 -38.393314100765359 -5.8955979650245247 12.341698909441355 0 1 0 I I #
coedge $-1 $480 $320 $323 $494 reversed $313 $-1 #
coedge $-1 $320 $480 $485 $644 forward $313 $-1 #
vertex $-1 $321 $648 #
straight-curve $-1 -46.117130039368874 -16.026139515638899 42.339976476929152 0 0 1 I I #
straight-curve $-1 -46.11713003936886 -16.026139515638899 7.3257940970184734 -0.83867056331134215 0 -0.54463904215088732 I I #
edge $-1 $642 7.5562523444591987 $325 16.026139515638899 $489 $649 forward 7 unknown #
point $-1 -46.117130039368874 -16.026139515638899 12.341698909441355 #
point $-1 -38.393314100765352 -16.026139515638899 12.341698909441355 #
edge $-1 $650 1 $650 0 $328 $-1 forward 7 unknown #
vertex $-1 $329 $651 #
ellipse-curve $-1 -40.849568988716506 -11.791195930049049 7.6692306122996126 -0.54463904215088732 0 0.83867056331134215 0.83867056331134215 0 0.54463904215088732 1 I I #
point $-1 -41.416551506755795 -11.791195930049049 10.378385545380816 #
loop $-1 $-1 $340 $332 #
plane-surface $-1 -46.117130039368874 0 0 1 0 0 0 0 -1 forward_v I I I I #
coedge $-1 $504 $335 $337 $508 reversed $201 $-1 #
coedge $-1 $335 $503 $652 $653 reversed $201 $-1 #
coedge $-1 $343 $338 $335 $506 forward $333 $-1 #
edge $-1 $509 -9.7824404503088545 $654 -2.0586245117053323 $505 $655 forward 7 unknown #
coedge $-1 $337 $336 $512 $656 reversed $126 $-1 #
edge $-1 $657 -1.6755591966779756e-014 $509 9.2095946566997515 $503 $658 forward 7 unknown #
vertex $-1 $339 $659 #
straight-curve $-1 -38.393314100765359 0.64429839196697891 12.341698909441355 0 1 0 I I #
coedge $-1 $652 $340 $343 $516 reversed $501 $-1 #
coedge $-1 $340 $652 $507 $656 forward $501 $-1 #
vertex $-1 $341 $660 #
straight-curve $-1 -46.117130039368874 -2.9463468016558929 42.339976476929152 0 0 1 I I #
straight-curve $-1 -46.11713003936886 -2.9463468016558929 7.3257940970184734 -0.83867056331134215 0 -0.54463904215088732 I I #
edge $-1 $654 -5.5235403695238086 $344 2.9463468016558929 $511 $661 forward 7 unknown #
point $-1 -46.117130039368874 -2.9463468016558929 12.341698909441355 #
point $-1 -38.393314100765352 -2.9463468016558929 12.341698909441355 #
edge $-1 $662 1 $662 0 $347 $-1 forward 7 unknown #
vertex $-1 $348 $663 #
ellipse-curve $-1 -40.849568988716506 1.2885967839339578 7.6692306122996126 -0.54463904215088732 0 0.83867056331134215 0.83867056331134215 0 0.54463904215088732 1 I I #
point $-1 -41.416551506755795 1.2885967839339578 10.378385545380816 #
loop $-1 $-1 $359 $351 #
plane-surface $-1 -46.117130039368874 0 0 1 0 0 0 0 -1 forward_v I I I I #
coedge $-1 $526 $354 $356 $530 reversed $216 $-1 #
coedge $-1 $354 $525 $664 $665 reversed $216 $-1 #
coedge $-1 $362 $357 $354 $528 forward $352 $-1 #
edge $-1 $531 -9.7824404503088545 $666 -2.0586245117053323 $527 $667 forward 7 unknown #
coedge $-1 $356 $355 $534 $668 reversed $135 $-1 #
edge $-1 $669 -1.6755591966779756e-014 $531 9.2095946566997515 $525 $670 forward 7 unknown #
vertex $-1 $358 $671 #
straight-curve $-1 -38.393314100765359 7.1841947489584808 12.341698909441355 0 1 0 I I #
coedge $-1 $664 $359 $362 $538 reversed $523 $-1 #
coedge $-1 $359 $664 $529 $668 forward $523 $-1 #
vertex $-1 $360 $672 #
straight-curve $-1 -46.117130039368874 10.133445912327112 42.339976476929152 0 0 1 I I #
straight-curve $-1 -46.11713003936886 10.133445912327112 7.3257940970184734 -0.83867056331134215 0 -0.54463904215088732 I I #
edge $-1 $666 -18.603333083506811 $363 -10.133445912327112 $533 $673 forward 7 unknown #
point $-1 -46.117130039368874 10.133445912327112 12.341698909441355 #
point $-1 -38.393314100765352 10.133445912327112 12.341698909441355 #
edge $-1 $674 1 $674 0 $366 $-1 forward 7 unknown #
vertex $-1 $367 $675 #
ellipse-curve $-1 -40.849568988716506 14.368389497916962 7.6692306122996126 -0.54463904215088732 0 0.83867056331134215 0.83867056331134215 0 0.54463904215088732 1 I I #
point $-1 -41.416551506755795 14.368389497916962 10.378385545380816 #
loop $-1 $-1 $378 $370 #
plane-surface $-1 46.117130039368874 0 0 -1 0 0 0 0 1 forward_v I I I I #
coedge $-1 $548 $373 $375 $552 reversed $231 $-1 #
coedge $-1 $373 $547 $676 $677 reversed $231 $-1 #
coedge $-1 $381 $376 $373 $550 forward $371 $-1 #
edge $-1 $553 17.27036763641712 $678 26.471887682239419 $549 $679 forward 7 unknown #
coedge $-1 $375 $374 $556 $680 reversed $144 $-1 #
edge $-1 $681 -92.234260078737748 $553 -79.852393422220473 $547 $682 forward 7 unknown #
vertex $-1 $377 $683 #
straight-curve $-1 36.915609993546589 -3.5352412354632978 12.341698909441355 0 -1 0 I I #
coedge $-1 $676 $378 $381 $560 reversed $545 $-1 #
coedge $-1 $378 $676 $551 $680 forward $545 $-1 #
vertex $-1 $379 $684 #
straight-curve $-1 46.117130039368874 -4.0236253479735833 67.158396211395186 0 0 1 I I #
straight-curve $-1 -22.426282401547432 -4.0236253479735833 65.773379981874058 0.74314481823134659 0 -0.66913061440640931 I I #
edge $-1 $678 -10.117339593879608 $382 -4.0236253479735833 $555 $685 forward 7 unknown #
point $-1 46.117130039368874 -4.0236253479735833 12.341698909441355 #
point $-1 36.915609993546575 -4.0236253479735833 12.341698909441355 #
edge $-1 $686 1 $686 0 $385 $-1 forward 7 unknown #
vertex $-1 $386 $687 #
ellipse-curve $-1 37.997905340543298 -7.0704824709265957 4.2915050707979985 0.66913061440640931 0 0.74314481823134659 1.1147172273470198 0 -1.003695921609614 1 I I #
point $-1 42.63108724380475 -7.0704824709265957 7.1954599661449397 #
plane-surface $-1 0 0 12.341698909441355 0 0 1 1 0 0 forward_v I I I I #
coedge $-1 $578 $577 $570 $688 forward $390 $-1 #
coedge $-1 $570 $392 $394 $574 reversed $246 $-1 #
coedge $-1 $392 $569 $568 $688 reversed $246 $-1 #
coedge $-1 $400 $395 $392 $572 forward $401 $-1 #
edge $-1 $575 17.27036763641712 $689 26.471887682239419 $571 $690 forward 7 unknown #
coedge $-1 $394 $393 $578 $691 reversed $153 $-1 #
edge $-1 $692 -92.234260078737748 $575 -79.852393422220473 $569 $693 forward 7 unknown #
vertex $-1 $396 $694 #
straight-curve $-1 36.915609993546589 6.2746033000239567 12.341698909441355 0 -1 0 I I #
coedge $-1 $568 $397 $400 $582 reversed $390 $-1 #
coedge $-1 $397 $568 $573 $691 forward $390 $-1 #
vertex $-1 $398 $695 #
straight-curve $-1 46.117130039368874 15.596063723000926 67.158396211395186 0 0 1 I I #
straight-curve $-1 -22.426282401547432 15.596063723000926 65.773379981874058 0.74314481823134659 0 -0.66913061440640931 I I #
edge $-1 $689 9.5023494770949011 $402 15.596063723000926 $577 $696 forward 7 unknown #
point $-1 46.117130039368874 15.596063723000926 12.341698909441355 #
point $-1 36.915609993546575 15.596063723000926 12.341698909441355 #
edge $-1 $697 1 $697 0 $405 $-1 forward 7 unknown #
vertex $-1 $406 $698 #
ellipse-curve $-1 37.997905340543298 12.549206600047913 4.2915050707979985 0.66913061440640931 0 0.74314481823134659 1.1147172273470198 0 -1.003695921609614 1 I I #
point $-1 42.63108724380475 12.549206600047913 7.1954599661449397 #
plane-surface $-1 46.117130039368874 0 0 -1 0 0 0 0 1 forward_v I I I I #
coedge $-1 $414 $412 $416 $594 reversed $261 $-1 #
edge $-1 $427 -12.341698909441355 $596 12.341698909441355 $426 $699 forward 7 unknown #
vertex $-1 $594 $700 #
straight-curve $-1 -46.117130039368874 -31.035152272045746 0 0 0 -1 I I #
edge $-1 $592 -31.035152272045746 $596 31.035152272045746 $590 $701 forward 7 unknown #
straight-curve $-1 0 -31.035152272045746 -12.341698909441355 -1 0 0 I I #
vertex $-1 $419 $702 #
straight-curve $-1 0 31.035152272045746 -12.341698909441355 1 0 0 I I #
point $-1 46.117130039368874 31.035152272045746 -12.341698909441355 #
point $-1 46.117130039368874 -31.035152272045746 -12.341698909441355 #
straight-curve $-1 -46.117130039368874 0 12.341698909441355 0 -1 0 I I #
point $-1 -46.117130039368874 31.035152272045746 12.341698909441355 #
point $-1 -46.117130039368874 -31.035152272045746 12.341698909441355 #
straight-curve $-1 46.117130039368874 -31.035152272045746 0 0 0 -1 I I #
straight-curve $-1 46.117130039368874 31.035152272045746 0 0 0 -1 I I #
loop $-1 $-1 $613 $436 #
plane-surface $-1 -46.117130039368874 0 0 1 0 0 0 0 -1 forward_v I I I I #
coedge $-1 $440 $439 $619 $703 forward $170 $-1 #
edge $-1 $444 18.559953446180476 $622 31.035152272045746 $443 $704 forward 7 unknown #
coedge $-1 $616 $613 $440 $610 reversed $605 $-1 #
edge $-1 $705 -31.035152272045746 $611 -18.559953446180476 $609 $706 forward 7 unknown #
vertex $-1 $614 $707 #
straight-curve $-1 0 -18.559953446180476 -12.341698909441355 1 0 0 I I #
coedge $-1 $609 $446 $442 $614 forward $605 $-1 #
edge $-1 $448 3.9208494547206776 $611 6.9208494547206776 $613 $708 forward 7 unknown #
point $-1 46.117130039368874 -18.559953446180476 -12.341698909441355 #
coedge $-1 $446 $609 $450 $620 reversed $605 $-1 #
straight-curve $-1 -46.117130039368874 -12.398776429556555 -9.3416989094413552 0 1 0 I I #
point $-1 -46.117130039368874 -18.559953446180476 -9.3416989094413552 #
coedge $-1 $451 $450 $607 $703 reversed $437 $-1 #
edge $-1 $452 9.3416989094413552 $705 12.341698909441355 $616 $709 forward 7 unknown #
point $-1 -46.117130039368874 -31.035152272045746 -9.3416989094413552 #
vertex $-1 $454 $710 #
straight-curve $-1 46.117130039368874 -31.035152272045746 0 0 0 -1 I I #
plane-surface $-1 46.117130039368874 0 0 -1 0 0 0 0 1 forward_v I I I I #
coedge $-1 $460 $466 $461 $627 forward $296 $-1 #
coedge $-1 $462 $461 $711 $712 reversed $178 $-1 #
edge $-1 $713 -12.341698909441355 $472 -6.2578179986273526 $461 $714 forward 7 unknown #
coedge $-1 $711 $464 $474 $637 forward $458 $-1 #
coedge $-1 $464 $711 $466 $632 forward $458 $-1 #
vertex $-1 $637 $715 #
straight-curve $-1 0 20.679424695768539 12.341698909441355 1 0 0 I I #
edge $-1 $713 -31.035152272045746 $468 -20.679424695768539 $466 $716 forward 7 unknown #
point $-1 -46.117130039368874 20.679424695768539 6.2578179986273526 #
point $-1 -46.117130039368874 20.679424695768539 12.341698909441355 #
straight-curve $-1 -46.117130039368874 12.928644241953572 6.2578179986273526 0 -1 0 I I #
point $-1 -46.117130039368874 31.03515227204575 6.2578179986273526 #
edge $-1 $630 20.679424695768539 $638 31.035152272045746 $474 $717 forward 7 unknown #
vertex $-1 $637 $718 #
straight-curve $-1 46.117130039368874 31.035152272045746 0 0 0 -1 I I #
straight-curve $-1 46.117130039368874 20.679424695768539 4.6498792270171769 0 0 -1 I I #
edge $-1 $642 29.998277567487797 $645 35.014182379910686 $480 $719 forward 7 unknown #
vertex $-1 $494 $720 #
straight-curve $-1 -48.175754551074206 -7.5562523444591987 12.341698909441355 -1 0 0 I I #
edge $-1 $645 1.660654379434674 $491 10.130541550614375 $490 $721 forward 7 unknown #
vertex $-1 $644 $722 #
straight-curve $-1 -46.11713003936886 -7.5562523444591987 7.3257940970184734 0.83867056331134215 0 0.54463904215088732 I I #
point $-1 -38.393314100765352 -7.5562523444591987 12.341698909441355 #
point $-1 -46.117130039368874 -16.026139515638899 7.3257940970184645 #
straight-curve $-1 -46.117130039368874 0 12.341698909441355 0 -1 0 I I #
vertex $-1 $497 $723 #
point $-1 -40.010898425405159 -11.791195930049049 8.2138696544504999 #
coedge $-1 $512 $511 $504 $653 forward $501 $-1 #
edge $-1 $654 29.998277567487797 $657 35.014182379910686 $652 $724 forward 7 unknown #
vertex $-1 $516 $725 #
straight-curve $-1 -48.175754551074206 5.5235403695238086 12.341698909441355 -1 0 0 I I #
edge $-1 $657 -4.8792419775568296 $513 3.5906451936228718 $512 $726 forward 7 unknown #
vertex $-1 $656 $727 #
straight-curve $-1 -46.11713003936886 5.5235403695238086 7.3257940970184734 0.83867056331134215 0 0.54463904215088732 I I #
point $-1 -38.393314100765352 5.5235403695238086 12.341698909441355 #
point $-1 -46.117130039368874 -2.9463468016558929 7.3257940970184645 #
straight-curve $-1 -46.117130039368874 0 12.341698909441355 0 -1 0 I I #
vertex $-1 $519 $728 #
point $-1 -40.010898425405159 1.2885967839339578 8.2138696544504999 #
coedge $-1 $534 $533 $526 $665 forward $523 $-1 #
edge $-1 $666 29.998277567487797 $669 35.014182379910686 $664 $729 forward 7 unknown #
vertex $-1 $538 $730 #
straight-curve $-1 -48.175754551074206 18.603333083506811 12.341698909441355 -1 0 0 I I #
edge $-1 $669 -11.419138334548331 $535 -2.9492511633686309 $534 $731 forward 7 unknown #
vertex $-1 $668 $732 #
straight-curve $-1 -46.11713003936886 18.603333083506811 7.3257940970184734 0.83867056331134215 0 0.54463904215088732 I I #
point $-1 -38.393314100765352 18.603333083506811 12.341698909441355 #
point $-1 -46.117130039368874 10.133445912327112 7.3257940970184645 #
straight-curve $-1 -46.117130039368874 0 12.341698909441355 0 -1 0 I I #
vertex $-1 $541 $733 #
point $-1 -40.010898425405159 14.368389497916962 8.2138696544504999 #
coedge $-1 $556 $555 $548 $677 forward $545 $-1 #
edge $-1 $678 54.81669730195383 $681 63.101783345327469 $676 $734 forward 7 unknown #
vertex $-1 $560 $735 #
straight-curve $-1 19.645242357129455 -10.117339593879608 12.341698909441355 1 0 0 I I #
edge $-1 $681 -6.5820983584163102 $557 -0.48838411251028546 $556 $736 forward 7 unknown #
vertex $-1 $680 $737 #
straight-curve $-1 -22.426282401547432 -10.117339593879608 65.773379981874058 -0.74314481823134659 0 0.66913061440640931 I I #
point $-1 36.915609993546575 -10.117339593879608 12.341698909441355 #
point $-1 46.117130039368881 -4.0236253479735833 4.0566128660677165 #
straight-curve $-1 46.117130039368874 0 12.341698909441355 0 1 0 I I #
vertex $-1 $563 $738 #
point $-1 39.112622567890313 -7.0704824709265957 3.2878091491883845 #
edge $-1 $689 54.81669730195383 $692 63.101783345327469 $568 $739 forward 7 unknown #
vertex $-1 $582 $740 #
straight-curve $-1 19.645242357129455 9.5023494770949011 12.341698909441355 1 0 0 I I #
edge $-1 $692 3.2277461770709444 $579 9.3214604229769691 $578 $741 forward 7 unknown #
vertex $-1 $691 $742 #
straight-curve $-1 -22.426282401547432 9.5023494770949011 65.773379981874058 -0.74314481823134659 0 0.66913061440640931 I I #
point $-1 36.915609993546575 9.5023494770949011 12.341698909441355 #
point $-1 46.117130039368881 15.596063723000926 4.0566128660677165 #
straight-curve $-1 46.117130039368874 0 12.341698909441355 0 1 0 I I #
vertex $-1 $585 $743 #
point $-1 39.112622567890313 12.549206600047913 3.2878091491883845 #
straight-curve $-1 -46.117130039368874 31.035152272045746 0 0 0 -1 I I #
point $-1 -46.117130039368874 -31.035152272045746 -12.341698909441355 #
straight-curve $-1 -46.117130039368874 0 -12.341698909441355 0 1 0 I I #
point $-1 -46.117130039368874 31.035152272045746 -12.341698909441355 #
edge $-1 $622 -46.117130039368874 $705 46.117130039368874 $619 $744 forward 7 unknown #
straight-curve $-1 46.117130039368874 0 -12.341698909441355 0 -1 0 I I #
vertex $-1 $610 $745 #
straight-curve $-1 -46.117130039368874 0 -12.341698909441355 0 1 0 I I #
point $-1 -46.117130039368874 -18.559953446180476 -12.341698909441355 #
straight-curve $-1 -46.117130039368874 -18.559953446180476 -5.4208494547206776 0 0 -1 I I #
straight-curve $-1 -46.117130039368874 -31.035152272045746 0 0 0 -1 I I #
point $-1 46.117130039368874 -31.035152272045746 -12.341698909441355 #
coedge $-1 $629 $628 $626 $712 forward $458 $-1 #
edge $-1 $638 -46.117130039368874 $713 46.117130039368874 $626 $746 forward 7 unknown #
vertex $-1 $712 $747 #
straight-curve $-1 -46.117130039368874 31.035152272045746 0 0 0 -1 I I #
point $-1 46.117130039368874 20.679424695768539 12.341698909441355 #
straight-curve $-1 -46.117130039368874 0 12.341698909441355 0 -1 0 I I #
straight-curve $-1 46.117130039368874 0 12.341698909441355 0 1 0 I I #
point $-1 46.117130039368874 31.035152272045746 12.341698909441355 #
straight-curve $-1 -46.117130039368874 -7.5562523444591987 42.339976476929152 0 0 -1 I I #
point $-1 -46.117130039368874 -7.5562523444591987 12.341698909441355 #
straight-curve $-1 -46.117130039368874 -5.8955979650245247 7.3257940970184627 0 -1 0 I I #
point $-1 -46.117130039368874 -7.5562523444591987 7.3257940970184645 #
point $-1 -40.304929946565615 -11.791195930049049 6.8305600489882696 #
straight-curve $-1 -46.117130039368874 5.5235403695238086 42.339976476929152 0 0 -1 I I #
point $-1 -46.117130039368874 5.5235403695238086 12.341698909441355 #
straight-curve $-1 -46.117130039368874 0.64429839196697891 7.3257940970184627 0 -1 0 I I #
point $-1 -46.117130039368874 5.5235403695238086 7.3257940970184645 #
point $-1 -40.304929946565615 1.2885967839339578 6.8305600489882696 #
straight-curve $-1 -46.117130039368874 18.603333083506811 42.339976476929152 0 0 -1 I I #
point $-1 -46.117130039368874 18.603333083506811 12.341698909441355 #
straight-curve $-1 -46.117130039368874 7.1841947489584808 7.3257940970184627 0 -1 0 I I #
point $-1 -46.117130039368874 18.603333083506811 7.3257940970184645 #
point $-1 -40.304929946565615 14.368389497916962 6.8305600489882696 #
straight-curve $-1 46.117130039368874 -10.117339593879608 67.158396211395186 0 0 -1 I I #
point $-1 46.117130039368874 -10.117339593879608 12.341698909441355 #
straight-curve $-1 46.117130039368867 -3.5352412354632978 4.0566128660677236 0 1 0 I I #
point $-1 46.117130039368881 -10.117339593879608 4.0566128660677165 #
point $-1 36.994209418933679 -7.0704824709265957 3.1767878434509784 #
straight-curve $-1 46.117130039368874 9.5023494770949011 67.158396211395186 0 0 -1 I I #
point $-1 46.117130039368874 9.5023494770949011 12.341698909441355 #
straight-curve $-1 46.117130039368867 6.2746033000239567 4.0566128660677236 0 1 0 I I #
point $-1 46.117130039368881 9.5023494770949011 4.0566128660677165 #
point $-1 36.994209418933679 12.549206600047913 3.1767878434509784 #
straight-curve $-1 0 -31.035152272045746 -12.341698909441355 -1 0 0 I I #
point $-1 -46.117130039368874 -31.035152272045746 -12.341698909441355 #
straight-curve $-1 0 31.035152272045746 12.341698909441355 -1 0 0 I I #
point $-1 -46.117130039368874 31.035152272045746 12.341698909441355 #
End-of-ACIS-data 