500 0 5 0           
7 Unknown 11 ACIS 5.0 NT 24 Fri Mar 26 01:51:03 1999 
-1 9.9999999999999995e-007 1e-010 
body $-1 $5 $-1 $6 #
body $-1 $7 $-1 $8 #
body $-1 $9 $-1 $10 #
body $-1 $11 $-1 $12 #
body $-1 $13 $-1 $14 #
lump $-1 $-1 $15 $0 #
transform $-1 1 0 0 0 1 0 0 0 1 79.287087618640697 53.289091867055276 25.939055407940049 1 rotate no_reflect no_shear #
lump $-1 $-1 $16 $1 #
transform $-1 1 0 0 0 1 0 0 0 1 79.287087618640697 53.289091867055276 25.939055407940049 1 rotate no_reflect no_shear #
lump $-1 $-1 $17 $2 #
transform $-1 1 0 0 0 1 0 0 0 1 79.287087618640697 53.289091867055276 25.939055407940049 1 rotate no_reflect no_shear #
lump $-1 $-1 $18 $3 #
transform $-1 1 0 0 0 1 0 0 0 1 79.287087618640697 53.289091867055276 25.939055407940049 1 rotate no_reflect no_shear #
lump $-1 $-1 $19 $4 #
transform $-1 1 0 0 0 1 0 0 0 1 79.287087618640697 53.289091867055276 25.939055407940049 1 rotate no_reflect no_shear #
shell $-1 $-1 $-1 $20 $-1 $5 #
shell $-1 $-1 $-1 $21 $-1 $7 #
shell $-1 $-1 $-1 $22 $-1 $9 #
shell $-1 $-1 $-1 $23 $-1 $11 #
shell $-1 $-1 $-1 $24 $-1 $13 #
face $-1 $25 $26 $15 $-1 $27 forward single #
face $-1 $28 $29 $16 $-1 $30 forward single #
face $-1 $31 $32 $17 $-1 $33 forward single #
face $-1 $34 $35 $18 $-1 $36 reversed single #
face $-1 $37 $38 $19 $-1 $39 reversed single #
face $-1 $40 $41 $15 $-1 $42 reversed single #
loop $-1 $-1 $43 $20 #
plane-surface $-1 0 0 25.939055407940049 0 0 1 1 0 0 forward_v I I I I #
face $-1 $44 $45 $16 $-1 $46 reversed single #
loop $-1 $-1 $47 $21 #
plane-surface $-1 0 -65.245819269230253 4.5561572356523694 0 0 1 1 0 0 forward_v I I I I #
face $-1 $48 $49 $17 $-1 $50 forward single #
loop $-1 $-1 $51 $22 #
plane-surface $-1 47.921176733744552 128.23394891509955 180.28889707745029 1 0 0 0 -0.83867057594974714 -0.54463902268945019 forward_v I I I I #
face $-1 $52 $53 $18 $-1 $54 reversed single #
loop $-1 $55 $56 $23 #
cone-surface $-1 56.882865558000589 45.134156795456811 14.455741380371691 0 -0.83867057594974714 -0.54463902268945019 1.5 0 0 1 I I 0 1 1.5 forward I I I I #
face $-1 $57 $58 $19 $-1 $59 reversed single #
loop $-1 $60 $61 $24 #
cone-surface $-1 70.325398794384654 45.134156795456811 14.455741380371691 0 -0.83867057594974714 -0.54463902268945019 1.5 0 0 1 I I 0 1 1.5 forward I I I I #
face $-1 $62 $63 $15 $-1 $64 reversed single #
loop $-1 $-1 $65 $25 #
plane-surface $-1 0 0 -25.939055407940049 0 0 1 1 0 0 forward_v I I I I #
coedge $-1 $66 $67 $68 $69 forward $26 $-1 #
face $-1 $70 $71 $16 $-1 $72 reversed single #
loop $-1 $-1 $73 $28 #
plane-surface $-1 0 -65.245819269230253 -8.0101977360179699 0 0 1 1 0 0 forward_v I I I I #
coedge $-1 $74 $75 $76 $77 forward $29 $-1 #
face $-1 $78 $79 $17 $-1 $80 forward single #
loop $-1 $-1 $81 $31 #
plane-surface $-1 63.604132176192621 -4.7575459619073683 93.923213252431736 0 0.83867057594974714 0.54463902268945019 1 0 0 forward_v I I I I #
coedge $-1 $82 $83 $84 $85 reversed $32 $-1 #
face $-1 $86 $87 $18 $-1 $88 forward single #
loop $-1 $89 $90 $34 #
cone-surface $-1 56.882865558000589 43.298824255951075 13.263862531522644 0 -0.83867057594974714 -0.54463902268945019 0.75 0 0 1 I I -0.70710678118654757 0.70710678118654757 0.75 forward I I I I #
loop $-1 $-1 $91 $23 #
coedge $-1 $56 $56 $92 $93 reversed $35 $-1 #
face $-1 $94 $95 $19 $-1 $96 reversed single #
loop $-1 $97 $98 $37 #
cone-surface $-1 70.325398794384654 43.298824255951075 13.263862531522644 0 -0.83867057594974714 -0.54463902268945019 0.75 0 0 1 I I -0.70710678118654757 0.70710678118654757 0.75 forward I I I I #
loop $-1 $-1 $99 $24 #
coedge $-1 $61 $61 $100 $101 reversed $38 $-1 #
face $-1 $102 $103 $15 $-1 $104 reversed single #
loop $-1 $-1 $105 $40 #
plane-surface $-1 0 -53.289091867055276 0 0 1 0 0 0 1 forward_v I I I I #
coedge $-1 $106 $107 $108 $109 forward $41 $-1 #
coedge $-1 $110 $43 $111 $112 forward $26 $-1 #
coedge $-1 $43 $110 $113 $114 forward $26 $-1 #
coedge $-1 $115 $116 $43 $69 reversed $117 $-1 #
edge $-1 $118 -53.289091867055276 $119 53.289091867055276 $68 $120 forward 7 unknown #
face $-1 $121 $122 $16 $-1 $123 reversed single #
loop $-1 $-1 $124 $44 #
plane-surface $-1 0 -77.20254667140523 -1.7270202501828003 0 1 0 0 0 1 forward_v I I I I #
coedge $-1 $125 $126 $127 $128 forward $45 $-1 #
coedge $-1 $129 $47 $130 $131 reversed $29 $-1 #
coedge $-1 $47 $129 $132 $133 forward $29 $-1 #
coedge $-1 $134 $135 $47 $77 reversed $136 $-1 #
edge $-1 $137 -11.956727402174977 $138 11.956727402174977 $76 $139 forward 7 unknown #
face $-1 $140 $141 $17 $-1 $142 reversed single #
loop $-1 $-1 $143 $48 #
plane-surface $-1 0 0 25.939055407940049 0 0 1 1 0 0 forward_v I I I I #
coedge $-1 $144 $145 $143 $146 reversed $49 $-1 #
coedge $-1 $83 $51 $145 $147 forward $32 $-1 #
coedge $-1 $51 $82 $148 $149 reversed $32 $-1 #
coedge $-1 $150 $143 $51 $85 forward $79 $-1 #
edge $-1 $151 -24.725093518604588 $152 -10.827882590494497 $84 $153 forward 7 unknown #
face $-1 $154 $155 $18 $-1 $156 forward single #
loop $-1 $-1 $157 $52 #
plane-surface $-1 47.921176733744552 128.23394891509955 180.28889707745029 1 0 0 0 -0.83867057594974714 -0.54463902268945019 forward_v I I I I #
loop $-1 $-1 $158 $34 #
coedge $-1 $90 $90 $91 $159 forward $53 $-1 #
coedge $-1 $91 $91 $90 $159 reversed $55 $-1 #
coedge $-1 $92 $92 $56 $93 forward $155 $-1 #
edge $-1 $160 -2.1803009219287615e-015 $160 6.2831853071795987 $92 $161 forward 7 unknown #
face $-1 $162 $163 $19 $-1 $164 reversed single #
loop $-1 $165 $166 $57 #
cone-surface $-1 56.882865558000589 45.134156795456811 14.455741380371691 0 -0.83867057594974714 -0.54463902268945019 1.5 0 0 1 I I 0 1 1.5 forward I I I I #
loop $-1 $-1 $167 $37 #
coedge $-1 $98 $98 $99 $168 forward $58 $-1 #
coedge $-1 $99 $99 $98 $168 reversed $60 $-1 #
coedge $-1 $100 $100 $61 $101 forward $169 $-1 #
edge $-1 $170 -2.1803009219287615e-015 $170 6.2831853071795987 $100 $171 forward 7 unknown #
face $-1 $172 $173 $15 $-1 $174 reversed single #
loop $-1 $-1 $175 $62 #
plane-surface $-1 -79.287087618640697 0 0 1 0 0 0 0 -1 forward_v I I I I #
coedge $-1 $176 $113 $177 $178 forward $63 $-1 #
coedge $-1 $179 $65 $176 $180 forward $41 $-1 #
coedge $-1 $65 $179 $181 $182 forward $41 $-1 #
coedge $-1 $116 $115 $65 $109 reversed $117 $-1 #
edge $-1 $183 -53.289091867055276 $184 53.289091867055276 $108 $185 forward 7 unknown #
coedge $-1 $67 $66 $186 $187 forward $26 $-1 #
coedge $-1 $188 $189 $66 $112 reversed $173 $-1 #
edge $-1 $119 -79.287087618640697 $190 79.287087618640697 $111 $191 forward 7 unknown #
coedge $-1 $105 $192 $67 $114 reversed $63 $-1 #
edge $-1 $193 -79.287087618640697 $118 79.287087618640697 $113 $194 forward 7 unknown #
coedge $-1 $108 $68 $192 $195 forward $117 $-1 #
coedge $-1 $68 $108 $188 $196 reversed $117 $-1 #
loop $-1 $-1 $115 $172 #
vertex $-1 $69 $197 #
vertex $-1 $69 $198 #
straight-curve $-1 79.287087618640697 0 25.939055407940049 0 1 0 I I #
face $-1 $199 $200 $16 $-1 $123 reversed single #
loop $-1 $-1 $201 $70 #
plane-surface $-1 0 -53.289091867055276 0 0 1 0 0 0 1 forward_v I I I I #
coedge $-1 $202 $132 $203 $204 forward $71 $-1 #
coedge $-1 $205 $73 $202 $206 forward $45 $-1 #
coedge $-1 $73 $205 $201 $207 reversed $45 $-1 #
coedge $-1 $208 $134 $73 $128 reversed $136 $-1 #
edge $-1 $209 -11.956727402174977 $210 11.956727402174977 $127 $211 forward 7 unknown #
coedge $-1 $75 $74 $212 $213 forward $29 $-1 #
coedge $-1 $214 $215 $74 $131 forward $200 $-1 #
edge $-1 $216 -79.287087618640697 $138 79.287087618640697 $130 $217 forward 7 unknown #
coedge $-1 $124 $218 $75 $133 reversed $71 $-1 #
edge $-1 $219 -79.287087618640697 $137 79.287087618640697 $132 $220 forward 7 unknown #
coedge $-1 $127 $76 $218 $221 forward $136 $-1 #
coedge $-1 $76 $222 $214 $223 forward $136 $-1 #
loop $-1 $-1 $135 $224 #
vertex $-1 $77 $225 #
vertex $-1 $77 $226 #
straight-curve $-1 79.287087618640697 -65.245819269230253 4.5561572356523694 0 1 0 I I #
face $-1 $227 $228 $17 $-1 $229 forward single #
loop $-1 $-1 $148 $78 #
plane-surface $-1 0 53.289091867055276 0 0 -1 0 0 0 -1 forward_v I I I I #
coedge $-1 $84 $230 $81 $146 forward $79 $-1 #
coedge $-1 $231 $81 $232 $233 reversed $49 $-1 #
coedge $-1 $81 $231 $82 $147 reversed $49 $-1 #
edge $-1 $234 -47.485021530544387 $151 -16.119110645648242 $143 $235 forward 7 unknown #
edge $-1 $151 81.06181353447802 $236 106.57818373411058 $82 $237 forward 7 unknown #
coedge $-1 $238 $239 $83 $149 forward $141 $-1 #
edge $-1 $152 64.205393130785097 $236 85.605222022257905 $148 $240 forward 7 unknown #
coedge $-1 $241 $84 $239 $242 forward $79 $-1 #
vertex $-1 $146 $243 #
vertex $-1 $242 $244 #
straight-curve $-1 47.921176733744552 64.116974457549773 25.939055407940046 0 1 0 I I #
face $-1 $245 $246 $18 $-1 $247 forward single #
loop $-1 $248 $92 $86 #
plane-surface $-1 63.604132176192621 -4.7575459619073683 93.923213252431736 0 0.83867057594974714 0.54463902268945019 1 0 0 forward_v I I I I #
coedge $-1 $249 $250 $251 $252 reversed $87 $-1 #
coedge $-1 $158 $158 $-1 $253 forward $89 $-1 #
edge $-1 $254 0 $254 6.2831853071796004 $90 $255 forward 7 unknown #
vertex $-1 $93 $256 #
ellipse-curve $-1 56.882865558000589 46.340486403000227 15.239140962203644 0 -0.83867057594974714 -0.54463902268945019 1.5 0 0 1 I I #
face $-1 $257 $258 $19 $-1 $259 forward single #
loop $-1 $260 $261 $94 #
cone-surface $-1 56.882865558000589 43.298824255951075 13.263862531522644 0 -0.83867057594974714 -0.54463902268945019 0.75 0 0 1 I I -0.70710678118654757 0.70710678118654757 0.75 forward I I I I #
loop $-1 $-1 $262 $57 #
coedge $-1 $166 $166 $263 $264 reversed $95 $-1 #
coedge $-1 $167 $167 $-1 $265 forward $97 $-1 #
edge $-1 $266 0 $266 6.2831853071796004 $98 $267 forward 7 unknown #
loop $-1 $268 $100 $257 #
vertex $-1 $101 $269 #
ellipse-curve $-1 70.325398794384654 46.340486403000227 15.239140962203644 0 -0.83867057594974714 -0.54463902268945019 1.5 0 0 1 I I #
face $-1 $-1 $117 $15 $-1 $270 reversed single #
loop $-1 $-1 $188 $102 #
plane-surface $-1 0 53.289091867055276 0 0 -1 0 0 0 -1 forward_v I I I I #
coedge $-1 $271 $186 $189 $272 forward $103 $-1 #
coedge $-1 $192 $105 $106 $180 reversed $63 $-1 #
coedge $-1 $186 $271 $105 $178 reversed $103 $-1 #
edge $-1 $193 -25.939055407940049 $273 25.939055407940049 $177 $274 forward 7 unknown #
coedge $-1 $107 $106 $271 $275 forward $41 $-1 #
edge $-1 $184 -79.287087618640697 $273 79.287087618640697 $176 $276 forward 7 unknown #
coedge $-1 $189 $188 $107 $182 reversed $173 $-1 #
edge $-1 $277 -79.287087618640697 $183 79.287087618640697 $181 $278 forward 7 unknown #
vertex $-1 $109 $279 #
vertex $-1 $195 $280 #
straight-curve $-1 79.287087618640697 0 -25.939055407940049 0 -1 0 I I #
coedge $-1 $175 $177 $110 $187 reversed $103 $-1 #
edge $-1 $190 -53.289091867055276 $193 53.289091867055276 $186 $281 forward 7 unknown #
coedge $-1 $181 $111 $116 $196 forward $173 $-1 #
coedge $-1 $111 $181 $175 $272 reversed $173 $-1 #
vertex $-1 $112 $282 #
straight-curve $-1 0 53.289091867055276 25.939055407940049 -1 0 0 I I #
coedge $-1 $113 $176 $115 $195 reversed $63 $-1 #
vertex $-1 $187 $283 #
straight-curve $-1 0 -53.289091867055276 25.939055407940049 1 0 0 I I #
edge $-1 $118 -25.939055407940049 $184 25.939055407940049 $115 $284 forward 7 unknown #
edge $-1 $119 -25.939055407940049 $183 25.939055407940049 $116 $285 forward 7 unknown #
point $-1 79.287087618640697 -53.289091867055276 25.939055407940049 #
point $-1 79.287087618640697 53.289091867055276 25.939055407940049 #
face $-1 $286 $287 $16 $-1 $288 forward single #
loop $-1 $-1 $130 $121 #
coedge $-1 $289 $290 $126 $207 forward $122 $-1 #
coedge $-1 $218 $124 $125 $206 reversed $71 $-1 #
coedge $-1 $212 $291 $124 $204 reversed $292 $-1 #
edge $-1 $219 -6.2831774858351697 $293 6.2831774858351697 $203 $294 forward 7 unknown #
coedge $-1 $126 $125 $291 $295 forward $45 $-1 #
edge $-1 $210 -79.287087618640697 $293 79.287087618640697 $202 $296 forward 7 unknown #
edge $-1 $209 -79.287087618640697 $297 79.287087618640697 $201 $298 forward 7 unknown #
coedge $-1 $299 $127 $290 $300 forward $136 $-1 #
vertex $-1 $300 $301 #
vertex $-1 $221 $302 #
straight-curve $-1 79.287087618640697 -65.245819269230253 -8.0101977360179699 0 -1 0 I I #
coedge $-1 $303 $203 $129 $213 reversed $292 $-1 #
edge $-1 $216 -11.956727402174977 $219 11.956727402174977 $212 $304 forward 7 unknown #
coedge $-1 $305 $130 $135 $223 reversed $200 $-1 #
coedge $-1 $130 $305 $303 $306 forward $200 $-1 #
vertex $-1 $306 $307 #
straight-curve $-1 0 -53.289091867055276 4.5561572356523694 1 0 0 I I #
coedge $-1 $132 $202 $134 $221 reversed $71 $-1 #
vertex $-1 $213 $308 #
straight-curve $-1 0 -77.20254667140523 4.5561572356523694 1 0 0 I I #
edge $-1 $137 -6.2831774858351697 $210 6.2831774858351697 $134 $309 forward 7 unknown #
coedge $-1 $135 $310 $311 $312 reversed $136 $-1 #
edge $-1 $313 -25.939055407940049 $138 -4.5561572356523694 $135 $314 forward 7 unknown #
face $-1 $-1 $136 $16 $-1 $315 reversed single #
point $-1 79.287087618640697 -77.20254667140523 4.5561572356523694 #
point $-1 79.287087618640697 -53.289091867055276 4.5561572356523694 #
face $-1 $316 $317 $17 $-1 $318 reversed single #
loop $-1 $-1 $319 $140 #
plane-surface $-1 0 -65.245819269230253 4.5561572356523694 0 0 1 1 0 0 forward_v I I I I #
coedge $-1 $143 $320 $321 $322 forward $79 $-1 #
coedge $-1 $145 $144 $238 $323 reversed $49 $-1 #
coedge $-1 $321 $324 $144 $233 forward $325 $-1 #
edge $-1 $326 -65.897293465829975 $234 -40.380923266197414 $232 $327 forward 7 unknown #
vertex $-1 $233 $328 #
straight-curve $-1 31.802066088096311 39.391880938945192 25.939055407940046 -1 0 0 I I #
vertex $-1 $323 $329 #
straight-curve $-1 47.921176733744552 -4.7575459619073683 93.923213252431736 0 0.54463902268945019 -0.83867057594974714 I I #
coedge $-1 $330 $148 $231 $323 forward $141 $-1 #
coedge $-1 $148 $331 $150 $242 reversed $141 $-1 #
straight-curve $-1 47.921176733744552 53.289091867055276 90.144448538725143 0 0 -1 I I #
coedge $-1 $320 $150 $332 $333 forward $79 $-1 #
edge $-1 $152 -47.921176733744552 $334 79.287087618640697 $239 $335 forward 7 unknown #
point $-1 47.921176733744552 39.391880938945185 25.939055407940046 #
point $-1 47.921176733744552 53.289091867055276 25.939055407940049 #
face $-1 $336 $337 $18 $-1 $338 reversed single #
loop $-1 $-1 $339 $154 #
plane-surface $-1 0 0 25.939055407940049 0 0 1 1 0 0 forward_v I I I I #
loop $-1 $-1 $340 $86 #
coedge $-1 $250 $157 $341 $342 forward $87 $-1 #
coedge $-1 $157 $249 $343 $344 reversed $87 $-1 #
coedge $-1 $345 $339 $157 $252 forward $246 $-1 #
edge $-1 $346 -24.725093518604588 $347 -10.827882590494497 $251 $348 forward 7 unknown #
edge $-1 $349 1 $349 0 $158 $-1 forward 7 unknown #
vertex $-1 $159 $350 #
ellipse-curve $-1 56.882865558000589 43.927827187913387 13.672341798539732 0 0.83867057594974714 0.54463902268945019 1.5 0 0 1 I I #
point $-1 58.382865558000589 46.340486403000241 15.239140962203649 #
face $-1 $351 $169 $19 $-1 $352 forward single #
loop $-1 $-1 $353 $162 #
plane-surface $-1 47.921176733744552 128.23394891509955 180.28889707745029 1 0 0 0 -0.83867057594974714 -0.54463902268945019 forward_v I I I I #
loop $-1 $-1 $354 $94 #
coedge $-1 $261 $261 $262 $355 forward $163 $-1 #
coedge $-1 $262 $262 $261 $355 reversed $165 $-1 #
coedge $-1 $263 $263 $166 $264 forward $268 $-1 #
edge $-1 $356 -2.1803009219287615e-015 $356 6.2831853071795987 $263 $357 forward 7 unknown #
edge $-1 $358 1 $358 0 $167 $-1 forward 7 unknown #
vertex $-1 $168 $359 #
ellipse-curve $-1 70.325398794384654 43.927827187913387 13.672341798539732 0 0.83867057594974714 0.54463902268945019 1.5 0 0 1 I I #
loop $-1 $360 $263 $257 #
point $-1 71.825398794384654 46.340486403000241 15.239140962203649 #
plane-surface $-1 79.287087618640697 0 0 -1 0 0 0 0 1 forward_v I I I I #
coedge $-1 $177 $175 $179 $275 reversed $103 $-1 #
edge $-1 $190 -25.939055407940049 $277 25.939055407940049 $189 $361 forward 7 unknown #
vertex $-1 $275 $362 #
straight-curve $-1 -79.287087618640697 -53.289091867055276 0 0 0 -1 I I #
edge $-1 $273 -53.289091867055276 $277 53.289091867055276 $271 $363 forward 7 unknown #
straight-curve $-1 0 -53.289091867055276 -25.939055407940049 -1 0 0 I I #
vertex $-1 $182 $364 #
straight-curve $-1 0 53.289091867055276 -25.939055407940049 1 0 0 I I #
point $-1 79.287087618640697 53.289091867055276 -25.939055407940049 #
point $-1 79.287087618640697 -53.289091867055276 -25.939055407940049 #
straight-curve $-1 -79.287087618640697 0 25.939055407940049 0 -1 0 I I #
point $-1 -79.287087618640697 53.289091867055276 25.939055407940049 #
point $-1 -79.287087618640697 -53.289091867055276 25.939055407940049 #
straight-curve $-1 79.287087618640697 -53.289091867055276 0 0 0 -1 I I #
straight-curve $-1 79.287087618640697 53.289091867055276 0 0 0 -1 I I #
face $-1 $365 $366 $16 $-1 $367 reversed single #
loop $-1 $-1 $311 $199 #
plane-surface $-1 0 0 25.939055407940049 0 0 1 1 0 0 forward_v I I I I #
coedge $-1 $368 $201 $369 $370 forward $122 $-1 #
coedge $-1 $201 $368 $208 $300 reversed $122 $-1 #
coedge $-1 $203 $369 $205 $295 reversed $292 $-1 #
loop $-1 $-1 $371 $365 #
vertex $-1 $295 $372 #
straight-curve $-1 -79.287087618640697 -77.20254667140523 -1.7270202501828003 0 0 -1 I I #
edge $-1 $293 -11.956727402174977 $297 11.956727402174977 $291 $373 forward 7 unknown #
straight-curve $-1 0 -77.20254667140523 -8.0101977360179699 -1 0 0 I I #
vertex $-1 $370 $374 #
straight-curve $-1 0 -53.289091867055276 -8.0101977360179699 -1 0 0 I I #
coedge $-1 $310 $208 $375 $376 reversed $136 $-1 #
edge $-1 $209 8.0101977360179699 $377 25.939055407940049 $208 $314 forward 7 unknown #
point $-1 79.287087618640697 -53.289091867055276 -8.0101977360179699 #
point $-1 79.287087618640697 -77.20254667140523 -8.0101977360179699 #
coedge $-1 $378 $212 $215 $306 reversed $292 $-1 #
straight-curve $-1 -79.287087618640697 -65.245819269230253 4.5561572356523694 0 -1 0 I I #
coedge $-1 $215 $214 $379 $380 reversed $200 $-1 #
edge $-1 $381 -25.939055407940049 $216 -4.5561572356523694 $303 $382 forward 7 unknown #
point $-1 -79.287087618640697 -53.289091867055276 4.5561572356523694 #
point $-1 -79.287087618640697 -77.20254667140523 4.5561572356523694 #
straight-curve $-1 79.287087618640697 -77.20254667140523 -1.7270202501828003 0 0 -1 I I #
coedge $-1 $222 $299 $383 $384 reversed $136 $-1 #
coedge $-1 $385 $379 $222 $312 forward $287 $-1 #
edge $-1 $313 -53.289091867055276 $386 53.289091867055276 $222 $387 forward 7 unknown #
vertex $-1 $312 $388 #
straight-curve $-1 79.287087618640697 -53.289091867055276 0 0 0 -1 I I #
plane-surface $-1 79.287087618640697 0 0 -1 0 0 0 0 1 forward_v I I I I #
face $-1 $389 $390 $17 $-1 $391 reversed single #
loop $-1 $-1 $392 $227 #
plane-surface $-1 0 -65.245819269230253 -8.0101977360179699 0 0 1 1 0 0 forward_v I I I I #
coedge $-1 $393 $394 $395 $396 forward $228 $-1 #
coedge $-1 $230 $241 $397 $398 forward $79 $-1 #
coedge $-1 $399 $232 $230 $322 reversed $325 $-1 #
edge $-1 $400 -53.289091867055276 $234 39.391880938945185 $321 $401 forward 7 unknown #
edge $-1 $236 16.119110645648242 $326 47.485021530544387 $238 $402 forward 7 unknown #
coedge $-1 $232 $403 $330 $404 reversed $325 $-1 #
loop $-1 $-1 $232 $405 #
vertex $-1 $404 $406 #
straight-curve $-1 79.287087618640697 17.398854355945748 59.805347580984375 0 -0.54463902268945019 0.83867057594974714 I I #
point $-1 79.287087618640697 39.391880938945185 25.939055407940046 #
point $-1 47.921176733744552 53.289091867055276 4.5392265164672381 #
coedge $-1 $407 $238 $324 $404 forward $141 $-1 #
coedge $-1 $239 $407 $408 $409 reversed $141 $-1 #
coedge $-1 $408 $410 $241 $333 reversed $411 $-1 #
edge $-1 $334 -53.289091867055276 $412 53.289091867055276 $332 $413 forward 7 unknown #
vertex $-1 $242 $414 #
straight-curve $-1 0 53.289091867055276 25.939055407940049 -1 0 0 I I #
face $-1 $415 $416 $18 $-1 $417 forward single #
loop $-1 $-1 $343 $245 #
plane-surface $-1 0 53.289091867055276 0 0 -1 0 0 0 -1 forward_v I I I I #
coedge $-1 $251 $418 $340 $419 forward $246 $-1 #
coedge $-1 $420 $341 $339 $419 reversed $248 $-1 #
coedge $-1 $340 $421 $249 $342 reversed $248 $-1 #
edge $-1 $346 81.06181353447802 $422 106.57818373411058 $249 $423 forward 7 unknown #
coedge $-1 $424 $425 $250 $344 forward $337 $-1 #
edge $-1 $347 64.205393130785097 $422 85.605222022257905 $343 $426 forward 7 unknown #
coedge $-1 $427 $251 $425 $428 forward $246 $-1 #
vertex $-1 $419 $429 #
vertex $-1 $428 $430 #
straight-curve $-1 47.921176733744552 64.116974457549773 25.939055407940046 0 1 0 I I #
vertex $-1 $253 $431 #
point $-1 58.382865558000589 43.927827187913387 13.672341798539732 #
face $-1 $432 $433 $19 $-1 $434 forward single #
plane-surface $-1 63.604132176192621 -4.7575459619073683 93.923213252431736 0 0.83867057594974714 0.54463902268945019 1 0 0 forward_v I I I I #
coedge $-1 $435 $436 $437 $438 reversed $258 $-1 #
coedge $-1 $354 $354 $-1 $439 forward $260 $-1 #
edge $-1 $440 0 $440 6.2831853071796004 $261 $441 forward 7 unknown #
vertex $-1 $264 $442 #
ellipse-curve $-1 56.882865558000589 46.340486403000227 15.239140962203644 0 -0.83867057594974714 -0.54463902268945019 1.5 0 0 1 I I #
vertex $-1 $265 $443 #
point $-1 71.825398794384654 43.927827187913387 13.672341798539732 #
loop $-1 $-1 $444 $257 #
straight-curve $-1 -79.287087618640697 53.289091867055276 0 0 0 -1 I I #
point $-1 -79.287087618640697 -53.289091867055276 -25.939055407940049 #
straight-curve $-1 -79.287087618640697 0 -25.939055407940049 0 1 0 I I #
point $-1 -79.287087618640697 53.289091867055276 -25.939055407940049 #
face $-1 $445 $292 $16 $-1 $446 reversed single #
loop $-1 $-1 $375 $286 #
plane-surface $-1 0 0 -25.939055407940049 0 0 1 1 0 0 forward_v I I I I #
coedge $-1 $290 $289 $447 $448 reversed $122 $-1 #
coedge $-1 $291 $449 $289 $370 reversed $292 $-1 #
edge $-1 $297 8.0101977360179699 $450 25.939055407940049 $369 $382 forward 7 unknown #
coedge $-1 $449 $378 $451 $452 forward $292 $-1 #
point $-1 -79.287087618640697 -77.20254667140523 -8.0101977360179699 #
straight-curve $-1 -79.287087618640697 -65.245819269230253 -8.0101977360179699 0 1 0 I I #
point $-1 -79.287087618640697 -53.289091867055276 -8.0101977360179699 #
coedge $-1 $447 $453 $299 $376 forward $366 $-1 #
edge $-1 $454 -53.289091867055276 $377 53.289091867055276 $299 $455 forward 7 unknown #
vertex $-1 $300 $456 #
coedge $-1 $371 $303 $457 $458 reversed $292 $-1 #
coedge $-1 $311 $457 $305 $380 forward $287 $-1 #
edge $-1 $381 -79.287087618640697 $313 79.287087618640697 $305 $459 forward 7 unknown #
vertex $-1 $458 $460 #
straight-curve $-1 -79.287087618640697 -53.289091867055276 0 0 0 -1 I I #
coedge $-1 $461 $462 $310 $384 forward $463 $-1 #
edge $-1 $386 -25.939055407940049 $454 25.939055407940049 $310 $464 forward 7 unknown #
coedge $-1 $457 $311 $462 $465 forward $287 $-1 #
vertex $-1 $312 $466 #
straight-curve $-1 79.287087618640697 0 25.939055407940049 0 1 0 I I #
point $-1 79.287087618640697 -53.289091867055276 25.939055407940049 #
face $-1 $467 $468 $17 $-1 $469 reversed single #
loop $-1 $-1 $470 $316 #
plane-surface $-1 0 -77.20254667140523 -1.7270202501828003 0 1 0 0 0 1 forward_v I I I I #
coedge $-1 $471 $472 $473 $474 forward $317 $-1 #
coedge $-1 $475 $319 $476 $477 reversed $228 $-1 #
coedge $-1 $319 $475 $478 $479 forward $228 $-1 #
coedge $-1 $480 $399 $319 $396 reversed $325 $-1 #
edge $-1 $481 -11.956727402174977 $482 11.956727402174977 $395 $483 forward 7 unknown #
coedge $-1 $484 $485 $320 $398 reversed $486 $-1 #
edge $-1 $412 -79.287087618640697 $400 79.287087618640697 $397 $487 forward 7 unknown #
coedge $-1 $395 $321 $485 $488 forward $325 $-1 #
vertex $-1 $322 $489 #
straight-curve $-1 79.287087618640697 0 25.939055407940049 0 1 0 I I #
straight-curve $-1 31.802066088096311 53.289091867055276 4.5392265164672452 1 0 0 I I #
coedge $-1 $324 $490 $491 $492 reversed $325 $-1 #
edge $-1 $326 -4.5392265164672381 $493 25.939055407940049 $324 $494 forward 7 unknown #
face $-1 $-1 $325 $17 $-1 $495 reversed single #
point $-1 79.287087618640697 53.289091867055276 4.5392265164672381 #
coedge $-1 $331 $330 $496 $497 reversed $141 $-1 #
coedge $-1 $498 $332 $331 $409 forward $411 $-1 #
edge $-1 $334 -25.939055407940049 $499 25.939055407940049 $331 $500 forward 7 unknown #
coedge $-1 $332 $501 $484 $502 reversed $411 $-1 #
loop $-1 $-1 $408 $503 #
vertex $-1 $333 $504 #
straight-curve $-1 -79.287087618640697 0 25.939055407940049 0 -1 0 I I #
point $-1 -79.287087618640697 53.289091867055276 25.939055407940049 #
face $-1 $505 $506 $18 $-1 $507 reversed single #
loop $-1 $-1 $508 $336 #
plane-surface $-1 0 -65.245819269230253 4.5561572356523694 0 0 1 1 0 0 forward_v I I I I #
coedge $-1 $339 $509 $510 $511 forward $246 $-1 #
edge $-1 $512 -47.485021530544387 $346 -16.119110645648242 $339 $513 forward 7 unknown #
coedge $-1 $421 $340 $514 $515 reversed $248 $-1 #
coedge $-1 $341 $420 $424 $516 reversed $248 $-1 #
vertex $-1 $516 $517 #
straight-curve $-1 47.921176733744552 -4.7575459619073683 93.923213252431736 0 0.54463902268945019 -0.83867057594974714 I I #
coedge $-1 $518 $343 $421 $516 forward $337 $-1 #
coedge $-1 $343 $519 $345 $428 reversed $337 $-1 #
straight-curve $-1 47.921176733744552 53.289091867055276 90.144448538725143 0 0 -1 I I #
coedge $-1 $509 $345 $520 $521 forward $246 $-1 #
edge $-1 $347 -47.921176733744552 $522 79.287087618640697 $425 $523 forward 7 unknown #
point $-1 47.921176733744552 39.391880938945185 25.939055407940046 #
point $-1 47.921176733744552 53.289091867055276 25.939055407940049 #
point $-1 56.882865558000589 42.669821323988764 12.855383264505557 #
face $-1 $524 $525 $19 $-1 $526 reversed single #
loop $-1 $-1 $527 $351 #
plane-surface $-1 0 0 25.939055407940049 0 0 1 1 0 0 forward_v I I I I #
coedge $-1 $436 $353 $528 $529 forward $258 $-1 #
coedge $-1 $353 $435 $530 $531 reversed $258 $-1 #
coedge $-1 $532 $527 $353 $438 forward $433 $-1 #
edge $-1 $533 -24.725093518604588 $534 -10.827882590494497 $437 $535 forward 7 unknown #
edge $-1 $536 1 $536 0 $354 $-1 forward 7 unknown #
vertex $-1 $355 $537 #
ellipse-curve $-1 56.882865558000589 43.927827187913387 13.672341798539732 0 0.83867057594974714 0.54463902268945019 1.5 0 0 1 I I #
point $-1 58.382865558000589 46.340486403000241 15.239140962203649 #
point $-1 70.325398794384654 42.669821323988764 12.855383264505557 #
coedge $-1 $538 $528 $527 $539 reversed $360 $-1 #
face $-1 $224 $463 $16 $-1 $540 reversed single #
plane-surface $-1 -79.287087618640697 0 0 1 0 0 0 0 -1 forward_v I I I I #
coedge $-1 $541 $375 $368 $448 forward $366 $-1 #
edge $-1 $377 -79.287087618640697 $450 79.287087618640697 $368 $542 forward 7 unknown #
coedge $-1 $369 $371 $541 $543 reversed $292 $-1 #
vertex $-1 $543 $544 #
coedge $-1 $462 $461 $371 $452 reversed $463 $-1 #
edge $-1 $545 -25.939055407940049 $546 25.939055407940049 $451 $547 forward 7 unknown #
coedge $-1 $375 $541 $461 $548 forward $366 $-1 #
vertex $-1 $376 $549 #
straight-curve $-1 79.287087618640697 0 -25.939055407940049 0 -1 0 I I #
point $-1 79.287087618640697 -53.289091867055276 -25.939055407940049 #
coedge $-1 $379 $385 $378 $458 forward $287 $-1 #
edge $-1 $545 -53.289091867055276 $381 53.289091867055276 $378 $550 forward 7 unknown #
straight-curve $-1 0 -53.289091867055276 25.939055407940049 1 0 0 I I #
point $-1 -79.287087618640697 -53.289091867055276 25.939055407940049 #
coedge $-1 $451 $383 $453 $548 reversed $463 $-1 #
coedge $-1 $383 $451 $385 $465 reversed $463 $-1 #
loop $-1 $-1 $383 $445 #
straight-curve $-1 79.287087618640697 53.289091867055276 0 0 0 -1 I I #
edge $-1 $386 -79.287087618640697 $545 79.287087618640697 $462 $551 forward 7 unknown #
point $-1 79.287087618640697 53.289091867055276 25.939055407940049 #
face $-1 $552 $486 $17 $-1 $469 reversed single #
loop $-1 $-1 $553 $389 #
plane-surface $-1 0 -53.289091867055276 0 0 1 0 0 0 1 forward_v I I I I #
coedge $-1 $554 $478 $555 $556 forward $390 $-1 #
coedge $-1 $557 $392 $554 $558 forward $317 $-1 #
coedge $-1 $392 $557 $553 $559 reversed $317 $-1 #
coedge $-1 $490 $480 $392 $474 reversed $325 $-1 #
edge $-1 $560 -11.956727402174977 $561 11.956727402174977 $473 $562 forward 7 unknown #
coedge $-1 $394 $393 $501 $563 forward $228 $-1 #
coedge $-1 $485 $484 $393 $477 forward $486 $-1 #
edge $-1 $564 -79.287087618640697 $482 79.287087618640697 $476 $565 forward 7 unknown #
coedge $-1 $470 $566 $394 $479 reversed $390 $-1 #
edge $-1 $567 -79.287087618640697 $481 79.287087618640697 $478 $568 forward 7 unknown #
coedge $-1 $473 $395 $566 $569 forward $325 $-1 #
vertex $-1 $396 $570 #
vertex $-1 $396 $571 #
straight-curve $-1 79.287087618640697 -65.245819269230253 4.5561572356523694 0 1 0 I I #
coedge $-1 $476 $397 $410 $502 forward $486 $-1 #
coedge $-1 $397 $476 $399 $488 reversed $486 $-1 #
loop $-1 $-1 $476 $467 #
straight-curve $-1 0 -53.289091867055276 25.939055407940049 1 0 0 I I #
edge $-1 $400 -25.939055407940049 $482 -4.5561572356523694 $399 $572 forward 7 unknown #
point $-1 79.287087618640697 -53.289091867055276 25.939055407940049 #
coedge $-1 $403 $473 $573 $574 forward $325 $-1 #
coedge $-1 $575 $496 $403 $492 forward $576 $-1 #
edge $-1 $493 -53.289091867055276 $577 53.289091867055276 $403 $578 forward 7 unknown #
vertex $-1 $492 $579 #
straight-curve $-1 79.287087618640697 53.289091867055276 0 0 0 -1 I I #
plane-surface $-1 79.287087618640697 0 0 -1 0 0 0 0 1 forward_v I I I I #
coedge $-1 $491 $580 $407 $497 forward $576 $-1 #
edge $-1 $499 -79.287087618640697 $493 79.287087618640697 $407 $581 forward 7 unknown #
coedge $-1 $582 $408 $580 $583 reversed $411 $-1 #
vertex $-1 $497 $584 #
straight-curve $-1 -79.287087618640697 53.289091867055276 0 0 0 -1 I I #
coedge $-1 $410 $555 $475 $563 reversed $411 $-1 #
edge $-1 $412 -25.939055407940049 $564 -4.5561572356523694 $410 $585 forward 7 unknown #
face $-1 $405 $411 $17 $-1 $586 reversed single #
point $-1 -79.287087618640697 -53.289091867055276 25.939055407940049 #
face $-1 $587 $588 $18 $-1 $589 reversed single #
loop $-1 $-1 $590 $415 #
plane-surface $-1 0 -65.245819269230253 -8.0101977360179699 0 0 1 1 0 0 forward_v I I I I #
coedge $-1 $591 $592 $593 $594 forward $416 $-1 #
coedge $-1 $418 $427 $595 $596 forward $246 $-1 #
coedge $-1 $597 $514 $418 $511 reversed $598 $-1 #
edge $-1 $599 -53.289091867055276 $512 39.391880938945185 $510 $600 forward 7 unknown #
vertex $-1 $515 $601 #
straight-curve $-1 31.802066088096311 39.391880938945192 25.939055407940046 -1 0 0 I I #
coedge $-1 $510 $602 $420 $515 forward $598 $-1 #
edge $-1 $603 -65.897293465829975 $512 -40.380923266197414 $514 $604 forward 7 unknown #
edge $-1 $422 16.119110645648242 $603 47.485021530544387 $424 $605 forward 7 unknown #
point $-1 47.921176733744552 53.289091867055276 4.5392265164672381 #
coedge $-1 $606 $424 $602 $607 forward $337 $-1 #
coedge $-1 $425 $606 $608 $609 reversed $337 $-1 #
coedge $-1 $608 $610 $427 $521 reversed $611 $-1 #
edge $-1 $522 -53.289091867055276 $612 53.289091867055276 $520 $613 forward 7 unknown #
vertex $-1 $428 $614 #
straight-curve $-1 0 53.289091867055276 25.939055407940049 -1 0 0 I I #
face $-1 $615 $616 $19 $-1 $617 forward single #
loop $-1 $-1 $530 $432 #
plane-surface $-1 0 53.289091867055276 0 0 -1 0 0 0 -1 forward_v I I I I #
coedge $-1 $437 $618 $444 $539 forward $433 $-1 #
coedge $-1 $444 $619 $435 $529 reversed $360 $-1 #
edge $-1 $533 81.06181353447802 $620 106.57818373411058 $435 $621 forward 7 unknown #
coedge $-1 $622 $623 $436 $531 forward $525 $-1 #
edge $-1 $534 64.205393130785097 $620 85.605222022257905 $530 $624 forward 7 unknown #
coedge $-1 $625 $437 $623 $626 forward $433 $-1 #
vertex $-1 $539 $627 #
vertex $-1 $626 $628 #
straight-curve $-1 47.921176733744552 64.116974457549773 25.939055407940046 0 1 0 I I #
vertex $-1 $439 $629 #
point $-1 58.382865558000589 43.927827187913387 13.672341798539732 #
coedge $-1 $619 $444 $630 $631 reversed $360 $-1 #
edge $-1 $632 -47.485021530544387 $533 -16.119110645648242 $527 $633 forward 7 unknown #
plane-surface $-1 0 53.289091867055276 0 0 -1 0 0 0 -1 forward_v I I I I #
coedge $-1 $453 $447 $449 $543 forward $366 $-1 #
straight-curve $-1 0 -53.289091867055276 -25.939055407940049 -1 0 0 I I #
edge $-1 $450 -53.289091867055276 $546 53.289091867055276 $449 $634 forward 7 unknown #
point $-1 -79.287087618640697 -53.289091867055276 -25.939055407940049 #
vertex $-1 $465 $635 #
vertex $-1 $548 $636 #
straight-curve $-1 -79.287087618640697 53.289091867055276 0 0 0 -1 I I #
edge $-1 $546 -79.287087618640697 $454 79.287087618640697 $461 $637 forward 7 unknown #
point $-1 79.287087618640697 53.289091867055276 -25.939055407940049 #
straight-curve $-1 -79.287087618640697 0 25.939055407940049 0 -1 0 I I #
straight-curve $-1 0 53.289091867055276 25.939055407940049 -1 0 0 I I #
face $-1 $503 $576 $17 $-1 $638 reversed single #
coedge $-1 $639 $573 $472 $559 forward $468 $-1 #
coedge $-1 $566 $470 $471 $558 reversed $390 $-1 #
coedge $-1 $501 $640 $470 $556 reversed $411 $-1 #
edge $-1 $567 -6.2831774858351697 $641 6.2831774858351697 $555 $642 forward 7 unknown #
coedge $-1 $472 $471 $640 $643 forward $317 $-1 #
edge $-1 $561 -79.287087618640697 $641 79.287087618640697 $554 $644 forward 7 unknown #
edge $-1 $560 -79.287087618640697 $645 79.287087618640697 $553 $646 forward 7 unknown #
vertex $-1 $574 $647 #
vertex $-1 $569 $648 #
straight-curve $-1 79.287087618640697 -65.245819269230253 -8.0101977360179699 0 -1 0 I I #
edge $-1 $564 -11.956727402174977 $567 11.956727402174977 $501 $649 forward 7 unknown #
vertex $-1 $502 $650 #
straight-curve $-1 0 -53.289091867055276 4.5561572356523694 1 0 0 I I #
coedge $-1 $478 $554 $480 $569 reversed $390 $-1 #
vertex $-1 $563 $651 #
straight-curve $-1 0 -77.20254667140523 4.5561572356523694 1 0 0 I I #
edge $-1 $481 -6.2831774858351697 $561 6.2831774858351697 $480 $652 forward 7 unknown #
point $-1 79.287087618640697 -77.20254667140523 4.5561572356523694 #
point $-1 79.287087618640697 -53.289091867055276 4.5561572356523694 #
straight-curve $-1 79.287087618640697 -53.289091867055276 0 0 0 -1 I I #
coedge $-1 $553 $653 $490 $574 reversed $468 $-1 #
edge $-1 $560 8.0101977360179699 $577 25.939055407940049 $490 $572 forward 7 unknown #
coedge $-1 $580 $491 $653 $654 forward $576 $-1 #
loop $-1 $-1 $491 $552 #
vertex $-1 $574 $655 #
straight-curve $-1 79.287087618640697 0 -25.939055407940049 0 -1 0 I I #
point $-1 79.287087618640697 53.289091867055276 -25.939055407940049 #
coedge $-1 $496 $575 $498 $583 forward $576 $-1 #
straight-curve $-1 0 53.289091867055276 -25.939055407940049 1 0 0 I I #
coedge $-1 $640 $498 $639 $656 reversed $411 $-1 #
edge $-1 $657 -53.289091867055276 $499 53.289091867055276 $498 $658 forward 7 unknown #
point $-1 -79.287087618640697 53.289091867055276 -25.939055407940049 #
straight-curve $-1 -79.287087618640697 -53.289091867055276 0 0 0 -1 I I #
plane-surface $-1 -79.287087618640697 0 0 1 0 0 0 0 -1 forward_v I I I I #
face $-1 $659 $660 $18 $-1 $661 reversed single #
loop $-1 $-1 $662 $505 #
plane-surface $-1 0 -77.20254667140523 -1.7270202501828003 0 1 0 0 0 1 forward_v I I I I #
coedge $-1 $663 $664 $665 $666 forward $506 $-1 #
coedge $-1 $667 $508 $668 $669 reversed $416 $-1 #
coedge $-1 $508 $667 $670 $671 forward $416 $-1 #
coedge $-1 $672 $597 $508 $594 reversed $598 $-1 #
edge $-1 $673 -11.956727402174977 $674 11.956727402174977 $593 $675 forward 7 unknown #
coedge $-1 $676 $677 $509 $596 reversed $678 $-1 #
edge $-1 $612 -79.287087618640697 $599 79.287087618640697 $595 $679 forward 7 unknown #
coedge $-1 $593 $510 $677 $680 forward $598 $-1 #
loop $-1 $-1 $514 $681 #
vertex $-1 $511 $682 #
straight-curve $-1 79.287087618640697 0 25.939055407940049 0 1 0 I I #
point $-1 79.287087618640697 39.391880938945185 25.939055407940046 #
coedge $-1 $514 $683 $518 $607 reversed $598 $-1 #
vertex $-1 $607 $684 #
straight-curve $-1 79.287087618640697 17.398854355945748 59.805347580984375 0 -0.54463902268945019 0.83867057594974714 I I #
straight-curve $-1 31.802066088096311 53.289091867055276 4.5392265164672452 1 0 0 I I #
coedge $-1 $519 $518 $685 $686 reversed $337 $-1 #
edge $-1 $603 -4.5392265164672381 $687 25.939055407940049 $602 $688 forward 7 unknown #
coedge $-1 $689 $520 $519 $609 forward $611 $-1 #
edge $-1 $522 -25.939055407940049 $690 25.939055407940049 $519 $691 forward 7 unknown #
coedge $-1 $520 $692 $676 $693 reversed $611 $-1 #
loop $-1 $-1 $608 $694 #
vertex $-1 $521 $695 #
straight-curve $-1 -79.287087618640697 0 25.939055407940049 0 -1 0 I I #
point $-1 -79.287087618640697 53.289091867055276 25.939055407940049 #
face $-1 $696 $697 $19 $-1 $698 reversed single #
loop $-1 $-1 $699 $524 #
plane-surface $-1 0 -65.245819269230253 4.5561572356523694 0 0 1 1 0 0 forward_v I I I I #
coedge $-1 $527 $700 $701 $702 forward $433 $-1 #
coedge $-1 $528 $538 $622 $703 reversed $360 $-1 #
vertex $-1 $703 $704 #
straight-curve $-1 47.921176733744552 -4.7575459619073683 93.923213252431736 0 0.54463902268945019 -0.83867057594974714 I I #
coedge $-1 $705 $530 $619 $703 forward $525 $-1 #
coedge $-1 $530 $706 $532 $626 reversed $525 $-1 #
straight-curve $-1 47.921176733744552 53.289091867055276 90.144448538725143 0 0 -1 I I #
coedge $-1 $700 $532 $707 $708 forward $433 $-1 #
edge $-1 $534 -47.921176733744552 $709 79.287087618640697 $623 $710 forward 7 unknown #
point $-1 47.921176733744552 39.391880938945185 25.939055407940046 #
point $-1 47.921176733744552 53.289091867055276 25.939055407940049 #
point $-1 56.882865558000589 42.669821323988764 12.855383264505557 #
coedge $-1 $701 $711 $538 $631 forward $712 $-1 #
edge $-1 $713 -65.897293465829975 $632 -40.380923266197414 $630 $714 forward 7 unknown #
vertex $-1 $631 $715 #
straight-curve $-1 31.802066088096311 39.391880938945192 25.939055407940046 -1 0 0 I I #
straight-curve $-1 -79.287087618640697 0 -25.939055407940049 0 1 0 I I #
point $-1 -79.287087618640697 53.289091867055276 25.939055407940049 #
point $-1 -79.287087618640697 53.289091867055276 -25.939055407940049 #
straight-curve $-1 0 53.289091867055276 -25.939055407940049 1 0 0 I I #
plane-surface $-1 0 0 -25.939055407940049 0 0 1 1 0 0 forward_v I I I I #
coedge $-1 $653 $553 $582 $656 forward $468 $-1 #
coedge $-1 $555 $582 $557 $643 reversed $411 $-1 #
vertex $-1 $643 $716 #
straight-curve $-1 -79.287087618640697 -77.20254667140523 -1.7270202501828003 0 0 -1 I I #
edge $-1 $641 -11.956727402174977 $645 11.956727402174977 $640 $717 forward 7 unknown #
straight-curve $-1 0 -77.20254667140523 -8.0101977360179699 -1 0 0 I I #
vertex $-1 $656 $718 #
straight-curve $-1 0 -53.289091867055276 -8.0101977360179699 -1 0 0 I I #
point $-1 79.287087618640697 -53.289091867055276 -8.0101977360179699 #
point $-1 79.287087618640697 -77.20254667140523 -8.0101977360179699 #
straight-curve $-1 -79.287087618640697 -65.245819269230253 4.5561572356523694 0 -1 0 I I #
point $-1 -79.287087618640697 -53.289091867055276 4.5561572356523694 #
point $-1 -79.287087618640697 -77.20254667140523 4.5561572356523694 #
straight-curve $-1 79.287087618640697 -77.20254667140523 -1.7270202501828003 0 0 -1 I I #
coedge $-1 $573 $639 $575 $654 reversed $468 $-1 #
edge $-1 $577 -79.287087618640697 $657 79.287087618640697 $653 $719 forward 7 unknown #
point $-1 79.287087618640697 -53.289091867055276 -25.939055407940049 #
edge $-1 $645 8.0101977360179699 $657 25.939055407940049 $582 $585 forward 7 unknown #
vertex $-1 $583 $720 #
straight-curve $-1 -79.287087618640697 0 -25.939055407940049 0 1 0 I I #
face $-1 $721 $678 $18 $-1 $661 reversed single #
loop $-1 $-1 $722 $587 #
plane-surface $-1 0 -53.289091867055276 0 0 1 0 0 0 1 forward_v I I I I #
coedge $-1 $723 $670 $724 $725 forward $588 $-1 #
coedge $-1 $726 $590 $723 $727 forward $506 $-1 #
coedge $-1 $590 $726 $722 $728 reversed $506 $-1 #
coedge $-1 $729 $672 $590 $666 reversed $598 $-1 #
edge $-1 $730 -11.956727402174977 $731 11.956727402174977 $665 $732 forward 7 unknown #
coedge $-1 $592 $591 $692 $733 forward $416 $-1 #
coedge $-1 $677 $676 $591 $669 forward $678 $-1 #
edge $-1 $734 -79.287087618640697 $674 79.287087618640697 $668 $735 forward 7 unknown #
coedge $-1 $662 $736 $592 $671 reversed $588 $-1 #
edge $-1 $737 -79.287087618640697 $673 79.287087618640697 $670 $738 forward 7 unknown #
coedge $-1 $665 $593 $736 $739 forward $598 $-1 #
vertex $-1 $594 $740 #
vertex $-1 $594 $741 #
straight-curve $-1 79.287087618640697 -65.245819269230253 4.5561572356523694 0 1 0 I I #
coedge $-1 $668 $595 $610 $693 forward $678 $-1 #
coedge $-1 $595 $668 $597 $680 reversed $678 $-1 #
loop $-1 $-1 $668 $659 #
straight-curve $-1 0 -53.289091867055276 25.939055407940049 1 0 0 I I #
edge $-1 $599 -25.939055407940049 $674 -4.5561572356523694 $597 $742 forward 7 unknown #
face $-1 $-1 $598 $18 $-1 $743 reversed single #
point $-1 79.287087618640697 -53.289091867055276 25.939055407940049 #
coedge $-1 $602 $729 $744 $745 reversed $598 $-1 #
point $-1 79.287087618640697 53.289091867055276 4.5392265164672381 #
coedge $-1 $744 $746 $606 $686 forward $747 $-1 #
edge $-1 $690 -79.287087618640697 $687 79.287087618640697 $606 $748 forward 7 unknown #
vertex $-1 $745 $749 #
straight-curve $-1 79.287087618640697 53.289091867055276 0 0 0 -1 I I #
coedge $-1 $750 $608 $746 $751 reversed $611 $-1 #
vertex $-1 $686 $752 #
straight-curve $-1 -79.287087618640697 53.289091867055276 0 0 0 -1 I I #
coedge $-1 $610 $724 $667 $733 reversed $611 $-1 #
edge $-1 $612 -25.939055407940049 $734 -4.5561572356523694 $610 $753 forward 7 unknown #
face $-1 $681 $611 $18 $-1 $754 reversed single #
point $-1 -79.287087618640697 -53.289091867055276 25.939055407940049 #
face $-1 $755 $756 $19 $-1 $757 reversed single #
loop $-1 $-1 $758 $615 #
plane-surface $-1 0 -65.245819269230253 -8.0101977360179699 0 0 1 1 0 0 forward_v I I I I #
coedge $-1 $759 $760 $761 $762 forward $616 $-1 #
coedge $-1 $618 $625 $763 $764 forward $433 $-1 #
coedge $-1 $765 $630 $618 $702 reversed $712 $-1 #
edge $-1 $766 -53.289091867055276 $632 39.391880938945185 $701 $767 forward 7 unknown #
edge $-1 $620 16.119110645648242 $713 47.485021530544387 $622 $768 forward 7 unknown #
point $-1 47.921176733744552 53.289091867055276 4.5392265164672381 #
coedge $-1 $769 $622 $711 $770 forward $525 $-1 #
coedge $-1 $623 $769 $771 $772 reversed $525 $-1 #
coedge $-1 $771 $773 $625 $708 reversed $774 $-1 #
edge $-1 $709 -53.289091867055276 $775 53.289091867055276 $707 $776 forward 7 unknown #
vertex $-1 $626 $777 #
straight-curve $-1 0 53.289091867055276 25.939055407940049 -1 0 0 I I #
coedge $-1 $630 $778 $705 $770 reversed $712 $-1 #
loop $-1 $-1 $630 $779 #
vertex $-1 $770 $780 #
straight-curve $-1 79.287087618640697 17.398854355945748 59.805347580984375 0 -0.54463902268945019 0.83867057594974714 I I #
point $-1 79.287087618640697 39.391880938945185 25.939055407940046 #
point $-1 -79.287087618640697 -77.20254667140523 -8.0101977360179699 #
straight-curve $-1 -79.287087618640697 -65.245819269230253 -8.0101977360179699 0 1 0 I I #
point $-1 -79.287087618640697 -53.289091867055276 -8.0101977360179699 #
straight-curve $-1 0 -53.289091867055276 -25.939055407940049 -1 0 0 I I #
point $-1 -79.287087618640697 -53.289091867055276 -25.939055407940049 #
face $-1 $694 $747 $18 $-1 $781 reversed single #
coedge $-1 $782 $783 $664 $728 forward $660 $-1 #
coedge $-1 $736 $662 $663 $727 reversed $588 $-1 #
coedge $-1 $692 $784 $662 $725 reversed $611 $-1 #
edge $-1 $737 -6.2831774858351697 $785 6.2831774858351697 $724 $786 forward 7 unknown #
coedge $-1 $664 $663 $784 $787 forward $506 $-1 #
edge $-1 $731 -79.287087618640697 $785 79.287087618640697 $723 $788 forward 7 unknown #
edge $-1 $730 -79.287087618640697 $789 79.287087618640697 $722 $790 forward 7 unknown #
coedge $-1 $683 $665 $783 $791 forward $598 $-1 #
vertex $-1 $791 $792 #
vertex $-1 $739 $793 #
straight-curve $-1 79.287087618640697 -65.245819269230253 -8.0101977360179699 0 -1 0 I I #
edge $-1 $734 -11.956727402174977 $737 11.956727402174977 $692 $794 forward 7 unknown #
vertex $-1 $693 $795 #
straight-curve $-1 0 -53.289091867055276 4.5561572356523694 1 0 0 I I #
coedge $-1 $670 $723 $672 $739 reversed $588 $-1 #
vertex $-1 $733 $796 #
straight-curve $-1 0 -77.20254667140523 4.5561572356523694 1 0 0 I I #
edge $-1 $673 -6.2831774858351697 $731 6.2831774858351697 $672 $797 forward 7 unknown #
point $-1 79.287087618640697 -77.20254667140523 4.5561572356523694 #
point $-1 79.287087618640697 -53.289091867055276 4.5561572356523694 #
straight-curve $-1 79.287087618640697 -53.289091867055276 0 0 0 -1 I I #
plane-surface $-1 79.287087618640697 0 0 -1 0 0 0 0 1 forward_v I I I I #
coedge $-1 $798 $685 $683 $745 forward $747 $-1 #
edge $-1 $687 -53.289091867055276 $799 53.289091867055276 $683 $800 forward 7 unknown #
coedge $-1 $685 $798 $689 $751 forward $747 $-1 #
loop $-1 $-1 $744 $721 #
straight-curve $-1 0 53.289091867055276 -25.939055407940049 1 0 0 I I #
point $-1 79.287087618640697 53.289091867055276 -25.939055407940049 #
coedge $-1 $784 $689 $782 $801 reversed $611 $-1 #
edge $-1 $802 -53.289091867055276 $690 53.289091867055276 $689 $803 forward 7 unknown #
point $-1 -79.287087618640697 53.289091867055276 -25.939055407940049 #
straight-curve $-1 -79.287087618640697 -53.289091867055276 0 0 0 -1 I I #
plane-surface $-1 -79.287087618640697 0 0 1 0 0 0 0 -1 forward_v I I I I #
face $-1 $804 $805 $19 $-1 $806 reversed single #
loop $-1 $-1 $807 $696 #
plane-surface $-1 0 -77.20254667140523 -1.7270202501828003 0 1 0 0 0 1 forward_v I I I I #
coedge $-1 $808 $809 $810 $811 forward $697 $-1 #
coedge $-1 $812 $699 $813 $814 reversed $616 $-1 #
coedge $-1 $699 $812 $815 $816 forward $616 $-1 #
coedge $-1 $817 $765 $699 $762 reversed $712 $-1 #
edge $-1 $818 -11.956727402174977 $819 11.956727402174977 $761 $820 forward 7 unknown #
coedge $-1 $821 $822 $700 $764 reversed $823 $-1 #
edge $-1 $775 -79.287087618640697 $766 79.287087618640697 $763 $824 forward 7 unknown #
coedge $-1 $761 $701 $822 $825 forward $712 $-1 #
vertex $-1 $702 $826 #
straight-curve $-1 79.287087618640697 0 25.939055407940049 0 1 0 I I #
straight-curve $-1 31.802066088096311 53.289091867055276 4.5392265164672452 1 0 0 I I #
coedge $-1 $706 $705 $827 $828 reversed $525 $-1 #
edge $-1 $713 -4.5392265164672381 $829 25.939055407940049 $711 $830 forward 7 unknown #
coedge $-1 $831 $707 $706 $772 forward $774 $-1 #
edge $-1 $709 -25.939055407940049 $832 25.939055407940049 $706 $833 forward 7 unknown #
coedge $-1 $707 $834 $821 $835 reversed $774 $-1 #
loop $-1 $-1 $771 $836 #
vertex $-1 $708 $837 #
straight-curve $-1 -79.287087618640697 0 25.939055407940049 0 -1 0 I I #
point $-1 -79.287087618640697 53.289091867055276 25.939055407940049 #
coedge $-1 $711 $838 $839 $840 reversed $712 $-1 #
face $-1 $-1 $712 $19 $-1 $841 reversed single #
point $-1 79.287087618640697 53.289091867055276 4.5392265164672381 #
plane-surface $-1 0 0 -25.939055407940049 0 0 1 1 0 0 forward_v I I I I #
coedge $-1 $842 $722 $750 $801 forward $660 $-1 #
coedge $-1 $722 $842 $729 $791 reversed $660 $-1 #
coedge $-1 $724 $750 $726 $787 reversed $611 $-1 #
vertex $-1 $787 $843 #
straight-curve $-1 -79.287087618640697 -77.20254667140523 -1.7270202501828003 0 0 -1 I I #
edge $-1 $785 -11.956727402174977 $789 11.956727402174977 $784 $844 forward 7 unknown #
straight-curve $-1 0 -77.20254667140523 -8.0101977360179699 -1 0 0 I I #
vertex $-1 $801 $845 #
straight-curve $-1 0 -53.289091867055276 -8.0101977360179699 -1 0 0 I I #
edge $-1 $730 8.0101977360179699 $799 25.939055407940049 $729 $742 forward 7 unknown #
point $-1 79.287087618640697 -53.289091867055276 -8.0101977360179699 #
point $-1 79.287087618640697 -77.20254667140523 -8.0101977360179699 #
straight-curve $-1 -79.287087618640697 -65.245819269230253 4.5561572356523694 0 -1 0 I I #
point $-1 -79.287087618640697 -53.289091867055276 4.5561572356523694 #
point $-1 -79.287087618640697 -77.20254667140523 4.5561572356523694 #
straight-curve $-1 79.287087618640697 -77.20254667140523 -1.7270202501828003 0 0 -1 I I #
coedge $-1 $746 $744 $842 $846 forward $747 $-1 #
vertex $-1 $791 $847 #
straight-curve $-1 79.287087618640697 0 -25.939055407940049 0 -1 0 I I #
edge $-1 $789 8.0101977360179699 $802 25.939055407940049 $750 $753 forward 7 unknown #
vertex $-1 $751 $848 #
straight-curve $-1 -79.287087618640697 0 -25.939055407940049 0 1 0 I I #
face $-1 $849 $823 $19 $-1 $806 reversed single #
loop $-1 $-1 $850 $755 #
plane-surface $-1 0 -53.289091867055276 0 0 1 0 0 0 1 forward_v I I I I #
coedge $-1 $851 $815 $852 $853 forward $756 $-1 #
coedge $-1 $854 $758 $851 $855 forward $697 $-1 #
coedge $-1 $758 $854 $850 $856 reversed $697 $-1 #
coedge $-1 $838 $817 $758 $811 reversed $712 $-1 #
edge $-1 $857 -11.956727402174977 $858 11.956727402174977 $810 $859 forward 7 unknown #
coedge $-1 $760 $759 $834 $860 forward $616 $-1 #
coedge $-1 $822 $821 $759 $814 forward $823 $-1 #
edge $-1 $861 -79.287087618640697 $819 79.287087618640697 $813 $862 forward 7 unknown #
coedge $-1 $807 $863 $760 $816 reversed $756 $-1 #
edge $-1 $864 -79.287087618640697 $818 79.287087618640697 $815 $865 forward 7 unknown #
coedge $-1 $810 $761 $863 $866 forward $712 $-1 #
vertex $-1 $762 $867 #
vertex $-1 $762 $868 #
straight-curve $-1 79.287087618640697 -65.245819269230253 4.5561572356523694 0 1 0 I I #
coedge $-1 $813 $763 $773 $835 forward $823 $-1 #
coedge $-1 $763 $813 $765 $825 reversed $823 $-1 #
loop $-1 $-1 $813 $804 #
straight-curve $-1 0 -53.289091867055276 25.939055407940049 1 0 0 I I #
edge $-1 $766 -25.939055407940049 $819 -4.5561572356523694 $765 $869 forward 7 unknown #
point $-1 79.287087618640697 -53.289091867055276 25.939055407940049 #
coedge $-1 $839 $870 $769 $828 forward $871 $-1 #
edge $-1 $832 -79.287087618640697 $829 79.287087618640697 $769 $872 forward 7 unknown #
vertex $-1 $840 $873 #
straight-curve $-1 79.287087618640697 53.289091867055276 0 0 0 -1 I I #
coedge $-1 $874 $771 $870 $875 reversed $774 $-1 #
vertex $-1 $828 $876 #
straight-curve $-1 -79.287087618640697 53.289091867055276 0 0 0 -1 I I #
coedge $-1 $773 $852 $812 $860 reversed $774 $-1 #
edge $-1 $775 -25.939055407940049 $861 -4.5561572356523694 $773 $877 forward 7 unknown #
face $-1 $779 $774 $19 $-1 $878 reversed single #
point $-1 -79.287087618640697 -53.289091867055276 25.939055407940049 #
coedge $-1 $778 $810 $879 $880 forward $712 $-1 #
coedge $-1 $881 $827 $778 $840 forward $871 $-1 #
edge $-1 $829 -53.289091867055276 $882 53.289091867055276 $778 $883 forward 7 unknown #
plane-surface $-1 79.287087618640697 0 0 -1 0 0 0 0 1 forward_v I I I I #
coedge $-1 $783 $782 $798 $846 reversed $660 $-1 #
point $-1 -79.287087618640697 -77.20254667140523 -8.0101977360179699 #
straight-curve $-1 -79.287087618640697 -65.245819269230253 -8.0101977360179699 0 1 0 I I #
point $-1 -79.287087618640697 -53.289091867055276 -8.0101977360179699 #
edge $-1 $799 -79.287087618640697 $802 79.287087618640697 $842 $884 forward 7 unknown #
point $-1 79.287087618640697 -53.289091867055276 -25.939055407940049 #
point $-1 -79.287087618640697 -53.289091867055276 -25.939055407940049 #
face $-1 $836 $871 $19 $-1 $885 reversed single #
coedge $-1 $886 $879 $809 $856 forward $805 $-1 #
coedge $-1 $863 $807 $808 $855 reversed $756 $-1 #
coedge $-1 $834 $887 $807 $853 reversed $774 $-1 #
edge $-1 $864 -6.2831774858351697 $888 6.2831774858351697 $852 $889 forward 7 unknown #
coedge $-1 $809 $808 $887 $890 forward $697 $-1 #
edge $-1 $858 -79.287087618640697 $888 79.287087618640697 $851 $891 forward 7 unknown #
edge $-1 $857 -79.287087618640697 $892 79.287087618640697 $850 $893 forward 7 unknown #
vertex $-1 $880 $894 #
vertex $-1 $866 $895 #
straight-curve $-1 79.287087618640697 -65.245819269230253 -8.0101977360179699 0 -1 0 I I #
edge $-1 $861 -11.956727402174977 $864 11.956727402174977 $834 $896 forward 7 unknown #
vertex $-1 $835 $897 #
straight-curve $-1 0 -53.289091867055276 4.5561572356523694 1 0 0 I I #
coedge $-1 $815 $851 $817 $866 reversed $756 $-1 #
vertex $-1 $860 $898 #
straight-curve $-1 0 -77.20254667140523 4.5561572356523694 1 0 0 I I #
edge $-1 $818 -6.2831774858351697 $858 6.2831774858351697 $817 $899 forward 7 unknown #
point $-1 79.287087618640697 -77.20254667140523 4.5561572356523694 #
point $-1 79.287087618640697 -53.289091867055276 4.5561572356523694 #
straight-curve $-1 79.287087618640697 -53.289091867055276 0 0 0 -1 I I #
coedge $-1 $827 $881 $831 $875 forward $871 $-1 #
loop $-1 $-1 $839 $849 #
straight-curve $-1 0 53.289091867055276 -25.939055407940049 1 0 0 I I #
point $-1 79.287087618640697 53.289091867055276 -25.939055407940049 #
coedge $-1 $887 $831 $886 $900 reversed $774 $-1 #
edge $-1 $901 -53.289091867055276 $832 53.289091867055276 $831 $902 forward 7 unknown #
point $-1 -79.287087618640697 53.289091867055276 -25.939055407940049 #
straight-curve $-1 -79.287087618640697 -53.289091867055276 0 0 0 -1 I I #
plane-surface $-1 -79.287087618640697 0 0 1 0 0 0 0 -1 forward_v I I I I #
coedge $-1 $850 $903 $838 $880 reversed $805 $-1 #
edge $-1 $857 8.0101977360179699 $882 25.939055407940049 $838 $869 forward 7 unknown #
coedge $-1 $870 $839 $903 $904 forward $871 $-1 #
vertex $-1 $880 $905 #
straight-curve $-1 79.287087618640697 0 -25.939055407940049 0 -1 0 I I #
straight-curve $-1 0 -53.289091867055276 -25.939055407940049 -1 0 0 I I #
plane-surface $-1 0 0 -25.939055407940049 0 0 1 1 0 0 forward_v I I I I #
coedge $-1 $903 $850 $874 $900 forward $805 $-1 #
coedge $-1 $852 $874 $854 $890 reversed $774 $-1 #
vertex $-1 $890 $906 #
straight-curve $-1 -79.287087618640697 -77.20254667140523 -1.7270202501828003 0 0 -1 I I #
edge $-1 $888 -11.956727402174977 $892 11.956727402174977 $887 $907 forward 7 unknown #
straight-curve $-1 0 -77.20254667140523 -8.0101977360179699 -1 0 0 I I #
vertex $-1 $900 $908 #
straight-curve $-1 0 -53.289091867055276 -8.0101977360179699 -1 0 0 I I #
point $-1 79.287087618640697 -53.289091867055276 -8.0101977360179699 #
point $-1 79.287087618640697 -77.20254667140523 -8.0101977360179699 #
straight-curve $-1 -79.287087618640697 -65.245819269230253 4.5561572356523694 0 -1 0 I I #
point $-1 -79.287087618640697 -53.289091867055276 4.5561572356523694 #
point $-1 -79.287087618640697 -77.20254667140523 4.5561572356523694 #
straight-curve $-1 79.287087618640697 -77.20254667140523 -1.7270202501828003 0 0 -1 I I #
edge $-1 $892 8.0101977360179699 $901 25.939055407940049 $874 $877 forward 7 unknown #
vertex $-1 $875 $909 #
straight-curve $-1 -79.287087618640697 0 -25.939055407940049 0 1 0 I I #
coedge $-1 $879 $886 $881 $904 reversed $805 $-1 #
edge $-1 $882 -79.287087618640697 $901 79.287087618640697 $903 $910 forward 7 unknown #
point $-1 79.287087618640697 -53.289091867055276 -25.939055407940049 #
point $-1 -79.287087618640697 -77.20254667140523 -8.0101977360179699 #
straight-curve $-1 -79.287087618640697 -65.245819269230253 -8.0101977360179699 0 1 0 I I #
point $-1 -79.287087618640697 -53.289091867055276 -8.0101977360179699 #
point $-1 -79.287087618640697 -53.289091867055276 -25.939055407940049 #
straight-curve $-1 0 -53.289091867055276 -25.939055407940049 -1 0 0 I I #
End-of-ACIS-data 