500 0 5 0           
7 Unknown 11 ACIS 5.0 NT 24 Thu Mar 25 17:07:20 1999 
-1 9.9999999999999995e-007 1e-010 
body $-1 $5 $-1 $6 #
body $-1 $7 $-1 $8 #
body $-1 $9 $-1 $10 #
body $-1 $11 $-1 $12 #
body $-1 $13 $-1 $14 #
lump $-1 $-1 $15 $0 #
transform $-1 1 0 0 0 1 0 0 0 1 68.206427198095639 33.755801486270876 8.789674045263844 1 rotate no_reflect no_shear #
lump $-1 $-1 $16 $1 #
transform $-1 1 0 0 0 1 0 0 0 1 68.206427198095639 33.755801486270876 8.789674045263844 1 rotate no_reflect no_shear #
lump $-1 $-1 $17 $2 #
transform $-1 1 0 0 0 1 0 0 0 1 68.206427198095639 33.755801486270876 8.789674045263844 1 rotate no_reflect no_shear #
lump $-1 $-1 $18 $3 #
transform $-1 1 0 0 0 1 0 0 0 1 68.206427198095639 33.755801486270876 8.789674045263844 1 rotate no_reflect no_shear #
lump $-1 $-1 $19 $4 #
transform $-1 1 0 0 0 1 0 0 0 1 68.206427198095639 33.755801486270876 8.789674045263844 1 rotate no_reflect no_shear #
shell $-1 $-1 $-1 $20 $-1 $5 #
shell $-1 $-1 $-1 $21 $-1 $7 #
shell $-1 $-1 $-1 $22 $-1 $9 #
shell $-1 $-1 $-1 $23 $-1 $11 #
shell $-1 $-1 $-1 $24 $-1 $13 #
face $-1 $25 $26 $15 $-1 $27 forward single #
face $-1 $28 $29 $16 $-1 $30 reversed single #
face $-1 $31 $32 $17 $-1 $33 reversed single #
face $-1 $34 $35 $18 $-1 $36 forward single #
face $-1 $37 $38 $19 $-1 $39 reversed single #
face $-1 $40 $41 $15 $-1 $42 reversed single #
loop $-1 $-1 $43 $20 #
plane-surface $-1 0 0 8.789674045263844 0 0 1 1 0 0 forward_v I I I I #
face $-1 $44 $45 $16 $-1 $46 forward single #
loop $-1 $-1 $47 $21 #
plane-surface $-1 -65.305303632612294 0 -5.1499276159121479 0 0 1 1 0 0 forward_v I I I I #
face $-1 $48 $49 $17 $-1 $50 forward single #
loop $-1 $-1 $51 $22 #
plane-surface $-1 65.305303632612294 0 -5.1499276159121479 0 0 1 1 0 0 forward_v I I I I #
face $-1 $52 $53 $18 $-1 $54 forward single #
loop $-1 $-1 $55 $23 #
plane-surface $-1 44.14191146728438 54.067247481502882 155.84837466645951 -1 0 0 0 0.55919291073839883 0.82903756765294845 forward_v I I I I #
face $-1 $56 $57 $19 $-1 $58 reversed single #
loop $-1 $59 $60 $24 #
cone-surface $-1 31.31503097257567 29.89576727417203 5.3339427888431965 0 -0.55919291073839883 -0.82903756765294845 1 0 0 1 I I 0 1 1 forward I I I I #
face $-1 $61 $62 $15 $-1 $63 reversed single #
loop $-1 $-1 $64 $25 #
plane-surface $-1 0 0 -8.789674045263844 0 0 1 1 0 0 forward_v I I I I #
coedge $-1 $65 $66 $67 $68 forward $26 $-1 #
face $-1 $69 $70 $16 $-1 $71 reversed single #
loop $-1 $-1 $72 $28 #
plane-surface $-1 -62.404180067128955 0 -6.9698008305879959 -1 0 0 0 0 1 forward_v I I I I #
coedge $-1 $73 $74 $75 $76 reversed $29 $-1 #
face $-1 $77 $78 $17 $-1 $79 reversed single #
loop $-1 $-1 $80 $31 #
plane-surface $-1 62.404180067128948 0 -6.9698008305879959 1 0 0 0 0 -1 forward_v I I I I #
coedge $-1 $81 $82 $83 $84 reversed $32 $-1 #
face $-1 $85 $86 $18 $-1 $87 forward single #
loop $-1 $-1 $88 $34 #
plane-surface $-1 31.31503097257567 -22.213853630436709 42.756993661245275 0 0.55919291073839883 0.82903756765294845 1 0 0 forward_v I I I I #
coedge $-1 $89 $90 $91 $92 reversed $35 $-1 #
face $-1 $93 $94 $19 $-1 $95 forward single #
loop $-1 $96 $97 $37 #
cone-surface $-1 31.31503097257567 28.561653507364746 3.3560378280207459 0 -0.55919291073839883 -0.82903756765294845 0.5 0 0 1 I I -0.70710678118654746 0.70710678118654746 0.5 forward I I I I #
loop $-1 $-1 $98 $24 #
coedge $-1 $60 $60 $99 $100 reversed $38 $-1 #
face $-1 $101 $102 $15 $-1 $103 reversed single #
loop $-1 $-1 $104 $40 #
plane-surface $-1 0 -33.755801486270876 0 0 1 0 0 0 1 forward_v I I I I #
coedge $-1 $105 $106 $107 $108 forward $41 $-1 #
coedge $-1 $109 $43 $110 $111 forward $26 $-1 #
coedge $-1 $43 $109 $112 $113 forward $26 $-1 #
coedge $-1 $114 $115 $43 $68 reversed $116 $-1 #
edge $-1 $117 -33.755801486270876 $118 33.755801486270876 $67 $119 forward 7 unknown #
face $-1 $120 $121 $16 $-1 $122 reversed single #
loop $-1 $-1 $123 $44 #
plane-surface $-1 -68.206427198095639 0 0 1 0 0 0 0 -1 forward_v I I I I #
coedge $-1 $75 $124 $125 $126 reversed $45 $-1 #
coedge $-1 $127 $47 $128 $129 reversed $29 $-1 #
coedge $-1 $47 $127 $130 $131 reversed $29 $-1 #
coedge $-1 $132 $72 $47 $76 forward $45 $-1 #
edge $-1 $133 -33.755801486270876 $134 33.755801486270876 $75 $135 forward 7 unknown #
face $-1 $136 $137 $17 $-1 $138 reversed single #
loop $-1 $-1 $83 $48 #
plane-surface $-1 68.206427198095639 0 0 -1 0 0 0 0 1 forward_v I I I I #
coedge $-1 $139 $140 $141 $142 reversed $49 $-1 #
coedge $-1 $143 $51 $144 $145 reversed $32 $-1 #
coedge $-1 $51 $143 $146 $147 reversed $32 $-1 #
coedge $-1 $148 $149 $51 $84 forward $78 $-1 #
edge $-1 $150 -33.755801486270876 $151 33.755801486270876 $83 $152 forward 7 unknown #
face $-1 $153 $154 $18 $-1 $155 reversed single #
loop $-1 $-1 $156 $52 #
plane-surface $-1 18.488150477866959 54.067247481502882 155.84837466645951 1 0 0 0 -0.55919291073839883 -0.82903756765294845 forward_v I I I I #
coedge $-1 $157 $158 $159 $160 reversed $53 $-1 #
coedge $-1 $90 $55 $158 $161 forward $35 $-1 #
coedge $-1 $55 $89 $162 $163 reversed $35 $-1 #
coedge $-1 $164 $159 $55 $92 forward $154 $-1 #
edge $-1 $165 -72.919203446815246 $166 -69.134513287965916 $91 $167 forward 7 unknown #
face $-1 $168 $169 $19 $-1 $170 forward single #
loop $-1 $-1 $171 $56 #
plane-surface $-1 44.14191146728438 54.067247481502882 155.84837466645951 -1 0 0 0 0.55919291073839883 0.82903756765294845 forward_v I I I I #
loop $-1 $-1 $172 $37 #
coedge $-1 $97 $97 $98 $173 forward $57 $-1 #
coedge $-1 $98 $98 $97 $173 reversed $59 $-1 #
coedge $-1 $99 $99 $60 $100 forward $169 $-1 #
edge $-1 $174 -6.9290695525480548e-017 $174 6.2831853071796004 $99 $175 forward 7 unknown #
face $-1 $176 $177 $15 $-1 $178 reversed single #
loop $-1 $-1 $179 $61 #
plane-surface $-1 -68.206427198095639 0 0 1 0 0 0 0 -1 forward_v I I I I #
coedge $-1 $180 $112 $181 $182 forward $62 $-1 #
coedge $-1 $183 $64 $180 $184 forward $41 $-1 #
coedge $-1 $64 $183 $185 $186 forward $41 $-1 #
coedge $-1 $115 $114 $64 $108 reversed $116 $-1 #
edge $-1 $187 -33.755801486270876 $188 33.755801486270876 $107 $189 forward 7 unknown #
coedge $-1 $66 $65 $190 $191 forward $26 $-1 #
coedge $-1 $192 $193 $65 $111 reversed $177 $-1 #
edge $-1 $118 -68.206427198095639 $194 68.206427198095639 $110 $195 forward 7 unknown #
coedge $-1 $104 $196 $66 $113 reversed $62 $-1 #
edge $-1 $197 -68.206427198095639 $117 68.206427198095639 $112 $198 forward 7 unknown #
coedge $-1 $107 $67 $196 $199 forward $116 $-1 #
coedge $-1 $67 $107 $192 $200 reversed $116 $-1 #
loop $-1 $-1 $114 $176 #
vertex $-1 $68 $201 #
vertex $-1 $68 $202 #
straight-curve $-1 68.206427198095639 0 8.789674045263844 0 1 0 I I #
face $-1 $203 $204 $16 $-1 $205 forward single #
loop $-1 $-1 $128 $69 #
plane-surface $-1 0 -33.755801486270876 0 0 1 0 0 0 1 forward_v I I I I #
coedge $-1 $206 $207 $127 $208 forward $70 $-1 #
coedge $-1 $72 $132 $209 $210 reversed $45 $-1 #
coedge $-1 $211 $128 $72 $126 forward $121 $-1 #
edge $-1 $133 1.6650272006181499 $212 5.304773629969846 $125 $213 forward 7 unknown #
coedge $-1 $74 $73 $123 $208 reversed $29 $-1 #
coedge $-1 $125 $214 $73 $129 forward $121 $-1 #
edge $-1 $215 -35.553775381789492 $133 -29.751528250822808 $128 $216 forward 7 unknown #
coedge $-1 $217 $218 $74 $131 forward $219 $-1 #
edge $-1 $134 29.751528250822808 $220 35.553775381789492 $130 $221 forward 7 unknown #
coedge $-1 $124 $75 $218 $222 reversed $45 $-1 #
vertex $-1 $129 $223 #
vertex $-1 $131 $224 #
straight-curve $-1 -62.404180067128955 0 -5.1499276159121479 0 1 0 I I #
face $-1 $225 $226 $17 $-1 $227 reversed single #
loop $-1 $-1 $146 $77 #
plane-surface $-1 0 33.755801486270876 0 0 -1 0 0 0 -1 forward_v I I I I #
coedge $-1 $228 $80 $143 $229 forward $49 $-1 #
coedge $-1 $80 $228 $230 $231 reversed $49 $-1 #
coedge $-1 $232 $146 $80 $142 forward $137 $-1 #
edge $-1 $233 1.6650272006181499 $234 5.304773629969846 $141 $235 forward 7 unknown #
coedge $-1 $82 $81 $139 $229 reversed $32 $-1 #
coedge $-1 $236 $237 $81 $145 forward $238 $-1 #
edge $-1 $239 29.751528250822801 $150 35.553775381789492 $144 $240 forward 7 unknown #
coedge $-1 $141 $241 $82 $147 forward $137 $-1 #
edge $-1 $151 -35.553775381789492 $233 -29.751528250822801 $146 $242 forward 7 unknown #
coedge $-1 $243 $83 $241 $244 reversed $78 $-1 #
coedge $-1 $83 $243 $236 $245 forward $78 $-1 #
vertex $-1 $84 $246 #
vertex $-1 $147 $247 #
straight-curve $-1 68.206427198095639 0 -5.1499276159121479 0 1 0 I I #
face $-1 $248 $249 $18 $-1 $250 reversed single #
loop $-1 $-1 $251 $85 #
plane-surface $-1 0 33.755801486270876 0 0 -1 0 0 0 -1 forward_v I I I I #
coedge $-1 $252 $253 $251 $254 reversed $86 $-1 #
coedge $-1 $255 $88 $253 $256 reversed $53 $-1 #
coedge $-1 $88 $255 $89 $161 reversed $53 $-1 #
coedge $-1 $91 $251 $88 $160 forward $154 $-1 #
edge $-1 $257 2.8306349915791245 $165 28.484395980996545 $159 $258 forward 7 unknown #
edge $-1 $165 -67.511602972541766 $259 -60.743473251705787 $89 $260 forward 7 unknown #
coedge $-1 $261 $262 $90 $163 forward $263 $-1 #
edge $-1 $166 -6.7221777455194349 $259 -1.111143944197952 $162 $264 forward 7 unknown #
coedge $-1 $265 $91 $262 $266 reversed $154 $-1 #
vertex $-1 $160 $267 #
vertex $-1 $163 $268 #
straight-curve $-1 44.14191146728438 33.755801486270876 77.924187333229753 0 0 1 I I #
face $-1 $269 $270 $19 $-1 $271 forward single #
loop $-1 $272 $99 $93 #
plane-surface $-1 31.31503097257567 -22.213853630436709 42.756993661245275 0 0.55919291073839883 0.82903756765294845 1 0 0 forward_v I I I I #
coedge $-1 $273 $274 $275 $276 reversed $94 $-1 #
coedge $-1 $172 $172 $-1 $277 forward $96 $-1 #
edge $-1 $278 0 $278 6.2831853071796004 $97 $279 forward 7 unknown #
vertex $-1 $100 $280 #
ellipse-curve $-1 31.31503097257567 30.950284585610124 6.8973289658391845 0 -0.55919291073839883 -0.82903756765294845 1 0 0 1 I I #
face $-1 $-1 $116 $15 $-1 $281 reversed single #
loop $-1 $-1 $192 $101 #
plane-surface $-1 0 33.755801486270876 0 0 -1 0 0 0 -1 forward_v I I I I #
coedge $-1 $282 $190 $193 $283 forward $102 $-1 #
coedge $-1 $196 $104 $105 $184 reversed $62 $-1 #
coedge $-1 $190 $282 $104 $182 reversed $102 $-1 #
edge $-1 $197 -8.789674045263844 $284 8.789674045263844 $181 $285 forward 7 unknown #
coedge $-1 $106 $105 $282 $286 forward $41 $-1 #
edge $-1 $188 -68.206427198095639 $284 68.206427198095639 $180 $287 forward 7 unknown #
coedge $-1 $193 $192 $106 $186 reversed $177 $-1 #
edge $-1 $288 -68.206427198095639 $187 68.206427198095639 $185 $289 forward 7 unknown #
vertex $-1 $108 $290 #
vertex $-1 $199 $291 #
straight-curve $-1 68.206427198095639 0 -8.789674045263844 0 -1 0 I I #
coedge $-1 $179 $181 $109 $191 reversed $102 $-1 #
edge $-1 $194 -33.755801486270876 $197 33.755801486270876 $190 $292 forward 7 unknown #
coedge $-1 $185 $110 $115 $200 forward $177 $-1 #
coedge $-1 $110 $185 $179 $283 reversed $177 $-1 #
vertex $-1 $111 $293 #
straight-curve $-1 0 33.755801486270876 8.789674045263844 -1 0 0 I I #
coedge $-1 $112 $180 $114 $199 reversed $62 $-1 #
vertex $-1 $191 $294 #
straight-curve $-1 0 -33.755801486270876 8.789674045263844 1 0 0 I I #
edge $-1 $117 -8.789674045263844 $188 8.789674045263844 $114 $295 forward 7 unknown #
edge $-1 $118 -8.789674045263844 $187 8.789674045263844 $115 $296 forward 7 unknown #
point $-1 68.206427198095639 -33.755801486270876 8.789674045263844 #
point $-1 68.206427198095639 33.755801486270876 8.789674045263844 #
face $-1 $297 $298 $16 $-1 $299 reversed single #
loop $-1 $-1 $300 $120 #
plane-surface $-1 0 0 8.789674045263844 0 0 1 1 0 0 forward_v I I I I #
coedge $-1 $301 $123 $214 $302 reversed $70 $-1 #
coedge $-1 $123 $301 $217 $303 forward $70 $-1 #
edge $-1 $220 -33.755801486270876 $215 33.755801486270876 $123 $304 forward 7 unknown #
coedge $-1 $305 $306 $124 $210 forward $298 $-1 #
edge $-1 $212 -33.755801486270876 $307 33.755801486270876 $209 $308 forward 7 unknown #
coedge $-1 $309 $125 $306 $310 reversed $121 $-1 #
vertex $-1 $126 $311 #
straight-curve $-1 -62.404180067128955 -33.755801486270876 -3.484900415293998 0 0 -1 I I #
coedge $-1 $128 $312 $206 $302 forward $121 $-1 #
vertex $-1 $129 $313 #
straight-curve $-1 -32.652651816306147 -33.755801486270876 -5.1499276159121479 1 0 0 I I #
coedge $-1 $314 $130 $207 $303 reversed $219 $-1 #
coedge $-1 $130 $315 $132 $222 forward $219 $-1 #
loop $-1 $-1 $130 $297 #
vertex $-1 $208 $316 #
straight-curve $-1 -32.652651816306147 33.755801486270876 -5.1499276159121479 -1 0 0 I I #
edge $-1 $307 -5.304773629969846 $134 -1.6650272006181499 $218 $317 forward 7 unknown #
point $-1 -62.404180067128955 -33.755801486270876 -5.1499276159121479 #
point $-1 -62.404180067128955 33.755801486270876 -5.1499276159121479 #
face $-1 $318 $319 $17 $-1 $320 forward single #
loop $-1 $-1 $321 $136 #
plane-surface $-1 -65.305303632612294 0 -5.1499276159121479 0 0 1 1 0 0 forward_v I I I I #
coedge $-1 $140 $139 $237 $322 reversed $49 $-1 #
edge $-1 $233 -33.755801486270876 $239 33.755801486270876 $139 $323 forward 7 unknown #
coedge $-1 $324 $325 $140 $231 forward $326 $-1 #
edge $-1 $234 -33.755801486270876 $327 33.755801486270876 $230 $328 forward 7 unknown #
coedge $-1 $329 $141 $325 $330 reversed $137 $-1 #
vertex $-1 $147 $331 #
vertex $-1 $142 $332 #
straight-curve $-1 62.404180067128948 33.755801486270876 -3.484900415293998 0 0 -1 I I #
coedge $-1 $333 $144 $149 $245 reversed $238 $-1 #
coedge $-1 $144 $334 $228 $322 forward $238 $-1 #
loop $-1 $-1 $144 $335 #
vertex $-1 $145 $336 #
straight-curve $-1 32.652651816306147 -33.755801486270876 -5.1499276159121479 1 0 0 I I #
coedge $-1 $146 $337 $148 $244 forward $137 $-1 #
straight-curve $-1 32.652651816306147 33.755801486270876 -5.1499276159121479 -1 0 0 I I #
coedge $-1 $149 $148 $338 $339 reversed $78 $-1 #
edge $-1 $340 -8.789674045263844 $151 5.1499276159121479 $148 $341 forward 7 unknown #
edge $-1 $342 -8.789674045263844 $150 5.1499276159121479 $149 $343 forward 7 unknown #
point $-1 68.206427198095639 -33.755801486270876 -5.1499276159121479 #
point $-1 68.206427198095639 33.755801486270876 -5.1499276159121479 #
face $-1 $344 $345 $18 $-1 $346 forward single #
loop $-1 $-1 $347 $153 #
plane-surface $-1 65.305303632612294 0 -5.1499276159121479 0 0 1 1 0 0 forward_v I I I I #
coedge $-1 $159 $348 $156 $254 forward $154 $-1 #
coedge $-1 $253 $156 $349 $350 reversed $86 $-1 #
coedge $-1 $156 $252 $157 $256 forward $86 $-1 #
edge $-1 $351 69.134513287965916 $257 72.919203446815246 $251 $352 forward 7 unknown #
coedge $-1 $158 $157 $261 $353 reversed $53 $-1 #
edge $-1 $354 60.743473251705787 $257 67.511602972541766 $253 $355 forward 7 unknown #
vertex $-1 $160 $356 #
straight-curve $-1 15.657515486287835 33.755801486270876 5.0049838864145109 1 0 0 I I #
vertex $-1 $353 $357 #
straight-curve $-1 44.14191146728438 -22.213853630436709 42.756993661245275 0 -0.82903756765294845 0.55919291073839883 I I #
coedge $-1 $349 $162 $255 $353 forward $263 $-1 #
coedge $-1 $162 $358 $164 $266 forward $263 $-1 #
loop $-1 $-1 $349 $359 #
straight-curve $-1 44.14191146728438 27.033623740751441 8.7896740452638369 0 -1 0 I I #
coedge $-1 $360 $164 $361 $362 forward $154 $-1 #
edge $-1 $363 -68.206427198095639 $166 -44.14191146728438 $164 $364 forward 7 unknown #
point $-1 44.14191146728438 33.755801486270883 5.0049838864145073 #
point $-1 44.14191146728438 33.755801486270876 8.789674045263844 #
face $-1 $365 $366 $19 $-1 $367 reversed single #
loop $-1 $-1 $368 $168 #
plane-surface $-1 18.488150477866959 54.067247481502882 155.84837466645951 1 0 0 0 -0.55919291073839883 -0.82903756765294845 forward_v I I I I #
loop $-1 $-1 $369 $93 #
coedge $-1 $274 $171 $370 $371 forward $94 $-1 #
coedge $-1 $171 $273 $372 $373 reversed $94 $-1 #
coedge $-1 $374 $375 $171 $276 forward $366 $-1 #
edge $-1 $376 -72.919203446815246 $377 -69.134513287965916 $275 $378 forward 7 unknown #
edge $-1 $379 1 $379 0 $172 $-1 forward 7 unknown #
vertex $-1 $173 $380 #
ellipse-curve $-1 31.31503097257567 28.841249962733944 3.77055661184722 0 0.55919291073839883 0.82903756765294845 1 0 0 1 I I #
point $-1 32.31503097257567 30.950284585610117 6.8973289658391739 #
plane-surface $-1 68.206427198095639 0 0 -1 0 0 0 0 1 forward_v I I I I #
coedge $-1 $181 $179 $183 $286 reversed $102 $-1 #
edge $-1 $194 -8.789674045263844 $288 8.789674045263844 $193 $381 forward 7 unknown #
vertex $-1 $286 $382 #
straight-curve $-1 -68.206427198095639 -33.755801486270876 0 0 0 -1 I I #
edge $-1 $284 -33.755801486270876 $288 33.755801486270876 $282 $383 forward 7 unknown #
straight-curve $-1 0 -33.755801486270876 -8.789674045263844 -1 0 0 I I #
vertex $-1 $186 $384 #
straight-curve $-1 0 33.755801486270876 -8.789674045263844 1 0 0 I I #
point $-1 68.206427198095639 33.755801486270876 -8.789674045263844 #
point $-1 68.206427198095639 -33.755801486270876 -8.789674045263844 #
straight-curve $-1 -68.206427198095639 0 8.789674045263844 0 -1 0 I I #
point $-1 -68.206427198095639 33.755801486270876 8.789674045263844 #
point $-1 -68.206427198095639 -33.755801486270876 8.789674045263844 #
straight-curve $-1 68.206427198095639 -33.755801486270876 0 0 0 -1 I I #
straight-curve $-1 68.206427198095639 33.755801486270876 0 0 0 -1 I I #
face $-1 $385 $219 $16 $-1 $386 reversed single #
loop $-1 $-1 $209 $203 #
plane-surface $-1 0 0 -8.789674045263844 0 0 1 1 0 0 forward_v I I I I #
coedge $-1 $387 $388 $389 $390 forward $204 $-1 #
coedge $-1 $207 $206 $391 $392 reversed $70 $-1 #
edge $-1 $393 -8.789674045263844 $215 5.1499276159121479 $206 $394 forward 7 unknown #
edge $-1 $395 -8.789674045263844 $220 5.1499276159121479 $217 $396 forward 7 unknown #
straight-curve $-1 -68.206427198095639 0 -5.1499276159121479 0 -1 0 I I #
coedge $-1 $397 $209 $315 $398 forward $298 $-1 #
coedge $-1 $209 $397 $211 $310 forward $298 $-1 #
vertex $-1 $398 $399 #
straight-curve $-1 -62.404180067128955 0 -8.789674045263844 0 1 0 I I #
coedge $-1 $312 $211 $400 $401 reversed $121 $-1 #
edge $-1 $402 -68.206427198095639 $212 62.404180067128955 $211 $403 forward 7 unknown #
point $-1 -62.404180067128955 -33.755801486270876 -8.789674045263844 #
coedge $-1 $214 $309 $388 $404 reversed $121 $-1 #
point $-1 -68.206427198095639 -33.755801486270876 -5.1499276159121479 #
coedge $-1 $405 $217 $387 $406 reversed $219 $-1 #
coedge $-1 $218 $405 $305 $398 reversed $219 $-1 #
point $-1 -68.206427198095639 33.755801486270876 -5.1499276159121479 #
straight-curve $-1 -62.404180067128955 33.755801486270876 -3.484900415293998 0 0 1 I I #
face $-1 $335 $407 $17 $-1 $408 reversed single #
loop $-1 $-1 $409 $225 #
plane-surface $-1 -62.404180067128955 0 -6.9698008305879959 -1 0 0 0 0 1 forward_v I I I I #
coedge $-1 $410 $411 $412 $413 reversed $226 $-1 #
edge $-1 $327 -5.304773629969846 $239 -1.6650272006181499 $237 $414 forward 7 unknown #
straight-curve $-1 62.404180067128948 0 -5.1499276159121479 0 -1 0 I I #
coedge $-1 $415 $230 $334 $416 forward $326 $-1 #
coedge $-1 $230 $415 $232 $330 forward $326 $-1 #
loop $-1 $-1 $230 $417 #
vertex $-1 $416 $418 #
straight-curve $-1 62.404180067128948 0 -8.789674045263844 0 -1 0 I I #
coedge $-1 $419 $232 $420 $421 forward $137 $-1 #
edge $-1 $422 -62.404180067128955 $234 62.404180067128948 $232 $423 forward 7 unknown #
point $-1 62.404180067128948 33.755801486270876 -5.1499276159121479 #
point $-1 62.404180067128948 33.755801486270876 -8.789674045263844 #
coedge $-1 $424 $236 $425 $426 reversed $238 $-1 #
coedge $-1 $237 $427 $324 $416 reversed $238 $-1 #
face $-1 $428 $238 $17 $-1 $429 reversed single #
point $-1 62.404180067128948 -33.755801486270876 -5.1499276159121479 #
coedge $-1 $241 $430 $431 $432 reversed $137 $-1 #
coedge $-1 $431 $425 $243 $339 forward $433 $-1 #
edge $-1 $342 -33.755801486270876 $340 33.755801486270876 $243 $434 forward 7 unknown #
vertex $-1 $339 $435 #
straight-curve $-1 68.206427198095639 33.755801486270876 0 0 0 -1 I I #
vertex $-1 $339 $436 #
straight-curve $-1 68.206427198095639 -33.755801486270876 0 0 0 -1 I I #
face $-1 $437 $438 $18 $-1 $439 reversed single #
loop $-1 $-1 $440 $248 #
plane-surface $-1 62.404180067128948 0 -6.9698008305879959 1 0 0 0 0 -1 forward_v I I I I #
coedge $-1 $441 $442 $443 $444 reversed $249 $-1 #
coedge $-1 $251 $445 $446 $447 reversed $154 $-1 #
coedge $-1 $446 $261 $252 $350 forward $263 $-1 #
edge $-1 $354 1.111143944197952 $351 6.7221777455194349 $349 $448 forward 7 unknown #
vertex $-1 $447 $449 #
straight-curve $-1 18.488150477866959 33.755801486270876 77.924187333229753 0 0 -1 I I #
edge $-1 $259 -28.484395980996545 $354 -2.8306349915791245 $261 $450 forward 7 unknown #
vertex $-1 $353 $451 #
straight-curve $-1 18.488150477866959 -22.213853630436709 42.756993661245275 0 0.82903756765294845 -0.55919291073839883 I I #
point $-1 18.488150477866959 33.755801486270883 5.0049838864145073 #
point $-1 44.14191146728438 28.144767684949393 8.789674045263844 #
coedge $-1 $262 $452 $453 $454 forward $263 $-1 #
face $-1 $455 $263 $18 $-1 $456 forward single #
coedge $-1 $457 $265 $442 $458 forward $154 $-1 #
coedge $-1 $453 $443 $265 $362 reversed $438 $-1 #
edge $-1 $363 -8.789674045263844 $459 5.1499276159121479 $361 $460 forward 7 unknown #
vertex $-1 $454 $461 #
straight-curve $-1 0 33.755801486270876 8.789674045263844 -1 0 0 I I #
face $-1 $462 $463 $19 $-1 $464 reversed single #
loop $-1 $-1 $465 $269 #
plane-surface $-1 0 33.755801486270876 0 0 -1 0 0 0 -1 forward_v I I I I #
coedge $-1 $466 $467 $465 $468 reversed $270 $-1 #
coedge $-1 $469 $370 $375 $470 reversed $272 $-1 #
coedge $-1 $369 $471 $273 $371 reversed $272 $-1 #
edge $-1 $376 -67.511602972541766 $472 -60.743473251705787 $273 $473 forward 7 unknown #
coedge $-1 $474 $475 $274 $373 forward $476 $-1 #
edge $-1 $377 -6.7221777455194349 $472 -1.111143944197952 $372 $477 forward 7 unknown #
coedge $-1 $478 $275 $475 $479 reversed $366 $-1 #
coedge $-1 $275 $465 $369 $470 forward $366 $-1 #
vertex $-1 $470 $480 #
vertex $-1 $373 $481 #
straight-curve $-1 44.14191146728438 33.755801486270876 77.924187333229753 0 0 1 I I #
vertex $-1 $277 $482 #
point $-1 32.31503097257567 28.841249962733944 3.77055661184722 #
straight-curve $-1 -68.206427198095639 33.755801486270876 0 0 0 -1 I I #
point $-1 -68.206427198095639 -33.755801486270876 -8.789674045263844 #
straight-curve $-1 -68.206427198095639 0 -8.789674045263844 0 1 0 I I #
point $-1 -68.206427198095639 33.755801486270876 -8.789674045263844 #
face $-1 $-1 $483 $16 $-1 $484 reversed single #
plane-surface $-1 0 33.755801486270876 0 0 -1 0 0 0 -1 forward_v I I I I #
coedge $-1 $391 $300 $314 $406 forward $204 $-1 #
coedge $-1 $300 $391 $312 $404 forward $204 $-1 #
coedge $-1 $400 $485 $300 $390 reversed $483 $-1 #
edge $-1 $486 -33.755801486270876 $487 33.755801486270876 $389 $488 forward 7 unknown #
coedge $-1 $388 $387 $301 $392 forward $204 $-1 #
edge $-1 $395 -33.755801486270876 $393 33.755801486270876 $301 $489 forward 7 unknown #
vertex $-1 $392 $490 #
straight-curve $-1 -68.206427198095639 -33.755801486270876 0 0 0 -1 I I #
vertex $-1 $406 $491 #
straight-curve $-1 -68.206427198095639 33.755801486270876 0 0 0 -1 I I #
coedge $-1 $306 $305 $492 $493 forward $298 $-1 #
edge $-1 $307 -62.404180067128955 $494 68.206427198095639 $315 $495 forward 7 unknown #
point $-1 -62.404180067128955 33.755801486270876 -8.789674045263844 #
coedge $-1 $492 $389 $309 $401 forward $483 $-1 #
edge $-1 $486 -8.789674045263844 $402 8.789674045263844 $400 $496 forward 7 unknown #
vertex $-1 $401 $497 #
straight-curve $-1 0 -33.755801486270876 -8.789674045263844 -1 0 0 I I #
edge $-1 $393 -68.206427198095639 $486 68.206427198095639 $312 $498 forward 7 unknown #
coedge $-1 $315 $314 $485 $499 forward $219 $-1 #
edge $-1 $487 -68.206427198095639 $395 68.206427198095639 $314 $500 forward 7 unknown #
loop $-1 $-1 $501 $318 #
plane-surface $-1 -68.206427198095639 0 0 1 0 0 0 0 -1 forward_v I I I I #
coedge $-1 $412 $502 $427 $503 reversed $319 $-1 #
coedge $-1 $504 $321 $505 $506 reversed $226 $-1 #
coedge $-1 $321 $504 $419 $507 reversed $226 $-1 #
coedge $-1 $420 $409 $321 $413 forward $319 $-1 #
edge $-1 $508 -33.755801486270876 $509 33.755801486270876 $412 $510 forward 7 unknown #
straight-curve $-1 62.404180067128948 -33.755801486270876 -3.484900415293998 0 0 1 I I #
coedge $-1 $325 $324 $502 $511 forward $326 $-1 #
edge $-1 $327 -62.404180067128948 $512 62.404180067128955 $334 $513 forward 7 unknown #
face $-1 $-1 $326 $17 $-1 $514 reversed single #
point $-1 62.404180067128948 -33.755801486270876 -8.789674045263844 #
coedge $-1 $430 $329 $411 $507 forward $137 $-1 #
coedge $-1 $502 $412 $329 $421 reversed $319 $-1 #
edge $-1 $422 -5.304773629969846 $509 -1.6650272006181499 $329 $515 forward 7 unknown #
vertex $-1 $330 $516 #
straight-curve $-1 0 33.755801486270876 -8.789674045263844 1 0 0 I I #
coedge $-1 $505 $333 $517 $518 forward $238 $-1 #
coedge $-1 $338 $519 $333 $426 forward $433 $-1 #
edge $-1 $520 -68.206427198095639 $342 68.206427198095639 $333 $521 forward 7 unknown #
coedge $-1 $334 $505 $409 $503 forward $238 $-1 #
face $-1 $417 $433 $17 $-1 $522 forward single #
plane-surface $-1 0 -33.755801486270876 0 0 1 0 0 0 1 forward_v I I I I #
coedge $-1 $337 $419 $523 $524 reversed $137 $-1 #
coedge $-1 $519 $338 $337 $432 forward $433 $-1 #
edge $-1 $340 -68.206427198095639 $525 68.206427198095639 $337 $526 forward 7 unknown #
loop $-1 $-1 $338 $428 #
straight-curve $-1 68.206427198095639 0 8.789674045263844 0 1 0 I I #
point $-1 68.206427198095639 33.755801486270876 8.789674045263844 #
point $-1 68.206427198095639 -33.755801486270876 8.789674045263844 #
face $-1 $527 $528 $18 $-1 $529 reversed single #
loop $-1 $-1 $443 $344 #
plane-surface $-1 68.206427198095639 0 0 -1 0 0 0 0 1 forward_v I I I I #
coedge $-1 $530 $531 $457 $532 reversed $345 $-1 #
coedge $-1 $533 $347 $534 $535 reversed $249 $-1 #
coedge $-1 $347 $533 $360 $458 reversed $249 $-1 #
coedge $-1 $361 $536 $347 $444 forward $438 $-1 #
edge $-1 $537 -33.755801486270876 $459 33.755801486270876 $443 $538 forward 7 unknown #
coedge $-1 $348 $539 $540 $541 reversed $154 $-1 #
coedge $-1 $542 $349 $348 $447 forward $263 $-1 #
edge $-1 $351 -18.488150477866959 $543 68.206427198095639 $348 $364 forward 7 unknown #
straight-curve $-1 18.488150477866959 27.033623740751441 8.7896740452638369 0 1 0 I I #
point $-1 18.488150477866959 33.755801486270876 8.789674045263844 #
straight-curve $-1 15.657515486287835 28.144767684949393 8.789674045263844 -1 0 0 I I #
point $-1 18.488150477866959 28.144767684949393 8.789674045263844 #
coedge $-1 $358 $542 $544 $545 forward $263 $-1 #
coedge $-1 $536 $361 $358 $454 reversed $438 $-1 #
edge $-1 $546 -33.755801486270876 $363 33.755801486270876 $453 $547 forward 7 unknown #
face $-1 $-1 $548 $18 $-1 $549 reversed single #
plane-surface $-1 0 0 8.789674045263844 0 0 1 1 0 0 forward_v I I I I #
coedge $-1 $550 $360 $440 $532 forward $154 $-1 #
edge $-1 $459 -35.553775381789492 $551 -29.751528250822801 $360 $552 forward 7 unknown #
vertex $-1 $458 $553 #
straight-curve $-1 68.206427198095639 33.755801486270876 0 0 0 -1 I I #
point $-1 68.206427198095639 33.755801486270876 8.789674045263844 #
face $-1 $554 $555 $19 $-1 $556 forward single #
loop $-1 $-1 $557 $365 #
plane-surface $-1 65.305303632612294 0 -5.1499276159121479 0 0 1 1 0 0 forward_v I I I I #
coedge $-1 $375 $558 $368 $468 forward $366 $-1 #
coedge $-1 $467 $368 $559 $560 reversed $270 $-1 #
coedge $-1 $368 $466 $469 $561 forward $270 $-1 #
edge $-1 $562 69.134513287965916 $563 72.919203446815246 $465 $564 forward 7 unknown #
coedge $-1 $471 $369 $467 $561 reversed $272 $-1 #
edge $-1 $563 2.8306349915791245 $376 28.484395980996545 $375 $565 forward 7 unknown #
coedge $-1 $370 $469 $474 $566 reversed $272 $-1 #
vertex $-1 $566 $567 #
straight-curve $-1 44.14191146728438 -22.213853630436709 42.756993661245275 0 -0.82903756765294845 0.55919291073839883 I I #
coedge $-1 $559 $372 $471 $566 forward $476 $-1 #
coedge $-1 $372 $568 $374 $479 forward $476 $-1 #
loop $-1 $-1 $559 $569 #
straight-curve $-1 44.14191146728438 27.033623740751441 8.7896740452638369 0 -1 0 I I #
coedge $-1 $570 $374 $571 $572 forward $366 $-1 #
edge $-1 $573 -68.206427198095639 $377 -44.14191146728438 $374 $574 forward 7 unknown #
point $-1 44.14191146728438 33.755801486270883 5.0049838864145073 #
point $-1 44.14191146728438 33.755801486270876 8.789674045263844 #
point $-1 31.31503097257567 28.282057051995547 2.9415190441942718 #
loop $-1 $-1 $400 $385 #
plane-surface $-1 68.206427198095639 0 0 -1 0 0 0 0 1 forward_v I I I I #
coedge $-1 $389 $492 $405 $499 reversed $483 $-1 #
vertex $-1 $390 $575 #
vertex $-1 $390 $576 #
straight-curve $-1 68.206427198095639 0 8.789674045263844 0 1 0 I I #
straight-curve $-1 -68.206427198095639 0 8.789674045263844 0 -1 0 I I #
point $-1 -68.206427198095639 -33.755801486270876 8.789674045263844 #
point $-1 -68.206427198095639 33.755801486270876 8.789674045263844 #
coedge $-1 $485 $400 $397 $493 reversed $483 $-1 #
edge $-1 $494 -33.755801486270876 $402 33.755801486270876 $492 $577 forward 7 unknown #
vertex $-1 $493 $578 #
straight-curve $-1 0 33.755801486270876 -8.789674045263844 1 0 0 I I #
straight-curve $-1 68.206427198095639 -33.755801486270876 0 0 0 -1 I I #
point $-1 68.206427198095639 -33.755801486270876 -8.789674045263844 #
straight-curve $-1 0 -33.755801486270876 8.789674045263844 1 0 0 I I #
edge $-1 $487 -8.789674045263844 $494 8.789674045263844 $485 $579 forward 7 unknown #
straight-curve $-1 0 33.755801486270876 8.789674045263844 -1 0 0 I I #
coedge $-1 $517 $523 $504 $580 forward $407 $-1 #
coedge $-1 $409 $420 $415 $511 reversed $319 $-1 #
edge $-1 $508 1.6650272006181499 $512 5.304773629969846 $427 $581 forward 7 unknown #
coedge $-1 $411 $410 $501 $580 reversed $226 $-1 #
coedge $-1 $427 $424 $410 $506 forward $238 $-1 #
edge $-1 $582 -35.553775381789492 $508 -29.751528250822808 $505 $583 forward 7 unknown #
edge $-1 $509 29.751528250822808 $584 35.553775381789492 $419 $585 forward 7 unknown #
vertex $-1 $506 $586 #
vertex $-1 $507 $587 #
straight-curve $-1 -62.404180067128955 0 -5.1499276159121479 0 1 0 I I #
edge $-1 $512 -33.755801486270876 $422 33.755801486270876 $415 $588 forward 7 unknown #
vertex $-1 $503 $589 #
straight-curve $-1 0 -33.755801486270876 -8.789674045263844 -1 0 0 I I #
plane-surface $-1 0 0 -8.789674045263844 0 0 1 1 0 0 forward_v I I I I #
straight-curve $-1 -62.404180067128955 33.755801486270876 -3.484900415293998 0 0 1 I I #
point $-1 -62.404180067128955 33.755801486270876 -8.789674045263844 #
coedge $-1 $590 $501 $424 $518 reversed $407 $-1 #
edge $-1 $520 -8.789674045263844 $582 5.1499276159121479 $517 $591 forward 7 unknown #
coedge $-1 $425 $431 $590 $592 forward $433 $-1 #
vertex $-1 $592 $593 #
straight-curve $-1 0 -33.755801486270876 8.789674045263844 1 0 0 I I #
plane-surface $-1 0 0 8.789674045263844 0 0 1 1 0 0 forward_v I I I I #
coedge $-1 $501 $590 $430 $524 forward $407 $-1 #
edge $-1 $525 -8.789674045263844 $584 5.1499276159121479 $430 $594 forward 7 unknown #
vertex $-1 $432 $595 #
straight-curve $-1 0 33.755801486270876 8.789674045263844 -1 0 0 I I #
face $-1 $596 $597 $18 $-1 $598 forward single #
loop $-1 $-1 $599 $437 #
plane-surface $-1 -65.305303632612294 0 -5.1499276159121479 0 0 1 1 0 0 forward_v I I I I #
coedge $-1 $600 $440 $533 $601 forward $345 $-1 #
coedge $-1 $440 $600 $602 $603 reversed $345 $-1 #
edge $-1 $551 1.6650272006181499 $604 5.304773629969846 $457 $605 forward 7 unknown #
coedge $-1 $442 $441 $530 $601 reversed $249 $-1 #
coedge $-1 $606 $607 $441 $535 forward $608 $-1 #
edge $-1 $609 29.751528250822801 $537 35.553775381789492 $534 $610 forward 7 unknown #
coedge $-1 $443 $453 $606 $611 forward $438 $-1 #
vertex $-1 $444 $612 #
straight-curve $-1 68.206427198095639 0 -5.1499276159121479 0 1 0 I I #
coedge $-1 $445 $613 $614 $615 forward $154 $-1 #
coedge $-1 $616 $617 $445 $541 forward $618 $-1 #
edge $-1 $543 -8.789674045263844 $619 5.1499276159121479 $445 $620 forward 7 unknown #
coedge $-1 $452 $446 $617 $621 forward $263 $-1 #
vertex $-1 $447 $622 #
coedge $-1 $623 $606 $452 $545 reversed $608 $-1 #
edge $-1 $624 -68.206427198095639 $546 68.206427198095639 $544 $625 forward 7 unknown #
vertex $-1 $454 $626 #
straight-curve $-1 68.206427198095639 0 8.789674045263844 0 1 0 I I #
loop $-1 $-1 $602 $455 #
plane-surface $-1 0 0 -8.789674045263844 0 0 1 1 0 0 forward_v I I I I #
coedge $-1 $613 $457 $627 $628 reversed $154 $-1 #
vertex $-1 $458 $629 #
straight-curve $-1 32.652651816306147 33.755801486270876 -5.1499276159121479 -1 0 0 I I #
point $-1 68.206427198095639 33.755801486270876 -5.1499276159121479 #
face $-1 $630 $631 $19 $-1 $632 reversed single #
loop $-1 $-1 $633 $462 #
plane-surface $-1 62.404180067128948 0 -6.9698008305879959 1 0 0 0 0 -1 forward_v I I I I #
coedge $-1 $634 $635 $636 $637 reversed $463 $-1 #
coedge $-1 $465 $638 $639 $640 reversed $366 $-1 #
coedge $-1 $639 $474 $466 $560 forward $476 $-1 #
edge $-1 $641 1.111143944197952 $562 6.7221777455194349 $559 $642 forward 7 unknown #
edge $-1 $641 60.743473251705787 $563 67.511602972541766 $467 $643 forward 7 unknown #
vertex $-1 $640 $644 #
vertex $-1 $470 $645 #
straight-curve $-1 18.488150477866959 33.755801486270876 77.924187333229753 0 0 -1 I I #
straight-curve $-1 15.657515486287835 33.755801486270876 5.0049838864145109 1 0 0 I I #
edge $-1 $472 -28.484395980996545 $641 -2.8306349915791245 $474 $646 forward 7 unknown #
point $-1 44.14191146728438 28.144767684949393 8.789674045263844 #
coedge $-1 $475 $647 $648 $649 forward $476 $-1 #
face $-1 $650 $476 $19 $-1 $651 forward single #
coedge $-1 $652 $478 $635 $653 forward $366 $-1 #
coedge $-1 $648 $636 $478 $572 reversed $631 $-1 #
edge $-1 $573 -8.789674045263844 $654 5.1499276159121479 $571 $655 forward 7 unknown #
vertex $-1 $649 $656 #
straight-curve $-1 0 33.755801486270876 8.789674045263844 -1 0 0 I I #
point $-1 68.206427198095639 -33.755801486270876 8.789674045263844 #
point $-1 68.206427198095639 33.755801486270876 8.789674045263844 #
straight-curve $-1 68.206427198095639 0 -8.789674045263844 0 -1 0 I I #
point $-1 68.206427198095639 33.755801486270876 -8.789674045263844 #
straight-curve $-1 68.206427198095639 33.755801486270876 0 0 0 -1 I I #
edge $-1 $584 -33.755801486270876 $582 33.755801486270876 $501 $657 forward 7 unknown #
straight-curve $-1 -62.404180067128955 -33.755801486270876 -3.484900415293998 0 0 -1 I I #
vertex $-1 $506 $658 #
straight-curve $-1 -32.652651816306147 -33.755801486270876 -5.1499276159121479 1 0 0 I I #
vertex $-1 $580 $659 #
straight-curve $-1 -32.652651816306147 33.755801486270876 -5.1499276159121479 -1 0 0 I I #
point $-1 -62.404180067128955 -33.755801486270876 -5.1499276159121479 #
point $-1 -62.404180067128955 33.755801486270876 -5.1499276159121479 #
straight-curve $-1 -62.404180067128955 0 -8.789674045263844 0 1 0 I I #
point $-1 -62.404180067128955 -33.755801486270876 -8.789674045263844 #
coedge $-1 $523 $517 $519 $592 reversed $407 $-1 #
straight-curve $-1 -68.206427198095639 -33.755801486270876 0 0 0 -1 I I #
edge $-1 $525 -33.755801486270876 $520 33.755801486270876 $590 $660 forward 7 unknown #
point $-1 -68.206427198095639 -33.755801486270876 8.789674045263844 #
straight-curve $-1 -68.206427198095639 33.755801486270876 0 0 0 -1 I I #
point $-1 -68.206427198095639 33.755801486270876 8.789674045263844 #
face $-1 $661 $618 $18 $-1 $662 reversed single #
loop $-1 $-1 $663 $527 #
plane-surface $-1 -62.404180067128955 0 -6.9698008305879959 -1 0 0 0 0 1 forward_v I I I I #
coedge $-1 $664 $614 $665 $666 reversed $528 $-1 #
coedge $-1 $531 $530 $607 $667 reversed $345 $-1 #
edge $-1 $551 -33.755801486270876 $609 33.755801486270876 $530 $668 forward 7 unknown #
coedge $-1 $669 $627 $531 $603 forward $548 $-1 #
edge $-1 $604 -33.755801486270876 $670 33.755801486270876 $602 $671 forward 7 unknown #
vertex $-1 $532 $672 #
straight-curve $-1 62.404180067128948 33.755801486270876 -3.484900415293998 0 0 -1 I I #
coedge $-1 $544 $534 $536 $611 reversed $608 $-1 #
coedge $-1 $534 $673 $600 $667 forward $608 $-1 #
loop $-1 $-1 $534 $661 #
vertex $-1 $535 $674 #
straight-curve $-1 32.652651816306147 -33.755801486270876 -5.1499276159121479 1 0 0 I I #
edge $-1 $546 -8.789674045263844 $537 5.1499276159121479 $536 $675 forward 7 unknown #
point $-1 68.206427198095639 -33.755801486270876 -5.1499276159121479 #
coedge $-1 $539 $550 $676 $677 forward $154 $-1 #
coedge $-1 $599 $678 $539 $615 reversed $528 $-1 #
edge $-1 $679 29.751528250822808 $619 35.553775381789492 $539 $680 forward 7 unknown #
coedge $-1 $681 $540 $678 $682 forward $618 $-1 #
coedge $-1 $540 $681 $542 $621 reversed $618 $-1 #
loop $-1 $-1 $616 $596 #
vertex $-1 $682 $683 #
straight-curve $-1 -68.206427198095639 33.755801486270876 0 0 0 -1 I I #
edge $-1 $543 -33.755801486270876 $624 33.755801486270876 $617 $684 forward 7 unknown #
point $-1 -68.206427198095639 33.755801486270876 8.789674045263844 #
coedge $-1 $685 $544 $681 $686 forward $608 $-1 #
vertex $-1 $621 $687 #
straight-curve $-1 0 -33.755801486270876 8.789674045263844 1 0 0 I I #
point $-1 68.206427198095639 -33.755801486270876 8.789674045263844 #
coedge $-1 $602 $688 $550 $628 forward $548 $-1 #
edge $-1 $689 -62.404180067128955 $604 62.404180067128948 $550 $690 forward 7 unknown #
point $-1 62.404180067128948 33.755801486270876 -5.1499276159121479 #
face $-1 $691 $692 $19 $-1 $693 reversed single #
loop $-1 $-1 $636 $554 #
plane-surface $-1 68.206427198095639 0 0 -1 0 0 0 0 1 forward_v I I I I #
coedge $-1 $694 $695 $652 $696 reversed $555 $-1 #
coedge $-1 $697 $557 $698 $699 reversed $463 $-1 #
coedge $-1 $557 $697 $570 $653 reversed $463 $-1 #
coedge $-1 $571 $700 $557 $637 forward $631 $-1 #
edge $-1 $701 -33.755801486270876 $654 33.755801486270876 $636 $702 forward 7 unknown #
coedge $-1 $558 $703 $704 $705 reversed $366 $-1 #
coedge $-1 $706 $559 $558 $640 forward $476 $-1 #
edge $-1 $562 -18.488150477866959 $707 68.206427198095639 $558 $574 forward 7 unknown #
vertex $-1 $566 $708 #
straight-curve $-1 18.488150477866959 27.033623740751441 8.7896740452638369 0 1 0 I I #
straight-curve $-1 18.488150477866959 -22.213853630436709 42.756993661245275 0 0.82903756765294845 -0.55919291073839883 I I #
point $-1 18.488150477866959 33.755801486270876 8.789674045263844 #
point $-1 18.488150477866959 33.755801486270883 5.0049838864145073 #
straight-curve $-1 15.657515486287835 28.144767684949393 8.789674045263844 -1 0 0 I I #
coedge $-1 $568 $706 $709 $710 forward $476 $-1 #
coedge $-1 $700 $571 $568 $649 reversed $631 $-1 #
edge $-1 $711 -33.755801486270876 $573 33.755801486270876 $648 $712 forward 7 unknown #
face $-1 $-1 $713 $19 $-1 $714 reversed single #
plane-surface $-1 0 0 8.789674045263844 0 0 1 1 0 0 forward_v I I I I #
coedge $-1 $715 $570 $633 $696 forward $366 $-1 #
edge $-1 $654 -35.553775381789492 $716 -29.751528250822801 $570 $717 forward 7 unknown #
vertex $-1 $653 $718 #
straight-curve $-1 68.206427198095639 33.755801486270876 0 0 0 -1 I I #
point $-1 68.206427198095639 33.755801486270876 8.789674045263844 #
straight-curve $-1 -68.206427198095639 0 -5.1499276159121479 0 -1 0 I I #
point $-1 -68.206427198095639 -33.755801486270876 -5.1499276159121479 #
point $-1 -68.206427198095639 33.755801486270876 -5.1499276159121479 #
straight-curve $-1 -68.206427198095639 0 8.789674045263844 0 -1 0 I I #
face $-1 $359 $608 $18 $-1 $719 reversed single #
plane-surface $-1 -68.206427198095639 0 0 1 0 0 0 0 -1 forward_v I I I I #
coedge $-1 $665 $720 $721 $722 reversed $597 $-1 #
coedge $-1 $678 $599 $685 $723 reversed $528 $-1 #
coedge $-1 $676 $663 $599 $666 forward $597 $-1 #
edge $-1 $724 -33.755801486270876 $679 33.755801486270876 $665 $725 forward 7 unknown #
edge $-1 $670 -5.304773629969846 $609 -1.6650272006181499 $607 $726 forward 7 unknown #
straight-curve $-1 62.404180067128948 0 -5.1499276159121479 0 -1 0 I I #
coedge $-1 $688 $602 $673 $727 forward $548 $-1 #
vertex $-1 $727 $728 #
straight-curve $-1 62.404180067128948 0 -8.789674045263844 0 -1 0 I I #
point $-1 62.404180067128948 33.755801486270876 -8.789674045263844 #
coedge $-1 $607 $721 $669 $727 reversed $608 $-1 #
point $-1 62.404180067128948 -33.755801486270876 -5.1499276159121479 #
straight-curve $-1 68.206427198095639 -33.755801486270876 0 0 0 -1 I I #
coedge $-1 $720 $665 $613 $677 reversed $597 $-1 #
edge $-1 $689 -5.304773629969846 $679 -1.6650272006181499 $613 $729 forward 7 unknown #
coedge $-1 $614 $664 $616 $682 reversed $528 $-1 #
vertex $-1 $615 $730 #
straight-curve $-1 -32.652651816306147 33.755801486270876 -5.1499276159121479 -1 0 0 I I #
coedge $-1 $617 $616 $623 $686 reversed $618 $-1 #
edge $-1 $619 -33.755801486270876 $731 33.755801486270876 $616 $732 forward 7 unknown #
point $-1 -68.206427198095639 33.755801486270876 -5.1499276159121479 #
straight-curve $-1 -68.206427198095639 0 8.789674045263844 0 -1 0 I I #
coedge $-1 $721 $623 $664 $723 forward $608 $-1 #
edge $-1 $624 -8.789674045263844 $731 5.1499276159121479 $681 $733 forward 7 unknown #
point $-1 -68.206427198095639 -33.755801486270876 8.789674045263844 #
coedge $-1 $627 $669 $720 $734 forward $548 $-1 #
vertex $-1 $628 $735 #
straight-curve $-1 0 33.755801486270876 -8.789674045263844 1 0 0 I I #
face $-1 $736 $737 $19 $-1 $738 forward single #
loop $-1 $-1 $739 $630 #
plane-surface $-1 -65.305303632612294 0 -5.1499276159121479 0 0 1 1 0 0 forward_v I I I I #
coedge $-1 $740 $633 $697 $741 forward $555 $-1 #
coedge $-1 $633 $740 $742 $743 reversed $555 $-1 #
edge $-1 $716 1.6650272006181499 $744 5.304773629969846 $652 $745 forward 7 unknown #
coedge $-1 $635 $634 $694 $741 reversed $463 $-1 #
coedge $-1 $746 $747 $634 $699 forward $748 $-1 #
edge $-1 $749 29.751528250822801 $701 35.553775381789492 $698 $750 forward 7 unknown #
coedge $-1 $636 $648 $746 $751 forward $631 $-1 #
vertex $-1 $637 $752 #
straight-curve $-1 68.206427198095639 0 -5.1499276159121479 0 1 0 I I #
coedge $-1 $638 $753 $754 $755 forward $366 $-1 #
coedge $-1 $756 $757 $638 $705 forward $758 $-1 #
edge $-1 $707 -8.789674045263844 $759 5.1499276159121479 $638 $760 forward 7 unknown #
coedge $-1 $647 $639 $757 $761 forward $476 $-1 #
vertex $-1 $640 $762 #
point $-1 18.488150477866959 28.144767684949393 8.789674045263844 #
coedge $-1 $763 $746 $647 $710 reversed $748 $-1 #
edge $-1 $764 -68.206427198095639 $711 68.206427198095639 $709 $765 forward 7 unknown #
vertex $-1 $649 $766 #
straight-curve $-1 68.206427198095639 0 8.789674045263844 0 1 0 I I #
loop $-1 $-1 $742 $650 #
plane-surface $-1 0 0 -8.789674045263844 0 0 1 1 0 0 forward_v I I I I #
coedge $-1 $753 $652 $767 $768 reversed $366 $-1 #
vertex $-1 $653 $769 #
straight-curve $-1 32.652651816306147 33.755801486270876 -5.1499276159121479 -1 0 0 I I #
point $-1 68.206427198095639 33.755801486270876 -5.1499276159121479 #
plane-surface $-1 0 -33.755801486270876 0 0 1 0 0 0 1 forward_v I I I I #
coedge $-1 $663 $676 $688 $734 reversed $597 $-1 #
coedge $-1 $673 $685 $663 $722 forward $608 $-1 #
edge $-1 $724 1.6650272006181499 $770 5.304773629969846 $721 $771 forward 7 unknown #
edge $-1 $731 -35.553775381789492 $724 -29.751528250822808 $685 $772 forward 7 unknown #
vertex $-1 $723 $773 #
straight-curve $-1 -62.404180067128955 0 -5.1499276159121479 0 1 0 I I #
straight-curve $-1 62.404180067128948 -33.755801486270876 -3.484900415293998 0 0 1 I I #
edge $-1 $670 -62.404180067128948 $770 62.404180067128955 $673 $774 forward 7 unknown #
point $-1 62.404180067128948 -33.755801486270876 -8.789674045263844 #
straight-curve $-1 -62.404180067128955 33.755801486270876 -3.484900415293998 0 0 1 I I #
point $-1 -62.404180067128955 33.755801486270876 -5.1499276159121479 #
vertex $-1 $723 $775 #
straight-curve $-1 -68.206427198095639 0 -5.1499276159121479 0 -1 0 I I #
straight-curve $-1 -68.206427198095639 -33.755801486270876 0 0 0 -1 I I #
edge $-1 $770 -33.755801486270876 $689 33.755801486270876 $688 $776 forward 7 unknown #
point $-1 -62.404180067128955 33.755801486270876 -8.789674045263844 #
face $-1 $777 $758 $19 $-1 $778 reversed single #
loop $-1 $-1 $779 $691 #
plane-surface $-1 -62.404180067128955 0 -6.9698008305879959 -1 0 0 0 0 1 forward_v I I I I #
coedge $-1 $780 $754 $781 $782 reversed $692 $-1 #
coedge $-1 $695 $694 $747 $783 reversed $555 $-1 #
edge $-1 $716 -33.755801486270876 $749 33.755801486270876 $694 $784 forward 7 unknown #
coedge $-1 $785 $767 $695 $743 forward $713 $-1 #
edge $-1 $744 -33.755801486270876 $786 33.755801486270876 $742 $787 forward 7 unknown #
vertex $-1 $696 $788 #
straight-curve $-1 62.404180067128948 33.755801486270876 -3.484900415293998 0 0 -1 I I #
coedge $-1 $709 $698 $700 $751 reversed $748 $-1 #
coedge $-1 $698 $789 $740 $783 forward $748 $-1 #
loop $-1 $-1 $698 $777 #
vertex $-1 $699 $790 #
straight-curve $-1 32.652651816306147 -33.755801486270876 -5.1499276159121479 1 0 0 I I #
edge $-1 $711 -8.789674045263844 $701 5.1499276159121479 $700 $791 forward 7 unknown #
point $-1 68.206427198095639 -33.755801486270876 -5.1499276159121479 #
coedge $-1 $703 $715 $792 $793 forward $366 $-1 #
coedge $-1 $739 $794 $703 $755 reversed $692 $-1 #
edge $-1 $795 29.751528250822808 $759 35.553775381789492 $703 $796 forward 7 unknown #
coedge $-1 $797 $704 $794 $798 forward $758 $-1 #
coedge $-1 $704 $797 $706 $761 reversed $758 $-1 #
loop $-1 $-1 $756 $736 #
vertex $-1 $798 $799 #
straight-curve $-1 -68.206427198095639 33.755801486270876 0 0 0 -1 I I #
edge $-1 $707 -33.755801486270876 $764 33.755801486270876 $757 $800 forward 7 unknown #
point $-1 -68.206427198095639 33.755801486270876 8.789674045263844 #
coedge $-1 $801 $709 $797 $802 forward $748 $-1 #
vertex $-1 $761 $803 #
straight-curve $-1 0 -33.755801486270876 8.789674045263844 1 0 0 I I #
point $-1 68.206427198095639 -33.755801486270876 8.789674045263844 #
coedge $-1 $742 $804 $715 $768 forward $713 $-1 #
edge $-1 $805 -62.404180067128955 $744 62.404180067128948 $715 $806 forward 7 unknown #
point $-1 62.404180067128948 33.755801486270876 -5.1499276159121479 #
vertex $-1 $722 $807 #
straight-curve $-1 -62.404180067128955 -33.755801486270876 -3.484900415293998 0 0 -1 I I #
straight-curve $-1 -32.652651816306147 -33.755801486270876 -5.1499276159121479 1 0 0 I I #
point $-1 -62.404180067128955 -33.755801486270876 -5.1499276159121479 #
straight-curve $-1 0 -33.755801486270876 -8.789674045263844 -1 0 0 I I #
point $-1 -68.206427198095639 -33.755801486270876 -5.1499276159121479 #
straight-curve $-1 -62.404180067128955 0 -8.789674045263844 0 1 0 I I #
face $-1 $569 $748 $19 $-1 $808 reversed single #
plane-surface $-1 -68.206427198095639 0 0 1 0 0 0 0 -1 forward_v I I I I #
coedge $-1 $781 $809 $810 $811 reversed $737 $-1 #
coedge $-1 $794 $739 $801 $812 reversed $692 $-1 #
coedge $-1 $792 $779 $739 $782 forward $737 $-1 #
edge $-1 $813 -33.755801486270876 $795 33.755801486270876 $781 $814 forward 7 unknown #
edge $-1 $786 -5.304773629969846 $749 -1.6650272006181499 $747 $815 forward 7 unknown #
straight-curve $-1 62.404180067128948 0 -5.1499276159121479 0 -1 0 I I #
coedge $-1 $804 $742 $789 $816 forward $713 $-1 #
vertex $-1 $816 $817 #
straight-curve $-1 62.404180067128948 0 -8.789674045263844 0 -1 0 I I #
point $-1 62.404180067128948 33.755801486270876 -8.789674045263844 #
coedge $-1 $747 $810 $785 $816 reversed $748 $-1 #
point $-1 62.404180067128948 -33.755801486270876 -5.1499276159121479 #
straight-curve $-1 68.206427198095639 -33.755801486270876 0 0 0 -1 I I #
coedge $-1 $809 $781 $753 $793 reversed $737 $-1 #
edge $-1 $805 -5.304773629969846 $795 -1.6650272006181499 $753 $818 forward 7 unknown #
coedge $-1 $754 $780 $756 $798 reversed $692 $-1 #
vertex $-1 $755 $819 #
straight-curve $-1 -32.652651816306147 33.755801486270876 -5.1499276159121479 -1 0 0 I I #
coedge $-1 $757 $756 $763 $802 reversed $758 $-1 #
edge $-1 $759 -33.755801486270876 $820 33.755801486270876 $756 $821 forward 7 unknown #
point $-1 -68.206427198095639 33.755801486270876 -5.1499276159121479 #
straight-curve $-1 -68.206427198095639 0 8.789674045263844 0 -1 0 I I #
coedge $-1 $810 $763 $780 $812 forward $748 $-1 #
edge $-1 $764 -8.789674045263844 $820 5.1499276159121479 $797 $822 forward 7 unknown #
point $-1 -68.206427198095639 -33.755801486270876 8.789674045263844 #
coedge $-1 $767 $785 $809 $823 forward $713 $-1 #
vertex $-1 $768 $824 #
straight-curve $-1 0 33.755801486270876 -8.789674045263844 1 0 0 I I #
point $-1 -62.404180067128955 -33.755801486270876 -8.789674045263844 #
plane-surface $-1 0 -33.755801486270876 0 0 1 0 0 0 1 forward_v I I I I #
coedge $-1 $779 $792 $804 $823 reversed $737 $-1 #
coedge $-1 $789 $801 $779 $811 forward $748 $-1 #
edge $-1 $813 1.6650272006181499 $825 5.304773629969846 $810 $826 forward 7 unknown #
edge $-1 $820 -35.553775381789492 $813 -29.751528250822808 $801 $827 forward 7 unknown #
vertex $-1 $812 $828 #
straight-curve $-1 -62.404180067128955 0 -5.1499276159121479 0 1 0 I I #
straight-curve $-1 62.404180067128948 -33.755801486270876 -3.484900415293998 0 0 1 I I #
edge $-1 $786 -62.404180067128948 $825 62.404180067128955 $789 $829 forward 7 unknown #
point $-1 62.404180067128948 -33.755801486270876 -8.789674045263844 #
straight-curve $-1 -62.404180067128955 33.755801486270876 -3.484900415293998 0 0 1 I I #
point $-1 -62.404180067128955 33.755801486270876 -5.1499276159121479 #
vertex $-1 $812 $830 #
straight-curve $-1 -68.206427198095639 0 -5.1499276159121479 0 -1 0 I I #
straight-curve $-1 -68.206427198095639 -33.755801486270876 0 0 0 -1 I I #
edge $-1 $825 -33.755801486270876 $805 33.755801486270876 $804 $831 forward 7 unknown #
point $-1 -62.404180067128955 33.755801486270876 -8.789674045263844 #
vertex $-1 $811 $832 #
straight-curve $-1 -62.404180067128955 -33.755801486270876 -3.484900415293998 0 0 -1 I I #
straight-curve $-1 -32.652651816306147 -33.755801486270876 -5.1499276159121479 1 0 0 I I #
point $-1 -62.404180067128955 -33.755801486270876 -5.1499276159121479 #
straight-curve $-1 0 -33.755801486270876 -8.789674045263844 -1 0 0 I I #
point $-1 -68.206427198095639 -33.755801486270876 -5.1499276159121479 #
straight-curve $-1 -62.404180067128955 0 -8.789674045263844 0 1 0 I I #
point $-1 -62.404180067128955 -33.755801486270876 -8.789674045263844 #
End-of-ACIS-data 