500 0 8 0           
7 Unknown 11 ACIS 5.0 NT 24 Fri Mar 26 19:40:28 1999 
-1 9.9999999999999995e-007 1e-010 
body $-1 $8 $-1 $9 #
body $-1 $10 $-1 $11 #
body $-1 $12 $-1 $13 #
body $-1 $14 $-1 $15 #
body $-1 $16 $-1 $17 #
body $-1 $18 $-1 $19 #
body $-1 $20 $-1 $21 #
body $-1 $22 $-1 $23 #
lump $-1 $-1 $24 $0 #
transform $-1 1 0 0 0 1 0 0 0 1 69.311197241126749 35.578704381726361 10.679691845068087 1 rotate no_reflect no_shear #
lump $-1 $-1 $25 $1 #
transform $-1 1 0 0 0 1 0 0 0 1 69.311197241126749 35.578704381726361 10.679691845068087 1 rotate no_reflect no_shear #
lump $-1 $-1 $26 $2 #
transform $-1 1 0 0 0 1 0 0 0 1 69.311197241126749 35.578704381726361 10.679691845068087 1 rotate no_reflect no_shear #
lump $-1 $-1 $27 $3 #
transform $-1 1 0 0 0 1 0 0 0 1 69.311197241126749 35.578704381726361 10.679691845068087 1 rotate no_reflect no_shear #
lump $-1 $-1 $28 $4 #
transform $-1 1 0 0 0 1 0 0 0 1 69.311197241126749 35.578704381726361 10.679691845068087 1 rotate no_reflect no_shear #
lump $-1 $-1 $29 $5 #
transform $-1 1 0 0 0 1 0 0 0 1 69.311197241126749 35.578704381726361 10.679691845068087 1 rotate no_reflect no_shear #
lump $-1 $-1 $30 $6 #
transform $-1 1 0 0 0 1 0 0 0 1 69.311197241126749 35.578704381726361 10.679691845068087 1 rotate no_reflect no_shear #
lump $-1 $-1 $31 $7 #
transform $-1 1 0 0 0 1 0 0 0 1 69.311197241126749 35.578704381726361 10.679691845068087 1 rotate no_reflect no_shear #
shell $-1 $-1 $-1 $32 $-1 $8 #
shell $-1 $-1 $-1 $33 $-1 $10 #
shell $-1 $-1 $-1 $34 $-1 $12 #
shell $-1 $-1 $-1 $35 $-1 $14 #
shell $-1 $-1 $-1 $36 $-1 $16 #
shell $-1 $-1 $-1 $37 $-1 $18 #
shell $-1 $-1 $-1 $38 $-1 $20 #
shell $-1 $-1 $-1 $39 $-1 $22 #
face $-1 $40 $41 $24 $-1 $42 forward single #
face $-1 $43 $44 $25 $-1 $45 reversed single #
face $-1 $46 $47 $26 $-1 $48 reversed single #
face $-1 $49 $50 $27 $-1 $51 forward single #
face $-1 $52 $53 $28 $-1 $54 forward single #
face $-1 $55 $56 $29 $-1 $57 reversed single #
face $-1 $58 $59 $30 $-1 $60 forward single #
face $-1 $61 $62 $31 $-1 $63 forward single #
face $-1 $64 $65 $24 $-1 $66 reversed single #
loop $-1 $-1 $67 $32 #
plane-surface $-1 0 0 10.679691845068087 0 0 1 1 0 0 forward_v I I I I #
face $-1 $68 $69 $25 $-1 $70 reversed single #
loop $-1 $-1 $71 $33 #
plane-surface $-1 -64.045239258937471 -19.801755030527445 0 0 1 0 0 0 1 forward_v I I I I #
face $-1 $72 $73 $26 $-1 $74 reversed single #
loop $-1 $-1 $75 $34 #
plane-surface $-1 -28.92335080057866 78.077717451828732 156.16336437858888 1 0 0 0 -0.68199836817093118 -0.7313536940579346 forward_v I I I I #
face $-1 $76 $77 $27 $-1 $78 forward single #
loop $-1 $79 $80 $35 #
cone-surface $-1 -23.137781841856963 32.574358978425217 7.7899370108150316 0 -0.68199836817093118 -0.7313536940579346 1.5 0 0 1 I I 0 1 1.5 forward I I I I #
face $-1 $81 $82 $28 $-1 $83 forward single #
loop $-1 $84 $85 $36 #
cone-surface $-1 -14.459428403774425 32.574358978425217 7.7899370108150316 0 -0.68199836817093118 -0.7313536940579346 1.5 0 0 1 I I 0 1 1.5 forward I I I I #
face $-1 $86 $87 $29 $-1 $88 reversed single #
loop $-1 $-1 $89 $37 #
plane-surface $-1 35.121888458358818 78.077717451828732 156.16336437858888 1 0 0 0 -0.68199836817093118 -0.7313536940579346 forward_v I I I I #
face $-1 $90 $91 $30 $-1 $92 forward single #
loop $-1 $93 $94 $38 #
cone-surface $-1 40.907457417080508 32.574358978425217 7.7899370108150316 0 -0.68199836817093118 -0.7313536940579346 1.5 0 0 1 I I 0 1 1.5 forward I I I I #
face $-1 $95 $96 $31 $-1 $97 forward single #
loop $-1 $98 $99 $39 #
cone-surface $-1 49.585810855163047 32.574358978425217 7.7899370108150316 0 -0.68199836817093118 -0.7313536940579346 1.5 0 0 1 I I 0 1 1.5 forward I I I I #
face $-1 $100 $101 $24 $-1 $102 reversed single #
loop $-1 $-1 $103 $40 #
plane-surface $-1 0 0 -10.679691845068087 0 0 1 1 0 0 forward_v I I I I #
coedge $-1 $104 $105 $106 $107 forward $41 $-1 #
face $-1 $108 $109 $25 $-1 $110 reversed single #
loop $-1 $-1 $111 $43 #
plane-surface $-1 -64.045239258937471 -14.219320691590186 0 0 -1 0 0 0 -1 forward_v I I I I #
coedge $-1 $112 $113 $114 $115 reversed $44 $-1 #
face $-1 $116 $117 $26 $-1 $118 reversed single #
loop $-1 $-1 $119 $46 #
plane-surface $-1 -18.798605122815694 -16.462529377015244 54.781364094836533 0 0.68199836817093118 0.7313536940579346 1 0 0 forward_v I I I I #
coedge $-1 $120 $121 $122 $123 reversed $47 $-1 #
face $-1 $-1 $124 $27 $-1 $125 forward single #
loop $-1 $126 $127 $49 #
cone-surface $-1 -23.137781841856963 31.432505513774025 6.5654491111076307 0 -0.68199836817093118 -0.7313536940579346 0.75 0 0 1 I I -0.70710678118654757 0.70710678118654757 0.75 forward I I I I #
loop $-1 $-1 $128 $35 #
coedge $-1 $80 $80 $129 $130 reversed $50 $-1 #
face $-1 $-1 $131 $28 $-1 $132 forward single #
loop $-1 $133 $134 $52 #
cone-surface $-1 -14.459428403774425 31.432505513774025 6.5654491111076307 0 -0.68199836817093118 -0.7313536940579346 0.75 0 0 1 I I -0.70710678118654757 0.70710678118654757 0.75 forward I I I I #
loop $-1 $-1 $135 $36 #
coedge $-1 $85 $85 $136 $137 reversed $53 $-1 #
face $-1 $138 $139 $29 $-1 $140 reversed single #
loop $-1 $-1 $141 $55 #
plane-surface $-1 45.246634136121784 -16.462529377015244 54.781364094836533 0 0.68199836817093118 0.7313536940579346 1 0 0 forward_v I I I I #
coedge $-1 $142 $143 $144 $145 reversed $56 $-1 #
face $-1 $-1 $146 $30 $-1 $147 forward single #
loop $-1 $148 $149 $58 #
cone-surface $-1 40.907457417080508 31.432505513774025 6.5654491111076307 0 -0.68199836817093118 -0.7313536940579346 0.75 0 0 1 I I -0.70710678118654757 0.70710678118654757 0.75 forward I I I I #
loop $-1 $-1 $150 $38 #
coedge $-1 $94 $94 $151 $152 reversed $59 $-1 #
face $-1 $-1 $153 $31 $-1 $154 forward single #
loop $-1 $155 $156 $61 #
cone-surface $-1 49.585810855163047 31.432505513774025 6.5654491111076307 0 -0.68199836817093118 -0.7313536940579346 0.75 0 0 1 I I -0.70710678118654757 0.70710678118654757 0.75 forward I I I I #
loop $-1 $-1 $157 $39 #
coedge $-1 $99 $99 $158 $159 reversed $62 $-1 #
face $-1 $160 $161 $24 $-1 $162 reversed single #
loop $-1 $-1 $163 $64 #
plane-surface $-1 0 -35.578704381726361 0 0 1 0 0 0 1 forward_v I I I I #
coedge $-1 $164 $165 $166 $167 forward $65 $-1 #
coedge $-1 $168 $67 $169 $170 forward $41 $-1 #
coedge $-1 $67 $168 $171 $172 forward $41 $-1 #
coedge $-1 $173 $174 $67 $107 reversed $175 $-1 #
edge $-1 $176 -35.578704381726361 $177 35.578704381726361 $106 $178 forward 7 unknown #
face $-1 $179 $180 $25 $-1 $181 reversed single #
loop $-1 $-1 $182 $68 #
plane-surface $-1 -58.779281276748193 -17.010537861058815 0 -1 0 0 0 0 1 forward_v I I I I #
coedge $-1 $183 $184 $185 $186 forward $69 $-1 #
coedge $-1 $187 $71 $188 $189 reversed $44 $-1 #
coedge $-1 $71 $187 $190 $191 reversed $44 $-1 #
coedge $-1 $192 $193 $71 $115 forward $194 $-1 #
edge $-1 $195 -10.679691845068087 $196 10.679691845068087 $114 $197 forward 7 unknown #
face $-1 $198 $199 $26 $-1 $200 reversed single #
loop $-1 $-1 $201 $72 #
plane-surface $-1 -8.6738594450527273 78.077717451828732 156.16336437858888 -1 0 0 0 0.68199836817093118 0.7313536940579346 forward_v I I I I #
coedge $-1 $202 $203 $204 $205 reversed $73 $-1 #
coedge $-1 $121 $75 $206 $207 reversed $47 $-1 #
coedge $-1 $75 $120 $202 $208 reversed $47 $-1 #
coedge $-1 $204 $209 $75 $123 forward $210 $-1 #
edge $-1 $211 3.4601543441880054 $212 8.2081357737443241 $122 $213 forward 7 unknown #
loop $-1 $-1 $129 $76 #
plane-surface $-1 -18.798605122815694 -16.462529377015244 54.781364094836533 0 0.68199836817093118 0.7313536940579346 1 0 0 forward_v I I I I #
loop $-1 $-1 $214 $49 #
coedge $-1 $127 $127 $128 $215 reversed $77 $-1 #
coedge $-1 $128 $128 $127 $215 forward $79 $-1 #
coedge $-1 $129 $129 $80 $130 forward $124 $-1 #
edge $-1 $216 -5.7385452197294479e-016 $216 6.2831853071795996 $129 $217 forward 7 unknown #
loop $-1 $-1 $136 $81 #
plane-surface $-1 -18.798605122815694 -16.462529377015244 54.781364094836533 0 0.68199836817093118 0.7313536940579346 1 0 0 forward_v I I I I #
loop $-1 $-1 $218 $52 #
coedge $-1 $134 $134 $135 $219 reversed $82 $-1 #
coedge $-1 $135 $135 $134 $219 forward $84 $-1 #
coedge $-1 $136 $136 $85 $137 forward $131 $-1 #
edge $-1 $220 -5.7385452197294479e-016 $220 6.2831853071795996 $136 $221 forward 7 unknown #
face $-1 $222 $223 $29 $-1 $224 forward single #
loop $-1 $-1 $225 $86 #
plane-surface $-1 55.371379813884751 78.077717451828732 156.16336437858888 -1 0 0 0 0.68199836817093118 0.7313536940579346 forward_v I I I I #
coedge $-1 $226 $227 $228 $229 reversed $87 $-1 #
coedge $-1 $143 $89 $230 $231 reversed $56 $-1 #
coedge $-1 $89 $142 $226 $232 reversed $56 $-1 #
coedge $-1 $228 $233 $89 $145 forward $223 $-1 #
edge $-1 $234 3.4601543441880054 $235 8.2081357737443241 $144 $236 forward 7 unknown #
loop $-1 $-1 $151 $90 #
plane-surface $-1 45.246634136121784 -16.462529377015244 54.781364094836533 0 0.68199836817093118 0.7313536940579346 1 0 0 forward_v I I I I #
loop $-1 $-1 $237 $58 #
coedge $-1 $149 $149 $150 $238 reversed $91 $-1 #
coedge $-1 $150 $150 $149 $238 forward $93 $-1 #
coedge $-1 $151 $151 $94 $152 forward $146 $-1 #
edge $-1 $239 -5.7385452197294479e-016 $239 6.2831853071795996 $151 $240 forward 7 unknown #
loop $-1 $-1 $158 $95 #
plane-surface $-1 45.246634136121784 -16.462529377015244 54.781364094836533 0 0.68199836817093118 0.7313536940579346 1 0 0 forward_v I I I I #
loop $-1 $-1 $241 $61 #
coedge $-1 $156 $156 $157 $242 reversed $96 $-1 #
coedge $-1 $157 $157 $156 $242 forward $98 $-1 #
coedge $-1 $158 $158 $99 $159 forward $153 $-1 #
edge $-1 $243 -5.7385452197294479e-016 $243 6.2831853071795996 $158 $244 forward 7 unknown #
face $-1 $245 $246 $24 $-1 $247 reversed single #
loop $-1 $-1 $248 $100 #
plane-surface $-1 -69.311197241126749 0 0 1 0 0 0 0 -1 forward_v I I I I #
coedge $-1 $249 $171 $250 $251 forward $101 $-1 #
coedge $-1 $252 $103 $249 $253 forward $65 $-1 #
coedge $-1 $103 $252 $254 $255 forward $65 $-1 #
coedge $-1 $174 $173 $103 $167 reversed $175 $-1 #
edge $-1 $256 -35.578704381726361 $257 35.578704381726361 $166 $258 forward 7 unknown #
coedge $-1 $105 $104 $259 $260 forward $41 $-1 #
coedge $-1 $261 $262 $104 $170 reversed $246 $-1 #
edge $-1 $177 -69.311197241126749 $263 69.311197241126749 $169 $264 forward 7 unknown #
coedge $-1 $163 $265 $105 $172 reversed $101 $-1 #
edge $-1 $266 -69.311197241126749 $176 69.311197241126749 $171 $267 forward 7 unknown #
coedge $-1 $166 $106 $265 $268 forward $175 $-1 #
coedge $-1 $106 $166 $261 $269 reversed $175 $-1 #
loop $-1 $-1 $173 $245 #
vertex $-1 $107 $270 #
vertex $-1 $107 $271 #
straight-curve $-1 69.311197241126749 0 10.679691845068087 0 1 0 I I #
face $-1 $272 $273 $25 $-1 $274 forward single #
loop $-1 $-1 $275 $108 #
plane-surface $-1 0 0 -10.679691845068087 0 0 1 1 0 0 forward_v I I I I #
coedge $-1 $276 $277 $187 $278 forward $109 $-1 #
coedge $-1 $279 $111 $275 $280 reversed $69 $-1 #
coedge $-1 $111 $279 $281 $282 reversed $69 $-1 #
coedge $-1 $277 $276 $111 $186 reversed $109 $-1 #
edge $-1 $283 -10.679691845068087 $284 10.679691845068087 $185 $285 forward 7 unknown #
coedge $-1 $113 $112 $182 $278 reversed $44 $-1 #
coedge $-1 $286 $287 $112 $189 forward $180 $-1 #
edge $-1 $288 26.756661647279458 $195 37.288577611658013 $188 $289 forward 7 unknown #
coedge $-1 $290 $291 $113 $191 forward $273 $-1 #
edge $-1 $196 -37.288577611658013 $292 -26.756661647279458 $190 $293 forward 7 unknown #
coedge $-1 $294 $114 $291 $295 reversed $194 $-1 #
coedge $-1 $114 $294 $286 $296 reversed $194 $-1 #
loop $-1 $-1 $294 $272 #
vertex $-1 $296 $297 #
vertex $-1 $115 $298 #
straight-curve $-1 -69.311197241126749 -19.801755030527445 0 0 0 1 I I #
face $-1 $-1 $210 $26 $-1 $299 forward single #
loop $-1 $-1 $300 $116 #
plane-surface $-1 0 35.578704381726361 0 0 -1 0 0 0 -1 forward_v I I I I #
coedge $-1 $301 $302 $303 $304 reversed $117 $-1 #
coedge $-1 $305 $119 $121 $208 forward $73 $-1 #
coedge $-1 $119 $305 $301 $306 forward $73 $-1 #
coedge $-1 $303 $122 $119 $205 forward $210 $-1 #
edge $-1 $212 -19.524048239170813 $307 0.7254431163551196 $204 $308 forward 7 unknown #
coedge $-1 $309 $310 $120 $207 forward $199 $-1 #
edge $-1 $311 -71.829554754404597 $211 -67.401990344226348 $206 $312 forward 7 unknown #
edge $-1 $212 64.665363302914997 $311 71.157408763452736 $121 $313 forward 7 unknown #
coedge $-1 $122 $303 $309 $314 forward $210 $-1 #
loop $-1 $-1 $303 $198 #
vertex $-1 $207 $315 #
vertex $-1 $123 $316 #
straight-curve $-1 -28.92335080057866 39.038858725914366 10.679691845068092 0 -1 0 I I #
coedge $-1 $214 $214 $-1 $317 reversed $126 $-1 #
edge $-1 $318 0 $318 6.2831853071796004 $127 $319 forward 7 unknown #
vertex $-1 $130 $320 #
ellipse-curve $-1 -23.137781841856963 33.204713666948194 8.4659096399789711 0 0.68199836817093118 0.7313536940579346 1.5 0 0 1 I I #
coedge $-1 $218 $218 $-1 $321 reversed $133 $-1 #
edge $-1 $322 0 $322 6.2831853071796004 $134 $323 forward 7 unknown #
vertex $-1 $137 $324 #
ellipse-curve $-1 -14.459428403774425 33.204713666948194 8.4659096399789711 0 0.68199836817093118 0.7313536940579346 1.5 0 0 1 I I #
face $-1 $-1 $325 $29 $-1 $326 reversed single #
loop $-1 $-1 $144 $138 #
plane-surface $-1 0 0 10.679691845068087 0 0 1 1 0 0 forward_v I I I I #
coedge $-1 $327 $328 $329 $330 reversed $139 $-1 #
coedge $-1 $331 $141 $143 $232 forward $87 $-1 #
coedge $-1 $141 $331 $327 $332 forward $87 $-1 #
coedge $-1 $329 $144 $141 $229 forward $223 $-1 #
edge $-1 $235 12.498571390297926 $333 32.748062745823859 $228 $334 forward 7 unknown #
coedge $-1 $335 $336 $142 $231 forward $325 $-1 #
edge $-1 $337 -71.829554754404597 $234 -67.401990344226348 $230 $338 forward 7 unknown #
edge $-1 $235 64.665363302914997 $337 71.157408763452736 $143 $339 forward 7 unknown #
coedge $-1 $144 $329 $335 $340 forward $223 $-1 #
vertex $-1 $231 $341 #
vertex $-1 $145 $342 #
straight-curve $-1 35.121888458358818 39.038858725914366 10.679691845068092 0 -1 0 I I #
coedge $-1 $237 $237 $-1 $343 reversed $148 $-1 #
edge $-1 $344 0 $344 6.2831853071796004 $149 $345 forward 7 unknown #
vertex $-1 $152 $346 #
ellipse-curve $-1 40.907457417080508 33.204713666948194 8.4659096399789711 0 0.68199836817093118 0.7313536940579346 1.5 0 0 1 I I #
coedge $-1 $241 $241 $-1 $347 reversed $155 $-1 #
edge $-1 $348 0 $348 6.2831853071796004 $156 $349 forward 7 unknown #
vertex $-1 $159 $350 #
ellipse-curve $-1 49.585810855163047 33.204713666948194 8.4659096399789711 0 0.68199836817093118 0.7313536940579346 1.5 0 0 1 I I #
face $-1 $-1 $175 $24 $-1 $351 reversed single #
loop $-1 $-1 $261 $160 #
plane-surface $-1 0 35.578704381726361 0 0 -1 0 0 0 -1 forward_v I I I I #
coedge $-1 $352 $259 $262 $353 forward $161 $-1 #
coedge $-1 $265 $163 $164 $253 reversed $101 $-1 #
coedge $-1 $259 $352 $163 $251 reversed $161 $-1 #
edge $-1 $266 -10.679691845068087 $354 10.679691845068087 $250 $355 forward 7 unknown #
coedge $-1 $165 $164 $352 $356 forward $65 $-1 #
edge $-1 $257 -69.311197241126749 $354 69.311197241126749 $249 $357 forward 7 unknown #
coedge $-1 $262 $261 $165 $255 reversed $246 $-1 #
edge $-1 $358 -69.311197241126749 $256 69.311197241126749 $254 $359 forward 7 unknown #
vertex $-1 $167 $360 #
vertex $-1 $268 $361 #
straight-curve $-1 69.311197241126749 0 -10.679691845068087 0 -1 0 I I #
coedge $-1 $248 $250 $168 $260 reversed $161 $-1 #
edge $-1 $263 -35.578704381726361 $266 35.578704381726361 $259 $362 forward 7 unknown #
coedge $-1 $254 $169 $174 $269 forward $246 $-1 #
coedge $-1 $169 $254 $248 $353 reversed $246 $-1 #
vertex $-1 $170 $363 #
straight-curve $-1 0 35.578704381726361 10.679691845068087 -1 0 0 I I #
coedge $-1 $171 $249 $173 $268 reversed $101 $-1 #
vertex $-1 $260 $364 #
straight-curve $-1 0 -35.578704381726361 10.679691845068087 1 0 0 I I #
edge $-1 $176 -10.679691845068087 $257 10.679691845068087 $173 $365 forward 7 unknown #
edge $-1 $177 -10.679691845068087 $256 10.679691845068087 $174 $366 forward 7 unknown #
point $-1 69.311197241126749 -35.578704381726361 10.679691845068087 #
point $-1 69.311197241126749 35.578704381726361 10.679691845068087 #
face $-1 $-1 $194 $25 $-1 $367 reversed single #
loop $-1 $-1 $281 $179 #
plane-surface $-1 0 0 10.679691845068087 0 0 1 1 0 0 forward_v I I I I #
coedge $-1 $287 $286 $183 $280 forward $180 $-1 #
coedge $-1 $185 $182 $287 $368 reversed $109 $-1 #
coedge $-1 $182 $185 $290 $369 reversed $109 $-1 #
edge $-1 $292 -10.679691845068087 $288 10.679691845068087 $182 $370 forward 7 unknown #
coedge $-1 $184 $183 $294 $371 reversed $69 $-1 #
edge $-1 $372 -37.288577611658013 $284 -26.756661647279458 $275 $373 forward 7 unknown #
coedge $-1 $291 $290 $184 $282 forward $273 $-1 #
edge $-1 $283 26.756661647279458 $374 37.288577611658013 $281 $375 forward 7 unknown #
vertex $-1 $282 $376 #
vertex $-1 $280 $377 #
straight-curve $-1 -58.779281276748193 -14.219320691590186 0 0 0 -1 I I #
coedge $-1 $275 $188 $193 $296 forward $180 $-1 #
coedge $-1 $188 $275 $276 $368 forward $180 $-1 #
vertex $-1 $189 $378 #
straight-curve $-1 -32.022619629468736 -19.801755030527445 -10.679691845068087 -1 0 0 I I #
coedge $-1 $281 $190 $277 $369 forward $273 $-1 #
coedge $-1 $190 $281 $192 $295 forward $273 $-1 #
vertex $-1 $191 $379 #
straight-curve $-1 -32.022619629468736 -19.801755030527445 10.679691845068087 1 0 0 I I #
coedge $-1 $193 $192 $279 $371 forward $194 $-1 #
edge $-1 $374 14.219320691590186 $196 19.801755030527445 $192 $380 forward 7 unknown #
edge $-1 $195 -19.801755030527445 $372 -14.219320691590186 $193 $381 forward 7 unknown #
point $-1 -69.311197241126749 -19.801755030527445 -10.679691845068087 #
point $-1 -69.311197241126749 -19.801755030527445 10.679691845068087 #
plane-surface $-1 0 0 10.679691845068087 0 0 1 1 0 0 forward_v I I I I #
coedge $-1 $310 $309 $302 $382 forward $199 $-1 #
coedge $-1 $302 $201 $203 $306 reversed $117 $-1 #
coedge $-1 $201 $301 $300 $382 reversed $117 $-1 #
coedge $-1 $209 $204 $201 $304 forward $210 $-1 #
edge $-1 $307 -8.2081357737443241 $383 -3.4601543441880054 $303 $384 forward 7 unknown #
coedge $-1 $203 $202 $310 $385 reversed $73 $-1 #
edge $-1 $386 -71.157408763452736 $307 -64.665363302914997 $301 $387 forward 7 unknown #
vertex $-1 $205 $388 #
straight-curve $-1 -9.3993025614078469 30.830722952170053 10.679691845068085 1 0 0 I I #
coedge $-1 $300 $206 $209 $314 reversed $199 $-1 #
coedge $-1 $206 $300 $305 $385 forward $199 $-1 #
vertex $-1 $207 $389 #
straight-curve $-1 -28.92335080057866 35.578704381726361 78.08168218929444 0 0 1 I I #
straight-curve $-1 -28.92335080057866 -16.462529377015244 54.781364094836533 0 0.7313536940579346 -0.68199836817093118 I I #
edge $-1 $383 8.6738594450527273 $211 28.92335080057866 $309 $390 forward 7 unknown #
point $-1 -28.92335080057866 35.578704381726361 10.679691845068087 #
point $-1 -28.92335080057866 30.830722952170042 10.679691845068092 #
edge $-1 $391 1 $391 0 $214 $-1 forward 7 unknown #
vertex $-1 $215 $392 #
ellipse-curve $-1 -23.137781841856963 31.944004289902225 7.1139643816510816 0 0.68199836817093118 0.7313536940579346 1.5 0 0 1 I I #
point $-1 -21.637781841856963 33.204713666948201 8.4659096399789799 #
edge $-1 $393 1 $393 0 $218 $-1 forward 7 unknown #
vertex $-1 $219 $394 #
ellipse-curve $-1 -14.459428403774425 31.944004289902225 7.1139643816510816 0 0.68199836817093118 0.7313536940579346 1.5 0 0 1 I I #
point $-1 -12.959428403774425 33.204713666948201 8.4659096399789799 #
loop $-1 $-1 $230 $222 #
plane-surface $-1 0 35.578704381726361 0 0 -1 0 0 0 -1 forward_v I I I I #
coedge $-1 $328 $225 $227 $332 reversed $139 $-1 #
coedge $-1 $225 $327 $395 $396 reversed $139 $-1 #
coedge $-1 $233 $228 $225 $330 forward $223 $-1 #
edge $-1 $333 -8.2081357737443241 $397 -3.4601543441880054 $329 $398 forward 7 unknown #
coedge $-1 $227 $226 $336 $399 reversed $87 $-1 #
edge $-1 $400 -71.157408763452736 $333 -64.665363302914997 $327 $401 forward 7 unknown #
vertex $-1 $229 $402 #
straight-curve $-1 22.623317068060892 30.830722952170053 10.679691845068085 1 0 0 I I #
coedge $-1 $395 $230 $233 $340 reversed $325 $-1 #
coedge $-1 $230 $395 $331 $399 forward $325 $-1 #
vertex $-1 $231 $403 #
straight-curve $-1 35.121888458358818 35.578704381726361 78.08168218929444 0 0 1 I I #
straight-curve $-1 35.121888458358818 -16.462529377015244 54.781364094836533 0 0.7313536940579346 -0.68199836817093118 I I #
edge $-1 $397 -55.371379813884751 $234 -35.121888458358818 $335 $404 forward 7 unknown #
point $-1 35.121888458358818 35.578704381726361 10.679691845068087 #
point $-1 35.121888458358818 30.830722952170042 10.679691845068092 #
edge $-1 $405 1 $405 0 $237 $-1 forward 7 unknown #
vertex $-1 $238 $406 #
ellipse-curve $-1 40.907457417080508 31.944004289902225 7.1139643816510816 0 0.68199836817093118 0.7313536940579346 1.5 0 0 1 I I #
point $-1 42.407457417080508 33.204713666948201 8.4659096399789799 #
edge $-1 $407 1 $407 0 $241 $-1 forward 7 unknown #
vertex $-1 $242 $408 #
ellipse-curve $-1 49.585810855163047 31.944004289902225 7.1139643816510816 0 0.68199836817093118 0.7313536940579346 1.5 0 0 1 I I #
point $-1 51.085810855163047 33.204713666948201 8.4659096399789799 #
plane-surface $-1 69.311197241126749 0 0 -1 0 0 0 0 1 forward_v I I I I #
coedge $-1 $250 $248 $252 $356 reversed $161 $-1 #
edge $-1 $263 -10.679691845068087 $358 10.679691845068087 $262 $409 forward 7 unknown #
vertex $-1 $356 $410 #
straight-curve $-1 -69.311197241126749 -35.578704381726361 0 0 0 -1 I I #
edge $-1 $354 -35.578704381726361 $358 35.578704381726361 $352 $411 forward 7 unknown #
straight-curve $-1 0 -35.578704381726361 -10.679691845068087 -1 0 0 I I #
vertex $-1 $255 $412 #
straight-curve $-1 0 35.578704381726361 -10.679691845068087 1 0 0 I I #
point $-1 69.311197241126749 35.578704381726361 -10.679691845068087 #
point $-1 69.311197241126749 -35.578704381726361 -10.679691845068087 #
straight-curve $-1 -69.311197241126749 0 10.679691845068087 0 -1 0 I I #
point $-1 -69.311197241126749 35.578704381726361 10.679691845068087 #
point $-1 -69.311197241126749 -35.578704381726361 10.679691845068087 #
straight-curve $-1 69.311197241126749 -35.578704381726361 0 0 0 -1 I I #
straight-curve $-1 69.311197241126749 35.578704381726361 0 0 0 -1 I I #
plane-surface $-1 -69.311197241126749 0 0 1 0 0 0 0 -1 forward_v I I I I #
edge $-1 $284 5.7140517610607784 $288 11.296486099998038 $287 $413 forward 7 unknown #
edge $-1 $292 -11.296486099998038 $283 -5.7140517610607784 $290 $414 forward 7 unknown #
straight-curve $-1 -58.779281276748193 -19.801755030527445 0 0 0 -1 I I #
edge $-1 $374 -10.679691845068087 $372 10.679691845068087 $294 $415 forward 7 unknown #
vertex $-1 $371 $416 #
straight-curve $-1 -32.022619629468736 -14.219320691590186 -10.679691845068087 1 0 0 I I #
vertex $-1 $295 $417 #
straight-curve $-1 -32.022619629468736 -14.219320691590186 10.679691845068087 -1 0 0 I I #
point $-1 -58.779281276748193 -14.219320691590186 10.679691845068087 #
point $-1 -58.779281276748193 -14.219320691590186 -10.679691845068087 #
point $-1 -58.779281276748193 -19.801755030527445 -10.679691845068087 #
point $-1 -58.779281276748193 -19.801755030527445 10.679691845068087 #
straight-curve $-1 -69.311197241126749 0 10.679691845068087 0 -1 0 I I #
straight-curve $-1 -69.311197241126749 0 -10.679691845068087 0 1 0 I I #
edge $-1 $383 67.401990344226348 $386 71.829554754404597 $300 $418 forward 7 unknown #
vertex $-1 $314 $419 #
straight-curve $-1 -8.6738594450527273 39.038858725914366 10.679691845068092 0 1 0 I I #
edge $-1 $386 -0.7254431163551196 $311 19.524048239170813 $310 $420 forward 7 unknown #
vertex $-1 $385 $421 #
straight-curve $-1 -8.6738594450527273 -16.462529377015244 54.781364094836533 0 -0.7313536940579346 0.68199836817093118 I I #
point $-1 -8.6738594450527273 30.830722952170042 10.679691845068092 #
point $-1 -28.92335080057866 35.578704381726361 6.2521274348898501 #
straight-curve $-1 0 35.578704381726361 10.679691845068087 -1 0 0 I I #
vertex $-1 $317 $422 #
point $-1 -21.637781841856963 31.944004289902225 7.1139643816510816 #
vertex $-1 $321 $423 #
point $-1 -12.959428403774425 31.944004289902225 7.1139643816510816 #
coedge $-1 $336 $335 $328 $396 forward $325 $-1 #
edge $-1 $397 67.401990344226348 $400 71.829554754404597 $395 $424 forward 7 unknown #
vertex $-1 $340 $425 #
straight-curve $-1 55.371379813884751 39.038858725914366 10.679691845068092 0 1 0 I I #
edge $-1 $400 -32.748062745823859 $337 -12.498571390297926 $336 $426 forward 7 unknown #
vertex $-1 $399 $427 #
straight-curve $-1 55.371379813884751 -16.462529377015244 54.781364094836533 0 -0.7313536940579346 0.68199836817093118 I I #
point $-1 55.371379813884751 30.830722952170042 10.679691845068092 #
point $-1 35.121888458358818 35.578704381726361 6.2521274348898501 #
straight-curve $-1 0 35.578704381726361 10.679691845068087 -1 0 0 I I #
vertex $-1 $343 $428 #
point $-1 42.407457417080508 31.944004289902225 7.1139643816510816 #
vertex $-1 $347 $429 #
point $-1 51.085810855163047 31.944004289902225 7.1139643816510816 #
straight-curve $-1 -69.311197241126749 35.578704381726361 0 0 0 -1 I I #
point $-1 -69.311197241126749 -35.578704381726361 -10.679691845068087 #
straight-curve $-1 -69.311197241126749 0 -10.679691845068087 0 1 0 I I #
point $-1 -69.311197241126749 35.578704381726361 -10.679691845068087 #
straight-curve $-1 -58.779281276748193 -8.5052689305294074 -10.679691845068087 0 -1 0 I I #
straight-curve $-1 -58.779281276748193 -8.5052689305294074 10.679691845068087 0 1 0 I I #
straight-curve $-1 -69.311197241126749 -14.219320691590186 0 0 0 -1 I I #
point $-1 -69.311197241126749 -14.219320691590186 -10.679691845068087 #
point $-1 -69.311197241126749 -14.219320691590186 10.679691845068087 #
straight-curve $-1 -8.6738594450527273 35.578704381726361 78.08168218929444 0 0 -1 I I #
point $-1 -8.6738594450527273 35.578704381726361 10.679691845068087 #
straight-curve $-1 -9.3993025614078469 35.578704381726361 6.2521274348898537 -1 0 0 I I #
point $-1 -8.6738594450527273 35.578704381726361 6.2521274348898501 #
point $-1 -23.137781841856963 30.921006737645826 6.0169338405641799 #
point $-1 -14.459428403774425 30.921006737645826 6.0169338405641799 #
straight-curve $-1 55.371379813884751 35.578704381726361 78.08168218929444 0 0 -1 I I #
point $-1 55.371379813884751 35.578704381726361 10.679691845068087 #
straight-curve $-1 22.623317068060892 35.578704381726361 6.2521274348898537 -1 0 0 I I #
point $-1 55.371379813884751 35.578704381726361 6.2521274348898501 #
point $-1 40.907457417080508 30.921006737645826 6.0169338405641799 #
point $-1 49.585810855163047 30.921006737645826 6.0169338405641799 #
End-of-ACIS-data 