500 0 14 0           
7 Unknown 11 ACIS 5.0 NT 24 Thu Mar 25 22:21:56 1999 
-1 9.9999999999999995e-007 1e-010 
body $-1 $14 $-1 $15 #
body $-1 $16 $-1 $17 #
body $-1 $18 $-1 $19 #
body $-1 $20 $-1 $21 #
body $-1 $22 $-1 $23 #
body $-1 $24 $-1 $25 #
body $-1 $26 $-1 $27 #
body $-1 $28 $-1 $29 #
body $-1 $30 $-1 $31 #
body $-1 $32 $-1 $33 #
body $-1 $34 $-1 $35 #
body $-1 $36 $-1 $37 #
body $-1 $38 $-1 $39 #
body $-1 $40 $-1 $41 #
lump $-1 $-1 $42 $0 #
transform $-1 1 0 0 0 1 0 0 0 1 53.25724051637318 32.176852205776889 11.468263379936705 1 rotate no_reflect no_shear #
lump $-1 $-1 $43 $1 #
transform $-1 1 0 0 0 1 0 0 0 1 53.25724051637318 32.176852205776889 11.468263379936705 1 rotate no_reflect no_shear #
lump $-1 $-1 $44 $2 #
transform $-1 1 0 0 0 1 0 0 0 1 53.25724051637318 32.176852205776889 11.468263379936705 1 rotate no_reflect no_shear #
lump $-1 $-1 $45 $3 #
transform $-1 1 0 0 0 1 0 0 0 1 53.25724051637318 32.176852205776889 11.468263379936705 1 rotate no_reflect no_shear #
lump $-1 $-1 $46 $4 #
transform $-1 1 0 0 0 1 0 0 0 1 53.25724051637318 32.176852205776889 11.468263379936705 1 rotate no_reflect no_shear #
lump $-1 $-1 $47 $5 #
transform $-1 1 0 0 0 1 0 0 0 1 53.25724051637318 32.176852205776889 11.468263379936705 1 rotate no_reflect no_shear #
lump $-1 $-1 $48 $6 #
transform $-1 1 0 0 0 1 0 0 0 1 53.25724051637318 32.176852205776889 11.468263379936705 1 rotate no_reflect no_shear #
lump $-1 $-1 $49 $7 #
transform $-1 1 0 0 0 1 0 0 0 1 53.25724051637318 32.176852205776889 11.468263379936705 1 rotate no_reflect no_shear #
lump $-1 $-1 $50 $8 #
transform $-1 1 0 0 0 1 0 0 0 1 53.25724051637318 32.176852205776889 11.468263379936705 1 rotate no_reflect no_shear #
lump $-1 $-1 $51 $9 #
transform $-1 1 0 0 0 1 0 0 0 1 53.25724051637318 32.176852205776889 11.468263379936705 1 rotate no_reflect no_shear #
lump $-1 $-1 $52 $10 #
transform $-1 1 0 0 0 1 0 0 0 1 53.25724051637318 32.176852205776889 11.468263379936705 1 rotate no_reflect no_shear #
lump $-1 $-1 $53 $11 #
transform $-1 1 0 0 0 1 0 0 0 1 53.25724051637318 32.176852205776889 11.468263379936705 1 rotate no_reflect no_shear #
lump $-1 $-1 $54 $12 #
transform $-1 1 0 0 0 1 0 0 0 1 53.25724051637318 32.176852205776889 11.468263379936705 1 rotate no_reflect no_shear #
lump $-1 $-1 $55 $13 #
transform $-1 1 0 0 0 1 0 0 0 1 53.25724051637318 32.176852205776889 11.468263379936705 1 rotate no_reflect no_shear #
shell $-1 $-1 $-1 $56 $-1 $14 #
shell $-1 $-1 $-1 $57 $-1 $16 #
shell $-1 $-1 $-1 $58 $-1 $18 #
shell $-1 $-1 $-1 $59 $-1 $20 #
shell $-1 $-1 $-1 $60 $-1 $22 #
shell $-1 $-1 $-1 $61 $-1 $24 #
shell $-1 $-1 $-1 $62 $-1 $26 #
shell $-1 $-1 $-1 $63 $-1 $28 #
shell $-1 $-1 $-1 $64 $-1 $30 #
shell $-1 $-1 $-1 $65 $-1 $32 #
shell $-1 $-1 $-1 $66 $-1 $34 #
shell $-1 $-1 $-1 $67 $-1 $36 #
shell $-1 $-1 $-1 $68 $-1 $38 #
shell $-1 $-1 $-1 $69 $-1 $40 #
face $-1 $70 $71 $42 $-1 $72 forward single #
face $-1 $73 $74 $43 $-1 $75 forward single #
face $-1 $76 $77 $44 $-1 $78 reversed single #
face $-1 $79 $80 $45 $-1 $81 forward single #
face $-1 $82 $83 $46 $-1 $84 forward single #
face $-1 $85 $86 $47 $-1 $87 reversed single #
face $-1 $88 $89 $48 $-1 $90 forward single #
face $-1 $91 $92 $49 $-1 $93 forward single #
face $-1 $94 $95 $50 $-1 $96 reversed single #
face $-1 $97 $98 $51 $-1 $99 forward single #
face $-1 $100 $101 $52 $-1 $102 forward single #
face $-1 $103 $104 $53 $-1 $105 reversed single #
face $-1 $106 $107 $54 $-1 $108 forward single #
face $-1 $109 $110 $55 $-1 $111 forward single #
face $-1 $112 $113 $42 $-1 $114 reversed single #
loop $-1 $-1 $115 $56 #
plane-surface $-1 0 0 11.468263379936705 0 0 1 1 0 0 forward_v I I I I #
face $-1 $116 $117 $43 $-1 $118 reversed single #
loop $-1 $-1 $119 $57 #
plane-surface $-1 -48.087429143367274 0 -1.076047806994179 0 0 1 1 0 0 forward_v I I I I #
face $-1 $120 $121 $44 $-1 $122 reversed single #
loop $-1 $-1 $123 $58 #
plane-surface $-1 -39.693276329828656 42.721253943438789 128.95994965252251 1 0 0 0 -0.5877852598018023 -0.80901698891910034 forward_v I I I I #
face $-1 $124 $125 $45 $-1 $126 forward single #
loop $-1 $127 $128 $59 #
cone-surface $-1 -35.502794072092385 27.067719410235082 7.3459393261341503 0 -0.5877852598018023 -0.80901698891910034 1 0 0 1 I I 0 1 1 forward I I I I #
face $-1 $129 $130 $46 $-1 $131 forward single #
loop $-1 $132 $133 $60 #
cone-surface $-1 -29.217070685487979 27.067719410235082 7.3459393261341503 0 -0.5877852598018023 -0.80901698891910034 1 0 0 1 I I 0 1 1 forward I I I I #
face $-1 $134 $135 $47 $-1 $136 reversed single #
loop $-1 $-1 $137 $61 #
plane-surface $-1 -14.673447161964598 42.721253943438789 128.95994965252251 1 0 0 0 -0.5877852598018023 -0.80901698891910034 forward_v I I I I #
face $-1 $138 $139 $48 $-1 $140 forward single #
loop $-1 $141 $142 $62 #
cone-surface $-1 -10.482964904228332 27.067719410235082 7.3459393261341503 0 -0.5877852598018023 -0.80901698891910034 1 0 0 1 I I 0 1 1 forward I I I I #
face $-1 $143 $144 $49 $-1 $145 forward single #
loop $-1 $146 $147 $63 #
cone-surface $-1 -4.1972415176239224 27.067719410235082 7.3459393261341503 0 -0.5877852598018023 -0.80901698891910034 1 0 0 1 I I 0 1 1 forward I I I I #
face $-1 $148 $149 $50 $-1 $150 reversed single #
loop $-1 $-1 $151 $64 #
plane-surface $-1 10.346382005899462 42.721253943438789 128.95994965252251 1 0 0 0 -0.5877852598018023 -0.80901698891910034 forward_v I I I I #
face $-1 $152 $153 $51 $-1 $154 forward single #
loop $-1 $155 $156 $65 #
cone-surface $-1 14.536864263635728 27.067719410235082 7.3459393261341503 0 -0.5877852598018023 -0.80901698891910034 1 0 0 1 I I 0 1 1 forward I I I I #
face $-1 $157 $158 $52 $-1 $159 forward single #
loop $-1 $160 $161 $66 #
cone-surface $-1 20.822587650240131 27.067719410235082 7.3459393261341503 0 -0.5877852598018023 -0.80901698891910034 1 0 0 1 I I 0 1 1 forward I I I I #
face $-1 $162 $163 $53 $-1 $164 reversed single #
loop $-1 $-1 $165 $67 #
plane-surface $-1 35.366211173763524 42.721253943438789 128.95994965252251 1 0 0 0 -0.5877852598018023 -0.80901698891910034 forward_v I I I I #
face $-1 $166 $167 $54 $-1 $168 forward single #
loop $-1 $169 $170 $68 #
cone-surface $-1 39.556693431499788 27.067719410235082 7.3459393261341503 0 -0.5877852598018023 -0.80901698891910034 1 0 0 1 I I 0 1 1 forward I I I I #
face $-1 $171 $172 $55 $-1 $173 forward single #
loop $-1 $174 $175 $69 #
cone-surface $-1 45.842416818104191 27.067719410235082 7.3459393261341503 0 -0.5877852598018023 -0.80901698891910034 1 0 0 1 I I 0 1 1 forward I I I I #
face $-1 $176 $177 $42 $-1 $178 reversed single #
loop $-1 $-1 $179 $70 #
plane-surface $-1 0 0 -11.468263379936705 0 0 1 1 0 0 forward_v I I I I #
coedge $-1 $180 $181 $182 $183 forward $71 $-1 #
face $-1 $184 $185 $43 $-1 $186 reversed single #
loop $-1 $-1 $187 $73 #
plane-surface $-1 -48.087429143367274 0 -4.7583378860467036 0 0 1 1 0 0 forward_v I I I I #
coedge $-1 $188 $189 $190 $191 forward $74 $-1 #
face $-1 $192 $193 $44 $-1 $194 reversed single #
loop $-1 $-1 $195 $76 #
plane-surface $-1 -32.359932378790184 -19.886387963048172 42.787924931129425 0 0.5877852598018023 0.80901698891910034 1 0 0 forward_v I I I I #
coedge $-1 $196 $197 $198 $199 reversed $77 $-1 #
face $-1 $-1 $200 $45 $-1 $201 forward single #
loop $-1 $202 $203 $79 #
cone-surface $-1 -35.502794072092385 26.14240653275602 6.0723554356524474 0 -0.5877852598018023 -0.80901698891910034 0.5 0 0 1 I I -0.70710678118654746 0.70710678118654746 0.5 forward I I I I #
loop $-1 $-1 $204 $59 #
coedge $-1 $128 $128 $205 $206 reversed $80 $-1 #
face $-1 $-1 $207 $46 $-1 $208 forward single #
loop $-1 $209 $210 $82 #
cone-surface $-1 -29.217070685487979 26.14240653275602 6.0723554356524474 0 -0.5877852598018023 -0.80901698891910034 0.5 0 0 1 I I -0.70710678118654746 0.70710678118654746 0.5 forward I I I I #
loop $-1 $-1 $211 $60 #
coedge $-1 $133 $133 $212 $213 reversed $83 $-1 #
face $-1 $214 $215 $47 $-1 $216 reversed single #
loop $-1 $-1 $217 $85 #
plane-surface $-1 -7.3401032109261237 -19.886387963048172 42.787924931129425 0 0.5877852598018023 0.80901698891910034 1 0 0 forward_v I I I I #
coedge $-1 $218 $219 $220 $221 reversed $86 $-1 #
face $-1 $-1 $222 $48 $-1 $223 forward single #
loop $-1 $224 $225 $88 #
cone-surface $-1 -10.482964904228332 26.14240653275602 6.0723554356524474 0 -0.5877852598018023 -0.80901698891910034 0.5 0 0 1 I I -0.70710678118654746 0.70710678118654746 0.5 forward I I I I #
loop $-1 $-1 $226 $62 #
coedge $-1 $142 $142 $227 $228 reversed $89 $-1 #
face $-1 $-1 $229 $49 $-1 $230 forward single #
loop $-1 $231 $232 $91 #
cone-surface $-1 -4.1972415176239224 26.14240653275602 6.0723554356524474 0 -0.5877852598018023 -0.80901698891910034 0.5 0 0 1 I I -0.70710678118654746 0.70710678118654746 0.5 forward I I I I #
loop $-1 $-1 $233 $63 #
coedge $-1 $147 $147 $234 $235 reversed $92 $-1 #
face $-1 $236 $237 $50 $-1 $238 reversed single #
loop $-1 $-1 $239 $94 #
plane-surface $-1 17.679725956937936 -19.886387963048172 42.787924931129425 0 0.5877852598018023 0.80901698891910034 1 0 0 forward_v I I I I #
coedge $-1 $240 $241 $242 $243 reversed $95 $-1 #
face $-1 $-1 $244 $51 $-1 $245 forward single #
loop $-1 $246 $247 $97 #
cone-surface $-1 14.536864263635728 26.14240653275602 6.0723554356524474 0 -0.5877852598018023 -0.80901698891910034 0.5 0 0 1 I I -0.70710678118654746 0.70710678118654746 0.5 forward I I I I #
loop $-1 $-1 $248 $65 #
coedge $-1 $156 $156 $249 $250 reversed $98 $-1 #
face $-1 $-1 $251 $52 $-1 $252 forward single #
loop $-1 $253 $254 $100 #
cone-surface $-1 20.822587650240131 26.14240653275602 6.0723554356524474 0 -0.5877852598018023 -0.80901698891910034 0.5 0 0 1 I I -0.70710678118654746 0.70710678118654746 0.5 forward I I I I #
loop $-1 $-1 $255 $66 #
coedge $-1 $161 $161 $256 $257 reversed $101 $-1 #
face $-1 $258 $259 $53 $-1 $260 reversed single #
loop $-1 $-1 $261 $103 #
plane-surface $-1 42.699555124801996 -19.886387963048172 42.787924931129425 0 0.5877852598018023 0.80901698891910034 1 0 0 forward_v I I I I #
coedge $-1 $262 $263 $264 $265 reversed $104 $-1 #
face $-1 $-1 $266 $54 $-1 $267 forward single #
loop $-1 $268 $269 $106 #
cone-surface $-1 39.556693431499788 26.14240653275602 6.0723554356524474 0 -0.5877852598018023 -0.80901698891910034 0.5 0 0 1 I I -0.70710678118654746 0.70710678118654746 0.5 forward I I I I #
loop $-1 $-1 $270 $68 #
coedge $-1 $170 $170 $271 $272 reversed $107 $-1 #
face $-1 $-1 $273 $55 $-1 $274 forward single #
loop $-1 $275 $276 $109 #
cone-surface $-1 45.842416818104191 26.14240653275602 6.0723554356524474 0 -0.5877852598018023 -0.80901698891910034 0.5 0 0 1 I I -0.70710678118654746 0.70710678118654746 0.5 forward I I I I #
loop $-1 $-1 $277 $69 #
coedge $-1 $175 $175 $278 $279 reversed $110 $-1 #
face $-1 $280 $281 $42 $-1 $282 reversed single #
loop $-1 $-1 $283 $112 #
plane-surface $-1 0 -32.176852205776889 0 0 1 0 0 0 1 forward_v I I I I #
coedge $-1 $284 $285 $286 $287 forward $113 $-1 #
coedge $-1 $288 $115 $289 $290 forward $71 $-1 #
coedge $-1 $115 $288 $291 $292 forward $71 $-1 #
coedge $-1 $293 $294 $115 $183 reversed $295 $-1 #
edge $-1 $296 -32.176852205776889 $297 32.176852205776889 $182 $298 forward 7 unknown #
face $-1 $299 $300 $43 $-1 $301 reversed single #
loop $-1 $-1 $302 $116 #
plane-surface $-1 -42.917617770361367 0 -2.9171928465204413 -1 0 0 0 0 1 forward_v I I I I #
coedge $-1 $303 $304 $305 $306 forward $117 $-1 #
coedge $-1 $307 $119 $308 $309 reversed $74 $-1 #
coedge $-1 $119 $307 $310 $311 reversed $74 $-1 #
coedge $-1 $302 $312 $119 $191 reversed $185 $-1 #
edge $-1 $313 -32.176852205776889 $314 32.176852205776889 $190 $315 forward 7 unknown #
face $-1 $316 $317 $44 $-1 $318 forward single #
loop $-1 $-1 $319 $120 #
plane-surface $-1 -25.026588427751712 42.721253943438789 128.95994965252251 -1 0 0 0 0.5877852598018023 0.80901698891910034 forward_v I I I I #
coedge $-1 $320 $321 $322 $323 reversed $121 $-1 #
coedge $-1 $197 $123 $324 $325 reversed $77 $-1 #
coedge $-1 $123 $196 $320 $326 reversed $77 $-1 #
coedge $-1 $322 $327 $123 $199 forward $317 $-1 #
edge $-1 $328 -10.816225234057494 $329 -1.860800138130184 $198 $330 forward 7 unknown #
loop $-1 $-1 $205 $124 #
plane-surface $-1 -32.359932378790184 -19.886387963048172 42.787924931129425 0 0.5877852598018023 0.80901698891910034 1 0 0 forward_v I I I I #
loop $-1 $-1 $331 $79 #
coedge $-1 $203 $203 $204 $332 reversed $125 $-1 #
coedge $-1 $204 $204 $203 $332 forward $127 $-1 #
coedge $-1 $205 $205 $128 $206 forward $200 $-1 #
edge $-1 $333 -2.0882327326951692e-015 $333 6.2831853071795987 $205 $334 forward 7 unknown #
loop $-1 $-1 $212 $129 #
plane-surface $-1 -32.359932378790184 -19.886387963048172 42.787924931129425 0 0.5877852598018023 0.80901698891910034 1 0 0 forward_v I I I I #
loop $-1 $-1 $335 $82 #
coedge $-1 $210 $210 $211 $336 reversed $130 $-1 #
coedge $-1 $211 $211 $210 $336 forward $132 $-1 #
coedge $-1 $212 $212 $133 $213 forward $207 $-1 #
edge $-1 $337 -2.0882327326951692e-015 $337 6.2831853071795987 $212 $338 forward 7 unknown #
face $-1 $339 $340 $47 $-1 $341 forward single #
loop $-1 $-1 $342 $134 #
plane-surface $-1 -0.0067592598876498045 42.721253943438789 128.95994965252251 -1 0 0 0 0.5877852598018023 0.80901698891910034 forward_v I I I I #
coedge $-1 $343 $344 $345 $346 reversed $135 $-1 #
coedge $-1 $219 $137 $347 $348 reversed $86 $-1 #
coedge $-1 $137 $218 $343 $349 reversed $86 $-1 #
coedge $-1 $345 $350 $137 $221 forward $340 $-1 #
edge $-1 $351 -10.816225234057494 $352 -1.860800138130184 $220 $353 forward 7 unknown #
loop $-1 $-1 $227 $138 #
plane-surface $-1 -7.3401032109261237 -19.886387963048172 42.787924931129425 0 0.5877852598018023 0.80901698891910034 1 0 0 forward_v I I I I #
loop $-1 $-1 $354 $88 #
coedge $-1 $225 $225 $226 $355 reversed $139 $-1 #
coedge $-1 $226 $226 $225 $355 forward $141 $-1 #
coedge $-1 $227 $227 $142 $228 forward $222 $-1 #
edge $-1 $356 -2.0882327326951692e-015 $356 6.2831853071795987 $227 $357 forward 7 unknown #
loop $-1 $-1 $234 $143 #
plane-surface $-1 -7.3401032109261237 -19.886387963048172 42.787924931129425 0 0.5877852598018023 0.80901698891910034 1 0 0 forward_v I I I I #
loop $-1 $-1 $358 $91 #
coedge $-1 $232 $232 $233 $359 reversed $144 $-1 #
coedge $-1 $233 $233 $232 $359 forward $146 $-1 #
coedge $-1 $234 $234 $147 $235 forward $229 $-1 #
edge $-1 $360 -2.0882327326951692e-015 $360 6.2831853071795987 $234 $361 forward 7 unknown #
face $-1 $362 $363 $50 $-1 $364 forward single #
loop $-1 $-1 $365 $148 #
plane-surface $-1 25.013069907976409 42.721253943438789 128.95994965252251 -1 0 0 0 0.5877852598018023 0.80901698891910034 forward_v I I I I #
coedge $-1 $366 $367 $368 $369 reversed $149 $-1 #
coedge $-1 $241 $151 $370 $371 reversed $95 $-1 #
coedge $-1 $151 $240 $366 $372 reversed $95 $-1 #
coedge $-1 $368 $373 $151 $243 forward $363 $-1 #
edge $-1 $374 -10.816225234057494 $375 -1.860800138130184 $242 $376 forward 7 unknown #
loop $-1 $-1 $249 $152 #
plane-surface $-1 17.679725956937936 -19.886387963048172 42.787924931129425 0 0.5877852598018023 0.80901698891910034 1 0 0 forward_v I I I I #
loop $-1 $-1 $377 $97 #
coedge $-1 $247 $247 $248 $378 reversed $153 $-1 #
coedge $-1 $248 $248 $247 $378 forward $155 $-1 #
coedge $-1 $249 $249 $156 $250 forward $244 $-1 #
edge $-1 $379 -2.0882327326951692e-015 $379 6.2831853071795987 $249 $380 forward 7 unknown #
loop $-1 $-1 $256 $157 #
plane-surface $-1 17.679725956937936 -19.886387963048172 42.787924931129425 0 0.5877852598018023 0.80901698891910034 1 0 0 forward_v I I I I #
loop $-1 $-1 $381 $100 #
coedge $-1 $254 $254 $255 $382 reversed $158 $-1 #
coedge $-1 $255 $255 $254 $382 forward $160 $-1 #
coedge $-1 $256 $256 $161 $257 forward $251 $-1 #
edge $-1 $383 -2.0882327326951692e-015 $383 6.2831853071795987 $256 $384 forward 7 unknown #
face $-1 $385 $386 $53 $-1 $387 forward single #
loop $-1 $-1 $388 $162 #
plane-surface $-1 50.032899075840469 42.721253943438789 128.95994965252251 -1 0 0 0 0.5877852598018023 0.80901698891910034 forward_v I I I I #
coedge $-1 $389 $390 $391 $392 reversed $163 $-1 #
coedge $-1 $263 $165 $393 $394 reversed $104 $-1 #
coedge $-1 $165 $262 $389 $395 reversed $104 $-1 #
coedge $-1 $391 $396 $165 $265 forward $386 $-1 #
edge $-1 $397 -10.816225234057494 $398 -1.860800138130184 $264 $399 forward 7 unknown #
loop $-1 $-1 $271 $166 #
plane-surface $-1 42.699555124801996 -19.886387963048172 42.787924931129425 0 0.5877852598018023 0.80901698891910034 1 0 0 forward_v I I I I #
loop $-1 $-1 $400 $106 #
coedge $-1 $269 $269 $270 $401 reversed $167 $-1 #
coedge $-1 $270 $270 $269 $401 forward $169 $-1 #
coedge $-1 $271 $271 $170 $272 forward $266 $-1 #
edge $-1 $402 -2.0882327326951692e-015 $402 6.2831853071795987 $271 $403 forward 7 unknown #
loop $-1 $-1 $278 $171 #
plane-surface $-1 42.699555124801996 -19.886387963048172 42.787924931129425 0 0.5877852598018023 0.80901698891910034 1 0 0 forward_v I I I I #
loop $-1 $-1 $404 $109 #
coedge $-1 $276 $276 $277 $405 reversed $172 $-1 #
coedge $-1 $277 $277 $276 $405 forward $174 $-1 #
coedge $-1 $278 $278 $175 $279 forward $273 $-1 #
edge $-1 $406 -2.0882327326951692e-015 $406 6.2831853071795987 $278 $407 forward 7 unknown #
face $-1 $408 $409 $42 $-1 $410 reversed single #
loop $-1 $-1 $411 $176 #
plane-surface $-1 -53.25724051637318 0 0 1 0 0 0 0 -1 forward_v I I I I #
coedge $-1 $412 $291 $413 $414 forward $177 $-1 #
coedge $-1 $415 $179 $412 $416 forward $113 $-1 #
coedge $-1 $179 $415 $417 $418 forward $113 $-1 #
coedge $-1 $294 $293 $179 $287 reversed $295 $-1 #
edge $-1 $419 -32.176852205776889 $420 32.176852205776889 $286 $421 forward 7 unknown #
coedge $-1 $181 $180 $422 $423 forward $71 $-1 #
coedge $-1 $424 $425 $180 $290 reversed $409 $-1 #
edge $-1 $297 -53.25724051637318 $426 53.25724051637318 $289 $427 forward 7 unknown #
coedge $-1 $283 $428 $181 $292 reversed $177 $-1 #
edge $-1 $429 -53.25724051637318 $296 53.25724051637318 $291 $430 forward 7 unknown #
coedge $-1 $286 $182 $428 $431 forward $295 $-1 #
coedge $-1 $182 $286 $424 $432 reversed $295 $-1 #
loop $-1 $-1 $293 $408 #
vertex $-1 $183 $433 #
vertex $-1 $183 $434 #
straight-curve $-1 53.25724051637318 0 11.468263379936705 0 1 0 I I #
face $-1 $435 $436 $43 $-1 $437 reversed single #
loop $-1 $-1 $438 $184 #
plane-surface $-1 0 -32.176852205776889 0 0 1 0 0 0 1 forward_v I I I I #
coedge $-1 $305 $190 $439 $440 reversed $185 $-1 #
coedge $-1 $441 $187 $438 $442 reversed $117 $-1 #
coedge $-1 $187 $441 $443 $444 reversed $117 $-1 #
coedge $-1 $312 $302 $187 $306 reversed $185 $-1 #
edge $-1 $445 -32.176852205776889 $446 32.176852205776889 $305 $447 forward 7 unknown #
coedge $-1 $189 $188 $448 $449 reversed $74 $-1 #
coedge $-1 $450 $451 $188 $309 forward $452 $-1 #
edge $-1 $453 -29.213525944689543 $314 -18.873903198677731 $308 $454 forward 7 unknown #
coedge $-1 $455 $439 $189 $311 forward $300 $-1 #
edge $-1 $313 18.873903198677731 $456 29.213525944689543 $310 $457 forward 7 unknown #
coedge $-1 $190 $305 $450 $458 reversed $185 $-1 #
vertex $-1 $311 $459 #
vertex $-1 $309 $460 #
straight-curve $-1 -42.917617770361367 0 -1.076047806994179 0 1 0 I I #
face $-1 $-1 $461 $44 $-1 $462 reversed single #
loop $-1 $-1 $198 $192 #
plane-surface $-1 0 0 11.468263379936705 0 0 1 1 0 0 forward_v I I I I #
coedge $-1 $463 $464 $465 $466 reversed $193 $-1 #
coedge $-1 $467 $195 $197 $326 forward $121 $-1 #
coedge $-1 $195 $467 $463 $468 forward $121 $-1 #
coedge $-1 $465 $198 $195 $323 forward $317 $-1 #
edge $-1 $329 -23.513310140433564 $469 -8.8466222383566198 $322 $470 forward 7 unknown #
coedge $-1 $471 $472 $196 $325 forward $461 $-1 #
edge $-1 $473 -59.518208761885361 $328 -53.011711446324554 $324 $474 forward 7 unknown #
edge $-1 $329 53.284190150929476 $473 64.353704411553778 $197 $475 forward 7 unknown #
coedge $-1 $198 $465 $471 $476 forward $317 $-1 #
vertex $-1 $325 $477 #
vertex $-1 $199 $478 #
straight-curve $-1 -39.693276329828656 21.360626971719395 11.468263379936701 0 -1 0 I I #
coedge $-1 $331 $331 $-1 $479 reversed $202 $-1 #
edge $-1 $480 0 $480 6.2831853071796004 $203 $481 forward 7 unknown #
vertex $-1 $206 $482 #
ellipse-curve $-1 -35.502794072092385 27.699139657813237 8.2150147221562975 0 0.5877852598018023 0.80901698891910034 1 0 0 1 I I #
coedge $-1 $335 $335 $-1 $483 reversed $209 $-1 #
edge $-1 $484 0 $484 6.2831853071796004 $210 $485 forward 7 unknown #
vertex $-1 $213 $486 #
ellipse-curve $-1 -29.217070685487979 27.699139657813237 8.2150147221562975 0 0.5877852598018023 0.80901698891910034 1 0 0 1 I I #
face $-1 $-1 $487 $47 $-1 $488 reversed single #
loop $-1 $-1 $220 $214 #
plane-surface $-1 0 0 11.468263379936705 0 0 1 1 0 0 forward_v I I I I #
coedge $-1 $489 $490 $491 $492 reversed $215 $-1 #
coedge $-1 $493 $217 $219 $349 forward $135 $-1 #
coedge $-1 $217 $493 $489 $494 forward $135 $-1 #
coedge $-1 $491 $220 $217 $346 forward $340 $-1 #
edge $-1 $352 -11.003395556501536 $495 3.6632923455754121 $345 $496 forward 7 unknown #
coedge $-1 $497 $498 $218 $348 forward $487 $-1 #
edge $-1 $499 -59.518208761885361 $351 -53.011711446324554 $347 $500 forward 7 unknown #
edge $-1 $352 53.284190150929476 $499 64.353704411553778 $219 $501 forward 7 unknown #
coedge $-1 $220 $491 $497 $502 forward $340 $-1 #
vertex $-1 $221 $503 #
vertex $-1 $221 $504 #
straight-curve $-1 -14.673447161964598 21.360626971719395 11.468263379936701 0 -1 0 I I #
coedge $-1 $354 $354 $-1 $505 reversed $224 $-1 #
edge $-1 $506 0 $506 6.2831853071796004 $225 $507 forward 7 unknown #
vertex $-1 $228 $508 #
ellipse-curve $-1 -10.482964904228332 27.699139657813237 8.2150147221562975 0 0.5877852598018023 0.80901698891910034 1 0 0 1 I I #
coedge $-1 $358 $358 $-1 $509 reversed $231 $-1 #
edge $-1 $510 0 $510 6.2831853071796004 $232 $511 forward 7 unknown #
vertex $-1 $235 $512 #
ellipse-curve $-1 -4.1972415176239224 27.699139657813237 8.2150147221562975 0 0.5877852598018023 0.80901698891910034 1 0 0 1 I I #
face $-1 $-1 $513 $50 $-1 $514 reversed single #
loop $-1 $-1 $242 $236 #
plane-surface $-1 0 0 11.468263379936705 0 0 1 1 0 0 forward_v I I I I #
coedge $-1 $515 $516 $517 $518 reversed $237 $-1 #
coedge $-1 $519 $239 $241 $372 forward $149 $-1 #
coedge $-1 $239 $519 $515 $520 forward $149 $-1 #
coedge $-1 $517 $242 $239 $369 forward $363 $-1 #
edge $-1 $375 1.5065190274304943 $521 16.17320692950744 $368 $522 forward 7 unknown #
coedge $-1 $523 $524 $240 $371 forward $513 $-1 #
edge $-1 $525 -59.518208761885361 $374 -53.011711446324554 $370 $526 forward 7 unknown #
edge $-1 $375 53.284190150929476 $525 64.353704411553778 $241 $527 forward 7 unknown #
coedge $-1 $242 $517 $523 $528 forward $363 $-1 #
vertex $-1 $243 $529 #
vertex $-1 $243 $530 #
straight-curve $-1 10.346382005899462 21.360626971719395 11.468263379936701 0 -1 0 I I #
coedge $-1 $377 $377 $-1 $531 reversed $246 $-1 #
edge $-1 $532 0 $532 6.2831853071796004 $247 $533 forward 7 unknown #
vertex $-1 $250 $534 #
ellipse-curve $-1 14.536864263635728 27.699139657813237 8.2150147221562975 0 0.5877852598018023 0.80901698891910034 1 0 0 1 I I #
coedge $-1 $381 $381 $-1 $535 reversed $253 $-1 #
edge $-1 $536 0 $536 6.2831853071796004 $254 $537 forward 7 unknown #
vertex $-1 $257 $538 #
ellipse-curve $-1 20.822587650240131 27.699139657813237 8.2150147221562975 0 0.5877852598018023 0.80901698891910034 1 0 0 1 I I #
face $-1 $-1 $539 $53 $-1 $540 reversed single #
loop $-1 $-1 $264 $258 #
plane-surface $-1 0 0 11.468263379936705 0 0 1 1 0 0 forward_v I I I I #
coedge $-1 $541 $542 $543 $544 reversed $259 $-1 #
coedge $-1 $545 $261 $263 $395 forward $163 $-1 #
coedge $-1 $261 $545 $541 $546 forward $163 $-1 #
coedge $-1 $543 $264 $261 $392 forward $386 $-1 #
edge $-1 $398 14.016433611362526 $547 28.68312151343947 $391 $548 forward 7 unknown #
coedge $-1 $549 $550 $262 $394 forward $539 $-1 #
edge $-1 $551 -59.518208761885361 $397 -53.011711446324554 $393 $552 forward 7 unknown #
edge $-1 $398 53.284190150929476 $551 64.353704411553778 $263 $553 forward 7 unknown #
coedge $-1 $264 $543 $549 $554 forward $386 $-1 #
vertex $-1 $265 $555 #
vertex $-1 $265 $556 #
straight-curve $-1 35.366211173763524 21.360626971719395 11.468263379936701 0 -1 0 I I #
coedge $-1 $400 $400 $-1 $557 reversed $268 $-1 #
edge $-1 $558 0 $558 6.2831853071796004 $269 $559 forward 7 unknown #
vertex $-1 $272 $560 #
ellipse-curve $-1 39.556693431499788 27.699139657813237 8.2150147221562975 0 0.5877852598018023 0.80901698891910034 1 0 0 1 I I #
coedge $-1 $404 $404 $-1 $561 reversed $275 $-1 #
edge $-1 $562 0 $562 6.2831853071796004 $276 $563 forward 7 unknown #
vertex $-1 $279 $564 #
ellipse-curve $-1 45.842416818104191 27.699139657813237 8.2150147221562975 0 0.5877852598018023 0.80901698891910034 1 0 0 1 I I #
face $-1 $-1 $295 $42 $-1 $565 reversed single #
loop $-1 $-1 $424 $280 #
plane-surface $-1 0 32.176852205776889 0 0 -1 0 0 0 -1 forward_v I I I I #
coedge $-1 $566 $422 $425 $567 forward $281 $-1 #
coedge $-1 $428 $283 $284 $416 reversed $177 $-1 #
coedge $-1 $422 $566 $283 $414 reversed $281 $-1 #
edge $-1 $429 -11.468263379936705 $568 11.468263379936705 $413 $569 forward 7 unknown #
coedge $-1 $285 $284 $566 $570 forward $113 $-1 #
edge $-1 $420 -53.25724051637318 $568 53.25724051637318 $412 $571 forward 7 unknown #
coedge $-1 $425 $424 $285 $418 reversed $409 $-1 #
edge $-1 $572 -53.25724051637318 $419 53.25724051637318 $417 $573 forward 7 unknown #
vertex $-1 $287 $574 #
vertex $-1 $431 $575 #
straight-curve $-1 53.25724051637318 0 -11.468263379936705 0 -1 0 I I #
coedge $-1 $411 $413 $288 $423 reversed $281 $-1 #
edge $-1 $426 -32.176852205776889 $429 32.176852205776889 $422 $576 forward 7 unknown #
coedge $-1 $417 $289 $294 $432 forward $409 $-1 #
coedge $-1 $289 $417 $411 $567 reversed $409 $-1 #
vertex $-1 $290 $577 #
straight-curve $-1 0 32.176852205776889 11.468263379936705 -1 0 0 I I #
coedge $-1 $291 $412 $293 $431 reversed $177 $-1 #
vertex $-1 $423 $578 #
straight-curve $-1 0 -32.176852205776889 11.468263379936705 1 0 0 I I #
edge $-1 $296 -11.468263379936705 $420 11.468263379936705 $293 $579 forward 7 unknown #
edge $-1 $297 -11.468263379936705 $419 11.468263379936705 $294 $580 forward 7 unknown #
point $-1 53.25724051637318 -32.176852205776889 11.468263379936705 #
point $-1 53.25724051637318 32.176852205776889 11.468263379936705 #
face $-1 $-1 $452 $43 $-1 $581 reversed single #
loop $-1 $-1 $582 $299 #
plane-surface $-1 -53.25724051637318 0 0 1 0 0 0 0 -1 forward_v I I I I #
coedge $-1 $439 $455 $303 $442 forward $300 $-1 #
coedge $-1 $310 $438 $302 $440 forward $300 $-1 #
edge $-1 $446 -3.2997414627864829 $313 0.38254861626604164 $439 $583 forward 7 unknown #
coedge $-1 $304 $303 $582 $584 reversed $117 $-1 #
edge $-1 $585 -29.213525944689543 $446 -18.873903198677731 $438 $586 forward 7 unknown #
coedge $-1 $451 $450 $304 $444 forward $452 $-1 #
edge $-1 $445 18.873903198677731 $587 29.213525944689543 $443 $588 forward 7 unknown #
vertex $-1 $444 $589 #
vertex $-1 $442 $590 #
straight-curve $-1 -42.917617770361367 0 -4.7583378860467036 0 -1 0 I I #
coedge $-1 $591 $592 $307 $449 forward $436 $-1 #
edge $-1 $456 -32.176852205776889 $453 32.176852205776889 $448 $593 forward 7 unknown #
coedge $-1 $443 $308 $312 $458 forward $452 $-1 #
coedge $-1 $308 $443 $591 $594 reversed $452 $-1 #
loop $-1 $-1 $443 $435 #
vertex $-1 $594 $595 #
straight-curve $-1 -24.043714571683637 32.176852205776889 -1.076047806994179 1 0 0 I I #
coedge $-1 $438 $310 $592 $596 forward $300 $-1 #
vertex $-1 $596 $597 #
straight-curve $-1 -24.043714571683637 -32.176852205776889 -1.076047806994179 -1 0 0 I I #
edge $-1 $314 -0.38254861626604164 $445 3.2997414627864829 $450 $598 forward 7 unknown #
point $-1 -42.917617770361367 -32.176852205776889 -1.076047806994179 #
point $-1 -42.917617770361367 32.176852205776889 -1.076047806994179 #
loop $-1 $-1 $324 $316 #
plane-surface $-1 0 32.176852205776889 0 0 -1 0 0 0 -1 forward_v I I I I #
coedge $-1 $464 $319 $321 $468 reversed $193 $-1 #
coedge $-1 $319 $463 $599 $600 reversed $193 $-1 #
coedge $-1 $327 $322 $319 $466 forward $317 $-1 #
edge $-1 $469 1.860800138130184 $601 10.816225234057494 $465 $602 forward 7 unknown #
coedge $-1 $321 $320 $472 $603 reversed $121 $-1 #
edge $-1 $604 -64.353704411553778 $469 -53.284190150929476 $463 $605 forward 7 unknown #
vertex $-1 $323 $606 #
straight-curve $-1 -16.179966189395092 23.221427109849579 11.468263379936705 1 0 0 I I #
coedge $-1 $599 $324 $327 $476 reversed $461 $-1 #
coedge $-1 $324 $599 $467 $603 forward $461 $-1 #
vertex $-1 $325 $607 #
straight-curve $-1 -39.693276329828656 32.176852205776889 64.479974826261255 0 0 1 I I #
straight-curve $-1 -39.693276329828656 -19.886387963048172 42.787924931129425 0 0.80901698891910034 -0.5877852598018023 I I #
edge $-1 $601 25.026588427751712 $328 39.693276329828656 $471 $608 forward 7 unknown #
point $-1 -39.693276329828656 32.176852205776889 11.468263379936705 #
point $-1 -39.693276329828656 23.221427109849579 11.468263379936705 #
edge $-1 $609 1 $609 0 $331 $-1 forward 7 unknown #
vertex $-1 $332 $610 #
ellipse-curve $-1 -35.502794072092385 26.436299162656923 6.4768639301119979 0 0.5877852598018023 0.80901698891910034 1 0 0 1 I I #
point $-1 -34.502794072092385 27.699139657813237 8.215014722156301 #
edge $-1 $611 1 $611 0 $335 $-1 forward 7 unknown #
vertex $-1 $336 $612 #
ellipse-curve $-1 -29.217070685487979 26.436299162656923 6.4768639301119979 0 0.5877852598018023 0.80901698891910034 1 0 0 1 I I #
point $-1 -28.217070685487979 27.699139657813237 8.215014722156301 #
loop $-1 $-1 $347 $339 #
plane-surface $-1 0 32.176852205776889 0 0 -1 0 0 0 -1 forward_v I I I I #
coedge $-1 $490 $342 $344 $494 reversed $215 $-1 #
coedge $-1 $342 $489 $613 $614 reversed $215 $-1 #
coedge $-1 $350 $345 $342 $492 forward $340 $-1 #
edge $-1 $495 1.860800138130184 $615 10.816225234057494 $491 $616 forward 7 unknown #
coedge $-1 $344 $343 $498 $617 reversed $135 $-1 #
edge $-1 $618 -64.353704411553778 $495 -53.284190150929476 $489 $619 forward 7 unknown #
vertex $-1 $346 $620 #
straight-curve $-1 -3.6700516054630619 23.221427109849579 11.468263379936705 1 0 0 I I #
coedge $-1 $613 $347 $350 $502 reversed $487 $-1 #
coedge $-1 $347 $613 $493 $617 forward $487 $-1 #
vertex $-1 $348 $621 #
straight-curve $-1 -14.673447161964598 32.176852205776889 64.479974826261255 0 0 1 I I #
straight-curve $-1 -14.673447161964598 -19.886387963048172 42.787924931129425 0 0.80901698891910034 -0.5877852598018023 I I #
edge $-1 $615 0.0067592598876498045 $351 14.673447161964598 $497 $622 forward 7 unknown #
point $-1 -14.673447161964598 32.176852205776889 11.468263379936705 #
point $-1 -14.673447161964598 23.221427109849579 11.468263379936705 #
edge $-1 $623 1 $623 0 $354 $-1 forward 7 unknown #
vertex $-1 $355 $624 #
ellipse-curve $-1 -10.482964904228332 26.436299162656923 6.4768639301119979 0 0.5877852598018023 0.80901698891910034 1 0 0 1 I I #
point $-1 -9.4829649042283322 27.699139657813237 8.215014722156301 #
edge $-1 $625 1 $625 0 $358 $-1 forward 7 unknown #
vertex $-1 $359 $626 #
ellipse-curve $-1 -4.1972415176239224 26.436299162656923 6.4768639301119979 0 0.5877852598018023 0.80901698891910034 1 0 0 1 I I #
point $-1 -3.1972415176239224 27.699139657813237 8.215014722156301 #
loop $-1 $-1 $370 $362 #
plane-surface $-1 0 32.176852205776889 0 0 -1 0 0 0 -1 forward_v I I I I #
coedge $-1 $516 $365 $367 $520 reversed $237 $-1 #
coedge $-1 $365 $515 $627 $628 reversed $237 $-1 #
coedge $-1 $373 $368 $365 $518 forward $363 $-1 #
edge $-1 $521 1.860800138130184 $629 10.816225234057494 $517 $630 forward 7 unknown #
coedge $-1 $367 $366 $524 $631 reversed $149 $-1 #
edge $-1 $632 -64.353704411553778 $521 -53.284190150929476 $515 $633 forward 7 unknown #
vertex $-1 $369 $634 #
straight-curve $-1 8.8398629784689682 23.221427109849579 11.468263379936705 1 0 0 I I #
coedge $-1 $627 $370 $373 $528 reversed $513 $-1 #
coedge $-1 $370 $627 $519 $631 forward $513 $-1 #
vertex $-1 $371 $635 #
straight-curve $-1 10.346382005899462 32.176852205776889 64.479974826261255 0 0 1 I I #
straight-curve $-1 10.346382005899462 -19.886387963048172 42.787924931129425 0 0.80901698891910034 -0.5877852598018023 I I #
edge $-1 $629 -25.013069907976409 $374 -10.346382005899462 $523 $636 forward 7 unknown #
point $-1 10.346382005899462 32.176852205776889 11.468263379936705 #
point $-1 10.346382005899462 23.221427109849579 11.468263379936705 #
edge $-1 $637 1 $637 0 $377 $-1 forward 7 unknown #
vertex $-1 $378 $638 #
ellipse-curve $-1 14.536864263635728 26.436299162656923 6.4768639301119979 0 0.5877852598018023 0.80901698891910034 1 0 0 1 I I #
point $-1 15.536864263635728 27.699139657813237 8.215014722156301 #
edge $-1 $639 1 $639 0 $381 $-1 forward 7 unknown #
vertex $-1 $382 $640 #
ellipse-curve $-1 20.822587650240131 26.436299162656923 6.4768639301119979 0 0.5877852598018023 0.80901698891910034 1 0 0 1 I I #
point $-1 21.822587650240131 27.699139657813237 8.215014722156301 #
loop $-1 $-1 $393 $385 #
plane-surface $-1 0 32.176852205776889 0 0 -1 0 0 0 -1 forward_v I I I I #
coedge $-1 $542 $388 $390 $546 reversed $259 $-1 #
coedge $-1 $388 $541 $641 $642 reversed $259 $-1 #
coedge $-1 $396 $391 $388 $544 forward $386 $-1 #
edge $-1 $547 1.860800138130184 $643 10.816225234057494 $543 $644 forward 7 unknown #
coedge $-1 $390 $389 $550 $645 reversed $163 $-1 #
edge $-1 $646 -64.353704411553778 $547 -53.284190150929476 $541 $647 forward 7 unknown #
vertex $-1 $392 $648 #
straight-curve $-1 21.349777562400998 23.221427109849579 11.468263379936705 1 0 0 I I #
coedge $-1 $641 $393 $396 $554 reversed $539 $-1 #
coedge $-1 $393 $641 $545 $645 forward $539 $-1 #
vertex $-1 $394 $649 #
straight-curve $-1 35.366211173763524 32.176852205776889 64.479974826261255 0 0 1 I I #
straight-curve $-1 35.366211173763524 -19.886387963048172 42.787924931129425 0 0.80901698891910034 -0.5877852598018023 I I #
edge $-1 $643 -50.032899075840469 $397 -35.366211173763524 $549 $650 forward 7 unknown #
point $-1 35.366211173763524 32.176852205776889 11.468263379936705 #
point $-1 35.366211173763524 23.221427109849579 11.468263379936705 #
edge $-1 $651 1 $651 0 $400 $-1 forward 7 unknown #
vertex $-1 $401 $652 #
ellipse-curve $-1 39.556693431499788 26.436299162656923 6.4768639301119979 0 0.5877852598018023 0.80901698891910034 1 0 0 1 I I #
point $-1 40.556693431499788 27.699139657813237 8.215014722156301 #
edge $-1 $653 1 $653 0 $404 $-1 forward 7 unknown #
vertex $-1 $405 $654 #
ellipse-curve $-1 45.842416818104191 26.436299162656923 6.4768639301119979 0 0.5877852598018023 0.80901698891910034 1 0 0 1 I I #
point $-1 46.842416818104191 27.699139657813237 8.215014722156301 #
plane-surface $-1 53.25724051637318 0 0 -1 0 0 0 0 1 forward_v I I I I #
coedge $-1 $413 $411 $415 $570 reversed $281 $-1 #
edge $-1 $426 -11.468263379936705 $572 11.468263379936705 $425 $655 forward 7 unknown #
vertex $-1 $570 $656 #
straight-curve $-1 -53.25724051637318 -32.176852205776889 0 0 0 -1 I I #
edge $-1 $568 -32.176852205776889 $572 32.176852205776889 $566 $657 forward 7 unknown #
straight-curve $-1 0 -32.176852205776889 -11.468263379936705 -1 0 0 I I #
vertex $-1 $418 $658 #
straight-curve $-1 0 32.176852205776889 -11.468263379936705 1 0 0 I I #
point $-1 53.25724051637318 32.176852205776889 -11.468263379936705 #
point $-1 53.25724051637318 -32.176852205776889 -11.468263379936705 #
straight-curve $-1 -53.25724051637318 0 11.468263379936705 0 -1 0 I I #
point $-1 -53.25724051637318 32.176852205776889 11.468263379936705 #
point $-1 -53.25724051637318 -32.176852205776889 11.468263379936705 #
straight-curve $-1 53.25724051637318 -32.176852205776889 0 0 0 -1 I I #
straight-curve $-1 53.25724051637318 32.176852205776889 0 0 0 -1 I I #
plane-surface $-1 0 32.176852205776889 0 0 -1 0 0 0 -1 forward_v I I I I #
coedge $-1 $592 $591 $441 $584 forward $436 $-1 #
straight-curve $-1 -42.917617770361367 -32.176852205776889 -1.4585964232602207 0 0 1 I I #
edge $-1 $587 -32.176852205776889 $585 32.176852205776889 $582 $659 forward 7 unknown #
vertex $-1 $442 $660 #
straight-curve $-1 -24.043714571683637 -32.176852205776889 -4.7583378860467036 1 0 0 I I #
vertex $-1 $444 $661 #
straight-curve $-1 -24.043714571683637 32.176852205776889 -4.7583378860467036 -1 0 0 I I #
point $-1 -42.917617770361367 32.176852205776889 -4.7583378860467036 #
point $-1 -42.917617770361367 -32.176852205776889 -4.7583378860467036 #
coedge $-1 $582 $448 $451 $594 forward $436 $-1 #
coedge $-1 $448 $582 $455 $596 reversed $436 $-1 #
straight-curve $-1 -53.25724051637318 0 -1.076047806994179 0 1 0 I I #
edge $-1 $453 1.076047806994179 $587 4.7583378860467036 $451 $662 forward 7 unknown #
point $-1 -53.25724051637318 32.176852205776889 -1.076047806994179 #
edge $-1 $456 1.076047806994179 $585 4.7583378860467036 $592 $663 forward 7 unknown #
point $-1 -53.25724051637318 -32.176852205776889 -1.076047806994179 #
straight-curve $-1 -42.917617770361367 32.176852205776889 -1.4585964232602207 0 0 -1 I I #
coedge $-1 $472 $471 $464 $600 forward $461 $-1 #
edge $-1 $601 53.011711446324554 $604 59.518208761885361 $599 $664 forward 7 unknown #
vertex $-1 $476 $665 #
straight-curve $-1 -25.026588427751712 21.360626971719395 11.468263379936701 0 1 0 I I #
edge $-1 $604 8.8466222383566198 $473 23.513310140433564 $472 $666 forward 7 unknown #
vertex $-1 $603 $667 #
straight-curve $-1 -25.026588427751712 -19.886387963048172 42.787924931129425 0 -0.80901698891910034 0.5877852598018023 I I #
point $-1 -25.026588427751712 23.221427109849579 11.468263379936705 #
point $-1 -39.693276329828656 32.176852205776889 4.9617660643758938 #
straight-curve $-1 0 32.176852205776889 11.468263379936705 -1 0 0 I I #
vertex $-1 $479 $668 #
point $-1 -34.502794072092385 26.436299162656923 6.4768639301119979 #
vertex $-1 $483 $669 #
point $-1 -28.217070685487979 26.436299162656923 6.4768639301119979 #
coedge $-1 $498 $497 $490 $614 forward $487 $-1 #
edge $-1 $615 53.011711446324554 $618 59.518208761885361 $613 $670 forward 7 unknown #
vertex $-1 $502 $671 #
straight-curve $-1 -0.0067592598876498045 21.360626971719395 11.468263379936701 0 1 0 I I #
edge $-1 $618 -3.6632923455754121 $499 11.003395556501536 $498 $672 forward 7 unknown #
vertex $-1 $617 $673 #
straight-curve $-1 -0.0067592598876498045 -19.886387963048172 42.787924931129425 0 -0.80901698891910034 0.5877852598018023 I I #
point $-1 -0.0067592598876498045 23.221427109849579 11.468263379936705 #
point $-1 -14.673447161964598 32.176852205776889 4.9617660643758938 #
straight-curve $-1 0 32.176852205776889 11.468263379936705 -1 0 0 I I #
vertex $-1 $505 $674 #
point $-1 -9.4829649042283322 26.436299162656923 6.4768639301119979 #
vertex $-1 $509 $675 #
point $-1 -3.1972415176239224 26.436299162656923 6.4768639301119979 #
coedge $-1 $524 $523 $516 $628 forward $513 $-1 #
edge $-1 $629 53.011711446324554 $632 59.518208761885361 $627 $676 forward 7 unknown #
vertex $-1 $528 $677 #
straight-curve $-1 25.013069907976409 21.360626971719395 11.468263379936701 0 1 0 I I #
edge $-1 $632 -16.17320692950744 $525 -1.5065190274304943 $524 $678 forward 7 unknown #
vertex $-1 $631 $679 #
straight-curve $-1 25.013069907976409 -19.886387963048172 42.787924931129425 0 -0.80901698891910034 0.5877852598018023 I I #
point $-1 25.013069907976409 23.221427109849579 11.468263379936705 #
point $-1 10.346382005899462 32.176852205776889 4.9617660643758938 #
straight-curve $-1 0 32.176852205776889 11.468263379936705 -1 0 0 I I #
vertex $-1 $531 $680 #
point $-1 15.536864263635728 26.436299162656923 6.4768639301119979 #
vertex $-1 $535 $681 #
point $-1 21.822587650240131 26.436299162656923 6.4768639301119979 #
coedge $-1 $550 $549 $542 $642 forward $539 $-1 #
edge $-1 $643 53.011711446324554 $646 59.518208761885361 $641 $682 forward 7 unknown #
vertex $-1 $554 $683 #
straight-curve $-1 50.032899075840469 21.360626971719395 11.468263379936701 0 1 0 I I #
edge $-1 $646 -28.68312151343947 $551 -14.016433611362526 $550 $684 forward 7 unknown #
vertex $-1 $645 $685 #
straight-curve $-1 50.032899075840469 -19.886387963048172 42.787924931129425 0 -0.80901698891910034 0.5877852598018023 I I #
point $-1 50.032899075840469 23.221427109849579 11.468263379936705 #
point $-1 35.366211173763524 32.176852205776889 4.9617660643758938 #
straight-curve $-1 0 32.176852205776889 11.468263379936705 -1 0 0 I I #
vertex $-1 $557 $686 #
point $-1 40.556693431499788 26.436299162656923 6.4768639301119979 #
vertex $-1 $561 $687 #
point $-1 46.842416818104191 26.436299162656923 6.4768639301119979 #
straight-curve $-1 -53.25724051637318 32.176852205776889 0 0 0 -1 I I #
point $-1 -53.25724051637318 -32.176852205776889 -11.468263379936705 #
straight-curve $-1 -53.25724051637318 0 -11.468263379936705 0 1 0 I I #
point $-1 -53.25724051637318 32.176852205776889 -11.468263379936705 #
straight-curve $-1 -53.25724051637318 0 -4.7583378860467036 0 -1 0 I I #
point $-1 -53.25724051637318 -32.176852205776889 -4.7583378860467036 #
point $-1 -53.25724051637318 32.176852205776889 -4.7583378860467036 #
straight-curve $-1 -53.25724051637318 32.176852205776889 0 0 0 -1 I I #
straight-curve $-1 -53.25724051637318 -32.176852205776889 0 0 0 -1 I I #
straight-curve $-1 -25.026588427751712 32.176852205776889 64.479974826261255 0 0 -1 I I #
point $-1 -25.026588427751712 32.176852205776889 11.468263379936705 #
straight-curve $-1 -16.179966189395092 32.176852205776896 4.9617660643758938 -1 0 0 I I #
point $-1 -25.026588427751712 32.176852205776889 4.9617660643758938 #
point $-1 -35.502794072092385 25.848513902855117 5.6678469411928969 #
point $-1 -29.217070685487979 25.848513902855117 5.6678469411928969 #
straight-curve $-1 -0.0067592598876498045 32.176852205776889 64.479974826261255 0 0 -1 I I #
point $-1 -0.0067592598876498045 32.176852205776889 11.468263379936705 #
straight-curve $-1 -3.6700516054630619 32.176852205776896 4.9617660643758938 -1 0 0 I I #
point $-1 -0.0067592598876498045 32.176852205776889 4.9617660643758938 #
point $-1 -10.482964904228332 25.848513902855117 5.6678469411928969 #
point $-1 -4.1972415176239224 25.848513902855117 5.6678469411928969 #
straight-curve $-1 25.013069907976409 32.176852205776889 64.479974826261255 0 0 -1 I I #
point $-1 25.013069907976409 32.176852205776889 11.468263379936705 #
straight-curve $-1 8.8398629784689682 32.176852205776896 4.9617660643758938 -1 0 0 I I #
point $-1 25.013069907976409 32.176852205776889 4.9617660643758938 #
point $-1 14.536864263635728 25.848513902855117 5.6678469411928969 #
point $-1 20.822587650240131 25.848513902855117 5.6678469411928969 #
straight-curve $-1 50.032899075840469 32.176852205776889 64.479974826261255 0 0 -1 I I #
point $-1 50.032899075840469 32.176852205776889 11.468263379936705 #
straight-curve $-1 21.349777562400998 32.176852205776896 4.9617660643758938 -1 0 0 I I #
point $-1 50.032899075840469 32.176852205776889 4.9617660643758938 #
point $-1 39.556693431499788 25.848513902855117 5.6678469411928969 #
point $-1 45.842416818104191 25.848513902855117 5.6678469411928969 #
End-of-ACIS-data 