500 0 5 0           
7 Unknown 11 ACIS 5.0 NT 24 Fri Mar 26 18:12:31 1999 
-1 9.9999999999999995e-007 1e-010 
body $-1 $5 $-1 $6 #
body $-1 $7 $-1 $8 #
body $-1 $9 $-1 $10 #
body $-1 $11 $-1 $12 #
body $-1 $13 $-1 $14 #
lump $-1 $-1 $15 $0 #
transform $-1 1 0 0 0 1 0 0 0 1 60.913724173711358 40.034595730929844 12.458900100327703 1 rotate no_reflect no_shear #
lump $-1 $-1 $16 $1 #
transform $-1 1 0 0 0 1 0 0 0 1 60.913724173711358 40.034595730929844 12.458900100327703 1 rotate no_reflect no_shear #
lump $-1 $-1 $17 $2 #
transform $-1 1 0 0 0 1 0 0 0 1 60.913724173711358 40.034595730929844 12.458900100327703 1 rotate no_reflect no_shear #
lump $-1 $-1 $18 $3 #
transform $-1 1 0 0 0 1 0 0 0 1 60.913724173711358 40.034595730929844 12.458900100327703 1 rotate no_reflect no_shear #
lump $-1 $-1 $19 $4 #
transform $-1 1 0 0 0 1 0 0 0 1 60.913724173711358 40.034595730929844 12.458900100327703 1 rotate no_reflect no_shear #
shell $-1 $-1 $-1 $20 $-1 $5 #
shell $-1 $-1 $-1 $21 $-1 $7 #
shell $-1 $-1 $-1 $22 $-1 $9 #
shell $-1 $-1 $-1 $23 $-1 $11 #
shell $-1 $-1 $-1 $24 $-1 $13 #
face $-1 $25 $26 $15 $-1 $27 forward single #
face $-1 $28 $29 $16 $-1 $30 forward single #
face $-1 $31 $32 $17 $-1 $33 reversed single #
face $-1 $34 $35 $18 $-1 $36 forward single #
face $-1 $37 $38 $19 $-1 $39 forward single #
face $-1 $40 $41 $15 $-1 $42 reversed single #
loop $-1 $-1 $43 $20 #
plane-surface $-1 0 0 12.458900100327703 0 0 1 1 0 0 forward_v I I I I #
face $-1 $44 $45 $16 $-1 $46 forward single #
loop $-1 $-1 $47 $21 #
plane-surface $-1 0 -40.034595730929844 0 0 1 0 0 0 1 forward_v I I I I #
face $-1 $48 $49 $17 $-1 $50 reversed single #
loop $-1 $-1 $51 $22 #
plane-surface $-1 -135.91819169903937 5.0614375662306266 104.79802625249428 0 1 0 -0.61566148304635926 0 0.78801074757464917 forward_v I I I I #
face $-1 $52 $53 $18 $-1 $54 forward single #
loop $-1 $55 $56 $23 #
cone-surface $-1 -57.726554924294113 10.134467205666802 9.5482140782796225 0.61566148304635926 0 -0.78801074757464917 0.78801074757464917 0 0.61566148304635926 1 I I 0 1 1 forward I I I I #
face $-1 $57 $58 $19 $-1 $59 forward single #
loop $-1 $60 $61 $24 #
cone-surface $-1 -57.726554924294113 17.744011664821073 9.5482140782796225 0.61566148304635926 0 -0.78801074757464917 0.78801074757464917 0 0.61566148304635926 1 I I 0 1 1 forward I I I I #
face $-1 $62 $63 $15 $-1 $64 reversed single #
loop $-1 $-1 $65 $25 #
plane-surface $-1 0 0 -12.458900100327703 0 0 1 1 0 0 forward_v I I I I #
coedge $-1 $66 $67 $68 $69 forward $26 $-1 #
face $-1 $70 $71 $16 $-1 $72 reversed single #
loop $-1 $-1 $73 $28 #
plane-surface $-1 0 0 12.458900100327703 0 0 1 1 0 0 forward_v I I I I #
coedge $-1 $74 $75 $76 $77 forward $29 $-1 #
face $-1 $78 $79 $17 $-1 $80 reversed single #
loop $-1 $-1 $81 $31 #
plane-surface $-1 -60.913724173711358 13.939239435243941 8.7966876051297334 -0.61566148304635926 0 0.78801074757464917 0.78801074757464917 0 0.61566148304635926 forward_v I I I I #
coedge $-1 $82 $83 $84 $85 reversed $32 $-1 #
face $-1 $-1 $86 $18 $-1 $87 forward single #
loop $-1 $88 $89 $34 #
cone-surface $-1 -56.575264005292553 10.134467205666802 8.0746289300432004 0.61566148304635926 0 -0.78801074757464917 0.39400537378732459 0 0.30783074152317963 1 I I -0.70710678118654746 0.70710678118654746 0.5 forward I I I I #
loop $-1 $-1 $90 $23 #
coedge $-1 $56 $56 $91 $92 reversed $35 $-1 #
face $-1 $-1 $93 $19 $-1 $94 forward single #
loop $-1 $95 $96 $37 #
cone-surface $-1 -56.575264005292553 17.744011664821073 8.0746289300432004 0.61566148304635926 0 -0.78801074757464917 0.39400537378732459 0 0.30783074152317963 1 I I -0.70710678118654746 0.70710678118654746 0.5 forward I I I I #
loop $-1 $-1 $97 $24 #
coedge $-1 $61 $61 $98 $99 reversed $38 $-1 #
face $-1 $100 $101 $15 $-1 $102 reversed single #
loop $-1 $-1 $103 $40 #
plane-surface $-1 0 -40.034595730929844 0 0 1 0 0 0 1 forward_v I I I I #
coedge $-1 $104 $105 $106 $107 forward $41 $-1 #
coedge $-1 $108 $43 $109 $110 forward $26 $-1 #
coedge $-1 $43 $108 $111 $112 forward $26 $-1 #
coedge $-1 $113 $114 $43 $69 reversed $115 $-1 #
edge $-1 $116 -40.034595730929844 $117 40.034595730929844 $68 $118 forward 7 unknown #
face $-1 $119 $120 $16 $-1 $121 reversed single #
loop $-1 $-1 $122 $44 #
plane-surface $-1 -60.913724173711358 0 0 1 0 0 0 0 -1 forward_v I I I I #
coedge $-1 $123 $124 $125 $126 forward $45 $-1 #
coedge $-1 $125 $47 $122 $127 reversed $29 $-1 #
coedge $-1 $47 $125 $128 $129 reversed $29 $-1 #
coedge $-1 $130 $131 $47 $77 reversed $120 $-1 #
edge $-1 $132 -60.913724173711358 $133 60.913724173711358 $76 $134 forward 7 unknown #
face $-1 $135 $136 $17 $-1 $137 forward single #
loop $-1 $-1 $138 $48 #
plane-surface $-1 -135.91819169903937 22.817041304257256 104.79802625249428 0 -1 0 0.61566148304635926 0 -0.78801074757464917 forward_v I I I I #
coedge $-1 $139 $140 $141 $142 reversed $49 $-1 #
coedge $-1 $83 $51 $143 $144 reversed $32 $-1 #
coedge $-1 $51 $82 $139 $145 reversed $32 $-1 #
coedge $-1 $141 $146 $51 $85 forward $136 $-1 #
edge $-1 $147 7.045371675808326 $148 11.732789819686054 $84 $149 forward 7 unknown #
loop $-1 $-1 $91 $52 #
plane-surface $-1 -60.913724173711358 13.939239435243941 8.7966876051297334 -0.61566148304635926 0 0.78801074757464917 0.78801074757464917 0 0.61566148304635926 forward_v I I I I #
loop $-1 $-1 $150 $34 #
coedge $-1 $89 $89 $90 $151 reversed $53 $-1 #
coedge $-1 $90 $90 $89 $151 forward $55 $-1 #
coedge $-1 $91 $91 $56 $92 forward $86 $-1 #
edge $-1 $152 0 $152 6.2831853071796004 $91 $153 forward 7 unknown #
loop $-1 $-1 $98 $57 #
plane-surface $-1 -60.913724173711358 13.939239435243941 8.7966876051297334 -0.61566148304635926 0 0.78801074757464917 0.78801074757464917 0 0.61566148304635926 forward_v I I I I #
loop $-1 $-1 $154 $37 #
coedge $-1 $96 $96 $97 $155 reversed $58 $-1 #
coedge $-1 $97 $97 $96 $155 forward $60 $-1 #
coedge $-1 $98 $98 $61 $99 forward $93 $-1 #
edge $-1 $156 0 $156 6.2831853071796004 $98 $157 forward 7 unknown #
face $-1 $158 $159 $15 $-1 $160 reversed single #
loop $-1 $-1 $161 $62 #
plane-surface $-1 -60.913724173711358 0 0 1 0 0 0 0 -1 forward_v I I I I #
coedge $-1 $162 $111 $163 $164 forward $63 $-1 #
coedge $-1 $165 $65 $162 $166 forward $41 $-1 #
coedge $-1 $65 $165 $167 $168 forward $41 $-1 #
coedge $-1 $114 $113 $65 $107 reversed $115 $-1 #
edge $-1 $169 -40.034595730929844 $170 40.034595730929844 $106 $171 forward 7 unknown #
coedge $-1 $67 $66 $172 $173 forward $26 $-1 #
coedge $-1 $174 $175 $66 $110 reversed $159 $-1 #
edge $-1 $117 -60.913724173711358 $176 60.913724173711358 $109 $177 forward 7 unknown #
coedge $-1 $103 $178 $67 $112 reversed $63 $-1 #
edge $-1 $179 -60.913724173711358 $116 60.913724173711358 $111 $180 forward 7 unknown #
coedge $-1 $106 $68 $178 $181 forward $115 $-1 #
coedge $-1 $68 $106 $174 $182 reversed $115 $-1 #
loop $-1 $-1 $113 $158 #
vertex $-1 $69 $183 #
vertex $-1 $69 $184 #
straight-curve $-1 60.913724173711358 0 12.458900100327703 0 1 0 I I #
face $-1 $185 $186 $16 $-1 $187 reversed single #
loop $-1 $-1 $130 $70 #
plane-surface $-1 0 -47.659581755434644 6.5938976879141507 0 0 1 1 0 0 forward_v I I I I #
coedge $-1 $188 $189 $74 $127 forward $71 $-1 #
coedge $-1 $190 $73 $189 $191 forward $45 $-1 #
coedge $-1 $73 $190 $192 $193 forward $45 $-1 #
coedge $-1 $75 $74 $73 $126 reversed $29 $-1 #
edge $-1 $194 -60.913724173711358 $195 60.913724173711358 $73 $196 forward 7 unknown #
edge $-1 $195 -12.458900100327703 $133 -6.5938976879141507 $122 $197 forward 7 unknown #
coedge $-1 $192 $198 $75 $129 forward $199 $-1 #
edge $-1 $132 6.5938976879141507 $194 12.458900100327703 $128 $200 forward 7 unknown #
coedge $-1 $201 $76 $198 $202 forward $120 $-1 #
coedge $-1 $76 $201 $188 $203 forward $120 $-1 #
vertex $-1 $129 $204 #
vertex $-1 $127 $205 #
straight-curve $-1 0 -40.034595730929844 6.5938976879141507 -1 0 0 I I #
face $-1 $-1 $206 $17 $-1 $207 reversed single #
loop $-1 $-1 $84 $78 #
plane-surface $-1 0 0 12.458900100327703 0 0 1 1 0 0 forward_v I I I I #
coedge $-1 $208 $209 $210 $211 reversed $79 $-1 #
coedge $-1 $212 $81 $83 $145 forward $49 $-1 #
coedge $-1 $81 $212 $208 $213 forward $49 $-1 #
coedge $-1 $210 $84 $81 $142 forward $136 $-1 #
edge $-1 $148 -1.908182151391344 $214 15.847421586635285 $141 $215 forward 7 unknown #
coedge $-1 $216 $217 $82 $144 forward $206 $-1 #
edge $-1 $218 -43.602325521117407 $147 -39.940113025919437 $143 $219 forward 7 unknown #
edge $-1 $148 -5.9484190517765532 $218 0 $83 $220 forward 7 unknown #
coedge $-1 $84 $210 $216 $221 forward $136 $-1 #
vertex $-1 $144 $222 #
vertex $-1 $85 $223 #
straight-curve $-1 -67.959095849519684 5.0614375662306266 12.458900100327703 1 0 0 I I #
coedge $-1 $150 $150 $-1 $224 reversed $88 $-1 #
edge $-1 $225 0 $225 6.2831853071796004 $89 $226 forward 7 unknown #
vertex $-1 $92 $227 #
ellipse-curve $-1 -58.570015101772491 10.134467205666802 10.627793852728718 -0.61566148304635926 0 0.78801074757464917 0.78801074757464917 0 0.61566148304635926 1 I I #
coedge $-1 $154 $154 $-1 $228 reversed $95 $-1 #
edge $-1 $229 0 $229 6.2831853071796004 $96 $230 forward 7 unknown #
vertex $-1 $99 $231 #
ellipse-curve $-1 -58.570015101772491 17.744011664821073 10.627793852728718 -0.61566148304635926 0 0.78801074757464917 0.78801074757464917 0 0.61566148304635926 1 I I #
face $-1 $-1 $115 $15 $-1 $232 reversed single #
loop $-1 $-1 $174 $100 #
plane-surface $-1 0 40.034595730929844 0 0 -1 0 0 0 -1 forward_v I I I I #
coedge $-1 $233 $172 $175 $234 forward $101 $-1 #
coedge $-1 $178 $103 $104 $166 reversed $63 $-1 #
coedge $-1 $172 $233 $103 $164 reversed $101 $-1 #
edge $-1 $179 -12.458900100327703 $235 12.458900100327703 $163 $236 forward 7 unknown #
coedge $-1 $105 $104 $233 $237 forward $41 $-1 #
edge $-1 $170 -60.913724173711358 $235 60.913724173711358 $162 $238 forward 7 unknown #
coedge $-1 $175 $174 $105 $168 reversed $159 $-1 #
edge $-1 $239 -60.913724173711358 $169 60.913724173711358 $167 $240 forward 7 unknown #
vertex $-1 $107 $241 #
vertex $-1 $181 $242 #
straight-curve $-1 60.913724173711358 0 -12.458900100327703 0 -1 0 I I #
coedge $-1 $161 $163 $108 $173 reversed $101 $-1 #
edge $-1 $176 -40.034595730929844 $179 40.034595730929844 $172 $243 forward 7 unknown #
coedge $-1 $167 $109 $114 $182 forward $159 $-1 #
coedge $-1 $109 $167 $161 $234 reversed $159 $-1 #
vertex $-1 $110 $244 #
straight-curve $-1 0 40.034595730929844 12.458900100327703 -1 0 0 I I #
coedge $-1 $111 $162 $113 $181 reversed $63 $-1 #
vertex $-1 $173 $245 #
straight-curve $-1 0 -40.034595730929844 12.458900100327703 1 0 0 I I #
edge $-1 $116 -12.458900100327703 $170 12.458900100327703 $113 $246 forward 7 unknown #
edge $-1 $117 -12.458900100327703 $169 12.458900100327703 $114 $247 forward 7 unknown #
point $-1 60.913724173711358 -40.034595730929844 12.458900100327703 #
point $-1 60.913724173711358 40.034595730929844 12.458900100327703 #
face $-1 $-1 $199 $16 $-1 $248 reversed single #
loop $-1 $-1 $249 $119 #
plane-surface $-1 0 -55.284567779939444 9.526398894120927 0 1 0 0 0 1 forward_v I I I I #
coedge $-1 $250 $122 $131 $203 reversed $71 $-1 #
coedge $-1 $122 $250 $123 $191 reversed $71 $-1 #
coedge $-1 $124 $123 $251 $252 forward $45 $-1 #
edge $-1 $195 40.034595730929844 $253 55.284567779939444 $189 $254 forward 7 unknown #
coedge $-1 $255 $128 $124 $193 reversed $199 $-1 #
edge $-1 $256 -55.284567779939444 $194 -40.034595730929844 $192 $257 forward 7 unknown #
vertex $-1 $129 $258 #
vertex $-1 $191 $259 #
straight-curve $-1 0 -40.034595730929844 12.458900100327703 -1 0 0 I I #
straight-curve $-1 -60.913724173711358 -40.034595730929844 0 0 0 -1 I I #
coedge $-1 $128 $255 $130 $202 reversed $199 $-1 #
loop $-1 $-1 $128 $185 #
straight-curve $-1 60.913724173711358 -40.034595730929844 0 0 0 1 I I #
coedge $-1 $131 $130 $260 $261 forward $120 $-1 #
edge $-1 $132 -7.6249860245047998 $262 7.6249860245047998 $198 $263 forward 7 unknown #
edge $-1 $264 -7.6249860245047998 $133 7.6249860245047998 $188 $265 forward 7 unknown #
point $-1 60.913724173711358 -40.034595730929844 6.5938976879141507 #
point $-1 -60.913724173711358 -40.034595730929844 6.5938976879141507 #
loop $-1 $-1 $143 $135 #
plane-surface $-1 -60.913724173711358 0 0 1 0 0 0 0 -1 forward_v I I I I #
coedge $-1 $209 $138 $140 $213 reversed $79 $-1 #
coedge $-1 $138 $208 $266 $267 reversed $79 $-1 #
coedge $-1 $146 $141 $138 $211 forward $136 $-1 #
edge $-1 $214 -11.732789819686054 $268 -7.045371675808326 $210 $269 forward 7 unknown #
coedge $-1 $140 $139 $217 $270 reversed $49 $-1 #
edge $-1 $271 0 $214 5.9484190517765532 $208 $272 forward 7 unknown #
vertex $-1 $142 $273 #
straight-curve $-1 -56.226306029833623 6.9696197176219705 12.458900100327703 0 1 0 I I #
coedge $-1 $266 $143 $146 $221 reversed $206 $-1 #
coedge $-1 $143 $266 $212 $270 forward $206 $-1 #
vertex $-1 $144 $274 #
straight-curve $-1 -60.913724173711358 5.0614375662306266 52.399013126247141 0 0 1 I I #
straight-curve $-1 -60.913724173711358 5.0614375662306266 8.7966876051297334 -0.78801074757464917 0 -0.61566148304635926 I I #
edge $-1 $268 -22.817041304257256 $147 -5.0614375662306266 $216 $275 forward 7 unknown #
point $-1 -60.913724173711358 5.0614375662306266 12.458900100327703 #
point $-1 -56.22630602983363 5.0614375662306266 12.458900100327703 #
edge $-1 $276 1 $276 0 $150 $-1 forward 7 unknown #
vertex $-1 $151 $277 #
ellipse-curve $-1 -56.883094746815729 10.134467205666802 8.468634303830525 -0.61566148304635926 0 0.78801074757464917 0.78801074757464917 0 0.61566148304635926 1 I I #
point $-1 -57.782004354197845 10.134467205666802 11.24345533577508 #
edge $-1 $278 1 $278 0 $154 $-1 forward 7 unknown #
vertex $-1 $155 $279 #
ellipse-curve $-1 -56.883094746815729 17.744011664821073 8.468634303830525 -0.61566148304635926 0 0.78801074757464917 0.78801074757464917 0 0.61566148304635926 1 I I #
point $-1 -57.782004354197845 17.744011664821073 11.24345533577508 #
plane-surface $-1 60.913724173711358 0 0 -1 0 0 0 0 1 forward_v I I I I #
coedge $-1 $163 $161 $165 $237 reversed $101 $-1 #
edge $-1 $176 -12.458900100327703 $239 12.458900100327703 $175 $280 forward 7 unknown #
vertex $-1 $237 $281 #
straight-curve $-1 -60.913724173711358 -40.034595730929844 0 0 0 -1 I I #
edge $-1 $235 -40.034595730929844 $239 40.034595730929844 $233 $282 forward 7 unknown #
straight-curve $-1 0 -40.034595730929844 -12.458900100327703 -1 0 0 I I #
vertex $-1 $168 $283 #
straight-curve $-1 0 40.034595730929844 -12.458900100327703 1 0 0 I I #
point $-1 60.913724173711358 40.034595730929844 -12.458900100327703 #
point $-1 60.913724173711358 -40.034595730929844 -12.458900100327703 #
straight-curve $-1 -60.913724173711358 0 12.458900100327703 0 -1 0 I I #
point $-1 -60.913724173711358 40.034595730929844 12.458900100327703 #
point $-1 -60.913724173711358 -40.034595730929844 12.458900100327703 #
straight-curve $-1 60.913724173711358 -40.034595730929844 0 0 0 -1 I I #
straight-curve $-1 60.913724173711358 40.034595730929844 0 0 0 -1 I I #
plane-surface $-1 60.913724173711358 0 0 -1 0 0 0 0 1 forward_v I I I I #
coedge $-1 $260 $251 $250 $284 forward $186 $-1 #
coedge $-1 $189 $188 $249 $284 reversed $71 $-1 #
coedge $-1 $249 $285 $190 $252 reversed $186 $-1 #
edge $-1 $253 -60.913724173711358 $256 60.913724173711358 $251 $286 forward 7 unknown #
vertex $-1 $191 $287 #
straight-curve $-1 -60.913724173711358 0 12.458900100327703 0 -1 0 I I #
coedge $-1 $198 $192 $285 $288 forward $199 $-1 #
vertex $-1 $193 $289 #
straight-curve $-1 60.913724173711358 0 12.458900100327703 0 1 0 I I #
point $-1 60.913724173711358 -40.034595730929844 12.458900100327703 #
point $-1 -60.913724173711358 -40.034595730929844 12.458900100327703 #
coedge $-1 $285 $249 $201 $261 reversed $186 $-1 #
edge $-1 $262 -60.913724173711358 $264 60.913724173711358 $260 $290 forward 7 unknown #
vertex $-1 $288 $291 #
straight-curve $-1 60.913724173711358 -47.659581755434644 6.5938976879141507 0 -1 0 I I #
vertex $-1 $203 $292 #
straight-curve $-1 -60.913724173711358 -47.659581755434644 6.5938976879141507 0 1 0 I I #
coedge $-1 $217 $216 $209 $267 forward $206 $-1 #
edge $-1 $268 39.940113025919437 $271 43.602325521117407 $266 $293 forward 7 unknown #
vertex $-1 $221 $294 #
straight-curve $-1 -67.959095849519684 22.817041304257256 12.458900100327703 -1 0 0 I I #
edge $-1 $271 -15.847421586635285 $218 1.908182151391344 $217 $295 forward 7 unknown #
vertex $-1 $270 $296 #
straight-curve $-1 -60.913724173711358 22.817041304257256 8.7966876051297334 0.78801074757464917 0 0.61566148304635926 I I #
point $-1 -56.22630602983363 22.817041304257256 12.458900100327703 #
point $-1 -60.913724173711358 5.0614375662306266 8.7966876051297334 #
straight-curve $-1 -60.913724173711358 0 12.458900100327703 0 -1 0 I I #
vertex $-1 $224 $297 #
point $-1 -56.095083999241083 10.134467205666802 9.0842957868768845 #
vertex $-1 $228 $298 #
point $-1 -56.095083999241083 17.744011664821073 9.0842957868768845 #
straight-curve $-1 -60.913724173711358 40.034595730929844 0 0 0 -1 I I #
point $-1 -60.913724173711358 -40.034595730929844 -12.458900100327703 #
straight-curve $-1 -60.913724173711358 0 -12.458900100327703 0 1 0 I I #
point $-1 -60.913724173711358 40.034595730929844 -12.458900100327703 #
edge $-1 $253 -2.9325012062067763 $264 2.9325012062067763 $250 $299 forward 7 unknown #
coedge $-1 $251 $260 $255 $288 reversed $186 $-1 #
straight-curve $-1 0 -55.284567779939444 12.458900100327703 1 0 0 I I #
point $-1 -60.913724173711358 -55.284567779939444 12.458900100327703 #
edge $-1 $256 -2.9325012062067763 $262 2.9325012062067763 $255 $300 forward 7 unknown #
point $-1 60.913724173711358 -55.284567779939444 12.458900100327703 #
straight-curve $-1 0 -55.284567779939444 6.5938976879141507 -1 0 0 I I #
point $-1 60.913724173711358 -55.284567779939444 6.5938976879141507 #
point $-1 -60.913724173711358 -55.284567779939444 6.5938976879141507 #
straight-curve $-1 -60.913724173711358 22.817041304257256 52.399013126247141 0 0 -1 I I #
point $-1 -60.913724173711358 22.817041304257256 12.458900100327703 #
straight-curve $-1 -60.913724173711358 6.9696197176219705 8.7966876051297369 0 -1 0 I I #
point $-1 -60.913724173711358 22.817041304257256 8.7966876051297334 #
point $-1 -56.267433263769377 10.134467205666802 7.6806235562558758 #
point $-1 -56.267433263769377 17.744011664821073 7.6806235562558758 #
straight-curve $-1 -60.913724173711358 -55.284567779939444 9.526398894120927 0 0 -1 I I #
straight-curve $-1 60.913724173711358 -55.284567779939444 9.526398894120927 0 0 -1 I I #
End-of-ACIS-data 