500 0 14 0           
7 Unknown 11 ACIS 5.0 NT 24 Fri Mar 26 20:13:46 1999 
-1 9.9999999999999995e-007 1e-010 
body $-1 $14 $-1 $15 #
body $-1 $16 $-1 $17 #
body $-1 $18 $-1 $19 #
body $-1 $20 $-1 $21 #
body $-1 $22 $-1 $23 #
body $-1 $24 $-1 $25 #
body $-1 $26 $-1 $27 #
body $-1 $28 $-1 $29 #
body $-1 $30 $-1 $31 #
body $-1 $32 $-1 $33 #
body $-1 $34 $-1 $35 #
body $-1 $36 $-1 $37 #
body $-1 $38 $-1 $39 #
body $-1 $40 $-1 $41 #
lump $-1 $-1 $42 $0 #
transform $-1 1 0 0 0 1 0 0 0 1 74.330881679738766 38.729776177445231 16.350497140959973 1 rotate no_reflect no_shear #
lump $-1 $-1 $43 $1 #
transform $-1 1 0 0 0 1 0 0 0 1 74.330881679738766 38.729776177445231 16.350497140959973 1 rotate no_reflect no_shear #
lump $-1 $-1 $44 $2 #
transform $-1 1 0 0 0 1 0 0 0 1 74.330881679738766 38.729776177445231 16.350497140959973 1 rotate no_reflect no_shear #
lump $-1 $-1 $45 $3 #
transform $-1 1 0 0 0 1 0 0 0 1 74.330881679738766 38.729776177445231 16.350497140959973 1 rotate no_reflect no_shear #
lump $-1 $-1 $46 $4 #
transform $-1 1 0 0 0 1 0 0 0 1 74.330881679738766 38.729776177445231 16.350497140959973 1 rotate no_reflect no_shear #
lump $-1 $-1 $47 $5 #
transform $-1 1 0 0 0 1 0 0 0 1 74.330881679738766 38.729776177445231 16.350497140959973 1 rotate no_reflect no_shear #
lump $-1 $-1 $48 $6 #
transform $-1 1 0 0 0 1 0 0 0 1 74.330881679738766 38.729776177445231 16.350497140959973 1 rotate no_reflect no_shear #
lump $-1 $-1 $49 $7 #
transform $-1 1 0 0 0 1 0 0 0 1 74.330881679738766 38.729776177445231 16.350497140959973 1 rotate no_reflect no_shear #
lump $-1 $-1 $50 $8 #
transform $-1 1 0 0 0 1 0 0 0 1 74.330881679738766 38.729776177445231 16.350497140959973 1 rotate no_reflect no_shear #
lump $-1 $-1 $51 $9 #
transform $-1 1 0 0 0 1 0 0 0 1 74.330881679738766 38.729776177445231 16.350497140959973 1 rotate no_reflect no_shear #
lump $-1 $-1 $52 $10 #
transform $-1 1 0 0 0 1 0 0 0 1 74.330881679738766 38.729776177445231 16.350497140959973 1 rotate no_reflect no_shear #
lump $-1 $-1 $53 $11 #
transform $-1 1 0 0 0 1 0 0 0 1 74.330881679738766 38.729776177445231 16.350497140959973 1 rotate no_reflect no_shear #
lump $-1 $-1 $54 $12 #
transform $-1 1 0 0 0 1 0 0 0 1 74.330881679738766 38.729776177445231 16.350497140959973 1 rotate no_reflect no_shear #
lump $-1 $-1 $55 $13 #
transform $-1 1 0 0 0 1 0 0 0 1 74.330881679738766 38.729776177445231 16.350497140959973 1 rotate no_reflect no_shear #
shell $-1 $-1 $-1 $56 $-1 $14 #
shell $-1 $-1 $-1 $57 $-1 $16 #
shell $-1 $-1 $-1 $58 $-1 $18 #
shell $-1 $-1 $-1 $59 $-1 $20 #
shell $-1 $-1 $-1 $60 $-1 $22 #
shell $-1 $-1 $-1 $61 $-1 $24 #
shell $-1 $-1 $-1 $62 $-1 $26 #
shell $-1 $-1 $-1 $63 $-1 $28 #
shell $-1 $-1 $-1 $64 $-1 $30 #
shell $-1 $-1 $-1 $65 $-1 $32 #
shell $-1 $-1 $-1 $66 $-1 $34 #
shell $-1 $-1 $-1 $67 $-1 $36 #
shell $-1 $-1 $-1 $68 $-1 $38 #
shell $-1 $-1 $-1 $69 $-1 $40 #
face $-1 $70 $71 $42 $-1 $72 forward single #
face $-1 $73 $74 $43 $-1 $75 reversed single #
face $-1 $76 $77 $44 $-1 $78 reversed single #
face $-1 $79 $80 $45 $-1 $81 forward single #
face $-1 $82 $83 $46 $-1 $84 forward single #
face $-1 $85 $86 $47 $-1 $87 reversed single #
face $-1 $88 $89 $48 $-1 $90 forward single #
face $-1 $91 $92 $49 $-1 $93 forward single #
face $-1 $94 $95 $50 $-1 $96 reversed single #
face $-1 $97 $98 $51 $-1 $99 forward single #
face $-1 $100 $101 $52 $-1 $102 forward single #
face $-1 $103 $104 $53 $-1 $105 reversed single #
face $-1 $106 $107 $54 $-1 $108 forward single #
face $-1 $109 $110 $55 $-1 $111 forward single #
face $-1 $112 $113 $42 $-1 $114 reversed single #
loop $-1 $-1 $115 $56 #
plane-surface $-1 0 0 16.350497140959973 0 0 1 1 0 0 forward_v I I I I #
face $-1 $116 $117 $43 $-1 $118 reversed single #
loop $-1 $-1 $119 $57 #
plane-surface $-1 -68.242954929243382 -33.404424989541084 0 0 1 0 0 0 1 forward_v I I I I #
face $-1 $120 $121 $44 $-1 $122 reversed single #
loop $-1 $-1 $123 $58 #
plane-surface $-1 -62.155028178747997 57.6435014701499 175.71409759366873 1 0 0 0 -0.55919291073839883 -0.82903756765294845 forward_v I I I I #
face $-1 $124 $125 $45 $-1 $126 forward single #
loop $-1 $127 $128 $59 #
cone-surface $-1 -55.910459665841145 30.327296990331185 8.2045165600509424 0 -0.55919291073839883 -0.82903756765294845 3 0 0 1 I I 0 1 3 forward I I I I #
face $-1 $129 $130 $46 $-1 $131 forward single #
loop $-1 $132 $133 $60 #
cone-surface $-1 -46.543606896480867 30.327296990331185 8.2045165600509424 0 -0.55919291073839883 -0.82903756765294845 3 0 0 1 I I 0 1 3 forward I I I I #
face $-1 $134 $135 $47 $-1 $136 reversed single #
loop $-1 $-1 $137 $61 #
plane-surface $-1 52.474891884564791 57.6435014701499 175.71409759366873 1 0 0 0 -0.55919291073839883 -0.82903756765294845 forward_v I I I I #
face $-1 $138 $139 $48 $-1 $140 forward single #
loop $-1 $141 $142 $62 #
cone-surface $-1 58.71946039747165 30.327296990331185 8.2045165600509424 0 -0.55919291073839883 -0.82903756765294845 3 0 0 1 I I 0 1 3 forward I I I I #
face $-1 $143 $144 $49 $-1 $145 forward single #
loop $-1 $146 $147 $63 #
cone-surface $-1 68.086313166831914 30.327296990331185 8.2045165600509424 0 -0.55919291073839883 -0.82903756765294845 3 0 0 1 I I 0 1 3 forward I I I I #
face $-1 $148 $149 $50 $-1 $150 reversed single #
loop $-1 $-1 $151 $64 #
plane-surface $-1 -40.299038383574015 -121.8603803459345 132.3992650478441 -1 0 0 0 -0.55919291073839883 0.82903756765294845 forward_v I I I I #
face $-1 $152 $153 $51 $-1 $154 forward single #
loop $-1 $155 $156 $65 #
cone-surface $-1 -55.910459665841145 -30.327296990331192 8.2045165600509389 0 0.55919291073839883 -0.82903756765294845 3 0 0 1 I I 0 1 3 forward I I I I #
face $-1 $157 $158 $52 $-1 $159 forward single #
loop $-1 $160 $161 $66 #
cone-surface $-1 -46.543606896480867 -30.327296990331192 8.2045165600509389 0 0.55919291073839883 -0.82903756765294845 3 0 0 1 I I 0 1 3 forward I I I I #
face $-1 $162 $163 $53 $-1 $164 reversed single #
loop $-1 $-1 $165 $67 #
plane-surface $-1 52.474891884564791 -121.8603803459345 132.3992650478441 1 0 0 0 0.55919291073839883 -0.82903756765294845 forward_v I I I I #
face $-1 $166 $167 $54 $-1 $168 forward single #
loop $-1 $169 $170 $68 #
cone-surface $-1 58.71946039747165 -30.327296990331192 8.2045165600509389 0 0.55919291073839883 -0.82903756765294845 3 0 0 1 I I 0 1 3 forward I I I I #
face $-1 $171 $172 $55 $-1 $173 forward single #
loop $-1 $174 $175 $69 #
cone-surface $-1 68.086313166831914 -30.327296990331192 8.2045165600509389 0 0.55919291073839883 -0.82903756765294845 3 0 0 1 I I 0 1 3 forward I I I I #
face $-1 $176 $177 $42 $-1 $178 reversed single #
loop $-1 $-1 $179 $70 #
plane-surface $-1 0 0 -16.350497140959973 0 0 1 1 0 0 forward_v I I I I #
coedge $-1 $180 $181 $182 $183 forward $71 $-1 #
face $-1 $184 $185 $43 $-1 $186 reversed single #
loop $-1 $-1 $187 $73 #
plane-surface $-1 -68.242954929243382 -26.195875174247163 0 0 -1 0 0 0 -1 forward_v I I I I #
coedge $-1 $188 $189 $190 $191 reversed $74 $-1 #
face $-1 $192 $193 $44 $-1 $194 reversed single #
loop $-1 $-1 $195 $76 #
plane-surface $-1 -51.227033281161006 -25.487102698339385 52.467910895129265 0 0.55919291073839883 0.82903756765294845 1 0 0 forward_v I I I I #
coedge $-1 $196 $197 $198 $199 reversed $77 $-1 #
face $-1 $-1 $200 $45 $-1 $201 forward single #
loop $-1 $202 $203 $79 #
cone-surface $-1 -55.910459665841145 26.421334423494798 2.4136890234901429 0 -0.55919291073839883 -0.82903756765294845 1.5 0 0 1 I I -0.70710678118654757 0.70710678118654757 1.5 forward I I I I #
loop $-1 $-1 $204 $59 #
coedge $-1 $128 $128 $205 $206 reversed $80 $-1 #
face $-1 $-1 $207 $46 $-1 $208 forward single #
loop $-1 $209 $210 $82 #
cone-surface $-1 -46.543606896480867 26.421334423494798 2.4136890234901429 0 -0.55919291073839883 -0.82903756765294845 1.5 0 0 1 I I -0.70710678118654757 0.70710678118654757 1.5 forward I I I I #
loop $-1 $-1 $211 $60 #
coedge $-1 $133 $133 $212 $213 reversed $83 $-1 #
face $-1 $214 $215 $47 $-1 $216 forward single #
loop $-1 $-1 $217 $85 #
plane-surface $-1 63.402886782151782 -25.487102698339385 52.467910895129265 0 0.55919291073839883 0.82903756765294845 1 0 0 forward_v I I I I #
coedge $-1 $218 $219 $220 $221 reversed $86 $-1 #
face $-1 $-1 $222 $48 $-1 $223 forward single #
loop $-1 $224 $225 $88 #
cone-surface $-1 58.71946039747165 26.421334423494798 2.4136890234901429 0 -0.55919291073839883 -0.82903756765294845 1.5 0 0 1 I I -0.70710678118654757 0.70710678118654757 1.5 forward I I I I #
loop $-1 $-1 $226 $62 #
coedge $-1 $142 $142 $227 $228 reversed $89 $-1 #
face $-1 $-1 $229 $49 $-1 $230 forward single #
loop $-1 $231 $232 $91 #
cone-surface $-1 68.086313166831914 26.421334423494798 2.4136890234901429 0 -0.55919291073839883 -0.82903756765294845 1.5 0 0 1 I I -0.70710678118654757 0.70710678118654757 1.5 forward I I I I #
loop $-1 $-1 $233 $63 #
coedge $-1 $147 $147 $234 $235 reversed $92 $-1 #
face $-1 $236 $237 $50 $-1 $238 reversed single #
loop $-1 $-1 $239 $94 #
plane-surface $-1 -51.227033281161006 -38.729776177445217 9.1530783493046357 0 -0.55919291073839883 0.82903756765294845 1 0 0 forward_v I I I I #
coedge $-1 $240 $241 $242 $243 reversed $95 $-1 #
face $-1 $-1 $244 $51 $-1 $245 forward single #
loop $-1 $246 $247 $97 #
cone-surface $-1 -55.910459665841145 -26.421334423494805 2.4136890234901394 0 0.55919291073839883 -0.82903756765294845 1.5 0 0 1 I I -0.70710678118654757 0.70710678118654757 1.5 forward I I I I #
loop $-1 $-1 $248 $65 #
coedge $-1 $156 $156 $249 $250 reversed $98 $-1 #
face $-1 $-1 $251 $52 $-1 $252 forward single #
loop $-1 $253 $254 $100 #
cone-surface $-1 -46.543606896480867 -26.421334423494805 2.4136890234901394 0 0.55919291073839883 -0.82903756765294845 1.5 0 0 1 I I -0.70710678118654757 0.70710678118654757 1.5 forward I I I I #
loop $-1 $-1 $255 $66 #
coedge $-1 $161 $161 $256 $257 reversed $101 $-1 #
face $-1 $258 $259 $53 $-1 $260 reversed single #
loop $-1 $-1 $261 $103 #
plane-surface $-1 63.402886782151782 -38.729776177445217 9.1530783493046357 0 -0.55919291073839883 0.82903756765294845 1 0 0 forward_v I I I I #
coedge $-1 $262 $263 $264 $265 reversed $104 $-1 #
face $-1 $-1 $266 $54 $-1 $267 forward single #
loop $-1 $268 $269 $106 #
cone-surface $-1 58.71946039747165 -26.421334423494805 2.4136890234901394 0 0.55919291073839883 -0.82903756765294845 1.5 0 0 1 I I -0.70710678118654757 0.70710678118654757 1.5 forward I I I I #
loop $-1 $-1 $270 $68 #
coedge $-1 $170 $170 $271 $272 reversed $107 $-1 #
face $-1 $-1 $273 $55 $-1 $274 forward single #
loop $-1 $275 $276 $109 #
cone-surface $-1 68.086313166831914 -26.421334423494805 2.4136890234901394 0 0.55919291073839883 -0.82903756765294845 1.5 0 0 1 I I -0.70710678118654757 0.70710678118654757 1.5 forward I I I I #
loop $-1 $-1 $277 $69 #
coedge $-1 $175 $175 $278 $279 reversed $110 $-1 #
face $-1 $280 $281 $42 $-1 $282 reversed single #
loop $-1 $-1 $283 $112 #
plane-surface $-1 0 -38.729776177445231 0 0 1 0 0 0 1 forward_v I I I I #
coedge $-1 $284 $285 $286 $287 forward $113 $-1 #
coedge $-1 $288 $115 $289 $290 forward $71 $-1 #
coedge $-1 $115 $288 $291 $292 forward $71 $-1 #
coedge $-1 $293 $294 $115 $183 reversed $295 $-1 #
edge $-1 $296 -38.729776177445231 $297 38.729776177445231 $182 $298 forward 7 unknown #
face $-1 $299 $300 $43 $-1 $301 reversed single #
loop $-1 $-1 $302 $116 #
plane-surface $-1 -62.155028178747997 -29.800150081894124 0 -1 0 0 0 0 1 forward_v I I I I #
coedge $-1 $303 $304 $305 $306 forward $117 $-1 #
coedge $-1 $307 $119 $308 $309 reversed $74 $-1 #
coedge $-1 $119 $307 $310 $311 reversed $74 $-1 #
coedge $-1 $312 $313 $119 $191 forward $314 $-1 #
edge $-1 $315 -16.350497140959973 $316 16.350497140959973 $190 $317 forward 7 unknown #
face $-1 $318 $319 $44 $-1 $320 reversed single #
loop $-1 $-1 $321 $120 #
plane-surface $-1 -40.299038383574015 57.6435014701499 175.71409759366873 -1 0 0 0 0.55919291073839883 0.82903756765294845 forward_v I I I I #
coedge $-1 $322 $323 $324 $325 reversed $121 $-1 #
coedge $-1 $197 $123 $326 $327 reversed $77 $-1 #
coedge $-1 $123 $196 $322 $328 reversed $77 $-1 #
coedge $-1 $324 $329 $123 $199 forward $330 $-1 #
edge $-1 $331 -9.9080254423702812 $332 0.76258653040021329 $198 $333 forward 7 unknown #
loop $-1 $-1 $205 $124 #
plane-surface $-1 -51.227033281161006 -25.487102698339385 52.467910895129265 0 0.55919291073839883 0.82903756765294845 1 0 0 forward_v I I I I #
loop $-1 $-1 $334 $79 #
coedge $-1 $203 $203 $204 $335 reversed $125 $-1 #
coedge $-1 $204 $204 $203 $335 forward $127 $-1 #
coedge $-1 $205 $205 $128 $206 forward $200 $-1 #
edge $-1 $336 2.3096898508493515e-017 $336 6.2831853071796004 $205 $337 forward 7 unknown #
loop $-1 $-1 $212 $129 #
plane-surface $-1 -51.227033281161006 -25.487102698339385 52.467910895129265 0 0.55919291073839883 0.82903756765294845 1 0 0 forward_v I I I I #
loop $-1 $-1 $338 $82 #
coedge $-1 $210 $210 $211 $339 reversed $130 $-1 #
coedge $-1 $211 $211 $210 $339 forward $132 $-1 #
coedge $-1 $212 $212 $133 $213 forward $207 $-1 #
edge $-1 $340 2.3096898508493515e-017 $340 6.2831853071796004 $212 $341 forward 7 unknown #
face $-1 $342 $343 $47 $-1 $344 reversed single #
loop $-1 $-1 $220 $134 #
plane-surface $-1 0 0 16.350497140959973 0 0 1 1 0 0 forward_v I I I I #
coedge $-1 $345 $346 $347 $348 reversed $135 $-1 #
coedge $-1 $219 $137 $349 $350 reversed $86 $-1 #
coedge $-1 $137 $218 $345 $351 reversed $86 $-1 #
coedge $-1 $347 $352 $137 $221 forward $215 $-1 #
edge $-1 $353 -9.9080254423702812 $354 0.76258653040021329 $220 $355 forward 7 unknown #
loop $-1 $-1 $227 $138 #
plane-surface $-1 63.402886782151782 -25.487102698339385 52.467910895129265 0 0.55919291073839883 0.82903756765294845 1 0 0 forward_v I I I I #
loop $-1 $-1 $356 $88 #
coedge $-1 $225 $225 $226 $357 reversed $139 $-1 #
coedge $-1 $226 $226 $225 $357 forward $141 $-1 #
coedge $-1 $227 $227 $142 $228 forward $222 $-1 #
edge $-1 $358 2.3096898508493515e-017 $358 6.2831853071796004 $227 $359 forward 7 unknown #
loop $-1 $-1 $234 $143 #
plane-surface $-1 63.402886782151782 -25.487102698339385 52.467910895129265 0 0.55919291073839883 0.82903756765294845 1 0 0 forward_v I I I I #
loop $-1 $-1 $360 $91 #
coedge $-1 $232 $232 $233 $361 reversed $144 $-1 #
coedge $-1 $233 $233 $232 $361 forward $146 $-1 #
coedge $-1 $234 $234 $147 $235 forward $229 $-1 #
edge $-1 $362 2.3096898508493515e-017 $362 6.2831853071796004 $234 $363 forward 7 unknown #
face $-1 $364 $365 $50 $-1 $366 forward single #
loop $-1 $-1 $367 $148 #
plane-surface $-1 0 -38.729776177445231 0 0 1 0 0 0 1 forward_v I I I I #
coedge $-1 $368 $369 $370 $371 reversed $149 $-1 #
coedge $-1 $241 $151 $372 $373 reversed $95 $-1 #
coedge $-1 $151 $240 $368 $374 reversed $95 $-1 #
coedge $-1 $370 $375 $151 $243 forward $365 $-1 #
edge $-1 $376 22.20041399552202 $377 32.871025968292571 $242 $378 forward 7 unknown #
loop $-1 $-1 $249 $152 #
plane-surface $-1 -51.227033281161006 -38.729776177445217 9.1530783493046357 0 -0.55919291073839883 0.82903756765294845 1 0 0 forward_v I I I I #
loop $-1 $-1 $379 $97 #
coedge $-1 $247 $247 $248 $380 reversed $153 $-1 #
coedge $-1 $248 $248 $247 $380 forward $155 $-1 #
coedge $-1 $249 $249 $156 $250 forward $244 $-1 #
edge $-1 $381 4.619379701698703e-017 $381 6.2831853071796004 $249 $382 forward 7 unknown #
loop $-1 $-1 $256 $157 #
plane-surface $-1 -51.227033281161006 -38.729776177445217 9.1530783493046357 0 -0.55919291073839883 0.82903756765294845 1 0 0 forward_v I I I I #
loop $-1 $-1 $383 $100 #
coedge $-1 $254 $254 $255 $384 reversed $158 $-1 #
coedge $-1 $255 $255 $254 $384 forward $160 $-1 #
coedge $-1 $256 $256 $161 $257 forward $251 $-1 #
edge $-1 $385 4.619379701698703e-017 $385 6.2831853071796004 $256 $386 forward 7 unknown #
face $-1 $387 $388 $53 $-1 $389 forward single #
loop $-1 $-1 $264 $162 #
plane-surface $-1 0 -38.729776177445231 0 0 1 0 0 0 1 forward_v I I I I #
coedge $-1 $390 $391 $392 $393 reversed $163 $-1 #
coedge $-1 $263 $165 $394 $395 reversed $104 $-1 #
coedge $-1 $165 $262 $390 $396 reversed $104 $-1 #
coedge $-1 $392 $397 $165 $265 forward $259 $-1 #
edge $-1 $398 49.849135382962075 $399 57.04655417461742 $264 $400 forward 7 unknown #
loop $-1 $-1 $271 $166 #
plane-surface $-1 63.402886782151782 -38.729776177445217 9.1530783493046357 0 -0.55919291073839883 0.82903756765294845 1 0 0 forward_v I I I I #
loop $-1 $-1 $401 $106 #
coedge $-1 $269 $269 $270 $402 reversed $167 $-1 #
coedge $-1 $270 $270 $269 $402 forward $169 $-1 #
coedge $-1 $271 $271 $170 $272 forward $266 $-1 #
edge $-1 $403 4.619379701698703e-017 $403 6.2831853071796004 $271 $404 forward 7 unknown #
loop $-1 $-1 $278 $171 #
plane-surface $-1 63.402886782151782 -38.729776177445217 9.1530783493046357 0 -0.55919291073839883 0.82903756765294845 1 0 0 forward_v I I I I #
loop $-1 $-1 $405 $109 #
coedge $-1 $276 $276 $277 $406 reversed $172 $-1 #
coedge $-1 $277 $277 $276 $406 forward $174 $-1 #
coedge $-1 $278 $278 $175 $279 forward $273 $-1 #
edge $-1 $407 4.619379701698703e-017 $407 6.2831853071796004 $278 $408 forward 7 unknown #
face $-1 $409 $410 $42 $-1 $411 reversed single #
loop $-1 $-1 $412 $176 #
plane-surface $-1 -74.330881679738766 0 0 1 0 0 0 0 -1 forward_v I I I I #
coedge $-1 $413 $291 $414 $415 forward $177 $-1 #
coedge $-1 $416 $179 $413 $417 forward $113 $-1 #
coedge $-1 $179 $416 $418 $419 forward $113 $-1 #
coedge $-1 $294 $293 $179 $287 reversed $295 $-1 #
edge $-1 $420 -38.729776177445231 $421 38.729776177445231 $286 $422 forward 7 unknown #
coedge $-1 $181 $180 $423 $424 forward $71 $-1 #
coedge $-1 $425 $426 $180 $290 reversed $410 $-1 #
edge $-1 $297 -74.330881679738766 $427 74.330881679738766 $289 $428 forward 7 unknown #
coedge $-1 $283 $429 $181 $292 reversed $177 $-1 #
edge $-1 $430 -74.330881679738766 $296 74.330881679738766 $291 $431 forward 7 unknown #
coedge $-1 $286 $182 $429 $432 forward $295 $-1 #
coedge $-1 $182 $286 $425 $433 reversed $295 $-1 #
loop $-1 $-1 $293 $409 #
vertex $-1 $183 $434 #
vertex $-1 $183 $435 #
straight-curve $-1 74.330881679738766 0 16.350497140959973 0 1 0 I I #
face $-1 $436 $437 $43 $-1 $438 forward single #
loop $-1 $-1 $439 $184 #
plane-surface $-1 0 0 -16.350497140959973 0 0 1 1 0 0 forward_v I I I I #
coedge $-1 $440 $441 $307 $442 forward $185 $-1 #
coedge $-1 $443 $187 $439 $444 reversed $117 $-1 #
coedge $-1 $187 $443 $445 $446 reversed $117 $-1 #
coedge $-1 $441 $440 $187 $306 reversed $185 $-1 #
edge $-1 $447 -16.350497140959973 $448 16.350497140959973 $305 $449 forward 7 unknown #
coedge $-1 $189 $188 $302 $442 reversed $74 $-1 #
coedge $-1 $450 $451 $188 $309 forward $300 $-1 #
edge $-1 $452 28.033550714126307 $315 40.209404215117075 $308 $453 forward 7 unknown #
coedge $-1 $454 $455 $189 $311 forward $437 $-1 #
edge $-1 $316 -40.209404215117075 $456 -28.033550714126307 $310 $457 forward 7 unknown #
coedge $-1 $458 $190 $455 $459 reversed $314 $-1 #
coedge $-1 $190 $458 $450 $460 reversed $314 $-1 #
loop $-1 $-1 $458 $436 #
vertex $-1 $460 $461 #
vertex $-1 $191 $462 #
straight-curve $-1 -74.330881679738766 -33.404424989541084 0 0 0 1 I I #
face $-1 $-1 $330 $44 $-1 $463 forward single #
loop $-1 $-1 $464 $192 #
plane-surface $-1 0 38.729776177445231 0 0 -1 0 0 0 -1 forward_v I I I I #
coedge $-1 $465 $466 $467 $468 reversed $193 $-1 #
coedge $-1 $469 $195 $197 $328 forward $121 $-1 #
coedge $-1 $195 $469 $465 $470 forward $121 $-1 #
coedge $-1 $467 $198 $195 $325 forward $330 $-1 #
edge $-1 $332 -36.541511538167498 $471 -14.685521742993512 $324 $472 forward 7 unknown #
coedge $-1 $473 $474 $196 $327 forward $319 $-1 #
edge $-1 $475 -78.703970447529699 $331 -71.506551655874389 $326 $476 forward 7 unknown #
edge $-1 $332 64.588468595707411 $475 77.459552354890462 $197 $477 forward 7 unknown #
coedge $-1 $198 $467 $473 $478 forward $330 $-1 #
loop $-1 $-1 $467 $318 #
vertex $-1 $327 $479 #
vertex $-1 $199 $480 #
straight-curve $-1 -62.155028178747997 28.82175073507495 16.350497140959973 0 -1 0 I I #
coedge $-1 $334 $334 $-1 $481 reversed $202 $-1 #
edge $-1 $482 0 $482 6.2831853071796004 $203 $483 forward 7 unknown #
vertex $-1 $206 $484 #
ellipse-curve $-1 -55.910459665841145 33.39447019105998 12.751787745132329 0 0.55919291073839883 0.82903756765294845 3 0 0 1 I I #
coedge $-1 $338 $338 $-1 $485 reversed $209 $-1 #
edge $-1 $486 0 $486 6.2831853071796004 $210 $487 forward 7 unknown #
vertex $-1 $213 $488 #
ellipse-curve $-1 -46.543606896480867 33.39447019105998 12.751787745132329 0 0.55919291073839883 0.82903756765294845 3 0 0 1 I I #
face $-1 $-1 $489 $47 $-1 $490 reversed single #
loop $-1 $-1 $491 $214 #
plane-surface $-1 74.330881679738766 0 0 -1 0 0 0 0 1 forward_v I I I I #
coedge $-1 $492 $217 $219 $351 forward $135 $-1 #
coedge $-1 $217 $492 $491 $493 reversed $135 $-1 #
coedge $-1 $494 $220 $217 $348 forward $215 $-1 #
edge $-1 $354 20.7734484934889 $495 42.62943828866289 $347 $496 forward 7 unknown #
coedge $-1 $497 $498 $218 $350 forward $489 $-1 #
edge $-1 $499 -78.703970447529699 $353 -71.506551655874389 $349 $500 forward 7 unknown #
edge $-1 $354 64.588468595707411 $499 77.459552354890462 $219 $501 forward 7 unknown #
coedge $-1 $220 $494 $497 $502 forward $215 $-1 #
vertex $-1 $350 $503 #
vertex $-1 $221 $504 #
straight-curve $-1 52.474891884564791 28.82175073507495 16.350497140959973 0 -1 0 I I #
coedge $-1 $356 $356 $-1 $505 reversed $224 $-1 #
edge $-1 $506 0 $506 6.2831853071796004 $225 $507 forward 7 unknown #
vertex $-1 $228 $508 #
ellipse-curve $-1 58.71946039747165 33.39447019105998 12.751787745132329 0 0.55919291073839883 0.82903756765294845 3 0 0 1 I I #
coedge $-1 $360 $360 $-1 $509 reversed $231 $-1 #
edge $-1 $510 0 $510 6.2831853071796004 $232 $511 forward 7 unknown #
vertex $-1 $235 $512 #
ellipse-curve $-1 68.086313166831914 33.39447019105998 12.751787745132329 0 0.55919291073839883 0.82903756765294845 3 0 0 1 I I #
face $-1 $-1 $513 $50 $-1 $514 forward single #
loop $-1 $-1 $515 $236 #
plane-surface $-1 0 0 16.350497140959973 0 0 1 1 0 0 forward_v I I I I #
coedge $-1 $516 $517 $518 $519 forward $237 $-1 #
coedge $-1 $520 $239 $241 $374 forward $149 $-1 #
coedge $-1 $239 $520 $521 $522 reversed $149 $-1 #
coedge $-1 $515 $242 $239 $371 forward $365 $-1 #
edge $-1 $377 14.685521742993512 $523 36.541511538167498 $370 $524 forward 7 unknown #
coedge $-1 $517 $516 $240 $373 forward $237 $-1 #
edge $-1 $525 -57.04655417461742 $376 -49.849135382962075 $372 $526 forward 7 unknown #
edge $-1 $377 -12.871083759183115 $525 1.6747963185031944e-014 $241 $527 forward 7 unknown #
coedge $-1 $242 $515 $517 $528 forward $365 $-1 #
vertex $-1 $373 $529 #
vertex $-1 $243 $530 #
straight-curve $-1 -40.299038383574015 -60.930190172967251 16.350497140959973 0 1 0 I I #
coedge $-1 $379 $379 $-1 $531 reversed $246 $-1 #
edge $-1 $532 0 $532 6.2831853071796004 $247 $533 forward 7 unknown #
vertex $-1 $250 $534 #
ellipse-curve $-1 -55.910459665841145 -33.394470191059966 12.751787745132294 0 -0.55919291073839883 0.82903756765294845 3 0 0 1 I I #
coedge $-1 $383 $383 $-1 $535 reversed $253 $-1 #
edge $-1 $536 0 $536 6.2831853071796004 $254 $537 forward 7 unknown #
vertex $-1 $257 $538 #
ellipse-curve $-1 -46.543606896480867 -33.394470191059966 12.751787745132294 0 -0.55919291073839883 0.82903756765294845 3 0 0 1 I I #
face $-1 $-1 $539 $53 $-1 $540 reversed single #
loop $-1 $-1 $394 $258 #
plane-surface $-1 0 0 16.350497140959973 0 0 1 1 0 0 forward_v I I I I #
coedge $-1 $541 $261 $263 $396 forward $163 $-1 #
coedge $-1 $261 $541 $542 $543 reversed $163 $-1 #
coedge $-1 $544 $264 $261 $393 forward $259 $-1 #
edge $-1 $399 20.7734484934889 $545 42.62943828866289 $392 $546 forward 7 unknown #
coedge $-1 $547 $548 $262 $395 forward $388 $-1 #
edge $-1 $549 -32.871025968292571 $398 -22.20041399552202 $394 $550 forward 7 unknown #
edge $-1 $399 -1.6747963185031944e-014 $549 12.871083759183115 $263 $551 forward 7 unknown #
coedge $-1 $264 $544 $547 $552 reversed $259 $-1 #
vertex $-1 $552 $553 #
vertex $-1 $265 $554 #
straight-curve $-1 52.474891884564791 -38.729776177445231 66.199632523922048 0 0 -1 I I #
coedge $-1 $401 $401 $-1 $555 reversed $268 $-1 #
edge $-1 $556 0 $556 6.2831853071796004 $269 $557 forward 7 unknown #
vertex $-1 $272 $558 #
ellipse-curve $-1 58.71946039747165 -33.394470191059966 12.751787745132294 0 -0.55919291073839883 0.82903756765294845 3 0 0 1 I I #
coedge $-1 $405 $405 $-1 $559 reversed $275 $-1 #
edge $-1 $560 0 $560 6.2831853071796004 $276 $561 forward 7 unknown #
vertex $-1 $279 $562 #
ellipse-curve $-1 68.086313166831914 -33.394470191059966 12.751787745132294 0 -0.55919291073839883 0.82903756765294845 3 0 0 1 I I #
face $-1 $-1 $295 $42 $-1 $563 reversed single #
loop $-1 $-1 $425 $280 #
plane-surface $-1 0 38.729776177445231 0 0 -1 0 0 0 -1 forward_v I I I I #
coedge $-1 $564 $423 $426 $565 forward $281 $-1 #
coedge $-1 $429 $283 $284 $417 reversed $177 $-1 #
coedge $-1 $423 $564 $283 $415 reversed $281 $-1 #
edge $-1 $430 -16.350497140959973 $566 16.350497140959973 $414 $567 forward 7 unknown #
coedge $-1 $285 $284 $564 $568 forward $113 $-1 #
edge $-1 $421 -74.330881679738766 $566 74.330881679738766 $413 $569 forward 7 unknown #
coedge $-1 $426 $425 $285 $419 reversed $410 $-1 #
edge $-1 $570 -74.330881679738766 $420 74.330881679738766 $418 $571 forward 7 unknown #
vertex $-1 $287 $572 #
vertex $-1 $432 $573 #
straight-curve $-1 74.330881679738766 0 -16.350497140959973 0 -1 0 I I #
coedge $-1 $412 $414 $288 $424 reversed $281 $-1 #
edge $-1 $427 -38.729776177445231 $430 38.729776177445231 $423 $574 forward 7 unknown #
coedge $-1 $418 $289 $294 $433 forward $410 $-1 #
coedge $-1 $289 $418 $412 $565 reversed $410 $-1 #
vertex $-1 $290 $575 #
straight-curve $-1 0 38.729776177445231 16.350497140959973 -1 0 0 I I #
coedge $-1 $291 $413 $293 $432 reversed $177 $-1 #
vertex $-1 $424 $576 #
straight-curve $-1 0 -38.729776177445231 16.350497140959973 1 0 0 I I #
edge $-1 $296 -16.350497140959973 $421 16.350497140959973 $293 $577 forward 7 unknown #
edge $-1 $297 -16.350497140959973 $420 16.350497140959973 $294 $578 forward 7 unknown #
point $-1 74.330881679738766 -38.729776177445231 16.350497140959973 #
point $-1 74.330881679738766 38.729776177445231 16.350497140959973 #
face $-1 $-1 $314 $43 $-1 $579 reversed single #
loop $-1 $-1 $445 $299 #
plane-surface $-1 0 0 16.350497140959973 0 0 1 1 0 0 forward_v I I I I #
coedge $-1 $451 $450 $303 $444 forward $300 $-1 #
coedge $-1 $305 $302 $451 $580 reversed $185 $-1 #
coedge $-1 $302 $305 $454 $581 reversed $185 $-1 #
edge $-1 $456 -16.350497140959973 $452 16.350497140959973 $302 $582 forward 7 unknown #
coedge $-1 $304 $303 $458 $583 reversed $117 $-1 #
edge $-1 $584 -40.209404215117075 $448 -28.033550714126307 $439 $585 forward 7 unknown #
coedge $-1 $455 $454 $304 $446 forward $437 $-1 #
edge $-1 $447 28.033550714126307 $586 40.209404215117075 $445 $587 forward 7 unknown #
vertex $-1 $446 $588 #
vertex $-1 $444 $589 #
straight-curve $-1 -62.155028178747997 -26.195875174247163 0 0 0 -1 I I #
coedge $-1 $439 $308 $313 $460 forward $300 $-1 #
coedge $-1 $308 $439 $440 $580 forward $300 $-1 #
vertex $-1 $309 $590 #
straight-curve $-1 -34.121477464621691 -33.404424989541084 -16.350497140959973 -1 0 0 I I #
coedge $-1 $445 $310 $441 $581 forward $437 $-1 #
coedge $-1 $310 $445 $312 $459 forward $437 $-1 #
vertex $-1 $311 $591 #
straight-curve $-1 -34.121477464621691 -33.404424989541084 16.350497140959973 1 0 0 I I #
coedge $-1 $313 $312 $443 $583 forward $314 $-1 #
edge $-1 $586 26.195875174247163 $316 33.404424989541084 $312 $592 forward 7 unknown #
edge $-1 $315 -33.404424989541084 $584 -26.195875174247163 $313 $593 forward 7 unknown #
point $-1 -74.330881679738766 -33.404424989541084 -16.350497140959973 #
point $-1 -74.330881679738766 -33.404424989541084 16.350497140959973 #
plane-surface $-1 0 0 16.350497140959973 0 0 1 1 0 0 forward_v I I I I #
coedge $-1 $474 $473 $466 $594 forward $319 $-1 #
coedge $-1 $466 $321 $323 $470 reversed $193 $-1 #
coedge $-1 $321 $465 $464 $594 reversed $193 $-1 #
coedge $-1 $329 $324 $321 $468 forward $330 $-1 #
edge $-1 $471 -0.76258653040021329 $595 9.9080254423702812 $467 $596 forward 7 unknown #
coedge $-1 $323 $322 $474 $597 reversed $121 $-1 #
edge $-1 $598 -77.459552354890462 $471 -64.588468595707411 $465 $599 forward 7 unknown #
vertex $-1 $325 $600 #
straight-curve $-1 -25.613516640580503 28.059164204674737 16.350497140959973 1 0 0 I I #
coedge $-1 $464 $326 $329 $478 reversed $319 $-1 #
coedge $-1 $326 $464 $469 $597 forward $319 $-1 #
vertex $-1 $327 $601 #
straight-curve $-1 -62.155028178747997 38.729776177445231 87.857048796834363 0 0 1 I I #
straight-curve $-1 -62.155028178747997 -25.487102698339385 52.467910895129265 0 0.82903756765294845 -0.55919291073839883 I I #
edge $-1 $595 40.299038383574015 $331 62.155028178747997 $473 $602 forward 7 unknown #
point $-1 -62.155028178747997 38.729776177445231 16.350497140959973 #
point $-1 -62.155028178747997 28.059164204674737 16.350497140959973 #
edge $-1 $603 1 $603 0 $334 $-1 forward 7 unknown #
vertex $-1 $335 $604 #
ellipse-curve $-1 -55.910459665841145 27.260123789602396 3.6572453749695657 0 0.55919291073839883 0.82903756765294845 3 0 0 1 I I #
point $-1 -52.910459665841145 33.394470191059973 12.751787745132319 #
edge $-1 $605 1 $605 0 $338 $-1 forward 7 unknown #
vertex $-1 $339 $606 #
ellipse-curve $-1 -46.543606896480867 27.260123789602396 3.6572453749695657 0 0.55919291073839883 0.82903756765294845 3 0 0 1 I I #
point $-1 -43.543606896480867 33.394470191059973 12.751787745132319 #
loop $-1 $-1 $349 $342 #
plane-surface $-1 0 38.729776177445231 0 0 -1 0 0 0 -1 forward_v I I I I #
coedge $-1 $607 $608 $346 $493 forward $343 $-1 #
coedge $-1 $346 $345 $498 $609 reversed $135 $-1 #
edge $-1 $495 39.353743875026183 $610 52.224827634209234 $491 $611 forward 7 unknown #
coedge $-1 $352 $347 $608 $612 forward $215 $-1 #
vertex $-1 $612 $613 #
straight-curve $-1 31.701443391075891 28.059164204674737 16.350497140959973 1 0 0 I I #
coedge $-1 $614 $349 $352 $502 reversed $489 $-1 #
coedge $-1 $349 $614 $492 $609 forward $489 $-1 #
vertex $-1 $350 $615 #
straight-curve $-1 52.474891884564791 38.729776177445231 87.857048796834363 0 0 1 I I #
straight-curve $-1 52.474891884564791 -25.487102698339385 52.467910895129265 0 0.82903756765294845 -0.55919291073839883 I I #
edge $-1 $616 -74.330881679738766 $353 -52.474891884564791 $497 $617 forward 7 unknown #
point $-1 52.474891884564791 38.729776177445231 16.350497140959973 #
point $-1 52.474891884564791 28.059164204674737 16.350497140959973 #
edge $-1 $618 1 $618 0 $356 $-1 forward 7 unknown #
vertex $-1 $357 $619 #
ellipse-curve $-1 58.71946039747165 27.260123789602396 3.6572453749695657 0 0.55919291073839883 0.82903756765294845 3 0 0 1 I I #
point $-1 61.71946039747165 33.394470191059973 12.751787745132319 #
edge $-1 $620 1 $620 0 $360 $-1 forward 7 unknown #
vertex $-1 $361 $621 #
ellipse-curve $-1 68.086313166831914 27.260123789602396 3.6572453749695657 0 0.55919291073839883 0.82903756765294845 3 0 0 1 I I #
point $-1 71.086313166831914 33.394470191059973 12.751787745132319 #
loop $-1 $-1 $521 $364 #
plane-surface $-1 -62.155028178747997 -29.800150081894124 0 -1 0 0 0 0 1 forward_v I I I I #
coedge $-1 $375 $370 $622 $623 forward $365 $-1 #
coedge $-1 $372 $367 $520 $624 forward $237 $-1 #
coedge $-1 $367 $372 $375 $528 reversed $237 $-1 #
coedge $-1 $622 $521 $367 $519 reversed $513 $-1 #
edge $-1 $625 49.849135382962075 $626 57.04655417461742 $367 $627 forward 7 unknown #
coedge $-1 $369 $368 $516 $624 reversed $149 $-1 #
coedge $-1 $518 $622 $369 $522 forward $513 $-1 #
edge $-1 $523 -11.72875427221226 $626 1.14232948697087 $521 $628 forward 7 unknown #
vertex $-1 $623 $629 #
straight-curve $-1 -25.613516640580503 -28.05916420467468 16.350497140959973 -1 0 0 I I #
vertex $-1 $373 $630 #
straight-curve $-1 -40.299038383574015 -38.729776177445231 66.199632523922048 0 0 1 I I #
straight-curve $-1 -40.299038383574015 -38.729776177445217 9.1530783493046357 0 -0.82903756765294845 -0.55919291073839883 I I #
edge $-1 $625 -62.155028178747997 $376 -40.299038383574015 $517 $631 forward 7 unknown #
point $-1 -40.299038383574015 -38.729776177445231 16.350497140959973 #
point $-1 -40.299038383574015 -28.05916420467468 16.350497140959973 #
edge $-1 $632 1 $632 0 $379 $-1 forward 7 unknown #
vertex $-1 $380 $633 #
ellipse-curve $-1 -55.910459665841145 -27.260123789602403 3.6572453749695621 0 -0.55919291073839883 0.82903756765294845 3 0 0 1 I I #
point $-1 -52.910459665841145 -33.39447019105998 12.751787745132315 #
edge $-1 $634 1 $634 0 $383 $-1 forward 7 unknown #
vertex $-1 $384 $635 #
ellipse-curve $-1 -46.543606896480867 -27.260123789602403 3.6572453749695621 0 -0.55919291073839883 0.82903756765294845 3 0 0 1 I I #
point $-1 -43.543606896480867 -33.39447019105998 12.751787745132315 #
loop $-1 $-1 $542 $387 #
plane-surface $-1 74.330881679738766 0 0 -1 0 0 0 0 1 forward_v I I I I #
coedge $-1 $391 $390 $548 $636 reversed $163 $-1 #
coedge $-1 $637 $638 $391 $543 forward $539 $-1 #
edge $-1 $545 -13.495051456764021 $639 -0.62396769758089121 $542 $640 forward 7 unknown #
coedge $-1 $397 $392 $638 $641 reversed $259 $-1 #
vertex $-1 $393 $642 #
straight-curve $-1 31.701443391075891 -38.729776177445231 9.1530783493046286 1 0 0 I I #
coedge $-1 $643 $394 $397 $552 forward $388 $-1 #
coedge $-1 $394 $643 $541 $636 forward $388 $-1 #
vertex $-1 $395 $644 #
straight-curve $-1 52.474891884564791 -60.930190172967251 16.350497140959973 0 -1 0 I I #
straight-curve $-1 52.474891884564791 -38.729776177445217 9.1530783493046357 0 0.82903756765294845 0.55919291073839883 I I #
edge $-1 $398 52.474891884564791 $645 74.330881679738766 $397 $646 forward 7 unknown #
point $-1 52.474891884564791 -38.729776177445231 16.350497140959973 #
point $-1 52.474891884564791 -38.729776177445231 9.1530783493046268 #
edge $-1 $647 1 $647 0 $401 $-1 forward 7 unknown #
vertex $-1 $402 $648 #
ellipse-curve $-1 58.71946039747165 -27.260123789602403 3.6572453749695621 0 -0.55919291073839883 0.82903756765294845 3 0 0 1 I I #
point $-1 61.71946039747165 -33.39447019105998 12.751787745132315 #
edge $-1 $649 1 $649 0 $405 $-1 forward 7 unknown #
vertex $-1 $406 $650 #
ellipse-curve $-1 68.086313166831914 -27.260123789602403 3.6572453749695621 0 -0.55919291073839883 0.82903756765294845 3 0 0 1 I I #
point $-1 71.086313166831914 -33.39447019105998 12.751787745132315 #
plane-surface $-1 74.330881679738766 0 0 -1 0 0 0 0 1 forward_v I I I I #
coedge $-1 $414 $412 $416 $568 reversed $281 $-1 #
edge $-1 $427 -16.350497140959973 $570 16.350497140959973 $426 $651 forward 7 unknown #
vertex $-1 $568 $652 #
straight-curve $-1 -74.330881679738766 -38.729776177445231 0 0 0 -1 I I #
edge $-1 $566 -38.729776177445231 $570 38.729776177445231 $564 $653 forward 7 unknown #
straight-curve $-1 0 -38.729776177445231 -16.350497140959973 -1 0 0 I I #
vertex $-1 $419 $654 #
straight-curve $-1 0 38.729776177445231 -16.350497140959973 1 0 0 I I #
point $-1 74.330881679738766 38.729776177445231 -16.350497140959973 #
point $-1 74.330881679738766 -38.729776177445231 -16.350497140959973 #
straight-curve $-1 -74.330881679738766 0 16.350497140959973 0 -1 0 I I #
point $-1 -74.330881679738766 38.729776177445231 16.350497140959973 #
point $-1 -74.330881679738766 -38.729776177445231 16.350497140959973 #
straight-curve $-1 74.330881679738766 -38.729776177445231 0 0 0 -1 I I #
straight-curve $-1 74.330881679738766 38.729776177445231 0 0 0 -1 I I #
plane-surface $-1 -74.330881679738766 0 0 1 0 0 0 0 -1 forward_v I I I I #
edge $-1 $448 11.295800133300101 $452 18.504349948594022 $451 $655 forward 7 unknown #
edge $-1 $456 -18.504349948594022 $447 -11.295800133300101 $454 $656 forward 7 unknown #
straight-curve $-1 -62.155028178747997 -33.404424989541084 0 0 0 -1 I I #
edge $-1 $586 -16.350497140959973 $584 16.350497140959973 $458 $657 forward 7 unknown #
vertex $-1 $583 $658 #
straight-curve $-1 -34.121477464621691 -26.195875174247163 -16.350497140959973 1 0 0 I I #
vertex $-1 $459 $659 #
straight-curve $-1 -34.121477464621691 -26.195875174247163 16.350497140959973 -1 0 0 I I #
point $-1 -62.155028178747997 -26.195875174247163 16.350497140959973 #
point $-1 -62.155028178747997 -26.195875174247163 -16.350497140959973 #
point $-1 -62.155028178747997 -33.404424989541084 -16.350497140959973 #
point $-1 -62.155028178747997 -33.404424989541084 16.350497140959973 #
straight-curve $-1 -74.330881679738766 0 16.350497140959973 0 -1 0 I I #
straight-curve $-1 -74.330881679738766 0 -16.350497140959973 0 1 0 I I #
edge $-1 $595 71.506551655874389 $598 78.703970447529699 $464 $660 forward 7 unknown #
vertex $-1 $478 $661 #
straight-curve $-1 -40.299038383574015 28.82175073507495 16.350497140959973 0 1 0 I I #
edge $-1 $598 14.685521742993512 $475 36.541511538167498 $474 $662 forward 7 unknown #
vertex $-1 $597 $663 #
straight-curve $-1 -40.299038383574015 -25.487102698339385 52.467910895129265 0 -0.82903756765294845 0.55919291073839883 I I #
point $-1 -40.299038383574015 28.059164204674737 16.350497140959973 #
point $-1 -62.155028178747997 38.729776177445231 9.1530783493046641 #
straight-curve $-1 0 38.729776177445231 16.350497140959973 -1 0 0 I I #
vertex $-1 $481 $664 #
point $-1 -52.910459665841145 27.260123789602396 3.6572453749695657 #
vertex $-1 $485 $665 #
point $-1 -43.543606896480867 27.260123789602396 3.6572453749695657 #
coedge $-1 $608 $491 $614 $666 reversed $343 $-1 #
coedge $-1 $491 $607 $494 $612 reversed $343 $-1 #
edge $-1 $610 -42.62943828866289 $499 -20.7734484934889 $498 $667 forward 7 unknown #
vertex $-1 $493 $668 #
straight-curve $-1 74.330881679738766 -4.5665678955140869 38.356831726889297 0 0.82903756765294845 -0.55919291073839883 I I #
edge $-1 $495 28.059164204674737 $616 38.729776177445231 $608 $669 forward 7 unknown #
point $-1 74.330881679738781 28.059164204674737 16.350497140959973 #
coedge $-1 $498 $497 $607 $666 forward $489 $-1 #
point $-1 52.474891884564791 38.729776177445231 9.1530783493046641 #
vertex $-1 $612 $670 #
straight-curve $-1 0 38.729776177445231 16.350497140959973 -1 0 0 I I #
vertex $-1 $505 $671 #
point $-1 61.71946039747165 27.260123789602396 3.6572453749695657 #
vertex $-1 $509 $672 #
point $-1 71.086313166831914 27.260123789602396 3.6572453749695657 #
coedge $-1 $521 $518 $515 $623 reversed $513 $-1 #
edge $-1 $523 -32.871025968292571 $625 -22.20041399552202 $515 $673 forward 7 unknown #
edge $-1 $626 -36.541511538167498 $525 -14.685521742993512 $516 $674 forward 7 unknown #
vertex $-1 $528 $675 #
vertex $-1 $519 $676 #
straight-curve $-1 -62.155028178747997 -38.729776177445231 66.199632523922048 0 0 -1 I I #
straight-curve $-1 -62.155028178747997 -37.782742118108658 9.7918609001461654 0 -0.82903756765294845 -0.55919291073839883 I I #
point $-1 -62.155028178747997 -28.05916420467468 16.350497140959973 #
point $-1 -40.299038383574015 -38.729776177445231 9.1530783493046268 #
straight-curve $-1 0 -38.729776177445231 16.350497140959973 1 0 0 I I #
vertex $-1 $531 $677 #
point $-1 -52.910459665841145 -27.260123789602403 3.6572453749695621 #
vertex $-1 $535 $678 #
point $-1 -43.543606896480867 -27.260123789602403 3.6572453749695621 #
edge $-1 $639 -42.62943828866289 $549 -20.7734484934889 $548 $679 forward 7 unknown #
coedge $-1 $638 $542 $643 $680 reversed $539 $-1 #
coedge $-1 $542 $637 $544 $641 forward $539 $-1 #
vertex $-1 $543 $681 #
straight-curve $-1 74.330881679738766 -27.541871542378207 16.699415453976968 0 0.82903756765294845 0.55919291073839883 I I #
edge $-1 $645 -16.350497140959973 $545 -9.1530783493046268 $638 $682 forward 7 unknown #
point $-1 74.330881679738781 -38.729776177445231 9.1530783493046268 #
coedge $-1 $548 $547 $637 $680 forward $388 $-1 #
point $-1 52.474891884564791 -28.05916420467468 16.350497140959973 #
vertex $-1 $680 $683 #
straight-curve $-1 0 -38.729776177445231 16.350497140959973 1 0 0 I I #
vertex $-1 $555 $684 #
point $-1 61.71946039747165 -27.260123789602403 3.6572453749695621 #
vertex $-1 $559 $685 #
point $-1 71.086313166831914 -27.260123789602403 3.6572453749695621 #
straight-curve $-1 -74.330881679738766 38.729776177445231 0 0 0 -1 I I #
point $-1 -74.330881679738766 -38.729776177445231 -16.350497140959973 #
straight-curve $-1 -74.330881679738766 0 -16.350497140959973 0 1 0 I I #
point $-1 -74.330881679738766 38.729776177445231 -16.350497140959973 #
straight-curve $-1 -62.155028178747997 -14.900075040947062 -16.350497140959973 0 -1 0 I I #
straight-curve $-1 -62.155028178747997 -14.900075040947062 16.350497140959973 0 1 0 I I #
straight-curve $-1 -74.330881679738766 -26.195875174247163 0 0 0 -1 I I #
point $-1 -74.330881679738766 -26.195875174247163 -16.350497140959973 #
point $-1 -74.330881679738766 -26.195875174247163 16.350497140959973 #
straight-curve $-1 -40.299038383574015 38.729776177445231 87.857048796834363 0 0 -1 I I #
point $-1 -40.299038383574015 38.729776177445231 16.350497140959973 #
straight-curve $-1 -25.613516640580503 38.729776177445231 9.1530783493046641 -1 0 0 I I #
point $-1 -40.299038383574015 38.729776177445231 9.1530783493046641 #
point $-1 -55.910459665841145 25.5825450573872 1.1701326720107201 #
point $-1 -46.543606896480867 25.5825450573872 1.1701326720107201 #
edge $-1 $616 -16.350497140959973 $610 -9.1530783493046641 $607 $686 forward 7 unknown #
straight-curve $-1 31.701443391075891 38.729776177445231 9.1530783493046641 -1 0 0 I I #
point $-1 74.330881679738781 38.729776177445231 9.1530783493046641 #
straight-curve $-1 74.330881679738766 0 16.350497140959973 0 1 0 I I #
point $-1 74.330881679738766 38.729776177445231 16.350497140959973 #
point $-1 58.71946039747165 25.5825450573872 1.1701326720107201 #
point $-1 68.086313166831914 25.5825450573872 1.1701326720107201 #
straight-curve $-1 -62.155028178747997 -60.930190172967251 16.350497140959973 0 -1 0 I I #
straight-curve $-1 -25.613516640580503 -38.729776177445231 9.1530783493046286 1 0 0 I I #
point $-1 -62.155028178747997 -38.729776177445231 16.350497140959973 #
point $-1 -62.155028178747997 -38.729776177445231 9.1530783493046268 #
point $-1 -55.910459665841145 -25.582545057387208 1.1701326720107166 #
point $-1 -46.543606896480867 -25.582545057387208 1.1701326720107166 #
straight-curve $-1 31.701443391075891 -28.05916420467468 16.350497140959973 -1 0 0 I I #
edge $-1 $645 -38.729776177445231 $639 -28.05916420467468 $637 $687 forward 7 unknown #
point $-1 74.330881679738781 -28.05916420467468 16.350497140959973 #
straight-curve $-1 74.330881679738766 -38.729776177445231 0 0 0 -1 I I #
point $-1 74.330881679738766 -38.729776177445231 16.350497140959973 #
point $-1 58.71946039747165 -25.582545057387208 1.1701326720107166 #
point $-1 68.086313166831914 -25.582545057387208 1.1701326720107166 #
straight-curve $-1 74.330881679738766 38.729776177445231 0 0 0 -1 I I #
straight-curve $-1 74.330881679738766 0 16.350497140959973 0 1 0 I I #
End-of-ACIS-data 