500 0 8 0           
7 Unknown 11 ACIS 5.0 NT 24 Fri Mar 26 02:12:06 1999 
-1 9.9999999999999995e-007 1e-010 
body $-1 $8 $-1 $9 #
body $-1 $10 $-1 $11 #
body $-1 $12 $-1 $13 #
body $-1 $14 $-1 $15 #
body $-1 $16 $-1 $17 #
body $-1 $18 $-1 $19 #
body $-1 $20 $-1 $21 #
body $-1 $22 $-1 $23 #
lump $-1 $-1 $24 $0 #
transform $-1 1 0 0 0 1 0 0 0 1 50.657063509018215 20.375527205109027 5.8376224340379812 1 rotate no_reflect no_shear #
lump $-1 $-1 $25 $1 #
transform $-1 1 0 0 0 1 0 0 0 1 50.657063509018215 20.375527205109027 5.8376224340379812 1 rotate no_reflect no_shear #
lump $-1 $-1 $26 $2 #
transform $-1 1 0 0 0 1 0 0 0 1 50.657063509018215 20.375527205109027 5.8376224340379812 1 rotate no_reflect no_shear #
lump $-1 $-1 $27 $3 #
transform $-1 1 0 0 0 1 0 0 0 1 50.657063509018215 20.375527205109027 5.8376224340379812 1 rotate no_reflect no_shear #
lump $-1 $-1 $28 $4 #
transform $-1 1 0 0 0 1 0 0 0 1 50.657063509018215 20.375527205109027 5.8376224340379812 1 rotate no_reflect no_shear #
lump $-1 $-1 $29 $5 #
transform $-1 1 0 0 0 1 0 0 0 1 50.657063509018215 20.375527205109027 5.8376224340379812 1 rotate no_reflect no_shear #
lump $-1 $-1 $30 $6 #
transform $-1 1 0 0 0 1 0 0 0 1 50.657063509018215 20.375527205109027 5.8376224340379812 1 rotate no_reflect no_shear #
lump $-1 $-1 $31 $7 #
transform $-1 1 0 0 0 1 0 0 0 1 50.657063509018215 20.375527205109027 5.8376224340379812 1 rotate no_reflect no_shear #
shell $-1 $-1 $-1 $32 $-1 $8 #
shell $-1 $-1 $-1 $33 $-1 $10 #
shell $-1 $-1 $-1 $34 $-1 $12 #
shell $-1 $-1 $-1 $35 $-1 $14 #
shell $-1 $-1 $-1 $36 $-1 $16 #
shell $-1 $-1 $-1 $37 $-1 $18 #
shell $-1 $-1 $-1 $38 $-1 $20 #
shell $-1 $-1 $-1 $39 $-1 $22 #
face $-1 $40 $41 $24 $-1 $42 forward single #
face $-1 $43 $44 $25 $-1 $45 forward single #
face $-1 $46 $47 $26 $-1 $48 reversed single #
face $-1 $49 $50 $27 $-1 $51 forward single #
face $-1 $52 $53 $28 $-1 $54 reversed single #
face $-1 $55 $56 $29 $-1 $57 forward single #
face $-1 $58 $59 $30 $-1 $60 reversed single #
face $-1 $61 $62 $31 $-1 $63 forward single #
face $-1 $64 $65 $24 $-1 $66 reversed single #
loop $-1 $-1 $67 $32 #
plane-surface $-1 0 0 5.8376224340379812 0 0 1 1 0 0 forward_v I I I I #
face $-1 $68 $69 $25 $-1 $70 reversed single #
loop $-1 $-1 $71 $33 #
plane-surface $-1 0 -16.962808270606565 0.09083862391020503 0 0 1 1 0 0 forward_v I I I I #
face $-1 $72 $73 $26 $-1 $74 reversed single #
loop $-1 $-1 $75 $34 #
plane-surface $-1 75.537343845142786 -11.221108509500883 142.72820557041302 0 1 0 0.81915205242281985 0 0.57357642473473569 forward_v I I I I #
face $-1 $76 $77 $27 $-1 $78 forward single #
loop $-1 $79 $80 $35 #
cone-surface $-1 48.772680056344647 -7.1130453573124726 3.4445908716696092 -0.81915205242281985 0 -0.57357642473473569 0.28678821236736785 0 -0.40957602621140993 1 I I 0 1 0.5 forward I I I I #
face $-1 $81 $82 $28 $-1 $83 reversed single #
loop $-1 $-1 $84 $36 #
plane-surface $-1 75.537343845142786 9.8304200741289876 142.72820557041302 0 1 0 0.81915205242281985 0 0.57357642473473569 forward_v I I I I #
face $-1 $85 $86 $29 $-1 $87 forward single #
loop $-1 $88 $89 $37 #
cone-surface $-1 48.772680056344647 13.938483226317398 3.4445908716696092 -0.81915205242281985 0 -0.57357642473473569 0.28678821236736785 0 -0.40957602621140993 1 I I 0 1 0.5 forward I I I I #
face $-1 $90 $91 $30 $-1 $92 reversed single #
loop $-1 $-1 $93 $38 #
plane-surface $-1 -137.50022108184345 -13.550089336104106 53.767230350341293 0 1 0 -0.85716730853699208 0 0.51503806187062418 forward_v I I I I #
face $-1 $94 $95 $31 $-1 $96 forward single #
loop $-1 $97 $98 $39 #
cone-surface $-1 -48.951343531860175 -10.29152599177371 3.4545915515124621 0.85716730853699208 0 -0.51503806187062418 0.25751903093531209 0 0.42858365426849604 1 I I 0 1 0.5 forward I I I I #
face $-1 $99 $100 $24 $-1 $101 reversed single #
loop $-1 $-1 $102 $40 #
plane-surface $-1 0 0 -5.8376224340379812 0 0 1 1 0 0 forward_v I I I I #
coedge $-1 $103 $104 $105 $106 forward $41 $-1 #
face $-1 $107 $108 $25 $-1 $109 reversed single #
loop $-1 $-1 $110 $43 #
plane-surface $-1 0 -16.962808270606565 -2.909161376089795 0 0 1 1 0 0 forward_v I I I I #
coedge $-1 $111 $112 $113 $114 reversed $44 $-1 #
face $-1 $115 $116 $26 $-1 $117 reversed single #
loop $-1 $-1 $118 $46 #
plane-surface $-1 -7.4543312411080223 -7.1130453573124726 84.616810820286801 0.81915205242281985 0 0.57357642473473569 0.57357642473473569 0 -0.81915205242281985 forward_v I I I I #
coedge $-1 $119 $120 $121 $122 reversed $47 $-1 #
face $-1 $-1 $123 $27 $-1 $124 forward single #
loop $-1 $125 $126 $49 #
cone-surface $-1 48.158316017027531 -7.1130453573124726 3.0144085531185576 -0.81915205242281985 0 -0.57357642473473569 0.14339410618368392 0 -0.20478801310570496 1 I I -0.70710678118654746 0.70710678118654746 0.25 forward I I I I #
loop $-1 $-1 $127 $35 #
coedge $-1 $80 $80 $128 $129 reversed $50 $-1 #
face $-1 $130 $131 $28 $-1 $132 reversed single #
loop $-1 $-1 $133 $52 #
plane-surface $-1 -7.4543312411080223 13.938483226317398 84.616810820286801 0.81915205242281985 0 0.57357642473473569 0.57357642473473569 0 -0.81915205242281985 forward_v I I I I #
coedge $-1 $134 $135 $136 $137 reversed $53 $-1 #
face $-1 $-1 $138 $29 $-1 $139 forward single #
loop $-1 $140 $141 $55 #
cone-surface $-1 48.158316017027531 13.938483226317398 3.0144085531185576 -0.81915205242281985 0 -0.57357642473473569 0.14339410618368392 0 -0.20478801310570496 1 I I -0.70710678118654746 0.70710678118654746 0.25 forward I I I I #
loop $-1 $-1 $142 $37 #
coedge $-1 $89 $89 $143 $144 reversed $56 $-1 #
face $-1 $145 $146 $30 $-1 $147 reversed single #
loop $-1 $-1 $148 $58 #
plane-surface $-1 -50.657063509018215 -10.29152599177371 1.5865987308575669 -0.85716730853699208 0 0.51503806187062418 0.51503806187062418 0 0.85716730853699208 forward_v I I I I #
coedge $-1 $149 $150 $151 $152 reversed $59 $-1 #
face $-1 $-1 $153 $31 $-1 $154 forward single #
loop $-1 $155 $156 $61 #
cone-surface $-1 -48.308468050457428 -10.29152599177371 3.068313005109494 0.85716730853699208 0 -0.51503806187062418 0.12875951546765604 0 0.21429182713424802 1 I I -0.70710678118654746 0.70710678118654746 0.25 forward I I I I #
loop $-1 $-1 $157 $39 #
coedge $-1 $98 $98 $158 $159 reversed $62 $-1 #
face $-1 $160 $161 $24 $-1 $162 reversed single #
loop $-1 $-1 $163 $64 #
plane-surface $-1 0 -20.375527205109027 0 0 1 0 0 0 1 forward_v I I I I #
coedge $-1 $164 $165 $166 $167 forward $65 $-1 #
coedge $-1 $168 $67 $169 $170 forward $41 $-1 #
coedge $-1 $67 $168 $171 $172 forward $41 $-1 #
coedge $-1 $173 $174 $67 $106 reversed $175 $-1 #
edge $-1 $176 -20.375527205109027 $177 20.375527205109027 $105 $178 forward 7 unknown #
face $-1 $179 $180 $25 $-1 $181 reversed single #
loop $-1 $-1 $182 $68 #
plane-surface $-1 0 -13.550089336104104 -1.409161376089795 0 -1 0 0 0 -1 forward_v I I I I #
coedge $-1 $183 $184 $185 $186 reversed $69 $-1 #
coedge $-1 $187 $71 $188 $189 forward $44 $-1 #
coedge $-1 $71 $187 $190 $191 reversed $44 $-1 #
coedge $-1 $192 $193 $71 $114 forward $194 $-1 #
edge $-1 $195 5.0686852008008216 $196 11.894123069805744 $113 $197 forward 7 unknown #
face $-1 $198 $199 $26 $-1 $200 forward single #
loop $-1 $-1 $201 $72 #
plane-surface $-1 75.537343845142786 -3.0049822051240618 142.72820557041302 0 -1 0 -0.81915205242281985 0 -0.57357642473473569 forward_v I I I I #
coedge $-1 $202 $203 $204 $205 reversed $73 $-1 #
coedge $-1 $120 $75 $206 $207 reversed $47 $-1 #
coedge $-1 $75 $119 $202 $208 reversed $47 $-1 #
coedge $-1 $204 $209 $75 $122 forward $210 $-1 #
edge $-1 $211 65.52648035116853 $212 69.738967051170548 $121 $213 forward 7 unknown #
loop $-1 $-1 $128 $76 #
plane-surface $-1 -7.4543312411080223 -7.1130453573124726 84.616810820286801 0.81915205242281985 0 0.57357642473473569 0.57357642473473569 0 -0.81915205242281985 forward_v I I I I #
loop $-1 $-1 $214 $49 #
coedge $-1 $126 $126 $127 $215 reversed $77 $-1 #
coedge $-1 $127 $127 $126 $215 forward $79 $-1 #
coedge $-1 $128 $128 $80 $129 forward $123 $-1 #
edge $-1 $216 0 $216 6.2831853071796004 $128 $217 forward 7 unknown #
face $-1 $218 $219 $28 $-1 $220 reversed single #
loop $-1 $-1 $221 $81 #
plane-surface $-1 75.537343845142786 18.046546378505809 142.72820557041302 0 -1 0 -0.81915205242281985 0 -0.57357642473473569 forward_v I I I I #
coedge $-1 $222 $223 $224 $225 reversed $82 $-1 #
coedge $-1 $135 $84 $226 $227 reversed $53 $-1 #
coedge $-1 $84 $134 $222 $228 reversed $53 $-1 #
coedge $-1 $224 $229 $84 $137 forward $219 $-1 #
edge $-1 $230 65.52648035116853 $231 69.738967051170548 $136 $232 forward 7 unknown #
loop $-1 $-1 $143 $85 #
plane-surface $-1 -7.4543312411080223 13.938483226317398 84.616810820286801 0.81915205242281985 0 0.57357642473473569 0.57357642473473569 0 -0.81915205242281985 forward_v I I I I #
loop $-1 $-1 $233 $55 #
coedge $-1 $141 $141 $142 $234 reversed $86 $-1 #
coedge $-1 $142 $142 $141 $234 forward $88 $-1 #
coedge $-1 $143 $143 $89 $144 forward $138 $-1 #
edge $-1 $235 0 $235 6.2831853071796004 $143 $236 forward 7 unknown #
face $-1 $237 $238 $30 $-1 $239 reversed single #
loop $-1 $-1 $240 $90 #
plane-surface $-1 -137.50022108184345 -7.0329626474433145 53.767230350341293 0 -1 0 0.85716730853699208 0 -0.51503806187062418 forward_v I I I I #
coedge $-1 $241 $242 $243 $244 reversed $91 $-1 #
coedge $-1 $150 $93 $245 $246 reversed $59 $-1 #
coedge $-1 $93 $149 $241 $247 reversed $59 $-1 #
coedge $-1 $243 $248 $93 $152 forward $249 $-1 #
edge $-1 $250 18.093047031903509 $251 20.647319677682603 $151 $252 forward 7 unknown #
loop $-1 $-1 $158 $94 #
plane-surface $-1 -50.657063509018215 -10.29152599177371 1.5865987308575669 -0.85716730853699208 0 0.51503806187062418 0.51503806187062418 0 0.85716730853699208 forward_v I I I I #
loop $-1 $-1 $253 $61 #
coedge $-1 $156 $156 $157 $254 reversed $95 $-1 #
coedge $-1 $157 $157 $156 $254 forward $97 $-1 #
coedge $-1 $158 $158 $98 $159 forward $153 $-1 #
edge $-1 $255 0 $255 6.2831853071796004 $158 $256 forward 7 unknown #
face $-1 $257 $258 $24 $-1 $259 reversed single #
loop $-1 $-1 $260 $99 #
plane-surface $-1 -50.657063509018215 0 0 1 0 0 0 0 -1 forward_v I I I I #
coedge $-1 $261 $171 $262 $263 forward $100 $-1 #
coedge $-1 $264 $102 $261 $265 forward $65 $-1 #
coedge $-1 $102 $264 $266 $267 forward $65 $-1 #
coedge $-1 $174 $173 $102 $167 reversed $175 $-1 #
edge $-1 $268 -20.375527205109027 $269 20.375527205109027 $166 $270 forward 7 unknown #
coedge $-1 $104 $103 $271 $272 forward $41 $-1 #
coedge $-1 $273 $274 $103 $170 reversed $258 $-1 #
edge $-1 $177 -50.657063509018215 $275 50.657063509018215 $169 $276 forward 7 unknown #
coedge $-1 $163 $277 $104 $172 reversed $100 $-1 #
edge $-1 $278 -50.657063509018215 $176 50.657063509018215 $171 $279 forward 7 unknown #
coedge $-1 $166 $105 $277 $280 forward $175 $-1 #
coedge $-1 $105 $166 $273 $281 reversed $175 $-1 #
loop $-1 $-1 $173 $257 #
vertex $-1 $106 $282 #
vertex $-1 $106 $283 #
straight-curve $-1 50.657063509018215 0 5.8376224340379812 0 1 0 I I #
face $-1 $284 $285 $25 $-1 $286 reversed single #
loop $-1 $-1 $287 $107 #
plane-surface $-1 -50.657063509018215 0 0 1 0 0 0 0 -1 forward_v I I I I #
coedge $-1 $288 $188 $193 $289 reversed $108 $-1 #
coedge $-1 $290 $110 $291 $292 reversed $69 $-1 #
coedge $-1 $110 $290 $288 $293 forward $69 $-1 #
coedge $-1 $193 $192 $110 $186 forward $194 $-1 #
edge $-1 $294 -11.894123069805744 $295 -5.0686852008008216 $185 $296 forward 7 unknown #
coedge $-1 $112 $111 $287 $297 reversed $44 $-1 #
coedge $-1 $182 $298 $111 $189 reversed $108 $-1 #
edge $-1 $195 -50.657063509018215 $299 50.657063509018215 $188 $300 forward 7 unknown #
coedge $-1 $301 $302 $112 $191 forward $285 $-1 #
edge $-1 $196 -50.657063509018215 $303 50.657063509018215 $190 $304 forward 7 unknown #
coedge $-1 $185 $113 $302 $305 forward $194 $-1 #
coedge $-1 $113 $185 $182 $289 forward $194 $-1 #
loop $-1 $-1 $113 $284 #
vertex $-1 $114 $306 #
vertex $-1 $305 $307 #
straight-curve $-1 50.657063509018215 -8.4814041353032827 0.09083862391020503 0 -1 0 I I #
face $-1 $-1 $210 $26 $-1 $308 reversed single #
loop $-1 $-1 $309 $115 #
plane-surface $-1 0 0 5.8376224340379812 0 0 1 1 0 0 forward_v I I I I #
coedge $-1 $310 $311 $312 $313 reversed $116 $-1 #
coedge $-1 $314 $118 $120 $208 forward $73 $-1 #
coedge $-1 $118 $314 $310 $315 forward $73 $-1 #
coedge $-1 $312 $121 $118 $205 forward $210 $-1 #
edge $-1 $212 -7.6645858308446471 $316 0.5515404735321745 $204 $317 forward 7 unknown #
coedge $-1 $318 $319 $119 $207 forward $199 $-1 #
edge $-1 $320 9.9387767335225234 $211 12.888391586446822 $206 $321 forward 7 unknown #
edge $-1 $212 -101.31412701803649 $320 -96.171630350241202 $120 $322 forward 7 unknown #
coedge $-1 $121 $312 $318 $323 reversed $210 $-1 #
loop $-1 $-1 $312 $198 #
vertex $-1 $323 $324 #
vertex $-1 $122 $325 #
straight-curve $-1 50.657063509018215 -11.221108509500883 71.364102785206512 0 0 -1 I I #
coedge $-1 $214 $214 $-1 $326 reversed $125 $-1 #
edge $-1 $327 0 $327 6.2831853071796004 $126 $328 forward 7 unknown #
vertex $-1 $129 $329 #
ellipse-curve $-1 49.182256082556066 -7.1130453573124726 3.7313790840369809 0.81915205242281985 0 0.57357642473473569 0.28678821236736785 0 -0.40957602621140993 1 I I #
face $-1 $-1 $330 $28 $-1 $331 forward single #
loop $-1 $-1 $136 $130 #
plane-surface $-1 50.657063509018215 0 0 -1 0 0 0 0 1 forward_v I I I I #
coedge $-1 $332 $333 $334 $335 reversed $131 $-1 #
coedge $-1 $336 $133 $135 $228 forward $82 $-1 #
coedge $-1 $133 $336 $332 $337 forward $82 $-1 #
coedge $-1 $334 $136 $133 $225 forward $219 $-1 #
edge $-1 $231 2.8611784609702884 $338 11.07730476534711 $224 $339 forward 7 unknown #
coedge $-1 $340 $341 $134 $227 forward $330 $-1 #
edge $-1 $342 9.9387767335225234 $230 12.888391586446822 $226 $343 forward 7 unknown #
edge $-1 $231 -101.31412701803649 $342 -96.171630350241202 $135 $344 forward 7 unknown #
coedge $-1 $136 $334 $340 $345 reversed $219 $-1 #
vertex $-1 $345 $346 #
vertex $-1 $137 $347 #
straight-curve $-1 50.657063509018215 9.8304200741289876 71.364102785206512 0 0 -1 I I #
coedge $-1 $233 $233 $-1 $348 reversed $140 $-1 #
edge $-1 $349 0 $349 6.2831853071796004 $141 $350 forward 7 unknown #
vertex $-1 $144 $351 #
ellipse-curve $-1 49.182256082556066 13.938483226317398 3.7313790840369809 0.81915205242281985 0 0.57357642473473569 0.28678821236736785 0 -0.40957602621140993 1 I I #
face $-1 $-1 $249 $30 $-1 $352 forward single #
loop $-1 $-1 $353 $145 #
plane-surface $-1 -50.657063509018215 0 0 1 0 0 0 0 -1 forward_v I I I I #
coedge $-1 $354 $355 $356 $357 reversed $146 $-1 #
coedge $-1 $358 $148 $150 $247 forward $91 $-1 #
coedge $-1 $148 $358 $354 $359 forward $91 $-1 #
coedge $-1 $356 $151 $148 $244 forward $249 $-1 #
edge $-1 $251 -8.404326340217251 $360 -1.8871996515564593 $243 $361 forward 7 unknown #
coedge $-1 $362 $363 $149 $246 forward $238 $-1 #
edge $-1 $364 -25.29701644431308 $250 -21.045992741132665 $245 $365 forward 7 unknown #
edge $-1 $251 -4.9593861791533298 $364 0 $150 $366 forward 7 unknown #
coedge $-1 $151 $356 $362 $367 forward $249 $-1 #
loop $-1 $-1 $356 $237 #
vertex $-1 $246 $368 #
vertex $-1 $152 $369 #
straight-curve $-1 -68.750110540921725 -13.550089336104106 5.8376224340379821 1 0 0 I I #
coedge $-1 $253 $253 $-1 $370 reversed $155 $-1 #
edge $-1 $371 0 $371 6.2831853071796004 $156 $372 forward 7 unknown #
vertex $-1 $159 $373 #
ellipse-curve $-1 -49.379927186128668 -10.29152599177371 3.7121105824477736 -0.85716730853699208 0 0.51503806187062418 0.25751903093531209 0 0.42858365426849604 1 I I #
face $-1 $-1 $175 $24 $-1 $374 reversed single #
loop $-1 $-1 $273 $160 #
plane-surface $-1 0 20.375527205109027 0 0 -1 0 0 0 -1 forward_v I I I I #
coedge $-1 $375 $271 $274 $376 forward $161 $-1 #
coedge $-1 $277 $163 $164 $265 reversed $100 $-1 #
coedge $-1 $271 $375 $163 $263 reversed $161 $-1 #
edge $-1 $278 -5.8376224340379812 $377 5.8376224340379812 $262 $378 forward 7 unknown #
coedge $-1 $165 $164 $375 $379 forward $65 $-1 #
edge $-1 $269 -50.657063509018215 $377 50.657063509018215 $261 $380 forward 7 unknown #
coedge $-1 $274 $273 $165 $267 reversed $258 $-1 #
edge $-1 $381 -50.657063509018215 $268 50.657063509018215 $266 $382 forward 7 unknown #
vertex $-1 $167 $383 #
vertex $-1 $280 $384 #
straight-curve $-1 50.657063509018215 0 -5.8376224340379812 0 -1 0 I I #
coedge $-1 $260 $262 $168 $272 reversed $161 $-1 #
edge $-1 $275 -20.375527205109027 $278 20.375527205109027 $271 $385 forward 7 unknown #
coedge $-1 $266 $169 $174 $281 forward $258 $-1 #
coedge $-1 $169 $266 $260 $376 reversed $258 $-1 #
vertex $-1 $170 $386 #
straight-curve $-1 0 20.375527205109027 5.8376224340379812 -1 0 0 I I #
coedge $-1 $171 $261 $173 $280 reversed $100 $-1 #
vertex $-1 $272 $387 #
straight-curve $-1 0 -20.375527205109027 5.8376224340379812 1 0 0 I I #
edge $-1 $176 -5.8376224340379812 $269 5.8376224340379812 $173 $388 forward 7 unknown #
edge $-1 $177 -5.8376224340379812 $268 5.8376224340379812 $174 $389 forward 7 unknown #
point $-1 50.657063509018215 -20.375527205109027 5.8376224340379812 #
point $-1 50.657063509018215 20.375527205109027 5.8376224340379812 #
face $-1 $-1 $194 $25 $-1 $390 reversed single #
loop $-1 $-1 $190 $179 #
plane-surface $-1 0 -20.375527205109027 0 0 1 0 0 0 1 forward_v I I I I #
coedge $-1 $391 $392 $187 $297 forward $180 $-1 #
coedge $-1 $298 $182 $184 $293 reversed $108 $-1 #
edge $-1 $295 -2.2045806880448975 $195 0.79541931195510251 $193 $393 forward 7 unknown #
coedge $-1 $184 $183 $394 $395 reversed $69 $-1 #
coedge $-1 $302 $301 $183 $292 forward $285 $-1 #
edge $-1 $396 -50.657063509018215 $294 50.657063509018215 $291 $397 forward 7 unknown #
edge $-1 $398 -50.657063509018215 $295 50.657063509018215 $288 $399 forward 7 unknown #
vertex $-1 $292 $400 #
vertex $-1 $186 $401 #
straight-curve $-1 50.657063509018215 -8.4814041353032827 -2.909161376089795 0 1 0 I I #
edge $-1 $303 -11.894123069805744 $299 -5.0686852008008216 $287 $402 forward 7 unknown #
coedge $-1 $188 $288 $391 $403 reversed $108 $-1 #
vertex $-1 $297 $404 #
straight-curve $-1 0 -13.550089336104104 0.09083862391020503 -1 0 0 I I #
coedge $-1 $291 $190 $392 $405 forward $285 $-1 #
coedge $-1 $190 $291 $192 $305 reversed $285 $-1 #
vertex $-1 $405 $406 #
straight-curve $-1 0 -20.375527205109027 0.09083862391020503 -1 0 0 I I #
edge $-1 $196 -0.09083862391020503 $294 2.909161376089795 $192 $407 forward 7 unknown #
point $-1 50.657063509018215 -13.550089336104104 0.09083862391020503 #
point $-1 50.657063509018215 -20.375527205109027 0.09083862391020503 #
plane-surface $-1 50.657063509018215 0 0 -1 0 0 0 0 1 forward_v I I I I #
coedge $-1 $319 $318 $311 $408 forward $199 $-1 #
coedge $-1 $311 $201 $203 $315 reversed $116 $-1 #
coedge $-1 $201 $310 $309 $408 reversed $116 $-1 #
coedge $-1 $209 $204 $201 $313 forward $210 $-1 #
edge $-1 $316 -69.738967051170548 $409 -65.52648035116853 $312 $410 forward 7 unknown #
coedge $-1 $203 $202 $319 $411 reversed $73 $-1 #
edge $-1 $412 96.171630350241202 $316 101.31412701803649 $310 $413 forward 7 unknown #
vertex $-1 $205 $414 #
straight-curve $-1 50.657063509018215 -3.5565226786562363 1.6251357340359718 0 1 0 I I #
coedge $-1 $309 $206 $209 $323 forward $199 $-1 #
coedge $-1 $206 $309 $314 $411 forward $199 $-1 #
vertex $-1 $207 $415 #
straight-curve $-1 37.768671922571393 -11.221108509500883 5.8376224340379821 1 0 0 I I #
straight-curve $-1 -7.4543312411080223 -11.221108509500883 84.616810820286801 -0.57357642473473569 0 0.81915205242281985 I I #
edge $-1 $211 -11.221108509500883 $409 -3.0049822051240618 $209 $416 forward 7 unknown #
point $-1 50.657063509018215 -11.221108509500883 5.8376224340379812 #
point $-1 50.657063509018215 -11.221108509500883 1.6251357340359647 #
edge $-1 $417 1 $417 0 $214 $-1 forward 7 unknown #
vertex $-1 $215 $418 #
ellipse-curve $-1 48.363104030133236 -7.1130453573124726 3.1578026593022415 0.81915205242281985 0 0.57357642473473569 0.28678821236736785 0 -0.40957602621140993 1 I I #
point $-1 49.469044294923421 -7.1130453573124726 3.3218030578255671 #
loop $-1 $-1 $226 $218 #
plane-surface $-1 0 0 5.8376224340379812 0 0 1 1 0 0 forward_v I I I I #
coedge $-1 $333 $221 $223 $337 reversed $131 $-1 #
coedge $-1 $221 $332 $419 $420 reversed $131 $-1 #
coedge $-1 $229 $224 $221 $335 forward $219 $-1 #
edge $-1 $338 -69.738967051170548 $421 -65.52648035116853 $334 $422 forward 7 unknown #
coedge $-1 $223 $222 $341 $423 reversed $82 $-1 #
edge $-1 $424 96.171630350241202 $338 101.31412701803649 $332 $425 forward 7 unknown #
vertex $-1 $225 $426 #
straight-curve $-1 50.657063509018215 6.9692416131586992 1.6251357340359718 0 1 0 I I #
coedge $-1 $419 $226 $229 $345 forward $330 $-1 #
coedge $-1 $226 $419 $336 $423 forward $330 $-1 #
vertex $-1 $227 $427 #
straight-curve $-1 37.768671922571393 9.8304200741289876 5.8376224340379821 1 0 0 I I #
straight-curve $-1 -7.4543312411080223 9.8304200741289876 84.616810820286801 -0.57357642473473569 0 0.81915205242281985 I I #
edge $-1 $230 9.8304200741289876 $421 18.046546378505809 $229 $428 forward 7 unknown #
point $-1 50.657063509018215 9.8304200741289876 5.8376224340379812 #
point $-1 50.657063509018215 9.8304200741289876 1.6251357340359647 #
edge $-1 $429 1 $429 0 $233 $-1 forward 7 unknown #
vertex $-1 $234 $430 #
ellipse-curve $-1 48.363104030133236 13.938483226317398 3.1578026593022415 0.81915205242281985 0 0.57357642473473569 0.28678821236736785 0 -0.40957602621140993 1 I I #
point $-1 49.469044294923421 13.938483226317398 3.3218030578255671 #
plane-surface $-1 0 0 5.8376224340379812 0 0 1 1 0 0 forward_v I I I I #
coedge $-1 $363 $362 $355 $431 forward $238 $-1 #
coedge $-1 $355 $240 $242 $359 reversed $146 $-1 #
coedge $-1 $240 $354 $353 $431 reversed $146 $-1 #
coedge $-1 $248 $243 $240 $357 forward $249 $-1 #
edge $-1 $360 -20.647319677682603 $432 -18.093047031903509 $356 $433 forward 7 unknown #
coedge $-1 $242 $241 $363 $434 reversed $91 $-1 #
edge $-1 $435 0 $360 4.9593861791533298 $354 $436 forward 7 unknown #
vertex $-1 $244 $437 #
straight-curve $-1 -48.102790863239122 -5.1457629958868552 5.8376224340379821 0 1 0 I I #
coedge $-1 $353 $245 $248 $367 reversed $238 $-1 #
coedge $-1 $245 $353 $358 $434 forward $238 $-1 #
vertex $-1 $246 $438 #
straight-curve $-1 -50.657063509018215 -13.550089336104106 26.883615175170647 0 0 1 I I #
straight-curve $-1 -50.657063509018215 -13.550089336104106 1.5865987308575669 -0.51503806187062418 0 -0.85716730853699208 I I #
edge $-1 $432 7.0329626474433145 $250 13.550089336104106 $362 $439 forward 7 unknown #
point $-1 -50.657063509018215 -13.550089336104106 5.8376224340379812 #
point $-1 -48.102790863239122 -13.550089336104106 5.8376224340379812 #
edge $-1 $440 1 $440 0 $253 $-1 forward 7 unknown #
vertex $-1 $254 $441 #
ellipse-curve $-1 -48.522759877591675 -10.29152599177371 3.1970725205771502 -0.85716730853699208 0 0.51503806187062418 0.25751903093531209 0 0.42858365426849604 1 I I #
point $-1 -49.122408155193355 -10.29152599177371 4.1406942367162705 #
plane-surface $-1 50.657063509018215 0 0 -1 0 0 0 0 1 forward_v I I I I #
coedge $-1 $262 $260 $264 $379 reversed $161 $-1 #
edge $-1 $275 -5.8376224340379812 $381 5.8376224340379812 $274 $442 forward 7 unknown #
vertex $-1 $379 $443 #
straight-curve $-1 -50.657063509018215 -20.375527205109027 0 0 0 -1 I I #
edge $-1 $377 -20.375527205109027 $381 20.375527205109027 $375 $444 forward 7 unknown #
straight-curve $-1 0 -20.375527205109027 -5.8376224340379812 -1 0 0 I I #
vertex $-1 $267 $445 #
straight-curve $-1 0 20.375527205109027 -5.8376224340379812 1 0 0 I I #
point $-1 50.657063509018215 20.375527205109027 -5.8376224340379812 #
point $-1 50.657063509018215 -20.375527205109027 -5.8376224340379812 #
straight-curve $-1 -50.657063509018215 0 5.8376224340379812 0 -1 0 I I #
point $-1 -50.657063509018215 20.375527205109027 5.8376224340379812 #
point $-1 -50.657063509018215 -20.375527205109027 5.8376224340379812 #
straight-curve $-1 50.657063509018215 -20.375527205109027 0 0 0 -1 I I #
straight-curve $-1 50.657063509018215 20.375527205109027 0 0 0 -1 I I #
plane-surface $-1 50.657063509018215 0 0 -1 0 0 0 0 1 forward_v I I I I #
coedge $-1 $394 $287 $298 $403 forward $180 $-1 #
coedge $-1 $287 $394 $301 $405 reversed $180 $-1 #
straight-curve $-1 50.657063509018215 -13.550089336104104 -0.70458068804489749 0 0 1 I I #
coedge $-1 $392 $391 $290 $395 forward $180 $-1 #
edge $-1 $398 5.0686852008008216 $396 11.894123069805744 $394 $446 forward 7 unknown #
vertex $-1 $292 $447 #
straight-curve $-1 0 -20.375527205109027 -2.909161376089795 1 0 0 I I #
vertex $-1 $395 $448 #
straight-curve $-1 0 -13.550089336104104 -2.909161376089795 1 0 0 I I #
point $-1 50.657063509018215 -20.375527205109027 -2.909161376089795 #
point $-1 50.657063509018215 -13.550089336104104 -2.909161376089795 #
straight-curve $-1 -50.657063509018215 -8.4814041353032827 0.09083862391020503 0 1 0 I I #
edge $-1 $299 -0.79541931195510251 $398 2.2045806880448975 $391 $449 forward 7 unknown #
point $-1 -50.657063509018215 -13.550089336104104 0.09083862391020503 #
edge $-1 $303 -0.09083862391020503 $396 2.909161376089795 $392 $450 forward 7 unknown #
point $-1 -50.657063509018215 -20.375527205109027 0.09083862391020503 #
straight-curve $-1 50.657063509018215 -20.375527205109027 0 0 0 -1 I I #
edge $-1 $409 -12.888391586446822 $412 -9.9387767335225234 $309 $451 forward 7 unknown #
vertex $-1 $408 $452 #
straight-curve $-1 50.657063509018215 -3.0049822051240618 71.364102785206512 0 0 1 I I #
edge $-1 $412 -0.5515404735321745 $320 7.6645858308446471 $319 $453 forward 7 unknown #
vertex $-1 $411 $454 #
straight-curve $-1 -7.4543312411080223 -3.0049822051240618 84.616810820286801 0.57357642473473569 0 -0.81915205242281985 I I #
point $-1 50.657063509018215 -3.0049822051240618 1.6251357340359647 #
point $-1 47.707448656093916 -11.221108509500883 5.8376224340379821 #
straight-curve $-1 50.657063509018215 0 5.8376224340379812 0 1 0 I I #
vertex $-1 $326 $455 #
point $-1 48.649892242500606 -7.1130453573124726 2.7482266330908316 #
coedge $-1 $341 $340 $333 $420 forward $330 $-1 #
edge $-1 $421 -12.888391586446822 $424 -9.9387767335225234 $419 $456 forward 7 unknown #
vertex $-1 $420 $457 #
straight-curve $-1 50.657063509018215 18.046546378505809 71.364102785206512 0 0 1 I I #
edge $-1 $424 -11.07730476534711 $342 -2.8611784609702884 $341 $458 forward 7 unknown #
vertex $-1 $423 $459 #
straight-curve $-1 -7.4543312411080223 18.046546378505809 84.616810820286801 0.57357642473473569 0 -0.81915205242281985 I I #
point $-1 50.657063509018215 18.046546378505809 1.6251357340359647 #
point $-1 47.707448656093916 9.8304200741289876 5.8376224340379821 #
straight-curve $-1 50.657063509018215 0 5.8376224340379812 0 1 0 I I #
vertex $-1 $348 $460 #
point $-1 48.649892242500606 13.938483226317398 2.7482266330908316 #
edge $-1 $432 21.045992741132665 $435 25.29701644431308 $353 $461 forward 7 unknown #
vertex $-1 $367 $462 #
straight-curve $-1 -68.750110540921725 -7.0329626474433145 5.8376224340379821 -1 0 0 I I #
edge $-1 $435 1.8871996515564593 $364 8.404326340217251 $363 $463 forward 7 unknown #
vertex $-1 $434 $464 #
straight-curve $-1 -50.657063509018215 -7.0329626474433145 1.5865987308575669 0.51503806187062418 0 0.85716730853699208 I I #
point $-1 -48.102790863239122 -7.0329626474433145 5.8376224340379812 #
point $-1 -50.657063509018215 -13.550089336104106 1.5865987308575669 #
straight-curve $-1 -50.657063509018215 0 5.8376224340379812 0 -1 0 I I #
vertex $-1 $370 $465 #
point $-1 -48.265240846656361 -10.29152599177371 3.6256561748456462 #
straight-curve $-1 -50.657063509018215 20.375527205109027 0 0 0 -1 I I #
point $-1 -50.657063509018215 -20.375527205109027 -5.8376224340379812 #
straight-curve $-1 -50.657063509018215 0 -5.8376224340379812 0 1 0 I I #
point $-1 -50.657063509018215 20.375527205109027 -5.8376224340379812 #
straight-curve $-1 -50.657063509018215 -8.4814041353032827 -2.909161376089795 0 -1 0 I I #
point $-1 -50.657063509018215 -20.375527205109027 -2.909161376089795 #
point $-1 -50.657063509018215 -13.550089336104104 -2.909161376089795 #
straight-curve $-1 -50.657063509018215 -13.550089336104104 -0.70458068804489749 0 0 -1 I I #
straight-curve $-1 -50.657063509018215 -20.375527205109027 0 0 0 -1 I I #
straight-curve $-1 37.768671922571393 -3.0049822051240618 5.8376224340379821 -1 0 0 I I #
point $-1 50.657063509018215 -3.0049822051240618 5.8376224340379812 #
straight-curve $-1 47.707448656093916 -3.5565226786562363 5.8376224340379821 0 -1 0 I I #
point $-1 47.707448656093916 -3.0049822051240618 5.8376224340379821 #
point $-1 47.953528003921825 -7.1130453573124726 2.8710144469348737 #
straight-curve $-1 37.768671922571393 18.046546378505809 5.8376224340379821 -1 0 0 I I #
point $-1 50.657063509018215 18.046546378505809 5.8376224340379812 #
straight-curve $-1 47.707448656093916 6.9692416131586992 5.8376224340379821 0 -1 0 I I #
point $-1 47.707448656093916 18.046546378505809 5.8376224340379821 #
point $-1 47.953528003921825 13.938483226317398 2.8710144469348737 #
straight-curve $-1 -50.657063509018215 -7.0329626474433145 26.883615175170647 0 0 -1 I I #
point $-1 -50.657063509018215 -7.0329626474433145 5.8376224340379812 #
straight-curve $-1 -50.657063509018215 -5.1457629958868552 1.586598730857566 0 -1 0 I I #
point $-1 -50.657063509018215 -7.0329626474433145 1.5865987308575669 #
point $-1 -48.094176223323181 -10.29152599177371 2.9395534896418378 #
End-of-ACIS-data 