500 0 6 0           
7 Unknown 11 ACIS 5.0 NT 24 Thu Mar 25 20:32:14 1999 
-1 9.9999999999999995e-007 1e-010 
body $-1 $6 $-1 $7 #
body $-1 $8 $-1 $9 #
body $-1 $10 $-1 $11 #
body $-1 $12 $-1 $13 #
body $-1 $14 $-1 $15 #
body $-1 $16 $-1 $17 #
lump $-1 $-1 $18 $0 #
transform $-1 1 0 0 0 1 0 0 0 1 51.095309305093537 26.695026355378513 8.3584182987652635 1 rotate no_reflect no_shear #
lump $-1 $-1 $19 $1 #
transform $-1 1 0 0 0 1 0 0 0 1 51.095309305093537 26.695026355378513 8.3584182987652635 1 rotate no_reflect no_shear #
lump $-1 $-1 $20 $2 #
transform $-1 1 0 0 0 1 0 0 0 1 51.095309305093537 26.695026355378513 8.3584182987652635 1 rotate no_reflect no_shear #
lump $-1 $-1 $21 $3 #
transform $-1 1 0 0 0 1 0 0 0 1 51.095309305093537 26.695026355378513 8.3584182987652635 1 rotate no_reflect no_shear #
lump $-1 $-1 $22 $4 #
transform $-1 1 0 0 0 1 0 0 0 1 51.095309305093537 26.695026355378513 8.3584182987652635 1 rotate no_reflect no_shear #
lump $-1 $-1 $23 $5 #
transform $-1 1 0 0 0 1 0 0 0 1 51.095309305093537 26.695026355378513 8.3584182987652635 1 rotate no_reflect no_shear #
shell $-1 $-1 $-1 $24 $-1 $6 #
shell $-1 $-1 $-1 $25 $-1 $8 #
shell $-1 $-1 $-1 $26 $-1 $10 #
shell $-1 $-1 $-1 $27 $-1 $12 #
shell $-1 $-1 $-1 $28 $-1 $14 #
shell $-1 $-1 $-1 $29 $-1 $16 #
face $-1 $30 $31 $18 $-1 $32 forward single #
face $-1 $33 $34 $19 $-1 $35 forward single #
face $-1 $36 $37 $20 $-1 $38 reversed single #
face $-1 $39 $40 $21 $-1 $41 forward single #
face $-1 $42 $43 $22 $-1 $44 reversed single #
face $-1 $45 $46 $23 $-1 $47 forward single #
face $-1 $48 $49 $18 $-1 $50 reversed single #
loop $-1 $-1 $51 $24 #
plane-surface $-1 0 0 8.3584182987652635 0 0 1 1 0 0 forward_v I I I I #
face $-1 $52 $53 $19 $-1 $54 forward single #
loop $-1 $-1 $55 $25 #
plane-surface $-1 0 -26.695026355378513 0 0 1 0 0 0 1 forward_v I I I I #
face $-1 $56 $57 $20 $-1 $58 reversed single #
loop $-1 $-1 $59 $26 #
plane-surface $-1 -118.13838813772895 -7.9623907227648054 78.067648155982425 0 1 0 -0.6560590369687036 0 0.75470957328743171 forward_v I I I I #
face $-1 $60 $61 $21 $-1 $62 forward single #
loop $-1 $63 $64 $27 #
cone-surface $-1 -45.479633409758527 -1.7790002114577881 3.0971341888680359 0.6560590369687036 0 -0.75470957328743171 1.8867739332185793 0 1.640147592421759 1 I I 0 1 2.5 forward I I I I #
face $-1 $65 $66 $22 $-1 $67 reversed single #
loop $-1 $-1 $68 $28 #
plane-surface $-1 41.014149972455982 4.4043902998492293 145.11072698861784 0 -1 0 -0.6560590369687036 0 -0.75470957328743171 forward_v I I I I #
face $-1 $69 $70 $23 $-1 $71 forward single #
loop $-1 $72 $73 $29 #
cone-surface $-1 45.47963340975852 -1.7790002114577881 3.097134188868043 -0.6560590369687036 0 -0.75470957328743171 1.8867739332185793 0 -1.640147592421759 1 I I 0 1 2.5 forward I I I I #
face $-1 $74 $75 $18 $-1 $76 reversed single #
loop $-1 $-1 $77 $30 #
plane-surface $-1 0 0 -8.3584182987652635 0 0 1 1 0 0 forward_v I I I I #
coedge $-1 $78 $79 $80 $81 forward $31 $-1 #
face $-1 $82 $83 $19 $-1 $84 reversed single #
loop $-1 $-1 $85 $33 #
plane-surface $-1 0 0 8.3584182987652635 0 0 1 1 0 0 forward_v I I I I #
coedge $-1 $86 $87 $88 $89 forward $34 $-1 #
face $-1 $90 $91 $20 $-1 $92 reversed single #
loop $-1 $-1 $93 $36 #
plane-surface $-1 -51.095309305093537 -1.7790002114577881 0.94340999070945486 -0.6560590369687036 0 0.75470957328743171 0.75470957328743171 0 0.6560590369687036 forward_v I I I I #
coedge $-1 $94 $95 $96 $97 reversed $37 $-1 #
face $-1 $-1 $98 $21 $-1 $99 forward single #
loop $-1 $100 $101 $39 #
cone-surface $-1 -43.30887927558846 -1.7790002114577881 0.59996726638942199 0.6560590369687036 0 -0.75470957328743171 0.94338696660928967 0 0.8200737962108795 1 I I -0.70710678118654746 0.70710678118654746 1.25 forward I I I I #
loop $-1 $-1 $102 $27 #
coedge $-1 $64 $64 $103 $104 reversed $40 $-1 #
face $-1 $105 $106 $22 $-1 $107 reversed single #
loop $-1 $-1 $108 $42 #
plane-surface $-1 -26.028928860179434 -1.7790002114577881 67.986488823344871 0.6560590369687036 0 0.75470957328743171 0.75470957328743171 0 -0.6560590369687036 forward_v I I I I #
coedge $-1 $109 $110 $111 $112 reversed $43 $-1 #
face $-1 $-1 $113 $23 $-1 $114 forward single #
loop $-1 $115 $116 $45 #
cone-surface $-1 43.308879275588453 -1.7790002114577881 0.5999672663894291 -0.6560590369687036 0 -0.75470957328743171 0.94338696660928967 0 -0.8200737962108795 1 I I -0.70710678118654746 0.70710678118654746 1.25 forward I I I I #
loop $-1 $-1 $117 $29 #
coedge $-1 $73 $73 $118 $119 reversed $46 $-1 #
face $-1 $120 $121 $18 $-1 $122 reversed single #
loop $-1 $-1 $123 $48 #
plane-surface $-1 0 -26.695026355378513 0 0 1 0 0 0 1 forward_v I I I I #
coedge $-1 $124 $125 $126 $127 forward $49 $-1 #
coedge $-1 $128 $51 $129 $130 forward $31 $-1 #
coedge $-1 $51 $128 $131 $132 forward $31 $-1 #
coedge $-1 $133 $134 $51 $81 reversed $135 $-1 #
edge $-1 $136 -26.695026355378513 $137 26.695026355378513 $80 $138 forward 7 unknown #
face $-1 $139 $140 $19 $-1 $141 reversed single #
loop $-1 $-1 $142 $52 #
plane-surface $-1 -51.095309305093537 0 0 1 0 0 0 0 -1 forward_v I I I I #
coedge $-1 $143 $144 $145 $146 forward $53 $-1 #
coedge $-1 $145 $55 $142 $147 reversed $34 $-1 #
coedge $-1 $55 $145 $148 $149 reversed $34 $-1 #
coedge $-1 $150 $151 $55 $89 reversed $140 $-1 #
edge $-1 $152 -51.095309305093537 $153 51.095309305093537 $88 $154 forward 7 unknown #
face $-1 $155 $156 $20 $-1 $157 forward single #
loop $-1 $-1 $158 $56 #
plane-surface $-1 -118.13838813772895 4.4043902998492293 78.067648155982425 0 -1 0 0.6560590369687036 0 -0.75470957328743171 forward_v I I I I #
coedge $-1 $159 $160 $161 $162 reversed $57 $-1 #
coedge $-1 $95 $59 $163 $164 reversed $37 $-1 #
coedge $-1 $59 $94 $159 $165 reversed $37 $-1 #
coedge $-1 $161 $166 $59 $97 forward $156 $-1 #
edge $-1 $167 7.9738847637709398 $168 16.503875878522578 $96 $169 forward 7 unknown #
loop $-1 $-1 $103 $60 #
plane-surface $-1 -51.095309305093537 -1.7790002114577881 0.94340999070945486 -0.6560590369687036 0 0.75470957328743171 0.75470957328743171 0 0.6560590369687036 forward_v I I I I #
loop $-1 $-1 $170 $39 #
coedge $-1 $101 $101 $102 $171 reversed $61 $-1 #
coedge $-1 $102 $102 $101 $171 forward $63 $-1 #
coedge $-1 $103 $103 $64 $104 forward $98 $-1 #
edge $-1 $172 0 $172 6.2831853071796004 $103 $173 forward 7 unknown #
face $-1 $174 $175 $22 $-1 $176 reversed single #
loop $-1 $-1 $177 $65 #
plane-surface $-1 41.014149972455982 -7.9623907227648054 145.11072698861784 0 1 0 0.6560590369687036 0 0.75470957328743171 forward_v I I I I #
coedge $-1 $178 $179 $180 $181 reversed $66 $-1 #
coedge $-1 $110 $68 $182 $183 reversed $43 $-1 #
coedge $-1 $68 $109 $178 $184 reversed $43 $-1 #
coedge $-1 $180 $185 $68 $112 forward $186 $-1 #
edge $-1 $187 -30.588234318865545 $188 -22.058243204113907 $111 $189 forward 7 unknown #
loop $-1 $-1 $118 $69 #
plane-surface $-1 -26.028928860179434 -1.7790002114577881 67.986488823344871 0.6560590369687036 0 0.75470957328743171 0.75470957328743171 0 -0.6560590369687036 forward_v I I I I #
loop $-1 $-1 $190 $45 #
coedge $-1 $116 $116 $117 $191 reversed $70 $-1 #
coedge $-1 $117 $117 $116 $191 forward $72 $-1 #
coedge $-1 $118 $118 $73 $119 forward $113 $-1 #
edge $-1 $192 0 $192 6.2831853071796004 $118 $193 forward 7 unknown #
face $-1 $194 $195 $18 $-1 $196 reversed single #
loop $-1 $-1 $197 $74 #
plane-surface $-1 -51.095309305093537 0 0 1 0 0 0 0 -1 forward_v I I I I #
coedge $-1 $198 $131 $199 $200 forward $75 $-1 #
coedge $-1 $201 $77 $198 $202 forward $49 $-1 #
coedge $-1 $77 $201 $203 $204 forward $49 $-1 #
coedge $-1 $134 $133 $77 $127 reversed $135 $-1 #
edge $-1 $205 -26.695026355378513 $206 26.695026355378513 $126 $207 forward 7 unknown #
coedge $-1 $79 $78 $208 $209 forward $31 $-1 #
coedge $-1 $210 $211 $78 $130 reversed $195 $-1 #
edge $-1 $137 -51.095309305093537 $212 51.095309305093537 $129 $213 forward 7 unknown #
coedge $-1 $123 $214 $79 $132 reversed $75 $-1 #
edge $-1 $215 -51.095309305093537 $136 51.095309305093537 $131 $216 forward 7 unknown #
coedge $-1 $126 $80 $214 $217 forward $135 $-1 #
coedge $-1 $80 $126 $210 $218 reversed $135 $-1 #
loop $-1 $-1 $133 $194 #
vertex $-1 $81 $219 #
vertex $-1 $81 $220 #
straight-curve $-1 51.095309305093537 0 8.3584182987652635 0 1 0 I I #
face $-1 $221 $222 $19 $-1 $223 reversed single #
loop $-1 $-1 $150 $82 #
plane-surface $-1 0 -30.89991250863558 4.2716779940526468 0 0 1 1 0 0 forward_v I I I I #
coedge $-1 $224 $225 $86 $147 forward $83 $-1 #
coedge $-1 $226 $85 $225 $227 forward $53 $-1 #
coedge $-1 $85 $226 $228 $229 forward $53 $-1 #
coedge $-1 $87 $86 $85 $146 reversed $34 $-1 #
edge $-1 $230 -51.095309305093537 $231 51.095309305093537 $85 $232 forward 7 unknown #
edge $-1 $231 -8.3584182987652635 $153 -4.2716779940526468 $142 $233 forward 7 unknown #
coedge $-1 $228 $234 $87 $149 forward $235 $-1 #
edge $-1 $152 4.2716779940526468 $230 8.3584182987652635 $148 $236 forward 7 unknown #
coedge $-1 $237 $88 $234 $238 forward $140 $-1 #
coedge $-1 $88 $237 $224 $239 forward $140 $-1 #
vertex $-1 $149 $240 #
vertex $-1 $147 $241 #
straight-curve $-1 0 -26.695026355378513 4.2716779940526468 -1 0 0 I I #
face $-1 $-1 $242 $20 $-1 $243 reversed single #
loop $-1 $-1 $96 $90 #
plane-surface $-1 0 0 8.3584182987652635 0 0 1 1 0 0 forward_v I I I I #
coedge $-1 $244 $245 $246 $247 reversed $91 $-1 #
coedge $-1 $248 $93 $95 $165 forward $57 $-1 #
coedge $-1 $93 $248 $244 $249 forward $57 $-1 #
coedge $-1 $246 $96 $93 $162 forward $156 $-1 #
edge $-1 $168 -7.0728906170359114 $250 5.2938904055781233 $161 $251 forward 7 unknown #
coedge $-1 $252 $253 $94 $164 forward $242 $-1 #
edge $-1 $254 -38.090414087281758 $167 -30.675405779225947 $163 $255 forward 7 unknown #
edge $-1 $168 -11.302349164057823 $254 0 $95 $256 forward 7 unknown #
coedge $-1 $96 $246 $252 $257 forward $156 $-1 #
vertex $-1 $164 $258 #
vertex $-1 $97 $259 #
straight-curve $-1 -59.069194068864476 -7.9623907227648054 8.3584182987652653 1 0 0 I I #
coedge $-1 $170 $170 $-1 $260 reversed $100 $-1 #
edge $-1 $261 0 $261 6.2831853071796004 $101 $262 forward 7 unknown #
vertex $-1 $104 $263 #
ellipse-curve $-1 -46.830313747717717 -1.7790002114577881 4.6509141447373592 -0.6560590369687036 0 0.75470957328743171 1.8867739332185793 0 1.640147592421759 1 I I #
face $-1 $-1 $186 $22 $-1 $264 forward single #
loop $-1 $-1 $265 $105 #
plane-surface $-1 51.095309305093537 0 0 -1 0 0 0 0 1 forward_v I I I I #
coedge $-1 $266 $267 $268 $269 reversed $106 $-1 #
coedge $-1 $270 $108 $110 $184 forward $66 $-1 #
coedge $-1 $108 $270 $266 $271 forward $66 $-1 #
coedge $-1 $268 $111 $108 $181 forward $186 $-1 #
edge $-1 $188 -5.2938904055781233 $272 7.0728906170359114 $180 $273 forward 7 unknown #
coedge $-1 $274 $275 $109 $183 forward $175 $-1 #
edge $-1 $276 -71.611953503599466 $187 -64.196945195543663 $182 $277 forward 7 unknown #
edge $-1 $188 90.888269446129272 $276 102.19061861018709 $110 $278 forward 7 unknown #
coedge $-1 $111 $268 $274 $279 forward $186 $-1 #
loop $-1 $-1 $268 $174 #
vertex $-1 $183 $280 #
vertex $-1 $112 $281 #
straight-curve $-1 20.507074986227991 4.4043902998492293 8.3584182987652582 -1 0 0 I I #
coedge $-1 $190 $190 $-1 $282 reversed $115 $-1 #
edge $-1 $283 0 $283 6.2831853071796004 $116 $284 forward 7 unknown #
vertex $-1 $119 $285 #
ellipse-curve $-1 46.83031374771771 -1.7790002114577881 4.6509141447373654 0.6560590369687036 0 0.75470957328743171 1.8867739332185793 0 -1.640147592421759 1 I I #
face $-1 $-1 $135 $18 $-1 $286 reversed single #
loop $-1 $-1 $210 $120 #
plane-surface $-1 0 26.695026355378513 0 0 -1 0 0 0 -1 forward_v I I I I #
coedge $-1 $287 $208 $211 $288 forward $121 $-1 #
coedge $-1 $214 $123 $124 $202 reversed $75 $-1 #
coedge $-1 $208 $287 $123 $200 reversed $121 $-1 #
edge $-1 $215 -8.3584182987652635 $289 8.3584182987652635 $199 $290 forward 7 unknown #
coedge $-1 $125 $124 $287 $291 forward $49 $-1 #
edge $-1 $206 -51.095309305093537 $289 51.095309305093537 $198 $292 forward 7 unknown #
coedge $-1 $211 $210 $125 $204 reversed $195 $-1 #
edge $-1 $293 -51.095309305093537 $205 51.095309305093537 $203 $294 forward 7 unknown #
vertex $-1 $127 $295 #
vertex $-1 $217 $296 #
straight-curve $-1 51.095309305093537 0 -8.3584182987652635 0 -1 0 I I #
coedge $-1 $197 $199 $128 $209 reversed $121 $-1 #
edge $-1 $212 -26.695026355378513 $215 26.695026355378513 $208 $297 forward 7 unknown #
coedge $-1 $203 $129 $134 $218 forward $195 $-1 #
coedge $-1 $129 $203 $197 $288 reversed $195 $-1 #
vertex $-1 $130 $298 #
straight-curve $-1 0 26.695026355378513 8.3584182987652635 -1 0 0 I I #
coedge $-1 $131 $198 $133 $217 reversed $75 $-1 #
vertex $-1 $209 $299 #
straight-curve $-1 0 -26.695026355378513 8.3584182987652635 1 0 0 I I #
edge $-1 $136 -8.3584182987652635 $206 8.3584182987652635 $133 $300 forward 7 unknown #
edge $-1 $137 -8.3584182987652635 $205 8.3584182987652635 $134 $301 forward 7 unknown #
point $-1 51.095309305093537 -26.695026355378513 8.3584182987652635 #
point $-1 51.095309305093537 26.695026355378513 8.3584182987652635 #
face $-1 $-1 $235 $19 $-1 $302 reversed single #
loop $-1 $-1 $303 $139 #
plane-surface $-1 0 -35.104798661892652 6.3150481464089552 0 1 0 0 0 1 forward_v I I I I #
coedge $-1 $304 $142 $151 $239 reversed $83 $-1 #
coedge $-1 $142 $304 $143 $227 reversed $83 $-1 #
coedge $-1 $144 $143 $305 $306 forward $53 $-1 #
edge $-1 $231 26.695026355378513 $307 35.104798661892652 $225 $308 forward 7 unknown #
coedge $-1 $309 $148 $144 $229 reversed $235 $-1 #
edge $-1 $310 -35.104798661892652 $230 -26.695026355378513 $228 $311 forward 7 unknown #
vertex $-1 $149 $312 #
vertex $-1 $227 $313 #
straight-curve $-1 0 -26.695026355378513 8.3584182987652635 -1 0 0 I I #
straight-curve $-1 -51.095309305093537 -26.695026355378513 0 0 0 -1 I I #
coedge $-1 $148 $309 $150 $238 reversed $235 $-1 #
loop $-1 $-1 $148 $221 #
straight-curve $-1 51.095309305093537 -26.695026355378513 0 0 0 1 I I #
coedge $-1 $151 $150 $314 $315 forward $140 $-1 #
edge $-1 $152 -4.2048861532570712 $316 4.2048861532570712 $234 $317 forward 7 unknown #
edge $-1 $318 -4.2048861532570712 $153 4.2048861532570712 $224 $319 forward 7 unknown #
point $-1 51.095309305093537 -26.695026355378509 4.2716779940526468 #
point $-1 -51.095309305093537 -26.695026355378509 4.2716779940526468 #
loop $-1 $-1 $163 $155 #
plane-surface $-1 -51.095309305093537 0 0 1 0 0 0 0 -1 forward_v I I I I #
coedge $-1 $245 $158 $160 $249 reversed $91 $-1 #
coedge $-1 $158 $244 $320 $321 reversed $91 $-1 #
coedge $-1 $166 $161 $158 $247 forward $156 $-1 #
edge $-1 $250 -16.503875878522578 $322 -7.9738847637709398 $246 $323 forward 7 unknown #
coedge $-1 $160 $159 $253 $324 reversed $57 $-1 #
edge $-1 $325 0 $250 11.302349164057823 $244 $326 forward 7 unknown #
vertex $-1 $162 $327 #
straight-curve $-1 -42.565318190341898 -0.88950010572889404 8.3584182987652635 0 1 0 I I #
coedge $-1 $320 $163 $166 $257 reversed $242 $-1 #
coedge $-1 $163 $320 $248 $324 forward $242 $-1 #
vertex $-1 $164 $328 #
straight-curve $-1 -51.095309305093537 -7.9623907227648054 39.033824077991213 0 0 1 I I #
straight-curve $-1 -51.095309305093537 -7.9623907227648054 0.94340999070945486 -0.75470957328743171 0 -0.6560590369687036 I I #
edge $-1 $322 -4.4043902998492293 $167 7.9623907227648054 $252 $329 forward 7 unknown #
point $-1 -51.095309305093537 -7.9623907227648054 8.3584182987652635 #
point $-1 -42.565318190341898 -7.9623907227648054 8.3584182987652635 #
edge $-1 $330 1 $330 0 $170 $-1 forward 7 unknown #
vertex $-1 $171 $331 #
ellipse-curve $-1 -44.128953071799337 -1.7790002114577881 1.5433542329987118 -0.6560590369687036 0 0.75470957328743171 1.8867739332185793 0 1.640147592421759 1 I I #
point $-1 -44.94353981449914 -1.7790002114577881 6.2910617371591186 #
plane-surface $-1 0 0 8.3584182987652635 0 0 1 1 0 0 forward_v I I I I #
coedge $-1 $275 $274 $267 $332 forward $175 $-1 #
coedge $-1 $267 $177 $179 $271 reversed $106 $-1 #
coedge $-1 $177 $266 $265 $332 reversed $106 $-1 #
coedge $-1 $185 $180 $177 $269 forward $186 $-1 #
edge $-1 $272 22.058243204113907 $333 30.588234318865545 $268 $334 forward 7 unknown #
coedge $-1 $179 $178 $275 $335 reversed $66 $-1 #
edge $-1 $336 -102.19061861018709 $272 -90.888269446129272 $266 $337 forward 7 unknown #
vertex $-1 $181 $338 #
straight-curve $-1 42.565318190341891 -0.88950010572889404 8.3584182987652724 0 -1 0 I I #
coedge $-1 $265 $182 $185 $279 reversed $175 $-1 #
coedge $-1 $182 $265 $270 $335 forward $175 $-1 #
vertex $-1 $183 $339 #
straight-curve $-1 51.095309305093537 4.4043902998492293 72.555363494308921 0 0 1 I I #
straight-curve $-1 -26.028928860179434 4.4043902998492293 67.986488823344871 0.75470957328743171 0 -0.6560590369687036 I I #
edge $-1 $333 -7.9623907227648054 $187 4.4043902998492293 $274 $340 forward 7 unknown #
point $-1 51.095309305093537 4.4043902998492293 8.3584182987652635 #
point $-1 42.565318190341898 4.4043902998492293 8.3584182987652653 #
edge $-1 $341 1 $341 0 $190 $-1 forward 7 unknown #
vertex $-1 $191 $342 #
ellipse-curve $-1 44.12895307179933 -1.7790002114577881 1.5433542329987189 0.6560590369687036 0 0.75470957328743171 1.8867739332185793 0 -1.640147592421759 1 I I #
point $-1 48.717087680936288 -1.7790002114577881 3.0107665523156082 #
plane-surface $-1 51.095309305093537 0 0 -1 0 0 0 0 1 forward_v I I I I #
coedge $-1 $199 $197 $201 $291 reversed $121 $-1 #
edge $-1 $212 -8.3584182987652635 $293 8.3584182987652635 $211 $343 forward 7 unknown #
vertex $-1 $291 $344 #
straight-curve $-1 -51.095309305093537 -26.695026355378513 0 0 0 -1 I I #
edge $-1 $289 -26.695026355378513 $293 26.695026355378513 $287 $345 forward 7 unknown #
straight-curve $-1 0 -26.695026355378513 -8.3584182987652635 -1 0 0 I I #
vertex $-1 $204 $346 #
straight-curve $-1 0 26.695026355378513 -8.3584182987652635 1 0 0 I I #
point $-1 51.095309305093537 26.695026355378513 -8.3584182987652635 #
point $-1 51.095309305093537 -26.695026355378513 -8.3584182987652635 #
straight-curve $-1 -51.095309305093537 0 8.3584182987652635 0 -1 0 I I #
point $-1 -51.095309305093537 26.695026355378513 8.3584182987652635 #
point $-1 -51.095309305093537 -26.695026355378513 8.3584182987652635 #
straight-curve $-1 51.095309305093537 -26.695026355378513 0 0 0 -1 I I #
straight-curve $-1 51.095309305093537 26.695026355378513 0 0 0 -1 I I #
plane-surface $-1 51.095309305093537 0 0 -1 0 0 0 0 1 forward_v I I I I #
coedge $-1 $314 $305 $304 $347 forward $222 $-1 #
coedge $-1 $225 $224 $303 $347 reversed $83 $-1 #
coedge $-1 $303 $348 $226 $306 reversed $222 $-1 #
edge $-1 $307 -51.095309305093537 $310 51.095309305093537 $305 $349 forward 7 unknown #
vertex $-1 $227 $350 #
straight-curve $-1 -51.095309305093537 0 8.3584182987652635 0 -1 0 I I #
coedge $-1 $234 $228 $348 $351 forward $235 $-1 #
vertex $-1 $229 $352 #
straight-curve $-1 51.095309305093537 0 8.3584182987652635 0 1 0 I I #
point $-1 51.095309305093537 -26.695026355378513 8.3584182987652635 #
point $-1 -51.095309305093537 -26.695026355378513 8.3584182987652635 #
coedge $-1 $348 $303 $237 $315 reversed $222 $-1 #
edge $-1 $316 -51.095309305093537 $318 51.095309305093537 $314 $353 forward 7 unknown #
vertex $-1 $351 $354 #
straight-curve $-1 51.095309305093537 -30.89991250863558 4.2716779940526468 0 -1 0 I I #
vertex $-1 $239 $355 #
straight-curve $-1 -51.095309305093537 -30.89991250863558 4.2716779940526468 0 1 0 I I #
coedge $-1 $253 $252 $245 $321 forward $242 $-1 #
edge $-1 $322 30.675405779225947 $325 38.090414087281758 $320 $356 forward 7 unknown #
vertex $-1 $257 $357 #
straight-curve $-1 -59.069194068864476 4.4043902998492293 8.3584182987652653 -1 0 0 I I #
edge $-1 $325 -5.2938904055781233 $254 7.0728906170359114 $253 $358 forward 7 unknown #
vertex $-1 $324 $359 #
straight-curve $-1 -51.095309305093537 4.4043902998492293 0.94340999070945486 0.75470957328743171 0 0.6560590369687036 I I #
point $-1 -42.565318190341898 4.4043902998492293 8.3584182987652635 #
point $-1 -51.095309305093537 -7.9623907227648054 0.94340999070945486 #
straight-curve $-1 -51.095309305093537 0 8.3584182987652635 0 -1 0 I I #
vertex $-1 $260 $360 #
point $-1 -42.242179138580759 -1.7790002114577881 3.1835018254204708 #
edge $-1 $333 64.196945195543663 $336 71.611953503599466 $265 $361 forward 7 unknown #
vertex $-1 $279 $362 #
straight-curve $-1 20.507074986227991 -7.9623907227648054 8.3584182987652582 1 0 0 I I #
edge $-1 $336 -7.0728906170359114 $276 5.2938904055781233 $275 $363 forward 7 unknown #
vertex $-1 $335 $364 #
straight-curve $-1 -26.028928860179434 -7.9623907227648054 67.986488823344871 -0.75470957328743171 0 0.6560590369687036 I I #
point $-1 42.565318190341898 -7.9623907227648054 8.3584182987652653 #
point $-1 51.095309305093537 4.4043902998492293 0.94340999070945486 #
straight-curve $-1 51.095309305093537 0 8.3584182987652635 0 1 0 I I #
vertex $-1 $282 $365 #
point $-1 46.015727005017908 -1.7790002114577881 -0.096793359423040237 #
straight-curve $-1 -51.095309305093537 26.695026355378513 0 0 0 -1 I I #
point $-1 -51.095309305093537 -26.695026355378513 -8.3584182987652635 #
straight-curve $-1 -51.095309305093537 0 -8.3584182987652635 0 1 0 I I #
point $-1 -51.095309305093537 26.695026355378513 -8.3584182987652635 #
edge $-1 $307 -2.0433701523563084 $318 2.0433701523563084 $304 $366 forward 7 unknown #
coedge $-1 $305 $314 $309 $351 reversed $222 $-1 #
straight-curve $-1 0 -35.104798661892652 8.3584182987652635 1 0 0 I I #
point $-1 -51.095309305093537 -35.104798661892652 8.3584182987652635 #
edge $-1 $310 -2.0433701523563084 $316 2.0433701523563084 $309 $367 forward 7 unknown #
point $-1 51.095309305093537 -35.104798661892652 8.3584182987652635 #
straight-curve $-1 0 -35.104798661892652 4.2716779940526468 -1 0 0 I I #
point $-1 51.095309305093537 -35.104798661892652 4.2716779940526468 #
point $-1 -51.095309305093537 -35.104798661892652 4.2716779940526468 #
straight-curve $-1 -51.095309305093537 4.4043902998492293 39.033824077991213 0 0 -1 I I #
point $-1 -51.095309305093537 4.4043902998492293 8.3584182987652635 #
straight-curve $-1 -51.095309305093537 -0.88950010572889404 0.94340999070945408 0 -1 0 I I #
point $-1 -51.095309305093537 4.4043902998492293 0.94340999070945486 #
point $-1 -42.488805479377582 -1.7790002114577881 -0.34341970021986767 #
straight-curve $-1 51.095309305093537 -7.9623907227648054 72.555363494308921 0 0 -1 I I #
point $-1 51.095309305093537 -7.9623907227648054 8.3584182987652635 #
straight-curve $-1 51.095309305093537 -0.88950010572889404 0.94340999070944775 0 1 0 I I #
point $-1 51.095309305093537 -7.9623907227648054 0.94340999070945486 #
point $-1 42.488805479377575 -1.7790002114577881 -0.34341970021986057 #
straight-curve $-1 -51.095309305093537 -35.104798661892652 6.3150481464089552 0 0 -1 I I #
straight-curve $-1 51.095309305093537 -35.104798661892652 6.3150481464089552 0 0 -1 I I #
End-of-ACIS-data 