500 0 6 0           
7 Unknown 11 ACIS 5.0 NT 24 Fri Mar 26 15:44:55 1999 
-1 9.9999999999999995e-007 1e-010 
body $-1 $6 $-1 $7 #
body $-1 $8 $-1 $9 #
body $-1 $10 $-1 $11 #
body $-1 $12 $-1 $13 #
body $-1 $14 $-1 $15 #
body $-1 $16 $-1 $17 #
lump $-1 $-1 $18 $0 #
transform $-1 1 0 0 0 1 0 0 0 1 64.776146732993567 44.476839957485545 12.905572647718165 1 rotate no_reflect no_shear #
lump $-1 $-1 $19 $1 #
transform $-1 1 0 0 0 1 0 0 0 1 64.776146732993567 44.476839957485545 12.905572647718165 1 rotate no_reflect no_shear #
lump $-1 $-1 $20 $2 #
transform $-1 1 0 0 0 1 0 0 0 1 64.776146732993567 44.476839957485545 12.905572647718165 1 rotate no_reflect no_shear #
lump $-1 $-1 $21 $3 #
transform $-1 1 0 0 0 1 0 0 0 1 64.776146732993567 44.476839957485545 12.905572647718165 1 rotate no_reflect no_shear #
lump $-1 $-1 $22 $4 #
transform $-1 1 0 0 0 1 0 0 0 1 64.776146732993567 44.476839957485545 12.905572647718165 1 rotate no_reflect no_shear #
lump $-1 $-1 $23 $5 #
transform $-1 1 0 0 0 1 0 0 0 1 64.776146732993567 44.476839957485545 12.905572647718165 1 rotate no_reflect no_shear #
shell $-1 $-1 $-1 $24 $-1 $6 #
shell $-1 $-1 $-1 $25 $-1 $8 #
shell $-1 $-1 $-1 $26 $-1 $10 #
shell $-1 $-1 $-1 $27 $-1 $12 #
shell $-1 $-1 $-1 $28 $-1 $14 #
shell $-1 $-1 $-1 $29 $-1 $16 #
face $-1 $30 $31 $18 $-1 $32 forward single #
face $-1 $33 $34 $19 $-1 $35 forward single #
face $-1 $36 $37 $20 $-1 $38 reversed single #
face $-1 $39 $40 $21 $-1 $41 forward single #
face $-1 $42 $43 $22 $-1 $44 forward single #
face $-1 $45 $46 $23 $-1 $47 forward single #
face $-1 $48 $49 $18 $-1 $50 reversed single #
loop $-1 $-1 $51 $24 #
plane-surface $-1 0 0 12.905572647718165 0 0 1 1 0 0 forward_v I I I I #
face $-1 $52 $53 $19 $-1 $54 reversed single #
loop $-1 $-1 $55 $25 #
plane-surface $-1 0 -44.476839957485545 0 0 1 0 0 0 1 forward_v I I I I #
face $-1 $56 $57 $20 $-1 $58 reversed single #
loop $-1 $-1 $59 $26 #
plane-surface $-1 -49.22172680670981 91.800088560188954 154.92825221259793 -1 0 0 0 0.78801076186113728 0.61566146476048833 forward_v I I I I #
face $-1 $60 $61 $21 $-1 $62 forward single #
loop $-1 $63 $64 $27 #
cone-surface $-1 -61.665262747736818 39.464995354804493 7.4638298276323969 0 -0.78801076186113728 -0.61566146476048833 1.5 0 0 1 I I 0 1 1.5 forward I I I I #
face $-1 $65 $66 $22 $-1 $67 forward single #
loop $-1 $68 $69 $28 #
cone-surface $-1 -56.998936769851689 39.464995354804493 7.4638298276323969 0 -0.78801076186113728 -0.61566146476048833 1.5 0 0 1 I I 0 1 1.5 forward I I I I #
face $-1 $70 $71 $23 $-1 $72 forward single #
loop $-1 $73 $74 $29 #
cone-surface $-1 -52.332610791966559 39.464995354804493 7.4638298276323969 0 -0.78801076186113728 -0.61566146476048833 1.5 0 0 1 I I 0 1 1.5 forward I I I I #
face $-1 $75 $76 $18 $-1 $77 reversed single #
loop $-1 $-1 $78 $30 #
plane-surface $-1 0 0 -12.905572647718165 0 0 1 1 0 0 forward_v I I I I #
coedge $-1 $79 $80 $81 $82 forward $31 $-1 #
face $-1 $83 $84 $19 $-1 $85 forward single #
loop $-1 $-1 $86 $33 #
plane-surface $-1 -64.776146732993567 0 0 1 0 0 0 0 -1 forward_v I I I I #
coedge $-1 $87 $88 $89 $90 forward $34 $-1 #
face $-1 $91 $92 $20 $-1 $93 forward single #
loop $-1 $-1 $94 $36 #
plane-surface $-1 -56.998936769851689 -10.288512914801203 75.167897454247651 0 0.78801076186113728 0.61566146476048833 1 0 0 forward_v I I I I #
coedge $-1 $95 $96 $97 $98 reversed $37 $-1 #
face $-1 $-1 $99 $21 $-1 $100 forward single #
loop $-1 $101 $102 $39 #
cone-surface $-1 -61.665262747736818 36.922490066918094 5.4774070457855846 0 -0.78801076186113728 -0.61566146476048833 0.75 0 0 1 I I -0.70710678118654757 0.70710678118654757 0.75 forward I I I I #
loop $-1 $-1 $103 $27 #
coedge $-1 $64 $64 $104 $105 reversed $40 $-1 #
face $-1 $-1 $106 $22 $-1 $107 forward single #
loop $-1 $108 $109 $42 #
cone-surface $-1 -56.998936769851689 36.922490066918094 5.4774070457855846 0 -0.78801076186113728 -0.61566146476048833 0.75 0 0 1 I I -0.70710678118654757 0.70710678118654757 0.75 forward I I I I #
loop $-1 $-1 $110 $28 #
coedge $-1 $69 $69 $111 $112 reversed $43 $-1 #
face $-1 $-1 $113 $23 $-1 $114 forward single #
loop $-1 $115 $116 $45 #
cone-surface $-1 -52.332610791966559 36.922490066918094 5.4774070457855846 0 -0.78801076186113728 -0.61566146476048833 0.75 0 0 1 I I -0.70710678118654757 0.70710678118654757 0.75 forward I I I I #
loop $-1 $-1 $117 $29 #
coedge $-1 $74 $74 $118 $119 reversed $46 $-1 #
face $-1 $120 $121 $18 $-1 $122 reversed single #
loop $-1 $-1 $123 $48 #
plane-surface $-1 0 -44.476839957485545 0 0 1 0 0 0 1 forward_v I I I I #
coedge $-1 $124 $125 $126 $127 forward $49 $-1 #
coedge $-1 $128 $51 $129 $130 forward $31 $-1 #
coedge $-1 $51 $128 $131 $132 forward $31 $-1 #
coedge $-1 $133 $134 $51 $82 reversed $135 $-1 #
edge $-1 $136 -44.476839957485545 $137 44.476839957485545 $81 $138 forward 7 unknown #
face $-1 $139 $140 $19 $-1 $141 reversed single #
loop $-1 $-1 $142 $52 #
plane-surface $-1 0 -50.473943417907925 7.4007631396316729 0 0 1 1 0 0 forward_v I I I I #
coedge $-1 $143 $144 $88 $145 forward $53 $-1 #
coedge $-1 $146 $55 $147 $148 reversed $34 $-1 #
coedge $-1 $55 $146 $86 $145 reversed $34 $-1 #
coedge $-1 $149 $142 $55 $90 reversed $84 $-1 #
edge $-1 $150 -64.776146732993567 $151 64.776146732993567 $89 $152 forward 7 unknown #
face $-1 $153 $154 $20 $-1 $155 reversed single #
loop $-1 $-1 $156 $56 #
plane-surface $-1 0 0 12.905572647718165 0 0 1 1 0 0 forward_v I I I I #
coedge $-1 $157 $158 $159 $160 reversed $57 $-1 #
coedge $-1 $96 $59 $161 $162 reversed $37 $-1 #
coedge $-1 $59 $95 $157 $163 reversed $37 $-1 #
coedge $-1 $159 $164 $59 $98 forward $154 $-1 #
edge $-1 $165 64.558553458580803 $166 72.392685732199453 $97 $167 forward 7 unknown #
loop $-1 $-1 $104 $60 #
plane-surface $-1 -56.998936769851689 -10.288512914801203 75.167897454247651 0 0.78801076186113728 0.61566146476048833 1 0 0 forward_v I I I I #
loop $-1 $-1 $168 $39 #
coedge $-1 $102 $102 $103 $169 reversed $61 $-1 #
coedge $-1 $103 $103 $102 $169 forward $63 $-1 #
coedge $-1 $104 $104 $64 $105 forward $99 $-1 #
edge $-1 $170 -1.749602478023525e-015 $170 6.2831853071795987 $104 $171 forward 7 unknown #
loop $-1 $-1 $111 $65 #
plane-surface $-1 -56.998936769851689 -10.288512914801203 75.167897454247651 0 0.78801076186113728 0.61566146476048833 1 0 0 forward_v I I I I #
loop $-1 $-1 $172 $42 #
coedge $-1 $109 $109 $110 $173 reversed $66 $-1 #
coedge $-1 $110 $110 $109 $173 forward $68 $-1 #
coedge $-1 $111 $111 $69 $112 forward $106 $-1 #
edge $-1 $174 -1.749602478023525e-015 $174 6.2831853071795987 $111 $175 forward 7 unknown #
loop $-1 $-1 $118 $70 #
plane-surface $-1 -56.998936769851689 -10.288512914801203 75.167897454247651 0 0.78801076186113728 0.61566146476048833 1 0 0 forward_v I I I I #
loop $-1 $-1 $176 $45 #
coedge $-1 $116 $116 $117 $177 reversed $71 $-1 #
coedge $-1 $117 $117 $116 $177 forward $73 $-1 #
coedge $-1 $118 $118 $74 $119 forward $113 $-1 #
edge $-1 $178 -1.749602478023525e-015 $178 6.2831853071795987 $118 $179 forward 7 unknown #
face $-1 $180 $181 $18 $-1 $182 reversed single #
loop $-1 $-1 $183 $75 #
plane-surface $-1 -64.776146732993567 0 0 1 0 0 0 0 -1 forward_v I I I I #
coedge $-1 $184 $131 $185 $186 forward $76 $-1 #
coedge $-1 $187 $78 $184 $188 forward $49 $-1 #
coedge $-1 $78 $187 $189 $190 forward $49 $-1 #
coedge $-1 $134 $133 $78 $127 reversed $135 $-1 #
edge $-1 $191 -44.476839957485545 $192 44.476839957485545 $126 $193 forward 7 unknown #
coedge $-1 $80 $79 $194 $195 forward $31 $-1 #
coedge $-1 $196 $197 $79 $130 reversed $181 $-1 #
edge $-1 $137 -64.776146732993567 $198 64.776146732993567 $129 $199 forward 7 unknown #
coedge $-1 $123 $200 $80 $132 reversed $76 $-1 #
edge $-1 $201 -64.776146732993567 $136 64.776146732993567 $131 $202 forward 7 unknown #
coedge $-1 $126 $81 $200 $203 forward $135 $-1 #
coedge $-1 $81 $126 $196 $204 reversed $135 $-1 #
loop $-1 $-1 $133 $180 #
vertex $-1 $82 $205 #
vertex $-1 $82 $206 #
straight-curve $-1 64.776146732993567 0 12.905572647718165 0 1 0 I I #
face $-1 $207 $208 $19 $-1 $209 reversed single #
loop $-1 $-1 $210 $83 #
plane-surface $-1 0 -50.473943417907925 1.4089885893299527 0 0 1 1 0 0 forward_v I I I I #
coedge $-1 $89 $211 $212 $213 forward $84 $-1 #
coedge $-1 $214 $86 $215 $216 reversed $53 $-1 #
coedge $-1 $86 $214 $149 $217 reversed $53 $-1 #
edge $-1 $150 -7.4007631396316729 $218 -1.4089885893299527 $86 $219 forward 7 unknown #
coedge $-1 $88 $87 $220 $221 forward $34 $-1 #
coedge $-1 $212 $222 $87 $148 forward $223 $-1 #
edge $-1 $224 1.4089885893299527 $151 7.4007631396316729 $147 $225 forward 7 unknown #
coedge $-1 $211 $89 $144 $217 forward $84 $-1 #
vertex $-1 $145 $226 #
vertex $-1 $213 $227 #
straight-curve $-1 0 -44.476839957485545 7.4007631396316729 1 0 0 I I #
face $-1 $-1 $228 $20 $-1 $229 reversed single #
loop $-1 $-1 $97 $91 #
plane-surface $-1 0 44.476839957485545 0 0 -1 0 0 0 -1 forward_v I I I I #
coedge $-1 $161 $230 $231 $232 forward $92 $-1 #
coedge $-1 $231 $94 $96 $163 forward $57 $-1 #
coedge $-1 $94 $231 $233 $234 reversed $57 $-1 #
coedge $-1 $235 $97 $94 $160 forward $154 $-1 #
edge $-1 $166 20.722258421783966 $236 36.276678348067719 $159 $237 forward 7 unknown #
coedge $-1 $238 $156 $95 $162 forward $92 $-1 #
edge $-1 $239 -7.5438990949899818 $165 -1.4232043226089317 $161 $240 forward 7 unknown #
edge $-1 $166 -88.953679914971119 $239 -79.012023464599977 $96 $241 forward 7 unknown #
coedge $-1 $97 $235 $238 $242 reversed $154 $-1 #
vertex $-1 $242 $243 #
vertex $-1 $98 $244 #
straight-curve $-1 -49.22172680670981 44.476839957485545 77.464126106298963 0 0 -1 I I #
coedge $-1 $168 $168 $-1 $245 reversed $101 $-1 #
edge $-1 $246 0 $246 6.2831853071796004 $102 $247 forward 7 unknown #
vertex $-1 $105 $248 #
ellipse-curve $-1 -61.665262747736818 41.416492571295031 8.9885065109088362 0 0.78801076186113728 0.61566146476048833 1.5 0 0 1 I I #
coedge $-1 $172 $172 $-1 $249 reversed $108 $-1 #
edge $-1 $250 0 $250 6.2831853071796004 $109 $251 forward 7 unknown #
vertex $-1 $112 $252 #
ellipse-curve $-1 -56.998936769851689 41.416492571295031 8.9885065109088362 0 0.78801076186113728 0.61566146476048833 1.5 0 0 1 I I #
coedge $-1 $176 $176 $-1 $253 reversed $115 $-1 #
edge $-1 $254 0 $254 6.2831853071796004 $116 $255 forward 7 unknown #
vertex $-1 $119 $256 #
ellipse-curve $-1 -52.332610791966559 41.416492571295031 8.9885065109088362 0 0.78801076186113728 0.61566146476048833 1.5 0 0 1 I I #
face $-1 $-1 $135 $18 $-1 $257 reversed single #
loop $-1 $-1 $196 $120 #
plane-surface $-1 0 44.476839957485545 0 0 -1 0 0 0 -1 forward_v I I I I #
coedge $-1 $258 $194 $197 $259 forward $121 $-1 #
coedge $-1 $200 $123 $124 $188 reversed $76 $-1 #
coedge $-1 $194 $258 $123 $186 reversed $121 $-1 #
edge $-1 $201 -12.905572647718165 $260 12.905572647718165 $185 $261 forward 7 unknown #
coedge $-1 $125 $124 $258 $262 forward $49 $-1 #
edge $-1 $192 -64.776146732993567 $260 64.776146732993567 $184 $263 forward 7 unknown #
coedge $-1 $197 $196 $125 $190 reversed $181 $-1 #
edge $-1 $264 -64.776146732993567 $191 64.776146732993567 $189 $265 forward 7 unknown #
vertex $-1 $127 $266 #
vertex $-1 $203 $267 #
straight-curve $-1 64.776146732993567 0 -12.905572647718165 0 -1 0 I I #
coedge $-1 $183 $185 $128 $195 reversed $121 $-1 #
edge $-1 $198 -44.476839957485545 $201 44.476839957485545 $194 $268 forward 7 unknown #
coedge $-1 $189 $129 $134 $204 forward $181 $-1 #
coedge $-1 $129 $189 $183 $259 reversed $181 $-1 #
vertex $-1 $130 $269 #
straight-curve $-1 0 44.476839957485545 12.905572647718165 -1 0 0 I I #
coedge $-1 $131 $184 $133 $203 reversed $76 $-1 #
vertex $-1 $195 $270 #
straight-curve $-1 0 -44.476839957485545 12.905572647718165 1 0 0 I I #
edge $-1 $136 -12.905572647718165 $192 12.905572647718165 $133 $271 forward 7 unknown #
edge $-1 $137 -12.905572647718165 $191 12.905572647718165 $134 $272 forward 7 unknown #
point $-1 64.776146732993567 -44.476839957485545 12.905572647718165 #
point $-1 64.776146732993567 44.476839957485545 12.905572647718165 #
face $-1 $-1 $223 $19 $-1 $273 reversed single #
loop $-1 $-1 $274 $139 #
plane-surface $-1 0 -56.471046878330306 4.4048758644808128 0 1 0 0 0 1 forward_v I I I I #
coedge $-1 $275 $220 $222 $276 forward $140 $-1 #
coedge $-1 $142 $149 $277 $278 forward $84 $-1 #
coedge $-1 $279 $147 $142 $213 reversed $223 $-1 #
edge $-1 $280 -5.9971034604223803 $151 5.9971034604223803 $212 $281 forward 7 unknown #
coedge $-1 $144 $143 $274 $282 reversed $53 $-1 #
coedge $-1 $220 $275 $143 $216 forward $140 $-1 #
edge $-1 $283 -5.9971034604223803 $218 5.9971034604223803 $143 $284 forward 7 unknown #
edge $-1 $150 -5.9971034604223803 $285 5.9971034604223803 $144 $286 forward 7 unknown #
vertex $-1 $145 $287 #
straight-curve $-1 -64.776146732993567 -44.476839957485545 0 0 0 -1 I I #
coedge $-1 $210 $215 $146 $221 reversed $140 $-1 #
edge $-1 $224 -64.776146732993567 $218 64.776146732993567 $220 $288 forward 7 unknown #
coedge $-1 $147 $279 $210 $276 reversed $223 $-1 #
loop $-1 $-1 $147 $207 #
vertex $-1 $148 $289 #
straight-curve $-1 64.776146732993567 -44.476839957485545 0 0 0 1 I I #
point $-1 -64.776146732993567 -44.476839957485545 7.4007631396316729 #
point $-1 64.776146732993567 -44.476839957485545 7.4007631396316729 #
loop $-1 $-1 $233 $153 #
plane-surface $-1 -64.776146732993567 0 0 1 0 0 0 0 -1 forward_v I I I I #
coedge $-1 $156 $238 $290 $291 forward $92 $-1 #
coedge $-1 $158 $157 $156 $232 reversed $57 $-1 #
edge $-1 $292 -36.276678348067719 $239 -20.722258421783966 $156 $293 forward 7 unknown #
coedge $-1 $290 $294 $158 $234 forward $228 $-1 #
edge $-1 $236 -56.170003379093501 $292 -46.22834692872236 $233 $295 forward 7 unknown #
coedge $-1 $164 $159 $294 $296 reversed $154 $-1 #
vertex $-1 $160 $297 #
straight-curve $-1 -28.499468384925844 44.476839957485538 5.0714403740995166 -1 0 0 I I #
coedge $-1 $230 $161 $164 $242 forward $92 $-1 #
vertex $-1 $162 $298 #
straight-curve $-1 -49.22172680670981 45.900044280094477 12.905572647718159 0 1 0 I I #
straight-curve $-1 -49.22172680670981 -10.288512914801203 75.167897454247651 0 -0.61566146476048833 0.78801076186113728 I I #
edge $-1 $165 49.22172680670981 $299 64.776146732993567 $164 $300 forward 7 unknown #
point $-1 -49.22172680670981 44.476839957485545 12.905572647718165 #
point $-1 -49.22172680670981 44.476839957485545 5.0714403740995095 #
edge $-1 $301 1 $301 0 $168 $-1 forward 7 unknown #
vertex $-1 $169 $302 #
ellipse-curve $-1 -61.665262747736818 37.513498138313949 5.9391531443559504 0 0.78801076186113728 0.61566146476048833 1.5 0 0 1 I I #
point $-1 -60.165262747736818 41.416492571295038 8.9885065109088451 #
edge $-1 $303 1 $303 0 $172 $-1 forward 7 unknown #
vertex $-1 $173 $304 #
ellipse-curve $-1 -56.998936769851689 37.513498138313949 5.9391531443559504 0 0.78801076186113728 0.61566146476048833 1.5 0 0 1 I I #
point $-1 -55.498936769851689 41.416492571295038 8.9885065109088451 #
edge $-1 $305 1 $305 0 $176 $-1 forward 7 unknown #
vertex $-1 $177 $306 #
ellipse-curve $-1 -52.332610791966559 37.513498138313949 5.9391531443559504 0 0.78801076186113728 0.61566146476048833 1.5 0 0 1 I I #
point $-1 -50.832610791966559 41.416492571295038 8.9885065109088451 #
plane-surface $-1 64.776146732993567 0 0 -1 0 0 0 0 1 forward_v I I I I #
coedge $-1 $185 $183 $187 $262 reversed $121 $-1 #
edge $-1 $198 -12.905572647718165 $264 12.905572647718165 $197 $307 forward 7 unknown #
vertex $-1 $262 $308 #
straight-curve $-1 -64.776146732993567 -44.476839957485545 0 0 0 -1 I I #
edge $-1 $260 -44.476839957485545 $264 44.476839957485545 $258 $309 forward 7 unknown #
straight-curve $-1 0 -44.476839957485545 -12.905572647718165 -1 0 0 I I #
vertex $-1 $190 $310 #
straight-curve $-1 0 44.476839957485545 -12.905572647718165 1 0 0 I I #
point $-1 64.776146732993567 44.476839957485545 -12.905572647718165 #
point $-1 64.776146732993567 -44.476839957485545 -12.905572647718165 #
straight-curve $-1 -64.776146732993567 0 12.905572647718165 0 -1 0 I I #
point $-1 -64.776146732993567 44.476839957485545 12.905572647718165 #
point $-1 -64.776146732993567 -44.476839957485545 12.905572647718165 #
straight-curve $-1 64.776146732993567 -44.476839957485545 0 0 0 -1 I I #
straight-curve $-1 64.776146732993567 44.476839957485545 0 0 0 -1 I I #
plane-surface $-1 64.776146732993567 0 0 -1 0 0 0 0 1 forward_v I I I I #
coedge $-1 $311 $277 $214 $282 forward $208 $-1 #
coedge $-1 $215 $210 $311 $312 forward $140 $-1 #
edge $-1 $224 -5.9971034604223803 $313 5.9971034604223803 $222 $314 forward 7 unknown #
coedge $-1 $274 $315 $211 $278 reversed $208 $-1 #
edge $-1 $285 -64.776146732993567 $280 64.776146732993567 $277 $316 forward 7 unknown #
coedge $-1 $222 $212 $315 $317 forward $223 $-1 #
vertex $-1 $213 $318 #
straight-curve $-1 64.776146732993567 -50.473943417907925 7.4007631396316729 0 1 0 I I #
edge $-1 $285 -2.9958872751508601 $283 2.9958872751508601 $214 $319 forward 7 unknown #
vertex $-1 $216 $320 #
straight-curve $-1 -64.776146732993567 -50.473943417907925 1.4089885893299527 0 1 0 I I #
vertex $-1 $217 $321 #
straight-curve $-1 -64.776146732993567 -50.473943417907925 7.4007631396316729 0 -1 0 I I #
point $-1 -64.776146732993567 -44.476839957485545 1.4089885893299527 #
straight-curve $-1 0 -44.476839957485545 1.4089885893299527 -1 0 0 I I #
point $-1 64.776146732993567 -44.476839957485545 1.4089885893299527 #
coedge $-1 $294 $233 $230 $291 reversed $228 $-1 #
edge $-1 $299 -44.476839957485545 $292 -38.356145185104495 $290 $322 forward 7 unknown #
vertex $-1 $234 $323 #
straight-curve $-1 -28.499468384925844 38.356145185104495 12.905572647718166 1 0 0 I I #
coedge $-1 $233 $290 $235 $296 forward $228 $-1 #
straight-curve $-1 -64.776146732993567 9.8951334015112664 49.334007530601639 0 -0.61566146476048833 0.78801076186113728 I I #
edge $-1 $299 -12.905572647718165 $236 -5.0714403740995087 $235 $324 forward 7 unknown #
point $-1 -64.776146732993567 44.476839957485545 5.0714403740995087 #
point $-1 -49.22172680670981 38.356145185104495 12.905572647718166 #
vertex $-1 $242 $325 #
straight-curve $-1 0 44.476839957485545 12.905572647718165 -1 0 0 I I #
vertex $-1 $245 $326 #
point $-1 -60.165262747736818 37.513498138313949 5.9391531443559504 #
vertex $-1 $249 $327 #
point $-1 -55.498936769851689 37.513498138313949 5.9391531443559504 #
vertex $-1 $253 $328 #
point $-1 -50.832610791966559 37.513498138313949 5.9391531443559504 #
straight-curve $-1 -64.776146732993567 44.476839957485545 0 0 0 -1 I I #
point $-1 -64.776146732993567 -44.476839957485545 -12.905572647718165 #
straight-curve $-1 -64.776146732993567 0 -12.905572647718165 0 1 0 I I #
point $-1 -64.776146732993567 44.476839957485545 -12.905572647718165 #
coedge $-1 $315 $274 $275 $312 reversed $208 $-1 #
edge $-1 $313 -64.776146732993567 $283 64.776146732993567 $311 $329 forward 7 unknown #
vertex $-1 $317 $330 #
straight-curve $-1 64.776146732993567 -50.473943417907925 1.4089885893299527 0 -1 0 I I #
coedge $-1 $277 $311 $279 $317 reversed $208 $-1 #
straight-curve $-1 0 -56.471046878330306 7.4007631396316729 1 0 0 I I #
edge $-1 $280 -2.9958872751508601 $313 2.9958872751508601 $279 $331 forward 7 unknown #
point $-1 64.776146732993567 -56.471046878330306 7.4007631396316729 #
straight-curve $-1 -64.776146732993567 -56.471046878330306 4.4048758644808128 0 0 -1 I I #
point $-1 -64.776146732993567 -56.471046878330306 1.4089885893299527 #
point $-1 -64.776146732993567 -56.471046878330306 7.4007631396316729 #
straight-curve $-1 -64.776146732993567 0 12.905572647718165 0 -1 0 I I #
point $-1 -64.776146732993567 38.356145185104495 12.905572647718166 #
straight-curve $-1 -64.776146732993567 44.476839957485545 0 0 0 -1 I I #
point $-1 -64.776146732993567 44.476839957485545 12.905572647718165 #
point $-1 -61.665262747736818 36.331481995522239 5.0156609472152187 #
point $-1 -56.998936769851689 36.331481995522239 5.0156609472152187 #
point $-1 -52.332610791966559 36.331481995522239 5.0156609472152187 #
straight-curve $-1 0 -56.471046878330306 1.4089885893299527 -1 0 0 I I #
point $-1 64.776146732993567 -56.471046878330306 1.4089885893299527 #
straight-curve $-1 64.776146732993567 -56.471046878330306 4.4048758644808128 0 0 -1 I I #
End-of-ACIS-data 