500 0 9 0           
7 Unknown 11 ACIS 5.0 NT 24 Fri Mar 26 15:29:33 1999 
-1 9.9999999999999995e-007 1e-010 
body $-1 $9 $-1 $10 #
body $-1 $11 $-1 $12 #
body $-1 $13 $-1 $14 #
body $-1 $15 $-1 $16 #
body $-1 $17 $-1 $18 #
body $-1 $19 $-1 $20 #
body $-1 $21 $-1 $22 #
body $-1 $23 $-1 $24 #
body $-1 $25 $-1 $26 #
lump $-1 $-1 $27 $0 #
transform $-1 1 0 0 0 1 0 0 0 1 60.521866512039551 34.40882459871478 10.174162385618699 1 rotate no_reflect no_shear #
lump $-1 $-1 $28 $1 #
transform $-1 1 0 0 0 1 0 0 0 1 60.521866512039551 34.40882459871478 10.174162385618699 1 rotate no_reflect no_shear #
lump $-1 $-1 $29 $2 #
transform $-1 1 0 0 0 1 0 0 0 1 60.521866512039551 34.40882459871478 10.174162385618699 1 rotate no_reflect no_shear #
lump $-1 $-1 $30 $3 #
transform $-1 1 0 0 0 1 0 0 0 1 60.521866512039551 34.40882459871478 10.174162385618699 1 rotate no_reflect no_shear #
lump $-1 $-1 $31 $4 #
transform $-1 1 0 0 0 1 0 0 0 1 60.521866512039551 34.40882459871478 10.174162385618699 1 rotate no_reflect no_shear #
lump $-1 $-1 $32 $5 #
transform $-1 1 0 0 0 1 0 0 0 1 60.521866512039551 34.40882459871478 10.174162385618699 1 rotate no_reflect no_shear #
lump $-1 $-1 $33 $6 #
transform $-1 1 0 0 0 1 0 0 0 1 60.521866512039551 34.40882459871478 10.174162385618699 1 rotate no_reflect no_shear #
lump $-1 $-1 $34 $7 #
transform $-1 1 0 0 0 1 0 0 0 1 60.521866512039551 34.40882459871478 10.174162385618699 1 rotate no_reflect no_shear #
lump $-1 $-1 $35 $8 #
transform $-1 1 0 0 0 1 0 0 0 1 60.521866512039551 34.40882459871478 10.174162385618699 1 rotate no_reflect no_shear #
shell $-1 $-1 $-1 $36 $-1 $9 #
shell $-1 $-1 $-1 $37 $-1 $11 #
shell $-1 $-1 $-1 $38 $-1 $13 #
shell $-1 $-1 $-1 $39 $-1 $15 #
shell $-1 $-1 $-1 $40 $-1 $17 #
shell $-1 $-1 $-1 $41 $-1 $19 #
shell $-1 $-1 $-1 $42 $-1 $21 #
shell $-1 $-1 $-1 $43 $-1 $23 #
shell $-1 $-1 $-1 $44 $-1 $25 #
face $-1 $45 $46 $27 $-1 $47 forward single #
face $-1 $48 $49 $28 $-1 $50 reversed single #
face $-1 $51 $52 $29 $-1 $53 forward single #
face $-1 $54 $55 $30 $-1 $56 forward single #
face $-1 $57 $58 $31 $-1 $59 forward single #
face $-1 $60 $61 $32 $-1 $62 reversed single #
face $-1 $63 $64 $33 $-1 $65 forward single #
face $-1 $66 $67 $34 $-1 $68 forward single #
face $-1 $69 $70 $35 $-1 $71 forward single #
face $-1 $72 $73 $27 $-1 $74 reversed single #
loop $-1 $-1 $75 $36 #
plane-surface $-1 0 0 10.174162385618699 0 0 1 1 0 0 forward_v I I I I #
face $-1 $76 $77 $28 $-1 $78 reversed single #
loop $-1 $-1 $79 $37 #
plane-surface $-1 -41.334475121299803 64.261412643229818 141.08491579230869 -1 0 0 0 0.66913061440640931 0.74314481823134659 forward_v I I I I #
face $-1 $80 $81 $29 $-1 $82 forward single #
loop $-1 $83 $84 $38 #
cone-surface $-1 -56.684388233891603 30.417709186196205 6.3357667095495671 0 -0.66913061440640931 -0.74314481823134659 1 0 0 1 I I 0 1 1 forward I I I I #
face $-1 $85 $86 $30 $-1 $87 forward single #
loop $-1 $88 $89 $39 #
cone-surface $-1 -50.928170816669677 30.417709186196205 6.3357667095495671 0 -0.66913061440640931 -0.74314481823134659 1 0 0 1 I I 0 1 1 forward I I I I #
face $-1 $90 $91 $31 $-1 $92 forward single #
loop $-1 $93 $94 $40 #
cone-surface $-1 -45.171953399447752 30.417709186196205 6.3357667095495671 0 -0.66913061440640931 -0.74314481823134659 1 0 0 1 I I 0 1 1 forward I I I I #
face $-1 $95 $96 $32 $-1 $97 reversed single #
loop $-1 $-1 $98 $41 #
plane-surface $-1 -41.334475121299803 -115.4028920471622 95.036919902827904 -1 0 0 0 -0.66913061440640931 0.74314481823134659 forward_v I I I I #
face $-1 $99 $100 $33 $-1 $101 forward single #
loop $-1 $102 $103 $42 #
cone-surface $-1 -56.684388233891603 -30.417709186196202 6.335766709549576 0 0.66913061440640931 -0.74314481823134659 1 0 0 1 I I 0 1 1 forward I I I I #
face $-1 $104 $105 $34 $-1 $106 forward single #
loop $-1 $107 $108 $43 #
cone-surface $-1 -50.928170816669677 -30.417709186196202 6.335766709549576 0 0.66913061440640931 -0.74314481823134659 1 0 0 1 I I 0 1 1 forward I I I I #
face $-1 $109 $110 $35 $-1 $111 forward single #
loop $-1 $112 $113 $44 #
cone-surface $-1 -45.171953399447752 -30.417709186196202 6.335766709549576 0 0.66913061440640931 -0.74314481823134659 1 0 0 1 I I 0 1 1 forward I I I I #
face $-1 $114 $115 $27 $-1 $116 reversed single #
loop $-1 $-1 $117 $45 #
plane-surface $-1 0 0 -10.174162385618699 0 0 1 1 0 0 forward_v I I I I #
coedge $-1 $118 $119 $120 $121 forward $46 $-1 #
face $-1 $122 $123 $28 $-1 $124 reversed single #
loop $-1 $-1 $125 $48 #
plane-surface $-1 -50.928170816669677 -16.732654805217592 51.131892816085795 0 0.66913061440640931 0.74314481823134659 1 0 0 forward_v I I I I #
coedge $-1 $126 $127 $128 $129 reversed $49 $-1 #
face $-1 $-1 $130 $29 $-1 $131 forward single #
loop $-1 $132 $133 $51 #
cone-surface $-1 -56.684388233891603 28.918684666208897 4.6709313538716177 0 -0.66913061440640931 -0.74314481823134659 0.5 0 0 1 I I -0.70710678118654746 0.70710678118654746 0.5 forward I I I I #
loop $-1 $-1 $134 $38 #
coedge $-1 $84 $84 $135 $136 reversed $52 $-1 #
face $-1 $-1 $137 $30 $-1 $138 forward single #
loop $-1 $139 $140 $54 #
cone-surface $-1 -50.928170816669677 28.918684666208897 4.6709313538716177 0 -0.66913061440640931 -0.74314481823134659 0.5 0 0 1 I I -0.70710678118654746 0.70710678118654746 0.5 forward I I I I #
loop $-1 $-1 $141 $39 #
coedge $-1 $89 $89 $142 $143 reversed $55 $-1 #
face $-1 $-1 $144 $31 $-1 $145 forward single #
loop $-1 $146 $147 $57 #
cone-surface $-1 -45.171953399447752 28.918684666208897 4.6709313538716177 0 -0.66913061440640931 -0.74314481823134659 0.5 0 0 1 I I -0.70710678118654746 0.70710678118654746 0.5 forward I I I I #
loop $-1 $-1 $148 $40 #
coedge $-1 $94 $94 $149 $150 reversed $58 $-1 #
face $-1 $151 $152 $32 $-1 $153 reversed single #
loop $-1 $-1 $154 $60 #
plane-surface $-1 -50.928170816669677 -34.408824598714787 5.0838969266050071 0 -0.66913061440640931 0.74314481823134659 1 0 0 forward_v I I I I #
coedge $-1 $155 $156 $157 $158 reversed $61 $-1 #
face $-1 $-1 $159 $33 $-1 $160 forward single #
loop $-1 $161 $162 $63 #
cone-surface $-1 -56.684388233891603 -28.918684666208893 4.6709313538716266 0 0.66913061440640931 -0.74314481823134659 0.5 0 0 1 I I -0.70710678118654746 0.70710678118654746 0.5 forward I I I I #
loop $-1 $-1 $163 $42 #
coedge $-1 $103 $103 $164 $165 reversed $64 $-1 #
face $-1 $-1 $166 $34 $-1 $167 forward single #
loop $-1 $168 $169 $66 #
cone-surface $-1 -50.928170816669677 -28.918684666208893 4.6709313538716266 0 0.66913061440640931 -0.74314481823134659 0.5 0 0 1 I I -0.70710678118654746 0.70710678118654746 0.5 forward I I I I #
loop $-1 $-1 $170 $43 #
coedge $-1 $108 $108 $171 $172 reversed $67 $-1 #
face $-1 $-1 $173 $35 $-1 $174 forward single #
loop $-1 $175 $176 $69 #
cone-surface $-1 -45.171953399447752 -28.918684666208893 4.6709313538716266 0 0.66913061440640931 -0.74314481823134659 0.5 0 0 1 I I -0.70710678118654746 0.70710678118654746 0.5 forward I I I I #
loop $-1 $-1 $177 $44 #
coedge $-1 $113 $113 $178 $179 reversed $70 $-1 #
face $-1 $180 $181 $27 $-1 $182 reversed single #
loop $-1 $-1 $183 $72 #
plane-surface $-1 0 -34.40882459871478 0 0 1 0 0 0 1 forward_v I I I I #
coedge $-1 $184 $185 $186 $187 forward $73 $-1 #
coedge $-1 $188 $75 $189 $190 forward $46 $-1 #
coedge $-1 $75 $188 $191 $192 forward $46 $-1 #
coedge $-1 $193 $194 $75 $121 reversed $195 $-1 #
edge $-1 $196 -34.40882459871478 $197 34.40882459871478 $120 $198 forward 7 unknown #
face $-1 $199 $200 $28 $-1 $201 forward single #
loop $-1 $-1 $128 $76 #
plane-surface $-1 0 34.40882459871478 0 0 -1 0 0 0 -1 forward_v I I I I #
coedge $-1 $202 $203 $204 $205 reversed $77 $-1 #
coedge $-1 $127 $79 $206 $207 reversed $49 $-1 #
coedge $-1 $79 $126 $202 $208 reversed $49 $-1 #
coedge $-1 $204 $209 $79 $129 forward $123 $-1 #
edge $-1 $210 60.368295510535646 $211 65.458560969549339 $128 $212 forward 7 unknown #
loop $-1 $-1 $135 $80 #
plane-surface $-1 -50.928170816669677 -16.732654805217592 51.131892816085795 0 0.66913061440640931 0.74314481823134659 1 0 0 forward_v I I I I #
loop $-1 $-1 $213 $51 #
coedge $-1 $133 $133 $134 $214 reversed $81 $-1 #
coedge $-1 $134 $134 $133 $214 forward $83 $-1 #
coedge $-1 $135 $135 $84 $136 forward $130 $-1 #
edge $-1 $215 -8.5725864603084142e-016 $215 6.2831853071795996 $135 $216 forward 7 unknown #
loop $-1 $-1 $142 $85 #
plane-surface $-1 -50.928170816669677 -16.732654805217592 51.131892816085795 0 0.66913061440640931 0.74314481823134659 1 0 0 forward_v I I I I #
loop $-1 $-1 $217 $54 #
coedge $-1 $140 $140 $141 $218 reversed $86 $-1 #
coedge $-1 $141 $141 $140 $218 forward $88 $-1 #
coedge $-1 $142 $142 $89 $143 forward $137 $-1 #
edge $-1 $219 -8.5725864603084142e-016 $219 6.2831853071795996 $142 $220 forward 7 unknown #
loop $-1 $-1 $149 $90 #
plane-surface $-1 -50.928170816669677 -16.732654805217592 51.131892816085795 0 0.66913061440640931 0.74314481823134659 1 0 0 forward_v I I I I #
loop $-1 $-1 $221 $57 #
coedge $-1 $147 $147 $148 $222 reversed $91 $-1 #
coedge $-1 $148 $148 $147 $222 forward $93 $-1 #
coedge $-1 $149 $149 $94 $150 forward $144 $-1 #
edge $-1 $223 -8.5725864603084142e-016 $223 6.2831853071795996 $149 $224 forward 7 unknown #
face $-1 $225 $226 $32 $-1 $227 forward single #
loop $-1 $-1 $228 $95 #
plane-surface $-1 -60.521866512039551 0 0 1 0 0 0 0 -1 forward_v I I I I #
coedge $-1 $229 $230 $231 $232 reversed $96 $-1 #
coedge $-1 $156 $98 $233 $234 reversed $61 $-1 #
coedge $-1 $98 $155 $229 $235 reversed $61 $-1 #
coedge $-1 $231 $236 $98 $158 forward $226 $-1 #
edge $-1 $237 23.292621424866319 $238 28.945933824335263 $157 $239 forward 7 unknown #
loop $-1 $-1 $164 $99 #
plane-surface $-1 -50.928170816669677 -34.408824598714787 5.0838969266050071 0 -0.66913061440640931 0.74314481823134659 1 0 0 forward_v I I I I #
loop $-1 $-1 $240 $63 #
coedge $-1 $162 $162 $163 $241 reversed $100 $-1 #
coedge $-1 $163 $163 $162 $241 forward $102 $-1 #
coedge $-1 $164 $164 $103 $165 forward $159 $-1 #
edge $-1 $242 -3.3135609732207542e-016 $242 6.2831853071796004 $164 $243 forward 7 unknown #
loop $-1 $-1 $171 $104 #
plane-surface $-1 -50.928170816669677 -34.408824598714787 5.0838969266050071 0 -0.66913061440640931 0.74314481823134659 1 0 0 forward_v I I I I #
loop $-1 $-1 $244 $66 #
coedge $-1 $169 $169 $170 $245 reversed $105 $-1 #
coedge $-1 $170 $170 $169 $245 forward $107 $-1 #
coedge $-1 $171 $171 $108 $172 forward $166 $-1 #
edge $-1 $246 -3.3135609732207542e-016 $246 6.2831853071796004 $171 $247 forward 7 unknown #
loop $-1 $-1 $178 $109 #
plane-surface $-1 -50.928170816669677 -34.408824598714787 5.0838969266050071 0 -0.66913061440640931 0.74314481823134659 1 0 0 forward_v I I I I #
loop $-1 $-1 $248 $69 #
coedge $-1 $176 $176 $177 $249 reversed $110 $-1 #
coedge $-1 $177 $177 $176 $249 forward $112 $-1 #
coedge $-1 $178 $178 $113 $179 forward $173 $-1 #
edge $-1 $250 -3.3135609732207542e-016 $250 6.2831853071796004 $178 $251 forward 7 unknown #
face $-1 $252 $253 $27 $-1 $254 reversed single #
loop $-1 $-1 $255 $114 #
plane-surface $-1 -60.521866512039551 0 0 1 0 0 0 0 -1 forward_v I I I I #
coedge $-1 $256 $191 $257 $258 forward $115 $-1 #
coedge $-1 $259 $117 $256 $260 forward $73 $-1 #
coedge $-1 $117 $259 $261 $262 forward $73 $-1 #
coedge $-1 $194 $193 $117 $187 reversed $195 $-1 #
edge $-1 $263 -34.40882459871478 $264 34.40882459871478 $186 $265 forward 7 unknown #
coedge $-1 $119 $118 $266 $267 forward $46 $-1 #
coedge $-1 $268 $269 $118 $190 reversed $253 $-1 #
edge $-1 $197 -60.521866512039551 $270 60.521866512039551 $189 $271 forward 7 unknown #
coedge $-1 $183 $272 $119 $192 reversed $115 $-1 #
edge $-1 $273 -60.521866512039551 $196 60.521866512039551 $191 $274 forward 7 unknown #
coedge $-1 $186 $120 $272 $275 forward $195 $-1 #
coedge $-1 $120 $186 $268 $276 reversed $195 $-1 #
loop $-1 $-1 $193 $252 #
vertex $-1 $121 $277 #
vertex $-1 $121 $278 #
straight-curve $-1 60.521866512039551 0 10.174162385618699 0 1 0 I I #
face $-1 $-1 $279 $28 $-1 $280 reversed single #
loop $-1 $-1 $206 $122 #
plane-surface $-1 0 0 10.174162385618699 0 0 1 1 0 0 forward_v I I I I #
coedge $-1 $281 $125 $127 $208 forward $77 $-1 #
coedge $-1 $125 $281 $282 $283 reversed $77 $-1 #
coedge $-1 $284 $128 $125 $205 forward $123 $-1 #
edge $-1 $211 15.870389712964965 $285 35.057781103704713 $204 $286 forward 7 unknown #
coedge $-1 $287 $288 $126 $207 forward $200 $-1 #
edge $-1 $289 -3.3751941223690878 $210 2.2781182770998711 $206 $290 forward 7 unknown #
edge $-1 $211 -68.817649197429574 $289 -61.210366927839637 $127 $291 forward 7 unknown #
coedge $-1 $128 $284 $287 $292 reversed $123 $-1 #
vertex $-1 $292 $293 #
vertex $-1 $129 $294 #
straight-curve $-1 -41.334475121299803 34.40882459871478 70.542457896154346 0 0 -1 I I #
coedge $-1 $213 $213 $-1 $295 reversed $132 $-1 #
edge $-1 $296 0 $296 6.2831853071796004 $133 $297 forward 7 unknown #
vertex $-1 $136 $298 #
ellipse-curve $-1 -56.684388233891603 31.582168398980311 7.6290296561118449 0 0.66913061440640931 0.74314481823134659 1 0 0 1 I I #
coedge $-1 $217 $217 $-1 $299 reversed $139 $-1 #
edge $-1 $300 0 $300 6.2831853071796004 $140 $301 forward 7 unknown #
vertex $-1 $143 $302 #
ellipse-curve $-1 -50.928170816669677 31.582168398980311 7.6290296561118449 0 0.66913061440640931 0.74314481823134659 1 0 0 1 I I #
coedge $-1 $221 $221 $-1 $303 reversed $146 $-1 #
edge $-1 $304 0 $304 6.2831853071796004 $147 $305 forward 7 unknown #
vertex $-1 $150 $306 #
ellipse-curve $-1 -45.171953399447752 31.582168398980311 7.6290296561118449 0 0.66913061440640931 0.74314481823134659 1 0 0 1 I I #
face $-1 $-1 $307 $32 $-1 $308 reversed single #
loop $-1 $-1 $231 $151 #
plane-surface $-1 0 0 10.174162385618699 0 0 1 1 0 0 forward_v I I I I #
coedge $-1 $309 $310 $230 $311 forward $152 $-1 #
coedge $-1 $312 $154 $156 $235 forward $96 $-1 #
coedge $-1 $154 $312 $228 $311 reversed $96 $-1 #
coedge $-1 $313 $157 $154 $232 forward $226 $-1 #
edge $-1 $238 15.870389712964965 $314 35.057781103704713 $231 $315 forward 7 unknown #
coedge $-1 $316 $317 $155 $234 forward $307 $-1 #
edge $-1 $318 -42.434563024808938 $237 -37.344297565795252 $233 $319 forward 7 unknown #
edge $-1 $238 -7.6072822695899269 $318 -9.4405131238556439e-015 $156 $320 forward 7 unknown #
coedge $-1 $157 $313 $316 $321 forward $226 $-1 #
vertex $-1 $234 $322 #
vertex $-1 $158 $323 #
straight-curve $-1 -41.334475121299803 -57.701446023581099 10.1741623856187 0 1 0 I I #
coedge $-1 $240 $240 $-1 $324 reversed $161 $-1 #
edge $-1 $325 0 $325 6.2831853071796004 $162 $326 forward 7 unknown #
vertex $-1 $165 $327 #
ellipse-curve $-1 -56.684388233891603 -31.582168398980308 7.6290296561118556 0 -0.66913061440640931 0.74314481823134659 1 0 0 1 I I #
coedge $-1 $244 $244 $-1 $328 reversed $168 $-1 #
edge $-1 $329 0 $329 6.2831853071796004 $169 $330 forward 7 unknown #
vertex $-1 $172 $331 #
ellipse-curve $-1 -50.928170816669677 -31.582168398980308 7.6290296561118556 0 -0.66913061440640931 0.74314481823134659 1 0 0 1 I I #
coedge $-1 $248 $248 $-1 $332 reversed $175 $-1 #
edge $-1 $333 0 $333 6.2831853071796004 $176 $334 forward 7 unknown #
vertex $-1 $179 $335 #
ellipse-curve $-1 -45.171953399447752 -31.582168398980308 7.6290296561118556 0 -0.66913061440640931 0.74314481823134659 1 0 0 1 I I #
face $-1 $-1 $195 $27 $-1 $336 reversed single #
loop $-1 $-1 $268 $180 #
plane-surface $-1 0 34.40882459871478 0 0 -1 0 0 0 -1 forward_v I I I I #
coedge $-1 $337 $266 $269 $338 forward $181 $-1 #
coedge $-1 $272 $183 $184 $260 reversed $115 $-1 #
coedge $-1 $266 $337 $183 $258 reversed $181 $-1 #
edge $-1 $273 -10.174162385618699 $339 10.174162385618699 $257 $340 forward 7 unknown #
coedge $-1 $185 $184 $337 $341 forward $73 $-1 #
edge $-1 $264 -60.521866512039551 $339 60.521866512039551 $256 $342 forward 7 unknown #
coedge $-1 $269 $268 $185 $262 reversed $253 $-1 #
edge $-1 $343 -60.521866512039551 $263 60.521866512039551 $261 $344 forward 7 unknown #
vertex $-1 $187 $345 #
vertex $-1 $275 $346 #
straight-curve $-1 60.521866512039551 0 -10.174162385618699 0 -1 0 I I #
coedge $-1 $255 $257 $188 $267 reversed $181 $-1 #
edge $-1 $270 -34.40882459871478 $273 34.40882459871478 $266 $347 forward 7 unknown #
coedge $-1 $261 $189 $194 $276 forward $253 $-1 #
coedge $-1 $189 $261 $255 $338 reversed $253 $-1 #
vertex $-1 $190 $348 #
straight-curve $-1 0 34.40882459871478 10.174162385618699 -1 0 0 I I #
coedge $-1 $191 $256 $193 $275 reversed $115 $-1 #
vertex $-1 $267 $349 #
straight-curve $-1 0 -34.40882459871478 10.174162385618699 1 0 0 I I #
edge $-1 $196 -10.174162385618699 $264 10.174162385618699 $193 $350 forward 7 unknown #
edge $-1 $197 -10.174162385618699 $263 10.174162385618699 $194 $351 forward 7 unknown #
point $-1 60.521866512039551 -34.40882459871478 10.174162385618699 #
point $-1 60.521866512039551 34.40882459871478 10.174162385618699 #
loop $-1 $-1 $282 $199 #
plane-surface $-1 -60.521866512039551 0 0 1 0 0 0 0 -1 forward_v I I I I #
coedge $-1 $203 $202 $288 $352 reversed $77 $-1 #
coedge $-1 $353 $354 $203 $283 forward $279 $-1 #
edge $-1 $285 -45.493298912658844 $355 -37.886016643068913 $282 $356 forward 7 unknown #
coedge $-1 $209 $204 $354 $357 reversed $123 $-1 #
vertex $-1 $205 $358 #
straight-curve $-1 -25.464085408334839 34.40882459871478 5.0838969266050071 -1 0 0 I I #
coedge $-1 $359 $206 $209 $292 forward $200 $-1 #
coedge $-1 $206 $359 $281 $352 forward $200 $-1 #
vertex $-1 $207 $360 #
straight-curve $-1 -41.334475121299803 32.130706321614909 10.1741623856187 0 1 0 I I #
straight-curve $-1 -41.334475121299803 -16.732654805217592 51.131892816085795 0 -0.74314481823134659 0.66913061440640931 I I #
edge $-1 $210 41.334475121299803 $361 60.521866512039551 $209 $362 forward 7 unknown #
point $-1 -41.334475121299803 34.40882459871478 10.174162385618699 #
point $-1 -41.334475121299803 34.40882459871478 5.0838969266050071 #
edge $-1 $363 1 $363 0 $213 $-1 forward 7 unknown #
vertex $-1 $214 $364 #
ellipse-curve $-1 -56.684388233891603 29.253249973412103 5.0425037629872911 0 0.66913061440640931 0.74314481823134659 1 0 0 1 I I #
point $-1 -55.684388233891603 31.582168398980308 7.6290296561118423 #
edge $-1 $365 1 $365 0 $217 $-1 forward 7 unknown #
vertex $-1 $218 $366 #
ellipse-curve $-1 -50.928170816669677 29.253249973412103 5.0425037629872911 0 0.66913061440640931 0.74314481823134659 1 0 0 1 I I #
point $-1 -49.928170816669677 31.582168398980308 7.6290296561118423 #
edge $-1 $367 1 $367 0 $221 $-1 forward 7 unknown #
vertex $-1 $222 $368 #
ellipse-curve $-1 -45.171953399447752 29.253249973412103 5.0425037629872911 0 0.66913061440640931 0.74314481823134659 1 0 0 1 I I #
point $-1 -44.171953399447752 31.582168398980308 7.6290296561118423 #
loop $-1 $-1 $233 $225 #
plane-surface $-1 0 -34.40882459871478 0 0 1 0 0 0 1 forward_v I I I I #
coedge $-1 $310 $228 $369 $370 reversed $152 $-1 #
coedge $-1 $228 $309 $313 $371 reversed $152 $-1 #
edge $-1 $314 3.4771920443541342 $372 11.084474313944051 $228 $373 forward 7 unknown #
coedge $-1 $230 $229 $317 $374 reversed $96 $-1 #
coedge $-1 $236 $231 $310 $371 forward $226 $-1 #
vertex $-1 $371 $375 #
straight-curve $-1 -25.464085408334839 -28.755512199245835 10.174162385618697 -1 0 0 I I #
coedge $-1 $369 $233 $236 $321 reversed $307 $-1 #
coedge $-1 $233 $369 $312 $374 forward $307 $-1 #
vertex $-1 $234 $376 #
straight-curve $-1 -41.334475121299803 -34.40882459871478 47.518459951413952 0 0 1 I I #
straight-curve $-1 -41.334475121299803 -34.408824598714787 5.0838969266050071 0 -0.74314481823134659 -0.66913061440640931 I I #
edge $-1 $377 -60.521866512039551 $237 -41.334475121299803 $316 $378 forward 7 unknown #
point $-1 -41.334475121299803 -34.40882459871478 10.174162385618699 #
point $-1 -41.334475121299803 -28.755512199245835 10.174162385618699 #
edge $-1 $379 1 $379 0 $240 $-1 forward 7 unknown #
vertex $-1 $241 $380 #
ellipse-curve $-1 -56.684388233891603 -29.253249973412096 5.0425037629873 0 -0.66913061440640931 0.74314481823134659 1 0 0 1 I I #
point $-1 -55.684388233891603 -31.582168398980304 7.6290296561118511 #
edge $-1 $381 1 $381 0 $244 $-1 forward 7 unknown #
vertex $-1 $245 $382 #
ellipse-curve $-1 -50.928170816669677 -29.253249973412096 5.0425037629873 0 -0.66913061440640931 0.74314481823134659 1 0 0 1 I I #
point $-1 -49.928170816669677 -31.582168398980304 7.6290296561118511 #
edge $-1 $383 1 $383 0 $248 $-1 forward 7 unknown #
vertex $-1 $249 $384 #
ellipse-curve $-1 -45.171953399447752 -29.253249973412096 5.0425037629873 0 -0.66913061440640931 0.74314481823134659 1 0 0 1 I I #
point $-1 -44.171953399447752 -31.582168398980304 7.6290296561118511 #
plane-surface $-1 60.521866512039551 0 0 -1 0 0 0 0 1 forward_v I I I I #
coedge $-1 $257 $255 $259 $341 reversed $181 $-1 #
edge $-1 $270 -10.174162385618699 $343 10.174162385618699 $269 $385 forward 7 unknown #
vertex $-1 $341 $386 #
straight-curve $-1 -60.521866512039551 -34.40882459871478 0 0 0 -1 I I #
edge $-1 $339 -34.40882459871478 $343 34.40882459871478 $337 $387 forward 7 unknown #
straight-curve $-1 0 -34.40882459871478 -10.174162385618699 -1 0 0 I I #
vertex $-1 $262 $388 #
straight-curve $-1 0 34.40882459871478 -10.174162385618699 1 0 0 I I #
point $-1 60.521866512039551 34.40882459871478 -10.174162385618699 #
point $-1 60.521866512039551 -34.40882459871478 -10.174162385618699 #
straight-curve $-1 -60.521866512039551 0 10.174162385618699 0 -1 0 I I #
point $-1 -60.521866512039551 34.40882459871478 10.174162385618699 #
point $-1 -60.521866512039551 -34.40882459871478 10.174162385618699 #
straight-curve $-1 60.521866512039551 -34.40882459871478 0 0 0 -1 I I #
straight-curve $-1 60.521866512039551 34.40882459871478 0 0 0 -1 I I #
edge $-1 $355 -35.057781103704713 $289 -15.870389712964965 $288 $389 forward 7 unknown #
coedge $-1 $354 $282 $359 $390 reversed $279 $-1 #
coedge $-1 $282 $353 $284 $357 forward $279 $-1 #
vertex $-1 $283 $391 #
straight-curve $-1 -60.521866512039551 0.6007152475226043 35.524855979406851 0 -0.74314481823134659 0.66913061440640931 I I #
edge $-1 $361 -10.174162385618699 $285 -5.0838969266050009 $284 $392 forward 7 unknown #
point $-1 -60.521866512039551 34.40882459871478 5.0838969266050009 #
coedge $-1 $288 $287 $353 $390 forward $200 $-1 #
point $-1 -41.334475121299803 28.755512199245821 10.1741623856187 #
vertex $-1 $292 $393 #
straight-curve $-1 0 34.40882459871478 10.174162385618699 -1 0 0 I I #
vertex $-1 $295 $394 #
point $-1 -55.684388233891603 29.253249973412103 5.0425037629872911 #
vertex $-1 $299 $395 #
point $-1 -49.928170816669677 29.253249973412103 5.0425037629872911 #
vertex $-1 $303 $396 #
point $-1 -44.171953399447752 29.253249973412103 5.0425037629872911 #
coedge $-1 $317 $316 $309 $370 forward $307 $-1 #
edge $-1 $377 -10.174162385618699 $372 -5.0838969266050134 $309 $397 forward 7 unknown #
edge $-1 $314 28.755512199245835 $377 34.40882459871478 $310 $398 forward 7 unknown #
vertex $-1 $311 $399 #
straight-curve $-1 -60.521866512039551 -26.171454949488798 12.500858034666459 0 -0.74314481823134659 -0.66913061440640931 I I #
edge $-1 $372 -35.057781103704713 $318 -15.870389712964965 $317 $400 forward 7 unknown #
point $-1 -60.521866512039551 -28.755512199245835 10.174162385618699 #
point $-1 -41.334475121299803 -34.40882459871478 5.0838969266050134 #
vertex $-1 $371 $401 #
straight-curve $-1 0 -34.40882459871478 10.174162385618699 1 0 0 I I #
vertex $-1 $324 $402 #
point $-1 -55.684388233891603 -29.253249973412096 5.0425037629873 #
vertex $-1 $328 $403 #
point $-1 -49.928170816669677 -29.253249973412096 5.0425037629873 #
vertex $-1 $332 $404 #
point $-1 -44.171953399447752 -29.253249973412096 5.0425037629873 #
straight-curve $-1 -60.521866512039551 34.40882459871478 0 0 0 -1 I I #
point $-1 -60.521866512039551 -34.40882459871478 -10.174162385618699 #
straight-curve $-1 -60.521866512039551 0 -10.174162385618699 0 1 0 I I #
point $-1 -60.521866512039551 34.40882459871478 -10.174162385618699 #
straight-curve $-1 -25.464085408334839 28.755512199245832 10.174162385618697 1 0 0 I I #
edge $-1 $361 -34.40882459871478 $355 -28.755512199245821 $353 $405 forward 7 unknown #
point $-1 -60.521866512039551 28.755512199245821 10.1741623856187 #
straight-curve $-1 -60.521866512039551 34.40882459871478 0 0 0 -1 I I #
point $-1 -60.521866512039551 34.40882459871478 10.174162385618699 #
point $-1 -56.684388233891603 28.58411935900569 4.2993589447559444 #
point $-1 -50.928170816669677 28.58411935900569 4.2993589447559444 #
point $-1 -45.171953399447752 28.58411935900569 4.2993589447559444 #
straight-curve $-1 -60.521866512039551 -34.40882459871478 0 0 0 -1 I I #
straight-curve $-1 -60.521866512039551 0 10.174162385618699 0 -1 0 I I #
point $-1 -60.521866512039551 -34.40882459871478 5.0838969266050134 #
straight-curve $-1 -25.464085408334839 -34.40882459871478 5.0838969266050134 1 0 0 I I #
point $-1 -60.521866512039551 -34.40882459871478 10.174162385618699 #
point $-1 -56.684388233891603 -28.58411935900569 4.2993589447559533 #
point $-1 -50.928170816669677 -28.58411935900569 4.2993589447559533 #
point $-1 -45.171953399447752 -28.58411935900569 4.2993589447559533 #
straight-curve $-1 -60.521866512039551 0 10.174162385618699 0 -1 0 I I #
End-of-ACIS-data 