500 0 10 0           
7 Unknown 11 ACIS 5.0 NT 24 Fri Mar 26 16:53:38 1999 
-1 9.9999999999999995e-007 1e-010 
body $-1 $10 $-1 $11 #
body $-1 $12 $-1 $13 #
body $-1 $14 $-1 $15 #
body $-1 $16 $-1 $17 #
body $-1 $18 $-1 $19 #
body $-1 $20 $-1 $21 #
body $-1 $22 $-1 $23 #
body $-1 $24 $-1 $25 #
body $-1 $26 $-1 $27 #
body $-1 $28 $-1 $29 #
lump $-1 $-1 $30 $0 #
transform $-1 1 0 0 0 1 0 0 0 1 68.912015137180703 36.1662419723977 9.4583878279447262 1 rotate no_reflect no_shear #
lump $-1 $-1 $31 $1 #
transform $-1 1 0 0 0 1 0 0 0 1 68.912015137180703 36.1662419723977 9.4583878279447262 1 rotate no_reflect no_shear #
lump $-1 $-1 $32 $2 #
transform $-1 1 0 0 0 1 0 0 0 1 68.912015137180703 36.1662419723977 9.4583878279447262 1 rotate no_reflect no_shear #
lump $-1 $-1 $33 $3 #
transform $-1 1 0 0 0 1 0 0 0 1 68.912015137180703 36.1662419723977 9.4583878279447262 1 rotate no_reflect no_shear #
lump $-1 $-1 $34 $4 #
transform $-1 1 0 0 0 1 0 0 0 1 68.912015137180703 36.1662419723977 9.4583878279447262 1 rotate no_reflect no_shear #
lump $-1 $-1 $35 $5 #
transform $-1 1 0 0 0 1 0 0 0 1 68.912015137180703 36.1662419723977 9.4583878279447262 1 rotate no_reflect no_shear #
lump $-1 $-1 $36 $6 #
transform $-1 1 0 0 0 1 0 0 0 1 68.912015137180703 36.1662419723977 9.4583878279447262 1 rotate no_reflect no_shear #
lump $-1 $-1 $37 $7 #
transform $-1 1 0 0 0 1 0 0 0 1 68.912015137180703 36.1662419723977 9.4583878279447262 1 rotate no_reflect no_shear #
lump $-1 $-1 $38 $8 #
transform $-1 1 0 0 0 1 0 0 0 1 68.912015137180703 36.1662419723977 9.4583878279447262 1 rotate no_reflect no_shear #
lump $-1 $-1 $39 $9 #
transform $-1 1 0 0 0 1 0 0 0 1 68.912015137180703 36.1662419723977 9.4583878279447262 1 rotate no_reflect no_shear #
shell $-1 $-1 $-1 $40 $-1 $10 #
shell $-1 $-1 $-1 $41 $-1 $12 #
shell $-1 $-1 $-1 $42 $-1 $14 #
shell $-1 $-1 $-1 $43 $-1 $16 #
shell $-1 $-1 $-1 $44 $-1 $18 #
shell $-1 $-1 $-1 $45 $-1 $20 #
shell $-1 $-1 $-1 $46 $-1 $22 #
shell $-1 $-1 $-1 $47 $-1 $24 #
shell $-1 $-1 $-1 $48 $-1 $26 #
shell $-1 $-1 $-1 $49 $-1 $28 #
face $-1 $50 $51 $30 $-1 $52 forward single #
face $-1 $53 $54 $31 $-1 $55 forward single #
face $-1 $56 $57 $32 $-1 $58 reversed single #
face $-1 $59 $60 $33 $-1 $61 forward single #
face $-1 $62 $63 $34 $-1 $64 forward single #
face $-1 $65 $66 $35 $-1 $67 forward single #
face $-1 $68 $69 $36 $-1 $70 reversed single #
face $-1 $71 $72 $37 $-1 $73 forward single #
face $-1 $74 $75 $38 $-1 $76 forward single #
face $-1 $77 $78 $39 $-1 $79 forward single #
face $-1 $80 $81 $30 $-1 $82 reversed single #
loop $-1 $-1 $83 $40 #
plane-surface $-1 0 0 9.4583878279447262 0 0 1 1 0 0 forward_v I I I I #
face $-1 $84 $85 $31 $-1 $86 reversed single #
loop $-1 $-1 $87 $41 #
plane-surface $-1 -65.314179152003973 0 6.7377336575587483 0 0 1 1 0 0 forward_v I I I I #
face $-1 $88 $89 $32 $-1 $90 reversed single #
loop $-1 $-1 $91 $42 #
plane-surface $-1 45.502402331706747 -150.42754258360301 79.638632930494396 1 0 0 0 0.82903758062907751 -0.55919289150049634 forward_v I I I I #
face $-1 $92 $93 $33 $-1 $94 forward single #
loop $-1 $95 $96 $43 #
cone-surface $-1 50.184324892801541 -32.15346251517213 4.8740844703234165 0 0.82903758062907751 -0.55919289150049634 1.5 0 0 1 I I 0 1 1.5 forward I I I I #
face $-1 $97 $98 $34 $-1 $99 forward single #
loop $-1 $100 $101 $44 #
cone-surface $-1 57.207208734443725 -32.15346251517213 4.8740844703234165 0 0.82903758062907751 -0.55919289150049634 1.5 0 0 1 I I 0 1 1.5 forward I I I I #
face $-1 $102 $103 $35 $-1 $104 forward single #
loop $-1 $105 $106 $45 #
cone-surface $-1 64.230092576085923 -32.15346251517213 4.8740844703234165 0 0.82903758062907751 -0.55919289150049634 1.5 0 0 1 I I 0 1 1.5 forward I I I I #
face $-1 $107 $108 $36 $-1 $109 reversed single #
loop $-1 $-1 $110 $46 #
plane-surface $-1 34.46754116695277 95.251151891196344 147.665571479276 1 0 0 0 -0.7660444514056185 -0.64278759981090561 forward_v I I I I #
face $-1 $111 $112 $37 $-1 $113 forward single #
loop $-1 $114 $115 $47 #
cone-surface $-1 41.356435960998354 32.040876915625439 5.1394958082761182 0 -0.7660444514056185 -0.64278759981090561 1.5 0 0 1 I I 0 1 1.5 forward I I I I #
face $-1 $116 $117 $38 $-1 $118 forward single #
loop $-1 $119 $120 $48 #
cone-surface $-1 51.689778152066737 32.040876915625439 5.1394958082761182 0 -0.7660444514056185 -0.64278759981090561 1.5 0 0 1 I I 0 1 1.5 forward I I I I #
face $-1 $121 $122 $39 $-1 $123 forward single #
loop $-1 $124 $125 $49 #
cone-surface $-1 62.023120343135105 32.040876915625439 5.1394958082761182 0 -0.7660444514056185 -0.64278759981090561 1.5 0 0 1 I I 0 1 1.5 forward I I I I #
face $-1 $126 $127 $30 $-1 $128 reversed single #
loop $-1 $-1 $129 $50 #
plane-surface $-1 0 0 -9.4583878279447262 0 0 1 1 0 0 forward_v I I I I #
coedge $-1 $130 $131 $132 $133 forward $51 $-1 #
face $-1 $134 $135 $31 $-1 $136 reversed single #
loop $-1 $-1 $137 $53 #
plane-surface $-1 -65.314179152003973 0 3.4116672008713502 0 0 1 1 0 0 forward_v I I I I #
coedge $-1 $138 $139 $140 $141 forward $54 $-1 #
face $-1 $142 $143 $32 $-1 $144 forward single #
loop $-1 $-1 $145 $56 #
plane-surface $-1 57.207208734443725 -36.1662419723977 2.5684149231222904 0 -0.82903758062907751 0.55919289150049634 1 0 0 forward_v I I I I #
coedge $-1 $146 $147 $148 $149 reversed $57 $-1 #
face $-1 $-1 $150 $33 $-1 $151 forward single #
loop $-1 $152 $153 $59 #
cone-surface $-1 50.184324892801541 -29.8425775026613 3.3153728964879576 0 0.82903758062907751 -0.55919289150049634 0.75 0 0 1 I I -0.70710678118654757 0.70710678118654757 0.75 forward I I I I #
loop $-1 $-1 $154 $43 #
coedge $-1 $96 $96 $155 $156 reversed $60 $-1 #
face $-1 $-1 $157 $34 $-1 $158 forward single #
loop $-1 $159 $160 $62 #
cone-surface $-1 57.207208734443725 -29.8425775026613 3.3153728964879576 0 0.82903758062907751 -0.55919289150049634 0.75 0 0 1 I I -0.70710678118654757 0.70710678118654757 0.75 forward I I I I #
loop $-1 $-1 $161 $44 #
coedge $-1 $101 $101 $162 $163 reversed $63 $-1 #
face $-1 $-1 $164 $35 $-1 $165 forward single #
loop $-1 $166 $167 $65 #
cone-surface $-1 64.230092576085923 -29.8425775026613 3.3153728964879576 0 0.82903758062907751 -0.55919289150049634 0.75 0 0 1 I I -0.70710678118654757 0.70710678118654757 0.75 forward I I I I #
loop $-1 $-1 $168 $45 #
coedge $-1 $106 $106 $169 $170 reversed $66 $-1 #
face $-1 $171 $172 $36 $-1 $173 reversed single #
loop $-1 $-1 $174 $68 #
plane-surface $-1 51.689778152066737 -10.328181770838199 59.073993862953643 0 0.7660444514056185 0.64278759981090561 1 0 0 forward_v I I I I #
coedge $-1 $175 $176 $177 $178 reversed $69 $-1 #
face $-1 $-1 $179 $37 $-1 $180 forward single #
loop $-1 $181 $182 $71 #
cone-surface $-1 41.356435960998354 29.771972574603865 3.2356590623931183 0 -0.7660444514056185 -0.64278759981090561 0.75 0 0 1 I I -0.70710678118654768 0.70710678118654735 0.75 forward I I I I #
loop $-1 $-1 $183 $47 #
coedge $-1 $115 $115 $184 $185 reversed $72 $-1 #
face $-1 $-1 $186 $38 $-1 $187 forward single #
loop $-1 $188 $189 $74 #
cone-surface $-1 51.689778152066737 29.771972574603865 3.2356590623931183 0 -0.7660444514056185 -0.64278759981090561 0.75 0 0 1 I I -0.70710678118654768 0.70710678118654735 0.75 forward I I I I #
loop $-1 $-1 $190 $48 #
coedge $-1 $120 $120 $191 $192 reversed $75 $-1 #
face $-1 $-1 $193 $39 $-1 $194 forward single #
loop $-1 $195 $196 $77 #
cone-surface $-1 62.023120343135105 29.771972574603865 3.2356590623931183 0 -0.7660444514056185 -0.64278759981090561 0.75 0 0 1 I I -0.70710678118654768 0.70710678118654735 0.75 forward I I I I #
loop $-1 $-1 $197 $49 #
coedge $-1 $125 $125 $198 $199 reversed $78 $-1 #
face $-1 $200 $201 $30 $-1 $202 reversed single #
loop $-1 $-1 $203 $80 #
plane-surface $-1 0 -36.1662419723977 0 0 1 0 0 0 1 forward_v I I I I #
coedge $-1 $204 $205 $206 $207 forward $81 $-1 #
coedge $-1 $208 $83 $209 $210 forward $51 $-1 #
coedge $-1 $83 $208 $211 $212 forward $51 $-1 #
coedge $-1 $213 $214 $83 $133 reversed $215 $-1 #
edge $-1 $216 -36.1662419723977 $217 36.1662419723977 $132 $218 forward 7 unknown #
face $-1 $219 $220 $31 $-1 $221 reversed single #
loop $-1 $-1 $222 $84 #
plane-surface $-1 -61.716343166827244 0 5.0747004292150493 -1 0 0 0 0 1 forward_v I I I I #
coedge $-1 $223 $224 $225 $226 forward $85 $-1 #
coedge $-1 $227 $87 $228 $229 reversed $54 $-1 #
coedge $-1 $87 $227 $230 $231 reversed $54 $-1 #
coedge $-1 $222 $232 $87 $141 reversed $135 $-1 #
edge $-1 $233 -36.1662419723977 $234 36.1662419723977 $140 $235 forward 7 unknown #
face $-1 $236 $237 $32 $-1 $238 reversed single #
loop $-1 $-1 $239 $88 #
plane-surface $-1 0 0 9.4583878279447262 0 0 1 1 0 0 forward_v I I I I #
coedge $-1 $240 $241 $242 $243 reversed $89 $-1 #
coedge $-1 $147 $91 $244 $245 reversed $57 $-1 #
coedge $-1 $91 $146 $240 $246 reversed $57 $-1 #
coedge $-1 $242 $247 $91 $149 forward $237 $-1 #
edge $-1 $248 30.360928637302472 $249 37.250901542124907 $148 $250 forward 7 unknown #
loop $-1 $-1 $155 $92 #
plane-surface $-1 57.207208734443725 -36.1662419723977 2.5684149231222904 0 -0.82903758062907751 0.55919289150049634 1 0 0 forward_v I I I I #
loop $-1 $-1 $251 $59 #
coedge $-1 $153 $153 $154 $252 reversed $93 $-1 #
coedge $-1 $154 $154 $153 $252 forward $95 $-1 #
coedge $-1 $155 $155 $96 $156 forward $150 $-1 #
edge $-1 $253 -4.9088885882343278e-016 $253 6.2831853071795996 $155 $254 forward 7 unknown #
loop $-1 $-1 $162 $97 #
plane-surface $-1 57.207208734443725 -36.1662419723977 2.5684149231222904 0 -0.82903758062907751 0.55919289150049634 1 0 0 forward_v I I I I #
loop $-1 $-1 $255 $62 #
coedge $-1 $160 $160 $161 $256 reversed $98 $-1 #
coedge $-1 $161 $161 $160 $256 forward $100 $-1 #
coedge $-1 $162 $162 $101 $163 forward $157 $-1 #
edge $-1 $257 -4.9088885882343278e-016 $257 6.2831853071795996 $162 $258 forward 7 unknown #
loop $-1 $-1 $169 $102 #
plane-surface $-1 57.207208734443725 -36.1662419723977 2.5684149231222904 0 -0.82903758062907751 0.55919289150049634 1 0 0 forward_v I I I I #
loop $-1 $-1 $259 $65 #
coedge $-1 $167 $167 $168 $260 reversed $103 $-1 #
coedge $-1 $168 $168 $167 $260 forward $105 $-1 #
coedge $-1 $169 $169 $106 $170 forward $164 $-1 #
edge $-1 $261 -4.9088885882343278e-016 $261 6.2831853071795996 $169 $262 forward 7 unknown #
face $-1 $263 $264 $36 $-1 $265 forward single #
loop $-1 $-1 $266 $107 #
plane-surface $-1 68.912015137180703 0 0 -1 0 0 0 0 1 forward_v I I I I #
coedge $-1 $267 $268 $269 $270 reversed $108 $-1 #
coedge $-1 $176 $110 $271 $272 reversed $69 $-1 #
coedge $-1 $110 $175 $267 $273 reversed $69 $-1 #
coedge $-1 $269 $274 $110 $178 forward $264 $-1 #
edge $-1 $275 11.459333973200472 $276 16.32132208181028 $177 $277 forward 7 unknown #
loop $-1 $-1 $184 $111 #
plane-surface $-1 51.689778152066737 -10.328181770838199 59.073993862953643 0 0.7660444514056185 0.64278759981090561 1 0 0 forward_v I I I I #
loop $-1 $-1 $278 $71 #
coedge $-1 $182 $182 $183 $279 reversed $112 $-1 #
coedge $-1 $183 $183 $182 $279 forward $114 $-1 #
coedge $-1 $184 $184 $115 $185 forward $179 $-1 #
edge $-1 $280 -2.2679471675649724e-015 $280 6.2831853071795978 $184 $281 forward 7 unknown #
loop $-1 $-1 $191 $116 #
plane-surface $-1 51.689778152066737 -10.328181770838199 59.073993862953643 0 0.7660444514056185 0.64278759981090561 1 0 0 forward_v I I I I #
loop $-1 $-1 $282 $74 #
coedge $-1 $189 $189 $190 $283 reversed $117 $-1 #
coedge $-1 $190 $190 $189 $283 forward $119 $-1 #
coedge $-1 $191 $191 $120 $192 forward $186 $-1 #
edge $-1 $284 -2.2679471675649724e-015 $284 6.2831853071795978 $191 $285 forward 7 unknown #
loop $-1 $-1 $198 $121 #
plane-surface $-1 51.689778152066737 -10.328181770838199 59.073993862953643 0 0.7660444514056185 0.64278759981090561 1 0 0 forward_v I I I I #
loop $-1 $-1 $286 $77 #
coedge $-1 $196 $196 $197 $287 reversed $122 $-1 #
coedge $-1 $197 $197 $196 $287 forward $124 $-1 #
coedge $-1 $198 $198 $125 $199 forward $193 $-1 #
edge $-1 $288 -2.2679471675649724e-015 $288 6.2831853071795978 $198 $289 forward 7 unknown #
face $-1 $290 $291 $30 $-1 $292 reversed single #
loop $-1 $-1 $293 $126 #
plane-surface $-1 -68.912015137180703 0 0 1 0 0 0 0 -1 forward_v I I I I #
coedge $-1 $294 $211 $295 $296 forward $127 $-1 #
coedge $-1 $297 $129 $294 $298 forward $81 $-1 #
coedge $-1 $129 $297 $299 $300 forward $81 $-1 #
coedge $-1 $214 $213 $129 $207 reversed $215 $-1 #
edge $-1 $301 -36.1662419723977 $302 36.1662419723977 $206 $303 forward 7 unknown #
coedge $-1 $131 $130 $304 $305 forward $51 $-1 #
coedge $-1 $306 $307 $130 $210 reversed $291 $-1 #
edge $-1 $217 -68.912015137180703 $308 68.912015137180703 $209 $309 forward 7 unknown #
coedge $-1 $203 $310 $131 $212 reversed $127 $-1 #
edge $-1 $311 -68.912015137180703 $216 68.912015137180703 $211 $312 forward 7 unknown #
coedge $-1 $206 $132 $310 $313 forward $215 $-1 #
coedge $-1 $132 $206 $306 $314 reversed $215 $-1 #
loop $-1 $-1 $213 $290 #
vertex $-1 $133 $315 #
vertex $-1 $133 $316 #
straight-curve $-1 68.912015137180703 0 9.4583878279447262 0 1 0 I I #
face $-1 $317 $318 $31 $-1 $319 reversed single #
loop $-1 $-1 $320 $134 #
plane-surface $-1 0 -36.1662419723977 0 0 1 0 0 0 1 forward_v I I I I #
coedge $-1 $225 $140 $321 $322 reversed $135 $-1 #
coedge $-1 $323 $137 $320 $324 reversed $85 $-1 #
coedge $-1 $137 $323 $325 $326 reversed $85 $-1 #
coedge $-1 $232 $222 $137 $226 reversed $135 $-1 #
edge $-1 $327 -36.1662419723977 $328 36.1662419723977 $225 $329 forward 7 unknown #
coedge $-1 $139 $138 $330 $331 reversed $54 $-1 #
coedge $-1 $332 $333 $138 $229 forward $334 $-1 #
edge $-1 $335 -36.254925561178716 $234 -29.059253590825257 $228 $336 forward 7 unknown #
coedge $-1 $337 $321 $139 $231 forward $220 $-1 #
edge $-1 $233 29.059253590825257 $338 36.254925561178716 $230 $339 forward 7 unknown #
coedge $-1 $140 $225 $332 $340 reversed $135 $-1 #
vertex $-1 $231 $341 #
vertex $-1 $229 $342 #
straight-curve $-1 -61.716343166827244 0 6.7377336575587483 0 1 0 I I #
face $-1 $-1 $343 $32 $-1 $344 reversed single #
loop $-1 $-1 $148 $142 #
plane-surface $-1 0 -36.1662419723977 0 0 1 0 0 0 1 forward_v I I I I #
coedge $-1 $244 $345 $346 $347 forward $143 $-1 #
coedge $-1 $346 $145 $147 $246 forward $89 $-1 #
coedge $-1 $145 $346 $348 $349 reversed $89 $-1 #
coedge $-1 $350 $148 $145 $243 forward $237 $-1 #
edge $-1 $249 16.898797964484885 $351 40.30841076995884 $242 $352 forward 7 unknown #
coedge $-1 $353 $239 $146 $245 forward $143 $-1 #
edge $-1 $354 -43.694874579776915 $248 -39.047529319403807 $244 $355 forward 7 unknown #
edge $-1 $249 0 $354 8.3108089015630551 $147 $356 forward 7 unknown #
coedge $-1 $148 $350 $353 $357 reversed $237 $-1 #
vertex $-1 $357 $358 #
vertex $-1 $149 $359 #
straight-curve $-1 45.502402331706747 -36.1662419723977 39.819316465247198 0 0 -1 I I #
coedge $-1 $251 $251 $-1 $360 reversed $152 $-1 #
edge $-1 $361 0 $361 6.2831853071796004 $153 $362 forward 7 unknown #
vertex $-1 $156 $363 #
ellipse-curve $-1 50.184324892801541 -33.842569342211149 6.013401375533503 0 -0.82903758062907751 0.55919289150049634 1.5 0 0 1 I I #
coedge $-1 $255 $255 $-1 $364 reversed $159 $-1 #
edge $-1 $365 0 $365 6.2831853071796004 $160 $366 forward 7 unknown #
vertex $-1 $163 $367 #
ellipse-curve $-1 57.207208734443725 -33.842569342211149 6.013401375533503 0 -0.82903758062907751 0.55919289150049634 1.5 0 0 1 I I #
coedge $-1 $259 $259 $-1 $368 reversed $166 $-1 #
edge $-1 $369 0 $369 6.2831853071796004 $167 $370 forward 7 unknown #
vertex $-1 $170 $371 #
ellipse-curve $-1 64.230092576085923 -33.842569342211149 6.013401375533503 0 -0.82903758062907751 0.55919289150049634 1.5 0 0 1 I I #
face $-1 $-1 $372 $36 $-1 $373 reversed single #
loop $-1 $-1 $269 $171 #
plane-surface $-1 0 0 9.4583878279447262 0 0 1 1 0 0 forward_v I I I I #
coedge $-1 $374 $375 $268 $376 forward $172 $-1 #
coedge $-1 $377 $174 $176 $273 forward $108 $-1 #
coedge $-1 $174 $377 $266 $376 reversed $108 $-1 #
coedge $-1 $378 $177 $174 $270 forward $264 $-1 #
edge $-1 $276 8.6226520909194022 $379 43.067126061147334 $269 $380 forward 7 unknown #
coedge $-1 $381 $382 $175 $272 forward $372 $-1 #
edge $-1 $383 -70.168689858980855 $275 -64.374397911693279 $271 $384 forward 7 unknown #
edge $-1 $276 64.768573082109043 $383 72.332483944795413 $176 $385 forward 7 unknown #
coedge $-1 $177 $378 $381 $386 forward $264 $-1 #
vertex $-1 $272 $387 #
vertex $-1 $178 $388 #
straight-curve $-1 34.46754116695277 47.625575945598172 9.4583878279447333 0 -1 0 I I #
coedge $-1 $278 $278 $-1 $389 reversed $181 $-1 #
edge $-1 $390 0 $390 6.2831853071796004 $182 $391 forward 7 unknown #
vertex $-1 $185 $392 #
ellipse-curve $-1 41.356435960998354 33.735247918092796 6.5612418543009348 0 0.7660444514056185 0.64278759981090561 1.5 0 0 1 I I #
coedge $-1 $282 $282 $-1 $393 reversed $188 $-1 #
edge $-1 $394 0 $394 6.2831853071796004 $189 $395 forward 7 unknown #
vertex $-1 $192 $396 #
ellipse-curve $-1 51.689778152066737 33.735247918092796 6.5612418543009348 0 0.7660444514056185 0.64278759981090561 1.5 0 0 1 I I #
coedge $-1 $286 $286 $-1 $397 reversed $195 $-1 #
edge $-1 $398 0 $398 6.2831853071796004 $196 $399 forward 7 unknown #
vertex $-1 $199 $400 #
ellipse-curve $-1 62.023120343135105 33.735247918092796 6.5612418543009348 0 0.7660444514056185 0.64278759981090561 1.5 0 0 1 I I #
face $-1 $-1 $215 $30 $-1 $401 reversed single #
loop $-1 $-1 $306 $200 #
plane-surface $-1 0 36.1662419723977 0 0 -1 0 0 0 -1 forward_v I I I I #
coedge $-1 $402 $304 $307 $403 forward $201 $-1 #
coedge $-1 $310 $203 $204 $298 reversed $127 $-1 #
coedge $-1 $304 $402 $203 $296 reversed $201 $-1 #
edge $-1 $311 -9.4583878279447262 $404 9.4583878279447262 $295 $405 forward 7 unknown #
coedge $-1 $205 $204 $402 $406 forward $81 $-1 #
edge $-1 $302 -68.912015137180703 $404 68.912015137180703 $294 $407 forward 7 unknown #
coedge $-1 $307 $306 $205 $300 reversed $291 $-1 #
edge $-1 $408 -68.912015137180703 $301 68.912015137180703 $299 $409 forward 7 unknown #
vertex $-1 $207 $410 #
vertex $-1 $313 $411 #
straight-curve $-1 68.912015137180703 0 -9.4583878279447262 0 -1 0 I I #
coedge $-1 $293 $295 $208 $305 reversed $201 $-1 #
edge $-1 $308 -36.1662419723977 $311 36.1662419723977 $304 $412 forward 7 unknown #
coedge $-1 $299 $209 $214 $314 forward $291 $-1 #
coedge $-1 $209 $299 $293 $403 reversed $291 $-1 #
vertex $-1 $210 $413 #
straight-curve $-1 0 36.1662419723977 9.4583878279447262 -1 0 0 I I #
coedge $-1 $211 $294 $213 $313 reversed $127 $-1 #
vertex $-1 $305 $414 #
straight-curve $-1 0 -36.1662419723977 9.4583878279447262 1 0 0 I I #
edge $-1 $216 -9.4583878279447262 $302 9.4583878279447262 $213 $415 forward 7 unknown #
edge $-1 $217 -9.4583878279447262 $301 9.4583878279447262 $214 $416 forward 7 unknown #
point $-1 68.912015137180703 -36.1662419723977 9.4583878279447262 #
point $-1 68.912015137180703 36.1662419723977 9.4583878279447262 #
face $-1 $-1 $334 $31 $-1 $417 reversed single #
loop $-1 $-1 $418 $219 #
plane-surface $-1 -68.912015137180703 0 0 1 0 0 0 0 -1 forward_v I I I I #
coedge $-1 $321 $337 $223 $324 forward $220 $-1 #
coedge $-1 $230 $320 $222 $322 forward $220 $-1 #
edge $-1 $328 0.87431698626382559 $233 4.2003834429512237 $321 $419 forward 7 unknown #
coedge $-1 $224 $223 $418 $420 reversed $85 $-1 #
edge $-1 $421 -36.254925561178716 $328 -29.059253590825257 $320 $422 forward 7 unknown #
coedge $-1 $333 $332 $224 $326 forward $334 $-1 #
edge $-1 $327 29.059253590825257 $423 36.254925561178716 $325 $424 forward 7 unknown #
vertex $-1 $326 $425 #
vertex $-1 $324 $426 #
straight-curve $-1 -61.716343166827244 0 3.4116672008713502 0 -1 0 I I #
coedge $-1 $427 $428 $227 $331 forward $318 $-1 #
edge $-1 $338 -36.1662419723977 $335 36.1662419723977 $330 $429 forward 7 unknown #
coedge $-1 $325 $228 $232 $340 forward $334 $-1 #
coedge $-1 $228 $325 $427 $430 reversed $334 $-1 #
loop $-1 $-1 $325 $317 #
vertex $-1 $430 $431 #
straight-curve $-1 -32.657089576001987 36.1662419723977 6.7377336575587483 1 0 0 I I #
coedge $-1 $320 $230 $428 $432 forward $220 $-1 #
vertex $-1 $432 $433 #
straight-curve $-1 -32.657089576001987 -36.1662419723977 6.7377336575587483 -1 0 0 I I #
edge $-1 $234 -4.2003834429512237 $327 -0.87431698626382559 $332 $434 forward 7 unknown #
point $-1 -61.716343166827244 -36.1662419723977 6.7377336575587483 #
point $-1 -61.716343166827244 36.1662419723977 6.7377336575587483 #
loop $-1 $-1 $348 $236 #
plane-surface $-1 68.912015137180703 0 0 -1 0 0 0 0 1 forward_v I I I I #
coedge $-1 $239 $353 $435 $436 forward $143 $-1 #
coedge $-1 $241 $240 $239 $347 reversed $89 $-1 #
edge $-1 $437 -40.30841076995884 $354 -16.898797964484885 $239 $438 forward 7 unknown #
coedge $-1 $435 $439 $241 $349 forward $343 $-1 #
edge $-1 $351 -9.0472964646673812 $437 -0.73648756310432606 $348 $440 forward 7 unknown #
coedge $-1 $247 $242 $439 $441 reversed $237 $-1 #
vertex $-1 $243 $442 #
straight-curve $-1 28.603604367221863 -36.1662419723977 2.5684149231222886 1 0 0 I I #
coedge $-1 $345 $244 $247 $357 forward $143 $-1 #
vertex $-1 $245 $443 #
straight-curve $-1 45.502402331706747 -75.213771291801507 9.4583878279447262 0 -1 0 I I #
straight-curve $-1 45.502402331706747 -36.1662419723977 2.5684149231222904 0 0.55919289150049634 0.82903758062907751 I I #
edge $-1 $248 45.502402331706747 $444 68.912015137180703 $247 $445 forward 7 unknown #
point $-1 45.502402331706747 -36.1662419723977 9.4583878279447262 #
point $-1 45.502402331706747 -36.1662419723977 2.5684149231222904 #
edge $-1 $446 1 $446 0 $251 $-1 forward 7 unknown #
vertex $-1 $252 $447 #
ellipse-curve $-1 50.184324892801541 -30.464355688133107 3.7347675651133301 0 -0.82903758062907751 0.55919289150049634 1.5 0 0 1 I I #
point $-1 51.684324892801541 -33.842569342211149 6.0134013755335021 #
edge $-1 $448 1 $448 0 $255 $-1 forward 7 unknown #
vertex $-1 $256 $449 #
ellipse-curve $-1 57.207208734443725 -30.464355688133107 3.7347675651133301 0 -0.82903758062907751 0.55919289150049634 1.5 0 0 1 I I #
point $-1 58.707208734443725 -33.842569342211149 6.0134013755335021 #
edge $-1 $450 1 $450 0 $259 $-1 forward 7 unknown #
vertex $-1 $260 $451 #
ellipse-curve $-1 64.230092576085923 -30.464355688133107 3.7347675651133301 0 -0.82903758062907751 0.55919289150049634 1.5 0 0 1 I I #
point $-1 65.730092576085923 -33.842569342211149 6.0134013755335021 #
loop $-1 $-1 $271 $263 #
plane-surface $-1 0 36.1662419723977 0 0 -1 0 0 0 -1 forward_v I I I I #
coedge $-1 $375 $266 $452 $453 reversed $172 $-1 #
coedge $-1 $266 $374 $378 $454 reversed $172 $-1 #
edge $-1 $379 38.822506886122511 $455 46.386417748808881 $266 $456 forward 7 unknown #
coedge $-1 $268 $267 $382 $457 reversed $108 $-1 #
coedge $-1 $274 $269 $375 $454 forward $264 $-1 #
vertex $-1 $454 $458 #
straight-curve $-1 25.844889076033368 31.304253863787888 9.4583878279447262 1 0 0 I I #
coedge $-1 $452 $271 $274 $386 reversed $372 $-1 #
coedge $-1 $271 $452 $377 $457 forward $372 $-1 #
vertex $-1 $272 $459 #
straight-curve $-1 34.46754116695277 36.1662419723977 73.832785739637998 0 0 1 I I #
straight-curve $-1 34.46754116695277 -10.328181770838199 59.073993862953643 0 0.64278759981090561 -0.7660444514056185 I I #
edge $-1 $460 -68.912015137180703 $275 -34.46754116695277 $381 $461 forward 7 unknown #
point $-1 34.46754116695277 36.1662419723977 9.4583878279447262 #
point $-1 34.46754116695277 31.304253863787892 9.4583878279447262 #
edge $-1 $462 1 $462 0 $278 $-1 forward 7 unknown #
vertex $-1 $279 $463 #
ellipse-curve $-1 41.356435960998354 30.346505913158079 3.7177497622512972 0 0.7660444514056185 0.64278759981090561 1.5 0 0 1 I I #
point $-1 42.856435960998354 33.735247918092796 6.5612418543009392 #
edge $-1 $464 1 $464 0 $282 $-1 forward 7 unknown #
vertex $-1 $283 $465 #
ellipse-curve $-1 51.689778152066737 30.346505913158079 3.7177497622512972 0 0.7660444514056185 0.64278759981090561 1.5 0 0 1 I I #
point $-1 53.189778152066737 33.735247918092796 6.5612418543009392 #
edge $-1 $466 1 $466 0 $286 $-1 forward 7 unknown #
vertex $-1 $287 $467 #
ellipse-curve $-1 62.023120343135105 30.346505913158079 3.7177497622512972 0 0.7660444514056185 0.64278759981090561 1.5 0 0 1 I I #
point $-1 63.523120343135105 33.735247918092796 6.5612418543009392 #
plane-surface $-1 68.912015137180703 0 0 -1 0 0 0 0 1 forward_v I I I I #
coedge $-1 $295 $293 $297 $406 reversed $201 $-1 #
edge $-1 $308 -9.4583878279447262 $408 9.4583878279447262 $307 $468 forward 7 unknown #
vertex $-1 $406 $469 #
straight-curve $-1 -68.912015137180703 -36.1662419723977 0 0 0 -1 I I #
edge $-1 $404 -36.1662419723977 $408 36.1662419723977 $402 $470 forward 7 unknown #
straight-curve $-1 0 -36.1662419723977 -9.4583878279447262 -1 0 0 I I #
vertex $-1 $300 $471 #
straight-curve $-1 0 36.1662419723977 -9.4583878279447262 1 0 0 I I #
point $-1 68.912015137180703 36.1662419723977 -9.4583878279447262 #
point $-1 68.912015137180703 -36.1662419723977 -9.4583878279447262 #
straight-curve $-1 -68.912015137180703 0 9.4583878279447262 0 -1 0 I I #
point $-1 -68.912015137180703 36.1662419723977 9.4583878279447262 #
point $-1 -68.912015137180703 -36.1662419723977 9.4583878279447262 #
straight-curve $-1 68.912015137180703 -36.1662419723977 0 0 0 -1 I I #
straight-curve $-1 68.912015137180703 36.1662419723977 0 0 0 -1 I I #
plane-surface $-1 0 36.1662419723977 0 0 -1 0 0 0 -1 forward_v I I I I #
coedge $-1 $428 $427 $323 $420 forward $318 $-1 #
straight-curve $-1 -61.716343166827244 -36.1662419723977 2.5373502146075246 0 0 1 I I #
edge $-1 $423 -36.1662419723977 $421 36.1662419723977 $418 $472 forward 7 unknown #
vertex $-1 $324 $473 #
straight-curve $-1 -32.657089576001987 -36.1662419723977 3.4116672008713502 1 0 0 I I #
vertex $-1 $326 $474 #
straight-curve $-1 -32.657089576001987 36.1662419723977 3.4116672008713502 -1 0 0 I I #
point $-1 -61.716343166827244 36.1662419723977 3.4116672008713502 #
point $-1 -61.716343166827244 -36.1662419723977 3.4116672008713502 #
coedge $-1 $418 $330 $333 $430 forward $318 $-1 #
coedge $-1 $330 $418 $337 $432 reversed $318 $-1 #
straight-curve $-1 -68.912015137180703 0 6.7377336575587483 0 1 0 I I #
edge $-1 $335 -6.7377336575587483 $423 -3.4116672008713502 $333 $475 forward 7 unknown #
point $-1 -68.912015137180703 36.1662419723977 6.7377336575587483 #
edge $-1 $338 -6.7377336575587483 $421 -3.4116672008713502 $428 $476 forward 7 unknown #
point $-1 -68.912015137180703 -36.1662419723977 6.7377336575587483 #
straight-curve $-1 -61.716343166827244 36.1662419723977 2.5373502146075246 0 0 -1 I I #
coedge $-1 $439 $348 $345 $436 reversed $343 $-1 #
edge $-1 $444 -36.1662419723977 $437 -31.518896712024592 $435 $477 forward 7 unknown #
vertex $-1 $349 $478 #
straight-curve $-1 28.603604367221863 -31.518896712024596 9.4583878279447262 -1 0 0 I I #
coedge $-1 $348 $435 $350 $441 forward $343 $-1 #
straight-curve $-1 68.912015137180703 -31.107058102058129 10.068963695424141 0 0.55919289150049634 0.82903758062907751 I I #
edge $-1 $444 -9.4583878279447262 $351 -2.5684149231222904 $439 $479 forward 7 unknown #
point $-1 68.912015137180703 -36.1662419723977 2.5684149231222904 #
point $-1 45.502402331706747 -31.518896712024592 9.4583878279447262 #
vertex $-1 $436 $480 #
straight-curve $-1 0 -36.1662419723977 9.4583878279447262 1 0 0 I I #
vertex $-1 $360 $481 #
point $-1 51.684324892801541 -30.464355688133107 3.7347675651133301 #
vertex $-1 $364 $482 #
point $-1 58.707208734443725 -30.464355688133107 3.7347675651133301 #
vertex $-1 $368 $483 #
point $-1 65.730092576085923 -30.464355688133107 3.7347675651133301 #
coedge $-1 $382 $381 $374 $453 forward $372 $-1 #
edge $-1 $460 -9.4583878279447262 $455 -3.6640958806571433 $374 $484 forward 7 unknown #
edge $-1 $379 31.304253863787892 $460 36.1662419723977 $375 $485 forward 7 unknown #
vertex $-1 $376 $486 #
straight-curve $-1 68.912015137180703 6.349627843814849 39.198153817715287 0 0.64278759981090572 -0.76604445140561861 I I #
edge $-1 $455 -43.067126061147334 $383 -8.6226520909194022 $382 $487 forward 7 unknown #
point $-1 68.912015137180703 31.304253863787892 9.4583878279447262 #
point $-1 34.46754116695277 36.1662419723977 3.6640958806571433 #
vertex $-1 $454 $488 #
straight-curve $-1 0 36.1662419723977 9.4583878279447262 -1 0 0 I I #
vertex $-1 $389 $489 #
point $-1 42.856435960998354 30.346505913158079 3.7177497622512972 #
vertex $-1 $393 $490 #
point $-1 53.189778152066737 30.346505913158079 3.7177497622512972 #
vertex $-1 $397 $491 #
point $-1 63.523120343135105 30.346505913158079 3.7177497622512972 #
straight-curve $-1 -68.912015137180703 36.1662419723977 0 0 0 -1 I I #
point $-1 -68.912015137180703 -36.1662419723977 -9.4583878279447262 #
straight-curve $-1 -68.912015137180703 0 -9.4583878279447262 0 1 0 I I #
point $-1 -68.912015137180703 36.1662419723977 -9.4583878279447262 #
straight-curve $-1 -68.912015137180703 0 3.4116672008713502 0 -1 0 I I #
point $-1 -68.912015137180703 -36.1662419723977 3.4116672008713502 #
point $-1 -68.912015137180703 36.1662419723977 3.4116672008713502 #
straight-curve $-1 -68.912015137180703 36.1662419723977 0 0 0 -1 I I #
straight-curve $-1 -68.912015137180703 -36.1662419723977 0 0 0 -1 I I #
straight-curve $-1 68.912015137180703 0 9.4583878279447262 0 1 0 I I #
point $-1 68.912015137180703 -31.518896712024592 9.4583878279447262 #
straight-curve $-1 68.912015137180703 -36.1662419723977 0 0 0 -1 I I #
point $-1 68.912015137180703 -36.1662419723977 9.4583878279447262 #
point $-1 50.184324892801541 -29.220799317189492 2.8959782278625852 #
point $-1 57.207208734443725 -29.220799317189492 2.8959782278625852 #
point $-1 64.230092576085923 -29.220799317189492 2.8959782278625852 #
straight-curve $-1 68.912015137180703 36.1662419723977 0 0 0 -1 I I #
straight-curve $-1 68.912015137180703 0 9.4583878279447262 0 1 0 I I #
point $-1 68.912015137180703 36.1662419723977 3.6640958806571433 #
straight-curve $-1 25.844889076033368 36.166241972397692 3.664095880657154 -1 0 0 I I #
point $-1 68.912015137180703 36.1662419723977 9.4583878279447262 #
point $-1 41.356435960998354 29.19743923604965 2.7535683625349394 #
point $-1 51.689778152066737 29.19743923604965 2.7535683625349394 #
point $-1 62.023120343135105 29.19743923604965 2.7535683625349394 #
End-of-ACIS-data 