500 0 8 0           
7 Unknown 11 ACIS 5.0 NT 24 Thu Mar 25 22:38:10 1999 
-1 9.9999999999999995e-007 1e-010 
body $-1 $8 $-1 $9 #
body $-1 $10 $-1 $11 #
body $-1 $12 $-1 $13 #
body $-1 $14 $-1 $15 #
body $-1 $16 $-1 $17 #
body $-1 $18 $-1 $19 #
body $-1 $20 $-1 $21 #
body $-1 $22 $-1 $23 #
lump $-1 $-1 $24 $0 #
transform $-1 1 0 0 0 1 0 0 0 1 69.524826807458723 31.690904285211424 6.6204946166435068 1 rotate no_reflect no_shear #
lump $-1 $-1 $25 $1 #
transform $-1 1 0 0 0 1 0 0 0 1 69.524826807458723 31.690904285211424 6.6204946166435068 1 rotate no_reflect no_shear #
lump $-1 $-1 $26 $2 #
transform $-1 1 0 0 0 1 0 0 0 1 69.524826807458723 31.690904285211424 6.6204946166435068 1 rotate no_reflect no_shear #
lump $-1 $-1 $27 $3 #
transform $-1 1 0 0 0 1 0 0 0 1 69.524826807458723 31.690904285211424 6.6204946166435068 1 rotate no_reflect no_shear #
lump $-1 $-1 $28 $4 #
transform $-1 1 0 0 0 1 0 0 0 1 69.524826807458723 31.690904285211424 6.6204946166435068 1 rotate no_reflect no_shear #
lump $-1 $-1 $29 $5 #
transform $-1 1 0 0 0 1 0 0 0 1 69.524826807458723 31.690904285211424 6.6204946166435068 1 rotate no_reflect no_shear #
lump $-1 $-1 $30 $6 #
transform $-1 1 0 0 0 1 0 0 0 1 69.524826807458723 31.690904285211424 6.6204946166435068 1 rotate no_reflect no_shear #
lump $-1 $-1 $31 $7 #
transform $-1 1 0 0 0 1 0 0 0 1 69.524826807458723 31.690904285211424 6.6204946166435068 1 rotate no_reflect no_shear #
shell $-1 $-1 $-1 $32 $-1 $8 #
shell $-1 $-1 $-1 $33 $-1 $10 #
shell $-1 $-1 $-1 $34 $-1 $12 #
shell $-1 $-1 $-1 $35 $-1 $14 #
shell $-1 $-1 $-1 $36 $-1 $16 #
shell $-1 $-1 $-1 $37 $-1 $18 #
shell $-1 $-1 $-1 $38 $-1 $20 #
shell $-1 $-1 $-1 $39 $-1 $22 #
face $-1 $40 $41 $24 $-1 $42 forward single #
face $-1 $43 $44 $25 $-1 $45 forward single #
face $-1 $46 $47 $26 $-1 $48 reversed single #
face $-1 $49 $50 $27 $-1 $51 forward single #
face $-1 $52 $53 $28 $-1 $54 reversed single #
face $-1 $55 $56 $29 $-1 $57 forward single #
face $-1 $58 $59 $30 $-1 $60 reversed single #
face $-1 $61 $62 $31 $-1 $63 forward single #
face $-1 $64 $65 $24 $-1 $66 reversed single #
loop $-1 $-1 $67 $32 #
plane-surface $-1 0 0 6.6204946166435068 0 0 1 1 0 0 forward_v I I I I #
face $-1 $68 $69 $25 $-1 $70 reversed single #
loop $-1 $-1 $71 $33 #
plane-surface $-1 0 -31.690904285211424 0 0 1 0 0 0 1 forward_v I I I I #
face $-1 $72 $73 $26 $-1 $74 reversed single #
loop $-1 $-1 $75 $34 #
plane-surface $-1 35.377625335028199 4.6279262003875417 196.95008325000737 0 -1 0 -0.57357644374324357 0 -0.81915203911291934 forward_v I I I I #
face $-1 $76 $77 $27 $-1 $78 forward single #
loop $-1 $79 $80 $35 #
cone-surface $-1 66.148736683589178 -0.011913156013786619 3.529272366516981 -0.57357644374324357 0 -0.81915203911291934 0.81915203911291934 0 -0.57357644374324357 1 I I 0 1 1 forward I I I I #
face $-1 $81 $82 $28 $-1 $83 reversed single #
loop $-1 $-1 $84 $36 #
plane-surface $-1 -167.84778094100452 -7.3088166931306162 100.21612348077225 0 1 0 -0.70710678939079041 0 0.70710677298230451 forward_v I I I I #
face $-1 $85 $86 $29 $-1 $87 forward single #
loop $-1 $88 $89 $37 #
cone-surface $-1 -65.484799829486619 -2.1297680606072404 2.5804676227226304 0.70710678939079041 0 -0.70710677298230451 1.0606601594734568 0 1.0606601840861856 1 I I 0 1 1.5 forward I I I I #
face $-1 $90 $91 $30 $-1 $92 reversed single #
loop $-1 $-1 $93 $38 #
plane-surface $-1 -69.524826807458723 -2.1297680606072404 1.8931716288207525 -0.70710678939079041 0 0.70710677298230451 0.70710677298230451 0 0.70710678939079041 forward_v I I I I #
face $-1 $94 $95 $31 $-1 $96 forward single #
loop $-1 $97 $98 $39 #
cone-surface $-1 -65.484799829486619 8.2283292044395111 2.5804676227226304 0.70710678939079041 0 -0.70710677298230451 1.0606601594734568 0 1.0606601840861856 1 I I 0 1 1.5 forward I I I I #
face $-1 $99 $100 $24 $-1 $101 reversed single #
loop $-1 $-1 $102 $40 #
plane-surface $-1 0 0 -6.6204946166435068 0 0 1 1 0 0 forward_v I I I I #
coedge $-1 $103 $104 $105 $106 forward $41 $-1 #
face $-1 $107 $108 $25 $-1 $109 reversed single #
loop $-1 $-1 $110 $43 #
plane-surface $-1 0 0 -6.6204946166435068 0 0 1 1 0 0 forward_v I I I I #
coedge $-1 $111 $112 $113 $114 forward $44 $-1 #
face $-1 $115 $116 $26 $-1 $117 reversed single #
loop $-1 $-1 $118 $46 #
plane-surface $-1 -44.377980489145997 -0.011913156013786619 83.047275953402632 0.57357644374324357 0 0.81915203911291934 0.81915203911291934 0 -0.57357644374324357 forward_v I I I I #
coedge $-1 $119 $120 $121 $122 reversed $47 $-1 #
face $-1 $-1 $123 $27 $-1 $124 forward single #
loop $-1 $125 $126 $49 #
cone-surface $-1 64.862885320441208 -0.011913156013786619 1.6928863405415395 -0.57357644374324357 0 -0.81915203911291934 0.40957601955645967 0 -0.28678822187162178 1 I I -0.70710678118654746 0.70710678118654746 0.5 forward I I I I #
loop $-1 $-1 $127 $35 #
coedge $-1 $80 $80 $128 $129 reversed $50 $-1 #
face $-1 $130 $131 $28 $-1 $132 reversed single #
loop $-1 $-1 $133 $52 #
plane-surface $-1 -69.524826807458723 -2.1297680606072404 1.8931716288207525 -0.70710678939079041 0 0.70710677298230451 0.70710677298230451 0 0.70710678939079041 forward_v I I I I #
coedge $-1 $134 $135 $136 $137 reversed $53 $-1 #
face $-1 $-1 $138 $29 $-1 $139 forward single #
loop $-1 $140 $141 $55 #
cone-surface $-1 -63.278104198533789 -2.1297680606072404 0.3737720429763991 0.70710678939079041 0 -0.70710677298230451 0.53033007973672841 0 0.53033009204309278 1 I I -0.70710678118654757 0.70710678118654757 0.75 forward I I I I #
loop $-1 $-1 $142 $37 #
coedge $-1 $89 $89 $143 $144 reversed $56 $-1 #
face $-1 $145 $146 $30 $-1 $147 forward single #
loop $-1 $-1 $148 $58 #
plane-surface $-1 -167.84778094100452 13.407377836962887 100.21612348077225 0 -1 0 0.70710678939079041 0 -0.70710677298230451 forward_v I I I I #
coedge $-1 $149 $150 $151 $152 reversed $59 $-1 #
face $-1 $-1 $153 $31 $-1 $154 forward single #
loop $-1 $155 $156 $61 #
cone-surface $-1 -63.278104198533789 8.2283292044395111 0.3737720429763991 0.70710678939079041 0 -0.70710677298230451 0.53033007973672841 0 0.53033009204309278 1 I I -0.70710678118654757 0.70710678118654757 0.75 forward I I I I #
loop $-1 $-1 $157 $39 #
coedge $-1 $98 $98 $158 $159 reversed $62 $-1 #
face $-1 $160 $161 $24 $-1 $162 reversed single #
loop $-1 $-1 $163 $64 #
plane-surface $-1 0 -31.690904285211424 0 0 1 0 0 0 1 forward_v I I I I #
coedge $-1 $164 $165 $166 $167 forward $65 $-1 #
coedge $-1 $168 $67 $169 $170 forward $41 $-1 #
coedge $-1 $67 $168 $171 $172 forward $41 $-1 #
coedge $-1 $173 $174 $67 $106 reversed $175 $-1 #
edge $-1 $176 -31.690904285211424 $177 31.690904285211424 $105 $178 forward 7 unknown #
face $-1 $179 $180 $25 $-1 $181 forward single #
loop $-1 $-1 $182 $68 #
plane-surface $-1 69.524826807458723 0 0 -1 0 0 0 0 1 forward_v I I I I #
coedge $-1 $183 $184 $185 $186 forward $69 $-1 #
coedge $-1 $185 $71 $182 $187 reversed $44 $-1 #
coedge $-1 $71 $185 $188 $189 reversed $44 $-1 #
coedge $-1 $190 $191 $71 $114 reversed $180 $-1 #
edge $-1 $192 -69.524826807458723 $193 69.524826807458723 $113 $194 forward 7 unknown #
face $-1 $195 $196 $26 $-1 $197 reversed single #
loop $-1 $-1 $198 $72 #
plane-surface $-1 35.377625335028199 -4.6517525124151149 196.95008325000737 0 1 0 0.57357644374324357 0 0.81915203911291934 forward_v I I I I #
coedge $-1 $199 $200 $201 $202 reversed $73 $-1 #
coedge $-1 $120 $75 $203 $204 reversed $47 $-1 #
coedge $-1 $75 $119 $199 $205 reversed $47 $-1 #
coedge $-1 $201 $206 $75 $122 forward $207 $-1 #
edge $-1 $208 -51.836014139944623 $209 -47.081960174758237 $121 $210 forward 7 unknown #
loop $-1 $-1 $128 $76 #
plane-surface $-1 -44.377980489145997 -0.011913156013786619 83.047275953402632 0.57357644374324357 0 0.81915203911291934 0.81915203911291934 0 -0.57357644374324357 forward_v I I I I #
loop $-1 $-1 $211 $49 #
coedge $-1 $126 $126 $127 $212 reversed $77 $-1 #
coedge $-1 $127 $127 $126 $212 forward $79 $-1 #
coedge $-1 $128 $128 $80 $129 forward $123 $-1 #
edge $-1 $213 0 $213 6.2831853071796004 $128 $214 forward 7 unknown #
face $-1 $215 $216 $28 $-1 $217 forward single #
loop $-1 $-1 $218 $81 #
plane-surface $-1 -167.84778094100452 3.0492805719161353 100.21612348077225 0 -1 0 0.70710678939079041 0 -0.70710677298230451 forward_v I I I I #
coedge $-1 $219 $220 $221 $222 reversed $82 $-1 #
coedge $-1 $135 $84 $223 $224 reversed $53 $-1 #
coedge $-1 $84 $134 $219 $225 reversed $53 $-1 #
coedge $-1 $221 $226 $84 $137 forward $216 $-1 #
edge $-1 $227 14.399063663043535 $228 19.126386541168273 $136 $229 forward 7 unknown #
loop $-1 $-1 $143 $85 #
plane-surface $-1 -69.524826807458723 -2.1297680606072404 1.8931716288207525 -0.70710678939079041 0 0.70710677298230451 0.70710677298230451 0 0.70710678939079041 forward_v I I I I #
loop $-1 $-1 $230 $55 #
coedge $-1 $141 $141 $142 $231 reversed $86 $-1 #
coedge $-1 $142 $142 $141 $231 forward $88 $-1 #
coedge $-1 $143 $143 $89 $144 forward $138 $-1 #
edge $-1 $232 0 $232 6.2831853071796004 $143 $233 forward 7 unknown #
face $-1 $234 $235 $30 $-1 $236 forward single #
loop $-1 $-1 $237 $90 #
plane-surface $-1 0 0 6.6204946166435068 0 0 1 1 0 0 forward_v I I I I #
coedge $-1 $238 $239 $240 $241 reversed $91 $-1 #
coedge $-1 $242 $93 $243 $244 reversed $59 $-1 #
coedge $-1 $93 $242 $237 $245 reversed $59 $-1 #
coedge $-1 $246 $247 $93 $152 forward $235 $-1 #
edge $-1 $248 0 $249 6.6854442055288326 $151 $250 forward 7 unknown #
loop $-1 $-1 $158 $94 #
plane-surface $-1 -69.524826807458723 -2.1297680606072404 1.8931716288207525 -0.70710678939079041 0 0.70710677298230451 0.70710677298230451 0 0.70710678939079041 forward_v I I I I #
loop $-1 $-1 $251 $61 #
coedge $-1 $156 $156 $157 $252 reversed $95 $-1 #
coedge $-1 $157 $157 $156 $252 forward $97 $-1 #
coedge $-1 $158 $158 $98 $159 forward $153 $-1 #
edge $-1 $253 0 $253 6.2831853071796004 $158 $254 forward 7 unknown #
face $-1 $255 $256 $24 $-1 $257 reversed single #
loop $-1 $-1 $258 $99 #
plane-surface $-1 -69.524826807458723 0 0 1 0 0 0 0 -1 forward_v I I I I #
coedge $-1 $171 $259 $173 $260 reversed $100 $-1 #
coedge $-1 $261 $102 $259 $262 forward $65 $-1 #
coedge $-1 $102 $261 $263 $264 forward $65 $-1 #
coedge $-1 $174 $173 $102 $167 reversed $175 $-1 #
edge $-1 $265 -31.690904285211424 $266 31.690904285211424 $166 $267 forward 7 unknown #
coedge $-1 $104 $103 $268 $269 forward $41 $-1 #
coedge $-1 $270 $271 $103 $170 reversed $256 $-1 #
edge $-1 $177 -69.524826807458723 $272 69.524826807458723 $169 $273 forward 7 unknown #
coedge $-1 $274 $163 $104 $172 reversed $100 $-1 #
edge $-1 $275 -69.524826807458723 $176 69.524826807458723 $171 $276 forward 7 unknown #
coedge $-1 $166 $105 $163 $260 forward $175 $-1 #
coedge $-1 $105 $166 $270 $277 reversed $175 $-1 #
loop $-1 $-1 $173 $255 #
vertex $-1 $106 $278 #
vertex $-1 $106 $279 #
straight-curve $-1 69.524826807458723 0 6.6204946166435068 0 1 0 I I #
face $-1 $280 $281 $25 $-1 $282 reversed single #
loop $-1 $-1 $191 $107 #
plane-surface $-1 0 -34.740184857127559 -3.6204946166435068 0 0 1 1 0 0 forward_v I I I I #
coedge $-1 $283 $284 $111 $187 forward $108 $-1 #
coedge $-1 $285 $110 $284 $286 forward $69 $-1 #
coedge $-1 $110 $285 $287 $288 forward $69 $-1 #
coedge $-1 $112 $111 $110 $186 reversed $44 $-1 #
edge $-1 $289 -69.524826807458723 $290 69.524826807458723 $110 $291 forward 7 unknown #
edge $-1 $290 -6.6204946166435068 $193 -3.6204946166435068 $182 $292 forward 7 unknown #
coedge $-1 $287 $293 $112 $189 forward $294 $-1 #
edge $-1 $192 3.6204946166435068 $289 6.6204946166435068 $188 $295 forward 7 unknown #
coedge $-1 $296 $113 $293 $297 forward $180 $-1 #
coedge $-1 $113 $296 $283 $298 forward $180 $-1 #
vertex $-1 $189 $299 #
vertex $-1 $298 $300 #
straight-curve $-1 0 -31.690904285211424 -3.6204946166435068 1 0 0 I I #
face $-1 $-1 $207 $26 $-1 $301 forward single #
loop $-1 $-1 $302 $115 #
plane-surface $-1 69.524826807458723 0 0 -1 0 0 0 0 1 forward_v I I I I #
coedge $-1 $303 $304 $305 $306 reversed $116 $-1 #
coedge $-1 $307 $118 $120 $205 forward $73 $-1 #
coedge $-1 $118 $307 $303 $308 forward $73 $-1 #
coedge $-1 $305 $121 $118 $202 forward $207 $-1 #
edge $-1 $209 -4.633882778394435 $309 4.6457959344082216 $201 $310 forward 7 unknown #
coedge $-1 $311 $312 $119 $204 forward $196 $-1 #
edge $-1 $313 -95.183371495775233 $208 -91.854547008360171 $203 $314 forward 7 unknown #
edge $-1 $209 133.24602530394517 $313 139.04965361491742 $120 $315 forward 7 unknown #
coedge $-1 $121 $305 $311 $316 forward $207 $-1 #
loop $-1 $-1 $305 $195 #
vertex $-1 $204 $317 #
vertex $-1 $122 $318 #
straight-curve $-1 17.6888126675141 4.6279262003875417 6.6204946166435121 -1 0 0 I I #
coedge $-1 $211 $211 $-1 $319 reversed $125 $-1 #
edge $-1 $320 0 $320 6.2831853071796004 $126 $321 forward 7 unknown #
vertex $-1 $129 $322 #
ellipse-curve $-1 67.14779982486553 -0.011913156013786619 4.9560823729359793 0.57357644374324357 0 0.81915203911291934 0.81915203911291934 0 -0.57357644374324357 1 I I #
face $-1 $-1 $323 $28 $-1 $324 reversed single #
loop $-1 $-1 $136 $130 #
plane-surface $-1 0 0 6.6204946166435068 0 0 1 1 0 0 forward_v I I I I #
coedge $-1 $325 $326 $327 $328 reversed $131 $-1 #
coedge $-1 $329 $133 $135 $225 forward $82 $-1 #
coedge $-1 $133 $329 $325 $330 forward $82 $-1 #
coedge $-1 $327 $136 $133 $222 forward $216 $-1 #
edge $-1 $228 -6.243932662826996 $331 4.1141646022197556 $221 $332 forward 7 unknown #
coedge $-1 $333 $334 $134 $224 forward $323 $-1 #
edge $-1 $335 -48.214890111565374 $227 -43.487567123742622 $223 $336 forward 7 unknown #
edge $-1 $228 -6.6854442055288326 $335 0 $135 $337 forward 7 unknown #
coedge $-1 $136 $327 $333 $338 forward $216 $-1 #
vertex $-1 $224 $339 #
vertex $-1 $137 $340 #
straight-curve $-1 -83.923890470502258 -7.3088166931306162 6.620494616643505 1 0 0 I I #
coedge $-1 $230 $230 $-1 $341 reversed $140 $-1 #
edge $-1 $342 0 $342 6.2831853071796004 $141 $343 forward 7 unknown #
vertex $-1 $144 $344 #
ellipse-curve $-1 -67.161165368396354 -2.1297680606072404 4.2568331227321305 -0.70710678939079041 0 0.70710677298230451 1.0606601594734568 0 1.0606601840861856 1 I I #
face $-1 $-1 $345 $30 $-1 $346 reversed single #
loop $-1 $-1 $246 $145 #
plane-surface $-1 -167.84778094100452 3.0492805719161353 100.21612348077225 0 -1 0 0.70710678939079041 0 -0.70710677298230451 forward_v I I I I #
coedge $-1 $240 $347 $150 $245 forward $146 $-1 #
coedge $-1 $239 $148 $242 $348 reversed $91 $-1 #
coedge $-1 $148 $238 $349 $350 reversed $91 $-1 #
coedge $-1 $351 $237 $148 $241 forward $146 $-1 #
edge $-1 $352 -19.126386541168273 $353 -14.399063663043535 $240 $354 forward 7 unknown #
coedge $-1 $150 $149 $238 $348 forward $59 $-1 #
coedge $-1 $355 $349 $149 $244 forward $345 $-1 #
edge $-1 $356 -14.472261867266507 $248 -4.1141646022197556 $243 $357 forward 7 unknown #
edge $-1 $249 4.1141646022197556 $352 14.472261867266507 $237 $358 forward 7 unknown #
coedge $-1 $247 $151 $347 $359 reversed $235 $-1 #
coedge $-1 $151 $246 $355 $360 reversed $235 $-1 #
vertex $-1 $244 $361 #
vertex $-1 $245 $362 #
straight-curve $-1 -69.524826807458723 3.0492805719161353 1.8931716288207525 0.70710677298230451 0 0.70710678939079041 I I #
coedge $-1 $251 $251 $-1 $363 reversed $155 $-1 #
edge $-1 $364 0 $364 6.2831853071796004 $156 $365 forward 7 unknown #
vertex $-1 $159 $366 #
ellipse-curve $-1 -67.161165368396354 8.2283292044395111 4.2568331227321305 -0.70710678939079041 0 0.70710677298230451 1.0606601594734568 0 1.0606601840861856 1 I I #
face $-1 $-1 $175 $24 $-1 $367 reversed single #
loop $-1 $-1 $270 $160 #
plane-surface $-1 0 31.690904285211424 0 0 -1 0 0 0 -1 forward_v I I I I #
coedge $-1 $368 $268 $271 $369 forward $161 $-1 #
coedge $-1 $163 $274 $164 $262 reversed $100 $-1 #
edge $-1 $176 -6.6204946166435068 $266 6.6204946166435068 $173 $370 forward 7 unknown #
coedge $-1 $165 $164 $368 $371 forward $65 $-1 #
edge $-1 $266 -69.524826807458723 $372 69.524826807458723 $259 $373 forward 7 unknown #
coedge $-1 $271 $270 $165 $264 reversed $256 $-1 #
edge $-1 $374 -69.524826807458723 $265 69.524826807458723 $263 $375 forward 7 unknown #
vertex $-1 $167 $376 #
vertex $-1 $260 $377 #
straight-curve $-1 69.524826807458723 0 -6.6204946166435068 0 -1 0 I I #
coedge $-1 $258 $378 $168 $269 reversed $161 $-1 #
edge $-1 $272 -31.690904285211424 $275 31.690904285211424 $268 $379 forward 7 unknown #
coedge $-1 $263 $169 $174 $277 forward $256 $-1 #
coedge $-1 $169 $263 $258 $369 reversed $256 $-1 #
vertex $-1 $170 $380 #
straight-curve $-1 0 31.690904285211424 6.6204946166435068 -1 0 0 I I #
coedge $-1 $259 $171 $378 $381 forward $100 $-1 #
vertex $-1 $269 $382 #
straight-curve $-1 0 -31.690904285211424 6.6204946166435068 1 0 0 I I #
edge $-1 $177 -6.6204946166435068 $265 6.6204946166435068 $174 $383 forward 7 unknown #
point $-1 69.524826807458723 -31.690904285211424 6.6204946166435068 #
point $-1 69.524826807458723 31.690904285211424 6.6204946166435068 #
face $-1 $-1 $294 $25 $-1 $384 reversed single #
loop $-1 $-1 $385 $179 #
plane-surface $-1 0 -37.789465429043695 -5.1204946166435068 0 1 0 0 0 1 forward_v I I I I #
coedge $-1 $386 $182 $191 $298 reversed $108 $-1 #
coedge $-1 $182 $386 $183 $286 reversed $108 $-1 #
coedge $-1 $184 $183 $387 $388 forward $69 $-1 #
edge $-1 $290 31.690904285211424 $389 37.789465429043695 $284 $390 forward 7 unknown #
coedge $-1 $391 $188 $184 $288 reversed $294 $-1 #
edge $-1 $392 -37.789465429043695 $289 -31.690904285211424 $287 $393 forward 7 unknown #
vertex $-1 $189 $394 #
vertex $-1 $286 $395 #
straight-curve $-1 0 -31.690904285211424 -6.6204946166435068 1 0 0 I I #
straight-curve $-1 69.524826807458723 -31.690904285211424 0 0 0 1 I I #
coedge $-1 $188 $391 $190 $297 reversed $294 $-1 #
loop $-1 $-1 $188 $280 #
straight-curve $-1 -69.524826807458723 -31.690904285211424 0 0 0 -1 I I #
coedge $-1 $191 $190 $396 $397 forward $180 $-1 #
edge $-1 $192 -3.0492805719161353 $398 3.0492805719161353 $293 $399 forward 7 unknown #
edge $-1 $400 -3.0492805719161353 $193 3.0492805719161353 $283 $401 forward 7 unknown #
point $-1 -69.524826807458723 -31.690904285211424 -3.6204946166435068 #
point $-1 69.524826807458723 -31.690904285211424 -3.6204946166435068 #
plane-surface $-1 0 0 6.6204946166435068 0 0 1 1 0 0 forward_v I I I I #
coedge $-1 $312 $311 $304 $402 forward $196 $-1 #
coedge $-1 $304 $198 $200 $308 reversed $116 $-1 #
coedge $-1 $198 $303 $302 $402 reversed $116 $-1 #
coedge $-1 $206 $201 $198 $306 forward $207 $-1 #
edge $-1 $309 47.081960174758237 $403 51.836014139944623 $305 $404 forward 7 unknown #
coedge $-1 $200 $199 $312 $405 reversed $73 $-1 #
edge $-1 $406 -139.04965361491742 $309 -133.24602530394517 $303 $407 forward 7 unknown #
vertex $-1 $202 $408 #
straight-curve $-1 64.770772842272351 -0.0059565780068933094 6.620494616643505 0 -1 0 I I #
coedge $-1 $302 $203 $206 $316 reversed $196 $-1 #
coedge $-1 $203 $302 $307 $405 forward $196 $-1 #
vertex $-1 $204 $409 #
straight-curve $-1 69.524826807458723 4.6279262003875417 98.475041625003684 0 0 1 I I #
straight-curve $-1 -44.377980489145997 4.6279262003875417 83.047275953402632 0.81915203911291934 0 -0.57357644374324357 I I #
edge $-1 $403 -4.6517525124151149 $208 4.6279262003875417 $311 $410 forward 7 unknown #
point $-1 69.524826807458723 4.6279262003875417 6.6204946166435068 #
point $-1 64.770772842272336 4.6279262003875417 6.6204946166435121 #
edge $-1 $411 1 $411 0 $211 $-1 forward 7 unknown #
vertex $-1 $212 $412 #
ellipse-curve $-1 65.149673542312826 -0.011913156013786619 2.102462360097999 0.57357644374324357 0 0.81915203911291934 0.81915203911291934 0 -0.57357644374324357 1 I I #
point $-1 67.966951863978437 -0.011913156013786619 4.3825059291927184 #
loop $-1 $-1 $223 $215 #
plane-surface $-1 -69.524826807458723 0 0 1 0 0 0 0 -1 forward_v I I I I #
coedge $-1 $326 $218 $220 $330 reversed $131 $-1 #
coedge $-1 $218 $325 $413 $414 reversed $131 $-1 #
coedge $-1 $226 $221 $218 $328 forward $216 $-1 #
edge $-1 $331 -19.126386541168273 $415 -14.399063663043535 $327 $416 forward 7 unknown #
coedge $-1 $220 $219 $334 $417 reversed $82 $-1 #
edge $-1 $418 0 $331 6.6854442055288326 $325 $419 forward 7 unknown #
vertex $-1 $222 $420 #
straight-curve $-1 -64.797503929333985 -1.0648840303036202 6.6204946166435068 0 1 0 I I #
coedge $-1 $413 $223 $226 $338 reversed $323 $-1 #
coedge $-1 $223 $413 $329 $417 forward $323 $-1 #
vertex $-1 $224 $421 #
straight-curve $-1 -69.524826807458723 -7.3088166931306162 50.108061740386127 0 0 1 I I #
straight-curve $-1 -69.524826807458723 -7.3088166931306162 1.8931716288207525 -0.70710677298230451 0 -0.70710678939079041 I I #
edge $-1 $415 -3.0492805719161353 $227 7.3088166931306162 $333 $422 forward 7 unknown #
point $-1 -69.524826807458723 -7.3088166931306162 6.6204946166435068 #
point $-1 -64.797503929333985 -7.3088166931306162 6.6204946166435068 #
edge $-1 $423 1 $423 0 $230 $-1 forward 7 unknown #
vertex $-1 $231 $424 #
ellipse-curve $-1 -63.808434290576884 -2.1297680606072404 0.90410212271312751 -0.70710678939079041 0 0.70710677298230451 1.0606601594734568 0 1.0606601840861856 1 I I #
point $-1 -66.100505208922897 -2.1297680606072404 5.317493306818319 #
loop $-1 $-1 $243 $234 #
plane-surface $-1 -69.524826807458723 0 0 1 0 0 0 0 -1 forward_v I I I I #
coedge $-1 $237 $351 $246 $359 forward $146 $-1 #
edge $-1 $356 0 $352 6.6854442055288326 $238 $425 forward 7 unknown #
coedge $-1 $243 $426 $239 $350 forward $345 $-1 #
edge $-1 $353 43.487567123742622 $356 48.214890111565374 $349 $427 forward 7 unknown #
coedge $-1 $347 $240 $426 $428 forward $146 $-1 #
vertex $-1 $241 $429 #
vertex $-1 $428 $430 #
straight-curve $-1 -83.923890470502258 13.407377836962887 6.620494616643505 -1 0 0 I I #
coedge $-1 $426 $243 $247 $360 forward $345 $-1 #
vertex $-1 $350 $431 #
straight-curve $-1 -69.524826807458723 -1.0648840303036202 1.8931716288207561 0 -1 0 I I #
straight-curve $-1 -64.797503929333985 -1.0648840303036202 6.6204946166435068 0 1 0 I I #
edge $-1 $432 14.399063663043535 $249 19.126386541168273 $347 $433 forward 7 unknown #
edge $-1 $248 -48.214890111565374 $432 -43.487567123742622 $355 $434 forward 7 unknown #
point $-1 -69.524826807458723 3.0492805719161353 1.8931716288207525 #
point $-1 -64.797503929333985 3.0492805719161353 6.6204946166435068 #
edge $-1 $435 1 $435 0 $251 $-1 forward 7 unknown #
vertex $-1 $252 $436 #
ellipse-curve $-1 -63.808434290576884 8.2283292044395111 0.90410212271312751 -0.70710678939079041 0 0.70710677298230451 1.0606601594734568 0 1.0606601840861856 1 I I #
point $-1 -66.100505208922897 8.2283292044395111 5.317493306818319 #
plane-surface $-1 69.524826807458723 0 0 -1 0 0 0 0 1 forward_v I I I I #
coedge $-1 $378 $258 $261 $371 reversed $161 $-1 #
edge $-1 $272 -6.6204946166435068 $374 6.6204946166435068 $271 $437 forward 7 unknown #
straight-curve $-1 69.524826807458723 -31.690904285211424 0 0 0 -1 I I #
edge $-1 $372 -31.690904285211424 $374 31.690904285211424 $368 $438 forward 7 unknown #
vertex $-1 $371 $439 #
straight-curve $-1 0 -31.690904285211424 -6.6204946166435068 -1 0 0 I I #
vertex $-1 $264 $440 #
straight-curve $-1 0 31.690904285211424 -6.6204946166435068 1 0 0 I I #
point $-1 69.524826807458723 31.690904285211424 -6.6204946166435068 #
point $-1 69.524826807458723 -31.690904285211424 -6.6204946166435068 #
coedge $-1 $268 $368 $274 $381 reversed $161 $-1 #
straight-curve $-1 -69.524826807458723 0 6.6204946166435068 0 -1 0 I I #
point $-1 -69.524826807458723 31.690904285211424 6.6204946166435068 #
edge $-1 $275 -6.6204946166435068 $372 6.6204946166435068 $378 $441 forward 7 unknown #
point $-1 -69.524826807458723 -31.690904285211424 6.6204946166435068 #
straight-curve $-1 69.524826807458723 31.690904285211424 0 0 0 -1 I I #
plane-surface $-1 -69.524826807458723 0 0 1 0 0 0 0 -1 forward_v I I I I #
coedge $-1 $387 $396 $391 $442 forward $281 $-1 #
coedge $-1 $284 $283 $443 $444 forward $108 $-1 #
coedge $-1 $443 $385 $285 $388 reversed $281 $-1 #
edge $-1 $389 -69.524826807458723 $392 69.524826807458723 $387 $445 forward 7 unknown #
vertex $-1 $444 $446 #
straight-curve $-1 69.524826807458723 0 -6.6204946166435068 0 -1 0 I I #
coedge $-1 $293 $287 $385 $442 reversed $294 $-1 #
vertex $-1 $288 $447 #
straight-curve $-1 -69.524826807458723 0 -6.6204946166435068 0 1 0 I I #
point $-1 -69.524826807458723 -31.690904285211424 -6.6204946166435068 #
point $-1 69.524826807458723 -31.690904285211424 -6.6204946166435068 #
coedge $-1 $385 $443 $296 $397 reversed $281 $-1 #
edge $-1 $398 -69.524826807458723 $400 69.524826807458723 $396 $448 forward 7 unknown #
vertex $-1 $297 $449 #
straight-curve $-1 -69.524826807458723 -34.740184857127559 -3.6204946166435068 0 -1 0 I I #
vertex $-1 $298 $450 #
straight-curve $-1 69.524826807458723 -34.740184857127559 -3.6204946166435068 0 1 0 I I #
edge $-1 $403 91.854547008360171 $406 95.183371495775233 $302 $451 forward 7 unknown #
vertex $-1 $316 $452 #
straight-curve $-1 17.6888126675141 -4.6517525124151149 6.6204946166435121 1 0 0 I I #
edge $-1 $406 -4.6457959344082216 $313 4.633882778394435 $312 $453 forward 7 unknown #
vertex $-1 $405 $454 #
straight-curve $-1 -44.377980489145997 -4.6517525124151149 83.047275953402632 -0.81915203911291934 0 0.57357644374324357 I I #
point $-1 64.770772842272336 -4.6517525124151149 6.6204946166435121 #
point $-1 69.524826807458723 4.6279262003875417 3.29167012922845 #
straight-curve $-1 69.524826807458723 0 6.6204946166435068 0 1 0 I I #
vertex $-1 $319 $455 #
point $-1 65.968825581425747 -0.011913156013786619 1.5288859163547557 #
coedge $-1 $334 $333 $326 $414 forward $323 $-1 #
edge $-1 $415 43.487567123742622 $418 48.214890111565374 $413 $456 forward 7 unknown #
vertex $-1 $338 $457 #
straight-curve $-1 -83.923890470502258 3.0492805719161353 6.620494616643505 -1 0 0 I I #
edge $-1 $418 -4.1141646022197556 $335 6.243932662826996 $334 $458 forward 7 unknown #
vertex $-1 $417 $459 #
straight-curve $-1 -69.524826807458723 3.0492805719161353 1.8931716288207525 0.70710677298230451 0 0.70710678939079041 I I #
point $-1 -64.797503929333985 3.0492805719161353 6.6204946166435068 #
point $-1 -69.524826807458723 -7.3088166931306162 1.8931716288207525 #
straight-curve $-1 -69.524826807458723 0 6.6204946166435068 0 -1 0 I I #
vertex $-1 $341 $460 #
point $-1 -62.747774131103426 -2.1297680606072404 1.964762306799313 #
straight-curve $-1 -69.524826807458723 13.407377836962887 1.8931716288207525 0.70710677298230451 0 0.70710678939079041 I I #
coedge $-1 $349 $355 $351 $428 reversed $345 $-1 #
straight-curve $-1 -69.524826807458723 13.407377836962887 50.108061740386127 0 0 -1 I I #
edge $-1 $353 -13.407377836962887 $432 -3.0492805719161353 $426 $461 forward 7 unknown #
point $-1 -64.797503929333985 13.407377836962887 6.6204946166435068 #
point $-1 -69.524826807458723 13.407377836962887 6.6204946166435068 #
point $-1 -69.524826807458723 13.407377836962887 1.8931716288207525 #
vertex $-1 $360 $462 #
straight-curve $-1 -83.923890470502258 3.0492805719161353 6.620494616643505 1 0 0 I I #
straight-curve $-1 -69.524826807458723 3.0492805719161353 50.108061740386127 0 0 1 I I #
vertex $-1 $363 $463 #
point $-1 -62.747774131103426 8.2283292044395111 1.964762306799313 #
straight-curve $-1 -69.524826807458723 31.690904285211424 0 0 0 -1 I I #
straight-curve $-1 -69.524826807458723 0 -6.6204946166435068 0 1 0 I I #
point $-1 -69.524826807458723 -31.690904285211424 -6.6204946166435068 #
point $-1 -69.524826807458723 31.690904285211424 -6.6204946166435068 #
straight-curve $-1 -69.524826807458723 -31.690904285211424 0 0 0 -1 I I #
edge $-1 $398 -1.5 $392 1.5 $391 $464 forward 7 unknown #
coedge $-1 $396 $387 $386 $444 reversed $281 $-1 #
edge $-1 $400 -1.5 $389 1.5 $386 $465 forward 7 unknown #
straight-curve $-1 0 -37.789465429043695 -6.6204946166435068 -1 0 0 I I #
point $-1 69.524826807458723 -37.789465429043695 -6.6204946166435068 #
point $-1 -69.524826807458723 -37.789465429043695 -6.6204946166435068 #
straight-curve $-1 0 -37.789465429043695 -3.6204946166435068 1 0 0 I I #
point $-1 -69.524826807458723 -37.789465429043695 -3.6204946166435068 #
point $-1 69.524826807458723 -37.789465429043695 -3.6204946166435068 #
straight-curve $-1 69.524826807458723 -4.6517525124151149 98.475041625003684 0 0 -1 I I #
point $-1 69.524826807458723 -4.6517525124151149 6.6204946166435068 #
straight-curve $-1 69.524826807458737 -0.0059565780068933094 3.2916701292284358 0 1 0 I I #
point $-1 69.524826807458723 -4.6517525124151149 3.29167012922845 #
point $-1 64.576097098569591 -0.011913156013786619 1.2833103209850798 #
straight-curve $-1 -69.524826807458723 3.0492805719161353 50.108061740386127 0 0 -1 I I #
point $-1 -69.524826807458723 3.0492805719161353 6.6204946166435068 #
straight-curve $-1 -69.524826807458723 -1.0648840303036202 1.8931716288207561 0 -1 0 I I #
point $-1 -69.524826807458723 3.0492805719161353 1.8931716288207525 #
point $-1 -62.747774106490695 -2.1297680606072404 -0.15655803676032931 #
straight-curve $-1 -69.524826807458723 0 6.6204946166435068 0 -1 0 I I #
point $-1 -69.524826807458723 3.0492805719161353 6.6204946166435068 #
point $-1 -62.747774106490695 8.2283292044395111 -0.15655803676032931 #
straight-curve $-1 -69.524826807458723 -37.789465429043695 -5.1204946166435068 0 0 -1 I I #
straight-curve $-1 69.524826807458723 -37.789465429043695 -5.1204946166435068 0 0 -1 I I #
End-of-ACIS-data 