500 0 11 0           
7 Unknown 11 ACIS 5.0 NT 24 Fri Mar 26 18:36:43 1999 
-1 9.9999999999999995e-007 1e-010 
body $-1 $11 $-1 $12 #
body $-1 $13 $-1 $14 #
body $-1 $15 $-1 $16 #
body $-1 $17 $-1 $18 #
body $-1 $19 $-1 $20 #
body $-1 $21 $-1 $22 #
body $-1 $23 $-1 $24 #
body $-1 $25 $-1 $26 #
body $-1 $27 $-1 $28 #
body $-1 $29 $-1 $30 #
body $-1 $31 $-1 $32 #
lump $-1 $-1 $33 $0 #
transform $-1 1 0 0 0 1 0 0 0 1 73.625293740653703 35.075991408058371 11.36696767982267 1 rotate no_reflect no_shear #
lump $-1 $-1 $34 $1 #
transform $-1 1 0 0 0 1 0 0 0 1 73.625293740653703 35.075991408058371 11.36696767982267 1 rotate no_reflect no_shear #
lump $-1 $-1 $35 $2 #
transform $-1 1 0 0 0 1 0 0 0 1 73.625293740653703 35.075991408058371 11.36696767982267 1 rotate no_reflect no_shear #
lump $-1 $-1 $36 $3 #
transform $-1 1 0 0 0 1 0 0 0 1 73.625293740653703 35.075991408058371 11.36696767982267 1 rotate no_reflect no_shear #
lump $-1 $-1 $37 $4 #
transform $-1 1 0 0 0 1 0 0 0 1 73.625293740653703 35.075991408058371 11.36696767982267 1 rotate no_reflect no_shear #
lump $-1 $-1 $38 $5 #
transform $-1 1 0 0 0 1 0 0 0 1 73.625293740653703 35.075991408058371 11.36696767982267 1 rotate no_reflect no_shear #
lump $-1 $-1 $39 $6 #
transform $-1 1 0 0 0 1 0 0 0 1 73.625293740653703 35.075991408058371 11.36696767982267 1 rotate no_reflect no_shear #
lump $-1 $-1 $40 $7 #
transform $-1 1 0 0 0 1 0 0 0 1 73.625293740653703 35.075991408058371 11.36696767982267 1 rotate no_reflect no_shear #
lump $-1 $-1 $41 $8 #
transform $-1 1 0 0 0 1 0 0 0 1 73.625293740653703 35.075991408058371 11.36696767982267 1 rotate no_reflect no_shear #
lump $-1 $-1 $42 $9 #
transform $-1 1 0 0 0 1 0 0 0 1 73.625293740653703 35.075991408058371 11.36696767982267 1 rotate no_reflect no_shear #
lump $-1 $-1 $43 $10 #
transform $-1 1 0 0 0 1 0 0 0 1 73.625293740653703 35.075991408058371 11.36696767982267 1 rotate no_reflect no_shear #
shell $-1 $-1 $-1 $44 $-1 $11 #
shell $-1 $-1 $-1 $45 $-1 $13 #
shell $-1 $-1 $-1 $46 $-1 $15 #
shell $-1 $-1 $-1 $47 $-1 $17 #
shell $-1 $-1 $-1 $48 $-1 $19 #
shell $-1 $-1 $-1 $49 $-1 $21 #
shell $-1 $-1 $-1 $50 $-1 $23 #
shell $-1 $-1 $-1 $51 $-1 $25 #
shell $-1 $-1 $-1 $52 $-1 $27 #
shell $-1 $-1 $-1 $53 $-1 $29 #
shell $-1 $-1 $-1 $54 $-1 $31 #
face $-1 $55 $56 $33 $-1 $57 forward single #
face $-1 $58 $59 $34 $-1 $60 reversed single #
face $-1 $61 $62 $35 $-1 $63 reversed single #
face $-1 $64 $65 $36 $-1 $66 reversed single #
face $-1 $67 $68 $37 $-1 $69 forward single #
face $-1 $70 $71 $38 $-1 $72 reversed single #
face $-1 $73 $74 $39 $-1 $75 forward single #
face $-1 $76 $77 $40 $-1 $78 forward single #
face $-1 $79 $80 $41 $-1 $81 reversed single #
face $-1 $82 $83 $42 $-1 $84 forward single #
face $-1 $85 $86 $43 $-1 $87 forward single #
face $-1 $88 $89 $33 $-1 $90 reversed single #
loop $-1 $-1 $91 $44 #
plane-surface $-1 0 0 11.36696767982267 0 0 1 1 0 0 forward_v I I I I #
face $-1 $92 $93 $34 $-1 $94 reversed single #
loop $-1 $-1 $95 $45 #
plane-surface $-1 -69.873507538548736 0 6.6334774612741221 0 0 1 1 0 0 forward_v I I I I #
face $-1 $96 $97 $35 $-1 $98 reversed single #
loop $-1 $-1 $99 $46 #
plane-surface $-1 69.873507538548736 0 6.6334774612741221 0 0 1 1 0 0 forward_v I I I I #
face $-1 $100 $101 $36 $-1 $102 reversed single #
loop $-1 $-1 $103 $47 #
plane-surface $-1 -13.805076155698089 -139.19788155787336 106.66821183116828 -1 0 0 0 -0.70710678939079041 0.70710677298230451 forward_v I I I I #
face $-1 $104 $105 $37 $-1 $106 forward single #
loop $-1 $107 $108 $48 #
cone-surface $-1 -32.143476588731332 -28.865198490288016 5.1561747014904604 0 0.70710678939079041 -0.70710677298230451 1.5 0 0 1 I I 0 1 1.5 forward I I I I #
face $-1 $109 $110 $38 $-1 $111 reversed single #
loop $-1 $-1 $112 $49 #
plane-surface $-1 -51.664921333736373 78.73669700770202 162.9268872170129 1 0 0 0 -0.6560590369687036 -0.75470957328743171 forward_v I I I I #
face $-1 $113 $114 $39 $-1 $115 forward single #
loop $-1 $116 $117 $50 #
cone-surface $-1 -47.840701273898311 30.551762858434216 7.0670593104934261 0 -0.6560590369687036 -0.75470957328743171 1 0 0 1 I I 0 1 1 forward I I I I #
face $-1 $118 $119 $40 $-1 $120 forward single #
loop $-1 $121 $122 $51 #
cone-surface $-1 -42.104371184141222 30.551762858434216 7.0670593104934261 0 -0.6560590369687036 -0.75470957328743171 1 0 0 1 I I 0 1 1 forward I I I I #
face $-1 $123 $124 $41 $-1 $125 reversed single #
loop $-1 $-1 $126 $52 #
plane-surface $-1 14.456800002707398 78.73669700770202 162.9268872170129 1 0 0 0 -0.6560590369687036 -0.75470957328743171 forward_v I I I I #
face $-1 $127 $128 $42 $-1 $129 forward single #
loop $-1 $130 $131 $53 #
cone-surface $-1 18.281020062545466 30.551762858434216 7.0670593104934261 0 -0.6560590369687036 -0.75470957328743171 1 0 0 1 I I 0 1 1 forward I I I I #
face $-1 $132 $133 $43 $-1 $134 forward single #
loop $-1 $135 $136 $54 #
cone-surface $-1 24.017350152302541 30.551762858434216 7.0670593104934261 0 -0.6560590369687036 -0.75470957328743171 1 0 0 1 I I 0 1 1 forward I I I I #
face $-1 $137 $138 $33 $-1 $139 reversed single #
loop $-1 $-1 $140 $55 #
plane-surface $-1 0 0 -11.36696767982267 0 0 1 1 0 0 forward_v I I I I #
coedge $-1 $141 $142 $143 $144 forward $56 $-1 #
face $-1 $145 $146 $34 $-1 $147 reversed single #
loop $-1 $-1 $148 $58 #
plane-surface $-1 -66.12172133644377 0 9.0002225705483969 -1 0 0 0 0 1 forward_v I I I I #
coedge $-1 $149 $150 $151 $152 forward $59 $-1 #
face $-1 $153 $154 $35 $-1 $155 forward single #
loop $-1 $-1 $156 $61 #
plane-surface $-1 66.12172133644377 0 9.0002225705483969 1 0 0 0 0 -1 forward_v I I I I #
coedge $-1 $157 $158 $159 $160 reversed $62 $-1 #
face $-1 $161 $162 $36 $-1 $163 reversed single #
loop $-1 $-1 $164 $64 #
plane-surface $-1 -32.143476588731325 -35.075991408058357 2.5463240975124677 0 -0.70710678939079041 0.70710677298230451 1 0 0 forward_v I I I I #
coedge $-1 $165 $166 $167 $168 reversed $65 $-1 #
face $-1 $-1 $169 $37 $-1 $170 forward single #
loop $-1 $171 $172 $67 #
cone-surface $-1 -32.143476588731332 -26.534397169287683 2.8253734345766137 0 0.70710678939079041 -0.70710677298230451 0.75 0 0 1 I I -0.70710678118654768 0.70710678118654735 0.75 forward I I I I #
loop $-1 $-1 $173 $48 #
coedge $-1 $108 $108 $174 $175 reversed $68 $-1 #
face $-1 $176 $177 $38 $-1 $178 reversed single #
loop $-1 $-1 $179 $70 #
plane-surface $-1 -44.972536229019767 -17.868381608360366 51.795459172671755 0 0.6560590369687036 0.75470957328743171 1 0 0 forward_v I I I I #
coedge $-1 $180 $181 $182 $183 reversed $71 $-1 #
face $-1 $-1 $184 $39 $-1 $185 forward single #
loop $-1 $186 $187 $73 #
cone-surface $-1 -47.840701273898311 28.917862112520659 5.1874715519892138 0 -0.6560590369687036 -0.75470957328743171 0.5 0 0 1 I I -0.70710678118654746 0.70710678118654746 0.5 forward I I I I #
loop $-1 $-1 $188 $50 #
coedge $-1 $117 $117 $189 $190 reversed $74 $-1 #
face $-1 $-1 $191 $40 $-1 $192 forward single #
loop $-1 $193 $194 $76 #
cone-surface $-1 -42.104371184141222 28.917862112520659 5.1874715519892138 0 -0.6560590369687036 -0.75470957328743171 0.5 0 0 1 I I -0.70710678118654746 0.70710678118654746 0.5 forward I I I I #
loop $-1 $-1 $195 $51 #
coedge $-1 $122 $122 $196 $197 reversed $77 $-1 #
face $-1 $198 $199 $41 $-1 $200 reversed single #
loop $-1 $-1 $201 $79 #
plane-surface $-1 21.149185107424003 -17.868381608360366 51.795459172671755 0 0.6560590369687036 0.75470957328743171 1 0 0 forward_v I I I I #
coedge $-1 $202 $203 $204 $205 reversed $80 $-1 #
face $-1 $-1 $206 $42 $-1 $207 forward single #
loop $-1 $208 $209 $82 #
cone-surface $-1 18.281020062545466 28.917862112520659 5.1874715519892138 0 -0.6560590369687036 -0.75470957328743171 0.5 0 0 1 I I -0.70710678118654746 0.70710678118654746 0.5 forward I I I I #
loop $-1 $-1 $210 $53 #
coedge $-1 $131 $131 $211 $212 reversed $83 $-1 #
face $-1 $-1 $213 $43 $-1 $214 forward single #
loop $-1 $215 $216 $85 #
cone-surface $-1 24.017350152302541 28.917862112520659 5.1874715519892138 0 -0.6560590369687036 -0.75470957328743171 0.5 0 0 1 I I -0.70710678118654746 0.70710678118654746 0.5 forward I I I I #
loop $-1 $-1 $217 $54 #
coedge $-1 $136 $136 $218 $219 reversed $86 $-1 #
face $-1 $220 $221 $33 $-1 $222 reversed single #
loop $-1 $-1 $223 $88 #
plane-surface $-1 0 -35.075991408058371 0 0 1 0 0 0 1 forward_v I I I I #
coedge $-1 $224 $225 $226 $227 forward $89 $-1 #
coedge $-1 $228 $91 $229 $230 forward $56 $-1 #
coedge $-1 $91 $228 $231 $232 forward $56 $-1 #
coedge $-1 $233 $234 $91 $144 reversed $235 $-1 #
edge $-1 $236 -35.075991408058371 $237 35.075991408058371 $143 $238 forward 7 unknown #
face $-1 $239 $240 $34 $-1 $241 reversed single #
loop $-1 $-1 $242 $92 #
plane-surface $-1 0 35.075991408058371 0 0 -1 0 0 0 -1 forward_v I I I I #
coedge $-1 $151 $243 $244 $245 reversed $93 $-1 #
coedge $-1 $246 $95 $247 $248 reversed $59 $-1 #
coedge $-1 $95 $246 $249 $250 reversed $59 $-1 #
coedge $-1 $251 $148 $95 $152 reversed $93 $-1 #
edge $-1 $252 -35.075991408058371 $253 35.075991408058371 $151 $254 forward 7 unknown #
face $-1 $255 $256 $35 $-1 $257 reversed single #
loop $-1 $-1 $258 $96 #
plane-surface $-1 0 0 11.36696767982267 0 0 1 1 0 0 forward_v I I I I #
coedge $-1 $259 $260 $261 $262 reversed $97 $-1 #
coedge $-1 $263 $99 $264 $265 reversed $62 $-1 #
coedge $-1 $99 $263 $266 $267 reversed $62 $-1 #
coedge $-1 $268 $269 $99 $160 forward $270 $-1 #
edge $-1 $271 -35.075991408058371 $272 35.075991408058371 $159 $273 forward 7 unknown #
face $-1 $274 $275 $36 $-1 $276 forward single #
loop $-1 $-1 $277 $100 #
plane-surface $-1 -50.481877021764561 -139.19788155787336 106.66821183116828 1 0 0 0 0.70710678939079041 -0.70710677298230451 forward_v I I I I #
coedge $-1 $278 $279 $280 $281 reversed $101 $-1 #
coedge $-1 $166 $103 $282 $283 reversed $65 $-1 #
coedge $-1 $103 $165 $278 $284 reversed $65 $-1 #
coedge $-1 $280 $285 $103 $168 forward $275 $-1 #
edge $-1 $286 34.522949370878308 $287 43.343592748504584 $167 $288 forward 7 unknown #
loop $-1 $-1 $174 $104 #
plane-surface $-1 -32.143476588731325 -35.075991408058357 2.5463240975124677 0 -0.70710678939079041 0.70710677298230451 1 0 0 forward_v I I I I #
loop $-1 $-1 $289 $67 #
coedge $-1 $172 $172 $173 $290 reversed $105 $-1 #
coedge $-1 $173 $173 $172 $290 forward $107 $-1 #
coedge $-1 $174 $174 $108 $175 forward $169 $-1 #
edge $-1 $291 1.6747654641466497e-015 $291 6.2831853071796022 $174 $292 forward 7 unknown #
face $-1 $293 $294 $38 $-1 $295 reversed single #
loop $-1 $-1 $296 $109 #
plane-surface $-1 -38.28015112430316 78.73669700770202 162.9268872170129 -1 0 0 0 0.6560590369687036 0.75470957328743171 forward_v I I I I #
coedge $-1 $297 $298 $299 $300 reversed $110 $-1 #
coedge $-1 $181 $112 $301 $302 reversed $71 $-1 #
coedge $-1 $112 $180 $297 $303 reversed $71 $-1 #
coedge $-1 $299 $304 $112 $183 forward $305 $-1 #
edge $-1 $306 4.2923570957926387 $307 10.729071740182555 $182 $308 forward 7 unknown #
loop $-1 $-1 $189 $113 #
plane-surface $-1 -44.972536229019767 -17.868381608360366 51.795459172671755 0 0.6560590369687036 0.75470957328743171 1 0 0 forward_v I I I I #
loop $-1 $-1 $309 $73 #
coedge $-1 $187 $187 $188 $310 reversed $114 $-1 #
coedge $-1 $188 $188 $187 $310 forward $116 $-1 #
coedge $-1 $189 $189 $117 $190 forward $184 $-1 #
edge $-1 $311 1.4019084392022037e-015 $311 6.2831853071796022 $189 $312 forward 7 unknown #
loop $-1 $-1 $196 $118 #
plane-surface $-1 -44.972536229019767 -17.868381608360366 51.795459172671755 0 0.6560590369687036 0.75470957328743171 1 0 0 forward_v I I I I #
loop $-1 $-1 $313 $76 #
coedge $-1 $194 $194 $195 $314 reversed $119 $-1 #
coedge $-1 $195 $195 $194 $314 forward $121 $-1 #
coedge $-1 $196 $196 $122 $197 forward $191 $-1 #
edge $-1 $315 1.4019084392022037e-015 $315 6.2831853071796022 $196 $316 forward 7 unknown #
face $-1 $317 $318 $41 $-1 $319 forward single #
loop $-1 $-1 $320 $123 #
plane-surface $-1 27.84157021214061 78.73669700770202 162.9268872170129 -1 0 0 0 0.6560590369687036 0.75470957328743171 forward_v I I I I #
coedge $-1 $321 $322 $323 $324 reversed $124 $-1 #
coedge $-1 $203 $126 $325 $326 reversed $80 $-1 #
coedge $-1 $126 $202 $321 $327 reversed $80 $-1 #
coedge $-1 $323 $328 $126 $205 forward $318 $-1 #
edge $-1 $329 4.2923570957926387 $330 10.729071740182555 $204 $331 forward 7 unknown #
loop $-1 $-1 $211 $127 #
plane-surface $-1 21.149185107424003 -17.868381608360366 51.795459172671755 0 0.6560590369687036 0.75470957328743171 1 0 0 forward_v I I I I #
loop $-1 $-1 $332 $82 #
coedge $-1 $209 $209 $210 $333 reversed $128 $-1 #
coedge $-1 $210 $210 $209 $333 forward $130 $-1 #
coedge $-1 $211 $211 $131 $212 forward $206 $-1 #
edge $-1 $334 1.4019084392022037e-015 $334 6.2831853071796022 $211 $335 forward 7 unknown #
loop $-1 $-1 $218 $132 #
plane-surface $-1 21.149185107424003 -17.868381608360366 51.795459172671755 0 0.6560590369687036 0.75470957328743171 1 0 0 forward_v I I I I #
loop $-1 $-1 $336 $85 #
coedge $-1 $216 $216 $217 $337 reversed $133 $-1 #
coedge $-1 $217 $217 $216 $337 forward $135 $-1 #
coedge $-1 $218 $218 $136 $219 forward $213 $-1 #
edge $-1 $338 1.4019084392022037e-015 $338 6.2831853071796022 $218 $339 forward 7 unknown #
face $-1 $340 $341 $33 $-1 $342 reversed single #
loop $-1 $-1 $343 $137 #
plane-surface $-1 -73.625293740653703 0 0 1 0 0 0 0 -1 forward_v I I I I #
coedge $-1 $344 $231 $345 $346 forward $138 $-1 #
coedge $-1 $347 $140 $344 $348 forward $89 $-1 #
coedge $-1 $140 $347 $349 $350 forward $89 $-1 #
coedge $-1 $234 $233 $140 $227 reversed $235 $-1 #
edge $-1 $351 -35.075991408058371 $352 35.075991408058371 $226 $353 forward 7 unknown #
coedge $-1 $142 $141 $354 $355 forward $56 $-1 #
coedge $-1 $356 $357 $141 $230 reversed $341 $-1 #
edge $-1 $237 -73.625293740653703 $358 73.625293740653703 $229 $359 forward 7 unknown #
coedge $-1 $223 $360 $142 $232 reversed $138 $-1 #
edge $-1 $361 -73.625293740653703 $236 73.625293740653703 $231 $362 forward 7 unknown #
coedge $-1 $226 $143 $360 $363 forward $235 $-1 #
coedge $-1 $143 $226 $356 $364 reversed $235 $-1 #
loop $-1 $-1 $233 $340 #
vertex $-1 $144 $365 #
vertex $-1 $144 $366 #
straight-curve $-1 73.625293740653703 0 11.36696767982267 0 1 0 I I #
face $-1 $367 $368 $34 $-1 $369 forward single #
loop $-1 $-1 $370 $145 #
plane-surface $-1 -73.625293740653703 0 0 1 0 0 0 0 -1 forward_v I I I I #
coedge $-1 $249 $371 $251 $372 forward $146 $-1 #
coedge $-1 $148 $251 $373 $374 reversed $93 $-1 #
coedge $-1 $375 $247 $148 $245 forward $376 $-1 #
edge $-1 $253 2.1333661759999236 $377 6.8668563945484733 $244 $378 forward 7 unknown #
coedge $-1 $150 $149 $370 $379 reversed $59 $-1 #
coedge $-1 $244 $380 $149 $248 forward $376 $-1 #
edge $-1 $381 -38.688539971379335 $253 -31.184967567169402 $247 $382 forward 7 unknown #
coedge $-1 $383 $242 $150 $250 forward $146 $-1 #
edge $-1 $252 31.184967567169402 $384 38.688539971379335 $249 $385 forward 7 unknown #
coedge $-1 $243 $151 $242 $372 reversed $93 $-1 #
vertex $-1 $250 $386 #
vertex $-1 $248 $387 #
straight-curve $-1 -66.12172133644377 0 6.6334774612741221 0 -1 0 I I #
face $-1 $388 $389 $35 $-1 $390 reversed single #
loop $-1 $-1 $391 $153 #
plane-surface $-1 0 -35.075991408058371 0 0 1 0 0 0 1 forward_v I I I I #
coedge $-1 $392 $393 $260 $394 forward $154 $-1 #
coedge $-1 $395 $156 $263 $396 reversed $97 $-1 #
coedge $-1 $156 $395 $258 $394 reversed $97 $-1 #
coedge $-1 $397 $266 $156 $262 forward $389 $-1 #
edge $-1 $398 2.1333661759999236 $399 6.8668563945484733 $261 $400 forward 7 unknown #
coedge $-1 $158 $157 $259 $396 forward $62 $-1 #
coedge $-1 $401 $391 $157 $265 forward $256 $-1 #
edge $-1 $402 31.184967567169402 $271 38.688539971379335 $264 $403 forward 7 unknown #
coedge $-1 $261 $404 $158 $267 forward $389 $-1 #
edge $-1 $272 -38.688539971379335 $398 -31.184967567169402 $266 $405 forward 7 unknown #
coedge $-1 $406 $159 $404 $407 reversed $270 $-1 #
coedge $-1 $159 $406 $401 $408 forward $270 $-1 #
loop $-1 $-1 $159 $388 #
vertex $-1 $265 $409 #
vertex $-1 $160 $410 #
straight-curve $-1 73.625293740653703 0 6.6334774612741221 0 1 0 I I #
face $-1 $-1 $411 $36 $-1 $412 reversed single #
loop $-1 $-1 $167 $161 #
plane-surface $-1 0 0 11.36696767982267 0 0 1 1 0 0 forward_v I I I I #
coedge $-1 $413 $414 $415 $416 reversed $162 $-1 #
coedge $-1 $417 $164 $166 $284 forward $101 $-1 #
coedge $-1 $164 $417 $413 $418 forward $101 $-1 #
coedge $-1 $415 $167 $164 $281 forward $275 $-1 #
edge $-1 $287 -2.2666621386675736 $419 34.410138727398902 $280 $420 forward 7 unknown #
coedge $-1 $421 $422 $165 $283 forward $411 $-1 #
edge $-1 $423 -50.787781818071686 $286 -41.967138235761468 $282 $424 forward 7 unknown #
edge $-1 $287 -12.474273638228892 $423 2.0097183471152325e-014 $166 $425 forward 7 unknown #
coedge $-1 $167 $415 $421 $426 forward $275 $-1 #
vertex $-1 $283 $427 #
vertex $-1 $168 $428 #
straight-curve $-1 -13.805076155698089 -69.598940778936679 11.366967679822672 0 1 0 I I #
coedge $-1 $289 $289 $-1 $429 reversed $171 $-1 #
edge $-1 $430 0 $430 6.2831853071796004 $172 $431 forward 7 unknown #
vertex $-1 $175 $432 #
ellipse-curve $-1 -32.143476588731332 -30.665669719245237 6.95664588866756 0 -0.70710678939079041 0.70710677298230451 1.5 0 0 1 I I #
face $-1 $-1 $305 $38 $-1 $433 forward single #
loop $-1 $-1 $434 $176 #
plane-surface $-1 0 35.075991408058371 0 0 -1 0 0 0 -1 forward_v I I I I #
coedge $-1 $435 $436 $437 $438 reversed $177 $-1 #
coedge $-1 $439 $179 $181 $303 forward $110 $-1 #
coedge $-1 $179 $439 $435 $440 forward $110 $-1 #
coedge $-1 $437 $182 $179 $300 forward $305 $-1 #
edge $-1 $307 -29.17865321922649 $441 -15.793883009793277 $299 $442 forward 7 unknown #
coedge $-1 $443 $444 $180 $302 forward $294 $-1 #
edge $-1 $445 -75.691826723621318 $306 -70.096475928683788 $301 $446 forward 7 unknown #
edge $-1 $307 61.623252199447521 $445 70.151982816116799 $181 $447 forward 7 unknown #
coedge $-1 $182 $437 $443 $448 forward $305 $-1 #
loop $-1 $-1 $437 $293 #
vertex $-1 $302 $449 #
vertex $-1 $183 $450 #
straight-curve $-1 -51.664921333736373 39.36834850385101 11.366967679822665 0 -1 0 I I #
coedge $-1 $309 $309 $-1 $451 reversed $186 $-1 #
edge $-1 $452 0 $452 6.2831853071796004 $187 $453 forward 7 unknown #
vertex $-1 $190 $454 #
ellipse-curve $-1 -47.840701273898311 31.85763408586341 8.5692922823539082 0 0.6560590369687036 0.75470957328743171 1 0 0 1 I I #
coedge $-1 $313 $313 $-1 $455 reversed $193 $-1 #
edge $-1 $456 0 $456 6.2831853071796004 $194 $457 forward 7 unknown #
vertex $-1 $197 $458 #
ellipse-curve $-1 -42.104371184141222 31.85763408586341 8.5692922823539082 0 0.6560590369687036 0.75470957328743171 1 0 0 1 I I #
face $-1 $-1 $459 $41 $-1 $460 reversed single #
loop $-1 $-1 $204 $198 #
plane-surface $-1 0 0 11.36696767982267 0 0 1 1 0 0 forward_v I I I I #
coedge $-1 $461 $462 $463 $464 reversed $199 $-1 #
coedge $-1 $465 $201 $203 $327 forward $124 $-1 #
coedge $-1 $201 $465 $461 $466 forward $124 $-1 #
coedge $-1 $463 $204 $201 $324 forward $318 $-1 #
edge $-1 $330 3.8822074489953966 $467 17.266977658428608 $323 $468 forward 7 unknown #
coedge $-1 $469 $470 $202 $326 forward $459 $-1 #
edge $-1 $471 -75.691826723621318 $329 -70.096475928683788 $325 $472 forward 7 unknown #
edge $-1 $330 61.623252199447521 $471 70.151982816116799 $203 $473 forward 7 unknown #
coedge $-1 $204 $463 $469 $474 forward $318 $-1 #
vertex $-1 $205 $475 #
vertex $-1 $205 $476 #
straight-curve $-1 14.456800002707398 39.36834850385101 11.366967679822665 0 -1 0 I I #
coedge $-1 $332 $332 $-1 $477 reversed $208 $-1 #
edge $-1 $478 0 $478 6.2831853071796004 $209 $479 forward 7 unknown #
vertex $-1 $212 $480 #
ellipse-curve $-1 18.281020062545466 31.85763408586341 8.5692922823539082 0 0.6560590369687036 0.75470957328743171 1 0 0 1 I I #
coedge $-1 $336 $336 $-1 $481 reversed $215 $-1 #
edge $-1 $482 0 $482 6.2831853071796004 $216 $483 forward 7 unknown #
vertex $-1 $219 $484 #
ellipse-curve $-1 24.017350152302541 31.85763408586341 8.5692922823539082 0 0.6560590369687036 0.75470957328743171 1 0 0 1 I I #
face $-1 $-1 $235 $33 $-1 $485 reversed single #
loop $-1 $-1 $356 $220 #
plane-surface $-1 0 35.075991408058371 0 0 -1 0 0 0 -1 forward_v I I I I #
coedge $-1 $486 $354 $357 $487 forward $221 $-1 #
coedge $-1 $360 $223 $224 $348 reversed $138 $-1 #
coedge $-1 $354 $486 $223 $346 reversed $221 $-1 #
edge $-1 $361 -11.36696767982267 $488 11.36696767982267 $345 $489 forward 7 unknown #
coedge $-1 $225 $224 $486 $490 forward $89 $-1 #
edge $-1 $352 -73.625293740653703 $488 73.625293740653703 $344 $491 forward 7 unknown #
coedge $-1 $357 $356 $225 $350 reversed $341 $-1 #
edge $-1 $492 -73.625293740653703 $351 73.625293740653703 $349 $493 forward 7 unknown #
vertex $-1 $227 $494 #
vertex $-1 $363 $495 #
straight-curve $-1 73.625293740653703 0 -11.36696767982267 0 -1 0 I I #
coedge $-1 $343 $345 $228 $355 reversed $221 $-1 #
edge $-1 $358 -35.075991408058371 $361 35.075991408058371 $354 $496 forward 7 unknown #
coedge $-1 $349 $229 $234 $364 forward $341 $-1 #
coedge $-1 $229 $349 $343 $487 reversed $341 $-1 #
vertex $-1 $230 $497 #
straight-curve $-1 0 35.075991408058371 11.36696767982267 -1 0 0 I I #
coedge $-1 $231 $344 $233 $363 reversed $138 $-1 #
vertex $-1 $355 $498 #
straight-curve $-1 0 -35.075991408058371 11.36696767982267 1 0 0 I I #
edge $-1 $236 -11.36696767982267 $352 11.36696767982267 $233 $499 forward 7 unknown #
edge $-1 $237 -11.36696767982267 $351 11.36696767982267 $234 $500 forward 7 unknown #
point $-1 73.625293740653703 -35.075991408058371 11.36696767982267 #
point $-1 73.625293740653703 35.075991408058371 11.36696767982267 #
face $-1 $-1 $376 $34 $-1 $501 reversed single #
loop $-1 $-1 $373 $239 #
plane-surface $-1 0 0 11.36696767982267 0 0 1 1 0 0 forward_v I I I I #
coedge $-1 $502 $503 $246 $379 forward $240 $-1 #
coedge $-1 $242 $383 $504 $505 reversed $146 $-1 #
edge $-1 $506 -6.8668563945484733 $252 -2.1333661759999236 $242 $507 forward 7 unknown #
coedge $-1 $504 $508 $243 $374 forward $368 $-1 #
edge $-1 $377 -35.075991408058371 $506 35.075991408058371 $373 $509 forward 7 unknown #
coedge $-1 $380 $244 $508 $510 reversed $376 $-1 #
loop $-1 $-1 $244 $367 #
vertex $-1 $245 $511 #
straight-curve $-1 -66.12172133644377 -35.075991408058371 4.5001112852741985 0 0 1 I I #
edge $-1 $384 -35.075991408058371 $381 35.075991408058371 $370 $512 forward 7 unknown #
coedge $-1 $247 $375 $502 $513 forward $376 $-1 #
vertex $-1 $379 $514 #
straight-curve $-1 -34.936753769274368 -35.075991408058371 6.6334774612741221 1 0 0 I I #
coedge $-1 $371 $249 $503 $515 reversed $146 $-1 #
vertex $-1 $379 $516 #
straight-curve $-1 -34.936753769274368 35.075991408058371 6.6334774612741221 -1 0 0 I I #
point $-1 -66.12172133644377 35.075991408058371 6.6334774612741221 #
point $-1 -66.12172133644377 -35.075991408058371 6.6334774612741221 #
face $-1 $-1 $270 $35 $-1 $517 reversed single #
loop $-1 $-1 $261 $255 #
plane-surface $-1 0 35.075991408058371 0 0 -1 0 0 0 -1 forward_v I I I I #
coedge $-1 $264 $518 $395 $519 forward $256 $-1 #
coedge $-1 $520 $258 $518 $521 forward $154 $-1 #
coedge $-1 $258 $520 $397 $522 forward $154 $-1 #
edge $-1 $399 -35.075991408058371 $523 35.075991408058371 $258 $524 forward 7 unknown #
coedge $-1 $260 $259 $391 $519 reversed $97 $-1 #
edge $-1 $402 -35.075991408058371 $398 35.075991408058371 $259 $525 forward 7 unknown #
coedge $-1 $404 $261 $393 $522 reversed $389 $-1 #
vertex $-1 $267 $526 #
vertex $-1 $262 $527 #
straight-curve $-1 66.12172133644377 35.075991408058371 4.5001112852741985 0 0 1 I I #
coedge $-1 $518 $264 $269 $408 reversed $256 $-1 #
vertex $-1 $265 $528 #
straight-curve $-1 34.936753769274368 -35.075991408058371 6.6334774612741221 1 0 0 I I #
coedge $-1 $266 $397 $268 $407 forward $389 $-1 #
straight-curve $-1 34.936753769274368 35.075991408058371 6.6334774612741221 -1 0 0 I I #
coedge $-1 $269 $268 $520 $529 reversed $270 $-1 #
edge $-1 $530 -11.36696767982267 $272 -6.6334774612741221 $268 $531 forward 7 unknown #
edge $-1 $532 -11.36696767982267 $271 -6.6334774612741221 $269 $533 forward 7 unknown #
point $-1 73.625293740653703 -35.075991408058371 6.6334774612741221 #
point $-1 73.625293740653703 35.075991408058371 6.6334774612741221 #
loop $-1 $-1 $282 $274 #
plane-surface $-1 0 -35.075991408058371 0 0 1 0 0 0 1 forward_v I I I I #
coedge $-1 $414 $277 $279 $418 reversed $162 $-1 #
coedge $-1 $277 $413 $534 $535 reversed $162 $-1 #
coedge $-1 $285 $280 $277 $416 forward $275 $-1 #
edge $-1 $419 -43.343592748504584 $536 -34.522949370878308 $415 $537 forward 7 unknown #
coedge $-1 $279 $278 $422 $538 reversed $101 $-1 #
edge $-1 $539 -2.0097183471152325e-014 $419 12.474273638228892 $413 $540 forward 7 unknown #
vertex $-1 $281 $541 #
straight-curve $-1 -16.071738294365662 -26.255348030432096 11.36696767982267 -1 0 0 I I #
coedge $-1 $534 $282 $285 $426 reversed $411 $-1 #
coedge $-1 $282 $534 $417 $538 forward $411 $-1 #
vertex $-1 $283 $542 #
straight-curve $-1 -13.805076155698089 -35.075991408058371 53.334105915584139 0 0 1 I I #
straight-curve $-1 -13.805076155698089 -35.075991408058357 2.5463240975124677 0 -0.70710677298230451 -0.70710678939079041 I I #
edge $-1 $536 -50.481877021764561 $286 -13.805076155698089 $421 $543 forward 7 unknown #
point $-1 -13.805076155698089 -35.075991408058371 11.36696767982267 #
point $-1 -13.805076155698089 -26.255348030432096 11.36696767982267 #
edge $-1 $544 1 $544 0 $289 $-1 forward 7 unknown #
vertex $-1 $290 $545 #
ellipse-curve $-1 -32.143476588731332 -27.064727261330773 3.3557035143133418 0 -0.70710678939079041 0.70710677298230451 1.5 0 0 1 I I #
point $-1 -30.643476588731332 -30.665669719245251 6.9566458886675777 #
plane-surface $-1 0 0 11.36696767982267 0 0 1 1 0 0 forward_v I I I I #
coedge $-1 $444 $443 $436 $546 forward $294 $-1 #
coedge $-1 $436 $296 $298 $440 reversed $177 $-1 #
coedge $-1 $296 $435 $434 $546 reversed $177 $-1 #
coedge $-1 $304 $299 $296 $438 forward $305 $-1 #
edge $-1 $441 -10.729071740182555 $547 -4.2923570957926387 $437 $548 forward 7 unknown #
coedge $-1 $298 $297 $444 $549 reversed $110 $-1 #
edge $-1 $550 -70.151982816116799 $441 -61.623252199447521 $435 $551 forward 7 unknown #
vertex $-1 $300 $552 #
straight-curve $-1 -22.486268114509883 28.639276763668455 11.366967679822672 1 0 0 I I #
coedge $-1 $434 $301 $304 $448 reversed $294 $-1 #
coedge $-1 $301 $434 $439 $549 forward $294 $-1 #
vertex $-1 $302 $553 #
straight-curve $-1 -51.664921333736373 35.075991408058371 81.463443608506452 0 0 1 I I #
straight-curve $-1 -51.664921333736373 -17.868381608360366 51.795459172671755 0 0.75470957328743171 -0.6560590369687036 I I #
edge $-1 $547 38.28015112430316 $306 51.664921333736373 $443 $554 forward 7 unknown #
point $-1 -51.664921333736373 35.075991408058371 11.36696767982267 #
point $-1 -51.664921333736373 28.639276763668455 11.366967679822672 #
edge $-1 $555 1 $555 0 $309 $-1 forward 7 unknown #
vertex $-1 $310 $556 #
ellipse-curve $-1 -47.840701273898311 29.245891631005012 5.5648263386329297 0 0.6560590369687036 0.75470957328743171 1 0 0 1 I I #
point $-1 -46.840701273898311 31.857634085863424 8.5692922823539224 #
edge $-1 $557 1 $557 0 $313 $-1 forward 7 unknown #
vertex $-1 $314 $558 #
ellipse-curve $-1 -42.104371184141222 29.245891631005012 5.5648263386329297 0 0.6560590369687036 0.75470957328743171 1 0 0 1 I I #
point $-1 -41.104371184141222 31.857634085863424 8.5692922823539224 #
loop $-1 $-1 $325 $317 #
plane-surface $-1 0 35.075991408058371 0 0 -1 0 0 0 -1 forward_v I I I I #
coedge $-1 $462 $320 $322 $466 reversed $199 $-1 #
coedge $-1 $320 $461 $559 $560 reversed $199 $-1 #
coedge $-1 $328 $323 $320 $464 forward $318 $-1 #
edge $-1 $467 -10.729071740182555 $561 -4.2923570957926387 $463 $562 forward 7 unknown #
coedge $-1 $322 $321 $470 $563 reversed $124 $-1 #
edge $-1 $564 -70.151982816116799 $467 -61.623252199447521 $461 $565 forward 7 unknown #
vertex $-1 $324 $566 #
straight-curve $-1 10.574592553712002 28.639276763668455 11.366967679822672 1 0 0 I I #
coedge $-1 $559 $325 $328 $474 reversed $459 $-1 #
coedge $-1 $325 $559 $465 $563 forward $459 $-1 #
vertex $-1 $326 $567 #
straight-curve $-1 14.456800002707398 35.075991408058371 81.463443608506452 0 0 1 I I #
straight-curve $-1 14.456800002707398 -17.868381608360366 51.795459172671755 0 0.75470957328743171 -0.6560590369687036 I I #
edge $-1 $561 -27.84157021214061 $329 -14.456800002707398 $469 $568 forward 7 unknown #
point $-1 14.456800002707398 35.075991408058371 11.36696767982267 #
point $-1 14.456800002707398 28.639276763668455 11.366967679822672 #
edge $-1 $569 1 $569 0 $332 $-1 forward 7 unknown #
vertex $-1 $333 $570 #
ellipse-curve $-1 18.281020062545466 29.245891631005012 5.5648263386329297 0 0.6560590369687036 0.75470957328743171 1 0 0 1 I I #
point $-1 19.281020062545466 31.857634085863424 8.5692922823539224 #
edge $-1 $571 1 $571 0 $336 $-1 forward 7 unknown #
vertex $-1 $337 $572 #
ellipse-curve $-1 24.017350152302541 29.245891631005012 5.5648263386329297 0 0.6560590369687036 0.75470957328743171 1 0 0 1 I I #
point $-1 25.017350152302541 31.857634085863424 8.5692922823539224 #
plane-surface $-1 73.625293740653703 0 0 -1 0 0 0 0 1 forward_v I I I I #
coedge $-1 $345 $343 $347 $490 reversed $221 $-1 #
edge $-1 $358 -11.36696767982267 $492 11.36696767982267 $357 $573 forward 7 unknown #
vertex $-1 $490 $574 #
straight-curve $-1 -73.625293740653703 -35.075991408058371 0 0 0 -1 I I #
edge $-1 $488 -35.075991408058371 $492 35.075991408058371 $486 $575 forward 7 unknown #
straight-curve $-1 0 -35.075991408058371 -11.36696767982267 -1 0 0 I I #
vertex $-1 $350 $576 #
straight-curve $-1 0 35.075991408058371 -11.36696767982267 1 0 0 I I #
point $-1 73.625293740653703 35.075991408058371 -11.36696767982267 #
point $-1 73.625293740653703 -35.075991408058371 -11.36696767982267 #
straight-curve $-1 -73.625293740653703 0 11.36696767982267 0 -1 0 I I #
point $-1 -73.625293740653703 35.075991408058371 11.36696767982267 #
point $-1 -73.625293740653703 -35.075991408058371 11.36696767982267 #
straight-curve $-1 73.625293740653703 -35.075991408058371 0 0 0 -1 I I #
straight-curve $-1 73.625293740653703 35.075991408058371 0 0 0 -1 I I #
plane-surface $-1 0 -35.075991408058371 0 0 1 0 0 0 1 forward_v I I I I #
coedge $-1 $577 $370 $380 $513 reversed $240 $-1 #
coedge $-1 $370 $577 $383 $515 forward $240 $-1 #
coedge $-1 $578 $373 $371 $505 forward $368 $-1 #
edge $-1 $506 66.12172133644377 $579 73.625293740653703 $371 $580 forward 7 unknown #
vertex $-1 $505 $581 #
straight-curve $-1 -66.12172133644377 35.075991408058371 4.5001112852741985 0 0 -1 I I #
coedge $-1 $373 $578 $375 $510 forward $368 $-1 #
straight-curve $-1 -66.12172133644377 0 11.36696767982267 0 1 0 I I #
edge $-1 $582 -73.625293740653703 $377 -66.12172133644377 $375 $583 forward 7 unknown #
point $-1 -66.12172133644377 -35.075991408058371 11.366967679822672 #
straight-curve $-1 -73.625293740653703 0 6.6334774612741221 0 -1 0 I I #
edge $-1 $582 -11.36696767982267 $381 -6.6334774612741221 $502 $584 forward 7 unknown #
point $-1 -73.625293740653703 -35.075991408058371 6.6334774612741221 #
edge $-1 $579 -11.36696767982267 $384 -6.6334774612741221 $383 $585 forward 7 unknown #
point $-1 -73.625293740653703 35.075991408058371 6.6334774612741221 #
plane-surface $-1 73.625293740653703 0 0 -1 0 0 0 0 1 forward_v I I I I #
coedge $-1 $391 $401 $392 $521 reversed $256 $-1 #
edge $-1 $523 -6.8668563945484733 $402 -2.1333661759999236 $391 $586 forward 7 unknown #
coedge $-1 $393 $392 $406 $529 forward $154 $-1 #
edge $-1 $523 66.12172133644377 $532 73.625293740653703 $518 $587 forward 7 unknown #
edge $-1 $530 -73.625293740653703 $399 -66.12172133644377 $397 $588 forward 7 unknown #
vertex $-1 $521 $589 #
straight-curve $-1 66.12172133644377 0 11.36696767982267 0 -1 0 I I #
straight-curve $-1 66.12172133644377 0 6.6334774612741221 0 1 0 I I #
point $-1 66.12172133644377 35.075991408058371 6.6334774612741221 #
point $-1 66.12172133644377 35.075991408058371 11.366967679822672 #
point $-1 66.12172133644377 -35.075991408058371 6.6334774612741221 #
edge $-1 $532 -35.075991408058371 $530 35.075991408058371 $406 $590 forward 7 unknown #
vertex $-1 $529 $591 #
straight-curve $-1 73.625293740653703 35.075991408058371 0 0 0 -1 I I #
vertex $-1 $529 $592 #
straight-curve $-1 73.625293740653703 -35.075991408058371 0 0 0 -1 I I #
coedge $-1 $422 $421 $414 $535 forward $411 $-1 #
edge $-1 $536 41.967138235761468 $539 50.787781818071686 $534 $593 forward 7 unknown #
vertex $-1 $426 $594 #
straight-curve $-1 -50.481877021764561 -69.598940778936679 11.366967679822672 0 -1 0 I I #
edge $-1 $539 -34.410138727398902 $423 2.2666621386675736 $422 $595 forward 7 unknown #
vertex $-1 $538 $596 #
straight-curve $-1 -50.481877021764561 -35.075991408058357 2.5463240975124677 0 0.70710677298230451 0.70710678939079041 I I #
point $-1 -50.481877021764561 -26.255348030432096 11.36696767982267 #
point $-1 -13.805076155698089 -35.075991408058371 2.5463240975124535 #
straight-curve $-1 0 -35.075991408058371 11.36696767982267 1 0 0 I I #
vertex $-1 $429 $597 #
point $-1 -30.643476588731332 -27.064727261330773 3.3557035143133418 #
edge $-1 $547 70.096475928683788 $550 75.691826723621318 $434 $598 forward 7 unknown #
vertex $-1 $448 $599 #
straight-curve $-1 -38.28015112430316 39.36834850385101 11.366967679822665 0 1 0 I I #
edge $-1 $550 15.793883009793277 $445 29.17865321922649 $444 $600 forward 7 unknown #
vertex $-1 $549 $601 #
straight-curve $-1 -38.28015112430316 -17.868381608360366 51.795459172671755 0 -0.75470957328743171 0.6560590369687036 I I #
point $-1 -38.28015112430316 28.639276763668455 11.366967679822672 #
point $-1 -51.664921333736373 35.075991408058378 5.7716168848851339 #
straight-curve $-1 0 35.075991408058371 11.36696767982267 -1 0 0 I I #
vertex $-1 $451 $602 #
point $-1 -46.840701273898311 29.245891631005012 5.5648263386329297 #
vertex $-1 $455 $603 #
point $-1 -41.104371184141222 29.245891631005012 5.5648263386329297 #
coedge $-1 $470 $469 $462 $560 forward $459 $-1 #
edge $-1 $561 70.096475928683788 $564 75.691826723621318 $559 $604 forward 7 unknown #
vertex $-1 $474 $605 #
straight-curve $-1 27.84157021214061 39.36834850385101 11.366967679822665 0 1 0 I I #
edge $-1 $564 -17.266977658428608 $471 -3.8822074489953966 $470 $606 forward 7 unknown #
vertex $-1 $563 $607 #
straight-curve $-1 27.84157021214061 -17.868381608360366 51.795459172671755 0 -0.75470957328743171 0.6560590369687036 I I #
point $-1 27.84157021214061 28.639276763668455 11.366967679822672 #
point $-1 14.456800002707398 35.075991408058378 5.7716168848851339 #
straight-curve $-1 0 35.075991408058371 11.36696767982267 -1 0 0 I I #
vertex $-1 $477 $608 #
point $-1 19.281020062545466 29.245891631005012 5.5648263386329297 #
vertex $-1 $481 $609 #
point $-1 25.017350152302541 29.245891631005012 5.5648263386329297 #
straight-curve $-1 -73.625293740653703 35.075991408058371 0 0 0 -1 I I #
point $-1 -73.625293740653703 -35.075991408058371 -11.36696767982267 #
straight-curve $-1 -73.625293740653703 0 -11.36696767982267 0 1 0 I I #
point $-1 -73.625293740653703 35.075991408058371 -11.36696767982267 #
coedge $-1 $503 $502 $578 $610 reversed $240 $-1 #
coedge $-1 $508 $504 $577 $610 forward $368 $-1 #
vertex $-1 $505 $611 #
straight-curve $-1 0 35.075991408058371 11.36696767982267 -1 0 0 I I #
point $-1 -66.12172133644377 35.075991408058371 11.366967679822672 #
vertex $-1 $610 $612 #
straight-curve $-1 0 -35.075991408058371 11.36696767982267 1 0 0 I I #
straight-curve $-1 -73.625293740653703 -35.075991408058371 0 0 0 -1 I I #
straight-curve $-1 -73.625293740653703 35.075991408058371 0 0 0 -1 I I #
straight-curve $-1 66.12172133644377 -35.075991408058371 4.5001112852741985 0 0 -1 I I #
straight-curve $-1 0 -35.075991408058371 11.36696767982267 1 0 0 I I #
straight-curve $-1 0 35.075991408058371 11.36696767982267 -1 0 0 I I #
point $-1 66.12172133644377 -35.075991408058371 11.366967679822672 #
straight-curve $-1 73.625293740653703 0 11.36696767982267 0 1 0 I I #
point $-1 73.625293740653703 35.075991408058371 11.36696767982267 #
point $-1 73.625293740653703 -35.075991408058371 11.36696767982267 #
straight-curve $-1 -50.481877021764561 -35.075991408058371 53.334105915584139 0 0 -1 I I #
point $-1 -50.481877021764561 -35.075991408058371 11.36696767982267 #
straight-curve $-1 -16.071738294365662 -35.075991408058371 2.5463240975124499 1 0 0 I I #
point $-1 -50.481877021764561 -35.075991408058371 2.5463240975124535 #
point $-1 -32.143476588731332 -26.004067077244592 2.2950433548398856 #
straight-curve $-1 -38.28015112430316 35.075991408058371 81.463443608506452 0 0 -1 I I #
point $-1 -38.28015112430316 35.075991408058371 11.36696767982267 #
straight-curve $-1 -22.486268114509883 35.075991408058371 5.7716168848851304 -1 0 0 I I #
point $-1 -38.28015112430316 35.075991408058378 5.7716168848851339 #
point $-1 -47.840701273898311 28.589832594036306 4.8101167653454979 #
point $-1 -42.104371184141222 28.589832594036306 4.8101167653454979 #
straight-curve $-1 27.84157021214061 35.075991408058371 81.463443608506452 0 0 -1 I I #
point $-1 27.84157021214061 35.075991408058371 11.36696767982267 #
straight-curve $-1 10.574592553712002 35.075991408058371 5.7716168848851304 -1 0 0 I I #
point $-1 27.84157021214061 35.075991408058378 5.7716168848851339 #
point $-1 18.281020062545466 28.589832594036306 4.8101167653454979 #
point $-1 24.017350152302541 28.589832594036306 4.8101167653454979 #
edge $-1 $579 -35.075991408058371 $582 35.075991408058371 $577 $613 forward 7 unknown #
point $-1 -73.625293740653703 35.075991408058371 11.36696767982267 #
point $-1 -73.625293740653703 -35.075991408058371 11.36696767982267 #
straight-curve $-1 -73.625293740653703 0 11.36696767982267 0 -1 0 I I #
End-of-ACIS-data 