500 0 5 0           
7 Unknown 11 ACIS 5.0 NT 24 Thu Mar 25 22:40:37 1999 
-1 9.9999999999999995e-007 1e-010 
body $-1 $5 $-1 $6 #
body $-1 $7 $-1 $8 #
body $-1 $9 $-1 $10 #
body $-1 $11 $-1 $12 #
body $-1 $13 $-1 $14 #
lump $-1 $-1 $15 $0 #
transform $-1 1 0 0 0 1 0 0 0 1 59.838251899777219 39.720568425442799 17.286272097038388 1 rotate no_reflect no_shear #
lump $-1 $-1 $16 $1 #
transform $-1 1 0 0 0 1 0 0 0 1 59.838251899777219 39.720568425442799 17.286272097038388 1 rotate no_reflect no_shear #
lump $-1 $-1 $17 $2 #
transform $-1 1 0 0 0 1 0 0 0 1 59.838251899777219 39.720568425442799 17.286272097038388 1 rotate no_reflect no_shear #
lump $-1 $-1 $18 $3 #
transform $-1 1 0 0 0 1 0 0 0 1 59.838251899777219 39.720568425442799 17.286272097038388 1 rotate no_reflect no_shear #
lump $-1 $-1 $19 $4 #
transform $-1 1 0 0 0 1 0 0 0 1 59.838251899777219 39.720568425442799 17.286272097038388 1 rotate no_reflect no_shear #
shell $-1 $-1 $-1 $20 $-1 $5 #
shell $-1 $-1 $-1 $21 $-1 $7 #
shell $-1 $-1 $-1 $22 $-1 $9 #
shell $-1 $-1 $-1 $23 $-1 $11 #
shell $-1 $-1 $-1 $24 $-1 $13 #
face $-1 $25 $26 $15 $-1 $27 forward single #
face $-1 $28 $29 $16 $-1 $30 forward single #
face $-1 $31 $32 $17 $-1 $33 reversed single #
face $-1 $34 $35 $18 $-1 $36 forward single #
face $-1 $37 $38 $19 $-1 $39 forward single #
face $-1 $40 $41 $15 $-1 $42 reversed single #
loop $-1 $-1 $43 $20 #
plane-surface $-1 0 0 17.286272097038388 0 0 1 1 0 0 forward_v I I I I #
face $-1 $44 $45 $16 $-1 $46 reversed single #
loop $-1 $-1 $47 $21 #
plane-surface $-1 -59.838251899777219 0 0 1 0 0 0 0 -1 forward_v I I I I #
face $-1 $48 $49 $17 $-1 $50 reversed single #
loop $-1 $-1 $51 $22 #
plane-surface $-1 -21.48438990788706 60.763511737706715 142.84469101628738 1 0 0 0 -0.66913061440640931 -0.74314481823134659 forward_v I I I I #
face $-1 $52 $53 $18 $-1 $54 forward single #
loop $-1 $55 $56 $23 #
cone-surface $-1 -18.089441812963322 29.320298199602956 7.6657394972379249 0 -0.66913061440640931 -0.74314481823134659 1.5 0 0 1 I I 0 1 1.5 forward I I I I #
face $-1 $57 $58 $19 $-1 $59 forward single #
loop $-1 $60 $61 $24 #
cone-surface $-1 -12.997019670577714 29.320298199602956 7.6657394972379249 0 -0.66913061440640931 -0.74314481823134659 1.5 0 0 1 I I 0 1 1.5 forward I I I I #
face $-1 $62 $63 $15 $-1 $64 reversed single #
loop $-1 $-1 $65 $25 #
plane-surface $-1 0 0 -17.286272097038388 0 0 1 1 0 0 forward_v I I I I #
coedge $-1 $66 $67 $68 $69 forward $26 $-1 #
face $-1 $70 $71 $16 $-1 $72 forward single #
loop $-1 $-1 $73 $28 #
plane-surface $-1 0 39.720568425442799 0 0 -1 0 0 0 -1 forward_v I I I I #
coedge $-1 $74 $75 $76 $77 forward $29 $-1 #
face $-1 $78 $79 $17 $-1 $80 reversed single #
loop $-1 $-1 $81 $31 #
plane-surface $-1 -15.543230741770515 -19.315700779700116 53.907717353604454 0 0.66913061440640931 0.74314481823134659 1 0 0 forward_v I I I I #
coedge $-1 $82 $83 $84 $85 reversed $32 $-1 #
face $-1 $-1 $86 $18 $-1 $87 forward single #
loop $-1 $88 $89 $34 #
cone-surface $-1 -18.089441812963322 27.600197351860167 5.7553740105692661 0 -0.66913061440640931 -0.74314481823134659 0.75 0 0 1 I I -0.70710678118654757 0.70710678118654757 0.75 forward I I I I #
loop $-1 $-1 $90 $23 #
coedge $-1 $56 $56 $91 $92 reversed $35 $-1 #
face $-1 $-1 $93 $19 $-1 $94 forward single #
loop $-1 $95 $96 $37 #
cone-surface $-1 -12.997019670577714 27.600197351860167 5.7553740105692661 0 -0.66913061440640931 -0.74314481823134659 0.75 0 0 1 I I -0.70710678118654757 0.70710678118654757 0.75 forward I I I I #
loop $-1 $-1 $97 $24 #
coedge $-1 $61 $61 $98 $99 reversed $38 $-1 #
face $-1 $100 $101 $15 $-1 $102 reversed single #
loop $-1 $-1 $103 $40 #
plane-surface $-1 0 -39.720568425442799 0 0 1 0 0 0 1 forward_v I I I I #
coedge $-1 $104 $105 $106 $107 forward $41 $-1 #
coedge $-1 $108 $43 $109 $110 forward $26 $-1 #
coedge $-1 $43 $108 $111 $112 forward $26 $-1 #
coedge $-1 $113 $114 $43 $69 reversed $115 $-1 #
edge $-1 $116 -39.720568425442799 $117 39.720568425442799 $68 $118 forward 7 unknown #
face $-1 $119 $120 $16 $-1 $121 reversed single #
loop $-1 $-1 $76 $44 #
plane-surface $-1 -71.074840487573212 0 -9.1000481937642554 0 0 1 1 0 0 forward_v I I I I #
coedge $-1 $122 $123 $75 $124 forward $45 $-1 #
coedge $-1 $125 $47 $126 $127 reversed $29 $-1 #
coedge $-1 $47 $125 $73 $124 reversed $29 $-1 #
coedge $-1 $128 $129 $47 $77 reversed $71 $-1 #
edge $-1 $130 -39.720568425442799 $131 39.720568425442799 $76 $132 forward 7 unknown #
face $-1 $133 $134 $17 $-1 $135 forward single #
loop $-1 $-1 $136 $48 #
plane-surface $-1 -9.6020715756539694 60.763511737706715 142.84469101628738 -1 0 0 0 0.66913061440640931 0.74314481823134659 forward_v I I I I #
coedge $-1 $137 $138 $139 $140 reversed $49 $-1 #
coedge $-1 $83 $51 $141 $142 reversed $32 $-1 #
coedge $-1 $51 $82 $137 $143 reversed $32 $-1 #
coedge $-1 $139 $144 $51 $85 forward $134 $-1 #
edge $-1 $145 -9.338812556589442 $146 9.0252221212143589 $84 $147 forward 7 unknown #
loop $-1 $-1 $91 $52 #
plane-surface $-1 -15.543230741770515 -19.315700779700116 53.907717353604454 0 0.66913061440640931 0.74314481823134659 1 0 0 forward_v I I I I #
loop $-1 $-1 $148 $34 #
coedge $-1 $89 $89 $90 $149 reversed $53 $-1 #
coedge $-1 $90 $90 $89 $149 forward $55 $-1 #
coedge $-1 $91 $91 $56 $92 forward $86 $-1 #
edge $-1 $150 2.5939526851558742e-016 $150 6.2831853071796004 $91 $151 forward 7 unknown #
loop $-1 $-1 $98 $57 #
plane-surface $-1 -15.543230741770515 -19.315700779700116 53.907717353604454 0 0.66913061440640931 0.74314481823134659 1 0 0 forward_v I I I I #
loop $-1 $-1 $152 $37 #
coedge $-1 $96 $96 $97 $153 reversed $58 $-1 #
coedge $-1 $97 $97 $96 $153 forward $60 $-1 #
coedge $-1 $98 $98 $61 $99 forward $93 $-1 #
edge $-1 $154 2.5939526851558742e-016 $154 6.2831853071796004 $98 $155 forward 7 unknown #
face $-1 $156 $157 $15 $-1 $158 reversed single #
loop $-1 $-1 $159 $62 #
plane-surface $-1 -59.838251899777219 0 0 1 0 0 0 0 -1 forward_v I I I I #
coedge $-1 $160 $111 $159 $161 forward $63 $-1 #
coedge $-1 $162 $65 $160 $163 forward $41 $-1 #
coedge $-1 $65 $162 $164 $165 forward $41 $-1 #
coedge $-1 $114 $113 $65 $107 reversed $115 $-1 #
edge $-1 $166 -39.720568425442799 $167 39.720568425442799 $106 $168 forward 7 unknown #
coedge $-1 $67 $66 $169 $170 forward $26 $-1 #
coedge $-1 $171 $172 $66 $110 reversed $157 $-1 #
edge $-1 $117 -59.838251899777219 $173 59.838251899777219 $109 $174 forward 7 unknown #
coedge $-1 $103 $175 $67 $112 reversed $63 $-1 #
edge $-1 $176 -59.838251899777219 $116 59.838251899777219 $111 $177 forward 7 unknown #
coedge $-1 $106 $68 $175 $178 forward $115 $-1 #
coedge $-1 $68 $106 $171 $179 reversed $115 $-1 #
loop $-1 $-1 $113 $156 #
vertex $-1 $69 $180 #
vertex $-1 $69 $181 #
straight-curve $-1 59.838251899777219 0 17.286272097038388 0 1 0 I I #
face $-1 $182 $183 $16 $-1 $184 reversed single #
loop $-1 $-1 $185 $70 #
plane-surface $-1 -82.311429075369205 0 -13.193160145401322 1 0 0 0 0 -1 forward_v I I I I #
coedge $-1 $186 $73 $187 $188 reversed $45 $-1 #
coedge $-1 $73 $186 $128 $189 reversed $45 $-1 #
edge $-1 $130 9.1000481937642554 $190 17.286272097038388 $73 $191 forward 7 unknown #
coedge $-1 $75 $74 $192 $193 reversed $29 $-1 #
coedge $-1 $194 $195 $74 $127 forward $196 $-1 #
edge $-1 $197 -17.286272097038388 $131 -9.1000481937642554 $126 $198 forward 7 unknown #
coedge $-1 $199 $76 $123 $189 forward $71 $-1 #
coedge $-1 $76 $199 $194 $200 forward $71 $-1 #
vertex $-1 $124 $201 #
vertex $-1 $200 $202 #
straight-curve $-1 -59.838251899777219 0 -9.1000481937642554 0 -1 0 I I #
face $-1 $-1 $203 $17 $-1 $204 reversed single #
loop $-1 $-1 $84 $78 #
plane-surface $-1 0 0 17.286272097038388 0 0 1 1 0 0 forward_v I I I I #
coedge $-1 $205 $206 $207 $208 reversed $79 $-1 #
coedge $-1 $209 $81 $83 $143 forward $49 $-1 #
coedge $-1 $81 $209 $205 $210 forward $49 $-1 #
coedge $-1 $207 $84 $81 $140 forward $134 $-1 #
edge $-1 $146 -13.712774537001803 $211 -1.8304562047687121 $139 $212 forward 7 unknown #
coedge $-1 $213 $214 $82 $142 forward $203 $-1 #
edge $-1 $215 -70.671124864715978 $145 -54.136073411105301 $141 $216 forward 7 unknown #
edge $-1 $146 54.729890499858854 $215 79.441136850885613 $83 $217 forward 7 unknown #
coedge $-1 $84 $207 $213 $218 forward $134 $-1 #
vertex $-1 $142 $219 #
vertex $-1 $85 $220 #
straight-curve $-1 -21.48438990788706 30.381755868853357 17.286272097038392 0 -1 0 I I #
coedge $-1 $148 $148 $-1 $221 reversed $88 $-1 #
edge $-1 $222 0 $222 6.2831853071796004 $89 $223 forward 7 unknown #
vertex $-1 $92 $224 #
ellipse-curve $-1 -18.089441812963322 30.538551086540913 9.0187463702330497 0 0.66913061440640931 0.74314481823134659 1.5 0 0 1 I I #
coedge $-1 $152 $152 $-1 $225 reversed $95 $-1 #
edge $-1 $226 0 $226 6.2831853071796004 $96 $227 forward 7 unknown #
vertex $-1 $99 $228 #
ellipse-curve $-1 -12.997019670577714 30.538551086540913 9.0187463702330497 0 0.66913061440640931 0.74314481823134659 1.5 0 0 1 I I #
face $-1 $-1 $115 $15 $-1 $229 reversed single #
loop $-1 $-1 $171 $100 #
plane-surface $-1 0 39.720568425442799 0 0 -1 0 0 0 -1 forward_v I I I I #
coedge $-1 $169 $230 $103 $161 reversed $101 $-1 #
coedge $-1 $175 $103 $104 $163 reversed $63 $-1 #
edge $-1 $176 -17.286272097038388 $231 17.286272097038388 $159 $232 forward 7 unknown #
coedge $-1 $105 $104 $230 $233 forward $41 $-1 #
edge $-1 $167 -59.838251899777219 $231 59.838251899777219 $160 $234 forward 7 unknown #
coedge $-1 $172 $171 $105 $165 reversed $157 $-1 #
edge $-1 $235 -59.838251899777219 $166 59.838251899777219 $164 $236 forward 7 unknown #
vertex $-1 $107 $237 #
vertex $-1 $178 $238 #
straight-curve $-1 59.838251899777219 0 -17.286272097038388 0 -1 0 I I #
coedge $-1 $239 $159 $108 $170 reversed $101 $-1 #
edge $-1 $173 -39.720568425442799 $176 39.720568425442799 $169 $240 forward 7 unknown #
coedge $-1 $164 $109 $114 $179 forward $157 $-1 #
coedge $-1 $109 $164 $239 $241 reversed $157 $-1 #
vertex $-1 $110 $242 #
straight-curve $-1 0 39.720568425442799 17.286272097038388 -1 0 0 I I #
coedge $-1 $111 $160 $113 $178 reversed $63 $-1 #
vertex $-1 $170 $243 #
straight-curve $-1 0 -39.720568425442799 17.286272097038388 1 0 0 I I #
edge $-1 $116 -17.286272097038388 $167 17.286272097038388 $113 $244 forward 7 unknown #
edge $-1 $117 -17.286272097038388 $166 17.286272097038388 $114 $245 forward 7 unknown #
point $-1 59.838251899777219 -39.720568425442799 17.286272097038388 #
point $-1 59.838251899777219 39.720568425442799 17.286272097038388 #
face $-1 $-1 $196 $16 $-1 $246 reversed single #
loop $-1 $-1 $192 $119 #
plane-surface $-1 0 0 -17.286272097038388 0 0 1 1 0 0 forward_v I I I I #
coedge $-1 $247 $248 $186 $249 forward $120 $-1 #
coedge $-1 $123 $122 $185 $249 reversed $45 $-1 #
coedge $-1 $192 $250 $122 $188 forward $183 $-1 #
edge $-1 $251 -82.311429075369205 $190 -59.838251899777219 $122 $252 forward 7 unknown #
edge $-1 $130 -11.236588587795985 $253 11.236588587795993 $123 $254 forward 7 unknown #
vertex $-1 $124 $255 #
straight-curve $-1 -59.838251899777219 39.720568425442799 0 0 0 -1 I I #
coedge $-1 $256 $187 $125 $193 forward $183 $-1 #
edge $-1 $190 -39.720568425442799 $197 39.720568425442799 $192 $257 forward 7 unknown #
coedge $-1 $258 $126 $129 $200 reversed $196 $-1 #
coedge $-1 $126 $258 $256 $259 reversed $196 $-1 #
loop $-1 $-1 $126 $182 #
vertex $-1 $259 $260 #
straight-curve $-1 -59.838251899777219 -39.720568425442799 0 0 0 1 I I #
coedge $-1 $129 $128 $248 $261 forward $71 $-1 #
edge $-1 $262 -11.236588587795993 $131 11.236588587795985 $194 $263 forward 7 unknown #
point $-1 -59.838251899777227 39.720568425442799 -9.1000481937642554 #
point $-1 -59.838251899777227 -39.720568425442799 -9.1000481937642554 #
loop $-1 $-1 $141 $133 #
plane-surface $-1 0 39.720568425442799 0 0 -1 0 0 0 -1 forward_v I I I I #
coedge $-1 $206 $136 $138 $210 reversed $79 $-1 #
coedge $-1 $136 $205 $264 $265 reversed $79 $-1 #
coedge $-1 $144 $139 $136 $208 forward $134 $-1 #
edge $-1 $211 -9.0252221212143589 $266 9.338812556589442 $207 $267 forward 7 unknown #
coedge $-1 $138 $137 $214 $268 reversed $49 $-1 #
edge $-1 $269 -79.441136850885613 $211 -54.729890499858854 $205 $270 forward 7 unknown #
vertex $-1 $140 $271 #
straight-curve $-1 -7.7716153708852573 21.356533747639013 17.286272097038385 1 0 0 I I #
coedge $-1 $264 $141 $144 $218 reversed $203 $-1 #
coedge $-1 $141 $264 $209 $268 forward $203 $-1 #
vertex $-1 $142 $272 #
straight-curve $-1 -21.48438990788706 39.720568425442799 71.422345508143692 0 0 1 I I #
straight-curve $-1 -21.48438990788706 -19.315700779700116 53.907717353604454 0 0.74314481823134659 -0.66913061440640931 I I #
edge $-1 $266 9.6020715756539694 $145 21.48438990788706 $213 $273 forward 7 unknown #
point $-1 -21.48438990788706 39.720568425442799 17.286272097038388 #
point $-1 -21.48438990788706 21.356533747638998 17.286272097038392 #
edge $-1 $274 1 $274 0 $148 $-1 forward 7 unknown #
vertex $-1 $149 $275 #
ellipse-curve $-1 -18.089441812963322 28.102045312664973 6.3127326242427761 0 0.66913061440640931 0.74314481823134659 1.5 0 0 1 I I #
point $-1 -16.589441812963322 30.538551086540934 9.0187463702330728 #
edge $-1 $276 1 $276 0 $152 $-1 forward 7 unknown #
vertex $-1 $153 $277 #
ellipse-curve $-1 -12.997019670577714 28.102045312664973 6.3127326242427761 0 0.66913061440640931 0.74314481823134659 1.5 0 0 1 I I #
point $-1 -11.497019670577714 30.538551086540934 9.0187463702330728 #
plane-surface $-1 59.838251899777219 0 0 -1 0 0 0 0 1 forward_v I I I I #
coedge $-1 $159 $239 $162 $233 reversed $101 $-1 #
vertex $-1 $233 $278 #
straight-curve $-1 -59.838251899777219 -39.720568425442799 0 0 0 -1 I I #
edge $-1 $231 -39.720568425442799 $235 39.720568425442799 $230 $279 forward 7 unknown #
straight-curve $-1 0 -39.720568425442799 -17.286272097038388 -1 0 0 I I #
vertex $-1 $165 $280 #
straight-curve $-1 0 39.720568425442799 -17.286272097038388 1 0 0 I I #
point $-1 59.838251899777219 39.720568425442799 -17.286272097038388 #
point $-1 59.838251899777219 -39.720568425442799 -17.286272097038388 #
coedge $-1 $230 $169 $172 $241 forward $101 $-1 #
straight-curve $-1 -59.838251899777219 0 17.286272097038388 0 -1 0 I I #
edge $-1 $173 -17.286272097038388 $235 17.286272097038388 $172 $281 forward 7 unknown #
point $-1 -59.838251899777219 39.720568425442799 17.286272097038388 #
point $-1 -59.838251899777219 -39.720568425442799 17.286272097038388 #
straight-curve $-1 59.838251899777219 -39.720568425442799 0 0 0 -1 I I #
straight-curve $-1 59.838251899777219 39.720568425442799 0 0 0 -1 I I #
plane-surface $-1 0 -39.720568425442799 0 0 1 0 0 0 1 forward_v I I I I #
coedge $-1 $282 $185 $250 $283 reversed $120 $-1 #
coedge $-1 $185 $282 $199 $261 reversed $120 $-1 #
edge $-1 $253 -4.0931119516370664 $251 4.0931119516370664 $186 $284 forward 7 unknown #
coedge $-1 $187 $256 $247 $283 forward $183 $-1 #
vertex $-1 $188 $285 #
straight-curve $-1 0 39.720568425442799 -17.286272097038388 1 0 0 I I #
vertex $-1 $189 $286 #
straight-curve $-1 -71.074840487573212 39.720568425442799 -9.1000481937642554 -1 0 0 I I #
point $-1 -59.838251899777219 39.720568425442799 -17.286272097038388 #
coedge $-1 $250 $192 $195 $259 forward $183 $-1 #
straight-curve $-1 -59.838251899777219 0 -17.286272097038388 0 -1 0 I I #
coedge $-1 $195 $194 $282 $287 forward $196 $-1 #
edge $-1 $197 -11.236588587795993 $288 11.236588587795993 $195 $289 forward 7 unknown #
point $-1 -59.838251899777219 -39.720568425442799 -17.286272097038388 #
edge $-1 $253 -39.720568425442799 $262 39.720568425442799 $248 $290 forward 7 unknown #
vertex $-1 $261 $291 #
straight-curve $-1 -71.074840487573212 -39.720568425442799 -9.1000481937642554 1 0 0 I I #
coedge $-1 $214 $213 $206 $265 forward $203 $-1 #
edge $-1 $266 54.136073411105301 $269 70.671124864715978 $264 $292 forward 7 unknown #
vertex $-1 $218 $293 #
straight-curve $-1 -9.6020715756539694 30.381755868853357 17.286272097038392 0 1 0 I I #
edge $-1 $269 1.8304562047687121 $215 13.712774537001803 $214 $294 forward 7 unknown #
vertex $-1 $268 $295 #
straight-curve $-1 -9.6020715756539694 -19.315700779700116 53.907717353604454 0 -0.74314481823134659 0.66913061440640931 I I #
point $-1 -9.6020715756539694 21.356533747638998 17.286272097038392 #
point $-1 -21.48438990788706 39.720568425442799 0.75122064342772177 #
straight-curve $-1 0 39.720568425442799 17.286272097038388 -1 0 0 I I #
vertex $-1 $221 $296 #
point $-1 -16.589441812963322 28.102045312664973 6.3127326242427761 #
vertex $-1 $225 $297 #
point $-1 -11.497019670577714 28.102045312664973 6.3127326242427761 #
point $-1 -59.838251899777219 -39.720568425442799 -17.286272097038388 #
straight-curve $-1 -59.838251899777219 0 -17.286272097038388 0 1 0 I I #
point $-1 -59.838251899777219 39.720568425442799 -17.286272097038388 #
straight-curve $-1 -59.838251899777219 39.720568425442799 0 0 0 -1 I I #
coedge $-1 $248 $247 $258 $287 reversed $120 $-1 #
edge $-1 $288 -39.720568425442799 $251 39.720568425442799 $247 $298 forward 7 unknown #
straight-curve $-1 -82.311429075369205 39.720568425442799 -13.193160145401322 0 0 -1 I I #
point $-1 -82.311429075369205 39.720568425442799 -17.286272097038388 #
point $-1 -82.311429075369205 39.720568425442799 -9.1000481937642554 #
edge $-1 $262 -4.0931119516370664 $288 4.0931119516370664 $282 $299 forward 7 unknown #
vertex $-1 $283 $300 #
straight-curve $-1 -71.074840487573212 -39.720568425442799 -17.286272097038388 -1 0 0 I I #
straight-curve $-1 -82.311429075369205 0 -9.1000481937642554 0 -1 0 I I #
point $-1 -82.311429075369205 -39.720568425442799 -9.1000481937642554 #
straight-curve $-1 -9.6020715756539694 39.720568425442799 71.422345508143692 0 0 -1 I I #
point $-1 -9.6020715756539694 39.720568425442799 17.286272097038388 #
straight-curve $-1 -7.7716153708852573 39.720568425442806 0.75122064342772177 -1 0 0 I I #
point $-1 -9.6020715756539694 39.720568425442799 0.75122064342772177 #
point $-1 -18.089441812963322 27.098349391055361 5.1980153968957561 #
point $-1 -12.997019670577714 27.098349391055361 5.1980153968957561 #
straight-curve $-1 -82.311429075369205 0 -17.286272097038388 0 1 0 I I #
straight-curve $-1 -82.311429075369205 -39.720568425442799 -13.193160145401322 0 0 -1 I I #
point $-1 -82.311429075369205 -39.720568425442799 -17.286272097038388 #
End-of-ACIS-data 