500 0 5 0           
7 Unknown 11 ACIS 5.0 NT 24 Fri Mar 26 17:24:16 1999 
-1 9.9999999999999995e-007 1e-010 
body $-1 $5 $-1 $6 #
body $-1 $7 $-1 $8 #
body $-1 $9 $-1 $10 #
body $-1 $11 $-1 $12 #
body $-1 $13 $-1 $14 #
lump $-1 $-1 $15 $0 #
transform $-1 1 0 0 0 1 0 0 0 1 53.066805017242956 33.084036162411707 12.053606741858797 1 rotate no_reflect no_shear #
lump $-1 $-1 $16 $1 #
transform $-1 1 0 0 0 1 0 0 0 1 53.066805017242956 33.084036162411707 12.053606741858797 1 rotate no_reflect no_shear #
lump $-1 $-1 $17 $2 #
transform $-1 1 0 0 0 1 0 0 0 1 53.066805017242956 33.084036162411707 12.053606741858797 1 rotate no_reflect no_shear #
lump $-1 $-1 $18 $3 #
transform $-1 1 0 0 0 1 0 0 0 1 53.066805017242956 33.084036162411707 12.053606741858797 1 rotate no_reflect no_shear #
lump $-1 $-1 $19 $4 #
transform $-1 1 0 0 0 1 0 0 0 1 53.066805017242956 33.084036162411707 12.053606741858797 1 rotate no_reflect no_shear #
shell $-1 $-1 $-1 $20 $-1 $5 #
shell $-1 $-1 $-1 $21 $-1 $7 #
shell $-1 $-1 $-1 $22 $-1 $9 #
shell $-1 $-1 $-1 $23 $-1 $11 #
shell $-1 $-1 $-1 $24 $-1 $13 #
face $-1 $25 $26 $15 $-1 $27 forward single #
face $-1 $28 $29 $16 $-1 $30 forward single #
face $-1 $31 $32 $17 $-1 $33 reversed single #
face $-1 $34 $35 $18 $-1 $36 forward single #
face $-1 $37 $38 $19 $-1 $39 reversed single #
face $-1 $40 $41 $15 $-1 $42 reversed single #
loop $-1 $-1 $43 $20 #
plane-surface $-1 0 0 12.053606741858797 0 0 1 1 0 0 forward_v I I I I #
face $-1 $44 $45 $16 $-1 $46 forward single #
loop $-1 $-1 $47 $21 #
plane-surface $-1 -36.208737648671303 -102.71395015164848 80.330764197506255 -1 0 0 0 -0.6560590369687036 0.75470957328743171 forward_v I I I I #
face $-1 $48 $49 $17 $-1 $50 reversed single #
loop $-1 $51 $52 $22 #
cone-surface $-1 -44.637771332957129 -25.209396965127098 4.9063219094106634 0 0.6560590369687036 -0.75470957328743171 2 0 0 1 I I 0 1 2 forward I I I I #
face $-1 $53 $54 $18 $-1 $55 forward single #
loop $-1 $-1 $56 $23 #
plane-surface $-1 16.85806736857165 -102.71395015164848 80.330764197506255 -1 0 0 0 -0.6560590369687036 0.75470957328743171 forward_v I I I I #
face $-1 $57 $58 $19 $-1 $59 reversed single #
loop $-1 $60 $61 $24 #
cone-surface $-1 8.4290336842858267 -25.209396965127098 4.9063219094106634 0 0.6560590369687036 -0.75470957328743171 2 0 0 1 I I 0 1 2 forward I I I I #
face $-1 $62 $63 $15 $-1 $64 reversed single #
loop $-1 $-1 $65 $25 #
plane-surface $-1 0 0 -12.053606741858797 0 0 1 1 0 0 forward_v I I I I #
coedge $-1 $66 $67 $68 $69 forward $26 $-1 #
face $-1 $70 $71 $16 $-1 $72 forward single #
loop $-1 $-1 $73 $28 #
plane-surface $-1 -44.637771332957129 -33.084036162411707 0.23071265692470888 0 -0.6560590369687036 0.75470957328743171 1 0 0 forward_v I I I I #
coedge $-1 $74 $75 $76 $77 reversed $29 $-1 #
face $-1 $78 $79 $17 $-1 $80 forward single #
loop $-1 $81 $82 $31 #
cone-surface $-1 -44.637771332957129 -23.479040504299245 2.9157745461421403 0 0.6560590369687036 -0.75470957328743171 1 0 0 1 I I -0.70710678118654768 0.70710678118654735 1 forward I I I I #
loop $-1 $-1 $83 $22 #
coedge $-1 $52 $52 $84 $85 reversed $32 $-1 #
face $-1 $86 $87 $18 $-1 $88 forward single #
loop $-1 $-1 $89 $34 #
plane-surface $-1 8.4290336842858267 -33.084036162411707 0.23071265692470888 0 -0.6560590369687036 0.75470957328743171 1 0 0 forward_v I I I I #
coedge $-1 $90 $91 $92 $93 reversed $35 $-1 #
face $-1 $94 $95 $19 $-1 $96 forward single #
loop $-1 $97 $98 $37 #
cone-surface $-1 8.4290336842858267 -23.479040504299245 2.9157745461421403 0 0.6560590369687036 -0.75470957328743171 1 0 0 1 I I -0.70710678118654768 0.70710678118654735 1 forward I I I I #
loop $-1 $-1 $99 $24 #
coedge $-1 $61 $61 $100 $101 reversed $38 $-1 #
face $-1 $102 $103 $15 $-1 $104 reversed single #
loop $-1 $-1 $105 $40 #
plane-surface $-1 0 -33.084036162411707 0 0 1 0 0 0 1 forward_v I I I I #
coedge $-1 $106 $107 $108 $109 forward $41 $-1 #
coedge $-1 $110 $43 $111 $112 forward $26 $-1 #
coedge $-1 $43 $110 $113 $114 forward $26 $-1 #
coedge $-1 $115 $116 $43 $69 reversed $117 $-1 #
edge $-1 $118 -33.084036162411707 $119 33.084036162411707 $68 $120 forward 7 unknown #
face $-1 $121 $122 $16 $-1 $123 reversed single #
loop $-1 $-1 $124 $44 #
plane-surface $-1 0 0 12.053606741858797 0 0 1 1 0 0 forward_v I I I I #
coedge $-1 $125 $126 $124 $127 reversed $45 $-1 #
coedge $-1 $75 $47 $126 $128 forward $29 $-1 #
coedge $-1 $47 $74 $129 $130 reversed $29 $-1 #
coedge $-1 $131 $124 $47 $77 forward $71 $-1 #
edge $-1 $132 -31.873622460263448 $133 -18.272938913412531 $76 $134 forward 7 unknown #
face $-1 $135 $136 $17 $-1 $137 forward single #
loop $-1 $-1 $138 $48 #
plane-surface $-1 -36.208737648671303 -102.71395015164848 80.330764197506255 -1 0 0 0 -0.6560590369687036 0.75470957328743171 forward_v I I I I #
loop $-1 $-1 $139 $31 #
coedge $-1 $82 $82 $83 $140 forward $49 $-1 #
coedge $-1 $83 $83 $82 $140 reversed $51 $-1 #
coedge $-1 $84 $84 $52 $85 forward $136 $-1 #
edge $-1 $141 -8.740462180272739e-016 $141 6.2831853071795996 $84 $142 forward 7 unknown #
face $-1 $143 $144 $18 $-1 $145 forward single #
loop $-1 $-1 $146 $53 #
plane-surface $-1 3.5527136788005009e-015 -102.71395015164848 80.330764197506255 1 0 0 0 0.6560590369687036 -0.75470957328743171 forward_v I I I I #
coedge $-1 $147 $148 $149 $150 reversed $54 $-1 #
coedge $-1 $91 $56 $148 $151 forward $35 $-1 #
coedge $-1 $56 $90 $152 $153 reversed $35 $-1 #
coedge $-1 $154 $149 $56 $93 forward $144 $-1 #
edge $-1 $155 -31.873622460263448 $156 -18.272938913412531 $92 $157 forward 7 unknown #
face $-1 $158 $159 $19 $-1 $160 forward single #
loop $-1 $-1 $161 $57 #
plane-surface $-1 16.85806736857165 -102.71395015164848 80.330764197506255 -1 0 0 0 -0.6560590369687036 0.75470957328743171 forward_v I I I I #
loop $-1 $-1 $162 $37 #
coedge $-1 $98 $98 $99 $163 forward $58 $-1 #
coedge $-1 $99 $99 $98 $163 reversed $60 $-1 #
coedge $-1 $100 $100 $61 $101 forward $159 $-1 #
edge $-1 $164 -8.740462180272739e-016 $164 6.2831853071795996 $100 $165 forward 7 unknown #
face $-1 $166 $167 $15 $-1 $168 reversed single #
loop $-1 $-1 $169 $62 #
plane-surface $-1 -53.066805017242956 0 0 1 0 0 0 0 -1 forward_v I I I I #
coedge $-1 $170 $113 $171 $172 forward $63 $-1 #
coedge $-1 $173 $65 $170 $174 forward $41 $-1 #
coedge $-1 $65 $173 $175 $176 forward $41 $-1 #
coedge $-1 $116 $115 $65 $109 reversed $117 $-1 #
edge $-1 $177 -33.084036162411707 $178 33.084036162411707 $108 $179 forward 7 unknown #
coedge $-1 $67 $66 $180 $181 forward $26 $-1 #
coedge $-1 $182 $183 $66 $112 reversed $167 $-1 #
edge $-1 $119 -53.066805017242956 $184 53.066805017242956 $111 $185 forward 7 unknown #
coedge $-1 $105 $186 $67 $114 reversed $63 $-1 #
edge $-1 $187 -53.066805017242956 $118 53.066805017242956 $113 $188 forward 7 unknown #
coedge $-1 $108 $68 $186 $189 forward $117 $-1 #
coedge $-1 $68 $108 $182 $190 reversed $117 $-1 #
loop $-1 $-1 $115 $166 #
vertex $-1 $69 $191 #
vertex $-1 $69 $192 #
straight-curve $-1 53.066805017242956 0 12.053606741858797 0 1 0 I I #
face $-1 $193 $194 $16 $-1 $195 reversed single #
loop $-1 $-1 $129 $70 #
plane-surface $-1 0 -33.084036162411707 0 0 1 0 0 0 1 forward_v I I I I #
coedge $-1 $76 $196 $73 $127 forward $71 $-1 #
coedge $-1 $197 $73 $198 $199 reversed $45 $-1 #
coedge $-1 $73 $197 $74 $128 reversed $45 $-1 #
edge $-1 $200 -30.747919350764391 $132 -13.889851982192738 $124 $201 forward 7 unknown #
edge $-1 $132 -18.021082583606088 $202 0 $74 $203 forward 7 unknown #
coedge $-1 $204 $205 $75 $130 forward $122 $-1 #
edge $-1 $133 28.111775356894331 $202 39.934669441828419 $129 $206 forward 7 unknown #
coedge $-1 $207 $76 $205 $208 forward $71 $-1 #
vertex $-1 $127 $209 #
vertex $-1 $208 $210 #
straight-curve $-1 -36.208737648671303 -51.356975075824238 12.0536067418588 0 -1 0 I I #
face $-1 $211 $212 $17 $-1 $213 forward single #
loop $-1 $214 $84 $78 #
plane-surface $-1 -44.637771332957129 -33.084036162411707 0.23071265692470888 0 -0.6560590369687036 0.75470957328743171 1 0 0 forward_v I I I I #
coedge $-1 $215 $216 $217 $218 reversed $79 $-1 #
coedge $-1 $139 $139 $-1 $219 forward $81 $-1 #
edge $-1 $220 0 $220 6.2831853071796004 $82 $221 forward 7 unknown #
vertex $-1 $85 $222 #
ellipse-curve $-1 -44.637771332957129 -26.283694388986248 6.1421596993917538 0 0.6560590369687036 -0.75470957328743171 2 0 0 1 I I #
face $-1 $223 $224 $18 $-1 $225 reversed single #
loop $-1 $-1 $226 $86 #
plane-surface $-1 0 0 12.053606741858797 0 0 1 1 0 0 forward_v I I I I #
coedge $-1 $227 $228 $226 $229 reversed $87 $-1 #
coedge $-1 $230 $89 $228 $231 reversed $54 $-1 #
coedge $-1 $89 $230 $90 $151 reversed $54 $-1 #
coedge $-1 $92 $226 $89 $150 forward $144 $-1 #
edge $-1 $232 -4.2145168421429098 $155 12.643550526428736 $149 $233 forward 7 unknown #
edge $-1 $155 -18.021082583606088 $234 0 $90 $235 forward 7 unknown #
coedge $-1 $236 $237 $91 $153 forward $238 $-1 #
edge $-1 $156 28.111775356894331 $234 39.934669441828419 $152 $239 forward 7 unknown #
coedge $-1 $240 $92 $237 $241 forward $144 $-1 #
vertex $-1 $150 $242 #
vertex $-1 $241 $243 #
straight-curve $-1 16.85806736857165 -51.356975075824238 12.0536067418588 0 -1 0 I I #
face $-1 $244 $245 $19 $-1 $246 forward single #
loop $-1 $247 $100 $94 #
plane-surface $-1 8.4290336842858267 -33.084036162411707 0.23071265692470888 0 -0.6560590369687036 0.75470957328743171 1 0 0 forward_v I I I I #
coedge $-1 $248 $249 $250 $251 reversed $95 $-1 #
coedge $-1 $162 $162 $-1 $252 forward $97 $-1 #
edge $-1 $253 0 $253 6.2831853071796004 $98 $254 forward 7 unknown #
vertex $-1 $101 $255 #
ellipse-curve $-1 8.4290336842858267 -26.283694388986248 6.1421596993917538 0 0.6560590369687036 -0.75470957328743171 2 0 0 1 I I #
face $-1 $-1 $117 $15 $-1 $256 reversed single #
loop $-1 $-1 $182 $102 #
plane-surface $-1 0 33.084036162411707 0 0 -1 0 0 0 -1 forward_v I I I I #
coedge $-1 $257 $180 $183 $258 forward $103 $-1 #
coedge $-1 $186 $105 $106 $174 reversed $63 $-1 #
coedge $-1 $180 $257 $105 $172 reversed $103 $-1 #
edge $-1 $187 -12.053606741858797 $259 12.053606741858797 $171 $260 forward 7 unknown #
coedge $-1 $107 $106 $257 $261 forward $41 $-1 #
edge $-1 $178 -53.066805017242956 $259 53.066805017242956 $170 $262 forward 7 unknown #
coedge $-1 $183 $182 $107 $176 reversed $167 $-1 #
edge $-1 $263 -53.066805017242956 $177 53.066805017242956 $175 $264 forward 7 unknown #
vertex $-1 $109 $265 #
vertex $-1 $189 $266 #
straight-curve $-1 53.066805017242956 0 -12.053606741858797 0 -1 0 I I #
coedge $-1 $169 $171 $110 $181 reversed $103 $-1 #
edge $-1 $184 -33.084036162411707 $187 33.084036162411707 $180 $267 forward 7 unknown #
coedge $-1 $175 $111 $116 $190 forward $167 $-1 #
coedge $-1 $111 $175 $169 $258 reversed $167 $-1 #
vertex $-1 $112 $268 #
straight-curve $-1 0 33.084036162411707 12.053606741858797 -1 0 0 I I #
coedge $-1 $113 $170 $115 $189 reversed $63 $-1 #
vertex $-1 $181 $269 #
straight-curve $-1 0 -33.084036162411707 12.053606741858797 1 0 0 I I #
edge $-1 $118 -12.053606741858797 $178 12.053606741858797 $115 $270 forward 7 unknown #
edge $-1 $119 -12.053606741858797 $177 12.053606741858797 $116 $271 forward 7 unknown #
point $-1 53.066805017242956 -33.084036162411707 12.053606741858797 #
point $-1 53.066805017242956 33.084036162411707 12.053606741858797 #
face $-1 $272 $273 $16 $-1 $274 reversed single #
loop $-1 $-1 $275 $121 #
plane-surface $-1 0 0 -12.053606741858797 0 0 1 1 0 0 forward_v I I I I #
coedge $-1 $124 $276 $277 $278 forward $71 $-1 #
coedge $-1 $126 $125 $204 $279 reversed $45 $-1 #
coedge $-1 $277 $280 $125 $199 forward $273 $-1 #
edge $-1 $281 -12.40873884562059 $200 5.6123437379854959 $198 $282 forward 7 unknown #
vertex $-1 $199 $283 #
straight-curve $-1 -22.318885666478565 -19.48335261556079 12.053606741858797 1 0 0 I I #
vertex $-1 $279 $284 #
straight-curve $-1 -36.208737648671303 -33.084036162411707 0.23071265692470888 0 -0.75470957328743171 -0.6560590369687036 I I #
coedge $-1 $285 $129 $197 $279 forward $122 $-1 #
coedge $-1 $129 $286 $131 $208 reversed $122 $-1 #
straight-curve $-1 -36.208737648671303 -33.084036162411707 40.165382098753128 0 0 -1 I I #
coedge $-1 $276 $131 $287 $288 forward $71 $-1 #
edge $-1 $133 -36.208737648671303 $289 53.066805017242956 $205 $290 forward 7 unknown #
point $-1 -36.208737648671303 -19.48335261556079 12.053606741858795 #
point $-1 -36.208737648671303 -33.084036162411707 12.053606741858797 #
face $-1 $291 $292 $17 $-1 $293 reversed single #
loop $-1 $-1 $294 $135 #
plane-surface $-1 0 0 12.053606741858797 0 0 1 1 0 0 forward_v I I I I #
loop $-1 $-1 $295 $78 #
coedge $-1 $216 $138 $296 $297 forward $79 $-1 #
coedge $-1 $138 $215 $298 $299 reversed $79 $-1 #
coedge $-1 $300 $294 $138 $218 forward $212 $-1 #
edge $-1 $301 -31.873622460263448 $302 -18.272938913412531 $217 $303 forward 7 unknown #
edge $-1 $304 1 $304 0 $139 $-1 forward 7 unknown #
vertex $-1 $140 $305 #
ellipse-curve $-1 -44.637771332957129 -24.135099541267948 3.6704841194295716 0 -0.6560590369687036 0.75470957328743171 2 0 0 1 I I #
point $-1 -42.637771332957129 -26.283694388986248 6.1421596993917564 #
face $-1 $306 $307 $18 $-1 $308 reversed single #
loop $-1 $309 $310 $143 #
cone-surface $-1 -44.637771332957129 -25.209396965127098 4.9063219094106634 0 0.6560590369687036 -0.75470957328743171 2 0 0 1 I I 0 1 2 forward I I I I #
coedge $-1 $149 $311 $146 $229 forward $144 $-1 #
coedge $-1 $228 $146 $312 $313 reversed $87 $-1 #
coedge $-1 $146 $227 $147 $231 forward $87 $-1 #
edge $-1 $314 18.272938913412531 $232 31.873622460263448 $226 $315 forward 7 unknown #
coedge $-1 $148 $147 $236 $316 reversed $54 $-1 #
edge $-1 $317 0 $232 18.021082583606088 $228 $318 forward 7 unknown #
vertex $-1 $150 $319 #
straight-curve $-1 4.2145168421429133 -19.48335261556079 12.053606741858797 1 0 0 I I #
vertex $-1 $316 $320 #
straight-curve $-1 16.85806736857165 -33.084036162411707 0.23071265692470888 0 -0.75470957328743171 -0.6560590369687036 I I #
coedge $-1 $312 $152 $230 $316 forward $238 $-1 #
coedge $-1 $152 $321 $154 $241 reversed $238 $-1 #
loop $-1 $-1 $312 $322 #
straight-curve $-1 16.85806736857165 -33.084036162411707 40.165382098753128 0 0 -1 I I #
coedge $-1 $323 $154 $324 $325 forward $144 $-1 #
edge $-1 $156 16.85806736857165 $326 53.066805017242956 $237 $327 forward 7 unknown #
point $-1 16.85806736857165 -19.48335261556079 12.053606741858795 #
point $-1 16.85806736857165 -33.084036162411707 12.053606741858797 #
face $-1 $328 $329 $19 $-1 $330 forward single #
loop $-1 $-1 $331 $158 #
plane-surface $-1 3.5527136788005009e-015 -102.71395015164848 80.330764197506255 1 0 0 0 0.6560590369687036 -0.75470957328743171 forward_v I I I I #
loop $-1 $-1 $332 $94 #
coedge $-1 $249 $161 $333 $334 forward $95 $-1 #
coedge $-1 $161 $248 $335 $336 reversed $95 $-1 #
coedge $-1 $337 $338 $161 $251 forward $329 $-1 #
edge $-1 $339 -31.873622460263448 $340 -18.272938913412531 $250 $341 forward 7 unknown #
edge $-1 $342 1 $342 0 $162 $-1 forward 7 unknown #
vertex $-1 $163 $343 #
ellipse-curve $-1 8.4290336842858267 -24.135099541267948 3.6704841194295716 0 -0.6560590369687036 0.75470957328743171 2 0 0 1 I I #
point $-1 10.429033684285827 -26.283694388986248 6.1421596993917564 #
plane-surface $-1 53.066805017242956 0 0 -1 0 0 0 0 1 forward_v I I I I #
coedge $-1 $171 $169 $173 $261 reversed $103 $-1 #
edge $-1 $184 -12.053606741858797 $263 12.053606741858797 $183 $344 forward 7 unknown #
vertex $-1 $261 $345 #
straight-curve $-1 -53.066805017242956 -33.084036162411707 0 0 0 -1 I I #
edge $-1 $259 -33.084036162411707 $263 33.084036162411707 $257 $346 forward 7 unknown #
straight-curve $-1 0 -33.084036162411707 -12.053606741858797 -1 0 0 I I #
vertex $-1 $176 $347 #
straight-curve $-1 0 33.084036162411707 -12.053606741858797 1 0 0 I I #
point $-1 53.066805017242956 33.084036162411707 -12.053606741858797 #
point $-1 53.066805017242956 -33.084036162411707 -12.053606741858797 #
straight-curve $-1 -53.066805017242956 0 12.053606741858797 0 -1 0 I I #
point $-1 -53.066805017242956 33.084036162411707 12.053606741858797 #
point $-1 -53.066805017242956 -33.084036162411707 12.053606741858797 #
straight-curve $-1 53.066805017242956 -33.084036162411707 0 0 0 -1 I I #
straight-curve $-1 53.066805017242956 33.084036162411707 0 0 0 -1 I I #
face $-1 $348 $349 $16 $-1 $350 reversed single #
loop $-1 $-1 $198 $193 #
plane-surface $-1 -53.066805017242956 0 0 1 0 0 0 0 -1 forward_v I I I I #
coedge $-1 $351 $352 $353 $354 forward $194 $-1 #
coedge $-1 $196 $207 $355 $356 forward $71 $-1 #
coedge $-1 $357 $198 $196 $278 reversed $273 $-1 #
edge $-1 $358 -33.084036162411707 $200 19.48335261556079 $277 $359 forward 7 unknown #
edge $-1 $202 13.889851982192738 $281 30.747919350764391 $204 $360 forward 7 unknown #
coedge $-1 $198 $361 $285 $362 reversed $273 $-1 #
vertex $-1 $362 $363 #
straight-curve $-1 -53.066805017242956 -23.719042163198214 8.3715779139786974 0 0.75470957328743171 0.6560590369687036 I I #
point $-1 -53.066805017242956 -19.48335261556079 12.053606741858795 #
point $-1 -36.208737648671303 -33.084036162411707 0.23071265692470888 #
coedge $-1 $364 $204 $280 $362 forward $122 $-1 #
coedge $-1 $205 $364 $365 $366 reversed $122 $-1 #
coedge $-1 $365 $367 $207 $288 reversed $368 $-1 #
edge $-1 $289 -33.084036162411707 $369 33.084036162411707 $287 $370 forward 7 unknown #
vertex $-1 $288 $371 #
straight-curve $-1 0 -33.084036162411707 12.053606741858797 1 0 0 I I #
face $-1 $372 $373 $17 $-1 $374 reversed single #
loop $-1 $-1 $298 $211 #
plane-surface $-1 0 -33.084036162411707 0 0 1 0 0 0 1 forward_v I I I I #
coedge $-1 $217 $375 $295 $376 forward $212 $-1 #
coedge $-1 $377 $296 $294 $376 reversed $214 $-1 #
coedge $-1 $295 $378 $215 $297 reversed $214 $-1 #
edge $-1 $301 -18.021082583606088 $379 0 $215 $380 forward 7 unknown #
coedge $-1 $381 $382 $216 $299 forward $292 $-1 #
edge $-1 $302 28.111775356894331 $379 39.934669441828419 $298 $383 forward 7 unknown #
coedge $-1 $384 $217 $382 $385 forward $212 $-1 #
vertex $-1 $376 $386 #
vertex $-1 $385 $387 #
straight-curve $-1 -36.208737648671303 -51.356975075824238 12.0536067418588 0 -1 0 I I #
vertex $-1 $219 $388 #
point $-1 -42.637771332957129 -24.135099541267948 3.6704841194295716 #
face $-1 $389 $390 $18 $-1 $391 forward single #
loop $-1 $392 $393 $223 #
cone-surface $-1 -44.637771332957129 -23.479040504299245 2.9157745461421403 0 0.6560590369687036 -0.75470957328743171 1 0 0 1 I I -0.70710678118654768 0.70710678118654735 1 forward I I I I #
loop $-1 $-1 $394 $143 #
coedge $-1 $310 $310 $395 $396 reversed $224 $-1 #
coedge $-1 $226 $397 $398 $399 forward $144 $-1 #
coedge $-1 $398 $236 $227 $313 forward $238 $-1 #
edge $-1 $317 -39.934669441828419 $314 -28.111775356894331 $312 $400 forward 7 unknown #
vertex $-1 $313 $401 #
straight-curve $-1 3.5527136788005009e-015 -51.356975075824238 12.0536067418588 0 1 0 I I #
edge $-1 $234 -12.643550526428736 $317 4.2145168421429098 $236 $402 forward 7 unknown #
vertex $-1 $316 $403 #
straight-curve $-1 3.5527136788005009e-015 -33.084036162411707 0.23071265692470888 0 0.75470957328743171 0.6560590369687036 I I #
point $-1 3.5527136788005009e-015 -19.48335261556079 12.053606741858795 #
point $-1 16.85806736857165 -33.084036162411707 0.23071265692470888 #
coedge $-1 $237 $404 $405 $406 reversed $238 $-1 #
face $-1 $407 $238 $18 $-1 $408 reversed single #
coedge $-1 $409 $240 $410 $411 forward $144 $-1 #
coedge $-1 $405 $412 $240 $325 reversed $413 $-1 #
edge $-1 $326 -33.084036162411707 $414 33.084036162411707 $324 $415 forward 7 unknown #
vertex $-1 $325 $416 #
straight-curve $-1 0 -33.084036162411707 12.053606741858797 1 0 0 I I #
face $-1 $417 $418 $19 $-1 $419 reversed single #
loop $-1 $-1 $420 $244 #
plane-surface $-1 0 0 12.053606741858797 0 0 1 1 0 0 forward_v I I I I #
coedge $-1 $421 $422 $420 $423 reversed $245 $-1 #
coedge $-1 $424 $333 $338 $425 reversed $247 $-1 #
coedge $-1 $332 $426 $248 $334 reversed $247 $-1 #
edge $-1 $339 -18.021082583606088 $427 0 $248 $428 forward 7 unknown #
coedge $-1 $429 $430 $249 $336 forward $431 $-1 #
edge $-1 $340 28.111775356894331 $427 39.934669441828419 $335 $432 forward 7 unknown #
coedge $-1 $433 $250 $430 $434 forward $329 $-1 #
coedge $-1 $250 $420 $332 $425 forward $329 $-1 #
vertex $-1 $425 $435 #
vertex $-1 $434 $436 #
straight-curve $-1 16.85806736857165 -51.356975075824238 12.0536067418588 0 -1 0 I I #
vertex $-1 $252 $437 #
point $-1 10.429033684285827 -24.135099541267948 3.6704841194295716 #
straight-curve $-1 -53.066805017242956 33.084036162411707 0 0 0 -1 I I #
point $-1 -53.066805017242956 -33.084036162411707 -12.053606741858797 #
straight-curve $-1 -53.066805017242956 0 -12.053606741858797 0 1 0 I I #
point $-1 -53.066805017242956 33.084036162411707 -12.053606741858797 #
face $-1 $-1 $368 $16 $-1 $438 reversed single #
loop $-1 $-1 $439 $272 #
plane-surface $-1 0 33.084036162411707 0 0 -1 0 0 0 -1 forward_v I I I I #
coedge $-1 $440 $275 $364 $441 forward $194 $-1 #
coedge $-1 $275 $440 $442 $443 forward $194 $-1 #
coedge $-1 $367 $365 $275 $354 reversed $368 $-1 #
edge $-1 $444 -33.084036162411707 $445 33.084036162411707 $353 $446 forward 7 unknown #
coedge $-1 $439 $447 $276 $356 reversed $349 $-1 #
edge $-1 $369 -53.066805017242956 $358 53.066805017242956 $355 $448 forward 7 unknown #
coedge $-1 $361 $277 $447 $449 forward $273 $-1 #
vertex $-1 $356 $450 #
straight-curve $-1 -53.066805017242956 0 12.053606741858797 0 -1 0 I I #
straight-curve $-1 -22.318885666478565 -33.084036162411707 0.23071265692470672 -1 0 0 I I #
coedge $-1 $280 $357 $440 $451 reversed $273 $-1 #
edge $-1 $281 -0.23071265692470888 $452 12.053606741858797 $280 $453 forward 7 unknown #
point $-1 -53.066805017242956 -33.084036162411707 0.23071265692470888 #
coedge $-1 $286 $285 $351 $441 reversed $122 $-1 #
coedge $-1 $353 $287 $286 $366 forward $368 $-1 #
edge $-1 $289 -12.053606741858797 $445 12.053606741858797 $365 $454 forward 7 unknown #
coedge $-1 $287 $353 $439 $455 reversed $368 $-1 #
loop $-1 $-1 $365 $348 #
vertex $-1 $288 $456 #
straight-curve $-1 53.066805017242956 0 12.053606741858797 0 1 0 I I #
point $-1 53.066805017242956 -33.084036162411707 12.053606741858797 #
face $-1 $457 $458 $17 $-1 $459 reversed single #
loop $-1 $-1 $460 $291 #
plane-surface $-1 0 0 -12.053606741858797 0 0 1 1 0 0 forward_v I I I I #
coedge $-1 $294 $461 $462 $463 forward $212 $-1 #
edge $-1 $464 -30.747919350764391 $301 -13.889851982192738 $294 $465 forward 7 unknown #
coedge $-1 $378 $295 $466 $467 reversed $214 $-1 #
coedge $-1 $296 $377 $381 $468 reversed $214 $-1 #
vertex $-1 $468 $469 #
straight-curve $-1 -36.208737648671303 -33.084036162411707 0.23071265692470888 0 -0.75470957328743171 -0.6560590369687036 I I #
coedge $-1 $470 $298 $378 $468 forward $292 $-1 #
coedge $-1 $298 $471 $300 $385 reversed $292 $-1 #
straight-curve $-1 -36.208737648671303 -33.084036162411707 40.165382098753128 0 0 -1 I I #
coedge $-1 $461 $300 $472 $473 forward $212 $-1 #
edge $-1 $302 -36.208737648671303 $474 53.066805017242956 $382 $475 forward 7 unknown #
point $-1 -36.208737648671303 -19.48335261556079 12.053606741858795 #
point $-1 -36.208737648671303 -33.084036162411707 12.053606741858797 #
point $-1 -44.637771332957129 -22.822981467330543 2.1610649728547089 #
face $-1 $322 $476 $18 $-1 $477 forward single #
loop $-1 $-1 $478 $306 #
plane-surface $-1 -36.208737648671303 -102.71395015164848 80.330764197506255 -1 0 0 0 -0.6560590369687036 0.75470957328743171 forward_v I I I I #
loop $-1 $-1 $479 $223 #
coedge $-1 $393 $393 $394 $480 forward $307 $-1 #
coedge $-1 $394 $394 $393 $480 reversed $309 $-1 #
coedge $-1 $395 $395 $310 $396 forward $476 $-1 #
edge $-1 $481 -8.740462180272739e-016 $481 6.2831853071795996 $395 $482 forward 7 unknown #
coedge $-1 $311 $483 $478 $484 forward $144 $-1 #
coedge $-1 $485 $312 $311 $399 reversed $238 $-1 #
edge $-1 $486 -36.208737648671303 $314 3.5527136788005009e-015 $398 $327 forward 7 unknown #
straight-curve $-1 3.5527136788005009e-015 -33.084036162411707 40.165382098753128 0 0 1 I I #
point $-1 3.5527136788005009e-015 -33.084036162411707 12.053606741858797 #
straight-curve $-1 4.2145168421429133 -33.084036162411707 0.23071265692470672 -1 0 0 I I #
point $-1 3.5527136788005009e-015 -33.084036162411707 0.23071265692470888 #
coedge $-1 $321 $487 $488 $489 reversed $238 $-1 #
coedge $-1 $490 $324 $321 $406 forward $413 $-1 #
edge $-1 $326 -12.053606741858797 $491 12.053606741858797 $405 $492 forward 7 unknown #
face $-1 $493 $494 $18 $-1 $495 reversed single #
plane-surface $-1 0 -33.084036162411707 0 0 1 0 0 0 1 forward_v I I I I #
coedge $-1 $483 $323 $496 $497 forward $144 $-1 #
coedge $-1 $498 $499 $323 $411 reversed $500 $-1 #
edge $-1 $414 -53.066805017242956 $501 53.066805017242956 $410 $502 forward 7 unknown #
coedge $-1 $324 $490 $498 $503 reversed $413 $-1 #
loop $-1 $-1 $405 $504 #
vertex $-1 $325 $505 #
straight-curve $-1 53.066805017242956 0 12.053606741858797 0 1 0 I I #
point $-1 53.066805017242956 -33.084036162411707 12.053606741858797 #
face $-1 $506 $507 $19 $-1 $508 reversed single #
loop $-1 $509 $510 $328 #
cone-surface $-1 -44.637771332957129 -25.209396965127098 4.9063219094106634 0 0.6560590369687036 -0.75470957328743171 2 0 0 1 I I 0 1 2 forward I I I I #
coedge $-1 $338 $511 $331 $423 forward $329 $-1 #
coedge $-1 $422 $331 $512 $513 reversed $245 $-1 #
coedge $-1 $331 $421 $424 $514 forward $245 $-1 #
edge $-1 $515 18.272938913412531 $516 31.873622460263448 $420 $517 forward 7 unknown #
coedge $-1 $426 $332 $422 $514 reversed $247 $-1 #
edge $-1 $516 -4.2145168421429098 $339 12.643550526428736 $338 $518 forward 7 unknown #
coedge $-1 $333 $424 $429 $519 reversed $247 $-1 #
vertex $-1 $519 $520 #
straight-curve $-1 16.85806736857165 -33.084036162411707 0.23071265692470888 0 -0.75470957328743171 -0.6560590369687036 I I #
coedge $-1 $512 $335 $426 $519 forward $431 $-1 #
coedge $-1 $335 $521 $337 $434 reversed $431 $-1 #
loop $-1 $-1 $512 $522 #
straight-curve $-1 16.85806736857165 -33.084036162411707 40.165382098753128 0 0 -1 I I #
coedge $-1 $523 $337 $524 $525 forward $329 $-1 #
edge $-1 $340 16.85806736857165 $526 53.066805017242956 $430 $527 forward 7 unknown #
point $-1 16.85806736857165 -19.48335261556079 12.053606741858795 #
point $-1 16.85806736857165 -33.084036162411707 12.053606741858797 #
point $-1 8.4290336842858267 -22.822981467330543 2.1610649728547089 #
plane-surface $-1 53.066805017242956 0 0 -1 0 0 0 0 1 forward_v I I I I #
coedge $-1 $442 $355 $367 $455 forward $349 $-1 #
coedge $-1 $352 $351 $361 $451 forward $194 $-1 #
edge $-1 $445 -53.066805017242956 $452 53.066805017242956 $364 $528 forward 7 unknown #
coedge $-1 $447 $439 $352 $443 reversed $349 $-1 #
edge $-1 $529 -53.066805017242956 $444 53.066805017242956 $442 $530 forward 7 unknown #
vertex $-1 $354 $531 #
vertex $-1 $366 $532 #
straight-curve $-1 53.066805017242956 0 -12.053606741858797 0 -1 0 I I #
coedge $-1 $355 $442 $357 $449 reversed $349 $-1 #
straight-curve $-1 0 33.084036162411707 12.053606741858797 -1 0 0 I I #
edge $-1 $358 -12.053606741858797 $529 12.053606741858797 $447 $533 forward 7 unknown #
point $-1 -53.066805017242956 33.084036162411707 12.053606741858797 #
edge $-1 $452 -33.084036162411707 $529 33.084036162411707 $361 $534 forward 7 unknown #
vertex $-1 $451 $535 #
straight-curve $-1 -53.066805017242956 -33.084036162411707 0 0 0 -1 I I #
straight-curve $-1 53.066805017242956 -33.084036162411707 0 0 0 -1 I I #
edge $-1 $369 -12.053606741858797 $444 12.053606741858797 $367 $536 forward 7 unknown #
point $-1 53.066805017242956 33.084036162411707 12.053606741858797 #
face $-1 $537 $538 $17 $-1 $539 reversed single #
loop $-1 $-1 $466 $372 #
plane-surface $-1 -53.066805017242956 0 0 1 0 0 0 0 -1 forward_v I I I I #
coedge $-1 $540 $541 $542 $543 forward $373 $-1 #
coedge $-1 $375 $384 $544 $545 forward $212 $-1 #
coedge $-1 $546 $466 $375 $463 reversed $458 $-1 #
edge $-1 $547 -33.084036162411707 $464 19.48335261556079 $462 $548 forward 7 unknown #
vertex $-1 $467 $549 #
straight-curve $-1 -22.318885666478565 -19.48335261556079 12.053606741858797 1 0 0 I I #
coedge $-1 $462 $550 $377 $467 forward $458 $-1 #
edge $-1 $551 -12.40873884562059 $464 5.6123437379854959 $466 $552 forward 7 unknown #
edge $-1 $379 13.889851982192738 $551 30.747919350764391 $381 $553 forward 7 unknown #
point $-1 -36.208737648671303 -33.084036162411707 0.23071265692470888 #
coedge $-1 $554 $381 $550 $555 forward $292 $-1 #
coedge $-1 $382 $554 $556 $557 reversed $292 $-1 #
coedge $-1 $556 $558 $384 $473 reversed $559 $-1 #
edge $-1 $474 -33.084036162411707 $560 33.084036162411707 $472 $561 forward 7 unknown #
vertex $-1 $473 $562 #
straight-curve $-1 0 -33.084036162411707 12.053606741858797 1 0 0 I I #
loop $-1 $563 $395 $389 #
plane-surface $-1 -44.637771332957129 -33.084036162411707 0.23071265692470888 0 -0.6560590369687036 0.75470957328743171 1 0 0 forward_v I I I I #
coedge $-1 $564 $565 $397 $484 reversed $390 $-1 #
coedge $-1 $479 $479 $-1 $566 forward $392 $-1 #
edge $-1 $567 0 $567 6.2831853071796004 $393 $568 forward 7 unknown #
vertex $-1 $396 $569 #
ellipse-curve $-1 -44.637771332957129 -26.283694388986248 6.1421596993917538 0 0.6560590369687036 -0.75470957328743171 2 0 0 1 I I #
coedge $-1 $397 $409 $570 $571 forward $144 $-1 #
edge $-1 $572 -31.873622460263448 $486 -18.272938913412531 $397 $573 forward 7 unknown #
coedge $-1 $574 $398 $565 $575 forward $238 $-1 #
vertex $-1 $399 $576 #
coedge $-1 $404 $574 $577 $578 forward $238 $-1 #
coedge $-1 $579 $580 $404 $489 forward $494 $-1 #
edge $-1 $491 -53.066805017242956 $581 53.066805017242956 $404 $582 forward 7 unknown #
coedge $-1 $412 $405 $580 $583 reversed $413 $-1 #
vertex $-1 $406 $584 #
straight-curve $-1 53.066805017242956 -33.084036162411707 0 0 0 -1 I I #
face $-1 $585 $586 $18 $-1 $587 reversed single #
loop $-1 $-1 $580 $407 #
plane-surface $-1 0 0 -12.053606741858797 0 0 1 1 0 0 forward_v I I I I #
coedge $-1 $588 $589 $409 $497 reversed $586 $-1 #
edge $-1 $501 -33.084036162411707 $590 19.48335261556079 $496 $591 forward 7 unknown #
coedge $-1 $592 $410 $412 $503 forward $500 $-1 #
coedge $-1 $410 $592 $588 $593 reversed $500 $-1 #
loop $-1 $-1 $498 $585 #
vertex $-1 $411 $594 #
straight-curve $-1 0 33.084036162411707 12.053606741858797 -1 0 0 I I #
edge $-1 $414 -12.053606741858797 $595 12.053606741858797 $412 $596 forward 7 unknown #
face $-1 $-1 $413 $18 $-1 $597 reversed single #
point $-1 53.066805017242956 33.084036162411707 12.053606741858797 #
face $-1 $598 $599 $19 $-1 $600 forward single #
loop $-1 $601 $602 $417 #
cone-surface $-1 -44.637771332957129 -23.479040504299245 2.9157745461421403 0 0.6560590369687036 -0.75470957328743171 1 0 0 1 I I -0.70710678118654768 0.70710678118654735 1 forward I I I I #
loop $-1 $-1 $603 $328 #
coedge $-1 $510 $510 $604 $605 reversed $418 $-1 #
coedge $-1 $420 $606 $607 $608 forward $329 $-1 #
coedge $-1 $607 $429 $421 $513 forward $431 $-1 #
edge $-1 $609 -39.934669441828419 $515 -28.111775356894331 $512 $610 forward 7 unknown #
edge $-1 $609 0 $516 18.021082583606088 $422 $611 forward 7 unknown #
vertex $-1 $513 $612 #
vertex $-1 $425 $613 #
straight-curve $-1 3.5527136788005009e-015 -51.356975075824238 12.0536067418588 0 1 0 I I #
straight-curve $-1 4.2145168421429133 -19.48335261556079 12.053606741858797 1 0 0 I I #
edge $-1 $427 -12.643550526428736 $609 4.2145168421429098 $429 $614 forward 7 unknown #
point $-1 16.85806736857165 -33.084036162411707 0.23071265692470888 #
coedge $-1 $430 $615 $616 $617 reversed $431 $-1 #
face $-1 $618 $431 $19 $-1 $619 reversed single #
coedge $-1 $620 $433 $621 $622 forward $329 $-1 #
coedge $-1 $616 $623 $433 $525 reversed $624 $-1 #
edge $-1 $526 -33.084036162411707 $625 33.084036162411707 $524 $626 forward 7 unknown #
vertex $-1 $525 $627 #
straight-curve $-1 0 -33.084036162411707 12.053606741858797 1 0 0 I I #
straight-curve $-1 0 -33.084036162411707 -12.053606741858797 -1 0 0 I I #
vertex $-1 $443 $628 #
straight-curve $-1 0 33.084036162411707 -12.053606741858797 1 0 0 I I #
point $-1 53.066805017242956 33.084036162411707 -12.053606741858797 #
point $-1 53.066805017242956 -33.084036162411707 -12.053606741858797 #
straight-curve $-1 -53.066805017242956 33.084036162411707 0 0 0 -1 I I #
straight-curve $-1 -53.066805017242956 0 -12.053606741858797 0 1 0 I I #
point $-1 -53.066805017242956 -33.084036162411707 -12.053606741858797 #
straight-curve $-1 53.066805017242956 33.084036162411707 0 0 0 -1 I I #
face $-1 $-1 $559 $17 $-1 $629 reversed single #
loop $-1 $-1 $630 $457 #
plane-surface $-1 0 33.084036162411707 0 0 -1 0 0 0 -1 forward_v I I I I #
coedge $-1 $631 $460 $554 $632 forward $373 $-1 #
coedge $-1 $460 $631 $633 $634 forward $373 $-1 #
coedge $-1 $558 $556 $460 $543 reversed $559 $-1 #
edge $-1 $635 -33.084036162411707 $636 33.084036162411707 $542 $637 forward 7 unknown #
coedge $-1 $630 $638 $461 $545 reversed $538 $-1 #
edge $-1 $560 -53.066805017242956 $547 53.066805017242956 $544 $639 forward 7 unknown #
coedge $-1 $640 $462 $638 $641 forward $458 $-1 #
vertex $-1 $545 $642 #
straight-curve $-1 -53.066805017242956 0 12.053606741858797 0 -1 0 I I #
point $-1 -53.066805017242956 -19.48335261556079 12.053606741858795 #
coedge $-1 $466 $640 $470 $555 reversed $458 $-1 #
vertex $-1 $555 $643 #
straight-curve $-1 -53.066805017242956 -23.719042163198214 8.3715779139786974 0 0.75470957328743171 0.6560590369687036 I I #
straight-curve $-1 -22.318885666478565 -33.084036162411707 0.23071265692470672 -1 0 0 I I #
coedge $-1 $471 $470 $540 $632 reversed $292 $-1 #
edge $-1 $551 -0.23071265692470888 $644 12.053606741858797 $550 $645 forward 7 unknown #
coedge $-1 $542 $472 $471 $557 forward $559 $-1 #
edge $-1 $474 -12.053606741858797 $636 12.053606741858797 $556 $646 forward 7 unknown #
coedge $-1 $472 $542 $630 $647 reversed $559 $-1 #
loop $-1 $-1 $556 $537 #
vertex $-1 $473 $648 #
straight-curve $-1 53.066805017242956 0 12.053606741858797 0 1 0 I I #
point $-1 53.066805017242956 -33.084036162411707 12.053606741858797 #
loop $-1 $-1 $570 $389 #
coedge $-1 $565 $478 $649 $650 forward $390 $-1 #
coedge $-1 $478 $564 $485 $575 reversed $390 $-1 #
edge $-1 $651 1 $651 0 $479 $-1 forward 7 unknown #
vertex $-1 $480 $652 #
ellipse-curve $-1 -44.637771332957129 -24.135099541267948 3.6704841194295716 0 -0.6560590369687036 0.75470957328743171 2 0 0 1 I I #
point $-1 -42.637771332957129 -26.283694388986248 6.1421596993917564 #
coedge $-1 $653 $649 $483 $571 reversed $563 $-1 #
edge $-1 $590 -30.747919350764391 $572 -13.889851982192738 $483 $654 forward 7 unknown #
vertex $-1 $571 $655 #
straight-curve $-1 -36.208737648671303 -51.356975075824238 12.0536067418588 0 -1 0 I I #
coedge $-1 $487 $485 $656 $657 forward $238 $-1 #
edge $-1 $486 28.111775356894331 $658 39.934669441828419 $485 $659 forward 7 unknown #
point $-1 -36.208737648671303 -33.084036162411707 12.053606741858797 #
coedge $-1 $589 $660 $487 $578 reversed $586 $-1 #
edge $-1 $661 -0.23071265692470888 $581 12.053606741858797 $577 $662 forward 7 unknown #
coedge $-1 $663 $488 $660 $664 forward $494 $-1 #
coedge $-1 $488 $663 $490 $583 forward $494 $-1 #
vertex $-1 $664 $665 #
straight-curve $-1 0 -33.084036162411707 -12.053606741858797 -1 0 0 I I #
edge $-1 $595 -33.084036162411707 $491 33.084036162411707 $490 $666 forward 7 unknown #
point $-1 53.066805017242956 -33.084036162411707 -12.053606741858797 #
face $-1 $504 $500 $18 $-1 $667 reversed single #
loop $-1 $-1 $589 $493 #
plane-surface $-1 -53.066805017242956 0 0 1 0 0 0 0 -1 forward_v I I I I #
coedge $-1 $660 $496 $499 $593 forward $586 $-1 #
coedge $-1 $496 $577 $653 $668 forward $586 $-1 #
vertex $-1 $668 $669 #
straight-curve $-1 -53.066805017242956 0 12.053606741858797 0 -1 0 I I #
coedge $-1 $499 $498 $663 $670 reversed $500 $-1 #
edge $-1 $501 -12.053606741858797 $671 12.053606741858797 $499 $672 forward 7 unknown #
point $-1 -53.066805017242956 33.084036162411707 12.053606741858797 #
vertex $-1 $583 $673 #
straight-curve $-1 53.066805017242956 33.084036162411707 0 0 0 -1 I I #
plane-surface $-1 53.066805017242956 0 0 -1 0 0 0 0 1 forward_v I I I I #
face $-1 $522 $674 $19 $-1 $675 forward single #
loop $-1 $-1 $676 $506 #
plane-surface $-1 -36.208737648671303 -102.71395015164848 80.330764197506255 -1 0 0 0 -0.6560590369687036 0.75470957328743171 forward_v I I I I #
loop $-1 $-1 $677 $417 #
coedge $-1 $602 $602 $603 $678 forward $507 $-1 #
coedge $-1 $603 $603 $602 $678 reversed $509 $-1 #
coedge $-1 $604 $604 $510 $605 forward $674 $-1 #
edge $-1 $679 -8.740462180272739e-016 $679 6.2831853071795996 $604 $680 forward 7 unknown #
coedge $-1 $511 $681 $676 $682 forward $329 $-1 #
coedge $-1 $683 $512 $511 $608 reversed $431 $-1 #
edge $-1 $684 -36.208737648671303 $515 3.5527136788005009e-015 $607 $527 forward 7 unknown #
vertex $-1 $519 $685 #
straight-curve $-1 3.5527136788005009e-015 -33.084036162411707 40.165382098753128 0 0 1 I I #
straight-curve $-1 3.5527136788005009e-015 -33.084036162411707 0.23071265692470888 0 0.75470957328743171 0.6560590369687036 I I #
point $-1 3.5527136788005009e-015 -33.084036162411707 12.053606741858797 #
point $-1 3.5527136788005009e-015 -19.48335261556079 12.053606741858795 #
straight-curve $-1 4.2145168421429133 -33.084036162411707 0.23071265692470672 -1 0 0 I I #
coedge $-1 $521 $686 $687 $688 reversed $431 $-1 #
coedge $-1 $689 $524 $521 $617 forward $624 $-1 #
edge $-1 $526 -12.053606741858797 $690 12.053606741858797 $616 $691 forward 7 unknown #
face $-1 $692 $693 $19 $-1 $694 reversed single #
plane-surface $-1 0 -33.084036162411707 0 0 1 0 0 0 1 forward_v I I I I #
coedge $-1 $681 $523 $695 $696 forward $329 $-1 #
coedge $-1 $697 $698 $523 $622 reversed $699 $-1 #
edge $-1 $625 -53.066805017242956 $700 53.066805017242956 $621 $701 forward 7 unknown #
coedge $-1 $524 $689 $697 $702 reversed $624 $-1 #
loop $-1 $-1 $616 $703 #
vertex $-1 $525 $704 #
straight-curve $-1 53.066805017242956 0 12.053606741858797 0 1 0 I I #
point $-1 53.066805017242956 -33.084036162411707 12.053606741858797 #
point $-1 -53.066805017242956 33.084036162411707 -12.053606741858797 #
plane-surface $-1 53.066805017242956 0 0 -1 0 0 0 0 1 forward_v I I I I #
coedge $-1 $633 $544 $558 $647 forward $538 $-1 #
coedge $-1 $541 $540 $640 $705 forward $373 $-1 #
edge $-1 $636 -53.066805017242956 $644 53.066805017242956 $554 $706 forward 7 unknown #
coedge $-1 $638 $630 $541 $634 reversed $538 $-1 #
edge $-1 $707 -53.066805017242956 $635 53.066805017242956 $633 $708 forward 7 unknown #
vertex $-1 $543 $709 #
vertex $-1 $557 $710 #
straight-curve $-1 53.066805017242956 0 -12.053606741858797 0 -1 0 I I #
coedge $-1 $544 $633 $546 $641 reversed $538 $-1 #
straight-curve $-1 0 33.084036162411707 12.053606741858797 -1 0 0 I I #
coedge $-1 $550 $546 $631 $705 reversed $458 $-1 #
edge $-1 $547 -12.053606741858797 $707 12.053606741858797 $638 $711 forward 7 unknown #
point $-1 -53.066805017242956 33.084036162411707 12.053606741858797 #
point $-1 -53.066805017242956 -33.084036162411707 0.23071265692470888 #
vertex $-1 $705 $712 #
straight-curve $-1 -53.066805017242956 -33.084036162411707 0 0 0 -1 I I #
straight-curve $-1 53.066805017242956 -33.084036162411707 0 0 0 -1 I I #
edge $-1 $560 -12.053606741858797 $635 12.053606741858797 $558 $713 forward 7 unknown #
point $-1 53.066805017242956 33.084036162411707 12.053606741858797 #
coedge $-1 $570 $656 $564 $650 reversed $563 $-1 #
edge $-1 $572 -18.021082583606088 $658 0 $564 $714 forward 7 unknown #
vertex $-1 $566 $715 #
point $-1 -42.637771332957129 -24.135099541267948 3.6704841194295716 #
coedge $-1 $656 $570 $589 $668 reversed $563 $-1 #
straight-curve $-1 -22.318885666478565 -19.48335261556079 12.053606741858797 1 0 0 I I #
point $-1 -36.208737648671303 -19.48335261556079 12.053606741858795 #
coedge $-1 $649 $653 $574 $657 reversed $563 $-1 #
edge $-1 $658 13.889851982192738 $661 30.747919350764391 $574 $716 forward 7 unknown #
vertex $-1 $657 $717 #
straight-curve $-1 -36.208737648671303 -33.084036162411707 40.165382098753128 0 0 -1 I I #
coedge $-1 $577 $588 $579 $664 reversed $586 $-1 #
vertex $-1 $578 $718 #
straight-curve $-1 -53.066805017242956 -33.084036162411707 0 0 0 -1 I I #
coedge $-1 $580 $579 $592 $670 forward $494 $-1 #
edge $-1 $581 -33.084036162411707 $671 33.084036162411707 $660 $719 forward 7 unknown #
point $-1 -53.066805017242956 -33.084036162411707 -12.053606741858797 #
straight-curve $-1 53.066805017242956 0 -12.053606741858797 0 -1 0 I I #
plane-surface $-1 0 33.084036162411707 0 0 -1 0 0 0 -1 forward_v I I I I #
edge $-1 $661 -12.40873884562059 $590 5.6123437379854959 $589 $720 forward 7 unknown #
point $-1 -53.066805017242956 -19.48335261556079 12.053606741858795 #
edge $-1 $671 -53.066805017242956 $595 53.066805017242956 $592 $721 forward 7 unknown #
vertex $-1 $670 $722 #
straight-curve $-1 -53.066805017242956 33.084036162411707 0 0 0 -1 I I #
point $-1 53.066805017242956 33.084036162411707 -12.053606741858797 #
loop $-1 $723 $604 $598 #
plane-surface $-1 -44.637771332957129 -33.084036162411707 0.23071265692470888 0 -0.6560590369687036 0.75470957328743171 1 0 0 forward_v I I I I #
coedge $-1 $724 $725 $606 $682 reversed $599 $-1 #
coedge $-1 $677 $677 $-1 $726 forward $601 $-1 #
edge $-1 $727 0 $727 6.2831853071796004 $602 $728 forward 7 unknown #
vertex $-1 $605 $729 #
ellipse-curve $-1 -44.637771332957129 -26.283694388986248 6.1421596993917538 0 0.6560590369687036 -0.75470957328743171 2 0 0 1 I I #
coedge $-1 $606 $620 $730 $731 forward $329 $-1 #
edge $-1 $732 -31.873622460263448 $684 -18.272938913412531 $606 $733 forward 7 unknown #
coedge $-1 $734 $607 $725 $735 forward $431 $-1 #
vertex $-1 $608 $736 #
point $-1 3.5527136788005009e-015 -33.084036162411707 0.23071265692470888 #
coedge $-1 $615 $734 $737 $738 forward $431 $-1 #
coedge $-1 $739 $740 $615 $688 forward $693 $-1 #
edge $-1 $690 -53.066805017242956 $741 53.066805017242956 $615 $742 forward 7 unknown #
coedge $-1 $623 $616 $740 $743 reversed $624 $-1 #
vertex $-1 $617 $744 #
straight-curve $-1 53.066805017242956 -33.084036162411707 0 0 0 -1 I I #
face $-1 $745 $746 $19 $-1 $747 reversed single #
loop $-1 $-1 $740 $618 #
plane-surface $-1 0 0 -12.053606741858797 0 0 1 1 0 0 forward_v I I I I #
coedge $-1 $748 $749 $620 $696 reversed $746 $-1 #
edge $-1 $700 -33.084036162411707 $750 19.48335261556079 $695 $751 forward 7 unknown #
coedge $-1 $752 $621 $623 $702 forward $699 $-1 #
coedge $-1 $621 $752 $748 $753 reversed $699 $-1 #
loop $-1 $-1 $697 $745 #
vertex $-1 $622 $754 #
straight-curve $-1 0 33.084036162411707 12.053606741858797 -1 0 0 I I #
edge $-1 $625 -12.053606741858797 $755 12.053606741858797 $623 $756 forward 7 unknown #
face $-1 $-1 $624 $19 $-1 $757 reversed single #
point $-1 53.066805017242956 33.084036162411707 12.053606741858797 #
edge $-1 $644 -33.084036162411707 $707 33.084036162411707 $640 $758 forward 7 unknown #
straight-curve $-1 0 -33.084036162411707 -12.053606741858797 -1 0 0 I I #
vertex $-1 $634 $759 #
straight-curve $-1 0 33.084036162411707 -12.053606741858797 1 0 0 I I #
point $-1 53.066805017242956 33.084036162411707 -12.053606741858797 #
point $-1 53.066805017242956 -33.084036162411707 -12.053606741858797 #
straight-curve $-1 -53.066805017242956 33.084036162411707 0 0 0 -1 I I #
point $-1 -53.066805017242956 -33.084036162411707 -12.053606741858797 #
straight-curve $-1 53.066805017242956 33.084036162411707 0 0 0 -1 I I #
straight-curve $-1 -36.208737648671303 -33.084036162411707 0.23071265692470888 0 -0.75470957328743171 -0.6560590369687036 I I #
point $-1 -44.637771332957129 -22.822981467330543 2.1610649728547089 #
straight-curve $-1 -22.318885666478565 -33.084036162411707 0.23071265692470672 -1 0 0 I I #
point $-1 -36.208737648671303 -33.084036162411707 0.23071265692470888 #
point $-1 -53.066805017242956 -33.084036162411707 0.23071265692470888 #
straight-curve $-1 -53.066805017242956 0 -12.053606741858797 0 1 0 I I #
straight-curve $-1 -53.066805017242956 -23.719042163198214 8.3715779139786974 0 0.75470957328743171 0.6560590369687036 I I #
straight-curve $-1 0 33.084036162411707 -12.053606741858797 1 0 0 I I #
point $-1 -53.066805017242956 33.084036162411707 -12.053606741858797 #
loop $-1 $-1 $730 $598 #
coedge $-1 $725 $676 $760 $761 forward $599 $-1 #
coedge $-1 $676 $724 $683 $735 reversed $599 $-1 #
edge $-1 $762 1 $762 0 $677 $-1 forward 7 unknown #
vertex $-1 $678 $763 #
ellipse-curve $-1 -44.637771332957129 -24.135099541267948 3.6704841194295716 0 -0.6560590369687036 0.75470957328743171 2 0 0 1 I I #
point $-1 -42.637771332957129 -26.283694388986248 6.1421596993917564 #
coedge $-1 $764 $760 $681 $731 reversed $723 $-1 #
edge $-1 $750 -30.747919350764391 $732 -13.889851982192738 $681 $765 forward 7 unknown #
vertex $-1 $731 $766 #
straight-curve $-1 -36.208737648671303 -51.356975075824238 12.0536067418588 0 -1 0 I I #
coedge $-1 $686 $683 $767 $768 forward $431 $-1 #
edge $-1 $684 28.111775356894331 $769 39.934669441828419 $683 $770 forward 7 unknown #
point $-1 -36.208737648671303 -33.084036162411707 12.053606741858797 #
coedge $-1 $749 $771 $686 $738 reversed $746 $-1 #
edge $-1 $772 -0.23071265692470888 $741 12.053606741858797 $737 $773 forward 7 unknown #
coedge $-1 $774 $687 $771 $775 forward $693 $-1 #
coedge $-1 $687 $774 $689 $743 forward $693 $-1 #
vertex $-1 $775 $776 #
straight-curve $-1 0 -33.084036162411707 -12.053606741858797 -1 0 0 I I #
edge $-1 $755 -33.084036162411707 $690 33.084036162411707 $689 $777 forward 7 unknown #
point $-1 53.066805017242956 -33.084036162411707 -12.053606741858797 #
face $-1 $703 $699 $19 $-1 $778 reversed single #
loop $-1 $-1 $749 $692 #
plane-surface $-1 -53.066805017242956 0 0 1 0 0 0 0 -1 forward_v I I I I #
coedge $-1 $771 $695 $698 $753 forward $746 $-1 #
coedge $-1 $695 $737 $764 $779 forward $746 $-1 #
vertex $-1 $779 $780 #
straight-curve $-1 -53.066805017242956 0 12.053606741858797 0 -1 0 I I #
coedge $-1 $698 $697 $774 $781 reversed $699 $-1 #
edge $-1 $700 -12.053606741858797 $782 12.053606741858797 $698 $783 forward 7 unknown #
point $-1 -53.066805017242956 33.084036162411707 12.053606741858797 #
vertex $-1 $743 $784 #
straight-curve $-1 53.066805017242956 33.084036162411707 0 0 0 -1 I I #
plane-surface $-1 53.066805017242956 0 0 -1 0 0 0 0 1 forward_v I I I I #
straight-curve $-1 -53.066805017242956 0 -12.053606741858797 0 1 0 I I #
point $-1 -53.066805017242956 33.084036162411707 -12.053606741858797 #
coedge $-1 $730 $767 $724 $761 reversed $723 $-1 #
edge $-1 $732 -18.021082583606088 $769 0 $724 $785 forward 7 unknown #
vertex $-1 $726 $786 #
point $-1 -42.637771332957129 -24.135099541267948 3.6704841194295716 #
coedge $-1 $767 $730 $749 $779 reversed $723 $-1 #
straight-curve $-1 -22.318885666478565 -19.48335261556079 12.053606741858797 1 0 0 I I #
point $-1 -36.208737648671303 -19.48335261556079 12.053606741858795 #
coedge $-1 $760 $764 $734 $768 reversed $723 $-1 #
edge $-1 $769 13.889851982192738 $772 30.747919350764391 $734 $787 forward 7 unknown #
vertex $-1 $768 $788 #
straight-curve $-1 -36.208737648671303 -33.084036162411707 40.165382098753128 0 0 -1 I I #
coedge $-1 $737 $748 $739 $775 reversed $746 $-1 #
vertex $-1 $738 $789 #
straight-curve $-1 -53.066805017242956 -33.084036162411707 0 0 0 -1 I I #
coedge $-1 $740 $739 $752 $781 forward $693 $-1 #
edge $-1 $741 -33.084036162411707 $782 33.084036162411707 $771 $790 forward 7 unknown #
point $-1 -53.066805017242956 -33.084036162411707 -12.053606741858797 #
straight-curve $-1 53.066805017242956 0 -12.053606741858797 0 -1 0 I I #
plane-surface $-1 0 33.084036162411707 0 0 -1 0 0 0 -1 forward_v I I I I #
edge $-1 $772 -12.40873884562059 $750 5.6123437379854959 $749 $791 forward 7 unknown #
point $-1 -53.066805017242956 -19.48335261556079 12.053606741858795 #
edge $-1 $782 -53.066805017242956 $755 53.066805017242956 $752 $792 forward 7 unknown #
vertex $-1 $781 $793 #
straight-curve $-1 -53.066805017242956 33.084036162411707 0 0 0 -1 I I #
point $-1 53.066805017242956 33.084036162411707 -12.053606741858797 #
straight-curve $-1 -36.208737648671303 -33.084036162411707 0.23071265692470888 0 -0.75470957328743171 -0.6560590369687036 I I #
point $-1 -44.637771332957129 -22.822981467330543 2.1610649728547089 #
straight-curve $-1 -22.318885666478565 -33.084036162411707 0.23071265692470672 -1 0 0 I I #
point $-1 -36.208737648671303 -33.084036162411707 0.23071265692470888 #
point $-1 -53.066805017242956 -33.084036162411707 0.23071265692470888 #
straight-curve $-1 -53.066805017242956 0 -12.053606741858797 0 1 0 I I #
straight-curve $-1 -53.066805017242956 -23.719042163198214 8.3715779139786974 0 0.75470957328743171 0.6560590369687036 I I #
straight-curve $-1 0 33.084036162411707 -12.053606741858797 1 0 0 I I #
point $-1 -53.066805017242956 33.084036162411707 -12.053606741858797 #
End-of-ACIS-data 