500 0 14 0           
7 Unknown 11 ACIS 5.0 NT 24 Thu Mar 25 19:05:59 1999 
-1 9.9999999999999995e-007 1e-010 
body $-1 $14 $-1 $15 #
body $-1 $16 $-1 $17 #
body $-1 $18 $-1 $19 #
body $-1 $20 $-1 $21 #
body $-1 $22 $-1 $23 #
body $-1 $24 $-1 $25 #
body $-1 $26 $-1 $27 #
body $-1 $28 $-1 $29 #
body $-1 $30 $-1 $31 #
body $-1 $32 $-1 $33 #
body $-1 $34 $-1 $35 #
body $-1 $36 $-1 $37 #
body $-1 $38 $-1 $39 #
body $-1 $40 $-1 $41 #
lump $-1 $-1 $42 $0 #
transform $-1 1 0 0 0 1 0 0 0 1 44.405652027954957 23.028003830677871 10.11195511086485 1 rotate no_reflect no_shear #
lump $-1 $-1 $43 $1 #
transform $-1 1 0 0 0 1 0 0 0 1 44.405652027954957 23.028003830677871 10.11195511086485 1 rotate no_reflect no_shear #
lump $-1 $-1 $44 $2 #
transform $-1 1 0 0 0 1 0 0 0 1 44.405652027954957 23.028003830677871 10.11195511086485 1 rotate no_reflect no_shear #
lump $-1 $-1 $45 $3 #
transform $-1 1 0 0 0 1 0 0 0 1 44.405652027954957 23.028003830677871 10.11195511086485 1 rotate no_reflect no_shear #
lump $-1 $-1 $46 $4 #
transform $-1 1 0 0 0 1 0 0 0 1 44.405652027954957 23.028003830677871 10.11195511086485 1 rotate no_reflect no_shear #
lump $-1 $-1 $47 $5 #
transform $-1 1 0 0 0 1 0 0 0 1 44.405652027954957 23.028003830677871 10.11195511086485 1 rotate no_reflect no_shear #
lump $-1 $-1 $48 $6 #
transform $-1 1 0 0 0 1 0 0 0 1 44.405652027954957 23.028003830677871 10.11195511086485 1 rotate no_reflect no_shear #
lump $-1 $-1 $49 $7 #
transform $-1 1 0 0 0 1 0 0 0 1 44.405652027954957 23.028003830677871 10.11195511086485 1 rotate no_reflect no_shear #
lump $-1 $-1 $50 $8 #
transform $-1 1 0 0 0 1 0 0 0 1 44.405652027954957 23.028003830677871 10.11195511086485 1 rotate no_reflect no_shear #
lump $-1 $-1 $51 $9 #
transform $-1 1 0 0 0 1 0 0 0 1 44.405652027954957 23.028003830677871 10.11195511086485 1 rotate no_reflect no_shear #
lump $-1 $-1 $52 $10 #
transform $-1 1 0 0 0 1 0 0 0 1 44.405652027954957 23.028003830677871 10.11195511086485 1 rotate no_reflect no_shear #
lump $-1 $-1 $53 $11 #
transform $-1 1 0 0 0 1 0 0 0 1 44.405652027954957 23.028003830677871 10.11195511086485 1 rotate no_reflect no_shear #
lump $-1 $-1 $54 $12 #
transform $-1 1 0 0 0 1 0 0 0 1 44.405652027954957 23.028003830677871 10.11195511086485 1 rotate no_reflect no_shear #
lump $-1 $-1 $55 $13 #
transform $-1 1 0 0 0 1 0 0 0 1 44.405652027954957 23.028003830677871 10.11195511086485 1 rotate no_reflect no_shear #
shell $-1 $-1 $-1 $56 $-1 $14 #
shell $-1 $-1 $-1 $57 $-1 $16 #
shell $-1 $-1 $-1 $58 $-1 $18 #
shell $-1 $-1 $-1 $59 $-1 $20 #
shell $-1 $-1 $-1 $60 $-1 $22 #
shell $-1 $-1 $-1 $61 $-1 $24 #
shell $-1 $-1 $-1 $62 $-1 $26 #
shell $-1 $-1 $-1 $63 $-1 $28 #
shell $-1 $-1 $-1 $64 $-1 $30 #
shell $-1 $-1 $-1 $65 $-1 $32 #
shell $-1 $-1 $-1 $66 $-1 $34 #
shell $-1 $-1 $-1 $67 $-1 $36 #
shell $-1 $-1 $-1 $68 $-1 $38 #
shell $-1 $-1 $-1 $69 $-1 $40 #
face $-1 $70 $71 $42 $-1 $72 forward single #
face $-1 $73 $74 $43 $-1 $75 forward single #
face $-1 $76 $77 $44 $-1 $78 reversed single #
face $-1 $79 $80 $45 $-1 $81 forward single #
face $-1 $82 $83 $46 $-1 $84 forward single #
face $-1 $85 $86 $47 $-1 $87 reversed single #
face $-1 $88 $89 $48 $-1 $90 forward single #
face $-1 $91 $92 $49 $-1 $93 forward single #
face $-1 $94 $95 $50 $-1 $96 reversed single #
face $-1 $97 $98 $51 $-1 $99 forward single #
face $-1 $100 $101 $52 $-1 $102 forward single #
face $-1 $103 $104 $53 $-1 $105 reversed single #
face $-1 $106 $107 $54 $-1 $108 forward single #
face $-1 $109 $110 $55 $-1 $111 forward single #
face $-1 $112 $113 $42 $-1 $114 reversed single #
loop $-1 $-1 $115 $56 #
plane-surface $-1 0 0 10.11195511086485 0 0 1 1 0 0 forward_v I I I I #
face $-1 $116 $117 $43 $-1 $118 forward single #
loop $-1 $-1 $119 $57 #
plane-surface $-1 0 -23.028003830677871 0 0 1 0 0 0 1 forward_v I I I I #
face $-1 $120 $121 $44 $-1 $122 reversed single #
loop $-1 $-1 $123 $58 #
plane-surface $-1 -96.607627455794827 -7.2570517723656964 73.655027612254983 0 1 0 -0.5877852598018023 0 0.80901698891910034 forward_v I I I I #
face $-1 $124 $125 $45 $-1 $126 forward single #
loop $-1 $127 $128 $59 #
cone-surface $-1 -37.600341037901977 -4.7868900856566654 4.4601535034295017 0.5877852598018023 0 -0.80901698891910034 0.80901698891910034 0 0.5877852598018023 1 I I 0 1 1 forward I I I I #
face $-1 $129 $130 $46 $-1 $131 forward single #
loop $-1 $132 $133 $60 #
cone-surface $-1 -37.600341037901977 -1.0816475555931149 4.4601535034295017 0.5877852598018023 0 -0.80901698891910034 0.80901698891910034 0 0.5877852598018023 1 I I 0 1 1 forward I I I I #
face $-1 $134 $135 $47 $-1 $136 reversed single #
loop $-1 $-1 $137 $61 #
plane-surface $-1 -96.607627455794827 8.0262601420689101 73.655027612254983 0 1 0 -0.5877852598018023 0 0.80901698891910034 forward_v I I I I #
face $-1 $138 $139 $48 $-1 $140 forward single #
loop $-1 $141 $142 $62 #
cone-surface $-1 -37.600341037901977 10.496421828777937 4.4601535034295017 0.5877852598018023 0 -0.80901698891910034 0.80901698891910034 0 0.5877852598018023 1 I I 0 1 1 forward I I I I #
face $-1 $143 $144 $49 $-1 $145 forward single #
loop $-1 $146 $147 $63 #
cone-surface $-1 -37.600341037901977 14.201664358841487 4.4601535034295017 0.5877852598018023 0 -0.80901698891910034 0.80901698891910034 0 0.5877852598018023 1 I I 0 1 1 forward I I I I #
face $-1 $148 $149 $50 $-1 $150 reversed single #
loop $-1 $-1 $151 $64 #
plane-surface $-1 24.757773666503923 1.3885141311159162 125.85700304009485 0 -1 0 -0.5877852598018023 0 -0.80901698891910034 forward_v I I I I #
face $-1 $152 $153 $51 $-1 $154 forward single #
loop $-1 $155 $156 $65 #
cone-surface $-1 37.600341037901977 -4.7868900856566654 4.460153503429507 -0.5877852598018023 0 -0.80901698891910034 0.80901698891910034 0 -0.5877852598018023 1 I I 0 1 1 forward I I I I #
face $-1 $157 $158 $52 $-1 $159 forward single #
loop $-1 $160 $161 $66 #
cone-surface $-1 37.600341037901977 -1.0816475555931149 4.460153503429507 -0.5877852598018023 0 -0.80901698891910034 0.80901698891910034 0 -0.5877852598018023 1 I I 0 1 1 forward I I I I #
face $-1 $162 $163 $53 $-1 $164 reversed single #
loop $-1 $-1 $165 $67 #
plane-surface $-1 24.757773666503923 16.671826045550521 125.85700304009485 0 -1 0 -0.5877852598018023 0 -0.80901698891910034 forward_v I I I I #
face $-1 $166 $167 $54 $-1 $168 forward single #
loop $-1 $169 $170 $68 #
cone-surface $-1 37.600341037901977 10.496421828777937 4.460153503429507 -0.5877852598018023 0 -0.80901698891910034 0.80901698891910034 0 -0.5877852598018023 1 I I 0 1 1 forward I I I I #
face $-1 $171 $172 $55 $-1 $173 forward single #
loop $-1 $174 $175 $69 #
cone-surface $-1 37.600341037901977 14.201664358841487 4.460153503429507 -0.5877852598018023 0 -0.80901698891910034 0.80901698891910034 0 -0.5877852598018023 1 I I 0 1 1 forward I I I I #
face $-1 $176 $177 $42 $-1 $178 reversed single #
loop $-1 $-1 $179 $70 #
plane-surface $-1 0 0 -10.11195511086485 0 0 1 1 0 0 forward_v I I I I #
coedge $-1 $180 $181 $182 $183 forward $71 $-1 #
face $-1 $184 $185 $43 $-1 $186 reversed single #
loop $-1 $-1 $187 $73 #
plane-surface $-1 0 0 10.11195511086485 0 0 1 1 0 0 forward_v I I I I #
coedge $-1 $188 $189 $190 $191 forward $74 $-1 #
face $-1 $192 $193 $44 $-1 $194 reversed single #
loop $-1 $-1 $195 $76 #
plane-surface $-1 -44.405652027954957 -2.9342688206248901 1.8051738229640648 -0.5877852598018023 0 0.80901698891910034 0.80901698891910034 0 0.5877852598018023 forward_v I I I I #
coedge $-1 $196 $197 $198 $199 reversed $77 $-1 #
face $-1 $-1 $200 $45 $-1 $201 forward single #
loop $-1 $202 $203 $79 #
cone-surface $-1 -36.217789097349765 -4.7868900856566654 2.5572340454850035 0.5877852598018023 0 -0.80901698891910034 0.40450849445955017 0 0.29389262990090115 1 I I -0.70710678118654746 0.70710678118654746 0.5 forward I I I I #
loop $-1 $-1 $204 $59 #
coedge $-1 $128 $128 $205 $206 reversed $80 $-1 #
face $-1 $-1 $207 $46 $-1 $208 forward single #
loop $-1 $209 $210 $82 #
cone-surface $-1 -36.217789097349765 -1.0816475555931149 2.5572340454850035 0.5877852598018023 0 -0.80901698891910034 0.40450849445955017 0 0.29389262990090115 1 I I -0.70710678118654746 0.70710678118654746 0.5 forward I I I I #
loop $-1 $-1 $211 $60 #
coedge $-1 $133 $133 $212 $213 reversed $83 $-1 #
face $-1 $214 $215 $47 $-1 $216 reversed single #
loop $-1 $-1 $217 $85 #
plane-surface $-1 -44.405652027954957 12.349043093809716 1.8051738229640648 -0.5877852598018023 0 0.80901698891910034 0.80901698891910034 0 0.5877852598018023 forward_v I I I I #
coedge $-1 $218 $219 $220 $221 reversed $86 $-1 #
face $-1 $-1 $222 $48 $-1 $223 forward single #
loop $-1 $224 $225 $88 #
cone-surface $-1 -36.217789097349765 10.496421828777937 2.5572340454850035 0.5877852598018023 0 -0.80901698891910034 0.40450849445955017 0 0.29389262990090115 1 I I -0.70710678118654746 0.70710678118654746 0.5 forward I I I I #
loop $-1 $-1 $226 $62 #
coedge $-1 $142 $142 $227 $228 reversed $89 $-1 #
face $-1 $-1 $229 $49 $-1 $230 forward single #
loop $-1 $231 $232 $91 #
cone-surface $-1 -36.217789097349765 14.201664358841487 2.5572340454850035 0.5877852598018023 0 -0.80901698891910034 0.40450849445955017 0 0.29389262990090115 1 I I -0.70710678118654746 0.70710678118654746 0.5 forward I I I I #
loop $-1 $-1 $233 $63 #
coedge $-1 $147 $147 $234 $235 reversed $92 $-1 #
face $-1 $236 $237 $50 $-1 $238 reversed single #
loop $-1 $-1 $239 $94 #
plane-surface $-1 -27.444201761335947 -2.9342688206248901 54.007149250803934 0.5877852598018023 0 0.80901698891910034 0.80901698891910034 0 -0.5877852598018023 forward_v I I I I #
coedge $-1 $240 $241 $242 $243 reversed $95 $-1 #
face $-1 $-1 $244 $51 $-1 $245 forward single #
loop $-1 $246 $247 $97 #
cone-surface $-1 36.217789097349765 -4.7868900856566654 2.5572340454850089 -0.5877852598018023 0 -0.80901698891910034 0.40450849445955017 0 -0.29389262990090115 1 I I -0.70710678118654746 0.70710678118654746 0.5 forward I I I I #
loop $-1 $-1 $248 $65 #
coedge $-1 $156 $156 $249 $250 reversed $98 $-1 #
face $-1 $-1 $251 $52 $-1 $252 forward single #
loop $-1 $253 $254 $100 #
cone-surface $-1 36.217789097349765 -1.0816475555931149 2.5572340454850089 -0.5877852598018023 0 -0.80901698891910034 0.40450849445955017 0 -0.29389262990090115 1 I I -0.70710678118654746 0.70710678118654746 0.5 forward I I I I #
loop $-1 $-1 $255 $66 #
coedge $-1 $161 $161 $256 $257 reversed $101 $-1 #
face $-1 $258 $259 $53 $-1 $260 reversed single #
loop $-1 $-1 $261 $103 #
plane-surface $-1 -27.444201761335947 12.349043093809716 54.007149250803934 0.5877852598018023 0 0.80901698891910034 0.80901698891910034 0 -0.5877852598018023 forward_v I I I I #
coedge $-1 $262 $263 $264 $265 reversed $104 $-1 #
face $-1 $-1 $266 $54 $-1 $267 forward single #
loop $-1 $268 $269 $106 #
cone-surface $-1 36.217789097349765 10.496421828777937 2.5572340454850089 -0.5877852598018023 0 -0.80901698891910034 0.40450849445955017 0 -0.29389262990090115 1 I I -0.70710678118654746 0.70710678118654746 0.5 forward I I I I #
loop $-1 $-1 $270 $68 #
coedge $-1 $170 $170 $271 $272 reversed $107 $-1 #
face $-1 $-1 $273 $55 $-1 $274 forward single #
loop $-1 $275 $276 $109 #
cone-surface $-1 36.217789097349765 14.201664358841487 2.5572340454850089 -0.5877852598018023 0 -0.80901698891910034 0.40450849445955017 0 -0.29389262990090115 1 I I -0.70710678118654746 0.70710678118654746 0.5 forward I I I I #
loop $-1 $-1 $277 $69 #
coedge $-1 $175 $175 $278 $279 reversed $110 $-1 #
face $-1 $280 $281 $42 $-1 $282 reversed single #
loop $-1 $-1 $283 $112 #
plane-surface $-1 0 -23.028003830677871 0 0 1 0 0 0 1 forward_v I I I I #
coedge $-1 $284 $285 $286 $287 forward $113 $-1 #
coedge $-1 $288 $115 $289 $290 forward $71 $-1 #
coedge $-1 $115 $288 $291 $292 forward $71 $-1 #
coedge $-1 $293 $294 $115 $183 reversed $295 $-1 #
edge $-1 $296 -23.028003830677871 $297 23.028003830677871 $182 $298 forward 7 unknown #
face $-1 $299 $300 $43 $-1 $301 reversed single #
loop $-1 $-1 $302 $116 #
plane-surface $-1 -44.405652027954957 0 0 1 0 0 0 0 -1 forward_v I I I I #
coedge $-1 $303 $304 $189 $305 forward $117 $-1 #
coedge $-1 $306 $119 $307 $308 reversed $74 $-1 #
coedge $-1 $119 $306 $187 $305 reversed $74 $-1 #
coedge $-1 $309 $310 $119 $191 reversed $311 $-1 #
edge $-1 $312 -10.11195511086485 $313 10.11195511086485 $190 $314 forward 7 unknown #
face $-1 $315 $316 $44 $-1 $317 reversed single #
loop $-1 $-1 $318 $120 #
plane-surface $-1 -96.607627455794827 1.3885141311159162 73.655027612254983 0 -1 0 0.5877852598018023 0 -0.80901698891910034 forward_v I I I I #
coedge $-1 $319 $320 $321 $322 reversed $121 $-1 #
coedge $-1 $197 $123 $323 $324 reversed $77 $-1 #
coedge $-1 $123 $196 $319 $325 reversed $77 $-1 #
coedge $-1 $321 $326 $123 $199 forward $327 $-1 #
edge $-1 $328 3.898161699942456 $329 15.331465058745763 $198 $330 forward 7 unknown #
loop $-1 $-1 $205 $124 #
plane-surface $-1 -44.405652027954957 -2.9342688206248901 1.8051738229640648 -0.5877852598018023 0 0.80901698891910034 0.80901698891910034 0 0.5877852598018023 forward_v I I I I #
loop $-1 $-1 $331 $79 #
coedge $-1 $203 $203 $204 $332 reversed $125 $-1 #
coedge $-1 $204 $204 $203 $332 forward $127 $-1 #
coedge $-1 $205 $205 $128 $206 forward $200 $-1 #
edge $-1 $333 0 $333 6.2831853071796004 $205 $334 forward 7 unknown #
loop $-1 $-1 $212 $129 #
plane-surface $-1 -44.405652027954957 -2.9342688206248901 1.8051738229640648 -0.5877852598018023 0 0.80901698891910034 0.80901698891910034 0 0.5877852598018023 forward_v I I I I #
loop $-1 $-1 $335 $82 #
coedge $-1 $210 $210 $211 $336 reversed $130 $-1 #
coedge $-1 $211 $211 $210 $336 forward $132 $-1 #
coedge $-1 $212 $212 $133 $213 forward $207 $-1 #
edge $-1 $337 0 $337 6.2831853071796004 $212 $338 forward 7 unknown #
face $-1 $339 $340 $47 $-1 $341 forward single #
loop $-1 $-1 $342 $134 #
plane-surface $-1 -96.607627455794827 16.671826045550521 73.655027612254983 0 -1 0 0.5877852598018023 0 -0.80901698891910034 forward_v I I I I #
coedge $-1 $343 $344 $345 $346 reversed $135 $-1 #
coedge $-1 $219 $137 $347 $348 reversed $86 $-1 #
coedge $-1 $137 $218 $343 $349 reversed $86 $-1 #
coedge $-1 $345 $350 $137 $221 forward $340 $-1 #
edge $-1 $351 3.898161699942456 $352 15.331465058745763 $220 $353 forward 7 unknown #
loop $-1 $-1 $227 $138 #
plane-surface $-1 -44.405652027954957 12.349043093809716 1.8051738229640648 -0.5877852598018023 0 0.80901698891910034 0.80901698891910034 0 0.5877852598018023 forward_v I I I I #
loop $-1 $-1 $354 $88 #
coedge $-1 $225 $225 $226 $355 reversed $139 $-1 #
coedge $-1 $226 $226 $225 $355 forward $141 $-1 #
coedge $-1 $227 $227 $142 $228 forward $222 $-1 #
edge $-1 $356 0 $356 6.2831853071796004 $227 $357 forward 7 unknown #
loop $-1 $-1 $234 $143 #
plane-surface $-1 -44.405652027954957 12.349043093809716 1.8051738229640648 -0.5877852598018023 0 0.80901698891910034 0.80901698891910034 0 0.5877852598018023 forward_v I I I I #
loop $-1 $-1 $358 $91 #
coedge $-1 $232 $232 $233 $359 reversed $144 $-1 #
coedge $-1 $233 $233 $232 $359 forward $146 $-1 #
coedge $-1 $234 $234 $147 $235 forward $229 $-1 #
edge $-1 $360 0 $360 6.2831853071796004 $234 $361 forward 7 unknown #
face $-1 $362 $363 $50 $-1 $364 forward single #
loop $-1 $-1 $365 $148 #
plane-surface $-1 24.757773666503923 -7.2570517723656964 125.85700304009485 0 1 0 0.5877852598018023 0 0.80901698891910034 forward_v I I I I #
coedge $-1 $366 $367 $368 $369 reversed $149 $-1 #
coedge $-1 $241 $151 $370 $371 reversed $95 $-1 #
coedge $-1 $151 $240 $366 $372 reversed $95 $-1 #
coedge $-1 $368 $373 $151 $243 forward $363 $-1 #
edge $-1 $374 -32.026765194702996 $375 -20.59346183589971 $242 $376 forward 7 unknown #
loop $-1 $-1 $249 $152 #
plane-surface $-1 -27.444201761335947 -2.9342688206248901 54.007149250803934 0.5877852598018023 0 0.80901698891910034 0.80901698891910034 0 -0.5877852598018023 forward_v I I I I #
loop $-1 $-1 $377 $97 #
coedge $-1 $247 $247 $248 $378 reversed $153 $-1 #
coedge $-1 $248 $248 $247 $378 forward $155 $-1 #
coedge $-1 $249 $249 $156 $250 forward $244 $-1 #
edge $-1 $379 0 $379 6.2831853071796004 $249 $380 forward 7 unknown #
loop $-1 $-1 $256 $157 #
plane-surface $-1 -27.444201761335947 -2.9342688206248901 54.007149250803934 0.5877852598018023 0 0.80901698891910034 0.80901698891910034 0 -0.5877852598018023 forward_v I I I I #
loop $-1 $-1 $381 $100 #
coedge $-1 $254 $254 $255 $382 reversed $158 $-1 #
coedge $-1 $255 $255 $254 $382 forward $160 $-1 #
coedge $-1 $256 $256 $161 $257 forward $251 $-1 #
edge $-1 $383 0 $383 6.2831853071796004 $256 $384 forward 7 unknown #
face $-1 $385 $386 $53 $-1 $387 reversed single #
loop $-1 $-1 $388 $162 #
plane-surface $-1 24.757773666503923 8.0262601420689101 125.85700304009485 0 1 0 0.5877852598018023 0 0.80901698891910034 forward_v I I I I #
coedge $-1 $389 $390 $391 $392 reversed $163 $-1 #
coedge $-1 $263 $165 $393 $394 reversed $104 $-1 #
coedge $-1 $165 $262 $389 $395 reversed $104 $-1 #
coedge $-1 $391 $396 $165 $265 forward $397 $-1 #
edge $-1 $398 -32.026765194702996 $399 -20.59346183589971 $264 $400 forward 7 unknown #
loop $-1 $-1 $271 $166 #
plane-surface $-1 -27.444201761335947 12.349043093809716 54.007149250803934 0.5877852598018023 0 0.80901698891910034 0.80901698891910034 0 -0.5877852598018023 forward_v I I I I #
loop $-1 $-1 $401 $106 #
coedge $-1 $269 $269 $270 $402 reversed $167 $-1 #
coedge $-1 $270 $270 $269 $402 forward $169 $-1 #
coedge $-1 $271 $271 $170 $272 forward $266 $-1 #
edge $-1 $403 0 $403 6.2831853071796004 $271 $404 forward 7 unknown #
loop $-1 $-1 $278 $171 #
plane-surface $-1 -27.444201761335947 12.349043093809716 54.007149250803934 0.5877852598018023 0 0.80901698891910034 0.80901698891910034 0 -0.5877852598018023 forward_v I I I I #
loop $-1 $-1 $405 $109 #
coedge $-1 $276 $276 $277 $406 reversed $172 $-1 #
coedge $-1 $277 $277 $276 $406 forward $174 $-1 #
coedge $-1 $278 $278 $175 $279 forward $273 $-1 #
edge $-1 $407 0 $407 6.2831853071796004 $278 $408 forward 7 unknown #
face $-1 $409 $410 $42 $-1 $411 reversed single #
loop $-1 $-1 $412 $176 #
plane-surface $-1 -44.405652027954957 0 0 1 0 0 0 0 -1 forward_v I I I I #
coedge $-1 $413 $291 $414 $415 forward $177 $-1 #
coedge $-1 $416 $179 $413 $417 forward $113 $-1 #
coedge $-1 $179 $416 $418 $419 forward $113 $-1 #
coedge $-1 $294 $293 $179 $287 reversed $295 $-1 #
edge $-1 $420 -23.028003830677871 $421 23.028003830677871 $286 $422 forward 7 unknown #
coedge $-1 $181 $180 $423 $424 forward $71 $-1 #
coedge $-1 $425 $426 $180 $290 reversed $410 $-1 #
edge $-1 $297 -44.405652027954957 $427 44.405652027954957 $289 $428 forward 7 unknown #
coedge $-1 $283 $429 $181 $292 reversed $177 $-1 #
edge $-1 $430 -44.405652027954957 $296 44.405652027954957 $291 $431 forward 7 unknown #
coedge $-1 $286 $182 $429 $432 forward $295 $-1 #
coedge $-1 $182 $286 $425 $433 reversed $295 $-1 #
loop $-1 $-1 $293 $409 #
vertex $-1 $183 $434 #
vertex $-1 $183 $435 #
straight-curve $-1 44.405652027954957 0 10.11195511086485 0 1 0 I I #
face $-1 $436 $311 $43 $-1 $437 reversed single #
loop $-1 $-1 $438 $184 #
plane-surface $-1 -42.799719132009962 -32.442778103862693 0 0 1 0 0 0 1 forward_v I I I I #
coedge $-1 $439 $440 $306 $441 forward $185 $-1 #
coedge $-1 $442 $187 $440 $443 forward $117 $-1 #
coedge $-1 $187 $442 $309 $444 forward $117 $-1 #
edge $-1 $312 41.193786236064966 $445 44.405652027954957 $187 $446 forward 7 unknown #
coedge $-1 $189 $188 $302 $441 reversed $74 $-1 #
coedge $-1 $447 $448 $188 $308 forward $449 $-1 #
edge $-1 $450 -44.405652027954957 $313 -41.193786236064966 $307 $451 forward 7 unknown #
coedge $-1 $452 $190 $304 $444 reversed $311 $-1 #
coedge $-1 $190 $452 $447 $453 reversed $311 $-1 #
loop $-1 $-1 $452 $299 #
vertex $-1 $305 $454 #
vertex $-1 $453 $455 #
straight-curve $-1 -41.193786236064966 -23.028003830677871 0 0 0 -1 I I #
face $-1 $-1 $327 $44 $-1 $456 forward single #
loop $-1 $-1 $457 $192 #
plane-surface $-1 -44.405652027954957 0 0 1 0 0 0 0 -1 forward_v I I I I #
coedge $-1 $458 $459 $460 $461 reversed $193 $-1 #
coedge $-1 $462 $195 $197 $325 forward $121 $-1 #
coedge $-1 $195 $462 $458 $463 forward $121 $-1 #
coedge $-1 $460 $198 $195 $322 forward $327 $-1 #
edge $-1 $329 -5.7899173620532514 $464 2.8556485414283612 $321 $465 forward 7 unknown #
coedge $-1 $466 $467 $196 $324 forward $316 $-1 #
edge $-1 $468 -35.022339983163427 $328 -26.715558695262644 $323 $469 forward 7 unknown #
edge $-1 $329 -14.132340254163202 $468 0 $197 $470 forward 7 unknown #
coedge $-1 $198 $460 $466 $471 forward $327 $-1 #
loop $-1 $-1 $460 $315 #
vertex $-1 $324 $472 #
vertex $-1 $199 $473 #
straight-curve $-1 -48.303813727897413 -7.2570517723656964 10.111955110864848 1 0 0 I I #
coedge $-1 $331 $331 $-1 $474 reversed $202 $-1 #
edge $-1 $475 0 $475 6.2831853071796004 $203 $476 forward 7 unknown #
vertex $-1 $206 $477 #
ellipse-curve $-1 -38.6890003485533 -4.7868900856566654 5.9585644669144617 -0.5877852598018023 0 0.80901698891910034 0.80901698891910034 0 0.5877852598018023 1 I I #
coedge $-1 $335 $335 $-1 $478 reversed $209 $-1 #
edge $-1 $479 0 $479 6.2831853071796004 $210 $480 forward 7 unknown #
vertex $-1 $213 $481 #
ellipse-curve $-1 -38.6890003485533 -1.0816475555931149 5.9585644669144617 -0.5877852598018023 0 0.80901698891910034 0.80901698891910034 0 0.5877852598018023 1 I I #
face $-1 $-1 $482 $47 $-1 $483 reversed single #
loop $-1 $-1 $220 $214 #
plane-surface $-1 0 0 10.11195511086485 0 0 1 1 0 0 forward_v I I I I #
coedge $-1 $484 $485 $486 $487 reversed $215 $-1 #
coedge $-1 $488 $217 $219 $349 forward $135 $-1 #
coedge $-1 $217 $488 $484 $489 forward $135 $-1 #
coedge $-1 $486 $220 $217 $346 forward $340 $-1 #
edge $-1 $352 1.8517385951640524 $490 10.497304498645663 $345 $491 forward 7 unknown #
coedge $-1 $492 $493 $218 $348 forward $482 $-1 #
edge $-1 $494 -35.022339983163427 $351 -26.715558695262644 $347 $495 forward 7 unknown #
edge $-1 $352 -14.132340254163202 $494 0 $219 $496 forward 7 unknown #
coedge $-1 $220 $486 $492 $497 forward $340 $-1 #
vertex $-1 $348 $498 #
vertex $-1 $221 $499 #
straight-curve $-1 -48.303813727897413 8.0262601420689101 10.111955110864848 1 0 0 I I #
coedge $-1 $354 $354 $-1 $500 reversed $224 $-1 #
edge $-1 $501 0 $501 6.2831853071796004 $225 $502 forward 7 unknown #
vertex $-1 $228 $503 #
ellipse-curve $-1 -38.6890003485533 10.496421828777937 5.9585644669144617 -0.5877852598018023 0 0.80901698891910034 0.80901698891910034 0 0.5877852598018023 1 I I #
coedge $-1 $358 $358 $-1 $504 reversed $231 $-1 #
edge $-1 $505 0 $505 6.2831853071796004 $232 $506 forward 7 unknown #
vertex $-1 $235 $507 #
ellipse-curve $-1 -38.6890003485533 14.201664358841487 5.9585644669144617 -0.5877852598018023 0 0.80901698891910034 0.80901698891910034 0 0.5877852598018023 1 I I #
face $-1 $-1 $508 $50 $-1 $509 reversed single #
loop $-1 $-1 $242 $236 #
plane-surface $-1 0 0 10.11195511086485 0 0 1 1 0 0 forward_v I I I I #
coedge $-1 $510 $511 $512 $513 reversed $237 $-1 #
coedge $-1 $514 $239 $241 $372 forward $149 $-1 #
coedge $-1 $239 $514 $510 $515 forward $149 $-1 #
coedge $-1 $512 $242 $239 $369 forward $363 $-1 #
edge $-1 $375 -2.8556485414283612 $516 5.7899173620532514 $368 $517 forward 7 unknown #
coedge $-1 $518 $519 $240 $371 forward $508 $-1 #
edge $-1 $520 -61.12332769708334 $374 -52.816546409182578 $370 $521 forward 7 unknown #
edge $-1 $375 74.678963801746718 $520 88.811304055909886 $241 $522 forward 7 unknown #
coedge $-1 $242 $512 $518 $523 forward $363 $-1 #
vertex $-1 $243 $524 #
vertex $-1 $243 $525 #
straight-curve $-1 12.378886833251961 1.3885141311159162 10.111955110864848 -1 0 0 I I #
coedge $-1 $377 $377 $-1 $526 reversed $246 $-1 #
edge $-1 $527 0 $527 6.2831853071796004 $247 $528 forward 7 unknown #
vertex $-1 $250 $529 #
ellipse-curve $-1 38.689000348553307 -4.7868900856566654 5.9585644669144751 0.5877852598018023 0 0.80901698891910034 0.80901698891910034 0 -0.5877852598018023 1 I I #
coedge $-1 $381 $381 $-1 $530 reversed $253 $-1 #
edge $-1 $531 0 $531 6.2831853071796004 $254 $532 forward 7 unknown #
vertex $-1 $257 $533 #
ellipse-curve $-1 38.689000348553307 -1.0816475555931149 5.9585644669144751 0.5877852598018023 0 0.80901698891910034 0.80901698891910034 0 -0.5877852598018023 1 I I #
face $-1 $-1 $397 $53 $-1 $534 forward single #
loop $-1 $-1 $535 $258 #
plane-surface $-1 44.405652027954957 0 0 -1 0 0 0 0 1 forward_v I I I I #
coedge $-1 $536 $537 $538 $539 reversed $259 $-1 #
coedge $-1 $540 $261 $263 $395 forward $163 $-1 #
coedge $-1 $261 $540 $536 $541 forward $163 $-1 #
coedge $-1 $538 $264 $261 $392 forward $397 $-1 #
edge $-1 $399 -10.497304498645663 $542 -1.8517385951640524 $391 $543 forward 7 unknown #
coedge $-1 $544 $545 $262 $394 forward $386 $-1 #
edge $-1 $546 -61.12332769708334 $398 -52.816546409182578 $393 $547 forward 7 unknown #
edge $-1 $399 74.678963801746718 $546 88.811304055909886 $263 $548 forward 7 unknown #
coedge $-1 $264 $538 $544 $549 forward $397 $-1 #
loop $-1 $-1 $538 $385 #
vertex $-1 $394 $550 #
vertex $-1 $265 $551 #
straight-curve $-1 12.378886833251961 16.671826045550521 10.111955110864848 -1 0 0 I I #
coedge $-1 $401 $401 $-1 $552 reversed $268 $-1 #
edge $-1 $553 0 $553 6.2831853071796004 $269 $554 forward 7 unknown #
vertex $-1 $272 $555 #
ellipse-curve $-1 38.689000348553307 10.496421828777937 5.9585644669144751 0.5877852598018023 0 0.80901698891910034 0.80901698891910034 0 -0.5877852598018023 1 I I #
coedge $-1 $405 $405 $-1 $556 reversed $275 $-1 #
edge $-1 $557 0 $557 6.2831853071796004 $276 $558 forward 7 unknown #
vertex $-1 $279 $559 #
ellipse-curve $-1 38.689000348553307 14.201664358841487 5.9585644669144751 0.5877852598018023 0 0.80901698891910034 0.80901698891910034 0 -0.5877852598018023 1 I I #
face $-1 $-1 $295 $42 $-1 $560 reversed single #
loop $-1 $-1 $425 $280 #
plane-surface $-1 0 23.028003830677871 0 0 -1 0 0 0 -1 forward_v I I I I #
coedge $-1 $561 $423 $426 $562 forward $281 $-1 #
coedge $-1 $429 $283 $284 $417 reversed $177 $-1 #
coedge $-1 $423 $561 $283 $415 reversed $281 $-1 #
edge $-1 $430 -10.11195511086485 $563 10.11195511086485 $414 $564 forward 7 unknown #
coedge $-1 $285 $284 $561 $565 forward $113 $-1 #
edge $-1 $421 -44.405652027954957 $563 44.405652027954957 $413 $566 forward 7 unknown #
coedge $-1 $426 $425 $285 $419 reversed $410 $-1 #
edge $-1 $567 -44.405652027954957 $420 44.405652027954957 $418 $568 forward 7 unknown #
vertex $-1 $287 $569 #
vertex $-1 $432 $570 #
straight-curve $-1 44.405652027954957 0 -10.11195511086485 0 -1 0 I I #
coedge $-1 $412 $414 $288 $424 reversed $281 $-1 #
edge $-1 $427 -23.028003830677871 $430 23.028003830677871 $423 $571 forward 7 unknown #
coedge $-1 $418 $289 $294 $433 forward $410 $-1 #
coedge $-1 $289 $418 $412 $562 reversed $410 $-1 #
vertex $-1 $290 $572 #
straight-curve $-1 0 23.028003830677871 10.11195511086485 -1 0 0 I I #
coedge $-1 $291 $413 $293 $432 reversed $177 $-1 #
vertex $-1 $424 $573 #
straight-curve $-1 0 -23.028003830677871 10.11195511086485 1 0 0 I I #
edge $-1 $296 -10.11195511086485 $421 10.11195511086485 $293 $574 forward 7 unknown #
edge $-1 $297 -10.11195511086485 $420 10.11195511086485 $294 $575 forward 7 unknown #
point $-1 44.405652027954957 -23.028003830677871 10.11195511086485 #
point $-1 44.405652027954957 23.028003830677871 10.11195511086485 #
face $-1 $-1 $449 $43 $-1 $576 reversed single #
plane-surface $-1 -41.193786236064966 -27.735390967270284 0 -1 0 0 0 0 1 forward_v I I I I #
coedge $-1 $577 $578 $579 $580 forward $300 $-1 #
coedge $-1 $579 $302 $448 $581 reversed $185 $-1 #
coedge $-1 $302 $579 $303 $443 reversed $185 $-1 #
edge $-1 $445 -10.11195511086485 $450 10.11195511086485 $302 $582 forward 7 unknown #
coedge $-1 $304 $303 $578 $583 forward $117 $-1 #
edge $-1 $445 23.028003830677871 $584 32.442778103862693 $440 $585 forward 7 unknown #
edge $-1 $586 -4.7073871365924091 $312 4.7073871365924127 $309 $587 forward 7 unknown #
vertex $-1 $443 $588 #
straight-curve $-1 0 -23.028003830677871 10.11195511086485 -1 0 0 I I #
coedge $-1 $589 $307 $310 $453 forward $449 $-1 #
coedge $-1 $307 $589 $439 $581 forward $449 $-1 #
loop $-1 $-1 $307 $436 #
vertex $-1 $441 $590 #
straight-curve $-1 0 -23.028003830677871 -10.11195511086485 1 0 0 I I #
coedge $-1 $310 $309 $591 $592 forward $311 $-1 #
edge $-1 $313 -4.7073871365924127 $593 4.7073871365924091 $310 $594 forward 7 unknown #
point $-1 -41.193786236064966 -23.028003830677871 10.11195511086485 #
point $-1 -41.193786236064966 -23.028003830677871 -10.11195511086485 #
plane-surface $-1 0 0 10.11195511086485 0 0 1 1 0 0 forward_v I I I I #
coedge $-1 $467 $466 $459 $595 forward $316 $-1 #
coedge $-1 $459 $318 $320 $463 reversed $193 $-1 #
coedge $-1 $318 $458 $457 $595 reversed $193 $-1 #
coedge $-1 $326 $321 $318 $461 forward $327 $-1 #
edge $-1 $464 -15.331465058745763 $596 -3.898161699942456 $460 $597 forward 7 unknown #
coedge $-1 $320 $319 $467 $598 reversed $121 $-1 #
edge $-1 $599 0 $464 14.132340254163202 $458 $600 forward 7 unknown #
vertex $-1 $322 $601 #
straight-curve $-1 -32.97234866915165 -1.4671344103124451 10.11195511086485 0 1 0 I I #
coedge $-1 $457 $323 $326 $471 reversed $316 $-1 #
coedge $-1 $323 $457 $462 $598 forward $316 $-1 #
vertex $-1 $324 $602 #
straight-curve $-1 -44.405652027954957 -7.2570517723656964 36.827513806127492 0 0 1 I I #
straight-curve $-1 -44.405652027954957 -7.2570517723656964 1.8051738229640648 -0.80901698891910034 0 -0.5877852598018023 I I #
edge $-1 $596 -1.3885141311159162 $328 7.2570517723656964 $466 $603 forward 7 unknown #
point $-1 -44.405652027954957 -7.2570517723656964 10.11195511086485 #
point $-1 -32.97234866915165 -7.2570517723656964 10.11195511086485 #
edge $-1 $604 1 $604 0 $331 $-1 forward 7 unknown #
vertex $-1 $332 $605 #
ellipse-curve $-1 -36.511681727250668 -4.7868900856566654 2.9617425399445536 -0.5877852598018023 0 0.80901698891910034 0.80901698891910034 0 0.5877852598018023 1 I I #
point $-1 -37.879983359634195 -4.7868900856566654 6.5463497267162518 #
edge $-1 $606 1 $606 0 $335 $-1 forward 7 unknown #
vertex $-1 $336 $607 #
ellipse-curve $-1 -36.511681727250668 -1.0816475555931149 2.9617425399445536 -0.5877852598018023 0 0.80901698891910034 0.80901698891910034 0 0.5877852598018023 1 I I #
point $-1 -37.879983359634195 -1.0816475555931149 6.5463497267162518 #
loop $-1 $-1 $347 $339 #
plane-surface $-1 -44.405652027954957 0 0 1 0 0 0 0 -1 forward_v I I I I #
coedge $-1 $485 $342 $344 $489 reversed $215 $-1 #
coedge $-1 $342 $484 $608 $609 reversed $215 $-1 #
coedge $-1 $350 $345 $342 $487 forward $340 $-1 #
edge $-1 $490 -15.331465058745763 $610 -3.898161699942456 $486 $611 forward 7 unknown #
coedge $-1 $344 $343 $493 $612 reversed $135 $-1 #
edge $-1 $613 0 $490 14.132340254163202 $484 $614 forward 7 unknown #
vertex $-1 $346 $615 #
straight-curve $-1 -32.97234866915165 6.1745215469048578 10.11195511086485 0 1 0 I I #
coedge $-1 $608 $347 $350 $497 reversed $482 $-1 #
coedge $-1 $347 $608 $488 $612 forward $482 $-1 #
vertex $-1 $348 $616 #
straight-curve $-1 -44.405652027954957 8.0262601420689101 36.827513806127492 0 0 1 I I #
straight-curve $-1 -44.405652027954957 8.0262601420689101 1.8051738229640648 -0.80901698891910034 0 -0.5877852598018023 I I #
edge $-1 $610 -16.671826045550521 $351 -8.0262601420689101 $492 $617 forward 7 unknown #
point $-1 -44.405652027954957 8.0262601420689101 10.11195511086485 #
point $-1 -32.97234866915165 8.0262601420689101 10.11195511086485 #
edge $-1 $618 1 $618 0 $354 $-1 forward 7 unknown #
vertex $-1 $355 $619 #
ellipse-curve $-1 -36.511681727250668 10.496421828777937 2.9617425399445536 -0.5877852598018023 0 0.80901698891910034 0.80901698891910034 0 0.5877852598018023 1 I I #
point $-1 -37.879983359634195 10.496421828777937 6.5463497267162518 #
edge $-1 $620 1 $620 0 $358 $-1 forward 7 unknown #
vertex $-1 $359 $621 #
ellipse-curve $-1 -36.511681727250668 14.201664358841487 2.9617425399445536 -0.5877852598018023 0 0.80901698891910034 0.80901698891910034 0 0.5877852598018023 1 I I #
point $-1 -37.879983359634195 14.201664358841487 6.5463497267162518 #
loop $-1 $-1 $370 $362 #
plane-surface $-1 44.405652027954957 0 0 -1 0 0 0 0 1 forward_v I I I I #
coedge $-1 $511 $365 $367 $515 reversed $237 $-1 #
coedge $-1 $365 $510 $622 $623 reversed $237 $-1 #
coedge $-1 $373 $368 $365 $513 forward $363 $-1 #
edge $-1 $516 20.59346183589971 $624 32.026765194702996 $512 $625 forward 7 unknown #
coedge $-1 $367 $366 $519 $626 reversed $149 $-1 #
edge $-1 $627 -88.811304055909886 $516 -74.678963801746718 $510 $628 forward 7 unknown #
vertex $-1 $369 $629 #
straight-curve $-1 32.972348669151671 -1.4671344103124451 10.111955110864852 0 -1 0 I I #
coedge $-1 $622 $370 $373 $523 reversed $508 $-1 #
coedge $-1 $370 $622 $514 $626 forward $508 $-1 #
vertex $-1 $371 $630 #
straight-curve $-1 44.405652027954957 1.3885141311159162 62.928501520047426 0 0 1 I I #
straight-curve $-1 -27.444201761335947 1.3885141311159162 54.007149250803934 0.80901698891910034 0 -0.5877852598018023 I I #
edge $-1 $624 -7.2570517723656964 $374 1.3885141311159162 $518 $631 forward 7 unknown #
point $-1 44.405652027954957 1.3885141311159162 10.11195511086485 #
point $-1 32.972348669151671 1.3885141311159162 10.111955110864848 #
edge $-1 $632 1 $632 0 $377 $-1 forward 7 unknown #
vertex $-1 $378 $633 #
ellipse-curve $-1 36.511681727250668 -4.7868900856566654 2.9617425399445589 0.5877852598018023 0 0.80901698891910034 0.80901698891910034 0 -0.5877852598018023 1 I I #
point $-1 39.49801733747239 -4.7868900856566654 5.3707792071126521 #
edge $-1 $634 1 $634 0 $381 $-1 forward 7 unknown #
vertex $-1 $382 $635 #
ellipse-curve $-1 36.511681727250668 -1.0816475555931149 2.9617425399445589 0.5877852598018023 0 0.80901698891910034 0.80901698891910034 0 -0.5877852598018023 1 I I #
point $-1 39.49801733747239 -1.0816475555931149 5.3707792071126521 #
plane-surface $-1 0 0 10.11195511086485 0 0 1 1 0 0 forward_v I I I I #
coedge $-1 $545 $544 $537 $636 forward $386 $-1 #
coedge $-1 $537 $388 $390 $541 reversed $259 $-1 #
coedge $-1 $388 $536 $535 $636 reversed $259 $-1 #
coedge $-1 $396 $391 $388 $539 forward $397 $-1 #
edge $-1 $542 20.59346183589971 $637 32.026765194702996 $538 $638 forward 7 unknown #
coedge $-1 $390 $389 $545 $639 reversed $163 $-1 #
edge $-1 $640 -88.811304055909886 $542 -74.678963801746718 $536 $641 forward 7 unknown #
vertex $-1 $392 $642 #
straight-curve $-1 32.972348669151671 6.1745215469048578 10.111955110864852 0 -1 0 I I #
coedge $-1 $535 $393 $396 $549 reversed $386 $-1 #
coedge $-1 $393 $535 $540 $639 forward $386 $-1 #
vertex $-1 $394 $643 #
straight-curve $-1 44.405652027954957 16.671826045550521 62.928501520047426 0 0 1 I I #
straight-curve $-1 -27.444201761335947 16.671826045550521 54.007149250803934 0.80901698891910034 0 -0.5877852598018023 I I #
edge $-1 $637 8.0262601420689101 $398 16.671826045550521 $544 $644 forward 7 unknown #
point $-1 44.405652027954957 16.671826045550521 10.11195511086485 #
point $-1 32.972348669151671 16.671826045550521 10.111955110864848 #
edge $-1 $645 1 $645 0 $401 $-1 forward 7 unknown #
vertex $-1 $402 $646 #
ellipse-curve $-1 36.511681727250668 10.496421828777937 2.9617425399445589 0.5877852598018023 0 0.80901698891910034 0.80901698891910034 0 -0.5877852598018023 1 I I #
point $-1 39.49801733747239 10.496421828777937 5.3707792071126521 #
edge $-1 $647 1 $647 0 $405 $-1 forward 7 unknown #
vertex $-1 $406 $648 #
ellipse-curve $-1 36.511681727250668 14.201664358841487 2.9617425399445589 0.5877852598018023 0 0.80901698891910034 0.80901698891910034 0 -0.5877852598018023 1 I I #
point $-1 39.49801733747239 14.201664358841487 5.3707792071126521 #
plane-surface $-1 44.405652027954957 0 0 -1 0 0 0 0 1 forward_v I I I I #
coedge $-1 $414 $412 $416 $565 reversed $281 $-1 #
edge $-1 $427 -10.11195511086485 $567 10.11195511086485 $426 $649 forward 7 unknown #
vertex $-1 $565 $650 #
straight-curve $-1 -44.405652027954957 -23.028003830677871 0 0 0 -1 I I #
edge $-1 $563 -23.028003830677871 $567 23.028003830677871 $561 $651 forward 7 unknown #
straight-curve $-1 0 -23.028003830677871 -10.11195511086485 -1 0 0 I I #
vertex $-1 $419 $652 #
straight-curve $-1 0 23.028003830677871 -10.11195511086485 1 0 0 I I #
point $-1 44.405652027954957 23.028003830677871 -10.11195511086485 #
point $-1 44.405652027954957 -23.028003830677871 -10.11195511086485 #
straight-curve $-1 -44.405652027954957 0 10.11195511086485 0 -1 0 I I #
point $-1 -44.405652027954957 23.028003830677871 10.11195511086485 #
point $-1 -44.405652027954957 -23.028003830677871 10.11195511086485 #
straight-curve $-1 44.405652027954957 -23.028003830677871 0 0 0 -1 I I #
straight-curve $-1 44.405652027954957 23.028003830677871 0 0 0 -1 I I #
plane-surface $-1 0 0 -10.11195511086485 0 0 1 1 0 0 forward_v I I I I #
coedge $-1 $591 $438 $589 $653 reversed $300 $-1 #
coedge $-1 $438 $591 $442 $583 reversed $300 $-1 #
coedge $-1 $440 $439 $438 $580 reversed $185 $-1 #
edge $-1 $584 -10.11195511086485 $654 10.11195511086485 $579 $655 forward 7 unknown #
edge $-1 $654 -32.442778103862693 $450 -23.028003830677871 $439 $656 forward 7 unknown #
straight-curve $-1 -44.405652027954957 -23.028003830677871 0 0 0 -1 I I #
edge $-1 $584 -1.6059328959449957 $586 1.6059328959449957 $578 $657 forward 7 unknown #
vertex $-1 $443 $658 #
straight-curve $-1 -44.405652027954957 0 10.11195511086485 0 -1 0 I I #
vertex $-1 $444 $659 #
straight-curve $-1 -41.193786236064966 -27.735390967270284 10.11195511086485 0 1 0 I I #
point $-1 -44.405652027954957 -23.028003830677871 10.11195511086485 #
coedge $-1 $448 $447 $577 $653 forward $449 $-1 #
point $-1 -44.405652027954957 -23.028003830677871 -10.11195511086485 #
coedge $-1 $578 $577 $452 $592 reversed $300 $-1 #
edge $-1 $586 -10.11195511086485 $593 10.11195511086485 $452 $660 forward 7 unknown #
vertex $-1 $592 $661 #
straight-curve $-1 -41.193786236064966 -27.735390967270284 -10.11195511086485 0 -1 0 I I #
edge $-1 $596 26.715558695262644 $599 35.022339983163427 $457 $662 forward 7 unknown #
vertex $-1 $471 $663 #
straight-curve $-1 -48.303813727897413 1.3885141311159162 10.111955110864848 -1 0 0 I I #
edge $-1 $599 -2.8556485414283612 $468 5.7899173620532514 $467 $664 forward 7 unknown #
vertex $-1 $598 $665 #
straight-curve $-1 -44.405652027954957 1.3885141311159162 1.8051738229640648 0.80901698891910034 0 0.5877852598018023 I I #
point $-1 -32.97234866915165 1.3885141311159162 10.11195511086485 #
point $-1 -44.405652027954957 -7.2570517723656964 1.8051738229640648 #
straight-curve $-1 -44.405652027954957 0 10.11195511086485 0 -1 0 I I #
vertex $-1 $474 $666 #
point $-1 -35.702664738331563 -4.7868900856566654 3.5495277997463561 #
vertex $-1 $478 $667 #
point $-1 -35.702664738331563 -1.0816475555931149 3.5495277997463561 #
coedge $-1 $493 $492 $485 $609 forward $482 $-1 #
edge $-1 $610 26.715558695262644 $613 35.022339983163427 $608 $668 forward 7 unknown #
vertex $-1 $497 $669 #
straight-curve $-1 -48.303813727897413 16.671826045550521 10.111955110864848 -1 0 0 I I #
edge $-1 $613 -10.497304498645663 $494 -1.8517385951640524 $493 $670 forward 7 unknown #
vertex $-1 $612 $671 #
straight-curve $-1 -44.405652027954957 16.671826045550521 1.8051738229640648 0.80901698891910034 0 0.5877852598018023 I I #
point $-1 -32.97234866915165 16.671826045550521 10.11195511086485 #
point $-1 -44.405652027954957 8.0262601420689101 1.8051738229640648 #
straight-curve $-1 -44.405652027954957 0 10.11195511086485 0 -1 0 I I #
vertex $-1 $500 $672 #
point $-1 -35.702664738331563 10.496421828777937 3.5495277997463561 #
vertex $-1 $504 $673 #
point $-1 -35.702664738331563 14.201664358841487 3.5495277997463561 #
coedge $-1 $519 $518 $511 $623 forward $508 $-1 #
edge $-1 $624 52.816546409182578 $627 61.12332769708334 $622 $674 forward 7 unknown #
vertex $-1 $523 $675 #
straight-curve $-1 12.378886833251961 -7.2570517723656964 10.111955110864848 1 0 0 I I #
edge $-1 $627 -5.7899173620532514 $520 2.8556485414283612 $519 $676 forward 7 unknown #
vertex $-1 $626 $677 #
straight-curve $-1 -27.444201761335947 -7.2570517723656964 54.007149250803934 -0.80901698891910034 0 0.5877852598018023 I I #
point $-1 32.972348669151671 -7.2570517723656964 10.111955110864848 #
point $-1 44.405652027954957 1.3885141311159162 1.8051738229640861 #
straight-curve $-1 44.405652027954957 0 10.11195511086485 0 1 0 I I #
vertex $-1 $526 $678 #
point $-1 37.320698716169765 -4.7868900856566654 2.3739572801427569 #
vertex $-1 $530 $679 #
point $-1 37.320698716169765 -1.0816475555931149 2.3739572801427569 #
edge $-1 $637 52.816546409182578 $640 61.12332769708334 $535 $680 forward 7 unknown #
vertex $-1 $549 $681 #
straight-curve $-1 12.378886833251961 8.0262601420689101 10.111955110864848 1 0 0 I I #
edge $-1 $640 1.8517385951640524 $546 10.497304498645663 $545 $682 forward 7 unknown #
vertex $-1 $639 $683 #
straight-curve $-1 -27.444201761335947 8.0262601420689101 54.007149250803934 -0.80901698891910034 0 0.5877852598018023 I I #
point $-1 32.972348669151671 8.0262601420689101 10.111955110864848 #
point $-1 44.405652027954957 16.671826045550521 1.8051738229640861 #
straight-curve $-1 44.405652027954957 0 10.11195511086485 0 1 0 I I #
vertex $-1 $552 $684 #
point $-1 37.320698716169765 10.496421828777937 2.3739572801427569 #
vertex $-1 $556 $685 #
point $-1 37.320698716169765 14.201664358841487 2.3739572801427569 #
straight-curve $-1 -44.405652027954957 23.028003830677871 0 0 0 -1 I I #
point $-1 -44.405652027954957 -23.028003830677871 -10.11195511086485 #
straight-curve $-1 -44.405652027954957 0 -10.11195511086485 0 1 0 I I #
point $-1 -44.405652027954957 23.028003830677871 -10.11195511086485 #
edge $-1 $593 -1.6059328959449957 $654 1.6059328959449957 $577 $686 forward 7 unknown #
vertex $-1 $581 $687 #
straight-curve $-1 -44.405652027954957 -32.442778103862693 0 0 0 -1 I I #
straight-curve $-1 -44.405652027954957 0 -10.11195511086485 0 1 0 I I #
straight-curve $-1 -42.799719132009962 -32.442778103862693 10.11195511086485 1 0 0 I I #
point $-1 -44.405652027954957 -32.442778103862693 10.11195511086485 #
point $-1 -41.193786236064966 -32.442778103862693 10.11195511086485 #
straight-curve $-1 -41.193786236064966 -32.442778103862693 0 0 0 -1 I I #
point $-1 -41.193786236064966 -32.442778103862693 -10.11195511086485 #
straight-curve $-1 -44.405652027954957 1.3885141311159162 36.827513806127492 0 0 -1 I I #
point $-1 -44.405652027954957 1.3885141311159162 10.11195511086485 #
straight-curve $-1 -44.405652027954957 -1.4671344103124451 1.8051738229640657 0 -1 0 I I #
point $-1 -44.405652027954957 1.3885141311159162 1.8051738229640648 #
point $-1 -35.923896467448863 -4.7868900856566654 2.1527255510254535 #
point $-1 -35.923896467448863 -1.0816475555931149 2.1527255510254535 #
straight-curve $-1 -44.405652027954957 16.671826045550521 36.827513806127492 0 0 -1 I I #
point $-1 -44.405652027954957 16.671826045550521 10.11195511086485 #
straight-curve $-1 -44.405652027954957 6.1745215469048578 1.8051738229640657 0 -1 0 I I #
point $-1 -44.405652027954957 16.671826045550521 1.8051738229640648 #
point $-1 -35.923896467448863 10.496421828777937 2.1527255510254535 #
point $-1 -35.923896467448863 14.201664358841487 2.1527255510254535 #
straight-curve $-1 44.405652027954957 -7.2570517723656964 62.928501520047426 0 0 -1 I I #
point $-1 44.405652027954957 -7.2570517723656964 10.11195511086485 #
straight-curve $-1 44.405652027954957 -1.4671344103124451 1.8051738229640719 0 1 0 I I #
point $-1 44.405652027954957 -7.2570517723656964 1.8051738229640861 #
point $-1 35.923896467448863 -4.7868900856566654 2.1527255510254588 #
point $-1 35.923896467448863 -1.0816475555931149 2.1527255510254588 #
straight-curve $-1 44.405652027954957 8.0262601420689101 62.928501520047426 0 0 -1 I I #
point $-1 44.405652027954957 8.0262601420689101 10.11195511086485 #
straight-curve $-1 44.405652027954957 6.1745215469048578 1.8051738229640719 0 1 0 I I #
point $-1 44.405652027954957 8.0262601420689101 1.8051738229640861 #
point $-1 35.923896467448863 10.496421828777937 2.1527255510254588 #
point $-1 35.923896467448863 14.201664358841487 2.1527255510254588 #
straight-curve $-1 -42.799719132009962 -32.442778103862693 -10.11195511086485 -1 0 0 I I #
point $-1 -44.405652027954957 -32.442778103862693 -10.11195511086485 #
End-of-ACIS-data 