500 0 9 0           
7 Unknown 11 ACIS 5.0 NT 24 Fri Mar 26 19:04:09 1999 
-1 9.9999999999999995e-007 1e-010 
body $-1 $9 $-1 $10 #
body $-1 $11 $-1 $12 #
body $-1 $13 $-1 $14 #
body $-1 $15 $-1 $16 #
body $-1 $17 $-1 $18 #
body $-1 $19 $-1 $20 #
body $-1 $21 $-1 $22 #
body $-1 $23 $-1 $24 #
body $-1 $25 $-1 $26 #
lump $-1 $-1 $27 $0 #
transform $-1 1 0 0 0 1 0 0 0 1 49.267860957670827 29.242408332629203 11.797986942880279 1 rotate no_reflect no_shear #
lump $-1 $-1 $28 $1 #
transform $-1 1 0 0 0 1 0 0 0 1 49.267860957670827 29.242408332629203 11.797986942880279 1 rotate no_reflect no_shear #
lump $-1 $-1 $29 $2 #
transform $-1 1 0 0 0 1 0 0 0 1 49.267860957670827 29.242408332629203 11.797986942880279 1 rotate no_reflect no_shear #
lump $-1 $-1 $30 $3 #
transform $-1 1 0 0 0 1 0 0 0 1 49.267860957670827 29.242408332629203 11.797986942880279 1 rotate no_reflect no_shear #
lump $-1 $-1 $31 $4 #
transform $-1 1 0 0 0 1 0 0 0 1 49.267860957670827 29.242408332629203 11.797986942880279 1 rotate no_reflect no_shear #
lump $-1 $-1 $32 $5 #
transform $-1 1 0 0 0 1 0 0 0 1 49.267860957670827 29.242408332629203 11.797986942880279 1 rotate no_reflect no_shear #
lump $-1 $-1 $33 $6 #
transform $-1 1 0 0 0 1 0 0 0 1 49.267860957670827 29.242408332629203 11.797986942880279 1 rotate no_reflect no_shear #
lump $-1 $-1 $34 $7 #
transform $-1 1 0 0 0 1 0 0 0 1 49.267860957670827 29.242408332629203 11.797986942880279 1 rotate no_reflect no_shear #
lump $-1 $-1 $35 $8 #
transform $-1 1 0 0 0 1 0 0 0 1 49.267860957670827 29.242408332629203 11.797986942880279 1 rotate no_reflect no_shear #
shell $-1 $-1 $-1 $36 $-1 $9 #
shell $-1 $-1 $-1 $37 $-1 $11 #
shell $-1 $-1 $-1 $38 $-1 $13 #
shell $-1 $-1 $-1 $39 $-1 $15 #
shell $-1 $-1 $-1 $40 $-1 $17 #
shell $-1 $-1 $-1 $41 $-1 $19 #
shell $-1 $-1 $-1 $42 $-1 $21 #
shell $-1 $-1 $-1 $43 $-1 $23 #
shell $-1 $-1 $-1 $44 $-1 $25 #
face $-1 $45 $46 $27 $-1 $47 forward single #
face $-1 $48 $49 $28 $-1 $50 reversed single #
face $-1 $51 $52 $29 $-1 $53 reversed single #
face $-1 $54 $55 $30 $-1 $56 reversed single #
face $-1 $57 $58 $31 $-1 $59 forward single #
face $-1 $60 $61 $32 $-1 $62 forward single #
face $-1 $63 $64 $33 $-1 $65 reversed single #
face $-1 $66 $67 $34 $-1 $68 forward single #
face $-1 $69 $70 $35 $-1 $71 forward single #
face $-1 $72 $73 $27 $-1 $74 reversed single #
loop $-1 $-1 $75 $36 #
plane-surface $-1 0 0 11.797986942880279 0 0 1 1 0 0 forward_v I I I I #
face $-1 $76 $77 $28 $-1 $78 reversed single #
loop $-1 $-1 $79 $37 #
plane-surface $-1 -40.051132468640816 -23.928593861373603 0 1 0 0 0 0 -1 forward_v I I I I #
face $-1 $80 $81 $29 $-1 $82 reversed single #
loop $-1 $-1 $83 $38 #
plane-surface $-1 -37.704965205281269 18.614779390118006 0 0 1 0 0 0 1 forward_v I I I I #
face $-1 $84 $85 $30 $-1 $86 reversed single #
loop $-1 $-1 $87 $39 #
plane-surface $-1 -49.267860957670834 -15.131141653252399 4.3526769716797986 -0.52991927123019833 0 0.84804809178421925 0.84804809178421925 0 0.52991927123019833 forward_v I I I I #
face $-1 $88 $89 $31 $-1 $90 forward single #
loop $-1 $91 $92 $40 #
cone-surface $-1 -43.045408118269435 -16.624129254766228 7.6513079113879297 0.52991927123019833 0 -0.84804809178421925 0.21201202294605481 0 0.13247981780754958 1 I I 0 1 0.25 forward I I I I #
face $-1 $93 $94 $32 $-1 $95 forward single #
loop $-1 $96 $97 $41 #
cone-surface $-1 -43.045408118269435 -13.638154051738567 7.6513079113879297 0.52991927123019833 0 -0.84804809178421925 0.21201202294605481 0 0.13247981780754958 1 I I 0 1 0.25 forward I I I I #
face $-1 $98 $99 $33 $-1 $100 reversed single #
loop $-1 $-1 $101 $42 #
plane-surface $-1 -101.48383890519017 11.647503916386803 87.915707914565758 0 1 0 -0.52991927123019833 0 0.84804809178421925 forward_v I I I I #
face $-1 $102 $103 $34 $-1 $104 forward single #
loop $-1 $105 $106 $43 #
cone-surface $-1 -43.045408118269435 13.638154051738574 7.6513079113879297 0.52991927123019833 0 -0.84804809178421925 0.21201202294605481 0 0.13247981780754958 1 I I 0 1 0.25 forward I I I I #
face $-1 $107 $108 $35 $-1 $109 forward single #
loop $-1 $110 $111 $44 #
cone-surface $-1 -43.045408118269435 16.624129254766238 7.6513079113879297 0.52991927123019833 0 -0.84804809178421925 0.21201202294605481 0 0.13247981780754958 1 I I 0 1 0.25 forward I I I I #
face $-1 $112 $113 $27 $-1 $114 reversed single #
loop $-1 $-1 $115 $45 #
plane-surface $-1 0 0 -11.797986942880279 0 0 1 1 0 0 forward_v I I I I #
coedge $-1 $116 $117 $118 $119 forward $46 $-1 #
face $-1 $120 $121 $28 $-1 $122 reversed single #
loop $-1 $-1 $123 $48 #
plane-surface $-1 -37.704965205281269 -18.614779390118002 0 0 -1 0 0 0 -1 forward_v I I I I #
coedge $-1 $124 $125 $126 $127 forward $49 $-1 #
face $-1 $128 $129 $29 $-1 $130 reversed single #
loop $-1 $-1 $131 $51 #
plane-surface $-1 -40.051132468640816 23.928593861373606 0 1 0 0 0 0 -1 forward_v I I I I #
coedge $-1 $132 $133 $134 $135 forward $52 $-1 #
face $-1 $136 $137 $30 $-1 $138 forward single #
loop $-1 $-1 $139 $54 #
plane-surface $-1 -101.48383890519017 -11.647503916386796 87.915707914565758 0 -1 0 0.52991927123019833 0 -0.84804809178421925 forward_v I I I I #
coedge $-1 $140 $141 $142 $143 reversed $55 $-1 #
face $-1 $-1 $144 $31 $-1 $145 forward single #
loop $-1 $146 $147 $57 #
cone-surface $-1 -42.714208573750561 -16.624129254766228 7.121277854022793 0.52991927123019833 0 -0.84804809178421925 0.10600601147302741 0 0.066239908903774791 1 I I -0.70710678118654746 0.70710678118654746 0.125 forward I I I I #
loop $-1 $-1 $148 $40 #
coedge $-1 $92 $92 $149 $150 reversed $58 $-1 #
face $-1 $-1 $151 $32 $-1 $152 forward single #
loop $-1 $153 $154 $60 #
cone-surface $-1 -42.714208573750561 -13.638154051738567 7.121277854022793 0.52991927123019833 0 -0.84804809178421925 0.10600601147302741 0 0.066239908903774791 1 I I -0.70710678118654746 0.70710678118654746 0.125 forward I I I I #
loop $-1 $-1 $155 $41 #
coedge $-1 $97 $97 $156 $157 reversed $61 $-1 #
face $-1 $158 $159 $33 $-1 $160 forward single #
loop $-1 $-1 $161 $63 #
plane-surface $-1 -49.267860957670834 15.131141653252406 4.3526769716797986 -0.52991927123019833 0 0.84804809178421925 0.84804809178421925 0 0.52991927123019833 forward_v I I I I #
coedge $-1 $162 $163 $164 $165 reversed $64 $-1 #
face $-1 $-1 $166 $34 $-1 $167 forward single #
loop $-1 $168 $169 $66 #
cone-surface $-1 -42.714208573750561 13.638154051738574 7.121277854022793 0.52991927123019833 0 -0.84804809178421925 0.10600601147302741 0 0.066239908903774791 1 I I -0.70710678118654746 0.70710678118654746 0.125 forward I I I I #
loop $-1 $-1 $170 $43 #
coedge $-1 $106 $106 $171 $172 reversed $67 $-1 #
face $-1 $-1 $173 $35 $-1 $174 forward single #
loop $-1 $175 $176 $69 #
cone-surface $-1 -42.714208573750561 16.624129254766238 7.121277854022793 0.52991927123019833 0 -0.84804809178421925 0.10600601147302741 0 0.066239908903774791 1 I I -0.70710678118654746 0.70710678118654746 0.125 forward I I I I #
loop $-1 $-1 $177 $44 #
coedge $-1 $111 $111 $178 $179 reversed $70 $-1 #
face $-1 $180 $181 $27 $-1 $182 reversed single #
loop $-1 $-1 $183 $72 #
plane-surface $-1 0 -29.242408332629203 0 0 1 0 0 0 1 forward_v I I I I #
coedge $-1 $184 $185 $186 $187 forward $73 $-1 #
coedge $-1 $188 $75 $189 $190 forward $46 $-1 #
coedge $-1 $75 $188 $191 $192 forward $46 $-1 #
coedge $-1 $193 $194 $75 $119 reversed $195 $-1 #
edge $-1 $196 -29.242408332629203 $197 29.242408332629203 $118 $198 forward 7 unknown #
face $-1 $199 $200 $28 $-1 $201 forward single #
loop $-1 $-1 $202 $76 #
plane-surface $-1 -35.358797941921722 -23.928593861373603 0 -1 0 0 0 0 1 forward_v I I I I #
coedge $-1 $203 $204 $205 $206 forward $77 $-1 #
coedge $-1 $207 $79 $208 $209 reversed $49 $-1 #
coedge $-1 $79 $207 $210 $211 reversed $49 $-1 #
coedge $-1 $204 $203 $79 $127 reversed $77 $-1 #
edge $-1 $212 -11.797986942880279 $213 11.797986942880279 $126 $214 forward 7 unknown #
face $-1 $215 $216 $29 $-1 $217 reversed single #
loop $-1 $-1 $218 $80 #
plane-surface $-1 -35.358797941921722 23.928593861373606 0 -1 0 0 0 0 1 forward_v I I I I #
coedge $-1 $219 $220 $221 $222 reversed $81 $-1 #
coedge $-1 $223 $83 $224 $225 reversed $52 $-1 #
coedge $-1 $83 $223 $226 $227 reversed $52 $-1 #
coedge $-1 $220 $219 $83 $135 reversed $81 $-1 #
edge $-1 $228 -11.797986942880279 $229 11.797986942880279 $134 $230 forward 7 unknown #
face $-1 $231 $232 $30 $-1 $233 forward single #
loop $-1 $-1 $234 $84 #
plane-surface $-1 -37.704965205281269 -18.614779390118002 0 0 -1 0 0 0 -1 forward_v I I I I #
coedge $-1 $235 $236 $237 $238 reversed $85 $-1 #
coedge $-1 $239 $87 $234 $240 reversed $55 $-1 #
coedge $-1 $87 $239 $235 $241 forward $55 $-1 #
coedge $-1 $237 $242 $87 $143 forward $232 $-1 #
edge $-1 $243 -11.049208563491803 $244 -4.0819330897605965 $142 $245 forward 7 unknown #
loop $-1 $-1 $149 $88 #
plane-surface $-1 -49.267860957670834 -15.131141653252399 4.3526769716797986 -0.52991927123019833 0 0.84804809178421925 0.84804809178421925 0 0.52991927123019833 forward_v I I I I #
loop $-1 $-1 $246 $57 #
coedge $-1 $147 $147 $148 $247 reversed $89 $-1 #
coedge $-1 $148 $148 $147 $247 forward $91 $-1 #
coedge $-1 $149 $149 $92 $150 forward $144 $-1 #
edge $-1 $248 0 $248 6.2831853071796004 $149 $249 forward 7 unknown #
loop $-1 $-1 $156 $93 #
plane-surface $-1 -49.267860957670834 -15.131141653252399 4.3526769716797986 -0.52991927123019833 0 0.84804809178421925 0.84804809178421925 0 0.52991927123019833 forward_v I I I I #
loop $-1 $-1 $250 $60 #
coedge $-1 $154 $154 $155 $251 reversed $94 $-1 #
coedge $-1 $155 $155 $154 $251 forward $96 $-1 #
coedge $-1 $156 $156 $97 $157 forward $151 $-1 #
edge $-1 $252 0 $252 6.2831853071796004 $156 $253 forward 7 unknown #
face $-1 $254 $255 $33 $-1 $256 reversed single #
loop $-1 $-1 $257 $98 #
plane-surface $-1 -37.704965205281269 18.614779390118006 0 0 1 0 0 0 1 forward_v I I I I #
coedge $-1 $258 $259 $260 $261 reversed $99 $-1 #
coedge $-1 $163 $101 $262 $263 reversed $64 $-1 #
coedge $-1 $101 $162 $258 $264 reversed $64 $-1 #
coedge $-1 $260 $265 $101 $165 forward $266 $-1 #
edge $-1 $267 1.4740584949242574 $268 13.389044902496842 $164 $269 forward 7 unknown #
loop $-1 $-1 $171 $102 #
plane-surface $-1 -49.267860957670834 15.131141653252406 4.3526769716797986 -0.52991927123019833 0 0.84804809178421925 0.84804809178421925 0 0.52991927123019833 forward_v I I I I #
loop $-1 $-1 $270 $66 #
coedge $-1 $169 $169 $170 $271 reversed $103 $-1 #
coedge $-1 $170 $170 $169 $271 forward $105 $-1 #
coedge $-1 $171 $171 $106 $172 forward $166 $-1 #
edge $-1 $272 0 $272 6.2831853071796004 $171 $273 forward 7 unknown #
loop $-1 $-1 $178 $107 #
plane-surface $-1 -49.267860957670834 15.131141653252406 4.3526769716797986 -0.52991927123019833 0 0.84804809178421925 0.84804809178421925 0 0.52991927123019833 forward_v I I I I #
loop $-1 $-1 $274 $69 #
coedge $-1 $176 $176 $177 $275 reversed $108 $-1 #
coedge $-1 $177 $177 $176 $275 forward $110 $-1 #
coedge $-1 $178 $178 $111 $179 forward $173 $-1 #
edge $-1 $276 0 $276 6.2831853071796004 $178 $277 forward 7 unknown #
face $-1 $278 $279 $27 $-1 $280 reversed single #
loop $-1 $-1 $281 $112 #
plane-surface $-1 -49.267860957670827 0 0 1 0 0 0 0 -1 forward_v I I I I #
coedge $-1 $282 $191 $283 $284 forward $113 $-1 #
coedge $-1 $285 $115 $282 $286 forward $73 $-1 #
coedge $-1 $115 $285 $287 $288 forward $73 $-1 #
coedge $-1 $194 $193 $115 $187 reversed $195 $-1 #
edge $-1 $289 -29.242408332629203 $290 29.242408332629203 $186 $291 forward 7 unknown #
coedge $-1 $117 $116 $292 $293 forward $46 $-1 #
coedge $-1 $294 $295 $116 $190 reversed $279 $-1 #
edge $-1 $197 -49.267860957670827 $296 49.267860957670827 $189 $297 forward 7 unknown #
coedge $-1 $183 $298 $117 $192 reversed $113 $-1 #
edge $-1 $299 -49.267860957670827 $196 49.267860957670827 $191 $300 forward 7 unknown #
coedge $-1 $186 $118 $298 $301 forward $195 $-1 #
coedge $-1 $118 $186 $294 $302 reversed $195 $-1 #
loop $-1 $-1 $193 $278 #
vertex $-1 $119 $303 #
vertex $-1 $119 $304 #
straight-curve $-1 49.267860957670827 0 11.797986942880279 0 1 0 I I #
face $-1 $305 $306 $28 $-1 $307 reversed single #
loop $-1 $-1 $308 $120 #
plane-surface $-1 0 0 11.797986942880279 0 0 1 1 0 0 forward_v I I I I #
coedge $-1 $309 $310 $311 $312 reversed $121 $-1 #
coedge $-1 $126 $123 $313 $314 reversed $77 $-1 #
coedge $-1 $123 $126 $315 $316 reversed $77 $-1 #
coedge $-1 $310 $309 $123 $206 reversed $121 $-1 #
edge $-1 $317 -11.797986942880279 $318 11.797986942880279 $205 $319 forward 7 unknown #
coedge $-1 $125 $124 $320 $321 reversed $49 $-1 #
coedge $-1 $313 $322 $124 $209 forward $306 $-1 #
edge $-1 $323 -17.278111401942404 $213 -6.6504824594312009 $208 $324 forward 7 unknown #
coedge $-1 $325 $315 $125 $211 forward $200 $-1 #
edge $-1 $212 6.6504824594312009 $326 17.278111401942404 $210 $327 forward 7 unknown #
vertex $-1 $211 $328 #
vertex $-1 $209 $329 #
straight-curve $-1 -40.051132468640816 -18.614779390118002 0 0 0 -1 I I #
face $-1 $330 $331 $29 $-1 $332 forward single #
loop $-1 $-1 $333 $128 #
plane-surface $-1 0 0 -11.797986942880279 0 0 1 1 0 0 forward_v I I I I #
coedge $-1 $334 $335 $223 $336 forward $129 $-1 #
coedge $-1 $134 $131 $337 $338 reversed $81 $-1 #
coedge $-1 $131 $134 $339 $340 reversed $81 $-1 #
coedge $-1 $341 $342 $131 $222 forward $343 $-1 #
edge $-1 $344 -11.797986942880279 $345 11.797986942880279 $221 $346 forward 7 unknown #
coedge $-1 $133 $132 $218 $336 reversed $52 $-1 #
coedge $-1 $337 $333 $132 $225 forward $216 $-1 #
edge $-1 $347 16.506315339281088 $229 21.198649866000181 $224 $348 forward 7 unknown #
coedge $-1 $349 $339 $133 $227 forward $331 $-1 #
edge $-1 $228 -21.198649866000181 $350 -16.506315339281088 $226 $351 forward 7 unknown #
vertex $-1 $227 $352 #
vertex $-1 $225 $353 #
straight-curve $-1 -40.051132468640816 18.614779390118006 0 0 0 -1 I I #
face $-1 $-1 $354 $30 $-1 $355 reversed single #
loop $-1 $-1 $242 $136 #
plane-surface $-1 0 0 11.797986942880279 0 0 1 1 0 0 forward_v I I I I #
coedge $-1 $356 $357 $140 $240 forward $137 $-1 #
coedge $-1 $236 $139 $141 $241 reversed $85 $-1 #
coedge $-1 $139 $235 $358 $359 reversed $85 $-1 #
coedge $-1 $360 $142 $139 $238 forward $232 $-1 #
edge $-1 $244 -13.389044902496842 $361 -1.4740584949242574 $237 $362 forward 7 unknown #
coedge $-1 $141 $140 $363 $364 reversed $55 $-1 #
edge $-1 $365 -3.7496621347903885 $243 10.300232585807937 $234 $366 forward 7 unknown #
edge $-1 $367 8.3790584163743152e-015 $244 14.049894720598333 $235 $368 forward 7 unknown #
coedge $-1 $142 $360 $356 $369 forward $232 $-1 #
vertex $-1 $143 $370 #
vertex $-1 $143 $371 #
straight-curve $-1 -37.352874550098242 -7.5655708266261996 11.797986942880279 0 1 0 I I #
coedge $-1 $246 $246 $-1 $372 reversed $146 $-1 #
edge $-1 $373 0 $373 6.2831853071796004 $147 $374 forward 7 unknown #
vertex $-1 $150 $375 #
ellipse-curve $-1 -43.310367753884535 -16.624129254766228 8.0753319572800404 -0.52991927123019833 0 0.84804809178421925 0.21201202294605481 0 0.13247981780754958 1 I I #
coedge $-1 $250 $250 $-1 $376 reversed $153 $-1 #
edge $-1 $377 0 $377 6.2831853071796004 $154 $378 forward 7 unknown #
vertex $-1 $157 $379 #
ellipse-curve $-1 -43.310367753884535 -13.638154051738567 8.0753319572800404 -0.52991927123019833 0 0.84804809178421925 0.21201202294605481 0 0.13247981780754958 1 I I #
face $-1 $-1 $266 $33 $-1 $380 forward single #
loop $-1 $-1 $381 $158 #
plane-surface $-1 -49.267860957670827 0 0 1 0 0 0 0 -1 forward_v I I I I #
coedge $-1 $382 $383 $259 $384 forward $159 $-1 #
coedge $-1 $385 $161 $163 $264 forward $99 $-1 #
coedge $-1 $161 $385 $257 $384 reversed $99 $-1 #
coedge $-1 $386 $164 $161 $261 forward $266 $-1 #
edge $-1 $268 4.0819330897606001 $387 11.049208563491803 $260 $388 forward 7 unknown #
coedge $-1 $389 $390 $162 $263 forward $255 $-1 #
edge $-1 $391 -39.605176985603073 $267 -32.1598670144026 $262 $392 forward 7 unknown #
edge $-1 $268 -14.049894720598333 $391 -8.3790584163743152e-015 $163 $393 forward 7 unknown #
coedge $-1 $164 $386 $389 $394 forward $266 $-1 #
loop $-1 $-1 $260 $254 #
vertex $-1 $263 $395 #
vertex $-1 $165 $396 #
straight-curve $-1 -50.741919452595084 11.647503916386803 11.797986942880279 1 0 0 I I #
coedge $-1 $270 $270 $-1 $397 reversed $168 $-1 #
edge $-1 $398 0 $398 6.2831853071796004 $169 $399 forward 7 unknown #
vertex $-1 $172 $400 #
ellipse-curve $-1 -43.310367753884535 13.638154051738574 8.0753319572800404 -0.52991927123019833 0 0.84804809178421925 0.21201202294605481 0 0.13247981780754958 1 I I #
coedge $-1 $274 $274 $-1 $401 reversed $175 $-1 #
edge $-1 $402 0 $402 6.2831853071796004 $176 $403 forward 7 unknown #
vertex $-1 $179 $404 #
ellipse-curve $-1 -43.310367753884535 16.624129254766238 8.0753319572800404 -0.52991927123019833 0 0.84804809178421925 0.21201202294605481 0 0.13247981780754958 1 I I #
face $-1 $-1 $195 $27 $-1 $405 reversed single #
loop $-1 $-1 $294 $180 #
plane-surface $-1 0 29.242408332629203 0 0 -1 0 0 0 -1 forward_v I I I I #
coedge $-1 $406 $292 $295 $407 forward $181 $-1 #
coedge $-1 $298 $183 $184 $286 reversed $113 $-1 #
coedge $-1 $292 $406 $183 $284 reversed $181 $-1 #
edge $-1 $299 -11.797986942880279 $408 11.797986942880279 $283 $409 forward 7 unknown #
coedge $-1 $185 $184 $406 $410 forward $73 $-1 #
edge $-1 $290 -49.267860957670827 $408 49.267860957670827 $282 $411 forward 7 unknown #
coedge $-1 $295 $294 $185 $288 reversed $279 $-1 #
edge $-1 $412 -49.267860957670827 $289 49.267860957670827 $287 $413 forward 7 unknown #
vertex $-1 $187 $414 #
vertex $-1 $301 $415 #
straight-curve $-1 49.267860957670827 0 -11.797986942880279 0 -1 0 I I #
coedge $-1 $281 $283 $188 $293 reversed $181 $-1 #
edge $-1 $296 -29.242408332629203 $299 29.242408332629203 $292 $416 forward 7 unknown #
coedge $-1 $287 $189 $194 $302 forward $279 $-1 #
coedge $-1 $189 $287 $281 $407 reversed $279 $-1 #
vertex $-1 $190 $417 #
straight-curve $-1 0 29.242408332629203 11.797986942880279 -1 0 0 I I #
coedge $-1 $191 $282 $193 $301 reversed $113 $-1 #
vertex $-1 $293 $418 #
straight-curve $-1 0 -29.242408332629203 11.797986942880279 1 0 0 I I #
edge $-1 $196 -11.797986942880279 $290 11.797986942880279 $193 $419 forward 7 unknown #
edge $-1 $197 -11.797986942880279 $289 11.797986942880279 $194 $420 forward 7 unknown #
point $-1 49.267860957670827 -29.242408332629203 11.797986942880279 #
point $-1 49.267860957670827 29.242408332629203 11.797986942880279 #
face $-1 $-1 $421 $28 $-1 $422 reversed single #
loop $-1 $-1 $423 $199 #
plane-surface $-1 0 0 -11.797986942880279 0 0 1 1 0 0 forward_v I I I I #
coedge $-1 $315 $325 $310 $424 forward $200 $-1 #
coedge $-1 $205 $202 $423 $425 reversed $121 $-1 #
coedge $-1 $202 $205 $308 $424 reversed $121 $-1 #
coedge $-1 $426 $427 $202 $312 forward $421 $-1 #
edge $-1 $428 -11.797986942880279 $429 11.797986942880279 $311 $430 forward 7 unknown #
coedge $-1 $423 $208 $203 $314 forward $306 $-1 #
edge $-1 $213 -21.198649866000181 $318 -16.506315339281088 $313 $431 forward 7 unknown #
coedge $-1 $210 $308 $204 $316 forward $200 $-1 #
edge $-1 $317 16.506315339281088 $212 21.198649866000181 $315 $432 forward 7 unknown #
vertex $-1 $316 $433 #
vertex $-1 $314 $434 #
straight-curve $-1 -35.358797941921722 -18.614779390118002 0 0 0 -1 I I #
coedge $-1 $427 $426 $207 $321 forward $421 $-1 #
edge $-1 $326 -11.797986942880279 $323 11.797986942880279 $320 $435 forward 7 unknown #
coedge $-1 $208 $423 $427 $436 forward $306 $-1 #
vertex $-1 $209 $437 #
straight-curve $-1 -40.051132468640816 -11.964296930686801 -11.797986942880279 0 1 0 I I #
coedge $-1 $308 $210 $426 $438 forward $200 $-1 #
vertex $-1 $438 $439 #
straight-curve $-1 -40.051132468640816 -11.964296930686801 11.797986942880279 0 -1 0 I I #
point $-1 -40.051132468640816 -18.614779390118002 11.797986942880279 #
point $-1 -40.051132468640816 -18.614779390118002 -11.797986942880279 #
face $-1 $-1 $343 $29 $-1 $440 reversed single #
loop $-1 $-1 $349 $215 #
plane-surface $-1 0 0 11.797986942880279 0 0 1 1 0 0 forward_v I I I I #
coedge $-1 $224 $441 $334 $442 forward $216 $-1 #
coedge $-1 $443 $218 $333 $442 reversed $129 $-1 #
coedge $-1 $218 $443 $349 $444 reversed $129 $-1 #
edge $-1 $350 -11.797986942880279 $347 11.797986942880279 $218 $445 forward 7 unknown #
coedge $-1 $441 $224 $219 $338 forward $216 $-1 #
edge $-1 $229 6.6504824594312026 $344 17.278111401942404 $337 $446 forward 7 unknown #
coedge $-1 $226 $447 $220 $340 forward $331 $-1 #
edge $-1 $345 -17.278111401942404 $228 -6.6504824594312026 $339 $448 forward 7 unknown #
coedge $-1 $449 $221 $447 $450 reversed $343 $-1 #
coedge $-1 $221 $449 $441 $451 reversed $343 $-1 #
loop $-1 $-1 $449 $330 #
vertex $-1 $451 $452 #
vertex $-1 $222 $453 #
straight-curve $-1 -40.051132468640816 29.242408332629203 0 0 0 1 I I #
vertex $-1 $225 $454 #
straight-curve $-1 -18.852482602640634 18.614779390118006 -11.797986942880279 -1 0 0 I I #
coedge $-1 $447 $226 $335 $444 forward $331 $-1 #
vertex $-1 $227 $455 #
straight-curve $-1 -18.852482602640634 18.614779390118006 11.797986942880279 1 0 0 I I #
point $-1 -40.051132468640816 18.614779390118006 11.797986942880279 #
point $-1 -40.051132468640816 18.614779390118006 -11.797986942880279 #
loop $-1 $-1 $456 $231 #
plane-surface $-1 -49.267860957670827 0 0 1 0 0 0 0 -1 forward_v I I I I #
coedge $-1 $357 $234 $242 $369 reversed $137 $-1 #
coedge $-1 $234 $356 $456 $457 reversed $137 $-1 #
coedge $-1 $363 $458 $236 $359 forward $354 $-1 #
edge $-1 $361 32.1598670144026 $367 39.605176985603073 $358 $459 forward 7 unknown #
coedge $-1 $242 $237 $458 $460 forward $232 $-1 #
vertex $-1 $460 $461 #
straight-curve $-1 -50.741919452595084 -11.647503916386796 11.797986942880279 -1 0 0 I I #
coedge $-1 $456 $358 $239 $364 forward $354 $-1 #
edge $-1 $367 4.0819330897605965 $365 11.049208563491803 $363 $462 forward 7 unknown #
vertex $-1 $457 $463 #
straight-curve $-1 -46.087967139426297 -18.614779390118002 6.339695197507397 0.84804809178421925 0 0.52991927123019833 I I #
vertex $-1 $364 $464 #
straight-curve $-1 -49.267860957670834 -11.647503916386796 4.3526769716797986 0.84804809178421925 0 0.52991927123019833 I I #
edge $-1 $465 1.4740584949242574 $243 13.389044902496842 $242 $466 forward 7 unknown #
point $-1 -37.352874550098242 -18.614779390118002 11.797986942880279 #
point $-1 -37.352874550098242 -11.647503916386796 11.797986942880279 #
edge $-1 $467 1 $467 0 $246 $-1 forward 7 unknown #
vertex $-1 $247 $468 #
ellipse-curve $-1 -42.780448482654336 -16.624129254766228 7.2272838654958207 -0.52991927123019833 0 0.84804809178421925 0.21201202294605481 0 0.13247981780754958 1 I I #
point $-1 -43.098355730938479 -16.624129254766228 8.2078117750875883 #
edge $-1 $469 1 $469 0 $250 $-1 forward 7 unknown #
vertex $-1 $251 $470 #
ellipse-curve $-1 -42.780448482654336 -13.638154051738567 7.2272838654958207 -0.52991927123019833 0 0.84804809178421925 0.21201202294605481 0 0.13247981780754958 1 I I #
point $-1 -43.098355730938479 -13.638154051738567 8.2078117750875883 #
plane-surface $-1 0 0 11.797986942880279 0 0 1 1 0 0 forward_v I I I I #
coedge $-1 $390 $389 $382 $471 forward $255 $-1 #
coedge $-1 $383 $257 $381 $471 reversed $159 $-1 #
coedge $-1 $257 $382 $386 $472 reversed $159 $-1 #
edge $-1 $387 -10.300232585807942 $473 3.7496621347903885 $257 $474 forward 7 unknown #
coedge $-1 $259 $258 $390 $475 reversed $99 $-1 #
coedge $-1 $265 $260 $383 $472 forward $266 $-1 #
vertex $-1 $472 $476 #
straight-curve $-1 -37.352874550098242 7.5655708266262032 11.797986942880279 0 1 0 I I #
coedge $-1 $381 $262 $265 $394 reversed $255 $-1 #
coedge $-1 $262 $381 $385 $475 forward $255 $-1 #
vertex $-1 $263 $477 #
straight-curve $-1 -49.267860957670827 11.647503916386803 43.957853957282879 0 0 1 I I #
straight-curve $-1 -49.267860957670834 11.647503916386803 4.3526769716797986 -0.84804809178421925 0 -0.52991927123019833 I I #
edge $-1 $478 -18.614779390118009 $267 -11.647503916386803 $389 $479 forward 7 unknown #
point $-1 -49.267860957670827 11.647503916386803 11.797986942880279 #
point $-1 -37.352874550098242 11.647503916386803 11.797986942880279 #
edge $-1 $480 1 $480 0 $270 $-1 forward 7 unknown #
vertex $-1 $271 $481 #
ellipse-curve $-1 -42.780448482654336 13.638154051738574 7.2272838654958207 -0.52991927123019833 0 0.84804809178421925 0.21201202294605481 0 0.13247981780754958 1 I I #
point $-1 -43.098355730938479 13.638154051738574 8.2078117750875883 #
edge $-1 $482 1 $482 0 $274 $-1 forward 7 unknown #
vertex $-1 $275 $483 #
ellipse-curve $-1 -42.780448482654336 16.624129254766238 7.2272838654958207 -0.52991927123019833 0 0.84804809178421925 0.21201202294605481 0 0.13247981780754958 1 I I #
point $-1 -43.098355730938479 16.624129254766238 8.2078117750875883 #
plane-surface $-1 49.267860957670827 0 0 -1 0 0 0 0 1 forward_v I I I I #
coedge $-1 $283 $281 $285 $410 reversed $181 $-1 #
edge $-1 $296 -11.797986942880279 $412 11.797986942880279 $295 $484 forward 7 unknown #
vertex $-1 $410 $485 #
straight-curve $-1 -49.267860957670827 -29.242408332629203 0 0 0 -1 I I #
edge $-1 $408 -29.242408332629203 $412 29.242408332629203 $406 $486 forward 7 unknown #
straight-curve $-1 0 -29.242408332629203 -11.797986942880279 -1 0 0 I I #
vertex $-1 $288 $487 #
straight-curve $-1 0 29.242408332629203 -11.797986942880279 1 0 0 I I #
point $-1 49.267860957670827 29.242408332629203 -11.797986942880279 #
point $-1 49.267860957670827 -29.242408332629203 -11.797986942880279 #
straight-curve $-1 -49.267860957670827 0 11.797986942880279 0 -1 0 I I #
point $-1 -49.267860957670827 29.242408332629203 11.797986942880279 #
point $-1 -49.267860957670827 -29.242408332629203 11.797986942880279 #
straight-curve $-1 49.267860957670827 -29.242408332629203 0 0 0 -1 I I #
straight-curve $-1 49.267860957670827 29.242408332629203 0 0 0 -1 I I #
loop $-1 $-1 $311 $305 #
plane-surface $-1 0 -29.242408332629203 0 0 1 0 0 0 1 forward_v I I I I #
coedge $-1 $322 $313 $309 $425 forward $306 $-1 #
edge $-1 $429 -17.278111401942404 $317 -6.6504824594312009 $308 $488 forward 7 unknown #
edge $-1 $318 6.6504824594312009 $428 17.278111401942404 $423 $489 forward 7 unknown #
coedge $-1 $320 $311 $325 $438 reversed $421 $-1 #
coedge $-1 $311 $320 $322 $436 reversed $421 $-1 #
vertex $-1 $436 $490 #
vertex $-1 $312 $491 #
straight-curve $-1 -35.358797941921722 -29.242408332629203 0 0 0 1 I I #
straight-curve $-1 -18.852482602640634 -18.614779390118002 -11.797986942880279 1 0 0 I I #
straight-curve $-1 -18.852482602640634 -18.614779390118002 11.797986942880279 -1 0 0 I I #
point $-1 -35.358797941921722 -18.614779390118002 11.797986942880279 #
point $-1 -35.358797941921722 -18.614779390118002 -11.797986942880279 #
straight-curve $-1 -40.051132468640816 -29.242408332629203 0 0 0 -1 I I #
edge $-1 $428 35.358797941921722 $323 40.051132468640816 $427 $492 forward 7 unknown #
point $-1 -40.051132468640816 -29.242408332629203 -11.797986942880279 #
edge $-1 $326 -40.051132468640816 $429 -35.358797941921722 $426 $493 forward 7 unknown #
point $-1 -40.051132468640816 -29.242408332629203 11.797986942880279 #
plane-surface $-1 0 29.242408332629203 0 0 -1 0 0 0 -1 forward_v I I I I #
coedge $-1 $333 $337 $342 $451 forward $216 $-1 #
edge $-1 $494 -17.278111401942404 $347 -6.6504824594312026 $333 $495 forward 7 unknown #
coedge $-1 $335 $334 $449 $496 reversed $129 $-1 #
edge $-1 $350 6.6504824594312026 $497 17.278111401942404 $349 $498 forward 7 unknown #
straight-curve $-1 -35.358797941921722 18.614779390118006 0 0 0 -1 I I #
straight-curve $-1 -40.051132468640816 11.964296930686803 -11.797986942880279 0 1 0 I I #
coedge $-1 $339 $349 $341 $450 forward $331 $-1 #
straight-curve $-1 -40.051132468640816 11.964296930686803 11.797986942880279 0 -1 0 I I #
coedge $-1 $342 $341 $443 $496 forward $343 $-1 #
edge $-1 $497 35.358797941921722 $345 40.051132468640816 $341 $499 forward 7 unknown #
edge $-1 $344 -40.051132468640816 $494 -35.358797941921722 $342 $500 forward 7 unknown #
point $-1 -40.051132468640816 29.242408332629207 -11.797986942880279 #
point $-1 -40.051132468640816 29.242408332629207 11.797986942880279 #
point $-1 -35.358797941921722 18.614779390118006 -11.797986942880279 #
point $-1 -35.358797941921722 18.614779390118006 11.797986942880279 #
coedge $-1 $458 $363 $357 $457 forward $354 $-1 #
edge $-1 $365 -39.605176985603073 $465 -32.1598670144026 $456 $501 forward 7 unknown #
coedge $-1 $358 $456 $360 $460 reversed $354 $-1 #
straight-curve $-1 -49.267860957670827 -11.647503916386796 43.957853957282879 0 0 -1 I I #
edge $-1 $361 11.647503916386796 $465 18.614779390118002 $458 $502 forward 7 unknown #
point $-1 -49.267860957670827 -11.647503916386796 11.797986942880279 #
straight-curve $-1 -49.267860957670827 -7.5655708266261996 4.3526769716798048 0 -1 0 I I #
point $-1 -49.267860957670827 -18.614779390118002 4.3526769716798031 #
point $-1 -49.267860957670827 -11.647503916386796 4.3526769716798031 #
vertex $-1 $457 $503 #
straight-curve $-1 -50.741919452595084 -18.614779390118002 11.797986942880279 1 0 0 I I #
vertex $-1 $372 $504 #
point $-1 -42.56843645970828 -16.624129254766228 7.3597636833033704 #
vertex $-1 $376 $505 #
point $-1 -42.56843645970828 -13.638154051738567 7.3597636833033704 #
edge $-1 $478 32.1598670144026 $473 39.605176985603073 $381 $506 forward 7 unknown #
edge $-1 $387 18.500391947457601 $478 30.415378355030192 $386 $507 forward 7 unknown #
vertex $-1 $475 $508 #
straight-curve $-1 -46.087967139426297 18.614779390118006 6.339695197507397 -0.84804809178421925 0 -0.52991927123019833 I I #
edge $-1 $473 -11.049208563491806 $391 -4.0819330897606001 $390 $509 forward 7 unknown #
point $-1 -37.352874550098235 18.614779390118006 11.797986942880279 #
point $-1 -49.267860957670827 11.647503916386803 4.3526769716798031 #
vertex $-1 $394 $510 #
straight-curve $-1 -49.267860957670827 0 11.797986942880279 0 -1 0 I I #
vertex $-1 $397 $511 #
point $-1 -42.56843645970828 13.638154051738574 7.3597636833033704 #
vertex $-1 $401 $512 #
point $-1 -42.56843645970828 16.624129254766238 7.3597636833033704 #
straight-curve $-1 -49.267860957670827 29.242408332629203 0 0 0 -1 I I #
point $-1 -49.267860957670827 -29.242408332629203 -11.797986942880279 #
straight-curve $-1 -49.267860957670827 0 -11.797986942880279 0 1 0 I I #
point $-1 -49.267860957670827 29.242408332629203 -11.797986942880279 #
straight-curve $-1 -35.358797941921722 -11.964296930686801 11.797986942880279 0 1 0 I I #
straight-curve $-1 -35.358797941921722 -11.964296930686801 -11.797986942880279 0 -1 0 I I #
point $-1 -35.358797941921722 -29.242408332629203 -11.797986942880279 #
point $-1 -35.358797941921722 -29.242408332629203 11.797986942880279 #
straight-curve $-1 0 -29.242408332629203 -11.797986942880279 -1 0 0 I I #
straight-curve $-1 0 -29.242408332629203 11.797986942880279 1 0 0 I I #
vertex $-1 $496 $513 #
straight-curve $-1 -35.358797941921722 11.964296930686803 -11.797986942880279 0 -1 0 I I #
edge $-1 $497 -11.797986942880279 $494 11.797986942880279 $449 $514 forward 7 unknown #
vertex $-1 $450 $515 #
straight-curve $-1 -35.358797941921722 11.964296930686803 11.797986942880279 0 1 0 I I #
straight-curve $-1 0 29.242408332629203 11.797986942880279 -1 0 0 I I #
straight-curve $-1 0 29.242408332629203 -11.797986942880279 1 0 0 I I #
straight-curve $-1 -49.267860957670827 -18.614779390118002 43.957853957282879 0 0 1 I I #
straight-curve $-1 -49.267860957670827 0 11.797986942880279 0 -1 0 I I #
point $-1 -49.267860957670827 -18.614779390118002 11.797986942880279 #
point $-1 -42.647968664846786 -16.624129254766228 7.0152718425497653 #
point $-1 -42.647968664846786 -13.638154051738567 7.0152718425497653 #
straight-curve $-1 -49.267860957670827 18.614779390118009 43.957853957282879 0 0 -1 I I #
straight-curve $-1 -18.852482602640634 18.614779390118006 11.797986942880279 -1 0 0 I I #
point $-1 -49.267860957670827 18.614779390118009 4.3526769716798031 #
straight-curve $-1 -49.267860957670827 7.5655708266262032 4.3526769716798048 0 -1 0 I I #
point $-1 -49.267860957670827 18.614779390118009 11.797986942880279 #
point $-1 -42.647968664846786 13.638154051738574 7.0152718425497653 #
point $-1 -42.647968664846786 16.624129254766238 7.0152718425497653 #
point $-1 -35.358797941921722 29.242408332629207 -11.797986942880279 #
straight-curve $-1 -35.358797941921722 29.242408332629203 0 0 0 -1 I I #
point $-1 -35.358797941921722 29.242408332629207 11.797986942880279 #
End-of-ACIS-data 