500 0 9 0           
7 Unknown 11 ACIS 5.0 NT 24 Thu Mar 25 21:23:17 1999 
-1 9.9999999999999995e-007 1e-010 
body $-1 $9 $-1 $10 #
body $-1 $11 $-1 $12 #
body $-1 $13 $-1 $14 #
body $-1 $15 $-1 $16 #
body $-1 $17 $-1 $18 #
body $-1 $19 $-1 $20 #
body $-1 $21 $-1 $22 #
body $-1 $23 $-1 $24 #
body $-1 $25 $-1 $26 #
lump $-1 $-1 $27 $0 #
transform $-1 1 0 0 0 1 0 0 0 1 47.041230506302071 32.135102501085406 14.055417402418771 1 rotate no_reflect no_shear #
lump $-1 $-1 $28 $1 #
transform $-1 1 0 0 0 1 0 0 0 1 47.041230506302071 32.135102501085406 14.055417402418771 1 rotate no_reflect no_shear #
lump $-1 $-1 $29 $2 #
transform $-1 1 0 0 0 1 0 0 0 1 47.041230506302071 32.135102501085406 14.055417402418771 1 rotate no_reflect no_shear #
lump $-1 $-1 $30 $3 #
transform $-1 1 0 0 0 1 0 0 0 1 47.041230506302071 32.135102501085406 14.055417402418771 1 rotate no_reflect no_shear #
lump $-1 $-1 $31 $4 #
transform $-1 1 0 0 0 1 0 0 0 1 47.041230506302071 32.135102501085406 14.055417402418771 1 rotate no_reflect no_shear #
lump $-1 $-1 $32 $5 #
transform $-1 1 0 0 0 1 0 0 0 1 47.041230506302071 32.135102501085406 14.055417402418771 1 rotate no_reflect no_shear #
lump $-1 $-1 $33 $6 #
transform $-1 1 0 0 0 1 0 0 0 1 47.041230506302071 32.135102501085406 14.055417402418771 1 rotate no_reflect no_shear #
lump $-1 $-1 $34 $7 #
transform $-1 1 0 0 0 1 0 0 0 1 47.041230506302071 32.135102501085406 14.055417402418771 1 rotate no_reflect no_shear #
lump $-1 $-1 $35 $8 #
transform $-1 1 0 0 0 1 0 0 0 1 47.041230506302071 32.135102501085406 14.055417402418771 1 rotate no_reflect no_shear #
shell $-1 $-1 $-1 $36 $-1 $9 #
shell $-1 $-1 $-1 $37 $-1 $11 #
shell $-1 $-1 $-1 $38 $-1 $13 #
shell $-1 $-1 $-1 $39 $-1 $15 #
shell $-1 $-1 $-1 $40 $-1 $17 #
shell $-1 $-1 $-1 $41 $-1 $19 #
shell $-1 $-1 $-1 $42 $-1 $21 #
shell $-1 $-1 $-1 $43 $-1 $23 #
shell $-1 $-1 $-1 $44 $-1 $25 #
face $-1 $45 $46 $27 $-1 $47 forward single #
face $-1 $48 $49 $28 $-1 $50 reversed single #
face $-1 $51 $52 $29 $-1 $53 forward single #
face $-1 $54 $55 $30 $-1 $56 reversed single #
face $-1 $57 $58 $31 $-1 $59 forward single #
face $-1 $60 $61 $32 $-1 $62 reversed single #
face $-1 $63 $64 $33 $-1 $65 forward single #
face $-1 $66 $67 $34 $-1 $68 forward single #
face $-1 $69 $70 $35 $-1 $71 forward single #
face $-1 $72 $73 $27 $-1 $74 reversed single #
loop $-1 $-1 $75 $36 #
plane-surface $-1 0 0 14.055417402418771 0 0 1 1 0 0 forward_v I I I I #
face $-1 $76 $77 $28 $-1 $78 reversed single #
loop $-1 $-1 $79 $37 #
plane-surface $-1 -1.7763568394002505e-015 -111.9215551901037 58.751860222604208 -1 0 0 0 -0.84804810408105047 0.52991925155115449 forward_v I I I I #
face $-1 $80 $81 $29 $-1 $82 forward single #
loop $-1 $83 $84 $38 #
cone-surface $-1 -9.5607816016508878 -29.921915589499292 11.099958163166042 0 0.84804810408105047 -0.52991925155115449 1 0 0 1 I I 0 1 1 forward I I I I #
face $-1 $85 $86 $30 $-1 $87 reversed single #
loop $-1 $-1 $88 $39 #
plane-surface $-1 19.121563203301768 -111.9215551901037 58.751860222604208 -1 0 0 0 -0.84804810408105047 0.52991925155115449 forward_v I I I I #
face $-1 $89 $90 $31 $-1 $91 forward single #
loop $-1 $92 $93 $40 #
cone-surface $-1 9.5607816016508806 -29.921915589499292 11.099958163166042 0 0.84804810408105047 -0.52991925155115449 1 0 0 1 I I 0 1 1 forward I I I I #
face $-1 $94 $95 $32 $-1 $96 reversed single #
loop $-1 $-1 $97 $41 #
plane-surface $-1 -21.065260276042096 57.110485554896094 115.09055140704139 -1 0 0 0 0.73135370988377701 0.68199835119979291 forward_v I I I I #
face $-1 $98 $99 $33 $-1 $100 forward single #
loop $-1 $101 $102 $42 #
cone-surface $-1 -41.846036460250076 26.534367543632737 8.1718835834679808 0 -0.73135370988377701 -0.68199835119979291 2 0 0 1 I I 0 1 2 forward I I I I #
face $-1 $103 $104 $34 $-1 $105 forward single #
loop $-1 $106 $107 $43 #
cone-surface $-1 -34.053245391172084 26.534367543632737 8.1718835834679808 0 -0.73135370988377701 -0.68199835119979291 2 0 0 1 I I 0 1 2 forward I I I I #
face $-1 $108 $109 $35 $-1 $110 forward single #
loop $-1 $111 $112 $44 #
cone-surface $-1 -26.260454322094098 26.534367543632737 8.1718835834679808 0 -0.73135370988377701 -0.68199835119979291 2 0 0 1 I I 0 1 2 forward I I I I #
face $-1 $113 $114 $27 $-1 $115 reversed single #
loop $-1 $-1 $116 $45 #
plane-surface $-1 0 0 -14.055417402418771 0 0 1 1 0 0 forward_v I I I I #
coedge $-1 $117 $118 $119 $120 forward $46 $-1 #
face $-1 $121 $122 $28 $-1 $123 reversed single #
loop $-1 $-1 $124 $48 #
plane-surface $-1 -9.5607816016508878 -32.135102501085413 8.895752898714349 0 -0.84804810408105047 0.52991925155115449 1 0 0 forward_v I I I I #
coedge $-1 $125 $126 $127 $128 reversed $49 $-1 #
face $-1 $-1 $129 $29 $-1 $130 forward single #
loop $-1 $131 $132 $51 #
cone-surface $-1 -9.5607816016508878 -28.896762679478528 10.459371549989944 0 0.84804810408105047 -0.52991925155115449 0.5 0 0 1 I I -0.70710678118654746 0.70710678118654746 0.5 forward I I I I #
loop $-1 $-1 $133 $38 #
coedge $-1 $84 $84 $134 $135 reversed $52 $-1 #
face $-1 $136 $137 $30 $-1 $138 reversed single #
loop $-1 $-1 $139 $54 #
plane-surface $-1 -9.5607816016508878 -32.135102501085413 8.895752898714349 0 -0.84804810408105047 0.52991925155115449 1 0 0 forward_v I I I I #
coedge $-1 $140 $141 $142 $143 reversed $55 $-1 #
face $-1 $-1 $144 $31 $-1 $145 forward single #
loop $-1 $146 $147 $57 #
cone-surface $-1 9.5607816016508806 -28.896762679478528 10.459371549989944 0 0.84804810408105047 -0.52991925155115449 0.5 0 0 1 I I -0.70710678118654746 0.70710678118654746 0.5 forward I I I I #
loop $-1 $-1 $148 $40 #
coedge $-1 $93 $93 $149 $150 reversed $58 $-1 #
face $-1 $151 $152 $32 $-1 $153 reversed single #
loop $-1 $-1 $154 $60 #
plane-surface $-1 -34.053245391172084 -11.697071341667758 50.926468119626563 0 0.73135370988377701 0.68199835119979291 1 0 0 forward_v I I I I #
coedge $-1 $155 $156 $157 $158 reversed $61 $-1 #
face $-1 $-1 $159 $33 $-1 $160 forward single #
loop $-1 $161 $162 $63 #
cone-surface $-1 -41.846036460250076 24.926960697577258 6.6729524863777545 0 -0.73135370988377701 -0.68199835119979291 1 0 0 1 I I -0.70710678118654746 0.70710678118654746 1 forward I I I I #
loop $-1 $-1 $163 $42 #
coedge $-1 $102 $102 $164 $165 reversed $64 $-1 #
face $-1 $-1 $166 $34 $-1 $167 forward single #
loop $-1 $168 $169 $66 #
cone-surface $-1 -34.053245391172084 24.926960697577258 6.6729524863777545 0 -0.73135370988377701 -0.68199835119979291 1 0 0 1 I I -0.70710678118654746 0.70710678118654746 1 forward I I I I #
loop $-1 $-1 $170 $43 #
coedge $-1 $107 $107 $171 $172 reversed $67 $-1 #
face $-1 $-1 $173 $35 $-1 $174 forward single #
loop $-1 $175 $176 $69 #
cone-surface $-1 -26.260454322094098 24.926960697577258 6.6729524863777545 0 -0.73135370988377701 -0.68199835119979291 1 0 0 1 I I -0.70710678118654746 0.70710678118654746 1 forward I I I I #
loop $-1 $-1 $177 $44 #
coedge $-1 $112 $112 $178 $179 reversed $70 $-1 #
face $-1 $180 $181 $27 $-1 $182 reversed single #
loop $-1 $-1 $183 $72 #
plane-surface $-1 0 -32.135102501085406 0 0 1 0 0 0 1 forward_v I I I I #
coedge $-1 $184 $185 $186 $187 forward $73 $-1 #
coedge $-1 $188 $75 $189 $190 forward $46 $-1 #
coedge $-1 $75 $188 $191 $192 forward $46 $-1 #
coedge $-1 $193 $194 $75 $120 reversed $195 $-1 #
edge $-1 $196 -32.135102501085406 $197 32.135102501085406 $119 $198 forward 7 unknown #
face $-1 $199 $200 $28 $-1 $201 reversed single #
loop $-1 $-1 $202 $76 #
plane-surface $-1 -19.121563203301776 -111.9215551901037 58.751860222604208 1 0 0 0 0.84804810408105047 -0.52991925155115449 forward_v I I I I #
coedge $-1 $203 $204 $205 $206 reversed $77 $-1 #
coedge $-1 $126 $79 $207 $208 reversed $49 $-1 #
coedge $-1 $79 $125 $203 $209 reversed $49 $-1 #
coedge $-1 $205 $210 $79 $128 forward $211 $-1 #
edge $-1 $212 23.825675093966446 $213 27.049791201178195 $127 $214 forward 7 unknown #
loop $-1 $-1 $134 $80 #
plane-surface $-1 -9.5607816016508878 -32.135102501085413 8.895752898714349 0 -0.84804810408105047 0.52991925155115449 1 0 0 forward_v I I I I #
loop $-1 $-1 $215 $51 #
coedge $-1 $132 $132 $133 $216 reversed $81 $-1 #
coedge $-1 $133 $133 $132 $216 forward $83 $-1 #
coedge $-1 $134 $134 $84 $135 forward $129 $-1 #
edge $-1 $217 -1.5064360498247893e-015 $217 6.2831853071795987 $134 $218 forward 7 unknown #
face $-1 $219 $220 $30 $-1 $221 forward single #
loop $-1 $-1 $222 $85 #
plane-surface $-1 0 -32.135102501085406 0 0 1 0 0 0 1 forward_v I I I I #
coedge $-1 $223 $224 $225 $226 reversed $86 $-1 #
coedge $-1 $141 $88 $227 $228 reversed $55 $-1 #
coedge $-1 $88 $140 $229 $230 reversed $55 $-1 #
coedge $-1 $231 $222 $88 $143 forward $137 $-1 #
edge $-1 $232 -20.480177212587744 $233 -15.320512708883333 $142 $234 forward 7 unknown #
loop $-1 $-1 $149 $89 #
plane-surface $-1 -9.5607816016508878 -32.135102501085413 8.895752898714349 0 -0.84804810408105047 0.52991925155115449 1 0 0 forward_v I I I I #
loop $-1 $-1 $235 $57 #
coedge $-1 $147 $147 $148 $236 reversed $90 $-1 #
coedge $-1 $148 $148 $147 $236 forward $92 $-1 #
coedge $-1 $149 $149 $93 $150 forward $144 $-1 #
edge $-1 $237 -1.5064360498247893e-015 $237 6.2831853071795987 $149 $238 forward 7 unknown #
face $-1 $239 $240 $32 $-1 $241 reversed single #
loop $-1 $-1 $157 $94 #
plane-surface $-1 0 32.135102501085406 0 0 -1 0 0 0 -1 forward_v I I I I #
coedge $-1 $242 $243 $244 $245 reversed $95 $-1 #
coedge $-1 $156 $97 $246 $247 reversed $61 $-1 #
coedge $-1 $97 $155 $242 $248 reversed $61 $-1 #
coedge $-1 $244 $249 $97 $158 forward $152 $-1 #
edge $-1 $250 43.489858301101926 $251 53.623060447222628 $157 $252 forward 7 unknown #
loop $-1 $-1 $164 $98 #
plane-surface $-1 -34.053245391172084 -11.697071341667758 50.926468119626563 0 0.73135370988377701 0.68199835119979291 1 0 0 forward_v I I I I #
loop $-1 $-1 $253 $63 #
coedge $-1 $162 $162 $163 $254 reversed $99 $-1 #
coedge $-1 $163 $163 $162 $254 forward $101 $-1 #
coedge $-1 $164 $164 $102 $165 forward $159 $-1 #
edge $-1 $255 3.5069091583739096e-016 $255 6.2831853071796004 $164 $256 forward 7 unknown #
loop $-1 $-1 $171 $103 #
plane-surface $-1 -34.053245391172084 -11.697071341667758 50.926468119626563 0 0.73135370988377701 0.68199835119979291 1 0 0 forward_v I I I I #
loop $-1 $-1 $257 $66 #
coedge $-1 $169 $169 $170 $258 reversed $104 $-1 #
coedge $-1 $170 $170 $169 $258 forward $106 $-1 #
coedge $-1 $171 $171 $107 $172 forward $166 $-1 #
edge $-1 $259 3.5069091583739096e-016 $259 6.2831853071796004 $171 $260 forward 7 unknown #
loop $-1 $-1 $178 $108 #
plane-surface $-1 -34.053245391172084 -11.697071341667758 50.926468119626563 0 0.73135370988377701 0.68199835119979291 1 0 0 forward_v I I I I #
loop $-1 $-1 $261 $69 #
coedge $-1 $176 $176 $177 $262 reversed $109 $-1 #
coedge $-1 $177 $177 $176 $262 forward $111 $-1 #
coedge $-1 $178 $178 $112 $179 forward $173 $-1 #
edge $-1 $263 3.5069091583739096e-016 $263 6.2831853071796004 $178 $264 forward 7 unknown #
face $-1 $265 $266 $27 $-1 $267 reversed single #
loop $-1 $-1 $268 $113 #
plane-surface $-1 -47.041230506302071 0 0 1 0 0 0 0 -1 forward_v I I I I #
coedge $-1 $269 $191 $270 $271 forward $114 $-1 #
coedge $-1 $272 $116 $269 $273 forward $73 $-1 #
coedge $-1 $116 $272 $274 $275 forward $73 $-1 #
coedge $-1 $194 $193 $116 $187 reversed $195 $-1 #
edge $-1 $276 -32.135102501085406 $277 32.135102501085406 $186 $278 forward 7 unknown #
coedge $-1 $118 $117 $279 $280 forward $46 $-1 #
coedge $-1 $281 $282 $117 $190 reversed $266 $-1 #
edge $-1 $197 -47.041230506302071 $283 47.041230506302071 $189 $284 forward 7 unknown #
coedge $-1 $183 $285 $118 $192 reversed $114 $-1 #
edge $-1 $286 -47.041230506302071 $196 47.041230506302071 $191 $287 forward 7 unknown #
coedge $-1 $186 $119 $285 $288 forward $195 $-1 #
coedge $-1 $119 $186 $281 $289 reversed $195 $-1 #
loop $-1 $-1 $193 $265 #
vertex $-1 $120 $290 #
vertex $-1 $120 $291 #
straight-curve $-1 47.041230506302071 0 14.055417402418771 0 1 0 I I #
face $-1 $-1 $211 $28 $-1 $292 forward single #
loop $-1 $-1 $293 $121 #
plane-surface $-1 0 -32.135102501085406 0 0 1 0 0 0 1 forward_v I I I I #
coedge $-1 $294 $295 $296 $297 reversed $122 $-1 #
coedge $-1 $298 $124 $126 $209 forward $77 $-1 #
coedge $-1 $124 $298 $294 $299 forward $77 $-1 #
coedge $-1 $296 $127 $124 $206 forward $211 $-1 #
edge $-1 $213 -4.7803908008254421 $300 14.341172402476332 $205 $301 forward 7 unknown #
coedge $-1 $302 $303 $125 $208 forward $200 $-1 #
edge $-1 $304 -20.480177212587744 $212 -15.320512708883333 $207 $305 forward 7 unknown #
edge $-1 $213 -6.084164894508505 $304 -1.2803919046239758e-014 $126 $306 forward 7 unknown #
coedge $-1 $127 $296 $302 $307 forward $211 $-1 #
loop $-1 $-1 $296 $199 #
vertex $-1 $208 $308 #
vertex $-1 $128 $309 #
straight-curve $-1 -1.7763568394002505e-015 -55.960777595051852 14.055417402418769 0 1 0 I I #
coedge $-1 $215 $215 $-1 $310 reversed $131 $-1 #
edge $-1 $311 0 $311 6.2831853071796004 $132 $312 forward 7 unknown #
vertex $-1 $135 $313 #
ellipse-curve $-1 -9.5607816016508878 -30.523044447479531 11.475585150566564 0 -0.84804810408105047 0.52991925155115449 1 0 0 1 I I #
face $-1 $-1 $314 $30 $-1 $315 forward single #
loop $-1 $-1 $316 $136 #
plane-surface $-1 -1.7763568394002505e-015 -111.9215551901037 58.751860222604208 -1 0 0 0 -0.84804810408105047 0.52991925155115449 forward_v I I I I #
coedge $-1 $142 $317 $224 $318 forward $137 $-1 #
coedge $-1 $227 $139 $319 $320 reversed $86 $-1 #
coedge $-1 $139 $227 $222 $318 reversed $86 $-1 #
coedge $-1 $321 $316 $139 $226 forward $220 $-1 #
edge $-1 $322 -6.084164894508505 $323 -1.2803919046239758e-014 $225 $324 forward 7 unknown #
coedge $-1 $224 $223 $140 $228 forward $86 $-1 #
edge $-1 $325 -6.084164894508505 $232 -1.2803919046239758e-014 $140 $326 forward 7 unknown #
coedge $-1 $319 $327 $141 $230 forward $314 $-1 #
edge $-1 $233 23.825675093966446 $325 27.049791201178195 $229 $328 forward 7 unknown #
coedge $-1 $317 $142 $327 $329 reversed $137 $-1 #
vertex $-1 $143 $330 #
vertex $-1 $143 $331 #
straight-curve $-1 19.121563203301768 -32.135102501085406 29.375930111302104 0 0 1 I I #
coedge $-1 $235 $235 $-1 $332 reversed $146 $-1 #
edge $-1 $333 0 $333 6.2831853071796004 $147 $334 forward 7 unknown #
vertex $-1 $150 $335 #
ellipse-curve $-1 9.5607816016508806 -30.523044447479531 11.475585150566564 0 -0.84804810408105047 0.52991925155115449 1 0 0 1 I I #
face $-1 $-1 $336 $32 $-1 $337 forward single #
loop $-1 $-1 $338 $151 #
plane-surface $-1 -47.041230506302071 0 0 1 0 0 0 0 -1 forward_v I I I I #
coedge $-1 $339 $154 $156 $248 forward $95 $-1 #
coedge $-1 $154 $339 $338 $340 reversed $95 $-1 #
coedge $-1 $341 $157 $154 $245 forward $152 $-1 #
edge $-1 $251 4.0386375804560544 $342 30.014607810716029 $244 $343 forward 7 unknown #
coedge $-1 $344 $345 $155 $247 forward $336 $-1 #
edge $-1 $346 -5.8695039189245328 $250 3.5798597236373588 $246 $347 forward 7 unknown #
edge $-1 $251 -64.270205002170798 $346 -50.414799595488688 $156 $348 forward 7 unknown #
coedge $-1 $157 $341 $344 $349 reversed $152 $-1 #
vertex $-1 $349 $350 #
vertex $-1 $158 $351 #
straight-curve $-1 -21.065260276042096 32.135102501085406 57.545275703520694 0 0 -1 I I #
coedge $-1 $253 $253 $-1 $352 reversed $161 $-1 #
edge $-1 $353 0 $353 6.2831853071796004 $162 $354 forward 7 unknown #
vertex $-1 $165 $355 #
ellipse-curve $-1 -41.846036460250076 27.410420679804457 8.9888163293584284 0 0.73135370988377701 0.68199835119979291 2 0 0 1 I I #
coedge $-1 $257 $257 $-1 $356 reversed $168 $-1 #
edge $-1 $357 0 $357 6.2831853071796004 $169 $358 forward 7 unknown #
vertex $-1 $172 $359 #
ellipse-curve $-1 -34.053245391172084 27.410420679804457 8.9888163293584284 0 0.73135370988377701 0.68199835119979291 2 0 0 1 I I #
coedge $-1 $261 $261 $-1 $360 reversed $175 $-1 #
edge $-1 $361 0 $361 6.2831853071796004 $176 $362 forward 7 unknown #
vertex $-1 $179 $363 #
ellipse-curve $-1 -26.260454322094098 27.410420679804457 8.9888163293584284 0 0.73135370988377701 0.68199835119979291 2 0 0 1 I I #
face $-1 $-1 $195 $27 $-1 $364 reversed single #
loop $-1 $-1 $281 $180 #
plane-surface $-1 0 32.135102501085406 0 0 -1 0 0 0 -1 forward_v I I I I #
coedge $-1 $365 $279 $282 $366 forward $181 $-1 #
coedge $-1 $285 $183 $184 $273 reversed $114 $-1 #
coedge $-1 $279 $365 $183 $271 reversed $181 $-1 #
edge $-1 $286 -14.055417402418771 $367 14.055417402418771 $270 $368 forward 7 unknown #
coedge $-1 $185 $184 $365 $369 forward $73 $-1 #
edge $-1 $277 -47.041230506302071 $367 47.041230506302071 $269 $370 forward 7 unknown #
coedge $-1 $282 $281 $185 $275 reversed $266 $-1 #
edge $-1 $371 -47.041230506302071 $276 47.041230506302071 $274 $372 forward 7 unknown #
vertex $-1 $187 $373 #
vertex $-1 $288 $374 #
straight-curve $-1 47.041230506302071 0 -14.055417402418771 0 -1 0 I I #
coedge $-1 $268 $270 $188 $280 reversed $181 $-1 #
edge $-1 $283 -32.135102501085406 $286 32.135102501085406 $279 $375 forward 7 unknown #
coedge $-1 $274 $189 $194 $289 forward $266 $-1 #
coedge $-1 $189 $274 $268 $366 reversed $266 $-1 #
vertex $-1 $190 $376 #
straight-curve $-1 0 32.135102501085406 14.055417402418771 -1 0 0 I I #
coedge $-1 $191 $269 $193 $288 reversed $114 $-1 #
vertex $-1 $280 $377 #
straight-curve $-1 0 -32.135102501085406 14.055417402418771 1 0 0 I I #
edge $-1 $196 -14.055417402418771 $277 14.055417402418771 $193 $378 forward 7 unknown #
edge $-1 $197 -14.055417402418771 $276 14.055417402418771 $194 $379 forward 7 unknown #
point $-1 47.041230506302071 -32.135102501085406 14.055417402418771 #
point $-1 47.041230506302071 32.135102501085406 14.055417402418771 #
plane-surface $-1 0 0 14.055417402418771 0 0 1 1 0 0 forward_v I I I I #
coedge $-1 $303 $302 $295 $380 forward $200 $-1 #
coedge $-1 $295 $202 $204 $299 reversed $122 $-1 #
coedge $-1 $202 $294 $293 $380 reversed $122 $-1 #
coedge $-1 $210 $205 $202 $297 forward $211 $-1 #
edge $-1 $300 -27.049791201178195 $381 -23.825675093966446 $296 $382 forward 7 unknown #
coedge $-1 $204 $203 $303 $383 reversed $77 $-1 #
edge $-1 $384 1.2803919046239758e-014 $300 6.084164894508505 $294 $385 forward 7 unknown #
vertex $-1 $206 $386 #
straight-curve $-1 -4.7803908008254439 -28.910986393873657 14.055417402418771 -1 0 0 I I #
coedge $-1 $293 $207 $210 $307 reversed $200 $-1 #
coedge $-1 $207 $293 $298 $383 forward $200 $-1 #
vertex $-1 $208 $387 #
straight-curve $-1 -1.7763568394002505e-015 -32.135102501085406 29.375930111302104 0 0 1 I I #
straight-curve $-1 -1.7763568394002505e-015 -32.135102501085413 8.895752898714349 0 -0.52991925155115449 -0.84804810408105047 I I #
edge $-1 $381 -19.121563203301776 $212 -1.7763568394002505e-015 $302 $388 forward 7 unknown #
point $-1 -1.7763568394002505e-015 -32.135102501085406 14.055417402418771 #
point $-1 -1.7763568394002505e-015 -28.910986393873657 14.055417402418771 #
edge $-1 $389 1 $389 0 $215 $-1 forward 7 unknown #
vertex $-1 $216 $390 #
ellipse-curve $-1 -9.5607816016508878 -29.320786731519053 10.724331175765521 0 -0.84804810408105047 0.52991925155115449 1 0 0 1 I I #
point $-1 -8.5607816016508878 -30.523044447479531 11.475585150566562 #
loop $-1 $-1 $319 $219 #
plane-surface $-1 0 0 14.055417402418771 0 0 1 1 0 0 forward_v I I I I #
coedge $-1 $225 $321 $391 $392 reversed $220 $-1 #
coedge $-1 $222 $231 $321 $393 forward $137 $-1 #
edge $-1 $323 4.7803908008254421 $232 23.901954004127212 $222 $394 forward 7 unknown #
coedge $-1 $391 $229 $223 $320 forward $314 $-1 #
edge $-1 $325 -23.901954004127212 $322 -4.7803908008254421 $319 $395 forward 7 unknown #
coedge $-1 $316 $225 $317 $393 reversed $220 $-1 #
vertex $-1 $320 $396 #
vertex $-1 $318 $397 #
straight-curve $-1 -1.7763568394002505e-015 -32.135102501085413 8.895752898714349 0 -0.52991925155115449 -0.84804810408105047 I I #
vertex $-1 $230 $398 #
straight-curve $-1 19.121563203301768 -32.135102501085413 8.895752898714349 0 -0.52991925155115449 -0.84804810408105047 I I #
coedge $-1 $229 $391 $231 $329 forward $314 $-1 #
straight-curve $-1 19.121563203301768 -55.960777595051852 14.055417402418769 0 1 0 I I #
edge $-1 $399 -1.7763568394002505e-015 $233 19.121563203301768 $231 $400 forward 7 unknown #
point $-1 19.121563203301768 -32.135102501085406 8.8957528987143597 #
point $-1 19.121563203301768 -32.135102501085406 14.055417402418771 #
edge $-1 $401 1 $401 0 $235 $-1 forward 7 unknown #
vertex $-1 $236 $402 #
ellipse-curve $-1 9.5607816016508806 -29.320786731519053 10.724331175765521 0 -0.84804810408105047 0.52991925155115449 1 0 0 1 I I #
point $-1 10.560781601650881 -30.523044447479531 11.475585150566562 #
loop $-1 $-1 $246 $239 #
plane-surface $-1 0 0 14.055417402418771 0 0 1 1 0 0 forward_v I I I I #
coedge $-1 $403 $404 $243 $340 forward $240 $-1 #
coedge $-1 $243 $242 $345 $405 reversed $95 $-1 #
edge $-1 $342 -41.658882622445518 $406 -27.803477215763415 $338 $407 forward 7 unknown #
coedge $-1 $249 $244 $404 $408 reversed $152 $-1 #
vertex $-1 $340 $409 #
straight-curve $-1 -17.026622695586042 32.135102501085406 3.9222152562980703 -1 0 0 I I #
coedge $-1 $410 $246 $249 $349 forward $336 $-1 #
coedge $-1 $246 $410 $339 $405 forward $336 $-1 #
vertex $-1 $247 $411 #
straight-curve $-1 -21.065260276042096 28.555242777448047 14.055417402418769 0 1 0 I I #
straight-curve $-1 -21.065260276042096 -11.697071341667758 50.926468119626563 0 -0.68199835119979291 0.73135370988377701 I I #
edge $-1 $250 21.065260276042096 $412 47.041230506302071 $249 $413 forward 7 unknown #
point $-1 -21.065260276042096 32.135102501085406 14.055417402418771 #
point $-1 -21.065260276042096 32.135102501085406 3.9222152562980668 #
edge $-1 $414 1 $414 0 $253 $-1 forward 7 unknown #
vertex $-1 $254 $415 #
ellipse-curve $-1 -41.846036460250076 25.658314407461035 7.3549508375775474 0 0.73135370988377701 0.68199835119979291 2 0 0 1 I I #
point $-1 -39.846036460250076 27.410420679804442 8.9888163293584142 #
edge $-1 $416 1 $416 0 $257 $-1 forward 7 unknown #
vertex $-1 $258 $417 #
ellipse-curve $-1 -34.053245391172084 25.658314407461035 7.3549508375775474 0 0.73135370988377701 0.68199835119979291 2 0 0 1 I I #
point $-1 -32.053245391172084 27.410420679804442 8.9888163293584142 #
edge $-1 $418 1 $418 0 $261 $-1 forward 7 unknown #
vertex $-1 $262 $419 #
ellipse-curve $-1 -26.260454322094098 25.658314407461035 7.3549508375775474 0 0.73135370988377701 0.68199835119979291 2 0 0 1 I I #
point $-1 -24.260454322094098 27.410420679804442 8.9888163293584142 #
plane-surface $-1 47.041230506302071 0 0 -1 0 0 0 0 1 forward_v I I I I #
coedge $-1 $270 $268 $272 $369 reversed $181 $-1 #
edge $-1 $283 -14.055417402418771 $371 14.055417402418771 $282 $420 forward 7 unknown #
vertex $-1 $369 $421 #
straight-curve $-1 -47.041230506302071 -32.135102501085406 0 0 0 -1 I I #
edge $-1 $367 -32.135102501085406 $371 32.135102501085406 $365 $422 forward 7 unknown #
straight-curve $-1 0 -32.135102501085406 -14.055417402418771 -1 0 0 I I #
vertex $-1 $275 $423 #
straight-curve $-1 0 32.135102501085406 -14.055417402418771 1 0 0 I I #
point $-1 47.041230506302071 32.135102501085406 -14.055417402418771 #
point $-1 47.041230506302071 -32.135102501085406 -14.055417402418771 #
straight-curve $-1 -47.041230506302071 0 14.055417402418771 0 -1 0 I I #
point $-1 -47.041230506302071 32.135102501085406 14.055417402418771 #
point $-1 -47.041230506302071 -32.135102501085406 14.055417402418771 #
straight-curve $-1 47.041230506302071 -32.135102501085406 0 0 0 -1 I I #
straight-curve $-1 47.041230506302071 32.135102501085406 0 0 0 -1 I I #
edge $-1 $381 15.320512708883333 $384 20.480177212587744 $293 $424 forward 7 unknown #
vertex $-1 $307 $425 #
straight-curve $-1 -19.121563203301776 -55.960777595051852 14.055417402418769 0 -1 0 I I #
edge $-1 $384 -14.341172402476332 $304 4.7803908008254421 $303 $426 forward 7 unknown #
vertex $-1 $383 $427 #
straight-curve $-1 -19.121563203301776 -32.135102501085413 8.895752898714349 0 0.52991925155115449 0.84804810408105047 I I #
point $-1 -19.121563203301776 -28.910986393873657 14.055417402418771 #
point $-1 -1.7763568394002505e-015 -32.135102501085406 8.8957528987143597 #
straight-curve $-1 0 -32.135102501085406 14.055417402418771 1 0 0 I I #
vertex $-1 $310 $428 #
point $-1 -8.5607816016508878 -29.320786731519053 10.724331175765521 #
coedge $-1 $327 $319 $316 $392 forward $314 $-1 #
edge $-1 $322 -27.049791201178195 $399 -23.825675093966446 $391 $429 forward 7 unknown #
edge $-1 $399 15.320512708883333 $323 20.480177212587744 $317 $430 forward 7 unknown #
straight-curve $-1 -4.7803908008254439 -32.135102501085406 8.895752898714365 1 0 0 I I #
straight-curve $-1 -4.7803908008254439 -28.910986393873657 14.055417402418771 -1 0 0 I I #
point $-1 -1.7763568394002505e-015 -28.910986393873657 14.055417402418771 #
point $-1 -1.7763568394002505e-015 -32.135102501085406 8.8957528987143597 #
point $-1 19.121563203301768 -28.910986393873657 14.055417402418771 #
vertex $-1 $329 $431 #
straight-curve $-1 0 -32.135102501085406 14.055417402418771 1 0 0 I I #
vertex $-1 $332 $432 #
point $-1 10.560781601650881 -29.320786731519053 10.724331175765521 #
coedge $-1 $404 $338 $410 $433 reversed $240 $-1 #
coedge $-1 $338 $403 $341 $408 forward $240 $-1 #
edge $-1 $406 -30.014607810716029 $346 -4.0386375804560544 $345 $434 forward 7 unknown #
vertex $-1 $340 $435 #
straight-curve $-1 -47.041230506302071 3.7238132397518555 34.389593611836411 0 -0.68199835119979291 0.73135370988377701 I I #
edge $-1 $412 -14.055417402418771 $342 -3.9222152562980708 $341 $436 forward 7 unknown #
point $-1 -47.041230506302071 32.135102501085406 3.9222152562980708 #
coedge $-1 $345 $344 $403 $433 forward $336 $-1 #
point $-1 -21.065260276042096 22.685738858523514 14.055417402418769 #
vertex $-1 $349 $437 #
straight-curve $-1 0 32.135102501085406 14.055417402418771 -1 0 0 I I #
vertex $-1 $352 $438 #
point $-1 -39.846036460250076 25.658314407461035 7.3549508375775474 #
vertex $-1 $356 $439 #
point $-1 -32.053245391172084 25.658314407461035 7.3549508375775474 #
vertex $-1 $360 $440 #
point $-1 -24.260454322094098 25.658314407461035 7.3549508375775474 #
straight-curve $-1 -47.041230506302071 32.135102501085406 0 0 0 -1 I I #
point $-1 -47.041230506302071 -32.135102501085406 -14.055417402418771 #
straight-curve $-1 -47.041230506302071 0 -14.055417402418771 0 1 0 I I #
point $-1 -47.041230506302071 32.135102501085406 -14.055417402418771 #
straight-curve $-1 -19.121563203301776 -32.135102501085406 29.375930111302104 0 0 -1 I I #
point $-1 -19.121563203301776 -32.135102501085406 14.055417402418771 #
straight-curve $-1 -4.7803908008254439 -32.135102501085406 8.895752898714365 1 0 0 I I #
point $-1 -19.121563203301776 -32.135102501085406 8.8957528987143597 #
point $-1 -9.5607816016508878 -28.472738627438002 10.194411924214368 #
straight-curve $-1 -1.7763568394002505e-015 -55.960777595051852 14.055417402418769 0 -1 0 I I #
straight-curve $-1 -1.7763568394002505e-015 -32.135102501085406 29.375930111302104 0 0 -1 I I #
point $-1 -1.7763568394002505e-015 -32.135102501085406 14.055417402418771 #
point $-1 9.5607816016508806 -28.472738627438002 10.194411924214368 #
edge $-1 $412 -32.135102501085406 $406 -22.685738858523514 $403 $441 forward 7 unknown #
straight-curve $-1 -17.026622695586042 22.685738858523521 14.055417402418765 1 0 0 I I #
point $-1 -47.041230506302071 22.685738858523514 14.055417402418769 #
straight-curve $-1 -47.041230506302071 32.135102501085406 0 0 0 -1 I I #
point $-1 -47.041230506302071 32.135102501085406 14.055417402418771 #
point $-1 -41.846036460250076 24.195606987693481 5.9909541351779616 #
point $-1 -34.053245391172084 24.195606987693481 5.9909541351779616 #
point $-1 -26.260454322094098 24.195606987693481 5.9909541351779616 #
straight-curve $-1 -47.041230506302071 0 14.055417402418771 0 -1 0 I I #
End-of-ACIS-data 