500 0 11 0           
7 Unknown 11 ACIS 5.0 NT 24 Fri Mar 26 18:52:14 1999 
-1 9.9999999999999995e-007 1e-010 
body $-1 $11 $-1 $12 #
body $-1 $13 $-1 $14 #
body $-1 $15 $-1 $16 #
body $-1 $17 $-1 $18 #
body $-1 $19 $-1 $20 #
body $-1 $21 $-1 $22 #
body $-1 $23 $-1 $24 #
body $-1 $25 $-1 $26 #
body $-1 $27 $-1 $28 #
body $-1 $29 $-1 $30 #
body $-1 $31 $-1 $32 #
lump $-1 $-1 $33 $0 #
transform $-1 1 0 0 0 1 0 0 0 1 46.66035950804163 22.733237015724018 10.809232033102871 1 rotate no_reflect no_shear #
lump $-1 $-1 $34 $1 #
transform $-1 1 0 0 0 1 0 0 0 1 46.66035950804163 22.733237015724018 10.809232033102871 1 rotate no_reflect no_shear #
lump $-1 $-1 $35 $2 #
transform $-1 1 0 0 0 1 0 0 0 1 46.66035950804163 22.733237015724018 10.809232033102871 1 rotate no_reflect no_shear #
lump $-1 $-1 $36 $3 #
transform $-1 1 0 0 0 1 0 0 0 1 46.66035950804163 22.733237015724018 10.809232033102871 1 rotate no_reflect no_shear #
lump $-1 $-1 $37 $4 #
transform $-1 1 0 0 0 1 0 0 0 1 46.66035950804163 22.733237015724018 10.809232033102871 1 rotate no_reflect no_shear #
lump $-1 $-1 $38 $5 #
transform $-1 1 0 0 0 1 0 0 0 1 46.66035950804163 22.733237015724018 10.809232033102871 1 rotate no_reflect no_shear #
lump $-1 $-1 $39 $6 #
transform $-1 1 0 0 0 1 0 0 0 1 46.66035950804163 22.733237015724018 10.809232033102871 1 rotate no_reflect no_shear #
lump $-1 $-1 $40 $7 #
transform $-1 1 0 0 0 1 0 0 0 1 46.66035950804163 22.733237015724018 10.809232033102871 1 rotate no_reflect no_shear #
lump $-1 $-1 $41 $8 #
transform $-1 1 0 0 0 1 0 0 0 1 46.66035950804163 22.733237015724018 10.809232033102871 1 rotate no_reflect no_shear #
lump $-1 $-1 $42 $9 #
transform $-1 1 0 0 0 1 0 0 0 1 46.66035950804163 22.733237015724018 10.809232033102871 1 rotate no_reflect no_shear #
lump $-1 $-1 $43 $10 #
transform $-1 1 0 0 0 1 0 0 0 1 46.66035950804163 22.733237015724018 10.809232033102871 1 rotate no_reflect no_shear #
shell $-1 $-1 $-1 $44 $-1 $11 #
shell $-1 $-1 $-1 $45 $-1 $13 #
shell $-1 $-1 $-1 $46 $-1 $15 #
shell $-1 $-1 $-1 $47 $-1 $17 #
shell $-1 $-1 $-1 $48 $-1 $19 #
shell $-1 $-1 $-1 $49 $-1 $21 #
shell $-1 $-1 $-1 $50 $-1 $23 #
shell $-1 $-1 $-1 $51 $-1 $25 #
shell $-1 $-1 $-1 $52 $-1 $27 #
shell $-1 $-1 $-1 $53 $-1 $29 #
shell $-1 $-1 $-1 $54 $-1 $31 #
face $-1 $55 $56 $33 $-1 $57 forward single #
face $-1 $58 $59 $34 $-1 $60 reversed single #
face $-1 $61 $62 $35 $-1 $63 reversed single #
face $-1 $64 $65 $36 $-1 $66 reversed single #
face $-1 $67 $68 $37 $-1 $69 forward single #
face $-1 $70 $71 $38 $-1 $72 forward single #
face $-1 $73 $74 $39 $-1 $75 forward single #
face $-1 $76 $77 $40 $-1 $78 reversed single #
face $-1 $79 $80 $41 $-1 $81 forward single #
face $-1 $82 $83 $42 $-1 $84 forward single #
face $-1 $85 $86 $43 $-1 $87 forward single #
face $-1 $88 $89 $33 $-1 $90 reversed single #
loop $-1 $-1 $91 $44 #
plane-surface $-1 0 0 10.809232033102871 0 0 1 1 0 0 forward_v I I I I #
face $-1 $92 $93 $34 $-1 $94 reversed single #
loop $-1 $-1 $95 $45 #
plane-surface $-1 -41.989462959116373 0 6.3994401091515609 0 0 1 1 0 0 forward_v I I I I #
face $-1 $96 $97 $35 $-1 $98 reversed single #
loop $-1 $-1 $99 $46 #
plane-surface $-1 41.989462959116373 0 6.3994401091515609 0 0 1 1 0 0 forward_v I I I I #
face $-1 $100 $101 $36 $-1 $102 reversed single #
loop $-1 $-1 $103 $47 #
plane-surface $-1 -9.7621966705115799 -100.09962013138362 52.48505026922372 -1 0 0 0 -0.82903758062907751 0.55919289150049634 forward_v I I I I #
face $-1 $104 $105 $37 $-1 $106 forward single #
loop $-1 $107 $108 $48 #
cone-surface $-1 -23.745788206802334 -17.746771597015538 4.5820609970907045 0 0.82903758062907751 -0.55919289150049634 1.5 0 0 1 I I 0 1 1.5 forward I I I I #
face $-1 $109 $110 $38 $-1 $111 forward single #
loop $-1 $112 $113 $49 #
cone-surface $-1 -18.5019413806933 -17.746771597015538 4.5820609970907045 0 0.82903758062907751 -0.55919289150049634 1.5 0 0 1 I I 0 1 1.5 forward I I I I #
face $-1 $114 $115 $39 $-1 $116 forward single #
loop $-1 $117 $118 $50 #
cone-surface $-1 -13.258094554584268 -17.746771597015538 4.5820609970907045 0 0.82903758062907751 -0.55919289150049634 1.5 0 0 1 I I 0 1 1.5 forward I I I I #
face $-1 $119 $120 $40 $-1 $121 reversed single #
loop $-1 $-1 $122 $51 #
plane-surface $-1 27.241686090875014 -100.09962013138362 52.48505026922372 -1 0 0 0 -0.82903758062907751 0.55919289150049634 forward_v I I I I #
face $-1 $123 $124 $41 $-1 $125 forward single #
loop $-1 $126 $127 $52 #
cone-surface $-1 13.258094554584254 -17.746771597015538 4.5820609970907045 0 0.82903758062907751 -0.55919289150049634 1.5 0 0 1 I I 0 1 1.5 forward I I I I #
face $-1 $128 $129 $42 $-1 $130 forward single #
loop $-1 $131 $132 $53 #
cone-surface $-1 18.501941380693289 -17.746771597015538 4.5820609970907045 0 0.82903758062907751 -0.55919289150049634 1.5 0 0 1 I I 0 1 1.5 forward I I I I #
face $-1 $133 $134 $43 $-1 $135 forward single #
loop $-1 $136 $137 $54 #
cone-surface $-1 23.745788206802324 -17.746771597015538 4.5820609970907045 0 0.82903758062907751 -0.55919289150049634 1.5 0 0 1 I I 0 1 1.5 forward I I I I #
face $-1 $138 $139 $33 $-1 $140 reversed single #
loop $-1 $-1 $141 $55 #
plane-surface $-1 0 0 -10.809232033102871 0 0 1 1 0 0 forward_v I I I I #
coedge $-1 $142 $143 $144 $145 forward $56 $-1 #
face $-1 $146 $147 $34 $-1 $148 reversed single #
loop $-1 $-1 $149 $58 #
plane-surface $-1 -37.318566410191117 0 8.6043360711272161 -1 0 0 0 0 1 forward_v I I I I #
coedge $-1 $150 $151 $152 $153 forward $59 $-1 #
face $-1 $154 $155 $35 $-1 $156 forward single #
loop $-1 $-1 $157 $61 #
plane-surface $-1 37.318566410191117 0 8.6043360711272161 1 0 0 0 0 -1 forward_v I I I I #
coedge $-1 $158 $159 $160 $161 reversed $62 $-1 #
face $-1 $162 $163 $36 $-1 $164 reversed single #
loop $-1 $-1 $165 $64 #
plane-surface $-1 -18.501941380693303 -22.733237015724001 0.30076756571477148 0 -0.82903758062907751 0.55919289150049634 1 0 0 forward_v I I I I #
coedge $-1 $166 $167 $168 $169 reversed $65 $-1 #
face $-1 $-1 $170 $37 $-1 $171 forward single #
loop $-1 $172 $173 $67 #
cone-surface $-1 -23.745788206802334 -15.682552273550034 3.1897275261472178 0 0.82903758062907751 -0.55919289150049634 0.75 0 0 1 I I -0.70710678118654757 0.70710678118654757 0.75 forward I I I I #
loop $-1 $-1 $174 $48 #
coedge $-1 $108 $108 $175 $176 reversed $68 $-1 #
face $-1 $-1 $177 $38 $-1 $178 forward single #
loop $-1 $179 $180 $70 #
cone-surface $-1 -18.5019413806933 -15.682552273550034 3.1897275261472178 0 0.82903758062907751 -0.55919289150049634 0.75 0 0 1 I I -0.70710678118654757 0.70710678118654757 0.75 forward I I I I #
loop $-1 $-1 $181 $49 #
coedge $-1 $113 $113 $182 $183 reversed $71 $-1 #
face $-1 $-1 $184 $39 $-1 $185 forward single #
loop $-1 $186 $187 $73 #
cone-surface $-1 -13.258094554584268 -15.682552273550034 3.1897275261472178 0 0.82903758062907751 -0.55919289150049634 0.75 0 0 1 I I -0.70710678118654757 0.70710678118654757 0.75 forward I I I I #
loop $-1 $-1 $188 $50 #
coedge $-1 $118 $118 $189 $190 reversed $74 $-1 #
face $-1 $191 $192 $40 $-1 $193 reversed single #
loop $-1 $-1 $194 $76 #
plane-surface $-1 18.501941380693289 -22.733237015724001 0.30076756571477148 0 -0.82903758062907751 0.55919289150049634 1 0 0 forward_v I I I I #
coedge $-1 $195 $196 $197 $198 reversed $77 $-1 #
face $-1 $-1 $199 $41 $-1 $200 forward single #
loop $-1 $201 $202 $79 #
cone-surface $-1 13.258094554584254 -15.682552273550034 3.1897275261472178 0 0.82903758062907751 -0.55919289150049634 0.75 0 0 1 I I -0.70710678118654757 0.70710678118654757 0.75 forward I I I I #
loop $-1 $-1 $203 $52 #
coedge $-1 $127 $127 $204 $205 reversed $80 $-1 #
face $-1 $-1 $206 $42 $-1 $207 forward single #
loop $-1 $208 $209 $82 #
cone-surface $-1 18.501941380693289 -15.682552273550034 3.1897275261472178 0 0.82903758062907751 -0.55919289150049634 0.75 0 0 1 I I -0.70710678118654757 0.70710678118654757 0.75 forward I I I I #
loop $-1 $-1 $210 $53 #
coedge $-1 $132 $132 $211 $212 reversed $83 $-1 #
face $-1 $-1 $213 $43 $-1 $214 forward single #
loop $-1 $215 $216 $85 #
cone-surface $-1 23.745788206802324 -15.682552273550034 3.1897275261472178 0 0.82903758062907751 -0.55919289150049634 0.75 0 0 1 I I -0.70710678118654757 0.70710678118654757 0.75 forward I I I I #
loop $-1 $-1 $217 $54 #
coedge $-1 $137 $137 $218 $219 reversed $86 $-1 #
face $-1 $220 $221 $33 $-1 $222 reversed single #
loop $-1 $-1 $223 $88 #
plane-surface $-1 0 -22.733237015724018 0 0 1 0 0 0 1 forward_v I I I I #
coedge $-1 $224 $225 $226 $227 forward $89 $-1 #
coedge $-1 $228 $91 $229 $230 forward $56 $-1 #
coedge $-1 $91 $228 $231 $232 forward $56 $-1 #
coedge $-1 $233 $234 $91 $145 reversed $235 $-1 #
edge $-1 $236 -22.733237015724018 $237 22.733237015724018 $144 $238 forward 7 unknown #
face $-1 $239 $240 $34 $-1 $241 reversed single #
loop $-1 $-1 $242 $92 #
plane-surface $-1 0 22.733237015724018 0 0 -1 0 0 0 -1 forward_v I I I I #
coedge $-1 $152 $243 $244 $245 reversed $93 $-1 #
coedge $-1 $246 $95 $247 $248 reversed $59 $-1 #
coedge $-1 $95 $246 $249 $250 reversed $59 $-1 #
coedge $-1 $251 $149 $95 $153 reversed $93 $-1 #
edge $-1 $252 -22.733237015724018 $253 22.733237015724018 $152 $254 forward 7 unknown #
face $-1 $255 $256 $35 $-1 $257 reversed single #
loop $-1 $-1 $258 $96 #
plane-surface $-1 0 0 10.809232033102871 0 0 1 1 0 0 forward_v I I I I #
coedge $-1 $259 $260 $261 $262 reversed $97 $-1 #
coedge $-1 $263 $99 $264 $265 reversed $62 $-1 #
coedge $-1 $99 $263 $266 $267 reversed $62 $-1 #
coedge $-1 $268 $269 $99 $161 forward $270 $-1 #
edge $-1 $271 -22.733237015724018 $272 22.733237015724018 $160 $273 forward 7 unknown #
face $-1 $274 $275 $36 $-1 $276 forward single #
loop $-1 $-1 $277 $100 #
plane-surface $-1 -27.241686090875028 -100.09962013138362 52.48505026922372 1 0 0 0 0.82903758062907751 -0.55919289150049634 forward_v I I I I #
coedge $-1 $278 $279 $280 $281 reversed $101 $-1 #
coedge $-1 $167 $103 $282 $283 reversed $65 $-1 #
coedge $-1 $103 $166 $278 $284 reversed $65 $-1 #
coedge $-1 $280 $285 $103 $169 forward $275 $-1 #
edge $-1 $286 27.31657304996779 $287 34.404621611397367 $168 $288 forward 7 unknown #
loop $-1 $-1 $175 $104 #
plane-surface $-1 -18.501941380693303 -22.733237015724001 0.30076756571477148 0 -0.82903758062907751 0.55919289150049634 1 0 0 forward_v I I I I #
loop $-1 $-1 $289 $67 #
coedge $-1 $173 $173 $174 $290 reversed $105 $-1 #
coedge $-1 $174 $174 $173 $290 forward $107 $-1 #
coedge $-1 $175 $175 $108 $176 forward $170 $-1 #
edge $-1 $291 2.9646350664483967e-016 $291 6.2831853071796004 $175 $292 forward 7 unknown #
loop $-1 $-1 $182 $109 #
plane-surface $-1 -18.501941380693303 -22.733237015724001 0.30076756571477148 0 -0.82903758062907751 0.55919289150049634 1 0 0 forward_v I I I I #
loop $-1 $-1 $293 $70 #
coedge $-1 $180 $180 $181 $294 reversed $110 $-1 #
coedge $-1 $181 $181 $180 $294 forward $112 $-1 #
coedge $-1 $182 $182 $113 $183 forward $177 $-1 #
edge $-1 $295 2.9646350664483967e-016 $295 6.2831853071796004 $182 $296 forward 7 unknown #
loop $-1 $-1 $189 $114 #
plane-surface $-1 -18.501941380693303 -22.733237015724001 0.30076756571477148 0 -0.82903758062907751 0.55919289150049634 1 0 0 forward_v I I I I #
loop $-1 $-1 $297 $73 #
coedge $-1 $187 $187 $188 $298 reversed $115 $-1 #
coedge $-1 $188 $188 $187 $298 forward $117 $-1 #
coedge $-1 $189 $189 $118 $190 forward $184 $-1 #
edge $-1 $299 2.9646350664483967e-016 $299 6.2831853071796004 $189 $300 forward 7 unknown #
face $-1 $301 $302 $40 $-1 $303 reversed single #
loop $-1 $-1 $304 $119 #
plane-surface $-1 9.7621966705115657 -100.09962013138362 52.48505026922372 1 0 0 0 0.82903758062907751 -0.55919289150049634 forward_v I I I I #
coedge $-1 $305 $306 $307 $308 reversed $120 $-1 #
coedge $-1 $196 $122 $309 $310 reversed $77 $-1 #
coedge $-1 $122 $195 $305 $311 reversed $77 $-1 #
coedge $-1 $307 $312 $122 $198 forward $313 $-1 #
edge $-1 $314 27.31657304996779 $315 34.404621611397367 $197 $316 forward 7 unknown #
loop $-1 $-1 $204 $123 #
plane-surface $-1 18.501941380693289 -22.733237015724001 0.30076756571477148 0 -0.82903758062907751 0.55919289150049634 1 0 0 forward_v I I I I #
loop $-1 $-1 $317 $79 #
coedge $-1 $202 $202 $203 $318 reversed $124 $-1 #
coedge $-1 $203 $203 $202 $318 forward $126 $-1 #
coedge $-1 $204 $204 $127 $205 forward $199 $-1 #
edge $-1 $319 2.9646350664483967e-016 $319 6.2831853071796004 $204 $320 forward 7 unknown #
loop $-1 $-1 $211 $128 #
plane-surface $-1 18.501941380693289 -22.733237015724001 0.30076756571477148 0 -0.82903758062907751 0.55919289150049634 1 0 0 forward_v I I I I #
loop $-1 $-1 $321 $82 #
coedge $-1 $209 $209 $210 $322 reversed $129 $-1 #
coedge $-1 $210 $210 $209 $322 forward $131 $-1 #
coedge $-1 $211 $211 $132 $212 forward $206 $-1 #
edge $-1 $323 2.9646350664483967e-016 $323 6.2831853071796004 $211 $324 forward 7 unknown #
loop $-1 $-1 $218 $133 #
plane-surface $-1 18.501941380693289 -22.733237015724001 0.30076756571477148 0 -0.82903758062907751 0.55919289150049634 1 0 0 forward_v I I I I #
loop $-1 $-1 $325 $85 #
coedge $-1 $216 $216 $217 $326 reversed $134 $-1 #
coedge $-1 $217 $217 $216 $326 forward $136 $-1 #
coedge $-1 $218 $218 $137 $219 forward $213 $-1 #
edge $-1 $327 2.9646350664483967e-016 $327 6.2831853071796004 $218 $328 forward 7 unknown #
face $-1 $329 $330 $33 $-1 $331 reversed single #
loop $-1 $-1 $332 $138 #
plane-surface $-1 -46.66035950804163 0 0 1 0 0 0 0 -1 forward_v I I I I #
coedge $-1 $333 $231 $334 $335 forward $139 $-1 #
coedge $-1 $336 $141 $333 $337 forward $89 $-1 #
coedge $-1 $141 $336 $338 $339 forward $89 $-1 #
coedge $-1 $234 $233 $141 $227 reversed $235 $-1 #
edge $-1 $340 -22.733237015724018 $341 22.733237015724018 $226 $342 forward 7 unknown #
coedge $-1 $143 $142 $343 $344 forward $56 $-1 #
coedge $-1 $345 $346 $142 $230 reversed $330 $-1 #
edge $-1 $237 -46.66035950804163 $347 46.66035950804163 $229 $348 forward 7 unknown #
coedge $-1 $223 $349 $143 $232 reversed $139 $-1 #
edge $-1 $350 -46.66035950804163 $236 46.66035950804163 $231 $351 forward 7 unknown #
coedge $-1 $226 $144 $349 $352 forward $235 $-1 #
coedge $-1 $144 $226 $345 $353 reversed $235 $-1 #
loop $-1 $-1 $233 $329 #
vertex $-1 $145 $354 #
vertex $-1 $145 $355 #
straight-curve $-1 46.66035950804163 0 10.809232033102871 0 1 0 I I #
face $-1 $356 $357 $34 $-1 $358 forward single #
loop $-1 $-1 $359 $146 #
plane-surface $-1 -46.66035950804163 0 0 1 0 0 0 0 -1 forward_v I I I I #
coedge $-1 $249 $360 $251 $361 forward $147 $-1 #
coedge $-1 $149 $251 $362 $363 reversed $93 $-1 #
coedge $-1 $364 $247 $149 $245 forward $365 $-1 #
edge $-1 $253 2.0972720735879529 $366 6.5070639975392632 $244 $367 forward 7 unknown #
coedge $-1 $151 $150 $359 $368 reversed $59 $-1 #
coedge $-1 $244 $369 $150 $248 forward $365 $-1 #
edge $-1 $370 -25.665628028483443 $253 -16.32383493063293 $247 $371 forward 7 unknown #
coedge $-1 $372 $242 $151 $250 forward $147 $-1 #
edge $-1 $252 16.32383493063293 $373 25.665628028483443 $249 $374 forward 7 unknown #
coedge $-1 $243 $152 $242 $361 reversed $93 $-1 #
vertex $-1 $250 $375 #
vertex $-1 $248 $376 #
straight-curve $-1 -37.318566410191117 0 6.3994401091515609 0 -1 0 I I #
face $-1 $377 $378 $35 $-1 $379 reversed single #
loop $-1 $-1 $380 $154 #
plane-surface $-1 0 -22.733237015724018 0 0 1 0 0 0 1 forward_v I I I I #
coedge $-1 $381 $382 $260 $383 forward $155 $-1 #
coedge $-1 $384 $157 $263 $385 reversed $97 $-1 #
coedge $-1 $157 $384 $258 $383 reversed $97 $-1 #
coedge $-1 $386 $266 $157 $262 forward $378 $-1 #
edge $-1 $387 2.0972720735879529 $388 6.5070639975392632 $261 $389 forward 7 unknown #
coedge $-1 $159 $158 $259 $385 forward $62 $-1 #
coedge $-1 $390 $380 $158 $265 forward $256 $-1 #
edge $-1 $391 16.32383493063293 $271 25.665628028483443 $264 $392 forward 7 unknown #
coedge $-1 $261 $393 $159 $267 forward $378 $-1 #
edge $-1 $272 -25.665628028483443 $387 -16.32383493063293 $266 $394 forward 7 unknown #
coedge $-1 $395 $160 $393 $396 reversed $270 $-1 #
coedge $-1 $160 $395 $390 $397 forward $270 $-1 #
loop $-1 $-1 $160 $377 #
vertex $-1 $265 $398 #
vertex $-1 $161 $399 #
straight-curve $-1 46.66035950804163 0 6.3994401091515609 0 1 0 I I #
face $-1 $-1 $400 $36 $-1 $401 reversed single #
loop $-1 $-1 $168 $162 #
plane-surface $-1 0 0 10.809232033102871 0 0 1 1 0 0 forward_v I I I I #
coedge $-1 $402 $403 $404 $405 reversed $163 $-1 #
coedge $-1 $406 $165 $167 $284 forward $101 $-1 #
coedge $-1 $165 $406 $402 $407 forward $101 $-1 #
coedge $-1 $404 $168 $165 $281 forward $275 $-1 #
edge $-1 $287 0.51122598016492837 $408 17.990715400528376 $280 $409 forward 7 unknown #
coedge $-1 $410 $411 $166 $283 forward $400 $-1 #
edge $-1 $412 -25.941757568897113 $286 -15.433293101508989 $282 $413 forward 7 unknown #
edge $-1 $287 -12.675498328331786 $412 3.1747134837575384e-014 $167 $414 forward 7 unknown #
coedge $-1 $168 $404 $410 $415 forward $275 $-1 #
vertex $-1 $283 $416 #
vertex $-1 $169 $417 #
straight-curve $-1 -9.7621966705115799 -50.049810065691808 10.809232033102873 0 1 0 I I #
coedge $-1 $289 $289 $-1 $418 reversed $172 $-1 #
edge $-1 $419 0 $419 6.2831853071796004 $173 $420 forward 7 unknown #
vertex $-1 $176 $421 #
ellipse-curve $-1 -23.745788206802334 -19.189212735009228 5.5549997994088134 0 -0.82903758062907751 0.55919289150049634 1.5 0 0 1 I I #
coedge $-1 $293 $293 $-1 $422 reversed $179 $-1 #
edge $-1 $423 0 $423 6.2831853071796004 $180 $424 forward 7 unknown #
vertex $-1 $183 $425 #
ellipse-curve $-1 -18.5019413806933 -19.189212735009228 5.5549997994088134 0 -0.82903758062907751 0.55919289150049634 1.5 0 0 1 I I #
coedge $-1 $297 $297 $-1 $426 reversed $186 $-1 #
edge $-1 $427 0 $427 6.2831853071796004 $187 $428 forward 7 unknown #
vertex $-1 $190 $429 #
ellipse-curve $-1 -13.258094554584268 -19.189212735009228 5.5549997994088134 0 -0.82903758062907751 0.55919289150049634 1.5 0 0 1 I I #
face $-1 $-1 $313 $40 $-1 $430 forward single #
loop $-1 $-1 $431 $191 #
plane-surface $-1 0 -22.733237015724018 0 0 1 0 0 0 1 forward_v I I I I #
coedge $-1 $432 $433 $434 $435 reversed $192 $-1 #
coedge $-1 $436 $194 $196 $311 forward $120 $-1 #
coedge $-1 $194 $436 $432 $437 forward $120 $-1 #
coedge $-1 $434 $197 $194 $308 forward $313 $-1 #
edge $-1 $315 -17.990715400528369 $438 -0.51122598016492127 $307 $439 forward 7 unknown #
coedge $-1 $440 $441 $195 $310 forward $302 $-1 #
edge $-1 $442 -25.941757568897113 $314 -15.433293101508989 $309 $443 forward 7 unknown #
edge $-1 $315 -12.675498328331786 $442 3.1747134837575384e-014 $196 $444 forward 7 unknown #
coedge $-1 $197 $434 $440 $445 forward $313 $-1 #
loop $-1 $-1 $434 $301 #
vertex $-1 $310 $446 #
vertex $-1 $198 $447 #
straight-curve $-1 27.241686090875014 -50.049810065691808 10.809232033102873 0 1 0 I I #
coedge $-1 $317 $317 $-1 $448 reversed $201 $-1 #
edge $-1 $449 0 $449 6.2831853071796004 $202 $450 forward 7 unknown #
vertex $-1 $205 $451 #
ellipse-curve $-1 13.258094554584254 -19.189212735009228 5.5549997994088134 0 -0.82903758062907751 0.55919289150049634 1.5 0 0 1 I I #
coedge $-1 $321 $321 $-1 $452 reversed $208 $-1 #
edge $-1 $453 0 $453 6.2831853071796004 $209 $454 forward 7 unknown #
vertex $-1 $212 $455 #
ellipse-curve $-1 18.501941380693289 -19.189212735009228 5.5549997994088134 0 -0.82903758062907751 0.55919289150049634 1.5 0 0 1 I I #
coedge $-1 $325 $325 $-1 $456 reversed $215 $-1 #
edge $-1 $457 0 $457 6.2831853071796004 $216 $458 forward 7 unknown #
vertex $-1 $219 $459 #
ellipse-curve $-1 23.745788206802324 -19.189212735009228 5.5549997994088134 0 -0.82903758062907751 0.55919289150049634 1.5 0 0 1 I I #
face $-1 $-1 $235 $33 $-1 $460 reversed single #
loop $-1 $-1 $345 $220 #
plane-surface $-1 0 22.733237015724018 0 0 -1 0 0 0 -1 forward_v I I I I #
coedge $-1 $461 $343 $346 $462 forward $221 $-1 #
coedge $-1 $349 $223 $224 $337 reversed $139 $-1 #
coedge $-1 $343 $461 $223 $335 reversed $221 $-1 #
edge $-1 $350 -10.809232033102871 $463 10.809232033102871 $334 $464 forward 7 unknown #
coedge $-1 $225 $224 $461 $465 forward $89 $-1 #
edge $-1 $341 -46.66035950804163 $463 46.66035950804163 $333 $466 forward 7 unknown #
coedge $-1 $346 $345 $225 $339 reversed $330 $-1 #
edge $-1 $467 -46.66035950804163 $340 46.66035950804163 $338 $468 forward 7 unknown #
vertex $-1 $227 $469 #
vertex $-1 $352 $470 #
straight-curve $-1 46.66035950804163 0 -10.809232033102871 0 -1 0 I I #
coedge $-1 $332 $334 $228 $344 reversed $221 $-1 #
edge $-1 $347 -22.733237015724018 $350 22.733237015724018 $343 $471 forward 7 unknown #
coedge $-1 $338 $229 $234 $353 forward $330 $-1 #
coedge $-1 $229 $338 $332 $462 reversed $330 $-1 #
vertex $-1 $230 $472 #
straight-curve $-1 0 22.733237015724018 10.809232033102871 -1 0 0 I I #
coedge $-1 $231 $333 $233 $352 reversed $139 $-1 #
vertex $-1 $344 $473 #
straight-curve $-1 0 -22.733237015724018 10.809232033102871 1 0 0 I I #
edge $-1 $236 -10.809232033102871 $341 10.809232033102871 $233 $474 forward 7 unknown #
edge $-1 $237 -10.809232033102871 $340 10.809232033102871 $234 $475 forward 7 unknown #
point $-1 46.66035950804163 -22.733237015724018 10.809232033102871 #
point $-1 46.66035950804163 22.733237015724018 10.809232033102871 #
face $-1 $-1 $365 $34 $-1 $476 reversed single #
loop $-1 $-1 $362 $239 #
plane-surface $-1 0 0 10.809232033102871 0 0 1 1 0 0 forward_v I I I I #
coedge $-1 $477 $478 $246 $368 forward $240 $-1 #
coedge $-1 $242 $372 $479 $480 reversed $147 $-1 #
edge $-1 $481 -6.5070639975392632 $252 -2.0972720735879529 $242 $482 forward 7 unknown #
coedge $-1 $479 $483 $243 $363 forward $357 $-1 #
edge $-1 $366 -22.733237015724018 $481 22.733237015724018 $362 $484 forward 7 unknown #
coedge $-1 $369 $244 $483 $485 reversed $365 $-1 #
loop $-1 $-1 $244 $356 #
vertex $-1 $245 $486 #
straight-curve $-1 -37.318566410191117 -22.733237015724018 4.3021680355636081 0 0 1 I I #
edge $-1 $373 -22.733237015724018 $370 22.733237015724018 $359 $487 forward 7 unknown #
coedge $-1 $247 $364 $477 $488 forward $365 $-1 #
vertex $-1 $368 $489 #
straight-curve $-1 -20.994731479558187 -22.733237015724018 6.3994401091515609 1 0 0 I I #
coedge $-1 $360 $249 $478 $490 reversed $147 $-1 #
vertex $-1 $368 $491 #
straight-curve $-1 -20.994731479558187 22.733237015724018 6.3994401091515609 -1 0 0 I I #
point $-1 -37.318566410191117 22.733237015724018 6.3994401091515609 #
point $-1 -37.318566410191117 -22.733237015724018 6.3994401091515609 #
face $-1 $-1 $270 $35 $-1 $492 reversed single #
loop $-1 $-1 $261 $255 #
plane-surface $-1 0 22.733237015724018 0 0 -1 0 0 0 -1 forward_v I I I I #
coedge $-1 $264 $493 $384 $494 forward $256 $-1 #
coedge $-1 $495 $258 $493 $496 forward $155 $-1 #
coedge $-1 $258 $495 $386 $497 forward $155 $-1 #
edge $-1 $388 -22.733237015724018 $498 22.733237015724018 $258 $499 forward 7 unknown #
coedge $-1 $260 $259 $380 $494 reversed $97 $-1 #
edge $-1 $391 -22.733237015724018 $387 22.733237015724018 $259 $500 forward 7 unknown #
coedge $-1 $393 $261 $382 $497 reversed $378 $-1 #
vertex $-1 $267 $501 #
vertex $-1 $262 $502 #
straight-curve $-1 37.318566410191117 22.733237015724018 4.3021680355636081 0 0 1 I I #
coedge $-1 $493 $264 $269 $397 reversed $256 $-1 #
vertex $-1 $265 $503 #
straight-curve $-1 20.994731479558187 -22.733237015724018 6.3994401091515609 1 0 0 I I #
coedge $-1 $266 $386 $268 $396 forward $378 $-1 #
straight-curve $-1 20.994731479558187 22.733237015724018 6.3994401091515609 -1 0 0 I I #
coedge $-1 $269 $268 $495 $504 reversed $270 $-1 #
edge $-1 $505 -10.809232033102871 $272 -6.3994401091515609 $268 $506 forward 7 unknown #
edge $-1 $507 -10.809232033102871 $271 -6.3994401091515609 $269 $508 forward 7 unknown #
point $-1 46.66035950804163 -22.733237015724018 6.3994401091515609 #
point $-1 46.66035950804163 22.733237015724018 6.3994401091515609 #
loop $-1 $-1 $282 $274 #
plane-surface $-1 0 -22.733237015724018 0 0 1 0 0 0 1 forward_v I I I I #
coedge $-1 $403 $277 $279 $407 reversed $163 $-1 #
coedge $-1 $277 $402 $509 $510 reversed $163 $-1 #
coedge $-1 $285 $280 $277 $405 forward $275 $-1 #
edge $-1 $408 -34.404621611397367 $511 -27.31657304996779 $404 $512 forward 7 unknown #
coedge $-1 $279 $278 $411 $513 reversed $101 $-1 #
edge $-1 $514 -3.1747134837575384e-014 $408 12.675498328331786 $402 $515 forward 7 unknown #
vertex $-1 $281 $516 #
straight-curve $-1 -9.2509706903466515 -15.645188454294441 10.809232033102871 -1 0 0 I I #
coedge $-1 $509 $282 $285 $415 reversed $400 $-1 #
coedge $-1 $282 $509 $406 $513 forward $400 $-1 #
vertex $-1 $283 $517 #
straight-curve $-1 -9.7621966705115799 -22.733237015724015 26.24252513461186 0 0 1 I I #
straight-curve $-1 -9.7621966705115799 -22.733237015724001 0.30076756571477148 0 -0.55919289150049634 -0.82903758062907751 I I #
edge $-1 $511 -27.241686090875028 $286 -9.7621966705115799 $410 $518 forward 7 unknown #
point $-1 -9.7621966705115799 -22.733237015724018 10.809232033102871 #
point $-1 -9.7621966705115799 -15.645188454294441 10.809232033102871 #
edge $-1 $519 1 $519 0 $289 $-1 forward 7 unknown #
vertex $-1 $290 $520 #
ellipse-curve $-1 -23.745788206802334 -16.304330459021841 3.6091221947725902 0 -0.82903758062907751 0.55919289150049634 1.5 0 0 1 I I #
point $-1 -22.245788206802334 -19.189212735009235 5.5549997994088187 #
edge $-1 $521 1 $521 0 $293 $-1 forward 7 unknown #
vertex $-1 $294 $522 #
ellipse-curve $-1 -18.5019413806933 -16.304330459021841 3.6091221947725902 0 -0.82903758062907751 0.55919289150049634 1.5 0 0 1 I I #
point $-1 -17.0019413806933 -19.189212735009235 5.5549997994088187 #
edge $-1 $523 1 $523 0 $297 $-1 forward 7 unknown #
vertex $-1 $298 $524 #
ellipse-curve $-1 -13.258094554584268 -16.304330459021841 3.6091221947725902 0 -0.82903758062907751 0.55919289150049634 1.5 0 0 1 I I #
point $-1 -11.758094554584268 -19.189212735009235 5.5549997994088187 #
plane-surface $-1 0 0 10.809232033102871 0 0 1 1 0 0 forward_v I I I I #
coedge $-1 $441 $440 $433 $525 forward $302 $-1 #
coedge $-1 $433 $304 $306 $437 reversed $192 $-1 #
coedge $-1 $304 $432 $431 $525 reversed $192 $-1 #
coedge $-1 $312 $307 $304 $435 forward $313 $-1 #
edge $-1 $438 -34.404621611397367 $526 -27.31657304996779 $434 $527 forward 7 unknown #
coedge $-1 $306 $305 $441 $528 reversed $120 $-1 #
edge $-1 $529 -3.1747134837575384e-014 $438 12.675498328331786 $432 $530 forward 7 unknown #
vertex $-1 $308 $531 #
straight-curve $-1 9.2509706903466444 -15.645188454294441 10.809232033102871 -1 0 0 I I #
coedge $-1 $431 $309 $312 $445 reversed $302 $-1 #
coedge $-1 $309 $431 $436 $528 forward $302 $-1 #
vertex $-1 $310 $532 #
straight-curve $-1 27.241686090875014 -22.733237015724015 26.24252513461186 0 0 1 I I #
straight-curve $-1 27.241686090875014 -22.733237015724001 0.30076756571477148 0 -0.55919289150049634 -0.82903758062907751 I I #
edge $-1 $526 9.7621966705115657 $314 27.241686090875014 $440 $533 forward 7 unknown #
point $-1 27.241686090875014 -22.733237015724018 10.809232033102871 #
point $-1 27.241686090875014 -15.645188454294441 10.809232033102871 #
edge $-1 $534 1 $534 0 $317 $-1 forward 7 unknown #
vertex $-1 $318 $535 #
ellipse-curve $-1 13.258094554584254 -16.304330459021841 3.6091221947725902 0 -0.82903758062907751 0.55919289150049634 1.5 0 0 1 I I #
point $-1 14.758094554584254 -19.189212735009235 5.5549997994088187 #
edge $-1 $536 1 $536 0 $321 $-1 forward 7 unknown #
vertex $-1 $322 $537 #
ellipse-curve $-1 18.501941380693289 -16.304330459021841 3.6091221947725902 0 -0.82903758062907751 0.55919289150049634 1.5 0 0 1 I I #
point $-1 20.001941380693289 -19.189212735009235 5.5549997994088187 #
edge $-1 $538 1 $538 0 $325 $-1 forward 7 unknown #
vertex $-1 $326 $539 #
ellipse-curve $-1 23.745788206802324 -16.304330459021841 3.6091221947725902 0 -0.82903758062907751 0.55919289150049634 1.5 0 0 1 I I #
point $-1 25.245788206802324 -19.189212735009235 5.5549997994088187 #
plane-surface $-1 46.66035950804163 0 0 -1 0 0 0 0 1 forward_v I I I I #
coedge $-1 $334 $332 $336 $465 reversed $221 $-1 #
edge $-1 $347 -10.809232033102871 $467 10.809232033102871 $346 $540 forward 7 unknown #
vertex $-1 $465 $541 #
straight-curve $-1 -46.66035950804163 -22.733237015724018 0 0 0 -1 I I #
edge $-1 $463 -22.733237015724018 $467 22.733237015724018 $461 $542 forward 7 unknown #
straight-curve $-1 0 -22.733237015724018 -10.809232033102871 -1 0 0 I I #
vertex $-1 $339 $543 #
straight-curve $-1 0 22.733237015724018 -10.809232033102871 1 0 0 I I #
point $-1 46.66035950804163 22.733237015724018 -10.809232033102871 #
point $-1 46.66035950804163 -22.733237015724018 -10.809232033102871 #
straight-curve $-1 -46.66035950804163 0 10.809232033102871 0 -1 0 I I #
point $-1 -46.66035950804163 22.733237015724018 10.809232033102871 #
point $-1 -46.66035950804163 -22.733237015724018 10.809232033102871 #
straight-curve $-1 46.66035950804163 -22.733237015724018 0 0 0 -1 I I #
straight-curve $-1 46.66035950804163 22.733237015724018 0 0 0 -1 I I #
plane-surface $-1 0 -22.733237015724018 0 0 1 0 0 0 1 forward_v I I I I #
coedge $-1 $544 $359 $369 $488 reversed $240 $-1 #
coedge $-1 $359 $544 $372 $490 forward $240 $-1 #
coedge $-1 $545 $362 $360 $480 forward $357 $-1 #
edge $-1 $481 37.318566410191117 $546 46.66035950804163 $360 $547 forward 7 unknown #
vertex $-1 $480 $548 #
straight-curve $-1 -37.318566410191117 22.733237015724018 4.3021680355636081 0 0 -1 I I #
coedge $-1 $362 $545 $364 $485 forward $357 $-1 #
straight-curve $-1 -37.318566410191117 0 10.809232033102871 0 1 0 I I #
edge $-1 $549 -46.66035950804163 $366 -37.318566410191117 $364 $550 forward 7 unknown #
point $-1 -37.318566410191117 -22.733237015724018 10.809232033102871 #
straight-curve $-1 -46.66035950804163 0 6.3994401091515609 0 -1 0 I I #
edge $-1 $549 -10.809232033102871 $370 -6.3994401091515609 $477 $551 forward 7 unknown #
point $-1 -46.66035950804163 -22.733237015724018 6.3994401091515609 #
edge $-1 $546 -10.809232033102871 $373 -6.3994401091515609 $372 $552 forward 7 unknown #
point $-1 -46.66035950804163 22.733237015724018 6.3994401091515609 #
plane-surface $-1 46.66035950804163 0 0 -1 0 0 0 0 1 forward_v I I I I #
coedge $-1 $380 $390 $381 $496 reversed $256 $-1 #
edge $-1 $498 -6.5070639975392632 $391 -2.0972720735879529 $380 $553 forward 7 unknown #
coedge $-1 $382 $381 $395 $504 forward $155 $-1 #
edge $-1 $498 37.318566410191117 $507 46.66035950804163 $493 $554 forward 7 unknown #
edge $-1 $505 -46.66035950804163 $388 -37.318566410191117 $386 $555 forward 7 unknown #
vertex $-1 $496 $556 #
straight-curve $-1 37.318566410191117 0 10.809232033102871 0 -1 0 I I #
straight-curve $-1 37.318566410191117 0 6.3994401091515609 0 1 0 I I #
point $-1 37.318566410191117 22.733237015724018 6.3994401091515609 #
point $-1 37.318566410191117 22.733237015724018 10.809232033102871 #
point $-1 37.318566410191117 -22.733237015724018 6.3994401091515609 #
edge $-1 $507 -22.733237015724018 $505 22.733237015724018 $395 $557 forward 7 unknown #
vertex $-1 $504 $558 #
straight-curve $-1 46.66035950804163 22.733237015724018 0 0 0 -1 I I #
vertex $-1 $504 $559 #
straight-curve $-1 46.66035950804163 -22.733237015724018 0 0 0 -1 I I #
coedge $-1 $411 $410 $403 $510 forward $400 $-1 #
edge $-1 $511 15.433293101508989 $514 25.941757568897113 $509 $560 forward 7 unknown #
vertex $-1 $415 $561 #
straight-curve $-1 -27.241686090875028 -50.049810065691808 10.809232033102873 0 -1 0 I I #
edge $-1 $514 -17.990715400528376 $412 -0.51122598016492837 $411 $562 forward 7 unknown #
vertex $-1 $513 $563 #
straight-curve $-1 -27.241686090875028 -22.733237015724001 0.30076756571477148 0 0.55919289150049634 0.82903758062907751 I I #
point $-1 -27.241686090875028 -15.645188454294441 10.809232033102871 #
point $-1 -9.7621966705115799 -22.733237015724018 0.30076756571474517 #
straight-curve $-1 0 -22.733237015724018 10.809232033102871 1 0 0 I I #
vertex $-1 $418 $564 #
point $-1 -22.245788206802334 -16.304330459021841 3.6091221947725902 #
vertex $-1 $422 $565 #
point $-1 -17.0019413806933 -16.304330459021841 3.6091221947725902 #
vertex $-1 $426 $566 #
point $-1 -11.758094554584268 -16.304330459021841 3.6091221947725902 #
edge $-1 $526 15.433293101508989 $529 25.941757568897113 $431 $567 forward 7 unknown #
vertex $-1 $445 $568 #
straight-curve $-1 9.7621966705115657 -50.049810065691808 10.809232033102873 0 -1 0 I I #
edge $-1 $529 0.51122598016492127 $442 17.990715400528369 $441 $569 forward 7 unknown #
vertex $-1 $528 $570 #
straight-curve $-1 9.7621966705115657 -22.733237015724001 0.30076756571477148 0 0.55919289150049634 0.82903758062907751 I I #
point $-1 9.7621966705115657 -15.645188454294441 10.809232033102871 #
point $-1 27.241686090875014 -22.733237015724018 0.30076756571474517 #
straight-curve $-1 0 -22.733237015724018 10.809232033102871 1 0 0 I I #
vertex $-1 $448 $571 #
point $-1 14.758094554584254 -16.304330459021841 3.6091221947725902 #
vertex $-1 $452 $572 #
point $-1 20.001941380693289 -16.304330459021841 3.6091221947725902 #
vertex $-1 $456 $573 #
point $-1 25.245788206802324 -16.304330459021841 3.6091221947725902 #
straight-curve $-1 -46.66035950804163 22.733237015724018 0 0 0 -1 I I #
point $-1 -46.66035950804163 -22.733237015724018 -10.809232033102871 #
straight-curve $-1 -46.66035950804163 0 -10.809232033102871 0 1 0 I I #
point $-1 -46.66035950804163 22.733237015724018 -10.809232033102871 #
coedge $-1 $478 $477 $545 $574 reversed $240 $-1 #
coedge $-1 $483 $479 $544 $574 forward $357 $-1 #
vertex $-1 $480 $575 #
straight-curve $-1 0 22.733237015724018 10.809232033102871 -1 0 0 I I #
point $-1 -37.318566410191117 22.733237015724018 10.809232033102871 #
vertex $-1 $574 $576 #
straight-curve $-1 0 -22.733237015724018 10.809232033102871 1 0 0 I I #
straight-curve $-1 -46.66035950804163 -22.733237015724018 0 0 0 -1 I I #
straight-curve $-1 -46.66035950804163 22.733237015724018 0 0 0 -1 I I #
straight-curve $-1 37.318566410191117 -22.733237015724018 4.3021680355636081 0 0 -1 I I #
straight-curve $-1 0 -22.733237015724018 10.809232033102871 1 0 0 I I #
straight-curve $-1 0 22.733237015724018 10.809232033102871 -1 0 0 I I #
point $-1 37.318566410191117 -22.733237015724018 10.809232033102871 #
straight-curve $-1 46.66035950804163 0 10.809232033102871 0 1 0 I I #
point $-1 46.66035950804163 22.733237015724018 10.809232033102871 #
point $-1 46.66035950804163 -22.733237015724018 10.809232033102871 #
straight-curve $-1 -27.241686090875028 -22.733237015724015 26.24252513461186 0 0 -1 I I #
point $-1 -27.241686090875028 -22.733237015724018 10.809232033102871 #
straight-curve $-1 -9.2509706903466515 -22.733237015724018 0.30076756571474139 1 0 0 I I #
point $-1 -27.241686090875028 -22.733237015724018 0.30076756571474517 #
point $-1 -23.745788206802334 -15.060774088078226 2.7703328575218453 #
point $-1 -18.5019413806933 -15.060774088078226 2.7703328575218453 #
point $-1 -13.258094554584268 -15.060774088078226 2.7703328575218453 #
straight-curve $-1 9.7621966705115657 -22.733237015724015 26.24252513461186 0 0 -1 I I #
point $-1 9.7621966705115657 -22.733237015724018 10.809232033102871 #
straight-curve $-1 9.2509706903466444 -22.733237015724018 0.30076756571474139 1 0 0 I I #
point $-1 9.7621966705115657 -22.733237015724018 0.30076756571474517 #
point $-1 13.258094554584254 -15.060774088078226 2.7703328575218453 #
point $-1 18.501941380693289 -15.060774088078226 2.7703328575218453 #
point $-1 23.745788206802324 -15.060774088078226 2.7703328575218453 #
edge $-1 $546 -22.733237015724018 $549 22.733237015724018 $544 $577 forward 7 unknown #
point $-1 -46.66035950804163 22.733237015724018 10.809232033102871 #
point $-1 -46.66035950804163 -22.733237015724018 10.809232033102871 #
straight-curve $-1 -46.66035950804163 0 10.809232033102871 0 -1 0 I I #
End-of-ACIS-data 