500 0 4 0           
7 Unknown 11 ACIS 5.0 NT 24 Thu Mar 25 15:30:25 1999 
-1 9.9999999999999995e-007 1e-010 
body $-1 $4 $-1 $5 #
body $-1 $6 $-1 $7 #
body $-1 $8 $-1 $9 #
body $-1 $10 $-1 $11 #
lump $-1 $-1 $12 $0 #
transform $-1 1 0 0 0 1 0 0 0 1 45.168614764854887 27.163751796329365 8.8727572092688742 1 rotate no_reflect no_shear #
lump $-1 $-1 $13 $1 #
transform $-1 1 0 0 0 1 0 0 0 1 45.168614764854887 27.163751796329365 8.8727572092688742 1 rotate no_reflect no_shear #
lump $-1 $-1 $14 $2 #
transform $-1 1 0 0 0 1 0 0 0 1 45.168614764854887 27.163751796329365 8.8727572092688742 1 rotate no_reflect no_shear #
lump $-1 $-1 $15 $3 #
transform $-1 1 0 0 0 1 0 0 0 1 45.168614764854887 27.163751796329365 8.8727572092688742 1 rotate no_reflect no_shear #
shell $-1 $-1 $-1 $16 $-1 $4 #
shell $-1 $-1 $-1 $17 $-1 $6 #
shell $-1 $-1 $-1 $18 $-1 $8 #
shell $-1 $-1 $-1 $19 $-1 $10 #
face $-1 $20 $21 $12 $-1 $22 forward single #
face $-1 $23 $24 $13 $-1 $25 forward single #
face $-1 $26 $27 $14 $-1 $28 reversed single #
face $-1 $29 $30 $15 $-1 $31 forward single #
face $-1 $32 $33 $12 $-1 $34 reversed single #
loop $-1 $-1 $35 $16 #
plane-surface $-1 0 0 8.8727572092688742 0 0 1 1 0 0 forward_v I I I I #
face $-1 $36 $37 $13 $-1 $38 reversed single #
loop $-1 $-1 $39 $17 #
plane-surface $-1 0 -22.328831586171869 -1.280843725374738 0 0 1 1 0 0 forward_v I I I I #
face $-1 $40 $41 $14 $-1 $42 reversed single #
loop $-1 $-1 $43 $18 #
plane-surface $-1 51.85485584477842 17.344436519834314 131.01666739411249 0 1 0 0.74314483375859142 0 0.66913059716165679 forward_v I I I I #
face $-1 $44 $45 $15 $-1 $46 forward single #
loop $-1 $47 $48 $19 #
cone-surface $-1 41.451762510147539 22.254094158081834 5.0115377253368925 -0.74314483375859142 0 -0.66913059716165679 0.66913059716165679 0 -0.74314483375859142 1 I I 0 1 1 forward I I I I #
face $-1 $49 $50 $12 $-1 $51 reversed single #
loop $-1 $-1 $52 $20 #
plane-surface $-1 0 0 -8.8727572092688742 0 0 1 1 0 0 forward_v I I I I #
coedge $-1 $53 $54 $55 $56 forward $21 $-1 #
face $-1 $57 $58 $13 $-1 $59 reversed single #
loop $-1 $-1 $60 $23 #
plane-surface $-1 0 -22.328831586171869 -4.280843725374738 0 0 1 1 0 0 forward_v I I I I #
coedge $-1 $61 $62 $63 $64 reversed $24 $-1 #
face $-1 $65 $66 $14 $-1 $67 forward single #
loop $-1 $-1 $68 $26 #
plane-surface $-1 -15.278789576289476 22.254094158081841 70.569263052968125 0.74314483375859142 0 0.66913059716165679 0.66913059716165679 0 -0.74314483375859142 forward_v I I I I #
coedge $-1 $69 $70 $71 $72 reversed $27 $-1 #
face $-1 $-1 $73 $15 $-1 $74 forward single #
loop $-1 $75 $76 $29 #
cone-surface $-1 39.811149010075944 22.254094158081834 3.5343227315083912 -0.74314483375859142 0 -0.66913059716165679 0.3345652985808284 0 -0.37157241687929571 1 I I -0.70710678118654724 0.70710678118654791 0.5 forward I I I I #
loop $-1 $-1 $77 $19 #
coedge $-1 $48 $48 $78 $79 reversed $30 $-1 #
face $-1 $80 $81 $12 $-1 $82 reversed single #
loop $-1 $-1 $83 $32 #
plane-surface $-1 0 -27.163751796329365 0 0 1 0 0 0 1 forward_v I I I I #
coedge $-1 $84 $85 $86 $87 forward $33 $-1 #
coedge $-1 $88 $35 $89 $90 forward $21 $-1 #
coedge $-1 $35 $88 $91 $92 forward $21 $-1 #
coedge $-1 $93 $94 $35 $56 reversed $95 $-1 #
edge $-1 $96 -27.163751796329365 $97 27.163751796329365 $55 $98 forward 7 unknown #
face $-1 $99 $100 $13 $-1 $101 reversed single #
loop $-1 $-1 $102 $36 #
plane-surface $-1 0 -17.493911376014374 -2.780843725374738 0 -1 0 0 0 -1 forward_v I I I I #
coedge $-1 $103 $104 $105 $106 reversed $37 $-1 #
coedge $-1 $107 $39 $108 $109 forward $24 $-1 #
coedge $-1 $39 $107 $110 $111 reversed $24 $-1 #
coedge $-1 $112 $113 $39 $64 forward $114 $-1 #
edge $-1 $115 6.3294955829284394 $116 15.99933600324343 $63 $117 forward 7 unknown #
face $-1 $118 $119 $14 $-1 $120 reversed single #
loop $-1 $-1 $121 $40 #
plane-surface $-1 0 0 8.8727572092688742 0 0 1 1 0 0 forward_v I I I I #
coedge $-1 $122 $123 $124 $125 reversed $41 $-1 #
coedge $-1 $70 $43 $126 $127 reversed $27 $-1 #
coedge $-1 $43 $69 $122 $128 reversed $27 $-1 #
coedge $-1 $124 $129 $43 $72 forward $119 $-1 #
edge $-1 $130 56.635576487787368 $131 62.072716065156015 $71 $132 forward 7 unknown #
loop $-1 $-1 $78 $44 #
plane-surface $-1 -15.278789576289476 22.254094158081841 70.569263052968125 0.74314483375859142 0 0.66913059716165679 0.66913059716165679 0 -0.74314483375859142 forward_v I I I I #
loop $-1 $-1 $133 $29 #
coedge $-1 $76 $76 $77 $134 reversed $45 $-1 #
coedge $-1 $77 $77 $76 $134 forward $47 $-1 #
coedge $-1 $78 $78 $48 $79 forward $73 $-1 #
edge $-1 $135 0 $135 6.2831853071796004 $78 $136 forward 7 unknown #
face $-1 $137 $138 $12 $-1 $139 reversed single #
loop $-1 $-1 $140 $49 #
plane-surface $-1 -45.168614764854887 0 0 1 0 0 0 0 -1 forward_v I I I I #
coedge $-1 $141 $91 $142 $143 forward $50 $-1 #
coedge $-1 $144 $52 $141 $145 forward $33 $-1 #
coedge $-1 $52 $144 $146 $147 forward $33 $-1 #
coedge $-1 $94 $93 $52 $87 reversed $95 $-1 #
edge $-1 $148 -27.163751796329365 $149 27.163751796329365 $86 $150 forward 7 unknown #
coedge $-1 $54 $53 $151 $152 forward $21 $-1 #
coedge $-1 $153 $154 $53 $90 reversed $138 $-1 #
edge $-1 $97 -45.168614764854887 $155 45.168614764854887 $89 $156 forward 7 unknown #
coedge $-1 $83 $157 $54 $92 reversed $50 $-1 #
edge $-1 $158 -45.168614764854887 $96 45.168614764854887 $91 $159 forward 7 unknown #
coedge $-1 $86 $55 $157 $160 forward $95 $-1 #
coedge $-1 $55 $86 $153 $161 reversed $95 $-1 #
loop $-1 $-1 $93 $137 #
vertex $-1 $56 $162 #
vertex $-1 $56 $163 #
straight-curve $-1 45.168614764854887 0 8.8727572092688742 0 1 0 I I #
face $-1 $164 $165 $13 $-1 $166 reversed single #
loop $-1 $-1 $167 $57 #
plane-surface $-1 -45.168614764854887 0 0 1 0 0 0 0 -1 forward_v I I I I #
coedge $-1 $168 $108 $113 $169 reversed $58 $-1 #
coedge $-1 $170 $60 $171 $172 reversed $37 $-1 #
coedge $-1 $60 $170 $168 $173 forward $37 $-1 #
coedge $-1 $113 $112 $60 $106 forward $114 $-1 #
edge $-1 $174 -15.99933600324343 $175 -6.3294955829284394 $105 $176 forward 7 unknown #
coedge $-1 $62 $61 $167 $177 reversed $24 $-1 #
coedge $-1 $102 $178 $61 $109 reversed $58 $-1 #
edge $-1 $115 -45.168614764854887 $179 45.168614764854887 $108 $180 forward 7 unknown #
coedge $-1 $181 $182 $62 $111 forward $165 $-1 #
edge $-1 $116 -45.168614764854887 $183 45.168614764854887 $110 $184 forward 7 unknown #
coedge $-1 $105 $63 $182 $185 forward $114 $-1 #
coedge $-1 $63 $105 $102 $169 forward $114 $-1 #
loop $-1 $-1 $63 $164 #
vertex $-1 $64 $186 #
vertex $-1 $185 $187 #
straight-curve $-1 45.168614764854887 -11.164415793085935 -1.280843725374738 0 -1 0 I I #
face $-1 $-1 $188 $14 $-1 $189 reversed single #
loop $-1 $-1 $71 $65 #
plane-surface $-1 45.168614764854887 0 0 -1 0 0 0 0 1 forward_v I I I I #
coedge $-1 $126 $190 $191 $192 forward $66 $-1 #
coedge $-1 $191 $68 $70 $128 forward $41 $-1 #
coedge $-1 $68 $191 $193 $194 reversed $41 $-1 #
coedge $-1 $195 $71 $68 $125 forward $119 $-1 #
edge $-1 $131 6.2173894407933936 $196 16.036704717288448 $124 $197 forward 7 unknown #
coedge $-1 $198 $121 $69 $127 forward $66 $-1 #
edge $-1 $199 14.345564499435557 $130 19.241186842465677 $126 $200 forward 7 unknown #
edge $-1 $131 -90.337229529709774 $199 -83.020836640494196 $70 $201 forward 7 unknown #
coedge $-1 $71 $195 $198 $202 reversed $119 $-1 #
vertex $-1 $202 $203 #
vertex $-1 $72 $204 #
straight-curve $-1 45.168614764854887 17.344436519834314 65.508333697056244 0 0 -1 I I #
coedge $-1 $133 $133 $-1 $205 reversed $75 $-1 #
edge $-1 $206 0 $206 6.2831853071796004 $76 $207 forward 7 unknown #
vertex $-1 $79 $208 #
ellipse-curve $-1 42.720803593339824 22.254094158081834 6.1541874205845568 0.74314483375859142 0 0.66913059716165679 0.66913059716165679 0 -0.74314483375859142 1 I I #
face $-1 $-1 $95 $12 $-1 $209 reversed single #
loop $-1 $-1 $153 $80 #
plane-surface $-1 0 27.163751796329365 0 0 -1 0 0 0 -1 forward_v I I I I #
coedge $-1 $210 $151 $154 $211 forward $81 $-1 #
coedge $-1 $157 $83 $84 $145 reversed $50 $-1 #
coedge $-1 $151 $210 $83 $143 reversed $81 $-1 #
edge $-1 $158 -8.8727572092688742 $212 8.8727572092688742 $142 $213 forward 7 unknown #
coedge $-1 $85 $84 $210 $214 forward $33 $-1 #
edge $-1 $149 -45.168614764854887 $212 45.168614764854887 $141 $215 forward 7 unknown #
coedge $-1 $154 $153 $85 $147 reversed $138 $-1 #
edge $-1 $216 -45.168614764854887 $148 45.168614764854887 $146 $217 forward 7 unknown #
vertex $-1 $87 $218 #
vertex $-1 $160 $219 #
straight-curve $-1 45.168614764854887 0 -8.8727572092688742 0 -1 0 I I #
coedge $-1 $140 $142 $88 $152 reversed $81 $-1 #
edge $-1 $155 -27.163751796329365 $158 27.163751796329365 $151 $220 forward 7 unknown #
coedge $-1 $146 $89 $94 $161 forward $138 $-1 #
coedge $-1 $89 $146 $140 $211 reversed $138 $-1 #
vertex $-1 $90 $221 #
straight-curve $-1 0 27.163751796329365 8.8727572092688742 -1 0 0 I I #
coedge $-1 $91 $141 $93 $160 reversed $50 $-1 #
vertex $-1 $152 $222 #
straight-curve $-1 0 -27.163751796329365 8.8727572092688742 1 0 0 I I #
edge $-1 $96 -8.8727572092688742 $149 8.8727572092688742 $93 $223 forward 7 unknown #
edge $-1 $97 -8.8727572092688742 $148 8.8727572092688742 $94 $224 forward 7 unknown #
point $-1 45.168614764854887 -27.163751796329365 8.8727572092688742 #
point $-1 45.168614764854887 27.163751796329365 8.8727572092688742 #
face $-1 $-1 $114 $13 $-1 $225 reversed single #
loop $-1 $-1 $110 $99 #
plane-surface $-1 0 -27.163751796329365 0 0 1 0 0 0 1 forward_v I I I I #
coedge $-1 $226 $227 $107 $177 forward $100 $-1 #
coedge $-1 $178 $102 $104 $173 reversed $58 $-1 #
edge $-1 $175 -2.890421862687369 $115 0.109578137312631 $113 $228 forward 7 unknown #
coedge $-1 $104 $103 $229 $230 reversed $37 $-1 #
coedge $-1 $182 $181 $103 $172 forward $165 $-1 #
edge $-1 $231 -45.168614764854887 $174 45.168614764854887 $171 $232 forward 7 unknown #
edge $-1 $233 -45.168614764854887 $175 45.168614764854887 $168 $234 forward 7 unknown #
vertex $-1 $172 $235 #
vertex $-1 $106 $236 #
straight-curve $-1 45.168614764854887 -11.164415793085935 -4.280843725374738 0 1 0 I I #
edge $-1 $183 -15.99933600324343 $179 -6.3294955829284394 $167 $237 forward 7 unknown #
coedge $-1 $108 $168 $226 $238 reversed $58 $-1 #
vertex $-1 $177 $239 #
straight-curve $-1 0 -17.493911376014374 -1.280843725374738 -1 0 0 I I #
coedge $-1 $171 $110 $227 $240 forward $165 $-1 #
coedge $-1 $110 $171 $112 $185 reversed $165 $-1 #
vertex $-1 $240 $241 #
straight-curve $-1 0 -27.163751796329365 -1.280843725374738 -1 0 0 I I #
edge $-1 $116 1.280843725374738 $174 4.280843725374738 $112 $242 forward 7 unknown #
point $-1 45.168614764854887 -17.493911376014374 -1.280843725374738 #
point $-1 45.168614764854887 -27.163751796329365 -1.280843725374738 #
loop $-1 $-1 $193 $118 #
plane-surface $-1 0 27.163751796329365 0 0 -1 0 0 0 -1 forward_v I I I I #
coedge $-1 $121 $198 $243 $244 forward $66 $-1 #
coedge $-1 $123 $122 $121 $192 reversed $41 $-1 #
edge $-1 $245 -16.036704717288448 $199 -6.2173894407933936 $121 $246 forward 7 unknown #
coedge $-1 $243 $247 $123 $194 forward $188 $-1 #
edge $-1 $196 -59.003885103182682 $245 -51.687492213967104 $193 $248 forward 7 unknown #
coedge $-1 $129 $124 $247 $249 reversed $119 $-1 #
vertex $-1 $194 $250 #
straight-curve $-1 45.168614764854887 11.127047079040921 3.4356176319002429 0 1 0 I I #
coedge $-1 $190 $126 $129 $202 forward $66 $-1 #
vertex $-1 $127 $251 #
straight-curve $-1 25.92742792238921 17.344436519834314 8.872757209268876 1 0 0 I I #
straight-curve $-1 -15.278789576289476 17.344436519834314 70.569263052968125 -0.66913059716165679 0 0.74314483375859142 I I #
edge $-1 $130 17.344436519834314 $252 27.163751796329365 $129 $253 forward 7 unknown #
point $-1 45.168614764854887 17.344436519834314 8.8727572092688742 #
point $-1 45.168614764854887 17.344436519834314 3.4356176319002287 #
edge $-1 $254 1 $254 0 $133 $-1 forward 7 unknown #
vertex $-1 $134 $255 #
ellipse-curve $-1 40.18272142695524 22.254094158081834 3.8688880300892197 0.74314483375859142 0 0.66913059716165679 0.66913059716165679 0 -0.74314483375859142 1 I I #
point $-1 43.389934190501492 22.254094158081834 5.4110425868259737 #
plane-surface $-1 45.168614764854887 0 0 -1 0 0 0 0 1 forward_v I I I I #
coedge $-1 $142 $140 $144 $214 reversed $81 $-1 #
edge $-1 $155 -8.8727572092688742 $216 8.8727572092688742 $154 $256 forward 7 unknown #
vertex $-1 $214 $257 #
straight-curve $-1 -45.168614764854887 -27.163751796329365 0 0 0 -1 I I #
edge $-1 $212 -27.163751796329365 $216 27.163751796329365 $210 $258 forward 7 unknown #
straight-curve $-1 0 -27.163751796329365 -8.8727572092688742 -1 0 0 I I #
vertex $-1 $147 $259 #
straight-curve $-1 0 27.163751796329365 -8.8727572092688742 1 0 0 I I #
point $-1 45.168614764854887 27.163751796329365 -8.8727572092688742 #
point $-1 45.168614764854887 -27.163751796329365 -8.8727572092688742 #
straight-curve $-1 -45.168614764854887 0 8.8727572092688742 0 -1 0 I I #
point $-1 -45.168614764854887 27.163751796329365 8.8727572092688742 #
point $-1 -45.168614764854887 -27.163751796329365 8.8727572092688742 #
straight-curve $-1 45.168614764854887 -27.163751796329365 0 0 0 -1 I I #
straight-curve $-1 45.168614764854887 27.163751796329365 0 0 0 -1 I I #
plane-surface $-1 45.168614764854887 0 0 -1 0 0 0 0 1 forward_v I I I I #
coedge $-1 $229 $167 $178 $238 forward $100 $-1 #
coedge $-1 $167 $229 $181 $240 reversed $100 $-1 #
straight-curve $-1 45.168614764854887 -17.493911376014374 -1.390421862687369 0 0 1 I I #
coedge $-1 $227 $226 $170 $230 forward $100 $-1 #
edge $-1 $233 6.3294955829284394 $231 15.99933600324343 $229 $260 forward 7 unknown #
vertex $-1 $172 $261 #
straight-curve $-1 0 -27.163751796329365 -4.280843725374738 1 0 0 I I #
vertex $-1 $230 $262 #
straight-curve $-1 0 -17.493911376014374 -4.280843725374738 1 0 0 I I #
point $-1 45.168614764854887 -27.163751796329365 -4.280843725374738 #
point $-1 45.168614764854887 -17.493911376014374 -4.280843725374738 #
straight-curve $-1 -45.168614764854887 -11.164415793085935 -1.280843725374738 0 1 0 I I #
edge $-1 $179 -0.109578137312631 $233 2.890421862687369 $226 $263 forward 7 unknown #
point $-1 -45.168614764854887 -17.493911376014374 -1.280843725374738 #
edge $-1 $183 1.280843725374738 $231 4.280843725374738 $227 $264 forward 7 unknown #
point $-1 -45.168614764854887 -27.163751796329365 -1.280843725374738 #
straight-curve $-1 45.168614764854887 -27.163751796329365 0 0 0 -1 I I #
coedge $-1 $247 $193 $190 $244 reversed $188 $-1 #
edge $-1 $252 -45.168614764854887 $245 -40.272992421824767 $243 $265 forward 7 unknown #
vertex $-1 $194 $266 #
straight-curve $-1 40.272992421824775 11.127047079040921 8.872757209268876 0 -1 0 I I #
coedge $-1 $193 $243 $195 $249 forward $188 $-1 #
straight-curve $-1 5.6873098909044675 27.163751796329365 47.284050018015961 -0.66913059716165679 0 0.74314483375859142 I I #
edge $-1 $252 -8.8727572092688742 $196 -3.4356176319002287 $195 $267 forward 7 unknown #
point $-1 45.168614764854887 27.163751796329368 3.4356176319002287 #
point $-1 40.272992421824767 17.344436519834314 8.8727572092688831 #
vertex $-1 $202 $268 #
straight-curve $-1 45.168614764854887 0 8.8727572092688742 0 1 0 I I #
vertex $-1 $205 $269 #
point $-1 40.851852024116894 22.254094158081834 3.1257431963306286 #
straight-curve $-1 -45.168614764854887 27.163751796329365 0 0 0 -1 I I #
point $-1 -45.168614764854887 -27.163751796329365 -8.8727572092688742 #
straight-curve $-1 -45.168614764854887 0 -8.8727572092688742 0 1 0 I I #
point $-1 -45.168614764854887 27.163751796329365 -8.8727572092688742 #
straight-curve $-1 -45.168614764854887 -11.164415793085935 -4.280843725374738 0 -1 0 I I #
point $-1 -45.168614764854887 -27.163751796329365 -4.280843725374738 #
point $-1 -45.168614764854887 -17.493911376014374 -4.280843725374738 #
straight-curve $-1 -45.168614764854887 -17.493911376014374 -1.390421862687369 0 0 -1 I I #
straight-curve $-1 -45.168614764854887 -27.163751796329365 0 0 0 -1 I I #
straight-curve $-1 0 27.163751796329365 8.8727572092688742 -1 0 0 I I #
point $-1 40.272992421824767 27.163751796329368 8.8727572092688831 #
straight-curve $-1 45.168614764854887 27.163751796329365 0 0 0 -1 I I #
point $-1 45.168614764854887 27.163751796329365 8.8727572092688742 #
point $-1 39.439576593196648 22.254094158081834 3.1997574329275627 #
End-of-ACIS-data 