500 0 19 0           
7 Unknown 11 ACIS 5.0 NT 24 Thu Mar 25 17:19:30 1999 
-1 9.9999999999999995e-007 1e-010 
body $-1 $19 $-1 $20 #
body $-1 $21 $-1 $22 #
body $-1 $23 $-1 $24 #
body $-1 $25 $-1 $26 #
body $-1 $27 $-1 $28 #
body $-1 $29 $-1 $30 #
body $-1 $31 $-1 $32 #
body $-1 $33 $-1 $34 #
body $-1 $35 $-1 $36 #
body $-1 $37 $-1 $38 #
body $-1 $39 $-1 $40 #
body $-1 $41 $-1 $42 #
body $-1 $43 $-1 $44 #
body $-1 $45 $-1 $46 #
body $-1 $47 $-1 $48 #
body $-1 $49 $-1 $50 #
body $-1 $51 $-1 $52 #
body $-1 $53 $-1 $54 #
body $-1 $55 $-1 $56 #
lump $-1 $-1 $57 $0 #
transform $-1 1 0 0 0 1 0 0 0 1 69.001129184850612 29.90631539223644 12.84893667689763 1 rotate no_reflect no_shear #
lump $-1 $-1 $58 $1 #
transform $-1 1 0 0 0 1 0 0 0 1 69.001129184850612 29.90631539223644 12.84893667689763 1 rotate no_reflect no_shear #
lump $-1 $-1 $59 $2 #
transform $-1 1 0 0 0 1 0 0 0 1 69.001129184850612 29.90631539223644 12.84893667689763 1 rotate no_reflect no_shear #
lump $-1 $-1 $60 $3 #
transform $-1 1 0 0 0 1 0 0 0 1 69.001129184850612 29.90631539223644 12.84893667689763 1 rotate no_reflect no_shear #
lump $-1 $-1 $61 $4 #
transform $-1 1 0 0 0 1 0 0 0 1 69.001129184850612 29.90631539223644 12.84893667689763 1 rotate no_reflect no_shear #
lump $-1 $-1 $62 $5 #
transform $-1 1 0 0 0 1 0 0 0 1 69.001129184850612 29.90631539223644 12.84893667689763 1 rotate no_reflect no_shear #
lump $-1 $-1 $63 $6 #
transform $-1 1 0 0 0 1 0 0 0 1 69.001129184850612 29.90631539223644 12.84893667689763 1 rotate no_reflect no_shear #
lump $-1 $-1 $64 $7 #
transform $-1 1 0 0 0 1 0 0 0 1 69.001129184850612 29.90631539223644 12.84893667689763 1 rotate no_reflect no_shear #
lump $-1 $-1 $65 $8 #
transform $-1 1 0 0 0 1 0 0 0 1 69.001129184850612 29.90631539223644 12.84893667689763 1 rotate no_reflect no_shear #
lump $-1 $-1 $66 $9 #
transform $-1 1 0 0 0 1 0 0 0 1 69.001129184850612 29.90631539223644 12.84893667689763 1 rotate no_reflect no_shear #
lump $-1 $-1 $67 $10 #
transform $-1 1 0 0 0 1 0 0 0 1 69.001129184850612 29.90631539223644 12.84893667689763 1 rotate no_reflect no_shear #
lump $-1 $-1 $68 $11 #
transform $-1 1 0 0 0 1 0 0 0 1 69.001129184850612 29.90631539223644 12.84893667689763 1 rotate no_reflect no_shear #
lump $-1 $-1 $69 $12 #
transform $-1 1 0 0 0 1 0 0 0 1 69.001129184850612 29.90631539223644 12.84893667689763 1 rotate no_reflect no_shear #
lump $-1 $-1 $70 $13 #
transform $-1 1 0 0 0 1 0 0 0 1 69.001129184850612 29.90631539223644 12.84893667689763 1 rotate no_reflect no_shear #
lump $-1 $-1 $71 $14 #
transform $-1 1 0 0 0 1 0 0 0 1 69.001129184850612 29.90631539223644 12.84893667689763 1 rotate no_reflect no_shear #
lump $-1 $-1 $72 $15 #
transform $-1 1 0 0 0 1 0 0 0 1 69.001129184850612 29.90631539223644 12.84893667689763 1 rotate no_reflect no_shear #
lump $-1 $-1 $73 $16 #
transform $-1 1 0 0 0 1 0 0 0 1 69.001129184850612 29.90631539223644 12.84893667689763 1 rotate no_reflect no_shear #
lump $-1 $-1 $74 $17 #
transform $-1 1 0 0 0 1 0 0 0 1 69.001129184850612 29.90631539223644 12.84893667689763 1 rotate no_reflect no_shear #
lump $-1 $-1 $75 $18 #
transform $-1 1 0 0 0 1 0 0 0 1 69.001129184850612 29.90631539223644 12.84893667689763 1 rotate no_reflect no_shear #
shell $-1 $-1 $-1 $76 $-1 $19 #
shell $-1 $-1 $-1 $77 $-1 $21 #
shell $-1 $-1 $-1 $78 $-1 $23 #
shell $-1 $-1 $-1 $79 $-1 $25 #
shell $-1 $-1 $-1 $80 $-1 $27 #
shell $-1 $-1 $-1 $81 $-1 $29 #
shell $-1 $-1 $-1 $82 $-1 $31 #
shell $-1 $-1 $-1 $83 $-1 $33 #
shell $-1 $-1 $-1 $84 $-1 $35 #
shell $-1 $-1 $-1 $85 $-1 $37 #
shell $-1 $-1 $-1 $86 $-1 $39 #
shell $-1 $-1 $-1 $87 $-1 $41 #
shell $-1 $-1 $-1 $88 $-1 $43 #
shell $-1 $-1 $-1 $89 $-1 $45 #
shell $-1 $-1 $-1 $90 $-1 $47 #
shell $-1 $-1 $-1 $91 $-1 $49 #
shell $-1 $-1 $-1 $92 $-1 $51 #
shell $-1 $-1 $-1 $93 $-1 $53 #
shell $-1 $-1 $-1 $94 $-1 $55 #
face $-1 $95 $96 $57 $-1 $97 forward single #
face $-1 $98 $99 $58 $-1 $100 forward single #
face $-1 $101 $102 $59 $-1 $103 forward single #
face $-1 $104 $105 $60 $-1 $106 reversed single #
face $-1 $107 $108 $61 $-1 $109 forward single #
face $-1 $110 $111 $62 $-1 $112 forward single #
face $-1 $113 $114 $63 $-1 $115 forward single #
face $-1 $116 $117 $64 $-1 $118 reversed single #
face $-1 $119 $120 $65 $-1 $121 forward single #
face $-1 $122 $123 $66 $-1 $124 forward single #
face $-1 $125 $126 $67 $-1 $127 forward single #
face $-1 $128 $129 $68 $-1 $130 reversed single #
face $-1 $131 $132 $69 $-1 $133 forward single #
face $-1 $134 $135 $70 $-1 $136 forward single #
face $-1 $137 $138 $71 $-1 $139 forward single #
face $-1 $140 $141 $72 $-1 $142 reversed single #
face $-1 $143 $144 $73 $-1 $145 forward single #
face $-1 $146 $147 $74 $-1 $148 forward single #
face $-1 $149 $150 $75 $-1 $151 forward single #
face $-1 $152 $153 $57 $-1 $154 reversed single #
loop $-1 $-1 $155 $76 #
plane-surface $-1 0 0 12.84893667689763 0 0 1 1 0 0 forward_v I I I I #
face $-1 $156 $157 $58 $-1 $158 reversed single #
loop $-1 $-1 $159 $77 #
plane-surface $-1 -69.001129184850612 0 0 1 0 0 0 0 -1 forward_v I I I I #
face $-1 $160 $161 $59 $-1 $162 forward single #
loop $-1 $-1 $163 $78 #
plane-surface $-1 69.001129184850612 0 0 -1 0 0 0 0 1 forward_v I I I I #
face $-1 $164 $165 $60 $-1 $166 reversed single #
loop $-1 $-1 $167 $79 #
plane-surface $-1 -33.513602391491013 -146.93886896156482 76.307129815027452 -1 0 0 0 -0.84804810408105047 0.52991925155115449 forward_v I I I I #
face $-1 $168 $169 $61 $-1 $170 forward single #
loop $-1 $171 $172 $80 #
cone-surface $-1 -48.190577533342747 -25.935480419625726 7.4199989400152147 0 0.84804810408105047 -0.52991925155115449 1 0 0 1 I I 0 1 1 forward I I I I #
face $-1 $173 $174 $62 $-1 $175 forward single #
loop $-1 $176 $177 $81 #
cone-surface $-1 -42.686711855148346 -25.935480419625726 7.4199989400152147 0 0.84804810408105047 -0.52991925155115449 1 0 0 1 I I 0 1 1 forward I I I I #
face $-1 $178 $179 $63 $-1 $180 forward single #
loop $-1 $181 $182 $82 #
cone-surface $-1 -37.182846176953944 -25.935480419625726 7.4199989400152147 0 0.84804810408105047 -0.52991925155115449 1 0 0 1 I I 0 1 1 forward I I I I #
face $-1 $183 $184 $64 $-1 $185 reversed single #
loop $-1 $-1 $186 $83 #
plane-surface $-1 22.880565941059281 -146.93886896156482 76.307129815027452 -1 0 0 0 -0.84804810408105047 0.52991925155115449 forward_v I I I I #
face $-1 $187 $188 $65 $-1 $189 forward single #
loop $-1 $190 $191 $84 #
cone-surface $-1 8.2035907992075465 -25.935480419625726 7.4199989400152147 0 0.84804810408105047 -0.52991925155115449 1 0 0 1 I I 0 1 1 forward I I I I #
face $-1 $192 $193 $66 $-1 $194 forward single #
loop $-1 $195 $196 $85 #
cone-surface $-1 13.707456477401948 -25.935480419625726 7.4199989400152147 0 0.84804810408105047 -0.52991925155115449 1 0 0 1 I I 0 1 1 forward I I I I #
face $-1 $197 $198 $67 $-1 $199 forward single #
loop $-1 $200 $201 $86 #
cone-surface $-1 19.211322155596349 -25.935480419625726 7.4199989400152147 0 0.84804810408105047 -0.52991925155115449 1 0 0 1 I I 0 1 1 forward I I I I #
face $-1 $202 $203 $68 $-1 $204 reversed single #
loop $-1 $-1 $205 $87 #
plane-surface $-1 -51.859821318805679 115.24300442295142 127.03111795189955 1 0 0 0 -0.84804810408105047 -0.52991925155115449 forward_v I I I I #
face $-1 $206 $207 $69 $-1 $208 forward single #
loop $-1 $209 $210 $88 #
cone-surface $-1 -48.190577533342747 25.935480419625723 7.4199989400152218 0 -0.84804810408105047 -0.52991925155115449 1 0 0 1 I I 0 1 1 forward I I I I #
face $-1 $211 $212 $70 $-1 $213 forward single #
loop $-1 $214 $215 $89 #
cone-surface $-1 -42.686711855148346 25.935480419625723 7.4199989400152218 0 -0.84804810408105047 -0.52991925155115449 1 0 0 1 I I 0 1 1 forward I I I I #
face $-1 $216 $217 $71 $-1 $218 forward single #
loop $-1 $219 $220 $90 #
cone-surface $-1 -37.182846176953944 25.935480419625723 7.4199989400152218 0 -0.84804810408105047 -0.52991925155115449 1 0 0 1 I I 0 1 1 forward I I I I #
face $-1 $221 $222 $72 $-1 $223 reversed single #
loop $-1 $-1 $224 $91 #
plane-surface $-1 4.5343470137446147 115.24300442295142 127.03111795189955 1 0 0 0 -0.84804810408105047 -0.52991925155115449 forward_v I I I I #
face $-1 $225 $226 $73 $-1 $227 forward single #
loop $-1 $228 $229 $92 #
cone-surface $-1 8.2035907992075465 25.935480419625723 7.4199989400152218 0 -0.84804810408105047 -0.52991925155115449 1 0 0 1 I I 0 1 1 forward I I I I #
face $-1 $230 $231 $74 $-1 $232 forward single #
loop $-1 $233 $234 $93 #
cone-surface $-1 13.707456477401948 25.935480419625723 7.4199989400152218 0 -0.84804810408105047 -0.52991925155115449 1 0 0 1 I I 0 1 1 forward I I I I #
face $-1 $235 $236 $75 $-1 $237 forward single #
loop $-1 $238 $239 $94 #
cone-surface $-1 19.211322155596349 25.935480419625723 7.4199989400152218 0 -0.84804810408105047 -0.52991925155115449 1 0 0 1 I I 0 1 1 forward I I I I #
face $-1 $240 $241 $57 $-1 $242 reversed single #
loop $-1 $-1 $243 $95 #
plane-surface $-1 0 0 -12.84893667689763 0 0 1 1 0 0 forward_v I I I I #
coedge $-1 $244 $245 $246 $247 forward $96 $-1 #
face $-1 $248 $249 $58 $-1 $250 reversed single #
loop $-1 $-1 $251 $98 #
plane-surface $-1 0 29.90631539223644 0 0 -1 0 0 0 -1 forward_v I I I I #
coedge $-1 $252 $253 $254 $255 forward $99 $-1 #
face $-1 $256 $257 $59 $-1 $258 reversed single #
loop $-1 $-1 $259 $101 #
plane-surface $-1 0 0 12.84893667689763 0 0 1 1 0 0 forward_v I I I I #
coedge $-1 $260 $261 $262 $263 forward $102 $-1 #
face $-1 $264 $265 $60 $-1 $266 reversed single #
loop $-1 $-1 $267 $104 #
plane-surface $-1 -42.686711855148346 -29.906315392236422 3.1770763473863326 0 -0.84804810408105047 0.52991925155115449 1 0 0 forward_v I I I I #
coedge $-1 $268 $269 $270 $271 reversed $105 $-1 #
face $-1 $-1 $272 $61 $-1 $273 forward single #
loop $-1 $274 $275 $107 #
cone-surface $-1 -48.190577533342747 -24.562445842348104 6.5620317421128718 0 0.84804810408105047 -0.52991925155115449 0.5 0 0 1 I I -0.70710678118654746 0.70710678118654746 0.5 forward I I I I #
loop $-1 $-1 $276 $80 #
coedge $-1 $172 $172 $277 $278 reversed $108 $-1 #
face $-1 $-1 $279 $62 $-1 $280 forward single #
loop $-1 $281 $282 $110 #
cone-surface $-1 -42.686711855148346 -24.562445842348104 6.5620317421128718 0 0.84804810408105047 -0.52991925155115449 0.5 0 0 1 I I -0.70710678118654746 0.70710678118654746 0.5 forward I I I I #
loop $-1 $-1 $283 $81 #
coedge $-1 $177 $177 $284 $285 reversed $111 $-1 #
face $-1 $-1 $286 $63 $-1 $287 forward single #
loop $-1 $288 $289 $113 #
cone-surface $-1 -37.182846176953944 -24.562445842348104 6.5620317421128718 0 0.84804810408105047 -0.52991925155115449 0.5 0 0 1 I I -0.70710678118654746 0.70710678118654746 0.5 forward I I I I #
loop $-1 $-1 $290 $82 #
coedge $-1 $182 $182 $291 $292 reversed $114 $-1 #
face $-1 $293 $294 $64 $-1 $295 reversed single #
loop $-1 $-1 $296 $116 #
plane-surface $-1 13.707456477401948 -29.906315392236422 3.1770763473863326 0 -0.84804810408105047 0.52991925155115449 1 0 0 forward_v I I I I #
coedge $-1 $297 $298 $299 $300 reversed $117 $-1 #
face $-1 $-1 $301 $65 $-1 $302 forward single #
loop $-1 $303 $304 $119 #
cone-surface $-1 8.2035907992075465 -24.562445842348104 6.5620317421128718 0 0.84804810408105047 -0.52991925155115449 0.5 0 0 1 I I -0.70710678118654746 0.70710678118654746 0.5 forward I I I I #
loop $-1 $-1 $305 $84 #
coedge $-1 $191 $191 $306 $307 reversed $120 $-1 #
face $-1 $-1 $308 $66 $-1 $309 forward single #
loop $-1 $310 $311 $122 #
cone-surface $-1 13.707456477401948 -24.562445842348104 6.5620317421128718 0 0.84804810408105047 -0.52991925155115449 0.5 0 0 1 I I -0.70710678118654746 0.70710678118654746 0.5 forward I I I I #
loop $-1 $-1 $312 $85 #
coedge $-1 $196 $196 $313 $314 reversed $123 $-1 #
face $-1 $-1 $315 $67 $-1 $316 forward single #
loop $-1 $317 $318 $125 #
cone-surface $-1 19.211322155596349 -24.562445842348104 6.5620317421128718 0 0.84804810408105047 -0.52991925155115449 0.5 0 0 1 I I -0.70710678118654746 0.70710678118654746 0.5 forward I I I I #
loop $-1 $-1 $319 $86 #
coedge $-1 $201 $201 $320 $321 reversed $126 $-1 #
face $-1 $322 $323 $68 $-1 $324 reversed single #
loop $-1 $-1 $325 $128 #
plane-surface $-1 -42.686711855148346 -1.7895491463769844 53.901064484258427 0 0.84804810408105047 0.52991925155115449 1 0 0 forward_v I I I I #
coedge $-1 $326 $327 $328 $329 reversed $129 $-1 #
face $-1 $-1 $330 $69 $-1 $331 forward single #
loop $-1 $332 $333 $131 #
cone-surface $-1 -48.190577533342747 24.562445842348101 6.5620317421128789 0 -0.84804810408105047 -0.52991925155115449 0.5 0 0 1 I I -0.70710678118654746 0.70710678118654746 0.5 forward I I I I #
loop $-1 $-1 $334 $88 #
coedge $-1 $210 $210 $335 $336 reversed $132 $-1 #
face $-1 $-1 $337 $70 $-1 $338 forward single #
loop $-1 $339 $340 $134 #
cone-surface $-1 -42.686711855148346 24.562445842348101 6.5620317421128789 0 -0.84804810408105047 -0.52991925155115449 0.5 0 0 1 I I -0.70710678118654746 0.70710678118654746 0.5 forward I I I I #
loop $-1 $-1 $341 $89 #
coedge $-1 $215 $215 $342 $343 reversed $135 $-1 #
face $-1 $-1 $344 $71 $-1 $345 forward single #
loop $-1 $346 $347 $137 #
cone-surface $-1 -37.182846176953944 24.562445842348101 6.5620317421128789 0 -0.84804810408105047 -0.52991925155115449 0.5 0 0 1 I I -0.70710678118654746 0.70710678118654746 0.5 forward I I I I #
loop $-1 $-1 $348 $90 #
coedge $-1 $220 $220 $349 $350 reversed $138 $-1 #
face $-1 $351 $352 $72 $-1 $353 reversed single #
loop $-1 $-1 $354 $140 #
plane-surface $-1 13.707456477401948 -1.7895491463769844 53.901064484258427 0 0.84804810408105047 0.52991925155115449 1 0 0 forward_v I I I I #
coedge $-1 $355 $356 $357 $358 reversed $141 $-1 #
face $-1 $-1 $359 $73 $-1 $360 forward single #
loop $-1 $361 $362 $143 #
cone-surface $-1 8.2035907992075465 24.562445842348101 6.5620317421128789 0 -0.84804810408105047 -0.52991925155115449 0.5 0 0 1 I I -0.70710678118654746 0.70710678118654746 0.5 forward I I I I #
loop $-1 $-1 $363 $92 #
coedge $-1 $229 $229 $364 $365 reversed $144 $-1 #
face $-1 $-1 $366 $74 $-1 $367 forward single #
loop $-1 $368 $369 $146 #
cone-surface $-1 13.707456477401948 24.562445842348101 6.5620317421128789 0 -0.84804810408105047 -0.52991925155115449 0.5 0 0 1 I I -0.70710678118654746 0.70710678118654746 0.5 forward I I I I #
loop $-1 $-1 $370 $93 #
coedge $-1 $234 $234 $371 $372 reversed $147 $-1 #
face $-1 $-1 $373 $75 $-1 $374 forward single #
loop $-1 $375 $376 $149 #
cone-surface $-1 19.211322155596349 24.562445842348101 6.5620317421128789 0 -0.84804810408105047 -0.52991925155115449 0.5 0 0 1 I I -0.70710678118654746 0.70710678118654746 0.5 forward I I I I #
loop $-1 $-1 $377 $94 #
coedge $-1 $239 $239 $378 $379 reversed $150 $-1 #
face $-1 $380 $381 $57 $-1 $382 reversed single #
loop $-1 $-1 $383 $152 #
plane-surface $-1 0 -29.90631539223644 0 0 1 0 0 0 1 forward_v I I I I #
coedge $-1 $384 $385 $386 $387 forward $153 $-1 #
coedge $-1 $388 $155 $389 $390 forward $96 $-1 #
coedge $-1 $155 $388 $391 $392 forward $96 $-1 #
coedge $-1 $393 $394 $155 $247 reversed $395 $-1 #
edge $-1 $396 -29.90631539223644 $397 29.90631539223644 $246 $398 forward 7 unknown #
face $-1 $399 $400 $58 $-1 $401 reversed single #
loop $-1 $-1 $254 $156 #
plane-surface $-1 -75.304609611000771 0 8.9139081557431812 0 0 1 1 0 0 forward_v I I I I #
coedge $-1 $402 $403 $252 $404 forward $157 $-1 #
coedge $-1 $405 $159 $251 $404 reversed $99 $-1 #
coedge $-1 $159 $405 $406 $407 reversed $99 $-1 #
coedge $-1 $408 $409 $159 $255 reversed $249 $-1 #
edge $-1 $410 -29.90631539223644 $411 29.90631539223644 $254 $412 forward 7 unknown #
face $-1 $413 $414 $59 $-1 $415 reversed single #
loop $-1 $-1 $416 $160 #
plane-surface $-1 0 -29.90631539223644 0 0 1 0 0 0 1 forward_v I I I I #
coedge $-1 $417 $418 $419 $420 forward $161 $-1 #
coedge $-1 $419 $163 $416 $421 reversed $102 $-1 #
coedge $-1 $163 $419 $422 $423 reversed $102 $-1 #
coedge $-1 $424 $425 $163 $263 reversed $414 $-1 #
edge $-1 $426 -29.90631539223644 $427 29.90631539223644 $262 $428 forward 7 unknown #
face $-1 $429 $430 $60 $-1 $431 reversed single #
loop $-1 $-1 $432 $164 #
plane-surface $-1 -51.859821318805679 -146.93886896156482 76.307129815027452 1 0 0 0 0.84804810408105047 -0.52991925155115449 forward_v I I I I #
coedge $-1 $433 $434 $435 $436 reversed $165 $-1 #
coedge $-1 $269 $167 $437 $438 reversed $105 $-1 #
coedge $-1 $167 $268 $433 $439 reversed $105 $-1 #
coedge $-1 $435 $440 $167 $271 forward $441 $-1 #
edge $-1 $442 43.563119088545974 $443 49.606767983293224 $270 $444 forward 7 unknown #
loop $-1 $-1 $277 $168 #
plane-surface $-1 -42.686711855148346 -29.906315392236422 3.1770763473863326 0 -0.84804810408105047 0.52991925155115449 1 0 0 forward_v I I I I #
loop $-1 $-1 $445 $107 #
coedge $-1 $275 $275 $276 $446 reversed $169 $-1 #
coedge $-1 $276 $276 $275 $446 forward $171 $-1 #
coedge $-1 $277 $277 $172 $278 forward $272 $-1 #
edge $-1 $447 1.5747545419071707e-018 $447 6.2831853071796004 $277 $448 forward 7 unknown #
loop $-1 $-1 $284 $173 #
plane-surface $-1 -42.686711855148346 -29.906315392236422 3.1770763473863326 0 -0.84804810408105047 0.52991925155115449 1 0 0 forward_v I I I I #
loop $-1 $-1 $449 $110 #
coedge $-1 $282 $282 $283 $450 reversed $174 $-1 #
coedge $-1 $283 $283 $282 $450 forward $176 $-1 #
coedge $-1 $284 $284 $177 $285 forward $279 $-1 #
edge $-1 $451 1.5747545419071707e-018 $451 6.2831853071796004 $284 $452 forward 7 unknown #
loop $-1 $-1 $291 $178 #
plane-surface $-1 -42.686711855148346 -29.906315392236422 3.1770763473863326 0 -0.84804810408105047 0.52991925155115449 1 0 0 forward_v I I I I #
loop $-1 $-1 $453 $113 #
coedge $-1 $289 $289 $290 $454 reversed $179 $-1 #
coedge $-1 $290 $290 $289 $454 forward $181 $-1 #
coedge $-1 $291 $291 $182 $292 forward $286 $-1 #
edge $-1 $455 1.5747545419071707e-018 $455 6.2831853071796004 $291 $456 forward 7 unknown #
face $-1 $457 $458 $64 $-1 $459 reversed single #
loop $-1 $-1 $460 $183 #
plane-surface $-1 4.5343470137446147 -146.93886896156482 76.307129815027452 1 0 0 0 0.84804810408105047 -0.52991925155115449 forward_v I I I I #
coedge $-1 $461 $462 $463 $464 reversed $184 $-1 #
coedge $-1 $298 $186 $465 $466 reversed $117 $-1 #
coedge $-1 $186 $297 $461 $467 reversed $117 $-1 #
coedge $-1 $463 $468 $186 $300 forward $469 $-1 #
edge $-1 $470 43.563119088545974 $471 49.606767983293224 $299 $472 forward 7 unknown #
loop $-1 $-1 $306 $187 #
plane-surface $-1 13.707456477401948 -29.906315392236422 3.1770763473863326 0 -0.84804810408105047 0.52991925155115449 1 0 0 forward_v I I I I #
loop $-1 $-1 $473 $119 #
coedge $-1 $304 $304 $305 $474 reversed $188 $-1 #
coedge $-1 $305 $305 $304 $474 forward $190 $-1 #
coedge $-1 $306 $306 $191 $307 forward $301 $-1 #
edge $-1 $475 1.5747545419071707e-018 $475 6.2831853071796004 $306 $476 forward 7 unknown #
loop $-1 $-1 $313 $192 #
plane-surface $-1 13.707456477401948 -29.906315392236422 3.1770763473863326 0 -0.84804810408105047 0.52991925155115449 1 0 0 forward_v I I I I #
loop $-1 $-1 $477 $122 #
coedge $-1 $311 $311 $312 $478 reversed $193 $-1 #
coedge $-1 $312 $312 $311 $478 forward $195 $-1 #
coedge $-1 $313 $313 $196 $314 forward $308 $-1 #
edge $-1 $479 1.5747545419071707e-018 $479 6.2831853071796004 $313 $480 forward 7 unknown #
loop $-1 $-1 $320 $197 #
plane-surface $-1 13.707456477401948 -29.906315392236422 3.1770763473863326 0 -0.84804810408105047 0.52991925155115449 1 0 0 forward_v I I I I #
loop $-1 $-1 $481 $125 #
coedge $-1 $318 $318 $319 $482 reversed $198 $-1 #
coedge $-1 $319 $319 $318 $482 forward $200 $-1 #
coedge $-1 $320 $320 $201 $321 forward $315 $-1 #
edge $-1 $483 1.5747545419071707e-018 $483 6.2831853071796004 $320 $484 forward 7 unknown #
face $-1 $485 $486 $68 $-1 $487 reversed single #
loop $-1 $-1 $488 $202 #
plane-surface $-1 -33.513602391491013 115.24300442295142 127.03111795189955 -1 0 0 0 0.84804810408105047 0.52991925155115449 forward_v I I I I #
coedge $-1 $489 $490 $491 $492 reversed $203 $-1 #
coedge $-1 $327 $205 $493 $494 reversed $129 $-1 #
coedge $-1 $205 $326 $489 $495 reversed $129 $-1 #
coedge $-1 $491 $496 $205 $329 forward $497 $-1 #
edge $-1 $498 27.715186819239268 $499 33.758835713986521 $328 $500 forward 7 unknown #
loop $-1 $-1 $335 $206 #
plane-surface $-1 -42.686711855148346 -1.7895491463769844 53.901064484258427 0 0.84804810408105047 0.52991925155115449 1 0 0 forward_v I I I I #
loop $-1 $-1 $501 $131 #
coedge $-1 $333 $333 $334 $502 reversed $207 $-1 #
coedge $-1 $334 $334 $333 $502 forward $209 $-1 #
coedge $-1 $335 $335 $210 $336 forward $330 $-1 #
edge $-1 $503 -1.8842261281874163e-015 $503 6.2831853071795987 $335 $504 forward 7 unknown #
loop $-1 $-1 $342 $211 #
plane-surface $-1 -42.686711855148346 -1.7895491463769844 53.901064484258427 0 0.84804810408105047 0.52991925155115449 1 0 0 forward_v I I I I #
loop $-1 $-1 $505 $134 #
coedge $-1 $340 $340 $341 $506 reversed $212 $-1 #
coedge $-1 $341 $341 $340 $506 forward $214 $-1 #
coedge $-1 $342 $342 $215 $343 forward $337 $-1 #
edge $-1 $507 -1.8842261281874163e-015 $507 6.2831853071795987 $342 $508 forward 7 unknown #
loop $-1 $-1 $349 $216 #
plane-surface $-1 -42.686711855148346 -1.7895491463769844 53.901064484258427 0 0.84804810408105047 0.52991925155115449 1 0 0 forward_v I I I I #
loop $-1 $-1 $509 $137 #
coedge $-1 $347 $347 $348 $510 reversed $217 $-1 #
coedge $-1 $348 $348 $347 $510 forward $219 $-1 #
coedge $-1 $349 $349 $220 $350 forward $344 $-1 #
edge $-1 $511 -1.8842261281874163e-015 $511 6.2831853071795987 $349 $512 forward 7 unknown #
face $-1 $513 $514 $72 $-1 $515 forward single #
loop $-1 $-1 $516 $221 #
plane-surface $-1 22.880565941059281 115.24300442295142 127.03111795189955 -1 0 0 0 0.84804810408105047 0.52991925155115449 forward_v I I I I #
coedge $-1 $517 $518 $519 $520 reversed $222 $-1 #
coedge $-1 $356 $224 $521 $522 reversed $141 $-1 #
coedge $-1 $224 $355 $517 $523 reversed $141 $-1 #
coedge $-1 $519 $524 $224 $358 forward $514 $-1 #
edge $-1 $525 27.715186819239268 $526 33.758835713986521 $357 $527 forward 7 unknown #
loop $-1 $-1 $364 $225 #
plane-surface $-1 13.707456477401948 -1.7895491463769844 53.901064484258427 0 0.84804810408105047 0.52991925155115449 1 0 0 forward_v I I I I #
loop $-1 $-1 $528 $143 #
coedge $-1 $362 $362 $363 $529 reversed $226 $-1 #
coedge $-1 $363 $363 $362 $529 forward $228 $-1 #
coedge $-1 $364 $364 $229 $365 forward $359 $-1 #
edge $-1 $530 -1.8842261281874163e-015 $530 6.2831853071795987 $364 $531 forward 7 unknown #
loop $-1 $-1 $371 $230 #
plane-surface $-1 13.707456477401948 -1.7895491463769844 53.901064484258427 0 0.84804810408105047 0.52991925155115449 1 0 0 forward_v I I I I #
loop $-1 $-1 $532 $146 #
coedge $-1 $369 $369 $370 $533 reversed $231 $-1 #
coedge $-1 $370 $370 $369 $533 forward $233 $-1 #
coedge $-1 $371 $371 $234 $372 forward $366 $-1 #
edge $-1 $534 -1.8842261281874163e-015 $534 6.2831853071795987 $371 $535 forward 7 unknown #
loop $-1 $-1 $378 $235 #
plane-surface $-1 13.707456477401948 -1.7895491463769844 53.901064484258427 0 0.84804810408105047 0.52991925155115449 1 0 0 forward_v I I I I #
loop $-1 $-1 $536 $149 #
coedge $-1 $376 $376 $377 $537 reversed $236 $-1 #
coedge $-1 $377 $377 $376 $537 forward $238 $-1 #
coedge $-1 $378 $378 $239 $379 forward $373 $-1 #
edge $-1 $538 -1.8842261281874163e-015 $538 6.2831853071795987 $378 $539 forward 7 unknown #
face $-1 $540 $541 $57 $-1 $542 reversed single #
loop $-1 $-1 $543 $240 #
plane-surface $-1 -69.001129184850612 0 0 1 0 0 0 0 -1 forward_v I I I I #
coedge $-1 $544 $391 $545 $546 forward $241 $-1 #
coedge $-1 $547 $243 $544 $548 forward $153 $-1 #
coedge $-1 $243 $547 $549 $550 forward $153 $-1 #
coedge $-1 $394 $393 $243 $387 reversed $395 $-1 #
edge $-1 $551 -29.90631539223644 $552 29.90631539223644 $386 $553 forward 7 unknown #
coedge $-1 $245 $244 $554 $555 forward $96 $-1 #
coedge $-1 $556 $557 $244 $390 reversed $541 $-1 #
edge $-1 $397 -69.001129184850612 $558 69.001129184850612 $389 $559 forward 7 unknown #
coedge $-1 $383 $560 $245 $392 reversed $241 $-1 #
edge $-1 $561 -69.001129184850612 $396 69.001129184850612 $391 $562 forward 7 unknown #
coedge $-1 $386 $246 $560 $563 forward $395 $-1 #
coedge $-1 $246 $386 $556 $564 reversed $395 $-1 #
loop $-1 $-1 $393 $540 #
vertex $-1 $247 $565 #
vertex $-1 $247 $566 #
straight-curve $-1 69.001129184850612 0 12.84893667689763 0 1 0 I I #
face $-1 $567 $568 $58 $-1 $569 forward single #
loop $-1 $-1 $570 $248 #
plane-surface $-1 -81.60809003715093 0 10.881422416320405 1 0 0 0 0 -1 forward_v I I I I #
coedge $-1 $571 $251 $409 $572 reversed $157 $-1 #
coedge $-1 $251 $571 $573 $574 reversed $157 $-1 #
edge $-1 $575 -12.84893667689763 $411 -8.9139081557431812 $251 $576 forward 7 unknown #
coedge $-1 $253 $252 $577 $578 reversed $99 $-1 #
coedge $-1 $579 $580 $253 $407 forward $581 $-1 #
edge $-1 $410 8.9139081557431812 $582 12.84893667689763 $406 $583 forward 7 unknown #
coedge $-1 $584 $254 $580 $585 forward $249 $-1 #
coedge $-1 $254 $584 $402 $572 forward $249 $-1 #
vertex $-1 $407 $586 #
vertex $-1 $404 $587 #
straight-curve $-1 -69.001129184850612 0 8.9139081557431812 0 1 0 I I #
face $-1 $588 $589 $59 $-1 $590 reversed single #
loop $-1 $-1 $591 $256 #
plane-surface $-1 75.304609611000757 0 8.9139081557431812 0 0 1 1 0 0 forward_v I I I I #
coedge $-1 $592 $593 $260 $421 forward $257 $-1 #
coedge $-1 $594 $259 $593 $595 forward $161 $-1 #
coedge $-1 $259 $594 $596 $597 forward $161 $-1 #
coedge $-1 $261 $260 $259 $420 reversed $102 $-1 #
edge $-1 $598 -29.90631539223644 $599 29.90631539223644 $259 $600 forward 7 unknown #
edge $-1 $599 -12.84893667689763 $427 -8.9139081557431812 $416 $601 forward 7 unknown #
coedge $-1 $596 $602 $261 $423 forward $603 $-1 #
edge $-1 $426 8.9139081557431812 $598 12.84893667689763 $422 $604 forward 7 unknown #
coedge $-1 $591 $262 $602 $605 forward $414 $-1 #
coedge $-1 $262 $591 $592 $606 forward $414 $-1 #
vertex $-1 $423 $607 #
vertex $-1 $421 $608 #
straight-curve $-1 69.001129184850612 0 8.9139081557431812 0 -1 0 I I #
face $-1 $-1 $441 $60 $-1 $609 forward single #
loop $-1 $-1 $610 $264 #
plane-surface $-1 0 -29.90631539223644 0 0 1 0 0 0 1 forward_v I I I I #
coedge $-1 $611 $612 $613 $614 reversed $265 $-1 #
coedge $-1 $615 $267 $269 $439 forward $165 $-1 #
coedge $-1 $267 $615 $611 $616 forward $165 $-1 #
coedge $-1 $613 $270 $267 $436 forward $441 $-1 #
edge $-1 $443 12.17024646391684 $617 30.516465391231506 $435 $618 forward 7 unknown #
coedge $-1 $619 $620 $268 $438 forward $430 $-1 #
edge $-1 $621 -34.976488560127422 $442 -25.304628230616096 $437 $622 forward 7 unknown #
edge $-1 $443 -11.404848714321197 $621 3.3516233665424181e-014 $269 $623 forward 7 unknown #
coedge $-1 $270 $613 $619 $624 forward $441 $-1 #
loop $-1 $-1 $613 $429 #
vertex $-1 $438 $625 #
vertex $-1 $271 $626 #
straight-curve $-1 -33.513602391491013 -73.469434480782411 12.84893667689763 0 1 0 I I #
coedge $-1 $445 $445 $-1 $627 reversed $274 $-1 #
edge $-1 $628 0 $628 6.2831853071796004 $275 $629 forward 7 unknown #
vertex $-1 $278 $630 #
ellipse-curve $-1 -48.190577533342747 -26.884490944862812 8.0130065121419722 0 -0.84804810408105047 0.52991925155115449 1 0 0 1 I I #
coedge $-1 $449 $449 $-1 $631 reversed $281 $-1 #
edge $-1 $632 0 $632 6.2831853071796004 $282 $633 forward 7 unknown #
vertex $-1 $285 $634 #
ellipse-curve $-1 -42.686711855148346 -26.884490944862812 8.0130065121419722 0 -0.84804810408105047 0.52991925155115449 1 0 0 1 I I #
coedge $-1 $453 $453 $-1 $635 reversed $288 $-1 #
edge $-1 $636 0 $636 6.2831853071796004 $289 $637 forward 7 unknown #
vertex $-1 $292 $638 #
ellipse-curve $-1 -37.182846176953944 -26.884490944862812 8.0130065121419722 0 -0.84804810408105047 0.52991925155115449 1 0 0 1 I I #
face $-1 $-1 $469 $64 $-1 $639 forward single #
loop $-1 $-1 $640 $293 #
plane-surface $-1 0 -29.90631539223644 0 0 1 0 0 0 1 forward_v I I I I #
coedge $-1 $641 $642 $643 $644 reversed $294 $-1 #
coedge $-1 $645 $296 $298 $467 forward $184 $-1 #
coedge $-1 $296 $645 $641 $646 forward $184 $-1 #
coedge $-1 $643 $299 $296 $464 forward $469 $-1 #
edge $-1 $471 -16.026837702358307 $647 2.3193812249563592 $463 $648 forward 7 unknown #
coedge $-1 $649 $650 $297 $466 forward $458 $-1 #
edge $-1 $651 -34.976488560127422 $470 -25.304628230616096 $465 $652 forward 7 unknown #
edge $-1 $471 -11.404848714321197 $651 3.3516233665424181e-014 $298 $653 forward 7 unknown #
coedge $-1 $299 $643 $649 $654 forward $469 $-1 #
loop $-1 $-1 $643 $457 #
vertex $-1 $466 $655 #
vertex $-1 $300 $656 #
straight-curve $-1 22.880565941059281 -73.469434480782411 12.84893667689763 0 1 0 I I #
coedge $-1 $473 $473 $-1 $657 reversed $303 $-1 #
edge $-1 $658 0 $658 6.2831853071796004 $304 $659 forward 7 unknown #
vertex $-1 $307 $660 #
ellipse-curve $-1 8.2035907992075465 -26.884490944862812 8.0130065121419722 0 -0.84804810408105047 0.52991925155115449 1 0 0 1 I I #
coedge $-1 $477 $477 $-1 $661 reversed $310 $-1 #
edge $-1 $662 0 $662 6.2831853071796004 $311 $663 forward 7 unknown #
vertex $-1 $314 $664 #
ellipse-curve $-1 13.707456477401948 -26.884490944862812 8.0130065121419722 0 -0.84804810408105047 0.52991925155115449 1 0 0 1 I I #
coedge $-1 $481 $481 $-1 $665 reversed $317 $-1 #
edge $-1 $666 0 $666 6.2831853071796004 $318 $667 forward 7 unknown #
vertex $-1 $321 $668 #
ellipse-curve $-1 19.211322155596349 -26.884490944862812 8.0130065121419722 0 -0.84804810408105047 0.52991925155115449 1 0 0 1 I I #
face $-1 $-1 $497 $68 $-1 $669 forward single #
loop $-1 $-1 $670 $322 #
plane-surface $-1 0 29.90631539223644 0 0 -1 0 0 0 -1 forward_v I I I I #
coedge $-1 $671 $672 $673 $674 reversed $323 $-1 #
coedge $-1 $675 $325 $327 $495 forward $203 $-1 #
coedge $-1 $325 $675 $671 $676 forward $203 $-1 #
coedge $-1 $673 $328 $325 $492 forward $497 $-1 #
edge $-1 $499 -30.516465391231506 $677 -12.17024646391684 $491 $678 forward 7 unknown #
coedge $-1 $679 $680 $326 $494 forward $486 $-1 #
edge $-1 $681 -60.338482628563469 $498 -50.666622299052143 $493 $682 forward 7 unknown #
edge $-1 $499 48.407782070151676 $681 59.812630784472901 $327 $683 forward 7 unknown #
coedge $-1 $328 $673 $679 $684 forward $497 $-1 #
loop $-1 $-1 $673 $485 #
vertex $-1 $494 $685 #
vertex $-1 $329 $686 #
straight-curve $-1 -51.859821318805679 57.621502211475708 12.84893667689763 0 -1 0 I I #
coedge $-1 $501 $501 $-1 $687 reversed $332 $-1 #
edge $-1 $688 0 $688 6.2831853071796004 $333 $689 forward 7 unknown #
vertex $-1 $336 $690 #
ellipse-curve $-1 -48.190577533342747 26.884490944862808 8.0130065121419793 0 0.84804810408105047 0.52991925155115449 1 0 0 1 I I #
coedge $-1 $505 $505 $-1 $691 reversed $339 $-1 #
edge $-1 $692 0 $692 6.2831853071796004 $340 $693 forward 7 unknown #
vertex $-1 $343 $694 #
ellipse-curve $-1 -42.686711855148346 26.884490944862808 8.0130065121419793 0 0.84804810408105047 0.52991925155115449 1 0 0 1 I I #
coedge $-1 $509 $509 $-1 $695 reversed $346 $-1 #
edge $-1 $696 0 $696 6.2831853071796004 $347 $697 forward 7 unknown #
vertex $-1 $350 $698 #
ellipse-curve $-1 -37.182846176953944 26.884490944862808 8.0130065121419793 0 0.84804810408105047 0.52991925155115449 1 0 0 1 I I #
face $-1 $-1 $699 $72 $-1 $700 reversed single #
loop $-1 $-1 $357 $351 #
plane-surface $-1 0 0 12.84893667689763 0 0 1 1 0 0 forward_v I I I I #
coedge $-1 $701 $702 $703 $704 reversed $352 $-1 #
coedge $-1 $705 $354 $356 $523 forward $222 $-1 #
coedge $-1 $354 $705 $701 $706 forward $222 $-1 #
coedge $-1 $703 $357 $354 $520 forward $514 $-1 #
edge $-1 $526 -2.3193812249563592 $707 16.026837702358307 $519 $708 forward 7 unknown #
coedge $-1 $709 $710 $355 $522 forward $699 $-1 #
edge $-1 $711 -60.338482628563469 $525 -50.666622299052143 $521 $712 forward 7 unknown #
edge $-1 $526 48.407782070151676 $711 59.812630784472901 $356 $713 forward 7 unknown #
coedge $-1 $357 $703 $709 $714 forward $514 $-1 #
vertex $-1 $358 $715 #
vertex $-1 $358 $716 #
straight-curve $-1 4.5343470137446147 57.621502211475708 12.84893667689763 0 -1 0 I I #
coedge $-1 $528 $528 $-1 $717 reversed $361 $-1 #
edge $-1 $718 0 $718 6.2831853071796004 $362 $719 forward 7 unknown #
vertex $-1 $365 $720 #
ellipse-curve $-1 8.2035907992075465 26.884490944862808 8.0130065121419793 0 0.84804810408105047 0.52991925155115449 1 0 0 1 I I #
coedge $-1 $532 $532 $-1 $721 reversed $368 $-1 #
edge $-1 $722 0 $722 6.2831853071796004 $369 $723 forward 7 unknown #
vertex $-1 $372 $724 #
ellipse-curve $-1 13.707456477401948 26.884490944862808 8.0130065121419793 0 0.84804810408105047 0.52991925155115449 1 0 0 1 I I #
coedge $-1 $536 $536 $-1 $725 reversed $375 $-1 #
edge $-1 $726 0 $726 6.2831853071796004 $376 $727 forward 7 unknown #
vertex $-1 $379 $728 #
ellipse-curve $-1 19.211322155596349 26.884490944862808 8.0130065121419793 0 0.84804810408105047 0.52991925155115449 1 0 0 1 I I #
face $-1 $-1 $395 $57 $-1 $729 reversed single #
loop $-1 $-1 $556 $380 #
plane-surface $-1 0 29.90631539223644 0 0 -1 0 0 0 -1 forward_v I I I I #
coedge $-1 $730 $554 $557 $731 forward $381 $-1 #
coedge $-1 $560 $383 $384 $548 reversed $241 $-1 #
coedge $-1 $554 $730 $383 $546 reversed $381 $-1 #
edge $-1 $561 -12.84893667689763 $732 12.84893667689763 $545 $733 forward 7 unknown #
coedge $-1 $385 $384 $730 $734 forward $153 $-1 #
edge $-1 $552 -69.001129184850612 $732 69.001129184850612 $544 $735 forward 7 unknown #
coedge $-1 $557 $556 $385 $550 reversed $541 $-1 #
edge $-1 $736 -69.001129184850612 $551 69.001129184850612 $549 $737 forward 7 unknown #
vertex $-1 $387 $738 #
vertex $-1 $563 $739 #
straight-curve $-1 69.001129184850612 0 -12.84893667689763 0 -1 0 I I #
coedge $-1 $543 $545 $388 $555 reversed $381 $-1 #
edge $-1 $558 -29.90631539223644 $561 29.90631539223644 $554 $740 forward 7 unknown #
coedge $-1 $549 $389 $394 $564 forward $541 $-1 #
coedge $-1 $389 $549 $543 $731 reversed $541 $-1 #
vertex $-1 $390 $741 #
straight-curve $-1 0 29.90631539223644 12.84893667689763 -1 0 0 I I #
coedge $-1 $391 $544 $393 $563 reversed $241 $-1 #
vertex $-1 $555 $742 #
straight-curve $-1 0 -29.90631539223644 12.84893667689763 1 0 0 I I #
edge $-1 $396 -12.84893667689763 $552 12.84893667689763 $393 $743 forward 7 unknown #
edge $-1 $397 -12.84893667689763 $551 12.84893667689763 $394 $744 forward 7 unknown #
point $-1 69.001129184850612 -29.90631539223644 12.84893667689763 #
point $-1 69.001129184850612 29.90631539223644 12.84893667689763 #
face $-1 $-1 $581 $58 $-1 $745 reversed single #
loop $-1 $-1 $577 $399 #
plane-surface $-1 0 0 12.84893667689763 0 0 1 1 0 0 forward_v I I I I #
coedge $-1 $746 $747 $571 $748 forward $400 $-1 #
coedge $-1 $403 $402 $570 $748 reversed $157 $-1 #
edge $-1 $749 -6.3034804261501591 $411 6.3034804261501591 $402 $750 forward 7 unknown #
coedge $-1 $751 $577 $403 $574 forward $568 $-1 #
edge $-1 $575 69.001129184850612 $752 81.60809003715093 $403 $753 forward 7 unknown #
vertex $-1 $574 $754 #
straight-curve $-1 -69.001129184850612 29.90631539223644 0 0 0 -1 I I #
coedge $-1 $573 $755 $405 $578 forward $568 $-1 #
edge $-1 $582 -29.90631539223644 $575 29.90631539223644 $577 $756 forward 7 unknown #
coedge $-1 $757 $406 $755 $758 reversed $581 $-1 #
coedge $-1 $406 $757 $408 $585 reversed $581 $-1 #
loop $-1 $-1 $406 $567 #
vertex $-1 $407 $759 #
straight-curve $-1 -69.001129184850612 -29.90631539223644 0 0 0 1 I I #
coedge $-1 $409 $408 $746 $760 forward $249 $-1 #
edge $-1 $410 -6.3034804261501591 $761 6.3034804261501591 $580 $762 forward 7 unknown #
point $-1 -69.001129184850612 -29.90631539223644 8.9139081557431812 #
point $-1 -69.001129184850612 29.90631539223644 8.9139081557431812 #
face $-1 $-1 $603 $59 $-1 $763 reversed single #
loop $-1 $-1 $764 $413 #
plane-surface $-1 81.608090037150916 0 10.881422416320405 -1 0 0 0 0 1 forward_v I I I I #
coedge $-1 $425 $424 $765 $766 forward $414 $-1 #
coedge $-1 $767 $416 $425 $606 reversed $257 $-1 #
coedge $-1 $416 $767 $417 $595 reversed $257 $-1 #
coedge $-1 $418 $417 $768 $769 forward $161 $-1 #
edge $-1 $599 -6.3034804261501449 $770 6.3034804261501591 $593 $771 forward 7 unknown #
coedge $-1 $772 $422 $418 $597 reversed $603 $-1 #
edge $-1 $773 -81.608090037150916 $598 -69.001129184850612 $596 $774 forward 7 unknown #
vertex $-1 $423 $775 #
vertex $-1 $595 $776 #
straight-curve $-1 69.001129184850612 0 12.84893667689763 0 -1 0 I I #
straight-curve $-1 69.001129184850612 -29.90631539223644 0 0 0 -1 I I #
coedge $-1 $422 $772 $424 $605 reversed $603 $-1 #
loop $-1 $-1 $422 $588 #
straight-curve $-1 69.001129184850612 29.90631539223644 0 0 0 1 I I #
edge $-1 $426 -6.3034804261501591 $777 6.3034804261501591 $602 $778 forward 7 unknown #
edge $-1 $779 -6.3034804261501591 $427 6.3034804261501591 $592 $780 forward 7 unknown #
point $-1 69.001129184850598 29.90631539223644 8.9139081557431812 #
point $-1 69.001129184850598 -29.90631539223644 8.9139081557431812 #
plane-surface $-1 0 0 12.84893667689763 0 0 1 1 0 0 forward_v I I I I #
coedge $-1 $620 $619 $612 $781 forward $430 $-1 #
coedge $-1 $612 $432 $434 $616 reversed $265 $-1 #
coedge $-1 $432 $611 $610 $781 reversed $265 $-1 #
coedge $-1 $440 $435 $432 $614 forward $441 $-1 #
edge $-1 $617 -49.606767983293224 $782 -43.563119088545974 $613 $783 forward 7 unknown #
coedge $-1 $434 $433 $620 $784 reversed $165 $-1 #
edge $-1 $785 -3.3516233665424181e-014 $617 11.404848714321197 $611 $786 forward 7 unknown #
vertex $-1 $436 $787 #
straight-curve $-1 -21.343355927574173 -23.862666497489187 12.84893667689763 -1 0 0 I I #
coedge $-1 $610 $437 $440 $624 reversed $430 $-1 #
coedge $-1 $437 $610 $615 $784 forward $430 $-1 #
vertex $-1 $438 $788 #
straight-curve $-1 -33.513602391491013 -29.906315392236436 38.153564907513726 0 0 1 I I #
straight-curve $-1 -33.513602391491013 -29.906315392236422 3.1770763473863326 0 -0.52991925155115449 -0.84804810408105047 I I #
edge $-1 $782 -127.16443092980643 $442 -108.81821200249178 $619 $789 forward 7 unknown #
point $-1 -33.51360239149102 -29.90631539223644 12.848936676897628 #
point $-1 -33.513602391491013 -23.862666497489187 12.84893667689763 #
edge $-1 $790 1 $790 0 $445 $-1 forward 7 unknown #
vertex $-1 $446 $791 #
ellipse-curve $-1 -48.190577533342747 -24.98646989438863 6.8269913678884491 0 -0.84804810408105047 0.52991925155115449 1 0 0 1 I I #
point $-1 -47.190577533342747 -26.884490944862826 8.0130065121419811 #
edge $-1 $792 1 $792 0 $449 $-1 forward 7 unknown #
vertex $-1 $450 $793 #
ellipse-curve $-1 -42.686711855148346 -24.98646989438863 6.8269913678884491 0 -0.84804810408105047 0.52991925155115449 1 0 0 1 I I #
point $-1 -41.686711855148346 -26.884490944862826 8.0130065121419811 #
edge $-1 $794 1 $794 0 $453 $-1 forward 7 unknown #
vertex $-1 $454 $795 #
ellipse-curve $-1 -37.182846176953944 -24.98646989438863 6.8269913678884491 0 -0.84804810408105047 0.52991925155115449 1 0 0 1 I I #
point $-1 -36.182846176953944 -26.884490944862826 8.0130065121419811 #
plane-surface $-1 0 0 12.84893667689763 0 0 1 1 0 0 forward_v I I I I #
coedge $-1 $650 $649 $642 $796 forward $458 $-1 #
coedge $-1 $642 $460 $462 $646 reversed $294 $-1 #
coedge $-1 $460 $641 $640 $796 reversed $294 $-1 #
coedge $-1 $468 $463 $460 $644 forward $469 $-1 #
edge $-1 $647 -49.606767983293224 $797 -43.563119088545974 $643 $798 forward 7 unknown #
coedge $-1 $462 $461 $650 $799 reversed $184 $-1 #
edge $-1 $800 -3.3516233665424181e-014 $647 11.404848714321197 $641 $801 forward 7 unknown #
vertex $-1 $464 $802 #
straight-curve $-1 6.8537282387009739 -23.862666497489187 12.84893667689763 -1 0 0 I I #
coedge $-1 $640 $465 $468 $654 reversed $458 $-1 #
coedge $-1 $465 $640 $645 $799 forward $458 $-1 #
vertex $-1 $466 $803 #
straight-curve $-1 22.880565941059281 -29.906315392236436 38.153564907513726 0 0 1 I I #
straight-curve $-1 22.880565941059281 -29.906315392236422 3.1770763473863326 0 -0.52991925155115449 -0.84804810408105047 I I #
edge $-1 $797 -70.770262597256135 $470 -52.424043669941476 $649 $804 forward 7 unknown #
point $-1 22.880565941059281 -29.90631539223644 12.848936676897628 #
point $-1 22.880565941059281 -23.862666497489187 12.84893667689763 #
edge $-1 $805 1 $805 0 $473 $-1 forward 7 unknown #
vertex $-1 $474 $806 #
ellipse-curve $-1 8.2035907992075465 -24.98646989438863 6.8269913678884491 0 -0.84804810408105047 0.52991925155115449 1 0 0 1 I I #
point $-1 9.2035907992075465 -26.884490944862826 8.0130065121419811 #
edge $-1 $807 1 $807 0 $477 $-1 forward 7 unknown #
vertex $-1 $478 $808 #
ellipse-curve $-1 13.707456477401948 -24.98646989438863 6.8269913678884491 0 -0.84804810408105047 0.52991925155115449 1 0 0 1 I I #
point $-1 14.707456477401948 -26.884490944862826 8.0130065121419811 #
edge $-1 $809 1 $809 0 $481 $-1 forward 7 unknown #
vertex $-1 $482 $810 #
ellipse-curve $-1 19.211322155596349 -24.98646989438863 6.8269913678884491 0 -0.84804810408105047 0.52991925155115449 1 0 0 1 I I #
point $-1 20.211322155596349 -26.884490944862826 8.0130065121419811 #
plane-surface $-1 0 0 12.84893667689763 0 0 1 1 0 0 forward_v I I I I #
coedge $-1 $680 $679 $672 $811 forward $486 $-1 #
coedge $-1 $672 $488 $490 $676 reversed $323 $-1 #
coedge $-1 $488 $671 $670 $811 reversed $323 $-1 #
coedge $-1 $496 $491 $488 $674 forward $497 $-1 #
edge $-1 $677 -33.758835713986521 $812 -27.715186819239268 $673 $813 forward 7 unknown #
coedge $-1 $490 $489 $680 $814 reversed $203 $-1 #
edge $-1 $815 -59.812630784472901 $677 -48.407782070151676 $671 $816 forward 7 unknown #
vertex $-1 $492 $817 #
straight-curve $-1 -21.343355927574173 23.862666497489187 12.84893667689763 1 0 0 I I #
coedge $-1 $670 $493 $496 $684 reversed $486 $-1 #
coedge $-1 $493 $670 $675 $814 forward $486 $-1 #
vertex $-1 $494 $818 #
straight-curve $-1 -51.859821318805679 29.906315392236436 63.515558975949773 0 0 1 I I #
straight-curve $-1 -51.859821318805679 -1.7895491463769844 53.901064484258427 0 0.52991925155115449 -0.84804810408105047 I I #
edge $-1 $812 33.513602391491013 $498 51.859821318805679 $679 $819 forward 7 unknown #
point $-1 -51.859821318805679 29.90631539223644 12.84893667689763 #
point $-1 -51.859821318805679 23.862666497489187 12.84893667689763 #
edge $-1 $820 1 $820 0 $501 $-1 forward 7 unknown #
vertex $-1 $502 $821 #
ellipse-curve $-1 -48.190577533342747 24.986469894388627 6.8269913678884562 0 0.84804810408105047 0.52991925155115449 1 0 0 1 I I #
point $-1 -47.190577533342747 26.884490944862819 8.0130065121419882 #
edge $-1 $822 1 $822 0 $505 $-1 forward 7 unknown #
vertex $-1 $506 $823 #
ellipse-curve $-1 -42.686711855148346 24.986469894388627 6.8269913678884562 0 0.84804810408105047 0.52991925155115449 1 0 0 1 I I #
point $-1 -41.686711855148346 26.884490944862819 8.0130065121419882 #
edge $-1 $824 1 $824 0 $509 $-1 forward 7 unknown #
vertex $-1 $510 $825 #
ellipse-curve $-1 -37.182846176953944 24.986469894388627 6.8269913678884562 0 0.84804810408105047 0.52991925155115449 1 0 0 1 I I #
point $-1 -36.182846176953944 26.884490944862819 8.0130065121419882 #
loop $-1 $-1 $521 $513 #
plane-surface $-1 0 29.90631539223644 0 0 -1 0 0 0 -1 forward_v I I I I #
coedge $-1 $702 $516 $518 $706 reversed $352 $-1 #
coedge $-1 $516 $701 $826 $827 reversed $352 $-1 #
coedge $-1 $524 $519 $516 $704 forward $514 $-1 #
edge $-1 $707 -33.758835713986521 $828 -27.715186819239268 $703 $829 forward 7 unknown #
coedge $-1 $518 $517 $710 $830 reversed $222 $-1 #
edge $-1 $831 -59.812630784472901 $707 -48.407782070151676 $701 $832 forward 7 unknown #
vertex $-1 $520 $833 #
straight-curve $-1 6.8537282387009739 23.862666497489187 12.84893667689763 1 0 0 I I #
coedge $-1 $826 $521 $524 $714 reversed $699 $-1 #
coedge $-1 $521 $826 $705 $830 forward $699 $-1 #
vertex $-1 $522 $834 #
straight-curve $-1 4.5343470137446147 29.906315392236436 63.515558975949773 0 0 1 I I #
straight-curve $-1 4.5343470137446147 -1.7895491463769844 53.901064484258427 0 0.52991925155115449 -0.84804810408105047 I I #
edge $-1 $828 -22.880565941059281 $525 -4.5343470137446147 $709 $835 forward 7 unknown #
point $-1 4.5343470137446147 29.90631539223644 12.84893667689763 #
point $-1 4.5343470137446147 23.862666497489187 12.84893667689763 #
edge $-1 $836 1 $836 0 $528 $-1 forward 7 unknown #
vertex $-1 $529 $837 #
ellipse-curve $-1 8.2035907992075465 24.986469894388627 6.8269913678884562 0 0.84804810408105047 0.52991925155115449 1 0 0 1 I I #
point $-1 9.2035907992075465 26.884490944862819 8.0130065121419882 #
edge $-1 $838 1 $838 0 $532 $-1 forward 7 unknown #
vertex $-1 $533 $839 #
ellipse-curve $-1 13.707456477401948 24.986469894388627 6.8269913678884562 0 0.84804810408105047 0.52991925155115449 1 0 0 1 I I #
point $-1 14.707456477401948 26.884490944862819 8.0130065121419882 #
edge $-1 $840 1 $840 0 $536 $-1 forward 7 unknown #
vertex $-1 $537 $841 #
ellipse-curve $-1 19.211322155596349 24.986469894388627 6.8269913678884562 0 0.84804810408105047 0.52991925155115449 1 0 0 1 I I #
point $-1 20.211322155596349 26.884490944862819 8.0130065121419882 #
plane-surface $-1 69.001129184850612 0 0 -1 0 0 0 0 1 forward_v I I I I #
coedge $-1 $545 $543 $547 $734 reversed $381 $-1 #
edge $-1 $558 -12.84893667689763 $736 12.84893667689763 $557 $842 forward 7 unknown #
vertex $-1 $734 $843 #
straight-curve $-1 -69.001129184850612 -29.90631539223644 0 0 0 -1 I I #
edge $-1 $732 -29.90631539223644 $736 29.90631539223644 $730 $844 forward 7 unknown #
straight-curve $-1 0 -29.90631539223644 -12.84893667689763 -1 0 0 I I #
vertex $-1 $550 $845 #
straight-curve $-1 0 29.90631539223644 -12.84893667689763 1 0 0 I I #
point $-1 69.001129184850612 29.90631539223644 -12.84893667689763 #
point $-1 69.001129184850612 -29.90631539223644 -12.84893667689763 #
straight-curve $-1 -69.001129184850612 0 12.84893667689763 0 -1 0 I I #
point $-1 -69.001129184850612 29.90631539223644 12.84893667689763 #
point $-1 -69.001129184850612 -29.90631539223644 12.84893667689763 #
straight-curve $-1 69.001129184850612 -29.90631539223644 0 0 0 -1 I I #
straight-curve $-1 69.001129184850612 29.90631539223644 0 0 0 -1 I I #
plane-surface $-1 0 -29.90631539223644 0 0 1 0 0 0 1 forward_v I I I I #
coedge $-1 $846 $570 $584 $760 reversed $400 $-1 #
coedge $-1 $570 $846 $751 $847 reversed $400 $-1 #
edge $-1 $752 -1.9675142605772233 $749 1.9675142605772233 $571 $848 forward 7 unknown #
vertex $-1 $572 $849 #
straight-curve $-1 -75.304609611000771 29.90631539223644 8.9139081557431812 1 0 0 I I #
coedge $-1 $755 $573 $747 $847 forward $568 $-1 #
vertex $-1 $574 $850 #
straight-curve $-1 0 29.90631539223644 12.84893667689763 -1 0 0 I I #
point $-1 -69.001129184850612 29.90631539223644 12.84893667689763 #
coedge $-1 $577 $751 $579 $758 forward $568 $-1 #
straight-curve $-1 -69.001129184850612 0 12.84893667689763 0 1 0 I I #
coedge $-1 $580 $579 $846 $851 forward $581 $-1 #
edge $-1 $852 -81.60809003715093 $582 -69.001129184850612 $579 $853 forward 7 unknown #
point $-1 -69.001129184850612 -29.90631539223644 12.84893667689763 #
edge $-1 $761 -29.90631539223644 $749 29.90631539223644 $746 $854 forward 7 unknown #
vertex $-1 $760 $855 #
straight-curve $-1 -75.304609611000771 -29.90631539223644 8.9139081557431812 -1 0 0 I I #
plane-surface $-1 0 29.90631539223644 0 0 -1 0 0 0 -1 forward_v I I I I #
coedge $-1 $765 $768 $767 $856 forward $589 $-1 #
coedge $-1 $857 $764 $591 $766 reversed $589 $-1 #
edge $-1 $777 -29.90631539223644 $779 29.90631539223644 $765 $858 forward 7 unknown #
coedge $-1 $593 $592 $764 $856 reversed $257 $-1 #
coedge $-1 $764 $857 $594 $769 reversed $589 $-1 #
edge $-1 $770 -29.90631539223644 $773 29.90631539223644 $768 $859 forward 7 unknown #
vertex $-1 $769 $860 #
straight-curve $-1 75.304609611000757 -29.90631539223644 12.848936676897628 1 0 0 I I #
coedge $-1 $602 $596 $857 $861 forward $603 $-1 #
vertex $-1 $769 $862 #
straight-curve $-1 0 29.90631539223644 12.84893667689763 -1 0 0 I I #
point $-1 69.001129184850612 29.90631539223644 12.84893667689763 #
point $-1 69.001129184850612 -29.90631539223644 12.84893667689763 #
vertex $-1 $766 $863 #
straight-curve $-1 75.304609611000757 29.90631539223644 8.9139081557431812 1 0 0 I I #
vertex $-1 $856 $864 #
straight-curve $-1 75.304609611000757 -29.90631539223644 8.9139081557431812 -1 0 0 I I #
edge $-1 $782 25.304628230616096 $785 34.976488560127422 $610 $865 forward 7 unknown #
vertex $-1 $624 $866 #
straight-curve $-1 -51.859821318805679 -73.469434480782411 12.84893667689763 0 -1 0 I I #
edge $-1 $785 -30.516465391231506 $621 -12.17024646391684 $620 $867 forward 7 unknown #
vertex $-1 $784 $868 #
straight-curve $-1 -51.859821318805679 -29.906315392236422 3.1770763473863326 0 0.52991925155115449 0.84804810408105047 I I #
point $-1 -51.859821318805679 -23.862666497489187 12.84893667689763 #
point $-1 -33.513602391491013 -29.90631539223644 3.1770763473863042 #
straight-curve $-1 75.304609611000757 -29.90631539223644 12.848936676897628 1 0 0 I I #
vertex $-1 $627 $869 #
point $-1 -47.190577533342747 -24.98646989438863 6.8269913678884491 #
vertex $-1 $631 $870 #
point $-1 -41.686711855148346 -24.98646989438863 6.8269913678884491 #
vertex $-1 $635 $871 #
point $-1 -36.182846176953944 -24.98646989438863 6.8269913678884491 #
edge $-1 $797 25.304628230616096 $800 34.976488560127422 $640 $872 forward 7 unknown #
vertex $-1 $654 $873 #
straight-curve $-1 4.5343470137446147 -73.469434480782411 12.84893667689763 0 -1 0 I I #
edge $-1 $800 -2.3193812249563592 $651 16.026837702358307 $650 $874 forward 7 unknown #
vertex $-1 $799 $875 #
straight-curve $-1 4.5343470137446147 -29.906315392236422 3.1770763473863326 0 0.52991925155115449 0.84804810408105047 I I #
point $-1 4.5343470137446147 -23.862666497489187 12.84893667689763 #
point $-1 22.880565941059281 -29.90631539223644 3.1770763473863042 #
straight-curve $-1 75.304609611000757 -29.90631539223644 12.848936676897628 1 0 0 I I #
vertex $-1 $657 $876 #
point $-1 9.2035907992075465 -24.98646989438863 6.8269913678884491 #
vertex $-1 $661 $877 #
point $-1 14.707456477401948 -24.98646989438863 6.8269913678884491 #
vertex $-1 $665 $878 #
point $-1 20.211322155596349 -24.98646989438863 6.8269913678884491 #
edge $-1 $812 50.666622299052143 $815 60.338482628563469 $670 $879 forward 7 unknown #
vertex $-1 $684 $880 #
straight-curve $-1 -33.513602391491013 57.621502211475708 12.84893667689763 0 1 0 I I #
edge $-1 $815 12.17024646391684 $681 30.516465391231506 $680 $881 forward 7 unknown #
vertex $-1 $814 $882 #
straight-curve $-1 -33.513602391491013 -1.7895491463769844 53.901064484258427 0 -0.52991925155115449 0.84804810408105047 I I #
point $-1 -33.513602391491013 23.862666497489187 12.84893667689763 #
point $-1 -51.859821318805679 29.90631539223644 3.1770763473863042 #
straight-curve $-1 0 29.90631539223644 12.84893667689763 -1 0 0 I I #
vertex $-1 $687 $883 #
point $-1 -47.190577533342747 24.986469894388627 6.8269913678884562 #
vertex $-1 $691 $884 #
point $-1 -41.686711855148346 24.986469894388627 6.8269913678884562 #
vertex $-1 $695 $885 #
point $-1 -36.182846176953944 24.986469894388627 6.8269913678884562 #
coedge $-1 $710 $709 $702 $827 forward $699 $-1 #
edge $-1 $828 50.666622299052143 $831 60.338482628563469 $826 $886 forward 7 unknown #
vertex $-1 $714 $887 #
straight-curve $-1 22.880565941059281 57.621502211475708 12.84893667689763 0 1 0 I I #
edge $-1 $831 -16.026837702358307 $711 2.3193812249563592 $710 $888 forward 7 unknown #
vertex $-1 $830 $889 #
straight-curve $-1 22.880565941059281 -1.7895491463769844 53.901064484258427 0 -0.52991925155115449 0.84804810408105047 I I #
point $-1 22.880565941059281 23.862666497489187 12.84893667689763 #
point $-1 4.5343470137446147 29.90631539223644 3.1770763473863042 #
straight-curve $-1 0 29.90631539223644 12.84893667689763 -1 0 0 I I #
vertex $-1 $717 $890 #
point $-1 9.2035907992075465 24.986469894388627 6.8269913678884562 #
vertex $-1 $721 $891 #
point $-1 14.707456477401948 24.986469894388627 6.8269913678884562 #
vertex $-1 $725 $892 #
point $-1 20.211322155596349 24.986469894388627 6.8269913678884562 #
straight-curve $-1 -69.001129184850612 29.90631539223644 0 0 0 -1 I I #
point $-1 -69.001129184850612 -29.90631539223644 -12.84893667689763 #
straight-curve $-1 -69.001129184850612 0 -12.84893667689763 0 1 0 I I #
point $-1 -69.001129184850612 29.90631539223644 -12.84893667689763 #
coedge $-1 $747 $746 $757 $851 reversed $400 $-1 #
edge $-1 $752 -29.90631539223644 $852 29.90631539223644 $747 $893 forward 7 unknown #
straight-curve $-1 -81.60809003715093 29.90631539223644 10.881422416320405 0 0 -1 I I #
point $-1 -81.60809003715093 29.90631539223644 8.9139081557431812 #
point $-1 -81.60809003715093 29.90631539223644 12.848936676897628 #
edge $-1 $852 -1.9675142605772233 $761 1.9675142605772233 $846 $894 forward 7 unknown #
vertex $-1 $847 $895 #
straight-curve $-1 0 -29.90631539223644 12.84893667689763 1 0 0 I I #
straight-curve $-1 -81.60809003715093 0 8.9139081557431812 0 1 0 I I #
point $-1 -81.60809003715093 -29.90631539223644 8.9139081557431812 #
edge $-1 $770 -1.9675142605772233 $779 1.9675142605772233 $764 $896 forward 7 unknown #
coedge $-1 $768 $765 $772 $861 reversed $589 $-1 #
straight-curve $-1 81.608090037150916 0 8.9139081557431812 0 -1 0 I I #
straight-curve $-1 81.608090037150916 0 12.848936676897628 0 1 0 I I #
point $-1 81.608090037150916 -29.90631539223644 12.848936676897628 #
edge $-1 $773 -1.9675142605772233 $777 1.9675142605772233 $857 $897 forward 7 unknown #
point $-1 81.608090037150916 29.90631539223644 12.848936676897628 #
point $-1 81.608090037150916 29.90631539223644 8.9139081557431812 #
point $-1 81.608090037150916 -29.90631539223644 8.9139081557431812 #
straight-curve $-1 -51.859821318805679 -29.906315392236436 38.153564907513726 0 0 -1 I I #
point $-1 -51.859821318805672 -29.90631539223644 12.848936676897628 #
straight-curve $-1 -21.343355927574173 -29.90631539223644 3.1770763473863028 1 0 0 I I #
point $-1 -51.859821318805679 -29.90631539223644 3.1770763473863042 #
point $-1 -48.190577533342747 -24.138421790307579 6.2970721163372945 #
point $-1 -42.686711855148346 -24.138421790307579 6.2970721163372945 #
point $-1 -37.182846176953944 -24.138421790307579 6.2970721163372945 #
straight-curve $-1 4.5343470137446147 -29.906315392236436 38.153564907513726 0 0 -1 I I #
point $-1 4.5343470137446218 -29.90631539223644 12.848936676897628 #
straight-curve $-1 6.8537282387009739 -29.90631539223644 3.1770763473863028 1 0 0 I I #
point $-1 4.5343470137446147 -29.90631539223644 3.1770763473863042 #
point $-1 8.2035907992075465 -24.138421790307579 6.2970721163372945 #
point $-1 13.707456477401948 -24.138421790307579 6.2970721163372945 #
point $-1 19.211322155596349 -24.138421790307579 6.2970721163372945 #
straight-curve $-1 -33.513602391491013 29.906315392236436 63.515558975949773 0 0 -1 I I #
point $-1 -33.513602391491013 29.90631539223644 12.84893667689763 #
straight-curve $-1 -21.343355927574173 29.906315392236436 3.1770763473863042 -1 0 0 I I #
point $-1 -33.513602391491013 29.90631539223644 3.1770763473863042 #
point $-1 -48.190577533342747 24.138421790307575 6.2970721163373016 #
point $-1 -42.686711855148346 24.138421790307575 6.2970721163373016 #
point $-1 -37.182846176953944 24.138421790307575 6.2970721163373016 #
straight-curve $-1 22.880565941059281 29.906315392236436 63.515558975949773 0 0 -1 I I #
point $-1 22.880565941059281 29.90631539223644 12.84893667689763 #
straight-curve $-1 6.8537282387009739 29.906315392236436 3.1770763473863042 -1 0 0 I I #
point $-1 22.880565941059281 29.90631539223644 3.1770763473863042 #
point $-1 8.2035907992075465 24.138421790307575 6.2970721163373016 #
point $-1 13.707456477401948 24.138421790307575 6.2970721163373016 #
point $-1 19.211322155596349 24.138421790307575 6.2970721163373016 #
straight-curve $-1 -81.60809003715093 0 12.848936676897628 0 -1 0 I I #
straight-curve $-1 -81.60809003715093 -29.90631539223644 10.881422416320405 0 0 -1 I I #
point $-1 -81.60809003715093 -29.90631539223644 12.848936676897628 #
straight-curve $-1 81.608090037150916 -29.90631539223644 10.881422416320405 0 0 -1 I I #
straight-curve $-1 81.608090037150916 29.90631539223644 10.881422416320405 0 0 -1 I I #
End-of-ACIS-data 