600 0 9 0           
109 GICL ACIS Healer - Source: /gicl/data5/repository/Drexel/CICIRELLO-THESISDATA/Part10010.smdg.deltas.sat - 6 0 18 ACIS 6.0.3 Solaris 24 Fri Apr 12 10:24:09 2002 
1 9.999999999999999547e-07 1.000000000000000036e-10 
body $-1 $9 $-1 $-1 #
body $-1 $10 $-1 $-1 #
body $-1 $11 $-1 $-1 #
body $-1 $12 $-1 $-1 #
body $-1 $13 $-1 $-1 #
body $-1 $14 $-1 $-1 #
body $-1 $15 $-1 $-1 #
body $-1 $16 $-1 $-1 #
body $-1 $17 $-1 $-1 #
lump $-1 $-1 $18 $0 #
lump $-1 $-1 $19 $1 #
lump $-1 $-1 $20 $2 #
lump $-1 $-1 $21 $3 #
lump $-1 $-1 $22 $4 #
lump $-1 $-1 $23 $5 #
lump $-1 $-1 $24 $6 #
lump $-1 $-1 $25 $7 #
lump $-1 $-1 $26 $8 #
shell $-1 $-1 $-1 $27 $-1 $9 #
shell $-1 $-1 $-1 $28 $-1 $10 #
shell $-1 $-1 $-1 $29 $-1 $11 #
shell $-1 $-1 $-1 $30 $-1 $12 #
shell $-1 $-1 $-1 $31 $-1 $13 #
shell $-1 $-1 $-1 $32 $-1 $14 #
shell $-1 $-1 $-1 $33 $-1 $15 #
shell $-1 $-1 $-1 $34 $-1 $16 #
shell $-1 $-1 $-1 $35 $-1 $17 #
face $-1 $36 $37 $18 $-1 $38 forward single #
face $-1 $39 $40 $19 $-1 $41 forward single #
face $-1 $42 $43 $20 $-1 $44 reversed single #
face $-1 $45 $46 $21 $-1 $47 forward single #
face $-1 $48 $49 $22 $-1 $50 forward single #
face $-1 $51 $52 $23 $-1 $53 reversed single #
face $-1 $54 $55 $24 $-1 $56 forward single #
face $-1 $57 $58 $25 $-1 $59 forward single #
face $-1 $60 $61 $26 $-1 $62 forward single #
face $-1 $63 $64 $18 $-1 $65 reversed single #
loop $-1 $-1 $66 $27 #
plane-surface $-1 58.36603900265511413 26.43349046893220589 24.94365709395054864 0 0 1 1 0 0 forward_v I I I I #
face $-1 $67 $68 $19 $-1 $69 reversed single #
loop $-1 $-1 $70 $28 #
plane-surface $-1 0 26.43349046893220589 12.47182854697527432 1 0 0 0 0 -1 forward_v I I I I #
face $-1 $71 $72 $20 $-1 $73 reversed single #
loop $-1 $-1 $74 $29 #
plane-surface $-1 20.60606560403803655 80.89665207213519693 141.6136005052063069 1 0 0 0 -0.6018150307709319025 -0.7986355043060522352 forward_v I I I I #
face $-1 $75 $76 $21 $-1 $77 forward single #
loop $-1 $78 $79 $30 #
cone-surface $-1 28.20852578074018524 45.43250865077209255 18.26374739417352799 0 -0.6018150307709319025 -0.7986355043060522352 2 0 0 1 I I 0 1 2 forward I I I I #
face $-1 $80 $81 $22 $-1 $82 forward single #
loop $-1 $83 $84 $31 #
cone-surface $-1 39.61221604579341715 45.43250865077209255 18.26374739417352799 0 -0.6018150307709319025 -0.7986355043060522352 2 0 0 1 I I 0 1 2 forward I I I I #
face $-1 $85 $86 $23 $-1 $87 reversed single #
loop $-1 $-1 $88 $32 #
plane-surface $-1 92.71263909409431392 -71.86744426383259565 104.4637419236673708 -1 0 0 0 -0.6156614830463592591 0.788010747574649173 forward_v I I I I #
face $-1 $89 $90 $24 $-1 $91 forward single #
loop $-1 $92 $93 $33 #
cone-surface $-1 81.84619475917649822 8.777315456064112453 17.68743638452995981 0 0.6156614830463592591 -0.788010747574649173 1 0 0 1 I I 0 1 1 forward I I I I #
face $-1 $94 $95 $25 $-1 $96 forward single #
loop $-1 $97 $98 $34 #
cone-surface $-1 85.92111138477068266 8.777315456064112453 17.68743638452995981 0 0.6156614830463592591 -0.788010747574649173 1 0 0 1 I I 0 1 1 forward I I I I #
face $-1 $99 $100 $26 $-1 $101 forward single #
loop $-1 $102 $103 $35 #
cone-surface $-1 89.9960280103648671 8.777315456064112453 17.68743638452995981 0 0.6156614830463592591 -0.788010747574649173 1 0 0 1 I I 0 1 1 forward I I I I #
face $-1 $104 $105 $18 $-1 $106 reversed single #
loop $-1 $-1 $107 $36 #
plane-surface $-1 58.36603900265511413 26.43349046893220589 0 0 0 1 1 0 0 forward_v I I I I #
coedge $-1 $108 $109 $110 $111 forward $37 $-1 #
face $-1 $112 $113 $19 $-1 $114 forward single #
loop $-1 $-1 $115 $39 #
plane-surface $-1 58.36603900265511413 52.86698093786441177 12.47182854697527432 0 -1 0 0 0 -1 forward_v I I I I #
coedge $-1 $116 $117 $118 $119 forward $40 $-1 #
face $-1 $120 $121 $20 $-1 $122 reversed single #
loop $-1 $-1 $123 $42 #
plane-surface $-1 33.91037091326680297 10.64553295541459477 48.38721851874194613 0 0.6018150307709319025 0.7986355043060522352 1 0 0 forward_v I I I I #
coedge $-1 $124 $125 $126 $127 reversed $43 $-1 #
face $-1 $-1 $128 $21 $-1 $129 forward single #
loop $-1 $130 $131 $45 #
cone-surface $-1 28.20852578074018524 42.95161723833136591 14.97149335763833733 0 -0.6018150307709319025 -0.7986355043060522352 1 0 0 1 I I -0.7071067811865474617 0.7071067811865474617 1 forward I I I I #
loop $-1 $-1 $132 $30 #
coedge $-1 $79 $79 $133 $134 reversed $46 $-1 #
face $-1 $-1 $135 $22 $-1 $136 forward single #
loop $-1 $137 $138 $48 #
cone-surface $-1 39.61221604579341715 42.95161723833136591 14.97149335763833733 0 -0.6018150307709319025 -0.7986355043060522352 1 0 0 1 I I -0.7071067811865474617 0.7071067811865474617 1 forward I I I I #
loop $-1 $-1 $139 $31 #
coedge $-1 $84 $84 $140 $141 reversed $49 $-1 #
face $-1 $142 $143 $23 $-1 $144 reversed single #
loop $-1 $-1 $145 $51 #
plane-surface $-1 85.92111138477068266 0 12.47760986876059519 0 -0.6156614830463592591 0.788010747574649173 1 0 0 forward_v I I I I #
coedge $-1 $146 $147 $148 $149 reversed $52 $-1 #
face $-1 $-1 $150 $24 $-1 $151 forward single #
loop $-1 $152 $153 $54 #
cone-surface $-1 81.84619475917649822 9.884555398564859985 16.27023391391702134 0 0.6156614830463592591 -0.788010747574649173 0.5 0 0 1 I I -0.7071067811865474617 0.7071067811865474617 0.5 forward I I I I #
loop $-1 $-1 $154 $33 #
coedge $-1 $93 $93 $155 $156 reversed $55 $-1 #
face $-1 $-1 $157 $25 $-1 $158 forward single #
loop $-1 $159 $160 $57 #
cone-surface $-1 85.92111138477068266 9.884555398564859985 16.27023391391702134 0 0.6156614830463592591 -0.788010747574649173 0.5 0 0 1 I I -0.7071067811865474617 0.7071067811865474617 0.5 forward I I I I #
loop $-1 $-1 $161 $34 #
coedge $-1 $98 $98 $162 $163 reversed $58 $-1 #
face $-1 $-1 $164 $26 $-1 $165 forward single #
loop $-1 $166 $167 $60 #
cone-surface $-1 89.9960280103648671 9.884555398564859985 16.27023391391702134 0 0.6156614830463592591 -0.788010747574649173 0.5 0 0 1 I I -0.7071067811865474617 0.7071067811865474617 0.5 forward I I I I #
loop $-1 $-1 $168 $35 #
coedge $-1 $103 $103 $169 $170 reversed $61 $-1 #
face $-1 $171 $172 $18 $-1 $173 reversed single #
loop $-1 $-1 $174 $63 #
plane-surface $-1 58.36603900265511413 0 12.47182854697527432 0 1 0 0 0 1 forward_v I I I I #
coedge $-1 $175 $176 $177 $178 forward $64 $-1 #
coedge $-1 $179 $66 $180 $181 forward $37 $-1 #
coedge $-1 $66 $179 $182 $183 forward $37 $-1 #
coedge $-1 $184 $185 $66 $111 reversed $186 $-1 #
edge $-1 $187 -26.43349046893220589 $188 26.43349046893220589 $110 $189 forward 7 unknown #
face $-1 $190 $191 $19 $-1 $192 reversed single #
loop $-1 $-1 $118 $67 #
plane-surface $-1 -5.477765491851734225 26.43349046893220589 6.475972327767165915 0 0 1 1 0 0 forward_v I I I I #
coedge $-1 $193 $194 $117 $195 forward $68 $-1 #
coedge $-1 $196 $70 $197 $198 reversed $40 $-1 #
coedge $-1 $70 $196 $115 $195 reversed $40 $-1 #
coedge $-1 $199 $200 $70 $119 reversed $113 $-1 #
edge $-1 $201 -26.43349046893220589 $202 26.43349046893220589 $118 $203 forward 7 unknown #
face $-1 $204 $205 $20 $-1 $206 forward single #
loop $-1 $-1 $207 $71 #
plane-surface $-1 47.21467622249556939 80.89665207213519693 141.6136005052063069 -1 0 0 0 0.6018150307709319025 0.7986355043060522352 forward_v I I I I #
coedge $-1 $208 $209 $210 $211 reversed $72 $-1 #
coedge $-1 $125 $74 $212 $213 reversed $43 $-1 #
coedge $-1 $74 $124 $208 $214 reversed $43 $-1 #
coedge $-1 $210 $215 $74 $127 forward $205 $-1 #
edge $-1 $216 0.7980903326692896371 $217 11.90888214351436147 $126 $218 forward 7 unknown #
loop $-1 $-1 $133 $75 #
plane-surface $-1 33.91037091326680297 10.64553295541459477 48.38721851874194613 0 0.6018150307709319025 0.7986355043060522352 1 0 0 forward_v I I I I #
loop $-1 $-1 $219 $45 #
coedge $-1 $131 $131 $132 $220 reversed $76 $-1 #
coedge $-1 $132 $132 $131 $220 forward $78 $-1 #
coedge $-1 $133 $133 $79 $134 forward $128 $-1 #
edge $-1 $221 6.992467885962139914e-16 $221 6.28318530717958712 $133 $222 forward 7 unknown #
loop $-1 $-1 $140 $80 #
plane-surface $-1 33.91037091326680297 10.64553295541459477 48.38721851874194613 0 0.6018150307709319025 0.7986355043060522352 1 0 0 forward_v I I I I #
loop $-1 $-1 $223 $48 #
coedge $-1 $138 $138 $139 $224 reversed $81 $-1 #
coedge $-1 $139 $139 $138 $224 forward $83 $-1 #
coedge $-1 $140 $140 $84 $141 forward $135 $-1 #
edge $-1 $225 6.992467885962139914e-16 $225 6.28318530717958712 $140 $226 forward 7 unknown #
face $-1 $227 $228 $23 $-1 $229 reversed single #
loop $-1 $-1 $230 $85 #
plane-surface $-1 79.12958367544705141 -71.86744426383259565 104.4637419236673708 1 0 0 0 0.6156614830463592591 -0.788010747574649173 forward_v I I I I #
coedge $-1 $231 $232 $233 $234 reversed $86 $-1 #
coedge $-1 $147 $88 $235 $236 reversed $52 $-1 #
coedge $-1 $88 $146 $231 $237 reversed $52 $-1 #
coedge $-1 $233 $238 $88 $149 forward $239 $-1 #
edge $-1 $240 22.71697689745019488 $241 38.67278940762328432 $148 $242 forward 7 unknown #
loop $-1 $-1 $155 $89 #
plane-surface $-1 85.92111138477068266 0 12.47760986876059519 0 -0.6156614830463592591 0.788010747574649173 1 0 0 forward_v I I I I #
loop $-1 $-1 $243 $54 #
coedge $-1 $153 $153 $154 $244 reversed $90 $-1 #
coedge $-1 $154 $154 $153 $244 forward $92 $-1 #
coedge $-1 $155 $155 $93 $156 forward $150 $-1 #
edge $-1 $245 2.799576561950264779e-15 $245 6.283185307179588897 $155 $246 forward 7 unknown #
loop $-1 $-1 $162 $94 #
plane-surface $-1 85.92111138477068266 0 12.47760986876059519 0 -0.6156614830463592591 0.788010747574649173 1 0 0 forward_v I I I I #
loop $-1 $-1 $247 $57 #
coedge $-1 $160 $160 $161 $248 reversed $95 $-1 #
coedge $-1 $161 $161 $160 $248 forward $97 $-1 #
coedge $-1 $162 $162 $98 $163 forward $157 $-1 #
edge $-1 $249 2.799576561950264779e-15 $249 6.283185307179588897 $162 $250 forward 7 unknown #
loop $-1 $-1 $169 $99 #
plane-surface $-1 85.92111138477068266 0 12.47760986876059519 0 -0.6156614830463592591 0.788010747574649173 1 0 0 forward_v I I I I #
loop $-1 $-1 $251 $60 #
coedge $-1 $167 $167 $168 $252 reversed $100 $-1 #
coedge $-1 $168 $168 $167 $252 forward $102 $-1 #
coedge $-1 $169 $169 $103 $170 forward $164 $-1 #
edge $-1 $253 2.799576561950264779e-15 $253 6.283185307179588897 $169 $254 forward 7 unknown #
face $-1 $255 $256 $18 $-1 $257 reversed single #
loop $-1 $-1 $258 $104 #
plane-surface $-1 0 26.43349046893220589 12.47182854697527432 1 0 0 0 0 -1 forward_v I I I I #
coedge $-1 $259 $182 $258 $260 forward $105 $-1 #
coedge $-1 $261 $107 $259 $262 forward $64 $-1 #
coedge $-1 $107 $261 $263 $264 forward $64 $-1 #
coedge $-1 $185 $184 $107 $178 reversed $186 $-1 #
edge $-1 $265 -26.43349046893220589 $266 26.43349046893220589 $177 $267 forward 7 unknown #
coedge $-1 $109 $108 $268 $269 forward $37 $-1 #
coedge $-1 $270 $271 $108 $181 reversed $256 $-1 #
edge $-1 $188 -58.36603900265511413 $272 58.36603900265511413 $180 $273 forward 7 unknown #
coedge $-1 $174 $274 $109 $183 reversed $105 $-1 #
edge $-1 $275 -58.36603900265511413 $187 58.36603900265511413 $182 $276 forward 7 unknown #
coedge $-1 $177 $110 $274 $277 forward $186 $-1 #
coedge $-1 $110 $177 $270 $278 reversed $186 $-1 #
loop $-1 $-1 $184 $255 #
vertex $-1 $111 $279 #
vertex $-1 $111 $280 #
straight-curve $-1 116.7320780053102283 26.43349046893220589 24.94365709395054864 0 1 0 I I #
face $-1 $281 $282 $19 $-1 $283 reversed single #
loop $-1 $-1 $284 $112 #
plane-surface $-1 -10.95553098370346845 26.43349046893220589 3.237986163883583401 1 0 0 0 0 -1 forward_v I I I I #
coedge $-1 $285 $115 $286 $287 reversed $68 $-1 #
coedge $-1 $115 $285 $199 $288 reversed $68 $-1 #
edge $-1 $201 5.995856219208108406 $289 12.47182854697527432 $115 $290 forward 7 unknown #
coedge $-1 $117 $116 $291 $292 reversed $40 $-1 #
coedge $-1 $293 $294 $116 $198 forward $295 $-1 #
edge $-1 $296 -12.47182854697527432 $202 -5.995856219208108406 $197 $297 forward 7 unknown #
coedge $-1 $298 $118 $194 $288 forward $113 $-1 #
coedge $-1 $118 $298 $293 $299 forward $113 $-1 #
vertex $-1 $195 $300 #
vertex $-1 $299 $301 #
straight-curve $-1 0 26.43349046893220589 6.475972327767165915 0 -1 0 I I #
face $-1 $-1 $302 $20 $-1 $303 reversed single #
loop $-1 $-1 $126 $120 #
plane-surface $-1 58.36603900265511413 26.43349046893220589 24.94365709395054864 0 0 1 1 0 0 forward_v I I I I #
coedge $-1 $304 $305 $306 $307 reversed $121 $-1 #
coedge $-1 $308 $123 $125 $214 forward $72 $-1 #
coedge $-1 $123 $308 $304 $309 forward $72 $-1 #
coedge $-1 $306 $126 $123 $211 forward $205 $-1 #
edge $-1 $217 -25.532139353922922 $310 1.076471264534610839 $210 $311 forward 7 unknown #
coedge $-1 $312 $313 $124 $213 forward $302 $-1 #
edge $-1 $314 -60.47163976723599887 $216 -52.09905743214024199 $212 $315 forward 7 unknown #
edge $-1 $217 38.95476222114282194 $314 52.8669809378644473 $125 $316 forward 7 unknown #
coedge $-1 $126 $306 $312 $317 forward $205 $-1 #
vertex $-1 $213 $318 #
vertex $-1 $127 $319 #
straight-curve $-1 20.60606560403803655 53.66507127053370141 24.94365709395054864 0 -1 0 I I #
coedge $-1 $219 $219 $-1 $320 reversed $130 $-1 #
edge $-1 $321 0 $321 6.283185307179586232 $131 $322 forward 7 unknown #
vertex $-1 $134 $323 #
ellipse-curve $-1 28.20852578074018524 47.31158503244187585 20.75736592640266309 0 0.6018150307709319025 0.7986355043060522352 2 0 0 1 I I #
coedge $-1 $223 $223 $-1 $324 reversed $137 $-1 #
edge $-1 $325 0 $325 6.283185307179586232 $138 $326 forward 7 unknown #
vertex $-1 $141 $327 #
ellipse-curve $-1 39.61221604579341715 47.31158503244187585 20.75736592640266309 0 0.6018150307709319025 0.7986355043060522352 2 0 0 1 I I #
face $-1 $-1 $239 $23 $-1 $328 forward single #
loop $-1 $-1 $329 $142 #
plane-surface $-1 58.36603900265511413 0 12.47182854697527432 0 1 0 0 0 1 forward_v I I I I #
coedge $-1 $330 $331 $332 $333 reversed $143 $-1 #
coedge $-1 $334 $145 $147 $237 forward $86 $-1 #
coedge $-1 $145 $334 $330 $335 forward $86 $-1 #
coedge $-1 $332 $148 $145 $234 forward $239 $-1 #
edge $-1 $241 -20.56906390038140842 $336 -6.986008481734145903 $233 $337 forward 7 unknown #
coedge $-1 $338 $339 $146 $236 forward $228 $-1 #
edge $-1 $340 -45.99017536656072735 $240 -33.5241281413707739 $235 $341 forward 7 unknown #
edge $-1 $241 -20.24821686668883558 $340 0 $147 $342 forward 7 unknown #
coedge $-1 $148 $332 $338 $343 forward $239 $-1 #
loop $-1 $-1 $332 $227 #
vertex $-1 $236 $344 #
vertex $-1 $149 $345 #
straight-curve $-1 92.71263909409431392 -22.71697689745019488 24.94365709395054864 0 1 0 I I #
coedge $-1 $243 $243 $-1 $346 reversed $152 $-1 #
edge $-1 $347 0 $347 6.283185307179586232 $153 $348 forward 7 unknown #
vertex $-1 $156 $349 #
ellipse-curve $-1 81.84619475917649822 7.977906255086544718 18.71063348135557192 0 -0.6156614830463592591 0.788010747574649173 1 0 0 1 I I #
coedge $-1 $247 $247 $-1 $350 reversed $159 $-1 #
edge $-1 $351 0 $351 6.283185307179586232 $160 $352 forward 7 unknown #
vertex $-1 $163 $353 #
ellipse-curve $-1 85.92111138477068266 7.977906255086544718 18.71063348135557192 0 -0.6156614830463592591 0.788010747574649173 1 0 0 1 I I #
coedge $-1 $251 $251 $-1 $354 reversed $166 $-1 #
edge $-1 $355 0 $355 6.283185307179586232 $167 $356 forward 7 unknown #
vertex $-1 $170 $357 #
ellipse-curve $-1 89.9960280103648671 7.977906255086544718 18.71063348135557192 0 -0.6156614830463592591 0.788010747574649173 1 0 0 1 I I #
face $-1 $-1 $186 $18 $-1 $358 reversed single #
loop $-1 $-1 $270 $171 #
plane-surface $-1 58.36603900265511413 52.86698093786441177 12.47182854697527432 0 -1 0 0 0 -1 forward_v I I I I #
coedge $-1 $268 $359 $174 $260 reversed $172 $-1 #
coedge $-1 $274 $174 $175 $262 reversed $105 $-1 #
edge $-1 $275 -12.47182854697527432 $360 12.47182854697527432 $258 $361 forward 7 unknown #
coedge $-1 $176 $175 $359 $362 forward $64 $-1 #
edge $-1 $266 -58.36603900265511413 $360 58.36603900265511413 $259 $363 forward 7 unknown #
coedge $-1 $271 $270 $176 $264 reversed $256 $-1 #
edge $-1 $364 -58.36603900265511413 $265 58.36603900265511413 $263 $365 forward 7 unknown #
vertex $-1 $178 $366 #
vertex $-1 $277 $367 #
straight-curve $-1 116.7320780053102283 26.43349046893220589 0 0 -1 0 I I #
coedge $-1 $368 $258 $179 $269 reversed $172 $-1 #
edge $-1 $272 -26.43349046893220589 $275 26.43349046893220589 $268 $369 forward 7 unknown #
coedge $-1 $263 $180 $185 $278 forward $256 $-1 #
coedge $-1 $180 $263 $368 $370 reversed $256 $-1 #
vertex $-1 $181 $371 #
straight-curve $-1 58.36603900265511413 52.86698093786441177 24.94365709395054864 -1 0 0 I I #
coedge $-1 $182 $259 $184 $277 reversed $105 $-1 #
vertex $-1 $269 $372 #
straight-curve $-1 58.36603900265511413 0 24.94365709395054864 1 0 0 I I #
edge $-1 $187 -12.47182854697527432 $266 12.47182854697527432 $184 $373 forward 7 unknown #
edge $-1 $188 -12.47182854697527432 $265 12.47182854697527432 $185 $374 forward 7 unknown #
point $-1 116.7320780053102283 0 24.94365709395054864 #
point $-1 116.7320780053102283 52.86698093786441177 24.94365709395054864 #
face $-1 $-1 $295 $19 $-1 $375 reversed single #
loop $-1 $-1 $291 $190 #
plane-surface $-1 58.36603900265511413 26.43349046893220589 0 0 0 1 1 0 0 forward_v I I I I #
coedge $-1 $376 $377 $285 $378 forward $191 $-1 #
coedge $-1 $194 $193 $284 $378 reversed $68 $-1 #
coedge $-1 $291 $379 $193 $287 forward $282 $-1 #
edge $-1 $380 -69.32156998635858258 $289 -58.36603900265511413 $193 $381 forward 7 unknown #
edge $-1 $201 -5.477765491851734225 $382 5.477765491851734225 $194 $383 forward 7 unknown #
vertex $-1 $195 $384 #
straight-curve $-1 0 52.86698093786441177 12.47182854697527432 0 0 -1 I I #
coedge $-1 $385 $286 $196 $292 forward $282 $-1 #
edge $-1 $289 -26.43349046893220589 $296 26.43349046893220589 $291 $386 forward 7 unknown #
coedge $-1 $387 $197 $200 $299 reversed $295 $-1 #
coedge $-1 $197 $387 $385 $388 reversed $295 $-1 #
loop $-1 $-1 $197 $281 #
vertex $-1 $388 $389 #
straight-curve $-1 0 0 12.47182854697527432 0 0 1 I I #
coedge $-1 $200 $199 $377 $390 forward $113 $-1 #
edge $-1 $391 -5.477765491851734225 $202 5.477765491851734225 $293 $392 forward 7 unknown #
point $-1 0 52.86698093786441177 6.475972327767165915 #
point $-1 0 0 6.475972327767165915 #
loop $-1 $-1 $212 $204 #
plane-surface $-1 58.36603900265511413 52.86698093786441177 12.47182854697527432 0 -1 0 0 0 -1 forward_v I I I I #
coedge $-1 $305 $207 $209 $309 reversed $121 $-1 #
coedge $-1 $207 $304 $393 $394 reversed $121 $-1 #
coedge $-1 $215 $210 $207 $307 forward $205 $-1 #
edge $-1 $310 -11.90888214351436147 $395 -0.7980903326692896371 $306 $396 forward 7 unknown #
coedge $-1 $209 $208 $313 $397 reversed $72 $-1 #
edge $-1 $398 -52.8669809378644473 $310 -38.95476222114282194 $304 $399 forward 7 unknown #
vertex $-1 $211 $400 #
straight-curve $-1 46.13820495796095855 41.75618912701933994 24.94365709395054864 1 0 0 I I #
coedge $-1 $393 $212 $215 $317 reversed $302 $-1 #
coedge $-1 $212 $393 $308 $397 forward $302 $-1 #
vertex $-1 $213 $401 #
straight-curve $-1 20.60606560403803655 52.86698093786441177 77.04271452609079063 0 0 1 I I #
straight-curve $-1 20.60606560403803655 10.64553295541459477 48.38721851874194613 0 0.7986355043060522352 -0.6018150307709319025 I I #
edge $-1 $395 11.15136278015954474 $216 37.75997339861707758 $312 $402 forward 7 unknown #
point $-1 20.60606560403803655 52.86698093786441177 24.94365709395054864 #
point $-1 20.60606560403803655 41.75618912701933994 24.94365709395054864 #
edge $-1 $403 1 $403 0 $219 $-1 forward 7 unknown #
vertex $-1 $220 $404 #
ellipse-curve $-1 28.20852578074018524 43.55343226910230214 15.77012886194438934 0 0.6018150307709319025 0.7986355043060522352 2 0 0 1 I I #
point $-1 30.20852578074018524 47.31158503244188296 20.7573659264026702 #
edge $-1 $405 1 $405 0 $223 $-1 forward 7 unknown #
vertex $-1 $224 $406 #
ellipse-curve $-1 39.61221604579341715 43.55343226910230214 15.77012886194438934 0 0.6018150307709319025 0.7986355043060522352 2 0 0 1 I I #
point $-1 41.61221604579341715 47.31158503244188296 20.7573659264026702 #
plane-surface $-1 58.36603900265511413 26.43349046893220589 24.94365709395054864 0 0 1 1 0 0 forward_v I I I I #
coedge $-1 $339 $338 $331 $407 forward $228 $-1 #
coedge $-1 $331 $230 $232 $335 reversed $143 $-1 #
coedge $-1 $230 $330 $329 $407 reversed $143 $-1 #
coedge $-1 $238 $233 $230 $333 forward $239 $-1 #
edge $-1 $336 -38.67278940762328432 $408 -22.71697689745019488 $332 $409 forward 7 unknown #
coedge $-1 $232 $231 $339 $410 reversed $86 $-1 #
edge $-1 $411 0 $336 20.24821686668883558 $330 $412 forward 7 unknown #
vertex $-1 $234 $413 #
straight-curve $-1 72.1435751937129055 15.95581251017308944 24.94365709395054864 -1 0 0 I I #
coedge $-1 $329 $235 $238 $343 reversed $228 $-1 #
coedge $-1 $235 $329 $334 $410 forward $228 $-1 #
vertex $-1 $236 $414 #
straight-curve $-1 92.71263909409431392 0 58.46778523532132255 0 0 1 I I #
straight-curve $-1 92.71263909409431392 0 12.47760986876059519 0 -0.788010747574649173 -0.6156614830463592591 I I #
edge $-1 $408 20.76354467279193727 $240 34.34660009143919979 $338 $415 forward 7 unknown #
point $-1 92.71263909409431392 0 24.94365709395054864 #
point $-1 92.71263909409431392 15.95581251017308944 24.94365709395054864 #
edge $-1 $416 1 $416 0 $243 $-1 forward 7 unknown #
vertex $-1 $244 $417 #
ellipse-curve $-1 81.84619475917649822 9.576724657041680189 16.6642392877043477 0 -0.6156614830463592591 0.788010747574649173 1 0 0 1 I I #
point $-1 82.84619475917649822 7.977906255086548271 18.71063348135557192 #
edge $-1 $418 1 $418 0 $247 $-1 forward 7 unknown #
vertex $-1 $248 $419 #
ellipse-curve $-1 85.92111138477068266 9.576724657041680189 16.6642392877043477 0 -0.6156614830463592591 0.788010747574649173 1 0 0 1 I I #
point $-1 86.92111138477068266 7.977906255086548271 18.71063348135557192 #
edge $-1 $420 1 $420 0 $251 $-1 forward 7 unknown #
vertex $-1 $252 $421 #
ellipse-curve $-1 89.9960280103648671 9.576724657041680189 16.6642392877043477 0 -0.6156614830463592591 0.788010747574649173 1 0 0 1 I I #
point $-1 90.9960280103648671 7.977906255086548271 18.71063348135557192 #
plane-surface $-1 116.7320780053102283 26.43349046893220589 12.47182854697527432 -1 0 0 0 0 1 forward_v I I I I #
coedge $-1 $258 $368 $261 $362 reversed $172 $-1 #
vertex $-1 $362 $422 #
straight-curve $-1 0 0 12.47182854697527432 0 0 -1 I I #
edge $-1 $360 -26.43349046893220589 $364 26.43349046893220589 $359 $423 forward 7 unknown #
straight-curve $-1 58.36603900265511413 0 0 -1 0 0 I I #
vertex $-1 $264 $424 #
straight-curve $-1 58.36603900265511413 52.86698093786441177 0 1 0 0 I I #
point $-1 116.7320780053102283 52.86698093786441177 0 #
point $-1 116.7320780053102283 0 0 #
coedge $-1 $359 $268 $271 $370 forward $172 $-1 #
straight-curve $-1 0 26.43349046893220589 24.94365709395054864 0 -1 0 I I #
edge $-1 $272 -12.47182854697527432 $364 12.47182854697527432 $271 $425 forward 7 unknown #
point $-1 0 52.86698093786441177 24.94365709395054864 #
point $-1 0 0 24.94365709395054864 #
straight-curve $-1 116.7320780053102283 0 12.47182854697527432 0 0 -1 I I #
straight-curve $-1 116.7320780053102283 52.86698093786441177 12.47182854697527432 0 0 -1 I I #
plane-surface $-1 58.36603900265511413 0 12.47182854697527432 0 1 0 0 0 1 forward_v I I I I #
coedge $-1 $426 $284 $379 $427 reversed $191 $-1 #
coedge $-1 $284 $426 $298 $390 reversed $191 $-1 #
edge $-1 $382 -3.237986163883582513 $380 3.237986163883583401 $285 $428 forward 7 unknown #
coedge $-1 $286 $385 $376 $427 forward $282 $-1 #
vertex $-1 $287 $429 #
straight-curve $-1 58.36603900265511413 52.86698093786441177 0 1 0 0 I I #
vertex $-1 $288 $430 #
straight-curve $-1 -5.477765491851734225 52.86698093786441177 6.475972327767165915 -1 0 0 I I #
point $-1 0 52.86698093786441177 0 #
coedge $-1 $379 $291 $294 $388 forward $282 $-1 #
straight-curve $-1 0 26.43349046893220589 0 0 -1 0 I I #
coedge $-1 $294 $293 $426 $431 forward $295 $-1 #
edge $-1 $296 -5.477765491851734225 $432 5.477765491851734225 $294 $433 forward 7 unknown #
point $-1 0 0 0 #
edge $-1 $382 -26.43349046893220589 $391 26.43349046893220589 $377 $434 forward 7 unknown #
vertex $-1 $390 $435 #
straight-curve $-1 -5.477765491851734225 0 6.475972327767165915 1 0 0 I I #
coedge $-1 $313 $312 $305 $394 forward $302 $-1 #
edge $-1 $395 52.09905743214024199 $398 60.47163976723599887 $393 $436 forward 7 unknown #
vertex $-1 $317 $437 #
straight-curve $-1 47.21467622249556939 53.66507127053370141 24.94365709395054864 0 1 0 I I #
edge $-1 $398 -1.076471264534610839 $314 25.532139353922922 $313 $438 forward 7 unknown #
vertex $-1 $397 $439 #
straight-curve $-1 47.21467622249556939 10.64553295541459477 48.38721851874194613 0 -0.7986355043060522352 0.6018150307709319025 I I #
point $-1 47.21467622249556939 41.75618912701933994 24.94365709395054864 #
point $-1 20.60606560403803655 52.86698093786441177 16.5710747588547882 #
straight-curve $-1 58.36603900265511413 52.86698093786441177 24.94365709395054864 -1 0 0 I I #
vertex $-1 $320 $440 #
point $-1 30.20852578074018524 43.55343226910230214 15.77012886194438934 #
vertex $-1 $324 $441 #
point $-1 41.61221604579341715 43.55343226910230214 15.77012886194438934 #
edge $-1 $408 33.5241281413707739 $411 45.99017536656072735 $329 $442 forward 7 unknown #
vertex $-1 $343 $443 #
straight-curve $-1 79.12958367544705141 -22.71697689745019488 24.94365709395054864 0 -1 0 I I #
edge $-1 $411 6.986008481734145903 $340 20.56906390038140842 $339 $444 forward 7 unknown #
vertex $-1 $410 $445 #
straight-curve $-1 79.12958367544705141 0 12.47760986876059519 0 0.788010747574649173 0.6156614830463592591 I I #
point $-1 79.12958367544705141 15.95581251017308944 24.94365709395054864 #
point $-1 92.71263909409431392 0 12.47760986876059519 #
straight-curve $-1 58.36603900265511413 0 24.94365709395054864 1 0 0 I I #
vertex $-1 $346 $446 #
point $-1 82.84619475917649822 9.576724657041680189 16.6642392877043477 #
vertex $-1 $350 $447 #
point $-1 86.92111138477068266 9.576724657041680189 16.6642392877043477 #
vertex $-1 $354 $448 #
point $-1 90.9960280103648671 9.576724657041680189 16.6642392877043477 #
point $-1 0 0 0 #
straight-curve $-1 0 26.43349046893220589 0 0 1 0 I I #
point $-1 0 52.86698093786441177 0 #
straight-curve $-1 0 52.86698093786441177 12.47182854697527432 0 0 -1 I I #
coedge $-1 $377 $376 $387 $431 reversed $191 $-1 #
edge $-1 $432 -26.43349046893220589 $380 26.43349046893220589 $376 $449 forward 7 unknown #
straight-curve $-1 -10.95553098370346845 52.86698093786441177 3.237986163883583401 0 0 -1 I I #
point $-1 -10.95553098370346845 52.86698093786441177 0 #
point $-1 -10.95553098370346845 52.86698093786441177 6.475972327767165915 #
edge $-1 $391 -3.237986163883582513 $432 3.237986163883583401 $426 $450 forward 7 unknown #
vertex $-1 $427 $451 #
straight-curve $-1 -5.477765491851734225 0 0 -1 0 0 I I #
straight-curve $-1 -10.95553098370346845 26.43349046893220589 6.475972327767165915 0 -1 0 I I #
point $-1 -10.95553098370346845 0 6.475972327767165915 #
straight-curve $-1 47.21467622249556939 52.86698093786441177 77.04271452609079063 0 0 -1 I I #
point $-1 47.21467622249556939 52.86698093786441177 24.94365709395054864 #
straight-curve $-1 46.13820495796095855 52.86698093786441177 16.57107475885479175 -1 0 0 I I #
point $-1 47.21467622249556939 52.86698093786441177 16.5710747588547882 #
point $-1 28.20852578074018524 42.34980220756042968 14.17285785333228532 #
point $-1 39.61221604579341715 42.34980220756042968 14.17285785333228532 #
straight-curve $-1 79.12958367544705141 0 58.46778523532132255 0 0 -1 I I #
point $-1 79.12958367544705141 0 24.94365709395054864 #
straight-curve $-1 72.1435751937129055 0 12.47760986876059519 1 0 0 I I #
point $-1 79.12958367544705141 0 12.47760986876059519 #
point $-1 81.84619475917649822 10.19238614008803978 15.87622854012969675 #
point $-1 85.92111138477068266 10.19238614008803978 15.87622854012969675 #
point $-1 89.9960280103648671 10.19238614008803978 15.87622854012969675 #
straight-curve $-1 -10.95553098370346845 26.43349046893220589 0 0 1 0 I I #
straight-curve $-1 -10.95553098370346845 0 3.237986163883583401 0 0 -1 I I #
point $-1 -10.95553098370346845 0 0 #
End-of-ACIS-data 