500 0 5 0           
7 Unknown 11 ACIS 5.0 NT 24 Fri Mar 26 02:53:29 1999 
-1 9.9999999999999995e-007 1e-010 
body $-1 $5 $-1 $6 #
body $-1 $7 $-1 $8 #
body $-1 $9 $-1 $10 #
body $-1 $11 $-1 $12 #
body $-1 $13 $-1 $14 #
lump $-1 $-1 $15 $0 #
transform $-1 1 0 0 0 1 0 0 0 1 53.086336863307594 28.789945126561324 10.297235630352512 1 rotate no_reflect no_shear #
lump $-1 $-1 $16 $1 #
transform $-1 1 0 0 0 1 0 0 0 1 53.086336863307594 28.789945126561324 10.297235630352512 1 rotate no_reflect no_shear #
lump $-1 $-1 $17 $2 #
transform $-1 1 0 0 0 1 0 0 0 1 53.086336863307594 28.789945126561324 10.297235630352512 1 rotate no_reflect no_shear #
lump $-1 $-1 $18 $3 #
transform $-1 1 0 0 0 1 0 0 0 1 53.086336863307594 28.789945126561324 10.297235630352512 1 rotate no_reflect no_shear #
lump $-1 $-1 $19 $4 #
transform $-1 1 0 0 0 1 0 0 0 1 53.086336863307594 28.789945126561324 10.297235630352512 1 rotate no_reflect no_shear #
shell $-1 $-1 $-1 $20 $-1 $5 #
shell $-1 $-1 $-1 $21 $-1 $7 #
shell $-1 $-1 $-1 $22 $-1 $9 #
shell $-1 $-1 $-1 $23 $-1 $11 #
shell $-1 $-1 $-1 $24 $-1 $13 #
face $-1 $25 $26 $15 $-1 $27 forward single #
face $-1 $28 $29 $16 $-1 $30 forward single #
face $-1 $31 $32 $17 $-1 $33 reversed single #
face $-1 $34 $35 $18 $-1 $36 forward single #
face $-1 $37 $38 $19 $-1 $39 reversed single #
face $-1 $40 $41 $15 $-1 $42 reversed single #
loop $-1 $-1 $43 $20 #
plane-surface $-1 0 0 10.297235630352512 0 0 1 1 0 0 forward_v I I I I #
face $-1 $44 $45 $16 $-1 $46 forward single #
loop $-1 $-1 $47 $21 #
plane-surface $-1 20.523863367422102 -98.445487204036866 87.159082606162301 -1 0 0 0 -0.6560590369687036 0.75470957328743171 forward_v I I I I #
face $-1 $48 $49 $17 $-1 $50 reversed single #
loop $-1 $51 $52 $22 #
cone-surface $-1 11.476002242494161 -26.569004426947746 8.2706346313311645 0 0.6560590369687036 -0.75470957328743171 0.5 0 0 1 I I 0 1 0.5 forward I I I I #
face $-1 $53 $54 $18 $-1 $55 forward single #
loop $-1 $-1 $56 $23 #
plane-surface $-1 2.42814111756622 54.989392801165536 124.93488995438959 1 0 0 0 -0.6560590369687036 -0.75470957328743171 forward_v I I I I #
face $-1 $57 $58 $19 $-1 $59 reversed single #
loop $-1 $60 $61 $24 #
cone-surface $-1 11.476002242494161 26.569004426947743 8.2706346313311645 0 -0.6560590369687036 -0.75470957328743171 0.5 0 0 1 I I 0 1 0.5 forward I I I I #
face $-1 $62 $63 $15 $-1 $64 reversed single #
loop $-1 $-1 $65 $25 #
plane-surface $-1 0 0 -10.297235630352512 0 0 1 1 0 0 forward_v I I I I #
coedge $-1 $66 $67 $68 $69 forward $26 $-1 #
face $-1 $70 $71 $16 $-1 $72 forward single #
loop $-1 $-1 $73 $28 #
plane-surface $-1 11.476002242494161 -28.789945126561321 7.0295493231628399 0 -0.6560590369687036 0.75470957328743171 1 0 0 forward_v I I I I #
coedge $-1 $74 $75 $76 $77 reversed $29 $-1 #
face $-1 $78 $79 $17 $-1 $80 forward single #
loop $-1 $81 $82 $31 #
cone-surface $-1 11.476002242494161 -26.063570474213655 7.6891993925827915 0 0.6560590369687036 -0.75470957328743171 0.25 0 0 1 I I -0.70710678118654624 0.70710678118654879 0.25 forward I I I I #
loop $-1 $-1 $83 $22 #
coedge $-1 $52 $52 $84 $85 reversed $32 $-1 #
face $-1 $86 $87 $18 $-1 $88 forward single #
loop $-1 $-1 $89 $34 #
plane-surface $-1 11.476002242494161 -14.666149276310009 44.805356671390129 0 0.6560590369687036 0.75470957328743171 1 0 0 forward_v I I I I #
coedge $-1 $90 $91 $92 $93 reversed $35 $-1 #
face $-1 $94 $95 $19 $-1 $96 forward single #
loop $-1 $97 $98 $37 #
cone-surface $-1 11.476002242494161 26.063570474213652 7.6891993925827915 0 -0.6560590369687036 -0.75470957328743171 0.25 0 0 1 I I -0.70710678118654624 0.70710678118654879 0.25 forward I I I I #
loop $-1 $-1 $99 $24 #
coedge $-1 $61 $61 $100 $101 reversed $38 $-1 #
face $-1 $102 $103 $15 $-1 $104 reversed single #
loop $-1 $-1 $105 $40 #
plane-surface $-1 0 -28.789945126561324 0 0 1 0 0 0 1 forward_v I I I I #
coedge $-1 $106 $107 $108 $109 forward $41 $-1 #
coedge $-1 $110 $43 $111 $112 forward $26 $-1 #
coedge $-1 $43 $110 $113 $114 forward $26 $-1 #
coedge $-1 $115 $116 $43 $69 reversed $117 $-1 #
edge $-1 $118 -28.789945126561324 $119 28.789945126561324 $68 $120 forward 7 unknown #
face $-1 $121 $122 $16 $-1 $123 forward single #
loop $-1 $-1 $124 $44 #
plane-surface $-1 2.42814111756622 -98.445487204036866 87.159082606162301 1 0 0 0 0.6560590369687036 -0.75470957328743171 forward_v I I I I #
coedge $-1 $125 $126 $127 $128 reversed $45 $-1 #
coedge $-1 $75 $47 $126 $129 forward $29 $-1 #
coedge $-1 $47 $74 $130 $131 reversed $29 $-1 #
coedge $-1 $132 $127 $47 $77 forward $122 $-1 #
edge $-1 $133 -24.191841487700454 $134 -20.432798475457108 $76 $135 forward 7 unknown #
face $-1 $136 $137 $17 $-1 $138 forward single #
loop $-1 $-1 $139 $48 #
plane-surface $-1 20.523863367422102 -98.445487204036866 87.159082606162301 -1 0 0 0 -0.6560590369687036 0.75470957328743171 forward_v I I I I #
loop $-1 $-1 $140 $31 #
coedge $-1 $82 $82 $83 $141 forward $49 $-1 #
coedge $-1 $83 $83 $82 $141 reversed $51 $-1 #
coedge $-1 $84 $84 $52 $85 forward $137 $-1 #
edge $-1 $142 -3.9606256098776917e-015 $142 6.2831853071795969 $84 $143 forward 7 unknown #
face $-1 $144 $145 $18 $-1 $146 forward single #
loop $-1 $-1 $147 $53 #
plane-surface $-1 20.523863367422102 54.989392801165536 124.93488995438959 -1 0 0 0 0.6560590369687036 0.75470957328743171 forward_v I I I I #
coedge $-1 $148 $149 $150 $151 reversed $54 $-1 #
coedge $-1 $91 $56 $149 $152 forward $35 $-1 #
coedge $-1 $56 $90 $153 $154 reversed $35 $-1 #
coedge $-1 $155 $150 $56 $93 forward $145 $-1 #
edge $-1 $156 -2.4637942862647719 $157 1.2952487259785563 $92 $158 forward 7 unknown #
face $-1 $159 $160 $19 $-1 $161 forward single #
loop $-1 $-1 $162 $57 #
plane-surface $-1 2.42814111756622 54.989392801165536 124.93488995438959 1 0 0 0 -0.6560590369687036 -0.75470957328743171 forward_v I I I I #
loop $-1 $-1 $163 $37 #
coedge $-1 $98 $98 $99 $164 forward $58 $-1 #
coedge $-1 $99 $99 $98 $164 reversed $60 $-1 #
coedge $-1 $100 $100 $61 $101 forward $160 $-1 #
edge $-1 $165 -4.6615798294787936e-015 $165 6.283185307179596 $100 $166 forward 7 unknown #
face $-1 $167 $168 $15 $-1 $169 reversed single #
loop $-1 $-1 $170 $62 #
plane-surface $-1 -53.086336863307594 0 0 1 0 0 0 0 -1 forward_v I I I I #
coedge $-1 $171 $113 $172 $173 forward $63 $-1 #
coedge $-1 $174 $65 $171 $175 forward $41 $-1 #
coedge $-1 $65 $174 $176 $177 forward $41 $-1 #
coedge $-1 $116 $115 $65 $109 reversed $117 $-1 #
edge $-1 $178 -28.789945126561324 $179 28.789945126561324 $108 $180 forward 7 unknown #
coedge $-1 $67 $66 $181 $182 forward $26 $-1 #
coedge $-1 $183 $184 $66 $112 reversed $168 $-1 #
edge $-1 $119 -53.086336863307594 $185 53.086336863307594 $111 $186 forward 7 unknown #
coedge $-1 $105 $187 $67 $114 reversed $63 $-1 #
edge $-1 $188 -53.086336863307594 $118 53.086336863307594 $113 $189 forward 7 unknown #
coedge $-1 $108 $68 $187 $190 forward $117 $-1 #
coedge $-1 $68 $108 $183 $191 reversed $117 $-1 #
loop $-1 $-1 $115 $167 #
vertex $-1 $69 $192 #
vertex $-1 $69 $193 #
straight-curve $-1 53.086336863307594 0 10.297235630352512 0 1 0 I I #
face $-1 $194 $195 $16 $-1 $196 reversed single #
loop $-1 $-1 $197 $70 #
plane-surface $-1 0 0 10.297235630352512 0 0 1 1 0 0 forward_v I I I I #
coedge $-1 $198 $199 $197 $200 reversed $71 $-1 #
coedge $-1 $201 $73 $199 $202 reversed $45 $-1 #
coedge $-1 $73 $201 $74 $129 reversed $45 $-1 #
coedge $-1 $76 $197 $73 $128 forward $122 $-1 #
edge $-1 $203 -3.3098600036808605 $133 14.785862246175022 $127 $204 forward 7 unknown #
edge $-1 $133 -4.9807808795499504 $205 4.429359460594495e-015 $74 $206 forward 7 unknown #
coedge $-1 $207 $208 $75 $131 forward $209 $-1 #
edge $-1 $134 33.28230567272864 $205 36.54999197991831 $130 $210 forward 7 unknown #
coedge $-1 $211 $76 $208 $212 forward $122 $-1 #
vertex $-1 $128 $213 #
vertex $-1 $212 $214 #
straight-curve $-1 20.523863367422102 -49.222743602018433 10.29723563035251 0 -1 0 I I #
face $-1 $215 $216 $17 $-1 $217 forward single #
loop $-1 $218 $84 $78 #
plane-surface $-1 11.476002242494161 -28.789945126561321 7.0295493231628399 0 -0.6560590369687036 0.75470957328743171 1 0 0 forward_v I I I I #
coedge $-1 $219 $220 $221 $222 reversed $79 $-1 #
coedge $-1 $140 $140 $-1 $223 forward $81 $-1 #
edge $-1 $224 0 $224 6.2831853071796004 $82 $225 forward 7 unknown #
vertex $-1 $85 $226 #
ellipse-curve $-1 11.476002242494161 -26.910423620439655 8.6633924767576715 0 0.6560590369687036 -0.75470957328743171 0.5 0 0 1 I I #
face $-1 $227 $228 $18 $-1 $229 reversed single #
loop $-1 $-1 $230 $86 #
plane-surface $-1 0 0 10.297235630352512 0 0 1 1 0 0 forward_v I I I I #
coedge $-1 $231 $232 $230 $233 reversed $87 $-1 #
coedge $-1 $234 $89 $232 $235 reversed $54 $-1 #
coedge $-1 $89 $234 $90 $152 reversed $54 $-1 #
coedge $-1 $92 $230 $89 $151 forward $145 $-1 #
edge $-1 $236 -14.785862246175022 $156 3.3098600036808605 $150 $237 forward 7 unknown #
edge $-1 $156 52.599109373572702 $238 57.579890253122642 $90 $239 forward 7 unknown #
coedge $-1 $240 $241 $91 $154 forward $242 $-1 #
edge $-1 $157 52.170209346842285 $238 55.437895654031948 $153 $243 forward 7 unknown #
coedge $-1 $244 $92 $241 $245 forward $145 $-1 #
vertex $-1 $151 $246 #
vertex $-1 $245 $247 #
straight-curve $-1 2.42814111756622 27.494696400582768 10.29723563035251 0 1 0 I I #
face $-1 $248 $249 $19 $-1 $250 forward single #
loop $-1 $251 $100 $94 #
plane-surface $-1 11.476002242494161 -14.666149276310009 44.805356671390129 0 0.6560590369687036 0.75470957328743171 1 0 0 forward_v I I I I #
coedge $-1 $252 $253 $254 $255 reversed $95 $-1 #
coedge $-1 $163 $163 $-1 $256 forward $97 $-1 #
edge $-1 $257 0 $257 6.2831853071796004 $98 $258 forward 7 unknown #
vertex $-1 $101 $259 #
ellipse-curve $-1 11.476002242494161 26.910423620439659 8.6633924767576822 0 -0.6560590369687036 -0.75470957328743171 0.5 0 0 1 I I #
face $-1 $-1 $117 $15 $-1 $260 reversed single #
loop $-1 $-1 $183 $102 #
plane-surface $-1 0 28.789945126561324 0 0 -1 0 0 0 -1 forward_v I I I I #
coedge $-1 $261 $181 $184 $262 forward $103 $-1 #
coedge $-1 $187 $105 $106 $175 reversed $63 $-1 #
coedge $-1 $181 $261 $105 $173 reversed $103 $-1 #
edge $-1 $188 -10.297235630352512 $263 10.297235630352512 $172 $264 forward 7 unknown #
coedge $-1 $107 $106 $261 $265 forward $41 $-1 #
edge $-1 $179 -53.086336863307594 $263 53.086336863307594 $171 $266 forward 7 unknown #
coedge $-1 $184 $183 $107 $177 reversed $168 $-1 #
edge $-1 $267 -53.086336863307594 $178 53.086336863307594 $176 $268 forward 7 unknown #
vertex $-1 $109 $269 #
vertex $-1 $190 $270 #
straight-curve $-1 53.086336863307594 0 -10.297235630352512 0 -1 0 I I #
coedge $-1 $170 $172 $110 $182 reversed $103 $-1 #
edge $-1 $185 -28.789945126561324 $188 28.789945126561324 $181 $271 forward 7 unknown #
coedge $-1 $176 $111 $116 $191 forward $168 $-1 #
coedge $-1 $111 $176 $170 $262 reversed $168 $-1 #
vertex $-1 $112 $272 #
straight-curve $-1 0 28.789945126561324 10.297235630352512 -1 0 0 I I #
coedge $-1 $113 $171 $115 $190 reversed $63 $-1 #
vertex $-1 $182 $273 #
straight-curve $-1 0 -28.789945126561324 10.297235630352512 1 0 0 I I #
edge $-1 $118 -10.297235630352512 $179 10.297235630352512 $115 $274 forward 7 unknown #
edge $-1 $119 -10.297235630352512 $178 10.297235630352512 $116 $275 forward 7 unknown #
point $-1 53.086336863307594 -28.789945126561324 10.297235630352512 #
point $-1 53.086336863307594 28.789945126561324 10.297235630352512 #
face $-1 $276 $209 $16 $-1 $277 reversed single #
loop $-1 $-1 $278 $121 #
plane-surface $-1 0 0 -10.297235630352512 0 0 1 1 0 0 forward_v I I I I #
coedge $-1 $127 $279 $124 $200 forward $122 $-1 #
coedge $-1 $199 $124 $280 $281 reversed $71 $-1 #
coedge $-1 $124 $198 $125 $202 forward $71 $-1 #
edge $-1 $282 20.432798475457108 $203 24.191841487700454 $197 $283 forward 7 unknown #
coedge $-1 $126 $125 $207 $284 reversed $45 $-1 #
edge $-1 $285 -4.429359460594495e-015 $203 4.9807808795499504 $199 $286 forward 7 unknown #
vertex $-1 $128 $287 #
straight-curve $-1 5.7380011212470805 -25.030902114317982 10.297235630352514 1 0 0 I I #
vertex $-1 $284 $288 #
straight-curve $-1 20.523863367422102 -28.789945126561321 7.0295493231628399 0 -0.75470957328743171 -0.6560590369687036 I I #
coedge $-1 $280 $130 $201 $284 forward $209 $-1 #
coedge $-1 $130 $289 $132 $212 reversed $209 $-1 #
loop $-1 $-1 $280 $194 #
straight-curve $-1 20.523863367422102 -28.789945126561328 43.57954130308115 0 0 -1 I I #
coedge $-1 $290 $132 $291 $292 forward $122 $-1 #
edge $-1 $134 20.523863367422102 $293 53.086336863307594 $208 $294 forward 7 unknown #
point $-1 20.523863367422102 -25.030902114317978 10.297235630352512 #
point $-1 20.523863367422102 -28.789945126561324 10.297235630352512 #
face $-1 $295 $296 $17 $-1 $297 forward single #
loop $-1 $-1 $298 $136 #
plane-surface $-1 2.42814111756622 -98.445487204036866 87.159082606162301 1 0 0 0 0.6560590369687036 -0.75470957328743171 forward_v I I I I #
loop $-1 $-1 $299 $78 #
coedge $-1 $220 $139 $300 $301 forward $79 $-1 #
coedge $-1 $139 $219 $302 $303 reversed $79 $-1 #
coedge $-1 $304 $305 $139 $222 forward $296 $-1 #
edge $-1 $306 -24.191841487700454 $307 -20.432798475457108 $221 $308 forward 7 unknown #
edge $-1 $309 1 $309 0 $140 $-1 forward 7 unknown #
vertex $-1 $141 $310 #
ellipse-curve $-1 11.476002242494161 -26.22758523345583 7.8778767859046503 0 -0.6560590369687036 0.75470957328743171 0.5 0 0 1 I I #
point $-1 11.976002242494161 -26.910423620439659 8.6633924767576787 #
face $-1 $311 $312 $18 $-1 $313 reversed single #
loop $-1 $314 $315 $144 #
cone-surface $-1 11.476002242494161 -26.569004426947746 8.2706346313311645 0 0.6560590369687036 -0.75470957328743171 0.5 0 0 1 I I 0 1 0.5 forward I I I I #
coedge $-1 $150 $316 $147 $233 forward $145 $-1 #
coedge $-1 $232 $147 $317 $318 reversed $87 $-1 #
coedge $-1 $147 $231 $148 $235 forward $87 $-1 #
edge $-1 $319 -1.2952487259785563 $236 2.4637942862647719 $230 $320 forward 7 unknown #
coedge $-1 $149 $148 $240 $321 reversed $54 $-1 #
edge $-1 $322 -57.579890253122642 $236 -52.599109373572702 $232 $323 forward 7 unknown #
vertex $-1 $151 $324 #
straight-curve $-1 5.7380011212470805 25.030902114317989 10.297235630352517 -1 0 0 I I #
vertex $-1 $321 $325 #
straight-curve $-1 2.42814111756622 -14.666149276310009 44.805356671390129 0 0.75470957328743171 -0.6560590369687036 I I #
coedge $-1 $317 $153 $234 $321 forward $242 $-1 #
coedge $-1 $153 $326 $155 $245 reversed $242 $-1 #
loop $-1 $-1 $317 $327 #
straight-curve $-1 2.42814111756622 28.789945126561324 62.467444977194795 0 0 -1 I I #
coedge $-1 $328 $155 $329 $330 forward $145 $-1 #
edge $-1 $157 -2.42814111756622 $331 53.086336863307594 $241 $332 forward 7 unknown #
point $-1 2.42814111756622 25.030902114317996 10.29723563035251 #
point $-1 2.42814111756622 28.789945126561324 10.297235630352512 #
face $-1 $333 $334 $19 $-1 $335 forward single #
loop $-1 $-1 $336 $159 #
plane-surface $-1 20.523863367422102 54.989392801165536 124.93488995438959 -1 0 0 0 0.6560590369687036 0.75470957328743171 forward_v I I I I #
loop $-1 $-1 $337 $94 #
coedge $-1 $253 $162 $338 $339 forward $95 $-1 #
coedge $-1 $162 $252 $340 $341 reversed $95 $-1 #
coedge $-1 $342 $343 $162 $255 forward $334 $-1 #
edge $-1 $344 -2.4637942862647719 $345 1.2952487259785563 $254 $346 forward 7 unknown #
edge $-1 $347 1 $347 0 $163 $-1 forward 7 unknown #
vertex $-1 $164 $348 #
ellipse-curve $-1 11.476002242494161 26.227585233455827 7.8778767859046503 0 0.6560590369687036 0.75470957328743171 0.5 0 0 1 I I #
point $-1 11.976002242494161 26.910423620439659 8.6633924767576787 #
plane-surface $-1 53.086336863307594 0 0 -1 0 0 0 0 1 forward_v I I I I #
coedge $-1 $172 $170 $174 $265 reversed $103 $-1 #
edge $-1 $185 -10.297235630352512 $267 10.297235630352512 $184 $349 forward 7 unknown #
vertex $-1 $265 $350 #
straight-curve $-1 -53.086336863307594 -28.789945126561324 0 0 0 -1 I I #
edge $-1 $263 -28.789945126561324 $267 28.789945126561324 $261 $351 forward 7 unknown #
straight-curve $-1 0 -28.789945126561324 -10.297235630352512 -1 0 0 I I #
vertex $-1 $177 $352 #
straight-curve $-1 0 28.789945126561324 -10.297235630352512 1 0 0 I I #
point $-1 53.086336863307594 28.789945126561324 -10.297235630352512 #
point $-1 53.086336863307594 -28.789945126561324 -10.297235630352512 #
straight-curve $-1 -53.086336863307594 0 10.297235630352512 0 -1 0 I I #
point $-1 -53.086336863307594 28.789945126561324 10.297235630352512 #
point $-1 -53.086336863307594 -28.789945126561324 10.297235630352512 #
straight-curve $-1 53.086336863307594 -28.789945126561324 0 0 0 -1 I I #
straight-curve $-1 53.086336863307594 28.789945126561324 0 0 0 -1 I I #
face $-1 $353 $354 $16 $-1 $355 reversed single #
plane-surface $-1 0 -28.789945126561324 0 0 1 0 0 0 1 forward_v I I I I #
coedge $-1 $356 $357 $358 $359 forward $195 $-1 #
coedge $-1 $197 $360 $361 $362 forward $122 $-1 #
coedge $-1 $361 $207 $198 $281 forward $209 $-1 #
edge $-1 $285 -36.54999197991831 $282 -33.28230567272864 $280 $363 forward 7 unknown #
vertex $-1 $281 $364 #
straight-curve $-1 2.42814111756622 -49.222743602018433 10.29723563035251 0 1 0 I I #
edge $-1 $205 -14.785862246175022 $285 3.3098600036808605 $207 $365 forward 7 unknown #
vertex $-1 $284 $366 #
straight-curve $-1 2.42814111756622 -28.789945126561321 7.0295493231628399 0 0.75470957328743171 0.6560590369687036 I I #
point $-1 2.42814111756622 -25.030902114317978 10.297235630352512 #
point $-1 20.523863367422102 -28.789945126561324 7.0295493231628372 #
coedge $-1 $208 $367 $368 $369 reversed $209 $-1 #
coedge $-1 $360 $211 $370 $371 forward $122 $-1 #
coedge $-1 $368 $372 $211 $292 reversed $373 $-1 #
edge $-1 $293 -28.789945126561324 $374 28.789945126561324 $291 $375 forward 7 unknown #
vertex $-1 $292 $376 #
straight-curve $-1 0 -28.789945126561324 10.297235630352512 1 0 0 I I #
face $-1 $377 $378 $17 $-1 $379 reversed single #
loop $-1 $-1 $380 $215 #
plane-surface $-1 0 0 10.297235630352512 0 0 1 1 0 0 forward_v I I I I #
coedge $-1 $381 $382 $380 $383 reversed $216 $-1 #
coedge $-1 $384 $300 $305 $385 reversed $218 $-1 #
coedge $-1 $299 $386 $219 $301 reversed $218 $-1 #
edge $-1 $306 -4.9807808795499504 $387 4.429359460594495e-015 $219 $388 forward 7 unknown #
coedge $-1 $389 $390 $220 $303 forward $391 $-1 #
edge $-1 $307 33.28230567272864 $387 36.54999197991831 $302 $392 forward 7 unknown #
coedge $-1 $393 $221 $390 $394 forward $296 $-1 #
coedge $-1 $221 $380 $299 $385 forward $296 $-1 #
vertex $-1 $385 $395 #
vertex $-1 $394 $396 #
straight-curve $-1 20.523863367422102 -49.222743602018433 10.29723563035251 0 -1 0 I I #
vertex $-1 $223 $397 #
point $-1 11.976002242494161 -26.22758523345583 7.8778767859046503 #
face $-1 $398 $399 $18 $-1 $400 forward single #
loop $-1 $401 $402 $227 #
cone-surface $-1 11.476002242494161 -26.063570474213655 7.6891993925827915 0 0.6560590369687036 -0.75470957328743171 0.25 0 0 1 I I -0.70710678118654624 0.70710678118654879 0.25 forward I I I I #
loop $-1 $-1 $403 $144 #
coedge $-1 $315 $315 $404 $405 reversed $228 $-1 #
coedge $-1 $230 $406 $407 $408 forward $145 $-1 #
coedge $-1 $407 $240 $231 $318 forward $242 $-1 #
edge $-1 $322 -55.437895654031948 $319 -52.170209346842285 $317 $409 forward 7 unknown #
vertex $-1 $318 $410 #
straight-curve $-1 20.523863367422102 27.494696400582768 10.29723563035251 0 -1 0 I I #
edge $-1 $238 -3.3098600036808605 $322 14.785862246175022 $240 $411 forward 7 unknown #
vertex $-1 $321 $412 #
straight-curve $-1 20.523863367422102 -14.666149276310009 44.805356671390129 0 -0.75470957328743171 0.6560590369687036 I I #
point $-1 20.523863367422102 25.030902114317996 10.29723563035251 #
point $-1 2.42814111756622 28.789945126561321 7.029549323162847 #
coedge $-1 $241 $413 $414 $415 reversed $242 $-1 #
face $-1 $416 $242 $18 $-1 $417 reversed single #
coedge $-1 $418 $244 $419 $420 forward $145 $-1 #
coedge $-1 $414 $421 $244 $330 reversed $422 $-1 #
edge $-1 $331 -28.789945126561324 $423 28.789945126561324 $329 $424 forward 7 unknown #
vertex $-1 $245 $425 #
straight-curve $-1 0 28.789945126561324 10.297235630352512 -1 0 0 I I #
face $-1 $426 $427 $19 $-1 $428 reversed single #
loop $-1 $-1 $429 $248 #
plane-surface $-1 0 0 10.297235630352512 0 0 1 1 0 0 forward_v I I I I #
coedge $-1 $430 $431 $429 $432 reversed $249 $-1 #
coedge $-1 $433 $338 $343 $434 reversed $251 $-1 #
coedge $-1 $337 $435 $252 $339 reversed $251 $-1 #
edge $-1 $344 52.599109373572702 $436 57.579890253122642 $252 $437 forward 7 unknown #
coedge $-1 $438 $439 $253 $341 forward $440 $-1 #
edge $-1 $345 52.170209346842285 $436 55.437895654031948 $340 $441 forward 7 unknown #
coedge $-1 $442 $254 $439 $443 forward $334 $-1 #
coedge $-1 $254 $429 $337 $434 forward $334 $-1 #
vertex $-1 $434 $444 #
vertex $-1 $443 $445 #
straight-curve $-1 2.42814111756622 27.494696400582768 10.29723563035251 0 1 0 I I #
vertex $-1 $256 $446 #
point $-1 11.976002242494161 26.227585233455827 7.8778767859046503 #
straight-curve $-1 -53.086336863307594 28.789945126561324 0 0 0 -1 I I #
point $-1 -53.086336863307594 -28.789945126561324 -10.297235630352512 #
straight-curve $-1 -53.086336863307594 0 -10.297235630352512 0 1 0 I I #
point $-1 -53.086336863307594 28.789945126561324 -10.297235630352512 #
face $-1 $447 $448 $16 $-1 $449 reversed single #
loop $-1 $-1 $450 $276 #
plane-surface $-1 -53.086336863307594 0 0 1 0 0 0 0 -1 forward_v I I I I #
coedge $-1 $451 $278 $367 $452 forward $195 $-1 #
coedge $-1 $278 $451 $453 $454 forward $195 $-1 #
coedge $-1 $372 $368 $278 $359 reversed $373 $-1 #
edge $-1 $455 -28.789945126561324 $456 28.789945126561324 $358 $457 forward 7 unknown #
coedge $-1 $279 $290 $458 $459 forward $122 $-1 #
coedge $-1 $460 $280 $279 $362 reversed $209 $-1 #
edge $-1 $461 -53.086336863307594 $282 2.42814111756622 $361 $294 forward 7 unknown #
straight-curve $-1 2.42814111756622 -28.789945126561328 43.57954130308115 0 0 1 I I #
point $-1 2.42814111756622 -28.789945126561324 10.297235630352512 #
straight-curve $-1 5.7380011212470805 -28.789945126561324 7.0295493231628345 -1 0 0 I I #
point $-1 2.42814111756622 -28.789945126561324 7.0295493231628372 #
coedge $-1 $289 $460 $356 $452 reversed $209 $-1 #
coedge $-1 $358 $291 $289 $369 forward $373 $-1 #
edge $-1 $293 -10.297235630352512 $456 10.297235630352512 $368 $462 forward 7 unknown #
coedge $-1 $463 $464 $290 $371 reversed $448 $-1 #
edge $-1 $374 -53.086336863307594 $465 53.086336863307594 $370 $466 forward 7 unknown #
coedge $-1 $291 $358 $463 $467 reversed $373 $-1 #
loop $-1 $-1 $368 $447 #
vertex $-1 $292 $468 #
straight-curve $-1 53.086336863307594 0 10.297235630352512 0 1 0 I I #
point $-1 53.086336863307594 -28.789945126561324 10.297235630352512 #
face $-1 $469 $391 $17 $-1 $470 reversed single #
loop $-1 $-1 $471 $295 #
plane-surface $-1 0 0 -10.297235630352512 0 0 1 1 0 0 forward_v I I I I #
coedge $-1 $305 $472 $298 $383 forward $296 $-1 #
coedge $-1 $382 $298 $473 $474 reversed $216 $-1 #
coedge $-1 $298 $381 $384 $475 forward $216 $-1 #
edge $-1 $476 20.432798475457108 $477 24.191841487700454 $380 $478 forward 7 unknown #
coedge $-1 $386 $299 $382 $475 reversed $218 $-1 #
edge $-1 $477 -3.3098600036808605 $306 14.785862246175022 $305 $479 forward 7 unknown #
coedge $-1 $300 $384 $389 $480 reversed $218 $-1 #
vertex $-1 $480 $481 #
straight-curve $-1 20.523863367422102 -28.789945126561321 7.0295493231628399 0 -0.75470957328743171 -0.6560590369687036 I I #
coedge $-1 $473 $302 $386 $480 forward $391 $-1 #
coedge $-1 $302 $482 $304 $394 reversed $391 $-1 #
loop $-1 $-1 $473 $377 #
straight-curve $-1 20.523863367422102 -28.789945126561328 43.57954130308115 0 0 -1 I I #
coedge $-1 $483 $304 $484 $485 forward $296 $-1 #
edge $-1 $307 20.523863367422102 $486 53.086336863307594 $390 $487 forward 7 unknown #
point $-1 20.523863367422102 -25.030902114317978 10.297235630352512 #
point $-1 20.523863367422102 -28.789945126561324 10.297235630352512 #
point $-1 11.476002242494161 -25.899555714971481 7.5005219992609327 #
face $-1 $488 $489 $18 $-1 $490 forward single #
loop $-1 $-1 $491 $311 #
plane-surface $-1 20.523863367422102 -98.445487204036866 87.159082606162301 -1 0 0 0 -0.6560590369687036 0.75470957328743171 forward_v I I I I #
loop $-1 $-1 $492 $227 #
coedge $-1 $402 $402 $403 $493 forward $312 $-1 #
coedge $-1 $403 $403 $402 $493 reversed $314 $-1 #
coedge $-1 $404 $404 $315 $405 forward $489 $-1 #
edge $-1 $494 -3.9606256098776917e-015 $494 6.2831853071795969 $404 $495 forward 7 unknown #
coedge $-1 $316 $496 $497 $498 forward $145 $-1 #
coedge $-1 $499 $317 $316 $408 reversed $242 $-1 #
edge $-1 $500 -53.086336863307594 $319 -20.523863367422102 $407 $332 forward 7 unknown #
straight-curve $-1 20.523863367422102 28.789945126561324 62.467444977194795 0 0 1 I I #
point $-1 20.523863367422102 28.789945126561324 10.297235630352512 #
straight-curve $-1 5.7380011212470805 28.789945126561328 7.029549323162847 1 0 0 I I #
point $-1 20.523863367422102 28.789945126561321 7.029549323162847 #
coedge $-1 $326 $499 $501 $502 reversed $242 $-1 #
coedge $-1 $503 $329 $326 $415 forward $422 $-1 #
edge $-1 $331 -10.297235630352512 $504 10.297235630352512 $326 $505 forward 7 unknown #
face $-1 $-1 $506 $18 $-1 $507 reversed single #
plane-surface $-1 0 28.789945126561324 0 0 -1 0 0 0 -1 forward_v I I I I #
coedge $-1 $508 $328 $509 $510 forward $145 $-1 #
coedge $-1 $511 $512 $328 $420 reversed $513 $-1 #
edge $-1 $423 -53.086336863307594 $514 2.42814111756622 $419 $515 forward 7 unknown #
coedge $-1 $329 $503 $511 $516 reversed $422 $-1 #
loop $-1 $-1 $414 $517 #
vertex $-1 $330 $518 #
straight-curve $-1 -53.086336863307594 0 10.297235630352512 0 -1 0 I I #
point $-1 -53.086336863307594 28.789945126561324 10.297235630352512 #
face $-1 $519 $520 $19 $-1 $521 reversed single #
loop $-1 $522 $523 $333 #
cone-surface $-1 11.476002242494161 -26.569004426947746 8.2706346313311645 0 0.6560590369687036 -0.75470957328743171 0.5 0 0 1 I I 0 1 0.5 forward I I I I #
coedge $-1 $343 $524 $336 $432 forward $334 $-1 #
coedge $-1 $431 $336 $525 $526 reversed $249 $-1 #
coedge $-1 $336 $430 $433 $527 forward $249 $-1 #
edge $-1 $528 -1.2952487259785563 $529 2.4637942862647719 $429 $530 forward 7 unknown #
coedge $-1 $435 $337 $431 $527 reversed $251 $-1 #
edge $-1 $529 -14.785862246175022 $344 3.3098600036808605 $343 $531 forward 7 unknown #
coedge $-1 $338 $433 $438 $532 reversed $251 $-1 #
vertex $-1 $532 $533 #
straight-curve $-1 2.42814111756622 -14.666149276310009 44.805356671390129 0 0.75470957328743171 -0.6560590369687036 I I #
coedge $-1 $525 $340 $435 $532 forward $440 $-1 #
coedge $-1 $340 $534 $342 $443 reversed $440 $-1 #
loop $-1 $-1 $525 $535 #
straight-curve $-1 2.42814111756622 28.789945126561324 62.467444977194795 0 0 -1 I I #
coedge $-1 $536 $342 $537 $538 forward $334 $-1 #
edge $-1 $345 -2.42814111756622 $539 53.086336863307594 $439 $540 forward 7 unknown #
point $-1 2.42814111756622 25.030902114317996 10.29723563035251 #
point $-1 2.42814111756622 28.789945126561324 10.297235630352512 #
point $-1 11.476002242494161 25.899555714971477 7.5005219992609327 #
face $-1 $-1 $373 $16 $-1 $541 reversed single #
loop $-1 $-1 $463 $353 #
plane-surface $-1 0 28.789945126561324 0 0 -1 0 0 0 -1 forward_v I I I I #
coedge $-1 $542 $458 $464 $543 forward $354 $-1 #
coedge $-1 $357 $356 $542 $544 forward $195 $-1 #
edge $-1 $456 -53.086336863307594 $545 53.086336863307594 $367 $546 forward 7 unknown #
coedge $-1 $464 $463 $357 $454 reversed $448 $-1 #
edge $-1 $547 -53.086336863307594 $455 53.086336863307594 $453 $548 forward 7 unknown #
vertex $-1 $359 $549 #
vertex $-1 $369 $550 #
straight-curve $-1 53.086336863307594 0 -10.297235630352512 0 -1 0 I I #
coedge $-1 $450 $551 $360 $459 reversed $354 $-1 #
edge $-1 $465 -28.789945126561324 $461 28.789945126561324 $458 $552 forward 7 unknown #
coedge $-1 $367 $361 $551 $553 forward $209 $-1 #
vertex $-1 $459 $554 #
straight-curve $-1 53.086336863307594 -28.789945126561324 0 0 0 -1 I I #
coedge $-1 $453 $370 $372 $467 forward $448 $-1 #
coedge $-1 $370 $453 $450 $543 reversed $448 $-1 #
vertex $-1 $371 $555 #
straight-curve $-1 0 28.789945126561324 10.297235630352512 -1 0 0 I I #
edge $-1 $374 -10.297235630352512 $455 10.297235630352512 $372 $556 forward 7 unknown #
point $-1 53.086336863307594 28.789945126561324 10.297235630352512 #
face $-1 $557 $558 $17 $-1 $559 reversed single #
plane-surface $-1 0 -28.789945126561324 0 0 1 0 0 0 1 forward_v I I I I #
coedge $-1 $560 $561 $562 $563 forward $378 $-1 #
coedge $-1 $380 $564 $565 $566 forward $296 $-1 #
coedge $-1 $565 $389 $381 $474 forward $391 $-1 #
edge $-1 $567 -36.54999197991831 $476 -33.28230567272864 $473 $568 forward 7 unknown #
edge $-1 $567 -4.429359460594495e-015 $477 4.9807808795499504 $382 $569 forward 7 unknown #
vertex $-1 $474 $570 #
vertex $-1 $385 $571 #
straight-curve $-1 2.42814111756622 -49.222743602018433 10.29723563035251 0 1 0 I I #
straight-curve $-1 5.7380011212470805 -25.030902114317982 10.297235630352514 1 0 0 I I #
edge $-1 $387 -14.785862246175022 $567 3.3098600036808605 $389 $572 forward 7 unknown #
point $-1 20.523863367422102 -28.789945126561324 7.0295493231628372 #
coedge $-1 $390 $573 $574 $575 reversed $391 $-1 #
coedge $-1 $564 $393 $576 $577 forward $296 $-1 #
coedge $-1 $574 $578 $393 $485 reversed $579 $-1 #
edge $-1 $486 -28.789945126561324 $580 28.789945126561324 $484 $581 forward 7 unknown #
vertex $-1 $485 $582 #
straight-curve $-1 0 -28.789945126561324 10.297235630352512 1 0 0 I I #
face $-1 $583 $584 $18 $-1 $585 forward single #
loop $-1 $586 $404 $398 #
plane-surface $-1 11.476002242494161 -28.789945126561321 7.0295493231628399 0 -0.6560590369687036 0.75470957328743171 1 0 0 forward_v I I I I #
coedge $-1 $587 $588 $589 $590 reversed $399 $-1 #
coedge $-1 $492 $492 $-1 $591 forward $401 $-1 #
edge $-1 $592 0 $592 6.2831853071796004 $402 $593 forward 7 unknown #
vertex $-1 $405 $594 #
ellipse-curve $-1 11.476002242494161 -26.910423620439655 8.6633924767576715 0 0.6560590369687036 -0.75470957328743171 0.5 0 0 1 I I #
coedge $-1 $406 $589 $595 $596 forward $145 $-1 #
coedge $-1 $597 $598 $406 $498 reversed $506 $-1 #
edge $-1 $599 -28.789945126561324 $500 28.789945126561324 $497 $600 forward 7 unknown #
coedge $-1 $413 $407 $598 $601 forward $242 $-1 #
vertex $-1 $498 $602 #
coedge $-1 $603 $604 $413 $502 forward $605 $-1 #
edge $-1 $504 -53.086336863307594 $606 53.086336863307594 $413 $607 forward 7 unknown #
coedge $-1 $421 $414 $604 $608 reversed $422 $-1 #
vertex $-1 $502 $609 #
straight-curve $-1 -53.086336863307594 28.789945126561324 0 0 0 -1 I I #
loop $-1 $-1 $597 $416 #
plane-surface $-1 53.086336863307594 0 0 -1 0 0 0 0 1 forward_v I I I I #
coedge $-1 $589 $418 $610 $611 forward $145 $-1 #
coedge $-1 $612 $613 $418 $510 reversed $584 $-1 #
edge $-1 $514 20.432798475457108 $614 24.191841487700454 $418 $615 forward 7 unknown #
coedge $-1 $616 $419 $421 $516 forward $513 $-1 #
coedge $-1 $419 $617 $612 $618 forward $513 $-1 #
loop $-1 $-1 $512 $619 #
vertex $-1 $618 $620 #
straight-curve $-1 0 -28.789945126561324 10.297235630352512 1 0 0 I I #
edge $-1 $423 -10.297235630352512 $621 10.297235630352512 $421 $622 forward 7 unknown #
face $-1 $327 $422 $18 $-1 $623 reversed single #
point $-1 -53.086336863307594 -28.789945126561324 10.297235630352512 #
face $-1 $624 $625 $19 $-1 $626 forward single #
loop $-1 $627 $628 $426 #
cone-surface $-1 11.476002242494161 -26.063570474213655 7.6891993925827915 0 0.6560590369687036 -0.75470957328743171 0.25 0 0 1 I I -0.70710678118654624 0.70710678118654879 0.25 forward I I I I #
loop $-1 $-1 $629 $333 #
coedge $-1 $523 $523 $630 $631 reversed $427 $-1 #
coedge $-1 $429 $632 $633 $634 forward $334 $-1 #
coedge $-1 $633 $438 $430 $526 forward $440 $-1 #
edge $-1 $635 -55.437895654031948 $528 -52.170209346842285 $525 $636 forward 7 unknown #
edge $-1 $635 -57.579890253122642 $529 -52.599109373572702 $431 $637 forward 7 unknown #
vertex $-1 $526 $638 #
vertex $-1 $434 $639 #
straight-curve $-1 20.523863367422102 27.494696400582768 10.29723563035251 0 -1 0 I I #
straight-curve $-1 5.7380011212470805 25.030902114317989 10.297235630352517 -1 0 0 I I #
edge $-1 $436 -3.3098600036808605 $635 14.785862246175022 $438 $640 forward 7 unknown #
point $-1 2.42814111756622 28.789945126561321 7.029549323162847 #
coedge $-1 $439 $641 $642 $643 reversed $440 $-1 #
face $-1 $644 $440 $19 $-1 $645 reversed single #
coedge $-1 $646 $442 $647 $648 forward $334 $-1 #
coedge $-1 $642 $649 $442 $538 reversed $650 $-1 #
edge $-1 $539 -28.789945126561324 $651 28.789945126561324 $537 $652 forward 7 unknown #
vertex $-1 $443 $653 #
straight-curve $-1 0 28.789945126561324 10.297235630352512 -1 0 0 I I #
plane-surface $-1 53.086336863307594 0 0 -1 0 0 0 0 1 forward_v I I I I #
coedge $-1 $551 $450 $451 $544 reversed $354 $-1 #
edge $-1 $465 -10.297235630352512 $547 10.297235630352512 $464 $654 forward 7 unknown #
edge $-1 $545 -28.789945126561324 $547 28.789945126561324 $542 $655 forward 7 unknown #
vertex $-1 $544 $656 #
straight-curve $-1 0 -28.789945126561324 -10.297235630352512 -1 0 0 I I #
vertex $-1 $454 $657 #
straight-curve $-1 0 28.789945126561324 -10.297235630352512 1 0 0 I I #
point $-1 53.086336863307594 28.789945126561324 -10.297235630352512 #
point $-1 53.086336863307594 -28.789945126561324 -10.297235630352512 #
coedge $-1 $458 $542 $460 $553 reversed $354 $-1 #
straight-curve $-1 -53.086336863307594 0 10.297235630352512 0 -1 0 I I #
edge $-1 $461 -10.297235630352512 $545 10.297235630352512 $551 $658 forward 7 unknown #
point $-1 -53.086336863307594 -28.789945126561324 10.297235630352512 #
point $-1 -53.086336863307594 28.789945126561324 10.297235630352512 #
straight-curve $-1 53.086336863307594 28.789945126561324 0 0 0 -1 I I #
face $-1 $659 $660 $17 $-1 $661 reversed single #
loop $-1 $-1 $662 $469 #
plane-surface $-1 -53.086336863307594 0 0 1 0 0 0 0 -1 forward_v I I I I #
coedge $-1 $663 $471 $573 $664 forward $378 $-1 #
coedge $-1 $471 $663 $665 $666 forward $378 $-1 #
coedge $-1 $578 $574 $471 $563 reversed $579 $-1 #
edge $-1 $667 -28.789945126561324 $668 28.789945126561324 $562 $669 forward 7 unknown #
coedge $-1 $472 $483 $670 $671 forward $296 $-1 #
coedge $-1 $672 $473 $472 $566 reversed $391 $-1 #
edge $-1 $673 -53.086336863307594 $476 2.42814111756622 $565 $487 forward 7 unknown #
vertex $-1 $480 $674 #
straight-curve $-1 2.42814111756622 -28.789945126561328 43.57954130308115 0 0 1 I I #
straight-curve $-1 2.42814111756622 -28.789945126561321 7.0295493231628399 0 0.75470957328743171 0.6560590369687036 I I #
point $-1 2.42814111756622 -28.789945126561324 10.297235630352512 #
point $-1 2.42814111756622 -25.030902114317978 10.297235630352512 #
straight-curve $-1 5.7380011212470805 -28.789945126561324 7.0295493231628345 -1 0 0 I I #
coedge $-1 $482 $672 $560 $664 reversed $391 $-1 #
coedge $-1 $562 $484 $482 $575 forward $579 $-1 #
edge $-1 $486 -10.297235630352512 $668 10.297235630352512 $574 $675 forward 7 unknown #
coedge $-1 $676 $677 $483 $577 reversed $660 $-1 #
edge $-1 $580 -53.086336863307594 $678 53.086336863307594 $576 $679 forward 7 unknown #
coedge $-1 $484 $562 $676 $680 reversed $579 $-1 #
loop $-1 $-1 $574 $659 #
vertex $-1 $485 $681 #
straight-curve $-1 53.086336863307594 0 10.297235630352512 0 1 0 I I #
point $-1 53.086336863307594 -28.789945126561324 10.297235630352512 #
face $-1 $619 $605 $18 $-1 $682 reversed single #
loop $-1 $-1 $509 $488 #
plane-surface $-1 2.42814111756622 -98.445487204036866 87.159082606162301 1 0 0 0 0.6560590369687036 -0.75470957328743171 forward_v I I I I #
loop $-1 $-1 $610 $398 #
coedge $-1 $588 $491 $683 $684 forward $399 $-1 #
coedge $-1 $491 $587 $685 $686 reversed $399 $-1 #
coedge $-1 $496 $508 $491 $590 forward $145 $-1 #
edge $-1 $687 -24.191841487700454 $688 -20.432798475457108 $589 $689 forward 7 unknown #
edge $-1 $690 1 $690 0 $492 $-1 forward 7 unknown #
vertex $-1 $493 $691 #
ellipse-curve $-1 11.476002242494161 -26.22758523345583 7.8778767859046503 0 -0.6560590369687036 0.75470957328743171 0.5 0 0 1 I I #
point $-1 11.976002242494161 -26.910423620439659 8.6633924767576787 #
coedge $-1 $685 $692 $496 $596 reversed $513 $-1 #
edge $-1 $688 20.523863367422102 $599 53.086336863307594 $595 $515 forward 7 unknown #
coedge $-1 $693 $497 $692 $694 forward $506 $-1 #
coedge $-1 $497 $693 $499 $601 reversed $506 $-1 #
vertex $-1 $498 $695 #
straight-curve $-1 53.086336863307594 0 10.297235630352512 0 1 0 I I #
edge $-1 $500 -10.297235630352512 $606 10.297235630352512 $598 $696 forward 7 unknown #
point $-1 53.086336863307594 28.789945126561324 10.297235630352512 #
coedge $-1 $697 $501 $693 $698 forward $605 $-1 #
coedge $-1 $501 $697 $503 $608 forward $605 $-1 #
loop $-1 $-1 $603 $583 #
vertex $-1 $698 $699 #
straight-curve $-1 0 28.789945126561324 -10.297235630352512 1 0 0 I I #
edge $-1 $621 -28.789945126561324 $504 28.789945126561324 $503 $700 forward 7 unknown #
point $-1 -53.086336863307594 28.789945126561324 -10.297235630352512 #
coedge $-1 $701 $683 $508 $611 reversed $586 $-1 #
edge $-1 $614 -3.3098600036808605 $687 14.785862246175022 $508 $702 forward 7 unknown #
coedge $-1 $613 $509 $512 $618 reversed $584 $-1 #
coedge $-1 $509 $612 $701 $703 forward $584 $-1 #
vertex $-1 $611 $704 #
straight-curve $-1 2.42814111756622 -49.222743602018433 10.29723563035251 0 1 0 I I #
coedge $-1 $692 $511 $697 $705 reversed $513 $-1 #
coedge $-1 $512 $685 $706 $707 forward $513 $-1 #
edge $-1 $708 -36.54999197991831 $514 -33.28230567272864 $512 $709 forward 7 unknown #
face $-1 $517 $513 $18 $-1 $710 reversed single #
point $-1 2.42814111756622 -28.789945126561324 10.297235630352512 #
vertex $-1 $608 $711 #
straight-curve $-1 -53.086336863307594 -28.789945126561324 0 0 0 -1 I I #
plane-surface $-1 -53.086336863307594 0 0 1 0 0 0 0 -1 forward_v I I I I #
face $-1 $712 $713 $19 $-1 $714 forward single #
loop $-1 $-1 $715 $519 #
plane-surface $-1 20.523863367422102 -98.445487204036866 87.159082606162301 -1 0 0 0 -0.6560590369687036 0.75470957328743171 forward_v I I I I #
loop $-1 $-1 $716 $426 #
coedge $-1 $628 $628 $629 $717 forward $520 $-1 #
coedge $-1 $629 $629 $628 $717 reversed $522 $-1 #
coedge $-1 $630 $630 $523 $631 forward $713 $-1 #
edge $-1 $718 -3.9606256098776917e-015 $718 6.2831853071795969 $630 $719 forward 7 unknown #
coedge $-1 $524 $720 $721 $722 forward $334 $-1 #
coedge $-1 $723 $525 $524 $634 reversed $440 $-1 #
edge $-1 $724 -53.086336863307594 $528 -20.523863367422102 $633 $540 forward 7 unknown #
vertex $-1 $532 $725 #
straight-curve $-1 20.523863367422102 28.789945126561324 62.467444977194795 0 0 1 I I #
straight-curve $-1 20.523863367422102 -14.666149276310009 44.805356671390129 0 -0.75470957328743171 0.6560590369687036 I I #
point $-1 20.523863367422102 28.789945126561324 10.297235630352512 #
point $-1 20.523863367422102 25.030902114317996 10.29723563035251 #
straight-curve $-1 5.7380011212470805 28.789945126561328 7.029549323162847 1 0 0 I I #
coedge $-1 $534 $723 $726 $727 reversed $440 $-1 #
coedge $-1 $728 $537 $534 $643 forward $650 $-1 #
edge $-1 $539 -10.297235630352512 $729 10.297235630352512 $534 $730 forward 7 unknown #
face $-1 $-1 $731 $19 $-1 $732 reversed single #
plane-surface $-1 0 28.789945126561324 0 0 -1 0 0 0 -1 forward_v I I I I #
coedge $-1 $733 $536 $734 $735 forward $334 $-1 #
coedge $-1 $736 $737 $536 $648 reversed $738 $-1 #
edge $-1 $651 -53.086336863307594 $739 2.42814111756622 $647 $740 forward 7 unknown #
coedge $-1 $537 $728 $736 $741 reversed $650 $-1 #
loop $-1 $-1 $642 $742 #
vertex $-1 $538 $743 #
straight-curve $-1 -53.086336863307594 0 10.297235630352512 0 -1 0 I I #
point $-1 -53.086336863307594 28.789945126561324 10.297235630352512 #
straight-curve $-1 -53.086336863307594 28.789945126561324 0 0 0 -1 I I #
straight-curve $-1 -53.086336863307594 0 -10.297235630352512 0 1 0 I I #
point $-1 -53.086336863307594 -28.789945126561324 -10.297235630352512 #
point $-1 -53.086336863307594 28.789945126561324 -10.297235630352512 #
straight-curve $-1 -53.086336863307594 -28.789945126561324 0 0 0 -1 I I #
face $-1 $-1 $579 $17 $-1 $744 reversed single #
loop $-1 $-1 $676 $557 #
plane-surface $-1 0 28.789945126561324 0 0 -1 0 0 0 -1 forward_v I I I I #
coedge $-1 $745 $670 $677 $746 forward $558 $-1 #
coedge $-1 $561 $560 $745 $747 forward $378 $-1 #
edge $-1 $668 -53.086336863307594 $748 53.086336863307594 $573 $749 forward 7 unknown #
coedge $-1 $677 $676 $561 $666 reversed $660 $-1 #
edge $-1 $750 -53.086336863307594 $667 53.086336863307594 $665 $751 forward 7 unknown #
vertex $-1 $563 $752 #
vertex $-1 $575 $753 #
straight-curve $-1 53.086336863307594 0 -10.297235630352512 0 -1 0 I I #
coedge $-1 $662 $754 $564 $671 reversed $558 $-1 #
edge $-1 $678 -28.789945126561324 $673 28.789945126561324 $670 $755 forward 7 unknown #
coedge $-1 $573 $565 $754 $756 forward $391 $-1 #
vertex $-1 $671 $757 #
point $-1 2.42814111756622 -28.789945126561324 7.0295493231628372 #
straight-curve $-1 53.086336863307594 -28.789945126561324 0 0 0 -1 I I #
coedge $-1 $665 $576 $578 $680 forward $660 $-1 #
coedge $-1 $576 $665 $662 $746 reversed $660 $-1 #
vertex $-1 $577 $758 #
straight-curve $-1 0 28.789945126561324 10.297235630352512 -1 0 0 I I #
edge $-1 $580 -10.297235630352512 $667 10.297235630352512 $578 $759 forward 7 unknown #
point $-1 53.086336863307594 28.789945126561324 10.297235630352512 #
plane-surface $-1 0 0 -10.297235630352512 0 0 1 1 0 0 forward_v I I I I #
coedge $-1 $610 $706 $587 $684 reversed $586 $-1 #
edge $-1 $687 -4.9807808795499504 $760 4.429359460594495e-015 $587 $761 forward 7 unknown #
coedge $-1 $617 $595 $588 $686 forward $513 $-1 #
edge $-1 $688 33.28230567272864 $760 36.54999197991831 $685 $762 forward 7 unknown #
vertex $-1 $611 $763 #
vertex $-1 $596 $764 #
straight-curve $-1 20.523863367422102 -49.222743602018433 10.29723563035251 0 -1 0 I I #
vertex $-1 $591 $765 #
point $-1 11.976002242494161 -26.22758523345583 7.8778767859046503 #
coedge $-1 $595 $616 $597 $694 reversed $513 $-1 #
coedge $-1 $598 $597 $603 $698 reversed $506 $-1 #
edge $-1 $599 -10.297235630352512 $766 10.297235630352512 $597 $767 forward 7 unknown #
point $-1 53.086336863307594 -28.789945126561324 10.297235630352512 #
straight-curve $-1 53.086336863307594 28.789945126561324 0 0 0 -1 I I #
coedge $-1 $604 $603 $616 $705 forward $605 $-1 #
edge $-1 $606 -28.789945126561324 $766 28.789945126561324 $693 $768 forward 7 unknown #
point $-1 53.086336863307594 28.789945126561324 -10.297235630352512 #
straight-curve $-1 -53.086336863307594 0 -10.297235630352512 0 1 0 I I #
coedge $-1 $706 $610 $613 $703 reversed $586 $-1 #
straight-curve $-1 5.7380011212470805 -25.030902114317982 10.297235630352514 1 0 0 I I #
edge $-1 $708 -4.429359460594495e-015 $614 4.9807808795499504 $613 $769 forward 7 unknown #
point $-1 2.42814111756622 -25.030902114317978 10.297235630352512 #
edge $-1 $766 -53.086336863307594 $621 53.086336863307594 $616 $770 forward 7 unknown #
coedge $-1 $683 $701 $617 $707 reversed $586 $-1 #
edge $-1 $760 -14.785862246175022 $708 3.3098600036808605 $617 $771 forward 7 unknown #
vertex $-1 $707 $772 #
straight-curve $-1 2.42814111756622 -28.789945126561328 43.57954130308115 0 0 1 I I #
plane-surface $-1 0 -28.789945126561324 0 0 1 0 0 0 1 forward_v I I I I #
point $-1 -53.086336863307594 -28.789945126561324 -10.297235630352512 #
face $-1 $773 $774 $19 $-1 $775 forward single #
loop $-1 $776 $630 $624 #
plane-surface $-1 11.476002242494161 -28.789945126561321 7.0295493231628399 0 -0.6560590369687036 0.75470957328743171 1 0 0 forward_v I I I I #
coedge $-1 $777 $778 $779 $780 reversed $625 $-1 #
coedge $-1 $716 $716 $-1 $781 forward $627 $-1 #
edge $-1 $782 0 $782 6.2831853071796004 $628 $783 forward 7 unknown #
vertex $-1 $631 $784 #
ellipse-curve $-1 11.476002242494161 -26.910423620439655 8.6633924767576715 0 0.6560590369687036 -0.75470957328743171 0.5 0 0 1 I I #
coedge $-1 $632 $779 $785 $786 forward $334 $-1 #
coedge $-1 $787 $788 $632 $722 reversed $731 $-1 #
edge $-1 $789 -28.789945126561324 $724 28.789945126561324 $721 $790 forward 7 unknown #
coedge $-1 $641 $633 $788 $791 forward $440 $-1 #
vertex $-1 $722 $792 #
point $-1 20.523863367422102 28.789945126561321 7.029549323162847 #
coedge $-1 $793 $794 $641 $727 forward $795 $-1 #
edge $-1 $729 -53.086336863307594 $796 53.086336863307594 $641 $797 forward 7 unknown #
coedge $-1 $649 $642 $794 $798 reversed $650 $-1 #
vertex $-1 $727 $799 #
straight-curve $-1 -53.086336863307594 28.789945126561324 0 0 0 -1 I I #
loop $-1 $-1 $787 $644 #
plane-surface $-1 53.086336863307594 0 0 -1 0 0 0 0 1 forward_v I I I I #
coedge $-1 $779 $646 $800 $801 forward $334 $-1 #
coedge $-1 $802 $803 $646 $735 reversed $774 $-1 #
edge $-1 $739 20.432798475457108 $804 24.191841487700454 $646 $805 forward 7 unknown #
coedge $-1 $806 $647 $649 $741 forward $738 $-1 #
coedge $-1 $647 $807 $802 $808 forward $738 $-1 #
loop $-1 $-1 $737 $809 #
vertex $-1 $808 $810 #
straight-curve $-1 0 -28.789945126561324 10.297235630352512 1 0 0 I I #
edge $-1 $651 -10.297235630352512 $811 10.297235630352512 $649 $812 forward 7 unknown #
face $-1 $535 $650 $19 $-1 $813 reversed single #
point $-1 -53.086336863307594 -28.789945126561324 10.297235630352512 #
plane-surface $-1 53.086336863307594 0 0 -1 0 0 0 0 1 forward_v I I I I #
coedge $-1 $754 $662 $663 $747 reversed $558 $-1 #
edge $-1 $678 -10.297235630352512 $750 10.297235630352512 $677 $814 forward 7 unknown #
edge $-1 $748 -28.789945126561324 $750 28.789945126561324 $745 $815 forward 7 unknown #
vertex $-1 $747 $816 #
straight-curve $-1 0 -28.789945126561324 -10.297235630352512 -1 0 0 I I #
vertex $-1 $666 $817 #
straight-curve $-1 0 28.789945126561324 -10.297235630352512 1 0 0 I I #
point $-1 53.086336863307594 28.789945126561324 -10.297235630352512 #
point $-1 53.086336863307594 -28.789945126561324 -10.297235630352512 #
coedge $-1 $670 $745 $672 $756 reversed $558 $-1 #
straight-curve $-1 -53.086336863307594 0 10.297235630352512 0 -1 0 I I #
edge $-1 $673 -10.297235630352512 $748 10.297235630352512 $754 $818 forward 7 unknown #
point $-1 -53.086336863307594 -28.789945126561324 10.297235630352512 #
point $-1 -53.086336863307594 28.789945126561324 10.297235630352512 #
straight-curve $-1 53.086336863307594 28.789945126561324 0 0 0 -1 I I #
vertex $-1 $707 $819 #
straight-curve $-1 20.523863367422102 -28.789945126561321 7.0295493231628399 0 -0.75470957328743171 -0.6560590369687036 I I #
straight-curve $-1 20.523863367422102 -28.789945126561328 43.57954130308115 0 0 -1 I I #
point $-1 20.523863367422102 -25.030902114317978 10.297235630352512 #
point $-1 20.523863367422102 -28.789945126561324 10.297235630352512 #
point $-1 11.476002242494161 -25.899555714971481 7.5005219992609327 #
vertex $-1 $694 $820 #
straight-curve $-1 53.086336863307594 -28.789945126561324 0 0 0 -1 I I #
straight-curve $-1 53.086336863307594 0 -10.297235630352512 0 -1 0 I I #
straight-curve $-1 2.42814111756622 -28.789945126561321 7.0295493231628399 0 0.75470957328743171 0.6560590369687036 I I #
straight-curve $-1 0 -28.789945126561324 -10.297235630352512 -1 0 0 I I #
straight-curve $-1 5.7380011212470805 -28.789945126561324 7.0295493231628345 -1 0 0 I I #
point $-1 2.42814111756622 -28.789945126561324 7.0295493231628372 #
face $-1 $809 $795 $19 $-1 $821 reversed single #
loop $-1 $-1 $734 $712 #
plane-surface $-1 2.42814111756622 -98.445487204036866 87.159082606162301 1 0 0 0 0.6560590369687036 -0.75470957328743171 forward_v I I I I #
loop $-1 $-1 $800 $624 #
coedge $-1 $778 $715 $822 $823 forward $625 $-1 #
coedge $-1 $715 $777 $824 $825 reversed $625 $-1 #
coedge $-1 $720 $733 $715 $780 forward $334 $-1 #
edge $-1 $826 -24.191841487700454 $827 -20.432798475457108 $779 $828 forward 7 unknown #
edge $-1 $829 1 $829 0 $716 $-1 forward 7 unknown #
vertex $-1 $717 $830 #
ellipse-curve $-1 11.476002242494161 -26.22758523345583 7.8778767859046503 0 -0.6560590369687036 0.75470957328743171 0.5 0 0 1 I I #
point $-1 11.976002242494161 -26.910423620439659 8.6633924767576787 #
coedge $-1 $824 $831 $720 $786 reversed $738 $-1 #
edge $-1 $827 20.523863367422102 $789 53.086336863307594 $785 $740 forward 7 unknown #
coedge $-1 $832 $721 $831 $833 forward $731 $-1 #
coedge $-1 $721 $832 $723 $791 reversed $731 $-1 #
vertex $-1 $722 $834 #
straight-curve $-1 53.086336863307594 0 10.297235630352512 0 1 0 I I #
edge $-1 $724 -10.297235630352512 $796 10.297235630352512 $788 $835 forward 7 unknown #
point $-1 53.086336863307594 28.789945126561324 10.297235630352512 #
coedge $-1 $836 $726 $832 $837 forward $795 $-1 #
coedge $-1 $726 $836 $728 $798 forward $795 $-1 #
loop $-1 $-1 $793 $773 #
vertex $-1 $837 $838 #
straight-curve $-1 0 28.789945126561324 -10.297235630352512 1 0 0 I I #
edge $-1 $811 -28.789945126561324 $729 28.789945126561324 $728 $839 forward 7 unknown #
point $-1 -53.086336863307594 28.789945126561324 -10.297235630352512 #
coedge $-1 $840 $822 $733 $801 reversed $776 $-1 #
edge $-1 $804 -3.3098600036808605 $826 14.785862246175022 $733 $841 forward 7 unknown #
coedge $-1 $803 $734 $737 $808 reversed $774 $-1 #
coedge $-1 $734 $802 $840 $842 forward $774 $-1 #
vertex $-1 $801 $843 #
straight-curve $-1 2.42814111756622 -49.222743602018433 10.29723563035251 0 1 0 I I #
coedge $-1 $831 $736 $836 $844 reversed $738 $-1 #
coedge $-1 $737 $824 $845 $846 forward $738 $-1 #
edge $-1 $847 -36.54999197991831 $739 -33.28230567272864 $737 $848 forward 7 unknown #
face $-1 $742 $738 $19 $-1 $849 reversed single #
point $-1 2.42814111756622 -28.789945126561324 10.297235630352512 #
vertex $-1 $798 $850 #
straight-curve $-1 -53.086336863307594 -28.789945126561324 0 0 0 -1 I I #
plane-surface $-1 -53.086336863307594 0 0 1 0 0 0 0 -1 forward_v I I I I #
straight-curve $-1 -53.086336863307594 28.789945126561324 0 0 0 -1 I I #
straight-curve $-1 -53.086336863307594 0 -10.297235630352512 0 1 0 I I #
point $-1 -53.086336863307594 -28.789945126561324 -10.297235630352512 #
point $-1 -53.086336863307594 28.789945126561324 -10.297235630352512 #
straight-curve $-1 -53.086336863307594 -28.789945126561324 0 0 0 -1 I I #
point $-1 20.523863367422102 -28.789945126561324 7.0295493231628372 #
point $-1 53.086336863307594 -28.789945126561324 -10.297235630352512 #
plane-surface $-1 0 0 -10.297235630352512 0 0 1 1 0 0 forward_v I I I I #
coedge $-1 $800 $845 $777 $823 reversed $776 $-1 #
edge $-1 $826 -4.9807808795499504 $851 4.429359460594495e-015 $777 $852 forward 7 unknown #
coedge $-1 $807 $785 $778 $825 forward $738 $-1 #
edge $-1 $827 33.28230567272864 $851 36.54999197991831 $824 $853 forward 7 unknown #
vertex $-1 $801 $854 #
vertex $-1 $786 $855 #
straight-curve $-1 20.523863367422102 -49.222743602018433 10.29723563035251 0 -1 0 I I #
vertex $-1 $781 $856 #
point $-1 11.976002242494161 -26.22758523345583 7.8778767859046503 #
coedge $-1 $785 $806 $787 $833 reversed $738 $-1 #
coedge $-1 $788 $787 $793 $837 reversed $731 $-1 #
edge $-1 $789 -10.297235630352512 $857 10.297235630352512 $787 $858 forward 7 unknown #
point $-1 53.086336863307594 -28.789945126561324 10.297235630352512 #
straight-curve $-1 53.086336863307594 28.789945126561324 0 0 0 -1 I I #
coedge $-1 $794 $793 $806 $844 forward $795 $-1 #
edge $-1 $796 -28.789945126561324 $857 28.789945126561324 $832 $859 forward 7 unknown #
point $-1 53.086336863307594 28.789945126561324 -10.297235630352512 #
straight-curve $-1 -53.086336863307594 0 -10.297235630352512 0 1 0 I I #
coedge $-1 $845 $800 $803 $842 reversed $776 $-1 #
straight-curve $-1 5.7380011212470805 -25.030902114317982 10.297235630352514 1 0 0 I I #
edge $-1 $847 -4.429359460594495e-015 $804 4.9807808795499504 $803 $860 forward 7 unknown #
point $-1 2.42814111756622 -25.030902114317978 10.297235630352512 #
edge $-1 $857 -53.086336863307594 $811 53.086336863307594 $806 $861 forward 7 unknown #
coedge $-1 $822 $840 $807 $846 reversed $776 $-1 #
edge $-1 $851 -14.785862246175022 $847 3.3098600036808605 $807 $862 forward 7 unknown #
vertex $-1 $846 $863 #
straight-curve $-1 2.42814111756622 -28.789945126561328 43.57954130308115 0 0 1 I I #
plane-surface $-1 0 -28.789945126561324 0 0 1 0 0 0 1 forward_v I I I I #
point $-1 -53.086336863307594 -28.789945126561324 -10.297235630352512 #
vertex $-1 $846 $864 #
straight-curve $-1 20.523863367422102 -28.789945126561321 7.0295493231628399 0 -0.75470957328743171 -0.6560590369687036 I I #
straight-curve $-1 20.523863367422102 -28.789945126561328 43.57954130308115 0 0 -1 I I #
point $-1 20.523863367422102 -25.030902114317978 10.297235630352512 #
point $-1 20.523863367422102 -28.789945126561324 10.297235630352512 #
point $-1 11.476002242494161 -25.899555714971481 7.5005219992609327 #
vertex $-1 $833 $865 #
straight-curve $-1 53.086336863307594 -28.789945126561324 0 0 0 -1 I I #
straight-curve $-1 53.086336863307594 0 -10.297235630352512 0 -1 0 I I #
straight-curve $-1 2.42814111756622 -28.789945126561321 7.0295493231628399 0 0.75470957328743171 0.6560590369687036 I I #
straight-curve $-1 0 -28.789945126561324 -10.297235630352512 -1 0 0 I I #
straight-curve $-1 5.7380011212470805 -28.789945126561324 7.0295493231628345 -1 0 0 I I #
point $-1 2.42814111756622 -28.789945126561324 7.0295493231628372 #
point $-1 20.523863367422102 -28.789945126561324 7.0295493231628372 #
point $-1 53.086336863307594 -28.789945126561324 -10.297235630352512 #
End-of-ACIS-data 