500 0 11 0           
7 Unknown 11 ACIS 5.0 NT 24 Fri Mar 26 20:29:04 1999 
-1 9.9999999999999995e-007 1e-010 
body $-1 $11 $-1 $12 #
body $-1 $13 $-1 $14 #
body $-1 $15 $-1 $16 #
body $-1 $17 $-1 $18 #
body $-1 $19 $-1 $20 #
body $-1 $21 $-1 $22 #
body $-1 $23 $-1 $24 #
body $-1 $25 $-1 $26 #
body $-1 $27 $-1 $28 #
body $-1 $29 $-1 $30 #
body $-1 $31 $-1 $32 #
lump $-1 $-1 $33 $0 #
transform $-1 1 0 0 0 1 0 0 0 1 58.760338145084994 24.188988101980893 8.5400039325469521 1 rotate no_reflect no_shear #
lump $-1 $-1 $34 $1 #
transform $-1 1 0 0 0 1 0 0 0 1 58.760338145084994 24.188988101980893 8.5400039325469521 1 rotate no_reflect no_shear #
lump $-1 $-1 $35 $2 #
transform $-1 1 0 0 0 1 0 0 0 1 58.760338145084994 24.188988101980893 8.5400039325469521 1 rotate no_reflect no_shear #
lump $-1 $-1 $36 $3 #
transform $-1 1 0 0 0 1 0 0 0 1 58.760338145084994 24.188988101980893 8.5400039325469521 1 rotate no_reflect no_shear #
lump $-1 $-1 $37 $4 #
transform $-1 1 0 0 0 1 0 0 0 1 58.760338145084994 24.188988101980893 8.5400039325469521 1 rotate no_reflect no_shear #
lump $-1 $-1 $38 $5 #
transform $-1 1 0 0 0 1 0 0 0 1 58.760338145084994 24.188988101980893 8.5400039325469521 1 rotate no_reflect no_shear #
lump $-1 $-1 $39 $6 #
transform $-1 1 0 0 0 1 0 0 0 1 58.760338145084994 24.188988101980893 8.5400039325469521 1 rotate no_reflect no_shear #
lump $-1 $-1 $40 $7 #
transform $-1 1 0 0 0 1 0 0 0 1 58.760338145084994 24.188988101980893 8.5400039325469521 1 rotate no_reflect no_shear #
lump $-1 $-1 $41 $8 #
transform $-1 1 0 0 0 1 0 0 0 1 58.760338145084994 24.188988101980893 8.5400039325469521 1 rotate no_reflect no_shear #
lump $-1 $-1 $42 $9 #
transform $-1 1 0 0 0 1 0 0 0 1 58.760338145084994 24.188988101980893 8.5400039325469521 1 rotate no_reflect no_shear #
lump $-1 $-1 $43 $10 #
transform $-1 1 0 0 0 1 0 0 0 1 58.760338145084994 24.188988101980893 8.5400039325469521 1 rotate no_reflect no_shear #
shell $-1 $-1 $-1 $44 $-1 $11 #
shell $-1 $-1 $-1 $45 $-1 $13 #
shell $-1 $-1 $-1 $46 $-1 $15 #
shell $-1 $-1 $-1 $47 $-1 $17 #
shell $-1 $-1 $-1 $48 $-1 $19 #
shell $-1 $-1 $-1 $49 $-1 $21 #
shell $-1 $-1 $-1 $50 $-1 $23 #
shell $-1 $-1 $-1 $51 $-1 $25 #
shell $-1 $-1 $-1 $52 $-1 $27 #
shell $-1 $-1 $-1 $53 $-1 $29 #
shell $-1 $-1 $-1 $54 $-1 $31 #
face $-1 $55 $56 $33 $-1 $57 forward single #
face $-1 $58 $59 $34 $-1 $60 reversed single #
face $-1 $61 $62 $35 $-1 $63 reversed single #
face $-1 $64 $65 $36 $-1 $66 reversed single #
face $-1 $67 $68 $37 $-1 $69 forward single #
face $-1 $70 $71 $38 $-1 $72 reversed single #
face $-1 $73 $74 $39 $-1 $75 forward single #
face $-1 $76 $77 $40 $-1 $78 reversed single #
face $-1 $79 $80 $41 $-1 $81 forward single #
face $-1 $82 $83 $42 $-1 $84 reversed single #
face $-1 $85 $86 $43 $-1 $87 forward single #
face $-1 $88 $89 $33 $-1 $90 reversed single #
loop $-1 $-1 $91 $44 #
plane-surface $-1 0 0 8.5400039325469521 0 0 1 1 0 0 forward_v I I I I #
face $-1 $92 $93 $34 $-1 $94 reversed single #
loop $-1 $-1 $95 $45 #
plane-surface $-1 -56.613309170936354 -18.197375345067112 0 0 -1 0 0 0 -1 forward_v I I I I #
face $-1 $96 $97 $35 $-1 $98 reversed single #
loop $-1 $-1 $99 $46 #
plane-surface $-1 -56.613309170936354 18.197375345067112 0 0 1 0 0 0 1 forward_v I I I I #
face $-1 $100 $101 $36 $-1 $102 reversed single #
loop $-1 $-1 $103 $47 #
plane-surface $-1 58.760340073421368 -3.5527136788005009e-015 168.34621893740029 0 -1 0 -0.70710678939079041 0 -0.70710677298230451 forward_v I I I I #
face $-1 $104 $105 $37 $-1 $106 forward single #
loop $-1 $107 $108 $48 #
cone-surface $-1 53.779913049244456 -3.6541694990310667 3.5595788039246981 -0.70710678939079041 0 -0.70710677298230451 1.0606601594734568 0 -1.0606601840861856 1 I I 0 1 1.5 forward I I I I #
face $-1 $109 $110 $38 $-1 $111 reversed single #
loop $-1 $-1 $112 $49 #
plane-surface $-1 -24.339328025155119 -3.6541694990310667 85.246552767160168 0.70710678939079041 0 0.70710677298230451 0.70710677298230451 0 -0.70710678939079041 forward_v I I I I #
face $-1 $113 $114 $39 $-1 $115 forward single #
loop $-1 $116 $117 $50 #
cone-surface $-1 53.779913049244456 3.6541694990310631 3.5595788039246981 -0.70710678939079041 0 -0.70710677298230451 1.0606601594734568 0 -1.0606601840861856 1 I I 0 1 1.5 forward I I I I #
face $-1 $118 $119 $40 $-1 $120 reversed single #
loop $-1 $-1 $121 $51 #
plane-surface $-1 -147.45431938961465 -13.32809383516409 79.074592060182596 0 1 0 -0.75470958851134928 0 0.65605901945558964 forward_v I I I I #
face $-1 $122 $123 $41 $-1 $124 forward single #
loop $-1 $125 $126 $52 #
cone-surface $-1 -52.974111350474878 -9.0233956792722108 2.7079544457870326 0.75470958851134928 0 -0.65605901945558964 1.3121180389111793 0 1.5094191770226986 1 I I 0 1 2 forward I I I I #
face $-1 $127 $128 $42 $-1 $129 reversed single #
loop $-1 $-1 $130 $53 #
plane-surface $-1 -147.45431938961465 4.8692815099030202 79.074592060182596 0 1 0 -0.75470958851134928 0 0.65605901945558964 forward_v I I I I #
face $-1 $131 $132 $43 $-1 $133 forward single #
loop $-1 $134 $135 $54 #
cone-surface $-1 -52.974111350474878 9.1739796657948993 2.7079544457870326 0.75470958851134928 0 -0.65605901945558964 1.3121180389111793 0 1.5094191770226986 1 I I 0 1 2 forward I I I I #
face $-1 $136 $137 $33 $-1 $138 reversed single #
loop $-1 $-1 $139 $55 #
plane-surface $-1 0 0 -8.5400039325469521 0 0 1 1 0 0 forward_v I I I I #
coedge $-1 $140 $141 $142 $143 forward $56 $-1 #
face $-1 $144 $145 $34 $-1 $146 forward single #
loop $-1 $-1 $147 $58 #
plane-surface $-1 -54.466280196787714 -21.193181723524003 0 -1 0 0 0 0 1 forward_v I I I I #
coedge $-1 $148 $149 $150 $151 forward $59 $-1 #
face $-1 $152 $153 $35 $-1 $154 reversed single #
loop $-1 $-1 $155 $61 #
plane-surface $-1 -54.466280196787714 21.193181723524003 0 -1 0 0 0 0 1 forward_v I I I I #
coedge $-1 $156 $157 $158 $159 reversed $62 $-1 #
face $-1 $160 $161 $36 $-1 $162 reversed single #
loop $-1 $-1 $163 $64 #
plane-surface $-1 -24.339328025155119 -3.6541694990310667 85.246552767160168 0.70710678939079041 0 0.70710677298230451 0.70710677298230451 0 -0.70710678939079041 forward_v I I I I #
coedge $-1 $164 $165 $166 $167 reversed $65 $-1 #
face $-1 $-1 $168 $37 $-1 $169 forward single #
loop $-1 $170 $171 $67 #
cone-surface $-1 51.465717419165976 -3.6541694990310667 1.2453832275473644 -0.70710678939079041 0 -0.70710677298230451 0.53033007973672841 0 -0.53033009204309278 1 I I -0.70710678118654757 0.70710678118654757 0.75 forward I I I I #
loop $-1 $-1 $172 $48 #
coedge $-1 $108 $108 $173 $174 reversed $68 $-1 #
face $-1 $175 $176 $38 $-1 $177 reversed single #
loop $-1 $-1 $178 $70 #
plane-surface $-1 58.760340073421368 7.3083389980621263 168.34621893740029 0 -1 0 -0.70710678939079041 0 -0.70710677298230451 forward_v I I I I #
coedge $-1 $179 $180 $181 $182 reversed $71 $-1 #
face $-1 $-1 $183 $39 $-1 $184 forward single #
loop $-1 $185 $186 $73 #
cone-surface $-1 51.465717419165976 3.6541694990310631 1.2453832275473644 -0.70710678939079041 0 -0.70710677298230451 0.53033007973672841 0 -0.53033009204309278 1 I I -0.70710678118654757 0.70710678118654757 0.75 forward I I I I #
loop $-1 $-1 $187 $50 #
coedge $-1 $117 $117 $188 $189 reversed $74 $-1 #
face $-1 $190 $191 $40 $-1 $192 reversed single #
loop $-1 $-1 $193 $76 #
plane-surface $-1 -58.760338145084972 -9.0233956792722108 1.9740924074959025 -0.75470958851134928 0 0.65605901945558964 0.65605901945558964 0 0.75470958851134928 forward_v I I I I #
coedge $-1 $194 $195 $196 $197 reversed $77 $-1 #
face $-1 $-1 $198 $41 $-1 $199 forward single #
loop $-1 $200 $201 $79 #
cone-surface $-1 -49.287004799735605 -9.0233956792722108 -0.49719829790295123 0.75470958851134928 0 -0.65605901945558964 0.65605901945558964 0 0.75470958851134928 1 I I -0.70710678118654746 0.70710678118654746 1 forward I I I I #
loop $-1 $-1 $202 $52 #
coedge $-1 $126 $126 $203 $204 reversed $80 $-1 #
face $-1 $205 $206 $42 $-1 $207 reversed single #
loop $-1 $-1 $208 $82 #
plane-surface $-1 -58.760338145084972 9.1739796657948993 1.9740924074959025 -0.75470958851134928 0 0.65605901945558964 0.65605901945558964 0 0.75470958851134928 forward_v I I I I #
coedge $-1 $209 $210 $211 $212 reversed $83 $-1 #
face $-1 $-1 $213 $43 $-1 $214 forward single #
loop $-1 $215 $216 $85 #
cone-surface $-1 -49.287004799735605 9.1739796657948993 -0.49719829790295123 0.75470958851134928 0 -0.65605901945558964 0.65605901945558964 0 0.75470958851134928 1 I I -0.70710678118654746 0.70710678118654746 1 forward I I I I #
loop $-1 $-1 $217 $54 #
coedge $-1 $135 $135 $218 $219 reversed $86 $-1 #
face $-1 $220 $221 $33 $-1 $222 reversed single #
loop $-1 $-1 $223 $88 #
plane-surface $-1 0 -24.188988101980893 0 0 1 0 0 0 1 forward_v I I I I #
coedge $-1 $224 $225 $226 $227 forward $89 $-1 #
coedge $-1 $228 $91 $229 $230 forward $56 $-1 #
coedge $-1 $91 $228 $231 $232 forward $56 $-1 #
coedge $-1 $233 $234 $91 $143 reversed $235 $-1 #
edge $-1 $236 -24.188988101980893 $237 24.188988101980893 $142 $238 forward 7 unknown #
face $-1 $239 $240 $34 $-1 $241 reversed single #
loop $-1 $-1 $242 $92 #
plane-surface $-1 0 0 8.5400039325469521 0 0 1 1 0 0 forward_v I I I I #
coedge $-1 $243 $244 $245 $246 reversed $93 $-1 #
coedge $-1 $247 $95 $248 $249 reversed $59 $-1 #
coedge $-1 $95 $247 $250 $251 reversed $59 $-1 #
coedge $-1 $244 $243 $95 $151 reversed $93 $-1 #
edge $-1 $252 -8.5400039325469521 $253 8.5400039325469521 $150 $254 forward 7 unknown #
face $-1 $255 $256 $35 $-1 $257 reversed single #
loop $-1 $-1 $258 $96 #
plane-surface $-1 0 0 -8.5400039325469521 0 0 1 1 0 0 forward_v I I I I #
coedge $-1 $259 $260 $261 $262 forward $97 $-1 #
coedge $-1 $261 $99 $263 $264 reversed $62 $-1 #
coedge $-1 $99 $261 $265 $266 reversed $62 $-1 #
coedge $-1 $267 $268 $99 $159 forward $256 $-1 #
edge $-1 $269 -8.5400039325469521 $270 8.5400039325469521 $158 $271 forward 7 unknown #
face $-1 $272 $273 $36 $-1 $274 reversed single #
loop $-1 $-1 $275 $100 #
plane-surface $-1 58.760340073421368 -7.3083389980621298 168.34621893740029 0 1 0 0.70710678939079041 0 0.70710677298230451 forward_v I I I I #
coedge $-1 $276 $277 $278 $279 reversed $101 $-1 #
coedge $-1 $165 $103 $280 $281 reversed $65 $-1 #
coedge $-1 $103 $164 $276 $282 reversed $65 $-1 #
coedge $-1 $278 $283 $103 $167 forward $284 $-1 #
edge $-1 $285 -29.38016810837431 $286 -22.987048992764048 $166 $287 forward 7 unknown #
loop $-1 $-1 $173 $104 #
plane-surface $-1 -24.339328025155119 -3.6541694990310667 85.246552767160168 0.70710678939079041 0 0.70710677298230451 0.70710677298230451 0 -0.70710678939079041 forward_v I I I I #
loop $-1 $-1 $288 $67 #
coedge $-1 $171 $171 $172 $289 reversed $105 $-1 #
coedge $-1 $172 $172 $171 $289 forward $107 $-1 #
coedge $-1 $173 $173 $108 $174 forward $168 $-1 #
edge $-1 $290 0 $290 6.2831853071796004 $173 $291 forward 7 unknown #
face $-1 $292 $293 $38 $-1 $294 forward single #
loop $-1 $-1 $295 $109 #
plane-surface $-1 58.760338145084994 0 0 -1 0 0 0 0 1 forward_v I I I I #
coedge $-1 $296 $297 $298 $299 reversed $110 $-1 #
coedge $-1 $300 $112 $301 $302 reversed $71 $-1 #
coedge $-1 $112 $300 $295 $303 reversed $71 $-1 #
coedge $-1 $304 $305 $112 $182 forward $293 $-1 #
edge $-1 $306 108.47944042610587 $307 117.52067629017 $181 $308 forward 7 unknown #
loop $-1 $-1 $188 $113 #
plane-surface $-1 -24.339328025155119 -3.6541694990310667 85.246552767160168 0.70710678939079041 0 0.70710677298230451 0.70710677298230451 0 -0.70710678939079041 forward_v I I I I #
loop $-1 $-1 $309 $73 #
coedge $-1 $186 $186 $187 $310 reversed $114 $-1 #
coedge $-1 $187 $187 $186 $310 forward $116 $-1 #
coedge $-1 $188 $188 $117 $189 forward $183 $-1 #
edge $-1 $311 0 $311 6.2831853071796004 $188 $312 forward 7 unknown #
face $-1 $313 $314 $40 $-1 $315 forward single #
loop $-1 $-1 $316 $118 #
plane-surface $-1 -147.45431938961465 -4.7186975233803317 79.074592060182596 0 -1 0 0.75470958851134928 0 -0.65605901945558964 forward_v I I I I #
coedge $-1 $317 $318 $319 $320 reversed $119 $-1 #
coedge $-1 $195 $121 $321 $322 reversed $77 $-1 #
coedge $-1 $121 $194 $317 $323 reversed $77 $-1 #
coedge $-1 $319 $324 $121 $197 forward $314 $-1 #
edge $-1 $325 14.966821549722333 $326 20.674481214486732 $196 $327 forward 7 unknown #
loop $-1 $-1 $203 $122 #
plane-surface $-1 -58.760338145084972 -9.0233956792722108 1.9740924074959025 -0.75470958851134928 0 0.65605901945558964 0.65605901945558964 0 0.75470958851134928 forward_v I I I I #
loop $-1 $-1 $328 $79 #
coedge $-1 $201 $201 $202 $329 reversed $123 $-1 #
coedge $-1 $202 $202 $201 $329 forward $125 $-1 #
coedge $-1 $203 $203 $126 $204 forward $198 $-1 #
edge $-1 $330 0 $330 6.2831853071796004 $203 $331 forward 7 unknown #
face $-1 $332 $333 $42 $-1 $334 forward single #
loop $-1 $-1 $335 $127 #
plane-surface $-1 -147.45431938961465 13.478677821686778 79.074592060182596 0 -1 0 0.75470958851134928 0 -0.65605901945558964 forward_v I I I I #
coedge $-1 $336 $337 $338 $339 reversed $128 $-1 #
coedge $-1 $210 $130 $340 $341 reversed $83 $-1 #
coedge $-1 $130 $209 $336 $342 reversed $83 $-1 #
coedge $-1 $338 $343 $130 $212 forward $333 $-1 #
edge $-1 $344 14.966821549722333 $345 20.674481214486732 $211 $346 forward 7 unknown #
loop $-1 $-1 $218 $131 #
plane-surface $-1 -58.760338145084972 9.1739796657948993 1.9740924074959025 -0.75470958851134928 0 0.65605901945558964 0.65605901945558964 0 0.75470958851134928 forward_v I I I I #
loop $-1 $-1 $347 $85 #
coedge $-1 $216 $216 $217 $348 reversed $132 $-1 #
coedge $-1 $217 $217 $216 $348 forward $134 $-1 #
coedge $-1 $218 $218 $135 $219 forward $213 $-1 #
edge $-1 $349 0 $349 6.2831853071796004 $218 $350 forward 7 unknown #
face $-1 $351 $352 $33 $-1 $353 reversed single #
loop $-1 $-1 $354 $136 #
plane-surface $-1 -58.760338145084994 0 0 1 0 0 0 0 -1 forward_v I I I I #
coedge $-1 $355 $231 $356 $357 forward $137 $-1 #
coedge $-1 $358 $139 $355 $359 forward $89 $-1 #
coedge $-1 $139 $358 $360 $361 forward $89 $-1 #
coedge $-1 $234 $233 $139 $227 reversed $235 $-1 #
edge $-1 $362 -24.188988101980893 $363 24.188988101980893 $226 $364 forward 7 unknown #
coedge $-1 $141 $140 $365 $366 forward $56 $-1 #
coedge $-1 $367 $368 $140 $230 reversed $352 $-1 #
edge $-1 $237 -58.760338145084994 $369 58.760338145084994 $229 $370 forward 7 unknown #
coedge $-1 $223 $371 $141 $232 reversed $137 $-1 #
edge $-1 $372 -58.760338145084994 $236 58.760338145084994 $231 $373 forward 7 unknown #
coedge $-1 $226 $142 $371 $374 forward $235 $-1 #
coedge $-1 $142 $226 $367 $375 reversed $235 $-1 #
loop $-1 $-1 $233 $351 #
vertex $-1 $143 $376 #
vertex $-1 $143 $377 #
straight-curve $-1 58.760338145084994 0 8.5400039325469521 0 1 0 I I #
face $-1 $378 $379 $34 $-1 $380 reversed single #
loop $-1 $-1 $381 $144 #
plane-surface $-1 -58.760338145084994 0 0 1 0 0 0 0 -1 forward_v I I I I #
coedge $-1 $250 $382 $244 $383 forward $145 $-1 #
coedge $-1 $150 $147 $384 $385 reversed $93 $-1 #
coedge $-1 $147 $150 $242 $383 reversed $93 $-1 #
coedge $-1 $386 $387 $147 $246 forward $388 $-1 #
edge $-1 $389 -8.5400039325469521 $390 8.5400039325469521 $245 $391 forward 7 unknown #
coedge $-1 $149 $148 $381 $392 reversed $59 $-1 #
coedge $-1 $384 $393 $148 $249 forward $379 $-1 #
edge $-1 $394 -30.453683559616817 $253 -26.159625611319537 $248 $395 forward 7 unknown #
coedge $-1 $396 $242 $149 $251 forward $145 $-1 #
edge $-1 $252 26.159625611319537 $397 30.453683559616817 $250 $398 forward 7 unknown #
vertex $-1 $251 $399 #
vertex $-1 $249 $400 #
straight-curve $-1 -54.466280196787714 -18.197375345067112 0 0 0 -1 I I #
face $-1 $401 $402 $35 $-1 $403 forward single #
loop $-1 $-1 $158 $152 #
plane-surface $-1 -58.760338145084994 0 0 1 0 0 0 0 -1 forward_v I I I I #
coedge $-1 $263 $404 $259 $405 forward $153 $-1 #
coedge $-1 $406 $155 $258 $405 reversed $97 $-1 #
coedge $-1 $155 $406 $407 $408 reversed $97 $-1 #
coedge $-1 $157 $156 $155 $262 reversed $62 $-1 #
edge $-1 $409 -8.5400039325469521 $410 8.5400039325469521 $155 $411 forward 7 unknown #
coedge $-1 $412 $258 $156 $264 forward $153 $-1 #
edge $-1 $410 26.159625611319537 $269 30.453683559616817 $263 $413 forward 7 unknown #
coedge $-1 $407 $414 $157 $266 forward $402 $-1 #
edge $-1 $270 -30.453683559616817 $409 -26.159625611319537 $265 $415 forward 7 unknown #
coedge $-1 $416 $158 $414 $417 reversed $256 $-1 #
coedge $-1 $158 $416 $412 $418 reversed $256 $-1 #
vertex $-1 $418 $419 #
vertex $-1 $159 $420 #
straight-curve $-1 -58.760338145084994 18.197375345067112 0 0 0 1 I I #
face $-1 $-1 $284 $36 $-1 $421 forward single #
loop $-1 $-1 $422 $160 #
plane-surface $-1 58.760338145084994 0 0 -1 0 0 0 0 1 forward_v I I I I #
coedge $-1 $423 $424 $425 $426 reversed $161 $-1 #
coedge $-1 $427 $163 $165 $282 forward $101 $-1 #
coedge $-1 $163 $427 $423 $428 forward $101 $-1 #
coedge $-1 $425 $166 $163 $279 forward $284 $-1 #
edge $-1 $286 -1.8270847495155298 $429 5.4812542485465965 $278 $430 forward 7 unknown #
coedge $-1 $431 $432 $164 $281 forward $273 $-1 #
edge $-1 $433 -82.026224800116452 $285 -75.633105536153195 $280 $434 forward 7 unknown #
edge $-1 $286 108.47944042610587 $433 117.52067629017 $165 $435 forward 7 unknown #
coedge $-1 $166 $425 $431 $436 forward $284 $-1 #
loop $-1 $-1 $425 $272 #
vertex $-1 $281 $437 #
vertex $-1 $167 $438 #
straight-curve $-1 29.380170036710684 -3.5527136788005009e-015 8.5400039325469521 -1 0 0 I I #
coedge $-1 $288 $288 $-1 $439 reversed $170 $-1 #
edge $-1 $440 0 $440 6.2831853071796004 $171 $441 forward 7 unknown #
vertex $-1 $174 $442 #
ellipse-curve $-1 55.563778587279863 -3.6541694990310667 5.3434443005653236 0.70710678939079041 0 0.70710677298230451 1.0606601594734568 0 -1.0606601840861856 1 I I #
face $-1 $-1 $443 $38 $-1 $444 forward single #
loop $-1 $-1 $305 $175 #
plane-surface $-1 58.760340073421368 -3.5527136788005009e-015 168.34621893740029 0 -1 0 -0.70710678939079041 0 -0.70710677298230451 forward_v I I I I #
coedge $-1 $298 $445 $180 $303 forward $176 $-1 #
coedge $-1 $297 $178 $300 $446 reversed $110 $-1 #
coedge $-1 $178 $296 $447 $448 reversed $110 $-1 #
coedge $-1 $449 $295 $178 $299 forward $176 $-1 #
edge $-1 $450 -82.026224800116452 $451 -75.633105536153195 $298 $452 forward 7 unknown #
coedge $-1 $180 $179 $296 $446 forward $71 $-1 #
coedge $-1 $453 $447 $179 $302 forward $443 $-1 #
edge $-1 $454 -9.1354237475776596 $306 -1.8270847495155298 $301 $455 forward 7 unknown #
edge $-1 $307 1.8270847495155298 $450 9.1354237475776596 $295 $456 forward 7 unknown #
coedge $-1 $305 $181 $445 $457 reversed $293 $-1 #
coedge $-1 $181 $304 $453 $458 reversed $293 $-1 #
vertex $-1 $302 $459 #
vertex $-1 $303 $460 #
straight-curve $-1 -24.339328025155119 -3.5527136788005009e-015 85.246552767160168 0.70710677298230451 0 -0.70710678939079041 I I #
coedge $-1 $309 $309 $-1 $461 reversed $185 $-1 #
edge $-1 $462 0 $462 6.2831853071796004 $186 $463 forward 7 unknown #
vertex $-1 $189 $464 #
ellipse-curve $-1 55.563778587279863 3.6541694990310631 5.3434443005653236 0.70710678939079041 0 0.70710677298230451 1.0606601594734568 0 -1.0606601840861856 1 I I #
face $-1 $-1 $465 $40 $-1 $466 reversed single #
loop $-1 $-1 $196 $190 #
plane-surface $-1 0 0 8.5400039325469521 0 0 1 1 0 0 forward_v I I I I #
coedge $-1 $467 $468 $469 $470 reversed $191 $-1 #
coedge $-1 $471 $193 $195 $323 forward $119 $-1 #
coedge $-1 $193 $471 $467 $472 forward $119 $-1 #
coedge $-1 $469 $196 $193 $320 forward $314 $-1 #
edge $-1 $326 -8.8163959955279836 $473 -0.20699968374422628 $319 $474 forward 7 unknown #
coedge $-1 $475 $476 $194 $322 forward $465 $-1 #
edge $-1 $477 -37.563203622595417 $325 -30.997292097544346 $321 $478 forward 7 unknown #
edge $-1 $326 -8.6999179883247439 $477 3.2418450280676821e-014 $195 $479 forward 7 unknown #
coedge $-1 $196 $469 $475 $480 forward $314 $-1 #
vertex $-1 $197 $481 #
vertex $-1 $197 $482 #
straight-curve $-1 -73.727159694807327 -13.32809383516409 8.5400039325469521 1 0 0 I I #
coedge $-1 $328 $328 $-1 $483 reversed $200 $-1 #
edge $-1 $484 0 $484 6.2831853071796004 $201 $485 forward 7 unknown #
vertex $-1 $204 $486 #
ellipse-curve $-1 -55.90650831270279 -9.0233956792722108 5.2570481700214176 -0.75470958851134928 0 0.65605901945558964 1.3121180389111793 0 1.5094191770226986 1 I I #
face $-1 $-1 $487 $42 $-1 $488 reversed single #
loop $-1 $-1 $211 $205 #
plane-surface $-1 0 0 8.5400039325469521 0 0 1 1 0 0 forward_v I I I I #
coedge $-1 $489 $490 $491 $492 reversed $206 $-1 #
coedge $-1 $493 $208 $210 $342 forward $128 $-1 #
coedge $-1 $208 $493 $489 $494 forward $128 $-1 #
coedge $-1 $491 $211 $208 $339 forward $333 $-1 #
edge $-1 $345 0.28229167700557056 $495 8.8916879887893288 $338 $496 forward 7 unknown #
coedge $-1 $497 $498 $209 $341 forward $487 $-1 #
edge $-1 $499 -37.563203622595417 $344 -30.997292097544346 $340 $500 forward 7 unknown #
edge $-1 $345 -8.6999179883247439 $499 3.2418450280676821e-014 $210 $501 forward 7 unknown #
coedge $-1 $211 $491 $497 $502 forward $333 $-1 #
vertex $-1 $212 $503 #
vertex $-1 $212 $504 #
straight-curve $-1 -73.727159694807327 4.8692815099030202 8.5400039325469521 1 0 0 I I #
coedge $-1 $347 $347 $-1 $505 reversed $215 $-1 #
edge $-1 $506 0 $506 6.2831853071796004 $216 $507 forward 7 unknown #
vertex $-1 $219 $508 #
ellipse-curve $-1 -55.90650831270279 9.1739796657948993 5.2570481700214176 -0.75470958851134928 0 0.65605901945558964 1.3121180389111793 0 1.5094191770226986 1 I I #
face $-1 $-1 $235 $33 $-1 $509 reversed single #
loop $-1 $-1 $367 $220 #
plane-surface $-1 0 24.188988101980893 0 0 -1 0 0 0 -1 forward_v I I I I #
coedge $-1 $510 $365 $368 $511 forward $221 $-1 #
coedge $-1 $371 $223 $224 $359 reversed $137 $-1 #
coedge $-1 $365 $510 $223 $357 reversed $221 $-1 #
edge $-1 $372 -8.5400039325469521 $512 8.5400039325469521 $356 $513 forward 7 unknown #
coedge $-1 $225 $224 $510 $514 forward $89 $-1 #
edge $-1 $363 -58.760338145084994 $512 58.760338145084994 $355 $515 forward 7 unknown #
coedge $-1 $368 $367 $225 $361 reversed $352 $-1 #
edge $-1 $516 -58.760338145084994 $362 58.760338145084994 $360 $517 forward 7 unknown #
vertex $-1 $227 $518 #
vertex $-1 $374 $519 #
straight-curve $-1 58.760338145084994 0 -8.5400039325469521 0 -1 0 I I #
coedge $-1 $354 $356 $228 $366 reversed $221 $-1 #
edge $-1 $369 -24.188988101980893 $372 24.188988101980893 $365 $520 forward 7 unknown #
coedge $-1 $360 $229 $234 $375 forward $352 $-1 #
coedge $-1 $229 $360 $354 $511 reversed $352 $-1 #
vertex $-1 $230 $521 #
straight-curve $-1 0 24.188988101980893 8.5400039325469521 -1 0 0 I I #
coedge $-1 $231 $355 $233 $374 reversed $137 $-1 #
vertex $-1 $366 $522 #
straight-curve $-1 0 -24.188988101980893 8.5400039325469521 1 0 0 I I #
edge $-1 $236 -8.5400039325469521 $363 8.5400039325469521 $233 $523 forward 7 unknown #
edge $-1 $237 -8.5400039325469521 $362 8.5400039325469521 $234 $524 forward 7 unknown #
point $-1 58.760338145084994 -24.188988101980893 8.5400039325469521 #
point $-1 58.760338145084994 24.188988101980893 8.5400039325469521 #
face $-1 $-1 $388 $34 $-1 $525 reversed single #
loop $-1 $-1 $384 $239 #
plane-surface $-1 0 0 -8.5400039325469521 0 0 1 1 0 0 forward_v I I I I #
coedge $-1 $526 $527 $247 $392 forward $240 $-1 #
coedge $-1 $242 $396 $386 $528 forward $145 $-1 #
edge $-1 $390 -13.592397240218892 $252 -7.6007844833051106 $242 $529 forward 7 unknown #
coedge $-1 $530 $248 $243 $385 forward $379 $-1 #
edge $-1 $253 7.6007844833051106 $389 13.592397240218892 $384 $531 forward 7 unknown #
coedge $-1 $532 $245 $382 $528 reversed $388 $-1 #
coedge $-1 $245 $532 $530 $533 reversed $388 $-1 #
loop $-1 $-1 $245 $378 #
vertex $-1 $533 $534 #
vertex $-1 $246 $535 #
straight-curve $-1 -54.466280196787714 -24.188988101980893 0 0 0 1 I I #
edge $-1 $397 -8.5400039325469521 $394 8.5400039325469521 $381 $536 forward 7 unknown #
coedge $-1 $248 $530 $526 $537 forward $379 $-1 #
vertex $-1 $249 $538 #
straight-curve $-1 -28.306654585468177 -18.197375345067112 -8.5400039325469521 1 0 0 I I #
coedge $-1 $382 $250 $527 $539 forward $145 $-1 #
vertex $-1 $539 $540 #
straight-curve $-1 -28.306654585468177 -18.197375345067112 8.5400039325469521 -1 0 0 I I #
point $-1 -54.466280196787714 -18.197375345067112 8.5400039325469521 #
point $-1 -54.466280196787714 -18.197375345067112 -8.5400039325469521 #
face $-1 $-1 $541 $35 $-1 $542 reversed single #
loop $-1 $-1 $407 $255 #
plane-surface $-1 0 0 8.5400039325469521 0 0 1 1 0 0 forward_v I I I I #
coedge $-1 $258 $412 $543 $544 forward $153 $-1 #
edge $-1 $545 -13.592397240218892 $410 -7.6007844833051106 $258 $546 forward 7 unknown #
coedge $-1 $260 $259 $547 $548 reversed $97 $-1 #
coedge $-1 $549 $265 $260 $408 forward $402 $-1 #
edge $-1 $409 7.6007844833051106 $550 13.592397240218892 $407 $551 forward 7 unknown #
vertex $-1 $266 $552 #
vertex $-1 $264 $553 #
straight-curve $-1 -54.466280196787714 18.197375345067112 0 0 0 -1 I I #
coedge $-1 $404 $263 $268 $418 forward $153 $-1 #
straight-curve $-1 -28.306654585468177 18.197375345067112 -8.5400039325469521 -1 0 0 I I #
coedge $-1 $265 $549 $267 $417 forward $402 $-1 #
straight-curve $-1 -28.306654585468177 18.197375345067112 8.5400039325469521 1 0 0 I I #
coedge $-1 $268 $267 $554 $555 forward $256 $-1 #
edge $-1 $556 -24.188988101980893 $270 -18.197375345067112 $267 $557 forward 7 unknown #
edge $-1 $269 18.197375345067112 $558 24.188988101980893 $268 $559 forward 7 unknown #
point $-1 -58.760338145084994 18.197375345067112 -8.5400039325469521 #
point $-1 -58.760338145084994 18.197375345067112 8.5400039325469521 #
plane-surface $-1 0 0 8.5400039325469521 0 0 1 1 0 0 forward_v I I I I #
coedge $-1 $432 $431 $424 $560 forward $273 $-1 #
coedge $-1 $424 $275 $277 $428 reversed $161 $-1 #
coedge $-1 $275 $423 $422 $560 reversed $161 $-1 #
coedge $-1 $283 $278 $275 $426 forward $284 $-1 #
edge $-1 $429 22.987048992764048 $561 29.38016810837431 $425 $562 forward 7 unknown #
coedge $-1 $277 $276 $432 $563 reversed $101 $-1 #
edge $-1 $564 -117.52067629017 $429 -108.47944042610587 $423 $565 forward 7 unknown #
vertex $-1 $279 $566 #
straight-curve $-1 52.367219029474732 -1.8270847495155333 8.5400039325469521 0 -1 0 I I #
coedge $-1 $422 $280 $283 $436 reversed $273 $-1 #
coedge $-1 $280 $422 $427 $563 forward $273 $-1 #
vertex $-1 $281 $567 #
straight-curve $-1 58.760338145084994 -3.5527136788005009e-015 84.173109468700147 0 0 1 I I #
straight-curve $-1 -24.339328025155119 -3.5527136788005009e-015 85.246552767160168 0.70710677298230451 0 -0.70710678939079041 I I #
edge $-1 $561 -7.3083389980621298 $285 -3.5527136788005009e-015 $431 $568 forward 7 unknown #
point $-1 58.760338145084994 -3.5527136788005009e-015 8.5400039325469521 #
point $-1 52.367219029474732 -3.5527136788005009e-015 8.5400039325469521 #
edge $-1 $569 1 $569 0 $288 $-1 forward 7 unknown #
vertex $-1 $289 $570 #
ellipse-curve $-1 51.996047511209071 -3.6541694990310667 1.7757133072840929 0.70710678939079041 0 0.70710677298230451 1.0606601594734568 0 -1.0606601840861856 1 I I #
point $-1 56.624438746753306 -3.6541694990310667 4.2827841164791183 #
loop $-1 $-1 $301 $292 #
plane-surface $-1 0 0 8.5400039325469521 0 0 1 1 0 0 forward_v I I I I #
coedge $-1 $295 $449 $304 $457 forward $176 $-1 #
edge $-1 $454 108.47944042610587 $450 117.52067629017 $296 $571 forward 7 unknown #
coedge $-1 $301 $572 $297 $448 forward $443 $-1 #
edge $-1 $451 -29.38016810837431 $454 -22.987048992764048 $447 $573 forward 7 unknown #
coedge $-1 $445 $298 $572 $574 reversed $176 $-1 #
vertex $-1 $299 $575 #
vertex $-1 $299 $576 #
straight-curve $-1 58.760338145084994 7.3083389980621263 84.173109468700147 0 0 1 I I #
coedge $-1 $572 $301 $305 $458 forward $443 $-1 #
vertex $-1 $448 $577 #
straight-curve $-1 52.367219029474732 -1.8270847495155333 8.5400039325469521 0 -1 0 I I #
straight-curve $-1 58.760338145084987 -1.8270847495155333 2.1468846685837022 0 1 0 I I #
edge $-1 $578 75.633105536153195 $307 82.026224800116452 $445 $579 forward 7 unknown #
edge $-1 $306 22.987048992764048 $578 29.38016810837431 $453 $580 forward 7 unknown #
point $-1 52.367219029474732 -3.5527136788005009e-015 8.5400039325469521 #
point $-1 58.760338145084994 -3.5527136788005009e-015 2.1468846685836951 #
edge $-1 $581 1 $581 0 $309 $-1 forward 7 unknown #
vertex $-1 $310 $582 #
ellipse-curve $-1 51.996047511209071 3.6541694990310631 1.7757133072840929 0.70710678939079041 0 0.70710677298230451 1.0606601594734568 0 -1.0606601840861856 1 I I #
point $-1 56.624438746753306 3.6541694990310631 4.2827841164791183 #
loop $-1 $-1 $321 $313 #
plane-surface $-1 -58.760338145084994 0 0 1 0 0 0 0 -1 forward_v I I I I #
coedge $-1 $468 $316 $318 $472 reversed $191 $-1 #
coedge $-1 $316 $467 $583 $584 reversed $191 $-1 #
coedge $-1 $324 $319 $316 $470 forward $314 $-1 #
edge $-1 $473 -20.674481214486732 $585 -14.966821549722333 $469 $586 forward 7 unknown #
coedge $-1 $318 $317 $476 $587 reversed $119 $-1 #
edge $-1 $588 -3.2418450280676821e-014 $473 8.6999179883247439 $467 $589 forward 7 unknown #
vertex $-1 $320 $590 #
straight-curve $-1 -53.052678480320594 -4.5116978396361054 8.5400039325469503 0 1 0 I I #
coedge $-1 $583 $321 $324 $480 reversed $465 $-1 #
coedge $-1 $321 $583 $471 $587 forward $465 $-1 #
vertex $-1 $322 $591 #
straight-curve $-1 -58.760338145084994 -13.32809383516409 39.537296030091298 0 0 1 I I #
straight-curve $-1 -58.760338145084972 -13.32809383516409 1.9740924074959025 -0.65605901945558964 0 -0.75470958851134928 I I #
edge $-1 $585 4.7186975233803317 $325 13.32809383516409 $475 $592 forward 7 unknown #
point $-1 -58.760338145084994 -13.32809383516409 8.5400039325469521 #
point $-1 -53.052678480320594 -13.32809383516409 8.5400039325469521 #
edge $-1 $593 1 $593 0 $328 $-1 forward 7 unknown #
vertex $-1 $329 $594 #
ellipse-curve $-1 -50.041714388246952 -9.0233956792722108 0.15886072155263842 -0.75470958851134928 0 0.65605901945558964 1.3121180389111793 0 1.5094191770226986 1 I I #
point $-1 -54.594390273791625 -9.0233956792722108 6.7664673470441254 #
loop $-1 $-1 $340 $332 #
plane-surface $-1 -58.760338145084994 0 0 1 0 0 0 0 -1 forward_v I I I I #
coedge $-1 $490 $335 $337 $494 reversed $206 $-1 #
coedge $-1 $335 $489 $595 $596 reversed $206 $-1 #
coedge $-1 $343 $338 $335 $492 forward $333 $-1 #
edge $-1 $495 -20.674481214486732 $597 -14.966821549722333 $491 $598 forward 7 unknown #
coedge $-1 $337 $336 $498 $599 reversed $128 $-1 #
edge $-1 $600 -3.2418450280676821e-014 $495 8.6999179883247439 $489 $601 forward 7 unknown #
vertex $-1 $339 $602 #
straight-curve $-1 -53.052678480320594 4.5869898328974497 8.5400039325469503 0 1 0 I I #
coedge $-1 $595 $340 $343 $502 reversed $487 $-1 #
coedge $-1 $340 $595 $493 $599 forward $487 $-1 #
vertex $-1 $341 $603 #
straight-curve $-1 -58.760338145084994 4.8692815099030202 39.537296030091298 0 0 1 I I #
straight-curve $-1 -58.760338145084972 4.8692815099030202 1.9740924074959025 -0.65605901945558964 0 -0.75470958851134928 I I #
edge $-1 $597 -13.478677821686778 $344 -4.8692815099030202 $497 $604 forward 7 unknown #
point $-1 -58.760338145084994 4.8692815099030202 8.5400039325469521 #
point $-1 -53.052678480320594 4.8692815099030202 8.5400039325469521 #
edge $-1 $605 1 $605 0 $347 $-1 forward 7 unknown #
vertex $-1 $348 $606 #
ellipse-curve $-1 -50.041714388246952 9.1739796657948993 0.15886072155263842 -0.75470958851134928 0 0.65605901945558964 1.3121180389111793 0 1.5094191770226986 1 I I #
point $-1 -54.594390273791625 9.1739796657948993 6.7664673470441254 #
plane-surface $-1 58.760338145084994 0 0 -1 0 0 0 0 1 forward_v I I I I #
coedge $-1 $356 $354 $358 $514 reversed $221 $-1 #
edge $-1 $369 -8.5400039325469521 $516 8.5400039325469521 $368 $607 forward 7 unknown #
vertex $-1 $514 $608 #
straight-curve $-1 -58.760338145084994 -24.188988101980893 0 0 0 -1 I I #
edge $-1 $512 -24.188988101980893 $516 24.188988101980893 $510 $609 forward 7 unknown #
straight-curve $-1 0 -24.188988101980893 -8.5400039325469521 -1 0 0 I I #
vertex $-1 $361 $610 #
straight-curve $-1 0 24.188988101980893 -8.5400039325469521 1 0 0 I I #
point $-1 58.760338145084994 24.188988101980893 -8.5400039325469521 #
point $-1 58.760338145084994 -24.188988101980893 -8.5400039325469521 #
straight-curve $-1 -58.760338145084994 0 8.5400039325469521 0 -1 0 I I #
point $-1 -58.760338145084994 24.188988101980893 8.5400039325469521 #
point $-1 -58.760338145084994 -24.188988101980893 8.5400039325469521 #
straight-curve $-1 58.760338145084994 -24.188988101980893 0 0 0 -1 I I #
straight-curve $-1 58.760338145084994 24.188988101980893 0 0 0 -1 I I #
plane-surface $-1 0 -24.188988101980893 0 0 1 0 0 0 1 forward_v I I I I #
coedge $-1 $611 $381 $393 $537 reversed $240 $-1 #
coedge $-1 $381 $611 $396 $539 reversed $240 $-1 #
edge $-1 $612 -58.760338145084994 $390 -54.466280196787714 $386 $613 forward 7 unknown #
straight-curve $-1 -54.466280196787714 -10.596590861762001 8.5400039325469521 0 1 0 I I #
coedge $-1 $393 $384 $387 $533 forward $379 $-1 #
straight-curve $-1 -54.466280196787714 -10.596590861762001 -8.5400039325469521 0 -1 0 I I #
coedge $-1 $387 $386 $611 $614 forward $388 $-1 #
edge $-1 $389 54.466280196787714 $615 58.760338145084994 $387 $616 forward 7 unknown #
point $-1 -54.466280196787714 -24.188988101980893 -8.5400039325469521 #
point $-1 -54.466280196787714 -24.188988101980893 8.5400039325469521 #
straight-curve $-1 -58.760338145084994 -18.197375345067112 0 0 0 -1 I I #
edge $-1 $615 -24.188988101980893 $394 -18.197375345067112 $526 $617 forward 7 unknown #
point $-1 -58.760338145084994 -18.197375345067112 -8.5400039325469521 #
edge $-1 $397 18.197375345067112 $612 24.188988101980893 $527 $618 forward 7 unknown #
point $-1 -58.760338145084994 -18.197375345067112 8.5400039325469521 #
loop $-1 $-1 $547 $401 #
plane-surface $-1 0 24.188988101980893 0 0 -1 0 0 0 -1 forward_v I I I I #
coedge $-1 $554 $547 $404 $544 reversed $541 $-1 #
edge $-1 $558 -58.760338145084994 $545 -54.466280196787714 $543 $619 forward 7 unknown #
vertex $-1 $405 $620 #
straight-curve $-1 -54.466280196787714 10.596590861762001 -8.5400039325469521 0 -1 0 I I #
coedge $-1 $543 $621 $406 $548 forward $541 $-1 #
edge $-1 $550 -8.5400039325469521 $545 8.5400039325469521 $547 $622 forward 7 unknown #
coedge $-1 $414 $407 $621 $623 forward $402 $-1 #
vertex $-1 $623 $624 #
straight-curve $-1 -54.466280196787714 10.596590861762001 8.5400039325469521 0 1 0 I I #
point $-1 -54.466280196787714 18.197375345067112 8.5400039325469521 #
point $-1 -54.466280196787714 18.197375345067112 -8.5400039325469521 #
coedge $-1 $621 $543 $416 $555 reversed $541 $-1 #
edge $-1 $556 -8.5400039325469521 $558 8.5400039325469521 $554 $625 forward 7 unknown #
vertex $-1 $623 $626 #
straight-curve $-1 -58.760338145084994 0 8.5400039325469521 0 -1 0 I I #
vertex $-1 $544 $627 #
straight-curve $-1 -58.760338145084994 0 -8.5400039325469521 0 1 0 I I #
edge $-1 $561 75.633105536153195 $564 82.026224800116452 $422 $628 forward 7 unknown #
vertex $-1 $436 $629 #
straight-curve $-1 29.380170036710684 -7.3083389980621298 8.5400039325469521 1 0 0 I I #
edge $-1 $564 -5.4812542485465965 $433 1.8270847495155298 $432 $630 forward 7 unknown #
vertex $-1 $563 $631 #
straight-curve $-1 -24.339328025155119 -7.3083389980621298 85.246552767160168 -0.70710677298230451 0 0.70710678939079041 I I #
point $-1 52.367219029474732 -7.3083389980621298 8.5400039325469521 #
point $-1 58.760338145084994 -3.5527136788005009e-015 2.1468846685836951 #
straight-curve $-1 58.760338145084994 0 8.5400039325469521 0 1 0 I I #
vertex $-1 $439 $632 #
point $-1 53.056707670682528 -3.6541694990310667 0.71505312319790726 #
straight-curve $-1 -24.339328025155119 7.3083389980621263 85.246552767160168 0.70710677298230451 0 -0.70710678939079041 I I #
coedge $-1 $447 $453 $449 $574 forward $443 $-1 #
straight-curve $-1 29.380170036710684 7.3083389980621263 8.5400039325469521 -1 0 0 I I #
edge $-1 $578 -3.5527136788005009e-015 $451 7.3083389980621263 $449 $633 forward 7 unknown #
point $-1 58.760338145084994 7.3083389980621263 2.1468846685836951 #
point $-1 58.760338145084994 7.3083389980621263 8.5400039325469521 #
point $-1 52.367219029474732 7.3083389980621263 8.5400039325469521 #
vertex $-1 $574 $634 #
straight-curve $-1 58.760338145084994 -3.5527136788005009e-015 84.173109468700147 0 0 -1 I I #
straight-curve $-1 29.380170036710684 -3.5527136788005009e-015 8.5400039325469521 1 0 0 I I #
vertex $-1 $461 $635 #
point $-1 53.056707670682528 3.6541694990310631 0.71505312319790726 #
coedge $-1 $476 $475 $468 $584 forward $465 $-1 #
edge $-1 $585 30.997292097544346 $588 37.563203622595417 $583 $636 forward 7 unknown #
vertex $-1 $480 $637 #
straight-curve $-1 -73.727159694807327 -4.7186975233803317 8.5400039325469521 -1 0 0 I I #
edge $-1 $588 0.20699968374422628 $477 8.8163959955279836 $476 $638 forward 7 unknown #
vertex $-1 $587 $639 #
straight-curve $-1 -58.760338145084972 -4.7186975233803317 1.9740924074959025 0.65605901945558964 0 0.75470958851134928 I I #
point $-1 -53.052678480320594 -4.7186975233803317 8.5400039325469521 #
point $-1 -58.760338145084994 -13.32809383516409 1.9740924074958781 #
straight-curve $-1 -58.760338145084994 0 8.5400039325469521 0 -1 0 I I #
vertex $-1 $483 $640 #
point $-1 -48.729596349335779 -9.0233956792722108 1.6682798985753369 #
coedge $-1 $498 $497 $490 $596 forward $487 $-1 #
edge $-1 $597 30.997292097544346 $600 37.563203622595417 $595 $641 forward 7 unknown #
vertex $-1 $502 $642 #
straight-curve $-1 -73.727159694807327 13.478677821686778 8.5400039325469521 -1 0 0 I I #
edge $-1 $600 -8.8916879887893288 $499 -0.28229167700557056 $498 $643 forward 7 unknown #
vertex $-1 $599 $644 #
straight-curve $-1 -58.760338145084972 13.478677821686778 1.9740924074959025 0.65605901945558964 0 0.75470958851134928 I I #
point $-1 -53.052678480320594 13.478677821686778 8.5400039325469521 #
point $-1 -58.760338145084994 4.8692815099030202 1.9740924074958781 #
straight-curve $-1 -58.760338145084994 0 8.5400039325469521 0 -1 0 I I #
vertex $-1 $505 $645 #
point $-1 -48.729596349335779 9.1739796657948993 1.6682798985753369 #
straight-curve $-1 -58.760338145084994 24.188988101980893 0 0 0 -1 I I #
point $-1 -58.760338145084994 -24.188988101980893 -8.5400039325469521 #
straight-curve $-1 -58.760338145084994 0 -8.5400039325469521 0 1 0 I I #
point $-1 -58.760338145084994 24.188988101980893 -8.5400039325469521 #
coedge $-1 $527 $526 $532 $614 reversed $240 $-1 #
vertex $-1 $539 $646 #
straight-curve $-1 0 -24.188988101980893 8.5400039325469521 1 0 0 I I #
edge $-1 $612 -8.5400039325469521 $615 8.5400039325469521 $611 $647 forward 7 unknown #
vertex $-1 $537 $648 #
straight-curve $-1 0 -24.188988101980893 -8.5400039325469521 -1 0 0 I I #
straight-curve $-1 -58.760338145084994 0 -8.5400039325469521 0 1 0 I I #
straight-curve $-1 -58.760338145084994 0 8.5400039325469521 0 -1 0 I I #
straight-curve $-1 0 24.188988101980893 -8.5400039325469521 1 0 0 I I #
point $-1 -54.466280196787714 24.188988101980893 -8.5400039325469521 #
coedge $-1 $547 $554 $549 $623 reversed $541 $-1 #
straight-curve $-1 -54.466280196787714 24.188988101980893 0 0 0 -1 I I #
edge $-1 $550 54.466280196787714 $556 58.760338145084994 $621 $649 forward 7 unknown #
point $-1 -54.466280196787714 24.188988101980893 8.5400039325469521 #
straight-curve $-1 -58.760338145084994 24.188988101980893 0 0 0 -1 I I #
point $-1 -58.760338145084994 24.188988101980893 8.5400039325469521 #
point $-1 -58.760338145084994 24.188988101980893 -8.5400039325469521 #
straight-curve $-1 58.760338145084994 -7.3083389980621298 84.173109468700147 0 0 -1 I I #
point $-1 58.760338145084994 -7.3083389980621298 8.5400039325469521 #
straight-curve $-1 58.760338145084987 -1.8270847495155333 2.1468846685837022 0 1 0 I I #
point $-1 58.760338145084994 -7.3083389980621298 2.1468846685836951 #
point $-1 50.935387327122882 -3.6541694990310667 0.715053147810636 #
straight-curve $-1 58.760338145084994 0 8.5400039325469521 0 1 0 I I #
point $-1 58.760338145084994 -3.5527136788005009e-015 8.5400039325469521 #
point $-1 50.935387327122882 3.6541694990310631 0.715053147810636 #
straight-curve $-1 -58.760338145084994 -4.7186975233803317 39.537296030091298 0 0 -1 I I #
point $-1 -58.760338145084994 -4.7186975233803317 8.5400039325469521 #
straight-curve $-1 -58.760338145084994 -4.5116978396361054 1.974092407495883 0 -1 0 I I #
point $-1 -58.760338145084994 -4.7186975233803317 1.9740924074958781 #
point $-1 -48.532295211224259 -9.0233956792722108 -1.1532573173585408 #
straight-curve $-1 -58.760338145084994 13.478677821686778 39.537296030091298 0 0 -1 I I #
point $-1 -58.760338145084994 13.478677821686778 8.5400039325469521 #
straight-curve $-1 -58.760338145084994 4.5869898328974497 1.974092407495883 0 -1 0 I I #
point $-1 -58.760338145084994 13.478677821686778 1.9740924074958781 #
point $-1 -48.532295211224259 9.1739796657948993 -1.1532573173585408 #
point $-1 -58.760338145084994 -24.188988101980893 8.5400039325469521 #
straight-curve $-1 -58.760338145084994 -24.188988101980893 0 0 0 -1 I I #
point $-1 -58.760338145084994 -24.188988101980893 -8.5400039325469521 #
straight-curve $-1 0 24.188988101980893 8.5400039325469521 -1 0 0 I I #
End-of-ACIS-data 