500 0 6 0           
7 Unknown 11 ACIS 5.0 NT 24 Thu Mar 25 18:10:28 1999 
-1 9.9999999999999995e-007 1e-010 
body $-1 $6 $-1 $7 #
body $-1 $8 $-1 $9 #
body $-1 $10 $-1 $11 #
body $-1 $12 $-1 $13 #
body $-1 $14 $-1 $15 #
body $-1 $16 $-1 $17 #
lump $-1 $-1 $18 $0 #
transform $-1 1 0 0 0 1 0 0 0 1 66.429029206213571 40.854451019733752 18.481817021873145 1 rotate no_reflect no_shear #
lump $-1 $-1 $19 $1 #
transform $-1 1 0 0 0 1 0 0 0 1 66.429029206213571 40.854451019733752 18.481817021873145 1 rotate no_reflect no_shear #
lump $-1 $-1 $20 $2 #
transform $-1 1 0 0 0 1 0 0 0 1 66.429029206213571 40.854451019733752 18.481817021873145 1 rotate no_reflect no_shear #
lump $-1 $-1 $21 $3 #
transform $-1 1 0 0 0 1 0 0 0 1 66.429029206213571 40.854451019733752 18.481817021873145 1 rotate no_reflect no_shear #
lump $-1 $-1 $22 $4 #
transform $-1 1 0 0 0 1 0 0 0 1 66.429029206213571 40.854451019733752 18.481817021873145 1 rotate no_reflect no_shear #
lump $-1 $-1 $23 $5 #
transform $-1 1 0 0 0 1 0 0 0 1 66.429029206213571 40.854451019733752 18.481817021873145 1 rotate no_reflect no_shear #
shell $-1 $-1 $-1 $24 $-1 $6 #
shell $-1 $-1 $-1 $25 $-1 $8 #
shell $-1 $-1 $-1 $26 $-1 $10 #
shell $-1 $-1 $-1 $27 $-1 $12 #
shell $-1 $-1 $-1 $28 $-1 $14 #
shell $-1 $-1 $-1 $29 $-1 $16 #
face $-1 $30 $31 $18 $-1 $32 reversed single #
face $-1 $33 $34 $19 $-1 $35 forward single #
face $-1 $36 $37 $20 $-1 $38 reversed single #
face $-1 $39 $40 $21 $-1 $41 forward single #
face $-1 $42 $43 $22 $-1 $44 reversed single #
face $-1 $45 $46 $23 $-1 $47 forward single #
face $-1 $48 $49 $18 $-1 $50 forward single #
loop $-1 $-1 $51 $24 #
plane-surface $-1 -66.429029206213571 0 0 1 0 0 0 0 -1 forward_v I I I I #
face $-1 $52 $53 $19 $-1 $54 reversed single #
loop $-1 $-1 $55 $25 #
plane-surface $-1 -66.429029206213571 0 0 1 0 0 0 0 -1 forward_v I I I I #
face $-1 $56 $57 $20 $-1 $58 reversed single #
loop $-1 $-1 $59 $26 #
plane-surface $-1 -43.715292383118367 -30.645513828364997 74.667017644472125 0.55919291073839883 0 0.82903756765294845 0.82903756765294845 0 -0.55919291073839883 forward_v I I I I #
face $-1 $60 $61 $21 $-1 $62 forward single #
loop $-1 $63 $64 $27 #
cone-surface $-1 48.725228122411252 -30.645513828364997 3.0814769933312522 -0.55919291073839883 0 -0.82903756765294845 3.3161502706117938 0 -2.2367716429535953 1 I I 0 1 4 forward I I I I #
face $-1 $65 $66 $22 $-1 $67 reversed single #
loop $-1 $-1 $68 $28 #
plane-surface $-1 30.577992015578985 20.43657663699625 184.81133923380406 0 1 0 0.55919291073839883 0 0.82903756765294845 forward_v I I I I #
face $-1 $69 $70 $23 $-1 $71 forward single #
loop $-1 $72 $73 $29 #
cone-surface $-1 48.725228122411252 30.645513828365004 3.0814769933312522 -0.55919291073839883 0 -0.82903756765294845 3.3161502706117938 0 -2.2367716429535953 1 I I 0 1 4 forward I I I I #
face $-1 $74 $75 $18 $-1 $76 reversed single #
loop $-1 $-1 $77 $30 #
plane-surface $-1 0 0 18.481817021873145 0 0 1 1 0 0 forward_v I I I I #
coedge $-1 $78 $79 $80 $81 reversed $31 $-1 #
face $-1 $82 $83 $19 $-1 $84 reversed single #
loop $-1 $-1 $85 $33 #
plane-surface $-1 0 0 -18.481817021873145 0 0 1 1 0 0 forward_v I I I I #
coedge $-1 $86 $87 $88 $89 forward $34 $-1 #
face $-1 $90 $91 $20 $-1 $92 reversed single #
loop $-1 $-1 $93 $36 #
plane-surface $-1 30.577992015578985 -20.436576636996243 184.81133923380406 0 -1 0 -0.55919291073839883 0 -0.82903756765294845 forward_v I I I I #
coedge $-1 $94 $95 $96 $97 reversed $37 $-1 #
face $-1 $-1 $98 $21 $-1 $99 forward single #
loop $-1 $100 $101 $39 #
cone-surface $-1 43.326210073805512 -30.645513828364997 -4.9228962824673452 -0.55919291073839883 0 -0.82903756765294845 1.6580751353058969 0 -1.1183858214767977 1 I I -0.70710678118654768 0.70710678118654735 2 forward I I I I #
loop $-1 $-1 $102 $27 #
coedge $-1 $64 $64 $103 $104 reversed $40 $-1 #
face $-1 $105 $106 $22 $-1 $107 reversed single #
loop $-1 $-1 $108 $42 #
plane-surface $-1 -43.715292383118367 30.645513828365004 74.667017644472125 0.55919291073839883 0 0.82903756765294845 0.82903756765294845 0 -0.55919291073839883 forward_v I I I I #
coedge $-1 $109 $110 $111 $112 reversed $43 $-1 #
face $-1 $-1 $113 $23 $-1 $114 forward single #
loop $-1 $115 $116 $45 #
cone-surface $-1 43.326210073805512 30.645513828365004 -4.9228962824673452 -0.55919291073839883 0 -0.82903756765294845 1.6580751353058969 0 -1.1183858214767977 1 I I -0.70710678118654768 0.70710678118654735 2 forward I I I I #
loop $-1 $-1 $117 $29 #
coedge $-1 $73 $73 $118 $119 reversed $46 $-1 #
face $-1 $120 $121 $18 $-1 $122 reversed single #
loop $-1 $-1 $123 $48 #
plane-surface $-1 0 0 -18.481817021873145 0 0 1 1 0 0 forward_v I I I I #
coedge $-1 $124 $125 $126 $127 forward $49 $-1 #
coedge $-1 $128 $51 $129 $130 reversed $31 $-1 #
coedge $-1 $51 $128 $131 $132 forward $31 $-1 #
coedge $-1 $133 $134 $51 $81 forward $75 $-1 #
edge $-1 $135 -40.854451019733752 $136 40.854451019733752 $51 $137 forward 7 unknown #
face $-1 $138 $139 $19 $-1 $140 reversed single #
loop $-1 $-1 $141 $52 #
plane-surface $-1 -77.688176727974039 -21.240476078262269 0 0 1 0 0 0 1 forward_v I I I I #
coedge $-1 $142 $143 $87 $144 forward $53 $-1 #
coedge $-1 $145 $55 $146 $147 reversed $34 $-1 #
coedge $-1 $55 $145 $85 $144 reversed $34 $-1 #
coedge $-1 $148 $149 $55 $89 reversed $150 $-1 #
edge $-1 $151 -18.481817021873145 $152 18.481817021873145 $88 $153 forward 7 unknown #
face $-1 $154 $155 $20 $-1 $156 reversed single #
loop $-1 $-1 $157 $56 #
plane-surface $-1 0 -40.854451019733752 0 0 1 0 0 0 1 forward_v I I I I #
coedge $-1 $158 $159 $160 $161 reversed $57 $-1 #
coedge $-1 $162 $59 $157 $163 reversed $37 $-1 #
coedge $-1 $59 $162 $158 $164 forward $37 $-1 #
coedge $-1 $160 $165 $59 $97 forward $155 $-1 #
edge $-1 $166 -25.531694105551253 $167 -5.1138197228137443 $96 $168 forward 7 unknown #
loop $-1 $-1 $103 $60 #
plane-surface $-1 -43.715292383118367 -30.645513828364997 74.667017644472125 0.55919291073839883 0 0.82903756765294845 0.82903756765294845 0 -0.55919291073839883 forward_v I I I I #
loop $-1 $-1 $169 $39 #
coedge $-1 $101 $101 $102 $170 reversed $61 $-1 #
coedge $-1 $102 $102 $101 $170 forward $63 $-1 #
coedge $-1 $103 $103 $64 $104 forward $98 $-1 #
edge $-1 $171 0 $171 6.2831853071796004 $103 $172 forward 7 unknown #
face $-1 $173 $174 $22 $-1 $175 reversed single #
loop $-1 $-1 $111 $65 #
plane-surface $-1 66.429029206213571 0 0 -1 0 0 0 0 1 forward_v I I I I #
coedge $-1 $176 $177 $178 $179 reversed $66 $-1 #
coedge $-1 $110 $68 $180 $181 reversed $43 $-1 #
coedge $-1 $68 $109 $176 $182 reversed $43 $-1 #
coedge $-1 $178 $183 $68 $112 forward $106 $-1 #
edge $-1 $184 73.92385259502889 $185 92.031936371127259 $111 $186 forward 7 unknown #
loop $-1 $-1 $118 $69 #
plane-surface $-1 -43.715292383118367 30.645513828365004 74.667017644472125 0.55919291073839883 0 0.82903756765294845 0.82903756765294845 0 -0.55919291073839883 forward_v I I I I #
loop $-1 $-1 $187 $45 #
coedge $-1 $116 $116 $117 $188 reversed $70 $-1 #
coedge $-1 $117 $117 $116 $188 forward $72 $-1 #
coedge $-1 $118 $118 $73 $119 forward $113 $-1 #
edge $-1 $189 0 $189 6.2831853071796004 $118 $190 forward 7 unknown #
face $-1 $191 $192 $18 $-1 $193 reversed single #
loop $-1 $-1 $129 $74 #
plane-surface $-1 0 -40.854451019733752 0 0 1 0 0 0 1 forward_v I I I I #
coedge $-1 $134 $133 $194 $195 forward $75 $-1 #
coedge $-1 $196 $77 $197 $198 forward $49 $-1 #
coedge $-1 $77 $196 $199 $200 forward $49 $-1 #
coedge $-1 $201 $202 $77 $127 reversed $203 $-1 #
edge $-1 $204 -40.854451019733752 $205 40.854451019733752 $126 $206 forward 7 unknown #
coedge $-1 $79 $78 $196 $207 reversed $31 $-1 #
coedge $-1 $208 $199 $78 $130 forward $121 $-1 #
edge $-1 $209 -18.481817021873145 $135 18.481817021873145 $78 $210 forward 7 unknown #
coedge $-1 $197 $211 $79 $132 reversed $192 $-1 #
edge $-1 $212 -18.481817021873145 $136 18.481817021873145 $131 $213 forward 7 unknown #
coedge $-1 $123 $80 $211 $214 forward $75 $-1 #
coedge $-1 $80 $123 $208 $215 forward $75 $-1 #
vertex $-1 $81 $216 #
vertex $-1 $214 $217 #
straight-curve $-1 -66.429029206213571 0 -18.481817021873145 0 1 0 I I #
face $-1 $218 $150 $19 $-1 $219 reversed single #
loop $-1 $-1 $220 $82 #
plane-surface $-1 -88.947324249734507 -19.255684491657775 0 1 0 0 0 0 -1 forward_v I I I I #
coedge $-1 $221 $222 $223 $224 forward $83 $-1 #
coedge $-1 $225 $85 $221 $226 forward $53 $-1 #
coedge $-1 $85 $225 $148 $227 forward $53 $-1 #
edge $-1 $151 17.27089290505328 $228 21.240476078262269 $85 $229 forward 7 unknown #
coedge $-1 $87 $86 $230 $231 forward $34 $-1 #
coedge $-1 $232 $233 $86 $147 forward $234 $-1 #
edge $-1 $235 -21.240476078262269 $152 -17.27089290505328 $146 $236 forward 7 unknown #
coedge $-1 $237 $88 $143 $227 reversed $150 $-1 #
coedge $-1 $88 $237 $232 $238 reversed $150 $-1 #
loop $-1 $-1 $88 $138 #
vertex $-1 $144 $239 #
vertex $-1 $238 $240 #
straight-curve $-1 -66.429029206213571 -17.27089290505328 0 0 0 1 I I #
face $-1 $-1 $241 $20 $-1 $242 forward single #
loop $-1 $-1 $96 $90 #
plane-surface $-1 66.429029206213571 0 0 -1 0 0 0 0 1 forward_v I I I I #
coedge $-1 $243 $244 $94 $163 forward $91 $-1 #
coedge $-1 $159 $93 $95 $164 reversed $57 $-1 #
coedge $-1 $93 $158 $245 $246 reversed $57 $-1 #
coedge $-1 $247 $96 $93 $161 forward $155 $-1 #
edge $-1 $167 -92.031936371127259 $248 -73.92385259502889 $160 $249 forward 7 unknown #
coedge $-1 $95 $94 $250 $251 reversed $37 $-1 #
edge $-1 $252 61.478080519860491 $166 93.860615112774298 $157 $253 forward 7 unknown #
edge $-1 $254 100.47552381951333 $167 132.85805841242714 $158 $255 forward 7 unknown #
coedge $-1 $96 $247 $243 $256 forward $155 $-1 #
vertex $-1 $97 $257 #
vertex $-1 $97 $258 #
straight-curve $-1 66.429029206213571 -15.322756914182499 0.37373324577477973 0 1 0 I I #
coedge $-1 $169 $169 $-1 $259 reversed $100 $-1 #
edge $-1 $260 0 $260 6.2831853071796004 $101 $261 forward 7 unknown #
vertex $-1 $104 $262 #
ellipse-curve $-1 53.005860349540207 -30.645513828364997 9.4277751338239675 0.55919291073839883 0 0.82903756765294845 3.3161502706117938 0 -2.2367716429535953 1 I I #
face $-1 $-1 $263 $22 $-1 $264 forward single #
loop $-1 $-1 $265 $105 #
plane-surface $-1 0 40.854451019733752 0 0 -1 0 0 0 -1 forward_v I I I I #
coedge $-1 $266 $108 $110 $182 forward $66 $-1 #
coedge $-1 $108 $266 $265 $267 reversed $66 $-1 #
coedge $-1 $268 $111 $108 $179 forward $106 $-1 #
edge $-1 $185 5.1138197228137479 $269 25.531694105551257 $178 $270 forward 7 unknown #
coedge $-1 $271 $272 $109 $181 forward $263 $-1 #
edge $-1 $273 24.29369548507735 $184 51.140033198424078 $180 $274 forward 7 unknown #
edge $-1 $185 -132.85805841242714 $273 -100.47552381951333 $110 $275 forward 7 unknown #
coedge $-1 $111 $268 $271 $276 reversed $106 $-1 #
vertex $-1 $276 $277 #
vertex $-1 $112 $278 #
straight-curve $-1 66.429029206213571 20.43657663699625 92.405669616902031 0 0 -1 I I #
coedge $-1 $187 $187 $-1 $279 reversed $115 $-1 #
edge $-1 $280 0 $280 6.2831853071796004 $116 $281 forward 7 unknown #
vertex $-1 $119 $282 #
ellipse-curve $-1 53.005860349540207 30.645513828365004 9.4277751338239675 0.55919291073839883 0 0.82903756765294845 3.3161502706117938 0 -2.2367716429535953 1 I I #
face $-1 $-1 $203 $18 $-1 $283 reversed single #
loop $-1 $-1 $284 $120 #
plane-surface $-1 0 40.854451019733752 0 0 -1 0 0 0 -1 forward_v I I I I #
coedge $-1 $202 $201 $123 $195 reversed $203 $-1 #
edge $-1 $285 -40.854451019733752 $286 40.854451019733752 $194 $287 forward 7 unknown #
coedge $-1 $125 $124 $128 $207 forward $49 $-1 #
coedge $-1 $284 $131 $124 $198 reversed $192 $-1 #
edge $-1 $205 -66.429029206213571 $212 66.429029206213571 $197 $288 forward 7 unknown #
coedge $-1 $129 $289 $125 $200 reversed $121 $-1 #
edge $-1 $209 -66.429029206213571 $204 66.429029206213571 $199 $290 forward 7 unknown #
coedge $-1 $194 $126 $289 $291 forward $203 $-1 #
coedge $-1 $126 $194 $284 $292 reversed $203 $-1 #
loop $-1 $-1 $201 $191 #
vertex $-1 $127 $293 #
vertex $-1 $127 $294 #
straight-curve $-1 66.429029206213571 0 18.481817021873145 0 1 0 I I #
edge $-1 $212 -40.854451019733752 $209 40.854451019733752 $128 $295 forward 7 unknown #
coedge $-1 $289 $129 $134 $215 reversed $121 $-1 #
vertex $-1 $207 $296 #
straight-curve $-1 -66.429029206213571 -40.854451019733752 0 0 0 -1 I I #
coedge $-1 $131 $284 $133 $214 reversed $192 $-1 #
vertex $-1 $198 $297 #
straight-curve $-1 -66.429029206213571 40.854451019733752 0 0 0 -1 I I #
edge $-1 $136 -66.429029206213571 $285 66.429029206213571 $211 $298 forward 7 unknown #
edge $-1 $286 -66.429029206213571 $135 66.429029206213571 $208 $299 forward 7 unknown #
point $-1 -66.429029206213571 -40.854451019733752 -18.481817021873145 #
point $-1 -66.429029206213571 40.854451019733752 -18.481817021873145 #
face $-1 $-1 $234 $19 $-1 $300 forward single #
plane-surface $-1 -77.688176727974039 -17.27089290505328 0 0 -1 0 0 0 -1 forward_v I I I I #
coedge $-1 $301 $302 $237 $303 forward $139 $-1 #
coedge $-1 $230 $141 $142 $226 reversed $83 $-1 #
coedge $-1 $141 $230 $233 $304 reversed $83 $-1 #
coedge $-1 $302 $301 $141 $224 reversed $139 $-1 #
edge $-1 $305 -18.481817021873145 $306 18.481817021873145 $223 $307 forward 7 unknown #
coedge $-1 $143 $142 $301 $308 forward $53 $-1 #
edge $-1 $228 -11.259147521760468 $306 11.259147521760468 $221 $309 forward 7 unknown #
edge $-1 $310 -11.259147521760468 $151 11.259147521760468 $148 $311 forward 7 unknown #
vertex $-1 $226 $312 #
straight-curve $-1 -66.429029206213571 0 -18.481817021873145 0 -1 0 I I #
coedge $-1 $222 $221 $145 $231 reversed $83 $-1 #
edge $-1 $235 -18.481817021873145 $228 18.481817021873145 $230 $313 forward 7 unknown #
coedge $-1 $314 $146 $149 $238 forward $234 $-1 #
coedge $-1 $146 $314 $222 $304 forward $234 $-1 #
loop $-1 $-1 $146 $218 #
vertex $-1 $147 $315 #
straight-curve $-1 -66.429029206213571 0 18.481817021873145 0 1 0 I I #
coedge $-1 $149 $148 $220 $303 reversed $150 $-1 #
edge $-1 $152 -11.259147521760468 $316 11.259147521760468 $149 $317 forward 7 unknown #
point $-1 -66.429029206213571 -17.27089290505328 -18.481817021873145 #
point $-1 -66.429029206213571 -17.27089290505328 18.481817021873145 #
loop $-1 $-1 $250 $154 #
plane-surface $-1 0 0 18.481817021873145 0 0 1 1 0 0 forward_v I I I I #
coedge $-1 $244 $157 $165 $256 reversed $91 $-1 #
coedge $-1 $157 $243 $318 $319 reversed $91 $-1 #
coedge $-1 $250 $320 $159 $246 forward $241 $-1 #
edge $-1 $248 -51.140033198424078 $254 -24.29369548507735 $245 $321 forward 7 unknown #
coedge $-1 $165 $160 $320 $322 reversed $155 $-1 #
vertex $-1 $161 $323 #
straight-curve $-1 66.429029206213571 -20.436576636996243 92.405669616902031 0 0 1 I I #
coedge $-1 $318 $245 $162 $251 forward $241 $-1 #
edge $-1 $254 5.1138197228137443 $252 25.531694105551253 $250 $324 forward 7 unknown #
vertex $-1 $319 $325 #
straight-curve $-1 -11.384946845290411 -40.854451019733752 52.859923814383585 0.82903756765294845 0 -0.55919291073839883 I I #
vertex $-1 $251 $326 #
straight-curve $-1 -43.715292383118367 -20.436576636996243 74.667017644472125 0.82903756765294845 0 -0.55919291073839883 I I #
edge $-1 $327 -18.481817021873145 $166 -0.37373324577477979 $165 $328 forward 7 unknown #
point $-1 66.429029206213571 -40.854451019733752 0.37373324577477979 #
point $-1 66.429029206213571 -20.436576636996243 0.37373324577477263 #
edge $-1 $329 1 $329 0 $169 $-1 forward 7 unknown #
vertex $-1 $170 $330 #
ellipse-curve $-1 44.444595895282312 -30.645513828364997 -3.2648211471614488 0.55919291073839883 0 0.82903756765294845 3.3161502706117938 0 -2.2367716429535953 1 I I #
point $-1 56.322010620151985 -30.645513828364997 7.1910034908703597 #
loop $-1 $-1 $180 $173 #
plane-surface $-1 0 0 18.481817021873145 0 0 1 1 0 0 forward_v I I I I #
coedge $-1 $331 $332 $177 $267 forward $174 $-1 #
coedge $-1 $177 $176 $272 $333 reversed $66 $-1 #
edge $-1 $269 -93.860615112774298 $334 -61.478080519860491 $265 $335 forward 7 unknown #
coedge $-1 $183 $178 $332 $336 reversed $106 $-1 #
vertex $-1 $267 $337 #
straight-curve $-1 66.429029206213571 15.322756914182502 0.37373324577477973 0 1 0 I I #
coedge $-1 $338 $180 $183 $276 forward $263 $-1 #
coedge $-1 $180 $338 $266 $333 forward $263 $-1 #
vertex $-1 $181 $339 #
straight-curve $-1 15.288996007789493 20.43657663699625 18.481817021873141 1 0 0 I I #
straight-curve $-1 -43.715292383118367 20.43657663699625 74.667017644472125 -0.82903756765294845 0 0.55919291073839883 I I #
edge $-1 $184 20.43657663699625 $340 40.854451019733752 $183 $341 forward 7 unknown #
point $-1 66.429029206213571 20.43657663699625 18.481817021873145 #
point $-1 66.429029206213571 20.43657663699625 0.37373324577477263 #
edge $-1 $342 1 $342 0 $187 $-1 forward 7 unknown #
vertex $-1 $188 $343 #
ellipse-curve $-1 44.444595895282312 30.645513828365004 -3.2648211471614488 0.55919291073839883 0 0.82903756765294845 3.3161502706117938 0 -2.2367716429535953 1 I I #
point $-1 56.322010620151985 30.645513828365004 7.1910034908703597 #
plane-surface $-1 66.429029206213571 0 0 -1 0 0 0 0 1 forward_v I I I I #
coedge $-1 $211 $197 $202 $292 forward $192 $-1 #
vertex $-1 $195 $344 #
vertex $-1 $291 $345 #
straight-curve $-1 66.429029206213571 0 -18.481817021873145 0 -1 0 I I #
straight-curve $-1 0 40.854451019733752 18.481817021873145 -1 0 0 I I #
coedge $-1 $199 $208 $201 $291 reversed $121 $-1 #
straight-curve $-1 0 -40.854451019733752 18.481817021873145 1 0 0 I I #
edge $-1 $204 -18.481817021873145 $286 18.481817021873145 $201 $346 forward 7 unknown #
edge $-1 $205 -18.481817021873145 $285 18.481817021873145 $202 $347 forward 7 unknown #
point $-1 66.429029206213571 -40.854451019733752 18.481817021873145 #
point $-1 66.429029206213571 40.854451019733752 18.481817021873145 #
straight-curve $-1 -66.429029206213571 0 18.481817021873145 0 -1 0 I I #
point $-1 -66.429029206213571 -40.854451019733752 18.481817021873145 #
point $-1 -66.429029206213571 40.854451019733752 18.481817021873145 #
straight-curve $-1 0 40.854451019733752 -18.481817021873145 1 0 0 I I #
straight-curve $-1 0 -40.854451019733752 -18.481817021873145 -1 0 0 I I #
plane-surface $-1 0 0 18.481817021873145 0 0 1 1 0 0 forward_v I I I I #
coedge $-1 $223 $220 $225 $308 reversed $139 $-1 #
coedge $-1 $220 $223 $314 $348 reversed $139 $-1 #
edge $-1 $316 -18.481817021873145 $310 18.481817021873145 $237 $349 forward 7 unknown #
edge $-1 $305 -11.259147521760468 $235 11.259147521760468 $222 $350 forward 7 unknown #
vertex $-1 $348 $351 #
vertex $-1 $308 $352 #
straight-curve $-1 -88.947324249734507 -21.240476078262269 0 0 0 -1 I I #
edge $-1 $306 -1.9847915866044943 $310 1.9847915866044943 $301 $353 forward 7 unknown #
straight-curve $-1 -77.688176727974039 -21.240476078262269 -18.481817021873145 -1 0 0 I I #
vertex $-1 $227 $354 #
straight-curve $-1 -77.688176727974039 -17.27089290505328 -18.481817021873145 1 0 0 I I #
point $-1 -66.429029206213571 -21.240476078262269 -18.481817021873145 #
straight-curve $-1 -66.429029206213571 -21.240476078262269 0 0 0 -1 I I #
coedge $-1 $233 $232 $302 $348 forward $234 $-1 #
point $-1 -66.429029206213571 -21.240476078262269 18.481817021873145 #
vertex $-1 $238 $355 #
straight-curve $-1 -77.688176727974039 -17.27089290505328 18.481817021873145 -1 0 0 I I #
coedge $-1 $320 $250 $244 $319 forward $241 $-1 #
edge $-1 $252 39.582691492866843 $327 66.429029206213571 $244 $356 forward 7 unknown #
coedge $-1 $245 $318 $247 $322 forward $241 $-1 #
straight-curve $-1 15.288996007789493 -20.436576636996243 18.481817021873141 -1 0 0 I I #
edge $-1 $327 -40.854451019733752 $248 -20.436576636996243 $247 $357 forward 7 unknown #
point $-1 66.429029206213571 -20.436576636996243 18.481817021873145 #
straight-curve $-1 39.58269149286685 -15.322756914182499 18.481817021873141 0 -1 0 I I #
point $-1 39.582691492866843 -40.854451019733752 18.481817021873141 #
point $-1 39.582691492866843 -20.436576636996243 18.481817021873141 #
vertex $-1 $322 $358 #
straight-curve $-1 66.429029206213571 -40.854451019733752 0 0 0 -1 I I #
vertex $-1 $259 $359 #
point $-1 47.760746165894105 -30.645513828364997 -5.5015927901150441 #
coedge $-1 $332 $265 $338 $360 reversed $174 $-1 #
coedge $-1 $265 $331 $268 $336 forward $174 $-1 #
edge $-1 $334 -25.531694105551257 $273 -5.1138197228137479 $272 $361 forward 7 unknown #
vertex $-1 $267 $362 #
straight-curve $-1 -11.384946845290411 40.854451019733752 52.859923814383585 -0.82903756765294845 0 0.55919291073839883 I I #
edge $-1 $340 -18.481817021873145 $269 -0.37373324577477263 $268 $363 forward 7 unknown #
point $-1 66.429029206213571 40.854451019733759 0.37373324577477263 #
coedge $-1 $272 $271 $331 $360 forward $263 $-1 #
point $-1 39.582691492866843 20.43657663699625 18.481817021873141 #
vertex $-1 $276 $364 #
straight-curve $-1 66.429029206213571 0 18.481817021873145 0 1 0 I I #
vertex $-1 $279 $365 #
point $-1 47.760746165894105 30.645513828365004 -5.5015927901150441 #
point $-1 66.429029206213571 40.854451019733752 -18.481817021873145 #
point $-1 66.429029206213571 -40.854451019733752 -18.481817021873145 #
straight-curve $-1 66.429029206213571 -40.854451019733752 0 0 0 -1 I I #
straight-curve $-1 66.429029206213571 40.854451019733752 0 0 0 -1 I I #
edge $-1 $316 -1.9847915866044943 $305 1.9847915866044943 $302 $366 forward 7 unknown #
straight-curve $-1 -88.947324249734507 -17.27089290505328 0 0 0 -1 I I #
straight-curve $-1 -77.688176727974039 -21.240476078262269 18.481817021873145 1 0 0 I I #
point $-1 -88.947324249734507 -21.240476078262269 18.481817021873145 #
point $-1 -88.947324249734507 -21.240476078262269 -18.481817021873145 #
straight-curve $-1 -88.947324249734507 -19.255684491657775 -18.481817021873145 0 1 0 I I #
point $-1 -88.947324249734507 -17.27089290505328 -18.481817021873145 #
point $-1 -88.947324249734507 -17.27089290505328 18.481817021873145 #
straight-curve $-1 0 -40.854451019733752 18.481817021873145 1 0 0 I I #
straight-curve $-1 66.429029206213571 0 18.481817021873145 0 1 0 I I #
point $-1 66.429029206213571 -40.854451019733752 18.481817021873145 #
point $-1 42.207824252328713 -30.645513828364997 -6.5809714177732417 #
edge $-1 $340 -66.429029206213571 $334 -39.582691492866843 $331 $367 forward 7 unknown #
straight-curve $-1 39.58269149286685 15.322756914182502 18.481817021873141 0 -1 0 I I #
point $-1 39.582691492866843 40.854451019733759 18.481817021873141 #
straight-curve $-1 66.429029206213571 40.854451019733752 0 0 0 -1 I I #
point $-1 66.429029206213571 40.854451019733752 18.481817021873145 #
point $-1 42.207824252328713 30.645513828365004 -6.5809714177732417 #
straight-curve $-1 -88.947324249734507 -19.255684491657775 18.481817021873145 0 -1 0 I I #
straight-curve $-1 0 40.854451019733752 18.481817021873145 -1 0 0 I I #
End-of-ACIS-data 