600 0 6 0           
109 GICL ACIS Healer - Source: /gicl/data5/repository/Drexel/CICIRELLO-THESISDATA/Part10017.smdg.deltas.sat - 6 0 18 ACIS 6.0.3 Solaris 24 Fri Apr 12 10:31:42 2002 
1 9.999999999999999547e-07 1.000000000000000036e-10 
body $-1 $6 $-1 $-1 #
body $-1 $7 $-1 $-1 #
body $-1 $8 $-1 $-1 #
body $-1 $9 $-1 $-1 #
body $-1 $10 $-1 $-1 #
body $-1 $11 $-1 $-1 #
lump $-1 $-1 $12 $0 #
lump $-1 $-1 $13 $1 #
lump $-1 $-1 $14 $2 #
lump $-1 $-1 $15 $3 #
lump $-1 $-1 $16 $4 #
lump $-1 $-1 $17 $5 #
shell $-1 $-1 $-1 $18 $-1 $6 #
shell $-1 $-1 $-1 $19 $-1 $7 #
shell $-1 $-1 $-1 $20 $-1 $8 #
shell $-1 $-1 $-1 $21 $-1 $9 #
shell $-1 $-1 $-1 $22 $-1 $10 #
shell $-1 $-1 $-1 $23 $-1 $11 #
face $-1 $24 $25 $12 $-1 $26 forward single #
face $-1 $27 $28 $13 $-1 $29 reversed single #
face $-1 $30 $31 $14 $-1 $32 reversed single #
face $-1 $33 $34 $15 $-1 $35 forward single #
face $-1 $36 $37 $16 $-1 $38 reversed single #
face $-1 $39 $40 $17 $-1 $41 forward single #
face $-1 $42 $43 $12 $-1 $44 reversed single #
loop $-1 $-1 $45 $18 #
plane-surface $-1 71.42551957762383097 47.94252991089384608 34.82260237065564468 0 0 1 1 0 0 forward_v I I I I #
face $-1 $46 $47 $13 $-1 $48 reversed single #
loop $-1 $-1 $49 $19 #
plane-surface $-1 7.588669419267944249 20.91941949298135484 17.41130118532782234 0 1 0 0 0 1 forward_v I I I I #
face $-1 $50 $51 $14 $-1 $52 reversed single #
loop $-1 $-1 $53 $20 #
plane-surface $-1 118.2307676197387707 24.89962834920460111 222.9521835710569349 0 -1 0 -0.6156614830463592591 0 -0.788010747574649173 forward_v I I I I #
face $-1 $54 $55 $15 $-1 $56 forward single #
loop $-1 $57 $58 $21 #
cone-surface $-1 133.2908668295404766 15.16027319457143818 26.53897087677264466 -0.6156614830463592591 0 -0.788010747574649173 1.576021495149298346 0 -1.231322966092718518 1 I I 0 1 2 forward I I I I #
face $-1 $59 $60 $16 $-1 $61 reversed single #
loop $-1 $-1 $62 $22 #
plane-surface $-1 118.2307676197387707 72.84215826009844363 222.9521835710569349 0 -1 0 -0.6156614830463592591 0 -0.788010747574649173 forward_v I I I I #
face $-1 $63 $64 $17 $-1 $65 forward single #
loop $-1 $66 $67 $23 #
cone-surface $-1 133.2908668295404766 63.10280310546528426 26.53897087677264466 -0.6156614830463592591 0 -0.788010747574649173 1.576021495149298346 0 -1.231322966092718518 1 I I 0 1 2 forward I I I I #
face $-1 $68 $69 $12 $-1 $70 reversed single #
loop $-1 $-1 $71 $24 #
plane-surface $-1 71.42551957762383097 47.94252991089384608 0 0 0 1 1 0 0 forward_v I I I I #
coedge $-1 $72 $73 $74 $75 forward $25 $-1 #
face $-1 $76 $77 $13 $-1 $78 reversed single #
loop $-1 $-1 $79 $27 #
plane-surface $-1 7.588669419267944249 25.05589873146222857 17.41130118532782234 0 -1 0 0 0 -1 forward_v I I I I #
coedge $-1 $80 $81 $82 $83 reversed $28 $-1 #
face $-1 $84 $85 $14 $-1 $86 reversed single #
loop $-1 $-1 $87 $30 #
plane-surface $-1 30.28288499870545536 15.16027319457143818 110.3840294145147425 0.6156614830463592591 0 0.788010747574649173 0.788010747574649173 0 -0.6156614830463592591 forward_v I I I I #
coedge $-1 $88 $89 $90 $91 reversed $31 $-1 #
face $-1 $-1 $92 $15 $-1 $93 forward single #
loop $-1 $94 $95 $33 #
cone-surface $-1 131.0420029449670096 15.16027319457143818 23.66055642390207936 -0.6156614830463592591 0 -0.788010747574649173 0.788010747574649173 0 -0.6156614830463592591 1 I I -0.7071067811865472397 0.7071067811865479058 1 forward I I I I #
loop $-1 $-1 $96 $21 #
coedge $-1 $58 $58 $97 $98 reversed $34 $-1 #
face $-1 $99 $100 $16 $-1 $101 reversed single #
loop $-1 $-1 $102 $36 #
plane-surface $-1 30.28288499870545536 63.10280310546528426 110.3840294145147425 0.6156614830463592591 0 0.788010747574649173 0.788010747574649173 0 -0.6156614830463592591 forward_v I I I I #
coedge $-1 $103 $104 $105 $106 reversed $37 $-1 #
face $-1 $-1 $107 $17 $-1 $108 forward single #
loop $-1 $109 $110 $39 #
cone-surface $-1 131.0420029449670096 63.10280310546528426 23.66055642390207936 -0.6156614830463592591 0 -0.788010747574649173 0.788010747574649173 0 -0.6156614830463592591 1 I I -0.7071067811865472397 0.7071067811865479058 1 forward I I I I #
loop $-1 $-1 $111 $23 #
coedge $-1 $67 $67 $112 $113 reversed $40 $-1 #
face $-1 $114 $115 $12 $-1 $116 reversed single #
loop $-1 $-1 $117 $42 #
plane-surface $-1 71.42551957762383097 0 17.41130118532782234 0 1 0 0 0 1 forward_v I I I I #
coedge $-1 $118 $119 $120 $121 forward $43 $-1 #
coedge $-1 $122 $45 $123 $124 forward $25 $-1 #
coedge $-1 $45 $122 $125 $126 forward $25 $-1 #
coedge $-1 $127 $128 $45 $75 reversed $129 $-1 #
edge $-1 $130 -47.94252991089384608 $131 47.94252991089384608 $74 $132 forward 7 unknown #
face $-1 $133 $134 $13 $-1 $135 reversed single #
loop $-1 $-1 $136 $46 #
plane-surface $-1 15.1773388385358885 22.9876591122217917 17.41130118532782234 -1 0 0 0 0 1 forward_v I I I I #
coedge $-1 $137 $138 $139 $140 forward $47 $-1 #
coedge $-1 $141 $49 $142 $143 reversed $28 $-1 #
coedge $-1 $49 $141 $144 $145 reversed $28 $-1 #
coedge $-1 $146 $147 $49 $83 forward $148 $-1 #
edge $-1 $149 -17.41130118532782234 $150 17.41130118532782234 $82 $151 forward 7 unknown #
face $-1 $152 $153 $14 $-1 $154 reversed single #
loop $-1 $-1 $155 $50 #
plane-surface $-1 118.2307676197387707 5.42091803993827881 222.9521835710569349 0 1 0 0.6156614830463592591 0 0.788010747574649173 forward_v I I I I #
coedge $-1 $156 $157 $158 $159 reversed $51 $-1 #
coedge $-1 $89 $53 $160 $161 reversed $31 $-1 #
coedge $-1 $53 $88 $156 $162 reversed $31 $-1 #
coedge $-1 $158 $163 $53 $91 forward $164 $-1 #
edge $-1 $165 -48.02289555656636821 $166 -32.16895570820609862 $90 $167 forward 7 unknown #
loop $-1 $-1 $97 $54 #
plane-surface $-1 30.28288499870545536 15.16027319457143818 110.3840294145147425 0.6156614830463592591 0 0.788010747574649173 0.788010747574649173 0 -0.6156614830463592591 forward_v I I I I #
loop $-1 $-1 $168 $33 #
coedge $-1 $95 $95 $96 $169 reversed $55 $-1 #
coedge $-1 $96 $96 $95 $169 forward $57 $-1 #
coedge $-1 $97 $97 $58 $98 forward $92 $-1 #
edge $-1 $170 0 $170 6.283185307179586232 $97 $171 forward 7 unknown #
face $-1 $172 $173 $16 $-1 $174 reversed single #
loop $-1 $-1 $175 $59 #
plane-surface $-1 118.2307676197387707 53.36344795083212489 222.9521835710569349 0 1 0 0.6156614830463592591 0 0.788010747574649173 forward_v I I I I #
coedge $-1 $176 $177 $178 $179 reversed $60 $-1 #
coedge $-1 $104 $62 $180 $181 reversed $37 $-1 #
coedge $-1 $62 $103 $176 $182 reversed $37 $-1 #
coedge $-1 $178 $183 $62 $106 forward $184 $-1 #
edge $-1 $185 -48.02289555656636821 $186 -32.16895570820609862 $105 $187 forward 7 unknown #
loop $-1 $-1 $112 $63 #
plane-surface $-1 30.28288499870545536 63.10280310546528426 110.3840294145147425 0.6156614830463592591 0 0.788010747574649173 0.788010747574649173 0 -0.6156614830463592591 forward_v I I I I #
loop $-1 $-1 $188 $39 #
coedge $-1 $110 $110 $111 $189 reversed $64 $-1 #
coedge $-1 $111 $111 $110 $189 forward $66 $-1 #
coedge $-1 $112 $112 $67 $113 forward $107 $-1 #
edge $-1 $190 0 $190 6.283185307179586232 $112 $191 forward 7 unknown #
face $-1 $192 $193 $12 $-1 $194 reversed single #
loop $-1 $-1 $195 $68 #
plane-surface $-1 0 47.94252991089384608 17.41130118532782234 1 0 0 0 0 -1 forward_v I I I I #
coedge $-1 $196 $125 $197 $198 forward $69 $-1 #
coedge $-1 $199 $71 $196 $200 forward $43 $-1 #
coedge $-1 $71 $199 $201 $202 forward $43 $-1 #
coedge $-1 $128 $127 $71 $121 reversed $129 $-1 #
edge $-1 $203 -47.94252991089384608 $204 47.94252991089384608 $120 $205 forward 7 unknown #
coedge $-1 $73 $72 $206 $207 forward $25 $-1 #
coedge $-1 $208 $209 $72 $124 reversed $193 $-1 #
edge $-1 $131 -71.42551957762383097 $210 71.42551957762383097 $123 $211 forward 7 unknown #
coedge $-1 $117 $212 $73 $126 reversed $69 $-1 #
edge $-1 $213 -71.42551957762383097 $130 71.42551957762383097 $125 $214 forward 7 unknown #
coedge $-1 $120 $74 $212 $215 forward $129 $-1 #
coedge $-1 $74 $120 $208 $216 reversed $129 $-1 #
loop $-1 $-1 $127 $192 #
vertex $-1 $75 $217 #
vertex $-1 $75 $218 #
straight-curve $-1 142.8510391552476619 47.94252991089384608 34.82260237065564468 0 1 0 I I #
face $-1 $219 $220 $13 $-1 $221 forward single #
loop $-1 $-1 $222 $76 #
plane-surface $-1 71.42551957762383097 47.94252991089384608 0 0 0 1 1 0 0 forward_v I I I I #
coedge $-1 $223 $224 $141 $225 forward $77 $-1 #
coedge $-1 $226 $79 $222 $227 reversed $47 $-1 #
coedge $-1 $79 $226 $228 $229 reversed $47 $-1 #
coedge $-1 $224 $223 $79 $140 reversed $77 $-1 #
edge $-1 $230 -17.41130118532782234 $231 17.41130118532782234 $139 $232 forward 7 unknown #
coedge $-1 $81 $80 $136 $225 reversed $28 $-1 #
coedge $-1 $233 $234 $80 $143 forward $134 $-1 #
edge $-1 $235 24.32975565990999911 $149 39.50709449844588761 $142 $236 forward 7 unknown #
coedge $-1 $237 $238 $81 $145 forward $220 $-1 #
edge $-1 $150 -39.50709449844588761 $239 -24.32975565990999911 $144 $240 forward 7 unknown #
coedge $-1 $241 $82 $238 $242 reversed $148 $-1 #
coedge $-1 $82 $241 $233 $243 reversed $148 $-1 #
loop $-1 $-1 $241 $219 #
vertex $-1 $243 $244 #
vertex $-1 $83 $245 #
straight-curve $-1 0 20.91941949298135484 17.41130118532782234 0 0 1 I I #
face $-1 $-1 $164 $14 $-1 $246 forward single #
loop $-1 $-1 $247 $84 #
plane-surface $-1 142.8510391552476619 47.94252991089384608 17.41130118532782234 -1 0 0 0 0 1 forward_v I I I I #
coedge $-1 $248 $249 $250 $251 reversed $85 $-1 #
coedge $-1 $252 $87 $89 $162 forward $51 $-1 #
coedge $-1 $87 $252 $248 $253 forward $51 $-1 #
coedge $-1 $250 $90 $87 $159 forward $164 $-1 #
edge $-1 $166 6.651773203528041023 $254 26.13048351279436332 $158 $255 forward 7 unknown #
coedge $-1 $256 $257 $88 $161 forward $153 $-1 #
edge $-1 $258 -97.74559558471096921 $165 -85.35914000753673747 $160 $259 forward 7 unknown #
edge $-1 $166 122.7321005530068305 $258 142.8510391552476904 $89 $260 forward 7 unknown #
coedge $-1 $90 $250 $256 $261 forward $164 $-1 #
loop $-1 $-1 $250 $152 #
vertex $-1 $161 $262 #
vertex $-1 $91 $263 #
straight-curve $-1 94.82814359868129372 24.89962834920460111 34.82260237065565178 -1 0 0 I I #
coedge $-1 $168 $168 $-1 $264 reversed $94 $-1 #
edge $-1 $265 0 $265 6.283185307179586232 $95 $266 forward 7 unknown #
vertex $-1 $98 $267 #
ellipse-curve $-1 134.9240692310675627 15.16027319457143818 28.6293745820685146 0.6156614830463592591 0 0.788010747574649173 1.576021495149298346 0 -1.231322966092718518 1 I I #
face $-1 $-1 $184 $16 $-1 $268 forward single #
loop $-1 $-1 $269 $99 #
plane-surface $-1 142.8510391552476619 47.94252991089384608 17.41130118532782234 -1 0 0 0 0 1 forward_v I I I I #
coedge $-1 $270 $271 $272 $273 reversed $100 $-1 #
coedge $-1 $274 $102 $104 $182 forward $60 $-1 #
coedge $-1 $102 $274 $270 $275 forward $60 $-1 #
coedge $-1 $272 $105 $102 $179 forward $184 $-1 #
edge $-1 $186 -17.31949175191887491 $276 2.159218557347443834 $178 $277 forward 7 unknown #
coedge $-1 $278 $279 $103 $181 forward $173 $-1 #
edge $-1 $280 -97.74559558471096921 $185 -85.35914000753673747 $180 $281 forward 7 unknown #
edge $-1 $186 122.7321005530068305 $280 142.8510391552476904 $104 $282 forward 7 unknown #
coedge $-1 $105 $272 $278 $283 forward $184 $-1 #
loop $-1 $-1 $272 $172 #
vertex $-1 $181 $284 #
vertex $-1 $106 $285 #
straight-curve $-1 94.82814359868129372 72.84215826009844363 34.82260237065565178 -1 0 0 I I #
coedge $-1 $188 $188 $-1 $286 reversed $109 $-1 #
edge $-1 $287 0 $287 6.283185307179586232 $110 $288 forward 7 unknown #
vertex $-1 $113 $289 #
ellipse-curve $-1 134.9240692310675627 63.10280310546528426 28.6293745820685146 0.6156614830463592591 0 0.788010747574649173 1.576021495149298346 0 -1.231322966092718518 1 I I #
face $-1 $-1 $129 $12 $-1 $290 reversed single #
loop $-1 $-1 $208 $114 #
plane-surface $-1 71.42551957762383097 95.88505982178769216 17.41130118532782234 0 -1 0 0 0 -1 forward_v I I I I #
coedge $-1 $291 $206 $209 $292 forward $115 $-1 #
coedge $-1 $212 $117 $118 $200 reversed $69 $-1 #
coedge $-1 $206 $291 $117 $198 reversed $115 $-1 #
edge $-1 $213 -17.41130118532782234 $293 17.41130118532782234 $197 $294 forward 7 unknown #
coedge $-1 $119 $118 $291 $295 forward $43 $-1 #
edge $-1 $204 -71.42551957762383097 $293 71.42551957762383097 $196 $296 forward 7 unknown #
coedge $-1 $209 $208 $119 $202 reversed $193 $-1 #
edge $-1 $297 -71.42551957762383097 $203 71.42551957762383097 $201 $298 forward 7 unknown #
vertex $-1 $121 $299 #
vertex $-1 $215 $300 #
straight-curve $-1 142.8510391552476619 47.94252991089384608 0 0 -1 0 I I #
coedge $-1 $195 $197 $122 $207 reversed $115 $-1 #
edge $-1 $210 -47.94252991089384608 $213 47.94252991089384608 $206 $301 forward 7 unknown #
coedge $-1 $201 $123 $128 $216 forward $193 $-1 #
coedge $-1 $123 $201 $195 $292 reversed $193 $-1 #
vertex $-1 $124 $302 #
straight-curve $-1 71.42551957762383097 95.88505982178769216 34.82260237065564468 -1 0 0 I I #
coedge $-1 $125 $196 $127 $215 reversed $69 $-1 #
vertex $-1 $207 $303 #
straight-curve $-1 71.42551957762383097 0 34.82260237065564468 1 0 0 I I #
edge $-1 $130 -17.41130118532782234 $204 17.41130118532782234 $127 $304 forward 7 unknown #
edge $-1 $131 -17.41130118532782234 $203 17.41130118532782234 $128 $305 forward 7 unknown #
point $-1 142.8510391552476619 0 34.82260237065564468 #
point $-1 142.8510391552476619 95.88505982178769216 34.82260237065564468 #
face $-1 $-1 $148 $13 $-1 $306 reversed single #
loop $-1 $-1 $228 $133 #
plane-surface $-1 71.42551957762383097 47.94252991089384608 34.82260237065564468 0 0 1 1 0 0 forward_v I I I I #
coedge $-1 $234 $233 $137 $227 forward $134 $-1 #
coedge $-1 $139 $136 $234 $307 reversed $77 $-1 #
coedge $-1 $136 $139 $237 $308 reversed $77 $-1 #
edge $-1 $239 -17.41130118532782234 $235 17.41130118532782234 $136 $309 forward 7 unknown #
coedge $-1 $138 $137 $241 $310 reversed $47 $-1 #
edge $-1 $311 -39.50709449844588761 $231 -24.32975565990999911 $222 $312 forward 7 unknown #
coedge $-1 $238 $237 $138 $229 forward $220 $-1 #
edge $-1 $230 24.32975565990999911 $313 39.50709449844588761 $228 $314 forward 7 unknown #
vertex $-1 $229 $315 #
vertex $-1 $227 $316 #
straight-curve $-1 15.1773388385358885 25.05589873146222857 17.41130118532782234 0 0 -1 I I #
coedge $-1 $222 $142 $147 $243 forward $134 $-1 #
coedge $-1 $142 $222 $223 $307 forward $134 $-1 #
vertex $-1 $143 $317 #
straight-curve $-1 39.50709449844588761 20.91941949298135484 0 -1 0 0 I I #
coedge $-1 $228 $144 $224 $308 forward $220 $-1 #
coedge $-1 $144 $228 $146 $242 forward $220 $-1 #
vertex $-1 $145 $318 #
straight-curve $-1 39.50709449844588761 20.91941949298135484 34.82260237065564468 1 0 0 I I #
coedge $-1 $147 $146 $226 $310 forward $148 $-1 #
edge $-1 $313 22.88663117943161751 $150 27.02311041791249124 $146 $319 forward 7 unknown #
edge $-1 $149 -27.02311041791249124 $311 -22.88663117943161751 $147 $320 forward 7 unknown #
point $-1 0 20.91941949298135484 0 #
point $-1 0 20.91941949298135484 34.82260237065564468 #
plane-surface $-1 71.42551957762383097 47.94252991089384608 34.82260237065564468 0 0 1 1 0 0 forward_v I I I I #
coedge $-1 $257 $256 $249 $321 forward $153 $-1 #
coedge $-1 $249 $155 $157 $253 reversed $85 $-1 #
coedge $-1 $155 $248 $247 $321 reversed $85 $-1 #
coedge $-1 $163 $158 $155 $251 forward $164 $-1 #
edge $-1 $254 32.16895570820609862 $322 48.02289555656636821 $250 $323 forward 7 unknown #
coedge $-1 $157 $156 $257 $324 reversed $51 $-1 #
edge $-1 $325 -142.8510391552476904 $254 -122.7321005530068305 $248 $326 forward 7 unknown #
vertex $-1 $159 $327 #
straight-curve $-1 126.9970993068874066 31.55140155273264213 34.82260237065564468 0 -1 0 I I #
coedge $-1 $247 $160 $163 $261 reversed $153 $-1 #
coedge $-1 $160 $247 $252 $324 forward $153 $-1 #
vertex $-1 $161 $328 #
straight-curve $-1 142.8510391552476619 24.89962834920460111 120.1817423781923821 0 0 1 I I #
straight-curve $-1 30.28288499870545536 24.89962834920460111 110.3840294145147425 0.788010747574649173 0 -0.6156614830463592591 I I #
edge $-1 $322 -42.52161187095556727 $165 -23.04290156168924497 $256 $329 forward 7 unknown #
point $-1 142.8510391552476619 24.89962834920460111 34.82260237065564468 #
point $-1 126.9970993068873923 24.89962834920460111 34.82260237065565178 #
edge $-1 $330 1 $330 0 $168 $-1 forward 7 unknown #
vertex $-1 $169 $331 #
ellipse-curve $-1 131.6576644280133621 15.16027319457143818 24.44856717147672853 0.6156614830463592591 0 0.788010747574649173 1.576021495149298346 0 -1.231322966092718518 1 I I #
point $-1 136.5000907262168823 15.16027319457143818 27.39805161597583805 #
plane-surface $-1 71.42551957762383097 47.94252991089384608 34.82260237065564468 0 0 1 1 0 0 forward_v I I I I #
coedge $-1 $279 $278 $271 $332 forward $173 $-1 #
coedge $-1 $271 $175 $177 $275 reversed $100 $-1 #
coedge $-1 $175 $270 $269 $332 reversed $100 $-1 #
coedge $-1 $183 $178 $175 $273 forward $184 $-1 #
edge $-1 $276 32.16895570820609862 $333 48.02289555656636821 $272 $334 forward 7 unknown #
coedge $-1 $177 $176 $279 $335 reversed $60 $-1 #
edge $-1 $336 -142.8510391552476904 $276 -122.7321005530068305 $270 $337 forward 7 unknown #
vertex $-1 $179 $338 #
straight-curve $-1 126.9970993068874066 55.52266650817956872 34.82260237065564468 0 -1 0 I I #
coedge $-1 $269 $180 $183 $283 reversed $173 $-1 #
coedge $-1 $180 $269 $274 $335 forward $173 $-1 #
vertex $-1 $181 $339 #
straight-curve $-1 142.8510391552476619 72.84215826009844363 120.1817423781923821 0 0 1 I I #
straight-curve $-1 30.28288499870545536 72.84215826009844363 110.3840294145147425 0.788010747574649173 0 -0.6156614830463592591 I I #
edge $-1 $333 5.42091803993827881 $185 24.89962834920459755 $278 $340 forward 7 unknown #
point $-1 142.8510391552476619 72.84215826009844363 34.82260237065564468 #
point $-1 126.9970993068873923 72.84215826009844363 34.82260237065565178 #
edge $-1 $341 1 $341 0 $188 $-1 forward 7 unknown #
vertex $-1 $189 $342 #
ellipse-curve $-1 131.6576644280133621 63.10280310546528426 24.44856717147672853 0.6156614830463592591 0 0.788010747574649173 1.576021495149298346 0 -1.231322966092718518 1 I I #
point $-1 136.5000907262168823 63.10280310546528426 27.39805161597583805 #
plane-surface $-1 142.8510391552476619 47.94252991089384608 17.41130118532782234 -1 0 0 0 0 1 forward_v I I I I #
coedge $-1 $197 $195 $199 $295 reversed $115 $-1 #
edge $-1 $210 -17.41130118532782234 $297 17.41130118532782234 $209 $343 forward 7 unknown #
vertex $-1 $295 $344 #
straight-curve $-1 0 0 17.41130118532782234 0 0 -1 I I #
edge $-1 $293 -47.94252991089384608 $297 47.94252991089384608 $291 $345 forward 7 unknown #
straight-curve $-1 71.42551957762383097 0 0 -1 0 0 I I #
vertex $-1 $202 $346 #
straight-curve $-1 71.42551957762383097 95.88505982178769216 0 1 0 0 I I #
point $-1 142.8510391552476619 95.88505982178769216 0 #
point $-1 142.8510391552476619 0 0 #
straight-curve $-1 0 47.94252991089384608 34.82260237065564468 0 -1 0 I I #
point $-1 0 95.88505982178769216 34.82260237065564468 #
point $-1 0 0 34.82260237065564468 #
straight-curve $-1 142.8510391552476619 0 17.41130118532782234 0 0 -1 I I #
straight-curve $-1 142.8510391552476619 95.88505982178769216 17.41130118532782234 0 0 -1 I I #
plane-surface $-1 0 47.94252991089384608 17.41130118532782234 1 0 0 0 0 -1 forward_v I I I I #
edge $-1 $231 10.40919578009559388 $235 14.54567501857646761 $234 $347 forward 7 unknown #
edge $-1 $239 -14.54567501857646761 $230 -10.40919578009559388 $237 $348 forward 7 unknown #
straight-curve $-1 15.1773388385358885 20.91941949298135484 17.41130118532782234 0 0 -1 I I #
edge $-1 $313 -17.41130118532782234 $311 17.41130118532782234 $241 $349 forward 7 unknown #
vertex $-1 $310 $350 #
straight-curve $-1 39.50709449844588761 25.05589873146222857 0 1 0 0 I I #
vertex $-1 $242 $351 #
straight-curve $-1 39.50709449844588761 25.05589873146222857 34.82260237065564468 -1 0 0 I I #
point $-1 15.1773388385358885 25.05589873146222857 34.82260237065564468 #
point $-1 15.1773388385358885 25.05589873146222857 0 #
point $-1 15.1773388385358885 20.91941949298135484 0 #
point $-1 15.1773388385358885 20.91941949298135484 34.82260237065564468 #
straight-curve $-1 0 47.94252991089384608 34.82260237065564468 0 -1 0 I I #
straight-curve $-1 0 47.94252991089384608 0 0 1 0 I I #
edge $-1 $322 85.35914000753673747 $325 97.74559558471096921 $247 $352 forward 7 unknown #
vertex $-1 $261 $353 #
straight-curve $-1 94.82814359868129372 5.42091803993827881 34.82260237065565178 1 0 0 I I #
edge $-1 $325 -26.13048351279436332 $258 -6.651773203528041023 $257 $354 forward 7 unknown #
vertex $-1 $324 $355 #
straight-curve $-1 30.28288499870545536 5.42091803993827881 110.3840294145147425 -0.788010747574649173 0 0.6156614830463592591 I I #
point $-1 126.9970993068873923 5.42091803993827881 34.82260237065565178 #
point $-1 142.8510391552476619 24.89962834920460111 22.43614679348140584 #
straight-curve $-1 142.8510391552476619 47.94252991089384608 34.82260237065564468 0 1 0 I I #
vertex $-1 $264 $356 #
point $-1 133.2336859231626818 15.16027319457143818 23.2172442053840129 #
edge $-1 $333 85.35914000753673747 $336 97.74559558471096921 $269 $357 forward 7 unknown #
vertex $-1 $283 $358 #
straight-curve $-1 94.82814359868129372 53.36344795083212489 34.82260237065565178 1 0 0 I I #
edge $-1 $336 -2.159218557347443834 $280 17.31949175191887491 $279 $359 forward 7 unknown #
vertex $-1 $335 $360 #
straight-curve $-1 30.28288499870545536 53.36344795083212489 110.3840294145147425 -0.788010747574649173 0 0.6156614830463592591 I I #
point $-1 126.9970993068873923 53.36344795083212489 34.82260237065565178 #
point $-1 142.8510391552476619 72.84215826009844363 22.43614679348140584 #
straight-curve $-1 142.8510391552476619 47.94252991089384608 34.82260237065564468 0 1 0 I I #
vertex $-1 $286 $361 #
point $-1 133.2336859231626818 63.10280310546528426 23.2172442053840129 #
straight-curve $-1 0 95.88505982178769216 17.41130118532782234 0 0 -1 I I #
point $-1 0 0 0 #
straight-curve $-1 0 47.94252991089384608 0 0 1 0 I I #
point $-1 0 95.88505982178769216 0 #
straight-curve $-1 15.1773388385358885 35.46509451155782244 0 0 -1 0 I I #
straight-curve $-1 15.1773388385358885 35.46509451155782244 34.82260237065564468 0 1 0 I I #
straight-curve $-1 0 25.05589873146222857 17.41130118532782234 0 0 -1 I I #
point $-1 0 25.05589873146222857 0 #
point $-1 0 25.05589873146222857 34.82260237065564468 #
straight-curve $-1 142.8510391552476619 5.42091803993827881 120.1817423781923821 0 0 -1 I I #
point $-1 142.8510391552476619 5.42091803993827881 34.82260237065564468 #
straight-curve $-1 142.8510391552476904 31.55140155273264213 22.43614679348142005 0 1 0 I I #
point $-1 142.8510391552476619 5.42091803993827881 22.43614679348140584 #
point $-1 130.4263414619206571 15.16027319457143818 22.87254567632743019 #
straight-curve $-1 142.8510391552476619 53.36344795083212489 120.1817423781923821 0 0 -1 I I #
point $-1 142.8510391552476619 53.36344795083212489 34.82260237065564468 #
straight-curve $-1 142.8510391552476904 55.52266650817956872 22.43614679348142005 0 1 0 I I #
point $-1 142.8510391552476619 53.36344795083212489 22.43614679348140584 #
point $-1 130.4263414619206571 63.10280310546528426 22.87254567632743019 #
End-of-ACIS-data 