500 0 18 0           
7 Unknown 11 ACIS 5.0 NT 24 Thu Mar 25 17:24:29 1999 
-1 9.9999999999999995e-007 1e-010 
body $-1 $18 $-1 $19 #
body $-1 $20 $-1 $21 #
body $-1 $22 $-1 $23 #
body $-1 $24 $-1 $25 #
body $-1 $26 $-1 $27 #
body $-1 $28 $-1 $29 #
body $-1 $30 $-1 $31 #
body $-1 $32 $-1 $33 #
body $-1 $34 $-1 $35 #
body $-1 $36 $-1 $37 #
body $-1 $38 $-1 $39 #
body $-1 $40 $-1 $41 #
body $-1 $42 $-1 $43 #
body $-1 $44 $-1 $45 #
body $-1 $46 $-1 $47 #
body $-1 $48 $-1 $49 #
body $-1 $50 $-1 $51 #
body $-1 $52 $-1 $53 #
lump $-1 $-1 $54 $0 #
transform $-1 1 0 0 0 1 0 0 0 1 51.493270668660543 34.752575321145052 9.8418079986744438 1 rotate no_reflect no_shear #
lump $-1 $-1 $55 $1 #
transform $-1 1 0 0 0 1 0 0 0 1 51.493270668660543 34.752575321145052 9.8418079986744438 1 rotate no_reflect no_shear #
lump $-1 $-1 $56 $2 #
transform $-1 1 0 0 0 1 0 0 0 1 51.493270668660543 34.752575321145052 9.8418079986744438 1 rotate no_reflect no_shear #
lump $-1 $-1 $57 $3 #
transform $-1 1 0 0 0 1 0 0 0 1 51.493270668660543 34.752575321145052 9.8418079986744438 1 rotate no_reflect no_shear #
lump $-1 $-1 $58 $4 #
transform $-1 1 0 0 0 1 0 0 0 1 51.493270668660543 34.752575321145052 9.8418079986744438 1 rotate no_reflect no_shear #
lump $-1 $-1 $59 $5 #
transform $-1 1 0 0 0 1 0 0 0 1 51.493270668660543 34.752575321145052 9.8418079986744438 1 rotate no_reflect no_shear #
lump $-1 $-1 $60 $6 #
transform $-1 1 0 0 0 1 0 0 0 1 51.493270668660543 34.752575321145052 9.8418079986744438 1 rotate no_reflect no_shear #
lump $-1 $-1 $61 $7 #
transform $-1 1 0 0 0 1 0 0 0 1 51.493270668660543 34.752575321145052 9.8418079986744438 1 rotate no_reflect no_shear #
lump $-1 $-1 $62 $8 #
transform $-1 1 0 0 0 1 0 0 0 1 51.493270668660543 34.752575321145052 9.8418079986744438 1 rotate no_reflect no_shear #
lump $-1 $-1 $63 $9 #
transform $-1 1 0 0 0 1 0 0 0 1 51.493270668660543 34.752575321145052 9.8418079986744438 1 rotate no_reflect no_shear #
lump $-1 $-1 $64 $10 #
transform $-1 1 0 0 0 1 0 0 0 1 51.493270668660543 34.752575321145052 9.8418079986744438 1 rotate no_reflect no_shear #
lump $-1 $-1 $65 $11 #
transform $-1 1 0 0 0 1 0 0 0 1 51.493270668660543 34.752575321145052 9.8418079986744438 1 rotate no_reflect no_shear #
lump $-1 $-1 $66 $12 #
transform $-1 1 0 0 0 1 0 0 0 1 51.493270668660543 34.752575321145052 9.8418079986744438 1 rotate no_reflect no_shear #
lump $-1 $-1 $67 $13 #
transform $-1 1 0 0 0 1 0 0 0 1 51.493270668660543 34.752575321145052 9.8418079986744438 1 rotate no_reflect no_shear #
lump $-1 $-1 $68 $14 #
transform $-1 1 0 0 0 1 0 0 0 1 51.493270668660543 34.752575321145052 9.8418079986744438 1 rotate no_reflect no_shear #
lump $-1 $-1 $69 $15 #
transform $-1 1 0 0 0 1 0 0 0 1 51.493270668660543 34.752575321145052 9.8418079986744438 1 rotate no_reflect no_shear #
lump $-1 $-1 $70 $16 #
transform $-1 1 0 0 0 1 0 0 0 1 51.493270668660543 34.752575321145052 9.8418079986744438 1 rotate no_reflect no_shear #
lump $-1 $-1 $71 $17 #
transform $-1 1 0 0 0 1 0 0 0 1 51.493270668660543 34.752575321145052 9.8418079986744438 1 rotate no_reflect no_shear #
shell $-1 $-1 $-1 $72 $-1 $18 #
shell $-1 $-1 $-1 $73 $-1 $20 #
shell $-1 $-1 $-1 $74 $-1 $22 #
shell $-1 $-1 $-1 $75 $-1 $24 #
shell $-1 $-1 $-1 $76 $-1 $26 #
shell $-1 $-1 $-1 $77 $-1 $28 #
shell $-1 $-1 $-1 $78 $-1 $30 #
shell $-1 $-1 $-1 $79 $-1 $32 #
shell $-1 $-1 $-1 $80 $-1 $34 #
shell $-1 $-1 $-1 $81 $-1 $36 #
shell $-1 $-1 $-1 $82 $-1 $38 #
shell $-1 $-1 $-1 $83 $-1 $40 #
shell $-1 $-1 $-1 $84 $-1 $42 #
shell $-1 $-1 $-1 $85 $-1 $44 #
shell $-1 $-1 $-1 $86 $-1 $46 #
shell $-1 $-1 $-1 $87 $-1 $48 #
shell $-1 $-1 $-1 $88 $-1 $50 #
shell $-1 $-1 $-1 $89 $-1 $52 #
face $-1 $90 $91 $54 $-1 $92 forward single #
face $-1 $93 $94 $55 $-1 $95 forward single #
face $-1 $96 $97 $56 $-1 $98 reversed single #
face $-1 $99 $100 $57 $-1 $101 forward single #
face $-1 $102 $103 $58 $-1 $104 forward single #
face $-1 $105 $106 $59 $-1 $107 forward single #
face $-1 $108 $109 $60 $-1 $110 reversed single #
face $-1 $111 $112 $61 $-1 $113 forward single #
face $-1 $114 $115 $62 $-1 $116 forward single #
face $-1 $117 $118 $63 $-1 $119 forward single #
face $-1 $120 $121 $64 $-1 $122 reversed single #
face $-1 $123 $124 $65 $-1 $125 forward single #
face $-1 $126 $127 $66 $-1 $128 forward single #
face $-1 $129 $130 $67 $-1 $131 forward single #
face $-1 $132 $133 $68 $-1 $134 reversed single #
face $-1 $135 $136 $69 $-1 $137 forward single #
face $-1 $138 $139 $70 $-1 $140 forward single #
face $-1 $141 $142 $71 $-1 $143 forward single #
face $-1 $144 $145 $54 $-1 $146 reversed single #
loop $-1 $-1 $147 $72 #
plane-surface $-1 0 0 9.8418079986744438 0 0 1 1 0 0 forward_v I I I I #
face $-1 $148 $149 $55 $-1 $150 reversed single #
loop $-1 $-1 $151 $73 #
plane-surface $-1 -51.493270668660543 0 0 1 0 0 0 0 -1 forward_v I I I I #
face $-1 $152 $153 $56 $-1 $154 reversed single #
loop $-1 $-1 $155 $74 #
plane-surface $-1 5.5653716701192906 -87.794566018747673 89.134452944244302 -1 0 0 0 -0.51503808176128008 0.85716729658548041 forward_v I I I I #
face $-1 $156 $157 $57 $-1 $158 forward single #
loop $-1 $159 $160 $75 #
cone-surface $-1 -4.1651139804350237 -26.914387967322455 4.7469771531324954 0 0.51503808176128008 -0.85716729658548041 1 0 0 1 I I 0 1 1 forward I I I I #
face $-1 $161 $162 $58 $-1 $163 forward single #
loop $-1 $164 $165 $76 #
cone-surface $-1 -0.51618186147715761 -26.914387967322455 4.7469771531324954 0 0.51503808176128008 -0.85716729658548041 1 0 0 1 I I 0 1 1 forward I I I I #
face $-1 $166 $167 $59 $-1 $168 forward single #
loop $-1 $169 $170 $77 #
cone-surface $-1 3.1327502574807085 -26.914387967322455 4.7469771531324954 0 0.51503808176128008 -0.85716729658548041 1 0 0 1 I I 0 1 1 forward I I I I #
face $-1 $171 $172 $60 $-1 $173 reversed single #
loop $-1 $-1 $174 $78 #
plane-surface $-1 45.411717137064102 -34.752575321145045 0.85775772144396001 0 -0.51503808176128008 0.85716729658548041 1 0 0 forward_v I I I I #
face $-1 $175 $176 $61 $-1 $177 forward single #
loop $-1 $178 $179 $79 #
cone-surface $-1 41.762785018106243 -26.914387967322455 4.7469771531324954 0 0.51503808176128008 -0.85716729658548041 1 0 0 1 I I 0 1 1 forward I I I I #
face $-1 $180 $181 $62 $-1 $182 forward single #
loop $-1 $183 $184 $80 #
cone-surface $-1 45.411717137064102 -26.914387967322455 4.7469771531324954 0 0.51503808176128008 -0.85716729658548041 1 0 0 1 I I 0 1 1 forward I I I I #
face $-1 $185 $186 $63 $-1 $187 forward single #
loop $-1 $188 $189 $81 #
cone-surface $-1 49.060649256021961 -26.914387967322455 4.7469771531324954 0 0.51503808176128008 -0.85716729658548041 1 0 0 1 I I 0 1 1 forward I I I I #
face $-1 $190 $191 $64 $-1 $192 reversed single #
loop $-1 $-1 $193 $82 #
plane-surface $-1 -6.5977353930736058 28.217023943929298 124.9322524035782 1 0 0 0 -0.51503808176128008 -0.85716729658548041 forward_v I I I I #
face $-1 $194 $195 $65 $-1 $196 forward single #
loop $-1 $197 $198 $83 #
cone-surface $-1 -4.1651139804350237 26.914387967322455 4.7469771531324989 0 -0.51503808176128008 -0.85716729658548041 1 0 0 1 I I 0 1 1 forward I I I I #
face $-1 $199 $200 $66 $-1 $201 forward single #
loop $-1 $202 $203 $84 #
cone-surface $-1 -0.51618186147715761 26.914387967322455 4.7469771531324989 0 -0.51503808176128008 -0.85716729658548041 1 0 0 1 I I 0 1 1 forward I I I I #
face $-1 $204 $205 $67 $-1 $206 forward single #
loop $-1 $207 $208 $85 #
cone-surface $-1 3.1327502574807085 26.914387967322455 4.7469771531324989 0 -0.51503808176128008 -0.85716729658548041 1 0 0 1 I I 0 1 1 forward I I I I #
face $-1 $209 $210 $68 $-1 $211 reversed single #
loop $-1 $-1 $212 $86 #
plane-surface $-1 45.411717137064102 -24.82496675367333 36.655557180777862 0 0.51503808176128008 0.85716729658548041 1 0 0 forward_v I I I I #
face $-1 $213 $214 $69 $-1 $215 forward single #
loop $-1 $216 $217 $87 #
cone-surface $-1 41.762785018106243 26.914387967322455 4.7469771531324989 0 -0.51503808176128008 -0.85716729658548041 1 0 0 1 I I 0 1 1 forward I I I I #
face $-1 $218 $219 $70 $-1 $220 forward single #
loop $-1 $221 $222 $88 #
cone-surface $-1 45.411717137064102 26.914387967322455 4.7469771531324989 0 -0.51503808176128008 -0.85716729658548041 1 0 0 1 I I 0 1 1 forward I I I I #
face $-1 $223 $224 $71 $-1 $225 forward single #
loop $-1 $226 $227 $89 #
cone-surface $-1 49.060649256021961 26.914387967322455 4.7469771531324989 0 -0.51503808176128008 -0.85716729658548041 1 0 0 1 I I 0 1 1 forward I I I I #
face $-1 $228 $229 $54 $-1 $230 reversed single #
loop $-1 $-1 $231 $90 #
plane-surface $-1 0 0 -9.8418079986744438 0 0 1 1 0 0 forward_v I I I I #
coedge $-1 $232 $233 $234 $235 forward $91 $-1 #
face $-1 $236 $237 $55 $-1 $238 reversed single #
loop $-1 $-1 $239 $93 #
plane-surface $-1 0 0 -9.8418079986744438 0 0 1 1 0 0 forward_v I I I I #
coedge $-1 $240 $241 $242 $243 forward $94 $-1 #
face $-1 $244 $245 $56 $-1 $246 reversed single #
loop $-1 $-1 $247 $96 #
plane-surface $-1 -0.51618186147715761 -34.752575321145045 0.85775772144396001 0 -0.51503808176128008 0.85716729658548041 1 0 0 forward_v I I I I #
coedge $-1 $248 $249 $250 $251 reversed $97 $-1 #
face $-1 $-1 $252 $57 $-1 $253 forward single #
loop $-1 $254 $255 $99 #
cone-surface $-1 -4.1651139804350237 -26.294666709666828 3.7155877979130452 0 0.51503808176128008 -0.85716729658548041 0.5 0 0 1 I I -0.70710678118654746 0.70710678118654746 0.5 forward I I I I #
loop $-1 $-1 $256 $75 #
coedge $-1 $160 $160 $257 $258 reversed $100 $-1 #
face $-1 $-1 $259 $58 $-1 $260 forward single #
loop $-1 $261 $262 $102 #
cone-surface $-1 -0.51618186147715761 -26.294666709666828 3.7155877979130452 0 0.51503808176128008 -0.85716729658548041 0.5 0 0 1 I I -0.70710678118654746 0.70710678118654746 0.5 forward I I I I #
loop $-1 $-1 $263 $76 #
coedge $-1 $165 $165 $264 $265 reversed $103 $-1 #
face $-1 $-1 $266 $59 $-1 $267 forward single #
loop $-1 $268 $269 $105 #
cone-surface $-1 3.1327502574807085 -26.294666709666828 3.7155877979130452 0 0.51503808176128008 -0.85716729658548041 0.5 0 0 1 I I -0.70710678118654746 0.70710678118654746 0.5 forward I I I I #
loop $-1 $-1 $270 $77 #
coedge $-1 $170 $170 $271 $272 reversed $106 $-1 #
face $-1 $273 $274 $60 $-1 $275 reversed single #
loop $-1 $-1 $276 $108 #
plane-surface $-1 39.330163605467654 -87.794566018747673 89.134452944244302 1 0 0 0 0.51503808176128008 -0.85716729658548041 forward_v I I I I #
coedge $-1 $277 $278 $279 $280 reversed $109 $-1 #
face $-1 $-1 $281 $61 $-1 $282 forward single #
loop $-1 $283 $284 $111 #
cone-surface $-1 41.762785018106243 -26.294666709666828 3.7155877979130452 0 0.51503808176128008 -0.85716729658548041 0.5 0 0 1 I I -0.70710678118654746 0.70710678118654746 0.5 forward I I I I #
loop $-1 $-1 $285 $79 #
coedge $-1 $179 $179 $286 $287 reversed $112 $-1 #
face $-1 $-1 $288 $62 $-1 $289 forward single #
loop $-1 $290 $291 $114 #
cone-surface $-1 45.411717137064102 -26.294666709666828 3.7155877979130452 0 0.51503808176128008 -0.85716729658548041 0.5 0 0 1 I I -0.70710678118654746 0.70710678118654746 0.5 forward I I I I #
loop $-1 $-1 $292 $80 #
coedge $-1 $184 $184 $293 $294 reversed $115 $-1 #
face $-1 $-1 $295 $63 $-1 $296 forward single #
loop $-1 $297 $298 $117 #
cone-surface $-1 49.060649256021961 -26.294666709666828 3.7155877979130452 0 0.51503808176128008 -0.85716729658548041 0.5 0 0 1 I I -0.70710678118654746 0.70710678118654746 0.5 forward I I I I #
loop $-1 $-1 $299 $81 #
coedge $-1 $189 $189 $300 $301 reversed $118 $-1 #
face $-1 $302 $303 $64 $-1 $304 reversed single #
loop $-1 $-1 $305 $120 #
plane-surface $-1 -0.51618186147715761 -24.82496675367333 36.655557180777862 0 0.51503808176128008 0.85716729658548041 1 0 0 forward_v I I I I #
coedge $-1 $306 $307 $308 $309 reversed $121 $-1 #
face $-1 $-1 $310 $65 $-1 $311 forward single #
loop $-1 $312 $313 $123 #
cone-surface $-1 -4.1651139804350237 26.294666709666828 3.7155877979130487 0 -0.51503808176128008 -0.85716729658548041 0.5 0 0 1 I I -0.70710678118654746 0.70710678118654746 0.5 forward I I I I #
loop $-1 $-1 $314 $83 #
coedge $-1 $198 $198 $315 $316 reversed $124 $-1 #
face $-1 $-1 $317 $66 $-1 $318 forward single #
loop $-1 $319 $320 $126 #
cone-surface $-1 -0.51618186147715761 26.294666709666828 3.7155877979130487 0 -0.51503808176128008 -0.85716729658548041 0.5 0 0 1 I I -0.70710678118654746 0.70710678118654746 0.5 forward I I I I #
loop $-1 $-1 $321 $84 #
coedge $-1 $203 $203 $322 $323 reversed $127 $-1 #
face $-1 $-1 $324 $67 $-1 $325 forward single #
loop $-1 $326 $327 $129 #
cone-surface $-1 3.1327502574807085 26.294666709666828 3.7155877979130487 0 -0.51503808176128008 -0.85716729658548041 0.5 0 0 1 I I -0.70710678118654746 0.70710678118654746 0.5 forward I I I I #
loop $-1 $-1 $328 $85 #
coedge $-1 $208 $208 $329 $330 reversed $130 $-1 #
face $-1 $331 $332 $68 $-1 $333 forward single #
loop $-1 $-1 $334 $132 #
plane-surface $-1 39.330163605467654 28.217023943929298 124.9322524035782 1 0 0 0 -0.51503808176128008 -0.85716729658548041 forward_v I I I I #
coedge $-1 $335 $336 $337 $338 reversed $133 $-1 #
face $-1 $-1 $339 $69 $-1 $340 forward single #
loop $-1 $341 $342 $135 #
cone-surface $-1 41.762785018106243 26.294666709666828 3.7155877979130487 0 -0.51503808176128008 -0.85716729658548041 0.5 0 0 1 I I -0.70710678118654746 0.70710678118654746 0.5 forward I I I I #
loop $-1 $-1 $343 $87 #
coedge $-1 $217 $217 $344 $345 reversed $136 $-1 #
face $-1 $-1 $346 $70 $-1 $347 forward single #
loop $-1 $348 $349 $138 #
cone-surface $-1 45.411717137064102 26.294666709666828 3.7155877979130487 0 -0.51503808176128008 -0.85716729658548041 0.5 0 0 1 I I -0.70710678118654746 0.70710678118654746 0.5 forward I I I I #
loop $-1 $-1 $350 $88 #
coedge $-1 $222 $222 $351 $352 reversed $139 $-1 #
face $-1 $-1 $353 $71 $-1 $354 forward single #
loop $-1 $355 $356 $141 #
cone-surface $-1 49.060649256021961 26.294666709666828 3.7155877979130487 0 -0.51503808176128008 -0.85716729658548041 0.5 0 0 1 I I -0.70710678118654746 0.70710678118654746 0.5 forward I I I I #
loop $-1 $-1 $357 $89 #
coedge $-1 $227 $227 $358 $359 reversed $142 $-1 #
face $-1 $360 $361 $54 $-1 $362 reversed single #
loop $-1 $-1 $363 $144 #
plane-surface $-1 0 -34.752575321145052 0 0 1 0 0 0 1 forward_v I I I I #
coedge $-1 $364 $365 $366 $367 forward $145 $-1 #
coedge $-1 $368 $147 $369 $370 forward $91 $-1 #
coedge $-1 $147 $368 $371 $372 forward $91 $-1 #
coedge $-1 $373 $374 $147 $235 reversed $375 $-1 #
edge $-1 $376 -34.752575321145052 $377 34.752575321145052 $234 $378 forward 7 unknown #
face $-1 $379 $380 $55 $-1 $381 reversed single #
loop $-1 $-1 $382 $148 #
plane-surface $-1 -57.058642338779826 -20.737362562194065 0 0 1 0 0 0 1 forward_v I I I I #
coedge $-1 $383 $384 $241 $385 forward $149 $-1 #
coedge $-1 $386 $151 $387 $388 reversed $94 $-1 #
coedge $-1 $151 $386 $239 $385 reversed $94 $-1 #
coedge $-1 $389 $390 $151 $243 reversed $391 $-1 #
edge $-1 $392 -9.8418079986744438 $393 9.8418079986744438 $242 $394 forward 7 unknown #
face $-1 $395 $396 $56 $-1 $397 forward single #
loop $-1 $-1 $398 $152 #
plane-surface $-1 -6.5977353930736058 -87.794566018747673 89.134452944244302 1 0 0 0 0.51503808176128008 -0.85716729658548041 forward_v I I I I #
coedge $-1 $399 $400 $401 $402 reversed $153 $-1 #
coedge $-1 $249 $155 $403 $404 reversed $97 $-1 #
coedge $-1 $155 $248 $399 $405 reversed $97 $-1 #
coedge $-1 $401 $406 $155 $251 forward $396 $-1 #
edge $-1 $407 9.1447076882287845 $408 24.096677962324023 $250 $409 forward 7 unknown #
loop $-1 $-1 $257 $156 #
plane-surface $-1 -0.51618186147715761 -34.752575321145045 0.85775772144396001 0 -0.51503808176128008 0.85716729658548041 1 0 0 forward_v I I I I #
loop $-1 $-1 $410 $99 #
coedge $-1 $255 $255 $256 $411 reversed $157 $-1 #
coedge $-1 $256 $256 $255 $411 forward $159 $-1 #
coedge $-1 $257 $257 $160 $258 forward $252 $-1 #
edge $-1 $412 -1.5160828637581882e-015 $412 6.2831853071795987 $257 $413 forward 7 unknown #
loop $-1 $-1 $264 $161 #
plane-surface $-1 -0.51618186147715761 -34.752575321145045 0.85775772144396001 0 -0.51503808176128008 0.85716729658548041 1 0 0 forward_v I I I I #
loop $-1 $-1 $414 $102 #
coedge $-1 $262 $262 $263 $415 reversed $162 $-1 #
coedge $-1 $263 $263 $262 $415 forward $164 $-1 #
coedge $-1 $264 $264 $165 $265 forward $259 $-1 #
edge $-1 $416 -1.5160828637581882e-015 $416 6.2831853071795987 $264 $417 forward 7 unknown #
loop $-1 $-1 $271 $166 #
plane-surface $-1 -0.51618186147715761 -34.752575321145045 0.85775772144396001 0 -0.51503808176128008 0.85716729658548041 1 0 0 forward_v I I I I #
loop $-1 $-1 $418 $105 #
coedge $-1 $269 $269 $270 $419 reversed $167 $-1 #
coedge $-1 $270 $270 $269 $419 forward $169 $-1 #
coedge $-1 $271 $271 $170 $272 forward $266 $-1 #
edge $-1 $420 -1.5160828637581882e-015 $420 6.2831853071795987 $271 $421 forward 7 unknown #
face $-1 $422 $423 $60 $-1 $424 forward single #
loop $-1 $-1 $425 $171 #
plane-surface $-1 0 -34.752575321145052 0 0 1 0 0 0 1 forward_v I I I I #
coedge $-1 $426 $427 $428 $429 reversed $172 $-1 #
coedge $-1 $430 $174 $431 $432 reversed $109 $-1 #
coedge $-1 $174 $430 $426 $433 forward $109 $-1 #
coedge $-1 $428 $434 $174 $280 forward $423 $-1 #
edge $-1 $435 -28.787412100128499 $436 -16.624305036935603 $279 $437 forward 7 unknown #
loop $-1 $-1 $286 $175 #
plane-surface $-1 45.411717137064102 -34.752575321145045 0.85775772144396001 0 -0.51503808176128008 0.85716729658548041 1 0 0 forward_v I I I I #
loop $-1 $-1 $438 $111 #
coedge $-1 $284 $284 $285 $439 reversed $176 $-1 #
coedge $-1 $285 $285 $284 $439 forward $178 $-1 #
coedge $-1 $286 $286 $179 $287 forward $281 $-1 #
edge $-1 $440 -1.5160828637581882e-015 $440 6.2831853071795987 $286 $441 forward 7 unknown #
loop $-1 $-1 $293 $180 #
plane-surface $-1 45.411717137064102 -34.752575321145045 0.85775772144396001 0 -0.51503808176128008 0.85716729658548041 1 0 0 forward_v I I I I #
loop $-1 $-1 $442 $114 #
coedge $-1 $291 $291 $292 $443 reversed $181 $-1 #
coedge $-1 $292 $292 $291 $443 forward $183 $-1 #
coedge $-1 $293 $293 $184 $294 forward $288 $-1 #
edge $-1 $444 -1.5160828637581882e-015 $444 6.2831853071795987 $293 $445 forward 7 unknown #
loop $-1 $-1 $300 $185 #
plane-surface $-1 45.411717137064102 -34.752575321145045 0.85775772144396001 0 -0.51503808176128008 0.85716729658548041 1 0 0 forward_v I I I I #
loop $-1 $-1 $446 $117 #
coedge $-1 $298 $298 $299 $447 reversed $186 $-1 #
coedge $-1 $299 $299 $298 $447 forward $188 $-1 #
coedge $-1 $300 $300 $189 $301 forward $295 $-1 #
edge $-1 $448 -1.5160828637581882e-015 $448 6.2831853071795987 $300 $449 forward 7 unknown #
face $-1 $450 $451 $64 $-1 $452 forward single #
loop $-1 $-1 $453 $190 #
plane-surface $-1 5.5653716701192906 28.217023943929298 124.9322524035782 -1 0 0 0 0.51503808176128008 0.85716729658548041 forward_v I I I I #
coedge $-1 $454 $455 $456 $457 reversed $191 $-1 #
coedge $-1 $307 $193 $458 $459 reversed $121 $-1 #
coedge $-1 $193 $306 $454 $460 reversed $121 $-1 #
coedge $-1 $456 $461 $193 $309 forward $451 $-1 #
edge $-1 $462 -20.644063349180403 $463 -5.6920930750851646 $308 $464 forward 7 unknown #
loop $-1 $-1 $315 $194 #
plane-surface $-1 -0.51618186147715761 -24.82496675367333 36.655557180777862 0 0.51503808176128008 0.85716729658548041 1 0 0 forward_v I I I I #
loop $-1 $-1 $465 $123 #
coedge $-1 $313 $313 $314 $466 reversed $195 $-1 #
coedge $-1 $314 $314 $313 $466 forward $197 $-1 #
coedge $-1 $315 $315 $198 $316 forward $310 $-1 #
edge $-1 $467 -1.0717414062973767e-015 $467 6.2831853071795996 $315 $468 forward 7 unknown #
loop $-1 $-1 $322 $199 #
plane-surface $-1 -0.51618186147715761 -24.82496675367333 36.655557180777862 0 0.51503808176128008 0.85716729658548041 1 0 0 forward_v I I I I #
loop $-1 $-1 $469 $126 #
coedge $-1 $320 $320 $321 $470 reversed $200 $-1 #
coedge $-1 $321 $321 $320 $470 forward $202 $-1 #
coedge $-1 $322 $322 $203 $323 forward $317 $-1 #
edge $-1 $471 -1.0717414062973767e-015 $471 6.2831853071795996 $322 $472 forward 7 unknown #
loop $-1 $-1 $329 $204 #
plane-surface $-1 -0.51618186147715761 -24.82496675367333 36.655557180777862 0 0.51503808176128008 0.85716729658548041 1 0 0 forward_v I I I I #
loop $-1 $-1 $473 $129 #
coedge $-1 $327 $327 $328 $474 reversed $205 $-1 #
coedge $-1 $328 $328 $327 $474 forward $207 $-1 #
coedge $-1 $329 $329 $208 $330 forward $324 $-1 #
edge $-1 $475 -1.0717414062973767e-015 $475 6.2831853071795996 $329 $476 forward 7 unknown #
face $-1 $477 $478 $68 $-1 $479 reversed single #
loop $-1 $-1 $480 $209 #
plane-surface $-1 0 0 9.8418079986744438 0 0 1 1 0 0 forward_v I I I I #
coedge $-1 $481 $482 $483 $484 reversed $210 $-1 #
coedge $-1 $485 $212 $486 $487 reversed $133 $-1 #
coedge $-1 $212 $485 $481 $488 forward $133 $-1 #
coedge $-1 $483 $489 $212 $338 forward $490 $-1 #
edge $-1 $491 -28.787412100128492 $492 -16.624305036935603 $337 $493 forward 7 unknown #
loop $-1 $-1 $344 $213 #
plane-surface $-1 45.411717137064102 -24.82496675367333 36.655557180777862 0 0.51503808176128008 0.85716729658548041 1 0 0 forward_v I I I I #
loop $-1 $-1 $494 $135 #
coedge $-1 $342 $342 $343 $495 reversed $214 $-1 #
coedge $-1 $343 $343 $342 $495 forward $216 $-1 #
coedge $-1 $344 $344 $217 $345 forward $339 $-1 #
edge $-1 $496 -1.0717414062973767e-015 $496 6.2831853071795996 $344 $497 forward 7 unknown #
loop $-1 $-1 $351 $218 #
plane-surface $-1 45.411717137064102 -24.82496675367333 36.655557180777862 0 0.51503808176128008 0.85716729658548041 1 0 0 forward_v I I I I #
loop $-1 $-1 $498 $138 #
coedge $-1 $349 $349 $350 $499 reversed $219 $-1 #
coedge $-1 $350 $350 $349 $499 forward $221 $-1 #
coedge $-1 $351 $351 $222 $352 forward $346 $-1 #
edge $-1 $500 -1.0717414062973767e-015 $500 6.2831853071795996 $351 $501 forward 7 unknown #
loop $-1 $-1 $358 $223 #
plane-surface $-1 45.411717137064102 -24.82496675367333 36.655557180777862 0 0.51503808176128008 0.85716729658548041 1 0 0 forward_v I I I I #
loop $-1 $-1 $502 $141 #
coedge $-1 $356 $356 $357 $503 reversed $224 $-1 #
coedge $-1 $357 $357 $356 $503 forward $226 $-1 #
coedge $-1 $358 $358 $227 $359 forward $353 $-1 #
edge $-1 $504 -1.0717414062973767e-015 $504 6.2831853071795996 $358 $505 forward 7 unknown #
face $-1 $506 $507 $54 $-1 $508 reversed single #
loop $-1 $-1 $509 $228 #
plane-surface $-1 -51.493270668660543 0 0 1 0 0 0 0 -1 forward_v I I I I #
coedge $-1 $510 $371 $511 $512 forward $229 $-1 #
coedge $-1 $513 $231 $510 $514 forward $145 $-1 #
coedge $-1 $231 $513 $515 $516 forward $145 $-1 #
coedge $-1 $374 $373 $231 $367 reversed $375 $-1 #
edge $-1 $517 -34.752575321145052 $518 34.752575321145052 $366 $519 forward 7 unknown #
coedge $-1 $233 $232 $520 $521 forward $91 $-1 #
coedge $-1 $522 $523 $232 $370 reversed $507 $-1 #
edge $-1 $377 -51.493270668660543 $524 51.493270668660543 $369 $525 forward 7 unknown #
coedge $-1 $363 $526 $233 $372 reversed $229 $-1 #
edge $-1 $527 -51.493270668660543 $376 51.493270668660543 $371 $528 forward 7 unknown #
coedge $-1 $366 $234 $526 $529 forward $375 $-1 #
coedge $-1 $234 $366 $522 $530 reversed $375 $-1 #
loop $-1 $-1 $373 $506 #
vertex $-1 $235 $531 #
vertex $-1 $235 $532 #
straight-curve $-1 51.493270668660543 0 9.8418079986744438 0 1 0 I I #
face $-1 $533 $391 $55 $-1 $534 reversed single #
loop $-1 $-1 $535 $236 #
plane-surface $-1 -62.62401400889911 -17.903160942995115 0 1 0 0 0 0 -1 forward_v I I I I #
coedge $-1 $536 $537 $538 $539 forward $237 $-1 #
coedge $-1 $540 $239 $536 $541 forward $149 $-1 #
coedge $-1 $239 $540 $389 $542 forward $149 $-1 #
edge $-1 $392 15.068959323796166 $543 20.737362562194065 $239 $544 forward 7 unknown #
coedge $-1 $241 $240 $545 $546 forward $94 $-1 #
coedge $-1 $547 $548 $240 $388 forward $549 $-1 #
edge $-1 $550 -20.737362562194065 $393 -15.068959323796166 $387 $551 forward 7 unknown #
coedge $-1 $552 $242 $384 $542 reversed $391 $-1 #
coedge $-1 $242 $552 $547 $553 reversed $391 $-1 #
loop $-1 $-1 $242 $379 #
vertex $-1 $385 $554 #
vertex $-1 $553 $555 #
straight-curve $-1 -51.493270668660543 -15.068959323796166 0 0 0 1 I I #
face $-1 $-1 $556 $56 $-1 $557 reversed single #
loop $-1 $-1 $250 $244 #
plane-surface $-1 0 0 9.8418079986744438 0 0 1 1 0 0 forward_v I I I I #
coedge $-1 $558 $559 $560 $561 reversed $245 $-1 #
coedge $-1 $562 $247 $249 $405 forward $153 $-1 #
coedge $-1 $247 $562 $558 $563 forward $153 $-1 #
coedge $-1 $560 $250 $247 $402 forward $396 $-1 #
edge $-1 $408 -5.8234626008578694 $564 6.339644462335027 $401 $565 forward 7 unknown #
coedge $-1 $566 $567 $248 $404 forward $556 $-1 #
edge $-1 $568 -43.709468750678198 $407 -34.725418473447704 $403 $569 forward 7 unknown #
edge $-1 $408 -17.443467959704357 $568 8.2634070795339233e-015 $249 $570 forward 7 unknown #
coedge $-1 $250 $560 $566 $571 forward $396 $-1 #
vertex $-1 $251 $572 #
vertex $-1 $251 $573 #
straight-curve $-1 5.5653716701192906 -43.897283009373837 9.8418079986744402 0 1 0 I I #
coedge $-1 $410 $410 $-1 $574 reversed $254 $-1 #
edge $-1 $575 0 $575 6.2831853071796004 $255 $576 forward 7 unknown #
vertex $-1 $258 $577 #
ellipse-curve $-1 -4.1651139804350237 -27.276590184097437 5.3497828600591966 0 -0.51503808176128008 0.85716729658548041 1 0 0 1 I I #
coedge $-1 $414 $414 $-1 $578 reversed $261 $-1 #
edge $-1 $579 0 $579 6.2831853071796004 $262 $580 forward 7 unknown #
vertex $-1 $265 $581 #
ellipse-curve $-1 -0.51618186147715761 -27.276590184097437 5.3497828600591966 0 -0.51503808176128008 0.85716729658548041 1 0 0 1 I I #
coedge $-1 $418 $418 $-1 $582 reversed $268 $-1 #
edge $-1 $583 0 $583 6.2831853071796004 $269 $584 forward 7 unknown #
vertex $-1 $272 $585 #
ellipse-curve $-1 3.1327502574807085 -27.276590184097437 5.3497828600591966 0 -0.51503808176128008 0.85716729658548041 1 0 0 1 I I #
face $-1 $-1 $586 $60 $-1 $587 reversed single #
loop $-1 $-1 $428 $273 #
plane-surface $-1 0 0 9.8418079986744438 0 0 1 1 0 0 forward_v I I I I #
coedge $-1 $588 $589 $427 $590 forward $274 $-1 #
coedge $-1 $427 $276 $278 $433 reversed $172 $-1 #
coedge $-1 $276 $426 $425 $590 reversed $172 $-1 #
coedge $-1 $591 $279 $276 $429 forward $423 $-1 #
edge $-1 $436 -24.096677962324023 $592 -9.1447076882287845 $428 $593 forward 7 unknown #
coedge $-1 $278 $277 $588 $594 reversed $109 $-1 #
coedge $-1 $595 $596 $277 $432 forward $586 $-1 #
edge $-1 $597 -14.673496572970388 $435 2.7699713867339799 $431 $598 forward 7 unknown #
edge $-1 $599 -8.2634070795339233e-015 $436 17.443467959704357 $426 $600 forward 7 unknown #
coedge $-1 $279 $591 $595 $601 forward $423 $-1 #
vertex $-1 $432 $602 #
vertex $-1 $280 $603 #
straight-curve $-1 22.705858568532051 -19.800605047049814 9.8418079986744438 -1 0 0 I I #
coedge $-1 $438 $438 $-1 $604 reversed $283 $-1 #
edge $-1 $605 0 $605 6.2831853071796004 $284 $606 forward 7 unknown #
vertex $-1 $287 $607 #
ellipse-curve $-1 41.762785018106243 -27.276590184097437 5.3497828600591966 0 -0.51503808176128008 0.85716729658548041 1 0 0 1 I I #
coedge $-1 $442 $442 $-1 $608 reversed $290 $-1 #
edge $-1 $609 0 $609 6.2831853071796004 $291 $610 forward 7 unknown #
vertex $-1 $294 $611 #
ellipse-curve $-1 45.411717137064102 -27.276590184097437 5.3497828600591966 0 -0.51503808176128008 0.85716729658548041 1 0 0 1 I I #
coedge $-1 $446 $446 $-1 $612 reversed $297 $-1 #
edge $-1 $613 0 $613 6.2831853071796004 $298 $614 forward 7 unknown #
vertex $-1 $301 $615 #
ellipse-curve $-1 49.060649256021961 -27.276590184097437 5.3497828600591966 0 -0.51503808176128008 0.85716729658548041 1 0 0 1 I I #
face $-1 $-1 $616 $64 $-1 $617 reversed single #
loop $-1 $-1 $308 $302 #
plane-surface $-1 0 0 9.8418079986744438 0 0 1 1 0 0 forward_v I I I I #
coedge $-1 $618 $619 $620 $621 reversed $303 $-1 #
coedge $-1 $622 $305 $307 $460 forward $191 $-1 #
coedge $-1 $305 $622 $618 $623 forward $191 $-1 #
coedge $-1 $620 $308 $305 $457 forward $451 $-1 #
edge $-1 $463 -6.339644462335027 $624 5.8234626008578694 $456 $625 forward 7 unknown #
coedge $-1 $626 $627 $306 $459 forward $616 $-1 #
edge $-1 $628 -61.608368480345142 $462 -52.624318203114655 $458 $629 forward 7 unknown #
edge $-1 $463 52.06168268258574 $628 69.50515064229009 $307 $630 forward 7 unknown #
coedge $-1 $308 $620 $626 $631 forward $451 $-1 #
vertex $-1 $459 $632 #
vertex $-1 $309 $633 #
straight-curve $-1 -6.5977353930736058 14.108511971964649 9.8418079986744402 0 -1 0 I I #
coedge $-1 $465 $465 $-1 $634 reversed $312 $-1 #
edge $-1 $635 0 $635 6.2831853071796004 $313 $636 forward 7 unknown #
vertex $-1 $316 $637 #
ellipse-curve $-1 -4.1651139804350237 27.27659018409744 5.349782860059201 0 0.51503808176128008 0.85716729658548041 1 0 0 1 I I #
coedge $-1 $469 $469 $-1 $638 reversed $319 $-1 #
edge $-1 $639 0 $639 6.2831853071796004 $320 $640 forward 7 unknown #
vertex $-1 $323 $641 #
ellipse-curve $-1 -0.51618186147715761 27.27659018409744 5.349782860059201 0 0.51503808176128008 0.85716729658548041 1 0 0 1 I I #
coedge $-1 $473 $473 $-1 $642 reversed $326 $-1 #
edge $-1 $643 0 $643 6.2831853071796004 $327 $644 forward 7 unknown #
vertex $-1 $330 $645 #
ellipse-curve $-1 3.1327502574807085 27.27659018409744 5.349782860059201 0 0.51503808176128008 0.85716729658548041 1 0 0 1 I I #
face $-1 $-1 $490 $68 $-1 $646 reversed single #
loop $-1 $-1 $486 $331 #
plane-surface $-1 51.493270668660543 0 0 -1 0 0 0 0 1 forward_v I I I I #
coedge $-1 $647 $648 $482 $649 forward $332 $-1 #
coedge $-1 $482 $334 $336 $488 reversed $210 $-1 #
coedge $-1 $334 $481 $480 $649 reversed $210 $-1 #
coedge $-1 $650 $337 $334 $484 forward $490 $-1 #
edge $-1 $492 -61.608368480345142 $651 -52.624318203114655 $483 $652 forward 7 unknown #
coedge $-1 $336 $335 $647 $653 reversed $133 $-1 #
coedge $-1 $654 $655 $335 $487 forward $478 $-1 #
edge $-1 $656 31.982603934411067 $491 49.426071894115431 $486 $657 forward 7 unknown #
edge $-1 $658 52.06168268258574 $492 69.50515064229009 $481 $659 forward 7 unknown #
coedge $-1 $337 $650 $654 $660 forward $490 $-1 #
loop $-1 $-1 $483 $477 #
vertex $-1 $338 $661 #
vertex $-1 $338 $662 #
straight-curve $-1 22.705858568532051 34.752575321145045 0.85775772144396356 -1 0 0 I I #
coedge $-1 $494 $494 $-1 $663 reversed $341 $-1 #
edge $-1 $664 0 $664 6.2831853071796004 $342 $665 forward 7 unknown #
vertex $-1 $345 $666 #
ellipse-curve $-1 41.762785018106243 27.27659018409744 5.349782860059201 0 0.51503808176128008 0.85716729658548041 1 0 0 1 I I #
coedge $-1 $498 $498 $-1 $667 reversed $348 $-1 #
edge $-1 $668 0 $668 6.2831853071796004 $349 $669 forward 7 unknown #
vertex $-1 $352 $670 #
ellipse-curve $-1 45.411717137064102 27.27659018409744 5.349782860059201 0 0.51503808176128008 0.85716729658548041 1 0 0 1 I I #
coedge $-1 $502 $502 $-1 $671 reversed $355 $-1 #
edge $-1 $672 0 $672 6.2831853071796004 $356 $673 forward 7 unknown #
vertex $-1 $359 $674 #
ellipse-curve $-1 49.060649256021961 27.27659018409744 5.349782860059201 0 0.51503808176128008 0.85716729658548041 1 0 0 1 I I #
face $-1 $-1 $375 $54 $-1 $675 reversed single #
loop $-1 $-1 $522 $360 #
plane-surface $-1 0 34.752575321145052 0 0 -1 0 0 0 -1 forward_v I I I I #
coedge $-1 $676 $520 $523 $677 forward $361 $-1 #
coedge $-1 $526 $363 $364 $514 reversed $229 $-1 #
coedge $-1 $520 $676 $363 $512 reversed $361 $-1 #
edge $-1 $527 -9.8418079986744438 $678 9.8418079986744438 $511 $679 forward 7 unknown #
coedge $-1 $365 $364 $676 $680 forward $145 $-1 #
edge $-1 $518 -51.493270668660543 $678 51.493270668660543 $510 $681 forward 7 unknown #
coedge $-1 $523 $522 $365 $516 reversed $507 $-1 #
edge $-1 $682 -51.493270668660543 $517 51.493270668660543 $515 $683 forward 7 unknown #
vertex $-1 $367 $684 #
vertex $-1 $529 $685 #
straight-curve $-1 51.493270668660543 0 -9.8418079986744438 0 -1 0 I I #
coedge $-1 $509 $511 $368 $521 reversed $361 $-1 #
edge $-1 $524 -34.752575321145052 $527 34.752575321145052 $520 $686 forward 7 unknown #
coedge $-1 $515 $369 $374 $530 forward $507 $-1 #
coedge $-1 $369 $515 $509 $677 reversed $507 $-1 #
vertex $-1 $370 $687 #
straight-curve $-1 0 34.752575321145052 9.8418079986744438 -1 0 0 I I #
coedge $-1 $371 $510 $373 $529 reversed $229 $-1 #
vertex $-1 $521 $688 #
straight-curve $-1 0 -34.752575321145052 9.8418079986744438 1 0 0 I I #
edge $-1 $376 -9.8418079986744438 $518 9.8418079986744438 $373 $689 forward 7 unknown #
edge $-1 $377 -9.8418079986744438 $517 9.8418079986744438 $374 $690 forward 7 unknown #
point $-1 51.493270668660543 -34.752575321145052 9.8418079986744438 #
point $-1 51.493270668660543 34.752575321145052 9.8418079986744438 #
face $-1 $-1 $549 $55 $-1 $691 forward single #
plane-surface $-1 -57.058642338779826 -15.068959323796166 0 0 -1 0 0 0 -1 forward_v I I I I #
coedge $-1 $692 $693 $552 $694 forward $380 $-1 #
coedge $-1 $545 $382 $383 $541 reversed $237 $-1 #
coedge $-1 $382 $545 $548 $695 reversed $237 $-1 #
coedge $-1 $693 $692 $382 $539 reversed $380 $-1 #
edge $-1 $696 -9.8418079986744438 $697 9.8418079986744438 $538 $698 forward 7 unknown #
coedge $-1 $384 $383 $692 $699 forward $149 $-1 #
edge $-1 $543 -5.5653716701192835 $697 5.5653716701192835 $536 $700 forward 7 unknown #
edge $-1 $701 -5.5653716701192835 $392 5.5653716701192835 $389 $702 forward 7 unknown #
vertex $-1 $541 $703 #
straight-curve $-1 -51.493270668660543 0 -9.8418079986744438 0 -1 0 I I #
coedge $-1 $537 $536 $386 $546 reversed $237 $-1 #
edge $-1 $550 -9.8418079986744438 $543 9.8418079986744438 $545 $704 forward 7 unknown #
coedge $-1 $705 $387 $390 $553 forward $549 $-1 #
coedge $-1 $387 $705 $537 $695 forward $549 $-1 #
loop $-1 $-1 $387 $533 #
vertex $-1 $388 $706 #
straight-curve $-1 -51.493270668660543 0 9.8418079986744438 0 1 0 I I #
coedge $-1 $390 $389 $535 $694 reversed $391 $-1 #
edge $-1 $393 -5.5653716701192835 $707 5.5653716701192835 $390 $708 forward 7 unknown #
point $-1 -51.493270668660543 -15.068959323796166 -9.8418079986744438 #
point $-1 -51.493270668660543 -15.068959323796166 9.8418079986744438 #
loop $-1 $-1 $403 $395 #
plane-surface $-1 0 -34.752575321145052 0 0 1 0 0 0 1 forward_v I I I I #
coedge $-1 $559 $398 $400 $563 reversed $245 $-1 #
coedge $-1 $398 $558 $709 $710 reversed $245 $-1 #
coedge $-1 $406 $401 $398 $561 forward $396 $-1 #
edge $-1 $564 -24.096677962324023 $711 -9.1447076882287845 $560 $712 forward 7 unknown #
coedge $-1 $400 $399 $567 $713 reversed $153 $-1 #
edge $-1 $714 -8.2634070795339233e-015 $564 17.443467959704357 $558 $715 forward 7 unknown #
vertex $-1 $402 $716 #
straight-curve $-1 -0.25809093073857881 -19.800605047049814 9.8418079986744438 -1 0 0 I I #
coedge $-1 $709 $403 $406 $571 reversed $556 $-1 #
coedge $-1 $403 $709 $562 $713 forward $556 $-1 #
vertex $-1 $404 $717 #
straight-curve $-1 5.5653716701192906 -34.752575321145052 44.567226472122151 0 0 1 I I #
straight-curve $-1 5.5653716701192906 -34.752575321145045 0.85775772144396001 0 -0.85716729658548041 -0.51503808176128008 I I #
edge $-1 $711 -6.5977353930736058 $407 5.5653716701192906 $566 $718 forward 7 unknown #
point $-1 5.5653716701192906 -34.752575321145052 9.8418079986744438 #
point $-1 5.5653716701192906 -19.800605047049814 9.8418079986744438 #
edge $-1 $719 1 $719 0 $410 $-1 forward 7 unknown #
vertex $-1 $411 $720 #
ellipse-curve $-1 -4.1651139804350237 -26.552185750547469 4.1441714462057853 0 -0.51503808176128008 0.85716729658548041 1 0 0 1 I I #
point $-1 -3.1651139804350237 -27.276590184097444 5.3497828600592054 #
edge $-1 $721 1 $721 0 $414 $-1 forward 7 unknown #
vertex $-1 $415 $722 #
ellipse-curve $-1 -0.51618186147715761 -26.552185750547469 4.1441714462057853 0 -0.51503808176128008 0.85716729658548041 1 0 0 1 I I #
point $-1 0.48381813852284239 -27.276590184097444 5.3497828600592054 #
edge $-1 $723 1 $723 0 $418 $-1 forward 7 unknown #
vertex $-1 $419 $724 #
ellipse-curve $-1 3.1327502574807085 -26.552185750547469 4.1441714462057853 0 -0.51503808176128008 0.85716729658548041 1 0 0 1 I I #
point $-1 4.1327502574807085 -27.276590184097444 5.3497828600592054 #
loop $-1 $-1 $431 $422 #
plane-surface $-1 51.493270668660543 0 0 -1 0 0 0 0 1 forward_v I I I I #
coedge $-1 $725 $425 $430 $594 forward $274 $-1 #
coedge $-1 $425 $725 $591 $726 reversed $274 $-1 #
edge $-1 $592 34.725418473447704 $599 43.709468750678198 $425 $727 forward 7 unknown #
coedge $-1 $434 $428 $589 $726 forward $423 $-1 #
vertex $-1 $726 $728 #
straight-curve $-1 39.330163605467654 -43.897283009373837 9.8418079986744402 0 -1 0 I I #
edge $-1 $599 16.624305036935603 $597 28.787412100128499 $588 $729 forward 7 unknown #
coedge $-1 $596 $431 $434 $601 reversed $586 $-1 #
coedge $-1 $431 $595 $725 $730 forward $586 $-1 #
vertex $-1 $594 $731 #
straight-curve $-1 51.493270668660543 -22.174933932235714 8.4151672491173422 0 0.85716729658548041 0.51503808176128008 I I #
vertex $-1 $594 $732 #
straight-curve $-1 39.330163605467654 -34.752575321145045 0.85775772144396001 0 0.85716729658548041 0.51503808176128008 I I #
edge $-1 $733 -34.752575321145052 $435 -19.800605047049814 $595 $734 forward 7 unknown #
point $-1 51.49327066866055 -19.800605047049814 9.8418079986744438 #
point $-1 39.330163605467654 -19.800605047049814 9.8418079986744438 #
edge $-1 $735 1 $735 0 $438 $-1 forward 7 unknown #
vertex $-1 $439 $736 #
ellipse-curve $-1 41.762785018106243 -26.552185750547469 4.1441714462057853 0 -0.51503808176128008 0.85716729658548041 1 0 0 1 I I #
point $-1 42.762785018106243 -27.276590184097444 5.3497828600592054 #
edge $-1 $737 1 $737 0 $442 $-1 forward 7 unknown #
vertex $-1 $443 $738 #
ellipse-curve $-1 45.411717137064102 -26.552185750547469 4.1441714462057853 0 -0.51503808176128008 0.85716729658548041 1 0 0 1 I I #
point $-1 46.411717137064102 -27.276590184097444 5.3497828600592054 #
edge $-1 $739 1 $739 0 $446 $-1 forward 7 unknown #
vertex $-1 $447 $740 #
ellipse-curve $-1 49.060649256021961 -26.552185750547469 4.1441714462057853 0 -0.51503808176128008 0.85716729658548041 1 0 0 1 I I #
point $-1 50.060649256021961 -27.276590184097444 5.3497828600592054 #
loop $-1 $-1 $458 $450 #
plane-surface $-1 0 34.752575321145052 0 0 -1 0 0 0 -1 forward_v I I I I #
coedge $-1 $619 $453 $455 $623 reversed $303 $-1 #
coedge $-1 $453 $618 $741 $742 reversed $303 $-1 #
coedge $-1 $461 $456 $453 $621 forward $451 $-1 #
edge $-1 $624 5.6920930750851646 $743 20.644063349180403 $620 $744 forward 7 unknown #
coedge $-1 $455 $454 $627 $745 reversed $191 $-1 #
edge $-1 $746 -69.50515064229009 $624 -52.06168268258574 $618 $747 forward 7 unknown #
vertex $-1 $457 $748 #
straight-curve $-1 -0.25809093073857881 19.800605047049817 9.8418079986744438 1 0 0 I I #
coedge $-1 $741 $458 $461 $631 reversed $616 $-1 #
coedge $-1 $458 $741 $622 $745 forward $616 $-1 #
vertex $-1 $459 $749 #
straight-curve $-1 -6.5977353930736058 34.752575321145052 62.466126201789102 0 0 1 I I #
straight-curve $-1 -6.5977353930736058 -24.82496675367333 36.655557180777862 0 0.85716729658548041 -0.51503808176128008 I I #
edge $-1 $743 -5.5653716701192906 $462 6.5977353930736058 $626 $750 forward 7 unknown #
point $-1 -6.5977353930736058 34.752575321145052 9.8418079986744438 #
point $-1 -6.5977353930736058 19.800605047049814 9.8418079986744438 #
edge $-1 $751 1 $751 0 $465 $-1 forward 7 unknown #
vertex $-1 $466 $752 #
ellipse-curve $-1 -4.1651139804350237 26.552185750547469 4.1441714462057888 0 0.51503808176128008 0.85716729658548041 1 0 0 1 I I #
point $-1 -3.1651139804350237 27.276590184097444 5.349782860059209 #
edge $-1 $753 1 $753 0 $469 $-1 forward 7 unknown #
vertex $-1 $470 $754 #
ellipse-curve $-1 -0.51618186147715761 26.552185750547469 4.1441714462057888 0 0.51503808176128008 0.85716729658548041 1 0 0 1 I I #
point $-1 0.48381813852284239 27.276590184097444 5.349782860059209 #
edge $-1 $755 1 $755 0 $473 $-1 forward 7 unknown #
vertex $-1 $474 $756 #
ellipse-curve $-1 3.1327502574807085 26.552185750547469 4.1441714462057888 0 0.51503808176128008 0.85716729658548041 1 0 0 1 I I #
point $-1 4.1327502574807085 27.276590184097444 5.349782860059209 #
plane-surface $-1 0 34.752575321145052 0 0 -1 0 0 0 -1 forward_v I I I I #
coedge $-1 $757 $480 $485 $653 forward $332 $-1 #
coedge $-1 $480 $757 $650 $758 forward $332 $-1 #
edge $-1 $651 -20.644063349180403 $658 -5.6920930750851646 $480 $759 forward 7 unknown #
coedge $-1 $489 $483 $648 $758 reversed $490 $-1 #
vertex $-1 $484 $760 #
straight-curve $-1 39.330163605467654 34.752575321145052 62.466126201789102 0 0 1 I I #
edge $-1 $658 16.624305036935603 $656 28.787412100128499 $647 $761 forward 7 unknown #
coedge $-1 $655 $486 $489 $660 reversed $478 $-1 #
coedge $-1 $486 $654 $757 $762 reversed $478 $-1 #
vertex $-1 $762 $763 #
straight-curve $-1 51.493270668660543 -7.6138371051734737 26.314066978784293 0 0.85716729658548041 -0.51503808176128008 I I #
vertex $-1 $653 $764 #
straight-curve $-1 39.330163605467654 -24.82496675367333 36.655557180777862 0 0.85716729658548041 -0.51503808176128008 I I #
edge $-1 $765 -9.8418079986744438 $491 -0.85775772144396245 $654 $766 forward 7 unknown #
point $-1 51.493270668660543 34.752575321145052 0.85775772144396245 #
point $-1 39.330163605467654 34.752575321145045 0.85775772144396001 #
edge $-1 $767 1 $767 0 $494 $-1 forward 7 unknown #
vertex $-1 $495 $768 #
ellipse-curve $-1 41.762785018106243 26.552185750547469 4.1441714462057888 0 0.51503808176128008 0.85716729658548041 1 0 0 1 I I #
point $-1 42.762785018106243 27.276590184097444 5.349782860059209 #
edge $-1 $769 1 $769 0 $498 $-1 forward 7 unknown #
vertex $-1 $499 $770 #
ellipse-curve $-1 45.411717137064102 26.552185750547469 4.1441714462057888 0 0.51503808176128008 0.85716729658548041 1 0 0 1 I I #
point $-1 46.411717137064102 27.276590184097444 5.349782860059209 #
edge $-1 $771 1 $771 0 $502 $-1 forward 7 unknown #
vertex $-1 $503 $772 #
ellipse-curve $-1 49.060649256021961 26.552185750547469 4.1441714462057888 0 0.51503808176128008 0.85716729658548041 1 0 0 1 I I #
point $-1 50.060649256021961 27.276590184097444 5.349782860059209 #
plane-surface $-1 51.493270668660543 0 0 -1 0 0 0 0 1 forward_v I I I I #
coedge $-1 $511 $509 $513 $680 reversed $361 $-1 #
edge $-1 $524 -9.8418079986744438 $682 9.8418079986744438 $523 $773 forward 7 unknown #
vertex $-1 $680 $774 #
straight-curve $-1 -51.493270668660543 -34.752575321145052 0 0 0 -1 I I #
edge $-1 $678 -34.752575321145052 $682 34.752575321145052 $676 $775 forward 7 unknown #
straight-curve $-1 0 -34.752575321145052 -9.8418079986744438 -1 0 0 I I #
vertex $-1 $516 $776 #
straight-curve $-1 0 34.752575321145052 -9.8418079986744438 1 0 0 I I #
point $-1 51.493270668660543 34.752575321145052 -9.8418079986744438 #
point $-1 51.493270668660543 -34.752575321145052 -9.8418079986744438 #
straight-curve $-1 -51.493270668660543 0 9.8418079986744438 0 -1 0 I I #
point $-1 -51.493270668660543 34.752575321145052 9.8418079986744438 #
point $-1 -51.493270668660543 -34.752575321145052 9.8418079986744438 #
straight-curve $-1 51.493270668660543 -34.752575321145052 0 0 0 -1 I I #
straight-curve $-1 51.493270668660543 34.752575321145052 0 0 0 -1 I I #
plane-surface $-1 0 0 9.8418079986744438 0 0 1 1 0 0 forward_v I I I I #
coedge $-1 $538 $535 $540 $699 reversed $380 $-1 #
coedge $-1 $535 $538 $705 $777 reversed $380 $-1 #
edge $-1 $707 -9.8418079986744438 $701 9.8418079986744438 $552 $778 forward 7 unknown #
edge $-1 $696 -5.5653716701192835 $550 5.5653716701192835 $537 $779 forward 7 unknown #
vertex $-1 $777 $780 #
vertex $-1 $699 $781 #
straight-curve $-1 -62.62401400889911 -20.737362562194065 0 0 0 -1 I I #
edge $-1 $697 -2.8342016191989501 $701 2.8342016191989483 $692 $782 forward 7 unknown #
straight-curve $-1 -57.058642338779826 -20.737362562194065 -9.8418079986744438 -1 0 0 I I #
vertex $-1 $542 $783 #
straight-curve $-1 -57.058642338779826 -15.068959323796166 -9.8418079986744438 1 0 0 I I #
point $-1 -51.493270668660543 -20.737362562194065 -9.8418079986744438 #
straight-curve $-1 -51.493270668660543 -20.737362562194065 0 0 0 -1 I I #
coedge $-1 $548 $547 $693 $777 forward $549 $-1 #
point $-1 -51.493270668660543 -20.737362562194065 9.8418079986744438 #
vertex $-1 $553 $784 #
straight-curve $-1 -57.058642338779826 -15.068959323796166 9.8418079986744438 -1 0 0 I I #
coedge $-1 $567 $566 $559 $710 forward $556 $-1 #
edge $-1 $711 34.725418473447704 $714 43.709468750678198 $709 $785 forward 7 unknown #
vertex $-1 $571 $786 #
straight-curve $-1 -6.5977353930736058 -43.897283009373837 9.8418079986744402 0 -1 0 I I #
edge $-1 $714 -6.339644462335027 $568 5.8234626008578694 $567 $787 forward 7 unknown #
vertex $-1 $713 $788 #
straight-curve $-1 -6.5977353930736058 -34.752575321145045 0.85775772144396001 0 0.85716729658548041 0.51503808176128008 I I #
point $-1 -6.5977353930736058 -19.800605047049814 9.8418079986744438 #
point $-1 5.5653716701192906 -34.752575321145052 0.85775772144395579 #
straight-curve $-1 0 -34.752575321145052 9.8418079986744438 1 0 0 I I #
vertex $-1 $574 $789 #
point $-1 -3.1651139804350237 -26.552185750547469 4.1441714462057853 #
vertex $-1 $578 $790 #
point $-1 0.48381813852284239 -26.552185750547469 4.1441714462057853 #
vertex $-1 $582 $791 #
point $-1 4.1327502574807085 -26.552185750547469 4.1441714462057853 #
coedge $-1 $589 $588 $596 $730 reversed $274 $-1 #
edge $-1 $592 39.330163605467654 $733 51.493270668660543 $589 $792 forward 7 unknown #
straight-curve $-1 39.330163605467654 -34.752575321145052 44.567226472122151 0 0 -1 I I #
point $-1 39.330163605467654 -34.752575321145052 9.8418079986744438 #
straight-curve $-1 22.705858568532051 -34.752575321145052 0.8577577214439529 1 0 0 I I #
edge $-1 $733 -9.8418079986744438 $597 -0.85775772144395579 $596 $793 forward 7 unknown #
point $-1 51.49327066866055 -34.752575321145052 0.85775772144395579 #
point $-1 39.330163605467654 -34.752575321145052 0.85775772144395579 #
vertex $-1 $601 $794 #
straight-curve $-1 51.493270668660543 0 9.8418079986744438 0 1 0 I I #
vertex $-1 $604 $795 #
point $-1 42.762785018106243 -26.552185750547469 4.1441714462057853 #
vertex $-1 $608 $796 #
point $-1 46.411717137064102 -26.552185750547469 4.1441714462057853 #
vertex $-1 $612 $797 #
point $-1 50.060649256021961 -26.552185750547469 4.1441714462057853 #
coedge $-1 $627 $626 $619 $742 forward $616 $-1 #
edge $-1 $743 52.624318203114655 $746 61.608368480345142 $741 $798 forward 7 unknown #
vertex $-1 $631 $799 #
straight-curve $-1 5.5653716701192906 14.108511971964649 9.8418079986744402 0 1 0 I I #
edge $-1 $746 -5.8234626008578694 $628 6.339644462335027 $627 $800 forward 7 unknown #
vertex $-1 $745 $801 #
straight-curve $-1 5.5653716701192906 -24.82496675367333 36.655557180777862 0 -0.85716729658548041 0.51503808176128008 I I #
point $-1 5.5653716701192906 19.800605047049814 9.8418079986744438 #
point $-1 -6.5977353930736058 34.752575321145045 0.85775772144396001 #
straight-curve $-1 0 34.752575321145052 9.8418079986744438 -1 0 0 I I #
vertex $-1 $634 $802 #
point $-1 -3.1651139804350237 26.552185750547469 4.1441714462057888 #
vertex $-1 $638 $803 #
point $-1 0.48381813852284239 26.552185750547469 4.1441714462057888 #
vertex $-1 $642 $804 #
point $-1 4.1327502574807085 26.552185750547469 4.1441714462057888 #
coedge $-1 $648 $647 $655 $762 forward $332 $-1 #
edge $-1 $765 -51.493270668660543 $651 -39.330163605467654 $650 $805 forward 7 unknown #
straight-curve $-1 39.330163605467654 14.108511971964649 9.8418079986744402 0 -1 0 I I #
point $-1 39.330163605467654 34.752575321145052 9.8418079986744438 #
straight-curve $-1 22.705858568532051 19.800605047049817 9.8418079986744438 1 0 0 I I #
edge $-1 $656 19.800605047049814 $765 34.752575321145052 $655 $806 forward 7 unknown #
point $-1 51.49327066866055 19.800605047049814 9.8418079986744438 #
point $-1 39.330163605467654 19.800605047049814 9.8418079986744438 #
vertex $-1 $762 $807 #
straight-curve $-1 51.493270668660543 34.752575321145052 0 0 0 -1 I I #
vertex $-1 $663 $808 #
point $-1 42.762785018106243 26.552185750547469 4.1441714462057888 #
vertex $-1 $667 $809 #
point $-1 46.411717137064102 26.552185750547469 4.1441714462057888 #
vertex $-1 $671 $810 #
point $-1 50.060649256021961 26.552185750547469 4.1441714462057888 #
straight-curve $-1 -51.493270668660543 34.752575321145052 0 0 0 -1 I I #
point $-1 -51.493270668660543 -34.752575321145052 -9.8418079986744438 #
straight-curve $-1 -51.493270668660543 0 -9.8418079986744438 0 1 0 I I #
point $-1 -51.493270668660543 34.752575321145052 -9.8418079986744438 #
edge $-1 $707 -2.8342016191989483 $696 2.8342016191989501 $693 $811 forward 7 unknown #
straight-curve $-1 -62.62401400889911 -15.068959323796166 0 0 0 -1 I I #
straight-curve $-1 -57.058642338779826 -20.737362562194065 9.8418079986744438 1 0 0 I I #
point $-1 -62.62401400889911 -20.737362562194065 9.8418079986744438 #
point $-1 -62.62401400889911 -20.737362562194065 -9.8418079986744438 #
straight-curve $-1 -62.62401400889911 -17.903160942995115 -9.8418079986744438 0 1 0 I I #
point $-1 -62.62401400889911 -15.068959323796166 -9.8418079986744438 #
point $-1 -62.62401400889911 -15.068959323796166 9.8418079986744438 #
straight-curve $-1 -6.5977353930736058 -34.752575321145052 44.567226472122151 0 0 -1 I I #
point $-1 -6.5977353930736058 -34.752575321145052 9.8418079986744438 #
straight-curve $-1 -0.25809093073857881 -34.752575321145052 0.8577577214439529 1 0 0 I I #
point $-1 -6.5977353930736058 -34.752575321145052 0.85775772144395579 #
point $-1 -4.1651139804350237 -26.037147668786186 3.2870041496203051 #
point $-1 -0.51618186147715761 -26.037147668786186 3.2870041496203051 #
point $-1 3.1327502574807085 -26.037147668786186 3.2870041496203051 #
straight-curve $-1 0 -34.752575321145052 9.8418079986744438 1 0 0 I I #
straight-curve $-1 51.493270668660543 -34.752575321145052 0 0 0 -1 I I #
point $-1 51.493270668660543 -34.752575321145052 9.8418079986744438 #
point $-1 41.762785018106243 -26.037147668786186 3.2870041496203051 #
point $-1 45.411717137064102 -26.037147668786186 3.2870041496203051 #
point $-1 49.060649256021961 -26.037147668786186 3.2870041496203051 #
straight-curve $-1 5.5653716701192906 34.752575321145052 62.466126201789102 0 0 -1 I I #
point $-1 5.5653716701192906 34.752575321145052 9.8418079986744438 #
straight-curve $-1 -0.25809093073857881 34.752575321145045 0.85775772144396356 -1 0 0 I I #
point $-1 5.5653716701192906 34.752575321145045 0.85775772144396001 #
point $-1 -4.1651139804350237 26.037147668786186 3.2870041496203086 #
point $-1 -0.51618186147715761 26.037147668786186 3.2870041496203086 #
point $-1 3.1327502574807085 26.037147668786186 3.2870041496203086 #
straight-curve $-1 0 34.752575321145052 9.8418079986744438 -1 0 0 I I #
straight-curve $-1 51.493270668660543 0 9.8418079986744438 0 1 0 I I #
point $-1 51.493270668660543 34.752575321145052 9.8418079986744438 #
point $-1 41.762785018106243 26.037147668786186 3.2870041496203086 #
point $-1 45.411717137064102 26.037147668786186 3.2870041496203086 #
point $-1 49.060649256021961 26.037147668786186 3.2870041496203086 #
straight-curve $-1 -62.62401400889911 -17.903160942995115 9.8418079986744438 0 -1 0 I I #
End-of-ACIS-data 