500 0 10 0           
7 Unknown 11 ACIS 5.0 NT 24 Fri Mar 26 18:55:28 1999 
-1 9.9999999999999995e-007 1e-010 
body $-1 $10 $-1 $11 #
body $-1 $12 $-1 $13 #
body $-1 $14 $-1 $15 #
body $-1 $16 $-1 $17 #
body $-1 $18 $-1 $19 #
body $-1 $20 $-1 $21 #
body $-1 $22 $-1 $23 #
body $-1 $24 $-1 $25 #
body $-1 $26 $-1 $27 #
body $-1 $28 $-1 $29 #
lump $-1 $-1 $30 $0 #
transform $-1 1 0 0 0 1 0 0 0 1 59.279152806176945 36.457755397073875 15.095248672372845 1 rotate no_reflect no_shear #
lump $-1 $-1 $31 $1 #
transform $-1 1 0 0 0 1 0 0 0 1 59.279152806176945 36.457755397073875 15.095248672372845 1 rotate no_reflect no_shear #
lump $-1 $-1 $32 $2 #
transform $-1 1 0 0 0 1 0 0 0 1 59.279152806176945 36.457755397073875 15.095248672372845 1 rotate no_reflect no_shear #
lump $-1 $-1 $33 $3 #
transform $-1 1 0 0 0 1 0 0 0 1 59.279152806176945 36.457755397073875 15.095248672372845 1 rotate no_reflect no_shear #
lump $-1 $-1 $34 $4 #
transform $-1 1 0 0 0 1 0 0 0 1 59.279152806176945 36.457755397073875 15.095248672372845 1 rotate no_reflect no_shear #
lump $-1 $-1 $35 $5 #
transform $-1 1 0 0 0 1 0 0 0 1 59.279152806176945 36.457755397073875 15.095248672372845 1 rotate no_reflect no_shear #
lump $-1 $-1 $36 $6 #
transform $-1 1 0 0 0 1 0 0 0 1 59.279152806176945 36.457755397073875 15.095248672372845 1 rotate no_reflect no_shear #
lump $-1 $-1 $37 $7 #
transform $-1 1 0 0 0 1 0 0 0 1 59.279152806176945 36.457755397073875 15.095248672372845 1 rotate no_reflect no_shear #
lump $-1 $-1 $38 $8 #
transform $-1 1 0 0 0 1 0 0 0 1 59.279152806176945 36.457755397073875 15.095248672372845 1 rotate no_reflect no_shear #
lump $-1 $-1 $39 $9 #
transform $-1 1 0 0 0 1 0 0 0 1 59.279152806176945 36.457755397073875 15.095248672372845 1 rotate no_reflect no_shear #
shell $-1 $-1 $-1 $40 $-1 $10 #
shell $-1 $-1 $-1 $41 $-1 $12 #
shell $-1 $-1 $-1 $42 $-1 $14 #
shell $-1 $-1 $-1 $43 $-1 $16 #
shell $-1 $-1 $-1 $44 $-1 $18 #
shell $-1 $-1 $-1 $45 $-1 $20 #
shell $-1 $-1 $-1 $46 $-1 $22 #
shell $-1 $-1 $-1 $47 $-1 $24 #
shell $-1 $-1 $-1 $48 $-1 $26 #
shell $-1 $-1 $-1 $49 $-1 $28 #
face $-1 $50 $51 $30 $-1 $52 forward single #
face $-1 $53 $54 $31 $-1 $55 forward single #
face $-1 $56 $57 $32 $-1 $58 forward single #
face $-1 $59 $60 $33 $-1 $61 reversed single #
face $-1 $62 $63 $34 $-1 $64 forward single #
face $-1 $65 $66 $35 $-1 $67 forward single #
face $-1 $68 $69 $36 $-1 $70 reversed single #
face $-1 $71 $72 $37 $-1 $73 forward single #
face $-1 $74 $75 $38 $-1 $76 forward single #
face $-1 $77 $78 $39 $-1 $79 forward single #
face $-1 $80 $81 $30 $-1 $82 reversed single #
loop $-1 $-1 $83 $40 #
plane-surface $-1 0 0 15.095248672372845 0 0 1 1 0 0 forward_v I I I I #
face $-1 $84 $85 $31 $-1 $86 reversed single #
loop $-1 $-1 $87 $41 #
plane-surface $-1 0 -36.457755397073875 0 0 1 0 0 0 1 forward_v I I I I #
face $-1 $88 $89 $32 $-1 $90 reversed single #
loop $-1 $-1 $91 $42 #
plane-surface $-1 0 29.603668525831559 10.807014684515325 0 0 1 1 0 0 forward_v I I I I #
face $-1 $92 $93 $33 $-1 $94 reversed single #
loop $-1 $-1 $95 $43 #
plane-surface $-1 -59.279152806176967 19.352584387269751 8.2492940253971483 -0.75470958851134928 0 0.65605901945558964 0.65605901945558964 0 0.75470958851134928 forward_v I I I I #
face $-1 $96 $97 $34 $-1 $98 forward single #
loop $-1 $99 $100 $44 #
cone-surface $-1 -55.787506601791783 17.896728415561398 11.223634657588988 0.75470958851134928 0 -0.65605901945558964 0.32802950972779482 0 0.37735479425567464 1 I I 0 1 0.5 forward I I I I #
face $-1 $101 $102 $35 $-1 $103 forward single #
loop $-1 $104 $105 $45 #
cone-surface $-1 -55.787506601791783 20.80844035897811 11.223634657588988 0.75470958851134928 0 -0.65605901945558964 0.32802950972779482 0 0.37735479425567464 1 I I 0 1 0.5 forward I I I I #
face $-1 $106 $107 $36 $-1 $108 reversed single #
loop $-1 $-1 $109 $46 #
plane-surface $-1 79.712593443910094 17.205429280950568 169.67124174551623 0 -1 0 -0.78801076186113728 0 -0.61566146476048833 forward_v I I I I #
face $-1 $110 $111 $37 $-1 $112 forward single #
loop $-1 $113 $114 $47 #
cone-surface $-1 54.259542973770884 10.441220034896709 8.866914064874301 -0.78801076186113728 0 -0.61566146476048833 0.15391536619012208 0 -0.19700269046528432 1 I I 0 1 0.25 forward I I I I #
face $-1 $115 $116 $38 $-1 $117 forward single #
loop $-1 $118 $119 $48 #
cone-surface $-1 54.259542973770884 12.977798502166905 8.866914064874301 -0.78801076186113728 0 -0.61566146476048833 0.15391536619012208 0 -0.19700269046528432 1 I I 0 1 0.25 forward I I I I #
face $-1 $120 $121 $39 $-1 $122 forward single #
loop $-1 $123 $124 $49 #
cone-surface $-1 54.259542973770884 15.514376969437102 8.866914064874301 -0.78801076186113728 0 -0.61566146476048833 0.15391536619012208 0 -0.19700269046528432 1 I I 0 1 0.25 forward I I I I #
face $-1 $125 $126 $30 $-1 $127 reversed single #
loop $-1 $-1 $128 $50 #
plane-surface $-1 0 0 -15.095248672372845 0 0 1 1 0 0 forward_v I I I I #
coedge $-1 $129 $130 $131 $132 forward $51 $-1 #
face $-1 $133 $134 $31 $-1 $135 forward single #
loop $-1 $-1 $136 $53 #
plane-surface $-1 -59.279152806176945 0 0 1 0 0 0 0 -1 forward_v I I I I #
coedge $-1 $137 $138 $139 $140 forward $54 $-1 #
face $-1 $141 $142 $32 $-1 $143 reversed single #
loop $-1 $-1 $144 $56 #
plane-surface $-1 0 29.603668525831559 4.8637240835362281 0 0 1 1 0 0 forward_v I I I I #
coedge $-1 $145 $146 $147 $148 reversed $57 $-1 #
face $-1 $149 $150 $33 $-1 $151 forward single #
loop $-1 $-1 $152 $59 #
plane-surface $-1 -148.75624284947935 15.955587119950255 86.030539753754169 0 1 0 -0.75470958851134928 0 0.65605901945558964 forward_v I I I I #
coedge $-1 $153 $154 $155 $156 reversed $60 $-1 #
face $-1 $-1 $157 $34 $-1 $158 forward single #
loop $-1 $159 $160 $62 #
cone-surface $-1 -55.082731715508061 17.896728415561398 10.610983211429085 0.75470958851134928 0 -0.65605901945558964 0.16401475486389741 0 0.18867739712783732 1 I I -0.70710678118654746 0.70710678118654746 0.25 forward I I I I #
loop $-1 $-1 $161 $44 #
coedge $-1 $100 $100 $162 $163 reversed $63 $-1 #
face $-1 $-1 $164 $35 $-1 $165 forward single #
loop $-1 $166 $167 $65 #
cone-surface $-1 -55.082731715508061 20.80844035897811 10.610983211429085 0.75470958851134928 0 -0.65605901945558964 0.16401475486389741 0 0.18867739712783732 1 I I -0.70710678118654746 0.70710678118654746 0.25 forward I I I I #
loop $-1 $-1 $168 $45 #
coedge $-1 $105 $105 $169 $170 reversed $66 $-1 #
face $-1 $171 $172 $36 $-1 $173 reversed single #
loop $-1 $-1 $174 $68 #
plane-surface $-1 -13.712627286646438 12.977798502166905 96.679461652692808 0.78801076186113728 0 0.61566146476048833 0.61566146476048833 0 -0.78801076186113728 forward_v I I I I #
coedge $-1 $175 $176 $177 $178 reversed $69 $-1 #
face $-1 $-1 $179 $37 $-1 $180 forward single #
loop $-1 $181 $182 $71 #
cone-surface $-1 53.76703624760767 10.441220034896709 8.4821256493989967 -0.78801076186113728 0 -0.61566146476048833 0.076957683095061041 0 -0.09850134523264216 1 I I -0.70710678118654746 0.70710678118654746 0.125 forward I I I I #
loop $-1 $-1 $183 $47 #
coedge $-1 $114 $114 $184 $185 reversed $72 $-1 #
face $-1 $-1 $186 $38 $-1 $187 forward single #
loop $-1 $188 $189 $74 #
cone-surface $-1 53.76703624760767 12.977798502166905 8.4821256493989967 -0.78801076186113728 0 -0.61566146476048833 0.076957683095061041 0 -0.09850134523264216 1 I I -0.70710678118654746 0.70710678118654746 0.125 forward I I I I #
loop $-1 $-1 $190 $48 #
coedge $-1 $119 $119 $191 $192 reversed $75 $-1 #
face $-1 $-1 $193 $39 $-1 $194 forward single #
loop $-1 $195 $196 $77 #
cone-surface $-1 53.76703624760767 15.514376969437102 8.4821256493989967 -0.78801076186113728 0 -0.61566146476048833 0.076957683095061041 0 -0.09850134523264216 1 I I -0.70710678118654746 0.70710678118654746 0.125 forward I I I I #
loop $-1 $-1 $197 $49 #
coedge $-1 $124 $124 $198 $199 reversed $78 $-1 #
face $-1 $200 $201 $30 $-1 $202 reversed single #
loop $-1 $-1 $203 $80 #
plane-surface $-1 0 -36.457755397073875 0 0 1 0 0 0 1 forward_v I I I I #
coedge $-1 $204 $205 $206 $207 forward $81 $-1 #
coedge $-1 $208 $83 $209 $210 forward $51 $-1 #
coedge $-1 $83 $208 $211 $212 forward $51 $-1 #
coedge $-1 $213 $214 $83 $132 reversed $215 $-1 #
edge $-1 $216 -36.457755397073875 $217 36.457755397073875 $131 $218 forward 7 unknown #
face $-1 $219 $220 $31 $-1 $221 reversed single #
loop $-1 $-1 $222 $84 #
plane-surface $-1 0 -46.228914884161753 -5.9891281889072987 0 0 1 1 0 0 forward_v I I I I #
coedge $-1 $223 $224 $138 $225 forward $85 $-1 #
coedge $-1 $226 $87 $227 $228 reversed $54 $-1 #
coedge $-1 $87 $226 $136 $225 reversed $54 $-1 #
coedge $-1 $229 $222 $87 $140 reversed $134 $-1 #
edge $-1 $230 -59.279152806176945 $231 59.279152806176945 $139 $232 forward 7 unknown #
face $-1 $233 $234 $32 $-1 $235 reversed single #
loop $-1 $-1 $236 $88 #
plane-surface $-1 0 22.749581654589246 7.8353693840257765 0 1 0 0 0 1 forward_v I I I I #
coedge $-1 $237 $238 $239 $240 reversed $89 $-1 #
coedge $-1 $241 $91 $242 $243 reversed $57 $-1 #
coedge $-1 $91 $241 $244 $245 forward $57 $-1 #
coedge $-1 $246 $247 $91 $148 forward $234 $-1 #
edge $-1 $248 -21.655921134158088 $249 -7.9477473916734667 $147 $250 forward 7 unknown #
face $-1 $251 $252 $33 $-1 $253 reversed single #
loop $-1 $-1 $254 $92 #
plane-surface $-1 0 22.749581654589246 7.8353693840257765 0 1 0 0 0 1 forward_v I I I I #
coedge $-1 $255 $256 $257 $258 reversed $93 $-1 #
coedge $-1 $259 $95 $254 $260 reversed $60 $-1 #
coedge $-1 $95 $259 $255 $261 forward $60 $-1 #
coedge $-1 $257 $262 $95 $156 forward $252 $-1 #
edge $-1 $263 -13.073289460954371 $264 -6.2792949263153801 $155 $265 forward 7 unknown #
loop $-1 $-1 $162 $96 #
plane-surface $-1 -59.279152806176967 19.352584387269751 8.2492940253971483 -0.75470958851134928 0 0.65605901945558964 0.65605901945558964 0 0.75470958851134928 forward_v I I I I #
loop $-1 $-1 $266 $62 #
coedge $-1 $160 $160 $161 $267 reversed $97 $-1 #
coedge $-1 $161 $161 $160 $267 forward $99 $-1 #
coedge $-1 $162 $162 $100 $163 forward $157 $-1 #
edge $-1 $268 0 $268 6.2831853071796004 $162 $269 forward 7 unknown #
loop $-1 $-1 $169 $101 #
plane-surface $-1 -59.279152806176967 19.352584387269751 8.2492940253971483 -0.75470958851134928 0 0.65605901945558964 0.65605901945558964 0 0.75470958851134928 forward_v I I I I #
loop $-1 $-1 $270 $65 #
coedge $-1 $167 $167 $168 $271 reversed $102 $-1 #
coedge $-1 $168 $168 $167 $271 forward $104 $-1 #
coedge $-1 $169 $169 $105 $170 forward $164 $-1 #
edge $-1 $272 0 $272 6.2831853071796004 $169 $273 forward 7 unknown #
face $-1 $274 $275 $36 $-1 $276 forward single #
loop $-1 $-1 $277 $106 #
plane-surface $-1 79.712593443910094 8.7501677233832424 169.67124174551623 0 1 0 0.78801076186113728 0 0.61566146476048833 forward_v I I I I #
coedge $-1 $278 $279 $280 $281 reversed $107 $-1 #
coedge $-1 $176 $109 $282 $283 reversed $69 $-1 #
coedge $-1 $109 $175 $278 $284 reversed $69 $-1 #
coedge $-1 $280 $285 $109 $178 forward $275 $-1 #
edge $-1 $286 -19.422856084221898 $287 -10.171647181270949 $177 $288 forward 7 unknown #
loop $-1 $-1 $184 $110 #
plane-surface $-1 -13.712627286646438 12.977798502166905 96.679461652692808 0.78801076186113728 0 0.61566146476048833 0.61566146476048833 0 -0.78801076186113728 forward_v I I I I #
loop $-1 $-1 $289 $71 #
coedge $-1 $182 $182 $183 $290 reversed $111 $-1 #
coedge $-1 $183 $183 $182 $290 forward $113 $-1 #
coedge $-1 $184 $184 $114 $185 forward $179 $-1 #
edge $-1 $291 0 $291 6.2831853071796004 $184 $292 forward 7 unknown #
loop $-1 $-1 $191 $115 #
plane-surface $-1 -13.712627286646438 12.977798502166905 96.679461652692808 0.78801076186113728 0 0.61566146476048833 0.61566146476048833 0 -0.78801076186113728 forward_v I I I I #
loop $-1 $-1 $293 $74 #
coedge $-1 $189 $189 $190 $294 reversed $116 $-1 #
coedge $-1 $190 $190 $189 $294 forward $118 $-1 #
coedge $-1 $191 $191 $119 $192 forward $186 $-1 #
edge $-1 $295 0 $295 6.2831853071796004 $191 $296 forward 7 unknown #
loop $-1 $-1 $198 $120 #
plane-surface $-1 -13.712627286646438 12.977798502166905 96.679461652692808 0.78801076186113728 0 0.61566146476048833 0.61566146476048833 0 -0.78801076186113728 forward_v I I I I #
loop $-1 $-1 $297 $77 #
coedge $-1 $196 $196 $197 $298 reversed $121 $-1 #
coedge $-1 $197 $197 $196 $298 forward $123 $-1 #
coedge $-1 $198 $198 $124 $199 forward $193 $-1 #
edge $-1 $299 0 $299 6.2831853071796004 $198 $300 forward 7 unknown #
face $-1 $301 $302 $30 $-1 $303 reversed single #
loop $-1 $-1 $304 $125 #
plane-surface $-1 -59.279152806176945 0 0 1 0 0 0 0 -1 forward_v I I I I #
coedge $-1 $305 $211 $306 $307 forward $126 $-1 #
coedge $-1 $308 $128 $305 $309 forward $81 $-1 #
coedge $-1 $128 $308 $310 $311 forward $81 $-1 #
coedge $-1 $214 $213 $128 $207 reversed $215 $-1 #
edge $-1 $312 -36.457755397073875 $313 36.457755397073875 $206 $314 forward 7 unknown #
coedge $-1 $130 $129 $315 $316 forward $51 $-1 #
coedge $-1 $317 $318 $129 $210 reversed $302 $-1 #
edge $-1 $217 -59.279152806176945 $319 59.279152806176945 $209 $320 forward 7 unknown #
coedge $-1 $203 $321 $130 $212 reversed $126 $-1 #
edge $-1 $322 -59.279152806176945 $216 59.279152806176945 $211 $323 forward 7 unknown #
coedge $-1 $206 $131 $321 $324 forward $215 $-1 #
coedge $-1 $131 $206 $317 $325 reversed $215 $-1 #
loop $-1 $-1 $213 $301 #
vertex $-1 $132 $326 #
vertex $-1 $132 $327 #
straight-curve $-1 59.279152806176945 0 15.095248672372845 0 1 0 I I #
face $-1 $328 $329 $31 $-1 $330 reversed single #
loop $-1 $-1 $331 $133 #
plane-surface $-1 0 -46.228914884161753 -14.452731495865503 0 0 1 1 0 0 forward_v I I I I #
coedge $-1 $139 $332 $333 $334 forward $134 $-1 #
coedge $-1 $335 $136 $336 $337 reversed $85 $-1 #
coedge $-1 $136 $335 $229 $338 reversed $85 $-1 #
edge $-1 $230 5.9891281889072987 $339 14.452731495865503 $136 $340 forward 7 unknown #
coedge $-1 $138 $137 $341 $342 forward $54 $-1 #
coedge $-1 $333 $343 $137 $228 forward $344 $-1 #
edge $-1 $345 -14.452731495865503 $231 -5.9891281889072987 $227 $346 forward 7 unknown #
coedge $-1 $332 $139 $224 $338 forward $134 $-1 #
vertex $-1 $225 $347 #
vertex $-1 $334 $348 #
straight-curve $-1 0 -36.457755397073875 -5.9891281889072987 1 0 0 I I #
face $-1 $349 $350 $32 $-1 $351 reversed single #
loop $-1 $-1 $147 $141 #
plane-surface $-1 59.279152806176945 0 0 -1 0 0 0 0 1 forward_v I I I I #
coedge $-1 $352 $244 $353 $354 reversed $142 $-1 #
coedge $-1 $355 $144 $352 $356 forward $89 $-1 #
coedge $-1 $144 $355 $357 $358 reversed $89 $-1 #
coedge $-1 $247 $246 $144 $240 forward $234 $-1 #
edge $-1 $359 7.9477473916734667 $360 21.655921134158088 $239 $361 forward 7 unknown #
coedge $-1 $146 $145 $362 $363 reversed $57 $-1 #
coedge $-1 $364 $365 $145 $243 forward $366 $-1 #
edge $-1 $367 -59.279152806176945 $248 59.279152806176945 $242 $368 forward 7 unknown #
coedge $-1 $236 $369 $146 $245 reversed $142 $-1 #
edge $-1 $370 -59.279152806176945 $249 59.279152806176945 $244 $371 forward 7 unknown #
coedge $-1 $239 $147 $369 $372 forward $234 $-1 #
coedge $-1 $147 $239 $364 $373 reversed $234 $-1 #
vertex $-1 $373 $374 #
vertex $-1 $148 $375 #
straight-curve $-1 59.279152806176945 14.801834262915779 10.807014684515325 0 -1 0 I I #
face $-1 $-1 $376 $33 $-1 $377 forward single #
loop $-1 $-1 $262 $149 #
plane-surface $-1 -59.279152806176945 0 0 1 0 0 0 0 -1 forward_v I I I I #
coedge $-1 $378 $379 $153 $260 forward $150 $-1 #
coedge $-1 $256 $152 $154 $261 reversed $93 $-1 #
coedge $-1 $152 $255 $380 $381 reversed $93 $-1 #
coedge $-1 $382 $155 $152 $258 forward $252 $-1 #
edge $-1 $264 -34.765975851479908 $383 -27.920021204504238 $257 $384 forward 7 unknown #
coedge $-1 $154 $153 $385 $386 reversed $60 $-1 #
edge $-1 $387 10.218136224709518 $263 19.289114984207185 $254 $388 forward 7 unknown #
edge $-1 $389 -9.0709787594977005 $264 -3.2753608665505091e-014 $255 $390 forward 7 unknown #
coedge $-1 $155 $382 $378 $391 forward $252 $-1 #
vertex $-1 $260 $392 #
vertex $-1 $156 $393 #
straight-curve $-1 -59.279152806176945 9.6762921936348754 8.2492940253971732 0 -1 0 I I #
coedge $-1 $266 $266 $-1 $394 reversed $159 $-1 #
edge $-1 $395 0 $395 6.2831853071796004 $160 $396 forward 7 unknown #
vertex $-1 $163 $397 #
ellipse-curve $-1 -56.303604090947687 17.896728415561398 11.672271348885008 -0.75470958851134928 0 0.65605901945558964 0.32802950972779482 0 0.37735479425567464 1 I I #
coedge $-1 $270 $270 $-1 $398 reversed $166 $-1 #
edge $-1 $399 0 $399 6.2831853071796004 $167 $400 forward 7 unknown #
vertex $-1 $170 $401 #
ellipse-curve $-1 -56.303604090947687 20.80844035897811 11.672271348885008 -0.75470958851134928 0 0.65605901945558964 0.32802950972779482 0 0.37735479425567464 1 I I #
face $-1 $-1 $402 $36 $-1 $403 reversed single #
loop $-1 $-1 $177 $171 #
plane-surface $-1 0 0 15.095248672372845 0 0 1 1 0 0 forward_v I I I I #
coedge $-1 $404 $405 $406 $407 reversed $172 $-1 #
coedge $-1 $408 $174 $176 $284 forward $107 $-1 #
coedge $-1 $174 $408 $404 $409 forward $107 $-1 #
coedge $-1 $406 $177 $174 $281 forward $275 $-1 #
edge $-1 $287 -10.716530029867116 $410 -2.2612684722997898 $280 $411 forward 7 unknown #
coedge $-1 $412 $413 $175 $283 forward $402 $-1 #
edge $-1 $414 -81.58137995062178 $286 -69.740372200385266 $282 $415 forward 7 unknown #
edge $-1 $287 103.53185124989027 $414 118.55830561235382 $176 $416 forward 7 unknown #
coedge $-1 $177 $406 $412 $417 forward $275 $-1 #
vertex $-1 $178 $418 #
vertex $-1 $178 $419 #
straight-curve $-1 39.856296721955047 17.205429280950568 15.095248672372847 -1 0 0 I I #
coedge $-1 $289 $289 $-1 $420 reversed $181 $-1 #
edge $-1 $421 0 $421 6.2831853071796004 $182 $422 forward 7 unknown #
vertex $-1 $185 $423 #
ellipse-curve $-1 54.653548354701478 10.441220034896709 9.1747447972545633 0.78801076186113728 0 0.61566146476048833 0.15391536619012208 0 -0.19700269046528432 1 I I #
coedge $-1 $293 $293 $-1 $424 reversed $188 $-1 #
edge $-1 $425 0 $425 6.2831853071796004 $189 $426 forward 7 unknown #
vertex $-1 $192 $427 #
ellipse-curve $-1 54.653548354701478 12.977798502166905 9.1747447972545633 0.78801076186113728 0 0.61566146476048833 0.15391536619012208 0 -0.19700269046528432 1 I I #
coedge $-1 $297 $297 $-1 $428 reversed $195 $-1 #
edge $-1 $429 0 $429 6.2831853071796004 $196 $430 forward 7 unknown #
vertex $-1 $199 $431 #
ellipse-curve $-1 54.653548354701478 15.514376969437102 9.1747447972545633 0.78801076186113728 0 0.61566146476048833 0.15391536619012208 0 -0.19700269046528432 1 I I #
face $-1 $-1 $215 $30 $-1 $432 reversed single #
loop $-1 $-1 $317 $200 #
plane-surface $-1 0 36.457755397073875 0 0 -1 0 0 0 -1 forward_v I I I I #
coedge $-1 $433 $315 $318 $434 forward $201 $-1 #
coedge $-1 $321 $203 $204 $309 reversed $126 $-1 #
coedge $-1 $315 $433 $203 $307 reversed $201 $-1 #
edge $-1 $322 -15.095248672372845 $435 15.095248672372845 $306 $436 forward 7 unknown #
coedge $-1 $205 $204 $433 $437 forward $81 $-1 #
edge $-1 $313 -59.279152806176945 $435 59.279152806176945 $305 $438 forward 7 unknown #
coedge $-1 $318 $317 $205 $311 reversed $302 $-1 #
edge $-1 $439 -59.279152806176945 $312 59.279152806176945 $310 $440 forward 7 unknown #
vertex $-1 $207 $441 #
vertex $-1 $324 $442 #
straight-curve $-1 59.279152806176945 0 -15.095248672372845 0 -1 0 I I #
coedge $-1 $304 $306 $208 $316 reversed $201 $-1 #
edge $-1 $319 -36.457755397073875 $322 36.457755397073875 $315 $443 forward 7 unknown #
coedge $-1 $310 $209 $214 $325 forward $302 $-1 #
coedge $-1 $209 $310 $304 $434 reversed $302 $-1 #
vertex $-1 $210 $444 #
straight-curve $-1 0 36.457755397073875 15.095248672372845 -1 0 0 I I #
coedge $-1 $211 $305 $213 $324 reversed $126 $-1 #
vertex $-1 $316 $445 #
straight-curve $-1 0 -36.457755397073875 15.095248672372845 1 0 0 I I #
edge $-1 $216 -15.095248672372845 $313 15.095248672372845 $213 $446 forward 7 unknown #
edge $-1 $217 -15.095248672372845 $312 15.095248672372845 $214 $447 forward 7 unknown #
point $-1 59.279152806176945 -36.457755397073875 15.095248672372845 #
point $-1 59.279152806176945 36.457755397073875 15.095248672372845 #
face $-1 $-1 $344 $31 $-1 $448 reversed single #
loop $-1 $-1 $449 $219 #
plane-surface $-1 0 -56.000074371249632 -10.220929842386401 0 1 0 0 0 1 forward_v I I I I #
coedge $-1 $450 $341 $343 $451 forward $220 $-1 #
coedge $-1 $222 $229 $452 $453 forward $134 $-1 #
coedge $-1 $454 $227 $222 $334 reversed $344 $-1 #
edge $-1 $455 -9.7711594870878784 $231 9.7711594870878784 $333 $456 forward 7 unknown #
coedge $-1 $224 $223 $449 $457 reversed $85 $-1 #
coedge $-1 $341 $450 $223 $337 forward $220 $-1 #
edge $-1 $458 -9.7711594870878784 $339 9.7711594870878784 $223 $459 forward 7 unknown #
edge $-1 $230 -9.7711594870878784 $460 9.7711594870878784 $224 $461 forward 7 unknown #
vertex $-1 $225 $462 #
straight-curve $-1 -59.279152806176945 -36.457755397073875 0 0 0 -1 I I #
coedge $-1 $331 $336 $226 $342 reversed $220 $-1 #
edge $-1 $345 -59.279152806176945 $339 59.279152806176945 $341 $463 forward 7 unknown #
coedge $-1 $227 $454 $331 $451 reversed $344 $-1 #
loop $-1 $-1 $227 $328 #
vertex $-1 $228 $464 #
straight-curve $-1 59.279152806176945 -36.457755397073875 0 0 0 1 I I #
point $-1 -59.279152806176945 -36.457755397073875 -5.9891281889072987 #
point $-1 59.279152806176945 -36.457755397073875 -5.9891281889072987 #
face $-1 $-1 $366 $32 $-1 $465 reversed single #
loop $-1 $-1 $362 $233 #
plane-surface $-1 -59.279152806176945 0 0 1 0 0 0 0 -1 forward_v I I I I #
coedge $-1 $369 $236 $237 $356 reversed $142 $-1 #
coedge $-1 $362 $466 $236 $354 forward $350 $-1 #
edge $-1 $467 0.94603939152333982 $370 6.8893299925024367 $353 $468 forward 7 unknown #
coedge $-1 $238 $237 $466 $469 reversed $89 $-1 #
edge $-1 $359 -59.279152806176945 $467 59.279152806176945 $352 $470 forward 7 unknown #
coedge $-1 $365 $364 $238 $358 forward $366 $-1 #
edge $-1 $360 -59.279152806176945 $471 59.279152806176945 $357 $472 forward 7 unknown #
vertex $-1 $240 $473 #
vertex $-1 $358 $474 #
straight-curve $-1 59.279152806176945 14.801834262915779 4.8637240835362281 0 1 0 I I #
coedge $-1 $475 $353 $241 $363 forward $350 $-1 #
edge $-1 $370 7.9477473916734667 $367 21.655921134158088 $362 $476 forward 7 unknown #
coedge $-1 $357 $242 $247 $373 forward $366 $-1 #
coedge $-1 $242 $357 $475 $477 reversed $366 $-1 #
loop $-1 $-1 $242 $349 #
vertex $-1 $477 $478 #
straight-curve $-1 0 36.457755397073875 10.807014684515325 1 0 0 I I #
coedge $-1 $244 $352 $246 $372 reversed $142 $-1 #
vertex $-1 $363 $479 #
straight-curve $-1 0 22.749581654589246 10.807014684515325 1 0 0 I I #
edge $-1 $249 -6.8893299925024367 $359 -0.94603939152333982 $246 $480 forward 7 unknown #
edge $-1 $248 -10.807014684515325 $360 -4.8637240835362281 $247 $481 forward 7 unknown #
point $-1 59.279152806176945 36.457755397073868 10.807014684515325 #
point $-1 59.279152806176945 22.749581654589246 10.807014684515325 #
loop $-1 $-1 $482 $251 #
plane-surface $-1 0 0 15.095248672372845 0 0 1 1 0 0 forward_v I I I I #
coedge $-1 $379 $254 $262 $391 reversed $150 $-1 #
coedge $-1 $254 $378 $482 $483 reversed $150 $-1 #
coedge $-1 $385 $484 $256 $381 forward $376 $-1 #
edge $-1 $383 15.098968618562729 $389 21.050066049021247 $380 $485 forward 7 unknown #
coedge $-1 $262 $257 $484 $486 reversed $252 $-1 #
vertex $-1 $381 $487 #
straight-curve $-1 -59.279152806176945 15.955587119950255 43.015269876877085 0 0 1 I I #
coedge $-1 $482 $380 $259 $386 forward $376 $-1 #
edge $-1 $389 6.2792949263153801 $387 13.073289460954371 $385 $488 forward 7 unknown #
vertex $-1 $483 $489 #
straight-curve $-1 -46.624354943471857 22.749581654589246 22.806974057876275 -0.65605901945558975 0 -0.75470958851134939 I I #
vertex $-1 $386 $490 #
straight-curve $-1 -59.279152806176967 15.955587119950255 8.2492940253971483 -0.65605901945558964 0 -0.75470958851134928 I I #
edge $-1 $491 27.920021204504238 $263 34.765975851479908 $262 $492 forward 7 unknown #
point $-1 -59.279152806176945 22.749581654589246 8.2492940253971732 #
point $-1 -59.279152806176945 15.955587119950255 8.2492940253971732 #
edge $-1 $493 1 $493 0 $266 $-1 forward 7 unknown #
vertex $-1 $267 $494 #
ellipse-curve $-1 -55.271409112635901 17.896728415561398 10.774997966292982 -0.75470958851134928 0 0.65605901945558964 0.32802950972779482 0 0.37735479425567464 1 I I #
point $-1 -55.975574581219874 17.896728415561398 12.049626143140671 #
edge $-1 $495 1 $495 0 $270 $-1 forward 7 unknown #
vertex $-1 $271 $496 #
ellipse-curve $-1 -55.271409112635901 20.80844035897811 10.774997966292982 -0.75470958851134928 0 0.65605901945558964 0.32802950972779482 0 0.37735479425567464 1 I I #
point $-1 -55.975574581219874 20.80844035897811 12.049626143140671 #
loop $-1 $-1 $282 $274 #
plane-surface $-1 59.279152806176945 0 0 -1 0 0 0 0 1 forward_v I I I I #
coedge $-1 $405 $277 $279 $409 reversed $172 $-1 #
coedge $-1 $277 $404 $497 $498 reversed $172 $-1 #
coedge $-1 $285 $280 $277 $407 forward $275 $-1 #
edge $-1 $410 10.171647181270949 $499 19.422856084221898 $406 $500 forward 7 unknown #
coedge $-1 $279 $278 $413 $501 reversed $107 $-1 #
edge $-1 $502 -118.55830561235382 $410 -103.53185124989027 $404 $503 forward 7 unknown #
vertex $-1 $281 $504 #
straight-curve $-1 50.027943903225996 6.4888992510834527 15.095248672372847 0 -1 0 I I #
coedge $-1 $497 $282 $285 $417 reversed $402 $-1 #
coedge $-1 $282 $497 $408 $501 forward $402 $-1 #
vertex $-1 $283 $505 #
straight-curve $-1 59.279152806176945 17.205429280950568 84.835620872758113 0 0 1 I I #
straight-curve $-1 -13.712627286646438 17.205429280950568 96.679461652692808 0.61566146476048833 0 -0.78801076186113728 I I #
edge $-1 $499 8.7501677233832424 $286 17.205429280950568 $412 $506 forward 7 unknown #
point $-1 59.279152806176945 17.205429280950568 15.095248672372845 #
point $-1 50.027943903225996 17.205429280950568 15.095248672372847 #
edge $-1 $507 1 $507 0 $289 $-1 forward 7 unknown #
vertex $-1 $290 $508 #
ellipse-curve $-1 53.865537592840312 10.441220034896709 8.5590833324940583 0.78801076186113728 0 0.61566146476048833 0.15391536619012208 0 -0.19700269046528432 1 I I #
point $-1 54.807463720891569 10.441220034896709 8.9777421067892611 #
edge $-1 $509 1 $509 0 $293 $-1 forward 7 unknown #
vertex $-1 $294 $510 #
ellipse-curve $-1 53.865537592840312 12.977798502166905 8.5590833324940583 0.78801076186113728 0 0.61566146476048833 0.15391536619012208 0 -0.19700269046528432 1 I I #
point $-1 54.807463720891569 12.977798502166905 8.9777421067892611 #
edge $-1 $511 1 $511 0 $297 $-1 forward 7 unknown #
vertex $-1 $298 $512 #
ellipse-curve $-1 53.865537592840312 15.514376969437102 8.5590833324940583 0.78801076186113728 0 0.61566146476048833 0.15391536619012208 0 -0.19700269046528432 1 I I #
point $-1 54.807463720891569 15.514376969437102 8.9777421067892611 #
plane-surface $-1 59.279152806176945 0 0 -1 0 0 0 0 1 forward_v I I I I #
coedge $-1 $306 $304 $308 $437 reversed $201 $-1 #
edge $-1 $319 -15.095248672372845 $439 15.095248672372845 $318 $513 forward 7 unknown #
vertex $-1 $437 $514 #
straight-curve $-1 -59.279152806176945 -36.457755397073875 0 0 0 -1 I I #
edge $-1 $435 -36.457755397073875 $439 36.457755397073875 $433 $515 forward 7 unknown #
straight-curve $-1 0 -36.457755397073875 -15.095248672372845 -1 0 0 I I #
vertex $-1 $311 $516 #
straight-curve $-1 0 36.457755397073875 -15.095248672372845 1 0 0 I I #
point $-1 59.279152806176945 36.457755397073875 -15.095248672372845 #
point $-1 59.279152806176945 -36.457755397073875 -15.095248672372845 #
straight-curve $-1 -59.279152806176945 0 15.095248672372845 0 -1 0 I I #
point $-1 -59.279152806176945 36.457755397073875 15.095248672372845 #
point $-1 -59.279152806176945 -36.457755397073875 15.095248672372845 #
straight-curve $-1 59.279152806176945 -36.457755397073875 0 0 0 -1 I I #
straight-curve $-1 59.279152806176945 36.457755397073875 0 0 0 -1 I I #
plane-surface $-1 59.279152806176945 0 0 -1 0 0 0 0 1 forward_v I I I I #
coedge $-1 $517 $452 $335 $457 forward $329 $-1 #
coedge $-1 $336 $331 $517 $518 forward $220 $-1 #
edge $-1 $345 -9.7711594870878784 $519 9.7711594870878784 $343 $520 forward 7 unknown #
coedge $-1 $449 $521 $332 $453 reversed $329 $-1 #
edge $-1 $460 -59.279152806176945 $455 59.279152806176945 $452 $522 forward 7 unknown #
coedge $-1 $343 $333 $521 $523 forward $344 $-1 #
vertex $-1 $334 $524 #
straight-curve $-1 59.279152806176945 -46.228914884161753 -5.9891281889072987 0 1 0 I I #
edge $-1 $460 -4.2318016534791019 $458 4.2318016534791028 $335 $525 forward 7 unknown #
vertex $-1 $337 $526 #
straight-curve $-1 -59.279152806176945 -46.228914884161753 -14.452731495865503 0 1 0 I I #
vertex $-1 $338 $527 #
straight-curve $-1 -59.279152806176945 -46.228914884161753 -5.9891281889072987 0 -1 0 I I #
point $-1 -59.279152806176945 -36.457755397073875 -14.452731495865503 #
straight-curve $-1 0 -36.457755397073875 -14.452731495865503 -1 0 0 I I #
point $-1 59.279152806176945 -36.457755397073875 -14.452731495865503 #
plane-surface $-1 0 36.457755397073875 0 0 -1 0 0 0 -1 forward_v I I I I #
coedge $-1 $353 $475 $355 $469 forward $350 $-1 #
vertex $-1 $469 $528 #
straight-curve $-1 -59.279152806176945 22.749581654589246 3.9176846920128883 0 0 1 I I #
edge $-1 $471 -21.655921134158088 $467 -7.9477473916734667 $466 $529 forward 7 unknown #
straight-curve $-1 0 22.749581654589246 4.8637240835362281 -1 0 0 I I #
vertex $-1 $358 $530 #
straight-curve $-1 0 36.457755397073875 4.8637240835362281 -1 0 0 I I #
point $-1 59.279152806176945 22.749581654589246 4.8637240835362281 #
point $-1 59.279152806176945 36.457755397073868 4.8637240835362281 #
coedge $-1 $466 $362 $365 $477 forward $350 $-1 #
straight-curve $-1 -59.279152806176945 14.801834262915779 10.807014684515325 0 1 0 I I #
edge $-1 $367 -10.807014684515325 $471 -4.8637240835362281 $365 $531 forward 7 unknown #
point $-1 -59.279152806176945 36.457755397073868 10.807014684515325 #
point $-1 -59.279152806176945 22.749581654589246 10.807014684515325 #
straight-curve $-1 59.279152806176945 22.749581654589246 3.9176846920128883 0 0 -1 I I #
straight-curve $-1 59.279152806176945 36.457755397073875 0 0 0 -1 I I #
coedge $-1 $484 $385 $379 $483 forward $376 $-1 #
edge $-1 $387 -21.050066049021247 $491 -15.098968618562729 $482 $532 forward 7 unknown #
coedge $-1 $380 $482 $382 $486 forward $376 $-1 #
straight-curve $-1 -74.378121424739675 15.955587119950255 15.095248672372847 1 0 0 I I #
edge $-1 $491 -22.749581654589246 $383 -15.955587119950255 $382 $533 forward 7 unknown #
point $-1 -59.279152806176945 15.955587119950255 15.095248672372845 #
straight-curve $-1 -53.328055375718428 9.6762921936348754 15.095248672372843 0 1 0 I I #
point $-1 -53.328055375718428 22.749581654589246 15.095248672372847 #
point $-1 -53.328055375718428 15.955587119950255 15.095248672372847 #
vertex $-1 $486 $534 #
straight-curve $-1 -59.279152806176945 22.749581654589246 43.015269876877085 0 0 -1 I I #
vertex $-1 $394 $535 #
point $-1 -54.943379602908102 17.896728415561398 11.152352760548657 #
vertex $-1 $398 $536 #
point $-1 -54.943379602908102 20.80844035897811 11.152352760548657 #
coedge $-1 $413 $412 $405 $498 forward $402 $-1 #
edge $-1 $499 69.740372200385266 $502 81.58137995062178 $497 $537 forward 7 unknown #
vertex $-1 $417 $538 #
straight-curve $-1 39.856296721955047 8.7501677233832424 15.095248672372847 1 0 0 I I #
edge $-1 $502 2.2612684722997898 $414 10.716530029867116 $413 $539 forward 7 unknown #
vertex $-1 $501 $540 #
straight-curve $-1 -13.712627286646438 8.7501677233832424 96.679461652692808 -0.61566146476048833 0 0.78801076186113728 I I #
point $-1 50.027943903225996 8.7501677233832424 15.095248672372847 #
point $-1 59.279152806176938 17.205429280950568 3.2542409221363329 #
straight-curve $-1 59.279152806176945 0 15.095248672372845 0 1 0 I I #
vertex $-1 $420 $541 #
point $-1 54.019452959030431 10.441220034896709 8.3620806420287739 #
vertex $-1 $424 $542 #
point $-1 54.019452959030431 12.977798502166905 8.3620806420287739 #
vertex $-1 $428 $543 #
point $-1 54.019452959030431 15.514376969437102 8.3620806420287739 #
straight-curve $-1 -59.279152806176945 36.457755397073875 0 0 0 -1 I I #
point $-1 -59.279152806176945 -36.457755397073875 -15.095248672372845 #
straight-curve $-1 -59.279152806176945 0 -15.095248672372845 0 1 0 I I #
point $-1 -59.279152806176945 36.457755397073875 -15.095248672372845 #
coedge $-1 $521 $449 $450 $518 reversed $329 $-1 #
edge $-1 $519 -59.279152806176945 $458 59.279152806176945 $517 $544 forward 7 unknown #
vertex $-1 $523 $545 #
straight-curve $-1 59.279152806176945 -46.228914884161753 -14.452731495865503 0 -1 0 I I #
coedge $-1 $452 $517 $454 $523 reversed $329 $-1 #
straight-curve $-1 0 -56.000074371249632 -5.9891281889072987 1 0 0 I I #
edge $-1 $455 -4.2318016534791019 $519 4.2318016534791028 $454 $546 forward 7 unknown #
point $-1 59.279152806176945 -56.000074371249632 -5.9891281889072987 #
straight-curve $-1 -59.279152806176945 -56.000074371249632 -10.220929842386401 0 0 -1 I I #
point $-1 -59.279152806176945 -56.000074371249632 -14.452731495865503 #
point $-1 -59.279152806176945 -56.000074371249632 -5.9891281889072987 #
point $-1 -59.279152806176945 22.749581654589246 4.8637240835362281 #
straight-curve $-1 -59.279152806176945 14.801834262915779 4.8637240835362281 0 -1 0 I I #
point $-1 -59.279152806176945 36.457755397073868 4.8637240835362281 #
straight-curve $-1 -59.279152806176945 36.457755397073875 0 0 0 -1 I I #
straight-curve $-1 -74.378121424739675 22.749581654589246 15.095248672372847 -1 0 0 I I #
straight-curve $-1 -59.279152806176945 0 15.095248672372845 0 -1 0 I I #
point $-1 -59.279152806176945 22.749581654589246 15.095248672372845 #
point $-1 -54.894054318380221 17.896728415561398 10.446968456565187 #
point $-1 -54.894054318380221 20.80844035897811 10.446968456565187 #
straight-curve $-1 59.279152806176945 8.7501677233832424 84.835620872758113 0 0 -1 I I #
point $-1 59.279152806176945 8.7501677233832424 15.095248672372845 #
straight-curve $-1 59.279152806176938 6.4888992510834527 3.25424092213634 0 1 0 I I #
point $-1 59.279152806176938 8.7501677233832424 3.2542409221363329 #
point $-1 53.668534902375029 10.441220034896709 8.4051679663039351 #
point $-1 53.668534902375029 12.977798502166905 8.4051679663039351 #
point $-1 53.668534902375029 15.514376969437102 8.4051679663039351 #
straight-curve $-1 0 -56.000074371249632 -14.452731495865503 -1 0 0 I I #
point $-1 59.279152806176945 -56.000074371249632 -14.452731495865503 #
straight-curve $-1 59.279152806176945 -56.000074371249632 -10.220929842386401 0 0 -1 I I #
End-of-ACIS-data 