500 0 14 0           
7 Unknown 11 ACIS 5.0 NT 24 Thu Mar 25 15:43:14 1999 
-1 9.9999999999999995e-007 1e-010 
body $-1 $14 $-1 $15 #
body $-1 $16 $-1 $17 #
body $-1 $18 $-1 $19 #
body $-1 $20 $-1 $21 #
body $-1 $22 $-1 $23 #
body $-1 $24 $-1 $25 #
body $-1 $26 $-1 $27 #
body $-1 $28 $-1 $29 #
body $-1 $30 $-1 $31 #
body $-1 $32 $-1 $33 #
body $-1 $34 $-1 $35 #
body $-1 $36 $-1 $37 #
body $-1 $38 $-1 $39 #
body $-1 $40 $-1 $41 #
lump $-1 $-1 $42 $0 #
transform $-1 1 0 0 0 1 0 0 0 1 56.024658955656605 23.060780287008836 4.7525602954235042 1 rotate no_reflect no_shear #
lump $-1 $-1 $43 $1 #
transform $-1 1 0 0 0 1 0 0 0 1 56.024658955656605 23.060780287008836 4.7525602954235042 1 rotate no_reflect no_shear #
lump $-1 $-1 $44 $2 #
transform $-1 1 0 0 0 1 0 0 0 1 56.024658955656605 23.060780287008836 4.7525602954235042 1 rotate no_reflect no_shear #
lump $-1 $-1 $45 $3 #
transform $-1 1 0 0 0 1 0 0 0 1 56.024658955656605 23.060780287008836 4.7525602954235042 1 rotate no_reflect no_shear #
lump $-1 $-1 $46 $4 #
transform $-1 1 0 0 0 1 0 0 0 1 56.024658955656605 23.060780287008836 4.7525602954235042 1 rotate no_reflect no_shear #
lump $-1 $-1 $47 $5 #
transform $-1 1 0 0 0 1 0 0 0 1 56.024658955656605 23.060780287008836 4.7525602954235042 1 rotate no_reflect no_shear #
lump $-1 $-1 $48 $6 #
transform $-1 1 0 0 0 1 0 0 0 1 56.024658955656605 23.060780287008836 4.7525602954235042 1 rotate no_reflect no_shear #
lump $-1 $-1 $49 $7 #
transform $-1 1 0 0 0 1 0 0 0 1 56.024658955656605 23.060780287008836 4.7525602954235042 1 rotate no_reflect no_shear #
lump $-1 $-1 $50 $8 #
transform $-1 1 0 0 0 1 0 0 0 1 56.024658955656605 23.060780287008836 4.7525602954235042 1 rotate no_reflect no_shear #
lump $-1 $-1 $51 $9 #
transform $-1 1 0 0 0 1 0 0 0 1 56.024658955656605 23.060780287008836 4.7525602954235042 1 rotate no_reflect no_shear #
lump $-1 $-1 $52 $10 #
transform $-1 1 0 0 0 1 0 0 0 1 56.024658955656605 23.060780287008836 4.7525602954235042 1 rotate no_reflect no_shear #
lump $-1 $-1 $53 $11 #
transform $-1 1 0 0 0 1 0 0 0 1 56.024658955656605 23.060780287008836 4.7525602954235042 1 rotate no_reflect no_shear #
lump $-1 $-1 $54 $12 #
transform $-1 1 0 0 0 1 0 0 0 1 56.024658955656605 23.060780287008836 4.7525602954235042 1 rotate no_reflect no_shear #
lump $-1 $-1 $55 $13 #
transform $-1 1 0 0 0 1 0 0 0 1 56.024658955656605 23.060780287008836 4.7525602954235042 1 rotate no_reflect no_shear #
shell $-1 $-1 $-1 $56 $-1 $14 #
shell $-1 $-1 $-1 $57 $-1 $16 #
shell $-1 $-1 $-1 $58 $-1 $18 #
shell $-1 $-1 $-1 $59 $-1 $20 #
shell $-1 $-1 $-1 $60 $-1 $22 #
shell $-1 $-1 $-1 $61 $-1 $24 #
shell $-1 $-1 $-1 $62 $-1 $26 #
shell $-1 $-1 $-1 $63 $-1 $28 #
shell $-1 $-1 $-1 $64 $-1 $30 #
shell $-1 $-1 $-1 $65 $-1 $32 #
shell $-1 $-1 $-1 $66 $-1 $34 #
shell $-1 $-1 $-1 $67 $-1 $36 #
shell $-1 $-1 $-1 $68 $-1 $38 #
shell $-1 $-1 $-1 $69 $-1 $40 #
face $-1 $70 $71 $42 $-1 $72 forward single #
face $-1 $73 $74 $43 $-1 $75 forward single #
face $-1 $76 $77 $44 $-1 $78 reversed single #
face $-1 $79 $80 $45 $-1 $81 forward single #
face $-1 $82 $83 $46 $-1 $84 forward single #
face $-1 $85 $86 $47 $-1 $87 reversed single #
face $-1 $88 $89 $48 $-1 $90 forward single #
face $-1 $91 $92 $49 $-1 $93 forward single #
face $-1 $94 $95 $50 $-1 $96 reversed single #
face $-1 $97 $98 $51 $-1 $99 forward single #
face $-1 $100 $101 $52 $-1 $102 forward single #
face $-1 $103 $104 $53 $-1 $105 reversed single #
face $-1 $106 $107 $54 $-1 $108 forward single #
face $-1 $109 $110 $55 $-1 $111 forward single #
face $-1 $112 $113 $42 $-1 $114 reversed single #
loop $-1 $-1 $115 $56 #
plane-surface $-1 0 0 4.7525602954235042 0 0 1 1 0 0 forward_v I I I I #
face $-1 $116 $117 $43 $-1 $118 reversed single #
loop $-1 $-1 $119 $57 #
plane-surface $-1 -53.896166948717628 0 -1.2525602954235042 0 0 1 1 0 0 forward_v I I I I #
face $-1 $120 $121 $44 $-1 $122 reversed single #
loop $-1 $-1 $123 $58 #
plane-surface $-1 -47.766504626898538 -113.7105836023683 67.214547077775222 1 0 0 0 0.80901700255871778 -0.5877852410284794 forward_v I I I I #
face $-1 $124 $125 $45 $-1 $126 forward single #
loop $-1 $127 $128 $59 #
cone-surface $-1 -41.242589196314697 -20.365108406666309 1.9916571270321919 0 0.80901700255871778 -0.5877852410284794 1 0 0 1 I I 0 1 1 forward I I I I #
face $-1 $129 $130 $46 $-1 $131 forward single #
loop $-1 $132 $133 $60 #
cone-surface $-1 -31.456716050438931 -20.365108406666309 1.9916571270321919 0 0.80901700255871778 -0.5877852410284794 1 0 0 1 I I 0 1 1 forward I I I I #
face $-1 $134 $135 $47 $-1 $136 reversed single #
loop $-1 $-1 $137 $61 #
plane-surface $-1 6.1296623218190813 -113.7105836023683 67.214547077775222 1 0 0 0 0.80901700255871778 -0.5877852410284794 forward_v I I I I #
face $-1 $138 $139 $48 $-1 $140 forward single #
loop $-1 $141 $142 $62 #
cone-surface $-1 12.653577752402924 -20.365108406666309 1.9916571270321919 0 0.80901700255871778 -0.5877852410284794 1 0 0 1 I I 0 1 1 forward I I I I #
face $-1 $143 $144 $49 $-1 $145 forward single #
loop $-1 $146 $147 $63 #
cone-surface $-1 22.439450898278693 -20.365108406666309 1.9916571270321919 0 0.80901700255871778 -0.5877852410284794 1 0 0 1 I I 0 1 1 forward I I I I #
face $-1 $148 $149 $50 $-1 $150 reversed single #
loop $-1 $-1 $151 $64 #
plane-surface $-1 -26.18356088585206 88.391969209406483 102.36738963054655 1 0 0 0 -0.81915205242281985 -0.57357642473473569 forward_v I I I I #
face $-1 $152 $153 $51 $-1 $154 forward single #
loop $-1 $155 $156 $65 #
cone-surface $-1 -22.457079488454355 19.938308048570438 1.4360058826784727 0 -0.81915205242281985 -0.57357642473473569 1 0 0 1 I I 0 1 1 forward I I I I #
face $-1 $157 $158 $52 $-1 $159 forward single #
loop $-1 $160 $161 $66 #
cone-surface $-1 -16.867357392357803 19.938308048570438 1.4360058826784727 0 -0.81915205242281985 -0.57357642473473569 1 0 0 1 I I 0 1 1 forward I I I I #
face $-1 $162 $163 $53 $-1 $164 reversed single #
loop $-1 $-1 $165 $67 #
plane-surface $-1 27.712606062865568 88.391969209406483 102.36738963054655 1 0 0 0 -0.81915205242281985 -0.57357642473473569 forward_v I I I I #
face $-1 $166 $167 $54 $-1 $168 forward single #
loop $-1 $169 $170 $68 #
cone-surface $-1 31.439087460263266 19.938308048570438 1.4360058826784727 0 -0.81915205242281985 -0.57357642473473569 1 0 0 1 I I 0 1 1 forward I I I I #
face $-1 $171 $172 $55 $-1 $173 forward single #
loop $-1 $174 $175 $69 #
cone-surface $-1 37.028809556359818 19.938308048570438 1.4360058826784727 0 -0.81915205242281985 -0.57357642473473569 1 0 0 1 I I 0 1 1 forward I I I I #
face $-1 $176 $177 $42 $-1 $178 reversed single #
loop $-1 $-1 $179 $70 #
plane-surface $-1 0 0 -4.7525602954235042 0 0 1 1 0 0 forward_v I I I I #
coedge $-1 $180 $181 $182 $183 forward $71 $-1 #
face $-1 $184 $185 $43 $-1 $186 reversed single #
loop $-1 $-1 $187 $73 #
plane-surface $-1 -53.896166948717628 0 -4.2525602954235042 0 0 1 1 0 0 forward_v I I I I #
coedge $-1 $188 $189 $190 $191 forward $74 $-1 #
face $-1 $192 $193 $44 $-1 $194 reversed single #
loop $-1 $-1 $195 $76 #
plane-surface $-1 -36.349652623376812 -23.060780287008839 1.3536117421972733 0 -0.80901700255871778 0.5877852410284794 1 0 0 forward_v I I I I #
coedge $-1 $196 $197 $198 $199 reversed $77 $-1 #
face $-1 $-1 $200 $45 $-1 $201 forward single #
loop $-1 $202 $203 $79 #
cone-surface $-1 -41.242589196314697 -18.499668326102856 0.63633561473975586 0 0.80901700255871778 -0.5877852410284794 0.5 0 0 1 I I -0.70710678118654735 0.70710678118654768 0.5 forward I I I I #
loop $-1 $-1 $204 $59 #
coedge $-1 $128 $128 $205 $206 reversed $80 $-1 #
face $-1 $-1 $207 $46 $-1 $208 forward single #
loop $-1 $209 $210 $82 #
cone-surface $-1 -31.456716050438931 -18.499668326102856 0.63633561473975586 0 0.80901700255871778 -0.5877852410284794 0.5 0 0 1 I I -0.70710678118654735 0.70710678118654768 0.5 forward I I I I #
loop $-1 $-1 $211 $60 #
coedge $-1 $133 $133 $212 $213 reversed $83 $-1 #
face $-1 $214 $215 $47 $-1 $216 reversed single #
loop $-1 $-1 $217 $85 #
plane-surface $-1 17.546514325340809 -23.060780287008839 1.3536117421972733 0 -0.80901700255871778 0.5877852410284794 1 0 0 forward_v I I I I #
coedge $-1 $218 $219 $220 $221 reversed $86 $-1 #
face $-1 $-1 $222 $48 $-1 $223 forward single #
loop $-1 $224 $225 $88 #
cone-surface $-1 12.653577752402924 -18.499668326102856 0.63633561473975586 0 0.80901700255871778 -0.5877852410284794 0.5 0 0 1 I I -0.70710678118654735 0.70710678118654768 0.5 forward I I I I #
loop $-1 $-1 $226 $62 #
coedge $-1 $142 $142 $227 $228 reversed $89 $-1 #
face $-1 $-1 $229 $49 $-1 $230 forward single #
loop $-1 $231 $232 $91 #
cone-surface $-1 22.439450898278693 -18.499668326102856 0.63633561473975586 0 0.80901700255871778 -0.5877852410284794 0.5 0 0 1 I I -0.70710678118654735 0.70710678118654768 0.5 forward I I I I #
loop $-1 $-1 $233 $63 #
coedge $-1 $147 $147 $234 $235 reversed $92 $-1 #
face $-1 $236 $237 $50 $-1 $238 reversed single #
loop $-1 $-1 $239 $94 #
plane-surface $-1 -19.662218440406086 -3.3934595302227564 38.098542469009743 0 0.81915205242281985 0.57357642473473569 1 0 0 forward_v I I I I #
coedge $-1 $240 $241 $242 $243 reversed $95 $-1 #
face $-1 $-1 $244 $51 $-1 $245 forward single #
loop $-1 $246 $247 $97 #
cone-surface $-1 -22.457079488454355 17.958826001421858 0.049957673347942766 0 -0.81915205242281985 -0.57357642473473569 0.5 0 0 1 I I -0.70710678118654746 0.70710678118654746 0.5 forward I I I I #
loop $-1 $-1 $248 $65 #
coedge $-1 $156 $156 $249 $250 reversed $98 $-1 #
face $-1 $-1 $251 $52 $-1 $252 forward single #
loop $-1 $253 $254 $100 #
cone-surface $-1 -16.867357392357803 17.958826001421858 0.049957673347942766 0 -0.81915205242281985 -0.57357642473473569 0.5 0 0 1 I I -0.70710678118654746 0.70710678118654746 0.5 forward I I I I #
loop $-1 $-1 $255 $66 #
coedge $-1 $161 $161 $256 $257 reversed $101 $-1 #
face $-1 $258 $259 $53 $-1 $260 reversed single #
loop $-1 $-1 $261 $103 #
plane-surface $-1 34.233948508311542 -3.3934595302227564 38.098542469009743 0 0.81915205242281985 0.57357642473473569 1 0 0 forward_v I I I I #
coedge $-1 $262 $263 $264 $265 reversed $104 $-1 #
face $-1 $-1 $266 $54 $-1 $267 forward single #
loop $-1 $268 $269 $106 #
cone-surface $-1 31.439087460263266 17.958826001421858 0.049957673347942766 0 -0.81915205242281985 -0.57357642473473569 0.5 0 0 1 I I -0.70710678118654746 0.70710678118654746 0.5 forward I I I I #
loop $-1 $-1 $270 $68 #
coedge $-1 $170 $170 $271 $272 reversed $107 $-1 #
face $-1 $-1 $273 $55 $-1 $274 forward single #
loop $-1 $275 $276 $109 #
cone-surface $-1 37.028809556359818 17.958826001421858 0.049957673347942766 0 -0.81915205242281985 -0.57357642473473569 0.5 0 0 1 I I -0.70710678118654746 0.70710678118654746 0.5 forward I I I I #
loop $-1 $-1 $277 $69 #
coedge $-1 $175 $175 $278 $279 reversed $110 $-1 #
face $-1 $280 $281 $42 $-1 $282 reversed single #
loop $-1 $-1 $283 $112 #
plane-surface $-1 0 -23.060780287008836 0 0 1 0 0 0 1 forward_v I I I I #
coedge $-1 $284 $285 $286 $287 forward $113 $-1 #
coedge $-1 $288 $115 $289 $290 forward $71 $-1 #
coedge $-1 $115 $288 $291 $292 forward $71 $-1 #
coedge $-1 $293 $294 $115 $183 reversed $295 $-1 #
edge $-1 $296 -23.060780287008836 $297 23.060780287008836 $182 $298 forward 7 unknown #
face $-1 $299 $300 $43 $-1 $301 reversed single #
loop $-1 $-1 $302 $116 #
plane-surface $-1 -51.767674941778651 0 -2.7525602954235042 -1 0 0 0 0 1 forward_v I I I I #
coedge $-1 $303 $304 $305 $306 forward $117 $-1 #
coedge $-1 $307 $119 $308 $309 reversed $74 $-1 #
coedge $-1 $119 $307 $310 $311 reversed $74 $-1 #
coedge $-1 $302 $312 $119 $191 reversed $185 $-1 #
edge $-1 $313 -23.060780287008836 $314 23.060780287008836 $190 $315 forward 7 unknown #
face $-1 $316 $317 $44 $-1 $318 forward single #
loop $-1 $-1 $319 $120 #
plane-surface $-1 -24.932800619855087 -113.7105836023683 67.214547077775222 -1 0 0 0 -0.80901700255871778 0.5877852410284794 forward_v I I I I #
coedge $-1 $320 $321 $322 $323 reversed $121 $-1 #
coedge $-1 $197 $123 $324 $325 reversed $77 $-1 #
coedge $-1 $123 $196 $320 $326 reversed $77 $-1 #
coedge $-1 $322 $327 $123 $199 forward $328 $-1 #
edge $-1 $329 28.854713243464108 $330 32.253661796690331 $198 $331 forward 7 unknown #
loop $-1 $-1 $205 $124 #
plane-surface $-1 -36.349652623376812 -23.060780287008839 1.3536117421972733 0 -0.80901700255871778 0.5877852410284794 1 0 0 forward_v I I I I #
loop $-1 $-1 $332 $79 #
coedge $-1 $203 $203 $204 $333 reversed $125 $-1 #
coedge $-1 $204 $204 $203 $333 forward $127 $-1 #
coedge $-1 $205 $205 $128 $206 forward $200 $-1 #
edge $-1 $334 -6.7421662530474143e-017 $334 6.2831853071796004 $205 $335 forward 7 unknown #
loop $-1 $-1 $212 $129 #
plane-surface $-1 -36.349652623376812 -23.060780287008839 1.3536117421972733 0 -0.80901700255871778 0.5877852410284794 1 0 0 forward_v I I I I #
loop $-1 $-1 $336 $82 #
coedge $-1 $210 $210 $211 $337 reversed $130 $-1 #
coedge $-1 $211 $211 $210 $337 forward $132 $-1 #
coedge $-1 $212 $212 $133 $213 forward $207 $-1 #
edge $-1 $338 -6.7421662530474143e-017 $338 6.2831853071796004 $212 $339 forward 7 unknown #
face $-1 $340 $341 $47 $-1 $342 reversed single #
loop $-1 $-1 $343 $134 #
plane-surface $-1 28.963366328862534 -113.7105836023683 67.214547077775222 -1 0 0 0 -0.80901700255871778 0.5877852410284794 forward_v I I I I #
coedge $-1 $344 $345 $346 $347 reversed $135 $-1 #
coedge $-1 $219 $137 $348 $349 reversed $86 $-1 #
coedge $-1 $137 $218 $344 $350 reversed $86 $-1 #
coedge $-1 $346 $351 $137 $221 forward $341 $-1 #
edge $-1 $352 28.854713243464108 $353 32.253661796690331 $220 $354 forward 7 unknown #
loop $-1 $-1 $227 $138 #
plane-surface $-1 17.546514325340809 -23.060780287008839 1.3536117421972733 0 -0.80901700255871778 0.5877852410284794 1 0 0 forward_v I I I I #
loop $-1 $-1 $355 $88 #
coedge $-1 $225 $225 $226 $356 reversed $139 $-1 #
coedge $-1 $226 $226 $225 $356 forward $141 $-1 #
coedge $-1 $227 $227 $142 $228 forward $222 $-1 #
edge $-1 $357 -6.7421662530474143e-017 $357 6.2831853071796004 $227 $358 forward 7 unknown #
loop $-1 $-1 $234 $143 #
plane-surface $-1 17.546514325340809 -23.060780287008839 1.3536117421972733 0 -0.80901700255871778 0.5877852410284794 1 0 0 forward_v I I I I #
loop $-1 $-1 $359 $91 #
coedge $-1 $232 $232 $233 $360 reversed $144 $-1 #
coedge $-1 $233 $233 $232 $360 forward $146 $-1 #
coedge $-1 $234 $234 $147 $235 forward $229 $-1 #
edge $-1 $361 -6.7421662530474143e-017 $361 6.2831853071796004 $234 $362 forward 7 unknown #
face $-1 $363 $364 $50 $-1 $365 reversed single #
loop $-1 $-1 $366 $148 #
plane-surface $-1 -13.140875994960114 88.391969209406483 102.36738963054655 -1 0 0 0 0.81915205242281985 0.57357642473473569 forward_v I I I I #
coedge $-1 $367 $368 $369 $370 reversed $149 $-1 #
coedge $-1 $241 $151 $371 $372 reversed $95 $-1 #
coedge $-1 $151 $240 $367 $373 reversed $95 $-1 #
coedge $-1 $369 $374 $151 $243 forward $375 $-1 #
edge $-1 $376 21.135204317694406 $377 24.240336752696845 $242 $378 forward 7 unknown #
loop $-1 $-1 $249 $152 #
plane-surface $-1 -19.662218440406086 -3.3934595302227564 38.098542469009743 0 0.81915205242281985 0.57357642473473569 1 0 0 forward_v I I I I #
loop $-1 $-1 $379 $97 #
coedge $-1 $247 $247 $248 $380 reversed $153 $-1 #
coedge $-1 $248 $248 $247 $380 forward $155 $-1 #
coedge $-1 $249 $249 $156 $250 forward $244 $-1 #
edge $-1 $381 8.7245989166747535e-016 $381 6.2831853071796013 $249 $382 forward 7 unknown #
loop $-1 $-1 $256 $157 #
plane-surface $-1 -19.662218440406086 -3.3934595302227564 38.098542469009743 0 0.81915205242281985 0.57357642473473569 1 0 0 forward_v I I I I #
loop $-1 $-1 $383 $100 #
coedge $-1 $254 $254 $255 $384 reversed $158 $-1 #
coedge $-1 $255 $255 $254 $384 forward $160 $-1 #
coedge $-1 $256 $256 $161 $257 forward $251 $-1 #
edge $-1 $385 8.7245989166747535e-016 $385 6.2831853071796013 $256 $386 forward 7 unknown #
face $-1 $387 $388 $53 $-1 $389 forward single #
loop $-1 $-1 $390 $162 #
plane-surface $-1 40.755290953757516 88.391969209406483 102.36738963054655 -1 0 0 0 0.81915205242281985 0.57357642473473569 forward_v I I I I #
coedge $-1 $391 $392 $393 $394 reversed $163 $-1 #
coedge $-1 $263 $165 $395 $396 reversed $104 $-1 #
coedge $-1 $165 $262 $391 $397 reversed $104 $-1 #
coedge $-1 $393 $398 $165 $265 forward $388 $-1 #
edge $-1 $399 21.135204317694406 $400 24.240336752696845 $264 $401 forward 7 unknown #
loop $-1 $-1 $271 $166 #
plane-surface $-1 34.233948508311542 -3.3934595302227564 38.098542469009743 0 0.81915205242281985 0.57357642473473569 1 0 0 forward_v I I I I #
loop $-1 $-1 $402 $106 #
coedge $-1 $269 $269 $270 $403 reversed $167 $-1 #
coedge $-1 $270 $270 $269 $403 forward $169 $-1 #
coedge $-1 $271 $271 $170 $272 forward $266 $-1 #
edge $-1 $404 8.7245989166747535e-016 $404 6.2831853071796013 $271 $405 forward 7 unknown #
loop $-1 $-1 $278 $171 #
plane-surface $-1 34.233948508311542 -3.3934595302227564 38.098542469009743 0 0.81915205242281985 0.57357642473473569 1 0 0 forward_v I I I I #
loop $-1 $-1 $406 $109 #
coedge $-1 $276 $276 $277 $407 reversed $172 $-1 #
coedge $-1 $277 $277 $276 $407 forward $174 $-1 #
coedge $-1 $278 $278 $175 $279 forward $273 $-1 #
edge $-1 $408 8.7245989166747535e-016 $408 6.2831853071796013 $278 $409 forward 7 unknown #
face $-1 $410 $411 $42 $-1 $412 reversed single #
loop $-1 $-1 $413 $176 #
plane-surface $-1 -56.024658955656605 0 0 1 0 0 0 0 -1 forward_v I I I I #
coedge $-1 $414 $291 $415 $416 forward $177 $-1 #
coedge $-1 $417 $179 $414 $418 forward $113 $-1 #
coedge $-1 $179 $417 $419 $420 forward $113 $-1 #
coedge $-1 $294 $293 $179 $287 reversed $295 $-1 #
edge $-1 $421 -23.060780287008836 $422 23.060780287008836 $286 $423 forward 7 unknown #
coedge $-1 $181 $180 $424 $425 forward $71 $-1 #
coedge $-1 $426 $427 $180 $290 reversed $411 $-1 #
edge $-1 $297 -56.024658955656605 $428 56.024658955656605 $289 $429 forward 7 unknown #
coedge $-1 $283 $430 $181 $292 reversed $177 $-1 #
edge $-1 $431 -56.024658955656605 $296 56.024658955656605 $291 $432 forward 7 unknown #
coedge $-1 $286 $182 $430 $433 forward $295 $-1 #
coedge $-1 $182 $286 $426 $434 reversed $295 $-1 #
loop $-1 $-1 $293 $410 #
vertex $-1 $183 $435 #
vertex $-1 $183 $436 #
straight-curve $-1 56.024658955656605 0 4.7525602954235042 0 1 0 I I #
face $-1 $437 $438 $43 $-1 $439 reversed single #
loop $-1 $-1 $440 $184 #
plane-surface $-1 0 -23.060780287008836 0 0 1 0 0 0 1 forward_v I I I I #
coedge $-1 $305 $190 $441 $442 reversed $185 $-1 #
coedge $-1 $443 $187 $440 $444 reversed $117 $-1 #
coedge $-1 $187 $443 $445 $446 reversed $117 $-1 #
coedge $-1 $312 $302 $187 $306 reversed $185 $-1 #
edge $-1 $447 -23.060780287008836 $448 23.060780287008836 $305 $449 forward 7 unknown #
coedge $-1 $189 $188 $450 $451 reversed $74 $-1 #
coedge $-1 $452 $453 $188 $309 forward $454 $-1 #
edge $-1 $455 -29.076575481297791 $314 -24.819591467419837 $308 $456 forward 7 unknown #
coedge $-1 $457 $441 $189 $311 forward $300 $-1 #
edge $-1 $313 24.819591467419837 $458 29.076575481297791 $310 $459 forward 7 unknown #
coedge $-1 $190 $305 $452 $460 reversed $185 $-1 #
vertex $-1 $311 $461 #
vertex $-1 $309 $462 #
straight-curve $-1 -51.767674941778651 0 -1.2525602954235042 0 1 0 I I #
face $-1 $-1 $328 $44 $-1 $463 reversed single #
loop $-1 $-1 $464 $192 #
plane-surface $-1 0 0 4.7525602954235042 0 0 1 1 0 0 forward_v I I I I #
coedge $-1 $465 $466 $467 $468 reversed $193 $-1 #
coedge $-1 $469 $195 $197 $326 forward $121 $-1 #
coedge $-1 $195 $469 $465 $470 forward $121 $-1 #
coedge $-1 $467 $198 $195 $323 forward $328 $-1 #
edge $-1 $330 -29.591678315210132 $471 -6.7579743081666805 $322 $472 forward 7 unknown #
coedge $-1 $473 $474 $196 $325 forward $317 $-1 #
edge $-1 $475 -36.263992116292172 $329 -33.794511514175312 $324 $476 forward 7 unknown #
edge $-1 $330 6.040265601636166e-015 $475 4.2013314213127879 $197 $477 forward 7 unknown #
coedge $-1 $198 $467 $473 $478 reversed $328 $-1 #
loop $-1 $-1 $467 $316 #
vertex $-1 $478 $479 #
vertex $-1 $199 $480 #
straight-curve $-1 -47.766504626898538 -23.060780287008839 33.607273538887611 0 0 -1 I I #
coedge $-1 $332 $332 $-1 $481 reversed $202 $-1 #
edge $-1 $482 0 $482 6.2831853071796004 $203 $483 forward 7 unknown #
vertex $-1 $206 $484 #
ellipse-curve $-1 -41.242589196314697 -21.826039985950406 3.053086018810391 0 -0.80901700255871778 0.5877852410284794 1 0 0 1 I I #
coedge $-1 $336 $336 $-1 $485 reversed $209 $-1 #
edge $-1 $486 0 $486 6.2831853071796004 $210 $487 forward 7 unknown #
vertex $-1 $213 $488 #
ellipse-curve $-1 -31.456716050438931 -21.826039985950406 3.053086018810391 0 -0.80901700255871778 0.5877852410284794 1 0 0 1 I I #
face $-1 $-1 $489 $47 $-1 $490 forward single #
loop $-1 $-1 $220 $214 #
plane-surface $-1 0 -23.060780287008836 0 0 1 0 0 0 1 forward_v I I I I #
coedge $-1 $491 $492 $493 $494 reversed $215 $-1 #
coedge $-1 $495 $217 $219 $350 forward $135 $-1 #
coedge $-1 $217 $495 $491 $496 forward $135 $-1 #
coedge $-1 $493 $220 $217 $347 forward $341 $-1 #
edge $-1 $353 -2.643594840851323 $497 20.19010916619213 $346 $498 forward 7 unknown #
coedge $-1 $499 $500 $218 $349 forward $489 $-1 #
edge $-1 $501 -36.263992116292172 $352 -33.794511514175312 $348 $502 forward 7 unknown #
edge $-1 $353 6.040265601636166e-015 $501 4.2013314213127879 $219 $503 forward 7 unknown #
coedge $-1 $220 $493 $499 $504 reversed $341 $-1 #
vertex $-1 $504 $505 #
vertex $-1 $221 $506 #
straight-curve $-1 6.1296623218190813 -23.060780287008839 33.607273538887611 0 0 -1 I I #
coedge $-1 $355 $355 $-1 $507 reversed $224 $-1 #
edge $-1 $508 0 $508 6.2831853071796004 $225 $509 forward 7 unknown #
vertex $-1 $228 $510 #
ellipse-curve $-1 12.653577752402924 -21.826039985950406 3.053086018810391 0 -0.80901700255871778 0.5877852410284794 1 0 0 1 I I #
coedge $-1 $359 $359 $-1 $511 reversed $231 $-1 #
edge $-1 $512 0 $512 6.2831853071796004 $232 $513 forward 7 unknown #
vertex $-1 $235 $514 #
ellipse-curve $-1 22.439450898278693 -21.826039985950406 3.053086018810391 0 -0.80901700255871778 0.5877852410284794 1 0 0 1 I I #
face $-1 $-1 $375 $50 $-1 $515 forward single #
loop $-1 $-1 $516 $236 #
plane-surface $-1 0 23.060780287008836 0 0 -1 0 0 0 -1 forward_v I I I I #
coedge $-1 $517 $518 $519 $520 reversed $237 $-1 #
coedge $-1 $521 $239 $241 $373 forward $149 $-1 #
coedge $-1 $239 $521 $517 $522 forward $149 $-1 #
coedge $-1 $519 $242 $239 $370 forward $375 $-1 #
edge $-1 $377 -16.352451665649017 $523 -3.3097667747570707 $369 $524 forward 7 unknown #
coedge $-1 $525 $526 $240 $372 forward $364 $-1 #
edge $-1 $527 -50.865723351413507 $376 -46.43113451984977 $371 $528 forward 7 unknown #
edge $-1 $377 40.707927270594354 $527 46.121560574017664 $241 $529 forward 7 unknown #
coedge $-1 $242 $519 $525 $530 forward $375 $-1 #
loop $-1 $-1 $519 $363 #
vertex $-1 $372 $531 #
vertex $-1 $243 $532 #
straight-curve $-1 -26.18356088585206 44.195984604703241 4.7525602954235069 0 -1 0 I I #
coedge $-1 $379 $379 $-1 $533 reversed $246 $-1 #
edge $-1 $534 0 $534 6.2831853071796004 $247 $535 forward 7 unknown #
vertex $-1 $250 $536 #
ellipse-curve $-1 -22.457079488454355 21.508214069507613 2.5352658796416385 0 0.81915205242281985 0.57357642473473569 1 0 0 1 I I #
coedge $-1 $383 $383 $-1 $537 reversed $253 $-1 #
edge $-1 $538 0 $538 6.2831853071796004 $254 $539 forward 7 unknown #
vertex $-1 $257 $540 #
ellipse-curve $-1 -16.867357392357803 21.508214069507613 2.5352658796416385 0 0.81915205242281985 0.57357642473473569 1 0 0 1 I I #
face $-1 $-1 $541 $53 $-1 $542 reversed single #
loop $-1 $-1 $264 $258 #
plane-surface $-1 0 0 4.7525602954235042 0 0 1 1 0 0 forward_v I I I I #
coedge $-1 $543 $544 $545 $546 reversed $259 $-1 #
coedge $-1 $547 $261 $263 $397 forward $163 $-1 #
coedge $-1 $261 $547 $543 $548 forward $163 $-1 #
coedge $-1 $545 $264 $261 $394 forward $388 $-1 #
edge $-1 $400 10.595631808709797 $549 23.638316699601745 $393 $550 forward 7 unknown #
coedge $-1 $551 $552 $262 $396 forward $541 $-1 #
edge $-1 $553 -50.865723351413507 $399 -46.43113451984977 $395 $554 forward 7 unknown #
edge $-1 $400 40.707927270594354 $553 46.121560574017664 $263 $555 forward 7 unknown #
coedge $-1 $264 $545 $551 $556 forward $388 $-1 #
vertex $-1 $265 $557 #
vertex $-1 $265 $558 #
straight-curve $-1 27.712606062865568 44.195984604703241 4.7525602954235069 0 -1 0 I I #
coedge $-1 $402 $402 $-1 $559 reversed $268 $-1 #
edge $-1 $560 0 $560 6.2831853071796004 $269 $561 forward 7 unknown #
vertex $-1 $272 $562 #
ellipse-curve $-1 31.439087460263266 21.508214069507613 2.5352658796416385 0 0.81915205242281985 0.57357642473473569 1 0 0 1 I I #
coedge $-1 $406 $406 $-1 $563 reversed $275 $-1 #
edge $-1 $564 0 $564 6.2831853071796004 $276 $565 forward 7 unknown #
vertex $-1 $279 $566 #
ellipse-curve $-1 37.028809556359818 21.508214069507613 2.5352658796416385 0 0.81915205242281985 0.57357642473473569 1 0 0 1 I I #
face $-1 $-1 $295 $42 $-1 $567 reversed single #
loop $-1 $-1 $426 $280 #
plane-surface $-1 0 23.060780287008836 0 0 -1 0 0 0 -1 forward_v I I I I #
coedge $-1 $568 $424 $427 $569 forward $281 $-1 #
coedge $-1 $430 $283 $284 $418 reversed $177 $-1 #
coedge $-1 $424 $568 $283 $416 reversed $281 $-1 #
edge $-1 $431 -4.7525602954235042 $570 4.7525602954235042 $415 $571 forward 7 unknown #
coedge $-1 $285 $284 $568 $572 forward $113 $-1 #
edge $-1 $422 -56.024658955656605 $570 56.024658955656605 $414 $573 forward 7 unknown #
coedge $-1 $427 $426 $285 $420 reversed $411 $-1 #
edge $-1 $574 -56.024658955656605 $421 56.024658955656605 $419 $575 forward 7 unknown #
vertex $-1 $287 $576 #
vertex $-1 $433 $577 #
straight-curve $-1 56.024658955656605 0 -4.7525602954235042 0 -1 0 I I #
coedge $-1 $413 $415 $288 $425 reversed $281 $-1 #
edge $-1 $428 -23.060780287008836 $431 23.060780287008836 $424 $578 forward 7 unknown #
coedge $-1 $419 $289 $294 $434 forward $411 $-1 #
coedge $-1 $289 $419 $413 $569 reversed $411 $-1 #
vertex $-1 $290 $579 #
straight-curve $-1 0 23.060780287008836 4.7525602954235042 -1 0 0 I I #
coedge $-1 $291 $414 $293 $433 reversed $177 $-1 #
vertex $-1 $425 $580 #
straight-curve $-1 0 -23.060780287008836 4.7525602954235042 1 0 0 I I #
edge $-1 $296 -4.7525602954235042 $422 4.7525602954235042 $293 $581 forward 7 unknown #
edge $-1 $297 -4.7525602954235042 $421 4.7525602954235042 $294 $582 forward 7 unknown #
point $-1 56.024658955656605 -23.060780287008836 4.7525602954235042 #
point $-1 56.024658955656605 23.060780287008836 4.7525602954235042 #
face $-1 $-1 $454 $43 $-1 $583 reversed single #
loop $-1 $-1 $584 $299 #
plane-surface $-1 -56.024658955656605 0 0 1 0 0 0 0 -1 forward_v I I I I #
coedge $-1 $441 $457 $303 $444 forward $300 $-1 #
coedge $-1 $310 $440 $302 $442 forward $300 $-1 #
edge $-1 $448 -2.8762801477117521 $313 0.12371985228824789 $441 $585 forward 7 unknown #
coedge $-1 $304 $303 $584 $586 reversed $117 $-1 #
edge $-1 $587 -29.076575481297791 $448 -24.819591467419837 $440 $588 forward 7 unknown #
coedge $-1 $453 $452 $304 $446 forward $454 $-1 #
edge $-1 $447 24.819591467419837 $589 29.076575481297791 $445 $590 forward 7 unknown #
vertex $-1 $446 $591 #
vertex $-1 $444 $592 #
straight-curve $-1 -51.767674941778651 0 -4.2525602954235042 0 -1 0 I I #
coedge $-1 $593 $594 $307 $451 forward $438 $-1 #
edge $-1 $458 -23.060780287008836 $455 23.060780287008836 $450 $595 forward 7 unknown #
coedge $-1 $445 $308 $312 $460 forward $454 $-1 #
coedge $-1 $308 $445 $593 $596 reversed $454 $-1 #
loop $-1 $-1 $445 $437 #
vertex $-1 $596 $597 #
straight-curve $-1 -26.948083474358814 23.060780287008836 -1.2525602954235042 1 0 0 I I #
coedge $-1 $440 $310 $594 $598 forward $300 $-1 #
vertex $-1 $598 $599 #
straight-curve $-1 -26.948083474358814 -23.060780287008836 -1.2525602954235042 -1 0 0 I I #
edge $-1 $314 -0.12371985228824789 $447 2.8762801477117521 $452 $600 forward 7 unknown #
point $-1 -51.767674941778651 -23.060780287008836 -1.2525602954235042 #
point $-1 -51.767674941778651 23.060780287008836 -1.2525602954235042 #
plane-surface $-1 0 -23.060780287008836 0 0 1 0 0 0 1 forward_v I I I I #
coedge $-1 $474 $473 $466 $601 forward $317 $-1 #
coedge $-1 $466 $319 $321 $470 reversed $193 $-1 #
coedge $-1 $319 $465 $464 $601 reversed $193 $-1 #
coedge $-1 $327 $322 $319 $468 forward $328 $-1 #
edge $-1 $471 -32.253661796690331 $602 -28.854713243464108 $467 $603 forward 7 unknown #
coedge $-1 $321 $320 $474 $604 reversed $121 $-1 #
edge $-1 $605 -4.2013314213127879 $471 -6.040265601636166e-015 $465 $606 forward 7 unknown #
vertex $-1 $323 $607 #
straight-curve $-1 -18.174826311688406 -23.060780287008836 1.3536117421972818 1 0 0 I I #
coedge $-1 $464 $324 $327 $478 forward $317 $-1 #
coedge $-1 $324 $464 $469 $604 forward $317 $-1 #
vertex $-1 $325 $608 #
straight-curve $-1 -47.766504626898538 -56.855291801184151 4.7525602954235033 0 -1 0 I I #
straight-curve $-1 -47.766504626898538 -23.060780287008839 1.3536117421972733 0 0.5877852410284794 0.80901700255871778 I I #
edge $-1 $329 -47.766504626898538 $602 -24.932800619855087 $327 $609 forward 7 unknown #
point $-1 -47.766504626898538 -23.060780287008836 4.7525602954235042 #
point $-1 -47.766504626898538 -23.060780287008836 1.3536117421972782 #
edge $-1 $610 1 $610 0 $332 $-1 forward 7 unknown #
vertex $-1 $333 $611 #
ellipse-curve $-1 -41.242589196314697 -18.904176827382216 0.93022823525399567 0 -0.80901700255871778 0.5877852410284794 1 0 0 1 I I #
point $-1 -40.242589196314697 -21.826039985950402 3.0530860188103883 #
edge $-1 $612 1 $612 0 $336 $-1 forward 7 unknown #
vertex $-1 $337 $613 #
ellipse-curve $-1 -31.456716050438931 -18.904176827382216 0.93022823525399567 0 -0.80901700255871778 0.5877852410284794 1 0 0 1 I I #
point $-1 -30.456716050438931 -21.826039985950402 3.0530860188103883 #
loop $-1 $-1 $348 $340 #
plane-surface $-1 0 0 4.7525602954235042 0 0 1 1 0 0 forward_v I I I I #
coedge $-1 $492 $343 $345 $496 reversed $215 $-1 #
coedge $-1 $343 $491 $614 $615 reversed $215 $-1 #
coedge $-1 $351 $346 $343 $494 forward $341 $-1 #
edge $-1 $497 -32.253661796690331 $616 -28.854713243464108 $493 $617 forward 7 unknown #
coedge $-1 $345 $344 $500 $618 reversed $135 $-1 #
edge $-1 $619 -4.2013314213127879 $497 -6.040265601636166e-015 $491 $620 forward 7 unknown #
vertex $-1 $347 $621 #
straight-curve $-1 8.7732571626704043 -23.060780287008836 1.3536117421972818 1 0 0 I I #
coedge $-1 $614 $348 $351 $504 forward $489 $-1 #
coedge $-1 $348 $614 $495 $618 forward $489 $-1 #
vertex $-1 $349 $622 #
straight-curve $-1 6.1296623218190813 -56.855291801184151 4.7525602954235033 0 -1 0 I I #
straight-curve $-1 6.1296623218190813 -23.060780287008839 1.3536117421972733 0 0.5877852410284794 0.80901700255871778 I I #
edge $-1 $352 6.1296623218190813 $616 28.963366328862534 $351 $623 forward 7 unknown #
point $-1 6.1296623218190813 -23.060780287008836 4.7525602954235042 #
point $-1 6.1296623218190813 -23.060780287008836 1.3536117421972782 #
edge $-1 $624 1 $624 0 $355 $-1 forward 7 unknown #
vertex $-1 $356 $625 #
ellipse-curve $-1 12.653577752402924 -18.904176827382216 0.93022823525399567 0 -0.80901700255871778 0.5877852410284794 1 0 0 1 I I #
point $-1 13.653577752402924 -21.826039985950402 3.0530860188103883 #
edge $-1 $626 1 $626 0 $359 $-1 forward 7 unknown #
vertex $-1 $360 $627 #
ellipse-curve $-1 22.439450898278693 -18.904176827382216 0.93022823525399567 0 -0.80901700255871778 0.5877852410284794 1 0 0 1 I I #
point $-1 23.439450898278693 -21.826039985950402 3.0530860188103883 #
plane-surface $-1 0 0 4.7525602954235042 0 0 1 1 0 0 forward_v I I I I #
coedge $-1 $526 $525 $518 $628 forward $364 $-1 #
coedge $-1 $518 $366 $368 $522 reversed $237 $-1 #
coedge $-1 $366 $517 $516 $628 reversed $237 $-1 #
coedge $-1 $374 $369 $366 $520 forward $375 $-1 #
edge $-1 $523 -24.240336752696845 $629 -21.135204317694406 $519 $630 forward 7 unknown #
coedge $-1 $368 $367 $526 $631 reversed $149 $-1 #
edge $-1 $632 -46.121560574017664 $523 -40.707927270594354 $517 $633 forward 7 unknown #
vertex $-1 $370 $634 #
straight-curve $-1 -9.831109220203043 19.9556478520064 4.7525602954235033 1 0 0 I I #
coedge $-1 $516 $371 $374 $530 reversed $364 $-1 #
coedge $-1 $371 $516 $521 $631 forward $364 $-1 #
vertex $-1 $372 $635 #
straight-curve $-1 -26.18356088585206 23.060780287008839 51.183694815273277 0 0 1 I I #
straight-curve $-1 -26.18356088585206 -3.3934595302227564 38.098542469009743 0 0.57357642473473569 -0.81915205242281985 I I #
edge $-1 $629 13.140875994960114 $376 26.18356088585206 $525 $636 forward 7 unknown #
point $-1 -26.18356088585206 23.060780287008836 4.7525602954235042 #
point $-1 -26.18356088585206 19.955647852006397 4.7525602954235069 #
edge $-1 $637 1 $637 0 $379 $-1 forward 7 unknown #
vertex $-1 $380 $638 #
ellipse-curve $-1 -22.457079488454355 18.36840202763327 0.33674588571531061 0 0.81915205242281985 0.57357642473473569 1 0 0 1 I I #
point $-1 -21.457079488454355 21.508214069507609 2.535265879641635 #
edge $-1 $639 1 $639 0 $383 $-1 forward 7 unknown #
vertex $-1 $384 $640 #
ellipse-curve $-1 -16.867357392357803 18.36840202763327 0.33674588571531061 0 0.81915205242281985 0.57357642473473569 1 0 0 1 I I #
point $-1 -15.867357392357803 21.508214069507609 2.535265879641635 #
loop $-1 $-1 $395 $387 #
plane-surface $-1 0 23.060780287008836 0 0 -1 0 0 0 -1 forward_v I I I I #
coedge $-1 $544 $390 $392 $548 reversed $259 $-1 #
coedge $-1 $390 $543 $641 $642 reversed $259 $-1 #
coedge $-1 $398 $393 $390 $546 forward $388 $-1 #
edge $-1 $549 -24.240336752696845 $643 -21.135204317694406 $545 $644 forward 7 unknown #
coedge $-1 $392 $391 $552 $645 reversed $163 $-1 #
edge $-1 $646 -46.121560574017664 $549 -40.707927270594354 $543 $647 forward 7 unknown #
vertex $-1 $394 $648 #
straight-curve $-1 17.116974254155771 19.9556478520064 4.7525602954235033 1 0 0 I I #
coedge $-1 $641 $395 $398 $556 reversed $541 $-1 #
coedge $-1 $395 $641 $547 $645 forward $541 $-1 #
vertex $-1 $396 $649 #
straight-curve $-1 27.712606062865568 23.060780287008839 51.183694815273277 0 0 1 I I #
straight-curve $-1 27.712606062865568 -3.3934595302227564 38.098542469009743 0 0.57357642473473569 -0.81915205242281985 I I #
edge $-1 $643 -40.755290953757516 $399 -27.712606062865568 $551 $650 forward 7 unknown #
point $-1 27.712606062865568 23.060780287008836 4.7525602954235042 #
point $-1 27.712606062865568 19.955647852006397 4.7525602954235069 #
edge $-1 $651 1 $651 0 $402 $-1 forward 7 unknown #
vertex $-1 $403 $652 #
ellipse-curve $-1 31.439087460263266 18.36840202763327 0.33674588571531061 0 0.81915205242281985 0.57357642473473569 1 0 0 1 I I #
point $-1 32.439087460263266 21.508214069507609 2.535265879641635 #
edge $-1 $653 1 $653 0 $406 $-1 forward 7 unknown #
vertex $-1 $407 $654 #
ellipse-curve $-1 37.028809556359818 18.36840202763327 0.33674588571531061 0 0.81915205242281985 0.57357642473473569 1 0 0 1 I I #
point $-1 38.028809556359818 21.508214069507609 2.535265879641635 #
plane-surface $-1 56.024658955656605 0 0 -1 0 0 0 0 1 forward_v I I I I #
coedge $-1 $415 $413 $417 $572 reversed $281 $-1 #
edge $-1 $428 -4.7525602954235042 $574 4.7525602954235042 $427 $655 forward 7 unknown #
vertex $-1 $572 $656 #
straight-curve $-1 -56.024658955656605 -23.060780287008836 0 0 0 -1 I I #
edge $-1 $570 -23.060780287008836 $574 23.060780287008836 $568 $657 forward 7 unknown #
straight-curve $-1 0 -23.060780287008836 -4.7525602954235042 -1 0 0 I I #
vertex $-1 $420 $658 #
straight-curve $-1 0 23.060780287008836 -4.7525602954235042 1 0 0 I I #
point $-1 56.024658955656605 23.060780287008836 -4.7525602954235042 #
point $-1 56.024658955656605 -23.060780287008836 -4.7525602954235042 #
straight-curve $-1 -56.024658955656605 0 4.7525602954235042 0 -1 0 I I #
point $-1 -56.024658955656605 23.060780287008836 4.7525602954235042 #
point $-1 -56.024658955656605 -23.060780287008836 4.7525602954235042 #
straight-curve $-1 56.024658955656605 -23.060780287008836 0 0 0 -1 I I #
straight-curve $-1 56.024658955656605 23.060780287008836 0 0 0 -1 I I #
plane-surface $-1 0 23.060780287008836 0 0 -1 0 0 0 -1 forward_v I I I I #
coedge $-1 $594 $593 $443 $586 forward $438 $-1 #
straight-curve $-1 -51.767674941778651 -23.060780287008836 -1.3762801477117521 0 0 1 I I #
edge $-1 $589 -23.060780287008836 $587 23.060780287008836 $584 $659 forward 7 unknown #
vertex $-1 $444 $660 #
straight-curve $-1 -26.948083474358814 -23.060780287008836 -4.2525602954235042 1 0 0 I I #
vertex $-1 $446 $661 #
straight-curve $-1 -26.948083474358814 23.060780287008836 -4.2525602954235042 -1 0 0 I I #
point $-1 -51.767674941778651 23.060780287008836 -4.2525602954235042 #
point $-1 -51.767674941778651 -23.060780287008836 -4.2525602954235042 #
coedge $-1 $584 $450 $453 $596 forward $438 $-1 #
coedge $-1 $450 $584 $457 $598 reversed $438 $-1 #
straight-curve $-1 -56.024658955656605 0 -1.2525602954235042 0 1 0 I I #
edge $-1 $455 1.2525602954235042 $589 4.2525602954235042 $453 $662 forward 7 unknown #
point $-1 -56.024658955656605 23.060780287008836 -1.2525602954235042 #
edge $-1 $458 1.2525602954235042 $587 4.2525602954235042 $594 $663 forward 7 unknown #
point $-1 -56.024658955656605 -23.060780287008836 -1.2525602954235042 #
straight-curve $-1 -51.767674941778651 23.060780287008836 -1.3762801477117521 0 0 -1 I I #
edge $-1 $602 33.794511514175312 $605 36.263992116292172 $464 $664 forward 7 unknown #
vertex $-1 $601 $665 #
straight-curve $-1 -24.932800619855087 -23.060780287008839 33.607273538887611 0 0 1 I I #
edge $-1 $605 6.7579743081666805 $475 29.591678315210132 $474 $666 forward 7 unknown #
vertex $-1 $604 $667 #
straight-curve $-1 -24.932800619855087 -23.060780287008839 1.3536117421972733 0 -0.5877852410284794 -0.80901700255871778 I I #
point $-1 -24.932800619855087 -23.060780287008836 1.3536117421972782 #
point $-1 -47.766504626898538 -20.591299684891979 4.7525602954235033 #
straight-curve $-1 0 -23.060780287008836 4.7525602954235042 1 0 0 I I #
vertex $-1 $481 $668 #
point $-1 -40.242589196314697 -18.904176827382216 0.93022823525399567 #
vertex $-1 $485 $669 #
point $-1 -30.456716050438931 -18.904176827382216 0.93022823525399567 #
coedge $-1 $500 $499 $492 $615 forward $489 $-1 #
edge $-1 $616 33.794511514175312 $619 36.263992116292172 $614 $670 forward 7 unknown #
vertex $-1 $615 $671 #
straight-curve $-1 28.963366328862534 -23.060780287008839 33.607273538887611 0 0 1 I I #
edge $-1 $619 -20.19010916619213 $501 2.643594840851323 $500 $672 forward 7 unknown #
vertex $-1 $618 $673 #
straight-curve $-1 28.963366328862534 -23.060780287008839 1.3536117421972733 0 -0.5877852410284794 -0.80901700255871778 I I #
point $-1 28.963366328862534 -23.060780287008836 1.3536117421972782 #
point $-1 6.1296623218190813 -20.591299684891979 4.7525602954235033 #
straight-curve $-1 0 -23.060780287008836 4.7525602954235042 1 0 0 I I #
vertex $-1 $507 $674 #
point $-1 13.653577752402924 -18.904176827382216 0.93022823525399567 #
vertex $-1 $511 $675 #
point $-1 23.439450898278693 -18.904176827382216 0.93022823525399567 #
edge $-1 $629 46.43113451984977 $632 50.865723351413507 $516 $676 forward 7 unknown #
vertex $-1 $530 $677 #
straight-curve $-1 -13.140875994960114 44.195984604703241 4.7525602954235069 0 1 0 I I #
edge $-1 $632 3.3097667747570707 $527 16.352451665649017 $526 $678 forward 7 unknown #
vertex $-1 $631 $679 #
straight-curve $-1 -13.140875994960114 -3.3934595302227564 38.098542469009743 0 -0.57357642473473569 0.81915205242281985 I I #
point $-1 -13.140875994960114 19.955647852006397 4.7525602954235069 #
point $-1 -26.18356088585206 23.060780287008836 0.31797146385977015 #
straight-curve $-1 0 23.060780287008836 4.7525602954235042 -1 0 0 I I #
vertex $-1 $533 $680 #
point $-1 -21.457079488454355 18.36840202763327 0.33674588571531061 #
vertex $-1 $537 $681 #
point $-1 -15.867357392357803 18.36840202763327 0.33674588571531061 #
coedge $-1 $552 $551 $544 $642 forward $541 $-1 #
edge $-1 $643 46.43113451984977 $646 50.865723351413507 $641 $682 forward 7 unknown #
vertex $-1 $556 $683 #
straight-curve $-1 40.755290953757516 44.195984604703241 4.7525602954235069 0 1 0 I I #
edge $-1 $646 -23.638316699601745 $553 -10.595631808709797 $552 $684 forward 7 unknown #
vertex $-1 $645 $685 #
straight-curve $-1 40.755290953757516 -3.3934595302227564 38.098542469009743 0 -0.57357642473473569 0.81915205242281985 I I #
point $-1 40.755290953757516 19.955647852006397 4.7525602954235069 #
point $-1 27.712606062865568 23.060780287008836 0.31797146385977015 #
straight-curve $-1 0 23.060780287008836 4.7525602954235042 -1 0 0 I I #
vertex $-1 $559 $686 #
point $-1 32.439087460263266 18.36840202763327 0.33674588571531061 #
vertex $-1 $563 $687 #
point $-1 38.028809556359818 18.36840202763327 0.33674588571531061 #
straight-curve $-1 -56.024658955656605 23.060780287008836 0 0 0 -1 I I #
point $-1 -56.024658955656605 -23.060780287008836 -4.7525602954235042 #
straight-curve $-1 -56.024658955656605 0 -4.7525602954235042 0 1 0 I I #
point $-1 -56.024658955656605 23.060780287008836 -4.7525602954235042 #
straight-curve $-1 -56.024658955656605 0 -4.2525602954235042 0 -1 0 I I #
point $-1 -56.024658955656605 -23.060780287008836 -4.2525602954235042 #
point $-1 -56.024658955656605 23.060780287008836 -4.2525602954235042 #
straight-curve $-1 -56.024658955656605 23.060780287008836 0 0 0 -1 I I #
straight-curve $-1 -56.024658955656605 -23.060780287008836 0 0 0 -1 I I #
straight-curve $-1 -24.932800619855087 -56.855291801184151 4.7525602954235033 0 1 0 I I #
point $-1 -24.932800619855087 -23.060780287008836 4.7525602954235042 #
straight-curve $-1 -18.174826311688406 -20.591299684891979 4.7525602954235051 -1 0 0 I I #
point $-1 -24.932800619855087 -20.591299684891979 4.7525602954235033 #
point $-1 -41.242589196314697 -18.095159824823497 0.34244299422551605 #
point $-1 -31.456716050438931 -18.095159824823497 0.34244299422551605 #
straight-curve $-1 28.963366328862534 -56.855291801184151 4.7525602954235033 0 1 0 I I #
point $-1 28.963366328862534 -23.060780287008836 4.7525602954235042 #
straight-curve $-1 8.7732571626704043 -20.591299684891979 4.7525602954235051 -1 0 0 I I #
point $-1 28.963366328862534 -20.591299684891979 4.7525602954235033 #
point $-1 12.653577752402924 -18.095159824823497 0.34244299422551605 #
point $-1 22.439450898278693 -18.095159824823497 0.34244299422551605 #
straight-curve $-1 -13.140875994960114 23.060780287008839 51.183694815273277 0 0 -1 I I #
point $-1 -13.140875994960114 23.060780287008836 4.7525602954235042 #
straight-curve $-1 -9.831109220203043 23.060780287008836 0.31797146385977015 -1 0 0 I I #
point $-1 -13.140875994960114 23.060780287008836 0.31797146385977015 #
point $-1 -22.457079488454355 17.549249975210447 -0.23683053901942508 #
point $-1 -16.867357392357803 17.549249975210447 -0.23683053901942508 #
straight-curve $-1 40.755290953757516 23.060780287008839 51.183694815273277 0 0 -1 I I #
point $-1 40.755290953757516 23.060780287008836 4.7525602954235042 #
straight-curve $-1 17.116974254155771 23.060780287008836 0.31797146385977015 -1 0 0 I I #
point $-1 40.755290953757516 23.060780287008836 0.31797146385977015 #
point $-1 31.439087460263266 17.549249975210447 -0.23683053901942508 #
point $-1 37.028809556359818 17.549249975210447 -0.23683053901942508 #
End-of-ACIS-data 