500 0 5 0           
7 Unknown 11 ACIS 5.0 NT 24 Fri Mar 26 15:06:20 1999 
-1 9.9999999999999995e-007 1e-010 
body $-1 $5 $-1 $6 #
body $-1 $7 $-1 $8 #
body $-1 $9 $-1 $10 #
body $-1 $11 $-1 $12 #
body $-1 $13 $-1 $14 #
lump $-1 $-1 $15 $0 #
transform $-1 1 0 0 0 1 0 0 0 1 51.999877925962096 25.599390570131145 6.1441037385094575 1 rotate no_reflect no_shear #
lump $-1 $-1 $16 $1 #
transform $-1 1 0 0 0 1 0 0 0 1 51.999877925962096 25.599390570131145 6.1441037385094575 1 rotate no_reflect no_shear #
lump $-1 $-1 $17 $2 #
transform $-1 1 0 0 0 1 0 0 0 1 51.999877925962096 25.599390570131145 6.1441037385094575 1 rotate no_reflect no_shear #
lump $-1 $-1 $18 $3 #
transform $-1 1 0 0 0 1 0 0 0 1 51.999877925962096 25.599390570131145 6.1441037385094575 1 rotate no_reflect no_shear #
lump $-1 $-1 $19 $4 #
transform $-1 1 0 0 0 1 0 0 0 1 51.999877925962096 25.599390570131145 6.1441037385094575 1 rotate no_reflect no_shear #
shell $-1 $-1 $-1 $20 $-1 $5 #
shell $-1 $-1 $-1 $21 $-1 $7 #
shell $-1 $-1 $-1 $22 $-1 $9 #
shell $-1 $-1 $-1 $23 $-1 $11 #
shell $-1 $-1 $-1 $24 $-1 $13 #
face $-1 $25 $26 $15 $-1 $27 forward single #
face $-1 $28 $29 $16 $-1 $30 forward single #
face $-1 $31 $32 $17 $-1 $33 reversed single #
face $-1 $34 $35 $18 $-1 $36 forward single #
face $-1 $37 $38 $19 $-1 $39 forward single #
face $-1 $40 $41 $15 $-1 $42 reversed single #
loop $-1 $-1 $43 $20 #
plane-surface $-1 0 0 6.1441037385094575 0 0 1 1 0 0 forward_v I I I I #
face $-1 $44 $45 $16 $-1 $46 reversed single #
loop $-1 $-1 $47 $21 #
plane-surface $-1 -51.999877925962096 0 0 1 0 0 0 0 -1 forward_v I I I I #
face $-1 $48 $49 $17 $-1 $50 reversed single #
loop $-1 $-1 $51 $22 #
plane-surface $-1 27.34033635546804 57.140702197299035 112.56889412152306 1 0 0 0 -0.66913061440640931 -0.74314481823134659 forward_v I I I I #
face $-1 $52 $53 $18 $-1 $54 forward single #
loop $-1 $55 $56 $23 #
cone-surface $-1 32.918206524504399 21.159311696408217 1.8106433989916222 0 -0.66913061440640931 -0.74314481823134659 1.5 0 0 1 I I 0 1 1.5 forward I I I I #
face $-1 $57 $58 $19 $-1 $59 forward single #
loop $-1 $60 $61 $24 #
cone-surface $-1 41.28501177805893 21.159311696408217 1.8106433989916222 0 -0.66913061440640931 -0.74314481823134659 1.5 0 0 1 I I 0 1 1.5 forward I I I I #
face $-1 $62 $63 $15 $-1 $64 reversed single #
loop $-1 $-1 $65 $25 #
plane-surface $-1 0 0 -6.1441037385094575 0 0 1 1 0 0 forward_v I I I I #
coedge $-1 $66 $67 $68 $69 forward $26 $-1 #
face $-1 $70 $71 $16 $-1 $72 forward single #
loop $-1 $-1 $73 $28 #
plane-surface $-1 0 25.599390570131145 0 0 -1 0 0 0 -1 forward_v I I I I #
coedge $-1 $74 $75 $76 $77 forward $29 $-1 #
face $-1 $78 $79 $17 $-1 $80 reversed single #
loop $-1 $-1 $81 $31 #
plane-surface $-1 37.101609151281664 -12.448718334015567 35.282014462840436 0 0.66913061440640931 0.74314481823134659 1 0 0 forward_v I I I I #
coedge $-1 $82 $83 $84 $85 reversed $32 $-1 #
face $-1 $-1 $86 $18 $-1 $87 forward single #
loop $-1 $88 $89 $34 #
cone-surface $-1 32.918206524504399 19.060975513113338 -0.51979497574371791 0 -0.66913061440640931 -0.74314481823134659 0.75 0 0 1 I I -0.70710678118654757 0.70710678118654757 0.75 forward I I I I #
loop $-1 $-1 $90 $23 #
coedge $-1 $56 $56 $91 $92 reversed $35 $-1 #
face $-1 $-1 $93 $19 $-1 $94 forward single #
loop $-1 $95 $96 $37 #
cone-surface $-1 41.28501177805893 19.060975513113338 -0.51979497574371791 0 -0.66913061440640931 -0.74314481823134659 0.75 0 0 1 I I -0.70710678118654757 0.70710678118654757 0.75 forward I I I I #
loop $-1 $-1 $97 $24 #
coedge $-1 $61 $61 $98 $99 reversed $38 $-1 #
face $-1 $100 $101 $15 $-1 $102 reversed single #
loop $-1 $-1 $103 $40 #
plane-surface $-1 0 -25.599390570131145 0 0 1 0 0 0 1 forward_v I I I I #
coedge $-1 $104 $105 $106 $107 forward $41 $-1 #
coedge $-1 $108 $43 $109 $110 forward $26 $-1 #
coedge $-1 $43 $108 $111 $112 forward $26 $-1 #
coedge $-1 $113 $114 $43 $69 reversed $115 $-1 #
edge $-1 $116 -25.599390570131145 $117 25.599390570131145 $68 $118 forward 7 unknown #
face $-1 $119 $120 $16 $-1 $121 reversed single #
loop $-1 $-1 $76 $44 #
plane-surface $-1 -54.11164802661186 0 -3.1166227319715993 0 0 1 1 0 0 forward_v I I I I #
coedge $-1 $122 $123 $75 $124 forward $45 $-1 #
coedge $-1 $125 $47 $126 $127 reversed $29 $-1 #
coedge $-1 $47 $125 $73 $124 reversed $29 $-1 #
coedge $-1 $128 $129 $47 $77 reversed $71 $-1 #
edge $-1 $130 -25.599390570131145 $131 25.599390570131145 $76 $132 forward 7 unknown #
face $-1 $133 $134 $17 $-1 $135 forward single #
loop $-1 $-1 $136 $48 #
plane-surface $-1 46.862881947095289 57.140702197299035 112.56889412152306 -1 0 0 0 0.66913061440640931 0.74314481823134659 forward_v I I I I #
coedge $-1 $137 $138 $139 $140 reversed $49 $-1 #
coedge $-1 $83 $51 $141 $142 reversed $32 $-1 #
coedge $-1 $51 $82 $137 $143 reversed $32 $-1 #
coedge $-1 $139 $144 $51 $85 forward $134 $-1 #
edge $-1 $145 2.970960528518372 $146 8.6581418309840643 $84 $147 forward 7 unknown #
loop $-1 $-1 $91 $52 #
plane-surface $-1 37.101609151281664 -12.448718334015567 35.282014462840436 0 0.66913061440640931 0.74314481823134659 1 0 0 forward_v I I I I #
loop $-1 $-1 $148 $34 #
coedge $-1 $89 $89 $90 $149 reversed $53 $-1 #
coedge $-1 $90 $90 $89 $149 forward $55 $-1 #
coedge $-1 $91 $91 $56 $92 forward $86 $-1 #
edge $-1 $150 2.2090406488138358e-016 $150 6.2831853071796004 $91 $151 forward 7 unknown #
loop $-1 $-1 $98 $57 #
plane-surface $-1 37.101609151281664 -12.448718334015567 35.282014462840436 0 0.66913061440640931 0.74314481823134659 1 0 0 forward_v I I I I #
loop $-1 $-1 $152 $37 #
coedge $-1 $96 $96 $97 $153 reversed $58 $-1 #
coedge $-1 $97 $97 $96 $153 forward $60 $-1 #
coedge $-1 $98 $98 $61 $99 forward $93 $-1 #
edge $-1 $154 2.2090406488138358e-016 $154 6.2831853071796004 $98 $155 forward 7 unknown #
face $-1 $156 $157 $15 $-1 $158 reversed single #
loop $-1 $-1 $159 $62 #
plane-surface $-1 -51.999877925962096 0 0 1 0 0 0 0 -1 forward_v I I I I #
coedge $-1 $160 $111 $161 $162 forward $63 $-1 #
coedge $-1 $163 $65 $160 $164 forward $41 $-1 #
coedge $-1 $65 $163 $165 $166 forward $41 $-1 #
coedge $-1 $114 $113 $65 $107 reversed $115 $-1 #
edge $-1 $167 -25.599390570131145 $168 25.599390570131145 $106 $169 forward 7 unknown #
coedge $-1 $67 $66 $170 $171 forward $26 $-1 #
coedge $-1 $172 $173 $66 $110 reversed $157 $-1 #
edge $-1 $117 -51.999877925962096 $174 51.999877925962096 $109 $175 forward 7 unknown #
coedge $-1 $103 $176 $67 $112 reversed $63 $-1 #
edge $-1 $177 -51.999877925962096 $116 51.999877925962096 $111 $178 forward 7 unknown #
coedge $-1 $106 $68 $176 $179 forward $115 $-1 #
coedge $-1 $68 $106 $172 $180 reversed $115 $-1 #
loop $-1 $-1 $113 $156 #
vertex $-1 $69 $181 #
vertex $-1 $69 $182 #
straight-curve $-1 51.999877925962096 0 6.1441037385094575 0 1 0 I I #
face $-1 $183 $184 $16 $-1 $185 reversed single #
loop $-1 $-1 $186 $70 #
plane-surface $-1 -56.223418127261624 0 -4.6303632352405284 1 0 0 0 0 -1 forward_v I I I I #
coedge $-1 $187 $73 $188 $189 reversed $45 $-1 #
coedge $-1 $73 $187 $128 $190 reversed $45 $-1 #
edge $-1 $130 3.1166227319715993 $191 6.1441037385094575 $73 $192 forward 7 unknown #
coedge $-1 $75 $74 $193 $194 reversed $29 $-1 #
coedge $-1 $195 $196 $74 $127 forward $197 $-1 #
edge $-1 $198 -6.1441037385094575 $131 -3.1166227319715993 $126 $199 forward 7 unknown #
coedge $-1 $200 $76 $123 $190 forward $71 $-1 #
coedge $-1 $76 $200 $195 $201 forward $71 $-1 #
vertex $-1 $124 $202 #
vertex $-1 $201 $203 #
straight-curve $-1 -51.999877925962096 0 -3.1166227319715993 0 -1 0 I I #
face $-1 $-1 $204 $17 $-1 $205 reversed single #
loop $-1 $-1 $84 $78 #
plane-surface $-1 0 0 6.1441037385094575 0 0 1 1 0 0 forward_v I I I I #
coedge $-1 $206 $207 $208 $209 reversed $79 $-1 #
coedge $-1 $210 $81 $83 $143 forward $49 $-1 #
coedge $-1 $81 $210 $206 $211 forward $49 $-1 #
coedge $-1 $208 $84 $81 $140 forward $134 $-1 #
edge $-1 $146 8.7895317798272075 $212 28.312077371454457 $139 $213 forward 7 unknown #
coedge $-1 $214 $215 $82 $142 forward $204 $-1 #
edge $-1 $216 -55.261104479164082 $145 -50.140343322252072 $141 $217 forward 7 unknown #
edge $-1 $146 43.545923765839696 $216 51.198781140262291 $83 $218 forward 7 unknown #
coedge $-1 $84 $208 $214 $219 forward $134 $-1 #
vertex $-1 $142 $220 #
vertex $-1 $85 $221 #
straight-curve $-1 27.34033635546804 28.570351098649517 6.1441037385094575 0 -1 0 I I #
coedge $-1 $148 $148 $-1 $222 reversed $88 $-1 #
edge $-1 $223 0 $223 6.2831853071796004 $89 $224 forward 7 unknown #
vertex $-1 $92 $225 #
ellipse-curve $-1 32.918206524504399 22.755799918898298 3.5837231600534576 0 0.66913061440640931 0.74314481823134659 1.5 0 0 1 I I #
coedge $-1 $152 $152 $-1 $226 reversed $95 $-1 #
edge $-1 $227 0 $227 6.2831853071796004 $96 $228 forward 7 unknown #
vertex $-1 $99 $229 #
ellipse-curve $-1 41.28501177805893 22.755799918898298 3.5837231600534576 0 0.66913061440640931 0.74314481823134659 1.5 0 0 1 I I #
face $-1 $-1 $115 $15 $-1 $230 reversed single #
loop $-1 $-1 $172 $100 #
plane-surface $-1 0 25.599390570131145 0 0 -1 0 0 0 -1 forward_v I I I I #
coedge $-1 $231 $170 $173 $232 forward $101 $-1 #
coedge $-1 $176 $103 $104 $164 reversed $63 $-1 #
coedge $-1 $170 $231 $103 $162 reversed $101 $-1 #
edge $-1 $177 -6.1441037385094575 $233 6.1441037385094575 $161 $234 forward 7 unknown #
coedge $-1 $105 $104 $231 $235 forward $41 $-1 #
edge $-1 $168 -51.999877925962096 $233 51.999877925962096 $160 $236 forward 7 unknown #
coedge $-1 $173 $172 $105 $166 reversed $157 $-1 #
edge $-1 $237 -51.999877925962096 $167 51.999877925962096 $165 $238 forward 7 unknown #
vertex $-1 $107 $239 #
vertex $-1 $179 $240 #
straight-curve $-1 51.999877925962096 0 -6.1441037385094575 0 -1 0 I I #
coedge $-1 $159 $161 $108 $171 reversed $101 $-1 #
edge $-1 $174 -25.599390570131145 $177 25.599390570131145 $170 $241 forward 7 unknown #
coedge $-1 $165 $109 $114 $180 forward $157 $-1 #
coedge $-1 $109 $165 $159 $232 reversed $157 $-1 #
vertex $-1 $110 $242 #
straight-curve $-1 0 25.599390570131145 6.1441037385094575 -1 0 0 I I #
coedge $-1 $111 $160 $113 $179 reversed $63 $-1 #
vertex $-1 $171 $243 #
straight-curve $-1 0 -25.599390570131145 6.1441037385094575 1 0 0 I I #
edge $-1 $116 -6.1441037385094575 $168 6.1441037385094575 $113 $244 forward 7 unknown #
edge $-1 $117 -6.1441037385094575 $167 6.1441037385094575 $114 $245 forward 7 unknown #
point $-1 51.999877925962096 -25.599390570131145 6.1441037385094575 #
point $-1 51.999877925962096 25.599390570131145 6.1441037385094575 #
face $-1 $-1 $197 $16 $-1 $246 reversed single #
loop $-1 $-1 $193 $119 #
plane-surface $-1 0 0 -6.1441037385094575 0 0 1 1 0 0 forward_v I I I I #
coedge $-1 $247 $248 $187 $249 forward $120 $-1 #
coedge $-1 $123 $122 $186 $249 reversed $45 $-1 #
coedge $-1 $193 $250 $122 $189 forward $184 $-1 #
edge $-1 $251 -56.223418127261624 $191 -51.999877925962096 $122 $252 forward 7 unknown #
edge $-1 $130 -2.111770100649764 $253 2.111770100649764 $123 $254 forward 7 unknown #
vertex $-1 $124 $255 #
straight-curve $-1 -51.999877925962096 25.599390570131145 0 0 0 -1 I I #
coedge $-1 $256 $188 $125 $194 forward $184 $-1 #
edge $-1 $191 -25.599390570131145 $198 25.599390570131145 $193 $257 forward 7 unknown #
coedge $-1 $258 $126 $129 $201 reversed $197 $-1 #
coedge $-1 $126 $258 $256 $259 reversed $197 $-1 #
loop $-1 $-1 $126 $183 #
vertex $-1 $259 $260 #
straight-curve $-1 -51.999877925962096 -25.599390570131145 0 0 0 1 I I #
coedge $-1 $129 $128 $248 $261 forward $71 $-1 #
edge $-1 $262 -2.111770100649764 $131 2.111770100649764 $195 $263 forward 7 unknown #
point $-1 -51.999877925962096 25.599390570131145 -3.1166227319715993 #
point $-1 -51.999877925962096 -25.599390570131145 -3.1166227319715993 #
loop $-1 $-1 $141 $133 #
plane-surface $-1 0 25.599390570131145 0 0 -1 0 0 0 -1 forward_v I I I I #
coedge $-1 $207 $136 $138 $211 reversed $79 $-1 #
coedge $-1 $136 $206 $264 $265 reversed $79 $-1 #
coedge $-1 $144 $139 $136 $209 forward $134 $-1 #
edge $-1 $212 -8.6581418309840643 $266 -2.970960528518372 $208 $267 forward 7 unknown #
coedge $-1 $138 $137 $215 $268 reversed $49 $-1 #
edge $-1 $269 -51.198781140262291 $212 -43.545923765839696 $206 $270 forward 7 unknown #
vertex $-1 $140 $271 #
straight-curve $-1 18.550804575640832 19.912209267665453 6.1441037385094504 1 0 0 I I #
coedge $-1 $264 $141 $144 $219 reversed $204 $-1 #
coedge $-1 $141 $264 $210 $268 forward $204 $-1 #
vertex $-1 $142 $272 #
straight-curve $-1 27.34033635546804 25.599390570131145 56.284447060761529 0 0 1 I I #
straight-curve $-1 27.34033635546804 -12.448718334015567 35.282014462840436 0 0.74314481823134659 -0.66913061440640931 I I #
edge $-1 $266 -46.862881947095289 $145 -27.34033635546804 $214 $273 forward 7 unknown #
point $-1 27.34033635546804 25.599390570131145 6.1441037385094575 #
point $-1 27.34033635546804 19.912209267665453 6.144103738509461 #
edge $-1 $274 1 $274 0 $148 $-1 forward 7 unknown #
vertex $-1 $149 $275 #
ellipse-curve $-1 32.918206524504399 19.562823473918144 0.037563637929792004 0 0.66913061440640931 0.74314481823134659 1.5 0 0 1 I I #
point $-1 34.418206524504399 22.755799918898294 3.5837231600534531 #
edge $-1 $276 1 $276 0 $152 $-1 forward 7 unknown #
vertex $-1 $153 $277 #
ellipse-curve $-1 41.28501177805893 19.562823473918144 0.037563637929792004 0 0.66913061440640931 0.74314481823134659 1.5 0 0 1 I I #
point $-1 42.78501177805893 22.755799918898294 3.5837231600534531 #
plane-surface $-1 51.999877925962096 0 0 -1 0 0 0 0 1 forward_v I I I I #
coedge $-1 $161 $159 $163 $235 reversed $101 $-1 #
edge $-1 $174 -6.1441037385094575 $237 6.1441037385094575 $173 $278 forward 7 unknown #
vertex $-1 $235 $279 #
straight-curve $-1 -51.999877925962096 -25.599390570131145 0 0 0 -1 I I #
edge $-1 $233 -25.599390570131145 $237 25.599390570131145 $231 $280 forward 7 unknown #
straight-curve $-1 0 -25.599390570131145 -6.1441037385094575 -1 0 0 I I #
vertex $-1 $166 $281 #
straight-curve $-1 0 25.599390570131145 -6.1441037385094575 1 0 0 I I #
point $-1 51.999877925962096 25.599390570131145 -6.1441037385094575 #
point $-1 51.999877925962096 -25.599390570131145 -6.1441037385094575 #
straight-curve $-1 -51.999877925962096 0 6.1441037385094575 0 -1 0 I I #
point $-1 -51.999877925962096 25.599390570131145 6.1441037385094575 #
point $-1 -51.999877925962096 -25.599390570131145 6.1441037385094575 #
straight-curve $-1 51.999877925962096 -25.599390570131145 0 0 0 -1 I I #
straight-curve $-1 51.999877925962096 25.599390570131145 0 0 0 -1 I I #
plane-surface $-1 0 -25.599390570131145 0 0 1 0 0 0 1 forward_v I I I I #
coedge $-1 $282 $186 $250 $283 reversed $120 $-1 #
coedge $-1 $186 $282 $200 $261 reversed $120 $-1 #
edge $-1 $253 -1.5137405032689291 $251 1.5137405032689291 $187 $284 forward 7 unknown #
coedge $-1 $188 $256 $247 $283 forward $184 $-1 #
vertex $-1 $189 $285 #
straight-curve $-1 0 25.599390570131145 -6.1441037385094575 1 0 0 I I #
vertex $-1 $190 $286 #
straight-curve $-1 -54.11164802661186 25.599390570131145 -3.1166227319715993 -1 0 0 I I #
point $-1 -51.999877925962096 25.599390570131145 -6.1441037385094575 #
coedge $-1 $250 $193 $196 $259 forward $184 $-1 #
straight-curve $-1 -51.999877925962096 0 -6.1441037385094575 0 -1 0 I I #
coedge $-1 $196 $195 $282 $287 forward $197 $-1 #
edge $-1 $198 -2.111770100649764 $288 2.111770100649764 $196 $289 forward 7 unknown #
point $-1 -51.999877925962096 -25.599390570131145 -6.1441037385094575 #
edge $-1 $253 -25.599390570131145 $262 25.599390570131145 $248 $290 forward 7 unknown #
vertex $-1 $261 $291 #
straight-curve $-1 -54.11164802661186 -25.599390570131145 -3.1166227319715993 1 0 0 I I #
coedge $-1 $215 $214 $207 $265 forward $204 $-1 #
edge $-1 $266 50.140343322252072 $269 55.261104479164082 $264 $292 forward 7 unknown #
vertex $-1 $219 $293 #
straight-curve $-1 46.862881947095289 28.570351098649517 6.1441037385094575 0 1 0 I I #
edge $-1 $269 -28.312077371454457 $216 -8.7895317798272075 $215 $294 forward 7 unknown #
vertex $-1 $268 $295 #
straight-curve $-1 46.862881947095289 -12.448718334015567 35.282014462840436 0 -0.74314481823134659 0.66913061440640931 I I #
point $-1 46.862881947095289 19.912209267665453 6.144103738509461 #
point $-1 27.34033635546804 25.599390570131149 1.0233425815974471 #
straight-curve $-1 0 25.599390570131145 6.1441037385094575 -1 0 0 I I #
vertex $-1 $222 $296 #
point $-1 34.418206524504399 19.562823473918144 0.037563637929792004 #
vertex $-1 $226 $297 #
point $-1 42.78501177805893 19.562823473918144 0.037563637929792004 #
straight-curve $-1 -51.999877925962096 25.599390570131145 0 0 0 -1 I I #
point $-1 -51.999877925962096 -25.599390570131145 -6.1441037385094575 #
straight-curve $-1 -51.999877925962096 0 -6.1441037385094575 0 1 0 I I #
point $-1 -51.999877925962096 25.599390570131145 -6.1441037385094575 #
coedge $-1 $248 $247 $258 $287 reversed $120 $-1 #
edge $-1 $288 -25.599390570131145 $251 25.599390570131145 $247 $298 forward 7 unknown #
straight-curve $-1 -56.223418127261624 25.599390570131145 -4.6303632352405284 0 0 -1 I I #
point $-1 -56.223418127261624 25.599390570131145 -6.1441037385094575 #
point $-1 -56.223418127261624 25.599390570131145 -3.1166227319715993 #
edge $-1 $262 -1.5137405032689291 $288 1.5137405032689291 $282 $299 forward 7 unknown #
vertex $-1 $283 $300 #
straight-curve $-1 -54.11164802661186 -25.599390570131145 -6.1441037385094575 -1 0 0 I I #
straight-curve $-1 -56.223418127261624 0 -3.1166227319715993 0 -1 0 I I #
point $-1 -56.223418127261624 -25.599390570131145 -3.1166227319715993 #
straight-curve $-1 46.862881947095289 25.599390570131145 56.284447060761529 0 0 -1 I I #
point $-1 46.862881947095289 25.599390570131145 6.1441037385094575 #
straight-curve $-1 18.550804575640832 25.599390570131145 1.0233425815974471 -1 0 0 I I #
point $-1 46.862881947095289 25.599390570131149 1.0233425815974471 #
point $-1 32.918206524504399 18.559127552308532 -1.0771535894172279 #
point $-1 41.28501177805893 18.559127552308532 -1.0771535894172279 #
straight-curve $-1 -56.223418127261624 0 -6.1441037385094575 0 1 0 I I #
straight-curve $-1 -56.223418127261624 -25.599390570131145 -4.6303632352405284 0 0 -1 I I #
point $-1 -56.223418127261624 -25.599390570131145 -6.1441037385094575 #
End-of-ACIS-data 