500 0 9 0           
7 Unknown 11 ACIS 5.0 NT 24 Thu Mar 25 19:30:58 1999 
-1 9.9999999999999995e-007 1e-010 
body $-1 $9 $-1 $10 #
body $-1 $11 $-1 $12 #
body $-1 $13 $-1 $14 #
body $-1 $15 $-1 $16 #
body $-1 $17 $-1 $18 #
body $-1 $19 $-1 $20 #
body $-1 $21 $-1 $22 #
body $-1 $23 $-1 $24 #
body $-1 $25 $-1 $26 #
lump $-1 $-1 $27 $0 #
transform $-1 1 0 0 0 1 0 0 0 1 63.908200323496203 29.678393257318177 12.456465553430142 1 rotate no_reflect no_shear #
lump $-1 $-1 $28 $1 #
transform $-1 1 0 0 0 1 0 0 0 1 63.908200323496203 29.678393257318177 12.456465553430142 1 rotate no_reflect no_shear #
lump $-1 $-1 $29 $2 #
transform $-1 1 0 0 0 1 0 0 0 1 63.908200323496203 29.678393257318177 12.456465553430142 1 rotate no_reflect no_shear #
lump $-1 $-1 $30 $3 #
transform $-1 1 0 0 0 1 0 0 0 1 63.908200323496203 29.678393257318177 12.456465553430142 1 rotate no_reflect no_shear #
lump $-1 $-1 $31 $4 #
transform $-1 1 0 0 0 1 0 0 0 1 63.908200323496203 29.678393257318177 12.456465553430142 1 rotate no_reflect no_shear #
lump $-1 $-1 $32 $5 #
transform $-1 1 0 0 0 1 0 0 0 1 63.908200323496203 29.678393257318177 12.456465553430142 1 rotate no_reflect no_shear #
lump $-1 $-1 $33 $6 #
transform $-1 1 0 0 0 1 0 0 0 1 63.908200323496203 29.678393257318177 12.456465553430142 1 rotate no_reflect no_shear #
lump $-1 $-1 $34 $7 #
transform $-1 1 0 0 0 1 0 0 0 1 63.908200323496203 29.678393257318177 12.456465553430142 1 rotate no_reflect no_shear #
lump $-1 $-1 $35 $8 #
transform $-1 1 0 0 0 1 0 0 0 1 63.908200323496203 29.678393257318177 12.456465553430142 1 rotate no_reflect no_shear #
shell $-1 $-1 $-1 $36 $-1 $9 #
shell $-1 $-1 $-1 $37 $-1 $11 #
shell $-1 $-1 $-1 $38 $-1 $13 #
shell $-1 $-1 $-1 $39 $-1 $15 #
shell $-1 $-1 $-1 $40 $-1 $17 #
shell $-1 $-1 $-1 $41 $-1 $19 #
shell $-1 $-1 $-1 $42 $-1 $21 #
shell $-1 $-1 $-1 $43 $-1 $23 #
shell $-1 $-1 $-1 $44 $-1 $25 #
face $-1 $45 $46 $27 $-1 $47 forward single #
face $-1 $48 $49 $28 $-1 $50 forward single #
face $-1 $51 $52 $29 $-1 $53 reversed single #
face $-1 $54 $55 $30 $-1 $56 forward single #
face $-1 $57 $58 $31 $-1 $59 reversed single #
face $-1 $60 $61 $32 $-1 $62 forward single #
face $-1 $63 $64 $33 $-1 $65 reversed single #
face $-1 $66 $67 $34 $-1 $68 forward single #
face $-1 $69 $70 $35 $-1 $71 forward single #
face $-1 $72 $73 $27 $-1 $74 reversed single #
loop $-1 $-1 $75 $36 #
plane-surface $-1 0 0 12.456465553430142 0 0 1 1 0 0 forward_v I I I I #
face $-1 $76 $77 $28 $-1 $78 reversed single #
loop $-1 $-1 $79 $37 #
plane-surface $-1 0 -25.304690111833995 -6.3387961278111185 0 0 1 1 0 0 forward_v I I I I #
face $-1 $80 $81 $29 $-1 $82 reversed single #
loop $-1 $-1 $83 $38 #
plane-surface $-1 95.296793141213016 -17.909497843301502 179.22391782657169 0 1 0 0.81915205242281985 0 0.57357642473473569 forward_v I I I I #
face $-1 $84 $85 $30 $-1 $86 forward single #
loop $-1 $87 $88 $39 #
cone-surface $-1 57.373850134623027 -13.396392349916407 5.0149456702352229 -0.81915205242281985 0 -0.57357642473473569 1.1471528494694714 0 -1.6383041048456397 1 I I 0 1 2 forward I I I I #
face $-1 $89 $90 $31 $-1 $91 reversed single #
loop $-1 $-1 $92 $40 #
plane-surface $-1 95.296793141213016 17.630693147499688 179.22391782657169 0 1 0 0.81915205242281985 0 0.57357642473473569 forward_v I I I I #
face $-1 $93 $94 $32 $-1 $95 forward single #
loop $-1 $96 $97 $41 #
cone-surface $-1 57.373850134623027 22.143798640884782 5.0149456702352229 -0.81915205242281985 0 -0.57357642473473569 1.1471528494694714 0 -1.6383041048456397 1 I I 0 1 2 forward I I I I #
face $-1 $98 $99 $33 $-1 $100 reversed single #
loop $-1 $-1 $101 $42 #
plane-surface $-1 -158.8942981339269 13.851533402194683 88.120353622055774 0 1 0 -0.74314483375859142 0 0.66913059716165679 forward_v I I I I #
face $-1 $102 $103 $34 $-1 $104 forward single #
loop $-1 $105 $106 $43 #
cone-surface $-1 -59.034632335468359 15.610978725092238 7.1349843896516836 0.74314483375859142 0 -0.66913059716165679 0.3345652985808284 0 0.37157241687929571 1 I I 0 1 0.5 forward I I I I #
face $-1 $107 $108 $35 $-1 $109 forward single #
loop $-1 $110 $111 $44 #
cone-surface $-1 -59.034632335468359 18.250146709438567 7.1349843896516836 0.74314483375859142 0 -0.66913059716165679 0.3345652985808284 0 0.37157241687929571 1 I I 0 1 0.5 forward I I I I #
face $-1 $112 $113 $27 $-1 $114 reversed single #
loop $-1 $-1 $115 $45 #
plane-surface $-1 0 0 -12.456465553430142 0 0 1 1 0 0 forward_v I I I I #
coedge $-1 $116 $117 $118 $119 forward $46 $-1 #
face $-1 $120 $121 $28 $-1 $122 reversed single #
loop $-1 $-1 $123 $48 #
plane-surface $-1 0 -25.304690111833995 -11.956465553430142 0 0 1 1 0 0 forward_v I I I I #
coedge $-1 $124 $125 $126 $127 reversed $49 $-1 #
face $-1 $128 $129 $29 $-1 $130 reversed single #
loop $-1 $-1 $131 $51 #
plane-surface $-1 -9.4042737820682589 -13.396392349916407 105.91144372100722 0.81915205242281985 0 0.57357642473473569 0.57357642473473569 0 -0.81915205242281985 forward_v I I I I #
coedge $-1 $132 $133 $134 $135 reversed $52 $-1 #
face $-1 $-1 $136 $30 $-1 $137 forward single #
loop $-1 $138 $139 $54 #
cone-surface $-1 53.957645835551304 -13.396392349916407 2.6228937401576715 -0.81915205242281985 0 -0.57357642473473569 0.57357642473473569 0 -0.81915205242281985 1 I I -0.70710678118654735 0.70710678118654768 1 forward I I I I #
loop $-1 $-1 $140 $39 #
coedge $-1 $88 $88 $141 $142 reversed $55 $-1 #
face $-1 $143 $144 $31 $-1 $145 reversed single #
loop $-1 $-1 $146 $57 #
plane-surface $-1 -9.4042737820682589 22.143798640884782 105.91144372100722 0.81915205242281985 0 0.57357642473473569 0.57357642473473569 0 -0.81915205242281985 forward_v I I I I #
coedge $-1 $147 $148 $149 $150 reversed $58 $-1 #
face $-1 $-1 $151 $32 $-1 $152 forward single #
loop $-1 $153 $154 $60 #
cone-surface $-1 53.957645835551304 22.143798640884782 2.6228937401576715 -0.81915205242281985 0 -0.57357642473473569 0.57357642473473569 0 -0.81915205242281985 1 I I -0.70710678118654735 0.70710678118654768 1 forward I I I I #
loop $-1 $-1 $155 $41 #
coedge $-1 $97 $97 $156 $157 reversed $61 $-1 #
face $-1 $158 $159 $33 $-1 $160 reversed single #
loop $-1 $-1 $161 $63 #
plane-surface $-1 -63.908200323496203 16.930562717265403 2.5944891300801629 -0.74314483375859142 0 0.66913059716165679 0.66913059716165679 0 0.74314483375859142 forward_v I I I I #
coedge $-1 $162 $163 $164 $165 reversed $64 $-1 #
face $-1 $-1 $166 $34 $-1 $167 forward single #
loop $-1 $168 $169 $66 #
cone-surface $-1 -58.415159756676218 15.610978725092238 6.5772087882577956 0.74314483375859142 0 -0.66913059716165679 0.1672826492904142 0 0.18578620843964785 1 I I -0.70710678118654746 0.70710678118654746 0.25 forward I I I I #
loop $-1 $-1 $170 $43 #
coedge $-1 $106 $106 $171 $172 reversed $67 $-1 #
face $-1 $-1 $173 $35 $-1 $174 forward single #
loop $-1 $175 $176 $69 #
cone-surface $-1 -58.415159756676218 18.250146709438567 6.5772087882577956 0.74314483375859142 0 -0.66913059716165679 0.1672826492904142 0 0.18578620843964785 1 I I -0.70710678118654746 0.70710678118654746 0.25 forward I I I I #
loop $-1 $-1 $177 $44 #
coedge $-1 $111 $111 $178 $179 reversed $70 $-1 #
face $-1 $180 $181 $27 $-1 $182 reversed single #
loop $-1 $-1 $183 $72 #
plane-surface $-1 0 -29.678393257318177 0 0 1 0 0 0 1 forward_v I I I I #
coedge $-1 $184 $185 $186 $187 forward $73 $-1 #
coedge $-1 $188 $75 $189 $190 forward $46 $-1 #
coedge $-1 $75 $188 $191 $192 forward $46 $-1 #
coedge $-1 $193 $194 $75 $119 reversed $195 $-1 #
edge $-1 $196 -29.678393257318177 $197 29.678393257318177 $118 $198 forward 7 unknown #
face $-1 $199 $200 $28 $-1 $201 reversed single #
loop $-1 $-1 $202 $76 #
plane-surface $-1 0 -20.930986966349813 -9.1476308406206304 0 -1 0 0 0 -1 forward_v I I I I #
coedge $-1 $203 $204 $205 $206 reversed $77 $-1 #
coedge $-1 $207 $79 $208 $209 forward $49 $-1 #
coedge $-1 $79 $207 $210 $211 reversed $49 $-1 #
coedge $-1 $212 $213 $79 $127 forward $214 $-1 #
edge $-1 $215 8.2786419104328157 $216 17.026048201401181 $126 $217 forward 7 unknown #
face $-1 $218 $219 $29 $-1 $220 forward single #
loop $-1 $-1 $221 $80 #
plane-surface $-1 95.296793141213016 -8.8832868565313134 179.22391782657169 0 -1 0 -0.81915205242281985 0 -0.57357642473473569 forward_v I I I I #
coedge $-1 $222 $223 $224 $225 reversed $81 $-1 #
coedge $-1 $133 $83 $226 $227 reversed $52 $-1 #
coedge $-1 $83 $132 $222 $228 reversed $52 $-1 #
coedge $-1 $224 $229 $83 $135 forward $230 $-1 #
edge $-1 $231 77.155493359855711 $232 88.401582115559904 $134 $233 forward 7 unknown #
loop $-1 $-1 $141 $84 #
plane-surface $-1 -9.4042737820682589 -13.396392349916407 105.91144372100722 0.81915205242281985 0 0.57357642473473569 0.57357642473473569 0 -0.81915205242281985 forward_v I I I I #
loop $-1 $-1 $234 $54 #
coedge $-1 $139 $139 $140 $235 reversed $85 $-1 #
coedge $-1 $140 $140 $139 $235 forward $87 $-1 #
coedge $-1 $141 $141 $88 $142 forward $136 $-1 #
edge $-1 $236 0 $236 6.2831853071796004 $141 $237 forward 7 unknown #
face $-1 $238 $239 $31 $-1 $240 reversed single #
loop $-1 $-1 $241 $89 #
plane-surface $-1 95.296793141213016 26.656904134269876 179.22391782657169 0 -1 0 -0.81915205242281985 0 -0.57357642473473569 forward_v I I I I #
coedge $-1 $242 $243 $244 $245 reversed $90 $-1 #
coedge $-1 $148 $92 $246 $247 reversed $58 $-1 #
coedge $-1 $92 $147 $242 $248 reversed $58 $-1 #
coedge $-1 $244 $249 $92 $150 forward $239 $-1 #
edge $-1 $250 77.155493359855711 $251 88.401582115559904 $149 $252 forward 7 unknown #
loop $-1 $-1 $156 $93 #
plane-surface $-1 -9.4042737820682589 22.143798640884782 105.91144372100722 0.81915205242281985 0 0.57357642473473569 0.57357642473473569 0 -0.81915205242281985 forward_v I I I I #
loop $-1 $-1 $253 $60 #
coedge $-1 $154 $154 $155 $254 reversed $94 $-1 #
coedge $-1 $155 $155 $154 $254 forward $96 $-1 #
coedge $-1 $156 $156 $97 $157 forward $151 $-1 #
edge $-1 $255 0 $255 6.2831853071796004 $156 $256 forward 7 unknown #
face $-1 $257 $258 $33 $-1 $259 reversed single #
loop $-1 $-1 $260 $98 #
plane-surface $-1 -158.8942981339269 20.009592032336123 88.120353622055774 0 -1 0 0.74314483375859142 0 -0.66913059716165679 forward_v I I I I #
coedge $-1 $261 $262 $263 $264 reversed $99 $-1 #
coedge $-1 $163 $101 $265 $266 reversed $64 $-1 #
coedge $-1 $101 $162 $261 $267 reversed $64 $-1 #
coedge $-1 $263 $268 $101 $165 forward $269 $-1 #
edge $-1 $270 15.538948743467245 $271 24.418711978817953 $164 $272 forward 7 unknown #
loop $-1 $-1 $171 $102 #
plane-surface $-1 -63.908200323496203 16.930562717265403 2.5944891300801629 -0.74314483375859142 0 0.66913059716165679 0.66913059716165679 0 0.74314483375859142 forward_v I I I I #
loop $-1 $-1 $273 $66 #
coedge $-1 $169 $169 $170 $274 reversed $103 $-1 #
coedge $-1 $170 $170 $169 $274 forward $105 $-1 #
coedge $-1 $171 $171 $106 $172 forward $166 $-1 #
edge $-1 $275 0 $275 6.2831853071796004 $171 $276 forward 7 unknown #
loop $-1 $-1 $178 $107 #
plane-surface $-1 -63.908200323496203 16.930562717265403 2.5944891300801629 -0.74314483375859142 0 0.66913059716165679 0.66913059716165679 0 0.74314483375859142 forward_v I I I I #
loop $-1 $-1 $277 $69 #
coedge $-1 $176 $176 $177 $278 reversed $108 $-1 #
coedge $-1 $177 $177 $176 $278 forward $110 $-1 #
coedge $-1 $178 $178 $111 $179 forward $173 $-1 #
edge $-1 $279 0 $279 6.2831853071796004 $178 $280 forward 7 unknown #
face $-1 $281 $282 $27 $-1 $283 reversed single #
loop $-1 $-1 $284 $112 #
plane-surface $-1 -63.908200323496203 0 0 1 0 0 0 0 -1 forward_v I I I I #
coedge $-1 $285 $191 $286 $287 forward $113 $-1 #
coedge $-1 $288 $115 $285 $289 forward $73 $-1 #
coedge $-1 $115 $288 $290 $291 forward $73 $-1 #
coedge $-1 $194 $193 $115 $187 reversed $195 $-1 #
edge $-1 $292 -29.678393257318177 $293 29.678393257318177 $186 $294 forward 7 unknown #
coedge $-1 $117 $116 $295 $296 forward $46 $-1 #
coedge $-1 $297 $298 $116 $190 reversed $282 $-1 #
edge $-1 $197 -63.908200323496203 $299 63.908200323496203 $189 $300 forward 7 unknown #
coedge $-1 $183 $301 $117 $192 reversed $113 $-1 #
edge $-1 $302 -63.908200323496203 $196 63.908200323496203 $191 $303 forward 7 unknown #
coedge $-1 $186 $118 $301 $304 forward $195 $-1 #
coedge $-1 $118 $186 $297 $305 reversed $195 $-1 #
loop $-1 $-1 $193 $281 #
vertex $-1 $119 $306 #
vertex $-1 $119 $307 #
straight-curve $-1 63.908200323496203 0 12.456465553430142 0 1 0 I I #
face $-1 $308 $309 $28 $-1 $310 reversed single #
loop $-1 $-1 $311 $120 #
plane-surface $-1 -63.908200323496203 0 0 1 0 0 0 0 -1 forward_v I I I I #
coedge $-1 $312 $208 $213 $313 reversed $121 $-1 #
coedge $-1 $314 $123 $315 $316 reversed $77 $-1 #
coedge $-1 $123 $314 $312 $317 forward $77 $-1 #
coedge $-1 $213 $212 $123 $206 forward $214 $-1 #
edge $-1 $318 -17.026048201401181 $319 -8.2786419104328157 $205 $320 forward 7 unknown #
coedge $-1 $125 $124 $311 $321 reversed $49 $-1 #
coedge $-1 $202 $322 $124 $209 reversed $121 $-1 #
edge $-1 $215 -63.908200323496203 $323 63.908200323496203 $208 $324 forward 7 unknown #
coedge $-1 $325 $326 $125 $211 forward $309 $-1 #
edge $-1 $216 -63.908200323496203 $327 63.908200323496203 $210 $328 forward 7 unknown #
coedge $-1 $205 $126 $326 $329 forward $214 $-1 #
coedge $-1 $126 $205 $202 $313 forward $214 $-1 #
loop $-1 $-1 $126 $308 #
vertex $-1 $127 $330 #
vertex $-1 $329 $331 #
straight-curve $-1 63.908200323496203 -12.652345055916998 -6.3387961278111185 0 -1 0 I I #
face $-1 $-1 $230 $29 $-1 $332 reversed single #
loop $-1 $-1 $333 $128 #
plane-surface $-1 0 0 12.456465553430142 0 0 1 1 0 0 forward_v I I I I #
coedge $-1 $334 $335 $336 $337 reversed $129 $-1 #
coedge $-1 $338 $131 $133 $228 forward $81 $-1 #
coedge $-1 $131 $338 $334 $339 forward $81 $-1 #
coedge $-1 $336 $134 $131 $225 forward $230 $-1 #
edge $-1 $232 -11.211301668343298 $340 -2.1850906815731097 $224 $341 forward 7 unknown #
coedge $-1 $342 $343 $132 $227 forward $219 $-1 #
edge $-1 $344 8.3852078684411424 $231 16.259803752889695 $226 $345 forward 7 unknown #
edge $-1 $232 -127.81640064699243 $344 -114.08746140739527 $133 $346 forward 7 unknown #
coedge $-1 $134 $336 $342 $347 reversed $230 $-1 #
loop $-1 $-1 $336 $218 #
vertex $-1 $347 $348 #
vertex $-1 $135 $349 #
straight-curve $-1 63.908200323496203 -17.909497843301502 89.611958913285847 0 0 -1 I I #
coedge $-1 $234 $234 $-1 $350 reversed $138 $-1 #
edge $-1 $351 0 $351 6.2831853071796004 $139 $352 forward 7 unknown #
vertex $-1 $142 $353 #
ellipse-curve $-1 59.970902381271927 -13.396392349916407 6.8334211755780352 0.81915205242281985 0 0.57357642473473569 1.1471528494694714 0 -1.6383041048456397 1 I I #
face $-1 $-1 $354 $31 $-1 $355 forward single #
loop $-1 $-1 $149 $143 #
plane-surface $-1 63.908200323496203 0 0 -1 0 0 0 0 1 forward_v I I I I #
coedge $-1 $356 $357 $358 $359 reversed $144 $-1 #
coedge $-1 $360 $146 $148 $248 forward $90 $-1 #
coedge $-1 $146 $360 $356 $361 forward $90 $-1 #
coedge $-1 $358 $149 $146 $245 forward $239 $-1 #
edge $-1 $251 6.558793827057297 $362 15.585004813827485 $244 $363 forward 7 unknown #
coedge $-1 $364 $365 $147 $247 forward $354 $-1 #
edge $-1 $366 8.3852078684411424 $250 16.259803752889695 $246 $367 forward 7 unknown #
edge $-1 $251 -127.81640064699243 $366 -114.08746140739527 $148 $368 forward 7 unknown #
coedge $-1 $149 $358 $364 $369 reversed $239 $-1 #
vertex $-1 $369 $370 #
vertex $-1 $150 $371 #
straight-curve $-1 63.908200323496203 17.630693147499688 89.611958913285847 0 0 -1 I I #
coedge $-1 $253 $253 $-1 $372 reversed $153 $-1 #
edge $-1 $373 0 $373 6.2831853071796004 $154 $374 forward 7 unknown #
vertex $-1 $157 $375 #
ellipse-curve $-1 59.970902381271927 22.143798640884782 6.8334211755780352 0.81915205242281985 0 0.57357642473473569 1.1471528494694714 0 -1.6383041048456397 1 I I #
face $-1 $-1 $269 $33 $-1 $376 forward single #
loop $-1 $-1 $377 $158 #
plane-surface $-1 -63.908200323496203 0 0 1 0 0 0 0 -1 forward_v I I I I #
coedge $-1 $378 $379 $380 $381 reversed $159 $-1 #
coedge $-1 $382 $161 $163 $267 forward $99 $-1 #
coedge $-1 $161 $382 $378 $383 forward $99 $-1 #
coedge $-1 $380 $164 $161 $264 forward $269 $-1 #
edge $-1 $271 5.3862520435619814 $384 11.544310673703421 $263 $385 forward 7 unknown #
coedge $-1 $386 $387 $162 $266 forward $258 $-1 #
edge $-1 $388 -41.465687680947724 $270 -31.603711257597745 $265 $389 forward 7 unknown #
edge $-1 $271 -13.270598105985913 $388 0 $163 $390 forward 7 unknown #
coedge $-1 $164 $380 $386 $391 forward $269 $-1 #
loop $-1 $-1 $380 $257 #
vertex $-1 $266 $392 #
vertex $-1 $165 $393 #
straight-curve $-1 -79.447149066963448 13.851533402194683 12.456465553430142 1 0 0 I I #
coedge $-1 $273 $273 $-1 $394 reversed $168 $-1 #
edge $-1 $395 0 $395 6.2831853071796004 $169 $396 forward 7 unknown #
vertex $-1 $172 $397 #
ellipse-curve $-1 -59.468318705820849 15.610978725092238 7.5254773417551526 -0.74314483375859142 0 0.66913059716165679 0.3345652985808284 0 0.37157241687929571 1 I I #
coedge $-1 $277 $277 $-1 $398 reversed $175 $-1 #
edge $-1 $399 0 $399 6.2831853071796004 $176 $400 forward 7 unknown #
vertex $-1 $179 $401 #
ellipse-curve $-1 -59.468318705820849 18.250146709438567 7.5254773417551526 -0.74314483375859142 0 0.66913059716165679 0.3345652985808284 0 0.37157241687929571 1 I I #
face $-1 $-1 $195 $27 $-1 $402 reversed single #
loop $-1 $-1 $297 $180 #
plane-surface $-1 0 29.678393257318177 0 0 -1 0 0 0 -1 forward_v I I I I #
coedge $-1 $403 $295 $298 $404 forward $181 $-1 #
coedge $-1 $301 $183 $184 $289 reversed $113 $-1 #
coedge $-1 $295 $403 $183 $287 reversed $181 $-1 #
edge $-1 $302 -12.456465553430142 $405 12.456465553430142 $286 $406 forward 7 unknown #
coedge $-1 $185 $184 $403 $407 forward $73 $-1 #
edge $-1 $293 -63.908200323496203 $405 63.908200323496203 $285 $408 forward 7 unknown #
coedge $-1 $298 $297 $185 $291 reversed $282 $-1 #
edge $-1 $409 -63.908200323496203 $292 63.908200323496203 $290 $410 forward 7 unknown #
vertex $-1 $187 $411 #
vertex $-1 $304 $412 #
straight-curve $-1 63.908200323496203 0 -12.456465553430142 0 -1 0 I I #
coedge $-1 $284 $286 $188 $296 reversed $181 $-1 #
edge $-1 $299 -29.678393257318177 $302 29.678393257318177 $295 $413 forward 7 unknown #
coedge $-1 $290 $189 $194 $305 forward $282 $-1 #
coedge $-1 $189 $290 $284 $404 reversed $282 $-1 #
vertex $-1 $190 $414 #
straight-curve $-1 0 29.678393257318177 12.456465553430142 -1 0 0 I I #
coedge $-1 $191 $285 $193 $304 reversed $113 $-1 #
vertex $-1 $296 $415 #
straight-curve $-1 0 -29.678393257318177 12.456465553430142 1 0 0 I I #
edge $-1 $196 -12.456465553430142 $293 12.456465553430142 $193 $416 forward 7 unknown #
edge $-1 $197 -12.456465553430142 $292 12.456465553430142 $194 $417 forward 7 unknown #
point $-1 63.908200323496203 -29.678393257318177 12.456465553430142 #
point $-1 63.908200323496203 29.678393257318177 12.456465553430142 #
face $-1 $-1 $214 $28 $-1 $418 reversed single #
loop $-1 $-1 $210 $199 #
plane-surface $-1 0 -29.678393257318177 0 0 1 0 0 0 1 forward_v I I I I #
coedge $-1 $419 $420 $207 $321 forward $200 $-1 #
coedge $-1 $322 $202 $204 $317 reversed $121 $-1 #
edge $-1 $319 -7.3826501331198271 $215 -1.7649807075008033 $213 $421 forward 7 unknown #
coedge $-1 $204 $203 $422 $423 reversed $77 $-1 #
coedge $-1 $326 $325 $203 $316 forward $309 $-1 #
edge $-1 $424 -63.908200323496203 $318 63.908200323496203 $315 $425 forward 7 unknown #
edge $-1 $426 -63.908200323496203 $319 63.908200323496203 $312 $427 forward 7 unknown #
vertex $-1 $316 $428 #
vertex $-1 $206 $429 #
straight-curve $-1 63.908200323496203 -12.652345055916998 -11.956465553430142 0 1 0 I I #
edge $-1 $327 -17.026048201401181 $323 -8.2786419104328157 $311 $430 forward 7 unknown #
coedge $-1 $208 $312 $419 $431 reversed $121 $-1 #
vertex $-1 $321 $432 #
straight-curve $-1 0 -20.930986966349813 -6.3387961278111185 -1 0 0 I I #
coedge $-1 $315 $210 $420 $433 forward $309 $-1 #
coedge $-1 $210 $315 $212 $329 reversed $309 $-1 #
vertex $-1 $433 $434 #
straight-curve $-1 0 -29.678393257318177 -6.3387961278111185 -1 0 0 I I #
edge $-1 $216 6.3387961278111185 $318 11.956465553430142 $212 $435 forward 7 unknown #
point $-1 63.908200323496203 -20.930986966349813 -6.3387961278111185 #
point $-1 63.908200323496203 -29.678393257318177 -6.3387961278111185 #
plane-surface $-1 63.908200323496203 0 0 -1 0 0 0 0 1 forward_v I I I I #
coedge $-1 $343 $342 $335 $436 forward $219 $-1 #
coedge $-1 $335 $221 $223 $339 reversed $129 $-1 #
coedge $-1 $221 $334 $333 $436 reversed $129 $-1 #
coedge $-1 $229 $224 $221 $337 forward $230 $-1 #
edge $-1 $340 -88.401582115559904 $437 -77.155493359855711 $336 $438 forward 7 unknown #
coedge $-1 $223 $222 $343 $439 reversed $81 $-1 #
edge $-1 $440 114.08746140739527 $340 127.81640064699243 $334 $441 forward 7 unknown #
vertex $-1 $225 $442 #
straight-curve $-1 63.908200323496203 -6.6981961749582037 1.2103767977259494 0 1 0 I I #
coedge $-1 $333 $226 $229 $347 forward $219 $-1 #
coedge $-1 $226 $333 $338 $439 forward $219 $-1 #
vertex $-1 $227 $443 #
straight-curve $-1 47.648396570606508 -17.909497843301502 12.456465553430149 1 0 0 I I #
straight-curve $-1 -9.4042737820682589 -17.909497843301502 105.91144372100722 -0.57357642473473569 0 0.81915205242281985 I I #
edge $-1 $231 -17.909497843301502 $437 -8.8832868565313134 $229 $444 forward 7 unknown #
point $-1 63.908200323496203 -17.909497843301502 12.456465553430142 #
point $-1 63.908200323496203 -17.909497843301502 1.2103767977259423 #
edge $-1 $445 1 $445 0 $234 $-1 forward 7 unknown #
vertex $-1 $235 $446 #
ellipse-curve $-1 54.776797887974126 -13.396392349916407 3.1964701648924074 0.81915205242281985 0 0.57357642473473569 1.1471528494694714 0 -1.6383041048456397 1 I I #
point $-1 61.118055230741405 -13.396392349916407 5.1951170707323984 #
loop $-1 $-1 $246 $238 #
plane-surface $-1 0 0 12.456465553430142 0 0 1 1 0 0 forward_v I I I I #
coedge $-1 $357 $241 $243 $361 reversed $144 $-1 #
coedge $-1 $241 $356 $447 $448 reversed $144 $-1 #
coedge $-1 $249 $244 $241 $359 forward $239 $-1 #
edge $-1 $362 -88.401582115559904 $449 -77.155493359855711 $358 $450 forward 7 unknown #
coedge $-1 $243 $242 $365 $451 reversed $90 $-1 #
edge $-1 $452 114.08746140739527 $362 127.81640064699243 $356 $453 forward 7 unknown #
vertex $-1 $245 $454 #
straight-curve $-1 63.908200323496203 11.071899320442391 1.2103767977259494 0 1 0 I I #
coedge $-1 $447 $246 $249 $369 forward $354 $-1 #
coedge $-1 $246 $447 $360 $451 forward $354 $-1 #
vertex $-1 $247 $455 #
straight-curve $-1 47.648396570606508 17.630693147499688 12.456465553430149 1 0 0 I I #
straight-curve $-1 -9.4042737820682589 17.630693147499688 105.91144372100722 -0.57357642473473569 0 0.81915205242281985 I I #
edge $-1 $250 17.630693147499688 $449 26.656904134269876 $249 $456 forward 7 unknown #
point $-1 63.908200323496203 17.630693147499688 12.456465553430142 #
point $-1 63.908200323496203 17.630693147499688 1.2103767977259423 #
edge $-1 $457 1 $457 0 $253 $-1 forward 7 unknown #
vertex $-1 $254 $458 #
ellipse-curve $-1 54.776797887974126 22.143798640884782 3.1964701648924074 0.81915205242281985 0 0.57357642473473569 1.1471528494694714 0 -1.6383041048456397 1 I I #
point $-1 61.118055230741405 22.143798640884782 5.1951170707323984 #
plane-surface $-1 0 0 12.456465553430142 0 0 1 1 0 0 forward_v I I I I #
coedge $-1 $387 $386 $379 $459 forward $258 $-1 #
coedge $-1 $379 $260 $262 $383 reversed $159 $-1 #
coedge $-1 $260 $378 $377 $459 reversed $159 $-1 #
coedge $-1 $268 $263 $260 $381 forward $269 $-1 #
edge $-1 $384 -24.418711978817953 $460 -15.538948743467245 $380 $461 forward 7 unknown #
coedge $-1 $262 $261 $387 $462 reversed $99 $-1 #
edge $-1 $463 0 $384 13.270598105985913 $378 $464 forward 7 unknown #
vertex $-1 $264 $465 #
straight-curve $-1 -55.028437088145502 8.4652813586327014 12.456465553430142 0 1 0 I I #
coedge $-1 $377 $265 $268 $391 reversed $258 $-1 #
coedge $-1 $265 $377 $382 $462 forward $258 $-1 #
vertex $-1 $266 $466 #
straight-curve $-1 -63.908200323496203 13.851533402194683 44.060176811027887 0 0 1 I I #
straight-curve $-1 -63.908200323496203 13.851533402194683 2.5944891300801629 -0.66913059716165679 0 -0.74314483375859142 I I #
edge $-1 $460 -20.009592032336123 $270 -13.851533402194683 $386 $467 forward 7 unknown #
point $-1 -63.908200323496203 13.851533402194683 12.456465553430142 #
point $-1 -55.028437088145495 13.851533402194683 12.456465553430142 #
edge $-1 $468 1 $468 0 $273 $-1 forward 7 unknown #
vertex $-1 $274 $469 #
ellipse-curve $-1 -58.600945965115862 15.610978725092238 6.7444914375482101 -0.74314483375859142 0 0.66913059716165679 0.3345652985808284 0 0.37157241687929571 1 I I #
point $-1 -59.133753407240029 15.610978725092238 7.8970497586344521 #
edge $-1 $470 1 $470 0 $277 $-1 forward 7 unknown #
vertex $-1 $278 $471 #
ellipse-curve $-1 -58.600945965115862 18.250146709438567 6.7444914375482101 -0.74314483375859142 0 0.66913059716165679 0.3345652985808284 0 0.37157241687929571 1 I I #
point $-1 -59.133753407240029 18.250146709438567 7.8970497586344521 #
plane-surface $-1 63.908200323496203 0 0 -1 0 0 0 0 1 forward_v I I I I #
coedge $-1 $286 $284 $288 $407 reversed $181 $-1 #
edge $-1 $299 -12.456465553430142 $409 12.456465553430142 $298 $472 forward 7 unknown #
vertex $-1 $407 $473 #
straight-curve $-1 -63.908200323496203 -29.678393257318177 0 0 0 -1 I I #
edge $-1 $405 -29.678393257318177 $409 29.678393257318177 $403 $474 forward 7 unknown #
straight-curve $-1 0 -29.678393257318177 -12.456465553430142 -1 0 0 I I #
vertex $-1 $291 $475 #
straight-curve $-1 0 29.678393257318177 -12.456465553430142 1 0 0 I I #
point $-1 63.908200323496203 29.678393257318177 -12.456465553430142 #
point $-1 63.908200323496203 -29.678393257318177 -12.456465553430142 #
straight-curve $-1 -63.908200323496203 0 12.456465553430142 0 -1 0 I I #
point $-1 -63.908200323496203 29.678393257318177 12.456465553430142 #
point $-1 -63.908200323496203 -29.678393257318177 12.456465553430142 #
straight-curve $-1 63.908200323496203 -29.678393257318177 0 0 0 -1 I I #
straight-curve $-1 63.908200323496203 29.678393257318177 0 0 0 -1 I I #
plane-surface $-1 63.908200323496203 0 0 -1 0 0 0 0 1 forward_v I I I I #
coedge $-1 $422 $311 $322 $431 forward $200 $-1 #
coedge $-1 $311 $422 $325 $433 reversed $200 $-1 #
straight-curve $-1 63.908200323496203 -20.930986966349813 -4.5738154203103152 0 0 1 I I #
coedge $-1 $420 $419 $314 $423 forward $200 $-1 #
edge $-1 $426 8.2786419104328157 $424 17.026048201401181 $422 $476 forward 7 unknown #
vertex $-1 $316 $477 #
straight-curve $-1 0 -29.678393257318177 -11.956465553430142 1 0 0 I I #
vertex $-1 $423 $478 #
straight-curve $-1 0 -20.930986966349813 -11.956465553430142 1 0 0 I I #
point $-1 63.908200323496203 -29.678393257318177 -11.956465553430142 #
point $-1 63.908200323496203 -20.930986966349813 -11.956465553430142 #
straight-curve $-1 -63.908200323496203 -12.652345055916998 -6.3387961278111185 0 1 0 I I #
edge $-1 $323 1.7649807075008033 $426 7.3826501331198271 $419 $479 forward 7 unknown #
point $-1 -63.908200323496203 -20.930986966349813 -6.3387961278111185 #
edge $-1 $327 6.3387961278111185 $424 11.956465553430142 $420 $480 forward 7 unknown #
point $-1 -63.908200323496203 -29.678393257318177 -6.3387961278111185 #
straight-curve $-1 63.908200323496203 -29.678393257318177 0 0 0 -1 I I #
edge $-1 $437 -16.259803752889695 $440 -8.3852078684411424 $333 $481 forward 7 unknown #
vertex $-1 $436 $482 #
straight-curve $-1 63.908200323496203 -8.8832868565313134 89.611958913285847 0 0 1 I I #
edge $-1 $440 2.1850906815731097 $344 11.211301668343298 $343 $483 forward 7 unknown #
vertex $-1 $439 $484 #
straight-curve $-1 -9.4042737820682589 -8.8832868565313134 105.91144372100722 0.57357642473473569 0 -0.81915205242281985 I I #
point $-1 63.908200323496203 -8.8832868565313134 1.2103767977259423 #
point $-1 56.03360443904765 -17.909497843301502 12.456465553430135 #
straight-curve $-1 63.908200323496203 0 12.456465553430142 0 1 0 I I #
vertex $-1 $350 $485 #
point $-1 55.923950737443597 -13.396392349916407 1.5581660600467677 #
coedge $-1 $365 $364 $357 $448 forward $354 $-1 #
edge $-1 $449 -16.259803752889695 $452 -8.3852078684411424 $447 $486 forward 7 unknown #
vertex $-1 $448 $487 #
straight-curve $-1 63.908200323496203 26.656904134269876 89.611958913285847 0 0 1 I I #
edge $-1 $452 -15.585004813827485 $366 -6.558793827057297 $365 $488 forward 7 unknown #
vertex $-1 $451 $489 #
straight-curve $-1 -9.4042737820682589 26.656904134269876 105.91144372100722 0.57357642473473569 0 -0.81915205242281985 I I #
point $-1 63.908200323496203 26.656904134269876 1.2103767977259423 #
point $-1 56.03360443904765 17.630693147499688 12.456465553430135 #
straight-curve $-1 63.908200323496203 0 12.456465553430142 0 1 0 I I #
vertex $-1 $372 $490 #
point $-1 55.923950737443597 22.143798640884782 1.5581660600467677 #
edge $-1 $460 31.603711257597745 $463 41.465687680947724 $377 $491 forward 7 unknown #
vertex $-1 $391 $492 #
straight-curve $-1 -79.447149066963448 20.009592032336123 12.456465553430142 -1 0 0 I I #
edge $-1 $463 -11.544310673703421 $388 -5.3862520435619814 $387 $493 forward 7 unknown #
vertex $-1 $462 $494 #
straight-curve $-1 -63.908200323496203 20.009592032336123 2.5944891300801629 0.66913059716165679 0 0.74314483375859142 I I #
point $-1 -55.028437088145495 20.009592032336123 12.456465553430142 #
point $-1 -63.908200323496203 13.851533402194683 2.5944891300801629 #
straight-curve $-1 -63.908200323496203 0 12.456465553430142 0 -1 0 I I #
vertex $-1 $394 $495 #
point $-1 -58.266380666535035 15.610978725092238 7.1160638544275052 #
vertex $-1 $398 $496 #
point $-1 -58.266380666535035 18.250146709438567 7.1160638544275052 #
straight-curve $-1 -63.908200323496203 29.678393257318177 0 0 0 -1 I I #
point $-1 -63.908200323496203 -29.678393257318177 -12.456465553430142 #
straight-curve $-1 -63.908200323496203 0 -12.456465553430142 0 1 0 I I #
point $-1 -63.908200323496203 29.678393257318177 -12.456465553430142 #
straight-curve $-1 -63.908200323496203 -12.652345055916998 -11.956465553430142 0 -1 0 I I #
point $-1 -63.908200323496203 -29.678393257318177 -11.956465553430142 #
point $-1 -63.908200323496203 -20.930986966349813 -11.956465553430142 #
straight-curve $-1 -63.908200323496203 -20.930986966349813 -4.5738154203103152 0 0 -1 I I #
straight-curve $-1 -63.908200323496203 -29.678393257318177 0 0 0 -1 I I #
straight-curve $-1 47.648396570606508 -8.8832868565313134 12.456465553430149 -1 0 0 I I #
point $-1 63.908200323496203 -8.8832868565313134 12.456465553430142 #
straight-curve $-1 56.033604439047657 -6.6981961749582037 12.456465553430142 0 -1 0 I I #
point $-1 56.03360443904765 -8.8832868565313134 12.456465553430135 #
point $-1 53.138493783128482 -13.396392349916407 2.0493173154229356 #
straight-curve $-1 47.648396570606508 26.656904134269876 12.456465553430149 -1 0 0 I I #
point $-1 63.908200323496203 26.656904134269876 12.456465553430142 #
straight-curve $-1 56.033604439047657 11.071899320442391 12.456465553430142 0 -1 0 I I #
point $-1 56.03360443904765 26.656904134269876 12.456465553430135 #
point $-1 53.138493783128482 22.143798640884782 2.0493173154229356 #
straight-curve $-1 -63.908200323496203 20.009592032336123 44.060176811027887 0 0 -1 I I #
point $-1 -63.908200323496203 20.009592032336123 12.456465553430142 #
straight-curve $-1 -63.908200323496203 8.4652813586327014 2.5944891300801691 0 -1 0 I I #
point $-1 -63.908200323496203 20.009592032336123 2.5944891300801629 #
point $-1 -58.229373548236573 15.610978725092238 6.4099261389673812 #
point $-1 -58.229373548236573 18.250146709438567 6.4099261389673812 #
End-of-ACIS-data 