500 0 6 0           
7 Unknown 11 ACIS 5.0 NT 24 Fri Mar 26 18:34:36 1999 
-1 9.9999999999999995e-007 1e-010 
body $-1 $6 $-1 $7 #
body $-1 $8 $-1 $9 #
body $-1 $10 $-1 $11 #
body $-1 $12 $-1 $13 #
body $-1 $14 $-1 $15 #
body $-1 $16 $-1 $17 #
lump $-1 $-1 $18 $0 #
transform $-1 1 0 0 0 1 0 0 0 1 73.915829950865202 30.013657310075889 10.446936421357114 1 rotate no_reflect no_shear #
lump $-1 $-1 $19 $1 #
transform $-1 1 0 0 0 1 0 0 0 1 73.915829950865202 30.013657310075889 10.446936421357114 1 rotate no_reflect no_shear #
lump $-1 $-1 $20 $2 #
transform $-1 1 0 0 0 1 0 0 0 1 73.915829950865202 30.013657310075889 10.446936421357114 1 rotate no_reflect no_shear #
lump $-1 $-1 $21 $3 #
transform $-1 1 0 0 0 1 0 0 0 1 73.915829950865202 30.013657310075889 10.446936421357114 1 rotate no_reflect no_shear #
lump $-1 $-1 $22 $4 #
transform $-1 1 0 0 0 1 0 0 0 1 73.915829950865202 30.013657310075889 10.446936421357114 1 rotate no_reflect no_shear #
lump $-1 $-1 $23 $5 #
transform $-1 1 0 0 0 1 0 0 0 1 73.915829950865202 30.013657310075889 10.446936421357114 1 rotate no_reflect no_shear #
shell $-1 $-1 $-1 $24 $-1 $6 #
shell $-1 $-1 $-1 $25 $-1 $8 #
shell $-1 $-1 $-1 $26 $-1 $10 #
shell $-1 $-1 $-1 $27 $-1 $12 #
shell $-1 $-1 $-1 $28 $-1 $14 #
shell $-1 $-1 $-1 $29 $-1 $16 #
face $-1 $30 $31 $18 $-1 $32 forward single #
face $-1 $33 $34 $19 $-1 $35 reversed single #
face $-1 $36 $37 $20 $-1 $38 forward single #
face $-1 $39 $40 $21 $-1 $41 reversed single #
face $-1 $42 $43 $22 $-1 $44 forward single #
face $-1 $45 $46 $23 $-1 $47 forward single #
face $-1 $48 $49 $18 $-1 $50 reversed single #
loop $-1 $-1 $51 $24 #
plane-surface $-1 0 0 10.446936421357114 0 0 1 1 0 0 forward_v I I I I #
face $-1 $52 $53 $19 $-1 $54 reversed single #
loop $-1 $-1 $55 $25 #
plane-surface $-1 -34.945063781696319 -114.80641506917108 122.85362538335808 -1 0 0 0 -0.57357644374324357 0.81915203911291934 forward_v I I I I #
face $-1 $56 $57 $20 $-1 $58 forward single #
loop $-1 $59 $60 $26 #
cone-surface $-1 -54.430446866280761 -21.262443008037632 2.4659549933555587 0 0.57357644374324357 -0.81915203911291934 2.5 0 0 1 I I 0 1 2.5 forward I I I I #
face $-1 $61 $62 $21 $-1 $63 reversed single #
loop $-1 $-1 $64 $27 #
plane-surface $-1 -27.992583765705152 81.696764736124877 156.79293656589908 1 0 0 0 -0.6560590369687036 -0.75470957328743171 forward_v I I I I #
face $-1 $65 $66 $22 $-1 $67 forward single #
loop $-1 $68 $69 $28 #
cone-surface $-1 -18.796778939656697 26.281278773382809 6.8979032733609786 0 -0.6560590369687036 -0.75470957328743171 1.5 0 0 1 I I 0 1 1.5 forward I I I I #
face $-1 $70 $71 $23 $-1 $72 forward single #
loop $-1 $73 $74 $29 #
cone-surface $-1 -5.0030717005840017 26.281278773382809 6.8979032733609786 0 -0.6560590369687036 -0.75470957328743171 1.5 0 0 1 I I 0 1 1.5 forward I I I I #
face $-1 $75 $76 $18 $-1 $77 reversed single #
loop $-1 $-1 $78 $30 #
plane-surface $-1 0 0 -10.446936421357114 0 0 1 1 0 0 forward_v I I I I #
coedge $-1 $79 $80 $81 $82 forward $31 $-1 #
face $-1 $83 $84 $19 $-1 $85 forward single #
loop $-1 $-1 $86 $33 #
plane-surface $-1 -54.430446866280761 -30.013657310075899 1.7570197294080288 0 -0.57357644374324357 0.81915203911291934 1 0 0 forward_v I I I I #
coedge $-1 $87 $88 $89 $90 reversed $34 $-1 #
face $-1 $-1 $91 $20 $-1 $92 forward single #
loop $-1 $93 $94 $36 #
cone-surface $-1 -54.430446866280761 -17.999501633319024 -2.1940081375625855 0 0.57357644374324357 -0.81915203911291934 1.25 0 0 1 I I -0.70710678118654746 0.70710678118654746 1.25 forward I I I I #
loop $-1 $-1 $95 $26 #
coedge $-1 $60 $60 $96 $97 reversed $37 $-1 #
face $-1 $98 $99 $21 $-1 $100 reversed single #
loop $-1 $-1 $101 $39 #
plane-surface $-1 -11.899925320120346 -15.289531692489291 45.222967603091405 0 0.6560590369687036 0.75470957328743171 1 0 0 forward_v I I I I #
coedge $-1 $102 $103 $104 $105 reversed $40 $-1 #
face $-1 $-1 $106 $22 $-1 $107 forward single #
loop $-1 $108 $109 $42 #
cone-surface $-1 -18.796778939656697 24.705827087306002 5.0855534652891929 0 -0.6560590369687036 -0.75470957328743171 0.75 0 0 1 I I -0.70710678118654757 0.70710678118654757 0.75 forward I I I I #
loop $-1 $-1 $110 $28 #
coedge $-1 $69 $69 $111 $112 reversed $43 $-1 #
face $-1 $-1 $113 $23 $-1 $114 forward single #
loop $-1 $115 $116 $45 #
cone-surface $-1 -5.0030717005840017 24.705827087306002 5.0855534652891929 0 -0.6560590369687036 -0.75470957328743171 0.75 0 0 1 I I -0.70710678118654757 0.70710678118654757 0.75 forward I I I I #
loop $-1 $-1 $117 $29 #
coedge $-1 $74 $74 $118 $119 reversed $46 $-1 #
face $-1 $120 $121 $18 $-1 $122 reversed single #
loop $-1 $-1 $123 $48 #
plane-surface $-1 0 -30.013657310075889 0 0 1 0 0 0 1 forward_v I I I I #
coedge $-1 $124 $125 $126 $127 forward $49 $-1 #
coedge $-1 $128 $51 $129 $130 forward $31 $-1 #
coedge $-1 $51 $128 $131 $132 forward $31 $-1 #
coedge $-1 $133 $134 $51 $82 reversed $135 $-1 #
edge $-1 $136 -30.013657310075889 $137 30.013657310075889 $81 $138 forward 7 unknown #
face $-1 $139 $140 $19 $-1 $141 reversed single #
loop $-1 $-1 $89 $52 #
plane-surface $-1 0 0 10.446936421357114 0 0 1 1 0 0 forward_v I I I I #
coedge $-1 $142 $143 $144 $145 reversed $53 $-1 #
coedge $-1 $88 $55 $146 $147 reversed $34 $-1 #
coedge $-1 $55 $87 $142 $148 reversed $34 $-1 #
coedge $-1 $144 $149 $55 $90 forward $84 $-1 #
edge $-1 $150 27.389550224509652 $151 39.800037188506998 $89 $152 forward 7 unknown #
loop $-1 $-1 $96 $56 #
plane-surface $-1 -54.430446866280761 -30.013657310075899 1.7570197294080288 0 -0.57357644374324357 0.81915203911291934 1 0 0 forward_v I I I I #
loop $-1 $-1 $153 $36 #
coedge $-1 $94 $94 $95 $154 reversed $57 $-1 #
coedge $-1 $95 $95 $94 $154 forward $59 $-1 #
coedge $-1 $96 $96 $60 $97 forward $91 $-1 #
edge $-1 $155 4.6370116241912451e-016 $155 6.2831853071796013 $96 $156 forward 7 unknown #
face $-1 $157 $158 $21 $-1 $159 forward single #
loop $-1 $-1 $160 $61 #
plane-surface $-1 4.1927331254644606 81.696764736124877 156.79293656589908 -1 0 0 0 0.6560590369687036 0.75470957328743171 forward_v I I I I #
coedge $-1 $161 $162 $163 $164 reversed $62 $-1 #
coedge $-1 $103 $64 $165 $166 reversed $40 $-1 #
coedge $-1 $64 $102 $161 $167 reversed $40 $-1 #
coedge $-1 $163 $168 $64 $105 forward $158 $-1 #
edge $-1 $169 10.83472505798655 $170 16.132667314672169 $104 $171 forward 7 unknown #
loop $-1 $-1 $111 $65 #
plane-surface $-1 -11.899925320120346 -15.289531692489291 45.222967603091405 0 0.6560590369687036 0.75470957328743171 1 0 0 forward_v I I I I #
loop $-1 $-1 $172 $42 #
coedge $-1 $109 $109 $110 $173 reversed $66 $-1 #
coedge $-1 $110 $110 $109 $173 forward $68 $-1 #
coedge $-1 $111 $111 $69 $112 forward $106 $-1 #
edge $-1 $174 1.5767565455500373e-016 $174 6.2831853071796004 $111 $175 forward 7 unknown #
loop $-1 $-1 $118 $70 #
plane-surface $-1 -11.899925320120346 -15.289531692489291 45.222967603091405 0 0.6560590369687036 0.75470957328743171 1 0 0 forward_v I I I I #
loop $-1 $-1 $176 $45 #
coedge $-1 $116 $116 $117 $177 reversed $71 $-1 #
coedge $-1 $117 $117 $116 $177 forward $73 $-1 #
coedge $-1 $118 $118 $74 $119 forward $113 $-1 #
edge $-1 $178 1.5767565455500373e-016 $178 6.2831853071796004 $118 $179 forward 7 unknown #
face $-1 $180 $181 $18 $-1 $182 reversed single #
loop $-1 $-1 $183 $75 #
plane-surface $-1 -73.915829950865202 0 0 1 0 0 0 0 -1 forward_v I I I I #
coedge $-1 $184 $131 $185 $186 forward $76 $-1 #
coedge $-1 $187 $78 $184 $188 forward $49 $-1 #
coedge $-1 $78 $187 $189 $190 forward $49 $-1 #
coedge $-1 $134 $133 $78 $127 reversed $135 $-1 #
edge $-1 $191 -30.013657310075889 $192 30.013657310075889 $126 $193 forward 7 unknown #
coedge $-1 $80 $79 $194 $195 forward $31 $-1 #
coedge $-1 $196 $197 $79 $130 reversed $181 $-1 #
edge $-1 $137 -73.915829950865202 $198 73.915829950865202 $129 $199 forward 7 unknown #
coedge $-1 $123 $200 $80 $132 reversed $76 $-1 #
edge $-1 $201 -73.915829950865202 $136 73.915829950865202 $131 $202 forward 7 unknown #
coedge $-1 $126 $81 $200 $203 forward $135 $-1 #
coedge $-1 $81 $126 $196 $204 reversed $135 $-1 #
loop $-1 $-1 $133 $180 #
vertex $-1 $82 $205 #
vertex $-1 $82 $206 #
straight-curve $-1 73.915829950865202 0 10.446936421357114 0 1 0 I I #
face $-1 $-1 $207 $19 $-1 $208 reversed single #
loop $-1 $-1 $209 $83 #
plane-surface $-1 -73.915829950865202 0 0 1 0 0 0 0 -1 forward_v I I I I #
coedge $-1 $210 $86 $88 $148 forward $53 $-1 #
coedge $-1 $86 $210 $209 $211 reversed $53 $-1 #
coedge $-1 $212 $89 $86 $145 forward $84 $-1 #
edge $-1 $151 7.729840348555939 $213 46.700606517724822 $144 $214 forward 7 unknown #
coedge $-1 $215 $216 $87 $147 forward $207 $-1 #
edge $-1 $217 -59.669792962271003 $150 -50.979876270321924 $146 $218 forward 7 unknown #
edge $-1 $151 -15.150407215535946 $217 -1.3060862827860654e-014 $88 $219 forward 7 unknown #
coedge $-1 $89 $212 $215 $220 forward $84 $-1 #
vertex $-1 $147 $221 #
vertex $-1 $90 $222 #
straight-curve $-1 -34.945063781696319 -57.40320753458554 10.446936421357115 0 1 0 I I #
coedge $-1 $153 $153 $-1 $223 reversed $93 $-1 #
edge $-1 $224 0 $224 6.2831853071796004 $94 $225 forward 7 unknown #
vertex $-1 $97 $226 #
ellipse-curve $-1 -54.430446866280761 -23.808413828077207 6.1019780753825827 0 -0.57357644374324357 0.81915203911291934 2.5 0 0 1 I I #
face $-1 $-1 $227 $21 $-1 $228 reversed single #
loop $-1 $-1 $104 $98 #
plane-surface $-1 0 0 10.446936421357114 0 0 1 1 0 0 forward_v I I I I #
coedge $-1 $229 $230 $231 $232 reversed $99 $-1 #
coedge $-1 $233 $101 $103 $167 forward $62 $-1 #
coedge $-1 $101 $233 $229 $234 forward $62 $-1 #
coedge $-1 $231 $104 $101 $164 forward $158 $-1 #
edge $-1 $170 -22.042621105644979 $235 10.142695785524634 $163 $236 forward 7 unknown #
coedge $-1 $237 $238 $102 $166 forward $227 $-1 #
edge $-1 $239 -72.554962901372306 $169 -67.949531861592433 $165 $240 forward 7 unknown #
edge $-1 $170 53.007472227523387 $239 60.027314620151799 $103 $241 forward 7 unknown #
coedge $-1 $104 $231 $237 $242 forward $158 $-1 #
vertex $-1 $166 $243 #
vertex $-1 $105 $244 #
straight-curve $-1 -27.992583765705152 40.848382368062438 10.446936421357108 0 -1 0 I I #
coedge $-1 $172 $172 $-1 $245 reversed $108 $-1 #
edge $-1 $246 0 $246 6.2831853071796004 $109 $247 forward 7 unknown #
vertex $-1 $112 $248 #
ellipse-curve $-1 -18.796778939656697 27.36468618173307 8.1442209014671736 0 0.6560590369687036 0.75470957328743171 1.5 0 0 1 I I #
coedge $-1 $176 $176 $-1 $249 reversed $115 $-1 #
edge $-1 $250 0 $250 6.2831853071796004 $116 $251 forward 7 unknown #
vertex $-1 $119 $252 #
ellipse-curve $-1 -5.0030717005840017 27.36468618173307 8.1442209014671736 0 0.6560590369687036 0.75470957328743171 1.5 0 0 1 I I #
face $-1 $-1 $135 $18 $-1 $253 reversed single #
loop $-1 $-1 $196 $120 #
plane-surface $-1 0 30.013657310075889 0 0 -1 0 0 0 -1 forward_v I I I I #
coedge $-1 $254 $194 $197 $255 forward $121 $-1 #
coedge $-1 $200 $123 $124 $188 reversed $76 $-1 #
coedge $-1 $194 $254 $123 $186 reversed $121 $-1 #
edge $-1 $201 -10.446936421357114 $256 10.446936421357114 $185 $257 forward 7 unknown #
coedge $-1 $125 $124 $254 $258 forward $49 $-1 #
edge $-1 $192 -73.915829950865202 $256 73.915829950865202 $184 $259 forward 7 unknown #
coedge $-1 $197 $196 $125 $190 reversed $181 $-1 #
edge $-1 $260 -73.915829950865202 $191 73.915829950865202 $189 $261 forward 7 unknown #
vertex $-1 $127 $262 #
vertex $-1 $203 $263 #
straight-curve $-1 73.915829950865202 0 -10.446936421357114 0 -1 0 I I #
coedge $-1 $183 $185 $128 $195 reversed $121 $-1 #
edge $-1 $198 -30.013657310075889 $201 30.013657310075889 $194 $264 forward 7 unknown #
coedge $-1 $189 $129 $134 $204 forward $181 $-1 #
coedge $-1 $129 $189 $183 $255 reversed $181 $-1 #
vertex $-1 $130 $265 #
straight-curve $-1 0 30.013657310075889 10.446936421357114 -1 0 0 I I #
coedge $-1 $131 $184 $133 $203 reversed $76 $-1 #
vertex $-1 $195 $266 #
straight-curve $-1 0 -30.013657310075889 10.446936421357114 1 0 0 I I #
edge $-1 $136 -10.446936421357114 $192 10.446936421357114 $133 $267 forward 7 unknown #
edge $-1 $137 -10.446936421357114 $191 10.446936421357114 $134 $268 forward 7 unknown #
point $-1 73.915829950865202 -30.013657310075889 10.446936421357114 #
point $-1 73.915829950865202 30.013657310075889 10.446936421357114 #
loop $-1 $-1 $146 $139 #
plane-surface $-1 0 -30.013657310075889 0 0 1 0 0 0 1 forward_v I I I I #
coedge $-1 $269 $270 $143 $211 forward $140 $-1 #
coedge $-1 $143 $142 $216 $271 reversed $53 $-1 #
edge $-1 $213 -3.3614254861337081 $272 11.788981729402225 $209 $273 forward 7 unknown #
coedge $-1 $149 $144 $270 $274 forward $84 $-1 #
vertex $-1 $274 $275 #
straight-curve $-1 -27.21522343314038 -17.603170346078542 10.446936421357114 -1 0 0 I I #
coedge $-1 $276 $146 $149 $220 reversed $207 $-1 #
coedge $-1 $146 $276 $210 $271 forward $207 $-1 #
vertex $-1 $147 $277 #
straight-curve $-1 -34.945063781696319 -30.013657310075885 61.426812691679039 0 0 1 I I #
straight-curve $-1 -34.945063781696319 -30.013657310075899 1.7570197294080288 0 -0.81915203911291934 -0.57357644374324357 I I #
edge $-1 $278 -73.915829950865202 $150 -34.945063781696319 $215 $279 forward 7 unknown #
point $-1 -34.945063781696319 -30.013657310075889 10.446936421357114 #
point $-1 -34.945063781696319 -17.603170346078542 10.446936421357114 #
edge $-1 $280 1 $280 0 $153 $-1 forward 7 unknown #
vertex $-1 $154 $281 #
ellipse-curve $-1 -54.430446866280761 -18.716472187998079 -1.1700680886714363 0 -0.57357644374324357 0.81915203911291934 2.5 0 0 1 I I #
point $-1 -51.930446866280761 -23.808413828077185 6.1019780753825543 #
loop $-1 $-1 $165 $157 #
plane-surface $-1 0 30.013657310075889 0 0 -1 0 0 0 -1 forward_v I I I I #
coedge $-1 $230 $160 $162 $234 reversed $99 $-1 #
coedge $-1 $160 $229 $282 $283 reversed $99 $-1 #
coedge $-1 $168 $163 $160 $232 forward $158 $-1 #
edge $-1 $235 -16.132667314672169 $284 -10.83472505798655 $231 $285 forward 7 unknown #
coedge $-1 $162 $161 $238 $286 reversed $62 $-1 #
edge $-1 $287 -60.027314620151799 $235 -53.007472227523387 $229 $288 forward 7 unknown #
vertex $-1 $164 $289 #
straight-curve $-1 -5.9499626600601729 24.715715053390259 10.446936421357119 1 0 0 I I #
coedge $-1 $282 $165 $168 $242 reversed $227 $-1 #
coedge $-1 $165 $282 $233 $286 forward $227 $-1 #
vertex $-1 $166 $290 #
straight-curve $-1 -27.992583765705152 30.013657310075889 78.396468282949542 0 0 1 I I #
straight-curve $-1 -27.992583765705152 -15.289531692489291 45.222967603091405 0 0.75470957328743171 -0.6560590369687036 I I #
edge $-1 $284 -4.1927331254644606 $169 27.992583765705152 $237 $291 forward 7 unknown #
point $-1 -27.992583765705152 30.013657310075889 10.446936421357114 #
point $-1 -27.992583765705152 24.715715053390269 10.446936421357115 #
edge $-1 $292 1 $292 0 $172 $-1 forward 7 unknown #
vertex $-1 $173 $293 #
ellipse-curve $-1 -18.796778939656697 25.19787136503253 5.6515856452547668 0 0.6560590369687036 0.75470957328743171 1.5 0 0 1 I I #
point $-1 -17.296778939656697 27.364686181733084 8.1442209014671896 #
edge $-1 $294 1 $294 0 $176 $-1 forward 7 unknown #
vertex $-1 $177 $295 #
ellipse-curve $-1 -5.0030717005840017 25.19787136503253 5.6515856452547668 0 0.6560590369687036 0.75470957328743171 1.5 0 0 1 I I #
point $-1 -3.5030717005840017 27.364686181733084 8.1442209014671896 #
plane-surface $-1 73.915829950865202 0 0 -1 0 0 0 0 1 forward_v I I I I #
coedge $-1 $185 $183 $187 $258 reversed $121 $-1 #
edge $-1 $198 -10.446936421357114 $260 10.446936421357114 $197 $296 forward 7 unknown #
vertex $-1 $258 $297 #
straight-curve $-1 -73.915829950865202 -30.013657310075889 0 0 0 -1 I I #
edge $-1 $256 -30.013657310075889 $260 30.013657310075889 $254 $298 forward 7 unknown #
straight-curve $-1 0 -30.013657310075889 -10.446936421357114 -1 0 0 I I #
vertex $-1 $190 $299 #
straight-curve $-1 0 30.013657310075889 -10.446936421357114 1 0 0 I I #
point $-1 73.915829950865202 30.013657310075889 -10.446936421357114 #
point $-1 73.915829950865202 -30.013657310075889 -10.446936421357114 #
straight-curve $-1 -73.915829950865202 0 10.446936421357114 0 -1 0 I I #
point $-1 -73.915829950865202 30.013657310075889 10.446936421357114 #
point $-1 -73.915829950865202 -30.013657310075889 10.446936421357114 #
straight-curve $-1 73.915829950865202 -30.013657310075889 0 0 0 -1 I I #
straight-curve $-1 73.915829950865202 30.013657310075889 0 0 0 -1 I I #
coedge $-1 $270 $209 $276 $300 reversed $140 $-1 #
coedge $-1 $209 $269 $212 $274 reversed $140 $-1 #
edge $-1 $272 -46.700606517724822 $217 -7.729840348555939 $216 $301 forward 7 unknown #
vertex $-1 $211 $302 #
straight-curve $-1 -73.915829950865202 -20.356688887371106 8.5189019451126384 0 -0.81915203911291934 -0.57357644374324357 I I #
edge $-1 $213 17.603170346078542 $278 30.013657310075889 $270 $303 forward 7 unknown #
point $-1 -73.915829950865202 -17.603170346078542 10.446936421357114 #
coedge $-1 $216 $215 $269 $300 forward $207 $-1 #
point $-1 -34.945063781696319 -30.013657310075889 1.7570197294080363 #
vertex $-1 $274 $304 #
straight-curve $-1 0 -30.013657310075889 10.446936421357114 1 0 0 I I #
vertex $-1 $223 $305 #
point $-1 -51.930446866280761 -18.716472187998079 -1.1700680886714363 #
coedge $-1 $238 $237 $230 $283 forward $227 $-1 #
edge $-1 $284 67.949531861592433 $287 72.554962901372306 $282 $306 forward 7 unknown #
vertex $-1 $242 $307 #
straight-curve $-1 4.1927331254644606 40.848382368062438 10.446936421357108 0 1 0 I I #
edge $-1 $287 -10.142695785524634 $239 22.042621105644979 $238 $308 forward 7 unknown #
vertex $-1 $286 $309 #
straight-curve $-1 4.1927331254644606 -15.289531692489291 45.222967603091405 0 -0.75470957328743171 0.6560590369687036 I I #
point $-1 4.1927331254644606 24.715715053390269 10.446936421357115 #
point $-1 -27.992583765705152 30.013657310075885 5.8415053815772353 #
straight-curve $-1 0 30.013657310075889 10.446936421357114 -1 0 0 I I #
vertex $-1 $245 $310 #
point $-1 -17.296778939656697 25.19787136503253 5.6515856452547668 #
vertex $-1 $249 $311 #
point $-1 -3.5030717005840017 25.19787136503253 5.6515856452547668 #
straight-curve $-1 -73.915829950865202 30.013657310075889 0 0 0 -1 I I #
point $-1 -73.915829950865202 -30.013657310075889 -10.446936421357114 #
straight-curve $-1 -73.915829950865202 0 -10.446936421357114 0 1 0 I I #
point $-1 -73.915829950865202 30.013657310075889 -10.446936421357114 #
edge $-1 $278 -10.446936421357114 $272 -1.7570197294080363 $269 $312 forward 7 unknown #
straight-curve $-1 -27.21522343314038 -30.013657310075889 1.7570197294080343 1 0 0 I I #
point $-1 -73.915829950865202 -30.013657310075889 1.7570197294080363 #
straight-curve $-1 -73.915829950865202 0 10.446936421357114 0 -1 0 I I #
point $-1 -73.915829950865202 -30.013657310075889 10.446936421357114 #
point $-1 -54.430446866280761 -17.28253107863997 -3.2179481864537349 #
straight-curve $-1 4.1927331254644606 30.013657310075889 78.396468282949542 0 0 -1 I I #
point $-1 4.1927331254644606 30.013657310075889 10.446936421357114 #
straight-curve $-1 -5.9499626600601729 30.013657310075892 5.8415053815772318 -1 0 0 I I #
point $-1 4.1927331254644606 30.013657310075885 5.8415053815772353 #
point $-1 -18.796778939656697 24.213782809579474 4.5195212853236191 #
point $-1 -5.0030717005840017 24.213782809579474 4.5195212853236191 #
straight-curve $-1 -73.915829950865202 -30.013657310075889 0 0 0 -1 I I #
End-of-ACIS-data 