500 0 19 0           
7 Unknown 11 ACIS 5.0 NT 24 Fri Mar 26 19:08:57 1999 
-1 9.9999999999999995e-007 1e-010 
body $-1 $19 $-1 $20 #
body $-1 $21 $-1 $22 #
body $-1 $23 $-1 $24 #
body $-1 $25 $-1 $26 #
body $-1 $27 $-1 $28 #
body $-1 $29 $-1 $30 #
body $-1 $31 $-1 $32 #
body $-1 $33 $-1 $34 #
body $-1 $35 $-1 $36 #
body $-1 $37 $-1 $38 #
body $-1 $39 $-1 $40 #
body $-1 $41 $-1 $42 #
body $-1 $43 $-1 $44 #
body $-1 $45 $-1 $46 #
body $-1 $47 $-1 $48 #
body $-1 $49 $-1 $50 #
body $-1 $51 $-1 $52 #
body $-1 $53 $-1 $54 #
body $-1 $55 $-1 $56 #
lump $-1 $-1 $57 $0 #
transform $-1 1 0 0 0 1 0 0 0 1 77.21427045503097 41.760555947231126 12.485599488761228 1 rotate no_reflect no_shear #
lump $-1 $-1 $58 $1 #
transform $-1 1 0 0 0 1 0 0 0 1 77.21427045503097 41.760555947231126 12.485599488761228 1 rotate no_reflect no_shear #
lump $-1 $-1 $59 $2 #
transform $-1 1 0 0 0 1 0 0 0 1 77.21427045503097 41.760555947231126 12.485599488761228 1 rotate no_reflect no_shear #
lump $-1 $-1 $60 $3 #
transform $-1 1 0 0 0 1 0 0 0 1 77.21427045503097 41.760555947231126 12.485599488761228 1 rotate no_reflect no_shear #
lump $-1 $-1 $61 $4 #
transform $-1 1 0 0 0 1 0 0 0 1 77.21427045503097 41.760555947231126 12.485599488761228 1 rotate no_reflect no_shear #
lump $-1 $-1 $62 $5 #
transform $-1 1 0 0 0 1 0 0 0 1 77.21427045503097 41.760555947231126 12.485599488761228 1 rotate no_reflect no_shear #
lump $-1 $-1 $63 $6 #
transform $-1 1 0 0 0 1 0 0 0 1 77.21427045503097 41.760555947231126 12.485599488761228 1 rotate no_reflect no_shear #
lump $-1 $-1 $64 $7 #
transform $-1 1 0 0 0 1 0 0 0 1 77.21427045503097 41.760555947231126 12.485599488761228 1 rotate no_reflect no_shear #
lump $-1 $-1 $65 $8 #
transform $-1 1 0 0 0 1 0 0 0 1 77.21427045503097 41.760555947231126 12.485599488761228 1 rotate no_reflect no_shear #
lump $-1 $-1 $66 $9 #
transform $-1 1 0 0 0 1 0 0 0 1 77.21427045503097 41.760555947231126 12.485599488761228 1 rotate no_reflect no_shear #
lump $-1 $-1 $67 $10 #
transform $-1 1 0 0 0 1 0 0 0 1 77.21427045503097 41.760555947231126 12.485599488761228 1 rotate no_reflect no_shear #
lump $-1 $-1 $68 $11 #
transform $-1 1 0 0 0 1 0 0 0 1 77.21427045503097 41.760555947231126 12.485599488761228 1 rotate no_reflect no_shear #
lump $-1 $-1 $69 $12 #
transform $-1 1 0 0 0 1 0 0 0 1 77.21427045503097 41.760555947231126 12.485599488761228 1 rotate no_reflect no_shear #
lump $-1 $-1 $70 $13 #
transform $-1 1 0 0 0 1 0 0 0 1 77.21427045503097 41.760555947231126 12.485599488761228 1 rotate no_reflect no_shear #
lump $-1 $-1 $71 $14 #
transform $-1 1 0 0 0 1 0 0 0 1 77.21427045503097 41.760555947231126 12.485599488761228 1 rotate no_reflect no_shear #
lump $-1 $-1 $72 $15 #
transform $-1 1 0 0 0 1 0 0 0 1 77.21427045503097 41.760555947231126 12.485599488761228 1 rotate no_reflect no_shear #
lump $-1 $-1 $73 $16 #
transform $-1 1 0 0 0 1 0 0 0 1 77.21427045503097 41.760555947231126 12.485599488761228 1 rotate no_reflect no_shear #
lump $-1 $-1 $74 $17 #
transform $-1 1 0 0 0 1 0 0 0 1 77.21427045503097 41.760555947231126 12.485599488761228 1 rotate no_reflect no_shear #
lump $-1 $-1 $75 $18 #
transform $-1 1 0 0 0 1 0 0 0 1 77.21427045503097 41.760555947231126 12.485599488761228 1 rotate no_reflect no_shear #
shell $-1 $-1 $-1 $76 $-1 $19 #
shell $-1 $-1 $-1 $77 $-1 $21 #
shell $-1 $-1 $-1 $78 $-1 $23 #
shell $-1 $-1 $-1 $79 $-1 $25 #
shell $-1 $-1 $-1 $80 $-1 $27 #
shell $-1 $-1 $-1 $81 $-1 $29 #
shell $-1 $-1 $-1 $82 $-1 $31 #
shell $-1 $-1 $-1 $83 $-1 $33 #
shell $-1 $-1 $-1 $84 $-1 $35 #
shell $-1 $-1 $-1 $85 $-1 $37 #
shell $-1 $-1 $-1 $86 $-1 $39 #
shell $-1 $-1 $-1 $87 $-1 $41 #
shell $-1 $-1 $-1 $88 $-1 $43 #
shell $-1 $-1 $-1 $89 $-1 $45 #
shell $-1 $-1 $-1 $90 $-1 $47 #
shell $-1 $-1 $-1 $91 $-1 $49 #
shell $-1 $-1 $-1 $92 $-1 $51 #
shell $-1 $-1 $-1 $93 $-1 $53 #
shell $-1 $-1 $-1 $94 $-1 $55 #
face $-1 $95 $96 $57 $-1 $97 forward single #
face $-1 $98 $99 $58 $-1 $100 reversed single #
face $-1 $101 $102 $59 $-1 $103 reversed single #
face $-1 $104 $105 $60 $-1 $106 reversed single #
face $-1 $107 $108 $61 $-1 $109 forward single #
face $-1 $110 $111 $62 $-1 $112 forward single #
face $-1 $113 $114 $63 $-1 $115 forward single #
face $-1 $116 $117 $64 $-1 $118 reversed single #
face $-1 $119 $120 $65 $-1 $121 forward single #
face $-1 $122 $123 $66 $-1 $124 forward single #
face $-1 $125 $126 $67 $-1 $127 forward single #
face $-1 $128 $129 $68 $-1 $130 reversed single #
face $-1 $131 $132 $69 $-1 $133 forward single #
face $-1 $134 $135 $70 $-1 $136 forward single #
face $-1 $137 $138 $71 $-1 $139 forward single #
face $-1 $140 $141 $72 $-1 $142 reversed single #
face $-1 $143 $144 $73 $-1 $145 forward single #
face $-1 $146 $147 $74 $-1 $148 forward single #
face $-1 $149 $150 $75 $-1 $151 forward single #
face $-1 $152 $153 $57 $-1 $154 reversed single #
loop $-1 $-1 $155 $76 #
plane-surface $-1 0 0 12.485599488761228 0 0 1 1 0 0 forward_v I I I I #
face $-1 $156 $157 $58 $-1 $158 reversed single #
loop $-1 $-1 $159 $77 #
plane-surface $-1 0 -34.263080531699096 8.2606832617191817 0 0 1 1 0 0 forward_v I I I I #
face $-1 $160 $161 $59 $-1 $162 reversed single #
loop $-1 $-1 $163 $78 #
plane-surface $-1 0 34.263080531699103 8.2606832617191817 0 0 1 1 0 0 forward_v I I I I #
face $-1 $164 $165 $60 $-1 $166 reversed single #
loop $-1 $-1 $167 $79 #
plane-surface $-1 118.88599206948703 -10.822452492780457 216.01684623446548 0 -1 0 -0.82903758062907751 0 -0.55919289150049634 forward_v I I I I #
face $-1 $168 $169 $61 $-1 $170 forward single #
loop $-1 $171 $172 $80 #
cone-surface $-1 72.114399236736162 -20.959646224152955 6.0885443170195916 -0.82903758062907751 0 -0.55919289150049634 0.55919289150049634 0 -0.82903758062907751 1 I I 0 1 1 forward I I I I #
face $-1 $173 $174 $62 $-1 $175 forward single #
loop $-1 $176 $177 $81 #
cone-surface $-1 72.114399236736162 -17.158198574888267 6.0885443170195916 -0.82903758062907751 0 -0.55919289150049634 0.55919289150049634 0 -0.82903758062907751 1 I I 0 1 1 forward I I I I #
face $-1 $178 $179 $63 $-1 $180 forward single #
loop $-1 $181 $182 $82 #
cone-surface $-1 72.114399236736162 -13.356750925623579 6.0885443170195916 -0.82903758062907751 0 -0.55919289150049634 0.55919289150049634 0 -0.82903758062907751 1 I I 0 1 1 forward I I I I #
face $-1 $183 $184 $64 $-1 $185 reversed single #
loop $-1 $-1 $186 $83 #
plane-surface $-1 118.88599206948703 15.943152623386602 216.01684623446548 0 -1 0 -0.82903758062907751 0 -0.55919289150049634 forward_v I I I I #
face $-1 $187 $188 $65 $-1 $189 forward single #
loop $-1 $190 $191 $84 #
cone-surface $-1 72.114399236736162 5.8059588920141039 6.0885443170195916 -0.82903758062907751 0 -0.55919289150049634 0.55919289150049634 0 -0.82903758062907751 1 I I 0 1 1 forward I I I I #
face $-1 $192 $193 $66 $-1 $194 forward single #
loop $-1 $195 $196 $85 #
cone-surface $-1 72.114399236736162 9.6074065412787917 6.0885443170195916 -0.82903758062907751 0 -0.55919289150049634 0.55919289150049634 0 -0.82903758062907751 1 I I 0 1 1 forward I I I I #
face $-1 $197 $198 $67 $-1 $199 forward single #
loop $-1 $200 $201 $86 #
cone-surface $-1 72.114399236736162 13.408854190543479 6.0885443170195916 -0.82903758062907751 0 -0.55919289150049634 0.55919289150049634 0 -0.82903758062907751 1 I I 0 1 1 forward I I I I #
face $-1 $202 $203 $68 $-1 $204 reversed single #
loop $-1 $-1 $205 $87 #
plane-surface $-1 -205.24133439118725 -23.493944656996078 87.989782298309208 0 1 0 -0.82903758062907751 0 0.55919289150049634 forward_v I I I I #
face $-1 $206 $207 $69 $-1 $208 forward single #
loop $-1 $209 $210 $88 #
cone-surface $-1 -72.114399236736148 -20.959646224152955 6.0885443170195916 0.82903758062907751 0 -0.55919289150049634 0.55919289150049634 0 0.82903758062907751 1 I I 0 1 1 forward I I I I #
face $-1 $211 $212 $70 $-1 $213 forward single #
loop $-1 $214 $215 $89 #
cone-surface $-1 -72.114399236736148 -17.158198574888267 6.0885443170195916 0.82903758062907751 0 -0.55919289150049634 0.55919289150049634 0 0.82903758062907751 1 I I 0 1 1 forward I I I I #
face $-1 $216 $217 $71 $-1 $218 forward single #
loop $-1 $219 $220 $90 #
cone-surface $-1 -72.114399236736148 -13.356750925623579 6.0885443170195916 0.82903758062907751 0 -0.55919289150049634 0.55919289150049634 0 0.82903758062907751 1 I I 0 1 1 forward I I I I #
face $-1 $221 $222 $72 $-1 $223 reversed single #
loop $-1 $-1 $224 $91 #
plane-surface $-1 -205.24133439118725 3.271660459170981 87.989782298309208 0 1 0 -0.82903758062907751 0 0.55919289150049634 forward_v I I I I #
face $-1 $225 $226 $73 $-1 $227 forward single #
loop $-1 $228 $229 $92 #
cone-surface $-1 -72.114399236736148 5.8059588920141039 6.0885443170195916 0.82903758062907751 0 -0.55919289150049634 0.55919289150049634 0 0.82903758062907751 1 I I 0 1 1 forward I I I I #
face $-1 $230 $231 $74 $-1 $232 forward single #
loop $-1 $233 $234 $93 #
cone-surface $-1 -72.114399236736148 9.6074065412787917 6.0885443170195916 0.82903758062907751 0 -0.55919289150049634 0.55919289150049634 0 0.82903758062907751 1 I I 0 1 1 forward I I I I #
face $-1 $235 $236 $75 $-1 $237 forward single #
loop $-1 $238 $239 $94 #
cone-surface $-1 -72.114399236736148 13.408854190543479 6.0885443170195916 0.82903758062907751 0 -0.55919289150049634 0.55919289150049634 0 0.82903758062907751 1 I I 0 1 1 forward I I I I #
face $-1 $240 $241 $57 $-1 $242 reversed single #
loop $-1 $-1 $243 $95 #
plane-surface $-1 0 0 -12.485599488761228 0 0 1 1 0 0 forward_v I I I I #
coedge $-1 $244 $245 $246 $247 forward $96 $-1 #
face $-1 $248 $249 $58 $-1 $250 reversed single #
loop $-1 $-1 $251 $98 #
plane-surface $-1 0 -26.765605116167063 10.373141375240206 0 -1 0 0 0 -1 forward_v I I I I #
coedge $-1 $252 $253 $254 $255 reversed $99 $-1 #
face $-1 $256 $257 $59 $-1 $258 forward single #
loop $-1 $-1 $259 $101 #
plane-surface $-1 0 26.765605116167073 10.373141375240206 0 1 0 0 0 1 forward_v I I I I #
coedge $-1 $260 $261 $262 $263 reversed $102 $-1 #
face $-1 $264 $265 $60 $-1 $266 reversed single #
loop $-1 $-1 $267 $104 #
plane-surface $-1 -9.1410718666692503 -17.158198574888267 129.66150391276526 0.82903758062907751 0 0.55919289150049634 0.55919289150049634 0 -0.82903758062907751 forward_v I I I I #
coedge $-1 $268 $269 $270 $271 reversed $105 $-1 #
face $-1 $-1 $272 $61 $-1 $273 forward single #
loop $-1 $274 $275 $107 #
cone-surface $-1 70.259608868428501 -20.959646224152955 4.8374724556038409 -0.82903758062907751 0 -0.55919289150049634 0.27959644575024817 0 -0.41451879031453875 1 I I -0.70710678118654746 0.70710678118654746 0.5 forward I I I I #
loop $-1 $-1 $276 $80 #
coedge $-1 $172 $172 $277 $278 reversed $108 $-1 #
face $-1 $-1 $279 $62 $-1 $280 forward single #
loop $-1 $281 $282 $110 #
cone-surface $-1 70.259608868428501 -17.158198574888267 4.8374724556038409 -0.82903758062907751 0 -0.55919289150049634 0.27959644575024817 0 -0.41451879031453875 1 I I -0.70710678118654746 0.70710678118654746 0.5 forward I I I I #
loop $-1 $-1 $283 $81 #
coedge $-1 $177 $177 $284 $285 reversed $111 $-1 #
face $-1 $-1 $286 $63 $-1 $287 forward single #
loop $-1 $288 $289 $113 #
cone-surface $-1 70.259608868428501 -13.356750925623579 4.8374724556038409 -0.82903758062907751 0 -0.55919289150049634 0.27959644575024817 0 -0.41451879031453875 1 I I -0.70710678118654746 0.70710678118654746 0.5 forward I I I I #
loop $-1 $-1 $290 $82 #
coedge $-1 $182 $182 $291 $292 reversed $114 $-1 #
face $-1 $293 $294 $64 $-1 $295 reversed single #
loop $-1 $-1 $296 $116 #
plane-surface $-1 -9.1410718666692503 9.6074065412787917 129.66150391276526 0.82903758062907751 0 0.55919289150049634 0.55919289150049634 0 -0.82903758062907751 forward_v I I I I #
coedge $-1 $297 $298 $299 $300 reversed $117 $-1 #
face $-1 $-1 $301 $65 $-1 $302 forward single #
loop $-1 $303 $304 $119 #
cone-surface $-1 70.259608868428501 5.8059588920141039 4.8374724556038409 -0.82903758062907751 0 -0.55919289150049634 0.27959644575024817 0 -0.41451879031453875 1 I I -0.70710678118654746 0.70710678118654746 0.5 forward I I I I #
loop $-1 $-1 $305 $84 #
coedge $-1 $191 $191 $306 $307 reversed $120 $-1 #
face $-1 $-1 $308 $66 $-1 $309 forward single #
loop $-1 $310 $311 $122 #
cone-surface $-1 70.259608868428501 9.6074065412787917 4.8374724556038409 -0.82903758062907751 0 -0.55919289150049634 0.27959644575024817 0 -0.41451879031453875 1 I I -0.70710678118654746 0.70710678118654746 0.5 forward I I I I #
loop $-1 $-1 $312 $85 #
coedge $-1 $196 $196 $313 $314 reversed $123 $-1 #
face $-1 $-1 $315 $67 $-1 $316 forward single #
loop $-1 $317 $318 $125 #
cone-surface $-1 70.259608868428501 13.408854190543479 4.8374724556038409 -0.82903758062907751 0 -0.55919289150049634 0.27959644575024817 0 -0.41451879031453875 1 I I -0.70710678118654746 0.70710678118654746 0.5 forward I I I I #
loop $-1 $-1 $319 $86 #
coedge $-1 $201 $201 $320 $321 reversed $126 $-1 #
face $-1 $322 $323 $68 $-1 $324 reversed single #
loop $-1 $-1 $325 $128 #
plane-surface $-1 -77.21427045503097 -17.158198574888267 1.6344399766089879 -0.82903758062907751 0 0.55919289150049634 0.55919289150049634 0 0.82903758062907751 forward_v I I I I #
coedge $-1 $326 $327 $328 $329 reversed $129 $-1 #
face $-1 $-1 $330 $69 $-1 $331 forward single #
loop $-1 $332 $333 $131 #
cone-surface $-1 -70.259608868428487 -20.959646224152955 4.8374724556038409 0.82903758062907751 0 -0.55919289150049634 0.27959644575024817 0 0.41451879031453875 1 I I -0.70710678118654746 0.70710678118654746 0.5 forward I I I I #
loop $-1 $-1 $334 $88 #
coedge $-1 $210 $210 $335 $336 reversed $132 $-1 #
face $-1 $-1 $337 $70 $-1 $338 forward single #
loop $-1 $339 $340 $134 #
cone-surface $-1 -70.259608868428487 -17.158198574888267 4.8374724556038409 0.82903758062907751 0 -0.55919289150049634 0.27959644575024817 0 0.41451879031453875 1 I I -0.70710678118654746 0.70710678118654746 0.5 forward I I I I #
loop $-1 $-1 $341 $89 #
coedge $-1 $215 $215 $342 $343 reversed $135 $-1 #
face $-1 $-1 $344 $71 $-1 $345 forward single #
loop $-1 $346 $347 $137 #
cone-surface $-1 -70.259608868428487 -13.356750925623579 4.8374724556038409 0.82903758062907751 0 -0.55919289150049634 0.27959644575024817 0 0.41451879031453875 1 I I -0.70710678118654746 0.70710678118654746 0.5 forward I I I I #
loop $-1 $-1 $348 $90 #
coedge $-1 $220 $220 $349 $350 reversed $138 $-1 #
face $-1 $351 $352 $72 $-1 $353 reversed single #
loop $-1 $-1 $354 $140 #
plane-surface $-1 -77.21427045503097 9.6074065412787917 1.6344399766089879 -0.82903758062907751 0 0.55919289150049634 0.55919289150049634 0 0.82903758062907751 forward_v I I I I #
coedge $-1 $355 $356 $357 $358 reversed $141 $-1 #
face $-1 $-1 $359 $73 $-1 $360 forward single #
loop $-1 $361 $362 $143 #
cone-surface $-1 -70.259608868428487 5.8059588920141039 4.8374724556038409 0.82903758062907751 0 -0.55919289150049634 0.27959644575024817 0 0.41451879031453875 1 I I -0.70710678118654746 0.70710678118654746 0.5 forward I I I I #
loop $-1 $-1 $363 $92 #
coedge $-1 $229 $229 $364 $365 reversed $144 $-1 #
face $-1 $-1 $366 $74 $-1 $367 forward single #
loop $-1 $368 $369 $146 #
cone-surface $-1 -70.259608868428487 9.6074065412787917 4.8374724556038409 0.82903758062907751 0 -0.55919289150049634 0.27959644575024817 0 0.41451879031453875 1 I I -0.70710678118654746 0.70710678118654746 0.5 forward I I I I #
loop $-1 $-1 $370 $93 #
coedge $-1 $234 $234 $371 $372 reversed $147 $-1 #
face $-1 $-1 $373 $75 $-1 $374 forward single #
loop $-1 $375 $376 $149 #
cone-surface $-1 -70.259608868428487 13.408854190543479 4.8374724556038409 0.82903758062907751 0 -0.55919289150049634 0.27959644575024817 0 0.41451879031453875 1 I I -0.70710678118654746 0.70710678118654746 0.5 forward I I I I #
loop $-1 $-1 $377 $94 #
coedge $-1 $239 $239 $378 $379 reversed $150 $-1 #
face $-1 $380 $381 $57 $-1 $382 reversed single #
loop $-1 $-1 $383 $152 #
plane-surface $-1 0 -41.760555947231126 0 0 1 0 0 0 1 forward_v I I I I #
coedge $-1 $384 $385 $386 $387 forward $153 $-1 #
coedge $-1 $388 $155 $389 $390 forward $96 $-1 #
coedge $-1 $155 $388 $391 $392 forward $96 $-1 #
coedge $-1 $393 $394 $155 $247 reversed $395 $-1 #
edge $-1 $396 -41.760555947231126 $397 41.760555947231126 $246 $398 forward 7 unknown #
face $-1 $399 $400 $58 $-1 $401 reversed single #
loop $-1 $-1 $402 $156 #
plane-surface $-1 -77.21427045503097 0 0 1 0 0 0 0 -1 forward_v I I I I #
coedge $-1 $403 $404 $405 $406 reversed $157 $-1 #
coedge $-1 $407 $159 $408 $409 reversed $99 $-1 #
coedge $-1 $159 $407 $403 $410 forward $99 $-1 #
coedge $-1 $405 $411 $159 $255 forward $412 $-1 #
edge $-1 $413 -24.629015681381578 $414 -9.6340648503175146 $254 $415 forward 7 unknown #
face $-1 $416 $417 $59 $-1 $418 reversed single #
loop $-1 $-1 $419 $160 #
plane-surface $-1 0 0 12.485599488761228 0 0 1 1 0 0 forward_v I I I I #
coedge $-1 $420 $421 $422 $423 reversed $161 $-1 #
coedge $-1 $424 $163 $420 $425 forward $102 $-1 #
coedge $-1 $163 $424 $426 $427 reversed $102 $-1 #
coedge $-1 $428 $429 $163 $263 forward $417 $-1 #
edge $-1 $430 9.6340648503175217 $431 24.629015681381581 $262 $432 forward 7 unknown #
face $-1 $433 $434 $60 $-1 $435 forward single #
loop $-1 $-1 $436 $164 #
plane-surface $-1 118.88599206948703 -23.493944656996078 216.01684623446548 0 1 0 0.82903758062907751 0 0.55919289150049634 forward_v I I I I #
coedge $-1 $437 $438 $439 $440 reversed $165 $-1 #
coedge $-1 $269 $167 $441 $442 reversed $105 $-1 #
coedge $-1 $167 $268 $437 $443 reversed $105 $-1 #
coedge $-1 $439 $444 $167 $271 forward $434 $-1 #
edge $-1 $445 -17.771274420287455 $446 -10.452075139684055 $270 $447 forward 7 unknown #
loop $-1 $-1 $277 $168 #
plane-surface $-1 -9.1410718666692503 -17.158198574888267 129.66150391276526 0.82903758062907751 0 0.55919289150049634 0.55919289150049634 0 -0.82903758062907751 forward_v I I I I #
loop $-1 $-1 $448 $107 #
coedge $-1 $275 $275 $276 $449 reversed $169 $-1 #
coedge $-1 $276 $276 $275 $449 forward $171 $-1 #
coedge $-1 $277 $277 $172 $278 forward $272 $-1 #
edge $-1 $450 0 $450 6.2831853071796004 $277 $451 forward 7 unknown #
loop $-1 $-1 $284 $173 #
plane-surface $-1 -9.1410718666692503 -17.158198574888267 129.66150391276526 0.82903758062907751 0 0.55919289150049634 0.55919289150049634 0 -0.82903758062907751 forward_v I I I I #
loop $-1 $-1 $452 $110 #
coedge $-1 $282 $282 $283 $453 reversed $174 $-1 #
coedge $-1 $283 $283 $282 $453 forward $176 $-1 #
coedge $-1 $284 $284 $177 $285 forward $279 $-1 #
edge $-1 $454 0 $454 6.2831853071796004 $284 $455 forward 7 unknown #
loop $-1 $-1 $291 $178 #
plane-surface $-1 -9.1410718666692503 -17.158198574888267 129.66150391276526 0.82903758062907751 0 0.55919289150049634 0.55919289150049634 0 -0.82903758062907751 forward_v I I I I #
loop $-1 $-1 $456 $113 #
coedge $-1 $289 $289 $290 $457 reversed $179 $-1 #
coedge $-1 $290 $290 $289 $457 forward $181 $-1 #
coedge $-1 $291 $291 $182 $292 forward $286 $-1 #
edge $-1 $458 0 $458 6.2831853071796004 $291 $459 forward 7 unknown #
face $-1 $460 $461 $64 $-1 $462 reversed single #
loop $-1 $-1 $463 $183 #
plane-surface $-1 118.88599206948703 3.271660459170981 216.01684623446548 0 1 0 0.82903758062907751 0 0.55919289150049634 forward_v I I I I #
coedge $-1 $464 $465 $466 $467 reversed $184 $-1 #
coedge $-1 $298 $186 $468 $469 reversed $117 $-1 #
coedge $-1 $186 $297 $464 $470 reversed $117 $-1 #
coedge $-1 $466 $471 $186 $300 forward $472 $-1 #
edge $-1 $473 -17.771274420287455 $474 -10.452075139684055 $299 $475 forward 7 unknown #
loop $-1 $-1 $306 $187 #
plane-surface $-1 -9.1410718666692503 9.6074065412787917 129.66150391276526 0.82903758062907751 0 0.55919289150049634 0.55919289150049634 0 -0.82903758062907751 forward_v I I I I #
loop $-1 $-1 $476 $119 #
coedge $-1 $304 $304 $305 $477 reversed $188 $-1 #
coedge $-1 $305 $305 $304 $477 forward $190 $-1 #
coedge $-1 $306 $306 $191 $307 forward $301 $-1 #
edge $-1 $478 0 $478 6.2831853071796004 $306 $479 forward 7 unknown #
loop $-1 $-1 $313 $192 #
plane-surface $-1 -9.1410718666692503 9.6074065412787917 129.66150391276526 0.82903758062907751 0 0.55919289150049634 0.55919289150049634 0 -0.82903758062907751 forward_v I I I I #
loop $-1 $-1 $480 $122 #
coedge $-1 $311 $311 $312 $481 reversed $193 $-1 #
coedge $-1 $312 $312 $311 $481 forward $195 $-1 #
coedge $-1 $313 $313 $196 $314 forward $308 $-1 #
edge $-1 $482 0 $482 6.2831853071796004 $313 $483 forward 7 unknown #
loop $-1 $-1 $320 $197 #
plane-surface $-1 -9.1410718666692503 9.6074065412787917 129.66150391276526 0.82903758062907751 0 0.55919289150049634 0.55919289150049634 0 -0.82903758062907751 forward_v I I I I #
loop $-1 $-1 $484 $125 #
coedge $-1 $318 $318 $319 $485 reversed $198 $-1 #
coedge $-1 $319 $319 $318 $485 forward $200 $-1 #
coedge $-1 $320 $320 $201 $321 forward $315 $-1 #
edge $-1 $486 0 $486 6.2831853071796004 $320 $487 forward 7 unknown #
face $-1 $488 $489 $68 $-1 $490 reversed single #
loop $-1 $-1 $491 $202 #
plane-surface $-1 -205.24133439118725 -10.822452492780457 87.989782298309208 0 -1 0 0.82903758062907751 0 -0.55919289150049634 forward_v I I I I #
coedge $-1 $492 $493 $494 $495 reversed $203 $-1 #
coedge $-1 $327 $205 $496 $497 reversed $129 $-1 #
coedge $-1 $205 $326 $492 $498 reversed $129 $-1 #
coedge $-1 $494 $499 $205 $329 forward $500 $-1 #
edge $-1 $501 25.406396740562656 $502 32.725596021166055 $328 $503 forward 7 unknown #
loop $-1 $-1 $335 $206 #
plane-surface $-1 -77.21427045503097 -17.158198574888267 1.6344399766089879 -0.82903758062907751 0 0.55919289150049634 0.55919289150049634 0 0.82903758062907751 forward_v I I I I #
loop $-1 $-1 $504 $131 #
coedge $-1 $333 $333 $334 $505 reversed $207 $-1 #
coedge $-1 $334 $334 $333 $505 forward $209 $-1 #
coedge $-1 $335 $335 $210 $336 forward $330 $-1 #
edge $-1 $506 0 $506 6.2831853071796004 $335 $507 forward 7 unknown #
loop $-1 $-1 $342 $211 #
plane-surface $-1 -77.21427045503097 -17.158198574888267 1.6344399766089879 -0.82903758062907751 0 0.55919289150049634 0.55919289150049634 0 0.82903758062907751 forward_v I I I I #
loop $-1 $-1 $508 $134 #
coedge $-1 $340 $340 $341 $509 reversed $212 $-1 #
coedge $-1 $341 $341 $340 $509 forward $214 $-1 #
coedge $-1 $342 $342 $215 $343 forward $337 $-1 #
edge $-1 $510 0 $510 6.2831853071796004 $342 $511 forward 7 unknown #
loop $-1 $-1 $349 $216 #
plane-surface $-1 -77.21427045503097 -17.158198574888267 1.6344399766089879 -0.82903758062907751 0 0.55919289150049634 0.55919289150049634 0 0.82903758062907751 forward_v I I I I #
loop $-1 $-1 $512 $137 #
coedge $-1 $347 $347 $348 $513 reversed $217 $-1 #
coedge $-1 $348 $348 $347 $513 forward $219 $-1 #
coedge $-1 $349 $349 $220 $350 forward $344 $-1 #
edge $-1 $514 0 $514 6.2831853071796004 $349 $515 forward 7 unknown #
face $-1 $516 $517 $72 $-1 $518 forward single #
loop $-1 $-1 $519 $221 #
plane-surface $-1 -205.24133439118725 15.943152623386602 87.989782298309208 0 -1 0 0.82903758062907751 0 -0.55919289150049634 forward_v I I I I #
coedge $-1 $520 $521 $522 $523 reversed $222 $-1 #
coedge $-1 $356 $224 $524 $525 reversed $141 $-1 #
coedge $-1 $224 $355 $520 $526 reversed $141 $-1 #
coedge $-1 $522 $527 $224 $358 forward $517 $-1 #
edge $-1 $528 25.406396740562656 $529 32.725596021166055 $357 $530 forward 7 unknown #
loop $-1 $-1 $364 $225 #
plane-surface $-1 -77.21427045503097 9.6074065412787917 1.6344399766089879 -0.82903758062907751 0 0.55919289150049634 0.55919289150049634 0 0.82903758062907751 forward_v I I I I #
loop $-1 $-1 $531 $143 #
coedge $-1 $362 $362 $363 $532 reversed $226 $-1 #
coedge $-1 $363 $363 $362 $532 forward $228 $-1 #
coedge $-1 $364 $364 $229 $365 forward $359 $-1 #
edge $-1 $533 0 $533 6.2831853071796004 $364 $534 forward 7 unknown #
loop $-1 $-1 $371 $230 #
plane-surface $-1 -77.21427045503097 9.6074065412787917 1.6344399766089879 -0.82903758062907751 0 0.55919289150049634 0.55919289150049634 0 0.82903758062907751 forward_v I I I I #
loop $-1 $-1 $535 $146 #
coedge $-1 $369 $369 $370 $536 reversed $231 $-1 #
coedge $-1 $370 $370 $369 $536 forward $233 $-1 #
coedge $-1 $371 $371 $234 $372 forward $366 $-1 #
edge $-1 $537 0 $537 6.2831853071796004 $371 $538 forward 7 unknown #
loop $-1 $-1 $378 $235 #
plane-surface $-1 -77.21427045503097 9.6074065412787917 1.6344399766089879 -0.82903758062907751 0 0.55919289150049634 0.55919289150049634 0 0.82903758062907751 forward_v I I I I #
loop $-1 $-1 $539 $149 #
coedge $-1 $376 $376 $377 $540 reversed $236 $-1 #
coedge $-1 $377 $377 $376 $540 forward $238 $-1 #
coedge $-1 $378 $378 $239 $379 forward $373 $-1 #
edge $-1 $541 0 $541 6.2831853071796004 $378 $542 forward 7 unknown #
face $-1 $543 $544 $57 $-1 $545 reversed single #
loop $-1 $-1 $546 $240 #
plane-surface $-1 -77.21427045503097 0 0 1 0 0 0 0 -1 forward_v I I I I #
coedge $-1 $547 $391 $548 $549 forward $241 $-1 #
coedge $-1 $550 $243 $547 $551 forward $153 $-1 #
coedge $-1 $243 $550 $552 $553 forward $153 $-1 #
coedge $-1 $394 $393 $243 $387 reversed $395 $-1 #
edge $-1 $554 -41.760555947231126 $555 41.760555947231126 $386 $556 forward 7 unknown #
coedge $-1 $245 $244 $557 $558 forward $96 $-1 #
coedge $-1 $559 $560 $244 $390 reversed $544 $-1 #
edge $-1 $397 -77.21427045503097 $561 77.21427045503097 $389 $562 forward 7 unknown #
coedge $-1 $383 $563 $245 $392 reversed $241 $-1 #
edge $-1 $564 -77.21427045503097 $396 77.21427045503097 $391 $565 forward 7 unknown #
coedge $-1 $386 $246 $563 $566 forward $395 $-1 #
coedge $-1 $246 $386 $559 $567 reversed $395 $-1 #
loop $-1 $-1 $393 $543 #
vertex $-1 $247 $568 #
vertex $-1 $247 $569 #
straight-curve $-1 77.21427045503097 0 12.485599488761228 0 1 0 I I #
face $-1 $570 $571 $58 $-1 $572 forward single #
loop $-1 $-1 $408 $248 #
plane-surface $-1 0 -41.760555947231126 0 0 1 0 0 0 1 forward_v I I I I #
coedge $-1 $573 $574 $575 $576 forward $249 $-1 #
coedge $-1 $575 $251 $253 $410 reversed $157 $-1 #
coedge $-1 $251 $575 $577 $578 reversed $157 $-1 #
coedge $-1 $579 $254 $251 $406 forward $412 $-1 #
edge $-1 $414 3.0741125740990789 $580 7.2990288011411266 $405 $581 forward 7 unknown #
coedge $-1 $253 $252 $573 $582 reversed $99 $-1 #
coedge $-1 $583 $584 $252 $409 forward $400 $-1 #
edge $-1 $585 -77.21427045503097 $413 77.21427045503097 $408 $586 forward 7 unknown #
edge $-1 $587 -77.21427045503097 $414 77.21427045503097 $403 $588 forward 7 unknown #
coedge $-1 $254 $579 $583 $589 forward $412 $-1 #
loop $-1 $-1 $405 $570 #
vertex $-1 $409 $590 #
vertex $-1 $255 $591 #
straight-curve $-1 77.21427045503097 -17.131540265849548 8.2606832617191817 0 1 0 I I #
face $-1 $592 $593 $59 $-1 $594 reversed single #
loop $-1 $-1 $429 $256 #
plane-surface $-1 77.21427045503097 0 0 -1 0 0 0 0 1 forward_v I I I I #
coedge $-1 $595 $596 $421 $597 forward $257 $-1 #
coedge $-1 $598 $259 $260 $425 reversed $161 $-1 #
coedge $-1 $259 $598 $419 $597 reversed $161 $-1 #
coedge $-1 $599 $600 $259 $423 forward $593 $-1 #
edge $-1 $601 3.0741125740990789 $602 7.2990288011411266 $422 $603 forward 7 unknown #
coedge $-1 $261 $260 $600 $604 reversed $102 $-1 #
edge $-1 $430 -77.21427045503097 $601 77.21427045503097 $420 $605 forward 7 unknown #
coedge $-1 $606 $607 $261 $427 forward $608 $-1 #
edge $-1 $431 -77.21427045503097 $609 77.21427045503097 $426 $610 forward 7 unknown #
coedge $-1 $611 $262 $607 $612 reversed $417 $-1 #
coedge $-1 $262 $611 $598 $613 forward $417 $-1 #
vertex $-1 $263 $614 #
vertex $-1 $427 $615 #
straight-curve $-1 77.21427045503097 17.131540265849551 8.2606832617191817 0 1 0 I I #
face $-1 $-1 $616 $60 $-1 $617 reversed single #
loop $-1 $-1 $270 $264 #
plane-surface $-1 0 0 12.485599488761228 0 0 1 1 0 0 forward_v I I I I #
coedge $-1 $618 $619 $620 $621 reversed $265 $-1 #
coedge $-1 $622 $267 $269 $443 forward $165 $-1 #
coedge $-1 $267 $622 $618 $623 forward $165 $-1 #
coedge $-1 $620 $270 $267 $440 forward $434 $-1 #
edge $-1 $446 2.243353205336323 $624 14.914845369551944 $439 $625 forward 7 unknown #
coedge $-1 $626 $627 $268 $442 forward $616 $-1 #
edge $-1 $628 -106.37398314062376 $445 -95.522823628471514 $441 $629 forward 7 unknown #
edge $-1 $446 141.33967767189807 $628 154.42854091006194 $269 $630 forward 7 unknown #
coedge $-1 $270 $620 $626 $631 forward $434 $-1 #
vertex $-1 $442 $632 #
vertex $-1 $271 $633 #
straight-curve $-1 59.442996034743516 -10.822452492780457 12.485599488761224 -1 0 0 I I #
coedge $-1 $448 $448 $-1 $634 reversed $274 $-1 #
edge $-1 $635 0 $635 6.2831853071796004 $275 $636 forward 7 unknown #
vertex $-1 $278 $637 #
ellipse-curve $-1 73.554670814729292 -20.959646224152955 7.060019732685098 0.82903758062907751 0 0.55919289150049634 0.55919289150049634 0 -0.82903758062907751 1 I I #
coedge $-1 $452 $452 $-1 $638 reversed $281 $-1 #
edge $-1 $639 0 $639 6.2831853071796004 $282 $640 forward 7 unknown #
vertex $-1 $285 $641 #
ellipse-curve $-1 73.554670814729292 -17.158198574888267 7.060019732685098 0.82903758062907751 0 0.55919289150049634 0.55919289150049634 0 -0.82903758062907751 1 I I #
coedge $-1 $456 $456 $-1 $642 reversed $288 $-1 #
edge $-1 $643 0 $643 6.2831853071796004 $289 $644 forward 7 unknown #
vertex $-1 $292 $645 #
ellipse-curve $-1 73.554670814729292 -13.356750925623579 7.060019732685098 0.82903758062907751 0 0.55919289150049634 0.55919289150049634 0 -0.82903758062907751 1 I I #
face $-1 $-1 $472 $64 $-1 $646 forward single #
loop $-1 $-1 $647 $293 #
plane-surface $-1 77.21427045503097 0 0 -1 0 0 0 0 1 forward_v I I I I #
coedge $-1 $648 $649 $650 $651 reversed $294 $-1 #
coedge $-1 $652 $296 $298 $470 forward $184 $-1 #
coedge $-1 $296 $652 $648 $653 forward $184 $-1 #
coedge $-1 $650 $299 $296 $467 forward $472 $-1 #
edge $-1 $474 -11.139449352747206 $654 1.5320428114684148 $466 $655 forward 7 unknown #
coedge $-1 $656 $657 $297 $469 forward $461 $-1 #
edge $-1 $658 -106.37398314062376 $473 -95.522823628471514 $468 $659 forward 7 unknown #
edge $-1 $474 141.33967767189807 $658 154.42854091006194 $298 $660 forward 7 unknown #
coedge $-1 $299 $650 $656 $661 forward $472 $-1 #
loop $-1 $-1 $650 $460 #
vertex $-1 $469 $662 #
vertex $-1 $300 $663 #
straight-curve $-1 59.442996034743516 15.943152623386602 12.485599488761224 -1 0 0 I I #
coedge $-1 $476 $476 $-1 $664 reversed $303 $-1 #
edge $-1 $665 0 $665 6.2831853071796004 $304 $666 forward 7 unknown #
vertex $-1 $307 $667 #
ellipse-curve $-1 73.554670814729292 5.8059588920141039 7.060019732685098 0.82903758062907751 0 0.55919289150049634 0.55919289150049634 0 -0.82903758062907751 1 I I #
coedge $-1 $480 $480 $-1 $668 reversed $310 $-1 #
edge $-1 $669 0 $669 6.2831853071796004 $311 $670 forward 7 unknown #
vertex $-1 $314 $671 #
ellipse-curve $-1 73.554670814729292 9.6074065412787917 7.060019732685098 0.82903758062907751 0 0.55919289150049634 0.55919289150049634 0 -0.82903758062907751 1 I I #
coedge $-1 $484 $484 $-1 $672 reversed $317 $-1 #
edge $-1 $673 0 $673 6.2831853071796004 $318 $674 forward 7 unknown #
vertex $-1 $321 $675 #
ellipse-curve $-1 73.554670814729292 13.408854190543479 7.060019732685098 0.82903758062907751 0 0.55919289150049634 0.55919289150049634 0 -0.82903758062907751 1 I I #
face $-1 $-1 $500 $68 $-1 $676 forward single #
loop $-1 $-1 $677 $322 #
plane-surface $-1 -77.21427045503097 0 0 1 0 0 0 0 -1 forward_v I I I I #
coedge $-1 $678 $679 $680 $681 reversed $323 $-1 #
coedge $-1 $682 $325 $327 $498 forward $203 $-1 #
coedge $-1 $325 $682 $678 $683 forward $203 $-1 #
coedge $-1 $680 $328 $325 $495 forward $500 $-1 #
edge $-1 $502 -14.914845369551944 $684 -2.243353205336323 $494 $685 forward 7 unknown #
coedge $-1 $686 $687 $326 $497 forward $489 $-1 #
edge $-1 $688 -42.360451172545616 $501 -31.509291660393377 $496 $689 forward 7 unknown #
edge $-1 $502 -13.088863238163862 $688 0 $327 $690 forward 7 unknown #
coedge $-1 $328 $680 $686 $691 forward $500 $-1 #
loop $-1 $-1 $680 $488 #
vertex $-1 $497 $692 #
vertex $-1 $329 $693 #
straight-curve $-1 -102.62066719559363 -23.493944656996078 12.485599488761224 1 0 0 I I #
coedge $-1 $504 $504 $-1 $694 reversed $332 $-1 #
edge $-1 $695 0 $695 6.2831853071796004 $333 $696 forward 7 unknown #
vertex $-1 $336 $697 #
ellipse-curve $-1 -73.554670814729278 -20.959646224152955 7.0600197326850997 -0.82903758062907751 0 0.55919289150049634 0.55919289150049634 0 0.82903758062907751 1 I I #
coedge $-1 $508 $508 $-1 $698 reversed $339 $-1 #
edge $-1 $699 0 $699 6.2831853071796004 $340 $700 forward 7 unknown #
vertex $-1 $343 $701 #
ellipse-curve $-1 -73.554670814729278 -17.158198574888267 7.0600197326850997 -0.82903758062907751 0 0.55919289150049634 0.55919289150049634 0 0.82903758062907751 1 I I #
coedge $-1 $512 $512 $-1 $702 reversed $346 $-1 #
edge $-1 $703 0 $703 6.2831853071796004 $347 $704 forward 7 unknown #
vertex $-1 $350 $705 #
ellipse-curve $-1 -73.554670814729278 -13.356750925623579 7.0600197326850997 -0.82903758062907751 0 0.55919289150049634 0.55919289150049634 0 0.82903758062907751 1 I I #
face $-1 $-1 $706 $72 $-1 $707 reversed single #
loop $-1 $-1 $357 $351 #
plane-surface $-1 0 0 12.485599488761228 0 0 1 1 0 0 forward_v I I I I #
coedge $-1 $708 $709 $710 $711 reversed $352 $-1 #
coedge $-1 $712 $354 $356 $526 forward $222 $-1 #
coedge $-1 $354 $712 $708 $713 forward $222 $-1 #
coedge $-1 $710 $357 $354 $523 forward $517 $-1 #
edge $-1 $529 -1.5320428114684148 $714 11.139449352747206 $522 $715 forward 7 unknown #
coedge $-1 $716 $717 $355 $525 forward $706 $-1 #
edge $-1 $718 -42.360451172545616 $528 -31.509291660393377 $524 $719 forward 7 unknown #
edge $-1 $529 -13.088863238163862 $718 0 $356 $720 forward 7 unknown #
coedge $-1 $357 $710 $716 $721 forward $517 $-1 #
vertex $-1 $358 $722 #
vertex $-1 $358 $723 #
straight-curve $-1 -102.62066719559363 3.271660459170981 12.485599488761224 1 0 0 I I #
coedge $-1 $531 $531 $-1 $724 reversed $361 $-1 #
edge $-1 $725 0 $725 6.2831853071796004 $362 $726 forward 7 unknown #
vertex $-1 $365 $727 #
ellipse-curve $-1 -73.554670814729278 5.8059588920141039 7.0600197326850997 -0.82903758062907751 0 0.55919289150049634 0.55919289150049634 0 0.82903758062907751 1 I I #
coedge $-1 $535 $535 $-1 $728 reversed $368 $-1 #
edge $-1 $729 0 $729 6.2831853071796004 $369 $730 forward 7 unknown #
vertex $-1 $372 $731 #
ellipse-curve $-1 -73.554670814729278 9.6074065412787917 7.0600197326850997 -0.82903758062907751 0 0.55919289150049634 0.55919289150049634 0 0.82903758062907751 1 I I #
coedge $-1 $539 $539 $-1 $732 reversed $375 $-1 #
edge $-1 $733 0 $733 6.2831853071796004 $376 $734 forward 7 unknown #
vertex $-1 $379 $735 #
ellipse-curve $-1 -73.554670814729278 13.408854190543479 7.0600197326850997 -0.82903758062907751 0 0.55919289150049634 0.55919289150049634 0 0.82903758062907751 1 I I #
face $-1 $-1 $395 $57 $-1 $736 reversed single #
loop $-1 $-1 $559 $380 #
plane-surface $-1 0 41.760555947231126 0 0 -1 0 0 0 -1 forward_v I I I I #
coedge $-1 $737 $557 $560 $738 forward $381 $-1 #
coedge $-1 $563 $383 $384 $551 reversed $241 $-1 #
coedge $-1 $557 $737 $383 $549 reversed $381 $-1 #
edge $-1 $564 -12.485599488761228 $739 12.485599488761228 $548 $740 forward 7 unknown #
coedge $-1 $385 $384 $737 $741 forward $153 $-1 #
edge $-1 $555 -77.21427045503097 $739 77.21427045503097 $547 $742 forward 7 unknown #
coedge $-1 $560 $559 $385 $553 reversed $544 $-1 #
edge $-1 $743 -77.21427045503097 $554 77.21427045503097 $552 $744 forward 7 unknown #
vertex $-1 $387 $745 #
vertex $-1 $566 $746 #
straight-curve $-1 77.21427045503097 0 -12.485599488761228 0 -1 0 I I #
coedge $-1 $546 $548 $388 $558 reversed $381 $-1 #
edge $-1 $561 -41.760555947231126 $564 41.760555947231126 $557 $747 forward 7 unknown #
coedge $-1 $552 $389 $394 $567 forward $544 $-1 #
coedge $-1 $389 $552 $546 $738 reversed $544 $-1 #
vertex $-1 $390 $748 #
straight-curve $-1 0 41.760555947231126 12.485599488761228 -1 0 0 I I #
coedge $-1 $391 $547 $393 $566 reversed $241 $-1 #
vertex $-1 $558 $749 #
straight-curve $-1 0 -41.760555947231126 12.485599488761228 1 0 0 I I #
edge $-1 $396 -12.485599488761228 $555 12.485599488761228 $393 $750 forward 7 unknown #
edge $-1 $397 -12.485599488761228 $554 12.485599488761228 $394 $751 forward 7 unknown #
point $-1 77.21427045503097 -41.760555947231126 12.485599488761228 #
point $-1 77.21427045503097 41.760555947231126 12.485599488761228 #
face $-1 $-1 $412 $58 $-1 $752 reversed single #
loop $-1 $-1 $577 $399 #
plane-surface $-1 0 0 12.485599488761228 0 0 1 1 0 0 forward_v I I I I #
coedge $-1 $753 $402 $407 $582 forward $249 $-1 #
coedge $-1 $402 $753 $754 $755 reversed $249 $-1 #
coedge $-1 $404 $403 $402 $576 reversed $157 $-1 #
edge $-1 $756 -7.2990288011411266 $587 -3.0741125740990789 $402 $757 forward 7 unknown #
coedge $-1 $754 $758 $404 $578 forward $571 $-1 #
edge $-1 $580 -77.21427045503097 $756 77.21427045503097 $577 $759 forward 7 unknown #
coedge $-1 $411 $405 $758 $760 reversed $412 $-1 #
vertex $-1 $406 $761 #
straight-curve $-1 77.21427045503097 -26.765605116167063 5.1865706876201028 0 0 1 I I #
edge $-1 $587 9.6340648503175146 $585 24.629015681381578 $573 $762 forward 7 unknown #
coedge $-1 $763 $408 $411 $589 reversed $400 $-1 #
coedge $-1 $408 $763 $753 $764 forward $400 $-1 #
vertex $-1 $409 $765 #
straight-curve $-1 0 -41.760555947231126 8.2606832617191817 1 0 0 I I #
vertex $-1 $582 $766 #
straight-curve $-1 0 -26.765605116167063 8.2606832617191817 1 0 0 I I #
edge $-1 $767 -12.485599488761228 $413 -8.2606832617191817 $411 $768 forward 7 unknown #
point $-1 77.21427045503097 -41.760555947231126 8.2606832617191817 #
point $-1 77.21427045503097 -26.765605116167063 8.2606832617191817 #
face $-1 $-1 $608 $59 $-1 $769 reversed single #
loop $-1 $-1 $422 $416 #
plane-surface $-1 -77.21427045503097 0 0 1 0 0 0 0 -1 forward_v I I I I #
coedge $-1 $770 $419 $611 $771 forward $257 $-1 #
coedge $-1 $419 $770 $599 $772 forward $257 $-1 #
edge $-1 $602 -77.21427045503097 $773 77.21427045503097 $419 $774 forward 7 unknown #
coedge $-1 $421 $420 $429 $613 reversed $161 $-1 #
coedge $-1 $775 $422 $596 $772 reversed $593 $-1 #
coedge $-1 $422 $775 $424 $604 forward $593 $-1 #
vertex $-1 $604 $776 #
vertex $-1 $423 $777 #
straight-curve $-1 -77.21427045503097 26.765605116167073 5.1865706876201028 0 0 1 I I #
edge $-1 $609 -24.629015681381581 $601 -9.6340648503175217 $600 $778 forward 7 unknown #
straight-curve $-1 0 26.765605116167073 8.2606832617191817 -1 0 0 I I #
coedge $-1 $779 $426 $775 $780 reversed $608 $-1 #
coedge $-1 $426 $779 $428 $612 forward $608 $-1 #
loop $-1 $-1 $426 $592 #
vertex $-1 $427 $781 #
straight-curve $-1 0 41.760555947231126 8.2606832617191817 -1 0 0 I I #
coedge $-1 $429 $428 $595 $771 reversed $417 $-1 #
edge $-1 $782 -12.485599488761228 $431 -8.2606832617191817 $428 $783 forward 7 unknown #
edge $-1 $773 -7.2990288011411266 $430 -3.0741125740990789 $429 $784 forward 7 unknown #
point $-1 77.21427045503097 26.765605116167073 8.2606832617191817 #
point $-1 77.21427045503097 41.760555947231133 8.2606832617191817 #
loop $-1 $-1 $441 $433 #
plane-surface $-1 77.21427045503097 0 0 -1 0 0 0 0 1 forward_v I I I I #
coedge $-1 $619 $436 $438 $623 reversed $265 $-1 #
coedge $-1 $436 $618 $785 $786 reversed $265 $-1 #
coedge $-1 $444 $439 $436 $621 forward $434 $-1 #
edge $-1 $624 10.452075139684055 $787 17.771274420287455 $620 $788 forward 7 unknown #
coedge $-1 $438 $437 $627 $789 reversed $165 $-1 #
edge $-1 $790 -154.42854091006194 $624 -141.33967767189807 $618 $791 forward 7 unknown #
vertex $-1 $440 $792 #
straight-curve $-1 69.895071174427585 -8.5790992874441336 12.485599488761224 0 -1 0 I I #
coedge $-1 $785 $441 $444 $631 reversed $616 $-1 #
coedge $-1 $441 $785 $622 $789 forward $616 $-1 #
vertex $-1 $442 $793 #
straight-curve $-1 77.21427045503097 -10.822452492780457 108.00842311723274 0 0 1 I I #
straight-curve $-1 -9.1410718666692503 -10.822452492780457 129.66150391276526 0.55919289150049634 0 -0.82903758062907751 I I #
edge $-1 $787 -23.493944656996078 $445 -10.822452492780457 $626 $794 forward 7 unknown #
point $-1 77.21427045503097 -10.822452492780457 12.485599488761228 #
point $-1 69.895071174427571 -10.822452492780457 12.485599488761224 #
edge $-1 $795 1 $795 0 $448 $-1 forward 7 unknown #
vertex $-1 $449 $796 #
ellipse-curve $-1 70.674127658743046 -20.959646224152955 5.1170689013540889 0.82903758062907751 0 0.55919289150049634 0.55919289150049634 0 -0.82903758062907751 1 I I #
point $-1 74.113863706229779 -20.959646224152955 6.2309821520560158 #
edge $-1 $797 1 $797 0 $452 $-1 forward 7 unknown #
vertex $-1 $453 $798 #
ellipse-curve $-1 70.674127658743046 -17.158198574888267 5.1170689013540889 0.82903758062907751 0 0.55919289150049634 0.55919289150049634 0 -0.82903758062907751 1 I I #
point $-1 74.113863706229779 -17.158198574888267 6.2309821520560158 #
edge $-1 $799 1 $799 0 $456 $-1 forward 7 unknown #
vertex $-1 $457 $800 #
ellipse-curve $-1 70.674127658743046 -13.356750925623579 5.1170689013540889 0.82903758062907751 0 0.55919289150049634 0.55919289150049634 0 -0.82903758062907751 1 I I #
point $-1 74.113863706229779 -13.356750925623579 6.2309821520560158 #
plane-surface $-1 0 0 12.485599488761228 0 0 1 1 0 0 forward_v I I I I #
coedge $-1 $657 $656 $649 $801 forward $461 $-1 #
coedge $-1 $649 $463 $465 $653 reversed $294 $-1 #
coedge $-1 $463 $648 $647 $801 reversed $294 $-1 #
coedge $-1 $471 $466 $463 $651 forward $472 $-1 #
edge $-1 $654 10.452075139684055 $802 17.771274420287455 $650 $803 forward 7 unknown #
coedge $-1 $465 $464 $657 $804 reversed $184 $-1 #
edge $-1 $805 -154.42854091006194 $654 -141.33967767189807 $648 $806 forward 7 unknown #
vertex $-1 $467 $807 #
straight-curve $-1 69.895071174427585 4.8037032706393958 12.485599488761224 0 -1 0 I I #
coedge $-1 $647 $468 $471 $661 reversed $461 $-1 #
coedge $-1 $468 $647 $652 $804 forward $461 $-1 #
vertex $-1 $469 $808 #
straight-curve $-1 77.21427045503097 15.943152623386602 108.00842311723274 0 0 1 I I #
straight-curve $-1 -9.1410718666692503 15.943152623386602 129.66150391276526 0.55919289150049634 0 -0.82903758062907751 I I #
edge $-1 $802 3.271660459170981 $473 15.943152623386602 $656 $809 forward 7 unknown #
point $-1 77.21427045503097 15.943152623386602 12.485599488761228 #
point $-1 69.895071174427571 15.943152623386602 12.485599488761224 #
edge $-1 $810 1 $810 0 $476 $-1 forward 7 unknown #
vertex $-1 $477 $811 #
ellipse-curve $-1 70.674127658743046 5.8059588920141039 5.1170689013540889 0.82903758062907751 0 0.55919289150049634 0.55919289150049634 0 -0.82903758062907751 1 I I #
point $-1 74.113863706229779 5.8059588920141039 6.2309821520560158 #
edge $-1 $812 1 $812 0 $480 $-1 forward 7 unknown #
vertex $-1 $481 $813 #
ellipse-curve $-1 70.674127658743046 9.6074065412787917 5.1170689013540889 0.82903758062907751 0 0.55919289150049634 0.55919289150049634 0 -0.82903758062907751 1 I I #
point $-1 74.113863706229779 9.6074065412787917 6.2309821520560158 #
edge $-1 $814 1 $814 0 $484 $-1 forward 7 unknown #
vertex $-1 $485 $815 #
ellipse-curve $-1 70.674127658743046 13.408854190543479 5.1170689013540889 0.82903758062907751 0 0.55919289150049634 0.55919289150049634 0 -0.82903758062907751 1 I I #
point $-1 74.113863706229779 13.408854190543479 6.2309821520560158 #
plane-surface $-1 0 0 12.485599488761228 0 0 1 1 0 0 forward_v I I I I #
coedge $-1 $687 $686 $679 $816 forward $489 $-1 #
coedge $-1 $679 $491 $493 $683 reversed $323 $-1 #
coedge $-1 $491 $678 $677 $816 reversed $323 $-1 #
coedge $-1 $499 $494 $491 $681 forward $500 $-1 #
edge $-1 $684 -32.725596021166055 $817 -25.406396740562656 $680 $818 forward 7 unknown #
coedge $-1 $493 $492 $687 $819 reversed $203 $-1 #
edge $-1 $820 0 $684 13.088863238163862 $678 $821 forward 7 unknown #
vertex $-1 $495 $822 #
straight-curve $-1 -69.895071174427571 -8.5790992874441336 12.485599488761228 0 1 0 I I #
coedge $-1 $677 $496 $499 $691 reversed $489 $-1 #
coedge $-1 $496 $677 $682 $819 forward $489 $-1 #
vertex $-1 $497 $823 #
straight-curve $-1 -77.21427045503097 -23.493944656996078 43.994891149154604 0 0 1 I I #
straight-curve $-1 -77.21427045503097 -23.493944656996078 1.6344399766089879 -0.55919289150049634 0 -0.82903758062907751 I I #
edge $-1 $817 10.822452492780457 $501 23.493944656996078 $686 $824 forward 7 unknown #
point $-1 -77.21427045503097 -23.493944656996078 12.485599488761228 #
point $-1 -69.895071174427571 -23.493944656996078 12.485599488761228 #
edge $-1 $825 1 $825 0 $504 $-1 forward 7 unknown #
vertex $-1 $505 $826 #
ellipse-curve $-1 -70.674127658743032 -20.959646224152955 5.1170689013540889 -0.82903758062907751 0 0.55919289150049634 0.55919289150049634 0 0.82903758062907751 1 I I #
point $-1 -72.995477923228762 -20.959646224152955 7.8890573133141713 #
edge $-1 $827 1 $827 0 $508 $-1 forward 7 unknown #
vertex $-1 $509 $828 #
ellipse-curve $-1 -70.674127658743032 -17.158198574888267 5.1170689013540889 -0.82903758062907751 0 0.55919289150049634 0.55919289150049634 0 0.82903758062907751 1 I I #
point $-1 -72.995477923228762 -17.158198574888267 7.8890573133141713 #
edge $-1 $829 1 $829 0 $512 $-1 forward 7 unknown #
vertex $-1 $513 $830 #
ellipse-curve $-1 -70.674127658743032 -13.356750925623579 5.1170689013540889 -0.82903758062907751 0 0.55919289150049634 0.55919289150049634 0 0.82903758062907751 1 I I #
point $-1 -72.995477923228762 -13.356750925623579 7.8890573133141713 #
loop $-1 $-1 $524 $516 #
plane-surface $-1 -77.21427045503097 0 0 1 0 0 0 0 -1 forward_v I I I I #
coedge $-1 $709 $519 $521 $713 reversed $352 $-1 #
coedge $-1 $519 $708 $831 $832 reversed $352 $-1 #
coedge $-1 $527 $522 $519 $711 forward $517 $-1 #
edge $-1 $714 -32.725596021166055 $833 -25.406396740562656 $710 $834 forward 7 unknown #
coedge $-1 $521 $520 $717 $835 reversed $222 $-1 #
edge $-1 $836 0 $714 13.088863238163862 $708 $837 forward 7 unknown #
vertex $-1 $523 $838 #
straight-curve $-1 -69.895071174427571 4.8037032706393958 12.485599488761228 0 1 0 I I #
coedge $-1 $831 $524 $527 $721 reversed $706 $-1 #
coedge $-1 $524 $831 $712 $835 forward $706 $-1 #
vertex $-1 $525 $839 #
straight-curve $-1 -77.21427045503097 3.271660459170981 43.994891149154604 0 0 1 I I #
straight-curve $-1 -77.21427045503097 3.271660459170981 1.6344399766089879 -0.55919289150049634 0 -0.82903758062907751 I I #
edge $-1 $833 -15.943152623386602 $528 -3.271660459170981 $716 $840 forward 7 unknown #
point $-1 -77.21427045503097 3.271660459170981 12.485599488761228 #
point $-1 -69.895071174427571 3.271660459170981 12.485599488761228 #
edge $-1 $841 1 $841 0 $531 $-1 forward 7 unknown #
vertex $-1 $532 $842 #
ellipse-curve $-1 -70.674127658743032 5.8059588920141039 5.1170689013540889 -0.82903758062907751 0 0.55919289150049634 0.55919289150049634 0 0.82903758062907751 1 I I #
point $-1 -72.995477923228762 5.8059588920141039 7.8890573133141713 #
edge $-1 $843 1 $843 0 $535 $-1 forward 7 unknown #
vertex $-1 $536 $844 #
ellipse-curve $-1 -70.674127658743032 9.6074065412787917 5.1170689013540889 -0.82903758062907751 0 0.55919289150049634 0.55919289150049634 0 0.82903758062907751 1 I I #
point $-1 -72.995477923228762 9.6074065412787917 7.8890573133141713 #
edge $-1 $845 1 $845 0 $539 $-1 forward 7 unknown #
vertex $-1 $540 $846 #
ellipse-curve $-1 -70.674127658743032 13.408854190543479 5.1170689013540889 -0.82903758062907751 0 0.55919289150049634 0.55919289150049634 0 0.82903758062907751 1 I I #
point $-1 -72.995477923228762 13.408854190543479 7.8890573133141713 #
plane-surface $-1 77.21427045503097 0 0 -1 0 0 0 0 1 forward_v I I I I #
coedge $-1 $548 $546 $550 $741 reversed $381 $-1 #
edge $-1 $561 -12.485599488761228 $743 12.485599488761228 $560 $847 forward 7 unknown #
vertex $-1 $741 $848 #
straight-curve $-1 -77.21427045503097 -41.760555947231126 0 0 0 -1 I I #
edge $-1 $739 -41.760555947231126 $743 41.760555947231126 $737 $849 forward 7 unknown #
straight-curve $-1 0 -41.760555947231126 -12.485599488761228 -1 0 0 I I #
vertex $-1 $553 $850 #
straight-curve $-1 0 41.760555947231126 -12.485599488761228 1 0 0 I I #
point $-1 77.21427045503097 41.760555947231126 -12.485599488761228 #
point $-1 77.21427045503097 -41.760555947231126 -12.485599488761228 #
straight-curve $-1 -77.21427045503097 0 12.485599488761228 0 -1 0 I I #
point $-1 -77.21427045503097 41.760555947231126 12.485599488761228 #
point $-1 -77.21427045503097 -41.760555947231126 12.485599488761228 #
straight-curve $-1 77.21427045503097 -41.760555947231126 0 0 0 -1 I I #
straight-curve $-1 77.21427045503097 41.760555947231126 0 0 0 -1 I I #
plane-surface $-1 77.21427045503097 0 0 -1 0 0 0 0 1 forward_v I I I I #
coedge $-1 $574 $573 $584 $764 reversed $249 $-1 #
coedge $-1 $851 $577 $574 $755 forward $571 $-1 #
edge $-1 $756 26.765605116167063 $852 41.760555947231126 $574 $853 forward 7 unknown #
vertex $-1 $755 $854 #
straight-curve $-1 -77.21427045503097 -26.765605116167063 5.1865706876201028 0 0 -1 I I #
coedge $-1 $577 $851 $579 $760 forward $571 $-1 #
straight-curve $-1 0 -26.765605116167063 12.485599488761228 -1 0 0 I I #
edge $-1 $767 -41.760555947231126 $580 -26.765605116167063 $579 $855 forward 7 unknown #
point $-1 77.21427045503097 -26.765605116167063 12.485599488761229 #
straight-curve $-1 -77.21427045503097 -17.131540265849548 8.2606832617191817 0 -1 0 I I #
coedge $-1 $584 $583 $851 $856 reversed $400 $-1 #
edge $-1 $852 -12.485599488761228 $585 -8.2606832617191817 $753 $857 forward 7 unknown #
point $-1 -77.21427045503097 -41.760555947231126 8.2606832617191817 #
point $-1 -77.21427045503097 -26.765605116167063 8.2606832617191817 #
vertex $-1 $760 $858 #
straight-curve $-1 77.21427045503097 -41.760555947231126 0 0 0 -1 I I #
plane-surface $-1 0 41.760555947231126 0 0 -1 0 0 0 -1 forward_v I I I I #
coedge $-1 $596 $595 $779 $859 forward $257 $-1 #
edge $-1 $773 26.765605116167073 $782 41.760555947231126 $611 $860 forward 7 unknown #
edge $-1 $861 -41.760555947231126 $602 -26.765605116167073 $599 $862 forward 7 unknown #
vertex $-1 $771 $863 #
straight-curve $-1 0 26.765605116167073 12.485599488761228 1 0 0 I I #
coedge $-1 $600 $599 $606 $780 forward $593 $-1 #
point $-1 -77.21427045503097 26.765605116167073 8.2606832617191817 #
point $-1 -77.21427045503097 26.765605116167073 12.485599488761229 #
straight-curve $-1 -77.21427045503097 17.131540265849551 8.2606832617191817 0 -1 0 I I #
coedge $-1 $607 $606 $770 $859 reversed $608 $-1 #
edge $-1 $861 -12.485599488761228 $609 -8.2606832617191817 $606 $864 forward 7 unknown #
point $-1 -77.21427045503097 41.760555947231133 8.2606832617191817 #
vertex $-1 $771 $865 #
straight-curve $-1 77.21427045503097 41.760555947231126 0 0 0 -1 I I #
straight-curve $-1 77.21427045503097 26.765605116167073 5.1865706876201028 0 0 -1 I I #
coedge $-1 $627 $626 $619 $786 forward $616 $-1 #
edge $-1 $787 95.522823628471514 $790 106.37398314062376 $785 $866 forward 7 unknown #
vertex $-1 $631 $867 #
straight-curve $-1 59.442996034743516 -23.493944656996078 12.485599488761224 1 0 0 I I #
edge $-1 $790 -14.914845369551944 $628 -2.243353205336323 $627 $868 forward 7 unknown #
vertex $-1 $789 $869 #
straight-curve $-1 -9.1410718666692503 -23.493944656996078 129.66150391276526 -0.55919289150049634 0 0.82903758062907751 I I #
point $-1 69.895071174427571 -23.493944656996078 12.485599488761224 #
point $-1 77.21427045503097 -10.822452492780457 1.6344399766089737 #
straight-curve $-1 77.21427045503097 0 12.485599488761228 0 1 0 I I #
vertex $-1 $634 $870 #
point $-1 71.233320550243533 -20.959646224152955 4.2880313207250111 #
vertex $-1 $638 $871 #
point $-1 71.233320550243533 -17.158198574888267 4.2880313207250111 #
vertex $-1 $642 $872 #
point $-1 71.233320550243533 -13.356750925623579 4.2880313207250111 #
edge $-1 $802 95.522823628471514 $805 106.37398314062376 $647 $873 forward 7 unknown #
vertex $-1 $661 $874 #
straight-curve $-1 59.442996034743516 3.271660459170981 12.485599488761224 1 0 0 I I #
edge $-1 $805 -1.5320428114684148 $658 11.139449352747206 $657 $875 forward 7 unknown #
vertex $-1 $804 $876 #
straight-curve $-1 -9.1410718666692503 3.271660459170981 129.66150391276526 -0.55919289150049634 0 0.82903758062907751 I I #
point $-1 69.895071174427571 3.271660459170981 12.485599488761224 #
point $-1 77.21427045503097 15.943152623386602 1.6344399766089737 #
straight-curve $-1 77.21427045503097 0 12.485599488761228 0 1 0 I I #
vertex $-1 $664 $877 #
point $-1 71.233320550243533 5.8059588920141039 4.2880313207250111 #
vertex $-1 $668 $878 #
point $-1 71.233320550243533 9.6074065412787917 4.2880313207250111 #
vertex $-1 $672 $879 #
point $-1 71.233320550243533 13.408854190543479 4.2880313207250111 #
edge $-1 $817 31.509291660393377 $820 42.360451172545616 $677 $880 forward 7 unknown #
vertex $-1 $691 $881 #
straight-curve $-1 -102.62066719559363 -10.822452492780457 12.485599488761224 -1 0 0 I I #
edge $-1 $820 2.243353205336323 $688 14.914845369551944 $687 $882 forward 7 unknown #
vertex $-1 $819 $883 #
straight-curve $-1 -77.21427045503097 -10.822452492780457 1.6344399766089879 0.55919289150049634 0 0.82903758062907751 I I #
point $-1 -69.895071174427571 -10.822452492780457 12.485599488761228 #
point $-1 -77.21427045503097 -23.493944656996078 1.6344399766089879 #
straight-curve $-1 -77.21427045503097 0 12.485599488761228 0 -1 0 I I #
vertex $-1 $694 $884 #
point $-1 -70.114934767242531 -20.959646224152955 5.9461064819831666 #
vertex $-1 $698 $885 #
point $-1 -70.114934767242531 -17.158198574888267 5.9461064819831666 #
vertex $-1 $702 $886 #
point $-1 -70.114934767242531 -13.356750925623579 5.9461064819831666 #
coedge $-1 $717 $716 $709 $832 forward $706 $-1 #
edge $-1 $833 31.509291660393377 $836 42.360451172545616 $831 $887 forward 7 unknown #
vertex $-1 $721 $888 #
straight-curve $-1 -102.62066719559363 15.943152623386602 12.485599488761224 -1 0 0 I I #
edge $-1 $836 -11.139449352747206 $718 1.5320428114684148 $717 $889 forward 7 unknown #
vertex $-1 $835 $890 #
straight-curve $-1 -77.21427045503097 15.943152623386602 1.6344399766089879 0.55919289150049634 0 0.82903758062907751 I I #
point $-1 -69.895071174427571 15.943152623386602 12.485599488761228 #
point $-1 -77.21427045503097 3.271660459170981 1.6344399766089879 #
straight-curve $-1 -77.21427045503097 0 12.485599488761228 0 -1 0 I I #
vertex $-1 $724 $891 #
point $-1 -70.114934767242531 5.8059588920141039 5.9461064819831666 #
vertex $-1 $728 $892 #
point $-1 -70.114934767242531 9.6074065412787917 5.9461064819831666 #
vertex $-1 $732 $893 #
point $-1 -70.114934767242531 13.408854190543479 5.9461064819831666 #
straight-curve $-1 -77.21427045503097 41.760555947231126 0 0 0 -1 I I #
point $-1 -77.21427045503097 -41.760555947231126 -12.485599488761228 #
straight-curve $-1 -77.21427045503097 0 -12.485599488761228 0 1 0 I I #
point $-1 -77.21427045503097 41.760555947231126 -12.485599488761228 #
coedge $-1 $758 $754 $763 $856 forward $571 $-1 #
vertex $-1 $755 $894 #
straight-curve $-1 -77.21427045503097 0 12.485599488761228 0 -1 0 I I #
point $-1 -77.21427045503097 -26.765605116167063 12.485599488761229 #
straight-curve $-1 77.21427045503097 0 12.485599488761228 0 1 0 I I #
edge $-1 $852 -77.21427045503097 $767 77.21427045503097 $763 $895 forward 7 unknown #
straight-curve $-1 -77.21427045503097 -41.760555947231126 0 0 0 -1 I I #
point $-1 77.21427045503097 -41.760555947231126 12.485599488761228 #
edge $-1 $782 -77.21427045503097 $861 77.21427045503097 $779 $896 forward 7 unknown #
straight-curve $-1 77.21427045503097 0 12.485599488761228 0 1 0 I I #
vertex $-1 $859 $897 #
straight-curve $-1 -77.21427045503097 0 12.485599488761228 0 -1 0 I I #
point $-1 77.21427045503097 26.765605116167073 12.485599488761229 #
straight-curve $-1 -77.21427045503097 41.760555947231126 0 0 0 -1 I I #
point $-1 77.21427045503097 41.760555947231126 12.485599488761228 #
straight-curve $-1 77.21427045503097 -23.493944656996078 108.00842311723274 0 0 -1 I I #
point $-1 77.21427045503097 -23.493944656996078 12.485599488761228 #
straight-curve $-1 77.21427045503097 -8.5790992874441336 1.634439976608995 0 1 0 I I #
point $-1 77.21427045503097 -23.493944656996078 1.6344399766089737 #
point $-1 69.845090078113955 -20.959646224152955 4.5578760098535929 #
point $-1 69.845090078113955 -17.158198574888267 4.5578760098535929 #
point $-1 69.845090078113955 -13.356750925623579 4.5578760098535929 #
straight-curve $-1 77.21427045503097 3.271660459170981 108.00842311723274 0 0 -1 I I #
point $-1 77.21427045503097 3.271660459170981 12.485599488761228 #
straight-curve $-1 77.21427045503097 4.8037032706393958 1.634439976608995 0 1 0 I I #
point $-1 77.21427045503097 3.271660459170981 1.6344399766089737 #
point $-1 69.845090078113955 5.8059588920141039 4.5578760098535929 #
point $-1 69.845090078113955 9.6074065412787917 4.5578760098535929 #
point $-1 69.845090078113955 13.408854190543479 4.5578760098535929 #
straight-curve $-1 -77.21427045503097 -10.822452492780457 43.994891149154604 0 0 -1 I I #
point $-1 -77.21427045503097 -10.822452492780457 12.485599488761228 #
straight-curve $-1 -77.21427045503097 -8.5790992874441336 1.6344399766089954 0 -1 0 I I #
point $-1 -77.21427045503097 -10.822452492780457 1.6344399766089879 #
point $-1 -69.845090078113941 -20.959646224152955 4.5578760098535929 #
point $-1 -69.845090078113941 -17.158198574888267 4.5578760098535929 #
point $-1 -69.845090078113941 -13.356750925623579 4.5578760098535929 #
straight-curve $-1 -77.21427045503097 15.943152623386602 43.994891149154604 0 0 -1 I I #
point $-1 -77.21427045503097 15.943152623386602 12.485599488761228 #
straight-curve $-1 -77.21427045503097 4.8037032706393958 1.6344399766089954 0 -1 0 I I #
point $-1 -77.21427045503097 15.943152623386602 1.6344399766089879 #
point $-1 -69.845090078113941 5.8059588920141039 4.5578760098535929 #
point $-1 -69.845090078113941 9.6074065412787917 4.5578760098535929 #
point $-1 -69.845090078113941 13.408854190543479 4.5578760098535929 #
point $-1 -77.21427045503097 -41.760555947231126 12.485599488761228 #
straight-curve $-1 0 -41.760555947231126 12.485599488761228 1 0 0 I I #
straight-curve $-1 0 41.760555947231126 12.485599488761228 -1 0 0 I I #
point $-1 -77.21427045503097 41.760555947231126 12.485599488761228 #
End-of-ACIS-data 