500 0 5 0           
7 Unknown 11 ACIS 5.0 NT 24 Thu Mar 25 16:08:43 1999 
-1 9.9999999999999995e-007 1e-010 
body $-1 $5 $-1 $6 #
body $-1 $7 $-1 $8 #
body $-1 $9 $-1 $10 #
body $-1 $11 $-1 $12 #
body $-1 $13 $-1 $14 #
lump $-1 $-1 $15 $0 #
transform $-1 1 0 0 0 1 0 0 0 1 62.633747367778554 40.451113167872144 8.4820553713741251 1 rotate no_reflect no_shear #
lump $-1 $-1 $16 $1 #
transform $-1 1 0 0 0 1 0 0 0 1 62.633747367778554 40.451113167872144 8.4820553713741251 1 rotate no_reflect no_shear #
lump $-1 $-1 $17 $2 #
transform $-1 1 0 0 0 1 0 0 0 1 62.633747367778554 40.451113167872144 8.4820553713741251 1 rotate no_reflect no_shear #
lump $-1 $-1 $18 $3 #
transform $-1 1 0 0 0 1 0 0 0 1 62.633747367778554 40.451113167872144 8.4820553713741251 1 rotate no_reflect no_shear #
lump $-1 $-1 $19 $4 #
transform $-1 1 0 0 0 1 0 0 0 1 62.633747367778554 40.451113167872144 8.4820553713741251 1 rotate no_reflect no_shear #
shell $-1 $-1 $-1 $20 $-1 $5 #
shell $-1 $-1 $-1 $21 $-1 $7 #
shell $-1 $-1 $-1 $22 $-1 $9 #
shell $-1 $-1 $-1 $23 $-1 $11 #
shell $-1 $-1 $-1 $24 $-1 $13 #
face $-1 $25 $26 $15 $-1 $27 forward single #
face $-1 $28 $29 $16 $-1 $30 reversed single #
face $-1 $31 $32 $17 $-1 $33 forward single #
face $-1 $34 $35 $18 $-1 $36 reversed single #
face $-1 $37 $38 $19 $-1 $39 reversed single #
face $-1 $40 $41 $15 $-1 $42 reversed single #
loop $-1 $-1 $43 $20 #
plane-surface $-1 0 0 8.4820553713741251 0 0 1 1 0 0 forward_v I I I I #
face $-1 $44 $45 $16 $-1 $46 forward single #
loop $-1 $-1 $47 $21 #
plane-surface $-1 0 -36.779688103750459 -5.4820553713741251 0 0 1 1 0 0 forward_v I I I I #
face $-1 $48 $49 $17 $-1 $50 forward single #
loop $-1 $-1 $51 $22 #
plane-surface $-1 59.541968489730152 18.490118220802863 177.58625454250824 0 -1 0 -0.69465837861970381 0 -0.71933979245794832 forward_v I I I I #
face $-1 $52 $53 $18 $-1 $54 reversed single #
loop $-1 $55 $56 $23 #
cone-surface $-1 56.298566936813849 7.5273597983957075 2.2119370481526608 -0.69465837861970381 0 -0.71933979245794832 1.4386795849158966 0 -1.3893167572394076 1 I I 0 1 2 forward I I I I #
face $-1 $57 $58 $19 $-1 $59 reversed single #
loop $-1 $60 $61 $24 #
cone-surface $-1 56.298566936813849 14.105014851840004 2.2119370481526608 -0.69465837861970381 0 -0.71933979245794832 1.4386795849158966 0 -1.3893167572394076 1 I I 0 1 2 forward I I I I #
face $-1 $62 $63 $15 $-1 $64 reversed single #
loop $-1 $-1 $65 $25 #
plane-surface $-1 0 0 -8.4820553713741251 0 0 1 1 0 0 forward_v I I I I #
coedge $-1 $66 $67 $68 $69 forward $26 $-1 #
face $-1 $70 $71 $16 $-1 $72 reversed single #
loop $-1 $-1 $73 $28 #
plane-surface $-1 0 -33.108263039628774 -6.9820553713741251 0 -1 0 0 0 -1 forward_v I I I I #
coedge $-1 $74 $75 $76 $77 reversed $29 $-1 #
face $-1 $78 $79 $17 $-1 $80 forward single #
loop $-1 $-1 $81 $31 #
plane-surface $-1 -27.476146297024215 10.816187325117852 87.476360877705474 0.69465837861970381 0 0.71933979245794832 0.71933979245794832 0 -0.69465837861970381 forward_v I I I I #
coedge $-1 $82 $83 $84 $85 reversed $32 $-1 #
face $-1 $86 $87 $18 $-1 $88 forward single #
loop $-1 $89 $90 $34 #
cone-surface $-1 53.423176903885974 7.5273597983957075 -0.76561642731523172 -0.69465837861970381 0 -0.71933979245794832 0.71933979245794832 0 -0.69465837861970381 1 I I -0.70710678118654768 0.70710678118654735 1 forward I I I I #
loop $-1 $-1 $91 $23 #
coedge $-1 $56 $56 $92 $93 reversed $35 $-1 #
face $-1 $94 $95 $19 $-1 $96 reversed single #
loop $-1 $97 $98 $37 #
cone-surface $-1 53.423176903885974 14.105014851840004 -0.76561642731523172 -0.69465837861970381 0 -0.71933979245794832 0.71933979245794832 0 -0.69465837861970381 1 I I -0.70710678118654768 0.70710678118654735 1 forward I I I I #
loop $-1 $-1 $99 $24 #
coedge $-1 $61 $61 $100 $101 reversed $38 $-1 #
face $-1 $102 $103 $15 $-1 $104 reversed single #
loop $-1 $-1 $105 $40 #
plane-surface $-1 0 -40.451113167872144 0 0 1 0 0 0 1 forward_v I I I I #
coedge $-1 $106 $107 $108 $109 forward $41 $-1 #
coedge $-1 $110 $43 $111 $112 forward $26 $-1 #
coedge $-1 $43 $110 $113 $114 forward $26 $-1 #
coedge $-1 $115 $116 $43 $69 reversed $117 $-1 #
edge $-1 $118 -40.451113167872144 $119 40.451113167872144 $68 $120 forward 7 unknown #
face $-1 $121 $122 $16 $-1 $123 reversed single #
loop $-1 $-1 $124 $44 #
plane-surface $-1 0 -40.451113167872144 0 0 1 0 0 0 1 forward_v I I I I #
coedge $-1 $125 $126 $127 $128 reversed $45 $-1 #
coedge $-1 $129 $47 $124 $130 reversed $29 $-1 #
coedge $-1 $47 $129 $125 $131 reversed $29 $-1 #
coedge $-1 $127 $132 $47 $77 forward $133 $-1 #
edge $-1 $134 -22.061269115996915 $135 -14.718418987753545 $76 $136 forward 7 unknown #
face $-1 $137 $138 $17 $-1 $139 forward single #
loop $-1 $-1 $140 $48 #
plane-surface $-1 59.541968489730152 3.142256429432841 177.58625454250824 0 1 0 0.69465837861970381 0 0.71933979245794832 forward_v I I I I #
coedge $-1 $141 $142 $143 $144 reversed $49 $-1 #
coedge $-1 $83 $51 $142 $145 forward $32 $-1 #
coedge $-1 $51 $82 $146 $147 reversed $32 $-1 #
coedge $-1 $148 $143 $51 $85 forward $138 $-1 #
edge $-1 $149 24.553865569600447 $150 32.862763122913478 $84 $151 forward 7 unknown #
face $-1 $152 $153 $18 $-1 $154 forward single #
loop $-1 $-1 $155 $52 #
plane-surface $-1 59.541968489730152 18.490118220802863 177.58625454250824 0 -1 0 -0.69465837861970381 0 -0.71933979245794832 forward_v I I I I #
loop $-1 $-1 $156 $34 #
coedge $-1 $90 $90 $91 $157 forward $53 $-1 #
coedge $-1 $91 $91 $90 $157 reversed $55 $-1 #
coedge $-1 $92 $92 $56 $93 forward $153 $-1 #
edge $-1 $158 0 $158 6.2831853071796004 $92 $159 forward 7 unknown #
face $-1 $160 $161 $19 $-1 $162 reversed single #
loop $-1 $163 $164 $57 #
cone-surface $-1 56.298566936813849 7.5273597983957075 2.2119370481526608 -0.69465837861970381 0 -0.71933979245794832 1.4386795849158966 0 -1.3893167572394076 1 I I 0 1 2 forward I I I I #
loop $-1 $-1 $165 $37 #
coedge $-1 $98 $98 $99 $166 forward $58 $-1 #
coedge $-1 $99 $99 $98 $166 reversed $60 $-1 #
coedge $-1 $100 $100 $61 $101 forward $167 $-1 #
edge $-1 $168 0 $168 6.2831853071796004 $100 $169 forward 7 unknown #
face $-1 $170 $171 $15 $-1 $172 reversed single #
loop $-1 $-1 $173 $62 #
plane-surface $-1 -62.633747367778554 0 0 1 0 0 0 0 -1 forward_v I I I I #
coedge $-1 $174 $113 $175 $176 forward $63 $-1 #
coedge $-1 $177 $65 $174 $178 forward $41 $-1 #
coedge $-1 $65 $177 $179 $180 forward $41 $-1 #
coedge $-1 $116 $115 $65 $109 reversed $117 $-1 #
edge $-1 $181 -40.451113167872144 $182 40.451113167872144 $108 $183 forward 7 unknown #
coedge $-1 $67 $66 $184 $185 forward $26 $-1 #
coedge $-1 $186 $187 $66 $112 reversed $171 $-1 #
edge $-1 $119 -62.633747367778554 $188 62.633747367778554 $111 $189 forward 7 unknown #
coedge $-1 $105 $190 $67 $114 reversed $63 $-1 #
edge $-1 $191 -62.633747367778554 $118 62.633747367778554 $113 $192 forward 7 unknown #
coedge $-1 $108 $68 $190 $193 forward $117 $-1 #
coedge $-1 $68 $108 $186 $194 reversed $117 $-1 #
loop $-1 $-1 $115 $170 #
vertex $-1 $69 $195 #
vertex $-1 $69 $196 #
straight-curve $-1 62.633747367778554 0 8.4820553713741251 0 1 0 I I #
face $-1 $197 $198 $16 $-1 $199 forward single #
loop $-1 $-1 $200 $70 #
plane-surface $-1 0 0 -8.4820553713741251 0 0 1 1 0 0 forward_v I I I I #
coedge $-1 $201 $202 $74 $130 forward $71 $-1 #
coedge $-1 $203 $73 $75 $131 forward $45 $-1 #
coedge $-1 $73 $203 $200 $204 reversed $45 $-1 #
coedge $-1 $205 $76 $73 $128 forward $133 $-1 #
edge $-1 $135 1.9910276856870626 $206 4.9910276856870626 $127 $207 forward 7 unknown #
coedge $-1 $75 $74 $208 $209 reversed $29 $-1 #
edge $-1 $210 -62.633747367778554 $134 62.633747367778554 $124 $211 forward 7 unknown #
edge $-1 $135 -62.633747367778554 $212 62.633747367778554 $125 $213 forward 7 unknown #
coedge $-1 $76 $214 $201 $215 forward $133 $-1 #
loop $-1 $-1 $127 $216 #
vertex $-1 $130 $217 #
vertex $-1 $77 $218 #
straight-curve $-1 62.633747367778554 -18.38984405187523 -5.4820553713741251 0 1 0 I I #
face $-1 $219 $220 $17 $-1 $221 reversed single #
loop $-1 $-1 $222 $78 #
plane-surface $-1 0 0 8.4820553713741251 0 0 1 1 0 0 forward_v I I I I #
coedge $-1 $223 $224 $222 $225 reversed $79 $-1 #
coedge $-1 $226 $81 $224 $227 reversed $49 $-1 #
coedge $-1 $81 $226 $82 $145 reversed $49 $-1 #
coedge $-1 $84 $222 $81 $144 forward $138 $-1 #
edge $-1 $228 -2.265837233126085 $149 13.082024558243937 $143 $229 forward 7 unknown #
edge $-1 $149 113.71676774891014 $230 125.26749473555708 $82 $231 forward 7 unknown #
coedge $-1 $232 $233 $83 $147 forward $234 $-1 #
edge $-1 $150 80.311071899879991 $230 88.334881180303015 $146 $235 forward 7 unknown #
coedge $-1 $236 $84 $233 $237 forward $138 $-1 #
vertex $-1 $144 $238 #
vertex $-1 $237 $239 #
straight-curve $-1 29.770984244865076 18.490118220802863 8.4820553713741305 1 0 0 I I #
face $-1 $240 $241 $18 $-1 $242 forward single #
loop $-1 $243 $92 $86 #
plane-surface $-1 -27.476146297024215 10.816187325117852 87.476360877705474 0.69465837861970381 0 0.71933979245794832 0.71933979245794832 0 -0.69465837861970381 forward_v I I I I #
coedge $-1 $244 $245 $246 $247 reversed $87 $-1 #
coedge $-1 $156 $156 $-1 $248 forward $89 $-1 #
edge $-1 $249 0 $249 6.2831853071796004 $90 $250 forward 7 unknown #
vertex $-1 $93 $251 #
ellipse-curve $-1 58.479298591122031 7.5273597983957075 4.4701507311626179 -0.69465837861970381 0 -0.71933979245794832 1.4386795849158966 0 -1.3893167572394076 1 I I #
face $-1 $252 $253 $19 $-1 $254 forward single #
loop $-1 $255 $256 $94 #
cone-surface $-1 53.423176903885974 7.5273597983957075 -0.76561642731523172 -0.69465837861970381 0 -0.71933979245794832 0.71933979245794832 0 -0.69465837861970381 1 I I -0.70710678118654768 0.70710678118654735 1 forward I I I I #
loop $-1 $-1 $257 $57 #
coedge $-1 $164 $164 $258 $259 reversed $95 $-1 #
coedge $-1 $165 $165 $-1 $260 forward $97 $-1 #
edge $-1 $261 0 $261 6.2831853071796004 $98 $262 forward 7 unknown #
loop $-1 $263 $100 $252 #
vertex $-1 $101 $264 #
ellipse-curve $-1 58.479298591122031 14.105014851840004 4.4701507311626179 -0.69465837861970381 0 -0.71933979245794832 1.4386795849158966 0 -1.3893167572394076 1 I I #
face $-1 $-1 $117 $15 $-1 $265 reversed single #
loop $-1 $-1 $186 $102 #
plane-surface $-1 0 40.451113167872144 0 0 -1 0 0 0 -1 forward_v I I I I #
coedge $-1 $266 $184 $187 $267 forward $103 $-1 #
coedge $-1 $190 $105 $106 $178 reversed $63 $-1 #
coedge $-1 $184 $266 $105 $176 reversed $103 $-1 #
edge $-1 $191 -8.4820553713741251 $268 8.4820553713741251 $175 $269 forward 7 unknown #
coedge $-1 $107 $106 $266 $270 forward $41 $-1 #
edge $-1 $182 -62.633747367778554 $268 62.633747367778554 $174 $271 forward 7 unknown #
coedge $-1 $187 $186 $107 $180 reversed $171 $-1 #
edge $-1 $272 -62.633747367778554 $181 62.633747367778554 $179 $273 forward 7 unknown #
vertex $-1 $109 $274 #
vertex $-1 $193 $275 #
straight-curve $-1 62.633747367778554 0 -8.4820553713741251 0 -1 0 I I #
coedge $-1 $173 $175 $110 $185 reversed $103 $-1 #
edge $-1 $188 -40.451113167872144 $191 40.451113167872144 $184 $276 forward 7 unknown #
coedge $-1 $179 $111 $116 $194 forward $171 $-1 #
coedge $-1 $111 $179 $173 $267 reversed $171 $-1 #
vertex $-1 $112 $277 #
straight-curve $-1 0 40.451113167872144 8.4820553713741251 -1 0 0 I I #
coedge $-1 $113 $174 $115 $193 reversed $63 $-1 #
vertex $-1 $185 $278 #
straight-curve $-1 0 -40.451113167872144 8.4820553713741251 1 0 0 I I #
edge $-1 $118 -8.4820553713741251 $182 8.4820553713741251 $115 $279 forward 7 unknown #
edge $-1 $119 -8.4820553713741251 $181 8.4820553713741251 $116 $280 forward 7 unknown #
point $-1 62.633747367778554 -40.451113167872144 8.4820553713741251 #
point $-1 62.633747367778554 40.451113167872144 8.4820553713741251 #
face $-1 $281 $282 $16 $-1 $283 reversed single #
loop $-1 $-1 $284 $121 #
plane-surface $-1 0 0 8.4820553713741251 0 0 1 1 0 0 forward_v I I I I #
coedge $-1 $285 $286 $126 $204 forward $122 $-1 #
coedge $-1 $287 $124 $132 $215 reversed $71 $-1 #
coedge $-1 $124 $287 $288 $289 forward $71 $-1 #
coedge $-1 $126 $125 $290 $291 reversed $45 $-1 #
edge $-1 $206 -62.633747367778554 $292 62.633747367778554 $200 $293 forward 7 unknown #
coedge $-1 $294 $127 $286 $295 reversed $133 $-1 #
vertex $-1 $204 $296 #
straight-curve $-1 62.633747367778554 -33.108263039628774 -3.4910276856870626 0 0 -1 I I #
coedge $-1 $288 $290 $129 $209 forward $282 $-1 #
edge $-1 $212 14.718418987753545 $210 22.061269115996915 $208 $297 forward 7 unknown #
vertex $-1 $130 $298 #
straight-curve $-1 0 -40.451113167872144 -5.4820553713741251 1 0 0 I I #
vertex $-1 $209 $299 #
straight-curve $-1 0 -33.108263039628774 -5.4820553713741251 -1 0 0 I I #
coedge $-1 $132 $294 $284 $300 reversed $133 $-1 #
edge $-1 $301 -8.4820553713741251 $134 5.4820553713741251 $132 $302 forward 7 unknown #
face $-1 $-1 $133 $16 $-1 $303 reversed single #
point $-1 62.633747367778554 -40.451113167872144 -5.4820553713741251 #
point $-1 62.633747367778554 -33.108263039628774 -5.4820553713741251 #
face $-1 $304 $305 $17 $-1 $306 forward single #
loop $-1 $-1 $307 $137 #
plane-surface $-1 0 -36.779688103750459 -5.4820553713741251 0 0 1 1 0 0 forward_v I I I I #
coedge $-1 $143 $308 $140 $225 forward $138 $-1 #
coedge $-1 $224 $140 $309 $310 reversed $79 $-1 #
coedge $-1 $140 $223 $141 $227 forward $79 $-1 #
edge $-1 $311 -32.862763122913478 $228 -24.553865569600447 $222 $312 forward 7 unknown #
coedge $-1 $142 $141 $232 $313 reversed $49 $-1 #
edge $-1 $314 -125.26749473555708 $228 -113.71676774891014 $224 $315 forward 7 unknown #
vertex $-1 $144 $316 #
straight-curve $-1 54.324849814465523 5.408093662558926 8.4820553713741234 0 1 0 I I #
vertex $-1 $313 $317 #
straight-curve $-1 -27.476146297024215 18.490118220802863 87.476360877705474 0.71933979245794832 0 -0.69465837861970381 I I #
coedge $-1 $309 $146 $226 $313 forward $234 $-1 #
coedge $-1 $146 $318 $148 $237 reversed $234 $-1 #
loop $-1 $-1 $309 $319 #
straight-curve $-1 62.633747367778554 18.490118220802863 88.793127271254122 0 0 -1 I I #
coedge $-1 $320 $148 $321 $322 forward $138 $-1 #
edge $-1 $150 18.490118220802863 $323 40.451113167872144 $233 $324 forward 7 unknown #
point $-1 54.324849814465523 18.490118220802863 8.4820553713741305 #
point $-1 62.633747367778554 18.490118220802863 8.4820553713741251 #
face $-1 $325 $326 $18 $-1 $327 forward single #
loop $-1 $-1 $328 $152 #
plane-surface $-1 59.541968489730152 3.142256429432841 177.58625454250824 0 1 0 0.69465837861970381 0 0.71933979245794832 forward_v I I I I #
loop $-1 $-1 $329 $86 #
coedge $-1 $245 $155 $330 $331 forward $87 $-1 #
coedge $-1 $155 $244 $332 $333 reversed $87 $-1 #
coedge $-1 $334 $335 $155 $247 forward $326 $-1 #
edge $-1 $336 24.553865569600447 $337 32.862763122913478 $246 $338 forward 7 unknown #
edge $-1 $339 1 $339 0 $156 $-1 forward 7 unknown #
vertex $-1 $157 $340 #
ellipse-curve $-1 54.117835282505681 7.5273597983957075 -0.046276634857283727 0.69465837861970381 0 0.71933979245794832 1.4386795849158966 0 -1.3893167572394076 1 I I #
point $-1 59.917978176037913 7.5273597983957075 3.0808339739231978 #
face $-1 $341 $167 $19 $-1 $342 forward single #
loop $-1 $-1 $343 $160 #
plane-surface $-1 59.541968489730152 18.490118220802863 177.58625454250824 0 -1 0 -0.69465837861970381 0 -0.71933979245794832 forward_v I I I I #
loop $-1 $-1 $344 $94 #
coedge $-1 $256 $256 $257 $345 forward $161 $-1 #
coedge $-1 $257 $257 $256 $345 reversed $163 $-1 #
coedge $-1 $258 $258 $164 $259 forward $263 $-1 #
edge $-1 $346 0 $346 6.2831853071796004 $258 $347 forward 7 unknown #
edge $-1 $348 1 $348 0 $165 $-1 forward 7 unknown #
vertex $-1 $166 $349 #
ellipse-curve $-1 54.117835282505681 14.105014851840004 -0.046276634857283727 0.69465837861970381 0 0.71933979245794832 1.4386795849158966 0 -1.3893167572394076 1 I I #
loop $-1 $350 $258 $252 #
point $-1 59.917978176037913 14.105014851840004 3.0808339739231978 #
plane-surface $-1 62.633747367778554 0 0 -1 0 0 0 0 1 forward_v I I I I #
coedge $-1 $175 $173 $177 $270 reversed $103 $-1 #
edge $-1 $188 -8.4820553713741251 $272 8.4820553713741251 $187 $351 forward 7 unknown #
vertex $-1 $270 $352 #
straight-curve $-1 -62.633747367778554 -40.451113167872144 0 0 0 -1 I I #
edge $-1 $268 -40.451113167872144 $272 40.451113167872144 $266 $353 forward 7 unknown #
straight-curve $-1 0 -40.451113167872144 -8.4820553713741251 -1 0 0 I I #
vertex $-1 $180 $354 #
straight-curve $-1 0 40.451113167872144 -8.4820553713741251 1 0 0 I I #
point $-1 62.633747367778554 40.451113167872144 -8.4820553713741251 #
point $-1 62.633747367778554 -40.451113167872144 -8.4820553713741251 #
straight-curve $-1 -62.633747367778554 0 8.4820553713741251 0 -1 0 I I #
point $-1 -62.633747367778554 40.451113167872144 8.4820553713741251 #
point $-1 -62.633747367778554 -40.451113167872144 8.4820553713741251 #
straight-curve $-1 62.633747367778554 -40.451113167872144 0 0 0 -1 I I #
straight-curve $-1 62.633747367778554 40.451113167872144 0 0 0 -1 I I #
face $-1 $216 $355 $16 $-1 $356 reversed single #
loop $-1 $-1 $208 $197 #
plane-surface $-1 -62.633747367778554 0 0 1 0 0 0 0 -1 forward_v I I I I #
coedge $-1 $357 $358 $214 $300 forward $198 $-1 #
coedge $-1 $359 $200 $360 $361 forward $122 $-1 #
coedge $-1 $200 $359 $205 $295 forward $122 $-1 #
coedge $-1 $202 $201 $358 $362 reversed $71 $-1 #
coedge $-1 $363 $208 $202 $289 reversed $282 $-1 #
edge $-1 $364 -8.4820553713741251 $210 5.4820553713741251 $288 $365 forward 7 unknown #
coedge $-1 $208 $360 $203 $291 forward $282 $-1 #
edge $-1 $292 -4.9910276856870626 $212 -1.9910276856870626 $290 $366 forward 7 unknown #
vertex $-1 $361 $367 #
straight-curve $-1 0 -33.108263039628774 -8.4820553713741251 -1 0 0 I I #
coedge $-1 $214 $205 $368 $369 reversed $133 $-1 #
edge $-1 $370 -40.451113167872144 $206 33.108263039628774 $205 $371 forward 7 unknown #
point $-1 62.633747367778554 -33.108263039628774 -8.4820553713741251 #
straight-curve $-1 -62.633747367778554 -18.38984405187523 -5.4820553713741251 0 -1 0 I I #
point $-1 -62.633747367778554 -40.451113167872144 -5.4820553713741251 #
point $-1 -62.633747367778554 -33.108263039628774 -5.4820553713741251 #
edge $-1 $301 -40.451113167872144 $372 40.451113167872144 $214 $373 forward 7 unknown #
vertex $-1 $300 $374 #
straight-curve $-1 62.633747367778554 -40.451113167872144 0 0 0 -1 I I #
plane-surface $-1 62.633747367778554 0 0 -1 0 0 0 0 1 forward_v I I I I #
face $-1 $375 $376 $17 $-1 $377 reversed single #
loop $-1 $-1 $378 $219 #
plane-surface $-1 0 -33.108263039628774 -6.9820553713741251 0 -1 0 0 0 -1 forward_v I I I I #
coedge $-1 $379 $380 $381 $382 reversed $220 $-1 #
coedge $-1 $222 $383 $384 $385 forward $138 $-1 #
coedge $-1 $384 $232 $223 $310 forward $234 $-1 #
edge $-1 $314 -88.334881180303015 $311 -80.311071899879991 $309 $386 forward 7 unknown #
vertex $-1 $310 $387 #
straight-curve $-1 29.770984244865076 3.142256429432841 8.4820553713741305 -1 0 0 I I #
edge $-1 $230 -13.082024558243937 $314 2.265837233126085 $232 $388 forward 7 unknown #
vertex $-1 $313 $389 #
straight-curve $-1 -27.476146297024215 3.142256429432841 87.476360877705474 -0.71933979245794832 0 0.69465837861970381 I I #
point $-1 54.324849814465523 3.142256429432841 8.4820553713741305 #
point $-1 62.633747367778554 18.490118220802863 0.45824609095110702 #
coedge $-1 $233 $390 $391 $392 reversed $234 $-1 #
face $-1 $-1 $234 $17 $-1 $393 reversed single #
coedge $-1 $383 $236 $394 $395 forward $138 $-1 #
coedge $-1 $391 $396 $236 $322 reversed $397 $-1 #
edge $-1 $323 -62.633747367778554 $398 62.633747367778554 $321 $399 forward 7 unknown #
vertex $-1 $237 $400 #
straight-curve $-1 62.633747367778554 0 8.4820553713741251 0 1 0 I I #
face $-1 $401 $402 $18 $-1 $403 reversed single #
loop $-1 $-1 $404 $240 #
plane-surface $-1 0 0 8.4820553713741251 0 0 1 1 0 0 forward_v I I I I #
coedge $-1 $405 $406 $404 $407 reversed $241 $-1 #
coedge $-1 $408 $330 $335 $409 reversed $243 $-1 #
coedge $-1 $329 $410 $244 $331 reversed $243 $-1 #
edge $-1 $336 113.71676774891014 $411 125.26749473555708 $244 $412 forward 7 unknown #
coedge $-1 $413 $414 $245 $333 forward $415 $-1 #
edge $-1 $337 80.311071899879991 $411 88.334881180303015 $332 $416 forward 7 unknown #
coedge $-1 $417 $246 $414 $418 forward $326 $-1 #
coedge $-1 $246 $404 $329 $409 forward $326 $-1 #
vertex $-1 $409 $419 #
vertex $-1 $418 $420 #
straight-curve $-1 29.770984244865076 18.490118220802863 8.4820553713741305 1 0 0 I I #
vertex $-1 $248 $421 #
point $-1 55.556514867421576 7.5273597983957075 -1.4355933920966915 #
face $-1 $422 $423 $19 $-1 $424 forward single #
plane-surface $-1 -27.476146297024215 10.816187325117852 87.476360877705474 0.69465837861970381 0 0.71933979245794832 0.71933979245794832 0 -0.69465837861970381 forward_v I I I I #
coedge $-1 $425 $426 $427 $428 reversed $253 $-1 #
coedge $-1 $344 $344 $-1 $429 forward $255 $-1 #
edge $-1 $430 0 $430 6.2831853071796004 $256 $431 forward 7 unknown #
vertex $-1 $259 $432 #
ellipse-curve $-1 58.479298591122031 7.5273597983957075 4.4701507311626179 -0.69465837861970381 0 -0.71933979245794832 1.4386795849158966 0 -1.3893167572394076 1 I I #
vertex $-1 $260 $433 #
point $-1 55.556514867421576 14.105014851840004 -1.4355933920966915 #
loop $-1 $-1 $434 $252 #
straight-curve $-1 -62.633747367778554 40.451113167872144 0 0 0 -1 I I #
point $-1 -62.633747367778554 -40.451113167872144 -8.4820553713741251 #
straight-curve $-1 -62.633747367778554 0 -8.4820553713741251 0 1 0 I I #
point $-1 -62.633747367778554 40.451113167872144 -8.4820553713741251 #
loop $-1 $-1 $368 $281 #
plane-surface $-1 0 40.451113167872144 0 0 -1 0 0 0 -1 forward_v I I I I #
coedge $-1 $435 $284 $436 $437 forward $198 $-1 #
coedge $-1 $284 $435 $287 $362 forward $198 $-1 #
coedge $-1 $286 $285 $438 $439 forward $122 $-1 #
coedge $-1 $290 $440 $285 $361 reversed $282 $-1 #
edge $-1 $292 -33.108263039628774 $441 40.451113167872144 $360 $442 forward 7 unknown #
edge $-1 $364 -62.633747367778554 $301 62.633747367778554 $287 $443 forward 7 unknown #
coedge $-1 $440 $288 $435 $444 reversed $282 $-1 #
vertex $-1 $444 $445 #
straight-curve $-1 -62.633747367778554 -40.451113167872144 0 0 0 -1 I I #
straight-curve $-1 -62.633747367778554 -33.108263039628774 -3.4910276856870626 0 0 1 I I #
point $-1 -62.633747367778554 -33.108263039628774 -8.4820553713741251 #
coedge $-1 $438 $436 $294 $369 forward $355 $-1 #
edge $-1 $372 -8.4820553713741251 $370 8.4820553713741251 $294 $446 forward 7 unknown #
vertex $-1 $295 $447 #
straight-curve $-1 62.633747367778554 0 -8.4820553713741251 0 -1 0 I I #
vertex $-1 $300 $448 #
straight-curve $-1 62.633747367778554 0 8.4820553713741251 0 1 0 I I #
point $-1 62.633747367778554 -40.451113167872144 8.4820553713741251 #
face $-1 $449 $450 $17 $-1 $451 reversed single #
loop $-1 $-1 $452 $304 #
plane-surface $-1 0 -40.451113167872144 0 0 1 0 0 0 1 forward_v I I I I #
coedge $-1 $453 $454 $455 $456 reversed $305 $-1 #
coedge $-1 $457 $307 $452 $458 reversed $220 $-1 #
coedge $-1 $307 $457 $453 $459 reversed $220 $-1 #
coedge $-1 $455 $460 $307 $382 forward $234 $-1 #
edge $-1 $461 -22.061269115996915 $462 -14.718418987753545 $381 $463 forward 7 unknown #
coedge $-1 $308 $320 $464 $465 forward $138 $-1 #
coedge $-1 $460 $309 $308 $385 reversed $234 $-1 #
edge $-1 $466 -40.451113167872144 $311 3.142256429432841 $384 $324 forward 7 unknown #
straight-curve $-1 62.633747367778554 3.142256429432841 88.793127271254122 0 0 1 I I #
point $-1 62.633747367778554 3.142256429432841 8.4820553713741251 #
straight-curve $-1 62.633747367778547 5.408093662558926 0.45824609095111413 0 -1 0 I I #
point $-1 62.633747367778554 3.142256429432841 0.45824609095110702 #
coedge $-1 $318 $455 $467 $468 reversed $234 $-1 #
coedge $-1 $469 $321 $318 $392 forward $397 $-1 #
edge $-1 $323 -8.4820553713741251 $470 8.4820553713741251 $318 $471 forward 7 unknown #
plane-surface $-1 62.633747367778554 0 0 -1 0 0 0 0 1 forward_v I I I I #
coedge $-1 $472 $473 $320 $395 reversed $474 $-1 #
edge $-1 $398 -40.451113167872144 $475 40.451113167872144 $394 $476 forward 7 unknown #
coedge $-1 $321 $469 $472 $477 reversed $397 $-1 #
loop $-1 $-1 $391 $478 #
vertex $-1 $322 $479 #
straight-curve $-1 0 40.451113167872144 8.4820553713741251 -1 0 0 I I #
point $-1 62.633747367778554 40.451113167872144 8.4820553713741251 #
face $-1 $480 $481 $18 $-1 $482 forward single #
loop $-1 $-1 $483 $325 #
plane-surface $-1 0 -36.779688103750459 -5.4820553713741251 0 0 1 1 0 0 forward_v I I I I #
coedge $-1 $335 $484 $328 $407 forward $326 $-1 #
coedge $-1 $406 $328 $485 $486 reversed $241 $-1 #
coedge $-1 $328 $405 $408 $487 forward $241 $-1 #
edge $-1 $488 -32.862763122913478 $489 -24.553865569600447 $404 $490 forward 7 unknown #
coedge $-1 $410 $329 $406 $487 reversed $243 $-1 #
edge $-1 $489 -2.265837233126085 $336 13.082024558243937 $335 $491 forward 7 unknown #
coedge $-1 $330 $408 $413 $492 reversed $243 $-1 #
vertex $-1 $492 $493 #
straight-curve $-1 -27.476146297024215 18.490118220802863 87.476360877705474 0.71933979245794832 0 -0.69465837861970381 I I #
coedge $-1 $485 $332 $410 $492 forward $415 $-1 #
coedge $-1 $332 $494 $334 $418 reversed $415 $-1 #
loop $-1 $-1 $485 $495 #
straight-curve $-1 62.633747367778554 18.490118220802863 88.793127271254122 0 0 -1 I I #
coedge $-1 $496 $334 $497 $498 forward $326 $-1 #
edge $-1 $337 18.490118220802863 $499 40.451113167872144 $414 $500 forward 7 unknown #
point $-1 54.324849814465523 18.490118220802863 8.4820553713741305 #
point $-1 62.633747367778554 18.490118220802863 8.4820553713741251 #
point $-1 52.728518525266267 7.5273597983957075 -1.4849562197731796 #
face $-1 $501 $502 $19 $-1 $503 forward single #
loop $-1 $-1 $504 $341 #
plane-surface $-1 59.541968489730152 3.142256429432841 177.58625454250824 0 1 0 0.69465837861970381 0 0.71933979245794832 forward_v I I I I #
coedge $-1 $426 $343 $505 $506 forward $253 $-1 #
coedge $-1 $343 $425 $507 $508 reversed $253 $-1 #
coedge $-1 $509 $510 $343 $428 forward $502 $-1 #
edge $-1 $511 24.553865569600447 $512 32.862763122913478 $427 $513 forward 7 unknown #
edge $-1 $514 1 $514 0 $344 $-1 forward 7 unknown #
vertex $-1 $345 $515 #
ellipse-curve $-1 54.117835282505681 7.5273597983957075 -0.046276634857283727 0.69465837861970381 0 0.71933979245794832 1.4386795849158966 0 -1.3893167572394076 1 I I #
point $-1 59.917978176037913 7.5273597983957075 3.0808339739231978 #
point $-1 52.728518525266267 14.105014851840004 -1.4849562197731796 #
coedge $-1 $516 $505 $510 $517 reversed $350 $-1 #
coedge $-1 $358 $357 $363 $444 forward $198 $-1 #
coedge $-1 $368 $518 $357 $437 reversed $355 $-1 #
edge $-1 $372 -62.633747367778554 $519 62.633747367778554 $436 $520 forward 7 unknown #
coedge $-1 $518 $368 $359 $439 reversed $355 $-1 #
edge $-1 $441 -62.633747367778554 $370 62.633747367778554 $438 $521 forward 7 unknown #
coedge $-1 $360 $363 $518 $522 forward $282 $-1 #
vertex $-1 $439 $523 #
straight-curve $-1 -62.633747367778554 0 -8.4820553713741251 0 1 0 I I #
straight-curve $-1 0 -40.451113167872144 8.4820553713741251 1 0 0 I I #
edge $-1 $519 -40.451113167872144 $364 40.451113167872144 $363 $524 forward 7 unknown #
point $-1 -62.633747367778554 -40.451113167872144 8.4820553713741251 #
straight-curve $-1 62.633747367778554 40.451113167872144 0 0 0 -1 I I #
point $-1 62.633747367778554 40.451113167872144 -8.4820553713741251 #
point $-1 62.633747367778554 40.451113167872144 8.4820553713741251 #
face $-1 $478 $474 $17 $-1 $525 reversed single #
loop $-1 $-1 $526 $375 #
plane-surface $-1 0 0 -8.4820553713741251 0 0 1 1 0 0 forward_v I I I I #
coedge $-1 $527 $528 $379 $458 forward $376 $-1 #
coedge $-1 $529 $378 $380 $459 forward $305 $-1 #
coedge $-1 $378 $529 $526 $530 reversed $305 $-1 #
coedge $-1 $390 $381 $378 $456 forward $234 $-1 #
edge $-1 $462 1.9910276856870626 $531 4.9910276856870626 $455 $532 forward 7 unknown #
coedge $-1 $380 $379 $533 $534 reversed $220 $-1 #
edge $-1 $535 -62.633747367778554 $461 62.633747367778554 $452 $536 forward 7 unknown #
edge $-1 $462 -62.633747367778554 $537 62.633747367778554 $453 $538 forward 7 unknown #
coedge $-1 $381 $384 $527 $539 forward $234 $-1 #
vertex $-1 $458 $540 #
vertex $-1 $382 $541 #
straight-curve $-1 62.633747367778554 -18.38984405187523 -5.4820553713741251 0 1 0 I I #
coedge $-1 $528 $527 $383 $465 reversed $376 $-1 #
edge $-1 $475 -62.633747367778554 $466 62.633747367778554 $464 $542 forward 7 unknown #
vertex $-1 $385 $543 #
coedge $-1 $526 $544 $390 $468 forward $450 $-1 #
edge $-1 $470 -40.451113167872144 $531 33.108263039628774 $390 $545 forward 7 unknown #
coedge $-1 $396 $391 $544 $546 reversed $397 $-1 #
vertex $-1 $468 $547 #
straight-curve $-1 62.633747367778554 40.451113167872144 0 0 0 -1 I I #
coedge $-1 $548 $394 $396 $477 forward $474 $-1 #
coedge $-1 $394 $533 $528 $549 reversed $474 $-1 #
loop $-1 $-1 $533 $449 #
vertex $-1 $395 $550 #
straight-curve $-1 -62.633747367778554 0 8.4820553713741251 0 -1 0 I I #
edge $-1 $398 -8.4820553713741251 $551 8.4820553713741251 $396 $552 forward 7 unknown #
face $-1 $319 $397 $17 $-1 $553 reversed single #
point $-1 -62.633747367778554 40.451113167872144 8.4820553713741251 #
face $-1 $554 $555 $18 $-1 $556 reversed single #
loop $-1 $-1 $557 $401 #
plane-surface $-1 0 -33.108263039628774 -6.9820553713741251 0 -1 0 0 0 -1 forward_v I I I I #
coedge $-1 $558 $559 $560 $561 reversed $402 $-1 #
coedge $-1 $404 $562 $563 $564 forward $326 $-1 #
coedge $-1 $563 $413 $405 $486 forward $415 $-1 #
edge $-1 $565 -88.334881180303015 $488 -80.311071899879991 $485 $566 forward 7 unknown #
edge $-1 $565 -125.26749473555708 $489 -113.71676774891014 $406 $567 forward 7 unknown #
vertex $-1 $486 $568 #
vertex $-1 $409 $569 #
straight-curve $-1 29.770984244865076 3.142256429432841 8.4820553713741305 -1 0 0 I I #
straight-curve $-1 54.324849814465523 5.408093662558926 8.4820553713741234 0 1 0 I I #
edge $-1 $411 -13.082024558243937 $565 2.265837233126085 $413 $570 forward 7 unknown #
point $-1 62.633747367778554 18.490118220802863 0.45824609095110702 #
coedge $-1 $414 $571 $572 $573 reversed $415 $-1 #
face $-1 $-1 $415 $18 $-1 $574 reversed single #
coedge $-1 $562 $417 $575 $576 forward $326 $-1 #
coedge $-1 $572 $577 $417 $498 reversed $578 $-1 #
edge $-1 $499 -62.633747367778554 $579 62.633747367778554 $497 $580 forward 7 unknown #
vertex $-1 $418 $581 #
straight-curve $-1 62.633747367778554 0 8.4820553713741251 0 1 0 I I #
face $-1 $582 $583 $19 $-1 $584 reversed single #
loop $-1 $-1 $585 $422 #
plane-surface $-1 0 0 8.4820553713741251 0 0 1 1 0 0 forward_v I I I I #
coedge $-1 $586 $587 $585 $588 reversed $423 $-1 #
coedge $-1 $434 $589 $425 $506 reversed $350 $-1 #
edge $-1 $511 113.71676774891014 $590 125.26749473555708 $425 $591 forward 7 unknown #
coedge $-1 $592 $593 $426 $508 forward $594 $-1 #
edge $-1 $512 80.311071899879991 $590 88.334881180303015 $507 $595 forward 7 unknown #
coedge $-1 $596 $427 $593 $597 forward $502 $-1 #
coedge $-1 $427 $585 $434 $517 forward $502 $-1 #
vertex $-1 $517 $598 #
vertex $-1 $597 $599 #
straight-curve $-1 29.770984244865076 18.490118220802863 8.4820553713741305 1 0 0 I I #
vertex $-1 $429 $600 #
point $-1 55.556514867421576 7.5273597983957075 -1.4355933920966915 #
coedge $-1 $589 $434 $587 $601 reversed $350 $-1 #
edge $-1 $602 -2.265837233126085 $511 13.082024558243937 $510 $603 forward 7 unknown #
coedge $-1 $436 $438 $440 $522 reversed $355 $-1 #
vertex $-1 $437 $604 #
straight-curve $-1 0 40.451113167872144 8.4820553713741251 -1 0 0 I I #
straight-curve $-1 0 40.451113167872144 -8.4820553713741251 1 0 0 I I #
edge $-1 $519 -8.4820553713741251 $441 8.4820553713741251 $518 $605 forward 7 unknown #
point $-1 -62.633747367778554 40.451113167872144 -8.4820553713741251 #
straight-curve $-1 -62.633747367778554 0 8.4820553713741251 0 -1 0 I I #
plane-surface $-1 -62.633747367778554 0 0 1 0 0 0 0 -1 forward_v I I I I #
coedge $-1 $606 $467 $454 $530 forward $450 $-1 #
coedge $-1 $464 $452 $460 $539 reversed $376 $-1 #
coedge $-1 $452 $464 $473 $549 forward $376 $-1 #
coedge $-1 $454 $453 $607 $608 reversed $305 $-1 #
edge $-1 $531 -62.633747367778554 $609 62.633747367778554 $526 $610 forward 7 unknown #
vertex $-1 $530 $611 #
straight-curve $-1 62.633747367778554 -33.108263039628774 -3.4910276856870626 0 0 -1 I I #
coedge $-1 $473 $607 $457 $534 forward $474 $-1 #
edge $-1 $537 14.718418987753545 $535 22.061269115996915 $533 $612 forward 7 unknown #
vertex $-1 $458 $613 #
straight-curve $-1 0 -40.451113167872144 -5.4820553713741251 1 0 0 I I #
vertex $-1 $534 $614 #
straight-curve $-1 0 -33.108263039628774 -5.4820553713741251 -1 0 0 I I #
edge $-1 $466 -8.4820553713741251 $461 5.4820553713741251 $460 $615 forward 7 unknown #
point $-1 62.633747367778554 -40.451113167872144 -5.4820553713741251 #
point $-1 62.633747367778554 -33.108263039628774 -5.4820553713741251 #
straight-curve $-1 0 -40.451113167872144 8.4820553713741251 1 0 0 I I #
point $-1 62.633747367778554 -40.451113167872144 8.4820553713741251 #
coedge $-1 $467 $606 $469 $546 forward $450 $-1 #
straight-curve $-1 62.633747367778554 0 -8.4820553713741251 0 -1 0 I I #
edge $-1 $551 -62.633747367778554 $470 62.633747367778554 $469 $616 forward 7 unknown #
point $-1 62.633747367778554 40.451113167872144 -8.4820553713741251 #
coedge $-1 $607 $472 $606 $617 reversed $474 $-1 #
edge $-1 $475 -8.4820553713741251 $535 5.4820553713741251 $473 $618 forward 7 unknown #
point $-1 -62.633747367778554 -40.451113167872144 8.4820553713741251 #
vertex $-1 $546 $619 #
straight-curve $-1 -62.633747367778554 40.451113167872144 0 0 0 -1 I I #
plane-surface $-1 0 40.451113167872144 0 0 -1 0 0 0 -1 forward_v I I I I #
face $-1 $620 $621 $18 $-1 $622 reversed single #
loop $-1 $-1 $623 $480 #
plane-surface $-1 0 -40.451113167872144 0 0 1 0 0 0 1 forward_v I I I I #
coedge $-1 $624 $625 $626 $627 reversed $481 $-1 #
coedge $-1 $628 $483 $623 $629 reversed $402 $-1 #
coedge $-1 $483 $628 $624 $630 reversed $402 $-1 #
coedge $-1 $626 $631 $483 $561 forward $415 $-1 #
edge $-1 $632 -22.061269115996915 $633 -14.718418987753545 $560 $634 forward 7 unknown #
coedge $-1 $484 $496 $635 $636 forward $326 $-1 #
coedge $-1 $631 $485 $484 $564 reversed $415 $-1 #
edge $-1 $637 -40.451113167872144 $488 3.142256429432841 $563 $500 forward 7 unknown #
vertex $-1 $492 $638 #
straight-curve $-1 62.633747367778554 3.142256429432841 88.793127271254122 0 0 1 I I #
straight-curve $-1 -27.476146297024215 3.142256429432841 87.476360877705474 -0.71933979245794832 0 0.69465837861970381 I I #
point $-1 62.633747367778554 3.142256429432841 8.4820553713741251 #
point $-1 54.324849814465523 3.142256429432841 8.4820553713741305 #
straight-curve $-1 62.633747367778547 5.408093662558926 0.45824609095111413 0 -1 0 I I #
coedge $-1 $494 $626 $639 $640 reversed $415 $-1 #
coedge $-1 $641 $497 $494 $573 forward $578 $-1 #
edge $-1 $499 -8.4820553713741251 $642 8.4820553713741251 $494 $643 forward 7 unknown #
plane-surface $-1 62.633747367778554 0 0 -1 0 0 0 0 1 forward_v I I I I #
coedge $-1 $644 $645 $496 $576 reversed $646 $-1 #
edge $-1 $579 -40.451113167872144 $647 40.451113167872144 $575 $648 forward 7 unknown #
coedge $-1 $497 $641 $644 $649 reversed $578 $-1 #
loop $-1 $-1 $572 $650 #
vertex $-1 $498 $651 #
straight-curve $-1 0 40.451113167872144 8.4820553713741251 -1 0 0 I I #
point $-1 62.633747367778554 40.451113167872144 8.4820553713741251 #
face $-1 $652 $653 $19 $-1 $654 forward single #
loop $-1 $-1 $655 $501 #
plane-surface $-1 0 -36.779688103750459 -5.4820553713741251 0 0 1 1 0 0 forward_v I I I I #
coedge $-1 $510 $656 $504 $588 forward $502 $-1 #
coedge $-1 $587 $504 $657 $658 reversed $423 $-1 #
coedge $-1 $504 $586 $516 $601 forward $423 $-1 #
edge $-1 $659 -32.862763122913478 $602 -24.553865569600447 $585 $660 forward 7 unknown #
coedge $-1 $505 $516 $592 $661 reversed $350 $-1 #
vertex $-1 $661 $662 #
straight-curve $-1 -27.476146297024215 18.490118220802863 87.476360877705474 0.71933979245794832 0 -0.69465837861970381 I I #
coedge $-1 $657 $507 $589 $661 forward $594 $-1 #
coedge $-1 $507 $663 $509 $597 reversed $594 $-1 #
loop $-1 $-1 $657 $664 #
straight-curve $-1 62.633747367778554 18.490118220802863 88.793127271254122 0 0 -1 I I #
coedge $-1 $665 $509 $666 $667 forward $502 $-1 #
edge $-1 $512 18.490118220802863 $668 40.451113167872144 $593 $669 forward 7 unknown #
point $-1 54.324849814465523 18.490118220802863 8.4820553713741305 #
point $-1 62.633747367778554 18.490118220802863 8.4820553713741251 #
point $-1 52.728518525266267 7.5273597983957075 -1.4849562197731796 #
edge $-1 $670 -125.26749473555708 $602 -113.71676774891014 $587 $671 forward 7 unknown #
vertex $-1 $517 $672 #
straight-curve $-1 54.324849814465523 5.408093662558926 8.4820553713741234 0 1 0 I I #
point $-1 -62.633747367778554 40.451113167872144 8.4820553713741251 #
straight-curve $-1 -62.633747367778554 40.451113167872144 0 0 0 -1 I I #
coedge $-1 $544 $526 $548 $617 forward $450 $-1 #
coedge $-1 $533 $548 $529 $608 forward $474 $-1 #
edge $-1 $609 -4.9910276856870626 $537 -1.9910276856870626 $607 $673 forward 7 unknown #
vertex $-1 $617 $674 #
straight-curve $-1 0 -33.108263039628774 -8.4820553713741251 -1 0 0 I I #
point $-1 62.633747367778554 -33.108263039628774 -8.4820553713741251 #
straight-curve $-1 -62.633747367778554 -18.38984405187523 -5.4820553713741251 0 -1 0 I I #
point $-1 -62.633747367778554 -40.451113167872144 -5.4820553713741251 #
point $-1 -62.633747367778554 -33.108263039628774 -5.4820553713741251 #
straight-curve $-1 62.633747367778554 -40.451113167872144 0 0 0 -1 I I #
straight-curve $-1 0 40.451113167872144 -8.4820553713741251 1 0 0 I I #
edge $-1 $609 -33.108263039628774 $551 40.451113167872144 $548 $675 forward 7 unknown #
straight-curve $-1 -62.633747367778554 -40.451113167872144 0 0 0 -1 I I #
point $-1 -62.633747367778554 40.451113167872144 -8.4820553713741251 #
face $-1 $650 $646 $18 $-1 $676 reversed single #
loop $-1 $-1 $677 $554 #
plane-surface $-1 0 0 -8.4820553713741251 0 0 1 1 0 0 forward_v I I I I #
coedge $-1 $678 $679 $558 $629 forward $555 $-1 #
coedge $-1 $680 $557 $559 $630 forward $481 $-1 #
coedge $-1 $557 $680 $677 $681 reversed $481 $-1 #
coedge $-1 $571 $560 $557 $627 forward $415 $-1 #
edge $-1 $633 1.9910276856870626 $682 4.9910276856870626 $626 $683 forward 7 unknown #
coedge $-1 $559 $558 $684 $685 reversed $402 $-1 #
edge $-1 $686 -62.633747367778554 $632 62.633747367778554 $623 $687 forward 7 unknown #
edge $-1 $633 -62.633747367778554 $688 62.633747367778554 $624 $689 forward 7 unknown #
coedge $-1 $560 $563 $678 $690 forward $415 $-1 #
vertex $-1 $629 $691 #
vertex $-1 $561 $692 #
straight-curve $-1 62.633747367778554 -18.38984405187523 -5.4820553713741251 0 1 0 I I #
coedge $-1 $679 $678 $562 $636 reversed $555 $-1 #
edge $-1 $647 -62.633747367778554 $637 62.633747367778554 $635 $693 forward 7 unknown #
vertex $-1 $564 $694 #
point $-1 62.633747367778554 3.142256429432841 0.45824609095110702 #
coedge $-1 $677 $695 $571 $640 forward $621 $-1 #
edge $-1 $642 -40.451113167872144 $682 33.108263039628774 $571 $696 forward 7 unknown #
coedge $-1 $577 $572 $695 $697 reversed $578 $-1 #
vertex $-1 $640 $698 #
straight-curve $-1 62.633747367778554 40.451113167872144 0 0 0 -1 I I #
coedge $-1 $699 $575 $577 $649 forward $646 $-1 #
coedge $-1 $575 $684 $679 $700 reversed $646 $-1 #
loop $-1 $-1 $684 $620 #
vertex $-1 $576 $701 #
straight-curve $-1 -62.633747367778554 0 8.4820553713741251 0 -1 0 I I #
edge $-1 $579 -8.4820553713741251 $702 8.4820553713741251 $577 $703 forward 7 unknown #
face $-1 $495 $578 $18 $-1 $704 reversed single #
point $-1 -62.633747367778554 40.451113167872144 8.4820553713741251 #
face $-1 $705 $706 $19 $-1 $707 reversed single #
loop $-1 $-1 $708 $582 #
plane-surface $-1 0 -33.108263039628774 -6.9820553713741251 0 -1 0 0 0 -1 forward_v I I I I #
coedge $-1 $709 $710 $711 $712 reversed $583 $-1 #
coedge $-1 $585 $713 $714 $715 forward $502 $-1 #
coedge $-1 $714 $592 $586 $658 forward $594 $-1 #
edge $-1 $670 -88.334881180303015 $659 -80.311071899879991 $657 $716 forward 7 unknown #
vertex $-1 $658 $717 #
straight-curve $-1 29.770984244865076 3.142256429432841 8.4820553713741305 -1 0 0 I I #
edge $-1 $590 -13.082024558243937 $670 2.265837233126085 $592 $718 forward 7 unknown #
point $-1 62.633747367778554 18.490118220802863 0.45824609095110702 #
coedge $-1 $593 $719 $720 $721 reversed $594 $-1 #
face $-1 $-1 $594 $19 $-1 $722 reversed single #
coedge $-1 $713 $596 $723 $724 forward $502 $-1 #
coedge $-1 $720 $725 $596 $667 reversed $726 $-1 #
edge $-1 $668 -62.633747367778554 $727 62.633747367778554 $666 $728 forward 7 unknown #
vertex $-1 $597 $729 #
straight-curve $-1 62.633747367778554 0 8.4820553713741251 0 1 0 I I #
vertex $-1 $661 $730 #
straight-curve $-1 -27.476146297024215 3.142256429432841 87.476360877705474 -0.71933979245794832 0 0.69465837861970381 I I #
point $-1 54.324849814465523 3.142256429432841 8.4820553713741305 #
straight-curve $-1 -62.633747367778554 -33.108263039628774 -3.4910276856870626 0 0 1 I I #
point $-1 -62.633747367778554 -33.108263039628774 -8.4820553713741251 #
straight-curve $-1 -62.633747367778554 0 -8.4820553713741251 0 1 0 I I #
plane-surface $-1 -62.633747367778554 0 0 1 0 0 0 0 -1 forward_v I I I I #
coedge $-1 $731 $639 $625 $681 forward $621 $-1 #
coedge $-1 $635 $623 $631 $690 reversed $555 $-1 #
coedge $-1 $623 $635 $645 $700 forward $555 $-1 #
coedge $-1 $625 $624 $732 $733 reversed $481 $-1 #
edge $-1 $682 -62.633747367778554 $734 62.633747367778554 $677 $735 forward 7 unknown #
vertex $-1 $681 $736 #
straight-curve $-1 62.633747367778554 -33.108263039628774 -3.4910276856870626 0 0 -1 I I #
coedge $-1 $645 $732 $628 $685 forward $646 $-1 #
edge $-1 $688 14.718418987753545 $686 22.061269115996915 $684 $737 forward 7 unknown #
vertex $-1 $629 $738 #
straight-curve $-1 0 -40.451113167872144 -5.4820553713741251 1 0 0 I I #
vertex $-1 $685 $739 #
straight-curve $-1 0 -33.108263039628774 -5.4820553713741251 -1 0 0 I I #
edge $-1 $637 -8.4820553713741251 $632 5.4820553713741251 $631 $740 forward 7 unknown #
point $-1 62.633747367778554 -40.451113167872144 -5.4820553713741251 #
point $-1 62.633747367778554 -33.108263039628774 -5.4820553713741251 #
straight-curve $-1 0 -40.451113167872144 8.4820553713741251 1 0 0 I I #
point $-1 62.633747367778554 -40.451113167872144 8.4820553713741251 #
coedge $-1 $639 $731 $641 $697 forward $621 $-1 #
straight-curve $-1 62.633747367778554 0 -8.4820553713741251 0 -1 0 I I #
edge $-1 $702 -62.633747367778554 $642 62.633747367778554 $641 $741 forward 7 unknown #
point $-1 62.633747367778554 40.451113167872144 -8.4820553713741251 #
coedge $-1 $732 $644 $731 $742 reversed $646 $-1 #
edge $-1 $647 -8.4820553713741251 $686 5.4820553713741251 $645 $743 forward 7 unknown #
point $-1 -62.633747367778554 -40.451113167872144 8.4820553713741251 #
vertex $-1 $697 $744 #
straight-curve $-1 -62.633747367778554 40.451113167872144 0 0 0 -1 I I #
plane-surface $-1 0 40.451113167872144 0 0 -1 0 0 0 -1 forward_v I I I I #
face $-1 $745 $746 $19 $-1 $747 reversed single #
loop $-1 $-1 $748 $652 #
plane-surface $-1 0 -40.451113167872144 0 0 1 0 0 0 1 forward_v I I I I #
coedge $-1 $749 $750 $751 $752 reversed $653 $-1 #
coedge $-1 $753 $655 $748 $754 reversed $583 $-1 #
coedge $-1 $655 $753 $749 $755 reversed $583 $-1 #
coedge $-1 $751 $756 $655 $712 forward $594 $-1 #
edge $-1 $757 -22.061269115996915 $758 -14.718418987753545 $711 $759 forward 7 unknown #
coedge $-1 $656 $665 $760 $761 forward $502 $-1 #
coedge $-1 $756 $657 $656 $715 reversed $594 $-1 #
edge $-1 $762 -40.451113167872144 $659 3.142256429432841 $714 $669 forward 7 unknown #
straight-curve $-1 62.633747367778554 3.142256429432841 88.793127271254122 0 0 1 I I #
point $-1 62.633747367778554 3.142256429432841 8.4820553713741251 #
straight-curve $-1 62.633747367778547 5.408093662558926 0.45824609095111413 0 -1 0 I I #
coedge $-1 $663 $751 $763 $764 reversed $594 $-1 #
coedge $-1 $765 $666 $663 $721 forward $726 $-1 #
edge $-1 $668 -8.4820553713741251 $766 8.4820553713741251 $663 $767 forward 7 unknown #
plane-surface $-1 62.633747367778554 0 0 -1 0 0 0 0 1 forward_v I I I I #
coedge $-1 $768 $769 $665 $724 reversed $770 $-1 #
edge $-1 $727 -40.451113167872144 $771 40.451113167872144 $723 $772 forward 7 unknown #
coedge $-1 $666 $765 $768 $773 reversed $726 $-1 #
loop $-1 $-1 $720 $774 #
vertex $-1 $667 $775 #
straight-curve $-1 0 40.451113167872144 8.4820553713741251 -1 0 0 I I #
point $-1 62.633747367778554 40.451113167872144 8.4820553713741251 #
point $-1 62.633747367778554 3.142256429432841 0.45824609095110702 #
coedge $-1 $695 $677 $699 $742 forward $621 $-1 #
coedge $-1 $684 $699 $680 $733 forward $646 $-1 #
edge $-1 $734 -4.9910276856870626 $688 -1.9910276856870626 $732 $776 forward 7 unknown #
vertex $-1 $742 $777 #
straight-curve $-1 0 -33.108263039628774 -8.4820553713741251 -1 0 0 I I #
point $-1 62.633747367778554 -33.108263039628774 -8.4820553713741251 #
straight-curve $-1 -62.633747367778554 -18.38984405187523 -5.4820553713741251 0 -1 0 I I #
point $-1 -62.633747367778554 -40.451113167872144 -5.4820553713741251 #
point $-1 -62.633747367778554 -33.108263039628774 -5.4820553713741251 #
straight-curve $-1 62.633747367778554 -40.451113167872144 0 0 0 -1 I I #
straight-curve $-1 0 40.451113167872144 -8.4820553713741251 1 0 0 I I #
edge $-1 $734 -33.108263039628774 $702 40.451113167872144 $699 $778 forward 7 unknown #
straight-curve $-1 -62.633747367778554 -40.451113167872144 0 0 0 -1 I I #
point $-1 -62.633747367778554 40.451113167872144 -8.4820553713741251 #
face $-1 $774 $770 $19 $-1 $779 reversed single #
loop $-1 $-1 $780 $705 #
plane-surface $-1 0 0 -8.4820553713741251 0 0 1 1 0 0 forward_v I I I I #
coedge $-1 $781 $782 $709 $754 forward $706 $-1 #
coedge $-1 $783 $708 $710 $755 forward $653 $-1 #
coedge $-1 $708 $783 $780 $784 reversed $653 $-1 #
coedge $-1 $719 $711 $708 $752 forward $594 $-1 #
edge $-1 $758 1.9910276856870626 $785 4.9910276856870626 $751 $786 forward 7 unknown #
coedge $-1 $710 $709 $787 $788 reversed $583 $-1 #
edge $-1 $789 -62.633747367778554 $757 62.633747367778554 $748 $790 forward 7 unknown #
edge $-1 $758 -62.633747367778554 $791 62.633747367778554 $749 $792 forward 7 unknown #
coedge $-1 $711 $714 $781 $793 forward $594 $-1 #
vertex $-1 $754 $794 #
vertex $-1 $712 $795 #
straight-curve $-1 62.633747367778554 -18.38984405187523 -5.4820553713741251 0 1 0 I I #
coedge $-1 $782 $781 $713 $761 reversed $706 $-1 #
edge $-1 $771 -62.633747367778554 $762 62.633747367778554 $760 $796 forward 7 unknown #
vertex $-1 $715 $797 #
coedge $-1 $780 $798 $719 $764 forward $746 $-1 #
edge $-1 $766 -40.451113167872144 $785 33.108263039628774 $719 $799 forward 7 unknown #
coedge $-1 $725 $720 $798 $800 reversed $726 $-1 #
vertex $-1 $764 $801 #
straight-curve $-1 62.633747367778554 40.451113167872144 0 0 0 -1 I I #
coedge $-1 $802 $723 $725 $773 forward $770 $-1 #
coedge $-1 $723 $787 $782 $803 reversed $770 $-1 #
loop $-1 $-1 $787 $745 #
vertex $-1 $724 $804 #
straight-curve $-1 -62.633747367778554 0 8.4820553713741251 0 -1 0 I I #
edge $-1 $727 -8.4820553713741251 $805 8.4820553713741251 $725 $806 forward 7 unknown #
face $-1 $664 $726 $19 $-1 $807 reversed single #
point $-1 -62.633747367778554 40.451113167872144 8.4820553713741251 #
straight-curve $-1 -62.633747367778554 -33.108263039628774 -3.4910276856870626 0 0 1 I I #
point $-1 -62.633747367778554 -33.108263039628774 -8.4820553713741251 #
straight-curve $-1 -62.633747367778554 0 -8.4820553713741251 0 1 0 I I #
plane-surface $-1 -62.633747367778554 0 0 1 0 0 0 0 -1 forward_v I I I I #
coedge $-1 $808 $763 $750 $784 forward $746 $-1 #
coedge $-1 $760 $748 $756 $793 reversed $706 $-1 #
coedge $-1 $748 $760 $769 $803 forward $706 $-1 #
coedge $-1 $750 $749 $809 $810 reversed $653 $-1 #
edge $-1 $785 -62.633747367778554 $811 62.633747367778554 $780 $812 forward 7 unknown #
vertex $-1 $784 $813 #
straight-curve $-1 62.633747367778554 -33.108263039628774 -3.4910276856870626 0 0 -1 I I #
coedge $-1 $769 $809 $753 $788 forward $770 $-1 #
edge $-1 $791 14.718418987753545 $789 22.061269115996915 $787 $814 forward 7 unknown #
vertex $-1 $754 $815 #
straight-curve $-1 0 -40.451113167872144 -5.4820553713741251 1 0 0 I I #
vertex $-1 $788 $816 #
straight-curve $-1 0 -33.108263039628774 -5.4820553713741251 -1 0 0 I I #
edge $-1 $762 -8.4820553713741251 $757 5.4820553713741251 $756 $817 forward 7 unknown #
point $-1 62.633747367778554 -40.451113167872144 -5.4820553713741251 #
point $-1 62.633747367778554 -33.108263039628774 -5.4820553713741251 #
straight-curve $-1 0 -40.451113167872144 8.4820553713741251 1 0 0 I I #
point $-1 62.633747367778554 -40.451113167872144 8.4820553713741251 #
coedge $-1 $763 $808 $765 $800 forward $746 $-1 #
straight-curve $-1 62.633747367778554 0 -8.4820553713741251 0 -1 0 I I #
edge $-1 $805 -62.633747367778554 $766 62.633747367778554 $765 $818 forward 7 unknown #
point $-1 62.633747367778554 40.451113167872144 -8.4820553713741251 #
coedge $-1 $809 $768 $808 $819 reversed $770 $-1 #
edge $-1 $771 -8.4820553713741251 $789 5.4820553713741251 $769 $820 forward 7 unknown #
point $-1 -62.633747367778554 -40.451113167872144 8.4820553713741251 #
vertex $-1 $800 $821 #
straight-curve $-1 -62.633747367778554 40.451113167872144 0 0 0 -1 I I #
plane-surface $-1 0 40.451113167872144 0 0 -1 0 0 0 -1 forward_v I I I I #
coedge $-1 $798 $780 $802 $819 forward $746 $-1 #
coedge $-1 $787 $802 $783 $810 forward $770 $-1 #
edge $-1 $811 -4.9910276856870626 $791 -1.9910276856870626 $809 $822 forward 7 unknown #
vertex $-1 $819 $823 #
straight-curve $-1 0 -33.108263039628774 -8.4820553713741251 -1 0 0 I I #
point $-1 62.633747367778554 -33.108263039628774 -8.4820553713741251 #
straight-curve $-1 -62.633747367778554 -18.38984405187523 -5.4820553713741251 0 -1 0 I I #
point $-1 -62.633747367778554 -40.451113167872144 -5.4820553713741251 #
point $-1 -62.633747367778554 -33.108263039628774 -5.4820553713741251 #
straight-curve $-1 62.633747367778554 -40.451113167872144 0 0 0 -1 I I #
straight-curve $-1 0 40.451113167872144 -8.4820553713741251 1 0 0 I I #
edge $-1 $811 -33.108263039628774 $805 40.451113167872144 $802 $824 forward 7 unknown #
straight-curve $-1 -62.633747367778554 -40.451113167872144 0 0 0 -1 I I #
point $-1 -62.633747367778554 40.451113167872144 -8.4820553713741251 #
straight-curve $-1 -62.633747367778554 -33.108263039628774 -3.4910276856870626 0 0 1 I I #
point $-1 -62.633747367778554 -33.108263039628774 -8.4820553713741251 #
straight-curve $-1 -62.633747367778554 0 -8.4820553713741251 0 1 0 I I #
End-of-ACIS-data 