500 0 8 0           
7 Unknown 11 ACIS 5.0 NT 24 Thu Mar 25 18:53:10 1999 
-1 9.9999999999999995e-007 1e-010 
body $-1 $8 $-1 $9 #
body $-1 $10 $-1 $11 #
body $-1 $12 $-1 $13 #
body $-1 $14 $-1 $15 #
body $-1 $16 $-1 $17 #
body $-1 $18 $-1 $19 #
body $-1 $20 $-1 $21 #
body $-1 $22 $-1 $23 #
lump $-1 $-1 $24 $0 #
transform $-1 1 0 0 0 1 0 0 0 1 41.727347636341442 18.496445615369272 9.0946267246760613 1 rotate no_reflect no_shear #
lump $-1 $-1 $25 $1 #
transform $-1 1 0 0 0 1 0 0 0 1 41.727347636341442 18.496445615369272 9.0946267246760613 1 rotate no_reflect no_shear #
lump $-1 $-1 $26 $2 #
transform $-1 1 0 0 0 1 0 0 0 1 41.727347636341442 18.496445615369272 9.0946267246760613 1 rotate no_reflect no_shear #
lump $-1 $-1 $27 $3 #
transform $-1 1 0 0 0 1 0 0 0 1 41.727347636341442 18.496445615369272 9.0946267246760613 1 rotate no_reflect no_shear #
lump $-1 $-1 $28 $4 #
transform $-1 1 0 0 0 1 0 0 0 1 41.727347636341442 18.496445615369272 9.0946267246760613 1 rotate no_reflect no_shear #
lump $-1 $-1 $29 $5 #
transform $-1 1 0 0 0 1 0 0 0 1 41.727347636341442 18.496445615369272 9.0946267246760613 1 rotate no_reflect no_shear #
lump $-1 $-1 $30 $6 #
transform $-1 1 0 0 0 1 0 0 0 1 41.727347636341442 18.496445615369272 9.0946267246760613 1 rotate no_reflect no_shear #
lump $-1 $-1 $31 $7 #
transform $-1 1 0 0 0 1 0 0 0 1 41.727347636341442 18.496445615369272 9.0946267246760613 1 rotate no_reflect no_shear #
shell $-1 $-1 $-1 $32 $-1 $8 #
shell $-1 $-1 $-1 $33 $-1 $10 #
shell $-1 $-1 $-1 $34 $-1 $12 #
shell $-1 $-1 $-1 $35 $-1 $14 #
shell $-1 $-1 $-1 $36 $-1 $16 #
shell $-1 $-1 $-1 $37 $-1 $18 #
shell $-1 $-1 $-1 $38 $-1 $20 #
shell $-1 $-1 $-1 $39 $-1 $22 #
face $-1 $40 $41 $24 $-1 $42 forward single #
face $-1 $43 $44 $25 $-1 $45 reversed single #
face $-1 $46 $47 $26 $-1 $48 reversed single #
face $-1 $49 $50 $27 $-1 $51 forward single #
face $-1 $52 $53 $28 $-1 $54 forward single #
face $-1 $55 $56 $29 $-1 $57 reversed single #
face $-1 $58 $59 $30 $-1 $60 forward single #
face $-1 $61 $62 $31 $-1 $63 forward single #
face $-1 $64 $65 $24 $-1 $66 reversed single #
loop $-1 $-1 $67 $32 #
plane-surface $-1 0 0 9.0946267246760613 0 0 1 1 0 0 forward_v I I I I #
face $-1 $68 $69 $25 $-1 $70 reversed single #
loop $-1 $-1 $71 $33 #
plane-surface $-1 -39.057412586504064 -7.0202129565554081 0 0 -1 0 0 0 -1 forward_v I I I I #
face $-1 $72 $73 $26 $-1 $74 reversed single #
loop $-1 $-1 $75 $34 #
plane-surface $-1 -112.50094373900197 -0.14157476095738275 46.439496835615621 0 -1 0 0.84804810408105047 0 -0.52991925155115449 forward_v I I I I #
face $-1 $76 $77 $27 $-1 $78 forward single #
loop $-1 $79 $80 $35 #
cone-surface $-1 -39.153966936478604 -5.0548877578131144 5.3899773257053702 0.84804810408105047 0 -0.52991925155115449 0.13247981288778862 0 0.21201202602026262 1 I I 0 1 0.25 forward I I I I #
face $-1 $81 $82 $28 $-1 $83 forward single #
loop $-1 $84 $85 $36 #
cone-surface $-1 -39.153966936478604 -2.1068999596996747 5.3899773257053702 0.84804810408105047 0 -0.52991925155115449 0.13247981288778862 0 0.21201202602026262 1 I I 0 1 0.25 forward I I I I #
face $-1 $86 $87 $29 $-1 $88 reversed single #
loop $-1 $-1 $89 $37 #
plane-surface $-1 54.064087111624779 3.1101461648892101 123.13883934383318 0 -1 0 -0.77714596973225614 0 -0.62932038083071107 forward_v I I I I #
face $-1 $90 $91 $30 $-1 $92 forward single #
loop $-1 $93 $94 $38 #
cone-surface $-1 39.989671217582774 -1.5336341824529676 7.1139624950818474 -0.77714596973225614 0 -0.62932038083071107 0.31466019041535553 0 -0.38857298486612807 1 I I 0 1 0.5 forward I I I I #
face $-1 $95 $96 $31 $-1 $97 forward single #
loop $-1 $98 $99 $39 #
cone-surface $-1 39.989671217582774 1.2526340259523394 7.1139624950818474 -0.77714596973225614 0 -0.62932038083071107 0.31466019041535553 0 -0.38857298486612807 1 I I 0 1 0.5 forward I I I I #
face $-1 $100 $101 $24 $-1 $102 reversed single #
loop $-1 $-1 $103 $40 #
plane-surface $-1 0 0 -9.0946267246760613 0 0 1 1 0 0 forward_v I I I I #
coedge $-1 $104 $105 $106 $107 forward $41 $-1 #
face $-1 $108 $109 $25 $-1 $110 forward single #
loop $-1 $-1 $111 $43 #
plane-surface $-1 -36.387477536666687 -12.75832928596234 0 -1 0 0 0 0 1 forward_v I I I I #
coedge $-1 $112 $113 $114 $115 reversed $44 $-1 #
face $-1 $116 $117 $26 $-1 $118 reversed single #
loop $-1 $-1 $119 $46 #
plane-surface $-1 -41.727347636341449 -3.5808938587563954 2.2152471782858356 -0.84804810408105047 0 0.52991925155115449 0.52991925155115449 0 0.84804810408105047 forward_v I I I I #
coedge $-1 $120 $121 $122 $123 reversed $47 $-1 #
face $-1 $-1 $124 $27 $-1 $125 forward single #
loop $-1 $126 $127 $49 #
cone-surface $-1 -38.623936871427944 -5.0548877578131144 5.0587777934858984 0.84804810408105047 0 -0.52991925155115449 0.066239906443894311 0 0.10600601301013131 1 I I -0.70710678118654746 0.70710678118654746 0.125 forward I I I I #
loop $-1 $-1 $128 $35 #
coedge $-1 $80 $80 $129 $130 reversed $50 $-1 #
face $-1 $-1 $131 $28 $-1 $132 forward single #
loop $-1 $133 $134 $52 #
cone-surface $-1 -38.623936871427944 -2.1068999596996747 5.0587777934858984 0.84804810408105047 0 -0.52991925155115449 0.066239906443894311 0 0.10600601301013131 1 I I -0.70710678118654746 0.70710678118654746 0.125 forward I I I I #
loop $-1 $-1 $135 $36 #
coedge $-1 $85 $85 $136 $137 reversed $53 $-1 #
face $-1 $138 $139 $29 $-1 $140 reversed single #
loop $-1 $-1 $141 $55 #
plane-surface $-1 -10.792392974774295 -0.14050007825031585 70.619098732717447 0.77714596973225614 0 0.62932038083071107 0.62932038083071107 0 -0.77714596973225614 forward_v I I I I #
coedge $-1 $142 $143 $144 $145 reversed $56 $-1 #
face $-1 $-1 $146 $30 $-1 $147 forward single #
loop $-1 $148 $149 $58 #
cone-surface $-1 39.40681174028358 -1.5336341824529676 6.6419722094588138 -0.77714596973225614 0 -0.62932038083071107 0.15733009520767777 0 -0.19428649243306403 1 I I -0.70710678118654746 0.70710678118654746 0.25 forward I I I I #
loop $-1 $-1 $150 $38 #
coedge $-1 $94 $94 $151 $152 reversed $59 $-1 #
face $-1 $-1 $153 $31 $-1 $154 forward single #
loop $-1 $155 $156 $61 #
cone-surface $-1 39.40681174028358 1.2526340259523394 6.6419722094588138 -0.77714596973225614 0 -0.62932038083071107 0.15733009520767777 0 -0.19428649243306403 1 I I -0.70710678118654746 0.70710678118654746 0.25 forward I I I I #
loop $-1 $-1 $157 $39 #
coedge $-1 $99 $99 $158 $159 reversed $62 $-1 #
face $-1 $160 $161 $24 $-1 $162 reversed single #
loop $-1 $-1 $163 $64 #
plane-surface $-1 0 -18.496445615369272 0 0 1 0 0 0 1 forward_v I I I I #
coedge $-1 $164 $165 $166 $167 forward $65 $-1 #
coedge $-1 $168 $67 $169 $170 forward $41 $-1 #
coedge $-1 $67 $168 $171 $172 forward $41 $-1 #
coedge $-1 $173 $174 $67 $107 reversed $175 $-1 #
edge $-1 $176 -18.496445615369272 $177 18.496445615369272 $106 $178 forward 7 unknown #
face $-1 $179 $180 $25 $-1 $181 reversed single #
loop $-1 $-1 $182 $68 #
plane-surface $-1 0 0 9.0946267246760613 0 0 1 1 0 0 forward_v I I I I #
coedge $-1 $183 $184 $185 $186 reversed $69 $-1 #
coedge $-1 $187 $71 $188 $189 forward $44 $-1 #
coedge $-1 $71 $187 $190 $191 reversed $44 $-1 #
coedge $-1 $192 $182 $71 $115 forward $109 $-1 #
edge $-1 $193 16.858771243414655 $194 22.19864134308941 $114 $195 forward 7 unknown #
face $-1 $196 $197 $26 $-1 $198 forward single #
loop $-1 $-1 $122 $72 #
plane-surface $-1 -41.727347636341442 0 0 1 0 0 0 0 -1 forward_v I I I I #
coedge $-1 $199 $200 $201 $202 reversed $73 $-1 #
coedge $-1 $121 $75 $203 $204 reversed $47 $-1 #
coedge $-1 $75 $120 $199 $205 reversed $47 $-1 #
coedge $-1 $201 $206 $75 $123 forward $117 $-1 #
edge $-1 $207 14.125121693131749 $208 21.004501239521964 $122 $209 forward 7 unknown #
loop $-1 $-1 $129 $76 #
plane-surface $-1 -41.727347636341449 -3.5808938587563954 2.2152471782858356 -0.84804810408105047 0 0.52991925155115449 0.52991925155115449 0 0.84804810408105047 forward_v I I I I #
loop $-1 $-1 $210 $49 #
coedge $-1 $127 $127 $128 $211 reversed $77 $-1 #
coedge $-1 $128 $128 $127 $211 forward $79 $-1 #
coedge $-1 $129 $129 $80 $130 forward $124 $-1 #
edge $-1 $212 0 $212 6.2831853071796004 $129 $213 forward 7 unknown #
loop $-1 $-1 $136 $81 #
plane-surface $-1 -41.727347636341449 -3.5808938587563954 2.2152471782858356 -0.84804810408105047 0 0.52991925155115449 0.52991925155115449 0 0.84804810408105047 forward_v I I I I #
loop $-1 $-1 $214 $52 #
coedge $-1 $134 $134 $135 $215 reversed $82 $-1 #
coedge $-1 $135 $135 $134 $215 forward $84 $-1 #
coedge $-1 $136 $136 $85 $137 forward $131 $-1 #
edge $-1 $216 0 $216 6.2831853071796004 $136 $217 forward 7 unknown #
face $-1 $218 $219 $29 $-1 $220 reversed single #
loop $-1 $-1 $221 $86 #
plane-surface $-1 54.064087111624779 -3.3911463213898418 123.13883934383318 0 1 0 0.77714596973225614 0 0.62932038083071107 forward_v I I I I #
coedge $-1 $222 $223 $224 $225 reversed $87 $-1 #
coedge $-1 $143 $89 $226 $227 reversed $56 $-1 #
coedge $-1 $89 $142 $222 $228 reversed $56 $-1 #
coedge $-1 $224 $229 $89 $145 forward $230 $-1 #
edge $-1 $231 -14.695304080529052 $232 -11.997097212743977 $144 $233 forward 7 unknown #
loop $-1 $-1 $151 $90 #
plane-surface $-1 -10.792392974774295 -0.14050007825031585 70.619098732717447 0.77714596973225614 0 0.62932038083071107 0.62932038083071107 0 -0.77714596973225614 forward_v I I I I #
loop $-1 $-1 $234 $58 #
coedge $-1 $149 $149 $150 $235 reversed $91 $-1 #
coedge $-1 $150 $150 $149 $235 forward $93 $-1 #
coedge $-1 $151 $151 $94 $152 forward $146 $-1 #
edge $-1 $236 0 $236 6.2831853071796004 $151 $237 forward 7 unknown #
loop $-1 $-1 $158 $95 #
plane-surface $-1 -10.792392974774295 -0.14050007825031585 70.619098732717447 0.77714596973225614 0 0.62932038083071107 0.62932038083071107 0 -0.77714596973225614 forward_v I I I I #
loop $-1 $-1 $238 $61 #
coedge $-1 $156 $156 $157 $239 reversed $96 $-1 #
coedge $-1 $157 $157 $156 $239 forward $98 $-1 #
coedge $-1 $158 $158 $99 $159 forward $153 $-1 #
edge $-1 $240 0 $240 6.2831853071796004 $158 $241 forward 7 unknown #
face $-1 $242 $243 $24 $-1 $244 reversed single #
loop $-1 $-1 $245 $100 #
plane-surface $-1 -41.727347636341442 0 0 1 0 0 0 0 -1 forward_v I I I I #
coedge $-1 $246 $171 $247 $248 forward $101 $-1 #
coedge $-1 $249 $103 $246 $250 forward $65 $-1 #
coedge $-1 $103 $249 $251 $252 forward $65 $-1 #
coedge $-1 $174 $173 $103 $167 reversed $175 $-1 #
edge $-1 $253 -18.496445615369272 $254 18.496445615369272 $166 $255 forward 7 unknown #
coedge $-1 $105 $104 $256 $257 forward $41 $-1 #
coedge $-1 $258 $259 $104 $170 reversed $243 $-1 #
edge $-1 $177 -41.727347636341442 $260 41.727347636341442 $169 $261 forward 7 unknown #
coedge $-1 $163 $262 $105 $172 reversed $101 $-1 #
edge $-1 $263 -41.727347636341442 $176 41.727347636341442 $171 $264 forward 7 unknown #
coedge $-1 $166 $106 $262 $265 forward $175 $-1 #
coedge $-1 $106 $166 $258 $266 reversed $175 $-1 #
loop $-1 $-1 $173 $242 #
vertex $-1 $107 $267 #
vertex $-1 $107 $268 #
straight-curve $-1 41.727347636341442 0 9.0946267246760613 0 1 0 I I #
face $-1 $269 $270 $25 $-1 $271 reversed single #
loop $-1 $-1 $190 $108 #
plane-surface $-1 -41.727347636341442 0 0 1 0 0 0 0 -1 forward_v I I I I #
coedge $-1 $114 $272 $184 $273 forward $109 $-1 #
coedge $-1 $188 $111 $274 $275 reversed $69 $-1 #
coedge $-1 $111 $188 $182 $273 reversed $69 $-1 #
coedge $-1 $276 $277 $111 $186 forward $278 $-1 #
edge $-1 $279 -9.0946267246760613 $280 9.0946267246760613 $185 $281 forward 7 unknown #
coedge $-1 $113 $112 $282 $283 reversed $44 $-1 #
coedge $-1 $184 $183 $112 $189 reversed $69 $-1 #
edge $-1 $193 -9.0946267246760613 $284 9.0946267246760613 $188 $285 forward 7 unknown #
coedge $-1 $286 $287 $113 $191 forward $180 $-1 #
edge $-1 $194 -9.0946267246760613 $288 9.0946267246760613 $190 $289 forward 7 unknown #
coedge $-1 $272 $114 $287 $290 forward $109 $-1 #
vertex $-1 $115 $291 #
vertex $-1 $290 $292 #
straight-curve $-1 -19.528706293252032 -7.0202129565554081 9.0946267246760613 -1 0 0 I I #
face $-1 $-1 $293 $26 $-1 $294 forward single #
loop $-1 $-1 $295 $116 #
plane-surface $-1 -39.057412586504064 -7.0202129565554081 0 0 -1 0 0 0 -1 forward_v I I I I #
coedge $-1 $296 $119 $121 $205 forward $73 $-1 #
coedge $-1 $119 $296 $295 $297 reversed $73 $-1 #
coedge $-1 $298 $122 $119 $202 forward $117 $-1 #
edge $-1 $208 -1.648872168420815 $299 5.2297660271772104 $201 $300 forward 7 unknown #
coedge $-1 $301 $302 $120 $204 forward $293 $-1 #
edge $-1 $303 -18.82183752880416 $207 -14.523124233159542 $203 $304 forward 7 unknown #
edge $-1 $208 1.3557137071152151e-014 $303 8.1120157138311839 $121 $305 forward 7 unknown #
coedge $-1 $122 $298 $301 $306 reversed $117 $-1 #
vertex $-1 $306 $307 #
vertex $-1 $123 $308 #
straight-curve $-1 -41.727347636341442 -0.14157476095738275 23.219748417807811 0 0 -1 I I #
coedge $-1 $210 $210 $-1 $309 reversed $126 $-1 #
edge $-1 $310 0 $310 6.2831853071796004 $127 $311 forward 7 unknown #
vertex $-1 $130 $312 #
ellipse-curve $-1 -39.577990988519133 -5.0548877578131144 5.6549369514809511 -0.84804810408105047 0 0.52991925155115449 0.13247981288778862 0 0.21201202602026262 1 I I #
coedge $-1 $214 $214 $-1 $313 reversed $133 $-1 #
edge $-1 $314 0 $314 6.2831853071796004 $134 $315 forward 7 unknown #
vertex $-1 $137 $316 #
ellipse-curve $-1 -39.577990988519133 -2.1068999596996747 5.6549369514809511 -0.84804810408105047 0 0.52991925155115449 0.13247981288778862 0 0.21201202602026262 1 I I #
face $-1 $-1 $230 $29 $-1 $317 forward single #
loop $-1 $-1 $318 $138 #
plane-surface $-1 41.727347636341442 0 0 -1 0 0 0 0 1 forward_v I I I I #
coedge $-1 $319 $320 $321 $322 reversed $139 $-1 #
coedge $-1 $323 $141 $143 $228 forward $87 $-1 #
coedge $-1 $141 $323 $319 $324 forward $87 $-1 #
coedge $-1 $321 $144 $141 $225 forward $230 $-1 #
edge $-1 $232 -3.1803962040143681 $325 3.3208962822646839 $224 $326 forward 7 unknown #
coedge $-1 $327 $328 $142 $227 forward $219 $-1 #
edge $-1 $329 -55.806801025598219 $231 -52.47479294724053 $226 $330 forward 7 unknown #
edge $-1 $232 79.167202049877346 $329 83.454695272682883 $143 $331 forward 7 unknown #
coedge $-1 $144 $321 $327 $332 forward $230 $-1 #
loop $-1 $-1 $321 $218 #
vertex $-1 $227 $333 #
vertex $-1 $145 $334 #
straight-curve $-1 27.03204355581239 3.1101461648892101 9.0946267246760613 -1 0 0 I I #
coedge $-1 $234 $234 $-1 $335 reversed $148 $-1 #
edge $-1 $336 0 $336 6.2831853071796004 $149 $337 forward 7 unknown #
vertex $-1 $152 $338 #
ellipse-curve $-1 40.378244202448911 -1.5336341824529676 7.4286226854972073 0.77714596973225614 0 0.62932038083071107 0.31466019041535553 0 -0.38857298486612807 1 I I #
coedge $-1 $238 $238 $-1 $339 reversed $155 $-1 #
edge $-1 $340 0 $340 6.2831853071796004 $156 $341 forward 7 unknown #
vertex $-1 $159 $342 #
ellipse-curve $-1 40.378244202448911 1.2526340259523394 7.4286226854972073 0.77714596973225614 0 0.62932038083071107 0.31466019041535553 0 -0.38857298486612807 1 I I #
face $-1 $-1 $175 $24 $-1 $343 reversed single #
loop $-1 $-1 $258 $160 #
plane-surface $-1 0 18.496445615369272 0 0 -1 0 0 0 -1 forward_v I I I I #
coedge $-1 $344 $256 $259 $345 forward $161 $-1 #
coedge $-1 $262 $163 $164 $250 reversed $101 $-1 #
coedge $-1 $256 $344 $163 $248 reversed $161 $-1 #
edge $-1 $263 -9.0946267246760613 $346 9.0946267246760613 $247 $347 forward 7 unknown #
coedge $-1 $165 $164 $344 $348 forward $65 $-1 #
edge $-1 $254 -41.727347636341442 $346 41.727347636341442 $246 $349 forward 7 unknown #
coedge $-1 $259 $258 $165 $252 reversed $243 $-1 #
edge $-1 $350 -41.727347636341442 $253 41.727347636341442 $251 $351 forward 7 unknown #
vertex $-1 $167 $352 #
vertex $-1 $265 $353 #
straight-curve $-1 41.727347636341442 0 -9.0946267246760613 0 -1 0 I I #
coedge $-1 $245 $247 $168 $257 reversed $161 $-1 #
edge $-1 $260 -18.496445615369272 $263 18.496445615369272 $256 $354 forward 7 unknown #
coedge $-1 $251 $169 $174 $266 forward $243 $-1 #
coedge $-1 $169 $251 $245 $345 reversed $243 $-1 #
vertex $-1 $170 $355 #
straight-curve $-1 0 18.496445615369272 9.0946267246760613 -1 0 0 I I #
coedge $-1 $171 $246 $173 $265 reversed $101 $-1 #
vertex $-1 $257 $356 #
straight-curve $-1 0 -18.496445615369272 9.0946267246760613 1 0 0 I I #
edge $-1 $176 -9.0946267246760613 $254 9.0946267246760613 $173 $357 forward 7 unknown #
edge $-1 $177 -9.0946267246760613 $253 9.0946267246760613 $174 $358 forward 7 unknown #
point $-1 41.727347636341442 -18.496445615369272 9.0946267246760613 #
point $-1 41.727347636341442 18.496445615369272 9.0946267246760613 #
face $-1 $-1 $278 $25 $-1 $359 reversed single #
loop $-1 $-1 $274 $179 #
plane-surface $-1 0 0 -9.0946267246760613 0 0 1 1 0 0 forward_v I I I I #
coedge $-1 $182 $192 $276 $360 forward $109 $-1 #
edge $-1 $280 -12.117280972388102 $193 -0.64104831357423819 $182 $361 forward 7 unknown #
coedge $-1 $362 $282 $183 $275 forward $270 $-1 #
edge $-1 $284 0.64104831357423819 $279 12.117280972388102 $274 $363 forward 7 unknown #
coedge $-1 $364 $185 $272 $360 reversed $278 $-1 #
coedge $-1 $185 $364 $362 $365 reversed $278 $-1 #
loop $-1 $-1 $185 $269 #
vertex $-1 $365 $366 #
vertex $-1 $186 $367 #
straight-curve $-1 -36.387477536666687 -18.496445615369272 0 0 0 1 I I #
coedge $-1 $274 $368 $187 $283 forward $270 $-1 #
edge $-1 $288 -22.19864134308941 $284 -16.858771243414655 $282 $369 forward 7 unknown #
vertex $-1 $283 $370 #
straight-curve $-1 -36.387477536666687 -7.0202129565554081 0 0 0 -1 I I #
coedge $-1 $371 $190 $368 $372 reversed $180 $-1 #
coedge $-1 $190 $371 $192 $290 reversed $180 $-1 #
vertex $-1 $283 $373 #
straight-curve $-1 -41.727347636341442 -7.0202129565554081 0 0 0 -1 I I #
edge $-1 $194 7.0202129565554081 $374 18.496445615369272 $287 $375 forward 7 unknown #
point $-1 -36.387477536666687 -7.0202129565554081 9.0946267246760613 #
point $-1 -41.727347636341442 -7.0202129565554081 9.0946267246760613 #
loop $-1 $-1 $203 $196 #
plane-surface $-1 0 0 9.0946267246760613 0 0 1 1 0 0 forward_v I I I I #
coedge $-1 $376 $377 $200 $297 forward $197 $-1 #
coedge $-1 $200 $199 $302 $378 reversed $73 $-1 #
edge $-1 $299 0.23189309315810114 $379 8.3439088069892708 $295 $380 forward 7 unknown #
coedge $-1 $206 $201 $377 $381 forward $117 $-1 #
vertex $-1 $381 $382 #
straight-curve $-1 -41.727347636341442 -1.7904469293781977 2.2152471782858494 0 -1 0 I I #
coedge $-1 $383 $203 $206 $306 forward $293 $-1 #
coedge $-1 $203 $383 $296 $378 forward $293 $-1 #
vertex $-1 $204 $384 #
straight-curve $-1 -56.250471869500984 -0.14157476095738275 9.0946267246760613 -1 0 0 I I #
straight-curve $-1 -41.727347636341449 -0.14157476095738275 2.2152471782858356 0.52991925155115449 0 0.84804810408105047 I I #
edge $-1 $207 0.14157476095738275 $385 7.0202129565554081 $206 $386 forward 7 unknown #
point $-1 -41.727347636341442 -0.14157476095738275 9.0946267246760613 #
point $-1 -41.727347636341442 -0.14157476095738275 2.2152471782858472 #
edge $-1 $387 1 $387 0 $210 $-1 forward 7 unknown #
vertex $-1 $211 $388 #
ellipse-curve $-1 -38.729942884438074 -5.0548877578131144 5.1250176999297929 -0.84804810408105047 0 0.52991925155115449 0.13247981288778862 0 0.21201202602026262 1 I I #
point $-1 -39.445511175631339 -5.0548877578131144 5.8669489775012096 #
edge $-1 $389 1 $389 0 $214 $-1 forward 7 unknown #
vertex $-1 $215 $390 #
ellipse-curve $-1 -38.729942884438074 -2.1068999596996747 5.1250176999297929 -0.84804810408105047 0 0.52991925155115449 0.13247981288778862 0 0.21201202602026262 1 I I #
point $-1 -39.445511175631339 -2.1068999596996747 5.8669489775012096 #
plane-surface $-1 0 0 9.0946267246760613 0 0 1 1 0 0 forward_v I I I I #
coedge $-1 $328 $327 $320 $391 forward $219 $-1 #
coedge $-1 $320 $221 $223 $324 reversed $139 $-1 #
coedge $-1 $221 $319 $318 $391 reversed $139 $-1 #
coedge $-1 $229 $224 $221 $322 forward $230 $-1 #
edge $-1 $325 11.997097212743977 $392 14.695304080529052 $321 $393 forward 7 unknown #
coedge $-1 $223 $222 $328 $394 reversed $87 $-1 #
edge $-1 $395 -83.454695272682883 $325 -79.167202049877346 $319 $396 forward 7 unknown #
vertex $-1 $225 $397 #
straight-curve $-1 39.029140768556374 -0.070250039125157926 9.0946267246760613 0 -1 0 I I #
coedge $-1 $318 $226 $229 $332 reversed $219 $-1 #
coedge $-1 $226 $318 $323 $394 forward $219 $-1 #
vertex $-1 $227 $398 #
straight-curve $-1 41.727347636341442 3.1101461648892101 61.569419671916592 0 0 1 I I #
straight-curve $-1 -10.792392974774295 3.1101461648892101 70.619098732717447 0.62932038083071107 0 -0.77714596973225614 I I #
edge $-1 $392 -3.3911463213898418 $231 3.1101461648892101 $327 $399 forward 7 unknown #
point $-1 41.727347636341442 3.1101461648892101 9.0946267246760613 #
point $-1 39.029140768556367 3.1101461648892101 9.0946267246760613 #
edge $-1 $400 1 $400 0 $234 $-1 forward 7 unknown #
vertex $-1 $235 $401 #
ellipse-curve $-1 39.601098232716645 -1.5336341824529676 6.799302304666492 0.77714596973225614 0 0.62932038083071107 0.31466019041535553 0 -0.38857298486612807 1 I I #
point $-1 40.692904392864257 -1.5336341824529676 7.0400497006310747 #
edge $-1 $402 1 $402 0 $238 $-1 forward 7 unknown #
vertex $-1 $239 $403 #
ellipse-curve $-1 39.601098232716645 1.2526340259523394 6.799302304666492 0.77714596973225614 0 0.62932038083071107 0.31466019041535553 0 -0.38857298486612807 1 I I #
point $-1 40.692904392864257 1.2526340259523394 7.0400497006310747 #
plane-surface $-1 41.727347636341442 0 0 -1 0 0 0 0 1 forward_v I I I I #
coedge $-1 $247 $245 $249 $348 reversed $161 $-1 #
edge $-1 $260 -9.0946267246760613 $350 9.0946267246760613 $259 $404 forward 7 unknown #
vertex $-1 $348 $405 #
straight-curve $-1 -41.727347636341442 -18.496445615369272 0 0 0 -1 I I #
edge $-1 $346 -18.496445615369272 $350 18.496445615369272 $344 $406 forward 7 unknown #
straight-curve $-1 0 -18.496445615369272 -9.0946267246760613 -1 0 0 I I #
vertex $-1 $252 $407 #
straight-curve $-1 0 18.496445615369272 -9.0946267246760613 1 0 0 I I #
point $-1 41.727347636341442 18.496445615369272 -9.0946267246760613 #
point $-1 41.727347636341442 -18.496445615369272 -9.0946267246760613 #
straight-curve $-1 -41.727347636341442 0 9.0946267246760613 0 -1 0 I I #
point $-1 -41.727347636341442 18.496445615369272 9.0946267246760613 #
point $-1 -41.727347636341442 -18.496445615369272 9.0946267246760613 #
straight-curve $-1 41.727347636341442 -18.496445615369272 0 0 0 -1 I I #
straight-curve $-1 41.727347636341442 18.496445615369272 0 0 0 -1 I I #
plane-surface $-1 0 -18.496445615369272 0 0 1 0 0 0 1 forward_v I I I I #
edge $-1 $374 -41.727347636341442 $280 -36.387477536666687 $276 $408 forward 7 unknown #
straight-curve $-1 -36.387477536666687 -6.3791646429811699 9.0946267246760613 0 1 0 I I #
coedge $-1 $368 $274 $277 $365 forward $270 $-1 #
straight-curve $-1 -36.387477536666687 -6.3791646429811699 -9.0946267246760613 0 -1 0 I I #
coedge $-1 $277 $276 $371 $409 forward $278 $-1 #
edge $-1 $279 36.387477536666687 $410 41.727347636341442 $277 $411 forward 7 unknown #
point $-1 -36.387477536666687 -18.496445615369272 -9.0946267246760613 #
point $-1 -36.387477536666687 -18.496445615369272 9.0946267246760613 #
coedge $-1 $282 $362 $286 $372 forward $270 $-1 #
straight-curve $-1 -19.528706293252032 -7.0202129565554081 -9.0946267246760613 1 0 0 I I #
point $-1 -36.387477536666687 -7.0202129565554081 -9.0946267246760613 #
coedge $-1 $287 $286 $364 $409 reversed $180 $-1 #
edge $-1 $410 -18.496445615369272 $288 -7.0202129565554081 $286 $412 forward 7 unknown #
point $-1 -41.727347636341442 -7.0202129565554081 -9.0946267246760613 #
vertex $-1 $290 $413 #
straight-curve $-1 -41.727347636341442 0 9.0946267246760613 0 -1 0 I I #
coedge $-1 $377 $295 $383 $414 reversed $197 $-1 #
coedge $-1 $295 $376 $298 $381 reversed $197 $-1 #
edge $-1 $379 -5.2297660271772104 $303 1.648872168420815 $302 $415 forward 7 unknown #
vertex $-1 $297 $416 #
straight-curve $-1 -41.850232250707663 -7.0202129565554081 2.0185906802836278 0.52991925155115449 0 0.84804810408105047 I I #
edge $-1 $299 2.2152471782858472 $385 9.0946267246760613 $298 $417 forward 7 unknown #
point $-1 -41.727347636341442 -7.0202129565554081 2.2152471782858472 #
coedge $-1 $302 $301 $376 $414 forward $293 $-1 #
point $-1 -37.428634340696824 -0.14157476095738275 9.0946267246760613 #
vertex $-1 $381 $418 #
straight-curve $-1 -41.727347636341442 0 9.0946267246760613 0 -1 0 I I #
vertex $-1 $309 $419 #
point $-1 -38.597463071550287 -5.0548877578131144 5.337029725950055 #
vertex $-1 $313 $420 #
point $-1 -38.597463071550287 -2.1068999596996747 5.337029725950055 #
edge $-1 $392 52.47479294724053 $395 55.806801025598219 $318 $421 forward 7 unknown #
vertex $-1 $332 $422 #
straight-curve $-1 27.03204355581239 -3.3911463213898418 9.0946267246760613 1 0 0 I I #
edge $-1 $395 -3.3208962822646839 $329 3.1803962040143681 $328 $423 forward 7 unknown #
vertex $-1 $394 $424 #
straight-curve $-1 -10.792392974774295 -3.3911463213898418 70.619098732717447 -0.62932038083071107 0 0.77714596973225614 I I #
point $-1 39.029140768556367 -3.3911463213898418 9.0946267246760613 #
point $-1 41.727347636341442 3.1101461648892101 5.7626186463183728 #
straight-curve $-1 41.727347636341442 0 9.0946267246760613 0 1 0 I I #
vertex $-1 $335 $425 #
point $-1 39.915758423131997 -1.5336341824529676 6.4107293198003639 #
vertex $-1 $339 $426 #
point $-1 39.915758423131997 1.2526340259523394 6.4107293198003639 #
straight-curve $-1 -41.727347636341442 18.496445615369272 0 0 0 -1 I I #
point $-1 -41.727347636341442 -18.496445615369272 -9.0946267246760613 #
straight-curve $-1 -41.727347636341442 0 -9.0946267246760613 0 1 0 I I #
point $-1 -41.727347636341442 18.496445615369272 -9.0946267246760613 #
straight-curve $-1 0 -18.496445615369272 9.0946267246760613 1 0 0 I I #
edge $-1 $374 -9.0946267246760613 $410 9.0946267246760613 $371 $427 forward 7 unknown #
vertex $-1 $372 $428 #
straight-curve $-1 0 -18.496445615369272 -9.0946267246760613 -1 0 0 I I #
straight-curve $-1 -41.727347636341442 0 -9.0946267246760613 0 1 0 I I #
point $-1 -41.727347636341442 -18.496445615369272 9.0946267246760613 #
edge $-1 $385 -22.19864134308941 $379 -17.899928047444792 $383 $429 forward 7 unknown #
straight-curve $-1 -37.428634340696824 -1.7904469293781977 9.0946267246760613 0 1 0 I I #
point $-1 -37.428634340696824 -7.0202129565554081 9.0946267246760613 #
straight-curve $-1 -41.727347636341442 -7.0202129565554081 0 0 0 1 I I #
point $-1 -41.727347636341442 -7.0202129565554081 9.0946267246760613 #
point $-1 -38.517930858417813 -5.0548877578131144 4.9925378870420039 #
point $-1 -38.517930858417813 -2.1068999596996747 4.9925378870420039 #
straight-curve $-1 41.727347636341442 -3.3911463213898418 61.569419671916592 0 0 -1 I I #
point $-1 41.727347636341442 -3.3911463213898418 9.0946267246760613 #
straight-curve $-1 41.727347636341442 -0.070250039125157926 5.7626186463183835 0 1 0 I I #
point $-1 41.727347636341442 -3.3911463213898418 5.7626186463183728 #
point $-1 39.212525247850515 -1.5336341824529676 6.4846421142511357 #
point $-1 39.212525247850515 1.2526340259523394 6.4846421142511357 #
straight-curve $-1 -41.727347636341442 -18.496445615369272 0 0 0 -1 I I #
point $-1 -41.727347636341442 -18.496445615369272 -9.0946267246760613 #
straight-curve $-1 -19.528706293252032 -7.0202129565554081 9.0946267246760613 1 0 0 I I #
End-of-ACIS-data 