500 0 5 0           
7 Unknown 11 ACIS 5.0 NT 24 Fri Mar 26 17:33:06 1999 
-1 9.9999999999999995e-007 1e-010 
body $-1 $5 $-1 $6 #
body $-1 $7 $-1 $8 #
body $-1 $9 $-1 $10 #
body $-1 $11 $-1 $12 #
body $-1 $13 $-1 $14 #
lump $-1 $-1 $15 $0 #
transform $-1 1 0 0 0 1 0 0 0 1 49.060335093234045 33.814454539006775 10.165285286752901 1 rotate no_reflect no_shear #
lump $-1 $-1 $16 $1 #
transform $-1 1 0 0 0 1 0 0 0 1 49.060335093234045 33.814454539006775 10.165285286752901 1 rotate no_reflect no_shear #
lump $-1 $-1 $17 $2 #
transform $-1 1 0 0 0 1 0 0 0 1 49.060335093234045 33.814454539006775 10.165285286752901 1 rotate no_reflect no_shear #
lump $-1 $-1 $18 $3 #
transform $-1 1 0 0 0 1 0 0 0 1 49.060335093234045 33.814454539006775 10.165285286752901 1 rotate no_reflect no_shear #
lump $-1 $-1 $19 $4 #
transform $-1 1 0 0 0 1 0 0 0 1 49.060335093234045 33.814454539006775 10.165285286752901 1 rotate no_reflect no_shear #
shell $-1 $-1 $-1 $20 $-1 $5 #
shell $-1 $-1 $-1 $21 $-1 $7 #
shell $-1 $-1 $-1 $22 $-1 $9 #
shell $-1 $-1 $-1 $23 $-1 $11 #
shell $-1 $-1 $-1 $24 $-1 $13 #
face $-1 $25 $26 $15 $-1 $27 forward single #
face $-1 $28 $29 $16 $-1 $30 reversed single #
face $-1 $31 $32 $17 $-1 $33 forward single #
face $-1 $34 $35 $18 $-1 $36 reversed single #
face $-1 $37 $38 $19 $-1 $39 reversed single #
face $-1 $40 $41 $15 $-1 $42 reversed single #
loop $-1 $-1 $43 $20 #
plane-surface $-1 0 0 10.165285286752901 0 0 1 1 0 0 forward_v I I I I #
face $-1 $44 $45 $16 $-1 $46 reversed single #
loop $-1 $-1 $47 $21 #
plane-surface $-1 -47.54247592631318 -46.919771017237252 0 0 1 0 0 0 1 forward_v I I I I #
face $-1 $48 $49 $17 $-1 $50 forward single #
loop $-1 $-1 $51 $22 #
plane-surface $-1 -35.744773348623454 79.272030571064178 116.27918378502218 1 0 0 0 -0.83867057594974714 -0.54463902268945019 forward_v I I I I #
face $-1 $52 $53 $18 $-1 $54 reversed single #
loop $-1 $55 $56 $23 #
cone-surface $-1 -29.276575129363508 32.03126364164401 7.837767953748954 0 -0.83867057594974714 -0.54463902268945019 1 0 0 1 I I 0 1 1 forward I I I I #
face $-1 $57 $58 $19 $-1 $59 reversed single #
loop $-1 $60 $61 $24 #
cone-surface $-1 -19.574277800473588 32.03126364164401 7.837767953748954 0 -0.83867057594974714 -0.54463902268945019 1 0 0 1 I I 0 1 1 forward I I I I #
face $-1 $62 $63 $15 $-1 $64 reversed single #
loop $-1 $-1 $65 $25 #
plane-surface $-1 0 0 -10.165285286752901 0 0 1 1 0 0 forward_v I I I I #
coedge $-1 $66 $67 $68 $69 forward $26 $-1 #
face $-1 $70 $71 $16 $-1 $72 reversed single #
loop $-1 $-1 $73 $28 #
plane-surface $-1 -46.024616759392316 -40.367112778122014 0 -1 0 0 0 0 1 forward_v I I I I #
coedge $-1 $74 $75 $76 $77 forward $29 $-1 #
face $-1 $78 $79 $17 $-1 $80 forward single #
loop $-1 $-1 $81 $31 #
plane-surface $-1 -24.425426464918548 -3.0188884067961936 62.838837869030328 0 0.83867057594974714 0.54463902268945019 1 0 0 forward_v I I I I #
coedge $-1 $82 $83 $84 $85 reversed $32 $-1 #
face $-1 $86 $87 $18 $-1 $88 forward single #
loop $-1 $89 $90 $34 #
cone-surface $-1 -29.276575129363508 31.142106975693324 7.2603428819169231 0 -0.83867057594974714 -0.54463902268945019 0.5 0 0 1 I I -0.70710678118654746 0.70710678118654746 0.5 forward I I I I #
loop $-1 $-1 $91 $23 #
coedge $-1 $56 $56 $92 $93 reversed $35 $-1 #
face $-1 $94 $95 $19 $-1 $96 reversed single #
loop $-1 $97 $98 $37 #
cone-surface $-1 -19.574277800473588 31.142106975693324 7.2603428819169231 0 -0.83867057594974714 -0.54463902268945019 0.5 0 0 1 I I -0.70710678118654746 0.70710678118654746 0.5 forward I I I I #
loop $-1 $-1 $99 $24 #
coedge $-1 $61 $61 $100 $101 reversed $38 $-1 #
face $-1 $102 $103 $15 $-1 $104 reversed single #
loop $-1 $-1 $105 $40 #
plane-surface $-1 0 -33.814454539006775 0 0 1 0 0 0 1 forward_v I I I I #
coedge $-1 $106 $107 $108 $109 forward $41 $-1 #
coedge $-1 $110 $43 $111 $112 forward $26 $-1 #
coedge $-1 $43 $110 $113 $114 forward $26 $-1 #
coedge $-1 $115 $116 $43 $69 reversed $117 $-1 #
edge $-1 $118 -33.814454539006775 $119 33.814454539006775 $68 $120 forward 7 unknown #
face $-1 $121 $122 $16 $-1 $123 forward single #
loop $-1 $-1 $124 $44 #
plane-surface $-1 0 -33.814454539006775 0 0 1 0 0 0 1 forward_v I I I I #
coedge $-1 $125 $126 $127 $128 forward $45 $-1 #
coedge $-1 $127 $47 $129 $130 reversed $29 $-1 #
coedge $-1 $47 $127 $131 $132 reversed $29 $-1 #
coedge $-1 $133 $134 $47 $77 reversed $135 $-1 #
edge $-1 $136 -10.165285286752901 $137 10.165285286752901 $76 $138 forward 7 unknown #
face $-1 $139 $140 $17 $-1 $141 forward single #
loop $-1 $-1 $142 $48 #
plane-surface $-1 -13.106079581213642 79.272030571064178 116.27918378502218 -1 0 0 0 0.83867057594974714 0.54463902268945019 forward_v I I I I #
coedge $-1 $143 $144 $145 $146 reversed $49 $-1 #
coedge $-1 $83 $51 $144 $147 forward $32 $-1 #
coedge $-1 $51 $82 $148 $149 reversed $32 $-1 #
coedge $-1 $150 $145 $51 $85 forward $140 $-1 #
edge $-1 $151 -8.4482997852992128 $152 -5.8215607465253143 $84 $153 forward 7 unknown #
face $-1 $154 $155 $18 $-1 $156 forward single #
loop $-1 $-1 $157 $52 #
plane-surface $-1 -35.744773348623454 79.272030571064178 116.27918378502218 1 0 0 0 -0.83867057594974714 -0.54463902268945019 forward_v I I I I #
loop $-1 $-1 $158 $34 #
coedge $-1 $90 $90 $91 $159 forward $53 $-1 #
coedge $-1 $91 $91 $90 $159 reversed $55 $-1 #
coedge $-1 $92 $92 $56 $93 forward $155 $-1 #
edge $-1 $160 8.9033658465053147e-016 $160 6.2831853071796013 $92 $161 forward 7 unknown #
face $-1 $162 $163 $19 $-1 $164 reversed single #
loop $-1 $165 $166 $57 #
cone-surface $-1 -29.276575129363508 32.03126364164401 7.837767953748954 0 -0.83867057594974714 -0.54463902268945019 1 0 0 1 I I 0 1 1 forward I I I I #
loop $-1 $-1 $167 $37 #
coedge $-1 $98 $98 $99 $168 forward $58 $-1 #
coedge $-1 $99 $99 $98 $168 reversed $60 $-1 #
coedge $-1 $100 $100 $61 $101 forward $169 $-1 #
edge $-1 $170 8.9033658465053147e-016 $170 6.2831853071796013 $100 $171 forward 7 unknown #
face $-1 $172 $173 $15 $-1 $174 reversed single #
loop $-1 $-1 $175 $62 #
plane-surface $-1 -49.060335093234045 0 0 1 0 0 0 0 -1 forward_v I I I I #
coedge $-1 $176 $113 $177 $178 forward $63 $-1 #
coedge $-1 $179 $65 $176 $180 forward $41 $-1 #
coedge $-1 $65 $179 $181 $182 forward $41 $-1 #
coedge $-1 $116 $115 $65 $109 reversed $117 $-1 #
edge $-1 $183 -33.814454539006775 $184 33.814454539006775 $108 $185 forward 7 unknown #
coedge $-1 $67 $66 $186 $187 forward $26 $-1 #
coedge $-1 $188 $189 $66 $112 reversed $173 $-1 #
edge $-1 $119 -49.060335093234045 $190 49.060335093234045 $111 $191 forward 7 unknown #
coedge $-1 $105 $192 $67 $114 reversed $63 $-1 #
edge $-1 $193 -49.060335093234045 $118 49.060335093234045 $113 $194 forward 7 unknown #
coedge $-1 $108 $68 $192 $195 forward $117 $-1 #
coedge $-1 $68 $108 $188 $196 reversed $117 $-1 #
loop $-1 $-1 $115 $172 #
vertex $-1 $69 $197 #
vertex $-1 $69 $198 #
straight-curve $-1 49.060335093234045 0 10.165285286752901 0 1 0 I I #
face $-1 $199 $200 $16 $-1 $201 reversed single #
loop $-1 $-1 $202 $70 #
plane-surface $-1 0 0 10.165285286752901 0 0 1 1 0 0 forward_v I I I I #
coedge $-1 $203 $204 $205 $206 forward $71 $-1 #
coedge $-1 $205 $73 $207 $208 reversed $45 $-1 #
coedge $-1 $73 $205 $209 $210 reversed $45 $-1 #
coedge $-1 $75 $74 $73 $128 reversed $29 $-1 #
edge $-1 $211 -10.165285286752901 $212 10.165285286752901 $73 $213 forward 7 unknown #
coedge $-1 $214 $207 $74 $130 forward $200 $-1 #
edge $-1 $212 -1.5178591669208643 $137 1.5178591669208643 $74 $215 forward 7 unknown #
coedge $-1 $209 $216 $75 $132 forward $122 $-1 #
edge $-1 $136 -1.5178591669208643 $211 1.5178591669208643 $75 $217 forward 7 unknown #
coedge $-1 $218 $76 $216 $219 reversed $135 $-1 #
coedge $-1 $76 $218 $214 $220 reversed $135 $-1 #
loop $-1 $-1 $218 $199 #
vertex $-1 $219 $221 #
vertex $-1 $220 $222 #
straight-curve $-1 -49.060335093234045 -46.919771017237252 0 0 0 -1 I I #
face $-1 $223 $224 $17 $-1 $225 reversed single #
loop $-1 $-1 $226 $78 #
plane-surface $-1 0 0 10.165285286752901 0 0 1 1 0 0 forward_v I I I I #
coedge $-1 $227 $228 $226 $229 reversed $79 $-1 #
coedge $-1 $230 $81 $228 $231 reversed $49 $-1 #
coedge $-1 $81 $230 $82 $147 reversed $49 $-1 #
coedge $-1 $84 $226 $81 $146 forward $140 $-1 #
edge $-1 $232 0.89336634875436793 $151 23.532060116164182 $145 $233 forward 7 unknown #
edge $-1 $151 62.806010002947339 $234 67.628909078013521 $82 $235 forward 7 unknown #
coedge $-1 $236 $237 $83 $149 forward $238 $-1 #
edge $-1 $152 47.974306605758187 $234 52.019130150791447 $148 $239 forward 7 unknown #
coedge $-1 $240 $84 $237 $241 forward $140 $-1 #
vertex $-1 $146 $242 #
vertex $-1 $241 $243 #
straight-curve $-1 -35.744773348623454 39.636015285532089 10.165285286752898 0 1 0 I I #
face $-1 $244 $245 $18 $-1 $246 forward single #
loop $-1 $247 $92 $86 #
plane-surface $-1 -24.425426464918548 -3.0188884067961936 62.838837869030328 0 0.83867057594974714 0.54463902268945019 1 0 0 forward_v I I I I #
coedge $-1 $248 $249 $250 $251 reversed $87 $-1 #
coedge $-1 $158 $158 $-1 $252 forward $89 $-1 #
edge $-1 $253 0 $253 6.2831853071796004 $90 $254 forward 7 unknown #
vertex $-1 $93 $255 #
ellipse-curve $-1 -29.276575129363508 32.501085019619836 8.142873514236264 0 -0.83867057594974714 -0.54463902268945019 1 0 0 1 I I #
face $-1 $256 $257 $19 $-1 $258 forward single #
loop $-1 $259 $260 $94 #
cone-surface $-1 -29.276575129363508 31.142106975693324 7.2603428819169231 0 -0.83867057594974714 -0.54463902268945019 0.5 0 0 1 I I -0.70710678118654746 0.70710678118654746 0.5 forward I I I I #
loop $-1 $-1 $261 $57 #
coedge $-1 $166 $166 $262 $263 reversed $95 $-1 #
coedge $-1 $167 $167 $-1 $264 forward $97 $-1 #
edge $-1 $265 0 $265 6.2831853071796004 $98 $266 forward 7 unknown #
loop $-1 $267 $100 $256 #
vertex $-1 $101 $268 #
ellipse-curve $-1 -19.574277800473588 32.501085019619836 8.142873514236264 0 -0.83867057594974714 -0.54463902268945019 1 0 0 1 I I #
face $-1 $-1 $117 $15 $-1 $269 reversed single #
loop $-1 $-1 $188 $102 #
plane-surface $-1 0 33.814454539006775 0 0 -1 0 0 0 -1 forward_v I I I I #
coedge $-1 $270 $186 $189 $271 forward $103 $-1 #
coedge $-1 $192 $105 $106 $180 reversed $63 $-1 #
coedge $-1 $186 $270 $105 $178 reversed $103 $-1 #
edge $-1 $193 -10.165285286752901 $272 10.165285286752901 $177 $273 forward 7 unknown #
coedge $-1 $107 $106 $270 $274 forward $41 $-1 #
edge $-1 $184 -49.060335093234045 $272 49.060335093234045 $176 $275 forward 7 unknown #
coedge $-1 $189 $188 $107 $182 reversed $173 $-1 #
edge $-1 $276 -49.060335093234045 $183 49.060335093234045 $181 $277 forward 7 unknown #
vertex $-1 $109 $278 #
vertex $-1 $195 $279 #
straight-curve $-1 49.060335093234045 0 -10.165285286752901 0 -1 0 I I #
coedge $-1 $175 $177 $110 $187 reversed $103 $-1 #
edge $-1 $190 -33.814454539006775 $193 33.814454539006775 $186 $280 forward 7 unknown #
coedge $-1 $181 $111 $116 $196 forward $173 $-1 #
coedge $-1 $111 $181 $175 $271 reversed $173 $-1 #
vertex $-1 $112 $281 #
straight-curve $-1 0 33.814454539006775 10.165285286752901 -1 0 0 I I #
coedge $-1 $113 $176 $115 $195 reversed $63 $-1 #
vertex $-1 $187 $282 #
straight-curve $-1 0 -33.814454539006775 10.165285286752901 1 0 0 I I #
edge $-1 $118 -10.165285286752901 $184 10.165285286752901 $115 $283 forward 7 unknown #
edge $-1 $119 -10.165285286752901 $183 10.165285286752901 $116 $284 forward 7 unknown #
point $-1 49.060335093234045 -33.814454539006775 10.165285286752901 #
point $-1 49.060335093234045 33.814454539006775 10.165285286752901 #
face $-1 $285 $135 $16 $-1 $286 reversed single #
loop $-1 $-1 $287 $121 #
plane-surface $-1 0 0 -10.165285286752901 0 0 1 1 0 0 forward_v I I I I #
coedge $-1 $288 $289 $290 $291 forward $122 $-1 #
coedge $-1 $292 $124 $293 $294 reversed $71 $-1 #
coedge $-1 $124 $292 $289 $295 reversed $71 $-1 #
coedge $-1 $126 $125 $124 $206 reversed $45 $-1 #
edge $-1 $296 -10.165285286752901 $297 10.165285286752901 $124 $298 forward 7 unknown #
coedge $-1 $129 $293 $125 $208 forward $200 $-1 #
edge $-1 $297 -6.5526582391152388 $212 6.5526582391152388 $125 $299 forward 7 unknown #
coedge $-1 $289 $131 $126 $210 forward $122 $-1 #
edge $-1 $211 -6.5526582391152388 $296 6.5526582391152388 $126 $300 forward 7 unknown #
vertex $-1 $210 $301 #
vertex $-1 $128 $302 #
straight-curve $-1 -46.024616759392316 -46.919771017237252 0 0 0 -1 I I #
coedge $-1 $303 $129 $134 $220 forward $200 $-1 #
straight-curve $-1 -47.54247592631318 -46.919771017237252 -10.165285286752901 -1 0 0 I I #
coedge $-1 $131 $288 $133 $219 forward $122 $-1 #
straight-curve $-1 -47.54247592631318 -46.919771017237252 10.165285286752901 1 0 0 I I #
coedge $-1 $134 $133 $304 $305 forward $135 $-1 #
edge $-1 $306 -33.814454539006775 $136 46.919771017237252 $133 $307 forward 7 unknown #
edge $-1 $137 -46.919771017237252 $308 33.814454539006775 $134 $309 forward 7 unknown #
point $-1 -49.060335093234045 -46.919771017237252 10.165285286752901 #
point $-1 -49.060335093234045 -46.919771017237252 -10.165285286752901 #
face $-1 $310 $311 $17 $-1 $312 reversed single #
loop $-1 $-1 $313 $139 #
plane-surface $-1 -47.54247592631318 -46.919771017237252 0 0 1 0 0 0 1 forward_v I I I I #
coedge $-1 $145 $314 $142 $229 forward $140 $-1 #
coedge $-1 $228 $142 $315 $316 reversed $79 $-1 #
coedge $-1 $142 $227 $143 $231 forward $79 $-1 #
edge $-1 $317 5.8215607465253143 $232 8.4482997852992128 $226 $318 forward 7 unknown #
coedge $-1 $144 $143 $236 $319 reversed $49 $-1 #
edge $-1 $320 -67.628909078013521 $232 -62.806010002947339 $228 $321 forward 7 unknown #
vertex $-1 $146 $322 #
straight-curve $-1 -12.212713232459274 31.187715500232883 10.165285286752898 -1 0 0 I I #
vertex $-1 $319 $323 #
straight-curve $-1 -35.744773348623454 -3.0188884067961936 62.838837869030328 0 0.54463902268945019 -0.83867057594974714 I I #
coedge $-1 $315 $148 $230 $319 forward $238 $-1 #
coedge $-1 $148 $324 $150 $241 reversed $238 $-1 #
loop $-1 $-1 $315 $325 #
straight-curve $-1 -35.744773348623454 33.814454539006775 58.139591892511092 0 0 -1 I I #
coedge $-1 $326 $150 $327 $328 forward $140 $-1 #
edge $-1 $152 35.744773348623454 $329 49.060335093234045 $237 $330 forward 7 unknown #
point $-1 -35.744773348623454 31.187715500232876 10.165285286752905 #
point $-1 -35.744773348623454 33.814454539006775 10.165285286752901 #
face $-1 $331 $332 $18 $-1 $333 forward single #
loop $-1 $-1 $334 $154 #
plane-surface $-1 -13.106079581213642 79.272030571064178 116.27918378502218 -1 0 0 0 0.83867057594974714 0.54463902268945019 forward_v I I I I #
loop $-1 $-1 $335 $86 #
coedge $-1 $249 $157 $336 $337 forward $87 $-1 #
coedge $-1 $157 $248 $338 $339 reversed $87 $-1 #
coedge $-1 $340 $341 $157 $251 forward $332 $-1 #
edge $-1 $342 -8.4482997852992128 $343 -5.8215607465253143 $250 $344 forward 7 unknown #
edge $-1 $345 1 $345 0 $158 $-1 forward 7 unknown #
vertex $-1 $159 $346 #
ellipse-curve $-1 -29.276575129363508 31.561442263668198 7.5326623932616483 0 0.83867057594974714 0.54463902268945019 1 0 0 1 I I #
point $-1 -28.276575129363508 32.501085019619829 8.1428735142362605 #
face $-1 $347 $169 $19 $-1 $348 forward single #
loop $-1 $-1 $349 $162 #
plane-surface $-1 -35.744773348623454 79.272030571064178 116.27918378502218 1 0 0 0 -0.83867057594974714 -0.54463902268945019 forward_v I I I I #
loop $-1 $-1 $350 $94 #
coedge $-1 $260 $260 $261 $351 forward $163 $-1 #
coedge $-1 $261 $261 $260 $351 reversed $165 $-1 #
coedge $-1 $262 $262 $166 $263 forward $267 $-1 #
edge $-1 $352 8.9033658465053147e-016 $352 6.2831853071796013 $262 $353 forward 7 unknown #
edge $-1 $354 1 $354 0 $167 $-1 forward 7 unknown #
vertex $-1 $168 $355 #
ellipse-curve $-1 -19.574277800473588 31.561442263668198 7.5326623932616483 0 0.83867057594974714 0.54463902268945019 1 0 0 1 I I #
loop $-1 $356 $262 $256 #
point $-1 -18.574277800473588 32.501085019619829 8.1428735142362605 #
plane-surface $-1 49.060335093234045 0 0 -1 0 0 0 0 1 forward_v I I I I #
coedge $-1 $177 $175 $179 $274 reversed $103 $-1 #
edge $-1 $190 -10.165285286752901 $276 10.165285286752901 $189 $357 forward 7 unknown #
vertex $-1 $274 $358 #
straight-curve $-1 -49.060335093234045 -33.814454539006775 0 0 0 -1 I I #
edge $-1 $272 -33.814454539006775 $276 33.814454539006775 $270 $359 forward 7 unknown #
straight-curve $-1 0 -33.814454539006775 -10.165285286752901 -1 0 0 I I #
vertex $-1 $182 $360 #
straight-curve $-1 0 33.814454539006775 -10.165285286752901 1 0 0 I I #
point $-1 49.060335093234045 33.814454539006775 -10.165285286752901 #
point $-1 49.060335093234045 -33.814454539006775 -10.165285286752901 #
straight-curve $-1 -49.060335093234045 0 10.165285286752901 0 -1 0 I I #
point $-1 -49.060335093234045 33.814454539006775 10.165285286752901 #
point $-1 -49.060335093234045 -33.814454539006775 10.165285286752901 #
straight-curve $-1 49.060335093234045 -33.814454539006775 0 0 0 -1 I I #
straight-curve $-1 49.060335093234045 33.814454539006775 0 0 0 -1 I I #
face $-1 $361 $362 $16 $-1 $363 reversed single #
plane-surface $-1 -49.060335093234045 0 0 1 0 0 0 0 -1 forward_v I I I I #
coedge $-1 $293 $303 $364 $365 forward $200 $-1 #
coedge $-1 $216 $202 $366 $367 forward $122 $-1 #
coedge $-1 $202 $209 $204 $295 forward $122 $-1 #
coedge $-1 $368 $369 $202 $291 reversed $370 $-1 #
edge $-1 $371 -33.814454539006775 $372 33.814454539006775 $290 $373 forward 7 unknown #
coedge $-1 $204 $203 $368 $374 reversed $71 $-1 #
coedge $-1 $207 $287 $203 $294 forward $200 $-1 #
edge $-1 $375 -49.060335093234045 $297 46.024616759392316 $203 $376 forward 7 unknown #
edge $-1 $296 -46.024616759392316 $371 49.060335093234045 $204 $377 forward 7 unknown #
vertex $-1 $295 $378 #
vertex $-1 $208 $379 #
straight-curve $-1 -46.024616759392316 -33.814454539006775 0 0 0 -1 I I #
straight-curve $-1 -46.024616759392316 -40.367112778122014 -10.165285286752901 0 -1 0 I I #
straight-curve $-1 -46.024616759392316 -40.367112778122014 10.165285286752901 0 1 0 I I #
point $-1 -46.024616759392316 -46.919771017237252 10.165285286752901 #
point $-1 -46.024616759392316 -46.919771017237252 -10.165285286752901 #
coedge $-1 $287 $214 $380 $381 forward $200 $-1 #
coedge $-1 $366 $380 $218 $305 reversed $362 $-1 #
edge $-1 $306 -10.165285286752901 $308 10.165285286752901 $304 $382 forward 7 unknown #
vertex $-1 $367 $383 #
straight-curve $-1 -49.060335093234045 0 10.165285286752901 0 -1 0 I I #
vertex $-1 $381 $384 #
straight-curve $-1 -49.060335093234045 0 -10.165285286752901 0 1 0 I I #
face $-1 $385 $386 $17 $-1 $387 reversed single #
loop $-1 $-1 $388 $223 #
plane-surface $-1 -46.024616759392316 -40.367112778122014 0 -1 0 0 0 0 1 forward_v I I I I #
coedge $-1 $389 $390 $391 $392 forward $224 $-1 #
coedge $-1 $226 $393 $394 $395 forward $140 $-1 #
coedge $-1 $394 $236 $227 $316 forward $238 $-1 #
edge $-1 $320 -52.019130150791447 $317 -47.974306605758187 $315 $396 forward 7 unknown #
vertex $-1 $316 $397 #
straight-curve $-1 -13.106079581213642 39.636015285532089 10.165285286752898 0 -1 0 I I #
edge $-1 $234 -23.532060116164182 $320 -0.89336634875436793 $236 $398 forward 7 unknown #
vertex $-1 $319 $399 #
straight-curve $-1 -13.106079581213642 -3.0188884067961936 62.838837869030328 0 -0.54463902268945019 0.83867057594974714 I I #
point $-1 -13.106079581213642 31.187715500232876 10.165285286752905 #
point $-1 -35.744773348623454 33.814454539006775 6.1204617417196445 #
coedge $-1 $237 $400 $401 $402 reversed $238 $-1 #
face $-1 $403 $238 $17 $-1 $404 reversed single #
coedge $-1 $405 $240 $390 $406 forward $140 $-1 #
coedge $-1 $401 $391 $240 $328 reversed $407 $-1 #
edge $-1 $329 -33.814454539006775 $408 46.919771017237252 $327 $409 forward 7 unknown #
vertex $-1 $241 $410 #
straight-curve $-1 0 33.814454539006775 10.165285286752901 -1 0 0 I I #
face $-1 $411 $412 $18 $-1 $413 reversed single #
loop $-1 $-1 $414 $244 #
plane-surface $-1 0 0 10.165285286752901 0 0 1 1 0 0 forward_v I I I I #
coedge $-1 $415 $416 $414 $417 reversed $245 $-1 #
coedge $-1 $418 $336 $341 $419 reversed $247 $-1 #
coedge $-1 $335 $420 $248 $337 reversed $247 $-1 #
edge $-1 $342 62.806010002947339 $421 67.628909078013521 $248 $422 forward 7 unknown #
coedge $-1 $423 $424 $249 $339 forward $425 $-1 #
edge $-1 $343 47.974306605758187 $421 52.019130150791447 $338 $426 forward 7 unknown #
coedge $-1 $427 $250 $424 $428 forward $332 $-1 #
coedge $-1 $250 $414 $335 $419 forward $332 $-1 #
vertex $-1 $419 $429 #
vertex $-1 $428 $430 #
straight-curve $-1 -35.744773348623454 39.636015285532089 10.165285286752898 0 1 0 I I #
vertex $-1 $252 $431 #
point $-1 -28.276575129363508 31.561442263668198 7.5326623932616483 #
face $-1 $432 $433 $19 $-1 $434 forward single #
plane-surface $-1 -24.425426464918548 -3.0188884067961936 62.838837869030328 0 0.83867057594974714 0.54463902268945019 1 0 0 forward_v I I I I #
coedge $-1 $435 $436 $437 $438 reversed $257 $-1 #
coedge $-1 $350 $350 $-1 $439 forward $259 $-1 #
edge $-1 $440 0 $440 6.2831853071796004 $260 $441 forward 7 unknown #
vertex $-1 $263 $442 #
ellipse-curve $-1 -29.276575129363508 32.501085019619836 8.142873514236264 0 -0.83867057594974714 -0.54463902268945019 1 0 0 1 I I #
vertex $-1 $264 $443 #
point $-1 -18.574277800473588 31.561442263668198 7.5326623932616483 #
loop $-1 $-1 $444 $256 #
straight-curve $-1 -49.060335093234045 33.814454539006775 0 0 0 -1 I I #
point $-1 -49.060335093234045 -33.814454539006775 -10.165285286752901 #
straight-curve $-1 -49.060335093234045 0 -10.165285286752901 0 1 0 I I #
point $-1 -49.060335093234045 33.814454539006775 -10.165285286752901 #
face $-1 $-1 $370 $16 $-1 $445 reversed single #
loop $-1 $-1 $446 $285 #
plane-surface $-1 0 33.814454539006775 0 0 -1 0 0 0 -1 forward_v I I I I #
coedge $-1 $369 $368 $287 $365 reversed $370 $-1 #
edge $-1 $447 -33.814454539006775 $375 33.814454539006775 $364 $448 forward 7 unknown #
coedge $-1 $446 $304 $288 $367 reversed $362 $-1 #
edge $-1 $372 -49.060335093234045 $306 49.060335093234045 $366 $449 forward 7 unknown #
coedge $-1 $364 $290 $292 $374 forward $370 $-1 #
coedge $-1 $290 $364 $446 $450 reversed $370 $-1 #
loop $-1 $-1 $368 $361 #
vertex $-1 $291 $451 #
vertex $-1 $291 $452 #
straight-curve $-1 49.060335093234045 0 10.165285286752901 0 1 0 I I #
edge $-1 $371 -10.165285286752901 $375 10.165285286752901 $368 $453 forward 7 unknown #
vertex $-1 $374 $454 #
straight-curve $-1 0 -33.814454539006775 -10.165285286752901 -1 0 0 I I #
straight-curve $-1 0 -33.814454539006775 10.165285286752901 1 0 0 I I #
point $-1 -46.024616759392316 -33.814454539006775 10.165285286752901 #
point $-1 -46.024616759392316 -33.814454539006775 -10.165285286752901 #
coedge $-1 $304 $446 $303 $381 reversed $362 $-1 #
edge $-1 $308 -49.060335093234045 $447 49.060335093234045 $380 $455 forward 7 unknown #
straight-curve $-1 -49.060335093234045 33.814454539006775 0 0 0 -1 I I #
point $-1 -49.060335093234045 33.814454539006775 10.165285286752901 #
point $-1 -49.060335093234045 33.814454539006775 -10.165285286752901 #
face $-1 $456 $457 $17 $-1 $458 reversed single #
loop $-1 $-1 $459 $310 #
plane-surface $-1 0 -33.814454539006775 0 0 1 0 0 0 1 forward_v I I I I #
coedge $-1 $460 $461 $462 $463 forward $311 $-1 #
coedge $-1 $462 $313 $464 $465 reversed $224 $-1 #
coedge $-1 $313 $462 $326 $406 reversed $224 $-1 #
coedge $-1 $327 $466 $313 $392 reversed $407 $-1 #
edge $-1 $408 -10.165285286752901 $467 10.165285286752901 $391 $468 forward 7 unknown #
coedge $-1 $314 $469 $470 $471 forward $140 $-1 #
coedge $-1 $472 $315 $314 $395 reversed $238 $-1 #
edge $-1 $473 -49.060335093234045 $317 13.106079581213642 $394 $330 forward 7 unknown #
straight-curve $-1 -13.106079581213642 33.814454539006775 58.139591892511092 0 0 1 I I #
point $-1 -13.106079581213642 33.814454539006775 10.165285286752901 #
straight-curve $-1 -12.212713232459274 33.814454539006775 6.1204617417196481 1 0 0 I I #
point $-1 -13.106079581213642 33.814454539006775 6.1204617417196445 #
coedge $-1 $324 $472 $474 $475 reversed $238 $-1 #
coedge $-1 $466 $327 $324 $402 forward $407 $-1 #
edge $-1 $329 -10.165285286752901 $476 10.165285286752901 $324 $477 forward 7 unknown #
face $-1 $-1 $478 $17 $-1 $479 reversed single #
plane-surface $-1 0 33.814454539006775 0 0 -1 0 0 0 -1 forward_v I I I I #
coedge $-1 $469 $326 $461 $480 forward $140 $-1 #
edge $-1 $408 -1.5178591669208643 $481 1.5178591669208643 $390 $482 forward 7 unknown #
loop $-1 $-1 $401 $456 #
vertex $-1 $328 $483 #
straight-curve $-1 -49.060335093234045 0 10.165285286752901 0 -1 0 I I #
point $-1 -49.060335093234045 33.814454539006775 10.165285286752901 #
face $-1 $484 $485 $18 $-1 $486 reversed single #
loop $-1 $-1 $487 $331 #
plane-surface $-1 -47.54247592631318 -46.919771017237252 0 0 1 0 0 0 1 forward_v I I I I #
coedge $-1 $341 $488 $334 $417 forward $332 $-1 #
coedge $-1 $416 $334 $489 $490 reversed $245 $-1 #
coedge $-1 $334 $415 $418 $491 forward $245 $-1 #
edge $-1 $492 5.8215607465253143 $493 8.4482997852992128 $414 $494 forward 7 unknown #
coedge $-1 $420 $335 $416 $491 reversed $247 $-1 #
edge $-1 $493 0.89336634875436793 $342 23.532060116164182 $341 $495 forward 7 unknown #
coedge $-1 $336 $418 $423 $496 reversed $247 $-1 #
vertex $-1 $496 $497 #
straight-curve $-1 -35.744773348623454 -3.0188884067961936 62.838837869030328 0 0.54463902268945019 -0.83867057594974714 I I #
coedge $-1 $489 $338 $420 $496 forward $425 $-1 #
coedge $-1 $338 $498 $340 $428 reversed $425 $-1 #
loop $-1 $-1 $489 $499 #
straight-curve $-1 -35.744773348623454 33.814454539006775 58.139591892511092 0 0 -1 I I #
coedge $-1 $500 $340 $501 $502 forward $332 $-1 #
edge $-1 $343 35.744773348623454 $503 49.060335093234045 $424 $504 forward 7 unknown #
point $-1 -35.744773348623454 31.187715500232876 10.165285286752905 #
point $-1 -35.744773348623454 33.814454539006775 10.165285286752901 #
point $-1 -29.276575129363508 30.722771687718449 6.9880233705721979 #
face $-1 $505 $506 $19 $-1 $507 forward single #
loop $-1 $-1 $508 $347 #
plane-surface $-1 -13.106079581213642 79.272030571064178 116.27918378502218 -1 0 0 0 0.83867057594974714 0.54463902268945019 forward_v I I I I #
coedge $-1 $436 $349 $509 $510 forward $257 $-1 #
coedge $-1 $349 $435 $511 $512 reversed $257 $-1 #
coedge $-1 $513 $514 $349 $438 forward $506 $-1 #
edge $-1 $515 -8.4482997852992128 $516 -5.8215607465253143 $437 $517 forward 7 unknown #
edge $-1 $518 1 $518 0 $350 $-1 forward 7 unknown #
vertex $-1 $351 $519 #
ellipse-curve $-1 -29.276575129363508 31.561442263668198 7.5326623932616483 0 0.83867057594974714 0.54463902268945019 1 0 0 1 I I #
point $-1 -28.276575129363508 32.501085019619829 8.1428735142362605 #
point $-1 -19.574277800473588 30.722771687718449 6.9880233705721979 #
coedge $-1 $520 $509 $514 $521 reversed $356 $-1 #
plane-surface $-1 49.060335093234045 0 0 -1 0 0 0 0 1 forward_v I I I I #
coedge $-1 $380 $366 $369 $450 forward $362 $-1 #
vertex $-1 $365 $522 #
straight-curve $-1 49.060335093234045 0 -10.165285286752901 0 -1 0 I I #
straight-curve $-1 0 33.814454539006775 10.165285286752901 -1 0 0 I I #
edge $-1 $372 -10.165285286752901 $447 10.165285286752901 $369 $523 forward 7 unknown #
point $-1 49.060335093234045 -33.814454539006775 10.165285286752901 #
point $-1 49.060335093234045 33.814454539006775 10.165285286752901 #
straight-curve $-1 49.060335093234045 -33.814454539006775 0 0 0 -1 I I #
point $-1 49.060335093234045 -33.814454539006775 -10.165285286752901 #
straight-curve $-1 0 33.814454539006775 -10.165285286752901 1 0 0 I I #
face $-1 $325 $407 $17 $-1 $524 reversed single #
loop $-1 $-1 $525 $385 #
plane-surface $-1 0 0 -10.165285286752901 0 0 1 1 0 0 forward_v I I I I #
coedge $-1 $526 $527 $528 $529 forward $386 $-1 #
coedge $-1 $528 $388 $530 $531 reversed $311 $-1 #
coedge $-1 $388 $528 $405 $480 reversed $311 $-1 #
coedge $-1 $390 $389 $388 $463 reversed $224 $-1 #
edge $-1 $481 -10.165285286752901 $532 10.165285286752901 $388 $533 forward 7 unknown #
coedge $-1 $534 $530 $389 $465 forward $457 $-1 #
edge $-1 $532 -1.5178591669208643 $467 1.5178591669208643 $389 $535 forward 7 unknown #
coedge $-1 $391 $401 $534 $536 reversed $407 $-1 #
vertex $-1 $536 $537 #
straight-curve $-1 -49.060335093234045 -46.919771017237252 0 0 0 -1 I I #
coedge $-1 $393 $405 $527 $538 forward $140 $-1 #
coedge $-1 $539 $540 $393 $471 reversed $478 $-1 #
edge $-1 $541 -33.814454539006775 $473 33.814454539006775 $470 $542 forward 7 unknown #
coedge $-1 $400 $394 $540 $543 forward $238 $-1 #
vertex $-1 $471 $544 #
coedge $-1 $525 $534 $400 $475 forward $457 $-1 #
edge $-1 $476 -49.060335093234045 $545 49.060335093234045 $400 $546 forward 7 unknown #
vertex $-1 $475 $547 #
straight-curve $-1 -49.060335093234045 33.814454539006775 0 0 0 -1 I I #
loop $-1 $-1 $539 $403 #
plane-surface $-1 49.060335093234045 0 0 -1 0 0 0 0 1 forward_v I I I I #
edge $-1 $481 -6.5526582391152388 $548 6.5526582391152388 $461 $549 forward 7 unknown #
vertex $-1 $480 $550 #
straight-curve $-1 -47.54247592631318 -46.919771017237252 10.165285286752901 1 0 0 I I #
point $-1 -49.060335093234045 -46.919771017237252 10.165285286752901 #
face $-1 $551 $552 $18 $-1 $553 reversed single #
loop $-1 $-1 $554 $411 #
plane-surface $-1 -46.024616759392316 -40.367112778122014 0 -1 0 0 0 0 1 forward_v I I I I #
coedge $-1 $555 $556 $557 $558 forward $412 $-1 #
coedge $-1 $414 $559 $560 $561 forward $332 $-1 #
coedge $-1 $560 $423 $415 $490 forward $425 $-1 #
edge $-1 $562 -52.019130150791447 $492 -47.974306605758187 $489 $563 forward 7 unknown #
edge $-1 $562 -67.628909078013521 $493 -62.806010002947339 $416 $564 forward 7 unknown #
vertex $-1 $490 $565 #
vertex $-1 $419 $566 #
straight-curve $-1 -13.106079581213642 39.636015285532089 10.165285286752898 0 -1 0 I I #
straight-curve $-1 -12.212713232459274 31.187715500232883 10.165285286752898 -1 0 0 I I #
edge $-1 $421 -23.532060116164182 $562 -0.89336634875436793 $423 $567 forward 7 unknown #
point $-1 -35.744773348623454 33.814454539006775 6.1204617417196445 #
coedge $-1 $424 $568 $569 $570 reversed $425 $-1 #
face $-1 $571 $425 $18 $-1 $572 reversed single #
coedge $-1 $573 $427 $556 $574 forward $332 $-1 #
coedge $-1 $569 $557 $427 $502 reversed $575 $-1 #
edge $-1 $503 -33.814454539006775 $576 46.919771017237252 $501 $577 forward 7 unknown #
vertex $-1 $428 $578 #
straight-curve $-1 0 33.814454539006775 10.165285286752901 -1 0 0 I I #
face $-1 $579 $580 $19 $-1 $581 reversed single #
loop $-1 $-1 $582 $432 #
plane-surface $-1 0 0 10.165285286752901 0 0 1 1 0 0 forward_v I I I I #
coedge $-1 $583 $584 $582 $585 reversed $433 $-1 #
coedge $-1 $444 $586 $435 $510 reversed $356 $-1 #
edge $-1 $515 62.806010002947339 $587 67.628909078013521 $435 $588 forward 7 unknown #
coedge $-1 $589 $590 $436 $512 forward $591 $-1 #
edge $-1 $516 47.974306605758187 $587 52.019130150791447 $511 $592 forward 7 unknown #
coedge $-1 $593 $437 $590 $594 forward $506 $-1 #
coedge $-1 $437 $582 $444 $521 forward $506 $-1 #
vertex $-1 $521 $595 #
vertex $-1 $594 $596 #
straight-curve $-1 -35.744773348623454 39.636015285532089 10.165285286752898 0 1 0 I I #
vertex $-1 $439 $597 #
point $-1 -28.276575129363508 31.561442263668198 7.5326623932616483 #
coedge $-1 $586 $444 $584 $598 reversed $356 $-1 #
edge $-1 $599 0.89336634875436793 $515 23.532060116164182 $514 $600 forward 7 unknown #
point $-1 49.060335093234045 33.814454539006775 -10.165285286752901 #
straight-curve $-1 49.060335093234045 33.814454539006775 0 0 0 -1 I I #
plane-surface $-1 -49.060335093234045 0 0 1 0 0 0 0 -1 forward_v I I I I #
coedge $-1 $601 $474 $602 $603 forward $457 $-1 #
coedge $-1 $604 $459 $601 $605 reversed $386 $-1 #
coedge $-1 $459 $604 $469 $538 reversed $386 $-1 #
coedge $-1 $461 $460 $459 $529 reversed $311 $-1 #
edge $-1 $548 -10.165285286752901 $606 10.165285286752901 $459 $607 forward 7 unknown #
coedge $-1 $464 $601 $460 $531 forward $457 $-1 #
edge $-1 $606 -6.5526582391152388 $532 6.5526582391152388 $460 $608 forward 7 unknown #
vertex $-1 $463 $609 #
straight-curve $-1 -46.024616759392316 -46.919771017237252 0 0 0 -1 I I #
coedge $-1 $474 $464 $466 $536 forward $457 $-1 #
straight-curve $-1 -47.54247592631318 -46.919771017237252 -10.165285286752901 -1 0 0 I I #
edge $-1 $467 -46.919771017237252 $476 33.814454539006775 $466 $610 forward 7 unknown #
point $-1 -49.060335093234045 -46.919771017237252 -10.165285286752901 #
edge $-1 $548 -46.024616759392316 $541 49.060335093234045 $527 $611 forward 7 unknown #
coedge $-1 $602 $470 $604 $612 forward $478 $-1 #
coedge $-1 $470 $602 $472 $543 reversed $478 $-1 #
vertex $-1 $471 $613 #
straight-curve $-1 49.060335093234045 0 10.165285286752901 0 1 0 I I #
edge $-1 $473 -10.165285286752901 $545 10.165285286752901 $540 $614 forward 7 unknown #
point $-1 49.060335093234045 33.814454539006775 10.165285286752901 #
vertex $-1 $603 $615 #
straight-curve $-1 0 33.814454539006775 -10.165285286752901 1 0 0 I I #
point $-1 -49.060335093234045 33.814454539006775 -10.165285286752901 #
vertex $-1 $538 $616 #
straight-curve $-1 -46.024616759392316 -40.367112778122014 10.165285286752901 0 1 0 I I #
point $-1 -46.024616759392316 -46.919771017237252 10.165285286752901 #
face $-1 $617 $618 $18 $-1 $619 reversed single #
loop $-1 $-1 $620 $484 #
plane-surface $-1 0 -33.814454539006775 0 0 1 0 0 0 1 forward_v I I I I #
coedge $-1 $621 $622 $623 $624 forward $485 $-1 #
coedge $-1 $623 $487 $625 $626 reversed $412 $-1 #
coedge $-1 $487 $623 $500 $574 reversed $412 $-1 #
coedge $-1 $501 $627 $487 $558 reversed $575 $-1 #
edge $-1 $576 -10.165285286752901 $628 10.165285286752901 $557 $629 forward 7 unknown #
coedge $-1 $488 $630 $631 $632 forward $332 $-1 #
coedge $-1 $633 $489 $488 $561 reversed $425 $-1 #
edge $-1 $634 -49.060335093234045 $492 13.106079581213642 $560 $504 forward 7 unknown #
vertex $-1 $496 $635 #
straight-curve $-1 -13.106079581213642 33.814454539006775 58.139591892511092 0 0 1 I I #
straight-curve $-1 -13.106079581213642 -3.0188884067961936 62.838837869030328 0 -0.54463902268945019 0.83867057594974714 I I #
point $-1 -13.106079581213642 33.814454539006775 10.165285286752901 #
point $-1 -13.106079581213642 31.187715500232876 10.165285286752905 #
straight-curve $-1 -12.212713232459274 33.814454539006775 6.1204617417196481 1 0 0 I I #
coedge $-1 $498 $633 $636 $637 reversed $425 $-1 #
coedge $-1 $627 $501 $498 $570 forward $575 $-1 #
edge $-1 $503 -10.165285286752901 $638 10.165285286752901 $498 $639 forward 7 unknown #
face $-1 $-1 $640 $18 $-1 $641 reversed single #
plane-surface $-1 0 33.814454539006775 0 0 -1 0 0 0 -1 forward_v I I I I #
coedge $-1 $630 $500 $622 $642 forward $332 $-1 #
edge $-1 $576 -1.5178591669208643 $643 1.5178591669208643 $556 $644 forward 7 unknown #
loop $-1 $-1 $569 $617 #
vertex $-1 $502 $645 #
straight-curve $-1 -49.060335093234045 0 10.165285286752901 0 -1 0 I I #
point $-1 -49.060335093234045 33.814454539006775 10.165285286752901 #
face $-1 $646 $647 $19 $-1 $648 reversed single #
loop $-1 $-1 $649 $505 #
plane-surface $-1 -47.54247592631318 -46.919771017237252 0 0 1 0 0 0 1 forward_v I I I I #
coedge $-1 $514 $650 $508 $585 forward $506 $-1 #
coedge $-1 $584 $508 $651 $652 reversed $433 $-1 #
coedge $-1 $508 $583 $520 $598 forward $433 $-1 #
edge $-1 $653 5.8215607465253143 $599 8.4482997852992128 $582 $654 forward 7 unknown #
coedge $-1 $509 $520 $589 $655 reversed $356 $-1 #
vertex $-1 $655 $656 #
straight-curve $-1 -35.744773348623454 -3.0188884067961936 62.838837869030328 0 0.54463902268945019 -0.83867057594974714 I I #
coedge $-1 $651 $511 $586 $655 forward $591 $-1 #
coedge $-1 $511 $657 $513 $594 reversed $591 $-1 #
loop $-1 $-1 $651 $658 #
straight-curve $-1 -35.744773348623454 33.814454539006775 58.139591892511092 0 0 -1 I I #
coedge $-1 $659 $513 $660 $661 forward $506 $-1 #
edge $-1 $516 35.744773348623454 $662 49.060335093234045 $590 $663 forward 7 unknown #
point $-1 -35.744773348623454 31.187715500232876 10.165285286752905 #
point $-1 -35.744773348623454 33.814454539006775 10.165285286752901 #
point $-1 -29.276575129363508 30.722771687718449 6.9880233705721979 #
edge $-1 $664 -67.628909078013521 $599 -62.806010002947339 $584 $665 forward 7 unknown #
vertex $-1 $521 $666 #
straight-curve $-1 -12.212713232459274 31.187715500232883 10.165285286752898 -1 0 0 I I #
coedge $-1 $530 $525 $526 $605 forward $457 $-1 #
coedge $-1 $540 $539 $525 $603 reversed $478 $-1 #
edge $-1 $545 -33.814454539006775 $667 33.814454539006775 $602 $668 forward 7 unknown #
coedge $-1 $527 $526 $539 $612 reversed $386 $-1 #
edge $-1 $667 -49.060335093234045 $606 46.024616759392316 $526 $669 forward 7 unknown #
vertex $-1 $531 $670 #
straight-curve $-1 -46.024616759392316 -33.814454539006775 0 0 0 -1 I I #
straight-curve $-1 -46.024616759392316 -40.367112778122014 -10.165285286752901 0 -1 0 I I #
point $-1 -46.024616759392316 -46.919771017237252 -10.165285286752901 #
straight-curve $-1 -49.060335093234045 0 -10.165285286752901 0 1 0 I I #
straight-curve $-1 0 -33.814454539006775 10.165285286752901 1 0 0 I I #
edge $-1 $541 -10.165285286752901 $667 10.165285286752901 $539 $671 forward 7 unknown #
point $-1 49.060335093234045 -33.814454539006775 10.165285286752901 #
straight-curve $-1 49.060335093234045 33.814454539006775 0 0 0 -1 I I #
point $-1 49.060335093234045 33.814454539006775 -10.165285286752901 #
point $-1 -46.024616759392316 -33.814454539006775 10.165285286752901 #
face $-1 $499 $575 $18 $-1 $672 reversed single #
loop $-1 $-1 $673 $551 #
plane-surface $-1 0 0 -10.165285286752901 0 0 1 1 0 0 forward_v I I I I #
coedge $-1 $674 $675 $676 $677 forward $552 $-1 #
coedge $-1 $676 $554 $678 $679 reversed $485 $-1 #
coedge $-1 $554 $676 $573 $642 reversed $485 $-1 #
coedge $-1 $556 $555 $554 $624 reversed $412 $-1 #
edge $-1 $643 -10.165285286752901 $680 10.165285286752901 $554 $681 forward 7 unknown #
coedge $-1 $682 $678 $555 $626 forward $618 $-1 #
edge $-1 $680 -1.5178591669208643 $628 1.5178591669208643 $555 $683 forward 7 unknown #
coedge $-1 $557 $569 $682 $684 reversed $575 $-1 #
vertex $-1 $684 $685 #
straight-curve $-1 -49.060335093234045 -46.919771017237252 0 0 0 -1 I I #
coedge $-1 $559 $573 $675 $686 forward $332 $-1 #
coedge $-1 $687 $688 $559 $632 reversed $640 $-1 #
edge $-1 $689 -33.814454539006775 $634 33.814454539006775 $631 $690 forward 7 unknown #
coedge $-1 $568 $560 $688 $691 forward $425 $-1 #
vertex $-1 $632 $692 #
point $-1 -13.106079581213642 33.814454539006775 6.1204617417196445 #
coedge $-1 $673 $682 $568 $637 forward $618 $-1 #
edge $-1 $638 -49.060335093234045 $693 49.060335093234045 $568 $694 forward 7 unknown #
vertex $-1 $637 $695 #
straight-curve $-1 -49.060335093234045 33.814454539006775 0 0 0 -1 I I #
loop $-1 $-1 $687 $571 #
plane-surface $-1 49.060335093234045 0 0 -1 0 0 0 0 1 forward_v I I I I #
edge $-1 $643 -6.5526582391152388 $696 6.5526582391152388 $622 $697 forward 7 unknown #
vertex $-1 $642 $698 #
straight-curve $-1 -47.54247592631318 -46.919771017237252 10.165285286752901 1 0 0 I I #
point $-1 -49.060335093234045 -46.919771017237252 10.165285286752901 #
face $-1 $699 $700 $19 $-1 $701 reversed single #
loop $-1 $-1 $702 $579 #
plane-surface $-1 -46.024616759392316 -40.367112778122014 0 -1 0 0 0 0 1 forward_v I I I I #
coedge $-1 $703 $704 $705 $706 forward $580 $-1 #
coedge $-1 $582 $707 $708 $709 forward $506 $-1 #
coedge $-1 $708 $589 $583 $652 forward $591 $-1 #
edge $-1 $664 -52.019130150791447 $653 -47.974306605758187 $651 $710 forward 7 unknown #
vertex $-1 $652 $711 #
straight-curve $-1 -13.106079581213642 39.636015285532089 10.165285286752898 0 -1 0 I I #
edge $-1 $587 -23.532060116164182 $664 -0.89336634875436793 $589 $712 forward 7 unknown #
point $-1 -35.744773348623454 33.814454539006775 6.1204617417196445 #
coedge $-1 $590 $713 $714 $715 reversed $591 $-1 #
face $-1 $716 $591 $19 $-1 $717 reversed single #
coedge $-1 $718 $593 $704 $719 forward $506 $-1 #
coedge $-1 $714 $705 $593 $661 reversed $720 $-1 #
edge $-1 $662 -33.814454539006775 $721 46.919771017237252 $660 $722 forward 7 unknown #
vertex $-1 $594 $723 #
straight-curve $-1 0 33.814454539006775 10.165285286752901 -1 0 0 I I #
vertex $-1 $655 $724 #
straight-curve $-1 -13.106079581213642 -3.0188884067961936 62.838837869030328 0 -0.54463902268945019 0.83867057594974714 I I #
point $-1 -13.106079581213642 31.187715500232876 10.165285286752905 #
vertex $-1 $612 $725 #
straight-curve $-1 49.060335093234045 0 -10.165285286752901 0 -1 0 I I #
straight-curve $-1 0 -33.814454539006775 -10.165285286752901 -1 0 0 I I #
point $-1 -46.024616759392316 -33.814454539006775 -10.165285286752901 #
straight-curve $-1 49.060335093234045 -33.814454539006775 0 0 0 -1 I I #
plane-surface $-1 -49.060335093234045 0 0 1 0 0 0 0 -1 forward_v I I I I #
coedge $-1 $726 $636 $727 $728 forward $618 $-1 #
coedge $-1 $729 $620 $726 $730 reversed $552 $-1 #
coedge $-1 $620 $729 $630 $686 reversed $552 $-1 #
coedge $-1 $622 $621 $620 $677 reversed $485 $-1 #
edge $-1 $696 -10.165285286752901 $731 10.165285286752901 $620 $732 forward 7 unknown #
coedge $-1 $625 $726 $621 $679 forward $618 $-1 #
edge $-1 $731 -6.5526582391152388 $680 6.5526582391152388 $621 $733 forward 7 unknown #
vertex $-1 $624 $734 #
straight-curve $-1 -46.024616759392316 -46.919771017237252 0 0 0 -1 I I #
coedge $-1 $636 $625 $627 $684 forward $618 $-1 #
straight-curve $-1 -47.54247592631318 -46.919771017237252 -10.165285286752901 -1 0 0 I I #
edge $-1 $628 -46.919771017237252 $638 33.814454539006775 $627 $735 forward 7 unknown #
point $-1 -49.060335093234045 -46.919771017237252 -10.165285286752901 #
edge $-1 $696 -46.024616759392316 $689 49.060335093234045 $675 $736 forward 7 unknown #
coedge $-1 $727 $631 $729 $737 forward $640 $-1 #
coedge $-1 $631 $727 $633 $691 reversed $640 $-1 #
vertex $-1 $632 $738 #
straight-curve $-1 49.060335093234045 0 10.165285286752901 0 1 0 I I #
edge $-1 $634 -10.165285286752901 $693 10.165285286752901 $688 $739 forward 7 unknown #
point $-1 49.060335093234045 33.814454539006775 10.165285286752901 #
vertex $-1 $728 $740 #
straight-curve $-1 0 33.814454539006775 -10.165285286752901 1 0 0 I I #
point $-1 -49.060335093234045 33.814454539006775 -10.165285286752901 #
vertex $-1 $686 $741 #
straight-curve $-1 -46.024616759392316 -40.367112778122014 10.165285286752901 0 1 0 I I #
point $-1 -46.024616759392316 -46.919771017237252 10.165285286752901 #
face $-1 $742 $743 $19 $-1 $744 reversed single #
loop $-1 $-1 $745 $646 #
plane-surface $-1 0 -33.814454539006775 0 0 1 0 0 0 1 forward_v I I I I #
coedge $-1 $746 $747 $748 $749 forward $647 $-1 #
coedge $-1 $748 $649 $750 $751 reversed $580 $-1 #
coedge $-1 $649 $748 $659 $719 reversed $580 $-1 #
coedge $-1 $660 $752 $649 $706 reversed $720 $-1 #
edge $-1 $721 -10.165285286752901 $753 10.165285286752901 $705 $754 forward 7 unknown #
coedge $-1 $650 $755 $756 $757 forward $506 $-1 #
coedge $-1 $758 $651 $650 $709 reversed $591 $-1 #
edge $-1 $759 -49.060335093234045 $653 13.106079581213642 $708 $663 forward 7 unknown #
straight-curve $-1 -13.106079581213642 33.814454539006775 58.139591892511092 0 0 1 I I #
point $-1 -13.106079581213642 33.814454539006775 10.165285286752901 #
straight-curve $-1 -12.212713232459274 33.814454539006775 6.1204617417196481 1 0 0 I I #
coedge $-1 $657 $758 $760 $761 reversed $591 $-1 #
coedge $-1 $752 $660 $657 $715 forward $720 $-1 #
edge $-1 $662 -10.165285286752901 $762 10.165285286752901 $657 $763 forward 7 unknown #
face $-1 $-1 $764 $19 $-1 $765 reversed single #
plane-surface $-1 0 33.814454539006775 0 0 -1 0 0 0 -1 forward_v I I I I #
coedge $-1 $755 $659 $747 $766 forward $506 $-1 #
edge $-1 $721 -1.5178591669208643 $767 1.5178591669208643 $704 $768 forward 7 unknown #
loop $-1 $-1 $714 $742 #
vertex $-1 $661 $769 #
straight-curve $-1 -49.060335093234045 0 10.165285286752901 0 -1 0 I I #
point $-1 -49.060335093234045 33.814454539006775 10.165285286752901 #
point $-1 -13.106079581213642 33.814454539006775 6.1204617417196445 #
point $-1 49.060335093234045 -33.814454539006775 -10.165285286752901 #
coedge $-1 $678 $673 $674 $730 forward $618 $-1 #
coedge $-1 $688 $687 $673 $728 reversed $640 $-1 #
edge $-1 $693 -33.814454539006775 $770 33.814454539006775 $727 $771 forward 7 unknown #
coedge $-1 $675 $674 $687 $737 reversed $552 $-1 #
edge $-1 $770 -49.060335093234045 $731 46.024616759392316 $674 $772 forward 7 unknown #
vertex $-1 $679 $773 #
straight-curve $-1 -46.024616759392316 -33.814454539006775 0 0 0 -1 I I #
straight-curve $-1 -46.024616759392316 -40.367112778122014 -10.165285286752901 0 -1 0 I I #
point $-1 -46.024616759392316 -46.919771017237252 -10.165285286752901 #
straight-curve $-1 -49.060335093234045 0 -10.165285286752901 0 1 0 I I #
straight-curve $-1 0 -33.814454539006775 10.165285286752901 1 0 0 I I #
edge $-1 $689 -10.165285286752901 $770 10.165285286752901 $687 $774 forward 7 unknown #
point $-1 49.060335093234045 -33.814454539006775 10.165285286752901 #
straight-curve $-1 49.060335093234045 33.814454539006775 0 0 0 -1 I I #
point $-1 49.060335093234045 33.814454539006775 -10.165285286752901 #
point $-1 -46.024616759392316 -33.814454539006775 10.165285286752901 #
face $-1 $658 $720 $19 $-1 $775 reversed single #
loop $-1 $-1 $776 $699 #
plane-surface $-1 0 0 -10.165285286752901 0 0 1 1 0 0 forward_v I I I I #
coedge $-1 $777 $778 $779 $780 forward $700 $-1 #
coedge $-1 $779 $702 $781 $782 reversed $647 $-1 #
coedge $-1 $702 $779 $718 $766 reversed $647 $-1 #
coedge $-1 $704 $703 $702 $749 reversed $580 $-1 #
edge $-1 $767 -10.165285286752901 $783 10.165285286752901 $702 $784 forward 7 unknown #
coedge $-1 $785 $781 $703 $751 forward $743 $-1 #
edge $-1 $783 -1.5178591669208643 $753 1.5178591669208643 $703 $786 forward 7 unknown #
coedge $-1 $705 $714 $785 $787 reversed $720 $-1 #
vertex $-1 $787 $788 #
straight-curve $-1 -49.060335093234045 -46.919771017237252 0 0 0 -1 I I #
coedge $-1 $707 $718 $778 $789 forward $506 $-1 #
coedge $-1 $790 $791 $707 $757 reversed $764 $-1 #
edge $-1 $792 -33.814454539006775 $759 33.814454539006775 $756 $793 forward 7 unknown #
coedge $-1 $713 $708 $791 $794 forward $591 $-1 #
vertex $-1 $757 $795 #
coedge $-1 $776 $785 $713 $761 forward $743 $-1 #
edge $-1 $762 -49.060335093234045 $796 49.060335093234045 $713 $797 forward 7 unknown #
vertex $-1 $761 $798 #
straight-curve $-1 -49.060335093234045 33.814454539006775 0 0 0 -1 I I #
loop $-1 $-1 $790 $716 #
plane-surface $-1 49.060335093234045 0 0 -1 0 0 0 0 1 forward_v I I I I #
edge $-1 $767 -6.5526582391152388 $799 6.5526582391152388 $747 $800 forward 7 unknown #
vertex $-1 $766 $801 #
straight-curve $-1 -47.54247592631318 -46.919771017237252 10.165285286752901 1 0 0 I I #
point $-1 -49.060335093234045 -46.919771017237252 10.165285286752901 #
vertex $-1 $737 $802 #
straight-curve $-1 49.060335093234045 0 -10.165285286752901 0 -1 0 I I #
straight-curve $-1 0 -33.814454539006775 -10.165285286752901 -1 0 0 I I #
point $-1 -46.024616759392316 -33.814454539006775 -10.165285286752901 #
straight-curve $-1 49.060335093234045 -33.814454539006775 0 0 0 -1 I I #
plane-surface $-1 -49.060335093234045 0 0 1 0 0 0 0 -1 forward_v I I I I #
coedge $-1 $803 $760 $804 $805 forward $743 $-1 #
coedge $-1 $806 $745 $803 $807 reversed $700 $-1 #
coedge $-1 $745 $806 $755 $789 reversed $700 $-1 #
coedge $-1 $747 $746 $745 $780 reversed $647 $-1 #
edge $-1 $799 -10.165285286752901 $808 10.165285286752901 $745 $809 forward 7 unknown #
coedge $-1 $750 $803 $746 $782 forward $743 $-1 #
edge $-1 $808 -6.5526582391152388 $783 6.5526582391152388 $746 $810 forward 7 unknown #
vertex $-1 $749 $811 #
straight-curve $-1 -46.024616759392316 -46.919771017237252 0 0 0 -1 I I #
coedge $-1 $760 $750 $752 $787 forward $743 $-1 #
straight-curve $-1 -47.54247592631318 -46.919771017237252 -10.165285286752901 -1 0 0 I I #
edge $-1 $753 -46.919771017237252 $762 33.814454539006775 $752 $812 forward 7 unknown #
point $-1 -49.060335093234045 -46.919771017237252 -10.165285286752901 #
edge $-1 $799 -46.024616759392316 $792 49.060335093234045 $778 $813 forward 7 unknown #
coedge $-1 $804 $756 $806 $814 forward $764 $-1 #
coedge $-1 $756 $804 $758 $794 reversed $764 $-1 #
vertex $-1 $757 $815 #
straight-curve $-1 49.060335093234045 0 10.165285286752901 0 1 0 I I #
edge $-1 $759 -10.165285286752901 $796 10.165285286752901 $791 $816 forward 7 unknown #
point $-1 49.060335093234045 33.814454539006775 10.165285286752901 #
vertex $-1 $805 $817 #
straight-curve $-1 0 33.814454539006775 -10.165285286752901 1 0 0 I I #
point $-1 -49.060335093234045 33.814454539006775 -10.165285286752901 #
vertex $-1 $789 $818 #
straight-curve $-1 -46.024616759392316 -40.367112778122014 10.165285286752901 0 1 0 I I #
point $-1 -46.024616759392316 -46.919771017237252 10.165285286752901 #
point $-1 49.060335093234045 -33.814454539006775 -10.165285286752901 #
coedge $-1 $781 $776 $777 $807 forward $743 $-1 #
coedge $-1 $791 $790 $776 $805 reversed $764 $-1 #
edge $-1 $796 -33.814454539006775 $819 33.814454539006775 $804 $820 forward 7 unknown #
coedge $-1 $778 $777 $790 $814 reversed $700 $-1 #
edge $-1 $819 -49.060335093234045 $808 46.024616759392316 $777 $821 forward 7 unknown #
vertex $-1 $782 $822 #
straight-curve $-1 -46.024616759392316 -33.814454539006775 0 0 0 -1 I I #
straight-curve $-1 -46.024616759392316 -40.367112778122014 -10.165285286752901 0 -1 0 I I #
point $-1 -46.024616759392316 -46.919771017237252 -10.165285286752901 #
straight-curve $-1 -49.060335093234045 0 -10.165285286752901 0 1 0 I I #
straight-curve $-1 0 -33.814454539006775 10.165285286752901 1 0 0 I I #
edge $-1 $792 -10.165285286752901 $819 10.165285286752901 $790 $823 forward 7 unknown #
point $-1 49.060335093234045 -33.814454539006775 10.165285286752901 #
straight-curve $-1 49.060335093234045 33.814454539006775 0 0 0 -1 I I #
point $-1 49.060335093234045 33.814454539006775 -10.165285286752901 #
point $-1 -46.024616759392316 -33.814454539006775 10.165285286752901 #
vertex $-1 $814 $824 #
straight-curve $-1 49.060335093234045 0 -10.165285286752901 0 -1 0 I I #
straight-curve $-1 0 -33.814454539006775 -10.165285286752901 -1 0 0 I I #
point $-1 -46.024616759392316 -33.814454539006775 -10.165285286752901 #
straight-curve $-1 49.060335093234045 -33.814454539006775 0 0 0 -1 I I #
point $-1 49.060335093234045 -33.814454539006775 -10.165285286752901 #
End-of-ACIS-data 