500 0 5 0           
7 Unknown 11 ACIS 5.0 NT 24 Fri Mar 26 14:53:15 1999 
-1 9.9999999999999995e-007 1e-010 
body $-1 $5 $-1 $6 #
body $-1 $7 $-1 $8 #
body $-1 $9 $-1 $10 #
body $-1 $11 $-1 $12 #
body $-1 $13 $-1 $14 #
lump $-1 $-1 $15 $0 #
transform $-1 1 0 0 0 1 0 0 0 1 60.442518387401961 25.207409612451634 5.7816183032435156 1 rotate no_reflect no_shear #
lump $-1 $-1 $16 $1 #
transform $-1 1 0 0 0 1 0 0 0 1 60.442518387401961 25.207409612451634 5.7816183032435156 1 rotate no_reflect no_shear #
lump $-1 $-1 $17 $2 #
transform $-1 1 0 0 0 1 0 0 0 1 60.442518387401961 25.207409612451634 5.7816183032435156 1 rotate no_reflect no_shear #
lump $-1 $-1 $18 $3 #
transform $-1 1 0 0 0 1 0 0 0 1 60.442518387401961 25.207409612451634 5.7816183032435156 1 rotate no_reflect no_shear #
lump $-1 $-1 $19 $4 #
transform $-1 1 0 0 0 1 0 0 0 1 60.442518387401961 25.207409612451634 5.7816183032435156 1 rotate no_reflect no_shear #
shell $-1 $-1 $-1 $20 $-1 $5 #
shell $-1 $-1 $-1 $21 $-1 $7 #
shell $-1 $-1 $-1 $22 $-1 $9 #
shell $-1 $-1 $-1 $23 $-1 $11 #
shell $-1 $-1 $-1 $24 $-1 $13 #
face $-1 $25 $26 $15 $-1 $27 forward single #
face $-1 $28 $29 $16 $-1 $30 reversed single #
face $-1 $31 $32 $17 $-1 $33 forward single #
face $-1 $34 $35 $18 $-1 $36 reversed single #
face $-1 $37 $38 $19 $-1 $39 reversed single #
face $-1 $40 $41 $15 $-1 $42 reversed single #
loop $-1 $-1 $43 $20 #
plane-surface $-1 0 0 5.7816183032435156 0 0 1 1 0 0 forward_v I I I I #
face $-1 $44 $45 $16 $-1 $46 forward single #
loop $-1 $-1 $47 $21 #
plane-surface $-1 -58.409279191100289 0 -2.7816183032435156 0 0 1 1 0 0 forward_v I I I I #
face $-1 $48 $49 $17 $-1 $50 forward single #
loop $-1 $-1 $51 $22 #
plane-surface $-1 30.756103510144342 17.369822478458865 169.56022062757754 0 1 0 0.57357644374324357 0 0.81915203911291934 forward_v I I I I #
face $-1 $52 $53 $18 $-1 $54 reversed single #
loop $-1 $55 $56 $23 #
cone-surface $-1 56.081439847096902 19.609133088171085 1.9347961494856369 -0.57357644374324357 0 -0.81915203911291934 0.81915203911291934 0 -0.57357644374324357 1 I I 0 1 1 forward I I I I #
face $-1 $57 $58 $19 $-1 $59 reversed single #
loop $-1 $60 $61 $24 #
cone-surface $-1 56.081439847096902 22.968099002739415 1.9347961494856369 -0.57357644374324357 0 -0.81915203911291934 0.81915203911291934 0 -0.57357644374324357 1 I I 0 1 1 forward I I I I #
face $-1 $62 $63 $15 $-1 $64 reversed single #
loop $-1 $-1 $65 $25 #
plane-surface $-1 0 0 -5.7816183032435156 0 0 1 1 0 0 forward_v I I I I #
coedge $-1 $66 $67 $68 $69 forward $26 $-1 #
face $-1 $70 $71 $16 $-1 $72 reversed single #
loop $-1 $-1 $73 $28 #
plane-surface $-1 -56.376039994798617 0 -4.2816183032435156 -1 0 0 0 0 1 forward_v I I I I #
coedge $-1 $74 $75 $76 $77 reversed $29 $-1 #
face $-1 $78 $79 $17 $-1 $80 reversed single #
loop $-1 $-1 $81 $31 #
plane-surface $-1 -38.580705984918907 21.28861604545525 70.536996255256668 0.57357644374324357 0 0.81915203911291934 0.81915203911291934 0 -0.57357644374324357 forward_v I I I I #
coedge $-1 $82 $83 $84 $85 reversed $32 $-1 #
face $-1 $86 $87 $18 $-1 $88 forward single #
loop $-1 $89 $90 $34 #
cone-surface $-1 54.70505418520203 19.609133088171085 -0.030886252303641726 -0.57357644374324357 0 -0.81915203911291934 0.40957601955645967 0 -0.28678822187162178 1 I I -0.70710678118654735 0.70710678118654768 0.5 forward I I I I #
loop $-1 $-1 $91 $23 #
coedge $-1 $56 $56 $92 $93 reversed $35 $-1 #
face $-1 $94 $95 $19 $-1 $96 reversed single #
loop $-1 $97 $98 $37 #
cone-surface $-1 54.70505418520203 22.968099002739415 -0.030886252303641726 -0.57357644374324357 0 -0.81915203911291934 0.40957601955645967 0 -0.28678822187162178 1 I I -0.70710678118654735 0.70710678118654768 0.5 forward I I I I #
loop $-1 $-1 $99 $24 #
coedge $-1 $61 $61 $100 $101 reversed $38 $-1 #
face $-1 $102 $103 $15 $-1 $104 reversed single #
loop $-1 $-1 $105 $40 #
plane-surface $-1 0 -25.207409612451634 0 0 1 0 0 0 1 forward_v I I I I #
coedge $-1 $106 $107 $108 $109 forward $41 $-1 #
coedge $-1 $110 $43 $111 $112 forward $26 $-1 #
coedge $-1 $43 $110 $113 $114 forward $26 $-1 #
coedge $-1 $115 $116 $43 $69 reversed $117 $-1 #
edge $-1 $118 -25.207409612451634 $119 25.207409612451634 $68 $120 forward 7 unknown #
face $-1 $121 $122 $16 $-1 $123 reversed single #
loop $-1 $-1 $124 $44 #
plane-surface $-1 -60.442518387401961 0 0 1 0 0 0 0 -1 forward_v I I I I #
coedge $-1 $76 $125 $126 $127 reversed $45 $-1 #
coedge $-1 $128 $47 $129 $130 reversed $29 $-1 #
coedge $-1 $47 $128 $131 $132 reversed $29 $-1 #
coedge $-1 $133 $73 $47 $77 forward $45 $-1 #
edge $-1 $134 -25.207409612451634 $135 25.207409612451634 $76 $136 forward 7 unknown #
face $-1 $137 $138 $17 $-1 $139 forward single #
loop $-1 $-1 $140 $48 #
plane-surface $-1 60.442518387401961 0 0 -1 0 0 0 0 1 forward_v I I I I #
coedge $-1 $141 $142 $140 $143 reversed $49 $-1 #
coedge $-1 $83 $51 $142 $144 forward $32 $-1 #
coedge $-1 $51 $82 $145 $146 reversed $32 $-1 #
coedge $-1 $147 $140 $51 $85 forward $79 $-1 #
edge $-1 $148 -83.57992355359535 $149 -78.998492010545249 $84 $150 forward 7 unknown #
face $-1 $151 $152 $18 $-1 $153 forward single #
loop $-1 $-1 $154 $52 #
plane-surface $-1 30.756103510144342 17.369822478458865 169.56022062757754 0 1 0 0.57357644374324357 0 0.81915203911291934 forward_v I I I I #
loop $-1 $-1 $155 $34 #
coedge $-1 $90 $90 $91 $156 forward $53 $-1 #
coedge $-1 $91 $91 $90 $156 reversed $55 $-1 #
coedge $-1 $92 $92 $56 $93 forward $152 $-1 #
edge $-1 $157 0 $157 6.2831853071796004 $92 $158 forward 7 unknown #
face $-1 $159 $160 $19 $-1 $161 reversed single #
loop $-1 $162 $163 $57 #
cone-surface $-1 56.081439847096902 19.609133088171085 1.9347961494856369 -0.57357644374324357 0 -0.81915203911291934 0.81915203911291934 0 -0.57357644374324357 1 I I 0 1 1 forward I I I I #
loop $-1 $-1 $164 $37 #
coedge $-1 $98 $98 $99 $165 forward $58 $-1 #
coedge $-1 $99 $99 $98 $165 reversed $60 $-1 #
coedge $-1 $100 $100 $61 $101 forward $166 $-1 #
edge $-1 $167 0 $167 6.2831853071796004 $100 $168 forward 7 unknown #
face $-1 $169 $170 $15 $-1 $171 reversed single #
loop $-1 $-1 $172 $62 #
plane-surface $-1 -60.442518387401961 0 0 1 0 0 0 0 -1 forward_v I I I I #
coedge $-1 $173 $113 $174 $175 forward $63 $-1 #
coedge $-1 $176 $65 $173 $177 forward $41 $-1 #
coedge $-1 $65 $176 $178 $179 forward $41 $-1 #
coedge $-1 $116 $115 $65 $109 reversed $117 $-1 #
edge $-1 $180 -25.207409612451634 $181 25.207409612451634 $108 $182 forward 7 unknown #
coedge $-1 $67 $66 $183 $184 forward $26 $-1 #
coedge $-1 $185 $186 $66 $112 reversed $170 $-1 #
edge $-1 $119 -60.442518387401961 $187 60.442518387401961 $111 $188 forward 7 unknown #
coedge $-1 $105 $189 $67 $114 reversed $63 $-1 #
edge $-1 $190 -60.442518387401961 $118 60.442518387401961 $113 $191 forward 7 unknown #
coedge $-1 $108 $68 $189 $192 forward $117 $-1 #
coedge $-1 $68 $108 $185 $193 reversed $117 $-1 #
loop $-1 $-1 $115 $169 #
vertex $-1 $69 $194 #
vertex $-1 $69 $195 #
straight-curve $-1 60.442518387401961 0 5.7816183032435156 0 1 0 I I #
face $-1 $196 $197 $16 $-1 $198 forward single #
loop $-1 $-1 $129 $70 #
plane-surface $-1 0 -25.207409612451634 0 0 1 0 0 0 1 forward_v I I I I #
coedge $-1 $199 $200 $128 $201 forward $71 $-1 #
coedge $-1 $73 $133 $202 $203 reversed $45 $-1 #
coedge $-1 $204 $129 $73 $127 forward $122 $-1 #
edge $-1 $134 0.64080915162175778 $205 3.6408091516217578 $126 $206 forward 7 unknown #
coedge $-1 $75 $74 $124 $201 reversed $29 $-1 #
coedge $-1 $126 $207 $74 $130 forward $122 $-1 #
edge $-1 $208 -31.237878791851816 $134 -27.171400399248473 $129 $209 forward 7 unknown #
coedge $-1 $210 $211 $75 $132 forward $212 $-1 #
edge $-1 $135 27.171400399248473 $213 31.237878791851816 $131 $214 forward 7 unknown #
coedge $-1 $125 $76 $211 $215 reversed $45 $-1 #
vertex $-1 $130 $216 #
vertex $-1 $132 $217 #
straight-curve $-1 -56.376039994798617 0 -2.7816183032435156 0 1 0 I I #
face $-1 $218 $219 $17 $-1 $220 reversed single #
loop $-1 $-1 $145 $78 #
plane-surface $-1 0 0 5.7816183032435156 0 0 1 1 0 0 forward_v I I I I #
coedge $-1 $84 $221 $81 $143 forward $79 $-1 #
coedge $-1 $222 $81 $223 $224 reversed $49 $-1 #
coedge $-1 $81 $222 $82 $144 reversed $49 $-1 #
edge $-1 $225 -14.56310158972401 $148 -6.7255144557312398 $140 $226 forward 7 unknown #
edge $-1 $148 -120.88503677480392 $227 -112.89755473465769 $82 $228 forward 7 unknown #
coedge $-1 $229 $230 $83 $146 forward $138 $-1 #
edge $-1 $149 -45.06446663232979 $227 -38.521504431766182 $145 $231 forward 7 unknown #
coedge $-1 $232 $84 $230 $233 reversed $79 $-1 #
vertex $-1 $143 $234 #
vertex $-1 $146 $235 #
straight-curve $-1 60.442518387401961 17.369822478458865 84.780110313788768 0 0 1 I I #
face $-1 $236 $237 $18 $-1 $238 reversed single #
loop $-1 $239 $92 $86 #
plane-surface $-1 -38.580705984918907 21.28861604545525 70.536996255256668 0.57357644374324357 0 0.81915203911291934 0.81915203911291934 0 -0.57357644374324357 forward_v I I I I #
coedge $-1 $240 $241 $242 $243 reversed $87 $-1 #
coedge $-1 $155 $155 $-1 $244 forward $89 $-1 #
edge $-1 $245 0 $245 6.2831853071796004 $90 $246 forward 7 unknown #
vertex $-1 $93 $247 #
ellipse-curve $-1 57.171037287120164 19.609133088171085 3.4909025317184699 -0.57357644374324357 0 -0.81915203911291934 0.81915203911291934 0 -0.57357644374324357 1 I I #
face $-1 $248 $249 $19 $-1 $250 forward single #
loop $-1 $251 $252 $94 #
cone-surface $-1 54.70505418520203 19.609133088171085 -0.030886252303641726 -0.57357644374324357 0 -0.81915203911291934 0.40957601955645967 0 -0.28678822187162178 1 I I -0.70710678118654735 0.70710678118654768 0.5 forward I I I I #
loop $-1 $-1 $253 $57 #
coedge $-1 $163 $163 $254 $255 reversed $95 $-1 #
coedge $-1 $164 $164 $-1 $256 forward $97 $-1 #
edge $-1 $257 0 $257 6.2831853071796004 $98 $258 forward 7 unknown #
loop $-1 $259 $100 $248 #
vertex $-1 $101 $260 #
ellipse-curve $-1 57.171037287120164 22.968099002739415 3.4909025317184699 -0.57357644374324357 0 -0.81915203911291934 0.81915203911291934 0 -0.57357644374324357 1 I I #
face $-1 $-1 $117 $15 $-1 $261 reversed single #
loop $-1 $-1 $185 $102 #
plane-surface $-1 0 25.207409612451634 0 0 -1 0 0 0 -1 forward_v I I I I #
coedge $-1 $262 $183 $186 $263 forward $103 $-1 #
coedge $-1 $189 $105 $106 $177 reversed $63 $-1 #
coedge $-1 $183 $262 $105 $175 reversed $103 $-1 #
edge $-1 $190 -5.7816183032435156 $264 5.7816183032435156 $174 $265 forward 7 unknown #
coedge $-1 $107 $106 $262 $266 forward $41 $-1 #
edge $-1 $181 -60.442518387401961 $264 60.442518387401961 $173 $267 forward 7 unknown #
coedge $-1 $186 $185 $107 $179 reversed $170 $-1 #
edge $-1 $268 -60.442518387401961 $180 60.442518387401961 $178 $269 forward 7 unknown #
vertex $-1 $109 $270 #
vertex $-1 $192 $271 #
straight-curve $-1 60.442518387401961 0 -5.7816183032435156 0 -1 0 I I #
coedge $-1 $172 $174 $110 $184 reversed $103 $-1 #
edge $-1 $187 -25.207409612451634 $190 25.207409612451634 $183 $272 forward 7 unknown #
coedge $-1 $178 $111 $116 $193 forward $170 $-1 #
coedge $-1 $111 $178 $172 $263 reversed $170 $-1 #
vertex $-1 $112 $273 #
straight-curve $-1 0 25.207409612451634 5.7816183032435156 -1 0 0 I I #
coedge $-1 $113 $173 $115 $192 reversed $63 $-1 #
vertex $-1 $184 $274 #
straight-curve $-1 0 -25.207409612451634 5.7816183032435156 1 0 0 I I #
edge $-1 $118 -5.7816183032435156 $181 5.7816183032435156 $115 $275 forward 7 unknown #
edge $-1 $119 -5.7816183032435156 $180 5.7816183032435156 $116 $276 forward 7 unknown #
point $-1 60.442518387401961 -25.207409612451634 5.7816183032435156 #
point $-1 60.442518387401961 25.207409612451634 5.7816183032435156 #
face $-1 $277 $278 $16 $-1 $279 reversed single #
loop $-1 $-1 $280 $121 #
plane-surface $-1 0 0 5.7816183032435156 0 0 1 1 0 0 forward_v I I I I #
coedge $-1 $281 $124 $207 $282 reversed $71 $-1 #
coedge $-1 $124 $281 $210 $283 forward $71 $-1 #
edge $-1 $213 -25.207409612451634 $208 25.207409612451634 $124 $284 forward 7 unknown #
coedge $-1 $285 $286 $125 $203 forward $278 $-1 #
edge $-1 $205 -25.207409612451634 $287 25.207409612451634 $202 $288 forward 7 unknown #
coedge $-1 $289 $126 $286 $290 reversed $122 $-1 #
vertex $-1 $127 $291 #
straight-curve $-1 -56.376039994798617 -25.207409612451634 -2.1408091516217578 0 0 -1 I I #
coedge $-1 $129 $292 $199 $282 forward $122 $-1 #
vertex $-1 $130 $293 #
straight-curve $-1 -29.204639595550145 -25.207409612451634 -2.7816183032435156 1 0 0 I I #
coedge $-1 $294 $131 $200 $283 reversed $212 $-1 #
coedge $-1 $131 $295 $133 $215 forward $212 $-1 #
loop $-1 $-1 $131 $277 #
vertex $-1 $201 $296 #
straight-curve $-1 -29.204639595550145 25.207409612451634 -2.7816183032435156 -1 0 0 I I #
edge $-1 $287 -3.6408091516217578 $135 -0.64080915162175778 $211 $297 forward 7 unknown #
point $-1 -56.376039994798617 -25.207409612451634 -2.7816183032435156 #
point $-1 -56.376039994798617 25.207409612451634 -2.7816183032435156 #
face $-1 $298 $299 $17 $-1 $300 forward single #
loop $-1 $-1 $301 $137 #
plane-surface $-1 -58.409279191100289 0 -2.7816183032435156 0 0 1 1 0 0 forward_v I I I I #
coedge $-1 $140 $302 $303 $304 reversed $79 $-1 #
coedge $-1 $142 $141 $229 $305 reversed $49 $-1 #
coedge $-1 $303 $306 $141 $224 forward $307 $-1 #
edge $-1 $308 76.866643013466216 $225 84.854125053612449 $223 $309 forward 7 unknown #
vertex $-1 $304 $310 #
straight-curve $-1 60.442518387401975 10.644308022727625 1.2001867601934109 0 -1 0 I I #
vertex $-1 $305 $311 #
straight-curve $-1 -38.580705984918907 17.369822478458865 70.536996255256668 -0.81915203911291934 0 0.57357644374324357 I I #
coedge $-1 $312 $145 $222 $305 forward $138 $-1 #
coedge $-1 $145 $313 $147 $233 forward $138 $-1 #
straight-curve $-1 15.378051755072171 17.369822478458865 5.7816183032435191 -1 0 0 I I #
coedge $-1 $302 $147 $314 $315 forward $79 $-1 #
edge $-1 $316 -25.207409612451634 $149 17.369822478458865 $147 $317 forward 7 unknown #
point $-1 60.442518387401961 17.369822478458865 1.200186760193418 #
point $-1 60.442518387401961 17.369822478458865 5.7816183032435156 #
face $-1 $318 $319 $18 $-1 $320 forward single #
loop $-1 $-1 $321 $151 #
plane-surface $-1 60.442518387401961 0 0 -1 0 0 0 0 1 forward_v I I I I #
loop $-1 $-1 $322 $86 #
coedge $-1 $241 $154 $323 $324 forward $87 $-1 #
coedge $-1 $154 $240 $325 $326 reversed $87 $-1 #
coedge $-1 $327 $321 $154 $243 forward $237 $-1 #
edge $-1 $328 -83.57992355359535 $329 -78.998492010545249 $242 $330 forward 7 unknown #
edge $-1 $331 1 $331 0 $155 $-1 forward 7 unknown #
vertex $-1 $156 $332 #
ellipse-curve $-1 54.991842407073655 19.609133088171085 0.37868976725281811 0.57357644374324357 0 0.81915203911291934 0.81915203911291934 0 -0.57357644374324357 1 I I #
point $-1 57.990189326233079 19.609133088171085 2.9173260879752125 #
face $-1 $333 $166 $19 $-1 $334 forward single #
loop $-1 $-1 $335 $159 #
plane-surface $-1 30.756103510144342 17.369822478458865 169.56022062757754 0 1 0 0.57357644374324357 0 0.81915203911291934 forward_v I I I I #
loop $-1 $-1 $336 $94 #
coedge $-1 $252 $252 $253 $337 forward $160 $-1 #
coedge $-1 $253 $253 $252 $337 reversed $162 $-1 #
coedge $-1 $254 $254 $163 $255 forward $259 $-1 #
edge $-1 $338 0 $338 6.2831853071796004 $254 $339 forward 7 unknown #
edge $-1 $340 1 $340 0 $164 $-1 forward 7 unknown #
vertex $-1 $165 $341 #
ellipse-curve $-1 54.991842407073655 22.968099002739415 0.37868976725281811 0.57357644374324357 0 0.81915203911291934 0.81915203911291934 0 -0.57357644374324357 1 I I #
loop $-1 $342 $254 $248 #
point $-1 57.990189326233079 22.968099002739415 2.9173260879752125 #
plane-surface $-1 60.442518387401961 0 0 -1 0 0 0 0 1 forward_v I I I I #
coedge $-1 $174 $172 $176 $266 reversed $103 $-1 #
edge $-1 $187 -5.7816183032435156 $268 5.7816183032435156 $186 $343 forward 7 unknown #
vertex $-1 $266 $344 #
straight-curve $-1 -60.442518387401961 -25.207409612451634 0 0 0 -1 I I #
edge $-1 $264 -25.207409612451634 $268 25.207409612451634 $262 $345 forward 7 unknown #
straight-curve $-1 0 -25.207409612451634 -5.7816183032435156 -1 0 0 I I #
vertex $-1 $179 $346 #
straight-curve $-1 0 25.207409612451634 -5.7816183032435156 1 0 0 I I #
point $-1 60.442518387401961 25.207409612451634 -5.7816183032435156 #
point $-1 60.442518387401961 -25.207409612451634 -5.7816183032435156 #
straight-curve $-1 -60.442518387401961 0 5.7816183032435156 0 -1 0 I I #
point $-1 -60.442518387401961 25.207409612451634 5.7816183032435156 #
point $-1 -60.442518387401961 -25.207409612451634 5.7816183032435156 #
straight-curve $-1 60.442518387401961 -25.207409612451634 0 0 0 -1 I I #
straight-curve $-1 60.442518387401961 25.207409612451634 0 0 0 -1 I I #
face $-1 $347 $212 $16 $-1 $348 reversed single #
loop $-1 $-1 $202 $196 #
plane-surface $-1 0 0 -5.7816183032435156 0 0 1 1 0 0 forward_v I I I I #
coedge $-1 $349 $350 $351 $352 forward $197 $-1 #
coedge $-1 $200 $199 $353 $354 reversed $71 $-1 #
edge $-1 $355 -5.7816183032435156 $208 2.7816183032435156 $199 $356 forward 7 unknown #
edge $-1 $357 -5.7816183032435156 $213 2.7816183032435156 $210 $358 forward 7 unknown #
straight-curve $-1 -60.442518387401961 0 -2.7816183032435156 0 -1 0 I I #
coedge $-1 $359 $202 $295 $360 forward $278 $-1 #
coedge $-1 $202 $359 $204 $290 forward $278 $-1 #
vertex $-1 $360 $361 #
straight-curve $-1 -56.376039994798617 0 -5.7816183032435156 0 1 0 I I #
coedge $-1 $292 $204 $362 $363 reversed $122 $-1 #
edge $-1 $364 -60.442518387401961 $205 56.376039994798617 $204 $365 forward 7 unknown #
point $-1 -56.376039994798617 -25.207409612451634 -5.7816183032435156 #
coedge $-1 $207 $289 $350 $366 reversed $122 $-1 #
point $-1 -60.442518387401961 -25.207409612451634 -2.7816183032435156 #
coedge $-1 $367 $210 $349 $368 reversed $212 $-1 #
coedge $-1 $211 $367 $285 $360 reversed $212 $-1 #
point $-1 -60.442518387401961 25.207409612451634 -2.7816183032435156 #
straight-curve $-1 -56.376039994798617 25.207409612451634 -2.1408091516217578 0 0 1 I I #
face $-1 $369 $370 $17 $-1 $371 reversed single #
loop $-1 $-1 $372 $218 #
plane-surface $-1 -56.376039994798617 0 -4.2816183032435156 -1 0 0 0 0 1 forward_v I I I I #
coedge $-1 $373 $374 $375 $376 reversed $219 $-1 #
coedge $-1 $221 $232 $377 $378 reversed $79 $-1 #
coedge $-1 $379 $223 $221 $304 forward $307 $-1 #
edge $-1 $225 -1.2001867601934166 $380 5.7816183032435156 $221 $381 forward 7 unknown #
edge $-1 $227 6.7255144557312398 $308 14.56310158972401 $229 $382 forward 7 unknown #
coedge $-1 $223 $383 $312 $384 reversed $307 $-1 #
loop $-1 $-1 $223 $385 #
vertex $-1 $384 $386 #
straight-curve $-1 -9.065911177407326 25.207409612451634 49.870514045388916 0.81915203911291934 0 -0.57357644374324357 I I #
point $-1 60.442518387401961 25.207409612451634 1.2001867601934166 #
point $-1 53.899556186838353 17.369822478458865 5.7816183032435191 #
coedge $-1 $387 $229 $306 $384 forward $138 $-1 #
coedge $-1 $230 $387 $388 $389 forward $138 $-1 #
coedge $-1 $388 $390 $232 $315 reversed $391 $-1 #
edge $-1 $316 -5.7816183032435156 $392 5.7816183032435156 $232 $393 forward 7 unknown #
vertex $-1 $233 $394 #
straight-curve $-1 60.442518387401961 0 5.7816183032435156 0 1 0 I I #
face $-1 $395 $396 $18 $-1 $397 reversed single #
loop $-1 $-1 $325 $236 #
plane-surface $-1 0 0 5.7816183032435156 0 0 1 1 0 0 forward_v I I I I #
coedge $-1 $242 $398 $322 $399 forward $237 $-1 #
coedge $-1 $400 $323 $321 $399 reversed $239 $-1 #
coedge $-1 $322 $401 $240 $324 reversed $239 $-1 #
edge $-1 $328 -120.88503677480392 $402 -112.89755473465769 $240 $403 forward 7 unknown #
coedge $-1 $404 $405 $241 $326 forward $319 $-1 #
edge $-1 $329 -45.06446663232979 $402 -38.521504431766182 $325 $406 forward 7 unknown #
coedge $-1 $407 $242 $405 $408 reversed $237 $-1 #
vertex $-1 $399 $409 #
vertex $-1 $326 $410 #
straight-curve $-1 60.442518387401961 17.369822478458865 84.780110313788768 0 0 1 I I #
vertex $-1 $244 $411 #
point $-1 55.810994446186569 19.609133088171085 -0.19488667649042546 #
face $-1 $412 $413 $19 $-1 $414 reversed single #
plane-surface $-1 -38.580705984918907 21.28861604545525 70.536996255256668 0.57357644374324357 0 0.81915203911291934 0.81915203911291934 0 -0.57357644374324357 forward_v I I I I #
coedge $-1 $415 $416 $417 $418 reversed $249 $-1 #
coedge $-1 $336 $336 $-1 $419 forward $251 $-1 #
edge $-1 $420 0 $420 6.2831853071796004 $252 $421 forward 7 unknown #
vertex $-1 $255 $422 #
ellipse-curve $-1 57.171037287120164 19.609133088171085 3.4909025317184699 -0.57357644374324357 0 -0.81915203911291934 0.81915203911291934 0 -0.57357644374324357 1 I I #
vertex $-1 $256 $423 #
point $-1 55.810994446186569 22.968099002739415 -0.19488667649042546 #
loop $-1 $-1 $424 $248 #
straight-curve $-1 -60.442518387401961 25.207409612451634 0 0 0 -1 I I #
point $-1 -60.442518387401961 -25.207409612451634 -5.7816183032435156 #
straight-curve $-1 -60.442518387401961 0 -5.7816183032435156 0 1 0 I I #
point $-1 -60.442518387401961 25.207409612451634 -5.7816183032435156 #
face $-1 $-1 $425 $16 $-1 $426 reversed single #
plane-surface $-1 0 25.207409612451634 0 0 -1 0 0 0 -1 forward_v I I I I #
coedge $-1 $353 $280 $294 $368 forward $197 $-1 #
coedge $-1 $280 $353 $292 $366 forward $197 $-1 #
coedge $-1 $362 $427 $280 $352 reversed $425 $-1 #
edge $-1 $428 -25.207409612451634 $429 25.207409612451634 $351 $430 forward 7 unknown #
coedge $-1 $350 $349 $281 $354 forward $197 $-1 #
edge $-1 $357 -25.207409612451634 $355 25.207409612451634 $281 $431 forward 7 unknown #
vertex $-1 $354 $432 #
straight-curve $-1 -60.442518387401961 -25.207409612451634 0 0 0 -1 I I #
vertex $-1 $368 $433 #
straight-curve $-1 -60.442518387401961 25.207409612451634 0 0 0 -1 I I #
coedge $-1 $286 $285 $434 $435 forward $278 $-1 #
edge $-1 $287 -56.376039994798617 $436 60.442518387401961 $295 $437 forward 7 unknown #
point $-1 -56.376039994798617 25.207409612451634 -5.7816183032435156 #
coedge $-1 $434 $351 $289 $363 forward $425 $-1 #
edge $-1 $428 -5.7816183032435156 $364 5.7816183032435156 $362 $438 forward 7 unknown #
vertex $-1 $363 $439 #
straight-curve $-1 0 -25.207409612451634 -5.7816183032435156 -1 0 0 I I #
edge $-1 $355 -60.442518387401961 $428 60.442518387401961 $292 $440 forward 7 unknown #
coedge $-1 $295 $294 $427 $441 forward $212 $-1 #
edge $-1 $429 -60.442518387401961 $357 60.442518387401961 $294 $442 forward 7 unknown #
face $-1 $443 $391 $17 $-1 $444 reversed single #
loop $-1 $-1 $445 $298 #
plane-surface $-1 -60.442518387401961 0 0 1 0 0 0 0 -1 forward_v I I I I #
coedge $-1 $375 $446 $447 $448 reversed $299 $-1 #
coedge $-1 $449 $301 $450 $451 reversed $219 $-1 #
coedge $-1 $301 $449 $452 $453 reversed $219 $-1 #
coedge $-1 $454 $372 $301 $376 forward $299 $-1 #
edge $-1 $455 -25.207409612451634 $456 25.207409612451634 $375 $457 forward 7 unknown #
coedge $-1 $458 $459 $302 $378 forward $460 $-1 #
edge $-1 $380 -25.207409612451634 $392 25.207409612451634 $302 $461 forward 7 unknown #
coedge $-1 $462 $303 $459 $463 reversed $307 $-1 #
vertex $-1 $378 $464 #
straight-curve $-1 60.442518387401961 25.207409612451634 0 0 0 -1 I I #
straight-curve $-1 53.899556186838346 10.644308022727625 5.7816183032435262 0 1 0 I I #
coedge $-1 $306 $452 $465 $466 reversed $307 $-1 #
edge $-1 $308 -53.899556186838353 $467 60.442518387401961 $306 $468 forward 7 unknown #
face $-1 $-1 $307 $17 $-1 $469 reversed single #
point $-1 53.899556186838353 25.207409612451634 5.7816183032435191 #
coedge $-1 $313 $312 $470 $471 forward $138 $-1 #
coedge $-1 $472 $314 $313 $389 reversed $391 $-1 #
edge $-1 $473 -60.442518387401961 $316 60.442518387401961 $388 $474 forward 7 unknown #
coedge $-1 $314 $447 $458 $475 reversed $391 $-1 #
loop $-1 $-1 $450 $369 #
vertex $-1 $315 $476 #
straight-curve $-1 60.442518387401961 -25.207409612451634 0 0 0 -1 I I #
point $-1 60.442518387401961 -25.207409612451634 5.7816183032435156 #
face $-1 $477 $478 $18 $-1 $479 forward single #
loop $-1 $-1 $480 $318 #
plane-surface $-1 -58.409279191100289 0 -2.7816183032435156 0 0 1 1 0 0 forward_v I I I I #
coedge $-1 $321 $481 $482 $483 reversed $237 $-1 #
edge $-1 $484 -14.56310158972401 $328 -6.7255144557312398 $321 $485 forward 7 unknown #
coedge $-1 $401 $322 $486 $487 reversed $239 $-1 #
coedge $-1 $323 $400 $404 $488 reversed $239 $-1 #
vertex $-1 $488 $489 #
straight-curve $-1 -38.580705984918907 17.369822478458865 70.536996255256668 -0.81915203911291934 0 0.57357644374324357 I I #
coedge $-1 $490 $325 $401 $488 forward $319 $-1 #
coedge $-1 $325 $491 $327 $408 forward $319 $-1 #
straight-curve $-1 15.378051755072171 17.369822478458865 5.7816183032435191 -1 0 0 I I #
coedge $-1 $481 $327 $492 $493 forward $237 $-1 #
edge $-1 $494 -25.207409612451634 $329 17.369822478458865 $327 $495 forward 7 unknown #
point $-1 60.442518387401961 17.369822478458865 1.200186760193418 #
point $-1 60.442518387401961 17.369822478458865 5.7816183032435156 #
point $-1 54.418265963330406 19.609133088171085 -0.44046227186010156 #
face $-1 $496 $497 $19 $-1 $498 forward single #
loop $-1 $-1 $499 $333 #
plane-surface $-1 60.442518387401961 0 0 -1 0 0 0 0 1 forward_v I I I I #
coedge $-1 $416 $335 $500 $501 forward $249 $-1 #
coedge $-1 $335 $415 $502 $503 reversed $249 $-1 #
coedge $-1 $504 $499 $335 $418 forward $413 $-1 #
edge $-1 $505 -83.57992355359535 $506 -78.998492010545249 $417 $507 forward 7 unknown #
edge $-1 $508 1 $508 0 $336 $-1 forward 7 unknown #
vertex $-1 $337 $509 #
ellipse-curve $-1 54.991842407073655 19.609133088171085 0.37868976725281811 0.57357644374324357 0 0.81915203911291934 0.81915203911291934 0 -0.57357644374324357 1 I I #
point $-1 57.990189326233079 19.609133088171085 2.9173260879752125 #
point $-1 54.418265963330406 22.968099002739415 -0.44046227186010156 #
coedge $-1 $510 $500 $499 $511 reversed $342 $-1 #
loop $-1 $-1 $362 $347 #
plane-surface $-1 60.442518387401961 0 0 -1 0 0 0 0 1 forward_v I I I I #
coedge $-1 $351 $434 $367 $441 reversed $425 $-1 #
vertex $-1 $352 $512 #
vertex $-1 $352 $513 #
straight-curve $-1 60.442518387401961 0 5.7816183032435156 0 1 0 I I #
straight-curve $-1 -60.442518387401961 0 5.7816183032435156 0 -1 0 I I #
point $-1 -60.442518387401961 -25.207409612451634 5.7816183032435156 #
point $-1 -60.442518387401961 25.207409612451634 5.7816183032435156 #
coedge $-1 $427 $362 $359 $435 reversed $425 $-1 #
edge $-1 $436 -25.207409612451634 $364 25.207409612451634 $434 $514 forward 7 unknown #
vertex $-1 $435 $515 #
straight-curve $-1 0 25.207409612451634 -5.7816183032435156 1 0 0 I I #
straight-curve $-1 60.442518387401961 -25.207409612451634 0 0 0 -1 I I #
point $-1 60.442518387401961 -25.207409612451634 -5.7816183032435156 #
straight-curve $-1 0 -25.207409612451634 5.7816183032435156 1 0 0 I I #
edge $-1 $429 -5.7816183032435156 $436 5.7816183032435156 $427 $516 forward 7 unknown #
straight-curve $-1 0 25.207409612451634 5.7816183032435156 -1 0 0 I I #
face $-1 $385 $460 $17 $-1 $517 reversed single #
plane-surface $-1 0 -25.207409612451634 0 0 1 0 0 0 1 forward_v I I I I #
coedge $-1 $518 $465 $449 $519 forward $370 $-1 #
coedge $-1 $372 $454 $520 $521 reversed $299 $-1 #
coedge $-1 $390 $450 $372 $448 forward $391 $-1 #
edge $-1 $455 0.64080915162175778 $522 3.6408091516217578 $447 $523 forward 7 unknown #
coedge $-1 $374 $373 $445 $519 reversed $219 $-1 #
coedge $-1 $447 $472 $373 $451 forward $391 $-1 #
edge $-1 $524 -31.237878791851816 $455 -27.171400399248473 $450 $525 forward 7 unknown #
coedge $-1 $383 $462 $374 $453 forward $307 $-1 #
edge $-1 $456 27.171400399248473 $526 31.237878791851816 $452 $527 forward 7 unknown #
coedge $-1 $446 $375 $462 $528 reversed $299 $-1 #
vertex $-1 $451 $529 #
vertex $-1 $453 $530 #
straight-curve $-1 -56.376039994798617 0 -2.7816183032435156 0 1 0 I I #
coedge $-1 $520 $377 $390 $475 forward $460 $-1 #
coedge $-1 $377 $520 $379 $463 forward $460 $-1 #
loop $-1 $-1 $520 $443 #
straight-curve $-1 60.442518387401961 0 -5.7816183032435156 0 -1 0 I I #
coedge $-1 $452 $379 $454 $528 forward $307 $-1 #
edge $-1 $531 -56.376039994798617 $380 60.442518387401961 $379 $532 forward 7 unknown #
point $-1 60.442518387401961 25.207409612451634 -5.7816183032435156 #
coedge $-1 $445 $470 $383 $466 forward $370 $-1 #
edge $-1 $467 -5.7816183032435156 $526 2.7816183032435156 $383 $533 forward 7 unknown #
vertex $-1 $384 $534 #
straight-curve $-1 0 25.207409612451634 5.7816183032435156 -1 0 0 I I #
plane-surface $-1 0 25.207409612451634 0 0 -1 0 0 0 -1 forward_v I I I I #
coedge $-1 $465 $518 $387 $471 reversed $370 $-1 #
edge $-1 $467 -25.207409612451634 $473 25.207409612451634 $470 $535 forward 7 unknown #
coedge $-1 $450 $388 $518 $536 forward $391 $-1 #
vertex $-1 $471 $537 #
straight-curve $-1 0 -25.207409612451634 5.7816183032435156 1 0 0 I I #
edge $-1 $392 -60.442518387401961 $522 56.376039994798617 $390 $538 forward 7 unknown #
point $-1 60.442518387401961 -25.207409612451634 -5.7816183032435156 #
face $-1 $539 $540 $18 $-1 $541 reversed single #
loop $-1 $-1 $542 $395 #
plane-surface $-1 -56.376039994798617 0 -4.2816183032435156 -1 0 0 0 0 1 forward_v I I I I #
coedge $-1 $543 $544 $545 $546 reversed $396 $-1 #
coedge $-1 $398 $407 $547 $548 reversed $237 $-1 #
coedge $-1 $549 $486 $398 $483 forward $550 $-1 #
edge $-1 $484 -1.2001867601934166 $551 5.7816183032435156 $398 $552 forward 7 unknown #
vertex $-1 $483 $553 #
straight-curve $-1 60.442518387401975 10.644308022727625 1.2001867601934109 0 -1 0 I I #
coedge $-1 $482 $554 $400 $487 forward $550 $-1 #
edge $-1 $555 76.866643013466216 $484 84.854125053612449 $486 $556 forward 7 unknown #
edge $-1 $402 6.7255144557312398 $555 14.56310158972401 $404 $557 forward 7 unknown #
point $-1 53.899556186838353 17.369822478458865 5.7816183032435191 #
coedge $-1 $558 $404 $554 $559 forward $319 $-1 #
coedge $-1 $405 $558 $560 $561 forward $319 $-1 #
coedge $-1 $560 $562 $407 $493 reversed $563 $-1 #
edge $-1 $494 -5.7816183032435156 $564 5.7816183032435156 $407 $565 forward 7 unknown #
vertex $-1 $408 $566 #
straight-curve $-1 60.442518387401961 0 5.7816183032435156 0 1 0 I I #
face $-1 $567 $568 $19 $-1 $569 reversed single #
loop $-1 $-1 $502 $412 #
plane-surface $-1 0 0 5.7816183032435156 0 0 1 1 0 0 forward_v I I I I #
coedge $-1 $417 $570 $424 $511 forward $413 $-1 #
coedge $-1 $424 $571 $415 $501 reversed $342 $-1 #
edge $-1 $505 -120.88503677480392 $572 -112.89755473465769 $415 $573 forward 7 unknown #
coedge $-1 $574 $575 $416 $503 forward $497 $-1 #
edge $-1 $506 -45.06446663232979 $572 -38.521504431766182 $502 $576 forward 7 unknown #
coedge $-1 $577 $417 $575 $578 reversed $413 $-1 #
vertex $-1 $511 $579 #
vertex $-1 $503 $580 #
straight-curve $-1 60.442518387401961 17.369822478458865 84.780110313788768 0 0 1 I I #
vertex $-1 $419 $581 #
point $-1 55.810994446186569 19.609133088171085 -0.19488667649042546 #
coedge $-1 $571 $424 $582 $583 reversed $342 $-1 #
edge $-1 $584 -14.56310158972401 $505 -6.7255144557312398 $499 $585 forward 7 unknown #
point $-1 60.442518387401961 -25.207409612451634 5.7816183032435156 #
point $-1 60.442518387401961 25.207409612451634 5.7816183032435156 #
straight-curve $-1 60.442518387401961 0 -5.7816183032435156 0 -1 0 I I #
point $-1 60.442518387401961 25.207409612451634 -5.7816183032435156 #
straight-curve $-1 60.442518387401961 25.207409612451634 0 0 0 -1 I I #
plane-surface $-1 0 0 -5.7816183032435156 0 0 1 1 0 0 forward_v I I I I #
coedge $-1 $470 $445 $472 $536 reversed $370 $-1 #
edge $-1 $526 -25.207409612451634 $524 25.207409612451634 $445 $586 forward 7 unknown #
coedge $-1 $459 $458 $446 $521 forward $460 $-1 #
edge $-1 $522 -25.207409612451634 $531 25.207409612451634 $520 $587 forward 7 unknown #
vertex $-1 $448 $588 #
straight-curve $-1 -56.376039994798617 -25.207409612451634 -2.1408091516217578 0 0 -1 I I #
vertex $-1 $451 $589 #
straight-curve $-1 -29.204639595550145 -25.207409612451634 -2.7816183032435156 1 0 0 I I #
vertex $-1 $519 $590 #
straight-curve $-1 -29.204639595550145 25.207409612451634 -2.7816183032435156 -1 0 0 I I #
edge $-1 $531 -3.6408091516217578 $456 -0.64080915162175778 $462 $591 forward 7 unknown #
point $-1 -56.376039994798617 -25.207409612451634 -2.7816183032435156 #
point $-1 -56.376039994798617 25.207409612451634 -2.7816183032435156 #
vertex $-1 $463 $592 #
straight-curve $-1 0 25.207409612451634 -5.7816183032435156 1 0 0 I I #
straight-curve $-1 -60.442518387401961 25.207409612451634 0 0 0 -1 I I #
point $-1 -60.442518387401961 25.207409612451634 5.7816183032435156 #
straight-curve $-1 -60.442518387401961 0 5.7816183032435156 0 -1 0 I I #
edge $-1 $473 -5.7816183032435156 $524 2.7816183032435156 $518 $593 forward 7 unknown #
point $-1 -60.442518387401961 -25.207409612451634 5.7816183032435156 #
straight-curve $-1 0 -25.207409612451634 -5.7816183032435156 -1 0 0 I I #
face $-1 $594 $563 $18 $-1 $595 reversed single #
loop $-1 $-1 $596 $477 #
plane-surface $-1 -60.442518387401961 0 0 1 0 0 0 0 -1 forward_v I I I I #
coedge $-1 $545 $597 $598 $599 reversed $478 $-1 #
coedge $-1 $600 $480 $601 $602 reversed $396 $-1 #
coedge $-1 $480 $600 $603 $604 reversed $396 $-1 #
coedge $-1 $605 $542 $480 $546 forward $478 $-1 #
edge $-1 $606 -25.207409612451634 $607 25.207409612451634 $545 $608 forward 7 unknown #
coedge $-1 $609 $610 $481 $548 forward $611 $-1 #
edge $-1 $551 -25.207409612451634 $564 25.207409612451634 $481 $612 forward 7 unknown #
coedge $-1 $613 $482 $610 $614 reversed $550 $-1 #
loop $-1 $-1 $486 $615 #
vertex $-1 $548 $616 #
straight-curve $-1 60.442518387401961 25.207409612451634 0 0 0 -1 I I #
point $-1 60.442518387401961 25.207409612451634 1.2001867601934166 #
coedge $-1 $486 $617 $490 $559 reversed $550 $-1 #
vertex $-1 $559 $618 #
straight-curve $-1 -9.065911177407326 25.207409612451634 49.870514045388916 0.81915203911291934 0 -0.57357644374324357 I I #
straight-curve $-1 53.899556186838346 10.644308022727625 5.7816183032435262 0 1 0 I I #
coedge $-1 $491 $490 $619 $620 forward $319 $-1 #
edge $-1 $555 -53.899556186838353 $621 60.442518387401961 $554 $622 forward 7 unknown #
coedge $-1 $623 $492 $491 $561 reversed $563 $-1 #
edge $-1 $624 -60.442518387401961 $494 60.442518387401961 $560 $625 forward 7 unknown #
coedge $-1 $492 $598 $609 $626 reversed $563 $-1 #
loop $-1 $-1 $601 $539 #
vertex $-1 $493 $627 #
straight-curve $-1 60.442518387401961 -25.207409612451634 0 0 0 -1 I I #
point $-1 60.442518387401961 -25.207409612451634 5.7816183032435156 #
face $-1 $628 $629 $19 $-1 $630 forward single #
loop $-1 $-1 $631 $496 #
plane-surface $-1 -58.409279191100289 0 -2.7816183032435156 0 0 1 1 0 0 forward_v I I I I #
coedge $-1 $499 $632 $633 $634 reversed $413 $-1 #
coedge $-1 $500 $510 $574 $635 reversed $342 $-1 #
vertex $-1 $635 $636 #
straight-curve $-1 -38.580705984918907 17.369822478458865 70.536996255256668 -0.81915203911291934 0 0.57357644374324357 I I #
coedge $-1 $637 $502 $571 $635 forward $497 $-1 #
coedge $-1 $502 $638 $504 $578 forward $497 $-1 #
straight-curve $-1 15.378051755072171 17.369822478458865 5.7816183032435191 -1 0 0 I I #
coedge $-1 $632 $504 $639 $640 forward $413 $-1 #
edge $-1 $641 -25.207409612451634 $506 17.369822478458865 $504 $642 forward 7 unknown #
point $-1 60.442518387401961 17.369822478458865 1.200186760193418 #
point $-1 60.442518387401961 17.369822478458865 5.7816183032435156 #
point $-1 54.418265963330406 19.609133088171085 -0.44046227186010156 #
coedge $-1 $633 $643 $510 $583 forward $644 $-1 #
edge $-1 $645 76.866643013466216 $584 84.854125053612449 $582 $646 forward 7 unknown #
vertex $-1 $634 $647 #
straight-curve $-1 60.442518387401975 10.644308022727625 1.2001867601934109 0 -1 0 I I #
straight-curve $-1 -60.442518387401961 0 -2.7816183032435156 0 -1 0 I I #
straight-curve $-1 -56.376039994798617 0 -5.7816183032435156 0 1 0 I I #
point $-1 -56.376039994798617 -25.207409612451634 -5.7816183032435156 #
point $-1 -60.442518387401961 -25.207409612451634 -2.7816183032435156 #
point $-1 -60.442518387401961 25.207409612451634 -2.7816183032435156 #
straight-curve $-1 -56.376039994798617 25.207409612451634 -2.1408091516217578 0 0 1 I I #
point $-1 -56.376039994798617 25.207409612451634 -5.7816183032435156 #
straight-curve $-1 -60.442518387401961 -25.207409612451634 0 0 0 -1 I I #
face $-1 $615 $611 $18 $-1 $648 reversed single #
plane-surface $-1 0 -25.207409612451634 0 0 1 0 0 0 1 forward_v I I I I #
coedge $-1 $649 $650 $600 $651 forward $540 $-1 #
coedge $-1 $542 $605 $652 $653 reversed $478 $-1 #
coedge $-1 $562 $601 $542 $599 forward $563 $-1 #
edge $-1 $606 0.64080915162175778 $654 3.6408091516217578 $598 $655 forward 7 unknown #
coedge $-1 $544 $543 $596 $651 reversed $396 $-1 #
coedge $-1 $598 $623 $543 $602 forward $563 $-1 #
edge $-1 $656 -31.237878791851816 $606 -27.171400399248473 $601 $657 forward 7 unknown #
coedge $-1 $617 $613 $544 $604 forward $550 $-1 #
edge $-1 $607 27.171400399248473 $658 31.237878791851816 $603 $659 forward 7 unknown #
coedge $-1 $597 $545 $613 $660 reversed $478 $-1 #
vertex $-1 $602 $661 #
vertex $-1 $604 $662 #
straight-curve $-1 -56.376039994798617 0 -2.7816183032435156 0 1 0 I I #
coedge $-1 $652 $547 $562 $626 forward $611 $-1 #
coedge $-1 $547 $652 $549 $614 forward $611 $-1 #
loop $-1 $-1 $652 $594 #
straight-curve $-1 60.442518387401961 0 -5.7816183032435156 0 -1 0 I I #
coedge $-1 $603 $549 $605 $660 forward $550 $-1 #
edge $-1 $663 -56.376039994798617 $551 60.442518387401961 $549 $664 forward 7 unknown #
face $-1 $-1 $550 $18 $-1 $665 reversed single #
point $-1 60.442518387401961 25.207409612451634 -5.7816183032435156 #
coedge $-1 $554 $603 $650 $666 reversed $550 $-1 #
point $-1 53.899556186838353 25.207409612451634 5.7816183032435191 #
coedge $-1 $650 $649 $558 $620 reversed $540 $-1 #
edge $-1 $621 -25.207409612451634 $624 25.207409612451634 $619 $667 forward 7 unknown #
vertex $-1 $559 $668 #
straight-curve $-1 0 25.207409612451634 5.7816183032435156 -1 0 0 I I #
coedge $-1 $601 $560 $649 $669 forward $563 $-1 #
vertex $-1 $620 $670 #
straight-curve $-1 0 -25.207409612451634 5.7816183032435156 1 0 0 I I #
edge $-1 $564 -60.442518387401961 $654 56.376039994798617 $562 $671 forward 7 unknown #
point $-1 60.442518387401961 -25.207409612451634 -5.7816183032435156 #
face $-1 $672 $673 $19 $-1 $674 reversed single #
loop $-1 $-1 $675 $567 #
plane-surface $-1 -56.376039994798617 0 -4.2816183032435156 -1 0 0 0 0 1 forward_v I I I I #
coedge $-1 $676 $677 $678 $679 reversed $568 $-1 #
coedge $-1 $570 $577 $680 $681 reversed $413 $-1 #
coedge $-1 $682 $582 $570 $634 forward $644 $-1 #
edge $-1 $584 -1.2001867601934166 $683 5.7816183032435156 $570 $684 forward 7 unknown #
edge $-1 $572 6.7255144557312398 $645 14.56310158972401 $574 $685 forward 7 unknown #
point $-1 53.899556186838353 17.369822478458865 5.7816183032435191 #
coedge $-1 $686 $574 $643 $687 forward $497 $-1 #
coedge $-1 $575 $686 $688 $689 forward $497 $-1 #
coedge $-1 $688 $690 $577 $640 reversed $691 $-1 #
edge $-1 $641 -5.7816183032435156 $692 5.7816183032435156 $577 $693 forward 7 unknown #
vertex $-1 $578 $694 #
straight-curve $-1 60.442518387401961 0 5.7816183032435156 0 1 0 I I #
coedge $-1 $582 $695 $637 $687 reversed $644 $-1 #
loop $-1 $-1 $582 $696 #
vertex $-1 $687 $697 #
straight-curve $-1 -9.065911177407326 25.207409612451634 49.870514045388916 0.81915203911291934 0 -0.57357644374324357 I I #
point $-1 60.442518387401961 25.207409612451634 1.2001867601934166 #
plane-surface $-1 0 0 -5.7816183032435156 0 0 1 1 0 0 forward_v I I I I #
coedge $-1 $619 $596 $623 $669 reversed $540 $-1 #
coedge $-1 $596 $619 $617 $666 forward $540 $-1 #
edge $-1 $658 -25.207409612451634 $656 25.207409612451634 $596 $698 forward 7 unknown #
coedge $-1 $610 $609 $597 $653 forward $611 $-1 #
edge $-1 $654 -25.207409612451634 $663 25.207409612451634 $652 $699 forward 7 unknown #
vertex $-1 $599 $700 #
straight-curve $-1 -56.376039994798617 -25.207409612451634 -2.1408091516217578 0 0 -1 I I #
vertex $-1 $602 $701 #
straight-curve $-1 -29.204639595550145 -25.207409612451634 -2.7816183032435156 1 0 0 I I #
vertex $-1 $651 $702 #
straight-curve $-1 -29.204639595550145 25.207409612451634 -2.7816183032435156 -1 0 0 I I #
edge $-1 $663 -3.6408091516217578 $607 -0.64080915162175778 $613 $703 forward 7 unknown #
point $-1 -56.376039994798617 -25.207409612451634 -2.7816183032435156 #
point $-1 -56.376039994798617 25.207409612451634 -2.7816183032435156 #
vertex $-1 $614 $704 #
straight-curve $-1 0 25.207409612451634 -5.7816183032435156 1 0 0 I I #
plane-surface $-1 0 25.207409612451634 0 0 -1 0 0 0 -1 forward_v I I I I #
edge $-1 $621 -5.7816183032435156 $658 2.7816183032435156 $617 $705 forward 7 unknown #
straight-curve $-1 -60.442518387401961 0 5.7816183032435156 0 -1 0 I I #
point $-1 -60.442518387401961 25.207409612451634 5.7816183032435156 #
edge $-1 $624 -5.7816183032435156 $656 2.7816183032435156 $649 $706 forward 7 unknown #
point $-1 -60.442518387401961 -25.207409612451634 5.7816183032435156 #
straight-curve $-1 0 -25.207409612451634 -5.7816183032435156 -1 0 0 I I #
face $-1 $707 $691 $19 $-1 $708 reversed single #
loop $-1 $-1 $709 $628 #
plane-surface $-1 -60.442518387401961 0 0 1 0 0 0 0 -1 forward_v I I I I #
coedge $-1 $678 $710 $711 $712 reversed $629 $-1 #
coedge $-1 $713 $631 $714 $715 reversed $568 $-1 #
coedge $-1 $631 $713 $716 $717 reversed $568 $-1 #
coedge $-1 $718 $675 $631 $679 forward $629 $-1 #
edge $-1 $719 -25.207409612451634 $720 25.207409612451634 $678 $721 forward 7 unknown #
coedge $-1 $722 $723 $632 $681 forward $724 $-1 #
edge $-1 $683 -25.207409612451634 $692 25.207409612451634 $632 $725 forward 7 unknown #
coedge $-1 $726 $633 $723 $727 reversed $644 $-1 #
vertex $-1 $681 $728 #
straight-curve $-1 60.442518387401961 25.207409612451634 0 0 0 -1 I I #
straight-curve $-1 53.899556186838346 10.644308022727625 5.7816183032435262 0 1 0 I I #
coedge $-1 $638 $637 $729 $730 forward $497 $-1 #
edge $-1 $645 -53.899556186838353 $731 60.442518387401961 $643 $732 forward 7 unknown #
coedge $-1 $733 $639 $638 $689 reversed $691 $-1 #
edge $-1 $734 -60.442518387401961 $641 60.442518387401961 $688 $735 forward 7 unknown #
coedge $-1 $639 $711 $722 $736 reversed $691 $-1 #
loop $-1 $-1 $714 $672 #
vertex $-1 $640 $737 #
straight-curve $-1 60.442518387401961 -25.207409612451634 0 0 0 -1 I I #
point $-1 60.442518387401961 -25.207409612451634 5.7816183032435156 #
coedge $-1 $643 $716 $738 $739 reversed $644 $-1 #
face $-1 $-1 $644 $19 $-1 $740 reversed single #
point $-1 53.899556186838353 25.207409612451634 5.7816183032435191 #
straight-curve $-1 -60.442518387401961 0 -2.7816183032435156 0 -1 0 I I #
straight-curve $-1 -56.376039994798617 0 -5.7816183032435156 0 1 0 I I #
point $-1 -56.376039994798617 -25.207409612451634 -5.7816183032435156 #
point $-1 -60.442518387401961 -25.207409612451634 -2.7816183032435156 #
point $-1 -60.442518387401961 25.207409612451634 -2.7816183032435156 #
straight-curve $-1 -56.376039994798617 25.207409612451634 -2.1408091516217578 0 0 1 I I #
point $-1 -56.376039994798617 25.207409612451634 -5.7816183032435156 #
straight-curve $-1 -60.442518387401961 25.207409612451634 0 0 0 -1 I I #
straight-curve $-1 -60.442518387401961 -25.207409612451634 0 0 0 -1 I I #
face $-1 $696 $724 $19 $-1 $741 reversed single #
plane-surface $-1 0 -25.207409612451634 0 0 1 0 0 0 1 forward_v I I I I #
coedge $-1 $742 $738 $713 $743 forward $673 $-1 #
coedge $-1 $675 $718 $744 $745 reversed $629 $-1 #
coedge $-1 $690 $714 $675 $712 forward $691 $-1 #
edge $-1 $719 0.64080915162175778 $746 3.6408091516217578 $711 $747 forward 7 unknown #
coedge $-1 $677 $676 $709 $743 reversed $568 $-1 #
coedge $-1 $711 $733 $676 $715 forward $691 $-1 #
edge $-1 $748 -31.237878791851816 $719 -27.171400399248473 $714 $749 forward 7 unknown #
coedge $-1 $695 $726 $677 $717 forward $644 $-1 #
edge $-1 $720 27.171400399248473 $750 31.237878791851816 $716 $751 forward 7 unknown #
coedge $-1 $710 $678 $726 $752 reversed $629 $-1 #
vertex $-1 $715 $753 #
vertex $-1 $717 $754 #
straight-curve $-1 -56.376039994798617 0 -2.7816183032435156 0 1 0 I I #
coedge $-1 $744 $680 $690 $736 forward $724 $-1 #
coedge $-1 $680 $744 $682 $727 forward $724 $-1 #
loop $-1 $-1 $744 $707 #
straight-curve $-1 60.442518387401961 0 -5.7816183032435156 0 -1 0 I I #
coedge $-1 $716 $682 $718 $752 forward $644 $-1 #
edge $-1 $755 -56.376039994798617 $683 60.442518387401961 $682 $756 forward 7 unknown #
point $-1 60.442518387401961 25.207409612451634 -5.7816183032435156 #
coedge $-1 $738 $742 $686 $730 reversed $673 $-1 #
edge $-1 $731 -25.207409612451634 $734 25.207409612451634 $729 $757 forward 7 unknown #
vertex $-1 $687 $758 #
straight-curve $-1 0 25.207409612451634 5.7816183032435156 -1 0 0 I I #
coedge $-1 $714 $688 $742 $759 forward $691 $-1 #
vertex $-1 $730 $760 #
straight-curve $-1 0 -25.207409612451634 5.7816183032435156 1 0 0 I I #
edge $-1 $692 -60.442518387401961 $746 56.376039994798617 $690 $761 forward 7 unknown #
point $-1 60.442518387401961 -25.207409612451634 -5.7816183032435156 #
coedge $-1 $709 $729 $695 $739 forward $673 $-1 #
edge $-1 $731 -5.7816183032435156 $750 2.7816183032435156 $695 $762 forward 7 unknown #
plane-surface $-1 0 25.207409612451634 0 0 -1 0 0 0 -1 forward_v I I I I #
plane-surface $-1 0 0 -5.7816183032435156 0 0 1 1 0 0 forward_v I I I I #
coedge $-1 $729 $709 $733 $759 reversed $673 $-1 #
edge $-1 $750 -25.207409612451634 $748 25.207409612451634 $709 $763 forward 7 unknown #
coedge $-1 $723 $722 $710 $745 forward $724 $-1 #
edge $-1 $746 -25.207409612451634 $755 25.207409612451634 $744 $764 forward 7 unknown #
vertex $-1 $712 $765 #
straight-curve $-1 -56.376039994798617 -25.207409612451634 -2.1408091516217578 0 0 -1 I I #
vertex $-1 $715 $766 #
straight-curve $-1 -29.204639595550145 -25.207409612451634 -2.7816183032435156 1 0 0 I I #
vertex $-1 $743 $767 #
straight-curve $-1 -29.204639595550145 25.207409612451634 -2.7816183032435156 -1 0 0 I I #
edge $-1 $755 -3.6408091516217578 $720 -0.64080915162175778 $726 $768 forward 7 unknown #
point $-1 -56.376039994798617 -25.207409612451634 -2.7816183032435156 #
point $-1 -56.376039994798617 25.207409612451634 -2.7816183032435156 #
vertex $-1 $727 $769 #
straight-curve $-1 0 25.207409612451634 -5.7816183032435156 1 0 0 I I #
straight-curve $-1 -60.442518387401961 0 5.7816183032435156 0 -1 0 I I #
point $-1 -60.442518387401961 25.207409612451634 5.7816183032435156 #
edge $-1 $734 -5.7816183032435156 $748 2.7816183032435156 $742 $770 forward 7 unknown #
point $-1 -60.442518387401961 -25.207409612451634 5.7816183032435156 #
straight-curve $-1 0 -25.207409612451634 -5.7816183032435156 -1 0 0 I I #
straight-curve $-1 -60.442518387401961 25.207409612451634 0 0 0 -1 I I #
straight-curve $-1 -60.442518387401961 0 -2.7816183032435156 0 -1 0 I I #
straight-curve $-1 -56.376039994798617 0 -5.7816183032435156 0 1 0 I I #
point $-1 -56.376039994798617 -25.207409612451634 -5.7816183032435156 #
point $-1 -60.442518387401961 -25.207409612451634 -2.7816183032435156 #
point $-1 -60.442518387401961 25.207409612451634 -2.7816183032435156 #
straight-curve $-1 -56.376039994798617 25.207409612451634 -2.1408091516217578 0 0 1 I I #
point $-1 -56.376039994798617 25.207409612451634 -5.7816183032435156 #
straight-curve $-1 -60.442518387401961 -25.207409612451634 0 0 0 -1 I I #
End-of-ACIS-data 