500 0 7 0           
7 Unknown 11 ACIS 5.0 NT 24 Fri Mar 26 01:39:57 1999 
-1 9.9999999999999995e-007 1e-010 
body $-1 $7 $-1 $8 #
body $-1 $9 $-1 $10 #
body $-1 $11 $-1 $12 #
body $-1 $13 $-1 $14 #
body $-1 $15 $-1 $16 #
body $-1 $17 $-1 $18 #
body $-1 $19 $-1 $20 #
lump $-1 $-1 $21 $0 #
transform $-1 1 0 0 0 1 0 0 0 1 71.447492904446548 45.913087384944568 11.008660003923323 1 rotate no_reflect no_shear #
lump $-1 $-1 $22 $1 #
transform $-1 1 0 0 0 1 0 0 0 1 71.447492904446548 45.913087384944568 11.008660003923323 1 rotate no_reflect no_shear #
lump $-1 $-1 $23 $2 #
transform $-1 1 0 0 0 1 0 0 0 1 71.447492904446548 45.913087384944568 11.008660003923323 1 rotate no_reflect no_shear #
lump $-1 $-1 $24 $3 #
transform $-1 1 0 0 0 1 0 0 0 1 71.447492904446548 45.913087384944568 11.008660003923323 1 rotate no_reflect no_shear #
lump $-1 $-1 $25 $4 #
transform $-1 1 0 0 0 1 0 0 0 1 71.447492904446548 45.913087384944568 11.008660003923323 1 rotate no_reflect no_shear #
lump $-1 $-1 $26 $5 #
transform $-1 1 0 0 0 1 0 0 0 1 71.447492904446548 45.913087384944568 11.008660003923323 1 rotate no_reflect no_shear #
lump $-1 $-1 $27 $6 #
transform $-1 1 0 0 0 1 0 0 0 1 71.447492904446548 45.913087384944568 11.008660003923323 1 rotate no_reflect no_shear #
shell $-1 $-1 $-1 $28 $-1 $7 #
shell $-1 $-1 $-1 $29 $-1 $9 #
shell $-1 $-1 $-1 $30 $-1 $11 #
shell $-1 $-1 $-1 $31 $-1 $13 #
shell $-1 $-1 $-1 $32 $-1 $15 #
shell $-1 $-1 $-1 $33 $-1 $17 #
shell $-1 $-1 $-1 $34 $-1 $19 #
face $-1 $35 $36 $21 $-1 $37 forward single #
face $-1 $38 $39 $22 $-1 $40 forward single #
face $-1 $41 $42 $23 $-1 $43 reversed single #
face $-1 $44 $45 $24 $-1 $46 forward single #
face $-1 $47 $48 $25 $-1 $49 forward single #
face $-1 $50 $51 $26 $-1 $52 reversed single #
face $-1 $53 $54 $27 $-1 $55 forward single #
face $-1 $56 $57 $21 $-1 $58 reversed single #
loop $-1 $-1 $59 $28 #
plane-surface $-1 0 0 11.008660003923323 0 0 1 1 0 0 forward_v I I I I #
face $-1 $60 $61 $22 $-1 $62 reversed single #
loop $-1 $-1 $63 $29 #
plane-surface $-1 -66.625117254398816 0 -0.59733661341479705 0 0 1 1 0 0 forward_v I I I I #
face $-1 $64 $65 $23 $-1 $66 reversed single #
loop $-1 $-1 $67 $30 #
plane-surface $-1 31.962854336278255 76.209822397250065 173.13851098198415 1 0 0 0 -0.68199836817093118 -0.7313536940579346 forward_v I I I I #
face $-1 $68 $69 $24 $-1 $70 forward single #
loop $-1 $71 $72 $31 #
cone-surface $-1 43.244179641469202 41.729428829439627 6.8973390026218757 0 -0.68199836817093118 -0.7313536940579346 1.5 0 0 1 I I 0 1 1.5 forward I I I I #
face $-1 $73 $74 $25 $-1 $75 forward single #
loop $-1 $76 $77 $32 #
cone-surface $-1 60.166167599255616 41.729428829439627 6.8973390026218757 0 -0.68199836817093118 -0.7313536940579346 1.5 0 0 1 I I 0 1 1.5 forward I I I I #
face $-1 $78 $79 $26 $-1 $80 reversed single #
loop $-1 $-1 $81 $33 #
plane-surface $-1 60.342222269101526 -45.913087384944575 7.6980118864579907 0 -0.74314483375859142 0.66913059716165679 1 0 0 forward_v I I I I #
face $-1 $82 $83 $27 $-1 $84 forward single #
loop $-1 $85 $86 $34 #
cone-surface $-1 60.342222269101555 -43.110210987795888 8.1716313389938051 0 0.74314483375859142 -0.66913059716165679 1 0 0 1 I I 0 1 1 forward I I I I #
face $-1 $87 $88 $21 $-1 $89 reversed single #
loop $-1 $-1 $90 $35 #
plane-surface $-1 0 0 -11.008660003923323 0 0 1 1 0 0 forward_v I I I I #
coedge $-1 $91 $92 $93 $94 forward $36 $-1 #
face $-1 $95 $96 $22 $-1 $97 reversed single #
loop $-1 $-1 $98 $38 #
plane-surface $-1 -66.625117254398816 0 -5.5611278696776694 0 0 1 1 0 0 forward_v I I I I #
coedge $-1 $99 $100 $101 $102 forward $39 $-1 #
face $-1 $103 $104 $23 $-1 $105 forward single #
loop $-1 $-1 $106 $41 #
plane-surface $-1 51.705173620362402 -21.244324744223391 68.631735248294049 0 0.68199836817093118 0.7313536940579346 1 0 0 forward_v I I I I #
coedge $-1 $107 $108 $109 $110 reversed $42 $-1 #
face $-1 $-1 $111 $24 $-1 $112 forward single #
loop $-1 $113 $114 $44 #
cone-surface $-1 43.244179641469202 39.716386815426624 4.7386157828131719 0 -0.68199836817093118 -0.7313536940579346 0.75 0 0 1 I I -0.70710678118654757 0.70710678118654757 0.75 forward I I I I #
loop $-1 $-1 $115 $31 #
coedge $-1 $72 $72 $116 $117 reversed $45 $-1 #
face $-1 $-1 $118 $25 $-1 $119 forward single #
loop $-1 $120 $121 $47 #
cone-surface $-1 60.166167599255616 39.716386815426624 4.7386157828131719 0 -0.68199836817093118 -0.7313536940579346 0.75 0 0 1 I I -0.70710678118654757 0.70710678118654757 0.75 forward I I I I #
loop $-1 $-1 $122 $32 #
coedge $-1 $77 $77 $123 $124 reversed $48 $-1 #
face $-1 $125 $126 $26 $-1 $127 reversed single #
loop $-1 $-1 $128 $50 #
plane-surface $-1 49.236951633756519 -152.10475785883071 103.3134190721691 1 0 0 0 0.74314483375859142 -0.66913059716165679 forward_v I I I I #
coedge $-1 $129 $130 $131 $132 reversed $51 $-1 #
face $-1 $-1 $133 $27 $-1 $134 forward single #
loop $-1 $135 $136 $53 #
cone-surface $-1 60.342222269101555 -41.426222613779068 6.6553614342161271 0 0.74314483375859142 -0.66913059716165679 0.5 0 0 1 I I -0.70710678118654746 0.70710678118654746 0.5 forward I I I I #
loop $-1 $-1 $137 $34 #
coedge $-1 $86 $86 $138 $139 reversed $54 $-1 #
face $-1 $140 $141 $21 $-1 $142 reversed single #
loop $-1 $-1 $143 $56 #
plane-surface $-1 0 -45.913087384944568 0 0 1 0 0 0 1 forward_v I I I I #
coedge $-1 $144 $145 $146 $147 forward $57 $-1 #
coedge $-1 $148 $59 $149 $150 forward $36 $-1 #
coedge $-1 $59 $148 $151 $152 forward $36 $-1 #
coedge $-1 $153 $154 $59 $94 reversed $155 $-1 #
edge $-1 $156 -45.913087384944568 $157 45.913087384944568 $93 $158 forward 7 unknown #
face $-1 $159 $160 $22 $-1 $161 reversed single #
loop $-1 $-1 $162 $60 #
plane-surface $-1 -61.802741604351084 0 -3.079232241546233 -1 0 0 0 0 1 forward_v I I I I #
coedge $-1 $163 $164 $165 $166 forward $61 $-1 #
coedge $-1 $167 $63 $168 $169 reversed $39 $-1 #
coedge $-1 $63 $167 $170 $171 reversed $39 $-1 #
coedge $-1 $162 $172 $63 $102 reversed $96 $-1 #
edge $-1 $173 -45.913087384944568 $174 45.913087384944568 $101 $175 forward 7 unknown #
face $-1 $176 $177 $23 $-1 $178 reversed single #
loop $-1 $-1 $109 $64 #
plane-surface $-1 0 0 11.008660003923323 0 0 1 1 0 0 forward_v I I I I #
coedge $-1 $179 $180 $181 $182 reversed $65 $-1 #
coedge $-1 $108 $67 $183 $184 reversed $42 $-1 #
coedge $-1 $67 $107 $179 $185 reversed $42 $-1 #
coedge $-1 $181 $186 $67 $110 forward $104 $-1 #
edge $-1 $187 -7.8081761863195354 $188 -2.4439455510792385 $109 $189 forward 7 unknown #
loop $-1 $-1 $116 $68 #
plane-surface $-1 51.705173620362402 -21.244324744223391 68.631735248294049 0 0.68199836817093118 0.7313536940579346 1 0 0 forward_v I I I I #
loop $-1 $-1 $190 $44 #
coedge $-1 $114 $114 $115 $191 reversed $69 $-1 #
coedge $-1 $115 $115 $114 $191 forward $71 $-1 #
coedge $-1 $116 $116 $72 $117 forward $111 $-1 #
edge $-1 $192 4.6758757706776961e-016 $192 6.2831853071796013 $116 $193 forward 7 unknown #
loop $-1 $-1 $123 $73 #
plane-surface $-1 51.705173620362402 -21.244324744223391 68.631735248294049 0 0.68199836817093118 0.7313536940579346 1 0 0 forward_v I I I I #
loop $-1 $-1 $194 $47 #
coedge $-1 $121 $121 $122 $195 reversed $74 $-1 #
coedge $-1 $122 $122 $121 $195 forward $76 $-1 #
coedge $-1 $123 $123 $77 $124 forward $118 $-1 #
edge $-1 $196 4.6758757706776961e-016 $196 6.2831853071796013 $123 $197 forward 7 unknown #
face $-1 $198 $199 $26 $-1 $200 forward single #
loop $-1 $-1 $201 $78 #
plane-surface $-1 0 -45.913087384944568 0 0 1 0 0 0 1 forward_v I I I I #
coedge $-1 $202 $203 $204 $205 reversed $79 $-1 #
coedge $-1 $206 $81 $207 $208 reversed $51 $-1 #
coedge $-1 $81 $206 $202 $209 forward $51 $-1 #
coedge $-1 $204 $210 $81 $132 forward $199 $-1 #
edge $-1 $211 -41.276381769895771 $212 -19.065840499205756 $131 $213 forward 7 unknown #
loop $-1 $-1 $138 $82 #
plane-surface $-1 60.342222269101526 -45.913087384944575 7.6980118864579907 0 -0.74314483375859142 0.66913059716165679 1 0 0 forward_v I I I I #
loop $-1 $-1 $214 $53 #
coedge $-1 $136 $136 $137 $215 reversed $83 $-1 #
coedge $-1 $137 $137 $136 $215 forward $85 $-1 #
coedge $-1 $138 $138 $86 $139 forward $133 $-1 #
edge $-1 $216 7.9418762654422365e-016 $216 6.2831853071796013 $138 $217 forward 7 unknown #
face $-1 $218 $219 $21 $-1 $220 reversed single #
loop $-1 $-1 $221 $87 #
plane-surface $-1 -71.447492904446548 0 0 1 0 0 0 0 -1 forward_v I I I I #
coedge $-1 $222 $151 $223 $224 forward $88 $-1 #
coedge $-1 $225 $90 $222 $226 forward $57 $-1 #
coedge $-1 $90 $225 $227 $228 forward $57 $-1 #
coedge $-1 $154 $153 $90 $147 reversed $155 $-1 #
edge $-1 $229 -45.913087384944568 $230 45.913087384944568 $146 $231 forward 7 unknown #
coedge $-1 $92 $91 $232 $233 forward $36 $-1 #
coedge $-1 $234 $235 $91 $150 reversed $219 $-1 #
edge $-1 $157 -71.447492904446548 $236 71.447492904446548 $149 $237 forward 7 unknown #
coedge $-1 $143 $238 $92 $152 reversed $88 $-1 #
edge $-1 $239 -71.447492904446548 $156 71.447492904446548 $151 $240 forward 7 unknown #
coedge $-1 $146 $93 $238 $241 forward $155 $-1 #
coedge $-1 $93 $146 $234 $242 reversed $155 $-1 #
loop $-1 $-1 $153 $218 #
vertex $-1 $94 $243 #
vertex $-1 $94 $244 #
straight-curve $-1 71.447492904446548 0 11.008660003923323 0 1 0 I I #
face $-1 $245 $246 $22 $-1 $247 reversed single #
loop $-1 $-1 $248 $95 #
plane-surface $-1 0 -45.913087384944568 0 0 1 0 0 0 1 forward_v I I I I #
coedge $-1 $165 $101 $249 $250 reversed $96 $-1 #
coedge $-1 $251 $98 $248 $252 reversed $61 $-1 #
coedge $-1 $98 $251 $253 $254 reversed $61 $-1 #
coedge $-1 $172 $162 $98 $166 reversed $96 $-1 #
edge $-1 $255 -45.913087384944568 $256 45.913087384944568 $165 $257 forward 7 unknown #
coedge $-1 $100 $99 $258 $259 reversed $39 $-1 #
coedge $-1 $260 $261 $99 $169 forward $262 $-1 #
edge $-1 $263 -38.13493427724714 $174 -28.490182977151676 $168 $264 forward 7 unknown #
coedge $-1 $265 $249 $100 $171 forward $160 $-1 #
edge $-1 $173 28.490182977151676 $266 38.13493427724714 $170 $267 forward 7 unknown #
coedge $-1 $101 $165 $260 $268 reversed $96 $-1 #
vertex $-1 $171 $269 #
vertex $-1 $169 $270 #
straight-curve $-1 -61.802741604351084 0 -0.59733661341479705 0 1 0 I I #
face $-1 $-1 $271 $23 $-1 $272 reversed single #
loop $-1 $-1 $273 $103 #
plane-surface $-1 71.447492904446548 0 0 -1 0 0 0 0 1 forward_v I I I I #
coedge $-1 $274 $106 $108 $185 forward $65 $-1 #
coedge $-1 $106 $274 $273 $275 reversed $65 $-1 #
coedge $-1 $276 $109 $106 $182 forward $104 $-1 #
edge $-1 $188 6.1102675260970543 $277 45.594906094265347 $181 $278 forward 7 unknown #
coedge $-1 $279 $280 $107 $184 forward $271 $-1 #
edge $-1 $281 -80.562821591141187 $187 -75.560595487068753 $183 $282 forward 7 unknown #
edge $-1 $188 84.49151483882801 $281 91.826174769889178 $108 $283 forward 7 unknown #
coedge $-1 $109 $276 $279 $284 forward $104 $-1 #
vertex $-1 $184 $285 #
vertex $-1 $110 $286 #
straight-curve $-1 31.962854336278255 38.104911198625032 11.008660003923325 0 -1 0 I I #
coedge $-1 $190 $190 $-1 $287 reversed $113 $-1 #
edge $-1 $288 0 $288 6.2831853071796004 $114 $289 forward 7 unknown #
vertex $-1 $117 $290 #
ellipse-curve $-1 43.244179641469202 43.230972067324416 8.5075469518871145 0 0.68199836817093118 0.7313536940579346 1.5 0 0 1 I I #
coedge $-1 $194 $194 $-1 $291 reversed $120 $-1 #
edge $-1 $292 0 $292 6.2831853071796004 $121 $293 forward 7 unknown #
vertex $-1 $124 $294 #
ellipse-curve $-1 60.166167599255616 43.230972067324416 8.5075469518871145 0 0.68199836817093118 0.7313536940579346 1.5 0 0 1 I I #
face $-1 $-1 $295 $26 $-1 $296 reversed single #
loop $-1 $-1 $204 $125 #
plane-surface $-1 0 0 11.008660003923323 0 0 1 1 0 0 forward_v I I I I #
coedge $-1 $297 $298 $203 $299 forward $126 $-1 #
coedge $-1 $203 $128 $130 $209 reversed $79 $-1 #
coedge $-1 $128 $202 $201 $299 reversed $79 $-1 #
coedge $-1 $300 $131 $128 $205 forward $199 $-1 #
edge $-1 $212 -33.12021242449309 $301 -30.139291544470787 $204 $302 forward 7 unknown #
coedge $-1 $130 $129 $297 $303 reversed $51 $-1 #
coedge $-1 $304 $305 $129 $208 forward $295 $-1 #
edge $-1 $306 -12.500556907894897 $211 -8.0456404944669586 $207 $307 forward 7 unknown #
edge $-1 $308 1.0694865687384493e-014 $212 4.4549164134279478 $202 $309 forward 7 unknown #
coedge $-1 $131 $300 $304 $310 forward $199 $-1 #
vertex $-1 $208 $311 #
vertex $-1 $132 $312 #
straight-curve $-1 30.171111134550763 -42.932166504922264 11.008660003923323 -1 0 0 I I #
coedge $-1 $214 $214 $-1 $313 reversed $135 $-1 #
edge $-1 $314 0 $314 6.2831853071796004 $136 $315 forward 7 unknown #
vertex $-1 $139 $316 #
ellipse-curve $-1 60.342222269101555 -44.42262694493342 9.3533359451906595 0 -0.74314483375859142 0.66913059716165679 1 0 0 1 I I #
face $-1 $-1 $155 $21 $-1 $317 reversed single #
loop $-1 $-1 $234 $140 #
plane-surface $-1 0 45.913087384944568 0 0 -1 0 0 0 -1 forward_v I I I I #
coedge $-1 $318 $232 $235 $319 forward $141 $-1 #
coedge $-1 $238 $143 $144 $226 reversed $88 $-1 #
coedge $-1 $232 $318 $143 $224 reversed $141 $-1 #
edge $-1 $239 -11.008660003923323 $320 11.008660003923323 $223 $321 forward 7 unknown #
coedge $-1 $145 $144 $318 $322 forward $57 $-1 #
edge $-1 $230 -71.447492904446548 $320 71.447492904446548 $222 $323 forward 7 unknown #
coedge $-1 $235 $234 $145 $228 reversed $219 $-1 #
edge $-1 $324 -71.447492904446548 $229 71.447492904446548 $227 $325 forward 7 unknown #
vertex $-1 $147 $326 #
vertex $-1 $241 $327 #
straight-curve $-1 71.447492904446548 0 -11.008660003923323 0 -1 0 I I #
coedge $-1 $221 $223 $148 $233 reversed $141 $-1 #
edge $-1 $236 -45.913087384944568 $239 45.913087384944568 $232 $328 forward 7 unknown #
coedge $-1 $227 $149 $154 $242 forward $219 $-1 #
coedge $-1 $149 $227 $221 $319 reversed $219 $-1 #
vertex $-1 $150 $329 #
straight-curve $-1 0 45.913087384944568 11.008660003923323 -1 0 0 I I #
coedge $-1 $151 $222 $153 $241 reversed $88 $-1 #
vertex $-1 $233 $330 #
straight-curve $-1 0 -45.913087384944568 11.008660003923323 1 0 0 I I #
edge $-1 $156 -11.008660003923323 $230 11.008660003923323 $153 $331 forward 7 unknown #
edge $-1 $157 -11.008660003923323 $229 11.008660003923323 $154 $332 forward 7 unknown #
point $-1 71.447492904446548 -45.913087384944568 11.008660003923323 #
point $-1 71.447492904446548 45.913087384944568 11.008660003923323 #
face $-1 $-1 $262 $22 $-1 $333 reversed single #
loop $-1 $-1 $334 $159 #
plane-surface $-1 -71.447492904446548 0 0 1 0 0 0 0 -1 forward_v I I I I #
coedge $-1 $249 $265 $163 $252 forward $160 $-1 #
coedge $-1 $170 $248 $162 $250 forward $160 $-1 #
edge $-1 $256 -4.0215117489045529 $173 0.94227950735831945 $249 $335 forward 7 unknown #
coedge $-1 $164 $163 $334 $336 reversed $61 $-1 #
edge $-1 $337 -38.13493427724714 $256 -28.490182977151676 $248 $338 forward 7 unknown #
coedge $-1 $261 $260 $164 $254 forward $262 $-1 #
edge $-1 $255 28.490182977151676 $339 38.13493427724714 $253 $340 forward 7 unknown #
vertex $-1 $254 $341 #
vertex $-1 $252 $342 #
straight-curve $-1 -61.802741604351084 0 -5.5611278696776694 0 -1 0 I I #
coedge $-1 $343 $344 $167 $259 forward $246 $-1 #
edge $-1 $266 -45.913087384944568 $263 45.913087384944568 $258 $345 forward 7 unknown #
coedge $-1 $253 $168 $172 $268 forward $262 $-1 #
coedge $-1 $168 $253 $343 $346 reversed $262 $-1 #
loop $-1 $-1 $253 $245 #
vertex $-1 $346 $347 #
straight-curve $-1 -33.312558627199408 45.913087384944568 -0.59733661341479705 1 0 0 I I #
coedge $-1 $248 $170 $344 $348 forward $160 $-1 #
vertex $-1 $348 $349 #
straight-curve $-1 -33.312558627199408 -45.913087384944568 -0.59733661341479705 -1 0 0 I I #
edge $-1 $174 -0.94227950735831945 $255 4.0215117489045529 $260 $350 forward 7 unknown #
point $-1 -61.802741604351084 -45.913087384944568 -0.59733661341479705 #
point $-1 -61.802741604351084 45.913087384944568 -0.59733661341479705 #
loop $-1 $-1 $183 $176 #
plane-surface $-1 0 45.913087384944568 0 0 -1 0 0 0 -1 forward_v I I I I #
coedge $-1 $351 $352 $180 $275 forward $177 $-1 #
coedge $-1 $180 $179 $280 $353 reversed $65 $-1 #
edge $-1 $277 53.319591427062967 $354 60.654251358124142 $273 $355 forward 7 unknown #
coedge $-1 $186 $181 $352 $356 forward $104 $-1 #
vertex $-1 $356 $357 #
straight-curve $-1 25.852586810181201 40.548856749704271 11.008660003923325 1 0 0 I I #
coedge $-1 $358 $183 $186 $284 reversed $271 $-1 #
coedge $-1 $183 $358 $274 $353 forward $271 $-1 #
vertex $-1 $184 $359 #
straight-curve $-1 31.962854336278255 45.913087384944568 86.569255490992077 0 0 1 I I #
straight-curve $-1 31.962854336278255 -21.244324744223391 68.631735248294049 0 0.7313536940579346 -0.68199836817093118 I I #
edge $-1 $360 -71.447492904446548 $187 -31.962854336278255 $279 $361 forward 7 unknown #
point $-1 31.962854336278255 45.913087384944568 11.008660003923323 #
point $-1 31.962854336278255 40.548856749704271 11.008660003923332 #
edge $-1 $362 1 $362 0 $190 $-1 forward 7 unknown #
vertex $-1 $191 $363 #
ellipse-curve $-1 43.244179641469202 40.227885591554823 5.2871310533566227 0 0.68199836817093118 0.7313536940579346 1.5 0 0 1 I I #
point $-1 44.744179641469202 43.23097206732443 8.5075469518871287 #
edge $-1 $364 1 $364 0 $194 $-1 forward 7 unknown #
vertex $-1 $195 $365 #
ellipse-curve $-1 60.166167599255616 40.227885591554823 5.2871310533566227 0 0.68199836817093118 0.7313536940579346 1.5 0 0 1 I I #
point $-1 61.666167599255616 43.23097206732443 8.5075469518871287 #
loop $-1 $-1 $207 $198 #
plane-surface $-1 71.447492904446548 0 0 -1 0 0 0 0 1 forward_v I I I I #
coedge $-1 $366 $201 $206 $303 forward $126 $-1 #
coedge $-1 $201 $366 $300 $367 reversed $126 $-1 #
edge $-1 $301 40.648049532161224 $308 43.958697649626551 $201 $368 forward 7 unknown #
coedge $-1 $210 $204 $298 $367 forward $199 $-1 #
vertex $-1 $367 $369 #
straight-curve $-1 49.236951633756519 -76.052378929415354 11.008660003923325 0 -1 0 I I #
edge $-1 $308 19.065840499205756 $306 41.276381769895771 $297 $370 forward 7 unknown #
coedge $-1 $305 $207 $210 $310 reversed $295 $-1 #
coedge $-1 $207 $304 $366 $371 forward $295 $-1 #
vertex $-1 $303 $372 #
straight-curve $-1 71.447492904446548 -37.548582276311578 16.987736171665361 0 0.66913059716165679 0.74314483375859142 I I #
vertex $-1 $303 $373 #
straight-curve $-1 49.236951633756519 -45.913087384944575 7.6980118864579907 0 0.66913059716165679 0.74314483375859142 I I #
edge $-1 $374 -45.913087384944568 $211 -42.932166504922264 $304 $375 forward 7 unknown #
point $-1 71.447492904446534 -42.932166504922264 11.008660003923323 #
point $-1 49.236951633756519 -42.932166504922264 11.008660003923323 #
edge $-1 $376 1 $376 0 $214 $-1 forward 7 unknown #
vertex $-1 $215 $377 #
ellipse-curve $-1 60.342222269101555 -41.797795030658364 6.9899267327969552 0 -0.74314483375859142 0.66913059716165679 1 0 0 1 I I #
point $-1 61.342222269101555 -44.422626944933413 9.3533359451906541 #
plane-surface $-1 71.447492904446548 0 0 -1 0 0 0 0 1 forward_v I I I I #
coedge $-1 $223 $221 $225 $322 reversed $141 $-1 #
edge $-1 $236 -11.008660003923323 $324 11.008660003923323 $235 $378 forward 7 unknown #
vertex $-1 $322 $379 #
straight-curve $-1 -71.447492904446548 -45.913087384944568 0 0 0 -1 I I #
edge $-1 $320 -45.913087384944568 $324 45.913087384944568 $318 $380 forward 7 unknown #
straight-curve $-1 0 -45.913087384944568 -11.008660003923323 -1 0 0 I I #
vertex $-1 $228 $381 #
straight-curve $-1 0 45.913087384944568 -11.008660003923323 1 0 0 I I #
point $-1 71.447492904446548 45.913087384944568 -11.008660003923323 #
point $-1 71.447492904446548 -45.913087384944568 -11.008660003923323 #
straight-curve $-1 -71.447492904446548 0 11.008660003923323 0 -1 0 I I #
point $-1 -71.447492904446548 45.913087384944568 11.008660003923323 #
point $-1 -71.447492904446548 -45.913087384944568 11.008660003923323 #
straight-curve $-1 71.447492904446548 -45.913087384944568 0 0 0 -1 I I #
straight-curve $-1 71.447492904446548 45.913087384944568 0 0 0 -1 I I #
plane-surface $-1 0 45.913087384944568 0 0 -1 0 0 0 -1 forward_v I I I I #
coedge $-1 $344 $343 $251 $336 forward $246 $-1 #
straight-curve $-1 -61.802741604351084 -45.913087384944568 -1.5396161207731165 0 0 1 I I #
edge $-1 $339 -45.913087384944568 $337 45.913087384944568 $334 $382 forward 7 unknown #
vertex $-1 $252 $383 #
straight-curve $-1 -33.312558627199408 -45.913087384944568 -5.5611278696776694 1 0 0 I I #
vertex $-1 $254 $384 #
straight-curve $-1 -33.312558627199408 45.913087384944568 -5.5611278696776694 -1 0 0 I I #
point $-1 -61.802741604351084 45.913087384944568 -5.5611278696776694 #
point $-1 -61.802741604351084 -45.913087384944568 -5.5611278696776694 #
coedge $-1 $334 $258 $261 $346 forward $246 $-1 #
coedge $-1 $258 $334 $265 $348 reversed $246 $-1 #
straight-curve $-1 -71.447492904446548 0 -0.59733661341479705 0 1 0 I I #
edge $-1 $263 0.59733661341479705 $339 5.5611278696776694 $261 $385 forward 7 unknown #
point $-1 -71.447492904446548 45.913087384944568 -0.59733661341479705 #
edge $-1 $266 0.59733661341479705 $337 5.5611278696776694 $344 $386 forward 7 unknown #
point $-1 -71.447492904446548 -45.913087384944568 -0.59733661341479705 #
straight-curve $-1 -61.802741604351084 45.913087384944568 -1.5396161207731165 0 0 -1 I I #
coedge $-1 $352 $273 $358 $387 reversed $177 $-1 #
coedge $-1 $273 $351 $276 $356 reversed $177 $-1 #
edge $-1 $354 -45.594906094265347 $281 -6.1102675260970543 $280 $388 forward 7 unknown #
vertex $-1 $275 $389 #
straight-curve $-1 71.447492904446548 1.5533765938619908 47.372534348721047 0 0.7313536940579346 -0.68199836817093118 I I #
edge $-1 $277 40.548856749704271 $360 45.913087384944568 $352 $390 forward 7 unknown #
point $-1 71.447492904446548 40.548856749704271 11.008660003923332 #
coedge $-1 $280 $279 $351 $387 forward $271 $-1 #
point $-1 31.962854336278255 45.913087384944575 6.0064338998508973 #
vertex $-1 $356 $391 #
straight-curve $-1 0 45.913087384944568 11.008660003923323 -1 0 0 I I #
vertex $-1 $287 $392 #
point $-1 44.744179641469202 40.227885591554823 5.2871310533566227 #
vertex $-1 $291 $393 #
point $-1 61.666167599255616 40.227885591554823 5.2871310533566227 #
coedge $-1 $298 $297 $305 $371 reversed $126 $-1 #
edge $-1 $301 49.236951633756519 $374 71.447492904446548 $298 $394 forward 7 unknown #
straight-curve $-1 49.236951633756519 -45.913087384944568 51.656709536084549 0 0 -1 I I #
point $-1 49.236951633756519 -45.913087384944568 11.008660003923323 #
straight-curve $-1 30.171111134550763 -45.913087384944568 7.6980118864580058 1 0 0 I I #
edge $-1 $374 -11.008660003923323 $306 -7.6980118864579987 $305 $395 forward 7 unknown #
point $-1 71.447492904446534 -45.913087384944568 7.6980118864579987 #
point $-1 49.236951633756519 -45.913087384944568 7.6980118864579987 #
vertex $-1 $310 $396 #
straight-curve $-1 71.447492904446548 0 11.008660003923323 0 1 0 I I #
vertex $-1 $313 $397 #
point $-1 61.342222269101555 -41.797795030658364 6.9899267327969552 #
straight-curve $-1 -71.447492904446548 45.913087384944568 0 0 0 -1 I I #
point $-1 -71.447492904446548 -45.913087384944568 -11.008660003923323 #
straight-curve $-1 -71.447492904446548 0 -11.008660003923323 0 1 0 I I #
point $-1 -71.447492904446548 45.913087384944568 -11.008660003923323 #
straight-curve $-1 -71.447492904446548 0 -5.5611278696776694 0 -1 0 I I #
point $-1 -71.447492904446548 -45.913087384944568 -5.5611278696776694 #
point $-1 -71.447492904446548 45.913087384944568 -5.5611278696776694 #
straight-curve $-1 -71.447492904446548 45.913087384944568 0 0 0 -1 I I #
straight-curve $-1 -71.447492904446548 -45.913087384944568 0 0 0 -1 I I #
edge $-1 $360 -11.008660003923323 $354 -6.0064338998508973 $351 $398 forward 7 unknown #
straight-curve $-1 25.852586810181201 45.913087384944568 6.0064338998508937 -1 0 0 I I #
point $-1 71.447492904446548 45.913087384944575 6.0064338998508973 #
straight-curve $-1 71.447492904446548 0 11.008660003923323 0 1 0 I I #
point $-1 71.447492904446548 45.913087384944568 11.008660003923323 #
point $-1 43.244179641469202 39.204888039298424 4.190100512269721 #
point $-1 60.166167599255616 39.204888039298424 4.190100512269721 #
straight-curve $-1 0 -45.913087384944568 11.008660003923323 1 0 0 I I #
straight-curve $-1 71.447492904446548 -45.913087384944568 0 0 0 -1 I I #
point $-1 71.447492904446548 -45.913087384944568 11.008660003923323 #
point $-1 60.342222269101555 -41.054650196899772 6.3207961356352991 #
straight-curve $-1 71.447492904446548 45.913087384944568 0 0 0 -1 I I #
End-of-ACIS-data 