500 0 14 0           
7 Unknown 11 ACIS 5.0 NT 24 Fri Mar 26 01:27:01 1999 
-1 9.9999999999999995e-007 1e-010 
body $-1 $14 $-1 $15 #
body $-1 $16 $-1 $17 #
body $-1 $18 $-1 $19 #
body $-1 $20 $-1 $21 #
body $-1 $22 $-1 $23 #
body $-1 $24 $-1 $25 #
body $-1 $26 $-1 $27 #
body $-1 $28 $-1 $29 #
body $-1 $30 $-1 $31 #
body $-1 $32 $-1 $33 #
body $-1 $34 $-1 $35 #
body $-1 $36 $-1 $37 #
body $-1 $38 $-1 $39 #
body $-1 $40 $-1 $41 #
lump $-1 $-1 $42 $0 #
transform $-1 1 0 0 0 1 0 0 0 1 78.574175237281409 43.210400955403799 10.935065364616822 1 rotate no_reflect no_shear #
lump $-1 $-1 $43 $1 #
transform $-1 1 0 0 0 1 0 0 0 1 78.574175237281409 43.210400955403799 10.935065364616822 1 rotate no_reflect no_shear #
lump $-1 $-1 $44 $2 #
transform $-1 1 0 0 0 1 0 0 0 1 78.574175237281409 43.210400955403799 10.935065364616822 1 rotate no_reflect no_shear #
lump $-1 $-1 $45 $3 #
transform $-1 1 0 0 0 1 0 0 0 1 78.574175237281409 43.210400955403799 10.935065364616822 1 rotate no_reflect no_shear #
lump $-1 $-1 $46 $4 #
transform $-1 1 0 0 0 1 0 0 0 1 78.574175237281409 43.210400955403799 10.935065364616822 1 rotate no_reflect no_shear #
lump $-1 $-1 $47 $5 #
transform $-1 1 0 0 0 1 0 0 0 1 78.574175237281409 43.210400955403799 10.935065364616822 1 rotate no_reflect no_shear #
lump $-1 $-1 $48 $6 #
transform $-1 1 0 0 0 1 0 0 0 1 78.574175237281409 43.210400955403799 10.935065364616822 1 rotate no_reflect no_shear #
lump $-1 $-1 $49 $7 #
transform $-1 1 0 0 0 1 0 0 0 1 78.574175237281409 43.210400955403799 10.935065364616822 1 rotate no_reflect no_shear #
lump $-1 $-1 $50 $8 #
transform $-1 1 0 0 0 1 0 0 0 1 78.574175237281409 43.210400955403799 10.935065364616822 1 rotate no_reflect no_shear #
lump $-1 $-1 $51 $9 #
transform $-1 1 0 0 0 1 0 0 0 1 78.574175237281409 43.210400955403799 10.935065364616822 1 rotate no_reflect no_shear #
lump $-1 $-1 $52 $10 #
transform $-1 1 0 0 0 1 0 0 0 1 78.574175237281409 43.210400955403799 10.935065364616822 1 rotate no_reflect no_shear #
lump $-1 $-1 $53 $11 #
transform $-1 1 0 0 0 1 0 0 0 1 78.574175237281409 43.210400955403799 10.935065364616822 1 rotate no_reflect no_shear #
lump $-1 $-1 $54 $12 #
transform $-1 1 0 0 0 1 0 0 0 1 78.574175237281409 43.210400955403799 10.935065364616822 1 rotate no_reflect no_shear #
lump $-1 $-1 $55 $13 #
transform $-1 1 0 0 0 1 0 0 0 1 78.574175237281409 43.210400955403799 10.935065364616822 1 rotate no_reflect no_shear #
shell $-1 $-1 $-1 $56 $-1 $14 #
shell $-1 $-1 $-1 $57 $-1 $16 #
shell $-1 $-1 $-1 $58 $-1 $18 #
shell $-1 $-1 $-1 $59 $-1 $20 #
shell $-1 $-1 $-1 $60 $-1 $22 #
shell $-1 $-1 $-1 $61 $-1 $24 #
shell $-1 $-1 $-1 $62 $-1 $26 #
shell $-1 $-1 $-1 $63 $-1 $28 #
shell $-1 $-1 $-1 $64 $-1 $30 #
shell $-1 $-1 $-1 $65 $-1 $32 #
shell $-1 $-1 $-1 $66 $-1 $34 #
shell $-1 $-1 $-1 $67 $-1 $36 #
shell $-1 $-1 $-1 $68 $-1 $38 #
shell $-1 $-1 $-1 $69 $-1 $40 #
face $-1 $70 $71 $42 $-1 $72 forward single #
face $-1 $73 $74 $43 $-1 $75 reversed single #
face $-1 $76 $77 $44 $-1 $78 reversed single #
face $-1 $79 $80 $45 $-1 $81 forward single #
face $-1 $82 $83 $46 $-1 $84 forward single #
face $-1 $85 $86 $47 $-1 $87 forward single #
face $-1 $88 $89 $48 $-1 $90 reversed single #
face $-1 $91 $92 $49 $-1 $93 forward single #
face $-1 $94 $95 $50 $-1 $96 forward single #
face $-1 $97 $98 $51 $-1 $99 forward single #
face $-1 $100 $101 $52 $-1 $102 reversed single #
face $-1 $103 $104 $53 $-1 $105 forward single #
face $-1 $106 $107 $54 $-1 $108 forward single #
face $-1 $109 $110 $55 $-1 $111 forward single #
face $-1 $112 $113 $42 $-1 $114 reversed single #
loop $-1 $-1 $115 $56 #
plane-surface $-1 0 0 10.935065364616822 0 0 1 1 0 0 forward_v I I I I #
face $-1 $116 $117 $43 $-1 $118 reversed single #
loop $-1 $-1 $119 $57 #
plane-surface $-1 -71.713847547784809 -24.661003324017265 0 0 1 0 0 0 1 forward_v I I I I #
face $-1 $120 $121 $44 $-1 $122 reversed single #
loop $-1 $-1 $123 $58 #
plane-surface $-1 -64.853519858288195 130.68371496779551 156.73057527498878 1 0 0 0 -0.84804810408105047 -0.52991925155115449 forward_v I I I I #
face $-1 $124 $125 $45 $-1 $126 forward single #
loop $-1 $127 $128 $59 #
cone-surface $-1 -57.907473332322851 38.275048320278785 4.5689266950252279 0 -0.84804810408105047 -0.52991925155115449 1.5 0 0 1 I I 0 1 1.5 forward I I I I #
face $-1 $129 $130 $46 $-1 $131 forward single #
loop $-1 $132 $133 $60 #
cone-surface $-1 -47.488403543374829 38.275048320278785 4.5689266950252279 0 -0.84804810408105047 -0.52991925155115449 1.5 0 0 1 I I 0 1 1.5 forward I I I I #
face $-1 $134 $135 $47 $-1 $136 forward single #
loop $-1 $137 $138 $61 #
cone-surface $-1 -37.069333754426808 38.275048320278785 4.5689266950252279 0 -0.84804810408105047 -0.52991925155115449 1.5 0 0 1 I I 0 1 1.5 forward I I I I #
face $-1 $139 $140 $48 $-1 $141 reversed single #
loop $-1 $-1 $142 $62 #
plane-surface $-1 43.843942607454707 130.68371496779551 156.73057527498878 1 0 0 0 -0.84804810408105047 -0.52991925155115449 forward_v I I I I #
face $-1 $143 $144 $49 $-1 $145 forward single #
loop $-1 $146 $147 $63 #
cone-surface $-1 50.789989133420036 38.275048320278785 4.5689266950252279 0 -0.84804810408105047 -0.52991925155115449 1.5 0 0 1 I I 0 1 1.5 forward I I I I #
face $-1 $148 $149 $50 $-1 $150 forward single #
loop $-1 $151 $152 $64 #
cone-surface $-1 61.209058922368072 38.275048320278785 4.5689266950252279 0 -0.84804810408105047 -0.52991925155115449 1.5 0 0 1 I I 0 1 1.5 forward I I I I #
face $-1 $153 $154 $51 $-1 $155 forward single #
loop $-1 $156 $157 $65 #
cone-surface $-1 71.62812871131608 38.275048320278785 4.5689266950252279 0 -0.84804810408105047 -0.52991925155115449 1.5 0 0 1 I I 0 1 1.5 forward I I I I #
face $-1 $158 $159 $52 $-1 $160 reversed single #
loop $-1 $-1 $161 $66 #
plane-surface $-1 -27.088888102996478 -161.81176787729839 103.503494887903 -1 0 0 0 -0.75470958851134928 0.65605901945558964 forward_v I I I I #
face $-1 $162 $163 $53 $-1 $164 forward single #
loop $-1 $165 $166 $67 #
cone-surface $-1 -53.818869486046779 -37.318580628406899 4.5269109947898905 0 0.75470958851134928 -0.65605901945558964 2 0 0 1 I I 0 1 2 forward I I I I #
face $-1 $167 $168 $54 $-1 $169 forward single #
loop $-1 $170 $171 $68 #
cone-surface $-1 -43.795126467402916 -37.318580628406899 4.5269109947898905 0 0.75470958851134928 -0.65605901945558964 2 0 0 1 I I 0 1 2 forward I I I I #
face $-1 $172 $173 $55 $-1 $174 forward single #
loop $-1 $175 $176 $69 #
cone-surface $-1 -33.771383448759053 -37.318580628406899 4.5269109947898905 0 0.75470958851134928 -0.65605901945558964 2 0 0 1 I I 0 1 2 forward I I I I #
face $-1 $177 $178 $42 $-1 $179 reversed single #
loop $-1 $-1 $180 $70 #
plane-surface $-1 0 0 -10.935065364616822 0 0 1 1 0 0 forward_v I I I I #
coedge $-1 $181 $182 $183 $184 forward $71 $-1 #
face $-1 $185 $186 $43 $-1 $187 reversed single #
loop $-1 $-1 $188 $73 #
plane-surface $-1 -71.713847547784809 -21.340270226170155 0 0 -1 0 0 0 -1 forward_v I I I I #
coedge $-1 $189 $190 $191 $192 reversed $74 $-1 #
face $-1 $193 $194 $44 $-1 $195 reversed single #
loop $-1 $-1 $196 $76 #
plane-surface $-1 -47.488403543374829 -2.585645711621936 73.454639009009938 0 0.84804810408105047 0.52991925155115449 1 0 0 forward_v I I I I #
coedge $-1 $197 $198 $199 $200 reversed $77 $-1 #
face $-1 $-1 $201 $45 $-1 $202 forward single #
loop $-1 $203 $204 $79 #
cone-surface $-1 -57.907473332322851 36.068400858197165 3.1900603713858935 0 -0.84804810408105047 -0.52991925155115449 0.75 0 0 1 I I -0.70710678118654757 0.70710678118654757 0.75 forward I I I I #
loop $-1 $-1 $205 $59 #
coedge $-1 $128 $128 $206 $207 reversed $80 $-1 #
face $-1 $-1 $208 $46 $-1 $209 forward single #
loop $-1 $210 $211 $82 #
cone-surface $-1 -47.488403543374829 36.068400858197165 3.1900603713858935 0 -0.84804810408105047 -0.52991925155115449 0.75 0 0 1 I I -0.70710678118654757 0.70710678118654757 0.75 forward I I I I #
loop $-1 $-1 $212 $60 #
coedge $-1 $133 $133 $213 $214 reversed $83 $-1 #
face $-1 $-1 $215 $47 $-1 $216 forward single #
loop $-1 $217 $218 $85 #
cone-surface $-1 -37.069333754426808 36.068400858197165 3.1900603713858935 0 -0.84804810408105047 -0.52991925155115449 0.75 0 0 1 I I -0.70710678118654757 0.70710678118654757 0.75 forward I I I I #
loop $-1 $-1 $219 $61 #
coedge $-1 $138 $138 $220 $221 reversed $86 $-1 #
face $-1 $222 $223 $48 $-1 $224 forward single #
loop $-1 $-1 $225 $88 #
plane-surface $-1 61.209058922368072 -2.585645711621936 73.454639009009938 0 0.84804810408105047 0.52991925155115449 1 0 0 forward_v I I I I #
coedge $-1 $226 $227 $228 $229 reversed $89 $-1 #
face $-1 $-1 $230 $49 $-1 $231 forward single #
loop $-1 $232 $233 $91 #
cone-surface $-1 50.789989133420036 36.068400858197165 3.1900603713858935 0 -0.84804810408105047 -0.52991925155115449 0.75 0 0 1 I I -0.70710678118654757 0.70710678118654757 0.75 forward I I I I #
loop $-1 $-1 $234 $63 #
coedge $-1 $147 $147 $235 $236 reversed $92 $-1 #
face $-1 $-1 $237 $50 $-1 $238 forward single #
loop $-1 $239 $240 $94 #
cone-surface $-1 61.209058922368072 36.068400858197165 3.1900603713858935 0 -0.84804810408105047 -0.52991925155115449 0.75 0 0 1 I I -0.70710678118654757 0.70710678118654757 0.75 forward I I I I #
loop $-1 $-1 $241 $64 #
coedge $-1 $152 $152 $242 $243 reversed $95 $-1 #
face $-1 $-1 $244 $51 $-1 $245 forward single #
loop $-1 $246 $247 $97 #
cone-surface $-1 71.62812871131608 36.068400858197165 3.1900603713858935 0 -0.84804810408105047 -0.52991925155115449 0.75 0 0 1 I I -0.70710678118654757 0.70710678118654757 0.75 forward I I I I #
loop $-1 $-1 $248 $65 #
coedge $-1 $157 $157 $249 $250 reversed $98 $-1 #
face $-1 $251 $252 $52 $-1 $253 reversed single #
loop $-1 $-1 $254 $100 #
plane-surface $-1 -43.795126467402916 -43.210400955403784 0.40490216649797617 0 -0.75470958851134928 0.65605901945558964 1 0 0 forward_v I I I I #
coedge $-1 $255 $256 $257 $258 reversed $101 $-1 #
face $-1 $-1 $259 $53 $-1 $260 forward single #
loop $-1 $261 $262 $103 #
cone-surface $-1 -53.818869486046779 -35.248916203697505 2.7277792045667884 0 0.75470958851134928 -0.65605901945558964 1 0 0 1 I I -0.70710678118654746 0.70710678118654746 1 forward I I I I #
loop $-1 $-1 $263 $67 #
coedge $-1 $166 $166 $264 $265 reversed $104 $-1 #
face $-1 $-1 $266 $54 $-1 $267 forward single #
loop $-1 $268 $269 $106 #
cone-surface $-1 -43.795126467402916 -35.248916203697505 2.7277792045667884 0 0.75470958851134928 -0.65605901945558964 1 0 0 1 I I -0.70710678118654746 0.70710678118654746 1 forward I I I I #
loop $-1 $-1 $270 $68 #
coedge $-1 $171 $171 $271 $272 reversed $107 $-1 #
face $-1 $-1 $273 $55 $-1 $274 forward single #
loop $-1 $275 $276 $109 #
cone-surface $-1 -33.771383448759053 -35.248916203697505 2.7277792045667884 0 0.75470958851134928 -0.65605901945558964 1 0 0 1 I I -0.70710678118654746 0.70710678118654746 1 forward I I I I #
loop $-1 $-1 $277 $69 #
coedge $-1 $176 $176 $278 $279 reversed $110 $-1 #
face $-1 $280 $281 $42 $-1 $282 reversed single #
loop $-1 $-1 $283 $112 #
plane-surface $-1 0 -43.210400955403799 0 0 1 0 0 0 1 forward_v I I I I #
coedge $-1 $284 $285 $286 $287 forward $113 $-1 #
coedge $-1 $288 $115 $289 $290 forward $71 $-1 #
coedge $-1 $115 $288 $291 $292 forward $71 $-1 #
coedge $-1 $293 $294 $115 $184 reversed $295 $-1 #
edge $-1 $296 -43.210400955403799 $297 43.210400955403799 $183 $298 forward 7 unknown #
face $-1 $299 $300 $43 $-1 $301 reversed single #
loop $-1 $-1 $302 $116 #
plane-surface $-1 -64.853519858288209 -23.00063677509371 0 -1 0 0 0 0 1 forward_v I I I I #
coedge $-1 $303 $304 $305 $306 forward $117 $-1 #
coedge $-1 $307 $119 $308 $309 reversed $74 $-1 #
coedge $-1 $119 $307 $310 $311 reversed $74 $-1 #
coedge $-1 $312 $313 $119 $192 forward $314 $-1 #
edge $-1 $315 -10.935065364616822 $316 10.935065364616822 $191 $317 forward 7 unknown #
face $-1 $318 $319 $44 $-1 $320 reversed single #
loop $-1 $-1 $321 $120 #
plane-surface $-1 -30.123287228461461 130.68371496779551 156.73057527498878 -1 0 0 0 0.84804810408105047 0.52991925155115449 forward_v I I I I #
coedge $-1 $322 $323 $324 $325 reversed $121 $-1 #
coedge $-1 $198 $123 $326 $327 reversed $77 $-1 #
coedge $-1 $123 $197 $322 $328 reversed $77 $-1 #
coedge $-1 $324 $329 $123 $200 forward $330 $-1 #
edge $-1 $331 22.131456528493956 $332 28.860939030702312 $199 $333 forward 7 unknown #
loop $-1 $-1 $206 $124 #
plane-surface $-1 -47.488403543374829 -2.585645711621936 73.454639009009938 0 0.84804810408105047 0.52991925155115449 1 0 0 forward_v I I I I #
loop $-1 $-1 $334 $79 #
coedge $-1 $204 $204 $205 $335 reversed $125 $-1 #
coedge $-1 $205 $205 $204 $335 forward $127 $-1 #
coedge $-1 $206 $206 $128 $207 forward $201 $-1 #
edge $-1 $336 -5.0214534994159652e-016 $336 6.2831853071795996 $206 $337 forward 7 unknown #
loop $-1 $-1 $213 $129 #
plane-surface $-1 -47.488403543374829 -2.585645711621936 73.454639009009938 0 0.84804810408105047 0.52991925155115449 1 0 0 forward_v I I I I #
loop $-1 $-1 $338 $82 #
coedge $-1 $211 $211 $212 $339 reversed $130 $-1 #
coedge $-1 $212 $212 $211 $339 forward $132 $-1 #
coedge $-1 $213 $213 $133 $214 forward $208 $-1 #
edge $-1 $340 -5.0214534994159652e-016 $340 6.2831853071795996 $213 $341 forward 7 unknown #
loop $-1 $-1 $220 $134 #
plane-surface $-1 -47.488403543374829 -2.585645711621936 73.454639009009938 0 0.84804810408105047 0.52991925155115449 1 0 0 forward_v I I I I #
loop $-1 $-1 $342 $85 #
coedge $-1 $218 $218 $219 $343 reversed $135 $-1 #
coedge $-1 $219 $219 $218 $343 forward $137 $-1 #
coedge $-1 $220 $220 $138 $221 forward $215 $-1 #
edge $-1 $344 -5.0214534994159652e-016 $344 6.2831853071795996 $220 $345 forward 7 unknown #
face $-1 $346 $347 $48 $-1 $348 reversed single #
loop $-1 $-1 $228 $139 #
plane-surface $-1 0 0 10.935065364616822 0 0 1 1 0 0 forward_v I I I I #
coedge $-1 $349 $350 $351 $352 reversed $140 $-1 #
coedge $-1 $227 $142 $353 $354 reversed $89 $-1 #
coedge $-1 $142 $226 $349 $355 reversed $89 $-1 #
coedge $-1 $351 $356 $142 $229 forward $223 $-1 #
edge $-1 $357 22.131456528493956 $358 28.860939030702312 $228 $359 forward 7 unknown #
loop $-1 $-1 $235 $143 #
plane-surface $-1 61.209058922368072 -2.585645711621936 73.454639009009938 0 0.84804810408105047 0.52991925155115449 1 0 0 forward_v I I I I #
loop $-1 $-1 $360 $91 #
coedge $-1 $233 $233 $234 $361 reversed $144 $-1 #
coedge $-1 $234 $234 $233 $361 forward $146 $-1 #
coedge $-1 $235 $235 $147 $236 forward $230 $-1 #
edge $-1 $362 -5.0214534994159652e-016 $362 6.2831853071795996 $235 $363 forward 7 unknown #
loop $-1 $-1 $242 $148 #
plane-surface $-1 61.209058922368072 -2.585645711621936 73.454639009009938 0 0.84804810408105047 0.52991925155115449 1 0 0 forward_v I I I I #
loop $-1 $-1 $364 $94 #
coedge $-1 $240 $240 $241 $365 reversed $149 $-1 #
coedge $-1 $241 $241 $240 $365 forward $151 $-1 #
coedge $-1 $242 $242 $152 $243 forward $237 $-1 #
edge $-1 $366 -5.0214534994159652e-016 $366 6.2831853071795996 $242 $367 forward 7 unknown #
loop $-1 $-1 $249 $153 #
plane-surface $-1 61.209058922368072 -2.585645711621936 73.454639009009938 0 0.84804810408105047 0.52991925155115449 1 0 0 forward_v I I I I #
loop $-1 $-1 $368 $97 #
coedge $-1 $247 $247 $248 $369 reversed $154 $-1 #
coedge $-1 $248 $248 $247 $369 forward $156 $-1 #
coedge $-1 $249 $249 $157 $250 forward $244 $-1 #
edge $-1 $370 -5.0214534994159652e-016 $370 6.2831853071795996 $249 $371 forward 7 unknown #
face $-1 $372 $373 $52 $-1 $374 reversed single #
loop $-1 $-1 $375 $158 #
plane-surface $-1 -60.501364831809354 -161.81176787729839 103.503494887903 1 0 0 0 0.75470958851134928 -0.65605901945558964 forward_v I I I I #
coedge $-1 $376 $377 $378 $379 reversed $159 $-1 #
coedge $-1 $256 $161 $380 $381 reversed $101 $-1 #
coedge $-1 $161 $255 $376 $382 reversed $101 $-1 #
coedge $-1 $378 $383 $161 $258 forward $384 $-1 #
edge $-1 $385 37.695482983245398 $386 46.849213964843109 $257 $387 forward 7 unknown #
loop $-1 $-1 $264 $162 #
plane-surface $-1 -43.795126467402916 -43.210400955403784 0.40490216649797617 0 -0.75470958851134928 0.65605901945558964 1 0 0 forward_v I I I I #
loop $-1 $-1 $388 $103 #
coedge $-1 $262 $262 $263 $389 reversed $163 $-1 #
coedge $-1 $263 $263 $262 $389 forward $165 $-1 #
coedge $-1 $264 $264 $166 $265 forward $259 $-1 #
edge $-1 $390 3.5047722610585074e-016 $390 6.2831853071796004 $264 $391 forward 7 unknown #
loop $-1 $-1 $271 $167 #
plane-surface $-1 -43.795126467402916 -43.210400955403784 0.40490216649797617 0 -0.75470958851134928 0.65605901945558964 1 0 0 forward_v I I I I #
loop $-1 $-1 $392 $106 #
coedge $-1 $269 $269 $270 $393 reversed $168 $-1 #
coedge $-1 $270 $270 $269 $393 forward $170 $-1 #
coedge $-1 $271 $271 $171 $272 forward $266 $-1 #
edge $-1 $394 3.5047722610585074e-016 $394 6.2831853071796004 $271 $395 forward 7 unknown #
loop $-1 $-1 $278 $172 #
plane-surface $-1 -43.795126467402916 -43.210400955403784 0.40490216649797617 0 -0.75470958851134928 0.65605901945558964 1 0 0 forward_v I I I I #
loop $-1 $-1 $396 $109 #
coedge $-1 $276 $276 $277 $397 reversed $173 $-1 #
coedge $-1 $277 $277 $276 $397 forward $175 $-1 #
coedge $-1 $278 $278 $176 $279 forward $273 $-1 #
edge $-1 $398 3.5047722610585074e-016 $398 6.2831853071796004 $278 $399 forward 7 unknown #
face $-1 $400 $401 $42 $-1 $402 reversed single #
loop $-1 $-1 $403 $177 #
plane-surface $-1 -78.574175237281409 0 0 1 0 0 0 0 -1 forward_v I I I I #
coedge $-1 $404 $291 $405 $406 forward $178 $-1 #
coedge $-1 $407 $180 $404 $408 forward $113 $-1 #
coedge $-1 $180 $407 $409 $410 forward $113 $-1 #
coedge $-1 $294 $293 $180 $287 reversed $295 $-1 #
edge $-1 $411 -43.210400955403799 $412 43.210400955403799 $286 $413 forward 7 unknown #
coedge $-1 $182 $181 $414 $415 forward $71 $-1 #
coedge $-1 $416 $417 $181 $290 reversed $401 $-1 #
edge $-1 $297 -78.574175237281409 $418 78.574175237281409 $289 $419 forward 7 unknown #
coedge $-1 $283 $420 $182 $292 reversed $178 $-1 #
edge $-1 $421 -78.574175237281409 $296 78.574175237281409 $291 $422 forward 7 unknown #
coedge $-1 $286 $183 $420 $423 forward $295 $-1 #
coedge $-1 $183 $286 $416 $424 reversed $295 $-1 #
loop $-1 $-1 $293 $400 #
vertex $-1 $184 $425 #
vertex $-1 $184 $426 #
straight-curve $-1 78.574175237281409 0 10.935065364616822 0 1 0 I I #
face $-1 $427 $428 $43 $-1 $429 forward single #
loop $-1 $-1 $430 $185 #
plane-surface $-1 0 0 -10.935065364616822 0 0 1 1 0 0 forward_v I I I I #
coedge $-1 $431 $432 $307 $433 forward $186 $-1 #
coedge $-1 $434 $188 $430 $435 reversed $117 $-1 #
coedge $-1 $188 $434 $436 $437 reversed $117 $-1 #
coedge $-1 $432 $431 $188 $306 reversed $186 $-1 #
edge $-1 $438 -10.935065364616822 $439 10.935065364616822 $305 $440 forward 7 unknown #
coedge $-1 $190 $189 $302 $433 reversed $74 $-1 #
coedge $-1 $441 $442 $189 $309 forward $300 $-1 #
edge $-1 $443 28.996596084395804 $315 42.717251463389005 $308 $444 forward 7 unknown #
coedge $-1 $445 $446 $190 $311 forward $428 $-1 #
edge $-1 $316 -42.717251463389005 $447 -28.996596084395804 $310 $448 forward 7 unknown #
coedge $-1 $449 $191 $446 $450 reversed $314 $-1 #
coedge $-1 $191 $449 $441 $451 reversed $314 $-1 #
loop $-1 $-1 $449 $427 #
vertex $-1 $451 $452 #
vertex $-1 $192 $453 #
straight-curve $-1 -78.574175237281409 -24.661003324017265 0 0 0 1 I I #
face $-1 $-1 $330 $44 $-1 $454 forward single #
loop $-1 $-1 $455 $193 #
plane-surface $-1 0 43.210400955403799 0 0 -1 0 0 0 -1 forward_v I I I I #
coedge $-1 $456 $457 $458 $459 reversed $194 $-1 #
coedge $-1 $460 $196 $198 $328 forward $121 $-1 #
coedge $-1 $196 $460 $456 $461 forward $121 $-1 #
coedge $-1 $458 $199 $196 $325 forward $330 $-1 #
edge $-1 $332 -41.10931808660078 $462 -6.379085456774046 $324 $463 forward 7 unknown #
coedge $-1 $464 $465 $197 $327 forward $319 $-1 #
edge $-1 $466 -78.199645842108851 $331 -67.430222272877572 $326 $467 forward 7 unknown #
edge $-1 $332 73.721730339978379 $466 86.420801910807583 $198 $468 forward 7 unknown #
coedge $-1 $199 $458 $464 $469 forward $330 $-1 #
loop $-1 $-1 $458 $318 #
vertex $-1 $327 $470 #
vertex $-1 $200 $471 #
straight-curve $-1 -64.853519858288195 65.341857483897755 10.935065364616818 0 -1 0 I I #
coedge $-1 $334 $334 $-1 $472 reversed $203 $-1 #
edge $-1 $473 0 $473 6.2831853071796004 $204 $474 forward 7 unknown #
vertex $-1 $207 $475 #
ellipse-curve $-1 -57.907473332322851 39.845659704299614 5.5503535800011958 0 0.84804810408105047 0.52991925155115449 1.5 0 0 1 I I #
coedge $-1 $338 $338 $-1 $476 reversed $210 $-1 #
edge $-1 $477 0 $477 6.2831853071796004 $211 $478 forward 7 unknown #
vertex $-1 $214 $479 #
ellipse-curve $-1 -47.488403543374829 39.845659704299614 5.5503535800011958 0 0.84804810408105047 0.52991925155115449 1.5 0 0 1 I I #
coedge $-1 $342 $342 $-1 $480 reversed $217 $-1 #
edge $-1 $481 0 $481 6.2831853071796004 $218 $482 forward 7 unknown #
vertex $-1 $221 $483 #
ellipse-curve $-1 -37.069333754426808 39.845659704299614 5.5503535800011958 0 0.84804810408105047 0.52991925155115449 1.5 0 0 1 I I #
face $-1 $-1 $484 $48 $-1 $485 reversed single #
loop $-1 $-1 $486 $222 #
plane-surface $-1 78.574175237281409 0 0 -1 0 0 0 0 1 forward_v I I I I #
coedge $-1 $487 $225 $227 $355 forward $140 $-1 #
coedge $-1 $225 $487 $486 $488 reversed $140 $-1 #
coedge $-1 $489 $228 $225 $352 forward $223 $-1 #
edge $-1 $358 13.239413146270671 $490 47.969645776097401 $351 $491 forward 7 unknown #
coedge $-1 $492 $493 $226 $354 forward $484 $-1 #
edge $-1 $494 -78.199645842108851 $357 -67.430222272877572 $353 $495 forward 7 unknown #
edge $-1 $358 73.721730339978379 $494 86.420801910807583 $227 $496 forward 7 unknown #
coedge $-1 $228 $489 $492 $497 forward $223 $-1 #
vertex $-1 $354 $498 #
vertex $-1 $229 $499 #
straight-curve $-1 43.843942607454707 65.341857483897755 10.935065364616818 0 -1 0 I I #
coedge $-1 $360 $360 $-1 $500 reversed $232 $-1 #
edge $-1 $501 0 $501 6.2831853071796004 $233 $502 forward 7 unknown #
vertex $-1 $236 $503 #
ellipse-curve $-1 50.789989133420036 39.845659704299614 5.5503535800011958 0 0.84804810408105047 0.52991925155115449 1.5 0 0 1 I I #
coedge $-1 $364 $364 $-1 $504 reversed $239 $-1 #
edge $-1 $505 0 $505 6.2831853071796004 $240 $506 forward 7 unknown #
vertex $-1 $243 $507 #
ellipse-curve $-1 61.209058922368072 39.845659704299614 5.5503535800011958 0 0.84804810408105047 0.52991925155115449 1.5 0 0 1 I I #
coedge $-1 $368 $368 $-1 $508 reversed $246 $-1 #
edge $-1 $509 0 $509 6.2831853071796004 $247 $510 forward 7 unknown #
vertex $-1 $250 $511 #
ellipse-curve $-1 71.62812871131608 39.845659704299614 5.5503535800011958 0 0.84804810408105047 0.52991925155115449 1.5 0 0 1 I I #
face $-1 $-1 $384 $52 $-1 $512 forward single #
loop $-1 $-1 $513 $251 #
plane-surface $-1 0 -43.210400955403799 0 0 1 0 0 0 1 forward_v I I I I #
coedge $-1 $514 $515 $516 $517 reversed $252 $-1 #
coedge $-1 $518 $254 $256 $382 forward $159 $-1 #
coedge $-1 $254 $518 $514 $519 forward $159 $-1 #
coedge $-1 $516 $257 $254 $379 forward $384 $-1 #
edge $-1 $386 5.1913248692950198 $520 38.603801598107893 $378 $521 forward 7 unknown #
coedge $-1 $522 $523 $255 $381 forward $373 $-1 #
edge $-1 $524 -51.346845277453539 $385 -40.816682079334683 $380 $525 forward 7 unknown #
edge $-1 $386 -13.952602906356869 $524 2.1640230052520235e-014 $256 $526 forward 7 unknown #
coedge $-1 $257 $516 $522 $527 forward $384 $-1 #
loop $-1 $-1 $516 $372 #
vertex $-1 $381 $528 #
vertex $-1 $258 $529 #
straight-curve $-1 -27.088888102996478 -80.905883938649197 10.935065364616825 0 1 0 I I #
coedge $-1 $388 $388 $-1 $530 reversed $261 $-1 #
edge $-1 $531 0 $531 6.2831853071796004 $262 $532 forward 7 unknown #
vertex $-1 $265 $533 #
ellipse-curve $-1 -53.818869486046779 -38.63353546460494 5.6699837655573955 0 -0.75470958851134928 0.65605901945558964 2 0 0 1 I I #
coedge $-1 $392 $392 $-1 $534 reversed $268 $-1 #
edge $-1 $535 0 $535 6.2831853071796004 $269 $536 forward 7 unknown #
vertex $-1 $272 $537 #
ellipse-curve $-1 -43.795126467402916 -38.63353546460494 5.6699837655573955 0 -0.75470958851134928 0.65605901945558964 2 0 0 1 I I #
coedge $-1 $396 $396 $-1 $538 reversed $275 $-1 #
edge $-1 $539 0 $539 6.2831853071796004 $276 $540 forward 7 unknown #
vertex $-1 $279 $541 #
ellipse-curve $-1 -33.771383448759053 -38.63353546460494 5.6699837655573955 0 -0.75470958851134928 0.65605901945558964 2 0 0 1 I I #
face $-1 $-1 $295 $42 $-1 $542 reversed single #
loop $-1 $-1 $416 $280 #
plane-surface $-1 0 43.210400955403799 0 0 -1 0 0 0 -1 forward_v I I I I #
coedge $-1 $543 $414 $417 $544 forward $281 $-1 #
coedge $-1 $420 $283 $284 $408 reversed $178 $-1 #
coedge $-1 $414 $543 $283 $406 reversed $281 $-1 #
edge $-1 $421 -10.935065364616822 $545 10.935065364616822 $405 $546 forward 7 unknown #
coedge $-1 $285 $284 $543 $547 forward $113 $-1 #
edge $-1 $412 -78.574175237281409 $545 78.574175237281409 $404 $548 forward 7 unknown #
coedge $-1 $417 $416 $285 $410 reversed $401 $-1 #
edge $-1 $549 -78.574175237281409 $411 78.574175237281409 $409 $550 forward 7 unknown #
vertex $-1 $287 $551 #
vertex $-1 $423 $552 #
straight-curve $-1 78.574175237281409 0 -10.935065364616822 0 -1 0 I I #
coedge $-1 $403 $405 $288 $415 reversed $281 $-1 #
edge $-1 $418 -43.210400955403799 $421 43.210400955403799 $414 $553 forward 7 unknown #
coedge $-1 $409 $289 $294 $424 forward $401 $-1 #
coedge $-1 $289 $409 $403 $544 reversed $401 $-1 #
vertex $-1 $290 $554 #
straight-curve $-1 0 43.210400955403799 10.935065364616822 -1 0 0 I I #
coedge $-1 $291 $404 $293 $423 reversed $178 $-1 #
vertex $-1 $415 $555 #
straight-curve $-1 0 -43.210400955403799 10.935065364616822 1 0 0 I I #
edge $-1 $296 -10.935065364616822 $412 10.935065364616822 $293 $556 forward 7 unknown #
edge $-1 $297 -10.935065364616822 $411 10.935065364616822 $294 $557 forward 7 unknown #
point $-1 78.574175237281409 -43.210400955403799 10.935065364616822 #
point $-1 78.574175237281409 43.210400955403799 10.935065364616822 #
face $-1 $-1 $314 $43 $-1 $558 reversed single #
loop $-1 $-1 $436 $299 #
plane-surface $-1 0 0 10.935065364616822 0 0 1 1 0 0 forward_v I I I I #
coedge $-1 $442 $441 $303 $435 forward $300 $-1 #
coedge $-1 $305 $302 $442 $559 reversed $186 $-1 #
coedge $-1 $302 $305 $445 $560 reversed $186 $-1 #
edge $-1 $447 -10.935065364616822 $443 10.935065364616822 $302 $561 forward 7 unknown #
coedge $-1 $304 $303 $449 $562 reversed $117 $-1 #
edge $-1 $563 -42.717251463389005 $439 -28.996596084395804 $430 $564 forward 7 unknown #
coedge $-1 $446 $445 $304 $437 forward $428 $-1 #
edge $-1 $438 28.996596084395804 $565 42.717251463389005 $436 $566 forward 7 unknown #
vertex $-1 $437 $567 #
vertex $-1 $435 $568 #
straight-curve $-1 -64.853519858288209 -21.340270226170155 0 0 0 -1 I I #
coedge $-1 $430 $308 $313 $451 forward $300 $-1 #
coedge $-1 $308 $430 $431 $559 forward $300 $-1 #
vertex $-1 $309 $569 #
straight-curve $-1 -35.856923773892404 -24.661003324017265 -10.935065364616822 -1 0 0 I I #
coedge $-1 $436 $310 $432 $560 forward $428 $-1 #
coedge $-1 $310 $436 $312 $450 forward $428 $-1 #
vertex $-1 $311 $570 #
straight-curve $-1 -35.856923773892404 -24.661003324017265 10.935065364616822 1 0 0 I I #
coedge $-1 $313 $312 $434 $562 forward $314 $-1 #
edge $-1 $565 21.340270226170155 $316 24.661003324017265 $312 $571 forward 7 unknown #
edge $-1 $315 -24.661003324017265 $563 -21.340270226170155 $313 $572 forward 7 unknown #
point $-1 -78.574175237281409 -24.661003324017265 -10.935065364616822 #
point $-1 -78.574175237281409 -24.661003324017265 10.935065364616822 #
plane-surface $-1 0 0 10.935065364616822 0 0 1 1 0 0 forward_v I I I I #
coedge $-1 $465 $464 $457 $573 forward $319 $-1 #
coedge $-1 $457 $321 $323 $461 reversed $194 $-1 #
coedge $-1 $321 $456 $455 $573 reversed $194 $-1 #
coedge $-1 $329 $324 $321 $459 forward $330 $-1 #
edge $-1 $462 -28.860939030702312 $574 -22.131456528493956 $458 $575 forward 7 unknown #
coedge $-1 $323 $322 $465 $576 reversed $121 $-1 #
edge $-1 $577 -86.420801910807583 $462 -73.721730339978379 $456 $578 forward 7 unknown #
vertex $-1 $325 $579 #
straight-curve $-1 -23.744201771687415 36.480918453195436 10.935065364616825 1 0 0 I I #
coedge $-1 $455 $326 $329 $469 reversed $319 $-1 #
coedge $-1 $326 $455 $460 $576 forward $319 $-1 #
vertex $-1 $327 $580 #
straight-curve $-1 -64.853519858288195 43.210400955403799 78.36528763749439 0 0 1 I I #
straight-curve $-1 -64.853519858288195 -2.585645711621936 73.454639009009938 0 0.52991925155115449 -0.84804810408105047 I I #
edge $-1 $574 30.123287228461461 $331 64.853519858288195 $464 $581 forward 7 unknown #
point $-1 -64.853519858288195 43.210400955403799 10.935065364616822 #
point $-1 -64.853519858288195 36.480918453195443 10.935065364616818 #
edge $-1 $582 1 $582 0 $334 $-1 forward 7 unknown #
vertex $-1 $335 $583 #
ellipse-curve $-1 -57.907473332322851 36.704436936257956 3.5874998100492594 0 0.84804810408105047 0.52991925155115449 1.5 0 0 1 I I #
point $-1 -56.407473332322851 39.845659704299614 5.5503535800011967 #
edge $-1 $584 1 $584 0 $338 $-1 forward 7 unknown #
vertex $-1 $339 $585 #
ellipse-curve $-1 -47.488403543374829 36.704436936257956 3.5874998100492594 0 0.84804810408105047 0.52991925155115449 1.5 0 0 1 I I #
point $-1 -45.988403543374829 39.845659704299614 5.5503535800011967 #
edge $-1 $586 1 $586 0 $342 $-1 forward 7 unknown #
vertex $-1 $343 $587 #
ellipse-curve $-1 -37.069333754426808 36.704436936257956 3.5874998100492594 0 0.84804810408105047 0.52991925155115449 1.5 0 0 1 I I #
point $-1 -35.569333754426808 39.845659704299614 5.5503535800011967 #
loop $-1 $-1 $353 $346 #
plane-surface $-1 0 43.210400955403799 0 0 -1 0 0 0 -1 forward_v I I I I #
coedge $-1 $588 $589 $350 $488 forward $347 $-1 #
coedge $-1 $350 $349 $493 $590 reversed $140 $-1 #
edge $-1 $490 41.890104946064376 $591 54.589176516893588 $486 $592 forward 7 unknown #
coedge $-1 $356 $351 $589 $593 forward $223 $-1 #
vertex $-1 $593 $594 #
straight-curve $-1 30.604529461184036 36.480918453195436 10.935065364616825 1 0 0 I I #
coedge $-1 $595 $353 $356 $497 reversed $484 $-1 #
coedge $-1 $353 $595 $487 $590 forward $484 $-1 #
vertex $-1 $354 $596 #
straight-curve $-1 43.843942607454707 43.210400955403799 78.36528763749439 0 0 1 I I #
straight-curve $-1 43.843942607454707 -2.585645711621936 73.454639009009938 0 0.52991925155115449 -0.84804810408105047 I I #
edge $-1 $597 -78.574175237281409 $357 -43.843942607454707 $492 $598 forward 7 unknown #
point $-1 43.843942607454707 43.210400955403799 10.935065364616822 #
point $-1 43.843942607454707 36.480918453195443 10.935065364616818 #
edge $-1 $599 1 $599 0 $360 $-1 forward 7 unknown #
vertex $-1 $361 $600 #
ellipse-curve $-1 50.789989133420036 36.704436936257956 3.5874998100492594 0 0.84804810408105047 0.52991925155115449 1.5 0 0 1 I I #
point $-1 52.289989133420036 39.845659704299614 5.5503535800011967 #
edge $-1 $601 1 $601 0 $364 $-1 forward 7 unknown #
vertex $-1 $365 $602 #
ellipse-curve $-1 61.209058922368072 36.704436936257956 3.5874998100492594 0 0.84804810408105047 0.52991925155115449 1.5 0 0 1 I I #
point $-1 62.709058922368072 39.845659704299614 5.5503535800011967 #
edge $-1 $603 1 $603 0 $368 $-1 forward 7 unknown #
vertex $-1 $369 $604 #
ellipse-curve $-1 71.62812871131608 36.704436936257956 3.5874998100492594 0 0.84804810408105047 0.52991925155115449 1.5 0 0 1 I I #
point $-1 73.12812871131608 39.845659704299614 5.5503535800011967 #
plane-surface $-1 0 0 10.935065364616822 0 0 1 1 0 0 forward_v I I I I #
coedge $-1 $523 $522 $515 $605 forward $373 $-1 #
coedge $-1 $515 $375 $377 $519 reversed $252 $-1 #
coedge $-1 $375 $514 $513 $605 reversed $252 $-1 #
coedge $-1 $383 $378 $375 $517 forward $384 $-1 #
edge $-1 $520 -46.849213964843109 $606 -37.695482983245398 $516 $607 forward 7 unknown #
coedge $-1 $377 $376 $523 $608 reversed $159 $-1 #
edge $-1 $609 -2.1640230052520235e-014 $520 13.952602906356869 $514 $610 forward 7 unknown #
vertex $-1 $379 $611 #
straight-curve $-1 -21.897563233701458 -34.056669973806088 10.935065364616822 -1 0 0 I I #
coedge $-1 $513 $380 $383 $527 reversed $373 $-1 #
coedge $-1 $380 $513 $518 $608 forward $373 $-1 #
vertex $-1 $381 $612 #
straight-curve $-1 -27.088888102996478 -43.210400955403799 51.751747443951501 0 0 1 I I #
straight-curve $-1 -27.088888102996478 -43.210400955403784 0.40490216649797617 0 -0.65605901945558964 -0.75470958851134928 I I #
edge $-1 $606 -60.501364831809354 $385 -27.088888102996478 $522 $613 forward 7 unknown #
point $-1 -27.088888102996478 -43.210400955403799 10.935065364616822 #
point $-1 -27.088888102996478 -34.056669973806088 10.935065364616822 #
edge $-1 $614 1 $614 0 $388 $-1 forward 7 unknown #
vertex $-1 $389 $615 #
ellipse-curve $-1 -53.818869486046779 -36.003625792208851 3.3838382240223779 0 -0.75470958851134928 0.65605901945558964 2 0 0 1 I I #
point $-1 -51.818869486046779 -38.633535464604947 5.6699837655574026 #
edge $-1 $616 1 $616 0 $392 $-1 forward 7 unknown #
vertex $-1 $393 $617 #
ellipse-curve $-1 -43.795126467402916 -36.003625792208851 3.3838382240223779 0 -0.75470958851134928 0.65605901945558964 2 0 0 1 I I #
point $-1 -41.795126467402916 -38.633535464604947 5.6699837655574026 #
edge $-1 $618 1 $618 0 $396 $-1 forward 7 unknown #
vertex $-1 $397 $619 #
ellipse-curve $-1 -33.771383448759053 -36.003625792208851 3.3838382240223779 0 -0.75470958851134928 0.65605901945558964 2 0 0 1 I I #
point $-1 -31.771383448759053 -38.633535464604947 5.6699837655574026 #
plane-surface $-1 78.574175237281409 0 0 -1 0 0 0 0 1 forward_v I I I I #
coedge $-1 $405 $403 $407 $547 reversed $281 $-1 #
edge $-1 $418 -10.935065364616822 $549 10.935065364616822 $417 $620 forward 7 unknown #
vertex $-1 $547 $621 #
straight-curve $-1 -78.574175237281409 -43.210400955403799 0 0 0 -1 I I #
edge $-1 $545 -43.210400955403799 $549 43.210400955403799 $543 $622 forward 7 unknown #
straight-curve $-1 0 -43.210400955403799 -10.935065364616822 -1 0 0 I I #
vertex $-1 $410 $623 #
straight-curve $-1 0 43.210400955403799 -10.935065364616822 1 0 0 I I #
point $-1 78.574175237281409 43.210400955403799 -10.935065364616822 #
point $-1 78.574175237281409 -43.210400955403799 -10.935065364616822 #
straight-curve $-1 -78.574175237281409 0 10.935065364616822 0 -1 0 I I #
point $-1 -78.574175237281409 43.210400955403799 10.935065364616822 #
point $-1 -78.574175237281409 -43.210400955403799 10.935065364616822 #
straight-curve $-1 78.574175237281409 -43.210400955403799 0 0 0 -1 I I #
straight-curve $-1 78.574175237281409 43.210400955403799 0 0 0 -1 I I #
plane-surface $-1 -78.574175237281409 0 0 1 0 0 0 0 -1 forward_v I I I I #
edge $-1 $439 9.8399518386232998 $443 13.16068493647041 $442 $624 forward 7 unknown #
edge $-1 $447 -13.16068493647041 $438 -9.8399518386232998 $445 $625 forward 7 unknown #
straight-curve $-1 -64.853519858288209 -24.661003324017265 0 0 0 -1 I I #
edge $-1 $565 -10.935065364616822 $563 10.935065364616822 $449 $626 forward 7 unknown #
vertex $-1 $562 $627 #
straight-curve $-1 -35.856923773892404 -21.340270226170155 -10.935065364616822 1 0 0 I I #
vertex $-1 $450 $628 #
straight-curve $-1 -35.856923773892404 -21.340270226170155 10.935065364616822 -1 0 0 I I #
point $-1 -64.853519858288209 -21.340270226170155 10.935065364616822 #
point $-1 -64.853519858288209 -21.340270226170155 -10.935065364616822 #
point $-1 -64.853519858288209 -24.661003324017265 -10.935065364616822 #
point $-1 -64.853519858288209 -24.661003324017265 10.935065364616822 #
straight-curve $-1 -78.574175237281409 0 10.935065364616822 0 -1 0 I I #
straight-curve $-1 -78.574175237281409 0 -10.935065364616822 0 1 0 I I #
edge $-1 $574 67.430222272877572 $577 78.199645842108851 $455 $629 forward 7 unknown #
vertex $-1 $469 $630 #
straight-curve $-1 -30.123287228461461 65.341857483897755 10.935065364616818 0 1 0 I I #
edge $-1 $577 6.379085456774046 $466 41.10931808660078 $465 $631 forward 7 unknown #
vertex $-1 $576 $632 #
straight-curve $-1 -30.123287228461461 -2.585645711621936 73.454639009009938 0 -0.52991925155115449 0.84804810408105047 I I #
point $-1 -30.123287228461461 36.480918453195443 10.935065364616818 #
point $-1 -64.853519858288195 43.210400955403799 0.16564179538553958 #
straight-curve $-1 0 43.210400955403799 10.935065364616822 -1 0 0 I I #
vertex $-1 $472 $633 #
point $-1 -56.407473332322851 36.704436936257956 3.5874998100492594 #
vertex $-1 $476 $634 #
point $-1 -45.988403543374829 36.704436936257956 3.5874998100492594 #
vertex $-1 $480 $635 #
point $-1 -35.569333754426808 36.704436936257956 3.5874998100492594 #
coedge $-1 $589 $486 $595 $636 reversed $347 $-1 #
coedge $-1 $486 $588 $489 $593 reversed $347 $-1 #
edge $-1 $591 -47.969645776097401 $494 -13.239413146270671 $493 $637 forward 7 unknown #
vertex $-1 $488 $638 #
straight-curve $-1 78.574175237281409 14.282545392777694 46.45988944388295 0 0.52991925155115449 -0.84804810408105047 I I #
edge $-1 $490 36.480918453195443 $597 43.210400955403799 $589 $639 forward 7 unknown #
point $-1 78.574175237281437 36.480918453195443 10.935065364616818 #
coedge $-1 $493 $492 $588 $636 forward $484 $-1 #
point $-1 43.843942607454707 43.210400955403799 0.16564179538553958 #
vertex $-1 $593 $640 #
straight-curve $-1 0 43.210400955403799 10.935065364616822 -1 0 0 I I #
vertex $-1 $500 $641 #
point $-1 52.289989133420036 36.704436936257956 3.5874998100492594 #
vertex $-1 $504 $642 #
point $-1 62.709058922368072 36.704436936257956 3.5874998100492594 #
vertex $-1 $508 $643 #
point $-1 73.12812871131608 36.704436936257956 3.5874998100492594 #
edge $-1 $606 40.816682079334683 $609 51.346845277453539 $513 $644 forward 7 unknown #
vertex $-1 $527 $645 #
straight-curve $-1 -60.501364831809354 -80.905883938649197 10.935065364616825 0 -1 0 I I #
edge $-1 $609 -38.603801598107893 $524 -5.1913248692950198 $523 $646 forward 7 unknown #
vertex $-1 $608 $647 #
straight-curve $-1 -60.501364831809354 -43.210400955403784 0.40490216649797617 0 0.65605901945558964 0.75470958851134928 I I #
point $-1 -60.501364831809354 -34.056669973806088 10.935065364616822 #
point $-1 -27.088888102996478 -43.210400955403799 0.40490216649795985 #
straight-curve $-1 0 -43.210400955403799 10.935065364616822 1 0 0 I I #
vertex $-1 $530 $648 #
point $-1 -51.818869486046779 -36.003625792208851 3.3838382240223779 #
vertex $-1 $534 $649 #
point $-1 -41.795126467402916 -36.003625792208851 3.3838382240223779 #
vertex $-1 $538 $650 #
point $-1 -31.771383448759053 -36.003625792208851 3.3838382240223779 #
straight-curve $-1 -78.574175237281409 43.210400955403799 0 0 0 -1 I I #
point $-1 -78.574175237281409 -43.210400955403799 -10.935065364616822 #
straight-curve $-1 -78.574175237281409 0 -10.935065364616822 0 1 0 I I #
point $-1 -78.574175237281409 43.210400955403799 -10.935065364616822 #
straight-curve $-1 -64.853519858288209 -11.500318387546855 -10.935065364616822 0 -1 0 I I #
straight-curve $-1 -64.853519858288209 -11.500318387546855 10.935065364616822 0 1 0 I I #
straight-curve $-1 -78.574175237281409 -21.340270226170155 0 0 0 -1 I I #
point $-1 -78.574175237281409 -21.340270226170155 -10.935065364616822 #
point $-1 -78.574175237281409 -21.340270226170155 10.935065364616822 #
straight-curve $-1 -30.123287228461461 43.210400955403799 78.36528763749439 0 0 -1 I I #
point $-1 -30.123287228461461 43.210400955403799 10.935065364616822 #
straight-curve $-1 -23.744201771687415 43.210400955403799 0.16564179538554669 -1 0 0 I I #
point $-1 -30.123287228461461 43.210400955403799 0.16564179538553958 #
point $-1 -57.907473332322851 35.432364780136375 2.7926209327225275 #
point $-1 -47.488403543374829 35.432364780136375 2.7926209327225275 #
point $-1 -37.069333754426808 35.432364780136375 2.7926209327225275 #
edge $-1 $597 -10.935065364616822 $591 -0.16564179538553958 $588 $651 forward 7 unknown #
straight-curve $-1 30.604529461184036 43.210400955403799 0.16564179538554669 -1 0 0 I I #
point $-1 78.574175237281437 43.210400955403799 0.16564179538553958 #
straight-curve $-1 78.574175237281409 0 10.935065364616822 0 1 0 I I #
point $-1 78.574175237281409 43.210400955403799 10.935065364616822 #
point $-1 50.789989133420036 35.432364780136375 2.7926209327225275 #
point $-1 61.209058922368072 35.432364780136375 2.7926209327225275 #
point $-1 71.62812871131608 35.432364780136375 2.7926209327225275 #
straight-curve $-1 -60.501364831809354 -43.210400955403799 51.751747443951501 0 0 -1 I I #
point $-1 -60.501364831809354 -43.210400955403799 10.935065364616822 #
straight-curve $-1 -21.897563233701458 -43.210400955403799 0.40490216649795907 1 0 0 I I #
point $-1 -60.501364831809354 -43.210400955403799 0.40490216649795985 #
point $-1 -53.818869486046779 -34.494206615186158 2.0717201851111988 #
point $-1 -43.795126467402916 -34.494206615186158 2.0717201851111988 #
point $-1 -33.771383448759053 -34.494206615186158 2.0717201851111988 #
straight-curve $-1 78.574175237281409 43.210400955403799 0 0 0 -1 I I #
End-of-ACIS-data 