500 0 9 0           
7 Unknown 11 ACIS 5.0 NT 24 Fri Mar 26 00:20:40 1999 
-1 9.9999999999999995e-007 1e-010 
body $-1 $9 $-1 $10 #
body $-1 $11 $-1 $12 #
body $-1 $13 $-1 $14 #
body $-1 $15 $-1 $16 #
body $-1 $17 $-1 $18 #
body $-1 $19 $-1 $20 #
body $-1 $21 $-1 $22 #
body $-1 $23 $-1 $24 #
body $-1 $25 $-1 $26 #
lump $-1 $-1 $27 $0 #
transform $-1 1 0 0 0 1 0 0 0 1 52.456434827723015 30.263266212447764 14.113652454368053 1 rotate no_reflect no_shear #
lump $-1 $-1 $28 $1 #
transform $-1 1 0 0 0 1 0 0 0 1 52.456434827723015 30.263266212447764 14.113652454368053 1 rotate no_reflect no_shear #
lump $-1 $-1 $29 $2 #
transform $-1 1 0 0 0 1 0 0 0 1 52.456434827723015 30.263266212447764 14.113652454368053 1 rotate no_reflect no_shear #
lump $-1 $-1 $30 $3 #
transform $-1 1 0 0 0 1 0 0 0 1 52.456434827723015 30.263266212447764 14.113652454368053 1 rotate no_reflect no_shear #
lump $-1 $-1 $31 $4 #
transform $-1 1 0 0 0 1 0 0 0 1 52.456434827723015 30.263266212447764 14.113652454368053 1 rotate no_reflect no_shear #
lump $-1 $-1 $32 $5 #
transform $-1 1 0 0 0 1 0 0 0 1 52.456434827723015 30.263266212447764 14.113652454368053 1 rotate no_reflect no_shear #
lump $-1 $-1 $33 $6 #
transform $-1 1 0 0 0 1 0 0 0 1 52.456434827723015 30.263266212447764 14.113652454368053 1 rotate no_reflect no_shear #
lump $-1 $-1 $34 $7 #
transform $-1 1 0 0 0 1 0 0 0 1 52.456434827723015 30.263266212447764 14.113652454368053 1 rotate no_reflect no_shear #
lump $-1 $-1 $35 $8 #
transform $-1 1 0 0 0 1 0 0 0 1 52.456434827723015 30.263266212447764 14.113652454368053 1 rotate no_reflect no_shear #
shell $-1 $-1 $-1 $36 $-1 $9 #
shell $-1 $-1 $-1 $37 $-1 $11 #
shell $-1 $-1 $-1 $38 $-1 $13 #
shell $-1 $-1 $-1 $39 $-1 $15 #
shell $-1 $-1 $-1 $40 $-1 $17 #
shell $-1 $-1 $-1 $41 $-1 $19 #
shell $-1 $-1 $-1 $42 $-1 $21 #
shell $-1 $-1 $-1 $43 $-1 $23 #
shell $-1 $-1 $-1 $44 $-1 $25 #
face $-1 $45 $46 $27 $-1 $47 forward single #
face $-1 $48 $49 $28 $-1 $50 forward single #
face $-1 $51 $52 $29 $-1 $53 forward single #
face $-1 $54 $55 $30 $-1 $56 reversed single #
face $-1 $57 $58 $31 $-1 $59 forward single #
face $-1 $60 $61 $32 $-1 $62 reversed single #
face $-1 $63 $64 $33 $-1 $65 forward single #
face $-1 $66 $67 $34 $-1 $68 forward single #
face $-1 $69 $70 $35 $-1 $71 forward single #
face $-1 $72 $73 $27 $-1 $74 reversed single #
loop $-1 $-1 $75 $36 #
plane-surface $-1 0 0 14.113652454368053 0 0 1 1 0 0 forward_v I I I I #
face $-1 $76 $77 $28 $-1 $78 reversed single #
loop $-1 $-1 $79 $37 #
plane-surface $-1 0 -30.263266212447764 0 0 1 0 0 0 1 forward_v I I I I #
face $-1 $80 $81 $29 $-1 $82 reversed single #
loop $-1 $-1 $83 $38 #
plane-surface $-1 0 30.263266212447764 0 0 -1 0 0 0 -1 forward_v I I I I #
face $-1 $84 $85 $30 $-1 $86 reversed single #
loop $-1 $-1 $87 $39 #
plane-surface $-1 57.634447140133631 2.1604081939160498 152.4336788815508 0 -1 0 -0.73135370988377701 0 -0.68199835119979291 forward_v I I I I #
face $-1 $88 $89 $31 $-1 $90 forward single #
loop $-1 $91 $92 $40 #
cone-surface $-1 46.005701896086507 -1.5164567260351518 7.4488554882164673 -0.73135370988377701 0 -0.68199835119979291 1.0229975267996894 0 -1.0970305648256655 1 I I 0 1 1.5 forward I I I I #
face $-1 $93 $94 $32 $-1 $95 reversed single #
loop $-1 $-1 $96 $41 #
plane-surface $-1 -118.48024380530377 -14.012670580409829 83.228812004501705 0 1 0 -0.62932039886446345 0 0.77714595512881146 forward_v I I I I #
face $-1 $97 $98 $33 $-1 $99 forward single #
loop $-1 $100 $101 $42 #
cone-surface $-1 -44.383763430607857 -12.668862501672475 7.4041345288168472 0.62932039886446345 0 -0.77714595512881146 0.38857297756440573 0 0.31466019943223172 1 I I 0 1 0.5 forward I I I I #
face $-1 $102 $103 $34 $-1 $104 forward single #
loop $-1 $105 $106 $43 #
cone-surface $-1 -44.383763430607857 -10.653150383566445 7.4041345288168472 0.62932039886446345 0 -0.77714595512881146 0.38857297756440573 0 0.31466019943223172 1 I I 0 1 0.5 forward I I I I #
face $-1 $107 $108 $35 $-1 $109 forward single #
loop $-1 $110 $111 $44 #
cone-surface $-1 -44.383763430607857 -8.637438265460414 7.4041345288168472 0.62932039886446345 0 -0.77714595512881146 0.38857297756440573 0 0.31466019943223172 1 I I 0 1 0.5 forward I I I I #
face $-1 $112 $113 $27 $-1 $114 reversed single #
loop $-1 $-1 $115 $45 #
plane-surface $-1 0 0 -14.113652454368053 0 0 1 1 0 0 forward_v I I I I #
coedge $-1 $116 $117 $118 $119 forward $46 $-1 #
face $-1 $120 $121 $28 $-1 $122 reversed single #
loop $-1 $-1 $123 $48 #
plane-surface $-1 0 0 -14.113652454368053 0 0 1 1 0 0 forward_v I I I I #
coedge $-1 $124 $125 $126 $127 forward $49 $-1 #
face $-1 $128 $129 $29 $-1 $130 forward single #
loop $-1 $-1 $131 $51 #
plane-surface $-1 -52.456434827723015 0 0 1 0 0 0 0 -1 forward_v I I I I #
coedge $-1 $132 $133 $134 $135 forward $52 $-1 #
face $-1 $136 $137 $30 $-1 $138 reversed single #
loop $-1 $-1 $139 $54 #
plane-surface $-1 -19.093969296929956 -1.5164567260351554 80.883274756897819 0.73135370988377701 0 0.68199835119979291 0.68199835119979291 0 -0.73135370988377701 forward_v I I I I #
coedge $-1 $140 $141 $142 $143 reversed $55 $-1 #
face $-1 $-1 $144 $31 $-1 $145 forward single #
loop $-1 $146 $147 $57 #
cone-surface $-1 43.64981645431979 -1.5164567260351518 5.2519568259319396 -0.73135370988377701 0 -0.68199835119979291 0.51149876339984468 0 -0.54851528241283276 1 I I -0.70710678118654757 0.70710678118654757 0.75 forward I I I I #
loop $-1 $-1 $148 $40 #
coedge $-1 $92 $92 $149 $150 reversed $58 $-1 #
face $-1 $151 $152 $32 $-1 $153 reversed single #
loop $-1 $-1 $154 $60 #
plane-surface $-1 -52.456434827723015 -10.653150383566445 1.6961997108156055 -0.62932039886446345 0 0.77714595512881146 0.77714595512881146 0 0.62932039886446345 forward_v I I I I #
coedge $-1 $155 $156 $157 $158 reversed $61 $-1 #
face $-1 $-1 $159 $33 $-1 $160 forward single #
loop $-1 $161 $162 $63 #
cone-surface $-1 -43.820900318347924 -12.668862501672475 6.7090564862596604 0.62932039886446345 0 -0.77714595512881146 0.19428648878220287 0 0.15733009971611586 1 I I -0.70710678118654746 0.70710678118654746 0.25 forward I I I I #
loop $-1 $-1 $163 $42 #
coedge $-1 $101 $101 $164 $165 reversed $64 $-1 #
face $-1 $-1 $166 $34 $-1 $167 forward single #
loop $-1 $168 $169 $66 #
cone-surface $-1 -43.820900318347924 -10.653150383566445 6.7090564862596604 0.62932039886446345 0 -0.77714595512881146 0.19428648878220287 0 0.15733009971611586 1 I I -0.70710678118654746 0.70710678118654746 0.25 forward I I I I #
loop $-1 $-1 $170 $43 #
coedge $-1 $106 $106 $171 $172 reversed $67 $-1 #
face $-1 $-1 $173 $35 $-1 $174 forward single #
loop $-1 $175 $176 $69 #
cone-surface $-1 -43.820900318347924 -8.637438265460414 6.7090564862596604 0.62932039886446345 0 -0.77714595512881146 0.19428648878220287 0 0.15733009971611586 1 I I -0.70710678118654746 0.70710678118654746 0.25 forward I I I I #
loop $-1 $-1 $177 $44 #
coedge $-1 $111 $111 $178 $179 reversed $70 $-1 #
face $-1 $180 $181 $27 $-1 $182 reversed single #
loop $-1 $-1 $183 $72 #
plane-surface $-1 0 -30.263266212447764 0 0 1 0 0 0 1 forward_v I I I I #
coedge $-1 $184 $185 $186 $187 forward $73 $-1 #
coedge $-1 $188 $75 $189 $190 forward $46 $-1 #
coedge $-1 $75 $188 $191 $192 forward $46 $-1 #
coedge $-1 $193 $194 $75 $119 reversed $195 $-1 #
edge $-1 $196 -30.263266212447764 $197 30.263266212447764 $118 $198 forward 7 unknown #
face $-1 $199 $200 $28 $-1 $201 forward single #
loop $-1 $-1 $202 $76 #
plane-surface $-1 52.456434827723015 0 0 -1 0 0 0 0 1 forward_v I I I I #
coedge $-1 $203 $204 $205 $206 forward $77 $-1 #
coedge $-1 $205 $79 $202 $207 reversed $49 $-1 #
coedge $-1 $79 $205 $208 $209 reversed $49 $-1 #
coedge $-1 $210 $211 $79 $127 reversed $200 $-1 #
edge $-1 $212 -52.456434827723015 $213 52.456434827723015 $126 $214 forward 7 unknown #
face $-1 $215 $216 $29 $-1 $217 reversed single #
loop $-1 $-1 $218 $80 #
plane-surface $-1 0 38.388564028466732 -8.9033125306793242 0 0 1 1 0 0 forward_v I I I I #
coedge $-1 $219 $220 $132 $221 forward $81 $-1 #
coedge $-1 $222 $83 $131 $221 reversed $52 $-1 #
coedge $-1 $83 $222 $223 $224 reversed $52 $-1 #
coedge $-1 $218 $225 $83 $135 reversed $129 $-1 #
edge $-1 $226 -52.456434827723015 $227 52.456434827723015 $134 $228 forward 7 unknown #
face $-1 $229 $230 $30 $-1 $231 forward single #
loop $-1 $-1 $232 $84 #
plane-surface $-1 57.634447140133631 -5.1933216459863605 152.4336788815508 0 1 0 0.73135370988377701 0 0.68199835119979291 forward_v I I I I #
coedge $-1 $233 $234 $235 $236 reversed $85 $-1 #
coedge $-1 $141 $87 $237 $238 reversed $55 $-1 #
coedge $-1 $87 $140 $233 $239 reversed $55 $-1 #
coedge $-1 $235 $240 $87 $143 forward $230 $-1 #
edge $-1 $241 -23.6392112576562 $242 -14.352485713090964 $142 $243 forward 7 unknown #
loop $-1 $-1 $149 $88 #
plane-surface $-1 -19.093969296929956 -1.5164567260351554 80.883274756897819 0.73135370988377701 0 0.68199835119979291 0.68199835119979291 0 -0.73135370988377701 forward_v I I I I #
loop $-1 $-1 $244 $57 #
coedge $-1 $147 $147 $148 $245 reversed $89 $-1 #
coedge $-1 $148 $148 $147 $245 forward $91 $-1 #
coedge $-1 $149 $149 $92 $150 forward $144 $-1 #
edge $-1 $246 0 $246 6.2831853071796004 $149 $247 forward 7 unknown #
face $-1 $248 $249 $32 $-1 $250 reversed single #
loop $-1 $-1 $251 $93 #
plane-surface $-1 -118.48024380530377 -7.2936301867230604 83.228812004501705 0 -1 0 0.62932039886446345 0 -0.77714595512881146 forward_v I I I I #
coedge $-1 $252 $253 $254 $255 reversed $94 $-1 #
coedge $-1 $156 $96 $256 $257 reversed $61 $-1 #
coedge $-1 $96 $155 $252 $258 reversed $61 $-1 #
coedge $-1 $254 $259 $96 $158 forward $260 $-1 #
edge $-1 $261 6.7836870749288707 $262 22.117963844071546 $157 $263 forward 7 unknown #
loop $-1 $-1 $164 $97 #
plane-surface $-1 -52.456434827723015 -10.653150383566445 1.6961997108156055 -0.62932039886446345 0 0.77714595512881146 0.77714595512881146 0 0.62932039886446345 forward_v I I I I #
loop $-1 $-1 $264 $63 #
coedge $-1 $162 $162 $163 $265 reversed $98 $-1 #
coedge $-1 $163 $163 $162 $265 forward $100 $-1 #
coedge $-1 $164 $164 $101 $165 forward $159 $-1 #
edge $-1 $266 0 $266 6.2831853071796004 $164 $267 forward 7 unknown #
loop $-1 $-1 $171 $102 #
plane-surface $-1 -52.456434827723015 -10.653150383566445 1.6961997108156055 -0.62932039886446345 0 0.77714595512881146 0.77714595512881146 0 0.62932039886446345 forward_v I I I I #
loop $-1 $-1 $268 $66 #
coedge $-1 $169 $169 $170 $269 reversed $103 $-1 #
coedge $-1 $170 $170 $169 $269 forward $105 $-1 #
coedge $-1 $171 $171 $106 $172 forward $166 $-1 #
edge $-1 $270 0 $270 6.2831853071796004 $171 $271 forward 7 unknown #
loop $-1 $-1 $178 $107 #
plane-surface $-1 -52.456434827723015 -10.653150383566445 1.6961997108156055 -0.62932039886446345 0 0.77714595512881146 0.77714595512881146 0 0.62932039886446345 forward_v I I I I #
loop $-1 $-1 $272 $69 #
coedge $-1 $176 $176 $177 $273 reversed $108 $-1 #
coedge $-1 $177 $177 $176 $273 forward $110 $-1 #
coedge $-1 $178 $178 $111 $179 forward $173 $-1 #
edge $-1 $274 0 $274 6.2831853071796004 $178 $275 forward 7 unknown #
face $-1 $276 $277 $27 $-1 $278 reversed single #
loop $-1 $-1 $279 $112 #
plane-surface $-1 -52.456434827723015 0 0 1 0 0 0 0 -1 forward_v I I I I #
coedge $-1 $280 $191 $281 $282 forward $113 $-1 #
coedge $-1 $283 $115 $280 $284 forward $73 $-1 #
coedge $-1 $115 $283 $285 $286 forward $73 $-1 #
coedge $-1 $194 $193 $115 $187 reversed $195 $-1 #
edge $-1 $287 -30.263266212447764 $288 30.263266212447764 $186 $289 forward 7 unknown #
coedge $-1 $117 $116 $290 $291 forward $46 $-1 #
coedge $-1 $292 $293 $116 $190 reversed $277 $-1 #
edge $-1 $197 -52.456434827723015 $294 52.456434827723015 $189 $295 forward 7 unknown #
coedge $-1 $183 $296 $117 $192 reversed $113 $-1 #
edge $-1 $297 -52.456434827723015 $196 52.456434827723015 $191 $298 forward 7 unknown #
coedge $-1 $186 $118 $296 $299 forward $195 $-1 #
coedge $-1 $118 $186 $292 $300 reversed $195 $-1 #
loop $-1 $-1 $193 $276 #
vertex $-1 $119 $301 #
vertex $-1 $119 $302 #
straight-curve $-1 52.456434827723015 0 14.113652454368053 0 1 0 I I #
face $-1 $303 $304 $28 $-1 $305 reversed single #
loop $-1 $-1 $211 $120 #
plane-surface $-1 0 -38.388564028466732 -8.9033125306793242 0 0 1 1 0 0 forward_v I I I I #
coedge $-1 $306 $307 $124 $207 forward $121 $-1 #
coedge $-1 $308 $123 $307 $309 forward $77 $-1 #
coedge $-1 $123 $308 $310 $311 forward $77 $-1 #
coedge $-1 $125 $124 $123 $206 reversed $49 $-1 #
edge $-1 $312 -52.456434827723015 $313 52.456434827723015 $123 $314 forward 7 unknown #
edge $-1 $313 -14.113652454368053 $213 -8.9033125306793242 $202 $315 forward 7 unknown #
coedge $-1 $310 $316 $125 $209 forward $317 $-1 #
edge $-1 $212 8.9033125306793242 $312 14.113652454368053 $208 $318 forward 7 unknown #
coedge $-1 $319 $126 $316 $320 forward $200 $-1 #
coedge $-1 $126 $319 $306 $321 forward $200 $-1 #
vertex $-1 $209 $322 #
vertex $-1 $321 $323 #
straight-curve $-1 0 -30.263266212447764 -8.9033125306793242 1 0 0 I I #
face $-1 $324 $325 $29 $-1 $326 reversed single #
loop $-1 $-1 $327 $128 #
plane-surface $-1 0 46.513861844485703 -11.508482492523688 0 -1 0 0 0 -1 forward_v I I I I #
coedge $-1 $328 $134 $329 $330 forward $129 $-1 #
coedge $-1 $331 $131 $225 $332 reversed $81 $-1 #
coedge $-1 $131 $331 $333 $334 reversed $81 $-1 #
edge $-1 $335 -14.113652454368053 $227 -8.9033125306793242 $131 $336 forward 7 unknown #
coedge $-1 $133 $132 $337 $338 reversed $52 $-1 #
coedge $-1 $339 $329 $133 $224 forward $340 $-1 #
edge $-1 $226 8.9033125306793242 $341 14.113652454368053 $223 $342 forward 7 unknown #
coedge $-1 $134 $328 $219 $332 forward $129 $-1 #
vertex $-1 $224 $343 #
vertex $-1 $332 $344 #
straight-curve $-1 0 30.263266212447764 -8.9033125306793242 -1 0 0 I I #
face $-1 $-1 $345 $30 $-1 $346 reversed single #
loop $-1 $-1 $142 $136 #
plane-surface $-1 0 0 14.113652454368053 0 0 1 1 0 0 forward_v I I I I #
coedge $-1 $347 $348 $349 $350 reversed $137 $-1 #
coedge $-1 $351 $139 $141 $239 forward $85 $-1 #
coedge $-1 $139 $351 $347 $352 forward $85 $-1 #
coedge $-1 $349 $142 $139 $236 forward $230 $-1 #
edge $-1 $242 -2.9186365569336274 $353 4.4350932829687828 $235 $354 forward 7 unknown #
coedge $-1 $355 $356 $140 $238 forward $345 $-1 #
edge $-1 $357 -72.061981120941155 $241 -62.103186986407351 $237 $358 forward 7 unknown #
edge $-1 $242 91.295937109747427 $357 104.912869655446 $141 $359 forward 7 unknown #
coedge $-1 $142 $349 $355 $360 forward $230 $-1 #
vertex $-1 $238 $361 #
vertex $-1 $143 $362 #
straight-curve $-1 28.817223570066815 2.1604081939160498 14.113652454368051 -1 0 0 I I #
coedge $-1 $244 $244 $-1 $363 reversed $146 $-1 #
edge $-1 $364 0 $364 6.2831853071796004 $147 $365 forward 7 unknown #
vertex $-1 $150 $366 #
ellipse-curve $-1 47.813072055440394 -1.5164567260351518 9.1342553871011525 0.73135370988377701 0 0.68199835119979291 1.0229975267996894 0 -1.0970305648256655 1 I I #
face $-1 $-1 $260 $32 $-1 $367 forward single #
loop $-1 $-1 $368 $151 #
plane-surface $-1 -52.456434827723015 0 0 1 0 0 0 0 -1 forward_v I I I I #
coedge $-1 $369 $370 $371 $372 reversed $152 $-1 #
coedge $-1 $373 $154 $156 $258 forward $94 $-1 #
coedge $-1 $154 $373 $369 $374 forward $94 $-1 #
coedge $-1 $371 $157 $154 $255 forward $260 $-1 #
edge $-1 $262 -8.6860953886266064 $375 -1.9670549949398382 $254 $376 forward 7 unknown #
coedge $-1 $377 $378 $155 $257 forward $249 $-1 #
edge $-1 $379 -39.918206291435247 $261 -27.500753547882802 $256 $380 forward 7 unknown #
edge $-1 $262 -19.731527479417981 $379 0 $156 $381 forward 7 unknown #
coedge $-1 $157 $371 $377 $382 forward $260 $-1 #
loop $-1 $-1 $371 $248 #
vertex $-1 $257 $383 #
vertex $-1 $158 $384 #
straight-curve $-1 -59.240121902651886 -14.012670580409829 14.113652454368051 1 0 0 I I #
coedge $-1 $264 $264 $-1 $385 reversed $161 $-1 #
edge $-1 $386 0 $386 6.2831853071796004 $162 $387 forward 7 unknown #
vertex $-1 $165 $388 #
ellipse-curve $-1 -44.78929644315167 -12.668862501672475 7.9049260825918317 -0.62932039886446345 0 0.77714595512881146 0.38857297756440573 0 0.31466019943223172 1 I I #
coedge $-1 $268 $268 $-1 $389 reversed $168 $-1 #
edge $-1 $390 0 $390 6.2831853071796004 $169 $391 forward 7 unknown #
vertex $-1 $172 $392 #
ellipse-curve $-1 -44.78929644315167 -10.653150383566445 7.9049260825918317 -0.62932039886446345 0 0.77714595512881146 0.38857297756440573 0 0.31466019943223172 1 I I #
coedge $-1 $272 $272 $-1 $393 reversed $175 $-1 #
edge $-1 $394 0 $394 6.2831853071796004 $176 $395 forward 7 unknown #
vertex $-1 $179 $396 #
ellipse-curve $-1 -44.78929644315167 -8.637438265460414 7.9049260825918317 -0.62932039886446345 0 0.77714595512881146 0.38857297756440573 0 0.31466019943223172 1 I I #
face $-1 $-1 $195 $27 $-1 $397 reversed single #
loop $-1 $-1 $292 $180 #
plane-surface $-1 0 30.263266212447764 0 0 -1 0 0 0 -1 forward_v I I I I #
coedge $-1 $398 $290 $293 $399 forward $181 $-1 #
coedge $-1 $296 $183 $184 $284 reversed $113 $-1 #
coedge $-1 $290 $398 $183 $282 reversed $181 $-1 #
edge $-1 $297 -14.113652454368053 $400 14.113652454368053 $281 $401 forward 7 unknown #
coedge $-1 $185 $184 $398 $402 forward $73 $-1 #
edge $-1 $288 -52.456434827723015 $400 52.456434827723015 $280 $403 forward 7 unknown #
coedge $-1 $293 $292 $185 $286 reversed $277 $-1 #
edge $-1 $404 -52.456434827723015 $287 52.456434827723015 $285 $405 forward 7 unknown #
vertex $-1 $187 $406 #
vertex $-1 $299 $407 #
straight-curve $-1 52.456434827723015 0 -14.113652454368053 0 -1 0 I I #
coedge $-1 $279 $281 $188 $291 reversed $181 $-1 #
edge $-1 $294 -30.263266212447764 $297 30.263266212447764 $290 $408 forward 7 unknown #
coedge $-1 $285 $189 $194 $300 forward $277 $-1 #
coedge $-1 $189 $285 $279 $399 reversed $277 $-1 #
vertex $-1 $190 $409 #
straight-curve $-1 0 30.263266212447764 14.113652454368053 -1 0 0 I I #
coedge $-1 $191 $280 $193 $299 reversed $113 $-1 #
vertex $-1 $291 $410 #
straight-curve $-1 0 -30.263266212447764 14.113652454368053 1 0 0 I I #
edge $-1 $196 -14.113652454368053 $288 14.113652454368053 $193 $411 forward 7 unknown #
edge $-1 $197 -14.113652454368053 $287 14.113652454368053 $194 $412 forward 7 unknown #
point $-1 52.456434827723015 -30.263266212447764 14.113652454368053 #
point $-1 52.456434827723015 30.263266212447764 14.113652454368053 #
face $-1 $-1 $317 $28 $-1 $413 reversed single #
loop $-1 $-1 $414 $199 #
plane-surface $-1 0 -46.513861844485703 -11.508482492523688 0 1 0 0 0 1 forward_v I I I I #
coedge $-1 $415 $202 $211 $321 reversed $121 $-1 #
coedge $-1 $202 $415 $203 $309 reversed $121 $-1 #
coedge $-1 $204 $203 $416 $417 forward $77 $-1 #
edge $-1 $313 30.263266212447764 $418 46.513861844485703 $307 $419 forward 7 unknown #
coedge $-1 $420 $208 $204 $311 reversed $317 $-1 #
edge $-1 $421 -46.513861844485703 $312 -30.263266212447764 $310 $422 forward 7 unknown #
vertex $-1 $209 $423 #
vertex $-1 $309 $424 #
straight-curve $-1 0 -30.263266212447764 -14.113652454368053 1 0 0 I I #
straight-curve $-1 52.456434827723015 -30.263266212447764 0 0 0 1 I I #
coedge $-1 $208 $420 $210 $320 reversed $317 $-1 #
loop $-1 $-1 $208 $303 #
straight-curve $-1 -52.456434827723015 -30.263266212447764 0 0 0 -1 I I #
coedge $-1 $211 $210 $425 $426 forward $200 $-1 #
edge $-1 $212 -8.1252978160189677 $427 8.1252978160189713 $316 $428 forward 7 unknown #
edge $-1 $429 -8.1252978160189713 $213 8.1252978160189677 $306 $430 forward 7 unknown #
point $-1 -52.456434827723015 -30.263266212447764 -8.9033125306793242 #
point $-1 52.456434827723015 -30.263266212447764 -8.9033125306793242 #
face $-1 $-1 $340 $29 $-1 $431 reversed single #
loop $-1 $-1 $337 $215 #
plane-surface $-1 0 0 -14.113652454368053 0 0 1 1 0 0 forward_v I I I I #
coedge $-1 $432 $433 $434 $435 forward $216 $-1 #
coedge $-1 $225 $218 $433 $436 forward $129 $-1 #
coedge $-1 $223 $434 $218 $330 reversed $340 $-1 #
edge $-1 $226 -8.1252978160189677 $437 8.1252978160189713 $329 $438 forward 7 unknown #
coedge $-1 $220 $219 $439 $440 forward $81 $-1 #
edge $-1 $441 -8.1252978160189713 $227 8.1252978160189677 $219 $442 forward 7 unknown #
coedge $-1 $443 $337 $220 $334 forward $325 $-1 #
edge $-1 $335 -8.1252978160189677 $444 8.1252978160189713 $220 $445 forward 7 unknown #
vertex $-1 $334 $446 #
straight-curve $-1 -52.456434827723015 30.263266212447764 0 0 0 1 I I #
coedge $-1 $333 $447 $222 $338 forward $325 $-1 #
edge $-1 $341 -52.456434827723015 $335 52.456434827723015 $337 $448 forward 7 unknown #
coedge $-1 $434 $223 $447 $449 reversed $340 $-1 #
loop $-1 $-1 $223 $324 #
vertex $-1 $224 $450 #
straight-curve $-1 52.456434827723015 30.263266212447764 0 0 0 -1 I I #
point $-1 52.456434827723015 30.263266212447764 -8.9033125306793242 #
point $-1 -52.456434827723015 30.263266212447764 -8.9033125306793242 #
loop $-1 $-1 $237 $229 #
plane-surface $-1 52.456434827723015 0 0 -1 0 0 0 0 1 forward_v I I I I #
coedge $-1 $348 $232 $234 $352 reversed $137 $-1 #
coedge $-1 $232 $347 $451 $452 reversed $137 $-1 #
coedge $-1 $240 $235 $232 $350 forward $230 $-1 #
edge $-1 $353 14.352485713090964 $453 23.6392112576562 $349 $454 forward 7 unknown #
coedge $-1 $234 $233 $356 $455 reversed $85 $-1 #
edge $-1 $456 -104.912869655446 $353 -91.295937109747427 $347 $457 forward 7 unknown #
vertex $-1 $236 $458 #
straight-curve $-1 43.169709283157772 -0.75822836301757768 14.113652454368044 0 -1 0 I I #
coedge $-1 $451 $237 $240 $360 reversed $345 $-1 #
coedge $-1 $237 $451 $351 $455 forward $345 $-1 #
vertex $-1 $238 $459 #
straight-curve $-1 52.456434827723015 2.1604081939160498 76.216839440775402 0 0 1 I I #
straight-curve $-1 -19.093969296929956 2.1604081939160498 80.883274756897819 0.68199835119979291 0 -0.73135370988377701 I I #
edge $-1 $453 -5.1933216459863605 $241 2.1604081939160498 $355 $460 forward 7 unknown #
point $-1 52.456434827723015 2.1604081939160498 14.113652454368053 #
point $-1 43.169709283157779 2.1604081939160498 14.113652454368051 #
edge $-1 $461 1 $461 0 $244 $-1 forward 7 unknown #
vertex $-1 $245 $462 #
ellipse-curve $-1 44.198331736732626 -1.5164567260351518 5.7634555893317838 0.73135370988377701 0 0.68199835119979291 1.0229975267996894 0 -1.0970305648256655 1 I I #
point $-1 48.836069582240079 -1.5164567260351518 8.0372248222754852 #
plane-surface $-1 0 0 14.113652454368053 0 0 1 1 0 0 forward_v I I I I #
coedge $-1 $378 $377 $370 $463 forward $249 $-1 #
coedge $-1 $370 $251 $253 $374 reversed $152 $-1 #
coedge $-1 $251 $369 $368 $463 reversed $152 $-1 #
coedge $-1 $259 $254 $251 $372 forward $260 $-1 #
edge $-1 $375 -22.117963844071546 $464 -6.7836870749288707 $371 $465 forward 7 unknown #
coedge $-1 $253 $252 $378 $466 reversed $94 $-1 #
edge $-1 $467 0 $375 19.731527479417981 $369 $468 forward 7 unknown #
vertex $-1 $255 $469 #
straight-curve $-1 -37.122158058580332 -5.3265751917832223 14.113652454368053 0 1 0 I I #
coedge $-1 $368 $256 $259 $382 reversed $249 $-1 #
coedge $-1 $256 $368 $373 $466 forward $249 $-1 #
vertex $-1 $257 $470 #
straight-curve $-1 -52.456434827723015 -14.012670580409829 41.614406002250853 0 0 1 I I #
straight-curve $-1 -52.456434827723015 -14.012670580409829 1.6961997108156055 -0.77714595512881146 0 -0.62932039886446345 I I #
edge $-1 $464 7.2936301867230604 $261 14.012670580409829 $377 $471 forward 7 unknown #
point $-1 -52.456434827723015 -14.012670580409829 14.113652454368053 #
point $-1 -37.122158058580339 -14.012670580409829 14.113652454368053 #
edge $-1 $472 1 $472 0 $264 $-1 forward 7 unknown #
vertex $-1 $265 $473 #
ellipse-curve $-1 -43.978230418064037 -12.668862501672475 6.9033429750418636 -0.62932039886446345 0 0.77714595512881146 0.38857297756440573 0 0.31466019943223172 1 I I #
point $-1 -44.400723465587262 -12.668862501672475 8.2195862820240606 #
edge $-1 $474 1 $474 0 $268 $-1 forward 7 unknown #
vertex $-1 $269 $475 #
ellipse-curve $-1 -43.978230418064037 -10.653150383566445 6.9033429750418636 -0.62932039886446345 0 0.77714595512881146 0.38857297756440573 0 0.31466019943223172 1 I I #
point $-1 -44.400723465587262 -10.653150383566445 8.2195862820240606 #
edge $-1 $476 1 $476 0 $272 $-1 forward 7 unknown #
vertex $-1 $273 $477 #
ellipse-curve $-1 -43.978230418064037 -8.637438265460414 6.9033429750418636 -0.62932039886446345 0 0.77714595512881146 0.38857297756440573 0 0.31466019943223172 1 I I #
point $-1 -44.400723465587262 -8.637438265460414 8.2195862820240606 #
plane-surface $-1 52.456434827723015 0 0 -1 0 0 0 0 1 forward_v I I I I #
coedge $-1 $281 $279 $283 $402 reversed $181 $-1 #
edge $-1 $294 -14.113652454368053 $404 14.113652454368053 $293 $478 forward 7 unknown #
vertex $-1 $402 $479 #
straight-curve $-1 -52.456434827723015 -30.263266212447764 0 0 0 -1 I I #
edge $-1 $400 -30.263266212447764 $404 30.263266212447764 $398 $480 forward 7 unknown #
straight-curve $-1 0 -30.263266212447764 -14.113652454368053 -1 0 0 I I #
vertex $-1 $286 $481 #
straight-curve $-1 0 30.263266212447764 -14.113652454368053 1 0 0 I I #
point $-1 52.456434827723015 30.263266212447764 -14.113652454368053 #
point $-1 52.456434827723015 -30.263266212447764 -14.113652454368053 #
straight-curve $-1 -52.456434827723015 0 14.113652454368053 0 -1 0 I I #
point $-1 -52.456434827723015 30.263266212447764 14.113652454368053 #
point $-1 -52.456434827723015 -30.263266212447764 14.113652454368053 #
straight-curve $-1 52.456434827723015 -30.263266212447764 0 0 0 -1 I I #
straight-curve $-1 52.456434827723015 30.263266212447764 0 0 0 -1 I I #
plane-surface $-1 -52.456434827723015 0 0 1 0 0 0 0 -1 forward_v I I I I #
coedge $-1 $416 $425 $420 $482 forward $304 $-1 #
coedge $-1 $307 $306 $483 $484 forward $121 $-1 #
coedge $-1 $483 $414 $308 $417 reversed $304 $-1 #
edge $-1 $418 -52.456434827723015 $421 52.456434827723015 $416 $485 forward 7 unknown #
vertex $-1 $484 $486 #
straight-curve $-1 52.456434827723015 0 -14.113652454368053 0 -1 0 I I #
coedge $-1 $316 $310 $414 $482 reversed $317 $-1 #
vertex $-1 $311 $487 #
straight-curve $-1 -52.456434827723015 0 -14.113652454368053 0 1 0 I I #
point $-1 -52.456434827723015 -30.263266212447764 -14.113652454368053 #
point $-1 52.456434827723015 -30.263266212447764 -14.113652454368053 #
coedge $-1 $414 $483 $319 $426 reversed $304 $-1 #
edge $-1 $427 -52.456434827723015 $429 52.456434827723015 $425 $488 forward 7 unknown #
vertex $-1 $320 $489 #
straight-curve $-1 -52.456434827723015 -38.388564028466732 -8.9033125306793242 0 -1 0 I I #
vertex $-1 $321 $490 #
straight-curve $-1 52.456434827723015 -38.388564028466732 -8.9033125306793242 0 1 0 I I #
plane-surface $-1 52.456434827723015 0 0 -1 0 0 0 0 1 forward_v I I I I #
coedge $-1 $439 $327 $443 $491 reversed $216 $-1 #
coedge $-1 $327 $439 $328 $436 reversed $216 $-1 #
coedge $-1 $329 $339 $327 $435 reversed $340 $-1 #
edge $-1 $437 -2.6051699618443642 $492 2.6051699618443642 $434 $493 forward 7 unknown #
edge $-1 $437 -52.456434827723015 $441 52.456434827723015 $433 $494 forward 7 unknown #
vertex $-1 $330 $495 #
straight-curve $-1 52.456434827723015 38.388564028466732 -8.9033125306793242 0 1 0 I I #
coedge $-1 $433 $432 $331 $440 reversed $216 $-1 #
edge $-1 $441 -2.6051699618443642 $444 2.6051699618443642 $439 $496 forward 7 unknown #
vertex $-1 $436 $497 #
straight-curve $-1 -52.456434827723015 38.388564028466732 -8.9033125306793242 0 -1 0 I I #
coedge $-1 $447 $333 $432 $491 forward $325 $-1 #
vertex $-1 $491 $498 #
straight-curve $-1 -52.456434827723015 38.388564028466732 -14.113652454368053 0 1 0 I I #
point $-1 -52.456434827723015 30.263266212447764 -14.113652454368053 #
coedge $-1 $337 $443 $339 $449 forward $325 $-1 #
straight-curve $-1 0 30.263266212447764 -14.113652454368053 -1 0 0 I I #
edge $-1 $492 -46.513861844485703 $341 -30.263266212447764 $339 $499 forward 7 unknown #
point $-1 52.456434827723015 30.263266212447764 -14.113652454368053 #
coedge $-1 $356 $355 $348 $452 forward $345 $-1 #
edge $-1 $453 62.103186986407351 $456 72.061981120941155 $451 $500 forward 7 unknown #
vertex $-1 $360 $501 #
straight-curve $-1 28.817223570066815 -5.1933216459863605 14.113652454368051 1 0 0 I I #
edge $-1 $456 -4.4350932829687828 $357 2.9186365569336274 $356 $502 forward 7 unknown #
vertex $-1 $455 $503 #
straight-curve $-1 -19.093969296929956 -5.1933216459863605 80.883274756897819 -0.68199835119979291 0 0.73135370988377701 I I #
point $-1 43.169709283157779 -5.1933216459863605 14.113652454368051 #
point $-1 52.456434827723015 2.1604081939160498 4.154858319834247 #
straight-curve $-1 52.456434827723015 0 14.113652454368053 0 1 0 I I #
vertex $-1 $363 $504 #
point $-1 45.221329263532311 -1.5164567260351518 4.6664250245061183 #
edge $-1 $464 27.500753547882802 $467 39.918206291435247 $368 $505 forward 7 unknown #
vertex $-1 $382 $506 #
straight-curve $-1 -59.240121902651886 -7.2936301867230604 14.113652454368051 -1 0 0 I I #
edge $-1 $467 1.9670549949398382 $379 8.6860953886266064 $378 $507 forward 7 unknown #
vertex $-1 $466 $508 #
straight-curve $-1 -52.456434827723015 -7.2936301867230604 1.6961997108156055 0.77714595512881146 0 0.62932039886446345 I I #
point $-1 -37.122158058580339 -7.2936301867230604 14.113652454368053 #
point $-1 -52.456434827723015 -14.012670580409829 1.6961997108156055 #
straight-curve $-1 -52.456434827723015 0 14.113652454368053 0 -1 0 I I #
vertex $-1 $385 $509 #
point $-1 -43.589657440499636 -12.668862501672475 7.2180031744740951 #
vertex $-1 $389 $510 #
point $-1 -43.589657440499636 -10.653150383566445 7.2180031744740951 #
vertex $-1 $393 $511 #
point $-1 -43.589657440499636 -8.637438265460414 7.2180031744740951 #
straight-curve $-1 -52.456434827723015 30.263266212447764 0 0 0 -1 I I #
point $-1 -52.456434827723015 -30.263266212447764 -14.113652454368053 #
straight-curve $-1 -52.456434827723015 0 -14.113652454368053 0 1 0 I I #
point $-1 -52.456434827723015 30.263266212447764 -14.113652454368053 #
edge $-1 $427 -2.6051699618443642 $421 2.6051699618443642 $420 $512 forward 7 unknown #
coedge $-1 $425 $416 $415 $484 reversed $304 $-1 #
edge $-1 $429 -2.6051699618443642 $418 2.6051699618443642 $415 $513 forward 7 unknown #
straight-curve $-1 0 -46.513861844485703 -14.113652454368053 -1 0 0 I I #
point $-1 52.456434827723015 -46.513861844485703 -14.113652454368053 #
point $-1 -52.456434827723015 -46.513861844485703 -14.113652454368053 #
straight-curve $-1 0 -46.513861844485703 -8.9033125306793242 1 0 0 I I #
point $-1 -52.456434827723015 -46.513861844485703 -8.9033125306793242 #
point $-1 52.456434827723015 -46.513861844485703 -8.9033125306793242 #
edge $-1 $444 -52.456434827723015 $492 52.456434827723015 $432 $514 forward 7 unknown #
vertex $-1 $449 $515 #
straight-curve $-1 52.456434827723015 46.513861844485703 -11.508482492523688 0 0 -1 I I #
straight-curve $-1 0 46.513861844485703 -8.9033125306793242 -1 0 0 I I #
point $-1 52.456434827723015 46.513861844485703 -8.9033125306793242 #
straight-curve $-1 -52.456434827723015 46.513861844485703 -11.508482492523688 0 0 -1 I I #
point $-1 -52.456434827723015 46.513861844485703 -8.9033125306793242 #
point $-1 -52.456434827723015 46.513861844485703 -14.113652454368053 #
straight-curve $-1 52.456434827723015 0 -14.113652454368053 0 -1 0 I I #
straight-curve $-1 52.456434827723015 -5.1933216459863605 76.216839440775402 0 0 -1 I I #
point $-1 52.456434827723015 -5.1933216459863605 14.113652454368053 #
straight-curve $-1 52.456434827723015 -0.75822836301757768 4.1548583198342399 0 1 0 I I #
point $-1 52.456434827723015 -5.1933216459863605 4.154858319834247 #
point $-1 43.101301171906954 -1.5164567260351518 4.7404580625320953 #
straight-curve $-1 -52.456434827723015 -7.2936301867230604 41.614406002250853 0 0 -1 I I #
point $-1 -52.456434827723015 -7.2936301867230604 14.113652454368053 #
straight-curve $-1 -52.456434827723015 -5.3265751917832223 1.6961997108156064 0 -1 0 I I #
point $-1 -52.456434827723015 -7.2936301867230604 1.6961997108156055 #
point $-1 -43.663570218631811 -12.668862501672475 6.5147699974774573 #
point $-1 -43.663570218631811 -10.653150383566445 6.5147699974774573 #
point $-1 -43.663570218631811 -8.637438265460414 6.5147699974774573 #
straight-curve $-1 -52.456434827723015 -46.513861844485703 -11.508482492523688 0 0 -1 I I #
straight-curve $-1 52.456434827723015 -46.513861844485703 -11.508482492523688 0 0 -1 I I #
straight-curve $-1 0 46.513861844485703 -14.113652454368053 1 0 0 I I #
point $-1 52.456434827723015 46.513861844485703 -14.113652454368053 #
End-of-ACIS-data 