500 0 7 0           
7 Unknown 11 ACIS 5.0 NT 24 Fri Mar 26 18:21:35 1999 
-1 9.9999999999999995e-007 1e-010 
body $-1 $7 $-1 $8 #
body $-1 $9 $-1 $10 #
body $-1 $11 $-1 $12 #
body $-1 $13 $-1 $14 #
body $-1 $15 $-1 $16 #
body $-1 $17 $-1 $18 #
body $-1 $19 $-1 $20 #
lump $-1 $-1 $21 $0 #
transform $-1 1 0 0 0 1 0 0 0 1 43.187353129673149 26.351442223196937 12.812139244808487 1 rotate no_reflect no_shear #
lump $-1 $-1 $22 $1 #
transform $-1 1 0 0 0 1 0 0 0 1 43.187353129673149 26.351442223196937 12.812139244808487 1 rotate no_reflect no_shear #
lump $-1 $-1 $23 $2 #
transform $-1 1 0 0 0 1 0 0 0 1 43.187353129673149 26.351442223196937 12.812139244808487 1 rotate no_reflect no_shear #
lump $-1 $-1 $24 $3 #
transform $-1 1 0 0 0 1 0 0 0 1 43.187353129673149 26.351442223196937 12.812139244808487 1 rotate no_reflect no_shear #
lump $-1 $-1 $25 $4 #
transform $-1 1 0 0 0 1 0 0 0 1 43.187353129673149 26.351442223196937 12.812139244808487 1 rotate no_reflect no_shear #
lump $-1 $-1 $26 $5 #
transform $-1 1 0 0 0 1 0 0 0 1 43.187353129673149 26.351442223196937 12.812139244808487 1 rotate no_reflect no_shear #
lump $-1 $-1 $27 $6 #
transform $-1 1 0 0 0 1 0 0 0 1 43.187353129673149 26.351442223196937 12.812139244808487 1 rotate no_reflect no_shear #
shell $-1 $-1 $-1 $28 $-1 $7 #
shell $-1 $-1 $-1 $29 $-1 $9 #
shell $-1 $-1 $-1 $30 $-1 $11 #
shell $-1 $-1 $-1 $31 $-1 $13 #
shell $-1 $-1 $-1 $32 $-1 $15 #
shell $-1 $-1 $-1 $33 $-1 $17 #
shell $-1 $-1 $-1 $34 $-1 $19 #
face $-1 $35 $36 $21 $-1 $37 forward single #
face $-1 $38 $39 $22 $-1 $40 reversed single #
face $-1 $41 $42 $23 $-1 $43 reversed single #
face $-1 $44 $45 $24 $-1 $46 forward single #
face $-1 $47 $48 $25 $-1 $49 forward single #
face $-1 $50 $51 $26 $-1 $52 reversed single #
face $-1 $53 $54 $27 $-1 $55 forward single #
face $-1 $56 $57 $21 $-1 $58 reversed single #
loop $-1 $-1 $59 $28 #
plane-surface $-1 0 0 12.812139244808487 0 0 1 1 0 0 forward_v I I I I #
face $-1 $60 $61 $22 $-1 $62 reversed single #
loop $-1 $-1 $63 $29 #
plane-surface $-1 -37.648815268654545 -19.752336160966969 0 1 0 0 0 0 -1 forward_v I I I I #
face $-1 $64 $65 $23 $-1 $66 reversed single #
loop $-1 $-1 $67 $30 #
plane-surface $-1 -102.09476184979084 -0.67736320468762479 65.602009635864533 0 1 0 -0.68199836817093118 0 0.7313536940579346 forward_v I I I I #
face $-1 $68 $69 $24 $-1 $70 forward single #
loop $-1 $71 $72 $31 #
cone-surface $-1 -36.698558980412074 1.5293842561758062 6.6321720078086592 0.68199836817093118 0 -0.7313536940579346 0.7313536940579346 0 0.68199836817093118 1 I I 0 1 1 forward I I I I #
face $-1 $73 $74 $25 $-1 $75 forward single #
loop $-1 $76 $77 $32 #
cone-surface $-1 -36.698558980412074 4.8395054474709482 6.6321720078086592 0.68199836817093118 0 -0.7313536940579346 0.7313536940579346 0 0.68199836817093118 1 I I 0 1 1 forward I I I I #
face $-1 $78 $79 $26 $-1 $80 reversed single #
loop $-1 $-1 $81 $33 #
plane-surface $-1 62.296181547085247 5.2162218075313671 121.2260261389039 0 -1 0 -0.80901700255871778 0 -0.5877852410284794 forward_v I I I I #
face $-1 $82 $83 $27 $-1 $84 forward single #
loop $-1 $85 $86 $34 #
cone-surface $-1 36.091824211466118 -0.20080513918980714 4.7687628212379707 -0.80901700255871778 0 -0.5877852410284794 1.4694631025711984 0 -2.0225425063967943 1 I I 0 1 2.5 forward I I I I #
face $-1 $87 $88 $21 $-1 $89 reversed single #
loop $-1 $-1 $90 $35 #
plane-surface $-1 0 0 -12.812139244808487 0 0 1 1 0 0 forward_v I I I I #
coedge $-1 $91 $92 $93 $94 forward $36 $-1 #
face $-1 $95 $96 $22 $-1 $97 reversed single #
loop $-1 $-1 $98 $38 #
plane-surface $-1 -33.895339800026377 -13.153230098737001 0 0 -1 0 0 0 -1 forward_v I I I I #
coedge $-1 $99 $100 $101 $102 forward $39 $-1 #
face $-1 $103 $104 $23 $-1 $105 reversed single #
loop $-1 $-1 $106 $41 #
plane-surface $-1 -43.187353129673156 3.1844448518233754 2.4315491399226161 -0.68199836817093118 0 0.7313536940579346 0.7313536940579346 0 0.68199836817093118 forward_v I I I I #
coedge $-1 $107 $108 $109 $110 reversed $42 $-1 #
face $-1 $-1 $111 $24 $-1 $112 forward single #
loop $-1 $113 $114 $44 #
cone-surface $-1 -35.434675533382695 1.5293842561758062 5.2768229762227943 0.68199836817093118 0 -0.7313536940579346 0.3656768470289673 0 0.34099918408546559 1 I I -0.70710678118654746 0.70710678118654746 0.5 forward I I I I #
loop $-1 $-1 $115 $31 #
coedge $-1 $72 $72 $116 $117 reversed $45 $-1 #
face $-1 $-1 $118 $25 $-1 $119 forward single #
loop $-1 $120 $121 $47 #
cone-surface $-1 -35.434675533382695 4.8395054474709482 5.2768229762227943 0.68199836817093118 0 -0.7313536940579346 0.3656768470289673 0 0.34099918408546559 1 I I -0.70710678118654746 0.70710678118654746 0.5 forward I I I I #
loop $-1 $-1 $122 $32 #
coedge $-1 $77 $77 $123 $124 reversed $48 $-1 #
face $-1 $125 $126 $26 $-1 $127 reversed single #
loop $-1 $-1 $128 $50 #
plane-surface $-1 -7.5824244077408096 -0.20080513918980714 70.456248601489932 0.80901700255871778 0 0.5877852410284794 0.5877852410284794 0 -0.80901700255871778 forward_v I I I I #
coedge $-1 $129 $130 $131 $132 reversed $51 $-1 #
face $-1 $-1 $133 $27 $-1 $134 forward single #
loop $-1 $135 $136 $53 #
cone-surface $-1 32.429464953575739 -0.20080513918980714 2.1079031454541575 -0.80901700255871778 0 -0.5877852410284794 0.73473155128559919 0 -1.0112712531983972 1 I I -0.70710678118654746 0.70710678118654746 1.25 forward I I I I #
loop $-1 $-1 $137 $34 #
coedge $-1 $86 $86 $138 $139 reversed $54 $-1 #
face $-1 $140 $141 $21 $-1 $142 reversed single #
loop $-1 $-1 $143 $56 #
plane-surface $-1 0 -26.351442223196937 0 0 1 0 0 0 1 forward_v I I I I #
coedge $-1 $144 $145 $146 $147 forward $57 $-1 #
coedge $-1 $148 $59 $149 $150 forward $36 $-1 #
coedge $-1 $59 $148 $151 $152 forward $36 $-1 #
coedge $-1 $153 $154 $59 $94 reversed $155 $-1 #
edge $-1 $156 -26.351442223196937 $157 26.351442223196937 $93 $158 forward 7 unknown #
face $-1 $159 $160 $22 $-1 $161 forward single #
loop $-1 $-1 $162 $60 #
plane-surface $-1 -30.141864331398214 -19.752336160966969 0 -1 0 0 0 0 1 forward_v I I I I #
coedge $-1 $163 $164 $165 $166 forward $61 $-1 #
coedge $-1 $167 $63 $168 $169 reversed $39 $-1 #
coedge $-1 $63 $167 $170 $171 reversed $39 $-1 #
coedge $-1 $164 $163 $63 $102 reversed $61 $-1 #
edge $-1 $172 -12.812139244808487 $173 12.812139244808487 $101 $174 forward 7 unknown #
face $-1 $175 $176 $23 $-1 $177 reversed single #
loop $-1 $-1 $178 $64 #
plane-surface $-1 -102.09476184979084 7.0462529083343757 65.602009635864533 0 -1 0 0.68199836817093118 0 -0.7313536940579346 forward_v I I I I #
coedge $-1 $179 $180 $181 $182 reversed $65 $-1 #
coedge $-1 $108 $67 $183 $184 reversed $42 $-1 #
coedge $-1 $67 $107 $179 $185 reversed $42 $-1 #
coedge $-1 $181 $186 $67 $110 forward $187 $-1 #
edge $-1 $188 7.8600277952222726 $189 18.991847567856603 $109 $190 forward 7 unknown #
loop $-1 $-1 $116 $68 #
plane-surface $-1 -43.187353129673156 3.1844448518233754 2.4315491399226161 -0.68199836817093118 0 0.7313536940579346 0.7313536940579346 0 0.68199836817093118 forward_v I I I I #
loop $-1 $-1 $191 $44 #
coedge $-1 $114 $114 $115 $192 reversed $69 $-1 #
coedge $-1 $115 $115 $114 $192 forward $71 $-1 #
coedge $-1 $116 $116 $72 $117 forward $111 $-1 #
edge $-1 $193 0 $193 6.2831853071796004 $116 $194 forward 7 unknown #
loop $-1 $-1 $123 $73 #
plane-surface $-1 -43.187353129673156 3.1844448518233754 2.4315491399226161 -0.68199836817093118 0 0.7313536940579346 0.7313536940579346 0 0.68199836817093118 forward_v I I I I #
loop $-1 $-1 $195 $47 #
coedge $-1 $121 $121 $122 $196 reversed $74 $-1 #
coedge $-1 $122 $122 $121 $196 forward $76 $-1 #
coedge $-1 $123 $123 $77 $124 forward $118 $-1 #
edge $-1 $197 0 $197 6.2831853071796004 $123 $198 forward 7 unknown #
face $-1 $199 $200 $26 $-1 $201 forward single #
loop $-1 $-1 $202 $78 #
plane-surface $-1 62.296181547085247 -5.6178320859109814 121.2260261389039 0 1 0 0.80901700255871778 0 0.5877852410284794 forward_v I I I I #
coedge $-1 $203 $204 $205 $206 reversed $79 $-1 #
coedge $-1 $130 $81 $207 $208 reversed $51 $-1 #
coedge $-1 $81 $129 $203 $209 reversed $51 $-1 #
coedge $-1 $205 $210 $81 $132 forward $200 $-1 #
edge $-1 $211 -12.039262356130525 $212 -3.150380529100449 $131 $213 forward 7 unknown #
loop $-1 $-1 $138 $82 #
plane-surface $-1 -7.5824244077408096 -0.20080513918980714 70.456248601489932 0.80901700255871778 0 0.5877852410284794 0.5877852410284794 0 -0.80901700255871778 forward_v I I I I #
loop $-1 $-1 $214 $53 #
coedge $-1 $136 $136 $137 $215 reversed $83 $-1 #
coedge $-1 $137 $137 $136 $215 forward $85 $-1 #
coedge $-1 $138 $138 $86 $139 forward $133 $-1 #
edge $-1 $216 0 $216 6.2831853071796004 $138 $217 forward 7 unknown #
face $-1 $218 $219 $21 $-1 $220 reversed single #
loop $-1 $-1 $221 $87 #
plane-surface $-1 -43.187353129673149 0 0 1 0 0 0 0 -1 forward_v I I I I #
coedge $-1 $222 $151 $223 $224 forward $88 $-1 #
coedge $-1 $225 $90 $222 $226 forward $57 $-1 #
coedge $-1 $90 $225 $227 $228 forward $57 $-1 #
coedge $-1 $154 $153 $90 $147 reversed $155 $-1 #
edge $-1 $229 -26.351442223196937 $230 26.351442223196937 $146 $231 forward 7 unknown #
coedge $-1 $92 $91 $232 $233 forward $36 $-1 #
coedge $-1 $234 $235 $91 $150 reversed $219 $-1 #
edge $-1 $157 -43.187353129673149 $236 43.187353129673149 $149 $237 forward 7 unknown #
coedge $-1 $143 $238 $92 $152 reversed $88 $-1 #
edge $-1 $239 -43.187353129673149 $156 43.187353129673149 $151 $240 forward 7 unknown #
coedge $-1 $146 $93 $238 $241 forward $155 $-1 #
coedge $-1 $93 $146 $234 $242 reversed $155 $-1 #
loop $-1 $-1 $153 $218 #
vertex $-1 $94 $243 #
vertex $-1 $94 $244 #
straight-curve $-1 43.187353129673149 0 12.812139244808487 0 1 0 I I #
face $-1 $245 $246 $22 $-1 $247 reversed single #
loop $-1 $-1 $248 $95 #
plane-surface $-1 0 0 12.812139244808487 0 0 1 1 0 0 forward_v I I I I #
coedge $-1 $249 $250 $251 $252 reversed $96 $-1 #
coedge $-1 $101 $98 $253 $254 reversed $61 $-1 #
coedge $-1 $98 $101 $255 $256 reversed $61 $-1 #
coedge $-1 $250 $249 $98 $166 reversed $96 $-1 #
edge $-1 $257 -12.812139244808487 $258 12.812139244808487 $165 $259 forward 7 unknown #
coedge $-1 $100 $99 $260 $261 reversed $39 $-1 #
coedge $-1 $253 $262 $99 $169 forward $246 $-1 #
edge $-1 $263 -16.475274142713452 $173 -3.2770620182535168 $168 $264 forward 7 unknown #
coedge $-1 $265 $255 $100 $171 forward $160 $-1 #
edge $-1 $172 3.2770620182535168 $266 16.475274142713452 $170 $267 forward 7 unknown #
vertex $-1 $171 $268 #
vertex $-1 $169 $269 #
straight-curve $-1 -37.648815268654545 -13.153230098737001 0 0 0 -1 I I #
face $-1 $-1 $187 $23 $-1 $270 forward single #
loop $-1 $-1 $271 $103 #
plane-surface $-1 -43.187353129673149 0 0 1 0 0 0 0 -1 forward_v I I I I #
coedge $-1 $272 $273 $274 $275 reversed $104 $-1 #
coedge $-1 $276 $106 $108 $185 forward $65 $-1 #
coedge $-1 $106 $276 $272 $277 forward $65 $-1 #
coedge $-1 $274 $109 $106 $182 forward $187 $-1 #
edge $-1 $189 -2.2695856305993125 $278 5.454030482422688 $181 $279 forward 7 unknown #
coedge $-1 $280 $281 $107 $184 forward $176 $-1 #
edge $-1 $282 -30.369455678009643 $188 -19.988865573123782 $183 $283 forward 7 unknown #
edge $-1 $189 -15.22084302448676 $282 -9.739602292442716e-015 $108 $284 forward 7 unknown #
coedge $-1 $109 $274 $280 $285 forward $187 $-1 #
loop $-1 $-1 $274 $175 #
vertex $-1 $184 $286 #
vertex $-1 $110 $287 #
straight-curve $-1 -51.047380924895421 -0.67736320468762479 12.812139244808485 1 0 0 I I #
coedge $-1 $191 $191 $-1 $288 reversed $113 $-1 #
edge $-1 $289 0 $289 6.2831853071796004 $114 $290 forward 7 unknown #
vertex $-1 $117 $291 #
ellipse-curve $-1 -37.621443243355984 1.5293842561758062 7.621844192365554 -0.68199836817093118 0 0.7313536940579346 0.7313536940579346 0 0.68199836817093118 1 I I #
coedge $-1 $195 $195 $-1 $292 reversed $120 $-1 #
edge $-1 $293 0 $293 6.2831853071796004 $121 $294 forward 7 unknown #
vertex $-1 $124 $295 #
ellipse-curve $-1 -37.621443243355984 4.8395054474709482 7.621844192365554 -0.68199836817093118 0 0.7313536940579346 0.7313536940579346 0 0.68199836817093118 1 I I #
face $-1 $-1 $296 $26 $-1 $297 reversed single #
loop $-1 $-1 $131 $125 #
plane-surface $-1 0 0 12.812139244808487 0 0 1 1 0 0 forward_v I I I I #
coedge $-1 $298 $299 $300 $301 reversed $126 $-1 #
coedge $-1 $302 $128 $130 $209 forward $79 $-1 #
coedge $-1 $128 $302 $298 $303 forward $79 $-1 #
coedge $-1 $300 $131 $128 $206 forward $200 $-1 #
edge $-1 $212 -5.3166243771262707 $304 5.5174295163160778 $205 $305 forward 7 unknown #
coedge $-1 $306 $307 $129 $208 forward $296 $-1 #
edge $-1 $308 -60.035370422788063 $211 -47.800873824643467 $207 $309 forward 7 unknown #
edge $-1 $212 71.252036946525962 $308 86.374706259346283 $130 $310 forward 7 unknown #
coedge $-1 $131 $300 $306 $311 forward $200 $-1 #
vertex $-1 $208 $312 #
vertex $-1 $132 $313 #
straight-curve $-1 31.148090773542624 5.2162218075313671 12.812139244808485 -1 0 0 I I #
coedge $-1 $214 $214 $-1 $314 reversed $135 $-1 #
edge $-1 $315 0 $315 6.2831853071796004 $136 $316 forward 7 unknown #
vertex $-1 $139 $317 #
ellipse-curve $-1 38.742912216158111 -0.20080513918980714 6.694890945736188 0.80901700255871778 0 0.5877852410284794 1.4694631025711984 0 -2.0225425063967943 1 I I #
face $-1 $-1 $155 $21 $-1 $318 reversed single #
loop $-1 $-1 $234 $140 #
plane-surface $-1 0 26.351442223196937 0 0 -1 0 0 0 -1 forward_v I I I I #
coedge $-1 $319 $232 $235 $320 forward $141 $-1 #
coedge $-1 $238 $143 $144 $226 reversed $88 $-1 #
coedge $-1 $232 $319 $143 $224 reversed $141 $-1 #
edge $-1 $239 -12.812139244808487 $321 12.812139244808487 $223 $322 forward 7 unknown #
coedge $-1 $145 $144 $319 $323 forward $57 $-1 #
edge $-1 $230 -43.187353129673149 $321 43.187353129673149 $222 $324 forward 7 unknown #
coedge $-1 $235 $234 $145 $228 reversed $219 $-1 #
edge $-1 $325 -43.187353129673149 $229 43.187353129673149 $227 $326 forward 7 unknown #
vertex $-1 $147 $327 #
vertex $-1 $241 $328 #
straight-curve $-1 43.187353129673149 0 -12.812139244808487 0 -1 0 I I #
coedge $-1 $221 $223 $148 $233 reversed $141 $-1 #
edge $-1 $236 -26.351442223196937 $239 26.351442223196937 $232 $329 forward 7 unknown #
coedge $-1 $227 $149 $154 $242 forward $219 $-1 #
coedge $-1 $149 $227 $221 $320 reversed $219 $-1 #
vertex $-1 $150 $330 #
straight-curve $-1 0 26.351442223196937 12.812139244808487 -1 0 0 I I #
coedge $-1 $151 $222 $153 $241 reversed $88 $-1 #
vertex $-1 $233 $331 #
straight-curve $-1 0 -26.351442223196937 12.812139244808487 1 0 0 I I #
edge $-1 $156 -12.812139244808487 $230 12.812139244808487 $153 $332 forward 7 unknown #
edge $-1 $157 -12.812139244808487 $229 12.812139244808487 $154 $333 forward 7 unknown #
point $-1 43.187353129673149 -26.351442223196937 12.812139244808487 #
point $-1 43.187353129673149 26.351442223196937 12.812139244808487 #
face $-1 $-1 $334 $22 $-1 $335 reversed single #
loop $-1 $-1 $336 $159 #
plane-surface $-1 0 0 -12.812139244808487 0 0 1 1 0 0 forward_v I I I I #
coedge $-1 $255 $265 $250 $337 forward $160 $-1 #
coedge $-1 $165 $162 $336 $338 reversed $96 $-1 #
coedge $-1 $162 $165 $248 $337 reversed $96 $-1 #
coedge $-1 $339 $340 $162 $252 forward $334 $-1 #
edge $-1 $341 -12.812139244808487 $342 12.812139244808487 $251 $343 forward 7 unknown #
coedge $-1 $336 $168 $163 $254 forward $246 $-1 #
edge $-1 $173 -20.701145368641356 $258 -13.194194431385025 $253 $344 forward 7 unknown #
coedge $-1 $170 $248 $164 $256 forward $160 $-1 #
edge $-1 $257 13.194194431385025 $172 20.701145368641356 $255 $345 forward 7 unknown #
vertex $-1 $256 $346 #
vertex $-1 $254 $347 #
straight-curve $-1 -30.141864331398214 -13.153230098737001 0 0 0 -1 I I #
coedge $-1 $340 $339 $167 $261 forward $334 $-1 #
edge $-1 $266 -12.812139244808487 $263 12.812139244808487 $260 $348 forward 7 unknown #
coedge $-1 $168 $336 $340 $349 forward $246 $-1 #
vertex $-1 $169 $350 #
straight-curve $-1 -37.648815268654545 -9.8761680804834846 -12.812139244808487 0 1 0 I I #
coedge $-1 $248 $170 $339 $351 forward $160 $-1 #
vertex $-1 $351 $352 #
straight-curve $-1 -37.648815268654545 -9.8761680804834846 12.812139244808487 0 -1 0 I I #
point $-1 -37.648815268654545 -13.153230098737001 12.812139244808487 #
point $-1 -37.648815268654545 -13.153230098737001 -12.812139244808487 #
plane-surface $-1 0 0 12.812139244808487 0 0 1 1 0 0 forward_v I I I I #
coedge $-1 $281 $280 $273 $353 forward $176 $-1 #
coedge $-1 $273 $178 $180 $277 reversed $104 $-1 #
coedge $-1 $178 $272 $271 $353 reversed $104 $-1 #
coedge $-1 $186 $181 $178 $275 forward $187 $-1 #
edge $-1 $278 -18.991847567856603 $354 -7.8600277952222726 $274 $355 forward 7 unknown #
coedge $-1 $180 $179 $281 $356 reversed $65 $-1 #
edge $-1 $357 9.739602292442716e-015 $278 15.22084302448676 $272 $358 forward 7 unknown #
vertex $-1 $182 $359 #
straight-curve $-1 -32.055533357038811 1.5922224259116877 12.812139244808487 0 1 0 I I #
coedge $-1 $271 $183 $186 $285 reversed $176 $-1 #
coedge $-1 $183 $271 $276 $356 forward $176 $-1 #
vertex $-1 $184 $360 #
straight-curve $-1 -43.187353129673149 -0.67736320468762479 32.801004817932267 0 0 1 I I #
straight-curve $-1 -43.187353129673156 -0.67736320468762479 2.4315491399226161 -0.7313536940579346 0 -0.68199836817093118 I I #
edge $-1 $354 -7.0462529083343757 $188 0.67736320468762479 $280 $361 forward 7 unknown #
point $-1 -43.187353129673149 -0.67736320468762479 12.812139244808487 #
point $-1 -32.055533357038819 -0.67736320468762479 12.812139244808487 #
edge $-1 $362 1 $362 0 $191 $-1 forward 7 unknown #
vertex $-1 $192 $363 #
ellipse-curve $-1 -35.775674717468164 1.5293842561758062 5.6424998232517618 -0.68199836817093118 0 0.7313536940579346 0.7313536940579346 0 0.68199836817093118 1 I I #
point $-1 -36.890089549298054 1.5293842561758062 8.3038425605364878 #
edge $-1 $364 1 $364 0 $195 $-1 forward 7 unknown #
vertex $-1 $196 $365 #
ellipse-curve $-1 -35.775674717468164 4.8395054474709482 5.6424998232517618 -0.68199836817093118 0 0.7313536940579346 0.7313536940579346 0 0.68199836817093118 1 I I #
point $-1 -36.890089549298054 4.8395054474709482 8.3038425605364878 #
loop $-1 $-1 $207 $199 #
plane-surface $-1 43.187353129673149 0 0 -1 0 0 0 0 1 forward_v I I I I #
coedge $-1 $299 $202 $204 $303 reversed $126 $-1 #
coedge $-1 $202 $298 $366 $367 reversed $126 $-1 #
coedge $-1 $210 $205 $202 $301 forward $200 $-1 #
edge $-1 $304 3.150380529100449 $368 12.039262356130525 $300 $369 forward 7 unknown #
coedge $-1 $204 $203 $307 $370 reversed $79 $-1 #
edge $-1 $371 -86.374706259346283 $304 -71.252036946525962 $298 $372 forward 7 unknown #
vertex $-1 $206 $373 #
straight-curve $-1 34.298471302643073 -0.10040256959490357 12.812139244808485 0 -1 0 I I #
coedge $-1 $366 $207 $210 $311 reversed $296 $-1 #
coedge $-1 $207 $366 $302 $370 forward $296 $-1 #
vertex $-1 $208 $374 #
straight-curve $-1 43.187353129673149 5.2162218075313671 60.613013069451952 0 0 1 I I #
straight-curve $-1 -7.5824244077408096 5.2162218075313671 70.456248601489932 0.5877852410284794 0 -0.80901700255871778 I I #
edge $-1 $368 -5.6178320859109814 $211 5.2162218075313671 $306 $375 forward 7 unknown #
point $-1 43.187353129673149 5.2162218075313671 12.812139244808487 #
point $-1 34.298471302643073 5.2162218075313671 12.812139244808485 #
edge $-1 $376 1 $376 0 $214 $-1 forward 7 unknown #
vertex $-1 $215 $377 #
ellipse-curve $-1 33.440736206774133 -0.20080513918980714 2.8426346967397569 0.80901700255871778 0 0.5877852410284794 1.4694631025711984 0 -2.0225425063967943 1 I I #
point $-1 40.212375318729308 -0.20080513918980714 4.6723484393393901 #
plane-surface $-1 43.187353129673149 0 0 -1 0 0 0 0 1 forward_v I I I I #
coedge $-1 $223 $221 $225 $323 reversed $141 $-1 #
edge $-1 $236 -12.812139244808487 $325 12.812139244808487 $235 $378 forward 7 unknown #
vertex $-1 $323 $379 #
straight-curve $-1 -43.187353129673149 -26.351442223196937 0 0 0 -1 I I #
edge $-1 $321 -26.351442223196937 $325 26.351442223196937 $319 $380 forward 7 unknown #
straight-curve $-1 0 -26.351442223196937 -12.812139244808487 -1 0 0 I I #
vertex $-1 $228 $381 #
straight-curve $-1 0 26.351442223196937 -12.812139244808487 1 0 0 I I #
point $-1 43.187353129673149 26.351442223196937 -12.812139244808487 #
point $-1 43.187353129673149 -26.351442223196937 -12.812139244808487 #
straight-curve $-1 -43.187353129673149 0 12.812139244808487 0 -1 0 I I #
point $-1 -43.187353129673149 26.351442223196937 12.812139244808487 #
point $-1 -43.187353129673149 -26.351442223196937 12.812139244808487 #
straight-curve $-1 43.187353129673149 -26.351442223196937 0 0 0 -1 I I #
straight-curve $-1 43.187353129673149 26.351442223196937 0 0 0 -1 I I #
loop $-1 $-1 $251 $245 #
plane-surface $-1 0 -26.351442223196937 0 0 1 0 0 0 1 forward_v I I I I #
coedge $-1 $262 $253 $249 $338 forward $246 $-1 #
edge $-1 $342 -16.475274142713452 $257 -3.2770620182535168 $248 $382 forward 7 unknown #
edge $-1 $258 3.2770620182535168 $341 16.475274142713452 $336 $383 forward 7 unknown #
coedge $-1 $260 $251 $265 $351 reversed $334 $-1 #
coedge $-1 $251 $260 $262 $349 reversed $334 $-1 #
vertex $-1 $349 $384 #
vertex $-1 $252 $385 #
straight-curve $-1 -30.141864331398214 -26.351442223196937 0 0 0 1 I I #
straight-curve $-1 -16.947669900013189 -13.153230098737001 -12.812139244808487 1 0 0 I I #
straight-curve $-1 -16.947669900013189 -13.153230098737001 12.812139244808487 -1 0 0 I I #
point $-1 -30.141864331398214 -13.153230098737001 12.812139244808487 #
point $-1 -30.141864331398214 -13.153230098737001 -12.812139244808487 #
straight-curve $-1 -37.648815268654545 -26.351442223196937 0 0 0 -1 I I #
edge $-1 $341 30.141864331398214 $263 37.648815268654545 $340 $386 forward 7 unknown #
point $-1 -37.648815268654545 -26.351442223196937 -12.812139244808487 #
edge $-1 $266 -37.648815268654545 $342 -30.141864331398214 $339 $387 forward 7 unknown #
point $-1 -37.648815268654545 -26.351442223196937 12.812139244808487 #
edge $-1 $354 19.988865573123782 $357 30.369455678009643 $271 $388 forward 7 unknown #
vertex $-1 $285 $389 #
straight-curve $-1 -51.047380924895421 7.0462529083343757 12.812139244808485 -1 0 0 I I #
edge $-1 $357 -5.454030482422688 $282 2.2695856305993125 $281 $390 forward 7 unknown #
vertex $-1 $356 $391 #
straight-curve $-1 -43.187353129673156 7.0462529083343757 2.4315491399226161 0.7313536940579346 0 0.68199836817093118 I I #
point $-1 -32.055533357038819 7.0462529083343757 12.812139244808487 #
point $-1 -43.187353129673149 -0.67736320468762479 2.4315491399226228 #
straight-curve $-1 -43.187353129673149 0 12.812139244808487 0 -1 0 I I #
vertex $-1 $288 $392 #
point $-1 -35.044321023410227 1.5293842561758062 6.324498191422693 #
vertex $-1 $292 $393 #
point $-1 -35.044321023410227 4.8395054474709482 6.324498191422693 #
coedge $-1 $307 $306 $299 $367 forward $296 $-1 #
edge $-1 $368 47.800873824643467 $371 60.035370422788063 $366 $394 forward 7 unknown #
vertex $-1 $311 $395 #
straight-curve $-1 31.148090773542624 -5.6178320859109814 12.812139244808485 1 0 0 I I #
edge $-1 $371 -5.5174295163160778 $308 5.3166243771262707 $307 $396 forward 7 unknown #
vertex $-1 $370 $397 #
straight-curve $-1 -7.5824244077408096 -5.6178320859109814 70.456248601489932 -0.5877852410284794 0 0.80901700255871778 I I #
point $-1 34.298471302643073 -5.6178320859109814 12.812139244808485 #
point $-1 43.187353129673149 5.2162218075313671 0.57764264666388954 #
straight-curve $-1 43.187353129673149 0 12.812139244808487 0 1 0 I I #
vertex $-1 $314 $398 #
point $-1 34.910199309345337 -0.20080513918980714 0.82009219034296232 #
straight-curve $-1 -43.187353129673149 26.351442223196937 0 0 0 -1 I I #
point $-1 -43.187353129673149 -26.351442223196937 -12.812139244808487 #
straight-curve $-1 -43.187353129673149 0 -12.812139244808487 0 1 0 I I #
point $-1 -43.187353129673149 26.351442223196937 -12.812139244808487 #
straight-curve $-1 -30.141864331398214 -9.8761680804834846 12.812139244808487 0 1 0 I I #
straight-curve $-1 -30.141864331398214 -9.8761680804834846 -12.812139244808487 0 -1 0 I I #
point $-1 -30.141864331398214 -26.351442223196937 -12.812139244808487 #
point $-1 -30.141864331398214 -26.351442223196937 12.812139244808487 #
straight-curve $-1 0 -26.351442223196937 -12.812139244808487 -1 0 0 I I #
straight-curve $-1 0 -26.351442223196937 12.812139244808487 1 0 0 I I #
straight-curve $-1 -43.187353129673149 7.0462529083343757 32.801004817932267 0 0 -1 I I #
point $-1 -43.187353129673149 7.0462529083343757 12.812139244808487 #
straight-curve $-1 -43.187353129673149 1.5922224259116877 2.431549139922629 0 -1 0 I I #
point $-1 -43.187353129673149 7.0462529083343757 2.4315491399226228 #
point $-1 -35.093676349297226 1.5293842561758062 4.9111461291938268 #
point $-1 -35.093676349297226 4.8395054474709482 4.9111461291938268 #
straight-curve $-1 43.187353129673149 -5.6178320859109814 60.613013069451952 0 0 -1 I I #
point $-1 43.187353129673149 -5.6178320859109814 12.812139244808487 #
straight-curve $-1 43.187353129673149 -0.10040256959490357 0.57764264666388954 0 1 0 I I #
point $-1 43.187353129673149 -5.6178320859109814 0.57764264666388954 #
point $-1 31.418193700377341 -0.20080513918980714 1.3731715941685583 #
End-of-ACIS-data 