500 0 13 0           
7 Unknown 11 ACIS 5.0 NT 24 Thu Mar 25 16:58:48 1999 
-1 9.9999999999999995e-007 1e-010 
body $-1 $13 $-1 $14 #
body $-1 $15 $-1 $16 #
body $-1 $17 $-1 $18 #
body $-1 $19 $-1 $20 #
body $-1 $21 $-1 $22 #
body $-1 $23 $-1 $24 #
body $-1 $25 $-1 $26 #
body $-1 $27 $-1 $28 #
body $-1 $29 $-1 $30 #
body $-1 $31 $-1 $32 #
body $-1 $33 $-1 $34 #
body $-1 $35 $-1 $36 #
body $-1 $37 $-1 $38 #
lump $-1 $-1 $39 $0 #
transform $-1 1 0 0 0 1 0 0 0 1 65.773491622669155 29.04335140812633 12.93473712680222 1 rotate no_reflect no_shear #
lump $-1 $-1 $40 $1 #
transform $-1 1 0 0 0 1 0 0 0 1 65.773491622669155 29.04335140812633 12.93473712680222 1 rotate no_reflect no_shear #
lump $-1 $-1 $41 $2 #
transform $-1 1 0 0 0 1 0 0 0 1 65.773491622669155 29.04335140812633 12.93473712680222 1 rotate no_reflect no_shear #
lump $-1 $-1 $42 $3 #
transform $-1 1 0 0 0 1 0 0 0 1 65.773491622669155 29.04335140812633 12.93473712680222 1 rotate no_reflect no_shear #
lump $-1 $-1 $43 $4 #
transform $-1 1 0 0 0 1 0 0 0 1 65.773491622669155 29.04335140812633 12.93473712680222 1 rotate no_reflect no_shear #
lump $-1 $-1 $44 $5 #
transform $-1 1 0 0 0 1 0 0 0 1 65.773491622669155 29.04335140812633 12.93473712680222 1 rotate no_reflect no_shear #
lump $-1 $-1 $45 $6 #
transform $-1 1 0 0 0 1 0 0 0 1 65.773491622669155 29.04335140812633 12.93473712680222 1 rotate no_reflect no_shear #
lump $-1 $-1 $46 $7 #
transform $-1 1 0 0 0 1 0 0 0 1 65.773491622669155 29.04335140812633 12.93473712680222 1 rotate no_reflect no_shear #
lump $-1 $-1 $47 $8 #
transform $-1 1 0 0 0 1 0 0 0 1 65.773491622669155 29.04335140812633 12.93473712680222 1 rotate no_reflect no_shear #
lump $-1 $-1 $48 $9 #
transform $-1 1 0 0 0 1 0 0 0 1 65.773491622669155 29.04335140812633 12.93473712680222 1 rotate no_reflect no_shear #
lump $-1 $-1 $49 $10 #
transform $-1 1 0 0 0 1 0 0 0 1 65.773491622669155 29.04335140812633 12.93473712680222 1 rotate no_reflect no_shear #
lump $-1 $-1 $50 $11 #
transform $-1 1 0 0 0 1 0 0 0 1 65.773491622669155 29.04335140812633 12.93473712680222 1 rotate no_reflect no_shear #
lump $-1 $-1 $51 $12 #
transform $-1 1 0 0 0 1 0 0 0 1 65.773491622669155 29.04335140812633 12.93473712680222 1 rotate no_reflect no_shear #
shell $-1 $-1 $-1 $52 $-1 $13 #
shell $-1 $-1 $-1 $53 $-1 $15 #
shell $-1 $-1 $-1 $54 $-1 $17 #
shell $-1 $-1 $-1 $55 $-1 $19 #
shell $-1 $-1 $-1 $56 $-1 $21 #
shell $-1 $-1 $-1 $57 $-1 $23 #
shell $-1 $-1 $-1 $58 $-1 $25 #
shell $-1 $-1 $-1 $59 $-1 $27 #
shell $-1 $-1 $-1 $60 $-1 $29 #
shell $-1 $-1 $-1 $61 $-1 $31 #
shell $-1 $-1 $-1 $62 $-1 $33 #
shell $-1 $-1 $-1 $63 $-1 $35 #
shell $-1 $-1 $-1 $64 $-1 $37 #
face $-1 $65 $66 $39 $-1 $67 forward single #
face $-1 $68 $69 $40 $-1 $70 forward single #
face $-1 $71 $72 $41 $-1 $73 forward single #
face $-1 $74 $75 $42 $-1 $76 reversed single #
face $-1 $77 $78 $43 $-1 $79 forward single #
face $-1 $80 $81 $44 $-1 $82 forward single #
face $-1 $83 $84 $45 $-1 $85 reversed single #
face $-1 $86 $87 $46 $-1 $88 forward single #
face $-1 $89 $90 $47 $-1 $91 forward single #
face $-1 $92 $93 $48 $-1 $94 reversed single #
face $-1 $95 $96 $49 $-1 $97 forward single #
face $-1 $98 $99 $50 $-1 $100 forward single #
face $-1 $101 $102 $51 $-1 $103 forward single #
face $-1 $104 $105 $39 $-1 $106 reversed single #
loop $-1 $-1 $107 $52 #
plane-surface $-1 0 0 12.93473712680222 0 0 1 1 0 0 forward_v I I I I #
face $-1 $108 $109 $40 $-1 $110 reversed single #
loop $-1 $-1 $111 $53 #
plane-surface $-1 -58.278832475710843 0 -9.9347371268022204 0 0 1 1 0 0 forward_v I I I I #
face $-1 $112 $113 $41 $-1 $114 reversed single #
loop $-1 $-1 $115 $54 #
plane-surface $-1 58.278832475710843 0 -9.9347371268022204 0 0 1 1 0 0 forward_v I I I I #
face $-1 $116 $117 $42 $-1 $118 reversed single #
loop $-1 $-1 $119 $55 #
plane-surface $-1 -46.974214008730641 -104.49560224313952 111.24673524344068 1 0 0 0 0.57357644374324357 -0.81915203911291934 forward_v I I I I #
face $-1 $120 $121 $43 $-1 $122 forward single #
loop $-1 $123 $124 $56 #
cone-surface $-1 -41.155119884149997 -20.72774912829875 5.9683592991428434 0 0.57357644374324357 -0.81915203911291934 2 0 0 1 I I 0 1 2 forward I I I I #
face $-1 $125 $126 $44 $-1 $127 forward single #
loop $-1 $128 $129 $57 #
cone-surface $-1 -32.426478697279016 -20.72774912829875 5.9683592991428434 0 0.57357644374324357 -0.81915203911291934 2 0 0 1 I I 0 1 2 forward I I I I #
face $-1 $130 $131 $45 $-1 $132 reversed single #
loop $-1 $-1 $133 $58 #
plane-surface $-1 26.607384572698361 -104.49560224313952 111.24673524344068 1 0 0 0 0.57357644374324357 -0.81915203911291934 forward_v I I I I #
face $-1 $134 $135 $46 $-1 $136 forward single #
loop $-1 $137 $138 $59 #
cone-surface $-1 32.426478697279009 -20.72774912829875 5.9683592991428434 0 0.57357644374324357 -0.81915203911291934 2 0 0 1 I I 0 1 2 forward I I I I #
face $-1 $139 $140 $47 $-1 $141 forward single #
loop $-1 $142 $143 $60 #
cone-surface $-1 41.155119884149997 -20.72774912829875 5.9683592991428434 0 0.57357644374324357 -0.81915203911291934 2 0 0 1 I I 0 1 2 forward I I I I #
face $-1 $144 $145 $48 $-1 $146 reversed single #
loop $-1 $-1 $147 $61 #
plane-surface $-1 -37.433392790755761 113.92303107740436 116.10655074722629 -1 0 0 0 0.86602541151947299 0.49999998660252726 forward_v I I I I #
face $-1 $148 $149 $49 $-1 $150 forward single #
loop $-1 $151 $152 $62 #
cone-surface $-1 -48.114017221153176 24.208924759116339 5.8415005622712179 0 -0.86602541151947299 -0.49999998660252726 1 0 0 1 I I 0 1 1 forward I I I I #
face $-1 $153 $154 $50 $-1 $155 forward single #
loop $-1 $156 $157 $63 #
cone-surface $-1 -44.108783059754145 24.208924759116339 5.8415005622712179 0 -0.86602541151947299 -0.49999998660252726 1 0 0 1 I I 0 1 1 forward I I I I #
face $-1 $158 $159 $51 $-1 $160 forward single #
loop $-1 $161 $162 $64 #
cone-surface $-1 -40.103548898355115 24.208924759116339 5.8415005622712179 0 -0.86602541151947299 -0.49999998660252726 1 0 0 1 I I 0 1 1 forward I I I I #
face $-1 $163 $164 $39 $-1 $165 reversed single #
loop $-1 $-1 $166 $65 #
plane-surface $-1 0 0 -12.93473712680222 0 0 1 1 0 0 forward_v I I I I #
coedge $-1 $167 $168 $169 $170 forward $66 $-1 #
face $-1 $171 $172 $40 $-1 $173 reversed single #
loop $-1 $-1 $174 $68 #
plane-surface $-1 -50.78417332875253 0 -11.43473712680222 -1 0 0 0 0 1 forward_v I I I I #
coedge $-1 $175 $176 $177 $178 forward $69 $-1 #
face $-1 $179 $180 $41 $-1 $181 reversed single #
loop $-1 $-1 $182 $71 #
plane-surface $-1 50.78417332875253 0 -11.43473712680222 1 0 0 0 0 -1 forward_v I I I I #
coedge $-1 $183 $184 $185 $186 reversed $72 $-1 #
face $-1 $187 $188 $42 $-1 $189 reversed single #
loop $-1 $-1 $190 $74 #
plane-surface $-1 -36.790799290714503 -29.043351408126327 3.4897556788687751 0 -0.57357644374324357 0.81915203911291934 1 0 0 forward_v I I I I #
coedge $-1 $191 $192 $193 $194 reversed $75 $-1 #
face $-1 $-1 $195 $43 $-1 $196 forward single #
loop $-1 $197 $198 $77 #
cone-surface $-1 -41.155119884149997 -18.58298598948101 2.9053201563372628 0 0.57357644374324357 -0.81915203911291934 1 0 0 1 I I -0.70710678118654746 0.70710678118654746 1 forward I I I I #
loop $-1 $-1 $199 $56 #
coedge $-1 $124 $124 $200 $201 reversed $78 $-1 #
face $-1 $-1 $202 $44 $-1 $203 forward single #
loop $-1 $204 $205 $80 #
cone-surface $-1 -32.426478697279016 -18.58298598948101 2.9053201563372628 0 0.57357644374324357 -0.81915203911291934 1 0 0 1 I I -0.70710678118654746 0.70710678118654746 1 forward I I I I #
loop $-1 $-1 $206 $57 #
coedge $-1 $129 $129 $207 $208 reversed $81 $-1 #
face $-1 $209 $210 $45 $-1 $211 reversed single #
loop $-1 $-1 $212 $83 #
plane-surface $-1 36.790799290714503 -29.043351408126327 3.4897556788687751 0 -0.57357644374324357 0.81915203911291934 1 0 0 forward_v I I I I #
coedge $-1 $213 $214 $215 $216 reversed $84 $-1 #
face $-1 $-1 $217 $46 $-1 $218 forward single #
loop $-1 $219 $220 $86 #
cone-surface $-1 32.426478697279009 -18.58298598948101 2.9053201563372628 0 0.57357644374324357 -0.81915203911291934 1 0 0 1 I I -0.70710678118654746 0.70710678118654746 1 forward I I I I #
loop $-1 $-1 $221 $59 #
coedge $-1 $138 $138 $222 $223 reversed $87 $-1 #
face $-1 $-1 $224 $47 $-1 $225 forward single #
loop $-1 $226 $227 $89 #
cone-surface $-1 41.155119884149997 -18.58298598948101 2.9053201563372628 0 0.57357644374324357 -0.81915203911291934 1 0 0 1 I I -0.70710678118654746 0.70710678118654746 1 forward I I I I #
loop $-1 $-1 $228 $60 #
coedge $-1 $143 $143 $229 $230 reversed $90 $-1 #
face $-1 $231 $232 $48 $-1 $233 reversed single #
loop $-1 $-1 $234 $92 #
plane-surface $-1 -44.108783059754145 7.7821502486585814e-007 50.333060886954257 0 0.86602541151947299 0.49999998660252726 1 0 0 forward_v I I I I #
coedge $-1 $235 $236 $237 $238 reversed $93 $-1 #
face $-1 $-1 $239 $49 $-1 $240 forward single #
loop $-1 $241 $242 $95 #
cone-surface $-1 -48.114017221153176 22.667194959923084 4.9513824794902117 0 -0.86602541151947299 -0.49999998660252726 0.5 0 0 1 I I -0.70710678118654746 0.70710678118654746 0.5 forward I I I I #
loop $-1 $-1 $243 $62 #
coedge $-1 $152 $152 $244 $245 reversed $96 $-1 #
face $-1 $-1 $246 $50 $-1 $247 forward single #
loop $-1 $248 $249 $98 #
cone-surface $-1 -44.108783059754145 22.667194959923084 4.9513824794902117 0 -0.86602541151947299 -0.49999998660252726 0.5 0 0 1 I I -0.70710678118654746 0.70710678118654746 0.5 forward I I I I #
loop $-1 $-1 $250 $63 #
coedge $-1 $157 $157 $251 $252 reversed $99 $-1 #
face $-1 $-1 $253 $51 $-1 $254 forward single #
loop $-1 $255 $256 $101 #
cone-surface $-1 -40.103548898355115 22.667194959923084 4.9513824794902117 0 -0.86602541151947299 -0.49999998660252726 0.5 0 0 1 I I -0.70710678118654746 0.70710678118654746 0.5 forward I I I I #
loop $-1 $-1 $257 $64 #
coedge $-1 $162 $162 $258 $259 reversed $102 $-1 #
face $-1 $260 $261 $39 $-1 $262 reversed single #
loop $-1 $-1 $263 $104 #
plane-surface $-1 0 -29.04335140812633 0 0 1 0 0 0 1 forward_v I I I I #
coedge $-1 $264 $265 $266 $267 forward $105 $-1 #
coedge $-1 $268 $107 $269 $270 forward $66 $-1 #
coedge $-1 $107 $268 $271 $272 forward $66 $-1 #
coedge $-1 $273 $274 $107 $170 reversed $275 $-1 #
edge $-1 $276 -29.04335140812633 $277 29.04335140812633 $169 $278 forward 7 unknown #
face $-1 $279 $280 $40 $-1 $281 reversed single #
loop $-1 $-1 $282 $108 #
plane-surface $-1 0 0 -12.93473712680222 0 0 1 1 0 0 forward_v I I I I #
coedge $-1 $283 $177 $284 $285 reversed $109 $-1 #
coedge $-1 $286 $111 $287 $288 reversed $69 $-1 #
coedge $-1 $111 $286 $289 $290 reversed $69 $-1 #
coedge $-1 $174 $291 $111 $178 reversed $109 $-1 #
edge $-1 $292 -29.04335140812633 $293 29.04335140812633 $177 $294 forward 7 unknown #
face $-1 $295 $296 $41 $-1 $297 reversed single #
loop $-1 $-1 $298 $112 #
plane-surface $-1 0 -29.04335140812633 0 0 1 0 0 0 1 forward_v I I I I #
coedge $-1 $299 $300 $301 $302 reversed $113 $-1 #
coedge $-1 $303 $115 $304 $305 reversed $72 $-1 #
coedge $-1 $115 $303 $298 $306 reversed $72 $-1 #
coedge $-1 $307 $308 $115 $186 forward $309 $-1 #
edge $-1 $310 -29.04335140812633 $311 29.04335140812633 $185 $312 forward 7 unknown #
face $-1 $313 $314 $42 $-1 $315 forward single #
loop $-1 $-1 $316 $116 #
plane-surface $-1 -26.607384572698361 -104.49560224313952 111.24673524344068 -1 0 0 0 -0.57357644374324357 0.81915203911291934 forward_v I I I I #
coedge $-1 $317 $318 $319 $320 reversed $117 $-1 #
coedge $-1 $192 $119 $321 $322 reversed $75 $-1 #
coedge $-1 $119 $191 $317 $323 reversed $75 $-1 #
coedge $-1 $319 $324 $119 $194 forward $325 $-1 #
edge $-1 $326 42.688630494918122 $327 52.133611942851566 $193 $328 forward 7 unknown #
loop $-1 $-1 $200 $120 #
plane-surface $-1 -36.790799290714503 -29.043351408126327 3.4897556788687751 0 -0.57357644374324357 0.81915203911291934 1 0 0 forward_v I I I I #
loop $-1 $-1 $329 $77 #
coedge $-1 $198 $198 $199 $330 reversed $121 $-1 #
coedge $-1 $199 $199 $198 $330 forward $123 $-1 #
coedge $-1 $200 $200 $124 $201 forward $195 $-1 #
edge $-1 $331 1.4641666191275965e-016 $331 6.2831853071796004 $200 $332 forward 7 unknown #
loop $-1 $-1 $207 $125 #
plane-surface $-1 -36.790799290714503 -29.043351408126327 3.4897556788687751 0 -0.57357644374324357 0.81915203911291934 1 0 0 forward_v I I I I #
loop $-1 $-1 $333 $80 #
coedge $-1 $205 $205 $206 $334 reversed $126 $-1 #
coedge $-1 $206 $206 $205 $334 forward $128 $-1 #
coedge $-1 $207 $207 $129 $208 forward $202 $-1 #
edge $-1 $335 1.4641666191275965e-016 $335 6.2831853071796004 $207 $336 forward 7 unknown #
face $-1 $337 $338 $45 $-1 $339 reversed single #
loop $-1 $-1 $340 $130 #
plane-surface $-1 46.974214008730641 -104.49560224313952 111.24673524344068 -1 0 0 0 -0.57357644374324357 0.81915203911291934 forward_v I I I I #
coedge $-1 $341 $342 $343 $344 reversed $131 $-1 #
coedge $-1 $214 $133 $345 $346 reversed $84 $-1 #
coedge $-1 $133 $213 $341 $347 reversed $84 $-1 #
coedge $-1 $343 $348 $133 $216 forward $338 $-1 #
edge $-1 $349 42.688630494918122 $350 52.133611942851566 $215 $351 forward 7 unknown #
loop $-1 $-1 $222 $134 #
plane-surface $-1 36.790799290714503 -29.043351408126327 3.4897556788687751 0 -0.57357644374324357 0.81915203911291934 1 0 0 forward_v I I I I #
loop $-1 $-1 $352 $86 #
coedge $-1 $220 $220 $221 $353 reversed $135 $-1 #
coedge $-1 $221 $221 $220 $353 forward $137 $-1 #
coedge $-1 $222 $222 $138 $223 forward $217 $-1 #
edge $-1 $354 1.4641666191275965e-016 $354 6.2831853071796004 $222 $355 forward 7 unknown #
loop $-1 $-1 $229 $139 #
plane-surface $-1 36.790799290714503 -29.043351408126327 3.4897556788687751 0 -0.57357644374324357 0.81915203911291934 1 0 0 forward_v I I I I #
loop $-1 $-1 $356 $89 #
coedge $-1 $227 $227 $228 $357 reversed $140 $-1 #
coedge $-1 $228 $228 $227 $357 forward $142 $-1 #
coedge $-1 $229 $229 $143 $230 forward $224 $-1 #
edge $-1 $358 1.4641666191275965e-016 $358 6.2831853071796004 $229 $359 forward 7 unknown #
face $-1 $360 $361 $48 $-1 $362 reversed single #
loop $-1 $-1 $363 $144 #
plane-surface $-1 -50.78417332875253 113.92303107740436 116.10655074722629 1 0 0 0 -0.86602541151947299 -0.49999998660252726 forward_v I I I I #
coedge $-1 $364 $365 $366 $367 reversed $145 $-1 #
coedge $-1 $236 $147 $368 $369 reversed $93 $-1 #
coedge $-1 $147 $235 $364 $370 reversed $93 $-1 #
coedge $-1 $366 $371 $147 $238 forward $361 $-1 #
edge $-1 $372 45.118538246810928 $373 58.024775196913417 $237 $374 forward 7 unknown #
loop $-1 $-1 $244 $148 #
plane-surface $-1 -44.108783059754145 7.7821502486585814e-007 50.333060886954257 0 0.86602541151947299 0.49999998660252726 1 0 0 forward_v I I I I #
loop $-1 $-1 $375 $95 #
coedge $-1 $242 $242 $243 $376 reversed $149 $-1 #
coedge $-1 $243 $243 $242 $376 forward $151 $-1 #
coedge $-1 $244 $244 $152 $245 forward $239 $-1 #
edge $-1 $377 -4.7597325791166719e-016 $377 6.2831853071795996 $244 $378 forward 7 unknown #
loop $-1 $-1 $251 $153 #
plane-surface $-1 -44.108783059754145 7.7821502486585814e-007 50.333060886954257 0 0.86602541151947299 0.49999998660252726 1 0 0 forward_v I I I I #
loop $-1 $-1 $379 $98 #
coedge $-1 $249 $249 $250 $380 reversed $154 $-1 #
coedge $-1 $250 $250 $249 $380 forward $156 $-1 #
coedge $-1 $251 $251 $157 $252 forward $246 $-1 #
edge $-1 $381 -4.7597325791166719e-016 $381 6.2831853071795996 $251 $382 forward 7 unknown #
loop $-1 $-1 $258 $158 #
plane-surface $-1 -44.108783059754145 7.7821502486585814e-007 50.333060886954257 0 0.86602541151947299 0.49999998660252726 1 0 0 forward_v I I I I #
loop $-1 $-1 $383 $101 #
coedge $-1 $256 $256 $257 $384 reversed $159 $-1 #
coedge $-1 $257 $257 $256 $384 forward $161 $-1 #
coedge $-1 $258 $258 $162 $259 forward $253 $-1 #
edge $-1 $385 -4.7597325791166719e-016 $385 6.2831853071795996 $258 $386 forward 7 unknown #
face $-1 $387 $388 $39 $-1 $389 reversed single #
loop $-1 $-1 $390 $163 #
plane-surface $-1 -65.773491622669155 0 0 1 0 0 0 0 -1 forward_v I I I I #
coedge $-1 $391 $271 $392 $393 forward $164 $-1 #
coedge $-1 $394 $166 $391 $395 forward $105 $-1 #
coedge $-1 $166 $394 $396 $397 forward $105 $-1 #
coedge $-1 $274 $273 $166 $267 reversed $275 $-1 #
edge $-1 $398 -29.04335140812633 $399 29.04335140812633 $266 $400 forward 7 unknown #
coedge $-1 $168 $167 $401 $402 forward $66 $-1 #
coedge $-1 $403 $404 $167 $270 reversed $388 $-1 #
edge $-1 $277 -65.773491622669155 $405 65.773491622669155 $269 $406 forward 7 unknown #
coedge $-1 $263 $407 $168 $272 reversed $164 $-1 #
edge $-1 $408 -65.773491622669155 $276 65.773491622669155 $271 $409 forward 7 unknown #
coedge $-1 $266 $169 $407 $410 forward $275 $-1 #
coedge $-1 $169 $266 $403 $411 reversed $275 $-1 #
loop $-1 $-1 $273 $387 #
vertex $-1 $170 $412 #
vertex $-1 $170 $413 #
straight-curve $-1 65.773491622669155 0 12.93473712680222 0 1 0 I I #
face $-1 $414 $415 $40 $-1 $416 reversed single #
loop $-1 $-1 $284 $171 #
plane-surface $-1 0 -29.04335140812633 0 0 1 0 0 0 1 forward_v I I I I #
coedge $-1 $417 $418 $283 $419 forward $172 $-1 #
coedge $-1 $291 $174 $282 $419 reversed $109 $-1 #
coedge $-1 $289 $420 $174 $285 forward $280 $-1 #
edge $-1 $421 -7.2173685634011102 $292 -4.2173685634011102 $284 $422 forward 7 unknown #
coedge $-1 $176 $175 $423 $424 reversed $69 $-1 #
coedge $-1 $425 $426 $175 $288 forward $427 $-1 #
edge $-1 $428 -36.634075384813734 $293 -21.644757090897109 $287 $429 forward 7 unknown #
coedge $-1 $430 $284 $176 $290 forward $280 $-1 #
edge $-1 $292 21.644757090897109 $431 36.634075384813734 $289 $432 forward 7 unknown #
coedge $-1 $177 $283 $425 $433 reversed $109 $-1 #
vertex $-1 $290 $434 #
vertex $-1 $288 $435 #
straight-curve $-1 -50.78417332875253 0 -9.9347371268022204 0 1 0 I I #
face $-1 $436 $437 $41 $-1 $438 reversed single #
loop $-1 $-1 $439 $179 #
plane-surface $-1 0 0 -12.93473712680222 0 0 1 1 0 0 forward_v I I I I #
coedge $-1 $440 $441 $184 $306 forward $180 $-1 #
coedge $-1 $442 $182 $439 $443 reversed $113 $-1 #
coedge $-1 $182 $442 $303 $444 reversed $113 $-1 #
coedge $-1 $304 $445 $182 $302 forward $437 $-1 #
edge $-1 $446 -7.2173685634011102 $447 -4.2173685634011102 $301 $448 forward 7 unknown #
coedge $-1 $184 $183 $300 $444 forward $72 $-1 #
coedge $-1 $449 $301 $183 $305 forward $437 $-1 #
edge $-1 $447 21.644757090897109 $310 36.634075384813734 $304 $450 forward 7 unknown #
edge $-1 $311 -36.634075384813734 $451 -21.644757090897109 $298 $452 forward 7 unknown #
coedge $-1 $453 $185 $441 $454 forward $309 $-1 #
coedge $-1 $185 $453 $449 $455 reversed $309 $-1 #
loop $-1 $-1 $185 $436 #
vertex $-1 $455 $456 #
vertex $-1 $454 $457 #
straight-curve $-1 65.773491622669155 0 -9.9347371268022204 0 -1 0 I I #
face $-1 $-1 $325 $42 $-1 $458 reversed single #
loop $-1 $-1 $459 $187 #
plane-surface $-1 0 0 12.93473712680222 0 0 1 1 0 0 forward_v I I I I #
coedge $-1 $460 $461 $462 $463 reversed $188 $-1 #
coedge $-1 $464 $190 $192 $323 forward $117 $-1 #
coedge $-1 $190 $464 $460 $465 forward $117 $-1 #
coedge $-1 $462 $193 $190 $320 forward $325 $-1 #
edge $-1 $327 -28.57881436337339 $466 -8.2119849273411099 $319 $467 forward 7 unknown #
coedge $-1 $468 $469 $191 $322 forward $314 $-1 #
edge $-1 $470 -36.693280882949615 $326 -23.204449713443427 $321 $471 forward 7 unknown #
edge $-1 $327 -4.4385273125170671e-015 $470 16.466822427877474 $192 $472 forward 7 unknown #
coedge $-1 $193 $462 $468 $473 reversed $325 $-1 #
loop $-1 $-1 $462 $313 #
vertex $-1 $473 $474 #
vertex $-1 $194 $475 #
straight-curve $-1 -46.974214008730641 -29.043351408126327 55.623367621720341 0 0 -1 I I #
coedge $-1 $329 $329 $-1 $476 reversed $197 $-1 #
edge $-1 $477 0 $477 6.2831853071796004 $198 $478 forward 7 unknown #
vertex $-1 $201 $479 #
ellipse-curve $-1 -41.155119884149997 -22.298935823373242 8.2122464028354933 0 -0.57357644374324357 0.81915203911291934 2 0 0 1 I I #
coedge $-1 $333 $333 $-1 $480 reversed $204 $-1 #
edge $-1 $481 0 $481 6.2831853071796004 $205 $482 forward 7 unknown #
vertex $-1 $208 $483 #
ellipse-curve $-1 -32.426478697279016 -22.298935823373242 8.2122464028354933 0 -0.57357644374324357 0.81915203911291934 2 0 0 1 I I #
face $-1 $-1 $484 $45 $-1 $485 forward single #
loop $-1 $-1 $215 $209 #
plane-surface $-1 0 -29.04335140812633 0 0 1 0 0 0 1 forward_v I I I I #
coedge $-1 $486 $487 $488 $489 reversed $210 $-1 #
coedge $-1 $490 $212 $214 $347 forward $131 $-1 #
coedge $-1 $212 $490 $486 $491 forward $131 $-1 #
coedge $-1 $488 $215 $212 $344 forward $338 $-1 #
edge $-1 $350 8.2119849273411099 $492 28.57881436337339 $343 $493 forward 7 unknown #
coedge $-1 $494 $495 $213 $346 forward $484 $-1 #
edge $-1 $496 -36.693280882949615 $349 -23.204449713443427 $345 $497 forward 7 unknown #
edge $-1 $350 -4.4385273125170671e-015 $496 16.466822427877474 $214 $498 forward 7 unknown #
coedge $-1 $215 $488 $494 $499 reversed $338 $-1 #
vertex $-1 $499 $500 #
vertex $-1 $216 $501 #
straight-curve $-1 26.607384572698361 -29.043351408126327 55.623367621720341 0 0 -1 I I #
coedge $-1 $352 $352 $-1 $502 reversed $219 $-1 #
edge $-1 $503 0 $503 6.2831853071796004 $220 $504 forward 7 unknown #
vertex $-1 $223 $505 #
ellipse-curve $-1 32.426478697279009 -22.298935823373242 8.2122464028354933 0 -0.57357644374324357 0.81915203911291934 2 0 0 1 I I #
coedge $-1 $356 $356 $-1 $506 reversed $226 $-1 #
edge $-1 $507 0 $507 6.2831853071796004 $227 $508 forward 7 unknown #
vertex $-1 $230 $509 #
ellipse-curve $-1 41.155119884149997 -22.298935823373242 8.2122464028354933 0 -0.57357644374324357 0.81915203911291934 2 0 0 1 I I #
face $-1 $-1 $510 $48 $-1 $511 forward single #
loop $-1 $-1 $237 $231 #
plane-surface $-1 0 29.04335140812633 0 0 -1 0 0 0 -1 forward_v I I I I #
coedge $-1 $512 $513 $514 $515 reversed $232 $-1 #
coedge $-1 $516 $234 $236 $370 forward $145 $-1 #
coedge $-1 $234 $516 $512 $517 forward $145 $-1 #
coedge $-1 $514 $237 $234 $367 forward $361 $-1 #
edge $-1 $373 15.379001260878688 $518 28.729781798875457 $366 $519 forward 7 unknown #
coedge $-1 $520 $521 $235 $369 forward $510 $-1 #
edge $-1 $522 -35.36958324172879 $372 -27.91816413057585 $368 $523 forward 7 unknown #
edge $-1 $373 -58.08670281625264 $522 -43.183864194626025 $236 $524 forward 7 unknown #
coedge $-1 $237 $514 $520 $525 reversed $361 $-1 #
vertex $-1 $525 $526 #
vertex $-1 $238 $527 #
straight-curve $-1 -37.433392790755761 29.043351408126327 58.053275373613147 0 0 -1 I I #
coedge $-1 $375 $375 $-1 $528 reversed $241 $-1 #
edge $-1 $529 0 $529 6.2831853071796004 $242 $530 forward 7 unknown #
vertex $-1 $245 $531 #
ellipse-curve $-1 -48.114017221153176 25.317641852549865 6.4816186517509635 0 0.86602541151947299 0.49999998660252726 1 0 0 1 I I #
coedge $-1 $379 $379 $-1 $532 reversed $248 $-1 #
edge $-1 $533 0 $533 6.2831853071796004 $249 $534 forward 7 unknown #
vertex $-1 $252 $535 #
ellipse-curve $-1 -44.108783059754145 25.317641852549865 6.4816186517509635 0 0.86602541151947299 0.49999998660252726 1 0 0 1 I I #
coedge $-1 $383 $383 $-1 $536 reversed $255 $-1 #
edge $-1 $537 0 $537 6.2831853071796004 $256 $538 forward 7 unknown #
vertex $-1 $259 $539 #
ellipse-curve $-1 -40.103548898355115 25.317641852549865 6.4816186517509635 0 0.86602541151947299 0.49999998660252726 1 0 0 1 I I #
face $-1 $-1 $275 $39 $-1 $540 reversed single #
loop $-1 $-1 $403 $260 #
plane-surface $-1 0 29.04335140812633 0 0 -1 0 0 0 -1 forward_v I I I I #
coedge $-1 $541 $401 $404 $542 forward $261 $-1 #
coedge $-1 $407 $263 $264 $395 reversed $164 $-1 #
coedge $-1 $401 $541 $263 $393 reversed $261 $-1 #
edge $-1 $408 -12.93473712680222 $543 12.93473712680222 $392 $544 forward 7 unknown #
coedge $-1 $265 $264 $541 $545 forward $105 $-1 #
edge $-1 $399 -65.773491622669155 $543 65.773491622669155 $391 $546 forward 7 unknown #
coedge $-1 $404 $403 $265 $397 reversed $388 $-1 #
edge $-1 $547 -65.773491622669155 $398 65.773491622669155 $396 $548 forward 7 unknown #
vertex $-1 $267 $549 #
vertex $-1 $410 $550 #
straight-curve $-1 65.773491622669155 0 -12.93473712680222 0 -1 0 I I #
coedge $-1 $390 $392 $268 $402 reversed $261 $-1 #
edge $-1 $405 -29.04335140812633 $408 29.04335140812633 $401 $551 forward 7 unknown #
coedge $-1 $396 $269 $274 $411 forward $388 $-1 #
coedge $-1 $269 $396 $390 $542 reversed $388 $-1 #
vertex $-1 $270 $552 #
straight-curve $-1 0 29.04335140812633 12.93473712680222 -1 0 0 I I #
coedge $-1 $271 $391 $273 $410 reversed $164 $-1 #
vertex $-1 $402 $553 #
straight-curve $-1 0 -29.04335140812633 12.93473712680222 1 0 0 I I #
edge $-1 $276 -12.93473712680222 $399 12.93473712680222 $273 $554 forward 7 unknown #
edge $-1 $277 -12.93473712680222 $398 12.93473712680222 $274 $555 forward 7 unknown #
point $-1 65.773491622669155 -29.04335140812633 12.93473712680222 #
point $-1 65.773491622669155 29.04335140812633 12.93473712680222 #
face $-1 $-1 $427 $40 $-1 $556 reversed single #
loop $-1 $-1 $423 $279 #
plane-surface $-1 -65.773491622669155 0 0 1 0 0 0 0 -1 forward_v I I I I #
coedge $-1 $557 $282 $420 $558 forward $172 $-1 #
coedge $-1 $282 $557 $559 $560 forward $172 $-1 #
edge $-1 $561 -29.04335140812633 $421 29.04335140812633 $282 $562 forward 7 unknown #
coedge $-1 $284 $430 $417 $558 reversed $280 $-1 #
vertex $-1 $558 $563 #
straight-curve $-1 -50.78417332875253 -29.04335140812633 -5.7173685634011102 0 0 1 I I #
coedge $-1 $564 $565 $286 $424 forward $415 $-1 #
edge $-1 $431 -29.04335140812633 $428 29.04335140812633 $423 $566 forward 7 unknown #
coedge $-1 $559 $287 $291 $433 forward $427 $-1 #
coedge $-1 $287 $559 $564 $567 reversed $427 $-1 #
loop $-1 $-1 $425 $414 #
vertex $-1 $567 $568 #
straight-curve $-1 -29.139416237855421 29.04335140812633 -9.9347371268022204 1 0 0 I I #
coedge $-1 $420 $289 $565 $569 forward $280 $-1 #
vertex $-1 $569 $570 #
straight-curve $-1 -29.139416237855421 -29.04335140812633 -9.9347371268022204 -1 0 0 I I #
edge $-1 $293 4.2173685634011102 $561 7.2173685634011102 $425 $571 forward 7 unknown #
point $-1 -50.78417332875253 -29.04335140812633 -9.9347371268022204 #
point $-1 -50.78417332875253 29.04335140812633 -9.9347371268022204 #
face $-1 $-1 $309 $41 $-1 $572 reversed single #
loop $-1 $-1 $304 $295 #
plane-surface $-1 0 29.04335140812633 0 0 -1 0 0 0 -1 forward_v I I I I #
coedge $-1 $573 $574 $299 $443 forward $296 $-1 #
coedge $-1 $575 $298 $442 $576 forward $180 $-1 #
coedge $-1 $298 $575 $307 $454 reversed $180 $-1 #
coedge $-1 $300 $299 $440 $576 reversed $113 $-1 #
edge $-1 $577 -29.04335140812633 $446 29.04335140812633 $439 $578 forward 7 unknown #
edge $-1 $447 -29.04335140812633 $451 29.04335140812633 $300 $579 forward 7 unknown #
coedge $-1 $301 $449 $573 $580 reversed $437 $-1 #
vertex $-1 $580 $581 #
vertex $-1 $305 $582 #
straight-curve $-1 50.78417332875253 29.04335140812633 -5.7173685634011102 0 0 1 I I #
coedge $-1 $445 $304 $308 $455 forward $437 $-1 #
straight-curve $-1 29.139416237855421 29.04335140812633 -9.9347371268022204 1 0 0 I I #
vertex $-1 $306 $583 #
straight-curve $-1 29.139416237855421 -29.04335140812633 -9.9347371268022204 -1 0 0 I I #
coedge $-1 $308 $307 $584 $585 reversed $309 $-1 #
edge $-1 $311 9.9347371268022204 $586 12.93473712680222 $307 $587 forward 7 unknown #
edge $-1 $310 9.9347371268022204 $588 12.93473712680222 $308 $589 forward 7 unknown #
point $-1 65.773491622669155 29.04335140812633 -9.9347371268022204 #
point $-1 65.773491622669155 -29.04335140812633 -9.9347371268022204 #
plane-surface $-1 0 -29.04335140812633 0 0 1 0 0 0 1 forward_v I I I I #
coedge $-1 $469 $468 $461 $590 forward $314 $-1 #
coedge $-1 $461 $316 $318 $465 reversed $188 $-1 #
coedge $-1 $316 $460 $459 $590 reversed $188 $-1 #
coedge $-1 $324 $319 $316 $463 forward $325 $-1 #
edge $-1 $466 -52.133611942851566 $591 -42.688630494918122 $462 $592 forward 7 unknown #
coedge $-1 $318 $317 $469 $593 reversed $117 $-1 #
edge $-1 $594 -16.466822427877474 $466 4.4385273125170671e-015 $460 $595 forward 7 unknown #
vertex $-1 $320 $596 #
straight-curve $-1 -18.395399645357251 -29.04335140812633 3.4897556788687703 1 0 0 I I #
coedge $-1 $459 $321 $324 $473 forward $314 $-1 #
coedge $-1 $321 $459 $464 $593 forward $314 $-1 #
vertex $-1 $322 $597 #
straight-curve $-1 -46.974214008730641 -52.247801121569758 12.934737126802219 0 -1 0 I I #
straight-curve $-1 -46.974214008730641 -29.043351408126327 3.4897556788687751 0 0.81915203911291934 0.57357644374324357 I I #
edge $-1 $326 -46.974214008730641 $591 -26.607384572698361 $324 $598 forward 7 unknown #
point $-1 -46.974214008730641 -29.04335140812633 12.93473712680222 #
point $-1 -46.974214008730641 -29.04335140812633 3.4897556788687725 #
edge $-1 $599 1 $599 0 $329 $-1 forward 7 unknown #
vertex $-1 $330 $600 #
ellipse-curve $-1 -41.155119884149997 -19.156562433224252 3.7244721954501823 0 -0.57357644374324357 0.81915203911291934 2 0 0 1 I I #
point $-1 -39.155119884149997 -22.298935823373249 8.212246402835504 #
edge $-1 $601 1 $601 0 $333 $-1 forward 7 unknown #
vertex $-1 $334 $602 #
ellipse-curve $-1 -32.426478697279016 -19.156562433224252 3.7244721954501823 0 -0.57357644374324357 0.81915203911291934 2 0 0 1 I I #
point $-1 -30.426478697279016 -22.298935823373249 8.212246402835504 #
loop $-1 $-1 $345 $337 #
plane-surface $-1 0 0 12.93473712680222 0 0 1 1 0 0 forward_v I I I I #
coedge $-1 $487 $340 $342 $491 reversed $210 $-1 #
coedge $-1 $340 $486 $603 $604 reversed $210 $-1 #
coedge $-1 $348 $343 $340 $489 forward $338 $-1 #
edge $-1 $492 -52.133611942851566 $605 -42.688630494918122 $488 $606 forward 7 unknown #
coedge $-1 $342 $341 $495 $607 reversed $131 $-1 #
edge $-1 $608 -16.466822427877474 $492 4.4385273125170671e-015 $486 $609 forward 7 unknown #
vertex $-1 $344 $610 #
straight-curve $-1 18.395399645357251 -29.04335140812633 3.4897556788687703 1 0 0 I I #
coedge $-1 $603 $345 $348 $499 forward $484 $-1 #
coedge $-1 $345 $603 $490 $607 forward $484 $-1 #
vertex $-1 $346 $611 #
straight-curve $-1 26.607384572698361 -52.247801121569758 12.934737126802219 0 -1 0 I I #
straight-curve $-1 26.607384572698361 -29.043351408126327 3.4897556788687751 0 0.81915203911291934 0.57357644374324357 I I #
edge $-1 $349 26.607384572698361 $605 46.974214008730641 $348 $612 forward 7 unknown #
point $-1 26.607384572698361 -29.04335140812633 12.93473712680222 #
point $-1 26.607384572698361 -29.04335140812633 3.4897556788687725 #
edge $-1 $613 1 $613 0 $352 $-1 forward 7 unknown #
vertex $-1 $353 $614 #
ellipse-curve $-1 32.426478697279009 -19.156562433224252 3.7244721954501823 0 -0.57357644374324357 0.81915203911291934 2 0 0 1 I I #
point $-1 34.426478697279009 -22.298935823373249 8.212246402835504 #
edge $-1 $615 1 $615 0 $356 $-1 forward 7 unknown #
vertex $-1 $357 $616 #
ellipse-curve $-1 41.155119884149997 -19.156562433224252 3.7244721954501823 0 -0.57357644374324357 0.81915203911291934 2 0 0 1 I I #
point $-1 43.155119884149997 -22.298935823373249 8.212246402835504 #
loop $-1 $-1 $368 $360 #
plane-surface $-1 0 0 12.93473712680222 0 0 1 1 0 0 forward_v I I I I #
coedge $-1 $513 $363 $365 $517 reversed $232 $-1 #
coedge $-1 $363 $512 $617 $618 reversed $232 $-1 #
coedge $-1 $371 $366 $363 $515 forward $361 $-1 #
edge $-1 $518 -58.024775196913417 $619 -45.118538246810928 $514 $620 forward 7 unknown #
coedge $-1 $365 $364 $521 $621 reversed $145 $-1 #
edge $-1 $622 43.183864194626025 $518 58.08670281625264 $512 $623 forward 7 unknown #
vertex $-1 $367 $624 #
straight-curve $-1 -22.054391529877073 29.043351408126334 0.028500176699726154 -1 0 0 I I #
coedge $-1 $617 $368 $371 $525 forward $510 $-1 #
coedge $-1 $368 $617 $516 $621 forward $510 $-1 #
vertex $-1 $369 $625 #
straight-curve $-1 -37.433392790755761 56.96151553870218 12.934737126802219 0 1 0 I I #
straight-curve $-1 -37.433392790755761 7.7821502486585814e-007 50.333060886954257 0 -0.49999998660252726 0.86602541151947299 I I #
edge $-1 $372 37.433392790755761 $619 50.78417332875253 $371 $626 forward 7 unknown #
point $-1 -37.433392790755761 29.04335140812633 12.93473712680222 #
point $-1 -37.433392790755761 29.04335140812633 0.028500176699729707 #
edge $-1 $627 1 $627 0 $375 $-1 forward 7 unknown #
vertex $-1 $376 $628 #
ellipse-curve $-1 -48.114017221153176 23.10020766568282 5.201382472791475 0 0.86602541151947299 0.49999998660252726 1 0 0 1 I I #
point $-1 -47.114017221153176 25.317641852549858 6.48161865175096 #
edge $-1 $629 1 $629 0 $379 $-1 forward 7 unknown #
vertex $-1 $380 $630 #
ellipse-curve $-1 -44.108783059754145 23.10020766568282 5.201382472791475 0 0.86602541151947299 0.49999998660252726 1 0 0 1 I I #
point $-1 -43.108783059754145 25.317641852549858 6.48161865175096 #
edge $-1 $631 1 $631 0 $383 $-1 forward 7 unknown #
vertex $-1 $384 $632 #
ellipse-curve $-1 -40.103548898355115 23.10020766568282 5.201382472791475 0 0.86602541151947299 0.49999998660252726 1 0 0 1 I I #
point $-1 -39.103548898355115 25.317641852549858 6.48161865175096 #
plane-surface $-1 65.773491622669155 0 0 -1 0 0 0 0 1 forward_v I I I I #
coedge $-1 $392 $390 $394 $545 reversed $261 $-1 #
edge $-1 $405 -12.93473712680222 $547 12.93473712680222 $404 $633 forward 7 unknown #
vertex $-1 $545 $634 #
straight-curve $-1 -65.773491622669155 -29.04335140812633 0 0 0 -1 I I #
edge $-1 $543 -29.04335140812633 $547 29.04335140812633 $541 $635 forward 7 unknown #
straight-curve $-1 0 -29.04335140812633 -12.93473712680222 -1 0 0 I I #
vertex $-1 $397 $636 #
straight-curve $-1 0 29.04335140812633 -12.93473712680222 1 0 0 I I #
point $-1 65.773491622669155 29.04335140812633 -12.93473712680222 #
point $-1 65.773491622669155 -29.04335140812633 -12.93473712680222 #
straight-curve $-1 -65.773491622669155 0 12.93473712680222 0 -1 0 I I #
point $-1 -65.773491622669155 29.04335140812633 12.93473712680222 #
point $-1 -65.773491622669155 -29.04335140812633 12.93473712680222 #
straight-curve $-1 65.773491622669155 -29.04335140812633 0 0 0 -1 I I #
straight-curve $-1 65.773491622669155 29.04335140812633 0 0 0 -1 I I #
plane-surface $-1 0 29.04335140812633 0 0 -1 0 0 0 -1 forward_v I I I I #
coedge $-1 $418 $417 $637 $638 forward $172 $-1 #
edge $-1 $421 50.78417332875253 $639 65.773491622669155 $420 $640 forward 7 unknown #
coedge $-1 $426 $425 $418 $560 reversed $427 $-1 #
edge $-1 $641 -65.773491622669155 $561 -50.78417332875253 $559 $642 forward 7 unknown #
vertex $-1 $433 $643 #
straight-curve $-1 -50.78417332875253 0 -12.93473712680222 0 -1 0 I I #
point $-1 -50.78417332875253 -29.04335140812633 -12.93473712680222 #
coedge $-1 $637 $423 $426 $567 forward $415 $-1 #
coedge $-1 $423 $637 $430 $569 reversed $415 $-1 #
straight-curve $-1 -65.773491622669155 0 -9.9347371268022204 0 1 0 I I #
edge $-1 $428 9.9347371268022204 $641 12.93473712680222 $426 $644 forward 7 unknown #
point $-1 -65.773491622669155 29.04335140812633 -9.9347371268022204 #
edge $-1 $431 9.9347371268022204 $639 12.93473712680222 $565 $645 forward 7 unknown #
point $-1 -65.773491622669155 -29.04335140812633 -9.9347371268022204 #
straight-curve $-1 -50.78417332875253 29.04335140812633 -5.7173685634011102 0 0 -1 I I #
plane-surface $-1 65.773491622669155 0 0 -1 0 0 0 0 1 forward_v I I I I #
coedge $-1 $584 $439 $445 $580 forward $296 $-1 #
coedge $-1 $439 $584 $575 $646 forward $296 $-1 #
coedge $-1 $441 $440 $574 $646 reversed $180 $-1 #
edge $-1 $451 4.2173685634011102 $577 7.2173685634011102 $440 $647 forward 7 unknown #
vertex $-1 $443 $648 #
straight-curve $-1 50.78417332875253 0 -12.93473712680222 0 1 0 I I #
straight-curve $-1 50.78417332875253 0 -9.9347371268022204 0 -1 0 I I #
edge $-1 $446 50.78417332875253 $588 65.773491622669155 $445 $649 forward 7 unknown #
point $-1 50.78417332875253 29.04335140812633 -12.93473712680222 #
point $-1 50.78417332875253 29.04335140812633 -9.9347371268022204 #
point $-1 50.78417332875253 -29.04335140812633 -9.9347371268022204 #
coedge $-1 $574 $573 $453 $585 forward $296 $-1 #
edge $-1 $588 -29.04335140812633 $586 29.04335140812633 $453 $650 forward 7 unknown #
vertex $-1 $454 $651 #
straight-curve $-1 65.773491622669155 -29.04335140812633 0 0 0 -1 I I #
vertex $-1 $585 $652 #
straight-curve $-1 65.773491622669155 29.04335140812633 0 0 0 -1 I I #
edge $-1 $591 23.204449713443427 $594 36.693280882949615 $459 $653 forward 7 unknown #
vertex $-1 $590 $654 #
straight-curve $-1 -26.607384572698361 -29.043351408126327 55.623367621720341 0 0 1 I I #
edge $-1 $594 8.2119849273411099 $470 28.57881436337339 $469 $655 forward 7 unknown #
vertex $-1 $593 $656 #
straight-curve $-1 -26.607384572698361 -29.043351408126327 3.4897556788687751 0 -0.81915203911291934 -0.57357644374324357 I I #
point $-1 -26.607384572698361 -29.04335140812633 3.4897556788687725 #
point $-1 -46.974214008730641 -15.554520238620141 12.93473712680222 #
straight-curve $-1 0 -29.04335140812633 12.93473712680222 1 0 0 I I #
vertex $-1 $476 $657 #
point $-1 -39.155119884149997 -19.156562433224252 3.7244721954501823 #
vertex $-1 $480 $658 #
point $-1 -30.426478697279016 -19.156562433224252 3.7244721954501823 #
coedge $-1 $495 $494 $487 $604 forward $484 $-1 #
edge $-1 $605 23.204449713443427 $608 36.693280882949615 $603 $659 forward 7 unknown #
vertex $-1 $604 $660 #
straight-curve $-1 46.974214008730641 -29.043351408126327 55.623367621720341 0 0 1 I I #
edge $-1 $608 -28.57881436337339 $496 -8.2119849273411099 $495 $661 forward 7 unknown #
vertex $-1 $607 $662 #
straight-curve $-1 46.974214008730641 -29.043351408126327 3.4897556788687751 0 -0.81915203911291934 -0.57357644374324357 I I #
point $-1 46.974214008730641 -29.04335140812633 3.4897556788687725 #
point $-1 26.607384572698361 -15.554520238620141 12.93473712680222 #
straight-curve $-1 0 -29.04335140812633 12.93473712680222 1 0 0 I I #
vertex $-1 $502 $663 #
point $-1 34.426478697279009 -19.156562433224252 3.7244721954501823 #
vertex $-1 $506 $664 #
point $-1 43.155119884149997 -19.156562433224252 3.7244721954501823 #
coedge $-1 $521 $520 $513 $618 forward $510 $-1 #
edge $-1 $619 27.91816413057585 $622 35.36958324172879 $617 $665 forward 7 unknown #
vertex $-1 $618 $666 #
straight-curve $-1 -50.78417332875253 29.043351408126327 58.053275373613147 0 0 1 I I #
edge $-1 $622 -28.729781798875457 $522 -15.379001260878688 $521 $667 forward 7 unknown #
vertex $-1 $621 $668 #
straight-curve $-1 -50.78417332875253 7.7821502486585814e-007 50.333060886954257 0 0.49999998660252726 -0.86602541151947299 I I #
point $-1 -50.78417332875253 29.04335140812633 0.028500176699729707 #
point $-1 -37.433392790755761 21.591932296973393 12.934737126802219 #
straight-curve $-1 0 29.04335140812633 12.93473712680222 -1 0 0 I I #
vertex $-1 $528 $669 #
point $-1 -47.114017221153176 23.10020766568282 5.201382472791475 #
vertex $-1 $532 $670 #
point $-1 -43.108783059754145 23.10020766568282 5.201382472791475 #
vertex $-1 $536 $671 #
point $-1 -39.103548898355115 23.10020766568282 5.201382472791475 #
straight-curve $-1 -65.773491622669155 29.04335140812633 0 0 0 -1 I I #
point $-1 -65.773491622669155 -29.04335140812633 -12.93473712680222 #
straight-curve $-1 -65.773491622669155 0 -12.93473712680222 0 1 0 I I #
point $-1 -65.773491622669155 29.04335140812633 -12.93473712680222 #
coedge $-1 $565 $564 $557 $638 reversed $415 $-1 #
edge $-1 $639 -29.04335140812633 $641 29.04335140812633 $637 $672 forward 7 unknown #
vertex $-1 $638 $673 #
straight-curve $-1 0 -29.04335140812633 -12.93473712680222 -1 0 0 I I #
vertex $-1 $560 $674 #
straight-curve $-1 0 29.04335140812633 -12.93473712680222 1 0 0 I I #
point $-1 -50.78417332875253 29.04335140812633 -12.93473712680222 #
straight-curve $-1 -65.773491622669155 29.04335140812633 0 0 0 -1 I I #
straight-curve $-1 -65.773491622669155 -29.04335140812633 0 0 0 -1 I I #
edge $-1 $586 -65.773491622669155 $577 -50.78417332875253 $575 $675 forward 7 unknown #
straight-curve $-1 50.78417332875253 -29.04335140812633 -5.7173685634011102 0 0 -1 I I #
point $-1 50.78417332875253 -29.04335140812633 -12.93473712680222 #
straight-curve $-1 0 29.04335140812633 -12.93473712680222 1 0 0 I I #
straight-curve $-1 65.773491622669155 0 -12.93473712680222 0 -1 0 I I #
point $-1 65.773491622669155 -29.04335140812633 -12.93473712680222 #
point $-1 65.773491622669155 29.04335140812633 -12.93473712680222 #
straight-curve $-1 -26.607384572698361 -52.247801121569758 12.934737126802219 0 1 0 I I #
point $-1 -26.607384572698361 -29.04335140812633 12.93473712680222 #
straight-curve $-1 -18.395399645357251 -15.554520238620139 12.93473712680222 -1 0 0 I I #
point $-1 -26.607384572698361 -15.554520238620141 12.93473712680222 #
point $-1 -41.155119884149997 -18.009409545737768 2.0861681172243434 #
point $-1 -32.426478697279016 -18.009409545737768 2.0861681172243434 #
straight-curve $-1 46.974214008730641 -52.247801121569758 12.934737126802219 0 1 0 I I #
point $-1 46.974214008730641 -29.04335140812633 12.93473712680222 #
straight-curve $-1 18.395399645357251 -15.554520238620139 12.93473712680222 -1 0 0 I I #
point $-1 46.974214008730641 -15.554520238620141 12.93473712680222 #
point $-1 32.426478697279009 -18.009409545737768 2.0861681172243434 #
point $-1 41.155119884149997 -18.009409545737768 2.0861681172243434 #
straight-curve $-1 -50.78417332875253 56.96151553870218 12.934737126802219 0 -1 0 I I #
point $-1 -50.78417332875253 29.04335140812633 12.93473712680222 #
straight-curve $-1 -22.054391529877073 21.591932296973393 12.934737126802222 1 0 0 I I #
point $-1 -50.78417332875253 21.591932296973393 12.934737126802219 #
point $-1 -48.114017221153176 22.234182254163347 4.7013824861889484 #
point $-1 -44.108783059754145 22.234182254163347 4.7013824861889484 #
point $-1 -40.103548898355115 22.234182254163347 4.7013824861889484 #
straight-curve $-1 -65.773491622669155 0 -12.93473712680222 0 1 0 I I #
point $-1 -65.773491622669155 -29.04335140812633 -12.93473712680222 #
point $-1 -65.773491622669155 29.04335140812633 -12.93473712680222 #
straight-curve $-1 0 -29.04335140812633 -12.93473712680222 -1 0 0 I I #
End-of-ACIS-data 