500 0 8 0           
7 Unknown 11 ACIS 5.0 NT 24 Fri Mar 26 15:06:31 1999 
-1 9.9999999999999995e-007 1e-010 
body $-1 $8 $-1 $9 #
body $-1 $10 $-1 $11 #
body $-1 $12 $-1 $13 #
body $-1 $14 $-1 $15 #
body $-1 $16 $-1 $17 #
body $-1 $18 $-1 $19 #
body $-1 $20 $-1 $21 #
body $-1 $22 $-1 $23 #
lump $-1 $-1 $24 $0 #
transform $-1 1 0 0 0 1 0 0 0 1 79.199194311349828 38.766201294028946 9.8164251227438104 1 rotate no_reflect no_shear #
lump $-1 $-1 $25 $1 #
transform $-1 1 0 0 0 1 0 0 0 1 79.199194311349828 38.766201294028946 9.8164251227438104 1 rotate no_reflect no_shear #
lump $-1 $-1 $26 $2 #
transform $-1 1 0 0 0 1 0 0 0 1 79.199194311349828 38.766201294028946 9.8164251227438104 1 rotate no_reflect no_shear #
lump $-1 $-1 $27 $3 #
transform $-1 1 0 0 0 1 0 0 0 1 79.199194311349828 38.766201294028946 9.8164251227438104 1 rotate no_reflect no_shear #
lump $-1 $-1 $28 $4 #
transform $-1 1 0 0 0 1 0 0 0 1 79.199194311349828 38.766201294028946 9.8164251227438104 1 rotate no_reflect no_shear #
lump $-1 $-1 $29 $5 #
transform $-1 1 0 0 0 1 0 0 0 1 79.199194311349828 38.766201294028946 9.8164251227438104 1 rotate no_reflect no_shear #
lump $-1 $-1 $30 $6 #
transform $-1 1 0 0 0 1 0 0 0 1 79.199194311349828 38.766201294028946 9.8164251227438104 1 rotate no_reflect no_shear #
lump $-1 $-1 $31 $7 #
transform $-1 1 0 0 0 1 0 0 0 1 79.199194311349828 38.766201294028946 9.8164251227438104 1 rotate no_reflect no_shear #
shell $-1 $-1 $-1 $32 $-1 $8 #
shell $-1 $-1 $-1 $33 $-1 $10 #
shell $-1 $-1 $-1 $34 $-1 $12 #
shell $-1 $-1 $-1 $35 $-1 $14 #
shell $-1 $-1 $-1 $36 $-1 $16 #
shell $-1 $-1 $-1 $37 $-1 $18 #
shell $-1 $-1 $-1 $38 $-1 $20 #
shell $-1 $-1 $-1 $39 $-1 $22 #
face $-1 $40 $41 $24 $-1 $42 forward single #
face $-1 $43 $44 $25 $-1 $45 forward single #
face $-1 $46 $47 $26 $-1 $48 reversed single #
face $-1 $49 $50 $27 $-1 $51 forward single #
face $-1 $52 $53 $28 $-1 $54 forward single #
face $-1 $55 $56 $29 $-1 $57 reversed single #
face $-1 $58 $59 $30 $-1 $60 forward single #
face $-1 $61 $62 $31 $-1 $63 forward single #
face $-1 $64 $65 $24 $-1 $66 reversed single #
loop $-1 $-1 $67 $32 #
plane-surface $-1 0 0 9.8164251227438104 0 0 1 1 0 0 forward_v I I I I #
face $-1 $68 $69 $25 $-1 $70 forward single #
loop $-1 $-1 $71 $33 #
plane-surface $-1 0 -38.766201294028946 0 0 1 0 0 0 1 forward_v I I I I #
face $-1 $72 $73 $26 $-1 $74 reversed single #
loop $-1 $-1 $75 $34 #
plane-surface $-1 137.17703181313297 -12.338201114353147 216.54097937088969 0 -1 0 -0.86602541151947299 0 -0.49999998660252726 forward_v I I I I #
face $-1 $76 $77 $27 $-1 $78 forward single #
loop $-1 $79 $80 $35 #
cone-surface $-1 74.3040382973291 -21.575547192485853 3.7729829223342852 -0.86602541151947299 0 -0.49999998660252726 0.74999997990379086 0 -1.2990381172792094 1 I I 0 1 1.5 forward I I I I #
face $-1 $81 $82 $28 $-1 $83 forward single #
loop $-1 $84 $85 $36 #
cone-surface $-1 74.3040382973291 -16.033139545606229 3.7729829223342852 -0.86602541151947299 0 -0.49999998660252726 0.74999997990379086 0 -1.2990381172792094 1 I I 0 1 1.5 forward I I I I #
face $-1 $86 $87 $29 $-1 $88 reversed single #
loop $-1 $-1 $89 $37 #
plane-surface $-1 137.17703181313297 35.355426687445146 216.54097937088969 0 -1 0 -0.86602541151947299 0 -0.49999998660252726 forward_v I I I I #
face $-1 $90 $91 $30 $-1 $92 forward single #
loop $-1 $93 $94 $38 #
cone-surface $-1 74.3040382973291 26.118080609312443 3.7729829223342852 -0.86602541151947299 0 -0.49999998660252726 0.74999997990379086 0 -1.2990381172792094 1 I I 0 1 1.5 forward I I I I #
face $-1 $95 $96 $31 $-1 $97 forward single #
loop $-1 $98 $99 $39 #
cone-surface $-1 74.3040382973291 31.660488256192068 3.7729829223342852 -0.86602541151947299 0 -0.49999998660252726 0.74999997990379086 0 -1.2990381172792094 1 I I 0 1 1.5 forward I I I I #
face $-1 $100 $101 $24 $-1 $102 reversed single #
loop $-1 $-1 $103 $40 #
plane-surface $-1 0 0 -9.8164251227438104 0 0 1 1 0 0 forward_v I I I I #
coedge $-1 $104 $105 $106 $107 forward $41 $-1 #
face $-1 $108 $109 $25 $-1 $110 reversed single #
loop $-1 $-1 $111 $43 #
plane-surface $-1 0 0 9.8164251227438104 0 0 1 1 0 0 forward_v I I I I #
coedge $-1 $112 $113 $114 $115 forward $44 $-1 #
face $-1 $116 $117 $26 $-1 $118 reversed single #
loop $-1 $-1 $119 $46 #
plane-surface $-1 2.1221380848146509e-006 -18.804343369046041 137.34178718167794 0.86602541151947299 0 0.49999998660252726 0.49999998660252726 0 -0.86602541151947299 forward_v I I I I #
coedge $-1 $120 $121 $122 $123 reversed $47 $-1 #
face $-1 $-1 $124 $27 $-1 $125 forward single #
loop $-1 $126 $127 $49 #
cone-surface $-1 71.545559577876986 -21.575547192485853 2.1803745480032273 -0.86602541151947299 0 -0.49999998660252726 0.37499998995189543 0 -0.64951905863960469 1 I I -0.70710678118654757 0.70710678118654757 0.75 forward I I I I #
loop $-1 $-1 $128 $35 #
coedge $-1 $80 $80 $129 $130 reversed $50 $-1 #
face $-1 $-1 $131 $28 $-1 $132 forward single #
loop $-1 $133 $134 $52 #
cone-surface $-1 71.545559577876986 -16.033139545606229 2.1803745480032273 -0.86602541151947299 0 -0.49999998660252726 0.37499998995189543 0 -0.64951905863960469 1 I I -0.70710678118654757 0.70710678118654757 0.75 forward I I I I #
loop $-1 $-1 $135 $36 #
coedge $-1 $85 $85 $136 $137 reversed $53 $-1 #
face $-1 $138 $139 $29 $-1 $140 reversed single #
loop $-1 $-1 $141 $55 #
plane-surface $-1 2.1221380848146509e-006 28.889284432752248 137.34178718167794 0.86602541151947299 0 0.49999998660252726 0.49999998660252726 0 -0.86602541151947299 forward_v I I I I #
coedge $-1 $142 $143 $144 $145 reversed $56 $-1 #
face $-1 $-1 $146 $30 $-1 $147 forward single #
loop $-1 $148 $149 $58 #
cone-surface $-1 71.545559577876986 26.118080609312443 2.1803745480032273 -0.86602541151947299 0 -0.49999998660252726 0.37499998995189543 0 -0.64951905863960469 1 I I -0.70710678118654757 0.70710678118654757 0.75 forward I I I I #
loop $-1 $-1 $150 $38 #
coedge $-1 $94 $94 $151 $152 reversed $59 $-1 #
face $-1 $-1 $153 $31 $-1 $154 forward single #
loop $-1 $155 $156 $61 #
cone-surface $-1 71.545559577876986 31.660488256192068 2.1803745480032273 -0.86602541151947299 0 -0.49999998660252726 0.37499998995189543 0 -0.64951905863960469 1 I I -0.70710678118654757 0.70710678118654757 0.75 forward I I I I #
loop $-1 $-1 $157 $39 #
coedge $-1 $99 $99 $158 $159 reversed $62 $-1 #
face $-1 $160 $161 $24 $-1 $162 reversed single #
loop $-1 $-1 $163 $64 #
plane-surface $-1 0 -38.766201294028946 0 0 1 0 0 0 1 forward_v I I I I #
coedge $-1 $164 $165 $166 $167 forward $65 $-1 #
coedge $-1 $168 $67 $169 $170 forward $41 $-1 #
coedge $-1 $67 $168 $171 $172 forward $41 $-1 #
coedge $-1 $173 $174 $67 $107 reversed $175 $-1 #
edge $-1 $176 -38.766201294028946 $177 38.766201294028946 $106 $178 forward 7 unknown #
face $-1 $179 $180 $25 $-1 $181 reversed single #
loop $-1 $-1 $182 $68 #
plane-surface $-1 -79.199194311349828 0 0 1 0 0 0 0 -1 forward_v I I I I #
coedge $-1 $183 $184 $185 $186 forward $69 $-1 #
coedge $-1 $185 $71 $182 $187 reversed $44 $-1 #
coedge $-1 $71 $185 $188 $189 reversed $44 $-1 #
coedge $-1 $190 $191 $71 $115 reversed $180 $-1 #
edge $-1 $192 -79.199194311349828 $193 79.199194311349828 $114 $194 forward 7 unknown #
face $-1 $195 $196 $26 $-1 $197 reversed single #
loop $-1 $-1 $198 $72 #
plane-surface $-1 137.17703181313297 -25.270485623738935 216.54097937088969 0 1 0 0.86602541151947299 0 0.49999998660252726 forward_v I I I I #
coedge $-1 $199 $200 $201 $202 reversed $73 $-1 #
coedge $-1 $121 $75 $203 $204 reversed $47 $-1 #
coedge $-1 $75 $120 $199 $205 reversed $47 $-1 #
coedge $-1 $201 $206 $75 $123 forward $207 $-1 #
edge $-1 $208 -10.610678404783343 $209 -5.0382856983668916 $122 $210 forward 7 unknown #
loop $-1 $-1 $129 $76 #
plane-surface $-1 2.1221380848146509e-006 -18.804343369046041 137.34178718167794 0.86602541151947299 0 0.49999998660252726 0.49999998660252726 0 -0.86602541151947299 forward_v I I I I #
loop $-1 $-1 $211 $49 #
coedge $-1 $127 $127 $128 $212 reversed $77 $-1 #
coedge $-1 $128 $128 $127 $212 forward $79 $-1 #
coedge $-1 $129 $129 $80 $130 forward $124 $-1 #
edge $-1 $213 0 $213 6.2831853071796004 $129 $214 forward 7 unknown #
loop $-1 $-1 $136 $81 #
plane-surface $-1 2.1221380848146509e-006 -18.804343369046041 137.34178718167794 0.86602541151947299 0 0.49999998660252726 0.49999998660252726 0 -0.86602541151947299 forward_v I I I I #
loop $-1 $-1 $215 $52 #
coedge $-1 $134 $134 $135 $216 reversed $82 $-1 #
coedge $-1 $135 $135 $134 $216 forward $84 $-1 #
coedge $-1 $136 $136 $85 $137 forward $131 $-1 #
edge $-1 $217 0 $217 6.2831853071796004 $136 $218 forward 7 unknown #
face $-1 $219 $220 $29 $-1 $221 reversed single #
loop $-1 $-1 $222 $86 #
plane-surface $-1 137.17703181313297 22.423142178059354 216.54097937088969 0 1 0 0.86602541151947299 0 0.49999998660252726 forward_v I I I I #
coedge $-1 $223 $224 $225 $226 reversed $87 $-1 #
coedge $-1 $143 $89 $227 $228 reversed $56 $-1 #
coedge $-1 $89 $142 $223 $229 reversed $56 $-1 #
coedge $-1 $225 $230 $89 $145 forward $231 $-1 #
edge $-1 $232 -10.610678404783343 $233 -5.0382856983668916 $144 $234 forward 7 unknown #
loop $-1 $-1 $151 $90 #
plane-surface $-1 2.1221380848146509e-006 28.889284432752248 137.34178718167794 0.86602541151947299 0 0.49999998660252726 0.49999998660252726 0 -0.86602541151947299 forward_v I I I I #
loop $-1 $-1 $235 $58 #
coedge $-1 $149 $149 $150 $236 reversed $91 $-1 #
coedge $-1 $150 $150 $149 $236 forward $93 $-1 #
coedge $-1 $151 $151 $94 $152 forward $146 $-1 #
edge $-1 $237 0 $237 6.2831853071796004 $151 $238 forward 7 unknown #
loop $-1 $-1 $158 $95 #
plane-surface $-1 2.1221380848146509e-006 28.889284432752248 137.34178718167794 0.86602541151947299 0 0.49999998660252726 0.49999998660252726 0 -0.86602541151947299 forward_v I I I I #
loop $-1 $-1 $239 $61 #
coedge $-1 $156 $156 $157 $240 reversed $96 $-1 #
coedge $-1 $157 $157 $156 $240 forward $98 $-1 #
coedge $-1 $158 $158 $99 $159 forward $153 $-1 #
edge $-1 $241 0 $241 6.2831853071796004 $158 $242 forward 7 unknown #
face $-1 $243 $244 $24 $-1 $245 reversed single #
loop $-1 $-1 $246 $100 #
plane-surface $-1 -79.199194311349828 0 0 1 0 0 0 0 -1 forward_v I I I I #
coedge $-1 $247 $171 $248 $249 forward $101 $-1 #
coedge $-1 $250 $103 $247 $251 forward $65 $-1 #
coedge $-1 $103 $250 $252 $253 forward $65 $-1 #
coedge $-1 $174 $173 $103 $167 reversed $175 $-1 #
edge $-1 $254 -38.766201294028946 $255 38.766201294028946 $166 $256 forward 7 unknown #
coedge $-1 $105 $104 $257 $258 forward $41 $-1 #
coedge $-1 $259 $260 $104 $170 reversed $244 $-1 #
edge $-1 $177 -79.199194311349828 $261 79.199194311349828 $169 $262 forward 7 unknown #
coedge $-1 $163 $263 $105 $172 reversed $101 $-1 #
edge $-1 $264 -79.199194311349828 $176 79.199194311349828 $171 $265 forward 7 unknown #
coedge $-1 $166 $106 $263 $266 forward $175 $-1 #
coedge $-1 $106 $166 $259 $267 reversed $175 $-1 #
loop $-1 $-1 $173 $243 #
vertex $-1 $107 $268 #
vertex $-1 $107 $269 #
straight-curve $-1 79.199194311349828 0 9.8164251227438104 0 1 0 I I #
face $-1 $270 $271 $25 $-1 $272 reversed single #
loop $-1 $-1 $190 $108 #
plane-surface $-1 0 -43.808671825882058 5.5389239420571208 0 0 1 1 0 0 forward_v I I I I #
coedge $-1 $273 $274 $112 $187 forward $109 $-1 #
coedge $-1 $275 $111 $274 $276 forward $69 $-1 #
coedge $-1 $111 $275 $277 $278 forward $69 $-1 #
coedge $-1 $113 $112 $111 $186 reversed $44 $-1 #
edge $-1 $279 -79.199194311349828 $280 79.199194311349828 $111 $281 forward 7 unknown #
edge $-1 $280 -9.8164251227438104 $193 -5.5389239420571208 $182 $282 forward 7 unknown #
coedge $-1 $277 $283 $113 $189 forward $284 $-1 #
edge $-1 $192 5.5389239420571208 $279 9.8164251227438104 $188 $285 forward 7 unknown #
coedge $-1 $286 $114 $283 $287 forward $180 $-1 #
coedge $-1 $114 $286 $273 $288 forward $180 $-1 #
vertex $-1 $189 $289 #
vertex $-1 $187 $290 #
straight-curve $-1 0 -38.766201294028946 5.5389239420571208 -1 0 0 I I #
face $-1 $-1 $207 $26 $-1 $291 forward single #
loop $-1 $-1 $292 $116 #
plane-surface $-1 79.199194311349828 0 0 -1 0 0 0 0 1 forward_v I I I I #
coedge $-1 $293 $294 $295 $296 reversed $117 $-1 #
coedge $-1 $297 $119 $121 $205 forward $73 $-1 #
coedge $-1 $119 $297 $293 $298 forward $73 $-1 #
coedge $-1 $295 $122 $119 $202 forward $207 $-1 #
edge $-1 $209 2.9360294298301266 $299 15.868313939215914 $201 $300 forward 7 unknown #
coedge $-1 $301 $302 $120 $204 forward $196 $-1 #
edge $-1 $303 -108.10573219476181 $208 -98.454064562701035 $203 $304 forward 7 unknown #
edge $-1 $209 147.25360291124284 $303 158.39838862269968 $121 $305 forward 7 unknown #
coedge $-1 $122 $295 $301 $306 forward $207 $-1 #
loop $-1 $-1 $295 $195 #
vertex $-1 $204 $307 #
vertex $-1 $123 $308 #
straight-curve $-1 68.588515906566485 -12.338201114353147 9.8164251227438086 -1 0 0 I I #
coedge $-1 $211 $211 $-1 $309 reversed $126 $-1 #
edge $-1 $310 0 $310 6.2831853071796004 $127 $311 forward 7 unknown #
vertex $-1 $130 $312 #
ellipse-curve $-1 76.412997958141588 -21.575547192485853 4.990591306713438 0.86602541151947299 0 0.49999998660252726 0.74999997990379086 0 -1.2990381172792094 1 I I #
coedge $-1 $215 $215 $-1 $313 reversed $133 $-1 #
edge $-1 $314 0 $314 6.2831853071796004 $134 $315 forward 7 unknown #
vertex $-1 $137 $316 #
ellipse-curve $-1 76.412997958141588 -16.033139545606229 4.990591306713438 0.86602541151947299 0 0.49999998660252726 0.74999997990379086 0 -1.2990381172792094 1 I I #
face $-1 $-1 $231 $29 $-1 $317 forward single #
loop $-1 $-1 $318 $138 #
plane-surface $-1 79.199194311349828 0 0 -1 0 0 0 0 1 forward_v I I I I #
coedge $-1 $319 $320 $321 $322 reversed $139 $-1 #
coedge $-1 $323 $141 $143 $229 forward $87 $-1 #
coedge $-1 $141 $323 $319 $324 forward $87 $-1 #
coedge $-1 $321 $144 $141 $226 forward $231 $-1 #
edge $-1 $233 -20.910784471069022 $325 -7.9784999616832302 $225 $326 forward 7 unknown #
coedge $-1 $327 $328 $142 $228 forward $220 $-1 #
edge $-1 $329 -108.10573219476181 $232 -98.454064562701035 $227 $330 forward 7 unknown #
edge $-1 $233 147.25360291124284 $329 158.39838862269968 $143 $331 forward 7 unknown #
coedge $-1 $144 $321 $327 $332 forward $231 $-1 #
loop $-1 $-1 $321 $219 #
vertex $-1 $228 $333 #
vertex $-1 $145 $334 #
straight-curve $-1 68.588515906566485 35.355426687445146 9.8164251227438086 -1 0 0 I I #
coedge $-1 $235 $235 $-1 $335 reversed $148 $-1 #
edge $-1 $336 0 $336 6.2831853071796004 $149 $337 forward 7 unknown #
vertex $-1 $152 $338 #
ellipse-curve $-1 76.412997958141588 26.118080609312443 4.990591306713438 0.86602541151947299 0 0.49999998660252726 0.74999997990379086 0 -1.2990381172792094 1 I I #
coedge $-1 $239 $239 $-1 $339 reversed $155 $-1 #
edge $-1 $340 0 $340 6.2831853071796004 $156 $341 forward 7 unknown #
vertex $-1 $159 $342 #
ellipse-curve $-1 76.412997958141588 31.660488256192068 4.990591306713438 0.86602541151947299 0 0.49999998660252726 0.74999997990379086 0 -1.2990381172792094 1 I I #
face $-1 $-1 $175 $24 $-1 $343 reversed single #
loop $-1 $-1 $259 $160 #
plane-surface $-1 0 38.766201294028946 0 0 -1 0 0 0 -1 forward_v I I I I #
coedge $-1 $344 $257 $260 $345 forward $161 $-1 #
coedge $-1 $263 $163 $164 $251 reversed $101 $-1 #
coedge $-1 $257 $344 $163 $249 reversed $161 $-1 #
edge $-1 $264 -9.8164251227438104 $346 9.8164251227438104 $248 $347 forward 7 unknown #
coedge $-1 $165 $164 $344 $348 forward $65 $-1 #
edge $-1 $255 -79.199194311349828 $346 79.199194311349828 $247 $349 forward 7 unknown #
coedge $-1 $260 $259 $165 $253 reversed $244 $-1 #
edge $-1 $350 -79.199194311349828 $254 79.199194311349828 $252 $351 forward 7 unknown #
vertex $-1 $167 $352 #
vertex $-1 $266 $353 #
straight-curve $-1 79.199194311349828 0 -9.8164251227438104 0 -1 0 I I #
coedge $-1 $246 $248 $168 $258 reversed $161 $-1 #
edge $-1 $261 -38.766201294028946 $264 38.766201294028946 $257 $354 forward 7 unknown #
coedge $-1 $252 $169 $174 $267 forward $244 $-1 #
coedge $-1 $169 $252 $246 $345 reversed $244 $-1 #
vertex $-1 $170 $355 #
straight-curve $-1 0 38.766201294028946 9.8164251227438104 -1 0 0 I I #
coedge $-1 $171 $247 $173 $266 reversed $101 $-1 #
vertex $-1 $258 $356 #
straight-curve $-1 0 -38.766201294028946 9.8164251227438104 1 0 0 I I #
edge $-1 $176 -9.8164251227438104 $255 9.8164251227438104 $173 $357 forward 7 unknown #
edge $-1 $177 -9.8164251227438104 $254 9.8164251227438104 $174 $358 forward 7 unknown #
point $-1 79.199194311349828 -38.766201294028946 9.8164251227438104 #
point $-1 79.199194311349828 38.766201294028946 9.8164251227438104 #
face $-1 $-1 $284 $25 $-1 $359 reversed single #
loop $-1 $-1 $360 $179 #
plane-surface $-1 0 -48.851142357735171 7.6776745324004647 0 1 0 0 0 1 forward_v I I I I #
coedge $-1 $361 $182 $191 $288 reversed $109 $-1 #
coedge $-1 $182 $361 $183 $276 reversed $109 $-1 #
coedge $-1 $184 $183 $362 $363 forward $69 $-1 #
edge $-1 $280 38.766201294028946 $364 48.851142357735171 $274 $365 forward 7 unknown #
coedge $-1 $366 $188 $184 $278 reversed $284 $-1 #
edge $-1 $367 -48.851142357735171 $279 -38.766201294028946 $277 $368 forward 7 unknown #
vertex $-1 $189 $369 #
vertex $-1 $276 $370 #
straight-curve $-1 0 -38.766201294028946 9.8164251227438104 -1 0 0 I I #
straight-curve $-1 -79.199194311349828 -38.766201294028946 0 0 0 -1 I I #
coedge $-1 $188 $366 $190 $287 reversed $284 $-1 #
loop $-1 $-1 $188 $270 #
straight-curve $-1 79.199194311349828 -38.766201294028946 0 0 0 1 I I #
coedge $-1 $191 $190 $371 $372 forward $180 $-1 #
edge $-1 $192 -5.0424705318531124 $373 5.0424705318531124 $283 $374 forward 7 unknown #
edge $-1 $375 -5.0424705318531124 $193 5.0424705318531124 $273 $376 forward 7 unknown #
point $-1 79.199194311349828 -38.766201294028946 5.5389239420571208 #
point $-1 -79.199194311349828 -38.766201294028946 5.5389239420571208 #
plane-surface $-1 0 0 9.8164251227438104 0 0 1 1 0 0 forward_v I I I I #
coedge $-1 $302 $301 $294 $377 forward $196 $-1 #
coedge $-1 $294 $198 $200 $298 reversed $117 $-1 #
coedge $-1 $198 $293 $292 $377 reversed $117 $-1 #
coedge $-1 $206 $201 $198 $296 forward $207 $-1 #
edge $-1 $299 5.0382856983668916 $378 10.610678404783343 $295 $379 forward 7 unknown #
coedge $-1 $200 $199 $302 $380 reversed $73 $-1 #
edge $-1 $381 -158.39838862269968 $299 -147.25360291124284 $293 $382 forward 7 unknown #
vertex $-1 $202 $383 #
straight-curve $-1 73.626801604933362 -9.4021716845230205 9.8164251227438086 0 -1 0 I I #
coedge $-1 $292 $203 $206 $306 reversed $196 $-1 #
coedge $-1 $203 $292 $297 $380 forward $196 $-1 #
vertex $-1 $204 $384 #
straight-curve $-1 79.199194311349828 -12.338201114353147 108.27048968544484 0 0 1 I I #
straight-curve $-1 2.1221380848146509e-006 -12.338201114353147 137.34178718167794 0.49999998660252726 0 -0.86602541151947299 I I #
edge $-1 $378 -25.270485623738935 $208 -12.338201114353147 $301 $385 forward 7 unknown #
point $-1 79.199194311349828 -12.338201114353147 9.8164251227438104 #
point $-1 73.626801604933377 -12.338201114353147 9.8164251227437944 #
edge $-1 $386 1 $386 0 $211 $-1 forward 7 unknown #
vertex $-1 $212 $387 #
ellipse-curve $-1 72.195078636516584 -21.575547192485853 2.5553745379551227 0.86602541151947299 0 0.49999998660252726 0.74999997990379086 0 -1.2990381172792094 1 I I #
point $-1 77.162997938045393 -21.575547192485853 3.6915531894342379 #
edge $-1 $388 1 $388 0 $215 $-1 forward 7 unknown #
vertex $-1 $216 $389 #
ellipse-curve $-1 72.195078636516584 -16.033139545606229 2.5553745379551227 0.86602541151947299 0 0.49999998660252726 0.74999997990379086 0 -1.2990381172792094 1 I I #
point $-1 77.162997938045393 -16.033139545606229 3.6915531894342379 #
plane-surface $-1 0 0 9.8164251227438104 0 0 1 1 0 0 forward_v I I I I #
coedge $-1 $328 $327 $320 $390 forward $220 $-1 #
coedge $-1 $320 $222 $224 $324 reversed $139 $-1 #
coedge $-1 $222 $319 $318 $390 reversed $139 $-1 #
coedge $-1 $230 $225 $222 $322 forward $231 $-1 #
edge $-1 $325 5.0382856983668916 $391 10.610678404783343 $321 $392 forward 7 unknown #
coedge $-1 $224 $223 $328 $393 reversed $87 $-1 #
edge $-1 $394 -158.39838862269968 $325 -147.25360291124284 $319 $395 forward 7 unknown #
vertex $-1 $226 $396 #
straight-curve $-1 73.626801604933362 14.444642216376124 9.8164251227438086 0 -1 0 I I #
coedge $-1 $318 $227 $230 $332 reversed $220 $-1 #
coedge $-1 $227 $318 $323 $393 forward $220 $-1 #
vertex $-1 $228 $397 #
straight-curve $-1 79.199194311349828 35.355426687445146 108.27048968544484 0 0 1 I I #
straight-curve $-1 2.1221380848146509e-006 35.355426687445146 137.34178718167794 0.49999998660252726 0 -0.86602541151947299 I I #
edge $-1 $391 22.423142178059354 $232 35.355426687445146 $327 $398 forward 7 unknown #
point $-1 79.199194311349828 35.355426687445146 9.8164251227438104 #
point $-1 73.626801604933377 35.355426687445146 9.8164251227437944 #
edge $-1 $399 1 $399 0 $235 $-1 forward 7 unknown #
vertex $-1 $236 $400 #
ellipse-curve $-1 72.195078636516584 26.118080609312443 2.5553745379551227 0.86602541151947299 0 0.49999998660252726 0.74999997990379086 0 -1.2990381172792094 1 I I #
point $-1 77.162997938045393 26.118080609312443 3.6915531894342379 #
edge $-1 $401 1 $401 0 $239 $-1 forward 7 unknown #
vertex $-1 $240 $402 #
ellipse-curve $-1 72.195078636516584 31.660488256192068 2.5553745379551227 0.86602541151947299 0 0.49999998660252726 0.74999997990379086 0 -1.2990381172792094 1 I I #
point $-1 77.162997938045393 31.660488256192068 3.6915531894342379 #
plane-surface $-1 79.199194311349828 0 0 -1 0 0 0 0 1 forward_v I I I I #
coedge $-1 $248 $246 $250 $348 reversed $161 $-1 #
edge $-1 $261 -9.8164251227438104 $350 9.8164251227438104 $260 $403 forward 7 unknown #
vertex $-1 $348 $404 #
straight-curve $-1 -79.199194311349828 -38.766201294028946 0 0 0 -1 I I #
edge $-1 $346 -38.766201294028946 $350 38.766201294028946 $344 $405 forward 7 unknown #
straight-curve $-1 0 -38.766201294028946 -9.8164251227438104 -1 0 0 I I #
vertex $-1 $253 $406 #
straight-curve $-1 0 38.766201294028946 -9.8164251227438104 1 0 0 I I #
point $-1 79.199194311349828 38.766201294028946 -9.8164251227438104 #
point $-1 79.199194311349828 -38.766201294028946 -9.8164251227438104 #
straight-curve $-1 -79.199194311349828 0 9.8164251227438104 0 -1 0 I I #
point $-1 -79.199194311349828 38.766201294028946 9.8164251227438104 #
point $-1 -79.199194311349828 -38.766201294028946 9.8164251227438104 #
straight-curve $-1 79.199194311349828 -38.766201294028946 0 0 0 -1 I I #
straight-curve $-1 79.199194311349828 38.766201294028946 0 0 0 -1 I I #
plane-surface $-1 79.199194311349828 0 0 -1 0 0 0 0 1 forward_v I I I I #
coedge $-1 $371 $362 $361 $407 forward $271 $-1 #
coedge $-1 $274 $273 $360 $407 reversed $109 $-1 #
coedge $-1 $360 $408 $275 $363 reversed $271 $-1 #
edge $-1 $364 -79.199194311349828 $367 79.199194311349828 $362 $409 forward 7 unknown #
vertex $-1 $276 $410 #
straight-curve $-1 -79.199194311349828 0 9.8164251227438104 0 -1 0 I I #
coedge $-1 $283 $277 $408 $411 forward $284 $-1 #
vertex $-1 $278 $412 #
straight-curve $-1 79.199194311349828 0 9.8164251227438104 0 1 0 I I #
point $-1 79.199194311349828 -38.766201294028946 9.8164251227438104 #
point $-1 -79.199194311349828 -38.766201294028946 9.8164251227438104 #
coedge $-1 $408 $360 $286 $372 reversed $271 $-1 #
edge $-1 $373 -79.199194311349828 $375 79.199194311349828 $371 $413 forward 7 unknown #
vertex $-1 $411 $414 #
straight-curve $-1 79.199194311349828 -43.808671825882058 5.5389239420571208 0 -1 0 I I #
vertex $-1 $288 $415 #
straight-curve $-1 -79.199194311349828 -43.808671825882058 5.5389239420571208 0 1 0 I I #
edge $-1 $378 98.454064562701035 $381 108.10573219476181 $292 $416 forward 7 unknown #
vertex $-1 $306 $417 #
straight-curve $-1 68.588515906566485 -25.270485623738935 9.8164251227438086 1 0 0 I I #
edge $-1 $381 -15.868313939215914 $303 -2.9360294298301266 $302 $418 forward 7 unknown #
vertex $-1 $380 $419 #
straight-curve $-1 2.1221380848146509e-006 -25.270485623738935 137.34178718167794 -0.49999998660252726 0 0.86602541151947299 I I #
point $-1 73.626801604933377 -25.270485623738935 9.8164251227437944 #
point $-1 79.199194311349828 -12.338201114353147 0.16475749068303003 #
straight-curve $-1 79.199194311349828 0 9.8164251227438104 0 1 0 I I #
vertex $-1 $309 $420 #
point $-1 72.945078616420375 -21.575547192485853 1.2563364206759133 #
vertex $-1 $313 $421 #
point $-1 72.945078616420375 -16.033139545606229 1.2563364206759133 #
edge $-1 $391 98.454064562701035 $394 108.10573219476181 $318 $422 forward 7 unknown #
vertex $-1 $332 $423 #
straight-curve $-1 68.588515906566485 22.423142178059354 9.8164251227438086 1 0 0 I I #
edge $-1 $394 7.9784999616832302 $329 20.910784471069022 $328 $424 forward 7 unknown #
vertex $-1 $393 $425 #
straight-curve $-1 2.1221380848146509e-006 22.423142178059354 137.34178718167794 -0.49999998660252726 0 0.86602541151947299 I I #
point $-1 73.626801604933377 22.423142178059354 9.8164251227437944 #
point $-1 79.199194311349828 35.355426687445146 0.16475749068303003 #
straight-curve $-1 79.199194311349828 0 9.8164251227438104 0 1 0 I I #
vertex $-1 $335 $426 #
point $-1 72.945078616420375 26.118080609312443 1.2563364206759133 #
vertex $-1 $339 $427 #
point $-1 72.945078616420375 31.660488256192068 1.2563364206759133 #
straight-curve $-1 -79.199194311349828 38.766201294028946 0 0 0 -1 I I #
point $-1 -79.199194311349828 -38.766201294028946 -9.8164251227438104 #
straight-curve $-1 -79.199194311349828 0 -9.8164251227438104 0 1 0 I I #
point $-1 -79.199194311349828 38.766201294028946 -9.8164251227438104 #
edge $-1 $364 -2.1387505903433439 $375 2.1387505903433439 $361 $428 forward 7 unknown #
coedge $-1 $362 $371 $366 $411 reversed $271 $-1 #
straight-curve $-1 0 -48.851142357735171 9.8164251227438086 1 0 0 I I #
point $-1 -79.199194311349828 -48.851142357735171 9.8164251227438086 #
edge $-1 $367 -2.1387505903433439 $373 2.1387505903433439 $366 $429 forward 7 unknown #
point $-1 79.199194311349828 -48.851142357735171 9.8164251227438086 #
straight-curve $-1 0 -48.851142357735171 5.5389239420571208 -1 0 0 I I #
point $-1 79.199194311349828 -48.851142357735171 5.5389239420571208 #
point $-1 -79.199194311349828 -48.851142357735171 5.5389239420571208 #
straight-curve $-1 79.199194311349828 -25.270485623738935 108.27048968544484 0 0 -1 I I #
point $-1 79.199194311349828 -25.270485623738935 9.8164251227438104 #
straight-curve $-1 79.199194311349828 -9.4021716845230205 0.16475749068304424 0 1 0 I I #
point $-1 79.199194311349828 -25.270485623738935 0.16475749068303003 #
point $-1 70.896040519237388 -21.575547192485853 1.8053745580513318 #
point $-1 70.896040519237388 -16.033139545606229 1.8053745580513318 #
straight-curve $-1 79.199194311349828 22.423142178059354 108.27048968544484 0 0 -1 I I #
point $-1 79.199194311349828 22.423142178059354 9.8164251227438104 #
straight-curve $-1 79.199194311349828 14.444642216376124 0.16475749068304424 0 1 0 I I #
point $-1 79.199194311349828 22.423142178059354 0.16475749068303003 #
point $-1 70.896040519237388 26.118080609312443 1.8053745580513318 #
point $-1 70.896040519237388 31.660488256192068 1.8053745580513318 #
straight-curve $-1 -79.199194311349828 -48.851142357735171 7.6776745324004647 0 0 -1 I I #
straight-curve $-1 79.199194311349828 -48.851142357735171 7.6776745324004647 0 0 -1 I I #
End-of-ACIS-data 