500 0 14 0           
7 Unknown 11 ACIS 5.0 NT 24 Fri Mar 26 20:02:44 1999 
-1 9.9999999999999995e-007 1e-010 
body $-1 $14 $-1 $15 #
body $-1 $16 $-1 $17 #
body $-1 $18 $-1 $19 #
body $-1 $20 $-1 $21 #
body $-1 $22 $-1 $23 #
body $-1 $24 $-1 $25 #
body $-1 $26 $-1 $27 #
body $-1 $28 $-1 $29 #
body $-1 $30 $-1 $31 #
body $-1 $32 $-1 $33 #
body $-1 $34 $-1 $35 #
body $-1 $36 $-1 $37 #
body $-1 $38 $-1 $39 #
body $-1 $40 $-1 $41 #
lump $-1 $-1 $42 $0 #
transform $-1 1 0 0 0 1 0 0 0 1 58.217108676412245 26.007325565517821 11.034957367777055 1 rotate no_reflect no_shear #
lump $-1 $-1 $43 $1 #
transform $-1 1 0 0 0 1 0 0 0 1 58.217108676412245 26.007325565517821 11.034957367777055 1 rotate no_reflect no_shear #
lump $-1 $-1 $44 $2 #
transform $-1 1 0 0 0 1 0 0 0 1 58.217108676412245 26.007325565517821 11.034957367777055 1 rotate no_reflect no_shear #
lump $-1 $-1 $45 $3 #
transform $-1 1 0 0 0 1 0 0 0 1 58.217108676412245 26.007325565517821 11.034957367777055 1 rotate no_reflect no_shear #
lump $-1 $-1 $46 $4 #
transform $-1 1 0 0 0 1 0 0 0 1 58.217108676412245 26.007325565517821 11.034957367777055 1 rotate no_reflect no_shear #
lump $-1 $-1 $47 $5 #
transform $-1 1 0 0 0 1 0 0 0 1 58.217108676412245 26.007325565517821 11.034957367777055 1 rotate no_reflect no_shear #
lump $-1 $-1 $48 $6 #
transform $-1 1 0 0 0 1 0 0 0 1 58.217108676412245 26.007325565517821 11.034957367777055 1 rotate no_reflect no_shear #
lump $-1 $-1 $49 $7 #
transform $-1 1 0 0 0 1 0 0 0 1 58.217108676412245 26.007325565517821 11.034957367777055 1 rotate no_reflect no_shear #
lump $-1 $-1 $50 $8 #
transform $-1 1 0 0 0 1 0 0 0 1 58.217108676412245 26.007325565517821 11.034957367777055 1 rotate no_reflect no_shear #
lump $-1 $-1 $51 $9 #
transform $-1 1 0 0 0 1 0 0 0 1 58.217108676412245 26.007325565517821 11.034957367777055 1 rotate no_reflect no_shear #
lump $-1 $-1 $52 $10 #
transform $-1 1 0 0 0 1 0 0 0 1 58.217108676412245 26.007325565517821 11.034957367777055 1 rotate no_reflect no_shear #
lump $-1 $-1 $53 $11 #
transform $-1 1 0 0 0 1 0 0 0 1 58.217108676412245 26.007325565517821 11.034957367777055 1 rotate no_reflect no_shear #
lump $-1 $-1 $54 $12 #
transform $-1 1 0 0 0 1 0 0 0 1 58.217108676412245 26.007325565517821 11.034957367777055 1 rotate no_reflect no_shear #
lump $-1 $-1 $55 $13 #
transform $-1 1 0 0 0 1 0 0 0 1 58.217108676412245 26.007325565517821 11.034957367777055 1 rotate no_reflect no_shear #
shell $-1 $-1 $-1 $56 $-1 $14 #
shell $-1 $-1 $-1 $57 $-1 $16 #
shell $-1 $-1 $-1 $58 $-1 $18 #
shell $-1 $-1 $-1 $59 $-1 $20 #
shell $-1 $-1 $-1 $60 $-1 $22 #
shell $-1 $-1 $-1 $61 $-1 $24 #
shell $-1 $-1 $-1 $62 $-1 $26 #
shell $-1 $-1 $-1 $63 $-1 $28 #
shell $-1 $-1 $-1 $64 $-1 $30 #
shell $-1 $-1 $-1 $65 $-1 $32 #
shell $-1 $-1 $-1 $66 $-1 $34 #
shell $-1 $-1 $-1 $67 $-1 $36 #
shell $-1 $-1 $-1 $68 $-1 $38 #
shell $-1 $-1 $-1 $69 $-1 $40 #
face $-1 $70 $71 $42 $-1 $72 forward single #
face $-1 $73 $74 $43 $-1 $75 forward single #
face $-1 $76 $77 $44 $-1 $78 forward single #
face $-1 $79 $80 $45 $-1 $81 reversed single #
face $-1 $82 $83 $46 $-1 $84 forward single #
face $-1 $85 $86 $47 $-1 $87 forward single #
face $-1 $88 $89 $48 $-1 $90 reversed single #
face $-1 $91 $92 $49 $-1 $93 forward single #
face $-1 $94 $95 $50 $-1 $96 forward single #
face $-1 $97 $98 $51 $-1 $99 forward single #
face $-1 $100 $101 $52 $-1 $102 reversed single #
face $-1 $103 $104 $53 $-1 $105 forward single #
face $-1 $106 $107 $54 $-1 $108 forward single #
face $-1 $109 $110 $55 $-1 $111 forward single #
face $-1 $112 $113 $42 $-1 $114 reversed single #
loop $-1 $-1 $115 $56 #
plane-surface $-1 0 0 11.034957367777055 0 0 1 1 0 0 forward_v I I I I #
face $-1 $116 $117 $43 $-1 $118 reversed single #
loop $-1 $-1 $119 $57 #
plane-surface $-1 -58.217108676412245 0 0 1 0 0 0 0 -1 forward_v I I I I #
face $-1 $120 $121 $44 $-1 $122 reversed single #
loop $-1 $-1 $123 $58 #
plane-surface $-1 58.217108676412245 0 0 -1 0 0 0 0 1 forward_v I I I I #
face $-1 $124 $125 $45 $-1 $126 reversed single #
loop $-1 $-1 $127 $59 #
plane-surface $-1 -47.370850527737119 61.004264628471446 126.6310464962952 1 0 0 0 -0.64278761758704617 -0.76604443648966558 forward_v I I I I #
face $-1 $128 $129 $46 $-1 $130 forward single #
loop $-1 $131 $132 $60 #
cone-surface $-1 -44.105331036418022 21.25580451227329 6.8500221004375961 0 -0.64278761758704617 -0.76604443648966558 1.5 0 0 1 I I 0 1 1.5 forward I I I I #
face $-1 $133 $134 $47 $-1 $135 forward single #
loop $-1 $136 $137 $61 #
cone-surface $-1 -39.207051799439391 21.25580451227329 6.8500221004375961 0 -0.64278761758704617 -0.76604443648966558 1.5 0 0 1 I I 0 1 1.5 forward I I I I #
face $-1 $138 $139 $48 $-1 $140 reversed single #
loop $-1 $-1 $141 $62 #
plane-surface $-1 -27.552025956615566 -116.49370832019488 73.679521058287207 -1 0 0 0 -0.77714596973225614 0.62932038083071107 forward_v I I I I #
face $-1 $142 $143 $49 $-1 $144 forward single #
loop $-1 $145 $146 $63 #
cone-surface $-1 -37.920267194716281 -20.670773889382996 4.8838388647160773 0 0.77714596973225614 -0.62932038083071107 1 0 0 1 I I 0 1 1 forward I I I I #
face $-1 $147 $148 $50 $-1 $149 forward single #
loop $-1 $150 $151 $64 #
cone-surface $-1 -34.032176730428517 -20.670773889382996 4.8838388647160773 0 0.77714596973225614 -0.62932038083071107 1 0 0 1 I I 0 1 1 forward I I I I #
face $-1 $152 $153 $51 $-1 $154 forward single #
loop $-1 $155 $156 $65 #
cone-surface $-1 -30.144086266140746 -20.670773889382996 4.8838388647160773 0 0.77714596973225614 -0.62932038083071107 1 0 0 1 I I 0 1 1 forward I I I I #
face $-1 $157 $158 $52 $-1 $159 reversed single #
loop $-1 $-1 $160 $66 #
plane-surface $-1 40.512327504241455 -116.49370832019488 73.679521058287207 -1 0 0 0 -0.77714596973225614 0.62932038083071107 forward_v I I I I #
face $-1 $161 $162 $53 $-1 $163 forward single #
loop $-1 $164 $165 $67 #
cone-surface $-1 30.144086266140739 -20.670773889382996 4.8838388647160773 0 0.77714596973225614 -0.62932038083071107 1 0 0 1 I I 0 1 1 forward I I I I #
face $-1 $166 $167 $54 $-1 $168 forward single #
loop $-1 $169 $170 $68 #
cone-surface $-1 34.03217673042851 -20.670773889382996 4.8838388647160773 0 0.77714596973225614 -0.62932038083071107 1 0 0 1 I I 0 1 1 forward I I I I #
face $-1 $171 $172 $55 $-1 $173 forward single #
loop $-1 $174 $175 $69 #
cone-surface $-1 37.920267194716267 -20.670773889382996 4.8838388647160773 0 0.77714596973225614 -0.62932038083071107 1 0 0 1 I I 0 1 1 forward I I I I #
face $-1 $176 $177 $42 $-1 $178 reversed single #
loop $-1 $-1 $179 $70 #
plane-surface $-1 0 0 -11.034957367777055 0 0 1 1 0 0 forward_v I I I I #
coedge $-1 $180 $181 $182 $183 forward $71 $-1 #
face $-1 $184 $185 $43 $-1 $186 forward single #
loop $-1 $-1 $187 $73 #
plane-surface $-1 0 26.007325565517821 0 0 -1 0 0 0 -1 forward_v I I I I #
coedge $-1 $188 $189 $190 $191 forward $74 $-1 #
face $-1 $192 $193 $44 $-1 $194 forward single #
loop $-1 $-1 $195 $76 #
plane-surface $-1 0 26.007325565517821 0 0 -1 0 0 0 -1 forward_v I I I I #
coedge $-1 $196 $197 $198 $199 forward $77 $-1 #
face $-1 $200 $201 $45 $-1 $202 reversed single #
loop $-1 $-1 $203 $79 #
plane-surface $-1 -41.65619141792871 -13.838208549362918 37.437262076135525 0 0.64278761758704617 0.76604443648966558 1 0 0 forward_v I I I I #
coedge $-1 $204 $205 $206 $207 reversed $80 $-1 #
face $-1 $-1 $208 $46 $-1 $209 forward single #
loop $-1 $210 $211 $82 #
cone-surface $-1 -44.105331036418022 20.212439388319243 5.6065879916215362 0 -0.64278761758704617 -0.76604443648966558 0.75 0 0 1 I I -0.70710678118654757 0.70710678118654757 0.75 forward I I I I #
loop $-1 $-1 $212 $60 #
coedge $-1 $132 $132 $213 $214 reversed $83 $-1 #
face $-1 $-1 $215 $47 $-1 $216 forward single #
loop $-1 $217 $218 $85 #
cone-surface $-1 -39.207051799439391 20.212439388319243 5.6065879916215362 0 -0.64278761758704617 -0.76604443648966558 0.75 0 0 1 I I -0.70710678118654757 0.70710678118654757 0.75 forward I I I I #
loop $-1 $-1 $219 $61 #
coedge $-1 $137 $137 $220 $221 reversed $86 $-1 #
face $-1 $222 $223 $48 $-1 $224 reversed single #
loop $-1 $-1 $225 $88 #
plane-surface $-1 -34.03217673042851 -26.007325565517803 0.40509505208190433 0 -0.77714596973225614 0.62932038083071107 1 0 0 forward_v I I I I #
coedge $-1 $226 $227 $228 $229 reversed $89 $-1 #
face $-1 $-1 $230 $49 $-1 $231 forward single #
loop $-1 $232 $233 $91 #
cone-surface $-1 -37.920267194716281 -19.249595501818941 3.7329913290873211 0 0.77714596973225614 -0.62932038083071107 0.5 0 0 1 I I -0.70710678118654724 0.70710678118654791 0.5 forward I I I I #
loop $-1 $-1 $234 $63 #
coedge $-1 $146 $146 $235 $236 reversed $92 $-1 #
face $-1 $-1 $237 $50 $-1 $238 forward single #
loop $-1 $239 $240 $94 #
cone-surface $-1 -34.032176730428517 -19.249595501818941 3.7329913290873211 0 0.77714596973225614 -0.62932038083071107 0.5 0 0 1 I I -0.70710678118654724 0.70710678118654791 0.5 forward I I I I #
loop $-1 $-1 $241 $64 #
coedge $-1 $151 $151 $242 $243 reversed $95 $-1 #
face $-1 $-1 $244 $51 $-1 $245 forward single #
loop $-1 $246 $247 $97 #
cone-surface $-1 -30.144086266140746 -19.249595501818941 3.7329913290873211 0 0.77714596973225614 -0.62932038083071107 0.5 0 0 1 I I -0.70710678118654724 0.70710678118654791 0.5 forward I I I I #
loop $-1 $-1 $248 $65 #
coedge $-1 $156 $156 $249 $250 reversed $98 $-1 #
face $-1 $251 $252 $52 $-1 $253 reversed single #
loop $-1 $-1 $254 $100 #
plane-surface $-1 34.03217673042851 -26.007325565517803 0.40509505208190433 0 -0.77714596973225614 0.62932038083071107 1 0 0 forward_v I I I I #
coedge $-1 $255 $256 $257 $258 reversed $101 $-1 #
face $-1 $-1 $259 $53 $-1 $260 forward single #
loop $-1 $261 $262 $103 #
cone-surface $-1 30.144086266140739 -19.249595501818941 3.7329913290873211 0 0.77714596973225614 -0.62932038083071107 0.5 0 0 1 I I -0.70710678118654724 0.70710678118654791 0.5 forward I I I I #
loop $-1 $-1 $263 $67 #
coedge $-1 $165 $165 $264 $265 reversed $104 $-1 #
face $-1 $-1 $266 $54 $-1 $267 forward single #
loop $-1 $268 $269 $106 #
cone-surface $-1 34.03217673042851 -19.249595501818941 3.7329913290873211 0 0.77714596973225614 -0.62932038083071107 0.5 0 0 1 I I -0.70710678118654724 0.70710678118654791 0.5 forward I I I I #
loop $-1 $-1 $270 $68 #
coedge $-1 $170 $170 $271 $272 reversed $107 $-1 #
face $-1 $-1 $273 $55 $-1 $274 forward single #
loop $-1 $275 $276 $109 #
cone-surface $-1 37.920267194716267 -19.249595501818941 3.7329913290873211 0 0.77714596973225614 -0.62932038083071107 0.5 0 0 1 I I -0.70710678118654724 0.70710678118654791 0.5 forward I I I I #
loop $-1 $-1 $277 $69 #
coedge $-1 $175 $175 $278 $279 reversed $110 $-1 #
face $-1 $280 $281 $42 $-1 $282 reversed single #
loop $-1 $-1 $283 $112 #
plane-surface $-1 0 -26.007325565517821 0 0 1 0 0 0 1 forward_v I I I I #
coedge $-1 $284 $285 $286 $287 forward $113 $-1 #
coedge $-1 $288 $115 $289 $290 forward $71 $-1 #
coedge $-1 $115 $288 $291 $292 forward $71 $-1 #
coedge $-1 $293 $294 $115 $183 reversed $295 $-1 #
edge $-1 $296 -26.007325565517821 $297 26.007325565517821 $182 $298 forward 7 unknown #
face $-1 $299 $300 $43 $-1 $301 reversed single #
loop $-1 $-1 $190 $116 #
plane-surface $-1 -63.640237750749812 0 -4.6618459990436794 0 0 1 1 0 0 forward_v I I I I #
coedge $-1 $302 $303 $189 $304 forward $117 $-1 #
coedge $-1 $305 $119 $306 $307 reversed $74 $-1 #
coedge $-1 $119 $305 $187 $304 reversed $74 $-1 #
coedge $-1 $308 $309 $119 $191 reversed $185 $-1 #
edge $-1 $310 -26.007325565517821 $311 26.007325565517821 $190 $312 forward 7 unknown #
face $-1 $313 $314 $44 $-1 $315 reversed single #
loop $-1 $-1 $316 $120 #
plane-surface $-1 63.640237750749812 0 -4.6618459990436794 0 0 1 1 0 0 forward_v I I I I #
coedge $-1 $317 $318 $196 $319 forward $121 $-1 #
coedge $-1 $320 $123 $195 $319 reversed $77 $-1 #
coedge $-1 $123 $320 $321 $322 reversed $77 $-1 #
coedge $-1 $323 $324 $123 $199 reversed $193 $-1 #
edge $-1 $325 -26.007325565517821 $326 26.007325565517821 $198 $327 forward 7 unknown #
face $-1 $328 $329 $45 $-1 $330 reversed single #
loop $-1 $-1 $331 $124 #
plane-surface $-1 -35.941532308120301 61.004264628471446 126.6310464962952 -1 0 0 0 0.64278761758704617 0.76604443648966558 forward_v I I I I #
coedge $-1 $332 $333 $334 $335 reversed $125 $-1 #
coedge $-1 $205 $127 $336 $337 reversed $80 $-1 #
coedge $-1 $127 $204 $332 $338 reversed $80 $-1 #
coedge $-1 $334 $339 $127 $207 forward $340 $-1 #
edge $-1 $341 4.4948067487179024 $342 12.875300033679423 $206 $343 forward 7 unknown #
loop $-1 $-1 $213 $128 #
plane-surface $-1 -41.65619141792871 -13.838208549362918 37.437262076135525 0 0.64278761758704617 0.76604443648966558 1 0 0 forward_v I I I I #
loop $-1 $-1 $344 $82 #
coedge $-1 $211 $211 $212 $345 reversed $129 $-1 #
coedge $-1 $212 $212 $211 $345 forward $131 $-1 #
coedge $-1 $213 $213 $132 $214 forward $208 $-1 #
edge $-1 $346 2.660278077409978e-016 $346 6.2831853071796004 $213 $347 forward 7 unknown #
loop $-1 $-1 $220 $133 #
plane-surface $-1 -41.65619141792871 -13.838208549362918 37.437262076135525 0 0.64278761758704617 0.76604443648966558 1 0 0 forward_v I I I I #
loop $-1 $-1 $348 $85 #
coedge $-1 $218 $218 $219 $349 reversed $134 $-1 #
coedge $-1 $219 $219 $218 $349 forward $136 $-1 #
coedge $-1 $220 $220 $137 $221 forward $215 $-1 #
edge $-1 $350 2.660278077409978e-016 $350 6.2831853071796004 $220 $351 forward 7 unknown #
face $-1 $352 $353 $48 $-1 $354 forward single #
loop $-1 $-1 $355 $138 #
plane-surface $-1 -40.512327504241455 -116.49370832019488 73.679521058287207 1 0 0 0 0.77714596973225614 -0.62932038083071107 forward_v I I I I #
coedge $-1 $356 $357 $358 $359 reversed $139 $-1 #
coedge $-1 $227 $141 $360 $361 reversed $89 $-1 #
coedge $-1 $141 $226 $356 $362 reversed $89 $-1 #
coedge $-1 $358 $363 $141 $229 forward $353 $-1 #
edge $-1 $364 32.239528594579625 $365 40.847421141453438 $228 $366 forward 7 unknown #
loop $-1 $-1 $235 $142 #
plane-surface $-1 -34.03217673042851 -26.007325565517803 0.40509505208190433 0 -0.77714596973225614 0.62932038083071107 1 0 0 forward_v I I I I #
loop $-1 $-1 $367 $91 #
coedge $-1 $233 $233 $234 $368 reversed $143 $-1 #
coedge $-1 $234 $234 $233 $368 forward $145 $-1 #
coedge $-1 $235 $235 $146 $236 forward $230 $-1 #
edge $-1 $369 1.7406082628076339e-015 $369 6.2831853071796022 $235 $370 forward 7 unknown #
loop $-1 $-1 $242 $147 #
plane-surface $-1 -34.03217673042851 -26.007325565517803 0.40509505208190433 0 -0.77714596973225614 0.62932038083071107 1 0 0 forward_v I I I I #
loop $-1 $-1 $371 $94 #
coedge $-1 $240 $240 $241 $372 reversed $148 $-1 #
coedge $-1 $241 $241 $240 $372 forward $150 $-1 #
coedge $-1 $242 $242 $151 $243 forward $237 $-1 #
edge $-1 $373 1.7406082628076339e-015 $373 6.2831853071796022 $242 $374 forward 7 unknown #
loop $-1 $-1 $249 $152 #
plane-surface $-1 -34.03217673042851 -26.007325565517803 0.40509505208190433 0 -0.77714596973225614 0.62932038083071107 1 0 0 forward_v I I I I #
loop $-1 $-1 $375 $97 #
coedge $-1 $247 $247 $248 $376 reversed $153 $-1 #
coedge $-1 $248 $248 $247 $376 forward $155 $-1 #
coedge $-1 $249 $249 $156 $250 forward $244 $-1 #
edge $-1 $377 1.7406082628076339e-015 $377 6.2831853071796022 $249 $378 forward 7 unknown #
face $-1 $379 $380 $52 $-1 $381 reversed single #
loop $-1 $-1 $382 $157 #
plane-surface $-1 27.552025956615566 -116.49370832019488 73.679521058287207 1 0 0 0 0.77714596973225614 -0.62932038083071107 forward_v I I I I #
coedge $-1 $383 $384 $385 $386 reversed $158 $-1 #
coedge $-1 $256 $160 $387 $388 reversed $101 $-1 #
coedge $-1 $160 $255 $383 $389 reversed $101 $-1 #
coedge $-1 $385 $390 $160 $258 forward $391 $-1 #
edge $-1 $392 32.239528594579625 $393 40.847421141453438 $257 $394 forward 7 unknown #
loop $-1 $-1 $264 $161 #
plane-surface $-1 34.03217673042851 -26.007325565517803 0.40509505208190433 0 -0.77714596973225614 0.62932038083071107 1 0 0 forward_v I I I I #
loop $-1 $-1 $395 $103 #
coedge $-1 $262 $262 $263 $396 reversed $162 $-1 #
coedge $-1 $263 $263 $262 $396 forward $164 $-1 #
coedge $-1 $264 $264 $165 $265 forward $259 $-1 #
edge $-1 $397 1.7406082628076339e-015 $397 6.2831853071796022 $264 $398 forward 7 unknown #
loop $-1 $-1 $271 $166 #
plane-surface $-1 34.03217673042851 -26.007325565517803 0.40509505208190433 0 -0.77714596973225614 0.62932038083071107 1 0 0 forward_v I I I I #
loop $-1 $-1 $399 $106 #
coedge $-1 $269 $269 $270 $400 reversed $167 $-1 #
coedge $-1 $270 $270 $269 $400 forward $169 $-1 #
coedge $-1 $271 $271 $170 $272 forward $266 $-1 #
edge $-1 $401 1.7406082628076339e-015 $401 6.2831853071796022 $271 $402 forward 7 unknown #
loop $-1 $-1 $278 $171 #
plane-surface $-1 34.03217673042851 -26.007325565517803 0.40509505208190433 0 -0.77714596973225614 0.62932038083071107 1 0 0 forward_v I I I I #
loop $-1 $-1 $403 $109 #
coedge $-1 $276 $276 $277 $404 reversed $172 $-1 #
coedge $-1 $277 $277 $276 $404 forward $174 $-1 #
coedge $-1 $278 $278 $175 $279 forward $273 $-1 #
edge $-1 $405 1.7406082628076339e-015 $405 6.2831853071796022 $278 $406 forward 7 unknown #
face $-1 $407 $408 $42 $-1 $409 reversed single #
loop $-1 $-1 $410 $176 #
plane-surface $-1 -58.217108676412245 0 0 1 0 0 0 0 -1 forward_v I I I I #
coedge $-1 $411 $291 $412 $413 forward $177 $-1 #
coedge $-1 $414 $179 $411 $415 forward $113 $-1 #
coedge $-1 $179 $414 $416 $417 forward $113 $-1 #
coedge $-1 $294 $293 $179 $287 reversed $295 $-1 #
edge $-1 $418 -26.007325565517821 $419 26.007325565517821 $286 $420 forward 7 unknown #
coedge $-1 $181 $180 $421 $422 forward $71 $-1 #
coedge $-1 $423 $424 $180 $290 reversed $408 $-1 #
edge $-1 $297 -58.217108676412245 $425 58.217108676412245 $289 $426 forward 7 unknown #
coedge $-1 $283 $427 $181 $292 reversed $177 $-1 #
edge $-1 $428 -58.217108676412245 $296 58.217108676412245 $291 $429 forward 7 unknown #
coedge $-1 $286 $182 $427 $430 forward $295 $-1 #
coedge $-1 $182 $286 $423 $431 reversed $295 $-1 #
loop $-1 $-1 $293 $407 #
vertex $-1 $183 $432 #
vertex $-1 $183 $433 #
straight-curve $-1 58.217108676412245 0 11.034957367777055 0 1 0 I I #
face $-1 $434 $435 $43 $-1 $436 reversed single #
loop $-1 $-1 $437 $184 #
plane-surface $-1 -69.063366825087371 0 -7.8484016834103674 1 0 0 0 0 -1 forward_v I I I I #
coedge $-1 $438 $187 $439 $440 reversed $117 $-1 #
coedge $-1 $187 $438 $308 $441 reversed $117 $-1 #
edge $-1 $310 4.6618459990436794 $442 11.034957367777055 $187 $443 forward 7 unknown #
coedge $-1 $189 $188 $444 $445 reversed $74 $-1 #
coedge $-1 $446 $447 $188 $307 forward $448 $-1 #
edge $-1 $449 -11.034957367777055 $311 -4.6618459990436794 $306 $450 forward 7 unknown #
coedge $-1 $451 $190 $303 $441 forward $185 $-1 #
coedge $-1 $190 $451 $446 $452 forward $185 $-1 #
vertex $-1 $304 $453 #
vertex $-1 $452 $454 #
straight-curve $-1 -58.217108676412245 0 -4.6618459990436794 0 -1 0 I I #
face $-1 $455 $456 $44 $-1 $457 reversed single #
loop $-1 $-1 $458 $192 #
plane-surface $-1 69.063366825087371 0 -7.8484016834103674 -1 0 0 0 0 1 forward_v I I I I #
coedge $-1 $324 $323 $459 $460 forward $193 $-1 #
coedge $-1 $461 $195 $324 $462 reversed $121 $-1 #
coedge $-1 $195 $461 $463 $464 reversed $121 $-1 #
edge $-1 $465 -11.034957367777055 $326 -4.6618459990436794 $195 $466 forward 7 unknown #
coedge $-1 $197 $196 $467 $468 reversed $77 $-1 #
coedge $-1 $469 $470 $197 $322 forward $471 $-1 #
edge $-1 $325 4.6618459990436794 $472 11.034957367777055 $321 $473 forward 7 unknown #
coedge $-1 $316 $198 $470 $474 forward $193 $-1 #
coedge $-1 $198 $316 $317 $462 forward $193 $-1 #
vertex $-1 $322 $475 #
vertex $-1 $462 $476 #
straight-curve $-1 58.217108676412245 0 -4.6618459990436794 0 1 0 I I #
face $-1 $-1 $340 $45 $-1 $477 forward single #
loop $-1 $-1 $478 $200 #
plane-surface $-1 0 26.007325565517821 0 0 -1 0 0 0 -1 forward_v I I I I #
coedge $-1 $479 $480 $481 $482 reversed $201 $-1 #
coedge $-1 $483 $203 $205 $338 forward $125 $-1 #
coedge $-1 $203 $483 $479 $484 forward $125 $-1 #
coedge $-1 $481 $206 $203 $335 forward $340 $-1 #
edge $-1 $342 -26.542754818772764 $485 -15.113436599155946 $334 $486 forward 7 unknown #
coedge $-1 $487 $488 $204 $337 forward $329 $-1 #
edge $-1 $489 -59.312634852151824 $341 -52.280565880370546 $336 $490 forward 7 unknown #
edge $-1 $342 41.074694013972774 $489 52.014651131035627 $205 $491 forward 7 unknown #
coedge $-1 $206 $481 $487 $492 forward $340 $-1 #
loop $-1 $-1 $481 $328 #
vertex $-1 $337 $493 #
vertex $-1 $207 $494 #
straight-curve $-1 -47.370850527737119 30.502132314235723 11.034957367777054 0 -1 0 I I #
coedge $-1 $344 $344 $-1 $495 reversed $210 $-1 #
edge $-1 $496 0 $496 6.2831853071796004 $211 $497 forward 7 unknown #
vertex $-1 $214 $498 #
ellipse-curve $-1 -44.105331036418022 21.817078923037062 7.5189228818864207 0 0.64278761758704617 0.76604443648966558 1.5 0 0 1 I I #
coedge $-1 $348 $348 $-1 $499 reversed $217 $-1 #
edge $-1 $500 0 $500 6.2831853071796004 $218 $501 forward 7 unknown #
vertex $-1 $221 $502 #
ellipse-curve $-1 -39.207051799439391 21.817078923037062 7.5189228818864207 0 0.64278761758704617 0.76604443648966558 1.5 0 0 1 I I #
face $-1 $-1 $503 $48 $-1 $504 reversed single #
loop $-1 $-1 $228 $222 #
plane-surface $-1 0 0 11.034957367777055 0 0 1 1 0 0 forward_v I I I I #
coedge $-1 $505 $506 $507 $508 reversed $223 $-1 #
coedge $-1 $509 $225 $227 $362 forward $139 $-1 #
coedge $-1 $225 $509 $505 $510 forward $139 $-1 #
coedge $-1 $507 $228 $225 $359 forward $353 $-1 #
edge $-1 $365 10.535937591401311 $511 23.4962391390272 $358 $512 forward 7 unknown #
coedge $-1 $513 $514 $226 $361 forward $503 $-1 #
edge $-1 $515 -36.434665477061721 $364 -25.80480316136655 $360 $516 forward 7 unknown #
edge $-1 $365 -13.678076873199732 $515 2.8219381271181106e-014 $227 $517 forward 7 unknown #
coedge $-1 $228 $507 $513 $518 forward $353 $-1 #
vertex $-1 $361 $519 #
vertex $-1 $229 $520 #
straight-curve $-1 -27.552025956615566 -58.246854160097442 11.034957367777054 0 1 0 I I #
coedge $-1 $367 $367 $-1 $521 reversed $232 $-1 #
edge $-1 $522 0 $522 6.2831853071796004 $233 $523 forward 7 unknown #
vertex $-1 $236 $524 #
ellipse-curve $-1 -37.920267194716281 -21.703379292080914 5.7200262099294692 0 -0.77714596973225614 0.62932038083071107 1 0 0 1 I I #
coedge $-1 $371 $371 $-1 $525 reversed $239 $-1 #
edge $-1 $526 0 $526 6.2831853071796004 $240 $527 forward 7 unknown #
vertex $-1 $243 $528 #
ellipse-curve $-1 -34.032176730428517 -21.703379292080914 5.7200262099294692 0 -0.77714596973225614 0.62932038083071107 1 0 0 1 I I #
coedge $-1 $375 $375 $-1 $529 reversed $246 $-1 #
edge $-1 $530 0 $530 6.2831853071796004 $247 $531 forward 7 unknown #
vertex $-1 $250 $532 #
ellipse-curve $-1 -30.144086266140746 -21.703379292080914 5.7200262099294692 0 -0.77714596973225614 0.62932038083071107 1 0 0 1 I I #
face $-1 $-1 $391 $52 $-1 $533 forward single #
loop $-1 $-1 $534 $251 #
plane-surface $-1 0 -26.007325565517821 0 0 1 0 0 0 1 forward_v I I I I #
coedge $-1 $535 $536 $537 $538 reversed $252 $-1 #
coedge $-1 $539 $254 $256 $389 forward $158 $-1 #
coedge $-1 $254 $539 $535 $540 forward $158 $-1 #
coedge $-1 $537 $257 $254 $386 forward $391 $-1 #
edge $-1 $393 -23.4962391390272 $541 -10.535937591401311 $385 $542 forward 7 unknown #
coedge $-1 $543 $544 $255 $388 forward $380 $-1 #
edge $-1 $545 -36.434665477061721 $392 -25.80480316136655 $387 $546 forward 7 unknown #
edge $-1 $393 -13.678076873199732 $545 2.8219381271181106e-014 $256 $547 forward 7 unknown #
coedge $-1 $257 $537 $543 $548 forward $391 $-1 #
loop $-1 $-1 $537 $379 #
vertex $-1 $388 $549 #
vertex $-1 $258 $550 #
straight-curve $-1 40.512327504241455 -58.246854160097442 11.034957367777054 0 1 0 I I #
coedge $-1 $395 $395 $-1 $551 reversed $261 $-1 #
edge $-1 $552 0 $552 6.2831853071796004 $262 $553 forward 7 unknown #
vertex $-1 $265 $554 #
ellipse-curve $-1 30.144086266140739 -21.703379292080914 5.7200262099294692 0 -0.77714596973225614 0.62932038083071107 1 0 0 1 I I #
coedge $-1 $399 $399 $-1 $555 reversed $268 $-1 #
edge $-1 $556 0 $556 6.2831853071796004 $269 $557 forward 7 unknown #
vertex $-1 $272 $558 #
ellipse-curve $-1 34.03217673042851 -21.703379292080914 5.7200262099294692 0 -0.77714596973225614 0.62932038083071107 1 0 0 1 I I #
coedge $-1 $403 $403 $-1 $559 reversed $275 $-1 #
edge $-1 $560 0 $560 6.2831853071796004 $276 $561 forward 7 unknown #
vertex $-1 $279 $562 #
ellipse-curve $-1 37.920267194716267 -21.703379292080914 5.7200262099294692 0 -0.77714596973225614 0.62932038083071107 1 0 0 1 I I #
face $-1 $-1 $295 $42 $-1 $563 reversed single #
loop $-1 $-1 $423 $280 #
plane-surface $-1 0 26.007325565517821 0 0 -1 0 0 0 -1 forward_v I I I I #
coedge $-1 $564 $421 $424 $565 forward $281 $-1 #
coedge $-1 $427 $283 $284 $415 reversed $177 $-1 #
coedge $-1 $421 $564 $283 $413 reversed $281 $-1 #
edge $-1 $428 -11.034957367777055 $566 11.034957367777055 $412 $567 forward 7 unknown #
coedge $-1 $285 $284 $564 $568 forward $113 $-1 #
edge $-1 $419 -58.217108676412245 $566 58.217108676412245 $411 $569 forward 7 unknown #
coedge $-1 $424 $423 $285 $417 reversed $408 $-1 #
edge $-1 $570 -58.217108676412245 $418 58.217108676412245 $416 $571 forward 7 unknown #
vertex $-1 $287 $572 #
vertex $-1 $430 $573 #
straight-curve $-1 58.217108676412245 0 -11.034957367777055 0 -1 0 I I #
coedge $-1 $410 $412 $288 $422 reversed $281 $-1 #
edge $-1 $425 -26.007325565517821 $428 26.007325565517821 $421 $574 forward 7 unknown #
coedge $-1 $416 $289 $294 $431 forward $408 $-1 #
coedge $-1 $289 $416 $410 $565 reversed $408 $-1 #
vertex $-1 $290 $575 #
straight-curve $-1 0 26.007325565517821 11.034957367777055 -1 0 0 I I #
coedge $-1 $291 $411 $293 $430 reversed $177 $-1 #
vertex $-1 $422 $576 #
straight-curve $-1 0 -26.007325565517821 11.034957367777055 1 0 0 I I #
edge $-1 $296 -11.034957367777055 $419 11.034957367777055 $293 $577 forward 7 unknown #
edge $-1 $297 -11.034957367777055 $418 11.034957367777055 $294 $578 forward 7 unknown #
point $-1 58.217108676412245 -26.007325565517821 11.034957367777055 #
point $-1 58.217108676412245 26.007325565517821 11.034957367777055 #
face $-1 $-1 $448 $43 $-1 $579 reversed single #
loop $-1 $-1 $444 $299 #
plane-surface $-1 0 0 -11.034957367777055 0 0 1 1 0 0 forward_v I I I I #
coedge $-1 $580 $581 $438 $582 forward $300 $-1 #
coedge $-1 $303 $302 $437 $582 reversed $117 $-1 #
coedge $-1 $444 $583 $302 $440 forward $435 $-1 #
edge $-1 $584 -69.063366825087371 $442 -58.217108676412245 $302 $585 forward 7 unknown #
edge $-1 $310 -5.4231290743375666 $586 5.4231290743375595 $303 $587 forward 7 unknown #
vertex $-1 $304 $588 #
straight-curve $-1 -58.217108676412245 26.007325565517821 0 0 0 -1 I I #
coedge $-1 $589 $439 $305 $445 forward $435 $-1 #
edge $-1 $442 -26.007325565517821 $449 26.007325565517821 $444 $590 forward 7 unknown #
coedge $-1 $591 $306 $309 $452 reversed $448 $-1 #
coedge $-1 $306 $591 $589 $592 reversed $448 $-1 #
loop $-1 $-1 $306 $434 #
vertex $-1 $592 $593 #
straight-curve $-1 -58.217108676412245 -26.007325565517821 0 0 0 1 I I #
coedge $-1 $309 $308 $581 $594 forward $185 $-1 #
edge $-1 $595 -5.4231290743375595 $311 5.4231290743375666 $446 $596 forward 7 unknown #
point $-1 -58.217108676412245 26.007325565517821 -4.6618459990436794 #
point $-1 -58.217108676412245 -26.007325565517821 -4.6618459990436794 #
face $-1 $-1 $471 $44 $-1 $597 reversed single #
loop $-1 $-1 $467 $313 #
plane-surface $-1 0 0 -11.034957367777055 0 0 1 1 0 0 forward_v I I I I #
coedge $-1 $598 $459 $599 $600 forward $314 $-1 #
coedge $-1 $458 $601 $316 $460 reversed $314 $-1 #
edge $-1 $602 -26.007325565517821 $603 26.007325565517821 $459 $604 forward 7 unknown #
coedge $-1 $318 $317 $601 $605 forward $121 $-1 #
edge $-1 $603 -5.4231290743375595 $326 5.4231290743375666 $317 $606 forward 7 unknown #
coedge $-1 $607 $467 $318 $464 forward $456 $-1 #
edge $-1 $465 -5.4231290743375666 $608 5.4231290743375595 $318 $609 forward 7 unknown #
vertex $-1 $464 $610 #
straight-curve $-1 58.217108676412245 26.007325565517821 0 0 0 1 I I #
coedge $-1 $463 $611 $320 $468 forward $456 $-1 #
edge $-1 $472 -26.007325565517821 $465 26.007325565517821 $467 $612 forward 7 unknown #
coedge $-1 $599 $321 $611 $613 reversed $471 $-1 #
coedge $-1 $321 $599 $323 $474 reversed $471 $-1 #
loop $-1 $-1 $321 $455 #
vertex $-1 $322 $614 #
straight-curve $-1 58.217108676412245 -26.007325565517821 0 0 0 -1 I I #
edge $-1 $325 -5.4231290743375666 $602 5.4231290743375595 $470 $615 forward 7 unknown #
point $-1 58.217108676412245 -26.007325565517821 -4.6618459990436794 #
point $-1 58.217108676412245 26.007325565517821 -4.6618459990436794 #
plane-surface $-1 0 0 11.034957367777055 0 0 1 1 0 0 forward_v I I I I #
coedge $-1 $488 $487 $480 $616 forward $329 $-1 #
coedge $-1 $480 $331 $333 $484 reversed $201 $-1 #
coedge $-1 $331 $479 $478 $616 reversed $201 $-1 #
coedge $-1 $339 $334 $331 $482 forward $340 $-1 #
edge $-1 $485 -12.875300033679423 $617 -4.4948067487179024 $481 $618 forward 7 unknown #
coedge $-1 $333 $332 $488 $619 reversed $125 $-1 #
edge $-1 $620 -52.014651131035627 $485 -41.074694013972774 $479 $621 forward 7 unknown #
vertex $-1 $335 $622 #
straight-curve $-1 -20.828095708964355 17.6268322805563 11.034957367777057 1 0 0 I I #
coedge $-1 $478 $336 $339 $492 reversed $329 $-1 #
coedge $-1 $336 $478 $483 $619 forward $329 $-1 #
vertex $-1 $337 $623 #
straight-curve $-1 -47.370850527737119 26.007325565517821 63.315523248147599 0 0 1 I I #
straight-curve $-1 -47.370850527737119 -13.838208549362918 37.437262076135525 0 0.76604443648966558 -0.64278761758704617 I I #
edge $-1 $617 35.941532308120301 $341 47.370850527737119 $487 $624 forward 7 unknown #
point $-1 -47.370850527737119 26.007325565517821 11.034957367777055 #
point $-1 -47.370850527737119 17.6268322805563 11.034957367777054 #
edge $-1 $625 1 $625 0 $344 $-1 forward 7 unknown #
vertex $-1 $345 $626 #
ellipse-curve $-1 -44.105331036418022 20.694530101509528 6.1811213189887857 0 0.64278761758704617 0.76604443648966558 1.5 0 0 1 I I #
point $-1 -42.605331036418022 21.817078923037052 7.5189228818864073 #
edge $-1 $627 1 $627 0 $348 $-1 forward 7 unknown #
vertex $-1 $349 $628 #
ellipse-curve $-1 -39.207051799439391 20.694530101509528 6.1811213189887857 0 0.64278761758704617 0.76604443648966558 1.5 0 0 1 I I #
point $-1 -37.707051799439391 21.817078923037052 7.5189228818864073 #
loop $-1 $-1 $360 $352 #
plane-surface $-1 0 -26.007325565517821 0 0 1 0 0 0 1 forward_v I I I I #
coedge $-1 $506 $355 $357 $510 reversed $223 $-1 #
coedge $-1 $355 $505 $629 $630 reversed $223 $-1 #
coedge $-1 $363 $358 $355 $508 forward $353 $-1 #
edge $-1 $511 -40.847421141453438 $631 -32.239528594579625 $507 $632 forward 7 unknown #
coedge $-1 $357 $356 $514 $633 reversed $139 $-1 #
edge $-1 $634 -2.8219381271181106e-014 $511 13.678076873199732 $505 $635 forward 7 unknown #
vertex $-1 $359 $636 #
straight-curve $-1 -17.016088365214255 -17.399433018644007 11.034957367777055 -1 0 0 I I #
coedge $-1 $629 $360 $363 $518 reversed $503 $-1 #
coedge $-1 $360 $629 $509 $633 forward $503 $-1 #
vertex $-1 $361 $637 #
straight-curve $-1 -27.552025956615566 -26.007325565517817 36.839760529143604 0 0 1 I I #
straight-curve $-1 -27.552025956615566 -26.007325565517803 0.40509505208190433 0 -0.62932038083071107 -0.77714596973225614 I I #
edge $-1 $631 -40.512327504241455 $364 -27.552025956615566 $513 $638 forward 7 unknown #
point $-1 -27.552025956615566 -26.007325565517821 11.034957367777055 #
point $-1 -27.552025956615566 -17.399433018644004 11.034957367777055 #
edge $-1 $639 1 $639 0 $367 $-1 forward 7 unknown #
vertex $-1 $368 $640 #
ellipse-curve $-1 -37.920267194716281 -19.638168486685071 4.0476515195026765 0 -0.77714596973225614 0.62932038083071107 1 0 0 1 I I #
point $-1 -36.920267194716281 -21.703379292080921 5.7200262099294772 #
edge $-1 $641 1 $641 0 $371 $-1 forward 7 unknown #
vertex $-1 $372 $642 #
ellipse-curve $-1 -34.032176730428517 -19.638168486685071 4.0476515195026765 0 -0.77714596973225614 0.62932038083071107 1 0 0 1 I I #
point $-1 -33.032176730428517 -21.703379292080921 5.7200262099294772 #
edge $-1 $643 1 $643 0 $375 $-1 forward 7 unknown #
vertex $-1 $376 $644 #
ellipse-curve $-1 -30.144086266140746 -19.638168486685071 4.0476515195026765 0 -0.77714596973225614 0.62932038083071107 1 0 0 1 I I #
point $-1 -29.144086266140746 -21.703379292080921 5.7200262099294772 #
plane-surface $-1 0 0 11.034957367777055 0 0 1 1 0 0 forward_v I I I I #
coedge $-1 $544 $543 $536 $645 forward $380 $-1 #
coedge $-1 $536 $382 $384 $540 reversed $252 $-1 #
coedge $-1 $382 $535 $534 $645 reversed $252 $-1 #
coedge $-1 $390 $385 $382 $538 forward $391 $-1 #
edge $-1 $541 -40.847421141453438 $646 -32.239528594579625 $537 $647 forward 7 unknown #
coedge $-1 $384 $383 $544 $648 reversed $158 $-1 #
edge $-1 $649 -2.8219381271181106e-014 $541 13.678076873199732 $535 $650 forward 7 unknown #
vertex $-1 $386 $651 #
straight-curve $-1 17.016088365214255 -17.399433018644007 11.034957367777055 -1 0 0 I I #
coedge $-1 $534 $387 $390 $548 reversed $380 $-1 #
coedge $-1 $387 $534 $539 $648 forward $380 $-1 #
vertex $-1 $388 $652 #
straight-curve $-1 40.512327504241455 -26.007325565517817 36.839760529143604 0 0 1 I I #
straight-curve $-1 40.512327504241455 -26.007325565517803 0.40509505208190433 0 -0.62932038083071107 -0.77714596973225614 I I #
edge $-1 $646 27.552025956615566 $392 40.512327504241455 $543 $653 forward 7 unknown #
point $-1 40.512327504241455 -26.007325565517821 11.034957367777055 #
point $-1 40.512327504241455 -17.399433018644004 11.034957367777055 #
edge $-1 $654 1 $654 0 $395 $-1 forward 7 unknown #
vertex $-1 $396 $655 #
ellipse-curve $-1 30.144086266140739 -19.638168486685071 4.0476515195026765 0 -0.77714596973225614 0.62932038083071107 1 0 0 1 I I #
point $-1 31.144086266140739 -21.703379292080921 5.7200262099294772 #
edge $-1 $656 1 $656 0 $399 $-1 forward 7 unknown #
vertex $-1 $400 $657 #
ellipse-curve $-1 34.03217673042851 -19.638168486685071 4.0476515195026765 0 -0.77714596973225614 0.62932038083071107 1 0 0 1 I I #
point $-1 35.03217673042851 -21.703379292080921 5.7200262099294772 #
edge $-1 $658 1 $658 0 $403 $-1 forward 7 unknown #
vertex $-1 $404 $659 #
ellipse-curve $-1 37.920267194716267 -19.638168486685071 4.0476515195026765 0 -0.77714596973225614 0.62932038083071107 1 0 0 1 I I #
point $-1 38.920267194716267 -21.703379292080921 5.7200262099294772 #
plane-surface $-1 58.217108676412245 0 0 -1 0 0 0 0 1 forward_v I I I I #
coedge $-1 $412 $410 $414 $568 reversed $281 $-1 #
edge $-1 $425 -11.034957367777055 $570 11.034957367777055 $424 $660 forward 7 unknown #
vertex $-1 $568 $661 #
straight-curve $-1 -58.217108676412245 -26.007325565517821 0 0 0 -1 I I #
edge $-1 $566 -26.007325565517821 $570 26.007325565517821 $564 $662 forward 7 unknown #
straight-curve $-1 0 -26.007325565517821 -11.034957367777055 -1 0 0 I I #
vertex $-1 $417 $663 #
straight-curve $-1 0 26.007325565517821 -11.034957367777055 1 0 0 I I #
point $-1 58.217108676412245 26.007325565517821 -11.034957367777055 #
point $-1 58.217108676412245 -26.007325565517821 -11.034957367777055 #
straight-curve $-1 -58.217108676412245 0 11.034957367777055 0 -1 0 I I #
point $-1 -58.217108676412245 26.007325565517821 11.034957367777055 #
point $-1 -58.217108676412245 -26.007325565517821 11.034957367777055 #
straight-curve $-1 58.217108676412245 -26.007325565517821 0 0 0 -1 I I #
straight-curve $-1 58.217108676412245 26.007325565517821 0 0 0 -1 I I #
plane-surface $-1 0 -26.007325565517821 0 0 1 0 0 0 1 forward_v I I I I #
coedge $-1 $664 $437 $583 $665 reversed $300 $-1 #
coedge $-1 $437 $664 $451 $594 reversed $300 $-1 #
edge $-1 $586 -3.186555684366688 $584 3.186555684366688 $438 $666 forward 7 unknown #
coedge $-1 $439 $589 $580 $665 forward $435 $-1 #
vertex $-1 $440 $667 #
straight-curve $-1 0 26.007325565517821 -11.034957367777055 1 0 0 I I #
vertex $-1 $441 $668 #
straight-curve $-1 -63.640237750749812 26.007325565517821 -4.6618459990436794 -1 0 0 I I #
point $-1 -58.217108676412245 26.007325565517821 -11.034957367777055 #
coedge $-1 $583 $444 $447 $592 forward $435 $-1 #
straight-curve $-1 -58.217108676412245 0 -11.034957367777055 0 -1 0 I I #
coedge $-1 $447 $446 $664 $669 forward $448 $-1 #
edge $-1 $449 -5.4231290743375666 $670 5.4231290743375595 $447 $671 forward 7 unknown #
point $-1 -58.217108676412245 -26.007325565517821 -11.034957367777055 #
edge $-1 $586 -26.007325565517821 $595 26.007325565517821 $581 $672 forward 7 unknown #
vertex $-1 $594 $673 #
straight-curve $-1 -63.640237750749812 -26.007325565517821 -4.6618459990436794 1 0 0 I I #
plane-surface $-1 0 -26.007325565517821 0 0 1 0 0 0 1 forward_v I I I I #
coedge $-1 $601 $458 $607 $674 reversed $314 $-1 #
coedge $-1 $470 $469 $458 $600 reversed $471 $-1 #
edge $-1 $602 -3.186555684366688 $675 3.186555684366688 $458 $676 forward 7 unknown #
coedge $-1 $459 $598 $461 $605 reversed $314 $-1 #
vertex $-1 $460 $677 #
vertex $-1 $460 $678 #
straight-curve $-1 69.063366825087371 0 -4.6618459990436794 0 1 0 I I #
edge $-1 $603 -3.186555684366688 $608 3.186555684366688 $601 $679 forward 7 unknown #
straight-curve $-1 63.640237750749812 26.007325565517821 -4.6618459990436794 -1 0 0 I I #
coedge $-1 $611 $463 $598 $674 forward $456 $-1 #
vertex $-1 $674 $680 #
straight-curve $-1 63.640237750749812 26.007325565517821 -11.034957367777055 1 0 0 I I #
point $-1 58.217108676412245 26.007325565517821 -11.034957367777055 #
coedge $-1 $467 $607 $469 $613 forward $456 $-1 #
straight-curve $-1 58.217108676412245 0 -11.034957367777055 0 1 0 I I #
edge $-1 $675 -5.4231290743375595 $472 5.4231290743375666 $469 $681 forward 7 unknown #
point $-1 58.217108676412245 -26.007325565517821 -11.034957367777055 #
straight-curve $-1 63.640237750749812 -26.007325565517821 -4.6618459990436794 1 0 0 I I #
edge $-1 $617 52.280565880370546 $620 59.312634852151824 $478 $682 forward 7 unknown #
vertex $-1 $492 $683 #
straight-curve $-1 -35.941532308120301 30.502132314235723 11.034957367777054 0 1 0 I I #
edge $-1 $620 15.113436599155946 $489 26.542754818772764 $488 $684 forward 7 unknown #
vertex $-1 $619 $685 #
straight-curve $-1 -35.941532308120301 -13.838208549362918 37.437262076135525 0 -0.76604443648966558 0.64278761758704617 I I #
point $-1 -35.941532308120301 17.6268322805563 11.034957367777054 #
point $-1 -47.370850527737119 26.007325565517817 4.0028883959957753 #
straight-curve $-1 0 26.007325565517821 11.034957367777055 -1 0 0 I I #
vertex $-1 $495 $686 #
point $-1 -42.605331036418022 20.694530101509528 6.1811213189887857 #
vertex $-1 $499 $687 #
point $-1 -37.707051799439391 20.694530101509528 6.1811213189887857 #
coedge $-1 $514 $513 $506 $630 forward $503 $-1 #
edge $-1 $631 25.80480316136655 $634 36.434665477061721 $629 $688 forward 7 unknown #
vertex $-1 $518 $689 #
straight-curve $-1 -40.512327504241455 -58.246854160097442 11.034957367777054 0 -1 0 I I #
edge $-1 $634 -23.4962391390272 $515 -10.535937591401311 $514 $690 forward 7 unknown #
vertex $-1 $633 $691 #
straight-curve $-1 -40.512327504241455 -26.007325565517803 0.40509505208190433 0 0.62932038083071107 0.77714596973225614 I I #
point $-1 -40.512327504241455 -17.399433018644004 11.034957367777055 #
point $-1 -27.552025956615566 -26.007325565517821 0.4050950520818824 #
straight-curve $-1 0 -26.007325565517821 11.034957367777055 1 0 0 I I #
vertex $-1 $521 $692 #
point $-1 -36.920267194716281 -19.638168486685071 4.0476515195026765 #
vertex $-1 $525 $693 #
point $-1 -33.032176730428517 -19.638168486685071 4.0476515195026765 #
vertex $-1 $529 $694 #
point $-1 -29.144086266140746 -19.638168486685071 4.0476515195026765 #
edge $-1 $646 25.80480316136655 $649 36.434665477061721 $534 $695 forward 7 unknown #
vertex $-1 $548 $696 #
straight-curve $-1 27.552025956615566 -58.246854160097442 11.034957367777054 0 -1 0 I I #
edge $-1 $649 10.535937591401311 $545 23.4962391390272 $544 $697 forward 7 unknown #
vertex $-1 $648 $698 #
straight-curve $-1 27.552025956615566 -26.007325565517803 0.40509505208190433 0 0.62932038083071107 0.77714596973225614 I I #
point $-1 27.552025956615566 -17.399433018644004 11.034957367777055 #
point $-1 40.512327504241455 -26.007325565517821 0.4050950520818824 #
straight-curve $-1 0 -26.007325565517821 11.034957367777055 1 0 0 I I #
vertex $-1 $551 $699 #
point $-1 31.144086266140739 -19.638168486685071 4.0476515195026765 #
vertex $-1 $555 $700 #
point $-1 35.03217673042851 -19.638168486685071 4.0476515195026765 #
vertex $-1 $559 $701 #
point $-1 38.920267194716267 -19.638168486685071 4.0476515195026765 #
straight-curve $-1 -58.217108676412245 26.007325565517821 0 0 0 -1 I I #
point $-1 -58.217108676412245 -26.007325565517821 -11.034957367777055 #
straight-curve $-1 -58.217108676412245 0 -11.034957367777055 0 1 0 I I #
point $-1 -58.217108676412245 26.007325565517821 -11.034957367777055 #
coedge $-1 $581 $580 $591 $669 reversed $300 $-1 #
edge $-1 $670 -26.007325565517821 $584 26.007325565517821 $580 $702 forward 7 unknown #
straight-curve $-1 -69.063366825087371 26.007325565517821 -7.8484016834103674 0 0 -1 I I #
point $-1 -69.063366825087371 26.007325565517821 -11.034957367777055 #
point $-1 -69.063366825087371 26.007325565517821 -4.6618459990436794 #
edge $-1 $595 -3.186555684366688 $670 3.186555684366688 $664 $703 forward 7 unknown #
vertex $-1 $665 $704 #
straight-curve $-1 -63.640237750749812 -26.007325565517821 -11.034957367777055 -1 0 0 I I #
straight-curve $-1 -69.063366825087371 0 -4.6618459990436794 0 -1 0 I I #
point $-1 -69.063366825087371 -26.007325565517821 -4.6618459990436794 #
edge $-1 $608 -26.007325565517821 $675 26.007325565517821 $598 $705 forward 7 unknown #
vertex $-1 $600 $706 #
straight-curve $-1 69.063366825087371 -26.007325565517821 -7.8484016834103674 0 0 -1 I I #
point $-1 69.063366825087371 -26.007325565517821 -4.6618459990436794 #
point $-1 69.063366825087371 26.007325565517821 -4.6618459990436794 #
straight-curve $-1 69.063366825087371 26.007325565517821 -7.8484016834103674 0 0 -1 I I #
point $-1 69.063366825087371 26.007325565517821 -11.034957367777055 #
straight-curve $-1 63.640237750749812 -26.007325565517821 -11.034957367777055 -1 0 0 I I #
straight-curve $-1 -35.941532308120301 26.007325565517821 63.315523248147599 0 0 -1 I I #
point $-1 -35.941532308120301 26.007325565517821 11.034957367777055 #
straight-curve $-1 -20.828095708964355 26.007325565517817 4.0028883959957806 -1 0 0 I I #
point $-1 -35.941532308120301 26.007325565517817 4.0028883959957753 #
point $-1 -44.105331036418022 19.730348675128958 5.0320546642542867 #
point $-1 -39.207051799439391 19.730348675128958 5.0320546642542867 #
straight-curve $-1 -40.512327504241455 -26.007325565517817 36.839760529143604 0 0 -1 I I #
point $-1 -40.512327504241455 -26.007325565517821 11.034957367777055 #
straight-curve $-1 -17.016088365214255 -26.007325565517821 0.40509505208187846 1 0 0 I I #
point $-1 -40.512327504241455 -26.007325565517821 0.4050950520818824 #
point $-1 -37.920267194716281 -18.861022516952811 3.4183311386719653 #
point $-1 -34.032176730428517 -18.861022516952811 3.4183311386719653 #
point $-1 -30.144086266140746 -18.861022516952811 3.4183311386719653 #
straight-curve $-1 27.552025956615566 -26.007325565517817 36.839760529143604 0 0 -1 I I #
point $-1 27.552025956615566 -26.007325565517821 11.034957367777055 #
straight-curve $-1 17.016088365214255 -26.007325565517821 0.40509505208187846 1 0 0 I I #
point $-1 27.552025956615566 -26.007325565517821 0.4050950520818824 #
point $-1 30.144086266140739 -18.861022516952811 3.4183311386719653 #
point $-1 34.03217673042851 -18.861022516952811 3.4183311386719653 #
point $-1 37.920267194716267 -18.861022516952811 3.4183311386719653 #
straight-curve $-1 -69.063366825087371 0 -11.034957367777055 0 1 0 I I #
straight-curve $-1 -69.063366825087371 -26.007325565517821 -7.8484016834103674 0 0 -1 I I #
point $-1 -69.063366825087371 -26.007325565517821 -11.034957367777055 #
straight-curve $-1 69.063366825087371 0 -11.034957367777055 0 -1 0 I I #
point $-1 69.063366825087371 -26.007325565517821 -11.034957367777055 #
End-of-ACIS-data 