500 0 12 0           
7 Unknown 11 ACIS 5.0 NT 24 Fri Mar 26 20:07:18 1999 
-1 9.9999999999999995e-007 1e-010 
body $-1 $12 $-1 $13 #
body $-1 $14 $-1 $15 #
body $-1 $16 $-1 $17 #
body $-1 $18 $-1 $19 #
body $-1 $20 $-1 $21 #
body $-1 $22 $-1 $23 #
body $-1 $24 $-1 $25 #
body $-1 $26 $-1 $27 #
body $-1 $28 $-1 $29 #
body $-1 $30 $-1 $31 #
body $-1 $32 $-1 $33 #
body $-1 $34 $-1 $35 #
lump $-1 $-1 $36 $0 #
transform $-1 1 0 0 0 1 0 0 0 1 74.503006073183386 48.010294629874231 18.083384359033321 1 rotate no_reflect no_shear #
lump $-1 $-1 $37 $1 #
transform $-1 1 0 0 0 1 0 0 0 1 74.503006073183386 48.010294629874231 18.083384359033321 1 rotate no_reflect no_shear #
lump $-1 $-1 $38 $2 #
transform $-1 1 0 0 0 1 0 0 0 1 74.503006073183386 48.010294629874231 18.083384359033321 1 rotate no_reflect no_shear #
lump $-1 $-1 $39 $3 #
transform $-1 1 0 0 0 1 0 0 0 1 74.503006073183386 48.010294629874231 18.083384359033321 1 rotate no_reflect no_shear #
lump $-1 $-1 $40 $4 #
transform $-1 1 0 0 0 1 0 0 0 1 74.503006073183386 48.010294629874231 18.083384359033321 1 rotate no_reflect no_shear #
lump $-1 $-1 $41 $5 #
transform $-1 1 0 0 0 1 0 0 0 1 74.503006073183386 48.010294629874231 18.083384359033321 1 rotate no_reflect no_shear #
lump $-1 $-1 $42 $6 #
transform $-1 1 0 0 0 1 0 0 0 1 74.503006073183386 48.010294629874231 18.083384359033321 1 rotate no_reflect no_shear #
lump $-1 $-1 $43 $7 #
transform $-1 1 0 0 0 1 0 0 0 1 74.503006073183386 48.010294629874231 18.083384359033321 1 rotate no_reflect no_shear #
lump $-1 $-1 $44 $8 #
transform $-1 1 0 0 0 1 0 0 0 1 74.503006073183386 48.010294629874231 18.083384359033321 1 rotate no_reflect no_shear #
lump $-1 $-1 $45 $9 #
transform $-1 1 0 0 0 1 0 0 0 1 74.503006073183386 48.010294629874231 18.083384359033321 1 rotate no_reflect no_shear #
lump $-1 $-1 $46 $10 #
transform $-1 1 0 0 0 1 0 0 0 1 74.503006073183386 48.010294629874231 18.083384359033321 1 rotate no_reflect no_shear #
lump $-1 $-1 $47 $11 #
transform $-1 1 0 0 0 1 0 0 0 1 74.503006073183386 48.010294629874231 18.083384359033321 1 rotate no_reflect no_shear #
shell $-1 $-1 $-1 $48 $-1 $12 #
shell $-1 $-1 $-1 $49 $-1 $14 #
shell $-1 $-1 $-1 $50 $-1 $16 #
shell $-1 $-1 $-1 $51 $-1 $18 #
shell $-1 $-1 $-1 $52 $-1 $20 #
shell $-1 $-1 $-1 $53 $-1 $22 #
shell $-1 $-1 $-1 $54 $-1 $24 #
shell $-1 $-1 $-1 $55 $-1 $26 #
shell $-1 $-1 $-1 $56 $-1 $28 #
shell $-1 $-1 $-1 $57 $-1 $30 #
shell $-1 $-1 $-1 $58 $-1 $32 #
shell $-1 $-1 $-1 $59 $-1 $34 #
face $-1 $60 $61 $36 $-1 $62 forward single #
face $-1 $63 $64 $37 $-1 $65 forward single #
face $-1 $66 $67 $38 $-1 $68 reversed single #
face $-1 $69 $70 $39 $-1 $71 forward single #
face $-1 $72 $73 $40 $-1 $74 forward single #
face $-1 $75 $76 $41 $-1 $77 forward single #
face $-1 $78 $79 $42 $-1 $80 reversed single #
face $-1 $81 $82 $43 $-1 $83 forward single #
face $-1 $84 $85 $44 $-1 $86 forward single #
face $-1 $87 $88 $45 $-1 $89 reversed single #
face $-1 $90 $91 $46 $-1 $92 forward single #
face $-1 $93 $94 $47 $-1 $95 forward single #
face $-1 $96 $97 $36 $-1 $98 reversed single #
loop $-1 $-1 $99 $48 #
plane-surface $-1 0 0 18.083384359033321 0 0 1 1 0 0 forward_v I I I I #
face $-1 $100 $101 $37 $-1 $102 reversed single #
loop $-1 $-1 $103 $49 #
plane-surface $-1 0 -40.030354894417158 -1.7518934461822697 0 0 1 1 0 0 forward_v I I I I #
face $-1 $104 $105 $38 $-1 $106 reversed single #
loop $-1 $-1 $107 $50 #
plane-surface $-1 -153.46416343870413 -0.68499701413466241 135.02753199290817 0 1 0 -0.52991927123019833 0 0.84804809178421925 forward_v I I I I #
face $-1 $108 $109 $39 $-1 $110 forward single #
loop $-1 $111 $112 $51 #
cone-surface $-1 -66.278570483471313 2.8808528067223094 12.274269485246231 0.52991927123019833 0 -0.84804809178421925 0.84804809178421925 0 0.52991927123019833 1 I I 0 1 1 forward I I I I #
face $-1 $113 $114 $40 $-1 $115 forward single #
loop $-1 $116 $117 $52 #
cone-surface $-1 -66.278570483471313 8.2296275380077759 12.274269485246231 0.52991927123019833 0 -0.84804809178421925 0.84804809178421925 0 0.52991927123019833 1 I I 0 1 1 forward I I I I #
face $-1 $118 $119 $41 $-1 $120 forward single #
loop $-1 $121 $122 $53 #
cone-surface $-1 -66.278570483471313 13.578402269293242 12.274269485246231 0.52991927123019833 0 -0.84804809178421925 0.84804809178421925 0 0.52991927123019833 1 I I 0 1 1 forward I I I I #
face $-1 $123 $124 $42 $-1 $125 reversed single #
loop $-1 $-1 $126 $54 #
plane-surface $-1 100.18408753038044 -16.728637090192375 213.36755088719471 0 -1 0 -0.78801076186113728 0 -0.61566146476048833 forward_v I I I I #
face $-1 $127 $128 $43 $-1 $129 forward single #
loop $-1 $130 $131 $55 #
cone-surface $-1 68.331871848788339 -27.672764282169314 10.559860530243851 -0.78801076186113728 0 -0.61566146476048833 0.61566146476048833 0 -0.78801076186113728 1 I I 0 1 1 forward I I I I #
face $-1 $132 $133 $44 $-1 $134 forward single #
loop $-1 $135 $136 $56 #
cone-surface $-1 68.331871848788339 -21.10628796698315 10.559860530243851 -0.78801076186113728 0 -0.61566146476048833 0.61566146476048833 0 -0.78801076186113728 1 I I 0 1 1 forward I I I I #
face $-1 $137 $138 $45 $-1 $139 reversed single #
loop $-1 $-1 $140 $57 #
plane-surface $-1 -17.234253622967898 40.349405595490374 121.63029119104344 0.78801076186113728 0 0.61566146476048833 0.61566146476048833 0 -0.78801076186113728 forward_v I I I I #
face $-1 $141 $142 $46 $-1 $143 forward single #
loop $-1 $144 $145 $58 #
cone-surface $-1 68.331871848788339 37.066167437897285 10.559860530243851 -0.78801076186113728 0 -0.61566146476048833 0.61566146476048833 0 -0.78801076186113728 1 I I 0 1 1 forward I I I I #
face $-1 $146 $147 $47 $-1 $148 forward single #
loop $-1 $149 $150 $59 #
cone-surface $-1 68.331871848788339 43.63264375308345 10.559860530243851 -0.78801076186113728 0 -0.61566146476048833 0.61566146476048833 0 -0.78801076186113728 1 I I 0 1 1 forward I I I I #
face $-1 $151 $152 $36 $-1 $153 reversed single #
loop $-1 $-1 $154 $60 #
plane-surface $-1 0 0 -18.083384359033321 0 0 1 1 0 0 forward_v I I I I #
coedge $-1 $155 $156 $157 $158 forward $61 $-1 #
face $-1 $159 $160 $37 $-1 $161 reversed single #
loop $-1 $-1 $162 $63 #
plane-surface $-1 0 -40.030354894417158 -7.1506945518886011 0 0 1 1 0 0 forward_v I I I I #
coedge $-1 $163 $164 $165 $166 reversed $64 $-1 #
face $-1 $167 $168 $38 $-1 $169 reversed single #
loop $-1 $-1 $170 $66 #
plane-surface $-1 -74.503006073183371 8.229627538007783 8.663267727805632 -0.52991927123019833 0 0.84804809178421925 0.84804809178421925 0 0.52991927123019833 forward_v I I I I #
coedge $-1 $171 $172 $173 $174 reversed $67 $-1 #
face $-1 $-1 $175 $39 $-1 $176 forward single #
loop $-1 $177 $178 $69 #
cone-surface $-1 -65.326844076030113 2.8808528067223094 10.751188881180873 0.52991927123019833 0 -0.84804809178421925 0.42402404589210962 0 0.26495963561509916 1 I I -0.70710678118654746 0.70710678118654746 0.5 forward I I I I #
loop $-1 $-1 $179 $51 #
coedge $-1 $112 $112 $180 $181 reversed $70 $-1 #
face $-1 $-1 $182 $40 $-1 $183 forward single #
loop $-1 $184 $185 $72 #
cone-surface $-1 -65.326844076030113 8.2296275380077759 10.751188881180873 0.52991927123019833 0 -0.84804809178421925 0.42402404589210962 0 0.26495963561509916 1 I I -0.70710678118654746 0.70710678118654746 0.5 forward I I I I #
loop $-1 $-1 $186 $52 #
coedge $-1 $117 $117 $187 $188 reversed $73 $-1 #
face $-1 $-1 $189 $41 $-1 $190 forward single #
loop $-1 $191 $192 $75 #
cone-surface $-1 -65.326844076030113 13.578402269293242 10.751188881180873 0.52991927123019833 0 -0.84804809178421925 0.42402404589210962 0 0.26495963561509916 1 I I -0.70710678118654746 0.70710678118654746 0.5 forward I I I I #
loop $-1 $-1 $193 $53 #
coedge $-1 $122 $122 $194 $195 reversed $76 $-1 #
face $-1 $196 $197 $42 $-1 $198 reversed single #
loop $-1 $-1 $199 $78 #
plane-surface $-1 -17.234253622967898 -24.389526124576232 121.63029119104344 0.78801076186113728 0 0.61566146476048833 0.61566146476048833 0 -0.78801076186113728 forward_v I I I I #
coedge $-1 $200 $201 $202 $203 reversed $79 $-1 #
face $-1 $-1 $204 $43 $-1 $205 forward single #
loop $-1 $206 $207 $81 #
cone-surface $-1 67.185508220857898 -27.672764282169314 9.6642231297432595 -0.78801076186113728 0 -0.61566146476048833 0.30783073238024417 0 -0.39400538093056864 1 I I -0.70710678118654746 0.70710678118654746 0.5 forward I I I I #
loop $-1 $-1 $208 $55 #
coedge $-1 $131 $131 $209 $210 reversed $82 $-1 #
face $-1 $-1 $211 $44 $-1 $212 forward single #
loop $-1 $213 $214 $84 #
cone-surface $-1 67.185508220857898 -21.10628796698315 9.6642231297432595 -0.78801076186113728 0 -0.61566146476048833 0.30783073238024417 0 -0.39400538093056864 1 I I -0.70710678118654746 0.70710678118654746 0.5 forward I I I I #
loop $-1 $-1 $215 $56 #
coedge $-1 $136 $136 $216 $217 reversed $85 $-1 #
face $-1 $218 $219 $45 $-1 $220 reversed single #
loop $-1 $-1 $221 $87 #
plane-surface $-1 100.18408753038044 32.688516561106518 213.36755088719471 0 1 0 0.78801076186113728 0 0.61566146476048833 forward_v I I I I #
coedge $-1 $222 $223 $224 $225 reversed $88 $-1 #
face $-1 $-1 $226 $46 $-1 $227 forward single #
loop $-1 $228 $229 $90 #
cone-surface $-1 67.185508220857898 37.066167437897285 9.6642231297432595 -0.78801076186113728 0 -0.61566146476048833 0.30783073238024417 0 -0.39400538093056864 1 I I -0.70710678118654746 0.70710678118654746 0.5 forward I I I I #
loop $-1 $-1 $230 $58 #
coedge $-1 $145 $145 $231 $232 reversed $91 $-1 #
face $-1 $-1 $233 $47 $-1 $234 forward single #
loop $-1 $235 $236 $93 #
cone-surface $-1 67.185508220857898 43.63264375308345 9.6642231297432595 -0.78801076186113728 0 -0.61566146476048833 0.30783073238024417 0 -0.39400538093056864 1 I I -0.70710678118654746 0.70710678118654746 0.5 forward I I I I #
loop $-1 $-1 $237 $59 #
coedge $-1 $150 $150 $238 $239 reversed $94 $-1 #
face $-1 $240 $241 $36 $-1 $242 reversed single #
loop $-1 $-1 $243 $96 #
plane-surface $-1 0 -48.010294629874231 0 0 1 0 0 0 1 forward_v I I I I #
coedge $-1 $244 $245 $246 $247 forward $97 $-1 #
coedge $-1 $248 $99 $249 $250 forward $61 $-1 #
coedge $-1 $99 $248 $251 $252 forward $61 $-1 #
coedge $-1 $253 $254 $99 $158 reversed $255 $-1 #
edge $-1 $256 -48.010294629874231 $257 48.010294629874231 $157 $258 forward 7 unknown #
face $-1 $259 $260 $37 $-1 $261 reversed single #
loop $-1 $-1 $262 $100 #
plane-surface $-1 0 -32.050415158960085 -4.4512939990354354 0 -1 0 0 0 -1 forward_v I I I I #
coedge $-1 $263 $264 $265 $266 reversed $101 $-1 #
coedge $-1 $267 $103 $268 $269 forward $64 $-1 #
coedge $-1 $103 $267 $270 $271 reversed $64 $-1 #
coedge $-1 $272 $273 $103 $166 forward $274 $-1 #
edge $-1 $275 12.035237711751506 $276 27.995117182665652 $165 $277 forward 7 unknown #
face $-1 $278 $279 $38 $-1 $280 reversed single #
loop $-1 $-1 $281 $104 #
plane-surface $-1 -153.46416343870413 17.144252090150228 135.02753199290817 0 -1 0 0.52991927123019833 0 -0.84804809178421925 forward_v I I I I #
coedge $-1 $282 $283 $284 $285 reversed $105 $-1 #
coedge $-1 $172 $107 $286 $287 reversed $67 $-1 #
coedge $-1 $107 $171 $282 $288 reversed $67 $-1 #
coedge $-1 $284 $289 $107 $174 forward $290 $-1 #
edge $-1 $291 2.2290756461686811 $292 17.304413281940597 $173 $293 forward 7 unknown #
loop $-1 $-1 $180 $108 #
plane-surface $-1 -74.503006073183371 8.229627538007783 8.663267727805632 -0.52991927123019833 0 0.84804809178421925 0.84804809178421925 0 0.52991927123019833 forward_v I I I I #
loop $-1 $-1 $294 $69 #
coedge $-1 $178 $178 $179 $295 reversed $109 $-1 #
coedge $-1 $179 $179 $178 $295 forward $111 $-1 #
coedge $-1 $180 $180 $112 $181 forward $175 $-1 #
edge $-1 $296 0 $296 6.2831853071796004 $180 $297 forward 7 unknown #
loop $-1 $-1 $187 $113 #
plane-surface $-1 -74.503006073183371 8.229627538007783 8.663267727805632 -0.52991927123019833 0 0.84804809178421925 0.84804809178421925 0 0.52991927123019833 forward_v I I I I #
loop $-1 $-1 $298 $72 #
coedge $-1 $185 $185 $186 $299 reversed $114 $-1 #
coedge $-1 $186 $186 $185 $299 forward $116 $-1 #
coedge $-1 $187 $187 $117 $188 forward $182 $-1 #
edge $-1 $300 0 $300 6.2831853071796004 $187 $301 forward 7 unknown #
loop $-1 $-1 $194 $118 #
plane-surface $-1 -74.503006073183371 8.229627538007783 8.663267727805632 -0.52991927123019833 0 0.84804809178421925 0.84804809178421925 0 0.52991927123019833 forward_v I I I I #
loop $-1 $-1 $302 $75 #
coedge $-1 $192 $192 $193 $303 reversed $119 $-1 #
coedge $-1 $193 $193 $192 $303 forward $121 $-1 #
coedge $-1 $194 $194 $122 $195 forward $189 $-1 #
edge $-1 $304 0 $304 6.2831853071796004 $194 $305 forward 7 unknown #
face $-1 $306 $307 $42 $-1 $308 forward single #
loop $-1 $-1 $309 $123 #
plane-surface $-1 100.18408753038044 -32.050415158960092 213.36755088719471 0 1 0 0.78801076186113728 0 0.61566146476048833 forward_v I I I I #
coedge $-1 $310 $311 $312 $313 reversed $124 $-1 #
coedge $-1 $201 $126 $314 $315 reversed $79 $-1 #
coedge $-1 $126 $200 $310 $316 reversed $79 $-1 #
coedge $-1 $312 $317 $126 $203 forward $307 $-1 #
edge $-1 $318 -24.410962307993167 $319 -13.57341035320281 $202 $320 forward 7 unknown #
loop $-1 $-1 $209 $127 #
plane-surface $-1 -17.234253622967898 -24.389526124576232 121.63029119104344 0.78801076186113728 0 0.61566146476048833 0.61566146476048833 0 -0.78801076186113728 forward_v I I I I #
loop $-1 $-1 $321 $81 #
coedge $-1 $207 $207 $208 $322 reversed $128 $-1 #
coedge $-1 $208 $208 $207 $322 forward $130 $-1 #
coedge $-1 $209 $209 $131 $210 forward $204 $-1 #
edge $-1 $323 0 $323 6.2831853071796004 $209 $324 forward 7 unknown #
loop $-1 $-1 $216 $132 #
plane-surface $-1 -17.234253622967898 -24.389526124576232 121.63029119104344 0.78801076186113728 0 0.61566146476048833 0.61566146476048833 0 -0.78801076186113728 forward_v I I I I #
loop $-1 $-1 $325 $84 #
coedge $-1 $214 $214 $215 $326 reversed $133 $-1 #
coedge $-1 $215 $215 $214 $326 forward $135 $-1 #
coedge $-1 $216 $216 $136 $217 forward $211 $-1 #
edge $-1 $327 0 $327 6.2831853071796004 $216 $328 forward 7 unknown #
face $-1 $329 $330 $45 $-1 $331 forward single #
loop $-1 $-1 $332 $137 #
plane-surface $-1 74.503006073183386 0 0 -1 0 0 0 0 1 forward_v I I I I #
coedge $-1 $333 $334 $335 $336 reversed $138 $-1 #
coedge $-1 $337 $140 $338 $339 reversed $88 $-1 #
coedge $-1 $140 $337 $333 $340 forward $88 $-1 #
coedge $-1 $335 $341 $140 $225 forward $330 $-1 #
edge $-1 $342 -27.835591832129044 $343 -12.51381376336133 $224 $344 forward 7 unknown #
loop $-1 $-1 $231 $141 #
plane-surface $-1 -17.234253622967898 40.349405595490374 121.63029119104344 0.78801076186113728 0 0.61566146476048833 0.61566146476048833 0 -0.78801076186113728 forward_v I I I I #
loop $-1 $-1 $345 $90 #
coedge $-1 $229 $229 $230 $346 reversed $142 $-1 #
coedge $-1 $230 $230 $229 $346 forward $144 $-1 #
coedge $-1 $231 $231 $145 $232 forward $226 $-1 #
edge $-1 $347 0 $347 6.2831853071796004 $231 $348 forward 7 unknown #
loop $-1 $-1 $238 $146 #
plane-surface $-1 -17.234253622967898 40.349405595490374 121.63029119104344 0.78801076186113728 0 0.61566146476048833 0.61566146476048833 0 -0.78801076186113728 forward_v I I I I #
loop $-1 $-1 $349 $93 #
coedge $-1 $236 $236 $237 $350 reversed $147 $-1 #
coedge $-1 $237 $237 $236 $350 forward $149 $-1 #
coedge $-1 $238 $238 $150 $239 forward $233 $-1 #
edge $-1 $351 0 $351 6.2831853071796004 $238 $352 forward 7 unknown #
face $-1 $353 $354 $36 $-1 $355 reversed single #
loop $-1 $-1 $356 $151 #
plane-surface $-1 -74.503006073183386 0 0 1 0 0 0 0 -1 forward_v I I I I #
coedge $-1 $357 $251 $358 $359 forward $152 $-1 #
coedge $-1 $360 $154 $357 $361 forward $97 $-1 #
coedge $-1 $154 $360 $362 $363 forward $97 $-1 #
coedge $-1 $254 $253 $154 $247 reversed $255 $-1 #
edge $-1 $364 -48.010294629874231 $365 48.010294629874231 $246 $366 forward 7 unknown #
coedge $-1 $156 $155 $367 $368 forward $61 $-1 #
coedge $-1 $369 $370 $155 $250 reversed $354 $-1 #
edge $-1 $257 -74.503006073183386 $371 74.503006073183386 $249 $372 forward 7 unknown #
coedge $-1 $243 $373 $156 $252 reversed $152 $-1 #
edge $-1 $374 -74.503006073183386 $256 74.503006073183386 $251 $375 forward 7 unknown #
coedge $-1 $246 $157 $373 $376 forward $255 $-1 #
coedge $-1 $157 $246 $369 $377 reversed $255 $-1 #
loop $-1 $-1 $253 $353 #
vertex $-1 $158 $378 #
vertex $-1 $158 $379 #
straight-curve $-1 74.503006073183386 0 18.083384359033321 0 1 0 I I #
face $-1 $380 $381 $37 $-1 $382 reversed single #
loop $-1 $-1 $383 $159 #
plane-surface $-1 -74.503006073183386 0 0 1 0 0 0 0 -1 forward_v I I I I #
coedge $-1 $384 $268 $273 $385 reversed $160 $-1 #
coedge $-1 $386 $162 $387 $388 reversed $101 $-1 #
coedge $-1 $162 $386 $384 $389 forward $101 $-1 #
coedge $-1 $273 $272 $162 $266 forward $274 $-1 #
edge $-1 $390 -27.995117182665652 $391 -12.035237711751506 $265 $392 forward 7 unknown #
coedge $-1 $164 $163 $383 $393 reversed $64 $-1 #
coedge $-1 $262 $394 $163 $269 reversed $160 $-1 #
edge $-1 $275 -74.503006073183386 $395 74.503006073183386 $268 $396 forward 7 unknown #
coedge $-1 $397 $398 $164 $271 forward $381 $-1 #
edge $-1 $276 -74.503006073183386 $399 74.503006073183386 $270 $400 forward 7 unknown #
coedge $-1 $265 $165 $398 $401 forward $274 $-1 #
coedge $-1 $165 $265 $262 $385 forward $274 $-1 #
loop $-1 $-1 $165 $380 #
vertex $-1 $166 $402 #
vertex $-1 $401 $403 #
straight-curve $-1 74.503006073183386 -20.015177447208579 -1.7518934461822697 0 -1 0 I I #
face $-1 $-1 $290 $38 $-1 $404 forward single #
loop $-1 $-1 $405 $167 #
plane-surface $-1 -74.503006073183386 0 0 1 0 0 0 0 -1 forward_v I I I I #
coedge $-1 $406 $407 $408 $409 reversed $168 $-1 #
coedge $-1 $410 $170 $172 $288 forward $105 $-1 #
coedge $-1 $170 $410 $406 $411 forward $105 $-1 #
coedge $-1 $408 $173 $170 $285 forward $290 $-1 #
edge $-1 $292 -4.7998107831385539 $412 13.029438321146337 $284 $413 forward 7 unknown #
coedge $-1 $414 $415 $171 $287 forward $279 $-1 #
edge $-1 $416 -58.850498268648458 $291 -49.430381637420766 $286 $417 forward 7 unknown #
edge $-1 $292 -17.776512655142831 $416 1.675811683274863e-014 $172 $418 forward 7 unknown #
coedge $-1 $173 $408 $414 $419 forward $290 $-1 #
loop $-1 $-1 $408 $278 #
vertex $-1 $287 $420 #
vertex $-1 $174 $421 #
straight-curve $-1 -76.732081719352067 -0.68499701413466241 18.083384359033317 1 0 0 I I #
coedge $-1 $294 $294 $-1 $422 reversed $177 $-1 #
edge $-1 $423 0 $423 6.2831853071796004 $178 $424 forward 7 unknown #
vertex $-1 $181 $425 #
ellipse-curve $-1 -66.965337255297413 2.8808528067223094 13.373326043419478 -0.52991927123019833 0 0.84804809178421925 0.84804809178421925 0 0.52991927123019833 1 I I #
coedge $-1 $298 $298 $-1 $426 reversed $184 $-1 #
edge $-1 $427 0 $427 6.2831853071796004 $185 $428 forward 7 unknown #
vertex $-1 $188 $429 #
ellipse-curve $-1 -66.965337255297413 8.2296275380077759 13.373326043419478 -0.52991927123019833 0 0.84804809178421925 0.84804809178421925 0 0.52991927123019833 1 I I #
coedge $-1 $302 $302 $-1 $430 reversed $191 $-1 #
edge $-1 $431 0 $431 6.2831853071796004 $192 $432 forward 7 unknown #
vertex $-1 $195 $433 #
ellipse-curve $-1 -66.965337255297413 13.578402269293242 13.373326043419478 -0.52991927123019833 0 0.84804809178421925 0.84804809178421925 0 0.52991927123019833 1 I I #
face $-1 $-1 $434 $42 $-1 $435 reversed single #
loop $-1 $-1 $202 $196 #
plane-surface $-1 0 0 18.083384359033321 0 0 1 1 0 0 forward_v I I I I #
coedge $-1 $436 $437 $438 $439 reversed $197 $-1 #
coedge $-1 $440 $199 $201 $316 forward $124 $-1 #
coedge $-1 $199 $440 $436 $441 forward $124 $-1 #
coedge $-1 $438 $202 $199 $313 forward $307 $-1 #
edge $-1 $319 4.5338740279042593 $442 19.855652096671975 $312 $443 forward 7 unknown #
coedge $-1 $444 $445 $200 $315 forward $434 $-1 #
edge $-1 $446 -102.47182540590227 $318 -88.600391084564038 $314 $447 forward 7 unknown #
edge $-1 $319 131.40290950779817 $446 149.00601214636677 $201 $448 forward 7 unknown #
coedge $-1 $202 $438 $444 $449 forward $307 $-1 #
vertex $-1 $315 $450 #
vertex $-1 $203 $451 #
straight-curve $-1 50.092043765190219 -16.728637090192375 18.083384359033317 -1 0 0 I I #
coedge $-1 $321 $321 $-1 $452 reversed $206 $-1 #
edge $-1 $453 0 $453 6.2831853071796004 $207 $454 forward 7 unknown #
vertex $-1 $210 $455 #
ellipse-curve $-1 69.084230095788214 -27.672764282169314 11.147667198364202 0.78801076186113728 0 0.61566146476048833 0.61566146476048833 0 -0.78801076186113728 1 I I #
coedge $-1 $325 $325 $-1 $456 reversed $213 $-1 #
edge $-1 $457 0 $457 6.2831853071796004 $214 $458 forward 7 unknown #
vertex $-1 $217 $459 #
ellipse-curve $-1 69.084230095788214 -21.10628796698315 11.147667198364202 0.78801076186113728 0 0.61566146476048833 0.61566146476048833 0 -0.78801076186113728 1 I I #
face $-1 $-1 $460 $45 $-1 $461 reversed single #
loop $-1 $-1 $335 $218 #
plane-surface $-1 0 0 18.083384359033321 0 0 1 1 0 0 forward_v I I I I #
coedge $-1 $462 $463 $334 $464 forward $219 $-1 #
coedge $-1 $334 $221 $223 $340 reversed $138 $-1 #
coedge $-1 $221 $333 $332 $464 reversed $138 $-1 #
coedge $-1 $465 $224 $221 $336 forward $330 $-1 #
edge $-1 $343 13.57341035320281 $466 24.410962307993167 $335 $467 forward 7 unknown #
coedge $-1 $223 $222 $462 $468 reversed $88 $-1 #
coedge $-1 $469 $470 $222 $339 forward $460 $-1 #
edge $-1 $471 -95.77779001815864 $342 -78.17468737959004 $338 $472 forward 7 unknown #
edge $-1 $473 -149.00601214636677 $343 -131.40290950779817 $333 $474 forward 7 unknown #
coedge $-1 $224 $465 $469 $475 forward $330 $-1 #
vertex $-1 $339 $476 #
vertex $-1 $225 $477 #
straight-curve $-1 63.665454118393043 20.174702797745187 18.083384359033317 0 -1 0 I I #
coedge $-1 $345 $345 $-1 $478 reversed $228 $-1 #
edge $-1 $479 0 $479 6.2831853071796004 $229 $480 forward 7 unknown #
vertex $-1 $232 $481 #
ellipse-curve $-1 69.084230095788214 37.066167437897285 11.147667198364202 0.78801076186113728 0 0.61566146476048833 0.61566146476048833 0 -0.78801076186113728 1 I I #
coedge $-1 $349 $349 $-1 $482 reversed $235 $-1 #
edge $-1 $483 0 $483 6.2831853071796004 $236 $484 forward 7 unknown #
vertex $-1 $239 $485 #
ellipse-curve $-1 69.084230095788214 43.63264375308345 11.147667198364202 0.78801076186113728 0 0.61566146476048833 0.61566146476048833 0 -0.78801076186113728 1 I I #
face $-1 $-1 $255 $36 $-1 $486 reversed single #
loop $-1 $-1 $369 $240 #
plane-surface $-1 0 48.010294629874231 0 0 -1 0 0 0 -1 forward_v I I I I #
coedge $-1 $487 $367 $370 $488 forward $241 $-1 #
coedge $-1 $373 $243 $244 $361 reversed $152 $-1 #
coedge $-1 $367 $487 $243 $359 reversed $241 $-1 #
edge $-1 $374 -18.083384359033321 $489 18.083384359033321 $358 $490 forward 7 unknown #
coedge $-1 $245 $244 $487 $491 forward $97 $-1 #
edge $-1 $365 -74.503006073183386 $489 74.503006073183386 $357 $492 forward 7 unknown #
coedge $-1 $370 $369 $245 $363 reversed $354 $-1 #
edge $-1 $493 -74.503006073183386 $364 74.503006073183386 $362 $494 forward 7 unknown #
vertex $-1 $247 $495 #
vertex $-1 $376 $496 #
straight-curve $-1 74.503006073183386 0 -18.083384359033321 0 -1 0 I I #
coedge $-1 $356 $358 $248 $368 reversed $241 $-1 #
edge $-1 $371 -48.010294629874231 $374 48.010294629874231 $367 $497 forward 7 unknown #
coedge $-1 $362 $249 $254 $377 forward $354 $-1 #
coedge $-1 $249 $362 $356 $488 reversed $354 $-1 #
vertex $-1 $250 $498 #
straight-curve $-1 0 48.010294629874231 18.083384359033321 -1 0 0 I I #
coedge $-1 $251 $357 $253 $376 reversed $152 $-1 #
vertex $-1 $368 $499 #
straight-curve $-1 0 -48.010294629874231 18.083384359033321 1 0 0 I I #
edge $-1 $256 -18.083384359033321 $365 18.083384359033321 $253 $500 forward 7 unknown #
edge $-1 $257 -18.083384359033321 $364 18.083384359033321 $254 $501 forward 7 unknown #
point $-1 74.503006073183386 -48.010294629874231 18.083384359033321 #
point $-1 74.503006073183386 48.010294629874231 18.083384359033321 #
face $-1 $-1 $274 $37 $-1 $502 reversed single #
loop $-1 $-1 $270 $259 #
plane-surface $-1 0 -48.010294629874231 0 0 1 0 0 0 1 forward_v I I I I #
coedge $-1 $503 $504 $267 $393 forward $260 $-1 #
coedge $-1 $394 $262 $264 $389 reversed $160 $-1 #
edge $-1 $391 -4.9250475523708834 $275 0.473753553335448 $273 $505 forward 7 unknown #
coedge $-1 $264 $263 $506 $507 reversed $101 $-1 #
coedge $-1 $398 $397 $263 $388 forward $381 $-1 #
edge $-1 $508 -74.503006073183386 $390 74.503006073183386 $387 $509 forward 7 unknown #
edge $-1 $510 -74.503006073183386 $391 74.503006073183386 $384 $511 forward 7 unknown #
vertex $-1 $388 $512 #
vertex $-1 $266 $513 #
straight-curve $-1 74.503006073183386 -20.015177447208579 -7.1506945518886011 0 1 0 I I #
edge $-1 $399 -27.995117182665652 $395 -12.035237711751506 $383 $514 forward 7 unknown #
coedge $-1 $268 $384 $503 $515 reversed $160 $-1 #
vertex $-1 $393 $516 #
straight-curve $-1 0 -32.050415158960085 -1.7518934461822697 -1 0 0 I I #
coedge $-1 $387 $270 $504 $517 forward $381 $-1 #
coedge $-1 $270 $387 $272 $401 reversed $381 $-1 #
vertex $-1 $517 $518 #
straight-curve $-1 0 -48.010294629874231 -1.7518934461822697 -1 0 0 I I #
edge $-1 $276 1.7518934461822697 $390 7.1506945518886011 $272 $519 forward 7 unknown #
point $-1 74.503006073183386 -32.050415158960085 -1.7518934461822697 #
point $-1 74.503006073183386 -48.010294629874231 -1.7518934461822697 #
plane-surface $-1 0 0 18.083384359033321 0 0 1 1 0 0 forward_v I I I I #
coedge $-1 $415 $414 $407 $520 forward $279 $-1 #
coedge $-1 $407 $281 $283 $411 reversed $168 $-1 #
coedge $-1 $281 $406 $405 $520 reversed $168 $-1 #
coedge $-1 $289 $284 $281 $409 forward $290 $-1 #
edge $-1 $412 -17.304413281940597 $521 -2.2290756461686811 $408 $522 forward 7 unknown #
coedge $-1 $283 $282 $415 $523 reversed $105 $-1 #
edge $-1 $524 -1.675811683274863e-014 $412 17.776512655142831 $406 $525 forward 7 unknown #
vertex $-1 $285 $526 #
straight-curve $-1 -59.427668437411477 4.1148137690038915 18.083384359033317 0 1 0 I I #
coedge $-1 $405 $286 $289 $419 reversed $279 $-1 #
coedge $-1 $286 $405 $410 $523 forward $279 $-1 #
vertex $-1 $287 $527 #
straight-curve $-1 -74.503006073183386 -0.68499701413466241 67.513765996454083 0 0 1 I I #
straight-curve $-1 -74.503006073183371 -0.68499701413466241 8.663267727805632 -0.84804809178421925 0 -0.52991927123019833 I I #
edge $-1 $521 -17.144252090150228 $291 0.68499701413466241 $414 $528 forward 7 unknown #
point $-1 -74.503006073183386 -0.68499701413466241 18.083384359033321 #
point $-1 -59.427668437411469 -0.68499701413466241 18.083384359033321 #
edge $-1 $529 1 $529 0 $294 $-1 forward 7 unknown #
vertex $-1 $295 $530 #
ellipse-curve $-1 -65.591803711645213 2.8808528067223094 11.175212927072982 -0.52991927123019833 0 0.84804809178421925 0.84804809178421925 0 0.52991927123019833 1 I I #
point $-1 -66.117289163513206 2.8808528067223094 13.903245314649677 #
edge $-1 $531 1 $531 0 $298 $-1 forward 7 unknown #
vertex $-1 $299 $532 #
ellipse-curve $-1 -65.591803711645213 8.2296275380077759 11.175212927072982 -0.52991927123019833 0 0.84804809178421925 0.84804809178421925 0 0.52991927123019833 1 I I #
point $-1 -66.117289163513206 8.2296275380077759 13.903245314649677 #
edge $-1 $533 1 $533 0 $302 $-1 forward 7 unknown #
vertex $-1 $303 $534 #
ellipse-curve $-1 -65.591803711645213 13.578402269293242 11.175212927072982 -0.52991927123019833 0 0.84804809178421925 0.84804809178421925 0 0.52991927123019833 1 I I #
point $-1 -66.117289163513206 13.578402269293242 13.903245314649677 #
loop $-1 $-1 $314 $306 #
plane-surface $-1 74.503006073183386 0 0 -1 0 0 0 0 1 forward_v I I I I #
coedge $-1 $437 $309 $311 $441 reversed $197 $-1 #
coedge $-1 $309 $436 $535 $536 reversed $197 $-1 #
coedge $-1 $317 $312 $309 $439 forward $307 $-1 #
edge $-1 $442 13.57341035320281 $537 24.410962307993167 $438 $538 forward 7 unknown #
coedge $-1 $311 $310 $445 $539 reversed $124 $-1 #
edge $-1 $540 -149.00601214636677 $442 -131.40290950779817 $436 $541 forward 7 unknown #
vertex $-1 $313 $542 #
straight-curve $-1 63.665454118393043 -12.194763062288116 18.083384359033317 0 -1 0 I I #
coedge $-1 $535 $314 $317 $449 reversed $434 $-1 #
coedge $-1 $314 $535 $440 $539 forward $434 $-1 #
vertex $-1 $315 $543 #
straight-curve $-1 74.503006073183386 -16.728637090192375 106.68377544359736 0 0 1 I I #
straight-curve $-1 -17.234253622967898 -16.728637090192375 121.63029119104344 0.61566146476048833 0 -0.78801076186113728 I I #
edge $-1 $537 -32.050415158960092 $318 -16.728637090192375 $444 $544 forward 7 unknown #
point $-1 74.503006073183386 -16.728637090192375 18.083384359033321 #
point $-1 63.665454118393029 -16.728637090192375 18.083384359033332 #
edge $-1 $545 1 $545 0 $321 $-1 forward 7 unknown #
vertex $-1 $322 $546 #
ellipse-curve $-1 67.579513601788463 -27.672764282169314 9.972053862123504 0.78801076186113728 0 0.61566146476048833 0.61566146476048833 0 -0.78801076186113728 1 I I #
point $-1 69.699891560548693 -27.672764282169314 10.359656436503064 #
edge $-1 $547 1 $547 0 $325 $-1 forward 7 unknown #
vertex $-1 $326 $548 #
ellipse-curve $-1 67.579513601788463 -21.10628796698315 9.972053862123504 0.78801076186113728 0 0.61566146476048833 0.61566146476048833 0 -0.78801076186113728 1 I I #
point $-1 69.699891560548693 -21.10628796698315 10.359656436503064 #
loop $-1 $-1 $338 $329 #
plane-surface $-1 0 48.010294629874231 0 0 -1 0 0 0 -1 forward_v I I I I #
coedge $-1 $549 $332 $337 $468 forward $219 $-1 #
coedge $-1 $332 $549 $465 $550 reversed $219 $-1 #
edge $-1 $466 88.600391084564038 $473 102.47182540590227 $332 $551 forward 7 unknown #
coedge $-1 $341 $335 $463 $550 forward $330 $-1 #
vertex $-1 $550 $552 #
straight-curve $-1 50.092043765190219 32.688516561106518 18.083384359033317 1 0 0 I I #
edge $-1 $473 12.51381376336133 $471 27.835591832129044 $462 $553 forward 7 unknown #
coedge $-1 $470 $338 $341 $475 reversed $460 $-1 #
coedge $-1 $338 $469 $549 $554 forward $460 $-1 #
vertex $-1 $339 $555 #
straight-curve $-1 15.536311579081364 48.010294629874231 79.685879319280303 -0.61566146476048833 0 0.78801076186113728 I I #
vertex $-1 $468 $556 #
straight-curve $-1 -17.234253622967898 32.688516561106518 121.63029119104344 -0.61566146476048833 0 0.78801076186113728 I I #
edge $-1 $557 -74.503006073183386 $342 -63.665454118393029 $469 $558 forward 7 unknown #
point $-1 63.665454118393029 48.010294629874231 18.083384359033332 #
point $-1 63.665454118393029 32.688516561106518 18.083384359033332 #
edge $-1 $559 1 $559 0 $345 $-1 forward 7 unknown #
vertex $-1 $346 $560 #
ellipse-curve $-1 67.579513601788463 37.066167437897285 9.972053862123504 0.78801076186113728 0 0.61566146476048833 0.61566146476048833 0 -0.78801076186113728 1 I I #
point $-1 69.699891560548693 37.066167437897285 10.359656436503064 #
edge $-1 $561 1 $561 0 $349 $-1 forward 7 unknown #
vertex $-1 $350 $562 #
ellipse-curve $-1 67.579513601788463 43.63264375308345 9.972053862123504 0.78801076186113728 0 0.61566146476048833 0.61566146476048833 0 -0.78801076186113728 1 I I #
point $-1 69.699891560548693 43.63264375308345 10.359656436503064 #
plane-surface $-1 74.503006073183386 0 0 -1 0 0 0 0 1 forward_v I I I I #
coedge $-1 $358 $356 $360 $491 reversed $241 $-1 #
edge $-1 $371 -18.083384359033321 $493 18.083384359033321 $370 $563 forward 7 unknown #
vertex $-1 $491 $564 #
straight-curve $-1 -74.503006073183386 -48.010294629874231 0 0 0 -1 I I #
edge $-1 $489 -48.010294629874231 $493 48.010294629874231 $487 $565 forward 7 unknown #
straight-curve $-1 0 -48.010294629874231 -18.083384359033321 -1 0 0 I I #
vertex $-1 $363 $566 #
straight-curve $-1 0 48.010294629874231 -18.083384359033321 1 0 0 I I #
point $-1 74.503006073183386 48.010294629874231 -18.083384359033321 #
point $-1 74.503006073183386 -48.010294629874231 -18.083384359033321 #
straight-curve $-1 -74.503006073183386 0 18.083384359033321 0 -1 0 I I #
point $-1 -74.503006073183386 48.010294629874231 18.083384359033321 #
point $-1 -74.503006073183386 -48.010294629874231 18.083384359033321 #
straight-curve $-1 74.503006073183386 -48.010294629874231 0 0 0 -1 I I #
straight-curve $-1 74.503006073183386 48.010294629874231 0 0 0 -1 I I #
plane-surface $-1 74.503006073183386 0 0 -1 0 0 0 0 1 forward_v I I I I #
coedge $-1 $506 $383 $394 $515 forward $260 $-1 #
coedge $-1 $383 $506 $397 $517 reversed $260 $-1 #
straight-curve $-1 74.503006073183386 -32.050415158960085 -2.2256469995177177 0 0 1 I I #
coedge $-1 $504 $503 $386 $507 forward $260 $-1 #
edge $-1 $510 12.035237711751506 $508 27.995117182665652 $506 $567 forward 7 unknown #
vertex $-1 $388 $568 #
straight-curve $-1 0 -48.010294629874231 -7.1506945518886011 1 0 0 I I #
vertex $-1 $507 $569 #
straight-curve $-1 0 -32.050415158960085 -7.1506945518886011 1 0 0 I I #
point $-1 74.503006073183386 -48.010294629874231 -7.1506945518886011 #
point $-1 74.503006073183386 -32.050415158960085 -7.1506945518886011 #
straight-curve $-1 -74.503006073183386 -20.015177447208579 -1.7518934461822697 0 1 0 I I #
edge $-1 $395 -0.473753553335448 $510 4.9250475523708834 $503 $570 forward 7 unknown #
point $-1 -74.503006073183386 -32.050415158960085 -1.7518934461822697 #
edge $-1 $399 1.7518934461822697 $508 7.1506945518886011 $504 $571 forward 7 unknown #
point $-1 -74.503006073183386 -48.010294629874231 -1.7518934461822697 #
straight-curve $-1 74.503006073183386 -48.010294629874231 0 0 0 -1 I I #
edge $-1 $521 49.430381637420766 $524 58.850498268648458 $405 $572 forward 7 unknown #
vertex $-1 $419 $573 #
straight-curve $-1 -76.732081719352067 17.144252090150228 18.083384359033317 -1 0 0 I I #
edge $-1 $524 -13.029438321146337 $416 4.7998107831385539 $415 $574 forward 7 unknown #
vertex $-1 $523 $575 #
straight-curve $-1 -74.503006073183371 17.144252090150228 8.663267727805632 0.84804809178421925 0 0.52991927123019833 I I #
point $-1 -59.427668437411469 17.144252090150228 18.083384359033321 #
point $-1 -74.503006073183386 -0.68499701413466241 8.6632677278056232 #
straight-curve $-1 -74.503006073183386 0 18.083384359033321 0 -1 0 I I #
vertex $-1 $422 $576 #
point $-1 -64.743755619860991 2.8808528067223094 11.705132198303181 #
vertex $-1 $426 $577 #
point $-1 -64.743755619860991 8.2296275380077759 11.705132198303181 #
vertex $-1 $430 $578 #
point $-1 -64.743755619860991 13.578402269293242 11.705132198303181 #
coedge $-1 $445 $444 $437 $536 forward $434 $-1 #
edge $-1 $537 88.600391084564038 $540 102.47182540590227 $535 $579 forward 7 unknown #
vertex $-1 $449 $580 #
straight-curve $-1 50.092043765190219 -32.050415158960092 18.083384359033317 1 0 0 I I #
edge $-1 $540 -19.855652096671975 $446 -4.5338740279042593 $445 $581 forward 7 unknown #
vertex $-1 $539 $582 #
straight-curve $-1 -17.234253622967898 -32.050415158960092 121.63029119104344 -0.61566146476048833 0 0.78801076186113728 I I #
point $-1 63.665454118393029 -32.050415158960092 18.083384359033332 #
point $-1 74.503006073183386 -16.728637090192375 4.2119500376950896 #
straight-curve $-1 74.503006073183386 0 18.083384359033321 0 1 0 I I #
vertex $-1 $452 $583 #
point $-1 68.195175066548956 -27.672764282169314 9.1840431002623664 #
vertex $-1 $456 $584 #
point $-1 68.195175066548956 -21.10628796698315 9.1840431002623664 #
coedge $-1 $463 $462 $470 $554 reversed $219 $-1 #
edge $-1 $466 32.688516561106518 $557 48.010294629874231 $463 $585 forward 7 unknown #
straight-curve $-1 74.503006073183386 32.688516561106518 106.68377544359736 0 0 -1 I I #
point $-1 74.503006073183386 32.688516561106518 18.083384359033321 #
straight-curve $-1 74.503006073183386 20.174702797745187 4.2119500376950825 0 1 0 I I #
edge $-1 $557 -18.083384359033321 $471 -4.2119500376950896 $549 $586 forward 7 unknown #
point $-1 74.503006073183386 48.010294629874231 4.2119500376950896 #
point $-1 74.503006073183386 32.688516561106518 4.2119500376950896 #
vertex $-1 $550 $587 #
straight-curve $-1 0 48.010294629874231 18.083384359033321 -1 0 0 I I #
vertex $-1 $478 $588 #
point $-1 68.195175066548956 37.066167437897285 9.1840431002623664 #
vertex $-1 $482 $589 #
point $-1 68.195175066548956 43.63264375308345 9.1840431002623664 #
straight-curve $-1 -74.503006073183386 48.010294629874231 0 0 0 -1 I I #
point $-1 -74.503006073183386 -48.010294629874231 -18.083384359033321 #
straight-curve $-1 -74.503006073183386 0 -18.083384359033321 0 1 0 I I #
point $-1 -74.503006073183386 48.010294629874231 -18.083384359033321 #
straight-curve $-1 -74.503006073183386 -20.015177447208579 -7.1506945518886011 0 -1 0 I I #
point $-1 -74.503006073183386 -48.010294629874231 -7.1506945518886011 #
point $-1 -74.503006073183386 -32.050415158960085 -7.1506945518886011 #
straight-curve $-1 -74.503006073183386 -32.050415158960085 -2.2256469995177177 0 0 -1 I I #
straight-curve $-1 -74.503006073183386 -48.010294629874231 0 0 0 -1 I I #
straight-curve $-1 -74.503006073183386 17.144252090150228 67.513765996454083 0 0 -1 I I #
point $-1 -74.503006073183386 17.144252090150228 18.083384359033321 #
straight-curve $-1 -74.503006073183386 4.1148137690038915 8.6632677278056178 0 -1 0 I I #
point $-1 -74.503006073183386 17.144252090150228 8.6632677278056232 #
point $-1 -65.061884440415014 2.8808528067223094 10.327164835288764 #
point $-1 -65.061884440415014 8.2296275380077759 10.327164835288764 #
point $-1 -65.061884440415014 13.578402269293242 10.327164835288764 #
straight-curve $-1 74.503006073183386 -32.050415158960092 106.68377544359736 0 0 -1 I I #
point $-1 74.503006073183386 -32.050415158960092 18.083384359033321 #
straight-curve $-1 74.503006073183386 -12.194763062288116 4.2119500376950825 0 1 0 I I #
point $-1 74.503006073183386 -32.050415158960092 4.2119500376950896 #
point $-1 66.791502839927333 -27.672764282169314 9.356392397363015 #
point $-1 66.791502839927333 -21.10628796698315 9.356392397363015 #
straight-curve $-1 74.503006073183386 0 18.083384359033321 0 1 0 I I #
straight-curve $-1 74.503006073183386 48.010294629874231 0 0 0 -1 I I #
point $-1 74.503006073183386 48.010294629874231 18.083384359033321 #
point $-1 66.791502839927333 37.066167437897285 9.356392397363015 #
point $-1 66.791502839927333 43.63264375308345 9.356392397363015 #
End-of-ACIS-data 