500 0 8 0           
7 Unknown 11 ACIS 5.0 NT 24 Thu Mar 25 22:38:21 1999 
-1 9.9999999999999995e-007 1e-010 
body $-1 $8 $-1 $9 #
body $-1 $10 $-1 $11 #
body $-1 $12 $-1 $13 #
body $-1 $14 $-1 $15 #
body $-1 $16 $-1 $17 #
body $-1 $18 $-1 $19 #
body $-1 $20 $-1 $21 #
body $-1 $22 $-1 $23 #
lump $-1 $-1 $24 $0 #
transform $-1 1 0 0 0 1 0 0 0 1 70.661336100344855 34.508187091016218 10.161838070617529 1 rotate no_reflect no_shear #
lump $-1 $-1 $25 $1 #
transform $-1 1 0 0 0 1 0 0 0 1 70.661336100344855 34.508187091016218 10.161838070617529 1 rotate no_reflect no_shear #
lump $-1 $-1 $26 $2 #
transform $-1 1 0 0 0 1 0 0 0 1 70.661336100344855 34.508187091016218 10.161838070617529 1 rotate no_reflect no_shear #
lump $-1 $-1 $27 $3 #
transform $-1 1 0 0 0 1 0 0 0 1 70.661336100344855 34.508187091016218 10.161838070617529 1 rotate no_reflect no_shear #
lump $-1 $-1 $28 $4 #
transform $-1 1 0 0 0 1 0 0 0 1 70.661336100344855 34.508187091016218 10.161838070617529 1 rotate no_reflect no_shear #
lump $-1 $-1 $29 $5 #
transform $-1 1 0 0 0 1 0 0 0 1 70.661336100344855 34.508187091016218 10.161838070617529 1 rotate no_reflect no_shear #
lump $-1 $-1 $30 $6 #
transform $-1 1 0 0 0 1 0 0 0 1 70.661336100344855 34.508187091016218 10.161838070617529 1 rotate no_reflect no_shear #
lump $-1 $-1 $31 $7 #
transform $-1 1 0 0 0 1 0 0 0 1 70.661336100344855 34.508187091016218 10.161838070617529 1 rotate no_reflect no_shear #
shell $-1 $-1 $-1 $32 $-1 $8 #
shell $-1 $-1 $-1 $33 $-1 $10 #
shell $-1 $-1 $-1 $34 $-1 $12 #
shell $-1 $-1 $-1 $35 $-1 $14 #
shell $-1 $-1 $-1 $36 $-1 $16 #
shell $-1 $-1 $-1 $37 $-1 $18 #
shell $-1 $-1 $-1 $38 $-1 $20 #
shell $-1 $-1 $-1 $39 $-1 $22 #
face $-1 $40 $41 $24 $-1 $42 forward single #
face $-1 $43 $44 $25 $-1 $45 forward single #
face $-1 $46 $47 $26 $-1 $48 reversed single #
face $-1 $49 $50 $27 $-1 $51 forward single #
face $-1 $52 $53 $28 $-1 $54 forward single #
face $-1 $55 $56 $29 $-1 $57 reversed single #
face $-1 $58 $59 $30 $-1 $60 forward single #
face $-1 $61 $62 $31 $-1 $63 forward single #
face $-1 $64 $65 $24 $-1 $66 reversed single #
loop $-1 $-1 $67 $32 #
plane-surface $-1 0 0 10.161838070617529 0 0 1 1 0 0 forward_v I I I I #
face $-1 $68 $69 $25 $-1 $70 reversed single #
loop $-1 $-1 $71 $33 #
plane-surface $-1 -66.587142085478561 0 -4.9404017822860045 0 0 1 1 0 0 forward_v I I I I #
face $-1 $72 $73 $26 $-1 $74 reversed single #
loop $-1 $-1 $75 $34 #
plane-surface $-1 -21.927639878967994 50.868590124971654 156.68184442515616 1 0 0 0 -0.52991927123019833 -0.84804809178421925 forward_v I I I I #
face $-1 $76 $77 $27 $-1 $78 forward single #
loop $-1 $79 $80 $35 #
cone-surface $-1 -13.933432078278976 25.098487917954614 2.8316595117867975 0 -0.52991927123019833 -0.84804809178421925 2.5 0 0 1 I I 0 1 2.5 forward I I I I #
face $-1 $81 $82 $28 $-1 $83 forward single #
loop $-1 $84 $85 $36 #
cone-surface $-1 -1.9421203772454447 25.098487917954614 2.8316595117867975 0 -0.52991927123019833 -0.84804809178421925 2.5 0 0 1 I I 0 1 2.5 forward I I I I #
face $-1 $86 $87 $29 $-1 $88 reversed single #
loop $-1 $-1 $89 $37 #
plane-surface $-1 6.0520874234435809 -109.39779455190993 120.10873771566287 -1 0 0 0 -0.52991927123019833 0.84804809178421925 forward_v I I I I #
face $-1 $90 $91 $30 $-1 $92 forward single #
loop $-1 $93 $94 $38 #
cone-surface $-1 -13.933432078278976 -25.098487917954611 2.8316595117867993 0 0.52991927123019833 -0.84804809178421925 2.5 0 0 1 I I 0 1 2.5 forward I I I I #
face $-1 $95 $96 $31 $-1 $97 forward single #
loop $-1 $98 $99 $39 #
cone-surface $-1 -1.9421203772454447 -25.098487917954611 2.8316595117867993 0 0.52991927123019833 -0.84804809178421925 2.5 0 0 1 I I 0 1 2.5 forward I I I I #
face $-1 $100 $101 $24 $-1 $102 reversed single #
loop $-1 $-1 $103 $40 #
plane-surface $-1 0 0 -10.161838070617529 0 0 1 1 0 0 forward_v I I I I #
coedge $-1 $104 $105 $106 $107 forward $41 $-1 #
face $-1 $108 $109 $25 $-1 $110 reversed single #
loop $-1 $-1 $111 $43 #
plane-surface $-1 -62.512948070612275 0 -7.5511199264517668 -1 0 0 0 0 1 forward_v I I I I #
coedge $-1 $112 $113 $114 $115 forward $44 $-1 #
face $-1 $116 $117 $26 $-1 $118 reversed single #
loop $-1 $-1 $119 $46 #
plane-surface $-1 -7.9377762277622068 -24.021017335922046 36.833421939514523 0 0.52991927123019833 0.84804809178421925 1 0 0 forward_v I I I I #
coedge $-1 $120 $121 $122 $123 reversed $47 $-1 #
face $-1 $-1 $124 $27 $-1 $125 forward single #
loop $-1 $126 $127 $49 #
cone-surface $-1 -13.933432078278976 22.949263956342712 -0.60781774147605283 0 -0.52991927123019833 -0.84804809178421925 1.25 0 0 1 I I -0.70710678118654746 0.70710678118654746 1.25 forward I I I I #
loop $-1 $-1 $128 $35 #
coedge $-1 $80 $80 $129 $130 reversed $50 $-1 #
face $-1 $-1 $131 $28 $-1 $132 forward single #
loop $-1 $133 $134 $52 #
cone-surface $-1 -1.9421203772454447 22.949263956342712 -0.60781774147605283 0 -0.52991927123019833 -0.84804809178421925 1.25 0 0 1 I I -0.70710678118654746 0.70710678118654746 1.25 forward I I I I #
loop $-1 $-1 $135 $36 #
coedge $-1 $85 $85 $136 $137 reversed $53 $-1 #
face $-1 $138 $139 $29 $-1 $140 reversed single #
loop $-1 $-1 $141 $55 #
plane-surface $-1 -7.9377762277622068 -34.508187091016225 0.26031523002123436 0 -0.52991927123019833 0.84804809178421925 1 0 0 forward_v I I I I #
coedge $-1 $142 $143 $144 $145 reversed $56 $-1 #
face $-1 $-1 $146 $30 $-1 $147 forward single #
loop $-1 $148 $149 $58 #
cone-surface $-1 -13.933432078278976 -22.949263956342708 -0.60781774147605105 0 0.52991927123019833 -0.84804809178421925 1.25 0 0 1 I I -0.70710678118654746 0.70710678118654746 1.25 forward I I I I #
loop $-1 $-1 $150 $38 #
coedge $-1 $94 $94 $151 $152 reversed $59 $-1 #
face $-1 $-1 $153 $31 $-1 $154 forward single #
loop $-1 $155 $156 $61 #
cone-surface $-1 -1.9421203772454447 -22.949263956342708 -0.60781774147605105 0 0.52991927123019833 -0.84804809178421925 1.25 0 0 1 I I -0.70710678118654746 0.70710678118654746 1.25 forward I I I I #
loop $-1 $-1 $157 $39 #
coedge $-1 $99 $99 $158 $159 reversed $62 $-1 #
face $-1 $160 $161 $24 $-1 $162 reversed single #
loop $-1 $-1 $163 $64 #
plane-surface $-1 0 -34.508187091016218 0 0 1 0 0 0 1 forward_v I I I I #
coedge $-1 $164 $165 $166 $167 forward $65 $-1 #
coedge $-1 $168 $67 $169 $170 forward $41 $-1 #
coedge $-1 $67 $168 $171 $172 forward $41 $-1 #
coedge $-1 $173 $174 $67 $107 reversed $175 $-1 #
edge $-1 $176 -34.508187091016218 $177 34.508187091016218 $106 $178 forward 7 unknown #
face $-1 $179 $180 $25 $-1 $181 reversed single #
loop $-1 $-1 $182 $68 #
plane-surface $-1 0 0 -10.161838070617529 0 0 1 1 0 0 forward_v I I I I #
coedge $-1 $183 $114 $184 $185 reversed $69 $-1 #
coedge $-1 $186 $71 $187 $188 reversed $44 $-1 #
coedge $-1 $71 $186 $189 $190 reversed $44 $-1 #
coedge $-1 $111 $191 $71 $115 reversed $69 $-1 #
edge $-1 $192 -34.508187091016218 $193 34.508187091016218 $114 $194 forward 7 unknown #
face $-1 $195 $196 $26 $-1 $197 reversed single #
loop $-1 $-1 $198 $72 #
plane-surface $-1 6.0520874234435809 50.868590124971654 156.68184442515616 -1 0 0 0 0.52991927123019833 0.84804809178421925 forward_v I I I I #
coedge $-1 $199 $200 $201 $202 reversed $73 $-1 #
coedge $-1 $121 $75 $203 $204 reversed $47 $-1 #
coedge $-1 $75 $120 $199 $205 reversed $47 $-1 #
coedge $-1 $201 $206 $75 $123 forward $207 $-1 #
edge $-1 $208 -9.0738920285303912 $209 6.7718565724445234 $122 $210 forward 7 unknown #
loop $-1 $-1 $129 $76 #
plane-surface $-1 -7.9377762277622068 -24.021017335922046 36.833421939514523 0 0.52991927123019833 0.84804809178421925 1 0 0 forward_v I I I I #
loop $-1 $-1 $211 $49 #
coedge $-1 $127 $127 $128 $212 reversed $77 $-1 #
coedge $-1 $128 $128 $127 $212 forward $79 $-1 #
coedge $-1 $129 $129 $80 $130 forward $124 $-1 #
edge $-1 $213 2.6382310060522424e-016 $213 6.2831853071796004 $129 $214 forward 7 unknown #
loop $-1 $-1 $136 $81 #
plane-surface $-1 -7.9377762277622068 -24.021017335922046 36.833421939514523 0 0.52991927123019833 0.84804809178421925 1 0 0 forward_v I I I I #
loop $-1 $-1 $215 $52 #
coedge $-1 $134 $134 $135 $216 reversed $82 $-1 #
coedge $-1 $135 $135 $134 $216 forward $84 $-1 #
coedge $-1 $136 $136 $85 $137 forward $131 $-1 #
edge $-1 $217 2.6382310060522424e-016 $217 6.2831853071796004 $136 $218 forward 7 unknown #
face $-1 $219 $220 $29 $-1 $221 forward single #
loop $-1 $-1 $222 $86 #
plane-surface $-1 -21.927639878967994 -109.39779455190993 120.10873771566287 1 0 0 0 0.52991927123019833 -0.84804809178421925 forward_v I I I I #
coedge $-1 $223 $224 $225 $226 reversed $87 $-1 #
coedge $-1 $143 $89 $227 $228 reversed $56 $-1 #
coedge $-1 $89 $142 $223 $229 reversed $56 $-1 #
coedge $-1 $225 $230 $89 $145 forward $220 $-1 #
edge $-1 $231 20.190710184938744 $232 36.036458785913631 $144 $233 forward 7 unknown #
loop $-1 $-1 $151 $90 #
plane-surface $-1 -7.9377762277622068 -34.508187091016225 0.26031523002123436 0 -0.52991927123019833 0.84804809178421925 1 0 0 forward_v I I I I #
loop $-1 $-1 $234 $58 #
coedge $-1 $149 $149 $150 $235 reversed $91 $-1 #
coedge $-1 $150 $150 $149 $235 forward $93 $-1 #
coedge $-1 $151 $151 $94 $152 forward $146 $-1 #
edge $-1 $236 1.5111591249854472e-016 $236 6.2831853071796004 $151 $237 forward 7 unknown #
loop $-1 $-1 $158 $95 #
plane-surface $-1 -7.9377762277622068 -34.508187091016225 0.26031523002123436 0 -0.52991927123019833 0.84804809178421925 1 0 0 forward_v I I I I #
loop $-1 $-1 $238 $61 #
coedge $-1 $156 $156 $157 $239 reversed $96 $-1 #
coedge $-1 $157 $157 $156 $239 forward $98 $-1 #
coedge $-1 $158 $158 $99 $159 forward $153 $-1 #
edge $-1 $240 1.5111591249854472e-016 $240 6.2831853071796004 $158 $241 forward 7 unknown #
face $-1 $242 $243 $24 $-1 $244 reversed single #
loop $-1 $-1 $245 $100 #
plane-surface $-1 -70.661336100344855 0 0 1 0 0 0 0 -1 forward_v I I I I #
coedge $-1 $246 $171 $247 $248 forward $101 $-1 #
coedge $-1 $249 $103 $246 $250 forward $65 $-1 #
coedge $-1 $103 $249 $251 $252 forward $65 $-1 #
coedge $-1 $174 $173 $103 $167 reversed $175 $-1 #
edge $-1 $253 -34.508187091016218 $254 34.508187091016218 $166 $255 forward 7 unknown #
coedge $-1 $105 $104 $256 $257 forward $41 $-1 #
coedge $-1 $258 $259 $104 $170 reversed $243 $-1 #
edge $-1 $177 -70.661336100344855 $260 70.661336100344855 $169 $261 forward 7 unknown #
coedge $-1 $163 $262 $105 $172 reversed $101 $-1 #
edge $-1 $263 -70.661336100344855 $176 70.661336100344855 $171 $264 forward 7 unknown #
coedge $-1 $166 $106 $262 $265 forward $175 $-1 #
coedge $-1 $106 $166 $258 $266 reversed $175 $-1 #
loop $-1 $-1 $173 $242 #
vertex $-1 $107 $267 #
vertex $-1 $107 $268 #
straight-curve $-1 70.661336100344855 0 10.161838070617529 0 1 0 I I #
face $-1 $269 $270 $25 $-1 $271 reversed single #
loop $-1 $-1 $184 $108 #
plane-surface $-1 0 -34.508187091016218 0 0 1 0 0 0 1 forward_v I I I I #
coedge $-1 $272 $273 $183 $274 forward $109 $-1 #
coedge $-1 $191 $111 $182 $274 reversed $69 $-1 #
coedge $-1 $189 $275 $111 $185 forward $180 $-1 #
edge $-1 $276 -6.3862781073916457 $192 -1.1648418190601211 $184 $277 forward 7 unknown #
coedge $-1 $113 $112 $278 $279 reversed $44 $-1 #
coedge $-1 $280 $281 $112 $188 forward $282 $-1 #
edge $-1 $283 -37.367765057605574 $193 -29.219377027872994 $187 $284 forward 7 unknown #
coedge $-1 $285 $184 $113 $190 forward $180 $-1 #
edge $-1 $192 29.219377027872994 $286 37.367765057605574 $189 $287 forward 7 unknown #
coedge $-1 $114 $183 $280 $288 reversed $69 $-1 #
vertex $-1 $190 $289 #
vertex $-1 $188 $290 #
straight-curve $-1 -62.512948070612275 0 -4.9404017822860045 0 1 0 I I #
face $-1 $-1 $207 $26 $-1 $291 forward single #
loop $-1 $-1 $292 $116 #
plane-surface $-1 0 34.508187091016218 0 0 -1 0 0 0 -1 forward_v I I I I #
coedge $-1 $293 $294 $295 $296 reversed $117 $-1 #
coedge $-1 $297 $119 $121 $205 forward $73 $-1 #
coedge $-1 $119 $297 $293 $298 forward $73 $-1 #
coedge $-1 $295 $122 $119 $202 forward $207 $-1 #
edge $-1 $209 -17.958751765086891 $299 10.020975537324684 $201 $300 forward 7 unknown #
coedge $-1 $301 $302 $120 $204 forward $196 $-1 #
edge $-1 $303 -78.080606982556858 $208 -68.179084141960544 $203 $304 forward 7 unknown #
edge $-1 $209 50.33140955032524 $303 69.016374182032436 $121 $305 forward 7 unknown #
coedge $-1 $122 $295 $301 $306 forward $207 $-1 #
loop $-1 $-1 $295 $195 #
vertex $-1 $204 $307 #
vertex $-1 $123 $308 #
straight-curve $-1 -21.927639878967994 25.434295062485827 10.161838070617534 0 -1 0 I I #
coedge $-1 $211 $211 $-1 $309 reversed $126 $-1 #
edge $-1 $310 0 $310 6.2831853071796004 $127 $311 forward 7 unknown #
vertex $-1 $130 $312 #
ellipse-curve $-1 -13.933432078278976 26.585312790528764 5.2110766503193693 0 0.52991927123019833 0.84804809178421925 2.5 0 0 1 I I #
coedge $-1 $215 $215 $-1 $313 reversed $133 $-1 #
edge $-1 $314 0 $314 6.2831853071796004 $134 $315 forward 7 unknown #
vertex $-1 $137 $316 #
ellipse-curve $-1 -1.9421203772454447 26.585312790528764 5.2110766503193693 0 0.52991927123019833 0.84804809178421925 2.5 0 0 1 I I #
face $-1 $-1 $317 $29 $-1 $318 reversed single #
loop $-1 $-1 $144 $138 #
plane-surface $-1 0 0 10.161838070617529 0 0 1 1 0 0 forward_v I I I I #
coedge $-1 $319 $320 $321 $322 reversed $139 $-1 #
coedge $-1 $323 $141 $143 $229 forward $87 $-1 #
coedge $-1 $141 $323 $319 $324 forward $87 $-1 #
coedge $-1 $321 $144 $141 $226 forward $220 $-1 #
edge $-1 $232 -10.020975537324684 $325 17.958751765086891 $225 $326 forward 7 unknown #
coedge $-1 $327 $328 $142 $228 forward $317 $-1 #
edge $-1 $329 -59.794053627810193 $231 -49.892530787213907 $227 $330 forward 7 unknown #
edge $-1 $232 -18.684964631707171 $329 -8.3790584163743152e-015 $143 $331 forward 7 unknown #
coedge $-1 $144 $321 $327 $332 forward $220 $-1 #
vertex $-1 $145 $333 #
vertex $-1 $145 $334 #
straight-curve $-1 6.0520874234435809 -54.698897275954963 10.161838070617527 0 1 0 I I #
coedge $-1 $234 $234 $-1 $335 reversed $148 $-1 #
edge $-1 $336 0 $336 6.2831853071796004 $149 $337 forward 7 unknown #
vertex $-1 $152 $338 #
ellipse-curve $-1 -13.933432078278976 -26.585312790528771 5.2110766503193862 0 -0.52991927123019833 0.84804809178421925 2.5 0 0 1 I I #
coedge $-1 $238 $238 $-1 $339 reversed $155 $-1 #
edge $-1 $340 0 $340 6.2831853071796004 $156 $341 forward 7 unknown #
vertex $-1 $159 $342 #
ellipse-curve $-1 -1.9421203772454447 -26.585312790528771 5.2110766503193862 0 -0.52991927123019833 0.84804809178421925 2.5 0 0 1 I I #
face $-1 $-1 $175 $24 $-1 $343 reversed single #
loop $-1 $-1 $258 $160 #
plane-surface $-1 0 34.508187091016218 0 0 -1 0 0 0 -1 forward_v I I I I #
coedge $-1 $344 $256 $259 $345 forward $161 $-1 #
coedge $-1 $262 $163 $164 $250 reversed $101 $-1 #
coedge $-1 $256 $344 $163 $248 reversed $161 $-1 #
edge $-1 $263 -10.161838070617529 $346 10.161838070617529 $247 $347 forward 7 unknown #
coedge $-1 $165 $164 $344 $348 forward $65 $-1 #
edge $-1 $254 -70.661336100344855 $346 70.661336100344855 $246 $349 forward 7 unknown #
coedge $-1 $259 $258 $165 $252 reversed $243 $-1 #
edge $-1 $350 -70.661336100344855 $253 70.661336100344855 $251 $351 forward 7 unknown #
vertex $-1 $167 $352 #
vertex $-1 $265 $353 #
straight-curve $-1 70.661336100344855 0 -10.161838070617529 0 -1 0 I I #
coedge $-1 $245 $247 $168 $257 reversed $161 $-1 #
edge $-1 $260 -34.508187091016218 $263 34.508187091016218 $256 $354 forward 7 unknown #
coedge $-1 $251 $169 $174 $266 forward $243 $-1 #
coedge $-1 $169 $251 $245 $345 reversed $243 $-1 #
vertex $-1 $170 $355 #
straight-curve $-1 0 34.508187091016218 10.161838070617529 -1 0 0 I I #
coedge $-1 $171 $246 $173 $265 reversed $101 $-1 #
vertex $-1 $257 $356 #
straight-curve $-1 0 -34.508187091016218 10.161838070617529 1 0 0 I I #
edge $-1 $176 -10.161838070617529 $254 10.161838070617529 $173 $357 forward 7 unknown #
edge $-1 $177 -10.161838070617529 $253 10.161838070617529 $174 $358 forward 7 unknown #
point $-1 70.661336100344855 -34.508187091016218 10.161838070617529 #
point $-1 70.661336100344855 34.508187091016218 10.161838070617529 #
face $-1 $-1 $282 $25 $-1 $359 reversed single #
loop $-1 $-1 $278 $179 #
plane-surface $-1 -70.661336100344855 0 0 1 0 0 0 0 -1 forward_v I I I I #
coedge $-1 $360 $182 $275 $361 forward $109 $-1 #
coedge $-1 $182 $360 $362 $363 forward $109 $-1 #
edge $-1 $364 -34.508187091016218 $276 34.508187091016218 $182 $365 forward 7 unknown #
coedge $-1 $184 $285 $272 $361 reversed $180 $-1 #
vertex $-1 $361 $366 #
straight-curve $-1 -62.512948070612275 -34.508187091016218 -3.7755599632258834 0 0 1 I I #
coedge $-1 $367 $368 $186 $279 forward $270 $-1 #
edge $-1 $286 -34.508187091016218 $283 34.508187091016218 $278 $369 forward 7 unknown #
coedge $-1 $362 $187 $191 $288 forward $282 $-1 #
coedge $-1 $187 $362 $367 $370 reversed $282 $-1 #
loop $-1 $-1 $280 $269 #
vertex $-1 $370 $371 #
straight-curve $-1 -33.293571042739281 34.508187091016218 -4.9404017822860045 1 0 0 I I #
coedge $-1 $275 $189 $368 $372 forward $180 $-1 #
vertex $-1 $372 $373 #
straight-curve $-1 -33.293571042739281 -34.508187091016218 -4.9404017822860045 -1 0 0 I I #
edge $-1 $193 1.1648418190601211 $364 6.3862781073916457 $280 $374 forward 7 unknown #
point $-1 -62.512948070612275 -34.508187091016218 -4.9404017822860045 #
point $-1 -62.512948070612275 34.508187091016218 -4.9404017822860045 #
plane-surface $-1 0 0 10.161838070617529 0 0 1 1 0 0 forward_v I I I I #
coedge $-1 $302 $301 $294 $375 forward $196 $-1 #
coedge $-1 $294 $198 $200 $298 reversed $117 $-1 #
coedge $-1 $198 $293 $292 $375 reversed $117 $-1 #
coedge $-1 $206 $201 $198 $296 forward $207 $-1 #
edge $-1 $299 -6.7718565724445234 $376 9.0738920285303912 $295 $377 forward 7 unknown #
coedge $-1 $200 $199 $302 $378 reversed $73 $-1 #
edge $-1 $379 -69.016374182032436 $299 -50.33140955032524 $293 $380 forward 7 unknown #
vertex $-1 $202 $381 #
straight-curve $-1 -3.9688881138811034 18.6624384900413 10.161838070617527 1 0 0 I I #
coedge $-1 $292 $203 $206 $306 reversed $196 $-1 #
coedge $-1 $203 $292 $297 $378 forward $196 $-1 #
vertex $-1 $204 $382 #
straight-curve $-1 -21.927639878967994 34.508187091016218 78.340922212578079 0 0 1 I I #
straight-curve $-1 -21.927639878967994 -24.021017335922046 36.833421939514523 0 0.84804809178421925 -0.52991927123019833 I I #
edge $-1 $376 -6.0520874234435809 $208 21.927639878967994 $301 $383 forward 7 unknown #
point $-1 -21.927639878967994 34.508187091016218 10.161838070617529 #
point $-1 -21.927639878967994 18.662438490041303 10.161838070617527 #
edge $-1 $384 1 $384 0 $211 $-1 forward 7 unknown #
vertex $-1 $212 $385 #
ellipse-curve $-1 -13.933432078278976 23.61166304538046 0.45224237325422134 0 0.52991927123019833 0.84804809178421925 2.5 0 0 1 I I #
point $-1 -11.433432078278976 26.585312790528768 5.2110766503193737 #
edge $-1 $386 1 $386 0 $215 $-1 forward 7 unknown #
vertex $-1 $216 $387 #
ellipse-curve $-1 -1.9421203772454447 23.61166304538046 0.45224237325422134 0 0.52991927123019833 0.84804809178421925 2.5 0 0 1 I I #
point $-1 0.55787962275455527 26.585312790528768 5.2110766503193737 #
loop $-1 $-1 $227 $219 #
plane-surface $-1 0 -34.508187091016218 0 0 1 0 0 0 1 forward_v I I I I #
coedge $-1 $320 $222 $224 $324 reversed $139 $-1 #
coedge $-1 $222 $319 $388 $389 reversed $139 $-1 #
coedge $-1 $230 $225 $222 $322 forward $220 $-1 #
edge $-1 $325 -36.036458785913631 $390 -20.190710184938744 $321 $391 forward 7 unknown #
coedge $-1 $224 $223 $328 $392 reversed $87 $-1 #
edge $-1 $393 8.3790584163743152e-015 $325 18.684964631707171 $319 $394 forward 7 unknown #
vertex $-1 $226 $395 #
straight-curve $-1 -3.9688881138811034 -18.662438490041332 10.161838070617529 -1 0 0 I I #
coedge $-1 $388 $227 $230 $332 reversed $317 $-1 #
coedge $-1 $227 $388 $323 $392 forward $317 $-1 #
vertex $-1 $228 $396 #
straight-curve $-1 6.0520874234435809 -34.508187091016218 60.054368857831435 0 0 1 I I #
straight-curve $-1 6.0520874234435809 -34.508187091016225 0.26031523002123436 0 -0.84804809178421925 -0.52991927123019833 I I #
edge $-1 $390 -21.927639878967994 $231 6.0520874234435809 $327 $397 forward 7 unknown #
point $-1 6.0520874234435809 -34.508187091016218 10.161838070617529 #
point $-1 6.0520874234435809 -18.662438490041332 10.161838070617529 #
edge $-1 $398 1 $398 0 $234 $-1 forward 7 unknown #
vertex $-1 $235 $399 #
ellipse-curve $-1 -13.933432078278976 -23.611663045380457 0.45224237325422312 0 -0.52991927123019833 0.84804809178421925 2.5 0 0 1 I I #
point $-1 -11.433432078278976 -26.585312790528764 5.2110766503193755 #
edge $-1 $400 1 $400 0 $238 $-1 forward 7 unknown #
vertex $-1 $239 $401 #
ellipse-curve $-1 -1.9421203772454447 -23.611663045380457 0.45224237325422312 0 -0.52991927123019833 0.84804809178421925 2.5 0 0 1 I I #
point $-1 0.55787962275455527 -26.585312790528764 5.2110766503193755 #
plane-surface $-1 70.661336100344855 0 0 -1 0 0 0 0 1 forward_v I I I I #
coedge $-1 $247 $245 $249 $348 reversed $161 $-1 #
edge $-1 $260 -10.161838070617529 $350 10.161838070617529 $259 $402 forward 7 unknown #
vertex $-1 $348 $403 #
straight-curve $-1 -70.661336100344855 -34.508187091016218 0 0 0 -1 I I #
edge $-1 $346 -34.508187091016218 $350 34.508187091016218 $344 $404 forward 7 unknown #
straight-curve $-1 0 -34.508187091016218 -10.161838070617529 -1 0 0 I I #
vertex $-1 $252 $405 #
straight-curve $-1 0 34.508187091016218 -10.161838070617529 1 0 0 I I #
point $-1 70.661336100344855 34.508187091016218 -10.161838070617529 #
point $-1 70.661336100344855 -34.508187091016218 -10.161838070617529 #
straight-curve $-1 -70.661336100344855 0 10.161838070617529 0 -1 0 I I #
point $-1 -70.661336100344855 34.508187091016218 10.161838070617529 #
point $-1 -70.661336100344855 -34.508187091016218 10.161838070617529 #
straight-curve $-1 70.661336100344855 -34.508187091016218 0 0 0 -1 I I #
straight-curve $-1 70.661336100344855 34.508187091016218 0 0 0 -1 I I #
plane-surface $-1 0 34.508187091016218 0 0 -1 0 0 0 -1 forward_v I I I I #
coedge $-1 $273 $272 $406 $407 forward $109 $-1 #
edge $-1 $276 62.512948070612275 $408 70.661336100344855 $275 $409 forward 7 unknown #
coedge $-1 $281 $280 $273 $363 reversed $282 $-1 #
edge $-1 $410 -70.661336100344855 $364 -62.512948070612275 $362 $411 forward 7 unknown #
vertex $-1 $288 $412 #
straight-curve $-1 -62.512948070612275 0 -10.161838070617529 0 -1 0 I I #
point $-1 -62.512948070612275 -34.508187091016218 -10.161838070617529 #
coedge $-1 $406 $278 $281 $370 forward $270 $-1 #
coedge $-1 $278 $406 $285 $372 reversed $270 $-1 #
straight-curve $-1 -70.661336100344855 0 -4.9404017822860045 0 1 0 I I #
edge $-1 $283 4.9404017822860045 $410 10.161838070617529 $281 $413 forward 7 unknown #
point $-1 -70.661336100344855 34.508187091016218 -4.9404017822860045 #
edge $-1 $286 4.9404017822860045 $408 10.161838070617529 $368 $414 forward 7 unknown #
point $-1 -70.661336100344855 -34.508187091016218 -4.9404017822860045 #
straight-curve $-1 -62.512948070612275 34.508187091016218 -3.7755599632258834 0 0 -1 I I #
edge $-1 $376 68.179084141960544 $379 78.080606982556858 $292 $415 forward 7 unknown #
vertex $-1 $306 $416 #
straight-curve $-1 6.0520874234435809 25.434295062485827 10.161838070617534 0 1 0 I I #
edge $-1 $379 -10.020975537324684 $303 17.958751765086891 $302 $417 forward 7 unknown #
vertex $-1 $378 $418 #
straight-curve $-1 6.0520874234435809 -24.021017335922046 36.833421939514523 0 -0.84804809178421925 0.52991927123019833 I I #
point $-1 6.0520874234435809 18.662438490041303 10.161838070617527 #
point $-1 -21.927639878967994 34.508187091016218 0.26031523002122015 #
straight-curve $-1 0 34.508187091016218 10.161838070617529 -1 0 0 I I #
vertex $-1 $309 $419 #
point $-1 -11.433432078278976 23.61166304538046 0.45224237325422134 #
vertex $-1 $313 $420 #
point $-1 0.55787962275455527 23.61166304538046 0.45224237325422134 #
coedge $-1 $328 $327 $320 $389 forward $317 $-1 #
edge $-1 $390 49.892530787213907 $393 59.794053627810193 $388 $421 forward 7 unknown #
vertex $-1 $332 $422 #
straight-curve $-1 -21.927639878967994 -54.698897275954963 10.161838070617527 0 -1 0 I I #
edge $-1 $393 -17.958751765086891 $329 10.020975537324684 $328 $423 forward 7 unknown #
vertex $-1 $392 $424 #
straight-curve $-1 -21.927639878967994 -34.508187091016225 0.26031523002123436 0 0.84804809178421925 0.52991927123019833 I I #
point $-1 -21.927639878967994 -18.662438490041332 10.161838070617529 #
point $-1 6.0520874234435809 -34.508187091016218 0.2603152300212388 #
straight-curve $-1 0 -34.508187091016218 10.161838070617529 1 0 0 I I #
vertex $-1 $335 $425 #
point $-1 -11.433432078278976 -23.611663045380457 0.45224237325422312 #
vertex $-1 $339 $426 #
point $-1 0.55787962275455527 -23.611663045380457 0.45224237325422312 #
straight-curve $-1 -70.661336100344855 34.508187091016218 0 0 0 -1 I I #
point $-1 -70.661336100344855 -34.508187091016218 -10.161838070617529 #
straight-curve $-1 -70.661336100344855 0 -10.161838070617529 0 1 0 I I #
point $-1 -70.661336100344855 34.508187091016218 -10.161838070617529 #
coedge $-1 $368 $367 $360 $407 reversed $270 $-1 #
edge $-1 $408 -34.508187091016218 $410 34.508187091016218 $406 $427 forward 7 unknown #
vertex $-1 $407 $428 #
straight-curve $-1 0 -34.508187091016218 -10.161838070617529 -1 0 0 I I #
vertex $-1 $363 $429 #
straight-curve $-1 0 34.508187091016218 -10.161838070617529 1 0 0 I I #
point $-1 -62.512948070612275 34.508187091016218 -10.161838070617529 #
straight-curve $-1 -70.661336100344855 34.508187091016218 0 0 0 -1 I I #
straight-curve $-1 -70.661336100344855 -34.508187091016218 0 0 0 -1 I I #
straight-curve $-1 6.0520874234435809 34.508187091016218 78.340922212578079 0 0 -1 I I #
point $-1 6.0520874234435809 34.508187091016218 10.161838070617529 #
straight-curve $-1 -3.9688881138811034 34.508187091016225 0.26031523002121659 -1 0 0 I I #
point $-1 6.0520874234435809 34.508187091016218 0.26031523002122015 #
point $-1 -13.933432078278976 22.286864867304963 -1.667877856206327 #
point $-1 -1.9421203772454447 22.286864867304963 -1.667877856206327 #
straight-curve $-1 -21.927639878967994 -34.508187091016218 60.054368857831435 0 0 -1 I I #
point $-1 -21.927639878967994 -34.508187091016218 10.161838070617529 #
straight-curve $-1 -3.9688881138811034 -34.508187091016218 0.26031523002124013 1 0 0 I I #
point $-1 -21.927639878967994 -34.508187091016218 0.2603152300212388 #
point $-1 -13.933432078278976 -22.28686486730496 -1.6678778562063252 #
point $-1 -1.9421203772454447 -22.28686486730496 -1.6678778562063252 #
straight-curve $-1 -70.661336100344855 0 -10.161838070617529 0 1 0 I I #
point $-1 -70.661336100344855 -34.508187091016218 -10.161838070617529 #
point $-1 -70.661336100344855 34.508187091016218 -10.161838070617529 #
End-of-ACIS-data 