500 0 12 0           
7 Unknown 11 ACIS 5.0 NT 24 Thu Mar 25 18:18:48 1999 
-1 9.9999999999999995e-007 1e-010 
body $-1 $12 $-1 $13 #
body $-1 $14 $-1 $15 #
body $-1 $16 $-1 $17 #
body $-1 $18 $-1 $19 #
body $-1 $20 $-1 $21 #
body $-1 $22 $-1 $23 #
body $-1 $24 $-1 $25 #
body $-1 $26 $-1 $27 #
body $-1 $28 $-1 $29 #
body $-1 $30 $-1 $31 #
body $-1 $32 $-1 $33 #
body $-1 $34 $-1 $35 #
lump $-1 $-1 $36 $0 #
transform $-1 1 0 0 0 1 0 0 0 1 53.606372264778585 32.367667286727233 7.376493284818129 1 rotate no_reflect no_shear #
lump $-1 $-1 $37 $1 #
transform $-1 1 0 0 0 1 0 0 0 1 53.606372264778585 32.367667286727233 7.376493284818129 1 rotate no_reflect no_shear #
lump $-1 $-1 $38 $2 #
transform $-1 1 0 0 0 1 0 0 0 1 53.606372264778585 32.367667286727233 7.376493284818129 1 rotate no_reflect no_shear #
lump $-1 $-1 $39 $3 #
transform $-1 1 0 0 0 1 0 0 0 1 53.606372264778585 32.367667286727233 7.376493284818129 1 rotate no_reflect no_shear #
lump $-1 $-1 $40 $4 #
transform $-1 1 0 0 0 1 0 0 0 1 53.606372264778585 32.367667286727233 7.376493284818129 1 rotate no_reflect no_shear #
lump $-1 $-1 $41 $5 #
transform $-1 1 0 0 0 1 0 0 0 1 53.606372264778585 32.367667286727233 7.376493284818129 1 rotate no_reflect no_shear #
lump $-1 $-1 $42 $6 #
transform $-1 1 0 0 0 1 0 0 0 1 53.606372264778585 32.367667286727233 7.376493284818129 1 rotate no_reflect no_shear #
lump $-1 $-1 $43 $7 #
transform $-1 1 0 0 0 1 0 0 0 1 53.606372264778585 32.367667286727233 7.376493284818129 1 rotate no_reflect no_shear #
lump $-1 $-1 $44 $8 #
transform $-1 1 0 0 0 1 0 0 0 1 53.606372264778585 32.367667286727233 7.376493284818129 1 rotate no_reflect no_shear #
lump $-1 $-1 $45 $9 #
transform $-1 1 0 0 0 1 0 0 0 1 53.606372264778585 32.367667286727233 7.376493284818129 1 rotate no_reflect no_shear #
lump $-1 $-1 $46 $10 #
transform $-1 1 0 0 0 1 0 0 0 1 53.606372264778585 32.367667286727233 7.376493284818129 1 rotate no_reflect no_shear #
lump $-1 $-1 $47 $11 #
transform $-1 1 0 0 0 1 0 0 0 1 53.606372264778585 32.367667286727233 7.376493284818129 1 rotate no_reflect no_shear #
shell $-1 $-1 $-1 $48 $-1 $12 #
shell $-1 $-1 $-1 $49 $-1 $14 #
shell $-1 $-1 $-1 $50 $-1 $16 #
shell $-1 $-1 $-1 $51 $-1 $18 #
shell $-1 $-1 $-1 $52 $-1 $20 #
shell $-1 $-1 $-1 $53 $-1 $22 #
shell $-1 $-1 $-1 $54 $-1 $24 #
shell $-1 $-1 $-1 $55 $-1 $26 #
shell $-1 $-1 $-1 $56 $-1 $28 #
shell $-1 $-1 $-1 $57 $-1 $30 #
shell $-1 $-1 $-1 $58 $-1 $32 #
shell $-1 $-1 $-1 $59 $-1 $34 #
face $-1 $60 $61 $36 $-1 $62 forward single #
face $-1 $63 $64 $37 $-1 $65 reversed single #
face $-1 $66 $67 $38 $-1 $68 forward single #
face $-1 $69 $70 $39 $-1 $71 forward single #
face $-1 $72 $73 $40 $-1 $74 forward single #
face $-1 $75 $76 $41 $-1 $77 reversed single #
face $-1 $78 $79 $42 $-1 $80 forward single #
face $-1 $81 $82 $43 $-1 $83 forward single #
face $-1 $84 $85 $44 $-1 $86 forward single #
face $-1 $87 $88 $45 $-1 $89 reversed single #
face $-1 $90 $91 $46 $-1 $92 forward single #
face $-1 $93 $94 $47 $-1 $95 forward single #
face $-1 $96 $97 $36 $-1 $98 reversed single #
loop $-1 $-1 $99 $48 #
plane-surface $-1 0 0 7.376493284818129 0 0 1 1 0 0 forward_v I I I I #
face $-1 $100 $101 $37 $-1 $102 reversed single #
loop $-1 $-1 $103 $49 #
plane-surface $-1 37.757588666069381 -3.8792333224467308 152.06865805541611 0 -1 0 -0.62932039886446345 0 -0.77714595512881146 forward_v I I I I #
face $-1 $104 $105 $38 $-1 $106 forward single #
loop $-1 $107 $108 $50 #
cone-surface $-1 49.497804736347696 -14.35574050964361 3.9037215623126653 -0.62932039886446345 0 -0.77714595512881146 0.77714595512881146 0 -0.62932039886446345 1 I I 0 1 1 forward I I I I #
face $-1 $109 $110 $39 $-1 $111 forward single #
loop $-1 $112 $113 $51 #
cone-surface $-1 49.497804736347696 -10.427050314444777 3.9037215623126653 -0.62932039886446345 0 -0.77714595512881146 0.77714595512881146 0 -0.62932039886446345 1 I I 0 1 1 forward I I I I #
face $-1 $114 $115 $40 $-1 $116 forward single #
loop $-1 $117 $118 $52 #
cone-surface $-1 49.497804736347696 -6.4983601192459446 3.9037215623126653 -0.62932039886446345 0 -0.77714595512881146 0.77714595512881146 0 -0.62932039886446345 1 I I 0 1 1 forward I I I I #
face $-1 $119 $120 $41 $-1 $121 reversed single #
loop $-1 $-1 $122 $53 #
plane-surface $-1 37.757588666069381 16.974867306442828 152.06865805541611 0 -1 0 -0.62932039886446345 0 -0.77714595512881146 forward_v I I I I #
face $-1 $123 $124 $42 $-1 $125 forward single #
loop $-1 $126 $127 $54 #
cone-surface $-1 49.497804736347696 6.4983601192459517 3.9037215623126653 -0.62932039886446345 0 -0.77714595512881146 0.77714595512881146 0 -0.62932039886446345 1 I I 0 1 1 forward I I I I #
face $-1 $128 $129 $43 $-1 $130 forward single #
loop $-1 $131 $132 $55 #
cone-surface $-1 49.497804736347696 10.427050314444777 3.9037215623126653 -0.62932039886446345 0 -0.77714595512881146 0.77714595512881146 0 -0.62932039886446345 1 I I 0 1 1 forward I I I I #
face $-1 $133 $134 $44 $-1 $135 forward single #
loop $-1 $136 $137 $56 #
cone-surface $-1 49.497804736347696 14.355740509643617 3.9037215623126653 -0.62932039886446345 0 -0.77714595512881146 0.77714595512881146 0 -0.62932039886446345 1 I I 0 1 1 forward I I I I #
face $-1 $138 $139 $45 $-1 $140 reversed single #
loop $-1 $-1 $141 $57 #
plane-surface $-1 -108.82501854764388 5.7540038838033603 92.444466847294052 0 1 0 -0.51503808176128008 0 0.85716729658548041 forward_v I I I I #
face $-1 $142 $143 $46 $-1 $144 forward single #
loop $-1 $145 $146 $58 #
cone-surface $-1 -46.969187598722364 9.9771583002956845 2.3754562980000791 0.51503808176128008 0 -0.85716729658548041 0.85716729658548041 0 0.51503808176128008 1 I I 0 1 1 forward I I I I #
face $-1 $147 $148 $47 $-1 $149 forward single #
loop $-1 $150 $151 $59 #
cone-surface $-1 -46.969187598722364 16.311889925034173 2.3754562980000791 0.51503808176128008 0 -0.85716729658548041 0.85716729658548041 0 0.51503808176128008 1 I I 0 1 1 forward I I I I #
face $-1 $152 $153 $36 $-1 $154 reversed single #
loop $-1 $-1 $155 $60 #
plane-surface $-1 0 0 -7.376493284818129 0 0 1 1 0 0 forward_v I I I I #
coedge $-1 $156 $157 $158 $159 forward $61 $-1 #
face $-1 $160 $161 $37 $-1 $162 reversed single #
loop $-1 $-1 $163 $63 #
plane-surface $-1 -29.713578484625359 -10.427050314444781 68.74870730601215 0.62932039886446345 0 0.77714595512881146 0.77714595512881146 0 -0.62932039886446345 forward_v I I I I #
coedge $-1 $164 $165 $166 $167 reversed $64 $-1 #
face $-1 $-1 $168 $38 $-1 $169 forward single #
loop $-1 $170 $171 $66 #
cone-surface $-1 48.84036686978898 -14.35574050964361 3.0918534269931568 -0.62932039886446345 0 -0.77714595512881146 0.38857297756440573 0 -0.31466019943223172 1 I I -0.70710678118654746 0.70710678118654746 0.5 forward I I I I #
loop $-1 $-1 $172 $50 #
coedge $-1 $108 $108 $173 $174 reversed $67 $-1 #
face $-1 $-1 $175 $39 $-1 $176 forward single #
loop $-1 $177 $178 $69 #
cone-surface $-1 48.84036686978898 -10.427050314444777 3.0918534269931568 -0.62932039886446345 0 -0.77714595512881146 0.38857297756440573 0 -0.31466019943223172 1 I I -0.70710678118654746 0.70710678118654746 0.5 forward I I I I #
loop $-1 $-1 $179 $51 #
coedge $-1 $113 $113 $180 $181 reversed $70 $-1 #
face $-1 $-1 $182 $40 $-1 $183 forward single #
loop $-1 $184 $185 $72 #
cone-surface $-1 48.84036686978898 -6.4983601192459446 3.0918534269931568 -0.62932039886446345 0 -0.77714595512881146 0.38857297756440573 0 -0.31466019943223172 1 I I -0.70710678118654746 0.70710678118654746 0.5 forward I I I I #
loop $-1 $-1 $186 $52 #
coedge $-1 $118 $118 $187 $188 reversed $73 $-1 #
face $-1 $189 $190 $41 $-1 $191 reversed single #
loop $-1 $-1 $192 $75 #
plane-surface $-1 -29.713578484625359 10.427050314444777 68.74870730601215 0.62932039886446345 0 0.77714595512881146 0.77714595512881146 0 -0.62932039886446345 forward_v I I I I #
coedge $-1 $193 $194 $195 $196 reversed $76 $-1 #
face $-1 $-1 $197 $42 $-1 $198 forward single #
loop $-1 $199 $200 $78 #
cone-surface $-1 48.84036686978898 6.4983601192459517 3.0918534269931568 -0.62932039886446345 0 -0.77714595512881146 0.38857297756440573 0 -0.31466019943223172 1 I I -0.70710678118654746 0.70710678118654746 0.5 forward I I I I #
loop $-1 $-1 $201 $54 #
coedge $-1 $127 $127 $202 $203 reversed $79 $-1 #
face $-1 $-1 $204 $43 $-1 $205 forward single #
loop $-1 $206 $207 $81 #
cone-surface $-1 48.84036686978898 10.427050314444777 3.0918534269931568 -0.62932039886446345 0 -0.77714595512881146 0.38857297756440573 0 -0.31466019943223172 1 I I -0.70710678118654746 0.70710678118654746 0.5 forward I I I I #
loop $-1 $-1 $208 $55 #
coedge $-1 $132 $132 $209 $210 reversed $82 $-1 #
face $-1 $-1 $211 $44 $-1 $212 forward single #
loop $-1 $213 $214 $84 #
cone-surface $-1 48.84036686978898 14.355740509643617 3.0918534269931568 -0.62932039886446345 0 -0.77714595512881146 0.38857297756440573 0 -0.31466019943223172 1 I I -0.70710678118654746 0.70710678118654746 0.5 forward I I I I #
loop $-1 $-1 $215 $56 #
coedge $-1 $137 $137 $216 $217 reversed $85 $-1 #
face $-1 $218 $219 $45 $-1 $220 reversed single #
loop $-1 $-1 $221 $87 #
plane-surface $-1 -53.606372264778578 13.144524112664932 0.54520845938377249 -0.51503808176128008 0 0.85716729658548041 0.85716729658548041 0 0.51503808176128008 forward_v I I I I #
coedge $-1 $222 $223 $224 $225 reversed $88 $-1 #
face $-1 $-1 $226 $46 $-1 $227 forward single #
loop $-1 $228 $229 $90 #
cone-surface $-1 -45.759067375397727 9.9771583002956845 0.36147807560647394 0.51503808176128008 0 -0.85716729658548041 0.4285836482927402 0 0.25751904088064004 1 I I -0.70710678118654746 0.70710678118654746 0.5 forward I I I I #
loop $-1 $-1 $230 $58 #
coedge $-1 $146 $146 $231 $232 reversed $91 $-1 #
face $-1 $-1 $233 $47 $-1 $234 forward single #
loop $-1 $235 $236 $93 #
cone-surface $-1 -45.759067375397727 16.311889925034173 0.36147807560647394 0.51503808176128008 0 -0.85716729658548041 0.4285836482927402 0 0.25751904088064004 1 I I -0.70710678118654746 0.70710678118654746 0.5 forward I I I I #
loop $-1 $-1 $237 $59 #
coedge $-1 $151 $151 $238 $239 reversed $94 $-1 #
face $-1 $240 $241 $36 $-1 $242 reversed single #
loop $-1 $-1 $243 $96 #
plane-surface $-1 0 -32.367667286727233 0 0 1 0 0 0 1 forward_v I I I I #
coedge $-1 $244 $245 $246 $247 forward $97 $-1 #
coedge $-1 $248 $99 $249 $250 forward $61 $-1 #
coedge $-1 $99 $248 $251 $252 forward $61 $-1 #
coedge $-1 $253 $254 $99 $159 reversed $255 $-1 #
edge $-1 $256 -32.367667286727233 $257 32.367667286727233 $158 $258 forward 7 unknown #
face $-1 $259 $260 $37 $-1 $261 forward single #
loop $-1 $-1 $262 $100 #
plane-surface $-1 37.757588666069381 -16.974867306442832 152.06865805541611 0 1 0 0.62932039886446345 0 0.77714595512881146 forward_v I I I I #
coedge $-1 $263 $264 $265 $266 reversed $101 $-1 #
coedge $-1 $165 $103 $267 $268 reversed $64 $-1 #
coedge $-1 $103 $164 $263 $269 reversed $64 $-1 #
coedge $-1 $265 $270 $103 $167 forward $260 $-1 #
edge $-1 $271 -34.727577931743895 $272 -27.195998209135084 $166 $273 forward 7 unknown #
loop $-1 $-1 $173 $104 #
plane-surface $-1 -29.713578484625359 -10.427050314444781 68.74870730601215 0.62932039886446345 0 0.77714595512881146 0.77714595512881146 0 -0.62932039886446345 forward_v I I I I #
loop $-1 $-1 $274 $66 #
coedge $-1 $171 $171 $172 $275 reversed $105 $-1 #
coedge $-1 $172 $172 $171 $275 forward $107 $-1 #
coedge $-1 $173 $173 $108 $174 forward $168 $-1 #
edge $-1 $276 0 $276 6.2831853071796004 $173 $277 forward 7 unknown #
loop $-1 $-1 $180 $109 #
plane-surface $-1 -29.713578484625359 -10.427050314444781 68.74870730601215 0.62932039886446345 0 0.77714595512881146 0.77714595512881146 0 -0.62932039886446345 forward_v I I I I #
loop $-1 $-1 $278 $69 #
coedge $-1 $178 $178 $179 $279 reversed $110 $-1 #
coedge $-1 $179 $179 $178 $279 forward $112 $-1 #
coedge $-1 $180 $180 $113 $181 forward $175 $-1 #
edge $-1 $280 0 $280 6.2831853071796004 $180 $281 forward 7 unknown #
loop $-1 $-1 $187 $114 #
plane-surface $-1 -29.713578484625359 -10.427050314444781 68.74870730601215 0.62932039886446345 0 0.77714595512881146 0.77714595512881146 0 -0.62932039886446345 forward_v I I I I #
loop $-1 $-1 $282 $72 #
coedge $-1 $185 $185 $186 $283 reversed $115 $-1 #
coedge $-1 $186 $186 $185 $283 forward $117 $-1 #
coedge $-1 $187 $187 $118 $188 forward $182 $-1 #
edge $-1 $284 0 $284 6.2831853071796004 $187 $285 forward 7 unknown #
face $-1 $286 $287 $41 $-1 $288 reversed single #
loop $-1 $-1 $289 $119 #
plane-surface $-1 37.757588666069381 3.8792333224467273 152.06865805541611 0 1 0 0.62932039886446345 0 0.77714595512881146 forward_v I I I I #
coedge $-1 $290 $291 $292 $293 reversed $120 $-1 #
coedge $-1 $194 $122 $294 $295 reversed $76 $-1 #
coedge $-1 $122 $193 $290 $296 reversed $76 $-1 #
coedge $-1 $292 $297 $122 $196 forward $298 $-1 #
edge $-1 $299 -34.727577931743895 $300 -27.195998209135084 $195 $301 forward 7 unknown #
loop $-1 $-1 $202 $123 #
plane-surface $-1 -29.713578484625359 10.427050314444777 68.74870730601215 0.62932039886446345 0 0.77714595512881146 0.77714595512881146 0 -0.62932039886446345 forward_v I I I I #
loop $-1 $-1 $302 $78 #
coedge $-1 $200 $200 $201 $303 reversed $124 $-1 #
coedge $-1 $201 $201 $200 $303 forward $126 $-1 #
coedge $-1 $202 $202 $127 $203 forward $197 $-1 #
edge $-1 $304 0 $304 6.2831853071796004 $202 $305 forward 7 unknown #
loop $-1 $-1 $209 $128 #
plane-surface $-1 -29.713578484625359 10.427050314444777 68.74870730601215 0.62932039886446345 0 0.77714595512881146 0.77714595512881146 0 -0.62932039886446345 forward_v I I I I #
loop $-1 $-1 $306 $81 #
coedge $-1 $207 $207 $208 $307 reversed $129 $-1 #
coedge $-1 $208 $208 $207 $307 forward $131 $-1 #
coedge $-1 $209 $209 $132 $210 forward $204 $-1 #
edge $-1 $308 0 $308 6.2831853071796004 $209 $309 forward 7 unknown #
loop $-1 $-1 $216 $133 #
plane-surface $-1 -29.713578484625359 10.427050314444777 68.74870730601215 0.62932039886446345 0 0.77714595512881146 0.77714595512881146 0 -0.62932039886446345 forward_v I I I I #
loop $-1 $-1 $310 $84 #
coedge $-1 $214 $214 $215 $311 reversed $134 $-1 #
coedge $-1 $215 $215 $214 $311 forward $136 $-1 #
coedge $-1 $216 $216 $137 $217 forward $211 $-1 #
edge $-1 $312 0 $312 6.2831853071796004 $216 $313 forward 7 unknown #
face $-1 $314 $315 $45 $-1 $316 reversed single #
loop $-1 $-1 $317 $138 #
plane-surface $-1 -108.82501854764388 20.535044341526504 92.444466847294052 0 -1 0 0.51503808176128008 0 -0.85716729658548041 forward_v I I I I #
coedge $-1 $318 $319 $320 $321 reversed $139 $-1 #
coedge $-1 $223 $141 $322 $323 reversed $88 $-1 #
coedge $-1 $141 $222 $318 $324 reversed $88 $-1 #
coedge $-1 $320 $325 $141 $225 forward $326 $-1 #
edge $-1 $327 0.80613700904335417 $328 12.175303976267799 $224 $329 forward 7 unknown #
loop $-1 $-1 $231 $142 #
plane-surface $-1 -53.606372264778578 13.144524112664932 0.54520845938377249 -0.51503808176128008 0 0.85716729658548041 0.85716729658548041 0 0.51503808176128008 forward_v I I I I #
loop $-1 $-1 $330 $90 #
coedge $-1 $229 $229 $230 $331 reversed $143 $-1 #
coedge $-1 $230 $230 $229 $331 forward $145 $-1 #
coedge $-1 $231 $231 $146 $232 forward $226 $-1 #
edge $-1 $332 0 $332 6.2831853071796004 $231 $333 forward 7 unknown #
loop $-1 $-1 $238 $147 #
plane-surface $-1 -53.606372264778578 13.144524112664932 0.54520845938377249 -0.51503808176128008 0 0.85716729658548041 0.85716729658548041 0 0.51503808176128008 forward_v I I I I #
loop $-1 $-1 $334 $93 #
coedge $-1 $236 $236 $237 $335 reversed $148 $-1 #
coedge $-1 $237 $237 $236 $335 forward $150 $-1 #
coedge $-1 $238 $238 $151 $239 forward $233 $-1 #
edge $-1 $336 0 $336 6.2831853071796004 $238 $337 forward 7 unknown #
face $-1 $338 $339 $36 $-1 $340 reversed single #
loop $-1 $-1 $341 $152 #
plane-surface $-1 -53.606372264778585 0 0 1 0 0 0 0 -1 forward_v I I I I #
coedge $-1 $342 $251 $343 $344 forward $153 $-1 #
coedge $-1 $345 $155 $342 $346 forward $97 $-1 #
coedge $-1 $155 $345 $347 $348 forward $97 $-1 #
coedge $-1 $254 $253 $155 $247 reversed $255 $-1 #
edge $-1 $349 -32.367667286727233 $350 32.367667286727233 $246 $351 forward 7 unknown #
coedge $-1 $157 $156 $352 $353 forward $61 $-1 #
coedge $-1 $354 $355 $156 $250 reversed $339 $-1 #
edge $-1 $257 -53.606372264778585 $356 53.606372264778585 $249 $357 forward 7 unknown #
coedge $-1 $243 $358 $157 $252 reversed $153 $-1 #
edge $-1 $359 -53.606372264778585 $256 53.606372264778585 $251 $360 forward 7 unknown #
coedge $-1 $246 $158 $358 $361 forward $255 $-1 #
coedge $-1 $158 $246 $354 $362 reversed $255 $-1 #
loop $-1 $-1 $253 $338 #
vertex $-1 $159 $363 #
vertex $-1 $159 $364 #
straight-curve $-1 53.606372264778585 0 7.376493284818129 0 1 0 I I #
face $-1 $-1 $365 $37 $-1 $366 reversed single #
loop $-1 $-1 $166 $160 #
plane-surface $-1 0 0 7.376493284818129 0 0 1 1 0 0 forward_v I I I I #
coedge $-1 $367 $368 $369 $370 reversed $161 $-1 #
coedge $-1 $371 $163 $165 $269 forward $101 $-1 #
coedge $-1 $163 $371 $367 $372 forward $101 $-1 #
coedge $-1 $369 $166 $163 $266 forward $260 $-1 #
edge $-1 $272 -1.3342918347756596 $373 11.761342149220441 $265 $374 forward 7 unknown #
coedge $-1 $375 $376 $164 $268 forward $365 $-1 #
edge $-1 $377 -74.756788872390629 $271 -68.65783574288993 $267 $378 forward 7 unknown #
edge $-1 $272 97.52141219628848 $377 107.21274452955714 $165 $379 forward 7 unknown #
coedge $-1 $166 $369 $375 $380 forward $260 $-1 #
vertex $-1 $268 $381 #
vertex $-1 $167 $382 #
straight-curve $-1 18.878794333034691 -3.8792333224467308 7.3764932848181246 -1 0 0 I I #
coedge $-1 $274 $274 $-1 $383 reversed $170 $-1 #
edge $-1 $384 0 $384 6.2831853071796004 $171 $385 forward 7 unknown #
vertex $-1 $174 $386 #
ellipse-curve $-1 49.84058240347418 -14.35574050964361 4.3270167200677676 0.62932039886446345 0 0.77714595512881146 0.77714595512881146 0 -0.62932039886446345 1 I I #
coedge $-1 $278 $278 $-1 $387 reversed $177 $-1 #
edge $-1 $388 0 $388 6.2831853071796004 $178 $389 forward 7 unknown #
vertex $-1 $181 $390 #
ellipse-curve $-1 49.84058240347418 -10.427050314444777 4.3270167200677676 0.62932039886446345 0 0.77714595512881146 0.77714595512881146 0 -0.62932039886446345 1 I I #
coedge $-1 $282 $282 $-1 $391 reversed $184 $-1 #
edge $-1 $392 0 $392 6.2831853071796004 $185 $393 forward 7 unknown #
vertex $-1 $188 $394 #
ellipse-curve $-1 49.84058240347418 -6.4983601192459446 4.3270167200677676 0.62932039886446345 0 0.77714595512881146 0.77714595512881146 0 -0.62932039886446345 1 I I #
face $-1 $-1 $298 $41 $-1 $395 forward single #
loop $-1 $-1 $396 $189 #
plane-surface $-1 53.606372264778585 0 0 -1 0 0 0 0 1 forward_v I I I I #
coedge $-1 $397 $398 $399 $400 reversed $190 $-1 #
coedge $-1 $401 $192 $194 $296 forward $120 $-1 #
coedge $-1 $192 $401 $397 $402 forward $120 $-1 #
coedge $-1 $399 $195 $192 $293 forward $298 $-1 #
edge $-1 $300 -11.76134214922044 $403 1.3342918347756614 $292 $404 forward 7 unknown #
coedge $-1 $405 $406 $193 $295 forward $287 $-1 #
edge $-1 $407 -74.756788872390629 $299 -68.65783574288993 $294 $408 forward 7 unknown #
edge $-1 $300 97.52141219628848 $407 107.21274452955714 $194 $409 forward 7 unknown #
coedge $-1 $195 $399 $405 $410 forward $298 $-1 #
loop $-1 $-1 $399 $286 #
vertex $-1 $295 $411 #
vertex $-1 $196 $412 #
straight-curve $-1 18.878794333034691 16.974867306442828 7.3764932848181246 -1 0 0 I I #
coedge $-1 $302 $302 $-1 $413 reversed $199 $-1 #
edge $-1 $414 0 $414 6.2831853071796004 $200 $415 forward 7 unknown #
vertex $-1 $203 $416 #
ellipse-curve $-1 49.84058240347418 6.4983601192459517 4.3270167200677676 0.62932039886446345 0 0.77714595512881146 0.77714595512881146 0 -0.62932039886446345 1 I I #
coedge $-1 $306 $306 $-1 $417 reversed $206 $-1 #
edge $-1 $418 0 $418 6.2831853071796004 $207 $419 forward 7 unknown #
vertex $-1 $210 $420 #
ellipse-curve $-1 49.84058240347418 10.427050314444777 4.3270167200677676 0.62932039886446345 0 0.77714595512881146 0.77714595512881146 0 -0.62932039886446345 1 I I #
coedge $-1 $310 $310 $-1 $421 reversed $213 $-1 #
edge $-1 $422 0 $422 6.2831853071796004 $214 $423 forward 7 unknown #
vertex $-1 $217 $424 #
ellipse-curve $-1 49.84058240347418 14.355740509643617 4.3270167200677676 0.62932039886446345 0 0.77714595512881146 0.77714595512881146 0 -0.62932039886446345 1 I I #
face $-1 $-1 $326 $45 $-1 $425 forward single #
loop $-1 $-1 $426 $218 #
plane-surface $-1 -53.606372264778585 0 0 1 0 0 0 0 -1 forward_v I I I I #
coedge $-1 $427 $428 $429 $430 reversed $219 $-1 #
coedge $-1 $431 $221 $223 $324 forward $139 $-1 #
coedge $-1 $221 $431 $427 $432 forward $139 $-1 #
coedge $-1 $429 $224 $221 $321 forward $326 $-1 #
edge $-1 $328 -0.81825817252910582 $433 13.962782285194038 $320 $434 forward 7 unknown #
coedge $-1 $435 $436 $222 $323 forward $315 $-1 #
edge $-1 $437 -45.677024964263261 $327 -38.845740138828894 $322 $438 forward 7 unknown #
edge $-1 $328 -13.263649946181367 $437 8.2634070795339233e-015 $223 $439 forward 7 unknown #
coedge $-1 $224 $429 $435 $440 forward $326 $-1 #
loop $-1 $-1 $429 $314 #
vertex $-1 $323 $441 #
vertex $-1 $225 $442 #
straight-curve $-1 -54.412509273821939 5.7540038838033603 7.3764932848181317 1 0 0 I I #
coedge $-1 $330 $330 $-1 $443 reversed $228 $-1 #
edge $-1 $444 0 $444 6.2831853071796004 $229 $445 forward 7 unknown #
vertex $-1 $232 $446 #
ellipse-curve $-1 -47.921788781166363 9.9771583002956845 3.9608508721009494 -0.51503808176128008 0 0.85716729658548041 0.85716729658548041 0 0.51503808176128008 1 I I #
coedge $-1 $334 $334 $-1 $447 reversed $235 $-1 #
edge $-1 $448 0 $448 6.2831853071796004 $236 $449 forward 7 unknown #
vertex $-1 $239 $450 #
ellipse-curve $-1 -47.921788781166363 16.311889925034173 3.9608508721009494 -0.51503808176128008 0 0.85716729658548041 0.85716729658548041 0 0.51503808176128008 1 I I #
face $-1 $-1 $255 $36 $-1 $451 reversed single #
loop $-1 $-1 $354 $240 #
plane-surface $-1 0 32.367667286727233 0 0 -1 0 0 0 -1 forward_v I I I I #
coedge $-1 $452 $352 $355 $453 forward $241 $-1 #
coedge $-1 $358 $243 $244 $346 reversed $153 $-1 #
coedge $-1 $352 $452 $243 $344 reversed $241 $-1 #
edge $-1 $359 -7.376493284818129 $454 7.376493284818129 $343 $455 forward 7 unknown #
coedge $-1 $245 $244 $452 $456 forward $97 $-1 #
edge $-1 $350 -53.606372264778585 $454 53.606372264778585 $342 $457 forward 7 unknown #
coedge $-1 $355 $354 $245 $348 reversed $339 $-1 #
edge $-1 $458 -53.606372264778585 $349 53.606372264778585 $347 $459 forward 7 unknown #
vertex $-1 $247 $460 #
vertex $-1 $361 $461 #
straight-curve $-1 53.606372264778585 0 -7.376493284818129 0 -1 0 I I #
coedge $-1 $341 $343 $248 $353 reversed $241 $-1 #
edge $-1 $356 -32.367667286727233 $359 32.367667286727233 $352 $462 forward 7 unknown #
coedge $-1 $347 $249 $254 $362 forward $339 $-1 #
coedge $-1 $249 $347 $341 $453 reversed $339 $-1 #
vertex $-1 $250 $463 #
straight-curve $-1 0 32.367667286727233 7.376493284818129 -1 0 0 I I #
coedge $-1 $251 $342 $253 $361 reversed $153 $-1 #
vertex $-1 $353 $464 #
straight-curve $-1 0 -32.367667286727233 7.376493284818129 1 0 0 I I #
edge $-1 $256 -7.376493284818129 $350 7.376493284818129 $253 $465 forward 7 unknown #
edge $-1 $257 -7.376493284818129 $349 7.376493284818129 $254 $466 forward 7 unknown #
point $-1 53.606372264778585 -32.367667286727233 7.376493284818129 #
point $-1 53.606372264778585 32.367667286727233 7.376493284818129 #
loop $-1 $-1 $267 $259 #
plane-surface $-1 53.606372264778585 0 0 -1 0 0 0 0 1 forward_v I I I I #
coedge $-1 $368 $262 $264 $372 reversed $161 $-1 #
coedge $-1 $262 $367 $467 $468 reversed $161 $-1 #
coedge $-1 $270 $265 $262 $370 forward $260 $-1 #
edge $-1 $373 27.195998209135084 $469 34.727577931743895 $369 $470 forward 7 unknown #
coedge $-1 $264 $263 $376 $471 reversed $101 $-1 #
edge $-1 $472 -107.21274452955714 $373 -97.52141219628848 $367 $473 forward 7 unknown #
vertex $-1 $266 $474 #
straight-curve $-1 46.074792542169774 -5.2135251572223904 7.3764932848181246 0 -1 0 I I #
coedge $-1 $467 $267 $270 $380 reversed $365 $-1 #
coedge $-1 $267 $467 $371 $471 forward $365 $-1 #
vertex $-1 $268 $475 #
straight-curve $-1 53.606372264778585 -3.8792333224467308 76.034329027708054 0 0 1 I I #
straight-curve $-1 -29.713578484625359 -3.8792333224467308 68.74870730601215 0.77714595512881146 0 -0.62932039886446345 I I #
edge $-1 $469 -16.974867306442832 $271 -3.8792333224467308 $375 $476 forward 7 unknown #
point $-1 53.606372264778585 -3.8792333224467308 7.376493284818129 #
point $-1 46.074792542169774 -3.8792333224467308 7.3764932848181317 #
edge $-1 $477 1 $477 0 $274 $-1 forward 7 unknown #
vertex $-1 $275 $478 #
ellipse-curve $-1 49.155027069221212 -14.35574050964361 3.4804264045575626 0.62932039886446345 0 0.77714595512881146 0.77714595512881146 0 -0.62932039886446345 1 I I #
point $-1 50.617728358602989 -14.35574050964361 3.6976963212033049 #
edge $-1 $479 1 $479 0 $278 $-1 forward 7 unknown #
vertex $-1 $279 $480 #
ellipse-curve $-1 49.155027069221212 -10.427050314444777 3.4804264045575626 0.62932039886446345 0 0.77714595512881146 0.77714595512881146 0 -0.62932039886446345 1 I I #
point $-1 50.617728358602989 -10.427050314444777 3.6976963212033049 #
edge $-1 $481 1 $481 0 $282 $-1 forward 7 unknown #
vertex $-1 $283 $482 #
ellipse-curve $-1 49.155027069221212 -6.4983601192459446 3.4804264045575626 0.62932039886446345 0 0.77714595512881146 0.77714595512881146 0 -0.62932039886446345 1 I I #
point $-1 50.617728358602989 -6.4983601192459446 3.6976963212033049 #
plane-surface $-1 0 0 7.376493284818129 0 0 1 1 0 0 forward_v I I I I #
coedge $-1 $406 $405 $398 $483 forward $287 $-1 #
coedge $-1 $398 $289 $291 $402 reversed $190 $-1 #
coedge $-1 $289 $397 $396 $483 reversed $190 $-1 #
coedge $-1 $297 $292 $289 $400 forward $298 $-1 #
edge $-1 $403 27.195998209135084 $484 34.727577931743895 $399 $485 forward 7 unknown #
coedge $-1 $291 $290 $406 $486 reversed $120 $-1 #
edge $-1 $487 -107.21274452955714 $403 -97.52141219628848 $397 $488 forward 7 unknown #
vertex $-1 $293 $489 #
straight-curve $-1 46.074792542169774 5.2135251572223886 7.3764932848181246 0 -1 0 I I #
coedge $-1 $396 $294 $297 $410 reversed $287 $-1 #
coedge $-1 $294 $396 $401 $486 forward $287 $-1 #
vertex $-1 $295 $490 #
straight-curve $-1 53.606372264778585 16.974867306442828 76.034329027708054 0 0 1 I I #
straight-curve $-1 -29.713578484625359 16.974867306442828 68.74870730601215 0.77714595512881146 0 -0.62932039886446345 I I #
edge $-1 $484 3.8792333224467273 $299 16.974867306442828 $405 $491 forward 7 unknown #
point $-1 53.606372264778585 16.974867306442828 7.376493284818129 #
point $-1 46.074792542169774 16.974867306442828 7.3764932848181317 #
edge $-1 $492 1 $492 0 $302 $-1 forward 7 unknown #
vertex $-1 $303 $493 #
ellipse-curve $-1 49.155027069221212 6.4983601192459517 3.4804264045575626 0.62932039886446345 0 0.77714595512881146 0.77714595512881146 0 -0.62932039886446345 1 I I #
point $-1 50.617728358602989 6.4983601192459517 3.6976963212033049 #
edge $-1 $494 1 $494 0 $306 $-1 forward 7 unknown #
vertex $-1 $307 $495 #
ellipse-curve $-1 49.155027069221212 10.427050314444777 3.4804264045575626 0.62932039886446345 0 0.77714595512881146 0.77714595512881146 0 -0.62932039886446345 1 I I #
point $-1 50.617728358602989 10.427050314444777 3.6976963212033049 #
edge $-1 $496 1 $496 0 $310 $-1 forward 7 unknown #
vertex $-1 $311 $497 #
ellipse-curve $-1 49.155027069221212 14.355740509643617 3.4804264045575626 0.62932039886446345 0 0.77714595512881146 0.77714595512881146 0 -0.62932039886446345 1 I I #
point $-1 50.617728358602989 14.355740509643617 3.6976963212033049 #
plane-surface $-1 0 0 7.376493284818129 0 0 1 1 0 0 forward_v I I I I #
coedge $-1 $436 $435 $428 $498 forward $315 $-1 #
coedge $-1 $428 $317 $319 $432 reversed $219 $-1 #
coedge $-1 $317 $427 $426 $498 reversed $219 $-1 #
coedge $-1 $325 $320 $317 $430 forward $326 $-1 #
edge $-1 $433 -12.175303976267799 $499 -0.80613700904335417 $429 $500 forward 7 unknown #
coedge $-1 $319 $318 $436 $501 reversed $139 $-1 #
edge $-1 $502 -8.2634070795339233e-015 $433 13.263649946181367 $427 $503 forward 7 unknown #
vertex $-1 $321 $504 #
straight-curve $-1 -42.237205297554141 6.5722620563324661 7.3764932848181282 0 1 0 I I #
coedge $-1 $426 $322 $325 $440 reversed $315 $-1 #
coedge $-1 $322 $426 $431 $501 forward $315 $-1 #
vertex $-1 $323 $505 #
straight-curve $-1 -53.606372264778585 5.7540038838033603 46.222233423647026 0 0 1 I I #
straight-curve $-1 -53.606372264778578 5.7540038838033603 0.54520845938377249 -0.85716729658548041 0 -0.51503808176128008 I I #
edge $-1 $499 -20.535044341526504 $327 -5.7540038838033603 $435 $506 forward 7 unknown #
point $-1 -53.606372264778585 5.7540038838033603 7.376493284818129 #
point $-1 -42.237205297554141 5.7540038838033603 7.376493284818129 #
edge $-1 $507 1 $507 0 $330 $-1 forward 7 unknown #
vertex $-1 $331 $508 #
ellipse-curve $-1 -46.016586416278365 9.9771583002956845 0.79006172389921414 -0.51503808176128008 0 0.85716729658548041 0.85716729658548041 0 0.51503808176128008 1 I I #
point $-1 -47.064621484580876 9.9771583002956845 4.4758889538622242 #
edge $-1 $509 1 $509 0 $334 $-1 forward 7 unknown #
vertex $-1 $335 $510 #
ellipse-curve $-1 -46.016586416278365 16.311889925034173 0.79006172389921414 -0.51503808176128008 0 0.85716729658548041 0.85716729658548041 0 0.51503808176128008 1 I I #
point $-1 -47.064621484580876 16.311889925034173 4.4758889538622242 #
plane-surface $-1 53.606372264778585 0 0 -1 0 0 0 0 1 forward_v I I I I #
coedge $-1 $343 $341 $345 $456 reversed $241 $-1 #
edge $-1 $356 -7.376493284818129 $458 7.376493284818129 $355 $511 forward 7 unknown #
vertex $-1 $456 $512 #
straight-curve $-1 -53.606372264778585 -32.367667286727233 0 0 0 -1 I I #
edge $-1 $454 -32.367667286727233 $458 32.367667286727233 $452 $513 forward 7 unknown #
straight-curve $-1 0 -32.367667286727233 -7.376493284818129 -1 0 0 I I #
vertex $-1 $348 $514 #
straight-curve $-1 0 32.367667286727233 -7.376493284818129 1 0 0 I I #
point $-1 53.606372264778585 32.367667286727233 -7.376493284818129 #
point $-1 53.606372264778585 -32.367667286727233 -7.376493284818129 #
straight-curve $-1 -53.606372264778585 0 7.376493284818129 0 -1 0 I I #
point $-1 -53.606372264778585 32.367667286727233 7.376493284818129 #
point $-1 -53.606372264778585 -32.367667286727233 7.376493284818129 #
straight-curve $-1 53.606372264778585 -32.367667286727233 0 0 0 -1 I I #
straight-curve $-1 53.606372264778585 32.367667286727233 0 0 0 -1 I I #
coedge $-1 $376 $375 $368 $468 forward $365 $-1 #
edge $-1 $469 68.65783574288993 $472 74.756788872390629 $467 $515 forward 7 unknown #
vertex $-1 $380 $516 #
straight-curve $-1 18.878794333034691 -16.974867306442832 7.3764932848181246 1 0 0 I I #
edge $-1 $472 -11.761342149220441 $377 1.3342918347756596 $376 $517 forward 7 unknown #
vertex $-1 $471 $518 #
straight-curve $-1 -29.713578484625359 -16.974867306442832 68.74870730601215 -0.77714595512881146 0 0.62932039886446345 I I #
point $-1 46.074792542169774 -16.974867306442832 7.3764932848181317 #
point $-1 53.606372264778585 -3.8792333224467308 1.2775401553174248 #
straight-curve $-1 53.606372264778585 0 7.376493284818129 0 1 0 I I #
vertex $-1 $383 $519 #
point $-1 49.932173024350021 -14.35574050964361 2.851106005693099 #
vertex $-1 $387 $520 #
point $-1 49.932173024350021 -10.427050314444777 2.851106005693099 #
vertex $-1 $391 $521 #
point $-1 49.932173024350021 -6.4983601192459446 2.851106005693099 #
edge $-1 $484 68.65783574288993 $487 74.756788872390629 $396 $522 forward 7 unknown #
vertex $-1 $410 $523 #
straight-curve $-1 18.878794333034691 3.8792333224467273 7.3764932848181246 1 0 0 I I #
edge $-1 $487 -1.3342918347756614 $407 11.76134214922044 $406 $524 forward 7 unknown #
vertex $-1 $486 $525 #
straight-curve $-1 -29.713578484625359 3.8792333224467273 68.74870730601215 -0.77714595512881146 0 0.62932039886446345 I I #
point $-1 46.074792542169774 3.8792333224467273 7.3764932848181317 #
point $-1 53.606372264778585 16.974867306442828 1.2775401553174248 #
straight-curve $-1 53.606372264778585 0 7.376493284818129 0 1 0 I I #
vertex $-1 $413 $526 #
point $-1 49.932173024350021 6.4983601192459517 2.851106005693099 #
vertex $-1 $417 $527 #
point $-1 49.932173024350021 10.427050314444777 2.851106005693099 #
vertex $-1 $421 $528 #
point $-1 49.932173024350021 14.355740509643617 2.851106005693099 #
edge $-1 $499 38.845740138828894 $502 45.677024964263261 $426 $529 forward 7 unknown #
vertex $-1 $440 $530 #
straight-curve $-1 -54.412509273821939 20.535044341526504 7.3764932848181317 -1 0 0 I I #
edge $-1 $502 -13.962782285194038 $437 0.81825817252910582 $436 $531 forward 7 unknown #
vertex $-1 $501 $532 #
straight-curve $-1 -53.606372264778578 20.535044341526504 0.54520845938377249 0.85716729658548041 0 0.51503808176128008 I I #
point $-1 -42.237205297554141 20.535044341526504 7.376493284818129 #
point $-1 -53.606372264778585 5.7540038838033603 0.54520845938376827 #
straight-curve $-1 -53.606372264778585 0 7.376493284818129 0 -1 0 I I #
vertex $-1 $443 $533 #
point $-1 -45.159419119692885 9.9771583002956845 1.3050998056604941 #
vertex $-1 $447 $534 #
point $-1 -45.159419119692885 16.311889925034173 1.3050998056604941 #
straight-curve $-1 -53.606372264778585 32.367667286727233 0 0 0 -1 I I #
point $-1 -53.606372264778585 -32.367667286727233 -7.376493284818129 #
straight-curve $-1 -53.606372264778585 0 -7.376493284818129 0 1 0 I I #
point $-1 -53.606372264778585 32.367667286727233 -7.376493284818129 #
straight-curve $-1 53.606372264778585 -16.974867306442832 76.034329027708054 0 0 -1 I I #
point $-1 53.606372264778585 -16.974867306442832 7.376493284818129 #
straight-curve $-1 53.606372264778585 -5.2135251572223904 1.2775401553174319 0 1 0 I I #
point $-1 53.606372264778585 -16.974867306442832 1.2775401553174248 #
point $-1 48.525706670356747 -14.35574050964361 2.703280449428751 #
point $-1 48.525706670356747 -10.427050314444777 2.703280449428751 #
point $-1 48.525706670356747 -6.4983601192459446 2.703280449428751 #
straight-curve $-1 53.606372264778585 3.8792333224467273 76.034329027708054 0 0 -1 I I #
point $-1 53.606372264778585 3.8792333224467273 7.376493284818129 #
straight-curve $-1 53.606372264778585 5.2135251572223886 1.2775401553174319 0 1 0 I I #
point $-1 53.606372264778585 3.8792333224467273 1.2775401553174248 #
point $-1 48.525706670356747 6.4983601192459517 2.703280449428751 #
point $-1 48.525706670356747 10.427050314444777 2.703280449428751 #
point $-1 48.525706670356747 14.355740509643617 2.703280449428751 #
straight-curve $-1 -53.606372264778585 20.535044341526504 46.222233423647026 0 0 -1 I I #
point $-1 -53.606372264778585 20.535044341526504 7.376493284818129 #
straight-curve $-1 -53.606372264778585 6.5722620563324661 0.54520845938376883 0 -1 0 I I #
point $-1 -53.606372264778585 20.535044341526504 0.54520845938376827 #
point $-1 -45.501548334517089 9.9771583002956845 -0.067105572686266268 #
point $-1 -45.501548334517089 16.311889925034173 -0.067105572686266268 #
End-of-ACIS-data 