500 0 9 0           
7 Unknown 11 ACIS 5.0 NT 24 Thu Mar 25 17:07:07 1999 
-1 9.9999999999999995e-007 1e-010 
body $-1 $9 $-1 $10 #
body $-1 $11 $-1 $12 #
body $-1 $13 $-1 $14 #
body $-1 $15 $-1 $16 #
body $-1 $17 $-1 $18 #
body $-1 $19 $-1 $20 #
body $-1 $21 $-1 $22 #
body $-1 $23 $-1 $24 #
body $-1 $25 $-1 $26 #
lump $-1 $-1 $27 $0 #
transform $-1 1 0 0 0 1 0 0 0 1 50.508133182775353 20.890424078276354 9.1641299094684321 1 rotate no_reflect no_shear #
lump $-1 $-1 $28 $1 #
transform $-1 1 0 0 0 1 0 0 0 1 50.508133182775353 20.890424078276354 9.1641299094684321 1 rotate no_reflect no_shear #
lump $-1 $-1 $29 $2 #
transform $-1 1 0 0 0 1 0 0 0 1 50.508133182775353 20.890424078276354 9.1641299094684321 1 rotate no_reflect no_shear #
lump $-1 $-1 $30 $3 #
transform $-1 1 0 0 0 1 0 0 0 1 50.508133182775353 20.890424078276354 9.1641299094684321 1 rotate no_reflect no_shear #
lump $-1 $-1 $31 $4 #
transform $-1 1 0 0 0 1 0 0 0 1 50.508133182775353 20.890424078276354 9.1641299094684321 1 rotate no_reflect no_shear #
lump $-1 $-1 $32 $5 #
transform $-1 1 0 0 0 1 0 0 0 1 50.508133182775353 20.890424078276354 9.1641299094684321 1 rotate no_reflect no_shear #
lump $-1 $-1 $33 $6 #
transform $-1 1 0 0 0 1 0 0 0 1 50.508133182775353 20.890424078276354 9.1641299094684321 1 rotate no_reflect no_shear #
lump $-1 $-1 $34 $7 #
transform $-1 1 0 0 0 1 0 0 0 1 50.508133182775353 20.890424078276354 9.1641299094684321 1 rotate no_reflect no_shear #
lump $-1 $-1 $35 $8 #
transform $-1 1 0 0 0 1 0 0 0 1 50.508133182775353 20.890424078276354 9.1641299094684321 1 rotate no_reflect no_shear #
shell $-1 $-1 $-1 $36 $-1 $9 #
shell $-1 $-1 $-1 $37 $-1 $11 #
shell $-1 $-1 $-1 $38 $-1 $13 #
shell $-1 $-1 $-1 $39 $-1 $15 #
shell $-1 $-1 $-1 $40 $-1 $17 #
shell $-1 $-1 $-1 $41 $-1 $19 #
shell $-1 $-1 $-1 $42 $-1 $21 #
shell $-1 $-1 $-1 $43 $-1 $23 #
shell $-1 $-1 $-1 $44 $-1 $25 #
face $-1 $45 $46 $27 $-1 $47 forward single #
face $-1 $48 $49 $28 $-1 $50 reversed single #
face $-1 $51 $52 $29 $-1 $53 reversed single #
face $-1 $54 $55 $30 $-1 $56 forward single #
face $-1 $57 $58 $31 $-1 $59 forward single #
face $-1 $60 $61 $32 $-1 $62 reversed single #
face $-1 $63 $64 $33 $-1 $65 forward single #
face $-1 $66 $67 $34 $-1 $68 reversed single #
face $-1 $69 $70 $35 $-1 $71 forward single #
face $-1 $72 $73 $27 $-1 $74 reversed single #
loop $-1 $-1 $75 $36 #
plane-surface $-1 0 0 9.1641299094684321 0 0 1 1 0 0 forward_v I I I I #
face $-1 $76 $77 $28 $-1 $78 reversed single #
loop $-1 $-1 $79 $37 #
plane-surface $-1 -46.881574272326567 0 4.854385072317438 0 0 1 1 0 0 forward_v I I I I #
face $-1 $80 $81 $29 $-1 $82 reversed single #
loop $-1 $-1 $83 $38 #
plane-surface $-1 -21.691611813511688 42.740111368968435 111.22947498427247 1 0 0 0 -0.55919291073839883 -0.82903756765294845 forward_v I I I I #
face $-1 $84 $85 $30 $-1 $86 forward single #
loop $-1 $87 $88 $39 #
cone-surface $-1 -14.709278389937438 16.152377633266791 5.1613031602957093 0 -0.55919291073839883 -0.82903756765294845 1.5 0 0 1 I I 0 1 1.5 forward I I I I #
face $-1 $89 $90 $31 $-1 $91 forward single #
loop $-1 $92 $93 $40 #
cone-surface $-1 -4.2357782545760614 16.152377633266791 5.1613031602957093 0 -0.55919291073839883 -0.82903756765294845 1.5 0 0 1 I I 0 1 1.5 forward I I I I #
face $-1 $94 $95 $32 $-1 $96 reversed single #
loop $-1 $-1 $97 $41 #
plane-surface $-1 -35.594462825213121 -20.89042407827634 5.4558578946624294 0 -0.66913061440640931 0.74314481823134659 1 0 0 forward_v I I I I #
face $-1 $98 $99 $33 $-1 $100 forward single #
loop $-1 $101 $102 $42 #
cone-surface $-1 -35.594462825213121 -18.114261600376654 6.5137559712671784 0 0.66913061440640931 -0.74314481823134659 1 0 0 1 I I 0 1 1 forward I I I I #
face $-1 $103 $104 $34 $-1 $105 reversed single #
loop $-1 $-1 $106 $43 #
plane-surface $-1 3.6265589104487859 -88.483500456498788 80.525572801298893 1 0 0 0 0.66913061440640931 -0.74314481823134659 forward_v I I I I #
face $-1 $107 $108 $35 $-1 $109 forward single #
loop $-1 $110 $111 $44 #
cone-surface $-1 11.287111447113446 -18.114261600376654 6.5137559712671784 0 0.66913061440640931 -0.74314481823134659 1 0 0 1 I I 0 1 1 forward I I I I #
face $-1 $112 $113 $27 $-1 $114 reversed single #
loop $-1 $-1 $115 $45 #
plane-surface $-1 0 0 -9.1641299094684321 0 0 1 1 0 0 forward_v I I I I #
coedge $-1 $116 $117 $118 $119 forward $46 $-1 #
face $-1 $120 $121 $28 $-1 $122 reversed single #
loop $-1 $-1 $123 $48 #
plane-surface $-1 -43.255015361877781 0 7.009257490892935 -1 0 0 0 0 1 forward_v I I I I #
coedge $-1 $124 $125 $126 $127 forward $49 $-1 #
face $-1 $128 $129 $29 $-1 $130 reversed single #
loop $-1 $-1 $131 $51 #
plane-surface $-1 -9.4725283222567498 -13.74746865190928 27.483195223193974 0 0.55919291073839883 0.82903756765294845 1 0 0 forward_v I I I I #
coedge $-1 $132 $133 $134 $135 reversed $52 $-1 #
face $-1 $-1 $136 $30 $-1 $137 forward single #
loop $-1 $138 $139 $54 #
cone-surface $-1 -14.709278389937438 14.734317520198871 3.0589426254114009 0 -0.55919291073839883 -0.82903756765294845 0.75 0 0 1 I I -0.70710678118654757 0.70710678118654757 0.75 forward I I I I #
loop $-1 $-1 $140 $39 #
coedge $-1 $88 $88 $141 $142 reversed $55 $-1 #
face $-1 $-1 $143 $31 $-1 $144 forward single #
loop $-1 $145 $146 $57 #
cone-surface $-1 -4.2357782545760614 14.734317520198871 3.0589426254114009 0 -0.55919291073839883 -0.82903756765294845 0.75 0 0 1 I I -0.70710678118654757 0.70710678118654757 0.75 forward I I I I #
loop $-1 $-1 $147 $40 #
coedge $-1 $93 $93 $148 $149 reversed $58 $-1 #
face $-1 $150 $151 $32 $-1 $152 reversed single #
loop $-1 $-1 $153 $60 #
plane-surface $-1 -27.933910288548461 -88.483500456498788 80.525572801298893 -1 0 0 0 -0.66913061440640931 0.74314481823134659 forward_v I I I I #
coedge $-1 $154 $155 $156 $157 reversed $61 $-1 #
face $-1 $-1 $158 $33 $-1 $159 forward single #
loop $-1 $160 $161 $63 #
cone-surface $-1 -35.594462825213121 -17.06276042444637 5.3459456313532598 0 0.66913061440640931 -0.74314481823134659 0.5 0 0 1 I I -0.70710678118654746 0.70710678118654746 0.5 forward I I I I #
loop $-1 $-1 $162 $42 #
coedge $-1 $102 $102 $163 $164 reversed $64 $-1 #
face $-1 $165 $166 $34 $-1 $167 reversed single #
loop $-1 $-1 $168 $66 #
plane-surface $-1 11.287111447113446 -20.89042407827634 5.4558578946624294 0 -0.66913061440640931 0.74314481823134659 1 0 0 forward_v I I I I #
coedge $-1 $169 $170 $171 $172 reversed $67 $-1 #
face $-1 $-1 $173 $35 $-1 $174 forward single #
loop $-1 $175 $176 $69 #
cone-surface $-1 11.287111447113446 -17.06276042444637 5.3459456313532598 0 0.66913061440640931 -0.74314481823134659 0.5 0 0 1 I I -0.70710678118654746 0.70710678118654746 0.5 forward I I I I #
loop $-1 $-1 $177 $44 #
coedge $-1 $111 $111 $178 $179 reversed $70 $-1 #
face $-1 $180 $181 $27 $-1 $182 reversed single #
loop $-1 $-1 $183 $72 #
plane-surface $-1 0 -20.890424078276354 0 0 1 0 0 0 1 forward_v I I I I #
coedge $-1 $184 $185 $186 $187 forward $73 $-1 #
coedge $-1 $188 $75 $189 $190 forward $46 $-1 #
coedge $-1 $75 $188 $191 $192 forward $46 $-1 #
coedge $-1 $193 $194 $75 $119 reversed $195 $-1 #
edge $-1 $196 -20.890424078276354 $197 20.890424078276354 $118 $198 forward 7 unknown #
face $-1 $199 $200 $28 $-1 $201 reversed single #
loop $-1 $-1 $202 $76 #
plane-surface $-1 0 20.890424078276354 0 0 -1 0 0 0 -1 forward_v I I I I #
coedge $-1 $126 $203 $204 $205 reversed $77 $-1 #
coedge $-1 $206 $79 $207 $208 reversed $49 $-1 #
coedge $-1 $79 $206 $209 $210 reversed $49 $-1 #
coedge $-1 $211 $123 $79 $127 reversed $77 $-1 #
edge $-1 $212 -20.890424078276354 $213 20.890424078276354 $126 $214 forward 7 unknown #
face $-1 $215 $216 $29 $-1 $217 forward single #
loop $-1 $-1 $218 $80 #
plane-surface $-1 2.7465551689981886 42.740111368968435 111.22947498427247 -1 0 0 0 0.55919291073839883 0.82903756765294845 forward_v I I I I #
coedge $-1 $219 $220 $221 $222 reversed $81 $-1 #
coedge $-1 $133 $83 $223 $224 reversed $52 $-1 #
coedge $-1 $83 $132 $219 $225 reversed $52 $-1 #
coedge $-1 $221 $226 $83 $135 forward $216 $-1 #
edge $-1 $227 0.47963160620786383 $228 7.9583936361987284 $134 $229 forward 7 unknown #
loop $-1 $-1 $141 $84 #
plane-surface $-1 -9.4725283222567498 -13.74746865190928 27.483195223193974 0 0.55919291073839883 0.82903756765294845 1 0 0 forward_v I I I I #
loop $-1 $-1 $230 $54 #
coedge $-1 $139 $139 $140 $231 reversed $85 $-1 #
coedge $-1 $140 $140 $139 $231 forward $87 $-1 #
coedge $-1 $141 $141 $88 $142 forward $136 $-1 #
edge $-1 $232 7.0841123137317913e-016 $232 6.2831853071796013 $141 $233 forward 7 unknown #
loop $-1 $-1 $148 $89 #
plane-surface $-1 -9.4725283222567498 -13.74746865190928 27.483195223193974 0 0.55919291073839883 0.82903756765294845 1 0 0 forward_v I I I I #
loop $-1 $-1 $234 $57 #
coedge $-1 $146 $146 $147 $235 reversed $90 $-1 #
coedge $-1 $147 $147 $146 $235 forward $92 $-1 #
coedge $-1 $148 $148 $93 $149 forward $143 $-1 #
edge $-1 $236 7.0841123137317913e-016 $236 6.2831853071796013 $148 $237 forward 7 unknown #
face $-1 $238 $239 $32 $-1 $240 forward single #
loop $-1 $-1 $156 $94 #
plane-surface $-1 0 -20.890424078276354 0 0 1 0 0 0 1 forward_v I I I I #
coedge $-1 $241 $242 $243 $244 reversed $95 $-1 #
coedge $-1 $245 $97 $246 $247 reversed $61 $-1 #
coedge $-1 $97 $245 $241 $248 forward $61 $-1 #
coedge $-1 $243 $249 $97 $157 forward $151 $-1 #
edge $-1 $250 -25.457783949271221 $251 -10.1366788759419 $156 $252 forward 7 unknown #
loop $-1 $-1 $163 $98 #
plane-surface $-1 -35.594462825213121 -20.89042407827634 5.4558578946624294 0 -0.66913061440640931 0.74314481823134659 1 0 0 forward_v I I I I #
loop $-1 $-1 $253 $63 #
coedge $-1 $161 $161 $162 $254 reversed $99 $-1 #
coedge $-1 $162 $162 $161 $254 forward $101 $-1 #
coedge $-1 $163 $163 $102 $164 forward $158 $-1 #
edge $-1 $255 0 $255 6.2831853071796004 $163 $256 forward 7 unknown #
face $-1 $257 $258 $34 $-1 $259 reversed single #
loop $-1 $-1 $260 $103 #
plane-surface $-1 18.947663983778106 -88.483500456498788 80.525572801298893 -1 0 0 0 -0.66913061440640931 0.74314481823134659 forward_v I I I I #
coedge $-1 $261 $262 $263 $264 reversed $104 $-1 #
coedge $-1 $170 $106 $265 $266 reversed $67 $-1 #
coedge $-1 $106 $169 $261 $267 reversed $67 $-1 #
coedge $-1 $263 $268 $106 $172 forward $258 $-1 #
edge $-1 $269 31.098656491181014 $270 34.806928505987031 $171 $271 forward 7 unknown #
loop $-1 $-1 $178 $107 #
plane-surface $-1 11.287111447113446 -20.89042407827634 5.4558578946624294 0 -0.66913061440640931 0.74314481823134659 1 0 0 forward_v I I I I #
loop $-1 $-1 $272 $69 #
coedge $-1 $176 $176 $177 $273 reversed $108 $-1 #
coedge $-1 $177 $177 $176 $273 forward $110 $-1 #
coedge $-1 $178 $178 $111 $179 forward $173 $-1 #
edge $-1 $274 0 $274 6.2831853071796004 $178 $275 forward 7 unknown #
face $-1 $276 $277 $27 $-1 $278 reversed single #
loop $-1 $-1 $279 $112 #
plane-surface $-1 -50.508133182775353 0 0 1 0 0 0 0 -1 forward_v I I I I #
coedge $-1 $280 $191 $281 $282 forward $113 $-1 #
coedge $-1 $283 $115 $280 $284 forward $73 $-1 #
coedge $-1 $115 $283 $285 $286 forward $73 $-1 #
coedge $-1 $194 $193 $115 $187 reversed $195 $-1 #
edge $-1 $287 -20.890424078276354 $288 20.890424078276354 $186 $289 forward 7 unknown #
coedge $-1 $117 $116 $290 $291 forward $46 $-1 #
coedge $-1 $292 $293 $116 $190 reversed $277 $-1 #
edge $-1 $197 -50.508133182775353 $294 50.508133182775353 $189 $295 forward 7 unknown #
coedge $-1 $183 $296 $117 $192 reversed $113 $-1 #
edge $-1 $297 -50.508133182775353 $196 50.508133182775353 $191 $298 forward 7 unknown #
coedge $-1 $186 $118 $296 $299 forward $195 $-1 #
coedge $-1 $118 $186 $292 $300 reversed $195 $-1 #
loop $-1 $-1 $193 $276 #
vertex $-1 $119 $301 #
vertex $-1 $119 $302 #
straight-curve $-1 50.508133182775353 0 9.1641299094684321 0 1 0 I I #
face $-1 $303 $304 $28 $-1 $305 forward single #
loop $-1 $-1 $306 $120 #
plane-surface $-1 -50.508133182775353 0 0 1 0 0 0 0 -1 forward_v I I I I #
coedge $-1 $209 $307 $211 $308 forward $121 $-1 #
coedge $-1 $123 $211 $309 $310 reversed $77 $-1 #
coedge $-1 $311 $207 $123 $205 forward $312 $-1 #
edge $-1 $213 1.3497563268709705 $313 5.6595011640219646 $204 $314 forward 7 unknown #
coedge $-1 $125 $124 $306 $315 reversed $49 $-1 #
coedge $-1 $204 $316 $124 $208 forward $312 $-1 #
edge $-1 $317 -27.067346046612069 $213 -19.814228225714498 $207 $318 forward 7 unknown #
coedge $-1 $319 $202 $125 $210 forward $121 $-1 #
edge $-1 $212 19.814228225714498 $320 27.067346046612069 $209 $321 forward 7 unknown #
coedge $-1 $203 $126 $202 $308 reversed $77 $-1 #
vertex $-1 $210 $322 #
vertex $-1 $208 $323 #
straight-curve $-1 -43.255015361877781 0 4.854385072317438 0 -1 0 I I #
face $-1 $-1 $324 $29 $-1 $325 reversed single #
loop $-1 $-1 $134 $128 #
plane-surface $-1 0 0 9.1641299094684321 0 0 1 1 0 0 forward_v I I I I #
coedge $-1 $326 $327 $328 $329 reversed $129 $-1 #
coedge $-1 $330 $131 $133 $225 forward $81 $-1 #
coedge $-1 $131 $330 $326 $331 forward $81 $-1 #
coedge $-1 $328 $134 $131 $222 forward $216 $-1 #
edge $-1 $228 -16.955347652383313 $332 7.4828193301265635 $221 $333 forward 7 unknown #
coedge $-1 $334 $335 $132 $224 forward $324 $-1 #
edge $-1 $336 -51.495096362724034 $227 -46.4506075826678 $223 $337 forward 7 unknown #
edge $-1 $228 32.759831110047017 $336 41.780848156552707 $133 $338 forward 7 unknown #
coedge $-1 $134 $328 $334 $339 forward $216 $-1 #
vertex $-1 $224 $340 #
vertex $-1 $135 $341 #
straight-curve $-1 -21.691611813511688 21.370055684484218 9.1641299094684285 0 -1 0 I I #
coedge $-1 $230 $230 $-1 $342 reversed $138 $-1 #
edge $-1 $343 0 $343 6.2831853071796004 $139 $344 forward 7 unknown #
vertex $-1 $142 $345 #
ellipse-curve $-1 -14.709278389937438 17.15104306328092 6.6418855194403168 0 0.55919291073839883 0.82903756765294845 1.5 0 0 1 I I #
coedge $-1 $234 $234 $-1 $346 reversed $145 $-1 #
edge $-1 $347 0 $347 6.2831853071796004 $146 $348 forward 7 unknown #
vertex $-1 $149 $349 #
ellipse-curve $-1 -4.2357782545760614 17.15104306328092 6.6418855194403168 0 0.55919291073839883 0.82903756765294845 1.5 0 0 1 I I #
face $-1 $-1 $350 $32 $-1 $351 forward single #
loop $-1 $-1 $352 $150 #
plane-surface $-1 0 0 9.1641299094684321 0 0 1 1 0 0 forward_v I I I I #
coedge $-1 $242 $153 $155 $248 reversed $95 $-1 #
coedge $-1 $153 $241 $352 $353 reversed $95 $-1 #
coedge $-1 $354 $156 $153 $244 forward $151 $-1 #
edge $-1 $251 -34.806928505987031 $355 -31.098656491181014 $243 $356 forward 7 unknown #
coedge $-1 $155 $154 $357 $358 reversed $61 $-1 #
coedge $-1 $359 $360 $154 $247 forward $350 $-1 #
edge $-1 $361 2.7400933153406992 $250 8.2820188153354195 $246 $362 forward 7 unknown #
edge $-1 $363 -5.5419254999947025 $251 1.8881026247711288e-014 $241 $364 forward 7 unknown #
coedge $-1 $156 $354 $359 $365 forward $151 $-1 #
vertex $-1 $247 $366 #
vertex $-1 $157 $367 #
straight-curve $-1 -17.79723141260656 -20.890424078276354 5.4558578946624143 1 0 0 I I #
coedge $-1 $253 $253 $-1 $368 reversed $160 $-1 #
edge $-1 $369 0 $369 6.2831853071796004 $161 $370 forward 7 unknown #
vertex $-1 $164 $371 #
ellipse-curve $-1 -35.594462825213121 -18.831197469103735 7.3099939020654237 0 -0.66913061440640931 0.74314481823134659 1 0 0 1 I I #
face $-1 $-1 $372 $34 $-1 $373 forward single #
loop $-1 $-1 $171 $165 #
plane-surface $-1 0 -20.890424078276354 0 0 1 0 0 0 1 forward_v I I I I #
coedge $-1 $374 $375 $376 $377 reversed $166 $-1 #
coedge $-1 $378 $168 $170 $267 forward $104 $-1 #
coedge $-1 $168 $378 $374 $379 forward $104 $-1 #
coedge $-1 $376 $171 $168 $264 forward $258 $-1 #
edge $-1 $270 -2.0169968131079372 $380 13.304108260221383 $263 $381 forward 7 unknown #
coedge $-1 $382 $383 $169 $266 forward $372 $-1 #
edge $-1 $384 -27.469779368318282 $269 -23.35132614997304 $265 $385 forward 7 unknown #
edge $-1 $270 -1.8881026247711288e-014 $384 5.5419254999947025 $170 $386 forward 7 unknown #
coedge $-1 $171 $376 $382 $387 reversed $258 $-1 #
vertex $-1 $387 $388 #
vertex $-1 $172 $389 #
straight-curve $-1 3.6265589104487859 -20.890424078276354 40.262786400649446 0 0 -1 I I #
coedge $-1 $272 $272 $-1 $390 reversed $175 $-1 #
edge $-1 $391 0 $391 6.2831853071796004 $176 $392 forward 7 unknown #
vertex $-1 $179 $393 #
ellipse-curve $-1 11.287111447113446 -18.831197469103735 7.3099939020654237 0 -0.66913061440640931 0.74314481823134659 1 0 0 1 I I #
face $-1 $-1 $195 $27 $-1 $394 reversed single #
loop $-1 $-1 $292 $180 #
plane-surface $-1 0 20.890424078276354 0 0 -1 0 0 0 -1 forward_v I I I I #
coedge $-1 $395 $290 $293 $396 forward $181 $-1 #
coedge $-1 $296 $183 $184 $284 reversed $113 $-1 #
coedge $-1 $290 $395 $183 $282 reversed $181 $-1 #
edge $-1 $297 -9.1641299094684321 $397 9.1641299094684321 $281 $398 forward 7 unknown #
coedge $-1 $185 $184 $395 $399 forward $73 $-1 #
edge $-1 $288 -50.508133182775353 $397 50.508133182775353 $280 $400 forward 7 unknown #
coedge $-1 $293 $292 $185 $286 reversed $277 $-1 #
edge $-1 $401 -50.508133182775353 $287 50.508133182775353 $285 $402 forward 7 unknown #
vertex $-1 $187 $403 #
vertex $-1 $299 $404 #
straight-curve $-1 50.508133182775353 0 -9.1641299094684321 0 -1 0 I I #
coedge $-1 $279 $281 $188 $291 reversed $181 $-1 #
edge $-1 $294 -20.890424078276354 $297 20.890424078276354 $290 $405 forward 7 unknown #
coedge $-1 $285 $189 $194 $300 forward $277 $-1 #
coedge $-1 $189 $285 $279 $396 reversed $277 $-1 #
vertex $-1 $190 $406 #
straight-curve $-1 0 20.890424078276354 9.1641299094684321 -1 0 0 I I #
coedge $-1 $191 $280 $193 $299 reversed $113 $-1 #
vertex $-1 $291 $407 #
straight-curve $-1 0 -20.890424078276354 9.1641299094684321 1 0 0 I I #
edge $-1 $196 -9.1641299094684321 $288 9.1641299094684321 $193 $408 forward 7 unknown #
edge $-1 $197 -9.1641299094684321 $287 9.1641299094684321 $194 $409 forward 7 unknown #
point $-1 50.508133182775353 -20.890424078276354 9.1641299094684321 #
point $-1 50.508133182775353 20.890424078276354 9.1641299094684321 #
face $-1 $-1 $312 $28 $-1 $410 reversed single #
loop $-1 $-1 $309 $199 #
plane-surface $-1 0 0 9.1641299094684321 0 0 1 1 0 0 forward_v I I I I #
coedge $-1 $411 $412 $206 $315 forward $200 $-1 #
coedge $-1 $202 $319 $413 $414 reversed $121 $-1 #
edge $-1 $415 -5.6595011640219646 $212 -1.3497563268709705 $202 $416 forward 7 unknown #
coedge $-1 $413 $417 $203 $310 forward $304 $-1 #
edge $-1 $313 -20.890424078276354 $415 20.890424078276354 $309 $418 forward 7 unknown #
coedge $-1 $316 $204 $417 $419 reversed $312 $-1 #
loop $-1 $-1 $204 $303 #
vertex $-1 $205 $420 #
straight-curve $-1 -43.255015361877781 -20.890424078276354 3.5046287454464675 0 0 1 I I #
edge $-1 $320 -20.890424078276354 $317 20.890424078276354 $306 $421 forward 7 unknown #
coedge $-1 $207 $311 $411 $422 forward $312 $-1 #
vertex $-1 $315 $423 #
straight-curve $-1 -23.440787136163284 -20.890424078276354 4.854385072317438 1 0 0 I I #
coedge $-1 $307 $209 $412 $424 reversed $121 $-1 #
vertex $-1 $315 $425 #
straight-curve $-1 -23.440787136163284 20.890424078276354 4.854385072317438 -1 0 0 I I #
point $-1 -43.255015361877781 20.890424078276354 4.854385072317438 #
point $-1 -43.255015361877781 -20.890424078276354 4.854385072317438 #
loop $-1 $-1 $223 $215 #
plane-surface $-1 0 20.890424078276354 0 0 -1 0 0 0 -1 forward_v I I I I #
coedge $-1 $327 $218 $220 $331 reversed $129 $-1 #
coedge $-1 $218 $326 $426 $427 reversed $129 $-1 #
coedge $-1 $226 $221 $218 $329 forward $216 $-1 #
edge $-1 $332 -7.9583936361987284 $428 -0.47963160620786383 $328 $429 forward 7 unknown #
coedge $-1 $220 $219 $335 $430 reversed $81 $-1 #
edge $-1 $431 -41.780848156552707 $332 -32.759831110047017 $326 $432 forward 7 unknown #
vertex $-1 $222 $433 #
straight-curve $-1 -4.7362641611283749 13.411662048285482 9.1641299094684321 1 0 0 I I #
coedge $-1 $426 $223 $226 $339 reversed $324 $-1 #
coedge $-1 $223 $426 $330 $430 forward $324 $-1 #
vertex $-1 $224 $434 #
straight-curve $-1 -21.691611813511688 20.890424078276354 55.614737492136236 0 0 1 I I #
straight-curve $-1 -21.691611813511688 -13.74746865190928 27.483195223193974 0 0.82903756765294845 -0.55919291073839883 I I #
edge $-1 $428 -2.7465551689981886 $227 21.691611813511688 $334 $435 forward 7 unknown #
point $-1 -21.691611813511688 20.890424078276354 9.1641299094684321 #
point $-1 -21.691611813511688 13.411662048285489 9.1641299094684321 #
edge $-1 $436 1 $436 0 $230 $-1 forward 7 unknown #
vertex $-1 $231 $437 #
ellipse-curve $-1 -14.709278389937438 15.15371220325267 3.6807208011511126 0 0.55919291073839883 0.82903756765294845 1.5 0 0 1 I I #
point $-1 -13.209278389937438 17.151043063280913 6.6418855194403044 #
edge $-1 $438 1 $438 0 $234 $-1 forward 7 unknown #
vertex $-1 $235 $439 #
ellipse-curve $-1 -4.2357782545760614 15.15371220325267 3.6807208011511126 0 0.55919291073839883 0.82903756765294845 1.5 0 0 1 I I #
point $-1 -2.7357782545760614 17.151043063280913 6.6418855194403044 #
loop $-1 $-1 $246 $238 #
plane-surface $-1 -43.255015361877781 0 7.009257490892935 -1 0 0 0 0 1 forward_v I I I I #
coedge $-1 $357 $440 $242 $353 forward $239 $-1 #
edge $-1 $355 23.35132614997304 $363 27.469779368318282 $352 $441 forward 7 unknown #
coedge $-1 $249 $243 $440 $442 reversed $151 $-1 #
vertex $-1 $244 $443 #
straight-curve $-1 -27.933910288548461 -20.890424078276354 40.262786400649446 0 0 1 I I #
coedge $-1 $444 $352 $245 $358 forward $239 $-1 #
edge $-1 $363 10.1366788759419 $361 25.457783949271221 $357 $445 forward 7 unknown #
coedge $-1 $360 $246 $249 $365 reversed $350 $-1 #
coedge $-1 $246 $359 $444 $446 reversed $350 $-1 #
vertex $-1 $446 $447 #
straight-curve $-1 -43.255015361877781 -14.73568471116532 10.997610233093248 0 -0.74314481823134659 -0.66913061440640931 I I #
vertex $-1 $358 $448 #
straight-curve $-1 -27.933910288548461 -20.89042407827634 5.4558578946624294 0 -0.74314481823134659 -0.66913061440640931 I I #
edge $-1 $449 -5.6595011640219646 $250 -1.9512291492159495 $249 $450 forward 7 unknown #
point $-1 -43.255015361877781 -20.890424078276354 5.455857894662417 #
point $-1 -27.933910288548461 -20.890424078276354 5.455857894662417 #
edge $-1 $451 1 $451 0 $253 $-1 forward 7 unknown #
vertex $-1 $254 $452 #
ellipse-curve $-1 -35.594462825213121 -17.397325731649573 5.7175180404689332 0 -0.66913061440640931 0.74314481823134659 1 0 0 1 I I #
point $-1 -34.594462825213121 -18.831197469103735 7.3099939020654237 #
loop $-1 $-1 $265 $257 #
plane-surface $-1 0 0 9.1641299094684321 0 0 1 1 0 0 forward_v I I I I #
coedge $-1 $375 $260 $262 $379 reversed $166 $-1 #
coedge $-1 $260 $374 $453 $454 reversed $166 $-1 #
coedge $-1 $268 $263 $260 $377 forward $258 $-1 #
edge $-1 $380 -34.806928505987031 $455 -31.098656491181014 $376 $456 forward 7 unknown #
coedge $-1 $262 $261 $383 $457 reversed $104 $-1 #
edge $-1 $458 -5.5419254999947025 $380 1.8881026247711288e-014 $374 $459 forward 7 unknown #
vertex $-1 $264 $460 #
straight-curve $-1 5.6435557235567231 -20.890424078276354 5.4558578946624143 1 0 0 I I #
coedge $-1 $453 $265 $268 $387 forward $372 $-1 #
coedge $-1 $265 $453 $378 $457 forward $372 $-1 #
vertex $-1 $266 $461 #
straight-curve $-1 3.6265589104487859 -44.241750228249394 9.1641299094684356 0 -1 0 I I #
straight-curve $-1 3.6265589104487859 -20.89042407827634 5.4558578946624294 0 0.74314481823134659 0.66913061440640931 I I #
edge $-1 $269 3.6265589104487859 $455 18.947663983778106 $268 $462 forward 7 unknown #
point $-1 3.6265589104487859 -20.890424078276354 9.1641299094684321 #
point $-1 3.6265589104487859 -20.890424078276354 5.455857894662417 #
edge $-1 $463 1 $463 0 $272 $-1 forward 7 unknown #
vertex $-1 $273 $464 #
ellipse-curve $-1 11.287111447113446 -17.397325731649573 5.7175180404689332 0 -0.66913061440640931 0.74314481823134659 1 0 0 1 I I #
point $-1 12.287111447113446 -18.831197469103735 7.3099939020654237 #
plane-surface $-1 50.508133182775353 0 0 -1 0 0 0 0 1 forward_v I I I I #
coedge $-1 $281 $279 $283 $399 reversed $181 $-1 #
edge $-1 $294 -9.1641299094684321 $401 9.1641299094684321 $293 $465 forward 7 unknown #
vertex $-1 $399 $466 #
straight-curve $-1 -50.508133182775353 -20.890424078276354 0 0 0 -1 I I #
edge $-1 $397 -20.890424078276354 $401 20.890424078276354 $395 $467 forward 7 unknown #
straight-curve $-1 0 -20.890424078276354 -9.1641299094684321 -1 0 0 I I #
vertex $-1 $286 $468 #
straight-curve $-1 0 20.890424078276354 -9.1641299094684321 1 0 0 I I #
point $-1 50.508133182775353 20.890424078276354 -9.1641299094684321 #
point $-1 50.508133182775353 -20.890424078276354 -9.1641299094684321 #
straight-curve $-1 -50.508133182775353 0 9.1641299094684321 0 -1 0 I I #
point $-1 -50.508133182775353 20.890424078276354 9.1641299094684321 #
point $-1 -50.508133182775353 -20.890424078276354 9.1641299094684321 #
straight-curve $-1 50.508133182775353 -20.890424078276354 0 0 0 -1 I I #
straight-curve $-1 50.508133182775353 20.890424078276354 0 0 0 -1 I I #
plane-surface $-1 0 -20.890424078276354 0 0 1 0 0 0 1 forward_v I I I I #
coedge $-1 $469 $306 $316 $422 reversed $200 $-1 #
coedge $-1 $306 $469 $319 $424 forward $200 $-1 #
coedge $-1 $470 $309 $307 $414 forward $304 $-1 #
edge $-1 $415 43.255015361877781 $471 50.508133182775353 $307 $472 forward 7 unknown #
vertex $-1 $414 $473 #
straight-curve $-1 -43.255015361877781 20.890424078276354 3.5046287454464675 0 0 -1 I I #
coedge $-1 $309 $470 $311 $419 forward $304 $-1 #
straight-curve $-1 -43.255015361877781 0 9.1641299094684321 0 1 0 I I #
edge $-1 $474 -50.508133182775353 $313 -43.255015361877781 $311 $475 forward 7 unknown #
point $-1 -43.255015361877781 -20.890424078276354 9.1641299094684321 #
straight-curve $-1 -50.508133182775353 0 4.854385072317438 0 -1 0 I I #
edge $-1 $474 -9.1641299094684321 $317 -4.854385072317438 $411 $476 forward 7 unknown #
point $-1 -50.508133182775353 -20.890424078276354 4.854385072317438 #
edge $-1 $471 -9.1641299094684321 $320 -4.854385072317438 $319 $477 forward 7 unknown #
point $-1 -50.508133182775353 20.890424078276354 4.854385072317438 #
coedge $-1 $335 $334 $327 $427 forward $324 $-1 #
edge $-1 $428 46.4506075826678 $431 51.495096362724034 $426 $478 forward 7 unknown #
vertex $-1 $339 $479 #
straight-curve $-1 2.7465551689981886 21.370055684484218 9.1641299094684285 0 1 0 I I #
edge $-1 $431 -7.4828193301265635 $336 16.955347652383313 $335 $480 forward 7 unknown #
vertex $-1 $430 $481 #
straight-curve $-1 2.7465551689981886 -13.74746865190928 27.483195223193974 0 -0.82903756765294845 0.55919291073839883 I I #
point $-1 2.7465551689981886 13.411662048285489 9.1641299094684321 #
point $-1 -21.691611813511688 20.890424078276354 4.1196411294122015 #
straight-curve $-1 0 20.890424078276354 9.1641299094684321 -1 0 0 I I #
vertex $-1 $342 $482 #
point $-1 -13.209278389937438 15.15371220325267 3.6807208011511126 #
vertex $-1 $346 $483 #
point $-1 -2.7357782545760614 15.15371220325267 3.6807208011511126 #
coedge $-1 $352 $444 $354 $442 forward $239 $-1 #
straight-curve $-1 -27.933910288548461 -44.241750228249394 9.1641299094684356 0 1 0 I I #
edge $-1 $449 -43.255015361877781 $355 -27.933910288548461 $354 $484 forward 7 unknown #
point $-1 -27.933910288548461 -20.890424078276354 9.1641299094684321 #
coedge $-1 $440 $357 $360 $446 forward $239 $-1 #
straight-curve $-1 -17.79723141260656 -16.771970859931113 9.1641299094684321 -1 0 0 I I #
edge $-1 $361 16.771970859931113 $449 20.890424078276354 $444 $485 forward 7 unknown #
point $-1 -43.255015361877781 -16.771970859931113 9.1641299094684321 #
point $-1 -27.933910288548461 -16.771970859931113 9.1641299094684321 #
vertex $-1 $442 $486 #
straight-curve $-1 -43.255015361877781 -20.890424078276354 3.5046287454464675 0 0 -1 I I #
vertex $-1 $368 $487 #
point $-1 -34.594462825213121 -17.397325731649573 5.7175180404689332 #
coedge $-1 $383 $382 $375 $454 forward $372 $-1 #
edge $-1 $455 23.35132614997304 $458 27.469779368318282 $453 $488 forward 7 unknown #
vertex $-1 $454 $489 #
straight-curve $-1 18.947663983778106 -20.890424078276354 40.262786400649446 0 0 1 I I #
edge $-1 $458 -13.304108260221383 $384 2.0169968131079372 $383 $490 forward 7 unknown #
vertex $-1 $457 $491 #
straight-curve $-1 18.947663983778106 -20.89042407827634 5.4558578946624294 0 -0.74314481823134659 -0.66913061440640931 I I #
point $-1 18.947663983778106 -20.890424078276354 5.455857894662417 #
point $-1 3.6265589104487859 -16.771970859931113 9.1641299094684321 #
straight-curve $-1 0 -20.890424078276354 9.1641299094684321 1 0 0 I I #
vertex $-1 $390 $492 #
point $-1 12.287111447113446 -17.397325731649573 5.7175180404689332 #
straight-curve $-1 -50.508133182775353 20.890424078276354 0 0 0 -1 I I #
point $-1 -50.508133182775353 -20.890424078276354 -9.1641299094684321 #
straight-curve $-1 -50.508133182775353 0 -9.1641299094684321 0 1 0 I I #
point $-1 -50.508133182775353 20.890424078276354 -9.1641299094684321 #
coedge $-1 $412 $411 $470 $493 reversed $200 $-1 #
coedge $-1 $417 $413 $469 $493 forward $304 $-1 #
vertex $-1 $414 $494 #
straight-curve $-1 0 20.890424078276354 9.1641299094684321 -1 0 0 I I #
point $-1 -43.255015361877781 20.890424078276354 9.1641299094684321 #
vertex $-1 $493 $495 #
straight-curve $-1 0 -20.890424078276354 9.1641299094684321 1 0 0 I I #
straight-curve $-1 -50.508133182775353 -20.890424078276354 0 0 0 -1 I I #
straight-curve $-1 -50.508133182775353 20.890424078276354 0 0 0 -1 I I #
straight-curve $-1 2.7465551689981886 20.890424078276354 55.614737492136236 0 0 -1 I I #
point $-1 2.7465551689981886 20.890424078276354 9.1641299094684321 #
straight-curve $-1 -4.7362641611283749 20.890424078276354 4.119641129412198 -1 0 0 I I #
point $-1 2.7465551689981886 20.890424078276354 4.1196411294122015 #
point $-1 -14.709278389937438 14.314922837145073 2.4371644496716893 #
point $-1 -4.2357782545760614 14.314922837145073 2.4371644496716893 #
straight-curve $-1 0 -20.890424078276354 9.1641299094684321 1 0 0 I I #
straight-curve $-1 -43.255015361877781 0 9.1641299094684321 0 -1 0 I I #
point $-1 -43.255015361877781 -20.890424078276354 9.1641299094684321 #
point $-1 -35.594462825213121 -16.728195117243168 4.9743732222375865 #
straight-curve $-1 18.947663983778106 -44.241750228249394 9.1641299094684356 0 1 0 I I #
point $-1 18.947663983778106 -20.890424078276354 9.1641299094684321 #
straight-curve $-1 5.6435557235567231 -16.771970859931113 9.1641299094684321 -1 0 0 I I #
point $-1 18.947663983778106 -16.771970859931113 9.1641299094684321 #
point $-1 11.287111447113446 -16.728195117243168 4.9743732222375865 #
edge $-1 $471 -20.890424078276354 $474 20.890424078276354 $469 $496 forward 7 unknown #
point $-1 -50.508133182775353 20.890424078276354 9.1641299094684321 #
point $-1 -50.508133182775353 -20.890424078276354 9.1641299094684321 #
straight-curve $-1 -50.508133182775353 0 9.1641299094684321 0 -1 0 I I #
End-of-ACIS-data 