500 0 5 0           
7 Unknown 11 ACIS 5.0 NT 24 Fri Mar 26 03:03:17 1999 
-1 9.9999999999999995e-007 1e-010 
body $-1 $5 $-1 $6 #
body $-1 $7 $-1 $8 #
body $-1 $9 $-1 $10 #
body $-1 $11 $-1 $12 #
body $-1 $13 $-1 $14 #
lump $-1 $-1 $15 $0 #
transform $-1 1 0 0 0 1 0 0 0 1 44.978179265724663 23.823596480670719 10.403292793449907 1 rotate no_reflect no_shear #
lump $-1 $-1 $16 $1 #
transform $-1 1 0 0 0 1 0 0 0 1 44.978179265724663 23.823596480670719 10.403292793449907 1 rotate no_reflect no_shear #
lump $-1 $-1 $17 $2 #
transform $-1 1 0 0 0 1 0 0 0 1 44.978179265724663 23.823596480670719 10.403292793449907 1 rotate no_reflect no_shear #
lump $-1 $-1 $18 $3 #
transform $-1 1 0 0 0 1 0 0 0 1 44.978179265724663 23.823596480670719 10.403292793449907 1 rotate no_reflect no_shear #
lump $-1 $-1 $19 $4 #
transform $-1 1 0 0 0 1 0 0 0 1 44.978179265724663 23.823596480670719 10.403292793449907 1 rotate no_reflect no_shear #
shell $-1 $-1 $-1 $20 $-1 $5 #
shell $-1 $-1 $-1 $21 $-1 $7 #
shell $-1 $-1 $-1 $22 $-1 $9 #
shell $-1 $-1 $-1 $23 $-1 $11 #
shell $-1 $-1 $-1 $24 $-1 $13 #
face $-1 $25 $26 $15 $-1 $27 forward single #
face $-1 $28 $29 $16 $-1 $30 reversed single #
face $-1 $31 $32 $17 $-1 $33 reversed single #
face $-1 $34 $35 $18 $-1 $36 reversed single #
face $-1 $37 $38 $19 $-1 $39 forward single #
face $-1 $40 $41 $15 $-1 $42 reversed single #
loop $-1 $-1 $43 $20 #
plane-surface $-1 0 0 10.403292793449907 0 0 1 1 0 0 forward_v I I I I #
face $-1 $44 $45 $16 $-1 $46 reversed single #
loop $-1 $-1 $47 $21 #
plane-surface $-1 -42.460301110920909 -13.8601330757099 0 0 -1 0 0 0 -1 forward_v I I I I #
face $-1 $48 $49 $17 $-1 $50 reversed single #
loop $-1 $-1 $51 $22 #
plane-surface $-1 -42.460301110920909 13.8601330757099 0 0 1 0 0 0 1 forward_v I I I I #
face $-1 $52 $53 $18 $-1 $54 reversed single #
loop $-1 $-1 $55 $23 #
plane-surface $-1 36.103936251317393 0.17978188758466374 130.01921762573249 0 -1 0 -0.6560590369687036 0 -0.75470957328743171 forward_v I I I I #
face $-1 $56 $57 $19 $-1 $58 forward single #
loop $-1 $59 $60 $24 #
cone-surface $-1 40.087946005279065 -3.5117835656959961 5.9565963450786352 -0.6560590369687036 0 -0.75470957328743171 0.75470957328743171 0 -0.6560590369687036 1 I I 0 1 1 forward I I I I #
face $-1 $61 $62 $15 $-1 $63 reversed single #
loop $-1 $-1 $64 $25 #
plane-surface $-1 0 0 -10.403292793449907 0 0 1 1 0 0 forward_v I I I I #
coedge $-1 $65 $66 $67 $68 forward $26 $-1 #
face $-1 $69 $70 $16 $-1 $71 forward single #
loop $-1 $-1 $72 $28 #
plane-surface $-1 -39.942422956117156 -18.84186477819031 0 -1 0 0 0 0 1 forward_v I I I I #
coedge $-1 $73 $74 $75 $76 forward $29 $-1 #
face $-1 $77 $78 $17 $-1 $79 reversed single #
loop $-1 $-1 $80 $31 #
plane-surface $-1 -39.942422956117156 18.84186477819031 0 -1 0 0 0 0 1 forward_v I I I I #
coedge $-1 $81 $82 $83 $84 reversed $32 $-1 #
face $-1 $85 $86 $18 $-1 $87 reversed single #
loop $-1 $-1 $88 $34 #
plane-surface $-1 -22.912745696036673 -3.5117835656959961 62.128292663971152 0.6560590369687036 0 0.75470957328743171 0.75470957328743171 0 -0.6560590369687036 forward_v I I I I #
coedge $-1 $89 $90 $91 $92 reversed $35 $-1 #
face $-1 $-1 $93 $19 $-1 $94 forward single #
loop $-1 $95 $96 $37 #
cone-surface $-1 39.063743485149146 -3.5117835656959961 4.7783861484800667 -0.6560590369687036 0 -0.75470957328743171 0.37735478664371586 0 -0.3280295184843518 1 I I -0.70710678118654746 0.70710678118654746 0.5 forward I I I I #
loop $-1 $-1 $97 $24 #
coedge $-1 $60 $60 $98 $99 reversed $38 $-1 #
face $-1 $100 $101 $15 $-1 $102 reversed single #
loop $-1 $-1 $103 $40 #
plane-surface $-1 0 -23.823596480670719 0 0 1 0 0 0 1 forward_v I I I I #
coedge $-1 $104 $105 $106 $107 forward $41 $-1 #
coedge $-1 $108 $43 $109 $110 forward $26 $-1 #
coedge $-1 $43 $108 $111 $112 forward $26 $-1 #
coedge $-1 $113 $114 $43 $68 reversed $115 $-1 #
edge $-1 $116 -23.823596480670719 $117 23.823596480670719 $67 $118 forward 7 unknown #
face $-1 $119 $120 $16 $-1 $121 reversed single #
loop $-1 $-1 $122 $44 #
plane-surface $-1 0 0 10.403292793449907 0 0 1 1 0 0 forward_v I I I I #
coedge $-1 $123 $124 $125 $126 reversed $45 $-1 #
coedge $-1 $127 $47 $128 $129 reversed $29 $-1 #
coedge $-1 $47 $127 $130 $131 reversed $29 $-1 #
coedge $-1 $124 $123 $47 $76 reversed $45 $-1 #
edge $-1 $132 -10.403292793449907 $133 10.403292793449907 $75 $134 forward 7 unknown #
face $-1 $135 $136 $17 $-1 $137 reversed single #
loop $-1 $-1 $138 $48 #
plane-surface $-1 0 0 -10.403292793449907 0 0 1 1 0 0 forward_v I I I I #
coedge $-1 $139 $140 $141 $142 forward $49 $-1 #
coedge $-1 $141 $51 $143 $144 reversed $32 $-1 #
coedge $-1 $51 $141 $145 $146 reversed $32 $-1 #
coedge $-1 $147 $148 $51 $84 forward $136 $-1 #
edge $-1 $149 -10.403292793449907 $150 10.403292793449907 $83 $151 forward 7 unknown #
face $-1 $152 $153 $18 $-1 $154 reversed single #
loop $-1 $-1 $155 $52 #
plane-surface $-1 36.103936251317393 -7.203349018976656 130.01921762573249 0 1 0 0.6560590369687036 0 0.75470957328743171 forward_v I I I I #
coedge $-1 $156 $157 $158 $159 reversed $53 $-1 #
coedge $-1 $90 $55 $160 $161 reversed $35 $-1 #
coedge $-1 $55 $89 $156 $162 reversed $35 $-1 #
coedge $-1 $158 $163 $55 $92 forward $164 $-1 #
edge $-1 $165 -26.926211140065966 $166 -18.538090622465909 $91 $167 forward 7 unknown #
loop $-1 $-1 $98 $56 #
plane-surface $-1 -22.912745696036673 -3.5117835656959961 62.128292663971152 0.6560590369687036 0 0.75470957328743171 0.75470957328743171 0 -0.6560590369687036 forward_v I I I I #
loop $-1 $-1 $168 $37 #
coedge $-1 $96 $96 $97 $169 reversed $57 $-1 #
coedge $-1 $97 $97 $96 $169 forward $59 $-1 #
coedge $-1 $98 $98 $60 $99 forward $93 $-1 #
edge $-1 $170 0 $170 6.2831853071796004 $98 $171 forward 7 unknown #
face $-1 $172 $173 $15 $-1 $174 reversed single #
loop $-1 $-1 $175 $61 #
plane-surface $-1 -44.978179265724663 0 0 1 0 0 0 0 -1 forward_v I I I I #
coedge $-1 $176 $111 $177 $178 forward $62 $-1 #
coedge $-1 $179 $64 $176 $180 forward $41 $-1 #
coedge $-1 $64 $179 $181 $182 forward $41 $-1 #
coedge $-1 $114 $113 $64 $107 reversed $115 $-1 #
edge $-1 $183 -23.823596480670719 $184 23.823596480670719 $106 $185 forward 7 unknown #
coedge $-1 $66 $65 $186 $187 forward $26 $-1 #
coedge $-1 $188 $189 $65 $110 reversed $173 $-1 #
edge $-1 $117 -44.978179265724663 $190 44.978179265724663 $109 $191 forward 7 unknown #
coedge $-1 $103 $192 $66 $112 reversed $62 $-1 #
edge $-1 $193 -44.978179265724663 $116 44.978179265724663 $111 $194 forward 7 unknown #
coedge $-1 $106 $67 $192 $195 forward $115 $-1 #
coedge $-1 $67 $106 $188 $196 reversed $115 $-1 #
loop $-1 $-1 $113 $172 #
vertex $-1 $68 $197 #
vertex $-1 $68 $198 #
straight-curve $-1 44.978179265724663 0 10.403292793449907 0 1 0 I I #
face $-1 $199 $200 $16 $-1 $201 reversed single #
loop $-1 $-1 $202 $69 #
plane-surface $-1 -44.978179265724663 0 0 1 0 0 0 0 -1 forward_v I I I I #
coedge $-1 $130 $203 $124 $204 forward $70 $-1 #
coedge $-1 $75 $72 $205 $206 reversed $45 $-1 #
coedge $-1 $72 $75 $122 $204 reversed $45 $-1 #
coedge $-1 $207 $208 $72 $126 forward $209 $-1 #
edge $-1 $210 -10.403292793449907 $211 10.403292793449907 $125 $212 forward 7 unknown #
coedge $-1 $74 $73 $202 $213 reversed $29 $-1 #
coedge $-1 $205 $214 $73 $129 forward $200 $-1 #
edge $-1 $215 -23.748028710264208 $133 -18.712272400656701 $128 $216 forward 7 unknown #
coedge $-1 $217 $122 $74 $131 forward $70 $-1 #
edge $-1 $132 18.712272400656701 $218 23.748028710264208 $130 $219 forward 7 unknown #
vertex $-1 $131 $220 #
vertex $-1 $129 $221 #
straight-curve $-1 -39.942422956117156 -13.8601330757099 0 0 0 -1 I I #
face $-1 $222 $223 $17 $-1 $224 forward single #
loop $-1 $-1 $83 $77 #
plane-surface $-1 -44.978179265724663 0 0 1 0 0 0 0 -1 forward_v I I I I #
coedge $-1 $143 $225 $139 $226 forward $78 $-1 #
coedge $-1 $227 $80 $138 $226 reversed $49 $-1 #
coedge $-1 $80 $227 $228 $229 reversed $49 $-1 #
coedge $-1 $82 $81 $80 $142 reversed $32 $-1 #
edge $-1 $230 -10.403292793449907 $231 10.403292793449907 $80 $232 forward 7 unknown #
coedge $-1 $233 $138 $81 $144 forward $78 $-1 #
edge $-1 $231 18.712272400656701 $149 23.748028710264208 $143 $234 forward 7 unknown #
coedge $-1 $228 $235 $82 $146 forward $223 $-1 #
edge $-1 $150 -23.748028710264208 $230 -18.712272400656701 $145 $236 forward 7 unknown #
coedge $-1 $237 $83 $235 $238 reversed $136 $-1 #
coedge $-1 $83 $237 $233 $239 reversed $136 $-1 #
vertex $-1 $239 $240 #
vertex $-1 $84 $241 #
straight-curve $-1 -44.978179265724663 13.8601330757099 0 0 0 1 I I #
face $-1 $-1 $164 $18 $-1 $242 forward single #
loop $-1 $-1 $243 $85 #
plane-surface $-1 44.978179265724663 0 0 -1 0 0 0 0 1 forward_v I I I I #
coedge $-1 $244 $245 $246 $247 reversed $86 $-1 #
coedge $-1 $248 $88 $90 $162 forward $53 $-1 #
coedge $-1 $88 $248 $244 $249 forward $53 $-1 #
coedge $-1 $246 $91 $88 $159 forward $164 $-1 #
edge $-1 $166 -1.9356736704326618 $250 5.447457236128658 $158 $251 forward 7 unknown #
coedge $-1 $252 $253 $89 $161 forward $153 $-1 #
edge $-1 $254 -61.897998096249154 $165 -54.60631601941634 $160 $255 forward 7 unknown #
edge $-1 $166 78.841989753718934 $254 89.956358531449325 $90 $256 forward 7 unknown #
coedge $-1 $91 $246 $252 $257 forward $164 $-1 #
loop $-1 $-1 $246 $152 #
vertex $-1 $161 $258 #
vertex $-1 $92 $259 #
straight-curve $-1 18.051968125658696 0.17978188758466374 10.403292793449907 -1 0 0 I I #
coedge $-1 $168 $168 $-1 $260 reversed $95 $-1 #
edge $-1 $261 0 $261 6.2831853071796004 $96 $262 forward 7 unknown #
vertex $-1 $99 $263 #
ellipse-curve $-1 40.784119006924641 -3.5117835656959961 6.7574517550334967 0.6560590369687036 0 0.75470957328743171 0.75470957328743171 0 -0.6560590369687036 1 I I #
face $-1 $-1 $115 $15 $-1 $264 reversed single #
loop $-1 $-1 $188 $100 #
plane-surface $-1 0 23.823596480670719 0 0 -1 0 0 0 -1 forward_v I I I I #
coedge $-1 $265 $186 $189 $266 forward $101 $-1 #
coedge $-1 $192 $103 $104 $180 reversed $62 $-1 #
coedge $-1 $186 $265 $103 $178 reversed $101 $-1 #
edge $-1 $193 -10.403292793449907 $267 10.403292793449907 $177 $268 forward 7 unknown #
coedge $-1 $105 $104 $265 $269 forward $41 $-1 #
edge $-1 $184 -44.978179265724663 $267 44.978179265724663 $176 $270 forward 7 unknown #
coedge $-1 $189 $188 $105 $182 reversed $173 $-1 #
edge $-1 $271 -44.978179265724663 $183 44.978179265724663 $181 $272 forward 7 unknown #
vertex $-1 $107 $273 #
vertex $-1 $195 $274 #
straight-curve $-1 44.978179265724663 0 -10.403292793449907 0 -1 0 I I #
coedge $-1 $175 $177 $108 $187 reversed $101 $-1 #
edge $-1 $190 -23.823596480670719 $193 23.823596480670719 $186 $275 forward 7 unknown #
coedge $-1 $181 $109 $114 $196 forward $173 $-1 #
coedge $-1 $109 $181 $175 $266 reversed $173 $-1 #
vertex $-1 $110 $276 #
straight-curve $-1 0 23.823596480670719 10.403292793449907 -1 0 0 I I #
coedge $-1 $111 $176 $113 $195 reversed $62 $-1 #
vertex $-1 $187 $277 #
straight-curve $-1 0 -23.823596480670719 10.403292793449907 1 0 0 I I #
edge $-1 $116 -10.403292793449907 $184 10.403292793449907 $113 $278 forward 7 unknown #
edge $-1 $117 -10.403292793449907 $183 10.403292793449907 $114 $279 forward 7 unknown #
point $-1 44.978179265724663 -23.823596480670719 10.403292793449907 #
point $-1 44.978179265724663 23.823596480670719 10.403292793449907 #
face $-1 $-1 $209 $16 $-1 $280 reversed single #
loop $-1 $-1 $205 $119 #
plane-surface $-1 0 0 -10.403292793449907 0 0 1 1 0 0 forward_v I I I I #
coedge $-1 $281 $282 $127 $213 forward $120 $-1 #
coedge $-1 $122 $217 $207 $283 forward $70 $-1 #
edge $-1 $211 -14.402664091575565 $132 -4.4392006866147451 $122 $284 forward 7 unknown #
coedge $-1 $285 $128 $123 $206 forward $200 $-1 #
edge $-1 $133 4.4392006866147451 $210 14.402664091575565 $205 $286 forward 7 unknown #
coedge $-1 $287 $125 $203 $283 reversed $209 $-1 #
coedge $-1 $125 $287 $285 $288 reversed $209 $-1 #
loop $-1 $-1 $125 $199 #
vertex $-1 $288 $289 #
vertex $-1 $126 $290 #
straight-curve $-1 -39.942422956117156 -23.823596480670719 0 0 0 1 I I #
edge $-1 $218 -10.403292793449907 $215 10.403292793449907 $202 $291 forward 7 unknown #
coedge $-1 $128 $285 $281 $292 forward $200 $-1 #
vertex $-1 $129 $293 #
straight-curve $-1 -21.230150555460455 -13.8601330757099 -10.403292793449907 1 0 0 I I #
coedge $-1 $203 $130 $282 $294 forward $70 $-1 #
vertex $-1 $294 $295 #
straight-curve $-1 -21.230150555460455 -13.8601330757099 10.403292793449907 -1 0 0 I I #
point $-1 -39.942422956117156 -13.8601330757099 10.403292793449907 #
point $-1 -39.942422956117156 -13.8601330757099 -10.403292793449907 #
face $-1 $-1 $296 $17 $-1 $297 reversed single #
loop $-1 $-1 $228 $135 #
plane-surface $-1 0 0 10.403292793449907 0 0 1 1 0 0 forward_v I I I I #
coedge $-1 $138 $233 $298 $299 forward $78 $-1 #
edge $-1 $300 -14.402664091575565 $231 -4.4392006866147451 $138 $301 forward 7 unknown #
coedge $-1 $140 $139 $302 $303 reversed $49 $-1 #
coedge $-1 $304 $145 $140 $229 forward $223 $-1 #
edge $-1 $230 4.4392006866147451 $305 14.402664091575565 $228 $306 forward 7 unknown #
vertex $-1 $146 $307 #
vertex $-1 $144 $308 #
straight-curve $-1 -39.942422956117156 13.8601330757099 0 0 0 -1 I I #
coedge $-1 $225 $143 $148 $239 forward $78 $-1 #
straight-curve $-1 -21.230150555460455 13.8601330757099 -10.403292793449907 -1 0 0 I I #
coedge $-1 $145 $304 $147 $238 forward $223 $-1 #
straight-curve $-1 -21.230150555460455 13.8601330757099 10.403292793449907 1 0 0 I I #
coedge $-1 $148 $147 $309 $310 forward $136 $-1 #
edge $-1 $311 -23.823596480670719 $150 -13.8601330757099 $147 $312 forward 7 unknown #
edge $-1 $149 13.8601330757099 $313 23.823596480670719 $148 $314 forward 7 unknown #
point $-1 -44.978179265724663 13.8601330757099 -10.403292793449907 #
point $-1 -44.978179265724663 13.8601330757099 10.403292793449907 #
plane-surface $-1 0 0 10.403292793449907 0 0 1 1 0 0 forward_v I I I I #
coedge $-1 $253 $252 $245 $315 forward $153 $-1 #
coedge $-1 $245 $155 $157 $249 reversed $86 $-1 #
coedge $-1 $155 $244 $243 $315 reversed $86 $-1 #
coedge $-1 $163 $158 $155 $247 forward $164 $-1 #
edge $-1 $250 18.538090622465909 $316 26.926211140065966 $246 $317 forward 7 unknown #
coedge $-1 $157 $156 $253 $318 reversed $53 $-1 #
edge $-1 $319 -89.956358531449325 $250 -78.841989753718934 $244 $320 forward 7 unknown #
vertex $-1 $159 $321 #
straight-curve $-1 36.590058748124605 -1.7558917828479981 10.403292793449914 0 -1 0 I I #
coedge $-1 $243 $160 $163 $257 reversed $153 $-1 #
coedge $-1 $160 $243 $248 $318 forward $153 $-1 #
vertex $-1 $161 $322 #
straight-curve $-1 44.978179265724663 0.17978188758466374 65.009608812866247 0 0 1 I I #
straight-curve $-1 -22.912745696036673 0.17978188758466374 62.128292663971152 0.75470957328743171 0 -0.6560590369687036 I I #
edge $-1 $316 -7.203349018976656 $165 0.17978188758466374 $252 $323 forward 7 unknown #
point $-1 44.978179265724663 0.17978188758466374 10.403292793449907 #
point $-1 36.590058748124605 0.17978188758466374 10.403292793449914 #
edge $-1 $324 1 $324 0 $168 $-1 forward 7 unknown #
vertex $-1 $169 $325 #
ellipse-curve $-1 39.391773003633496 -3.5117835656959961 5.1557409351237826 0.6560590369687036 0 0.75470957328743171 0.75470957328743171 0 -0.6560590369687036 1 I I #
point $-1 41.538828580212062 -3.5117835656959961 6.1013927180647833 #
plane-surface $-1 44.978179265724663 0 0 -1 0 0 0 0 1 forward_v I I I I #
coedge $-1 $177 $175 $179 $269 reversed $101 $-1 #
edge $-1 $190 -10.403292793449907 $271 10.403292793449907 $189 $326 forward 7 unknown #
vertex $-1 $269 $327 #
straight-curve $-1 -44.978179265724663 -23.823596480670719 0 0 0 -1 I I #
edge $-1 $267 -23.823596480670719 $271 23.823596480670719 $265 $328 forward 7 unknown #
straight-curve $-1 0 -23.823596480670719 -10.403292793449907 -1 0 0 I I #
vertex $-1 $182 $329 #
straight-curve $-1 0 23.823596480670719 -10.403292793449907 1 0 0 I I #
point $-1 44.978179265724663 23.823596480670719 -10.403292793449907 #
point $-1 44.978179265724663 -23.823596480670719 -10.403292793449907 #
straight-curve $-1 -44.978179265724663 0 10.403292793449907 0 -1 0 I I #
point $-1 -44.978179265724663 23.823596480670719 10.403292793449907 #
point $-1 -44.978179265724663 -23.823596480670719 10.403292793449907 #
straight-curve $-1 44.978179265724663 -23.823596480670719 0 0 0 -1 I I #
straight-curve $-1 44.978179265724663 23.823596480670719 0 0 0 -1 I I #
plane-surface $-1 0 -23.823596480670719 0 0 1 0 0 0 1 forward_v I I I I #
coedge $-1 $330 $202 $214 $292 reversed $120 $-1 #
coedge $-1 $202 $330 $217 $294 reversed $120 $-1 #
edge $-1 $331 -44.978179265724663 $211 -39.942422956117156 $207 $332 forward 7 unknown #
straight-curve $-1 -39.942422956117156 -9.4209323890951548 10.403292793449907 0 1 0 I I #
coedge $-1 $214 $205 $208 $288 forward $200 $-1 #
straight-curve $-1 -39.942422956117156 -9.4209323890951548 -10.403292793449907 0 -1 0 I I #
coedge $-1 $208 $207 $330 $333 forward $209 $-1 #
edge $-1 $210 39.942422956117156 $334 44.978179265724663 $208 $335 forward 7 unknown #
point $-1 -39.942422956117156 -23.823596480670719 -10.403292793449907 #
point $-1 -39.942422956117156 -23.823596480670719 10.403292793449907 #
straight-curve $-1 -44.978179265724663 -13.8601330757099 0 0 0 -1 I I #
edge $-1 $334 -23.823596480670719 $215 -13.8601330757099 $281 $336 forward 7 unknown #
point $-1 -44.978179265724663 -13.8601330757099 -10.403292793449907 #
edge $-1 $218 13.8601330757099 $331 23.823596480670719 $282 $337 forward 7 unknown #
point $-1 -44.978179265724663 -13.8601330757099 10.403292793449907 #
loop $-1 $-1 $302 $222 #
plane-surface $-1 0 23.823596480670719 0 0 -1 0 0 0 -1 forward_v I I I I #
coedge $-1 $309 $302 $225 $299 reversed $296 $-1 #
edge $-1 $313 -44.978179265724663 $300 -39.942422956117156 $298 $338 forward 7 unknown #
vertex $-1 $226 $339 #
straight-curve $-1 -39.942422956117156 9.4209323890951548 -10.403292793449907 0 -1 0 I I #
coedge $-1 $298 $340 $227 $303 forward $296 $-1 #
edge $-1 $305 -10.403292793449907 $300 10.403292793449907 $302 $341 forward 7 unknown #
coedge $-1 $235 $228 $340 $342 forward $223 $-1 #
vertex $-1 $342 $343 #
straight-curve $-1 -39.942422956117156 9.4209323890951548 10.403292793449907 0 1 0 I I #
point $-1 -39.942422956117156 13.8601330757099 10.403292793449907 #
point $-1 -39.942422956117156 13.8601330757099 -10.403292793449907 #
coedge $-1 $340 $298 $237 $310 reversed $296 $-1 #
edge $-1 $311 -10.403292793449907 $313 10.403292793449907 $309 $344 forward 7 unknown #
vertex $-1 $342 $345 #
straight-curve $-1 -44.978179265724663 0 10.403292793449907 0 -1 0 I I #
vertex $-1 $299 $346 #
straight-curve $-1 -44.978179265724663 0 -10.403292793449907 0 1 0 I I #
edge $-1 $316 54.60631601941634 $319 61.897998096249154 $243 $347 forward 7 unknown #
vertex $-1 $257 $348 #
straight-curve $-1 18.051968125658696 -7.203349018976656 10.403292793449907 1 0 0 I I #
edge $-1 $319 -5.447457236128658 $254 1.9356736704326618 $253 $349 forward 7 unknown #
vertex $-1 $318 $350 #
straight-curve $-1 -22.912745696036673 -7.203349018976656 62.128292663971152 -0.75470957328743171 0 0.6560590369687036 I I #
point $-1 36.590058748124605 -7.203349018976656 10.403292793449914 #
point $-1 44.978179265724656 0.17978188758466374 3.1116107166170934 #
straight-curve $-1 44.978179265724663 0 10.403292793449907 0 1 0 I I #
vertex $-1 $260 $351 #
point $-1 40.146482576920931 -3.5117835656959961 4.499681898155079 #
straight-curve $-1 -44.978179265724663 23.823596480670719 0 0 0 -1 I I #
point $-1 -44.978179265724663 -23.823596480670719 -10.403292793449907 #
straight-curve $-1 -44.978179265724663 0 -10.403292793449907 0 1 0 I I #
point $-1 -44.978179265724663 23.823596480670719 -10.403292793449907 #
coedge $-1 $282 $281 $287 $333 reversed $120 $-1 #
vertex $-1 $294 $352 #
straight-curve $-1 0 -23.823596480670719 10.403292793449907 1 0 0 I I #
edge $-1 $331 -10.403292793449907 $334 10.403292793449907 $330 $353 forward 7 unknown #
vertex $-1 $292 $354 #
straight-curve $-1 0 -23.823596480670719 -10.403292793449907 -1 0 0 I I #
straight-curve $-1 -44.978179265724663 0 -10.403292793449907 0 1 0 I I #
straight-curve $-1 -44.978179265724663 0 10.403292793449907 0 -1 0 I I #
straight-curve $-1 0 23.823596480670719 -10.403292793449907 1 0 0 I I #
point $-1 -39.942422956117156 23.823596480670719 -10.403292793449907 #
coedge $-1 $302 $309 $304 $342 reversed $296 $-1 #
straight-curve $-1 -39.942422956117156 23.823596480670719 0 0 0 -1 I I #
edge $-1 $305 39.942422956117156 $311 44.978179265724663 $340 $355 forward 7 unknown #
point $-1 -39.942422956117156 23.823596480670719 10.403292793449907 #
straight-curve $-1 -44.978179265724663 23.823596480670719 0 0 0 -1 I I #
point $-1 -44.978179265724663 23.823596480670719 10.403292793449907 #
point $-1 -44.978179265724663 23.823596480670719 -10.403292793449907 #
straight-curve $-1 44.978179265724663 -7.203349018976656 65.009608812866247 0 0 -1 I I #
point $-1 44.978179265724663 -7.203349018976656 10.403292793449907 #
straight-curve $-1 44.978179265724663 -1.7558917828479981 3.1116107166170863 0 1 0 I I #
point $-1 44.978179265724656 -7.203349018976656 3.1116107166170934 #
point $-1 38.735713966664797 -3.5117835656959961 4.4010313618363508 #
point $-1 -44.978179265724663 -23.823596480670719 10.403292793449907 #
straight-curve $-1 -44.978179265724663 -23.823596480670719 0 0 0 -1 I I #
point $-1 -44.978179265724663 -23.823596480670719 -10.403292793449907 #
straight-curve $-1 0 23.823596480670719 10.403292793449907 -1 0 0 I I #
End-of-ACIS-data 