500 0 8 0           
7 Unknown 11 ACIS 5.0 NT 24 Fri Mar 26 19:44:23 1999 
-1 9.9999999999999995e-007 1e-010 
body $-1 $8 $-1 $9 #
body $-1 $10 $-1 $11 #
body $-1 $12 $-1 $13 #
body $-1 $14 $-1 $15 #
body $-1 $16 $-1 $17 #
body $-1 $18 $-1 $19 #
body $-1 $20 $-1 $21 #
body $-1 $22 $-1 $23 #
lump $-1 $-1 $24 $0 #
transform $-1 1 0 0 0 1 0 0 0 1 44.795068208868678 30.177442355719194 7.7156150646537274 1 rotate no_reflect no_shear #
lump $-1 $-1 $25 $1 #
transform $-1 1 0 0 0 1 0 0 0 1 44.795068208868678 30.177442355719194 7.7156150646537274 1 rotate no_reflect no_shear #
lump $-1 $-1 $26 $2 #
transform $-1 1 0 0 0 1 0 0 0 1 44.795068208868678 30.177442355719194 7.7156150646537274 1 rotate no_reflect no_shear #
lump $-1 $-1 $27 $3 #
transform $-1 1 0 0 0 1 0 0 0 1 44.795068208868678 30.177442355719194 7.7156150646537274 1 rotate no_reflect no_shear #
lump $-1 $-1 $28 $4 #
transform $-1 1 0 0 0 1 0 0 0 1 44.795068208868678 30.177442355719194 7.7156150646537274 1 rotate no_reflect no_shear #
lump $-1 $-1 $29 $5 #
transform $-1 1 0 0 0 1 0 0 0 1 44.795068208868678 30.177442355719194 7.7156150646537274 1 rotate no_reflect no_shear #
lump $-1 $-1 $30 $6 #
transform $-1 1 0 0 0 1 0 0 0 1 44.795068208868678 30.177442355719194 7.7156150646537274 1 rotate no_reflect no_shear #
lump $-1 $-1 $31 $7 #
transform $-1 1 0 0 0 1 0 0 0 1 44.795068208868678 30.177442355719194 7.7156150646537274 1 rotate no_reflect no_shear #
shell $-1 $-1 $-1 $32 $-1 $8 #
shell $-1 $-1 $-1 $33 $-1 $10 #
shell $-1 $-1 $-1 $34 $-1 $12 #
shell $-1 $-1 $-1 $35 $-1 $14 #
shell $-1 $-1 $-1 $36 $-1 $16 #
shell $-1 $-1 $-1 $37 $-1 $18 #
shell $-1 $-1 $-1 $38 $-1 $20 #
shell $-1 $-1 $-1 $39 $-1 $22 #
face $-1 $40 $41 $24 $-1 $42 forward single #
face $-1 $43 $44 $25 $-1 $45 forward single #
face $-1 $46 $47 $26 $-1 $48 reversed single #
face $-1 $49 $50 $27 $-1 $51 forward single #
face $-1 $52 $53 $28 $-1 $54 forward single #
face $-1 $55 $56 $29 $-1 $57 reversed single #
face $-1 $58 $59 $30 $-1 $60 forward single #
face $-1 $61 $62 $31 $-1 $63 forward single #
face $-1 $64 $65 $24 $-1 $66 reversed single #
loop $-1 $-1 $67 $32 #
plane-surface $-1 0 0 7.7156150646537274 0 0 1 1 0 0 forward_v I I I I #
face $-1 $68 $69 $25 $-1 $70 reversed single #
loop $-1 $-1 $71 $33 #
plane-surface $-1 0 -26.939794426287921 0.043360451628895902 0 0 1 1 0 0 forward_v I I I I #
face $-1 $72 $73 $26 $-1 $74 reversed single #
loop $-1 $-1 $75 $34 #
plane-surface $-1 -97.454829818847344 -15.638455385536062 73.004075525265662 0 1 0 -0.5877852598018023 0 0.80901698891910034 forward_v I I I I #
face $-1 $76 $77 $27 $-1 $78 forward single #
loop $-1 $79 $80 $35 #
cone-surface $-1 -39.263094254824729 -13.16235195627559 3.3176345082563232 0.5877852598018023 0 -0.80901698891910034 0.40450849445955017 0 0.29389262990090115 1 I I 0 1 0.5 forward I I I I #
face $-1 $81 $82 $28 $-1 $83 forward single #
loop $-1 $84 $85 $36 #
cone-surface $-1 -39.263094254824729 -9.4481968123848823 3.3176345082563232 0.5877852598018023 0 -0.80901698891910034 0.40450849445955017 0 0.29389262990090115 1 I I 0 1 0.5 forward I I I I #
face $-1 $86 $87 $29 $-1 $88 reversed single #
loop $-1 $-1 $89 $37 #
plane-surface $-1 73.296275505440292 27.037892606684863 127.13747746679552 0 -1 0 -0.84804810408105047 0 -0.52991925155115449 forward_v I I I I #
face $-1 $90 $91 $30 $-1 $92 forward single #
loop $-1 $93 $94 $38 #
cone-surface $-1 41.920788579432127 19.904445919106173 4.6912178642156235 -0.84804810408105047 0 -0.52991925155115449 0.52991925155115449 0 -0.84804810408105047 1 I I 0 1 1 forward I I I I #
face $-1 $95 $96 $31 $-1 $97 forward single #
loop $-1 $98 $99 $39 #
cone-surface $-1 41.920788579432127 24.184513931653385 4.6912178642156235 -0.84804810408105047 0 -0.52991925155115449 0.52991925155115449 0 -0.84804810408105047 1 I I 0 1 1 forward I I I I #
face $-1 $100 $101 $24 $-1 $102 reversed single #
loop $-1 $-1 $103 $40 #
plane-surface $-1 0 0 -7.7156150646537274 0 0 1 1 0 0 forward_v I I I I #
coedge $-1 $104 $105 $106 $107 forward $41 $-1 #
face $-1 $108 $109 $25 $-1 $110 reversed single #
loop $-1 $-1 $111 $43 #
plane-surface $-1 0 -26.939794426287921 -2.9566395483711041 0 0 1 1 0 0 forward_v I I I I #
coedge $-1 $112 $113 $114 $115 reversed $44 $-1 #
face $-1 $116 $117 $26 $-1 $118 reversed single #
loop $-1 $-1 $119 $46 #
plane-surface $-1 -44.795068208868685 -11.305274384330236 0.52413312373634824 -0.5877852598018023 0 0.80901698891910034 0.80901698891910034 0 0.5877852598018023 forward_v I I I I #
coedge $-1 $120 $121 $122 $123 reversed $47 $-1 #
face $-1 $-1 $124 $27 $-1 $125 forward single #
loop $-1 $126 $127 $49 #
cone-surface $-1 -38.533286751663269 -13.16235195627559 2.3131406750878334 0.5877852598018023 0 -0.80901698891910034 0.20225424722977509 0 0.14694631495045057 1 I I -0.70710678118654746 0.70710678118654746 0.25 forward I I I I #
loop $-1 $-1 $128 $35 #
coedge $-1 $80 $80 $129 $130 reversed $50 $-1 #
face $-1 $-1 $131 $28 $-1 $132 forward single #
loop $-1 $133 $134 $52 #
cone-surface $-1 -38.533286751663269 -9.4481968123848823 2.3131406750878334 0.5877852598018023 0 -0.80901698891910034 0.20225424722977509 0 0.14694631495045057 1 I I -0.70710678118654746 0.70710678118654746 0.25 forward I I I I #
loop $-1 $-1 $135 $36 #
coedge $-1 $85 $85 $136 $137 reversed $53 $-1 #
face $-1 $138 $139 $29 $-1 $140 reversed single #
loop $-1 $-1 $141 $55 #
plane-surface $-1 -2.6804698279845525 22.044479925379783 79.661939429942308 0.84804810408105047 0 0.52991925155115449 0.52991925155115449 0 -0.84804810408105047 forward_v I I I I #
coedge $-1 $142 $143 $144 $145 reversed $56 $-1 #
face $-1 $-1 $146 $30 $-1 $147 forward single #
loop $-1 $148 $149 $58 #
cone-surface $-1 39.881728125192261 19.904445919106173 3.4170715220700654 -0.84804810408105047 0 -0.52991925155115449 0.26495962577557725 0 -0.42402405204052523 1 I I -0.70710678118654746 0.70710678118654746 0.5 forward I I I I #
loop $-1 $-1 $150 $38 #
coedge $-1 $94 $94 $151 $152 reversed $59 $-1 #
face $-1 $-1 $153 $31 $-1 $154 forward single #
loop $-1 $155 $156 $61 #
cone-surface $-1 39.881728125192261 24.184513931653385 3.4170715220700654 -0.84804810408105047 0 -0.52991925155115449 0.26495962577557725 0 -0.42402405204052523 1 I I -0.70710678118654746 0.70710678118654746 0.5 forward I I I I #
loop $-1 $-1 $157 $39 #
coedge $-1 $99 $99 $158 $159 reversed $62 $-1 #
face $-1 $160 $161 $24 $-1 $162 reversed single #
loop $-1 $-1 $163 $64 #
plane-surface $-1 0 -30.177442355719194 0 0 1 0 0 0 1 forward_v I I I I #
coedge $-1 $164 $165 $166 $167 forward $65 $-1 #
coedge $-1 $168 $67 $169 $170 forward $41 $-1 #
coedge $-1 $67 $168 $171 $172 forward $41 $-1 #
coedge $-1 $173 $174 $67 $107 reversed $175 $-1 #
edge $-1 $176 -30.177442355719194 $177 30.177442355719194 $106 $178 forward 7 unknown #
face $-1 $179 $180 $25 $-1 $181 reversed single #
loop $-1 $-1 $182 $68 #
plane-surface $-1 0 -23.702146496856649 -1.4566395483711041 0 -1 0 0 0 -1 forward_v I I I I #
coedge $-1 $183 $184 $185 $186 reversed $69 $-1 #
coedge $-1 $187 $71 $188 $189 forward $44 $-1 #
coedge $-1 $71 $187 $190 $191 reversed $44 $-1 #
coedge $-1 $192 $193 $71 $115 forward $194 $-1 #
edge $-1 $195 10.232249283712688 $196 16.707545142575235 $114 $197 forward 7 unknown #
face $-1 $198 $199 $26 $-1 $200 reversed single #
loop $-1 $-1 $201 $72 #
plane-surface $-1 -97.454829818847344 -6.9720933831244096 73.004075525265662 0 -1 0 0.5877852598018023 0 -0.80901698891910034 forward_v I I I I #
coedge $-1 $202 $203 $204 $205 reversed $73 $-1 #
coedge $-1 $121 $75 $206 $207 reversed $47 $-1 #
coedge $-1 $75 $120 $202 $208 reversed $47 $-1 #
coedge $-1 $204 $209 $75 $123 forward $210 $-1 #
edge $-1 $211 3.9323467005549944 $212 13.830572232220874 $122 $213 forward 7 unknown #
loop $-1 $-1 $129 $76 #
plane-surface $-1 -44.795068208868685 -11.305274384330236 0.52413312373634824 -0.5877852598018023 0 0.80901698891910034 0.80901698891910034 0 0.5877852598018023 forward_v I I I I #
loop $-1 $-1 $214 $49 #
coedge $-1 $127 $127 $128 $215 reversed $77 $-1 #
coedge $-1 $128 $128 $127 $215 forward $79 $-1 #
coedge $-1 $129 $129 $80 $130 forward $124 $-1 #
edge $-1 $216 0 $216 6.2831853071796004 $129 $217 forward 7 unknown #
loop $-1 $-1 $136 $81 #
plane-surface $-1 -44.795068208868685 -11.305274384330236 0.52413312373634824 -0.5877852598018023 0 0.80901698891910034 0.80901698891910034 0 0.5877852598018023 forward_v I I I I #
loop $-1 $-1 $218 $52 #
coedge $-1 $134 $134 $135 $219 reversed $82 $-1 #
coedge $-1 $135 $135 $134 $219 forward $84 $-1 #
coedge $-1 $136 $136 $85 $137 forward $131 $-1 #
edge $-1 $220 0 $220 6.2831853071796004 $136 $221 forward 7 unknown #
face $-1 $222 $223 $29 $-1 $224 forward single #
loop $-1 $-1 $225 $86 #
plane-surface $-1 73.296275505440292 17.051067244074702 127.13747746679552 0 1 0 0.84804810408105047 0 0.52991925155115449 forward_v I I I I #
coedge $-1 $226 $227 $228 $229 reversed $87 $-1 #
coedge $-1 $143 $89 $230 $231 reversed $56 $-1 #
coedge $-1 $89 $142 $226 $232 reversed $56 $-1 #
coedge $-1 $228 $233 $89 $145 forward $223 $-1 #
edge $-1 $234 -8.1469304561485316 $235 -5.6284440016740831 $144 $236 forward 7 unknown #
loop $-1 $-1 $151 $90 #
plane-surface $-1 -2.6804698279845525 22.044479925379783 79.661939429942308 0.84804810408105047 0 0.52991925155115449 0.52991925155115449 0 -0.84804810408105047 forward_v I I I I #
loop $-1 $-1 $237 $58 #
coedge $-1 $149 $149 $150 $238 reversed $91 $-1 #
coedge $-1 $150 $150 $149 $238 forward $93 $-1 #
coedge $-1 $151 $151 $94 $152 forward $146 $-1 #
edge $-1 $239 0 $239 6.2831853071796004 $151 $240 forward 7 unknown #
loop $-1 $-1 $158 $95 #
plane-surface $-1 -2.6804698279845525 22.044479925379783 79.661939429942308 0.84804810408105047 0 0.52991925155115449 0.52991925155115449 0 -0.84804810408105047 forward_v I I I I #
loop $-1 $-1 $241 $61 #
coedge $-1 $156 $156 $157 $242 reversed $96 $-1 #
coedge $-1 $157 $157 $156 $242 forward $98 $-1 #
coedge $-1 $158 $158 $99 $159 forward $153 $-1 #
edge $-1 $243 0 $243 6.2831853071796004 $158 $244 forward 7 unknown #
face $-1 $245 $246 $24 $-1 $247 reversed single #
loop $-1 $-1 $248 $100 #
plane-surface $-1 -44.795068208868678 0 0 1 0 0 0 0 -1 forward_v I I I I #
coedge $-1 $249 $171 $250 $251 forward $101 $-1 #
coedge $-1 $252 $103 $249 $253 forward $65 $-1 #
coedge $-1 $103 $252 $254 $255 forward $65 $-1 #
coedge $-1 $174 $173 $103 $167 reversed $175 $-1 #
edge $-1 $256 -30.177442355719194 $257 30.177442355719194 $166 $258 forward 7 unknown #
coedge $-1 $105 $104 $259 $260 forward $41 $-1 #
coedge $-1 $261 $262 $104 $170 reversed $246 $-1 #
edge $-1 $177 -44.795068208868678 $263 44.795068208868678 $169 $264 forward 7 unknown #
coedge $-1 $163 $265 $105 $172 reversed $101 $-1 #
edge $-1 $266 -44.795068208868678 $176 44.795068208868678 $171 $267 forward 7 unknown #
coedge $-1 $166 $106 $265 $268 forward $175 $-1 #
coedge $-1 $106 $166 $261 $269 reversed $175 $-1 #
loop $-1 $-1 $173 $245 #
vertex $-1 $107 $270 #
vertex $-1 $107 $271 #
straight-curve $-1 44.795068208868678 0 7.7156150646537274 0 1 0 I I #
face $-1 $272 $273 $25 $-1 $274 reversed single #
loop $-1 $-1 $275 $108 #
plane-surface $-1 -44.795068208868678 0 0 1 0 0 0 0 -1 forward_v I I I I #
coedge $-1 $276 $188 $193 $277 reversed $109 $-1 #
coedge $-1 $278 $111 $279 $280 reversed $69 $-1 #
coedge $-1 $111 $278 $276 $281 forward $69 $-1 #
coedge $-1 $193 $192 $111 $186 forward $194 $-1 #
edge $-1 $282 -16.707545142575235 $283 -10.232249283712688 $185 $284 forward 7 unknown #
coedge $-1 $113 $112 $275 $285 reversed $44 $-1 #
coedge $-1 $182 $286 $112 $189 reversed $109 $-1 #
edge $-1 $195 -44.795068208868678 $287 44.795068208868678 $188 $288 forward 7 unknown #
coedge $-1 $289 $290 $113 $191 forward $273 $-1 #
edge $-1 $196 -44.795068208868678 $291 44.795068208868678 $190 $292 forward 7 unknown #
coedge $-1 $185 $114 $290 $293 forward $194 $-1 #
coedge $-1 $114 $185 $182 $277 forward $194 $-1 #
loop $-1 $-1 $114 $272 #
vertex $-1 $115 $294 #
vertex $-1 $293 $295 #
straight-curve $-1 44.795068208868678 -13.469897213143961 0.043360451628895902 0 -1 0 I I #
face $-1 $-1 $210 $26 $-1 $296 forward single #
loop $-1 $-1 $297 $116 #
plane-surface $-1 -44.795068208868678 0 0 1 0 0 0 0 -1 forward_v I I I I #
coedge $-1 $298 $299 $300 $301 reversed $117 $-1 #
coedge $-1 $302 $119 $121 $208 forward $73 $-1 #
coedge $-1 $119 $302 $298 $303 forward $73 $-1 #
coedge $-1 $300 $122 $119 $205 forward $210 $-1 #
edge $-1 $212 -9.9858181933709442 $304 -1.3194561909592917 $204 $305 forward 7 unknown #
coedge $-1 $306 $307 $120 $207 forward $199 $-1 #
edge $-1 $308 -35.977904638896476 $211 -28.786422697979106 $206 $309 forward 7 unknown #
edge $-1 $212 -12.234879696272587 $308 -8.7502459990790685e-015 $121 $310 forward 7 unknown #
coedge $-1 $122 $300 $306 $311 forward $210 $-1 #
loop $-1 $-1 $300 $198 #
vertex $-1 $207 $312 #
vertex $-1 $123 $313 #
straight-curve $-1 -48.727414909423672 -15.638455385536062 7.7156150646537256 1 0 0 I I #
coedge $-1 $214 $214 $-1 $314 reversed $126 $-1 #
edge $-1 $315 0 $315 6.2831853071796004 $127 $316 forward 7 unknown #
vertex $-1 $130 $317 #
ellipse-curve $-1 -39.845955443035734 -13.16235195627559 4.1198740941950405 -0.5877852598018023 0 0.80901698891910034 0.40450849445955017 0 0.29389262990090115 1 I I #
coedge $-1 $218 $218 $-1 $318 reversed $133 $-1 #
edge $-1 $319 0 $319 6.2831853071796004 $134 $320 forward 7 unknown #
vertex $-1 $137 $321 #
ellipse-curve $-1 -39.845955443035734 -9.4481968123848823 4.1198740941950405 -0.5877852598018023 0 0.80901698891910034 0.40450849445955017 0 0.29389262990090115 1 I I #
face $-1 $-1 $322 $29 $-1 $323 reversed single #
loop $-1 $-1 $144 $138 #
plane-surface $-1 0 0 7.7156150646537274 0 0 1 1 0 0 forward_v I I I I #
coedge $-1 $324 $325 $326 $327 reversed $139 $-1 #
coedge $-1 $328 $141 $143 $232 forward $87 $-1 #
coedge $-1 $141 $328 $324 $329 forward $87 $-1 #
coedge $-1 $326 $144 $141 $229 forward $223 $-1 #
edge $-1 $235 -16.015652643994972 $330 -6.0288272813848103 $228 $331 forward 7 unknown #
coedge $-1 $332 $333 $142 $231 forward $322 $-1 #
edge $-1 $334 -59.883544636880323 $234 -55.853123668744033 $230 $335 forward 7 unknown #
edge $-1 $235 84.837551100064076 $334 89.590136417737398 $143 $336 forward 7 unknown #
coedge $-1 $144 $326 $332 $337 forward $223 $-1 #
vertex $-1 $231 $338 #
vertex $-1 $145 $339 #
straight-curve $-1 36.648137752720146 27.037892606684863 7.7156150646537256 -1 0 0 I I #
coedge $-1 $237 $237 $-1 $340 reversed $148 $-1 #
edge $-1 $341 0 $341 6.2831853071796004 $149 $342 forward 7 unknown #
vertex $-1 $152 $343 #
ellipse-curve $-1 43.535824981631436 19.904445919106173 5.7004045805855865 0.84804810408105047 0 0.52991925155115449 0.52991925155115449 0 -0.84804810408105047 1 I I #
coedge $-1 $241 $241 $-1 $344 reversed $155 $-1 #
edge $-1 $345 0 $345 6.2831853071796004 $156 $346 forward 7 unknown #
vertex $-1 $159 $347 #
ellipse-curve $-1 43.535824981631436 24.184513931653385 5.7004045805855865 0.84804810408105047 0 0.52991925155115449 0.52991925155115449 0 -0.84804810408105047 1 I I #
face $-1 $-1 $175 $24 $-1 $348 reversed single #
loop $-1 $-1 $261 $160 #
plane-surface $-1 0 30.177442355719194 0 0 -1 0 0 0 -1 forward_v I I I I #
coedge $-1 $349 $259 $262 $350 forward $161 $-1 #
coedge $-1 $265 $163 $164 $253 reversed $101 $-1 #
coedge $-1 $259 $349 $163 $251 reversed $161 $-1 #
edge $-1 $266 -7.7156150646537274 $351 7.7156150646537274 $250 $352 forward 7 unknown #
coedge $-1 $165 $164 $349 $353 forward $65 $-1 #
edge $-1 $257 -44.795068208868678 $351 44.795068208868678 $249 $354 forward 7 unknown #
coedge $-1 $262 $261 $165 $255 reversed $246 $-1 #
edge $-1 $355 -44.795068208868678 $256 44.795068208868678 $254 $356 forward 7 unknown #
vertex $-1 $167 $357 #
vertex $-1 $268 $358 #
straight-curve $-1 44.795068208868678 0 -7.7156150646537274 0 -1 0 I I #
coedge $-1 $248 $250 $168 $260 reversed $161 $-1 #
edge $-1 $263 -30.177442355719194 $266 30.177442355719194 $259 $359 forward 7 unknown #
coedge $-1 $254 $169 $174 $269 forward $246 $-1 #
coedge $-1 $169 $254 $248 $350 reversed $246 $-1 #
vertex $-1 $170 $360 #
straight-curve $-1 0 30.177442355719194 7.7156150646537274 -1 0 0 I I #
coedge $-1 $171 $249 $173 $268 reversed $101 $-1 #
vertex $-1 $260 $361 #
straight-curve $-1 0 -30.177442355719194 7.7156150646537274 1 0 0 I I #
edge $-1 $176 -7.7156150646537274 $257 7.7156150646537274 $173 $362 forward 7 unknown #
edge $-1 $177 -7.7156150646537274 $256 7.7156150646537274 $174 $363 forward 7 unknown #
point $-1 44.795068208868678 -30.177442355719194 7.7156150646537274 #
point $-1 44.795068208868678 30.177442355719194 7.7156150646537274 #
face $-1 $-1 $194 $25 $-1 $364 reversed single #
loop $-1 $-1 $190 $179 #
plane-surface $-1 0 -30.177442355719194 0 0 1 0 0 0 1 forward_v I I I I #
coedge $-1 $365 $366 $187 $285 forward $180 $-1 #
coedge $-1 $286 $182 $184 $281 reversed $109 $-1 #
edge $-1 $283 -2.228319774185552 $195 0.77168022581444795 $193 $367 forward 7 unknown #
coedge $-1 $184 $183 $368 $369 reversed $69 $-1 #
coedge $-1 $290 $289 $183 $280 forward $273 $-1 #
edge $-1 $370 -44.795068208868678 $282 44.795068208868678 $279 $371 forward 7 unknown #
edge $-1 $372 -44.795068208868678 $283 44.795068208868678 $276 $373 forward 7 unknown #
vertex $-1 $280 $374 #
vertex $-1 $186 $375 #
straight-curve $-1 44.795068208868678 -13.469897213143961 -2.9566395483711041 0 1 0 I I #
edge $-1 $291 -16.707545142575235 $287 -10.232249283712688 $275 $376 forward 7 unknown #
coedge $-1 $188 $276 $365 $377 reversed $109 $-1 #
vertex $-1 $285 $378 #
straight-curve $-1 0 -23.702146496856649 0.043360451628895902 -1 0 0 I I #
coedge $-1 $279 $190 $366 $379 forward $273 $-1 #
coedge $-1 $190 $279 $192 $293 reversed $273 $-1 #
vertex $-1 $379 $380 #
straight-curve $-1 0 -30.177442355719194 0.043360451628895902 -1 0 0 I I #
edge $-1 $196 -0.043360451628895902 $282 2.9566395483711041 $192 $381 forward 7 unknown #
point $-1 44.795068208868678 -23.702146496856649 0.043360451628895902 #
point $-1 44.795068208868678 -30.177442355719194 0.043360451628895902 #
plane-surface $-1 0 0 7.7156150646537274 0 0 1 1 0 0 forward_v I I I I #
coedge $-1 $307 $306 $299 $382 forward $199 $-1 #
coedge $-1 $299 $201 $203 $303 reversed $117 $-1 #
coedge $-1 $201 $298 $297 $382 reversed $117 $-1 #
coedge $-1 $209 $204 $201 $301 forward $210 $-1 #
edge $-1 $304 -13.830572232220874 $383 -3.9323467005549944 $300 $384 forward 7 unknown #
coedge $-1 $203 $202 $307 $385 reversed $73 $-1 #
edge $-1 $386 8.7502459990790685e-015 $304 12.234879696272587 $298 $387 forward 7 unknown #
vertex $-1 $205 $388 #
straight-curve $-1 -34.896842677202798 -5.652637192165118 7.7156150646537274 0 1 0 I I #
coedge $-1 $297 $206 $209 $311 reversed $199 $-1 #
coedge $-1 $206 $297 $302 $385 forward $199 $-1 #
vertex $-1 $207 $389 #
straight-curve $-1 -44.795068208868678 -15.638455385536062 36.502037762632831 0 0 1 I I #
straight-curve $-1 -44.795068208868685 -15.638455385536062 0.52413312373634824 -0.80901698891910034 0 -0.5877852598018023 I I #
edge $-1 $383 6.9720933831244096 $211 15.638455385536062 $306 $390 forward 7 unknown #
point $-1 -44.795068208868678 -15.638455385536062 7.7156150646537274 #
point $-1 -34.896842677202798 -15.638455385536062 7.7156150646537274 #
edge $-1 $391 1 $391 0 $214 $-1 forward 7 unknown #
vertex $-1 $215 $392 #
ellipse-curve $-1 -38.680233066613717 -13.16235195627559 2.5153949223176086 -0.5877852598018023 0 0.80901698891910034 0.40450849445955017 0 0.29389262990090115 1 I I #
point $-1 -39.441446948576186 -13.16235195627559 4.4137667240959395 #
edge $-1 $393 1 $393 0 $218 $-1 forward 7 unknown #
vertex $-1 $219 $394 #
ellipse-curve $-1 -38.680233066613717 -9.4481968123848823 2.5153949223176086 -0.5877852598018023 0 0.80901698891910034 0.40450849445955017 0 0.29389262990090115 1 I I #
point $-1 -39.441446948576186 -9.4481968123848823 4.4137667240959395 #
loop $-1 $-1 $230 $222 #
plane-surface $-1 44.795068208868678 0 0 -1 0 0 0 0 1 forward_v I I I I #
coedge $-1 $325 $225 $227 $329 reversed $139 $-1 #
coedge $-1 $225 $324 $395 $396 reversed $139 $-1 #
coedge $-1 $233 $228 $225 $327 forward $223 $-1 #
edge $-1 $330 5.6284440016740831 $397 8.1469304561485316 $326 $398 forward 7 unknown #
coedge $-1 $227 $226 $333 $399 reversed $87 $-1 #
edge $-1 $400 -89.590136417737398 $330 -84.837551100064076 $324 $401 forward 7 unknown #
vertex $-1 $229 $402 #
straight-curve $-1 42.276581754394229 11.022239962689891 7.7156150646537256 0 -1 0 I I #
coedge $-1 $395 $230 $233 $337 reversed $322 $-1 #
coedge $-1 $230 $395 $328 $399 forward $322 $-1 #
vertex $-1 $231 $403 #
straight-curve $-1 44.795068208868678 27.037892606684863 63.568738733397758 0 0 1 I I #
straight-curve $-1 -2.6804698279845525 27.037892606684863 79.661939429942308 0.52991925155115449 0 -0.84804810408105047 I I #
edge $-1 $397 17.051067244074702 $234 27.037892606684863 $332 $404 forward 7 unknown #
point $-1 44.795068208868678 27.037892606684863 7.7156150646537274 #
point $-1 42.276581754394229 27.037892606684863 7.7156150646537327 #
edge $-1 $405 1 $405 0 $237 $-1 forward 7 unknown #
vertex $-1 $238 $406 #
ellipse-curve $-1 40.305752177232783 19.904445919106173 3.6820311478456427 0.84804810408105047 0 0.52991925155115449 0.52991925155115449 0 -0.84804810408105047 1 I I #
point $-1 44.06574423318262 19.904445919106173 4.8523564765045535 #
edge $-1 $407 1 $407 0 $241 $-1 forward 7 unknown #
vertex $-1 $242 $408 #
ellipse-curve $-1 40.305752177232783 24.184513931653385 3.6820311478456427 0.84804810408105047 0 0.52991925155115449 0.52991925155115449 0 -0.84804810408105047 1 I I #
point $-1 44.06574423318262 24.184513931653385 4.8523564765045535 #
plane-surface $-1 44.795068208868678 0 0 -1 0 0 0 0 1 forward_v I I I I #
coedge $-1 $250 $248 $252 $353 reversed $161 $-1 #
edge $-1 $263 -7.7156150646537274 $355 7.7156150646537274 $262 $409 forward 7 unknown #
vertex $-1 $353 $410 #
straight-curve $-1 -44.795068208868678 -30.177442355719194 0 0 0 -1 I I #
edge $-1 $351 -30.177442355719194 $355 30.177442355719194 $349 $411 forward 7 unknown #
straight-curve $-1 0 -30.177442355719194 -7.7156150646537274 -1 0 0 I I #
vertex $-1 $255 $412 #
straight-curve $-1 0 30.177442355719194 -7.7156150646537274 1 0 0 I I #
point $-1 44.795068208868678 30.177442355719194 -7.7156150646537274 #
point $-1 44.795068208868678 -30.177442355719194 -7.7156150646537274 #
straight-curve $-1 -44.795068208868678 0 7.7156150646537274 0 -1 0 I I #
point $-1 -44.795068208868678 30.177442355719194 7.7156150646537274 #
point $-1 -44.795068208868678 -30.177442355719194 7.7156150646537274 #
straight-curve $-1 44.795068208868678 -30.177442355719194 0 0 0 -1 I I #
straight-curve $-1 44.795068208868678 30.177442355719194 0 0 0 -1 I I #
plane-surface $-1 44.795068208868678 0 0 -1 0 0 0 0 1 forward_v I I I I #
coedge $-1 $368 $275 $286 $377 forward $180 $-1 #
coedge $-1 $275 $368 $289 $379 reversed $180 $-1 #
straight-curve $-1 44.795068208868678 -23.702146496856649 -0.72831977418555205 0 0 1 I I #
coedge $-1 $366 $365 $278 $369 forward $180 $-1 #
edge $-1 $372 10.232249283712688 $370 16.707545142575235 $368 $413 forward 7 unknown #
vertex $-1 $280 $414 #
straight-curve $-1 0 -30.177442355719194 -2.9566395483711041 1 0 0 I I #
vertex $-1 $369 $415 #
straight-curve $-1 0 -23.702146496856649 -2.9566395483711041 1 0 0 I I #
point $-1 44.795068208868678 -30.177442355719194 -2.9566395483711041 #
point $-1 44.795068208868678 -23.702146496856649 -2.9566395483711041 #
straight-curve $-1 -44.795068208868678 -13.469897213143961 0.043360451628895902 0 1 0 I I #
edge $-1 $287 -0.77168022581444795 $372 2.228319774185552 $365 $416 forward 7 unknown #
point $-1 -44.795068208868678 -23.702146496856649 0.043360451628895902 #
edge $-1 $291 -0.043360451628895902 $370 2.9566395483711041 $366 $417 forward 7 unknown #
point $-1 -44.795068208868678 -30.177442355719194 0.043360451628895902 #
straight-curve $-1 44.795068208868678 -30.177442355719194 0 0 0 -1 I I #
edge $-1 $383 28.786422697979106 $386 35.977904638896476 $297 $418 forward 7 unknown #
vertex $-1 $311 $419 #
straight-curve $-1 -48.727414909423672 -6.9720933831244096 7.7156150646537256 -1 0 0 I I #
edge $-1 $386 1.3194561909592917 $308 9.9858181933709442 $307 $420 forward 7 unknown #
vertex $-1 $385 $421 #
straight-curve $-1 -44.795068208868685 -6.9720933831244096 0.52413312373634824 0.80901698891910034 0 0.5877852598018023 I I #
point $-1 -34.896842677202798 -6.9720933831244096 7.7156150646537274 #
point $-1 -44.795068208868678 -15.638455385536062 0.52413312373635335 #
straight-curve $-1 -44.795068208868678 0 7.7156150646537274 0 -1 0 I I #
vertex $-1 $314 $422 #
point $-1 -38.275724572154168 -13.16235195627559 2.8092875522185095 #
vertex $-1 $318 $423 #
point $-1 -38.275724572154168 -9.4481968123848823 2.8092875522185095 #
coedge $-1 $333 $332 $325 $396 forward $322 $-1 #
edge $-1 $397 55.853123668744033 $400 59.883544636880323 $395 $424 forward 7 unknown #
vertex $-1 $337 $425 #
straight-curve $-1 36.648137752720146 17.051067244074702 7.7156150646537256 1 0 0 I I #
edge $-1 $400 6.0288272813848103 $334 16.015652643994972 $333 $426 forward 7 unknown #
vertex $-1 $399 $427 #
straight-curve $-1 -2.6804698279845525 17.051067244074702 79.661939429942308 -0.52991925155115449 0 0.84804810408105047 I I #
point $-1 42.276581754394229 17.051067244074702 7.7156150646537327 #
point $-1 44.795068208868678 27.037892606684863 3.685194096517435 #
straight-curve $-1 44.795068208868678 0 7.7156150646537274 0 1 0 I I #
vertex $-1 $340 $428 #
point $-1 40.83567142878394 19.904445919106173 2.8339830437645919 #
vertex $-1 $344 $429 #
point $-1 40.83567142878394 24.184513931653385 2.8339830437645919 #
straight-curve $-1 -44.795068208868678 30.177442355719194 0 0 0 -1 I I #
point $-1 -44.795068208868678 -30.177442355719194 -7.7156150646537274 #
straight-curve $-1 -44.795068208868678 0 -7.7156150646537274 0 1 0 I I #
point $-1 -44.795068208868678 30.177442355719194 -7.7156150646537274 #
straight-curve $-1 -44.795068208868678 -13.469897213143961 -2.9566395483711041 0 -1 0 I I #
point $-1 -44.795068208868678 -30.177442355719194 -2.9566395483711041 #
point $-1 -44.795068208868678 -23.702146496856649 -2.9566395483711041 #
straight-curve $-1 -44.795068208868678 -23.702146496856649 -0.72831977418555205 0 0 -1 I I #
straight-curve $-1 -44.795068208868678 -30.177442355719194 0 0 0 -1 I I #
straight-curve $-1 -44.795068208868678 -6.9720933831244096 36.502037762632831 0 0 -1 I I #
point $-1 -44.795068208868678 -6.9720933831244096 7.7156150646537274 #
straight-curve $-1 -44.795068208868678 -5.652637192165118 0.52413312373635812 0 -1 0 I I #
point $-1 -44.795068208868678 -6.9720933831244096 0.52413312373635335 #
point $-1 -38.386340436712821 -13.16235195627559 2.1108864278580581 #
point $-1 -38.386340436712821 -9.4481968123848823 2.1108864278580581 #
straight-curve $-1 44.795068208868678 17.051067244074702 63.568738733397758 0 0 -1 I I #
point $-1 44.795068208868678 17.051067244074702 7.7156150646537274 #
straight-curve $-1 44.79506820886867 11.022239962689891 3.6851940965174492 0 1 0 I I #
point $-1 44.795068208868678 17.051067244074702 3.685194096517435 #
point $-1 39.457704073151739 19.904445919106173 3.1521118962944881 #
point $-1 39.457704073151739 24.184513931653385 3.1521118962944881 #
End-of-ACIS-data 