500 0 5 0           
7 Unknown 11 ACIS 5.0 NT 24 Fri Mar 26 14:49:47 1999 
-1 9.9999999999999995e-007 1e-010 
body $-1 $5 $-1 $6 #
body $-1 $7 $-1 $8 #
body $-1 $9 $-1 $10 #
body $-1 $11 $-1 $12 #
body $-1 $13 $-1 $14 #
lump $-1 $-1 $15 $0 #
transform $-1 1 0 0 0 1 0 0 0 1 74.905850398266551 33.167790259360011 12.051021154020345 1 rotate no_reflect no_shear #
lump $-1 $-1 $16 $1 #
transform $-1 1 0 0 0 1 0 0 0 1 74.905850398266551 33.167790259360011 12.051021154020345 1 rotate no_reflect no_shear #
lump $-1 $-1 $17 $2 #
transform $-1 1 0 0 0 1 0 0 0 1 74.905850398266551 33.167790259360011 12.051021154020345 1 rotate no_reflect no_shear #
lump $-1 $-1 $18 $3 #
transform $-1 1 0 0 0 1 0 0 0 1 74.905850398266551 33.167790259360011 12.051021154020345 1 rotate no_reflect no_shear #
lump $-1 $-1 $19 $4 #
transform $-1 1 0 0 0 1 0 0 0 1 74.905850398266551 33.167790259360011 12.051021154020345 1 rotate no_reflect no_shear #
shell $-1 $-1 $-1 $20 $-1 $5 #
shell $-1 $-1 $-1 $21 $-1 $7 #
shell $-1 $-1 $-1 $22 $-1 $9 #
shell $-1 $-1 $-1 $23 $-1 $11 #
shell $-1 $-1 $-1 $24 $-1 $13 #
face $-1 $25 $26 $15 $-1 $27 forward single #
face $-1 $28 $29 $16 $-1 $30 forward single #
face $-1 $31 $32 $17 $-1 $33 reversed single #
face $-1 $34 $35 $18 $-1 $36 forward single #
face $-1 $37 $38 $19 $-1 $39 reversed single #
face $-1 $40 $41 $15 $-1 $42 reversed single #
loop $-1 $-1 $43 $20 #
plane-surface $-1 0 0 12.051021154020345 0 0 1 1 0 0 forward_v I I I I #
face $-1 $44 $45 $16 $-1 $46 forward single #
loop $-1 $-1 $47 $21 #
plane-surface $-1 118.95521748003802 -13.588416870352384 213.48745790965825 0 -1 0 -0.83867057594974714 0 -0.54463902268945019 forward_v I I I I #
face $-1 $48 $49 $17 $-1 $50 reversed single #
loop $-1 $51 $52 $22 #
cone-surface $-1 72.224491527447583 -22.331566635824416 8.6328807414523858 -0.83867057594974714 0 -0.54463902268945019 0.54463902268945019 0 -0.83867057594974714 1 I I 0 1 1 forward I I I I #
face $-1 $53 $54 $18 $-1 $55 forward single #
loop $-1 $-1 $56 $23 #
plane-surface $-1 -200.54851578930612 -31.074716401296449 87.844792518618632 0 1 0 -0.83867057594974714 0 0.54463902268945019 forward_v I I I I #
face $-1 $57 $58 $19 $-1 $59 reversed single #
loop $-1 $60 $61 $24 #
cone-surface $-1 -72.224491527447583 -22.331566635824416 8.6328807414524 0.83867057594974714 0 -0.54463902268945019 0.54463902268945019 0 0.83867057594974714 1 I I 0 1 1 forward I I I I #
face $-1 $62 $63 $15 $-1 $64 reversed single #
loop $-1 $-1 $65 $25 #
plane-surface $-1 0 0 -12.051021154020345 0 0 1 1 0 0 forward_v I I I I #
coedge $-1 $66 $67 $68 $69 forward $26 $-1 #
face $-1 $70 $71 $16 $-1 $72 forward single #
loop $-1 $-1 $73 $28 #
plane-surface $-1 -6.6874479110015983 -22.331566635824416 131.89415960039014 0.83867057594974714 0 0.54463902268945019 0.54463902268945019 0 -0.83867057594974714 forward_v I I I I #
coedge $-1 $74 $75 $76 $77 reversed $29 $-1 #
face $-1 $78 $79 $17 $-1 $80 forward single #
loop $-1 $81 $82 $31 #
cone-surface $-1 71.006925725475554 -22.331566635824416 7.8421842898746252 -0.83867057594974714 0 -0.54463902268945019 0.2723195113447251 0 -0.41933528797487357 1 I I -0.70710678118654746 0.70710678118654746 0.5 forward I I I I #
loop $-1 $-1 $83 $22 #
coedge $-1 $52 $52 $84 $85 reversed $32 $-1 #
face $-1 $86 $87 $18 $-1 $88 forward single #
loop $-1 $-1 $89 $34 #
plane-surface $-1 -74.905850398266509 -22.331566635824416 6.2514942093505113 -0.83867057594974714 0 0.54463902268945019 0.54463902268945019 0 0.83867057594974714 forward_v I I I I #
coedge $-1 $90 $91 $92 $93 reversed $35 $-1 #
face $-1 $94 $95 $19 $-1 $96 forward single #
loop $-1 $97 $98 $37 #
cone-surface $-1 -71.006925725475554 -22.331566635824416 7.8421842898746394 0.83867057594974714 0 -0.54463902268945019 0.2723195113447251 0 0.41933528797487357 1 I I -0.70710678118654746 0.70710678118654746 0.5 forward I I I I #
loop $-1 $-1 $99 $24 #
coedge $-1 $61 $61 $100 $101 reversed $38 $-1 #
face $-1 $102 $103 $15 $-1 $104 reversed single #
loop $-1 $-1 $105 $40 #
plane-surface $-1 0 -33.167790259360011 0 0 1 0 0 0 1 forward_v I I I I #
coedge $-1 $106 $107 $108 $109 forward $41 $-1 #
coedge $-1 $110 $43 $111 $112 forward $26 $-1 #
coedge $-1 $43 $110 $113 $114 forward $26 $-1 #
coedge $-1 $115 $116 $43 $69 reversed $117 $-1 #
edge $-1 $118 -33.167790259360011 $119 33.167790259360011 $68 $120 forward 7 unknown #
face $-1 $121 $122 $16 $-1 $123 forward single #
loop $-1 $-1 $124 $44 #
plane-surface $-1 118.95521748003802 -31.074716401296449 213.48745790965825 0 1 0 0.83867057594974714 0 0.54463902268945019 forward_v I I I I #
coedge $-1 $125 $126 $127 $128 reversed $45 $-1 #
coedge $-1 $75 $47 $126 $129 forward $29 $-1 #
coedge $-1 $47 $74 $130 $131 reversed $29 $-1 #
coedge $-1 $132 $127 $47 $77 forward $122 $-1 #
edge $-1 $133 11.661984944603887 $134 15.428241658247543 $76 $135 forward 7 unknown #
face $-1 $136 $137 $17 $-1 $138 forward single #
loop $-1 $-1 $139 $48 #
plane-surface $-1 118.95521748003802 -13.588416870352384 213.48745790965825 0 -1 0 -0.83867057594974714 0 -0.54463902268945019 forward_v I I I I #
loop $-1 $-1 $140 $31 #
coedge $-1 $82 $82 $83 $141 forward $49 $-1 #
coedge $-1 $83 $83 $82 $141 reversed $51 $-1 #
coedge $-1 $84 $84 $52 $85 forward $137 $-1 #
edge $-1 $142 0 $142 6.2831853071796004 $84 $143 forward 7 unknown #
face $-1 $144 $145 $18 $-1 $146 forward single #
loop $-1 $-1 $147 $53 #
plane-surface $-1 -200.54851578930612 -13.588416870352384 87.844792518618632 0 -1 0 0.83867057594974714 0 -0.54463902268945019 forward_v I I I I #
coedge $-1 $148 $149 $150 $151 reversed $54 $-1 #
coedge $-1 $91 $56 $149 $152 forward $35 $-1 #
coedge $-1 $56 $90 $153 $154 reversed $35 $-1 #
coedge $-1 $155 $150 $56 $93 forward $145 $-1 #
edge $-1 $156 -29.134664210030195 $157 -25.36840749638651 $92 $158 forward 7 unknown #
face $-1 $159 $160 $19 $-1 $161 forward single #
loop $-1 $-1 $162 $57 #
plane-surface $-1 -200.54851578930612 -31.074716401296449 87.844792518618632 0 1 0 -0.83867057594974714 0 0.54463902268945019 forward_v I I I I #
loop $-1 $-1 $163 $37 #
coedge $-1 $98 $98 $99 $164 forward $58 $-1 #
coedge $-1 $99 $99 $98 $164 reversed $60 $-1 #
coedge $-1 $100 $100 $61 $101 forward $160 $-1 #
edge $-1 $165 0 $165 6.2831853071796004 $100 $166 forward 7 unknown #
face $-1 $167 $168 $15 $-1 $169 reversed single #
loop $-1 $-1 $170 $62 #
plane-surface $-1 -74.905850398266551 0 0 1 0 0 0 0 -1 forward_v I I I I #
coedge $-1 $171 $113 $172 $173 forward $63 $-1 #
coedge $-1 $174 $65 $171 $175 forward $41 $-1 #
coedge $-1 $65 $174 $176 $177 forward $41 $-1 #
coedge $-1 $116 $115 $65 $109 reversed $117 $-1 #
edge $-1 $178 -33.167790259360011 $179 33.167790259360011 $108 $180 forward 7 unknown #
coedge $-1 $67 $66 $181 $182 forward $26 $-1 #
coedge $-1 $183 $184 $66 $112 reversed $168 $-1 #
edge $-1 $119 -74.905850398266551 $185 74.905850398266551 $111 $186 forward 7 unknown #
coedge $-1 $105 $187 $67 $114 reversed $63 $-1 #
edge $-1 $188 -74.905850398266551 $118 74.905850398266551 $113 $189 forward 7 unknown #
coedge $-1 $108 $68 $187 $190 forward $117 $-1 #
coedge $-1 $68 $108 $183 $191 reversed $117 $-1 #
loop $-1 $-1 $115 $167 #
vertex $-1 $69 $192 #
vertex $-1 $69 $193 #
straight-curve $-1 74.905850398266551 0 12.051021154020345 0 1 0 I I #
face $-1 $194 $195 $16 $-1 $196 reversed single #
loop $-1 $-1 $197 $70 #
plane-surface $-1 0 0 12.051021154020345 0 0 1 1 0 0 forward_v I I I I #
coedge $-1 $198 $199 $197 $200 reversed $71 $-1 #
coedge $-1 $201 $73 $199 $202 reversed $45 $-1 #
coedge $-1 $73 $201 $74 $129 reversed $45 $-1 #
coedge $-1 $76 $197 $73 $128 forward $122 $-1 #
edge $-1 $203 -19.908933083384241 $133 -2.4226335524401765 $127 $204 forward 7 unknown #
edge $-1 $133 142.89655781789435 $205 149.81170079653316 $74 $206 forward 7 unknown #
coedge $-1 $207 $208 $75 $131 forward $209 $-1 #
edge $-1 $134 94.692707800808776 $205 100.49223474547864 $130 $210 forward 7 unknown #
coedge $-1 $211 $76 $208 $212 forward $122 $-1 #
vertex $-1 $128 $213 #
vertex $-1 $212 $214 #
straight-curve $-1 59.477608740019008 -13.588416870352384 12.051021154020347 1 0 0 I I #
face $-1 $215 $216 $17 $-1 $217 forward single #
loop $-1 $218 $84 $78 #
plane-surface $-1 -6.6874479110015983 -22.331566635824416 131.89415960039014 0.83867057594974714 0 0.54463902268945019 0.54463902268945019 0 -0.83867057594974714 forward_v I I I I #
coedge $-1 $219 $220 $221 $222 reversed $79 $-1 #
coedge $-1 $140 $140 $-1 $223 forward $81 $-1 #
edge $-1 $224 0 $224 6.2831853071796004 $82 $225 forward 7 unknown #
vertex $-1 $85 $226 #
ellipse-curve $-1 73.022722041444723 -22.331566635824416 9.151257681685415 -0.83867057594974714 0 -0.54463902268945019 0.54463902268945019 0 -0.83867057594974714 1 I I #
face $-1 $227 $228 $18 $-1 $229 reversed single #
loop $-1 $-1 $230 $86 #
plane-surface $-1 0 0 12.051021154020345 0 0 1 1 0 0 forward_v I I I I #
coedge $-1 $231 $232 $230 $233 reversed $87 $-1 #
coedge $-1 $234 $89 $232 $235 reversed $54 $-1 #
coedge $-1 $89 $234 $90 $152 reversed $54 $-1 #
coedge $-1 $92 $230 $89 $151 forward $145 $-1 #
edge $-1 $236 2.4226335524401765 $156 19.908933083384241 $150 $237 forward 7 unknown #
edge $-1 $156 -6.915142978638781 $238 7.8341151973915139e-014 $90 $239 forward 7 unknown #
coedge $-1 $240 $241 $91 $154 forward $242 $-1 #
edge $-1 $157 31.871375105288969 $238 37.670902049958869 $153 $243 forward 7 unknown #
coedge $-1 $244 $92 $241 $245 forward $145 $-1 #
vertex $-1 $151 $246 #
vertex $-1 $245 $247 #
straight-curve $-1 -100.27425789465306 -31.074716401296449 12.051021154020347 -1 0 0 I I #
face $-1 $248 $249 $19 $-1 $250 forward single #
loop $-1 $251 $100 $94 #
plane-surface $-1 -74.905850398266509 -22.331566635824416 6.2514942093505113 -0.83867057594974714 0 0.54463902268945019 0.54463902268945019 0 0.83867057594974714 forward_v I I I I #
coedge $-1 $252 $253 $254 $255 reversed $95 $-1 #
coedge $-1 $163 $163 $-1 $256 forward $97 $-1 #
edge $-1 $257 0 $257 6.2831853071796004 $98 $258 forward 7 unknown #
vertex $-1 $101 $259 #
ellipse-curve $-1 -73.022722041444695 -22.331566635824416 9.1512576816854114 0.83867057594974714 0 -0.54463902268945019 0.54463902268945019 0 0.83867057594974714 1 I I #
face $-1 $-1 $117 $15 $-1 $260 reversed single #
loop $-1 $-1 $183 $102 #
plane-surface $-1 0 33.167790259360011 0 0 -1 0 0 0 -1 forward_v I I I I #
coedge $-1 $261 $181 $184 $262 forward $103 $-1 #
coedge $-1 $187 $105 $106 $175 reversed $63 $-1 #
coedge $-1 $181 $261 $105 $173 reversed $103 $-1 #
edge $-1 $188 -12.051021154020345 $263 12.051021154020345 $172 $264 forward 7 unknown #
coedge $-1 $107 $106 $261 $265 forward $41 $-1 #
edge $-1 $179 -74.905850398266551 $263 74.905850398266551 $171 $266 forward 7 unknown #
coedge $-1 $184 $183 $107 $177 reversed $168 $-1 #
edge $-1 $267 -74.905850398266551 $178 74.905850398266551 $176 $268 forward 7 unknown #
vertex $-1 $109 $269 #
vertex $-1 $190 $270 #
straight-curve $-1 74.905850398266551 0 -12.051021154020345 0 -1 0 I I #
coedge $-1 $170 $172 $110 $182 reversed $103 $-1 #
edge $-1 $185 -33.167790259360011 $188 33.167790259360011 $181 $271 forward 7 unknown #
coedge $-1 $176 $111 $116 $191 forward $168 $-1 #
coedge $-1 $111 $176 $170 $262 reversed $168 $-1 #
vertex $-1 $112 $272 #
straight-curve $-1 0 33.167790259360011 12.051021154020345 -1 0 0 I I #
coedge $-1 $113 $171 $115 $190 reversed $63 $-1 #
vertex $-1 $182 $273 #
straight-curve $-1 0 -33.167790259360011 12.051021154020345 1 0 0 I I #
edge $-1 $118 -12.051021154020345 $179 12.051021154020345 $115 $274 forward 7 unknown #
edge $-1 $119 -12.051021154020345 $178 12.051021154020345 $116 $275 forward 7 unknown #
point $-1 74.905850398266551 -33.167790259360011 12.051021154020345 #
point $-1 74.905850398266551 33.167790259360011 12.051021154020345 #
face $-1 $276 $277 $16 $-1 $278 reversed single #
loop $-1 $-1 $279 $121 #
plane-surface $-1 0 0 -12.051021154020345 0 0 1 1 0 0 forward_v I I I I #
coedge $-1 $127 $280 $124 $200 forward $122 $-1 #
coedge $-1 $199 $124 $281 $282 reversed $71 $-1 #
coedge $-1 $124 $198 $125 $202 forward $71 $-1 #
edge $-1 $283 -15.428241658247543 $203 -11.661984944603887 $197 $284 forward 7 unknown #
coedge $-1 $126 $125 $207 $285 reversed $45 $-1 #
edge $-1 $286 -149.81170079653316 $203 -142.89655781789435 $199 $287 forward 7 unknown #
vertex $-1 $128 $288 #
straight-curve $-1 71.139593684622881 -11.165783317912208 12.051021154020361 0 1 0 I I #
vertex $-1 $285 $289 #
straight-curve $-1 -6.6874479110015983 -13.588416870352384 131.89415960039014 0.54463902268945019 0 -0.83867057594974714 I I #
coedge $-1 $281 $130 $201 $285 forward $209 $-1 #
coedge $-1 $130 $290 $132 $212 reversed $209 $-1 #
loop $-1 $-1 $281 $291 #
straight-curve $-1 74.905850398266551 -13.588416870352384 106.74372895482912 0 0 -1 I I #
coedge $-1 $292 $132 $293 $294 forward $122 $-1 #
edge $-1 $134 -13.588416870352384 $295 33.167790259360011 $208 $296 forward 7 unknown #
point $-1 71.139593684622895 -13.588416870352384 12.051021154020347 #
point $-1 74.905850398266551 -13.588416870352384 12.051021154020345 #
face $-1 $297 $298 $17 $-1 $299 forward single #
loop $-1 $-1 $300 $136 #
plane-surface $-1 118.95521748003802 -31.074716401296449 213.48745790965825 0 1 0 0.83867057594974714 0 0.54463902268945019 forward_v I I I I #
loop $-1 $-1 $301 $78 #
coedge $-1 $220 $139 $302 $303 forward $79 $-1 #
coedge $-1 $139 $219 $304 $305 reversed $79 $-1 #
coedge $-1 $306 $307 $139 $222 forward $298 $-1 #
edge $-1 $308 11.661984944603887 $309 15.428241658247543 $221 $310 forward 7 unknown #
edge $-1 $311 1 $311 0 $140 $-1 forward 7 unknown #
vertex $-1 $141 $312 #
ellipse-curve $-1 71.426261013450429 -22.331566635824416 8.1145038012193496 0.83867057594974714 0 0.54463902268945019 0.54463902268945019 0 -0.83867057594974714 1 I I #
point $-1 73.56736106413419 -22.331566635824416 8.3125871057356733 #
face $-1 $313 $314 $18 $-1 $315 reversed single #
loop $-1 $316 $317 $144 #
cone-surface $-1 72.224491527447583 -22.331566635824416 8.6328807414523858 -0.83867057594974714 0 -0.54463902268945019 0.54463902268945019 0 -0.83867057594974714 1 I I 0 1 1 forward I I I I #
coedge $-1 $150 $318 $147 $233 forward $145 $-1 #
coedge $-1 $232 $147 $319 $320 reversed $87 $-1 #
coedge $-1 $147 $231 $148 $235 forward $87 $-1 #
edge $-1 $321 25.36840749638651 $236 29.134664210030195 $230 $322 forward 7 unknown #
coedge $-1 $149 $148 $240 $323 reversed $54 $-1 #
edge $-1 $324 -7.8341151973915139e-014 $236 6.915142978638781 $232 $325 forward 7 unknown #
vertex $-1 $151 $326 #
straight-curve $-1 -71.139593684622881 -11.165783317912208 12.051021154020345 0 -1 0 I I #
vertex $-1 $323 $327 #
straight-curve $-1 -74.905850398266509 -31.074716401296449 6.2514942093505113 -0.54463902268945019 0 -0.83867057594974714 I I #
coedge $-1 $319 $153 $234 $323 forward $242 $-1 #
coedge $-1 $153 $328 $155 $245 reversed $242 $-1 #
loop $-1 $-1 $319 $329 #
straight-curve $-1 -74.905850398266551 -31.074716401296449 43.922396259309316 0 0 -1 I I #
coedge $-1 $330 $155 $331 $332 forward $145 $-1 #
edge $-1 $157 31.074716401296449 $333 33.167790259360011 $241 $334 forward 7 unknown #
point $-1 -71.139593684622866 -31.074716401296449 12.051021154020345 #
point $-1 -74.905850398266551 -31.074716401296449 12.051021154020345 #
face $-1 $335 $336 $19 $-1 $337 forward single #
loop $-1 $-1 $338 $159 #
plane-surface $-1 -200.54851578930612 -13.588416870352384 87.844792518618632 0 -1 0 0.83867057594974714 0 -0.54463902268945019 forward_v I I I I #
loop $-1 $-1 $339 $94 #
coedge $-1 $253 $162 $340 $341 forward $95 $-1 #
coedge $-1 $162 $252 $342 $343 reversed $95 $-1 #
coedge $-1 $344 $345 $162 $255 forward $336 $-1 #
edge $-1 $346 -29.134664210030195 $347 -25.36840749638651 $254 $348 forward 7 unknown #
edge $-1 $349 1 $349 0 $163 $-1 forward 7 unknown #
vertex $-1 $164 $350 #
ellipse-curve $-1 -71.426261013450429 -22.331566635824416 8.1145038012193638 -0.83867057594974714 0 0.54463902268945019 0.54463902268945019 0 0.83867057594974714 1 I I #
point $-1 -72.478083018755285 -22.331566635824416 9.9899282576351816 #
plane-surface $-1 74.905850398266551 0 0 -1 0 0 0 0 1 forward_v I I I I #
coedge $-1 $172 $170 $174 $265 reversed $103 $-1 #
edge $-1 $185 -12.051021154020345 $267 12.051021154020345 $184 $351 forward 7 unknown #
vertex $-1 $265 $352 #
straight-curve $-1 -74.905850398266551 -33.167790259360011 0 0 0 -1 I I #
edge $-1 $263 -33.167790259360011 $267 33.167790259360011 $261 $353 forward 7 unknown #
straight-curve $-1 0 -33.167790259360011 -12.051021154020345 -1 0 0 I I #
vertex $-1 $177 $354 #
straight-curve $-1 0 33.167790259360011 -12.051021154020345 1 0 0 I I #
point $-1 74.905850398266551 33.167790259360011 -12.051021154020345 #
point $-1 74.905850398266551 -33.167790259360011 -12.051021154020345 #
straight-curve $-1 -74.905850398266551 0 12.051021154020345 0 -1 0 I I #
point $-1 -74.905850398266551 33.167790259360011 12.051021154020345 #
point $-1 -74.905850398266551 -33.167790259360011 12.051021154020345 #
straight-curve $-1 74.905850398266551 -33.167790259360011 0 0 0 -1 I I #
straight-curve $-1 74.905850398266551 33.167790259360011 0 0 0 -1 I I #
face $-1 $355 $356 $16 $-1 $357 reversed single #
loop $-1 $-1 $358 $194 #
plane-surface $-1 0 -33.167790259360011 0 0 1 0 0 0 1 forward_v I I I I #
coedge $-1 $359 $360 $361 $362 forward $195 $-1 #
coedge $-1 $197 $363 $364 $365 forward $122 $-1 #
coedge $-1 $364 $207 $198 $282 forward $209 $-1 #
edge $-1 $286 -100.49223474547864 $283 -94.692707800808776 $281 $366 forward 7 unknown #
vertex $-1 $282 $367 #
straight-curve $-1 59.477608740019008 -31.074716401296449 12.051021154020347 -1 0 0 I I #
edge $-1 $205 2.4226335524401765 $286 19.908933083384241 $207 $368 forward 7 unknown #
vertex $-1 $285 $369 #
straight-curve $-1 -6.6874479110015983 -31.074716401296449 131.89415960039014 -0.54463902268945019 0 0.83867057594974714 I I #
point $-1 71.139593684622895 -31.074716401296449 12.051021154020347 #
point $-1 74.905850398266551 -13.588416870352384 6.2514942093504828 #
coedge $-1 $208 $361 $370 $371 reversed $209 $-1 #
face $-1 $-1 $209 $16 $-1 $372 reversed single #
coedge $-1 $363 $211 $373 $374 forward $122 $-1 #
coedge $-1 $370 $375 $211 $294 reversed $376 $-1 #
edge $-1 $295 -74.905850398266551 $377 74.905850398266551 $293 $378 forward 7 unknown #
vertex $-1 $212 $379 #
straight-curve $-1 74.905850398266551 0 12.051021154020345 0 1 0 I I #
face $-1 $380 $381 $17 $-1 $382 reversed single #
loop $-1 $-1 $383 $215 #
plane-surface $-1 0 0 12.051021154020345 0 0 1 1 0 0 forward_v I I I I #
coedge $-1 $384 $385 $383 $386 reversed $216 $-1 #
coedge $-1 $387 $302 $307 $388 reversed $218 $-1 #
coedge $-1 $301 $389 $219 $303 reversed $218 $-1 #
edge $-1 $308 142.89655781789435 $390 149.81170079653316 $219 $391 forward 7 unknown #
coedge $-1 $392 $393 $220 $305 forward $394 $-1 #
edge $-1 $309 94.692707800808776 $390 100.49223474547864 $304 $395 forward 7 unknown #
coedge $-1 $396 $221 $393 $397 forward $298 $-1 #
coedge $-1 $221 $383 $301 $388 forward $298 $-1 #
vertex $-1 $388 $398 #
vertex $-1 $397 $399 #
straight-curve $-1 59.477608740019008 -13.588416870352384 12.051021154020347 1 0 0 I I #
vertex $-1 $223 $400 #
point $-1 71.970900036139881 -22.331566635824416 7.2758332252696034 #
face $-1 $401 $402 $18 $-1 $403 forward single #
loop $-1 $404 $405 $227 #
cone-surface $-1 71.006925725475554 -22.331566635824416 7.8421842898746252 -0.83867057594974714 0 -0.54463902268945019 0.2723195113447251 0 -0.41933528797487357 1 I I -0.70710678118654746 0.70710678118654746 0.5 forward I I I I #
loop $-1 $-1 $406 $144 #
coedge $-1 $317 $317 $407 $408 reversed $228 $-1 #
coedge $-1 $230 $409 $410 $411 forward $145 $-1 #
coedge $-1 $410 $240 $231 $320 forward $242 $-1 #
edge $-1 $324 -37.670902049958869 $321 -31.871375105288969 $319 $412 forward 7 unknown #
vertex $-1 $320 $413 #
straight-curve $-1 -100.27425789465306 -13.588416870352384 12.051021154020347 1 0 0 I I #
edge $-1 $238 -19.908933083384241 $324 -2.4226335524401765 $240 $414 forward 7 unknown #
vertex $-1 $323 $415 #
straight-curve $-1 -74.905850398266509 -13.588416870352384 6.2514942093505113 0.54463902268945019 0 0.83867057594974714 I I #
point $-1 -71.139593684622866 -13.588416870352384 12.051021154020345 #
point $-1 -74.905850398266551 -31.074716401296449 6.2514942093504455 #
coedge $-1 $241 $416 $417 $418 reversed $242 $-1 #
face $-1 $419 $242 $18 $-1 $420 reversed single #
coedge $-1 $421 $244 $422 $423 forward $145 $-1 #
coedge $-1 $417 $424 $244 $332 reversed $425 $-1 #
edge $-1 $333 -74.905850398266551 $426 74.905850398266551 $331 $427 forward 7 unknown #
vertex $-1 $245 $428 #
straight-curve $-1 -74.905850398266551 0 12.051021154020345 0 -1 0 I I #
face $-1 $429 $430 $19 $-1 $431 reversed single #
loop $-1 $-1 $432 $248 #
plane-surface $-1 0 0 12.051021154020345 0 0 1 1 0 0 forward_v I I I I #
coedge $-1 $433 $434 $432 $435 reversed $249 $-1 #
coedge $-1 $436 $340 $345 $437 reversed $251 $-1 #
coedge $-1 $339 $438 $252 $341 reversed $251 $-1 #
edge $-1 $346 -6.915142978638781 $439 7.8341151973915139e-014 $252 $440 forward 7 unknown #
coedge $-1 $441 $442 $253 $343 forward $443 $-1 #
edge $-1 $347 31.871375105288969 $439 37.670902049958869 $342 $444 forward 7 unknown #
coedge $-1 $445 $254 $442 $446 forward $336 $-1 #
coedge $-1 $254 $432 $339 $437 forward $336 $-1 #
vertex $-1 $437 $447 #
vertex $-1 $446 $448 #
straight-curve $-1 -100.27425789465306 -31.074716401296449 12.051021154020347 -1 0 0 I I #
vertex $-1 $256 $449 #
point $-1 -70.881621990760976 -22.331566635824416 8.9531743771691126 #
straight-curve $-1 -74.905850398266551 33.167790259360011 0 0 0 -1 I I #
point $-1 -74.905850398266551 -33.167790259360011 -12.051021154020345 #
straight-curve $-1 -74.905850398266551 0 -12.051021154020345 0 1 0 I I #
point $-1 -74.905850398266551 33.167790259360011 -12.051021154020345 #
face $-1 $291 $376 $16 $-1 $450 reversed single #
loop $-1 $-1 $451 $276 #
plane-surface $-1 -74.905850398266551 0 0 1 0 0 0 0 -1 forward_v I I I I #
coedge $-1 $452 $453 $454 $455 forward $277 $-1 #
coedge $-1 $456 $279 $452 $457 forward $195 $-1 #
coedge $-1 $279 $456 $458 $459 forward $195 $-1 #
coedge $-1 $290 $460 $279 $362 reversed $209 $-1 #
edge $-1 $461 -33.167790259360011 $462 33.167790259360011 $361 $463 forward 7 unknown #
coedge $-1 $280 $292 $453 $464 forward $122 $-1 #
coedge $-1 $460 $281 $280 $365 reversed $209 $-1 #
edge $-1 $465 -33.167790259360011 $283 -31.074716401296449 $364 $296 forward 7 unknown #
straight-curve $-1 74.905850398266551 -31.074716401296449 106.74372895482912 0 0 1 I I #
point $-1 74.905850398266551 -31.074716401296449 12.051021154020345 #
straight-curve $-1 74.905850398266551 -11.165783317912208 6.2514942093504757 0 -1 0 I I #
point $-1 74.905850398266551 -31.074716401296449 6.2514942093504828 #
coedge $-1 $458 $293 $290 $371 forward $376 $-1 #
edge $-1 $295 -12.051021154020345 $461 12.051021154020345 $290 $466 forward 7 unknown #
plane-surface $-1 74.905850398266551 0 0 -1 0 0 0 0 1 forward_v I I I I #
coedge $-1 $451 $454 $292 $374 reversed $356 $-1 #
edge $-1 $377 -33.167790259360011 $467 33.167790259360011 $373 $468 forward 7 unknown #
coedge $-1 $293 $458 $451 $469 reversed $376 $-1 #
loop $-1 $-1 $370 $355 #
vertex $-1 $294 $470 #
straight-curve $-1 0 33.167790259360011 12.051021154020345 -1 0 0 I I #
point $-1 74.905850398266551 33.167790259360011 12.051021154020345 #
face $-1 $471 $472 $17 $-1 $473 reversed single #
loop $-1 $-1 $474 $297 #
plane-surface $-1 0 0 -12.051021154020345 0 0 1 1 0 0 forward_v I I I I #
coedge $-1 $307 $475 $300 $386 forward $298 $-1 #
coedge $-1 $385 $300 $476 $477 reversed $216 $-1 #
coedge $-1 $300 $384 $387 $478 forward $216 $-1 #
edge $-1 $479 -15.428241658247543 $480 -11.661984944603887 $383 $481 forward 7 unknown #
coedge $-1 $389 $301 $385 $478 reversed $218 $-1 #
edge $-1 $480 -19.908933083384241 $308 -2.4226335524401765 $307 $482 forward 7 unknown #
coedge $-1 $302 $387 $392 $483 reversed $218 $-1 #
vertex $-1 $483 $484 #
straight-curve $-1 -6.6874479110015983 -13.588416870352384 131.89415960039014 0.54463902268945019 0 -0.83867057594974714 I I #
coedge $-1 $476 $304 $389 $483 forward $394 $-1 #
coedge $-1 $304 $485 $306 $397 reversed $394 $-1 #
loop $-1 $-1 $476 $486 #
straight-curve $-1 74.905850398266551 -13.588416870352384 106.74372895482912 0 0 -1 I I #
coedge $-1 $487 $306 $488 $489 forward $298 $-1 #
edge $-1 $309 -13.588416870352384 $490 33.167790259360011 $393 $491 forward 7 unknown #
point $-1 71.139593684622895 -13.588416870352384 12.051021154020347 #
point $-1 74.905850398266551 -13.588416870352384 12.051021154020345 #
point $-1 70.58759043750068 -22.331566635824416 7.5698647785299 #
face $-1 $492 $493 $18 $-1 $494 forward single #
loop $-1 $-1 $495 $313 #
plane-surface $-1 118.95521748003802 -13.588416870352384 213.48745790965825 0 -1 0 -0.83867057594974714 0 -0.54463902268945019 forward_v I I I I #
loop $-1 $-1 $496 $227 #
coedge $-1 $405 $405 $406 $497 forward $314 $-1 #
coedge $-1 $406 $406 $405 $497 reversed $316 $-1 #
coedge $-1 $407 $407 $317 $408 forward $493 $-1 #
edge $-1 $498 0 $498 6.2831853071796004 $407 $499 forward 7 unknown #
coedge $-1 $318 $500 $501 $502 forward $145 $-1 #
coedge $-1 $503 $319 $318 $411 reversed $242 $-1 #
edge $-1 $504 -33.167790259360011 $321 13.588416870352384 $410 $334 forward 7 unknown #
straight-curve $-1 -74.905850398266551 -13.588416870352384 43.922396259309316 0 0 1 I I #
point $-1 -74.905850398266551 -13.588416870352384 12.051021154020345 #
straight-curve $-1 -74.905850398266551 -11.165783317912208 6.2514942093504242 0 1 0 I I #
point $-1 -74.905850398266551 -13.588416870352384 6.2514942093504455 #
coedge $-1 $328 $503 $505 $506 reversed $242 $-1 #
coedge $-1 $507 $331 $328 $418 forward $425 $-1 #
edge $-1 $333 -12.051021154020345 $508 12.051021154020345 $328 $509 forward 7 unknown #
face $-1 $510 $511 $18 $-1 $512 reversed single #
plane-surface $-1 -74.905850398266551 0 0 1 0 0 0 0 -1 forward_v I I I I #
coedge $-1 $513 $330 $514 $515 forward $145 $-1 #
coedge $-1 $516 $517 $330 $423 reversed $518 $-1 #
edge $-1 $426 -33.167790259360011 $519 -31.074716401296449 $422 $520 forward 7 unknown #
coedge $-1 $331 $507 $516 $521 reversed $425 $-1 #
loop $-1 $-1 $417 $522 #
vertex $-1 $423 $523 #
straight-curve $-1 0 -33.167790259360011 12.051021154020345 1 0 0 I I #
point $-1 -74.905850398266551 -33.167790259360011 12.051021154020345 #
face $-1 $524 $525 $19 $-1 $526 reversed single #
loop $-1 $527 $528 $335 #
cone-surface $-1 72.224491527447583 -22.331566635824416 8.6328807414523858 -0.83867057594974714 0 -0.54463902268945019 0.54463902268945019 0 -0.83867057594974714 1 I I 0 1 1 forward I I I I #
coedge $-1 $345 $529 $338 $435 forward $336 $-1 #
coedge $-1 $434 $338 $530 $531 reversed $249 $-1 #
coedge $-1 $338 $433 $436 $532 forward $249 $-1 #
edge $-1 $533 25.36840749638651 $534 29.134664210030195 $432 $535 forward 7 unknown #
coedge $-1 $438 $339 $434 $532 reversed $251 $-1 #
edge $-1 $534 2.4226335524401765 $346 19.908933083384241 $345 $536 forward 7 unknown #
coedge $-1 $340 $436 $441 $537 reversed $251 $-1 #
vertex $-1 $537 $538 #
straight-curve $-1 -74.905850398266509 -31.074716401296449 6.2514942093505113 -0.54463902268945019 0 -0.83867057594974714 I I #
coedge $-1 $530 $342 $438 $537 forward $443 $-1 #
coedge $-1 $342 $539 $344 $446 reversed $443 $-1 #
loop $-1 $-1 $530 $540 #
straight-curve $-1 -74.905850398266551 -31.074716401296449 43.922396259309316 0 0 -1 I I #
coedge $-1 $541 $344 $542 $543 forward $336 $-1 #
edge $-1 $347 31.074716401296449 $544 33.167790259360011 $442 $545 forward 7 unknown #
point $-1 -71.139593684622866 -31.074716401296449 12.051021154020345 #
point $-1 -74.905850398266551 -31.074716401296449 12.051021154020345 #
point $-1 -70.58759043750068 -22.331566635824416 7.5698647785299142 #
plane-surface $-1 0 33.167790259360011 0 0 -1 0 0 0 -1 forward_v I I I I #
coedge $-1 $546 $373 $375 $469 forward $356 $-1 #
coedge $-1 $547 $358 $359 $457 reversed $277 $-1 #
coedge $-1 $358 $547 $363 $464 reversed $277 $-1 #
coedge $-1 $373 $546 $358 $455 reversed $356 $-1 #
edge $-1 $467 -12.051021154020345 $548 12.051021154020345 $454 $549 forward 7 unknown #
coedge $-1 $360 $359 $546 $550 forward $195 $-1 #
edge $-1 $462 -74.905850398266551 $548 74.905850398266551 $452 $551 forward 7 unknown #
coedge $-1 $375 $370 $360 $459 reversed $376 $-1 #
edge $-1 $552 -74.905850398266551 $461 74.905850398266551 $458 $553 forward 7 unknown #
coedge $-1 $361 $364 $547 $554 forward $209 $-1 #
vertex $-1 $362 $555 #
vertex $-1 $554 $556 #
straight-curve $-1 74.905850398266551 0 -12.051021154020345 0 -1 0 I I #
edge $-1 $467 -74.905850398266551 $465 74.905850398266551 $453 $557 forward 7 unknown #
vertex $-1 $365 $558 #
straight-curve $-1 74.905850398266551 33.167790259360011 0 0 0 -1 I I #
vertex $-1 $374 $559 #
straight-curve $-1 -74.905850398266551 0 12.051021154020345 0 -1 0 I I #
edge $-1 $377 -12.051021154020345 $552 12.051021154020345 $375 $560 forward 7 unknown #
point $-1 -74.905850398266551 33.167790259360011 12.051021154020345 #
face $-1 $561 $562 $17 $-1 $563 reversed single #
loop $-1 $-1 $564 $380 #
plane-surface $-1 0 -33.167790259360011 0 0 1 0 0 0 1 forward_v I I I I #
coedge $-1 $565 $566 $567 $568 forward $381 $-1 #
coedge $-1 $383 $569 $570 $571 forward $298 $-1 #
coedge $-1 $570 $392 $384 $477 forward $394 $-1 #
edge $-1 $572 -100.49223474547864 $479 -94.692707800808776 $476 $573 forward 7 unknown #
edge $-1 $572 -149.81170079653316 $480 -142.89655781789435 $385 $574 forward 7 unknown #
vertex $-1 $477 $575 #
vertex $-1 $388 $576 #
straight-curve $-1 59.477608740019008 -31.074716401296449 12.051021154020347 -1 0 0 I I #
straight-curve $-1 71.139593684622881 -11.165783317912208 12.051021154020361 0 1 0 I I #
edge $-1 $390 2.4226335524401765 $572 19.908933083384241 $392 $577 forward 7 unknown #
point $-1 74.905850398266551 -13.588416870352384 6.2514942093504828 #
coedge $-1 $393 $567 $578 $579 reversed $394 $-1 #
face $-1 $-1 $394 $17 $-1 $580 reversed single #
coedge $-1 $569 $396 $581 $582 forward $298 $-1 #
coedge $-1 $578 $583 $396 $489 reversed $584 $-1 #
edge $-1 $490 -74.905850398266551 $585 74.905850398266551 $488 $586 forward 7 unknown #
vertex $-1 $397 $587 #
straight-curve $-1 74.905850398266551 0 12.051021154020345 0 1 0 I I #
face $-1 $588 $589 $18 $-1 $590 forward single #
loop $-1 $591 $407 $401 #
plane-surface $-1 -6.6874479110015983 -22.331566635824416 131.89415960039014 0.83867057594974714 0 0.54463902268945019 0.54463902268945019 0 -0.83867057594974714 forward_v I I I I #
coedge $-1 $592 $593 $594 $595 reversed $402 $-1 #
coedge $-1 $496 $496 $-1 $596 forward $404 $-1 #
edge $-1 $597 0 $597 6.2831853071796004 $405 $598 forward 7 unknown #
vertex $-1 $408 $599 #
ellipse-curve $-1 73.022722041444723 -22.331566635824416 9.151257681685415 -0.83867057594974714 0 -0.54463902268945019 0.54463902268945019 0 -0.83867057594974714 1 I I #
coedge $-1 $409 $594 $600 $601 forward $145 $-1 #
coedge $-1 $602 $603 $409 $502 reversed $511 $-1 #
edge $-1 $604 -74.905850398266551 $504 74.905850398266551 $501 $605 forward 7 unknown #
coedge $-1 $416 $410 $603 $606 forward $242 $-1 #
vertex $-1 $502 $607 #
coedge $-1 $608 $609 $416 $506 forward $610 $-1 #
edge $-1 $508 -33.167790259360011 $611 33.167790259360011 $416 $612 forward 7 unknown #
coedge $-1 $424 $417 $609 $613 reversed $425 $-1 #
vertex $-1 $506 $614 #
straight-curve $-1 -74.905850398266551 -33.167790259360011 0 0 0 -1 I I #
face $-1 $-1 $518 $18 $-1 $615 reversed single #
loop $-1 $-1 $602 $419 #
plane-surface $-1 0 33.167790259360011 0 0 -1 0 0 0 -1 forward_v I I I I #
coedge $-1 $594 $421 $616 $617 forward $145 $-1 #
coedge $-1 $618 $619 $421 $515 reversed $589 $-1 #
edge $-1 $519 -15.428241658247543 $620 -11.661984944603887 $421 $621 forward 7 unknown #
coedge $-1 $622 $422 $424 $521 forward $518 $-1 #
coedge $-1 $422 $623 $618 $624 forward $518 $-1 #
loop $-1 $-1 $517 $510 #
vertex $-1 $624 $625 #
straight-curve $-1 74.905850398266551 0 12.051021154020345 0 1 0 I I #
edge $-1 $426 -12.051021154020345 $626 12.051021154020345 $516 $627 forward 7 unknown #
face $-1 $329 $425 $18 $-1 $628 reversed single #
point $-1 74.905850398266551 -33.167790259360011 12.051021154020345 #
face $-1 $629 $630 $19 $-1 $631 forward single #
loop $-1 $632 $633 $429 #
cone-surface $-1 71.006925725475554 -22.331566635824416 7.8421842898746252 -0.83867057594974714 0 -0.54463902268945019 0.2723195113447251 0 -0.41933528797487357 1 I I -0.70710678118654746 0.70710678118654746 0.5 forward I I I I #
loop $-1 $-1 $634 $335 #
coedge $-1 $528 $528 $635 $636 reversed $430 $-1 #
coedge $-1 $432 $637 $638 $639 forward $336 $-1 #
coedge $-1 $638 $441 $433 $531 forward $443 $-1 #
edge $-1 $640 -37.670902049958869 $533 -31.871375105288969 $530 $641 forward 7 unknown #
edge $-1 $640 -7.8341151973915139e-014 $534 6.915142978638781 $434 $642 forward 7 unknown #
vertex $-1 $531 $643 #
vertex $-1 $437 $644 #
straight-curve $-1 -100.27425789465306 -13.588416870352384 12.051021154020347 1 0 0 I I #
straight-curve $-1 -71.139593684622881 -11.165783317912208 12.051021154020345 0 -1 0 I I #
edge $-1 $439 -19.908933083384241 $640 -2.4226335524401765 $441 $645 forward 7 unknown #
point $-1 -74.905850398266551 -31.074716401296449 6.2514942093504455 #
coedge $-1 $442 $646 $647 $648 reversed $443 $-1 #
face $-1 $649 $443 $19 $-1 $650 reversed single #
coedge $-1 $651 $445 $652 $653 forward $336 $-1 #
coedge $-1 $647 $654 $445 $543 reversed $655 $-1 #
edge $-1 $544 -74.905850398266551 $656 74.905850398266551 $542 $657 forward 7 unknown #
vertex $-1 $446 $658 #
straight-curve $-1 -74.905850398266551 0 12.051021154020345 0 -1 0 I I #
coedge $-1 $454 $451 $456 $550 reversed $356 $-1 #
coedge $-1 $453 $452 $460 $554 reversed $277 $-1 #
vertex $-1 $550 $659 #
straight-curve $-1 -74.905850398266551 -33.167790259360011 0 0 0 -1 I I #
edge $-1 $548 -33.167790259360011 $552 33.167790259360011 $546 $660 forward 7 unknown #
straight-curve $-1 0 -33.167790259360011 -12.051021154020345 -1 0 0 I I #
vertex $-1 $459 $661 #
straight-curve $-1 0 33.167790259360011 -12.051021154020345 1 0 0 I I #
edge $-1 $465 -12.051021154020345 $462 12.051021154020345 $460 $662 forward 7 unknown #
point $-1 74.905850398266551 33.167790259360011 -12.051021154020345 #
point $-1 74.905850398266551 -33.167790259360011 -12.051021154020345 #
straight-curve $-1 0 -33.167790259360011 12.051021154020345 1 0 0 I I #
point $-1 74.905850398266551 -33.167790259360011 12.051021154020345 #
point $-1 -74.905850398266551 -33.167790259360011 12.051021154020345 #
straight-curve $-1 -74.905850398266551 33.167790259360011 0 0 0 -1 I I #
face $-1 $486 $584 $17 $-1 $663 reversed single #
loop $-1 $-1 $664 $471 #
plane-surface $-1 -74.905850398266551 0 0 1 0 0 0 0 -1 forward_v I I I I #
coedge $-1 $665 $666 $667 $668 forward $472 $-1 #
coedge $-1 $669 $474 $665 $670 forward $381 $-1 #
coedge $-1 $474 $669 $671 $672 forward $381 $-1 #
coedge $-1 $485 $673 $474 $568 reversed $394 $-1 #
edge $-1 $674 -33.167790259360011 $675 33.167790259360011 $567 $676 forward 7 unknown #
coedge $-1 $475 $487 $666 $677 forward $298 $-1 #
coedge $-1 $673 $476 $475 $571 reversed $394 $-1 #
edge $-1 $678 -33.167790259360011 $479 -31.074716401296449 $570 $491 forward 7 unknown #
vertex $-1 $483 $679 #
straight-curve $-1 74.905850398266551 -31.074716401296449 106.74372895482912 0 0 1 I I #
straight-curve $-1 -6.6874479110015983 -31.074716401296449 131.89415960039014 -0.54463902268945019 0 0.83867057594974714 I I #
point $-1 74.905850398266551 -31.074716401296449 12.051021154020345 #
point $-1 71.139593684622895 -31.074716401296449 12.051021154020347 #
straight-curve $-1 74.905850398266551 -11.165783317912208 6.2514942093504757 0 -1 0 I I #
coedge $-1 $671 $488 $485 $579 forward $584 $-1 #
edge $-1 $490 -12.051021154020345 $674 12.051021154020345 $485 $680 forward 7 unknown #
plane-surface $-1 74.905850398266551 0 0 -1 0 0 0 0 1 forward_v I I I I #
coedge $-1 $664 $667 $487 $582 reversed $562 $-1 #
edge $-1 $585 -33.167790259360011 $681 33.167790259360011 $581 $682 forward 7 unknown #
coedge $-1 $488 $671 $664 $683 reversed $584 $-1 #
loop $-1 $-1 $578 $561 #
vertex $-1 $489 $684 #
straight-curve $-1 0 33.167790259360011 12.051021154020345 -1 0 0 I I #
point $-1 74.905850398266551 33.167790259360011 12.051021154020345 #
face $-1 $522 $610 $18 $-1 $685 reversed single #
loop $-1 $-1 $514 $492 #
plane-surface $-1 118.95521748003802 -31.074716401296449 213.48745790965825 0 1 0 0.83867057594974714 0 0.54463902268945019 forward_v I I I I #
loop $-1 $-1 $616 $401 #
coedge $-1 $593 $495 $686 $687 forward $402 $-1 #
coedge $-1 $495 $592 $688 $689 reversed $402 $-1 #
coedge $-1 $500 $513 $495 $595 forward $145 $-1 #
edge $-1 $690 11.661984944603887 $691 15.428241658247543 $594 $692 forward 7 unknown #
edge $-1 $693 1 $693 0 $496 $-1 forward 7 unknown #
vertex $-1 $497 $694 #
ellipse-curve $-1 71.426261013450429 -22.331566635824416 8.1145038012193496 0.83867057594974714 0 0.54463902268945019 0.54463902268945019 0 -0.83867057594974714 1 I I #
point $-1 73.56736106413419 -22.331566635824416 8.3125871057356733 #
coedge $-1 $688 $695 $500 $601 reversed $518 $-1 #
edge $-1 $691 -13.588416870352384 $604 33.167790259360011 $600 $520 forward 7 unknown #
coedge $-1 $696 $501 $695 $697 forward $511 $-1 #
coedge $-1 $501 $696 $503 $606 reversed $511 $-1 #
vertex $-1 $601 $698 #
straight-curve $-1 0 33.167790259360011 12.051021154020345 -1 0 0 I I #
edge $-1 $504 -12.051021154020345 $611 12.051021154020345 $603 $699 forward 7 unknown #
point $-1 -74.905850398266551 33.167790259360011 12.051021154020345 #
coedge $-1 $700 $505 $696 $701 forward $610 $-1 #
coedge $-1 $505 $700 $507 $613 forward $610 $-1 #
loop $-1 $-1 $700 $588 #
vertex $-1 $701 $702 #
straight-curve $-1 -74.905850398266551 0 -12.051021154020345 0 1 0 I I #
edge $-1 $626 -74.905850398266551 $508 74.905850398266551 $507 $703 forward 7 unknown #
point $-1 -74.905850398266551 -33.167790259360011 -12.051021154020345 #
plane-surface $-1 74.905850398266551 0 0 -1 0 0 0 0 1 forward_v I I I I #
coedge $-1 $704 $686 $513 $617 reversed $591 $-1 #
edge $-1 $620 -19.908933083384241 $690 -2.4226335524401765 $513 $705 forward 7 unknown #
coedge $-1 $619 $514 $517 $624 reversed $589 $-1 #
coedge $-1 $514 $618 $704 $706 forward $589 $-1 #
vertex $-1 $617 $707 #
straight-curve $-1 59.477608740019008 -31.074716401296449 12.051021154020347 -1 0 0 I I #
coedge $-1 $695 $516 $700 $708 reversed $518 $-1 #
coedge $-1 $517 $688 $709 $710 forward $518 $-1 #
edge $-1 $711 -100.49223474547864 $519 -94.692707800808776 $517 $712 forward 7 unknown #
point $-1 74.905850398266551 -31.074716401296449 12.051021154020345 #
vertex $-1 $521 $713 #
straight-curve $-1 74.905850398266551 -33.167790259360011 0 0 0 -1 I I #
plane-surface $-1 0 -33.167790259360011 0 0 1 0 0 0 1 forward_v I I I I #
face $-1 $714 $715 $19 $-1 $716 forward single #
loop $-1 $-1 $717 $524 #
plane-surface $-1 118.95521748003802 -13.588416870352384 213.48745790965825 0 -1 0 -0.83867057594974714 0 -0.54463902268945019 forward_v I I I I #
loop $-1 $-1 $718 $429 #
coedge $-1 $633 $633 $634 $719 forward $525 $-1 #
coedge $-1 $634 $634 $633 $719 reversed $527 $-1 #
coedge $-1 $635 $635 $528 $636 forward $715 $-1 #
edge $-1 $720 0 $720 6.2831853071796004 $635 $721 forward 7 unknown #
coedge $-1 $529 $722 $723 $724 forward $336 $-1 #
coedge $-1 $725 $530 $529 $639 reversed $443 $-1 #
edge $-1 $726 -33.167790259360011 $533 13.588416870352384 $638 $545 forward 7 unknown #
vertex $-1 $537 $727 #
straight-curve $-1 -74.905850398266551 -13.588416870352384 43.922396259309316 0 0 1 I I #
straight-curve $-1 -74.905850398266509 -13.588416870352384 6.2514942093505113 0.54463902268945019 0 0.83867057594974714 I I #
point $-1 -74.905850398266551 -13.588416870352384 12.051021154020345 #
point $-1 -71.139593684622866 -13.588416870352384 12.051021154020345 #
straight-curve $-1 -74.905850398266551 -11.165783317912208 6.2514942093504242 0 1 0 I I #
coedge $-1 $539 $725 $728 $729 reversed $443 $-1 #
coedge $-1 $730 $542 $539 $648 forward $655 $-1 #
edge $-1 $544 -12.051021154020345 $731 12.051021154020345 $539 $732 forward 7 unknown #
face $-1 $733 $734 $19 $-1 $735 reversed single #
plane-surface $-1 -74.905850398266551 0 0 1 0 0 0 0 -1 forward_v I I I I #
coedge $-1 $736 $541 $737 $738 forward $336 $-1 #
coedge $-1 $739 $740 $541 $653 reversed $741 $-1 #
edge $-1 $656 -33.167790259360011 $742 -31.074716401296449 $652 $743 forward 7 unknown #
coedge $-1 $542 $730 $739 $744 reversed $655 $-1 #
loop $-1 $-1 $647 $745 #
vertex $-1 $653 $746 #
straight-curve $-1 0 -33.167790259360011 12.051021154020345 1 0 0 I I #
point $-1 -74.905850398266551 -33.167790259360011 12.051021154020345 #
point $-1 -74.905850398266551 -33.167790259360011 -12.051021154020345 #
straight-curve $-1 -74.905850398266551 0 -12.051021154020345 0 1 0 I I #
point $-1 -74.905850398266551 33.167790259360011 -12.051021154020345 #
straight-curve $-1 74.905850398266551 -33.167790259360011 0 0 0 -1 I I #
plane-surface $-1 0 33.167790259360011 0 0 -1 0 0 0 -1 forward_v I I I I #
coedge $-1 $747 $581 $583 $683 forward $562 $-1 #
coedge $-1 $748 $564 $565 $670 reversed $472 $-1 #
coedge $-1 $564 $748 $569 $677 reversed $472 $-1 #
coedge $-1 $581 $747 $564 $668 reversed $562 $-1 #
edge $-1 $681 -12.051021154020345 $749 12.051021154020345 $667 $750 forward 7 unknown #
coedge $-1 $566 $565 $747 $751 forward $381 $-1 #
edge $-1 $675 -74.905850398266551 $749 74.905850398266551 $665 $752 forward 7 unknown #
coedge $-1 $583 $578 $566 $672 reversed $584 $-1 #
edge $-1 $753 -74.905850398266551 $674 74.905850398266551 $671 $754 forward 7 unknown #
coedge $-1 $567 $570 $748 $755 forward $394 $-1 #
vertex $-1 $568 $756 #
vertex $-1 $755 $757 #
straight-curve $-1 74.905850398266551 0 -12.051021154020345 0 -1 0 I I #
edge $-1 $681 -74.905850398266551 $678 74.905850398266551 $666 $758 forward 7 unknown #
vertex $-1 $571 $759 #
point $-1 74.905850398266551 -31.074716401296449 6.2514942093504828 #
straight-curve $-1 74.905850398266551 33.167790259360011 0 0 0 -1 I I #
vertex $-1 $582 $760 #
straight-curve $-1 -74.905850398266551 0 12.051021154020345 0 -1 0 I I #
edge $-1 $585 -12.051021154020345 $753 12.051021154020345 $583 $761 forward 7 unknown #
point $-1 -74.905850398266551 33.167790259360011 12.051021154020345 #
plane-surface $-1 0 0 -12.051021154020345 0 0 1 1 0 0 forward_v I I I I #
coedge $-1 $616 $709 $592 $687 reversed $591 $-1 #
edge $-1 $690 142.89655781789435 $762 149.81170079653316 $592 $763 forward 7 unknown #
coedge $-1 $623 $600 $593 $689 forward $518 $-1 #
edge $-1 $691 94.692707800808776 $762 100.49223474547864 $688 $764 forward 7 unknown #
vertex $-1 $617 $765 #
vertex $-1 $601 $766 #
straight-curve $-1 59.477608740019008 -13.588416870352384 12.051021154020347 1 0 0 I I #
vertex $-1 $596 $767 #
point $-1 71.970900036139881 -22.331566635824416 7.2758332252696034 #
coedge $-1 $600 $622 $602 $697 reversed $518 $-1 #
coedge $-1 $603 $602 $608 $701 reversed $511 $-1 #
edge $-1 $604 -12.051021154020345 $768 12.051021154020345 $695 $769 forward 7 unknown #
point $-1 74.905850398266551 33.167790259360011 12.051021154020345 #
straight-curve $-1 -74.905850398266551 33.167790259360011 0 0 0 -1 I I #
coedge $-1 $609 $608 $622 $708 forward $610 $-1 #
edge $-1 $611 -74.905850398266551 $768 74.905850398266551 $696 $770 forward 7 unknown #
point $-1 -74.905850398266551 33.167790259360011 -12.051021154020345 #
straight-curve $-1 0 -33.167790259360011 -12.051021154020345 -1 0 0 I I #
coedge $-1 $709 $616 $619 $706 reversed $591 $-1 #
straight-curve $-1 71.139593684622881 -11.165783317912208 12.051021154020361 0 1 0 I I #
edge $-1 $711 -149.81170079653316 $620 -142.89655781789435 $619 $771 forward 7 unknown #
point $-1 71.139593684622895 -31.074716401296449 12.051021154020347 #
edge $-1 $768 -33.167790259360011 $626 33.167790259360011 $622 $772 forward 7 unknown #
coedge $-1 $686 $704 $623 $710 reversed $591 $-1 #
edge $-1 $762 2.4226335524401765 $711 19.908933083384241 $623 $773 forward 7 unknown #
vertex $-1 $710 $774 #
straight-curve $-1 74.905850398266551 -31.074716401296449 106.74372895482912 0 0 1 I I #
point $-1 74.905850398266551 -33.167790259360011 -12.051021154020345 #
face $-1 $775 $776 $19 $-1 $777 forward single #
loop $-1 $778 $635 $629 #
plane-surface $-1 -6.6874479110015983 -22.331566635824416 131.89415960039014 0.83867057594974714 0 0.54463902268945019 0.54463902268945019 0 -0.83867057594974714 forward_v I I I I #
coedge $-1 $779 $780 $781 $782 reversed $630 $-1 #
coedge $-1 $718 $718 $-1 $783 forward $632 $-1 #
edge $-1 $784 0 $784 6.2831853071796004 $633 $785 forward 7 unknown #
vertex $-1 $636 $786 #
ellipse-curve $-1 73.022722041444723 -22.331566635824416 9.151257681685415 -0.83867057594974714 0 -0.54463902268945019 0.54463902268945019 0 -0.83867057594974714 1 I I #
coedge $-1 $637 $781 $787 $788 forward $336 $-1 #
coedge $-1 $789 $790 $637 $724 reversed $734 $-1 #
edge $-1 $791 -74.905850398266551 $726 74.905850398266551 $723 $792 forward 7 unknown #
coedge $-1 $646 $638 $790 $793 forward $443 $-1 #
vertex $-1 $724 $794 #
point $-1 -74.905850398266551 -13.588416870352384 6.2514942093504455 #
coedge $-1 $795 $796 $646 $729 forward $797 $-1 #
edge $-1 $731 -33.167790259360011 $798 33.167790259360011 $646 $799 forward 7 unknown #
coedge $-1 $654 $647 $796 $800 reversed $655 $-1 #
vertex $-1 $729 $801 #
straight-curve $-1 -74.905850398266551 -33.167790259360011 0 0 0 -1 I I #
face $-1 $-1 $741 $19 $-1 $802 reversed single #
loop $-1 $-1 $789 $649 #
plane-surface $-1 0 33.167790259360011 0 0 -1 0 0 0 -1 forward_v I I I I #
coedge $-1 $781 $651 $803 $804 forward $336 $-1 #
coedge $-1 $805 $806 $651 $738 reversed $776 $-1 #
edge $-1 $742 -15.428241658247543 $807 -11.661984944603887 $651 $808 forward 7 unknown #
coedge $-1 $809 $652 $654 $744 forward $741 $-1 #
coedge $-1 $652 $810 $805 $811 forward $741 $-1 #
loop $-1 $-1 $740 $733 #
vertex $-1 $811 $812 #
straight-curve $-1 74.905850398266551 0 12.051021154020345 0 1 0 I I #
edge $-1 $656 -12.051021154020345 $813 12.051021154020345 $739 $814 forward 7 unknown #
face $-1 $540 $655 $19 $-1 $815 reversed single #
point $-1 74.905850398266551 -33.167790259360011 12.051021154020345 #
coedge $-1 $667 $664 $669 $751 reversed $562 $-1 #
coedge $-1 $666 $665 $673 $755 reversed $472 $-1 #
vertex $-1 $751 $816 #
straight-curve $-1 -74.905850398266551 -33.167790259360011 0 0 0 -1 I I #
edge $-1 $749 -33.167790259360011 $753 33.167790259360011 $747 $817 forward 7 unknown #
straight-curve $-1 0 -33.167790259360011 -12.051021154020345 -1 0 0 I I #
vertex $-1 $672 $818 #
straight-curve $-1 0 33.167790259360011 -12.051021154020345 1 0 0 I I #
edge $-1 $678 -12.051021154020345 $675 12.051021154020345 $673 $819 forward 7 unknown #
point $-1 74.905850398266551 33.167790259360011 -12.051021154020345 #
point $-1 74.905850398266551 -33.167790259360011 -12.051021154020345 #
straight-curve $-1 0 -33.167790259360011 12.051021154020345 1 0 0 I I #
point $-1 74.905850398266551 -33.167790259360011 12.051021154020345 #
point $-1 -74.905850398266551 -33.167790259360011 12.051021154020345 #
straight-curve $-1 -74.905850398266551 33.167790259360011 0 0 0 -1 I I #
vertex $-1 $710 $820 #
straight-curve $-1 -6.6874479110015983 -13.588416870352384 131.89415960039014 0.54463902268945019 0 -0.83867057594974714 I I #
straight-curve $-1 74.905850398266551 -13.588416870352384 106.74372895482912 0 0 -1 I I #
point $-1 71.139593684622895 -13.588416870352384 12.051021154020347 #
point $-1 74.905850398266551 -13.588416870352384 12.051021154020345 #
point $-1 70.58759043750068 -22.331566635824416 7.5698647785299 #
vertex $-1 $708 $821 #
straight-curve $-1 74.905850398266551 33.167790259360011 0 0 0 -1 I I #
straight-curve $-1 0 33.167790259360011 -12.051021154020345 1 0 0 I I #
straight-curve $-1 -6.6874479110015983 -31.074716401296449 131.89415960039014 -0.54463902268945019 0 0.83867057594974714 I I #
straight-curve $-1 74.905850398266551 0 -12.051021154020345 0 -1 0 I I #
straight-curve $-1 74.905850398266551 -11.165783317912208 6.2514942093504757 0 -1 0 I I #
point $-1 74.905850398266551 -31.074716401296449 6.2514942093504828 #
face $-1 $745 $797 $19 $-1 $822 reversed single #
loop $-1 $-1 $737 $714 #
plane-surface $-1 118.95521748003802 -31.074716401296449 213.48745790965825 0 1 0 0.83867057594974714 0 0.54463902268945019 forward_v I I I I #
loop $-1 $-1 $803 $629 #
coedge $-1 $780 $717 $823 $824 forward $630 $-1 #
coedge $-1 $717 $779 $825 $826 reversed $630 $-1 #
coedge $-1 $722 $736 $717 $782 forward $336 $-1 #
edge $-1 $827 11.661984944603887 $828 15.428241658247543 $781 $829 forward 7 unknown #
edge $-1 $830 1 $830 0 $718 $-1 forward 7 unknown #
vertex $-1 $719 $831 #
ellipse-curve $-1 71.426261013450429 -22.331566635824416 8.1145038012193496 0.83867057594974714 0 0.54463902268945019 0.54463902268945019 0 -0.83867057594974714 1 I I #
point $-1 73.56736106413419 -22.331566635824416 8.3125871057356733 #
coedge $-1 $825 $832 $722 $788 reversed $741 $-1 #
edge $-1 $828 -13.588416870352384 $791 33.167790259360011 $787 $743 forward 7 unknown #
coedge $-1 $833 $723 $832 $834 forward $734 $-1 #
coedge $-1 $723 $833 $725 $793 reversed $734 $-1 #
vertex $-1 $788 $835 #
straight-curve $-1 0 33.167790259360011 12.051021154020345 -1 0 0 I I #
edge $-1 $726 -12.051021154020345 $798 12.051021154020345 $790 $836 forward 7 unknown #
point $-1 -74.905850398266551 33.167790259360011 12.051021154020345 #
coedge $-1 $837 $728 $833 $838 forward $797 $-1 #
coedge $-1 $728 $837 $730 $800 forward $797 $-1 #
loop $-1 $-1 $837 $775 #
vertex $-1 $838 $839 #
straight-curve $-1 -74.905850398266551 0 -12.051021154020345 0 1 0 I I #
edge $-1 $813 -74.905850398266551 $731 74.905850398266551 $730 $840 forward 7 unknown #
point $-1 -74.905850398266551 -33.167790259360011 -12.051021154020345 #
plane-surface $-1 74.905850398266551 0 0 -1 0 0 0 0 1 forward_v I I I I #
coedge $-1 $841 $823 $736 $804 reversed $778 $-1 #
edge $-1 $807 -19.908933083384241 $827 -2.4226335524401765 $736 $842 forward 7 unknown #
coedge $-1 $806 $737 $740 $811 reversed $776 $-1 #
coedge $-1 $737 $805 $841 $843 forward $776 $-1 #
vertex $-1 $804 $844 #
straight-curve $-1 59.477608740019008 -31.074716401296449 12.051021154020347 -1 0 0 I I #
coedge $-1 $832 $739 $837 $845 reversed $741 $-1 #
coedge $-1 $740 $825 $846 $847 forward $741 $-1 #
edge $-1 $848 -100.49223474547864 $742 -94.692707800808776 $740 $849 forward 7 unknown #
point $-1 74.905850398266551 -31.074716401296449 12.051021154020345 #
vertex $-1 $744 $850 #
straight-curve $-1 74.905850398266551 -33.167790259360011 0 0 0 -1 I I #
plane-surface $-1 0 -33.167790259360011 0 0 1 0 0 0 1 forward_v I I I I #
point $-1 -74.905850398266551 -33.167790259360011 -12.051021154020345 #
straight-curve $-1 -74.905850398266551 0 -12.051021154020345 0 1 0 I I #
point $-1 -74.905850398266551 33.167790259360011 -12.051021154020345 #
straight-curve $-1 74.905850398266551 -33.167790259360011 0 0 0 -1 I I #
point $-1 74.905850398266551 -13.588416870352384 6.2514942093504828 #
point $-1 74.905850398266551 33.167790259360011 -12.051021154020345 #
plane-surface $-1 0 0 -12.051021154020345 0 0 1 1 0 0 forward_v I I I I #
coedge $-1 $803 $846 $779 $824 reversed $778 $-1 #
edge $-1 $827 142.89655781789435 $851 149.81170079653316 $779 $852 forward 7 unknown #
coedge $-1 $810 $787 $780 $826 forward $741 $-1 #
edge $-1 $828 94.692707800808776 $851 100.49223474547864 $825 $853 forward 7 unknown #
vertex $-1 $804 $854 #
vertex $-1 $788 $855 #
straight-curve $-1 59.477608740019008 -13.588416870352384 12.051021154020347 1 0 0 I I #
vertex $-1 $783 $856 #
point $-1 71.970900036139881 -22.331566635824416 7.2758332252696034 #
coedge $-1 $787 $809 $789 $834 reversed $741 $-1 #
coedge $-1 $790 $789 $795 $838 reversed $734 $-1 #
edge $-1 $791 -12.051021154020345 $857 12.051021154020345 $832 $858 forward 7 unknown #
point $-1 74.905850398266551 33.167790259360011 12.051021154020345 #
straight-curve $-1 -74.905850398266551 33.167790259360011 0 0 0 -1 I I #
coedge $-1 $796 $795 $809 $845 forward $797 $-1 #
edge $-1 $798 -74.905850398266551 $857 74.905850398266551 $833 $859 forward 7 unknown #
point $-1 -74.905850398266551 33.167790259360011 -12.051021154020345 #
straight-curve $-1 0 -33.167790259360011 -12.051021154020345 -1 0 0 I I #
coedge $-1 $846 $803 $806 $843 reversed $778 $-1 #
straight-curve $-1 71.139593684622881 -11.165783317912208 12.051021154020361 0 1 0 I I #
edge $-1 $848 -149.81170079653316 $807 -142.89655781789435 $806 $860 forward 7 unknown #
point $-1 71.139593684622895 -31.074716401296449 12.051021154020347 #
edge $-1 $857 -33.167790259360011 $813 33.167790259360011 $809 $861 forward 7 unknown #
coedge $-1 $823 $841 $810 $847 reversed $778 $-1 #
edge $-1 $851 2.4226335524401765 $848 19.908933083384241 $810 $862 forward 7 unknown #
vertex $-1 $847 $863 #
straight-curve $-1 74.905850398266551 -31.074716401296449 106.74372895482912 0 0 1 I I #
point $-1 74.905850398266551 -33.167790259360011 -12.051021154020345 #
vertex $-1 $847 $864 #
straight-curve $-1 -6.6874479110015983 -13.588416870352384 131.89415960039014 0.54463902268945019 0 -0.83867057594974714 I I #
straight-curve $-1 74.905850398266551 -13.588416870352384 106.74372895482912 0 0 -1 I I #
point $-1 71.139593684622895 -13.588416870352384 12.051021154020347 #
point $-1 74.905850398266551 -13.588416870352384 12.051021154020345 #
point $-1 70.58759043750068 -22.331566635824416 7.5698647785299 #
vertex $-1 $845 $865 #
straight-curve $-1 74.905850398266551 33.167790259360011 0 0 0 -1 I I #
straight-curve $-1 0 33.167790259360011 -12.051021154020345 1 0 0 I I #
straight-curve $-1 -6.6874479110015983 -31.074716401296449 131.89415960039014 -0.54463902268945019 0 0.83867057594974714 I I #
straight-curve $-1 74.905850398266551 0 -12.051021154020345 0 -1 0 I I #
straight-curve $-1 74.905850398266551 -11.165783317912208 6.2514942093504757 0 -1 0 I I #
point $-1 74.905850398266551 -31.074716401296449 6.2514942093504828 #
point $-1 74.905850398266551 -13.588416870352384 6.2514942093504828 #
point $-1 74.905850398266551 33.167790259360011 -12.051021154020345 #
End-of-ACIS-data 