500 0 3 0           
7 Unknown 11 ACIS 5.0 NT 24 Thu Mar 25 22:30:55 1999 
-1 9.9999999999999995e-007 1e-010 
body $-1 $3 $-1 $4 #
body $-1 $5 $-1 $6 #
body $-1 $7 $-1 $8 #
lump $-1 $-1 $9 $0 #
transform $-1 1 0 0 0 1 0 0 0 1 70.552690206610308 37.188138481839935 16.896786575445812 1 rotate no_reflect no_shear #
lump $-1 $-1 $10 $1 #
transform $-1 1 0 0 0 1 0 0 0 1 70.552690206610308 37.188138481839935 16.896786575445812 1 rotate no_reflect no_shear #
lump $-1 $-1 $11 $2 #
transform $-1 1 0 0 0 1 0 0 0 1 70.552690206610308 37.188138481839935 16.896786575445812 1 rotate no_reflect no_shear #
shell $-1 $-1 $-1 $12 $-1 $3 #
shell $-1 $-1 $-1 $13 $-1 $5 #
shell $-1 $-1 $-1 $14 $-1 $7 #
face $-1 $15 $16 $9 $-1 $17 reversed single #
face $-1 $18 $19 $10 $-1 $20 forward single #
face $-1 $21 $22 $11 $-1 $23 forward single #
face $-1 $24 $25 $9 $-1 $26 forward single #
loop $-1 $-1 $27 $12 #
plane-surface $-1 70.552690206610308 0 0 -1 0 0 0 0 1 forward_v I I I I #
face $-1 $28 $29 $10 $-1 $30 reversed single #
loop $-1 $-1 $31 $13 #
plane-surface $-1 -70.552690206610308 0 0 1 0 0 0 0 -1 forward_v I I I I #
face $-1 $32 $33 $11 $-1 $34 reversed single #
loop $-1 $-1 $35 $14 #
plane-surface $-1 70.552690206610308 0 0 -1 0 0 0 0 1 forward_v I I I I #
face $-1 $36 $37 $9 $-1 $38 reversed single #
loop $-1 $-1 $39 $15 #
plane-surface $-1 0 0 16.896786575445812 0 0 1 1 0 0 forward_v I I I I #
coedge $-1 $40 $41 $42 $43 reversed $16 $-1 #
face $-1 $44 $45 $10 $-1 $46 forward single #
loop $-1 $-1 $47 $18 #
plane-surface $-1 0 37.188138481839935 0 0 -1 0 0 0 -1 forward_v I I I I #
coedge $-1 $48 $49 $50 $51 forward $19 $-1 #
face $-1 $52 $53 $11 $-1 $54 forward single #
loop $-1 $-1 $55 $21 #
plane-surface $-1 0 -37.188138481839935 0 0 1 0 0 0 1 forward_v I I I I #
coedge $-1 $56 $57 $58 $59 forward $22 $-1 #
face $-1 $60 $61 $9 $-1 $62 reversed single #
loop $-1 $-1 $63 $24 #
plane-surface $-1 0 0 -16.896786575445812 0 0 1 1 0 0 forward_v I I I I #
coedge $-1 $64 $65 $40 $66 forward $25 $-1 #
coedge $-1 $67 $27 $39 $66 reversed $16 $-1 #
coedge $-1 $27 $67 $63 $68 reversed $16 $-1 #
coedge $-1 $69 $70 $27 $43 forward $71 $-1 #
edge $-1 $72 -16.896786575445812 $73 16.896786575445812 $27 $74 forward 7 unknown #
face $-1 $75 $76 $10 $-1 $77 reversed single #
loop $-1 $-1 $50 $28 #
plane-surface $-1 -77.765488894609192 0 9.0587467864597215 0 0 1 1 0 0 forward_v I I I I #
coedge $-1 $78 $79 $49 $80 forward $29 $-1 #
coedge $-1 $81 $31 $82 $83 reversed $19 $-1 #
coedge $-1 $31 $81 $47 $80 reversed $19 $-1 #
coedge $-1 $84 $85 $31 $51 reversed $45 $-1 #
edge $-1 $86 -37.188138481839935 $87 37.188138481839935 $50 $88 forward 7 unknown #
face $-1 $89 $90 $11 $-1 $91 reversed single #
loop $-1 $-1 $92 $32 #
plane-surface $-1 77.765488894609192 0 9.0587467864597215 0 0 1 1 0 0 forward_v I I I I #
coedge $-1 $93 $94 $57 $95 forward $33 $-1 #
coedge $-1 $96 $35 $97 $98 reversed $22 $-1 #
coedge $-1 $35 $96 $55 $95 reversed $22 $-1 #
coedge $-1 $99 $100 $35 $59 reversed $53 $-1 #
edge $-1 $101 -37.188138481839935 $102 37.188138481839935 $58 $103 forward 7 unknown #
face $-1 $104 $105 $9 $-1 $106 reversed single #
loop $-1 $-1 $107 $36 #
plane-surface $-1 0 -37.188138481839935 0 0 1 0 0 0 1 forward_v I I I I #
coedge $-1 $108 $109 $41 $68 forward $37 $-1 #
coedge $-1 $110 $39 $70 $111 forward $25 $-1 #
coedge $-1 $39 $110 $112 $113 forward $25 $-1 #
edge $-1 $114 -37.188138481839935 $72 37.188138481839935 $40 $115 forward 7 unknown #
coedge $-1 $41 $40 $116 $117 forward $16 $-1 #
edge $-1 $73 -37.188138481839935 $118 37.188138481839935 $41 $119 forward 7 unknown #
coedge $-1 $120 $42 $109 $121 reversed $71 $-1 #
coedge $-1 $42 $120 $64 $111 reversed $71 $-1 #
loop $-1 $-1 $42 $104 #
vertex $-1 $66 $122 #
vertex $-1 $68 $123 #
straight-curve $-1 70.552690206610308 37.188138481839935 0 0 0 -1 I I #
face $-1 $124 $125 $10 $-1 $126 reversed single #
loop $-1 $-1 $127 $44 #
plane-surface $-1 -77.765488894609192 0 4.563490971377739 0 0 1 1 0 0 forward_v I I I I #
coedge $-1 $128 $47 $129 $130 reversed $29 $-1 #
coedge $-1 $47 $128 $84 $131 reversed $29 $-1 #
edge $-1 $86 -9.0587467864597215 $132 -4.563490971377739 $47 $133 forward 7 unknown #
coedge $-1 $49 $48 $127 $134 forward $19 $-1 #
coedge $-1 $135 $136 $48 $83 forward $137 $-1 #
edge $-1 $138 4.563490971377739 $87 9.0587467864597215 $82 $139 forward 7 unknown #
coedge $-1 $140 $50 $79 $131 forward $45 $-1 #
coedge $-1 $50 $140 $135 $141 forward $45 $-1 #
vertex $-1 $80 $142 #
vertex $-1 $141 $143 #
straight-curve $-1 -70.552690206610308 0 9.0587467864597215 0 -1 0 I I #
face $-1 $144 $145 $11 $-1 $146 reversed single #
loop $-1 $-1 $147 $52 #
plane-surface $-1 77.765488894609192 0 4.563490971377739 0 0 1 1 0 0 forward_v I I I I #
coedge $-1 $100 $99 $148 $149 forward $53 $-1 #
coedge $-1 $150 $55 $151 $152 reversed $33 $-1 #
coedge $-1 $55 $150 $99 $153 reversed $33 $-1 #
edge $-1 $101 -9.0587467864597215 $154 -4.563490971377739 $55 $155 forward 7 unknown #
coedge $-1 $57 $56 $156 $157 forward $22 $-1 #
coedge $-1 $158 $159 $56 $98 forward $160 $-1 #
edge $-1 $161 4.563490971377739 $102 9.0587467864597215 $97 $162 forward 7 unknown #
coedge $-1 $92 $58 $94 $153 forward $53 $-1 #
coedge $-1 $58 $92 $158 $163 forward $53 $-1 #
vertex $-1 $95 $164 #
vertex $-1 $163 $165 #
straight-curve $-1 70.552690206610308 0 9.0587467864597215 0 1 0 I I #
face $-1 $-1 $71 $9 $-1 $166 reversed single #
loop $-1 $-1 $167 $60 #
plane-surface $-1 -70.552690206610308 0 0 1 0 0 0 0 -1 forward_v I I I I #
coedge $-1 $168 $112 $167 $169 forward $61 $-1 #
coedge $-1 $170 $63 $168 $171 forward $37 $-1 #
coedge $-1 $63 $170 $69 $121 forward $37 $-1 #
coedge $-1 $65 $64 $172 $173 forward $25 $-1 #
edge $-1 $72 -70.552690206610308 $174 70.552690206610308 $70 $175 forward 7 unknown #
coedge $-1 $107 $116 $65 $113 reversed $61 $-1 #
edge $-1 $176 -70.552690206610308 $114 70.552690206610308 $112 $177 forward 7 unknown #
vertex $-1 $66 $178 #
straight-curve $-1 70.552690206610308 0 16.896786575445812 0 1 0 I I #
coedge $-1 $112 $168 $67 $117 reversed $61 $-1 #
edge $-1 $114 -16.896786575445812 $118 16.896786575445812 $67 $179 forward 7 unknown #
vertex $-1 $117 $180 #
straight-curve $-1 70.552690206610308 0 -16.896786575445812 0 -1 0 I I #
coedge $-1 $70 $69 $181 $182 reversed $71 $-1 #
edge $-1 $183 -70.552690206610308 $73 70.552690206610308 $69 $184 forward 7 unknown #
point $-1 70.552690206610308 37.188138481839935 16.896786575445812 #
point $-1 70.552690206610308 37.188138481839935 -16.896786575445812 #
face $-1 $-1 $137 $10 $-1 $185 reversed single #
loop $-1 $-1 $186 $75 #
plane-surface $-1 -84.978287582608075 0 6.8111188789187302 1 0 0 0 0 -1 forward_v I I I I #
coedge $-1 $187 $129 $81 $134 reversed $76 $-1 #
coedge $-1 $79 $78 $186 $188 reversed $29 $-1 #
coedge $-1 $127 $189 $78 $130 forward $76 $-1 #
edge $-1 $190 -7.2127986879988839 $132 7.2127986879988839 $78 $191 forward 7 unknown #
edge $-1 $86 -7.2127986879988839 $192 7.2127986879988839 $79 $193 forward 7 unknown #
vertex $-1 $80 $194 #
straight-curve $-1 -70.552690206610308 37.188138481839935 0 0 0 -1 I I #
edge $-1 $138 -37.188138481839935 $132 37.188138481839935 $127 $195 forward 7 unknown #
coedge $-1 $196 $82 $85 $141 reversed $137 $-1 #
coedge $-1 $82 $196 $187 $197 reversed $137 $-1 #
loop $-1 $-1 $82 $124 #
vertex $-1 $83 $198 #
straight-curve $-1 -70.552690206610308 -37.188138481839935 0 0 0 1 I I #
coedge $-1 $85 $84 $199 $200 forward $45 $-1 #
edge $-1 $201 -7.2127986879988839 $87 7.2127986879988839 $135 $202 forward 7 unknown #
point $-1 -70.552690206610308 37.188138481839935 9.0587467864597215 #
point $-1 -70.552690206610308 -37.188138481839935 9.0587467864597215 #
face $-1 $-1 $160 $11 $-1 $203 reversed single #
loop $-1 $-1 $204 $89 #
plane-surface $-1 84.978287582608075 0 6.8111188789187302 -1 0 0 0 0 1 forward_v I I I I #
coedge $-1 $151 $205 $206 $207 forward $90 $-1 #
coedge $-1 $204 $208 $92 $149 reversed $145 $-1 #
edge $-1 $209 -37.188138481839935 $210 37.188138481839935 $148 $211 forward 7 unknown #
coedge $-1 $94 $93 $204 $212 reversed $33 $-1 #
coedge $-1 $156 $147 $93 $152 forward $90 $-1 #
edge $-1 $213 -7.2127986879988839 $154 7.2127986879988839 $93 $214 forward 7 unknown #
edge $-1 $101 -7.2127986879988839 $209 7.2127986879988839 $94 $215 forward 7 unknown #
vertex $-1 $95 $216 #
straight-curve $-1 70.552690206610308 -37.188138481839935 0 0 0 -1 I I #
coedge $-1 $205 $151 $96 $157 reversed $90 $-1 #
edge $-1 $161 -37.188138481839935 $154 37.188138481839935 $156 $217 forward 7 unknown #
coedge $-1 $218 $97 $100 $163 reversed $160 $-1 #
coedge $-1 $97 $218 $205 $219 reversed $160 $-1 #
loop $-1 $-1 $97 $144 #
vertex $-1 $98 $220 #
straight-curve $-1 70.552690206610308 37.188138481839935 0 0 0 1 I I #
edge $-1 $210 -7.2127986879988839 $102 7.2127986879988839 $158 $221 forward 7 unknown #
point $-1 70.552690206610308 -37.188138481839935 9.0587467864597215 #
point $-1 70.552690206610308 37.188138481839935 9.0587467864597215 #
plane-surface $-1 0 37.188138481839935 0 0 -1 0 0 0 -1 forward_v I I I I #
coedge $-1 $172 $222 $107 $169 reversed $105 $-1 #
coedge $-1 $116 $107 $108 $171 reversed $61 $-1 #
edge $-1 $176 -16.896786575445812 $223 16.896786575445812 $167 $224 forward 7 unknown #
coedge $-1 $109 $108 $222 $225 forward $37 $-1 #
edge $-1 $118 -70.552690206610308 $223 70.552690206610308 $168 $226 forward 7 unknown #
coedge $-1 $181 $167 $110 $173 reversed $105 $-1 #
edge $-1 $174 -37.188138481839935 $176 37.188138481839935 $172 $227 forward 7 unknown #
vertex $-1 $111 $228 #
straight-curve $-1 0 37.188138481839935 16.896786575445812 -1 0 0 I I #
vertex $-1 $173 $229 #
straight-curve $-1 0 -37.188138481839935 16.896786575445812 1 0 0 I I #
point $-1 70.552690206610308 -37.188138481839935 16.896786575445812 #
straight-curve $-1 70.552690206610308 -37.188138481839935 0 0 0 -1 I I #
point $-1 70.552690206610308 -37.188138481839935 -16.896786575445812 #
coedge $-1 $222 $172 $120 $182 forward $105 $-1 #
edge $-1 $174 -16.896786575445812 $183 16.896786575445812 $120 $230 forward 7 unknown #
vertex $-1 $121 $231 #
straight-curve $-1 0 37.188138481839935 -16.896786575445812 1 0 0 I I #
plane-surface $-1 0 -37.188138481839935 0 0 1 0 0 0 1 forward_v I I I I #
coedge $-1 $232 $199 $128 $188 forward $125 $-1 #
coedge $-1 $189 $127 $136 $197 forward $76 $-1 #
edge $-1 $192 -2.2476279075409913 $190 2.2476279075409913 $128 $233 forward 7 unknown #
coedge $-1 $129 $187 $232 $234 forward $76 $-1 #
vertex $-1 $130 $235 #
straight-curve $-1 -77.765488894609192 37.188138481839935 4.563490971377739 1 0 0 I I #
vertex $-1 $131 $236 #
straight-curve $-1 -77.765488894609192 37.188138481839935 9.0587467864597215 -1 0 0 I I #
point $-1 -70.552690206610308 37.188138481839935 4.563490971377739 #
straight-curve $-1 -70.552690206610308 0 4.563490971377739 0 1 0 I I #
coedge $-1 $136 $135 $237 $238 forward $137 $-1 #
edge $-1 $138 -7.2127986879988839 $239 7.2127986879988839 $136 $240 forward 7 unknown #
point $-1 -70.552690206610308 -37.188138481839935 4.563490971377739 #
coedge $-1 $186 $237 $140 $200 reversed $125 $-1 #
edge $-1 $192 -37.188138481839935 $201 37.188138481839935 $199 $241 forward 7 unknown #
vertex $-1 $200 $242 #
straight-curve $-1 -77.765488894609192 -37.188138481839935 9.0587467864597215 1 0 0 I I #
plane-surface $-1 0 37.188138481839935 0 0 -1 0 0 0 -1 forward_v I I I I #
coedge $-1 $206 $148 $150 $212 forward $145 $-1 #
coedge $-1 $147 $156 $159 $219 forward $90 $-1 #
coedge $-1 $208 $204 $147 $207 reversed $145 $-1 #
edge $-1 $243 -37.188138481839935 $213 37.188138481839935 $206 $244 forward 7 unknown #
coedge $-1 $148 $206 $218 $245 reversed $145 $-1 #
vertex $-1 $149 $246 #
vertex $-1 $149 $247 #
straight-curve $-1 84.978287582608075 0 9.0587467864597215 0 1 0 I I #
edge $-1 $209 -2.2476279075409913 $213 2.2476279075409913 $204 $248 forward 7 unknown #
vertex $-1 $212 $249 #
straight-curve $-1 77.765488894609192 -37.188138481839935 4.563490971377739 -1 0 0 I I #
straight-curve $-1 77.765488894609192 -37.188138481839935 9.0587467864597215 1 0 0 I I #
point $-1 70.552690206610308 -37.188138481839935 4.563490971377739 #
straight-curve $-1 70.552690206610308 0 4.563490971377739 0 -1 0 I I #
coedge $-1 $159 $158 $208 $245 forward $160 $-1 #
edge $-1 $161 -7.2127986879988839 $243 7.2127986879988839 $159 $250 forward 7 unknown #
point $-1 70.552690206610308 37.188138481839935 4.563490971377739 #
straight-curve $-1 77.765488894609192 37.188138481839935 9.0587467864597215 -1 0 0 I I #
coedge $-1 $167 $181 $170 $225 reversed $105 $-1 #
vertex $-1 $225 $251 #
straight-curve $-1 -70.552690206610308 -37.188138481839935 0 0 0 -1 I I #
edge $-1 $223 -37.188138481839935 $183 37.188138481839935 $222 $252 forward 7 unknown #
straight-curve $-1 0 -37.188138481839935 -16.896786575445812 -1 0 0 I I #
straight-curve $-1 -70.552690206610308 0 16.896786575445812 0 -1 0 I I #
point $-1 -70.552690206610308 37.188138481839935 16.896786575445812 #
point $-1 -70.552690206610308 -37.188138481839935 16.896786575445812 #
straight-curve $-1 -70.552690206610308 37.188138481839935 0 0 0 -1 I I #
point $-1 -70.552690206610308 37.188138481839935 -16.896786575445812 #
coedge $-1 $237 $186 $189 $234 reversed $125 $-1 #
straight-curve $-1 -84.978287582608075 37.188138481839935 6.8111188789187302 0 0 -1 I I #
edge $-1 $239 -37.188138481839935 $190 37.188138481839935 $232 $253 forward 7 unknown #
point $-1 -84.978287582608075 37.188138481839935 4.563490971377739 #
point $-1 -84.978287582608075 37.188138481839935 9.0587467864597215 #
coedge $-1 $199 $232 $196 $238 reversed $125 $-1 #
edge $-1 $201 -2.2476279075409913 $239 2.2476279075409913 $237 $254 forward 7 unknown #
vertex $-1 $234 $255 #
straight-curve $-1 -77.765488894609192 -37.188138481839935 4.563490971377739 -1 0 0 I I #
straight-curve $-1 -84.978287582608075 0 9.0587467864597215 0 -1 0 I I #
point $-1 -84.978287582608075 -37.188138481839935 9.0587467864597215 #
vertex $-1 $207 $256 #
straight-curve $-1 84.978287582608075 0 4.563490971377739 0 -1 0 I I #
edge $-1 $210 -2.2476279075409913 $243 2.2476279075409913 $208 $257 forward 7 unknown #
point $-1 84.978287582608075 -37.188138481839935 9.0587467864597215 #
point $-1 84.978287582608075 37.188138481839935 9.0587467864597215 #
straight-curve $-1 84.978287582608075 -37.188138481839935 6.8111188789187302 0 0 -1 I I #
point $-1 84.978287582608075 -37.188138481839935 4.563490971377739 #
straight-curve $-1 77.765488894609192 37.188138481839935 4.563490971377739 1 0 0 I I #
point $-1 -70.552690206610308 -37.188138481839935 -16.896786575445812 #
straight-curve $-1 -70.552690206610308 0 -16.896786575445812 0 1 0 I I #
straight-curve $-1 -84.978287582608075 0 4.563490971377739 0 1 0 I I #
straight-curve $-1 -84.978287582608075 -37.188138481839935 6.8111188789187302 0 0 -1 I I #
point $-1 -84.978287582608075 -37.188138481839935 4.563490971377739 #
point $-1 84.978287582608075 37.188138481839935 4.563490971377739 #
straight-curve $-1 84.978287582608075 37.188138481839935 6.8111188789187302 0 0 -1 I I #
End-of-ACIS-data 