500 0 11 0           
7 Unknown 11 ACIS 5.0 NT 24 Thu Mar 25 19:14:01 1999 
-1 9.9999999999999995e-007 1e-010 
body $-1 $11 $-1 $12 #
body $-1 $13 $-1 $14 #
body $-1 $15 $-1 $16 #
body $-1 $17 $-1 $18 #
body $-1 $19 $-1 $20 #
body $-1 $21 $-1 $22 #
body $-1 $23 $-1 $24 #
body $-1 $25 $-1 $26 #
body $-1 $27 $-1 $28 #
body $-1 $29 $-1 $30 #
body $-1 $31 $-1 $32 #
lump $-1 $-1 $33 $0 #
transform $-1 1 0 0 0 1 0 0 0 1 68.515274513992736 42.491932463640346 15.791665626269731 1 rotate no_reflect no_shear #
lump $-1 $-1 $34 $1 #
transform $-1 1 0 0 0 1 0 0 0 1 68.515274513992736 42.491932463640346 15.791665626269731 1 rotate no_reflect no_shear #
lump $-1 $-1 $35 $2 #
transform $-1 1 0 0 0 1 0 0 0 1 68.515274513992736 42.491932463640346 15.791665626269731 1 rotate no_reflect no_shear #
lump $-1 $-1 $36 $3 #
transform $-1 1 0 0 0 1 0 0 0 1 68.515274513992736 42.491932463640346 15.791665626269731 1 rotate no_reflect no_shear #
lump $-1 $-1 $37 $4 #
transform $-1 1 0 0 0 1 0 0 0 1 68.515274513992736 42.491932463640346 15.791665626269731 1 rotate no_reflect no_shear #
lump $-1 $-1 $38 $5 #
transform $-1 1 0 0 0 1 0 0 0 1 68.515274513992736 42.491932463640346 15.791665626269731 1 rotate no_reflect no_shear #
lump $-1 $-1 $39 $6 #
transform $-1 1 0 0 0 1 0 0 0 1 68.515274513992736 42.491932463640346 15.791665626269731 1 rotate no_reflect no_shear #
lump $-1 $-1 $40 $7 #
transform $-1 1 0 0 0 1 0 0 0 1 68.515274513992736 42.491932463640346 15.791665626269731 1 rotate no_reflect no_shear #
lump $-1 $-1 $41 $8 #
transform $-1 1 0 0 0 1 0 0 0 1 68.515274513992736 42.491932463640346 15.791665626269731 1 rotate no_reflect no_shear #
lump $-1 $-1 $42 $9 #
transform $-1 1 0 0 0 1 0 0 0 1 68.515274513992736 42.491932463640346 15.791665626269731 1 rotate no_reflect no_shear #
lump $-1 $-1 $43 $10 #
transform $-1 1 0 0 0 1 0 0 0 1 68.515274513992736 42.491932463640346 15.791665626269731 1 rotate no_reflect no_shear #
shell $-1 $-1 $-1 $44 $-1 $11 #
shell $-1 $-1 $-1 $45 $-1 $13 #
shell $-1 $-1 $-1 $46 $-1 $15 #
shell $-1 $-1 $-1 $47 $-1 $17 #
shell $-1 $-1 $-1 $48 $-1 $19 #
shell $-1 $-1 $-1 $49 $-1 $21 #
shell $-1 $-1 $-1 $50 $-1 $23 #
shell $-1 $-1 $-1 $51 $-1 $25 #
shell $-1 $-1 $-1 $52 $-1 $27 #
shell $-1 $-1 $-1 $53 $-1 $29 #
shell $-1 $-1 $-1 $54 $-1 $31 #
face $-1 $55 $56 $33 $-1 $57 forward single #
face $-1 $58 $59 $34 $-1 $60 forward single #
face $-1 $61 $62 $35 $-1 $63 forward single #
face $-1 $64 $65 $36 $-1 $66 reversed single #
face $-1 $67 $68 $37 $-1 $69 forward single #
face $-1 $70 $71 $38 $-1 $72 reversed single #
face $-1 $73 $74 $39 $-1 $75 forward single #
face $-1 $76 $77 $40 $-1 $78 forward single #
face $-1 $79 $80 $41 $-1 $81 reversed single #
face $-1 $82 $83 $42 $-1 $84 forward single #
face $-1 $85 $86 $43 $-1 $87 forward single #
face $-1 $88 $89 $33 $-1 $90 reversed single #
loop $-1 $-1 $91 $44 #
plane-surface $-1 0 0 15.791665626269731 0 0 1 1 0 0 forward_v I I I I #
face $-1 $92 $93 $34 $-1 $94 reversed single #
loop $-1 $-1 $95 $45 #
plane-surface $-1 -61.270226810218915 0 12.545181759205454 0 0 1 1 0 0 forward_v I I I I #
face $-1 $96 $97 $35 $-1 $98 reversed single #
loop $-1 $-1 $99 $46 #
plane-surface $-1 61.270226810218915 0 12.545181759205454 0 0 1 1 0 0 forward_v I I I I #
face $-1 $100 $101 $36 $-1 $102 reversed single #
loop $-1 $-1 $103 $47 #
plane-surface $-1 45.137165769578317 -1.2779926187812265 73.822908720635738 0 0.85716730853699208 0.51503806187062418 1 0 0 forward_v I I I I #
face $-1 $104 $105 $37 $-1 $106 forward single #
loop $-1 $107 $108 $48 #
cone-surface $-1 45.137165769578317 36.871252933191784 7.6815484090923842 0 -0.85716730853699208 -0.51503806187062418 2 0 0 1 I I 0 1 2 forward I I I I #
face $-1 $109 $110 $38 $-1 $111 reversed single #
loop $-1 $-1 $112 $49 #
plane-surface $-1 -45.578705824044889 -42.491932463640339 9.7490238863745162 0 -0.75470958851134928 0.65605901945558964 1 0 0 forward_v I I I I #
face $-1 $113 $114 $39 $-1 $115 forward single #
loop $-1 $116 $117 $50 #
cone-surface $-1 -49.198622945073545 -37.805541881786525 10.979617176842044 0 0.75470958851134928 -0.65605901945558964 1.5 0 0 1 I I 0 1 1.5 forward I I I I #
face $-1 $118 $119 $40 $-1 $120 forward single #
loop $-1 $121 $122 $51 #
cone-surface $-1 -41.958788703016225 -37.805541881786525 10.979617176842044 0 0.75470958851134928 -0.65605901945558964 1.5 0 0 1 I I 0 1 1.5 forward I I I I #
face $-1 $123 $124 $41 $-1 $125 reversed single #
loop $-1 $-1 $126 $52 #
plane-surface $-1 37.132232541644683 -145.91020173403552 99.649151517135763 1 0 0 0 0.75470958851134928 -0.65605901945558964 forward_v I I I I #
face $-1 $127 $128 $42 $-1 $129 forward single #
loop $-1 $130 $131 $53 #
cone-surface $-1 41.958788703016225 -37.805541881786525 10.979617176842044 0 0.75470958851134928 -0.65605901945558964 1.5 0 0 1 I I 0 1 1.5 forward I I I I #
face $-1 $132 $133 $43 $-1 $134 forward single #
loop $-1 $135 $136 $54 #
cone-surface $-1 49.198622945073552 -37.805541881786525 10.979617176842044 0 0.75470958851134928 -0.65605901945558964 1.5 0 0 1 I I 0 1 1.5 forward I I I I #
face $-1 $137 $138 $33 $-1 $139 reversed single #
loop $-1 $-1 $140 $55 #
plane-surface $-1 0 0 -15.791665626269731 0 0 1 1 0 0 forward_v I I I I #
coedge $-1 $141 $142 $143 $144 forward $56 $-1 #
face $-1 $145 $146 $34 $-1 $147 reversed single #
loop $-1 $-1 $148 $58 #
plane-surface $-1 -61.270226810218915 0 7.2929239898578526 0 0 1 1 0 0 forward_v I I I I #
coedge $-1 $149 $150 $151 $152 forward $59 $-1 #
face $-1 $153 $154 $35 $-1 $155 reversed single #
loop $-1 $-1 $156 $61 #
plane-surface $-1 61.270226810218915 0 7.2929239898578526 0 0 1 1 0 0 forward_v I I I I #
coedge $-1 $157 $158 $159 $160 reversed $62 $-1 #
face $-1 $161 $162 $36 $-1 $163 forward single #
loop $-1 $-1 $164 $64 #
plane-surface $-1 36.24915243271154 116.18011427888342 144.39885710907691 1 0 0 0 -0.85716730853699208 -0.51503806187062418 forward_v I I I I #
coedge $-1 $165 $166 $167 $168 reversed $65 $-1 #
face $-1 $-1 $169 $37 $-1 $170 forward single #
loop $-1 $171 $172 $67 #
cone-surface $-1 45.137165769578317 34.844024911857083 6.4634669672556573 0 -0.85716730853699208 -0.51503806187062418 1 0 0 1 I I -0.70710678118654746 0.70710678118654746 1 forward I I I I #
loop $-1 $-1 $173 $48 #
coedge $-1 $108 $108 $174 $175 reversed $68 $-1 #
face $-1 $176 $177 $38 $-1 $178 forward single #
loop $-1 $-1 $179 $70 #
plane-surface $-1 -37.132232541644683 -145.91020173403552 99.649151517135763 -1 0 0 0 -0.75470958851134928 0.65605901945558964 forward_v I I I I #
coedge $-1 $180 $181 $182 $183 reversed $71 $-1 #
face $-1 $-1 $184 $39 $-1 $185 forward single #
loop $-1 $186 $187 $73 #
cone-surface $-1 -49.198622945073545 -35.179513204466701 8.6968453327702679 0 0.75470958851134928 -0.65605901945558964 0.75 0 0 1 I I -0.70710678118654757 0.70710678118654757 0.75 forward I I I I #
loop $-1 $-1 $188 $50 #
coedge $-1 $117 $117 $189 $190 reversed $74 $-1 #
face $-1 $-1 $191 $40 $-1 $192 forward single #
loop $-1 $193 $194 $76 #
cone-surface $-1 -41.958788703016225 -35.179513204466701 8.6968453327702679 0 0.75470958851134928 -0.65605901945558964 0.75 0 0 1 I I -0.70710678118654757 0.70710678118654757 0.75 forward I I I I #
loop $-1 $-1 $195 $51 #
coedge $-1 $122 $122 $196 $197 reversed $77 $-1 #
face $-1 $198 $199 $41 $-1 $200 reversed single #
loop $-1 $-1 $201 $79 #
plane-surface $-1 45.578705824044889 -42.491932463640339 9.7490238863745162 0 -0.75470958851134928 0.65605901945558964 1 0 0 forward_v I I I I #
coedge $-1 $202 $203 $204 $205 reversed $80 $-1 #
face $-1 $-1 $206 $42 $-1 $207 forward single #
loop $-1 $208 $209 $82 #
cone-surface $-1 41.958788703016225 -35.179513204466701 8.6968453327702679 0 0.75470958851134928 -0.65605901945558964 0.75 0 0 1 I I -0.70710678118654757 0.70710678118654757 0.75 forward I I I I #
loop $-1 $-1 $210 $53 #
coedge $-1 $131 $131 $211 $212 reversed $83 $-1 #
face $-1 $-1 $213 $43 $-1 $214 forward single #
loop $-1 $215 $216 $85 #
cone-surface $-1 49.198622945073552 -35.179513204466701 8.6968453327702679 0 0.75470958851134928 -0.65605901945558964 0.75 0 0 1 I I -0.70710678118654757 0.70710678118654757 0.75 forward I I I I #
loop $-1 $-1 $217 $54 #
coedge $-1 $136 $136 $218 $219 reversed $86 $-1 #
face $-1 $220 $221 $33 $-1 $222 reversed single #
loop $-1 $-1 $223 $88 #
plane-surface $-1 0 -42.491932463640346 0 0 1 0 0 0 1 forward_v I I I I #
coedge $-1 $224 $225 $226 $227 forward $89 $-1 #
coedge $-1 $228 $91 $229 $230 forward $56 $-1 #
coedge $-1 $91 $228 $231 $232 forward $56 $-1 #
coedge $-1 $233 $234 $91 $144 reversed $235 $-1 #
edge $-1 $236 -42.491932463640346 $237 42.491932463640346 $143 $238 forward 7 unknown #
face $-1 $239 $240 $34 $-1 $241 reversed single #
loop $-1 $-1 $242 $92 #
plane-surface $-1 -54.025179106445094 0 9.9190528745316531 -1 0 0 0 0 1 forward_v I I I I #
coedge $-1 $243 $244 $245 $246 forward $93 $-1 #
coedge $-1 $247 $95 $248 $249 reversed $59 $-1 #
coedge $-1 $95 $247 $250 $251 reversed $59 $-1 #
coedge $-1 $242 $252 $95 $152 reversed $146 $-1 #
edge $-1 $253 -42.491932463640346 $254 42.491932463640346 $151 $255 forward 7 unknown #
face $-1 $256 $257 $35 $-1 $258 reversed single #
loop $-1 $-1 $259 $96 #
plane-surface $-1 54.025179106445094 0 9.9190528745316531 1 0 0 0 0 -1 forward_v I I I I #
coedge $-1 $260 $261 $262 $263 reversed $97 $-1 #
coedge $-1 $264 $99 $265 $266 reversed $62 $-1 #
coedge $-1 $99 $264 $267 $268 reversed $62 $-1 #
coedge $-1 $269 $270 $99 $160 forward $271 $-1 #
edge $-1 $272 -42.491932463640346 $273 42.491932463640346 $159 $274 forward 7 unknown #
face $-1 $275 $276 $36 $-1 $277 reversed single #
loop $-1 $-1 $278 $100 #
plane-surface $-1 54.025179106445094 0 9.9190528745316531 1 0 0 0 0 -1 forward_v I I I I #
coedge $-1 $279 $280 $281 $282 reversed $101 $-1 #
coedge $-1 $283 $103 $278 $284 forward $65 $-1 #
coedge $-1 $103 $283 $279 $285 forward $65 $-1 #
coedge $-1 $281 $286 $103 $168 forward $276 $-1 #
edge $-1 $287 -31.456596221655936 $288 -13.680569547922381 $167 $289 forward 7 unknown #
loop $-1 $-1 $174 $104 #
plane-surface $-1 45.137165769578317 -1.2779926187812265 73.822908720635738 0 0.85716730853699208 0.51503806187062418 1 0 0 forward_v I I I I #
loop $-1 $-1 $290 $67 #
coedge $-1 $172 $172 $173 $291 reversed $105 $-1 #
coedge $-1 $173 $173 $172 $291 forward $107 $-1 #
coedge $-1 $174 $174 $108 $175 forward $169 $-1 #
edge $-1 $292 1.6827607749570195e-015 $292 6.2831853071796022 $174 $293 forward 7 unknown #
face $-1 $294 $295 $38 $-1 $296 reversed single #
loop $-1 $-1 $297 $109 #
plane-surface $-1 -54.025179106445094 0 9.9190528745316531 -1 0 0 0 0 1 forward_v I I I I #
coedge $-1 $298 $299 $300 $301 reversed $110 $-1 #
coedge $-1 $302 $112 $297 $303 reversed $71 $-1 #
coedge $-1 $112 $302 $298 $304 forward $71 $-1 #
coedge $-1 $300 $305 $112 $183 forward $295 $-1 #
edge $-1 $306 -31.23582619442265 $307 -14.342879629622239 $182 $308 forward 7 unknown #
loop $-1 $-1 $189 $113 #
plane-surface $-1 -45.578705824044889 -42.491932463640339 9.7490238863745162 0 -0.75470958851134928 0.65605901945558964 1 0 0 forward_v I I I I #
loop $-1 $-1 $309 $73 #
coedge $-1 $187 $187 $188 $310 reversed $114 $-1 #
coedge $-1 $188 $188 $187 $310 forward $116 $-1 #
coedge $-1 $189 $189 $117 $190 forward $184 $-1 #
edge $-1 $311 -1.3202084176096447e-015 $311 6.2831853071795996 $189 $312 forward 7 unknown #
loop $-1 $-1 $196 $118 #
plane-surface $-1 -45.578705824044889 -42.491932463640339 9.7490238863745162 0 -0.75470958851134928 0.65605901945558964 1 0 0 forward_v I I I I #
loop $-1 $-1 $313 $76 #
coedge $-1 $194 $194 $195 $314 reversed $119 $-1 #
coedge $-1 $195 $195 $194 $314 forward $121 $-1 #
coedge $-1 $196 $196 $122 $197 forward $191 $-1 #
edge $-1 $315 -1.3202084176096447e-015 $315 6.2831853071795996 $196 $316 forward 7 unknown #
face $-1 $317 $318 $41 $-1 $319 forward single #
loop $-1 $-1 $204 $123 #
plane-surface $-1 0 -42.491932463640346 0 0 1 0 0 0 1 forward_v I I I I #
coedge $-1 $320 $321 $322 $323 reversed $124 $-1 #
coedge $-1 $203 $126 $324 $325 reversed $80 $-1 #
coedge $-1 $126 $202 $320 $326 reversed $80 $-1 #
coedge $-1 $322 $327 $126 $205 forward $199 $-1 #
edge $-1 $328 34.032910132298149 $329 40.075551872193373 $204 $330 forward 7 unknown #
loop $-1 $-1 $211 $127 #
plane-surface $-1 45.578705824044889 -42.491932463640339 9.7490238863745162 0 -0.75470958851134928 0.65605901945558964 1 0 0 forward_v I I I I #
loop $-1 $-1 $331 $82 #
coedge $-1 $209 $209 $210 $332 reversed $128 $-1 #
coedge $-1 $210 $210 $209 $332 forward $130 $-1 #
coedge $-1 $211 $211 $131 $212 forward $206 $-1 #
edge $-1 $333 -1.3202084176096447e-015 $333 6.2831853071795996 $211 $334 forward 7 unknown #
loop $-1 $-1 $218 $132 #
plane-surface $-1 45.578705824044889 -42.491932463640339 9.7490238863745162 0 -0.75470958851134928 0.65605901945558964 1 0 0 forward_v I I I I #
loop $-1 $-1 $335 $85 #
coedge $-1 $216 $216 $217 $336 reversed $133 $-1 #
coedge $-1 $217 $217 $216 $336 forward $135 $-1 #
coedge $-1 $218 $218 $136 $219 forward $213 $-1 #
edge $-1 $337 -1.3202084176096447e-015 $337 6.2831853071795996 $218 $338 forward 7 unknown #
face $-1 $339 $340 $33 $-1 $341 reversed single #
loop $-1 $-1 $342 $137 #
plane-surface $-1 -68.515274513992736 0 0 1 0 0 0 0 -1 forward_v I I I I #
coedge $-1 $343 $231 $344 $345 forward $138 $-1 #
coedge $-1 $346 $140 $343 $347 forward $89 $-1 #
coedge $-1 $140 $346 $348 $349 forward $89 $-1 #
coedge $-1 $234 $233 $140 $227 reversed $235 $-1 #
edge $-1 $350 -42.491932463640346 $351 42.491932463640346 $226 $352 forward 7 unknown #
coedge $-1 $142 $141 $353 $354 forward $56 $-1 #
coedge $-1 $355 $356 $141 $230 reversed $340 $-1 #
edge $-1 $237 -68.515274513992736 $357 68.515274513992736 $229 $358 forward 7 unknown #
coedge $-1 $223 $359 $142 $232 reversed $138 $-1 #
edge $-1 $360 -68.515274513992736 $236 68.515274513992736 $231 $361 forward 7 unknown #
coedge $-1 $226 $143 $359 $362 forward $235 $-1 #
coedge $-1 $143 $226 $355 $363 reversed $235 $-1 #
loop $-1 $-1 $233 $339 #
vertex $-1 $144 $364 #
vertex $-1 $144 $365 #
straight-curve $-1 68.515274513992736 0 15.791665626269731 0 1 0 I I #
face $-1 $366 $367 $34 $-1 $368 reversed single #
loop $-1 $-1 $369 $145 #
plane-surface $-1 0 -42.491932463640346 0 0 1 0 0 0 1 forward_v I I I I #
coedge $-1 $245 $151 $370 $371 reversed $146 $-1 #
coedge $-1 $372 $148 $369 $373 reversed $93 $-1 #
coedge $-1 $148 $372 $374 $375 reversed $93 $-1 #
coedge $-1 $252 $242 $148 $246 reversed $146 $-1 #
edge $-1 $376 -42.491932463640346 $377 42.491932463640346 $245 $378 forward 7 unknown #
coedge $-1 $150 $149 $379 $380 reversed $59 $-1 #
coedge $-1 $381 $382 $149 $249 forward $383 $-1 #
edge $-1 $384 -37.880161108883279 $254 -23.390065701335637 $248 $385 forward 7 unknown #
coedge $-1 $386 $370 $150 $251 forward $240 $-1 #
edge $-1 $253 23.390065701335637 $387 37.880161108883279 $250 $388 forward 7 unknown #
coedge $-1 $151 $245 $381 $389 reversed $146 $-1 #
vertex $-1 $251 $390 #
vertex $-1 $249 $391 #
straight-curve $-1 -54.025179106445094 0 12.545181759205454 0 1 0 I I #
face $-1 $392 $393 $35 $-1 $394 reversed single #
loop $-1 $-1 $267 $153 #
plane-surface $-1 0 -42.491932463640346 0 0 1 0 0 0 1 forward_v I I I I #
coedge $-1 $395 $396 $397 $398 reversed $154 $-1 #
coedge $-1 $399 $156 $400 $401 reversed $97 $-1 #
coedge $-1 $156 $399 $402 $403 reversed $97 $-1 #
coedge $-1 $270 $269 $156 $263 forward $271 $-1 #
edge $-1 $404 -42.491932463640346 $405 42.491932463640346 $262 $406 forward 7 unknown #
coedge $-1 $158 $157 $396 $407 forward $62 $-1 #
coedge $-1 $408 $397 $157 $266 forward $393 $-1 #
edge $-1 $409 23.390065701335637 $272 37.880161108883279 $265 $410 forward 7 unknown #
coedge $-1 $411 $412 $158 $268 forward $257 $-1 #
edge $-1 $273 -37.880161108883279 $413 -23.390065701335637 $267 $414 forward 7 unknown #
coedge $-1 $262 $159 $412 $415 forward $271 $-1 #
coedge $-1 $159 $262 $408 $416 reversed $271 $-1 #
loop $-1 $-1 $159 $392 #
vertex $-1 $416 $417 #
vertex $-1 $415 $418 #
straight-curve $-1 68.515274513992736 0 12.545181759205454 0 -1 0 I I #
face $-1 $-1 $419 $36 $-1 $420 forward single #
loop $-1 $-1 $286 $161 #
plane-surface $-1 0 42.491932463640346 0 0 -1 0 0 0 -1 forward_v I I I I #
coedge $-1 $421 $422 $165 $284 reversed $162 $-1 #
coedge $-1 $280 $164 $166 $285 reversed $101 $-1 #
coedge $-1 $164 $279 $423 $424 reversed $101 $-1 #
coedge $-1 $425 $167 $164 $282 forward $276 $-1 #
edge $-1 $288 -71.221910602691196 $426 -56.407762928268724 $281 $427 forward 7 unknown #
coedge $-1 $166 $165 $428 $429 reversed $65 $-1 #
edge $-1 $287 -84.98386492728072 $430 -67.701185656990788 $278 $431 forward 7 unknown #
edge $-1 $432 67.701185656990788 $288 84.98386492728072 $279 $433 forward 7 unknown #
coedge $-1 $167 $425 $421 $434 forward $276 $-1 #
vertex $-1 $168 $435 #
vertex $-1 $168 $436 #
straight-curve $-1 22.568582884789159 42.491932463640346 0.97751795184724699 -1 0 0 I I #
coedge $-1 $290 $290 $-1 $437 reversed $171 $-1 #
edge $-1 $438 0 $438 6.2831853071796004 $172 $439 forward 7 unknown #
vertex $-1 $175 $440 #
ellipse-curve $-1 45.137165769578317 38.041313645989476 8.3845917890584776 0 0.85716730853699208 0.51503806187062418 2 0 0 1 I I #
face $-1 $-1 $441 $38 $-1 $442 forward single #
loop $-1 $-1 $305 $176 #
plane-surface $-1 0 -42.491932463640346 0 0 1 0 0 0 1 forward_v I I I I #
coedge $-1 $443 $444 $180 $303 forward $177 $-1 #
coedge $-1 $299 $179 $181 $304 reversed $110 $-1 #
coedge $-1 $179 $298 $445 $446 reversed $110 $-1 #
coedge $-1 $447 $182 $179 $301 forward $295 $-1 #
edge $-1 $307 -40.075551872193373 $448 -34.032910132298149 $300 $449 forward 7 unknown #
coedge $-1 $181 $180 $450 $451 reversed $71 $-1 #
edge $-1 $452 5.9961902956970476 $306 14.002769027278056 $297 $453 forward 7 unknown #
edge $-1 $454 -8.0065787315809995 $307 1.1364747401606058e-014 $298 $455 forward 7 unknown #
coedge $-1 $182 $447 $443 $456 forward $295 $-1 #
vertex $-1 $303 $457 #
vertex $-1 $183 $458 #
straight-curve $-1 -22.789352912022444 -42.491932463640346 9.749023886374502 1 0 0 I I #
coedge $-1 $309 $309 $-1 $459 reversed $186 $-1 #
edge $-1 $460 0 $460 6.2831853071796004 $187 $461 forward 7 unknown #
vertex $-1 $190 $462 #
ellipse-curve $-1 -49.198622945073545 -39.865538367722834 12.770344756322125 0 -0.75470958851134928 0.65605901945558964 1.5 0 0 1 I I #
coedge $-1 $313 $313 $-1 $463 reversed $193 $-1 #
edge $-1 $464 0 $464 6.2831853071796004 $194 $465 forward 7 unknown #
vertex $-1 $197 $466 #
ellipse-curve $-1 -41.958788703016225 -39.865538367722834 12.770344756322125 0 -0.75470958851134928 0.65605901945558964 1.5 0 0 1 I I #
face $-1 $-1 $467 $41 $-1 $468 forward single #
loop $-1 $-1 $469 $198 #
plane-surface $-1 54.025179106445094 0 9.9190528745316531 1 0 0 0 0 -1 forward_v I I I I #
coedge $-1 $470 $201 $203 $326 forward $124 $-1 #
coedge $-1 $201 $470 $469 $471 forward $124 $-1 #
coedge $-1 $472 $204 $201 $323 forward $199 $-1 #
edge $-1 $329 14.342879629622239 $473 31.23582619442265 $322 $474 forward 7 unknown #
coedge $-1 $475 $476 $202 $325 forward $467 $-1 #
edge $-1 $477 -35.715956595212432 $328 -30.463168403377416 $324 $478 forward 7 unknown #
edge $-1 $329 -1.1364747401606058e-014 $477 8.0065787315809995 $203 $479 forward 7 unknown #
coedge $-1 $204 $472 $475 $480 reversed $199 $-1 #
vertex $-1 $480 $481 #
vertex $-1 $205 $482 #
straight-curve $-1 37.132232541644683 -42.491932463640346 49.824575758567882 0 0 -1 I I #
coedge $-1 $331 $331 $-1 $483 reversed $208 $-1 #
edge $-1 $484 0 $484 6.2831853071796004 $209 $485 forward 7 unknown #
vertex $-1 $212 $486 #
ellipse-curve $-1 41.958788703016225 -39.865538367722834 12.770344756322125 0 -0.75470958851134928 0.65605901945558964 1.5 0 0 1 I I #
coedge $-1 $335 $335 $-1 $487 reversed $215 $-1 #
edge $-1 $488 0 $488 6.2831853071796004 $216 $489 forward 7 unknown #
vertex $-1 $219 $490 #
ellipse-curve $-1 49.198622945073552 -39.865538367722834 12.770344756322125 0 -0.75470958851134928 0.65605901945558964 1.5 0 0 1 I I #
face $-1 $-1 $235 $33 $-1 $491 reversed single #
loop $-1 $-1 $355 $220 #
plane-surface $-1 0 42.491932463640346 0 0 -1 0 0 0 -1 forward_v I I I I #
coedge $-1 $492 $353 $356 $493 forward $221 $-1 #
coedge $-1 $359 $223 $224 $347 reversed $138 $-1 #
coedge $-1 $353 $492 $223 $345 reversed $221 $-1 #
edge $-1 $360 -15.791665626269731 $494 15.791665626269731 $344 $495 forward 7 unknown #
coedge $-1 $225 $224 $492 $496 forward $89 $-1 #
edge $-1 $351 -68.515274513992736 $494 68.515274513992736 $343 $497 forward 7 unknown #
coedge $-1 $356 $355 $225 $349 reversed $340 $-1 #
edge $-1 $498 -68.515274513992736 $350 68.515274513992736 $348 $499 forward 7 unknown #
vertex $-1 $227 $500 #
vertex $-1 $362 $501 #
straight-curve $-1 68.515274513992736 0 -15.791665626269731 0 -1 0 I I #
coedge $-1 $342 $344 $228 $354 reversed $221 $-1 #
edge $-1 $357 -42.491932463640346 $360 42.491932463640346 $353 $502 forward 7 unknown #
coedge $-1 $348 $229 $234 $363 forward $340 $-1 #
coedge $-1 $229 $348 $342 $493 reversed $340 $-1 #
vertex $-1 $230 $503 #
straight-curve $-1 0 42.491932463640346 15.791665626269731 -1 0 0 I I #
coedge $-1 $231 $343 $233 $362 reversed $138 $-1 #
vertex $-1 $354 $504 #
straight-curve $-1 0 -42.491932463640346 15.791665626269731 1 0 0 I I #
edge $-1 $236 -15.791665626269731 $351 15.791665626269731 $233 $505 forward 7 unknown #
edge $-1 $237 -15.791665626269731 $350 15.791665626269731 $234 $506 forward 7 unknown #
point $-1 68.515274513992736 -42.491932463640346 15.791665626269731 #
point $-1 68.515274513992736 42.491932463640346 15.791665626269731 #
face $-1 $-1 $383 $34 $-1 $507 reversed single #
loop $-1 $-1 $508 $239 #
plane-surface $-1 -68.515274513992736 0 0 1 0 0 0 0 -1 forward_v I I I I #
coedge $-1 $370 $386 $243 $373 forward $240 $-1 #
coedge $-1 $250 $369 $242 $371 forward $240 $-1 #
edge $-1 $377 2.3333975525920261 $253 7.585655321939627 $370 $509 forward 7 unknown #
coedge $-1 $244 $243 $508 $510 reversed $93 $-1 #
edge $-1 $511 -37.880161108883279 $377 -23.390065701335637 $369 $512 forward 7 unknown #
coedge $-1 $382 $381 $244 $375 forward $383 $-1 #
edge $-1 $376 23.390065701335637 $513 37.880161108883279 $374 $514 forward 7 unknown #
vertex $-1 $375 $515 #
vertex $-1 $373 $516 #
straight-curve $-1 -54.025179106445094 0 7.2929239898578526 0 -1 0 I I #
coedge $-1 $517 $518 $247 $380 forward $367 $-1 #
edge $-1 $387 -42.491932463640346 $384 42.491932463640346 $379 $519 forward 7 unknown #
coedge $-1 $374 $248 $252 $389 forward $383 $-1 #
coedge $-1 $248 $374 $517 $520 reversed $383 $-1 #
loop $-1 $-1 $374 $366 #
vertex $-1 $520 $521 #
straight-curve $-1 -30.635113405109458 42.491932463640346 12.545181759205454 1 0 0 I I #
coedge $-1 $369 $250 $518 $522 forward $240 $-1 #
vertex $-1 $522 $523 #
straight-curve $-1 -30.635113405109458 -42.491932463640346 12.545181759205454 -1 0 0 I I #
edge $-1 $254 -7.585655321939627 $376 -2.3333975525920261 $381 $524 forward 7 unknown #
point $-1 -54.025179106445094 -42.491932463640346 12.545181759205454 #
point $-1 -54.025179106445094 42.491932463640346 12.545181759205454 #
face $-1 $-1 $271 $35 $-1 $525 reversed single #
loop $-1 $-1 $265 $256 #
plane-surface $-1 0 42.491932463640346 0 0 -1 0 0 0 -1 forward_v I I I I #
coedge $-1 $526 $259 $399 $527 reversed $154 $-1 #
coedge $-1 $259 $526 $264 $407 reversed $154 $-1 #
coedge $-1 $265 $402 $259 $398 forward $393 $-1 #
edge $-1 $528 2.3333975525920261 $409 7.585655321939627 $397 $529 forward 7 unknown #
coedge $-1 $261 $260 $395 $527 forward $97 $-1 #
coedge $-1 $412 $411 $260 $401 forward $257 $-1 #
edge $-1 $530 23.390065701335637 $404 37.880161108883279 $400 $531 forward 7 unknown #
coedge $-1 $397 $408 $261 $403 forward $393 $-1 #
edge $-1 $405 -37.880161108883279 $528 -23.390065701335637 $402 $532 forward 7 unknown #
vertex $-1 $263 $533 #
vertex $-1 $263 $534 #
straight-curve $-1 68.515274513992736 0 7.2929239898578526 0 1 0 I I #
edge $-1 $409 -42.491932463640346 $413 42.491932463640346 $396 $535 forward 7 unknown #
coedge $-1 $402 $265 $270 $416 forward $393 $-1 #
vertex $-1 $266 $536 #
straight-curve $-1 30.635113405109458 42.491932463640346 12.545181759205454 1 0 0 I I #
coedge $-1 $400 $267 $526 $537 forward $257 $-1 #
coedge $-1 $267 $400 $269 $415 reversed $257 $-1 #
vertex $-1 $268 $538 #
straight-curve $-1 30.635113405109458 -42.491932463640346 12.545181759205454 -1 0 0 I I #
edge $-1 $273 -12.545181759205454 $404 -7.2929239898578526 $269 $539 forward 7 unknown #
edge $-1 $272 -12.545181759205454 $405 -7.2929239898578526 $270 $540 forward 7 unknown #
point $-1 68.515274513992736 42.491932463640346 12.545181759205454 #
point $-1 68.515274513992736 -42.491932463640346 12.545181759205454 #
loop $-1 $-1 $541 $275 #
plane-surface $-1 0 0 15.791665626269731 0 0 1 1 0 0 forward_v I I I I #
coedge $-1 $422 $278 $286 $434 reversed $162 $-1 #
coedge $-1 $278 $421 $541 $542 reversed $162 $-1 #
coedge $-1 $428 $543 $280 $424 forward $419 $-1 #
edge $-1 $426 15.598124675801365 $432 24.499362311103106 $423 $544 forward 7 unknown #
coedge $-1 $286 $281 $543 $545 reversed $276 $-1 #
vertex $-1 $424 $546 #
straight-curve $-1 36.24915243271154 42.491932463640346 72.199428554538457 0 0 1 I I #
coedge $-1 $541 $423 $283 $429 forward $419 $-1 #
edge $-1 $432 13.680569547922381 $430 31.456596221655936 $428 $547 forward 7 unknown #
vertex $-1 $542 $548 #
straight-curve $-1 54.025179106445094 -1.2779926187812265 73.822908720635738 0 -0.51503806187062418 0.85716730853699208 I I #
vertex $-1 $429 $549 #
straight-curve $-1 36.24915243271154 -1.2779926187812265 73.822908720635738 0 0.51503806187062418 -0.85716730853699208 I I #
edge $-1 $550 56.407762928268724 $287 71.221910602691196 $286 $551 forward 7 unknown #
point $-1 54.025179106445094 42.491932463640346 0.9775179518472612 #
point $-1 36.24915243271154 42.491932463640346 0.9775179518472612 #
edge $-1 $552 1 $552 0 $290 $-1 forward 7 unknown #
vertex $-1 $291 $553 #
ellipse-curve $-1 45.137165769578317 35.701192220394077 6.9785050291262811 0 0.85716730853699208 0.51503806187062418 2 0 0 1 I I #
point $-1 47.137165769578317 38.041313645989497 8.3845917890584865 #
loop $-1 $-1 $554 $294 #
plane-surface $-1 0 0 15.791665626269731 0 0 1 1 0 0 forward_v I I I I #
coedge $-1 $444 $297 $305 $456 reversed $177 $-1 #
coedge $-1 $297 $443 $554 $555 reversed $177 $-1 #
coedge $-1 $450 $556 $299 $446 forward $441 $-1 #
edge $-1 $448 30.463168403377416 $454 35.715956595212432 $445 $557 forward 7 unknown #
coedge $-1 $305 $300 $556 $558 reversed $295 $-1 #
vertex $-1 $446 $559 #
straight-curve $-1 -37.132232541644683 -42.491932463640346 49.824575758567882 0 0 1 I I #
coedge $-1 $554 $445 $302 $451 forward $441 $-1 #
edge $-1 $454 14.342879629622239 $452 31.23582619442265 $450 $560 forward 7 unknown #
vertex $-1 $555 $561 #
straight-curve $-1 -54.025179106445094 -33.3052895459412 20.317047936970994 0 -0.65605901945558975 -0.75470958851134939 I I #
vertex $-1 $451 $562 #
straight-curve $-1 -37.132232541644683 -42.491932463640339 9.7490238863745162 0 -0.65605901945558964 -0.75470958851134928 I I #
edge $-1 $563 34.032910132298149 $306 40.075551872193373 $305 $564 forward 7 unknown #
point $-1 -54.025179106445094 -42.491932463640346 9.7490238863745091 #
point $-1 -37.132232541644683 -42.491932463640346 9.7490238863745073 #
edge $-1 $565 1 $565 0 $309 $-1 forward 7 unknown #
vertex $-1 $310 $566 #
ellipse-curve $-1 -49.198622945073545 -35.745545395850215 9.1888895973619604 0 -0.75470958851134928 0.65605901945558964 1.5 0 0 1 I I #
point $-1 -47.698622945073545 -39.865538367722841 12.770344756322128 #
edge $-1 $567 1 $567 0 $313 $-1 forward 7 unknown #
vertex $-1 $314 $568 #
ellipse-curve $-1 -41.958788703016225 -35.745545395850215 9.1888895973619604 0 -0.75470958851134928 0.65605901945558964 1.5 0 0 1 I I #
point $-1 -40.458788703016225 -39.865538367722841 12.770344756322128 #
loop $-1 $-1 $324 $317 #
plane-surface $-1 0 0 15.791665626269731 0 0 1 1 0 0 forward_v I I I I #
coedge $-1 $569 $570 $321 $471 reversed $318 $-1 #
coedge $-1 $321 $320 $476 $571 reversed $124 $-1 #
edge $-1 $572 -8.0065787315809995 $473 1.0024113862292973e-014 $469 $573 forward 7 unknown #
coedge $-1 $327 $322 $570 $574 forward $199 $-1 #
vertex $-1 $574 $575 #
straight-curve $-1 22.789352912022444 -42.491932463640346 9.749023886374502 1 0 0 I I #
coedge $-1 $576 $324 $327 $480 forward $467 $-1 #
coedge $-1 $324 $576 $470 $571 forward $467 $-1 #
vertex $-1 $325 $577 #
straight-curve $-1 37.132232541644683 -72.955100867017762 15.791665626269733 0 -1 0 I I #
straight-curve $-1 37.132232541644683 -42.491932463640339 9.7490238863745162 0 0.65605901945558964 0.75470958851134928 I I #
edge $-1 $328 37.132232541644683 $578 54.025179106445094 $327 $579 forward 7 unknown #
point $-1 37.132232541644683 -42.491932463640346 15.791665626269731 #
point $-1 37.132232541644683 -42.491932463640346 9.7490238863745073 #
edge $-1 $580 1 $580 0 $331 $-1 forward 7 unknown #
vertex $-1 $332 $581 #
ellipse-curve $-1 41.958788703016225 -35.745545395850215 9.1888895973619604 0 -0.75470958851134928 0.65605901945558964 1.5 0 0 1 I I #
point $-1 43.458788703016225 -39.865538367722841 12.770344756322128 #
edge $-1 $582 1 $582 0 $335 $-1 forward 7 unknown #
vertex $-1 $336 $583 #
ellipse-curve $-1 49.198622945073552 -35.745545395850215 9.1888895973619604 0 -0.75470958851134928 0.65605901945558964 1.5 0 0 1 I I #
point $-1 50.698622945073552 -39.865538367722841 12.770344756322128 #
plane-surface $-1 68.515274513992736 0 0 -1 0 0 0 0 1 forward_v I I I I #
coedge $-1 $344 $342 $346 $496 reversed $221 $-1 #
edge $-1 $357 -15.791665626269731 $498 15.791665626269731 $356 $584 forward 7 unknown #
vertex $-1 $496 $585 #
straight-curve $-1 -68.515274513992736 -42.491932463640346 0 0 0 -1 I I #
edge $-1 $494 -42.491932463640346 $498 42.491932463640346 $492 $586 forward 7 unknown #
straight-curve $-1 0 -42.491932463640346 -15.791665626269731 -1 0 0 I I #
vertex $-1 $349 $587 #
straight-curve $-1 0 42.491932463640346 -15.791665626269731 1 0 0 I I #
point $-1 68.515274513992736 42.491932463640346 -15.791665626269731 #
point $-1 68.515274513992736 -42.491932463640346 -15.791665626269731 #
straight-curve $-1 -68.515274513992736 0 15.791665626269731 0 -1 0 I I #
point $-1 -68.515274513992736 42.491932463640346 15.791665626269731 #
point $-1 -68.515274513992736 -42.491932463640346 15.791665626269731 #
straight-curve $-1 68.515274513992736 -42.491932463640346 0 0 0 -1 I I #
straight-curve $-1 68.515274513992736 42.491932463640346 0 0 0 -1 I I #
plane-surface $-1 0 42.491932463640346 0 0 -1 0 0 0 -1 forward_v I I I I #
coedge $-1 $518 $517 $372 $510 forward $367 $-1 #
straight-curve $-1 -54.025179106445094 -42.491932463640346 4.9595264372658265 0 0 1 I I #
edge $-1 $513 -42.491932463640346 $511 42.491932463640346 $508 $588 forward 7 unknown #
vertex $-1 $373 $589 #
straight-curve $-1 -30.635113405109458 -42.491932463640346 7.2929239898578526 1 0 0 I I #
vertex $-1 $375 $590 #
straight-curve $-1 -30.635113405109458 42.491932463640346 7.2929239898578526 -1 0 0 I I #
point $-1 -54.025179106445094 42.491932463640346 7.2929239898578526 #
point $-1 -54.025179106445094 -42.491932463640346 7.2929239898578526 #
coedge $-1 $508 $379 $382 $520 forward $367 $-1 #
coedge $-1 $379 $508 $386 $522 reversed $367 $-1 #
straight-curve $-1 -68.515274513992736 0 12.545181759205454 0 1 0 I I #
edge $-1 $384 -12.545181759205454 $513 -7.2929239898578526 $382 $591 forward 7 unknown #
point $-1 -68.515274513992736 42.491932463640346 12.545181759205454 #
edge $-1 $387 -12.545181759205454 $511 -7.2929239898578526 $518 $592 forward 7 unknown #
point $-1 -68.515274513992736 -42.491932463640346 12.545181759205454 #
straight-curve $-1 -54.025179106445094 42.491932463640346 4.9595264372658265 0 0 -1 I I #
plane-surface $-1 68.515274513992736 0 0 -1 0 0 0 0 1 forward_v I I I I #
coedge $-1 $396 $395 $411 $537 reversed $154 $-1 #
edge $-1 $530 -42.491932463640346 $528 42.491932463640346 $395 $593 forward 7 unknown #
vertex $-1 $403 $594 #
straight-curve $-1 54.025179106445094 42.491932463640346 4.9595264372658265 0 0 1 I I #
vertex $-1 $401 $595 #
straight-curve $-1 30.635113405109458 -42.491932463640346 7.2929239898578526 1 0 0 I I #
straight-curve $-1 30.635113405109458 42.491932463640346 7.2929239898578526 -1 0 0 I I #
point $-1 68.515274513992736 -42.491932463640346 7.2929239898578526 #
point $-1 68.515274513992736 42.491932463640346 7.2929239898578526 #
straight-curve $-1 54.025179106445094 0 12.545181759205454 0 -1 0 I I #
point $-1 54.025179106445094 42.491932463640346 12.545181759205454 #
edge $-1 $413 -7.585655321939627 $530 -2.3333975525920261 $411 $596 forward 7 unknown #
point $-1 54.025179106445094 -42.491932463640346 12.545181759205454 #
straight-curve $-1 68.515274513992736 -42.491932463640346 0 0 0 -1 I I #
straight-curve $-1 68.515274513992736 42.491932463640346 0 0 0 -1 I I #
coedge $-1 $543 $428 $422 $542 forward $419 $-1 #
edge $-1 $430 -24.499362311103106 $550 -15.598124675801365 $541 $597 forward 7 unknown #
coedge $-1 $423 $541 $425 $545 forward $419 $-1 #
straight-curve $-1 36.24915243271154 58.090057139441711 15.791665626269733 0 -1 0 I I #
edge $-1 $550 -54.025179106445094 $426 -36.24915243271154 $425 $598 forward 7 unknown #
point $-1 36.24915243271154 42.491932463640346 15.791665626269731 #
straight-curve $-1 22.568582884789159 33.590694828338606 15.791665626269733 1 0 0 I I #
point $-1 54.025179106445094 33.590694828338606 15.79166562626974 #
point $-1 36.24915243271154 33.590694828338606 15.79166562626974 #
vertex $-1 $545 $599 #
straight-curve $-1 54.025179106445094 42.491932463640346 72.199428554538457 0 0 -1 I I #
vertex $-1 $437 $600 #
point $-1 47.137165769578317 35.701192220394077 6.9785050291262811 #
coedge $-1 $556 $450 $444 $555 forward $441 $-1 #
edge $-1 $452 -35.715956595212432 $563 -30.463168403377416 $554 $601 forward 7 unknown #
coedge $-1 $445 $554 $447 $558 forward $441 $-1 #
straight-curve $-1 -37.132232541644683 -72.955100867017762 15.791665626269733 0 1 0 I I #
edge $-1 $563 -54.025179106445094 $448 -37.132232541644683 $447 $602 forward 7 unknown #
point $-1 -37.132232541644683 -42.491932463640346 15.791665626269731 #
straight-curve $-1 -22.789352912022444 -37.23914427180533 15.791665626269729 -1 0 0 I I #
point $-1 -54.025179106445094 -37.23914427180533 15.791665626269731 #
point $-1 -37.132232541644683 -37.23914427180533 15.791665626269731 #
vertex $-1 $558 $603 #
straight-curve $-1 -54.025179106445094 -42.491932463640346 49.824575758567882 0 0 -1 I I #
vertex $-1 $459 $604 #
point $-1 -47.698622945073545 -35.745545395850215 9.1888895973619604 #
vertex $-1 $463 $605 #
point $-1 -40.458788703016225 -35.745545395850215 9.1888895973619604 #
coedge $-1 $570 $469 $576 $606 reversed $318 $-1 #
coedge $-1 $469 $569 $472 $574 reversed $318 $-1 #
edge $-1 $572 -31.23582619442265 $477 -14.342879629622239 $476 $607 forward 7 unknown #
vertex $-1 $571 $608 #
straight-curve $-1 54.025179106445094 -42.491932463640339 9.7490238863745162 0 -0.65605901945558964 -0.75470958851134928 I I #
edge $-1 $473 -40.075551872193373 $578 -34.032910132298149 $472 $609 forward 7 unknown #
point $-1 54.025179106445094 -42.491932463640346 9.7490238863745091 #
coedge $-1 $476 $475 $569 $606 forward $467 $-1 #
point $-1 37.132232541644683 -37.23914427180533 15.791665626269731 #
vertex $-1 $574 $610 #
straight-curve $-1 0 -42.491932463640346 15.791665626269731 1 0 0 I I #
vertex $-1 $483 $611 #
point $-1 43.458788703016225 -35.745545395850215 9.1888895973619604 #
vertex $-1 $487 $612 #
point $-1 50.698622945073552 -35.745545395850215 9.1888895973619604 #
straight-curve $-1 -68.515274513992736 42.491932463640346 0 0 0 -1 I I #
point $-1 -68.515274513992736 -42.491932463640346 -15.791665626269731 #
straight-curve $-1 -68.515274513992736 0 -15.791665626269731 0 1 0 I I #
point $-1 -68.515274513992736 42.491932463640346 -15.791665626269731 #
straight-curve $-1 -68.515274513992736 0 7.2929239898578526 0 -1 0 I I #
point $-1 -68.515274513992736 -42.491932463640346 7.2929239898578526 #
point $-1 -68.515274513992736 42.491932463640346 7.2929239898578526 #
straight-curve $-1 -68.515274513992736 42.491932463640346 0 0 0 -1 I I #
straight-curve $-1 -68.515274513992736 -42.491932463640346 0 0 0 -1 I I #
straight-curve $-1 54.025179106445094 0 7.2929239898578526 0 1 0 I I #
point $-1 54.025179106445094 42.491932463640346 7.2929239898578526 #
point $-1 54.025179106445094 -42.491932463640346 7.2929239898578526 #
straight-curve $-1 54.025179106445094 -42.491932463640346 4.9595264372658265 0 0 -1 I I #
straight-curve $-1 54.025179106445094 58.090057139441711 15.791665626269733 0 1 0 I I #
straight-curve $-1 0 42.491932463640346 15.791665626269731 -1 0 0 I I #
point $-1 54.025179106445094 42.491932463640346 15.791665626269731 #
point $-1 45.137165769578317 33.98685760332009 5.9484289053850334 #
straight-curve $-1 -54.025179106445094 -72.955100867017762 15.791665626269733 0 -1 0 I I #
straight-curve $-1 0 -42.491932463640346 15.791665626269731 1 0 0 I I #
point $-1 -54.025179106445094 -42.491932463640346 15.791665626269731 #
point $-1 -49.198622945073545 -34.613481013083188 8.2048010681785755 #
point $-1 -41.958788703016225 -34.613481013083188 8.2048010681785755 #
edge $-1 $578 30.463168403377416 $572 35.715956595212432 $576 $613 forward 7 unknown #
straight-curve $-1 22.789352912022444 -37.23914427180533 15.791665626269729 -1 0 0 I I #
point $-1 54.025179106445094 -37.23914427180533 15.791665626269731 #
straight-curve $-1 54.025179106445094 -42.491932463640346 49.824575758567882 0 0 1 I I #
point $-1 54.025179106445094 -42.491932463640346 15.791665626269731 #
point $-1 41.958788703016225 -34.613481013083188 8.2048010681785755 #
point $-1 49.198622945073552 -34.613481013083188 8.2048010681785755 #
straight-curve $-1 54.025179106445094 -72.955100867017762 15.791665626269733 0 1 0 I I #
End-of-ACIS-data 