500 0 9 0           
7 Unknown 11 ACIS 5.0 NT 24 Fri Mar 26 15:36:56 1999 
-1 9.9999999999999995e-007 1e-010 
body $-1 $9 $-1 $10 #
body $-1 $11 $-1 $12 #
body $-1 $13 $-1 $14 #
body $-1 $15 $-1 $16 #
body $-1 $17 $-1 $18 #
body $-1 $19 $-1 $20 #
body $-1 $21 $-1 $22 #
body $-1 $23 $-1 $24 #
body $-1 $25 $-1 $26 #
lump $-1 $-1 $27 $0 #
transform $-1 1 0 0 0 1 0 0 0 1 47.881099887081518 23.485805893586239 11.210284691856021 1 rotate no_reflect no_shear #
lump $-1 $-1 $28 $1 #
transform $-1 1 0 0 0 1 0 0 0 1 47.881099887081518 23.485805893586239 11.210284691856021 1 rotate no_reflect no_shear #
lump $-1 $-1 $29 $2 #
transform $-1 1 0 0 0 1 0 0 0 1 47.881099887081518 23.485805893586239 11.210284691856021 1 rotate no_reflect no_shear #
lump $-1 $-1 $30 $3 #
transform $-1 1 0 0 0 1 0 0 0 1 47.881099887081518 23.485805893586239 11.210284691856021 1 rotate no_reflect no_shear #
lump $-1 $-1 $31 $4 #
transform $-1 1 0 0 0 1 0 0 0 1 47.881099887081518 23.485805893586239 11.210284691856021 1 rotate no_reflect no_shear #
lump $-1 $-1 $32 $5 #
transform $-1 1 0 0 0 1 0 0 0 1 47.881099887081518 23.485805893586239 11.210284691856021 1 rotate no_reflect no_shear #
lump $-1 $-1 $33 $6 #
transform $-1 1 0 0 0 1 0 0 0 1 47.881099887081518 23.485805893586239 11.210284691856021 1 rotate no_reflect no_shear #
lump $-1 $-1 $34 $7 #
transform $-1 1 0 0 0 1 0 0 0 1 47.881099887081518 23.485805893586239 11.210284691856021 1 rotate no_reflect no_shear #
lump $-1 $-1 $35 $8 #
transform $-1 1 0 0 0 1 0 0 0 1 47.881099887081518 23.485805893586239 11.210284691856021 1 rotate no_reflect no_shear #
shell $-1 $-1 $-1 $36 $-1 $9 #
shell $-1 $-1 $-1 $37 $-1 $11 #
shell $-1 $-1 $-1 $38 $-1 $13 #
shell $-1 $-1 $-1 $39 $-1 $15 #
shell $-1 $-1 $-1 $40 $-1 $17 #
shell $-1 $-1 $-1 $41 $-1 $19 #
shell $-1 $-1 $-1 $42 $-1 $21 #
shell $-1 $-1 $-1 $43 $-1 $23 #
shell $-1 $-1 $-1 $44 $-1 $25 #
face $-1 $45 $46 $27 $-1 $47 forward single #
face $-1 $48 $49 $28 $-1 $50 forward single #
face $-1 $51 $52 $29 $-1 $53 reversed single #
face $-1 $54 $55 $30 $-1 $56 reversed single #
face $-1 $57 $58 $31 $-1 $59 forward single #
face $-1 $60 $61 $32 $-1 $62 forward single #
face $-1 $63 $64 $33 $-1 $65 forward single #
face $-1 $66 $67 $34 $-1 $68 reversed single #
face $-1 $69 $70 $35 $-1 $71 forward single #
face $-1 $72 $73 $27 $-1 $74 reversed single #
loop $-1 $-1 $75 $36 #
plane-surface $-1 0 0 11.210284691856021 0 0 1 1 0 0 forward_v I I I I #
face $-1 $76 $77 $28 $-1 $78 reversed single #
loop $-1 $-1 $79 $37 #
plane-surface $-1 0 -17.321240679628342 -7.4893063183227575 0 0 1 1 0 0 forward_v I I I I #
face $-1 $80 $81 $29 $-1 $82 reversed single #
loop $-1 $-1 $83 $38 #
plane-surface $-1 0 18.28280988821556 5.2407490775392098 0 0 1 1 0 0 forward_v I I I I #
face $-1 $84 $85 $30 $-1 $86 reversed single #
loop $-1 $-1 $87 $39 #
plane-surface $-1 -128.19403912589357 -2.4836640758478836 55.80156112010161 0 1 0 -0.83867057594974714 0 0.54463902268945019 forward_v I I I I #
face $-1 $88 $89 $31 $-1 $90 forward single #
loop $-1 $91 $92 $40 #
cone-surface $-1 -44.633431761838452 -1.103861194681059 6.9140477004895047 0.83867057594974714 0 -0.54463902268945019 0.2723195113447251 0 0.41933528797487357 1 I I 0 1 0.5 forward I I I I #
face $-1 $93 $94 $32 $-1 $95 forward single #
loop $-1 $96 $97 $41 #
cone-surface $-1 -44.633431761838452 0.96584312706917785 6.9140477004895047 0.83867057594974714 0 -0.54463902268945019 0.2723195113447251 0 0.41933528797487357 1 I I 0 1 0.5 forward I I I I #
face $-1 $98 $99 $33 $-1 $100 forward single #
loop $-1 $101 $102 $42 #
cone-surface $-1 -44.633431761838452 3.0355474488194147 6.9140477004895047 0.83867057594974714 0 -0.54463902268945019 0.2723195113447251 0 0.41933528797487357 1 I I 0 1 0.5 forward I I I I #
face $-1 $103 $104 $34 $-1 $105 reversed single #
loop $-1 $-1 $106 $43 #
plane-surface $-1 -17.428562466162845 9.5783897422192652 73.996230188192257 0.73135370988377701 0 0.68199835119979291 0.68199835119979291 0 -0.73135370988377701 forward_v I I I I #
face $-1 $107 $108 $35 $-1 $109 forward single #
loop $-1 $110 $111 $44 #
cone-surface $-1 43.356942726781149 9.5783897422192652 6.5186770689019147 -0.73135370988377701 0 -0.68199835119979291 0.68199835119979291 0 -0.73135370988377701 1 I I 0 1 1 forward I I I I #
face $-1 $112 $113 $27 $-1 $114 reversed single #
loop $-1 $-1 $115 $45 #
plane-surface $-1 0 0 -11.210284691856021 0 0 1 1 0 0 forward_v I I I I #
coedge $-1 $116 $117 $118 $119 forward $46 $-1 #
face $-1 $120 $121 $28 $-1 $122 reversed single #
loop $-1 $-1 $123 $48 #
plane-surface $-1 0 -11.156675465670446 -9.3497955050893893 0 -1 0 0 0 -1 forward_v I I I I #
coedge $-1 $124 $125 $126 $127 reversed $49 $-1 #
face $-1 $128 $129 $29 $-1 $130 reversed single #
loop $-1 $-1 $131 $51 #
plane-surface $-1 0 13.079813882844881 8.2255168846976154 0 1 0 0 0 1 forward_v I I I I #
coedge $-1 $132 $133 $134 $135 reversed $52 $-1 #
face $-1 $136 $137 $30 $-1 $138 reversed single #
loop $-1 $-1 $139 $54 #
plane-surface $-1 -47.881099887081504 0.9658431270691743 3.6457302245095633 -0.83867057594974714 0 0.54463902268945019 0.54463902268945019 0 0.83867057594974714 forward_v I I I I #
coedge $-1 $140 $141 $142 $143 reversed $55 $-1 #
face $-1 $-1 $144 $31 $-1 $145 forward single #
loop $-1 $146 $147 $57 #
cone-surface $-1 -43.632335468704433 -1.103861194681059 6.2639281871238488 0.83867057594974714 0 -0.54463902268945019 0.13615975567236255 0 0.20966764398743679 1 I I -0.70710678118654746 0.70710678118654746 0.25 forward I I I I #
loop $-1 $-1 $148 $40 #
coedge $-1 $92 $92 $149 $150 reversed $58 $-1 #
face $-1 $-1 $151 $32 $-1 $152 forward single #
loop $-1 $153 $154 $60 #
cone-surface $-1 -43.632335468704433 0.96584312706917785 6.2639281871238488 0.83867057594974714 0 -0.54463902268945019 0.13615975567236255 0 0.20966764398743679 1 I I -0.70710678118654746 0.70710678118654746 0.25 forward I I I I #
loop $-1 $-1 $155 $41 #
coedge $-1 $97 $97 $156 $157 reversed $61 $-1 #
face $-1 $-1 $158 $33 $-1 $159 forward single #
loop $-1 $160 $161 $63 #
cone-surface $-1 -43.632335468704433 3.0355474488194147 6.2639281871238488 0.83867057594974714 0 -0.54463902268945019 0.13615975567236255 0 0.20966764398743679 1 I I -0.70710678118654746 0.70710678118654746 0.25 forward I I I I #
loop $-1 $-1 $162 $42 #
coedge $-1 $102 $102 $163 $164 reversed $64 $-1 #
face $-1 $165 $166 $34 $-1 $167 forward single #
loop $-1 $-1 $168 $66 #
plane-surface $-1 52.607477605302691 6.0769656015936491 139.30589254143663 0 1 0 0.73135370988377701 0 0.68199835119979291 forward_v I I I I #
coedge $-1 $169 $170 $171 $172 reversed $67 $-1 #
face $-1 $-1 $173 $35 $-1 $174 forward single #
loop $-1 $175 $176 $69 #
cone-surface $-1 41.847519913026147 9.5783897422192652 5.1111175579125536 -0.73135370988377701 0 -0.68199835119979291 0.34099917559989645 0 -0.36567685494188851 1 I I -0.70710678118654746 0.70710678118654746 0.5 forward I I I I #
loop $-1 $-1 $177 $44 #
coedge $-1 $111 $111 $178 $179 reversed $70 $-1 #
face $-1 $180 $181 $27 $-1 $182 reversed single #
loop $-1 $-1 $183 $72 #
plane-surface $-1 0 -23.485805893586239 0 0 1 0 0 0 1 forward_v I I I I #
coedge $-1 $184 $185 $186 $187 forward $73 $-1 #
coedge $-1 $188 $75 $189 $190 forward $46 $-1 #
coedge $-1 $75 $188 $191 $192 forward $46 $-1 #
coedge $-1 $193 $194 $75 $119 reversed $195 $-1 #
edge $-1 $196 -23.485805893586239 $197 23.485805893586239 $118 $198 forward 7 unknown #
face $-1 $199 $200 $28 $-1 $201 reversed single #
loop $-1 $-1 $202 $76 #
plane-surface $-1 0 0 -11.210284691856021 0 0 1 1 0 0 forward_v I I I I #
coedge $-1 $203 $204 $205 $206 reversed $77 $-1 #
coedge $-1 $207 $79 $204 $208 forward $49 $-1 #
coedge $-1 $79 $207 $209 $210 reversed $49 $-1 #
coedge $-1 $211 $205 $79 $127 forward $200 $-1 #
edge $-1 $212 2.4960551258562749 $213 14.825185553772068 $126 $214 forward 7 unknown #
face $-1 $215 $216 $29 $-1 $217 reversed single #
loop $-1 $-1 $218 $80 #
plane-surface $-1 0 23.485805893586239 0 0 -1 0 0 0 -1 forward_v I I I I #
coedge $-1 $219 $220 $221 $222 reversed $81 $-1 #
coedge $-1 $223 $83 $224 $225 forward $52 $-1 #
coedge $-1 $83 $223 $218 $226 reversed $52 $-1 #
coedge $-1 $227 $228 $83 $135 forward $229 $-1 #
edge $-1 $230 3.9384089387371013 $231 14.344400949478459 $134 $232 forward 7 unknown #
face $-1 $233 $234 $30 $-1 $235 reversed single #
loop $-1 $-1 $236 $84 #
plane-surface $-1 -128.19403912589357 4.4153503299862322 55.80156112010161 0 -1 0 0.83867057594974714 0 -0.54463902268945019 forward_v I I I I #
coedge $-1 $237 $238 $239 $240 reversed $85 $-1 #
coedge $-1 $141 $87 $241 $242 reversed $55 $-1 #
coedge $-1 $87 $140 $237 $243 reversed $55 $-1 #
coedge $-1 $239 $244 $87 $143 forward $245 $-1 #
edge $-1 $246 16.215919675865266 $247 21.12839862805825 $142 $248 forward 7 unknown #
loop $-1 $-1 $149 $88 #
plane-surface $-1 -47.881099887081504 0.9658431270691743 3.6457302245095633 -0.83867057594974714 0 0.54463902268945019 0.54463902268945019 0 0.83867057594974714 forward_v I I I I #
loop $-1 $-1 $249 $57 #
coedge $-1 $147 $147 $148 $250 reversed $89 $-1 #
coedge $-1 $148 $148 $147 $250 forward $91 $-1 #
coedge $-1 $149 $149 $92 $150 forward $144 $-1 #
edge $-1 $251 0 $251 6.2831853071796004 $149 $252 forward 7 unknown #
loop $-1 $-1 $156 $93 #
plane-surface $-1 -47.881099887081504 0.9658431270691743 3.6457302245095633 -0.83867057594974714 0 0.54463902268945019 0.54463902268945019 0 0.83867057594974714 forward_v I I I I #
loop $-1 $-1 $253 $60 #
coedge $-1 $154 $154 $155 $254 reversed $94 $-1 #
coedge $-1 $155 $155 $154 $254 forward $96 $-1 #
coedge $-1 $156 $156 $97 $157 forward $151 $-1 #
edge $-1 $255 0 $255 6.2831853071796004 $156 $256 forward 7 unknown #
loop $-1 $-1 $163 $98 #
plane-surface $-1 -47.881099887081504 0.9658431270691743 3.6457302245095633 -0.83867057594974714 0 0.54463902268945019 0.54463902268945019 0 0.83867057594974714 forward_v I I I I #
loop $-1 $-1 $257 $63 #
coedge $-1 $161 $161 $162 $258 reversed $99 $-1 #
coedge $-1 $162 $162 $161 $258 forward $101 $-1 #
coedge $-1 $163 $163 $102 $164 forward $158 $-1 #
edge $-1 $259 0 $259 6.2831853071796004 $163 $260 forward 7 unknown #
face $-1 $261 $262 $34 $-1 $263 forward single #
loop $-1 $-1 $171 $103 #
plane-surface $-1 0 0 11.210284691856021 0 0 1 1 0 0 forward_v I I I I #
coedge $-1 $264 $265 $266 $267 reversed $104 $-1 #
coedge $-1 $268 $106 $269 $270 reversed $67 $-1 #
coedge $-1 $106 $268 $264 $271 forward $67 $-1 #
coedge $-1 $266 $272 $106 $172 forward $166 $-1 #
edge $-1 $273 -8.2906190117352487 $274 -1.2877707304840165 $171 $275 forward 7 unknown #
loop $-1 $-1 $178 $107 #
plane-surface $-1 -17.428562466162845 9.5783897422192652 73.996230188192257 0.73135370988377701 0 0.68199835119979291 0.68199835119979291 0 -0.73135370988377701 forward_v I I I I #
loop $-1 $-1 $276 $69 #
coedge $-1 $176 $176 $177 $277 reversed $108 $-1 #
coedge $-1 $177 $177 $176 $277 forward $110 $-1 #
coedge $-1 $178 $178 $111 $179 forward $173 $-1 #
edge $-1 $278 0 $278 6.2831853071796004 $178 $279 forward 7 unknown #
face $-1 $280 $281 $27 $-1 $282 reversed single #
loop $-1 $-1 $283 $112 #
plane-surface $-1 -47.881099887081518 0 0 1 0 0 0 0 -1 forward_v I I I I #
coedge $-1 $284 $191 $285 $286 forward $113 $-1 #
coedge $-1 $287 $115 $284 $288 forward $73 $-1 #
coedge $-1 $115 $287 $289 $290 forward $73 $-1 #
coedge $-1 $194 $193 $115 $187 reversed $195 $-1 #
edge $-1 $291 -23.485805893586239 $292 23.485805893586239 $186 $293 forward 7 unknown #
coedge $-1 $117 $116 $294 $295 forward $46 $-1 #
coedge $-1 $296 $297 $116 $190 reversed $281 $-1 #
edge $-1 $197 -47.881099887081518 $298 47.881099887081518 $189 $299 forward 7 unknown #
coedge $-1 $183 $300 $117 $192 reversed $113 $-1 #
edge $-1 $301 -47.881099887081518 $196 47.881099887081518 $191 $302 forward 7 unknown #
coedge $-1 $186 $118 $300 $303 forward $195 $-1 #
coedge $-1 $118 $186 $296 $304 reversed $195 $-1 #
loop $-1 $-1 $193 $280 #
vertex $-1 $119 $305 #
vertex $-1 $119 $306 #
straight-curve $-1 47.881099887081518 0 11.210284691856021 0 1 0 I I #
face $-1 $307 $308 $28 $-1 $309 reversed single #
loop $-1 $-1 $205 $120 #
plane-surface $-1 47.881099887081518 0 0 -1 0 0 0 0 1 forward_v I I I I #
coedge $-1 $310 $311 $203 $312 forward $121 $-1 #
coedge $-1 $313 $123 $202 $312 reversed $77 $-1 #
coedge $-1 $123 $313 $124 $208 reversed $77 $-1 #
coedge $-1 $126 $314 $123 $206 forward $200 $-1 #
edge $-1 $315 -6.5353869393113264 $212 -2.8144085657780629 $205 $316 forward 7 unknown #
coedge $-1 $125 $124 $317 $318 reversed $49 $-1 #
edge $-1 $212 -47.881099887081518 $319 47.881099887081518 $204 $320 forward 7 unknown #
coedge $-1 $321 $322 $125 $210 forward $308 $-1 #
edge $-1 $213 -47.881099887081518 $323 47.881099887081518 $209 $324 forward 7 unknown #
coedge $-1 $314 $126 $322 $325 forward $200 $-1 #
vertex $-1 $127 $326 #
vertex $-1 $325 $327 #
straight-curve $-1 47.881099887081518 -8.6606203398141712 -7.4893063183227575 0 -1 0 I I #
face $-1 $328 $329 $29 $-1 $330 forward single #
loop $-1 $-1 $331 $128 #
plane-surface $-1 -47.881099887081518 0 0 1 0 0 0 0 -1 forward_v I I I I #
coedge $-1 $332 $333 $133 $226 forward $129 $-1 #
coedge $-1 $224 $131 $334 $335 reversed $81 $-1 #
coedge $-1 $131 $224 $228 $336 reversed $81 $-1 #
coedge $-1 $337 $338 $131 $222 forward $329 $-1 #
edge $-1 $339 -47.881099887081518 $340 47.881099887081518 $221 $341 forward 7 unknown #
coedge $-1 $133 $132 $331 $342 reversed $52 $-1 #
coedge $-1 $220 $219 $132 $225 reversed $81 $-1 #
edge $-1 $230 -47.881099887081518 $343 47.881099887081518 $224 $344 forward 7 unknown #
edge $-1 $231 -47.881099887081518 $345 47.881099887081518 $218 $346 forward 7 unknown #
coedge $-1 $347 $134 $333 $348 reversed $229 $-1 #
coedge $-1 $134 $347 $220 $336 forward $229 $-1 #
loop $-1 $-1 $134 $328 #
vertex $-1 $135 $349 #
vertex $-1 $226 $350 #
straight-curve $-1 47.881099887081518 9.14140494410778 5.2407490775392098 0 1 0 I I #
face $-1 $-1 $245 $30 $-1 $351 forward single #
loop $-1 $-1 $352 $136 #
plane-surface $-1 -47.881099887081518 0 0 1 0 0 0 0 -1 forward_v I I I I #
coedge $-1 $353 $354 $355 $356 reversed $137 $-1 #
coedge $-1 $357 $139 $141 $243 forward $85 $-1 #
coedge $-1 $139 $357 $353 $358 forward $85 $-1 #
coedge $-1 $355 $142 $139 $240 forward $245 $-1 #
edge $-1 $247 -2.9665856393824708 $359 3.9324287664516451 $239 $360 forward 7 unknown #
coedge $-1 $361 $362 $140 $242 forward $234 $-1 #
edge $-1 $363 -24.255050335541263 $246 -16.690495868194784 $241 $364 forward 7 unknown #
edge $-1 $247 -9.019696987437559 $363 2.5989569140172373e-014 $141 $365 forward 7 unknown #
coedge $-1 $142 $355 $361 $366 forward $245 $-1 #
loop $-1 $-1 $355 $233 #
vertex $-1 $242 $367 #
vertex $-1 $143 $368 #
straight-curve $-1 -64.097019562946784 -2.4836640758478836 11.210284691856021 1 0 0 I I #
coedge $-1 $249 $249 $-1 $369 reversed $146 $-1 #
edge $-1 $370 0 $370 6.2831853071796004 $147 $371 forward 7 unknown #
vertex $-1 $150 $372 #
ellipse-curve $-1 -45.424860410985019 -1.103861194681059 7.4280074581827886 -0.83867057594974714 0 0.54463902268945019 0.2723195113447251 0 0.41933528797487357 1 I I #
coedge $-1 $253 $253 $-1 $373 reversed $153 $-1 #
edge $-1 $374 0 $374 6.2831853071796004 $154 $375 forward 7 unknown #
vertex $-1 $157 $376 #
ellipse-curve $-1 -45.424860410985019 0.96584312706917785 7.4280074581827886 -0.83867057594974714 0 0.54463902268945019 0.2723195113447251 0 0.41933528797487357 1 I I #
coedge $-1 $257 $257 $-1 $377 reversed $160 $-1 #
edge $-1 $378 0 $378 6.2831853071796004 $161 $379 forward 7 unknown #
vertex $-1 $164 $380 #
ellipse-curve $-1 -45.424860410985019 3.0355474488194147 7.4280074581827886 -0.83867057594974714 0 0.54463902268945019 0.2723195113447251 0 0.41933528797487357 1 I I #
face $-1 $-1 $381 $34 $-1 $382 reversed single #
loop $-1 $-1 $269 $165 #
plane-surface $-1 0 13.079813882844881 8.2255168846976154 0 1 0 0 0 1 forward_v I I I I #
coedge $-1 $265 $168 $170 $271 reversed $104 $-1 #
coedge $-1 $168 $264 $383 $384 reversed $104 $-1 #
coedge $-1 $385 $171 $168 $267 forward $166 $-1 #
edge $-1 $274 14.816538681455697 $386 21.577361084430173 $266 $387 forward 7 unknown #
coedge $-1 $170 $169 $388 $389 reversed $67 $-1 #
coedge $-1 $390 $391 $169 $270 forward $262 $-1 #
edge $-1 $392 -65.768246753203641 $273 -55.854993457091382 $269 $393 forward 7 unknown #
edge $-1 $394 -95.762199774163022 $274 -85.848946478050749 $264 $395 forward 7 unknown #
coedge $-1 $171 $385 $390 $396 forward $166 $-1 #
vertex $-1 $172 $397 #
vertex $-1 $172 $398 #
straight-curve $-1 41.120277484107035 4.7891948711096326 11.210284691856018 0 -1 0 I I #
coedge $-1 $276 $276 $-1 $399 reversed $175 $-1 #
edge $-1 $400 0 $400 6.2831853071796004 $176 $401 forward 7 unknown #
vertex $-1 $179 $402 #
ellipse-curve $-1 44.50068868559427 9.5783897422192652 7.5852374042913873 0.73135370988377701 0 0.68199835119979291 0.68199835119979291 0 -0.73135370988377701 1 I I #
face $-1 $-1 $195 $27 $-1 $403 reversed single #
loop $-1 $-1 $296 $180 #
plane-surface $-1 0 23.485805893586239 0 0 -1 0 0 0 -1 forward_v I I I I #
coedge $-1 $404 $294 $297 $405 forward $181 $-1 #
coedge $-1 $300 $183 $184 $288 reversed $113 $-1 #
coedge $-1 $294 $404 $183 $286 reversed $181 $-1 #
edge $-1 $301 -11.210284691856021 $406 11.210284691856021 $285 $407 forward 7 unknown #
coedge $-1 $185 $184 $404 $408 forward $73 $-1 #
edge $-1 $292 -47.881099887081518 $406 47.881099887081518 $284 $409 forward 7 unknown #
coedge $-1 $297 $296 $185 $290 reversed $281 $-1 #
edge $-1 $410 -47.881099887081518 $291 47.881099887081518 $289 $411 forward 7 unknown #
vertex $-1 $187 $412 #
vertex $-1 $303 $413 #
straight-curve $-1 47.881099887081518 0 -11.210284691856021 0 -1 0 I I #
coedge $-1 $283 $285 $188 $295 reversed $181 $-1 #
edge $-1 $298 -23.485805893586239 $301 23.485805893586239 $294 $414 forward 7 unknown #
coedge $-1 $289 $189 $194 $304 forward $281 $-1 #
coedge $-1 $189 $289 $283 $405 reversed $281 $-1 #
vertex $-1 $190 $415 #
straight-curve $-1 0 23.485805893586239 11.210284691856021 -1 0 0 I I #
coedge $-1 $191 $284 $193 $303 reversed $113 $-1 #
vertex $-1 $295 $416 #
straight-curve $-1 0 -23.485805893586239 11.210284691856021 1 0 0 I I #
edge $-1 $196 -11.210284691856021 $292 11.210284691856021 $193 $417 forward 7 unknown #
edge $-1 $197 -11.210284691856021 $291 11.210284691856021 $194 $418 forward 7 unknown #
point $-1 47.881099887081518 -23.485805893586239 11.210284691856021 #
point $-1 47.881099887081518 23.485805893586239 11.210284691856021 #
face $-1 $-1 $419 $28 $-1 $420 reversed single #
loop $-1 $-1 $209 $199 #
plane-surface $-1 0 -23.485805893586239 0 0 1 0 0 0 1 forward_v I I I I #
coedge $-1 $421 $202 $314 $422 forward $121 $-1 #
coedge $-1 $202 $421 $423 $424 forward $121 $-1 #
edge $-1 $425 -47.881099887081518 $315 47.881099887081518 $202 $426 forward 7 unknown #
coedge $-1 $204 $203 $427 $428 reversed $77 $-1 #
coedge $-1 $205 $211 $310 $422 reversed $200 $-1 #
vertex $-1 $422 $429 #
straight-curve $-1 47.881099887081518 -11.156675465670446 -4.6748977525446946 0 0 1 I I #
coedge $-1 $427 $430 $207 $318 forward $419 $-1 #
edge $-1 $323 -14.825185553772068 $319 -2.4960551258562749 $317 $431 forward 7 unknown #
vertex $-1 $318 $432 #
straight-curve $-1 0 -11.156675465670446 -7.4893063183227575 -1 0 0 I I #
coedge $-1 $433 $209 $430 $434 forward $308 $-1 #
coedge $-1 $209 $433 $211 $325 reversed $308 $-1 #
vertex $-1 $434 $435 #
straight-curve $-1 0 -23.485805893586239 -7.4893063183227575 -1 0 0 I I #
edge $-1 $213 7.4893063183227575 $436 11.210284691856021 $211 $437 forward 7 unknown #
point $-1 47.881099887081518 -11.156675465670446 -7.4893063183227575 #
point $-1 47.881099887081518 -23.485805893586239 -7.4893063183227575 #
face $-1 $-1 $229 $29 $-1 $438 reversed single #
loop $-1 $-1 $221 $215 #
plane-surface $-1 0 0 11.210284691856021 0 0 1 1 0 0 forward_v I I I I #
coedge $-1 $334 $439 $223 $342 forward $216 $-1 #
coedge $-1 $440 $218 $439 $441 reversed $129 $-1 #
coedge $-1 $218 $440 $227 $348 forward $129 $-1 #
coedge $-1 $442 $331 $219 $335 forward $216 $-1 #
edge $-1 $343 1.1279906351904021 $339 7.0975262495072133 $334 $443 forward 7 unknown #
edge $-1 $340 -7.0975262495072133 $230 -1.1279906351904021 $228 $444 forward 7 unknown #
coedge $-1 $445 $221 $347 $446 forward $329 $-1 #
coedge $-1 $221 $445 $442 $447 forward $329 $-1 #
vertex $-1 $335 $448 #
vertex $-1 $446 $449 #
straight-curve $-1 0 13.079813882844881 11.210284691856021 1 0 0 I I #
edge $-1 $345 -14.344400949478459 $343 -3.9384089387371013 $331 $450 forward 7 unknown #
vertex $-1 $342 $451 #
straight-curve $-1 0 13.079813882844881 5.2407490775392098 -1 0 0 I I #
vertex $-1 $226 $452 #
straight-curve $-1 0 23.485805893586239 5.2407490775392098 -1 0 0 I I #
coedge $-1 $228 $227 $337 $446 reversed $229 $-1 #
edge $-1 $453 -11.210284691856021 $231 -5.2407490775392098 $227 $454 forward 7 unknown #
point $-1 47.881099887081518 13.079813882844881 5.2407490775392098 #
point $-1 47.881099887081518 23.485805893586239 5.2407490775392098 #
plane-surface $-1 0 0 11.210284691856021 0 0 1 1 0 0 forward_v I I I I #
coedge $-1 $362 $361 $354 $455 forward $234 $-1 #
coedge $-1 $354 $236 $238 $358 reversed $137 $-1 #
coedge $-1 $236 $353 $352 $455 reversed $137 $-1 #
coedge $-1 $244 $239 $236 $356 forward $245 $-1 #
edge $-1 $359 -21.12839862805825 $456 -16.215919675865266 $355 $457 forward 7 unknown #
coedge $-1 $238 $237 $362 $458 reversed $85 $-1 #
edge $-1 $459 -2.5989569140172373e-014 $359 9.019696987437559 $353 $460 forward 7 unknown #
vertex $-1 $240 $461 #
straight-curve $-1 -42.968620934888534 0.48292156353458715 11.210284691856021 0 1 0 I I #
coedge $-1 $352 $241 $244 $366 reversed $234 $-1 #
coedge $-1 $241 $352 $357 $458 forward $234 $-1 #
vertex $-1 $242 $462 #
straight-curve $-1 -47.881099887081518 -2.4836640758478836 27.900780560050805 0 0 1 I I #
straight-curve $-1 -47.881099887081504 -2.4836640758478836 3.6457302245095633 -0.54463902268945019 0 -0.83867057594974714 I I #
edge $-1 $456 -4.4153503299862322 $246 2.4836640758478836 $361 $463 forward 7 unknown #
point $-1 -47.881099887081518 -2.4836640758478836 11.210284691856021 #
point $-1 -42.968620934888534 -2.4836640758478836 11.210284691856021 #
edge $-1 $464 1 $464 0 $249 $-1 forward 7 unknown #
vertex $-1 $250 $465 #
ellipse-curve $-1 -43.84200311269187 -1.103861194681059 6.400087942796211 -0.83867057594974714 0 0.54463902268945019 0.2723195113447251 0 0.41933528797487357 1 I I #
point $-1 -45.152540899640314 -1.103861194681059 7.8473427461576728 #
edge $-1 $466 1 $466 0 $253 $-1 forward 7 unknown #
vertex $-1 $254 $467 #
ellipse-curve $-1 -43.84200311269187 0.96584312706917785 6.400087942796211 -0.83867057594974714 0 0.54463902268945019 0.2723195113447251 0 0.41933528797487357 1 I I #
point $-1 -45.152540899640314 0.96584312706917785 7.8473427461576728 #
edge $-1 $468 1 $468 0 $257 $-1 forward 7 unknown #
vertex $-1 $258 $469 #
ellipse-curve $-1 -43.84200311269187 3.0355474488194147 6.400087942796211 -0.83867057594974714 0 0.54463902268945019 0.2723195113447251 0 0.41933528797487357 1 I I #
point $-1 -45.152540899640314 3.0355474488194147 7.8473427461576728 #
loop $-1 $-1 $470 $261 #
plane-surface $-1 47.881099887081518 0 0 -1 0 0 0 0 1 forward_v I I I I #
coedge $-1 $388 $471 $265 $384 forward $381 $-1 #
edge $-1 $386 58.4426615788623 $394 65.692756153991581 $383 $472 forward 7 unknown #
coedge $-1 $272 $266 $471 $473 forward $166 $-1 #
vertex $-1 $473 $474 #
straight-curve $-1 26.303738802651345 6.0769656015936491 11.210284691856018 1 0 0 I I #
coedge $-1 $470 $383 $268 $389 forward $381 $-1 #
edge $-1 $394 1.2877707304840165 $392 8.2906190117352487 $388 $475 forward 7 unknown #
coedge $-1 $391 $269 $272 $396 reversed $262 $-1 #
coedge $-1 $269 $390 $470 $476 reversed $262 $-1 #
vertex $-1 $476 $477 #
straight-curve $-1 3.0272640400954955 13.079813882844881 52.06004137223389 -0.68199835119979291 0 0.73135370988377701 I I #
vertex $-1 $389 $478 #
straight-curve $-1 -17.428562466162845 6.0769656015936491 73.996230188192257 -0.68199835119979291 0 0.73135370988377701 I I #
edge $-1 $479 -47.881099887081518 $273 -41.120277484107042 $272 $480 forward 7 unknown #
point $-1 41.120277484107042 13.079813882844881 11.210284691856018 #
point $-1 41.120277484107042 6.0769656015936491 11.210284691856018 #
edge $-1 $481 1 $481 0 $276 $-1 forward 7 unknown #
vertex $-1 $277 $482 #
ellipse-curve $-1 42.213196767968036 9.5783897422192652 5.4521167335124501 0.73135370988377701 0 0.68199835119979291 0.68199835119979291 0 -0.73135370988377701 1 I I #
point $-1 45.182687036794057 9.5783897422192652 6.8538836944076023 #
plane-surface $-1 47.881099887081518 0 0 -1 0 0 0 0 1 forward_v I I I I #
coedge $-1 $285 $283 $287 $408 reversed $181 $-1 #
edge $-1 $298 -11.210284691856021 $410 11.210284691856021 $297 $483 forward 7 unknown #
vertex $-1 $408 $484 #
straight-curve $-1 -47.881099887081518 -23.485805893586239 0 0 0 -1 I I #
edge $-1 $406 -23.485805893586239 $410 23.485805893586239 $404 $485 forward 7 unknown #
straight-curve $-1 0 -23.485805893586239 -11.210284691856021 -1 0 0 I I #
vertex $-1 $290 $486 #
straight-curve $-1 0 23.485805893586239 -11.210284691856021 1 0 0 I I #
point $-1 47.881099887081518 23.485805893586239 -11.210284691856021 #
point $-1 47.881099887081518 -23.485805893586239 -11.210284691856021 #
straight-curve $-1 -47.881099887081518 0 11.210284691856021 0 -1 0 I I #
point $-1 -47.881099887081518 23.485805893586239 11.210284691856021 #
point $-1 -47.881099887081518 -23.485805893586239 11.210284691856021 #
straight-curve $-1 47.881099887081518 -23.485805893586239 0 0 0 -1 I I #
straight-curve $-1 47.881099887081518 23.485805893586239 0 0 0 -1 I I #
loop $-1 $-1 $427 $307 #
plane-surface $-1 -47.881099887081518 0 0 1 0 0 0 0 -1 forward_v I I I I #
coedge $-1 $311 $310 $433 $487 forward $121 $-1 #
edge $-1 $315 11.156675465670446 $436 23.485805893586239 $314 $488 forward 7 unknown #
coedge $-1 $430 $427 $311 $424 reversed $419 $-1 #
edge $-1 $489 -23.485805893586239 $425 -11.156675465670446 $423 $490 forward 7 unknown #
vertex $-1 $428 $491 #
straight-curve $-1 0 -11.156675465670446 -11.210284691856021 1 0 0 I I #
coedge $-1 $423 $317 $313 $428 forward $419 $-1 #
edge $-1 $319 2.8144085657780629 $425 6.5353869393113264 $427 $492 forward 7 unknown #
point $-1 47.881099887081518 -11.156675465670446 -11.210284691856021 #
coedge $-1 $317 $423 $321 $434 reversed $419 $-1 #
straight-curve $-1 -47.881099887081518 -8.6606203398141712 -7.4893063183227575 0 1 0 I I #
point $-1 -47.881099887081518 -11.156675465670446 -7.4893063183227575 #
coedge $-1 $322 $321 $421 $487 reversed $308 $-1 #
edge $-1 $323 7.4893063183227575 $489 11.210284691856021 $430 $493 forward 7 unknown #
point $-1 -47.881099887081518 -23.485805893586239 -7.4893063183227575 #
vertex $-1 $325 $494 #
straight-curve $-1 47.881099887081518 -23.485805893586239 0 0 0 -1 I I #
plane-surface $-1 47.881099887081518 0 0 -1 0 0 0 0 1 forward_v I I I I #
coedge $-1 $331 $442 $332 $441 forward $216 $-1 #
coedge $-1 $333 $332 $445 $495 reversed $129 $-1 #
edge $-1 $496 -11.210284691856021 $345 -5.2407490775392098 $332 $497 forward 7 unknown #
coedge $-1 $439 $334 $338 $447 reversed $216 $-1 #
straight-curve $-1 -47.881099887081518 13.079813882844881 4.1127584423488077 0 0 1 I I #
straight-curve $-1 47.881099887081518 13.079813882844881 4.1127584423488077 0 0 -1 I I #
coedge $-1 $338 $337 $440 $495 forward $329 $-1 #
edge $-1 $340 13.079813882844881 $453 23.485805893586239 $347 $498 forward 7 unknown #
edge $-1 $496 -23.485805893586239 $339 -13.079813882844881 $442 $499 forward 7 unknown #
point $-1 -47.881099887081518 13.079813882844881 11.210284691856021 #
point $-1 47.881099887081518 13.079813882844881 11.210284691856021 #
straight-curve $-1 -47.881099887081518 9.14140494410778 5.2407490775392098 0 -1 0 I I #
point $-1 -47.881099887081518 13.079813882844881 5.2407490775392098 #
point $-1 -47.881099887081518 23.485805893586239 5.2407490775392098 #
vertex $-1 $446 $500 #
straight-curve $-1 47.881099887081518 23.485805893586239 0 0 0 -1 I I #
edge $-1 $456 16.690495868194784 $459 24.255050335541263 $352 $501 forward 7 unknown #
vertex $-1 $366 $502 #
straight-curve $-1 -64.097019562946784 4.4153503299862322 11.210284691856021 -1 0 0 I I #
edge $-1 $459 -3.9324287664516451 $363 2.9665856393824708 $362 $503 forward 7 unknown #
vertex $-1 $458 $504 #
straight-curve $-1 -47.881099887081504 4.4153503299862322 3.6457302245095633 0.54463902268945019 0 0.83867057594974714 I I #
point $-1 -42.968620934888534 4.4153503299862322 11.210284691856021 #
point $-1 -47.881099887081518 -2.4836640758478836 3.6457302245095415 #
straight-curve $-1 -47.881099887081518 0 11.210284691856021 0 -1 0 I I #
vertex $-1 $369 $505 #
point $-1 -43.569683601347144 -1.103861194681059 6.8194232307710845 #
vertex $-1 $373 $506 #
point $-1 -43.569683601347144 0.96584312706917785 6.8194232307710845 #
vertex $-1 $377 $507 #
point $-1 -43.569683601347144 3.0355474488194147 6.8194232307710845 #
coedge $-1 $471 $388 $391 $476 forward $381 $-1 #
coedge $-1 $383 $470 $385 $473 reversed $381 $-1 #
straight-curve $-1 47.881099887081518 6.0769656015936491 69.652946270718317 0 0 -1 I I #
edge $-1 $386 6.0769656015936491 $479 13.079813882844881 $471 $508 forward 7 unknown #
point $-1 47.881099887081518 6.0769656015936491 11.210284691856021 #
straight-curve $-1 47.881099887081518 4.7891948711096326 3.9601901167267428 0 1 0 I I #
edge $-1 $392 -65.692756153991581 $479 -58.4426615788623 $470 $509 forward 7 unknown #
point $-1 47.881099887081518 13.079813882844881 3.9601901167267357 #
point $-1 47.881099887081518 6.0769656015936491 3.9601901167267357 #
vertex $-1 $396 $510 #
straight-curve $-1 0 13.079813882844881 11.210284691856021 -1 0 0 I I #
vertex $-1 $399 $511 #
point $-1 42.89519511916783 9.5783897422192652 4.7207630236286731 #
straight-curve $-1 -47.881099887081518 23.485805893586239 0 0 0 -1 I I #
point $-1 -47.881099887081518 -23.485805893586239 -11.210284691856021 #
straight-curve $-1 -47.881099887081518 0 -11.210284691856021 0 1 0 I I #
point $-1 -47.881099887081518 23.485805893586239 -11.210284691856021 #
edge $-1 $436 -47.881099887081518 $489 47.881099887081518 $433 $512 forward 7 unknown #
straight-curve $-1 47.881099887081518 0 -11.210284691856021 0 -1 0 I I #
vertex $-1 $424 $513 #
straight-curve $-1 -47.881099887081518 0 -11.210284691856021 0 1 0 I I #
point $-1 -47.881099887081518 -11.156675465670446 -11.210284691856021 #
straight-curve $-1 -47.881099887081518 -11.156675465670446 -4.6748977525446946 0 0 -1 I I #
straight-curve $-1 -47.881099887081518 -23.485805893586239 0 0 0 -1 I I #
point $-1 47.881099887081518 -23.485805893586239 -11.210284691856021 #
edge $-1 $453 -47.881099887081518 $496 47.881099887081518 $440 $514 forward 7 unknown #
vertex $-1 $495 $515 #
straight-curve $-1 -47.881099887081518 23.485805893586239 0 0 0 -1 I I #
straight-curve $-1 47.881099887081518 0 11.210284691856021 0 1 0 I I #
straight-curve $-1 -47.881099887081518 0 11.210284691856021 0 -1 0 I I #
point $-1 47.881099887081518 23.485805893586239 11.210284691856021 #
straight-curve $-1 -47.881099887081518 4.4153503299862322 27.900780560050805 0 0 -1 I I #
point $-1 -47.881099887081518 4.4153503299862322 11.210284691856021 #
straight-curve $-1 -47.881099887081518 0.48292156353458715 3.6457302245095433 0 -1 0 I I #
point $-1 -47.881099887081518 4.4153503299862322 3.6457302245095415 #
point $-1 -43.422667824716996 -1.103861194681059 6.1277684314514866 #
point $-1 -43.422667824716996 0.96584312706917785 6.1277684314514866 #
point $-1 -43.422667824716996 3.0355474488194147 6.1277684314514866 #
straight-curve $-1 47.881099887081518 0 11.210284691856021 0 1 0 I I #
straight-curve $-1 47.881099887081518 13.079813882844881 69.652946270718317 0 0 1 I I #
point $-1 47.881099887081518 13.079813882844881 11.210284691856021 #
point $-1 41.481843058084259 9.5783897422192652 4.7701183823126572 #
straight-curve $-1 0 -23.485805893586239 -11.210284691856021 -1 0 0 I I #
point $-1 -47.881099887081518 -23.485805893586239 -11.210284691856021 #
straight-curve $-1 0 23.485805893586239 11.210284691856021 -1 0 0 I I #
point $-1 -47.881099887081518 23.485805893586239 11.210284691856021 #
End-of-ACIS-data 