500 0 3 0           
7 Unknown 11 ACIS 5.0 NT 24 Thu Mar 25 16:22:34 1999 
-1 9.9999999999999995e-007 1e-010 
body $-1 $3 $-1 $4 #
body $-1 $5 $-1 $6 #
body $-1 $7 $-1 $8 #
lump $-1 $-1 $9 $0 #
transform $-1 1 0 0 0 1 0 0 0 1 59.960325937681205 38.347379691459309 13.408416962217707 1 rotate no_reflect no_shear #
lump $-1 $-1 $10 $1 #
transform $-1 1 0 0 0 1 0 0 0 1 59.960325937681205 38.347379691459309 13.408416962217707 1 rotate no_reflect no_shear #
lump $-1 $-1 $11 $2 #
transform $-1 1 0 0 0 1 0 0 0 1 59.960325937681205 38.347379691459309 13.408416962217707 1 rotate no_reflect no_shear #
shell $-1 $-1 $-1 $12 $-1 $3 #
shell $-1 $-1 $-1 $13 $-1 $5 #
shell $-1 $-1 $-1 $14 $-1 $7 #
face $-1 $15 $16 $9 $-1 $17 forward single #
face $-1 $18 $19 $10 $-1 $20 forward single #
face $-1 $21 $22 $11 $-1 $23 forward single #
face $-1 $24 $25 $9 $-1 $26 reversed single #
loop $-1 $-1 $27 $12 #
plane-surface $-1 0 0 13.408416962217707 0 0 1 1 0 0 forward_v I I I I #
face $-1 $28 $29 $10 $-1 $30 forward single #
loop $-1 $-1 $31 $13 #
plane-surface $-1 -51.489011107945032 -34.487349868631469 0 0 -1 0 0 0 -1 forward_v I I I I #
face $-1 $32 $33 $11 $-1 $34 forward single #
loop $-1 $-1 $35 $14 #
plane-surface $-1 52.296671095458009 -15.773755058323687 0 0 1 0 0 0 1 forward_v I I I I #
face $-1 $36 $37 $9 $-1 $38 reversed single #
loop $-1 $-1 $39 $15 #
plane-surface $-1 0 0 -13.408416962217707 0 0 1 1 0 0 forward_v I I I I #
coedge $-1 $40 $41 $42 $43 forward $16 $-1 #
face $-1 $44 $45 $10 $-1 $46 forward single #
loop $-1 $-1 $47 $18 #
plane-surface $-1 -43.017696278208859 -36.417364780045389 0 -1 0 0 0 0 1 forward_v I I I I #
coedge $-1 $48 $49 $50 $51 reversed $19 $-1 #
face $-1 $52 $53 $11 $-1 $54 forward single #
loop $-1 $-1 $55 $21 #
plane-surface $-1 44.633016253234821 -13.652150412673791 0 1 0 0 0 0 -1 forward_v I I I I #
coedge $-1 $56 $57 $58 $59 reversed $22 $-1 #
face $-1 $60 $61 $9 $-1 $62 reversed single #
loop $-1 $-1 $63 $24 #
plane-surface $-1 0 -38.347379691459309 0 0 1 0 0 0 1 forward_v I I I I #
coedge $-1 $64 $65 $66 $67 forward $25 $-1 #
coedge $-1 $68 $27 $69 $70 forward $16 $-1 #
coedge $-1 $27 $68 $71 $72 forward $16 $-1 #
coedge $-1 $73 $74 $27 $43 reversed $75 $-1 #
edge $-1 $76 -38.347379691459309 $77 38.347379691459309 $42 $78 forward 7 unknown #
face $-1 $79 $80 $10 $-1 $81 reversed single #
loop $-1 $-1 $82 $28 #
plane-surface $-1 0 0 13.408416962217707 0 0 1 1 0 0 forward_v I I I I #
coedge $-1 $83 $84 $85 $86 reversed $29 $-1 #
coedge $-1 $87 $31 $82 $88 reversed $19 $-1 #
coedge $-1 $31 $87 $89 $90 reversed $19 $-1 #
coedge $-1 $84 $83 $31 $51 forward $29 $-1 #
edge $-1 $91 -13.408416962217707 $92 13.408416962217707 $50 $93 forward 7 unknown #
face $-1 $94 $95 $11 $-1 $96 forward single #
loop $-1 $-1 $97 $32 #
plane-surface $-1 52.296671095458009 -11.530545767023895 0 0 -1 0 0 0 -1 forward_v I I I I #
coedge $-1 $98 $99 $100 $101 reversed $33 $-1 #
coedge $-1 $102 $35 $103 $104 reversed $22 $-1 #
coedge $-1 $35 $102 $105 $106 reversed $22 $-1 #
coedge $-1 $99 $98 $35 $59 forward $33 $-1 #
edge $-1 $107 -13.408416962217707 $108 13.408416962217707 $58 $109 forward 7 unknown #
face $-1 $110 $111 $9 $-1 $112 reversed single #
loop $-1 $-1 $113 $36 #
plane-surface $-1 -59.960325937681205 0 0 1 0 0 0 0 -1 forward_v I I I I #
coedge $-1 $114 $71 $115 $116 forward $37 $-1 #
coedge $-1 $117 $39 $114 $118 forward $25 $-1 #
coedge $-1 $39 $117 $119 $120 forward $25 $-1 #
coedge $-1 $74 $73 $39 $67 reversed $75 $-1 #
edge $-1 $121 -38.347379691459309 $122 38.347379691459309 $66 $123 forward 7 unknown #
coedge $-1 $41 $40 $124 $125 forward $16 $-1 #
coedge $-1 $126 $127 $40 $70 reversed $111 $-1 #
edge $-1 $77 -59.960325937681205 $128 59.960325937681205 $69 $129 forward 7 unknown #
coedge $-1 $63 $130 $41 $72 reversed $37 $-1 #
edge $-1 $131 -59.960325937681205 $76 59.960325937681205 $71 $132 forward 7 unknown #
coedge $-1 $66 $42 $130 $133 forward $75 $-1 #
coedge $-1 $42 $66 $126 $134 reversed $75 $-1 #
loop $-1 $-1 $73 $110 #
vertex $-1 $43 $135 #
vertex $-1 $43 $136 #
straight-curve $-1 59.960325937681205 0 13.408416962217707 0 1 0 I I #
face $-1 $137 $138 $10 $-1 $139 reversed single #
loop $-1 $-1 $85 $44 #
plane-surface $-1 0 -38.347379691459309 0 0 1 0 0 0 1 forward_v I I I I #
coedge $-1 $140 $141 $48 $88 forward $45 $-1 #
coedge $-1 $50 $47 $140 $142 reversed $29 $-1 #
coedge $-1 $47 $50 $143 $144 reversed $29 $-1 #
coedge $-1 $145 $146 $47 $86 forward $80 $-1 #
edge $-1 $147 -13.408416962217707 $148 13.408416962217707 $85 $149 forward 7 unknown #
coedge $-1 $49 $48 $150 $151 reversed $19 $-1 #
edge $-1 $152 -34.215820383708689 $91 -17.273190724236343 $82 $153 forward 7 unknown #
coedge $-1 $154 $143 $49 $90 forward $138 $-1 #
edge $-1 $92 17.273190724236343 $155 34.215820383708689 $89 $156 forward 7 unknown #
vertex $-1 $88 $157 #
vertex $-1 $90 $158 #
straight-curve $-1 -43.017696278208859 -34.487349868631469 0 0 0 -1 I I #
face $-1 $159 $160 $11 $-1 $161 reversed single #
loop $-1 $-1 $103 $52 #
plane-surface $-1 0 0 13.408416962217707 0 0 1 1 0 0 forward_v I I I I #
coedge $-1 $162 $163 $164 $165 reversed $53 $-1 #
coedge $-1 $58 $55 $166 $167 reversed $33 $-1 #
coedge $-1 $55 $58 $168 $169 reversed $33 $-1 #
coedge $-1 $163 $162 $55 $101 forward $53 $-1 #
edge $-1 $170 -13.408416962217707 $171 13.408416962217707 $100 $172 forward 7 unknown #
coedge $-1 $57 $56 $173 $174 reversed $22 $-1 #
coedge $-1 $166 $175 $56 $104 forward $95 $-1 #
edge $-1 $176 -33.811990389952193 $107 -18.484680705505816 $103 $177 forward 7 unknown #
coedge $-1 $178 $168 $57 $106 forward $179 $-1 #
edge $-1 $108 18.484680705505816 $180 33.811990389952193 $105 $181 forward 7 unknown #
vertex $-1 $104 $182 #
vertex $-1 $106 $183 #
straight-curve $-1 44.633016253234821 -15.773755058323687 0 0 0 -1 I I #
face $-1 $-1 $75 $9 $-1 $184 reversed single #
loop $-1 $-1 $126 $60 #
plane-surface $-1 0 38.347379691459309 0 0 -1 0 0 0 -1 forward_v I I I I #
coedge $-1 $185 $124 $127 $186 forward $61 $-1 #
coedge $-1 $130 $63 $64 $118 reversed $37 $-1 #
coedge $-1 $124 $185 $63 $116 reversed $61 $-1 #
edge $-1 $131 -13.408416962217707 $187 13.408416962217707 $115 $188 forward 7 unknown #
coedge $-1 $65 $64 $185 $189 forward $25 $-1 #
edge $-1 $122 -59.960325937681205 $187 59.960325937681205 $114 $190 forward 7 unknown #
coedge $-1 $127 $126 $65 $120 reversed $111 $-1 #
edge $-1 $191 -59.960325937681205 $121 59.960325937681205 $119 $192 forward 7 unknown #
vertex $-1 $67 $193 #
vertex $-1 $133 $194 #
straight-curve $-1 59.960325937681205 0 -13.408416962217707 0 -1 0 I I #
coedge $-1 $113 $115 $68 $125 reversed $61 $-1 #
edge $-1 $128 -38.347379691459309 $131 38.347379691459309 $124 $195 forward 7 unknown #
coedge $-1 $119 $69 $74 $134 forward $111 $-1 #
coedge $-1 $69 $119 $113 $186 reversed $111 $-1 #
vertex $-1 $70 $196 #
straight-curve $-1 0 38.347379691459309 13.408416962217707 -1 0 0 I I #
coedge $-1 $71 $114 $73 $133 reversed $37 $-1 #
vertex $-1 $125 $197 #
straight-curve $-1 0 -38.347379691459309 13.408416962217707 1 0 0 I I #
edge $-1 $76 -13.408416962217707 $122 13.408416962217707 $73 $198 forward 7 unknown #
edge $-1 $77 -13.408416962217707 $121 13.408416962217707 $74 $199 forward 7 unknown #
point $-1 59.960325937681205 -38.347379691459309 13.408416962217707 #
point $-1 59.960325937681205 38.347379691459309 13.408416962217707 #
face $-1 $200 $201 $10 $-1 $202 reversed single #
loop $-1 $-1 $89 $79 #
plane-surface $-1 0 0 -13.408416962217707 0 0 1 1 0 0 forward_v I I I I #
coedge $-1 $203 $82 $83 $142 forward $45 $-1 #
coedge $-1 $82 $204 $205 $206 forward $45 $-1 #
edge $-1 $91 16.278667478608774 $147 20.138697301436615 $140 $207 forward 7 unknown #
coedge $-1 $89 $208 $84 $144 forward $138 $-1 #
edge $-1 $148 -20.138697301436615 $92 -16.278667478608774 $143 $209 forward 7 unknown #
coedge $-1 $210 $85 $208 $211 reversed $80 $-1 #
coedge $-1 $85 $210 $203 $212 reversed $80 $-1 #
vertex $-1 $212 $213 #
vertex $-1 $86 $214 #
straight-curve $-1 -43.017696278208859 -38.347379691459309 0 0 0 -1 I I #
coedge $-1 $205 $215 $87 $151 forward $201 $-1 #
edge $-1 $155 -13.408416962217707 $152 13.408416962217707 $150 $216 forward 7 unknown #
vertex $-1 $151 $217 #
straight-curve $-1 -25.744505553972516 -34.487349868631469 13.408416962217707 1 0 0 I I #
coedge $-1 $218 $89 $215 $219 forward $138 $-1 #
vertex $-1 $219 $220 #
straight-curve $-1 -25.744505553972516 -34.487349868631469 -13.408416962217707 -1 0 0 I I #
point $-1 -43.017696278208859 -34.487349868631469 13.408416962217707 #
point $-1 -43.017696278208859 -34.487349868631469 -13.408416962217707 #
face $-1 $221 $222 $11 $-1 $223 forward single #
loop $-1 $-1 $164 $94 #
plane-surface $-1 59.960325937681205 0 0 -1 0 0 0 0 1 forward_v I I I I #
coedge $-1 $100 $97 $224 $225 reversed $53 $-1 #
coedge $-1 $97 $100 $226 $227 reversed $53 $-1 #
coedge $-1 $228 $229 $97 $165 forward $160 $-1 #
edge $-1 $230 -13.408416962217707 $231 13.408416962217707 $164 $232 forward 7 unknown #
coedge $-1 $224 $103 $98 $167 forward $95 $-1 #
edge $-1 $107 -8.9476798519867913 $170 -4.7044705606869996 $166 $233 forward 7 unknown #
coedge $-1 $105 $226 $99 $169 forward $179 $-1 #
edge $-1 $171 4.7044705606869996 $108 8.9476798519867913 $168 $234 forward 7 unknown #
vertex $-1 $167 $235 #
vertex $-1 $169 $236 #
straight-curve $-1 44.633016253234821 -11.530545767023895 0 0 0 -1 I I #
coedge $-1 $237 $238 $102 $174 forward $239 $-1 #
edge $-1 $180 -13.408416962217707 $176 13.408416962217707 $173 $240 forward 7 unknown #
coedge $-1 $103 $241 $237 $242 forward $95 $-1 #
vertex $-1 $174 $243 #
straight-curve $-1 26.148335547729005 -15.773755058323687 13.408416962217707 -1 0 0 I I #
coedge $-1 $244 $105 $238 $245 forward $179 $-1 #
loop $-1 $-1 $105 $246 #
vertex $-1 $245 $247 #
straight-curve $-1 26.148335547729005 -15.773755058323687 -13.408416962217707 1 0 0 I I #
point $-1 44.633016253234821 -15.773755058323687 13.408416962217707 #
point $-1 44.633016253234821 -15.773755058323687 -13.408416962217707 #
plane-surface $-1 59.960325937681205 0 0 -1 0 0 0 0 1 forward_v I I I I #
coedge $-1 $115 $113 $117 $189 reversed $61 $-1 #
edge $-1 $128 -13.408416962217707 $191 13.408416962217707 $127 $248 forward 7 unknown #
vertex $-1 $189 $249 #
straight-curve $-1 -59.960325937681205 -38.347379691459309 0 0 0 -1 I I #
edge $-1 $187 -38.347379691459309 $191 38.347379691459309 $185 $250 forward 7 unknown #
straight-curve $-1 0 -38.347379691459309 -13.408416962217707 -1 0 0 I I #
vertex $-1 $120 $251 #
straight-curve $-1 0 38.347379691459309 -13.408416962217707 1 0 0 I I #
point $-1 59.960325937681205 38.347379691459309 -13.408416962217707 #
point $-1 59.960325937681205 -38.347379691459309 -13.408416962217707 #
straight-curve $-1 -59.960325937681205 0 13.408416962217707 0 -1 0 I I #
point $-1 -59.960325937681205 38.347379691459309 13.408416962217707 #
point $-1 -59.960325937681205 -38.347379691459309 13.408416962217707 #
straight-curve $-1 59.960325937681205 -38.347379691459309 0 0 0 -1 I I #
straight-curve $-1 59.960325937681205 38.347379691459309 0 0 0 -1 I I #
face $-1 $252 $253 $10 $-1 $254 reversed single #
loop $-1 $-1 $150 $137 #
plane-surface $-1 -59.960325937681205 0 0 1 0 0 0 0 -1 forward_v I I I I #
coedge $-1 $255 $140 $146 $212 forward $45 $-1 #
coedge $-1 $141 $255 $256 $257 forward $45 $-1 #
coedge $-1 $258 $150 $141 $206 reversed $201 $-1 #
edge $-1 $259 -38.347379691459309 $152 34.487349868631469 $205 $260 forward 7 unknown #
straight-curve $-1 -43.017696278208859 -18.208682390022695 13.408416962217707 0 -1 0 I I #
coedge $-1 $143 $261 $145 $211 forward $138 $-1 #
straight-curve $-1 -43.017696278208859 -18.208682390022695 -13.408416962217707 0 1 0 I I #
coedge $-1 $146 $145 $262 $263 reversed $80 $-1 #
edge $-1 $264 -59.960325937681205 $148 43.017696278208859 $145 $265 forward 7 unknown #
edge $-1 $147 -43.017696278208859 $266 59.960325937681205 $146 $267 forward 7 unknown #
point $-1 -43.017696278208859 -38.347379691459309 13.408416962217707 #
point $-1 -43.017696278208859 -38.347379691459309 -13.408416962217707 #
coedge $-1 $150 $258 $154 $219 reversed $201 $-1 #
straight-curve $-1 -59.960325937681205 -34.487349868631469 0 0 0 1 I I #
point $-1 -59.960325937681205 -34.487349868631469 13.408416962217707 #
coedge $-1 $261 $154 $268 $269 forward $138 $-1 #
edge $-1 $155 -34.487349868631469 $270 38.347379691459309 $215 $271 forward 7 unknown #
point $-1 -59.960325937681205 -34.487349868631469 -13.408416962217707 #
face $-1 $272 $273 $11 $-1 $274 forward single #
loop $-1 $-1 $275 $159 #
plane-surface $-1 -51.489011107945032 -34.487349868631469 0 0 -1 0 0 0 -1 forward_v I I I I #
coedge $-1 $276 $166 $162 $225 forward $95 $-1 #
edge $-1 $170 18.484680705505816 $230 33.811990389952193 $224 $277 forward 7 unknown #
coedge $-1 $168 $278 $163 $227 forward $179 $-1 #
edge $-1 $231 -33.811990389952193 $171 -18.484680705505816 $226 $279 forward 7 unknown #
coedge $-1 $280 $164 $278 $281 reversed $160 $-1 #
coedge $-1 $164 $280 $276 $282 reversed $160 $-1 #
vertex $-1 $282 $283 #
vertex $-1 $165 $284 #
straight-curve $-1 59.960325937681205 -11.530545767023895 0 0 0 -1 I I #
straight-curve $-1 44.633016253234821 -6.8260752063368955 13.408416962217707 0 1 0 I I #
straight-curve $-1 44.633016253234821 -6.8260752063368955 -13.408416962217707 0 -1 0 I I #
point $-1 44.633016253234821 -11.530545767023895 13.408416962217707 #
point $-1 44.633016253234821 -11.530545767023895 -13.408416962217707 #
coedge $-1 $285 $173 $175 $242 reversed $239 $-1 #
coedge $-1 $173 $285 $178 $245 reversed $239 $-1 #
loop $-1 $-1 $173 $286 #
straight-curve $-1 59.960325937681205 -15.773755058323687 0 0 0 1 I I #
coedge $-1 $175 $287 $288 $289 forward $95 $-1 #
edge $-1 $290 -38.347379691459309 $176 -15.773755058323687 $237 $291 forward 7 unknown #
point $-1 59.960325937681198 -15.773755058323687 13.408416962217707 #
coedge $-1 $292 $178 $293 $294 forward $179 $-1 #
edge $-1 $180 15.773755058323687 $295 38.347379691459309 $238 $296 forward 7 unknown #
face $-1 $297 $179 $11 $-1 $298 reversed single #
point $-1 59.960325937681198 -15.773755058323687 -13.408416962217707 #
straight-curve $-1 -59.960325937681205 38.347379691459309 0 0 0 -1 I I #
point $-1 -59.960325937681205 -38.347379691459309 -13.408416962217707 #
straight-curve $-1 -59.960325937681205 0 -13.408416962217707 0 1 0 I I #
point $-1 -59.960325937681205 38.347379691459309 -13.408416962217707 #
face $-1 $-1 $299 $10 $-1 $300 reversed single #
loop $-1 $-1 $301 $200 #
plane-surface $-1 0 38.347379691459309 0 0 -1 0 0 0 -1 forward_v I I I I #
coedge $-1 $204 $203 $302 $303 forward $45 $-1 #
coedge $-1 $301 $304 $204 $257 reversed $253 $-1 #
edge $-1 $305 -59.960325937681205 $259 59.960325937681205 $256 $306 forward 7 unknown #
coedge $-1 $215 $205 $304 $307 forward $201 $-1 #
vertex $-1 $257 $308 #
straight-curve $-1 -59.960325937681205 0 13.408416962217707 0 -1 0 I I #
coedge $-1 $208 $218 $309 $310 forward $138 $-1 #
coedge $-1 $309 $302 $210 $263 forward $299 $-1 #
edge $-1 $266 -13.408416962217707 $264 13.408416962217707 $262 $311 forward 7 unknown #
vertex $-1 $263 $312 #
straight-curve $-1 0 -38.347379691459309 -13.408416962217707 -1 0 0 I I #
vertex $-1 $303 $313 #
straight-curve $-1 0 -38.347379691459309 13.408416962217707 1 0 0 I I #
coedge $-1 $304 $301 $218 $269 reversed $253 $-1 #
edge $-1 $270 -59.960325937681205 $314 59.960325937681205 $268 $315 forward 7 unknown #
vertex $-1 $269 $316 #
straight-curve $-1 -59.960325937681205 0 -13.408416962217707 0 1 0 I I #
face $-1 $246 $317 $11 $-1 $318 reversed single #
loop $-1 $-1 $319 $221 #
plane-surface $-1 -43.017696278208859 -36.417364780045389 0 -1 0 0 0 0 1 forward_v I I I I #
coedge $-1 $320 $321 $322 $323 reversed $222 $-1 #
coedge $-1 $324 $224 $229 $282 forward $95 $-1 #
straight-curve $-1 26.148335547729005 -11.530545767023895 13.408416962217707 1 0 0 I I #
coedge $-1 $226 $325 $228 $281 forward $179 $-1 #
straight-curve $-1 26.148335547729005 -11.530545767023895 -13.408416962217707 -1 0 0 I I #
coedge $-1 $229 $228 $326 $327 reversed $160 $-1 #
edge $-1 $328 -38.347379691459309 $231 11.530545767023895 $228 $296 forward 7 unknown #
edge $-1 $230 -11.530545767023895 $329 38.347379691459309 $229 $291 forward 7 unknown #
point $-1 59.960325937681198 -11.530545767023895 13.408416962217707 #
point $-1 59.960325937681198 -11.530545767023895 -13.408416962217707 #
coedge $-1 $238 $237 $330 $331 forward $239 $-1 #
face $-1 $-1 $239 $11 $-1 $161 reversed single #
coedge $-1 $241 $332 $333 $334 forward $95 $-1 #
coedge $-1 $335 $330 $241 $289 reversed $317 $-1 #
edge $-1 $336 -43.017696278208859 $290 59.960325937681205 $288 $337 forward 7 unknown #
vertex $-1 $242 $338 #
straight-curve $-1 59.960325937681205 0 13.408416962217707 0 1 0 I I #
coedge $-1 $339 $244 $340 $341 forward $179 $-1 #
coedge $-1 $330 $335 $244 $294 reversed $317 $-1 #
edge $-1 $295 -59.960325937681205 $342 43.017696278208859 $293 $343 forward 7 unknown #
vertex $-1 $331 $344 #
straight-curve $-1 59.960325937681205 0 -13.408416962217707 0 -1 0 I I #
face $-1 $345 $346 $11 $-1 $347 reversed single #
plane-surface $-1 0 0 -13.408416962217707 0 0 1 1 0 0 forward_v I I I I #
loop $-1 $-1 $262 $252 #
plane-surface $-1 59.960325937681205 0 0 -1 0 0 0 0 1 forward_v I I I I #
coedge $-1 $268 $256 $348 $349 forward $253 $-1 #
coedge $-1 $262 $348 $255 $303 reversed $299 $-1 #
edge $-1 $266 -38.347379691459309 $305 38.347379691459309 $302 $350 forward 7 unknown #
coedge $-1 $256 $268 $258 $307 reversed $253 $-1 #
vertex $-1 $303 $351 #
straight-curve $-1 0 38.347379691459309 13.408416962217707 -1 0 0 I I #
edge $-1 $259 -13.408416962217707 $270 13.408416962217707 $304 $352 forward 7 unknown #
point $-1 -59.960325937681205 38.347379691459309 13.408416962217707 #
coedge $-1 $348 $262 $261 $310 reversed $299 $-1 #
edge $-1 $314 -38.347379691459309 $264 38.347379691459309 $309 $353 forward 7 unknown #
straight-curve $-1 59.960325937681205 -38.347379691459309 0 0 0 -1 I I #
point $-1 59.960325937681205 -38.347379691459309 -13.408416962217707 #
point $-1 59.960325937681205 -38.347379691459309 13.408416962217707 #
vertex $-1 $310 $354 #
straight-curve $-1 0 38.347379691459309 -13.408416962217707 1 0 0 I I #
point $-1 -59.960325937681205 38.347379691459309 -13.408416962217707 #
loop $-1 $-1 $335 $272 #
plane-surface $-1 0 -38.347379691459309 0 0 1 0 0 0 1 forward_v I I I I #
coedge $-1 $333 $340 $335 $355 reversed $273 $-1 #
coedge $-1 $356 $275 $332 $357 reversed $222 $-1 #
coedge $-1 $275 $356 $339 $358 reversed $222 $-1 #
coedge $-1 $340 $333 $275 $323 forward $273 $-1 #
edge $-1 $359 -13.408416962217707 $360 13.408416962217707 $322 $361 forward 7 unknown #
coedge $-1 $362 $276 $363 $364 forward $95 $-1 #
coedge $-1 $278 $365 $366 $367 forward $179 $-1 #
coedge $-1 $366 $363 $280 $327 forward $368 $-1 #
edge $-1 $329 -13.408416962217707 $328 13.408416962217707 $280 $369 forward 7 unknown #
vertex $-1 $281 $370 #
vertex $-1 $282 $371 #
coedge $-1 $288 $293 $285 $331 reversed $317 $-1 #
edge $-1 $290 -13.408416962217707 $295 13.408416962217707 $285 $372 forward 7 unknown #
coedge $-1 $287 $362 $320 $357 forward $95 $-1 #
coedge $-1 $322 $319 $287 $334 reversed $273 $-1 #
edge $-1 $359 16.278667478608774 $336 20.138697301436615 $287 $373 forward 7 unknown #
coedge $-1 $293 $288 $319 $355 forward $317 $-1 #
vertex $-1 $289 $374 #
straight-curve $-1 0 -38.347379691459309 13.408416962217707 1 0 0 I I #
point $-1 59.960325937681205 -38.347379691459309 13.408416962217707 #
coedge $-1 $365 $292 $321 $358 forward $179 $-1 #
coedge $-1 $319 $322 $292 $341 reversed $273 $-1 #
edge $-1 $342 -20.138697301436615 $360 -16.278667478608774 $292 $375 forward 7 unknown #
vertex $-1 $355 $376 #
straight-curve $-1 0 -38.347379691459309 -13.408416962217707 -1 0 0 I I #
point $-1 59.960325937681205 -38.347379691459309 -13.408416962217707 #
face $-1 $286 $368 $11 $-1 $377 reversed single #
loop $-1 $-1 $378 $297 #
plane-surface $-1 -59.960325937681205 0 0 1 0 0 0 0 -1 forward_v I I I I #
coedge $-1 $302 $309 $301 $349 reversed $299 $-1 #
edge $-1 $305 -13.408416962217707 $314 13.408416962217707 $348 $379 forward 7 unknown #
straight-curve $-1 59.960325937681205 0 13.408416962217707 0 1 0 I I #
point $-1 59.960325937681205 38.347379691459309 13.408416962217707 #
straight-curve $-1 -59.960325937681205 38.347379691459309 0 0 0 -1 I I #
straight-curve $-1 59.960325937681205 0 -13.408416962217707 0 -1 0 I I #
point $-1 59.960325937681205 38.347379691459309 -13.408416962217707 #
edge $-1 $336 -13.408416962217707 $342 13.408416962217707 $335 $380 forward 7 unknown #
coedge $-1 $321 $320 $378 $381 reversed $222 $-1 #
edge $-1 $382 -34.215820383708689 $359 -17.273190724236343 $332 $383 forward 7 unknown #
edge $-1 $360 17.273190724236343 $384 34.215820383708689 $339 $385 forward 7 unknown #
vertex $-1 $357 $386 #
vertex $-1 $358 $387 #
straight-curve $-1 -43.017696278208859 -34.487349868631469 0 0 0 -1 I I #
coedge $-1 $332 $324 $388 $389 forward $95 $-1 #
coedge $-1 $326 $390 $324 $364 reversed $368 $-1 #
edge $-1 $329 -59.960325937681205 $391 59.960325937681205 $363 $392 forward 7 unknown #
coedge $-1 $325 $339 $393 $394 forward $179 $-1 #
coedge $-1 $390 $326 $325 $367 reversed $368 $-1 #
edge $-1 $395 -59.960325937681205 $328 59.960325937681205 $366 $396 forward 7 unknown #
loop $-1 $-1 $326 $345 #
straight-curve $-1 59.960325937681205 38.347379691459309 0 0 0 -1 I I #
point $-1 59.960325937681205 38.347379691459309 -13.408416962217707 #
point $-1 59.960325937681205 38.347379691459309 13.408416962217707 #
straight-curve $-1 59.960325937681205 -38.347379691459309 0 0 0 -1 I I #
straight-curve $-1 -43.017696278208859 -18.208682390022695 13.408416962217707 0 -1 0 I I #
point $-1 -43.017696278208859 -38.347379691459309 13.408416962217707 #
straight-curve $-1 -43.017696278208859 -18.208682390022695 -13.408416962217707 0 1 0 I I #
point $-1 -43.017696278208859 -38.347379691459309 -13.408416962217707 #
plane-surface $-1 0 38.347379691459309 0 0 -1 0 0 0 -1 forward_v I I I I #
coedge $-1 $388 $393 $356 $381 forward $346 $-1 #
straight-curve $-1 59.960325937681205 38.347379691459309 0 0 0 -1 I I #
straight-curve $-1 -43.017696278208859 -38.347379691459309 0 0 0 -1 I I #
edge $-1 $384 -13.408416962217707 $382 13.408416962217707 $378 $397 forward 7 unknown #
vertex $-1 $381 $398 #
straight-curve $-1 -25.744505553972516 -34.487349868631469 13.408416962217707 1 0 0 I I #
vertex $-1 $394 $399 #
straight-curve $-1 -25.744505553972516 -34.487349868631469 -13.408416962217707 -1 0 0 I I #
point $-1 -43.017696278208859 -34.487349868631469 13.408416962217707 #
point $-1 -43.017696278208859 -34.487349868631469 -13.408416962217707 #
coedge $-1 $400 $378 $362 $389 reversed $346 $-1 #
edge $-1 $391 -38.347379691459309 $382 34.487349868631469 $388 $401 forward 7 unknown #
coedge $-1 $363 $366 $400 $402 reversed $368 $-1 #
vertex $-1 $364 $403 #
straight-curve $-1 0 38.347379691459309 13.408416962217707 -1 0 0 I I #
coedge $-1 $378 $400 $365 $394 reversed $346 $-1 #
edge $-1 $384 -34.487349868631469 $395 38.347379691459309 $393 $404 forward 7 unknown #
vertex $-1 $367 $405 #
straight-curve $-1 0 38.347379691459309 -13.408416962217707 1 0 0 I I #
straight-curve $-1 -59.960325937681205 -34.487349868631469 0 0 0 1 I I #
point $-1 -59.960325937681205 -34.487349868631469 13.408416962217707 #
point $-1 -59.960325937681205 -34.487349868631469 -13.408416962217707 #
coedge $-1 $393 $388 $390 $402 forward $346 $-1 #
straight-curve $-1 -59.960325937681205 0 13.408416962217707 0 -1 0 I I #
edge $-1 $391 -13.408416962217707 $395 13.408416962217707 $390 $406 forward 7 unknown #
point $-1 -59.960325937681205 38.347379691459309 13.408416962217707 #
straight-curve $-1 -59.960325937681205 0 -13.408416962217707 0 1 0 I I #
point $-1 -59.960325937681205 38.347379691459309 -13.408416962217707 #
straight-curve $-1 -59.960325937681205 38.347379691459309 0 0 0 -1 I I #
End-of-ACIS-data 