500 0 2 0           
7 Unknown 11 ACIS 5.0 NT 24 Thu Mar 25 17:26:29 1999 
-1 9.9999999999999995e-007 1e-010 
body $-1 $2 $-1 $3 #
body $-1 $4 $-1 $5 #
lump $-1 $-1 $6 $0 #
transform $-1 1 0 0 0 1 0 0 0 1 50.2249214148381 31.604285093791429 12.917854875016266 1 rotate no_reflect no_shear #
lump $-1 $-1 $7 $1 #
transform $-1 1 0 0 0 1 0 0 0 1 50.2249214148381 31.604285093791429 12.917854875016266 1 rotate no_reflect no_shear #
shell $-1 $-1 $-1 $8 $-1 $2 #
shell $-1 $-1 $-1 $9 $-1 $4 #
face $-1 $10 $11 $6 $-1 $12 forward single #
face $-1 $13 $14 $7 $-1 $15 forward single #
face $-1 $16 $17 $6 $-1 $18 reversed single #
loop $-1 $-1 $19 $8 #
plane-surface $-1 0 0 12.917854875016266 0 0 1 1 0 0 forward_v I I I I #
face $-1 $20 $21 $7 $-1 $22 reversed single #
loop $-1 $-1 $23 $9 #
plane-surface $-1 -50.2249214148381 0 0 1 0 0 0 0 -1 forward_v I I I I #
face $-1 $24 $25 $6 $-1 $26 reversed single #
loop $-1 $-1 $27 $10 #
plane-surface $-1 0 0 -12.917854875016266 0 0 1 1 0 0 forward_v I I I I #
coedge $-1 $28 $29 $30 $31 forward $11 $-1 #
face $-1 $32 $33 $7 $-1 $34 reversed single #
loop $-1 $-1 $35 $13 #
plane-surface $-1 0 0 -12.917854875016266 0 0 1 1 0 0 forward_v I I I I #
coedge $-1 $36 $37 $38 $39 forward $14 $-1 #
face $-1 $40 $41 $6 $-1 $42 reversed single #
loop $-1 $-1 $43 $16 #
plane-surface $-1 0 -31.604285093791429 0 0 1 0 0 0 1 forward_v I I I I #
coedge $-1 $44 $45 $46 $47 forward $17 $-1 #
coedge $-1 $48 $19 $49 $50 forward $11 $-1 #
coedge $-1 $19 $48 $51 $52 forward $11 $-1 #
coedge $-1 $53 $54 $19 $31 reversed $55 $-1 #
edge $-1 $56 -31.604285093791429 $57 31.604285093791429 $30 $58 forward 7 unknown #
face $-1 $59 $60 $7 $-1 $61 reversed single #
loop $-1 $-1 $62 $20 #
plane-surface $-1 -58.629194928604903 -9.4509544216597394 0 0 1 0 0 0 1 forward_v I I I I #
coedge $-1 $63 $64 $37 $65 forward $21 $-1 #
coedge $-1 $66 $23 $67 $68 reversed $14 $-1 #
coedge $-1 $23 $66 $35 $65 reversed $14 $-1 #
coedge $-1 $69 $70 $23 $39 reversed $71 $-1 #
edge $-1 $72 -12.917854875016266 $73 12.917854875016266 $38 $74 forward 7 unknown #
face $-1 $75 $76 $6 $-1 $77 reversed single #
loop $-1 $-1 $78 $24 #
plane-surface $-1 -50.2249214148381 0 0 1 0 0 0 0 -1 forward_v I I I I #
coedge $-1 $79 $51 $80 $81 forward $25 $-1 #
coedge $-1 $82 $27 $79 $83 forward $17 $-1 #
coedge $-1 $27 $82 $84 $85 forward $17 $-1 #
coedge $-1 $54 $53 $27 $47 reversed $55 $-1 #
edge $-1 $86 -31.604285093791429 $87 31.604285093791429 $46 $88 forward 7 unknown #
coedge $-1 $29 $28 $89 $90 forward $11 $-1 #
coedge $-1 $91 $92 $28 $50 reversed $76 $-1 #
edge $-1 $57 -50.2249214148381 $93 50.2249214148381 $49 $94 forward 7 unknown #
coedge $-1 $43 $95 $29 $52 reversed $25 $-1 #
edge $-1 $96 -50.2249214148381 $56 50.2249214148381 $51 $97 forward 7 unknown #
coedge $-1 $46 $30 $95 $98 forward $55 $-1 #
coedge $-1 $30 $46 $91 $99 reversed $55 $-1 #
loop $-1 $-1 $53 $75 #
vertex $-1 $31 $100 #
vertex $-1 $31 $101 #
straight-curve $-1 50.2249214148381 0 12.917854875016266 0 1 0 I I #
face $-1 $102 $71 $7 $-1 $103 reversed single #
loop $-1 $-1 $104 $32 #
plane-surface $-1 -67.033468442371699 -7.6097648827093174 0 1 0 0 0 0 -1 forward_v I I I I #
coedge $-1 $105 $106 $107 $108 forward $33 $-1 #
coedge $-1 $109 $35 $105 $110 forward $21 $-1 #
coedge $-1 $35 $109 $69 $111 forward $21 $-1 #
edge $-1 $72 5.7685753437588954 $112 9.4509544216597394 $35 $113 forward 7 unknown #
coedge $-1 $37 $36 $114 $115 forward $14 $-1 #
coedge $-1 $116 $117 $36 $68 forward $118 $-1 #
edge $-1 $119 -9.4509544216597394 $73 -5.7685753437588954 $67 $120 forward 7 unknown #
coedge $-1 $121 $38 $64 $111 reversed $71 $-1 #
coedge $-1 $38 $121 $116 $122 reversed $71 $-1 #
loop $-1 $-1 $38 $59 #
vertex $-1 $65 $123 #
vertex $-1 $122 $124 #
straight-curve $-1 -50.2249214148381 -5.7685753437588954 0 0 0 1 I I #
face $-1 $-1 $55 $6 $-1 $125 reversed single #
loop $-1 $-1 $91 $40 #
plane-surface $-1 0 31.604285093791429 0 0 -1 0 0 0 -1 forward_v I I I I #
coedge $-1 $126 $89 $92 $127 forward $41 $-1 #
coedge $-1 $95 $43 $44 $83 reversed $25 $-1 #
coedge $-1 $89 $126 $43 $81 reversed $41 $-1 #
edge $-1 $96 -12.917854875016266 $128 12.917854875016266 $80 $129 forward 7 unknown #
coedge $-1 $45 $44 $126 $130 forward $17 $-1 #
edge $-1 $87 -50.2249214148381 $128 50.2249214148381 $79 $131 forward 7 unknown #
coedge $-1 $92 $91 $45 $85 reversed $76 $-1 #
edge $-1 $132 -50.2249214148381 $86 50.2249214148381 $84 $133 forward 7 unknown #
vertex $-1 $47 $134 #
vertex $-1 $98 $135 #
straight-curve $-1 50.2249214148381 0 -12.917854875016266 0 -1 0 I I #
coedge $-1 $78 $80 $48 $90 reversed $41 $-1 #
edge $-1 $93 -31.604285093791429 $96 31.604285093791429 $89 $136 forward 7 unknown #
coedge $-1 $84 $49 $54 $99 forward $76 $-1 #
coedge $-1 $49 $84 $78 $127 reversed $76 $-1 #
vertex $-1 $50 $137 #
straight-curve $-1 0 31.604285093791429 12.917854875016266 -1 0 0 I I #
coedge $-1 $51 $79 $53 $98 reversed $25 $-1 #
vertex $-1 $90 $138 #
straight-curve $-1 0 -31.604285093791429 12.917854875016266 1 0 0 I I #
edge $-1 $56 -12.917854875016266 $87 12.917854875016266 $53 $139 forward 7 unknown #
edge $-1 $57 -12.917854875016266 $86 12.917854875016266 $54 $140 forward 7 unknown #
point $-1 50.2249214148381 -31.604285093791429 12.917854875016266 #
point $-1 50.2249214148381 31.604285093791429 12.917854875016266 #
face $-1 $-1 $118 $7 $-1 $141 forward single #
plane-surface $-1 -58.629194928604903 -5.7685753437588954 0 0 -1 0 0 0 -1 forward_v I I I I #
coedge $-1 $142 $143 $121 $144 forward $60 $-1 #
coedge $-1 $114 $62 $63 $110 reversed $33 $-1 #
coedge $-1 $62 $114 $117 $145 reversed $33 $-1 #
coedge $-1 $143 $142 $62 $108 reversed $60 $-1 #
edge $-1 $146 -12.917854875016266 $147 12.917854875016266 $107 $148 forward 7 unknown #
coedge $-1 $64 $63 $142 $149 forward $21 $-1 #
edge $-1 $112 -8.4042735137668032 $147 8.4042735137667961 $105 $150 forward 7 unknown #
edge $-1 $151 -8.4042735137667961 $72 8.4042735137668032 $69 $152 forward 7 unknown #
vertex $-1 $110 $153 #
straight-curve $-1 -50.2249214148381 0 -12.917854875016266 0 -1 0 I I #
coedge $-1 $106 $105 $66 $115 reversed $33 $-1 #
edge $-1 $119 -12.917854875016266 $112 12.917854875016266 $114 $154 forward 7 unknown #
coedge $-1 $155 $67 $70 $122 forward $118 $-1 #
coedge $-1 $67 $155 $106 $145 forward $118 $-1 #
loop $-1 $-1 $67 $102 #
vertex $-1 $68 $156 #
straight-curve $-1 -50.2249214148381 0 12.917854875016266 0 1 0 I I #
coedge $-1 $70 $69 $104 $144 reversed $71 $-1 #
edge $-1 $73 -8.4042735137668032 $157 8.4042735137667961 $70 $158 forward 7 unknown #
point $-1 -50.2249214148381 -5.7685753437588954 -12.917854875016266 #
point $-1 -50.2249214148381 -5.7685753437588954 12.917854875016266 #
plane-surface $-1 50.2249214148381 0 0 -1 0 0 0 0 1 forward_v I I I I #
coedge $-1 $80 $78 $82 $130 reversed $41 $-1 #
edge $-1 $93 -12.917854875016266 $132 12.917854875016266 $92 $159 forward 7 unknown #
vertex $-1 $130 $160 #
straight-curve $-1 -50.2249214148381 -31.604285093791429 0 0 0 -1 I I #
edge $-1 $128 -31.604285093791429 $132 31.604285093791429 $126 $161 forward 7 unknown #
straight-curve $-1 0 -31.604285093791429 -12.917854875016266 -1 0 0 I I #
vertex $-1 $85 $162 #
straight-curve $-1 0 31.604285093791429 -12.917854875016266 1 0 0 I I #
point $-1 50.2249214148381 31.604285093791429 -12.917854875016266 #
point $-1 50.2249214148381 -31.604285093791429 -12.917854875016266 #
straight-curve $-1 -50.2249214148381 0 12.917854875016266 0 -1 0 I I #
point $-1 -50.2249214148381 31.604285093791429 12.917854875016266 #
point $-1 -50.2249214148381 -31.604285093791429 12.917854875016266 #
straight-curve $-1 50.2249214148381 -31.604285093791429 0 0 0 -1 I I #
straight-curve $-1 50.2249214148381 31.604285093791429 0 0 0 -1 I I #
plane-surface $-1 0 0 12.917854875016266 0 0 1 1 0 0 forward_v I I I I #
coedge $-1 $107 $104 $109 $149 reversed $60 $-1 #
coedge $-1 $104 $107 $155 $163 reversed $60 $-1 #
edge $-1 $157 -12.917854875016266 $151 12.917854875016266 $121 $164 forward 7 unknown #
edge $-1 $146 -8.4042735137667961 $119 8.4042735137668032 $106 $165 forward 7 unknown #
vertex $-1 $163 $166 #
vertex $-1 $149 $167 #
straight-curve $-1 -67.033468442371699 -9.4509544216597394 0 0 0 -1 I I #
edge $-1 $147 -1.841189538950422 $151 1.841189538950422 $142 $168 forward 7 unknown #
straight-curve $-1 -58.629194928604903 -9.4509544216597394 -12.917854875016266 -1 0 0 I I #
vertex $-1 $111 $169 #
straight-curve $-1 -58.629194928604903 -5.7685753437588954 -12.917854875016266 1 0 0 I I #
point $-1 -50.2249214148381 -9.4509544216597394 -12.917854875016266 #
straight-curve $-1 -50.2249214148381 -9.4509544216597394 0 0 0 -1 I I #
coedge $-1 $117 $116 $143 $163 forward $118 $-1 #
point $-1 -50.2249214148381 -9.4509544216597394 12.917854875016266 #
vertex $-1 $122 $170 #
straight-curve $-1 -58.629194928604903 -5.7685753437588954 12.917854875016266 -1 0 0 I I #
straight-curve $-1 -50.2249214148381 31.604285093791429 0 0 0 -1 I I #
point $-1 -50.2249214148381 -31.604285093791429 -12.917854875016266 #
straight-curve $-1 -50.2249214148381 0 -12.917854875016266 0 1 0 I I #
point $-1 -50.2249214148381 31.604285093791429 -12.917854875016266 #
edge $-1 $157 -1.841189538950422 $146 1.841189538950422 $143 $171 forward 7 unknown #
straight-curve $-1 -67.033468442371699 -5.7685753437588954 0 0 0 -1 I I #
straight-curve $-1 -58.629194928604903 -9.4509544216597394 12.917854875016266 1 0 0 I I #
point $-1 -67.033468442371699 -9.4509544216597394 12.917854875016266 #
point $-1 -67.033468442371699 -9.4509544216597394 -12.917854875016266 #
straight-curve $-1 -67.033468442371699 -7.6097648827093174 -12.917854875016266 0 1 0 I I #
point $-1 -67.033468442371699 -5.7685753437588954 -12.917854875016266 #
point $-1 -67.033468442371699 -5.7685753437588954 12.917854875016266 #
straight-curve $-1 -67.033468442371699 -7.6097648827093174 12.917854875016266 0 -1 0 I I #
End-of-ACIS-data 