500 0 4 0           
7 Unknown 11 ACIS 5.0 NT 24 Fri Mar 26 19:39:36 1999 
-1 9.9999999999999995e-007 1e-010 
body $-1 $4 $-1 $5 #
body $-1 $6 $-1 $7 #
body $-1 $8 $-1 $9 #
body $-1 $10 $-1 $11 #
lump $-1 $-1 $12 $0 #
transform $-1 1 0 0 0 1 0 0 0 1 78.994109927671133 33.28712034172527 13.077844896365255 1 rotate no_reflect no_shear #
lump $-1 $-1 $13 $1 #
transform $-1 1 0 0 0 1 0 0 0 1 78.994109927671133 33.28712034172527 13.077844896365255 1 rotate no_reflect no_shear #
lump $-1 $-1 $14 $2 #
transform $-1 1 0 0 0 1 0 0 0 1 78.994109927671133 33.28712034172527 13.077844896365255 1 rotate no_reflect no_shear #
lump $-1 $-1 $15 $3 #
transform $-1 1 0 0 0 1 0 0 0 1 78.994109927671133 33.28712034172527 13.077844896365255 1 rotate no_reflect no_shear #
shell $-1 $-1 $-1 $16 $-1 $4 #
shell $-1 $-1 $-1 $17 $-1 $6 #
shell $-1 $-1 $-1 $18 $-1 $8 #
shell $-1 $-1 $-1 $19 $-1 $10 #
face $-1 $20 $21 $12 $-1 $22 forward single #
face $-1 $23 $24 $13 $-1 $25 forward single #
face $-1 $26 $27 $14 $-1 $28 forward single #
face $-1 $29 $30 $15 $-1 $31 reversed single #
face $-1 $32 $33 $12 $-1 $34 reversed single #
loop $-1 $-1 $35 $16 #
plane-surface $-1 0 0 13.077844896365255 0 0 1 1 0 0 forward_v I I I I #
face $-1 $36 $37 $13 $-1 $38 forward single #
loop $-1 $-1 $39 $17 #
plane-surface $-1 -76.968953740389821 -24.520873318743249 0 0 -1 0 0 0 -1 forward_v I I I I #
face $-1 $40 $41 $14 $-1 $42 forward single #
loop $-1 $-1 $43 $18 #
plane-surface $-1 106.22326856992217 -18.351604460746152 229.33736116665625 0 -1 0 -0.78801076186113728 0 -0.61566146476048833 forward_v I I I I #
face $-1 $44 $45 $15 $-1 $46 reversed single #
loop $-1 $47 $48 $19 #
cone-surface $-1 74.763075050110373 -21.4362388897447 8.7000076754091893 -0.78801076186113728 0 -0.61566146476048833 0.9234921971407325 0 -1.182016142791706 1 I I 0 1 1.5 forward I I I I #
face $-1 $49 $50 $12 $-1 $51 reversed single #
loop $-1 $-1 $52 $20 #
plane-surface $-1 0 0 -13.077844896365255 0 0 1 1 0 0 forward_v I I I I #
coedge $-1 $53 $54 $55 $56 forward $21 $-1 #
face $-1 $57 $58 $13 $-1 $59 forward single #
loop $-1 $-1 $60 $23 #
plane-surface $-1 -74.94379755310851 -28.903996830234259 0 -1 0 0 0 0 1 forward_v I I I I #
coedge $-1 $61 $62 $63 $64 reversed $24 $-1 #
face $-1 $65 $66 $14 $-1 $67 forward single #
loop $-1 $-1 $68 $26 #
plane-surface $-1 -18.27314892337094 -21.4362388897447 132.07010231561418 0.78801076186113728 0 0.61566146476048833 0.61566146476048833 0 -0.78801076186113728 forward_v I I I I #
coedge $-1 $69 $70 $71 $72 reversed $27 $-1 #
face $-1 $73 $74 $15 $-1 $75 forward single #
loop $-1 $76 $77 $29 #
cone-surface $-1 72.091192617654059 -21.4362388897447 6.6125043929048477 -0.78801076186113728 0 -0.61566146476048833 0.46174609857036625 0 -0.59100807139585299 1 I I -0.70710678118654757 0.70710678118654757 0.75 forward I I I I #
loop $-1 $-1 $78 $19 #
coedge $-1 $48 $48 $79 $80 reversed $30 $-1 #
face $-1 $81 $82 $12 $-1 $83 reversed single #
loop $-1 $-1 $84 $32 #
plane-surface $-1 0 -33.28712034172527 0 0 1 0 0 0 1 forward_v I I I I #
coedge $-1 $85 $86 $87 $88 forward $33 $-1 #
coedge $-1 $89 $35 $90 $91 forward $21 $-1 #
coedge $-1 $35 $89 $92 $93 forward $21 $-1 #
coedge $-1 $94 $95 $35 $56 reversed $96 $-1 #
edge $-1 $97 -33.28712034172527 $98 33.28712034172527 $55 $99 forward 7 unknown #
face $-1 $100 $101 $13 $-1 $102 reversed single #
loop $-1 $-1 $103 $36 #
plane-surface $-1 0 0 13.077844896365255 0 0 1 1 0 0 forward_v I I I I #
coedge $-1 $104 $105 $106 $107 reversed $37 $-1 #
coedge $-1 $108 $39 $103 $109 reversed $24 $-1 #
coedge $-1 $39 $108 $110 $111 reversed $24 $-1 #
coedge $-1 $105 $104 $39 $64 forward $37 $-1 #
edge $-1 $112 -13.077844896365255 $113 13.077844896365255 $63 $114 forward 7 unknown #
face $-1 $115 $116 $14 $-1 $117 forward single #
loop $-1 $-1 $118 $40 #
plane-surface $-1 106.22326856992217 -24.520873318743249 229.33736116665625 0 1 0 0.78801076186113728 0 0.61566146476048833 forward_v I I I I #
coedge $-1 $119 $120 $121 $122 reversed $41 $-1 #
coedge $-1 $70 $43 $120 $123 forward $27 $-1 #
coedge $-1 $43 $69 $124 $125 reversed $27 $-1 #
coedge $-1 $126 $121 $43 $72 forward $116 $-1 #
edge $-1 $127 21.582154609709505 $128 25.882475642710048 $71 $129 forward 7 unknown #
face $-1 $130 $131 $15 $-1 $132 forward single #
loop $-1 $-1 $133 $44 #
plane-surface $-1 106.22326856992217 -18.351604460746152 229.33736116665625 0 -1 0 -0.78801076186113728 0 -0.61566146476048833 forward_v I I I I #
loop $-1 $-1 $134 $29 #
coedge $-1 $77 $77 $78 $135 forward $45 $-1 #
coedge $-1 $78 $78 $77 $135 reversed $47 $-1 #
coedge $-1 $79 $79 $48 $80 forward $131 $-1 #
edge $-1 $136 0 $136 6.2831853071796004 $79 $137 forward 7 unknown #
face $-1 $138 $139 $12 $-1 $140 reversed single #
loop $-1 $-1 $141 $49 #
plane-surface $-1 -78.994109927671133 0 0 1 0 0 0 0 -1 forward_v I I I I #
coedge $-1 $142 $92 $143 $144 forward $50 $-1 #
coedge $-1 $145 $52 $142 $146 forward $33 $-1 #
coedge $-1 $52 $145 $147 $148 forward $33 $-1 #
coedge $-1 $95 $94 $52 $88 reversed $96 $-1 #
edge $-1 $149 -33.28712034172527 $150 33.28712034172527 $87 $151 forward 7 unknown #
coedge $-1 $54 $53 $152 $153 forward $21 $-1 #
coedge $-1 $154 $155 $53 $91 reversed $139 $-1 #
edge $-1 $98 -78.994109927671133 $156 78.994109927671133 $90 $157 forward 7 unknown #
coedge $-1 $84 $158 $54 $93 reversed $50 $-1 #
edge $-1 $159 -78.994109927671133 $97 78.994109927671133 $92 $160 forward 7 unknown #
coedge $-1 $87 $55 $158 $161 forward $96 $-1 #
coedge $-1 $55 $87 $154 $162 reversed $96 $-1 #
loop $-1 $-1 $94 $138 #
vertex $-1 $56 $163 #
vertex $-1 $56 $164 #
straight-curve $-1 78.994109927671133 0 13.077844896365255 0 1 0 I I #
face $-1 $165 $166 $13 $-1 $167 reversed single #
loop $-1 $-1 $106 $57 #
plane-surface $-1 0 -33.28712034172527 0 0 1 0 0 0 1 forward_v I I I I #
coedge $-1 $168 $169 $61 $109 forward $58 $-1 #
coedge $-1 $63 $60 $168 $170 reversed $37 $-1 #
coedge $-1 $60 $63 $171 $172 reversed $37 $-1 #
coedge $-1 $173 $174 $60 $107 forward $101 $-1 #
edge $-1 $175 -13.077844896365255 $176 13.077844896365255 $106 $177 forward 7 unknown #
coedge $-1 $62 $61 $178 $179 reversed $24 $-1 #
edge $-1 $180 -40.509633057476222 $112 -36.459320682913599 $103 $181 forward 7 unknown #
coedge $-1 $182 $171 $62 $111 forward $166 $-1 #
edge $-1 $113 36.459320682913599 $183 40.509633057476222 $110 $184 forward 7 unknown #
vertex $-1 $109 $185 #
vertex $-1 $111 $186 #
straight-curve $-1 -74.94379755310851 -24.520873318743249 0 0 0 -1 I I #
face $-1 $187 $188 $14 $-1 $189 forward single #
loop $-1 $-1 $190 $65 #
plane-surface $-1 0 0 13.077844896365255 0 0 1 1 0 0 forward_v I I I I #
coedge $-1 $191 $192 $190 $193 reversed $66 $-1 #
coedge $-1 $194 $68 $192 $195 reversed $41 $-1 #
coedge $-1 $68 $194 $69 $123 reversed $41 $-1 #
coedge $-1 $71 $190 $68 $122 forward $116 $-1 #
edge $-1 $196 -13.802753873870898 $127 -7.6334850158738021 $121 $197 forward 7 unknown #
edge $-1 $127 151.00334053587159 $198 157.98821985534224 $69 $199 forward 7 unknown #
coedge $-1 $200 $201 $70 $125 forward $202 $-1 #
edge $-1 $128 101.59083568696288 $198 107.09499576100704 $124 $203 forward 7 unknown #
coedge $-1 $204 $71 $201 $205 forward $116 $-1 #
vertex $-1 $122 $206 #
vertex $-1 $205 $207 #
straight-curve $-1 53.111634284961085 -18.351604460746152 13.077844896365249 1 0 0 I I #
face $-1 $208 $209 $15 $-1 $210 forward single #
loop $-1 $211 $79 $73 #
plane-surface $-1 -18.27314892337094 -21.4362388897447 132.07010231561418 0.78801076186113728 0 0.61566146476048833 0.61566146476048833 0 -0.78801076186113728 forward_v I I I I #
coedge $-1 $212 $213 $214 $215 reversed $74 $-1 #
coedge $-1 $134 $134 $-1 $216 forward $76 $-1 #
edge $-1 $217 0 $217 6.2831853071796004 $77 $218 forward 7 unknown #
vertex $-1 $80 $219 #
ellipse-curve $-1 76.843949411170854 -21.4362388897447 10.325764859343176 -0.78801076186113728 0 -0.61566146476048833 0.9234921971407325 0 -1.182016142791706 1 I I #
face $-1 $-1 $96 $12 $-1 $220 reversed single #
loop $-1 $-1 $154 $81 #
plane-surface $-1 0 33.28712034172527 0 0 -1 0 0 0 -1 forward_v I I I I #
coedge $-1 $221 $152 $155 $222 forward $82 $-1 #
coedge $-1 $158 $84 $85 $146 reversed $50 $-1 #
coedge $-1 $152 $221 $84 $144 reversed $82 $-1 #
edge $-1 $159 -13.077844896365255 $223 13.077844896365255 $143 $224 forward 7 unknown #
coedge $-1 $86 $85 $221 $225 forward $33 $-1 #
edge $-1 $150 -78.994109927671133 $223 78.994109927671133 $142 $226 forward 7 unknown #
coedge $-1 $155 $154 $86 $148 reversed $139 $-1 #
edge $-1 $227 -78.994109927671133 $149 78.994109927671133 $147 $228 forward 7 unknown #
vertex $-1 $88 $229 #
vertex $-1 $161 $230 #
straight-curve $-1 78.994109927671133 0 -13.077844896365255 0 -1 0 I I #
coedge $-1 $141 $143 $89 $153 reversed $82 $-1 #
edge $-1 $156 -33.28712034172527 $159 33.28712034172527 $152 $231 forward 7 unknown #
coedge $-1 $147 $90 $95 $162 forward $139 $-1 #
coedge $-1 $90 $147 $141 $222 reversed $139 $-1 #
vertex $-1 $91 $232 #
straight-curve $-1 0 33.28712034172527 13.077844896365255 -1 0 0 I I #
coedge $-1 $92 $142 $94 $161 reversed $50 $-1 #
vertex $-1 $153 $233 #
straight-curve $-1 0 -33.28712034172527 13.077844896365255 1 0 0 I I #
edge $-1 $97 -13.077844896365255 $150 13.077844896365255 $94 $234 forward 7 unknown #
edge $-1 $98 -13.077844896365255 $149 13.077844896365255 $95 $235 forward 7 unknown #
point $-1 78.994109927671133 -33.28712034172527 13.077844896365255 #
point $-1 78.994109927671133 33.28712034172527 13.077844896365255 #
face $-1 $236 $237 $13 $-1 $238 reversed single #
loop $-1 $-1 $110 $100 #
plane-surface $-1 0 0 -13.077844896365255 0 0 1 1 0 0 forward_v I I I I #
coedge $-1 $239 $103 $104 $170 forward $58 $-1 #
coedge $-1 $103 $240 $241 $242 forward $58 $-1 #
edge $-1 $112 10.068874903626119 $175 18.835121926608139 $168 $243 forward 7 unknown #
coedge $-1 $110 $244 $105 $172 forward $166 $-1 #
edge $-1 $176 -18.835121926608139 $113 -10.068874903626119 $171 $245 forward 7 unknown #
coedge $-1 $246 $106 $244 $247 reversed $101 $-1 #
coedge $-1 $106 $246 $239 $248 reversed $101 $-1 #
vertex $-1 $248 $249 #
vertex $-1 $107 $250 #
straight-curve $-1 -74.94379755310851 -33.28712034172527 0 0 0 -1 I I #
coedge $-1 $241 $251 $108 $179 forward $237 $-1 #
edge $-1 $183 -13.077844896365255 $180 13.077844896365255 $178 $252 forward 7 unknown #
vertex $-1 $179 $253 #
straight-curve $-1 -38.484476870194911 -24.520873318743249 13.077844896365255 1 0 0 I I #
coedge $-1 $254 $110 $251 $255 forward $166 $-1 #
vertex $-1 $255 $256 #
straight-curve $-1 -38.484476870194911 -24.520873318743249 -13.077844896365255 -1 0 0 I I #
point $-1 -74.94379755310851 -24.520873318743249 13.077844896365255 #
point $-1 -74.94379755310851 -24.520873318743249 -13.077844896365255 #
face $-1 $257 $258 $14 $-1 $259 forward single #
loop $-1 $-1 $260 $115 #
plane-surface $-1 -76.968953740389821 -24.520873318743249 0 0 -1 0 0 0 -1 forward_v I I I I #
coedge $-1 $121 $261 $118 $193 forward $116 $-1 #
coedge $-1 $192 $118 $262 $263 reversed $66 $-1 #
coedge $-1 $118 $191 $119 $195 forward $66 $-1 #
edge $-1 $264 -25.882475642710048 $196 -21.582154609709505 $190 $265 forward 7 unknown #
coedge $-1 $120 $119 $200 $266 reversed $41 $-1 #
edge $-1 $267 -157.98821985534224 $196 -151.00334053587159 $192 $268 forward 7 unknown #
vertex $-1 $122 $269 #
straight-curve $-1 74.69378889467059 -10.71811944487235 13.077844896365249 0 1 0 I I #
vertex $-1 $266 $270 #
straight-curve $-1 -18.27314892337094 -18.351604460746152 132.07010231561418 0.61566146476048833 0 -0.78801076186113728 I I #
coedge $-1 $262 $124 $194 $266 forward $202 $-1 #
coedge $-1 $124 $271 $126 $205 reversed $202 $-1 #
loop $-1 $-1 $262 $272 #
straight-curve $-1 78.994109927671133 -18.351604460746152 114.66868058332813 0 0 -1 I I #
coedge $-1 $273 $126 $274 $275 forward $116 $-1 #
edge $-1 $128 -18.351604460746152 $276 33.28712034172527 $201 $277 forward 7 unknown #
point $-1 74.69378889467059 -18.351604460746152 13.077844896365249 #
point $-1 78.994109927671133 -18.351604460746152 13.077844896365255 #
face $-1 $278 $279 $15 $-1 $280 forward single #
loop $-1 $-1 $281 $130 #
plane-surface $-1 106.22326856992217 -24.520873318743249 229.33736116665625 0 1 0 0.78801076186113728 0 0.61566146476048833 forward_v I I I I #
loop $-1 $-1 $282 $73 #
coedge $-1 $213 $133 $283 $284 forward $74 $-1 #
coedge $-1 $133 $212 $285 $286 reversed $74 $-1 #
coedge $-1 $287 $288 $133 $215 forward $279 $-1 #
edge $-1 $289 21.582154609709505 $290 25.882475642710048 $214 $291 forward 7 unknown #
edge $-1 $292 1 $292 0 $134 $-1 forward 7 unknown #
vertex $-1 $135 $293 #
ellipse-curve $-1 72.682200689049907 -21.4362388897447 7.0742504914752136 0.78801076186113728 0 0.61566146476048833 0.9234921971407325 0 -1.182016142791706 1 I I #
point $-1 77.767441608311572 -21.4362388897447 9.1437487165514586 #
plane-surface $-1 78.994109927671133 0 0 -1 0 0 0 0 1 forward_v I I I I #
coedge $-1 $143 $141 $145 $225 reversed $82 $-1 #
edge $-1 $156 -13.077844896365255 $227 13.077844896365255 $155 $294 forward 7 unknown #
vertex $-1 $225 $295 #
straight-curve $-1 -78.994109927671133 -33.28712034172527 0 0 0 -1 I I #
edge $-1 $223 -33.28712034172527 $227 33.28712034172527 $221 $296 forward 7 unknown #
straight-curve $-1 0 -33.28712034172527 -13.077844896365255 -1 0 0 I I #
vertex $-1 $148 $297 #
straight-curve $-1 0 33.28712034172527 -13.077844896365255 1 0 0 I I #
point $-1 78.994109927671133 33.28712034172527 -13.077844896365255 #
point $-1 78.994109927671133 -33.28712034172527 -13.077844896365255 #
straight-curve $-1 -78.994109927671133 0 13.077844896365255 0 -1 0 I I #
point $-1 -78.994109927671133 33.28712034172527 13.077844896365255 #
point $-1 -78.994109927671133 -33.28712034172527 13.077844896365255 #
straight-curve $-1 78.994109927671133 -33.28712034172527 0 0 0 -1 I I #
straight-curve $-1 78.994109927671133 33.28712034172527 0 0 0 -1 I I #
face $-1 $298 $299 $13 $-1 $300 reversed single #
loop $-1 $-1 $178 $165 #
plane-surface $-1 -78.994109927671133 0 0 1 0 0 0 0 -1 forward_v I I I I #
coedge $-1 $301 $168 $174 $248 forward $58 $-1 #
coedge $-1 $169 $301 $302 $303 forward $58 $-1 #
coedge $-1 $304 $178 $169 $242 reversed $237 $-1 #
edge $-1 $305 -33.28712034172527 $180 24.520873318743249 $241 $306 forward 7 unknown #
straight-curve $-1 -74.94379755310851 -14.45199841511713 13.077844896365255 0 -1 0 I I #
coedge $-1 $171 $307 $173 $247 forward $166 $-1 #
straight-curve $-1 -74.94379755310851 -14.45199841511713 -13.077844896365255 0 1 0 I I #
coedge $-1 $174 $173 $308 $309 reversed $101 $-1 #
edge $-1 $310 -78.994109927671133 $176 74.94379755310851 $173 $311 forward 7 unknown #
edge $-1 $175 -74.94379755310851 $312 78.994109927671133 $174 $313 forward 7 unknown #
point $-1 -74.94379755310851 -33.28712034172527 13.077844896365255 #
point $-1 -74.94379755310851 -33.28712034172527 -13.077844896365255 #
coedge $-1 $178 $304 $182 $255 reversed $237 $-1 #
straight-curve $-1 -78.994109927671133 -24.520873318743249 0 0 0 1 I I #
point $-1 -78.994109927671133 -24.520873318743249 13.077844896365255 #
coedge $-1 $307 $182 $314 $315 forward $166 $-1 #
edge $-1 $183 -24.520873318743249 $316 33.28712034172527 $251 $317 forward 7 unknown #
point $-1 -78.994109927671133 -24.520873318743249 -13.077844896365255 #
face $-1 $318 $319 $14 $-1 $320 reversed single #
loop $-1 $-1 $321 $187 #
plane-surface $-1 -74.94379755310851 -28.903996830234259 0 -1 0 0 0 0 1 forward_v I I I I #
coedge $-1 $322 $323 $324 $325 reversed $188 $-1 #
coedge $-1 $190 $326 $327 $328 forward $116 $-1 #
coedge $-1 $327 $200 $191 $263 forward $202 $-1 #
edge $-1 $267 -107.09499576100704 $264 -101.59083568696288 $262 $329 forward 7 unknown #
vertex $-1 $263 $330 #
straight-curve $-1 53.111634284961085 -24.520873318743249 13.077844896365249 -1 0 0 I I #
edge $-1 $198 7.6334850158738021 $267 13.802753873870898 $200 $331 forward 7 unknown #
vertex $-1 $266 $332 #
straight-curve $-1 -18.27314892337094 -24.520873318743249 132.07010231561418 -0.61566146476048833 0 0.78801076186113728 I I #
point $-1 74.69378889467059 -24.520873318743249 13.077844896365249 #
point $-1 78.994109927671133 -18.351604460746152 7.5736848223210842 #
coedge $-1 $201 $333 $334 $335 reversed $202 $-1 #
face $-1 $-1 $202 $14 $-1 $336 reversed single #
coedge $-1 $337 $204 $338 $339 forward $116 $-1 #
coedge $-1 $334 $340 $204 $275 reversed $341 $-1 #
edge $-1 $276 -78.994109927671133 $342 78.994109927671133 $274 $343 forward 7 unknown #
vertex $-1 $205 $344 #
straight-curve $-1 78.994109927671133 0 13.077844896365255 0 1 0 I I #
face $-1 $345 $346 $15 $-1 $347 forward single #
loop $-1 $-1 $348 $208 #
plane-surface $-1 0 0 13.077844896365255 0 0 1 1 0 0 forward_v I I I I #
coedge $-1 $349 $350 $348 $351 reversed $209 $-1 #
coedge $-1 $352 $283 $288 $353 reversed $211 $-1 #
coedge $-1 $282 $354 $212 $284 reversed $211 $-1 #
edge $-1 $289 151.00334053587159 $355 157.98821985534224 $212 $356 forward 7 unknown #
coedge $-1 $357 $358 $213 $286 forward $359 $-1 #
edge $-1 $290 101.59083568696288 $355 107.09499576100704 $285 $360 forward 7 unknown #
coedge $-1 $361 $214 $358 $362 forward $279 $-1 #
coedge $-1 $214 $348 $282 $353 forward $279 $-1 #
vertex $-1 $353 $363 #
vertex $-1 $362 $364 #
straight-curve $-1 53.111634284961085 -18.351604460746152 13.077844896365249 1 0 0 I I #
vertex $-1 $216 $365 #
point $-1 73.605692886190639 -21.4362388897447 5.892234348683508 #
straight-curve $-1 -78.994109927671133 33.28712034172527 0 0 0 -1 I I #
point $-1 -78.994109927671133 -33.28712034172527 -13.077844896365255 #
straight-curve $-1 -78.994109927671133 0 -13.077844896365255 0 1 0 I I #
point $-1 -78.994109927671133 33.28712034172527 -13.077844896365255 #
face $-1 $-1 $366 $13 $-1 $367 reversed single #
loop $-1 $-1 $368 $236 #
plane-surface $-1 0 33.28712034172527 0 0 -1 0 0 0 -1 forward_v I I I I #
coedge $-1 $240 $239 $369 $370 forward $58 $-1 #
coedge $-1 $368 $371 $240 $303 reversed $299 $-1 #
edge $-1 $372 -78.994109927671133 $305 78.994109927671133 $302 $373 forward 7 unknown #
coedge $-1 $251 $241 $371 $374 forward $237 $-1 #
vertex $-1 $303 $375 #
straight-curve $-1 -78.994109927671133 0 13.077844896365255 0 -1 0 I I #
coedge $-1 $244 $254 $376 $377 forward $166 $-1 #
coedge $-1 $376 $369 $246 $309 forward $366 $-1 #
edge $-1 $312 -13.077844896365255 $310 13.077844896365255 $308 $378 forward 7 unknown #
vertex $-1 $309 $379 #
straight-curve $-1 0 -33.28712034172527 -13.077844896365255 -1 0 0 I I #
vertex $-1 $370 $380 #
straight-curve $-1 0 -33.28712034172527 13.077844896365255 1 0 0 I I #
coedge $-1 $371 $368 $254 $315 reversed $299 $-1 #
edge $-1 $316 -78.994109927671133 $381 78.994109927671133 $314 $382 forward 7 unknown #
vertex $-1 $315 $383 #
straight-curve $-1 -78.994109927671133 0 -13.077844896365255 0 1 0 I I #
face $-1 $384 $385 $14 $-1 $386 reversed single #
loop $-1 $-1 $387 $257 #
plane-surface $-1 0 -33.28712034172527 0 0 1 0 0 0 1 forward_v I I I I #
coedge $-1 $388 $389 $387 $390 reversed $258 $-1 #
coedge $-1 $391 $260 $337 $392 reversed $188 $-1 #
coedge $-1 $260 $391 $393 $394 reversed $188 $-1 #
coedge $-1 $389 $388 $260 $325 forward $258 $-1 #
edge $-1 $395 -13.077844896365255 $396 13.077844896365255 $324 $397 forward 7 unknown #
coedge $-1 $261 $398 $399 $400 forward $116 $-1 #
coedge $-1 $401 $262 $261 $328 reversed $202 $-1 #
edge $-1 $402 -33.28712034172527 $264 -24.520873318743249 $327 $277 forward 7 unknown #
straight-curve $-1 78.994109927671133 -24.520873318743249 114.66868058332813 0 0 1 I I #
point $-1 78.994109927671133 -24.520873318743249 13.077844896365255 #
straight-curve $-1 78.994109927671133 -10.71811944487235 7.5736848223210629 0 -1 0 I I #
point $-1 78.994109927671133 -24.520873318743249 7.5736848223210842 #
coedge $-1 $271 $401 $403 $404 reversed $202 $-1 #
coedge $-1 $405 $274 $271 $335 forward $341 $-1 #
edge $-1 $276 -13.077844896365255 $406 13.077844896365255 $271 $407 forward 7 unknown #
plane-surface $-1 78.994109927671133 0 0 -1 0 0 0 0 1 forward_v I I I I #
coedge $-1 $398 $273 $322 $392 forward $116 $-1 #
coedge $-1 $408 $409 $273 $339 reversed $410 $-1 #
edge $-1 $342 -33.28712034172527 $411 24.520873318743249 $338 $412 forward 7 unknown #
coedge $-1 $274 $405 $408 $413 reversed $341 $-1 #
loop $-1 $-1 $334 $414 #
vertex $-1 $275 $415 #
straight-curve $-1 0 33.28712034172527 13.077844896365255 -1 0 0 I I #
point $-1 78.994109927671133 33.28712034172527 13.077844896365255 #
face $-1 $416 $417 $15 $-1 $418 forward single #
loop $-1 $-1 $419 $278 #
plane-surface $-1 -76.968953740389821 -24.520873318743249 0 0 -1 0 0 0 -1 forward_v I I I I #
coedge $-1 $288 $420 $281 $351 forward $279 $-1 #
coedge $-1 $350 $281 $421 $422 reversed $209 $-1 #
coedge $-1 $281 $349 $352 $423 forward $209 $-1 #
edge $-1 $424 -25.882475642710048 $425 -21.582154609709505 $348 $426 forward 7 unknown #
coedge $-1 $354 $282 $350 $423 reversed $211 $-1 #
edge $-1 $425 -13.802753873870898 $289 -7.6334850158738021 $288 $427 forward 7 unknown #
coedge $-1 $283 $352 $357 $428 reversed $211 $-1 #
vertex $-1 $428 $429 #
straight-curve $-1 -18.27314892337094 -18.351604460746152 132.07010231561418 0.61566146476048833 0 -0.78801076186113728 I I #
coedge $-1 $421 $285 $354 $428 forward $359 $-1 #
coedge $-1 $285 $430 $287 $362 reversed $359 $-1 #
loop $-1 $-1 $421 $431 #
straight-curve $-1 78.994109927671133 -18.351604460746152 114.66868058332813 0 0 -1 I I #
coedge $-1 $432 $287 $433 $434 forward $279 $-1 #
edge $-1 $290 -18.351604460746152 $435 33.28712034172527 $358 $436 forward 7 unknown #
point $-1 74.69378889467059 -18.351604460746152 13.077844896365249 #
point $-1 78.994109927671133 -18.351604460746152 13.077844896365255 #
point $-1 71.500184546258211 -21.4362388897447 6.1507582943344818 #
loop $-1 $-1 $308 $298 #
plane-surface $-1 78.994109927671133 0 0 -1 0 0 0 0 1 forward_v I I I I #
coedge $-1 $314 $302 $437 $438 forward $299 $-1 #
coedge $-1 $308 $437 $301 $370 reversed $366 $-1 #
edge $-1 $312 -33.28712034172527 $372 33.28712034172527 $369 $439 forward 7 unknown #
coedge $-1 $302 $314 $304 $374 reversed $299 $-1 #
vertex $-1 $370 $440 #
straight-curve $-1 0 33.28712034172527 13.077844896365255 -1 0 0 I I #
edge $-1 $305 -13.077844896365255 $316 13.077844896365255 $371 $441 forward 7 unknown #
point $-1 -78.994109927671133 33.28712034172527 13.077844896365255 #
coedge $-1 $437 $308 $307 $377 reversed $366 $-1 #
edge $-1 $381 -33.28712034172527 $310 33.28712034172527 $376 $442 forward 7 unknown #
straight-curve $-1 78.994109927671133 -33.28712034172527 0 0 0 -1 I I #
point $-1 78.994109927671133 -33.28712034172527 -13.077844896365255 #
point $-1 78.994109927671133 -33.28712034172527 13.077844896365255 #
vertex $-1 $377 $443 #
straight-curve $-1 0 33.28712034172527 -13.077844896365255 1 0 0 I I #
point $-1 -78.994109927671133 33.28712034172527 -13.077844896365255 #
face $-1 $414 $410 $14 $-1 $444 reversed single #
loop $-1 $-1 $393 $318 #
plane-surface $-1 0 0 -13.077844896365255 0 0 1 1 0 0 forward_v I I I I #
coedge $-1 $445 $399 $321 $390 forward $319 $-1 #
coedge $-1 $324 $321 $398 $446 reversed $258 $-1 #
coedge $-1 $321 $324 $447 $448 reversed $258 $-1 #
edge $-1 $449 -13.077844896365255 $450 13.077844896365255 $387 $451 forward 7 unknown #
coedge $-1 $323 $322 $409 $452 reversed $188 $-1 #
edge $-1 $411 -40.509633057476222 $395 -36.459320682913599 $337 $453 forward 7 unknown #
coedge $-1 $454 $447 $323 $394 forward $385 $-1 #
edge $-1 $396 36.459320682913599 $455 40.509633057476222 $393 $456 forward 7 unknown #
vertex $-1 $392 $457 #
vertex $-1 $394 $458 #
straight-curve $-1 -74.94379755310851 -24.520873318743249 0 0 0 -1 I I #
coedge $-1 $326 $337 $388 $446 forward $116 $-1 #
coedge $-1 $387 $459 $326 $400 reversed $319 $-1 #
edge $-1 $449 -74.94379755310851 $402 78.994109927671133 $399 $460 forward 7 unknown #
coedge $-1 $333 $327 $459 $461 forward $202 $-1 #
vertex $-1 $328 $462 #
coedge $-1 $463 $464 $333 $404 forward $385 $-1 #
edge $-1 $406 -33.28712034172527 $465 33.28712034172527 $333 $466 forward 7 unknown #
coedge $-1 $340 $334 $464 $467 reversed $341 $-1 #
vertex $-1 $404 $468 #
straight-curve $-1 78.994109927671133 33.28712034172527 0 0 0 -1 I I #
coedge $-1 $469 $338 $340 $413 forward $410 $-1 #
coedge $-1 $338 $469 $391 $452 forward $410 $-1 #
loop $-1 $-1 $409 $384 #
vertex $-1 $452 $470 #
straight-curve $-1 -78.994109927671133 0 13.077844896365255 0 -1 0 I I #
edge $-1 $342 -13.077844896365255 $471 13.077844896365255 $340 $472 forward 7 unknown #
face $-1 $272 $341 $14 $-1 $473 reversed single #
point $-1 -78.994109927671133 33.28712034172527 13.077844896365255 #
face $-1 $474 $475 $15 $-1 $476 reversed single #
loop $-1 $-1 $477 $345 #
plane-surface $-1 -74.94379755310851 -28.903996830234259 0 -1 0 0 0 0 1 forward_v I I I I #
coedge $-1 $478 $479 $480 $481 reversed $346 $-1 #
coedge $-1 $348 $482 $483 $484 forward $279 $-1 #
coedge $-1 $483 $357 $349 $422 forward $359 $-1 #
edge $-1 $485 -107.09499576100704 $424 -101.59083568696288 $421 $486 forward 7 unknown #
edge $-1 $485 -157.98821985534224 $425 -151.00334053587159 $350 $487 forward 7 unknown #
vertex $-1 $422 $488 #
vertex $-1 $353 $489 #
straight-curve $-1 53.111634284961085 -24.520873318743249 13.077844896365249 -1 0 0 I I #
straight-curve $-1 74.69378889467059 -10.71811944487235 13.077844896365249 0 1 0 I I #
edge $-1 $355 7.6334850158738021 $485 13.802753873870898 $357 $490 forward 7 unknown #
point $-1 78.994109927671133 -18.351604460746152 7.5736848223210842 #
coedge $-1 $358 $491 $492 $493 reversed $359 $-1 #
face $-1 $-1 $359 $15 $-1 $494 reversed single #
coedge $-1 $495 $361 $496 $497 forward $279 $-1 #
coedge $-1 $492 $498 $361 $434 reversed $499 $-1 #
edge $-1 $435 -78.994109927671133 $500 78.994109927671133 $433 $501 forward 7 unknown #
vertex $-1 $362 $502 #
straight-curve $-1 78.994109927671133 0 13.077844896365255 0 1 0 I I #
coedge $-1 $369 $376 $368 $438 reversed $366 $-1 #
edge $-1 $372 -13.077844896365255 $381 13.077844896365255 $437 $503 forward 7 unknown #
straight-curve $-1 78.994109927671133 0 13.077844896365255 0 1 0 I I #
point $-1 78.994109927671133 33.28712034172527 13.077844896365255 #
straight-curve $-1 -78.994109927671133 33.28712034172527 0 0 0 -1 I I #
straight-curve $-1 78.994109927671133 0 -13.077844896365255 0 -1 0 I I #
point $-1 78.994109927671133 33.28712034172527 -13.077844896365255 #
plane-surface $-1 -78.994109927671133 0 0 1 0 0 0 0 -1 forward_v I I I I #
coedge $-1 $459 $387 $463 $504 reversed $319 $-1 #
edge $-1 $395 10.068874903626119 $449 18.835121926608139 $398 $505 forward 7 unknown #
coedge $-1 $393 $463 $389 $448 forward $385 $-1 #
edge $-1 $450 -18.835121926608139 $396 -10.068874903626119 $447 $506 forward 7 unknown #
vertex $-1 $400 $507 #
vertex $-1 $390 $508 #
straight-curve $-1 -74.94379755310851 -33.28712034172527 0 0 0 -1 I I #
edge $-1 $455 -13.077844896365255 $411 13.077844896365255 $409 $509 forward 7 unknown #
straight-curve $-1 -38.484476870194911 -24.520873318743249 13.077844896365255 1 0 0 I I #
coedge $-1 $464 $393 $469 $510 forward $385 $-1 #
vertex $-1 $510 $511 #
straight-curve $-1 -38.484476870194911 -24.520873318743249 -13.077844896365255 -1 0 0 I I #
point $-1 -74.94379755310851 -24.520873318743249 13.077844896365255 #
point $-1 -74.94379755310851 -24.520873318743249 -13.077844896365255 #
coedge $-1 $399 $445 $401 $461 reversed $319 $-1 #
straight-curve $-1 0 -33.28712034172527 13.077844896365255 1 0 0 I I #
edge $-1 $402 -13.077844896365255 $465 13.077844896365255 $401 $512 forward 7 unknown #
point $-1 78.994109927671133 -33.28712034172527 13.077844896365255 #
coedge $-1 $447 $403 $445 $504 forward $385 $-1 #
coedge $-1 $403 $454 $405 $467 forward $385 $-1 #
vertex $-1 $461 $513 #
straight-curve $-1 78.994109927671133 0 -13.077844896365255 0 -1 0 I I #
edge $-1 $471 -78.994109927671133 $406 78.994109927671133 $405 $514 forward 7 unknown #
point $-1 78.994109927671133 33.28712034172527 -13.077844896365255 #
coedge $-1 $409 $408 $454 $510 reversed $410 $-1 #
point $-1 -78.994109927671133 -24.520873318743249 13.077844896365255 #
vertex $-1 $467 $515 #
straight-curve $-1 -78.994109927671133 33.28712034172527 0 0 0 -1 I I #
plane-surface $-1 0 33.28712034172527 0 0 -1 0 0 0 -1 forward_v I I I I #
face $-1 $516 $517 $15 $-1 $518 reversed single #
loop $-1 $-1 $519 $416 #
plane-surface $-1 0 -33.28712034172527 0 0 1 0 0 0 1 forward_v I I I I #
coedge $-1 $520 $521 $519 $522 reversed $417 $-1 #
coedge $-1 $523 $419 $495 $524 reversed $346 $-1 #
coedge $-1 $419 $523 $525 $526 reversed $346 $-1 #
coedge $-1 $521 $520 $419 $481 forward $417 $-1 #
edge $-1 $527 -13.077844896365255 $528 13.077844896365255 $480 $529 forward 7 unknown #
coedge $-1 $420 $530 $531 $532 forward $279 $-1 #
coedge $-1 $533 $421 $420 $484 reversed $359 $-1 #
edge $-1 $534 -33.28712034172527 $424 -24.520873318743249 $483 $436 forward 7 unknown #
vertex $-1 $428 $535 #
straight-curve $-1 78.994109927671133 -24.520873318743249 114.66868058332813 0 0 1 I I #
straight-curve $-1 -18.27314892337094 -24.520873318743249 132.07010231561418 -0.61566146476048833 0 0.78801076186113728 I I #
point $-1 78.994109927671133 -24.520873318743249 13.077844896365255 #
point $-1 74.69378889467059 -24.520873318743249 13.077844896365249 #
straight-curve $-1 78.994109927671133 -10.71811944487235 7.5736848223210629 0 -1 0 I I #
coedge $-1 $430 $533 $536 $537 reversed $359 $-1 #
coedge $-1 $538 $433 $430 $493 forward $499 $-1 #
edge $-1 $435 -13.077844896365255 $539 13.077844896365255 $430 $540 forward 7 unknown #
plane-surface $-1 78.994109927671133 0 0 -1 0 0 0 0 1 forward_v I I I I #
coedge $-1 $530 $432 $478 $524 forward $279 $-1 #
coedge $-1 $541 $542 $432 $497 reversed $543 $-1 #
edge $-1 $500 -33.28712034172527 $544 24.520873318743249 $496 $545 forward 7 unknown #
coedge $-1 $433 $538 $541 $546 reversed $499 $-1 #
loop $-1 $-1 $492 $547 #
vertex $-1 $434 $548 #
straight-curve $-1 0 33.28712034172527 13.077844896365255 -1 0 0 I I #
point $-1 78.994109927671133 33.28712034172527 13.077844896365255 #
straight-curve $-1 78.994109927671133 33.28712034172527 0 0 0 -1 I I #
edge $-1 $465 -78.994109927671133 $450 74.94379755310851 $445 $549 forward 7 unknown #
straight-curve $-1 -74.94379755310851 -14.45199841511713 13.077844896365255 0 -1 0 I I #
straight-curve $-1 -74.94379755310851 -14.45199841511713 -13.077844896365255 0 1 0 I I #
point $-1 -74.94379755310851 -33.28712034172527 13.077844896365255 #
point $-1 -74.94379755310851 -33.28712034172527 -13.077844896365255 #
straight-curve $-1 -78.994109927671133 -24.520873318743249 0 0 0 1 I I #
edge $-1 $455 -24.520873318743249 $471 33.28712034172527 $469 $550 forward 7 unknown #
point $-1 -78.994109927671133 -24.520873318743249 -13.077844896365255 #
straight-curve $-1 78.994109927671133 -33.28712034172527 0 0 0 -1 I I #
point $-1 78.994109927671133 -33.28712034172527 -13.077844896365255 #
straight-curve $-1 0 33.28712034172527 -13.077844896365255 1 0 0 I I #
point $-1 -78.994109927671133 33.28712034172527 -13.077844896365255 #
face $-1 $547 $543 $15 $-1 $551 reversed single #
loop $-1 $-1 $525 $474 #
plane-surface $-1 0 0 -13.077844896365255 0 0 1 1 0 0 forward_v I I I I #
coedge $-1 $552 $531 $477 $522 forward $475 $-1 #
coedge $-1 $480 $477 $530 $553 reversed $417 $-1 #
coedge $-1 $477 $480 $554 $555 reversed $417 $-1 #
edge $-1 $556 -13.077844896365255 $557 13.077844896365255 $519 $558 forward 7 unknown #
coedge $-1 $479 $478 $542 $559 reversed $346 $-1 #
edge $-1 $544 -40.509633057476222 $527 -36.459320682913599 $495 $560 forward 7 unknown #
coedge $-1 $561 $554 $479 $526 forward $517 $-1 #
edge $-1 $528 36.459320682913599 $562 40.509633057476222 $525 $563 forward 7 unknown #
vertex $-1 $524 $564 #
vertex $-1 $526 $565 #
straight-curve $-1 -74.94379755310851 -24.520873318743249 0 0 0 -1 I I #
coedge $-1 $482 $495 $520 $553 forward $279 $-1 #
coedge $-1 $519 $566 $482 $532 reversed $475 $-1 #
edge $-1 $556 -74.94379755310851 $534 78.994109927671133 $531 $567 forward 7 unknown #
coedge $-1 $491 $483 $566 $568 forward $359 $-1 #
vertex $-1 $484 $569 #
point $-1 78.994109927671133 -24.520873318743249 7.5736848223210842 #
coedge $-1 $570 $571 $491 $537 forward $517 $-1 #
edge $-1 $539 -33.28712034172527 $572 33.28712034172527 $491 $573 forward 7 unknown #
coedge $-1 $498 $492 $571 $574 reversed $499 $-1 #
vertex $-1 $537 $575 #
straight-curve $-1 78.994109927671133 33.28712034172527 0 0 0 -1 I I #
coedge $-1 $576 $496 $498 $546 forward $543 $-1 #
coedge $-1 $496 $576 $523 $559 forward $543 $-1 #
loop $-1 $-1 $542 $516 #
vertex $-1 $559 $577 #
straight-curve $-1 -78.994109927671133 0 13.077844896365255 0 -1 0 I I #
edge $-1 $500 -13.077844896365255 $578 13.077844896365255 $498 $579 forward 7 unknown #
face $-1 $431 $499 $15 $-1 $580 reversed single #
point $-1 -78.994109927671133 33.28712034172527 13.077844896365255 #
straight-curve $-1 0 -33.28712034172527 -13.077844896365255 -1 0 0 I I #
straight-curve $-1 -78.994109927671133 0 -13.077844896365255 0 1 0 I I #
plane-surface $-1 -78.994109927671133 0 0 1 0 0 0 0 -1 forward_v I I I I #
coedge $-1 $566 $519 $570 $581 reversed $475 $-1 #
edge $-1 $527 10.068874903626119 $556 18.835121926608139 $530 $582 forward 7 unknown #
coedge $-1 $525 $570 $521 $555 forward $517 $-1 #
edge $-1 $557 -18.835121926608139 $528 -10.068874903626119 $554 $583 forward 7 unknown #
vertex $-1 $532 $584 #
vertex $-1 $522 $585 #
straight-curve $-1 -74.94379755310851 -33.28712034172527 0 0 0 -1 I I #
edge $-1 $562 -13.077844896365255 $544 13.077844896365255 $542 $586 forward 7 unknown #
straight-curve $-1 -38.484476870194911 -24.520873318743249 13.077844896365255 1 0 0 I I #
coedge $-1 $571 $525 $576 $587 forward $517 $-1 #
vertex $-1 $587 $588 #
straight-curve $-1 -38.484476870194911 -24.520873318743249 -13.077844896365255 -1 0 0 I I #
point $-1 -74.94379755310851 -24.520873318743249 13.077844896365255 #
point $-1 -74.94379755310851 -24.520873318743249 -13.077844896365255 #
coedge $-1 $531 $552 $533 $568 reversed $475 $-1 #
straight-curve $-1 0 -33.28712034172527 13.077844896365255 1 0 0 I I #
edge $-1 $534 -13.077844896365255 $572 13.077844896365255 $533 $589 forward 7 unknown #
point $-1 78.994109927671133 -33.28712034172527 13.077844896365255 #
coedge $-1 $554 $536 $552 $581 forward $517 $-1 #
coedge $-1 $536 $561 $538 $574 forward $517 $-1 #
vertex $-1 $568 $590 #
straight-curve $-1 78.994109927671133 0 -13.077844896365255 0 -1 0 I I #
edge $-1 $578 -78.994109927671133 $539 78.994109927671133 $538 $591 forward 7 unknown #
point $-1 78.994109927671133 33.28712034172527 -13.077844896365255 #
coedge $-1 $542 $541 $561 $587 reversed $543 $-1 #
point $-1 -78.994109927671133 -24.520873318743249 13.077844896365255 #
vertex $-1 $574 $592 #
straight-curve $-1 -78.994109927671133 33.28712034172527 0 0 0 -1 I I #
plane-surface $-1 0 33.28712034172527 0 0 -1 0 0 0 -1 forward_v I I I I #
edge $-1 $572 -78.994109927671133 $557 74.94379755310851 $552 $593 forward 7 unknown #
straight-curve $-1 -74.94379755310851 -14.45199841511713 13.077844896365255 0 -1 0 I I #
straight-curve $-1 -74.94379755310851 -14.45199841511713 -13.077844896365255 0 1 0 I I #
point $-1 -74.94379755310851 -33.28712034172527 13.077844896365255 #
point $-1 -74.94379755310851 -33.28712034172527 -13.077844896365255 #
straight-curve $-1 -78.994109927671133 -24.520873318743249 0 0 0 1 I I #
edge $-1 $562 -24.520873318743249 $578 33.28712034172527 $576 $594 forward 7 unknown #
point $-1 -78.994109927671133 -24.520873318743249 -13.077844896365255 #
straight-curve $-1 78.994109927671133 -33.28712034172527 0 0 0 -1 I I #
point $-1 78.994109927671133 -33.28712034172527 -13.077844896365255 #
straight-curve $-1 0 33.28712034172527 -13.077844896365255 1 0 0 I I #
point $-1 -78.994109927671133 33.28712034172527 -13.077844896365255 #
straight-curve $-1 0 -33.28712034172527 -13.077844896365255 -1 0 0 I I #
straight-curve $-1 -78.994109927671133 0 -13.077844896365255 0 1 0 I I #
End-of-ACIS-data 