500 0 9 0           
7 Unknown 11 ACIS 5.0 NT 24 Thu Mar 25 18:51:17 1999 
-1 9.9999999999999995e-007 1e-010 
body $-1 $9 $-1 $10 #
body $-1 $11 $-1 $12 #
body $-1 $13 $-1 $14 #
body $-1 $15 $-1 $16 #
body $-1 $17 $-1 $18 #
body $-1 $19 $-1 $20 #
body $-1 $21 $-1 $22 #
body $-1 $23 $-1 $24 #
body $-1 $25 $-1 $26 #
lump $-1 $-1 $27 $0 #
transform $-1 1 0 0 0 1 0 0 0 1 41.524704733420819 26.391575012233503 7.579593975955218 1 rotate no_reflect no_shear #
lump $-1 $-1 $28 $1 #
transform $-1 1 0 0 0 1 0 0 0 1 41.524704733420819 26.391575012233503 7.579593975955218 1 rotate no_reflect no_shear #
lump $-1 $-1 $29 $2 #
transform $-1 1 0 0 0 1 0 0 0 1 41.524704733420819 26.391575012233503 7.579593975955218 1 rotate no_reflect no_shear #
lump $-1 $-1 $30 $3 #
transform $-1 1 0 0 0 1 0 0 0 1 41.524704733420819 26.391575012233503 7.579593975955218 1 rotate no_reflect no_shear #
lump $-1 $-1 $31 $4 #
transform $-1 1 0 0 0 1 0 0 0 1 41.524704733420819 26.391575012233503 7.579593975955218 1 rotate no_reflect no_shear #
lump $-1 $-1 $32 $5 #
transform $-1 1 0 0 0 1 0 0 0 1 41.524704733420819 26.391575012233503 7.579593975955218 1 rotate no_reflect no_shear #
lump $-1 $-1 $33 $6 #
transform $-1 1 0 0 0 1 0 0 0 1 41.524704733420819 26.391575012233503 7.579593975955218 1 rotate no_reflect no_shear #
lump $-1 $-1 $34 $7 #
transform $-1 1 0 0 0 1 0 0 0 1 41.524704733420819 26.391575012233503 7.579593975955218 1 rotate no_reflect no_shear #
lump $-1 $-1 $35 $8 #
transform $-1 1 0 0 0 1 0 0 0 1 41.524704733420819 26.391575012233503 7.579593975955218 1 rotate no_reflect no_shear #
shell $-1 $-1 $-1 $36 $-1 $9 #
shell $-1 $-1 $-1 $37 $-1 $11 #
shell $-1 $-1 $-1 $38 $-1 $13 #
shell $-1 $-1 $-1 $39 $-1 $15 #
shell $-1 $-1 $-1 $40 $-1 $17 #
shell $-1 $-1 $-1 $41 $-1 $19 #
shell $-1 $-1 $-1 $42 $-1 $21 #
shell $-1 $-1 $-1 $43 $-1 $23 #
shell $-1 $-1 $-1 $44 $-1 $25 #
face $-1 $45 $46 $27 $-1 $47 forward single #
face $-1 $48 $49 $28 $-1 $50 reversed single #
face $-1 $51 $52 $29 $-1 $53 forward single #
face $-1 $54 $55 $30 $-1 $56 reversed single #
face $-1 $57 $58 $31 $-1 $59 forward single #
face $-1 $60 $61 $32 $-1 $62 reversed single #
face $-1 $63 $64 $33 $-1 $65 forward single #
face $-1 $66 $67 $34 $-1 $68 forward single #
face $-1 $69 $70 $35 $-1 $71 forward single #
face $-1 $72 $73 $27 $-1 $74 reversed single #
loop $-1 $-1 $75 $36 #
plane-surface $-1 0 0 7.579593975955218 0 0 1 1 0 0 forward_v I I I I #
face $-1 $76 $77 $28 $-1 $78 reversed single #
loop $-1 $-1 $79 $37 #
plane-surface $-1 -22.010002938951473 -94.421669229499997 49.350487074466372 -1 0 0 0 -0.81915205242281985 0.57357642473473569 forward_v I I I I #
face $-1 $80 $81 $29 $-1 $82 forward single #
loop $-1 $83 $84 $38 #
cone-surface $-1 -27.246181144242918 -22.527978169764403 3.3797323921806948 0 0.81915205242281985 -0.57357642473473569 1.5 0 0 1 I I 0 1 1.5 forward I I I I #
face $-1 $85 $86 $30 $-1 $87 reversed single #
loop $-1 $-1 $88 $39 #
plane-surface $-1 32.48235934953437 -94.421669229499997 49.350487074466372 -1 0 0 0 -0.81915205242281985 0.57357642473473569 forward_v I I I I #
face $-1 $89 $90 $31 $-1 $91 forward single #
loop $-1 $92 $93 $40 #
cone-surface $-1 27.246181144242925 -22.527978169764403 3.3797323921806948 0 0.81915205242281985 -0.57357642473473569 1.5 0 0 1 I I 0 1 1.5 forward I I I I #
face $-1 $94 $95 $32 $-1 $96 reversed single #
loop $-1 $-1 $97 $41 #
plane-surface $-1 -25.653168001782191 70.393482512484866 92.41647874971207 1 0 0 0 -0.85716730853699208 -0.51503806187062418 forward_v I I I I #
face $-1 $98 $99 $33 $-1 $100 forward single #
loop $-1 $101 $102 $42 #
cone-surface $-1 -22.690336534801737 25.007408871894501 5.7317185649590101 0 -0.85716730853699208 -0.51503806187062418 0.5 0 0 1 I I 0 1 0.5 forward I I I I #
face $-1 $103 $104 $34 $-1 $105 forward single #
loop $-1 $106 $107 $43 #
cone-surface $-1 -18.246089334331057 25.007408871894501 5.7317185649590101 0 -0.85716730853699208 -0.51503806187062418 0.5 0 0 1 I I 0 1 0.5 forward I I I I #
face $-1 $108 $109 $35 $-1 $110 forward single #
loop $-1 $111 $112 $44 #
cone-surface $-1 -13.801842133860376 25.007408871894501 5.7317185649590101 0 -0.85716730853699208 -0.51503806187062418 0.5 0 0 1 I I 0 1 0.5 forward I I I I #
face $-1 $113 $114 $27 $-1 $115 reversed single #
loop $-1 $-1 $116 $45 #
plane-surface $-1 0 0 -7.579593975955218 0 0 1 1 0 0 forward_v I I I I #
coedge $-1 $117 $118 $119 $120 forward $46 $-1 #
face $-1 $121 $122 $28 $-1 $123 reversed single #
loop $-1 $-1 $124 $48 #
plane-surface $-1 -27.246181144242918 -26.391575012233503 1.7153037161442342 0 -0.81915205242281985 0.57357642473473569 1 0 0 forward_v I I I I #
coedge $-1 $125 $126 $127 $128 reversed $49 $-1 #
face $-1 $-1 $129 $29 $-1 $130 forward single #
loop $-1 $131 $132 $51 #
cone-surface $-1 -27.246181144242918 -20.103127349095949 1.6818336197606083 0 0.81915205242281985 -0.57357642473473569 0.75 0 0 1 I I -0.70710678118654757 0.70710678118654757 0.75 forward I I I I #
loop $-1 $-1 $133 $38 #
coedge $-1 $84 $84 $134 $135 reversed $52 $-1 #
face $-1 $136 $137 $30 $-1 $138 reversed single #
loop $-1 $-1 $139 $54 #
plane-surface $-1 27.246181144242925 -26.391575012233503 1.7153037161442342 0 -0.81915205242281985 0.57357642473473569 1 0 0 forward_v I I I I #
coedge $-1 $140 $141 $142 $143 reversed $55 $-1 #
face $-1 $-1 $144 $31 $-1 $145 forward single #
loop $-1 $146 $147 $57 #
cone-surface $-1 27.246181144242925 -20.103127349095949 1.6818336197606083 0 0.81915205242281985 -0.57357642473473569 0.75 0 0 1 I I -0.70710678118654757 0.70710678118654757 0.75 forward I I I I #
loop $-1 $-1 $148 $40 #
coedge $-1 $93 $93 $149 $150 reversed $58 $-1 #
face $-1 $151 $152 $32 $-1 $153 reversed single #
loop $-1 $-1 $154 $60 #
plane-surface $-1 -18.246089334331057 -0.79375627579436525 49.642871858410082 0 0.85716730853699208 0.51503806187062418 1 0 0 forward_v I I I I #
coedge $-1 $155 $156 $157 $158 reversed $61 $-1 #
face $-1 $-1 $159 $33 $-1 $160 forward single #
loop $-1 $161 $162 $63 #
cone-surface $-1 -22.690336534801737 24.364533390491758 5.345440018556042 0 -0.85716730853699208 -0.51503806187062418 0.25 0 0 1 I I -0.70710678118654746 0.70710678118654746 0.25 forward I I I I #
loop $-1 $-1 $163 $42 #
coedge $-1 $102 $102 $164 $165 reversed $64 $-1 #
face $-1 $-1 $166 $34 $-1 $167 forward single #
loop $-1 $168 $169 $66 #
cone-surface $-1 -18.246089334331057 24.364533390491758 5.345440018556042 0 -0.85716730853699208 -0.51503806187062418 0.25 0 0 1 I I -0.70710678118654746 0.70710678118654746 0.25 forward I I I I #
loop $-1 $-1 $170 $43 #
coedge $-1 $107 $107 $171 $172 reversed $67 $-1 #
face $-1 $-1 $173 $35 $-1 $174 forward single #
loop $-1 $175 $176 $69 #
cone-surface $-1 -13.801842133860376 24.364533390491758 5.345440018556042 0 -0.85716730853699208 -0.51503806187062418 0.25 0 0 1 I I -0.70710678118654746 0.70710678118654746 0.25 forward I I I I #
loop $-1 $-1 $177 $44 #
coedge $-1 $112 $112 $178 $179 reversed $70 $-1 #
face $-1 $180 $181 $27 $-1 $182 reversed single #
loop $-1 $-1 $183 $72 #
plane-surface $-1 0 -26.391575012233503 0 0 1 0 0 0 1 forward_v I I I I #
coedge $-1 $184 $185 $186 $187 forward $73 $-1 #
coedge $-1 $188 $75 $189 $190 forward $46 $-1 #
coedge $-1 $75 $188 $191 $192 forward $46 $-1 #
coedge $-1 $193 $194 $75 $120 reversed $195 $-1 #
edge $-1 $196 -26.391575012233503 $197 26.391575012233503 $119 $198 forward 7 unknown #
face $-1 $199 $200 $28 $-1 $201 reversed single #
loop $-1 $-1 $202 $76 #
plane-surface $-1 -32.482359349534363 -94.421669229499997 49.350487074466372 1 0 0 0 0.81915205242281985 -0.57357642473473569 forward_v I I I I #
coedge $-1 $203 $204 $205 $206 reversed $77 $-1 #
coedge $-1 $126 $79 $207 $208 reversed $49 $-1 #
coedge $-1 $79 $125 $203 $209 reversed $49 $-1 #
coedge $-1 $205 $210 $79 $128 forward $211 $-1 #
edge $-1 $212 20.819259602516496 $213 24.92547972475203 $127 $214 forward 7 unknown #
loop $-1 $-1 $134 $80 #
plane-surface $-1 -27.246181144242918 -26.391575012233503 1.7153037161442342 0 -0.81915205242281985 0.57357642473473569 1 0 0 forward_v I I I I #
loop $-1 $-1 $215 $51 #
coedge $-1 $132 $132 $133 $216 reversed $81 $-1 #
coedge $-1 $133 $133 $132 $216 forward $83 $-1 #
coedge $-1 $134 $134 $84 $135 forward $129 $-1 #
edge $-1 $217 9.6604477501640931e-017 $217 6.2831853071796004 $134 $218 forward 7 unknown #
face $-1 $219 $220 $30 $-1 $221 reversed single #
loop $-1 $-1 $222 $85 #
plane-surface $-1 22.01000293895148 -94.421669229499997 49.350487074466372 1 0 0 0 0.81915205242281985 -0.57357642473473569 forward_v I I I I #
coedge $-1 $223 $224 $225 $226 reversed $86 $-1 #
coedge $-1 $141 $88 $227 $228 reversed $55 $-1 #
coedge $-1 $88 $140 $223 $229 reversed $55 $-1 #
coedge $-1 $225 $230 $88 $143 forward $231 $-1 #
edge $-1 $232 20.819259602516496 $233 24.92547972475203 $142 $234 forward 7 unknown #
loop $-1 $-1 $149 $89 #
plane-surface $-1 27.246181144242925 -26.391575012233503 1.7153037161442342 0 -0.81915205242281985 0.57357642473473569 1 0 0 forward_v I I I I #
loop $-1 $-1 $235 $57 #
coedge $-1 $147 $147 $148 $236 reversed $90 $-1 #
coedge $-1 $148 $148 $147 $236 forward $92 $-1 #
coedge $-1 $149 $149 $93 $150 forward $144 $-1 #
edge $-1 $237 9.6604477501640931e-017 $237 6.2831853071796004 $149 $238 forward 7 unknown #
face $-1 $239 $240 $32 $-1 $241 reversed single #
loop $-1 $-1 $242 $94 #
plane-surface $-1 -10.839010666879922 70.393482512484866 92.41647874971207 -1 0 0 0 0.85716730853699208 0.51503806187062418 forward_v I I I I #
coedge $-1 $243 $244 $245 $246 reversed $95 $-1 #
coedge $-1 $156 $97 $247 $248 reversed $61 $-1 #
coedge $-1 $97 $155 $243 $249 reversed $61 $-1 #
coedge $-1 $245 $250 $97 $158 forward $251 $-1 #
edge $-1 $252 8.8051662440089302 $253 10.716331216149936 $157 $254 forward 7 unknown #
loop $-1 $-1 $164 $98 #
plane-surface $-1 -18.246089334331057 -0.79375627579436525 49.642871858410082 0 0.85716730853699208 0.51503806187062418 1 0 0 forward_v I I I I #
loop $-1 $-1 $255 $63 #
coedge $-1 $162 $162 $163 $256 reversed $99 $-1 #
coedge $-1 $163 $163 $162 $256 forward $101 $-1 #
coedge $-1 $164 $164 $102 $165 forward $159 $-1 #
edge $-1 $257 2.4309745090986323e-015 $257 6.2831853071796031 $164 $258 forward 7 unknown #
loop $-1 $-1 $171 $103 #
plane-surface $-1 -18.246089334331057 -0.79375627579436525 49.642871858410082 0 0.85716730853699208 0.51503806187062418 1 0 0 forward_v I I I I #
loop $-1 $-1 $259 $66 #
coedge $-1 $169 $169 $170 $260 reversed $104 $-1 #
coedge $-1 $170 $170 $169 $260 forward $106 $-1 #
coedge $-1 $171 $171 $107 $172 forward $166 $-1 #
edge $-1 $261 2.4309745090986323e-015 $261 6.2831853071796031 $171 $262 forward 7 unknown #
loop $-1 $-1 $178 $108 #
plane-surface $-1 -18.246089334331057 -0.79375627579436525 49.642871858410082 0 0.85716730853699208 0.51503806187062418 1 0 0 forward_v I I I I #
loop $-1 $-1 $263 $69 #
coedge $-1 $176 $176 $177 $264 reversed $109 $-1 #
coedge $-1 $177 $177 $176 $264 forward $111 $-1 #
coedge $-1 $178 $178 $112 $179 forward $173 $-1 #
edge $-1 $265 2.4309745090986323e-015 $265 6.2831853071796031 $178 $266 forward 7 unknown #
face $-1 $267 $268 $27 $-1 $269 reversed single #
loop $-1 $-1 $270 $113 #
plane-surface $-1 -41.524704733420819 0 0 1 0 0 0 0 -1 forward_v I I I I #
coedge $-1 $271 $191 $272 $273 forward $114 $-1 #
coedge $-1 $274 $116 $271 $275 forward $73 $-1 #
coedge $-1 $116 $274 $276 $277 forward $73 $-1 #
coedge $-1 $194 $193 $116 $187 reversed $195 $-1 #
edge $-1 $278 -26.391575012233503 $279 26.391575012233503 $186 $280 forward 7 unknown #
coedge $-1 $118 $117 $281 $282 forward $46 $-1 #
coedge $-1 $283 $284 $117 $190 reversed $268 $-1 #
edge $-1 $197 -41.524704733420819 $285 41.524704733420819 $189 $286 forward 7 unknown #
coedge $-1 $183 $287 $118 $192 reversed $114 $-1 #
edge $-1 $288 -41.524704733420819 $196 41.524704733420819 $191 $289 forward 7 unknown #
coedge $-1 $186 $119 $287 $290 forward $195 $-1 #
coedge $-1 $119 $186 $283 $291 reversed $195 $-1 #
loop $-1 $-1 $193 $267 #
vertex $-1 $120 $292 #
vertex $-1 $120 $293 #
straight-curve $-1 41.524704733420819 0 7.579593975955218 0 1 0 I I #
face $-1 $-1 $211 $28 $-1 $294 forward single #
loop $-1 $-1 $295 $121 #
plane-surface $-1 0 -26.391575012233503 0 0 1 0 0 0 1 forward_v I I I I #
coedge $-1 $296 $297 $298 $299 reversed $122 $-1 #
coedge $-1 $300 $124 $126 $209 forward $77 $-1 #
coedge $-1 $124 $300 $296 $301 forward $77 $-1 #
coedge $-1 $298 $127 $124 $206 forward $211 $-1 #
edge $-1 $213 8.3869123668300141 $302 18.859268777412904 $205 $303 forward 7 unknown #
coedge $-1 $304 $305 $125 $208 forward $200 $-1 #
edge $-1 $306 -22.959939821088952 $212 -17.095649561277966 $207 $307 forward 7 unknown #
edge $-1 $213 -7.1589764592130063 $306 0 $126 $308 forward 7 unknown #
coedge $-1 $127 $298 $304 $309 forward $211 $-1 #
loop $-1 $-1 $298 $199 #
vertex $-1 $208 $310 #
vertex $-1 $128 $311 #
straight-curve $-1 -22.010002938951473 -47.210834614749999 7.5795939759552198 0 1 0 I I #
coedge $-1 $215 $215 $-1 $312 reversed $131 $-1 #
edge $-1 $313 0 $313 6.2831853071796004 $132 $314 forward 7 unknown #
vertex $-1 $135 $315 #
ellipse-curve $-1 -27.246181144242918 -24.338464951115736 4.647448846049727 0 -0.81915205242281985 0.57357642473473569 1.5 0 0 1 I I #
face $-1 $-1 $231 $30 $-1 $316 forward single #
loop $-1 $-1 $317 $136 #
plane-surface $-1 0 -26.391575012233503 0 0 1 0 0 0 1 forward_v I I I I #
coedge $-1 $318 $319 $320 $321 reversed $137 $-1 #
coedge $-1 $322 $139 $141 $229 forward $86 $-1 #
coedge $-1 $139 $322 $318 $323 forward $86 $-1 #
coedge $-1 $320 $142 $139 $226 forward $231 $-1 #
edge $-1 $233 -18.859268777412908 $324 -8.3869123668300176 $225 $325 forward 7 unknown #
coedge $-1 $326 $327 $140 $228 forward $220 $-1 #
edge $-1 $328 -22.959939821088952 $232 -17.095649561277966 $227 $329 forward 7 unknown #
edge $-1 $233 -7.1589764592130063 $328 0 $141 $330 forward 7 unknown #
coedge $-1 $142 $320 $326 $331 forward $231 $-1 #
loop $-1 $-1 $320 $219 #
vertex $-1 $228 $332 #
vertex $-1 $143 $333 #
straight-curve $-1 32.48235934953437 -47.210834614749999 7.5795939759552198 0 1 0 I I #
coedge $-1 $235 $235 $-1 $334 reversed $146 $-1 #
edge $-1 $335 0 $335 6.2831853071796004 $147 $336 forward 7 unknown #
vertex $-1 $150 $337 #
ellipse-curve $-1 27.246181144242925 -24.338464951115736 4.647448846049727 0 -0.81915205242281985 0.57357642473473569 1.5 0 0 1 I I #
face $-1 $-1 $251 $32 $-1 $338 forward single #
loop $-1 $-1 $339 $151 #
plane-surface $-1 0 26.391575012233503 0 0 -1 0 0 0 -1 forward_v I I I I #
coedge $-1 $340 $341 $342 $343 reversed $152 $-1 #
coedge $-1 $344 $154 $156 $249 forward $95 $-1 #
coedge $-1 $154 $344 $340 $345 forward $95 $-1 #
coedge $-1 $342 $157 $154 $246 forward $251 $-1 #
edge $-1 $253 -16.530123334616661 $346 -1.7159659997143937 $245 $347 forward 7 unknown #
coedge $-1 $348 $349 $155 $248 forward $240 $-1 #
edge $-1 $350 -41.809358159022587 $252 -38.628645398900815 $247 $351 forward 7 unknown #
edge $-1 $253 49.07242432547762 $350 52.783150024466998 $156 $352 forward 7 unknown #
coedge $-1 $157 $342 $348 $353 forward $251 $-1 #
loop $-1 $-1 $342 $239 #
vertex $-1 $248 $354 #
vertex $-1 $158 $355 #
straight-curve $-1 -25.653168001782191 35.196741256242433 7.5795939759552198 0 -1 0 I I #
coedge $-1 $255 $255 $-1 $356 reversed $161 $-1 #
edge $-1 $357 0 $357 6.2831853071796004 $162 $358 forward 7 unknown #
vertex $-1 $165 $359 #
ellipse-curve $-1 -22.690336534801737 25.435992526163002 5.989237595894326 0 0.85716730853699208 0.51503806187062418 0.5 0 0 1 I I #
coedge $-1 $259 $259 $-1 $360 reversed $168 $-1 #
edge $-1 $361 0 $361 6.2831853071796004 $169 $362 forward 7 unknown #
vertex $-1 $172 $363 #
ellipse-curve $-1 -18.246089334331057 25.435992526163002 5.989237595894326 0 0.85716730853699208 0.51503806187062418 0.5 0 0 1 I I #
coedge $-1 $263 $263 $-1 $364 reversed $175 $-1 #
edge $-1 $365 0 $365 6.2831853071796004 $176 $366 forward 7 unknown #
vertex $-1 $179 $367 #
ellipse-curve $-1 -13.801842133860376 25.435992526163002 5.989237595894326 0 0.85716730853699208 0.51503806187062418 0.5 0 0 1 I I #
face $-1 $-1 $195 $27 $-1 $368 reversed single #
loop $-1 $-1 $283 $180 #
plane-surface $-1 0 26.391575012233503 0 0 -1 0 0 0 -1 forward_v I I I I #
coedge $-1 $369 $281 $284 $370 forward $181 $-1 #
coedge $-1 $287 $183 $184 $275 reversed $114 $-1 #
coedge $-1 $281 $369 $183 $273 reversed $181 $-1 #
edge $-1 $288 -7.579593975955218 $371 7.579593975955218 $272 $372 forward 7 unknown #
coedge $-1 $185 $184 $369 $373 forward $73 $-1 #
edge $-1 $279 -41.524704733420819 $371 41.524704733420819 $271 $374 forward 7 unknown #
coedge $-1 $284 $283 $185 $277 reversed $268 $-1 #
edge $-1 $375 -41.524704733420819 $278 41.524704733420819 $276 $376 forward 7 unknown #
vertex $-1 $187 $377 #
vertex $-1 $290 $378 #
straight-curve $-1 41.524704733420819 0 -7.579593975955218 0 -1 0 I I #
coedge $-1 $270 $272 $188 $282 reversed $181 $-1 #
edge $-1 $285 -26.391575012233503 $288 26.391575012233503 $281 $379 forward 7 unknown #
coedge $-1 $276 $189 $194 $291 forward $268 $-1 #
coedge $-1 $189 $276 $270 $370 reversed $268 $-1 #
vertex $-1 $190 $380 #
straight-curve $-1 0 26.391575012233503 7.579593975955218 -1 0 0 I I #
coedge $-1 $191 $271 $193 $290 reversed $114 $-1 #
vertex $-1 $282 $381 #
straight-curve $-1 0 -26.391575012233503 7.579593975955218 1 0 0 I I #
edge $-1 $196 -7.579593975955218 $279 7.579593975955218 $193 $382 forward 7 unknown #
edge $-1 $197 -7.579593975955218 $278 7.579593975955218 $194 $383 forward 7 unknown #
point $-1 41.524704733420819 -26.391575012233503 7.579593975955218 #
point $-1 41.524704733420819 26.391575012233503 7.579593975955218 #
plane-surface $-1 0 0 7.579593975955218 0 0 1 1 0 0 forward_v I I I I #
coedge $-1 $305 $304 $297 $384 forward $200 $-1 #
coedge $-1 $297 $202 $204 $301 reversed $122 $-1 #
coedge $-1 $202 $296 $295 $384 reversed $122 $-1 #
coedge $-1 $210 $205 $202 $299 forward $211 $-1 #
edge $-1 $302 -24.92547972475203 $385 -20.819259602516496 $298 $386 forward 7 unknown #
coedge $-1 $204 $203 $305 $387 reversed $77 $-1 #
edge $-1 $388 0 $302 7.1589764592130063 $296 $389 forward 7 unknown #
vertex $-1 $206 $390 #
straight-curve $-1 -13.623090572121459 -22.285354889997972 7.579593975955218 -1 0 0 I I #
coedge $-1 $295 $207 $210 $309 reversed $200 $-1 #
coedge $-1 $207 $295 $300 $387 forward $200 $-1 #
vertex $-1 $208 $391 #
straight-curve $-1 -22.010002938951473 -26.391575012233503 24.675243537233186 0 0 1 I I #
straight-curve $-1 -22.010002938951473 -26.391575012233503 1.7153037161442342 0 -0.57357642473473569 -0.81915205242281985 I I #
edge $-1 $385 -32.482359349534363 $212 -22.010002938951473 $304 $392 forward 7 unknown #
point $-1 -22.010002938951473 -26.391575012233503 7.579593975955218 #
point $-1 -22.010002938951473 -22.285354889997969 7.579593975955218 #
edge $-1 $393 1 $393 0 $215 $-1 forward 7 unknown #
vertex $-1 $216 $394 #
ellipse-curve $-1 -27.246181144242918 -20.717491388413062 2.1120159383116599 0 -0.81915205242281985 0.57357642473473569 1.5 0 0 1 I I #
point $-1 -25.746181144242918 -24.338464951115739 4.6474488460497296 #
plane-surface $-1 0 0 7.579593975955218 0 0 1 1 0 0 forward_v I I I I #
coedge $-1 $327 $326 $319 $395 forward $220 $-1 #
coedge $-1 $319 $222 $224 $323 reversed $137 $-1 #
coedge $-1 $222 $318 $317 $395 reversed $137 $-1 #
coedge $-1 $230 $225 $222 $321 forward $231 $-1 #
edge $-1 $324 -24.92547972475203 $396 -20.819259602516496 $320 $397 forward 7 unknown #
coedge $-1 $224 $223 $327 $398 reversed $86 $-1 #
edge $-1 $399 0 $324 7.1589764592130063 $318 $400 forward 7 unknown #
vertex $-1 $226 $401 #
straight-curve $-1 13.623090572121463 -22.285354889997972 7.579593975955218 -1 0 0 I I #
coedge $-1 $317 $227 $230 $331 reversed $220 $-1 #
coedge $-1 $227 $317 $322 $398 forward $220 $-1 #
vertex $-1 $228 $402 #
straight-curve $-1 32.48235934953437 -26.391575012233503 24.675243537233186 0 0 1 I I #
straight-curve $-1 32.48235934953437 -26.391575012233503 1.7153037161442342 0 -0.57357642473473569 -0.81915205242281985 I I #
edge $-1 $396 22.01000293895148 $232 32.48235934953437 $326 $403 forward 7 unknown #
point $-1 32.48235934953437 -26.391575012233503 7.579593975955218 #
point $-1 32.48235934953437 -22.285354889997969 7.579593975955218 #
edge $-1 $404 1 $404 0 $235 $-1 forward 7 unknown #
vertex $-1 $236 $405 #
ellipse-curve $-1 27.246181144242925 -20.717491388413062 2.1120159383116599 0 -0.81915205242281985 0.57357642473473569 1.5 0 0 1 I I #
point $-1 28.746181144242925 -24.338464951115739 4.6474488460497296 #
plane-surface $-1 0 0 7.579593975955218 0 0 1 1 0 0 forward_v I I I I #
coedge $-1 $349 $348 $341 $406 forward $240 $-1 #
coedge $-1 $341 $242 $244 $345 reversed $152 $-1 #
coedge $-1 $242 $340 $339 $406 reversed $152 $-1 #
coedge $-1 $250 $245 $242 $343 forward $251 $-1 #
edge $-1 $346 -10.716331216149936 $407 -8.8051662440089302 $342 $408 forward 7 unknown #
coedge $-1 $244 $243 $349 $409 reversed $95 $-1 #
edge $-1 $410 -52.783150024466998 $346 -49.07242432547762 $340 $411 forward 7 unknown #
vertex $-1 $246 $412 #
straight-curve $-1 -9.1230446671655283 24.480410040092497 7.5795939759552233 1 0 0 I I #
coedge $-1 $339 $247 $250 $353 reversed $240 $-1 #
coedge $-1 $247 $339 $344 $409 forward $240 $-1 #
vertex $-1 $248 $413 #
straight-curve $-1 -25.653168001782191 26.391575012233503 46.208239374856035 0 0 1 I I #
straight-curve $-1 -25.653168001782191 -0.79375627579436525 49.642871858410082 0 0.51503806187062418 -0.85716730853699208 I I #
edge $-1 $407 10.839010666879922 $252 25.653168001782191 $348 $414 forward 7 unknown #
point $-1 -25.653168001782191 26.391575012233503 7.579593975955218 #
point $-1 -25.653168001782191 24.480410040092497 7.5795939759552198 #
edge $-1 $415 1 $415 0 $255 $-1 forward 7 unknown #
vertex $-1 $256 $416 #
ellipse-curve $-1 -22.690336534801737 24.578825217626004 5.4741995340236977 0 0.85716730853699208 0.51503806187062418 0.5 0 0 1 I I #
point $-1 -22.190336534801737 25.435992526162998 5.9892375958943225 #
edge $-1 $417 1 $417 0 $259 $-1 forward 7 unknown #
vertex $-1 $260 $418 #
ellipse-curve $-1 -18.246089334331057 24.578825217626004 5.4741995340236977 0 0.85716730853699208 0.51503806187062418 0.5 0 0 1 I I #
point $-1 -17.746089334331057 25.435992526162998 5.9892375958943225 #
edge $-1 $419 1 $419 0 $263 $-1 forward 7 unknown #
vertex $-1 $264 $420 #
ellipse-curve $-1 -13.801842133860376 24.578825217626004 5.4741995340236977 0 0.85716730853699208 0.51503806187062418 0.5 0 0 1 I I #
point $-1 -13.301842133860376 25.435992526162998 5.9892375958943225 #
plane-surface $-1 41.524704733420819 0 0 -1 0 0 0 0 1 forward_v I I I I #
coedge $-1 $272 $270 $274 $373 reversed $181 $-1 #
edge $-1 $285 -7.579593975955218 $375 7.579593975955218 $284 $421 forward 7 unknown #
vertex $-1 $373 $422 #
straight-curve $-1 -41.524704733420819 -26.391575012233503 0 0 0 -1 I I #
edge $-1 $371 -26.391575012233503 $375 26.391575012233503 $369 $423 forward 7 unknown #
straight-curve $-1 0 -26.391575012233503 -7.579593975955218 -1 0 0 I I #
vertex $-1 $277 $424 #
straight-curve $-1 0 26.391575012233503 -7.579593975955218 1 0 0 I I #
point $-1 41.524704733420819 26.391575012233503 -7.579593975955218 #
point $-1 41.524704733420819 -26.391575012233503 -7.579593975955218 #
straight-curve $-1 -41.524704733420819 0 7.579593975955218 0 -1 0 I I #
point $-1 -41.524704733420819 26.391575012233503 7.579593975955218 #
point $-1 -41.524704733420819 -26.391575012233503 7.579593975955218 #
straight-curve $-1 41.524704733420819 -26.391575012233503 0 0 0 -1 I I #
straight-curve $-1 41.524704733420819 26.391575012233503 0 0 0 -1 I I #
edge $-1 $385 17.095649561277966 $388 22.959939821088952 $295 $425 forward 7 unknown #
vertex $-1 $309 $426 #
straight-curve $-1 -32.482359349534363 -47.210834614749999 7.5795939759552198 0 -1 0 I I #
edge $-1 $388 -18.859268777412904 $306 -8.3869123668300141 $305 $427 forward 7 unknown #
vertex $-1 $387 $428 #
straight-curve $-1 -32.482359349534363 -26.391575012233503 1.7153037161442342 0 0.57357642473473569 0.81915205242281985 I I #
point $-1 -32.482359349534363 -22.285354889997969 7.579593975955218 #
point $-1 -22.010002938951473 -26.391575012233503 1.7153037161442342 #
straight-curve $-1 0 -26.391575012233503 7.579593975955218 1 0 0 I I #
vertex $-1 $312 $429 #
point $-1 -25.746181144242918 -20.717491388413062 2.1120159383116599 #
edge $-1 $396 17.095649561277966 $399 22.959939821088952 $317 $430 forward 7 unknown #
vertex $-1 $331 $431 #
straight-curve $-1 22.01000293895148 -47.210834614749999 7.5795939759552198 0 -1 0 I I #
edge $-1 $399 8.3869123668300176 $328 18.859268777412908 $327 $432 forward 7 unknown #
vertex $-1 $398 $433 #
straight-curve $-1 22.01000293895148 -26.391575012233503 1.7153037161442342 0 0.57357642473473569 0.81915205242281985 I I #
point $-1 22.01000293895148 -22.285354889997969 7.579593975955218 #
point $-1 32.48235934953437 -26.391575012233503 1.7153037161442342 #
straight-curve $-1 0 -26.391575012233503 7.579593975955218 1 0 0 I I #
vertex $-1 $334 $434 #
point $-1 28.746181144242925 -20.717491388413062 2.1120159383116599 #
edge $-1 $407 38.628645398900815 $410 41.809358159022587 $339 $435 forward 7 unknown #
vertex $-1 $353 $436 #
straight-curve $-1 -10.839010666879922 35.196741256242433 7.5795939759552198 0 1 0 I I #
edge $-1 $410 1.7159659997143937 $350 16.530123334616661 $349 $437 forward 7 unknown #
vertex $-1 $409 $438 #
straight-curve $-1 -10.839010666879922 -0.79375627579436525 49.642871858410082 0 -0.51503806187062418 0.85716730853699208 I I #
point $-1 -10.839010666879922 24.480410040092497 7.5795939759552198 #
point $-1 -25.653168001782191 26.391575012233503 4.3988812158334483 #
straight-curve $-1 0 26.391575012233503 7.579593975955218 -1 0 0 I I #
vertex $-1 $356 $439 #
point $-1 -22.190336534801737 24.578825217626004 5.4741995340236977 #
vertex $-1 $360 $440 #
point $-1 -17.746089334331057 24.578825217626004 5.4741995340236977 #
vertex $-1 $364 $441 #
point $-1 -13.301842133860376 24.578825217626004 5.4741995340236977 #
straight-curve $-1 -41.524704733420819 26.391575012233503 0 0 0 -1 I I #
point $-1 -41.524704733420819 -26.391575012233503 -7.579593975955218 #
straight-curve $-1 -41.524704733420819 0 -7.579593975955218 0 1 0 I I #
point $-1 -41.524704733420819 26.391575012233503 -7.579593975955218 #
straight-curve $-1 -32.482359349534363 -26.391575012233503 24.675243537233186 0 0 -1 I I #
point $-1 -32.482359349534363 -26.391575012233503 7.579593975955218 #
straight-curve $-1 -13.623090572121459 -26.391575012233503 1.7153037161442368 1 0 0 I I #
point $-1 -32.482359349534363 -26.391575012233503 1.7153037161442342 #
point $-1 -27.246181144242918 -19.488763309778836 1.2516513012095565 #
straight-curve $-1 22.01000293895148 -26.391575012233503 24.675243537233186 0 0 -1 I I #
point $-1 22.01000293895148 -26.391575012233503 7.579593975955218 #
straight-curve $-1 13.623090572121463 -26.391575012233503 1.7153037161442368 1 0 0 I I #
point $-1 22.01000293895148 -26.391575012233503 1.7153037161442342 #
point $-1 27.246181144242925 -19.488763309778836 1.2516513012095565 #
straight-curve $-1 -10.839010666879922 26.391575012233503 46.208239374856035 0 0 -1 I I #
point $-1 -10.839010666879922 26.391575012233503 7.579593975955218 #
straight-curve $-1 -9.1230446671655283 26.391575012233503 4.3988812158334376 -1 0 0 I I #
point $-1 -10.839010666879922 26.391575012233503 4.3988812158334483 #
point $-1 -22.690336534801737 24.150241563357511 5.2166805030883863 #
point $-1 -18.246089334331057 24.150241563357511 5.2166805030883863 #
point $-1 -13.801842133860376 24.150241563357511 5.2166805030883863 #
End-of-ACIS-data 