500 0 9 0           
7 Unknown 11 ACIS 5.0 NT 24 Thu Mar 25 17:54:04 1999 
-1 9.9999999999999995e-007 1e-010 
body $-1 $9 $-1 $10 #
body $-1 $11 $-1 $12 #
body $-1 $13 $-1 $14 #
body $-1 $15 $-1 $16 #
body $-1 $17 $-1 $18 #
body $-1 $19 $-1 $20 #
body $-1 $21 $-1 $22 #
body $-1 $23 $-1 $24 #
body $-1 $25 $-1 $26 #
lump $-1 $-1 $27 $0 #
transform $-1 1 0 0 0 1 0 0 0 1 66.248359630115658 34.09262258561435 7.0507543020012271 1 rotate no_reflect no_shear #
lump $-1 $-1 $28 $1 #
transform $-1 1 0 0 0 1 0 0 0 1 66.248359630115658 34.09262258561435 7.0507543020012271 1 rotate no_reflect no_shear #
lump $-1 $-1 $29 $2 #
transform $-1 1 0 0 0 1 0 0 0 1 66.248359630115658 34.09262258561435 7.0507543020012271 1 rotate no_reflect no_shear #
lump $-1 $-1 $30 $3 #
transform $-1 1 0 0 0 1 0 0 0 1 66.248359630115658 34.09262258561435 7.0507543020012271 1 rotate no_reflect no_shear #
lump $-1 $-1 $31 $4 #
transform $-1 1 0 0 0 1 0 0 0 1 66.248359630115658 34.09262258561435 7.0507543020012271 1 rotate no_reflect no_shear #
lump $-1 $-1 $32 $5 #
transform $-1 1 0 0 0 1 0 0 0 1 66.248359630115658 34.09262258561435 7.0507543020012271 1 rotate no_reflect no_shear #
lump $-1 $-1 $33 $6 #
transform $-1 1 0 0 0 1 0 0 0 1 66.248359630115658 34.09262258561435 7.0507543020012271 1 rotate no_reflect no_shear #
lump $-1 $-1 $34 $7 #
transform $-1 1 0 0 0 1 0 0 0 1 66.248359630115658 34.09262258561435 7.0507543020012271 1 rotate no_reflect no_shear #
lump $-1 $-1 $35 $8 #
transform $-1 1 0 0 0 1 0 0 0 1 66.248359630115658 34.09262258561435 7.0507543020012271 1 rotate no_reflect no_shear #
shell $-1 $-1 $-1 $36 $-1 $9 #
shell $-1 $-1 $-1 $37 $-1 $11 #
shell $-1 $-1 $-1 $38 $-1 $13 #
shell $-1 $-1 $-1 $39 $-1 $15 #
shell $-1 $-1 $-1 $40 $-1 $17 #
shell $-1 $-1 $-1 $41 $-1 $19 #
shell $-1 $-1 $-1 $42 $-1 $21 #
shell $-1 $-1 $-1 $43 $-1 $23 #
shell $-1 $-1 $-1 $44 $-1 $25 #
face $-1 $45 $46 $27 $-1 $47 forward single #
face $-1 $48 $49 $28 $-1 $50 forward single #
face $-1 $51 $52 $29 $-1 $53 reversed single #
face $-1 $54 $55 $30 $-1 $56 forward single #
face $-1 $57 $58 $31 $-1 $59 forward single #
face $-1 $60 $61 $32 $-1 $62 reversed single #
face $-1 $63 $64 $33 $-1 $65 forward single #
face $-1 $66 $67 $34 $-1 $68 reversed single #
face $-1 $69 $70 $35 $-1 $71 forward single #
face $-1 $72 $73 $27 $-1 $74 reversed single #
loop $-1 $-1 $75 $36 #
plane-surface $-1 0 0 7.0507543020012271 0 0 1 1 0 0 forward_v I I I I #
face $-1 $76 $77 $28 $-1 $78 reversed single #
loop $-1 $-1 $79 $37 #
plane-surface $-1 0 -34.09262258561435 0 0 1 0 0 0 1 forward_v I I I I #
face $-1 $80 $81 $29 $-1 $82 reversed single #
loop $-1 $-1 $83 $38 #
plane-surface $-1 -173.44045829489193 26.314029981401426 78.535930485527757 0 1 0 -0.80901700255871778 0 0.5877852410284794 forward_v I I I I #
face $-1 $84 $85 $30 $-1 $86 forward single #
loop $-1 $87 $88 $39 #
cone-surface $-1 -63.381868552301796 28.536485011176538 3.4586040997044702 0.80901700255871778 0 -0.5877852410284794 0.5877852410284794 0 0.80901700255871778 1 I I 0 1 1 forward I I I I #
face $-1 $89 $90 $31 $-1 $91 forward single #
loop $-1 $92 $93 $40 #
cone-surface $-1 -63.381868552301796 31.870167555839217 3.4586040997044702 0.80901700255871778 0 -0.5877852410284794 0.5877852410284794 0 0.80901700255871778 1 I I 0 1 1 forward I I I I #
face $-1 $94 $95 $32 $-1 $96 reversed single #
loop $-1 $-1 $97 $41 #
plane-surface $-1 82.579488092760357 -16.186702756103792 187.67772614118007 0 -1 0 -0.7660444514056185 0 -0.64278759981090561 forward_v I I I I #
face $-1 $98 $99 $33 $-1 $100 forward single #
loop $-1 $101 $102 $42 #
cone-surface $-1 62.509727256471308 -21.572459120700067 3.0202148700529969 -0.7660444514056185 0 -0.64278759981090561 0.64278759981090561 0 -0.7660444514056185 1 I I 0 1 1 forward I I I I #
face $-1 $103 $104 $34 $-1 $105 reversed single #
loop $-1 $-1 $106 $43 #
plane-surface $-1 82.579488092760357 23.321109856421799 187.67772614118007 0 1 0 0.7660444514056185 0 0.64278759981090561 forward_v I I I I #
face $-1 $107 $108 $35 $-1 $109 forward single #
loop $-1 $110 $111 $44 #
cone-surface $-1 62.509727256471308 28.706866221018075 3.0202148700529969 -0.7660444514056185 0 -0.64278759981090561 0.64278759981090561 0 -0.7660444514056185 1 I I 0 1 1 forward I I I I #
face $-1 $112 $113 $27 $-1 $114 reversed single #
loop $-1 $-1 $115 $45 #
plane-surface $-1 0 0 -7.0507543020012271 0 0 1 1 0 0 forward_v I I I I #
coedge $-1 $116 $117 $118 $119 forward $46 $-1 #
face $-1 $120 $121 $28 $-1 $122 reversed single #
loop $-1 $-1 $123 $48 #
plane-surface $-1 0 0 -7.0507543020012271 0 0 1 1 0 0 forward_v I I I I #
coedge $-1 $124 $125 $126 $127 forward $49 $-1 #
face $-1 $128 $129 $29 $-1 $130 reversed single #
loop $-1 $-1 $131 $51 #
plane-surface $-1 -66.248359630115658 30.203326283507892 0.65631441966992554 -0.80901700255871778 0 0.5877852410284794 0.5877852410284794 0 0.80901700255871778 forward_v I I I I #
coedge $-1 $132 $133 $134 $135 reversed $52 $-1 #
face $-1 $-1 $136 $30 $-1 $137 forward single #
loop $-1 $138 $139 $54 #
cone-surface $-1 -62.433785163839211 28.536485011176538 2.7697812180591228 0.80901700255871778 0 -0.5877852410284794 0.2938926205142397 0 0.40450850127935889 1 I I -0.70710678118654746 0.70710678118654746 0.5 forward I I I I #
loop $-1 $-1 $140 $39 #
coedge $-1 $88 $88 $141 $142 reversed $55 $-1 #
face $-1 $-1 $143 $31 $-1 $144 forward single #
loop $-1 $145 $146 $57 #
cone-surface $-1 -62.433785163839211 31.870167555839217 2.7697812180591228 0.80901700255871778 0 -0.5877852410284794 0.2938926205142397 0 0.40450850127935889 1 I I -0.70710678118654746 0.70710678118654746 0.5 forward I I I I #
loop $-1 $-1 $147 $40 #
coedge $-1 $93 $93 $148 $149 reversed $58 $-1 #
face $-1 $150 $151 $32 $-1 $152 reversed single #
loop $-1 $-1 $153 $60 #
plane-surface $-1 -18.918888525987782 -21.572459120700067 102.51047798507659 0.7660444514056185 0 0.64278759981090561 0.64278759981090561 0 -0.7660444514056185 forward_v I I I I #
coedge $-1 $154 $155 $156 $157 reversed $61 $-1 #
face $-1 $-1 $158 $33 $-1 $159 forward single #
loop $-1 $160 $161 $63 #
cone-surface $-1 60.921588316358978 -21.572459120700067 1.6876081060357073 -0.7660444514056185 0 -0.64278759981090561 0.3213937999054528 0 -0.38302222570280925 1 I I -0.70710678118654746 0.70710678118654746 0.5 forward I I I I #
loop $-1 $-1 $162 $42 #
coedge $-1 $102 $102 $163 $164 reversed $64 $-1 #
face $-1 $165 $166 $34 $-1 $167 reversed single #
loop $-1 $-1 $168 $66 #
plane-surface $-1 -18.918888525987782 28.706866221018075 102.51047798507659 0.7660444514056185 0 0.64278759981090561 0.64278759981090561 0 -0.7660444514056185 forward_v I I I I #
coedge $-1 $169 $170 $171 $172 reversed $67 $-1 #
face $-1 $-1 $173 $35 $-1 $174 forward single #
loop $-1 $175 $176 $69 #
cone-surface $-1 60.921588316358978 28.706866221018075 1.6876081060357073 -0.7660444514056185 0 -0.64278759981090561 0.3213937999054528 0 -0.38302222570280925 1 I I -0.70710678118654746 0.70710678118654746 0.5 forward I I I I #
loop $-1 $-1 $177 $44 #
coedge $-1 $111 $111 $178 $179 reversed $70 $-1 #
face $-1 $180 $181 $27 $-1 $182 reversed single #
loop $-1 $-1 $183 $72 #
plane-surface $-1 0 -34.09262258561435 0 0 1 0 0 0 1 forward_v I I I I #
coedge $-1 $184 $185 $186 $187 forward $73 $-1 #
coedge $-1 $188 $75 $189 $190 forward $46 $-1 #
coedge $-1 $75 $188 $191 $192 forward $46 $-1 #
coedge $-1 $193 $194 $75 $119 reversed $195 $-1 #
edge $-1 $196 -34.09262258561435 $197 34.09262258561435 $118 $198 forward 7 unknown #
face $-1 $199 $200 $28 $-1 $201 reversed single #
loop $-1 $-1 $202 $76 #
plane-surface $-1 -53.646851026113204 -41.227029685932365 0 0 1 0 0 0 1 forward_v I I I I #
coedge $-1 $203 $204 $125 $205 forward $77 $-1 #
coedge $-1 $206 $79 $207 $208 reversed $49 $-1 #
coedge $-1 $79 $206 $123 $205 reversed $49 $-1 #
coedge $-1 $209 $210 $79 $127 reversed $200 $-1 #
edge $-1 $211 -7.0507543020012271 $212 7.0507543020012271 $126 $213 forward 7 unknown #
face $-1 $214 $215 $29 $-1 $216 forward single #
loop $-1 $-1 $217 $80 #
plane-surface $-1 -66.248359630115658 0 0 1 0 0 0 0 -1 forward_v I I I I #
coedge $-1 $218 $219 $220 $221 reversed $81 $-1 #
coedge $-1 $133 $83 $222 $223 reversed $52 $-1 #
coedge $-1 $83 $132 $218 $224 reversed $52 $-1 #
coedge $-1 $220 $225 $83 $135 forward $215 $-1 #
edge $-1 $226 20.471869517330305 $227 25.117701898591577 $134 $228 forward 7 unknown #
loop $-1 $-1 $141 $84 #
plane-surface $-1 -66.248359630115658 30.203326283507892 0.65631441966992554 -0.80901700255871778 0 0.5877852410284794 0.5877852410284794 0 0.80901700255871778 forward_v I I I I #
loop $-1 $-1 $229 $54 #
coedge $-1 $139 $139 $140 $230 reversed $85 $-1 #
coedge $-1 $140 $140 $139 $230 forward $87 $-1 #
coedge $-1 $141 $141 $88 $142 forward $136 $-1 #
edge $-1 $231 0 $231 6.2831853071796004 $141 $232 forward 7 unknown #
loop $-1 $-1 $148 $89 #
plane-surface $-1 -66.248359630115658 30.203326283507892 0.65631441966992554 -0.80901700255871778 0 0.5877852410284794 0.5877852410284794 0 0.80901700255871778 forward_v I I I I #
loop $-1 $-1 $233 $57 #
coedge $-1 $146 $146 $147 $234 reversed $90 $-1 #
coedge $-1 $147 $147 $146 $234 forward $92 $-1 #
coedge $-1 $148 $148 $93 $149 forward $143 $-1 #
edge $-1 $235 0 $235 6.2831853071796004 $148 $236 forward 7 unknown #
face $-1 $237 $238 $32 $-1 $239 forward single #
loop $-1 $-1 $240 $94 #
plane-surface $-1 82.579488092760357 -26.958215485296343 187.67772614118007 0 1 0 0.7660444514056185 0 0.64278759981090561 forward_v I I I I #
coedge $-1 $241 $242 $243 $244 reversed $95 $-1 #
coedge $-1 $155 $97 $245 $246 reversed $61 $-1 #
coedge $-1 $97 $154 $241 $247 reversed $61 $-1 #
coedge $-1 $243 $248 $97 $157 forward $238 $-1 #
edge $-1 $249 -24.95861558373548 $250 -19.891584265265848 $156 $251 forward 7 unknown #
loop $-1 $-1 $163 $98 #
plane-surface $-1 -18.918888525987782 -21.572459120700067 102.51047798507659 0.7660444514056185 0 0.64278759981090561 0.64278759981090561 0 -0.7660444514056185 forward_v I I I I #
loop $-1 $-1 $252 $63 #
coedge $-1 $161 $161 $162 $253 reversed $99 $-1 #
coedge $-1 $162 $162 $161 $253 forward $101 $-1 #
coedge $-1 $163 $163 $102 $164 forward $158 $-1 #
edge $-1 $254 0 $254 6.2831853071796004 $163 $255 forward 7 unknown #
face $-1 $256 $257 $34 $-1 $258 forward single #
loop $-1 $-1 $171 $103 #
plane-surface $-1 66.248359630115658 0 0 -1 0 0 0 0 1 forward_v I I I I #
coedge $-1 $259 $260 $261 $262 reversed $104 $-1 #
coedge $-1 $170 $106 $263 $264 reversed $67 $-1 #
coedge $-1 $106 $169 $259 $265 reversed $67 $-1 #
coedge $-1 $261 $266 $106 $172 forward $166 $-1 #
edge $-1 $267 86.788108768588813 $268 92.826761704261543 $171 $269 forward 7 unknown #
loop $-1 $-1 $178 $107 #
plane-surface $-1 -18.918888525987782 28.706866221018075 102.51047798507659 0.7660444514056185 0 0.64278759981090561 0.64278759981090561 0 -0.7660444514056185 forward_v I I I I #
loop $-1 $-1 $270 $69 #
coedge $-1 $176 $176 $177 $271 reversed $108 $-1 #
coedge $-1 $177 $177 $176 $271 forward $110 $-1 #
coedge $-1 $178 $178 $111 $179 forward $173 $-1 #
edge $-1 $272 0 $272 6.2831853071796004 $178 $273 forward 7 unknown #
face $-1 $274 $275 $27 $-1 $276 reversed single #
loop $-1 $-1 $277 $112 #
plane-surface $-1 -66.248359630115658 0 0 1 0 0 0 0 -1 forward_v I I I I #
coedge $-1 $278 $191 $279 $280 forward $113 $-1 #
coedge $-1 $281 $115 $278 $282 forward $73 $-1 #
coedge $-1 $115 $281 $283 $284 forward $73 $-1 #
coedge $-1 $194 $193 $115 $187 reversed $195 $-1 #
edge $-1 $285 -34.09262258561435 $286 34.09262258561435 $186 $287 forward 7 unknown #
coedge $-1 $117 $116 $288 $289 forward $46 $-1 #
coedge $-1 $290 $291 $116 $190 reversed $275 $-1 #
edge $-1 $197 -66.248359630115658 $292 66.248359630115658 $189 $293 forward 7 unknown #
coedge $-1 $183 $294 $117 $192 reversed $113 $-1 #
edge $-1 $295 -66.248359630115658 $196 66.248359630115658 $191 $296 forward 7 unknown #
coedge $-1 $186 $118 $294 $297 forward $195 $-1 #
coedge $-1 $118 $186 $290 $298 reversed $195 $-1 #
loop $-1 $-1 $193 $274 #
vertex $-1 $119 $299 #
vertex $-1 $119 $300 #
straight-curve $-1 66.248359630115658 0 7.0507543020012271 0 1 0 I I #
face $-1 $301 $302 $28 $-1 $303 reversed single #
loop $-1 $-1 $126 $120 #
plane-surface $-1 -55.146851026113204 -37.659826135773358 0 1 0 0 0 0 -1 forward_v I I I I #
coedge $-1 $304 $305 $306 $307 forward $121 $-1 #
coedge $-1 $308 $123 $309 $310 forward $77 $-1 #
coedge $-1 $123 $308 $209 $311 forward $77 $-1 #
edge $-1 $211 -55.146851026113204 $312 -52.146851026113204 $123 $313 forward 7 unknown #
coedge $-1 $125 $124 $314 $315 forward $49 $-1 #
coedge $-1 $316 $317 $124 $208 forward $318 $-1 #
edge $-1 $319 52.146851026113204 $212 55.146851026113204 $207 $320 forward 7 unknown #
coedge $-1 $306 $126 $204 $311 reversed $200 $-1 #
coedge $-1 $126 $306 $316 $321 reversed $200 $-1 #
vertex $-1 $205 $322 #
vertex $-1 $321 $323 #
straight-curve $-1 -55.146851026113204 -34.09262258561435 0 0 0 1 I I #
face $-1 $-1 $324 $29 $-1 $325 reversed single #
loop $-1 $-1 $220 $128 #
plane-surface $-1 0 0 7.0507543020012271 0 0 1 1 0 0 forward_v I I I I #
coedge $-1 $222 $326 $327 $328 forward $129 $-1 #
coedge $-1 $327 $131 $133 $224 forward $81 $-1 #
coedge $-1 $131 $327 $329 $330 reversed $81 $-1 #
coedge $-1 $331 $134 $131 $221 forward $215 $-1 #
edge $-1 $227 11.21236683964748 $332 18.990959443860412 $220 $333 forward 7 unknown #
coedge $-1 $334 $217 $132 $223 forward $129 $-1 #
edge $-1 $335 -38.611650823093953 $226 -32.217210940762655 $222 $336 forward 7 unknown #
edge $-1 $227 -7.9039622926431612 $335 0 $133 $337 forward 7 unknown #
coedge $-1 $134 $331 $334 $338 forward $215 $-1 #
vertex $-1 $223 $339 #
vertex $-1 $135 $340 #
straight-curve $-1 -86.720229147445963 26.314029981401426 7.0507543020012236 1 0 0 I I #
coedge $-1 $229 $229 $-1 $341 reversed $138 $-1 #
edge $-1 $342 0 $342 6.2831853071796004 $139 $343 forward 7 unknown #
vertex $-1 $142 $344 #
ellipse-curve $-1 -63.925443439485022 28.536485011176538 3.8535343608355772 -0.80901700255871778 0 0.5877852410284794 0.5877852410284794 0 0.80901700255871778 1 I I #
coedge $-1 $233 $233 $-1 $345 reversed $145 $-1 #
edge $-1 $346 0 $346 6.2831853071796004 $146 $347 forward 7 unknown #
vertex $-1 $149 $348 #
ellipse-curve $-1 -63.925443439485022 31.870167555839217 3.8535343608355772 -0.80901700255871778 0 0.5877852410284794 0.5877852410284794 0 0.80901700255871778 1 I I #
face $-1 $-1 $349 $32 $-1 $350 reversed single #
loop $-1 $-1 $156 $150 #
plane-surface $-1 0 0 7.0507543020012271 0 0 1 1 0 0 forward_v I I I I #
coedge $-1 $351 $352 $353 $354 reversed $151 $-1 #
coedge $-1 $355 $153 $155 $247 forward $95 $-1 #
coedge $-1 $153 $355 $351 $356 forward $95 $-1 #
coedge $-1 $353 $156 $153 $244 forward $238 $-1 #
edge $-1 $250 5.4004731957537579 $357 16.171985924946309 $243 $358 forward 7 unknown #
coedge $-1 $359 $360 $154 $246 forward $349 $-1 #
edge $-1 $361 -92.826761704261543 $249 -86.788108768588813 $245 $362 forward 7 unknown #
edge $-1 $250 124.61381778552915 $361 132.49671926023129 $155 $363 forward 7 unknown #
coedge $-1 $156 $353 $359 $364 forward $238 $-1 #
vertex $-1 $157 $365 #
vertex $-1 $157 $366 #
straight-curve $-1 41.289744046380179 -16.186702756103792 7.0507543020012236 -1 0 0 I I #
coedge $-1 $252 $252 $-1 $367 reversed $160 $-1 #
edge $-1 $368 0 $368 6.2831853071796004 $161 $369 forward 7 unknown #
vertex $-1 $164 $370 #
ellipse-curve $-1 63.714843970880843 -21.572459120700067 4.0314278341648464 0.7660444514056185 0 0.64278759981090561 0.64278759981090561 0 -0.7660444514056185 1 I I #
face $-1 $-1 $371 $34 $-1 $372 reversed single #
loop $-1 $-1 $263 $165 #
plane-surface $-1 0 0 7.0507543020012271 0 0 1 1 0 0 forward_v I I I I #
coedge $-1 $373 $168 $170 $265 forward $104 $-1 #
coedge $-1 $168 $373 $374 $375 reversed $104 $-1 #
coedge $-1 $376 $171 $168 $262 forward $166 $-1 #
edge $-1 $268 8.9676767459127618 $377 19.739189475105313 $261 $378 forward 7 unknown #
coedge $-1 $379 $380 $169 $264 forward $257 $-1 #
edge $-1 $381 19.891584265265848 $267 24.95861558373548 $263 $382 forward 7 unknown #
edge $-1 $268 -132.49671926023129 $381 -124.61381778552915 $170 $383 forward 7 unknown #
coedge $-1 $171 $376 $379 $384 reversed $166 $-1 #
vertex $-1 $384 $385 #
vertex $-1 $172 $386 #
straight-curve $-1 66.248359630115658 23.321109856421799 93.838863070590037 0 0 -1 I I #
coedge $-1 $270 $270 $-1 $387 reversed $175 $-1 #
edge $-1 $388 0 $388 6.2831853071796004 $176 $389 forward 7 unknown #
vertex $-1 $179 $390 #
ellipse-curve $-1 63.714843970880843 28.706866221018075 4.0314278341648464 0.7660444514056185 0 0.64278759981090561 0.64278759981090561 0 -0.7660444514056185 1 I I #
face $-1 $-1 $195 $27 $-1 $391 reversed single #
loop $-1 $-1 $290 $180 #
plane-surface $-1 0 34.09262258561435 0 0 -1 0 0 0 -1 forward_v I I I I #
coedge $-1 $392 $288 $291 $393 forward $181 $-1 #
coedge $-1 $294 $183 $184 $282 reversed $113 $-1 #
coedge $-1 $288 $392 $183 $280 reversed $181 $-1 #
edge $-1 $295 -7.0507543020012271 $394 7.0507543020012271 $279 $395 forward 7 unknown #
coedge $-1 $185 $184 $392 $396 forward $73 $-1 #
edge $-1 $286 -66.248359630115658 $394 66.248359630115658 $278 $397 forward 7 unknown #
coedge $-1 $291 $290 $185 $284 reversed $275 $-1 #
edge $-1 $398 -66.248359630115658 $285 66.248359630115658 $283 $399 forward 7 unknown #
vertex $-1 $187 $400 #
vertex $-1 $297 $401 #
straight-curve $-1 66.248359630115658 0 -7.0507543020012271 0 -1 0 I I #
coedge $-1 $277 $279 $188 $289 reversed $181 $-1 #
edge $-1 $292 -34.09262258561435 $295 34.09262258561435 $288 $402 forward 7 unknown #
coedge $-1 $283 $189 $194 $298 forward $275 $-1 #
coedge $-1 $189 $283 $277 $393 reversed $275 $-1 #
vertex $-1 $190 $403 #
straight-curve $-1 0 34.09262258561435 7.0507543020012271 -1 0 0 I I #
coedge $-1 $191 $278 $193 $297 reversed $113 $-1 #
vertex $-1 $289 $404 #
straight-curve $-1 0 -34.09262258561435 7.0507543020012271 1 0 0 I I #
edge $-1 $196 -7.0507543020012271 $286 7.0507543020012271 $193 $405 forward 7 unknown #
edge $-1 $197 -7.0507543020012271 $285 7.0507543020012271 $194 $406 forward 7 unknown #
point $-1 66.248359630115658 -34.09262258561435 7.0507543020012271 #
point $-1 66.248359630115658 34.09262258561435 7.0507543020012271 #
face $-1 $-1 $318 $28 $-1 $407 forward single #
loop $-1 $-1 $408 $199 #
plane-surface $-1 -52.146851026113204 -37.659826135773358 0 -1 0 0 0 0 1 forward_v I I I I #
coedge $-1 $409 $202 $308 $410 reversed $121 $-1 #
coedge $-1 $202 $409 $411 $412 reversed $121 $-1 #
coedge $-1 $210 $209 $202 $307 reversed $200 $-1 #
edge $-1 $413 -7.0507543020012271 $414 7.0507543020012271 $306 $415 forward 7 unknown #
coedge $-1 $204 $203 $304 $410 forward $77 $-1 #
coedge $-1 $314 $408 $203 $310 reversed $302 $-1 #
edge $-1 $312 -3.5672035501590074 $416 3.5672035501590074 $309 $417 forward 7 unknown #
edge $-1 $414 -3.5672035501590074 $211 3.5672035501590074 $209 $418 forward 7 unknown #
vertex $-1 $310 $419 #
straight-curve $-1 0 -34.09262258561435 -7.0507543020012271 1 0 0 I I #
coedge $-1 $420 $309 $206 $315 reversed $302 $-1 #
edge $-1 $319 -7.0507543020012271 $312 7.0507543020012271 $314 $421 forward 7 unknown #
coedge $-1 $411 $207 $210 $321 forward $318 $-1 #
coedge $-1 $207 $411 $420 $422 forward $318 $-1 #
loop $-1 $-1 $207 $301 #
vertex $-1 $208 $423 #
straight-curve $-1 0 -34.09262258561435 7.0507543020012271 -1 0 0 I I #
edge $-1 $212 -3.5672035501590074 $413 3.5672035501590074 $210 $424 forward 7 unknown #
point $-1 -55.146851026113204 -34.09262258561435 -7.0507543020012271 #
point $-1 -55.146851026113204 -34.09262258561435 7.0507543020012271 #
loop $-1 $-1 $329 $214 #
plane-surface $-1 0 34.09262258561435 0 0 -1 0 0 0 -1 forward_v I I I I #
coedge $-1 $217 $334 $425 $426 forward $129 $-1 #
coedge $-1 $219 $218 $217 $328 reversed $81 $-1 #
edge $-1 $427 -18.990959443860412 $335 -11.21236683964748 $217 $428 forward 7 unknown #
coedge $-1 $425 $429 $219 $330 forward $324 $-1 #
edge $-1 $332 11.300456961552586 $427 19.204419254195745 $329 $430 forward 7 unknown #
coedge $-1 $225 $220 $429 $431 forward $215 $-1 #
vertex $-1 $431 $432 #
straight-curve $-1 -61.602527248854379 15.101663141753946 7.0507543020012289 0 1 0 I I #
coedge $-1 $326 $222 $225 $338 reversed $129 $-1 #
vertex $-1 $223 $433 #
straight-curve $-1 -66.248359630115658 26.314029981401426 39.267965242763879 0 0 1 I I #
straight-curve $-1 -66.248359630115658 26.314029981401426 0.65631441966992554 -0.5877852410284794 0 -0.80901700255871778 I I #
edge $-1 $434 -34.09262258561435 $226 -26.314029981401426 $334 $435 forward 7 unknown #
point $-1 -66.248359630115658 26.314029981401426 7.0507543020012271 #
point $-1 -61.602527248854386 26.314029981401426 7.0507543020012271 #
edge $-1 $436 1 $436 0 $229 $-1 forward 7 unknown #
vertex $-1 $230 $437 #
ellipse-curve $-1 -62.83829366511857 28.536485011176538 3.0636738385733624 -0.80901700255871778 0 0.5877852410284794 0.5877852410284794 0 0.80901700255871778 1 I I #
point $-1 -63.337658198456538 28.536485011176538 4.6625513633942957 #
edge $-1 $438 1 $438 0 $233 $-1 forward 7 unknown #
vertex $-1 $234 $439 #
ellipse-curve $-1 -62.83829366511857 31.870167555839217 3.0636738385733624 -0.80901700255871778 0 0.5877852410284794 0.5877852410284794 0 0.80901700255871778 1 I I #
point $-1 -63.337658198456538 31.870167555839217 4.6625513633942957 #
loop $-1 $-1 $245 $237 #
plane-surface $-1 66.248359630115658 0 0 -1 0 0 0 0 1 forward_v I I I I #
coedge $-1 $352 $240 $242 $356 reversed $151 $-1 #
coedge $-1 $240 $351 $440 $441 reversed $151 $-1 #
coedge $-1 $248 $243 $240 $354 forward $238 $-1 #
edge $-1 $357 19.891584265265848 $442 24.95861558373548 $353 $443 forward 7 unknown #
coedge $-1 $242 $241 $360 $444 reversed $95 $-1 #
edge $-1 $445 -132.49671926023129 $357 -124.61381778552915 $351 $446 forward 7 unknown #
vertex $-1 $244 $447 #
straight-curve $-1 61.181328311646034 -10.786229560350034 7.0507543020012164 0 -1 0 I I #
coedge $-1 $440 $245 $248 $364 reversed $349 $-1 #
coedge $-1 $245 $440 $355 $444 forward $349 $-1 #
vertex $-1 $246 $448 #
straight-curve $-1 66.248359630115658 -16.186702756103792 93.838863070590037 0 0 1 I I #
straight-curve $-1 -18.918888525987782 -16.186702756103792 102.51047798507659 0.64278759981090561 0 -0.7660444514056185 I I #
edge $-1 $442 -26.958215485296343 $249 -16.186702756103792 $359 $449 forward 7 unknown #
point $-1 66.248359630115658 -16.186702756103792 7.0507543020012271 #
point $-1 61.181328311646027 -16.186702756103792 7.0507543020012236 #
edge $-1 $450 1 $450 0 $252 $-1 forward 7 unknown #
vertex $-1 $253 $451 #
ellipse-curve $-1 61.304610542061788 -21.572459120700067 2.0090019059411599 0.7660444514056185 0 0.64278759981090561 0.64278759981090561 0 -0.7660444514056185 1 I I #
point $-1 64.357631570691737 -21.572459120700067 3.2653833827592149 #
loop $-1 $-1 $374 $256 #
plane-surface $-1 0 34.09262258561435 0 0 -1 0 0 0 -1 forward_v I I I I #
coedge $-1 $260 $259 $380 $452 reversed $104 $-1 #
coedge $-1 $453 $454 $260 $375 forward $371 $-1 #
edge $-1 $377 -87.152514351173508 $455 -79.269612876471385 $374 $456 forward 7 unknown #
coedge $-1 $266 $261 $454 $457 reversed $166 $-1 #
vertex $-1 $262 $458 #
straight-curve $-1 66.248359630115658 14.353433110509037 1.0121013663284941 0 1 0 I I #
coedge $-1 $459 $263 $266 $384 forward $257 $-1 #
coedge $-1 $263 $459 $373 $452 forward $257 $-1 #
vertex $-1 $264 $460 #
straight-curve $-1 41.289744046380179 23.321109856421799 7.0507543020012236 1 0 0 I I #
straight-curve $-1 -18.918888525987782 23.321109856421799 102.51047798507659 -0.64278759981090561 0 0.7660444514056185 I I #
edge $-1 $267 23.321109856421799 $461 34.09262258561435 $266 $462 forward 7 unknown #
point $-1 66.248359630115658 23.321109856421799 7.0507543020012271 #
point $-1 66.248359630115658 23.321109856421799 1.0121013663284941 #
edge $-1 $463 1 $463 0 $270 $-1 forward 7 unknown #
vertex $-1 $271 $464 #
ellipse-curve $-1 61.304610542061788 28.706866221018075 2.0090019059411599 0.7660444514056185 0 0.64278759981090561 0.64278759981090561 0 -0.7660444514056185 1 I I #
point $-1 64.357631570691737 28.706866221018075 3.2653833827592149 #
plane-surface $-1 66.248359630115658 0 0 -1 0 0 0 0 1 forward_v I I I I #
coedge $-1 $279 $277 $281 $396 reversed $181 $-1 #
edge $-1 $292 -7.0507543020012271 $398 7.0507543020012271 $291 $465 forward 7 unknown #
vertex $-1 $396 $466 #
straight-curve $-1 -66.248359630115658 -34.09262258561435 0 0 0 -1 I I #
edge $-1 $394 -34.09262258561435 $398 34.09262258561435 $392 $467 forward 7 unknown #
straight-curve $-1 0 -34.09262258561435 -7.0507543020012271 -1 0 0 I I #
vertex $-1 $284 $468 #
straight-curve $-1 0 34.09262258561435 -7.0507543020012271 1 0 0 I I #
point $-1 66.248359630115658 34.09262258561435 -7.0507543020012271 #
point $-1 66.248359630115658 -34.09262258561435 -7.0507543020012271 #
straight-curve $-1 -66.248359630115658 0 7.0507543020012271 0 -1 0 I I #
point $-1 -66.248359630115658 34.09262258561435 7.0507543020012271 #
point $-1 -66.248359630115658 -34.09262258561435 7.0507543020012271 #
straight-curve $-1 66.248359630115658 -34.09262258561435 0 0 0 -1 I I #
straight-curve $-1 66.248359630115658 34.09262258561435 0 0 0 -1 I I #
plane-surface $-1 0 0 7.0507543020012271 0 0 1 1 0 0 forward_v I I I I #
coedge $-1 $309 $420 $409 $469 forward $302 $-1 #
coedge $-1 $305 $304 $408 $469 reversed $121 $-1 #
edge $-1 $416 -1.5 $414 1.5 $304 $470 forward 7 unknown #
coedge $-1 $317 $316 $305 $412 forward $318 $-1 #
edge $-1 $413 -1.5 $471 1.5 $305 $472 forward 7 unknown #
vertex $-1 $321 $473 #
vertex $-1 $311 $474 #
straight-curve $-1 -55.146851026113204 -41.227029685932365 0 0 0 -1 I I #
vertex $-1 $469 $475 #
straight-curve $-1 -52.146851026113204 -37.659826135773358 -7.0507543020012271 0 -1 0 I I #
straight-curve $-1 -55.146851026113204 -37.659826135773358 -7.0507543020012271 0 1 0 I I #
point $-1 -52.146851026113204 -34.09262258561435 -7.0507543020012271 #
coedge $-1 $408 $314 $317 $422 reversed $302 $-1 #
straight-curve $-1 -52.146851026113204 -34.09262258561435 0 0 0 -1 I I #
edge $-1 $471 -3.5672035501590074 $319 3.5672035501590074 $420 $476 forward 7 unknown #
point $-1 -52.146851026113204 -34.09262258561435 7.0507543020012271 #
straight-curve $-1 -55.146851026113204 -37.659826135773358 7.0507543020012271 0 -1 0 I I #
coedge $-1 $429 $329 $326 $426 reversed $324 $-1 #
edge $-1 $434 -7.0507543020012271 $427 -0.65631441966992554 $425 $477 forward 7 unknown #
vertex $-1 $330 $478 #
straight-curve $-1 -66.248359630115658 15.101663141753946 0.65631441966991633 0 -1 0 I I #
coedge $-1 $329 $425 $331 $431 reversed $324 $-1 #
straight-curve $-1 -54.960285429976238 34.09262258561435 16.193016120580292 -0.5877852410284794 0 -0.80901700255871778 I I #
edge $-1 $332 61.602527248854386 $434 66.248359630115658 $429 $479 forward 7 unknown #
point $-1 -61.602527248854386 34.092622585614357 7.0507543020012271 #
point $-1 -66.248359630115658 26.314029981401426 0.65631441966992554 #
vertex $-1 $431 $480 #
straight-curve $-1 -66.248359630115658 0 7.0507543020012271 0 -1 0 I I #
vertex $-1 $341 $481 #
point $-1 -62.250508424090093 28.536485011176538 3.8726908411320804 #
vertex $-1 $345 $482 #
point $-1 -62.250508424090093 31.870167555839217 3.8726908411320804 #
coedge $-1 $360 $359 $352 $441 forward $349 $-1 #
edge $-1 $442 86.788108768588813 $445 92.826761704261543 $440 $483 forward 7 unknown #
vertex $-1 $364 $484 #
straight-curve $-1 41.289744046380179 -26.958215485296343 7.0507543020012236 1 0 0 I I #
edge $-1 $445 -16.171985924946309 $361 -5.4004731957537579 $360 $485 forward 7 unknown #
vertex $-1 $444 $486 #
straight-curve $-1 -18.918888525987782 -26.958215485296343 102.51047798507659 -0.64278759981090561 0 0.7660444514056185 I I #
point $-1 61.181328311646027 -26.958215485296343 7.0507543020012236 #
point $-1 66.248359630115658 -16.186702756103792 1.0121013663284941 #
straight-curve $-1 66.248359630115658 0 7.0507543020012271 0 1 0 I I #
vertex $-1 $367 $487 #
point $-1 61.947398141872696 -21.572459120700067 1.2429574545355417 #
edge $-1 $455 -19.739189475105313 $381 -8.9676767459127618 $380 $488 forward 7 unknown #
coedge $-1 $454 $374 $459 $489 reversed $371 $-1 #
coedge $-1 $374 $453 $376 $457 forward $371 $-1 #
vertex $-1 $375 $490 #
straight-curve $-1 10.227804112839333 34.09262258561435 67.774801411093492 -0.64278759981090572 0 0.76604445140561861 I I #
edge $-1 $461 -7.0507543020012271 $377 -1.0121013663284877 $376 $491 forward 7 unknown #
point $-1 66.248359630115658 34.09262258561435 1.0121013663284877 #
coedge $-1 $380 $379 $453 $489 forward $257 $-1 #
point $-1 61.181328311646027 23.321109856421799 7.0507543020012236 #
vertex $-1 $384 $492 #
straight-curve $-1 66.248359630115658 0 7.0507543020012271 0 1 0 I I #
vertex $-1 $387 $493 #
point $-1 61.947398141872696 28.706866221018075 1.2429574545355417 #
straight-curve $-1 -66.248359630115658 34.09262258561435 0 0 0 -1 I I #
point $-1 -66.248359630115658 -34.09262258561435 -7.0507543020012271 #
straight-curve $-1 -66.248359630115658 0 -7.0507543020012271 0 1 0 I I #
point $-1 -66.248359630115658 34.09262258561435 -7.0507543020012271 #
edge $-1 $471 -7.0507543020012271 $416 7.0507543020012271 $408 $494 forward 7 unknown #
straight-curve $-1 -53.646851026113204 -41.227029685932365 -7.0507543020012271 -1 0 0 I I #
vertex $-1 $422 $495 #
straight-curve $-1 -53.646851026113204 -41.227029685932365 7.0507543020012271 1 0 0 I I #
point $-1 -55.146851026113204 -41.227029685932365 7.0507543020012271 #
point $-1 -55.146851026113204 -41.227029685932365 -7.0507543020012271 #
point $-1 -52.146851026113204 -41.227029685932365 -7.0507543020012271 #
straight-curve $-1 -52.146851026113204 -37.659826135773358 7.0507543020012271 0 1 0 I I #
straight-curve $-1 -66.248359630115658 34.09262258561435 0 0 0 -1 I I #
point $-1 -66.248359630115658 34.092622585614357 0.65631441966992554 #
straight-curve $-1 0 34.09262258561435 7.0507543020012271 -1 0 0 I I #
point $-1 -66.248359630115658 34.09262258561435 7.0507543020012271 #
point $-1 -62.029276662559852 28.536485011176538 2.4758885975448832 #
point $-1 -62.029276662559852 31.870167555839217 2.4758885975448832 #
straight-curve $-1 66.248359630115658 -26.958215485296343 93.838863070590037 0 0 -1 I I #
point $-1 66.248359630115658 -26.958215485296343 7.0507543020012271 #
straight-curve $-1 66.248359630115658 -10.786229560350034 1.0121013663284941 0 1 0 I I #
point $-1 66.248359630115658 -26.958215485296343 1.0121013663284941 #
point $-1 60.538566090656168 -21.572459120700067 1.3662143061302545 #
straight-curve $-1 61.181328311646034 14.353433110509037 7.0507543020012164 0 -1 0 I I #
edge $-1 $461 -66.248359630115658 $455 -61.181328311646027 $453 $496 forward 7 unknown #
point $-1 61.181328311646027 34.09262258561435 7.0507543020012236 #
straight-curve $-1 66.248359630115658 34.09262258561435 0 0 0 -1 I I #
point $-1 66.248359630115658 34.09262258561435 7.0507543020012271 #
point $-1 60.538566090656168 28.706866221018075 1.3662143061302545 #
straight-curve $-1 -52.146851026113204 -41.227029685932365 0 0 0 -1 I I #
point $-1 -52.146851026113204 -41.227029685932365 7.0507543020012271 #
straight-curve $-1 0 34.09262258561435 7.0507543020012271 -1 0 0 I I #
End-of-ACIS-data 