500 0 16 0           
7 Unknown 11 ACIS 5.0 NT 24 Fri Mar 26 00:34:39 1999 
-1 9.9999999999999995e-007 1e-010 
body $-1 $16 $-1 $17 #
body $-1 $18 $-1 $19 #
body $-1 $20 $-1 $21 #
body $-1 $22 $-1 $23 #
body $-1 $24 $-1 $25 #
body $-1 $26 $-1 $27 #
body $-1 $28 $-1 $29 #
body $-1 $30 $-1 $31 #
body $-1 $32 $-1 $33 #
body $-1 $34 $-1 $35 #
body $-1 $36 $-1 $37 #
body $-1 $38 $-1 $39 #
body $-1 $40 $-1 $41 #
body $-1 $42 $-1 $43 #
body $-1 $44 $-1 $45 #
body $-1 $46 $-1 $47 #
lump $-1 $-1 $48 $0 #
transform $-1 1 0 0 0 1 0 0 0 1 47.259743034150212 20.988160486423855 5.4264838656249967 1 rotate no_reflect no_shear #
lump $-1 $-1 $49 $1 #
transform $-1 1 0 0 0 1 0 0 0 1 47.259743034150212 2.2289836851501748 9.3529677312499935 1 rotate no_reflect no_shear #
lump $-1 $-1 $50 $2 #
transform $-1 1 0 0 0 1 0 0 0 1 47.259743034150212 39.747337287697533 9.3529677312499935 1 rotate no_reflect no_shear #
lump $-1 $-1 $51 $3 #
transform $-1 0.54463902268945019 0 -0.83867057594974714 0 1 0 0.83867057594974714 0 0.54463902268945019 122.31119737032779 9.928790417457078 137.8695586265942 1 rotate no_reflect no_shear #
lump $-1 $-1 $52 $4 #
transform $-1 0.54463902268945019 0 -0.83867057594974714 0 -1 0 -0.83867057594974714 0 -0.54463902268945019 91.58932223222979 8.4807830235375139 7.870721443977061 1 rotate no_reflect no_shear #
lump $-1 $-1 $53 $5 #
transform $-1 0.54463902268945019 0 -0.83867057594974714 0 -1 0 -0.83867057594974714 0 -0.54463902268945019 91.58932223222979 11.37679781137664 7.870721443977061 1 rotate no_reflect no_shear #
lump $-1 $-1 $54 $6 #
transform $-1 0.54463902268945019 0 -0.83867057594974714 0 1 0 0.83867057594974714 0 0.54463902268945019 122.31119737032779 20.988160486423851 137.8695586265942 1 rotate no_reflect no_shear #
lump $-1 $-1 $55 $7 #
transform $-1 0.54463902268945019 0 -0.83867057594974714 0 -1 0 -0.83867057594974714 0 -0.54463902268945019 91.58932223222979 19.540153092504291 7.870721443977061 1 rotate no_reflect no_shear #
lump $-1 $-1 $56 $8 #
transform $-1 0.54463902268945019 0 -0.83867057594974714 0 -1 0 -0.83867057594974714 0 -0.54463902268945019 91.58932223222979 22.436167880343415 7.870721443977061 1 rotate no_reflect no_shear #
lump $-1 $-1 $57 $9 #
transform $-1 0.54463902268945019 0 -0.83867057594974714 0 1 0 0.83867057594974714 0 0.54463902268945019 122.31119737032779 32.047530555390622 137.8695586265942 1 rotate no_reflect no_shear #
lump $-1 $-1 $58 $10 #
transform $-1 0.54463902268945019 0 -0.83867057594974714 0 -1 0 -0.83867057594974714 0 -0.54463902268945019 91.58932223222979 30.599523161471065 7.870721443977061 1 rotate no_reflect no_shear #
lump $-1 $-1 $59 $11 #
transform $-1 0.54463902268945019 0 -0.83867057594974714 0 -1 0 -0.83867057594974714 0 -0.54463902268945019 91.58932223222979 33.49553794931019 7.870721443977061 1 rotate no_reflect no_shear #
lump $-1 $-1 $60 $12 #
transform $-1 0.81915203911291934 0 0.57357644374324357 0 1 0 -0.57357644374324357 0 0.81915203911291934 -54.214150683494822 21.560060448735427 84.443187142172349 1 rotate no_reflect no_shear #
lump $-1 $-1 $61 $13 #
transform $-1 0.81915203911291934 0 0.57357644374324357 0 -1 0 0.57357644374324357 0 -0.81915203911291934 3.4558801313800664 19.586796192161501 7.9112225134432821 1 rotate no_reflect no_shear #
lump $-1 $-1 $62 $14 #
transform $-1 0.81915203911291934 0 0.57357644374324357 0 -1 0 0.57357644374324357 0 -0.81915203911291934 3.4558801313800664 21.560060448735424 7.9112225134432821 1 rotate no_reflect no_shear #
lump $-1 $-1 $63 $15 #
transform $-1 0.81915203911291934 0 0.57357644374324357 0 -1 0 0.57357644374324357 0 -0.81915203911291934 3.4558801313800664 23.533324705309347 7.9112225134432821 1 rotate no_reflect no_shear #
shell $-1 $-1 $-1 $64 $-1 $16 #
shell $-1 $-1 $-1 $65 $-1 $18 #
shell $-1 $-1 $-1 $66 $-1 $20 #
shell $-1 $-1 $-1 $67 $-1 $22 #
shell $-1 $-1 $-1 $68 $-1 $24 #
shell $-1 $-1 $-1 $69 $-1 $26 #
shell $-1 $-1 $-1 $70 $-1 $28 #
shell $-1 $-1 $-1 $71 $-1 $30 #
shell $-1 $-1 $-1 $72 $-1 $32 #
shell $-1 $-1 $-1 $73 $-1 $34 #
shell $-1 $-1 $-1 $74 $-1 $36 #
shell $-1 $-1 $-1 $75 $-1 $38 #
shell $-1 $-1 $-1 $76 $-1 $40 #
shell $-1 $-1 $-1 $77 $-1 $42 #
shell $-1 $-1 $-1 $78 $-1 $44 #
shell $-1 $-1 $-1 $79 $-1 $46 #
face $-1 $80 $81 $48 $-1 $82 forward single #
face $-1 $83 $84 $49 $-1 $85 forward single #
face $-1 $86 $87 $50 $-1 $88 forward single #
face $-1 $89 $90 $51 $-1 $91 forward single #
face $-1 $92 $93 $52 $-1 $94 forward single #
face $-1 $95 $96 $53 $-1 $97 forward single #
face $-1 $98 $99 $54 $-1 $100 forward single #
face $-1 $101 $102 $55 $-1 $103 forward single #
face $-1 $104 $105 $56 $-1 $106 forward single #
face $-1 $107 $108 $57 $-1 $109 forward single #
face $-1 $110 $111 $58 $-1 $112 forward single #
face $-1 $113 $114 $59 $-1 $115 forward single #
face $-1 $116 $117 $60 $-1 $118 forward single #
face $-1 $119 $120 $61 $-1 $121 forward single #
face $-1 $122 $123 $62 $-1 $124 forward single #
face $-1 $125 $126 $63 $-1 $127 forward single #
face $-1 $128 $129 $48 $-1 $130 reversed single #
loop $-1 $-1 $131 $64 #
plane-surface $-1 0 0 5.4264838656249967 0 0 1 1 0 0 forward_v I I I I #
face $-1 $132 $133 $49 $-1 $134 reversed single #
loop $-1 $-1 $135 $65 #
plane-surface $-1 0 0 1.5 0 0 1 1 0 0 forward_v I I I I #
face $-1 $136 $137 $50 $-1 $138 reversed single #
loop $-1 $-1 $139 $66 #
plane-surface $-1 0 0 1.5 0 0 1 1 0 0 forward_v I I I I #
face $-1 $140 $141 $51 $-1 $142 reversed single #
loop $-1 $-1 $143 $67 #
plane-surface $-1 0 0 94.519486068300424 0 0 1 1 0 0 forward_v I I I I #
face $-1 $144 $145 $52 $-1 $146 forward single #
loop $-1 $147 $148 $68 #
cone-surface $-1 0 0 -1.1492431409649946 0 0 1 0.5 0 0 1 I I 0 1 0.5 forward I I I I #
face $-1 $149 $150 $53 $-1 $151 forward single #
loop $-1 $152 $153 $69 #
cone-surface $-1 0 0 -1.1492431409649946 0 0 1 0.5 0 0 1 I I 0 1 0.5 forward I I I I #
face $-1 $154 $155 $54 $-1 $156 reversed single #
loop $-1 $-1 $157 $70 #
plane-surface $-1 0 0 94.519486068300424 0 0 1 1 0 0 forward_v I I I I #
face $-1 $158 $159 $55 $-1 $160 forward single #
loop $-1 $161 $162 $71 #
cone-surface $-1 0 0 -1.1492431409649946 0 0 1 0.5 0 0 1 I I 0 1 0.5 forward I I I I #
face $-1 $163 $164 $56 $-1 $165 forward single #
loop $-1 $166 $167 $72 #
cone-surface $-1 0 0 -1.1492431409649946 0 0 1 0.5 0 0 1 I I 0 1 0.5 forward I I I I #
face $-1 $168 $169 $57 $-1 $170 reversed single #
loop $-1 $-1 $171 $73 #
plane-surface $-1 0 0 94.519486068300424 0 0 1 1 0 0 forward_v I I I I #
face $-1 $172 $173 $58 $-1 $174 forward single #
loop $-1 $175 $176 $74 #
cone-surface $-1 0 0 -1.1492431409649946 0 0 1 0.5 0 0 1 I I 0 1 0.5 forward I I I I #
face $-1 $177 $178 $59 $-1 $179 forward single #
loop $-1 $180 $181 $75 #
cone-surface $-1 0 0 -1.1492431409649946 0 0 1 0.5 0 0 1 I I 0 1 0.5 forward I I I I #
face $-1 $182 $183 $60 $-1 $184 reversed single #
loop $-1 $-1 $185 $76 #
plane-surface $-1 0 0 94.519486068300424 0 0 1 1 0 0 forward_v I I I I #
face $-1 $186 $187 $61 $-1 $188 forward single #
loop $-1 $189 $190 $77 #
cone-surface $-1 0 0 -0.75 0 0 1 0.5 0 0 1 I I 0 1 0.5 forward I I I I #
face $-1 $191 $192 $62 $-1 $193 forward single #
loop $-1 $194 $195 $78 #
cone-surface $-1 0 0 -0.75 0 0 1 0.5 0 0 1 I I 0 1 0.5 forward I I I I #
face $-1 $196 $197 $63 $-1 $198 forward single #
loop $-1 $199 $200 $79 #
cone-surface $-1 0 0 -0.75 0 0 1 0.5 0 0 1 I I 0 1 0.5 forward I I I I #
face $-1 $201 $202 $48 $-1 $203 reversed single #
loop $-1 $-1 $204 $80 #
plane-surface $-1 0 0 -5.4264838656249967 0 0 1 1 0 0 forward_v I I I I #
coedge $-1 $205 $206 $207 $208 forward $81 $-1 #
face $-1 $209 $210 $49 $-1 $211 reversed single #
loop $-1 $-1 $212 $83 #
plane-surface $-1 0 0 -1.5 0 0 1 1 0 0 forward_v I I I I #
coedge $-1 $213 $214 $215 $216 forward $84 $-1 #
face $-1 $217 $218 $50 $-1 $219 reversed single #
loop $-1 $-1 $220 $86 #
plane-surface $-1 0 0 -1.5 0 0 1 1 0 0 forward_v I I I I #
coedge $-1 $221 $222 $223 $224 forward $87 $-1 #
face $-1 $225 $226 $51 $-1 $227 reversed single #
loop $-1 $-1 $228 $89 #
plane-surface $-1 0 0 -94.519486068300424 0 0 1 1 0 0 forward_v I I I I #
coedge $-1 $229 $230 $231 $232 forward $90 $-1 #
face $-1 $-1 $233 $52 $-1 $234 forward single #
loop $-1 $-1 $235 $92 #
plane-surface $-1 0 0 -2.0484862819299896 0 0 -1 -1 0 0 forward_v I I I I #
loop $-1 $-1 $236 $68 #
coedge $-1 $148 $148 $235 $237 reversed $93 $-1 #
face $-1 $-1 $238 $53 $-1 $239 forward single #
loop $-1 $-1 $240 $95 #
plane-surface $-1 0 0 -2.0484862819299896 0 0 -1 -1 0 0 forward_v I I I I #
loop $-1 $-1 $241 $69 #
coedge $-1 $153 $153 $240 $242 reversed $96 $-1 #
face $-1 $243 $244 $54 $-1 $245 reversed single #
loop $-1 $-1 $246 $98 #
plane-surface $-1 0 0 -94.519486068300424 0 0 1 1 0 0 forward_v I I I I #
coedge $-1 $247 $248 $249 $250 forward $99 $-1 #
face $-1 $-1 $251 $55 $-1 $252 forward single #
loop $-1 $-1 $253 $101 #
plane-surface $-1 0 0 -2.0484862819299896 0 0 -1 -1 0 0 forward_v I I I I #
loop $-1 $-1 $254 $71 #
coedge $-1 $162 $162 $253 $255 reversed $102 $-1 #
face $-1 $-1 $256 $56 $-1 $257 forward single #
loop $-1 $-1 $258 $104 #
plane-surface $-1 0 0 -2.0484862819299896 0 0 -1 -1 0 0 forward_v I I I I #
loop $-1 $-1 $259 $72 #
coedge $-1 $167 $167 $258 $260 reversed $105 $-1 #
face $-1 $261 $262 $57 $-1 $263 reversed single #
loop $-1 $-1 $264 $107 #
plane-surface $-1 0 0 -94.519486068300424 0 0 1 1 0 0 forward_v I I I I #
coedge $-1 $265 $266 $267 $268 forward $108 $-1 #
face $-1 $-1 $269 $58 $-1 $270 forward single #
loop $-1 $-1 $271 $110 #
plane-surface $-1 0 0 -2.0484862819299896 0 0 -1 -1 0 0 forward_v I I I I #
loop $-1 $-1 $272 $74 #
coedge $-1 $176 $176 $271 $273 reversed $111 $-1 #
face $-1 $-1 $274 $59 $-1 $275 forward single #
loop $-1 $-1 $276 $113 #
plane-surface $-1 0 0 -2.0484862819299896 0 0 -1 -1 0 0 forward_v I I I I #
loop $-1 $-1 $277 $75 #
coedge $-1 $181 $181 $276 $278 reversed $114 $-1 #
face $-1 $279 $280 $60 $-1 $281 reversed single #
loop $-1 $-1 $282 $116 #
plane-surface $-1 0 0 -94.519486068300424 0 0 1 1 0 0 forward_v I I I I #
coedge $-1 $283 $284 $285 $286 forward $117 $-1 #
face $-1 $-1 $287 $61 $-1 $288 forward single #
loop $-1 $-1 $289 $119 #
plane-surface $-1 0 0 -1.25 0 0 -1 -1 0 0 forward_v I I I I #
loop $-1 $-1 $290 $77 #
coedge $-1 $190 $190 $289 $291 reversed $120 $-1 #
face $-1 $-1 $292 $62 $-1 $293 forward single #
loop $-1 $-1 $294 $122 #
plane-surface $-1 0 0 -1.25 0 0 -1 -1 0 0 forward_v I I I I #
loop $-1 $-1 $295 $78 #
coedge $-1 $195 $195 $294 $296 reversed $123 $-1 #
face $-1 $-1 $297 $63 $-1 $298 forward single #
loop $-1 $-1 $299 $125 #
plane-surface $-1 0 0 -1.25 0 0 -1 -1 0 0 forward_v I I I I #
loop $-1 $-1 $300 $79 #
coedge $-1 $200 $200 $299 $301 reversed $126 $-1 #
face $-1 $302 $303 $48 $-1 $304 reversed single #
loop $-1 $-1 $305 $128 #
plane-surface $-1 0 -20.988160486423855 0 0 1 0 0 0 1 forward_v I I I I #
coedge $-1 $306 $307 $308 $309 forward $129 $-1 #
coedge $-1 $310 $131 $311 $312 forward $81 $-1 #
coedge $-1 $131 $310 $313 $314 forward $81 $-1 #
coedge $-1 $315 $316 $131 $208 reversed $317 $-1 #
edge $-1 $318 -20.988160486423855 $319 20.988160486423855 $207 $320 forward 7 unknown #
face $-1 $321 $322 $49 $-1 $323 reversed single #
loop $-1 $-1 $324 $132 #
plane-surface $-1 0 -2.2289836851501748 0 0 1 0 0 0 1 forward_v I I I I #
coedge $-1 $325 $326 $327 $328 forward $133 $-1 #
coedge $-1 $329 $135 $330 $331 forward $84 $-1 #
coedge $-1 $135 $329 $332 $333 forward $84 $-1 #
coedge $-1 $334 $335 $135 $216 reversed $336 $-1 #
edge $-1 $337 -2.2289836851501748 $338 2.2289836851501748 $215 $339 forward 7 unknown #
face $-1 $340 $341 $50 $-1 $342 reversed single #
loop $-1 $-1 $343 $136 #
plane-surface $-1 0 -2.2289836851501761 0 0 1 0 0 0 1 forward_v I I I I #
coedge $-1 $344 $345 $346 $347 forward $137 $-1 #
coedge $-1 $348 $139 $349 $350 forward $87 $-1 #
coedge $-1 $139 $348 $351 $352 forward $87 $-1 #
coedge $-1 $353 $354 $139 $224 reversed $355 $-1 #
edge $-1 $356 -2.2289836851501761 $357 2.2289836851501761 $223 $358 forward 7 unknown #
face $-1 $359 $360 $51 $-1 $361 reversed single #
loop $-1 $-1 $362 $140 #
plane-surface $-1 0 -3.378683919145649 0 0 1 0 0 0 1 forward_v I I I I #
coedge $-1 $363 $364 $365 $366 forward $141 $-1 #
coedge $-1 $367 $143 $368 $369 forward $90 $-1 #
coedge $-1 $143 $367 $370 $371 forward $90 $-1 #
coedge $-1 $372 $373 $143 $232 reversed $374 $-1 #
edge $-1 $375 -3.378683919145649 $376 3.378683919145649 $231 $377 forward 7 unknown #
loop $-1 $378 $379 $144 #
cone-surface $-1 0 0 0 0 0 1 0.25 0 0 1 I I -0.70710678118654746 0.70710678118654746 0.25 forward I I I I #
coedge $-1 $235 $235 $148 $237 forward $145 $-1 #
coedge $-1 $236 $236 $379 $380 forward $147 $-1 #
edge $-1 $381 0 $381 6.2831853071796004 $235 $382 forward 7 unknown #
loop $-1 $383 $384 $149 #
cone-surface $-1 0 0 0 0 0 1 0.25 0 0 1 I I -0.70710678118654746 0.70710678118654746 0.25 forward I I I I #
coedge $-1 $240 $240 $153 $242 forward $150 $-1 #
coedge $-1 $241 $241 $384 $385 forward $152 $-1 #
edge $-1 $386 0 $386 6.2831853071796004 $240 $387 forward 7 unknown #
face $-1 $388 $389 $54 $-1 $390 reversed single #
loop $-1 $-1 $391 $154 #
plane-surface $-1 0 -3.378683919145649 0 0 1 0 0 0 1 forward_v I I I I #
coedge $-1 $392 $393 $394 $395 forward $155 $-1 #
coedge $-1 $396 $157 $397 $398 forward $99 $-1 #
coedge $-1 $157 $396 $399 $400 forward $99 $-1 #
coedge $-1 $401 $402 $157 $250 reversed $403 $-1 #
edge $-1 $404 -3.378683919145649 $405 3.378683919145649 $249 $406 forward 7 unknown #
loop $-1 $407 $408 $158 #
cone-surface $-1 0 0 0 0 0 1 0.25 0 0 1 I I -0.70710678118654746 0.70710678118654746 0.25 forward I I I I #
coedge $-1 $253 $253 $162 $255 forward $159 $-1 #
coedge $-1 $254 $254 $408 $409 forward $161 $-1 #
edge $-1 $410 0 $410 6.2831853071796004 $253 $411 forward 7 unknown #
loop $-1 $412 $413 $163 #
cone-surface $-1 0 0 0 0 0 1 0.25 0 0 1 I I -0.70710678118654746 0.70710678118654746 0.25 forward I I I I #
coedge $-1 $258 $258 $167 $260 forward $164 $-1 #
coedge $-1 $259 $259 $413 $414 forward $166 $-1 #
edge $-1 $415 0 $415 6.2831853071796004 $258 $416 forward 7 unknown #
face $-1 $417 $418 $57 $-1 $419 reversed single #
loop $-1 $-1 $420 $168 #
plane-surface $-1 0 -3.378683919145649 0 0 1 0 0 0 1 forward_v I I I I #
coedge $-1 $421 $422 $423 $424 forward $169 $-1 #
coedge $-1 $425 $171 $426 $427 forward $108 $-1 #
coedge $-1 $171 $425 $428 $429 forward $108 $-1 #
coedge $-1 $430 $431 $171 $268 reversed $432 $-1 #
edge $-1 $433 -3.378683919145649 $434 3.378683919145649 $267 $435 forward 7 unknown #
loop $-1 $436 $437 $172 #
cone-surface $-1 0 0 0 0 0 1 0.25 0 0 1 I I -0.70710678118654746 0.70710678118654746 0.25 forward I I I I #
coedge $-1 $271 $271 $176 $273 forward $173 $-1 #
coedge $-1 $272 $272 $437 $438 forward $175 $-1 #
edge $-1 $439 0 $439 6.2831853071796004 $271 $440 forward 7 unknown #
loop $-1 $441 $442 $177 #
cone-surface $-1 0 0 0 0 0 1 0.25 0 0 1 I I -0.70710678118654746 0.70710678118654746 0.25 forward I I I I #
coedge $-1 $276 $276 $181 $278 forward $178 $-1 #
coedge $-1 $277 $277 $442 $443 forward $180 $-1 #
edge $-1 $444 0 $444 6.2831853071796004 $276 $445 forward 7 unknown #
face $-1 $446 $447 $60 $-1 $448 reversed single #
loop $-1 $-1 $449 $182 #
plane-surface $-1 0 -3.2887737609565395 0 0 1 0 0 0 1 forward_v I I I I #
coedge $-1 $450 $451 $452 $453 forward $183 $-1 #
coedge $-1 $454 $185 $455 $456 forward $117 $-1 #
coedge $-1 $185 $454 $457 $458 forward $117 $-1 #
coedge $-1 $459 $460 $185 $286 reversed $461 $-1 #
edge $-1 $462 -3.2887737609565395 $463 3.2887737609565395 $285 $464 forward 7 unknown #
loop $-1 $465 $466 $186 #
cone-surface $-1 0 0 0 0 0 1 0.25 0 0 1 I I -0.70710678118654746 0.70710678118654746 0.25 forward I I I I #
coedge $-1 $289 $289 $190 $291 forward $187 $-1 #
coedge $-1 $290 $290 $466 $467 forward $189 $-1 #
edge $-1 $468 0 $468 6.2831853071796004 $289 $469 forward 7 unknown #
loop $-1 $470 $471 $191 #
cone-surface $-1 0 0 0 0 0 1 0.25 0 0 1 I I -0.70710678118654746 0.70710678118654746 0.25 forward I I I I #
coedge $-1 $294 $294 $195 $296 forward $192 $-1 #
coedge $-1 $295 $295 $471 $472 forward $194 $-1 #
edge $-1 $473 0 $473 6.2831853071796004 $294 $474 forward 7 unknown #
loop $-1 $475 $476 $196 #
cone-surface $-1 0 0 0 0 0 1 0.25 0 0 1 I I -0.70710678118654746 0.70710678118654746 0.25 forward I I I I #
coedge $-1 $299 $299 $200 $301 forward $197 $-1 #
coedge $-1 $300 $300 $476 $477 forward $199 $-1 #
edge $-1 $478 0 $478 6.2831853071796004 $299 $479 forward 7 unknown #
face $-1 $480 $481 $48 $-1 $482 reversed single #
loop $-1 $-1 $483 $201 #
plane-surface $-1 -47.259743034150212 0 0 1 0 0 0 0 -1 forward_v I I I I #
coedge $-1 $484 $313 $485 $486 forward $202 $-1 #
coedge $-1 $487 $204 $484 $488 forward $129 $-1 #
coedge $-1 $204 $487 $489 $490 forward $129 $-1 #
coedge $-1 $316 $315 $204 $309 reversed $317 $-1 #
edge $-1 $491 -20.988160486423855 $492 20.988160486423855 $308 $493 forward 7 unknown #
coedge $-1 $206 $205 $494 $495 forward $81 $-1 #
coedge $-1 $496 $497 $205 $312 reversed $481 $-1 #
edge $-1 $319 -47.259743034150212 $498 47.259743034150212 $311 $499 forward 7 unknown #
coedge $-1 $305 $500 $206 $314 reversed $202 $-1 #
edge $-1 $501 -47.259743034150212 $318 47.259743034150212 $313 $502 forward 7 unknown #
coedge $-1 $308 $207 $500 $503 forward $317 $-1 #
coedge $-1 $207 $308 $496 $504 reversed $317 $-1 #
loop $-1 $-1 $315 $480 #
vertex $-1 $208 $505 #
vertex $-1 $208 $506 #
straight-curve $-1 47.259743034150212 0 5.4264838656249967 0 1 0 I I #
face $-1 $507 $508 $49 $-1 $509 reversed single #
loop $-1 $-1 $510 $209 #
plane-surface $-1 -47.259743034150212 0 0 1 0 0 0 0 -1 forward_v I I I I #
coedge $-1 $511 $332 $512 $513 forward $210 $-1 #
coedge $-1 $514 $212 $511 $515 forward $133 $-1 #
coedge $-1 $212 $514 $516 $517 forward $133 $-1 #
coedge $-1 $335 $334 $212 $328 reversed $336 $-1 #
edge $-1 $518 -2.2289836851501748 $519 2.2289836851501748 $327 $520 forward 7 unknown #
coedge $-1 $214 $213 $521 $522 forward $84 $-1 #
coedge $-1 $523 $524 $213 $331 reversed $508 $-1 #
edge $-1 $338 -47.259743034150212 $525 47.259743034150212 $330 $526 forward 7 unknown #
coedge $-1 $324 $527 $214 $333 reversed $210 $-1 #
edge $-1 $528 -47.259743034150212 $337 47.259743034150212 $332 $529 forward 7 unknown #
coedge $-1 $327 $215 $527 $530 forward $336 $-1 #
coedge $-1 $215 $327 $523 $531 reversed $336 $-1 #
loop $-1 $-1 $334 $507 #
vertex $-1 $216 $532 #
vertex $-1 $216 $533 #
straight-curve $-1 47.259743034150212 0 1.5 0 1 0 I I #
face $-1 $534 $535 $50 $-1 $536 reversed single #
loop $-1 $-1 $537 $217 #
plane-surface $-1 -47.259743034150212 0 0 1 0 0 0 0 -1 forward_v I I I I #
coedge $-1 $538 $351 $539 $540 forward $218 $-1 #
coedge $-1 $541 $220 $538 $542 forward $137 $-1 #
coedge $-1 $220 $541 $543 $544 forward $137 $-1 #
coedge $-1 $354 $353 $220 $347 reversed $355 $-1 #
edge $-1 $545 -2.2289836851501761 $546 2.2289836851501761 $346 $547 forward 7 unknown #
coedge $-1 $222 $221 $548 $549 forward $87 $-1 #
coedge $-1 $550 $551 $221 $350 reversed $535 $-1 #
edge $-1 $357 -47.259743034150212 $552 47.259743034150212 $349 $553 forward 7 unknown #
coedge $-1 $343 $554 $222 $352 reversed $218 $-1 #
edge $-1 $555 -47.259743034150212 $356 47.259743034150212 $351 $556 forward 7 unknown #
coedge $-1 $346 $223 $554 $557 forward $355 $-1 #
coedge $-1 $223 $346 $550 $558 reversed $355 $-1 #
loop $-1 $-1 $353 $534 #
vertex $-1 $224 $559 #
vertex $-1 $224 $560 #
straight-curve $-1 47.259743034150212 0 1.5 0 1 0 I I #
face $-1 $561 $562 $51 $-1 $563 reversed single #
loop $-1 $-1 $564 $225 #
plane-surface $-1 -189.03897213660085 0 0 1 0 0 0 0 -1 forward_v I I I I #
coedge $-1 $565 $370 $566 $567 forward $226 $-1 #
coedge $-1 $568 $228 $565 $569 forward $141 $-1 #
coedge $-1 $228 $568 $570 $571 forward $141 $-1 #
coedge $-1 $373 $372 $228 $366 reversed $374 $-1 #
edge $-1 $572 -3.378683919145649 $573 3.378683919145649 $365 $574 forward 7 unknown #
coedge $-1 $230 $229 $575 $576 forward $90 $-1 #
coedge $-1 $577 $578 $229 $369 reversed $562 $-1 #
edge $-1 $376 -189.03897213660085 $579 189.03897213660085 $368 $580 forward 7 unknown #
coedge $-1 $362 $581 $230 $371 reversed $226 $-1 #
edge $-1 $582 -189.03897213660085 $375 189.03897213660085 $370 $583 forward 7 unknown #
coedge $-1 $365 $231 $581 $584 forward $374 $-1 #
coedge $-1 $231 $365 $577 $585 reversed $374 $-1 #
loop $-1 $-1 $372 $561 #
vertex $-1 $232 $586 #
vertex $-1 $232 $587 #
straight-curve $-1 189.03897213660085 0 94.519486068300424 0 1 0 I I #
loop $-1 $-1 $588 $144 #
coedge $-1 $379 $379 $236 $380 reversed $233 $-1 #
edge $-1 $589 0 $589 6.2831853071796004 $379 $590 forward 7 unknown #
vertex $-1 $237 $591 #
ellipse-curve $-1 0 0 -2.0484862819299896 0 0 -1 0.5 0 0 1 I I #
loop $-1 $-1 $592 $149 #
coedge $-1 $384 $384 $241 $385 reversed $238 $-1 #
edge $-1 $593 0 $593 6.2831853071796004 $384 $594 forward 7 unknown #
vertex $-1 $242 $595 #
ellipse-curve $-1 0 0 -2.0484862819299896 0 0 -1 0.5 0 0 1 I I #
face $-1 $596 $597 $54 $-1 $598 reversed single #
loop $-1 $-1 $599 $243 #
plane-surface $-1 -189.03897213660085 0 0 1 0 0 0 0 -1 forward_v I I I I #
coedge $-1 $600 $399 $601 $602 forward $244 $-1 #
coedge $-1 $603 $246 $600 $604 forward $155 $-1 #
coedge $-1 $246 $603 $605 $606 forward $155 $-1 #
coedge $-1 $402 $401 $246 $395 reversed $403 $-1 #
edge $-1 $607 -3.378683919145649 $608 3.378683919145649 $394 $609 forward 7 unknown #
coedge $-1 $248 $247 $610 $611 forward $99 $-1 #
coedge $-1 $612 $613 $247 $398 reversed $597 $-1 #
edge $-1 $405 -189.03897213660085 $614 189.03897213660085 $397 $615 forward 7 unknown #
coedge $-1 $391 $616 $248 $400 reversed $244 $-1 #
edge $-1 $617 -189.03897213660085 $404 189.03897213660085 $399 $618 forward 7 unknown #
coedge $-1 $394 $249 $616 $619 forward $403 $-1 #
coedge $-1 $249 $394 $612 $620 reversed $403 $-1 #
loop $-1 $-1 $401 $596 #
vertex $-1 $250 $621 #
vertex $-1 $250 $622 #
straight-curve $-1 189.03897213660085 0 94.519486068300424 0 1 0 I I #
loop $-1 $-1 $623 $158 #
coedge $-1 $408 $408 $254 $409 reversed $251 $-1 #
edge $-1 $624 0 $624 6.2831853071796004 $408 $625 forward 7 unknown #
vertex $-1 $255 $626 #
ellipse-curve $-1 0 0 -2.0484862819299896 0 0 -1 0.5 0 0 1 I I #
loop $-1 $-1 $627 $163 #
coedge $-1 $413 $413 $259 $414 reversed $256 $-1 #
edge $-1 $628 0 $628 6.2831853071796004 $413 $629 forward 7 unknown #
vertex $-1 $260 $630 #
ellipse-curve $-1 0 0 -2.0484862819299896 0 0 -1 0.5 0 0 1 I I #
face $-1 $631 $632 $57 $-1 $633 reversed single #
loop $-1 $-1 $634 $261 #
plane-surface $-1 -189.03897213660085 0 0 1 0 0 0 0 -1 forward_v I I I I #
coedge $-1 $635 $428 $636 $637 forward $262 $-1 #
coedge $-1 $638 $264 $635 $639 forward $169 $-1 #
coedge $-1 $264 $638 $640 $641 forward $169 $-1 #
coedge $-1 $431 $430 $264 $424 reversed $432 $-1 #
edge $-1 $642 -3.378683919145649 $643 3.378683919145649 $423 $644 forward 7 unknown #
coedge $-1 $266 $265 $645 $646 forward $108 $-1 #
coedge $-1 $647 $648 $265 $427 reversed $632 $-1 #
edge $-1 $434 -189.03897213660085 $649 189.03897213660085 $426 $650 forward 7 unknown #
coedge $-1 $420 $651 $266 $429 reversed $262 $-1 #
edge $-1 $652 -189.03897213660085 $433 189.03897213660085 $428 $653 forward 7 unknown #
coedge $-1 $423 $267 $651 $654 forward $432 $-1 #
coedge $-1 $267 $423 $647 $655 reversed $432 $-1 #
loop $-1 $-1 $430 $631 #
vertex $-1 $268 $656 #
vertex $-1 $268 $657 #
straight-curve $-1 189.03897213660085 0 94.519486068300424 0 1 0 I I #
loop $-1 $-1 $658 $172 #
coedge $-1 $437 $437 $272 $438 reversed $269 $-1 #
edge $-1 $659 0 $659 6.2831853071796004 $437 $660 forward 7 unknown #
vertex $-1 $273 $661 #
ellipse-curve $-1 0 0 -2.0484862819299896 0 0 -1 0.5 0 0 1 I I #
loop $-1 $-1 $662 $177 #
coedge $-1 $442 $442 $277 $443 reversed $274 $-1 #
edge $-1 $663 0 $663 6.2831853071796004 $442 $664 forward 7 unknown #
vertex $-1 $278 $665 #
ellipse-curve $-1 0 0 -2.0484862819299896 0 0 -1 0.5 0 0 1 I I #
face $-1 $666 $667 $60 $-1 $668 reversed single #
loop $-1 $-1 $669 $279 #
plane-surface $-1 -189.03897213660085 0 0 1 0 0 0 0 -1 forward_v I I I I #
coedge $-1 $670 $457 $671 $672 forward $280 $-1 #
coedge $-1 $673 $282 $670 $674 forward $183 $-1 #
coedge $-1 $282 $673 $675 $676 forward $183 $-1 #
coedge $-1 $460 $459 $282 $453 reversed $461 $-1 #
edge $-1 $677 -3.2887737609565395 $678 3.2887737609565395 $452 $679 forward 7 unknown #
coedge $-1 $284 $283 $680 $681 forward $117 $-1 #
coedge $-1 $682 $683 $283 $456 reversed $667 $-1 #
edge $-1 $463 -189.03897213660085 $684 189.03897213660085 $455 $685 forward 7 unknown #
coedge $-1 $449 $686 $284 $458 reversed $280 $-1 #
edge $-1 $687 -189.03897213660085 $462 189.03897213660085 $457 $688 forward 7 unknown #
coedge $-1 $452 $285 $686 $689 forward $461 $-1 #
coedge $-1 $285 $452 $682 $690 reversed $461 $-1 #
loop $-1 $-1 $459 $666 #
vertex $-1 $286 $691 #
vertex $-1 $286 $692 #
straight-curve $-1 189.03897213660085 0 94.519486068300424 0 1 0 I I #
loop $-1 $-1 $693 $186 #
coedge $-1 $466 $466 $290 $467 reversed $287 $-1 #
edge $-1 $694 0 $694 6.2831853071796004 $466 $695 forward 7 unknown #
vertex $-1 $291 $696 #
ellipse-curve $-1 0 0 -1.25 0 0 -1 0.5 0 0 1 I I #
loop $-1 $-1 $697 $191 #
coedge $-1 $471 $471 $295 $472 reversed $292 $-1 #
edge $-1 $698 0 $698 6.2831853071796004 $471 $699 forward 7 unknown #
vertex $-1 $296 $700 #
ellipse-curve $-1 0 0 -1.25 0 0 -1 0.5 0 0 1 I I #
loop $-1 $-1 $701 $196 #
coedge $-1 $476 $476 $300 $477 reversed $297 $-1 #
edge $-1 $702 0 $702 6.2831853071796004 $476 $703 forward 7 unknown #
vertex $-1 $301 $704 #
ellipse-curve $-1 0 0 -1.25 0 0 -1 0.5 0 0 1 I I #
face $-1 $-1 $317 $48 $-1 $705 reversed single #
loop $-1 $-1 $496 $302 #
plane-surface $-1 0 20.988160486423855 0 0 -1 0 0 0 -1 forward_v I I I I #
coedge $-1 $706 $494 $497 $707 forward $303 $-1 #
coedge $-1 $500 $305 $306 $488 reversed $202 $-1 #
coedge $-1 $494 $706 $305 $486 reversed $303 $-1 #
edge $-1 $501 -5.4264838656249967 $708 5.4264838656249967 $485 $709 forward 7 unknown #
coedge $-1 $307 $306 $706 $710 forward $129 $-1 #
edge $-1 $492 -47.259743034150212 $708 47.259743034150212 $484 $711 forward 7 unknown #
coedge $-1 $497 $496 $307 $490 reversed $481 $-1 #
edge $-1 $712 -47.259743034150212 $491 47.259743034150212 $489 $713 forward 7 unknown #
vertex $-1 $309 $714 #
vertex $-1 $503 $715 #
straight-curve $-1 47.259743034150212 0 -5.4264838656249967 0 -1 0 I I #
coedge $-1 $483 $485 $310 $495 reversed $303 $-1 #
edge $-1 $498 -20.988160486423855 $501 20.988160486423855 $494 $716 forward 7 unknown #
coedge $-1 $489 $311 $316 $504 forward $481 $-1 #
coedge $-1 $311 $489 $483 $707 reversed $481 $-1 #
vertex $-1 $312 $717 #
straight-curve $-1 0 20.988160486423855 5.4264838656249967 -1 0 0 I I #
coedge $-1 $313 $484 $315 $503 reversed $202 $-1 #
vertex $-1 $495 $718 #
straight-curve $-1 0 -20.988160486423855 5.4264838656249967 1 0 0 I I #
edge $-1 $318 -5.4264838656249967 $492 5.4264838656249967 $315 $719 forward 7 unknown #
edge $-1 $319 -5.4264838656249967 $491 5.4264838656249967 $316 $720 forward 7 unknown #
point $-1 47.259743034150212 -20.988160486423855 5.4264838656249967 #
point $-1 47.259743034150212 20.988160486423855 5.4264838656249967 #
face $-1 $-1 $336 $49 $-1 $721 reversed single #
loop $-1 $-1 $523 $321 #
plane-surface $-1 0 2.2289836851501748 0 0 -1 0 0 0 -1 forward_v I I I I #
coedge $-1 $722 $521 $524 $723 forward $322 $-1 #
coedge $-1 $527 $324 $325 $515 reversed $210 $-1 #
coedge $-1 $521 $722 $324 $513 reversed $322 $-1 #
edge $-1 $528 -1.5 $724 1.5 $512 $725 forward 7 unknown #
coedge $-1 $326 $325 $722 $726 forward $133 $-1 #
edge $-1 $519 -47.259743034150212 $724 47.259743034150212 $511 $727 forward 7 unknown #
coedge $-1 $524 $523 $326 $517 reversed $508 $-1 #
edge $-1 $728 -47.259743034150212 $518 47.259743034150212 $516 $729 forward 7 unknown #
vertex $-1 $328 $730 #
vertex $-1 $530 $731 #
straight-curve $-1 47.259743034150212 0 -1.5 0 -1 0 I I #
coedge $-1 $510 $512 $329 $522 reversed $322 $-1 #
edge $-1 $525 -2.2289836851501748 $528 2.2289836851501748 $521 $732 forward 7 unknown #
coedge $-1 $516 $330 $335 $531 forward $508 $-1 #
coedge $-1 $330 $516 $510 $723 reversed $508 $-1 #
vertex $-1 $331 $733 #
straight-curve $-1 0 2.2289836851501748 1.5 -1 0 0 I I #
coedge $-1 $332 $511 $334 $530 reversed $210 $-1 #
vertex $-1 $522 $734 #
straight-curve $-1 0 -2.2289836851501748 1.5 1 0 0 I I #
edge $-1 $337 -1.5 $519 1.5 $334 $735 forward 7 unknown #
edge $-1 $338 -1.5 $518 1.5 $335 $736 forward 7 unknown #
point $-1 47.259743034150212 -2.2289836851501748 1.5 #
point $-1 47.259743034150212 2.2289836851501748 1.5 #
face $-1 $-1 $355 $50 $-1 $737 reversed single #
loop $-1 $-1 $550 $340 #
plane-surface $-1 0 2.2289836851501761 0 0 -1 0 0 0 -1 forward_v I I I I #
coedge $-1 $738 $548 $551 $739 forward $341 $-1 #
coedge $-1 $554 $343 $344 $542 reversed $218 $-1 #
coedge $-1 $548 $738 $343 $540 reversed $341 $-1 #
edge $-1 $555 -1.5 $740 1.5 $539 $741 forward 7 unknown #
coedge $-1 $345 $344 $738 $742 forward $137 $-1 #
edge $-1 $546 -47.259743034150212 $740 47.259743034150212 $538 $743 forward 7 unknown #
coedge $-1 $551 $550 $345 $544 reversed $535 $-1 #
edge $-1 $744 -47.259743034150212 $545 47.259743034150212 $543 $745 forward 7 unknown #
vertex $-1 $347 $746 #
vertex $-1 $557 $747 #
straight-curve $-1 47.259743034150212 0 -1.5 0 -1 0 I I #
coedge $-1 $537 $539 $348 $549 reversed $341 $-1 #
edge $-1 $552 -2.2289836851501761 $555 2.2289836851501761 $548 $748 forward 7 unknown #
coedge $-1 $543 $349 $354 $558 forward $535 $-1 #
coedge $-1 $349 $543 $537 $739 reversed $535 $-1 #
vertex $-1 $350 $749 #
straight-curve $-1 0 2.2289836851501761 1.5 -1 0 0 I I #
coedge $-1 $351 $538 $353 $557 reversed $218 $-1 #
vertex $-1 $549 $750 #
straight-curve $-1 0 -2.2289836851501761 1.5 1 0 0 I I #
edge $-1 $356 -1.5 $546 1.5 $353 $751 forward 7 unknown #
edge $-1 $357 -1.5 $545 1.5 $354 $752 forward 7 unknown #
point $-1 47.259743034150212 -2.2289836851501761 1.5 #
point $-1 47.259743034150212 2.2289836851501761 1.5 #
face $-1 $-1 $374 $51 $-1 $753 reversed single #
loop $-1 $-1 $577 $359 #
plane-surface $-1 0 3.378683919145649 0 0 -1 0 0 0 -1 forward_v I I I I #
coedge $-1 $754 $575 $578 $755 forward $360 $-1 #
coedge $-1 $581 $362 $363 $569 reversed $226 $-1 #
coedge $-1 $575 $754 $362 $567 reversed $360 $-1 #
edge $-1 $582 -94.519486068300424 $756 94.519486068300424 $566 $757 forward 7 unknown #
coedge $-1 $364 $363 $754 $758 forward $141 $-1 #
edge $-1 $573 -189.03897213660085 $756 189.03897213660085 $565 $759 forward 7 unknown #
coedge $-1 $578 $577 $364 $571 reversed $562 $-1 #
edge $-1 $760 -189.03897213660085 $572 189.03897213660085 $570 $761 forward 7 unknown #
vertex $-1 $366 $762 #
vertex $-1 $584 $763 #
straight-curve $-1 189.03897213660085 0 -94.519486068300424 0 -1 0 I I #
coedge $-1 $564 $566 $367 $576 reversed $360 $-1 #
edge $-1 $579 -3.378683919145649 $582 3.378683919145649 $575 $764 forward 7 unknown #
coedge $-1 $570 $368 $373 $585 forward $562 $-1 #
coedge $-1 $368 $570 $564 $755 reversed $562 $-1 #
vertex $-1 $369 $765 #
straight-curve $-1 0 3.378683919145649 94.519486068300424 -1 0 0 I I #
coedge $-1 $370 $565 $372 $584 reversed $226 $-1 #
vertex $-1 $576 $766 #
straight-curve $-1 0 -3.378683919145649 94.519486068300424 1 0 0 I I #
edge $-1 $375 -94.519486068300424 $573 94.519486068300424 $372 $767 forward 7 unknown #
edge $-1 $376 -94.519486068300424 $572 94.519486068300424 $373 $768 forward 7 unknown #
point $-1 189.03897213660085 -3.378683919145649 94.519486068300424 #
point $-1 189.03897213660085 3.378683919145649 94.519486068300424 #
coedge $-1 $588 $588 $-1 $769 reversed $378 $-1 #
vertex $-1 $380 $770 #
ellipse-curve $-1 0 0 -0.25 0 0 -1 0.5 0 0 1 I I #
point $-1 0.5 0 -2.0484862819299896 #
coedge $-1 $592 $592 $-1 $771 reversed $383 $-1 #
vertex $-1 $385 $772 #
ellipse-curve $-1 0 0 -0.25 0 0 -1 0.5 0 0 1 I I #
point $-1 0.5 0 -2.0484862819299896 #
face $-1 $-1 $403 $54 $-1 $773 reversed single #
loop $-1 $-1 $612 $388 #
plane-surface $-1 0 3.378683919145649 0 0 -1 0 0 0 -1 forward_v I I I I #
coedge $-1 $774 $610 $613 $775 forward $389 $-1 #
coedge $-1 $616 $391 $392 $604 reversed $244 $-1 #
coedge $-1 $610 $774 $391 $602 reversed $389 $-1 #
edge $-1 $617 -94.519486068300424 $776 94.519486068300424 $601 $777 forward 7 unknown #
coedge $-1 $393 $392 $774 $778 forward $155 $-1 #
edge $-1 $608 -189.03897213660085 $776 189.03897213660085 $600 $779 forward 7 unknown #
coedge $-1 $613 $612 $393 $606 reversed $597 $-1 #
edge $-1 $780 -189.03897213660085 $607 189.03897213660085 $605 $781 forward 7 unknown #
vertex $-1 $395 $782 #
vertex $-1 $619 $783 #
straight-curve $-1 189.03897213660085 0 -94.519486068300424 0 -1 0 I I #
coedge $-1 $599 $601 $396 $611 reversed $389 $-1 #
edge $-1 $614 -3.378683919145649 $617 3.378683919145649 $610 $784 forward 7 unknown #
coedge $-1 $605 $397 $402 $620 forward $597 $-1 #
coedge $-1 $397 $605 $599 $775 reversed $597 $-1 #
vertex $-1 $398 $785 #
straight-curve $-1 0 3.378683919145649 94.519486068300424 -1 0 0 I I #
coedge $-1 $399 $600 $401 $619 reversed $244 $-1 #
vertex $-1 $611 $786 #
straight-curve $-1 0 -3.378683919145649 94.519486068300424 1 0 0 I I #
edge $-1 $404 -94.519486068300424 $608 94.519486068300424 $401 $787 forward 7 unknown #
edge $-1 $405 -94.519486068300424 $607 94.519486068300424 $402 $788 forward 7 unknown #
point $-1 189.03897213660085 -3.378683919145649 94.519486068300424 #
point $-1 189.03897213660085 3.378683919145649 94.519486068300424 #
coedge $-1 $623 $623 $-1 $789 reversed $407 $-1 #
vertex $-1 $409 $790 #
ellipse-curve $-1 0 0 -0.25 0 0 -1 0.5 0 0 1 I I #
point $-1 0.5 0 -2.0484862819299896 #
coedge $-1 $627 $627 $-1 $791 reversed $412 $-1 #
vertex $-1 $414 $792 #
ellipse-curve $-1 0 0 -0.25 0 0 -1 0.5 0 0 1 I I #
point $-1 0.5 0 -2.0484862819299896 #
face $-1 $-1 $432 $57 $-1 $793 reversed single #
loop $-1 $-1 $647 $417 #
plane-surface $-1 0 3.378683919145649 0 0 -1 0 0 0 -1 forward_v I I I I #
coedge $-1 $794 $645 $648 $795 forward $418 $-1 #
coedge $-1 $651 $420 $421 $639 reversed $262 $-1 #
coedge $-1 $645 $794 $420 $637 reversed $418 $-1 #
edge $-1 $652 -94.519486068300424 $796 94.519486068300424 $636 $797 forward 7 unknown #
coedge $-1 $422 $421 $794 $798 forward $169 $-1 #
edge $-1 $643 -189.03897213660085 $796 189.03897213660085 $635 $799 forward 7 unknown #
coedge $-1 $648 $647 $422 $641 reversed $632 $-1 #
edge $-1 $800 -189.03897213660085 $642 189.03897213660085 $640 $801 forward 7 unknown #
vertex $-1 $424 $802 #
vertex $-1 $654 $803 #
straight-curve $-1 189.03897213660085 0 -94.519486068300424 0 -1 0 I I #
coedge $-1 $634 $636 $425 $646 reversed $418 $-1 #
edge $-1 $649 -3.378683919145649 $652 3.378683919145649 $645 $804 forward 7 unknown #
coedge $-1 $640 $426 $431 $655 forward $632 $-1 #
coedge $-1 $426 $640 $634 $795 reversed $632 $-1 #
vertex $-1 $427 $805 #
straight-curve $-1 0 3.378683919145649 94.519486068300424 -1 0 0 I I #
coedge $-1 $428 $635 $430 $654 reversed $262 $-1 #
vertex $-1 $646 $806 #
straight-curve $-1 0 -3.378683919145649 94.519486068300424 1 0 0 I I #
edge $-1 $433 -94.519486068300424 $643 94.519486068300424 $430 $807 forward 7 unknown #
edge $-1 $434 -94.519486068300424 $642 94.519486068300424 $431 $808 forward 7 unknown #
point $-1 189.03897213660085 -3.378683919145649 94.519486068300424 #
point $-1 189.03897213660085 3.378683919145649 94.519486068300424 #
coedge $-1 $658 $658 $-1 $809 reversed $436 $-1 #
vertex $-1 $438 $810 #
ellipse-curve $-1 0 0 -0.25 0 0 -1 0.5 0 0 1 I I #
point $-1 0.5 0 -2.0484862819299896 #
coedge $-1 $662 $662 $-1 $811 reversed $441 $-1 #
vertex $-1 $443 $812 #
ellipse-curve $-1 0 0 -0.25 0 0 -1 0.5 0 0 1 I I #
point $-1 0.5 0 -2.0484862819299896 #
face $-1 $-1 $461 $60 $-1 $813 reversed single #
loop $-1 $-1 $682 $446 #
plane-surface $-1 0 3.2887737609565395 0 0 -1 0 0 0 -1 forward_v I I I I #
coedge $-1 $814 $680 $683 $815 forward $447 $-1 #
coedge $-1 $686 $449 $450 $674 reversed $280 $-1 #
coedge $-1 $680 $814 $449 $672 reversed $447 $-1 #
edge $-1 $687 -94.519486068300424 $816 94.519486068300424 $671 $817 forward 7 unknown #
coedge $-1 $451 $450 $814 $818 forward $183 $-1 #
edge $-1 $678 -189.03897213660085 $816 189.03897213660085 $670 $819 forward 7 unknown #
coedge $-1 $683 $682 $451 $676 reversed $667 $-1 #
edge $-1 $820 -189.03897213660085 $677 189.03897213660085 $675 $821 forward 7 unknown #
vertex $-1 $453 $822 #
vertex $-1 $689 $823 #
straight-curve $-1 189.03897213660085 0 -94.519486068300424 0 -1 0 I I #
coedge $-1 $669 $671 $454 $681 reversed $447 $-1 #
edge $-1 $684 -3.2887737609565395 $687 3.2887737609565395 $680 $824 forward 7 unknown #
coedge $-1 $675 $455 $460 $690 forward $667 $-1 #
coedge $-1 $455 $675 $669 $815 reversed $667 $-1 #
vertex $-1 $456 $825 #
straight-curve $-1 0 3.2887737609565395 94.519486068300424 -1 0 0 I I #
coedge $-1 $457 $670 $459 $689 reversed $280 $-1 #
vertex $-1 $681 $826 #
straight-curve $-1 0 -3.2887737609565395 94.519486068300424 1 0 0 I I #
edge $-1 $462 -94.519486068300424 $678 94.519486068300424 $459 $827 forward 7 unknown #
edge $-1 $463 -94.519486068300424 $677 94.519486068300424 $460 $828 forward 7 unknown #
point $-1 189.03897213660085 -3.2887737609565395 94.519486068300424 #
point $-1 189.03897213660085 3.2887737609565395 94.519486068300424 #
coedge $-1 $693 $693 $-1 $829 reversed $465 $-1 #
vertex $-1 $467 $830 #
ellipse-curve $-1 0 0 -0.25 0 0 -1 0.5 0 0 1 I I #
point $-1 0.5 0 -1.25 #
coedge $-1 $697 $697 $-1 $831 reversed $470 $-1 #
vertex $-1 $472 $832 #
ellipse-curve $-1 0 0 -0.25 0 0 -1 0.5 0 0 1 I I #
point $-1 0.5 0 -1.25 #
coedge $-1 $701 $701 $-1 $833 reversed $475 $-1 #
vertex $-1 $477 $834 #
ellipse-curve $-1 0 0 -0.25 0 0 -1 0.5 0 0 1 I I #
point $-1 0.5 0 -1.25 #
plane-surface $-1 47.259743034150212 0 0 -1 0 0 0 0 1 forward_v I I I I #
coedge $-1 $485 $483 $487 $710 reversed $303 $-1 #
edge $-1 $498 -5.4264838656249967 $712 5.4264838656249967 $497 $835 forward 7 unknown #
vertex $-1 $710 $836 #
straight-curve $-1 -47.259743034150212 -20.988160486423855 0 0 0 -1 I I #
edge $-1 $708 -20.988160486423855 $712 20.988160486423855 $706 $837 forward 7 unknown #
straight-curve $-1 0 -20.988160486423855 -5.4264838656249967 -1 0 0 I I #
vertex $-1 $490 $838 #
straight-curve $-1 0 20.988160486423855 -5.4264838656249967 1 0 0 I I #
point $-1 47.259743034150212 20.988160486423855 -5.4264838656249967 #
point $-1 47.259743034150212 -20.988160486423855 -5.4264838656249967 #
straight-curve $-1 -47.259743034150212 0 5.4264838656249967 0 -1 0 I I #
point $-1 -47.259743034150212 20.988160486423855 5.4264838656249967 #
point $-1 -47.259743034150212 -20.988160486423855 5.4264838656249967 #
straight-curve $-1 47.259743034150212 -20.988160486423855 0 0 0 -1 I I #
straight-curve $-1 47.259743034150212 20.988160486423855 0 0 0 -1 I I #
plane-surface $-1 47.259743034150212 0 0 -1 0 0 0 0 1 forward_v I I I I #
coedge $-1 $512 $510 $514 $726 reversed $322 $-1 #
edge $-1 $525 -1.5 $728 1.5 $524 $839 forward 7 unknown #
vertex $-1 $726 $840 #
straight-curve $-1 -47.259743034150212 -2.2289836851501748 0 0 0 -1 I I #
edge $-1 $724 -2.2289836851501748 $728 2.2289836851501748 $722 $841 forward 7 unknown #
straight-curve $-1 0 -2.2289836851501748 -1.5 -1 0 0 I I #
vertex $-1 $517 $842 #
straight-curve $-1 0 2.2289836851501748 -1.5 1 0 0 I I #
point $-1 47.259743034150212 2.2289836851501748 -1.5 #
point $-1 47.259743034150212 -2.2289836851501748 -1.5 #
straight-curve $-1 -47.259743034150212 0 1.5 0 -1 0 I I #
point $-1 -47.259743034150212 2.2289836851501748 1.5 #
point $-1 -47.259743034150212 -2.2289836851501748 1.5 #
straight-curve $-1 47.259743034150212 -2.2289836851501748 0 0 0 -1 I I #
straight-curve $-1 47.259743034150212 2.2289836851501748 0 0 0 -1 I I #
plane-surface $-1 47.259743034150212 0 0 -1 0 0 0 0 1 forward_v I I I I #
coedge $-1 $539 $537 $541 $742 reversed $341 $-1 #
edge $-1 $552 -1.5 $744 1.5 $551 $843 forward 7 unknown #
vertex $-1 $742 $844 #
straight-curve $-1 -47.259743034150212 -2.2289836851501761 0 0 0 -1 I I #
edge $-1 $740 -2.2289836851501761 $744 2.2289836851501761 $738 $845 forward 7 unknown #
straight-curve $-1 0 -2.2289836851501761 -1.5 -1 0 0 I I #
vertex $-1 $544 $846 #
straight-curve $-1 0 2.2289836851501761 -1.5 1 0 0 I I #
point $-1 47.259743034150212 2.2289836851501761 -1.5 #
point $-1 47.259743034150212 -2.2289836851501761 -1.5 #
straight-curve $-1 -47.259743034150212 0 1.5 0 -1 0 I I #
point $-1 -47.259743034150212 2.2289836851501761 1.5 #
point $-1 -47.259743034150212 -2.2289836851501761 1.5 #
straight-curve $-1 47.259743034150212 -2.2289836851501761 0 0 0 -1 I I #
straight-curve $-1 47.259743034150212 2.2289836851501761 0 0 0 -1 I I #
plane-surface $-1 189.03897213660085 0 0 -1 0 0 0 0 1 forward_v I I I I #
coedge $-1 $566 $564 $568 $758 reversed $360 $-1 #
edge $-1 $579 -94.519486068300424 $760 94.519486068300424 $578 $847 forward 7 unknown #
vertex $-1 $758 $848 #
straight-curve $-1 -189.03897213660085 -3.378683919145649 0 0 0 -1 I I #
edge $-1 $756 -3.378683919145649 $760 3.378683919145649 $754 $849 forward 7 unknown #
straight-curve $-1 0 -3.378683919145649 -94.519486068300424 -1 0 0 I I #
vertex $-1 $571 $850 #
straight-curve $-1 0 3.378683919145649 -94.519486068300424 1 0 0 I I #
point $-1 189.03897213660085 3.378683919145649 -94.519486068300424 #
point $-1 189.03897213660085 -3.378683919145649 -94.519486068300424 #
straight-curve $-1 -189.03897213660085 0 94.519486068300424 0 -1 0 I I #
point $-1 -189.03897213660085 3.378683919145649 94.519486068300424 #
point $-1 -189.03897213660085 -3.378683919145649 94.519486068300424 #
straight-curve $-1 189.03897213660085 -3.378683919145649 0 0 0 -1 I I #
straight-curve $-1 189.03897213660085 3.378683919145649 0 0 0 -1 I I #
edge $-1 $851 1 $851 0 $588 $-1 forward 7 unknown #
point $-1 0.5 0 -0.25 #
edge $-1 $852 1 $852 0 $592 $-1 forward 7 unknown #
point $-1 0.5 0 -0.25 #
plane-surface $-1 189.03897213660085 0 0 -1 0 0 0 0 1 forward_v I I I I #
coedge $-1 $601 $599 $603 $778 reversed $389 $-1 #
edge $-1 $614 -94.519486068300424 $780 94.519486068300424 $613 $853 forward 7 unknown #
vertex $-1 $778 $854 #
straight-curve $-1 -189.03897213660085 -3.378683919145649 0 0 0 -1 I I #
edge $-1 $776 -3.378683919145649 $780 3.378683919145649 $774 $855 forward 7 unknown #
straight-curve $-1 0 -3.378683919145649 -94.519486068300424 -1 0 0 I I #
vertex $-1 $606 $856 #
straight-curve $-1 0 3.378683919145649 -94.519486068300424 1 0 0 I I #
point $-1 189.03897213660085 3.378683919145649 -94.519486068300424 #
point $-1 189.03897213660085 -3.378683919145649 -94.519486068300424 #
straight-curve $-1 -189.03897213660085 0 94.519486068300424 0 -1 0 I I #
point $-1 -189.03897213660085 3.378683919145649 94.519486068300424 #
point $-1 -189.03897213660085 -3.378683919145649 94.519486068300424 #
straight-curve $-1 189.03897213660085 -3.378683919145649 0 0 0 -1 I I #
straight-curve $-1 189.03897213660085 3.378683919145649 0 0 0 -1 I I #
edge $-1 $857 1 $857 0 $623 $-1 forward 7 unknown #
point $-1 0.5 0 -0.25 #
edge $-1 $858 1 $858 0 $627 $-1 forward 7 unknown #
point $-1 0.5 0 -0.25 #
plane-surface $-1 189.03897213660085 0 0 -1 0 0 0 0 1 forward_v I I I I #
coedge $-1 $636 $634 $638 $798 reversed $418 $-1 #
edge $-1 $649 -94.519486068300424 $800 94.519486068300424 $648 $859 forward 7 unknown #
vertex $-1 $798 $860 #
straight-curve $-1 -189.03897213660085 -3.378683919145649 0 0 0 -1 I I #
edge $-1 $796 -3.378683919145649 $800 3.378683919145649 $794 $861 forward 7 unknown #
straight-curve $-1 0 -3.378683919145649 -94.519486068300424 -1 0 0 I I #
vertex $-1 $641 $862 #
straight-curve $-1 0 3.378683919145649 -94.519486068300424 1 0 0 I I #
point $-1 189.03897213660085 3.378683919145649 -94.519486068300424 #
point $-1 189.03897213660085 -3.378683919145649 -94.519486068300424 #
straight-curve $-1 -189.03897213660085 0 94.519486068300424 0 -1 0 I I #
point $-1 -189.03897213660085 3.378683919145649 94.519486068300424 #
point $-1 -189.03897213660085 -3.378683919145649 94.519486068300424 #
straight-curve $-1 189.03897213660085 -3.378683919145649 0 0 0 -1 I I #
straight-curve $-1 189.03897213660085 3.378683919145649 0 0 0 -1 I I #
edge $-1 $863 1 $863 0 $658 $-1 forward 7 unknown #
point $-1 0.5 0 -0.25 #
edge $-1 $864 1 $864 0 $662 $-1 forward 7 unknown #
point $-1 0.5 0 -0.25 #
plane-surface $-1 189.03897213660085 0 0 -1 0 0 0 0 1 forward_v I I I I #
coedge $-1 $671 $669 $673 $818 reversed $447 $-1 #
edge $-1 $684 -94.519486068300424 $820 94.519486068300424 $683 $865 forward 7 unknown #
vertex $-1 $818 $866 #
straight-curve $-1 -189.03897213660085 -3.2887737609565395 0 0 0 -1 I I #
edge $-1 $816 -3.2887737609565395 $820 3.2887737609565395 $814 $867 forward 7 unknown #
straight-curve $-1 0 -3.2887737609565395 -94.519486068300424 -1 0 0 I I #
vertex $-1 $676 $868 #
straight-curve $-1 0 3.2887737609565395 -94.519486068300424 1 0 0 I I #
point $-1 189.03897213660085 3.2887737609565395 -94.519486068300424 #
point $-1 189.03897213660085 -3.2887737609565395 -94.519486068300424 #
straight-curve $-1 -189.03897213660085 0 94.519486068300424 0 -1 0 I I #
point $-1 -189.03897213660085 3.2887737609565395 94.519486068300424 #
point $-1 -189.03897213660085 -3.2887737609565395 94.519486068300424 #
straight-curve $-1 189.03897213660085 -3.2887737609565395 0 0 0 -1 I I #
straight-curve $-1 189.03897213660085 3.2887737609565395 0 0 0 -1 I I #
edge $-1 $869 1 $869 0 $693 $-1 forward 7 unknown #
point $-1 0.5 0 -0.25 #
edge $-1 $870 1 $870 0 $697 $-1 forward 7 unknown #
point $-1 0.5 0 -0.25 #
edge $-1 $871 1 $871 0 $701 $-1 forward 7 unknown #
point $-1 0.5 0 -0.25 #
straight-curve $-1 -47.259743034150212 20.988160486423855 0 0 0 -1 I I #
point $-1 -47.259743034150212 -20.988160486423855 -5.4264838656249967 #
straight-curve $-1 -47.259743034150212 0 -5.4264838656249967 0 1 0 I I #
point $-1 -47.259743034150212 20.988160486423855 -5.4264838656249967 #
straight-curve $-1 -47.259743034150212 2.2289836851501748 0 0 0 -1 I I #
point $-1 -47.259743034150212 -2.2289836851501748 -1.5 #
straight-curve $-1 -47.259743034150212 0 -1.5 0 1 0 I I #
point $-1 -47.259743034150212 2.2289836851501748 -1.5 #
straight-curve $-1 -47.259743034150212 2.2289836851501761 0 0 0 -1 I I #
point $-1 -47.259743034150212 -2.2289836851501761 -1.5 #
straight-curve $-1 -47.259743034150212 0 -1.5 0 1 0 I I #
point $-1 -47.259743034150212 2.2289836851501761 -1.5 #
straight-curve $-1 -189.03897213660085 3.378683919145649 0 0 0 -1 I I #
point $-1 -189.03897213660085 -3.378683919145649 -94.519486068300424 #
straight-curve $-1 -189.03897213660085 0 -94.519486068300424 0 1 0 I I #
point $-1 -189.03897213660085 3.378683919145649 -94.519486068300424 #
vertex $-1 $769 $872 #
vertex $-1 $771 $873 #
straight-curve $-1 -189.03897213660085 3.378683919145649 0 0 0 -1 I I #
point $-1 -189.03897213660085 -3.378683919145649 -94.519486068300424 #
straight-curve $-1 -189.03897213660085 0 -94.519486068300424 0 1 0 I I #
point $-1 -189.03897213660085 3.378683919145649 -94.519486068300424 #
vertex $-1 $789 $874 #
vertex $-1 $791 $875 #
straight-curve $-1 -189.03897213660085 3.378683919145649 0 0 0 -1 I I #
point $-1 -189.03897213660085 -3.378683919145649 -94.519486068300424 #
straight-curve $-1 -189.03897213660085 0 -94.519486068300424 0 1 0 I I #
point $-1 -189.03897213660085 3.378683919145649 -94.519486068300424 #
vertex $-1 $809 $876 #
vertex $-1 $811 $877 #
straight-curve $-1 -189.03897213660085 3.2887737609565395 0 0 0 -1 I I #
point $-1 -189.03897213660085 -3.2887737609565395 -94.519486068300424 #
straight-curve $-1 -189.03897213660085 0 -94.519486068300424 0 1 0 I I #
point $-1 -189.03897213660085 3.2887737609565395 -94.519486068300424 #
vertex $-1 $829 $878 #
vertex $-1 $831 $879 #
vertex $-1 $833 $880 #
point $-1 0 0 0.25 #
point $-1 0 0 0.25 #
point $-1 0 0 0.25 #
point $-1 0 0 0.25 #
point $-1 0 0 0.25 #
point $-1 0 0 0.25 #
point $-1 0 0 0.25 #
point $-1 0 0 0.25 #
point $-1 0 0 0.25 #
End-of-ACIS-data 