500 0 9 0           
7 Unknown 11 ACIS 5.0 NT 24 Thu Mar 25 15:32:03 1999 
-1 9.9999999999999995e-007 1e-010 
body $-1 $9 $-1 $10 #
body $-1 $11 $-1 $12 #
body $-1 $13 $-1 $14 #
body $-1 $15 $-1 $16 #
body $-1 $17 $-1 $18 #
body $-1 $19 $-1 $20 #
body $-1 $21 $-1 $22 #
body $-1 $23 $-1 $24 #
body $-1 $25 $-1 $26 #
lump $-1 $-1 $27 $0 #
transform $-1 1 0 0 0 1 0 0 0 1 52.706686605426192 32.601354496336462 13.159736179120573 1 rotate no_reflect no_shear #
lump $-1 $-1 $28 $1 #
transform $-1 1 0 0 0 1 0 0 0 1 52.706686605426192 32.601354496336462 13.159736179120573 1 rotate no_reflect no_shear #
lump $-1 $-1 $29 $2 #
transform $-1 1 0 0 0 1 0 0 0 1 52.706686605426192 32.601354496336462 13.159736179120573 1 rotate no_reflect no_shear #
lump $-1 $-1 $30 $3 #
transform $-1 1 0 0 0 1 0 0 0 1 52.706686605426192 32.601354496336462 13.159736179120573 1 rotate no_reflect no_shear #
lump $-1 $-1 $31 $4 #
transform $-1 1 0 0 0 1 0 0 0 1 52.706686605426192 32.601354496336462 13.159736179120573 1 rotate no_reflect no_shear #
lump $-1 $-1 $32 $5 #
transform $-1 1 0 0 0 1 0 0 0 1 52.706686605426192 32.601354496336462 13.159736179120573 1 rotate no_reflect no_shear #
lump $-1 $-1 $33 $6 #
transform $-1 1 0 0 0 1 0 0 0 1 52.706686605426192 32.601354496336462 13.159736179120573 1 rotate no_reflect no_shear #
lump $-1 $-1 $34 $7 #
transform $-1 1 0 0 0 1 0 0 0 1 52.706686605426192 32.601354496336462 13.159736179120573 1 rotate no_reflect no_shear #
lump $-1 $-1 $35 $8 #
transform $-1 1 0 0 0 1 0 0 0 1 52.706686605426192 32.601354496336462 13.159736179120573 1 rotate no_reflect no_shear #
shell $-1 $-1 $-1 $36 $-1 $9 #
shell $-1 $-1 $-1 $37 $-1 $11 #
shell $-1 $-1 $-1 $38 $-1 $13 #
shell $-1 $-1 $-1 $39 $-1 $15 #
shell $-1 $-1 $-1 $40 $-1 $17 #
shell $-1 $-1 $-1 $41 $-1 $19 #
shell $-1 $-1 $-1 $42 $-1 $21 #
shell $-1 $-1 $-1 $43 $-1 $23 #
shell $-1 $-1 $-1 $44 $-1 $25 #
face $-1 $45 $46 $27 $-1 $47 forward single #
face $-1 $48 $49 $28 $-1 $50 forward single #
face $-1 $51 $52 $29 $-1 $53 forward single #
face $-1 $54 $55 $30 $-1 $56 reversed single #
face $-1 $57 $58 $31 $-1 $59 forward single #
face $-1 $60 $61 $32 $-1 $62 forward single #
face $-1 $63 $64 $33 $-1 $65 reversed single #
face $-1 $66 $67 $34 $-1 $68 forward single #
face $-1 $69 $70 $35 $-1 $71 forward single #
face $-1 $72 $73 $27 $-1 $74 reversed single #
loop $-1 $-1 $75 $36 #
plane-surface $-1 0 0 13.159736179120573 0 0 1 1 0 0 forward_v I I I I #
face $-1 $76 $77 $28 $-1 $78 reversed single #
loop $-1 $-1 $79 $37 #
plane-surface $-1 0 -26.393767941509218 -8.904619603975382 0 0 1 1 0 0 forward_v I I I I #
face $-1 $80 $81 $29 $-1 $82 reversed single #
loop $-1 $-1 $83 $38 #
plane-surface $-1 0 24.595558488161593 10.887211746594867 0 0 1 1 0 0 forward_v I I I I #
face $-1 $84 $85 $30 $-1 $86 reversed single #
loop $-1 $-1 $87 $39 #
plane-surface $-1 16.641691996826857 -3.5418586482713064 152.9029050588808 0 -1 0 -0.51503808176128008 0 -0.85716729658548041 forward_v I I I I #
face $-1 $88 $89 $31 $-1 $90 forward single #
loop $-1 $91 $92 $40 #
cone-surface $-1 47.76932247720999 -11.392577114677401 9.2836374349248771 -0.51503808176128008 0 -0.85716729658548041 1.2857509448782207 0 -0.77255712264192011 1 I I 0 1 1.5 forward I I I I #
face $-1 $93 $94 $32 $-1 $95 forward single #
loop $-1 $96 $97 $41 #
cone-surface $-1 47.76932247720999 -6.682146034833746 9.2836374349248771 -0.51503808176128008 0 -0.85716729658548041 1.2857509448782207 0 -0.77255712264192011 1 I I 0 1 1.5 forward I I I I #
face $-1 $98 $99 $33 $-1 $100 reversed single #
loop $-1 $-1 $101 $42 #
plane-surface $-1 -106.99858813592951 -14.532864501239837 98.611003528377481 0 1 0 -0.51503808176128008 0 0.85716729658548041 forward_v I I I I #
face $-1 $102 $103 $34 $-1 $104 forward single #
loop $-1 $105 $106 $43 #
cone-surface $-1 -47.769322477209997 -11.392577114677401 9.2836374349248771 0.51503808176128008 0 -0.85716729658548041 1.2857509448782207 0 0.77255712264192011 1 I I 0 1 1.5 forward I I I I #
face $-1 $107 $108 $35 $-1 $109 forward single #
loop $-1 $110 $111 $44 #
cone-surface $-1 -47.769322477209997 -6.682146034833746 9.2836374349248771 0.51503808176128008 0 -0.85716729658548041 1.2857509448782207 0 0.77255712264192011 1 I I 0 1 1.5 forward I I I I #
face $-1 $112 $113 $27 $-1 $114 reversed single #
loop $-1 $-1 $115 $45 #
plane-surface $-1 0 0 -13.159736179120573 0 0 1 1 0 0 forward_v I I I I #
coedge $-1 $116 $117 $118 $119 forward $46 $-1 #
face $-1 $120 $121 $28 $-1 $122 reversed single #
loop $-1 $-1 $123 $48 #
plane-surface $-1 0 -20.186181386681973 -11.032177891547978 0 -1 0 0 0 -1 forward_v I I I I #
coedge $-1 $124 $125 $126 $127 reversed $49 $-1 #
face $-1 $128 $129 $29 $-1 $130 reversed single #
loop $-1 $-1 $131 $51 #
plane-surface $-1 0 24.595558488161593 3.7248806491126292 0 0 1 1 0 0 forward_v I I I I #
coedge $-1 $132 $133 $134 $135 reversed $52 $-1 #
face $-1 $136 $137 $30 $-1 $138 reversed single #
loop $-1 $-1 $139 $54 #
plane-surface $-1 -37.650209533676467 -9.0373615747555718 62.54600891977816 0.51503808176128008 0 0.85716729658548041 0.85716729658548041 0 -0.51503808176128008 forward_v I I I I #
coedge $-1 $140 $141 $142 $143 reversed $55 $-1 #
face $-1 $-1 $144 $31 $-1 $145 forward single #
loop $-1 $146 $147 $57 #
cone-surface $-1 46.527848385249435 -11.392577114677401 7.2174776132129406 -0.51503808176128008 0 -0.85716729658548041 0.64287547243911036 0 -0.38627856132096006 1 I I -0.70710678118654835 0.70710678118654668 0.75 forward I I I I #
loop $-1 $-1 $148 $40 #
coedge $-1 $92 $92 $149 $150 reversed $58 $-1 #
face $-1 $-1 $151 $32 $-1 $152 forward single #
loop $-1 $153 $154 $60 #
cone-surface $-1 46.527848385249435 -6.682146034833746 7.2174776132129406 -0.51503808176128008 0 -0.85716729658548041 0.64287547243911036 0 -0.38627856132096006 1 I I -0.70710678118654835 0.70710678118654668 0.75 forward I I I I #
loop $-1 $-1 $155 $41 #
coedge $-1 $97 $97 $156 $157 reversed $61 $-1 #
face $-1 $158 $159 $33 $-1 $160 reversed single #
loop $-1 $-1 $161 $63 #
plane-surface $-1 -52.706686605426185 -9.0373615747555718 8.2541073892748358 -0.51503808176128008 0 0.85716729658548041 0.85716729658548041 0 0.51503808176128008 forward_v I I I I #
coedge $-1 $162 $163 $164 $165 reversed $64 $-1 #
face $-1 $-1 $166 $34 $-1 $167 forward single #
loop $-1 $168 $169 $66 #
cone-surface $-1 -46.527848385249442 -11.392577114677401 7.2174776132129406 0.51503808176128008 0 -0.85716729658548041 0.64287547243911036 0 0.38627856132096006 1 I I -0.70710678118654835 0.70710678118654668 0.75 forward I I I I #
loop $-1 $-1 $170 $43 #
coedge $-1 $106 $106 $171 $172 reversed $67 $-1 #
face $-1 $-1 $173 $35 $-1 $174 forward single #
loop $-1 $175 $176 $69 #
cone-surface $-1 -46.527848385249442 -6.682146034833746 7.2174776132129406 0.51503808176128008 0 -0.85716729658548041 0.64287547243911036 0 0.38627856132096006 1 I I -0.70710678118654835 0.70710678118654668 0.75 forward I I I I #
loop $-1 $-1 $177 $44 #
coedge $-1 $111 $111 $178 $179 reversed $70 $-1 #
face $-1 $180 $181 $27 $-1 $182 reversed single #
loop $-1 $-1 $183 $72 #
plane-surface $-1 0 -32.601354496336462 0 0 1 0 0 0 1 forward_v I I I I #
coedge $-1 $184 $185 $186 $187 forward $73 $-1 #
coedge $-1 $188 $75 $189 $190 forward $46 $-1 #
coedge $-1 $75 $188 $191 $192 forward $46 $-1 #
coedge $-1 $193 $194 $75 $119 reversed $195 $-1 #
edge $-1 $196 -32.601354496336462 $197 32.601354496336462 $118 $198 forward 7 unknown #
face $-1 $199 $200 $28 $-1 $201 reversed single #
loop $-1 $-1 $202 $76 #
plane-surface $-1 0 0 -13.159736179120573 0 0 1 1 0 0 forward_v I I I I #
coedge $-1 $203 $204 $205 $206 reversed $77 $-1 #
coedge $-1 $207 $79 $204 $208 forward $49 $-1 #
coedge $-1 $79 $207 $209 $210 reversed $49 $-1 #
coedge $-1 $211 $205 $79 $127 forward $200 $-1 #
edge $-1 $212 6.9892974159273642 $213 19.404470525581853 $126 $214 forward 7 unknown #
face $-1 $215 $216 $29 $-1 $217 reversed single #
loop $-1 $-1 $218 $80 #
plane-surface $-1 0 16.589762479986724 7.3060461978537479 0 1 0 0 0 1 forward_v I I I I #
coedge $-1 $219 $220 $221 $222 reversed $81 $-1 #
coedge $-1 $223 $83 $224 $225 reversed $52 $-1 #
coedge $-1 $83 $223 $226 $227 forward $52 $-1 #
coedge $-1 $228 $229 $83 $135 forward $216 $-1 #
edge $-1 $230 -20.303575252255666 $231 -4.2919832359059278 $134 $232 forward 7 unknown #
face $-1 $233 $234 $30 $-1 $235 forward single #
loop $-1 $-1 $236 $84 #
plane-surface $-1 16.641691996826857 -14.532864501239837 152.9029050588808 0 1 0 0.51503808176128008 0 0.85716729658548041 forward_v I I I I #
coedge $-1 $237 $238 $239 $240 reversed $85 $-1 #
coedge $-1 $141 $87 $241 $242 reversed $55 $-1 #
coedge $-1 $87 $140 $237 $243 reversed $55 $-1 #
coedge $-1 $239 $244 $87 $143 forward $234 $-1 #
edge $-1 $245 -44.385840607012767 $246 -36.221503411859558 $142 $247 forward 7 unknown #
loop $-1 $-1 $149 $88 #
plane-surface $-1 -37.650209533676467 -9.0373615747555718 62.54600891977816 0.51503808176128008 0 0.85716729658548041 0.85716729658548041 0 -0.51503808176128008 forward_v I I I I #
loop $-1 $-1 $248 $57 #
coedge $-1 $147 $147 $148 $249 reversed $89 $-1 #
coedge $-1 $148 $148 $147 $249 forward $91 $-1 #
coedge $-1 $149 $149 $92 $150 forward $144 $-1 #
edge $-1 $250 0 $250 6.2831853071796004 $149 $251 forward 7 unknown #
loop $-1 $-1 $156 $93 #
plane-surface $-1 -37.650209533676467 -9.0373615747555718 62.54600891977816 0.51503808176128008 0 0.85716729658548041 0.85716729658548041 0 -0.51503808176128008 forward_v I I I I #
loop $-1 $-1 $252 $60 #
coedge $-1 $154 $154 $155 $253 reversed $94 $-1 #
coedge $-1 $155 $155 $154 $253 forward $96 $-1 #
coedge $-1 $156 $156 $97 $157 forward $151 $-1 #
edge $-1 $254 0 $254 6.2831853071796004 $156 $255 forward 7 unknown #
face $-1 $256 $257 $33 $-1 $258 reversed single #
loop $-1 $-1 $259 $98 #
plane-surface $-1 -106.99858813592951 -3.5418586482713064 98.611003528377481 0 -1 0 0.51503808176128008 0 -0.85716729658548041 forward_v I I I I #
coedge $-1 $260 $261 $262 $263 reversed $99 $-1 #
coedge $-1 $163 $101 $264 $265 reversed $64 $-1 #
coedge $-1 $101 $162 $260 $266 reversed $64 $-1 #
coedge $-1 $262 $267 $101 $165 forward $268 $-1 #
edge $-1 $269 0.7926074625385624 $270 8.9569446576917642 $164 $271 forward 7 unknown #
loop $-1 $-1 $171 $102 #
plane-surface $-1 -52.706686605426185 -9.0373615747555718 8.2541073892748358 -0.51503808176128008 0 0.85716729658548041 0.85716729658548041 0 0.51503808176128008 forward_v I I I I #
loop $-1 $-1 $272 $66 #
coedge $-1 $169 $169 $170 $273 reversed $103 $-1 #
coedge $-1 $170 $170 $169 $273 forward $105 $-1 #
coedge $-1 $171 $171 $106 $172 forward $166 $-1 #
edge $-1 $274 0 $274 6.2831853071796004 $171 $275 forward 7 unknown #
loop $-1 $-1 $178 $107 #
plane-surface $-1 -52.706686605426185 -9.0373615747555718 8.2541073892748358 -0.51503808176128008 0 0.85716729658548041 0.85716729658548041 0 0.51503808176128008 forward_v I I I I #
loop $-1 $-1 $276 $69 #
coedge $-1 $176 $176 $177 $277 reversed $108 $-1 #
coedge $-1 $177 $177 $176 $277 forward $110 $-1 #
coedge $-1 $178 $178 $111 $179 forward $173 $-1 #
edge $-1 $278 0 $278 6.2831853071796004 $178 $279 forward 7 unknown #
face $-1 $280 $281 $27 $-1 $282 reversed single #
loop $-1 $-1 $283 $112 #
plane-surface $-1 -52.706686605426192 0 0 1 0 0 0 0 -1 forward_v I I I I #
coedge $-1 $284 $191 $285 $286 forward $113 $-1 #
coedge $-1 $287 $115 $284 $288 forward $73 $-1 #
coedge $-1 $115 $287 $289 $290 forward $73 $-1 #
coedge $-1 $194 $193 $115 $187 reversed $195 $-1 #
edge $-1 $291 -32.601354496336462 $292 32.601354496336462 $186 $293 forward 7 unknown #
coedge $-1 $117 $116 $294 $295 forward $46 $-1 #
coedge $-1 $296 $297 $116 $190 reversed $281 $-1 #
edge $-1 $197 -52.706686605426192 $298 52.706686605426192 $189 $299 forward 7 unknown #
coedge $-1 $183 $300 $117 $192 reversed $113 $-1 #
edge $-1 $301 -52.706686605426192 $196 52.706686605426192 $191 $302 forward 7 unknown #
coedge $-1 $186 $118 $300 $303 forward $195 $-1 #
coedge $-1 $118 $186 $296 $304 reversed $195 $-1 #
loop $-1 $-1 $193 $280 #
vertex $-1 $119 $305 #
vertex $-1 $119 $306 #
straight-curve $-1 52.706686605426192 0 13.159736179120573 0 1 0 I I #
face $-1 $307 $308 $28 $-1 $309 reversed single #
loop $-1 $-1 $205 $120 #
plane-surface $-1 52.706686605426192 0 0 -1 0 0 0 0 1 forward_v I I I I #
coedge $-1 $310 $311 $203 $312 forward $121 $-1 #
coedge $-1 $313 $123 $202 $312 reversed $77 $-1 #
coedge $-1 $123 $313 $124 $208 reversed $77 $-1 #
coedge $-1 $126 $314 $123 $206 forward $200 $-1 #
edge $-1 $315 -7.6436472333465844 $212 -3.3885306582013932 $205 $316 forward 7 unknown #
coedge $-1 $125 $124 $317 $318 reversed $49 $-1 #
edge $-1 $212 -52.706686605426192 $319 52.706686605426192 $204 $320 forward 7 unknown #
coedge $-1 $321 $322 $125 $210 forward $308 $-1 #
edge $-1 $213 -52.706686605426192 $323 52.706686605426192 $209 $324 forward 7 unknown #
coedge $-1 $314 $126 $322 $325 forward $200 $-1 #
vertex $-1 $127 $326 #
vertex $-1 $325 $327 #
straight-curve $-1 52.706686605426192 -13.196883970754609 -8.904619603975382 0 -1 0 I I #
face $-1 $328 $329 $29 $-1 $330 reversed single #
loop $-1 $-1 $134 $128 #
plane-surface $-1 52.706686605426192 0 0 -1 0 0 0 0 1 forward_v I I I I #
coedge $-1 $331 $226 $332 $333 reversed $129 $-1 #
coedge $-1 $334 $131 $331 $335 forward $81 $-1 #
coedge $-1 $131 $334 $336 $337 reversed $81 $-1 #
coedge $-1 $229 $228 $131 $222 forward $216 $-1 #
edge $-1 $338 4.2919832359059278 $339 20.303575252255666 $221 $340 forward 7 unknown #
coedge $-1 $133 $132 $341 $342 reversed $52 $-1 #
coedge $-1 $343 $344 $132 $225 forward $345 $-1 #
edge $-1 $346 -52.706686605426192 $230 52.706686605426192 $224 $347 forward 7 unknown #
coedge $-1 $218 $348 $133 $227 reversed $129 $-1 #
edge $-1 $349 -52.706686605426192 $231 52.706686605426192 $226 $350 forward 7 unknown #
coedge $-1 $221 $134 $348 $351 forward $216 $-1 #
coedge $-1 $134 $221 $343 $352 reversed $216 $-1 #
vertex $-1 $352 $353 #
vertex $-1 $135 $354 #
straight-curve $-1 52.706686605426192 12.297779244080797 10.887211746594867 0 -1 0 I I #
face $-1 $-1 $355 $30 $-1 $356 reversed single #
loop $-1 $-1 $142 $136 #
plane-surface $-1 0 0 13.159736179120573 0 0 1 1 0 0 forward_v I I I I #
coedge $-1 $357 $358 $359 $360 reversed $137 $-1 #
coedge $-1 $361 $139 $141 $243 forward $85 $-1 #
coedge $-1 $139 $361 $357 $362 forward $85 $-1 #
coedge $-1 $359 $142 $139 $240 forward $234 $-1 #
edge $-1 $246 -0.97682213910647953 $363 10.014183713862051 $239 $364 forward 7 unknown #
coedge $-1 $365 $366 $140 $242 forward $355 $-1 #
edge $-1 $367 -68.197345140165567 $245 -63.291716350319831 $241 $368 forward 7 unknown #
edge $-1 $246 95.888584727115585 $367 105.4133732108524 $141 $369 forward 7 unknown #
coedge $-1 $142 $359 $365 $370 forward $234 $-1 #
vertex $-1 $242 $371 #
vertex $-1 $143 $372 #
straight-curve $-1 8.3208459984134286 -3.5418586482713064 13.159736179120571 -1 0 0 I I #
coedge $-1 $248 $248 $-1 $373 reversed $146 $-1 #
edge $-1 $374 0 $374 6.2831853071796004 $147 $375 forward 7 unknown #
vertex $-1 $150 $376 #
ellipse-curve $-1 48.624518007849581 -11.392577114677401 10.706921784197696 0.51503808176128008 0 0.85716729658548041 1.2857509448782207 0 -0.77255712264192011 1 I I #
coedge $-1 $252 $252 $-1 $377 reversed $153 $-1 #
edge $-1 $378 0 $378 6.2831853071796004 $154 $379 forward 7 unknown #
vertex $-1 $157 $380 #
ellipse-curve $-1 48.624518007849581 -6.682146034833746 10.706921784197696 0.51503808176128008 0 0.85716729658548041 1.2857509448782207 0 -0.77255712264192011 1 I I #
face $-1 $-1 $268 $33 $-1 $381 forward single #
loop $-1 $-1 $382 $158 #
plane-surface $-1 -52.706686605426192 0 0 1 0 0 0 0 -1 forward_v I I I I #
coedge $-1 $383 $384 $385 $386 reversed $159 $-1 #
coedge $-1 $387 $161 $163 $266 forward $99 $-1 #
coedge $-1 $161 $387 $383 $388 forward $99 $-1 #
coedge $-1 $385 $164 $161 $263 forward $268 $-1 #
edge $-1 $270 -10.014183713862051 $389 0.97682213910647953 $262 $390 forward 7 unknown #
coedge $-1 $391 $392 $162 $265 forward $257 $-1 #
edge $-1 $393 -41.051394374913912 $269 -36.145765585068169 $264 $394 forward 7 unknown #
edge $-1 $270 -9.5247884837368062 $393 7.9203227973758348e-015 $163 $395 forward 7 unknown #
coedge $-1 $164 $385 $391 $396 forward $268 $-1 #
loop $-1 $-1 $385 $256 #
vertex $-1 $265 $397 #
vertex $-1 $165 $398 #
straight-curve $-1 -53.499294067964755 -14.532864501239837 13.159736179120571 1 0 0 I I #
coedge $-1 $272 $272 $-1 $399 reversed $168 $-1 #
edge $-1 $400 0 $400 6.2831853071796004 $169 $401 forward 7 unknown #
vertex $-1 $172 $402 #
ellipse-curve $-1 -48.624518007849595 -11.392577114677401 10.706921784197702 -0.51503808176128008 0 0.85716729658548041 1.2857509448782207 0 0.77255712264192011 1 I I #
coedge $-1 $276 $276 $-1 $403 reversed $175 $-1 #
edge $-1 $404 0 $404 6.2831853071796004 $176 $405 forward 7 unknown #
vertex $-1 $179 $406 #
ellipse-curve $-1 -48.624518007849595 -6.682146034833746 10.706921784197702 -0.51503808176128008 0 0.85716729658548041 1.2857509448782207 0 0.77255712264192011 1 I I #
face $-1 $-1 $195 $27 $-1 $407 reversed single #
loop $-1 $-1 $296 $180 #
plane-surface $-1 0 32.601354496336462 0 0 -1 0 0 0 -1 forward_v I I I I #
coedge $-1 $408 $294 $297 $409 forward $181 $-1 #
coedge $-1 $300 $183 $184 $288 reversed $113 $-1 #
coedge $-1 $294 $408 $183 $286 reversed $181 $-1 #
edge $-1 $301 -13.159736179120573 $410 13.159736179120573 $285 $411 forward 7 unknown #
coedge $-1 $185 $184 $408 $412 forward $73 $-1 #
edge $-1 $292 -52.706686605426192 $410 52.706686605426192 $284 $413 forward 7 unknown #
coedge $-1 $297 $296 $185 $290 reversed $281 $-1 #
edge $-1 $414 -52.706686605426192 $291 52.706686605426192 $289 $415 forward 7 unknown #
vertex $-1 $187 $416 #
vertex $-1 $303 $417 #
straight-curve $-1 52.706686605426192 0 -13.159736179120573 0 -1 0 I I #
coedge $-1 $283 $285 $188 $295 reversed $181 $-1 #
edge $-1 $298 -32.601354496336462 $301 32.601354496336462 $294 $418 forward 7 unknown #
coedge $-1 $289 $189 $194 $304 forward $281 $-1 #
coedge $-1 $189 $289 $283 $409 reversed $281 $-1 #
vertex $-1 $190 $419 #
straight-curve $-1 0 32.601354496336462 13.159736179120573 -1 0 0 I I #
coedge $-1 $191 $284 $193 $303 reversed $113 $-1 #
vertex $-1 $295 $420 #
straight-curve $-1 0 -32.601354496336462 13.159736179120573 1 0 0 I I #
edge $-1 $196 -13.159736179120573 $292 13.159736179120573 $193 $421 forward 7 unknown #
edge $-1 $197 -13.159736179120573 $291 13.159736179120573 $194 $422 forward 7 unknown #
point $-1 52.706686605426192 -32.601354496336462 13.159736179120573 #
point $-1 52.706686605426192 32.601354496336462 13.159736179120573 #
face $-1 $-1 $423 $28 $-1 $424 reversed single #
loop $-1 $-1 $209 $199 #
plane-surface $-1 0 -32.601354496336462 0 0 1 0 0 0 1 forward_v I I I I #
coedge $-1 $425 $202 $314 $426 forward $121 $-1 #
coedge $-1 $202 $425 $427 $428 forward $121 $-1 #
edge $-1 $429 -52.706686605426192 $315 52.706686605426192 $202 $430 forward 7 unknown #
coedge $-1 $204 $203 $431 $432 reversed $77 $-1 #
coedge $-1 $205 $211 $310 $426 reversed $200 $-1 #
vertex $-1 $426 $433 #
straight-curve $-1 52.706686605426192 -20.186181386681973 -5.5160889457739888 0 0 1 I I #
coedge $-1 $431 $434 $207 $318 forward $423 $-1 #
edge $-1 $323 -19.404470525581853 $319 -6.9892974159273642 $317 $435 forward 7 unknown #
vertex $-1 $318 $436 #
straight-curve $-1 0 -20.186181386681973 -8.904619603975382 -1 0 0 I I #
coedge $-1 $437 $209 $434 $438 forward $308 $-1 #
coedge $-1 $209 $437 $211 $325 reversed $308 $-1 #
vertex $-1 $438 $439 #
straight-curve $-1 0 -32.601354496336462 -8.904619603975382 -1 0 0 I I #
edge $-1 $213 8.904619603975382 $440 13.159736179120573 $211 $441 forward 7 unknown #
point $-1 52.706686605426192 -20.186181386681973 -8.904619603975382 #
point $-1 52.706686605426192 -32.601354496336462 -8.904619603975382 #
face $-1 $-1 $345 $29 $-1 $442 reversed single #
loop $-1 $-1 $341 $215 #
plane-surface $-1 -52.706686605426192 0 0 1 0 0 0 0 -1 forward_v I I I I #
coedge $-1 $348 $218 $219 $335 reversed $129 $-1 #
coedge $-1 $341 $443 $218 $333 forward $329 $-1 #
edge $-1 $444 0.071857550185755237 $349 7.2341886476679926 $332 $445 forward 7 unknown #
coedge $-1 $220 $219 $443 $446 reversed $81 $-1 #
edge $-1 $338 -52.706686605426192 $444 52.706686605426192 $331 $447 forward 7 unknown #
coedge $-1 $344 $343 $220 $337 forward $345 $-1 #
edge $-1 $339 -52.706686605426192 $448 52.706686605426192 $336 $449 forward 7 unknown #
vertex $-1 $222 $450 #
vertex $-1 $337 $451 #
straight-curve $-1 52.706686605426192 12.297779244080797 3.7248806491126292 0 1 0 I I #
coedge $-1 $452 $332 $223 $342 forward $329 $-1 #
edge $-1 $349 4.2919832359059278 $346 20.303575252255666 $341 $453 forward 7 unknown #
coedge $-1 $336 $224 $229 $352 forward $345 $-1 #
coedge $-1 $224 $336 $452 $454 reversed $345 $-1 #
loop $-1 $-1 $224 $328 #
vertex $-1 $454 $455 #
straight-curve $-1 0 32.601354496336462 10.887211746594867 1 0 0 I I #
coedge $-1 $226 $331 $228 $351 reversed $129 $-1 #
vertex $-1 $342 $456 #
straight-curve $-1 0 16.589762479986724 10.887211746594867 1 0 0 I I #
edge $-1 $231 -7.2341886476679926 $338 -0.071857550185755237 $228 $457 forward 7 unknown #
edge $-1 $230 -10.887211746594867 $339 -3.7248806491126292 $229 $458 forward 7 unknown #
point $-1 52.706686605426192 32.601354496336462 10.887211746594867 #
point $-1 52.706686605426192 16.589762479986724 10.887211746594867 #
loop $-1 $-1 $241 $233 #
plane-surface $-1 52.706686605426192 0 0 -1 0 0 0 0 1 forward_v I I I I #
coedge $-1 $358 $236 $238 $362 reversed $137 $-1 #
coedge $-1 $236 $357 $459 $460 reversed $137 $-1 #
coedge $-1 $244 $239 $236 $360 forward $234 $-1 #
edge $-1 $363 36.221503411859558 $461 44.385840607012767 $359 $462 forward 7 unknown #
coedge $-1 $238 $237 $366 $463 reversed $85 $-1 #
edge $-1 $464 -105.4133732108524 $363 -95.888584727115585 $357 $465 forward 7 unknown #
vertex $-1 $240 $466 #
straight-curve $-1 44.54234941027299 -4.5186807873777859 13.159736179120564 0 -1 0 I I #
coedge $-1 $459 $241 $244 $370 reversed $355 $-1 #
coedge $-1 $241 $459 $361 $463 forward $355 $-1 #
vertex $-1 $242 $467 #
straight-curve $-1 52.706686605426192 -3.5418586482713064 76.451452529440402 0 0 1 I I #
straight-curve $-1 -37.650209533676467 -3.5418586482713064 62.54600891977816 0.85716729658548041 0 -0.51503808176128008 I I #
edge $-1 $461 -14.532864501239837 $245 -3.5418586482713064 $365 $468 forward 7 unknown #
point $-1 52.706686605426192 -3.5418586482713064 13.159736179120573 #
point $-1 44.542349410272983 -3.5418586482713064 13.159736179120571 #
edge $-1 $469 1 $469 0 $248 $-1 forward 7 unknown #
vertex $-1 $249 $470 #
ellipse-curve $-1 46.914126946570391 -11.392577114677401 7.8603530856520489 0.51503808176128008 0 0.85716729658548041 1.2857509448782207 0 -0.77255712264192011 1 I I #
point $-1 49.910268952727812 -11.392577114677401 9.9343646615557866 #
edge $-1 $471 1 $471 0 $252 $-1 forward 7 unknown #
vertex $-1 $253 $472 #
ellipse-curve $-1 46.914126946570391 -6.682146034833746 7.8603530856520489 0.51503808176128008 0 0.85716729658548041 1.2857509448782207 0 -0.77255712264192011 1 I I #
point $-1 49.910268952727812 -6.682146034833746 9.9343646615557866 #
plane-surface $-1 0 0 13.159736179120573 0 0 1 1 0 0 forward_v I I I I #
coedge $-1 $392 $391 $384 $473 forward $257 $-1 #
coedge $-1 $384 $259 $261 $388 reversed $159 $-1 #
coedge $-1 $259 $383 $382 $473 reversed $159 $-1 #
coedge $-1 $267 $262 $259 $386 forward $268 $-1 #
edge $-1 $389 -8.9569446576917642 $474 -0.7926074625385624 $385 $475 forward 7 unknown #
coedge $-1 $261 $260 $392 $476 reversed $99 $-1 #
edge $-1 $477 -7.9203227973758348e-015 $389 9.5247884837368062 $383 $478 forward 7 unknown #
vertex $-1 $263 $479 #
straight-curve $-1 -44.54234941027299 -4.5186807873777859 13.159736179120573 0 1 0 I I #
coedge $-1 $382 $264 $267 $396 reversed $257 $-1 #
coedge $-1 $264 $382 $387 $476 forward $257 $-1 #
vertex $-1 $265 $480 #
straight-curve $-1 -52.706686605426192 -14.532864501239837 49.30550176418874 0 0 1 I I #
straight-curve $-1 -52.706686605426185 -14.532864501239837 8.2541073892748358 -0.85716729658548041 0 -0.51503808176128008 I I #
edge $-1 $474 3.5418586482713064 $269 14.532864501239837 $391 $481 forward 7 unknown #
point $-1 -52.706686605426192 -14.532864501239837 13.159736179120573 #
point $-1 -44.54234941027299 -14.532864501239837 13.159736179120573 #
edge $-1 $482 1 $482 0 $272 $-1 forward 7 unknown #
vertex $-1 $273 $483 #
ellipse-curve $-1 -46.914126946570399 -11.392577114677401 7.8603530856520489 -0.51503808176128008 0 0.85716729658548041 1.2857509448782207 0 0.77255712264192011 1 I I #
point $-1 -47.338767062971378 -11.392577114677401 11.479478906839628 #
edge $-1 $484 1 $484 0 $276 $-1 forward 7 unknown #
vertex $-1 $277 $485 #
ellipse-curve $-1 -46.914126946570399 -6.682146034833746 7.8603530856520489 -0.51503808176128008 0 0.85716729658548041 1.2857509448782207 0 0.77255712264192011 1 I I #
point $-1 -47.338767062971378 -6.682146034833746 11.479478906839628 #
plane-surface $-1 52.706686605426192 0 0 -1 0 0 0 0 1 forward_v I I I I #
coedge $-1 $285 $283 $287 $412 reversed $181 $-1 #
edge $-1 $298 -13.159736179120573 $414 13.159736179120573 $297 $486 forward 7 unknown #
vertex $-1 $412 $487 #
straight-curve $-1 -52.706686605426192 -32.601354496336462 0 0 0 -1 I I #
edge $-1 $410 -32.601354496336462 $414 32.601354496336462 $408 $488 forward 7 unknown #
straight-curve $-1 0 -32.601354496336462 -13.159736179120573 -1 0 0 I I #
vertex $-1 $290 $489 #
straight-curve $-1 0 32.601354496336462 -13.159736179120573 1 0 0 I I #
point $-1 52.706686605426192 32.601354496336462 -13.159736179120573 #
point $-1 52.706686605426192 -32.601354496336462 -13.159736179120573 #
straight-curve $-1 -52.706686605426192 0 13.159736179120573 0 -1 0 I I #
point $-1 -52.706686605426192 32.601354496336462 13.159736179120573 #
point $-1 -52.706686605426192 -32.601354496336462 13.159736179120573 #
straight-curve $-1 52.706686605426192 -32.601354496336462 0 0 0 -1 I I #
straight-curve $-1 52.706686605426192 32.601354496336462 0 0 0 -1 I I #
loop $-1 $-1 $431 $307 #
plane-surface $-1 -52.706686605426192 0 0 1 0 0 0 0 -1 forward_v I I I I #
coedge $-1 $311 $310 $437 $490 forward $121 $-1 #
edge $-1 $315 20.186181386681973 $440 32.601354496336462 $314 $491 forward 7 unknown #
coedge $-1 $434 $431 $311 $428 reversed $423 $-1 #
edge $-1 $492 -32.601354496336462 $429 -20.186181386681973 $427 $493 forward 7 unknown #
vertex $-1 $432 $494 #
straight-curve $-1 0 -20.186181386681973 -13.159736179120573 1 0 0 I I #
coedge $-1 $427 $317 $313 $432 forward $423 $-1 #
edge $-1 $319 3.3885306582013932 $429 7.6436472333465844 $431 $495 forward 7 unknown #
point $-1 52.706686605426192 -20.186181386681973 -13.159736179120573 #
coedge $-1 $317 $427 $321 $438 reversed $423 $-1 #
straight-curve $-1 -52.706686605426192 -13.196883970754609 -8.904619603975382 0 1 0 I I #
point $-1 -52.706686605426192 -20.186181386681973 -8.904619603975382 #
coedge $-1 $322 $321 $425 $490 reversed $308 $-1 #
edge $-1 $323 8.904619603975382 $492 13.159736179120573 $434 $496 forward 7 unknown #
point $-1 -52.706686605426192 -32.601354496336462 -8.904619603975382 #
vertex $-1 $325 $497 #
straight-curve $-1 52.706686605426192 -32.601354496336462 0 0 0 -1 I I #
plane-surface $-1 0 32.601354496336462 0 0 -1 0 0 0 -1 forward_v I I I I #
coedge $-1 $332 $452 $334 $446 forward $329 $-1 #
vertex $-1 $446 $498 #
straight-curve $-1 -52.706686605426192 16.589762479986724 3.6530230989268739 0 0 1 I I #
edge $-1 $448 -20.303575252255666 $444 -4.2919832359059278 $443 $499 forward 7 unknown #
straight-curve $-1 0 16.589762479986724 3.7248806491126292 -1 0 0 I I #
vertex $-1 $337 $500 #
straight-curve $-1 0 32.601354496336462 3.7248806491126292 -1 0 0 I I #
point $-1 52.706686605426192 16.589762479986724 3.7248806491126292 #
point $-1 52.706686605426192 32.601354496336462 3.7248806491126292 #
coedge $-1 $443 $341 $344 $454 forward $329 $-1 #
straight-curve $-1 -52.706686605426192 12.297779244080797 10.887211746594867 0 1 0 I I #
edge $-1 $346 -10.887211746594867 $448 -3.7248806491126292 $344 $501 forward 7 unknown #
point $-1 -52.706686605426192 32.601354496336462 10.887211746594867 #
point $-1 -52.706686605426192 16.589762479986724 10.887211746594867 #
straight-curve $-1 52.706686605426192 16.589762479986724 3.6530230989268739 0 0 -1 I I #
straight-curve $-1 52.706686605426192 32.601354496336462 0 0 0 -1 I I #
coedge $-1 $366 $365 $358 $460 forward $355 $-1 #
edge $-1 $461 63.291716350319831 $464 68.197345140165567 $459 $502 forward 7 unknown #
vertex $-1 $370 $503 #
straight-curve $-1 8.3208459984134286 -14.532864501239837 13.159736179120571 1 0 0 I I #
edge $-1 $464 -10.014183713862051 $367 0.97682213910647953 $366 $504 forward 7 unknown #
vertex $-1 $463 $505 #
straight-curve $-1 -37.650209533676467 -14.532864501239837 62.54600891977816 -0.85716729658548041 0 0.51503808176128008 I I #
point $-1 44.542349410272983 -14.532864501239837 13.159736179120571 #
point $-1 52.706686605426192 -3.5418586482713064 8.2541073892748287 #
straight-curve $-1 52.706686605426192 0 13.159736179120573 0 1 0 I I #
vertex $-1 $373 $506 #
point $-1 48.199877891448615 -11.392577114677401 7.0877959630101293 #
vertex $-1 $377 $507 #
point $-1 48.199877891448615 -6.682146034833746 7.0877959630101293 #
edge $-1 $474 36.145765585068169 $477 41.051394374913912 $382 $508 forward 7 unknown #
vertex $-1 $396 $509 #
straight-curve $-1 -53.499294067964755 -3.5418586482713064 13.159736179120571 -1 0 0 I I #
edge $-1 $477 -0.97682213910647953 $393 10.014183713862051 $392 $510 forward 7 unknown #
vertex $-1 $476 $511 #
straight-curve $-1 -52.706686605426185 -3.5418586482713064 8.2541073892748358 0.85716729658548041 0 0.51503808176128008 I I #
point $-1 -44.54234941027299 -3.5418586482713064 13.159736179120573 #
point $-1 -52.706686605426192 -14.532864501239837 8.2541073892748322 #
straight-curve $-1 -52.706686605426192 0 13.159736179120573 0 -1 0 I I #
vertex $-1 $399 $512 #
point $-1 -45.628376001692182 -11.392577114677401 8.6329102082939695 #
vertex $-1 $403 $513 #
point $-1 -45.628376001692182 -6.682146034833746 8.6329102082939695 #
straight-curve $-1 -52.706686605426192 32.601354496336462 0 0 0 -1 I I #
point $-1 -52.706686605426192 -32.601354496336462 -13.159736179120573 #
straight-curve $-1 -52.706686605426192 0 -13.159736179120573 0 1 0 I I #
point $-1 -52.706686605426192 32.601354496336462 -13.159736179120573 #
edge $-1 $440 -52.706686605426192 $492 52.706686605426192 $437 $514 forward 7 unknown #
straight-curve $-1 52.706686605426192 0 -13.159736179120573 0 -1 0 I I #
vertex $-1 $428 $515 #
straight-curve $-1 -52.706686605426192 0 -13.159736179120573 0 1 0 I I #
point $-1 -52.706686605426192 -20.186181386681973 -13.159736179120573 #
straight-curve $-1 -52.706686605426192 -20.186181386681973 -5.5160889457739888 0 0 -1 I I #
straight-curve $-1 -52.706686605426192 -32.601354496336462 0 0 0 -1 I I #
point $-1 52.706686605426192 -32.601354496336462 -13.159736179120573 #
point $-1 -52.706686605426192 16.589762479986724 3.7248806491126292 #
straight-curve $-1 -52.706686605426192 12.297779244080797 3.7248806491126292 0 -1 0 I I #
point $-1 -52.706686605426192 32.601354496336462 3.7248806491126292 #
straight-curve $-1 -52.706686605426192 32.601354496336462 0 0 0 -1 I I #
straight-curve $-1 52.706686605426192 -14.532864501239837 76.451452529440402 0 0 -1 I I #
point $-1 52.706686605426192 -14.532864501239837 13.159736179120573 #
straight-curve $-1 52.706686605426185 -4.5186807873777859 8.2541073892748322 0 1 0 I I #
point $-1 52.706686605426192 -14.532864501239837 8.2541073892748287 #
point $-1 46.141569823928478 -11.392577114677401 6.5746021407738322 #
point $-1 46.141569823928478 -6.682146034833746 6.5746021407738322 #
straight-curve $-1 -52.706686605426192 -3.5418586482713064 49.30550176418874 0 0 -1 I I #
point $-1 -52.706686605426192 -3.5418586482713064 13.159736179120573 #
straight-curve $-1 -52.706686605426192 -4.5186807873777859 8.2541073892748287 0 -1 0 I I #
point $-1 -52.706686605426192 -3.5418586482713064 8.2541073892748322 #
point $-1 -46.141569823928485 -11.392577114677401 6.5746021407738322 #
point $-1 -46.141569823928485 -6.682146034833746 6.5746021407738322 #
straight-curve $-1 0 -32.601354496336462 -13.159736179120573 -1 0 0 I I #
point $-1 -52.706686605426192 -32.601354496336462 -13.159736179120573 #
End-of-ACIS-data 