500 0 4 0           
7 Unknown 11 ACIS 5.0 NT 24 Fri Mar 26 17:53:55 1999 
-1 9.9999999999999995e-007 1e-010 
body $-1 $4 $-1 $5 #
body $-1 $6 $-1 $7 #
body $-1 $8 $-1 $9 #
body $-1 $10 $-1 $11 #
lump $-1 $-1 $12 $0 #
transform $-1 1 0 0 0 1 0 0 0 1 57.682424390392768 24.711709001892654 6.1337709175143695 1 rotate no_reflect no_shear #
lump $-1 $-1 $13 $1 #
transform $-1 1 0 0 0 1 0 0 0 1 57.682424390392768 24.711709001892654 6.1337709175143695 1 rotate no_reflect no_shear #
lump $-1 $-1 $14 $2 #
transform $-1 1 0 0 0 1 0 0 0 1 57.682424390392768 24.711709001892654 6.1337709175143695 1 rotate no_reflect no_shear #
lump $-1 $-1 $15 $3 #
transform $-1 1 0 0 0 1 0 0 0 1 57.682424390392768 24.711709001892654 6.1337709175143695 1 rotate no_reflect no_shear #
shell $-1 $-1 $-1 $16 $-1 $4 #
shell $-1 $-1 $-1 $17 $-1 $6 #
shell $-1 $-1 $-1 $18 $-1 $8 #
shell $-1 $-1 $-1 $19 $-1 $10 #
face $-1 $20 $21 $12 $-1 $22 forward single #
face $-1 $23 $24 $13 $-1 $25 reversed single #
face $-1 $26 $27 $14 $-1 $28 reversed single #
face $-1 $29 $30 $15 $-1 $31 forward single #
face $-1 $32 $33 $12 $-1 $34 reversed single #
loop $-1 $-1 $35 $16 #
plane-surface $-1 0 0 6.1337709175143695 0 0 1 1 0 0 forward_v I I I I #
face $-1 $36 $37 $13 $-1 $38 reversed single #
loop $-1 $-1 $39 $17 #
plane-surface $-1 -55.396791195323019 0 3.1337709175143695 0 0 1 1 0 0 forward_v I I I I #
face $-1 $40 $41 $14 $-1 $42 reversed single #
loop $-1 $-1 $43 $18 #
plane-surface $-1 -18.003725180371774 -17.874955277850976 87.24178384790423 0.75470958851134928 0 0.65605901945558964 0.65605901945558964 0 -0.75470958851134928 forward_v I I I I #
face $-1 $44 $45 $15 $-1 $46 forward single #
loop $-1 $47 $48 $19 #
cone-surface $-1 53.688467359385832 -17.874955277850976 1.9338710575975553 -0.75470958851134928 0 -0.65605901945558964 0.65605901945558964 0 -0.75470958851134928 1 I I 0 1 1 forward I I I I #
face $-1 $49 $50 $12 $-1 $51 reversed single #
loop $-1 $-1 $52 $20 #
plane-surface $-1 0 0 -6.1337709175143695 0 0 1 1 0 0 forward_v I I I I #
coedge $-1 $53 $54 $55 $56 forward $21 $-1 #
face $-1 $57 $58 $13 $-1 $59 reversed single #
loop $-1 $-1 $60 $23 #
plane-surface $-1 -53.111158000253269 0 4.6337709175143695 -1 0 0 0 0 1 forward_v I I I I #
coedge $-1 $61 $62 $63 $64 forward $24 $-1 #
face $-1 $65 $66 $14 $-1 $67 forward single #
loop $-1 $-1 $68 $26 #
plane-surface $-1 69.063232371648908 -11.038201553809298 162.92793341866877 0 -1 0 -0.75470958851134928 0 -0.65605901945558964 forward_v I I I I #
coedge $-1 $69 $70 $71 $72 reversed $27 $-1 #
face $-1 $-1 $73 $15 $-1 $74 forward single #
loop $-1 $75 $76 $29 #
cone-surface $-1 51.907171233518625 -17.874955277850976 0.3854139987683558 -0.75470958851134928 0 -0.65605901945558964 0.32802950972779482 0 -0.37735479425567464 1 I I -0.70710678118654746 0.70710678118654746 0.5 forward I I I I #
loop $-1 $-1 $77 $19 #
coedge $-1 $48 $48 $78 $79 reversed $30 $-1 #
face $-1 $80 $81 $12 $-1 $82 reversed single #
loop $-1 $-1 $83 $32 #
plane-surface $-1 0 -24.711709001892654 0 0 1 0 0 0 1 forward_v I I I I #
coedge $-1 $84 $85 $86 $87 forward $33 $-1 #
coedge $-1 $88 $35 $89 $90 forward $21 $-1 #
coedge $-1 $35 $88 $91 $92 forward $21 $-1 #
coedge $-1 $93 $94 $35 $56 reversed $95 $-1 #
edge $-1 $96 -24.711709001892654 $97 24.711709001892654 $55 $98 forward 7 unknown #
face $-1 $99 $100 $13 $-1 $101 reversed single #
loop $-1 $-1 $102 $36 #
plane-surface $-1 0 24.711709001892654 0 0 -1 0 0 0 -1 forward_v I I I I #
coedge $-1 $63 $103 $104 $105 reversed $37 $-1 #
coedge $-1 $106 $39 $107 $108 reversed $24 $-1 #
coedge $-1 $39 $106 $109 $110 reversed $24 $-1 #
coedge $-1 $111 $60 $39 $64 reversed $37 $-1 #
edge $-1 $112 -24.711709001892654 $113 24.711709001892654 $63 $114 forward 7 unknown #
face $-1 $115 $116 $14 $-1 $117 reversed single #
loop $-1 $-1 $118 $40 #
plane-surface $-1 0 0 6.1337709175143695 0 0 1 1 0 0 forward_v I I I I #
coedge $-1 $119 $120 $121 $122 reversed $41 $-1 #
coedge $-1 $123 $43 $124 $125 reversed $27 $-1 #
coedge $-1 $43 $123 $119 $126 forward $27 $-1 #
coedge $-1 $121 $127 $43 $72 forward $128 $-1 #
edge $-1 $129 -15.774231362967166 $130 -2.1007239148838099 $71 $131 forward 7 unknown #
loop $-1 $-1 $78 $44 #
plane-surface $-1 -18.003725180371774 -17.874955277850976 87.24178384790423 0.75470958851134928 0 0.65605901945558964 0.65605901945558964 0 -0.75470958851134928 forward_v I I I I #
loop $-1 $-1 $132 $29 #
coedge $-1 $76 $76 $77 $133 reversed $45 $-1 #
coedge $-1 $77 $77 $76 $133 forward $47 $-1 #
coedge $-1 $78 $78 $48 $79 forward $73 $-1 #
edge $-1 $134 0 $134 6.2831853071796004 $78 $135 forward 7 unknown #
face $-1 $136 $137 $12 $-1 $138 reversed single #
loop $-1 $-1 $139 $49 #
plane-surface $-1 -57.682424390392768 0 0 1 0 0 0 0 -1 forward_v I I I I #
coedge $-1 $140 $91 $141 $142 forward $50 $-1 #
coedge $-1 $143 $52 $140 $144 forward $33 $-1 #
coedge $-1 $52 $143 $145 $146 forward $33 $-1 #
coedge $-1 $94 $93 $52 $87 reversed $95 $-1 #
edge $-1 $147 -24.711709001892654 $148 24.711709001892654 $86 $149 forward 7 unknown #
coedge $-1 $54 $53 $150 $151 forward $21 $-1 #
coedge $-1 $152 $153 $53 $90 reversed $137 $-1 #
edge $-1 $97 -57.682424390392768 $154 57.682424390392768 $89 $155 forward 7 unknown #
coedge $-1 $83 $156 $54 $92 reversed $50 $-1 #
edge $-1 $157 -57.682424390392768 $96 57.682424390392768 $91 $158 forward 7 unknown #
coedge $-1 $86 $55 $156 $159 forward $95 $-1 #
coedge $-1 $55 $86 $152 $160 reversed $95 $-1 #
loop $-1 $-1 $93 $136 #
vertex $-1 $56 $161 #
vertex $-1 $56 $162 #
straight-curve $-1 57.682424390392768 0 6.1337709175143695 0 1 0 I I #
face $-1 $163 $164 $13 $-1 $165 forward single #
loop $-1 $-1 $166 $57 #
plane-surface $-1 -57.682424390392768 0 0 1 0 0 0 0 -1 forward_v I I I I #
coedge $-1 $109 $167 $111 $168 forward $58 $-1 #
coedge $-1 $60 $111 $169 $170 reversed $37 $-1 #
coedge $-1 $171 $107 $60 $105 forward $172 $-1 #
edge $-1 $113 0.81688545875718477 $173 3.8168854587571848 $104 $174 forward 7 unknown #
coedge $-1 $62 $61 $166 $175 reversed $24 $-1 #
coedge $-1 $104 $176 $61 $108 forward $172 $-1 #
edge $-1 $177 -29.984028792731259 $113 -25.41276240259176 $107 $178 forward 7 unknown #
coedge $-1 $179 $102 $62 $110 forward $58 $-1 #
edge $-1 $112 25.41276240259176 $180 29.984028792731259 $109 $181 forward 7 unknown #
coedge $-1 $103 $63 $102 $168 reversed $37 $-1 #
vertex $-1 $110 $182 #
vertex $-1 $108 $183 #
straight-curve $-1 -53.111158000253269 0 3.1337709175143695 0 -1 0 I I #
face $-1 $-1 $128 $14 $-1 $184 reversed single #
loop $-1 $-1 $124 $65 #
plane-surface $-1 0 -24.711709001892654 0 0 1 0 0 0 1 forward_v I I I I #
coedge $-1 $185 $186 $120 $187 forward $66 $-1 #
coedge $-1 $120 $68 $70 $126 reversed $41 $-1 #
coedge $-1 $68 $119 $118 $187 reversed $41 $-1 #
coedge $-1 $188 $71 $68 $122 forward $128 $-1 #
edge $-1 $130 -81.289140413450838 $189 -75.330195791820017 $121 $190 forward 7 unknown #
coedge $-1 $70 $69 $185 $191 reversed $27 $-1 #
coedge $-1 $192 $193 $69 $125 forward $116 $-1 #
edge $-1 $194 68.642311278577509 $129 76.537990242170309 $124 $195 forward 7 unknown #
edge $-1 $196 107.46916981719278 $130 115.36484878078555 $119 $197 forward 7 unknown #
coedge $-1 $71 $188 $192 $198 forward $128 $-1 #
loop $-1 $-1 $121 $115 #
vertex $-1 $125 $199 #
vertex $-1 $72 $200 #
straight-curve $-1 57.682424390392768 -8.937477638925488 0.17482629588354115 0 1 0 I I #
coedge $-1 $132 $132 $-1 $201 reversed $75 $-1 #
edge $-1 $202 0 $202 6.2831853071796004 $76 $203 forward 7 unknown #
vertex $-1 $79 $204 #
ellipse-curve $-1 55.09240869099736 -17.874955277850976 3.1542986066989585 0.75470958851134928 0 0.65605901945558964 0.65605901945558964 0 -0.75470958851134928 1 I I #
face $-1 $-1 $95 $12 $-1 $205 reversed single #
loop $-1 $-1 $152 $80 #
plane-surface $-1 0 24.711709001892654 0 0 -1 0 0 0 -1 forward_v I I I I #
coedge $-1 $206 $150 $153 $207 forward $81 $-1 #
coedge $-1 $156 $83 $84 $144 reversed $50 $-1 #
coedge $-1 $150 $206 $83 $142 reversed $81 $-1 #
edge $-1 $157 -6.1337709175143695 $208 6.1337709175143695 $141 $209 forward 7 unknown #
coedge $-1 $85 $84 $206 $210 forward $33 $-1 #
edge $-1 $148 -57.682424390392768 $208 57.682424390392768 $140 $211 forward 7 unknown #
coedge $-1 $153 $152 $85 $146 reversed $137 $-1 #
edge $-1 $212 -57.682424390392768 $147 57.682424390392768 $145 $213 forward 7 unknown #
vertex $-1 $87 $214 #
vertex $-1 $159 $215 #
straight-curve $-1 57.682424390392768 0 -6.1337709175143695 0 -1 0 I I #
coedge $-1 $139 $141 $88 $151 reversed $81 $-1 #
edge $-1 $154 -24.711709001892654 $157 24.711709001892654 $150 $216 forward 7 unknown #
coedge $-1 $145 $89 $94 $160 forward $137 $-1 #
coedge $-1 $89 $145 $139 $207 reversed $137 $-1 #
vertex $-1 $90 $217 #
straight-curve $-1 0 24.711709001892654 6.1337709175143695 -1 0 0 I I #
coedge $-1 $91 $140 $93 $159 reversed $50 $-1 #
vertex $-1 $151 $218 #
straight-curve $-1 0 -24.711709001892654 6.1337709175143695 1 0 0 I I #
edge $-1 $96 -6.1337709175143695 $148 6.1337709175143695 $93 $219 forward 7 unknown #
edge $-1 $97 -6.1337709175143695 $147 6.1337709175143695 $94 $220 forward 7 unknown #
point $-1 57.682424390392768 -24.711709001892654 6.1337709175143695 #
point $-1 57.682424390392768 24.711709001892654 6.1337709175143695 #
face $-1 $-1 $172 $13 $-1 $221 reversed single #
loop $-1 $-1 $169 $99 #
plane-surface $-1 0 0 6.1337709175143695 0 0 1 1 0 0 forward_v I I I I #
coedge $-1 $222 $223 $106 $175 forward $100 $-1 #
coedge $-1 $102 $179 $224 $225 reversed $58 $-1 #
edge $-1 $226 -3.8168854587571848 $112 -0.81688545875718477 $102 $227 forward 7 unknown #
coedge $-1 $224 $228 $103 $170 forward $164 $-1 #
edge $-1 $173 -24.711709001892654 $226 24.711709001892654 $169 $229 forward 7 unknown #
coedge $-1 $176 $104 $228 $230 reversed $172 $-1 #
loop $-1 $-1 $104 $163 #
vertex $-1 $105 $231 #
straight-curve $-1 -53.111158000253269 -24.711709001892654 2.3168854587571848 0 0 1 I I #
edge $-1 $180 -24.711709001892654 $177 24.711709001892654 $166 $232 forward 7 unknown #
coedge $-1 $107 $171 $222 $233 forward $172 $-1 #
vertex $-1 $175 $234 #
straight-curve $-1 -27.698395597661509 -24.711709001892654 3.1337709175143695 1 0 0 I I #
coedge $-1 $167 $109 $223 $235 reversed $58 $-1 #
vertex $-1 $175 $236 #
straight-curve $-1 -27.698395597661509 24.711709001892654 3.1337709175143695 -1 0 0 I I #
point $-1 -53.111158000253269 24.711709001892654 3.1337709175143695 #
point $-1 -53.111158000253269 -24.711709001892654 3.1337709175143695 #
plane-surface $-1 57.682424390392768 0 0 -1 0 0 0 0 1 forward_v I I I I #
coedge $-1 $237 $118 $123 $191 forward $66 $-1 #
coedge $-1 $118 $237 $188 $238 forward $66 $-1 #
edge $-1 $189 -23.150808204568314 $196 -17.970776805777497 $118 $239 forward 7 unknown #
coedge $-1 $127 $121 $186 $238 reversed $128 $-1 #
vertex $-1 $187 $240 #
straight-curve $-1 57.682424390392768 -11.038201553809298 81.463966709334386 0 0 1 I I #
edge $-1 $196 2.1007239148838099 $194 15.774231362967166 $185 $241 forward 7 unknown #
coedge $-1 $193 $124 $127 $198 reversed $116 $-1 #
coedge $-1 $124 $192 $237 $242 reversed $116 $-1 #
vertex $-1 $242 $243 #
straight-curve $-1 7.4689855610130351 -24.711709001892654 57.938781417037546 0.65605901945558975 0 -0.75470958851134939 I I #
vertex $-1 $191 $244 #
straight-curve $-1 -18.003725180371774 -11.038201553809298 87.24178384790423 0.65605901945558964 0 -0.75470958851134928 I I #
edge $-1 $245 -6.1337709175143695 $129 -0.17482629588354337 $127 $246 forward 7 unknown #
point $-1 57.682424390392768 -24.711709001892654 0.17482629588354337 #
point $-1 57.682424390392768 -11.038201553809298 0.17482629588354826 #
edge $-1 $247 1 $247 0 $132 $-1 forward 7 unknown #
vertex $-1 $133 $248 #
ellipse-curve $-1 52.284526027774298 -17.874955277850976 0.71344350849615057 0.75470958851134928 0 0.65605901945558964 0.65605901945558964 0 -0.75470958851134928 1 I I #
point $-1 55.74846771045295 -17.874955277850976 2.3995890181876112 #
plane-surface $-1 57.682424390392768 0 0 -1 0 0 0 0 1 forward_v I I I I #
coedge $-1 $141 $139 $143 $210 reversed $81 $-1 #
edge $-1 $154 -6.1337709175143695 $212 6.1337709175143695 $153 $249 forward 7 unknown #
vertex $-1 $210 $250 #
straight-curve $-1 -57.682424390392768 -24.711709001892654 0 0 0 -1 I I #
edge $-1 $208 -24.711709001892654 $212 24.711709001892654 $206 $251 forward 7 unknown #
straight-curve $-1 0 -24.711709001892654 -6.1337709175143695 -1 0 0 I I #
vertex $-1 $146 $252 #
straight-curve $-1 0 24.711709001892654 -6.1337709175143695 1 0 0 I I #
point $-1 57.682424390392768 24.711709001892654 -6.1337709175143695 #
point $-1 57.682424390392768 -24.711709001892654 -6.1337709175143695 #
straight-curve $-1 -57.682424390392768 0 6.1337709175143695 0 -1 0 I I #
point $-1 -57.682424390392768 24.711709001892654 6.1337709175143695 #
point $-1 -57.682424390392768 -24.711709001892654 6.1337709175143695 #
straight-curve $-1 57.682424390392768 -24.711709001892654 0 0 0 -1 I I #
straight-curve $-1 57.682424390392768 24.711709001892654 0 0 0 -1 I I #
plane-surface $-1 0 -24.711709001892654 0 0 1 0 0 0 1 forward_v I I I I #
coedge $-1 $253 $166 $176 $233 reversed $100 $-1 #
coedge $-1 $166 $253 $179 $235 forward $100 $-1 #
coedge $-1 $254 $169 $167 $225 forward $164 $-1 #
edge $-1 $226 53.111158000253269 $255 57.682424390392768 $167 $256 forward 7 unknown #
vertex $-1 $225 $257 #
straight-curve $-1 -53.111158000253269 24.711709001892654 2.3168854587571848 0 0 -1 I I #
coedge $-1 $169 $254 $171 $230 forward $164 $-1 #
straight-curve $-1 -53.111158000253269 0 6.1337709175143695 0 1 0 I I #
edge $-1 $258 -57.682424390392768 $173 -53.111158000253269 $171 $259 forward 7 unknown #
point $-1 -53.111158000253269 -24.711709001892654 6.1337709175143695 #
straight-curve $-1 -57.682424390392768 0 3.1337709175143695 0 -1 0 I I #
edge $-1 $258 -6.1337709175143695 $177 -3.1337709175143695 $222 $260 forward 7 unknown #
point $-1 -57.682424390392768 -24.711709001892654 3.1337709175143695 #
edge $-1 $255 -6.1337709175143695 $180 -3.1337709175143695 $179 $261 forward 7 unknown #
point $-1 -57.682424390392768 24.711709001892654 3.1337709175143695 #
coedge $-1 $186 $185 $193 $242 forward $66 $-1 #
edge $-1 $245 -24.711709001892654 $189 -11.038201553809298 $188 $262 forward 7 unknown #
straight-curve $-1 34.531616185824454 -11.038201553809298 6.1337709175143686 -1 0 0 I I #
point $-1 57.682424390392768 -11.038201553809298 6.1337709175143695 #
straight-curve $-1 52.502392991601965 -8.937477638925488 6.1337709175143615 0 -1 0 I I #
edge $-1 $194 52.502392991601951 $245 57.682424390392768 $193 $263 forward 7 unknown #
point $-1 52.502392991601951 -24.711709001892654 6.1337709175143686 #
point $-1 52.502392991601951 -11.038201553809298 6.1337709175143686 #
vertex $-1 $238 $264 #
straight-curve $-1 57.682424390392768 -24.711709001892654 0 0 0 -1 I I #
vertex $-1 $201 $265 #
point $-1 52.940585047229888 -17.874955277850976 -0.041266080015198658 #
straight-curve $-1 -57.682424390392768 24.711709001892654 0 0 0 -1 I I #
point $-1 -57.682424390392768 -24.711709001892654 -6.1337709175143695 #
straight-curve $-1 -57.682424390392768 0 -6.1337709175143695 0 1 0 I I #
point $-1 -57.682424390392768 24.711709001892654 -6.1337709175143695 #
coedge $-1 $223 $222 $254 $266 reversed $100 $-1 #
coedge $-1 $228 $224 $253 $266 forward $164 $-1 #
vertex $-1 $225 $267 #
straight-curve $-1 0 24.711709001892654 6.1337709175143695 -1 0 0 I I #
point $-1 -53.111158000253269 24.711709001892654 6.1337709175143695 #
vertex $-1 $266 $268 #
straight-curve $-1 0 -24.711709001892654 6.1337709175143695 1 0 0 I I #
straight-curve $-1 -57.682424390392768 -24.711709001892654 0 0 0 -1 I I #
straight-curve $-1 -57.682424390392768 24.711709001892654 0 0 0 -1 I I #
straight-curve $-1 57.682424390392768 0 6.1337709175143695 0 1 0 I I #
straight-curve $-1 0 -24.711709001892654 6.1337709175143695 1 0 0 I I #
point $-1 57.682424390392768 -24.711709001892654 6.1337709175143695 #
point $-1 51.529816439262952 -17.874955277850976 0.057384489040560982 #
edge $-1 $255 -24.711709001892654 $258 24.711709001892654 $253 $269 forward 7 unknown #
point $-1 -57.682424390392768 24.711709001892654 6.1337709175143695 #
point $-1 -57.682424390392768 -24.711709001892654 6.1337709175143695 #
straight-curve $-1 -57.682424390392768 0 6.1337709175143695 0 -1 0 I I #
End-of-ACIS-data 