500 0 17 0           
7 Unknown 11 ACIS 5.0 NT 24 Thu Mar 25 18:12:37 1999 
-1 9.9999999999999995e-007 1e-010 
body $-1 $17 $-1 $18 #
body $-1 $19 $-1 $20 #
body $-1 $21 $-1 $22 #
body $-1 $23 $-1 $24 #
body $-1 $25 $-1 $26 #
body $-1 $27 $-1 $28 #
body $-1 $29 $-1 $30 #
body $-1 $31 $-1 $32 #
body $-1 $33 $-1 $34 #
body $-1 $35 $-1 $36 #
body $-1 $37 $-1 $38 #
body $-1 $39 $-1 $40 #
body $-1 $41 $-1 $42 #
body $-1 $43 $-1 $44 #
body $-1 $45 $-1 $46 #
body $-1 $47 $-1 $48 #
body $-1 $49 $-1 $50 #
lump $-1 $-1 $51 $0 #
transform $-1 1 0 0 0 1 0 0 0 1 47.398907437360762 30.459153857685685 12.750140267427241 1 rotate no_reflect no_shear #
lump $-1 $-1 $52 $1 #
transform $-1 1 0 0 0 1 0 0 0 1 47.398907437360762 30.459153857685685 12.750140267427241 1 rotate no_reflect no_shear #
lump $-1 $-1 $53 $2 #
transform $-1 1 0 0 0 1 0 0 0 1 47.398907437360762 30.459153857685685 12.750140267427241 1 rotate no_reflect no_shear #
lump $-1 $-1 $54 $3 #
transform $-1 1 0 0 0 1 0 0 0 1 47.398907437360762 30.459153857685685 12.750140267427241 1 rotate no_reflect no_shear #
lump $-1 $-1 $55 $4 #
transform $-1 1 0 0 0 1 0 0 0 1 47.398907437360762 30.459153857685685 12.750140267427241 1 rotate no_reflect no_shear #
lump $-1 $-1 $56 $5 #
transform $-1 1 0 0 0 1 0 0 0 1 47.398907437360762 30.459153857685685 12.750140267427241 1 rotate no_reflect no_shear #
lump $-1 $-1 $57 $6 #
transform $-1 1 0 0 0 1 0 0 0 1 47.398907437360762 30.459153857685685 12.750140267427241 1 rotate no_reflect no_shear #
lump $-1 $-1 $58 $7 #
transform $-1 1 0 0 0 1 0 0 0 1 47.398907437360762 30.459153857685685 12.750140267427241 1 rotate no_reflect no_shear #
lump $-1 $-1 $59 $8 #
transform $-1 1 0 0 0 1 0 0 0 1 47.398907437360762 30.459153857685685 12.750140267427241 1 rotate no_reflect no_shear #
lump $-1 $-1 $60 $9 #
transform $-1 1 0 0 0 1 0 0 0 1 47.398907437360762 30.459153857685685 12.750140267427241 1 rotate no_reflect no_shear #
lump $-1 $-1 $61 $10 #
transform $-1 1 0 0 0 1 0 0 0 1 47.398907437360762 30.459153857685685 12.750140267427241 1 rotate no_reflect no_shear #
lump $-1 $-1 $62 $11 #
transform $-1 1 0 0 0 1 0 0 0 1 47.398907437360762 30.459153857685685 12.750140267427241 1 rotate no_reflect no_shear #
lump $-1 $-1 $63 $12 #
transform $-1 1 0 0 0 1 0 0 0 1 47.398907437360762 30.459153857685685 12.750140267427241 1 rotate no_reflect no_shear #
lump $-1 $-1 $64 $13 #
transform $-1 1 0 0 0 1 0 0 0 1 47.398907437360762 30.459153857685685 12.750140267427241 1 rotate no_reflect no_shear #
lump $-1 $-1 $65 $14 #
transform $-1 1 0 0 0 1 0 0 0 1 47.398907437360762 30.459153857685685 12.750140267427241 1 rotate no_reflect no_shear #
lump $-1 $-1 $66 $15 #
transform $-1 1 0 0 0 1 0 0 0 1 47.398907437360762 30.459153857685685 12.750140267427241 1 rotate no_reflect no_shear #
lump $-1 $-1 $67 $16 #
transform $-1 1 0 0 0 1 0 0 0 1 47.398907437360762 30.459153857685685 12.750140267427241 1 rotate no_reflect no_shear #
shell $-1 $-1 $-1 $68 $-1 $17 #
shell $-1 $-1 $-1 $69 $-1 $19 #
shell $-1 $-1 $-1 $70 $-1 $21 #
shell $-1 $-1 $-1 $71 $-1 $23 #
shell $-1 $-1 $-1 $72 $-1 $25 #
shell $-1 $-1 $-1 $73 $-1 $27 #
shell $-1 $-1 $-1 $74 $-1 $29 #
shell $-1 $-1 $-1 $75 $-1 $31 #
shell $-1 $-1 $-1 $76 $-1 $33 #
shell $-1 $-1 $-1 $77 $-1 $35 #
shell $-1 $-1 $-1 $78 $-1 $37 #
shell $-1 $-1 $-1 $79 $-1 $39 #
shell $-1 $-1 $-1 $80 $-1 $41 #
shell $-1 $-1 $-1 $81 $-1 $43 #
shell $-1 $-1 $-1 $82 $-1 $45 #
shell $-1 $-1 $-1 $83 $-1 $47 #
shell $-1 $-1 $-1 $84 $-1 $49 #
face $-1 $85 $86 $51 $-1 $87 forward single #
face $-1 $88 $89 $52 $-1 $90 forward single #
face $-1 $91 $92 $53 $-1 $93 forward single #
face $-1 $94 $95 $54 $-1 $96 reversed single #
face $-1 $97 $98 $55 $-1 $99 forward single #
face $-1 $100 $101 $56 $-1 $102 reversed single #
face $-1 $103 $104 $57 $-1 $105 forward single #
face $-1 $106 $107 $58 $-1 $108 forward single #
face $-1 $109 $110 $59 $-1 $111 forward single #
face $-1 $112 $113 $60 $-1 $114 reversed single #
face $-1 $115 $116 $61 $-1 $117 forward single #
face $-1 $118 $119 $62 $-1 $120 forward single #
face $-1 $121 $122 $63 $-1 $123 forward single #
face $-1 $124 $125 $64 $-1 $126 reversed single #
face $-1 $127 $128 $65 $-1 $129 forward single #
face $-1 $130 $131 $66 $-1 $132 forward single #
face $-1 $133 $134 $67 $-1 $135 forward single #
face $-1 $136 $137 $51 $-1 $138 reversed single #
loop $-1 $-1 $139 $68 #
plane-surface $-1 0 0 12.750140267427241 0 0 1 1 0 0 forward_v I I I I #
face $-1 $140 $141 $52 $-1 $142 reversed single #
loop $-1 $-1 $143 $69 #
plane-surface $-1 0 -24.933370617770379 5.5839263815501576 0 0 1 1 0 0 forward_v I I I I #
face $-1 $144 $145 $53 $-1 $146 reversed single #
loop $-1 $-1 $147 $70 #
plane-surface $-1 0 24.933370617770379 5.5839263815501576 0 0 1 1 0 0 forward_v I I I I #
face $-1 $148 $149 $54 $-1 $150 reversed single #
loop $-1 $-1 $151 $71 #
plane-surface $-1 -100.40917346879617 6.6050404029097152 86.381956748202214 0 -1 0 0.55919291073839883 0 -0.82903756765294845 forward_v I I I I #
face $-1 $152 $153 $55 $-1 $154 forward single #
loop $-1 $155 $156 $72 #
cone-surface $-1 -42.816881280769913 1.8490741819648804 8.9274957774934798 0.55919291073839883 0 -0.82903756765294845 0.82903756765294845 0 0.55919291073839883 1 I I 0 1 1 forward I I I I #
face $-1 $157 $158 $56 $-1 $159 reversed single #
loop $-1 $-1 $160 $73 #
plane-surface $-1 56.750765819994598 -13.404778525513485 143.37306353376221 0 1 0 0.75470958851134928 0 0.65605901945558964 forward_v I I I I #
face $-1 $161 $162 $57 $-1 $163 forward single #
loop $-1 $164 $165 $74 #
cone-surface $-1 45.480433625911836 -12.017661978934459 10.701893315477172 -0.75470958851134928 0 -0.65605901945558964 0.32802950972779482 0 -0.37735479425567464 1 I I 0 1 0.5 forward I I I I #
face $-1 $166 $167 $58 $-1 $168 forward single #
loop $-1 $169 $170 $75 #
cone-surface $-1 45.480433625911836 -9.9369871590659216 10.701893315477172 -0.75470958851134928 0 -0.65605901945558964 0.32802950972779482 0 -0.37735479425567464 1 I I 0 1 0.5 forward I I I I #
face $-1 $171 $172 $59 $-1 $173 forward single #
loop $-1 $174 $175 $76 #
cone-surface $-1 45.480433625911836 -7.8563123391973839 10.701893315477172 -0.75470958851134928 0 -0.65605901945558964 0.32802950972779482 0 -0.37735479425567464 1 I I 0 1 0.5 forward I I I I #
face $-1 $176 $177 $60 $-1 $178 reversed single #
loop $-1 $-1 $179 $77 #
plane-surface $-1 56.750765819994598 -3.4677913664475639 143.37306353376221 0 1 0 0.75470958851134928 0 0.65605901945558964 forward_v I I I I #
face $-1 $180 $181 $61 $-1 $182 forward single #
loop $-1 $183 $184 $78 #
cone-surface $-1 45.480433625911836 -2.0806748198685376 10.701893315477172 -0.75470958851134928 0 -0.65605901945558964 0.32802950972779482 0 -0.37735479425567464 1 I I 0 1 0.5 forward I I I I #
face $-1 $185 $186 $62 $-1 $187 forward single #
loop $-1 $188 $189 $79 #
cone-surface $-1 45.480433625911836 0 10.701893315477172 -0.75470958851134928 0 -0.65605901945558964 0.32802950972779482 0 -0.37735479425567464 1 I I 0 1 0.5 forward I I I I #
face $-1 $190 $191 $63 $-1 $192 forward single #
loop $-1 $193 $194 $80 #
cone-surface $-1 45.480433625911836 2.0806748198685412 10.701893315477172 -0.75470958851134928 0 -0.65605901945558964 0.32802950972779482 0 -0.37735479425567464 1 I I 0 1 0.5 forward I I I I #
face $-1 $195 $196 $64 $-1 $197 reversed single #
loop $-1 $-1 $198 $81 #
plane-surface $-1 56.750765819994598 6.4691957926183576 143.37306353376221 0 1 0 0.75470958851134928 0 0.65605901945558964 forward_v I I I I #
face $-1 $199 $200 $65 $-1 $201 forward single #
loop $-1 $202 $203 $82 #
cone-surface $-1 45.480433625911836 7.8563123391973804 10.701893315477172 -0.75470958851134928 0 -0.65605901945558964 0.32802950972779482 0 -0.37735479425567464 1 I I 0 1 0.5 forward I I I I #
face $-1 $204 $205 $66 $-1 $206 forward single #
loop $-1 $207 $208 $83 #
cone-surface $-1 45.480433625911836 9.9369871590659216 10.701893315477172 -0.75470958851134928 0 -0.65605901945558964 0.32802950972779482 0 -0.37735479425567464 1 I I 0 1 0.5 forward I I I I #
face $-1 $209 $210 $67 $-1 $211 forward single #
loop $-1 $212 $213 $84 #
cone-surface $-1 45.480433625911836 12.017661978934463 10.701893315477172 -0.75470958851134928 0 -0.65605901945558964 0.32802950972779482 0 -0.37735479425567464 1 I I 0 1 0.5 forward I I I I #
face $-1 $214 $215 $51 $-1 $216 reversed single #
loop $-1 $-1 $217 $85 #
plane-surface $-1 0 0 -12.750140267427241 0 0 1 1 0 0 forward_v I I I I #
coedge $-1 $218 $219 $220 $221 forward $86 $-1 #
face $-1 $222 $223 $52 $-1 $224 reversed single #
loop $-1 $-1 $225 $88 #
plane-surface $-1 0 -24.933370617770379 2.5518623234476001 0 0 1 1 0 0 forward_v I I I I #
coedge $-1 $226 $227 $228 $229 reversed $89 $-1 #
face $-1 $230 $231 $53 $-1 $232 reversed single #
loop $-1 $-1 $233 $91 #
plane-surface $-1 0 24.933370617770379 2.5518623234476001 0 0 1 1 0 0 forward_v I I I I #
coedge $-1 $234 $235 $236 $237 reversed $92 $-1 #
face $-1 $238 $239 $54 $-1 $240 reversed single #
loop $-1 $-1 $241 $94 #
plane-surface $-1 -47.398907437360762 1.8490741819648804 7.791006885648585 -0.55919291073839883 0 0.82903756765294845 0.82903756765294845 0 0.55919291073839883 forward_v I I I I #
coedge $-1 $242 $243 $244 $245 reversed $95 $-1 #
face $-1 $-1 $246 $55 $-1 $247 forward single #
loop $-1 $248 $249 $97 #
cone-surface $-1 -41.631367394032658 1.8490741819648804 7.1698991946225661 0.55919291073839883 0 -0.82903756765294845 0.41451878382647422 0 0.27959645536919941 1 I I -0.70710678118654746 0.70710678118654746 0.5 forward I I I I #
loop $-1 $-1 $250 $72 #
coedge $-1 $156 $156 $251 $252 reversed $98 $-1 #
face $-1 $253 $254 $56 $-1 $255 reversed single #
loop $-1 $-1 $256 $100 #
plane-surface $-1 -14.794054035881544 -9.9369871590659216 81.180102060519886 0.75470958851134928 0 0.65605901945558964 0.65605901945558964 0 -0.75470958851134928 forward_v I I I I #
coedge $-1 $257 $258 $259 $260 reversed $101 $-1 #
face $-1 $-1 $261 $57 $-1 $262 forward single #
loop $-1 $263 $264 $103 #
cone-surface $-1 44.727134784868866 -12.017661978934459 10.047060640054958 -0.75470958851134928 0 -0.65605901945558964 0.16401475486389741 0 -0.18867739712783732 1 I I -0.70710678118654746 0.70710678118654746 0.25 forward I I I I #
loop $-1 $-1 $265 $74 #
coedge $-1 $165 $165 $266 $267 reversed $104 $-1 #
face $-1 $-1 $268 $58 $-1 $269 forward single #
loop $-1 $270 $271 $106 #
cone-surface $-1 44.727134784868866 -9.9369871590659216 10.047060640054958 -0.75470958851134928 0 -0.65605901945558964 0.16401475486389741 0 -0.18867739712783732 1 I I -0.70710678118654746 0.70710678118654746 0.25 forward I I I I #
loop $-1 $-1 $272 $75 #
coedge $-1 $170 $170 $273 $274 reversed $107 $-1 #
face $-1 $-1 $275 $59 $-1 $276 forward single #
loop $-1 $277 $278 $109 #
cone-surface $-1 44.727134784868866 -7.8563123391973839 10.047060640054958 -0.75470958851134928 0 -0.65605901945558964 0.16401475486389741 0 -0.18867739712783732 1 I I -0.70710678118654746 0.70710678118654746 0.25 forward I I I I #
loop $-1 $-1 $279 $76 #
coedge $-1 $175 $175 $280 $281 reversed $110 $-1 #
face $-1 $282 $283 $60 $-1 $284 reversed single #
loop $-1 $-1 $285 $112 #
plane-surface $-1 -14.794054035881544 0 81.180102060519886 0.75470958851134928 0 0.65605901945558964 0.65605901945558964 0 -0.75470958851134928 forward_v I I I I #
coedge $-1 $286 $287 $288 $289 reversed $113 $-1 #
face $-1 $-1 $290 $61 $-1 $291 forward single #
loop $-1 $292 $293 $115 #
cone-surface $-1 44.727134784868866 -2.0806748198685376 10.047060640054958 -0.75470958851134928 0 -0.65605901945558964 0.16401475486389741 0 -0.18867739712783732 1 I I -0.70710678118654746 0.70710678118654746 0.25 forward I I I I #
loop $-1 $-1 $294 $78 #
coedge $-1 $184 $184 $295 $296 reversed $116 $-1 #
face $-1 $-1 $297 $62 $-1 $298 forward single #
loop $-1 $299 $300 $118 #
cone-surface $-1 44.727134784868866 0 10.047060640054958 -0.75470958851134928 0 -0.65605901945558964 0.16401475486389741 0 -0.18867739712783732 1 I I -0.70710678118654746 0.70710678118654746 0.25 forward I I I I #
loop $-1 $-1 $301 $79 #
coedge $-1 $189 $189 $302 $303 reversed $119 $-1 #
face $-1 $-1 $304 $63 $-1 $305 forward single #
loop $-1 $306 $307 $121 #
cone-surface $-1 44.727134784868866 2.0806748198685412 10.047060640054958 -0.75470958851134928 0 -0.65605901945558964 0.16401475486389741 0 -0.18867739712783732 1 I I -0.70710678118654746 0.70710678118654746 0.25 forward I I I I #
loop $-1 $-1 $308 $80 #
coedge $-1 $194 $194 $309 $310 reversed $122 $-1 #
face $-1 $311 $312 $64 $-1 $313 reversed single #
loop $-1 $-1 $314 $124 #
plane-surface $-1 -14.794054035881544 9.9369871590659216 81.180102060519886 0.75470958851134928 0 0.65605901945558964 0.65605901945558964 0 -0.75470958851134928 forward_v I I I I #
coedge $-1 $315 $316 $317 $318 reversed $125 $-1 #
face $-1 $-1 $319 $65 $-1 $320 forward single #
loop $-1 $321 $322 $127 #
cone-surface $-1 44.727134784868866 7.8563123391973804 10.047060640054958 -0.75470958851134928 0 -0.65605901945558964 0.16401475486389741 0 -0.18867739712783732 1 I I -0.70710678118654746 0.70710678118654746 0.25 forward I I I I #
loop $-1 $-1 $323 $82 #
coedge $-1 $203 $203 $324 $325 reversed $128 $-1 #
face $-1 $-1 $326 $66 $-1 $327 forward single #
loop $-1 $328 $329 $130 #
cone-surface $-1 44.727134784868866 9.9369871590659216 10.047060640054958 -0.75470958851134928 0 -0.65605901945558964 0.16401475486389741 0 -0.18867739712783732 1 I I -0.70710678118654746 0.70710678118654746 0.25 forward I I I I #
loop $-1 $-1 $330 $83 #
coedge $-1 $208 $208 $331 $332 reversed $131 $-1 #
face $-1 $-1 $333 $67 $-1 $334 forward single #
loop $-1 $335 $336 $133 #
cone-surface $-1 44.727134784868866 12.017661978934463 10.047060640054958 -0.75470958851134928 0 -0.65605901945558964 0.16401475486389741 0 -0.18867739712783732 1 I I -0.70710678118654746 0.70710678118654746 0.25 forward I I I I #
loop $-1 $-1 $337 $84 #
coedge $-1 $213 $213 $338 $339 reversed $134 $-1 #
face $-1 $340 $341 $51 $-1 $342 reversed single #
loop $-1 $-1 $343 $136 #
plane-surface $-1 0 -30.459153857685685 0 0 1 0 0 0 1 forward_v I I I I #
coedge $-1 $344 $345 $346 $347 forward $137 $-1 #
coedge $-1 $348 $139 $349 $350 forward $86 $-1 #
coedge $-1 $139 $348 $351 $352 forward $86 $-1 #
coedge $-1 $353 $354 $139 $221 reversed $355 $-1 #
edge $-1 $356 -30.459153857685685 $357 30.459153857685685 $220 $358 forward 7 unknown #
face $-1 $359 $360 $52 $-1 $361 reversed single #
loop $-1 $-1 $362 $140 #
plane-surface $-1 0 -19.407587377855073 4.0678943524988789 0 -1 0 0 0 -1 forward_v I I I I #
coedge $-1 $363 $364 $365 $366 reversed $141 $-1 #
coedge $-1 $367 $143 $368 $369 forward $89 $-1 #
coedge $-1 $143 $367 $370 $371 reversed $89 $-1 #
coedge $-1 $372 $373 $143 $229 forward $374 $-1 #
edge $-1 $375 6.9409020689698835 $376 17.992468548800495 $228 $377 forward 7 unknown #
face $-1 $378 $379 $53 $-1 $380 reversed single #
loop $-1 $-1 $381 $144 #
plane-surface $-1 0 19.407587377855073 4.0678943524988789 0 1 0 0 0 1 forward_v I I I I #
coedge $-1 $382 $383 $384 $385 reversed $145 $-1 #
coedge $-1 $386 $147 $387 $388 reversed $92 $-1 #
coedge $-1 $147 $386 $389 $390 forward $92 $-1 #
coedge $-1 $391 $392 $147 $237 forward $379 $-1 #
edge $-1 $393 -17.992468548800495 $394 -6.9409020689698835 $236 $395 forward 7 unknown #
face $-1 $396 $397 $54 $-1 $398 reversed single #
loop $-1 $-1 $399 $148 #
plane-surface $-1 -100.40917346879617 -2.9068920389799544 86.381956748202214 0 1 0 -0.55919291073839883 0 0.82903756765294845 forward_v I I I I #
coedge $-1 $400 $401 $402 $403 reversed $149 $-1 #
coedge $-1 $243 $151 $404 $405 reversed $95 $-1 #
coedge $-1 $151 $242 $400 $406 reversed $95 $-1 #
coedge $-1 $402 $407 $151 $245 forward $397 $-1 #
edge $-1 $408 30.440838106673866 $409 35.399971488452522 $244 $410 forward 7 unknown #
loop $-1 $-1 $251 $152 #
plane-surface $-1 -47.398907437360762 1.8490741819648804 7.791006885648585 -0.55919291073839883 0 0.82903756765294845 0.82903756765294845 0 0.55919291073839883 forward_v I I I I #
loop $-1 $-1 $411 $97 #
coedge $-1 $249 $249 $250 $412 reversed $153 $-1 #
coedge $-1 $250 $250 $249 $412 forward $155 $-1 #
coedge $-1 $251 $251 $156 $252 forward $246 $-1 #
edge $-1 $413 0 $413 6.2831853071796004 $251 $414 forward 7 unknown #
face $-1 $415 $416 $56 $-1 $417 forward single #
loop $-1 $-1 $418 $157 #
plane-surface $-1 56.750765819994598 -6.4691957926183576 143.37306353376221 0 -1 0 -0.75470958851134928 0 -0.65605901945558964 forward_v I I I I #
coedge $-1 $419 $420 $421 $422 reversed $158 $-1 #
coedge $-1 $258 $160 $423 $424 reversed $101 $-1 #
coedge $-1 $160 $257 $419 $425 reversed $101 $-1 #
coedge $-1 $421 $426 $160 $260 forward $427 $-1 #
edge $-1 $428 58.936391499453862 $429 62.051249562237359 $259 $430 forward 7 unknown #
loop $-1 $-1 $266 $161 #
plane-surface $-1 -14.794054035881544 -9.9369871590659216 81.180102060519886 0.75470958851134928 0 0.65605901945558964 0.65605901945558964 0 -0.75470958851134928 forward_v I I I I #
loop $-1 $-1 $431 $103 #
coedge $-1 $264 $264 $265 $432 reversed $162 $-1 #
coedge $-1 $265 $265 $264 $432 forward $164 $-1 #
coedge $-1 $266 $266 $165 $267 forward $261 $-1 #
edge $-1 $433 0 $433 6.2831853071796004 $266 $434 forward 7 unknown #
loop $-1 $-1 $273 $166 #
plane-surface $-1 -14.794054035881544 -9.9369871590659216 81.180102060519886 0.75470958851134928 0 0.65605901945558964 0.65605901945558964 0 -0.75470958851134928 forward_v I I I I #
loop $-1 $-1 $435 $106 #
coedge $-1 $271 $271 $272 $436 reversed $167 $-1 #
coedge $-1 $272 $272 $271 $436 forward $169 $-1 #
coedge $-1 $273 $273 $170 $274 forward $268 $-1 #
edge $-1 $437 0 $437 6.2831853071796004 $273 $438 forward 7 unknown #
loop $-1 $-1 $280 $171 #
plane-surface $-1 -14.794054035881544 -9.9369871590659216 81.180102060519886 0.75470958851134928 0 0.65605901945558964 0.65605901945558964 0 -0.75470958851134928 forward_v I I I I #
loop $-1 $-1 $439 $109 #
coedge $-1 $278 $278 $279 $440 reversed $172 $-1 #
coedge $-1 $279 $279 $278 $440 forward $174 $-1 #
coedge $-1 $280 $280 $175 $281 forward $275 $-1 #
edge $-1 $441 0 $441 6.2831853071796004 $280 $442 forward 7 unknown #
face $-1 $443 $444 $60 $-1 $445 reversed single #
loop $-1 $-1 $446 $176 #
plane-surface $-1 56.750765819994598 3.4677913664475639 143.37306353376221 0 -1 0 -0.75470958851134928 0 -0.65605901945558964 forward_v I I I I #
coedge $-1 $447 $448 $449 $450 reversed $177 $-1 #
coedge $-1 $287 $179 $451 $452 reversed $113 $-1 #
coedge $-1 $179 $286 $447 $453 reversed $113 $-1 #
coedge $-1 $449 $454 $179 $289 forward $444 $-1 #
edge $-1 $455 58.936391499453862 $456 62.051249562237359 $288 $457 forward 7 unknown #
loop $-1 $-1 $295 $180 #
plane-surface $-1 -14.794054035881544 0 81.180102060519886 0.75470958851134928 0 0.65605901945558964 0.65605901945558964 0 -0.75470958851134928 forward_v I I I I #
loop $-1 $-1 $458 $115 #
coedge $-1 $293 $293 $294 $459 reversed $181 $-1 #
coedge $-1 $294 $294 $293 $459 forward $183 $-1 #
coedge $-1 $295 $295 $184 $296 forward $290 $-1 #
edge $-1 $460 0 $460 6.2831853071796004 $295 $461 forward 7 unknown #
loop $-1 $-1 $302 $185 #
plane-surface $-1 -14.794054035881544 0 81.180102060519886 0.75470958851134928 0 0.65605901945558964 0.65605901945558964 0 -0.75470958851134928 forward_v I I I I #
loop $-1 $-1 $462 $118 #
coedge $-1 $300 $300 $301 $463 reversed $186 $-1 #
coedge $-1 $301 $301 $300 $463 forward $188 $-1 #
coedge $-1 $302 $302 $189 $303 forward $297 $-1 #
edge $-1 $464 0 $464 6.2831853071796004 $302 $465 forward 7 unknown #
loop $-1 $-1 $309 $190 #
plane-surface $-1 -14.794054035881544 0 81.180102060519886 0.75470958851134928 0 0.65605901945558964 0.65605901945558964 0 -0.75470958851134928 forward_v I I I I #
loop $-1 $-1 $466 $121 #
coedge $-1 $307 $307 $308 $467 reversed $191 $-1 #
coedge $-1 $308 $308 $307 $467 forward $193 $-1 #
coedge $-1 $309 $309 $194 $310 forward $304 $-1 #
edge $-1 $468 0 $468 6.2831853071796004 $309 $469 forward 7 unknown #
face $-1 $470 $471 $64 $-1 $472 reversed single #
loop $-1 $-1 $473 $195 #
plane-surface $-1 56.750765819994598 13.404778525513485 143.37306353376221 0 -1 0 -0.75470958851134928 0 -0.65605901945558964 forward_v I I I I #
coedge $-1 $474 $475 $476 $477 reversed $196 $-1 #
coedge $-1 $316 $198 $478 $479 reversed $125 $-1 #
coedge $-1 $198 $315 $474 $480 reversed $125 $-1 #
coedge $-1 $476 $481 $198 $318 forward $471 $-1 #
edge $-1 $482 58.936391499453862 $483 62.051249562237359 $317 $484 forward 7 unknown #
loop $-1 $-1 $324 $199 #
plane-surface $-1 -14.794054035881544 9.9369871590659216 81.180102060519886 0.75470958851134928 0 0.65605901945558964 0.65605901945558964 0 -0.75470958851134928 forward_v I I I I #
loop $-1 $-1 $485 $127 #
coedge $-1 $322 $322 $323 $486 reversed $200 $-1 #
coedge $-1 $323 $323 $322 $486 forward $202 $-1 #
coedge $-1 $324 $324 $203 $325 forward $319 $-1 #
edge $-1 $487 0 $487 6.2831853071796004 $324 $488 forward 7 unknown #
loop $-1 $-1 $331 $204 #
plane-surface $-1 -14.794054035881544 9.9369871590659216 81.180102060519886 0.75470958851134928 0 0.65605901945558964 0.65605901945558964 0 -0.75470958851134928 forward_v I I I I #
loop $-1 $-1 $489 $130 #
coedge $-1 $329 $329 $330 $490 reversed $205 $-1 #
coedge $-1 $330 $330 $329 $490 forward $207 $-1 #
coedge $-1 $331 $331 $208 $332 forward $326 $-1 #
edge $-1 $491 0 $491 6.2831853071796004 $331 $492 forward 7 unknown #
loop $-1 $-1 $338 $209 #
plane-surface $-1 -14.794054035881544 9.9369871590659216 81.180102060519886 0.75470958851134928 0 0.65605901945558964 0.65605901945558964 0 -0.75470958851134928 forward_v I I I I #
loop $-1 $-1 $493 $133 #
coedge $-1 $336 $336 $337 $494 reversed $210 $-1 #
coedge $-1 $337 $337 $336 $494 forward $212 $-1 #
coedge $-1 $338 $338 $213 $339 forward $333 $-1 #
edge $-1 $495 0 $495 6.2831853071796004 $338 $496 forward 7 unknown #
face $-1 $497 $498 $51 $-1 $499 reversed single #
loop $-1 $-1 $500 $214 #
plane-surface $-1 -47.398907437360762 0 0 1 0 0 0 0 -1 forward_v I I I I #
coedge $-1 $501 $351 $502 $503 forward $215 $-1 #
coedge $-1 $504 $217 $501 $505 forward $137 $-1 #
coedge $-1 $217 $504 $506 $507 forward $137 $-1 #
coedge $-1 $354 $353 $217 $347 reversed $355 $-1 #
edge $-1 $508 -30.459153857685685 $509 30.459153857685685 $346 $510 forward 7 unknown #
coedge $-1 $219 $218 $511 $512 forward $86 $-1 #
coedge $-1 $513 $514 $218 $350 reversed $498 $-1 #
edge $-1 $357 -47.398907437360762 $515 47.398907437360762 $349 $516 forward 7 unknown #
coedge $-1 $343 $517 $219 $352 reversed $215 $-1 #
edge $-1 $518 -47.398907437360762 $356 47.398907437360762 $351 $519 forward 7 unknown #
coedge $-1 $346 $220 $517 $520 forward $355 $-1 #
coedge $-1 $220 $346 $513 $521 reversed $355 $-1 #
loop $-1 $-1 $353 $497 #
vertex $-1 $221 $522 #
vertex $-1 $221 $523 #
straight-curve $-1 47.398907437360762 0 12.750140267427241 0 1 0 I I #
face $-1 $524 $525 $52 $-1 $526 reversed single #
loop $-1 $-1 $527 $222 #
plane-surface $-1 -47.398907437360762 0 0 1 0 0 0 0 -1 forward_v I I I I #
coedge $-1 $528 $368 $373 $529 reversed $223 $-1 #
coedge $-1 $530 $225 $531 $532 reversed $141 $-1 #
coedge $-1 $225 $530 $528 $533 forward $141 $-1 #
coedge $-1 $373 $372 $225 $366 forward $374 $-1 #
edge $-1 $534 -17.992468548800495 $535 -6.9409020689698835 $365 $536 forward 7 unknown #
coedge $-1 $227 $226 $527 $537 reversed $89 $-1 #
coedge $-1 $362 $538 $226 $369 reversed $223 $-1 #
edge $-1 $375 -47.398907437360762 $539 47.398907437360762 $368 $540 forward 7 unknown #
coedge $-1 $541 $542 $227 $371 forward $525 $-1 #
edge $-1 $376 -47.398907437360762 $543 47.398907437360762 $370 $544 forward 7 unknown #
coedge $-1 $365 $228 $542 $545 forward $374 $-1 #
coedge $-1 $228 $365 $362 $529 forward $374 $-1 #
loop $-1 $-1 $228 $524 #
vertex $-1 $229 $546 #
vertex $-1 $545 $547 #
straight-curve $-1 47.398907437360762 -12.466685308885189 5.5839263815501576 0 -1 0 I I #
face $-1 $548 $549 $53 $-1 $550 reversed single #
loop $-1 $-1 $236 $230 #
plane-surface $-1 47.398907437360762 0 0 -1 0 0 0 0 1 forward_v I I I I #
coedge $-1 $551 $389 $552 $553 reversed $231 $-1 #
coedge $-1 $554 $233 $551 $555 forward $145 $-1 #
coedge $-1 $233 $554 $556 $557 reversed $145 $-1 #
coedge $-1 $392 $391 $233 $385 forward $379 $-1 #
edge $-1 $558 6.9409020689698835 $559 17.992468548800495 $384 $560 forward 7 unknown #
coedge $-1 $235 $234 $561 $562 reversed $92 $-1 #
coedge $-1 $563 $564 $234 $388 forward $565 $-1 #
edge $-1 $566 -47.398907437360762 $393 47.398907437360762 $387 $567 forward 7 unknown #
coedge $-1 $381 $568 $235 $390 reversed $231 $-1 #
edge $-1 $569 -47.398907437360762 $394 47.398907437360762 $389 $570 forward 7 unknown #
coedge $-1 $384 $236 $568 $571 forward $379 $-1 #
coedge $-1 $236 $384 $563 $572 reversed $379 $-1 #
vertex $-1 $572 $573 #
vertex $-1 $237 $574 #
straight-curve $-1 47.398907437360762 12.466685308885189 5.5839263815501576 0 -1 0 I I #
face $-1 $-1 $575 $54 $-1 $576 forward single #
loop $-1 $-1 $244 $238 #
plane-surface $-1 -47.398907437360762 0 0 1 0 0 0 0 -1 forward_v I I I I #
coedge $-1 $577 $578 $579 $580 reversed $239 $-1 #
coedge $-1 $581 $241 $243 $406 forward $149 $-1 #
coedge $-1 $241 $581 $577 $582 forward $149 $-1 #
coedge $-1 $579 $244 $241 $403 forward $397 $-1 #
edge $-1 $409 -5.680503311927275 $583 3.8314291299623946 $402 $584 forward 7 unknown #
coedge $-1 $585 $586 $242 $405 forward $575 $-1 #
edge $-1 $587 -10.157896747482908 $408 -2.8056792970373223 $404 $588 forward 7 unknown #
edge $-1 $409 0 $587 8.8683767024697371 $243 $589 forward 7 unknown #
coedge $-1 $244 $579 $585 $590 reversed $397 $-1 #
vertex $-1 $590 $591 #
vertex $-1 $245 $592 #
straight-curve $-1 -47.398907437360762 6.6050404029097152 43.190978374101107 0 0 -1 I I #
coedge $-1 $411 $411 $-1 $593 reversed $248 $-1 #
edge $-1 $594 0 $594 6.2831853071796004 $249 $595 forward 7 unknown #
vertex $-1 $252 $596 #
ellipse-curve $-1 -43.722798712137966 1.8490741819648804 10.270573576537913 -0.55919291073839883 0 0.82903756765294845 0.82903756765294845 0 0.55919291073839883 1 I I #
face $-1 $-1 $427 $56 $-1 $597 reversed single #
loop $-1 $-1 $598 $253 #
plane-surface $-1 0 0 12.750140267427241 0 0 1 1 0 0 forward_v I I I I #
coedge $-1 $599 $600 $601 $602 reversed $254 $-1 #
coedge $-1 $603 $256 $258 $425 forward $158 $-1 #
coedge $-1 $256 $603 $599 $604 forward $158 $-1 #
coedge $-1 $601 $259 $256 $422 forward $427 $-1 #
edge $-1 $429 -8.4362849459805247 $605 -1.5007022130853969 $421 $606 forward 7 unknown #
coedge $-1 $607 $608 $257 $424 forward $416 $-1 #
edge $-1 $609 16.315819792295891 $428 19.023524527363463 $423 $610 forward 7 unknown #
edge $-1 $429 -94.797814874721539 $609 -90.670587514423246 $258 $611 forward 7 unknown #
coedge $-1 $259 $601 $607 $612 reversed $427 $-1 #
loop $-1 $-1 $601 $415 #
vertex $-1 $612 $613 #
vertex $-1 $260 $614 #
straight-curve $-1 47.398907437360762 -13.404778525513485 71.686531766881103 0 0 -1 I I #
coedge $-1 $431 $431 $-1 $615 reversed $263 $-1 #
edge $-1 $616 0 $616 6.2831853071796004 $264 $617 forward 7 unknown #
vertex $-1 $267 $618 #
ellipse-curve $-1 46.045055069826972 -12.017661978934459 11.192711236035493 0.75470958851134928 0 0.65605901945558964 0.32802950972779482 0 -0.37735479425567464 1 I I #
coedge $-1 $435 $435 $-1 $619 reversed $270 $-1 #
edge $-1 $620 0 $620 6.2831853071796004 $271 $621 forward 7 unknown #
vertex $-1 $274 $622 #
ellipse-curve $-1 46.045055069826972 -9.9369871590659216 11.192711236035493 0.75470958851134928 0 0.65605901945558964 0.32802950972779482 0 -0.37735479425567464 1 I I #
coedge $-1 $439 $439 $-1 $623 reversed $277 $-1 #
edge $-1 $624 0 $624 6.2831853071796004 $278 $625 forward 7 unknown #
vertex $-1 $281 $626 #
ellipse-curve $-1 46.045055069826972 -7.8563123391973839 11.192711236035493 0.75470958851134928 0 0.65605901945558964 0.32802950972779482 0 -0.37735479425567464 1 I I #
face $-1 $-1 $627 $60 $-1 $628 forward single #
loop $-1 $-1 $288 $282 #
plane-surface $-1 47.398907437360762 0 0 -1 0 0 0 0 1 forward_v I I I I #
coedge $-1 $629 $630 $631 $632 reversed $283 $-1 #
coedge $-1 $633 $285 $287 $453 forward $177 $-1 #
coedge $-1 $285 $633 $629 $634 forward $177 $-1 #
coedge $-1 $631 $288 $285 $450 forward $444 $-1 #
edge $-1 $456 -3.4677913664475639 $635 3.4677913664475639 $449 $636 forward 7 unknown #
coedge $-1 $637 $638 $286 $452 forward $627 $-1 #
edge $-1 $639 16.315819792295891 $455 19.023524527363463 $451 $640 forward 7 unknown #
edge $-1 $456 -94.797814874721539 $639 -90.670587514423246 $287 $641 forward 7 unknown #
coedge $-1 $288 $631 $637 $642 reversed $444 $-1 #
vertex $-1 $642 $643 #
vertex $-1 $289 $644 #
straight-curve $-1 47.398907437360762 -3.4677913664475639 71.686531766881103 0 0 -1 I I #
coedge $-1 $458 $458 $-1 $645 reversed $292 $-1 #
edge $-1 $646 0 $646 6.2831853071796004 $293 $647 forward 7 unknown #
vertex $-1 $296 $648 #
ellipse-curve $-1 46.045055069826972 -2.0806748198685376 11.192711236035493 0.75470958851134928 0 0.65605901945558964 0.32802950972779482 0 -0.37735479425567464 1 I I #
coedge $-1 $462 $462 $-1 $649 reversed $299 $-1 #
edge $-1 $650 0 $650 6.2831853071796004 $300 $651 forward 7 unknown #
vertex $-1 $303 $652 #
ellipse-curve $-1 46.045055069826972 0 11.192711236035493 0.75470958851134928 0 0.65605901945558964 0.32802950972779482 0 -0.37735479425567464 1 I I #
coedge $-1 $466 $466 $-1 $653 reversed $306 $-1 #
edge $-1 $654 0 $654 6.2831853071796004 $307 $655 forward 7 unknown #
vertex $-1 $310 $656 #
ellipse-curve $-1 46.045055069826972 2.0806748198685412 11.192711236035493 0.75470958851134928 0 0.65605901945558964 0.32802950972779482 0 -0.37735479425567464 1 I I #
face $-1 $-1 $657 $64 $-1 $658 forward single #
loop $-1 $-1 $317 $311 #
plane-surface $-1 47.398907437360762 0 0 -1 0 0 0 0 1 forward_v I I I I #
coedge $-1 $659 $660 $661 $662 reversed $312 $-1 #
coedge $-1 $663 $314 $316 $480 forward $196 $-1 #
coedge $-1 $314 $663 $659 $664 forward $196 $-1 #
coedge $-1 $661 $317 $314 $477 forward $471 $-1 #
edge $-1 $483 1.5007022130853969 $665 8.4362849459805247 $476 $666 forward 7 unknown #
coedge $-1 $667 $668 $315 $479 forward $657 $-1 #
edge $-1 $669 16.315819792295891 $482 19.023524527363463 $478 $670 forward 7 unknown #
edge $-1 $483 -94.797814874721539 $669 -90.670587514423246 $316 $671 forward 7 unknown #
coedge $-1 $317 $661 $667 $672 reversed $471 $-1 #
vertex $-1 $672 $673 #
vertex $-1 $318 $674 #
straight-curve $-1 47.398907437360762 6.4691957926183576 71.686531766881103 0 0 -1 I I #
coedge $-1 $485 $485 $-1 $675 reversed $321 $-1 #
edge $-1 $676 0 $676 6.2831853071796004 $322 $677 forward 7 unknown #
vertex $-1 $325 $678 #
ellipse-curve $-1 46.045055069826972 7.8563123391973804 11.192711236035493 0.75470958851134928 0 0.65605901945558964 0.32802950972779482 0 -0.37735479425567464 1 I I #
coedge $-1 $489 $489 $-1 $679 reversed $328 $-1 #
edge $-1 $680 0 $680 6.2831853071796004 $329 $681 forward 7 unknown #
vertex $-1 $332 $682 #
ellipse-curve $-1 46.045055069826972 9.9369871590659216 11.192711236035493 0.75470958851134928 0 0.65605901945558964 0.32802950972779482 0 -0.37735479425567464 1 I I #
coedge $-1 $493 $493 $-1 $683 reversed $335 $-1 #
edge $-1 $684 0 $684 6.2831853071796004 $336 $685 forward 7 unknown #
vertex $-1 $339 $686 #
ellipse-curve $-1 46.045055069826972 12.017661978934463 11.192711236035493 0.75470958851134928 0 0.65605901945558964 0.32802950972779482 0 -0.37735479425567464 1 I I #
face $-1 $-1 $355 $51 $-1 $687 reversed single #
loop $-1 $-1 $513 $340 #
plane-surface $-1 0 30.459153857685685 0 0 -1 0 0 0 -1 forward_v I I I I #
coedge $-1 $688 $511 $514 $689 forward $341 $-1 #
coedge $-1 $517 $343 $344 $505 reversed $215 $-1 #
coedge $-1 $511 $688 $343 $503 reversed $341 $-1 #
edge $-1 $518 -12.750140267427241 $690 12.750140267427241 $502 $691 forward 7 unknown #
coedge $-1 $345 $344 $688 $692 forward $137 $-1 #
edge $-1 $509 -47.398907437360762 $690 47.398907437360762 $501 $693 forward 7 unknown #
coedge $-1 $514 $513 $345 $507 reversed $498 $-1 #
edge $-1 $694 -47.398907437360762 $508 47.398907437360762 $506 $695 forward 7 unknown #
vertex $-1 $347 $696 #
vertex $-1 $520 $697 #
straight-curve $-1 47.398907437360762 0 -12.750140267427241 0 -1 0 I I #
coedge $-1 $500 $502 $348 $512 reversed $341 $-1 #
edge $-1 $515 -30.459153857685685 $518 30.459153857685685 $511 $698 forward 7 unknown #
coedge $-1 $506 $349 $354 $521 forward $498 $-1 #
coedge $-1 $349 $506 $500 $689 reversed $498 $-1 #
vertex $-1 $350 $699 #
straight-curve $-1 0 30.459153857685685 12.750140267427241 -1 0 0 I I #
coedge $-1 $351 $501 $353 $520 reversed $215 $-1 #
vertex $-1 $512 $700 #
straight-curve $-1 0 -30.459153857685685 12.750140267427241 1 0 0 I I #
edge $-1 $356 -12.750140267427241 $509 12.750140267427241 $353 $701 forward 7 unknown #
edge $-1 $357 -12.750140267427241 $508 12.750140267427241 $354 $702 forward 7 unknown #
point $-1 47.398907437360762 -30.459153857685685 12.750140267427241 #
point $-1 47.398907437360762 30.459153857685685 12.750140267427241 #
face $-1 $-1 $374 $52 $-1 $703 reversed single #
loop $-1 $-1 $370 $359 #
plane-surface $-1 0 -30.459153857685685 0 0 1 0 0 0 1 forward_v I I I I #
coedge $-1 $704 $705 $367 $537 forward $360 $-1 #
coedge $-1 $538 $362 $364 $533 reversed $223 $-1 #
edge $-1 $535 0.51791514719816067 $375 3.5499792053007182 $373 $706 forward 7 unknown #
coedge $-1 $364 $363 $707 $708 reversed $141 $-1 #
coedge $-1 $542 $541 $363 $532 forward $525 $-1 #
edge $-1 $709 -47.398907437360762 $534 47.398907437360762 $531 $710 forward 7 unknown #
edge $-1 $711 -47.398907437360762 $535 47.398907437360762 $528 $712 forward 7 unknown #
vertex $-1 $532 $713 #
vertex $-1 $366 $714 #
straight-curve $-1 47.398907437360762 -12.466685308885189 2.5518623234476001 0 1 0 I I #
edge $-1 $543 -17.992468548800495 $539 -6.9409020689698835 $527 $715 forward 7 unknown #
coedge $-1 $368 $528 $704 $716 reversed $223 $-1 #
vertex $-1 $537 $717 #
straight-curve $-1 0 -19.407587377855073 5.5839263815501576 -1 0 0 I I #
coedge $-1 $531 $370 $705 $718 forward $525 $-1 #
coedge $-1 $370 $531 $372 $545 reversed $525 $-1 #
vertex $-1 $718 $719 #
straight-curve $-1 0 -30.459153857685685 5.5839263815501576 -1 0 0 I I #
edge $-1 $376 -5.5839263815501576 $534 -2.5518623234476001 $372 $720 forward 7 unknown #
point $-1 47.398907437360762 -19.407587377855073 5.5839263815501576 #
point $-1 47.398907437360762 -30.459153857685685 5.5839263815501576 #
face $-1 $-1 $565 $53 $-1 $721 reversed single #
loop $-1 $-1 $561 $378 #
plane-surface $-1 -47.398907437360762 0 0 1 0 0 0 0 -1 forward_v I I I I #
coedge $-1 $568 $381 $382 $555 reversed $231 $-1 #
coedge $-1 $561 $722 $381 $553 forward $549 $-1 #
edge $-1 $723 0.51791514719816067 $569 3.5499792053007182 $552 $724 forward 7 unknown #
coedge $-1 $383 $382 $722 $725 reversed $145 $-1 #
edge $-1 $558 -47.398907437360762 $723 47.398907437360762 $551 $726 forward 7 unknown #
coedge $-1 $564 $563 $383 $557 forward $565 $-1 #
edge $-1 $559 -47.398907437360762 $727 47.398907437360762 $556 $728 forward 7 unknown #
vertex $-1 $385 $729 #
vertex $-1 $557 $730 #
straight-curve $-1 47.398907437360762 12.466685308885189 2.5518623234476001 0 1 0 I I #
coedge $-1 $731 $552 $386 $562 forward $549 $-1 #
edge $-1 $569 6.9409020689698835 $566 17.992468548800495 $561 $732 forward 7 unknown #
coedge $-1 $556 $387 $392 $572 forward $565 $-1 #
coedge $-1 $387 $556 $731 $733 reversed $565 $-1 #
loop $-1 $-1 $387 $548 #
vertex $-1 $733 $734 #
straight-curve $-1 0 30.459153857685685 5.5839263815501576 1 0 0 I I #
coedge $-1 $389 $551 $391 $571 reversed $231 $-1 #
vertex $-1 $562 $735 #
straight-curve $-1 0 19.407587377855073 5.5839263815501576 1 0 0 I I #
edge $-1 $394 -3.5499792053007182 $558 -0.51791514719816067 $391 $736 forward 7 unknown #
edge $-1 $393 -5.5839263815501576 $559 -2.5518623234476001 $392 $737 forward 7 unknown #
point $-1 47.398907437360762 30.459153857685685 5.5839263815501576 #
point $-1 47.398907437360762 19.407587377855073 5.5839263815501576 #
loop $-1 $-1 $404 $396 #
plane-surface $-1 0 0 12.750140267427241 0 0 1 1 0 0 forward_v I I I I #
coedge $-1 $578 $399 $401 $582 reversed $239 $-1 #
coedge $-1 $399 $577 $738 $739 reversed $239 $-1 #
coedge $-1 $407 $402 $399 $580 forward $397 $-1 #
edge $-1 $583 -35.399971488452522 $740 -30.440838106673866 $579 $741 forward 7 unknown #
coedge $-1 $401 $400 $586 $742 reversed $149 $-1 #
edge $-1 $743 -8.8683767024697371 $583 0 $577 $744 forward 7 unknown #
vertex $-1 $403 $745 #
straight-curve $-1 -47.398907437360762 0.92453709098244019 7.7910068856485868 0 -1 0 I I #
coedge $-1 $738 $404 $407 $590 forward $575 $-1 #
coedge $-1 $404 $738 $581 $742 forward $575 $-1 #
vertex $-1 $405 $746 #
straight-curve $-1 -50.204586734398085 6.6050404029097152 12.750140267427241 -1 0 0 I I #
straight-curve $-1 -47.398907437360762 6.6050404029097152 7.791006885648585 0.82903756765294845 0 0.55919291073839883 I I #
edge $-1 $408 -6.6050404029097152 $740 2.9068920389799544 $407 $747 forward 7 unknown #
point $-1 -47.398907437360762 6.6050404029097152 12.750140267427241 #
point $-1 -47.398907437360762 6.6050404029097152 7.791006885648585 #
edge $-1 $748 1 $748 0 $411 $-1 forward 7 unknown #
vertex $-1 $412 $749 #
ellipse-curve $-1 -41.91096384940186 1.8490741819648804 7.5844179784490402 -0.55919291073839883 0 0.82903756765294845 0.82903756765294845 0 0.55919291073839883 1 I I #
point $-1 -42.893761144485026 1.8490741819648804 10.829766487276316 #
plane-surface $-1 47.398907437360762 0 0 -1 0 0 0 0 1 forward_v I I I I #
coedge $-1 $608 $607 $600 $750 forward $416 $-1 #
coedge $-1 $600 $418 $420 $604 reversed $254 $-1 #
coedge $-1 $418 $599 $598 $750 reversed $254 $-1 #
coedge $-1 $426 $421 $418 $602 forward $427 $-1 #
edge $-1 $605 -62.051249562237359 $751 -58.936391499453862 $601 $752 forward 7 unknown #
coedge $-1 $420 $419 $608 $753 reversed $158 $-1 #
edge $-1 $754 90.670587514423246 $605 94.797814874721539 $599 $755 forward 7 unknown #
vertex $-1 $422 $756 #
straight-curve $-1 47.398907437360762 -4.9684935795329608 9.6352822046437439 0 1 0 I I #
coedge $-1 $598 $423 $426 $612 forward $416 $-1 #
coedge $-1 $423 $598 $603 $753 forward $416 $-1 #
vertex $-1 $424 $757 #
straight-curve $-1 28.375382909997299 -13.404778525513485 12.750140267427241 1 0 0 I I #
straight-curve $-1 -14.794054035881544 -13.404778525513485 81.180102060519886 -0.65605901945558964 0 0.75470958851134928 I I #
edge $-1 $428 -13.404778525513485 $751 -6.4691957926183576 $426 $758 forward 7 unknown #
point $-1 47.398907437360762 -13.404778525513485 12.750140267427241 #
point $-1 47.398907437360762 -13.404778525513485 9.6352822046437439 #
edge $-1 $759 1 $759 0 $431 $-1 forward 7 unknown #
vertex $-1 $432 $760 #
ellipse-curve $-1 44.915812181996706 -12.017661978934459 10.211075394918856 0.75470958851134928 0 0.65605901945558964 0.32802950972779482 0 -0.37735479425567464 1 I I #
point $-1 46.373084579554771 -12.017661978934459 10.815356441779812 #
edge $-1 $761 1 $761 0 $435 $-1 forward 7 unknown #
vertex $-1 $436 $762 #
ellipse-curve $-1 44.915812181996706 -9.9369871590659216 10.211075394918856 0.75470958851134928 0 0.65605901945558964 0.32802950972779482 0 -0.37735479425567464 1 I I #
point $-1 46.373084579554771 -9.9369871590659216 10.815356441779812 #
edge $-1 $763 1 $763 0 $439 $-1 forward 7 unknown #
vertex $-1 $440 $764 #
ellipse-curve $-1 44.915812181996706 -7.8563123391973839 10.211075394918856 0.75470958851134928 0 0.65605901945558964 0.32802950972779482 0 -0.37735479425567464 1 I I #
point $-1 46.373084579554771 -7.8563123391973839 10.815356441779812 #
loop $-1 $-1 $451 $443 #
plane-surface $-1 0 0 12.750140267427241 0 0 1 1 0 0 forward_v I I I I #
coedge $-1 $630 $446 $448 $634 reversed $283 $-1 #
coedge $-1 $446 $629 $765 $766 reversed $283 $-1 #
coedge $-1 $454 $449 $446 $632 forward $444 $-1 #
edge $-1 $635 -62.051249562237359 $767 -58.936391499453862 $631 $768 forward 7 unknown #
coedge $-1 $448 $447 $638 $769 reversed $177 $-1 #
edge $-1 $770 90.670587514423246 $635 94.797814874721539 $629 $771 forward 7 unknown #
vertex $-1 $450 $772 #
straight-curve $-1 47.398907437360762 0 9.6352822046437439 0 1 0 I I #
coedge $-1 $765 $451 $454 $642 forward $627 $-1 #
coedge $-1 $451 $765 $633 $769 forward $627 $-1 #
vertex $-1 $452 $773 #
straight-curve $-1 28.375382909997299 -3.4677913664475639 12.750140267427241 1 0 0 I I #
straight-curve $-1 -14.794054035881544 -3.4677913664475639 81.180102060519886 -0.65605901945558964 0 0.75470958851134928 I I #
edge $-1 $455 -3.4677913664475639 $767 3.4677913664475639 $454 $774 forward 7 unknown #
point $-1 47.398907437360762 -3.4677913664475639 12.750140267427241 #
point $-1 47.398907437360762 -3.4677913664475639 9.6352822046437439 #
edge $-1 $775 1 $775 0 $458 $-1 forward 7 unknown #
vertex $-1 $459 $776 #
ellipse-curve $-1 44.915812181996706 -2.0806748198685376 10.211075394918856 0.75470958851134928 0 0.65605901945558964 0.32802950972779482 0 -0.37735479425567464 1 I I #
point $-1 46.373084579554771 -2.0806748198685376 10.815356441779812 #
edge $-1 $777 1 $777 0 $462 $-1 forward 7 unknown #
vertex $-1 $463 $778 #
ellipse-curve $-1 44.915812181996706 0 10.211075394918856 0.75470958851134928 0 0.65605901945558964 0.32802950972779482 0 -0.37735479425567464 1 I I #
point $-1 46.373084579554771 0 10.815356441779812 #
edge $-1 $779 1 $779 0 $466 $-1 forward 7 unknown #
vertex $-1 $467 $780 #
ellipse-curve $-1 44.915812181996706 2.0806748198685412 10.211075394918856 0.75470958851134928 0 0.65605901945558964 0.32802950972779482 0 -0.37735479425567464 1 I I #
point $-1 46.373084579554771 2.0806748198685412 10.815356441779812 #
loop $-1 $-1 $478 $470 #
plane-surface $-1 0 0 12.750140267427241 0 0 1 1 0 0 forward_v I I I I #
coedge $-1 $660 $473 $475 $664 reversed $312 $-1 #
coedge $-1 $473 $659 $781 $782 reversed $312 $-1 #
coedge $-1 $481 $476 $473 $662 forward $471 $-1 #
edge $-1 $665 -62.051249562237359 $783 -58.936391499453862 $661 $784 forward 7 unknown #
coedge $-1 $475 $474 $668 $785 reversed $196 $-1 #
edge $-1 $786 90.670587514423246 $665 94.797814874721539 $659 $787 forward 7 unknown #
vertex $-1 $477 $788 #
straight-curve $-1 47.398907437360762 4.9684935795329608 9.6352822046437439 0 1 0 I I #
coedge $-1 $781 $478 $481 $672 forward $657 $-1 #
coedge $-1 $478 $781 $663 $785 forward $657 $-1 #
vertex $-1 $479 $789 #
straight-curve $-1 28.375382909997299 6.4691957926183576 12.750140267427241 1 0 0 I I #
straight-curve $-1 -14.794054035881544 6.4691957926183576 81.180102060519886 -0.65605901945558964 0 0.75470958851134928 I I #
edge $-1 $482 6.4691957926183576 $783 13.404778525513485 $481 $790 forward 7 unknown #
point $-1 47.398907437360762 6.4691957926183576 12.750140267427241 #
point $-1 47.398907437360762 6.4691957926183576 9.6352822046437439 #
edge $-1 $791 1 $791 0 $485 $-1 forward 7 unknown #
vertex $-1 $486 $792 #
ellipse-curve $-1 44.915812181996706 7.8563123391973804 10.211075394918856 0.75470958851134928 0 0.65605901945558964 0.32802950972779482 0 -0.37735479425567464 1 I I #
point $-1 46.373084579554771 7.8563123391973804 10.815356441779812 #
edge $-1 $793 1 $793 0 $489 $-1 forward 7 unknown #
vertex $-1 $490 $794 #
ellipse-curve $-1 44.915812181996706 9.9369871590659216 10.211075394918856 0.75470958851134928 0 0.65605901945558964 0.32802950972779482 0 -0.37735479425567464 1 I I #
point $-1 46.373084579554771 9.9369871590659216 10.815356441779812 #
edge $-1 $795 1 $795 0 $493 $-1 forward 7 unknown #
vertex $-1 $494 $796 #
ellipse-curve $-1 44.915812181996706 12.017661978934463 10.211075394918856 0.75470958851134928 0 0.65605901945558964 0.32802950972779482 0 -0.37735479425567464 1 I I #
point $-1 46.373084579554771 12.017661978934463 10.815356441779812 #
plane-surface $-1 47.398907437360762 0 0 -1 0 0 0 0 1 forward_v I I I I #
coedge $-1 $502 $500 $504 $692 reversed $341 $-1 #
edge $-1 $515 -12.750140267427241 $694 12.750140267427241 $514 $797 forward 7 unknown #
vertex $-1 $692 $798 #
straight-curve $-1 -47.398907437360762 -30.459153857685685 0 0 0 -1 I I #
edge $-1 $690 -30.459153857685685 $694 30.459153857685685 $688 $799 forward 7 unknown #
straight-curve $-1 0 -30.459153857685685 -12.750140267427241 -1 0 0 I I #
vertex $-1 $507 $800 #
straight-curve $-1 0 30.459153857685685 -12.750140267427241 1 0 0 I I #
point $-1 47.398907437360762 30.459153857685685 -12.750140267427241 #
point $-1 47.398907437360762 -30.459153857685685 -12.750140267427241 #
straight-curve $-1 -47.398907437360762 0 12.750140267427241 0 -1 0 I I #
point $-1 -47.398907437360762 30.459153857685685 12.750140267427241 #
point $-1 -47.398907437360762 -30.459153857685685 12.750140267427241 #
straight-curve $-1 47.398907437360762 -30.459153857685685 0 0 0 -1 I I #
straight-curve $-1 47.398907437360762 30.459153857685685 0 0 0 -1 I I #
plane-surface $-1 47.398907437360762 0 0 -1 0 0 0 0 1 forward_v I I I I #
coedge $-1 $707 $527 $538 $716 forward $360 $-1 #
coedge $-1 $527 $707 $541 $718 reversed $360 $-1 #
straight-curve $-1 47.398907437360762 -19.407587377855073 2.0339471762494394 0 0 1 I I #
coedge $-1 $705 $704 $530 $708 forward $360 $-1 #
edge $-1 $711 6.9409020689698835 $709 17.992468548800495 $707 $801 forward 7 unknown #
vertex $-1 $532 $802 #
straight-curve $-1 0 -30.459153857685685 2.5518623234476001 1 0 0 I I #
vertex $-1 $708 $803 #
straight-curve $-1 0 -19.407587377855073 2.5518623234476001 1 0 0 I I #
point $-1 47.398907437360762 -30.459153857685685 2.5518623234476001 #
point $-1 47.398907437360762 -19.407587377855073 2.5518623234476001 #
straight-curve $-1 -47.398907437360762 -12.466685308885189 5.5839263815501576 0 1 0 I I #
edge $-1 $539 -3.5499792053007182 $711 -0.51791514719816067 $704 $804 forward 7 unknown #
point $-1 -47.398907437360762 -19.407587377855073 5.5839263815501576 #
edge $-1 $543 -5.5839263815501576 $709 -2.5518623234476001 $705 $805 forward 7 unknown #
point $-1 -47.398907437360762 -30.459153857685685 5.5839263815501576 #
straight-curve $-1 47.398907437360762 -30.459153857685685 0 0 0 -1 I I #
plane-surface $-1 0 30.459153857685685 0 0 -1 0 0 0 -1 forward_v I I I I #
coedge $-1 $552 $731 $554 $725 forward $549 $-1 #
vertex $-1 $725 $806 #
straight-curve $-1 -47.398907437360762 19.407587377855073 2.0339471762494394 0 0 1 I I #
edge $-1 $727 -17.992468548800495 $723 -6.9409020689698835 $722 $807 forward 7 unknown #
straight-curve $-1 0 19.407587377855073 2.5518623234476001 -1 0 0 I I #
vertex $-1 $557 $808 #
straight-curve $-1 0 30.459153857685685 2.5518623234476001 -1 0 0 I I #
point $-1 47.398907437360762 19.407587377855073 2.5518623234476001 #
point $-1 47.398907437360762 30.459153857685685 2.5518623234476001 #
coedge $-1 $722 $561 $564 $733 forward $549 $-1 #
straight-curve $-1 -47.398907437360762 12.466685308885189 5.5839263815501576 0 1 0 I I #
edge $-1 $566 -5.5839263815501576 $727 -2.5518623234476001 $564 $809 forward 7 unknown #
point $-1 -47.398907437360762 30.459153857685685 5.5839263815501576 #
point $-1 -47.398907437360762 19.407587377855073 5.5839263815501576 #
straight-curve $-1 47.398907437360762 19.407587377855073 2.0339471762494394 0 0 -1 I I #
straight-curve $-1 47.398907437360762 30.459153857685685 0 0 0 -1 I I #
coedge $-1 $586 $585 $578 $739 forward $575 $-1 #
edge $-1 $740 2.8056792970373223 $743 10.157896747482908 $738 $810 forward 7 unknown #
vertex $-1 $739 $811 #
straight-curve $-1 -47.398907437360762 -2.9068920389799544 43.190978374101107 0 0 1 I I #
edge $-1 $743 -3.8314291299623946 $587 5.680503311927275 $586 $812 forward 7 unknown #
vertex $-1 $742 $813 #
straight-curve $-1 -47.398907437360762 -2.9068920389799544 7.791006885648585 -0.82903756765294845 0 -0.55919291073839883 I I #
point $-1 -47.398907437360762 -2.9068920389799544 7.791006885648585 #
point $-1 -40.046689986915176 6.6050404029097152 12.750140267427241 #
straight-curve $-1 -47.398907437360762 0 12.750140267427241 0 -1 0 I I #
vertex $-1 $593 $814 #
point $-1 -41.081926281748906 1.8490741819648804 8.143610889187439 #
edge $-1 $751 -19.023524527363463 $754 -16.315819792295891 $598 $815 forward 7 unknown #
vertex $-1 $602 $816 #
straight-curve $-1 47.398907437360762 -6.4691957926183576 71.686531766881103 0 0 1 I I #
edge $-1 $754 1.5007022130853969 $609 8.4362849459805247 $608 $817 forward 7 unknown #
vertex $-1 $753 $818 #
straight-curve $-1 -14.794054035881544 -6.4691957926183576 81.180102060519886 0.65605901945558964 0 -0.75470958851134928 I I #
point $-1 47.398907437360762 -6.4691957926183576 9.6352822046437439 #
point $-1 44.691202702293189 -13.404778525513485 12.750140267427241 #
straight-curve $-1 47.398907437360762 0 12.750140267427241 0 1 0 I I #
vertex $-1 $615 $819 #
point $-1 45.243841691724498 -12.017661978934459 9.833720600663181 #
vertex $-1 $619 $820 #
point $-1 45.243841691724498 -9.9369871590659216 9.833720600663181 #
vertex $-1 $623 $821 #
point $-1 45.243841691724498 -7.8563123391973839 9.833720600663181 #
coedge $-1 $638 $637 $630 $766 forward $627 $-1 #
edge $-1 $767 -19.023524527363463 $770 -16.315819792295891 $765 $822 forward 7 unknown #
vertex $-1 $766 $823 #
straight-curve $-1 47.398907437360762 3.4677913664475639 71.686531766881103 0 0 1 I I #
edge $-1 $770 -3.4677913664475639 $639 3.4677913664475639 $638 $824 forward 7 unknown #
vertex $-1 $769 $825 #
straight-curve $-1 -14.794054035881544 3.4677913664475639 81.180102060519886 0.65605901945558964 0 -0.75470958851134928 I I #
point $-1 47.398907437360762 3.4677913664475639 9.6352822046437439 #
point $-1 44.691202702293189 -3.4677913664475639 12.750140267427241 #
straight-curve $-1 47.398907437360762 0 12.750140267427241 0 1 0 I I #
vertex $-1 $645 $826 #
point $-1 45.243841691724498 -2.0806748198685376 9.833720600663181 #
vertex $-1 $649 $827 #
point $-1 45.243841691724498 0 9.833720600663181 #
vertex $-1 $653 $828 #
point $-1 45.243841691724498 2.0806748198685412 9.833720600663181 #
coedge $-1 $668 $667 $660 $782 forward $657 $-1 #
edge $-1 $783 -19.023524527363463 $786 -16.315819792295891 $781 $829 forward 7 unknown #
vertex $-1 $782 $830 #
straight-curve $-1 47.398907437360762 13.404778525513485 71.686531766881103 0 0 1 I I #
edge $-1 $786 -8.4362849459805247 $669 -1.5007022130853969 $668 $831 forward 7 unknown #
vertex $-1 $785 $832 #
straight-curve $-1 -14.794054035881544 13.404778525513485 81.180102060519886 0.65605901945558964 0 -0.75470958851134928 I I #
point $-1 47.398907437360762 13.404778525513485 9.6352822046437439 #
point $-1 44.691202702293189 6.4691957926183576 12.750140267427241 #
straight-curve $-1 47.398907437360762 0 12.750140267427241 0 1 0 I I #
vertex $-1 $675 $833 #
point $-1 45.243841691724498 7.8563123391973804 9.833720600663181 #
vertex $-1 $679 $834 #
point $-1 45.243841691724498 9.9369871590659216 9.833720600663181 #
vertex $-1 $683 $835 #
point $-1 45.243841691724498 12.017661978934463 9.833720600663181 #
straight-curve $-1 -47.398907437360762 30.459153857685685 0 0 0 -1 I I #
point $-1 -47.398907437360762 -30.459153857685685 -12.750140267427241 #
straight-curve $-1 -47.398907437360762 0 -12.750140267427241 0 1 0 I I #
point $-1 -47.398907437360762 30.459153857685685 -12.750140267427241 #
straight-curve $-1 -47.398907437360762 -12.466685308885189 2.5518623234476001 0 -1 0 I I #
point $-1 -47.398907437360762 -30.459153857685685 2.5518623234476001 #
point $-1 -47.398907437360762 -19.407587377855073 2.5518623234476001 #
straight-curve $-1 -47.398907437360762 -19.407587377855073 2.0339471762494394 0 0 -1 I I #
straight-curve $-1 -47.398907437360762 -30.459153857685685 0 0 0 -1 I I #
point $-1 -47.398907437360762 19.407587377855073 2.5518623234476001 #
straight-curve $-1 -47.398907437360762 12.466685308885189 2.5518623234476001 0 -1 0 I I #
point $-1 -47.398907437360762 30.459153857685685 2.5518623234476001 #
straight-curve $-1 -47.398907437360762 30.459153857685685 0 0 0 -1 I I #
straight-curve $-1 -50.204586734398085 -2.9068920389799544 12.750140267427241 1 0 0 I I #
point $-1 -47.398907437360762 -2.9068920389799544 12.750140267427241 #
straight-curve $-1 -40.046689986915169 0.92453709098244019 12.750140267427241 0 1 0 I I #
point $-1 -40.046689986915176 -2.9068920389799544 12.750140267427241 #
point $-1 -41.351770938663456 1.8490741819648804 6.755380410796092 #
straight-curve $-1 28.375382909997299 -6.4691957926183576 12.750140267427241 -1 0 0 I I #
point $-1 47.398907437360762 -6.4691957926183576 12.750140267427241 #
straight-curve $-1 44.691202702293197 -4.9684935795329608 12.750140267427234 0 -1 0 I I #
point $-1 44.691202702293189 -6.4691957926183576 12.750140267427241 #
point $-1 44.538457387741026 -12.017661978934459 9.883045885191061 #
point $-1 44.538457387741026 -9.9369871590659216 9.883045885191061 #
point $-1 44.538457387741026 -7.8563123391973839 9.883045885191061 #
straight-curve $-1 28.375382909997299 3.4677913664475639 12.750140267427241 -1 0 0 I I #
point $-1 47.398907437360762 3.4677913664475639 12.750140267427241 #
straight-curve $-1 44.691202702293197 0 12.750140267427234 0 -1 0 I I #
point $-1 44.691202702293189 3.4677913664475639 12.750140267427241 #
point $-1 44.538457387741026 -2.0806748198685376 9.883045885191061 #
point $-1 44.538457387741026 0 9.883045885191061 #
point $-1 44.538457387741026 2.0806748198685412 9.883045885191061 #
straight-curve $-1 28.375382909997299 13.404778525513485 12.750140267427241 -1 0 0 I I #
point $-1 47.398907437360762 13.404778525513485 12.750140267427241 #
straight-curve $-1 44.691202702293197 4.9684935795329608 12.750140267427234 0 -1 0 I I #
point $-1 44.691202702293189 13.404778525513485 12.750140267427241 #
point $-1 44.538457387741026 7.8563123391973804 9.883045885191061 #
point $-1 44.538457387741026 9.9369871590659216 9.883045885191061 #
point $-1 44.538457387741026 12.017661978934463 9.883045885191061 #
End-of-ACIS-data 