500 0 8 0           
7 Unknown 11 ACIS 5.0 NT 24 Thu Mar 25 23:17:55 1999 
-1 9.9999999999999995e-007 1e-010 
body $-1 $8 $-1 $9 #
body $-1 $10 $-1 $11 #
body $-1 $12 $-1 $13 #
body $-1 $14 $-1 $15 #
body $-1 $16 $-1 $17 #
body $-1 $18 $-1 $19 #
body $-1 $20 $-1 $21 #
body $-1 $22 $-1 $23 #
lump $-1 $-1 $24 $0 #
transform $-1 1 0 0 0 1 0 0 0 1 59.039887691885127 34.511135987282657 12.190592470619926 1 rotate no_reflect no_shear #
lump $-1 $-1 $25 $1 #
transform $-1 1 0 0 0 1 0 0 0 1 59.039887691885127 34.511135987282657 12.190592470619926 1 rotate no_reflect no_shear #
lump $-1 $-1 $26 $2 #
transform $-1 1 0 0 0 1 0 0 0 1 59.039887691885127 34.511135987282657 12.190592470619926 1 rotate no_reflect no_shear #
lump $-1 $-1 $27 $3 #
transform $-1 1 0 0 0 1 0 0 0 1 59.039887691885127 34.511135987282657 12.190592470619926 1 rotate no_reflect no_shear #
lump $-1 $-1 $28 $4 #
transform $-1 1 0 0 0 1 0 0 0 1 59.039887691885127 34.511135987282657 12.190592470619926 1 rotate no_reflect no_shear #
lump $-1 $-1 $29 $5 #
transform $-1 1 0 0 0 1 0 0 0 1 59.039887691885127 34.511135987282657 12.190592470619926 1 rotate no_reflect no_shear #
lump $-1 $-1 $30 $6 #
transform $-1 1 0 0 0 1 0 0 0 1 59.039887691885127 34.511135987282657 12.190592470619926 1 rotate no_reflect no_shear #
lump $-1 $-1 $31 $7 #
transform $-1 1 0 0 0 1 0 0 0 1 59.039887691885127 34.511135987282657 12.190592470619926 1 rotate no_reflect no_shear #
shell $-1 $-1 $-1 $32 $-1 $8 #
shell $-1 $-1 $-1 $33 $-1 $10 #
shell $-1 $-1 $-1 $34 $-1 $12 #
shell $-1 $-1 $-1 $35 $-1 $14 #
shell $-1 $-1 $-1 $36 $-1 $16 #
shell $-1 $-1 $-1 $37 $-1 $18 #
shell $-1 $-1 $-1 $38 $-1 $20 #
shell $-1 $-1 $-1 $39 $-1 $22 #
face $-1 $40 $41 $24 $-1 $42 forward single #
face $-1 $43 $44 $25 $-1 $45 forward single #
face $-1 $46 $47 $26 $-1 $48 reversed single #
face $-1 $49 $50 $27 $-1 $51 forward single #
face $-1 $52 $53 $28 $-1 $54 forward single #
face $-1 $55 $56 $29 $-1 $57 reversed single #
face $-1 $58 $59 $30 $-1 $60 forward single #
face $-1 $61 $62 $31 $-1 $63 forward single #
face $-1 $64 $65 $24 $-1 $66 reversed single #
loop $-1 $-1 $67 $32 #
plane-surface $-1 0 0 12.190592470619926 0 0 1 1 0 0 forward_v I I I I #
face $-1 $68 $69 $25 $-1 $70 forward single #
loop $-1 $-1 $71 $33 #
plane-surface $-1 0 -34.511135987282657 0 0 1 0 0 0 1 forward_v I I I I #
face $-1 $72 $73 $26 $-1 $74 reversed single #
loop $-1 $-1 $75 $34 #
plane-surface $-1 32.916894809951472 -6.8639542109622056 172.85381895112289 0 -1 0 -0.5877852598018023 0 -0.80901698891910034 forward_v I I I I #
face $-1 $76 $77 $27 $-1 $78 forward single #
loop $-1 $79 $80 $35 #
cone-surface $-1 55.696070222439985 -13.507257781811681 9.4982133095819385 -0.5877852598018023 0 -0.80901698891910034 0.80901698891910034 0 -0.5877852598018023 1 I I 0 1 1 forward I I I I #
face $-1 $81 $82 $28 $-1 $83 forward single #
loop $-1 $84 $85 $36 #
cone-surface $-1 55.696070222439985 -9.5212756393019937 9.4982133095819385 -0.5877852598018023 0 -0.80901698891910034 0.80901698891910034 0 -0.5877852598018023 1 I I 0 1 1 forward I I I I #
face $-1 $86 $87 $29 $-1 $88 reversed single #
loop $-1 $-1 $89 $37 #
plane-surface $-1 32.916894809951472 25.407650341631935 172.85381895112289 0 -1 0 -0.5877852598018023 0 -0.80901698891910034 forward_v I I I I #
face $-1 $90 $91 $30 $-1 $92 forward single #
loop $-1 $93 $94 $38 #
cone-surface $-1 55.696070222439985 18.76434677078246 9.4982133095819385 -0.5877852598018023 0 -0.80901698891910034 0.80901698891910034 0 -0.5877852598018023 1 I I 0 1 1 forward I I I I #
face $-1 $95 $96 $31 $-1 $97 forward single #
loop $-1 $98 $99 $39 #
cone-surface $-1 55.696070222439985 22.750328913292151 9.4982133095819385 -0.5877852598018023 0 -0.80901698891910034 0.80901698891910034 0 -0.5877852598018023 1 I I 0 1 1 forward I I I I #
face $-1 $100 $101 $24 $-1 $102 reversed single #
loop $-1 $-1 $103 $40 #
plane-surface $-1 0 0 -12.190592470619926 0 0 1 1 0 0 forward_v I I I I #
coedge $-1 $104 $105 $106 $107 forward $41 $-1 #
face $-1 $108 $109 $25 $-1 $110 reversed single #
loop $-1 $-1 $111 $43 #
plane-surface $-1 0 0 12.190592470619926 0 0 1 1 0 0 forward_v I I I I #
coedge $-1 $112 $113 $114 $115 forward $44 $-1 #
face $-1 $116 $117 $26 $-1 $118 reversed single #
loop $-1 $-1 $119 $46 #
plane-surface $-1 -36.488656641336391 -11.514266710556839 77.325274617901357 0.5877852598018023 0 0.80901698891910034 0.80901698891910034 0 -0.5877852598018023 forward_v I I I I #
coedge $-1 $120 $121 $122 $123 reversed $47 $-1 #
face $-1 $-1 $124 $27 $-1 $125 forward single #
loop $-1 $126 $127 $49 #
cone-surface $-1 54.997533713087833 -13.507257781811681 8.5367603060876078 -0.5877852598018023 0 -0.80901698891910034 0.40450849445955017 0 -0.29389262990090115 1 I I -0.70710678118654746 0.70710678118654746 0.5 forward I I I I #
loop $-1 $-1 $128 $35 #
coedge $-1 $80 $80 $129 $130 reversed $50 $-1 #
face $-1 $-1 $131 $28 $-1 $132 forward single #
loop $-1 $133 $134 $52 #
cone-surface $-1 54.997533713087833 -9.5212756393019937 8.5367603060876078 -0.5877852598018023 0 -0.80901698891910034 0.40450849445955017 0 -0.29389262990090115 1 I I -0.70710678118654746 0.70710678118654746 0.5 forward I I I I #
loop $-1 $-1 $135 $36 #
coedge $-1 $85 $85 $136 $137 reversed $53 $-1 #
face $-1 $138 $139 $29 $-1 $140 reversed single #
loop $-1 $-1 $141 $55 #
plane-surface $-1 -36.488656641336391 20.757337842037302 77.325274617901357 0.5877852598018023 0 0.80901698891910034 0.80901698891910034 0 -0.5877852598018023 forward_v I I I I #
coedge $-1 $142 $143 $144 $145 reversed $56 $-1 #
face $-1 $-1 $146 $30 $-1 $147 forward single #
loop $-1 $148 $149 $58 #
cone-surface $-1 54.997533713087833 18.76434677078246 8.5367603060876078 -0.5877852598018023 0 -0.80901698891910034 0.40450849445955017 0 -0.29389262990090115 1 I I -0.70710678118654746 0.70710678118654746 0.5 forward I I I I #
loop $-1 $-1 $150 $38 #
coedge $-1 $94 $94 $151 $152 reversed $59 $-1 #
face $-1 $-1 $153 $31 $-1 $154 forward single #
loop $-1 $155 $156 $61 #
cone-surface $-1 54.997533713087833 22.750328913292151 8.5367603060876078 -0.5877852598018023 0 -0.80901698891910034 0.40450849445955017 0 -0.29389262990090115 1 I I -0.70710678118654746 0.70710678118654746 0.5 forward I I I I #
loop $-1 $-1 $157 $39 #
coedge $-1 $99 $99 $158 $159 reversed $62 $-1 #
face $-1 $160 $161 $24 $-1 $162 reversed single #
loop $-1 $-1 $163 $64 #
plane-surface $-1 0 -34.511135987282657 0 0 1 0 0 0 1 forward_v I I I I #
coedge $-1 $164 $165 $166 $167 forward $65 $-1 #
coedge $-1 $168 $67 $169 $170 forward $41 $-1 #
coedge $-1 $67 $168 $171 $172 forward $41 $-1 #
coedge $-1 $173 $174 $67 $107 reversed $175 $-1 #
edge $-1 $176 -34.511135987282657 $177 34.511135987282657 $106 $178 forward 7 unknown #
face $-1 $179 $180 $25 $-1 $181 reversed single #
loop $-1 $-1 $182 $68 #
plane-surface $-1 -59.039887691885127 0 0 1 0 0 0 0 -1 forward_v I I I I #
coedge $-1 $183 $184 $185 $186 forward $69 $-1 #
coedge $-1 $185 $71 $182 $187 reversed $44 $-1 #
coedge $-1 $71 $185 $188 $189 reversed $44 $-1 #
coedge $-1 $190 $191 $71 $115 reversed $180 $-1 #
edge $-1 $192 -59.039887691885127 $193 59.039887691885127 $114 $194 forward 7 unknown #
face $-1 $195 $196 $26 $-1 $197 reversed single #
loop $-1 $-1 $198 $72 #
plane-surface $-1 32.916894809951472 -16.164579210151473 172.85381895112289 0 1 0 0.5877852598018023 0 0.80901698891910034 forward_v I I I I #
coedge $-1 $199 $200 $201 $202 reversed $73 $-1 #
coedge $-1 $121 $75 $203 $204 reversed $47 $-1 #
coedge $-1 $75 $120 $199 $205 reversed $47 $-1 #
coedge $-1 $201 $206 $75 $123 forward $207 $-1 #
edge $-1 $208 -42.581440286909391 $209 -36.703093106921649 $122 $210 forward 7 unknown #
loop $-1 $-1 $129 $76 #
plane-surface $-1 -36.488656641336391 -11.514266710556839 77.325274617901357 0.5877852598018023 0 0.80901698891910034 0.80901698891910034 0 -0.5877852598018023 forward_v I I I I #
loop $-1 $-1 $211 $49 #
coedge $-1 $127 $127 $128 $212 reversed $77 $-1 #
coedge $-1 $128 $128 $127 $212 forward $79 $-1 #
coedge $-1 $129 $129 $80 $130 forward $124 $-1 #
edge $-1 $213 0 $213 6.2831853071796004 $129 $214 forward 7 unknown #
loop $-1 $-1 $136 $81 #
plane-surface $-1 -36.488656641336391 -11.514266710556839 77.325274617901357 0.5877852598018023 0 0.80901698891910034 0.80901698891910034 0 -0.5877852598018023 forward_v I I I I #
loop $-1 $-1 $215 $52 #
coedge $-1 $134 $134 $135 $216 reversed $82 $-1 #
coedge $-1 $135 $135 $134 $216 forward $84 $-1 #
coedge $-1 $136 $136 $85 $137 forward $131 $-1 #
edge $-1 $217 0 $217 6.2831853071796004 $136 $218 forward 7 unknown #
face $-1 $219 $220 $29 $-1 $221 reversed single #
loop $-1 $-1 $222 $86 #
plane-surface $-1 32.916894809951472 16.107025342442668 172.85381895112289 0 1 0 0.5877852598018023 0 0.80901698891910034 forward_v I I I I #
coedge $-1 $223 $224 $225 $226 reversed $87 $-1 #
coedge $-1 $143 $89 $227 $228 reversed $56 $-1 #
coedge $-1 $89 $142 $223 $229 reversed $56 $-1 #
coedge $-1 $225 $230 $89 $145 forward $231 $-1 #
edge $-1 $232 -42.581440286909391 $233 -36.703093106921649 $144 $234 forward 7 unknown #
loop $-1 $-1 $151 $90 #
plane-surface $-1 -36.488656641336391 20.757337842037302 77.325274617901357 0.5877852598018023 0 0.80901698891910034 0.80901698891910034 0 -0.5877852598018023 forward_v I I I I #
loop $-1 $-1 $235 $58 #
coedge $-1 $149 $149 $150 $236 reversed $91 $-1 #
coedge $-1 $150 $150 $149 $236 forward $93 $-1 #
coedge $-1 $151 $151 $94 $152 forward $146 $-1 #
edge $-1 $237 0 $237 6.2831853071796004 $151 $238 forward 7 unknown #
loop $-1 $-1 $158 $95 #
plane-surface $-1 -36.488656641336391 20.757337842037302 77.325274617901357 0.5877852598018023 0 0.80901698891910034 0.80901698891910034 0 -0.5877852598018023 forward_v I I I I #
loop $-1 $-1 $239 $61 #
coedge $-1 $156 $156 $157 $240 reversed $96 $-1 #
coedge $-1 $157 $157 $156 $240 forward $98 $-1 #
coedge $-1 $158 $158 $99 $159 forward $153 $-1 #
edge $-1 $241 0 $241 6.2831853071796004 $158 $242 forward 7 unknown #
face $-1 $243 $244 $24 $-1 $245 reversed single #
loop $-1 $-1 $246 $100 #
plane-surface $-1 -59.039887691885127 0 0 1 0 0 0 0 -1 forward_v I I I I #
coedge $-1 $247 $171 $248 $249 forward $101 $-1 #
coedge $-1 $250 $103 $247 $251 forward $65 $-1 #
coedge $-1 $103 $250 $252 $253 forward $65 $-1 #
coedge $-1 $174 $173 $103 $167 reversed $175 $-1 #
edge $-1 $254 -34.511135987282657 $255 34.511135987282657 $166 $256 forward 7 unknown #
coedge $-1 $105 $104 $257 $258 forward $41 $-1 #
coedge $-1 $259 $260 $104 $170 reversed $244 $-1 #
edge $-1 $177 -59.039887691885127 $261 59.039887691885127 $169 $262 forward 7 unknown #
coedge $-1 $163 $263 $105 $172 reversed $101 $-1 #
edge $-1 $264 -59.039887691885127 $176 59.039887691885127 $171 $265 forward 7 unknown #
coedge $-1 $166 $106 $263 $266 forward $175 $-1 #
coedge $-1 $106 $166 $259 $267 reversed $175 $-1 #
loop $-1 $-1 $173 $243 #
vertex $-1 $107 $268 #
vertex $-1 $107 $269 #
straight-curve $-1 59.039887691885127 0 12.190592470619926 0 1 0 I I #
face $-1 $270 $271 $25 $-1 $272 reversed single #
loop $-1 $-1 $190 $108 #
plane-surface $-1 0 -39.132671553022888 6.9492366905794061 0 0 1 1 0 0 forward_v I I I I #
coedge $-1 $273 $274 $112 $187 forward $109 $-1 #
coedge $-1 $275 $111 $274 $276 forward $69 $-1 #
coedge $-1 $111 $275 $277 $278 forward $69 $-1 #
coedge $-1 $113 $112 $111 $186 reversed $44 $-1 #
edge $-1 $279 -59.039887691885127 $280 59.039887691885127 $111 $281 forward 7 unknown #
edge $-1 $280 -12.190592470619926 $193 -6.9492366905794061 $182 $282 forward 7 unknown #
coedge $-1 $277 $283 $113 $189 forward $284 $-1 #
edge $-1 $192 6.9492366905794061 $279 12.190592470619926 $188 $285 forward 7 unknown #
coedge $-1 $286 $114 $283 $287 forward $180 $-1 #
coedge $-1 $114 $286 $273 $288 forward $180 $-1 #
vertex $-1 $189 $289 #
vertex $-1 $187 $290 #
straight-curve $-1 0 -34.511135987282657 6.9492366905794061 -1 0 0 I I #
face $-1 $-1 $207 $26 $-1 $291 forward single #
loop $-1 $-1 $292 $116 #
plane-surface $-1 59.039887691885127 0 0 -1 0 0 0 0 1 forward_v I I I I #
coedge $-1 $293 $294 $295 $296 reversed $117 $-1 #
coedge $-1 $297 $119 $121 $205 forward $73 $-1 #
coedge $-1 $119 $297 $293 $298 forward $73 $-1 #
coedge $-1 $295 $122 $119 $202 forward $207 $-1 #
edge $-1 $209 1.106820855683786 $299 10.407445854873053 $201 $300 forward 7 unknown #
coedge $-1 $301 $302 $120 $204 forward $196 $-1 #
edge $-1 $303 -78.507186308947951 $208 -74.236317004941526 $203 $304 forward 7 unknown #
edge $-1 $209 110.81373862496054 $303 118.07977538377025 $121 $305 forward 7 unknown #
coedge $-1 $122 $295 $301 $306 forward $207 $-1 #
loop $-1 $-1 $295 $195 #
vertex $-1 $204 $307 #
vertex $-1 $123 $308 #
straight-curve $-1 16.458447404975736 -6.8639542109622056 12.190592470619933 -1 0 0 I I #
coedge $-1 $211 $211 $-1 $309 reversed $126 $-1 #
edge $-1 $310 0 $310 6.2831853071796004 $127 $311 forward 7 unknown #
vertex $-1 $130 $312 #
ellipse-curve $-1 56.100714101891235 -13.507257781811681 10.055157818616719 0.5877852598018023 0 0.80901698891910034 0.80901698891910034 0 -0.5877852598018023 1 I I #
coedge $-1 $215 $215 $-1 $313 reversed $133 $-1 #
edge $-1 $314 0 $314 6.2831853071796004 $134 $315 forward 7 unknown #
vertex $-1 $137 $316 #
ellipse-curve $-1 56.100714101891235 -9.5212756393019937 10.055157818616719 0.5877852598018023 0 0.80901698891910034 0.80901698891910034 0 -0.5877852598018023 1 I I #
face $-1 $-1 $231 $29 $-1 $317 forward single #
loop $-1 $-1 $318 $138 #
plane-surface $-1 59.039887691885127 0 0 -1 0 0 0 0 1 forward_v I I I I #
coedge $-1 $319 $320 $321 $322 reversed $139 $-1 #
coedge $-1 $323 $141 $143 $229 forward $87 $-1 #
coedge $-1 $141 $323 $319 $324 forward $87 $-1 #
coedge $-1 $321 $144 $141 $226 forward $231 $-1 #
edge $-1 $233 -15.028981420613285 $325 -5.7283564214240172 $225 $326 forward 7 unknown #
coedge $-1 $327 $328 $142 $228 forward $220 $-1 #
edge $-1 $329 -78.507186308947951 $232 -74.236317004941526 $227 $330 forward 7 unknown #
edge $-1 $233 110.81373862496054 $329 118.07977538377025 $143 $331 forward 7 unknown #
coedge $-1 $144 $321 $327 $332 forward $231 $-1 #
loop $-1 $-1 $321 $219 #
vertex $-1 $228 $333 #
vertex $-1 $145 $334 #
straight-curve $-1 16.458447404975736 25.407650341631935 12.190592470619933 -1 0 0 I I #
coedge $-1 $235 $235 $-1 $335 reversed $148 $-1 #
edge $-1 $336 0 $336 6.2831853071796004 $149 $337 forward 7 unknown #
vertex $-1 $152 $338 #
ellipse-curve $-1 56.100714101891235 18.76434677078246 10.055157818616719 0.5877852598018023 0 0.80901698891910034 0.80901698891910034 0 -0.5877852598018023 1 I I #
coedge $-1 $239 $239 $-1 $339 reversed $155 $-1 #
edge $-1 $340 0 $340 6.2831853071796004 $156 $341 forward 7 unknown #
vertex $-1 $159 $342 #
ellipse-curve $-1 56.100714101891235 22.750328913292151 10.055157818616719 0.5877852598018023 0 0.80901698891910034 0.80901698891910034 0 -0.5877852598018023 1 I I #
face $-1 $-1 $175 $24 $-1 $343 reversed single #
loop $-1 $-1 $259 $160 #
plane-surface $-1 0 34.511135987282657 0 0 -1 0 0 0 -1 forward_v I I I I #
coedge $-1 $344 $257 $260 $345 forward $161 $-1 #
coedge $-1 $263 $163 $164 $251 reversed $101 $-1 #
coedge $-1 $257 $344 $163 $249 reversed $161 $-1 #
edge $-1 $264 -12.190592470619926 $346 12.190592470619926 $248 $347 forward 7 unknown #
coedge $-1 $165 $164 $344 $348 forward $65 $-1 #
edge $-1 $255 -59.039887691885127 $346 59.039887691885127 $247 $349 forward 7 unknown #
coedge $-1 $260 $259 $165 $253 reversed $244 $-1 #
edge $-1 $350 -59.039887691885127 $254 59.039887691885127 $252 $351 forward 7 unknown #
vertex $-1 $167 $352 #
vertex $-1 $266 $353 #
straight-curve $-1 59.039887691885127 0 -12.190592470619926 0 -1 0 I I #
coedge $-1 $246 $248 $168 $258 reversed $161 $-1 #
edge $-1 $261 -34.511135987282657 $264 34.511135987282657 $257 $354 forward 7 unknown #
coedge $-1 $252 $169 $174 $267 forward $244 $-1 #
coedge $-1 $169 $252 $246 $345 reversed $244 $-1 #
vertex $-1 $170 $355 #
straight-curve $-1 0 34.511135987282657 12.190592470619926 -1 0 0 I I #
coedge $-1 $171 $247 $173 $266 reversed $101 $-1 #
vertex $-1 $258 $356 #
straight-curve $-1 0 -34.511135987282657 12.190592470619926 1 0 0 I I #
edge $-1 $176 -12.190592470619926 $255 12.190592470619926 $173 $357 forward 7 unknown #
edge $-1 $177 -12.190592470619926 $254 12.190592470619926 $174 $358 forward 7 unknown #
point $-1 59.039887691885127 -34.511135987282657 12.190592470619926 #
point $-1 59.039887691885127 34.511135987282657 12.190592470619926 #
face $-1 $-1 $284 $25 $-1 $359 reversed single #
loop $-1 $-1 $360 $179 #
plane-surface $-1 0 -43.754207118763119 9.569914580599665 0 1 0 0 0 1 forward_v I I I I #
coedge $-1 $361 $182 $191 $288 reversed $109 $-1 #
coedge $-1 $182 $361 $183 $276 reversed $109 $-1 #
coedge $-1 $184 $183 $362 $363 forward $69 $-1 #
edge $-1 $280 34.511135987282657 $364 43.754207118763119 $274 $365 forward 7 unknown #
coedge $-1 $366 $188 $184 $278 reversed $284 $-1 #
edge $-1 $367 -43.754207118763119 $279 -34.511135987282657 $277 $368 forward 7 unknown #
vertex $-1 $189 $369 #
vertex $-1 $276 $370 #
straight-curve $-1 0 -34.511135987282657 12.190592470619926 -1 0 0 I I #
straight-curve $-1 -59.039887691885127 -34.511135987282657 0 0 0 -1 I I #
coedge $-1 $188 $366 $190 $287 reversed $284 $-1 #
loop $-1 $-1 $188 $270 #
straight-curve $-1 59.039887691885127 -34.511135987282657 0 0 0 1 I I #
coedge $-1 $191 $190 $371 $372 forward $180 $-1 #
edge $-1 $192 -4.6215355657402313 $373 4.6215355657402313 $283 $374 forward 7 unknown #
edge $-1 $375 -4.6215355657402313 $193 4.6215355657402313 $273 $376 forward 7 unknown #
point $-1 59.039887691885127 -34.511135987282657 6.9492366905794061 #
point $-1 -59.039887691885127 -34.511135987282657 6.9492366905794061 #
plane-surface $-1 0 0 12.190592470619926 0 0 1 1 0 0 forward_v I I I I #
coedge $-1 $302 $301 $294 $377 forward $196 $-1 #
coedge $-1 $294 $198 $200 $298 reversed $117 $-1 #
coedge $-1 $198 $293 $292 $377 reversed $117 $-1 #
coedge $-1 $206 $201 $198 $296 forward $207 $-1 #
edge $-1 $299 36.703093106921649 $378 42.581440286909391 $295 $379 forward 7 unknown #
coedge $-1 $200 $199 $302 $380 reversed $73 $-1 #
edge $-1 $381 -118.07977538377025 $299 -110.81373862496054 $293 $382 forward 7 unknown #
vertex $-1 $202 $383 #
straight-curve $-1 53.161540511897364 -5.7571333552784196 12.190592470619926 0 -1 0 I I #
coedge $-1 $292 $203 $206 $306 reversed $196 $-1 #
coedge $-1 $203 $292 $297 $380 forward $196 $-1 #
vertex $-1 $204 $384 #
straight-curve $-1 59.039887691885127 -6.8639542109622056 86.426909475561445 0 0 1 I I #
straight-curve $-1 -36.488656641336391 -6.8639542109622056 77.325274617901357 0.80901698891910034 0 -0.5877852598018023 I I #
edge $-1 $378 -16.164579210151473 $208 -6.8639542109622056 $301 $385 forward 7 unknown #
point $-1 59.039887691885127 -6.8639542109622056 12.190592470619926 #
point $-1 53.161540511897385 -6.8639542109622056 12.190592470619919 #
edge $-1 $386 1 $386 0 $211 $-1 forward 7 unknown #
vertex $-1 $212 $387 #
ellipse-curve $-1 55.291426342988736 -13.507257781811681 8.9412688005471583 0.5877852598018023 0 0.80901698891910034 0.80901698891910034 0 -0.5877852598018023 1 I I #
point $-1 56.90973109081034 -13.507257781811681 9.4673725588149154 #
edge $-1 $388 1 $388 0 $215 $-1 forward 7 unknown #
vertex $-1 $216 $389 #
ellipse-curve $-1 55.291426342988736 -9.5212756393019937 8.9412688005471583 0.5877852598018023 0 0.80901698891910034 0.80901698891910034 0 -0.5877852598018023 1 I I #
point $-1 56.90973109081034 -9.5212756393019937 9.4673725588149154 #
plane-surface $-1 0 0 12.190592470619926 0 0 1 1 0 0 forward_v I I I I #
coedge $-1 $328 $327 $320 $390 forward $220 $-1 #
coedge $-1 $320 $222 $224 $324 reversed $139 $-1 #
coedge $-1 $222 $319 $318 $390 reversed $139 $-1 #
coedge $-1 $230 $225 $222 $322 forward $231 $-1 #
edge $-1 $325 36.703093106921649 $391 42.581440286909391 $321 $392 forward 7 unknown #
coedge $-1 $224 $223 $328 $393 reversed $87 $-1 #
edge $-1 $394 -118.07977538377025 $325 -110.81373862496054 $319 $395 forward 7 unknown #
vertex $-1 $226 $396 #
straight-curve $-1 53.161540511897364 10.378668921018651 12.190592470619926 0 -1 0 I I #
coedge $-1 $318 $227 $230 $332 reversed $220 $-1 #
coedge $-1 $227 $318 $323 $393 forward $220 $-1 #
vertex $-1 $228 $397 #
straight-curve $-1 59.039887691885127 25.407650341631935 86.426909475561445 0 0 1 I I #
straight-curve $-1 -36.488656641336391 25.407650341631935 77.325274617901357 0.80901698891910034 0 -0.5877852598018023 I I #
edge $-1 $391 16.107025342442668 $232 25.407650341631935 $327 $398 forward 7 unknown #
point $-1 59.039887691885127 25.407650341631935 12.190592470619926 #
point $-1 53.161540511897385 25.407650341631935 12.190592470619919 #
edge $-1 $399 1 $399 0 $235 $-1 forward 7 unknown #
vertex $-1 $236 $400 #
ellipse-curve $-1 55.291426342988736 18.76434677078246 8.9412688005471583 0.5877852598018023 0 0.80901698891910034 0.80901698891910034 0 -0.5877852598018023 1 I I #
point $-1 56.90973109081034 18.76434677078246 9.4673725588149154 #
edge $-1 $401 1 $401 0 $239 $-1 forward 7 unknown #
vertex $-1 $240 $402 #
ellipse-curve $-1 55.291426342988736 22.750328913292151 8.9412688005471583 0.5877852598018023 0 0.80901698891910034 0.80901698891910034 0 -0.5877852598018023 1 I I #
point $-1 56.90973109081034 22.750328913292151 9.4673725588149154 #
plane-surface $-1 59.039887691885127 0 0 -1 0 0 0 0 1 forward_v I I I I #
coedge $-1 $248 $246 $250 $348 reversed $161 $-1 #
edge $-1 $261 -12.190592470619926 $350 12.190592470619926 $260 $403 forward 7 unknown #
vertex $-1 $348 $404 #
straight-curve $-1 -59.039887691885127 -34.511135987282657 0 0 0 -1 I I #
edge $-1 $346 -34.511135987282657 $350 34.511135987282657 $344 $405 forward 7 unknown #
straight-curve $-1 0 -34.511135987282657 -12.190592470619926 -1 0 0 I I #
vertex $-1 $253 $406 #
straight-curve $-1 0 34.511135987282657 -12.190592470619926 1 0 0 I I #
point $-1 59.039887691885127 34.511135987282657 -12.190592470619926 #
point $-1 59.039887691885127 -34.511135987282657 -12.190592470619926 #
straight-curve $-1 -59.039887691885127 0 12.190592470619926 0 -1 0 I I #
point $-1 -59.039887691885127 34.511135987282657 12.190592470619926 #
point $-1 -59.039887691885127 -34.511135987282657 12.190592470619926 #
straight-curve $-1 59.039887691885127 -34.511135987282657 0 0 0 -1 I I #
straight-curve $-1 59.039887691885127 34.511135987282657 0 0 0 -1 I I #
plane-surface $-1 59.039887691885127 0 0 -1 0 0 0 0 1 forward_v I I I I #
coedge $-1 $371 $362 $361 $407 forward $271 $-1 #
coedge $-1 $274 $273 $360 $407 reversed $109 $-1 #
coedge $-1 $360 $408 $275 $363 reversed $271 $-1 #
edge $-1 $364 -59.039887691885127 $367 59.039887691885127 $362 $409 forward 7 unknown #
vertex $-1 $276 $410 #
straight-curve $-1 -59.039887691885127 0 12.190592470619926 0 -1 0 I I #
coedge $-1 $283 $277 $408 $411 forward $284 $-1 #
vertex $-1 $278 $412 #
straight-curve $-1 59.039887691885127 0 12.190592470619926 0 1 0 I I #
point $-1 59.039887691885127 -34.511135987282657 12.190592470619926 #
point $-1 -59.039887691885127 -34.511135987282657 12.190592470619926 #
coedge $-1 $408 $360 $286 $372 reversed $271 $-1 #
edge $-1 $373 -59.039887691885127 $375 59.039887691885127 $371 $413 forward 7 unknown #
vertex $-1 $411 $414 #
straight-curve $-1 59.039887691885127 -39.132671553022888 6.9492366905794061 0 -1 0 I I #
vertex $-1 $288 $415 #
straight-curve $-1 -59.039887691885127 -39.132671553022888 6.9492366905794061 0 1 0 I I #
edge $-1 $378 74.236317004941526 $381 78.507186308947951 $292 $416 forward 7 unknown #
vertex $-1 $306 $417 #
straight-curve $-1 16.458447404975736 -16.164579210151473 12.190592470619933 1 0 0 I I #
edge $-1 $381 -10.407445854873053 $303 -1.106820855683786 $302 $418 forward 7 unknown #
vertex $-1 $380 $419 #
straight-curve $-1 -36.488656641336391 -16.164579210151473 77.325274617901357 -0.80901698891910034 0 0.5877852598018023 I I #
point $-1 53.161540511897385 -16.164579210151473 12.190592470619919 #
point $-1 59.039887691885127 -6.8639542109622056 7.919723166613494 #
straight-curve $-1 59.039887691885127 0 12.190592470619926 0 1 0 I I #
vertex $-1 $309 $420 #
point $-1 56.100443331907833 -13.507257781811681 8.3534835407453549 #
vertex $-1 $313 $421 #
point $-1 56.100443331907833 -9.5212756393019937 8.3534835407453549 #
edge $-1 $391 74.236317004941526 $394 78.507186308947951 $318 $422 forward 7 unknown #
vertex $-1 $332 $423 #
straight-curve $-1 16.458447404975736 16.107025342442668 12.190592470619933 1 0 0 I I #
edge $-1 $394 5.7283564214240172 $329 15.028981420613285 $328 $424 forward 7 unknown #
vertex $-1 $393 $425 #
straight-curve $-1 -36.488656641336391 16.107025342442668 77.325274617901357 -0.80901698891910034 0 0.5877852598018023 I I #
point $-1 53.161540511897385 16.107025342442668 12.190592470619919 #
point $-1 59.039887691885127 25.407650341631935 7.919723166613494 #
straight-curve $-1 59.039887691885127 0 12.190592470619926 0 1 0 I I #
vertex $-1 $335 $426 #
point $-1 56.100443331907833 18.76434677078246 8.3534835407453549 #
vertex $-1 $339 $427 #
point $-1 56.100443331907833 22.750328913292151 8.3534835407453549 #
straight-curve $-1 -59.039887691885127 34.511135987282657 0 0 0 -1 I I #
point $-1 -59.039887691885127 -34.511135987282657 -12.190592470619926 #
straight-curve $-1 -59.039887691885127 0 -12.190592470619926 0 1 0 I I #
point $-1 -59.039887691885127 34.511135987282657 -12.190592470619926 #
edge $-1 $364 -2.620677890020259 $375 2.620677890020259 $361 $428 forward 7 unknown #
coedge $-1 $362 $371 $366 $411 reversed $271 $-1 #
straight-curve $-1 0 -43.754207118763119 12.190592470619924 1 0 0 I I #
point $-1 -59.039887691885127 -43.754207118763119 12.190592470619924 #
edge $-1 $367 -2.620677890020259 $373 2.620677890020259 $366 $429 forward 7 unknown #
point $-1 59.039887691885127 -43.754207118763119 12.190592470619924 #
straight-curve $-1 0 -43.754207118763119 6.9492366905794061 -1 0 0 I I #
point $-1 59.039887691885127 -43.754207118763119 6.9492366905794061 #
point $-1 -59.039887691885127 -43.754207118763119 6.9492366905794061 #
straight-curve $-1 59.039887691885127 -16.164579210151473 86.426909475561445 0 0 -1 I I #
point $-1 59.039887691885127 -16.164579210151473 12.190592470619926 #
straight-curve $-1 59.039887691885134 -5.7571333552784196 7.919723166613494 0 1 0 I I #
point $-1 59.039887691885127 -16.164579210151473 7.919723166613494 #
point $-1 54.70364108318693 -13.507257781811681 8.1322518116280573 #
point $-1 54.70364108318693 -9.5212756393019937 8.1322518116280573 #
straight-curve $-1 59.039887691885127 16.107025342442668 86.426909475561445 0 0 -1 I I #
point $-1 59.039887691885127 16.107025342442668 12.190592470619926 #
straight-curve $-1 59.039887691885134 10.378668921018651 7.919723166613494 0 1 0 I I #
point $-1 59.039887691885127 16.107025342442668 7.919723166613494 #
point $-1 54.70364108318693 18.76434677078246 8.1322518116280573 #
point $-1 54.70364108318693 22.750328913292151 8.1322518116280573 #
straight-curve $-1 -59.039887691885127 -43.754207118763119 9.569914580599665 0 0 -1 I I #
straight-curve $-1 59.039887691885127 -43.754207118763119 9.569914580599665 0 0 -1 I I #
End-of-ACIS-data 