500 0 14 0           
7 Unknown 11 ACIS 5.0 NT 24 Thu Mar 25 16:56:52 1999 
-1 9.9999999999999995e-007 1e-010 
body $-1 $14 $-1 $15 #
body $-1 $16 $-1 $17 #
body $-1 $18 $-1 $19 #
body $-1 $20 $-1 $21 #
body $-1 $22 $-1 $23 #
body $-1 $24 $-1 $25 #
body $-1 $26 $-1 $27 #
body $-1 $28 $-1 $29 #
body $-1 $30 $-1 $31 #
body $-1 $32 $-1 $33 #
body $-1 $34 $-1 $35 #
body $-1 $36 $-1 $37 #
body $-1 $38 $-1 $39 #
body $-1 $40 $-1 $41 #
lump $-1 $-1 $42 $0 #
transform $-1 1 0 0 0 1 0 0 0 1 45.173497726371046 18.791110753494532 6.8503511241101798 1 rotate no_reflect no_shear #
lump $-1 $-1 $43 $1 #
transform $-1 1 0 0 0 1 0 0 0 1 45.173497726371046 18.791110753494532 6.8503511241101798 1 rotate no_reflect no_shear #
lump $-1 $-1 $44 $2 #
transform $-1 1 0 0 0 1 0 0 0 1 45.173497726371046 18.791110753494532 6.8503511241101798 1 rotate no_reflect no_shear #
lump $-1 $-1 $45 $3 #
transform $-1 1 0 0 0 1 0 0 0 1 45.173497726371046 18.791110753494532 6.8503511241101798 1 rotate no_reflect no_shear #
lump $-1 $-1 $46 $4 #
transform $-1 1 0 0 0 1 0 0 0 1 45.173497726371046 18.791110753494532 6.8503511241101798 1 rotate no_reflect no_shear #
lump $-1 $-1 $47 $5 #
transform $-1 1 0 0 0 1 0 0 0 1 45.173497726371046 18.791110753494532 6.8503511241101798 1 rotate no_reflect no_shear #
lump $-1 $-1 $48 $6 #
transform $-1 1 0 0 0 1 0 0 0 1 45.173497726371046 18.791110753494532 6.8503511241101798 1 rotate no_reflect no_shear #
lump $-1 $-1 $49 $7 #
transform $-1 1 0 0 0 1 0 0 0 1 45.173497726371046 18.791110753494532 6.8503511241101798 1 rotate no_reflect no_shear #
lump $-1 $-1 $50 $8 #
transform $-1 1 0 0 0 1 0 0 0 1 45.173497726371046 18.791110753494532 6.8503511241101798 1 rotate no_reflect no_shear #
lump $-1 $-1 $51 $9 #
transform $-1 1 0 0 0 1 0 0 0 1 45.173497726371046 18.791110753494532 6.8503511241101798 1 rotate no_reflect no_shear #
lump $-1 $-1 $52 $10 #
transform $-1 1 0 0 0 1 0 0 0 1 45.173497726371046 18.791110753494532 6.8503511241101798 1 rotate no_reflect no_shear #
lump $-1 $-1 $53 $11 #
transform $-1 1 0 0 0 1 0 0 0 1 45.173497726371046 18.791110753494532 6.8503511241101798 1 rotate no_reflect no_shear #
lump $-1 $-1 $54 $12 #
transform $-1 1 0 0 0 1 0 0 0 1 45.173497726371046 18.791110753494532 6.8503511241101798 1 rotate no_reflect no_shear #
lump $-1 $-1 $55 $13 #
transform $-1 1 0 0 0 1 0 0 0 1 45.173497726371046 18.791110753494532 6.8503511241101798 1 rotate no_reflect no_shear #
shell $-1 $-1 $-1 $56 $-1 $14 #
shell $-1 $-1 $-1 $57 $-1 $16 #
shell $-1 $-1 $-1 $58 $-1 $18 #
shell $-1 $-1 $-1 $59 $-1 $20 #
shell $-1 $-1 $-1 $60 $-1 $22 #
shell $-1 $-1 $-1 $61 $-1 $24 #
shell $-1 $-1 $-1 $62 $-1 $26 #
shell $-1 $-1 $-1 $63 $-1 $28 #
shell $-1 $-1 $-1 $64 $-1 $30 #
shell $-1 $-1 $-1 $65 $-1 $32 #
shell $-1 $-1 $-1 $66 $-1 $34 #
shell $-1 $-1 $-1 $67 $-1 $36 #
shell $-1 $-1 $-1 $68 $-1 $38 #
shell $-1 $-1 $-1 $69 $-1 $40 #
face $-1 $70 $71 $42 $-1 $72 forward single #
face $-1 $73 $74 $43 $-1 $75 reversed single #
face $-1 $76 $77 $44 $-1 $78 reversed single #
face $-1 $79 $80 $45 $-1 $81 forward single #
face $-1 $82 $83 $46 $-1 $84 forward single #
face $-1 $85 $86 $47 $-1 $87 reversed single #
face $-1 $88 $89 $48 $-1 $90 forward single #
face $-1 $91 $92 $49 $-1 $93 forward single #
face $-1 $94 $95 $50 $-1 $96 reversed single #
face $-1 $97 $98 $51 $-1 $99 forward single #
face $-1 $100 $101 $52 $-1 $102 forward single #
face $-1 $103 $104 $53 $-1 $105 reversed single #
face $-1 $106 $107 $54 $-1 $108 forward single #
face $-1 $109 $110 $55 $-1 $111 forward single #
face $-1 $112 $113 $42 $-1 $114 reversed single #
loop $-1 $-1 $115 $56 #
plane-surface $-1 0 0 6.8503511241101798 0 0 1 1 0 0 forward_v I I I I #
face $-1 $116 $117 $43 $-1 $118 reversed single #
loop $-1 $-1 $119 $57 #
plane-surface $-1 -41.211917949703789 0 3.8503511241101798 0 0 1 1 0 0 forward_v I I I I #
face $-1 $120 $121 $44 $-1 $122 reversed single #
loop $-1 $-1 $123 $58 #
plane-surface $-1 3.9615797766672571 -82.676084639187337 66.662132303965407 -1 0 0 0 -0.70710678939079041 0.70710677298230451 forward_v I I I I #
face $-1 $124 $125 $45 $-1 $126 forward single #
loop $-1 $127 $128 $59 #
cone-surface $-1 -3.036499241264714 -15.493637200724372 3.5528775533394139 0 0.70710678939079041 -0.70710677298230451 1 0 0 1 I I 0 1 1 forward I I I I #
face $-1 $129 $130 $46 $-1 $131 forward single #
loop $-1 $132 $133 $60 #
cone-surface $-1 1.1623481694944715 -15.493637200724372 3.5528775533394139 0 0.70710678939079041 -0.70710677298230451 1 0 0 1 I I 0 1 1 forward I I I I #
face $-1 $134 $135 $47 $-1 $136 reversed single #
loop $-1 $-1 $137 $61 #
plane-surface $-1 40.274842413818668 -18.791110753494536 2.7771599007300054 0 -0.70710678939079041 0.70710677298230451 1 0 0 forward_v I I I I #
face $-1 $138 $139 $48 $-1 $140 forward single #
loop $-1 $141 $142 $62 #
cone-surface $-1 38.175418708439075 -15.493637200724372 3.5528775533394139 0 0.70710678939079041 -0.70710677298230451 1 0 0 1 I I 0 1 1 forward I I I I #
face $-1 $143 $144 $49 $-1 $145 forward single #
loop $-1 $146 $147 $63 #
cone-surface $-1 42.374266119198261 -15.493637200724372 3.5528775533394139 0 0.70710678939079041 -0.70710677298230451 1 0 0 1 I I 0 1 1 forward I I I I #
face $-1 $148 $149 $50 $-1 $150 reversed single #
loop $-1 $-1 $151 $64 #
plane-surface $-1 -5.8357308484374997 56.101441267874137 93.236776291945958 1 0 0 0 -0.70710678939079041 -0.70710677298230451 forward_v I I I I #
face $-1 $152 $153 $51 $-1 $154 forward single #
loop $-1 $155 $156 $65 #
cone-surface $-1 -3.036499241264714 15.493637200724375 3.5528775533394139 0 -0.70710678939079041 -0.70710677298230451 1 0 0 1 I I 0 1 1 forward I I I I #
face $-1 $157 $158 $52 $-1 $159 forward single #
loop $-1 $160 $161 $66 #
cone-surface $-1 1.1623481694944715 15.493637200724375 3.5528775533394139 0 -0.70710678939079041 -0.70710677298230451 1 0 0 1 I I 0 1 1 forward I I I I #
face $-1 $162 $163 $53 $-1 $164 reversed single #
loop $-1 $-1 $165 $67 #
plane-surface $-1 40.274842413818668 -7.7835326178186648 29.351803888710556 0 0.70710678939079041 0.70710677298230451 1 0 0 forward_v I I I I #
face $-1 $166 $167 $54 $-1 $168 forward single #
loop $-1 $169 $170 $68 #
cone-surface $-1 38.175418708439075 15.493637200724375 3.5528775533394139 0 -0.70710678939079041 -0.70710677298230451 1 0 0 1 I I 0 1 1 forward I I I I #
face $-1 $171 $172 $55 $-1 $173 forward single #
loop $-1 $174 $175 $69 #
cone-surface $-1 42.374266119198261 15.493637200724375 3.5528775533394139 0 -0.70710678939079041 -0.70710677298230451 1 0 0 1 I I 0 1 1 forward I I I I #
face $-1 $176 $177 $42 $-1 $178 reversed single #
loop $-1 $-1 $179 $70 #
plane-surface $-1 0 0 -6.8503511241101798 0 0 1 1 0 0 forward_v I I I I #
coedge $-1 $180 $181 $182 $183 forward $71 $-1 #
face $-1 $184 $185 $43 $-1 $186 reversed single #
loop $-1 $-1 $187 $73 #
plane-surface $-1 -37.250338173036532 0 5.3503511241101798 -1 0 0 0 0 1 forward_v I I I I #
coedge $-1 $188 $189 $190 $191 forward $74 $-1 #
face $-1 $192 $193 $44 $-1 $194 reversed single #
loop $-1 $-1 $195 $76 #
plane-surface $-1 -0.93707553588512127 -18.791110753494536 2.7771599007300054 0 -0.70710678939079041 0.70710677298230451 1 0 0 forward_v I I I I #
coedge $-1 $196 $197 $198 $199 reversed $77 $-1 #
face $-1 $-1 $200 $45 $-1 $201 forward single #
loop $-1 $202 $203 $79 #
cone-surface $-1 -3.036499241264714 -13.879205817689495 1.9384462077675835 0 0.70710678939079041 -0.70710677298230451 0.5 0 0 1 I I -0.70710678118654746 0.70710678118654746 0.5 forward I I I I #
loop $-1 $-1 $204 $59 #
coedge $-1 $128 $128 $205 $206 reversed $80 $-1 #
face $-1 $-1 $207 $46 $-1 $208 forward single #
loop $-1 $209 $210 $82 #
cone-surface $-1 1.1623481694944715 -13.879205817689495 1.9384462077675835 0 0.70710678939079041 -0.70710677298230451 0.5 0 0 1 I I -0.70710678118654746 0.70710678118654746 0.5 forward I I I I #
loop $-1 $-1 $211 $60 #
coedge $-1 $133 $133 $212 $213 reversed $83 $-1 #
face $-1 $214 $215 $47 $-1 $216 reversed single #
loop $-1 $-1 $217 $85 #
plane-surface $-1 35.376187101266289 -82.676084639187337 66.662132303965407 1 0 0 0 0.70710678939079041 -0.70710677298230451 forward_v I I I I #
coedge $-1 $218 $219 $220 $221 reversed $86 $-1 #
face $-1 $-1 $222 $48 $-1 $223 forward single #
loop $-1 $224 $225 $88 #
cone-surface $-1 38.175418708439075 -13.879205817689495 1.9384462077675835 0 0.70710678939079041 -0.70710677298230451 0.5 0 0 1 I I -0.70710678118654746 0.70710678118654746 0.5 forward I I I I #
loop $-1 $-1 $226 $62 #
coedge $-1 $142 $142 $227 $228 reversed $89 $-1 #
face $-1 $-1 $229 $49 $-1 $230 forward single #
loop $-1 $231 $232 $91 #
cone-surface $-1 42.374266119198261 -13.879205817689495 1.9384462077675835 0 0.70710678939079041 -0.70710677298230451 0.5 0 0 1 I I -0.70710678118654746 0.70710678118654746 0.5 forward I I I I #
loop $-1 $-1 $233 $63 #
coedge $-1 $147 $147 $234 $235 reversed $92 $-1 #
face $-1 $236 $237 $50 $-1 $238 reversed single #
loop $-1 $-1 $239 $94 #
plane-surface $-1 -0.93707553588512127 -7.7835326178186648 29.351803888710556 0 0.70710678939079041 0.70710677298230451 1 0 0 forward_v I I I I #
coedge $-1 $240 $241 $242 $243 reversed $95 $-1 #
face $-1 $-1 $244 $51 $-1 $245 forward single #
loop $-1 $246 $247 $97 #
cone-surface $-1 -3.036499241264714 13.879205817689499 1.9384462077675835 0 -0.70710678939079041 -0.70710677298230451 0.5 0 0 1 I I -0.70710678118654746 0.70710678118654746 0.5 forward I I I I #
loop $-1 $-1 $248 $65 #
coedge $-1 $156 $156 $249 $250 reversed $98 $-1 #
face $-1 $-1 $251 $52 $-1 $252 forward single #
loop $-1 $253 $254 $100 #
cone-surface $-1 1.1623481694944715 13.879205817689499 1.9384462077675835 0 -0.70710678939079041 -0.70710677298230451 0.5 0 0 1 I I -0.70710678118654746 0.70710678118654746 0.5 forward I I I I #
loop $-1 $-1 $255 $66 #
coedge $-1 $161 $161 $256 $257 reversed $101 $-1 #
face $-1 $258 $259 $53 $-1 $260 forward single #
loop $-1 $-1 $261 $103 #
plane-surface $-1 35.376187101266289 56.101441267874137 93.236776291945958 1 0 0 0 -0.70710678939079041 -0.70710677298230451 forward_v I I I I #
coedge $-1 $262 $263 $264 $265 reversed $104 $-1 #
face $-1 $-1 $266 $54 $-1 $267 forward single #
loop $-1 $268 $269 $106 #
cone-surface $-1 38.175418708439075 13.879205817689499 1.9384462077675835 0 -0.70710678939079041 -0.70710677298230451 0.5 0 0 1 I I -0.70710678118654746 0.70710678118654746 0.5 forward I I I I #
loop $-1 $-1 $270 $68 #
coedge $-1 $170 $170 $271 $272 reversed $107 $-1 #
face $-1 $-1 $273 $55 $-1 $274 forward single #
loop $-1 $275 $276 $109 #
cone-surface $-1 42.374266119198261 13.879205817689499 1.9384462077675835 0 -0.70710678939079041 -0.70710677298230451 0.5 0 0 1 I I -0.70710678118654746 0.70710678118654746 0.5 forward I I I I #
loop $-1 $-1 $277 $69 #
coedge $-1 $175 $175 $278 $279 reversed $110 $-1 #
face $-1 $280 $281 $42 $-1 $282 reversed single #
loop $-1 $-1 $283 $112 #
plane-surface $-1 0 -18.791110753494532 0 0 1 0 0 0 1 forward_v I I I I #
coedge $-1 $284 $285 $286 $287 forward $113 $-1 #
coedge $-1 $288 $115 $289 $290 forward $71 $-1 #
coedge $-1 $115 $288 $291 $292 forward $71 $-1 #
coedge $-1 $293 $294 $115 $183 reversed $295 $-1 #
edge $-1 $296 -18.791110753494532 $297 18.791110753494532 $182 $298 forward 7 unknown #
face $-1 $299 $300 $43 $-1 $301 reversed single #
loop $-1 $-1 $302 $116 #
plane-surface $-1 0 18.791110753494532 0 0 -1 0 0 0 -1 forward_v I I I I #
coedge $-1 $190 $303 $304 $305 reversed $117 $-1 #
coedge $-1 $306 $119 $307 $308 reversed $74 $-1 #
coedge $-1 $119 $306 $309 $310 reversed $74 $-1 #
coedge $-1 $311 $187 $119 $191 reversed $117 $-1 #
edge $-1 $312 -18.791110753494532 $313 18.791110753494532 $190 $314 forward 7 unknown #
face $-1 $315 $316 $44 $-1 $317 reversed single #
loop $-1 $-1 $318 $120 #
plane-surface $-1 -5.8357308484374997 -82.676084639187337 66.662132303965407 1 0 0 0 0.70710678939079041 -0.70710677298230451 forward_v I I I I #
coedge $-1 $319 $320 $321 $322 reversed $121 $-1 #
coedge $-1 $197 $123 $323 $324 reversed $77 $-1 #
coedge $-1 $123 $196 $319 $325 reversed $77 $-1 #
coedge $-1 $321 $326 $123 $199 forward $327 $-1 #
edge $-1 $328 22.546931566099136 $329 26.620122694960486 $198 $330 forward 7 unknown #
loop $-1 $-1 $205 $124 #
plane-surface $-1 -0.93707553588512127 -18.791110753494536 2.7771599007300054 0 -0.70710678939079041 0.70710677298230451 1 0 0 forward_v I I I I #
loop $-1 $-1 $331 $79 #
coedge $-1 $203 $203 $204 $332 reversed $125 $-1 #
coedge $-1 $204 $204 $203 $332 forward $127 $-1 #
coedge $-1 $205 $205 $128 $206 forward $200 $-1 #
edge $-1 $333 -5.8294651990167239e-023 $333 6.2831853071796004 $205 $334 forward 7 unknown #
loop $-1 $-1 $212 $129 #
plane-surface $-1 -0.93707553588512127 -18.791110753494536 2.7771599007300054 0 -0.70710678939079041 0.70710677298230451 1 0 0 forward_v I I I I #
loop $-1 $-1 $335 $82 #
coedge $-1 $210 $210 $211 $336 reversed $130 $-1 #
coedge $-1 $211 $211 $210 $336 forward $132 $-1 #
coedge $-1 $212 $212 $133 $213 forward $207 $-1 #
edge $-1 $337 -5.8294651990167239e-023 $337 6.2831853071796004 $212 $338 forward 7 unknown #
face $-1 $339 $340 $47 $-1 $341 reversed single #
loop $-1 $-1 $342 $134 #
plane-surface $-1 0 -18.791110753494532 0 0 1 0 0 0 1 forward_v I I I I #
coedge $-1 $343 $344 $345 $346 reversed $135 $-1 #
coedge $-1 $347 $137 $348 $349 reversed $86 $-1 #
coedge $-1 $137 $347 $343 $350 forward $86 $-1 #
coedge $-1 $345 $351 $137 $221 forward $352 $-1 #
edge $-1 $353 -25.036076519461712 $354 -15.238765894356955 $220 $355 forward 7 unknown #
loop $-1 $-1 $227 $138 #
plane-surface $-1 40.274842413818668 -18.791110753494536 2.7771599007300054 0 -0.70710678939079041 0.70710677298230451 1 0 0 forward_v I I I I #
loop $-1 $-1 $356 $88 #
coedge $-1 $225 $225 $226 $357 reversed $139 $-1 #
coedge $-1 $226 $226 $225 $357 forward $141 $-1 #
coedge $-1 $227 $227 $142 $228 forward $222 $-1 #
edge $-1 $358 -5.8294651990167239e-023 $358 6.2831853071796004 $227 $359 forward 7 unknown #
loop $-1 $-1 $234 $143 #
plane-surface $-1 40.274842413818668 -18.791110753494536 2.7771599007300054 0 -0.70710678939079041 0.70710677298230451 1 0 0 forward_v I I I I #
loop $-1 $-1 $360 $91 #
coedge $-1 $232 $232 $233 $361 reversed $144 $-1 #
coedge $-1 $233 $233 $232 $361 forward $146 $-1 #
coedge $-1 $234 $234 $147 $235 forward $229 $-1 #
edge $-1 $362 -5.8294651990167239e-023 $362 6.2831853071796004 $234 $363 forward 7 unknown #
face $-1 $364 $365 $50 $-1 $366 reversed single #
loop $-1 $-1 $367 $148 #
plane-surface $-1 3.9615797766672571 56.101441267874137 93.236776291945958 -1 0 0 0 0.70710678939079041 0.70710677298230451 forward_v I I I I #
coedge $-1 $368 $369 $370 $371 reversed $149 $-1 #
coedge $-1 $241 $151 $372 $373 reversed $95 $-1 #
coedge $-1 $151 $240 $368 $374 reversed $95 $-1 #
coedge $-1 $370 $375 $151 $243 forward $376 $-1 #
edge $-1 $377 9.259609880442536 $378 13.332801009303886 $242 $379 forward 7 unknown #
loop $-1 $-1 $249 $152 #
plane-surface $-1 -0.93707553588512127 -7.7835326178186648 29.351803888710556 0 0.70710678939079041 0.70710677298230451 1 0 0 forward_v I I I I #
loop $-1 $-1 $380 $97 #
coedge $-1 $247 $247 $248 $381 reversed $153 $-1 #
coedge $-1 $248 $248 $247 $381 forward $155 $-1 #
coedge $-1 $249 $249 $156 $250 forward $244 $-1 #
edge $-1 $382 1.8841109722810244e-015 $382 6.2831853071796022 $249 $383 forward 7 unknown #
loop $-1 $-1 $256 $157 #
plane-surface $-1 -0.93707553588512127 -7.7835326178186648 29.351803888710556 0 0.70710678939079041 0.70710677298230451 1 0 0 forward_v I I I I #
loop $-1 $-1 $384 $100 #
coedge $-1 $254 $254 $255 $385 reversed $158 $-1 #
coedge $-1 $255 $255 $254 $385 forward $160 $-1 #
coedge $-1 $256 $256 $161 $257 forward $251 $-1 #
edge $-1 $386 1.8841109722810244e-015 $386 6.2831853071796022 $256 $387 forward 7 unknown #
face $-1 $388 $389 $53 $-1 $390 reversed single #
loop $-1 $-1 $391 $162 #
plane-surface $-1 0 0 6.8503511241101798 0 0 1 1 0 0 forward_v I I I I #
coedge $-1 $392 $393 $394 $395 reversed $163 $-1 #
coedge $-1 $396 $165 $397 $398 reversed $104 $-1 #
coedge $-1 $165 $396 $392 $399 forward $104 $-1 #
coedge $-1 $394 $400 $165 $265 forward $401 $-1 #
edge $-1 $402 -25.036076519461712 $403 -15.238765894356955 $264 $404 forward 7 unknown #
loop $-1 $-1 $271 $166 #
plane-surface $-1 40.274842413818668 -7.7835326178186648 29.351803888710556 0 0.70710678939079041 0.70710677298230451 1 0 0 forward_v I I I I #
loop $-1 $-1 $405 $106 #
coedge $-1 $269 $269 $270 $406 reversed $167 $-1 #
coedge $-1 $270 $270 $269 $406 forward $169 $-1 #
coedge $-1 $271 $271 $170 $272 forward $266 $-1 #
edge $-1 $407 1.8841109722810244e-015 $407 6.2831853071796022 $271 $408 forward 7 unknown #
loop $-1 $-1 $278 $171 #
plane-surface $-1 40.274842413818668 -7.7835326178186648 29.351803888710556 0 0.70710678939079041 0.70710677298230451 1 0 0 forward_v I I I I #
loop $-1 $-1 $409 $109 #
coedge $-1 $276 $276 $277 $410 reversed $172 $-1 #
coedge $-1 $277 $277 $276 $410 forward $174 $-1 #
coedge $-1 $278 $278 $175 $279 forward $273 $-1 #
edge $-1 $411 1.8841109722810244e-015 $411 6.2831853071796022 $278 $412 forward 7 unknown #
face $-1 $413 $414 $42 $-1 $415 reversed single #
loop $-1 $-1 $416 $176 #
plane-surface $-1 -45.173497726371046 0 0 1 0 0 0 0 -1 forward_v I I I I #
coedge $-1 $417 $291 $418 $419 forward $177 $-1 #
coedge $-1 $420 $179 $417 $421 forward $113 $-1 #
coedge $-1 $179 $420 $422 $423 forward $113 $-1 #
coedge $-1 $294 $293 $179 $287 reversed $295 $-1 #
edge $-1 $424 -18.791110753494532 $425 18.791110753494532 $286 $426 forward 7 unknown #
coedge $-1 $181 $180 $427 $428 forward $71 $-1 #
coedge $-1 $429 $430 $180 $290 reversed $414 $-1 #
edge $-1 $297 -45.173497726371046 $431 45.173497726371046 $289 $432 forward 7 unknown #
coedge $-1 $283 $433 $181 $292 reversed $177 $-1 #
edge $-1 $434 -45.173497726371046 $296 45.173497726371046 $291 $435 forward 7 unknown #
coedge $-1 $286 $182 $433 $436 forward $295 $-1 #
coedge $-1 $182 $286 $429 $437 reversed $295 $-1 #
loop $-1 $-1 $293 $413 #
vertex $-1 $183 $438 #
vertex $-1 $183 $439 #
straight-curve $-1 45.173497726371046 0 6.8503511241101798 0 1 0 I I #
face $-1 $440 $441 $43 $-1 $442 forward single #
loop $-1 $-1 $443 $184 #
plane-surface $-1 -45.173497726371046 0 0 1 0 0 0 0 -1 forward_v I I I I #
coedge $-1 $309 $444 $311 $445 forward $185 $-1 #
coedge $-1 $187 $311 $446 $447 reversed $117 $-1 #
coedge $-1 $448 $307 $187 $305 forward $449 $-1 #
edge $-1 $313 1.1751755620550899 $450 4.1751755620550899 $304 $451 forward 7 unknown #
coedge $-1 $189 $188 $443 $452 reversed $74 $-1 #
coedge $-1 $304 $453 $188 $308 forward $449 $-1 #
edge $-1 $454 -24.567538751519152 $313 -16.644379198184637 $307 $455 forward 7 unknown #
coedge $-1 $456 $302 $189 $310 forward $185 $-1 #
edge $-1 $312 16.644379198184637 $457 24.567538751519152 $309 $458 forward 7 unknown #
coedge $-1 $303 $190 $302 $445 reversed $117 $-1 #
vertex $-1 $310 $459 #
vertex $-1 $308 $460 #
straight-curve $-1 -37.250338173036532 0 3.8503511241101798 0 -1 0 I I #
face $-1 $-1 $327 $44 $-1 $461 forward single #
loop $-1 $-1 $462 $192 #
plane-surface $-1 0 -18.791110753494532 0 0 1 0 0 0 1 forward_v I I I I #
coedge $-1 $463 $464 $465 $466 reversed $193 $-1 #
coedge $-1 $467 $195 $197 $325 forward $121 $-1 #
coedge $-1 $195 $467 $463 $468 forward $121 $-1 #
coedge $-1 $465 $198 $195 $322 forward $327 $-1 #
edge $-1 $329 -4.4301175446098178 $469 5.367193080494939 $321 $470 forward 7 unknown #
coedge $-1 $471 $472 $196 $324 forward $316 $-1 #
edge $-1 $473 -30.553906251252695 $328 -26.480715027872524 $323 $474 forward 7 unknown #
edge $-1 $329 -5.7603622034084045 $473 -5.0242958677880813e-015 $197 $475 forward 7 unknown #
coedge $-1 $198 $465 $471 $476 forward $327 $-1 #
loop $-1 $-1 $465 $315 #
vertex $-1 $324 $477 #
vertex $-1 $199 $478 #
straight-curve $-1 3.9615797766672571 -41.338042319593669 6.8503511241101798 0 1 0 I I #
coedge $-1 $331 $331 $-1 $479 reversed $202 $-1 #
edge $-1 $480 0 $480 6.2831853071796004 $203 $481 forward 7 unknown #
vertex $-1 $206 $482 #
ellipse-curve $-1 -3.036499241264714 -16.754515189063856 4.8137555124200953 0 -0.70710678939079041 0.70710677298230451 1 0 0 1 I I #
coedge $-1 $335 $335 $-1 $483 reversed $209 $-1 #
edge $-1 $484 0 $484 6.2831853071796004 $210 $485 forward 7 unknown #
vertex $-1 $213 $486 #
ellipse-curve $-1 1.1623481694944715 -16.754515189063856 4.8137555124200953 0 -0.70710678939079041 0.70710677298230451 1 0 0 1 I I #
face $-1 $-1 $352 $47 $-1 $487 forward single #
loop $-1 $-1 $348 $214 #
plane-surface $-1 45.173497726371046 0 0 -1 0 0 0 0 1 forward_v I I I I #
coedge $-1 $488 $489 $344 $490 forward $215 $-1 #
coedge $-1 $344 $217 $219 $350 reversed $135 $-1 #
coedge $-1 $217 $343 $342 $490 reversed $135 $-1 #
coedge $-1 $491 $220 $217 $346 forward $352 $-1 #
edge $-1 $354 -26.620122694960486 $492 -22.546931566099136 $345 $493 forward 7 unknown #
coedge $-1 $219 $218 $488 $494 reversed $86 $-1 #
coedge $-1 $495 $496 $218 $349 forward $340 $-1 #
edge $-1 $497 -5.6617865323132754 $353 0.098575671095122455 $348 $498 forward 7 unknown #
edge $-1 $499 5.0242958677880813e-015 $354 5.7603622034084045 $343 $500 forward 7 unknown #
coedge $-1 $220 $491 $495 $501 forward $352 $-1 #
loop $-1 $-1 $345 $339 #
vertex $-1 $349 $502 #
vertex $-1 $221 $503 #
straight-curve $-1 20.137421206909334 -14.717919624633183 6.8503511241101798 -1 0 0 I I #
coedge $-1 $356 $356 $-1 $504 reversed $224 $-1 #
edge $-1 $505 0 $505 6.2831853071796004 $225 $506 forward 7 unknown #
vertex $-1 $228 $507 #
ellipse-curve $-1 38.175418708439075 -16.754515189063856 4.8137555124200953 0 -0.70710678939079041 0.70710677298230451 1 0 0 1 I I #
coedge $-1 $360 $360 $-1 $508 reversed $231 $-1 #
edge $-1 $509 0 $509 6.2831853071796004 $232 $510 forward 7 unknown #
vertex $-1 $235 $511 #
ellipse-curve $-1 42.374266119198261 -16.754515189063856 4.8137555124200953 0 -0.70710678939079041 0.70710677298230451 1 0 0 1 I I #
face $-1 $-1 $376 $50 $-1 $512 forward single #
loop $-1 $-1 $513 $236 #
plane-surface $-1 0 18.791110753494532 0 0 -1 0 0 0 -1 forward_v I I I I #
coedge $-1 $514 $515 $516 $517 reversed $237 $-1 #
coedge $-1 $518 $239 $241 $374 forward $149 $-1 #
coedge $-1 $239 $518 $514 $519 forward $149 $-1 #
coedge $-1 $516 $242 $239 $371 forward $376 $-1 #
edge $-1 $378 -5.367193080494939 $520 4.4301175446098178 $370 $521 forward 7 unknown #
coedge $-1 $522 $523 $240 $373 forward $365 $-1 #
edge $-1 $524 -43.841228245242974 $377 -39.768037021862796 $372 $525 forward 7 unknown #
edge $-1 $378 31.82185930358067 $524 37.582221506989079 $241 $526 forward 7 unknown #
coedge $-1 $242 $516 $522 $527 forward $376 $-1 #
loop $-1 $-1 $516 $364 #
vertex $-1 $373 $528 #
vertex $-1 $243 $529 #
straight-curve $-1 -5.8357308484374997 28.050720633937068 6.8503511241101833 0 -1 0 I I #
coedge $-1 $380 $380 $-1 $530 reversed $246 $-1 #
edge $-1 $531 0 $531 6.2831853071796004 $247 $532 forward 7 unknown #
vertex $-1 $250 $533 #
ellipse-curve $-1 -3.036499241264714 16.754515189063859 4.8137555124200944 0 0.70710678939079041 0.70710677298230451 1 0 0 1 I I #
coedge $-1 $384 $384 $-1 $534 reversed $253 $-1 #
edge $-1 $535 0 $535 6.2831853071796004 $254 $536 forward 7 unknown #
vertex $-1 $257 $537 #
ellipse-curve $-1 1.1623481694944715 16.754515189063859 4.8137555124200944 0 0.70710678939079041 0.70710677298230451 1 0 0 1 I I #
face $-1 $-1 $401 $53 $-1 $538 reversed single #
loop $-1 $-1 $397 $258 #
plane-surface $-1 45.173497726371046 0 0 -1 0 0 0 0 1 forward_v I I I I #
coedge $-1 $539 $540 $393 $541 forward $259 $-1 #
coedge $-1 $393 $261 $263 $399 reversed $163 $-1 #
coedge $-1 $261 $392 $391 $541 reversed $163 $-1 #
coedge $-1 $542 $264 $261 $395 forward $401 $-1 #
edge $-1 $403 -43.841228245242974 $543 -39.768037021862796 $394 $544 forward 7 unknown #
coedge $-1 $263 $262 $539 $545 reversed $104 $-1 #
coedge $-1 $546 $547 $262 $398 forward $389 $-1 #
edge $-1 $548 18.692535082399417 $402 24.452897285807811 $397 $549 forward 7 unknown #
edge $-1 $550 31.82185930358067 $403 37.582221506989079 $392 $551 forward 7 unknown #
coedge $-1 $264 $542 $546 $552 forward $401 $-1 #
loop $-1 $-1 $394 $388 #
vertex $-1 $398 $553 #
vertex $-1 $265 $554 #
straight-curve $-1 20.137421206909334 18.791110753494532 2.7771599007300072 -1 0 0 I I #
coedge $-1 $405 $405 $-1 $555 reversed $268 $-1 #
edge $-1 $556 0 $556 6.2831853071796004 $269 $557 forward 7 unknown #
vertex $-1 $272 $558 #
ellipse-curve $-1 38.175418708439075 16.754515189063859 4.8137555124200944 0 0.70710678939079041 0.70710677298230451 1 0 0 1 I I #
coedge $-1 $409 $409 $-1 $559 reversed $275 $-1 #
edge $-1 $560 0 $560 6.2831853071796004 $276 $561 forward 7 unknown #
vertex $-1 $279 $562 #
ellipse-curve $-1 42.374266119198261 16.754515189063859 4.8137555124200944 0 0.70710678939079041 0.70710677298230451 1 0 0 1 I I #
face $-1 $-1 $295 $42 $-1 $563 reversed single #
loop $-1 $-1 $429 $280 #
plane-surface $-1 0 18.791110753494532 0 0 -1 0 0 0 -1 forward_v I I I I #
coedge $-1 $564 $427 $430 $565 forward $281 $-1 #
coedge $-1 $433 $283 $284 $421 reversed $177 $-1 #
coedge $-1 $427 $564 $283 $419 reversed $281 $-1 #
edge $-1 $434 -6.8503511241101798 $566 6.8503511241101798 $418 $567 forward 7 unknown #
coedge $-1 $285 $284 $564 $568 forward $113 $-1 #
edge $-1 $425 -45.173497726371046 $566 45.173497726371046 $417 $569 forward 7 unknown #
coedge $-1 $430 $429 $285 $423 reversed $414 $-1 #
edge $-1 $570 -45.173497726371046 $424 45.173497726371046 $422 $571 forward 7 unknown #
vertex $-1 $287 $572 #
vertex $-1 $436 $573 #
straight-curve $-1 45.173497726371046 0 -6.8503511241101798 0 -1 0 I I #
coedge $-1 $416 $418 $288 $428 reversed $281 $-1 #
edge $-1 $431 -18.791110753494532 $434 18.791110753494532 $427 $574 forward 7 unknown #
coedge $-1 $422 $289 $294 $437 forward $414 $-1 #
coedge $-1 $289 $422 $416 $565 reversed $414 $-1 #
vertex $-1 $290 $575 #
straight-curve $-1 0 18.791110753494532 6.8503511241101798 -1 0 0 I I #
coedge $-1 $291 $417 $293 $436 reversed $177 $-1 #
vertex $-1 $428 $576 #
straight-curve $-1 0 -18.791110753494532 6.8503511241101798 1 0 0 I I #
edge $-1 $296 -6.8503511241101798 $425 6.8503511241101798 $293 $577 forward 7 unknown #
edge $-1 $297 -6.8503511241101798 $424 6.8503511241101798 $294 $578 forward 7 unknown #
point $-1 45.173497726371046 -18.791110753494532 6.8503511241101798 #
point $-1 45.173497726371046 18.791110753494532 6.8503511241101798 #
face $-1 $-1 $449 $43 $-1 $579 reversed single #
loop $-1 $-1 $446 $299 #
plane-surface $-1 0 0 6.8503511241101798 0 0 1 1 0 0 forward_v I I I I #
coedge $-1 $580 $581 $306 $452 forward $300 $-1 #
coedge $-1 $302 $456 $582 $583 reversed $185 $-1 #
edge $-1 $584 -4.1751755620550899 $312 -1.1751755620550899 $302 $585 forward 7 unknown #
coedge $-1 $582 $586 $303 $447 forward $441 $-1 #
edge $-1 $450 -18.791110753494532 $584 18.791110753494532 $446 $587 forward 7 unknown #
coedge $-1 $453 $304 $586 $588 reversed $449 $-1 #
loop $-1 $-1 $304 $440 #
vertex $-1 $305 $589 #
straight-curve $-1 -37.250338173036532 -18.791110753494532 2.6751755620550899 0 0 1 I I #
edge $-1 $457 -18.791110753494532 $454 18.791110753494532 $443 $590 forward 7 unknown #
coedge $-1 $307 $448 $580 $591 forward $449 $-1 #
vertex $-1 $452 $592 #
straight-curve $-1 -20.605958974851895 -18.791110753494532 3.8503511241101798 1 0 0 I I #
coedge $-1 $444 $309 $581 $593 reversed $185 $-1 #
vertex $-1 $452 $594 #
straight-curve $-1 -20.605958974851895 18.791110753494532 3.8503511241101798 -1 0 0 I I #
point $-1 -37.250338173036532 18.791110753494532 3.8503511241101798 #
point $-1 -37.250338173036532 -18.791110753494532 3.8503511241101798 #
plane-surface $-1 0 0 6.8503511241101798 0 0 1 1 0 0 forward_v I I I I #
coedge $-1 $472 $471 $464 $595 forward $316 $-1 #
coedge $-1 $464 $318 $320 $468 reversed $193 $-1 #
coedge $-1 $318 $463 $462 $595 reversed $193 $-1 #
coedge $-1 $326 $321 $318 $466 forward $327 $-1 #
edge $-1 $469 -26.620122694960486 $596 -22.546931566099136 $465 $597 forward 7 unknown #
coedge $-1 $320 $319 $472 $598 reversed $121 $-1 #
edge $-1 $599 5.0242958677880813e-015 $469 5.7603622034084045 $463 $600 forward 7 unknown #
vertex $-1 $322 $601 #
straight-curve $-1 -0.46853776794256063 -14.717919624633183 6.8503511241101798 -1 0 0 I I #
coedge $-1 $462 $323 $326 $476 reversed $316 $-1 #
coedge $-1 $323 $462 $467 $598 forward $316 $-1 #
vertex $-1 $324 $602 #
straight-curve $-1 3.9615797766672571 -18.791110753494532 33.331066151982704 0 0 1 I I #
straight-curve $-1 3.9615797766672571 -18.791110753494536 2.7771599007300054 0 -0.70710677298230451 -0.70710678939079041 I I #
edge $-1 $596 -5.8357308484374997 $328 3.9615797766672571 $471 $603 forward 7 unknown #
point $-1 3.9615797766672571 -18.791110753494532 6.8503511241101798 #
point $-1 3.9615797766672571 -14.717919624633183 6.8503511241101798 #
edge $-1 $604 1 $604 0 $331 $-1 forward 7 unknown #
vertex $-1 $332 $605 #
ellipse-curve $-1 -3.036499241264714 -14.23275921238489 2.2919995942587357 0 -0.70710678939079041 0.70710677298230451 1 0 0 1 I I #
point $-1 -2.036499241264714 -16.754515189063852 4.8137555124200917 #
edge $-1 $606 1 $606 0 $335 $-1 forward 7 unknown #
vertex $-1 $336 $607 #
ellipse-curve $-1 1.1623481694944715 -14.23275921238489 2.2919995942587357 0 -0.70710678939079041 0.70710677298230451 1 0 0 1 I I #
point $-1 2.1623481694944715 -16.754515189063852 4.8137555124200917 #
plane-surface $-1 0 0 6.8503511241101798 0 0 1 1 0 0 forward_v I I I I #
coedge $-1 $608 $342 $347 $494 forward $215 $-1 #
coedge $-1 $342 $608 $491 $609 reversed $215 $-1 #
edge $-1 $492 26.480715027872524 $499 30.553906251252695 $342 $610 forward 7 unknown #
coedge $-1 $351 $345 $489 $609 forward $352 $-1 #
vertex $-1 $609 $611 #
straight-curve $-1 35.376187101266289 -41.338042319593669 6.8503511241101798 0 -1 0 I I #
edge $-1 $499 15.238765894356955 $497 25.036076519461712 $488 $612 forward 7 unknown #
coedge $-1 $496 $348 $351 $501 reversed $340 $-1 #
coedge $-1 $348 $495 $608 $613 forward $340 $-1 #
vertex $-1 $349 $614 #
straight-curve $-1 45.173497726371046 -14.78762314931582 6.7806475978100655 0 0.70710677298230462 0.70710678939079052 I I #
vertex $-1 $494 $615 #
straight-curve $-1 35.376187101266289 -18.791110753494536 2.7771599007300054 0 0.70710677298230451 0.70710678939079041 I I #
edge $-1 $616 -18.791110753494532 $353 -14.717919624633183 $495 $617 forward 7 unknown #
point $-1 45.173497726371046 -14.717919624633183 6.8503511241101798 #
point $-1 35.376187101266289 -14.717919624633183 6.8503511241101798 #
edge $-1 $618 1 $618 0 $356 $-1 forward 7 unknown #
vertex $-1 $357 $619 #
ellipse-curve $-1 38.175418708439075 -14.23275921238489 2.2919995942587357 0 -0.70710678939079041 0.70710677298230451 1 0 0 1 I I #
point $-1 39.175418708439075 -16.754515189063852 4.8137555124200917 #
edge $-1 $620 1 $620 0 $360 $-1 forward 7 unknown #
vertex $-1 $361 $621 #
ellipse-curve $-1 42.374266119198261 -14.23275921238489 2.2919995942587357 0 -0.70710678939079041 0.70710677298230451 1 0 0 1 I I #
point $-1 43.374266119198261 -16.754515189063852 4.8137555124200917 #
plane-surface $-1 0 0 6.8503511241101798 0 0 1 1 0 0 forward_v I I I I #
coedge $-1 $523 $522 $515 $622 forward $365 $-1 #
coedge $-1 $515 $367 $369 $519 reversed $237 $-1 #
coedge $-1 $367 $514 $513 $622 reversed $237 $-1 #
coedge $-1 $375 $370 $367 $517 forward $376 $-1 #
edge $-1 $520 -13.332801009303886 $623 -9.259609880442536 $516 $624 forward 7 unknown #
coedge $-1 $369 $368 $523 $625 reversed $149 $-1 #
edge $-1 $626 -37.582221506989079 $520 -31.82185930358067 $514 $627 forward 7 unknown #
vertex $-1 $371 $628 #
straight-curve $-1 -0.46853776794256063 14.717919624633184 6.8503511241101798 1 0 0 I I #
coedge $-1 $513 $372 $375 $527 reversed $365 $-1 #
coedge $-1 $372 $513 $518 $625 forward $365 $-1 #
vertex $-1 $373 $629 #
straight-curve $-1 -5.8357308484374997 18.791110753494532 46.618388145972979 0 0 1 I I #
straight-curve $-1 -5.8357308484374997 -7.7835326178186648 29.351803888710556 0 0.70710677298230451 -0.70710678939079041 I I #
edge $-1 $623 -3.9615797766672571 $377 5.8357308484374997 $522 $630 forward 7 unknown #
point $-1 -5.8357308484374997 18.791110753494532 6.8503511241101798 #
point $-1 -5.8357308484374997 14.717919624633183 6.8503511241101798 #
edge $-1 $631 1 $631 0 $380 $-1 forward 7 unknown #
vertex $-1 $381 $632 #
ellipse-curve $-1 -3.036499241264714 14.232759212384893 2.2919995942587357 0 0.70710678939079041 0.70710677298230451 1 0 0 1 I I #
point $-1 -2.036499241264714 16.754515189063859 4.8137555124200917 #
edge $-1 $633 1 $633 0 $384 $-1 forward 7 unknown #
vertex $-1 $385 $634 #
ellipse-curve $-1 1.1623481694944715 14.232759212384893 2.2919995942587357 0 0.70710678939079041 0.70710677298230451 1 0 0 1 I I #
point $-1 2.1623481694944715 16.754515189063859 4.8137555124200917 #
plane-surface $-1 0 18.791110753494532 0 0 -1 0 0 0 -1 forward_v I I I I #
coedge $-1 $635 $391 $396 $545 forward $259 $-1 #
coedge $-1 $391 $635 $542 $636 forward $259 $-1 #
edge $-1 $543 9.259609880442536 $550 13.332801009303886 $391 $637 forward 7 unknown #
coedge $-1 $400 $394 $540 $636 reversed $401 $-1 #
vertex $-1 $541 $638 #
straight-curve $-1 35.376187101266289 18.791110753494532 46.618388145972979 0 0 1 I I #
edge $-1 $550 15.238765894356955 $548 25.036076519461712 $539 $639 forward 7 unknown #
coedge $-1 $547 $397 $400 $552 reversed $389 $-1 #
coedge $-1 $397 $546 $635 $640 reversed $389 $-1 #
vertex $-1 $640 $641 #
straight-curve $-1 45.173497726371046 1.5003014636592189 20.067969591800342 0 0.70710677298230462 -0.70710678939079052 I I #
vertex $-1 $545 $642 #
straight-curve $-1 35.376187101266289 -7.7835326178186648 29.351803888710556 0 0.70710677298230451 -0.70710678939079041 I I #
edge $-1 $643 -6.8503511241101798 $402 -2.777159900730009 $546 $644 forward 7 unknown #
point $-1 45.173497726371046 18.791110753494532 2.777159900730009 #
point $-1 35.376187101266289 18.791110753494532 2.7771599007300054 #
edge $-1 $645 1 $645 0 $405 $-1 forward 7 unknown #
vertex $-1 $406 $646 #
ellipse-curve $-1 38.175418708439075 14.232759212384893 2.2919995942587357 0 0.70710678939079041 0.70710677298230451 1 0 0 1 I I #
point $-1 39.175418708439075 16.754515189063859 4.8137555124200917 #
edge $-1 $647 1 $647 0 $409 $-1 forward 7 unknown #
vertex $-1 $410 $648 #
ellipse-curve $-1 42.374266119198261 14.232759212384893 2.2919995942587357 0 0.70710678939079041 0.70710677298230451 1 0 0 1 I I #
point $-1 43.374266119198261 16.754515189063859 4.8137555124200917 #
plane-surface $-1 45.173497726371046 0 0 -1 0 0 0 0 1 forward_v I I I I #
coedge $-1 $418 $416 $420 $568 reversed $281 $-1 #
edge $-1 $431 -6.8503511241101798 $570 6.8503511241101798 $430 $649 forward 7 unknown #
vertex $-1 $568 $650 #
straight-curve $-1 -45.173497726371046 -18.791110753494532 0 0 0 -1 I I #
edge $-1 $566 -18.791110753494532 $570 18.791110753494532 $564 $651 forward 7 unknown #
straight-curve $-1 0 -18.791110753494532 -6.8503511241101798 -1 0 0 I I #
vertex $-1 $423 $652 #
straight-curve $-1 0 18.791110753494532 -6.8503511241101798 1 0 0 I I #
point $-1 45.173497726371046 18.791110753494532 -6.8503511241101798 #
point $-1 45.173497726371046 -18.791110753494532 -6.8503511241101798 #
straight-curve $-1 -45.173497726371046 0 6.8503511241101798 0 -1 0 I I #
point $-1 -45.173497726371046 18.791110753494532 6.8503511241101798 #
point $-1 -45.173497726371046 -18.791110753494532 6.8503511241101798 #
straight-curve $-1 45.173497726371046 -18.791110753494532 0 0 0 -1 I I #
straight-curve $-1 45.173497726371046 18.791110753494532 0 0 0 -1 I I #
plane-surface $-1 0 -18.791110753494532 0 0 1 0 0 0 1 forward_v I I I I #
coedge $-1 $653 $443 $453 $591 reversed $300 $-1 #
coedge $-1 $443 $653 $456 $593 forward $300 $-1 #
coedge $-1 $654 $446 $444 $583 forward $441 $-1 #
edge $-1 $584 37.250338173036532 $655 45.173497726371046 $444 $656 forward 7 unknown #
vertex $-1 $583 $657 #
straight-curve $-1 -37.250338173036532 18.791110753494532 2.6751755620550899 0 0 -1 I I #
coedge $-1 $446 $654 $448 $588 forward $441 $-1 #
straight-curve $-1 -37.250338173036532 0 6.8503511241101798 0 1 0 I I #
edge $-1 $658 -45.173497726371046 $450 -37.250338173036532 $448 $659 forward 7 unknown #
point $-1 -37.250338173036532 -18.791110753494532 6.8503511241101798 #
straight-curve $-1 -45.173497726371046 0 3.8503511241101798 0 -1 0 I I #
edge $-1 $658 -6.8503511241101798 $454 -3.8503511241101798 $580 $660 forward 7 unknown #
point $-1 -45.173497726371046 -18.791110753494532 3.8503511241101798 #
edge $-1 $655 -6.8503511241101798 $457 -3.8503511241101798 $456 $661 forward 7 unknown #
point $-1 -45.173497726371046 18.791110753494532 3.8503511241101798 #
edge $-1 $596 26.480715027872524 $599 30.553906251252695 $462 $662 forward 7 unknown #
vertex $-1 $476 $663 #
straight-curve $-1 -5.8357308484374997 -41.338042319593669 6.8503511241101798 0 -1 0 I I #
edge $-1 $599 -5.367193080494939 $473 4.4301175446098178 $472 $664 forward 7 unknown #
vertex $-1 $598 $665 #
straight-curve $-1 -5.8357308484374997 -18.791110753494536 2.7771599007300054 0 0.70710677298230451 0.70710678939079041 I I #
point $-1 -5.8357308484374997 -14.717919624633183 6.8503511241101798 #
point $-1 3.9615797766672571 -18.791110753494532 2.777159900730009 #
straight-curve $-1 0 -18.791110753494532 6.8503511241101798 1 0 0 I I #
vertex $-1 $479 $666 #
point $-1 -2.036499241264714 -14.23275921238489 2.2919995942587357 #
vertex $-1 $483 $667 #
point $-1 2.1623481694944715 -14.23275921238489 2.2919995942587357 #
coedge $-1 $489 $488 $496 $613 reversed $215 $-1 #
edge $-1 $492 35.376187101266289 $616 45.173497726371046 $489 $668 forward 7 unknown #
straight-curve $-1 35.376187101266289 -18.791110753494532 33.331066151982704 0 0 -1 I I #
point $-1 35.376187101266289 -18.791110753494532 6.8503511241101798 #
straight-curve $-1 20.137421206909334 -18.791110753494532 2.7771599007300116 1 0 0 I I #
edge $-1 $616 -6.8503511241101798 $497 -2.777159900730009 $496 $669 forward 7 unknown #
point $-1 45.173497726371046 -18.791110753494532 2.777159900730009 #
point $-1 35.376187101266289 -18.791110753494532 2.777159900730009 #
vertex $-1 $501 $670 #
straight-curve $-1 45.173497726371046 0 6.8503511241101798 0 1 0 I I #
vertex $-1 $504 $671 #
point $-1 39.175418708439075 -14.23275921238489 2.2919995942587357 #
vertex $-1 $508 $672 #
point $-1 43.374266119198261 -14.23275921238489 2.2919995942587357 #
edge $-1 $623 39.768037021862796 $626 43.841228245242974 $513 $673 forward 7 unknown #
vertex $-1 $527 $674 #
straight-curve $-1 3.9615797766672571 28.050720633937068 6.8503511241101833 0 1 0 I I #
edge $-1 $626 -4.4301175446098178 $524 5.367193080494939 $523 $675 forward 7 unknown #
vertex $-1 $625 $676 #
straight-curve $-1 3.9615797766672571 -7.7835326178186648 29.351803888710556 0 -0.70710677298230451 0.70710678939079041 I I #
point $-1 3.9615797766672571 14.717919624633183 6.8503511241101798 #
point $-1 -5.8357308484374997 18.791110753494532 2.7771599007300054 #
straight-curve $-1 0 18.791110753494532 6.8503511241101798 -1 0 0 I I #
vertex $-1 $530 $677 #
point $-1 -2.036499241264714 14.232759212384893 2.2919995942587357 #
vertex $-1 $534 $678 #
point $-1 2.1623481694944715 14.232759212384893 2.2919995942587357 #
coedge $-1 $540 $539 $547 $640 forward $259 $-1 #
edge $-1 $643 -45.173497726371046 $543 -35.376187101266289 $542 $679 forward 7 unknown #
straight-curve $-1 35.376187101266289 28.050720633937068 6.8503511241101833 0 -1 0 I I #
point $-1 35.376187101266289 18.791110753494532 6.8503511241101798 #
straight-curve $-1 20.137421206909334 14.717919624633184 6.8503511241101798 1 0 0 I I #
edge $-1 $548 14.717919624633183 $643 18.791110753494532 $547 $680 forward 7 unknown #
point $-1 45.173497726371046 14.717919624633183 6.8503511241101798 #
point $-1 35.376187101266289 14.717919624633183 6.8503511241101798 #
vertex $-1 $640 $681 #
straight-curve $-1 45.173497726371046 18.791110753494532 0 0 0 -1 I I #
vertex $-1 $555 $682 #
point $-1 39.175418708439075 14.232759212384893 2.2919995942587357 #
vertex $-1 $559 $683 #
point $-1 43.374266119198261 14.232759212384893 2.2919995942587357 #
straight-curve $-1 -45.173497726371046 18.791110753494532 0 0 0 -1 I I #
point $-1 -45.173497726371046 -18.791110753494532 -6.8503511241101798 #
straight-curve $-1 -45.173497726371046 0 -6.8503511241101798 0 1 0 I I #
point $-1 -45.173497726371046 18.791110753494532 -6.8503511241101798 #
coedge $-1 $581 $580 $654 $684 reversed $300 $-1 #
coedge $-1 $586 $582 $653 $684 forward $441 $-1 #
vertex $-1 $583 $685 #
straight-curve $-1 0 18.791110753494532 6.8503511241101798 -1 0 0 I I #
point $-1 -37.250338173036532 18.791110753494532 6.8503511241101798 #
vertex $-1 $684 $686 #
straight-curve $-1 0 -18.791110753494532 6.8503511241101798 1 0 0 I I #
straight-curve $-1 -45.173497726371046 -18.791110753494532 0 0 0 -1 I I #
straight-curve $-1 -45.173497726371046 18.791110753494532 0 0 0 -1 I I #
straight-curve $-1 -5.8357308484374997 -18.791110753494532 33.331066151982704 0 0 -1 I I #
point $-1 -5.8357308484374997 -18.791110753494532 6.8503511241101798 #
straight-curve $-1 -0.46853776794256063 -18.791110753494532 2.7771599007300116 1 0 0 I I #
point $-1 -5.8357308484374997 -18.791110753494532 2.777159900730009 #
point $-1 -3.036499241264714 -13.525652422994101 1.5848928212764313 #
point $-1 1.1623481694944715 -13.525652422994101 1.5848928212764313 #
straight-curve $-1 0 -18.791110753494532 6.8503511241101798 1 0 0 I I #
straight-curve $-1 45.173497726371046 -18.791110753494532 0 0 0 -1 I I #
point $-1 45.173497726371046 -18.791110753494532 6.8503511241101798 #
point $-1 38.175418708439075 -13.525652422994101 1.5848928212764313 #
point $-1 42.374266119198261 -13.525652422994101 1.5848928212764313 #
straight-curve $-1 3.9615797766672571 18.791110753494532 46.618388145972979 0 0 -1 I I #
point $-1 3.9615797766672571 18.791110753494532 6.8503511241101798 #
straight-curve $-1 -0.46853776794256063 18.791110753494532 2.7771599007300072 -1 0 0 I I #
point $-1 3.9615797766672571 18.791110753494532 2.7771599007300054 #
point $-1 -3.036499241264714 13.525652422994105 1.5848928212764313 #
point $-1 1.1623481694944715 13.525652422994105 1.5848928212764313 #
straight-curve $-1 0 18.791110753494532 6.8503511241101798 -1 0 0 I I #
straight-curve $-1 45.173497726371046 0 6.8503511241101798 0 1 0 I I #
point $-1 45.173497726371046 18.791110753494532 6.8503511241101798 #
point $-1 38.175418708439075 13.525652422994105 1.5848928212764313 #
point $-1 42.374266119198261 13.525652422994105 1.5848928212764313 #
edge $-1 $655 -18.791110753494532 $658 18.791110753494532 $653 $687 forward 7 unknown #
point $-1 -45.173497726371046 18.791110753494532 6.8503511241101798 #
point $-1 -45.173497726371046 -18.791110753494532 6.8503511241101798 #
straight-curve $-1 -45.173497726371046 0 6.8503511241101798 0 -1 0 I I #
End-of-ACIS-data 