500 0 4 0           
7 Unknown 11 ACIS 5.0 NT 24 Fri Mar 26 00:27:28 1999 
-1 9.9999999999999995e-007 1e-010 
body $-1 $4 $-1 $5 #
body $-1 $6 $-1 $7 #
body $-1 $8 $-1 $9 #
body $-1 $10 $-1 $11 #
lump $-1 $-1 $12 $0 #
transform $-1 1 0 0 0 1 0 0 0 1 70.495315408795435 36.751924940758379 16.974169331216011 1 rotate no_reflect no_shear #
lump $-1 $-1 $13 $1 #
transform $-1 1 0 0 0 1 0 0 0 1 70.495315408795435 36.751924940758379 16.974169331216011 1 rotate no_reflect no_shear #
lump $-1 $-1 $14 $2 #
transform $-1 1 0 0 0 1 0 0 0 1 70.495315408795435 36.751924940758379 16.974169331216011 1 rotate no_reflect no_shear #
lump $-1 $-1 $15 $3 #
transform $-1 1 0 0 0 1 0 0 0 1 70.495315408795435 36.751924940758379 16.974169331216011 1 rotate no_reflect no_shear #
shell $-1 $-1 $-1 $16 $-1 $4 #
shell $-1 $-1 $-1 $17 $-1 $6 #
shell $-1 $-1 $-1 $18 $-1 $8 #
shell $-1 $-1 $-1 $19 $-1 $10 #
face $-1 $20 $21 $12 $-1 $22 forward single #
face $-1 $23 $24 $13 $-1 $25 reversed single #
face $-1 $26 $27 $14 $-1 $28 forward single #
face $-1 $29 $30 $15 $-1 $31 forward single #
face $-1 $32 $33 $12 $-1 $34 reversed single #
loop $-1 $-1 $35 $16 #
plane-surface $-1 0 0 16.974169331216011 0 0 1 1 0 0 forward_v I I I I #
face $-1 $36 $37 $13 $-1 $38 reversed single #
loop $-1 $-1 $39 $17 #
plane-surface $-1 108.54088835181078 10.890005339344139 200.23016889437753 0 -1 0 -0.82903758062907751 0 -0.55919289150049634 forward_v I I I I #
face $-1 $40 $41 $14 $-1 $42 forward single #
loop $-1 $43 $44 $18 #
cone-surface $-1 63.584272708286768 0.55240984299149432 8.9138924137505917 -0.82903758062907751 0 -0.55919289150049634 1.1183857830009927 0 -1.658075161258155 1 I I 0 1 2 forward I I I I #
face $-1 $45 $46 $15 $-1 $47 forward single #
loop $-1 $48 $49 $19 #
cone-surface $-1 63.584272708286768 6.7549671408030747 8.9138924137505917 -0.82903758062907751 0 -0.55919289150049634 1.1183857830009927 0 -1.658075161258155 1 I I 0 1 2 forward I I I I #
face $-1 $50 $51 $12 $-1 $52 reversed single #
loop $-1 $-1 $53 $20 #
plane-surface $-1 0 0 -16.974169331216011 0 0 1 1 0 0 forward_v I I I I #
coedge $-1 $54 $55 $56 $57 forward $21 $-1 #
face $-1 $58 $59 $13 $-1 $60 reversed single #
loop $-1 $-1 $61 $23 #
plane-surface $-1 -8.3456431125722048 3.6536884918972916 121.3892103730099 0.82903758062907751 0 0.55919289150049634 0.55919289150049634 0 -0.82903758062907751 forward_v I I I I #
coedge $-1 $62 $63 $64 $65 reversed $24 $-1 #
face $-1 $-1 $66 $14 $-1 $67 forward single #
loop $-1 $68 $69 $26 #
cone-surface $-1 60.050255550027273 0.55240984299149432 6.5301678160792207 -0.82903758062907751 0 -0.55919289150049634 0.55919289150049634 0 -0.82903758062907751 1 I I -0.70710678118654746 0.70710678118654746 1 forward I I I I #
loop $-1 $-1 $70 $18 #
coedge $-1 $44 $44 $71 $72 reversed $27 $-1 #
face $-1 $-1 $73 $15 $-1 $74 forward single #
loop $-1 $75 $76 $29 #
cone-surface $-1 60.050255550027273 6.7549671408030747 6.5301678160792207 -0.82903758062907751 0 -0.55919289150049634 0.55919289150049634 0 -0.82903758062907751 1 I I -0.70710678118654746 0.70710678118654746 1 forward I I I I #
loop $-1 $-1 $77 $19 #
coedge $-1 $49 $49 $78 $79 reversed $30 $-1 #
face $-1 $80 $81 $12 $-1 $82 reversed single #
loop $-1 $-1 $83 $32 #
plane-surface $-1 0 -36.751924940758379 0 0 1 0 0 0 1 forward_v I I I I #
coedge $-1 $84 $85 $86 $87 forward $33 $-1 #
coedge $-1 $88 $35 $89 $90 forward $21 $-1 #
coedge $-1 $35 $88 $91 $92 forward $21 $-1 #
coedge $-1 $93 $94 $35 $57 reversed $95 $-1 #
edge $-1 $96 -36.751924940758379 $97 36.751924940758379 $56 $98 forward 7 unknown #
face $-1 $99 $100 $13 $-1 $101 forward single #
loop $-1 $-1 $102 $36 #
plane-surface $-1 108.54088835181078 -3.5826283555495557 200.23016889437753 0 1 0 0.82903758062907751 0 0.55919289150049634 forward_v I I I I #
coedge $-1 $103 $104 $105 $106 reversed $37 $-1 #
coedge $-1 $63 $39 $107 $108 reversed $24 $-1 #
coedge $-1 $39 $62 $103 $109 reversed $24 $-1 #
coedge $-1 $105 $110 $39 $65 forward $100 $-1 #
edge $-1 $111 -16.224871232890045 $112 -7.8127449871335202 $64 $113 forward 7 unknown #
loop $-1 $-1 $71 $40 #
plane-surface $-1 -8.3456431125722048 3.6536884918972916 121.3892103730099 0.82903758062907751 0 0.55919289150049634 0.55919289150049634 0 -0.82903758062907751 forward_v I I I I #
loop $-1 $-1 $114 $26 #
coedge $-1 $69 $69 $70 $115 reversed $41 $-1 #
coedge $-1 $70 $70 $69 $115 forward $43 $-1 #
coedge $-1 $71 $71 $44 $72 forward $66 $-1 #
edge $-1 $116 0 $116 6.2831853071796004 $71 $117 forward 7 unknown #
loop $-1 $-1 $78 $45 #
plane-surface $-1 -8.3456431125722048 3.6536884918972916 121.3892103730099 0.82903758062907751 0 0.55919289150049634 0.55919289150049634 0 -0.82903758062907751 forward_v I I I I #
loop $-1 $-1 $118 $29 #
coedge $-1 $76 $76 $77 $119 reversed $46 $-1 #
coedge $-1 $77 $77 $76 $119 forward $48 $-1 #
coedge $-1 $78 $78 $49 $79 forward $73 $-1 #
edge $-1 $120 0 $120 6.2831853071796004 $78 $121 forward 7 unknown #
face $-1 $122 $123 $12 $-1 $124 reversed single #
loop $-1 $-1 $125 $50 #
plane-surface $-1 -70.495315408795435 0 0 1 0 0 0 0 -1 forward_v I I I I #
coedge $-1 $126 $91 $127 $128 forward $51 $-1 #
coedge $-1 $129 $53 $126 $130 forward $33 $-1 #
coedge $-1 $53 $129 $131 $132 forward $33 $-1 #
coedge $-1 $94 $93 $53 $87 reversed $95 $-1 #
edge $-1 $133 -36.751924940758379 $134 36.751924940758379 $86 $135 forward 7 unknown #
coedge $-1 $55 $54 $136 $137 forward $21 $-1 #
coedge $-1 $138 $139 $54 $90 reversed $123 $-1 #
edge $-1 $97 -70.495315408795435 $140 70.495315408795435 $89 $141 forward 7 unknown #
coedge $-1 $83 $142 $55 $92 reversed $51 $-1 #
edge $-1 $143 -70.495315408795435 $96 70.495315408795435 $91 $144 forward 7 unknown #
coedge $-1 $86 $56 $142 $145 forward $95 $-1 #
coedge $-1 $56 $86 $138 $146 reversed $95 $-1 #
loop $-1 $-1 $93 $122 #
vertex $-1 $57 $147 #
vertex $-1 $57 $148 #
straight-curve $-1 70.495315408795435 0 16.974169331216011 0 1 0 I I #
face $-1 $-1 $149 $13 $-1 $150 reversed single #
loop $-1 $-1 $64 $58 #
plane-surface $-1 0 0 16.974169331216011 0 0 1 1 0 0 forward_v I I I I #
coedge $-1 $151 $152 $153 $154 reversed $59 $-1 #
coedge $-1 $155 $61 $63 $109 forward $37 $-1 #
coedge $-1 $61 $155 $151 $156 forward $37 $-1 #
coedge $-1 $153 $64 $61 $106 forward $100 $-1 #
edge $-1 $112 -9.0631610933954931 $157 5.4094726014982015 $105 $158 forward 7 unknown #
coedge $-1 $159 $160 $62 $108 forward $149 $-1 #
edge $-1 $161 -95.612405538561873 $111 -83.140915115972746 $107 $162 forward 7 unknown #
edge $-1 $112 125.9472953717771 $161 140.9906308175909 $63 $163 forward 7 unknown #
coedge $-1 $64 $153 $159 $164 forward $100 $-1 #
vertex $-1 $108 $165 #
vertex $-1 $65 $166 #
straight-curve $-1 54.270444175905389 10.890005339344139 16.974169331216004 -1 0 0 I I #
coedge $-1 $114 $114 $-1 $167 reversed $68 $-1 #
edge $-1 $168 0 $168 6.2831853071796004 $69 $169 forward 7 unknown #
vertex $-1 $72 $170 #
ellipse-curve $-1 66.289252285917172 0.55240984299149432 10.738424119921454 0.82903758062907751 0 0.55919289150049634 1.1183857830009927 0 -1.658075161258155 1 I I #
coedge $-1 $118 $118 $-1 $171 reversed $75 $-1 #
edge $-1 $172 0 $172 6.2831853071796004 $76 $173 forward 7 unknown #
vertex $-1 $79 $174 #
ellipse-curve $-1 66.289252285917172 6.7549671408030747 10.738424119921454 0.82903758062907751 0 0.55919289150049634 1.1183857830009927 0 -1.658075161258155 1 I I #
face $-1 $-1 $95 $12 $-1 $175 reversed single #
loop $-1 $-1 $138 $80 #
plane-surface $-1 0 36.751924940758379 0 0 -1 0 0 0 -1 forward_v I I I I #
coedge $-1 $176 $136 $139 $177 forward $81 $-1 #
coedge $-1 $142 $83 $84 $130 reversed $51 $-1 #
coedge $-1 $136 $176 $83 $128 reversed $81 $-1 #
edge $-1 $143 -16.974169331216011 $178 16.974169331216011 $127 $179 forward 7 unknown #
coedge $-1 $85 $84 $176 $180 forward $33 $-1 #
edge $-1 $134 -70.495315408795435 $178 70.495315408795435 $126 $181 forward 7 unknown #
coedge $-1 $139 $138 $85 $132 reversed $123 $-1 #
edge $-1 $182 -70.495315408795435 $133 70.495315408795435 $131 $183 forward 7 unknown #
vertex $-1 $87 $184 #
vertex $-1 $145 $185 #
straight-curve $-1 70.495315408795435 0 -16.974169331216011 0 -1 0 I I #
coedge $-1 $125 $127 $88 $137 reversed $81 $-1 #
edge $-1 $140 -36.751924940758379 $143 36.751924940758379 $136 $186 forward 7 unknown #
coedge $-1 $131 $89 $94 $146 forward $123 $-1 #
coedge $-1 $89 $131 $125 $177 reversed $123 $-1 #
vertex $-1 $90 $187 #
straight-curve $-1 0 36.751924940758379 16.974169331216011 -1 0 0 I I #
coedge $-1 $91 $126 $93 $145 reversed $51 $-1 #
vertex $-1 $137 $188 #
straight-curve $-1 0 -36.751924940758379 16.974169331216011 1 0 0 I I #
edge $-1 $96 -16.974169331216011 $134 16.974169331216011 $93 $189 forward 7 unknown #
edge $-1 $97 -16.974169331216011 $133 16.974169331216011 $94 $190 forward 7 unknown #
point $-1 70.495315408795435 -36.751924940758379 16.974169331216011 #
point $-1 70.495315408795435 36.751924940758379 16.974169331216011 #
loop $-1 $-1 $107 $99 #
plane-surface $-1 70.495315408795435 0 0 -1 0 0 0 0 1 forward_v I I I I #
coedge $-1 $152 $102 $104 $156 reversed $59 $-1 #
coedge $-1 $102 $151 $191 $192 reversed $59 $-1 #
coedge $-1 $110 $105 $102 $154 forward $100 $-1 #
edge $-1 $157 7.8127449871335202 $193 16.224871232890045 $153 $194 forward 7 unknown #
coedge $-1 $104 $103 $160 $195 reversed $37 $-1 #
edge $-1 $196 -140.9906308175909 $157 -125.9472953717771 $151 $197 forward 7 unknown #
vertex $-1 $106 $198 #
straight-curve $-1 62.083189163038909 1.8268442459486458 16.974169331216004 0 -1 0 I I #
coedge $-1 $191 $107 $110 $164 reversed $149 $-1 #
coedge $-1 $107 $191 $155 $195 forward $149 $-1 #
vertex $-1 $108 $199 #
straight-curve $-1 70.495315408795435 10.890005339344139 100.11508444718876 0 0 1 I I #
straight-curve $-1 -8.3456431125722048 10.890005339344139 121.3892103730099 0.55919289150049634 0 -0.82903758062907751 I I #
edge $-1 $193 -3.5826283555495557 $111 10.890005339344139 $159 $200 forward 7 unknown #
point $-1 70.495315408795435 10.890005339344139 16.974169331216011 #
point $-1 62.083189163038909 10.890005339344139 16.974169331216004 #
edge $-1 $201 1 $201 0 $114 $-1 forward 7 unknown #
vertex $-1 $115 $202 #
ellipse-curve $-1 60.87929313065635 0.55240984299149432 7.0893607075797167 0.82903758062907751 0 0.55919289150049634 1.1183857830009927 0 -1.658075161258155 1 I I #
point $-1 67.407638068918175 0.55240984299149432 9.0803489586633113 #
edge $-1 $203 1 $203 0 $118 $-1 forward 7 unknown #
vertex $-1 $119 $204 #
ellipse-curve $-1 60.87929313065635 6.7549671408030747 7.0893607075797167 0.82903758062907751 0 0.55919289150049634 1.1183857830009927 0 -1.658075161258155 1 I I #
point $-1 67.407638068918175 6.7549671408030747 9.0803489586633113 #
plane-surface $-1 70.495315408795435 0 0 -1 0 0 0 0 1 forward_v I I I I #
coedge $-1 $127 $125 $129 $180 reversed $81 $-1 #
edge $-1 $140 -16.974169331216011 $182 16.974169331216011 $139 $205 forward 7 unknown #
vertex $-1 $180 $206 #
straight-curve $-1 -70.495315408795435 -36.751924940758379 0 0 0 -1 I I #
edge $-1 $178 -36.751924940758379 $182 36.751924940758379 $176 $207 forward 7 unknown #
straight-curve $-1 0 -36.751924940758379 -16.974169331216011 -1 0 0 I I #
vertex $-1 $132 $208 #
straight-curve $-1 0 36.751924940758379 -16.974169331216011 1 0 0 I I #
point $-1 70.495315408795435 36.751924940758379 -16.974169331216011 #
point $-1 70.495315408795435 -36.751924940758379 -16.974169331216011 #
straight-curve $-1 -70.495315408795435 0 16.974169331216011 0 -1 0 I I #
point $-1 -70.495315408795435 36.751924940758379 16.974169331216011 #
point $-1 -70.495315408795435 -36.751924940758379 16.974169331216011 #
straight-curve $-1 70.495315408795435 -36.751924940758379 0 0 0 -1 I I #
straight-curve $-1 70.495315408795435 36.751924940758379 0 0 0 -1 I I #
coedge $-1 $160 $159 $152 $192 forward $149 $-1 #
edge $-1 $193 83.140915115972746 $196 95.612405538561873 $191 $209 forward 7 unknown #
vertex $-1 $164 $210 #
straight-curve $-1 54.270444175905389 -3.5826283555495557 16.974169331216004 1 0 0 I I #
edge $-1 $196 -5.4094726014982015 $161 9.0631610933954931 $160 $211 forward 7 unknown #
vertex $-1 $195 $212 #
straight-curve $-1 -8.3456431125722048 -3.5826283555495557 121.3892103730099 -0.55919289150049634 0 0.82903758062907751 I I #
point $-1 62.083189163038909 -3.5826283555495557 16.974169331216004 #
point $-1 70.495315408795435 10.890005339344139 4.5026789086268906 #
straight-curve $-1 70.495315408795435 0 16.974169331216011 0 1 0 I I #
vertex $-1 $167 $213 #
point $-1 61.997678913657346 0.55240984299149432 5.4312855463215621 #
vertex $-1 $171 $214 #
point $-1 61.997678913657346 6.7549671408030747 5.4312855463215621 #
straight-curve $-1 -70.495315408795435 36.751924940758379 0 0 0 -1 I I #
point $-1 -70.495315408795435 -36.751924940758379 -16.974169331216011 #
straight-curve $-1 -70.495315408795435 0 -16.974169331216011 0 1 0 I I #
point $-1 -70.495315408795435 36.751924940758379 -16.974169331216011 #
straight-curve $-1 70.495315408795435 -3.5826283555495557 100.11508444718876 0 0 -1 I I #
point $-1 70.495315408795435 -3.5826283555495557 16.974169331216011 #
straight-curve $-1 70.495315408795435 1.8268442459486458 4.5026789086268906 0 1 0 I I #
point $-1 70.495315408795435 -3.5826283555495557 4.5026789086268906 #
point $-1 59.221217969398197 0.55240984299149432 5.9709749245787247 #
point $-1 59.221217969398197 6.7549671408030747 5.9709749245787247 #
End-of-ACIS-data 