500 0 10 0           
7 Unknown 11 ACIS 5.0 NT 24 Thu Mar 25 21:18:07 1999 
-1 9.9999999999999995e-007 1e-010 
body $-1 $10 $-1 $11 #
body $-1 $12 $-1 $13 #
body $-1 $14 $-1 $15 #
body $-1 $16 $-1 $17 #
body $-1 $18 $-1 $19 #
body $-1 $20 $-1 $21 #
body $-1 $22 $-1 $23 #
body $-1 $24 $-1 $25 #
body $-1 $26 $-1 $27 #
body $-1 $28 $-1 $29 #
lump $-1 $-1 $30 $0 #
transform $-1 1 0 0 0 1 0 0 0 1 60.777001251258888 28.726764262184428 11.038154183155591 1 rotate no_reflect no_shear #
lump $-1 $-1 $31 $1 #
transform $-1 1 0 0 0 1 0 0 0 1 60.777001251258888 28.726764262184428 11.038154183155591 1 rotate no_reflect no_shear #
lump $-1 $-1 $32 $2 #
transform $-1 1 0 0 0 1 0 0 0 1 60.777001251258888 28.726764262184428 11.038154183155591 1 rotate no_reflect no_shear #
lump $-1 $-1 $33 $3 #
transform $-1 1 0 0 0 1 0 0 0 1 60.777001251258888 28.726764262184428 11.038154183155591 1 rotate no_reflect no_shear #
lump $-1 $-1 $34 $4 #
transform $-1 1 0 0 0 1 0 0 0 1 60.777001251258888 28.726764262184428 11.038154183155591 1 rotate no_reflect no_shear #
lump $-1 $-1 $35 $5 #
transform $-1 1 0 0 0 1 0 0 0 1 60.777001251258888 28.726764262184428 11.038154183155591 1 rotate no_reflect no_shear #
lump $-1 $-1 $36 $6 #
transform $-1 1 0 0 0 1 0 0 0 1 60.777001251258888 28.726764262184428 11.038154183155591 1 rotate no_reflect no_shear #
lump $-1 $-1 $37 $7 #
transform $-1 1 0 0 0 1 0 0 0 1 60.777001251258888 28.726764262184428 11.038154183155591 1 rotate no_reflect no_shear #
lump $-1 $-1 $38 $8 #
transform $-1 1 0 0 0 1 0 0 0 1 60.777001251258888 28.726764262184428 11.038154183155591 1 rotate no_reflect no_shear #
lump $-1 $-1 $39 $9 #
transform $-1 1 0 0 0 1 0 0 0 1 60.777001251258888 28.726764262184428 11.038154183155591 1 rotate no_reflect no_shear #
shell $-1 $-1 $-1 $40 $-1 $10 #
shell $-1 $-1 $-1 $41 $-1 $12 #
shell $-1 $-1 $-1 $42 $-1 $14 #
shell $-1 $-1 $-1 $43 $-1 $16 #
shell $-1 $-1 $-1 $44 $-1 $18 #
shell $-1 $-1 $-1 $45 $-1 $20 #
shell $-1 $-1 $-1 $46 $-1 $22 #
shell $-1 $-1 $-1 $47 $-1 $24 #
shell $-1 $-1 $-1 $48 $-1 $26 #
shell $-1 $-1 $-1 $49 $-1 $28 #
face $-1 $50 $51 $30 $-1 $52 forward single #
face $-1 $53 $54 $31 $-1 $55 reversed single #
face $-1 $56 $57 $32 $-1 $58 reversed single #
face $-1 $59 $60 $33 $-1 $61 forward single #
face $-1 $62 $63 $34 $-1 $64 forward single #
face $-1 $65 $66 $35 $-1 $67 forward single #
face $-1 $68 $69 $36 $-1 $70 reversed single #
face $-1 $71 $72 $37 $-1 $73 forward single #
face $-1 $74 $75 $38 $-1 $76 forward single #
face $-1 $77 $78 $39 $-1 $79 forward single #
face $-1 $80 $81 $30 $-1 $82 reversed single #
loop $-1 $-1 $83 $40 #
plane-surface $-1 0 0 11.038154183155591 0 0 1 1 0 0 forward_v I I I I #
face $-1 $84 $85 $31 $-1 $86 reversed single #
loop $-1 $-1 $87 $41 #
plane-surface $-1 -55.088614296329119 0 6.5314665311553401 0 0 1 1 0 0 forward_v I I I I #
face $-1 $88 $89 $32 $-1 $90 reversed single #
loop $-1 $-1 $91 $42 #
plane-surface $-1 -29.669737529733371 -103.56288171310538 102.83810369021521 -1 0 0 0 -0.61566148304635926 0.78801074757464917 forward_v I I I I #
face $-1 $92 $93 $33 $-1 $94 forward single #
loop $-1 $95 $96 $43 #
cone-surface $-1 -45.45412937906616 -25.01182079604451 7.5552483114847497 0 0.61566148304635926 -0.78801074757464917 1 0 0 1 I I 0 1 1 forward I I I I #
face $-1 $97 $98 $34 $-1 $99 forward single #
loop $-1 $100 $101 $44 #
cone-surface $-1 -39.534982435566363 -25.01182079604451 7.5552483114847497 0 0.61566148304635926 -0.78801074757464917 1 0 0 1 I I 0 1 1 forward I I I I #
face $-1 $102 $103 $35 $-1 $104 forward single #
loop $-1 $105 $106 $45 #
cone-surface $-1 -33.615835492066566 -25.01182079604451 7.5552483114847497 0 0.61566148304635926 -0.78801074757464917 1 0 0 1 I I 0 1 1 forward I I I I #
face $-1 $107 $108 $36 $-1 $109 reversed single #
loop $-1 $-1 $110 $46 #
plane-surface $-1 -29.669737529733371 58.288883749816037 138.21002826777442 -1 0 0 0 0.61566148304635926 0.78801074757464917 forward_v I I I I #
face $-1 $111 $112 $37 $-1 $113 forward single #
loop $-1 $114 $115 $47 #
cone-surface $-1 -45.45412937906616 25.01182079604451 7.5552483114847497 0 -0.61566148304635926 -0.78801074757464917 1 0 0 1 I I 0 1 1 forward I I I I #
face $-1 $116 $117 $38 $-1 $118 forward single #
loop $-1 $119 $120 $48 #
cone-surface $-1 -39.534982435566363 25.01182079604451 7.5552483114847497 0 -0.61566148304635926 -0.78801074757464917 1 0 0 1 I I 0 1 1 forward I I I I #
face $-1 $121 $122 $39 $-1 $123 forward single #
loop $-1 $124 $125 $49 #
cone-surface $-1 -33.615835492066566 25.01182079604451 7.5552483114847497 0 -0.61566148304635926 -0.78801074757464917 1 0 0 1 I I 0 1 1 forward I I I I #
face $-1 $126 $127 $30 $-1 $128 reversed single #
loop $-1 $-1 $129 $50 #
plane-surface $-1 0 0 -11.038154183155591 0 0 1 1 0 0 forward_v I I I I #
coedge $-1 $130 $131 $132 $133 forward $51 $-1 #
face $-1 $134 $135 $31 $-1 $136 reversed single #
loop $-1 $-1 $137 $53 #
plane-surface $-1 -49.400227341399351 0 8.7848103571554645 -1 0 0 0 0 1 forward_v I I I I #
coedge $-1 $138 $139 $140 $141 forward $54 $-1 #
face $-1 $142 $143 $32 $-1 $144 forward single #
loop $-1 $-1 $145 $56 #
plane-surface $-1 -39.534982435566363 -28.726764262184432 7.052243307515397 0 -0.61566148304635926 0.78801074757464917 1 0 0 forward_v I I I I #
coedge $-1 $146 $147 $148 $149 reversed $57 $-1 #
face $-1 $-1 $150 $33 $-1 $151 forward single #
loop $-1 $152 $153 $59 #
cone-surface $-1 -45.45412937906616 -23.539913172837405 5.6712925038466793 0 0.61566148304635926 -0.78801074757464917 0.5 0 0 1 I I -0.70710678118654746 0.70710678118654746 0.5 forward I I I I #
loop $-1 $-1 $154 $43 #
coedge $-1 $96 $96 $155 $156 reversed $60 $-1 #
face $-1 $-1 $157 $34 $-1 $158 forward single #
loop $-1 $159 $160 $62 #
cone-surface $-1 -39.534982435566363 -23.539913172837405 5.6712925038466793 0 0.61566148304635926 -0.78801074757464917 0.5 0 0 1 I I -0.70710678118654746 0.70710678118654746 0.5 forward I I I I #
loop $-1 $-1 $161 $44 #
coedge $-1 $101 $101 $162 $163 reversed $63 $-1 #
face $-1 $-1 $164 $35 $-1 $165 forward single #
loop $-1 $166 $167 $65 #
cone-surface $-1 -33.615835492066566 -23.539913172837405 5.6712925038466793 0 0.61566148304635926 -0.78801074757464917 0.5 0 0 1 I I -0.70710678118654746 0.70710678118654746 0.5 forward I I I I #
loop $-1 $-1 $168 $45 #
coedge $-1 $106 $106 $169 $170 reversed $66 $-1 #
face $-1 $171 $172 $36 $-1 $173 forward single #
loop $-1 $-1 $174 $68 #
plane-surface $-1 -39.534982435566363 -16.547233701104915 42.42416788507461 0 0.61566148304635926 0.78801074757464917 1 0 0 forward_v I I I I #
coedge $-1 $175 $176 $177 $178 reversed $69 $-1 #
face $-1 $-1 $179 $37 $-1 $180 forward single #
loop $-1 $181 $182 $71 #
cone-surface $-1 -45.45412937906616 23.539913172837405 5.6712925038466793 0 -0.61566148304635926 -0.78801074757464917 0.5 0 0 1 I I -0.70710678118654746 0.70710678118654746 0.5 forward I I I I #
loop $-1 $-1 $183 $47 #
coedge $-1 $115 $115 $184 $185 reversed $72 $-1 #
face $-1 $-1 $186 $38 $-1 $187 forward single #
loop $-1 $188 $189 $74 #
cone-surface $-1 -39.534982435566363 23.539913172837405 5.6712925038466793 0 -0.61566148304635926 -0.78801074757464917 0.5 0 0 1 I I -0.70710678118654746 0.70710678118654746 0.5 forward I I I I #
loop $-1 $-1 $190 $48 #
coedge $-1 $120 $120 $191 $192 reversed $75 $-1 #
face $-1 $-1 $193 $39 $-1 $194 forward single #
loop $-1 $195 $196 $77 #
cone-surface $-1 -33.615835492066566 23.539913172837405 5.6712925038466793 0 -0.61566148304635926 -0.78801074757464917 0.5 0 0 1 I I -0.70710678118654746 0.70710678118654746 0.5 forward I I I I #
loop $-1 $-1 $197 $49 #
coedge $-1 $125 $125 $198 $199 reversed $78 $-1 #
face $-1 $200 $201 $30 $-1 $202 reversed single #
loop $-1 $-1 $203 $80 #
plane-surface $-1 0 -28.726764262184428 0 0 1 0 0 0 1 forward_v I I I I #
coedge $-1 $204 $205 $206 $207 forward $81 $-1 #
coedge $-1 $208 $83 $209 $210 forward $51 $-1 #
coedge $-1 $83 $208 $211 $212 forward $51 $-1 #
coedge $-1 $213 $214 $83 $133 reversed $215 $-1 #
edge $-1 $216 -28.726764262184428 $217 28.726764262184428 $132 $218 forward 7 unknown #
face $-1 $219 $220 $31 $-1 $221 reversed single #
loop $-1 $-1 $222 $84 #
plane-surface $-1 0 28.726764262184428 0 0 -1 0 0 0 -1 forward_v I I I I #
coedge $-1 $140 $223 $224 $225 reversed $85 $-1 #
coedge $-1 $226 $87 $227 $228 reversed $54 $-1 #
coedge $-1 $87 $226 $229 $230 reversed $54 $-1 #
coedge $-1 $231 $137 $87 $141 reversed $85 $-1 #
edge $-1 $232 -28.726764262184428 $233 28.726764262184428 $140 $234 forward 7 unknown #
face $-1 $235 $236 $32 $-1 $237 reversed single #
loop $-1 $-1 $238 $88 #
plane-surface $-1 -49.400227341399351 0 8.7848103571554645 -1 0 0 0 0 1 forward_v I I I I #
coedge $-1 $239 $240 $241 $242 reversed $89 $-1 #
coedge $-1 $147 $91 $243 $244 reversed $57 $-1 #
coedge $-1 $91 $146 $239 $245 reversed $57 $-1 #
coedge $-1 $241 $246 $91 $149 forward $247 $-1 #
edge $-1 $248 23.054676594368264 $249 28.156409763280244 $148 $250 forward 7 unknown #
loop $-1 $-1 $155 $92 #
plane-surface $-1 -39.534982435566363 -28.726764262184432 7.052243307515397 0 -0.61566148304635926 0.78801074757464917 1 0 0 forward_v I I I I #
loop $-1 $-1 $251 $59 #
coedge $-1 $153 $153 $154 $252 reversed $93 $-1 #
coedge $-1 $154 $154 $153 $252 forward $95 $-1 #
coedge $-1 $155 $155 $96 $156 forward $150 $-1 #
edge $-1 $253 -2.1872689723294032e-015 $253 6.2831853071795987 $155 $254 forward 7 unknown #
loop $-1 $-1 $162 $97 #
plane-surface $-1 -39.534982435566363 -28.726764262184432 7.052243307515397 0 -0.61566148304635926 0.78801074757464917 1 0 0 forward_v I I I I #
loop $-1 $-1 $255 $62 #
coedge $-1 $160 $160 $161 $256 reversed $98 $-1 #
coedge $-1 $161 $161 $160 $256 forward $100 $-1 #
coedge $-1 $162 $162 $101 $163 forward $157 $-1 #
edge $-1 $257 -2.1872689723294032e-015 $257 6.2831853071795987 $162 $258 forward 7 unknown #
loop $-1 $-1 $169 $102 #
plane-surface $-1 -39.534982435566363 -28.726764262184432 7.052243307515397 0 -0.61566148304635926 0.78801074757464917 1 0 0 forward_v I I I I #
loop $-1 $-1 $259 $65 #
coedge $-1 $167 $167 $168 $260 reversed $103 $-1 #
coedge $-1 $168 $168 $167 $260 forward $105 $-1 #
coedge $-1 $169 $169 $106 $170 forward $164 $-1 #
edge $-1 $261 -2.1872689723294032e-015 $261 6.2831853071795987 $169 $262 forward 7 unknown #
face $-1 $263 $264 $36 $-1 $265 forward single #
loop $-1 $-1 $266 $107 #
plane-surface $-1 0 0 11.038154183155591 0 0 1 1 0 0 forward_v I I I I #
coedge $-1 $267 $268 $269 $270 reversed $108 $-1 #
coedge $-1 $176 $110 $271 $272 reversed $69 $-1 #
coedge $-1 $110 $175 $267 $273 reversed $69 $-1 #
coedge $-1 $269 $274 $110 $178 forward $275 $-1 #
edge $-1 $276 58.066859950731619 $277 62.052770826371841 $177 $278 forward 7 unknown #
loop $-1 $-1 $184 $111 #
plane-surface $-1 -39.534982435566363 -16.547233701104915 42.42416788507461 0 0.61566148304635926 0.78801074757464917 1 0 0 forward_v I I I I #
loop $-1 $-1 $279 $71 #
coedge $-1 $182 $182 $183 $280 reversed $112 $-1 #
coedge $-1 $183 $183 $182 $280 forward $114 $-1 #
coedge $-1 $184 $184 $115 $185 forward $179 $-1 #
edge $-1 $281 1.3555958723187451e-015 $281 6.2831853071796022 $184 $282 forward 7 unknown #
loop $-1 $-1 $191 $116 #
plane-surface $-1 -39.534982435566363 -16.547233701104915 42.42416788507461 0 0.61566148304635926 0.78801074757464917 1 0 0 forward_v I I I I #
loop $-1 $-1 $283 $74 #
coedge $-1 $189 $189 $190 $284 reversed $117 $-1 #
coedge $-1 $190 $190 $189 $284 forward $119 $-1 #
coedge $-1 $191 $191 $120 $192 forward $186 $-1 #
edge $-1 $285 1.3555958723187451e-015 $285 6.2831853071796022 $191 $286 forward 7 unknown #
loop $-1 $-1 $198 $121 #
plane-surface $-1 -39.534982435566363 -16.547233701104915 42.42416788507461 0 0.61566148304635926 0.78801074757464917 1 0 0 forward_v I I I I #
loop $-1 $-1 $287 $77 #
coedge $-1 $196 $196 $197 $288 reversed $122 $-1 #
coedge $-1 $197 $197 $196 $288 forward $124 $-1 #
coedge $-1 $198 $198 $125 $199 forward $193 $-1 #
edge $-1 $289 1.3555958723187451e-015 $289 6.2831853071796022 $198 $290 forward 7 unknown #
face $-1 $291 $292 $30 $-1 $293 reversed single #
loop $-1 $-1 $294 $126 #
plane-surface $-1 -60.777001251258888 0 0 1 0 0 0 0 -1 forward_v I I I I #
coedge $-1 $295 $211 $296 $297 forward $127 $-1 #
coedge $-1 $298 $129 $295 $299 forward $81 $-1 #
coedge $-1 $129 $298 $300 $301 forward $81 $-1 #
coedge $-1 $214 $213 $129 $207 reversed $215 $-1 #
edge $-1 $302 -28.726764262184428 $303 28.726764262184428 $206 $304 forward 7 unknown #
coedge $-1 $131 $130 $305 $306 forward $51 $-1 #
coedge $-1 $307 $308 $130 $210 reversed $292 $-1 #
edge $-1 $217 -60.777001251258888 $309 60.777001251258888 $209 $310 forward 7 unknown #
coedge $-1 $203 $311 $131 $212 reversed $127 $-1 #
edge $-1 $312 -60.777001251258888 $216 60.777001251258888 $211 $313 forward 7 unknown #
coedge $-1 $206 $132 $311 $314 forward $215 $-1 #
coedge $-1 $132 $206 $307 $315 reversed $215 $-1 #
loop $-1 $-1 $213 $291 #
vertex $-1 $133 $316 #
vertex $-1 $133 $317 #
straight-curve $-1 60.777001251258888 0 11.038154183155591 0 1 0 I I #
face $-1 $318 $319 $31 $-1 $320 forward single #
loop $-1 $-1 $321 $134 #
plane-surface $-1 -60.777001251258888 0 0 1 0 0 0 0 -1 forward_v I I I I #
coedge $-1 $229 $322 $231 $323 forward $135 $-1 #
coedge $-1 $137 $231 $324 $325 reversed $85 $-1 #
coedge $-1 $326 $227 $137 $225 forward $327 $-1 #
edge $-1 $233 2.1390613525776079 $328 6.6457490045778567 $224 $329 forward 7 unknown #
coedge $-1 $139 $138 $321 $330 reversed $54 $-1 #
coedge $-1 $224 $331 $138 $228 forward $327 $-1 #
edge $-1 $332 -33.232694103094332 $233 -21.855920193234791 $227 $333 forward 7 unknown #
coedge $-1 $334 $222 $139 $230 forward $135 $-1 #
edge $-1 $232 21.855920193234791 $335 33.232694103094332 $229 $336 forward 7 unknown #
coedge $-1 $223 $140 $222 $323 reversed $85 $-1 #
vertex $-1 $230 $337 #
vertex $-1 $228 $338 #
straight-curve $-1 -49.400227341399351 0 6.5314665311553401 0 -1 0 I I #
face $-1 $-1 $247 $32 $-1 $339 forward single #
loop $-1 $-1 $340 $142 #
plane-surface $-1 0 -28.726764262184428 0 0 1 0 0 0 1 forward_v I I I I #
coedge $-1 $341 $342 $240 $343 forward $143 $-1 #
coedge $-1 $344 $145 $147 $245 forward $89 $-1 #
coedge $-1 $145 $344 $238 $343 reversed $89 $-1 #
coedge $-1 $345 $148 $145 $242 forward $247 $-1 #
edge $-1 $249 9.90224631195019 $346 29.632736123616169 $241 $347 forward 7 unknown #
coedge $-1 $348 $340 $146 $244 forward $236 $-1 #
edge $-1 $349 -44.366808537592206 $248 -40.380897661952012 $243 $350 forward 7 unknown #
edge $-1 $249 -6.4741923693479713 $349 -4.4400282911973173e-015 $147 $351 forward 7 unknown #
coedge $-1 $148 $345 $348 $352 forward $247 $-1 #
loop $-1 $-1 $241 $235 #
vertex $-1 $244 $353 #
vertex $-1 $149 $354 #
straight-curve $-1 -29.669737529733371 -51.781440856552692 11.038154183155591 0 1 0 I I #
coedge $-1 $251 $251 $-1 $355 reversed $152 $-1 #
edge $-1 $356 0 $356 6.2831853071796004 $153 $357 forward 7 unknown #
vertex $-1 $156 $358 #
ellipse-curve $-1 -45.45412937906616 -26.175897677728436 9.0451987453354974 0 -0.61566148304635926 0.78801074757464917 1 0 0 1 I I #
coedge $-1 $255 $255 $-1 $359 reversed $159 $-1 #
edge $-1 $360 0 $360 6.2831853071796004 $160 $361 forward 7 unknown #
vertex $-1 $163 $362 #
ellipse-curve $-1 -39.534982435566363 -26.175897677728436 9.0451987453354974 0 -0.61566148304635926 0.78801074757464917 1 0 0 1 I I #
coedge $-1 $259 $259 $-1 $363 reversed $166 $-1 #
edge $-1 $364 0 $364 6.2831853071796004 $167 $365 forward 7 unknown #
vertex $-1 $170 $366 #
ellipse-curve $-1 -33.615835492066566 -26.175897677728436 9.0451987453354974 0 -0.61566148304635926 0.78801074757464917 1 0 0 1 I I #
face $-1 $-1 $275 $36 $-1 $367 reversed single #
loop $-1 $-1 $368 $171 #
plane-surface $-1 -49.400227341399351 0 8.7848103571554645 -1 0 0 0 0 1 forward_v I I I I #
coedge $-1 $271 $369 $370 $371 forward $172 $-1 #
coedge $-1 $370 $174 $176 $273 forward $108 $-1 #
coedge $-1 $174 $370 $368 $372 reversed $108 $-1 #
coedge $-1 $373 $177 $174 $270 forward $275 $-1 #
edge $-1 $277 9.90224631195019 $374 29.632736123616169 $269 $375 forward 7 unknown #
coedge $-1 $376 $266 $175 $272 forward $172 $-1 #
edge $-1 $377 -5.5194107816356066 $276 -0.41767761272359039 $271 $378 forward 7 unknown #
edge $-1 $277 -57.45352852436887 $377 -50.979336155020853 $176 $379 forward 7 unknown #
coedge $-1 $177 $373 $376 $380 reversed $275 $-1 #
loop $-1 $-1 $269 $263 #
vertex $-1 $380 $381 #
vertex $-1 $178 $382 #
straight-curve $-1 -29.669737529733371 28.726764262184428 69.105014133887209 0 0 -1 I I #
coedge $-1 $279 $279 $-1 $383 reversed $181 $-1 #
edge $-1 $384 0 $384 6.2831853071796004 $182 $385 forward 7 unknown #
vertex $-1 $185 $386 #
ellipse-curve $-1 -45.45412937906616 26.175897677728422 9.0451987453354779 0 0.61566148304635926 0.78801074757464917 1 0 0 1 I I #
coedge $-1 $283 $283 $-1 $387 reversed $188 $-1 #
edge $-1 $388 0 $388 6.2831853071796004 $189 $389 forward 7 unknown #
vertex $-1 $192 $390 #
ellipse-curve $-1 -39.534982435566363 26.175897677728422 9.0451987453354779 0 0.61566148304635926 0.78801074757464917 1 0 0 1 I I #
coedge $-1 $287 $287 $-1 $391 reversed $195 $-1 #
edge $-1 $392 0 $392 6.2831853071796004 $196 $393 forward 7 unknown #
vertex $-1 $199 $394 #
ellipse-curve $-1 -33.615835492066566 26.175897677728422 9.0451987453354779 0 0.61566148304635926 0.78801074757464917 1 0 0 1 I I #
face $-1 $-1 $215 $30 $-1 $395 reversed single #
loop $-1 $-1 $307 $200 #
plane-surface $-1 0 28.726764262184428 0 0 -1 0 0 0 -1 forward_v I I I I #
coedge $-1 $396 $305 $308 $397 forward $201 $-1 #
coedge $-1 $311 $203 $204 $299 reversed $127 $-1 #
coedge $-1 $305 $396 $203 $297 reversed $201 $-1 #
edge $-1 $312 -11.038154183155591 $398 11.038154183155591 $296 $399 forward 7 unknown #
coedge $-1 $205 $204 $396 $400 forward $81 $-1 #
edge $-1 $303 -60.777001251258888 $398 60.777001251258888 $295 $401 forward 7 unknown #
coedge $-1 $308 $307 $205 $301 reversed $292 $-1 #
edge $-1 $402 -60.777001251258888 $302 60.777001251258888 $300 $403 forward 7 unknown #
vertex $-1 $207 $404 #
vertex $-1 $314 $405 #
straight-curve $-1 60.777001251258888 0 -11.038154183155591 0 -1 0 I I #
coedge $-1 $294 $296 $208 $306 reversed $201 $-1 #
edge $-1 $309 -28.726764262184428 $312 28.726764262184428 $305 $406 forward 7 unknown #
coedge $-1 $300 $209 $214 $315 forward $292 $-1 #
coedge $-1 $209 $300 $294 $397 reversed $292 $-1 #
vertex $-1 $210 $407 #
straight-curve $-1 0 28.726764262184428 11.038154183155591 -1 0 0 I I #
coedge $-1 $211 $295 $213 $314 reversed $127 $-1 #
vertex $-1 $306 $408 #
straight-curve $-1 0 -28.726764262184428 11.038154183155591 1 0 0 I I #
edge $-1 $216 -11.038154183155591 $303 11.038154183155591 $213 $409 forward 7 unknown #
edge $-1 $217 -11.038154183155591 $302 11.038154183155591 $214 $410 forward 7 unknown #
point $-1 60.777001251258888 -28.726764262184428 11.038154183155591 #
point $-1 60.777001251258888 28.726764262184428 11.038154183155591 #
face $-1 $-1 $327 $31 $-1 $411 reversed single #
loop $-1 $-1 $324 $219 #
plane-surface $-1 0 0 11.038154183155591 0 0 1 1 0 0 forward_v I I I I #
coedge $-1 $412 $413 $226 $330 forward $220 $-1 #
coedge $-1 $222 $334 $414 $415 reversed $135 $-1 #
edge $-1 $416 -6.6457490045778567 $232 -2.1390613525776079 $222 $417 forward 7 unknown #
coedge $-1 $414 $418 $223 $325 forward $319 $-1 #
edge $-1 $328 -28.726764262184428 $416 28.726764262184428 $324 $419 forward 7 unknown #
coedge $-1 $331 $224 $418 $420 reversed $327 $-1 #
loop $-1 $-1 $224 $318 #
vertex $-1 $225 $421 #
straight-curve $-1 -49.400227341399351 -28.726764262184428 4.3924051785777323 0 0 1 I I #
edge $-1 $335 -28.726764262184428 $332 28.726764262184428 $321 $422 forward 7 unknown #
coedge $-1 $227 $326 $412 $423 forward $327 $-1 #
vertex $-1 $330 $424 #
straight-curve $-1 -27.54430714816456 -28.726764262184428 6.5314665311553401 1 0 0 I I #
coedge $-1 $322 $229 $413 $425 reversed $135 $-1 #
vertex $-1 $330 $426 #
straight-curve $-1 -27.54430714816456 28.726764262184428 6.5314665311553401 -1 0 0 I I #
point $-1 -49.400227341399351 28.726764262184428 6.5314665311553401 #
point $-1 -49.400227341399351 -28.726764262184428 6.5314665311553401 #
plane-surface $-1 0 0 11.038154183155591 0 0 1 1 0 0 forward_v I I I I #
coedge $-1 $243 $427 $344 $428 forward $236 $-1 #
coedge $-1 $342 $238 $427 $429 reversed $143 $-1 #
coedge $-1 $238 $341 $345 $430 reversed $143 $-1 #
edge $-1 $346 5.3776445211036954 $431 11.851836890451658 $238 $432 forward 7 unknown #
coedge $-1 $240 $239 $340 $428 reversed $89 $-1 #
coedge $-1 $246 $241 $342 $430 forward $247 $-1 #
vertex $-1 $430 $433 #
straight-curve $-1 -19.767491217783181 -23.625031093272451 11.038154183155591 -1 0 0 I I #
coedge $-1 $427 $243 $246 $352 reversed $236 $-1 #
vertex $-1 $244 $434 #
straight-curve $-1 -29.669737529733371 -28.726764262184432 51.419051845107603 0 0 1 I I #
straight-curve $-1 -29.669737529733371 -28.726764262184432 7.052243307515397 0 -0.78801074757464917 -0.61566148304635926 I I #
edge $-1 $435 -49.400227341399351 $248 -29.669737529733371 $348 $436 forward 7 unknown #
point $-1 -29.669737529733371 -28.726764262184428 11.038154183155591 #
point $-1 -29.669737529733371 -23.625031093272447 11.038154183155591 #
edge $-1 $437 1 $437 0 $251 $-1 forward 7 unknown #
vertex $-1 $252 $438 #
ellipse-curve $-1 -45.45412937906616 -23.847743914360585 6.0652978776340039 0 -0.61566148304635926 0.78801074757464917 1 0 0 1 I I #
point $-1 -44.45412937906616 -26.175897677728436 9.0451987453354938 #
edge $-1 $439 1 $439 0 $255 $-1 forward 7 unknown #
vertex $-1 $256 $440 #
ellipse-curve $-1 -39.534982435566363 -23.847743914360585 6.0652978776340039 0 -0.61566148304635926 0.78801074757464917 1 0 0 1 I I #
point $-1 -38.534982435566363 -26.175897677728436 9.0451987453354938 #
edge $-1 $441 1 $441 0 $259 $-1 forward 7 unknown #
vertex $-1 $260 $442 #
ellipse-curve $-1 -33.615835492066566 -23.847743914360585 6.0652978776340039 0 -0.61566148304635926 0.78801074757464917 1 0 0 1 I I #
point $-1 -32.615835492066566 -26.175897677728436 9.0451987453354938 #
plane-surface $-1 0 28.726764262184428 0 0 -1 0 0 0 -1 forward_v I I I I #
coedge $-1 $443 $444 $268 $372 forward $264 $-1 #
coedge $-1 $266 $376 $443 $445 forward $172 $-1 #
coedge $-1 $268 $267 $266 $371 reversed $108 $-1 #
edge $-1 $446 -29.632736123616169 $377 -9.90224631195019 $266 $447 forward 7 unknown #
edge $-1 $374 -40.578601152636111 $446 -34.104408783288093 $368 $448 forward 7 unknown #
coedge $-1 $274 $269 $444 $449 forward $275 $-1 #
vertex $-1 $449 $450 #
straight-curve $-1 -19.767491217783181 28.726764262184428 7.052243307515365 -1 0 0 I I #
coedge $-1 $369 $271 $274 $380 forward $172 $-1 #
vertex $-1 $272 $451 #
straight-curve $-1 -29.669737529733371 29.144441874908019 11.038154183155591 0 1 0 I I #
straight-curve $-1 -29.669737529733371 -16.547233701104915 42.42416788507461 0 -0.78801074757464917 0.61566148304635926 I I #
edge $-1 $276 29.669737529733371 $452 49.400227341399351 $274 $453 forward 7 unknown #
point $-1 -29.669737529733371 28.726764262184428 11.038154183155591 #
point $-1 -29.669737529733371 28.726764262184432 7.0522433075153685 #
edge $-1 $454 1 $454 0 $279 $-1 forward 7 unknown #
vertex $-1 $280 $455 #
ellipse-curve $-1 -45.45412937906616 23.847743914360585 6.0652978776340039 0 0.61566148304635926 0.78801074757464917 1 0 0 1 I I #
point $-1 -44.45412937906616 26.175897677728436 9.0451987453354938 #
edge $-1 $456 1 $456 0 $283 $-1 forward 7 unknown #
vertex $-1 $284 $457 #
ellipse-curve $-1 -39.534982435566363 23.847743914360585 6.0652978776340039 0 0.61566148304635926 0.78801074757464917 1 0 0 1 I I #
point $-1 -38.534982435566363 26.175897677728436 9.0451987453354938 #
edge $-1 $458 1 $458 0 $287 $-1 forward 7 unknown #
vertex $-1 $288 $459 #
ellipse-curve $-1 -33.615835492066566 23.847743914360585 6.0652978776340039 0 0.61566148304635926 0.78801074757464917 1 0 0 1 I I #
point $-1 -32.615835492066566 26.175897677728436 9.0451987453354938 #
plane-surface $-1 60.777001251258888 0 0 -1 0 0 0 0 1 forward_v I I I I #
coedge $-1 $296 $294 $298 $400 reversed $201 $-1 #
edge $-1 $309 -11.038154183155591 $402 11.038154183155591 $308 $460 forward 7 unknown #
vertex $-1 $400 $461 #
straight-curve $-1 -60.777001251258888 -28.726764262184428 0 0 0 -1 I I #
edge $-1 $398 -28.726764262184428 $402 28.726764262184428 $396 $462 forward 7 unknown #
straight-curve $-1 0 -28.726764262184428 -11.038154183155591 -1 0 0 I I #
vertex $-1 $301 $463 #
straight-curve $-1 0 28.726764262184428 -11.038154183155591 1 0 0 I I #
point $-1 60.777001251258888 28.726764262184428 -11.038154183155591 #
point $-1 60.777001251258888 -28.726764262184428 -11.038154183155591 #
straight-curve $-1 -60.777001251258888 0 11.038154183155591 0 -1 0 I I #
point $-1 -60.777001251258888 28.726764262184428 11.038154183155591 #
point $-1 -60.777001251258888 -28.726764262184428 11.038154183155591 #
straight-curve $-1 60.777001251258888 -28.726764262184428 0 0 0 -1 I I #
straight-curve $-1 60.777001251258888 28.726764262184428 0 0 0 -1 I I #
plane-surface $-1 0 -28.726764262184428 0 0 1 0 0 0 1 forward_v I I I I #
coedge $-1 $464 $321 $331 $423 reversed $220 $-1 #
coedge $-1 $321 $464 $334 $425 forward $220 $-1 #
coedge $-1 $465 $324 $322 $415 forward $319 $-1 #
edge $-1 $416 49.400227341399351 $466 60.777001251258888 $322 $467 forward 7 unknown #
vertex $-1 $415 $468 #
straight-curve $-1 -49.400227341399351 28.726764262184428 4.3924051785777323 0 0 -1 I I #
coedge $-1 $324 $465 $326 $420 forward $319 $-1 #
straight-curve $-1 -49.400227341399351 0 11.038154183155591 0 1 0 I I #
edge $-1 $469 -60.777001251258888 $328 -49.400227341399351 $326 $470 forward 7 unknown #
point $-1 -49.400227341399351 -28.726764262184428 11.038154183155589 #
straight-curve $-1 -60.777001251258888 0 6.5314665311553401 0 -1 0 I I #
edge $-1 $469 -11.038154183155591 $332 -6.5314665311553401 $412 $471 forward 7 unknown #
point $-1 -60.777001251258888 -28.726764262184428 6.5314665311553401 #
edge $-1 $466 -11.038154183155591 $335 -6.5314665311553401 $334 $472 forward 7 unknown #
point $-1 -60.777001251258888 28.726764262184428 6.5314665311553401 #
coedge $-1 $340 $348 $341 $429 forward $236 $-1 #
edge $-1 $431 -29.632736123616169 $349 -9.90224631195019 $340 $473 forward 7 unknown #
edge $-1 $435 -6.6457490045778567 $431 -2.6598381289376682 $427 $474 forward 7 unknown #
edge $-1 $346 23.625031093272451 $435 28.726764262184428 $345 $475 forward 7 unknown #
vertex $-1 $343 $476 #
straight-curve $-1 -49.400227341399351 -19.387389414006812 14.34896278431442 0 -0.78801074757464917 -0.61566148304635926 I I #
point $-1 -49.400227341399351 -23.625031093272451 11.038154183155591 #
point $-1 -29.669737529733371 -28.726764262184428 7.0522433075153996 #
vertex $-1 $352 $477 #
straight-curve $-1 0 -28.726764262184428 11.038154183155591 1 0 0 I I #
vertex $-1 $355 $478 #
point $-1 -44.45412937906616 -23.847743914360585 6.0652978776340039 #
vertex $-1 $359 $479 #
point $-1 -38.534982435566363 -23.847743914360585 6.0652978776340039 #
vertex $-1 $363 $480 #
point $-1 -32.615835492066566 -23.847743914360585 6.0652978776340039 #
coedge $-1 $444 $368 $369 $445 reversed $264 $-1 #
coedge $-1 $368 $443 $373 $449 reversed $264 $-1 #
edge $-1 $452 -28.726764262184428 $446 -23.625031093272408 $369 $481 forward 7 unknown #
vertex $-1 $372 $482 #
straight-curve $-1 -19.767491217783181 23.625031093272412 11.038154183155587 1 0 0 I I #
straight-curve $-1 -49.400227341399351 -3.2496095676378713 32.034925073094016 0 -0.78801074757464917 0.61566148304635926 I I #
edge $-1 $374 2.6598381289376283 $452 6.6457490045778567 $373 $483 forward 7 unknown #
point $-1 -49.400227341399351 28.726764262184428 7.0522433075153605 #
point $-1 -29.669737529733371 23.625031093272412 11.038154183155591 #
vertex $-1 $445 $484 #
straight-curve $-1 0 28.726764262184428 11.038154183155591 -1 0 0 I I #
vertex $-1 $383 $485 #
point $-1 -44.45412937906616 23.847743914360585 6.0652978776340039 #
vertex $-1 $387 $486 #
point $-1 -38.534982435566363 23.847743914360585 6.0652978776340039 #
vertex $-1 $391 $487 #
point $-1 -32.615835492066566 23.847743914360585 6.0652978776340039 #
straight-curve $-1 -60.777001251258888 28.726764262184428 0 0 0 -1 I I #
point $-1 -60.777001251258888 -28.726764262184428 -11.038154183155591 #
straight-curve $-1 -60.777001251258888 0 -11.038154183155591 0 1 0 I I #
point $-1 -60.777001251258888 28.726764262184428 -11.038154183155591 #
coedge $-1 $413 $412 $465 $488 reversed $220 $-1 #
coedge $-1 $418 $414 $464 $488 forward $319 $-1 #
vertex $-1 $415 $489 #
straight-curve $-1 0 28.726764262184428 11.038154183155591 -1 0 0 I I #
point $-1 -49.400227341399351 28.726764262184428 11.038154183155589 #
vertex $-1 $488 $490 #
straight-curve $-1 0 -28.726764262184428 11.038154183155591 1 0 0 I I #
straight-curve $-1 -60.777001251258888 -28.726764262184428 0 0 0 -1 I I #
straight-curve $-1 -60.777001251258888 28.726764262184428 0 0 0 -1 I I #
straight-curve $-1 -19.767491217783181 -28.726764262184428 7.0522433075154005 1 0 0 I I #
straight-curve $-1 -49.400227341399351 -28.726764262184428 4.3924051785777323 0 0 -1 I I #
straight-curve $-1 -49.400227341399351 0 11.038154183155591 0 -1 0 I I #
point $-1 -49.400227341399351 -28.726764262184428 7.0522433075154005 #
point $-1 -49.400227341399351 -28.726764262184428 11.038154183155589 #
point $-1 -45.45412937906616 -23.232082431314225 5.2772871300593547 #
point $-1 -39.534982435566363 -23.232082431314225 5.2772871300593547 #
point $-1 -33.615835492066566 -23.232082431314225 5.2772871300593547 #
straight-curve $-1 -49.400227341399351 0 11.038154183155591 0 -1 0 I I #
point $-1 -49.400227341399351 23.625031093272408 11.038154183155591 #
straight-curve $-1 -49.400227341399351 28.726764262184428 4.3924051785777323 0 0 1 I I #
point $-1 -49.400227341399351 28.726764262184428 11.038154183155589 #
point $-1 -45.45412937906616 23.232082431314225 5.2772871300593547 #
point $-1 -39.534982435566363 23.232082431314225 5.2772871300593547 #
point $-1 -33.615835492066566 23.232082431314225 5.2772871300593547 #
edge $-1 $466 -28.726764262184428 $469 28.726764262184428 $464 $491 forward 7 unknown #
point $-1 -60.777001251258888 28.726764262184428 11.038154183155591 #
point $-1 -60.777001251258888 -28.726764262184428 11.038154183155591 #
straight-curve $-1 -60.777001251258888 0 11.038154183155591 0 -1 0 I I #
End-of-ACIS-data 