500 0 5 0           
7 Unknown 11 ACIS 5.0 NT 24 Thu Mar 25 20:50:28 1999 
-1 9.9999999999999995e-007 1e-010 
body $-1 $5 $-1 $6 #
body $-1 $7 $-1 $8 #
body $-1 $9 $-1 $10 #
body $-1 $11 $-1 $12 #
body $-1 $13 $-1 $14 #
lump $-1 $-1 $15 $0 #
transform $-1 1 0 0 0 1 0 0 0 1 77.613452558977031 38.318311291309527 10.180483131736938 1 rotate no_reflect no_shear #
lump $-1 $-1 $16 $1 #
transform $-1 1 0 0 0 1 0 0 0 1 77.613452558977031 38.318311291309527 10.180483131736938 1 rotate no_reflect no_shear #
lump $-1 $-1 $17 $2 #
transform $-1 1 0 0 0 1 0 0 0 1 77.613452558977031 38.318311291309527 10.180483131736938 1 rotate no_reflect no_shear #
lump $-1 $-1 $18 $3 #
transform $-1 1 0 0 0 1 0 0 0 1 77.613452558977031 38.318311291309527 10.180483131736938 1 rotate no_reflect no_shear #
lump $-1 $-1 $19 $4 #
transform $-1 1 0 0 0 1 0 0 0 1 77.613452558977031 38.318311291309527 10.180483131736938 1 rotate no_reflect no_shear #
shell $-1 $-1 $-1 $20 $-1 $5 #
shell $-1 $-1 $-1 $21 $-1 $7 #
shell $-1 $-1 $-1 $22 $-1 $9 #
shell $-1 $-1 $-1 $23 $-1 $11 #
shell $-1 $-1 $-1 $24 $-1 $13 #
face $-1 $25 $26 $15 $-1 $27 forward single #
face $-1 $28 $29 $16 $-1 $30 reversed single #
face $-1 $31 $32 $17 $-1 $33 reversed single #
face $-1 $34 $35 $18 $-1 $36 forward single #
face $-1 $37 $38 $19 $-1 $39 forward single #
face $-1 $40 $41 $15 $-1 $42 reversed single #
loop $-1 $-1 $43 $20 #
plane-surface $-1 0 0 10.180483131736938 0 0 1 1 0 0 forward_v I I I I #
face $-1 $44 $45 $16 $-1 $46 reversed single #
loop $-1 $-1 $47 $21 #
plane-surface $-1 -72.163331986293102 0 6.2692910802160888 0 0 1 1 0 0 forward_v I I I I #
face $-1 $48 $49 $17 $-1 $50 reversed single #
loop $-1 $-1 $51 $22 #
plane-surface $-1 -32.148543399009853 -30.463449231536067 116.32648572369999 0.70710678939079041 0 0.70710677298230451 0.70710677298230451 0 -0.70710678939079041 forward_v I I I I #
face $-1 $52 $53 $18 $-1 $54 forward single #
loop $-1 $55 $56 $23 #
cone-surface $-1 74.634823568907422 -33.829818685724696 7.2018541268771408 -0.70710678939079041 0 -0.70710677298230451 0.70710677298230451 0 -0.70710678939079041 1 I I 0 1 1 forward I I I I #
face $-1 $57 $58 $19 $-1 $59 forward single #
loop $-1 $60 $61 $24 #
cone-surface $-1 74.634823568907422 -27.097079777347442 7.2018541268771408 -0.70710678939079041 0 -0.70710677298230451 0.70710677298230451 0 -0.70710678939079041 1 I I 0 1 1 forward I I I I #
face $-1 $62 $63 $15 $-1 $64 reversed single #
loop $-1 $-1 $65 $25 #
plane-surface $-1 0 0 -10.180483131736938 0 0 1 1 0 0 forward_v I I I I #
coedge $-1 $66 $67 $68 $69 forward $26 $-1 #
face $-1 $70 $71 $16 $-1 $72 reversed single #
loop $-1 $-1 $73 $28 #
plane-surface $-1 -66.713211413609173 0 8.2248871059765136 -1 0 0 0 0 1 forward_v I I I I #
coedge $-1 $74 $75 $76 $77 forward $29 $-1 #
face $-1 $78 $79 $17 $-1 $80 forward single #
loop $-1 $-1 $81 $31 #
plane-surface $-1 77.613455106015493 -22.608587171762608 226.08848168168686 0 -1 0 -0.70710678939079041 0 -0.70710677298230451 forward_v I I I I #
coedge $-1 $82 $83 $84 $85 reversed $32 $-1 #
face $-1 $-1 $86 $18 $-1 $87 forward single #
loop $-1 $88 $89 $34 #
cone-surface $-1 73.110639098718764 -33.829818685724696 5.6776696920573464 -0.70710678939079041 0 -0.70710677298230451 0.35355338649115226 0 -0.35355339469539521 1 I I -0.70710678118654746 0.70710678118654746 0.5 forward I I I I #
loop $-1 $-1 $90 $23 #
coedge $-1 $56 $56 $91 $92 reversed $35 $-1 #
face $-1 $-1 $93 $19 $-1 $94 forward single #
loop $-1 $95 $96 $37 #
cone-surface $-1 73.110639098718764 -27.097079777347442 5.6776696920573464 -0.70710678939079041 0 -0.70710677298230451 0.35355338649115226 0 -0.35355339469539521 1 I I -0.70710678118654746 0.70710678118654746 0.5 forward I I I I #
loop $-1 $-1 $97 $24 #
coedge $-1 $61 $61 $98 $99 reversed $38 $-1 #
face $-1 $100 $101 $15 $-1 $102 reversed single #
loop $-1 $-1 $103 $40 #
plane-surface $-1 0 -38.318311291309527 0 0 1 0 0 0 1 forward_v I I I I #
coedge $-1 $104 $105 $106 $107 forward $41 $-1 #
coedge $-1 $108 $43 $109 $110 forward $26 $-1 #
coedge $-1 $43 $108 $111 $112 forward $26 $-1 #
coedge $-1 $113 $114 $43 $69 reversed $115 $-1 #
edge $-1 $116 -38.318311291309527 $117 38.318311291309527 $68 $118 forward 7 unknown #
face $-1 $119 $120 $16 $-1 $121 reversed single #
loop $-1 $-1 $122 $44 #
plane-surface $-1 0 38.318311291309527 0 0 -1 0 0 0 -1 forward_v I I I I #
coedge $-1 $76 $123 $124 $125 reversed $45 $-1 #
coedge $-1 $126 $47 $127 $128 reversed $29 $-1 #
coedge $-1 $47 $126 $129 $130 reversed $29 $-1 #
coedge $-1 $131 $73 $47 $77 reversed $45 $-1 #
edge $-1 $132 -38.318311291309527 $133 38.318311291309527 $76 $134 forward 7 unknown #
face $-1 $135 $136 $17 $-1 $137 reversed single #
loop $-1 $-1 $138 $48 #
plane-surface $-1 0 0 10.180483131736938 0 0 1 1 0 0 forward_v I I I I #
coedge $-1 $139 $140 $141 $142 reversed $49 $-1 #
coedge $-1 $143 $51 $144 $145 reversed $32 $-1 #
coedge $-1 $51 $143 $139 $146 forward $32 $-1 #
coedge $-1 $141 $147 $51 $85 forward $148 $-1 #
edge $-1 $149 -23.086586675541493 $150 -7.376862555994574 $84 $151 forward 7 unknown #
loop $-1 $-1 $91 $52 #
plane-surface $-1 -32.148543399009853 -30.463449231536067 116.32648572369999 0.70710678939079041 0 0.70710677298230451 0.70710677298230451 0 -0.70710678939079041 forward_v I I I I #
loop $-1 $-1 $152 $34 #
coedge $-1 $89 $89 $90 $153 reversed $53 $-1 #
coedge $-1 $90 $90 $89 $153 forward $55 $-1 #
coedge $-1 $91 $91 $56 $92 forward $86 $-1 #
edge $-1 $154 0 $154 6.2831853071796004 $91 $155 forward 7 unknown #
loop $-1 $-1 $98 $57 #
plane-surface $-1 -32.148543399009853 -30.463449231536067 116.32648572369999 0.70710678939079041 0 0.70710677298230451 0.70710677298230451 0 -0.70710678939079041 forward_v I I I I #
loop $-1 $-1 $156 $37 #
coedge $-1 $96 $96 $97 $157 reversed $58 $-1 #
coedge $-1 $97 $97 $96 $157 forward $60 $-1 #
coedge $-1 $98 $98 $61 $99 forward $93 $-1 #
edge $-1 $158 0 $158 6.2831853071796004 $98 $159 forward 7 unknown #
face $-1 $160 $161 $15 $-1 $162 reversed single #
loop $-1 $-1 $163 $62 #
plane-surface $-1 -77.613452558977031 0 0 1 0 0 0 0 -1 forward_v I I I I #
coedge $-1 $164 $111 $165 $166 forward $63 $-1 #
coedge $-1 $167 $65 $164 $168 forward $41 $-1 #
coedge $-1 $65 $167 $169 $170 forward $41 $-1 #
coedge $-1 $114 $113 $65 $107 reversed $115 $-1 #
edge $-1 $171 -38.318311291309527 $172 38.318311291309527 $106 $173 forward 7 unknown #
coedge $-1 $67 $66 $174 $175 forward $26 $-1 #
coedge $-1 $176 $177 $66 $110 reversed $161 $-1 #
edge $-1 $117 -77.613452558977031 $178 77.613452558977031 $109 $179 forward 7 unknown #
coedge $-1 $103 $180 $67 $112 reversed $63 $-1 #
edge $-1 $181 -77.613452558977031 $116 77.613452558977031 $111 $182 forward 7 unknown #
coedge $-1 $106 $68 $180 $183 forward $115 $-1 #
coedge $-1 $68 $106 $176 $184 reversed $115 $-1 #
loop $-1 $-1 $113 $160 #
vertex $-1 $69 $185 #
vertex $-1 $69 $186 #
straight-curve $-1 77.613452558977031 0 10.180483131736938 0 1 0 I I #
face $-1 $187 $188 $16 $-1 $189 forward single #
loop $-1 $-1 $190 $70 #
plane-surface $-1 -77.613452558977031 0 0 1 0 0 0 0 -1 forward_v I I I I #
coedge $-1 $129 $191 $131 $192 forward $71 $-1 #
coedge $-1 $73 $131 $193 $194 reversed $45 $-1 #
coedge $-1 $195 $127 $73 $125 forward $196 $-1 #
edge $-1 $133 2.156847527227832 $197 6.0680395787486816 $124 $198 forward 7 unknown #
coedge $-1 $75 $74 $190 $199 reversed $29 $-1 #
coedge $-1 $124 $200 $74 $128 forward $196 $-1 #
edge $-1 $201 -41.53178656583048 $133 -30.631545420462622 $127 $202 forward 7 unknown #
coedge $-1 $203 $122 $75 $130 forward $71 $-1 #
edge $-1 $132 30.631545420462622 $204 41.53178656583048 $129 $205 forward 7 unknown #
coedge $-1 $123 $76 $122 $192 reversed $45 $-1 #
vertex $-1 $130 $206 #
vertex $-1 $128 $207 #
straight-curve $-1 -66.713211413609173 0 6.2692910802160888 0 -1 0 I I #
face $-1 $-1 $148 $17 $-1 $208 reversed single #
loop $-1 $-1 $144 $78 #
plane-surface $-1 0 -38.318311291309527 0 0 1 0 0 0 1 forward_v I I I I #
coedge $-1 $209 $210 $140 $211 forward $79 $-1 #
coedge $-1 $140 $81 $83 $146 reversed $49 $-1 #
coedge $-1 $81 $139 $138 $211 reversed $49 $-1 #
coedge $-1 $212 $84 $81 $142 forward $148 $-1 #
edge $-1 $150 -106.4797536221688 $213 -102.86375770910649 $141 $214 forward 7 unknown #
coedge $-1 $83 $82 $209 $215 reversed $32 $-1 #
coedge $-1 $216 $217 $82 $145 forward $136 $-1 #
edge $-1 $218 97.619264405471426 $149 102.73305480787681 $144 $219 forward 7 unknown #
edge $-1 $220 150.11311471554873 $150 155.22690511795415 $139 $221 forward 7 unknown #
coedge $-1 $84 $212 $216 $222 forward $148 $-1 #
loop $-1 $-1 $141 $135 #
vertex $-1 $145 $223 #
vertex $-1 $85 $224 #
straight-curve $-1 77.613452558977031 -15.231724615768034 6.5644872186746142 0 1 0 I I #
coedge $-1 $152 $152 $-1 $225 reversed $88 $-1 #
edge $-1 $226 0 $226 6.2831853071796004 $89 $227 forward 7 unknown #
vertex $-1 $92 $228 #
ellipse-curve $-1 75.805454644400669 -33.829818685724696 8.3724851752057692 0.70710678939079041 0 0.70710677298230451 0.70710677298230451 0 -0.70710678939079041 1 I I #
coedge $-1 $156 $156 $-1 $229 reversed $95 $-1 #
edge $-1 $230 0 $230 6.2831853071796004 $96 $231 forward 7 unknown #
vertex $-1 $99 $232 #
ellipse-curve $-1 75.805454644400669 -27.097079777347442 8.3724851752057692 0.70710678939079041 0 0.70710677298230451 0.70710677298230451 0 -0.70710678939079041 1 I I #
face $-1 $-1 $115 $15 $-1 $233 reversed single #
loop $-1 $-1 $176 $100 #
plane-surface $-1 0 38.318311291309527 0 0 -1 0 0 0 -1 forward_v I I I I #
coedge $-1 $234 $174 $177 $235 forward $101 $-1 #
coedge $-1 $180 $103 $104 $168 reversed $63 $-1 #
coedge $-1 $174 $234 $103 $166 reversed $101 $-1 #
edge $-1 $181 -10.180483131736938 $236 10.180483131736938 $165 $237 forward 7 unknown #
coedge $-1 $105 $104 $234 $238 forward $41 $-1 #
edge $-1 $172 -77.613452558977031 $236 77.613452558977031 $164 $239 forward 7 unknown #
coedge $-1 $177 $176 $105 $170 reversed $161 $-1 #
edge $-1 $240 -77.613452558977031 $171 77.613452558977031 $169 $241 forward 7 unknown #
vertex $-1 $107 $242 #
vertex $-1 $183 $243 #
straight-curve $-1 77.613452558977031 0 -10.180483131736938 0 -1 0 I I #
coedge $-1 $163 $165 $108 $175 reversed $101 $-1 #
edge $-1 $178 -38.318311291309527 $181 38.318311291309527 $174 $244 forward 7 unknown #
coedge $-1 $169 $109 $114 $184 forward $161 $-1 #
coedge $-1 $109 $169 $163 $235 reversed $161 $-1 #
vertex $-1 $110 $245 #
straight-curve $-1 0 38.318311291309527 10.180483131736938 -1 0 0 I I #
coedge $-1 $111 $164 $113 $183 reversed $63 $-1 #
vertex $-1 $175 $246 #
straight-curve $-1 0 -38.318311291309527 10.180483131736938 1 0 0 I I #
edge $-1 $116 -10.180483131736938 $172 10.180483131736938 $113 $247 forward 7 unknown #
edge $-1 $117 -10.180483131736938 $171 10.180483131736938 $114 $248 forward 7 unknown #
point $-1 77.613452558977031 -38.318311291309527 10.180483131736938 #
point $-1 77.613452558977031 38.318311291309527 10.180483131736938 #
face $-1 $-1 $196 $16 $-1 $249 reversed single #
loop $-1 $-1 $193 $119 #
plane-surface $-1 0 0 10.180483131736938 0 0 1 1 0 0 forward_v I I I I #
coedge $-1 $250 $251 $126 $199 forward $120 $-1 #
coedge $-1 $122 $203 $252 $253 reversed $71 $-1 #
edge $-1 $254 -6.0680395787486816 $132 -2.156847527227832 $122 $255 forward 7 unknown #
coedge $-1 $252 $256 $123 $194 forward $188 $-1 #
edge $-1 $197 -38.318311291309527 $254 38.318311291309527 $193 $257 forward 7 unknown #
coedge $-1 $200 $124 $256 $258 reversed $196 $-1 #
loop $-1 $-1 $124 $187 #
vertex $-1 $125 $259 #
straight-curve $-1 -66.713211413609173 -38.318311291309527 4.1124435529882568 0 0 1 I I #
edge $-1 $204 -38.318311291309527 $201 38.318311291309527 $190 $260 forward 7 unknown #
coedge $-1 $127 $195 $250 $261 forward $196 $-1 #
vertex $-1 $199 $262 #
straight-curve $-1 -36.081665993146551 -38.318311291309527 6.2692910802160888 1 0 0 I I #
coedge $-1 $191 $129 $251 $263 reversed $71 $-1 #
vertex $-1 $199 $264 #
straight-curve $-1 -36.081665993146551 38.318311291309527 6.2692910802160888 -1 0 0 I I #
point $-1 -66.713211413609173 38.318311291309527 6.2692910802160888 #
point $-1 -66.713211413609173 -38.318311291309527 6.2692910802160888 #
plane-surface $-1 77.613452558977031 0 0 -1 0 0 0 0 1 forward_v I I I I #
coedge $-1 $265 $138 $143 $215 forward $79 $-1 #
coedge $-1 $138 $265 $212 $266 forward $79 $-1 #
edge $-1 $213 -38.806725005969284 $220 -35.190729176816532 $138 $267 forward 7 unknown #
coedge $-1 $147 $141 $210 $266 reversed $148 $-1 #
vertex $-1 $211 $268 #
straight-curve $-1 77.613452558977031 -22.608587171762608 113.04424084084343 0 0 1 I I #
edge $-1 $220 7.376862555994574 $218 23.086586675541493 $209 $269 forward 7 unknown #
coedge $-1 $217 $144 $147 $222 reversed $136 $-1 #
coedge $-1 $144 $216 $265 $270 reversed $136 $-1 #
vertex $-1 $270 $271 #
straight-curve $-1 4.9702136951650289 -38.318311291309527 79.20772776818049 0.70710677298230462 0 -0.70710678939079052 I I #
vertex $-1 $215 $272 #
straight-curve $-1 -32.148543399009853 -22.608587171762608 116.32648572369999 0.70710677298230451 0 -0.70710678939079041 I I #
edge $-1 $273 -10.180483131736938 $149 -6.5644872186746221 $147 $274 forward 7 unknown #
point $-1 77.613452558977031 -38.318311291309527 6.5644872186746221 #
point $-1 77.613452558977031 -22.608587171762608 6.5644872186746284 #
edge $-1 $275 1 $275 0 $152 $-1 forward 7 unknown #
vertex $-1 $153 $276 #
ellipse-curve $-1 73.46419249341416 -33.829818685724696 6.031223078548499 0.70710678939079041 0 0.70710677298230451 0.70710677298230451 0 -0.70710678939079041 1 I I #
point $-1 76.512561417382969 -33.829818685724696 7.6653783858149911 #
edge $-1 $277 1 $277 0 $156 $-1 forward 7 unknown #
vertex $-1 $157 $278 #
ellipse-curve $-1 73.46419249341416 -27.097079777347442 6.031223078548499 0.70710678939079041 0 0.70710677298230451 0.70710677298230451 0 -0.70710678939079041 1 I I #
point $-1 76.512561417382969 -27.097079777347442 7.6653783858149911 #
plane-surface $-1 77.613452558977031 0 0 -1 0 0 0 0 1 forward_v I I I I #
coedge $-1 $165 $163 $167 $238 reversed $101 $-1 #
edge $-1 $178 -10.180483131736938 $240 10.180483131736938 $177 $279 forward 7 unknown #
vertex $-1 $238 $280 #
straight-curve $-1 -77.613452558977031 -38.318311291309527 0 0 0 -1 I I #
edge $-1 $236 -38.318311291309527 $240 38.318311291309527 $234 $281 forward 7 unknown #
straight-curve $-1 0 -38.318311291309527 -10.180483131736938 -1 0 0 I I #
vertex $-1 $170 $282 #
straight-curve $-1 0 38.318311291309527 -10.180483131736938 1 0 0 I I #
point $-1 77.613452558977031 38.318311291309527 -10.180483131736938 #
point $-1 77.613452558977031 -38.318311291309527 -10.180483131736938 #
straight-curve $-1 -77.613452558977031 0 10.180483131736938 0 -1 0 I I #
point $-1 -77.613452558977031 38.318311291309527 10.180483131736938 #
point $-1 -77.613452558977031 -38.318311291309527 10.180483131736938 #
straight-curve $-1 77.613452558977031 -38.318311291309527 0 0 0 -1 I I #
straight-curve $-1 77.613452558977031 38.318311291309527 0 0 0 -1 I I #
plane-surface $-1 0 -38.318311291309527 0 0 1 0 0 0 1 forward_v I I I I #
coedge $-1 $283 $190 $200 $261 reversed $120 $-1 #
coedge $-1 $190 $283 $203 $263 forward $120 $-1 #
coedge $-1 $284 $193 $191 $253 forward $188 $-1 #
edge $-1 $254 66.713211413609173 $285 77.613452558977031 $191 $286 forward 7 unknown #
vertex $-1 $253 $287 #
straight-curve $-1 -66.713211413609173 38.318311291309527 4.1124435529882568 0 0 -1 I I #
coedge $-1 $193 $284 $195 $258 forward $188 $-1 #
straight-curve $-1 -66.713211413609173 0 10.180483131736938 0 1 0 I I #
edge $-1 $288 -77.613452558977031 $197 -66.713211413609173 $195 $289 forward 7 unknown #
point $-1 -66.713211413609173 -38.318311291309527 10.180483131736938 #
straight-curve $-1 -77.613452558977031 0 6.2692910802160888 0 -1 0 I I #
edge $-1 $288 -10.180483131736938 $201 -6.2692910802160888 $250 $290 forward 7 unknown #
point $-1 -77.613452558977031 -38.318311291309527 6.2692910802160888 #
edge $-1 $285 -10.180483131736938 $204 -6.2692910802160888 $203 $291 forward 7 unknown #
point $-1 -77.613452558977031 38.318311291309527 6.2692910802160888 #
coedge $-1 $210 $209 $217 $270 forward $79 $-1 #
edge $-1 $273 -38.318311291309527 $213 -22.608587171762608 $212 $292 forward 7 unknown #
straight-curve $-1 38.806727553007747 -22.608587171762608 10.180483131736935 -1 0 0 I I #
point $-1 77.613452558977031 -22.608587171762608 10.180483131736938 #
straight-curve $-1 73.997456729824279 -15.231724615768034 10.180483131736921 0 -1 0 I I #
edge $-1 $218 73.997456729824279 $273 77.613452558977031 $217 $293 forward 7 unknown #
point $-1 73.997456729824279 -38.318311291309527 10.180483131736935 #
point $-1 73.997456729824279 -22.608587171762608 10.180483131736935 #
vertex $-1 $266 $294 #
straight-curve $-1 77.613452558977031 -38.318311291309527 0 0 0 -1 I I #
vertex $-1 $225 $295 #
point $-1 74.17129926639646 -33.829818685724696 5.3241162891577085 #
vertex $-1 $229 $296 #
point $-1 74.17129926639646 -27.097079777347442 5.3241162891577085 #
straight-curve $-1 -77.613452558977031 38.318311291309527 0 0 0 -1 I I #
point $-1 -77.613452558977031 -38.318311291309527 -10.180483131736938 #
straight-curve $-1 -77.613452558977031 0 -10.180483131736938 0 1 0 I I #
point $-1 -77.613452558977031 38.318311291309527 -10.180483131736938 #
coedge $-1 $251 $250 $284 $297 reversed $120 $-1 #
coedge $-1 $256 $252 $283 $297 forward $188 $-1 #
vertex $-1 $253 $298 #
straight-curve $-1 0 38.318311291309527 10.180483131736938 -1 0 0 I I #
point $-1 -66.713211413609173 38.318311291309527 10.180483131736938 #
vertex $-1 $297 $299 #
straight-curve $-1 0 -38.318311291309527 10.180483131736938 1 0 0 I I #
straight-curve $-1 -77.613452558977031 -38.318311291309527 0 0 0 -1 I I #
straight-curve $-1 -77.613452558977031 38.318311291309527 0 0 0 -1 I I #
straight-curve $-1 77.613452558977031 0 10.180483131736938 0 1 0 I I #
straight-curve $-1 0 -38.318311291309527 10.180483131736938 1 0 0 I I #
point $-1 77.613452558977031 -38.318311291309527 10.180483131736938 #
point $-1 72.757085704023368 -33.829818685724696 5.3241163055661938 #
point $-1 72.757085704023368 -27.097079777347442 5.3241163055661938 #
edge $-1 $285 -38.318311291309527 $288 38.318311291309527 $283 $300 forward 7 unknown #
point $-1 -77.613452558977031 38.318311291309527 10.180483131736938 #
point $-1 -77.613452558977031 -38.318311291309527 10.180483131736938 #
straight-curve $-1 -77.613452558977031 0 10.180483131736938 0 -1 0 I I #
End-of-ACIS-data 