500 0 12 0           
7 Unknown 11 ACIS 5.0 NT 24 Fri Mar 26 17:50:05 1999 
-1 9.9999999999999995e-007 1e-010 
body $-1 $12 $-1 $13 #
body $-1 $14 $-1 $15 #
body $-1 $16 $-1 $17 #
body $-1 $18 $-1 $19 #
body $-1 $20 $-1 $21 #
body $-1 $22 $-1 $23 #
body $-1 $24 $-1 $25 #
body $-1 $26 $-1 $27 #
body $-1 $28 $-1 $29 #
body $-1 $30 $-1 $31 #
body $-1 $32 $-1 $33 #
body $-1 $34 $-1 $35 #
lump $-1 $-1 $36 $0 #
transform $-1 1 0 0 0 1 0 0 0 1 64.584490493484296 41.683772707399328 13.915156949366361 1 rotate no_reflect no_shear #
lump $-1 $-1 $37 $1 #
transform $-1 1 0 0 0 1 0 0 0 1 64.584490493484296 41.683772707399328 13.915156949366361 1 rotate no_reflect no_shear #
lump $-1 $-1 $38 $2 #
transform $-1 1 0 0 0 1 0 0 0 1 64.584490493484296 41.683772707399328 13.915156949366361 1 rotate no_reflect no_shear #
lump $-1 $-1 $39 $3 #
transform $-1 1 0 0 0 1 0 0 0 1 64.584490493484296 41.683772707399328 13.915156949366361 1 rotate no_reflect no_shear #
lump $-1 $-1 $40 $4 #
transform $-1 1 0 0 0 1 0 0 0 1 64.584490493484296 41.683772707399328 13.915156949366361 1 rotate no_reflect no_shear #
lump $-1 $-1 $41 $5 #
transform $-1 1 0 0 0 1 0 0 0 1 64.584490493484296 41.683772707399328 13.915156949366361 1 rotate no_reflect no_shear #
lump $-1 $-1 $42 $6 #
transform $-1 1 0 0 0 1 0 0 0 1 64.584490493484296 41.683772707399328 13.915156949366361 1 rotate no_reflect no_shear #
lump $-1 $-1 $43 $7 #
transform $-1 1 0 0 0 1 0 0 0 1 64.584490493484296 41.683772707399328 13.915156949366361 1 rotate no_reflect no_shear #
lump $-1 $-1 $44 $8 #
transform $-1 1 0 0 0 1 0 0 0 1 64.584490493484296 41.683772707399328 13.915156949366361 1 rotate no_reflect no_shear #
lump $-1 $-1 $45 $9 #
transform $-1 1 0 0 0 1 0 0 0 1 64.584490493484296 41.683772707399328 13.915156949366361 1 rotate no_reflect no_shear #
lump $-1 $-1 $46 $10 #
transform $-1 1 0 0 0 1 0 0 0 1 64.584490493484296 41.683772707399328 13.915156949366361 1 rotate no_reflect no_shear #
lump $-1 $-1 $47 $11 #
transform $-1 1 0 0 0 1 0 0 0 1 64.584490493484296 41.683772707399328 13.915156949366361 1 rotate no_reflect no_shear #
shell $-1 $-1 $-1 $48 $-1 $12 #
shell $-1 $-1 $-1 $49 $-1 $14 #
shell $-1 $-1 $-1 $50 $-1 $16 #
shell $-1 $-1 $-1 $51 $-1 $18 #
shell $-1 $-1 $-1 $52 $-1 $20 #
shell $-1 $-1 $-1 $53 $-1 $22 #
shell $-1 $-1 $-1 $54 $-1 $24 #
shell $-1 $-1 $-1 $55 $-1 $26 #
shell $-1 $-1 $-1 $56 $-1 $28 #
shell $-1 $-1 $-1 $57 $-1 $30 #
shell $-1 $-1 $-1 $58 $-1 $32 #
shell $-1 $-1 $-1 $59 $-1 $34 #
face $-1 $60 $61 $36 $-1 $62 forward single #
face $-1 $63 $64 $37 $-1 $65 forward single #
face $-1 $66 $67 $38 $-1 $68 reversed single #
face $-1 $69 $70 $39 $-1 $71 forward single #
face $-1 $72 $73 $40 $-1 $74 forward single #
face $-1 $75 $76 $41 $-1 $77 forward single #
face $-1 $78 $79 $42 $-1 $80 reversed single #
face $-1 $81 $82 $43 $-1 $83 forward single #
face $-1 $84 $85 $44 $-1 $86 forward single #
face $-1 $87 $88 $45 $-1 $89 reversed single #
face $-1 $90 $91 $46 $-1 $92 forward single #
face $-1 $93 $94 $47 $-1 $95 forward single #
face $-1 $96 $97 $36 $-1 $98 reversed single #
loop $-1 $-1 $99 $48 #
plane-surface $-1 0 0 13.915156949366361 0 0 1 1 0 0 forward_v I I I I #
face $-1 $100 $101 $37 $-1 $102 reversed single #
loop $-1 $-1 $103 $49 #
plane-surface $-1 0 -35.332019746215309 -6.5796647758629927 0 0 1 1 0 0 forward_v I I I I #
face $-1 $104 $105 $38 $-1 $106 reversed single #
loop $-1 $-1 $107 $50 #
plane-surface $-1 -131.11143468407187 10.474463189440321 117.66685850972316 0 1 0 -0.51503808176128008 0 0.85716729658548041 forward_v I I I I #
face $-1 $108 $109 $39 $-1 $110 forward single #
loop $-1 $111 $112 $51 #
cone-surface $-1 -57.936683687430637 12.818515775453768 9.0171791562476464 0.51503808176128008 0 -0.85716729658548041 0.85716729658548041 0 0.51503808176128008 1 I I 0 1 1 forward I I I I #
face $-1 $113 $114 $40 $-1 $115 forward single #
loop $-1 $116 $117 $52 #
cone-surface $-1 -57.936683687430637 16.334594654473932 9.0171791562476464 0.51503808176128008 0 -0.85716729658548041 0.85716729658548041 0 0.51503808176128008 1 I I 0 1 1 forward I I I I #
face $-1 $118 $119 $41 $-1 $120 forward single #
loop $-1 $121 $122 $53 #
cone-surface $-1 -57.936683687430637 19.850673533494096 9.0171791562476464 0.51503808176128008 0 -0.85716729658548041 0.85716729658548041 0 0.51503808176128008 1 I I 0 1 1 forward I I I I #
face $-1 $123 $124 $42 $-1 $125 reversed single #
loop $-1 $-1 $126 $54 #
plane-surface $-1 64.584492612951706 -5.1761478154917597 185.85976257101396 0 -1 0 -0.70710678939079041 0 -0.70710677298230451 forward_v I I I I #
face $-1 $127 $128 $43 $-1 $129 forward single #
loop $-1 $130 $131 $55 #
cone-surface $-1 58.369983033153041 -15.474651589554384 7.7006493843009238 -0.70710678939079041 0 -0.70710677298230451 1.0606601594734568 0 -1.0606601840861856 1 I I 0 1 1.5 forward I I I I #
face $-1 $132 $133 $44 $-1 $134 forward single #
loop $-1 $135 $136 $56 #
cone-surface $-1 58.369983033153041 -9.2955493251168093 7.7006493843009238 -0.70710678939079041 0 -0.70710677298230451 1.0606601594734568 0 -1.0606601840861856 1 I I 0 1 1.5 forward I I I I #
face $-1 $137 $138 $45 $-1 $139 reversed single #
loop $-1 $-1 $140 $57 #
plane-surface $-1 64.584492612951706 30.155871930723549 185.85976257101396 0 -1 0 -0.70710678939079041 0 -0.70710677298230451 forward_v I I I I #
face $-1 $141 $142 $46 $-1 $143 forward single #
loop $-1 $144 $145 $58 #
cone-surface $-1 58.369983033153041 19.857368156660925 7.7006493843009238 -0.70710678939079041 0 -0.70710677298230451 1.0606601594734568 0 -1.0606601840861856 1 I I 0 1 1.5 forward I I I I #
face $-1 $146 $147 $47 $-1 $148 forward single #
loop $-1 $149 $150 $59 #
cone-surface $-1 58.369983033153041 26.0364704210985 7.7006493843009238 -0.70710678939079041 0 -0.70710677298230451 1.0606601594734568 0 -1.0606601840861856 1 I I 0 1 1.5 forward I I I I #
face $-1 $151 $152 $36 $-1 $153 reversed single #
loop $-1 $-1 $154 $60 #
plane-surface $-1 0 0 -13.915156949366361 0 0 1 1 0 0 forward_v I I I I #
coedge $-1 $155 $156 $157 $158 forward $61 $-1 #
face $-1 $159 $160 $37 $-1 $161 reversed single #
loop $-1 $-1 $162 $63 #
plane-surface $-1 0 -28.98026678503129 -10.247410862614677 0 -1 0 0 0 -1 forward_v I I I I #
coedge $-1 $163 $164 $165 $166 reversed $64 $-1 #
face $-1 $167 $168 $38 $-1 $169 reversed single #
loop $-1 $-1 $170 $66 #
plane-surface $-1 -64.58449049348431 16.334594654473932 6.9474322744219705 -0.51503808176128008 0 0.85716729658548041 0.85716729658548041 0 0.51503808176128008 forward_v I I I I #
coedge $-1 $171 $172 $173 $174 reversed $67 $-1 #
face $-1 $-1 $175 $39 $-1 $176 forward single #
loop $-1 $177 $178 $69 #
cone-surface $-1 -56.829478343110246 12.818515775453768 7.1744800523083843 0.51503808176128008 0 -0.85716729658548041 0.4285836482927402 0 0.25751904088064004 1 I I -0.70710678118654746 0.70710678118654746 0.5 forward I I I I #
loop $-1 $-1 $179 $51 #
coedge $-1 $112 $112 $180 $181 reversed $70 $-1 #
face $-1 $-1 $182 $40 $-1 $183 forward single #
loop $-1 $184 $185 $72 #
cone-surface $-1 -56.829478343110246 16.334594654473932 7.1744800523083843 0.51503808176128008 0 -0.85716729658548041 0.4285836482927402 0 0.25751904088064004 1 I I -0.70710678118654746 0.70710678118654746 0.5 forward I I I I #
loop $-1 $-1 $186 $52 #
coedge $-1 $117 $117 $187 $188 reversed $73 $-1 #
face $-1 $-1 $189 $41 $-1 $190 forward single #
loop $-1 $191 $192 $75 #
cone-surface $-1 -56.829478343110246 19.850673533494096 7.1744800523083843 0.51503808176128008 0 -0.85716729658548041 0.4285836482927402 0 0.25751904088064004 1 I I -0.70710678118654746 0.70710678118654746 0.5 forward I I I I #
loop $-1 $-1 $193 $53 #
coedge $-1 $122 $122 $194 $195 reversed $76 $-1 #
face $-1 $196 $197 $42 $-1 $198 reversed single #
loop $-1 $-1 $199 $78 #
plane-surface $-1 -26.751770821623708 -12.385100457335597 94.523501255905956 0.70710678939079041 0 0.70710677298230451 0.70710677298230451 0 -0.70710678939079041 forward_v I I I I #
coedge $-1 $200 $201 $202 $203 reversed $79 $-1 #
face $-1 $-1 $204 $43 $-1 $205 forward single #
loop $-1 $206 $207 $81 #
cone-surface $-1 56.98910492032536 -15.474651589554384 6.3197713035166618 -0.70710678939079041 0 -0.70710677298230451 0.53033007973672841 0 -0.53033009204309278 1 I I -0.70710678118654757 0.70710678118654757 0.75 forward I I I I #
loop $-1 $-1 $208 $55 #
coedge $-1 $131 $131 $209 $210 reversed $82 $-1 #
face $-1 $-1 $211 $44 $-1 $212 forward single #
loop $-1 $213 $214 $84 #
cone-surface $-1 56.98910492032536 -9.2955493251168093 6.3197713035166618 -0.70710678939079041 0 -0.70710677298230451 0.53033007973672841 0 -0.53033009204309278 1 I I -0.70710678118654757 0.70710678118654757 0.75 forward I I I I #
loop $-1 $-1 $215 $56 #
coedge $-1 $136 $136 $216 $217 reversed $85 $-1 #
face $-1 $218 $219 $45 $-1 $220 reversed single #
loop $-1 $-1 $221 $87 #
plane-surface $-1 -26.751770821623708 22.946919288879712 94.523501255905956 0.70710678939079041 0 0.70710677298230451 0.70710677298230451 0 -0.70710678939079041 forward_v I I I I #
coedge $-1 $222 $223 $224 $225 reversed $88 $-1 #
face $-1 $-1 $226 $46 $-1 $227 forward single #
loop $-1 $228 $229 $90 #
cone-surface $-1 56.98910492032536 19.857368156660925 6.3197713035166618 -0.70710678939079041 0 -0.70710677298230451 0.53033007973672841 0 -0.53033009204309278 1 I I -0.70710678118654757 0.70710678118654757 0.75 forward I I I I #
loop $-1 $-1 $230 $58 #
coedge $-1 $145 $145 $231 $232 reversed $91 $-1 #
face $-1 $-1 $233 $47 $-1 $234 forward single #
loop $-1 $235 $236 $93 #
cone-surface $-1 56.98910492032536 26.0364704210985 6.3197713035166618 -0.70710678939079041 0 -0.70710677298230451 0.53033007973672841 0 -0.53033009204309278 1 I I -0.70710678118654757 0.70710678118654757 0.75 forward I I I I #
loop $-1 $-1 $237 $59 #
coedge $-1 $150 $150 $238 $239 reversed $94 $-1 #
face $-1 $240 $241 $36 $-1 $242 reversed single #
loop $-1 $-1 $243 $96 #
plane-surface $-1 0 -41.683772707399328 0 0 1 0 0 0 1 forward_v I I I I #
coedge $-1 $244 $245 $246 $247 forward $97 $-1 #
coedge $-1 $248 $99 $249 $250 forward $61 $-1 #
coedge $-1 $99 $248 $251 $252 forward $61 $-1 #
coedge $-1 $253 $254 $99 $158 reversed $255 $-1 #
edge $-1 $256 -41.683772707399328 $257 41.683772707399328 $157 $258 forward 7 unknown #
face $-1 $259 $260 $37 $-1 $261 reversed single #
loop $-1 $-1 $262 $100 #
plane-surface $-1 0 0 -13.915156949366361 0 0 1 1 0 0 forward_v I I I I #
coedge $-1 $263 $264 $265 $266 reversed $101 $-1 #
coedge $-1 $267 $103 $264 $268 forward $64 $-1 #
coedge $-1 $103 $267 $269 $270 reversed $64 $-1 #
coedge $-1 $271 $265 $103 $166 forward $260 $-1 #
edge $-1 $272 11.314256911923636 $273 24.017762834291673 $165 $274 forward 7 unknown #
face $-1 $275 $276 $38 $-1 $277 forward single #
loop $-1 $-1 $278 $104 #
plane-surface $-1 -131.11143468407187 22.194726119507543 117.66685850972316 0 -1 0 0.51503808176128008 0 -0.85716729658548041 forward_v I I I I #
coedge $-1 $279 $280 $281 $282 reversed $105 $-1 #
coedge $-1 $172 $107 $283 $284 reversed $67 $-1 #
coedge $-1 $107 $171 $279 $285 reversed $67 $-1 #
coedge $-1 $281 $286 $107 $174 forward $276 $-1 #
edge $-1 $287 0.97122684855163754 $288 12.567467853779434 $173 $289 forward 7 unknown #
loop $-1 $-1 $180 $108 #
plane-surface $-1 -64.58449049348431 16.334594654473932 6.9474322744219705 -0.51503808176128008 0 0.85716729658548041 0.85716729658548041 0 0.51503808176128008 forward_v I I I I #
loop $-1 $-1 $290 $69 #
coedge $-1 $178 $178 $179 $291 reversed $109 $-1 #
coedge $-1 $179 $179 $178 $291 forward $111 $-1 #
coedge $-1 $180 $180 $112 $181 forward $175 $-1 #
edge $-1 $292 0 $292 6.2831853071796004 $180 $293 forward 7 unknown #
loop $-1 $-1 $187 $113 #
plane-surface $-1 -64.58449049348431 16.334594654473932 6.9474322744219705 -0.51503808176128008 0 0.85716729658548041 0.85716729658548041 0 0.51503808176128008 forward_v I I I I #
loop $-1 $-1 $294 $72 #
coedge $-1 $185 $185 $186 $295 reversed $114 $-1 #
coedge $-1 $186 $186 $185 $295 forward $116 $-1 #
coedge $-1 $187 $187 $117 $188 forward $182 $-1 #
edge $-1 $296 0 $296 6.2831853071796004 $187 $297 forward 7 unknown #
loop $-1 $-1 $194 $118 #
plane-surface $-1 -64.58449049348431 16.334594654473932 6.9474322744219705 -0.51503808176128008 0 0.85716729658548041 0.85716729658548041 0 0.51503808176128008 forward_v I I I I #
loop $-1 $-1 $298 $75 #
coedge $-1 $192 $192 $193 $299 reversed $119 $-1 #
coedge $-1 $193 $193 $192 $299 forward $121 $-1 #
coedge $-1 $194 $194 $122 $195 forward $189 $-1 #
edge $-1 $300 0 $300 6.2831853071796004 $194 $301 forward 7 unknown #
face $-1 $302 $303 $42 $-1 $304 reversed single #
loop $-1 $-1 $305 $123 #
plane-surface $-1 64.584492612951706 -19.594053099179433 185.85976257101396 0 1 0 0.70710678939079041 0 0.70710677298230451 forward_v I I I I #
coedge $-1 $306 $307 $308 $309 reversed $124 $-1 #
coedge $-1 $201 $126 $310 $311 reversed $79 $-1 #
coedge $-1 $126 $200 $306 $312 reversed $79 $-1 #
coedge $-1 $308 $313 $126 $203 forward $314 $-1 #
edge $-1 $315 -32.292244187008443 $316 -21.564325307915091 $202 $317 forward 7 unknown #
loop $-1 $-1 $209 $127 #
plane-surface $-1 -26.751770821623708 -12.385100457335597 94.523501255905956 0.70710678939079041 0 0.70710677298230451 0.70710677298230451 0 -0.70710678939079041 forward_v I I I I #
loop $-1 $-1 $318 $81 #
coedge $-1 $207 $207 $208 $319 reversed $128 $-1 #
coedge $-1 $208 $208 $207 $319 forward $130 $-1 #
coedge $-1 $209 $209 $131 $210 forward $204 $-1 #
edge $-1 $320 0 $320 6.2831853071796004 $209 $321 forward 7 unknown #
loop $-1 $-1 $216 $132 #
plane-surface $-1 -26.751770821623708 -12.385100457335597 94.523501255905956 0.70710678939079041 0 0.70710677298230451 0.70710677298230451 0 -0.70710678939079041 forward_v I I I I #
loop $-1 $-1 $322 $84 #
coedge $-1 $214 $214 $215 $323 reversed $133 $-1 #
coedge $-1 $215 $215 $214 $323 forward $135 $-1 #
coedge $-1 $216 $216 $136 $217 forward $211 $-1 #
edge $-1 $324 0 $324 6.2831853071796004 $216 $325 forward 7 unknown #
face $-1 $326 $327 $45 $-1 $328 reversed single #
loop $-1 $-1 $329 $137 #
plane-surface $-1 64.584492612951706 15.737966647035876 185.85976257101396 0 1 0 0.70710678939079041 0 0.70710677298230451 forward_v I I I I #
coedge $-1 $330 $331 $332 $333 reversed $138 $-1 #
coedge $-1 $223 $140 $334 $335 reversed $88 $-1 #
coedge $-1 $140 $222 $330 $336 reversed $88 $-1 #
coedge $-1 $332 $337 $140 $225 forward $338 $-1 #
edge $-1 $339 -32.292244187008443 $340 -21.564325307915091 $224 $341 forward 7 unknown #
loop $-1 $-1 $231 $141 #
plane-surface $-1 -26.751770821623708 22.946919288879712 94.523501255905956 0.70710678939079041 0 0.70710677298230451 0.70710677298230451 0 -0.70710678939079041 forward_v I I I I #
loop $-1 $-1 $342 $90 #
coedge $-1 $229 $229 $230 $343 reversed $142 $-1 #
coedge $-1 $230 $230 $229 $343 forward $144 $-1 #
coedge $-1 $231 $231 $145 $232 forward $226 $-1 #
edge $-1 $344 0 $344 6.2831853071796004 $231 $345 forward 7 unknown #
loop $-1 $-1 $238 $146 #
plane-surface $-1 -26.751770821623708 22.946919288879712 94.523501255905956 0.70710678939079041 0 0.70710677298230451 0.70710677298230451 0 -0.70710678939079041 forward_v I I I I #
loop $-1 $-1 $346 $93 #
coedge $-1 $236 $236 $237 $347 reversed $147 $-1 #
coedge $-1 $237 $237 $236 $347 forward $149 $-1 #
coedge $-1 $238 $238 $150 $239 forward $233 $-1 #
edge $-1 $348 0 $348 6.2831853071796004 $238 $349 forward 7 unknown #
face $-1 $350 $351 $36 $-1 $352 reversed single #
loop $-1 $-1 $353 $151 #
plane-surface $-1 -64.584490493484296 0 0 1 0 0 0 0 -1 forward_v I I I I #
coedge $-1 $354 $251 $355 $356 forward $152 $-1 #
coedge $-1 $357 $154 $354 $358 forward $97 $-1 #
coedge $-1 $154 $357 $359 $360 forward $97 $-1 #
coedge $-1 $254 $253 $154 $247 reversed $255 $-1 #
edge $-1 $361 -41.683772707399328 $362 41.683772707399328 $246 $363 forward 7 unknown #
coedge $-1 $156 $155 $364 $365 forward $61 $-1 #
coedge $-1 $366 $367 $155 $250 reversed $351 $-1 #
edge $-1 $257 -64.584490493484296 $368 64.584490493484296 $249 $369 forward 7 unknown #
coedge $-1 $243 $370 $156 $252 reversed $152 $-1 #
edge $-1 $371 -64.584490493484296 $256 64.584490493484296 $251 $372 forward 7 unknown #
coedge $-1 $246 $157 $370 $373 forward $255 $-1 #
coedge $-1 $157 $246 $366 $374 reversed $255 $-1 #
loop $-1 $-1 $253 $350 #
vertex $-1 $158 $375 #
vertex $-1 $158 $376 #
straight-curve $-1 64.584490493484296 0 13.915156949366361 0 1 0 I I #
face $-1 $377 $378 $37 $-1 $379 reversed single #
loop $-1 $-1 $265 $159 #
plane-surface $-1 64.584490493484296 0 0 -1 0 0 0 0 1 forward_v I I I I #
coedge $-1 $380 $381 $263 $382 forward $160 $-1 #
coedge $-1 $383 $162 $262 $382 reversed $101 $-1 #
coedge $-1 $162 $383 $163 $268 reversed $101 $-1 #
coedge $-1 $165 $384 $162 $266 forward $260 $-1 #
edge $-1 $385 -8.7914515180590236 $272 -1.4559593445556542 $265 $386 forward 7 unknown #
coedge $-1 $164 $163 $387 $388 reversed $64 $-1 #
edge $-1 $272 -64.584490493484296 $389 64.584490493484296 $264 $390 forward 7 unknown #
coedge $-1 $391 $392 $164 $270 forward $378 $-1 #
edge $-1 $273 -64.584490493484296 $393 64.584490493484296 $269 $394 forward 7 unknown #
coedge $-1 $384 $165 $392 $395 forward $260 $-1 #
vertex $-1 $166 $396 #
vertex $-1 $395 $397 #
straight-curve $-1 64.584490493484296 -17.666009873107654 -6.5796647758629927 0 -1 0 I I #
face $-1 $-1 $398 $38 $-1 $399 reversed single #
loop $-1 $-1 $173 $167 #
plane-surface $-1 0 0 13.915156949366361 0 0 1 1 0 0 forward_v I I I I #
coedge $-1 $400 $401 $402 $403 reversed $168 $-1 #
coedge $-1 $404 $170 $172 $285 forward $105 $-1 #
coedge $-1 $170 $404 $400 $405 forward $105 $-1 #
coedge $-1 $402 $173 $170 $282 forward $276 $-1 #
edge $-1 $288 2.3071658622033553 $406 14.027428792270577 $281 $407 forward 7 unknown #
coedge $-1 $408 $409 $171 $284 forward $398 $-1 #
edge $-1 $410 -51.8859969804396 $287 -44.918272305495215 $283 $411 forward 7 unknown #
edge $-1 $288 -13.528562103828914 $410 -1.6755537013839907e-014 $172 $412 forward 7 unknown #
coedge $-1 $173 $402 $408 $413 forward $276 $-1 #
vertex $-1 $284 $414 #
vertex $-1 $174 $415 #
straight-curve $-1 -65.555717342035933 10.474463189440321 13.915156949366363 1 0 0 I I #
coedge $-1 $290 $290 $-1 $416 reversed $177 $-1 #
edge $-1 $417 0 $417 6.2831853071796004 $178 $418 forward 7 unknown #
vertex $-1 $181 $419 #
ellipse-curve $-1 -58.786369990870391 12.818515775453768 10.431294611894174 -0.51503808176128008 0 0.85716729658548041 0.85716729658548041 0 0.51503808176128008 1 I I #
coedge $-1 $294 $294 $-1 $420 reversed $184 $-1 #
edge $-1 $421 0 $421 6.2831853071796004 $185 $422 forward 7 unknown #
vertex $-1 $188 $423 #
ellipse-curve $-1 -58.786369990870391 16.334594654473932 10.431294611894174 -0.51503808176128008 0 0.85716729658548041 0.85716729658548041 0 0.51503808176128008 1 I I #
coedge $-1 $298 $298 $-1 $424 reversed $191 $-1 #
edge $-1 $425 0 $425 6.2831853071796004 $192 $426 forward 7 unknown #
vertex $-1 $195 $427 #
ellipse-curve $-1 -58.786369990870391 19.850673533494096 10.431294611894174 -0.51503808176128008 0 0.85716729658548041 0.85716729658548041 0 0.51503808176128008 1 I I #
face $-1 $-1 $314 $42 $-1 $428 forward single #
loop $-1 $-1 $429 $196 #
plane-surface $-1 64.584490493484296 0 0 -1 0 0 0 0 1 forward_v I I I I #
coedge $-1 $430 $431 $432 $433 reversed $197 $-1 #
coedge $-1 $434 $199 $201 $312 forward $124 $-1 #
coedge $-1 $199 $434 $430 $435 forward $124 $-1 #
coedge $-1 $432 $202 $199 $309 forward $314 $-1 #
edge $-1 $316 -1.0164024131760385 $436 13.401502870511635 $308 $437 forward 7 unknown #
coedge $-1 $438 $439 $200 $311 forward $303 $-1 #
edge $-1 $440 -89.742643464176425 $315 -79.014724336140617 $310 $441 forward 7 unknown #
edge $-1 $316 113.99741243608752 $440 129.16898098696862 $201 $442 forward 7 unknown #
coedge $-1 $202 $432 $438 $443 forward $314 $-1 #
loop $-1 $-1 $432 $302 #
vertex $-1 $311 $444 #
vertex $-1 $203 $445 #
straight-curve $-1 32.292246306475853 -5.1761478154917597 13.915156949366363 -1 0 0 I I #
coedge $-1 $318 $318 $-1 $446 reversed $206 $-1 #
edge $-1 $447 0 $447 6.2831853071796004 $207 $448 forward 7 unknown #
vertex $-1 $210 $449 #
ellipse-curve $-1 59.220531053937613 -15.474651589554384 8.5511973853484431 0.70710678939079041 0 0.70710677298230451 1.0606601594734568 0 -1.0606601840861856 1 I I #
coedge $-1 $322 $322 $-1 $450 reversed $213 $-1 #
edge $-1 $451 0 $451 6.2831853071796004 $214 $452 forward 7 unknown #
vertex $-1 $217 $453 #
ellipse-curve $-1 59.220531053937613 -9.2955493251168093 8.5511973853484431 0.70710678939079041 0 0.70710677298230451 1.0606601594734568 0 -1.0606601840861856 1 I I #
face $-1 $-1 $338 $45 $-1 $454 forward single #
loop $-1 $-1 $455 $218 #
plane-surface $-1 64.584490493484296 0 0 -1 0 0 0 0 1 forward_v I I I I #
coedge $-1 $456 $457 $458 $459 reversed $219 $-1 #
coedge $-1 $460 $221 $223 $336 forward $138 $-1 #
coedge $-1 $221 $460 $456 $461 forward $138 $-1 #
coedge $-1 $458 $224 $221 $333 forward $338 $-1 #
edge $-1 $340 -18.682412286283693 $462 -4.2645070025960194 $332 $463 forward 7 unknown #
coedge $-1 $464 $465 $222 $335 forward $327 $-1 #
edge $-1 $466 -89.742643464176425 $339 -79.014724336140617 $334 $467 forward 7 unknown #
edge $-1 $340 113.99741243608752 $466 129.16898098696862 $223 $468 forward 7 unknown #
coedge $-1 $224 $458 $464 $469 forward $338 $-1 #
loop $-1 $-1 $458 $326 #
vertex $-1 $335 $470 #
vertex $-1 $225 $471 #
straight-curve $-1 32.292246306475853 30.155871930723549 13.915156949366363 -1 0 0 I I #
coedge $-1 $342 $342 $-1 $472 reversed $228 $-1 #
edge $-1 $473 0 $473 6.2831853071796004 $229 $474 forward 7 unknown #
vertex $-1 $232 $475 #
ellipse-curve $-1 59.220531053937613 19.857368156660925 8.5511973853484431 0.70710678939079041 0 0.70710677298230451 1.0606601594734568 0 -1.0606601840861856 1 I I #
coedge $-1 $346 $346 $-1 $476 reversed $235 $-1 #
edge $-1 $477 0 $477 6.2831853071796004 $236 $478 forward 7 unknown #
vertex $-1 $239 $479 #
ellipse-curve $-1 59.220531053937613 26.0364704210985 8.5511973853484431 0.70710678939079041 0 0.70710677298230451 1.0606601594734568 0 -1.0606601840861856 1 I I #
face $-1 $-1 $255 $36 $-1 $480 reversed single #
loop $-1 $-1 $366 $240 #
plane-surface $-1 0 41.683772707399328 0 0 -1 0 0 0 -1 forward_v I I I I #
coedge $-1 $481 $364 $367 $482 forward $241 $-1 #
coedge $-1 $370 $243 $244 $358 reversed $152 $-1 #
coedge $-1 $364 $481 $243 $356 reversed $241 $-1 #
edge $-1 $371 -13.915156949366361 $483 13.915156949366361 $355 $484 forward 7 unknown #
coedge $-1 $245 $244 $481 $485 forward $97 $-1 #
edge $-1 $362 -64.584490493484296 $483 64.584490493484296 $354 $486 forward 7 unknown #
coedge $-1 $367 $366 $245 $360 reversed $351 $-1 #
edge $-1 $487 -64.584490493484296 $361 64.584490493484296 $359 $488 forward 7 unknown #
vertex $-1 $247 $489 #
vertex $-1 $373 $490 #
straight-curve $-1 64.584490493484296 0 -13.915156949366361 0 -1 0 I I #
coedge $-1 $353 $355 $248 $365 reversed $241 $-1 #
edge $-1 $368 -41.683772707399328 $371 41.683772707399328 $364 $491 forward 7 unknown #
coedge $-1 $359 $249 $254 $374 forward $351 $-1 #
coedge $-1 $249 $359 $353 $482 reversed $351 $-1 #
vertex $-1 $250 $492 #
straight-curve $-1 0 41.683772707399328 13.915156949366361 -1 0 0 I I #
coedge $-1 $251 $354 $253 $373 reversed $152 $-1 #
vertex $-1 $365 $493 #
straight-curve $-1 0 -41.683772707399328 13.915156949366361 1 0 0 I I #
edge $-1 $256 -13.915156949366361 $362 13.915156949366361 $253 $494 forward 7 unknown #
edge $-1 $257 -13.915156949366361 $361 13.915156949366361 $254 $495 forward 7 unknown #
point $-1 64.584490493484296 -41.683772707399328 13.915156949366361 #
point $-1 64.584490493484296 41.683772707399328 13.915156949366361 #
face $-1 $-1 $496 $37 $-1 $497 reversed single #
loop $-1 $-1 $269 $259 #
plane-surface $-1 0 -41.683772707399328 0 0 1 0 0 0 1 forward_v I I I I #
coedge $-1 $498 $262 $384 $499 forward $160 $-1 #
coedge $-1 $262 $498 $500 $501 forward $160 $-1 #
edge $-1 $502 -64.584490493484296 $385 64.584490493484296 $262 $503 forward 7 unknown #
coedge $-1 $264 $263 $504 $505 reversed $101 $-1 #
coedge $-1 $265 $271 $380 $499 reversed $260 $-1 #
vertex $-1 $499 $506 #
straight-curve $-1 64.584490493484296 -28.98026678503129 -5.1237054313073385 0 0 1 I I #
coedge $-1 $504 $507 $267 $388 forward $496 $-1 #
edge $-1 $393 -24.017762834291673 $389 -11.314256911923636 $387 $508 forward 7 unknown #
vertex $-1 $388 $509 #
straight-curve $-1 0 -28.98026678503129 -6.5796647758629927 -1 0 0 I I #
coedge $-1 $510 $269 $507 $511 forward $378 $-1 #
coedge $-1 $269 $510 $271 $395 reversed $378 $-1 #
vertex $-1 $511 $512 #
straight-curve $-1 0 -41.683772707399328 -6.5796647758629927 -1 0 0 I I #
edge $-1 $273 6.5796647758629927 $513 13.915156949366361 $271 $514 forward 7 unknown #
point $-1 64.584490493484296 -28.98026678503129 -6.5796647758629927 #
point $-1 64.584490493484296 -41.683772707399328 -6.5796647758629927 #
loop $-1 $-1 $283 $275 #
plane-surface $-1 -64.584490493484296 0 0 1 0 0 0 0 -1 forward_v I I I I #
coedge $-1 $401 $278 $280 $405 reversed $168 $-1 #
coedge $-1 $278 $400 $515 $516 reversed $168 $-1 #
coedge $-1 $286 $281 $278 $403 forward $276 $-1 #
edge $-1 $406 -12.567467853779434 $517 -0.97122684855163754 $402 $518 forward 7 unknown #
coedge $-1 $280 $279 $409 $519 reversed $105 $-1 #
edge $-1 $520 1.6755537013839907e-014 $406 13.528562103828914 $400 $521 forward 7 unknown #
vertex $-1 $282 $522 #
straight-curve $-1 -52.9882494882565 8.167297327236966 13.915156949366361 0 1 0 I I #
coedge $-1 $515 $283 $286 $413 reversed $398 $-1 #
coedge $-1 $283 $515 $404 $519 forward $398 $-1 #
vertex $-1 $284 $523 #
straight-curve $-1 -64.584490493484296 10.474463189440321 58.833429254861578 0 0 1 I I #
straight-curve $-1 -64.58449049348431 10.474463189440321 6.9474322744219705 -0.85716729658548041 0 -0.51503808176128008 I I #
edge $-1 $517 -22.194726119507543 $287 -10.474463189440321 $408 $524 forward 7 unknown #
point $-1 -64.584490493484296 10.474463189440321 13.915156949366361 #
point $-1 -52.9882494882565 10.474463189440321 13.915156949366361 #
edge $-1 $525 1 $525 0 $290 $-1 forward 7 unknown #
vertex $-1 $291 $526 #
ellipse-curve $-1 -57.086997383990884 12.818515775453768 7.6030637006011244 -0.51503808176128008 0 0.85716729658548041 0.85716729658548041 0 0.51503808176128008 1 I I #
point $-1 -57.929202694284911 12.818515775453768 10.946332693655449 #
edge $-1 $527 1 $527 0 $294 $-1 forward 7 unknown #
vertex $-1 $295 $528 #
ellipse-curve $-1 -57.086997383990884 16.334594654473932 7.6030637006011244 -0.51503808176128008 0 0.85716729658548041 0.85716729658548041 0 0.51503808176128008 1 I I #
point $-1 -57.929202694284911 16.334594654473932 10.946332693655449 #
edge $-1 $529 1 $529 0 $298 $-1 forward 7 unknown #
vertex $-1 $299 $530 #
ellipse-curve $-1 -57.086997383990884 19.850673533494096 7.6030637006011244 -0.51503808176128008 0 0.85716729658548041 0.85716729658548041 0 0.51503808176128008 1 I I #
point $-1 -57.929202694284911 19.850673533494096 10.946332693655449 #
plane-surface $-1 0 0 13.915156949366361 0 0 1 1 0 0 forward_v I I I I #
coedge $-1 $439 $438 $431 $531 forward $303 $-1 #
coedge $-1 $431 $305 $307 $435 reversed $197 $-1 #
coedge $-1 $305 $430 $429 $531 reversed $197 $-1 #
coedge $-1 $313 $308 $305 $433 forward $314 $-1 #
edge $-1 $436 21.564325307915091 $532 32.292244187008443 $432 $533 forward 7 unknown #
coedge $-1 $307 $306 $439 $534 reversed $124 $-1 #
edge $-1 $535 -129.16898098696862 $436 -113.99741243608752 $430 $536 forward 7 unknown #
vertex $-1 $309 $537 #
straight-curve $-1 53.856571614390965 -6.1925502286677983 13.915156949366356 0 -1 0 I I #
coedge $-1 $429 $310 $313 $443 reversed $303 $-1 #
coedge $-1 $310 $429 $434 $534 forward $303 $-1 #
vertex $-1 $311 $538 #
straight-curve $-1 64.584490493484296 -5.1761478154917597 92.92988128550698 0 0 1 I I #
straight-curve $-1 -26.751770821623708 -5.1761478154917597 94.523501255905956 0.70710677298230451 0 -0.70710678939079041 I I #
edge $-1 $532 -19.594053099179433 $315 -5.1761478154917597 $438 $539 forward 7 unknown #
point $-1 64.584490493484296 -5.1761478154917597 13.915156949366361 #
point $-1 53.856571614390944 -5.1761478154917597 13.915156949366363 #
edge $-1 $540 1 $540 0 $318 $-1 forward 7 unknown #
vertex $-1 $319 $541 #
ellipse-curve $-1 57.519435012368454 -15.474651589554384 6.8501013832533904 0.70710678939079041 0 0.70710677298230451 1.0606601594734568 0 -1.0606601840861856 1 I I #
point $-1 60.281191213411084 -15.474651589554384 7.4905372012622724 #
edge $-1 $542 1 $542 0 $322 $-1 forward 7 unknown #
vertex $-1 $323 $543 #
ellipse-curve $-1 57.519435012368454 -9.2955493251168093 6.8501013832533904 0.70710678939079041 0 0.70710677298230451 1.0606601594734568 0 -1.0606601840861856 1 I I #
point $-1 60.281191213411084 -9.2955493251168093 7.4905372012622724 #
plane-surface $-1 0 0 13.915156949366361 0 0 1 1 0 0 forward_v I I I I #
coedge $-1 $465 $464 $457 $544 forward $327 $-1 #
coedge $-1 $457 $329 $331 $461 reversed $219 $-1 #
coedge $-1 $329 $456 $455 $544 reversed $219 $-1 #
coedge $-1 $337 $332 $329 $459 forward $338 $-1 #
edge $-1 $462 21.564325307915091 $545 32.292244187008443 $458 $546 forward 7 unknown #
coedge $-1 $331 $330 $465 $547 reversed $138 $-1 #
edge $-1 $548 -129.16898098696862 $462 -113.99741243608752 $456 $549 forward 7 unknown #
vertex $-1 $333 $550 #
straight-curve $-1 53.856571614390965 11.473459644439856 13.915156949366356 0 -1 0 I I #
coedge $-1 $455 $334 $337 $469 reversed $327 $-1 #
coedge $-1 $334 $455 $460 $547 forward $327 $-1 #
vertex $-1 $335 $551 #
straight-curve $-1 64.584490493484296 30.155871930723549 92.92988128550698 0 0 1 I I #
straight-curve $-1 -26.751770821623708 30.155871930723549 94.523501255905956 0.70710677298230451 0 -0.70710678939079041 I I #
edge $-1 $545 15.737966647035876 $339 30.155871930723549 $464 $552 forward 7 unknown #
point $-1 64.584490493484296 30.155871930723549 13.915156949366361 #
point $-1 53.856571614390944 30.155871930723549 13.915156949366363 #
edge $-1 $553 1 $553 0 $342 $-1 forward 7 unknown #
vertex $-1 $343 $554 #
ellipse-curve $-1 57.519435012368454 19.857368156660925 6.8501013832533904 0.70710678939079041 0 0.70710677298230451 1.0606601594734568 0 -1.0606601840861856 1 I I #
point $-1 60.281191213411084 19.857368156660925 7.4905372012622724 #
edge $-1 $555 1 $555 0 $346 $-1 forward 7 unknown #
vertex $-1 $347 $556 #
ellipse-curve $-1 57.519435012368454 26.0364704210985 6.8501013832533904 0.70710678939079041 0 0.70710677298230451 1.0606601594734568 0 -1.0606601840861856 1 I I #
point $-1 60.281191213411084 26.0364704210985 7.4905372012622724 #
plane-surface $-1 64.584490493484296 0 0 -1 0 0 0 0 1 forward_v I I I I #
coedge $-1 $355 $353 $357 $485 reversed $241 $-1 #
edge $-1 $368 -13.915156949366361 $487 13.915156949366361 $367 $557 forward 7 unknown #
vertex $-1 $485 $558 #
straight-curve $-1 -64.584490493484296 -41.683772707399328 0 0 0 -1 I I #
edge $-1 $483 -41.683772707399328 $487 41.683772707399328 $481 $559 forward 7 unknown #
straight-curve $-1 0 -41.683772707399328 -13.915156949366361 -1 0 0 I I #
vertex $-1 $360 $560 #
straight-curve $-1 0 41.683772707399328 -13.915156949366361 1 0 0 I I #
point $-1 64.584490493484296 41.683772707399328 -13.915156949366361 #
point $-1 64.584490493484296 -41.683772707399328 -13.915156949366361 #
straight-curve $-1 -64.584490493484296 0 13.915156949366361 0 -1 0 I I #
point $-1 -64.584490493484296 41.683772707399328 13.915156949366361 #
point $-1 -64.584490493484296 -41.683772707399328 13.915156949366361 #
straight-curve $-1 64.584490493484296 -41.683772707399328 0 0 0 -1 I I #
straight-curve $-1 64.584490493484296 41.683772707399328 0 0 0 -1 I I #
loop $-1 $-1 $504 $377 #
plane-surface $-1 -64.584490493484296 0 0 1 0 0 0 0 -1 forward_v I I I I #
coedge $-1 $381 $380 $510 $561 forward $160 $-1 #
edge $-1 $385 28.98026678503129 $513 41.683772707399328 $384 $562 forward 7 unknown #
coedge $-1 $507 $504 $381 $501 reversed $496 $-1 #
edge $-1 $563 -41.683772707399328 $502 -28.98026678503129 $500 $564 forward 7 unknown #
vertex $-1 $505 $565 #
straight-curve $-1 0 -28.98026678503129 -13.915156949366361 1 0 0 I I #
coedge $-1 $500 $387 $383 $505 forward $496 $-1 #
edge $-1 $389 1.4559593445556542 $502 8.7914515180590236 $504 $566 forward 7 unknown #
point $-1 64.584490493484296 -28.98026678503129 -13.915156949366361 #
coedge $-1 $387 $500 $391 $511 reversed $496 $-1 #
straight-curve $-1 -64.584490493484296 -17.666009873107654 -6.5796647758629927 0 1 0 I I #
point $-1 -64.584490493484296 -28.98026678503129 -6.5796647758629927 #
coedge $-1 $392 $391 $498 $561 reversed $378 $-1 #
edge $-1 $393 6.5796647758629927 $563 13.915156949366361 $507 $567 forward 7 unknown #
point $-1 -64.584490493484296 -41.683772707399328 -6.5796647758629927 #
vertex $-1 $395 $568 #
straight-curve $-1 64.584490493484296 -41.683772707399328 0 0 0 -1 I I #
coedge $-1 $409 $408 $401 $516 forward $398 $-1 #
edge $-1 $517 44.918272305495215 $520 51.8859969804396 $515 $569 forward 7 unknown #
vertex $-1 $413 $570 #
straight-curve $-1 -65.555717342035933 22.194726119507543 13.915156949366363 -1 0 0 I I #
edge $-1 $520 -14.027428792270577 $410 -2.3071658622033553 $409 $571 forward 7 unknown #
vertex $-1 $519 $572 #
straight-curve $-1 -64.58449049348431 22.194726119507543 6.9474322744219705 0.85716729658548041 0 0.51503808176128008 I I #
point $-1 -52.9882494882565 22.194726119507543 13.915156949366361 #
point $-1 -64.584490493484296 10.474463189440321 6.9474322744219794 #
straight-curve $-1 -64.584490493484296 0 13.915156949366361 0 -1 0 I I #
vertex $-1 $416 $573 #
point $-1 -56.229830087405404 12.818515775453768 8.1181017823624053 #
vertex $-1 $420 $574 #
point $-1 -56.229830087405404 16.334594654473932 8.1181017823624053 #
vertex $-1 $424 $575 #
point $-1 -56.229830087405404 19.850673533494096 8.1181017823624053 #
edge $-1 $532 79.014724336140617 $535 89.742643464176425 $429 $576 forward 7 unknown #
vertex $-1 $443 $577 #
straight-curve $-1 32.292246306475853 -19.594053099179433 13.915156949366363 1 0 0 I I #
edge $-1 $535 -13.401502870511635 $440 1.0164024131760385 $439 $578 forward 7 unknown #
vertex $-1 $534 $579 #
straight-curve $-1 -26.751770821623708 -19.594053099179433 94.523501255905956 -0.70710677298230451 0 0.70710678939079041 I I #
point $-1 53.856571614390944 -19.594053099179433 13.915156949366363 #
point $-1 64.584490493484296 -5.1761478154917597 3.1872378213305552 #
straight-curve $-1 64.584490493484296 0 13.915156949366361 0 1 0 I I #
vertex $-1 $446 $580 #
point $-1 58.580095171841911 -15.474651589554384 5.7894411991672046 #
vertex $-1 $450 $581 #
point $-1 58.580095171841911 -9.2955493251168093 5.7894411991672046 #
edge $-1 $545 79.014724336140617 $548 89.742643464176425 $455 $582 forward 7 unknown #
vertex $-1 $469 $583 #
straight-curve $-1 32.292246306475853 15.737966647035876 13.915156949366363 1 0 0 I I #
edge $-1 $548 4.2645070025960194 $466 18.682412286283693 $465 $584 forward 7 unknown #
vertex $-1 $547 $585 #
straight-curve $-1 -26.751770821623708 15.737966647035876 94.523501255905956 -0.70710677298230451 0 0.70710678939079041 I I #
point $-1 53.856571614390944 15.737966647035876 13.915156949366363 #
point $-1 64.584490493484296 30.155871930723549 3.1872378213305552 #
straight-curve $-1 64.584490493484296 0 13.915156949366361 0 1 0 I I #
vertex $-1 $472 $586 #
point $-1 58.580095171841911 19.857368156660925 5.7894411991672046 #
vertex $-1 $476 $587 #
point $-1 58.580095171841911 26.0364704210985 5.7894411991672046 #
straight-curve $-1 -64.584490493484296 41.683772707399328 0 0 0 -1 I I #
point $-1 -64.584490493484296 -41.683772707399328 -13.915156949366361 #
straight-curve $-1 -64.584490493484296 0 -13.915156949366361 0 1 0 I I #
point $-1 -64.584490493484296 41.683772707399328 -13.915156949366361 #
edge $-1 $513 -64.584490493484296 $563 64.584490493484296 $510 $588 forward 7 unknown #
straight-curve $-1 64.584490493484296 0 -13.915156949366361 0 -1 0 I I #
vertex $-1 $501 $589 #
straight-curve $-1 -64.584490493484296 0 -13.915156949366361 0 1 0 I I #
point $-1 -64.584490493484296 -28.98026678503129 -13.915156949366361 #
straight-curve $-1 -64.584490493484296 -28.98026678503129 -5.1237054313073385 0 0 -1 I I #
straight-curve $-1 -64.584490493484296 -41.683772707399328 0 0 0 -1 I I #
point $-1 64.584490493484296 -41.683772707399328 -13.915156949366361 #
straight-curve $-1 -64.584490493484296 22.194726119507543 58.833429254861578 0 0 -1 I I #
point $-1 -64.584490493484296 22.194726119507543 13.915156949366361 #
straight-curve $-1 -64.584490493484296 8.167297327236966 6.9474322744219821 0 -1 0 I I #
point $-1 -64.584490493484296 22.194726119507543 6.9474322744219794 #
point $-1 -56.571959302229608 12.818515775453768 6.7458964040156442 #
point $-1 -56.571959302229608 16.334594654473932 6.7458964040156442 #
point $-1 -56.571959302229608 19.850673533494096 6.7458964040156442 #
straight-curve $-1 64.584490493484296 -19.594053099179433 92.92988128550698 0 0 -1 I I #
point $-1 64.584490493484296 -19.594053099179433 13.915156949366361 #
straight-curve $-1 64.584490493484296 -6.1925502286677983 3.1872378213305481 0 1 0 I I #
point $-1 64.584490493484296 -19.594053099179433 3.1872378213305552 #
point $-1 56.458774828282266 -15.474651589554384 5.7894412237799333 #
point $-1 56.458774828282266 -9.2955493251168093 5.7894412237799333 #
straight-curve $-1 64.584490493484296 15.737966647035876 92.92988128550698 0 0 -1 I I #
point $-1 64.584490493484296 15.737966647035876 13.915156949366361 #
straight-curve $-1 64.584490493484296 11.473459644439856 3.1872378213305481 0 1 0 I I #
point $-1 64.584490493484296 15.737966647035876 3.1872378213305552 #
point $-1 56.458774828282266 19.857368156660925 5.7894412237799333 #
point $-1 56.458774828282266 26.0364704210985 5.7894412237799333 #
straight-curve $-1 0 -41.683772707399328 -13.915156949366361 -1 0 0 I I #
point $-1 -64.584490493484296 -41.683772707399328 -13.915156949366361 #
End-of-ACIS-data 