500 0 8 0           
7 Unknown 11 ACIS 5.0 NT 24 Fri Mar 26 20:28:57 1999 
-1 9.9999999999999995e-007 1e-010 
body $-1 $8 $-1 $9 #
body $-1 $10 $-1 $11 #
body $-1 $12 $-1 $13 #
body $-1 $14 $-1 $15 #
body $-1 $16 $-1 $17 #
body $-1 $18 $-1 $19 #
body $-1 $20 $-1 $21 #
body $-1 $22 $-1 $23 #
lump $-1 $-1 $24 $0 #
transform $-1 1 0 0 0 1 0 0 0 1 60.025025177770317 34.637995195589163 7.0741130969842434 1 rotate no_reflect no_shear #
lump $-1 $-1 $25 $1 #
transform $-1 1 0 0 0 1 0 0 0 1 60.025025177770317 34.637995195589163 7.0741130969842434 1 rotate no_reflect no_shear #
lump $-1 $-1 $26 $2 #
transform $-1 1 0 0 0 1 0 0 0 1 60.025025177770317 34.637995195589163 7.0741130969842434 1 rotate no_reflect no_shear #
lump $-1 $-1 $27 $3 #
transform $-1 1 0 0 0 1 0 0 0 1 60.025025177770317 34.637995195589163 7.0741130969842434 1 rotate no_reflect no_shear #
lump $-1 $-1 $28 $4 #
transform $-1 1 0 0 0 1 0 0 0 1 60.025025177770317 34.637995195589163 7.0741130969842434 1 rotate no_reflect no_shear #
lump $-1 $-1 $29 $5 #
transform $-1 1 0 0 0 1 0 0 0 1 60.025025177770317 34.637995195589163 7.0741130969842434 1 rotate no_reflect no_shear #
lump $-1 $-1 $30 $6 #
transform $-1 1 0 0 0 1 0 0 0 1 60.025025177770317 34.637995195589163 7.0741130969842434 1 rotate no_reflect no_shear #
lump $-1 $-1 $31 $7 #
transform $-1 1 0 0 0 1 0 0 0 1 60.025025177770317 34.637995195589163 7.0741130969842434 1 rotate no_reflect no_shear #
shell $-1 $-1 $-1 $32 $-1 $8 #
shell $-1 $-1 $-1 $33 $-1 $10 #
shell $-1 $-1 $-1 $34 $-1 $12 #
shell $-1 $-1 $-1 $35 $-1 $14 #
shell $-1 $-1 $-1 $36 $-1 $16 #
shell $-1 $-1 $-1 $37 $-1 $18 #
shell $-1 $-1 $-1 $38 $-1 $20 #
shell $-1 $-1 $-1 $39 $-1 $22 #
face $-1 $40 $41 $24 $-1 $42 forward single #
face $-1 $43 $44 $25 $-1 $45 forward single #
face $-1 $46 $47 $26 $-1 $48 forward single #
face $-1 $49 $50 $27 $-1 $51 reversed single #
face $-1 $52 $53 $28 $-1 $54 forward single #
face $-1 $55 $56 $29 $-1 $57 reversed single #
face $-1 $58 $59 $30 $-1 $60 forward single #
face $-1 $61 $62 $31 $-1 $63 forward single #
face $-1 $64 $65 $24 $-1 $66 reversed single #
loop $-1 $-1 $67 $32 #
plane-surface $-1 0 0 7.0741130969842434 0 0 1 1 0 0 forward_v I I I I #
face $-1 $68 $69 $25 $-1 $70 reversed single #
loop $-1 $-1 $71 $33 #
plane-surface $-1 -57.131799925332956 0 6.0935781718761408 0 0 1 1 0 0 forward_v I I I I #
face $-1 $72 $73 $26 $-1 $74 reversed single #
loop $-1 $-1 $75 $34 #
plane-surface $-1 57.131799925332956 0 6.0935781718761408 0 0 1 1 0 0 forward_v I I I I #
face $-1 $76 $77 $27 $-1 $78 reversed single #
loop $-1 $-1 $79 $35 #
plane-surface $-1 49.991771316651516 79.791780972334692 133.52939236338787 -1 0 0 0 0.75470958851134928 0.65605901945558964 forward_v I I I I #
face $-1 $80 $81 $28 $-1 $82 forward single #
loop $-1 $83 $84 $36 #
cone-surface $-1 36.582840933866251 32.073564333308063 4.2843831058177546 0 -0.75470958851134928 -0.65605901945558964 1.5 0 0 1 I I 0 1 1.5 forward I I I I #
face $-1 $85 $86 $29 $-1 $87 reversed single #
loop $-1 $-1 $88 $37 #
plane-surface $-1 -40.465151533893035 -34.63799519558917 2.7488171742340484 0 -0.83867057594974714 0.54463902268945019 1 0 0 forward_v I I I I #
face $-1 $89 $90 $30 $-1 $91 forward single #
loop $-1 $92 $93 $38 #
cone-surface $-1 -46.368047164894136 -32.451871871181332 4.40383404114072 0 0.83867057594974714 -0.54463902268945019 1 0 0 1 I I 0 1 1 forward I I I I #
face $-1 $94 $95 $31 $-1 $96 forward single #
loop $-1 $97 $98 $39 #
cone-surface $-1 -34.562255902891941 -32.451871871181332 4.40383404114072 0 0.83867057594974714 -0.54463902268945019 1 0 0 1 I I 0 1 1 forward I I I I #
face $-1 $99 $100 $24 $-1 $101 reversed single #
loop $-1 $-1 $102 $40 #
plane-surface $-1 0 0 -7.0741130969842434 0 0 1 1 0 0 forward_v I I I I #
coedge $-1 $103 $104 $105 $106 forward $41 $-1 #
face $-1 $107 $108 $25 $-1 $109 reversed single #
loop $-1 $-1 $110 $43 #
plane-surface $-1 -57.131799925332956 0 3.0935781718761408 0 0 1 1 0 0 forward_v I I I I #
coedge $-1 $111 $112 $113 $114 forward $44 $-1 #
face $-1 $115 $116 $26 $-1 $117 reversed single #
loop $-1 $-1 $118 $46 #
plane-surface $-1 57.131799925332956 0 3.0935781718761408 0 0 1 1 0 0 forward_v I I I I #
coedge $-1 $119 $120 $121 $122 reversed $47 $-1 #
face $-1 $123 $124 $27 $-1 $125 reversed single #
loop $-1 $-1 $126 $49 #
plane-surface $-1 36.582840933866237 -10.811143132262146 54.76947404153772 0 0.75470958851134928 0.65605901945558964 1 0 0 forward_v I I I I #
coedge $-1 $127 $128 $129 $130 reversed $50 $-1 #
face $-1 $-1 $131 $28 $-1 $132 forward single #
loop $-1 $133 $134 $52 #
cone-surface $-1 36.582840933866251 30.937198610300719 3.2965554787040343 0 -0.75470958851134928 -0.65605901945558964 0.75 0 0 1 I I -0.70710678118654757 0.70710678118654757 0.75 forward I I I I #
loop $-1 $-1 $135 $36 #
coedge $-1 $84 $84 $136 $137 reversed $53 $-1 #
face $-1 $138 $139 $29 $-1 $140 forward single #
loop $-1 $-1 $141 $55 #
plane-surface $-1 -26.691728394890475 -135.32044007006658 68.132759273694987 -1 0 0 0 -0.83867057594974714 0.54463902268945019 forward_v I I I I #
coedge $-1 $142 $143 $144 $145 reversed $56 $-1 #
face $-1 $-1 $146 $30 $-1 $147 forward single #
loop $-1 $148 $149 $58 #
cone-surface $-1 -46.368047164894136 -31.250853221141174 3.6238834353275617 0 0.83867057594974714 -0.54463902268945019 0.5 0 0 1 I I -0.70710678118654746 0.70710678118654746 0.5 forward I I I I #
loop $-1 $-1 $150 $38 #
coedge $-1 $93 $93 $151 $152 reversed $59 $-1 #
face $-1 $-1 $153 $31 $-1 $154 forward single #
loop $-1 $155 $156 $61 #
cone-surface $-1 -34.562255902891941 -31.250853221141174 3.6238834353275617 0 0.83867057594974714 -0.54463902268945019 0.5 0 0 1 I I -0.70710678118654746 0.70710678118654746 0.5 forward I I I I #
loop $-1 $-1 $157 $39 #
coedge $-1 $98 $98 $158 $159 reversed $62 $-1 #
face $-1 $160 $161 $24 $-1 $162 reversed single #
loop $-1 $-1 $163 $64 #
plane-surface $-1 0 -34.637995195589163 0 0 1 0 0 0 1 forward_v I I I I #
coedge $-1 $164 $165 $166 $167 forward $65 $-1 #
coedge $-1 $168 $67 $169 $170 forward $41 $-1 #
coedge $-1 $67 $168 $171 $172 forward $41 $-1 #
coedge $-1 $173 $174 $67 $106 reversed $175 $-1 #
edge $-1 $176 -34.637995195589163 $177 34.637995195589163 $105 $178 forward 7 unknown #
face $-1 $179 $180 $25 $-1 $181 reversed single #
loop $-1 $-1 $182 $68 #
plane-surface $-1 -54.238574672895595 0 4.5935781718761408 -1 0 0 0 0 1 forward_v I I I I #
coedge $-1 $183 $184 $185 $186 forward $69 $-1 #
coedge $-1 $187 $71 $188 $189 reversed $44 $-1 #
coedge $-1 $71 $187 $190 $191 reversed $44 $-1 #
coedge $-1 $182 $192 $71 $114 reversed $108 $-1 #
edge $-1 $193 -34.637995195589163 $194 34.637995195589163 $113 $195 forward 7 unknown #
face $-1 $196 $197 $26 $-1 $198 reversed single #
loop $-1 $-1 $199 $72 #
plane-surface $-1 54.238574672895595 0 4.5935781718761408 1 0 0 0 0 -1 forward_v I I I I #
coedge $-1 $200 $201 $202 $203 reversed $73 $-1 #
coedge $-1 $204 $75 $205 $206 reversed $47 $-1 #
coedge $-1 $75 $204 $207 $208 reversed $47 $-1 #
coedge $-1 $209 $210 $75 $122 forward $211 $-1 #
edge $-1 $212 -34.637995195589163 $213 34.637995195589163 $121 $214 forward 7 unknown #
face $-1 $215 $216 $27 $-1 $217 reversed single #
loop $-1 $-1 $218 $76 #
plane-surface $-1 23.173910551080958 79.791780972334692 133.52939236338787 1 0 0 0 -0.75470958851134928 -0.65605901945558964 forward_v I I I I #
coedge $-1 $219 $220 $221 $222 reversed $77 $-1 #
coedge $-1 $128 $79 $223 $224 reversed $50 $-1 #
coedge $-1 $79 $127 $219 $225 reversed $50 $-1 #
coedge $-1 $221 $226 $79 $130 forward $216 $-1 #
edge $-1 $227 59.690583084709694 $228 64.278476341998612 $129 $229 forward 7 unknown #
loop $-1 $-1 $136 $80 #
plane-surface $-1 36.582840933866237 -10.811143132262146 54.76947404153772 0 0.75470958851134928 0.65605901945558964 1 0 0 forward_v I I I I #
loop $-1 $-1 $230 $52 #
coedge $-1 $134 $134 $135 $231 reversed $81 $-1 #
coedge $-1 $135 $135 $134 $231 forward $83 $-1 #
coedge $-1 $136 $136 $84 $137 forward $131 $-1 #
edge $-1 $232 -2.2343892321884731e-015 $232 6.2831853071795978 $136 $233 forward 7 unknown #
face $-1 $234 $235 $29 $-1 $236 reversed single #
loop $-1 $-1 $237 $85 #
plane-surface $-1 -54.238574672895595 0 4.5935781718761408 -1 0 0 0 0 1 forward_v I I I I #
coedge $-1 $238 $239 $240 $241 reversed $86 $-1 #
coedge $-1 $242 $88 $237 $243 forward $56 $-1 #
coedge $-1 $88 $242 $238 $244 forward $56 $-1 #
coedge $-1 $240 $245 $88 $145 forward $235 $-1 #
edge $-1 $246 -34.005998905949077 $247 -6.4591526279439577 $144 $248 forward 7 unknown #
loop $-1 $-1 $151 $89 #
plane-surface $-1 -40.465151533893035 -34.63799519558917 2.7488171742340484 0 -0.83867057594974714 0.54463902268945019 1 0 0 forward_v I I I I #
loop $-1 $-1 $249 $58 #
coedge $-1 $149 $149 $150 $250 reversed $90 $-1 #
coedge $-1 $150 $150 $149 $250 forward $92 $-1 #
coedge $-1 $151 $151 $93 $152 forward $146 $-1 #
edge $-1 $251 7.4488910679604037e-016 $251 6.2831853071796013 $151 $252 forward 7 unknown #
loop $-1 $-1 $158 $94 #
plane-surface $-1 -40.465151533893035 -34.63799519558917 2.7488171742340484 0 -0.83867057594974714 0.54463902268945019 1 0 0 forward_v I I I I #
loop $-1 $-1 $253 $61 #
coedge $-1 $156 $156 $157 $254 reversed $95 $-1 #
coedge $-1 $157 $157 $156 $254 forward $97 $-1 #
coedge $-1 $158 $158 $98 $159 forward $153 $-1 #
edge $-1 $255 7.4488910679604037e-016 $255 6.2831853071796013 $158 $256 forward 7 unknown #
face $-1 $257 $258 $24 $-1 $259 reversed single #
loop $-1 $-1 $260 $99 #
plane-surface $-1 -60.025025177770317 0 0 1 0 0 0 0 -1 forward_v I I I I #
coedge $-1 $261 $171 $262 $263 forward $100 $-1 #
coedge $-1 $264 $102 $261 $265 forward $65 $-1 #
coedge $-1 $102 $264 $266 $267 forward $65 $-1 #
coedge $-1 $174 $173 $102 $167 reversed $175 $-1 #
edge $-1 $268 -34.637995195589163 $269 34.637995195589163 $166 $270 forward 7 unknown #
coedge $-1 $104 $103 $271 $272 forward $41 $-1 #
coedge $-1 $273 $274 $103 $170 reversed $258 $-1 #
edge $-1 $177 -60.025025177770317 $275 60.025025177770317 $169 $276 forward 7 unknown #
coedge $-1 $163 $277 $104 $172 reversed $100 $-1 #
edge $-1 $278 -60.025025177770317 $176 60.025025177770317 $171 $279 forward 7 unknown #
coedge $-1 $166 $105 $277 $280 forward $175 $-1 #
coedge $-1 $105 $166 $273 $281 reversed $175 $-1 #
loop $-1 $-1 $173 $257 #
vertex $-1 $106 $282 #
vertex $-1 $106 $283 #
straight-curve $-1 60.025025177770317 0 7.0741130969842434 0 1 0 I I #
face $-1 $284 $285 $25 $-1 $286 reversed single #
loop $-1 $-1 $287 $107 #
plane-surface $-1 0 -34.637995195589163 0 0 1 0 0 0 1 forward_v I I I I #
coedge $-1 $185 $113 $288 $289 reversed $108 $-1 #
coedge $-1 $290 $110 $287 $291 reversed $69 $-1 #
coedge $-1 $110 $290 $292 $293 reversed $69 $-1 #
coedge $-1 $192 $182 $110 $186 reversed $108 $-1 #
edge $-1 $294 -34.637995195589163 $295 34.637995195589163 $185 $296 forward 7 unknown #
coedge $-1 $112 $111 $297 $298 reversed $44 $-1 #
coedge $-1 $299 $300 $111 $189 forward $301 $-1 #
edge $-1 $302 -31.459125215103839 $194 -25.672674710229117 $188 $303 forward 7 unknown #
coedge $-1 $304 $288 $112 $191 forward $180 $-1 #
edge $-1 $193 25.672674710229117 $305 31.459125215103839 $190 $306 forward 7 unknown #
coedge $-1 $113 $185 $299 $307 reversed $108 $-1 #
vertex $-1 $191 $308 #
vertex $-1 $189 $309 #
straight-curve $-1 -54.238574672895595 0 6.0935781718761408 0 1 0 I I #
face $-1 $310 $311 $26 $-1 $312 reversed single #
loop $-1 $-1 $207 $115 #
plane-surface $-1 0 -34.637995195589163 0 0 1 0 0 0 1 forward_v I I I I #
coedge $-1 $313 $314 $315 $316 reversed $116 $-1 #
coedge $-1 $317 $118 $318 $319 reversed $73 $-1 #
coedge $-1 $118 $317 $320 $321 reversed $73 $-1 #
coedge $-1 $210 $209 $118 $203 forward $211 $-1 #
edge $-1 $322 -34.637995195589163 $323 34.637995195589163 $202 $324 forward 7 unknown #
coedge $-1 $120 $119 $314 $325 forward $47 $-1 #
coedge $-1 $326 $315 $119 $206 forward $311 $-1 #
edge $-1 $327 25.672674710229117 $212 31.459125215103839 $205 $328 forward 7 unknown #
coedge $-1 $329 $330 $120 $208 forward $197 $-1 #
edge $-1 $213 -31.459125215103839 $331 -25.672674710229117 $207 $332 forward 7 unknown #
coedge $-1 $202 $121 $330 $333 forward $211 $-1 #
coedge $-1 $121 $202 $326 $334 reversed $211 $-1 #
loop $-1 $-1 $121 $310 #
vertex $-1 $334 $335 #
vertex $-1 $333 $336 #
straight-curve $-1 60.025025177770317 0 6.0935781718761408 0 -1 0 I I #
face $-1 $-1 $337 $27 $-1 $338 forward single #
loop $-1 $-1 $129 $123 #
plane-surface $-1 0 34.637995195589163 0 0 -1 0 0 0 -1 forward_v I I I I #
coedge $-1 $339 $340 $341 $342 reversed $124 $-1 #
coedge $-1 $343 $126 $128 $225 forward $77 $-1 #
coedge $-1 $126 $343 $339 $344 forward $77 $-1 #
coedge $-1 $341 $129 $126 $222 forward $216 $-1 #
edge $-1 $228 -31.700350849718397 $345 -4.8824900841478396 $221 $346 forward 7 unknown #
coedge $-1 $347 $348 $127 $224 forward $337 $-1 #
edge $-1 $349 -9.246089951892742 $227 -5.2578952905781833 $223 $350 forward 7 unknown #
edge $-1 $228 -69.275990391178354 $349 -63.196972279935792 $128 $351 forward 7 unknown #
coedge $-1 $129 $341 $347 $352 reversed $216 $-1 #
vertex $-1 $352 $353 #
vertex $-1 $130 $354 #
straight-curve $-1 49.991771316651516 34.637995195589163 66.764696181693935 0 0 -1 I I #
coedge $-1 $230 $230 $-1 $355 reversed $133 $-1 #
edge $-1 $356 0 $356 6.2831853071796004 $134 $357 forward 7 unknown #
vertex $-1 $137 $358 #
ellipse-curve $-1 36.582840933866251 32.643897864931887 4.7801664683397789 0 0.75470958851134928 0.65605901945558964 1.5 0 0 1 I I #
face $-1 $-1 $359 $29 $-1 $360 forward single #
loop $-1 $-1 $245 $138 #
plane-surface $-1 0 -34.637995195589163 0 0 1 0 0 0 1 forward_v I I I I #
coedge $-1 $361 $362 $142 $243 reversed $139 $-1 #
coedge $-1 $239 $141 $143 $244 reversed $86 $-1 #
coedge $-1 $141 $238 $363 $364 reversed $86 $-1 #
coedge $-1 $365 $144 $141 $241 forward $235 $-1 #
edge $-1 $247 -31.317562462613434 $366 -26.992266539863252 $240 $367 forward 7 unknown #
coedge $-1 $143 $142 $368 $369 reversed $56 $-1 #
edge $-1 $246 1.3181006846785195e-014 $370 5.1573240397185049 $237 $371 forward 7 unknown #
edge $-1 $372 -5.1573240397185049 $247 -1.3181006846785195e-014 $238 $373 forward 7 unknown #
coedge $-1 $144 $365 $361 $374 forward $235 $-1 #
vertex $-1 $145 $375 #
vertex $-1 $145 $376 #
straight-curve $-1 -20.232575766946518 -34.637995195589163 2.7488171742340648 1 0 0 I I #
coedge $-1 $249 $249 $-1 $377 reversed $148 $-1 #
edge $-1 $378 0 $378 6.2831853071796004 $149 $379 forward 7 unknown #
vertex $-1 $152 $380 #
ellipse-curve $-1 -46.368047164894136 -33.233555233246619 4.911465135609153 0 -0.83867057594974714 0.54463902268945019 1 0 0 1 I I #
coedge $-1 $253 $253 $-1 $381 reversed $155 $-1 #
edge $-1 $382 0 $382 6.2831853071796004 $156 $383 forward 7 unknown #
vertex $-1 $159 $384 #
ellipse-curve $-1 -34.562255902891941 -33.233555233246619 4.911465135609153 0 -0.83867057594974714 0.54463902268945019 1 0 0 1 I I #
face $-1 $-1 $175 $24 $-1 $385 reversed single #
loop $-1 $-1 $273 $160 #
plane-surface $-1 0 34.637995195589163 0 0 -1 0 0 0 -1 forward_v I I I I #
coedge $-1 $386 $271 $274 $387 forward $161 $-1 #
coedge $-1 $277 $163 $164 $265 reversed $100 $-1 #
coedge $-1 $271 $386 $163 $263 reversed $161 $-1 #
edge $-1 $278 -7.0741130969842434 $388 7.0741130969842434 $262 $389 forward 7 unknown #
coedge $-1 $165 $164 $386 $390 forward $65 $-1 #
edge $-1 $269 -60.025025177770317 $388 60.025025177770317 $261 $391 forward 7 unknown #
coedge $-1 $274 $273 $165 $267 reversed $258 $-1 #
edge $-1 $392 -60.025025177770317 $268 60.025025177770317 $266 $393 forward 7 unknown #
vertex $-1 $167 $394 #
vertex $-1 $280 $395 #
straight-curve $-1 60.025025177770317 0 -7.0741130969842434 0 -1 0 I I #
coedge $-1 $260 $262 $168 $272 reversed $161 $-1 #
edge $-1 $275 -34.637995195589163 $278 34.637995195589163 $271 $396 forward 7 unknown #
coedge $-1 $266 $169 $174 $281 forward $258 $-1 #
coedge $-1 $169 $266 $260 $387 reversed $258 $-1 #
vertex $-1 $170 $397 #
straight-curve $-1 0 34.637995195589163 7.0741130969842434 -1 0 0 I I #
coedge $-1 $171 $261 $173 $280 reversed $100 $-1 #
vertex $-1 $272 $398 #
straight-curve $-1 0 -34.637995195589163 7.0741130969842434 1 0 0 I I #
edge $-1 $176 -7.0741130969842434 $269 7.0741130969842434 $173 $399 forward 7 unknown #
edge $-1 $177 -7.0741130969842434 $268 7.0741130969842434 $174 $400 forward 7 unknown #
point $-1 60.025025177770317 -34.637995195589163 7.0741130969842434 #
point $-1 60.025025177770317 34.637995195589163 7.0741130969842434 #
face $-1 $-1 $301 $25 $-1 $401 reversed single #
loop $-1 $-1 $402 $179 #
plane-surface $-1 -60.025025177770317 0 0 1 0 0 0 0 -1 forward_v I I I I #
coedge $-1 $288 $304 $183 $291 forward $180 $-1 #
coedge $-1 $190 $287 $182 $289 forward $180 $-1 #
edge $-1 $295 0.79678908593807041 $193 3.7967890859380704 $288 $403 forward 7 unknown #
coedge $-1 $184 $183 $402 $404 reversed $69 $-1 #
edge $-1 $405 -31.459125215103839 $295 -25.672674710229117 $287 $406 forward 7 unknown #
coedge $-1 $300 $299 $184 $293 forward $301 $-1 #
edge $-1 $294 25.672674710229117 $407 31.459125215103839 $292 $408 forward 7 unknown #
vertex $-1 $293 $409 #
vertex $-1 $291 $410 #
straight-curve $-1 -54.238574672895595 0 3.0935781718761408 0 -1 0 I I #
coedge $-1 $411 $412 $187 $298 forward $285 $-1 #
edge $-1 $305 -34.637995195589163 $302 34.637995195589163 $297 $413 forward 7 unknown #
coedge $-1 $292 $188 $192 $307 forward $301 $-1 #
coedge $-1 $188 $292 $411 $414 reversed $301 $-1 #
loop $-1 $-1 $292 $284 #
vertex $-1 $414 $415 #
straight-curve $-1 -28.565899962666478 34.637995195589163 6.0935781718761408 1 0 0 I I #
coedge $-1 $287 $190 $412 $416 forward $180 $-1 #
vertex $-1 $416 $417 #
straight-curve $-1 -28.565899962666478 -34.637995195589163 6.0935781718761408 -1 0 0 I I #
edge $-1 $194 -3.7967890859380704 $294 -0.79678908593807041 $299 $418 forward 7 unknown #
point $-1 -54.238574672895595 -34.637995195589163 6.0935781718761408 #
point $-1 -54.238574672895595 34.637995195589163 6.0935781718761408 #
face $-1 $-1 $211 $26 $-1 $419 reversed single #
loop $-1 $-1 $205 $196 #
plane-surface $-1 0 34.637995195589163 0 0 -1 0 0 0 -1 forward_v I I I I #
coedge $-1 $420 $199 $317 $421 reversed $116 $-1 #
coedge $-1 $199 $420 $204 $325 reversed $116 $-1 #
coedge $-1 $205 $320 $199 $316 forward $311 $-1 #
edge $-1 $422 0.79678908593807041 $327 3.7967890859380704 $315 $423 forward 7 unknown #
coedge $-1 $201 $200 $313 $421 forward $73 $-1 #
coedge $-1 $330 $329 $200 $319 forward $197 $-1 #
edge $-1 $424 25.672674710229117 $322 31.459125215103839 $318 $425 forward 7 unknown #
coedge $-1 $315 $326 $201 $321 forward $311 $-1 #
edge $-1 $323 -31.459125215103839 $422 -25.672674710229117 $320 $426 forward 7 unknown #
vertex $-1 $203 $427 #
vertex $-1 $203 $428 #
straight-curve $-1 60.025025177770317 0 3.0935781718761408 0 1 0 I I #
edge $-1 $327 -34.637995195589163 $331 34.637995195589163 $314 $429 forward 7 unknown #
coedge $-1 $320 $205 $210 $334 forward $311 $-1 #
vertex $-1 $206 $430 #
straight-curve $-1 28.565899962666478 34.637995195589163 6.0935781718761408 1 0 0 I I #
coedge $-1 $318 $207 $420 $431 forward $197 $-1 #
coedge $-1 $207 $318 $209 $333 reversed $197 $-1 #
vertex $-1 $208 $432 #
straight-curve $-1 28.565899962666478 -34.637995195589163 6.0935781718761408 -1 0 0 I I #
edge $-1 $213 -6.0935781718761408 $322 -3.0935781718761408 $209 $433 forward 7 unknown #
edge $-1 $212 -6.0935781718761408 $323 -3.0935781718761408 $210 $434 forward 7 unknown #
point $-1 60.025025177770317 34.637995195589163 6.0935781718761408 #
point $-1 60.025025177770317 -34.637995195589163 6.0935781718761408 #
loop $-1 $-1 $223 $215 #
plane-surface $-1 0 0 7.0741130969842434 0 0 1 1 0 0 forward_v I I I I #
coedge $-1 $340 $218 $220 $344 reversed $124 $-1 #
coedge $-1 $218 $339 $435 $436 reversed $124 $-1 #
coedge $-1 $226 $221 $218 $342 forward $216 $-1 #
edge $-1 $345 -64.278476341998612 $437 -59.690583084709694 $341 $438 forward 7 unknown #
coedge $-1 $220 $219 $348 $439 reversed $77 $-1 #
edge $-1 $440 63.196972279935792 $345 69.275990391178354 $339 $441 forward 7 unknown #
vertex $-1 $222 $442 #
straight-curve $-1 18.291420466933118 34.637995195589156 2.4862198396953339 -1 0 0 I I #
coedge $-1 $435 $223 $226 $352 forward $337 $-1 #
coedge $-1 $223 $435 $343 $439 forward $337 $-1 #
vertex $-1 $224 $443 #
straight-curve $-1 49.991771316651516 39.895890486167346 7.0741130969842416 0 1 0 I I #
straight-curve $-1 49.991771316651516 -10.811143132262146 54.76947404153772 0 -0.65605901945558964 0.75470958851134928 I I #
edge $-1 $227 -49.991771316651516 $437 -23.173910551080958 $226 $444 forward 7 unknown #
point $-1 49.991771316651516 34.637995195589163 7.0741130969842434 #
point $-1 49.991771316651516 34.637995195589163 2.4862198396953303 #
edge $-1 $445 1 $445 0 $230 $-1 forward 7 unknown #
vertex $-1 $231 $446 #
ellipse-curve $-1 36.582840933866251 31.503230801684232 3.7885997432957268 0 0.75470958851134928 0.65605901945558964 1.5 0 0 1 I I #
point $-1 38.082840933866251 32.643897864931887 4.7801664683397833 #
loop $-1 $-1 $447 $234 #
plane-surface $-1 0 0 7.0741130969842434 0 0 1 1 0 0 forward_v I I I I #
coedge $-1 $362 $237 $245 $374 reversed $139 $-1 #
coedge $-1 $237 $361 $447 $448 reversed $139 $-1 #
coedge $-1 $368 $449 $239 $364 forward $359 $-1 #
edge $-1 $366 33.022224839444128 $372 35.831104764129215 $363 $450 forward 7 unknown #
coedge $-1 $245 $240 $449 $451 reversed $235 $-1 #
vertex $-1 $364 $452 #
straight-curve $-1 -26.691728394890475 -34.637995195589163 34.066379636847493 0 0 1 I I #
coedge $-1 $447 $363 $242 $369 forward $359 $-1 #
edge $-1 $372 6.4591526279439577 $370 34.005998905949077 $368 $453 forward 7 unknown #
vertex $-1 $448 $454 #
straight-curve $-1 -54.238574672895595 -34.63799519558917 2.7488171742340484 0 0.54463902268945019 0.83867057594974714 I I #
vertex $-1 $369 $455 #
straight-curve $-1 -26.691728394890475 -34.63799519558917 2.7488171742340484 0 -0.54463902268945019 -0.83867057594974714 I I #
edge $-1 $456 26.992266539863252 $246 31.317562462613434 $245 $457 forward 7 unknown #
point $-1 -54.238574672895595 -34.637995195589163 2.7488171742340595 #
point $-1 -26.691728394890475 -34.637995195589163 2.7488171742340595 #
edge $-1 $458 1 $458 0 $249 $-1 forward 7 unknown #
vertex $-1 $250 $459 #
ellipse-curve $-1 -46.368047164894136 -31.670188509116048 3.8962029466722869 0 -0.83867057594974714 0.54463902268945019 1 0 0 1 I I #
point $-1 -45.368047164894136 -33.233555233246619 4.9114651356091539 #
edge $-1 $460 1 $460 0 $253 $-1 forward 7 unknown #
vertex $-1 $254 $461 #
ellipse-curve $-1 -34.562255902891941 -31.670188509116048 3.8962029466722869 0 -0.83867057594974714 0.54463902268945019 1 0 0 1 I I #
point $-1 -33.562255902891941 -33.233555233246619 4.9114651356091539 #
plane-surface $-1 60.025025177770317 0 0 -1 0 0 0 0 1 forward_v I I I I #
coedge $-1 $262 $260 $264 $390 reversed $161 $-1 #
edge $-1 $275 -7.0741130969842434 $392 7.0741130969842434 $274 $462 forward 7 unknown #
vertex $-1 $390 $463 #
straight-curve $-1 -60.025025177770317 -34.637995195589163 0 0 0 -1 I I #
edge $-1 $388 -34.637995195589163 $392 34.637995195589163 $386 $464 forward 7 unknown #
straight-curve $-1 0 -34.637995195589163 -7.0741130969842434 -1 0 0 I I #
vertex $-1 $267 $465 #
straight-curve $-1 0 34.637995195589163 -7.0741130969842434 1 0 0 I I #
point $-1 60.025025177770317 34.637995195589163 -7.0741130969842434 #
point $-1 60.025025177770317 -34.637995195589163 -7.0741130969842434 #
straight-curve $-1 -60.025025177770317 0 7.0741130969842434 0 -1 0 I I #
point $-1 -60.025025177770317 34.637995195589163 7.0741130969842434 #
point $-1 -60.025025177770317 -34.637995195589163 7.0741130969842434 #
straight-curve $-1 60.025025177770317 -34.637995195589163 0 0 0 -1 I I #
straight-curve $-1 60.025025177770317 34.637995195589163 0 0 0 -1 I I #
plane-surface $-1 0 34.637995195589163 0 0 -1 0 0 0 -1 forward_v I I I I #
coedge $-1 $412 $411 $290 $404 forward $285 $-1 #
straight-curve $-1 -54.238574672895595 -34.637995195589163 2.2967890859380704 0 0 1 I I #
edge $-1 $407 -34.637995195589163 $405 34.637995195589163 $402 $466 forward 7 unknown #
vertex $-1 $291 $467 #
straight-curve $-1 -28.565899962666478 -34.637995195589163 3.0935781718761408 1 0 0 I I #
vertex $-1 $293 $468 #
straight-curve $-1 -28.565899962666478 34.637995195589163 3.0935781718761408 -1 0 0 I I #
point $-1 -54.238574672895595 34.637995195589163 3.0935781718761408 #
point $-1 -54.238574672895595 -34.637995195589163 3.0935781718761408 #
coedge $-1 $402 $297 $300 $414 forward $285 $-1 #
coedge $-1 $297 $402 $304 $416 reversed $285 $-1 #
straight-curve $-1 -60.025025177770317 0 6.0935781718761408 0 1 0 I I #
edge $-1 $302 -6.0935781718761408 $407 -3.0935781718761408 $300 $469 forward 7 unknown #
point $-1 -60.025025177770317 34.637995195589163 6.0935781718761408 #
edge $-1 $305 -6.0935781718761408 $405 -3.0935781718761408 $412 $470 forward 7 unknown #
point $-1 -60.025025177770317 -34.637995195589163 6.0935781718761408 #
straight-curve $-1 -54.238574672895595 34.637995195589163 2.2967890859380704 0 0 -1 I I #
plane-surface $-1 60.025025177770317 0 0 -1 0 0 0 0 1 forward_v I I I I #
coedge $-1 $314 $313 $329 $431 reversed $116 $-1 #
edge $-1 $424 -34.637995195589163 $422 34.637995195589163 $313 $471 forward 7 unknown #
vertex $-1 $321 $472 #
straight-curve $-1 54.238574672895595 34.637995195589163 2.2967890859380704 0 0 1 I I #
vertex $-1 $319 $473 #
straight-curve $-1 28.565899962666478 -34.637995195589163 3.0935781718761408 1 0 0 I I #
straight-curve $-1 28.565899962666478 34.637995195589163 3.0935781718761408 -1 0 0 I I #
point $-1 60.025025177770317 -34.637995195589163 3.0935781718761408 #
point $-1 60.025025177770317 34.637995195589163 3.0935781718761408 #
straight-curve $-1 54.238574672895595 0 6.0935781718761408 0 -1 0 I I #
point $-1 54.238574672895595 34.637995195589163 6.0935781718761408 #
edge $-1 $331 -3.7967890859380704 $424 -0.79678908593807041 $329 $474 forward 7 unknown #
point $-1 54.238574672895595 -34.637995195589163 6.0935781718761408 #
straight-curve $-1 60.025025177770317 -34.637995195589163 0 0 0 -1 I I #
straight-curve $-1 60.025025177770317 34.637995195589163 0 0 0 -1 I I #
coedge $-1 $348 $347 $340 $436 forward $337 $-1 #
edge $-1 $437 5.2578952905781833 $440 9.246089951892742 $435 $475 forward 7 unknown #
vertex $-1 $436 $476 #
straight-curve $-1 23.173910551080958 34.637995195589163 66.764696181693935 0 0 1 I I #
edge $-1 $440 4.8824900841478396 $349 31.700350849718397 $348 $477 forward 7 unknown #
vertex $-1 $439 $478 #
straight-curve $-1 23.173910551080958 -10.811143132262146 54.76947404153772 0 0.65605901945558964 -0.75470958851134928 I I #
point $-1 23.173910551080958 34.637995195589163 2.4862198396953303 #
point $-1 49.991771316651516 30.649800534274604 7.0741130969842416 #
straight-curve $-1 0 34.637995195589163 7.0741130969842434 -1 0 0 I I #
vertex $-1 $355 $479 #
point $-1 38.082840933866251 31.503230801684232 3.7885997432957268 #
coedge $-1 $449 $368 $362 $448 forward $359 $-1 #
edge $-1 $370 -35.831104764129215 $456 -33.022224839444128 $447 $480 forward 7 unknown #
coedge $-1 $363 $447 $365 $451 forward $359 $-1 #
straight-curve $-1 -26.691728394890475 -67.660220035033291 7.0741130969842416 0 1 0 I I #
edge $-1 $456 -54.238574672895595 $366 -26.691728394890475 $365 $481 forward 7 unknown #
point $-1 -26.691728394890475 -34.637995195589163 7.0741130969842434 #
straight-curve $-1 -20.232575766946518 -31.829115270904076 7.0741130969842425 -1 0 0 I I #
point $-1 -54.238574672895595 -31.829115270904076 7.0741130969842434 #
point $-1 -26.691728394890475 -31.829115270904076 7.0741130969842434 #
vertex $-1 $451 $482 #
straight-curve $-1 -54.238574672895595 -34.637995195589163 34.066379636847493 0 0 -1 I I #
vertex $-1 $377 $483 #
point $-1 -45.368047164894136 -31.670188509116048 3.8962029466722869 #
vertex $-1 $381 $484 #
point $-1 -33.562255902891941 -31.670188509116048 3.8962029466722869 #
straight-curve $-1 -60.025025177770317 34.637995195589163 0 0 0 -1 I I #
point $-1 -60.025025177770317 -34.637995195589163 -7.0741130969842434 #
straight-curve $-1 -60.025025177770317 0 -7.0741130969842434 0 1 0 I I #
point $-1 -60.025025177770317 34.637995195589163 -7.0741130969842434 #
straight-curve $-1 -60.025025177770317 0 3.0935781718761408 0 -1 0 I I #
point $-1 -60.025025177770317 -34.637995195589163 3.0935781718761408 #
point $-1 -60.025025177770317 34.637995195589163 3.0935781718761408 #
straight-curve $-1 -60.025025177770317 34.637995195589163 0 0 0 -1 I I #
straight-curve $-1 -60.025025177770317 -34.637995195589163 0 0 0 -1 I I #
straight-curve $-1 54.238574672895595 0 3.0935781718761408 0 1 0 I I #
point $-1 54.238574672895595 34.637995195589163 3.0935781718761408 #
point $-1 54.238574672895595 -34.637995195589163 3.0935781718761408 #
straight-curve $-1 54.238574672895595 -34.637995195589163 2.2967890859380704 0 0 -1 I I #
straight-curve $-1 23.173910551080958 39.895890486167346 7.0741130969842416 0 -1 0 I I #
point $-1 23.173910551080958 34.637995195589163 7.0741130969842434 #
straight-curve $-1 18.291420466933118 30.649800534274604 7.0741130969842381 1 0 0 I I #
point $-1 23.173910551080958 30.649800534274604 7.0741130969842416 #
point $-1 36.582840933866251 30.371166418917205 2.8045112141123418 #
straight-curve $-1 -54.238574672895595 -67.660220035033291 7.0741130969842416 0 -1 0 I I #
straight-curve $-1 0 -34.637995195589163 7.0741130969842434 1 0 0 I I #
point $-1 -54.238574672895595 -34.637995195589163 7.0741130969842434 #
point $-1 -46.368047164894136 -30.8315179331663 3.3515639239828365 #
point $-1 -34.562255902891941 -30.8315179331663 3.3515639239828365 #
End-of-ACIS-data 