500 0 19 0           
7 Unknown 11 ACIS 5.0 NT 24 Thu Mar 25 15:25:01 1999 
-1 9.9999999999999995e-007 1e-010 
body $-1 $19 $-1 $20 #
body $-1 $21 $-1 $22 #
body $-1 $23 $-1 $24 #
body $-1 $25 $-1 $26 #
body $-1 $27 $-1 $28 #
body $-1 $29 $-1 $30 #
body $-1 $31 $-1 $32 #
body $-1 $33 $-1 $34 #
body $-1 $35 $-1 $36 #
body $-1 $37 $-1 $38 #
body $-1 $39 $-1 $40 #
body $-1 $41 $-1 $42 #
body $-1 $43 $-1 $44 #
body $-1 $45 $-1 $46 #
body $-1 $47 $-1 $48 #
body $-1 $49 $-1 $50 #
body $-1 $51 $-1 $52 #
body $-1 $53 $-1 $54 #
body $-1 $55 $-1 $56 #
lump $-1 $-1 $57 $0 #
transform $-1 1 0 0 0 1 0 0 0 1 50.870693075350204 20.603973606052133 6.2565855092080058 1 rotate no_reflect no_shear #
lump $-1 $-1 $58 $1 #
transform $-1 1 0 0 0 1 0 0 0 1 50.870693075350204 20.603973606052133 6.2565855092080058 1 rotate no_reflect no_shear #
lump $-1 $-1 $59 $2 #
transform $-1 1 0 0 0 1 0 0 0 1 50.870693075350204 20.603973606052133 6.2565855092080058 1 rotate no_reflect no_shear #
lump $-1 $-1 $60 $3 #
transform $-1 1 0 0 0 1 0 0 0 1 50.870693075350204 20.603973606052133 6.2565855092080058 1 rotate no_reflect no_shear #
lump $-1 $-1 $61 $4 #
transform $-1 1 0 0 0 1 0 0 0 1 50.870693075350204 20.603973606052133 6.2565855092080058 1 rotate no_reflect no_shear #
lump $-1 $-1 $62 $5 #
transform $-1 1 0 0 0 1 0 0 0 1 50.870693075350204 20.603973606052133 6.2565855092080058 1 rotate no_reflect no_shear #
lump $-1 $-1 $63 $6 #
transform $-1 1 0 0 0 1 0 0 0 1 50.870693075350204 20.603973606052133 6.2565855092080058 1 rotate no_reflect no_shear #
lump $-1 $-1 $64 $7 #
transform $-1 1 0 0 0 1 0 0 0 1 50.870693075350204 20.603973606052133 6.2565855092080058 1 rotate no_reflect no_shear #
lump $-1 $-1 $65 $8 #
transform $-1 1 0 0 0 1 0 0 0 1 50.870693075350204 20.603973606052133 6.2565855092080058 1 rotate no_reflect no_shear #
lump $-1 $-1 $66 $9 #
transform $-1 1 0 0 0 1 0 0 0 1 50.870693075350204 20.603973606052133 6.2565855092080058 1 rotate no_reflect no_shear #
lump $-1 $-1 $67 $10 #
transform $-1 1 0 0 0 1 0 0 0 1 50.870693075350204 20.603973606052133 6.2565855092080058 1 rotate no_reflect no_shear #
lump $-1 $-1 $68 $11 #
transform $-1 1 0 0 0 1 0 0 0 1 50.870693075350204 20.603973606052133 6.2565855092080058 1 rotate no_reflect no_shear #
lump $-1 $-1 $69 $12 #
transform $-1 1 0 0 0 1 0 0 0 1 50.870693075350204 20.603973606052133 6.2565855092080058 1 rotate no_reflect no_shear #
lump $-1 $-1 $70 $13 #
transform $-1 1 0 0 0 1 0 0 0 1 50.870693075350204 20.603973606052133 6.2565855092080058 1 rotate no_reflect no_shear #
lump $-1 $-1 $71 $14 #
transform $-1 1 0 0 0 1 0 0 0 1 50.870693075350204 20.603973606052133 6.2565855092080058 1 rotate no_reflect no_shear #
lump $-1 $-1 $72 $15 #
transform $-1 1 0 0 0 1 0 0 0 1 50.870693075350204 20.603973606052133 6.2565855092080058 1 rotate no_reflect no_shear #
lump $-1 $-1 $73 $16 #
transform $-1 1 0 0 0 1 0 0 0 1 50.870693075350204 20.603973606052133 6.2565855092080058 1 rotate no_reflect no_shear #
lump $-1 $-1 $74 $17 #
transform $-1 1 0 0 0 1 0 0 0 1 50.870693075350204 20.603973606052133 6.2565855092080058 1 rotate no_reflect no_shear #
lump $-1 $-1 $75 $18 #
transform $-1 1 0 0 0 1 0 0 0 1 50.870693075350204 20.603973606052133 6.2565855092080058 1 rotate no_reflect no_shear #
shell $-1 $-1 $-1 $76 $-1 $19 #
shell $-1 $-1 $-1 $77 $-1 $21 #
shell $-1 $-1 $-1 $78 $-1 $23 #
shell $-1 $-1 $-1 $79 $-1 $25 #
shell $-1 $-1 $-1 $80 $-1 $27 #
shell $-1 $-1 $-1 $81 $-1 $29 #
shell $-1 $-1 $-1 $82 $-1 $31 #
shell $-1 $-1 $-1 $83 $-1 $33 #
shell $-1 $-1 $-1 $84 $-1 $35 #
shell $-1 $-1 $-1 $85 $-1 $37 #
shell $-1 $-1 $-1 $86 $-1 $39 #
shell $-1 $-1 $-1 $87 $-1 $41 #
shell $-1 $-1 $-1 $88 $-1 $43 #
shell $-1 $-1 $-1 $89 $-1 $45 #
shell $-1 $-1 $-1 $90 $-1 $47 #
shell $-1 $-1 $-1 $91 $-1 $49 #
shell $-1 $-1 $-1 $92 $-1 $51 #
shell $-1 $-1 $-1 $93 $-1 $53 #
shell $-1 $-1 $-1 $94 $-1 $55 #
face $-1 $95 $96 $57 $-1 $97 forward single #
face $-1 $98 $99 $58 $-1 $100 forward single #
face $-1 $101 $102 $59 $-1 $103 forward single #
face $-1 $104 $105 $60 $-1 $106 reversed single #
face $-1 $107 $108 $61 $-1 $109 forward single #
face $-1 $110 $111 $62 $-1 $112 forward single #
face $-1 $113 $114 $63 $-1 $115 forward single #
face $-1 $116 $117 $64 $-1 $118 reversed single #
face $-1 $119 $120 $65 $-1 $121 forward single #
face $-1 $122 $123 $66 $-1 $124 forward single #
face $-1 $125 $126 $67 $-1 $127 forward single #
face $-1 $128 $129 $68 $-1 $130 reversed single #
face $-1 $131 $132 $69 $-1 $133 forward single #
face $-1 $134 $135 $70 $-1 $136 forward single #
face $-1 $137 $138 $71 $-1 $139 forward single #
face $-1 $140 $141 $72 $-1 $142 reversed single #
face $-1 $143 $144 $73 $-1 $145 forward single #
face $-1 $146 $147 $74 $-1 $148 forward single #
face $-1 $149 $150 $75 $-1 $151 forward single #
face $-1 $152 $153 $57 $-1 $154 reversed single #
loop $-1 $-1 $155 $76 #
plane-surface $-1 0 0 6.2565855092080058 0 0 1 1 0 0 forward_v I I I I #
face $-1 $156 $157 $58 $-1 $158 reversed single #
loop $-1 $-1 $159 $77 #
plane-surface $-1 0 -16.599892539323914 -3.1075373957108812 0 0 1 1 0 0 forward_v I I I I #
face $-1 $160 $161 $59 $-1 $162 reversed single #
loop $-1 $-1 $163 $78 #
plane-surface $-1 0 20.603973606052133 0 0 -1 0 0 0 -1 forward_v I I I I #
face $-1 $164 $165 $60 $-1 $166 reversed single #
loop $-1 $-1 $167 $79 #
plane-surface $-1 60.90753871563858 -6.469117697985169 143.80149873435735 0 -1 0 -0.75470958851134928 0 -0.65605901945558964 forward_v I I I I #
face $-1 $168 $169 $61 $-1 $170 forward single #
loop $-1 $171 $172 $80 #
cone-surface $-1 47.749288900716799 -11.370472717673589 2.811556303119354 -0.75470958851134928 0 -0.65605901945558964 0.32802950972779482 0 -0.37735479425567464 1 I I 0 1 0.5 forward I I I I #
face $-1 $173 $174 $62 $-1 $175 forward single #
loop $-1 $176 $177 $81 #
cone-surface $-1 47.749288900716799 -9.5324645852904322 2.811556303119354 -0.75470958851134928 0 -0.65605901945558964 0.32802950972779482 0 -0.37735479425567464 1 I I 0 1 0.5 forward I I I I #
face $-1 $178 $179 $63 $-1 $180 forward single #
loop $-1 $181 $182 $82 #
cone-surface $-1 47.749288900716799 -7.694456452907275 2.811556303119354 -0.75470958851134928 0 -0.65605901945558964 0.32802950972779482 0 -0.37735479425567464 1 I I 0 1 0.5 forward I I I I #
face $-1 $183 $184 $64 $-1 $185 reversed single #
loop $-1 $-1 $186 $83 #
plane-surface $-1 60.90753871563858 6.632481058194502 143.80149873435735 0 -1 0 -0.75470958851134928 0 -0.65605901945558964 forward_v I I I I #
face $-1 $187 $188 $65 $-1 $189 forward single #
loop $-1 $190 $191 $84 #
cone-surface $-1 47.749288900716799 1.7311260385060834 2.811556303119354 -0.75470958851134928 0 -0.65605901945558964 0.32802950972779482 0 -0.37735479425567464 1 I I 0 1 0.5 forward I I I I #
face $-1 $192 $193 $66 $-1 $194 forward single #
loop $-1 $195 $196 $85 #
cone-surface $-1 47.749288900716799 3.5691341708892388 2.811556303119354 -0.75470958851134928 0 -0.65605901945558964 0.32802950972779482 0 -0.37735479425567464 1 I I 0 1 0.5 forward I I I I #
face $-1 $197 $198 $67 $-1 $199 forward single #
loop $-1 $200 $201 $86 #
cone-surface $-1 47.749288900716799 5.4071423032723978 2.811556303119354 -0.75470958851134928 0 -0.65605901945558964 0.32802950972779482 0 -0.37735479425567464 1 I I 0 1 0.5 forward I I I I #
face $-1 $202 $203 $68 $-1 $204 reversed single #
loop $-1 $-1 $205 $87 #
plane-surface $-1 -127.65589275171959 -12.595811472595695 67.016299057987951 0 1 0 -0.75470958851134928 0 0.65605901945558964 forward_v I I I I #
face $-1 $206 $207 $69 $-1 $208 forward single #
loop $-1 $209 $210 $88 #
cone-surface $-1 -47.749288900716785 -11.370472717673589 2.8115563031193522 0.75470958851134928 0 -0.65605901945558964 0.32802950972779482 0 0.37735479425567464 1 I I 0 1 0.5 forward I I I I #
face $-1 $211 $212 $70 $-1 $213 forward single #
loop $-1 $214 $215 $89 #
cone-surface $-1 -47.749288900716785 -9.5324645852904322 2.8115563031193522 0.75470958851134928 0 -0.65605901945558964 0.32802950972779482 0 0.37735479425567464 1 I I 0 1 0.5 forward I I I I #
face $-1 $216 $217 $71 $-1 $218 forward single #
loop $-1 $219 $220 $90 #
cone-surface $-1 -47.749288900716785 -7.694456452907275 2.8115563031193522 0.75470958851134928 0 -0.65605901945558964 0.32802950972779482 0 0.37735479425567464 1 I I 0 1 0.5 forward I I I I #
face $-1 $221 $222 $72 $-1 $223 reversed single #
loop $-1 $-1 $224 $91 #
plane-surface $-1 -127.65589275171959 0.50578728358397562 67.016299057987951 0 1 0 -0.75470958851134928 0 0.65605901945558964 forward_v I I I I #
face $-1 $225 $226 $73 $-1 $227 forward single #
loop $-1 $228 $229 $92 #
cone-surface $-1 -47.749288900716785 1.7311260385060834 2.8115563031193522 0.75470958851134928 0 -0.65605901945558964 0.32802950972779482 0 0.37735479425567464 1 I I 0 1 0.5 forward I I I I #
face $-1 $230 $231 $74 $-1 $232 forward single #
loop $-1 $233 $234 $93 #
cone-surface $-1 -47.749288900716785 3.5691341708892388 2.8115563031193522 0.75470958851134928 0 -0.65605901945558964 0.32802950972779482 0 0.37735479425567464 1 I I 0 1 0.5 forward I I I I #
face $-1 $235 $236 $75 $-1 $237 forward single #
loop $-1 $238 $239 $94 #
cone-surface $-1 -47.749288900716785 5.4071423032723978 2.8115563031193522 0.75470958851134928 0 -0.65605901945558964 0.32802950972779482 0 0.37735479425567464 1 I I 0 1 0.5 forward I I I I #
face $-1 $240 $241 $57 $-1 $242 reversed single #
loop $-1 $-1 $243 $95 #
plane-surface $-1 0 0 -6.2565855092080058 0 0 1 1 0 0 forward_v I I I I #
coedge $-1 $244 $245 $246 $247 forward $96 $-1 #
face $-1 $248 $249 $58 $-1 $250 reversed single #
loop $-1 $-1 $251 $98 #
plane-surface $-1 0 -12.595811472595695 -4.6820614524594433 0 -1 0 0 0 -1 forward_v I I I I #
coedge $-1 $252 $253 $254 $255 reversed $99 $-1 #
face $-1 $256 $257 $59 $-1 $258 forward single #
loop $-1 $-1 $259 $101 #
plane-surface $-1 -50.870693075350204 0 0 1 0 0 0 0 -1 forward_v I I I I #
coedge $-1 $260 $261 $262 $263 forward $102 $-1 #
face $-1 $264 $265 $60 $-1 $266 reversed single #
loop $-1 $-1 $267 $104 #
plane-surface $-1 -15.877660960730822 -9.5324645852904322 77.053144698276341 0.75470958851134928 0 0.65605901945558964 0.65605901945558964 0 -0.75470958851134928 forward_v I I I I #
coedge $-1 $268 $269 $270 $271 reversed $105 $-1 #
face $-1 $-1 $272 $61 $-1 $273 forward single #
loop $-1 $274 $275 $107 #
cone-surface $-1 47.042130139119166 -11.370472717673589 2.1968325858173356 -0.75470958851134928 0 -0.65605901945558964 0.16401475486389741 0 -0.18867739712783732 1 I I -0.70710678118654746 0.70710678118654746 0.25 forward I I I I #
loop $-1 $-1 $276 $80 #
coedge $-1 $172 $172 $277 $278 reversed $108 $-1 #
face $-1 $-1 $279 $62 $-1 $280 forward single #
loop $-1 $281 $282 $110 #
cone-surface $-1 47.042130139119166 -9.5324645852904322 2.1968325858173356 -0.75470958851134928 0 -0.65605901945558964 0.16401475486389741 0 -0.18867739712783732 1 I I -0.70710678118654746 0.70710678118654746 0.25 forward I I I I #
loop $-1 $-1 $283 $81 #
coedge $-1 $177 $177 $284 $285 reversed $111 $-1 #
face $-1 $-1 $286 $63 $-1 $287 forward single #
loop $-1 $288 $289 $113 #
cone-surface $-1 47.042130139119166 -7.694456452907275 2.1968325858173356 -0.75470958851134928 0 -0.65605901945558964 0.16401475486389741 0 -0.18867739712783732 1 I I -0.70710678118654746 0.70710678118654746 0.25 forward I I I I #
loop $-1 $-1 $290 $82 #
coedge $-1 $182 $182 $291 $292 reversed $114 $-1 #
face $-1 $293 $294 $64 $-1 $295 reversed single #
loop $-1 $-1 $296 $116 #
plane-surface $-1 -15.877660960730822 3.5691341708892388 77.053144698276341 0.75470958851134928 0 0.65605901945558964 0.65605901945558964 0 -0.75470958851134928 forward_v I I I I #
coedge $-1 $297 $298 $299 $300 reversed $117 $-1 #
face $-1 $-1 $301 $65 $-1 $302 forward single #
loop $-1 $303 $304 $119 #
cone-surface $-1 47.042130139119166 1.7311260385060834 2.1968325858173356 -0.75470958851134928 0 -0.65605901945558964 0.16401475486389741 0 -0.18867739712783732 1 I I -0.70710678118654746 0.70710678118654746 0.25 forward I I I I #
loop $-1 $-1 $305 $84 #
coedge $-1 $191 $191 $306 $307 reversed $120 $-1 #
face $-1 $-1 $308 $66 $-1 $309 forward single #
loop $-1 $310 $311 $122 #
cone-surface $-1 47.042130139119166 3.5691341708892388 2.1968325858173356 -0.75470958851134928 0 -0.65605901945558964 0.16401475486389741 0 -0.18867739712783732 1 I I -0.70710678118654746 0.70710678118654746 0.25 forward I I I I #
loop $-1 $-1 $312 $85 #
coedge $-1 $196 $196 $313 $314 reversed $123 $-1 #
face $-1 $-1 $315 $67 $-1 $316 forward single #
loop $-1 $317 $318 $125 #
cone-surface $-1 47.042130139119166 5.4071423032723978 2.1968325858173356 -0.75470958851134928 0 -0.65605901945558964 0.16401475486389741 0 -0.18867739712783732 1 I I -0.70710678118654746 0.70710678118654746 0.25 forward I I I I #
loop $-1 $-1 $319 $86 #
coedge $-1 $201 $201 $320 $321 reversed $126 $-1 #
face $-1 $322 $323 $68 $-1 $324 reversed single #
loop $-1 $-1 $325 $128 #
plane-surface $-1 -50.870693075350189 -9.5324645852904322 0.26794502190693947 -0.75470958851134928 0 0.65605901945558964 0.65605901945558964 0 0.75470958851134928 forward_v I I I I #
coedge $-1 $326 $327 $328 $329 reversed $129 $-1 #
face $-1 $-1 $330 $69 $-1 $331 forward single #
loop $-1 $332 $333 $131 #
cone-surface $-1 -47.042130139119152 -11.370472717673589 2.1968325858173339 0.75470958851134928 0 -0.65605901945558964 0.16401475486389741 0 0.18867739712783732 1 I I -0.70710678118654746 0.70710678118654746 0.25 forward I I I I #
loop $-1 $-1 $334 $88 #
coedge $-1 $210 $210 $335 $336 reversed $132 $-1 #
face $-1 $-1 $337 $70 $-1 $338 forward single #
loop $-1 $339 $340 $134 #
cone-surface $-1 -47.042130139119152 -9.5324645852904322 2.1968325858173339 0.75470958851134928 0 -0.65605901945558964 0.16401475486389741 0 0.18867739712783732 1 I I -0.70710678118654746 0.70710678118654746 0.25 forward I I I I #
loop $-1 $-1 $341 $89 #
coedge $-1 $215 $215 $342 $343 reversed $135 $-1 #
face $-1 $-1 $344 $71 $-1 $345 forward single #
loop $-1 $346 $347 $137 #
cone-surface $-1 -47.042130139119152 -7.694456452907275 2.1968325858173339 0.75470958851134928 0 -0.65605901945558964 0.16401475486389741 0 0.18867739712783732 1 I I -0.70710678118654746 0.70710678118654746 0.25 forward I I I I #
loop $-1 $-1 $348 $90 #
coedge $-1 $220 $220 $349 $350 reversed $138 $-1 #
face $-1 $351 $352 $72 $-1 $353 reversed single #
loop $-1 $-1 $354 $140 #
plane-surface $-1 -50.870693075350189 3.5691341708892388 0.26794502190693947 -0.75470958851134928 0 0.65605901945558964 0.65605901945558964 0 0.75470958851134928 forward_v I I I I #
coedge $-1 $355 $356 $357 $358 reversed $141 $-1 #
face $-1 $-1 $359 $73 $-1 $360 forward single #
loop $-1 $361 $362 $143 #
cone-surface $-1 -47.042130139119152 1.7311260385060834 2.1968325858173339 0.75470958851134928 0 -0.65605901945558964 0.16401475486389741 0 0.18867739712783732 1 I I -0.70710678118654746 0.70710678118654746 0.25 forward I I I I #
loop $-1 $-1 $363 $92 #
coedge $-1 $229 $229 $364 $365 reversed $144 $-1 #
face $-1 $-1 $366 $74 $-1 $367 forward single #
loop $-1 $368 $369 $146 #
cone-surface $-1 -47.042130139119152 3.5691341708892388 2.1968325858173339 0.75470958851134928 0 -0.65605901945558964 0.16401475486389741 0 0.18867739712783732 1 I I -0.70710678118654746 0.70710678118654746 0.25 forward I I I I #
loop $-1 $-1 $370 $93 #
coedge $-1 $234 $234 $371 $372 reversed $147 $-1 #
face $-1 $-1 $373 $75 $-1 $374 forward single #
loop $-1 $375 $376 $149 #
cone-surface $-1 -47.042130139119152 5.4071423032723978 2.1968325858173339 0.75470958851134928 0 -0.65605901945558964 0.16401475486389741 0 0.18867739712783732 1 I I -0.70710678118654746 0.70710678118654746 0.25 forward I I I I #
loop $-1 $-1 $377 $94 #
coedge $-1 $239 $239 $378 $379 reversed $150 $-1 #
face $-1 $380 $381 $57 $-1 $382 reversed single #
loop $-1 $-1 $383 $152 #
plane-surface $-1 0 -20.603973606052133 0 0 1 0 0 0 1 forward_v I I I I #
coedge $-1 $384 $385 $386 $387 forward $153 $-1 #
coedge $-1 $388 $155 $389 $390 forward $96 $-1 #
coedge $-1 $155 $388 $391 $392 forward $96 $-1 #
coedge $-1 $393 $394 $155 $247 reversed $395 $-1 #
edge $-1 $396 -20.603973606052133 $397 20.603973606052133 $246 $398 forward 7 unknown #
face $-1 $399 $400 $58 $-1 $401 reversed single #
loop $-1 $-1 $402 $156 #
plane-surface $-1 0 0 -6.2565855092080058 0 0 1 1 0 0 forward_v I I I I #
coedge $-1 $403 $404 $405 $406 reversed $157 $-1 #
coedge $-1 $407 $159 $404 $408 forward $99 $-1 #
coedge $-1 $159 $407 $409 $410 reversed $99 $-1 #
coedge $-1 $411 $405 $159 $255 forward $400 $-1 #
edge $-1 $412 4.2958652029337383 $413 12.304027336390176 $254 $414 forward 7 unknown #
face $-1 $415 $416 $59 $-1 $417 reversed single #
loop $-1 $-1 $418 $160 #
plane-surface $-1 0 24.102267389196374 -0.43251431899525516 0 0 1 1 0 0 forward_v I I I I #
coedge $-1 $419 $420 $261 $421 forward $161 $-1 #
coedge $-1 $422 $163 $423 $424 reversed $102 $-1 #
coedge $-1 $163 $422 $259 $421 reversed $102 $-1 #
coedge $-1 $425 $426 $163 $263 reversed $416 $-1 #
edge $-1 $427 -50.870693075350204 $428 50.870693075350204 $262 $429 forward 7 unknown #
face $-1 $430 $431 $60 $-1 $432 forward single #
loop $-1 $-1 $433 $164 #
plane-surface $-1 60.90753871563858 -12.595811472595695 143.80149873435735 0 1 0 0.75470958851134928 0 0.65605901945558964 forward_v I I I I #
coedge $-1 $434 $435 $436 $437 reversed $165 $-1 #
coedge $-1 $269 $167 $438 $439 reversed $105 $-1 #
coedge $-1 $167 $268 $434 $440 reversed $105 $-1 #
coedge $-1 $436 $441 $167 $271 forward $431 $-1 #
edge $-1 $442 -20.416923717530914 $443 -15.211078097203668 $270 $444 forward 7 unknown #
loop $-1 $-1 $277 $168 #
plane-surface $-1 -15.877660960730822 -9.5324645852904322 77.053144698276341 0.75470958851134928 0 0.65605901945558964 0.65605901945558964 0 -0.75470958851134928 forward_v I I I I #
loop $-1 $-1 $445 $107 #
coedge $-1 $275 $275 $276 $446 reversed $169 $-1 #
coedge $-1 $276 $276 $275 $446 forward $171 $-1 #
coedge $-1 $277 $277 $172 $278 forward $272 $-1 #
edge $-1 $447 0 $447 6.2831853071796004 $277 $448 forward 7 unknown #
loop $-1 $-1 $284 $173 #
plane-surface $-1 -15.877660960730822 -9.5324645852904322 77.053144698276341 0.75470958851134928 0 0.65605901945558964 0.65605901945558964 0 -0.75470958851134928 forward_v I I I I #
loop $-1 $-1 $449 $110 #
coedge $-1 $282 $282 $283 $450 reversed $174 $-1 #
coedge $-1 $283 $283 $282 $450 forward $176 $-1 #
coedge $-1 $284 $284 $177 $285 forward $279 $-1 #
edge $-1 $451 0 $451 6.2831853071796004 $284 $452 forward 7 unknown #
loop $-1 $-1 $291 $178 #
plane-surface $-1 -15.877660960730822 -9.5324645852904322 77.053144698276341 0.75470958851134928 0 0.65605901945558964 0.65605901945558964 0 -0.75470958851134928 forward_v I I I I #
loop $-1 $-1 $453 $113 #
coedge $-1 $289 $289 $290 $454 reversed $179 $-1 #
coedge $-1 $290 $290 $289 $454 forward $181 $-1 #
coedge $-1 $291 $291 $182 $292 forward $286 $-1 #
edge $-1 $455 0 $455 6.2831853071796004 $291 $456 forward 7 unknown #
face $-1 $457 $458 $64 $-1 $459 reversed single #
loop $-1 $-1 $460 $183 #
plane-surface $-1 60.90753871563858 0.50578728358397562 143.80149873435735 0 1 0 0.75470958851134928 0 0.65605901945558964 forward_v I I I I #
coedge $-1 $461 $462 $463 $464 reversed $184 $-1 #
coedge $-1 $298 $186 $465 $466 reversed $117 $-1 #
coedge $-1 $186 $297 $461 $467 reversed $117 $-1 #
coedge $-1 $463 $468 $186 $300 forward $469 $-1 #
edge $-1 $470 -20.416923717530914 $471 -15.211078097203668 $299 $472 forward 7 unknown #
loop $-1 $-1 $306 $187 #
plane-surface $-1 -15.877660960730822 3.5691341708892388 77.053144698276341 0.75470958851134928 0 0.65605901945558964 0.65605901945558964 0 -0.75470958851134928 forward_v I I I I #
loop $-1 $-1 $473 $119 #
coedge $-1 $304 $304 $305 $474 reversed $188 $-1 #
coedge $-1 $305 $305 $304 $474 forward $190 $-1 #
coedge $-1 $306 $306 $191 $307 forward $301 $-1 #
edge $-1 $475 0 $475 6.2831853071796004 $306 $476 forward 7 unknown #
loop $-1 $-1 $313 $192 #
plane-surface $-1 -15.877660960730822 3.5691341708892388 77.053144698276341 0.75470958851134928 0 0.65605901945558964 0.65605901945558964 0 -0.75470958851134928 forward_v I I I I #
loop $-1 $-1 $477 $122 #
coedge $-1 $311 $311 $312 $478 reversed $193 $-1 #
coedge $-1 $312 $312 $311 $478 forward $195 $-1 #
coedge $-1 $313 $313 $196 $314 forward $308 $-1 #
edge $-1 $479 0 $479 6.2831853071796004 $313 $480 forward 7 unknown #
loop $-1 $-1 $320 $197 #
plane-surface $-1 -15.877660960730822 3.5691341708892388 77.053144698276341 0.75470958851134928 0 0.65605901945558964 0.65605901945558964 0 -0.75470958851134928 forward_v I I I I #
loop $-1 $-1 $481 $125 #
coedge $-1 $318 $318 $319 $482 reversed $198 $-1 #
coedge $-1 $319 $319 $318 $482 forward $200 $-1 #
coedge $-1 $320 $320 $201 $321 forward $315 $-1 #
edge $-1 $483 0 $483 6.2831853071796004 $320 $484 forward 7 unknown #
face $-1 $485 $486 $68 $-1 $487 reversed single #
loop $-1 $-1 $488 $202 #
plane-surface $-1 -127.65589275171959 -6.469117697985169 67.016299057987951 0 -1 0 0.75470958851134928 0 -0.65605901945558964 forward_v I I I I #
coedge $-1 $489 $490 $491 $492 reversed $203 $-1 #
coedge $-1 $327 $205 $493 $494 reversed $129 $-1 #
coedge $-1 $205 $326 $489 $495 reversed $129 $-1 #
coedge $-1 $491 $496 $205 $329 forward $497 $-1 #
edge $-1 $498 12.957253300509592 $499 18.163098920836845 $328 $500 forward 7 unknown #
loop $-1 $-1 $335 $206 #
plane-surface $-1 -50.870693075350189 -9.5324645852904322 0.26794502190693947 -0.75470958851134928 0 0.65605901945558964 0.65605901945558964 0 0.75470958851134928 forward_v I I I I #
loop $-1 $-1 $501 $131 #
coedge $-1 $333 $333 $334 $502 reversed $207 $-1 #
coedge $-1 $334 $334 $333 $502 forward $209 $-1 #
coedge $-1 $335 $335 $210 $336 forward $330 $-1 #
edge $-1 $503 0 $503 6.2831853071796004 $335 $504 forward 7 unknown #
loop $-1 $-1 $342 $211 #
plane-surface $-1 -50.870693075350189 -9.5324645852904322 0.26794502190693947 -0.75470958851134928 0 0.65605901945558964 0.65605901945558964 0 0.75470958851134928 forward_v I I I I #
loop $-1 $-1 $505 $134 #
coedge $-1 $340 $340 $341 $506 reversed $212 $-1 #
coedge $-1 $341 $341 $340 $506 forward $214 $-1 #
coedge $-1 $342 $342 $215 $343 forward $337 $-1 #
edge $-1 $507 0 $507 6.2831853071796004 $342 $508 forward 7 unknown #
loop $-1 $-1 $349 $216 #
plane-surface $-1 -50.870693075350189 -9.5324645852904322 0.26794502190693947 -0.75470958851134928 0 0.65605901945558964 0.65605901945558964 0 0.75470958851134928 forward_v I I I I #
loop $-1 $-1 $509 $137 #
coedge $-1 $347 $347 $348 $510 reversed $217 $-1 #
coedge $-1 $348 $348 $347 $510 forward $219 $-1 #
coedge $-1 $349 $349 $220 $350 forward $344 $-1 #
edge $-1 $511 0 $511 6.2831853071796004 $349 $512 forward 7 unknown #
face $-1 $513 $514 $72 $-1 $515 forward single #
loop $-1 $-1 $516 $221 #
plane-surface $-1 -127.65589275171959 6.632481058194502 67.016299057987951 0 -1 0 0.75470958851134928 0 -0.65605901945558964 forward_v I I I I #
coedge $-1 $517 $518 $519 $520 reversed $222 $-1 #
coedge $-1 $356 $224 $521 $522 reversed $141 $-1 #
coedge $-1 $224 $355 $517 $523 reversed $141 $-1 #
coedge $-1 $519 $524 $224 $358 forward $514 $-1 #
edge $-1 $525 12.957253300509592 $526 18.163098920836845 $357 $527 forward 7 unknown #
loop $-1 $-1 $364 $225 #
plane-surface $-1 -50.870693075350189 3.5691341708892388 0.26794502190693947 -0.75470958851134928 0 0.65605901945558964 0.65605901945558964 0 0.75470958851134928 forward_v I I I I #
loop $-1 $-1 $528 $143 #
coedge $-1 $362 $362 $363 $529 reversed $226 $-1 #
coedge $-1 $363 $363 $362 $529 forward $228 $-1 #
coedge $-1 $364 $364 $229 $365 forward $359 $-1 #
edge $-1 $530 0 $530 6.2831853071796004 $364 $531 forward 7 unknown #
loop $-1 $-1 $371 $230 #
plane-surface $-1 -50.870693075350189 3.5691341708892388 0.26794502190693947 -0.75470958851134928 0 0.65605901945558964 0.65605901945558964 0 0.75470958851134928 forward_v I I I I #
loop $-1 $-1 $532 $146 #
coedge $-1 $369 $369 $370 $533 reversed $231 $-1 #
coedge $-1 $370 $370 $369 $533 forward $233 $-1 #
coedge $-1 $371 $371 $234 $372 forward $366 $-1 #
edge $-1 $534 0 $534 6.2831853071796004 $371 $535 forward 7 unknown #
loop $-1 $-1 $378 $235 #
plane-surface $-1 -50.870693075350189 3.5691341708892388 0.26794502190693947 -0.75470958851134928 0 0.65605901945558964 0.65605901945558964 0 0.75470958851134928 forward_v I I I I #
loop $-1 $-1 $536 $149 #
coedge $-1 $376 $376 $377 $537 reversed $236 $-1 #
coedge $-1 $377 $377 $376 $537 forward $238 $-1 #
coedge $-1 $378 $378 $239 $379 forward $373 $-1 #
edge $-1 $538 0 $538 6.2831853071796004 $378 $539 forward 7 unknown #
face $-1 $540 $541 $57 $-1 $542 reversed single #
loop $-1 $-1 $543 $240 #
plane-surface $-1 -50.870693075350204 0 0 1 0 0 0 0 -1 forward_v I I I I #
coedge $-1 $544 $391 $545 $546 forward $241 $-1 #
coedge $-1 $547 $243 $544 $548 forward $153 $-1 #
coedge $-1 $243 $547 $549 $550 forward $153 $-1 #
coedge $-1 $394 $393 $243 $387 reversed $395 $-1 #
edge $-1 $551 -20.603973606052133 $552 20.603973606052133 $386 $553 forward 7 unknown #
coedge $-1 $245 $244 $554 $555 forward $96 $-1 #
coedge $-1 $556 $557 $244 $390 reversed $541 $-1 #
edge $-1 $397 -50.870693075350204 $558 50.870693075350204 $389 $559 forward 7 unknown #
coedge $-1 $383 $560 $245 $392 reversed $241 $-1 #
edge $-1 $561 -50.870693075350204 $396 50.870693075350204 $391 $562 forward 7 unknown #
coedge $-1 $386 $246 $560 $563 forward $395 $-1 #
coedge $-1 $246 $386 $556 $564 reversed $395 $-1 #
loop $-1 $-1 $393 $540 #
vertex $-1 $247 $565 #
vertex $-1 $247 $566 #
straight-curve $-1 50.870693075350204 0 6.2565855092080058 0 1 0 I I #
face $-1 $567 $568 $58 $-1 $569 reversed single #
loop $-1 $-1 $405 $248 #
plane-surface $-1 50.870693075350204 0 0 -1 0 0 0 0 1 forward_v I I I I #
coedge $-1 $570 $571 $403 $572 forward $249 $-1 #
coedge $-1 $573 $251 $402 $572 reversed $157 $-1 #
coedge $-1 $251 $573 $252 $408 reversed $157 $-1 #
coedge $-1 $254 $574 $251 $406 forward $400 $-1 #
edge $-1 $575 -3.9155547829782833 $412 -0.76650666948115953 $405 $576 forward 7 unknown #
coedge $-1 $253 $252 $577 $578 reversed $99 $-1 #
edge $-1 $412 -50.870693075350204 $579 50.870693075350204 $404 $580 forward 7 unknown #
coedge $-1 $581 $582 $253 $410 forward $568 $-1 #
edge $-1 $413 -50.870693075350204 $583 50.870693075350204 $409 $584 forward 7 unknown #
coedge $-1 $574 $254 $582 $585 forward $400 $-1 #
vertex $-1 $255 $586 #
vertex $-1 $585 $587 #
straight-curve $-1 50.870693075350204 -8.299946269661957 -3.1075373957108812 0 -1 0 I I #
face $-1 $588 $589 $59 $-1 $590 reversed single #
loop $-1 $-1 $426 $256 #
plane-surface $-1 0 24.102267389196374 -3.6176122186839281 0 0 1 1 0 0 forward_v I I I I #
coedge $-1 $591 $592 $593 $594 forward $257 $-1 #
coedge $-1 $595 $259 $596 $597 reversed $161 $-1 #
coedge $-1 $259 $595 $425 $598 reversed $161 $-1 #
edge $-1 $427 -3.6176122186839281 $599 -0.43251431899525516 $259 $600 forward 7 unknown #
coedge $-1 $261 $260 $592 $601 forward $102 $-1 #
coedge $-1 $602 $593 $260 $424 forward $603 $-1 #
edge $-1 $604 0.43251431899525516 $428 3.6176122186839281 $423 $605 forward 7 unknown #
coedge $-1 $606 $262 $420 $598 forward $416 $-1 #
coedge $-1 $262 $606 $602 $607 forward $416 $-1 #
vertex $-1 $421 $608 #
vertex $-1 $424 $609 #
straight-curve $-1 0 20.603973606052133 -3.6176122186839281 1 0 0 I I #
face $-1 $-1 $610 $60 $-1 $611 reversed single #
loop $-1 $-1 $270 $264 #
plane-surface $-1 0 0 6.2565855092080058 0 0 1 1 0 0 forward_v I I I I #
coedge $-1 $612 $613 $614 $615 reversed $265 $-1 #
coedge $-1 $616 $267 $269 $440 forward $165 $-1 #
coedge $-1 $267 $616 $612 $617 forward $165 $-1 #
coedge $-1 $614 $270 $267 $437 forward $431 $-1 #
edge $-1 $443 1.7028854053399529 $618 7.8295791799504793 $436 $619 forward 7 unknown #
coedge $-1 $620 $621 $268 $439 forward $610 $-1 #
edge $-1 $622 -71.632804345271737 $442 -65.644163857970668 $438 $623 forward 7 unknown #
edge $-1 $443 93.806359779677976 $622 101.74138615070044 $269 $624 forward 7 unknown #
coedge $-1 $270 $614 $620 $625 forward $431 $-1 #
vertex $-1 $271 $626 #
vertex $-1 $271 $627 #
straight-curve $-1 30.45376935781929 -6.469117697985169 6.2565855092080085 -1 0 0 I I #
coedge $-1 $445 $445 $-1 $628 reversed $274 $-1 #
edge $-1 $629 0 $629 6.2831853071796004 $275 $630 forward 7 unknown #
vertex $-1 $278 $631 #
ellipse-curve $-1 48.267770265186584 -11.370472717673589 3.2622652655574669 0.75470958851134928 0 0.65605901945558964 0.32802950972779482 0 -0.37735479425567464 1 I I #
coedge $-1 $449 $449 $-1 $632 reversed $281 $-1 #
edge $-1 $633 0 $633 6.2831853071796004 $282 $634 forward 7 unknown #
vertex $-1 $285 $635 #
ellipse-curve $-1 48.267770265186584 -9.5324645852904322 3.2622652655574669 0.75470958851134928 0 0.65605901945558964 0.32802950972779482 0 -0.37735479425567464 1 I I #
coedge $-1 $453 $453 $-1 $636 reversed $288 $-1 #
edge $-1 $637 0 $637 6.2831853071796004 $289 $638 forward 7 unknown #
vertex $-1 $292 $639 #
ellipse-curve $-1 48.267770265186584 -7.694456452907275 3.2622652655574669 0.75470958851134928 0 0.65605901945558964 0.32802950972779482 0 -0.37735479425567464 1 I I #
face $-1 $-1 $469 $64 $-1 $640 forward single #
loop $-1 $-1 $641 $293 #
plane-surface $-1 50.870693075350204 0 0 -1 0 0 0 0 1 forward_v I I I I #
coedge $-1 $642 $643 $644 $645 reversed $294 $-1 #
coedge $-1 $646 $296 $298 $467 forward $184 $-1 #
coedge $-1 $296 $646 $642 $647 forward $184 $-1 #
coedge $-1 $644 $299 $296 $464 forward $469 $-1 #
edge $-1 $471 -4.8479139727498826 $648 1.2787798018606438 $463 $649 forward 7 unknown #
coedge $-1 $650 $651 $297 $466 forward $458 $-1 #
edge $-1 $652 -71.632804345271737 $470 -65.644163857970668 $465 $653 forward 7 unknown #
edge $-1 $471 93.806359779677976 $652 101.74138615070044 $298 $654 forward 7 unknown #
coedge $-1 $299 $644 $650 $655 forward $469 $-1 #
loop $-1 $-1 $644 $457 #
vertex $-1 $466 $656 #
vertex $-1 $300 $657 #
straight-curve $-1 30.45376935781929 6.632481058194502 6.2565855092080085 -1 0 0 I I #
coedge $-1 $473 $473 $-1 $658 reversed $303 $-1 #
edge $-1 $659 0 $659 6.2831853071796004 $304 $660 forward 7 unknown #
vertex $-1 $307 $661 #
ellipse-curve $-1 48.267770265186584 1.7311260385060834 3.2622652655574669 0.75470958851134928 0 0.65605901945558964 0.32802950972779482 0 -0.37735479425567464 1 I I #
coedge $-1 $477 $477 $-1 $662 reversed $310 $-1 #
edge $-1 $663 0 $663 6.2831853071796004 $311 $664 forward 7 unknown #
vertex $-1 $314 $665 #
ellipse-curve $-1 48.267770265186584 3.5691341708892388 3.2622652655574669 0.75470958851134928 0 0.65605901945558964 0.32802950972779482 0 -0.37735479425567464 1 I I #
coedge $-1 $481 $481 $-1 $666 reversed $317 $-1 #
edge $-1 $667 0 $667 6.2831853071796004 $318 $668 forward 7 unknown #
vertex $-1 $321 $669 #
ellipse-curve $-1 48.267770265186584 5.4071423032723978 3.2622652655574669 0.75470958851134928 0 0.65605901945558964 0.32802950972779482 0 -0.37735479425567464 1 I I #
face $-1 $-1 $497 $68 $-1 $670 forward single #
loop $-1 $-1 $671 $322 #
plane-surface $-1 -50.870693075350204 0 0 1 0 0 0 0 -1 forward_v I I I I #
coedge $-1 $672 $673 $674 $675 reversed $323 $-1 #
coedge $-1 $676 $325 $327 $495 forward $203 $-1 #
coedge $-1 $325 $676 $672 $677 forward $203 $-1 #
coedge $-1 $674 $328 $325 $492 forward $497 $-1 #
edge $-1 $499 -7.8295791799504793 $678 -1.7028854053399529 $491 $679 forward 7 unknown #
coedge $-1 $680 $681 $326 $494 forward $486 $-1 #
edge $-1 $682 -33.24020450708705 $498 -27.25156401978597 $493 $683 forward 7 unknown #
edge $-1 $499 -7.9350263710224604 $682 2.1640230052520235e-014 $327 $684 forward 7 unknown #
coedge $-1 $328 $674 $680 $685 forward $497 $-1 #
loop $-1 $-1 $674 $485 #
vertex $-1 $494 $686 #
vertex $-1 $329 $687 #
straight-curve $-1 -63.827946375859796 -12.595811472595695 6.2565855092080049 1 0 0 I I #
coedge $-1 $501 $501 $-1 $688 reversed $332 $-1 #
edge $-1 $689 0 $689 6.2831853071796004 $333 $690 forward 7 unknown #
vertex $-1 $336 $691 #
ellipse-curve $-1 -48.267770265186577 -11.370472717673589 3.2622652655574664 -0.75470958851134928 0 0.65605901945558964 0.32802950972779482 0 0.37735479425567464 1 I I #
coedge $-1 $505 $505 $-1 $692 reversed $339 $-1 #
edge $-1 $693 0 $693 6.2831853071796004 $340 $694 forward 7 unknown #
vertex $-1 $343 $695 #
ellipse-curve $-1 -48.267770265186577 -9.5324645852904322 3.2622652655574664 -0.75470958851134928 0 0.65605901945558964 0.32802950972779482 0 0.37735479425567464 1 I I #
coedge $-1 $509 $509 $-1 $696 reversed $346 $-1 #
edge $-1 $697 0 $697 6.2831853071796004 $347 $698 forward 7 unknown #
vertex $-1 $350 $699 #
ellipse-curve $-1 -48.267770265186577 -7.694456452907275 3.2622652655574664 -0.75470958851134928 0 0.65605901945558964 0.32802950972779482 0 0.37735479425567464 1 I I #
face $-1 $-1 $700 $72 $-1 $701 reversed single #
loop $-1 $-1 $357 $351 #
plane-surface $-1 0 0 6.2565855092080058 0 0 1 1 0 0 forward_v I I I I #
coedge $-1 $702 $703 $704 $705 reversed $352 $-1 #
coedge $-1 $706 $354 $356 $523 forward $222 $-1 #
coedge $-1 $354 $706 $702 $707 forward $222 $-1 #
coedge $-1 $704 $357 $354 $520 forward $514 $-1 #
edge $-1 $526 -1.2787798018606438 $708 4.8479139727498826 $519 $709 forward 7 unknown #
coedge $-1 $710 $711 $355 $522 forward $700 $-1 #
edge $-1 $712 -33.24020450708705 $525 -27.25156401978597 $521 $713 forward 7 unknown #
edge $-1 $526 -7.9350263710224604 $712 2.1640230052520235e-014 $356 $714 forward 7 unknown #
coedge $-1 $357 $704 $710 $715 forward $514 $-1 #
vertex $-1 $522 $716 #
vertex $-1 $358 $717 #
straight-curve $-1 -63.827946375859796 0.50578728358397562 6.2565855092080049 1 0 0 I I #
coedge $-1 $528 $528 $-1 $718 reversed $361 $-1 #
edge $-1 $719 0 $719 6.2831853071796004 $362 $720 forward 7 unknown #
vertex $-1 $365 $721 #
ellipse-curve $-1 -48.267770265186577 1.7311260385060834 3.2622652655574664 -0.75470958851134928 0 0.65605901945558964 0.32802950972779482 0 0.37735479425567464 1 I I #
coedge $-1 $532 $532 $-1 $722 reversed $368 $-1 #
edge $-1 $723 0 $723 6.2831853071796004 $369 $724 forward 7 unknown #
vertex $-1 $372 $725 #
ellipse-curve $-1 -48.267770265186577 3.5691341708892388 3.2622652655574664 -0.75470958851134928 0 0.65605901945558964 0.32802950972779482 0 0.37735479425567464 1 I I #
coedge $-1 $536 $536 $-1 $726 reversed $375 $-1 #
edge $-1 $727 0 $727 6.2831853071796004 $376 $728 forward 7 unknown #
vertex $-1 $379 $729 #
ellipse-curve $-1 -48.267770265186577 5.4071423032723978 3.2622652655574664 -0.75470958851134928 0 0.65605901945558964 0.32802950972779482 0 0.37735479425567464 1 I I #
face $-1 $-1 $395 $57 $-1 $730 reversed single #
loop $-1 $-1 $557 $380 #
plane-surface $-1 0 20.603973606052133 0 0 -1 0 0 0 -1 forward_v I I I I #
coedge $-1 $731 $554 $557 $732 forward $381 $-1 #
coedge $-1 $560 $383 $384 $548 reversed $241 $-1 #
coedge $-1 $554 $731 $383 $546 reversed $381 $-1 #
edge $-1 $561 -6.2565855092080058 $733 6.2565855092080058 $545 $734 forward 7 unknown #
coedge $-1 $385 $384 $731 $735 forward $153 $-1 #
edge $-1 $552 -50.870693075350204 $733 50.870693075350204 $544 $736 forward 7 unknown #
coedge $-1 $557 $556 $385 $550 reversed $541 $-1 #
edge $-1 $737 -50.870693075350204 $551 50.870693075350204 $549 $738 forward 7 unknown #
vertex $-1 $387 $739 #
vertex $-1 $563 $740 #
straight-curve $-1 50.870693075350204 0 -6.2565855092080058 0 -1 0 I I #
coedge $-1 $543 $545 $388 $555 reversed $381 $-1 #
edge $-1 $558 -20.603973606052133 $561 20.603973606052133 $554 $741 forward 7 unknown #
coedge $-1 $549 $389 $394 $564 forward $541 $-1 #
coedge $-1 $389 $549 $543 $732 reversed $541 $-1 #
vertex $-1 $390 $742 #
straight-curve $-1 0 20.603973606052133 6.2565855092080058 -1 0 0 I I #
coedge $-1 $391 $544 $393 $563 reversed $241 $-1 #
vertex $-1 $555 $743 #
straight-curve $-1 0 -20.603973606052133 6.2565855092080058 1 0 0 I I #
edge $-1 $396 -6.2565855092080058 $552 6.2565855092080058 $393 $744 forward 7 unknown #
edge $-1 $397 -6.2565855092080058 $551 6.2565855092080058 $394 $745 forward 7 unknown #
point $-1 50.870693075350204 -20.603973606052133 6.2565855092080058 #
point $-1 50.870693075350204 20.603973606052133 6.2565855092080058 #
face $-1 $-1 $746 $58 $-1 $747 reversed single #
loop $-1 $-1 $409 $399 #
plane-surface $-1 0 -20.603973606052133 0 0 1 0 0 0 1 forward_v I I I I #
coedge $-1 $748 $402 $574 $749 forward $249 $-1 #
coedge $-1 $402 $748 $750 $751 forward $249 $-1 #
edge $-1 $752 -50.870693075350204 $575 50.870693075350204 $402 $753 forward 7 unknown #
coedge $-1 $404 $403 $754 $755 reversed $157 $-1 #
coedge $-1 $405 $411 $570 $749 reversed $400 $-1 #
vertex $-1 $749 $756 #
straight-curve $-1 50.870693075350204 -12.595811472595695 -2.3410307262297216 0 0 1 I I #
coedge $-1 $754 $757 $407 $578 forward $746 $-1 #
edge $-1 $583 -12.304027336390176 $579 -4.2958652029337383 $577 $758 forward 7 unknown #
vertex $-1 $578 $759 #
straight-curve $-1 0 -12.595811472595695 -3.1075373957108812 -1 0 0 I I #
coedge $-1 $760 $409 $757 $761 forward $568 $-1 #
coedge $-1 $409 $760 $411 $585 reversed $568 $-1 #
vertex $-1 $761 $762 #
straight-curve $-1 0 -20.603973606052133 -3.1075373957108812 -1 0 0 I I #
edge $-1 $413 3.1075373957108812 $763 6.2565855092080058 $411 $764 forward 7 unknown #
point $-1 50.870693075350204 -12.595811472595695 -3.1075373957108812 #
point $-1 50.870693075350204 -20.603973606052133 -3.1075373957108812 #
face $-1 $-1 $603 $59 $-1 $765 reversed single #
loop $-1 $-1 $766 $415 #
plane-surface $-1 0 27.600561172340615 -2.0250632688395918 0 -1 0 0 0 -1 forward_v I I I I #
coedge $-1 $596 $418 $767 $768 forward $257 $-1 #
coedge $-1 $418 $596 $422 $601 reversed $257 $-1 #
coedge $-1 $423 $769 $418 $594 reversed $603 $-1 #
edge $-1 $604 -3.4982937831442413 $770 3.4982937831442413 $593 $771 forward 7 unknown #
coedge $-1 $420 $419 $772 $773 forward $161 $-1 #
coedge $-1 $592 $591 $419 $597 forward $257 $-1 #
edge $-1 $774 -3.4982937831442413 $599 3.4982937831442413 $419 $775 forward 7 unknown #
edge $-1 $427 -3.4982937831442413 $776 3.4982937831442413 $420 $777 forward 7 unknown #
vertex $-1 $597 $778 #
straight-curve $-1 -50.870693075350204 20.603973606052133 0 0 0 1 I I #
edge $-1 $604 -50.870693075350204 $599 50.870693075350204 $592 $779 forward 7 unknown #
coedge $-1 $769 $423 $426 $607 reversed $603 $-1 #
loop $-1 $-1 $423 $588 #
vertex $-1 $424 $780 #
straight-curve $-1 50.870693075350204 20.603973606052133 0 0 0 -1 I I #
coedge $-1 $426 $425 $781 $782 forward $416 $-1 #
edge $-1 $783 -3.4982937831442413 $428 3.4982937831442413 $602 $784 forward 7 unknown #
point $-1 -50.870693075350204 20.603973606052133 -3.6176122186839281 #
point $-1 50.870693075350204 20.603973606052133 -3.6176122186839281 #
loop $-1 $-1 $438 $430 #
plane-surface $-1 50.870693075350204 0 0 -1 0 0 0 0 1 forward_v I I I I #
coedge $-1 $613 $433 $435 $617 reversed $265 $-1 #
coedge $-1 $433 $612 $785 $786 reversed $265 $-1 #
coedge $-1 $441 $436 $433 $615 forward $431 $-1 #
edge $-1 $618 15.211078097203668 $787 20.416923717530914 $614 $788 forward 7 unknown #
coedge $-1 $435 $434 $621 $789 reversed $165 $-1 #
edge $-1 $790 -101.74138615070044 $618 -93.806359779677976 $612 $791 forward 7 unknown #
vertex $-1 $437 $792 #
straight-curve $-1 45.664847455022951 -4.7662322926452161 6.2565855092080085 0 -1 0 I I #
coedge $-1 $785 $438 $441 $625 reversed $610 $-1 #
coedge $-1 $438 $785 $616 $789 forward $610 $-1 #
vertex $-1 $439 $793 #
straight-curve $-1 50.870693075350204 -6.469117697985169 71.900749367178676 0 0 1 I I #
straight-curve $-1 -15.877660960730822 -6.469117697985169 77.053144698276341 0.65605901945558964 0 -0.75470958851134928 I I #
edge $-1 $787 -12.595811472595695 $442 -6.469117697985169 $620 $794 forward 7 unknown #
point $-1 50.870693075350204 -6.469117697985169 6.2565855092080058 #
point $-1 45.664847455022958 -6.469117697985169 6.2565855092080085 #
edge $-1 $795 1 $795 0 $445 $-1 forward 7 unknown #
vertex $-1 $446 $796 #
ellipse-curve $-1 47.230807536247006 -11.370472717673589 2.3608473406812331 0.75470958851134928 0 0.65605901945558964 0.32802950972779482 0 -0.37735479425567464 1 I I #
point $-1 48.59579977491439 -11.370472717673589 2.8849104713018008 #
edge $-1 $797 1 $797 0 $449 $-1 forward 7 unknown #
vertex $-1 $450 $798 #
ellipse-curve $-1 47.230807536247006 -9.5324645852904322 2.3608473406812331 0.75470958851134928 0 0.65605901945558964 0.32802950972779482 0 -0.37735479425567464 1 I I #
point $-1 48.59579977491439 -9.5324645852904322 2.8849104713018008 #
edge $-1 $799 1 $799 0 $453 $-1 forward 7 unknown #
vertex $-1 $454 $800 #
ellipse-curve $-1 47.230807536247006 -7.694456452907275 2.3608473406812331 0.75470958851134928 0 0.65605901945558964 0.32802950972779482 0 -0.37735479425567464 1 I I #
point $-1 48.59579977491439 -7.694456452907275 2.8849104713018008 #
plane-surface $-1 0 0 6.2565855092080058 0 0 1 1 0 0 forward_v I I I I #
coedge $-1 $651 $650 $643 $801 forward $458 $-1 #
coedge $-1 $643 $460 $462 $647 reversed $294 $-1 #
coedge $-1 $460 $642 $641 $801 reversed $294 $-1 #
coedge $-1 $468 $463 $460 $645 forward $469 $-1 #
edge $-1 $648 15.211078097203668 $802 20.416923717530914 $644 $803 forward 7 unknown #
coedge $-1 $462 $461 $651 $804 reversed $184 $-1 #
edge $-1 $805 -101.74138615070044 $648 -93.806359779677976 $642 $806 forward 7 unknown #
vertex $-1 $464 $807 #
straight-curve $-1 45.664847455022951 1.7845670854446194 6.2565855092080085 0 -1 0 I I #
coedge $-1 $641 $465 $468 $655 reversed $458 $-1 #
coedge $-1 $465 $641 $646 $804 forward $458 $-1 #
vertex $-1 $466 $808 #
straight-curve $-1 50.870693075350204 6.632481058194502 71.900749367178676 0 0 1 I I #
straight-curve $-1 -15.877660960730822 6.632481058194502 77.053144698276341 0.65605901945558964 0 -0.75470958851134928 I I #
edge $-1 $802 0.50578728358397562 $470 6.632481058194502 $650 $809 forward 7 unknown #
point $-1 50.870693075350204 6.632481058194502 6.2565855092080058 #
point $-1 45.664847455022958 6.632481058194502 6.2565855092080085 #
edge $-1 $810 1 $810 0 $473 $-1 forward 7 unknown #
vertex $-1 $474 $811 #
ellipse-curve $-1 47.230807536247006 1.7311260385060834 2.3608473406812331 0.75470958851134928 0 0.65605901945558964 0.32802950972779482 0 -0.37735479425567464 1 I I #
point $-1 48.59579977491439 1.7311260385060834 2.8849104713018008 #
edge $-1 $812 1 $812 0 $477 $-1 forward 7 unknown #
vertex $-1 $478 $813 #
ellipse-curve $-1 47.230807536247006 3.5691341708892388 2.3608473406812331 0.75470958851134928 0 0.65605901945558964 0.32802950972779482 0 -0.37735479425567464 1 I I #
point $-1 48.59579977491439 3.5691341708892388 2.8849104713018008 #
edge $-1 $814 1 $814 0 $481 $-1 forward 7 unknown #
vertex $-1 $482 $815 #
ellipse-curve $-1 47.230807536247006 5.4071423032723978 2.3608473406812331 0.75470958851134928 0 0.65605901945558964 0.32802950972779482 0 -0.37735479425567464 1 I I #
point $-1 48.59579977491439 5.4071423032723978 2.8849104713018008 #
plane-surface $-1 0 0 6.2565855092080058 0 0 1 1 0 0 forward_v I I I I #
coedge $-1 $681 $680 $673 $816 forward $486 $-1 #
coedge $-1 $673 $488 $490 $677 reversed $323 $-1 #
coedge $-1 $488 $672 $671 $816 reversed $323 $-1 #
coedge $-1 $496 $491 $488 $675 forward $497 $-1 #
edge $-1 $678 -18.163098920836845 $817 -12.957253300509592 $674 $818 forward 7 unknown #
coedge $-1 $490 $489 $681 $819 reversed $203 $-1 #
edge $-1 $820 -2.1640230052520235e-014 $678 7.9350263710224604 $672 $821 forward 7 unknown #
vertex $-1 $492 $822 #
straight-curve $-1 -45.664847455022951 -4.7662322926452161 6.2565855092080032 0 1 0 I I #
coedge $-1 $671 $493 $496 $685 reversed $486 $-1 #
coedge $-1 $493 $671 $676 $819 forward $486 $-1 #
vertex $-1 $494 $823 #
straight-curve $-1 -50.870693075350204 -12.595811472595695 33.508149528993975 0 0 1 I I #
straight-curve $-1 -50.870693075350189 -12.595811472595695 0.26794502190693947 -0.65605901945558964 0 -0.75470958851134928 I I #
edge $-1 $817 6.469117697985169 $498 12.595811472595695 $680 $824 forward 7 unknown #
point $-1 -50.870693075350204 -12.595811472595695 6.2565855092080058 #
point $-1 -45.664847455022951 -12.595811472595695 6.2565855092080058 #
edge $-1 $825 1 $825 0 $501 $-1 forward 7 unknown #
vertex $-1 $502 $826 #
ellipse-curve $-1 -47.230807536246992 -11.370472717673589 2.3608473406812314 -0.75470958851134928 0 0.65605901945558964 0.32802950972779482 0 0.37735479425567464 1 I I #
point $-1 -47.939740755458793 -11.370472717673589 3.6396200598131481 #
edge $-1 $827 1 $827 0 $505 $-1 forward 7 unknown #
vertex $-1 $506 $828 #
ellipse-curve $-1 -47.230807536246992 -9.5324645852904322 2.3608473406812314 -0.75470958851134928 0 0.65605901945558964 0.32802950972779482 0 0.37735479425567464 1 I I #
point $-1 -47.939740755458793 -9.5324645852904322 3.6396200598131481 #
edge $-1 $829 1 $829 0 $509 $-1 forward 7 unknown #
vertex $-1 $510 $830 #
ellipse-curve $-1 -47.230807536246992 -7.694456452907275 2.3608473406812314 -0.75470958851134928 0 0.65605901945558964 0.32802950972779482 0 0.37735479425567464 1 I I #
point $-1 -47.939740755458793 -7.694456452907275 3.6396200598131481 #
loop $-1 $-1 $521 $513 #
plane-surface $-1 -50.870693075350204 0 0 1 0 0 0 0 -1 forward_v I I I I #
coedge $-1 $703 $516 $518 $707 reversed $352 $-1 #
coedge $-1 $516 $702 $831 $832 reversed $352 $-1 #
coedge $-1 $524 $519 $516 $705 forward $514 $-1 #
edge $-1 $708 -18.163098920836845 $833 -12.957253300509592 $704 $834 forward 7 unknown #
coedge $-1 $518 $517 $711 $835 reversed $222 $-1 #
edge $-1 $836 -2.1640230052520235e-014 $708 7.9350263710224604 $702 $837 forward 7 unknown #
vertex $-1 $520 $838 #
straight-curve $-1 -45.664847455022951 1.7845670854446194 6.2565855092080032 0 1 0 I I #
coedge $-1 $831 $521 $524 $715 reversed $700 $-1 #
coedge $-1 $521 $831 $706 $835 forward $700 $-1 #
vertex $-1 $522 $839 #
straight-curve $-1 -50.870693075350204 0.50578728358397562 33.508149528993975 0 0 1 I I #
straight-curve $-1 -50.870693075350189 0.50578728358397562 0.26794502190693947 -0.65605901945558964 0 -0.75470958851134928 I I #
edge $-1 $833 -6.632481058194502 $525 -0.50578728358397562 $710 $840 forward 7 unknown #
point $-1 -50.870693075350204 0.50578728358397562 6.2565855092080058 #
point $-1 -45.664847455022951 0.50578728358397562 6.2565855092080058 #
edge $-1 $841 1 $841 0 $528 $-1 forward 7 unknown #
vertex $-1 $529 $842 #
ellipse-curve $-1 -47.230807536246992 1.7311260385060834 2.3608473406812314 -0.75470958851134928 0 0.65605901945558964 0.32802950972779482 0 0.37735479425567464 1 I I #
point $-1 -47.939740755458793 1.7311260385060834 3.6396200598131481 #
edge $-1 $843 1 $843 0 $532 $-1 forward 7 unknown #
vertex $-1 $533 $844 #
ellipse-curve $-1 -47.230807536246992 3.5691341708892388 2.3608473406812314 -0.75470958851134928 0 0.65605901945558964 0.32802950972779482 0 0.37735479425567464 1 I I #
point $-1 -47.939740755458793 3.5691341708892388 3.6396200598131481 #
edge $-1 $845 1 $845 0 $536 $-1 forward 7 unknown #
vertex $-1 $537 $846 #
ellipse-curve $-1 -47.230807536246992 5.4071423032723978 2.3608473406812314 -0.75470958851134928 0 0.65605901945558964 0.32802950972779482 0 0.37735479425567464 1 I I #
point $-1 -47.939740755458793 5.4071423032723978 3.6396200598131481 #
plane-surface $-1 50.870693075350204 0 0 -1 0 0 0 0 1 forward_v I I I I #
coedge $-1 $545 $543 $547 $735 reversed $381 $-1 #
edge $-1 $558 -6.2565855092080058 $737 6.2565855092080058 $557 $847 forward 7 unknown #
vertex $-1 $735 $848 #
straight-curve $-1 -50.870693075350204 -20.603973606052133 0 0 0 -1 I I #
edge $-1 $733 -20.603973606052133 $737 20.603973606052133 $731 $849 forward 7 unknown #
straight-curve $-1 0 -20.603973606052133 -6.2565855092080058 -1 0 0 I I #
vertex $-1 $550 $850 #
straight-curve $-1 0 20.603973606052133 -6.2565855092080058 1 0 0 I I #
point $-1 50.870693075350204 20.603973606052133 -6.2565855092080058 #
point $-1 50.870693075350204 -20.603973606052133 -6.2565855092080058 #
straight-curve $-1 -50.870693075350204 0 6.2565855092080058 0 -1 0 I I #
point $-1 -50.870693075350204 20.603973606052133 6.2565855092080058 #
point $-1 -50.870693075350204 -20.603973606052133 6.2565855092080058 #
straight-curve $-1 50.870693075350204 -20.603973606052133 0 0 0 -1 I I #
straight-curve $-1 50.870693075350204 20.603973606052133 0 0 0 -1 I I #
loop $-1 $-1 $754 $567 #
plane-surface $-1 -50.870693075350204 0 0 1 0 0 0 0 -1 forward_v I I I I #
coedge $-1 $571 $570 $760 $851 forward $249 $-1 #
edge $-1 $575 12.595811472595695 $763 20.603973606052133 $574 $852 forward 7 unknown #
coedge $-1 $757 $754 $571 $751 reversed $746 $-1 #
edge $-1 $853 -20.603973606052133 $752 -12.595811472595695 $750 $854 forward 7 unknown #
vertex $-1 $755 $855 #
straight-curve $-1 0 -12.595811472595695 -6.2565855092080058 1 0 0 I I #
coedge $-1 $750 $577 $573 $755 forward $746 $-1 #
edge $-1 $579 0.76650666948115953 $752 3.9155547829782833 $754 $856 forward 7 unknown #
point $-1 50.870693075350204 -12.595811472595695 -6.2565855092080049 #
coedge $-1 $577 $750 $581 $761 reversed $746 $-1 #
straight-curve $-1 -50.870693075350204 -8.299946269661957 -3.1075373957108812 0 1 0 I I #
point $-1 -50.870693075350204 -12.595811472595695 -3.1075373957108812 #
coedge $-1 $582 $581 $748 $851 reversed $568 $-1 #
edge $-1 $583 3.1075373957108812 $853 6.2565855092080058 $757 $857 forward 7 unknown #
point $-1 -50.870693075350204 -20.603973606052133 -3.1075373957108812 #
vertex $-1 $585 $858 #
straight-curve $-1 50.870693075350204 -20.603973606052133 0 0 0 -1 I I #
plane-surface $-1 50.870693075350204 0 0 -1 0 0 0 0 1 forward_v I I I I #
coedge $-1 $781 $767 $769 $859 forward $589 $-1 #
coedge $-1 $766 $772 $591 $768 reversed $589 $-1 #
edge $-1 $770 -50.870693075350204 $774 50.870693075350204 $767 $860 forward 7 unknown #
coedge $-1 $593 $602 $766 $859 reversed $603 $-1 #
vertex $-1 $594 $861 #
straight-curve $-1 50.870693075350204 24.102267389196374 -0.43251431899525516 0 1 0 I I #
coedge $-1 $767 $781 $595 $773 reversed $589 $-1 #
edge $-1 $774 -1.5925489498443366 $776 1.5925489498443364 $772 $862 forward 7 unknown #
vertex $-1 $768 $863 #
straight-curve $-1 -50.870693075350204 24.102267389196374 -0.43251431899525516 0 -1 0 I I #
vertex $-1 $782 $864 #
straight-curve $-1 -50.870693075350204 24.102267389196374 -3.6176122186839281 0 1 0 I I #
point $-1 -50.870693075350204 20.603973606052133 -0.43251431899525516 #
straight-curve $-1 0 20.603973606052133 -0.43251431899525516 -1 0 0 I I #
point $-1 50.870693075350204 20.603973606052133 -0.43251431899525516 #
coedge $-1 $772 $766 $606 $782 reversed $589 $-1 #
edge $-1 $776 -50.870693075350204 $783 50.870693075350204 $781 $865 forward 7 unknown #
vertex $-1 $607 $866 #
straight-curve $-1 50.870693075350204 24.102267389196374 -3.6176122186839281 0 -1 0 I I #
coedge $-1 $621 $620 $613 $786 forward $610 $-1 #
edge $-1 $787 65.644163857970668 $790 71.632804345271737 $785 $867 forward 7 unknown #
vertex $-1 $625 $868 #
straight-curve $-1 30.45376935781929 -12.595811472595695 6.2565855092080085 1 0 0 I I #
edge $-1 $790 -7.8295791799504793 $622 -1.7028854053399529 $621 $869 forward 7 unknown #
vertex $-1 $789 $870 #
straight-curve $-1 -15.877660960730822 -12.595811472595695 77.053144698276341 -0.65605901945558964 0 0.75470958851134928 I I #
point $-1 45.664847455022958 -12.595811472595695 6.2565855092080085 #
point $-1 50.870693075350204 -6.469117697985169 0.26794502190693947 #
straight-curve $-1 50.870693075350204 0 6.2565855092080058 0 1 0 I I #
vertex $-1 $628 $871 #
point $-1 47.558837045974798 -11.370472717673589 1.9834925464255584 #
vertex $-1 $632 $872 #
point $-1 47.558837045974798 -9.5324645852904322 1.9834925464255584 #
vertex $-1 $636 $873 #
point $-1 47.558837045974798 -7.694456452907275 1.9834925464255584 #
edge $-1 $802 65.644163857970668 $805 71.632804345271737 $641 $874 forward 7 unknown #
vertex $-1 $655 $875 #
straight-curve $-1 30.45376935781929 0.50578728358397562 6.2565855092080085 1 0 0 I I #
edge $-1 $805 -1.2787798018606438 $652 4.8479139727498826 $651 $876 forward 7 unknown #
vertex $-1 $804 $877 #
straight-curve $-1 -15.877660960730822 0.50578728358397562 77.053144698276341 -0.65605901945558964 0 0.75470958851134928 I I #
point $-1 45.664847455022958 0.50578728358397562 6.2565855092080085 #
point $-1 50.870693075350204 6.632481058194502 0.26794502190693947 #
straight-curve $-1 50.870693075350204 0 6.2565855092080058 0 1 0 I I #
vertex $-1 $658 $878 #
point $-1 47.558837045974798 1.7311260385060834 1.9834925464255584 #
vertex $-1 $662 $879 #
point $-1 47.558837045974798 3.5691341708892388 1.9834925464255584 #
vertex $-1 $666 $880 #
point $-1 47.558837045974798 5.4071423032723978 1.9834925464255584 #
edge $-1 $817 27.25156401978597 $820 33.24020450708705 $671 $881 forward 7 unknown #
vertex $-1 $685 $882 #
straight-curve $-1 -63.827946375859796 -6.469117697985169 6.2565855092080049 -1 0 0 I I #
edge $-1 $820 1.7028854053399529 $682 7.8295791799504793 $681 $883 forward 7 unknown #
vertex $-1 $819 $884 #
straight-curve $-1 -50.870693075350189 -6.469117697985169 0.26794502190693947 0.65605901945558964 0 0.75470958851134928 I I #
point $-1 -45.664847455022951 -6.469117697985169 6.2565855092080058 #
point $-1 -50.870693075350204 -12.595811472595695 0.26794502190692315 #
straight-curve $-1 -50.870693075350204 0 6.2565855092080058 0 -1 0 I I #
vertex $-1 $688 $885 #
point $-1 -46.902778026519194 -11.370472717673589 2.7382021349369059 #
vertex $-1 $692 $886 #
point $-1 -46.902778026519194 -9.5324645852904322 2.7382021349369059 #
vertex $-1 $696 $887 #
point $-1 -46.902778026519194 -7.694456452907275 2.7382021349369059 #
coedge $-1 $711 $710 $703 $832 forward $700 $-1 #
edge $-1 $833 27.25156401978597 $836 33.24020450708705 $831 $888 forward 7 unknown #
vertex $-1 $715 $889 #
straight-curve $-1 -63.827946375859796 6.632481058194502 6.2565855092080049 -1 0 0 I I #
edge $-1 $836 -4.8479139727498826 $712 1.2787798018606438 $711 $890 forward 7 unknown #
vertex $-1 $835 $891 #
straight-curve $-1 -50.870693075350189 6.632481058194502 0.26794502190693947 0.65605901945558964 0 0.75470958851134928 I I #
point $-1 -45.664847455022951 6.632481058194502 6.2565855092080058 #
point $-1 -50.870693075350204 0.50578728358397562 0.26794502190692315 #
straight-curve $-1 -50.870693075350204 0 6.2565855092080058 0 -1 0 I I #
vertex $-1 $718 $892 #
point $-1 -46.902778026519194 1.7311260385060834 2.7382021349369059 #
vertex $-1 $722 $893 #
point $-1 -46.902778026519194 3.5691341708892388 2.7382021349369059 #
vertex $-1 $726 $894 #
point $-1 -46.902778026519194 5.4071423032723978 2.7382021349369059 #
straight-curve $-1 -50.870693075350204 20.603973606052133 0 0 0 -1 I I #
point $-1 -50.870693075350204 -20.603973606052133 -6.2565855092080058 #
straight-curve $-1 -50.870693075350204 0 -6.2565855092080058 0 1 0 I I #
point $-1 -50.870693075350204 20.603973606052133 -6.2565855092080058 #
edge $-1 $763 -50.870693075350204 $853 50.870693075350204 $760 $895 forward 7 unknown #
straight-curve $-1 50.870693075350204 0 -6.2565855092080058 0 -1 0 I I #
vertex $-1 $751 $896 #
straight-curve $-1 -50.870693075350204 0 -6.2565855092080058 0 1 0 I I #
point $-1 -50.870693075350204 -12.595811472595695 -6.2565855092080049 #
straight-curve $-1 -50.870693075350204 -12.595811472595695 -2.3410307262297216 0 0 -1 I I #
straight-curve $-1 -50.870693075350204 -20.603973606052133 0 0 0 -1 I I #
point $-1 50.870693075350204 -20.603973606052133 -6.2565855092080058 #
edge $-1 $770 -1.5925489498443366 $783 1.5925489498443364 $769 $897 forward 7 unknown #
straight-curve $-1 0 27.600561172340615 -0.43251431899525516 -1 0 0 I I #
point $-1 50.870693075350204 27.600561172340615 -0.43251431899525516 #
straight-curve $-1 -50.870693075350204 27.600561172340615 -2.0250632688395918 0 0 -1 I I #
point $-1 -50.870693075350204 27.600561172340615 -0.43251431899525516 #
point $-1 -50.870693075350204 27.600561172340615 -3.6176122186839281 #
straight-curve $-1 0 27.600561172340615 -3.6176122186839281 1 0 0 I I #
point $-1 50.870693075350204 27.600561172340615 -3.6176122186839281 #
straight-curve $-1 50.870693075350204 -12.595811472595695 71.900749367178676 0 0 -1 I I #
point $-1 50.870693075350204 -12.595811472595695 6.2565855092080058 #
straight-curve $-1 50.870693075350204 -4.7662322926452161 0.26794502190693947 0 1 0 I I #
point $-1 50.870693075350204 -12.595811472595695 0.26794502190693947 #
point $-1 46.853452741991326 -11.370472717673589 2.0328178309534382 #
point $-1 46.853452741991326 -9.5324645852904322 2.0328178309534382 #
point $-1 46.853452741991326 -7.694456452907275 2.0328178309534382 #
straight-curve $-1 50.870693075350204 0.50578728358397562 71.900749367178676 0 0 -1 I I #
point $-1 50.870693075350204 0.50578728358397562 6.2565855092080058 #
straight-curve $-1 50.870693075350204 1.7845670854446194 0.26794502190693947 0 1 0 I I #
point $-1 50.870693075350204 0.50578728358397562 0.26794502190693947 #
point $-1 46.853452741991326 1.7311260385060834 2.0328178309534382 #
point $-1 46.853452741991326 3.5691341708892388 2.0328178309534382 #
point $-1 46.853452741991326 5.4071423032723978 2.0328178309534382 #
straight-curve $-1 -50.870693075350204 -6.469117697985169 33.508149528993975 0 0 -1 I I #
point $-1 -50.870693075350204 -6.469117697985169 6.2565855092080058 #
straight-curve $-1 -50.870693075350204 -4.7662322926452161 0.26794502190692315 0 -1 0 I I #
point $-1 -50.870693075350204 -6.469117697985169 0.26794502190692315 #
point $-1 -46.853452741991312 -11.370472717673589 2.0328178309534364 #
point $-1 -46.853452741991312 -9.5324645852904322 2.0328178309534364 #
point $-1 -46.853452741991312 -7.694456452907275 2.0328178309534364 #
straight-curve $-1 -50.870693075350204 6.632481058194502 33.508149528993975 0 0 -1 I I #
point $-1 -50.870693075350204 6.632481058194502 6.2565855092080058 #
straight-curve $-1 -50.870693075350204 1.7845670854446194 0.26794502190692315 0 -1 0 I I #
point $-1 -50.870693075350204 6.632481058194502 0.26794502190692315 #
point $-1 -46.853452741991312 1.7311260385060834 2.0328178309534364 #
point $-1 -46.853452741991312 3.5691341708892388 2.0328178309534364 #
point $-1 -46.853452741991312 5.4071423032723978 2.0328178309534364 #
straight-curve $-1 0 -20.603973606052133 -6.2565855092080058 -1 0 0 I I #
point $-1 -50.870693075350204 -20.603973606052133 -6.2565855092080058 #
straight-curve $-1 50.870693075350204 27.600561172340615 -2.0250632688395918 0 0 -1 I I #
End-of-ACIS-data 