500 0 8 0           
7 Unknown 11 ACIS 5.0 NT 24 Fri Mar 26 17:03:29 1999 
-1 9.9999999999999995e-007 1e-010 
body $-1 $8 $-1 $9 #
body $-1 $10 $-1 $11 #
body $-1 $12 $-1 $13 #
body $-1 $14 $-1 $15 #
body $-1 $16 $-1 $17 #
body $-1 $18 $-1 $19 #
body $-1 $20 $-1 $21 #
body $-1 $22 $-1 $23 #
lump $-1 $-1 $24 $0 #
transform $-1 1 0 0 0 1 0 0 0 1 75.73839533677176 41.447742657563715 14.546744753448547 1 rotate no_reflect no_shear #
lump $-1 $-1 $25 $1 #
transform $-1 1 0 0 0 1 0 0 0 1 75.73839533677176 41.447742657563715 14.546744753448547 1 rotate no_reflect no_shear #
lump $-1 $-1 $26 $2 #
transform $-1 1 0 0 0 1 0 0 0 1 75.73839533677176 41.447742657563715 14.546744753448547 1 rotate no_reflect no_shear #
lump $-1 $-1 $27 $3 #
transform $-1 1 0 0 0 1 0 0 0 1 75.73839533677176 41.447742657563715 14.546744753448547 1 rotate no_reflect no_shear #
lump $-1 $-1 $28 $4 #
transform $-1 1 0 0 0 1 0 0 0 1 75.73839533677176 41.447742657563715 14.546744753448547 1 rotate no_reflect no_shear #
lump $-1 $-1 $29 $5 #
transform $-1 1 0 0 0 1 0 0 0 1 75.73839533677176 41.447742657563715 14.546744753448547 1 rotate no_reflect no_shear #
lump $-1 $-1 $30 $6 #
transform $-1 1 0 0 0 1 0 0 0 1 75.73839533677176 41.447742657563715 14.546744753448547 1 rotate no_reflect no_shear #
lump $-1 $-1 $31 $7 #
transform $-1 1 0 0 0 1 0 0 0 1 75.73839533677176 41.447742657563715 14.546744753448547 1 rotate no_reflect no_shear #
shell $-1 $-1 $-1 $32 $-1 $8 #
shell $-1 $-1 $-1 $33 $-1 $10 #
shell $-1 $-1 $-1 $34 $-1 $12 #
shell $-1 $-1 $-1 $35 $-1 $14 #
shell $-1 $-1 $-1 $36 $-1 $16 #
shell $-1 $-1 $-1 $37 $-1 $18 #
shell $-1 $-1 $-1 $38 $-1 $20 #
shell $-1 $-1 $-1 $39 $-1 $22 #
face $-1 $40 $41 $24 $-1 $42 forward single #
face $-1 $43 $44 $25 $-1 $45 forward single #
face $-1 $46 $47 $26 $-1 $48 reversed single #
face $-1 $49 $50 $27 $-1 $51 forward single #
face $-1 $52 $53 $28 $-1 $54 reversed single #
face $-1 $55 $56 $29 $-1 $57 forward single #
face $-1 $58 $59 $30 $-1 $60 reversed single #
face $-1 $61 $62 $31 $-1 $63 forward single #
face $-1 $64 $65 $24 $-1 $66 reversed single #
loop $-1 $-1 $67 $32 #
plane-surface $-1 0 0 14.546744753448547 0 0 1 1 0 0 forward_v I I I I #
face $-1 $68 $69 $25 $-1 $70 reversed single #
loop $-1 $-1 $71 $33 #
plane-surface $-1 0 -31.900950298992697 -6.9956847994885791 0 0 1 1 0 0 forward_v I I I I #
face $-1 $72 $73 $26 $-1 $74 reversed single #
loop $-1 $-1 $75 $34 #
plane-surface $-1 -191.77635034897011 17.567892530455403 100.0920778478074 0 1 0 -0.7660444514056185 0 0.64278759981090561 forward_v I I I I #
face $-1 $76 $77 $27 $-1 $78 forward single #
loop $-1 $79 $80 $35 #
cone-surface $-1 -68.607663711724413 23.475025192558682 6.8142054136483194 0.7660444514056185 0 -0.64278759981090561 0.96418139971635841 0 1.1490666771084277 1 I I 0 1 1.5 forward I I I I #
face $-1 $81 $82 $28 $-1 $83 reversed single #
loop $-1 $-1 $84 $36 #
plane-surface $-1 127.56303561735032 -0.67899871412712365 213.65618626541124 0 -1 0 -0.85716730853699208 0 -0.51503806187062418 forward_v I I I I #
face $-1 $85 $86 $29 $-1 $87 forward single #
loop $-1 $88 $89 $37 #
cone-surface $-1 69.360258686152392 -5.7754400918903386 7.9195902809286904 -0.85716730853699208 0 -0.51503806187062418 1.2875951546765605 0 -2.1429182713424804 1 I I 0 1 2.5 forward I I I I #
face $-1 $90 $91 $30 $-1 $92 reversed single #
loop $-1 $-1 $93 $38 #
plane-surface $-1 127.56303561735032 29.965466186795595 213.65618626541124 0 -1 0 -0.85716730853699208 0 -0.51503806187062418 forward_v I I I I #
face $-1 $94 $95 $31 $-1 $96 forward single #
loop $-1 $97 $98 $39 #
cone-surface $-1 69.360258686152392 24.869024809032375 7.9195902809286904 -0.85716730853699208 0 -0.51503806187062418 1.2875951546765605 0 -2.1429182713424804 1 I I 0 1 2.5 forward I I I I #
face $-1 $99 $100 $24 $-1 $101 reversed single #
loop $-1 $-1 $102 $40 #
plane-surface $-1 0 0 -14.546744753448547 0 0 1 1 0 0 forward_v I I I I #
coedge $-1 $103 $104 $105 $106 forward $41 $-1 #
face $-1 $107 $108 $25 $-1 $109 reversed single #
loop $-1 $-1 $110 $43 #
plane-surface $-1 0 -22.354157940421679 -10.771214776468563 0 -1 0 0 0 -1 forward_v I I I I #
coedge $-1 $111 $112 $113 $114 reversed $44 $-1 #
face $-1 $115 $116 $26 $-1 $117 reversed single #
loop $-1 $-1 $118 $46 #
plane-surface $-1 -75.73839533677176 23.475025192558682 2.7246751437013899 -0.7660444514056185 0 0.64278759981090561 0.64278759981090561 0 0.7660444514056185 forward_v I I I I #
coedge $-1 $119 $120 $121 $122 reversed $47 $-1 #
face $-1 $-1 $123 $27 $-1 $124 forward single #
loop $-1 $125 $126 $49 #
cone-surface $-1 -65.862345742910961 23.475025192558682 4.5106101788634803 0.7660444514056185 0 -0.64278759981090561 0.48209069985817921 0 0.57453333855421385 1 I I -0.70710678118654757 0.70710678118654757 0.75 forward I I I I #
loop $-1 $-1 $127 $35 #
coedge $-1 $80 $80 $128 $129 reversed $50 $-1 #
face $-1 $130 $131 $28 $-1 $132 reversed single #
loop $-1 $-1 $133 $52 #
plane-surface $-1 -2.2779173501123182 -5.7754400918903315 135.63987357852716 0.85716730853699208 0 0.51503806187062418 0.51503806187062418 0 -0.85716730853699208 forward_v I I I I #
coedge $-1 $134 $135 $136 $137 reversed $53 $-1 #
face $-1 $-1 $138 $29 $-1 $139 forward single #
loop $-1 $140 $141 $55 #
cone-surface $-1 64.538774323971268 -5.7754400918903386 5.0225503022625908 -0.85716730853699208 0 -0.51503806187062418 0.64379757733828025 0 -1.0714591356712402 1 I I -0.70710678118654746 0.70710678118654746 1.25 forward I I I I #
loop $-1 $-1 $142 $37 #
coedge $-1 $89 $89 $143 $144 reversed $56 $-1 #
face $-1 $145 $146 $30 $-1 $147 reversed single #
loop $-1 $-1 $148 $58 #
plane-surface $-1 -2.2779173501123182 24.869024809032389 135.63987357852716 0.85716730853699208 0 0.51503806187062418 0.51503806187062418 0 -0.85716730853699208 forward_v I I I I #
coedge $-1 $149 $150 $151 $152 reversed $59 $-1 #
face $-1 $-1 $153 $31 $-1 $154 forward single #
loop $-1 $155 $156 $61 #
cone-surface $-1 64.538774323971268 24.869024809032375 5.0225503022625908 -0.85716730853699208 0 -0.51503806187062418 0.64379757733828025 0 -1.0714591356712402 1 I I -0.70710678118654746 0.70710678118654746 1.25 forward I I I I #
loop $-1 $-1 $157 $39 #
coedge $-1 $98 $98 $158 $159 reversed $62 $-1 #
face $-1 $160 $161 $24 $-1 $162 reversed single #
loop $-1 $-1 $163 $64 #
plane-surface $-1 0 -41.447742657563715 0 0 1 0 0 0 1 forward_v I I I I #
coedge $-1 $164 $165 $166 $167 forward $65 $-1 #
coedge $-1 $168 $67 $169 $170 forward $41 $-1 #
coedge $-1 $67 $168 $171 $172 forward $41 $-1 #
coedge $-1 $173 $174 $67 $106 reversed $175 $-1 #
edge $-1 $176 -41.447742657563715 $177 41.447742657563715 $105 $178 forward 7 unknown #
face $-1 $179 $180 $25 $-1 $181 reversed single #
loop $-1 $-1 $182 $68 #
plane-surface $-1 0 0 -14.546744753448547 0 0 1 1 0 0 forward_v I I I I #
coedge $-1 $183 $184 $185 $186 reversed $69 $-1 #
coedge $-1 $187 $71 $184 $188 forward $44 $-1 #
coedge $-1 $71 $187 $189 $190 reversed $44 $-1 #
coedge $-1 $191 $185 $71 $114 forward $180 $-1 #
edge $-1 $192 6.4036827909253304 $193 25.497267508067367 $113 $194 forward 7 unknown #
face $-1 $195 $196 $26 $-1 $197 forward single #
loop $-1 $-1 $198 $72 #
plane-surface $-1 -191.77635034897011 29.382157854661962 100.0920778478074 0 -1 0 0.7660444514056185 0 -0.64278759981090561 forward_v I I I I #
coedge $-1 $199 $200 $201 $202 reversed $73 $-1 #
coedge $-1 $120 $75 $203 $204 reversed $47 $-1 #
coedge $-1 $75 $119 $199 $205 reversed $47 $-1 #
coedge $-1 $201 $206 $75 $122 forward $196 $-1 #
edge $-1 $207 20.149779837713297 $208 30.069673827289535 $121 $209 forward 7 unknown #
loop $-1 $-1 $128 $76 #
plane-surface $-1 -75.73839533677176 23.475025192558682 2.7246751437013899 -0.7660444514056185 0 0.64278759981090561 0.64278759981090561 0 0.7660444514056185 forward_v I I I I #
loop $-1 $-1 $210 $49 #
coedge $-1 $126 $126 $127 $211 reversed $77 $-1 #
coedge $-1 $127 $127 $126 $211 forward $79 $-1 #
coedge $-1 $128 $128 $80 $129 forward $123 $-1 #
edge $-1 $212 0 $212 6.2831853071796004 $128 $213 forward 7 unknown #
face $-1 $214 $215 $28 $-1 $216 reversed single #
loop $-1 $-1 $217 $81 #
plane-surface $-1 127.56303561735032 -10.871881469653539 213.65618626541124 0 1 0 0.85716730853699208 0 0.51503806187062418 forward_v I I I I #
coedge $-1 $218 $219 $220 $221 reversed $82 $-1 #
coedge $-1 $135 $84 $222 $223 reversed $53 $-1 #
coedge $-1 $84 $134 $218 $224 reversed $53 $-1 #
coedge $-1 $220 $225 $84 $137 forward $226 $-1 #
edge $-1 $227 -11.956877528096598 $228 -6.7006546798776014 $136 $229 forward 7 unknown #
loop $-1 $-1 $143 $85 #
plane-surface $-1 -2.2779173501123182 -5.7754400918903315 135.63987357852716 0.85716730853699208 0 0.51503806187062418 0.51503806187062418 0 -0.85716730853699208 forward_v I I I I #
loop $-1 $-1 $230 $55 #
coedge $-1 $141 $141 $142 $231 reversed $86 $-1 #
coedge $-1 $142 $142 $141 $231 forward $88 $-1 #
coedge $-1 $143 $143 $89 $144 forward $138 $-1 #
edge $-1 $232 0 $232 6.2831853071796004 $143 $233 forward 7 unknown #
face $-1 $234 $235 $30 $-1 $236 reversed single #
loop $-1 $-1 $237 $90 #
plane-surface $-1 127.56303561735032 19.772583431269183 213.65618626541124 0 1 0 0.85716730853699208 0 0.51503806187062418 forward_v I I I I #
coedge $-1 $238 $239 $240 $241 reversed $91 $-1 #
coedge $-1 $150 $93 $242 $243 reversed $59 $-1 #
coedge $-1 $93 $149 $238 $244 reversed $59 $-1 #
coedge $-1 $240 $245 $93 $152 forward $246 $-1 #
edge $-1 $247 -11.956877528096598 $248 -6.7006546798776014 $151 $249 forward 7 unknown #
loop $-1 $-1 $158 $94 #
plane-surface $-1 -2.2779173501123182 24.869024809032389 135.63987357852716 0.85716730853699208 0 0.51503806187062418 0.51503806187062418 0 -0.85716730853699208 forward_v I I I I #
loop $-1 $-1 $250 $61 #
coedge $-1 $156 $156 $157 $251 reversed $95 $-1 #
coedge $-1 $157 $157 $156 $251 forward $97 $-1 #
coedge $-1 $158 $158 $98 $159 forward $153 $-1 #
edge $-1 $252 0 $252 6.2831853071796004 $158 $253 forward 7 unknown #
face $-1 $254 $255 $24 $-1 $256 reversed single #
loop $-1 $-1 $257 $99 #
plane-surface $-1 -75.73839533677176 0 0 1 0 0 0 0 -1 forward_v I I I I #
coedge $-1 $258 $171 $259 $260 forward $100 $-1 #
coedge $-1 $261 $102 $258 $262 forward $65 $-1 #
coedge $-1 $102 $261 $263 $264 forward $65 $-1 #
coedge $-1 $174 $173 $102 $167 reversed $175 $-1 #
edge $-1 $265 -41.447742657563715 $266 41.447742657563715 $166 $267 forward 7 unknown #
coedge $-1 $104 $103 $268 $269 forward $41 $-1 #
coedge $-1 $270 $271 $103 $170 reversed $255 $-1 #
edge $-1 $177 -75.73839533677176 $272 75.73839533677176 $169 $273 forward 7 unknown #
coedge $-1 $163 $274 $104 $172 reversed $100 $-1 #
edge $-1 $275 -75.73839533677176 $176 75.73839533677176 $171 $276 forward 7 unknown #
coedge $-1 $166 $105 $274 $277 forward $175 $-1 #
coedge $-1 $105 $166 $270 $278 reversed $175 $-1 #
loop $-1 $-1 $173 $254 #
vertex $-1 $106 $279 #
vertex $-1 $106 $280 #
straight-curve $-1 75.73839533677176 0 14.546744753448547 0 1 0 I I #
face $-1 $281 $282 $25 $-1 $283 reversed single #
loop $-1 $-1 $185 $107 #
plane-surface $-1 75.73839533677176 0 0 -1 0 0 0 0 1 forward_v I I I I #
coedge $-1 $284 $285 $183 $286 forward $108 $-1 #
coedge $-1 $287 $110 $182 $286 reversed $69 $-1 #
coedge $-1 $110 $287 $111 $188 reversed $69 $-1 #
coedge $-1 $113 $288 $110 $186 forward $180 $-1 #
edge $-1 $289 -9.161137365214266 $192 -1.6100774112542977 $185 $290 forward 7 unknown #
coedge $-1 $112 $111 $291 $292 reversed $44 $-1 #
edge $-1 $192 -75.73839533677176 $293 75.73839533677176 $184 $294 forward 7 unknown #
coedge $-1 $295 $296 $112 $190 forward $282 $-1 #
edge $-1 $193 -75.73839533677176 $297 75.73839533677176 $189 $298 forward 7 unknown #
coedge $-1 $288 $113 $296 $299 forward $180 $-1 #
vertex $-1 $114 $300 #
vertex $-1 $299 $301 #
straight-curve $-1 75.73839533677176 -15.950475149496349 -6.9956847994885791 0 -1 0 I I #
face $-1 $-1 $302 $26 $-1 $303 reversed single #
loop $-1 $-1 $121 $115 #
plane-surface $-1 0 0 14.546744753448547 0 0 1 1 0 0 forward_v I I I I #
coedge $-1 $304 $305 $306 $307 reversed $116 $-1 #
coedge $-1 $308 $118 $120 $205 forward $73 $-1 #
coedge $-1 $118 $308 $304 $309 forward $73 $-1 #
coedge $-1 $306 $121 $118 $202 forward $196 $-1 #
edge $-1 $208 5.8303799341760616 $310 17.644645258382621 $201 $311 forward 7 unknown #
coedge $-1 $312 $313 $119 $204 forward $302 $-1 #
edge $-1 $314 -47.321363780202311 $207 -35.499294170455158 $203 $315 forward 7 unknown #
edge $-1 $208 -15.432615676616138 $314 0 $120 $316 forward 7 unknown #
coedge $-1 $121 $306 $312 $317 forward $196 $-1 #
vertex $-1 $204 $318 #
vertex $-1 $122 $319 #
straight-curve $-1 -95.888175174485056 17.567892530455403 14.54674475344855 1 0 0 I I #
coedge $-1 $210 $210 $-1 $320 reversed $125 $-1 #
edge $-1 $321 0 $321 6.2831853071796004 $126 $322 forward 7 unknown #
vertex $-1 $129 $323 #
ellipse-curve $-1 -70.778448341983633 23.475025192558682 8.63570994857497 -0.7660444514056185 0 0.64278759981090561 0.96418139971635841 0 1.1490666771084277 1 I I #
face $-1 $-1 $226 $28 $-1 $324 forward single #
loop $-1 $-1 $325 $130 #
plane-surface $-1 75.73839533677176 0 0 -1 0 0 0 0 1 forward_v I I I I #
coedge $-1 $326 $327 $328 $329 reversed $131 $-1 #
coedge $-1 $330 $133 $135 $224 forward $82 $-1 #
coedge $-1 $133 $330 $326 $331 forward $82 $-1 #
coedge $-1 $328 $136 $133 $221 forward $226 $-1 #
edge $-1 $228 -2.2087213318180421 $332 7.9841614237083736 $220 $333 forward 7 unknown #
coedge $-1 $334 $335 $134 $223 forward $215 $-1 #
edge $-1 $336 -101.02917252164107 $227 -92.281348379257068 $222 $337 forward 7 unknown #
edge $-1 $228 141.27128696935446 $336 151.47679067354352 $135 $338 forward 7 unknown #
coedge $-1 $136 $328 $334 $339 forward $226 $-1 #
loop $-1 $-1 $328 $214 #
vertex $-1 $223 $340 #
vertex $-1 $137 $341 #
straight-curve $-1 63.781517808675162 -0.67899871412712365 14.54674475344855 -1 0 0 I I #
coedge $-1 $230 $230 $-1 $342 reversed $140 $-1 #
edge $-1 $343 0 $343 6.2831853071796004 $141 $344 forward 7 unknown #
vertex $-1 $144 $345 #
ellipse-curve $-1 73.110283912662283 -5.7754400918903386 10.172832682256516 0.85716730853699208 0 0.51503806187062418 1.2875951546765605 0 -2.1429182713424804 1 I I #
face $-1 $-1 $246 $30 $-1 $346 forward single #
loop $-1 $-1 $347 $145 #
plane-surface $-1 75.73839533677176 0 0 -1 0 0 0 0 1 forward_v I I I I #
coedge $-1 $348 $349 $350 $351 reversed $146 $-1 #
coedge $-1 $352 $148 $150 $244 forward $91 $-1 #
coedge $-1 $148 $352 $348 $353 forward $91 $-1 #
coedge $-1 $350 $151 $148 $241 forward $246 $-1 #
edge $-1 $248 -17.530953782279401 $354 -7.3380710267529885 $240 $355 forward 7 unknown #
coedge $-1 $356 $357 $149 $243 forward $235 $-1 #
edge $-1 $358 -101.02917252164107 $247 -92.281348379257068 $242 $359 forward 7 unknown #
edge $-1 $248 141.27128696935446 $358 151.47679067354352 $150 $360 forward 7 unknown #
coedge $-1 $151 $350 $356 $361 forward $246 $-1 #
loop $-1 $-1 $350 $234 #
vertex $-1 $243 $362 #
vertex $-1 $152 $363 #
straight-curve $-1 63.781517808675162 29.965466186795595 14.54674475344855 -1 0 0 I I #
coedge $-1 $250 $250 $-1 $364 reversed $155 $-1 #
edge $-1 $365 0 $365 6.2831853071796004 $156 $366 forward 7 unknown #
vertex $-1 $159 $367 #
ellipse-curve $-1 73.110283912662283 24.869024809032375 10.172832682256516 0.85716730853699208 0 0.51503806187062418 1.2875951546765605 0 -2.1429182713424804 1 I I #
face $-1 $-1 $175 $24 $-1 $368 reversed single #
loop $-1 $-1 $270 $160 #
plane-surface $-1 0 41.447742657563715 0 0 -1 0 0 0 -1 forward_v I I I I #
coedge $-1 $369 $268 $271 $370 forward $161 $-1 #
coedge $-1 $274 $163 $164 $262 reversed $100 $-1 #
coedge $-1 $268 $369 $163 $260 reversed $161 $-1 #
edge $-1 $275 -14.546744753448547 $371 14.546744753448547 $259 $372 forward 7 unknown #
coedge $-1 $165 $164 $369 $373 forward $65 $-1 #
edge $-1 $266 -75.73839533677176 $371 75.73839533677176 $258 $374 forward 7 unknown #
coedge $-1 $271 $270 $165 $264 reversed $255 $-1 #
edge $-1 $375 -75.73839533677176 $265 75.73839533677176 $263 $376 forward 7 unknown #
vertex $-1 $167 $377 #
vertex $-1 $277 $378 #
straight-curve $-1 75.73839533677176 0 -14.546744753448547 0 -1 0 I I #
coedge $-1 $257 $259 $168 $269 reversed $161 $-1 #
edge $-1 $272 -41.447742657563715 $275 41.447742657563715 $268 $379 forward 7 unknown #
coedge $-1 $263 $169 $174 $278 forward $255 $-1 #
coedge $-1 $169 $263 $257 $370 reversed $255 $-1 #
vertex $-1 $170 $380 #
straight-curve $-1 0 41.447742657563715 14.546744753448547 -1 0 0 I I #
coedge $-1 $171 $258 $173 $277 reversed $100 $-1 #
vertex $-1 $269 $381 #
straight-curve $-1 0 -41.447742657563715 14.546744753448547 1 0 0 I I #
edge $-1 $176 -14.546744753448547 $266 14.546744753448547 $173 $382 forward 7 unknown #
edge $-1 $177 -14.546744753448547 $265 14.546744753448547 $174 $383 forward 7 unknown #
point $-1 75.73839533677176 -41.447742657563715 14.546744753448547 #
point $-1 75.73839533677176 41.447742657563715 14.546744753448547 #
face $-1 $-1 $384 $25 $-1 $385 reversed single #
loop $-1 $-1 $189 $179 #
plane-surface $-1 0 -41.447742657563715 0 0 1 0 0 0 1 forward_v I I I I #
coedge $-1 $386 $182 $288 $387 forward $108 $-1 #
coedge $-1 $182 $386 $388 $389 forward $108 $-1 #
edge $-1 $390 -75.73839533677176 $289 75.73839533677176 $182 $391 forward 7 unknown #
coedge $-1 $184 $183 $392 $393 reversed $69 $-1 #
coedge $-1 $185 $191 $284 $387 reversed $180 $-1 #
vertex $-1 $387 $394 #
straight-curve $-1 75.73839533677176 -22.354157940421679 -5.3856073882342814 0 0 1 I I #
coedge $-1 $392 $395 $187 $292 forward $384 $-1 #
edge $-1 $297 -25.497267508067367 $293 -6.4036827909253304 $291 $396 forward 7 unknown #
vertex $-1 $292 $397 #
straight-curve $-1 0 -22.354157940421679 -6.9956847994885791 -1 0 0 I I #
coedge $-1 $398 $189 $395 $399 forward $282 $-1 #
coedge $-1 $189 $398 $191 $299 reversed $282 $-1 #
vertex $-1 $399 $400 #
straight-curve $-1 0 -41.447742657563715 -6.9956847994885791 -1 0 0 I I #
edge $-1 $193 6.9956847994885791 $401 14.546744753448547 $191 $402 forward 7 unknown #
point $-1 75.73839533677176 -22.354157940421679 -6.9956847994885791 #
point $-1 75.73839533677176 -41.447742657563715 -6.9956847994885791 #
loop $-1 $-1 $203 $195 #
plane-surface $-1 -75.73839533677176 0 0 1 0 0 0 0 -1 forward_v I I I I #
coedge $-1 $305 $198 $200 $309 reversed $116 $-1 #
coedge $-1 $198 $304 $403 $404 reversed $116 $-1 #
coedge $-1 $206 $201 $198 $307 forward $196 $-1 #
edge $-1 $310 -30.069673827289535 $405 -20.149779837713297 $306 $406 forward 7 unknown #
coedge $-1 $200 $199 $313 $407 reversed $73 $-1 #
edge $-1 $408 0 $310 15.432615676616138 $304 $409 forward 7 unknown #
vertex $-1 $202 $410 #
straight-curve $-1 -65.818501347195522 11.737512596279341 14.546744753448547 0 1 0 I I #
coedge $-1 $403 $203 $206 $317 reversed $302 $-1 #
coedge $-1 $203 $403 $308 $407 forward $302 $-1 #
vertex $-1 $204 $411 #
straight-curve $-1 -75.73839533677176 17.567892530455403 50.046038923903701 0 0 1 I I #
straight-curve $-1 -75.73839533677176 17.567892530455403 2.7246751437013899 -0.64278759981090561 0 -0.7660444514056185 I I #
edge $-1 $405 -29.382157854661962 $207 -17.567892530455403 $312 $412 forward 7 unknown #
point $-1 -75.73839533677176 17.567892530455403 14.546744753448547 #
point $-1 -65.818501347195522 17.567892530455403 14.546744753448547 #
edge $-1 $413 1 $413 0 $210 $-1 forward 7 unknown #
vertex $-1 $211 $414 #
ellipse-curve $-1 -66.436879081465179 23.475025192558682 4.9927008787216591 -0.7660444514056185 0 0.64278759981090561 0.96418139971635841 0 1.1490666771084277 1 I I #
point $-1 -69.814266942267295 23.475025192558682 9.7847766256834063 #
plane-surface $-1 0 0 14.546744753448547 0 0 1 1 0 0 forward_v I I I I #
coedge $-1 $335 $334 $327 $415 forward $215 $-1 #
coedge $-1 $327 $217 $219 $331 reversed $131 $-1 #
coedge $-1 $217 $326 $325 $415 reversed $131 $-1 #
coedge $-1 $225 $220 $217 $329 forward $226 $-1 #
edge $-1 $332 6.7006546798776014 $416 11.956877528096598 $328 $417 forward 7 unknown #
coedge $-1 $219 $218 $335 $418 reversed $82 $-1 #
edge $-1 $419 -151.47679067354352 $332 -141.27128696935446 $326 $420 forward 7 unknown #
vertex $-1 $221 $421 #
straight-curve $-1 70.482172488552763 -2.8877200459451657 14.54674475344855 0 -1 0 I I #
coedge $-1 $325 $222 $225 $339 reversed $215 $-1 #
coedge $-1 $222 $325 $330 $418 forward $215 $-1 #
vertex $-1 $223 $422 #
straight-curve $-1 75.73839533677176 -0.67899871412712365 106.82809313270562 0 0 1 I I #
straight-curve $-1 -2.2779173501123182 -0.67899871412712365 135.63987357852716 0.51503806187062418 0 -0.85716730853699208 I I #
edge $-1 $416 -10.871881469653539 $227 -0.67899871412712365 $334 $423 forward 7 unknown #
point $-1 75.73839533677176 -0.67899871412712365 14.546744753448547 #
point $-1 70.482172488552763 -0.67899871412712365 14.546744753448564 #
edge $-1 $424 1 $424 0 $230 $-1 forward 7 unknown #
vertex $-1 $231 $425 #
ellipse-curve $-1 65.610233459642501 -5.7754400918903386 5.6663478796008713 0.85716730853699208 0 0.51503806187062418 1.2875951546765605 0 -2.1429182713424804 1 I I #
point $-1 74.39787906733882 -5.7754400918903386 8.0299144109140297 #
plane-surface $-1 0 0 14.546744753448547 0 0 1 1 0 0 forward_v I I I I #
coedge $-1 $357 $356 $349 $426 forward $235 $-1 #
coedge $-1 $349 $237 $239 $353 reversed $146 $-1 #
coedge $-1 $237 $348 $347 $426 reversed $146 $-1 #
coedge $-1 $245 $240 $237 $351 forward $246 $-1 #
edge $-1 $354 6.7006546798776014 $427 11.956877528096598 $350 $428 forward 7 unknown #
coedge $-1 $239 $238 $357 $429 reversed $91 $-1 #
edge $-1 $430 -151.47679067354352 $354 -141.27128696935446 $348 $431 forward 7 unknown #
vertex $-1 $241 $432 #
straight-curve $-1 70.482172488552763 12.434512404516195 14.54674475344855 0 -1 0 I I #
coedge $-1 $347 $242 $245 $361 reversed $235 $-1 #
coedge $-1 $242 $347 $352 $429 forward $235 $-1 #
vertex $-1 $243 $433 #
straight-curve $-1 75.73839533677176 29.965466186795595 106.82809313270562 0 0 1 I I #
straight-curve $-1 -2.2779173501123182 29.965466186795595 135.63987357852716 0.51503806187062418 0 -0.85716730853699208 I I #
edge $-1 $427 19.772583431269183 $247 29.965466186795595 $356 $434 forward 7 unknown #
point $-1 75.73839533677176 29.965466186795595 14.546744753448547 #
point $-1 70.482172488552763 29.965466186795595 14.546744753448564 #
edge $-1 $435 1 $435 0 $250 $-1 forward 7 unknown #
vertex $-1 $251 $436 #
ellipse-curve $-1 65.610233459642501 24.869024809032375 5.6663478796008713 0.85716730853699208 0 0.51503806187062418 1.2875951546765605 0 -2.1429182713424804 1 I I #
point $-1 74.39787906733882 24.869024809032375 8.0299144109140297 #
plane-surface $-1 75.73839533677176 0 0 -1 0 0 0 0 1 forward_v I I I I #
coedge $-1 $259 $257 $261 $373 reversed $161 $-1 #
edge $-1 $272 -14.546744753448547 $375 14.546744753448547 $271 $437 forward 7 unknown #
vertex $-1 $373 $438 #
straight-curve $-1 -75.73839533677176 -41.447742657563715 0 0 0 -1 I I #
edge $-1 $371 -41.447742657563715 $375 41.447742657563715 $369 $439 forward 7 unknown #
straight-curve $-1 0 -41.447742657563715 -14.546744753448547 -1 0 0 I I #
vertex $-1 $264 $440 #
straight-curve $-1 0 41.447742657563715 -14.546744753448547 1 0 0 I I #
point $-1 75.73839533677176 41.447742657563715 -14.546744753448547 #
point $-1 75.73839533677176 -41.447742657563715 -14.546744753448547 #
straight-curve $-1 -75.73839533677176 0 14.546744753448547 0 -1 0 I I #
point $-1 -75.73839533677176 41.447742657563715 14.546744753448547 #
point $-1 -75.73839533677176 -41.447742657563715 14.546744753448547 #
straight-curve $-1 75.73839533677176 -41.447742657563715 0 0 0 -1 I I #
straight-curve $-1 75.73839533677176 41.447742657563715 0 0 0 -1 I I #
loop $-1 $-1 $392 $281 #
plane-surface $-1 -75.73839533677176 0 0 1 0 0 0 0 -1 forward_v I I I I #
coedge $-1 $285 $284 $398 $441 forward $108 $-1 #
edge $-1 $289 22.354157940421679 $401 41.447742657563715 $288 $442 forward 7 unknown #
coedge $-1 $395 $392 $285 $389 reversed $384 $-1 #
edge $-1 $443 -41.447742657563715 $390 -22.354157940421679 $388 $444 forward 7 unknown #
vertex $-1 $393 $445 #
straight-curve $-1 0 -22.354157940421679 -14.546744753448547 1 0 0 I I #
coedge $-1 $388 $291 $287 $393 forward $384 $-1 #
edge $-1 $293 1.6100774112542977 $390 9.161137365214266 $392 $446 forward 7 unknown #
point $-1 75.73839533677176 -22.354157940421679 -14.546744753448547 #
coedge $-1 $291 $388 $295 $399 reversed $384 $-1 #
straight-curve $-1 -75.73839533677176 -15.950475149496349 -6.9956847994885791 0 1 0 I I #
point $-1 -75.73839533677176 -22.354157940421679 -6.9956847994885791 #
coedge $-1 $296 $295 $386 $441 reversed $282 $-1 #
edge $-1 $297 6.9956847994885791 $443 14.546744753448547 $395 $447 forward 7 unknown #
point $-1 -75.73839533677176 -41.447742657563715 -6.9956847994885791 #
vertex $-1 $299 $448 #
straight-curve $-1 75.73839533677176 -41.447742657563715 0 0 0 -1 I I #
coedge $-1 $313 $312 $305 $404 forward $302 $-1 #
edge $-1 $405 35.499294170455158 $408 47.321363780202311 $403 $449 forward 7 unknown #
vertex $-1 $317 $450 #
straight-curve $-1 -95.888175174485056 29.382157854661962 14.54674475344855 -1 0 0 I I #
edge $-1 $408 -17.644645258382621 $314 -5.8303799341760616 $313 $451 forward 7 unknown #
vertex $-1 $407 $452 #
straight-curve $-1 -75.73839533677176 29.382157854661962 2.7246751437013899 0.64278759981090561 0 0.7660444514056185 I I #
point $-1 -65.818501347195522 29.382157854661962 14.546744753448547 #
point $-1 -75.73839533677176 17.567892530455403 2.7246751437013899 #
straight-curve $-1 -75.73839533677176 0 14.546744753448547 0 -1 0 I I #
vertex $-1 $320 $453 #
point $-1 -65.472697681748812 23.475025192558682 6.1417675558300875 #
edge $-1 $416 92.281348379257068 $419 101.02917252164107 $325 $454 forward 7 unknown #
vertex $-1 $339 $455 #
straight-curve $-1 63.781517808675162 -10.871881469653539 14.54674475344855 1 0 0 I I #
edge $-1 $419 -7.9841614237083736 $336 2.2087213318180421 $335 $456 forward 7 unknown #
vertex $-1 $418 $457 #
straight-curve $-1 -2.2779173501123182 -10.871881469653539 135.63987357852716 -0.51503806187062418 0 0.85716730853699208 I I #
point $-1 70.482172488552763 -10.871881469653539 14.546744753448564 #
point $-1 75.73839533677176 -0.67899871412712365 5.7989206110645455 #
straight-curve $-1 75.73839533677176 0 14.546744753448547 0 1 0 I I #
vertex $-1 $342 $458 #
point $-1 66.897828614319067 -5.7754400918903386 3.5234296082583905 #
edge $-1 $427 92.281348379257068 $430 101.02917252164107 $347 $459 forward 7 unknown #
vertex $-1 $361 $460 #
straight-curve $-1 63.781517808675162 19.772583431269183 14.54674475344855 1 0 0 I I #
edge $-1 $430 7.3380710267529885 $358 17.530953782279401 $357 $461 forward 7 unknown #
vertex $-1 $429 $462 #
straight-curve $-1 -2.2779173501123182 19.772583431269183 135.63987357852716 -0.51503806187062418 0 0.85716730853699208 I I #
point $-1 70.482172488552763 19.772583431269183 14.546744753448564 #
point $-1 75.73839533677176 29.965466186795595 5.7989206110645455 #
straight-curve $-1 75.73839533677176 0 14.546744753448547 0 1 0 I I #
vertex $-1 $364 $463 #
point $-1 66.897828614319067 24.869024809032375 3.5234296082583905 #
straight-curve $-1 -75.73839533677176 41.447742657563715 0 0 0 -1 I I #
point $-1 -75.73839533677176 -41.447742657563715 -14.546744753448547 #
straight-curve $-1 -75.73839533677176 0 -14.546744753448547 0 1 0 I I #
point $-1 -75.73839533677176 41.447742657563715 -14.546744753448547 #
edge $-1 $401 -75.73839533677176 $443 75.73839533677176 $398 $464 forward 7 unknown #
straight-curve $-1 75.73839533677176 0 -14.546744753448547 0 -1 0 I I #
vertex $-1 $389 $465 #
straight-curve $-1 -75.73839533677176 0 -14.546744753448547 0 1 0 I I #
point $-1 -75.73839533677176 -22.354157940421679 -14.546744753448547 #
straight-curve $-1 -75.73839533677176 -22.354157940421679 -5.3856073882342814 0 0 -1 I I #
straight-curve $-1 -75.73839533677176 -41.447742657563715 0 0 0 -1 I I #
point $-1 75.73839533677176 -41.447742657563715 -14.546744753448547 #
straight-curve $-1 -75.73839533677176 29.382157854661962 50.046038923903701 0 0 -1 I I #
point $-1 -75.73839533677176 29.382157854661962 14.546744753448547 #
straight-curve $-1 -75.73839533677176 11.737512596279341 2.7246751437013952 0 -1 0 I I #
point $-1 -75.73839533677176 29.382157854661962 2.7246751437013899 #
point $-1 -65.287812404356742 23.475025192558682 4.0285194790053014 #
straight-curve $-1 75.73839533677176 -10.871881469653539 106.82809313270562 0 0 -1 I I #
point $-1 75.73839533677176 -10.871881469653539 14.546744753448547 #
straight-curve $-1 75.73839533677176 -2.8877200459451657 5.7989206110645384 0 1 0 I I #
point $-1 75.73839533677176 -10.871881469653539 5.7989206110645455 #
point $-1 63.467315188300027 -5.7754400918903386 4.3787527249243103 #
straight-curve $-1 75.73839533677176 19.772583431269183 106.82809313270562 0 0 -1 I I #
point $-1 75.73839533677176 19.772583431269183 14.546744753448547 #
straight-curve $-1 75.73839533677176 12.434512404516195 5.7989206110645384 0 1 0 I I #
point $-1 75.73839533677176 19.772583431269183 5.7989206110645455 #
point $-1 63.467315188300027 24.869024809032375 4.3787527249243103 #
straight-curve $-1 0 -41.447742657563715 -14.546744753448547 -1 0 0 I I #
point $-1 -75.73839533677176 -41.447742657563715 -14.546744753448547 #
End-of-ACIS-data 