500 0 8 0           
7 Unknown 11 ACIS 5.0 NT 24 Thu Mar 25 17:40:04 1999 
-1 9.9999999999999995e-007 1e-010 
body $-1 $8 $-1 $9 #
body $-1 $10 $-1 $11 #
body $-1 $12 $-1 $13 #
body $-1 $14 $-1 $15 #
body $-1 $16 $-1 $17 #
body $-1 $18 $-1 $19 #
body $-1 $20 $-1 $21 #
body $-1 $22 $-1 $23 #
lump $-1 $-1 $24 $0 #
transform $-1 1 0 0 0 1 0 0 0 1 67.379985961485644 28.678700345221092 6.959838408923555 1 rotate no_reflect no_shear #
lump $-1 $-1 $25 $1 #
transform $-1 1 0 0 0 1 0 0 0 1 67.379985961485644 28.678700345221092 6.959838408923555 1 rotate no_reflect no_shear #
lump $-1 $-1 $26 $2 #
transform $-1 1 0 0 0 1 0 0 0 1 67.379985961485644 28.678700345221092 6.959838408923555 1 rotate no_reflect no_shear #
lump $-1 $-1 $27 $3 #
transform $-1 1 0 0 0 1 0 0 0 1 67.379985961485644 28.678700345221092 6.959838408923555 1 rotate no_reflect no_shear #
lump $-1 $-1 $28 $4 #
transform $-1 1 0 0 0 1 0 0 0 1 67.379985961485644 28.678700345221092 6.959838408923555 1 rotate no_reflect no_shear #
lump $-1 $-1 $29 $5 #
transform $-1 1 0 0 0 1 0 0 0 1 67.379985961485644 28.678700345221092 6.959838408923555 1 rotate no_reflect no_shear #
lump $-1 $-1 $30 $6 #
transform $-1 1 0 0 0 1 0 0 0 1 67.379985961485644 28.678700345221092 6.959838408923555 1 rotate no_reflect no_shear #
lump $-1 $-1 $31 $7 #
transform $-1 1 0 0 0 1 0 0 0 1 67.379985961485644 28.678700345221092 6.959838408923555 1 rotate no_reflect no_shear #
shell $-1 $-1 $-1 $32 $-1 $8 #
shell $-1 $-1 $-1 $33 $-1 $10 #
shell $-1 $-1 $-1 $34 $-1 $12 #
shell $-1 $-1 $-1 $35 $-1 $14 #
shell $-1 $-1 $-1 $36 $-1 $16 #
shell $-1 $-1 $-1 $37 $-1 $18 #
shell $-1 $-1 $-1 $38 $-1 $20 #
shell $-1 $-1 $-1 $39 $-1 $22 #
face $-1 $40 $41 $24 $-1 $42 forward single #
face $-1 $43 $44 $25 $-1 $45 forward single #
face $-1 $46 $47 $26 $-1 $48 reversed single #
face $-1 $49 $50 $27 $-1 $51 forward single #
face $-1 $52 $53 $28 $-1 $54 forward single #
face $-1 $55 $56 $29 $-1 $57 reversed single #
face $-1 $58 $59 $30 $-1 $60 forward single #
face $-1 $61 $62 $31 $-1 $63 forward single #
face $-1 $64 $65 $24 $-1 $66 reversed single #
loop $-1 $-1 $67 $32 #
plane-surface $-1 0 0 6.959838408923555 0 0 1 1 0 0 forward_v I I I I #
face $-1 $68 $69 $25 $-1 $70 reversed single #
loop $-1 $-1 $71 $33 #
plane-surface $-1 0 -28.678700345221092 0 0 1 0 0 0 1 forward_v I I I I #
face $-1 $72 $73 $26 $-1 $74 reversed single #
loop $-1 $-1 $75 $34 #
plane-surface $-1 -154.00202725994959 16.659759685009849 104.21692008767981 0 1 0 -0.64278761758704617 0 0.76604443648966558 forward_v I I I I #
face $-1 $76 $77 $27 $-1 $78 forward single #
loop $-1 $79 $80 $35 #
cone-surface $-1 -61.984275518220898 20.093742730784488 1.785066950915799 0.64278761758704617 0 -0.76604443648966558 1.1490666547344983 0 0.96418142638056925 1 I I 0 1 1.5 forward I I I I #
face $-1 $81 $82 $28 $-1 $83 forward single #
loop $-1 $84 $85 $36 #
cone-surface $-1 -61.984275518220898 25.244717299446446 1.785066950915799 0.64278761758704617 0 -0.76604443648966558 1.1490666547344983 0 0.96418142638056925 1 I I 0 1 1.5 forward I I I I #
face $-1 $86 $87 $29 $-1 $88 reversed single #
loop $-1 $-1 $89 $37 #
plane-surface $-1 50.769900506853887 16.659759685009849 190.83896138614375 0 1 0 0.64278761758704617 0 0.76604443648966558 forward_v I I I I #
face $-1 $90 $91 $30 $-1 $92 forward single #
loop $-1 $93 $94 $38 #
cone-surface $-1 61.984275518220898 20.093742730784488 1.7850669509157937 -0.64278761758704617 0 -0.76604443648966558 1.1490666547344983 0 -0.96418142638056925 1 I I 0 1 1.5 forward I I I I #
face $-1 $95 $96 $31 $-1 $97 forward single #
loop $-1 $98 $99 $39 #
cone-surface $-1 61.984275518220898 25.244717299446446 1.7850669509157937 -0.64278761758704617 0 -0.76604443648966558 1.1490666547344983 0 -0.96418142638056925 1 I I 0 1 1.5 forward I I I I #
face $-1 $100 $101 $24 $-1 $102 reversed single #
loop $-1 $-1 $103 $40 #
plane-surface $-1 0 0 -6.959838408923555 0 0 1 1 0 0 forward_v I I I I #
coedge $-1 $104 $105 $106 $107 forward $41 $-1 #
face $-1 $108 $109 $25 $-1 $110 forward single #
loop $-1 $-1 $111 $43 #
plane-surface $-1 -67.379985961485644 0 0 1 0 0 0 0 -1 forward_v I I I I #
coedge $-1 $112 $113 $114 $115 forward $44 $-1 #
face $-1 $116 $117 $26 $-1 $118 forward single #
loop $-1 $-1 $119 $46 #
plane-surface $-1 -67.379985961485644 22.66923001511547 0.98479333458411134 -0.64278761758704617 0 0.76604443648966558 0.76604443648966558 0 0.64278761758704617 forward_v I I I I #
coedge $-1 $120 $121 $122 $123 reversed $47 $-1 #
face $-1 $-1 $124 $27 $-1 $125 forward single #
loop $-1 $126 $127 $49 #
cone-surface $-1 -59.666865003821812 20.093742730784488 -0.97671529728949213 0.64278761758704617 0 -0.76604443648966558 0.57453332736724916 0 0.48209071319028463 1 I I -0.70710678118654757 0.70710678118654757 0.75 forward I I I I #
loop $-1 $-1 $128 $35 #
coedge $-1 $80 $80 $129 $130 reversed $50 $-1 #
face $-1 $-1 $131 $28 $-1 $132 forward single #
loop $-1 $133 $134 $52 #
cone-surface $-1 -59.666865003821812 25.244717299446446 -0.97671529728949213 0.64278761758704617 0 -0.76604443648966558 0.57453332736724916 0 0.48209071319028463 1 I I -0.70710678118654757 0.70710678118654757 0.75 forward I I I I #
loop $-1 $-1 $135 $36 #
coedge $-1 $85 $85 $136 $137 reversed $53 $-1 #
face $-1 $138 $139 $29 $-1 $140 reversed single #
loop $-1 $-1 $141 $55 #
plane-surface $-1 -35.852140791610054 22.66923001511547 87.606834633048052 0.64278761758704617 0 0.76604443648966558 0.76604443648966558 0 -0.64278761758704617 forward_v I I I I #
coedge $-1 $142 $143 $144 $145 reversed $56 $-1 #
face $-1 $-1 $146 $30 $-1 $147 forward single #
loop $-1 $148 $149 $58 #
cone-surface $-1 59.666865003821812 20.093742730784488 -0.97671529728949746 -0.64278761758704617 0 -0.76604443648966558 0.57453332736724916 0 -0.48209071319028463 1 I I -0.70710678118654757 0.70710678118654757 0.75 forward I I I I #
loop $-1 $-1 $150 $38 #
coedge $-1 $94 $94 $151 $152 reversed $59 $-1 #
face $-1 $-1 $153 $31 $-1 $154 forward single #
loop $-1 $155 $156 $61 #
cone-surface $-1 59.666865003821812 25.244717299446446 -0.97671529728949746 -0.64278761758704617 0 -0.76604443648966558 0.57453332736724916 0 -0.48209071319028463 1 I I -0.70710678118654757 0.70710678118654757 0.75 forward I I I I #
loop $-1 $-1 $157 $39 #
coedge $-1 $99 $99 $158 $159 reversed $62 $-1 #
face $-1 $160 $161 $24 $-1 $162 reversed single #
loop $-1 $-1 $163 $64 #
plane-surface $-1 0 -28.678700345221092 0 0 1 0 0 0 1 forward_v I I I I #
coedge $-1 $164 $165 $166 $167 forward $65 $-1 #
coedge $-1 $168 $67 $169 $170 forward $41 $-1 #
coedge $-1 $67 $168 $171 $172 forward $41 $-1 #
coedge $-1 $173 $174 $67 $107 reversed $175 $-1 #
edge $-1 $176 -28.678700345221092 $177 28.678700345221092 $106 $178 forward 7 unknown #
face $-1 $179 $180 $25 $-1 $181 reversed single #
loop $-1 $-1 $182 $68 #
plane-surface $-1 0 -33.206796660053314 3.9063566991103191 0 0 1 1 0 0 forward_v I I I I #
coedge $-1 $183 $184 $113 $185 forward $69 $-1 #
coedge $-1 $186 $71 $187 $188 reversed $44 $-1 #
coedge $-1 $71 $186 $111 $185 reversed $44 $-1 #
coedge $-1 $189 $182 $71 $115 reversed $109 $-1 #
edge $-1 $190 -67.379985961485644 $191 67.379985961485644 $114 $192 forward 7 unknown #
face $-1 $193 $194 $26 $-1 $195 reversed single #
loop $-1 $-1 $122 $72 #
plane-surface $-1 0 0 6.959838408923555 0 0 1 1 0 0 forward_v I I I I #
coedge $-1 $196 $197 $198 $199 reversed $73 $-1 #
coedge $-1 $121 $75 $200 $201 reversed $47 $-1 #
coedge $-1 $75 $120 $196 $202 reversed $47 $-1 #
coedge $-1 $198 $203 $75 $123 forward $117 $-1 #
edge $-1 $204 9.6210276684891483 $205 16.741808952601041 $122 $206 forward 7 unknown #
loop $-1 $-1 $129 $76 #
plane-surface $-1 -67.379985961485644 22.66923001511547 0.98479333458411134 -0.64278761758704617 0 0.76604443648966558 0.76604443648966558 0 0.64278761758704617 forward_v I I I I #
loop $-1 $-1 $207 $49 #
coedge $-1 $127 $127 $128 $208 reversed $77 $-1 #
coedge $-1 $128 $128 $127 $208 forward $79 $-1 #
coedge $-1 $129 $129 $80 $130 forward $124 $-1 #
edge $-1 $209 0 $209 6.2831853071796004 $129 $210 forward 7 unknown #
loop $-1 $-1 $136 $81 #
plane-surface $-1 -67.379985961485644 22.66923001511547 0.98479333458411134 -0.64278761758704617 0 0.76604443648966558 0.76604443648966558 0 0.64278761758704617 forward_v I I I I #
loop $-1 $-1 $211 $52 #
coedge $-1 $134 $134 $135 $212 reversed $82 $-1 #
coedge $-1 $135 $135 $134 $212 forward $84 $-1 #
coedge $-1 $136 $136 $85 $137 forward $131 $-1 #
edge $-1 $213 0 $213 6.2831853071796004 $136 $214 forward 7 unknown #
face $-1 $215 $216 $29 $-1 $217 forward single #
loop $-1 $-1 $144 $86 #
plane-surface $-1 67.379985961485644 0 0 -1 0 0 0 0 1 forward_v I I I I #
coedge $-1 $218 $219 $220 $221 reversed $87 $-1 #
coedge $-1 $143 $89 $222 $223 reversed $56 $-1 #
coedge $-1 $89 $142 $218 $224 reversed $56 $-1 #
coedge $-1 $220 $225 $89 $145 forward $139 $-1 #
edge $-1 $226 88.459642284148316 $227 94.434687358487764 $144 $228 forward 7 unknown #
loop $-1 $-1 $151 $90 #
plane-surface $-1 -35.852140791610054 22.66923001511547 87.606834633048052 0.64278761758704617 0 0.76604443648966558 0.76604443648966558 0 -0.64278761758704617 forward_v I I I I #
loop $-1 $-1 $229 $58 #
coedge $-1 $149 $149 $150 $230 reversed $91 $-1 #
coedge $-1 $150 $150 $149 $230 forward $93 $-1 #
coedge $-1 $151 $151 $94 $152 forward $146 $-1 #
edge $-1 $231 0 $231 6.2831853071796004 $151 $232 forward 7 unknown #
loop $-1 $-1 $158 $95 #
plane-surface $-1 -35.852140791610054 22.66923001511547 87.606834633048052 0.64278761758704617 0 0.76604443648966558 0.76604443648966558 0 -0.64278761758704617 forward_v I I I I #
loop $-1 $-1 $233 $61 #
coedge $-1 $156 $156 $157 $234 reversed $96 $-1 #
coedge $-1 $157 $157 $156 $234 forward $98 $-1 #
coedge $-1 $158 $158 $99 $159 forward $153 $-1 #
edge $-1 $235 0 $235 6.2831853071796004 $158 $236 forward 7 unknown #
face $-1 $237 $238 $24 $-1 $239 reversed single #
loop $-1 $-1 $240 $100 #
plane-surface $-1 -67.379985961485644 0 0 1 0 0 0 0 -1 forward_v I I I I #
coedge $-1 $241 $171 $242 $243 forward $101 $-1 #
coedge $-1 $244 $103 $241 $245 forward $65 $-1 #
coedge $-1 $103 $244 $246 $247 forward $65 $-1 #
coedge $-1 $174 $173 $103 $167 reversed $175 $-1 #
edge $-1 $248 -28.678700345221092 $249 28.678700345221092 $166 $250 forward 7 unknown #
coedge $-1 $105 $104 $251 $252 forward $41 $-1 #
coedge $-1 $253 $254 $104 $170 reversed $238 $-1 #
edge $-1 $177 -67.379985961485644 $255 67.379985961485644 $169 $256 forward 7 unknown #
coedge $-1 $163 $257 $105 $172 reversed $101 $-1 #
edge $-1 $258 -67.379985961485644 $176 67.379985961485644 $171 $259 forward 7 unknown #
coedge $-1 $166 $106 $257 $260 forward $175 $-1 #
coedge $-1 $106 $166 $253 $261 reversed $175 $-1 #
loop $-1 $-1 $173 $237 #
vertex $-1 $107 $262 #
vertex $-1 $107 $263 #
straight-curve $-1 67.379985961485644 0 6.959838408923555 0 1 0 I I #
face $-1 $264 $265 $25 $-1 $266 reversed single #
loop $-1 $-1 $267 $108 #
plane-surface $-1 0 -33.206796660053314 0.22756372828985283 0 0 1 1 0 0 forward_v I I I I #
coedge $-1 $114 $268 $269 $270 forward $109 $-1 #
coedge $-1 $271 $111 $272 $273 reversed $69 $-1 #
coedge $-1 $111 $271 $189 $274 reversed $69 $-1 #
edge $-1 $190 -3.9063566991103191 $275 -0.22756372828985283 $111 $276 forward 7 unknown #
coedge $-1 $113 $112 $277 $278 forward $44 $-1 #
coedge $-1 $269 $279 $112 $188 forward $280 $-1 #
edge $-1 $281 0.22756372828985283 $191 3.9063566991103191 $187 $282 forward 7 unknown #
coedge $-1 $268 $114 $184 $274 forward $109 $-1 #
vertex $-1 $185 $283 #
vertex $-1 $270 $284 #
straight-curve $-1 0 -28.678700345221092 3.9063566991103191 1 0 0 I I #
face $-1 $-1 $285 $26 $-1 $286 reversed single #
loop $-1 $-1 $287 $116 #
plane-surface $-1 0 28.678700345221092 0 0 -1 0 0 0 -1 forward_v I I I I #
coedge $-1 $288 $119 $121 $202 forward $73 $-1 #
coedge $-1 $119 $288 $287 $289 reversed $73 $-1 #
coedge $-1 $290 $122 $119 $199 forward $117 $-1 #
edge $-1 $205 5.3251446774521138 $291 17.344085337663358 $198 $292 forward 7 unknown #
coedge $-1 $293 $294 $120 $201 forward $285 $-1 #
edge $-1 $295 -51.123666709255794 $204 -45.148621634916353 $200 $296 forward 7 unknown #
edge $-1 $205 -9.2955198744635172 $295 0 $121 $297 forward 7 unknown #
coedge $-1 $122 $290 $293 $298 forward $117 $-1 #
vertex $-1 $201 $299 #
vertex $-1 $123 $300 #
straight-curve $-1 -77.001013629974793 16.659759685009849 6.9598384089235523 1 0 0 I I #
coedge $-1 $207 $207 $-1 $301 reversed $126 $-1 #
edge $-1 $302 0 $302 6.2831853071796004 $127 $303 forward 7 unknown #
vertex $-1 $130 $304 #
ellipse-curve $-1 -63.819595319429695 20.093742730784488 3.9723158717538349 -0.64278761758704617 0 0.76604443648966558 1.1490666547344983 0 0.96418142638056925 1 I I #
coedge $-1 $211 $211 $-1 $305 reversed $133 $-1 #
edge $-1 $306 0 $306 6.2831853071796004 $134 $307 forward 7 unknown #
vertex $-1 $137 $308 #
ellipse-curve $-1 -63.819595319429695 25.244717299446446 3.9723158717538349 -0.64278761758704617 0 0.76604443648966558 1.1490666547344983 0 0.96418142638056925 1 I I #
face $-1 $-1 $309 $29 $-1 $310 reversed single #
loop $-1 $-1 $222 $138 #
plane-surface $-1 0 0 6.959838408923555 0 0 1 1 0 0 forward_v I I I I #
coedge $-1 $311 $141 $143 $224 forward $87 $-1 #
coedge $-1 $141 $311 $312 $313 reversed $87 $-1 #
coedge $-1 $314 $144 $141 $221 forward $139 $-1 #
edge $-1 $227 5.3251446774521138 $315 17.344085337663358 $220 $316 forward 7 unknown #
coedge $-1 $317 $318 $142 $223 forward $216 $-1 #
edge $-1 $319 34.874254423946788 $226 41.995035708058701 $222 $320 forward 7 unknown #
edge $-1 $227 -134.75997192297129 $319 -125.46445204850775 $143 $321 forward 7 unknown #
coedge $-1 $144 $314 $317 $322 reversed $139 $-1 #
vertex $-1 $322 $323 #
vertex $-1 $145 $324 #
straight-curve $-1 67.379985961485644 16.659759685009849 95.419480693071876 0 0 -1 I I #
coedge $-1 $229 $229 $-1 $325 reversed $148 $-1 #
edge $-1 $326 0 $326 6.2831853071796004 $149 $327 forward 7 unknown #
vertex $-1 $152 $328 #
ellipse-curve $-1 63.819595319429702 20.093742730784488 3.9723158717538336 0.64278761758704617 0 0.76604443648966558 1.1490666547344983 0 -0.96418142638056925 1 I I #
coedge $-1 $233 $233 $-1 $329 reversed $155 $-1 #
edge $-1 $330 0 $330 6.2831853071796004 $156 $331 forward 7 unknown #
vertex $-1 $159 $332 #
ellipse-curve $-1 63.819595319429702 25.244717299446446 3.9723158717538336 0.64278761758704617 0 0.76604443648966558 1.1490666547344983 0 -0.96418142638056925 1 I I #
face $-1 $-1 $175 $24 $-1 $333 reversed single #
loop $-1 $-1 $253 $160 #
plane-surface $-1 0 28.678700345221092 0 0 -1 0 0 0 -1 forward_v I I I I #
coedge $-1 $334 $251 $254 $335 forward $161 $-1 #
coedge $-1 $257 $163 $164 $245 reversed $101 $-1 #
coedge $-1 $251 $334 $163 $243 reversed $161 $-1 #
edge $-1 $258 -6.959838408923555 $336 6.959838408923555 $242 $337 forward 7 unknown #
coedge $-1 $165 $164 $334 $338 forward $65 $-1 #
edge $-1 $249 -67.379985961485644 $336 67.379985961485644 $241 $339 forward 7 unknown #
coedge $-1 $254 $253 $165 $247 reversed $238 $-1 #
edge $-1 $340 -67.379985961485644 $248 67.379985961485644 $246 $341 forward 7 unknown #
vertex $-1 $167 $342 #
vertex $-1 $260 $343 #
straight-curve $-1 67.379985961485644 0 -6.959838408923555 0 -1 0 I I #
coedge $-1 $240 $242 $168 $252 reversed $161 $-1 #
edge $-1 $255 -28.678700345221092 $258 28.678700345221092 $251 $344 forward 7 unknown #
coedge $-1 $246 $169 $174 $261 forward $238 $-1 #
coedge $-1 $169 $246 $240 $335 reversed $238 $-1 #
vertex $-1 $170 $345 #
straight-curve $-1 0 28.678700345221092 6.959838408923555 -1 0 0 I I #
coedge $-1 $171 $241 $173 $260 reversed $101 $-1 #
vertex $-1 $252 $346 #
straight-curve $-1 0 -28.678700345221092 6.959838408923555 1 0 0 I I #
edge $-1 $176 -6.959838408923555 $249 6.959838408923555 $173 $347 forward 7 unknown #
edge $-1 $177 -6.959838408923555 $248 6.959838408923555 $174 $348 forward 7 unknown #
point $-1 67.379985961485644 -28.678700345221092 6.959838408923555 #
point $-1 67.379985961485644 28.678700345221092 6.959838408923555 #
face $-1 $-1 $280 $25 $-1 $349 reversed single #
loop $-1 $-1 $350 $179 #
plane-surface $-1 0 -37.734892974885533 2.066960213700086 0 1 0 0 0 1 forward_v I I I I #
coedge $-1 $351 $277 $279 $352 forward $180 $-1 #
coedge $-1 $182 $189 $353 $354 forward $109 $-1 #
coedge $-1 $355 $187 $182 $270 reversed $280 $-1 #
edge $-1 $356 -4.5280963148322186 $191 4.5280963148322186 $269 $357 forward 7 unknown #
coedge $-1 $184 $183 $350 $358 reversed $69 $-1 #
coedge $-1 $277 $351 $183 $273 forward $180 $-1 #
edge $-1 $359 -4.5280963148322186 $275 4.5280963148322186 $183 $360 forward 7 unknown #
edge $-1 $190 -4.5280963148322186 $361 4.5280963148322186 $184 $362 forward 7 unknown #
vertex $-1 $185 $363 #
straight-curve $-1 -67.379985961485644 -28.678700345221092 0 0 0 -1 I I #
coedge $-1 $267 $272 $186 $278 reversed $180 $-1 #
edge $-1 $281 -67.379985961485644 $275 67.379985961485644 $277 $364 forward 7 unknown #
coedge $-1 $187 $355 $267 $352 reversed $280 $-1 #
loop $-1 $-1 $187 $264 #
vertex $-1 $188 $365 #
straight-curve $-1 67.379985961485644 -28.678700345221092 0 0 0 1 I I #
point $-1 -67.379985961485644 -28.678700345221095 3.9063566991103191 #
point $-1 67.379985961485644 -28.678700345221095 3.9063566991103191 #
loop $-1 $-1 $200 $193 #
plane-surface $-1 -67.379985961485644 0 0 1 0 0 0 0 -1 forward_v I I I I #
coedge $-1 $366 $367 $197 $289 forward $194 $-1 #
coedge $-1 $197 $196 $294 $368 reversed $73 $-1 #
edge $-1 $291 16.196005333133943 $369 25.491525207597462 $287 $370 forward 7 unknown #
coedge $-1 $203 $198 $367 $371 forward $117 $-1 #
vertex $-1 $371 $372 #
straight-curve $-1 -60.259204677373745 11.334615007557735 6.9598384089235577 0 1 0 I I #
coedge $-1 $373 $200 $203 $298 reversed $285 $-1 #
coedge $-1 $200 $373 $288 $368 forward $285 $-1 #
vertex $-1 $201 $374 #
straight-curve $-1 -67.379985961485644 16.659759685009849 52.108460043839905 0 0 1 I I #
straight-curve $-1 -67.379985961485644 16.659759685009849 0.98479333458411134 -0.76604443648966558 0 -0.64278761758704617 I I #
edge $-1 $375 -28.678700345221092 $204 -16.659759685009849 $293 $376 forward 7 unknown #
point $-1 -67.379985961485644 16.659759685009849 6.959838408923555 #
point $-1 -60.259204677373752 16.659759685009849 6.959838408923555 #
edge $-1 $377 1 $377 0 $207 $-1 forward 7 unknown #
vertex $-1 $208 $378 #
ellipse-curve $-1 -60.148955717012093 20.093742730784488 -0.40218196992224298 -0.64278761758704617 0 0.76604443648966558 1.1490666547344983 0 0.96418142638056925 1 I I #
point $-1 -62.670528664695205 20.093742730784488 4.9364972981344106 #
edge $-1 $379 1 $379 0 $211 $-1 forward 7 unknown #
vertex $-1 $212 $380 #
ellipse-curve $-1 -60.148955717012093 25.244717299446446 -0.40218196992224298 -0.64278761758704617 0 0.76604443648966558 1.1490666547344983 0 0.96418142638056925 1 I I #
point $-1 -62.670528664695205 25.244717299446446 4.9364972981344106 #
loop $-1 $-1 $312 $215 #
plane-surface $-1 0 28.678700345221092 0 0 -1 0 0 0 -1 forward_v I I I I #
coedge $-1 $219 $218 $318 $381 reversed $87 $-1 #
coedge $-1 $382 $383 $219 $313 forward $309 $-1 #
edge $-1 $315 -92.871511169083107 $384 -83.57599129461957 $312 $385 forward 7 unknown #
coedge $-1 $225 $220 $383 $386 reversed $139 $-1 #
vertex $-1 $221 $387 #
straight-curve $-1 67.379985961485644 11.334615007557735 0.98479333458410423 0 1 0 I I #
coedge $-1 $388 $222 $225 $322 forward $216 $-1 #
coedge $-1 $222 $388 $311 $381 forward $216 $-1 #
vertex $-1 $223 $389 #
straight-curve $-1 25.384950253426943 16.659759685009849 6.9598384089235594 1 0 0 I I #
straight-curve $-1 -35.852140791610054 16.659759685009849 87.606834633048052 -0.76604443648966558 0 0.64278761758704617 I I #
edge $-1 $226 16.659759685009849 $390 28.678700345221092 $225 $391 forward 7 unknown #
point $-1 67.379985961485644 16.659759685009849 6.959838408923555 #
point $-1 67.379985961485644 16.659759685009849 0.98479333458411134 #
edge $-1 $392 1 $392 0 $229 $-1 forward 7 unknown #
vertex $-1 $230 $393 #
ellipse-curve $-1 60.148955717012093 20.093742730784488 -0.40218196992224831 0.64278761758704617 0 0.76604443648966558 1.1490666547344983 0 -0.96418142638056925 1 I I #
point $-1 64.968661974164206 20.093742730784488 3.0081344453732672 #
edge $-1 $394 1 $394 0 $233 $-1 forward 7 unknown #
vertex $-1 $234 $395 #
ellipse-curve $-1 60.148955717012093 25.244717299446446 -0.40218196992224831 0.64278761758704617 0 0.76604443648966558 1.1490666547344983 0 -0.96418142638056925 1 I I #
point $-1 64.968661974164206 25.244717299446446 3.0081344453732672 #
plane-surface $-1 67.379985961485644 0 0 -1 0 0 0 0 1 forward_v I I I I #
coedge $-1 $242 $240 $244 $338 reversed $161 $-1 #
edge $-1 $255 -6.959838408923555 $340 6.959838408923555 $254 $396 forward 7 unknown #
vertex $-1 $338 $397 #
straight-curve $-1 -67.379985961485644 -28.678700345221092 0 0 0 -1 I I #
edge $-1 $336 -28.678700345221092 $340 28.678700345221092 $334 $398 forward 7 unknown #
straight-curve $-1 0 -28.678700345221092 -6.959838408923555 -1 0 0 I I #
vertex $-1 $247 $399 #
straight-curve $-1 0 28.678700345221092 -6.959838408923555 1 0 0 I I #
point $-1 67.379985961485644 28.678700345221092 -6.959838408923555 #
point $-1 67.379985961485644 -28.678700345221092 -6.959838408923555 #
straight-curve $-1 -67.379985961485644 0 6.959838408923555 0 -1 0 I I #
point $-1 -67.379985961485644 28.678700345221092 6.959838408923555 #
point $-1 -67.379985961485644 -28.678700345221092 6.959838408923555 #
straight-curve $-1 67.379985961485644 -28.678700345221092 0 0 0 -1 I I #
straight-curve $-1 67.379985961485644 28.678700345221092 0 0 0 -1 I I #
plane-surface $-1 67.379985961485644 0 0 -1 0 0 0 0 1 forward_v I I I I #
coedge $-1 $400 $353 $271 $358 forward $265 $-1 #
coedge $-1 $272 $267 $400 $401 forward $180 $-1 #
edge $-1 $281 -4.5280963148322186 $402 4.5280963148322186 $279 $403 forward 7 unknown #
coedge $-1 $350 $404 $268 $354 reversed $265 $-1 #
edge $-1 $361 -67.379985961485644 $356 67.379985961485644 $353 $405 forward 7 unknown #
coedge $-1 $279 $269 $404 $406 forward $280 $-1 #
vertex $-1 $270 $407 #
straight-curve $-1 67.379985961485644 -33.206796660053314 3.9063566991103191 0 1 0 I I #
edge $-1 $361 -1.8393964854102332 $359 1.8393964854102332 $271 $408 forward 7 unknown #
vertex $-1 $273 $409 #
straight-curve $-1 -67.379985961485644 -33.206796660053314 0.22756372828985283 0 1 0 I I #
vertex $-1 $274 $410 #
straight-curve $-1 -67.379985961485644 -33.206796660053314 3.9063566991103191 0 -1 0 I I #
point $-1 -67.379985961485644 -28.678700345221095 0.22756372828985283 #
straight-curve $-1 0 -28.678700345221092 0.22756372828985283 -1 0 0 I I #
point $-1 67.379985961485644 -28.678700345221095 0.22756372828985283 #
coedge $-1 $367 $287 $373 $411 reversed $194 $-1 #
coedge $-1 $287 $366 $290 $371 reversed $194 $-1 #
edge $-1 $369 -17.344085337663358 $295 -5.3251446774521138 $294 $412 forward 7 unknown #
vertex $-1 $289 $413 #
straight-curve $-1 -47.852344898569541 28.678700345221092 17.370430091435814 -0.76604443648966558 0 -0.64278761758704617 I I #
edge $-1 $291 60.259204677373752 $375 67.379985961485644 $367 $414 forward 7 unknown #
point $-1 -60.259204677373752 28.678700345221092 6.959838408923555 #
coedge $-1 $294 $293 $366 $411 forward $285 $-1 #
point $-1 -67.379985961485644 16.659759685009849 0.98479333458411134 #
vertex $-1 $371 $415 #
straight-curve $-1 -67.379985961485644 0 6.959838408923555 0 -1 0 I I #
vertex $-1 $301 $416 #
point $-1 -58.999889062277596 20.093742730784488 0.56199945645832639 #
vertex $-1 $305 $417 #
point $-1 -58.999889062277596 25.244717299446446 0.56199945645832639 #
edge $-1 $384 -17.344085337663358 $319 -5.3251446774521138 $318 $418 forward 7 unknown #
coedge $-1 $383 $312 $388 $419 reversed $309 $-1 #
coedge $-1 $312 $382 $314 $386 forward $309 $-1 #
vertex $-1 $313 $420 #
straight-curve $-1 -3.7637184779783102 28.678700345221092 60.681450740667785 -0.76604443648966558 0 0.64278761758704617 I I #
edge $-1 $390 -6.959838408923555 $315 -0.98479333458410268 $314 $421 forward 7 unknown #
point $-1 67.379985961485644 28.678700345221092 0.98479333458410268 #
coedge $-1 $318 $317 $382 $419 forward $216 $-1 #
point $-1 60.259204677373731 16.659759685009849 6.9598384089235594 #
vertex $-1 $322 $422 #
straight-curve $-1 67.379985961485644 0 6.959838408923555 0 1 0 I I #
vertex $-1 $325 $423 #
point $-1 61.298022371746598 20.093742730784488 -1.3663633963028174 #
vertex $-1 $329 $424 #
point $-1 61.298022371746598 25.244717299446446 -1.3663633963028174 #
straight-curve $-1 -67.379985961485644 28.678700345221092 0 0 0 -1 I I #
point $-1 -67.379985961485644 -28.678700345221092 -6.959838408923555 #
straight-curve $-1 -67.379985961485644 0 -6.959838408923555 0 1 0 I I #
point $-1 -67.379985961485644 28.678700345221092 -6.959838408923555 #
coedge $-1 $404 $350 $351 $401 reversed $265 $-1 #
edge $-1 $402 -67.379985961485644 $359 67.379985961485644 $400 $425 forward 7 unknown #
vertex $-1 $406 $426 #
straight-curve $-1 67.379985961485644 -33.206796660053314 0.22756372828985283 0 -1 0 I I #
coedge $-1 $353 $400 $355 $406 reversed $265 $-1 #
straight-curve $-1 0 -37.734892974885533 3.9063566991103191 1 0 0 I I #
edge $-1 $356 -1.8393964854102332 $402 1.8393964854102332 $355 $427 forward 7 unknown #
point $-1 67.379985961485644 -37.734892974885533 3.9063566991103191 #
straight-curve $-1 -67.379985961485644 -37.734892974885533 2.066960213700086 0 0 -1 I I #
point $-1 -67.379985961485644 -37.734892974885533 0.22756372828985283 #
point $-1 -67.379985961485644 -37.734892974885533 3.9063566991103191 #
edge $-1 $375 -6.959838408923555 $369 -0.98479333458411134 $366 $428 forward 7 unknown #
straight-curve $-1 -67.379985961485644 11.334615007557735 0.98479333458411111 0 -1 0 I I #
point $-1 -67.379985961485644 28.678700345221092 0.98479333458411134 #
straight-curve $-1 0 28.678700345221092 6.959838408923555 -1 0 0 I I #
point $-1 -67.379985961485644 28.678700345221092 6.959838408923555 #
point $-1 -59.18477429063153 20.093742730784488 -1.5512486246567412 #
point $-1 -59.18477429063153 25.244717299446446 -1.5512486246567412 #
straight-curve $-1 60.259204677373738 11.334615007557735 6.9598384089235665 0 -1 0 I I #
edge $-1 $390 -67.379985961485644 $384 -60.259204677373731 $382 $429 forward 7 unknown #
point $-1 60.259204677373731 28.678700345221092 6.9598384089235594 #
straight-curve $-1 67.379985961485644 28.678700345221092 0 0 0 -1 I I #
point $-1 67.379985961485644 28.678700345221092 6.959838408923555 #
point $-1 59.18477429063153 20.093742730784488 -1.5512486246567465 #
point $-1 59.18477429063153 25.244717299446446 -1.5512486246567465 #
straight-curve $-1 0 -37.734892974885533 0.22756372828985283 -1 0 0 I I #
point $-1 67.379985961485644 -37.734892974885533 0.22756372828985283 #
straight-curve $-1 67.379985961485644 -37.734892974885533 2.066960213700086 0 0 -1 I I #
straight-curve $-1 -67.379985961485644 28.678700345221092 0 0 0 -1 I I #
straight-curve $-1 0 28.678700345221092 6.959838408923555 -1 0 0 I I #
End-of-ACIS-data 