500 0 21 0           
7 Unknown 11 ACIS 5.0 NT 24 Thu Mar 25 23:51:38 1999 
-1 9.9999999999999995e-007 1e-010 
body $-1 $21 $-1 $22 #
body $-1 $23 $-1 $24 #
body $-1 $25 $-1 $26 #
body $-1 $27 $-1 $28 #
body $-1 $29 $-1 $30 #
body $-1 $31 $-1 $32 #
body $-1 $33 $-1 $34 #
body $-1 $35 $-1 $36 #
body $-1 $37 $-1 $38 #
body $-1 $39 $-1 $40 #
body $-1 $41 $-1 $42 #
body $-1 $43 $-1 $44 #
body $-1 $45 $-1 $46 #
body $-1 $47 $-1 $48 #
body $-1 $49 $-1 $50 #
body $-1 $51 $-1 $52 #
body $-1 $53 $-1 $54 #
body $-1 $55 $-1 $56 #
body $-1 $57 $-1 $58 #
body $-1 $59 $-1 $60 #
body $-1 $61 $-1 $62 #
lump $-1 $-1 $63 $0 #
transform $-1 1 0 0 0 1 0 0 0 1 41.184118167668693 25.782964813149562 8.4078101113299066 1 rotate no_reflect no_shear #
lump $-1 $-1 $64 $1 #
transform $-1 1 0 0 0 1 0 0 0 1 41.184118167668693 25.782964813149562 8.4078101113299066 1 rotate no_reflect no_shear #
lump $-1 $-1 $65 $2 #
transform $-1 1 0 0 0 1 0 0 0 1 41.184118167668693 25.782964813149562 8.4078101113299066 1 rotate no_reflect no_shear #
lump $-1 $-1 $66 $3 #
transform $-1 1 0 0 0 1 0 0 0 1 41.184118167668693 25.782964813149562 8.4078101113299066 1 rotate no_reflect no_shear #
lump $-1 $-1 $67 $4 #
transform $-1 1 0 0 0 1 0 0 0 1 41.184118167668693 25.782964813149562 8.4078101113299066 1 rotate no_reflect no_shear #
lump $-1 $-1 $68 $5 #
transform $-1 1 0 0 0 1 0 0 0 1 41.184118167668693 25.782964813149562 8.4078101113299066 1 rotate no_reflect no_shear #
lump $-1 $-1 $69 $6 #
transform $-1 1 0 0 0 1 0 0 0 1 41.184118167668693 25.782964813149562 8.4078101113299066 1 rotate no_reflect no_shear #
lump $-1 $-1 $70 $7 #
transform $-1 1 0 0 0 1 0 0 0 1 41.184118167668693 25.782964813149562 8.4078101113299066 1 rotate no_reflect no_shear #
lump $-1 $-1 $71 $8 #
transform $-1 1 0 0 0 1 0 0 0 1 41.184118167668693 25.782964813149562 8.4078101113299066 1 rotate no_reflect no_shear #
lump $-1 $-1 $72 $9 #
transform $-1 1 0 0 0 1 0 0 0 1 41.184118167668693 25.782964813149562 8.4078101113299066 1 rotate no_reflect no_shear #
lump $-1 $-1 $73 $10 #
transform $-1 1 0 0 0 1 0 0 0 1 41.184118167668693 25.782964813149562 8.4078101113299066 1 rotate no_reflect no_shear #
lump $-1 $-1 $74 $11 #
transform $-1 1 0 0 0 1 0 0 0 1 41.184118167668693 25.782964813149562 8.4078101113299066 1 rotate no_reflect no_shear #
lump $-1 $-1 $75 $12 #
transform $-1 1 0 0 0 1 0 0 0 1 41.184118167668693 25.782964813149562 8.4078101113299066 1 rotate no_reflect no_shear #
lump $-1 $-1 $76 $13 #
transform $-1 1 0 0 0 1 0 0 0 1 41.184118167668693 25.782964813149562 8.4078101113299066 1 rotate no_reflect no_shear #
lump $-1 $-1 $77 $14 #
transform $-1 1 0 0 0 1 0 0 0 1 41.184118167668693 25.782964813149562 8.4078101113299066 1 rotate no_reflect no_shear #
lump $-1 $-1 $78 $15 #
transform $-1 1 0 0 0 1 0 0 0 1 41.184118167668693 25.782964813149562 8.4078101113299066 1 rotate no_reflect no_shear #
lump $-1 $-1 $79 $16 #
transform $-1 1 0 0 0 1 0 0 0 1 41.184118167668693 25.782964813149562 8.4078101113299066 1 rotate no_reflect no_shear #
lump $-1 $-1 $80 $17 #
transform $-1 1 0 0 0 1 0 0 0 1 41.184118167668693 25.782964813149562 8.4078101113299066 1 rotate no_reflect no_shear #
lump $-1 $-1 $81 $18 #
transform $-1 1 0 0 0 1 0 0 0 1 41.184118167668693 25.782964813149562 8.4078101113299066 1 rotate no_reflect no_shear #
lump $-1 $-1 $82 $19 #
transform $-1 1 0 0 0 1 0 0 0 1 41.184118167668693 25.782964813149562 8.4078101113299066 1 rotate no_reflect no_shear #
lump $-1 $-1 $83 $20 #
transform $-1 1 0 0 0 1 0 0 0 1 41.184118167668693 25.782964813149562 8.4078101113299066 1 rotate no_reflect no_shear #
shell $-1 $-1 $-1 $84 $-1 $21 #
shell $-1 $-1 $-1 $85 $-1 $23 #
shell $-1 $-1 $-1 $86 $-1 $25 #
shell $-1 $-1 $-1 $87 $-1 $27 #
shell $-1 $-1 $-1 $88 $-1 $29 #
shell $-1 $-1 $-1 $89 $-1 $31 #
shell $-1 $-1 $-1 $90 $-1 $33 #
shell $-1 $-1 $-1 $91 $-1 $35 #
shell $-1 $-1 $-1 $92 $-1 $37 #
shell $-1 $-1 $-1 $93 $-1 $39 #
shell $-1 $-1 $-1 $94 $-1 $41 #
shell $-1 $-1 $-1 $95 $-1 $43 #
shell $-1 $-1 $-1 $96 $-1 $45 #
shell $-1 $-1 $-1 $97 $-1 $47 #
shell $-1 $-1 $-1 $98 $-1 $49 #
shell $-1 $-1 $-1 $99 $-1 $51 #
shell $-1 $-1 $-1 $100 $-1 $53 #
shell $-1 $-1 $-1 $101 $-1 $55 #
shell $-1 $-1 $-1 $102 $-1 $57 #
shell $-1 $-1 $-1 $103 $-1 $59 #
shell $-1 $-1 $-1 $104 $-1 $61 #
face $-1 $105 $106 $63 $-1 $107 forward single #
face $-1 $108 $109 $64 $-1 $110 forward single #
face $-1 $111 $112 $65 $-1 $113 reversed single #
face $-1 $114 $115 $66 $-1 $116 forward single #
face $-1 $117 $118 $67 $-1 $119 forward single #
face $-1 $120 $121 $68 $-1 $122 reversed single #
face $-1 $123 $124 $69 $-1 $125 forward single #
face $-1 $126 $127 $70 $-1 $128 forward single #
face $-1 $129 $130 $71 $-1 $131 forward single #
face $-1 $132 $133 $72 $-1 $134 reversed single #
face $-1 $135 $136 $73 $-1 $137 forward single #
face $-1 $138 $139 $74 $-1 $140 forward single #
face $-1 $141 $142 $75 $-1 $143 forward single #
face $-1 $144 $145 $76 $-1 $146 reversed single #
face $-1 $147 $148 $77 $-1 $149 forward single #
face $-1 $150 $151 $78 $-1 $152 forward single #
face $-1 $153 $154 $79 $-1 $155 forward single #
face $-1 $156 $157 $80 $-1 $158 reversed single #
face $-1 $159 $160 $81 $-1 $161 forward single #
face $-1 $162 $163 $82 $-1 $164 forward single #
face $-1 $165 $166 $83 $-1 $167 forward single #
face $-1 $168 $169 $63 $-1 $170 reversed single #
loop $-1 $-1 $171 $84 #
plane-surface $-1 0 0 8.4078101113299066 0 0 1 1 0 0 forward_v I I I I #
face $-1 $172 $173 $64 $-1 $174 forward single #
loop $-1 $-1 $175 $85 #
plane-surface $-1 -41.184118167668693 0 0 1 0 0 0 0 -1 forward_v I I I I #
face $-1 $176 $177 $65 $-1 $178 reversed single #
loop $-1 $-1 $179 $86 #
plane-surface $-1 18.20382671475917 42.577120000719731 96.528353763961405 1 0 0 0 -0.66913061440640931 -0.74314481823134659 forward_v I I I I #
face $-1 $180 $181 $66 $-1 $182 forward single #
loop $-1 $183 $184 $87 #
cone-surface $-1 21.017571529894028 20.803176771394376 3.7637981747997658 0 -0.66913061440640931 -0.74314481823134659 1 0 0 1 I I 0 1 1 forward I I I I #
face $-1 $185 $186 $67 $-1 $187 forward single #
loop $-1 $188 $189 $88 #
cone-surface $-1 25.238188752596308 20.803176771394376 3.7637981747997658 0 -0.66913061440640931 -0.74314481823134659 1 0 0 1 I I 0 1 1 forward I I I I #
face $-1 $190 $191 $68 $-1 $192 reversed single #
loop $-1 $-1 $193 $89 #
plane-surface $-1 -22.391786227288151 -68.205743253361504 70.741000409717017 -1 0 0 0 -0.51503808176128008 0.85716729658548041 forward_v I I I I #
face $-1 $194 $195 $69 $-1 $196 forward single #
loop $-1 $197 $198 $90 #
cone-surface $-1 -29.714160422164959 -18.508546022244413 3.6195241059498482 0 0.51503808176128008 -0.85716729658548041 0.5 0 0 1 I I 0 1 0.5 forward I I I I #
face $-1 $199 $200 $70 $-1 $201 forward single #
loop $-1 $202 $203 $91 #
cone-surface $-1 -26.968270099086158 -18.508546022244413 3.6195241059498482 0 0.51503808176128008 -0.85716729658548041 0.5 0 0 1 I I 0 1 0.5 forward I I I I #
face $-1 $204 $205 $71 $-1 $206 forward single #
loop $-1 $207 $208 $92 #
cone-surface $-1 -24.222379776007354 -18.508546022244413 3.6195241059498482 0 0.51503808176128008 -0.85716729658548041 0.5 0 0 1 I I 0 1 0.5 forward I I I I #
face $-1 $209 $210 $72 $-1 $211 reversed single #
loop $-1 $-1 $212 $93 #
plane-surface $-1 -2.56192290527874 -68.205743253361504 70.741000409717017 -1 0 0 0 -0.51503808176128008 0.85716729658548041 forward_v I I I I #
face $-1 $213 $214 $73 $-1 $215 forward single #
loop $-1 $216 $217 $94 #
cone-surface $-1 -9.8842971001555497 -18.508546022244413 3.6195241059498482 0 0.51503808176128008 -0.85716729658548041 0.5 0 0 1 I I 0 1 0.5 forward I I I I #
face $-1 $218 $219 $74 $-1 $220 forward single #
loop $-1 $221 $222 $95 #
cone-surface $-1 -7.1384067770767459 -18.508546022244413 3.6195241059498482 0 0.51503808176128008 -0.85716729658548041 0.5 0 0 1 I I 0 1 0.5 forward I I I I #
face $-1 $223 $224 $75 $-1 $225 forward single #
loop $-1 $226 $227 $96 #
cone-surface $-1 -4.392516453997942 -18.508546022244413 3.6195241059498482 0 0.51503808176128008 -0.85716729658548041 0.5 0 0 1 I I 0 1 0.5 forward I I I I #
face $-1 $228 $229 $76 $-1 $230 reversed single #
loop $-1 $-1 $231 $97 #
plane-surface $-1 17.267940416730674 -68.205743253361504 70.741000409717017 -1 0 0 0 -0.51503808176128008 0.85716729658548041 forward_v I I I I #
face $-1 $232 $233 $77 $-1 $234 forward single #
loop $-1 $235 $236 $98 #
cone-surface $-1 9.9455662218538592 -18.508546022244413 3.6195241059498482 0 0.51503808176128008 -0.85716729658548041 0.5 0 0 1 I I 0 1 0.5 forward I I I I #
face $-1 $237 $238 $78 $-1 $239 forward single #
loop $-1 $240 $241 $99 #
cone-surface $-1 12.69145654493267 -18.508546022244413 3.6195241059498482 0 0.51503808176128008 -0.85716729658548041 0.5 0 0 1 I I 0 1 0.5 forward I I I I #
face $-1 $242 $243 $79 $-1 $244 forward single #
loop $-1 $245 $246 $100 #
cone-surface $-1 15.437346868011467 -18.508546022244413 3.6195241059498482 0 0.51503808176128008 -0.85716729658548041 0.5 0 0 1 I I 0 1 0.5 forward I I I I #
face $-1 $247 $248 $80 $-1 $249 reversed single #
loop $-1 $-1 $250 $101 #
plane-surface $-1 37.09780373874009 -68.205743253361504 70.741000409717017 -1 0 0 0 -0.51503808176128008 0.85716729658548041 forward_v I I I I #
face $-1 $251 $252 $81 $-1 $253 forward single #
loop $-1 $254 $255 $102 #
cone-surface $-1 29.775429543863275 -18.508546022244413 3.6195241059498482 0 0.51503808176128008 -0.85716729658548041 0.5 0 0 1 I I 0 1 0.5 forward I I I I #
face $-1 $256 $257 $82 $-1 $258 forward single #
loop $-1 $259 $260 $103 #
cone-surface $-1 32.521319866942086 -18.508546022244413 3.6195241059498482 0 0.51503808176128008 -0.85716729658548041 0.5 0 0 1 I I 0 1 0.5 forward I I I I #
face $-1 $261 $262 $83 $-1 $263 forward single #
loop $-1 $264 $265 $104 #
cone-surface $-1 35.267210190020883 -18.508546022244413 3.6195241059498482 0 0.51503808176128008 -0.85716729658548041 0.5 0 0 1 I I 0 1 0.5 forward I I I I #
face $-1 $266 $267 $63 $-1 $268 reversed single #
loop $-1 $-1 $269 $105 #
plane-surface $-1 0 0 -8.4078101113299066 0 0 1 1 0 0 forward_v I I I I #
coedge $-1 $270 $271 $272 $273 forward $106 $-1 #
face $-1 $274 $275 $64 $-1 $276 reversed single #
loop $-1 $-1 $277 $108 #
plane-surface $-1 0 0 8.4078101113299066 0 0 1 1 0 0 forward_v I I I I #
coedge $-1 $278 $279 $280 $281 forward $109 $-1 #
face $-1 $282 $283 $65 $-1 $284 reversed single #
loop $-1 $-1 $285 $111 #
plane-surface $-1 23.127880141245164 -12.537988585916899 35.316825744500505 0 0.66913061440640931 0.74314481823134659 1 0 0 forward_v I I I I #
coedge $-1 $286 $287 $288 $289 reversed $112 $-1 #
face $-1 $-1 $290 $66 $-1 $291 forward single #
loop $-1 $292 $293 $114 #
cone-surface $-1 21.017571529894028 19.706555685416454 2.5458770992102533 0 -0.66913061440640931 -0.74314481823134659 0.5 0 0 1 I I -0.70710678118654746 0.70710678118654746 0.5 forward I I I I #
loop $-1 $-1 $294 $87 #
coedge $-1 $184 $184 $295 $296 reversed $115 $-1 #
face $-1 $-1 $297 $67 $-1 $298 forward single #
loop $-1 $299 $300 $117 #
cone-surface $-1 25.238188752596308 19.706555685416454 2.5458770992102533 0 -0.66913061440640931 -0.74314481823134659 0.5 0 0 1 I I -0.70710678118654746 0.70710678118654746 0.5 forward I I I I #
loop $-1 $-1 $301 $88 #
coedge $-1 $189 $189 $302 $303 reversed $118 $-1 #
face $-1 $304 $305 $68 $-1 $306 reversed single #
loop $-1 $-1 $307 $120 #
plane-surface $-1 -26.968270099086155 -25.782964813149569 0.13764194564193133 0 -0.51503808176128008 0.85716729658548041 1 0 0 forward_v I I I I #
coedge $-1 $308 $309 $310 $311 reversed $121 $-1 #
face $-1 $-1 $312 $69 $-1 $313 forward single #
loop $-1 $314 $315 $123 #
cone-surface $-1 -29.714160422164959 -17.987303183173179 2.7520303592674065 0 0.51503808176128008 -0.85716729658548041 0.25 0 0 1 I I -0.70710678118654746 0.70710678118654746 0.25 forward I I I I #
loop $-1 $-1 $316 $90 #
coedge $-1 $198 $198 $317 $318 reversed $124 $-1 #
face $-1 $-1 $319 $70 $-1 $320 forward single #
loop $-1 $321 $322 $126 #
cone-surface $-1 -26.968270099086158 -17.987303183173179 2.7520303592674065 0 0.51503808176128008 -0.85716729658548041 0.25 0 0 1 I I -0.70710678118654746 0.70710678118654746 0.25 forward I I I I #
loop $-1 $-1 $323 $91 #
coedge $-1 $203 $203 $324 $325 reversed $127 $-1 #
face $-1 $-1 $326 $71 $-1 $327 forward single #
loop $-1 $328 $329 $129 #
cone-surface $-1 -24.222379776007354 -17.987303183173179 2.7520303592674065 0 0.51503808176128008 -0.85716729658548041 0.25 0 0 1 I I -0.70710678118654746 0.70710678118654746 0.25 forward I I I I #
loop $-1 $-1 $330 $92 #
coedge $-1 $208 $208 $331 $332 reversed $130 $-1 #
face $-1 $333 $334 $72 $-1 $335 reversed single #
loop $-1 $-1 $336 $132 #
plane-surface $-1 -7.1384067770767459 -25.782964813149569 0.13764194564193133 0 -0.51503808176128008 0.85716729658548041 1 0 0 forward_v I I I I #
coedge $-1 $337 $338 $339 $340 reversed $133 $-1 #
face $-1 $-1 $341 $73 $-1 $342 forward single #
loop $-1 $343 $344 $135 #
cone-surface $-1 -9.8842971001555497 -17.987303183173179 2.7520303592674065 0 0.51503808176128008 -0.85716729658548041 0.25 0 0 1 I I -0.70710678118654746 0.70710678118654746 0.25 forward I I I I #
loop $-1 $-1 $345 $94 #
coedge $-1 $217 $217 $346 $347 reversed $136 $-1 #
face $-1 $-1 $348 $74 $-1 $349 forward single #
loop $-1 $350 $351 $138 #
cone-surface $-1 -7.1384067770767459 -17.987303183173179 2.7520303592674065 0 0.51503808176128008 -0.85716729658548041 0.25 0 0 1 I I -0.70710678118654746 0.70710678118654746 0.25 forward I I I I #
loop $-1 $-1 $352 $95 #
coedge $-1 $222 $222 $353 $354 reversed $139 $-1 #
face $-1 $-1 $355 $75 $-1 $356 forward single #
loop $-1 $357 $358 $141 #
cone-surface $-1 -4.392516453997942 -17.987303183173179 2.7520303592674065 0 0.51503808176128008 -0.85716729658548041 0.25 0 0 1 I I -0.70710678118654746 0.70710678118654746 0.25 forward I I I I #
loop $-1 $-1 $359 $96 #
coedge $-1 $227 $227 $360 $361 reversed $142 $-1 #
face $-1 $362 $363 $76 $-1 $364 reversed single #
loop $-1 $-1 $365 $144 #
plane-surface $-1 12.69145654493267 -25.782964813149569 0.13764194564193133 0 -0.51503808176128008 0.85716729658548041 1 0 0 forward_v I I I I #
coedge $-1 $366 $367 $368 $369 reversed $145 $-1 #
face $-1 $-1 $370 $77 $-1 $371 forward single #
loop $-1 $372 $373 $147 #
cone-surface $-1 9.9455662218538592 -17.987303183173179 2.7520303592674065 0 0.51503808176128008 -0.85716729658548041 0.25 0 0 1 I I -0.70710678118654746 0.70710678118654746 0.25 forward I I I I #
loop $-1 $-1 $374 $98 #
coedge $-1 $236 $236 $375 $376 reversed $148 $-1 #
face $-1 $-1 $377 $78 $-1 $378 forward single #
loop $-1 $379 $380 $150 #
cone-surface $-1 12.69145654493267 -17.987303183173179 2.7520303592674065 0 0.51503808176128008 -0.85716729658548041 0.25 0 0 1 I I -0.70710678118654746 0.70710678118654746 0.25 forward I I I I #
loop $-1 $-1 $381 $99 #
coedge $-1 $241 $241 $382 $383 reversed $151 $-1 #
face $-1 $-1 $384 $79 $-1 $385 forward single #
loop $-1 $386 $387 $153 #
cone-surface $-1 15.437346868011467 -17.987303183173179 2.7520303592674065 0 0.51503808176128008 -0.85716729658548041 0.25 0 0 1 I I -0.70710678118654746 0.70710678118654746 0.25 forward I I I I #
loop $-1 $-1 $388 $100 #
coedge $-1 $246 $246 $389 $390 reversed $154 $-1 #
face $-1 $391 $392 $80 $-1 $393 reversed single #
loop $-1 $-1 $394 $156 #
plane-surface $-1 32.521319866942086 -25.782964813149569 0.13764194564193133 0 -0.51503808176128008 0.85716729658548041 1 0 0 forward_v I I I I #
coedge $-1 $395 $396 $397 $398 reversed $157 $-1 #
face $-1 $-1 $399 $81 $-1 $400 forward single #
loop $-1 $401 $402 $159 #
cone-surface $-1 29.775429543863275 -17.987303183173179 2.7520303592674065 0 0.51503808176128008 -0.85716729658548041 0.25 0 0 1 I I -0.70710678118654746 0.70710678118654746 0.25 forward I I I I #
loop $-1 $-1 $403 $102 #
coedge $-1 $255 $255 $404 $405 reversed $160 $-1 #
face $-1 $-1 $406 $82 $-1 $407 forward single #
loop $-1 $408 $409 $162 #
cone-surface $-1 32.521319866942086 -17.987303183173179 2.7520303592674065 0 0.51503808176128008 -0.85716729658548041 0.25 0 0 1 I I -0.70710678118654746 0.70710678118654746 0.25 forward I I I I #
loop $-1 $-1 $410 $103 #
coedge $-1 $260 $260 $411 $412 reversed $163 $-1 #
face $-1 $-1 $413 $83 $-1 $414 forward single #
loop $-1 $415 $416 $165 #
cone-surface $-1 35.267210190020883 -17.987303183173179 2.7520303592674065 0 0.51503808176128008 -0.85716729658548041 0.25 0 0 1 I I -0.70710678118654746 0.70710678118654746 0.25 forward I I I I #
loop $-1 $-1 $417 $104 #
coedge $-1 $265 $265 $418 $419 reversed $166 $-1 #
face $-1 $420 $421 $63 $-1 $422 reversed single #
loop $-1 $-1 $423 $168 #
plane-surface $-1 0 -25.782964813149562 0 0 1 0 0 0 1 forward_v I I I I #
coedge $-1 $424 $425 $426 $427 forward $169 $-1 #
coedge $-1 $428 $171 $429 $430 forward $106 $-1 #
coedge $-1 $171 $428 $431 $432 forward $106 $-1 #
coedge $-1 $433 $434 $171 $273 reversed $435 $-1 #
edge $-1 $436 -25.782964813149562 $437 25.782964813149562 $272 $438 forward 7 unknown #
face $-1 $439 $440 $64 $-1 $441 reversed single #
loop $-1 $-1 $442 $172 #
plane-surface $-1 -46.737167935524617 -23.461893982006735 0 1 0 0 0 0 -1 forward_v I I I I #
coedge $-1 $443 $444 $278 $445 forward $173 $-1 #
coedge $-1 $446 $175 $277 $445 reversed $109 $-1 #
coedge $-1 $175 $446 $447 $448 reversed $109 $-1 #
coedge $-1 $449 $450 $175 $281 reversed $440 $-1 #
edge $-1 $451 -8.4078101113299066 $452 8.4078101113299066 $280 $453 forward 7 unknown #
face $-1 $454 $455 $65 $-1 $456 forward single #
loop $-1 $-1 $457 $176 #
plane-surface $-1 28.051933567731158 42.577120000719731 96.528353763961405 -1 0 0 0 0.66913061440640931 0.74314481823134659 forward_v I I I I #
coedge $-1 $458 $459 $460 $461 reversed $177 $-1 #
coedge $-1 $287 $179 $462 $463 reversed $112 $-1 #
coedge $-1 $179 $286 $458 $464 reversed $112 $-1 #
coedge $-1 $460 $465 $179 $289 forward $455 $-1 #
edge $-1 $466 -4.4944048127896963 $467 3.9410597131712137 $288 $468 forward 7 unknown #
loop $-1 $-1 $295 $180 #
plane-surface $-1 23.127880141245164 -12.537988585916899 35.316825744500505 0 0.66913061440640931 0.74314481823134659 1 0 0 forward_v I I I I #
loop $-1 $-1 $469 $114 #
coedge $-1 $293 $293 $294 $470 reversed $181 $-1 #
coedge $-1 $294 $294 $293 $470 forward $183 $-1 #
coedge $-1 $295 $295 $184 $296 forward $290 $-1 #
edge $-1 $471 9.9406829196622665e-016 $471 6.2831853071796013 $295 $472 forward 7 unknown #
loop $-1 $-1 $302 $185 #
plane-surface $-1 23.127880141245164 -12.537988585916899 35.316825744500505 0 0.66913061440640931 0.74314481823134659 1 0 0 forward_v I I I I #
loop $-1 $-1 $473 $117 #
coedge $-1 $300 $300 $301 $474 reversed $186 $-1 #
coedge $-1 $301 $301 $300 $474 forward $188 $-1 #
coedge $-1 $302 $302 $189 $303 forward $297 $-1 #
edge $-1 $475 9.9406829196622665e-016 $475 6.2831853071796013 $302 $476 forward 7 unknown #
face $-1 $477 $478 $68 $-1 $479 forward single #
loop $-1 $-1 $480 $190 #
plane-surface $-1 -31.544753970884159 -68.205743253361504 70.741000409717017 1 0 0 0 0.51503808176128008 -0.85716729658548041 forward_v I I I I #
coedge $-1 $481 $482 $483 $484 reversed $191 $-1 #
coedge $-1 $309 $193 $485 $486 reversed $121 $-1 #
coedge $-1 $193 $308 $481 $487 reversed $121 $-1 #
coedge $-1 $483 $488 $193 $311 forward $478 $-1 #
edge $-1 $489 8.3199068135311904 $490 22.083777758079655 $310 $491 forward 7 unknown #
loop $-1 $-1 $317 $194 #
plane-surface $-1 -26.968270099086155 -25.782964813149569 0.13764194564193133 0 -0.51503808176128008 0.85716729658548041 1 0 0 forward_v I I I I #
loop $-1 $-1 $492 $123 #
coedge $-1 $315 $315 $316 $493 reversed $195 $-1 #
coedge $-1 $316 $316 $315 $493 forward $197 $-1 #
coedge $-1 $317 $317 $198 $318 forward $312 $-1 #
edge $-1 $494 5.1756485401111291e-015 $494 6.2831853071796058 $317 $495 forward 7 unknown #
loop $-1 $-1 $324 $199 #
plane-surface $-1 -26.968270099086155 -25.782964813149569 0.13764194564193133 0 -0.51503808176128008 0.85716729658548041 1 0 0 forward_v I I I I #
loop $-1 $-1 $496 $126 #
coedge $-1 $322 $322 $323 $497 reversed $200 $-1 #
coedge $-1 $323 $323 $322 $497 forward $202 $-1 #
coedge $-1 $324 $324 $203 $325 forward $319 $-1 #
edge $-1 $498 5.1756485401111291e-015 $498 6.2831853071796058 $324 $499 forward 7 unknown #
loop $-1 $-1 $331 $204 #
plane-surface $-1 -26.968270099086155 -25.782964813149569 0.13764194564193133 0 -0.51503808176128008 0.85716729658548041 1 0 0 forward_v I I I I #
loop $-1 $-1 $500 $129 #
coedge $-1 $329 $329 $330 $501 reversed $205 $-1 #
coedge $-1 $330 $330 $329 $501 forward $207 $-1 #
coedge $-1 $331 $331 $208 $332 forward $326 $-1 #
edge $-1 $502 5.1756485401111291e-015 $502 6.2831853071796058 $331 $503 forward 7 unknown #
face $-1 $504 $505 $72 $-1 $506 reversed single #
loop $-1 $-1 $507 $209 #
plane-surface $-1 -11.714890648874752 -68.205743253361504 70.741000409717017 1 0 0 0 0.51503808176128008 -0.85716729658548041 forward_v I I I I #
coedge $-1 $508 $509 $510 $511 reversed $210 $-1 #
coedge $-1 $338 $212 $512 $513 reversed $133 $-1 #
coedge $-1 $212 $337 $508 $514 reversed $133 $-1 #
coedge $-1 $510 $515 $212 $340 forward $516 $-1 #
edge $-1 $517 8.3199068135311904 $518 22.083777758079655 $339 $519 forward 7 unknown #
loop $-1 $-1 $346 $213 #
plane-surface $-1 -7.1384067770767459 -25.782964813149569 0.13764194564193133 0 -0.51503808176128008 0.85716729658548041 1 0 0 forward_v I I I I #
loop $-1 $-1 $520 $135 #
coedge $-1 $344 $344 $345 $521 reversed $214 $-1 #
coedge $-1 $345 $345 $344 $521 forward $216 $-1 #
coedge $-1 $346 $346 $217 $347 forward $341 $-1 #
edge $-1 $522 5.1756485401111291e-015 $522 6.2831853071796058 $346 $523 forward 7 unknown #
loop $-1 $-1 $353 $218 #
plane-surface $-1 -7.1384067770767459 -25.782964813149569 0.13764194564193133 0 -0.51503808176128008 0.85716729658548041 1 0 0 forward_v I I I I #
loop $-1 $-1 $524 $138 #
coedge $-1 $351 $351 $352 $525 reversed $219 $-1 #
coedge $-1 $352 $352 $351 $525 forward $221 $-1 #
coedge $-1 $353 $353 $222 $354 forward $348 $-1 #
edge $-1 $526 5.1756485401111291e-015 $526 6.2831853071796058 $353 $527 forward 7 unknown #
loop $-1 $-1 $360 $223 #
plane-surface $-1 -7.1384067770767459 -25.782964813149569 0.13764194564193133 0 -0.51503808176128008 0.85716729658548041 1 0 0 forward_v I I I I #
loop $-1 $-1 $528 $141 #
coedge $-1 $358 $358 $359 $529 reversed $224 $-1 #
coedge $-1 $359 $359 $358 $529 forward $226 $-1 #
coedge $-1 $360 $360 $227 $361 forward $355 $-1 #
edge $-1 $530 5.1756485401111291e-015 $530 6.2831853071796058 $360 $531 forward 7 unknown #
face $-1 $532 $533 $76 $-1 $534 reversed single #
loop $-1 $-1 $535 $228 #
plane-surface $-1 8.1149726731346643 -68.205743253361504 70.741000409717017 1 0 0 0 0.51503808176128008 -0.85716729658548041 forward_v I I I I #
coedge $-1 $536 $537 $538 $539 reversed $229 $-1 #
coedge $-1 $367 $231 $540 $541 reversed $145 $-1 #
coedge $-1 $231 $366 $536 $542 reversed $145 $-1 #
coedge $-1 $538 $543 $231 $369 forward $544 $-1 #
edge $-1 $545 8.3199068135311904 $546 22.083777758079655 $368 $547 forward 7 unknown #
loop $-1 $-1 $375 $232 #
plane-surface $-1 12.69145654493267 -25.782964813149569 0.13764194564193133 0 -0.51503808176128008 0.85716729658548041 1 0 0 forward_v I I I I #
loop $-1 $-1 $548 $147 #
coedge $-1 $373 $373 $374 $549 reversed $233 $-1 #
coedge $-1 $374 $374 $373 $549 forward $235 $-1 #
coedge $-1 $375 $375 $236 $376 forward $370 $-1 #
edge $-1 $550 5.1756485401111291e-015 $550 6.2831853071796058 $375 $551 forward 7 unknown #
loop $-1 $-1 $382 $237 #
plane-surface $-1 12.69145654493267 -25.782964813149569 0.13764194564193133 0 -0.51503808176128008 0.85716729658548041 1 0 0 forward_v I I I I #
loop $-1 $-1 $552 $150 #
coedge $-1 $380 $380 $381 $553 reversed $238 $-1 #
coedge $-1 $381 $381 $380 $553 forward $240 $-1 #
coedge $-1 $382 $382 $241 $383 forward $377 $-1 #
edge $-1 $554 5.1756485401111291e-015 $554 6.2831853071796058 $382 $555 forward 7 unknown #
loop $-1 $-1 $389 $242 #
plane-surface $-1 12.69145654493267 -25.782964813149569 0.13764194564193133 0 -0.51503808176128008 0.85716729658548041 1 0 0 forward_v I I I I #
loop $-1 $-1 $556 $153 #
coedge $-1 $387 $387 $388 $557 reversed $243 $-1 #
coedge $-1 $388 $388 $387 $557 forward $245 $-1 #
coedge $-1 $389 $389 $246 $390 forward $384 $-1 #
edge $-1 $558 5.1756485401111291e-015 $558 6.2831853071796058 $389 $559 forward 7 unknown #
face $-1 $560 $561 $80 $-1 $562 reversed single #
loop $-1 $-1 $563 $247 #
plane-surface $-1 27.944835995144082 -68.205743253361504 70.741000409717017 1 0 0 0 0.51503808176128008 -0.85716729658548041 forward_v I I I I #
coedge $-1 $564 $565 $566 $567 reversed $248 $-1 #
coedge $-1 $396 $250 $568 $569 reversed $157 $-1 #
coedge $-1 $250 $395 $564 $570 reversed $157 $-1 #
coedge $-1 $566 $571 $250 $398 forward $572 $-1 #
edge $-1 $573 8.3199068135311904 $574 22.083777758079655 $397 $575 forward 7 unknown #
loop $-1 $-1 $404 $251 #
plane-surface $-1 32.521319866942086 -25.782964813149569 0.13764194564193133 0 -0.51503808176128008 0.85716729658548041 1 0 0 forward_v I I I I #
loop $-1 $-1 $576 $159 #
coedge $-1 $402 $402 $403 $577 reversed $252 $-1 #
coedge $-1 $403 $403 $402 $577 forward $254 $-1 #
coedge $-1 $404 $404 $255 $405 forward $399 $-1 #
edge $-1 $578 5.1756485401111291e-015 $578 6.2831853071796058 $404 $579 forward 7 unknown #
loop $-1 $-1 $411 $256 #
plane-surface $-1 32.521319866942086 -25.782964813149569 0.13764194564193133 0 -0.51503808176128008 0.85716729658548041 1 0 0 forward_v I I I I #
loop $-1 $-1 $580 $162 #
coedge $-1 $409 $409 $410 $581 reversed $257 $-1 #
coedge $-1 $410 $410 $409 $581 forward $259 $-1 #
coedge $-1 $411 $411 $260 $412 forward $406 $-1 #
edge $-1 $582 5.1756485401111291e-015 $582 6.2831853071796058 $411 $583 forward 7 unknown #
loop $-1 $-1 $418 $261 #
plane-surface $-1 32.521319866942086 -25.782964813149569 0.13764194564193133 0 -0.51503808176128008 0.85716729658548041 1 0 0 forward_v I I I I #
loop $-1 $-1 $584 $165 #
coedge $-1 $416 $416 $417 $585 reversed $262 $-1 #
coedge $-1 $417 $417 $416 $585 forward $264 $-1 #
coedge $-1 $418 $418 $265 $419 forward $413 $-1 #
edge $-1 $586 5.1756485401111291e-015 $586 6.2831853071796058 $418 $587 forward 7 unknown #
face $-1 $588 $589 $63 $-1 $590 reversed single #
loop $-1 $-1 $591 $266 #
plane-surface $-1 -41.184118167668693 0 0 1 0 0 0 0 -1 forward_v I I I I #
coedge $-1 $592 $431 $593 $594 forward $267 $-1 #
coedge $-1 $595 $269 $592 $596 forward $169 $-1 #
coedge $-1 $269 $595 $597 $598 forward $169 $-1 #
coedge $-1 $434 $433 $269 $427 reversed $435 $-1 #
edge $-1 $599 -25.782964813149562 $600 25.782964813149562 $426 $601 forward 7 unknown #
coedge $-1 $271 $270 $602 $603 forward $106 $-1 #
coedge $-1 $604 $605 $270 $430 reversed $589 $-1 #
edge $-1 $437 -41.184118167668693 $606 41.184118167668693 $429 $607 forward 7 unknown #
coedge $-1 $423 $608 $271 $432 reversed $267 $-1 #
edge $-1 $609 -41.184118167668693 $436 41.184118167668693 $431 $610 forward 7 unknown #
coedge $-1 $426 $272 $608 $611 forward $435 $-1 #
coedge $-1 $272 $426 $604 $612 reversed $435 $-1 #
loop $-1 $-1 $433 $588 #
vertex $-1 $273 $613 #
vertex $-1 $273 $614 #
straight-curve $-1 41.184118167668693 0 8.4078101113299066 0 1 0 I I #
face $-1 $615 $616 $64 $-1 $617 reversed single #
loop $-1 $-1 $280 $274 #
plane-surface $-1 -43.960643051596655 -21.140823150863909 0 0 -1 0 0 0 -1 forward_v I I I I #
coedge $-1 $618 $619 $620 $621 forward $275 $-1 #
coedge $-1 $622 $277 $450 $623 forward $173 $-1 #
coedge $-1 $277 $622 $624 $625 forward $173 $-1 #
edge $-1 $626 -25.782964813149562 $452 -21.140823150863909 $277 $627 forward 7 unknown #
coedge $-1 $279 $278 $628 $629 reversed $109 $-1 #
coedge $-1 $630 $631 $279 $448 forward $616 $-1 #
edge $-1 $451 21.140823150863909 $632 25.782964813149562 $447 $633 forward 7 unknown #
coedge $-1 $620 $280 $631 $634 reversed $440 $-1 #
coedge $-1 $280 $620 $443 $623 reversed $440 $-1 #
vertex $-1 $448 $635 #
vertex $-1 $623 $636 #
straight-curve $-1 -41.184118167668693 -21.140823150863909 0 0 0 1 I I #
face $-1 $-1 $637 $65 $-1 $638 reversed single #
loop $-1 $-1 $288 $282 #
plane-surface $-1 0 0 8.4078101113299066 0 0 1 1 0 0 forward_v I I I I #
coedge $-1 $639 $640 $641 $642 reversed $283 $-1 #
coedge $-1 $643 $285 $287 $464 forward $177 $-1 #
coedge $-1 $285 $643 $639 $644 forward $177 $-1 #
coedge $-1 $641 $288 $285 $461 forward $455 $-1 #
edge $-1 $467 6.6398866441365882 $645 16.487993497108576 $460 $646 forward 7 unknown #
coedge $-1 $647 $648 $286 $463 forward $637 $-1 #
edge $-1 $649 -47.451693310763382 $466 -39.856366770650794 $462 $650 forward 7 unknown #
edge $-1 $467 40.214892360054066 $649 51.565929626299109 $287 $651 forward 7 unknown #
coedge $-1 $288 $641 $647 $652 forward $455 $-1 #
vertex $-1 $463 $653 #
vertex $-1 $289 $654 #
straight-curve $-1 18.20382671475917 21.288560000359865 8.4078101113299084 0 -1 0 I I #
coedge $-1 $469 $469 $-1 $655 reversed $292 $-1 #
edge $-1 $656 0 $656 6.2831853071796004 $293 $657 forward 7 unknown #
vertex $-1 $296 $658 #
ellipse-curve $-1 21.017571529894028 21.565232550169107 4.6101468412736173 0 0.66913061440640931 0.74314481823134659 1 0 0 1 I I #
coedge $-1 $473 $473 $-1 $659 reversed $299 $-1 #
edge $-1 $660 0 $660 6.2831853071796004 $300 $661 forward 7 unknown #
vertex $-1 $303 $662 #
ellipse-curve $-1 25.238188752596308 21.565232550169107 4.6101468412736173 0 0.66913061440640931 0.74314481823134659 1 0 0 1 I I #
face $-1 $-1 $663 $68 $-1 $664 reversed single #
loop $-1 $-1 $310 $304 #
plane-surface $-1 0 0 8.4078101113299066 0 0 1 1 0 0 forward_v I I I I #
coedge $-1 $665 $666 $667 $668 reversed $305 $-1 #
coedge $-1 $669 $307 $309 $487 forward $191 $-1 #
coedge $-1 $307 $669 $665 $670 forward $191 $-1 #
coedge $-1 $667 $310 $307 $484 forward $478 $-1 #
edge $-1 $490 8.9076511777450733 $671 18.060618921341081 $483 $672 forward 7 unknown #
coedge $-1 $673 $674 $308 $486 forward $663 $-1 #
edge $-1 $675 -35.23285825921657 $489 -26.9626900935286 $485 $676 forward 7 unknown #
edge $-1 $490 -16.057391595989195 $675 -8.2919974363804304e-015 $309 $677 forward 7 unknown #
coedge $-1 $310 $667 $673 $678 forward $478 $-1 #
vertex $-1 $311 $679 #
vertex $-1 $311 $680 #
straight-curve $-1 -22.391786227288151 -34.102871626680752 8.4078101113299084 0 1 0 I I #
coedge $-1 $492 $492 $-1 $681 reversed $314 $-1 #
edge $-1 $682 0 $682 6.2831853071796004 $315 $683 forward 7 unknown #
vertex $-1 $318 $684 #
ellipse-curve $-1 -29.714160422164959 -18.901029340875329 4.2727260284859208 0 -0.51503808176128008 0.85716729658548041 0.5 0 0 1 I I #
coedge $-1 $496 $496 $-1 $685 reversed $321 $-1 #
edge $-1 $686 0 $686 6.2831853071796004 $322 $687 forward 7 unknown #
vertex $-1 $325 $688 #
ellipse-curve $-1 -26.968270099086158 -18.901029340875329 4.2727260284859208 0 -0.51503808176128008 0.85716729658548041 0.5 0 0 1 I I #
coedge $-1 $500 $500 $-1 $689 reversed $328 $-1 #
edge $-1 $690 0 $690 6.2831853071796004 $329 $691 forward 7 unknown #
vertex $-1 $332 $692 #
ellipse-curve $-1 -24.222379776007354 -18.901029340875329 4.2727260284859208 0 -0.51503808176128008 0.85716729658548041 0.5 0 0 1 I I #
face $-1 $-1 $516 $72 $-1 $693 forward single #
loop $-1 $-1 $694 $333 #
plane-surface $-1 0 -25.782964813149562 0 0 1 0 0 0 1 forward_v I I I I #
coedge $-1 $695 $696 $697 $698 reversed $334 $-1 #
coedge $-1 $699 $336 $338 $514 forward $210 $-1 #
coedge $-1 $336 $699 $695 $700 forward $210 $-1 #
coedge $-1 $697 $339 $336 $511 forward $516 $-1 #
edge $-1 $518 -1.0072804832596329 $701 8.1456872603363788 $510 $702 forward 7 unknown #
coedge $-1 $703 $704 $337 $513 forward $505 $-1 #
edge $-1 $705 -35.23285825921657 $517 -26.9626900935286 $512 $706 forward 7 unknown #
edge $-1 $518 -16.057391595989195 $705 -8.2919974363804304e-015 $338 $707 forward 7 unknown #
coedge $-1 $339 $697 $703 $708 forward $516 $-1 #
loop $-1 $-1 $697 $504 #
vertex $-1 $513 $709 #
vertex $-1 $340 $710 #
straight-curve $-1 -2.56192290527874 -34.102871626680752 8.4078101113299084 0 1 0 I I #
coedge $-1 $520 $520 $-1 $711 reversed $343 $-1 #
edge $-1 $712 0 $712 6.2831853071796004 $344 $713 forward 7 unknown #
vertex $-1 $347 $714 #
ellipse-curve $-1 -9.8842971001555497 -18.901029340875329 4.2727260284859208 0 -0.51503808176128008 0.85716729658548041 0.5 0 0 1 I I #
coedge $-1 $524 $524 $-1 $715 reversed $350 $-1 #
edge $-1 $716 0 $716 6.2831853071796004 $351 $717 forward 7 unknown #
vertex $-1 $354 $718 #
ellipse-curve $-1 -7.1384067770767459 -18.901029340875329 4.2727260284859208 0 -0.51503808176128008 0.85716729658548041 0.5 0 0 1 I I #
coedge $-1 $528 $528 $-1 $719 reversed $357 $-1 #
edge $-1 $720 0 $720 6.2831853071796004 $358 $721 forward 7 unknown #
vertex $-1 $361 $722 #
ellipse-curve $-1 -4.392516453997942 -18.901029340875329 4.2727260284859208 0 -0.51503808176128008 0.85716729658548041 0.5 0 0 1 I I #
face $-1 $-1 $544 $76 $-1 $723 forward single #
loop $-1 $-1 $724 $362 #
plane-surface $-1 0 -25.782964813149562 0 0 1 0 0 0 1 forward_v I I I I #
coedge $-1 $725 $726 $727 $728 reversed $363 $-1 #
coedge $-1 $729 $365 $367 $542 forward $229 $-1 #
coedge $-1 $365 $729 $725 $730 forward $229 $-1 #
coedge $-1 $727 $368 $365 $539 forward $544 $-1 #
edge $-1 $546 -10.922212144264339 $731 -1.7692444006683292 $538 $732 forward 7 unknown #
coedge $-1 $733 $734 $366 $541 forward $533 $-1 #
edge $-1 $735 -35.23285825921657 $545 -26.9626900935286 $540 $736 forward 7 unknown #
edge $-1 $546 -16.057391595989195 $735 -8.2919974363804304e-015 $367 $737 forward 7 unknown #
coedge $-1 $368 $727 $733 $738 forward $544 $-1 #
loop $-1 $-1 $727 $532 #
vertex $-1 $541 $739 #
vertex $-1 $369 $740 #
straight-curve $-1 17.267940416730674 -34.102871626680752 8.4078101113299084 0 1 0 I I #
coedge $-1 $548 $548 $-1 $741 reversed $372 $-1 #
edge $-1 $742 0 $742 6.2831853071796004 $373 $743 forward 7 unknown #
vertex $-1 $376 $744 #
ellipse-curve $-1 9.9455662218538592 -18.901029340875329 4.2727260284859208 0 -0.51503808176128008 0.85716729658548041 0.5 0 0 1 I I #
coedge $-1 $552 $552 $-1 $745 reversed $379 $-1 #
edge $-1 $746 0 $746 6.2831853071796004 $380 $747 forward 7 unknown #
vertex $-1 $383 $748 #
ellipse-curve $-1 12.69145654493267 -18.901029340875329 4.2727260284859208 0 -0.51503808176128008 0.85716729658548041 0.5 0 0 1 I I #
coedge $-1 $556 $556 $-1 $749 reversed $386 $-1 #
edge $-1 $750 0 $750 6.2831853071796004 $387 $751 forward 7 unknown #
vertex $-1 $390 $752 #
ellipse-curve $-1 15.437346868011467 -18.901029340875329 4.2727260284859208 0 -0.51503808176128008 0.85716729658548041 0.5 0 0 1 I I #
face $-1 $-1 $572 $80 $-1 $753 forward single #
loop $-1 $-1 $754 $391 #
plane-surface $-1 0 -25.782964813149562 0 0 1 0 0 0 1 forward_v I I I I #
coedge $-1 $755 $756 $757 $758 reversed $392 $-1 #
coedge $-1 $759 $394 $396 $570 forward $248 $-1 #
coedge $-1 $394 $759 $755 $760 forward $248 $-1 #
coedge $-1 $757 $397 $394 $567 forward $572 $-1 #
edge $-1 $574 -20.837143805269047 $761 -11.684176061673039 $566 $762 forward 7 unknown #
coedge $-1 $763 $764 $395 $569 forward $561 $-1 #
edge $-1 $765 -35.23285825921657 $573 -26.9626900935286 $568 $766 forward 7 unknown #
edge $-1 $574 -16.057391595989195 $765 -8.2919974363804304e-015 $396 $767 forward 7 unknown #
coedge $-1 $397 $757 $763 $768 forward $572 $-1 #
loop $-1 $-1 $757 $560 #
vertex $-1 $569 $769 #
vertex $-1 $398 $770 #
straight-curve $-1 37.09780373874009 -34.102871626680752 8.4078101113299084 0 1 0 I I #
coedge $-1 $576 $576 $-1 $771 reversed $401 $-1 #
edge $-1 $772 0 $772 6.2831853071796004 $402 $773 forward 7 unknown #
vertex $-1 $405 $774 #
ellipse-curve $-1 29.775429543863275 -18.901029340875329 4.2727260284859208 0 -0.51503808176128008 0.85716729658548041 0.5 0 0 1 I I #
coedge $-1 $580 $580 $-1 $775 reversed $408 $-1 #
edge $-1 $776 0 $776 6.2831853071796004 $409 $777 forward 7 unknown #
vertex $-1 $412 $778 #
ellipse-curve $-1 32.521319866942086 -18.901029340875329 4.2727260284859208 0 -0.51503808176128008 0.85716729658548041 0.5 0 0 1 I I #
coedge $-1 $584 $584 $-1 $779 reversed $415 $-1 #
edge $-1 $780 0 $780 6.2831853071796004 $416 $781 forward 7 unknown #
vertex $-1 $419 $782 #
ellipse-curve $-1 35.267210190020883 -18.901029340875329 4.2727260284859208 0 -0.51503808176128008 0.85716729658548041 0.5 0 0 1 I I #
face $-1 $-1 $435 $63 $-1 $783 reversed single #
loop $-1 $-1 $604 $420 #
plane-surface $-1 0 25.782964813149562 0 0 -1 0 0 0 -1 forward_v I I I I #
coedge $-1 $784 $602 $605 $785 forward $421 $-1 #
coedge $-1 $608 $423 $424 $596 reversed $267 $-1 #
coedge $-1 $602 $784 $423 $594 reversed $421 $-1 #
edge $-1 $609 -8.4078101113299066 $786 8.4078101113299066 $593 $787 forward 7 unknown #
coedge $-1 $425 $424 $784 $788 forward $169 $-1 #
edge $-1 $600 -41.184118167668693 $786 41.184118167668693 $592 $789 forward 7 unknown #
coedge $-1 $605 $604 $425 $598 reversed $589 $-1 #
edge $-1 $790 -41.184118167668693 $599 41.184118167668693 $597 $791 forward 7 unknown #
vertex $-1 $427 $792 #
vertex $-1 $611 $793 #
straight-curve $-1 41.184118167668693 0 -8.4078101113299066 0 -1 0 I I #
coedge $-1 $591 $593 $428 $603 reversed $421 $-1 #
edge $-1 $606 -25.782964813149562 $609 25.782964813149562 $602 $794 forward 7 unknown #
coedge $-1 $597 $429 $434 $612 forward $589 $-1 #
coedge $-1 $429 $597 $591 $785 reversed $589 $-1 #
vertex $-1 $430 $795 #
straight-curve $-1 0 25.782964813149562 8.4078101113299066 -1 0 0 I I #
coedge $-1 $431 $592 $433 $611 reversed $267 $-1 #
vertex $-1 $603 $796 #
straight-curve $-1 0 -25.782964813149562 8.4078101113299066 1 0 0 I I #
edge $-1 $436 -8.4078101113299066 $600 8.4078101113299066 $433 $797 forward 7 unknown #
edge $-1 $437 -8.4078101113299066 $599 8.4078101113299066 $434 $798 forward 7 unknown #
point $-1 41.184118167668693 -25.782964813149562 8.4078101113299066 #
point $-1 41.184118167668693 25.782964813149562 8.4078101113299066 #
face $-1 $-1 $799 $64 $-1 $800 reversed single #
loop $-1 $-1 $447 $439 #
plane-surface $-1 0 0 -8.4078101113299066 0 0 1 1 0 0 forward_v I I I I #
coedge $-1 $801 $442 $802 $803 reversed $275 $-1 #
coedge $-1 $442 $801 $622 $804 reversed $275 $-1 #
coedge $-1 $450 $449 $442 $621 reversed $440 $-1 #
edge $-1 $805 -8.4078101113299066 $806 8.4078101113299066 $620 $807 forward 7 unknown #
coedge $-1 $444 $443 $619 $804 forward $173 $-1 #
edge $-1 $452 -2.7765248839279622 $805 2.7765248839279622 $450 $808 forward 7 unknown #
coedge $-1 $809 $628 $444 $625 reversed $799 $-1 #
edge $-1 $810 -46.737167935524617 $626 -41.184118167668693 $624 $811 forward 7 unknown #
vertex $-1 $629 $812 #
straight-curve $-1 -41.184118167668693 0 8.4078101113299066 0 1 0 I I #
coedge $-1 $624 $813 $446 $629 forward $799 $-1 #
edge $-1 $632 -8.4078101113299066 $626 8.4078101113299066 $628 $814 forward 7 unknown #
coedge $-1 $802 $447 $813 $815 forward $616 $-1 #
coedge $-1 $447 $802 $449 $634 forward $616 $-1 #
vertex $-1 $815 $816 #
straight-curve $-1 -41.184118167668693 0 -8.4078101113299066 0 -1 0 I I #
edge $-1 $806 -2.7765248839279622 $451 2.7765248839279622 $449 $817 forward 7 unknown #
point $-1 -41.184118167668693 -21.140823150863909 -8.4078101113299066 #
point $-1 -41.184118167668693 -21.140823150863909 8.4078101113299066 #
loop $-1 $-1 $462 $454 #
plane-surface $-1 0 25.782964813149562 0 0 -1 0 0 0 -1 forward_v I I I I #
coedge $-1 $640 $457 $459 $644 reversed $283 $-1 #
coedge $-1 $457 $639 $818 $819 reversed $283 $-1 #
coedge $-1 $465 $460 $457 $642 forward $455 $-1 #
edge $-1 $645 -3.9410597131712137 $820 4.4944048127896963 $641 $821 forward 7 unknown #
coedge $-1 $459 $458 $648 $822 reversed $177 $-1 #
edge $-1 $823 -51.565929626299109 $645 -40.214892360054066 $639 $824 forward 7 unknown #
vertex $-1 $461 $825 #
straight-curve $-1 11.563940070622582 17.347500287188655 8.4078101113299049 1 0 0 I I #
coedge $-1 $818 $462 $465 $652 reversed $637 $-1 #
coedge $-1 $462 $818 $643 $822 forward $637 $-1 #
vertex $-1 $463 $826 #
straight-curve $-1 18.20382671475917 25.782964813149562 48.264176881980703 0 0 1 I I #
straight-curve $-1 18.20382671475917 -12.537988585916899 35.316825744500505 0 0.74314481823134659 -0.66913061440640931 I I #
edge $-1 $820 -28.051933567731158 $466 -18.20382671475917 $647 $827 forward 7 unknown #
point $-1 18.20382671475917 25.782964813149562 8.4078101113299066 #
point $-1 18.20382671475917 17.347500287188652 8.4078101113299084 #
edge $-1 $828 1 $828 0 $469 $-1 forward 7 unknown #
vertex $-1 $470 $829 #
ellipse-curve $-1 21.017571529894028 20.041120992619661 2.9174495083259266 0 0.66913061440640931 0.74314481823134659 1 0 0 1 I I #
point $-1 22.017571529894028 21.565232550169096 4.610146841273604 #
edge $-1 $830 1 $830 0 $473 $-1 forward 7 unknown #
vertex $-1 $474 $831 #
ellipse-curve $-1 25.238188752596308 20.041120992619661 2.9174495083259266 0 0.66913061440640931 0.74314481823134659 1 0 0 1 I I #
point $-1 26.238188752596308 21.565232550169096 4.610146841273604 #
loop $-1 $-1 $485 $477 #
plane-surface $-1 0 -25.782964813149562 0 0 1 0 0 0 1 forward_v I I I I #
coedge $-1 $666 $480 $482 $670 reversed $305 $-1 #
coedge $-1 $480 $665 $832 $833 reversed $305 $-1 #
coedge $-1 $488 $483 $480 $668 forward $478 $-1 #
edge $-1 $671 -22.083777758079655 $834 -8.3199068135311904 $667 $835 forward 7 unknown #
coedge $-1 $482 $481 $674 $836 reversed $191 $-1 #
edge $-1 $837 8.2919974363804304e-015 $671 16.057391595989195 $665 $838 forward 7 unknown #
vertex $-1 $484 $839 #
straight-curve $-1 -13.484135049543077 -12.019093868601097 8.4078101113299066 -1 0 0 I I #
coedge $-1 $832 $485 $488 $678 reversed $663 $-1 #
coedge $-1 $485 $832 $669 $836 forward $663 $-1 #
vertex $-1 $486 $840 #
straight-curve $-1 -22.391786227288151 -25.782964813149562 35.370500204858509 0 0 1 I I #
straight-curve $-1 -22.391786227288151 -25.782964813149569 0.13764194564193133 0 -0.85716729658548041 -0.51503808176128008 I I #
edge $-1 $834 -31.544753970884159 $489 -22.391786227288151 $673 $841 forward 7 unknown #
point $-1 -22.391786227288151 -25.782964813149562 8.4078101113299066 #
point $-1 -22.391786227288151 -12.019093868601098 8.4078101113299066 #
edge $-1 $842 1 $842 0 $492 $-1 forward 7 unknown #
vertex $-1 $493 $843 #
ellipse-curve $-1 -29.714160422164959 -18.116062703613498 2.9663221834137765 0 -0.51503808176128008 0.85716729658548041 0.5 0 0 1 I I #
point $-1 -29.214160422164959 -18.901029340875326 4.2727260284859199 #
edge $-1 $844 1 $844 0 $496 $-1 forward 7 unknown #
vertex $-1 $497 $845 #
ellipse-curve $-1 -26.968270099086158 -18.116062703613498 2.9663221834137765 0 -0.51503808176128008 0.85716729658548041 0.5 0 0 1 I I #
point $-1 -26.468270099086158 -18.901029340875326 4.2727260284859199 #
edge $-1 $846 1 $846 0 $500 $-1 forward 7 unknown #
vertex $-1 $501 $847 #
ellipse-curve $-1 -24.222379776007354 -18.116062703613498 2.9663221834137765 0 -0.51503808176128008 0.85716729658548041 0.5 0 0 1 I I #
point $-1 -23.722379776007354 -18.901029340875326 4.2727260284859199 #
plane-surface $-1 0 0 8.4078101113299066 0 0 1 1 0 0 forward_v I I I I #
coedge $-1 $704 $703 $696 $848 forward $505 $-1 #
coedge $-1 $696 $507 $509 $700 reversed $334 $-1 #
coedge $-1 $507 $695 $694 $848 reversed $334 $-1 #
coedge $-1 $515 $510 $507 $698 forward $516 $-1 #
edge $-1 $701 -22.083777758079655 $849 -8.3199068135311904 $697 $850 forward 7 unknown #
coedge $-1 $509 $508 $704 $851 reversed $210 $-1 #
edge $-1 $852 8.2919974363804304e-015 $701 16.057391595989195 $695 $853 forward 7 unknown #
vertex $-1 $511 $854 #
straight-curve $-1 -3.5692033885383729 -12.019093868601097 8.4078101113299066 -1 0 0 I I #
coedge $-1 $694 $512 $515 $708 reversed $505 $-1 #
coedge $-1 $512 $694 $699 $851 forward $505 $-1 #
vertex $-1 $513 $855 #
straight-curve $-1 -2.56192290527874 -25.782964813149562 35.370500204858509 0 0 1 I I #
straight-curve $-1 -2.56192290527874 -25.782964813149569 0.13764194564193133 0 -0.85716729658548041 -0.51503808176128008 I I #
edge $-1 $849 -11.714890648874752 $517 -2.56192290527874 $703 $856 forward 7 unknown #
point $-1 -2.56192290527874 -25.782964813149562 8.4078101113299066 #
point $-1 -2.56192290527874 -12.019093868601098 8.4078101113299066 #
edge $-1 $857 1 $857 0 $520 $-1 forward 7 unknown #
vertex $-1 $521 $858 #
ellipse-curve $-1 -9.8842971001555497 -18.116062703613498 2.9663221834137765 0 -0.51503808176128008 0.85716729658548041 0.5 0 0 1 I I #
point $-1 -9.3842971001555497 -18.901029340875326 4.2727260284859199 #
edge $-1 $859 1 $859 0 $524 $-1 forward 7 unknown #
vertex $-1 $525 $860 #
ellipse-curve $-1 -7.1384067770767459 -18.116062703613498 2.9663221834137765 0 -0.51503808176128008 0.85716729658548041 0.5 0 0 1 I I #
point $-1 -6.6384067770767459 -18.901029340875326 4.2727260284859199 #
edge $-1 $861 1 $861 0 $528 $-1 forward 7 unknown #
vertex $-1 $529 $862 #
ellipse-curve $-1 -4.392516453997942 -18.116062703613498 2.9663221834137765 0 -0.51503808176128008 0.85716729658548041 0.5 0 0 1 I I #
point $-1 -3.892516453997942 -18.901029340875326 4.2727260284859199 #
plane-surface $-1 0 0 8.4078101113299066 0 0 1 1 0 0 forward_v I I I I #
coedge $-1 $734 $733 $726 $863 forward $533 $-1 #
coedge $-1 $726 $535 $537 $730 reversed $363 $-1 #
coedge $-1 $535 $725 $724 $863 reversed $363 $-1 #
coedge $-1 $543 $538 $535 $728 forward $544 $-1 #
edge $-1 $731 -22.083777758079655 $864 -8.3199068135311904 $727 $865 forward 7 unknown #
coedge $-1 $537 $536 $734 $866 reversed $229 $-1 #
edge $-1 $867 8.2919974363804304e-015 $731 16.057391595989195 $725 $868 forward 7 unknown #
vertex $-1 $539 $869 #
straight-curve $-1 6.3457282724663351 -12.019093868601097 8.4078101113299066 -1 0 0 I I #
coedge $-1 $724 $540 $543 $738 reversed $533 $-1 #
coedge $-1 $540 $724 $729 $866 forward $533 $-1 #
vertex $-1 $541 $870 #
straight-curve $-1 17.267940416730674 -25.782964813149562 35.370500204858509 0 0 1 I I #
straight-curve $-1 17.267940416730674 -25.782964813149569 0.13764194564193133 0 -0.85716729658548041 -0.51503808176128008 I I #
edge $-1 $864 8.1149726731346643 $545 17.267940416730674 $733 $871 forward 7 unknown #
point $-1 17.267940416730674 -25.782964813149562 8.4078101113299066 #
point $-1 17.267940416730674 -12.019093868601098 8.4078101113299066 #
edge $-1 $872 1 $872 0 $548 $-1 forward 7 unknown #
vertex $-1 $549 $873 #
ellipse-curve $-1 9.9455662218538592 -18.116062703613498 2.9663221834137765 0 -0.51503808176128008 0.85716729658548041 0.5 0 0 1 I I #
point $-1 10.445566221853859 -18.901029340875326 4.2727260284859199 #
edge $-1 $874 1 $874 0 $552 $-1 forward 7 unknown #
vertex $-1 $553 $875 #
ellipse-curve $-1 12.69145654493267 -18.116062703613498 2.9663221834137765 0 -0.51503808176128008 0.85716729658548041 0.5 0 0 1 I I #
point $-1 13.19145654493267 -18.901029340875326 4.2727260284859199 #
edge $-1 $876 1 $876 0 $556 $-1 forward 7 unknown #
vertex $-1 $557 $877 #
ellipse-curve $-1 15.437346868011467 -18.116062703613498 2.9663221834137765 0 -0.51503808176128008 0.85716729658548041 0.5 0 0 1 I I #
point $-1 15.937346868011467 -18.901029340875326 4.2727260284859199 #
plane-surface $-1 0 0 8.4078101113299066 0 0 1 1 0 0 forward_v I I I I #
coedge $-1 $764 $763 $756 $878 forward $561 $-1 #
coedge $-1 $756 $563 $565 $760 reversed $392 $-1 #
coedge $-1 $563 $755 $754 $878 reversed $392 $-1 #
coedge $-1 $571 $566 $563 $758 forward $572 $-1 #
edge $-1 $761 -22.083777758079655 $879 -8.3199068135311904 $757 $880 forward 7 unknown #
coedge $-1 $565 $564 $764 $881 reversed $248 $-1 #
edge $-1 $882 8.2919974363804304e-015 $761 16.057391595989195 $755 $883 forward 7 unknown #
vertex $-1 $567 $884 #
straight-curve $-1 16.260659933471043 -12.019093868601097 8.4078101113299066 -1 0 0 I I #
coedge $-1 $754 $568 $571 $768 reversed $561 $-1 #
coedge $-1 $568 $754 $759 $881 forward $561 $-1 #
vertex $-1 $569 $885 #
straight-curve $-1 37.09780373874009 -25.782964813149562 35.370500204858509 0 0 1 I I #
straight-curve $-1 37.09780373874009 -25.782964813149569 0.13764194564193133 0 -0.85716729658548041 -0.51503808176128008 I I #
edge $-1 $879 27.944835995144082 $573 37.09780373874009 $763 $886 forward 7 unknown #
point $-1 37.09780373874009 -25.782964813149562 8.4078101113299066 #
point $-1 37.09780373874009 -12.019093868601098 8.4078101113299066 #
edge $-1 $887 1 $887 0 $576 $-1 forward 7 unknown #
vertex $-1 $577 $888 #
ellipse-curve $-1 29.775429543863275 -18.116062703613498 2.9663221834137765 0 -0.51503808176128008 0.85716729658548041 0.5 0 0 1 I I #
point $-1 30.275429543863275 -18.901029340875326 4.2727260284859199 #
edge $-1 $889 1 $889 0 $580 $-1 forward 7 unknown #
vertex $-1 $581 $890 #
ellipse-curve $-1 32.521319866942086 -18.116062703613498 2.9663221834137765 0 -0.51503808176128008 0.85716729658548041 0.5 0 0 1 I I #
point $-1 33.021319866942086 -18.901029340875326 4.2727260284859199 #
edge $-1 $891 1 $891 0 $584 $-1 forward 7 unknown #
vertex $-1 $585 $892 #
ellipse-curve $-1 35.267210190020883 -18.116062703613498 2.9663221834137765 0 -0.51503808176128008 0.85716729658548041 0.5 0 0 1 I I #
point $-1 35.767210190020883 -18.901029340875326 4.2727260284859199 #
plane-surface $-1 41.184118167668693 0 0 -1 0 0 0 0 1 forward_v I I I I #
coedge $-1 $593 $591 $595 $788 reversed $421 $-1 #
edge $-1 $606 -8.4078101113299066 $790 8.4078101113299066 $605 $893 forward 7 unknown #
vertex $-1 $788 $894 #
straight-curve $-1 -41.184118167668693 -25.782964813149562 0 0 0 -1 I I #
edge $-1 $786 -25.782964813149562 $790 25.782964813149562 $784 $895 forward 7 unknown #
straight-curve $-1 0 -25.782964813149562 -8.4078101113299066 -1 0 0 I I #
vertex $-1 $598 $896 #
straight-curve $-1 0 25.782964813149562 -8.4078101113299066 1 0 0 I I #
point $-1 41.184118167668693 25.782964813149562 -8.4078101113299066 #
point $-1 41.184118167668693 -25.782964813149562 -8.4078101113299066 #
straight-curve $-1 -41.184118167668693 0 8.4078101113299066 0 -1 0 I I #
point $-1 -41.184118167668693 25.782964813149562 8.4078101113299066 #
point $-1 -41.184118167668693 -25.782964813149562 8.4078101113299066 #
straight-curve $-1 41.184118167668693 -25.782964813149562 0 0 0 -1 I I #
straight-curve $-1 41.184118167668693 25.782964813149562 0 0 0 -1 I I #
loop $-1 $-1 $628 $615 #
plane-surface $-1 0 -25.782964813149562 0 0 1 0 0 0 1 forward_v I I I I #
coedge $-1 $619 $618 $809 $897 reversed $275 $-1 #
coedge $-1 $631 $630 $618 $803 forward $616 $-1 #
edge $-1 $898 -2.3210708311428263 $806 2.3210708311428263 $618 $899 forward 7 unknown #
edge $-1 $805 -2.3210708311428263 $810 2.3210708311428263 $619 $900 forward 7 unknown #
vertex $-1 $623 $901 #
vertex $-1 $634 $902 #
straight-curve $-1 -46.737167935524617 -21.140823150863909 0 0 0 -1 I I #
straight-curve $-1 -43.960643051596655 -21.140823150863909 8.4078101113299066 -1 0 0 I I #
coedge $-1 $813 $624 $801 $897 forward $799 $-1 #
vertex $-1 $804 $903 #
straight-curve $-1 0 -25.782964813149562 8.4078101113299066 1 0 0 I I #
point $-1 -41.184118167668693 -25.782964813149562 8.4078101113299066 #
coedge $-1 $628 $809 $630 $815 reversed $799 $-1 #
straight-curve $-1 -41.184118167668693 -25.782964813149562 0 0 0 1 I I #
edge $-1 $632 -2.7765248839279622 $898 2.7765248839279622 $813 $904 forward 7 unknown #
point $-1 -41.184118167668693 -25.782964813149562 -8.4078101113299066 #
straight-curve $-1 -43.960643051596655 -21.140823150863909 -8.4078101113299066 1 0 0 I I #
coedge $-1 $648 $647 $640 $819 forward $637 $-1 #
edge $-1 $820 39.856366770650794 $823 47.451693310763382 $818 $905 forward 7 unknown #
vertex $-1 $652 $906 #
straight-curve $-1 28.051933567731158 21.288560000359865 8.4078101113299084 0 1 0 I I #
edge $-1 $823 -16.487993497108576 $649 -6.6398866441365882 $648 $907 forward 7 unknown #
vertex $-1 $822 $908 #
straight-curve $-1 28.051933567731158 -12.537988585916899 35.316825744500505 0 -0.74314481823134659 0.66913061440640931 I I #
point $-1 28.051933567731158 17.347500287188652 8.4078101113299084 #
point $-1 18.20382671475917 25.782964813149562 0.81248357121732084 #
straight-curve $-1 0 25.782964813149562 8.4078101113299066 -1 0 0 I I #
vertex $-1 $655 $909 #
point $-1 22.017571529894028 20.041120992619661 2.9174495083259266 #
vertex $-1 $659 $910 #
point $-1 26.238188752596308 20.041120992619661 2.9174495083259266 #
coedge $-1 $674 $673 $666 $833 forward $663 $-1 #
edge $-1 $834 26.9626900935286 $837 35.23285825921657 $832 $911 forward 7 unknown #
vertex $-1 $678 $912 #
straight-curve $-1 -31.544753970884159 -34.102871626680752 8.4078101113299084 0 -1 0 I I #
edge $-1 $837 -18.060618921341081 $675 -8.9076511777450733 $674 $913 forward 7 unknown #
vertex $-1 $836 $914 #
straight-curve $-1 -31.544753970884159 -25.782964813149569 0.13764194564193133 0 0.85716729658548041 0.51503808176128008 I I #
point $-1 -31.544753970884159 -12.019093868601098 8.4078101113299066 #
point $-1 -22.391786227288151 -25.782964813149562 0.1376419456419356 #
straight-curve $-1 0 -25.782964813149562 8.4078101113299066 1 0 0 I I #
vertex $-1 $681 $915 #
point $-1 -29.214160422164959 -18.116062703613498 2.9663221834137765 #
vertex $-1 $685 $916 #
point $-1 -26.468270099086158 -18.116062703613498 2.9663221834137765 #
vertex $-1 $689 $917 #
point $-1 -23.722379776007354 -18.116062703613498 2.9663221834137765 #
edge $-1 $849 26.9626900935286 $852 35.23285825921657 $694 $918 forward 7 unknown #
vertex $-1 $708 $919 #
straight-curve $-1 -11.714890648874752 -34.102871626680752 8.4078101113299084 0 -1 0 I I #
edge $-1 $852 -8.1456872603363788 $705 1.0072804832596329 $704 $920 forward 7 unknown #
vertex $-1 $851 $921 #
straight-curve $-1 -11.714890648874752 -25.782964813149569 0.13764194564193133 0 0.85716729658548041 0.51503808176128008 I I #
point $-1 -11.714890648874752 -12.019093868601098 8.4078101113299066 #
point $-1 -2.56192290527874 -25.782964813149562 0.1376419456419356 #
straight-curve $-1 0 -25.782964813149562 8.4078101113299066 1 0 0 I I #
vertex $-1 $711 $922 #
point $-1 -9.3842971001555497 -18.116062703613498 2.9663221834137765 #
vertex $-1 $715 $923 #
point $-1 -6.6384067770767459 -18.116062703613498 2.9663221834137765 #
vertex $-1 $719 $924 #
point $-1 -3.892516453997942 -18.116062703613498 2.9663221834137765 #
edge $-1 $864 26.9626900935286 $867 35.23285825921657 $724 $925 forward 7 unknown #
vertex $-1 $738 $926 #
straight-curve $-1 8.1149726731346643 -34.102871626680752 8.4078101113299084 0 -1 0 I I #
edge $-1 $867 1.7692444006683292 $735 10.922212144264339 $734 $927 forward 7 unknown #
vertex $-1 $866 $928 #
straight-curve $-1 8.1149726731346643 -25.782964813149569 0.13764194564193133 0 0.85716729658548041 0.51503808176128008 I I #
point $-1 8.1149726731346643 -12.019093868601098 8.4078101113299066 #
point $-1 17.267940416730674 -25.782964813149562 0.1376419456419356 #
straight-curve $-1 0 -25.782964813149562 8.4078101113299066 1 0 0 I I #
vertex $-1 $741 $929 #
point $-1 10.445566221853859 -18.116062703613498 2.9663221834137765 #
vertex $-1 $745 $930 #
point $-1 13.19145654493267 -18.116062703613498 2.9663221834137765 #
vertex $-1 $749 $931 #
point $-1 15.937346868011467 -18.116062703613498 2.9663221834137765 #
edge $-1 $879 26.9626900935286 $882 35.23285825921657 $754 $932 forward 7 unknown #
vertex $-1 $768 $933 #
straight-curve $-1 27.944835995144082 -34.102871626680752 8.4078101113299084 0 -1 0 I I #
edge $-1 $882 11.684176061673039 $765 20.837143805269047 $764 $934 forward 7 unknown #
vertex $-1 $881 $935 #
straight-curve $-1 27.944835995144082 -25.782964813149569 0.13764194564193133 0 0.85716729658548041 0.51503808176128008 I I #
point $-1 27.944835995144082 -12.019093868601098 8.4078101113299066 #
point $-1 37.09780373874009 -25.782964813149562 0.1376419456419356 #
straight-curve $-1 0 -25.782964813149562 8.4078101113299066 1 0 0 I I #
vertex $-1 $771 $936 #
point $-1 30.275429543863275 -18.116062703613498 2.9663221834137765 #
vertex $-1 $775 $937 #
point $-1 33.021319866942086 -18.116062703613498 2.9663221834137765 #
vertex $-1 $779 $938 #
point $-1 35.767210190020883 -18.116062703613498 2.9663221834137765 #
straight-curve $-1 -41.184118167668693 25.782964813149562 0 0 0 -1 I I #
point $-1 -41.184118167668693 -25.782964813149562 -8.4078101113299066 #
straight-curve $-1 -41.184118167668693 0 -8.4078101113299066 0 1 0 I I #
point $-1 -41.184118167668693 25.782964813149562 -8.4078101113299066 #
edge $-1 $810 -8.4078101113299066 $898 8.4078101113299066 $801 $939 forward 7 unknown #
vertex $-1 $803 $940 #
straight-curve $-1 -46.737167935524617 -23.461893982006735 -8.4078101113299066 0 1 0 I I #
straight-curve $-1 -46.737167935524617 -23.461893982006735 8.4078101113299066 0 -1 0 I I #
point $-1 -46.737167935524617 -21.140823150863909 8.4078101113299066 #
point $-1 -46.737167935524617 -21.140823150863909 -8.4078101113299066 #
point $-1 -46.737167935524617 -25.782964813149562 8.4078101113299066 #
straight-curve $-1 -43.960643051596655 -25.782964813149562 -8.4078101113299066 -1 0 0 I I #
straight-curve $-1 28.051933567731158 25.782964813149562 48.264176881980703 0 0 -1 I I #
point $-1 28.051933567731158 25.782964813149562 8.4078101113299066 #
straight-curve $-1 11.563940070622582 25.782964813149558 0.81248357121732084 -1 0 0 I I #
point $-1 28.051933567731158 25.782964813149562 0.81248357121732084 #
point $-1 21.017571529894028 19.371990378213248 2.1743046900945799 #
point $-1 25.238188752596308 19.371990378213248 2.1743046900945799 #
straight-curve $-1 -31.544753970884159 -25.782964813149562 35.370500204858509 0 0 -1 I I #
point $-1 -31.544753970884159 -25.782964813149562 8.4078101113299066 #
straight-curve $-1 -13.484135049543077 -25.782964813149562 0.13764194564193474 1 0 0 I I #
point $-1 -31.544753970884159 -25.782964813149562 0.1376419456419356 #
point $-1 -29.714160422164959 -17.85854366273286 2.5377385351210364 #
point $-1 -26.968270099086158 -17.85854366273286 2.5377385351210364 #
point $-1 -24.222379776007354 -17.85854366273286 2.5377385351210364 #
straight-curve $-1 -11.714890648874752 -25.782964813149562 35.370500204858509 0 0 -1 I I #
point $-1 -11.714890648874752 -25.782964813149562 8.4078101113299066 #
straight-curve $-1 -3.5692033885383729 -25.782964813149562 0.13764194564193474 1 0 0 I I #
point $-1 -11.714890648874752 -25.782964813149562 0.1376419456419356 #
point $-1 -9.8842971001555497 -17.85854366273286 2.5377385351210364 #
point $-1 -7.1384067770767459 -17.85854366273286 2.5377385351210364 #
point $-1 -4.392516453997942 -17.85854366273286 2.5377385351210364 #
straight-curve $-1 8.1149726731346643 -25.782964813149562 35.370500204858509 0 0 -1 I I #
point $-1 8.1149726731346643 -25.782964813149562 8.4078101113299066 #
straight-curve $-1 6.3457282724663351 -25.782964813149562 0.13764194564193474 1 0 0 I I #
point $-1 8.1149726731346643 -25.782964813149562 0.1376419456419356 #
point $-1 9.9455662218538592 -17.85854366273286 2.5377385351210364 #
point $-1 12.69145654493267 -17.85854366273286 2.5377385351210364 #
point $-1 15.437346868011467 -17.85854366273286 2.5377385351210364 #
straight-curve $-1 27.944835995144082 -25.782964813149562 35.370500204858509 0 0 -1 I I #
point $-1 27.944835995144082 -25.782964813149562 8.4078101113299066 #
straight-curve $-1 16.260659933471043 -25.782964813149562 0.13764194564193474 1 0 0 I I #
point $-1 27.944835995144082 -25.782964813149562 0.1376419456419356 #
point $-1 29.775429543863275 -17.85854366273286 2.5377385351210364 #
point $-1 32.521319866942086 -17.85854366273286 2.5377385351210364 #
point $-1 35.267210190020883 -17.85854366273286 2.5377385351210364 #
straight-curve $-1 -46.737167935524617 -25.782964813149562 0 0 0 -1 I I #
point $-1 -46.737167935524617 -25.782964813149562 -8.4078101113299066 #
End-of-ACIS-data 