500 0 10 0           
7 Unknown 11 ACIS 5.0 NT 24 Fri Mar 26 00:49:21 1999 
-1 9.9999999999999995e-007 1e-010 
body $-1 $10 $-1 $11 #
body $-1 $12 $-1 $13 #
body $-1 $14 $-1 $15 #
body $-1 $16 $-1 $17 #
body $-1 $18 $-1 $19 #
body $-1 $20 $-1 $21 #
body $-1 $22 $-1 $23 #
body $-1 $24 $-1 $25 #
body $-1 $26 $-1 $27 #
body $-1 $28 $-1 $29 #
lump $-1 $-1 $30 $0 #
transform $-1 1 0 0 0 1 0 0 0 1 78.524124881740775 33.380241947393891 15.998209589356911 1 rotate no_reflect no_shear #
lump $-1 $-1 $31 $1 #
transform $-1 1 0 0 0 1 0 0 0 1 78.524124881740775 33.380241947393891 15.998209589356911 1 rotate no_reflect no_shear #
lump $-1 $-1 $32 $2 #
transform $-1 1 0 0 0 1 0 0 0 1 78.524124881740775 33.380241947393891 15.998209589356911 1 rotate no_reflect no_shear #
lump $-1 $-1 $33 $3 #
transform $-1 1 0 0 0 1 0 0 0 1 78.524124881740775 33.380241947393891 15.998209589356911 1 rotate no_reflect no_shear #
lump $-1 $-1 $34 $4 #
transform $-1 1 0 0 0 1 0 0 0 1 78.524124881740775 33.380241947393891 15.998209589356911 1 rotate no_reflect no_shear #
lump $-1 $-1 $35 $5 #
transform $-1 1 0 0 0 1 0 0 0 1 78.524124881740775 33.380241947393891 15.998209589356911 1 rotate no_reflect no_shear #
lump $-1 $-1 $36 $6 #
transform $-1 1 0 0 0 1 0 0 0 1 78.524124881740775 33.380241947393891 15.998209589356911 1 rotate no_reflect no_shear #
lump $-1 $-1 $37 $7 #
transform $-1 1 0 0 0 1 0 0 0 1 78.524124881740775 33.380241947393891 15.998209589356911 1 rotate no_reflect no_shear #
lump $-1 $-1 $38 $8 #
transform $-1 1 0 0 0 1 0 0 0 1 78.524124881740775 33.380241947393891 15.998209589356911 1 rotate no_reflect no_shear #
lump $-1 $-1 $39 $9 #
transform $-1 1 0 0 0 1 0 0 0 1 78.524124881740775 33.380241947393891 15.998209589356911 1 rotate no_reflect no_shear #
shell $-1 $-1 $-1 $40 $-1 $10 #
shell $-1 $-1 $-1 $41 $-1 $12 #
shell $-1 $-1 $-1 $42 $-1 $14 #
shell $-1 $-1 $-1 $43 $-1 $16 #
shell $-1 $-1 $-1 $44 $-1 $18 #
shell $-1 $-1 $-1 $45 $-1 $20 #
shell $-1 $-1 $-1 $46 $-1 $22 #
shell $-1 $-1 $-1 $47 $-1 $24 #
shell $-1 $-1 $-1 $48 $-1 $26 #
shell $-1 $-1 $-1 $49 $-1 $28 #
face $-1 $50 $51 $30 $-1 $52 forward single #
face $-1 $53 $54 $31 $-1 $55 forward single #
face $-1 $56 $57 $32 $-1 $58 reversed single #
face $-1 $59 $60 $33 $-1 $61 forward single #
face $-1 $62 $63 $34 $-1 $64 forward single #
face $-1 $65 $66 $35 $-1 $67 forward single #
face $-1 $68 $69 $36 $-1 $70 reversed single #
face $-1 $71 $72 $37 $-1 $73 forward single #
face $-1 $74 $75 $38 $-1 $76 forward single #
face $-1 $77 $78 $39 $-1 $79 forward single #
face $-1 $80 $81 $30 $-1 $82 reversed single #
loop $-1 $-1 $83 $40 #
plane-surface $-1 0 0 15.998209589356911 0 0 1 1 0 0 forward_v I I I I #
face $-1 $84 $85 $31 $-1 $86 reversed single #
loop $-1 $-1 $87 $41 #
plane-surface $-1 0 -33.380241947393891 0 0 1 0 0 0 1 forward_v I I I I #
face $-1 $88 $89 $32 $-1 $90 reversed single #
loop $-1 $-1 $91 $42 #
plane-surface $-1 -185.63077494453603 -20.093989360279068 117.00071528744888 0 1 0 -0.68199836817093118 0 0.7313536940579346 forward_v I I I I #
face $-1 $92 $93 $33 $-1 $94 forward single #
loop $-1 $95 $96 $43 #
cone-surface $-1 -70.469384287404765 -18.742835844110871 8.3995304254257057 0.68199836817093118 0 -0.7313536940579346 0.3656768470289673 0 0.34099918408546559 1 I I 0 1 0.5 forward I I I I #
face $-1 $97 $98 $34 $-1 $99 forward single #
loop $-1 $100 $101 $44 #
cone-surface $-1 -70.469384287404765 -16.716105569858577 8.3995304254257057 0.68199836817093118 0 -0.7313536940579346 0.3656768470289673 0 0.34099918408546559 1 I I 0 1 0.5 forward I I I I #
face $-1 $102 $103 $35 $-1 $104 forward single #
loop $-1 $105 $106 $45 #
cone-surface $-1 -70.469384287404765 -14.689375295606283 8.3995304254257057 0.68199836817093118 0 -0.7313536940579346 0.3656768470289673 0 0.34099918408546559 1 I I 0 1 0.5 forward I I I I #
face $-1 $107 $108 $36 $-1 $109 reversed single #
loop $-1 $-1 $110 $46 #
plane-surface $-1 70.77295733468064 -13.338221779438086 224.10736535024412 0 -1 0 -0.68199836817093118 0 -0.7313536940579346 forward_v I I I I #
face $-1 $111 $112 $37 $-1 $113 forward single #
loop $-1 $114 $115 $47 #
cone-surface $-1 70.46938428740475 -18.742835844110871 8.3995304254257057 -0.68199836817093118 0 -0.7313536940579346 0.3656768470289673 0 -0.34099918408546559 1 I I 0 1 0.5 forward I I I I #
face $-1 $116 $117 $38 $-1 $118 forward single #
loop $-1 $119 $120 $48 #
cone-surface $-1 70.46938428740475 -16.716105569858577 8.3995304254257057 -0.68199836817093118 0 -0.7313536940579346 0.3656768470289673 0 -0.34099918408546559 1 I I 0 1 0.5 forward I I I I #
face $-1 $121 $122 $39 $-1 $123 forward single #
loop $-1 $124 $125 $49 #
cone-surface $-1 70.46938428740475 -14.689375295606283 8.3995304254257057 -0.68199836817093118 0 -0.7313536940579346 0.3656768470289673 0 -0.34099918408546559 1 I I 0 1 0.5 forward I I I I #
face $-1 $126 $127 $30 $-1 $128 reversed single #
loop $-1 $-1 $129 $50 #
plane-surface $-1 0 0 -15.998209589356911 0 0 1 1 0 0 forward_v I I I I #
coedge $-1 $130 $131 $132 $133 forward $51 $-1 #
face $-1 $134 $135 $31 $-1 $136 forward single #
loop $-1 $-1 $137 $53 #
plane-surface $-1 -78.524124881740775 0 0 1 0 0 0 0 -1 forward_v I I I I #
coedge $-1 $138 $139 $140 $141 forward $54 $-1 #
face $-1 $142 $143 $32 $-1 $144 reversed single #
loop $-1 $-1 $145 $56 #
plane-surface $-1 -78.524124881740789 -16.716105569858577 2.1428976775934956 -0.68199836817093118 0 0.7313536940579346 0.7313536940579346 0 0.68199836817093118 forward_v I I I I #
coedge $-1 $146 $147 $148 $149 reversed $57 $-1 #
face $-1 $-1 $150 $33 $-1 $151 forward single #
loop $-1 $152 $153 $59 #
cone-surface $-1 -69.673145416798519 -18.742835844110871 7.5456687938617293 0.68199836817093118 0 -0.7313536940579346 0.18283842351448365 0 0.17049959204273279 1 I I -0.70710678118654746 0.70710678118654746 0.25 forward I I I I #
loop $-1 $-1 $154 $43 #
coedge $-1 $96 $96 $155 $156 reversed $60 $-1 #
face $-1 $-1 $157 $34 $-1 $158 forward single #
loop $-1 $159 $160 $62 #
cone-surface $-1 -69.673145416798519 -16.716105569858577 7.5456687938617293 0.68199836817093118 0 -0.7313536940579346 0.18283842351448365 0 0.17049959204273279 1 I I -0.70710678118654746 0.70710678118654746 0.25 forward I I I I #
loop $-1 $-1 $161 $44 #
coedge $-1 $101 $101 $162 $163 reversed $63 $-1 #
face $-1 $-1 $164 $35 $-1 $165 forward single #
loop $-1 $166 $167 $65 #
cone-surface $-1 -69.673145416798519 -14.689375295606283 7.5456687938617293 0.68199836817093118 0 -0.7313536940579346 0.18283842351448365 0 0.17049959204273279 1 I I -0.70710678118654746 0.70710678118654746 0.25 forward I I I I #
loop $-1 $-1 $168 $45 #
coedge $-1 $106 $106 $169 $170 reversed $66 $-1 #
face $-1 $171 $172 $36 $-1 $173 reversed single #
loop $-1 $-1 $174 $68 #
plane-surface $-1 -36.333692728114599 -16.716105569858577 109.24954774038873 0.68199836817093118 0 0.7313536940579346 0.7313536940579346 0 -0.68199836817093118 forward_v I I I I #
coedge $-1 $175 $176 $177 $178 reversed $69 $-1 #
face $-1 $-1 $179 $37 $-1 $180 forward single #
loop $-1 $181 $182 $71 #
cone-surface $-1 69.673145416798505 -18.742835844110871 7.5456687938617293 -0.68199836817093118 0 -0.7313536940579346 0.18283842351448365 0 -0.17049959204273279 1 I I -0.70710678118654746 0.70710678118654746 0.25 forward I I I I #
loop $-1 $-1 $183 $47 #
coedge $-1 $115 $115 $184 $185 reversed $72 $-1 #
face $-1 $-1 $186 $38 $-1 $187 forward single #
loop $-1 $188 $189 $74 #
cone-surface $-1 69.673145416798505 -16.716105569858577 7.5456687938617293 -0.68199836817093118 0 -0.7313536940579346 0.18283842351448365 0 -0.17049959204273279 1 I I -0.70710678118654746 0.70710678118654746 0.25 forward I I I I #
loop $-1 $-1 $190 $48 #
coedge $-1 $120 $120 $191 $192 reversed $75 $-1 #
face $-1 $-1 $193 $39 $-1 $194 forward single #
loop $-1 $195 $196 $77 #
cone-surface $-1 69.673145416798505 -14.689375295606283 7.5456687938617293 -0.68199836817093118 0 -0.7313536940579346 0.18283842351448365 0 -0.17049959204273279 1 I I -0.70710678118654746 0.70710678118654746 0.25 forward I I I I #
loop $-1 $-1 $197 $49 #
coedge $-1 $125 $125 $198 $199 reversed $78 $-1 #
face $-1 $200 $201 $30 $-1 $202 reversed single #
loop $-1 $-1 $203 $80 #
plane-surface $-1 0 -33.380241947393891 0 0 1 0 0 0 1 forward_v I I I I #
coedge $-1 $204 $205 $206 $207 forward $81 $-1 #
coedge $-1 $208 $83 $209 $210 forward $51 $-1 #
coedge $-1 $83 $208 $211 $212 forward $51 $-1 #
coedge $-1 $213 $214 $83 $133 reversed $215 $-1 #
edge $-1 $216 -33.380241947393891 $217 33.380241947393891 $132 $218 forward 7 unknown #
face $-1 $219 $220 $31 $-1 $221 reversed single #
loop $-1 $-1 $222 $84 #
plane-surface $-1 0 -40.023368240951299 0.64063646622973902 0 0 1 1 0 0 forward_v I I I I #
coedge $-1 $223 $224 $139 $225 forward $85 $-1 #
coedge $-1 $226 $87 $227 $228 reversed $54 $-1 #
coedge $-1 $87 $226 $137 $225 reversed $54 $-1 #
coedge $-1 $229 $222 $87 $141 reversed $135 $-1 #
edge $-1 $230 -78.524124881740775 $231 78.524124881740775 $140 $232 forward 7 unknown #
face $-1 $233 $234 $32 $-1 $235 forward single #
loop $-1 $-1 $236 $88 #
plane-surface $-1 -185.63077494453603 -13.338221779438086 117.00071528744888 0 -1 0 0.68199836817093118 0 -0.7313536940579346 forward_v I I I I #
coedge $-1 $237 $238 $239 $240 reversed $89 $-1 #
coedge $-1 $147 $91 $241 $242 reversed $57 $-1 #
coedge $-1 $91 $146 $237 $243 reversed $57 $-1 #
coedge $-1 $239 $244 $91 $149 forward $234 $-1 #
edge $-1 $245 14.291262590527239 $246 29.149265222072202 $148 $247 forward 7 unknown #
loop $-1 $-1 $155 $92 #
plane-surface $-1 -78.524124881740789 -16.716105569858577 2.1428976775934956 -0.68199836817093118 0 0.7313536940579346 0.7313536940579346 0 0.68199836817093118 forward_v I I I I #
loop $-1 $-1 $248 $59 #
coedge $-1 $153 $153 $154 $249 reversed $93 $-1 #
coedge $-1 $154 $154 $153 $249 forward $95 $-1 #
coedge $-1 $155 $155 $96 $156 forward $150 $-1 #
edge $-1 $250 0 $250 6.2831853071796004 $155 $251 forward 7 unknown #
loop $-1 $-1 $162 $97 #
plane-surface $-1 -78.524124881740789 -16.716105569858577 2.1428976775934956 -0.68199836817093118 0 0.7313536940579346 0.7313536940579346 0 0.68199836817093118 forward_v I I I I #
loop $-1 $-1 $252 $62 #
coedge $-1 $160 $160 $161 $253 reversed $98 $-1 #
coedge $-1 $161 $161 $160 $253 forward $100 $-1 #
coedge $-1 $162 $162 $101 $163 forward $157 $-1 #
edge $-1 $254 0 $254 6.2831853071796004 $162 $255 forward 7 unknown #
loop $-1 $-1 $169 $102 #
plane-surface $-1 -78.524124881740789 -16.716105569858577 2.1428976775934956 -0.68199836817093118 0 0.7313536940579346 0.7313536940579346 0 0.68199836817093118 forward_v I I I I #
loop $-1 $-1 $256 $65 #
coedge $-1 $167 $167 $168 $257 reversed $103 $-1 #
coedge $-1 $168 $168 $167 $257 forward $105 $-1 #
coedge $-1 $169 $169 $106 $170 forward $164 $-1 #
edge $-1 $258 0 $258 6.2831853071796004 $169 $259 forward 7 unknown #
face $-1 $260 $261 $36 $-1 $262 reversed single #
loop $-1 $-1 $263 $107 #
plane-surface $-1 70.77295733468064 -20.093989360279068 224.10736535024412 0 1 0 0.68199836817093118 0 0.7313536940579346 forward_v I I I I #
coedge $-1 $264 $265 $266 $267 reversed $108 $-1 #
coedge $-1 $176 $110 $268 $269 reversed $69 $-1 #
coedge $-1 $110 $175 $264 $270 reversed $69 $-1 #
coedge $-1 $266 $271 $110 $178 forward $272 $-1 #
edge $-1 $273 -43.137646214400455 $274 -28.279643582855492 $177 $275 forward 7 unknown #
loop $-1 $-1 $184 $111 #
plane-surface $-1 -36.333692728114599 -16.716105569858577 109.24954774038873 0.68199836817093118 0 0.7313536940579346 0.7313536940579346 0 -0.68199836817093118 forward_v I I I I #
loop $-1 $-1 $276 $71 #
coedge $-1 $182 $182 $183 $277 reversed $112 $-1 #
coedge $-1 $183 $183 $182 $277 forward $114 $-1 #
coedge $-1 $184 $184 $115 $185 forward $179 $-1 #
edge $-1 $278 0 $278 6.2831853071796004 $184 $279 forward 7 unknown #
loop $-1 $-1 $191 $116 #
plane-surface $-1 -36.333692728114599 -16.716105569858577 109.24954774038873 0.68199836817093118 0 0.7313536940579346 0.7313536940579346 0 -0.68199836817093118 forward_v I I I I #
loop $-1 $-1 $280 $74 #
coedge $-1 $189 $189 $190 $281 reversed $117 $-1 #
coedge $-1 $190 $190 $189 $281 forward $119 $-1 #
coedge $-1 $191 $191 $120 $192 forward $186 $-1 #
edge $-1 $282 0 $282 6.2831853071796004 $191 $283 forward 7 unknown #
loop $-1 $-1 $198 $121 #
plane-surface $-1 -36.333692728114599 -16.716105569858577 109.24954774038873 0.68199836817093118 0 0.7313536940579346 0.7313536940579346 0 -0.68199836817093118 forward_v I I I I #
loop $-1 $-1 $284 $77 #
coedge $-1 $196 $196 $197 $285 reversed $122 $-1 #
coedge $-1 $197 $197 $196 $285 forward $124 $-1 #
coedge $-1 $198 $198 $125 $199 forward $193 $-1 #
edge $-1 $286 0 $286 6.2831853071796004 $198 $287 forward 7 unknown #
face $-1 $288 $289 $30 $-1 $290 reversed single #
loop $-1 $-1 $291 $126 #
plane-surface $-1 -78.524124881740775 0 0 1 0 0 0 0 -1 forward_v I I I I #
coedge $-1 $292 $211 $293 $294 forward $127 $-1 #
coedge $-1 $295 $129 $292 $296 forward $81 $-1 #
coedge $-1 $129 $295 $297 $298 forward $81 $-1 #
coedge $-1 $214 $213 $129 $207 reversed $215 $-1 #
edge $-1 $299 -33.380241947393891 $300 33.380241947393891 $206 $301 forward 7 unknown #
coedge $-1 $131 $130 $302 $303 forward $51 $-1 #
coedge $-1 $304 $305 $130 $210 reversed $289 $-1 #
edge $-1 $217 -78.524124881740775 $306 78.524124881740775 $209 $307 forward 7 unknown #
coedge $-1 $203 $308 $131 $212 reversed $127 $-1 #
edge $-1 $309 -78.524124881740775 $216 78.524124881740775 $211 $310 forward 7 unknown #
coedge $-1 $206 $132 $308 $311 forward $215 $-1 #
coedge $-1 $132 $206 $304 $312 reversed $215 $-1 #
loop $-1 $-1 $213 $288 #
vertex $-1 $133 $313 #
vertex $-1 $133 $314 #
straight-curve $-1 78.524124881740775 0 15.998209589356911 0 1 0 I I #
face $-1 $315 $316 $31 $-1 $317 reversed single #
loop $-1 $-1 $318 $134 #
plane-surface $-1 0 -40.023368240951299 -4.1457903622349219 0 0 1 1 0 0 forward_v I I I I #
coedge $-1 $140 $319 $320 $321 forward $135 $-1 #
coedge $-1 $322 $137 $323 $324 reversed $85 $-1 #
coedge $-1 $137 $322 $229 $325 reversed $85 $-1 #
edge $-1 $230 -0.64063646622973902 $326 4.1457903622349219 $137 $327 forward 7 unknown #
coedge $-1 $139 $138 $328 $329 forward $54 $-1 #
coedge $-1 $320 $330 $138 $228 forward $331 $-1 #
edge $-1 $332 -4.1457903622349219 $231 0.64063646622973902 $227 $333 forward 7 unknown #
coedge $-1 $319 $140 $224 $325 forward $135 $-1 #
vertex $-1 $225 $334 #
vertex $-1 $321 $335 #
straight-curve $-1 0 -33.380241947393891 0.64063646622973902 1 0 0 I I #
face $-1 $-1 $336 $32 $-1 $337 reversed single #
loop $-1 $-1 $148 $142 #
plane-surface $-1 0 0 15.998209589356911 0 0 1 1 0 0 forward_v I I I I #
coedge $-1 $338 $339 $340 $341 reversed $143 $-1 #
coedge $-1 $342 $145 $147 $243 forward $89 $-1 #
coedge $-1 $145 $342 $338 $343 forward $89 $-1 #
coedge $-1 $340 $148 $145 $240 forward $234 $-1 #
edge $-1 $246 -11.735936575349779 $344 -4.9801689945087979 $239 $345 forward 7 unknown #
coedge $-1 $346 $347 $146 $242 forward $336 $-1 #
edge $-1 $348 -56.357459966130932 $245 -42.502148054367531 $241 $349 forward 7 unknown #
edge $-1 $246 -20.315755225224848 $348 -1.9479204584885432e-014 $147 $350 forward 7 unknown #
coedge $-1 $148 $340 $346 $351 forward $234 $-1 #
vertex $-1 $242 $352 #
vertex $-1 $149 $353 #
straight-curve $-1 -92.815387472268014 -20.093989360279068 15.998209589356911 1 0 0 I I #
coedge $-1 $248 $248 $-1 $354 reversed $152 $-1 #
edge $-1 $355 0 $355 6.2831853071796004 $153 $356 forward 7 unknown #
vertex $-1 $156 $357 #
ellipse-curve $-1 -71.095123565968294 -18.742835844110871 9.0705536334752086 -0.68199836817093118 0 0.7313536940579346 0.3656768470289673 0 0.34099918408546559 1 I I #
coedge $-1 $252 $252 $-1 $358 reversed $159 $-1 #
edge $-1 $359 0 $359 6.2831853071796004 $160 $360 forward 7 unknown #
vertex $-1 $163 $361 #
ellipse-curve $-1 -71.095123565968294 -16.716105569858577 9.0705536334752086 -0.68199836817093118 0 0.7313536940579346 0.3656768470289673 0 0.34099918408546559 1 I I #
coedge $-1 $256 $256 $-1 $362 reversed $166 $-1 #
edge $-1 $363 0 $363 6.2831853071796004 $167 $364 forward 7 unknown #
vertex $-1 $170 $365 #
ellipse-curve $-1 -71.095123565968294 -14.689375295606283 9.0705536334752086 -0.68199836817093118 0 0.7313536940579346 0.3656768470289673 0 0.34099918408546559 1 I I #
face $-1 $-1 $272 $36 $-1 $366 forward single #
loop $-1 $-1 $367 $171 #
plane-surface $-1 78.524124881740775 0 0 -1 0 0 0 0 1 forward_v I I I I #
coedge $-1 $368 $369 $370 $371 reversed $172 $-1 #
coedge $-1 $372 $174 $176 $270 forward $108 $-1 #
coedge $-1 $174 $372 $368 $373 forward $108 $-1 #
coedge $-1 $370 $177 $174 $267 forward $272 $-1 #
edge $-1 $274 4.9801689945087979 $374 11.735936575349779 $266 $375 forward 7 unknown #
coedge $-1 $376 $377 $175 $269 forward $261 $-1 #
edge $-1 $378 -109.91078499752855 $273 -96.055473085765158 $268 $379 forward 7 unknown #
edge $-1 $274 136.7324945382567 $378 157.04824976348152 $176 $380 forward 7 unknown #
coedge $-1 $177 $370 $376 $381 forward $272 $-1 #
loop $-1 $-1 $370 $260 #
vertex $-1 $269 $382 #
vertex $-1 $178 $383 #
straight-curve $-1 35.38647866734032 -13.338221779438086 15.998209589356904 -1 0 0 I I #
coedge $-1 $276 $276 $-1 $384 reversed $181 $-1 #
edge $-1 $385 0 $385 6.2831853071796004 $182 $386 forward 7 unknown #
vertex $-1 $185 $387 #
ellipse-curve $-1 71.095123565968279 -18.742835844110871 9.0705536334752104 0.68199836817093118 0 0.7313536940579346 0.3656768470289673 0 -0.34099918408546559 1 I I #
coedge $-1 $280 $280 $-1 $388 reversed $188 $-1 #
edge $-1 $389 0 $389 6.2831853071796004 $189 $390 forward 7 unknown #
vertex $-1 $192 $391 #
ellipse-curve $-1 71.095123565968279 -16.716105569858577 9.0705536334752104 0.68199836817093118 0 0.7313536940579346 0.3656768470289673 0 -0.34099918408546559 1 I I #
coedge $-1 $284 $284 $-1 $392 reversed $195 $-1 #
edge $-1 $393 0 $393 6.2831853071796004 $196 $394 forward 7 unknown #
vertex $-1 $199 $395 #
ellipse-curve $-1 71.095123565968279 -14.689375295606283 9.0705536334752104 0.68199836817093118 0 0.7313536940579346 0.3656768470289673 0 -0.34099918408546559 1 I I #
face $-1 $-1 $215 $30 $-1 $396 reversed single #
loop $-1 $-1 $304 $200 #
plane-surface $-1 0 33.380241947393891 0 0 -1 0 0 0 -1 forward_v I I I I #
coedge $-1 $397 $302 $305 $398 forward $201 $-1 #
coedge $-1 $308 $203 $204 $296 reversed $127 $-1 #
coedge $-1 $302 $397 $203 $294 reversed $201 $-1 #
edge $-1 $309 -15.998209589356911 $399 15.998209589356911 $293 $400 forward 7 unknown #
coedge $-1 $205 $204 $397 $401 forward $81 $-1 #
edge $-1 $300 -78.524124881740775 $399 78.524124881740775 $292 $402 forward 7 unknown #
coedge $-1 $305 $304 $205 $298 reversed $289 $-1 #
edge $-1 $403 -78.524124881740775 $299 78.524124881740775 $297 $404 forward 7 unknown #
vertex $-1 $207 $405 #
vertex $-1 $311 $406 #
straight-curve $-1 78.524124881740775 0 -15.998209589356911 0 -1 0 I I #
coedge $-1 $291 $293 $208 $303 reversed $201 $-1 #
edge $-1 $306 -33.380241947393891 $309 33.380241947393891 $302 $407 forward 7 unknown #
coedge $-1 $297 $209 $214 $312 forward $289 $-1 #
coedge $-1 $209 $297 $291 $398 reversed $289 $-1 #
vertex $-1 $210 $408 #
straight-curve $-1 0 33.380241947393891 15.998209589356911 -1 0 0 I I #
coedge $-1 $211 $292 $213 $311 reversed $127 $-1 #
vertex $-1 $303 $409 #
straight-curve $-1 0 -33.380241947393891 15.998209589356911 1 0 0 I I #
edge $-1 $216 -15.998209589356911 $300 15.998209589356911 $213 $410 forward 7 unknown #
edge $-1 $217 -15.998209589356911 $299 15.998209589356911 $214 $411 forward 7 unknown #
point $-1 78.524124881740775 -33.380241947393891 15.998209589356911 #
point $-1 78.524124881740775 33.380241947393891 15.998209589356911 #
face $-1 $-1 $331 $31 $-1 $412 reversed single #
loop $-1 $-1 $413 $219 #
plane-surface $-1 0 -46.666494534508708 -1.7525769480025915 0 1 0 0 0 1 forward_v I I I I #
coedge $-1 $414 $328 $330 $415 forward $220 $-1 #
coedge $-1 $222 $229 $416 $417 forward $135 $-1 #
coedge $-1 $418 $227 $222 $321 reversed $331 $-1 #
edge $-1 $419 -6.6431262935574082 $231 6.6431262935574082 $320 $420 forward 7 unknown #
coedge $-1 $224 $223 $413 $421 reversed $85 $-1 #
coedge $-1 $328 $414 $223 $324 forward $220 $-1 #
edge $-1 $422 -6.6431262935574082 $326 6.6431262935574082 $223 $423 forward 7 unknown #
edge $-1 $230 -6.6431262935574082 $424 6.6431262935574082 $224 $425 forward 7 unknown #
vertex $-1 $225 $426 #
straight-curve $-1 -78.524124881740775 -33.380241947393891 0 0 0 -1 I I #
coedge $-1 $318 $323 $226 $329 reversed $220 $-1 #
edge $-1 $332 -78.524124881740775 $326 78.524124881740775 $328 $427 forward 7 unknown #
coedge $-1 $227 $418 $318 $415 reversed $331 $-1 #
loop $-1 $-1 $227 $315 #
vertex $-1 $228 $428 #
straight-curve $-1 78.524124881740775 -33.380241947393891 0 0 0 1 I I #
point $-1 -78.524124881740775 -33.380241947393891 0.64063646622973902 #
point $-1 78.524124881740775 -33.380241947393891 0.64063646622973902 #
loop $-1 $-1 $241 $233 #
plane-surface $-1 -78.524124881740775 0 0 1 0 0 0 0 -1 forward_v I I I I #
coedge $-1 $339 $236 $238 $343 reversed $143 $-1 #
coedge $-1 $236 $338 $429 $430 reversed $143 $-1 #
coedge $-1 $244 $239 $236 $341 forward $234 $-1 #
edge $-1 $344 -29.149265222072202 $431 -14.291262590527239 $340 $432 forward 7 unknown #
coedge $-1 $238 $237 $347 $433 reversed $89 $-1 #
edge $-1 $434 1.9479204584885432e-014 $344 20.315755225224848 $338 $435 forward 7 unknown #
vertex $-1 $240 $436 #
straight-curve $-1 -63.666122250195805 -8.3580527849292885 15.998209589356911 0 1 0 I I #
coedge $-1 $429 $241 $244 $351 reversed $336 $-1 #
coedge $-1 $241 $429 $342 $433 forward $336 $-1 #
vertex $-1 $242 $437 #
straight-curve $-1 -78.524124881740775 -20.093989360279068 58.500357643724442 0 0 1 I I #
straight-curve $-1 -78.524124881740789 -20.093989360279068 2.1428976775934956 -0.7313536940579346 0 -0.68199836817093118 I I #
edge $-1 $431 13.338221779438086 $245 20.093989360279068 $346 $438 forward 7 unknown #
point $-1 -78.524124881740775 -20.093989360279068 15.998209589356911 #
point $-1 -63.666122250195812 -20.093989360279068 15.998209589356911 #
edge $-1 $439 1 $439 0 $248 $-1 forward 7 unknown #
vertex $-1 $249 $440 #
ellipse-curve $-1 -69.84364500884125 -18.742835844110871 7.7285072173762126 -0.68199836817093118 0 0.7313536940579346 0.3656768470289673 0 0.34099918408546559 1 I I #
point $-1 -70.729446718939329 -18.742835844110871 9.4115528175606649 #
edge $-1 $441 1 $441 0 $252 $-1 forward 7 unknown #
vertex $-1 $253 $442 #
ellipse-curve $-1 -69.84364500884125 -16.716105569858577 7.7285072173762126 -0.68199836817093118 0 0.7313536940579346 0.3656768470289673 0 0.34099918408546559 1 I I #
point $-1 -70.729446718939329 -16.716105569858577 9.4115528175606649 #
edge $-1 $443 1 $443 0 $256 $-1 forward 7 unknown #
vertex $-1 $257 $444 #
ellipse-curve $-1 -69.84364500884125 -14.689375295606283 7.7285072173762126 -0.68199836817093118 0 0.7313536940579346 0.3656768470289673 0 0.34099918408546559 1 I I #
point $-1 -70.729446718939329 -14.689375295606283 9.4115528175606649 #
plane-surface $-1 0 0 15.998209589356911 0 0 1 1 0 0 forward_v I I I I #
coedge $-1 $377 $376 $369 $445 forward $261 $-1 #
coedge $-1 $369 $263 $265 $373 reversed $172 $-1 #
coedge $-1 $263 $368 $367 $445 reversed $172 $-1 #
coedge $-1 $271 $266 $263 $371 forward $272 $-1 #
edge $-1 $374 28.279643582855492 $446 43.137646214400455 $370 $447 forward 7 unknown #
coedge $-1 $265 $264 $377 $448 reversed $108 $-1 #
edge $-1 $449 -157.04824976348152 $374 -136.7324945382567 $368 $450 forward 7 unknown #
vertex $-1 $267 $451 #
straight-curve $-1 63.666122250195812 -8.3580527849292885 15.998209589356918 0 -1 0 I I #
coedge $-1 $367 $268 $271 $381 reversed $261 $-1 #
coedge $-1 $268 $367 $372 $448 forward $261 $-1 #
vertex $-1 $269 $452 #
straight-curve $-1 78.524124881740775 -13.338221779438086 112.05368267512206 0 0 1 I I #
straight-curve $-1 -36.333692728114599 -13.338221779438086 109.24954774038873 0.7313536940579346 0 -0.68199836817093118 I I #
edge $-1 $446 -20.093989360279068 $273 -13.338221779438086 $376 $453 forward 7 unknown #
point $-1 78.524124881740775 -13.338221779438086 15.998209589356911 #
point $-1 63.666122250195812 -13.338221779438086 15.998209589356904 #
edge $-1 $454 1 $454 0 $276 $-1 forward 7 unknown #
vertex $-1 $277 $455 #
ellipse-curve $-1 69.843645008841236 -18.742835844110871 7.7285072173762126 0.68199836817093118 0 0.7313536940579346 0.3656768470289673 0 -0.34099918408546559 1 I I #
point $-1 71.460800412997244 -18.742835844110871 8.7295544493897328 #
edge $-1 $456 1 $456 0 $280 $-1 forward 7 unknown #
vertex $-1 $281 $457 #
ellipse-curve $-1 69.843645008841236 -16.716105569858577 7.7285072173762126 0.68199836817093118 0 0.7313536940579346 0.3656768470289673 0 -0.34099918408546559 1 I I #
point $-1 71.460800412997244 -16.716105569858577 8.7295544493897328 #
edge $-1 $458 1 $458 0 $284 $-1 forward 7 unknown #
vertex $-1 $285 $459 #
ellipse-curve $-1 69.843645008841236 -14.689375295606283 7.7285072173762126 0.68199836817093118 0 0.7313536940579346 0.3656768470289673 0 -0.34099918408546559 1 I I #
point $-1 71.460800412997244 -14.689375295606283 8.7295544493897328 #
plane-surface $-1 78.524124881740775 0 0 -1 0 0 0 0 1 forward_v I I I I #
coedge $-1 $293 $291 $295 $401 reversed $201 $-1 #
edge $-1 $306 -15.998209589356911 $403 15.998209589356911 $305 $460 forward 7 unknown #
vertex $-1 $401 $461 #
straight-curve $-1 -78.524124881740775 -33.380241947393891 0 0 0 -1 I I #
edge $-1 $399 -33.380241947393891 $403 33.380241947393891 $397 $462 forward 7 unknown #
straight-curve $-1 0 -33.380241947393891 -15.998209589356911 -1 0 0 I I #
vertex $-1 $298 $463 #
straight-curve $-1 0 33.380241947393891 -15.998209589356911 1 0 0 I I #
point $-1 78.524124881740775 33.380241947393891 -15.998209589356911 #
point $-1 78.524124881740775 -33.380241947393891 -15.998209589356911 #
straight-curve $-1 -78.524124881740775 0 15.998209589356911 0 -1 0 I I #
point $-1 -78.524124881740775 33.380241947393891 15.998209589356911 #
point $-1 -78.524124881740775 -33.380241947393891 15.998209589356911 #
straight-curve $-1 78.524124881740775 -33.380241947393891 0 0 0 -1 I I #
straight-curve $-1 78.524124881740775 33.380241947393891 0 0 0 -1 I I #
plane-surface $-1 78.524124881740775 0 0 -1 0 0 0 0 1 forward_v I I I I #
coedge $-1 $464 $416 $322 $421 forward $316 $-1 #
coedge $-1 $323 $318 $464 $465 forward $220 $-1 #
edge $-1 $332 -6.6431262935574082 $466 6.6431262935574082 $330 $467 forward 7 unknown #
coedge $-1 $413 $468 $319 $417 reversed $316 $-1 #
edge $-1 $424 -78.524124881740775 $419 78.524124881740775 $416 $469 forward 7 unknown #
coedge $-1 $330 $320 $468 $470 forward $331 $-1 #
vertex $-1 $321 $471 #
straight-curve $-1 78.524124881740775 -40.023368240951299 0.64063646622973902 0 1 0 I I #
edge $-1 $424 -2.3932134142323305 $422 2.3932134142323305 $322 $472 forward 7 unknown #
vertex $-1 $324 $473 #
straight-curve $-1 -78.524124881740775 -40.023368240951299 -4.1457903622349219 0 1 0 I I #
vertex $-1 $325 $474 #
straight-curve $-1 -78.524124881740775 -40.023368240951299 0.64063646622973902 0 -1 0 I I #
point $-1 -78.524124881740775 -33.380241947393891 -4.1457903622349219 #
straight-curve $-1 0 -33.380241947393891 -4.1457903622349219 -1 0 0 I I #
point $-1 78.524124881740775 -33.380241947393891 -4.1457903622349219 #
coedge $-1 $347 $346 $339 $430 forward $336 $-1 #
edge $-1 $431 42.502148054367531 $434 56.357459966130932 $429 $475 forward 7 unknown #
vertex $-1 $351 $476 #
straight-curve $-1 -92.815387472268014 -13.338221779438086 15.998209589356911 -1 0 0 I I #
edge $-1 $434 4.9801689945087979 $348 11.735936575349779 $347 $477 forward 7 unknown #
vertex $-1 $433 $478 #
straight-curve $-1 -78.524124881740789 -13.338221779438086 2.1428976775934956 0.7313536940579346 0 0.68199836817093118 I I #
point $-1 -63.666122250195812 -13.338221779438086 15.998209589356911 #
point $-1 -78.524124881740775 -20.093989360279068 2.1428976775935089 #
straight-curve $-1 -78.524124881740775 0 15.998209589356911 0 -1 0 I I #
vertex $-1 $354 $479 #
point $-1 -69.477968161812285 -18.742835844110871 8.0695064014616786 #
vertex $-1 $358 $480 #
point $-1 -69.477968161812285 -16.716105569858577 8.0695064014616786 #
vertex $-1 $362 $481 #
point $-1 -69.477968161812285 -14.689375295606283 8.0695064014616786 #
edge $-1 $446 96.055473085765158 $449 109.91078499752855 $367 $482 forward 7 unknown #
vertex $-1 $381 $483 #
straight-curve $-1 35.38647866734032 -20.093989360279068 15.998209589356904 1 0 0 I I #
edge $-1 $449 -11.735936575349779 $378 -4.9801689945087979 $377 $484 forward 7 unknown #
vertex $-1 $448 $485 #
straight-curve $-1 -36.333692728114599 -20.093989360279068 109.24954774038873 -0.7313536940579346 0 0.68199836817093118 I I #
point $-1 63.666122250195812 -20.093989360279068 15.998209589356904 #
point $-1 78.524124881740761 -13.338221779438086 2.1428976775935098 #
straight-curve $-1 78.524124881740775 0 15.998209589356911 0 1 0 I I #
vertex $-1 $384 $486 #
point $-1 70.209321855870201 -18.742835844110871 7.3875080332907475 #
vertex $-1 $388 $487 #
point $-1 70.209321855870201 -16.716105569858577 7.3875080332907475 #
vertex $-1 $392 $488 #
point $-1 70.209321855870201 -14.689375295606283 7.3875080332907475 #
straight-curve $-1 -78.524124881740775 33.380241947393891 0 0 0 -1 I I #
point $-1 -78.524124881740775 -33.380241947393891 -15.998209589356911 #
straight-curve $-1 -78.524124881740775 0 -15.998209589356911 0 1 0 I I #
point $-1 -78.524124881740775 33.380241947393891 -15.998209589356911 #
coedge $-1 $468 $413 $414 $465 reversed $316 $-1 #
edge $-1 $466 -78.524124881740775 $422 78.524124881740775 $464 $489 forward 7 unknown #
vertex $-1 $470 $490 #
straight-curve $-1 78.524124881740775 -40.023368240951299 -4.1457903622349219 0 -1 0 I I #
coedge $-1 $416 $464 $418 $470 reversed $316 $-1 #
straight-curve $-1 0 -46.666494534508708 0.64063646622973902 1 0 0 I I #
edge $-1 $419 -2.3932134142323305 $466 2.3932134142323305 $418 $491 forward 7 unknown #
point $-1 78.524124881740775 -46.666494534508708 0.64063646622973902 #
straight-curve $-1 -78.524124881740775 -46.666494534508708 -1.7525769480025915 0 0 -1 I I #
point $-1 -78.524124881740775 -46.666494534508708 -4.1457903622349219 #
point $-1 -78.524124881740775 -46.666494534508708 0.64063646622973902 #
straight-curve $-1 -78.524124881740775 -13.338221779438086 58.500357643724442 0 0 -1 I I #
point $-1 -78.524124881740775 -13.338221779438086 15.998209589356911 #
straight-curve $-1 -78.524124881740775 -8.3580527849292885 2.1428976775935213 0 -1 0 I I #
point $-1 -78.524124881740775 -13.338221779438086 2.1428976775935089 #
point $-1 -69.502645824755788 -18.742835844110871 7.362830370347246 #
point $-1 -69.502645824755788 -16.716105569858577 7.362830370347246 #
point $-1 -69.502645824755788 -14.689375295606283 7.362830370347246 #
straight-curve $-1 78.524124881740775 -20.093989360279068 112.05368267512206 0 0 -1 I I #
point $-1 78.524124881740775 -20.093989360279068 15.998209589356911 #
straight-curve $-1 78.524124881740775 -8.3580527849292885 2.1428976775935169 0 1 0 I I #
point $-1 78.524124881740761 -20.093989360279068 2.1428976775935098 #
point $-1 69.502645824755774 -18.742835844110871 7.362830370347246 #
point $-1 69.502645824755774 -16.716105569858577 7.362830370347246 #
point $-1 69.502645824755774 -14.689375295606283 7.362830370347246 #
straight-curve $-1 0 -46.666494534508708 -4.1457903622349219 -1 0 0 I I #
point $-1 78.524124881740775 -46.666494534508708 -4.1457903622349219 #
straight-curve $-1 78.524124881740775 -46.666494534508708 -1.7525769480025915 0 0 -1 I I #
End-of-ACIS-data 