500 0 13 0           
7 Unknown 11 ACIS 5.0 NT 24 Fri Mar 26 18:56:10 1999 
-1 9.9999999999999995e-007 1e-010 
body $-1 $13 $-1 $14 #
body $-1 $15 $-1 $16 #
body $-1 $17 $-1 $18 #
body $-1 $19 $-1 $20 #
body $-1 $21 $-1 $22 #
body $-1 $23 $-1 $24 #
body $-1 $25 $-1 $26 #
body $-1 $27 $-1 $28 #
body $-1 $29 $-1 $30 #
body $-1 $31 $-1 $32 #
body $-1 $33 $-1 $34 #
body $-1 $35 $-1 $36 #
body $-1 $37 $-1 $38 #
lump $-1 $-1 $39 $0 #
transform $-1 1 0 0 0 1 0 0 0 1 70.575884273812065 46.676964728984522 22.710272841329257 1 rotate no_reflect no_shear #
lump $-1 $-1 $40 $1 #
transform $-1 1 0 0 0 1 0 0 0 1 70.575884273812065 46.676964728984522 22.710272841329257 1 rotate no_reflect no_shear #
lump $-1 $-1 $41 $2 #
transform $-1 1 0 0 0 1 0 0 0 1 70.575884273812065 46.676964728984522 22.710272841329257 1 rotate no_reflect no_shear #
lump $-1 $-1 $42 $3 #
transform $-1 1 0 0 0 1 0 0 0 1 70.575884273812065 46.676964728984522 22.710272841329257 1 rotate no_reflect no_shear #
lump $-1 $-1 $43 $4 #
transform $-1 1 0 0 0 1 0 0 0 1 70.575884273812065 46.676964728984522 22.710272841329257 1 rotate no_reflect no_shear #
lump $-1 $-1 $44 $5 #
transform $-1 1 0 0 0 1 0 0 0 1 70.575884273812065 46.676964728984522 22.710272841329257 1 rotate no_reflect no_shear #
lump $-1 $-1 $45 $6 #
transform $-1 1 0 0 0 1 0 0 0 1 70.575884273812065 46.676964728984522 22.710272841329257 1 rotate no_reflect no_shear #
lump $-1 $-1 $46 $7 #
transform $-1 1 0 0 0 1 0 0 0 1 70.575884273812065 46.676964728984522 22.710272841329257 1 rotate no_reflect no_shear #
lump $-1 $-1 $47 $8 #
transform $-1 1 0 0 0 1 0 0 0 1 70.575884273812065 46.676964728984522 22.710272841329257 1 rotate no_reflect no_shear #
lump $-1 $-1 $48 $9 #
transform $-1 1 0 0 0 1 0 0 0 1 70.575884273812065 46.676964728984522 22.710272841329257 1 rotate no_reflect no_shear #
lump $-1 $-1 $49 $10 #
transform $-1 1 0 0 0 1 0 0 0 1 70.575884273812065 46.676964728984522 22.710272841329257 1 rotate no_reflect no_shear #
lump $-1 $-1 $50 $11 #
transform $-1 1 0 0 0 1 0 0 0 1 70.575884273812065 46.676964728984522 22.710272841329257 1 rotate no_reflect no_shear #
lump $-1 $-1 $51 $12 #
transform $-1 1 0 0 0 1 0 0 0 1 70.575884273812065 46.676964728984522 22.710272841329257 1 rotate no_reflect no_shear #
shell $-1 $-1 $-1 $52 $-1 $13 #
shell $-1 $-1 $-1 $53 $-1 $15 #
shell $-1 $-1 $-1 $54 $-1 $17 #
shell $-1 $-1 $-1 $55 $-1 $19 #
shell $-1 $-1 $-1 $56 $-1 $21 #
shell $-1 $-1 $-1 $57 $-1 $23 #
shell $-1 $-1 $-1 $58 $-1 $25 #
shell $-1 $-1 $-1 $59 $-1 $27 #
shell $-1 $-1 $-1 $60 $-1 $29 #
shell $-1 $-1 $-1 $61 $-1 $31 #
shell $-1 $-1 $-1 $62 $-1 $33 #
shell $-1 $-1 $-1 $63 $-1 $35 #
shell $-1 $-1 $-1 $64 $-1 $37 #
face $-1 $65 $66 $39 $-1 $67 forward single #
face $-1 $68 $69 $40 $-1 $70 reversed single #
face $-1 $71 $72 $41 $-1 $73 reversed single #
face $-1 $74 $75 $42 $-1 $76 reversed single #
face $-1 $77 $78 $43 $-1 $79 forward single #
face $-1 $80 $81 $44 $-1 $82 forward single #
face $-1 $83 $84 $45 $-1 $85 forward single #
face $-1 $86 $87 $46 $-1 $88 reversed single #
face $-1 $89 $90 $47 $-1 $91 forward single #
face $-1 $92 $93 $48 $-1 $94 forward single #
face $-1 $95 $96 $49 $-1 $97 reversed single #
face $-1 $98 $99 $50 $-1 $100 forward single #
face $-1 $101 $102 $51 $-1 $103 forward single #
face $-1 $104 $105 $39 $-1 $106 reversed single #
loop $-1 $-1 $107 $52 #
plane-surface $-1 0 0 22.710272841329257 0 0 1 1 0 0 forward_v I I I I #
face $-1 $108 $109 $40 $-1 $110 reversed single #
loop $-1 $-1 $111 $53 #
plane-surface $-1 -60.005699771432525 0 12.651272204855118 0 0 1 1 0 0 forward_v I I I I #
face $-1 $112 $113 $41 $-1 $114 reversed single #
loop $-1 $-1 $115 $54 #
plane-surface $-1 60.005699771432532 0 12.651272204855118 0 0 1 1 0 0 forward_v I I I I #
face $-1 $116 $117 $42 $-1 $118 reversed single #
loop $-1 $-1 $119 $55 #
plane-surface $-1 -26.888623533773909 -156.37249277635087 98.304956132217086 -1 0 0 0 -0.77714596973225614 0.62932038083071107 forward_v I I I I #
face $-1 $120 $121 $43 $-1 $122 forward single #
loop $-1 $123 $124 $56 #
cone-surface $-1 -44.92613692199717 -40.706761791792118 15.597624294443509 0 0.77714596973225614 -0.62932038083071107 1 0 0 1 I I 0 1 1 forward I I I I #
face $-1 $125 $126 $44 $-1 $127 forward single #
loop $-1 $128 $129 $57 #
cone-surface $-1 -38.162069401413447 -40.706761791792118 15.597624294443509 0 0.77714596973225614 -0.62932038083071107 1 0 0 1 I I 0 1 1 forward I I I I #
face $-1 $130 $131 $45 $-1 $132 forward single #
loop $-1 $133 $134 $58 #
cone-surface $-1 -31.398001880829725 -40.706761791792118 15.597624294443509 0 0.77714596973225614 -0.62932038083071107 1 0 0 1 I I 0 1 1 forward I I I I #
face $-1 $135 $136 $46 $-1 $137 reversed single #
loop $-1 $-1 $138 $59 #
plane-surface $-1 -43.360666365991811 -19.334231075257648 85.068812136264498 0 0.70710678939079041 0.70710677298230451 1 0 0 forward_v I I I I #
face $-1 $139 $140 $47 $-1 $141 forward single #
loop $-1 $142 $143 $60 #
cone-surface $-1 -45.964173038732312 43.462997751459817 19.496305853624687 0 -0.70710678939079041 -0.70710677298230451 1 0 0 1 I I 0 1 1 forward I I I I #
face $-1 $144 $145 $48 $-1 $146 forward single #
loop $-1 $147 $148 $61 #
cone-surface $-1 -40.75715969325131 43.462997751459817 19.496305853624687 0 -0.70710678939079041 -0.70710677298230451 1 0 0 1 I I 0 1 1 forward I I I I #
face $-1 $149 $150 $49 $-1 $151 reversed single #
loop $-1 $-1 $152 $62 #
plane-surface $-1 43.360666365991833 -19.334231075257648 85.068812136264498 0 0.70710678939079041 0.70710677298230451 1 0 0 forward_v I I I I #
face $-1 $153 $154 $50 $-1 $155 forward single #
loop $-1 $156 $157 $63 #
cone-surface $-1 40.757159693251324 43.462997751459817 19.496305853624687 0 -0.70710678939079041 -0.70710677298230451 1 0 0 1 I I 0 1 1 forward I I I I #
face $-1 $158 $159 $51 $-1 $160 forward single #
loop $-1 $161 $162 $64 #
cone-surface $-1 45.964173038732326 43.462997751459817 19.496305853624687 0 -0.70710678939079041 -0.70710677298230451 1 0 0 1 I I 0 1 1 forward I I I I #
face $-1 $163 $164 $39 $-1 $165 reversed single #
loop $-1 $-1 $166 $65 #
plane-surface $-1 0 0 -22.710272841329257 0 0 1 1 0 0 forward_v I I I I #
coedge $-1 $167 $168 $169 $170 forward $66 $-1 #
face $-1 $171 $172 $40 $-1 $173 reversed single #
loop $-1 $-1 $174 $68 #
plane-surface $-1 -49.435515269052985 0 17.680772523092187 -1 0 0 0 0 1 forward_v I I I I #
coedge $-1 $175 $176 $177 $178 forward $69 $-1 #
face $-1 $179 $180 $41 $-1 $181 forward single #
loop $-1 $-1 $182 $71 #
plane-surface $-1 49.435515269052992 0 17.680772523092187 1 0 0 0 0 -1 forward_v I I I I #
coedge $-1 $183 $184 $185 $186 reversed $72 $-1 #
face $-1 $187 $188 $42 $-1 $189 forward single #
loop $-1 $-1 $190 $74 #
plane-surface $-1 -38.162069401413447 -46.676964728984544 9.4752713948978879 0 -0.77714596973225614 0.62932038083071107 1 0 0 forward_v I I I I #
coedge $-1 $191 $192 $193 $194 reversed $75 $-1 #
face $-1 $-1 $195 $43 $-1 $196 forward single #
loop $-1 $197 $198 $77 #
cone-surface $-1 -44.92613692199717 -39.706732150971298 14.787816280358101 0 0.77714596973225614 -0.62932038083071107 0.5 0 0 1 I I -0.70710678118654746 0.70710678118654746 0.5 forward I I I I #
loop $-1 $-1 $199 $56 #
coedge $-1 $124 $124 $200 $201 reversed $78 $-1 #
face $-1 $-1 $202 $44 $-1 $203 forward single #
loop $-1 $204 $205 $80 #
cone-surface $-1 -38.162069401413447 -39.706732150971298 14.787816280358101 0 0.77714596973225614 -0.62932038083071107 0.5 0 0 1 I I -0.70710678118654746 0.70710678118654746 0.5 forward I I I I #
loop $-1 $-1 $206 $57 #
coedge $-1 $129 $129 $207 $208 reversed $81 $-1 #
face $-1 $-1 $209 $45 $-1 $210 forward single #
loop $-1 $211 $212 $83 #
cone-surface $-1 -31.398001880829725 -39.706732150971298 14.787816280358101 0 0.77714596973225614 -0.62932038083071107 0.5 0 0 1 I I -0.70710678118654746 0.70710678118654746 0.5 forward I I I I #
loop $-1 $-1 $213 $58 #
coedge $-1 $134 $134 $214 $215 reversed $84 $-1 #
face $-1 $216 $217 $46 $-1 $218 reversed single #
loop $-1 $-1 $219 $86 #
plane-surface $-1 -37.285817462930645 80.475142799284782 184.87818369472012 -1 0 0 0 0.70710678939079041 0.70710677298230451 forward_v I I I I #
coedge $-1 $220 $221 $222 $223 reversed $87 $-1 #
face $-1 $-1 $224 $47 $-1 $225 forward single #
loop $-1 $226 $227 $89 #
cone-surface $-1 -45.964173038732312 41.721806357411374 17.75511449998077 0 -0.70710678939079041 -0.70710677298230451 0.5 0 0 1 I I -0.70710678118654746 0.70710678118654746 0.5 forward I I I I #
loop $-1 $-1 $228 $60 #
coedge $-1 $143 $143 $229 $230 reversed $90 $-1 #
face $-1 $-1 $231 $48 $-1 $232 forward single #
loop $-1 $233 $234 $92 #
cone-surface $-1 -40.75715969325131 41.721806357411374 17.75511449998077 0 -0.70710678939079041 -0.70710677298230451 0.5 0 0 1 I I -0.70710678118654746 0.70710678118654746 0.5 forward I I I I #
loop $-1 $-1 $235 $61 #
coedge $-1 $148 $148 $236 $237 reversed $93 $-1 #
face $-1 $238 $239 $49 $-1 $240 forward single #
loop $-1 $-1 $241 $95 #
plane-surface $-1 37.285817462930666 80.475142799284782 184.87818369472012 1 0 0 0 -0.70710678939079041 -0.70710677298230451 forward_v I I I I #
coedge $-1 $242 $243 $244 $245 reversed $96 $-1 #
face $-1 $-1 $246 $50 $-1 $247 forward single #
loop $-1 $248 $249 $98 #
cone-surface $-1 40.757159693251324 41.721806357411374 17.75511449998077 0 -0.70710678939079041 -0.70710677298230451 0.5 0 0 1 I I -0.70710678118654746 0.70710678118654746 0.5 forward I I I I #
loop $-1 $-1 $250 $63 #
coedge $-1 $157 $157 $251 $252 reversed $99 $-1 #
face $-1 $-1 $253 $51 $-1 $254 forward single #
loop $-1 $255 $256 $101 #
cone-surface $-1 45.964173038732326 41.721806357411374 17.75511449998077 0 -0.70710678939079041 -0.70710677298230451 0.5 0 0 1 I I -0.70710678118654746 0.70710678118654746 0.5 forward I I I I #
loop $-1 $-1 $257 $64 #
coedge $-1 $162 $162 $258 $259 reversed $102 $-1 #
face $-1 $260 $261 $39 $-1 $262 reversed single #
loop $-1 $-1 $263 $104 #
plane-surface $-1 0 -46.676964728984522 0 0 1 0 0 0 1 forward_v I I I I #
coedge $-1 $264 $265 $266 $267 forward $105 $-1 #
coedge $-1 $268 $107 $269 $270 forward $66 $-1 #
coedge $-1 $107 $268 $271 $272 forward $66 $-1 #
coedge $-1 $273 $274 $107 $170 reversed $275 $-1 #
edge $-1 $276 -46.676964728984522 $277 46.676964728984522 $169 $278 forward 7 unknown #
face $-1 $279 $280 $40 $-1 $281 reversed single #
loop $-1 $-1 $282 $108 #
plane-surface $-1 0 46.676964728984522 0 0 -1 0 0 0 -1 forward_v I I I I #
coedge $-1 $177 $283 $284 $285 reversed $109 $-1 #
coedge $-1 $286 $111 $287 $288 reversed $69 $-1 #
coedge $-1 $111 $286 $289 $290 reversed $69 $-1 #
coedge $-1 $291 $174 $111 $178 reversed $109 $-1 #
edge $-1 $292 -46.676964728984522 $293 46.676964728984522 $177 $294 forward 7 unknown #
face $-1 $295 $296 $41 $-1 $297 reversed single #
loop $-1 $-1 $298 $112 #
plane-surface $-1 0 0 22.710272841329257 0 0 1 1 0 0 forward_v I I I I #
coedge $-1 $299 $300 $301 $302 reversed $113 $-1 #
coedge $-1 $303 $115 $304 $305 reversed $72 $-1 #
coedge $-1 $115 $303 $306 $307 reversed $72 $-1 #
coedge $-1 $308 $309 $115 $186 forward $310 $-1 #
edge $-1 $311 -46.676964728984522 $312 46.676964728984522 $185 $313 forward 7 unknown #
face $-1 $314 $315 $42 $-1 $316 forward single #
loop $-1 $-1 $193 $116 #
plane-surface $-1 0 0 22.710272841329257 0 0 1 1 0 0 forward_v I I I I #
coedge $-1 $317 $318 $319 $320 reversed $117 $-1 #
coedge $-1 $192 $119 $321 $322 reversed $75 $-1 #
coedge $-1 $119 $191 $317 $323 reversed $75 $-1 #
coedge $-1 $319 $324 $119 $194 forward $188 $-1 #
edge $-1 $325 31.509281659190911 $326 42.226774221666304 $193 $327 forward 7 unknown #
loop $-1 $-1 $200 $120 #
plane-surface $-1 -38.162069401413447 -46.676964728984544 9.4752713948978879 0 -0.77714596973225614 0.62932038083071107 1 0 0 forward_v I I I I #
loop $-1 $-1 $328 $77 #
coedge $-1 $198 $198 $199 $329 reversed $121 $-1 #
coedge $-1 $199 $199 $198 $329 forward $123 $-1 #
coedge $-1 $200 $200 $124 $201 forward $195 $-1 #
edge $-1 $330 -3.9011483351108678e-016 $330 6.2831853071796004 $200 $331 forward 7 unknown #
loop $-1 $-1 $207 $125 #
plane-surface $-1 -38.162069401413447 -46.676964728984544 9.4752713948978879 0 -0.77714596973225614 0.62932038083071107 1 0 0 forward_v I I I I #
loop $-1 $-1 $332 $80 #
coedge $-1 $205 $205 $206 $333 reversed $126 $-1 #
coedge $-1 $206 $206 $205 $333 forward $128 $-1 #
coedge $-1 $207 $207 $129 $208 forward $202 $-1 #
edge $-1 $334 -3.9011483351108678e-016 $334 6.2831853071796004 $207 $335 forward 7 unknown #
loop $-1 $-1 $214 $130 #
plane-surface $-1 -38.162069401413447 -46.676964728984544 9.4752713948978879 0 -0.77714596973225614 0.62932038083071107 1 0 0 forward_v I I I I #
loop $-1 $-1 $336 $83 #
coedge $-1 $212 $212 $213 $337 reversed $131 $-1 #
coedge $-1 $213 $213 $212 $337 forward $133 $-1 #
coedge $-1 $214 $214 $134 $215 forward $209 $-1 #
edge $-1 $338 -3.9011483351108678e-016 $338 6.2831853071796004 $214 $339 forward 7 unknown #
face $-1 $340 $341 $46 $-1 $342 forward single #
loop $-1 $-1 $343 $135 #
plane-surface $-1 0 46.676964728984522 0 0 -1 0 0 0 -1 forward_v I I I I #
coedge $-1 $344 $345 $346 $347 reversed $136 $-1 #
coedge $-1 $348 $138 $349 $350 reversed $87 $-1 #
coedge $-1 $138 $348 $344 $351 forward $87 $-1 #
coedge $-1 $346 $352 $138 $223 forward $341 $-1 #
edge $-1 $353 -27.755182086057072 $354 -15.605484279934739 $222 $355 forward 7 unknown #
loop $-1 $-1 $229 $139 #
plane-surface $-1 -43.360666365991811 -19.334231075257648 85.068812136264498 0 0.70710678939079041 0.70710677298230451 1 0 0 forward_v I I I I #
loop $-1 $-1 $356 $89 #
coedge $-1 $227 $227 $228 $357 reversed $140 $-1 #
coedge $-1 $228 $228 $227 $357 forward $142 $-1 #
coedge $-1 $229 $229 $143 $230 forward $224 $-1 #
edge $-1 $358 -2.5121474966841463e-015 $358 6.2831853071795978 $229 $359 forward 7 unknown #
loop $-1 $-1 $236 $144 #
plane-surface $-1 -43.360666365991811 -19.334231075257648 85.068812136264498 0 0.70710678939079041 0.70710677298230451 1 0 0 forward_v I I I I #
loop $-1 $-1 $360 $92 #
coedge $-1 $234 $234 $235 $361 reversed $145 $-1 #
coedge $-1 $235 $235 $234 $361 forward $147 $-1 #
coedge $-1 $236 $236 $148 $237 forward $231 $-1 #
edge $-1 $362 -2.5121474966841463e-015 $362 6.2831853071795978 $236 $363 forward 7 unknown #
face $-1 $364 $365 $49 $-1 $366 forward single #
loop $-1 $-1 $367 $149 #
plane-surface $-1 0 0 22.710272841329257 0 0 1 1 0 0 forward_v I I I I #
coedge $-1 $368 $369 $370 $371 reversed $150 $-1 #
coedge $-1 $372 $152 $373 $374 reversed $96 $-1 #
coedge $-1 $152 $372 $368 $375 forward $96 $-1 #
coedge $-1 $370 $376 $152 $245 forward $377 $-1 #
edge $-1 $378 -27.755182086057076 $379 -15.60548427993475 $244 $380 forward 7 unknown #
loop $-1 $-1 $251 $153 #
plane-surface $-1 43.360666365991833 -19.334231075257648 85.068812136264498 0 0.70710678939079041 0.70710677298230451 1 0 0 forward_v I I I I #
loop $-1 $-1 $381 $98 #
coedge $-1 $249 $249 $250 $382 reversed $154 $-1 #
coedge $-1 $250 $250 $249 $382 forward $156 $-1 #
coedge $-1 $251 $251 $157 $252 forward $246 $-1 #
edge $-1 $383 -2.5121474966841463e-015 $383 6.2831853071795978 $251 $384 forward 7 unknown #
loop $-1 $-1 $258 $158 #
plane-surface $-1 43.360666365991833 -19.334231075257648 85.068812136264498 0 0.70710678939079041 0.70710677298230451 1 0 0 forward_v I I I I #
loop $-1 $-1 $385 $101 #
coedge $-1 $256 $256 $257 $386 reversed $159 $-1 #
coedge $-1 $257 $257 $256 $386 forward $161 $-1 #
coedge $-1 $258 $258 $162 $259 forward $253 $-1 #
edge $-1 $387 -2.5121474966841463e-015 $387 6.2831853071795978 $258 $388 forward 7 unknown #
face $-1 $389 $390 $39 $-1 $391 reversed single #
loop $-1 $-1 $392 $163 #
plane-surface $-1 -70.575884273812065 0 0 1 0 0 0 0 -1 forward_v I I I I #
coedge $-1 $393 $271 $394 $395 forward $164 $-1 #
coedge $-1 $396 $166 $393 $397 forward $105 $-1 #
coedge $-1 $166 $396 $398 $399 forward $105 $-1 #
coedge $-1 $274 $273 $166 $267 reversed $275 $-1 #
edge $-1 $400 -46.676964728984522 $401 46.676964728984522 $266 $402 forward 7 unknown #
coedge $-1 $168 $167 $403 $404 forward $66 $-1 #
coedge $-1 $405 $406 $167 $270 reversed $390 $-1 #
edge $-1 $277 -70.575884273812065 $407 70.575884273812065 $269 $408 forward 7 unknown #
coedge $-1 $263 $409 $168 $272 reversed $164 $-1 #
edge $-1 $410 -70.575884273812065 $276 70.575884273812065 $271 $411 forward 7 unknown #
coedge $-1 $266 $169 $409 $412 forward $275 $-1 #
coedge $-1 $169 $266 $405 $413 reversed $275 $-1 #
loop $-1 $-1 $273 $389 #
vertex $-1 $170 $414 #
vertex $-1 $170 $415 #
straight-curve $-1 70.575884273812065 0 22.710272841329257 0 1 0 I I #
face $-1 $416 $417 $40 $-1 $418 forward single #
loop $-1 $-1 $419 $171 #
plane-surface $-1 -70.575884273812065 0 0 1 0 0 0 0 -1 forward_v I I I I #
coedge $-1 $289 $420 $291 $421 forward $172 $-1 #
coedge $-1 $174 $291 $422 $423 reversed $109 $-1 #
coedge $-1 $424 $287 $174 $285 forward $425 $-1 #
edge $-1 $293 3.8108859433090245 $426 13.869886579783163 $284 $427 forward 7 unknown #
coedge $-1 $176 $175 $419 $428 reversed $69 $-1 #
coedge $-1 $284 $429 $175 $288 forward $425 $-1 #
edge $-1 $430 -40.573034388095806 $293 -19.432665383336722 $287 $431 forward 7 unknown #
coedge $-1 $432 $282 $176 $290 forward $172 $-1 #
edge $-1 $292 19.432665383336722 $433 40.573034388095806 $289 $434 forward 7 unknown #
coedge $-1 $283 $177 $282 $421 reversed $109 $-1 #
vertex $-1 $290 $435 #
vertex $-1 $288 $436 #
straight-curve $-1 -49.435515269052985 0 12.651272204855118 0 -1 0 I I #
face $-1 $437 $438 $41 $-1 $439 reversed single #
loop $-1 $-1 $440 $179 #
plane-surface $-1 0 -46.676964728984522 0 0 1 0 0 0 1 forward_v I I I I #
coedge $-1 $441 $442 $300 $443 forward $180 $-1 #
coedge $-1 $444 $182 $303 $445 reversed $113 $-1 #
coedge $-1 $182 $444 $298 $443 reversed $113 $-1 #
coedge $-1 $446 $306 $182 $302 forward $438 $-1 #
edge $-1 $447 3.8108859433090245 $448 13.869886579783163 $301 $449 forward 7 unknown #
coedge $-1 $184 $183 $299 $445 forward $72 $-1 #
coedge $-1 $450 $440 $183 $305 forward $296 $-1 #
edge $-1 $451 19.432665383336726 $311 40.573034388095813 $304 $452 forward 7 unknown #
coedge $-1 $301 $453 $184 $307 forward $438 $-1 #
edge $-1 $312 -40.573034388095813 $447 -19.432665383336726 $306 $454 forward 7 unknown #
coedge $-1 $455 $185 $453 $456 reversed $310 $-1 #
coedge $-1 $185 $455 $450 $457 forward $310 $-1 #
loop $-1 $-1 $185 $437 #
vertex $-1 $305 $458 #
vertex $-1 $186 $459 #
straight-curve $-1 70.575884273812065 0 12.651272204855118 0 1 0 I I #
face $-1 $-1 $460 $42 $-1 $461 reversed single #
loop $-1 $-1 $462 $187 #
plane-surface $-1 -49.435515269052985 0 17.680772523092187 -1 0 0 0 0 1 forward_v I I I I #
coedge $-1 $463 $190 $192 $323 forward $117 $-1 #
coedge $-1 $190 $463 $462 $464 forward $117 $-1 #
coedge $-1 $465 $193 $190 $320 forward $188 $-1 #
edge $-1 $326 7.8075888330671859 $466 30.354480568346261 $319 $467 forward 7 unknown #
coedge $-1 $468 $469 $191 $322 forward $460 $-1 #
edge $-1 $470 -39.677206671210627 $325 -26.442205224779286 $321 $471 forward 7 unknown #
edge $-1 $326 -17.030264534462059 $470 -3.4122099130144743e-014 $192 $472 forward 7 unknown #
coedge $-1 $193 $465 $468 $473 forward $188 $-1 #
vertex $-1 $322 $474 #
vertex $-1 $194 $475 #
straight-curve $-1 -26.888623533773909 -78.186246388175434 22.710272841329257 0 1 0 I I #
coedge $-1 $328 $328 $-1 $476 reversed $197 $-1 #
edge $-1 $477 0 $477 6.2831853071796004 $198 $478 forward 7 unknown #
vertex $-1 $201 $479 #
ellipse-curve $-1 -44.92613692199717 -41.31821844774683 16.092772118113579 0 -0.77714596973225614 0.62932038083071107 1 0 0 1 I I #
coedge $-1 $332 $332 $-1 $480 reversed $204 $-1 #
edge $-1 $481 0 $481 6.2831853071796004 $205 $482 forward 7 unknown #
vertex $-1 $208 $483 #
ellipse-curve $-1 -38.162069401413447 -41.31821844774683 16.092772118113579 0 -0.77714596973225614 0.62932038083071107 1 0 0 1 I I #
coedge $-1 $336 $336 $-1 $484 reversed $211 $-1 #
edge $-1 $485 0 $485 6.2831853071796004 $212 $486 forward 7 unknown #
vertex $-1 $215 $487 #
ellipse-curve $-1 -31.398001880829725 -41.31821844774683 16.092772118113579 0 -0.77714596973225614 0.62932038083071107 1 0 0 1 I I #
face $-1 $-1 $488 $46 $-1 $489 forward single #
loop $-1 $-1 $346 $216 #
plane-surface $-1 0 0 22.710272841329257 0 0 1 1 0 0 forward_v I I I I #
coedge $-1 $490 $491 $345 $492 forward $217 $-1 #
coedge $-1 $345 $219 $221 $351 reversed $136 $-1 #
coedge $-1 $219 $344 $343 $492 reversed $136 $-1 #
coedge $-1 $493 $222 $219 $347 forward $341 $-1 #
edge $-1 $354 2.7867353729988764 $494 6.4393933293421313 $346 $495 forward 7 unknown #
coedge $-1 $221 $220 $490 $496 reversed $87 $-1 #
coedge $-1 $497 $498 $220 $350 forward $488 $-1 #
edge $-1 $499 -62.692976419004374 $353 -57.527337938499159 $349 $500 forward 7 unknown #
edge $-1 $501 -93.353929457969045 $354 -88.188290977463836 $344 $502 forward 7 unknown #
coedge $-1 $222 $493 $497 $503 forward $341 $-1 #
vertex $-1 $350 $504 #
vertex $-1 $223 $505 #
straight-curve $-1 -21.680333182995906 43.024306772641268 22.710272841329257 1 0 0 I I #
coedge $-1 $356 $356 $-1 $506 reversed $226 $-1 #
edge $-1 $507 0 $507 6.2831853071796004 $227 $508 forward 7 unknown #
vertex $-1 $230 $509 #
ellipse-curve $-1 -45.964173038732312 44.850635750812891 20.883943820777478 0 0.70710678939079041 0.70710677298230451 1 0 0 1 I I #
coedge $-1 $360 $360 $-1 $510 reversed $233 $-1 #
edge $-1 $511 0 $511 6.2831853071796004 $234 $512 forward 7 unknown #
vertex $-1 $237 $513 #
ellipse-curve $-1 -40.75715969325131 44.850635750812891 20.883943820777478 0 0.70710678939079041 0.70710677298230451 1 0 0 1 I I #
face $-1 $-1 $377 $49 $-1 $514 reversed single #
loop $-1 $-1 $373 $238 #
plane-surface $-1 49.435515269052992 0 17.680772523092187 1 0 0 0 0 -1 forward_v I I I I #
coedge $-1 $515 $516 $369 $517 forward $239 $-1 #
coedge $-1 $369 $241 $243 $375 reversed $150 $-1 #
coedge $-1 $241 $368 $367 $517 reversed $150 $-1 #
coedge $-1 $518 $244 $241 $371 forward $377 $-1 #
edge $-1 $379 -73.381477047134368 $519 -69.728819006030804 $370 $520 forward 7 unknown #
coedge $-1 $243 $242 $515 $521 reversed $96 $-1 #
coedge $-1 $522 $523 $242 $374 forward $365 $-1 #
edge $-1 $524 57.527337938499159 $378 62.692976419004381 $373 $525 forward 7 unknown #
edge $-1 $526 88.188290977463836 $379 93.353929457969045 $368 $527 forward 7 unknown #
coedge $-1 $244 $518 $522 $528 forward $377 $-1 #
loop $-1 $-1 $370 $364 #
vertex $-1 $374 $529 #
vertex $-1 $245 $530 #
straight-curve $-1 21.680333182995916 46.676964728984522 19.057614800225696 -1 0 0 I I #
coedge $-1 $381 $381 $-1 $531 reversed $248 $-1 #
edge $-1 $532 0 $532 6.2831853071796004 $249 $533 forward 7 unknown #
vertex $-1 $252 $534 #
ellipse-curve $-1 40.757159693251324 44.850635750812891 20.883943820777478 0 0.70710678939079041 0.70710677298230451 1 0 0 1 I I #
coedge $-1 $385 $385 $-1 $535 reversed $255 $-1 #
edge $-1 $536 0 $536 6.2831853071796004 $256 $537 forward 7 unknown #
vertex $-1 $259 $538 #
ellipse-curve $-1 45.964173038732326 44.850635750812891 20.883943820777478 0 0.70710678939079041 0.70710677298230451 1 0 0 1 I I #
face $-1 $-1 $275 $39 $-1 $539 reversed single #
loop $-1 $-1 $405 $260 #
plane-surface $-1 0 46.676964728984522 0 0 -1 0 0 0 -1 forward_v I I I I #
coedge $-1 $540 $403 $406 $541 forward $261 $-1 #
coedge $-1 $409 $263 $264 $397 reversed $164 $-1 #
coedge $-1 $403 $540 $263 $395 reversed $261 $-1 #
edge $-1 $410 -22.710272841329257 $542 22.710272841329257 $394 $543 forward 7 unknown #
coedge $-1 $265 $264 $540 $544 forward $105 $-1 #
edge $-1 $401 -70.575884273812065 $542 70.575884273812065 $393 $545 forward 7 unknown #
coedge $-1 $406 $405 $265 $399 reversed $390 $-1 #
edge $-1 $546 -70.575884273812065 $400 70.575884273812065 $398 $547 forward 7 unknown #
vertex $-1 $267 $548 #
vertex $-1 $412 $549 #
straight-curve $-1 70.575884273812065 0 -22.710272841329257 0 -1 0 I I #
coedge $-1 $392 $394 $268 $404 reversed $261 $-1 #
edge $-1 $407 -46.676964728984522 $410 46.676964728984522 $403 $550 forward 7 unknown #
coedge $-1 $398 $269 $274 $413 forward $390 $-1 #
coedge $-1 $269 $398 $392 $541 reversed $390 $-1 #
vertex $-1 $270 $551 #
straight-curve $-1 0 46.676964728984522 22.710272841329257 -1 0 0 I I #
coedge $-1 $271 $393 $273 $412 reversed $164 $-1 #
vertex $-1 $404 $552 #
straight-curve $-1 0 -46.676964728984522 22.710272841329257 1 0 0 I I #
edge $-1 $276 -22.710272841329257 $401 22.710272841329257 $273 $553 forward 7 unknown #
edge $-1 $277 -22.710272841329257 $400 22.710272841329257 $274 $554 forward 7 unknown #
point $-1 70.575884273812065 -46.676964728984522 22.710272841329257 #
point $-1 70.575884273812065 46.676964728984522 22.710272841329257 #
face $-1 $-1 $425 $40 $-1 $555 reversed single #
loop $-1 $-1 $422 $279 #
plane-surface $-1 0 0 22.710272841329257 0 0 1 1 0 0 forward_v I I I I #
coedge $-1 $556 $557 $286 $428 forward $280 $-1 #
coedge $-1 $282 $432 $558 $559 reversed $172 $-1 #
edge $-1 $560 -13.869886579783163 $292 -3.8108859433090245 $282 $561 forward 7 unknown #
coedge $-1 $558 $562 $283 $423 forward $417 $-1 #
edge $-1 $426 -46.676964728984522 $560 46.676964728984522 $422 $563 forward 7 unknown #
coedge $-1 $429 $284 $562 $564 reversed $425 $-1 #
loop $-1 $-1 $284 $416 #
vertex $-1 $285 $565 #
straight-curve $-1 -49.435515269052985 -46.676964728984522 8.8403862615460937 0 0 1 I I #
edge $-1 $433 -46.676964728984522 $430 46.676964728984522 $419 $566 forward 7 unknown #
coedge $-1 $287 $424 $556 $567 forward $425 $-1 #
vertex $-1 $428 $568 #
straight-curve $-1 -30.002849885716262 -46.676964728984522 12.651272204855118 1 0 0 I I #
coedge $-1 $420 $289 $557 $569 reversed $172 $-1 #
vertex $-1 $428 $570 #
straight-curve $-1 -30.002849885716262 46.676964728984522 12.651272204855118 -1 0 0 I I #
point $-1 -49.435515269052985 46.676964728984522 12.651272204855118 #
point $-1 -49.435515269052985 -46.676964728984522 12.651272204855118 #
face $-1 $-1 $310 $41 $-1 $571 reversed single #
loop $-1 $-1 $301 $295 #
plane-surface $-1 0 46.676964728984522 0 0 -1 0 0 0 -1 forward_v I I I I #
coedge $-1 $304 $572 $444 $573 forward $296 $-1 #
coedge $-1 $574 $298 $572 $575 forward $180 $-1 #
coedge $-1 $298 $574 $446 $576 forward $180 $-1 #
edge $-1 $448 -46.676964728984522 $577 46.676964728984522 $298 $578 forward 7 unknown #
coedge $-1 $300 $299 $440 $573 reversed $113 $-1 #
edge $-1 $451 -46.676964728984522 $447 46.676964728984522 $299 $579 forward 7 unknown #
coedge $-1 $453 $301 $442 $576 reversed $438 $-1 #
vertex $-1 $307 $580 #
vertex $-1 $302 $581 #
straight-curve $-1 49.435515269052992 46.676964728984522 8.8403862615460937 0 0 1 I I #
coedge $-1 $572 $304 $309 $457 reversed $296 $-1 #
vertex $-1 $305 $582 #
straight-curve $-1 30.002849885716266 -46.676964728984522 12.651272204855118 1 0 0 I I #
coedge $-1 $306 $446 $308 $456 forward $438 $-1 #
straight-curve $-1 30.002849885716266 46.676964728984522 12.651272204855118 -1 0 0 I I #
coedge $-1 $309 $308 $574 $583 reversed $310 $-1 #
edge $-1 $584 -22.710272841329257 $312 -12.651272204855118 $308 $585 forward 7 unknown #
edge $-1 $586 -22.710272841329257 $311 -12.651272204855118 $309 $587 forward 7 unknown #
point $-1 70.575884273812079 -46.676964728984522 12.651272204855118 #
point $-1 70.575884273812079 46.676964728984522 12.651272204855118 #
loop $-1 $-1 $321 $314 #
plane-surface $-1 0 -46.676964728984522 0 0 1 0 0 0 1 forward_v I I I I #
coedge $-1 $588 $589 $318 $464 reversed $315 $-1 #
coedge $-1 $318 $317 $469 $590 reversed $117 $-1 #
edge $-1 $591 3.4122099130144743e-014 $466 17.030264534462059 $462 $592 forward 7 unknown #
coedge $-1 $324 $319 $589 $593 forward $188 $-1 #
vertex $-1 $593 $594 #
straight-curve $-1 -19.081034700706724 -35.95947216650913 22.710272841329257 -1 0 0 I I #
coedge $-1 $595 $321 $324 $473 reversed $460 $-1 #
coedge $-1 $321 $595 $463 $590 forward $460 $-1 #
vertex $-1 $322 $596 #
straight-curve $-1 -26.888623533773909 -46.676964728984522 49.152478066108543 0 0 1 I I #
straight-curve $-1 -26.888623533773909 -46.676964728984544 9.4752713948978879 0 -0.62932038083071107 -0.77714596973225614 I I #
edge $-1 $597 -49.435515269052985 $325 -26.888623533773909 $468 $598 forward 7 unknown #
point $-1 -26.888623533773909 -46.676964728984522 22.710272841329257 #
point $-1 -26.888623533773909 -35.95947216650913 22.710272841329257 #
edge $-1 $599 1 $599 0 $328 $-1 forward 7 unknown #
vertex $-1 $329 $600 #
ellipse-curve $-1 -44.92613692199717 -40.095305135837428 15.102476470773457 0 -0.77714596973225614 0.62932038083071107 1 0 0 1 I I #
point $-1 -43.92613692199717 -41.318218447746808 16.092772118113562 #
edge $-1 $601 1 $601 0 $332 $-1 forward 7 unknown #
vertex $-1 $333 $602 #
ellipse-curve $-1 -38.162069401413447 -40.095305135837428 15.102476470773457 0 -0.77714596973225614 0.62932038083071107 1 0 0 1 I I #
point $-1 -37.162069401413447 -41.318218447746808 16.092772118113562 #
edge $-1 $603 1 $603 0 $336 $-1 forward 7 unknown #
vertex $-1 $337 $604 #
ellipse-curve $-1 -31.398001880829725 -40.095305135837428 15.102476470773457 0 -0.77714596973225614 0.62932038083071107 1 0 0 1 I I #
point $-1 -30.398001880829725 -41.318218447746808 16.092772118113562 #
loop $-1 $-1 $349 $340 #
plane-surface $-1 -49.435515269052985 0 17.680772523092187 -1 0 0 0 0 1 forward_v I I I I #
coedge $-1 $605 $343 $348 $496 forward $217 $-1 #
coedge $-1 $343 $605 $493 $606 reversed $217 $-1 #
edge $-1 $494 69.728819006030804 $501 73.381477047134368 $343 $607 forward 7 unknown #
coedge $-1 $352 $346 $491 $606 forward $341 $-1 #
vertex $-1 $606 $608 #
straight-curve $-1 -37.285817462930645 40.237571399642391 22.710272841329257 0 1 0 I I #
edge $-1 $501 15.605484279934739 $499 27.755182086057072 $490 $609 forward 7 unknown #
coedge $-1 $498 $349 $352 $503 reversed $488 $-1 #
coedge $-1 $349 $497 $605 $610 reversed $488 $-1 #
vertex $-1 $610 $611 #
straight-curve $-1 -49.435515269052985 2.3463364846866295 63.388244073220406 0 -0.70710677298230462 0.70710678939079052 I I #
vertex $-1 $496 $612 #
straight-curve $-1 -37.285817462930645 -19.334231075257648 85.068812136264498 0 -0.70710677298230451 0.70710678939079041 I I #
edge $-1 $613 -46.676964728984522 $353 -43.024306772641268 $352 $614 forward 7 unknown #
point $-1 -49.435515269052978 43.024306772641268 22.710272841329257 #
point $-1 -37.285817462930645 43.024306772641268 22.710272841329257 #
edge $-1 $615 1 $615 0 $356 $-1 forward 7 unknown #
vertex $-1 $357 $616 #
ellipse-curve $-1 -45.964173038732312 42.07535975210677 18.108667886471924 0 0.70710678939079041 0.70710677298230451 1 0 0 1 I I #
point $-1 -44.964173038732312 44.850635750812863 20.883943820777453 #
edge $-1 $617 1 $617 0 $360 $-1 forward 7 unknown #
vertex $-1 $361 $618 #
ellipse-curve $-1 -40.75715969325131 42.07535975210677 18.108667886471924 0 0.70710678939079041 0.70710677298230451 1 0 0 1 I I #
point $-1 -39.75715969325131 44.850635750812863 20.883943820777453 #
plane-surface $-1 0 46.676964728984522 0 0 -1 0 0 0 -1 forward_v I I I I #
coedge $-1 $619 $367 $372 $521 forward $239 $-1 #
coedge $-1 $367 $619 $518 $620 forward $239 $-1 #
edge $-1 $519 -6.4393933293421313 $526 -2.7867353729988764 $367 $621 forward 7 unknown #
coedge $-1 $376 $370 $516 $620 reversed $377 $-1 #
vertex $-1 $371 $622 #
straight-curve $-1 37.285817462930666 46.676964728984522 92.439091847360061 0 0 1 I I #
edge $-1 $526 15.60548427993475 $524 27.755182086057083 $515 $623 forward 7 unknown #
coedge $-1 $523 $373 $376 $528 reversed $365 $-1 #
coedge $-1 $373 $522 $619 $624 reversed $365 $-1 #
vertex $-1 $624 $625 #
straight-curve $-1 49.435515269052992 2.3463364846866295 63.388244073220406 0 0.70710677298230462 -0.70710678939079052 I I #
vertex $-1 $521 $626 #
straight-curve $-1 37.285817462930666 -19.334231075257648 85.068812136264498 0 0.70710677298230451 -0.70710678939079041 I I #
edge $-1 $627 -13.869886579783163 $378 -10.217228538679592 $376 $628 forward 7 unknown #
point $-1 49.435515269052992 46.676964728984522 19.057614800225686 #
point $-1 37.285817462930666 46.676964728984515 19.057614800225693 #
edge $-1 $629 1 $629 0 $381 $-1 forward 7 unknown #
vertex $-1 $382 $630 #
ellipse-curve $-1 40.757159693251324 42.07535975210677 18.108667886471924 0 0.70710678939079041 0.70710677298230451 1 0 0 1 I I #
point $-1 41.757159693251324 44.850635750812863 20.883943820777453 #
edge $-1 $631 1 $631 0 $385 $-1 forward 7 unknown #
vertex $-1 $386 $632 #
ellipse-curve $-1 45.964173038732326 42.07535975210677 18.108667886471924 0 0.70710678939079041 0.70710677298230451 1 0 0 1 I I #
point $-1 46.964173038732326 44.850635750812863 20.883943820777453 #
plane-surface $-1 70.575884273812065 0 0 -1 0 0 0 0 1 forward_v I I I I #
coedge $-1 $394 $392 $396 $544 reversed $261 $-1 #
edge $-1 $407 -22.710272841329257 $546 22.710272841329257 $406 $633 forward 7 unknown #
vertex $-1 $544 $634 #
straight-curve $-1 -70.575884273812065 -46.676964728984522 0 0 0 -1 I I #
edge $-1 $542 -46.676964728984522 $546 46.676964728984522 $540 $635 forward 7 unknown #
straight-curve $-1 0 -46.676964728984522 -22.710272841329257 -1 0 0 I I #
vertex $-1 $399 $636 #
straight-curve $-1 0 46.676964728984522 -22.710272841329257 1 0 0 I I #
point $-1 70.575884273812065 46.676964728984522 -22.710272841329257 #
point $-1 70.575884273812065 -46.676964728984522 -22.710272841329257 #
straight-curve $-1 -70.575884273812065 0 22.710272841329257 0 -1 0 I I #
point $-1 -70.575884273812065 46.676964728984522 22.710272841329257 #
point $-1 -70.575884273812065 -46.676964728984522 22.710272841329257 #
straight-curve $-1 70.575884273812065 -46.676964728984522 0 0 0 -1 I I #
straight-curve $-1 70.575884273812065 46.676964728984522 0 0 0 -1 I I #
plane-surface $-1 0 -46.676964728984522 0 0 1 0 0 0 1 forward_v I I I I #
coedge $-1 $637 $419 $429 $567 reversed $280 $-1 #
coedge $-1 $419 $637 $432 $569 forward $280 $-1 #
coedge $-1 $638 $422 $420 $559 forward $417 $-1 #
edge $-1 $560 49.435515269052985 $639 70.575884273812065 $420 $640 forward 7 unknown #
vertex $-1 $559 $641 #
straight-curve $-1 -49.435515269052985 46.676964728984522 8.8403862615460937 0 0 -1 I I #
coedge $-1 $422 $638 $424 $564 forward $417 $-1 #
straight-curve $-1 -49.435515269052985 0 22.710272841329257 0 1 0 I I #
edge $-1 $642 -70.575884273812065 $426 -49.435515269052985 $424 $643 forward 7 unknown #
point $-1 -49.435515269052985 -46.676964728984522 22.710272841329257 #
straight-curve $-1 -70.575884273812065 0 12.651272204855118 0 -1 0 I I #
edge $-1 $642 -22.710272841329257 $430 -12.651272204855118 $556 $644 forward 7 unknown #
point $-1 -70.575884273812065 -46.676964728984522 12.651272204855118 #
edge $-1 $639 -22.710272841329257 $433 -12.651272204855118 $432 $645 forward 7 unknown #
point $-1 -70.575884273812065 46.676964728984522 12.651272204855118 #
plane-surface $-1 70.575884273812065 0 0 -1 0 0 0 0 1 forward_v I I I I #
coedge $-1 $440 $450 $441 $575 reversed $296 $-1 #
edge $-1 $577 -13.869886579783163 $451 -3.8108859433090245 $440 $646 forward 7 unknown #
coedge $-1 $442 $441 $455 $583 forward $180 $-1 #
edge $-1 $577 49.435515269052992 $586 70.575884273812065 $572 $647 forward 7 unknown #
edge $-1 $584 -70.575884273812065 $448 -49.435515269052992 $446 $648 forward 7 unknown #
vertex $-1 $575 $649 #
straight-curve $-1 49.435515269052992 0 22.710272841329257 0 -1 0 I I #
straight-curve $-1 49.435515269052992 0 12.651272204855118 0 1 0 I I #
point $-1 49.435515269052992 46.676964728984522 12.651272204855118 #
point $-1 49.435515269052992 46.676964728984522 22.710272841329257 #
point $-1 49.435515269052992 -46.676964728984522 12.651272204855118 #
edge $-1 $586 -46.676964728984522 $584 46.676964728984522 $455 $650 forward 7 unknown #
vertex $-1 $583 $651 #
straight-curve $-1 70.575884273812065 46.676964728984522 0 0 0 -1 I I #
vertex $-1 $583 $652 #
straight-curve $-1 70.575884273812065 -46.676964728984522 0 0 0 -1 I I #
coedge $-1 $589 $462 $595 $653 reversed $315 $-1 #
coedge $-1 $462 $588 $465 $593 reversed $315 $-1 #
edge $-1 $591 -30.354480568346261 $470 -7.8075888330671859 $469 $654 forward 7 unknown #
vertex $-1 $653 $655 #
straight-curve $-1 -49.435515269052985 -46.676964728984544 9.4752713948978879 0 0.62932038083071107 0.77714596973225614 I I #
edge $-1 $466 35.95947216650913 $597 46.676964728984522 $465 $656 forward 7 unknown #
point $-1 -49.435515269052985 -35.95947216650913 22.710272841329257 #
coedge $-1 $469 $468 $588 $653 forward $460 $-1 #
point $-1 -26.888623533773909 -46.676964728984522 9.4752713948979146 #
vertex $-1 $473 $657 #
straight-curve $-1 0 -46.676964728984522 22.710272841329257 1 0 0 I I #
vertex $-1 $476 $658 #
point $-1 -43.92613692199717 -40.095305135837428 15.102476470773457 #
vertex $-1 $480 $659 #
point $-1 -37.162069401413447 -40.095305135837428 15.102476470773457 #
vertex $-1 $484 $660 #
point $-1 -30.398001880829725 -40.095305135837428 15.102476470773457 #
coedge $-1 $491 $490 $498 $610 forward $217 $-1 #
edge $-1 $494 37.285817462930645 $613 49.435515269052985 $491 $661 forward 7 unknown #
straight-curve $-1 -37.285817462930645 46.676964728984522 92.439091847360061 0 0 -1 I I #
point $-1 -37.285817462930645 46.676964728984522 22.710272841329257 #
straight-curve $-1 -21.680333182995906 46.676964728984522 19.057614800225696 -1 0 0 I I #
edge $-1 $499 10.217228538679599 $613 13.869886579783163 $605 $662 forward 7 unknown #
point $-1 -49.435515269052978 46.676964728984515 19.057614800225693 #
point $-1 -37.285817462930645 46.676964728984515 19.057614800225693 #
vertex $-1 $503 $663 #
straight-curve $-1 -49.435515269052985 0 22.710272841329257 0 -1 0 I I #
vertex $-1 $506 $664 #
point $-1 -44.964173038732312 42.07535975210677 18.108667886471924 #
vertex $-1 $510 $665 #
point $-1 -39.75715969325131 42.07535975210677 18.108667886471924 #
coedge $-1 $516 $515 $523 $624 forward $239 $-1 #
edge $-1 $627 -49.435515269052992 $519 -37.285817462930666 $518 $666 forward 7 unknown #
straight-curve $-1 37.285817462930666 40.237571399642391 22.710272841329257 0 -1 0 I I #
point $-1 37.285817462930666 46.676964728984522 22.710272841329257 #
straight-curve $-1 21.680333182995916 43.024306772641268 22.710272841329257 1 0 0 I I #
edge $-1 $524 43.024306772641268 $627 46.676964728984522 $619 $667 forward 7 unknown #
point $-1 49.435515269052999 43.024306772641268 22.710272841329257 #
point $-1 37.285817462930666 43.024306772641268 22.710272841329257 #
vertex $-1 $620 $668 #
straight-curve $-1 49.435515269052992 46.676964728984522 8.8403862615460937 0 0 -1 I I #
vertex $-1 $531 $669 #
point $-1 41.757159693251324 42.07535975210677 18.108667886471924 #
vertex $-1 $535 $670 #
point $-1 46.964173038732326 42.07535975210677 18.108667886471924 #
straight-curve $-1 -70.575884273812065 46.676964728984522 0 0 0 -1 I I #
point $-1 -70.575884273812065 -46.676964728984522 -22.710272841329257 #
straight-curve $-1 -70.575884273812065 0 -22.710272841329257 0 1 0 I I #
point $-1 -70.575884273812065 46.676964728984522 -22.710272841329257 #
coedge $-1 $557 $556 $638 $671 reversed $280 $-1 #
coedge $-1 $562 $558 $637 $671 forward $417 $-1 #
vertex $-1 $559 $672 #
straight-curve $-1 0 46.676964728984522 22.710272841329257 -1 0 0 I I #
point $-1 -49.435515269052985 46.676964728984522 22.710272841329257 #
vertex $-1 $671 $673 #
straight-curve $-1 0 -46.676964728984522 22.710272841329257 1 0 0 I I #
straight-curve $-1 -70.575884273812065 -46.676964728984522 0 0 0 -1 I I #
straight-curve $-1 -70.575884273812065 46.676964728984522 0 0 0 -1 I I #
straight-curve $-1 49.435515269052992 -46.676964728984522 8.8403862615460937 0 0 -1 I I #
straight-curve $-1 0 -46.676964728984522 22.710272841329257 1 0 0 I I #
straight-curve $-1 0 46.676964728984522 22.710272841329257 -1 0 0 I I #
point $-1 49.435515269052992 -46.676964728984522 22.710272841329257 #
straight-curve $-1 70.575884273812065 0 22.710272841329257 0 1 0 I I #
point $-1 70.575884273812065 46.676964728984522 22.710272841329257 #
point $-1 70.575884273812065 -46.676964728984522 22.710272841329257 #
edge $-1 $597 26.442205224779286 $591 39.677206671210627 $595 $674 forward 7 unknown #
straight-curve $-1 -19.081034700706724 -46.676964728984522 9.4752713948979093 1 0 0 I I #
point $-1 -49.435515269052985 -46.676964728984522 9.4752713948979146 #
straight-curve $-1 -49.435515269052985 0 22.710272841329257 0 -1 0 I I #
point $-1 -49.435515269052985 -46.676964728984522 22.710272841329257 #
point $-1 -44.92613692199717 -39.318159166105168 14.473156089942744 #
point $-1 -38.162069401413447 -39.318159166105168 14.473156089942744 #
point $-1 -31.398001880829725 -39.318159166105168 14.473156089942744 #
straight-curve $-1 0 46.676964728984522 22.710272841329257 -1 0 0 I I #
straight-curve $-1 -49.435515269052985 46.676964728984522 8.8403862615460937 0 0 1 I I #
point $-1 -49.435515269052985 46.676964728984522 22.710272841329257 #
point $-1 -45.964173038732312 41.368252962715978 17.401561113489617 #
point $-1 -40.75715969325131 41.368252962715978 17.401561113489617 #
straight-curve $-1 0 46.676964728984522 22.710272841329257 -1 0 0 I I #
straight-curve $-1 49.435515269052992 0 22.710272841329257 0 1 0 I I #
point $-1 49.435515269052992 46.676964728984522 22.710272841329257 #
point $-1 40.757159693251324 41.368252962715978 17.401561113489617 #
point $-1 45.964173038732326 41.368252962715978 17.401561113489617 #
edge $-1 $639 -46.676964728984522 $642 46.676964728984522 $637 $675 forward 7 unknown #
point $-1 -70.575884273812065 46.676964728984522 22.710272841329257 #
point $-1 -70.575884273812065 -46.676964728984522 22.710272841329257 #
straight-curve $-1 -49.435515269052985 -46.676964728984522 49.152478066108543 0 0 -1 I I #
straight-curve $-1 -70.575884273812065 0 22.710272841329257 0 -1 0 I I #
End-of-ACIS-data 