500 0 14 0           
7 Unknown 11 ACIS 5.0 NT 24 Fri Mar 26 17:16:49 1999 
-1 9.9999999999999995e-007 1e-010 
body $-1 $14 $-1 $15 #
body $-1 $16 $-1 $17 #
body $-1 $18 $-1 $19 #
body $-1 $20 $-1 $21 #
body $-1 $22 $-1 $23 #
body $-1 $24 $-1 $25 #
body $-1 $26 $-1 $27 #
body $-1 $28 $-1 $29 #
body $-1 $30 $-1 $31 #
body $-1 $32 $-1 $33 #
body $-1 $34 $-1 $35 #
body $-1 $36 $-1 $37 #
body $-1 $38 $-1 $39 #
body $-1 $40 $-1 $41 #
lump $-1 $-1 $42 $0 #
transform $-1 1 0 0 0 1 0 0 0 1 45.826593829157382 30.550549747680979 11.681317413212851 1 rotate no_reflect no_shear #
lump $-1 $-1 $43 $1 #
transform $-1 1 0 0 0 1 0 0 0 1 45.826593829157382 30.550549747680979 11.681317413212851 1 rotate no_reflect no_shear #
lump $-1 $-1 $44 $2 #
transform $-1 1 0 0 0 1 0 0 0 1 45.826593829157382 30.550549747680979 11.681317413212851 1 rotate no_reflect no_shear #
lump $-1 $-1 $45 $3 #
transform $-1 1 0 0 0 1 0 0 0 1 45.826593829157382 30.550549747680979 11.681317413212851 1 rotate no_reflect no_shear #
lump $-1 $-1 $46 $4 #
transform $-1 1 0 0 0 1 0 0 0 1 45.826593829157382 30.550549747680979 11.681317413212851 1 rotate no_reflect no_shear #
lump $-1 $-1 $47 $5 #
transform $-1 1 0 0 0 1 0 0 0 1 45.826593829157382 30.550549747680979 11.681317413212851 1 rotate no_reflect no_shear #
lump $-1 $-1 $48 $6 #
transform $-1 1 0 0 0 1 0 0 0 1 45.826593829157382 30.550549747680979 11.681317413212851 1 rotate no_reflect no_shear #
lump $-1 $-1 $49 $7 #
transform $-1 1 0 0 0 1 0 0 0 1 45.826593829157382 30.550549747680979 11.681317413212851 1 rotate no_reflect no_shear #
lump $-1 $-1 $50 $8 #
transform $-1 1 0 0 0 1 0 0 0 1 45.826593829157382 30.550549747680979 11.681317413212851 1 rotate no_reflect no_shear #
lump $-1 $-1 $51 $9 #
transform $-1 1 0 0 0 1 0 0 0 1 45.826593829157382 30.550549747680979 11.681317413212851 1 rotate no_reflect no_shear #
lump $-1 $-1 $52 $10 #
transform $-1 1 0 0 0 1 0 0 0 1 45.826593829157382 30.550549747680979 11.681317413212851 1 rotate no_reflect no_shear #
lump $-1 $-1 $53 $11 #
transform $-1 1 0 0 0 1 0 0 0 1 45.826593829157382 30.550549747680979 11.681317413212851 1 rotate no_reflect no_shear #
lump $-1 $-1 $54 $12 #
transform $-1 1 0 0 0 1 0 0 0 1 45.826593829157382 30.550549747680979 11.681317413212851 1 rotate no_reflect no_shear #
lump $-1 $-1 $55 $13 #
transform $-1 1 0 0 0 1 0 0 0 1 45.826593829157382 30.550549747680979 11.681317413212851 1 rotate no_reflect no_shear #
shell $-1 $-1 $-1 $56 $-1 $14 #
shell $-1 $-1 $-1 $57 $-1 $16 #
shell $-1 $-1 $-1 $58 $-1 $18 #
shell $-1 $-1 $-1 $59 $-1 $20 #
shell $-1 $-1 $-1 $60 $-1 $22 #
shell $-1 $-1 $-1 $61 $-1 $24 #
shell $-1 $-1 $-1 $62 $-1 $26 #
shell $-1 $-1 $-1 $63 $-1 $28 #
shell $-1 $-1 $-1 $64 $-1 $30 #
shell $-1 $-1 $-1 $65 $-1 $32 #
shell $-1 $-1 $-1 $66 $-1 $34 #
shell $-1 $-1 $-1 $67 $-1 $36 #
shell $-1 $-1 $-1 $68 $-1 $38 #
shell $-1 $-1 $-1 $69 $-1 $40 #
face $-1 $70 $71 $42 $-1 $72 forward single #
face $-1 $73 $74 $43 $-1 $75 forward single #
face $-1 $76 $77 $44 $-1 $78 reversed single #
face $-1 $79 $80 $45 $-1 $81 forward single #
face $-1 $82 $83 $46 $-1 $84 forward single #
face $-1 $85 $86 $47 $-1 $87 reversed single #
face $-1 $88 $89 $48 $-1 $90 forward single #
face $-1 $91 $92 $49 $-1 $93 forward single #
face $-1 $94 $95 $50 $-1 $96 reversed single #
face $-1 $97 $98 $51 $-1 $99 forward single #
face $-1 $100 $101 $52 $-1 $102 forward single #
face $-1 $103 $104 $53 $-1 $105 reversed single #
face $-1 $106 $107 $54 $-1 $108 forward single #
face $-1 $109 $110 $55 $-1 $111 forward single #
face $-1 $112 $113 $42 $-1 $114 reversed single #
loop $-1 $-1 $115 $56 #
plane-surface $-1 0 0 11.681317413212851 0 0 1 1 0 0 forward_v I I I I #
face $-1 $116 $117 $43 $-1 $118 reversed single #
loop $-1 $-1 $119 $57 #
plane-surface $-1 0 -24.380602449862771 10.852384973237351 0 0 1 1 0 0 forward_v I I I I #
face $-1 $120 $121 $44 $-1 $122 reversed single #
loop $-1 $-1 $123 $58 #
plane-surface $-1 48.08872709066852 -11.212113095692981 134.92010170268296 0 1 0 0.71933980857756763 0 0.69465836192734942 forward_v I I I I #
face $-1 $124 $125 $45 $-1 $126 forward single #
loop $-1 $127 $128 $59 #
cone-surface $-1 42.101731002624518 -9.1220409662598634 7.8698287777576166 -0.71933980857756763 0 -0.69465836192734942 0.69465836192734942 0 -0.71933980857756763 1 I I 0 1 1 forward I I I I #
face $-1 $129 $130 $46 $-1 $131 forward single #
loop $-1 $132 $133 $60 #
cone-surface $-1 42.101731002624518 -5.9869327721101868 7.8698287777576166 -0.71933980857756763 0 -0.69465836192734942 0.69465836192734942 0 -0.71933980857756763 1 I I 0 1 1 forward I I I I #
face $-1 $134 $135 $47 $-1 $136 reversed single #
loop $-1 $-1 $137 $61 #
plane-surface $-1 48.08872709066852 16.236755238313492 134.92010170268296 0 1 0 0.71933980857756763 0 0.69465836192734942 forward_v I I I I #
face $-1 $138 $139 $48 $-1 $140 forward single #
loop $-1 $141 $142 $62 #
cone-surface $-1 42.101731002624518 18.326827367746613 7.8698287777576166 -0.71933980857756763 0 -0.69465836192734942 0.69465836192734942 0 -0.71933980857756763 1 I I 0 1 1 forward I I I I #
face $-1 $143 $144 $49 $-1 $145 forward single #
loop $-1 $146 $147 $63 #
cone-surface $-1 42.101731002624518 21.461935561896286 7.8698287777576166 -0.71933980857756763 0 -0.69465836192734942 0.69465836192734942 0 -0.71933980857756763 1 I I 0 1 1 forward I I I I #
face $-1 $148 $149 $50 $-1 $150 reversed single #
loop $-1 $-1 $151 $64 #
plane-surface $-1 -111.75638029481343 -11.212113095692981 68.990315237026948 0 1 0 -0.71933980857756763 0 0.69465836192734942 forward_v I I I I #
face $-1 $152 $153 $51 $-1 $154 forward single #
loop $-1 $155 $156 $65 #
cone-surface $-1 -42.101731002624518 -9.1220409662598634 7.8698287777576308 0.71933980857756763 0 -0.69465836192734942 0.69465836192734942 0 0.71933980857756763 1 I I 0 1 1 forward I I I I #
face $-1 $157 $158 $52 $-1 $159 forward single #
loop $-1 $160 $161 $66 #
cone-surface $-1 -42.101731002624518 -5.9869327721101868 7.8698287777576308 0.71933980857756763 0 -0.69465836192734942 0.69465836192734942 0 0.71933980857756763 1 I I 0 1 1 forward I I I I #
face $-1 $162 $163 $53 $-1 $164 reversed single #
loop $-1 $-1 $165 $67 #
plane-surface $-1 -111.75638029481343 16.236755238313492 68.990315237026948 0 1 0 -0.71933980857756763 0 0.69465836192734942 forward_v I I I I #
face $-1 $166 $167 $54 $-1 $168 forward single #
loop $-1 $169 $170 $68 #
cone-surface $-1 -42.101731002624518 18.326827367746613 7.8698287777576308 0.71933980857756763 0 -0.69465836192734942 0.69465836192734942 0 0.71933980857756763 1 I I 0 1 1 forward I I I I #
face $-1 $171 $172 $55 $-1 $173 forward single #
loop $-1 $174 $175 $69 #
cone-surface $-1 -42.101731002624518 21.461935561896286 7.8698287777576308 0.71933980857756763 0 -0.69465836192734942 0.69465836192734942 0 0.71933980857756763 1 I I 0 1 1 forward I I I I #
face $-1 $176 $177 $42 $-1 $178 reversed single #
loop $-1 $-1 $179 $70 #
plane-surface $-1 0 0 -11.681317413212851 0 0 1 1 0 0 forward_v I I I I #
coedge $-1 $180 $181 $182 $183 forward $71 $-1 #
face $-1 $184 $185 $43 $-1 $186 reversed single #
loop $-1 $-1 $187 $73 #
plane-surface $-1 0 -24.380602449862771 4.990799928175905 0 0 1 1 0 0 forward_v I I I I #
coedge $-1 $188 $189 $190 $191 reversed $74 $-1 #
face $-1 $192 $193 $44 $-1 $194 reversed single #
loop $-1 $-1 $195 $76 #
plane-surface $-1 -17.841059374987516 -7.5544868691850269 71.252448498538058 0.71933980857756763 0 0.69465836192734942 0.69465836192734942 0 -0.71933980857756763 forward_v I I I I #
coedge $-1 $196 $197 $198 $199 reversed $77 $-1 #
face $-1 $-1 $200 $45 $-1 $201 forward single #
loop $-1 $202 $203 $79 #
cone-surface $-1 41.087439260756021 -9.1220409662598634 6.8903386515041181 -0.71933980857756763 0 -0.69465836192734942 0.34732918096367471 0 -0.35966990428878381 1 I I -0.70710678118654746 0.70710678118654746 0.5 forward I I I I #
loop $-1 $-1 $204 $59 #
coedge $-1 $128 $128 $205 $206 reversed $80 $-1 #
face $-1 $-1 $207 $46 $-1 $208 forward single #
loop $-1 $209 $210 $82 #
cone-surface $-1 41.087439260756021 -5.9869327721101868 6.8903386515041181 -0.71933980857756763 0 -0.69465836192734942 0.34732918096367471 0 -0.35966990428878381 1 I I -0.70710678118654746 0.70710678118654746 0.5 forward I I I I #
loop $-1 $-1 $211 $60 #
coedge $-1 $133 $133 $212 $213 reversed $83 $-1 #
face $-1 $214 $215 $47 $-1 $216 reversed single #
loop $-1 $-1 $217 $85 #
plane-surface $-1 -17.841059374987516 19.894381464821446 71.252448498538058 0.71933980857756763 0 0.69465836192734942 0.69465836192734942 0 -0.71933980857756763 forward_v I I I I #
coedge $-1 $218 $219 $220 $221 reversed $86 $-1 #
face $-1 $-1 $222 $48 $-1 $223 forward single #
loop $-1 $224 $225 $88 #
cone-surface $-1 41.087439260756021 18.326827367746613 6.8903386515041181 -0.71933980857756763 0 -0.69465836192734942 0.34732918096367471 0 -0.35966990428878381 1 I I -0.70710678118654746 0.70710678118654746 0.5 forward I I I I #
loop $-1 $-1 $226 $62 #
coedge $-1 $142 $142 $227 $228 reversed $89 $-1 #
face $-1 $-1 $229 $49 $-1 $230 forward single #
loop $-1 $231 $232 $91 #
cone-surface $-1 41.087439260756021 21.461935561896286 6.8903386515041181 -0.71933980857756763 0 -0.69465836192734942 0.34732918096367471 0 -0.35966990428878381 1 I I -0.70710678118654746 0.70710678118654746 0.5 forward I I I I #
loop $-1 $-1 $233 $63 #
coedge $-1 $147 $147 $234 $235 reversed $92 $-1 #
face $-1 $236 $237 $50 $-1 $238 reversed single #
loop $-1 $-1 $239 $94 #
plane-surface $-1 -45.826593829157389 -7.5544868691850269 5.3226620328820431 -0.71933980857756763 0 0.69465836192734942 0.69465836192734942 0 0.71933980857756763 forward_v I I I I #
coedge $-1 $240 $241 $242 $243 reversed $95 $-1 #
face $-1 $-1 $244 $51 $-1 $245 forward single #
loop $-1 $246 $247 $97 #
cone-surface $-1 -41.087439260756021 -9.1220409662598634 6.8903386515041323 0.71933980857756763 0 -0.69465836192734942 0.34732918096367471 0 0.35966990428878381 1 I I -0.70710678118654746 0.70710678118654746 0.5 forward I I I I #
loop $-1 $-1 $248 $65 #
coedge $-1 $156 $156 $249 $250 reversed $98 $-1 #
face $-1 $-1 $251 $52 $-1 $252 forward single #
loop $-1 $253 $254 $100 #
cone-surface $-1 -41.087439260756021 -5.9869327721101868 6.8903386515041323 0.71933980857756763 0 -0.69465836192734942 0.34732918096367471 0 0.35966990428878381 1 I I -0.70710678118654746 0.70710678118654746 0.5 forward I I I I #
loop $-1 $-1 $255 $66 #
coedge $-1 $161 $161 $256 $257 reversed $101 $-1 #
face $-1 $258 $259 $53 $-1 $260 reversed single #
loop $-1 $-1 $261 $103 #
plane-surface $-1 -45.826593829157389 19.894381464821446 5.3226620328820431 -0.71933980857756763 0 0.69465836192734942 0.69465836192734942 0 0.71933980857756763 forward_v I I I I #
coedge $-1 $262 $263 $264 $265 reversed $104 $-1 #
face $-1 $-1 $266 $54 $-1 $267 forward single #
loop $-1 $268 $269 $106 #
cone-surface $-1 -41.087439260756021 18.326827367746613 6.8903386515041323 0.71933980857756763 0 -0.69465836192734942 0.34732918096367471 0 0.35966990428878381 1 I I -0.70710678118654746 0.70710678118654746 0.5 forward I I I I #
loop $-1 $-1 $270 $68 #
coedge $-1 $170 $170 $271 $272 reversed $107 $-1 #
face $-1 $-1 $273 $55 $-1 $274 forward single #
loop $-1 $275 $276 $109 #
cone-surface $-1 -41.087439260756021 21.461935561896286 6.8903386515041323 0.71933980857756763 0 -0.69465836192734942 0.34732918096367471 0 0.35966990428878381 1 I I -0.70710678118654746 0.70710678118654746 0.5 forward I I I I #
loop $-1 $-1 $277 $69 #
coedge $-1 $175 $175 $278 $279 reversed $110 $-1 #
face $-1 $280 $281 $42 $-1 $282 reversed single #
loop $-1 $-1 $283 $112 #
plane-surface $-1 0 -30.550549747680979 0 0 1 0 0 0 1 forward_v I I I I #
coedge $-1 $284 $285 $286 $287 forward $113 $-1 #
coedge $-1 $288 $115 $289 $290 forward $71 $-1 #
coedge $-1 $115 $288 $291 $292 forward $71 $-1 #
coedge $-1 $293 $294 $115 $183 reversed $295 $-1 #
edge $-1 $296 -30.550549747680979 $297 30.550549747680979 $182 $298 forward 7 unknown #
face $-1 $299 $300 $43 $-1 $301 reversed single #
loop $-1 $-1 $302 $116 #
plane-surface $-1 0 -18.210655152044563 7.921592450706628 0 -1 0 0 0 -1 forward_v I I I I #
coedge $-1 $303 $304 $305 $306 reversed $117 $-1 #
coedge $-1 $307 $119 $308 $309 forward $74 $-1 #
coedge $-1 $119 $307 $310 $311 reversed $74 $-1 #
coedge $-1 $312 $313 $119 $191 forward $314 $-1 #
edge $-1 $315 6.0203539271131774 $316 18.360248522749593 $190 $317 forward 7 unknown #
face $-1 $318 $319 $44 $-1 $320 forward single #
loop $-1 $-1 $321 $120 #
plane-surface $-1 48.08872709066852 -3.8968606426770727 134.92010170268296 0 -1 0 -0.71933980857756763 0 -0.69465836192734942 forward_v I I I I #
coedge $-1 $322 $323 $324 $325 reversed $121 $-1 #
coedge $-1 $197 $123 $326 $327 reversed $77 $-1 #
coedge $-1 $123 $196 $322 $328 reversed $77 $-1 #
coedge $-1 $324 $329 $123 $199 forward $330 $-1 #
edge $-1 $331 55.778733438128626 $332 62.137388818459456 $198 $333 forward 7 unknown #
loop $-1 $-1 $205 $124 #
plane-surface $-1 -17.841059374987516 -7.5544868691850269 71.252448498538058 0.71933980857756763 0 0.69465836192734942 0.69465836192734942 0 -0.71933980857756763 forward_v I I I I #
loop $-1 $-1 $334 $79 #
coedge $-1 $203 $203 $204 $335 reversed $125 $-1 #
coedge $-1 $204 $204 $203 $335 forward $127 $-1 #
coedge $-1 $205 $205 $128 $206 forward $200 $-1 #
edge $-1 $336 0 $336 6.2831853071796004 $205 $337 forward 7 unknown #
loop $-1 $-1 $212 $129 #
plane-surface $-1 -17.841059374987516 -7.5544868691850269 71.252448498538058 0.71933980857756763 0 0.69465836192734942 0.69465836192734942 0 -0.71933980857756763 forward_v I I I I #
loop $-1 $-1 $338 $82 #
coedge $-1 $210 $210 $211 $339 reversed $130 $-1 #
coedge $-1 $211 $211 $210 $339 forward $132 $-1 #
coedge $-1 $212 $212 $133 $213 forward $207 $-1 #
edge $-1 $340 0 $340 6.2831853071796004 $212 $341 forward 7 unknown #
face $-1 $342 $343 $47 $-1 $344 reversed single #
loop $-1 $-1 $345 $134 #
plane-surface $-1 48.08872709066852 23.552007691329401 134.92010170268296 0 -1 0 -0.71933980857756763 0 -0.69465836192734942 forward_v I I I I #
coedge $-1 $346 $347 $348 $349 reversed $135 $-1 #
coedge $-1 $219 $137 $350 $351 reversed $86 $-1 #
coedge $-1 $137 $218 $346 $352 reversed $86 $-1 #
coedge $-1 $348 $353 $137 $221 forward $343 $-1 #
edge $-1 $354 55.778733438128626 $355 62.137388818459456 $220 $356 forward 7 unknown #
loop $-1 $-1 $227 $138 #
plane-surface $-1 -17.841059374987516 19.894381464821446 71.252448498538058 0.71933980857756763 0 0.69465836192734942 0.69465836192734942 0 -0.71933980857756763 forward_v I I I I #
loop $-1 $-1 $357 $88 #
coedge $-1 $225 $225 $226 $358 reversed $139 $-1 #
coedge $-1 $226 $226 $225 $358 forward $141 $-1 #
coedge $-1 $227 $227 $142 $228 forward $222 $-1 #
edge $-1 $359 0 $359 6.2831853071796004 $227 $360 forward 7 unknown #
loop $-1 $-1 $234 $143 #
plane-surface $-1 -17.841059374987516 19.894381464821446 71.252448498538058 0.71933980857756763 0 0.69465836192734942 0.69465836192734942 0 -0.71933980857756763 forward_v I I I I #
loop $-1 $-1 $361 $91 #
coedge $-1 $232 $232 $233 $362 reversed $144 $-1 #
coedge $-1 $233 $233 $232 $362 forward $146 $-1 #
coedge $-1 $234 $234 $147 $235 forward $229 $-1 #
edge $-1 $363 0 $363 6.2831853071796004 $234 $364 forward 7 unknown #
face $-1 $365 $366 $50 $-1 $367 reversed single #
loop $-1 $-1 $368 $148 #
plane-surface $-1 -111.75638029481343 -3.8968606426770727 68.990315237026948 0 -1 0 0.71933980857756763 0 -0.69465836192734942 forward_v I I I I #
coedge $-1 $369 $370 $371 $372 reversed $149 $-1 #
coedge $-1 $241 $151 $373 $374 reversed $95 $-1 #
coedge $-1 $151 $240 $369 $375 reversed $95 $-1 #
coedge $-1 $371 $376 $151 $243 forward $377 $-1 #
edge $-1 $378 10.051596318249331 $379 16.192078296155628 $242 $380 forward 7 unknown #
loop $-1 $-1 $249 $152 #
plane-surface $-1 -45.826593829157389 -7.5544868691850269 5.3226620328820431 -0.71933980857756763 0 0.69465836192734942 0.69465836192734942 0 0.71933980857756763 forward_v I I I I #
loop $-1 $-1 $381 $97 #
coedge $-1 $247 $247 $248 $382 reversed $153 $-1 #
coedge $-1 $248 $248 $247 $382 forward $155 $-1 #
coedge $-1 $249 $249 $156 $250 forward $244 $-1 #
edge $-1 $383 0 $383 6.2831853071796004 $249 $384 forward 7 unknown #
loop $-1 $-1 $256 $157 #
plane-surface $-1 -45.826593829157389 -7.5544868691850269 5.3226620328820431 -0.71933980857756763 0 0.69465836192734942 0.69465836192734942 0 0.71933980857756763 forward_v I I I I #
loop $-1 $-1 $385 $100 #
coedge $-1 $254 $254 $255 $386 reversed $158 $-1 #
coedge $-1 $255 $255 $254 $386 forward $160 $-1 #
coedge $-1 $256 $256 $161 $257 forward $251 $-1 #
edge $-1 $387 0 $387 6.2831853071796004 $256 $388 forward 7 unknown #
face $-1 $389 $390 $53 $-1 $391 forward single #
loop $-1 $-1 $392 $162 #
plane-surface $-1 -111.75638029481343 23.552007691329401 68.990315237026948 0 -1 0 0.71933980857756763 0 -0.69465836192734942 forward_v I I I I #
coedge $-1 $393 $394 $395 $396 reversed $163 $-1 #
coedge $-1 $263 $165 $397 $398 reversed $104 $-1 #
coedge $-1 $165 $262 $393 $399 reversed $104 $-1 #
coedge $-1 $395 $400 $165 $265 forward $390 $-1 #
edge $-1 $401 10.051596318249331 $402 16.192078296155628 $264 $403 forward 7 unknown #
loop $-1 $-1 $271 $166 #
plane-surface $-1 -45.826593829157389 19.894381464821446 5.3226620328820431 -0.71933980857756763 0 0.69465836192734942 0.69465836192734942 0 0.71933980857756763 forward_v I I I I #
loop $-1 $-1 $404 $106 #
coedge $-1 $269 $269 $270 $405 reversed $167 $-1 #
coedge $-1 $270 $270 $269 $405 forward $169 $-1 #
coedge $-1 $271 $271 $170 $272 forward $266 $-1 #
edge $-1 $406 0 $406 6.2831853071796004 $271 $407 forward 7 unknown #
loop $-1 $-1 $278 $171 #
plane-surface $-1 -45.826593829157389 19.894381464821446 5.3226620328820431 -0.71933980857756763 0 0.69465836192734942 0.69465836192734942 0 0.71933980857756763 forward_v I I I I #
loop $-1 $-1 $408 $109 #
coedge $-1 $276 $276 $277 $409 reversed $172 $-1 #
coedge $-1 $277 $277 $276 $409 forward $174 $-1 #
coedge $-1 $278 $278 $175 $279 forward $273 $-1 #
edge $-1 $410 0 $410 6.2831853071796004 $278 $411 forward 7 unknown #
face $-1 $412 $413 $42 $-1 $414 reversed single #
loop $-1 $-1 $415 $176 #
plane-surface $-1 -45.826593829157382 0 0 1 0 0 0 0 -1 forward_v I I I I #
coedge $-1 $416 $291 $417 $418 forward $177 $-1 #
coedge $-1 $419 $179 $416 $420 forward $113 $-1 #
coedge $-1 $179 $419 $421 $422 forward $113 $-1 #
coedge $-1 $294 $293 $179 $287 reversed $295 $-1 #
edge $-1 $423 -30.550549747680979 $424 30.550549747680979 $286 $425 forward 7 unknown #
coedge $-1 $181 $180 $426 $427 forward $71 $-1 #
coedge $-1 $428 $429 $180 $290 reversed $413 $-1 #
edge $-1 $297 -45.826593829157382 $430 45.826593829157382 $289 $431 forward 7 unknown #
coedge $-1 $283 $432 $181 $292 reversed $177 $-1 #
edge $-1 $433 -45.826593829157382 $296 45.826593829157382 $291 $434 forward 7 unknown #
coedge $-1 $286 $182 $432 $435 forward $295 $-1 #
coedge $-1 $182 $286 $428 $436 reversed $295 $-1 #
loop $-1 $-1 $293 $412 #
vertex $-1 $183 $437 #
vertex $-1 $183 $438 #
straight-curve $-1 45.826593829157382 0 11.681317413212851 0 1 0 I I #
face $-1 $439 $440 $43 $-1 $441 reversed single #
loop $-1 $-1 $442 $184 #
plane-surface $-1 -45.826593829157382 0 0 1 0 0 0 0 -1 forward_v I I I I #
coedge $-1 $443 $308 $313 $444 reversed $185 $-1 #
coedge $-1 $445 $187 $446 $447 reversed $117 $-1 #
coedge $-1 $187 $445 $443 $448 forward $117 $-1 #
coedge $-1 $313 $312 $187 $306 forward $314 $-1 #
edge $-1 $449 -18.360248522749593 $450 -6.0203539271131774 $305 $451 forward 7 unknown #
coedge $-1 $189 $188 $442 $452 reversed $74 $-1 #
coedge $-1 $302 $453 $188 $309 reversed $185 $-1 #
edge $-1 $315 -45.826593829157382 $454 45.826593829157382 $308 $455 forward 7 unknown #
coedge $-1 $456 $457 $189 $311 forward $440 $-1 #
edge $-1 $316 -45.826593829157382 $458 45.826593829157382 $310 $459 forward 7 unknown #
coedge $-1 $305 $190 $457 $460 forward $314 $-1 #
coedge $-1 $190 $305 $302 $444 forward $314 $-1 #
loop $-1 $-1 $190 $439 #
vertex $-1 $191 $461 #
vertex $-1 $460 $462 #
straight-curve $-1 45.826593829157382 -12.190301224931385 10.852384973237351 0 -1 0 I I #
face $-1 $-1 $330 $44 $-1 $463 reversed single #
loop $-1 $-1 $464 $192 #
plane-surface $-1 0 0 11.681317413212851 0 0 1 1 0 0 forward_v I I I I #
coedge $-1 $465 $466 $467 $468 reversed $193 $-1 #
coedge $-1 $469 $195 $197 $328 forward $121 $-1 #
coedge $-1 $195 $469 $465 $470 forward $121 $-1 #
coedge $-1 $467 $198 $195 $325 forward $330 $-1 #
edge $-1 $332 -7.4348696611004677 $471 -0.11961720808455922 $324 $472 forward 7 unknown #
coedge $-1 $473 $474 $196 $327 forward $319 $-1 #
edge $-1 $475 15.641748305916803 $331 21.782230283823122 $326 $476 forward 7 unknown #
edge $-1 $332 -91.653187658314778 $475 -82.813616562000078 $197 $477 forward 7 unknown #
coedge $-1 $198 $467 $473 $478 reversed $330 $-1 #
loop $-1 $-1 $467 $318 #
vertex $-1 $478 $479 #
vertex $-1 $199 $480 #
straight-curve $-1 45.826593829157382 -11.212113095692981 67.460050851341478 0 0 -1 I I #
coedge $-1 $334 $334 $-1 $481 reversed $202 $-1 #
edge $-1 $482 0 $482 6.2831853071796004 $203 $483 forward 7 unknown #
vertex $-1 $206 $484 #
ellipse-curve $-1 42.756352840204229 -9.1220409662598634 8.5019897230474371 0.71933980857756763 0 0.69465836192734942 0.69465836192734942 0 -0.71933980857756763 1 I I #
coedge $-1 $338 $338 $-1 $485 reversed $209 $-1 #
edge $-1 $486 0 $486 6.2831853071796004 $210 $487 forward 7 unknown #
vertex $-1 $213 $488 #
ellipse-curve $-1 42.756352840204229 -5.9869327721101868 8.5019897230474371 0.71933980857756763 0 0.69465836192734942 0.69465836192734942 0 -0.71933980857756763 1 I I #
face $-1 $-1 $489 $47 $-1 $490 forward single #
loop $-1 $-1 $220 $214 #
plane-surface $-1 45.826593829157382 0 0 -1 0 0 0 0 1 forward_v I I I I #
coedge $-1 $491 $492 $493 $494 reversed $215 $-1 #
coedge $-1 $495 $217 $219 $352 forward $135 $-1 #
coedge $-1 $217 $495 $491 $496 forward $135 $-1 #
coedge $-1 $493 $220 $217 $349 forward $343 $-1 #
edge $-1 $355 6.2895645059027689 $497 13.604816958918677 $348 $498 forward 7 unknown #
coedge $-1 $499 $500 $218 $351 forward $489 $-1 #
edge $-1 $501 15.641748305916803 $354 21.782230283823122 $350 $502 forward 7 unknown #
edge $-1 $355 -91.653187658314778 $501 -82.813616562000078 $219 $503 forward 7 unknown #
coedge $-1 $220 $493 $499 $504 reversed $343 $-1 #
vertex $-1 $504 $505 #
vertex $-1 $221 $506 #
straight-curve $-1 45.826593829157382 16.236755238313492 67.460050851341478 0 0 -1 I I #
coedge $-1 $357 $357 $-1 $507 reversed $224 $-1 #
edge $-1 $508 0 $508 6.2831853071796004 $225 $509 forward 7 unknown #
vertex $-1 $228 $510 #
ellipse-curve $-1 42.756352840204229 18.326827367746613 8.5019897230474371 0.71933980857756763 0 0.69465836192734942 0.69465836192734942 0 -0.71933980857756763 1 I I #
coedge $-1 $361 $361 $-1 $511 reversed $231 $-1 #
edge $-1 $512 0 $512 6.2831853071796004 $232 $513 forward 7 unknown #
vertex $-1 $235 $514 #
ellipse-curve $-1 42.756352840204229 21.461935561896286 8.5019897230474371 0.71933980857756763 0 0.69465836192734942 0.69465836192734942 0 -0.71933980857756763 1 I I #
face $-1 $-1 $377 $50 $-1 $515 forward single #
loop $-1 $-1 $516 $236 #
plane-surface $-1 -45.826593829157382 0 0 1 0 0 0 0 -1 forward_v I I I I #
coedge $-1 $517 $518 $519 $520 reversed $237 $-1 #
coedge $-1 $521 $239 $241 $375 forward $149 $-1 #
coedge $-1 $239 $521 $517 $522 forward $149 $-1 #
coedge $-1 $519 $242 $239 $372 forward $377 $-1 #
edge $-1 $379 -7.4348696611004677 $523 -0.11961720808455922 $371 $524 forward 7 unknown #
coedge $-1 $525 $526 $240 $374 forward $366 $-1 #
edge $-1 $527 -29.172495585631424 $378 -22.813840205300622 $373 $528 forward 7 unknown #
edge $-1 $379 -8.839571096314689 $527 -1.0047061284303404e-014 $241 $529 forward 7 unknown #
coedge $-1 $242 $519 $525 $530 forward $377 $-1 #
loop $-1 $-1 $519 $365 #
vertex $-1 $374 $531 #
vertex $-1 $243 $532 #
straight-curve $-1 -55.878190147406713 -11.212113095692981 11.681317413212852 1 0 0 I I #
coedge $-1 $381 $381 $-1 $533 reversed $246 $-1 #
edge $-1 $534 0 $534 6.2831853071796004 $247 $535 forward 7 unknown #
vertex $-1 $250 $536 #
ellipse-curve $-1 -42.756352840204229 -9.1220409662598634 8.501989723047453 -0.71933980857756763 0 0.69465836192734942 0.69465836192734942 0 0.71933980857756763 1 I I #
coedge $-1 $385 $385 $-1 $537 reversed $253 $-1 #
edge $-1 $538 0 $538 6.2831853071796004 $254 $539 forward 7 unknown #
vertex $-1 $257 $540 #
ellipse-curve $-1 -42.756352840204229 -5.9869327721101868 8.501989723047453 -0.71933980857756763 0 0.69465836192734942 0.69465836192734942 0 0.71933980857756763 1 I I #
face $-1 $-1 $541 $53 $-1 $542 reversed single #
loop $-1 $-1 $264 $258 #
plane-surface $-1 0 0 11.681317413212851 0 0 1 1 0 0 forward_v I I I I #
coedge $-1 $543 $544 $545 $546 reversed $259 $-1 #
coedge $-1 $547 $261 $263 $399 forward $163 $-1 #
coedge $-1 $261 $547 $543 $548 forward $163 $-1 #
coedge $-1 $545 $264 $261 $396 forward $390 $-1 #
edge $-1 $402 6.2895645059027689 $549 13.604816958918677 $395 $550 forward 7 unknown #
coedge $-1 $551 $552 $262 $398 forward $541 $-1 #
edge $-1 $553 -29.172495585631424 $401 -22.813840205300622 $397 $554 forward 7 unknown #
edge $-1 $402 -8.839571096314689 $553 -1.0047061284303404e-014 $263 $555 forward 7 unknown #
coedge $-1 $264 $545 $551 $556 forward $390 $-1 #
vertex $-1 $265 $557 #
vertex $-1 $265 $558 #
straight-curve $-1 -55.878190147406713 16.236755238313492 11.681317413212852 1 0 0 I I #
coedge $-1 $404 $404 $-1 $559 reversed $268 $-1 #
edge $-1 $560 0 $560 6.2831853071796004 $269 $561 forward 7 unknown #
vertex $-1 $272 $562 #
ellipse-curve $-1 -42.756352840204229 18.326827367746613 8.501989723047453 -0.71933980857756763 0 0.69465836192734942 0.69465836192734942 0 0.71933980857756763 1 I I #
coedge $-1 $408 $408 $-1 $563 reversed $275 $-1 #
edge $-1 $564 0 $564 6.2831853071796004 $276 $565 forward 7 unknown #
vertex $-1 $279 $566 #
ellipse-curve $-1 -42.756352840204229 21.461935561896286 8.501989723047453 -0.71933980857756763 0 0.69465836192734942 0.69465836192734942 0 0.71933980857756763 1 I I #
face $-1 $-1 $295 $42 $-1 $567 reversed single #
loop $-1 $-1 $428 $280 #
plane-surface $-1 0 30.550549747680979 0 0 -1 0 0 0 -1 forward_v I I I I #
coedge $-1 $568 $426 $429 $569 forward $281 $-1 #
coedge $-1 $432 $283 $284 $420 reversed $177 $-1 #
coedge $-1 $426 $568 $283 $418 reversed $281 $-1 #
edge $-1 $433 -11.681317413212851 $570 11.681317413212851 $417 $571 forward 7 unknown #
coedge $-1 $285 $284 $568 $572 forward $113 $-1 #
edge $-1 $424 -45.826593829157382 $570 45.826593829157382 $416 $573 forward 7 unknown #
coedge $-1 $429 $428 $285 $422 reversed $413 $-1 #
edge $-1 $574 -45.826593829157382 $423 45.826593829157382 $421 $575 forward 7 unknown #
vertex $-1 $287 $576 #
vertex $-1 $435 $577 #
straight-curve $-1 45.826593829157382 0 -11.681317413212851 0 -1 0 I I #
coedge $-1 $415 $417 $288 $427 reversed $281 $-1 #
edge $-1 $430 -30.550549747680979 $433 30.550549747680979 $426 $578 forward 7 unknown #
coedge $-1 $421 $289 $294 $436 forward $413 $-1 #
coedge $-1 $289 $421 $415 $569 reversed $413 $-1 #
vertex $-1 $290 $579 #
straight-curve $-1 0 30.550549747680979 11.681317413212851 -1 0 0 I I #
coedge $-1 $291 $416 $293 $435 reversed $177 $-1 #
vertex $-1 $427 $580 #
straight-curve $-1 0 -30.550549747680979 11.681317413212851 1 0 0 I I #
edge $-1 $296 -11.681317413212851 $424 11.681317413212851 $293 $581 forward 7 unknown #
edge $-1 $297 -11.681317413212851 $423 11.681317413212851 $294 $582 forward 7 unknown #
point $-1 45.826593829157382 -30.550549747680979 11.681317413212851 #
point $-1 45.826593829157382 30.550549747680979 11.681317413212851 #
face $-1 $-1 $314 $43 $-1 $583 reversed single #
loop $-1 $-1 $310 $299 #
plane-surface $-1 0 -30.550549747680979 0 0 1 0 0 0 1 forward_v I I I I #
coedge $-1 $584 $585 $307 $452 forward $300 $-1 #
coedge $-1 $453 $302 $304 $448 reversed $185 $-1 #
edge $-1 $450 1.030003702822591 $315 6.891588747884037 $313 $586 forward 7 unknown #
coedge $-1 $304 $303 $587 $588 reversed $117 $-1 #
coedge $-1 $457 $456 $303 $447 forward $440 $-1 #
edge $-1 $589 -45.826593829157382 $449 45.826593829157382 $446 $590 forward 7 unknown #
edge $-1 $591 -45.826593829157382 $450 45.826593829157382 $443 $592 forward 7 unknown #
vertex $-1 $447 $593 #
vertex $-1 $306 $594 #
straight-curve $-1 45.826593829157382 -12.190301224931385 4.990799928175905 0 1 0 I I #
edge $-1 $458 -18.360248522749593 $454 -6.0203539271131774 $442 $595 forward 7 unknown #
coedge $-1 $308 $443 $584 $596 reversed $185 $-1 #
vertex $-1 $452 $597 #
straight-curve $-1 0 -18.210655152044563 10.852384973237351 -1 0 0 I I #
coedge $-1 $446 $310 $585 $598 forward $440 $-1 #
coedge $-1 $310 $446 $312 $460 reversed $440 $-1 #
vertex $-1 $598 $599 #
straight-curve $-1 0 -30.550549747680979 10.852384973237351 -1 0 0 I I #
edge $-1 $316 -10.852384973237351 $449 -4.990799928175905 $312 $600 forward 7 unknown #
point $-1 45.826593829157382 -18.210655152044563 10.852384973237351 #
point $-1 45.826593829157382 -30.550549747680979 10.852384973237351 #
plane-surface $-1 45.826593829157382 0 0 -1 0 0 0 0 1 forward_v I I I I #
coedge $-1 $474 $473 $466 $601 forward $319 $-1 #
coedge $-1 $466 $321 $323 $470 reversed $193 $-1 #
coedge $-1 $321 $465 $464 $601 reversed $193 $-1 #
coedge $-1 $329 $324 $321 $468 forward $330 $-1 #
edge $-1 $471 -62.137388818459456 $602 -55.778733438128626 $467 $603 forward 7 unknown #
coedge $-1 $323 $322 $474 $604 reversed $121 $-1 #
edge $-1 $605 82.813616562000078 $471 91.653187658314778 $465 $606 forward 7 unknown #
vertex $-1 $325 $607 #
straight-curve $-1 45.826593829157375 -3.7772434345925134 5.3226620328820253 0 1 0 I I #
coedge $-1 $464 $326 $329 $478 forward $319 $-1 #
coedge $-1 $326 $464 $469 $604 forward $319 $-1 #
vertex $-1 $327 $608 #
straight-curve $-1 24.04436354533426 -11.212113095692981 11.681317413212852 1 0 0 I I #
straight-curve $-1 -17.841059374987516 -11.212113095692981 71.252448498538058 -0.69465836192734942 0 0.71933980857756763 I I #
edge $-1 $331 -11.212113095692981 $602 -3.8968606426770727 $329 $609 forward 7 unknown #
point $-1 45.826593829157382 -11.212113095692981 11.681317413212851 #
point $-1 45.826593829157389 -11.212113095692981 5.3226620328820218 #
edge $-1 $610 1 $610 0 $334 $-1 forward 7 unknown #
vertex $-1 $335 $611 #
ellipse-curve $-1 41.447109165044807 -9.1220409662598634 7.2376678324677926 0.71933980857756763 0 0.69465836192734942 0.69465836192734942 0 -0.71933980857756763 1 I I #
point $-1 43.451011202131582 -9.1220409662598634 7.7826499144698715 #
edge $-1 $612 1 $612 0 $338 $-1 forward 7 unknown #
vertex $-1 $339 $613 #
ellipse-curve $-1 41.447109165044807 -5.9869327721101868 7.2376678324677926 0.71933980857756763 0 0.69465836192734942 0.69465836192734942 0 -0.71933980857756763 1 I I #
point $-1 43.451011202131582 -5.9869327721101868 7.7826499144698715 #
loop $-1 $-1 $350 $342 #
plane-surface $-1 0 0 11.681317413212851 0 0 1 1 0 0 forward_v I I I I #
coedge $-1 $492 $345 $347 $496 reversed $215 $-1 #
coedge $-1 $345 $491 $614 $615 reversed $215 $-1 #
coedge $-1 $353 $348 $345 $494 forward $343 $-1 #
edge $-1 $497 -62.137388818459456 $616 -55.778733438128626 $493 $617 forward 7 unknown #
coedge $-1 $347 $346 $500 $618 reversed $135 $-1 #
edge $-1 $619 82.813616562000078 $497 91.653187658314778 $491 $620 forward 7 unknown #
vertex $-1 $349 $621 #
straight-curve $-1 45.826593829157375 9.9471907324107232 5.3226620328820253 0 1 0 I I #
coedge $-1 $614 $350 $353 $504 forward $489 $-1 #
coedge $-1 $350 $614 $495 $618 forward $489 $-1 #
vertex $-1 $351 $622 #
straight-curve $-1 24.04436354533426 16.236755238313492 11.681317413212852 1 0 0 I I #
straight-curve $-1 -17.841059374987516 16.236755238313492 71.252448498538058 -0.69465836192734942 0 0.71933980857756763 I I #
edge $-1 $354 16.236755238313492 $616 23.552007691329401 $353 $623 forward 7 unknown #
point $-1 45.826593829157382 16.236755238313492 11.681317413212851 #
point $-1 45.826593829157389 16.236755238313492 5.3226620328820218 #
edge $-1 $624 1 $624 0 $357 $-1 forward 7 unknown #
vertex $-1 $358 $625 #
ellipse-curve $-1 41.447109165044807 18.326827367746613 7.2376678324677926 0.71933980857756763 0 0.69465836192734942 0.69465836192734942 0 -0.71933980857756763 1 I I #
point $-1 43.451011202131582 18.326827367746613 7.7826499144698715 #
edge $-1 $626 1 $626 0 $361 $-1 forward 7 unknown #
vertex $-1 $362 $627 #
ellipse-curve $-1 41.447109165044807 21.461935561896286 7.2376678324677926 0.71933980857756763 0 0.69465836192734942 0.69465836192734942 0 -0.71933980857756763 1 I I #
point $-1 43.451011202131582 21.461935561896286 7.7826499144698715 #
plane-surface $-1 0 0 11.681317413212851 0 0 1 1 0 0 forward_v I I I I #
coedge $-1 $526 $525 $518 $628 forward $366 $-1 #
coedge $-1 $518 $368 $370 $522 reversed $237 $-1 #
coedge $-1 $368 $517 $516 $628 reversed $237 $-1 #
coedge $-1 $376 $371 $368 $520 forward $377 $-1 #
edge $-1 $523 -16.192078296155628 $629 -10.051596318249331 $519 $630 forward 7 unknown #
coedge $-1 $370 $369 $526 $631 reversed $149 $-1 #
edge $-1 $632 1.0047061284303404e-014 $523 8.839571096314689 $517 $633 forward 7 unknown #
vertex $-1 $372 $634 #
straight-curve $-1 -39.686111851251084 -3.7772434345925134 11.681317413212852 0 1 0 I I #
coedge $-1 $516 $373 $376 $530 reversed $366 $-1 #
coedge $-1 $373 $516 $521 $631 forward $366 $-1 #
vertex $-1 $374 $635 #
straight-curve $-1 -45.826593829157382 -11.212113095692981 34.495157618513474 0 0 1 I I #
straight-curve $-1 -45.826593829157389 -11.212113095692981 5.3226620328820431 -0.69465836192734942 0 -0.71933980857756763 I I #
edge $-1 $629 3.8968606426770727 $378 11.212113095692981 $525 $636 forward 7 unknown #
point $-1 -45.826593829157382 -11.212113095692981 11.681317413212851 #
point $-1 -39.686111851251084 -11.212113095692981 11.681317413212852 #
edge $-1 $637 1 $637 0 $381 $-1 forward 7 unknown #
vertex $-1 $382 $638 #
ellipse-curve $-1 -41.447109165044807 -9.1220409662598634 7.2376678324678068 -0.71933980857756763 0 0.69465836192734942 0.69465836192734942 0 0.71933980857756763 1 I I #
point $-1 -42.061694478276884 -9.1220409662598634 9.2213295316250203 #
edge $-1 $639 1 $639 0 $385 $-1 forward 7 unknown #
vertex $-1 $386 $640 #
ellipse-curve $-1 -41.447109165044807 -5.9869327721101868 7.2376678324678068 -0.71933980857756763 0 0.69465836192734942 0.69465836192734942 0 0.71933980857756763 1 I I #
point $-1 -42.061694478276884 -5.9869327721101868 9.2213295316250203 #
loop $-1 $-1 $397 $389 #
plane-surface $-1 -45.826593829157382 0 0 1 0 0 0 0 -1 forward_v I I I I #
coedge $-1 $544 $392 $394 $548 reversed $259 $-1 #
coedge $-1 $392 $543 $641 $642 reversed $259 $-1 #
coedge $-1 $400 $395 $392 $546 forward $390 $-1 #
edge $-1 $549 -16.192078296155628 $643 -10.051596318249331 $545 $644 forward 7 unknown #
coedge $-1 $394 $393 $552 $645 reversed $163 $-1 #
edge $-1 $646 1.0047061284303404e-014 $549 8.839571096314689 $543 $647 forward 7 unknown #
vertex $-1 $396 $648 #
straight-curve $-1 -39.686111851251084 9.9471907324107232 11.681317413212852 0 1 0 I I #
coedge $-1 $641 $397 $400 $556 reversed $541 $-1 #
coedge $-1 $397 $641 $547 $645 forward $541 $-1 #
vertex $-1 $398 $649 #
straight-curve $-1 -45.826593829157382 16.236755238313492 34.495157618513474 0 0 1 I I #
straight-curve $-1 -45.826593829157389 16.236755238313492 5.3226620328820431 -0.69465836192734942 0 -0.71933980857756763 I I #
edge $-1 $643 -23.552007691329401 $401 -16.236755238313492 $551 $650 forward 7 unknown #
point $-1 -45.826593829157382 16.236755238313492 11.681317413212851 #
point $-1 -39.686111851251084 16.236755238313492 11.681317413212852 #
edge $-1 $651 1 $651 0 $404 $-1 forward 7 unknown #
vertex $-1 $405 $652 #
ellipse-curve $-1 -41.447109165044807 18.326827367746613 7.2376678324678068 -0.71933980857756763 0 0.69465836192734942 0.69465836192734942 0 0.71933980857756763 1 I I #
point $-1 -42.061694478276884 18.326827367746613 9.2213295316250203 #
edge $-1 $653 1 $653 0 $408 $-1 forward 7 unknown #
vertex $-1 $409 $654 #
ellipse-curve $-1 -41.447109165044807 21.461935561896286 7.2376678324678068 -0.71933980857756763 0 0.69465836192734942 0.69465836192734942 0 0.71933980857756763 1 I I #
point $-1 -42.061694478276884 21.461935561896286 9.2213295316250203 #
plane-surface $-1 45.826593829157382 0 0 -1 0 0 0 0 1 forward_v I I I I #
coedge $-1 $417 $415 $419 $572 reversed $281 $-1 #
edge $-1 $430 -11.681317413212851 $574 11.681317413212851 $429 $655 forward 7 unknown #
vertex $-1 $572 $656 #
straight-curve $-1 -45.826593829157382 -30.550549747680979 0 0 0 -1 I I #
edge $-1 $570 -30.550549747680979 $574 30.550549747680979 $568 $657 forward 7 unknown #
straight-curve $-1 0 -30.550549747680979 -11.681317413212851 -1 0 0 I I #
vertex $-1 $422 $658 #
straight-curve $-1 0 30.550549747680979 -11.681317413212851 1 0 0 I I #
point $-1 45.826593829157382 30.550549747680979 -11.681317413212851 #
point $-1 45.826593829157382 -30.550549747680979 -11.681317413212851 #
straight-curve $-1 -45.826593829157382 0 11.681317413212851 0 -1 0 I I #
point $-1 -45.826593829157382 30.550549747680979 11.681317413212851 #
point $-1 -45.826593829157382 -30.550549747680979 11.681317413212851 #
straight-curve $-1 45.826593829157382 -30.550549747680979 0 0 0 -1 I I #
straight-curve $-1 45.826593829157382 30.550549747680979 0 0 0 -1 I I #
plane-surface $-1 45.826593829157382 0 0 -1 0 0 0 0 1 forward_v I I I I #
coedge $-1 $587 $442 $453 $596 forward $300 $-1 #
coedge $-1 $442 $587 $456 $598 reversed $300 $-1 #
straight-curve $-1 45.826593829157382 -18.210655152044563 3.960796225353314 0 0 1 I I #
coedge $-1 $585 $584 $445 $588 forward $300 $-1 #
edge $-1 $591 6.0203539271131774 $589 18.360248522749593 $587 $659 forward 7 unknown #
vertex $-1 $447 $660 #
straight-curve $-1 0 -30.550549747680979 4.990799928175905 1 0 0 I I #
vertex $-1 $588 $661 #
straight-curve $-1 0 -18.210655152044563 4.990799928175905 1 0 0 I I #
point $-1 45.826593829157382 -30.550549747680979 4.990799928175905 #
point $-1 45.826593829157382 -18.210655152044563 4.990799928175905 #
straight-curve $-1 -45.826593829157382 -12.190301224931385 10.852384973237351 0 1 0 I I #
edge $-1 $454 -6.891588747884037 $591 -1.030003702822591 $584 $662 forward 7 unknown #
point $-1 -45.826593829157382 -18.210655152044563 10.852384973237351 #
edge $-1 $458 -10.852384973237351 $589 -4.990799928175905 $585 $663 forward 7 unknown #
point $-1 -45.826593829157382 -30.550549747680979 10.852384973237351 #
straight-curve $-1 45.826593829157382 -30.550549747680979 0 0 0 -1 I I #
edge $-1 $602 -21.782230283823122 $605 -15.641748305916803 $464 $664 forward 7 unknown #
vertex $-1 $601 $665 #
straight-curve $-1 45.826593829157382 -3.8968606426770727 67.460050851341478 0 0 1 I I #
edge $-1 $605 0.11961720808455922 $475 7.4348696611004677 $474 $666 forward 7 unknown #
vertex $-1 $604 $667 #
straight-curve $-1 -17.841059374987516 -3.8968606426770727 71.252448498538058 0.69465836192734942 0 -0.71933980857756763 I I #
point $-1 45.826593829157389 -3.8968606426770727 5.3226620328820218 #
point $-1 39.686111851251063 -11.212113095692981 11.681317413212845 #
straight-curve $-1 45.826593829157382 0 11.681317413212851 0 1 0 I I #
vertex $-1 $481 $668 #
point $-1 42.141767526972153 -9.1220409662598634 6.5183280238902253 #
vertex $-1 $485 $669 #
point $-1 42.141767526972153 -5.9869327721101868 6.5183280238902253 #
coedge $-1 $500 $499 $492 $615 forward $489 $-1 #
edge $-1 $616 -21.782230283823122 $619 -15.641748305916803 $614 $670 forward 7 unknown #
vertex $-1 $615 $671 #
straight-curve $-1 45.826593829157382 23.552007691329401 67.460050851341478 0 0 1 I I #
edge $-1 $619 -13.604816958918677 $501 -6.2895645059027689 $500 $672 forward 7 unknown #
vertex $-1 $618 $673 #
straight-curve $-1 -17.841059374987516 23.552007691329401 71.252448498538058 0.69465836192734942 0 -0.71933980857756763 I I #
point $-1 45.826593829157389 23.552007691329401 5.3226620328820218 #
point $-1 39.686111851251063 16.236755238313492 11.681317413212845 #
straight-curve $-1 45.826593829157382 0 11.681317413212851 0 1 0 I I #
vertex $-1 $507 $674 #
point $-1 42.141767526972153 18.326827367746613 6.5183280238902253 #
vertex $-1 $511 $675 #
point $-1 42.141767526972153 21.461935561896286 6.5183280238902253 #
edge $-1 $629 22.813840205300622 $632 29.172495585631424 $516 $676 forward 7 unknown #
vertex $-1 $530 $677 #
straight-curve $-1 -55.878190147406713 -3.8968606426770727 11.681317413212852 -1 0 0 I I #
edge $-1 $632 0.11961720808455922 $527 7.4348696611004677 $526 $678 forward 7 unknown #
vertex $-1 $631 $679 #
straight-curve $-1 -45.826593829157389 -3.8968606426770727 5.3226620328820431 0.69465836192734942 0 0.71933980857756763 I I #
point $-1 -39.686111851251084 -3.8968606426770727 11.681317413212852 #
point $-1 -45.826593829157382 -11.212113095692981 5.3226620328820502 #
straight-curve $-1 -45.826593829157382 0 11.681317413212851 0 -1 0 I I #
vertex $-1 $533 $680 #
point $-1 -40.752450803117455 -9.1220409662598634 7.9570076410453741 #
vertex $-1 $537 $681 #
point $-1 -40.752450803117455 -5.9869327721101868 7.9570076410453741 #
coedge $-1 $552 $551 $544 $642 forward $541 $-1 #
edge $-1 $643 22.813840205300622 $646 29.172495585631424 $641 $682 forward 7 unknown #
vertex $-1 $556 $683 #
straight-curve $-1 -55.878190147406713 23.552007691329401 11.681317413212852 -1 0 0 I I #
edge $-1 $646 -13.604816958918677 $553 -6.2895645059027689 $552 $684 forward 7 unknown #
vertex $-1 $645 $685 #
straight-curve $-1 -45.826593829157389 23.552007691329401 5.3226620328820431 0.69465836192734942 0 0.71933980857756763 I I #
point $-1 -39.686111851251084 23.552007691329401 11.681317413212852 #
point $-1 -45.826593829157382 16.236755238313492 5.3226620328820502 #
straight-curve $-1 -45.826593829157382 0 11.681317413212851 0 -1 0 I I #
vertex $-1 $559 $686 #
point $-1 -40.752450803117455 18.326827367746613 7.9570076410453741 #
vertex $-1 $563 $687 #
point $-1 -40.752450803117455 21.461935561896286 7.9570076410453741 #
straight-curve $-1 -45.826593829157382 30.550549747680979 0 0 0 -1 I I #
point $-1 -45.826593829157382 -30.550549747680979 -11.681317413212851 #
straight-curve $-1 -45.826593829157382 0 -11.681317413212851 0 1 0 I I #
point $-1 -45.826593829157382 30.550549747680979 -11.681317413212851 #
straight-curve $-1 -45.826593829157382 -12.190301224931385 4.990799928175905 0 -1 0 I I #
point $-1 -45.826593829157382 -30.550549747680979 4.990799928175905 #
point $-1 -45.826593829157382 -18.210655152044563 4.990799928175905 #
straight-curve $-1 -45.826593829157382 -18.210655152044563 3.960796225353314 0 0 -1 I I #
straight-curve $-1 -45.826593829157382 -30.550549747680979 0 0 0 -1 I I #
straight-curve $-1 24.04436354533426 -3.8968606426770727 11.681317413212852 -1 0 0 I I #
point $-1 45.826593829157382 -3.8968606426770727 11.681317413212851 #
straight-curve $-1 39.686111851251056 -3.7772434345925134 11.681317413212859 0 -1 0 I I #
point $-1 39.686111851251063 -3.8968606426770727 11.681317413212845 #
point $-1 40.727769356467235 -9.1220409662598634 6.5430094705404436 #
point $-1 40.727769356467235 -5.9869327721101868 6.5430094705404436 #
straight-curve $-1 24.04436354533426 23.552007691329401 11.681317413212852 -1 0 0 I I #
point $-1 45.826593829157382 23.552007691329401 11.681317413212851 #
straight-curve $-1 39.686111851251056 9.9471907324107232 11.681317413212859 0 -1 0 I I #
point $-1 39.686111851251063 23.552007691329401 11.681317413212845 #
point $-1 40.727769356467235 18.326827367746613 6.5430094705404436 #
point $-1 40.727769356467235 21.461935561896286 6.5430094705404436 #
straight-curve $-1 -45.826593829157382 -3.8968606426770727 34.495157618513474 0 0 -1 I I #
point $-1 -45.826593829157382 -3.8968606426770727 11.681317413212851 #
straight-curve $-1 -45.826593829157382 -3.7772434345925134 5.3226620328820546 0 -1 0 I I #
point $-1 -45.826593829157382 -3.8968606426770727 5.3226620328820502 #
point $-1 -40.727769356467235 -9.1220409662598634 6.5430094705404578 #
point $-1 -40.727769356467235 -5.9869327721101868 6.5430094705404578 #
straight-curve $-1 -45.826593829157382 23.552007691329401 34.495157618513474 0 0 -1 I I #
point $-1 -45.826593829157382 23.552007691329401 11.681317413212851 #
straight-curve $-1 -45.826593829157382 9.9471907324107232 5.3226620328820546 0 -1 0 I I #
point $-1 -45.826593829157382 23.552007691329401 5.3226620328820502 #
point $-1 -40.727769356467235 18.326827367746613 6.5430094705404578 #
point $-1 -40.727769356467235 21.461935561896286 6.5430094705404578 #
End-of-ACIS-data 