500 0 5 0           
7 Unknown 11 ACIS 5.0 NT 24 Fri Mar 26 16:16:02 1999 
-1 9.9999999999999995e-007 1e-010 
body $-1 $5 $-1 $6 #
body $-1 $7 $-1 $8 #
body $-1 $9 $-1 $10 #
body $-1 $11 $-1 $12 #
body $-1 $13 $-1 $14 #
lump $-1 $-1 $15 $0 #
transform $-1 1 0 0 0 1 0 0 0 1 69.847102267525258 40.247082528242359 10.913644898470775 1 rotate no_reflect no_shear #
lump $-1 $-1 $16 $1 #
transform $-1 1 0 0 0 1 0 0 0 1 69.847102267525258 40.247082528242359 10.913644898470775 1 rotate no_reflect no_shear #
lump $-1 $-1 $17 $2 #
transform $-1 1 0 0 0 1 0 0 0 1 69.847102267525258 40.247082528242359 10.913644898470775 1 rotate no_reflect no_shear #
lump $-1 $-1 $18 $3 #
transform $-1 1 0 0 0 1 0 0 0 1 69.847102267525258 40.247082528242359 10.913644898470775 1 rotate no_reflect no_shear #
lump $-1 $-1 $19 $4 #
transform $-1 1 0 0 0 1 0 0 0 1 69.847102267525258 40.247082528242359 10.913644898470775 1 rotate no_reflect no_shear #
shell $-1 $-1 $-1 $20 $-1 $5 #
shell $-1 $-1 $-1 $21 $-1 $7 #
shell $-1 $-1 $-1 $22 $-1 $9 #
shell $-1 $-1 $-1 $23 $-1 $11 #
shell $-1 $-1 $-1 $24 $-1 $13 #
face $-1 $25 $26 $15 $-1 $27 forward single #
face $-1 $28 $29 $16 $-1 $30 forward single #
face $-1 $31 $32 $17 $-1 $33 reversed single #
face $-1 $34 $35 $18 $-1 $36 forward single #
face $-1 $37 $38 $19 $-1 $39 forward single #
face $-1 $40 $41 $15 $-1 $42 reversed single #
loop $-1 $-1 $43 $20 #
plane-surface $-1 0 0 10.913644898470775 0 0 1 1 0 0 forward_v I I I I #
face $-1 $44 $45 $16 $-1 $46 reversed single #
loop $-1 $-1 $47 $21 #
plane-surface $-1 0 -33.787854768087854 -5.3020456681959471 0 0 1 1 0 0 forward_v I I I I #
face $-1 $48 $49 $17 $-1 $50 reversed single #
loop $-1 $-1 $51 $22 #
plane-surface $-1 54.903953480153639 82.107833696526455 163.13189713600596 1 0 0 0 -0.70710678939079041 -0.70710677298230451 forward_v I I I I #
face $-1 $52 $53 $18 $-1 $54 forward single #
loop $-1 $55 $56 $23 #
cone-surface $-1 59.173424562259811 37.164087328045078 7.8306496890972239 0 -0.70710678939079041 -0.70710677298230451 1 0 0 1 I I 0 1 1 forward I I I I #
face $-1 $57 $58 $19 $-1 $59 forward single #
loop $-1 $60 $61 $24 #
cone-surface $-1 65.577631185419079 37.164087328045078 7.8306496890972239 0 -0.70710678939079041 -0.70710677298230451 1 0 0 1 I I 0 1 1 forward I I I I #
face $-1 $62 $63 $15 $-1 $64 reversed single #
loop $-1 $-1 $65 $25 #
plane-surface $-1 0 0 -10.913644898470775 0 0 1 1 0 0 forward_v I I I I #
coedge $-1 $66 $67 $68 $69 forward $26 $-1 #
face $-1 $70 $71 $16 $-1 $72 reversed single #
loop $-1 $-1 $73 $28 #
plane-surface $-1 0 -27.328627007933353 -8.1078452833333614 0 -1 0 0 0 -1 forward_v I I I I #
coedge $-1 $74 $75 $76 $77 reversed $29 $-1 #
face $-1 $78 $79 $17 $-1 $80 reversed single #
loop $-1 $-1 $81 $31 #
plane-surface $-1 62.375527873839445 -16.670886768753505 64.353178962896379 0 0.70710678939079041 0.70710677298230451 1 0 0 forward_v I I I I #
coedge $-1 $82 $83 $84 $85 reversed $32 $-1 #
face $-1 $-1 $86 $18 $-1 $87 forward single #
loop $-1 $88 $89 $34 #
cone-surface $-1 59.173424562259811 35.46675696947247 6.1333193699113444 0 -0.70710678939079041 -0.70710677298230451 0.5 0 0 1 I I -0.70710678118654746 0.70710678118654746 0.5 forward I I I I #
loop $-1 $-1 $90 $23 #
coedge $-1 $56 $56 $91 $92 reversed $35 $-1 #
face $-1 $-1 $93 $19 $-1 $94 forward single #
loop $-1 $95 $96 $37 #
cone-surface $-1 65.577631185419079 35.46675696947247 6.1333193699113444 0 -0.70710678939079041 -0.70710677298230451 0.5 0 0 1 I I -0.70710678118654746 0.70710678118654746 0.5 forward I I I I #
loop $-1 $-1 $97 $24 #
coedge $-1 $61 $61 $98 $99 reversed $38 $-1 #
face $-1 $100 $101 $15 $-1 $102 reversed single #
loop $-1 $-1 $103 $40 #
plane-surface $-1 0 -40.247082528242359 0 0 1 0 0 0 1 forward_v I I I I #
coedge $-1 $104 $105 $106 $107 forward $41 $-1 #
coedge $-1 $108 $43 $109 $110 forward $26 $-1 #
coedge $-1 $43 $108 $111 $112 forward $26 $-1 #
coedge $-1 $113 $114 $43 $69 reversed $115 $-1 #
edge $-1 $116 -40.247082528242359 $117 40.247082528242359 $68 $118 forward 7 unknown #
face $-1 $119 $120 $16 $-1 $121 reversed single #
loop $-1 $-1 $122 $44 #
plane-surface $-1 0 0 -10.913644898470775 0 0 1 1 0 0 forward_v I I I I #
coedge $-1 $123 $124 $125 $126 reversed $45 $-1 #
coedge $-1 $127 $47 $124 $128 forward $29 $-1 #
coedge $-1 $47 $127 $129 $130 reversed $29 $-1 #
coedge $-1 $131 $125 $47 $77 forward $120 $-1 #
edge $-1 $132 10.434699623889426 $133 23.353155144198432 $76 $134 forward 7 unknown #
face $-1 $135 $136 $17 $-1 $137 forward single #
loop $-1 $-1 $138 $48 #
plane-surface $-1 69.847102267525258 0 0 -1 0 0 0 0 1 forward_v I I I I #
coedge $-1 $139 $140 $141 $142 reversed $49 $-1 #
coedge $-1 $83 $51 $143 $144 reversed $32 $-1 #
coedge $-1 $51 $82 $139 $145 reversed $32 $-1 #
coedge $-1 $141 $146 $51 $85 forward $136 $-1 #
edge $-1 $147 0.80683432002086874 $148 4.2852707926610307 $84 $149 forward 7 unknown #
loop $-1 $-1 $91 $52 #
plane-surface $-1 62.375527873839445 -16.670886768753505 64.353178962896379 0 0.70710678939079041 0.70710677298230451 1 0 0 forward_v I I I I #
loop $-1 $-1 $150 $34 #
coedge $-1 $89 $89 $90 $151 reversed $53 $-1 #
coedge $-1 $90 $90 $89 $151 forward $55 $-1 #
coedge $-1 $91 $91 $56 $92 forward $86 $-1 #
edge $-1 $152 1.256073981520683e-015 $152 6.2831853071796013 $91 $153 forward 7 unknown #
loop $-1 $-1 $98 $57 #
plane-surface $-1 62.375527873839445 -16.670886768753505 64.353178962896379 0 0.70710678939079041 0.70710677298230451 1 0 0 forward_v I I I I #
loop $-1 $-1 $154 $37 #
coedge $-1 $96 $96 $97 $155 reversed $58 $-1 #
coedge $-1 $97 $97 $96 $155 forward $60 $-1 #
coedge $-1 $98 $98 $61 $99 forward $93 $-1 #
edge $-1 $156 1.256073981520683e-015 $156 6.2831853071796013 $98 $157 forward 7 unknown #
face $-1 $158 $159 $15 $-1 $160 reversed single #
loop $-1 $-1 $161 $62 #
plane-surface $-1 -69.847102267525258 0 0 1 0 0 0 0 -1 forward_v I I I I #
coedge $-1 $162 $111 $163 $164 forward $63 $-1 #
coedge $-1 $165 $65 $162 $166 forward $41 $-1 #
coedge $-1 $65 $165 $167 $168 forward $41 $-1 #
coedge $-1 $114 $113 $65 $107 reversed $115 $-1 #
edge $-1 $169 -40.247082528242359 $170 40.247082528242359 $106 $171 forward 7 unknown #
coedge $-1 $67 $66 $172 $173 forward $26 $-1 #
coedge $-1 $174 $175 $66 $110 reversed $159 $-1 #
edge $-1 $117 -69.847102267525258 $176 69.847102267525258 $109 $177 forward 7 unknown #
coedge $-1 $103 $178 $67 $112 reversed $63 $-1 #
edge $-1 $179 -69.847102267525258 $116 69.847102267525258 $111 $180 forward 7 unknown #
coedge $-1 $106 $68 $178 $181 forward $115 $-1 #
coedge $-1 $68 $106 $174 $182 reversed $115 $-1 #
loop $-1 $-1 $113 $158 #
vertex $-1 $69 $183 #
vertex $-1 $69 $184 #
straight-curve $-1 69.847102267525258 0 10.913644898470775 0 1 0 I I #
face $-1 $185 $186 $16 $-1 $187 reversed single #
loop $-1 $-1 $125 $70 #
plane-surface $-1 69.847102267525258 0 0 -1 0 0 0 0 1 forward_v I I I I #
coedge $-1 $188 $189 $123 $190 forward $71 $-1 #
coedge $-1 $191 $73 $122 $190 reversed $45 $-1 #
coedge $-1 $73 $191 $74 $128 reversed $45 $-1 #
coedge $-1 $76 $192 $73 $126 forward $120 $-1 #
edge $-1 $193 -6.8597222568040941 $132 -1.2481230265292664 $125 $194 forward 7 unknown #
coedge $-1 $75 $74 $195 $196 reversed $29 $-1 #
edge $-1 $132 -69.847102267525258 $197 69.847102267525258 $124 $198 forward 7 unknown #
coedge $-1 $199 $200 $75 $130 forward $186 $-1 #
edge $-1 $133 -69.847102267525258 $201 69.847102267525258 $129 $202 forward 7 unknown #
coedge $-1 $192 $76 $200 $203 forward $120 $-1 #
vertex $-1 $77 $204 #
vertex $-1 $203 $205 #
straight-curve $-1 69.847102267525258 -16.893927384043927 -5.3020456681959471 0 -1 0 I I #
face $-1 $-1 $206 $17 $-1 $207 reversed single #
loop $-1 $-1 $141 $78 #
plane-surface $-1 0 0 10.913644898470775 0 0 1 1 0 0 forward_v I I I I #
coedge $-1 $208 $209 $140 $210 forward $79 $-1 #
coedge $-1 $211 $81 $83 $145 forward $49 $-1 #
coedge $-1 $81 $211 $138 $210 reversed $49 $-1 #
coedge $-1 $212 $84 $81 $142 forward $136 $-1 #
edge $-1 $148 23.716189543233916 $213 38.659338330605536 $141 $214 forward 7 unknown #
coedge $-1 $215 $216 $82 $144 forward $206 $-1 #
edge $-1 $217 -74.130740222889841 $147 -70.652303669532202 $143 $218 forward 7 unknown #
edge $-1 $148 75.574912963947881 $217 80.494165056484704 $83 $219 forward 7 unknown #
coedge $-1 $84 $212 $215 $220 forward $136 $-1 #
vertex $-1 $144 $221 #
vertex $-1 $85 $222 #
straight-curve $-1 54.903953480153639 41.053916848263228 10.913644898470778 0 -1 0 I I #
coedge $-1 $150 $150 $-1 $223 reversed $88 $-1 #
edge $-1 $224 0 $224 6.2831853071796004 $89 $225 forward 7 unknown #
vertex $-1 $92 $226 #
ellipse-curve $-1 59.173424562259811 38.507864291922289 9.1744266217919517 0 0.70710678939079041 0.70710677298230451 1 0 0 1 I I #
coedge $-1 $154 $154 $-1 $227 reversed $95 $-1 #
edge $-1 $228 0 $228 6.2831853071796004 $96 $229 forward 7 unknown #
vertex $-1 $99 $230 #
ellipse-curve $-1 65.577631185419079 38.507864291922289 9.1744266217919517 0 0.70710678939079041 0.70710677298230451 1 0 0 1 I I #
face $-1 $-1 $115 $15 $-1 $231 reversed single #
loop $-1 $-1 $174 $100 #
plane-surface $-1 0 40.247082528242359 0 0 -1 0 0 0 -1 forward_v I I I I #
coedge $-1 $232 $172 $175 $233 forward $101 $-1 #
coedge $-1 $178 $103 $104 $166 reversed $63 $-1 #
coedge $-1 $172 $232 $103 $164 reversed $101 $-1 #
edge $-1 $179 -10.913644898470775 $234 10.913644898470775 $163 $235 forward 7 unknown #
coedge $-1 $105 $104 $232 $236 forward $41 $-1 #
edge $-1 $170 -69.847102267525258 $234 69.847102267525258 $162 $237 forward 7 unknown #
coedge $-1 $175 $174 $105 $168 reversed $159 $-1 #
edge $-1 $238 -69.847102267525258 $169 69.847102267525258 $167 $239 forward 7 unknown #
vertex $-1 $107 $240 #
vertex $-1 $181 $241 #
straight-curve $-1 69.847102267525258 0 -10.913644898470775 0 -1 0 I I #
coedge $-1 $161 $163 $108 $173 reversed $101 $-1 #
edge $-1 $176 -40.247082528242359 $179 40.247082528242359 $172 $242 forward 7 unknown #
coedge $-1 $167 $109 $114 $182 forward $159 $-1 #
coedge $-1 $109 $167 $161 $233 reversed $159 $-1 #
vertex $-1 $110 $243 #
straight-curve $-1 0 40.247082528242359 10.913644898470775 -1 0 0 I I #
coedge $-1 $111 $162 $113 $181 reversed $63 $-1 #
vertex $-1 $173 $244 #
straight-curve $-1 0 -40.247082528242359 10.913644898470775 1 0 0 I I #
edge $-1 $116 -10.913644898470775 $170 10.913644898470775 $113 $245 forward 7 unknown #
edge $-1 $117 -10.913644898470775 $169 10.913644898470775 $114 $246 forward 7 unknown #
point $-1 69.847102267525258 -40.247082528242359 10.913644898470775 #
point $-1 69.847102267525258 40.247082528242359 10.913644898470775 #
face $-1 $-1 $247 $16 $-1 $248 reversed single #
loop $-1 $-1 $129 $119 #
plane-surface $-1 0 -40.247082528242359 0 0 1 0 0 0 1 forward_v I I I I #
coedge $-1 $249 $122 $192 $250 forward $71 $-1 #
coedge $-1 $122 $249 $251 $252 forward $71 $-1 #
edge $-1 $253 -69.847102267525258 $193 69.847102267525258 $122 $254 forward 7 unknown #
coedge $-1 $124 $123 $255 $256 reversed $45 $-1 #
coedge $-1 $125 $131 $188 $250 reversed $120 $-1 #
vertex $-1 $250 $257 #
straight-curve $-1 69.847102267525258 -27.328627007933353 -4.0539226416666807 0 0 1 I I #
coedge $-1 $255 $258 $127 $196 forward $247 $-1 #
edge $-1 $201 -23.353155144198432 $197 -10.434699623889426 $195 $259 forward 7 unknown #
vertex $-1 $196 $260 #
straight-curve $-1 0 -27.328627007933353 -5.3020456681959471 -1 0 0 I I #
coedge $-1 $261 $129 $258 $262 forward $186 $-1 #
coedge $-1 $129 $261 $131 $203 reversed $186 $-1 #
vertex $-1 $262 $263 #
straight-curve $-1 0 -40.247082528242359 -5.3020456681959471 -1 0 0 I I #
edge $-1 $133 5.3020456681959471 $264 10.913644898470775 $131 $265 forward 7 unknown #
point $-1 69.847102267525258 -27.328627007933353 -5.3020456681959471 #
point $-1 69.847102267525258 -40.247082528242359 -5.3020456681959471 #
loop $-1 $-1 $143 $135 #
plane-surface $-1 0 40.247082528242359 0 0 -1 0 0 0 -1 forward_v I I I I #
coedge $-1 $209 $138 $266 $267 reversed $79 $-1 #
coedge $-1 $138 $208 $212 $268 reversed $79 $-1 #
edge $-1 $213 46.928579609272219 $269 51.847831701809042 $138 $270 forward 7 unknown #
coedge $-1 $140 $139 $216 $271 reversed $49 $-1 #
coedge $-1 $146 $141 $209 $268 forward $136 $-1 #
vertex $-1 $268 $272 #
straight-curve $-1 31.187763936919723 36.768646055602204 10.913644898470771 1 0 0 I I #
coedge $-1 $266 $143 $146 $220 reversed $206 $-1 #
coedge $-1 $143 $266 $211 $271 forward $206 $-1 #
vertex $-1 $144 $273 #
straight-curve $-1 54.903953480153639 40.247082528242359 81.56594856800298 0 0 1 I I #
straight-curve $-1 54.903953480153639 -16.670886768753505 64.353178962896379 0 0.70710677298230451 -0.70710678939079041 I I #
edge $-1 $274 -69.847102267525258 $147 -54.903953480153639 $215 $275 forward 7 unknown #
point $-1 54.903953480153639 40.247082528242359 10.913644898470775 #
point $-1 54.903953480153639 36.768646055602197 10.913644898470778 #
edge $-1 $276 1 $276 0 $150 $-1 forward 7 unknown #
vertex $-1 $151 $277 #
ellipse-curve $-1 59.173424562259811 35.820310364167867 6.4868727564024971 0 0.70710678939079041 0.70710677298230451 1 0 0 1 I I #
point $-1 60.173424562259811 38.507864291922289 9.1744266217919499 #
edge $-1 $278 1 $278 0 $154 $-1 forward 7 unknown #
vertex $-1 $155 $279 #
ellipse-curve $-1 65.577631185419079 35.820310364167867 6.4868727564024971 0 0.70710678939079041 0.70710677298230451 1 0 0 1 I I #
point $-1 66.577631185419079 38.507864291922289 9.1744266217919499 #
plane-surface $-1 69.847102267525258 0 0 -1 0 0 0 0 1 forward_v I I I I #
coedge $-1 $163 $161 $165 $236 reversed $101 $-1 #
edge $-1 $176 -10.913644898470775 $238 10.913644898470775 $175 $280 forward 7 unknown #
vertex $-1 $236 $281 #
straight-curve $-1 -69.847102267525258 -40.247082528242359 0 0 0 -1 I I #
edge $-1 $234 -40.247082528242359 $238 40.247082528242359 $232 $282 forward 7 unknown #
straight-curve $-1 0 -40.247082528242359 -10.913644898470775 -1 0 0 I I #
vertex $-1 $168 $283 #
straight-curve $-1 0 40.247082528242359 -10.913644898470775 1 0 0 I I #
point $-1 69.847102267525258 40.247082528242359 -10.913644898470775 #
point $-1 69.847102267525258 -40.247082528242359 -10.913644898470775 #
straight-curve $-1 -69.847102267525258 0 10.913644898470775 0 -1 0 I I #
point $-1 -69.847102267525258 40.247082528242359 10.913644898470775 #
point $-1 -69.847102267525258 -40.247082528242359 10.913644898470775 #
straight-curve $-1 69.847102267525258 -40.247082528242359 0 0 0 -1 I I #
straight-curve $-1 69.847102267525258 40.247082528242359 0 0 0 -1 I I #
loop $-1 $-1 $255 $185 #
plane-surface $-1 -69.847102267525258 0 0 1 0 0 0 0 -1 forward_v I I I I #
coedge $-1 $189 $188 $261 $284 forward $71 $-1 #
edge $-1 $193 27.328627007933353 $264 40.247082528242359 $192 $285 forward 7 unknown #
coedge $-1 $258 $255 $189 $252 reversed $247 $-1 #
edge $-1 $286 -40.247082528242359 $253 -27.328627007933353 $251 $287 forward 7 unknown #
vertex $-1 $256 $288 #
straight-curve $-1 0 -27.328627007933353 -10.913644898470775 1 0 0 I I #
coedge $-1 $251 $195 $191 $256 forward $247 $-1 #
edge $-1 $197 1.2481230265292664 $253 6.8597222568040941 $255 $289 forward 7 unknown #
point $-1 69.847102267525258 -27.328627007933353 -10.913644898470775 #
coedge $-1 $195 $251 $199 $262 reversed $247 $-1 #
straight-curve $-1 -69.847102267525258 -16.893927384043927 -5.3020456681959471 0 1 0 I I #
point $-1 -69.847102267525258 -27.328627007933353 -5.3020456681959471 #
coedge $-1 $200 $199 $249 $284 reversed $186 $-1 #
edge $-1 $201 5.3020456681959471 $286 10.913644898470775 $258 $290 forward 7 unknown #
point $-1 -69.847102267525258 -40.247082528242359 -5.3020456681959471 #
vertex $-1 $203 $291 #
straight-curve $-1 69.847102267525258 -40.247082528242359 0 0 0 -1 I I #
coedge $-1 $216 $215 $208 $267 forward $206 $-1 #
edge $-1 $274 -10.913644898470775 $269 -7.4352083451131392 $208 $292 forward 7 unknown #
edge $-1 $213 36.768646055602197 $274 40.247082528242359 $209 $293 forward 7 unknown #
vertex $-1 $210 $294 #
straight-curve $-1 69.847102267525258 3.5851295674465469 44.097162156653368 0 0.70710677298230462 -0.70710678939079052 I I #
edge $-1 $269 -38.659338330605536 $217 -23.716189543233916 $216 $295 forward 7 unknown #
point $-1 69.847102267525258 36.768646055602197 10.913644898470778 #
point $-1 54.903953480153639 40.247082528242359 7.4352083451131392 #
vertex $-1 $268 $296 #
straight-curve $-1 0 40.247082528242359 10.913644898470775 -1 0 0 I I #
vertex $-1 $223 $297 #
point $-1 60.173424562259811 35.820310364167867 6.4868727564024971 #
vertex $-1 $227 $298 #
point $-1 66.577631185419079 35.820310364167867 6.4868727564024971 #
straight-curve $-1 -69.847102267525258 40.247082528242359 0 0 0 -1 I I #
point $-1 -69.847102267525258 -40.247082528242359 -10.913644898470775 #
straight-curve $-1 -69.847102267525258 0 -10.913644898470775 0 1 0 I I #
point $-1 -69.847102267525258 40.247082528242359 -10.913644898470775 #
edge $-1 $264 -69.847102267525258 $286 69.847102267525258 $261 $299 forward 7 unknown #
straight-curve $-1 69.847102267525258 0 -10.913644898470775 0 -1 0 I I #
vertex $-1 $252 $300 #
straight-curve $-1 -69.847102267525258 0 -10.913644898470775 0 1 0 I I #
point $-1 -69.847102267525258 -27.328627007933353 -10.913644898470775 #
straight-curve $-1 -69.847102267525258 -27.328627007933353 -4.0539226416666807 0 0 -1 I I #
straight-curve $-1 -69.847102267525258 -40.247082528242359 0 0 0 -1 I I #
point $-1 69.847102267525258 -40.247082528242359 -10.913644898470775 #
straight-curve $-1 69.847102267525258 40.247082528242359 0 0 0 -1 I I #
straight-curve $-1 69.847102267525258 0 10.913644898470775 0 1 0 I I #
point $-1 69.847102267525258 40.247082528242359 7.4352083451131392 #
straight-curve $-1 31.187763936919723 40.247082528242359 7.4352083451131392 -1 0 0 I I #
point $-1 69.847102267525258 40.247082528242359 10.913644898470775 #
point $-1 59.173424562259811 35.113203574777074 5.7797659834201918 #
point $-1 65.577631185419079 35.113203574777074 5.7797659834201918 #
straight-curve $-1 0 -40.247082528242359 -10.913644898470775 -1 0 0 I I #
point $-1 -69.847102267525258 -40.247082528242359 -10.913644898470775 #
End-of-ACIS-data 