500 0 14 0           
7 Unknown 11 ACIS 5.0 NT 24 Thu Mar 25 23:36:38 1999 
-1 9.9999999999999995e-007 1e-010 
body $-1 $14 $-1 $15 #
body $-1 $16 $-1 $17 #
body $-1 $18 $-1 $19 #
body $-1 $20 $-1 $21 #
body $-1 $22 $-1 $23 #
body $-1 $24 $-1 $25 #
body $-1 $26 $-1 $27 #
body $-1 $28 $-1 $29 #
body $-1 $30 $-1 $31 #
body $-1 $32 $-1 $33 #
body $-1 $34 $-1 $35 #
body $-1 $36 $-1 $37 #
body $-1 $38 $-1 $39 #
body $-1 $40 $-1 $41 #
lump $-1 $-1 $42 $0 #
transform $-1 1 0 0 0 1 0 0 0 1 47.663808099612417 22.844647768877014 9.0109715104581323 1 rotate no_reflect no_shear #
lump $-1 $-1 $43 $1 #
transform $-1 1 0 0 0 1 0 0 0 1 47.663808099612417 22.844647768877014 9.0109715104581323 1 rotate no_reflect no_shear #
lump $-1 $-1 $44 $2 #
transform $-1 1 0 0 0 1 0 0 0 1 47.663808099612417 22.844647768877014 9.0109715104581323 1 rotate no_reflect no_shear #
lump $-1 $-1 $45 $3 #
transform $-1 1 0 0 0 1 0 0 0 1 47.663808099612417 22.844647768877014 9.0109715104581323 1 rotate no_reflect no_shear #
lump $-1 $-1 $46 $4 #
transform $-1 1 0 0 0 1 0 0 0 1 47.663808099612417 22.844647768877014 9.0109715104581323 1 rotate no_reflect no_shear #
lump $-1 $-1 $47 $5 #
transform $-1 1 0 0 0 1 0 0 0 1 47.663808099612417 22.844647768877014 9.0109715104581323 1 rotate no_reflect no_shear #
lump $-1 $-1 $48 $6 #
transform $-1 1 0 0 0 1 0 0 0 1 47.663808099612417 22.844647768877014 9.0109715104581323 1 rotate no_reflect no_shear #
lump $-1 $-1 $49 $7 #
transform $-1 1 0 0 0 1 0 0 0 1 47.663808099612417 22.844647768877014 9.0109715104581323 1 rotate no_reflect no_shear #
lump $-1 $-1 $50 $8 #
transform $-1 1 0 0 0 1 0 0 0 1 47.663808099612417 22.844647768877014 9.0109715104581323 1 rotate no_reflect no_shear #
lump $-1 $-1 $51 $9 #
transform $-1 1 0 0 0 1 0 0 0 1 47.663808099612417 22.844647768877014 9.0109715104581323 1 rotate no_reflect no_shear #
lump $-1 $-1 $52 $10 #
transform $-1 1 0 0 0 1 0 0 0 1 47.663808099612417 22.844647768877014 9.0109715104581323 1 rotate no_reflect no_shear #
lump $-1 $-1 $53 $11 #
transform $-1 1 0 0 0 1 0 0 0 1 47.663808099612417 22.844647768877014 9.0109715104581323 1 rotate no_reflect no_shear #
lump $-1 $-1 $54 $12 #
transform $-1 1 0 0 0 1 0 0 0 1 47.663808099612417 22.844647768877014 9.0109715104581323 1 rotate no_reflect no_shear #
lump $-1 $-1 $55 $13 #
transform $-1 1 0 0 0 1 0 0 0 1 47.663808099612417 22.844647768877014 9.0109715104581323 1 rotate no_reflect no_shear #
shell $-1 $-1 $-1 $56 $-1 $14 #
shell $-1 $-1 $-1 $57 $-1 $16 #
shell $-1 $-1 $-1 $58 $-1 $18 #
shell $-1 $-1 $-1 $59 $-1 $20 #
shell $-1 $-1 $-1 $60 $-1 $22 #
shell $-1 $-1 $-1 $61 $-1 $24 #
shell $-1 $-1 $-1 $62 $-1 $26 #
shell $-1 $-1 $-1 $63 $-1 $28 #
shell $-1 $-1 $-1 $64 $-1 $30 #
shell $-1 $-1 $-1 $65 $-1 $32 #
shell $-1 $-1 $-1 $66 $-1 $34 #
shell $-1 $-1 $-1 $67 $-1 $36 #
shell $-1 $-1 $-1 $68 $-1 $38 #
shell $-1 $-1 $-1 $69 $-1 $40 #
face $-1 $70 $71 $42 $-1 $72 forward single #
face $-1 $73 $74 $43 $-1 $75 forward single #
face $-1 $76 $77 $44 $-1 $78 reversed single #
face $-1 $79 $80 $45 $-1 $81 forward single #
face $-1 $82 $83 $46 $-1 $84 forward single #
face $-1 $85 $86 $47 $-1 $87 reversed single #
face $-1 $88 $89 $48 $-1 $90 forward single #
face $-1 $91 $92 $49 $-1 $93 forward single #
face $-1 $94 $95 $50 $-1 $96 reversed single #
face $-1 $97 $98 $51 $-1 $99 forward single #
face $-1 $100 $101 $52 $-1 $102 forward single #
face $-1 $103 $104 $53 $-1 $105 reversed single #
face $-1 $106 $107 $54 $-1 $108 forward single #
face $-1 $109 $110 $55 $-1 $111 forward single #
face $-1 $112 $113 $42 $-1 $114 reversed single #
loop $-1 $-1 $115 $56 #
plane-surface $-1 0 0 9.0109715104581323 0 0 1 1 0 0 forward_v I I I I #
face $-1 $116 $117 $43 $-1 $118 reversed single #
loop $-1 $-1 $119 $57 #
plane-surface $-1 -43.229649462540877 0 2.5759752854920297 0 0 1 1 0 0 forward_v I I I I #
face $-1 $120 $121 $44 $-1 $122 reversed single #
loop $-1 $-1 $123 $58 #
plane-surface $-1 75.693135159271947 -16.172443793096054 133.94329676046729 0 -1 0 -0.83867057594974714 0 -0.54463902268945019 forward_v I I I I #
face $-1 $124 $125 $45 $-1 $126 forward single #
loop $-1 $127 $128 $59 #
cone-surface $-1 44.99256073051238 -20.93830377579674 5.2710113722273952 -0.83867057594974714 0 -0.54463902268945019 0.2723195113447251 0 -0.41933528797487357 1 I I 0 1 0.5 forward I I I I #
face $-1 $129 $130 $46 $-1 $131 forward single #
loop $-1 $132 $133 $60 #
cone-surface $-1 44.99256073051238 -18.078787786176328 5.2710113722273952 -0.83867057594974714 0 -0.54463902268945019 0.2723195113447251 0 -0.41933528797487357 1 I I 0 1 0.5 forward I I I I #
face $-1 $134 $135 $47 $-1 $136 reversed single #
loop $-1 $-1 $137 $61 #
plane-surface $-1 75.693135159271947 -11.422323884438507 133.94329676046729 0 1 0 0.83867057594974714 0 0.54463902268945019 forward_v I I I I #
face $-1 $138 $139 $48 $-1 $140 forward single #
loop $-1 $141 $142 $62 #
cone-surface $-1 44.99256073051238 -9.5159798913582332 5.2710113722273952 -0.83867057594974714 0 -0.54463902268945019 0.2723195113447251 0 -0.41933528797487357 1 I I 0 1 0.5 forward I I I I #
face $-1 $143 $144 $49 $-1 $145 forward single #
loop $-1 $146 $147 $63 #
cone-surface $-1 44.99256073051238 -6.6564639017378191 5.2710113722273952 -0.83867057594974714 0 -0.54463902268945019 0.2723195113447251 0 -0.41933528797487357 1 I I 0 1 0.5 forward I I I I #
face $-1 $148 $149 $50 $-1 $150 reversed single #
loop $-1 $-1 $151 $64 #
plane-surface $-1 75.693135159271947 0 133.94329676046729 0 1 0 0.83867057594974714 0 0.54463902268945019 forward_v I I I I #
face $-1 $152 $153 $51 $-1 $154 forward single #
loop $-1 $155 $156 $65 #
cone-surface $-1 44.99256073051238 1.9063439930802737 5.2710113722273952 -0.83867057594974714 0 -0.54463902268945019 0.2723195113447251 0 -0.41933528797487357 1 I I 0 1 0.5 forward I I I I #
face $-1 $157 $158 $52 $-1 $159 forward single #
loop $-1 $160 $161 $66 #
cone-surface $-1 44.99256073051238 4.765859982700686 5.2710113722273952 -0.83867057594974714 0 -0.54463902268945019 0.2723195113447251 0 -0.41933528797487357 1 I I 0 1 0.5 forward I I I I #
face $-1 $162 $163 $53 $-1 $164 reversed single #
loop $-1 $-1 $165 $67 #
plane-surface $-1 75.693135159271947 11.422323884438509 133.94329676046729 0 1 0 0.83867057594974714 0 0.54463902268945019 forward_v I I I I #
face $-1 $166 $167 $54 $-1 $168 forward single #
loop $-1 $169 $170 $68 #
cone-surface $-1 44.99256073051238 13.328667877518779 5.2710113722273952 -0.83867057594974714 0 -0.54463902268945019 0.2723195113447251 0 -0.41933528797487357 1 I I 0 1 0.5 forward I I I I #
face $-1 $171 $172 $55 $-1 $173 forward single #
loop $-1 $174 $175 $69 #
cone-surface $-1 44.99256073051238 16.188183867139191 5.2710113722273952 -0.83867057594974714 0 -0.54463902268945019 0.2723195113447251 0 -0.41933528797487357 1 I I 0 1 0.5 forward I I I I #
face $-1 $176 $177 $42 $-1 $178 reversed single #
loop $-1 $-1 $179 $70 #
plane-surface $-1 0 0 -9.0109715104581323 0 0 1 1 0 0 forward_v I I I I #
coedge $-1 $180 $181 $182 $183 forward $71 $-1 #
face $-1 $184 $185 $43 $-1 $186 reversed single #
loop $-1 $-1 $187 $73 #
plane-surface $-1 -43.229649462540877 0 -0.96114797149868103 0 0 1 1 0 0 forward_v I I I I #
coedge $-1 $188 $189 $190 $191 forward $74 $-1 #
face $-1 $192 $193 $44 $-1 $194 reversed single #
loop $-1 $-1 $195 $76 #
plane-surface $-1 -4.255331622448395 -19.508545780986534 82.024157038406486 0.83867057594974714 0 0.54463902268945019 0.54463902268945019 0 -0.83867057594974714 forward_v I I I I #
coedge $-1 $196 $197 $198 $199 reversed $77 $-1 #
face $-1 $-1 $200 $45 $-1 $201 forward single #
loop $-1 $202 $203 $79 #
cone-surface $-1 44.363557798550069 -20.93830377579674 4.8625321052103079 -0.83867057594974714 0 -0.54463902268945019 0.13615975567236255 0 -0.20966764398743679 1 I I -0.70710678118654746 0.70710678118654746 0.25 forward I I I I #
loop $-1 $-1 $204 $59 #
coedge $-1 $128 $128 $205 $206 reversed $80 $-1 #
face $-1 $-1 $207 $46 $-1 $208 forward single #
loop $-1 $209 $210 $82 #
cone-surface $-1 44.363557798550069 -18.078787786176328 4.8625321052103079 -0.83867057594974714 0 -0.54463902268945019 0.13615975567236255 0 -0.20966764398743679 1 I I -0.70710678118654746 0.70710678118654746 0.25 forward I I I I #
loop $-1 $-1 $211 $60 #
coedge $-1 $133 $133 $212 $213 reversed $83 $-1 #
face $-1 $214 $215 $47 $-1 $216 reversed single #
loop $-1 $-1 $217 $85 #
plane-surface $-1 -4.255331622448395 -8.086221896548027 82.024157038406486 0.83867057594974714 0 0.54463902268945019 0.54463902268945019 0 -0.83867057594974714 forward_v I I I I #
coedge $-1 $218 $219 $220 $221 reversed $86 $-1 #
face $-1 $-1 $222 $48 $-1 $223 forward single #
loop $-1 $224 $225 $88 #
cone-surface $-1 44.363557798550069 -9.5159798913582332 4.8625321052103079 -0.83867057594974714 0 -0.54463902268945019 0.13615975567236255 0 -0.20966764398743679 1 I I -0.70710678118654746 0.70710678118654746 0.25 forward I I I I #
loop $-1 $-1 $226 $62 #
coedge $-1 $142 $142 $227 $228 reversed $89 $-1 #
face $-1 $-1 $229 $49 $-1 $230 forward single #
loop $-1 $231 $232 $91 #
cone-surface $-1 44.363557798550069 -6.6564639017378191 4.8625321052103079 -0.83867057594974714 0 -0.54463902268945019 0.13615975567236255 0 -0.20966764398743679 1 I I -0.70710678118654746 0.70710678118654746 0.25 forward I I I I #
loop $-1 $-1 $233 $63 #
coedge $-1 $147 $147 $234 $235 reversed $92 $-1 #
face $-1 $236 $237 $50 $-1 $238 reversed single #
loop $-1 $-1 $239 $94 #
plane-surface $-1 -4.255331622448395 3.3361019878904798 82.024157038406486 0.83867057594974714 0 0.54463902268945019 0.54463902268945019 0 -0.83867057594974714 forward_v I I I I #
coedge $-1 $240 $241 $242 $243 reversed $95 $-1 #
face $-1 $-1 $244 $51 $-1 $245 forward single #
loop $-1 $246 $247 $97 #
cone-surface $-1 44.363557798550069 1.9063439930802737 4.8625321052103079 -0.83867057594974714 0 -0.54463902268945019 0.13615975567236255 0 -0.20966764398743679 1 I I -0.70710678118654746 0.70710678118654746 0.25 forward I I I I #
loop $-1 $-1 $248 $65 #
coedge $-1 $156 $156 $249 $250 reversed $98 $-1 #
face $-1 $-1 $251 $52 $-1 $252 forward single #
loop $-1 $253 $254 $100 #
cone-surface $-1 44.363557798550069 4.765859982700686 4.8625321052103079 -0.83867057594974714 0 -0.54463902268945019 0.13615975567236255 0 -0.20966764398743679 1 I I -0.70710678118654746 0.70710678118654746 0.25 forward I I I I #
loop $-1 $-1 $255 $66 #
coedge $-1 $161 $161 $256 $257 reversed $101 $-1 #
face $-1 $258 $259 $53 $-1 $260 reversed single #
loop $-1 $-1 $261 $103 #
plane-surface $-1 -4.255331622448395 14.758425872328989 82.024157038406486 0.83867057594974714 0 0.54463902268945019 0.54463902268945019 0 -0.83867057594974714 forward_v I I I I #
coedge $-1 $262 $263 $264 $265 reversed $104 $-1 #
face $-1 $-1 $266 $54 $-1 $267 forward single #
loop $-1 $268 $269 $106 #
cone-surface $-1 44.363557798550069 13.328667877518779 4.8625321052103079 -0.83867057594974714 0 -0.54463902268945019 0.13615975567236255 0 -0.20966764398743679 1 I I -0.70710678118654746 0.70710678118654746 0.25 forward I I I I #
loop $-1 $-1 $270 $68 #
coedge $-1 $170 $170 $271 $272 reversed $107 $-1 #
face $-1 $-1 $273 $55 $-1 $274 forward single #
loop $-1 $275 $276 $109 #
cone-surface $-1 44.363557798550069 16.188183867139191 4.8625321052103079 -0.83867057594974714 0 -0.54463902268945019 0.13615975567236255 0 -0.20966764398743679 1 I I -0.70710678118654746 0.70710678118654746 0.25 forward I I I I #
loop $-1 $-1 $277 $69 #
coedge $-1 $175 $175 $278 $279 reversed $110 $-1 #
face $-1 $280 $281 $42 $-1 $282 reversed single #
loop $-1 $-1 $283 $112 #
plane-surface $-1 0 -22.844647768877014 0 0 1 0 0 0 1 forward_v I I I I #
coedge $-1 $284 $285 $286 $287 forward $113 $-1 #
coedge $-1 $288 $115 $289 $290 forward $71 $-1 #
coedge $-1 $115 $288 $291 $292 forward $71 $-1 #
coedge $-1 $293 $294 $115 $183 reversed $295 $-1 #
edge $-1 $296 -22.844647768877014 $297 22.844647768877014 $182 $298 forward 7 unknown #
face $-1 $299 $300 $43 $-1 $301 reversed single #
loop $-1 $-1 $302 $116 #
plane-surface $-1 -38.795490825469329 0 0.80741365699667433 -1 0 0 0 0 1 forward_v I I I I #
coedge $-1 $303 $304 $305 $306 forward $117 $-1 #
coedge $-1 $307 $119 $308 $309 reversed $74 $-1 #
coedge $-1 $119 $307 $310 $311 reversed $74 $-1 #
coedge $-1 $302 $312 $119 $191 reversed $185 $-1 #
edge $-1 $313 -22.844647768877014 $314 22.844647768877014 $190 $315 forward 7 unknown #
face $-1 $316 $317 $44 $-1 $318 forward single #
loop $-1 $-1 $319 $120 #
plane-surface $-1 0 -22.844647768877014 0 0 1 0 0 0 1 forward_v I I I I #
coedge $-1 $320 $321 $322 $323 reversed $121 $-1 #
coedge $-1 $197 $123 $324 $325 reversed $77 $-1 #
coedge $-1 $123 $196 $320 $326 reversed $77 $-1 #
coedge $-1 $322 $327 $123 $199 forward $317 $-1 #
edge $-1 $328 -9.8172405199764441 $329 -5.3134163577261546 $198 $330 forward 7 unknown #
loop $-1 $-1 $205 $124 #
plane-surface $-1 -4.255331622448395 -19.508545780986534 82.024157038406486 0.83867057594974714 0 0.54463902268945019 0.54463902268945019 0 -0.83867057594974714 forward_v I I I I #
loop $-1 $-1 $331 $79 #
coedge $-1 $203 $203 $204 $332 reversed $125 $-1 #
coedge $-1 $204 $204 $203 $332 forward $127 $-1 #
coedge $-1 $205 $205 $128 $206 forward $200 $-1 #
edge $-1 $333 0 $333 6.2831853071796004 $205 $334 forward 7 unknown #
loop $-1 $-1 $212 $129 #
plane-surface $-1 -4.255331622448395 -19.508545780986534 82.024157038406486 0.83867057594974714 0 0.54463902268945019 0.54463902268945019 0 -0.83867057594974714 forward_v I I I I #
loop $-1 $-1 $335 $82 #
coedge $-1 $210 $210 $211 $336 reversed $130 $-1 #
coedge $-1 $211 $211 $210 $336 forward $132 $-1 #
coedge $-1 $212 $212 $133 $213 forward $207 $-1 #
edge $-1 $337 0 $337 6.2831853071796004 $212 $338 forward 7 unknown #
face $-1 $339 $340 $47 $-1 $341 reversed single #
loop $-1 $-1 $342 $134 #
plane-surface $-1 75.693135159271947 -4.7501199086575472 133.94329676046729 0 -1 0 -0.83867057594974714 0 -0.54463902268945019 forward_v I I I I #
coedge $-1 $343 $344 $345 $346 reversed $135 $-1 #
coedge $-1 $219 $137 $347 $348 reversed $86 $-1 #
coedge $-1 $137 $218 $343 $349 reversed $86 $-1 #
coedge $-1 $345 $350 $137 $221 forward $340 $-1 #
edge $-1 $351 57.960676869775511 $352 64.895958123547501 $220 $353 forward 7 unknown #
loop $-1 $-1 $227 $138 #
plane-surface $-1 -4.255331622448395 -8.086221896548027 82.024157038406486 0.83867057594974714 0 0.54463902268945019 0.54463902268945019 0 -0.83867057594974714 forward_v I I I I #
loop $-1 $-1 $354 $88 #
coedge $-1 $225 $225 $226 $355 reversed $139 $-1 #
coedge $-1 $226 $226 $225 $355 forward $141 $-1 #
coedge $-1 $227 $227 $142 $228 forward $222 $-1 #
edge $-1 $356 0 $356 6.2831853071796004 $227 $357 forward 7 unknown #
loop $-1 $-1 $234 $143 #
plane-surface $-1 -4.255331622448395 -8.086221896548027 82.024157038406486 0.83867057594974714 0 0.54463902268945019 0.54463902268945019 0 -0.83867057594974714 forward_v I I I I #
loop $-1 $-1 $358 $91 #
coedge $-1 $232 $232 $233 $359 reversed $144 $-1 #
coedge $-1 $233 $233 $232 $359 forward $146 $-1 #
coedge $-1 $234 $234 $147 $235 forward $229 $-1 #
edge $-1 $360 0 $360 6.2831853071796004 $234 $361 forward 7 unknown #
face $-1 $362 $363 $50 $-1 $364 reversed single #
loop $-1 $-1 $365 $148 #
plane-surface $-1 75.693135159271947 6.6722039757809597 133.94329676046729 0 -1 0 -0.83867057594974714 0 -0.54463902268945019 forward_v I I I I #
coedge $-1 $366 $367 $368 $369 reversed $149 $-1 #
coedge $-1 $241 $151 $370 $371 reversed $95 $-1 #
coedge $-1 $151 $240 $366 $372 reversed $95 $-1 #
coedge $-1 $368 $373 $151 $243 forward $363 $-1 #
edge $-1 $374 57.960676869775511 $375 64.895958123547501 $242 $376 forward 7 unknown #
loop $-1 $-1 $249 $152 #
plane-surface $-1 -4.255331622448395 3.3361019878904798 82.024157038406486 0.83867057594974714 0 0.54463902268945019 0.54463902268945019 0 -0.83867057594974714 forward_v I I I I #
loop $-1 $-1 $377 $97 #
coedge $-1 $247 $247 $248 $378 reversed $153 $-1 #
coedge $-1 $248 $248 $247 $378 forward $155 $-1 #
coedge $-1 $249 $249 $156 $250 forward $244 $-1 #
edge $-1 $379 0 $379 6.2831853071796004 $249 $380 forward 7 unknown #
loop $-1 $-1 $256 $157 #
plane-surface $-1 -4.255331622448395 3.3361019878904798 82.024157038406486 0.83867057594974714 0 0.54463902268945019 0.54463902268945019 0 -0.83867057594974714 forward_v I I I I #
loop $-1 $-1 $381 $100 #
coedge $-1 $254 $254 $255 $382 reversed $158 $-1 #
coedge $-1 $255 $255 $254 $382 forward $160 $-1 #
coedge $-1 $256 $256 $161 $257 forward $251 $-1 #
edge $-1 $383 0 $383 6.2831853071796004 $256 $384 forward 7 unknown #
face $-1 $385 $386 $53 $-1 $387 reversed single #
loop $-1 $-1 $388 $162 #
plane-surface $-1 75.693135159271947 18.094527860219468 133.94329676046729 0 -1 0 -0.83867057594974714 0 -0.54463902268945019 forward_v I I I I #
coedge $-1 $389 $390 $391 $392 reversed $163 $-1 #
coedge $-1 $263 $165 $393 $394 reversed $104 $-1 #
coedge $-1 $165 $262 $389 $395 reversed $104 $-1 #
coedge $-1 $391 $396 $165 $265 forward $386 $-1 #
edge $-1 $397 57.960676869775511 $398 64.895958123547501 $264 $399 forward 7 unknown #
loop $-1 $-1 $271 $166 #
plane-surface $-1 -4.255331622448395 14.758425872328989 82.024157038406486 0.83867057594974714 0 0.54463902268945019 0.54463902268945019 0 -0.83867057594974714 forward_v I I I I #
loop $-1 $-1 $400 $106 #
coedge $-1 $269 $269 $270 $401 reversed $167 $-1 #
coedge $-1 $270 $270 $269 $401 forward $169 $-1 #
coedge $-1 $271 $271 $170 $272 forward $266 $-1 #
edge $-1 $402 0 $402 6.2831853071796004 $271 $403 forward 7 unknown #
loop $-1 $-1 $278 $171 #
plane-surface $-1 -4.255331622448395 14.758425872328989 82.024157038406486 0.83867057594974714 0 0.54463902268945019 0.54463902268945019 0 -0.83867057594974714 forward_v I I I I #
loop $-1 $-1 $404 $109 #
coedge $-1 $276 $276 $277 $405 reversed $172 $-1 #
coedge $-1 $277 $277 $276 $405 forward $174 $-1 #
coedge $-1 $278 $278 $175 $279 forward $273 $-1 #
edge $-1 $406 0 $406 6.2831853071796004 $278 $407 forward 7 unknown #
face $-1 $408 $409 $42 $-1 $410 reversed single #
loop $-1 $-1 $411 $176 #
plane-surface $-1 -47.663808099612417 0 0 1 0 0 0 0 -1 forward_v I I I I #
coedge $-1 $412 $291 $413 $414 forward $177 $-1 #
coedge $-1 $415 $179 $412 $416 forward $113 $-1 #
coedge $-1 $179 $415 $417 $418 forward $113 $-1 #
coedge $-1 $294 $293 $179 $287 reversed $295 $-1 #
edge $-1 $419 -22.844647768877014 $420 22.844647768877014 $286 $421 forward 7 unknown #
coedge $-1 $181 $180 $422 $423 forward $71 $-1 #
coedge $-1 $424 $425 $180 $290 reversed $409 $-1 #
edge $-1 $297 -47.663808099612417 $426 47.663808099612417 $289 $427 forward 7 unknown #
coedge $-1 $283 $428 $181 $292 reversed $177 $-1 #
edge $-1 $429 -47.663808099612417 $296 47.663808099612417 $291 $430 forward 7 unknown #
coedge $-1 $286 $182 $428 $431 forward $295 $-1 #
coedge $-1 $182 $286 $424 $432 reversed $295 $-1 #
loop $-1 $-1 $293 $408 #
vertex $-1 $183 $433 #
vertex $-1 $183 $434 #
straight-curve $-1 47.663808099612417 0 9.0109715104581323 0 1 0 I I #
face $-1 $435 $436 $43 $-1 $437 reversed single #
loop $-1 $-1 $438 $184 #
plane-surface $-1 0 -22.844647768877014 0 0 1 0 0 0 1 forward_v I I I I #
coedge $-1 $305 $190 $439 $440 reversed $185 $-1 #
coedge $-1 $441 $187 $438 $442 reversed $117 $-1 #
coedge $-1 $187 $441 $443 $444 reversed $117 $-1 #
coedge $-1 $312 $302 $187 $306 reversed $185 $-1 #
edge $-1 $445 -22.844647768877014 $446 22.844647768877014 $305 $447 forward 7 unknown #
coedge $-1 $189 $188 $448 $449 reversed $74 $-1 #
coedge $-1 $450 $451 $188 $309 forward $452 $-1 #
edge $-1 $453 -26.048983368341986 $314 -17.180666094198891 $308 $454 forward 7 unknown #
coedge $-1 $455 $439 $189 $311 forward $300 $-1 #
edge $-1 $313 17.180666094198891 $456 26.048983368341986 $310 $457 forward 7 unknown #
coedge $-1 $190 $305 $450 $458 reversed $185 $-1 #
vertex $-1 $311 $459 #
vertex $-1 $309 $460 #
straight-curve $-1 -38.795490825469329 0 2.5759752854920297 0 1 0 I I #
face $-1 $-1 $461 $44 $-1 $462 reversed single #
loop $-1 $-1 $322 $192 #
plane-surface $-1 0 0 9.0109715104581323 0 0 1 1 0 0 forward_v I I I I #
coedge $-1 $463 $464 $321 $465 forward $193 $-1 #
coedge $-1 $466 $195 $197 $326 forward $121 $-1 #
coedge $-1 $195 $466 $319 $465 reversed $121 $-1 #
coedge $-1 $467 $198 $195 $323 forward $317 $-1 #
edge $-1 $329 6.4181709026027871 $468 13.090374878383747 $322 $469 forward 7 unknown #
coedge $-1 $470 $471 $196 $325 forward $461 $-1 #
edge $-1 $472 -64.895958123547501 $328 -57.960676869775511 $324 $473 forward 7 unknown #
edge $-1 $329 87.058241485657277 $472 95.327616199224835 $197 $474 forward 7 unknown #
coedge $-1 $198 $467 $470 $475 forward $317 $-1 #
vertex $-1 $325 $476 #
vertex $-1 $199 $477 #
straight-curve $-1 37.846567579635973 -16.172443793096054 9.010971510458134 -1 0 0 I I #
coedge $-1 $331 $331 $-1 $478 reversed $202 $-1 #
edge $-1 $479 0 $479 6.2831853071796004 $203 $480 forward 7 unknown #
vertex $-1 $206 $481 #
ellipse-curve $-1 45.411896018487276 -20.93830377579674 5.5433308835721355 0.83867057594974714 0 0.54463902268945019 0.2723195113447251 0 -0.41933528797487357 1 I I #
coedge $-1 $335 $335 $-1 $482 reversed $209 $-1 #
edge $-1 $483 0 $483 6.2831853071796004 $210 $484 forward 7 unknown #
vertex $-1 $213 $485 #
ellipse-curve $-1 45.411896018487276 -18.078787786176328 5.5433308835721355 0.83867057594974714 0 0.54463902268945019 0.2723195113447251 0 -0.41933528797487357 1 I I #
face $-1 $-1 $486 $47 $-1 $487 forward single #
loop $-1 $-1 $220 $214 #
plane-surface $-1 47.663808099612417 0 0 -1 0 0 0 0 1 forward_v I I I I #
coedge $-1 $488 $489 $490 $491 reversed $215 $-1 #
coedge $-1 $492 $217 $219 $349 forward $135 $-1 #
coedge $-1 $217 $492 $488 $493 forward $135 $-1 #
coedge $-1 $490 $220 $217 $346 forward $340 $-1 #
edge $-1 $352 -7.3792129361644934 $494 -0.70700896038353367 $345 $495 forward 7 unknown #
coedge $-1 $496 $497 $218 $348 forward $486 $-1 #
edge $-1 $498 5.3134163577261546 $351 9.8172405199764441 $347 $499 forward 7 unknown #
edge $-1 $352 -95.327616199224835 $498 -87.058241485657277 $219 $500 forward 7 unknown #
coedge $-1 $220 $490 $496 $501 reversed $340 $-1 #
vertex $-1 $501 $502 #
vertex $-1 $221 $503 #
straight-curve $-1 47.663808099612417 -11.422323884438507 66.971648380233646 0 0 -1 I I #
coedge $-1 $354 $354 $-1 $504 reversed $224 $-1 #
edge $-1 $505 0 $505 6.2831853071796004 $225 $506 forward 7 unknown #
vertex $-1 $228 $507 #
ellipse-curve $-1 45.411896018487276 -9.5159798913582332 5.5433308835721355 0.83867057594974714 0 0.54463902268945019 0.2723195113447251 0 -0.41933528797487357 1 I I #
coedge $-1 $358 $358 $-1 $508 reversed $231 $-1 #
edge $-1 $509 0 $509 6.2831853071796004 $232 $510 forward 7 unknown #
vertex $-1 $235 $511 #
ellipse-curve $-1 45.411896018487276 -6.6564639017378191 5.5433308835721355 0.83867057594974714 0 0.54463902268945019 0.2723195113447251 0 -0.41933528797487357 1 I I #
face $-1 $-1 $512 $50 $-1 $513 forward single #
loop $-1 $-1 $242 $236 #
plane-surface $-1 47.663808099612417 0 0 -1 0 0 0 0 1 forward_v I I I I #
coedge $-1 $514 $515 $516 $517 reversed $237 $-1 #
coedge $-1 $518 $239 $241 $372 forward $149 $-1 #
coedge $-1 $239 $518 $514 $519 forward $149 $-1 #
coedge $-1 $516 $242 $239 $369 forward $363 $-1 #
edge $-1 $375 -1.6680509939452399 $520 5.0041529818357198 $368 $521 forward 7 unknown #
coedge $-1 $522 $523 $240 $371 forward $512 $-1 #
edge $-1 $524 5.3134163577261546 $374 9.8172405199764441 $370 $525 forward 7 unknown #
edge $-1 $375 -95.327616199224835 $524 -87.058241485657277 $241 $526 forward 7 unknown #
coedge $-1 $242 $516 $522 $527 reversed $363 $-1 #
vertex $-1 $527 $528 #
vertex $-1 $243 $529 #
straight-curve $-1 47.663808099612417 0 66.971648380233646 0 0 -1 I I #
coedge $-1 $377 $377 $-1 $530 reversed $246 $-1 #
edge $-1 $531 0 $531 6.2831853071796004 $247 $532 forward 7 unknown #
vertex $-1 $250 $533 #
ellipse-curve $-1 45.411896018487276 1.9063439930802737 5.5433308835721355 0.83867057594974714 0 0.54463902268945019 0.2723195113447251 0 -0.41933528797487357 1 I I #
coedge $-1 $381 $381 $-1 $534 reversed $253 $-1 #
edge $-1 $535 0 $535 6.2831853071796004 $254 $536 forward 7 unknown #
vertex $-1 $257 $537 #
ellipse-curve $-1 45.411896018487276 4.765859982700686 5.5433308835721355 0.83867057594974714 0 0.54463902268945019 0.2723195113447251 0 -0.41933528797487357 1 I I #
face $-1 $-1 $538 $53 $-1 $539 forward single #
loop $-1 $-1 $264 $258 #
plane-surface $-1 47.663808099612417 0 0 -1 0 0 0 0 1 forward_v I I I I #
coedge $-1 $540 $541 $542 $543 reversed $259 $-1 #
coedge $-1 $544 $261 $263 $395 forward $163 $-1 #
coedge $-1 $261 $544 $540 $545 forward $163 $-1 #
coedge $-1 $542 $264 $261 $392 forward $386 $-1 #
edge $-1 $398 4.0431109482740144 $546 10.715314924054974 $391 $547 forward 7 unknown #
coedge $-1 $548 $549 $262 $394 forward $538 $-1 #
edge $-1 $550 5.3134163577261546 $397 9.8172405199764441 $393 $551 forward 7 unknown #
edge $-1 $398 -95.327616199224835 $550 -87.058241485657277 $263 $552 forward 7 unknown #
coedge $-1 $264 $542 $548 $553 reversed $386 $-1 #
vertex $-1 $553 $554 #
vertex $-1 $265 $555 #
straight-curve $-1 47.663808099612417 11.422323884438509 66.971648380233646 0 0 -1 I I #
coedge $-1 $400 $400 $-1 $556 reversed $268 $-1 #
edge $-1 $557 0 $557 6.2831853071796004 $269 $558 forward 7 unknown #
vertex $-1 $272 $559 #
ellipse-curve $-1 45.411896018487276 13.328667877518779 5.5433308835721355 0.83867057594974714 0 0.54463902268945019 0.2723195113447251 0 -0.41933528797487357 1 I I #
coedge $-1 $404 $404 $-1 $560 reversed $275 $-1 #
edge $-1 $561 0 $561 6.2831853071796004 $276 $562 forward 7 unknown #
vertex $-1 $279 $563 #
ellipse-curve $-1 45.411896018487276 16.188183867139191 5.5433308835721355 0.83867057594974714 0 0.54463902268945019 0.2723195113447251 0 -0.41933528797487357 1 I I #
face $-1 $-1 $295 $42 $-1 $564 reversed single #
loop $-1 $-1 $424 $280 #
plane-surface $-1 0 22.844647768877014 0 0 -1 0 0 0 -1 forward_v I I I I #
coedge $-1 $565 $422 $425 $566 forward $281 $-1 #
coedge $-1 $428 $283 $284 $416 reversed $177 $-1 #
coedge $-1 $422 $565 $283 $414 reversed $281 $-1 #
edge $-1 $429 -9.0109715104581323 $567 9.0109715104581323 $413 $568 forward 7 unknown #
coedge $-1 $285 $284 $565 $569 forward $113 $-1 #
edge $-1 $420 -47.663808099612417 $567 47.663808099612417 $412 $570 forward 7 unknown #
coedge $-1 $425 $424 $285 $418 reversed $409 $-1 #
edge $-1 $571 -47.663808099612417 $419 47.663808099612417 $417 $572 forward 7 unknown #
vertex $-1 $287 $573 #
vertex $-1 $431 $574 #
straight-curve $-1 47.663808099612417 0 -9.0109715104581323 0 -1 0 I I #
coedge $-1 $411 $413 $288 $423 reversed $281 $-1 #
edge $-1 $426 -22.844647768877014 $429 22.844647768877014 $422 $575 forward 7 unknown #
coedge $-1 $417 $289 $294 $432 forward $409 $-1 #
coedge $-1 $289 $417 $411 $566 reversed $409 $-1 #
vertex $-1 $290 $576 #
straight-curve $-1 0 22.844647768877014 9.0109715104581323 -1 0 0 I I #
coedge $-1 $291 $412 $293 $431 reversed $177 $-1 #
vertex $-1 $423 $577 #
straight-curve $-1 0 -22.844647768877014 9.0109715104581323 1 0 0 I I #
edge $-1 $296 -9.0109715104581323 $420 9.0109715104581323 $293 $578 forward 7 unknown #
edge $-1 $297 -9.0109715104581323 $419 9.0109715104581323 $294 $579 forward 7 unknown #
point $-1 47.663808099612417 -22.844647768877014 9.0109715104581323 #
point $-1 47.663808099612417 22.844647768877014 9.0109715104581323 #
face $-1 $-1 $452 $43 $-1 $580 reversed single #
loop $-1 $-1 $581 $299 #
plane-surface $-1 -47.663808099612417 0 0 1 0 0 0 0 -1 forward_v I I I I #
coedge $-1 $439 $455 $303 $442 forward $300 $-1 #
coedge $-1 $310 $438 $302 $440 forward $300 $-1 #
edge $-1 $446 -1.3648547999970182 $313 2.1722684569936925 $439 $582 forward 7 unknown #
coedge $-1 $304 $303 $581 $583 reversed $117 $-1 #
edge $-1 $584 -26.048983368341986 $446 -17.180666094198891 $438 $585 forward 7 unknown #
coedge $-1 $451 $450 $304 $444 forward $452 $-1 #
edge $-1 $445 17.180666094198891 $586 26.048983368341986 $443 $587 forward 7 unknown #
vertex $-1 $444 $588 #
vertex $-1 $442 $589 #
straight-curve $-1 -38.795490825469329 0 -0.96114797149868103 0 -1 0 I I #
coedge $-1 $590 $591 $307 $449 forward $436 $-1 #
edge $-1 $456 -22.844647768877014 $453 22.844647768877014 $448 $592 forward 7 unknown #
coedge $-1 $443 $308 $312 $458 forward $452 $-1 #
coedge $-1 $308 $443 $590 $593 reversed $452 $-1 #
loop $-1 $-1 $443 $435 #
vertex $-1 $593 $594 #
straight-curve $-1 -21.614824731270438 22.844647768877014 2.5759752854920297 1 0 0 I I #
coedge $-1 $438 $310 $591 $595 forward $300 $-1 #
vertex $-1 $595 $596 #
straight-curve $-1 -21.614824731270438 -22.844647768877014 2.5759752854920297 -1 0 0 I I #
edge $-1 $314 -2.1722684569936925 $445 1.3648547999970182 $450 $597 forward 7 unknown #
point $-1 -38.795490825469329 -22.844647768877014 2.5759752854920297 #
point $-1 -38.795490825469329 22.844647768877014 2.5759752854920297 #
loop $-1 $-1 $324 $316 #
plane-surface $-1 47.663808099612417 0 0 -1 0 0 0 0 1 forward_v I I I I #
coedge $-1 $464 $319 $598 $599 reversed $193 $-1 #
coedge $-1 $319 $463 $467 $600 reversed $193 $-1 #
edge $-1 $468 51.503808145025936 $601 59.773182858593486 $319 $602 forward 7 unknown #
coedge $-1 $321 $320 $471 $603 reversed $121 $-1 #
coedge $-1 $327 $322 $464 $600 forward $317 $-1 #
vertex $-1 $600 $604 #
straight-curve $-1 43.159983937362128 -9.754272890493267 9.010971510458134 0 -1 0 I I #
coedge $-1 $598 $324 $327 $475 reversed $461 $-1 #
coedge $-1 $324 $598 $466 $603 forward $461 $-1 #
vertex $-1 $325 $605 #
straight-curve $-1 47.663808099612417 -16.172443793096054 66.971648380233646 0 0 1 I I #
straight-curve $-1 -4.255331622448395 -16.172443793096054 82.024157038406486 0.54463902268945019 0 -0.83867057594974714 I I #
edge $-1 $606 -22.844647768877014 $328 -16.172443793096054 $470 $607 forward 7 unknown #
point $-1 47.663808099612417 -16.172443793096054 9.0109715104581323 #
point $-1 43.159983937362128 -16.172443793096054 9.010971510458134 #
edge $-1 $608 1 $608 0 $331 $-1 forward 7 unknown #
vertex $-1 $332 $609 #
ellipse-curve $-1 44.573225442537506 -20.93830377579674 4.99869186088267 0.83867057594974714 0 0.54463902268945019 0.2723195113447251 0 -0.41933528797487357 1 I I #
point $-1 45.684215529831981 -20.93830377579674 5.1239955955972469 #
edge $-1 $610 1 $610 0 $335 $-1 forward 7 unknown #
vertex $-1 $336 $611 #
ellipse-curve $-1 44.573225442537506 -18.078787786176328 4.99869186088267 0.83867057594974714 0 0.54463902268945019 0.2723195113447251 0 -0.41933528797487357 1 I I #
point $-1 45.684215529831981 -18.078787786176328 5.1239955955972469 #
loop $-1 $-1 $347 $339 #
plane-surface $-1 0 0 9.0109715104581323 0 0 1 1 0 0 forward_v I I I I #
coedge $-1 $489 $342 $344 $493 reversed $215 $-1 #
coedge $-1 $342 $488 $612 $613 reversed $215 $-1 #
coedge $-1 $350 $345 $342 $491 forward $340 $-1 #
edge $-1 $494 -64.895958123547501 $614 -57.960676869775511 $490 $615 forward 7 unknown #
coedge $-1 $344 $343 $497 $616 reversed $135 $-1 #
edge $-1 $617 87.058241485657277 $494 95.327616199224835 $488 $618 forward 7 unknown #
vertex $-1 $346 $619 #
straight-curve $-1 47.663808099612417 -4.0431109482740135 2.0756902566861584 0 1 0 I I #
coedge $-1 $612 $347 $350 $501 forward $486 $-1 #
coedge $-1 $347 $612 $492 $616 forward $486 $-1 #
vertex $-1 $348 $620 #
straight-curve $-1 37.846567579635973 -11.422323884438507 9.010971510458134 1 0 0 I I #
straight-curve $-1 -4.255331622448395 -11.422323884438507 82.024157038406486 -0.54463902268945019 0 0.83867057594974714 I I #
edge $-1 $351 -11.422323884438507 $614 -4.7501199086575472 $350 $621 forward 7 unknown #
point $-1 47.663808099612417 -11.422323884438507 9.0109715104581323 #
point $-1 47.663808099612417 -11.422323884438507 2.0756902566861442 #
edge $-1 $622 1 $622 0 $354 $-1 forward 7 unknown #
vertex $-1 $355 $623 #
ellipse-curve $-1 44.573225442537506 -9.5159798913582332 4.99869186088267 0.83867057594974714 0 0.54463902268945019 0.2723195113447251 0 -0.41933528797487357 1 I I #
point $-1 45.684215529831981 -9.5159798913582332 5.1239955955972469 #
edge $-1 $624 1 $624 0 $358 $-1 forward 7 unknown #
vertex $-1 $359 $625 #
ellipse-curve $-1 44.573225442537506 -6.6564639017378191 4.99869186088267 0.83867057594974714 0 0.54463902268945019 0.2723195113447251 0 -0.41933528797487357 1 I I #
point $-1 45.684215529831981 -6.6564639017378191 5.1239955955972469 #
loop $-1 $-1 $370 $362 #
plane-surface $-1 0 0 9.0109715104581323 0 0 1 1 0 0 forward_v I I I I #
coedge $-1 $515 $365 $367 $519 reversed $237 $-1 #
coedge $-1 $365 $514 $626 $627 reversed $237 $-1 #
coedge $-1 $373 $368 $365 $517 forward $363 $-1 #
edge $-1 $520 -64.895958123547501 $628 -57.960676869775511 $516 $629 forward 7 unknown #
coedge $-1 $367 $366 $523 $630 reversed $149 $-1 #
edge $-1 $631 87.058241485657277 $520 95.327616199224835 $514 $632 forward 7 unknown #
vertex $-1 $369 $633 #
straight-curve $-1 47.663808099612417 1.6680509939452399 2.0756902566861584 0 1 0 I I #
coedge $-1 $626 $370 $373 $527 forward $512 $-1 #
coedge $-1 $370 $626 $518 $630 forward $512 $-1 #
vertex $-1 $371 $634 #
straight-curve $-1 37.846567579635973 0 9.010971510458134 1 0 0 I I #
straight-curve $-1 -4.255331622448395 0 82.024157038406486 -0.54463902268945019 0 0.83867057594974714 I I #
edge $-1 $374 0 $628 6.6722039757809597 $373 $635 forward 7 unknown #
point $-1 47.663808099612417 0 9.0109715104581323 #
point $-1 47.663808099612417 0 2.0756902566861442 #
edge $-1 $636 1 $636 0 $377 $-1 forward 7 unknown #
vertex $-1 $378 $637 #
ellipse-curve $-1 44.573225442537506 1.9063439930802737 4.99869186088267 0.83867057594974714 0 0.54463902268945019 0.2723195113447251 0 -0.41933528797487357 1 I I #
point $-1 45.684215529831981 1.9063439930802737 5.1239955955972469 #
edge $-1 $638 1 $638 0 $381 $-1 forward 7 unknown #
vertex $-1 $382 $639 #
ellipse-curve $-1 44.573225442537506 4.765859982700686 4.99869186088267 0.83867057594974714 0 0.54463902268945019 0.2723195113447251 0 -0.41933528797487357 1 I I #
point $-1 45.684215529831981 4.765859982700686 5.1239955955972469 #
loop $-1 $-1 $393 $385 #
plane-surface $-1 0 0 9.0109715104581323 0 0 1 1 0 0 forward_v I I I I #
coedge $-1 $541 $388 $390 $545 reversed $259 $-1 #
coedge $-1 $388 $540 $640 $641 reversed $259 $-1 #
coedge $-1 $396 $391 $388 $543 forward $386 $-1 #
edge $-1 $546 -64.895958123547501 $642 -57.960676869775511 $542 $643 forward 7 unknown #
coedge $-1 $390 $389 $549 $644 reversed $163 $-1 #
edge $-1 $645 87.058241485657277 $546 95.327616199224835 $540 $646 forward 7 unknown #
vertex $-1 $392 $647 #
straight-curve $-1 47.663808099612417 7.3792129361644943 2.0756902566861584 0 1 0 I I #
coedge $-1 $640 $393 $396 $553 forward $538 $-1 #
coedge $-1 $393 $640 $544 $644 forward $538 $-1 #
vertex $-1 $394 $648 #
straight-curve $-1 37.846567579635973 11.422323884438509 9.010971510458134 1 0 0 I I #
straight-curve $-1 -4.255331622448395 11.422323884438509 82.024157038406486 -0.54463902268945019 0 0.83867057594974714 I I #
edge $-1 $397 11.422323884438509 $642 18.094527860219468 $396 $649 forward 7 unknown #
point $-1 47.663808099612417 11.422323884438509 9.0109715104581323 #
point $-1 47.663808099612417 11.422323884438509 2.0756902566861442 #
edge $-1 $650 1 $650 0 $400 $-1 forward 7 unknown #
vertex $-1 $401 $651 #
ellipse-curve $-1 44.573225442537506 13.328667877518779 4.99869186088267 0.83867057594974714 0 0.54463902268945019 0.2723195113447251 0 -0.41933528797487357 1 I I #
point $-1 45.684215529831981 13.328667877518779 5.1239955955972469 #
edge $-1 $652 1 $652 0 $404 $-1 forward 7 unknown #
vertex $-1 $405 $653 #
ellipse-curve $-1 44.573225442537506 16.188183867139191 4.99869186088267 0.83867057594974714 0 0.54463902268945019 0.2723195113447251 0 -0.41933528797487357 1 I I #
point $-1 45.684215529831981 16.188183867139191 5.1239955955972469 #
plane-surface $-1 47.663808099612417 0 0 -1 0 0 0 0 1 forward_v I I I I #
coedge $-1 $413 $411 $415 $569 reversed $281 $-1 #
edge $-1 $426 -9.0109715104581323 $571 9.0109715104581323 $425 $654 forward 7 unknown #
vertex $-1 $569 $655 #
straight-curve $-1 -47.663808099612417 -22.844647768877014 0 0 0 -1 I I #
edge $-1 $567 -22.844647768877014 $571 22.844647768877014 $565 $656 forward 7 unknown #
straight-curve $-1 0 -22.844647768877014 -9.0109715104581323 -1 0 0 I I #
vertex $-1 $418 $657 #
straight-curve $-1 0 22.844647768877014 -9.0109715104581323 1 0 0 I I #
point $-1 47.663808099612417 22.844647768877014 -9.0109715104581323 #
point $-1 47.663808099612417 -22.844647768877014 -9.0109715104581323 #
straight-curve $-1 -47.663808099612417 0 9.0109715104581323 0 -1 0 I I #
point $-1 -47.663808099612417 22.844647768877014 9.0109715104581323 #
point $-1 -47.663808099612417 -22.844647768877014 9.0109715104581323 #
straight-curve $-1 47.663808099612417 -22.844647768877014 0 0 0 -1 I I #
straight-curve $-1 47.663808099612417 22.844647768877014 0 0 0 -1 I I #
plane-surface $-1 0 22.844647768877014 0 0 -1 0 0 0 -1 forward_v I I I I #
coedge $-1 $591 $590 $441 $583 forward $436 $-1 #
straight-curve $-1 -38.795490825469329 -22.844647768877014 0.40370682849833717 0 0 1 I I #
edge $-1 $586 -22.844647768877014 $584 22.844647768877014 $581 $658 forward 7 unknown #
vertex $-1 $442 $659 #
straight-curve $-1 -21.614824731270438 -22.844647768877014 -0.96114797149868103 1 0 0 I I #
vertex $-1 $444 $660 #
straight-curve $-1 -21.614824731270438 22.844647768877014 -0.96114797149868103 -1 0 0 I I #
point $-1 -38.795490825469329 22.844647768877014 -0.96114797149868103 #
point $-1 -38.795490825469329 -22.844647768877014 -0.96114797149868103 #
coedge $-1 $581 $448 $451 $593 forward $436 $-1 #
coedge $-1 $448 $581 $455 $595 reversed $436 $-1 #
straight-curve $-1 -47.663808099612417 0 2.5759752854920297 0 1 0 I I #
edge $-1 $453 -2.5759752854920297 $586 0.96114797149868103 $451 $661 forward 7 unknown #
point $-1 -47.663808099612424 22.844647768877014 2.5759752854920297 #
edge $-1 $456 -2.5759752854920297 $584 0.96114797149868103 $591 $662 forward 7 unknown #
point $-1 -47.663808099612424 -22.844647768877014 2.5759752854920297 #
straight-curve $-1 -38.795490825469329 22.844647768877014 0.40370682849833717 0 0 -1 I I #
coedge $-1 $471 $470 $463 $599 forward $461 $-1 #
edge $-1 $606 -9.0109715104581323 $601 -2.0756902566861521 $598 $663 forward 7 unknown #
edge $-1 $468 43.159983937362128 $606 47.663808099612417 $464 $664 forward 7 unknown #
vertex $-1 $465 $665 #
straight-curve $-1 15.109000204470263 -22.844647768877014 52.20569995105231 0.54463902268945019 0 -0.83867057594974714 I I #
edge $-1 $601 -13.090374878383747 $472 -6.4181709026027871 $471 $666 forward 7 unknown #
point $-1 43.159983937362128 -22.844647768877014 9.0109715104581323 #
point $-1 47.663808099612417 -16.172443793096054 2.0756902566861442 #
vertex $-1 $475 $667 #
straight-curve $-1 47.663808099612417 0 9.0109715104581323 0 1 0 I I #
vertex $-1 $478 $668 #
point $-1 44.845544953882232 -20.93830377579674 4.5793565729077965 #
vertex $-1 $482 $669 #
point $-1 44.845544953882232 -18.078787786176328 4.5793565729077965 #
coedge $-1 $497 $496 $489 $613 forward $486 $-1 #
edge $-1 $614 -9.8172405199764441 $617 -5.3134163577261546 $612 $670 forward 7 unknown #
vertex $-1 $613 $671 #
straight-curve $-1 47.663808099612417 -4.7501199086575472 66.971648380233646 0 0 1 I I #
edge $-1 $617 0.70700896038353367 $498 7.3792129361644934 $497 $672 forward 7 unknown #
vertex $-1 $616 $673 #
straight-curve $-1 -4.255331622448395 -4.7501199086575472 82.024157038406486 0.54463902268945019 0 -0.83867057594974714 I I #
point $-1 47.663808099612417 -4.7501199086575472 2.0756902566861442 #
point $-1 43.159983937362128 -11.422323884438507 9.010971510458134 #
straight-curve $-1 47.663808099612417 0 9.0109715104581323 0 1 0 I I #
vertex $-1 $504 $674 #
point $-1 44.845544953882232 -9.5159798913582332 4.5793565729077965 #
vertex $-1 $508 $675 #
point $-1 44.845544953882232 -6.6564639017378191 4.5793565729077965 #
coedge $-1 $523 $522 $515 $627 forward $512 $-1 #
edge $-1 $628 -9.8172405199764441 $631 -5.3134163577261546 $626 $676 forward 7 unknown #
vertex $-1 $627 $677 #
straight-curve $-1 47.663808099612417 6.6722039757809597 66.971648380233646 0 0 1 I I #
edge $-1 $631 -5.0041529818357198 $524 1.6680509939452399 $523 $678 forward 7 unknown #
vertex $-1 $630 $679 #
straight-curve $-1 -4.255331622448395 6.6722039757809597 82.024157038406486 0.54463902268945019 0 -0.83867057594974714 I I #
point $-1 47.663808099612417 6.6722039757809597 2.0756902566861442 #
point $-1 43.159983937362128 0 9.010971510458134 #
straight-curve $-1 47.663808099612417 0 9.0109715104581323 0 1 0 I I #
vertex $-1 $530 $680 #
point $-1 44.845544953882232 1.9063439930802737 4.5793565729077965 #
vertex $-1 $534 $681 #
point $-1 44.845544953882232 4.765859982700686 4.5793565729077965 #
coedge $-1 $549 $548 $541 $641 forward $538 $-1 #
edge $-1 $642 -9.8172405199764441 $645 -5.3134163577261546 $640 $682 forward 7 unknown #
vertex $-1 $641 $683 #
straight-curve $-1 47.663808099612417 18.094527860219468 66.971648380233646 0 0 1 I I #
edge $-1 $645 -10.715314924054974 $550 -4.0431109482740144 $549 $684 forward 7 unknown #
vertex $-1 $644 $685 #
straight-curve $-1 -4.255331622448395 18.094527860219468 82.024157038406486 0.54463902268945019 0 -0.83867057594974714 I I #
point $-1 47.663808099612417 18.094527860219468 2.0756902566861442 #
point $-1 43.159983937362128 11.422323884438509 9.010971510458134 #
straight-curve $-1 47.663808099612417 0 9.0109715104581323 0 1 0 I I #
vertex $-1 $556 $686 #
point $-1 44.845544953882232 13.328667877518779 4.5793565729077965 #
vertex $-1 $560 $687 #
point $-1 44.845544953882232 16.188183867139191 4.5793565729077965 #
straight-curve $-1 -47.663808099612417 22.844647768877014 0 0 0 -1 I I #
point $-1 -47.663808099612417 -22.844647768877014 -9.0109715104581323 #
straight-curve $-1 -47.663808099612417 0 -9.0109715104581323 0 1 0 I I #
point $-1 -47.663808099612417 22.844647768877014 -9.0109715104581323 #
straight-curve $-1 -47.663808099612417 0 -0.96114797149868103 0 -1 0 I I #
point $-1 -47.663808099612424 -22.844647768877014 -0.96114797149868103 #
point $-1 -47.663808099612424 22.844647768877014 -0.96114797149868103 #
straight-curve $-1 -47.663808099612417 22.844647768877014 0 0 0 -1 I I #
straight-curve $-1 -47.663808099612417 -22.844647768877014 0 0 0 -1 I I #
straight-curve $-1 47.663808099612417 -22.844647768877014 0 0 0 -1 I I #
straight-curve $-1 0 -22.844647768877014 9.0109715104581323 1 0 0 I I #
point $-1 47.663808099612417 -22.844647768877014 2.0756902566861521 #
straight-curve $-1 47.663808099612417 -9.754272890493267 2.0756902566861584 0 1 0 I I #
point $-1 47.663808099612417 -22.844647768877014 9.0109715104581323 #
point $-1 44.153890154562632 -20.93830377579674 4.7263723495379457 #
point $-1 44.153890154562632 -18.078787786176328 4.7263723495379457 #
straight-curve $-1 37.846567579635973 -4.7501199086575472 9.010971510458134 -1 0 0 I I #
point $-1 47.663808099612417 -4.7501199086575472 9.0109715104581323 #
straight-curve $-1 43.159983937362128 -4.0431109482740135 9.010971510458134 0 -1 0 I I #
point $-1 43.159983937362128 -4.7501199086575472 9.010971510458134 #
point $-1 44.153890154562632 -9.5159798913582332 4.7263723495379457 #
point $-1 44.153890154562632 -6.6564639017378191 4.7263723495379457 #
straight-curve $-1 37.846567579635973 6.6722039757809597 9.010971510458134 -1 0 0 I I #
point $-1 47.663808099612417 6.6722039757809597 9.0109715104581323 #
straight-curve $-1 43.159983937362128 1.6680509939452399 9.010971510458134 0 -1 0 I I #
point $-1 43.159983937362128 6.6722039757809597 9.010971510458134 #
point $-1 44.153890154562632 1.9063439930802737 4.7263723495379457 #
point $-1 44.153890154562632 4.765859982700686 4.7263723495379457 #
straight-curve $-1 37.846567579635973 18.094527860219468 9.010971510458134 -1 0 0 I I #
point $-1 47.663808099612417 18.094527860219468 9.0109715104581323 #
straight-curve $-1 43.159983937362128 7.3792129361644943 9.010971510458134 0 -1 0 I I #
point $-1 43.159983937362128 18.094527860219468 9.010971510458134 #
point $-1 44.153890154562632 13.328667877518779 4.7263723495379457 #
point $-1 44.153890154562632 16.188183867139191 4.7263723495379457 #
End-of-ACIS-data 