500 0 10 0           
7 Unknown 11 ACIS 5.0 NT 24 Fri Mar 26 02:55:01 1999 
-1 9.9999999999999995e-007 1e-010 
body $-1 $10 $-1 $11 #
body $-1 $12 $-1 $13 #
body $-1 $14 $-1 $15 #
body $-1 $16 $-1 $17 #
body $-1 $18 $-1 $19 #
body $-1 $20 $-1 $21 #
body $-1 $22 $-1 $23 #
body $-1 $24 $-1 $25 #
body $-1 $26 $-1 $27 #
body $-1 $28 $-1 $29 #
lump $-1 $-1 $30 $0 #
transform $-1 1 0 0 0 1 0 0 0 1 41.915341654713586 28.80808288018364 6.073109961590764 1 rotate no_reflect no_shear #
lump $-1 $-1 $31 $1 #
transform $-1 1 0 0 0 1 0 0 0 1 41.915341654713586 28.80808288018364 6.073109961590764 1 rotate no_reflect no_shear #
lump $-1 $-1 $32 $2 #
transform $-1 1 0 0 0 1 0 0 0 1 41.915341654713586 28.80808288018364 6.073109961590764 1 rotate no_reflect no_shear #
lump $-1 $-1 $33 $3 #
transform $-1 1 0 0 0 1 0 0 0 1 41.915341654713586 28.80808288018364 6.073109961590764 1 rotate no_reflect no_shear #
lump $-1 $-1 $34 $4 #
transform $-1 1 0 0 0 1 0 0 0 1 41.915341654713586 28.80808288018364 6.073109961590764 1 rotate no_reflect no_shear #
lump $-1 $-1 $35 $5 #
transform $-1 1 0 0 0 1 0 0 0 1 41.915341654713586 28.80808288018364 6.073109961590764 1 rotate no_reflect no_shear #
lump $-1 $-1 $36 $6 #
transform $-1 1 0 0 0 1 0 0 0 1 41.915341654713586 28.80808288018364 6.073109961590764 1 rotate no_reflect no_shear #
lump $-1 $-1 $37 $7 #
transform $-1 1 0 0 0 1 0 0 0 1 41.915341654713586 28.80808288018364 6.073109961590764 1 rotate no_reflect no_shear #
lump $-1 $-1 $38 $8 #
transform $-1 1 0 0 0 1 0 0 0 1 41.915341654713586 28.80808288018364 6.073109961590764 1 rotate no_reflect no_shear #
lump $-1 $-1 $39 $9 #
transform $-1 1 0 0 0 1 0 0 0 1 41.915341654713586 28.80808288018364 6.073109961590764 1 rotate no_reflect no_shear #
shell $-1 $-1 $-1 $40 $-1 $10 #
shell $-1 $-1 $-1 $41 $-1 $12 #
shell $-1 $-1 $-1 $42 $-1 $14 #
shell $-1 $-1 $-1 $43 $-1 $16 #
shell $-1 $-1 $-1 $44 $-1 $18 #
shell $-1 $-1 $-1 $45 $-1 $20 #
shell $-1 $-1 $-1 $46 $-1 $22 #
shell $-1 $-1 $-1 $47 $-1 $24 #
shell $-1 $-1 $-1 $48 $-1 $26 #
shell $-1 $-1 $-1 $49 $-1 $28 #
face $-1 $50 $51 $30 $-1 $52 forward single #
face $-1 $53 $54 $31 $-1 $55 forward single #
face $-1 $56 $57 $32 $-1 $58 reversed single #
face $-1 $59 $60 $33 $-1 $61 forward single #
face $-1 $62 $63 $34 $-1 $64 forward single #
face $-1 $65 $66 $35 $-1 $67 forward single #
face $-1 $68 $69 $36 $-1 $70 reversed single #
face $-1 $71 $72 $37 $-1 $73 forward single #
face $-1 $74 $75 $38 $-1 $76 forward single #
face $-1 $77 $78 $39 $-1 $79 forward single #
face $-1 $80 $81 $30 $-1 $82 reversed single #
loop $-1 $-1 $83 $40 #
plane-surface $-1 0 0 6.073109961590764 0 0 1 1 0 0 forward_v I I I I #
face $-1 $84 $85 $31 $-1 $86 forward single #
loop $-1 $-1 $87 $41 #
plane-surface $-1 0 -28.80808288018364 0 0 1 0 0 0 1 forward_v I I I I #
face $-1 $88 $89 $32 $-1 $90 reversed single #
loop $-1 $-1 $91 $42 #
plane-surface $-1 -11.839194008688779 40.322488365130091 101.92669952192801 1 0 0 0 -0.6560590369687036 -0.75470957328743171 forward_v I I I I #
face $-1 $92 $93 $33 $-1 $94 forward single #
loop $-1 $95 $96 $43 #
cone-surface $-1 -9.4713552069510243 25.339927615855771 2.9263939803098276 0 -0.6560590369687036 -0.75470957328743171 0.5 0 0 1 I I 0 1 0.5 forward I I I I #
face $-1 $97 $98 $34 $-1 $99 forward single #
loop $-1 $100 $101 $44 #
cone-surface $-1 -5.9195970043443893 25.339927615855771 2.9263939803098276 0 -0.6560590369687036 -0.75470957328743171 0.5 0 0 1 I I 0 1 0.5 forward I I I I #
face $-1 $102 $103 $35 $-1 $104 forward single #
loop $-1 $105 $106 $45 #
cone-surface $-1 -2.3678388017377543 25.339927615855771 2.9263939803098276 0 -0.6560590369687036 -0.75470957328743171 0.5 0 0 1 I I 0 1 0.5 forward I I I I #
face $-1 $107 $108 $36 $-1 $109 reversed single #
loop $-1 $-1 $110 $46 #
plane-surface $-1 -5.9195970043443893 -14.675388995281075 38.658880293076407 0 0.6560590369687036 0.75470957328743171 1 0 0 forward_v I I I I #
face $-1 $111 $112 $37 $-1 $113 forward single #
loop $-1 $114 $115 $47 #
cone-surface $-1 2.3678388017377543 25.339927615855771 2.9263939803098276 0 -0.6560590369687036 -0.75470957328743171 0.5 0 0 1 I I 0 1 0.5 forward I I I I #
face $-1 $116 $117 $38 $-1 $118 forward single #
loop $-1 $119 $120 $48 #
cone-surface $-1 5.9195970043443893 25.339927615855771 2.9263939803098276 0 -0.6560590369687036 -0.75470957328743171 0.5 0 0 1 I I 0 1 0.5 forward I I I I #
face $-1 $121 $122 $39 $-1 $123 forward single #
loop $-1 $124 $125 $49 #
cone-surface $-1 9.4713552069510243 25.339927615855771 2.9263939803098276 0 -0.6560590369687036 -0.75470957328743171 0.5 0 0 1 I I 0 1 0.5 forward I I I I #
face $-1 $126 $127 $30 $-1 $128 reversed single #
loop $-1 $-1 $129 $50 #
plane-surface $-1 0 0 -6.073109961590764 0 0 1 1 0 0 forward_v I I I I #
coedge $-1 $130 $131 $132 $133 forward $51 $-1 #
face $-1 $134 $135 $31 $-1 $136 reversed single #
loop $-1 $-1 $137 $53 #
plane-surface $-1 0 0 6.073109961590764 0 0 1 1 0 0 forward_v I I I I #
coedge $-1 $138 $139 $140 $141 forward $54 $-1 #
face $-1 $142 $143 $32 $-1 $144 reversed single #
loop $-1 $-1 $145 $56 #
plane-surface $-1 -5.9195970043443893 -14.675388995281075 38.658880293076407 0 0.6560590369687036 0.75470957328743171 1 0 0 forward_v I I I I #
coedge $-1 $146 $147 $148 $149 reversed $57 $-1 #
face $-1 $-1 $150 $33 $-1 $151 forward single #
loop $-1 $152 $153 $59 #
cone-surface $-1 -9.4713552069510243 24.706673573030791 2.1979185512520898 0 -0.6560590369687036 -0.75470957328743171 0.25 0 0 1 I I -0.70710678118654746 0.70710678118654746 0.25 forward I I I I #
loop $-1 $-1 $154 $43 #
coedge $-1 $96 $96 $155 $156 reversed $60 $-1 #
face $-1 $-1 $157 $34 $-1 $158 forward single #
loop $-1 $159 $160 $62 #
cone-surface $-1 -5.9195970043443893 24.706673573030791 2.1979185512520898 0 -0.6560590369687036 -0.75470957328743171 0.25 0 0 1 I I -0.70710678118654746 0.70710678118654746 0.25 forward I I I I #
loop $-1 $-1 $161 $44 #
coedge $-1 $101 $101 $162 $163 reversed $63 $-1 #
face $-1 $-1 $164 $35 $-1 $165 forward single #
loop $-1 $166 $167 $65 #
cone-surface $-1 -2.3678388017377543 24.706673573030791 2.1979185512520898 0 -0.6560590369687036 -0.75470957328743171 0.25 0 0 1 I I -0.70710678118654746 0.70710678118654746 0.25 forward I I I I #
loop $-1 $-1 $168 $45 #
coedge $-1 $106 $106 $169 $170 reversed $66 $-1 #
face $-1 $171 $172 $36 $-1 $173 forward single #
loop $-1 $-1 $174 $68 #
plane-surface $-1 11.839194008688779 40.322488365130091 101.92669952192801 -1 0 0 0 0.6560590369687036 0.75470957328743171 forward_v I I I I #
coedge $-1 $175 $176 $177 $178 reversed $69 $-1 #
face $-1 $-1 $179 $37 $-1 $180 forward single #
loop $-1 $181 $182 $71 #
cone-surface $-1 2.3678388017377543 24.706673573030791 2.1979185512520898 0 -0.6560590369687036 -0.75470957328743171 0.25 0 0 1 I I -0.70710678118654746 0.70710678118654746 0.25 forward I I I I #
loop $-1 $-1 $183 $47 #
coedge $-1 $115 $115 $184 $185 reversed $72 $-1 #
face $-1 $-1 $186 $38 $-1 $187 forward single #
loop $-1 $188 $189 $74 #
cone-surface $-1 5.9195970043443893 24.706673573030791 2.1979185512520898 0 -0.6560590369687036 -0.75470957328743171 0.25 0 0 1 I I -0.70710678118654746 0.70710678118654746 0.25 forward I I I I #
loop $-1 $-1 $190 $48 #
coedge $-1 $120 $120 $191 $192 reversed $75 $-1 #
face $-1 $-1 $193 $39 $-1 $194 forward single #
loop $-1 $195 $196 $77 #
cone-surface $-1 9.4713552069510243 24.706673573030791 2.1979185512520898 0 -0.6560590369687036 -0.75470957328743171 0.25 0 0 1 I I -0.70710678118654746 0.70710678118654746 0.25 forward I I I I #
loop $-1 $-1 $197 $49 #
coedge $-1 $125 $125 $198 $199 reversed $78 $-1 #
face $-1 $200 $201 $30 $-1 $202 reversed single #
loop $-1 $-1 $203 $80 #
plane-surface $-1 0 -28.80808288018364 0 0 1 0 0 0 1 forward_v I I I I #
coedge $-1 $204 $205 $206 $207 forward $81 $-1 #
coedge $-1 $208 $83 $209 $210 forward $51 $-1 #
coedge $-1 $83 $208 $211 $212 forward $51 $-1 #
coedge $-1 $213 $214 $83 $133 reversed $215 $-1 #
edge $-1 $216 -28.80808288018364 $217 28.80808288018364 $132 $218 forward 7 unknown #
face $-1 $219 $220 $31 $-1 $221 reversed single #
loop $-1 $-1 $222 $84 #
plane-surface $-1 -41.915341654713586 0 0 1 0 0 0 0 -1 forward_v I I I I #
coedge $-1 $223 $224 $225 $226 forward $85 $-1 #
coedge $-1 $225 $87 $222 $227 reversed $54 $-1 #
coedge $-1 $87 $225 $228 $229 reversed $54 $-1 #
coedge $-1 $230 $231 $87 $141 reversed $220 $-1 #
edge $-1 $232 -41.915341654713586 $233 41.915341654713586 $140 $234 forward 7 unknown #
face $-1 $235 $236 $32 $-1 $237 reversed single #
loop $-1 $-1 $238 $88 #
plane-surface $-1 0 40.322488365130091 101.92669952192801 -1 0 0 0 0.6560590369687036 0.75470957328743171 forward_v I I I I #
coedge $-1 $239 $240 $241 $242 reversed $89 $-1 #
coedge $-1 $147 $91 $243 $244 reversed $57 $-1 #
coedge $-1 $91 $146 $239 $245 reversed $57 $-1 #
coedge $-1 $241 $246 $91 $149 forward $247 $-1 #
edge $-1 $248 -8.6468386976185947 $249 -2.6490067361284879 $148 $250 forward 7 unknown #
loop $-1 $-1 $155 $92 #
plane-surface $-1 -5.9195970043443893 -14.675388995281075 38.658880293076407 0 0.6560590369687036 0.75470957328743171 1 0 0 forward_v I I I I #
loop $-1 $-1 $251 $59 #
coedge $-1 $153 $153 $154 $252 reversed $93 $-1 #
coedge $-1 $154 $154 $153 $252 forward $95 $-1 #
coedge $-1 $155 $155 $96 $156 forward $150 $-1 #
edge $-1 $253 -9.3746770143360782e-016 $253 6.2831853071795996 $155 $254 forward 7 unknown #
loop $-1 $-1 $162 $97 #
plane-surface $-1 -5.9195970043443893 -14.675388995281075 38.658880293076407 0 0.6560590369687036 0.75470957328743171 1 0 0 forward_v I I I I #
loop $-1 $-1 $255 $62 #
coedge $-1 $160 $160 $161 $256 reversed $98 $-1 #
coedge $-1 $161 $161 $160 $256 forward $100 $-1 #
coedge $-1 $162 $162 $101 $163 forward $157 $-1 #
edge $-1 $257 -9.3746770143360782e-016 $257 6.2831853071795996 $162 $258 forward 7 unknown #
loop $-1 $-1 $169 $102 #
plane-surface $-1 -5.9195970043443893 -14.675388995281075 38.658880293076407 0 0.6560590369687036 0.75470957328743171 1 0 0 forward_v I I I I #
loop $-1 $-1 $259 $65 #
coedge $-1 $167 $167 $168 $260 reversed $103 $-1 #
coedge $-1 $168 $168 $167 $260 forward $105 $-1 #
coedge $-1 $169 $169 $106 $170 forward $164 $-1 #
edge $-1 $261 -9.3746770143360782e-016 $261 6.2831853071795996 $169 $262 forward 7 unknown #
face $-1 $263 $264 $36 $-1 $265 forward single #
loop $-1 $-1 $266 $107 #
plane-surface $-1 0 0 6.073109961590764 0 0 1 1 0 0 forward_v I I I I #
coedge $-1 $267 $268 $269 $270 reversed $108 $-1 #
coedge $-1 $271 $110 $272 $273 reversed $69 $-1 #
coedge $-1 $110 $271 $266 $274 reversed $69 $-1 #
coedge $-1 $275 $276 $110 $178 forward $264 $-1 #
edge $-1 $277 -57.616165760367267 $278 -49.668960406439922 $177 $279 forward 7 unknown #
loop $-1 $-1 $184 $111 #
plane-surface $-1 -5.9195970043443893 -14.675388995281075 38.658880293076407 0 0.6560590369687036 0.75470957328743171 1 0 0 forward_v I I I I #
loop $-1 $-1 $280 $71 #
coedge $-1 $182 $182 $183 $281 reversed $112 $-1 #
coedge $-1 $183 $183 $182 $281 forward $114 $-1 #
coedge $-1 $184 $184 $115 $185 forward $179 $-1 #
edge $-1 $282 -9.3746770143360782e-016 $282 6.2831853071795996 $184 $283 forward 7 unknown #
loop $-1 $-1 $191 $116 #
plane-surface $-1 -5.9195970043443893 -14.675388995281075 38.658880293076407 0 0.6560590369687036 0.75470957328743171 1 0 0 forward_v I I I I #
loop $-1 $-1 $284 $74 #
coedge $-1 $189 $189 $190 $285 reversed $117 $-1 #
coedge $-1 $190 $190 $189 $285 forward $119 $-1 #
coedge $-1 $191 $191 $120 $192 forward $186 $-1 #
edge $-1 $286 -9.3746770143360782e-016 $286 6.2831853071795996 $191 $287 forward 7 unknown #
loop $-1 $-1 $198 $121 #
plane-surface $-1 -5.9195970043443893 -14.675388995281075 38.658880293076407 0 0.6560590369687036 0.75470957328743171 1 0 0 forward_v I I I I #
loop $-1 $-1 $288 $77 #
coedge $-1 $196 $196 $197 $289 reversed $122 $-1 #
coedge $-1 $197 $197 $196 $289 forward $124 $-1 #
coedge $-1 $198 $198 $125 $199 forward $193 $-1 #
edge $-1 $290 -9.3746770143360782e-016 $290 6.2831853071795996 $198 $291 forward 7 unknown #
face $-1 $292 $293 $30 $-1 $294 reversed single #
loop $-1 $-1 $295 $126 #
plane-surface $-1 -41.915341654713586 0 0 1 0 0 0 0 -1 forward_v I I I I #
coedge $-1 $296 $211 $297 $298 forward $127 $-1 #
coedge $-1 $299 $129 $296 $300 forward $81 $-1 #
coedge $-1 $129 $299 $301 $302 forward $81 $-1 #
coedge $-1 $214 $213 $129 $207 reversed $215 $-1 #
edge $-1 $303 -28.80808288018364 $304 28.80808288018364 $206 $305 forward 7 unknown #
coedge $-1 $131 $130 $306 $307 forward $51 $-1 #
coedge $-1 $308 $309 $130 $210 reversed $293 $-1 #
edge $-1 $217 -41.915341654713586 $310 41.915341654713586 $209 $311 forward 7 unknown #
coedge $-1 $203 $312 $131 $212 reversed $127 $-1 #
edge $-1 $313 -41.915341654713586 $216 41.915341654713586 $211 $314 forward 7 unknown #
coedge $-1 $206 $132 $312 $315 forward $215 $-1 #
coedge $-1 $132 $206 $308 $316 reversed $215 $-1 #
loop $-1 $-1 $213 $292 #
vertex $-1 $133 $317 #
vertex $-1 $133 $318 #
straight-curve $-1 41.915341654713586 0 6.073109961590764 0 1 0 I I #
face $-1 $319 $320 $31 $-1 $321 reversed single #
loop $-1 $-1 $230 $134 #
plane-surface $-1 0 -32.80569310203974 3.073109961590764 0 0 1 1 0 0 forward_v I I I I #
coedge $-1 $322 $323 $138 $227 forward $135 $-1 #
coedge $-1 $324 $137 $323 $325 forward $85 $-1 #
coedge $-1 $137 $324 $326 $327 forward $85 $-1 #
coedge $-1 $139 $138 $137 $226 reversed $54 $-1 #
edge $-1 $328 -41.915341654713586 $329 41.915341654713586 $137 $330 forward 7 unknown #
edge $-1 $329 -6.073109961590764 $233 -3.073109961590764 $222 $331 forward 7 unknown #
coedge $-1 $326 $332 $139 $229 forward $333 $-1 #
edge $-1 $232 3.073109961590764 $328 6.073109961590764 $228 $334 forward 7 unknown #
coedge $-1 $335 $140 $332 $336 forward $220 $-1 #
coedge $-1 $140 $335 $322 $337 forward $220 $-1 #
vertex $-1 $229 $338 #
vertex $-1 $227 $339 #
straight-curve $-1 0 -28.80808288018364 3.073109961590764 -1 0 0 I I #
face $-1 $-1 $247 $32 $-1 $340 forward single #
loop $-1 $-1 $341 $142 #
plane-surface $-1 0 28.80808288018364 0 0 -1 0 0 0 -1 forward_v I I I I #
coedge $-1 $342 $343 $344 $345 reversed $143 $-1 #
coedge $-1 $346 $145 $147 $245 forward $89 $-1 #
coedge $-1 $145 $346 $342 $347 forward $89 $-1 #
coedge $-1 $344 $148 $145 $242 forward $247 $-1 #
edge $-1 $249 -8.8793955065165839 $348 2.9597985021721946 $241 $349 forward 7 unknown #
coedge $-1 $350 $351 $146 $244 forward $236 $-1 #
edge $-1 $352 -50.10407569046334 $248 -44.890239799373241 $243 $353 forward 7 unknown #
edge $-1 $249 49.668960406439922 $352 57.616165760367267 $147 $354 forward 7 unknown #
coedge $-1 $148 $344 $350 $355 forward $247 $-1 #
loop $-1 $-1 $344 $235 #
vertex $-1 $244 $356 #
vertex $-1 $149 $357 #
straight-curve $-1 -11.839194008688779 20.161244182565046 6.0731099615907667 0 -1 0 I I #
coedge $-1 $251 $251 $-1 $358 reversed $152 $-1 #
edge $-1 $359 0 $359 6.2831853071796004 $153 $360 forward 7 unknown #
vertex $-1 $156 $361 #
ellipse-curve $-1 -9.4713552069510243 25.809166899438587 3.4661920160457189 0 0.6560590369687036 0.75470957328743171 0.5 0 0 1 I I #
coedge $-1 $255 $255 $-1 $362 reversed $159 $-1 #
edge $-1 $363 0 $363 6.2831853071796004 $160 $364 forward 7 unknown #
vertex $-1 $163 $365 #
ellipse-curve $-1 -5.9195970043443893 25.809166899438587 3.4661920160457189 0 0.6560590369687036 0.75470957328743171 0.5 0 0 1 I I #
coedge $-1 $259 $259 $-1 $366 reversed $166 $-1 #
edge $-1 $367 0 $367 6.2831853071796004 $167 $368 forward 7 unknown #
vertex $-1 $170 $369 #
ellipse-curve $-1 -2.3678388017377543 25.809166899438587 3.4661920160457189 0 0.6560590369687036 0.75470957328743171 0.5 0 0 1 I I #
face $-1 $-1 $370 $36 $-1 $371 reversed single #
loop $-1 $-1 $275 $171 #
plane-surface $-1 0 40.322488365130091 101.92669952192801 -1 0 0 0 0.6560590369687036 0.75470957328743171 forward_v I I I I #
coedge $-1 $269 $372 $176 $274 forward $172 $-1 #
coedge $-1 $268 $174 $271 $373 reversed $108 $-1 #
coedge $-1 $174 $267 $374 $375 reversed $108 $-1 #
coedge $-1 $376 $266 $174 $270 forward $172 $-1 #
edge $-1 $377 2.6490067361284879 $378 8.6468386976185947 $269 $379 forward 7 unknown #
coedge $-1 $176 $175 $267 $373 forward $69 $-1 #
coedge $-1 $380 $374 $175 $273 forward $370 $-1 #
edge $-1 $381 -14.798992510860973 $277 -2.9597985021721946 $272 $382 forward 7 unknown #
edge $-1 $278 2.9597985021721946 $377 14.798992510860973 $266 $383 forward 7 unknown #
coedge $-1 $276 $177 $372 $384 reversed $264 $-1 #
coedge $-1 $177 $275 $380 $385 reversed $264 $-1 #
vertex $-1 $273 $386 #
vertex $-1 $274 $387 #
straight-curve $-1 0 -14.675388995281075 38.658880293076407 0 -0.75470957328743171 0.6560590369687036 I I #
coedge $-1 $280 $280 $-1 $388 reversed $181 $-1 #
edge $-1 $389 0 $389 6.2831853071796004 $182 $390 forward 7 unknown #
vertex $-1 $185 $391 #
ellipse-curve $-1 2.3678388017377543 25.809166899438587 3.4661920160457189 0 0.6560590369687036 0.75470957328743171 0.5 0 0 1 I I #
coedge $-1 $284 $284 $-1 $392 reversed $188 $-1 #
edge $-1 $393 0 $393 6.2831853071796004 $189 $394 forward 7 unknown #
vertex $-1 $192 $395 #
ellipse-curve $-1 5.9195970043443893 25.809166899438587 3.4661920160457189 0 0.6560590369687036 0.75470957328743171 0.5 0 0 1 I I #
coedge $-1 $288 $288 $-1 $396 reversed $195 $-1 #
edge $-1 $397 0 $397 6.2831853071796004 $196 $398 forward 7 unknown #
vertex $-1 $199 $399 #
ellipse-curve $-1 9.4713552069510243 25.809166899438587 3.4661920160457189 0 0.6560590369687036 0.75470957328743171 0.5 0 0 1 I I #
face $-1 $-1 $215 $30 $-1 $400 reversed single #
loop $-1 $-1 $308 $200 #
plane-surface $-1 0 28.80808288018364 0 0 -1 0 0 0 -1 forward_v I I I I #
coedge $-1 $401 $306 $309 $402 forward $201 $-1 #
coedge $-1 $312 $203 $204 $300 reversed $127 $-1 #
coedge $-1 $306 $401 $203 $298 reversed $201 $-1 #
edge $-1 $313 -6.073109961590764 $403 6.073109961590764 $297 $404 forward 7 unknown #
coedge $-1 $205 $204 $401 $405 forward $81 $-1 #
edge $-1 $304 -41.915341654713586 $403 41.915341654713586 $296 $406 forward 7 unknown #
coedge $-1 $309 $308 $205 $302 reversed $293 $-1 #
edge $-1 $407 -41.915341654713586 $303 41.915341654713586 $301 $408 forward 7 unknown #
vertex $-1 $207 $409 #
vertex $-1 $315 $410 #
straight-curve $-1 41.915341654713586 0 -6.073109961590764 0 -1 0 I I #
coedge $-1 $295 $297 $208 $307 reversed $201 $-1 #
edge $-1 $310 -28.80808288018364 $313 28.80808288018364 $306 $411 forward 7 unknown #
coedge $-1 $301 $209 $214 $316 forward $293 $-1 #
coedge $-1 $209 $301 $295 $402 reversed $293 $-1 #
vertex $-1 $210 $412 #
straight-curve $-1 0 28.80808288018364 6.073109961590764 -1 0 0 I I #
coedge $-1 $211 $296 $213 $315 reversed $127 $-1 #
vertex $-1 $307 $413 #
straight-curve $-1 0 -28.80808288018364 6.073109961590764 1 0 0 I I #
edge $-1 $216 -6.073109961590764 $304 6.073109961590764 $213 $414 forward 7 unknown #
edge $-1 $217 -6.073109961590764 $303 6.073109961590764 $214 $415 forward 7 unknown #
point $-1 41.915341654713586 -28.80808288018364 6.073109961590764 #
point $-1 41.915341654713586 28.80808288018364 6.073109961590764 #
face $-1 $-1 $333 $31 $-1 $416 reversed single #
loop $-1 $-1 $417 $219 #
plane-surface $-1 0 -36.80330332389584 4.573109961590764 0 1 0 0 0 1 forward_v I I I I #
coedge $-1 $418 $222 $231 $337 reversed $135 $-1 #
coedge $-1 $222 $418 $223 $325 reversed $135 $-1 #
coedge $-1 $224 $223 $419 $420 forward $85 $-1 #
edge $-1 $329 28.80808288018364 $421 36.80330332389584 $323 $422 forward 7 unknown #
coedge $-1 $423 $228 $224 $327 reversed $333 $-1 #
edge $-1 $424 -36.80330332389584 $328 -28.80808288018364 $326 $425 forward 7 unknown #
vertex $-1 $229 $426 #
vertex $-1 $325 $427 #
straight-curve $-1 0 -28.80808288018364 6.073109961590764 -1 0 0 I I #
straight-curve $-1 -41.915341654713586 -28.80808288018364 0 0 0 -1 I I #
coedge $-1 $228 $423 $230 $336 reversed $333 $-1 #
loop $-1 $-1 $228 $319 #
straight-curve $-1 41.915341654713586 -28.80808288018364 0 0 0 1 I I #
coedge $-1 $231 $230 $428 $429 forward $220 $-1 #
edge $-1 $232 -3.9976102218561032 $430 3.9976102218560996 $332 $431 forward 7 unknown #
edge $-1 $432 -3.9976102218560996 $233 3.9976102218561032 $322 $433 forward 7 unknown #
point $-1 41.915341654713586 -28.808082880183637 3.073109961590764 #
point $-1 -41.915341654713586 -28.808082880183637 3.073109961590764 #
plane-surface $-1 0 0 6.073109961590764 0 0 1 1 0 0 forward_v I I I I #
coedge $-1 $351 $350 $343 $434 forward $236 $-1 #
coedge $-1 $343 $238 $240 $347 reversed $143 $-1 #
coedge $-1 $238 $342 $341 $434 reversed $143 $-1 #
coedge $-1 $246 $241 $238 $345 forward $247 $-1 #
edge $-1 $348 2.6490067361284879 $435 8.6468386976185947 $344 $436 forward 7 unknown #
coedge $-1 $240 $239 $351 $437 reversed $89 $-1 #
edge $-1 $438 -57.616165760367267 $348 -49.668960406439922 $342 $439 forward 7 unknown #
vertex $-1 $242 $440 #
straight-curve $-1 -2.9597985021721946 22.810250918693534 6.0731099615907667 1 0 0 I I #
coedge $-1 $341 $243 $246 $355 reversed $236 $-1 #
coedge $-1 $243 $341 $346 $437 forward $236 $-1 #
vertex $-1 $244 $441 #
straight-curve $-1 -11.839194008688779 28.80808288018364 50.963349760964007 0 0 1 I I #
straight-curve $-1 -11.839194008688779 -14.675388995281075 38.658880293076407 0 0.75470957328743171 -0.6560590369687036 I I #
edge $-1 $435 0 $248 11.839194008688779 $350 $442 forward 7 unknown #
point $-1 -11.839194008688779 28.80808288018364 6.073109961590764 #
point $-1 -11.839194008688779 22.810250918693534 6.0731099615907667 #
edge $-1 $443 1 $443 0 $251 $-1 forward 7 unknown #
vertex $-1 $252 $444 #
ellipse-curve $-1 -9.4713552069510243 24.870688332272966 2.3865959445739477 0 0.6560590369687036 0.75470957328743171 0.5 0 0 1 I I #
point $-1 -8.9713552069510243 25.809166899438576 3.4661920160457074 #
edge $-1 $445 1 $445 0 $255 $-1 forward 7 unknown #
vertex $-1 $256 $446 #
ellipse-curve $-1 -5.9195970043443893 24.870688332272966 2.3865959445739477 0 0.6560590369687036 0.75470957328743171 0.5 0 0 1 I I #
point $-1 -5.4195970043443893 25.809166899438576 3.4661920160457074 #
edge $-1 $447 1 $447 0 $259 $-1 forward 7 unknown #
vertex $-1 $260 $448 #
ellipse-curve $-1 -2.3678388017377543 24.870688332272966 2.3865959445739477 0 0.6560590369687036 0.75470957328743171 0.5 0 0 1 I I #
point $-1 -1.8678388017377543 25.809166899438576 3.4661920160457074 #
loop $-1 $-1 $272 $263 #
plane-surface $-1 0 28.80808288018364 0 0 -1 0 0 0 -1 forward_v I I I I #
coedge $-1 $266 $376 $275 $384 forward $172 $-1 #
edge $-1 $381 -57.616165760367267 $377 -49.668960406439922 $267 $449 forward 7 unknown #
coedge $-1 $272 $450 $268 $375 forward $370 $-1 #
edge $-1 $378 44.890239799373241 $381 50.10407569046334 $374 $451 forward 7 unknown #
coedge $-1 $372 $269 $450 $452 forward $172 $-1 #
vertex $-1 $270 $453 #
vertex $-1 $452 $454 #
straight-curve $-1 11.839194008688779 20.161244182565046 6.0731099615907667 0 1 0 I I #
coedge $-1 $450 $272 $276 $385 forward $370 $-1 #
vertex $-1 $375 $455 #
straight-curve $-1 -2.9597985021721946 28.80808288018364 0.85927407050066051 -1 0 0 I I #
straight-curve $-1 -2.9597985021721946 22.810250918693534 6.0731099615907667 1 0 0 I I #
edge $-1 $456 -8.6468386976185947 $278 -2.6490067361284879 $372 $457 forward 7 unknown #
edge $-1 $277 -50.10407569046334 $456 -44.890239799373241 $380 $458 forward 7 unknown #
point $-1 0 28.80808288018364 0.85927407050066762 #
point $-1 0 22.810250918693534 6.0731099615907667 #
edge $-1 $459 1 $459 0 $280 $-1 forward 7 unknown #
vertex $-1 $281 $460 #
ellipse-curve $-1 2.3678388017377543 24.870688332272966 2.3865959445739477 0 0.6560590369687036 0.75470957328743171 0.5 0 0 1 I I #
point $-1 2.8678388017377543 25.809166899438576 3.4661920160457074 #
edge $-1 $461 1 $461 0 $284 $-1 forward 7 unknown #
vertex $-1 $285 $462 #
ellipse-curve $-1 5.9195970043443893 24.870688332272966 2.3865959445739477 0 0.6560590369687036 0.75470957328743171 0.5 0 0 1 I I #
point $-1 6.4195970043443893 25.809166899438576 3.4661920160457074 #
edge $-1 $463 1 $463 0 $288 $-1 forward 7 unknown #
vertex $-1 $289 $464 #
ellipse-curve $-1 9.4713552069510243 24.870688332272966 2.3865959445739477 0 0.6560590369687036 0.75470957328743171 0.5 0 0 1 I I #
point $-1 9.9713552069510243 25.809166899438576 3.4661920160457074 #
plane-surface $-1 41.915341654713586 0 0 -1 0 0 0 0 1 forward_v I I I I #
coedge $-1 $297 $295 $299 $405 reversed $201 $-1 #
edge $-1 $310 -6.073109961590764 $407 6.073109961590764 $309 $465 forward 7 unknown #
vertex $-1 $405 $466 #
straight-curve $-1 -41.915341654713586 -28.80808288018364 0 0 0 -1 I I #
edge $-1 $403 -28.80808288018364 $407 28.80808288018364 $401 $467 forward 7 unknown #
straight-curve $-1 0 -28.80808288018364 -6.073109961590764 -1 0 0 I I #
vertex $-1 $302 $468 #
straight-curve $-1 0 28.80808288018364 -6.073109961590764 1 0 0 I I #
point $-1 41.915341654713586 28.80808288018364 -6.073109961590764 #
point $-1 41.915341654713586 -28.80808288018364 -6.073109961590764 #
straight-curve $-1 -41.915341654713586 0 6.073109961590764 0 -1 0 I I #
point $-1 -41.915341654713586 28.80808288018364 6.073109961590764 #
point $-1 -41.915341654713586 -28.80808288018364 6.073109961590764 #
straight-curve $-1 41.915341654713586 -28.80808288018364 0 0 0 -1 I I #
straight-curve $-1 41.915341654713586 28.80808288018364 0 0 0 -1 I I #
plane-surface $-1 41.915341654713586 0 0 -1 0 0 0 0 1 forward_v I I I I #
coedge $-1 $428 $419 $418 $469 forward $320 $-1 #
coedge $-1 $323 $322 $417 $469 reversed $135 $-1 #
coedge $-1 $417 $470 $324 $420 reversed $320 $-1 #
edge $-1 $421 -41.915341654713586 $424 41.915341654713586 $419 $471 forward 7 unknown #
vertex $-1 $325 $472 #
straight-curve $-1 -41.915341654713586 0 6.073109961590764 0 -1 0 I I #
coedge $-1 $332 $326 $470 $473 forward $333 $-1 #
vertex $-1 $327 $474 #
straight-curve $-1 41.915341654713586 0 6.073109961590764 0 1 0 I I #
point $-1 41.915341654713586 -28.80808288018364 6.073109961590764 #
point $-1 -41.915341654713586 -28.80808288018364 6.073109961590764 #
coedge $-1 $470 $417 $335 $429 reversed $320 $-1 #
edge $-1 $430 -41.915341654713586 $432 41.915341654713586 $428 $475 forward 7 unknown #
vertex $-1 $473 $476 #
straight-curve $-1 41.915341654713586 -32.80569310203974 3.073109961590764 0 -1 0 I I #
vertex $-1 $337 $477 #
straight-curve $-1 -41.915341654713586 -32.80569310203974 3.073109961590764 0 1 0 I I #
edge $-1 $435 44.890239799373241 $438 50.10407569046334 $341 $478 forward 7 unknown #
vertex $-1 $355 $479 #
straight-curve $-1 0 20.161244182565046 6.0731099615907667 0 1 0 I I #
edge $-1 $438 -2.9597985021721946 $352 8.8793955065165839 $351 $480 forward 7 unknown #
vertex $-1 $437 $481 #
straight-curve $-1 0 -14.675388995281075 38.658880293076407 0 -0.75470957328743171 0.6560590369687036 I I #
point $-1 0 22.810250918693534 6.0731099615907667 #
point $-1 -11.839194008688779 28.80808288018364 0.85927407050066762 #
straight-curve $-1 0 28.80808288018364 6.073109961590764 -1 0 0 I I #
vertex $-1 $358 $482 #
point $-1 -8.9713552069510243 24.870688332272966 2.3865959445739477 #
vertex $-1 $362 $483 #
point $-1 -5.4195970043443893 24.870688332272966 2.3865959445739477 #
vertex $-1 $366 $484 #
point $-1 -1.8678388017377543 24.870688332272966 2.3865959445739477 #
straight-curve $-1 11.839194008688779 -14.675388995281075 38.658880293076407 0 -0.75470957328743171 0.6560590369687036 I I #
coedge $-1 $374 $380 $376 $452 reversed $370 $-1 #
straight-curve $-1 11.839194008688779 28.80808288018364 50.963349760964007 0 0 -1 I I #
edge $-1 $378 -11.839194008688779 $456 0 $450 $485 forward 7 unknown #
point $-1 11.839194008688779 22.810250918693534 6.0731099615907667 #
point $-1 11.839194008688779 28.80808288018364 6.073109961590764 #
point $-1 11.839194008688779 28.80808288018364 0.85927407050066762 #
vertex $-1 $385 $486 #
straight-curve $-1 0 20.161244182565046 6.0731099615907667 0 -1 0 I I #
straight-curve $-1 0 28.80808288018364 50.963349760964007 0 0 1 I I #
vertex $-1 $388 $487 #
point $-1 2.8678388017377543 24.870688332272966 2.3865959445739477 #
vertex $-1 $392 $488 #
point $-1 6.4195970043443893 24.870688332272966 2.3865959445739477 #
vertex $-1 $396 $489 #
point $-1 9.9713552069510243 24.870688332272966 2.3865959445739477 #
straight-curve $-1 -41.915341654713586 28.80808288018364 0 0 0 -1 I I #
point $-1 -41.915341654713586 -28.80808288018364 -6.073109961590764 #
straight-curve $-1 -41.915341654713586 0 -6.073109961590764 0 1 0 I I #
point $-1 -41.915341654713586 28.80808288018364 -6.073109961590764 #
edge $-1 $421 -1.5 $432 1.5 $418 $490 forward 7 unknown #
coedge $-1 $419 $428 $423 $473 reversed $320 $-1 #
straight-curve $-1 0 -36.80330332389584 6.073109961590764 1 0 0 I I #
point $-1 -41.915341654713586 -36.80330332389584 6.073109961590764 #
edge $-1 $424 -1.5 $430 1.5 $423 $491 forward 7 unknown #
point $-1 41.915341654713586 -36.80330332389584 6.073109961590764 #
straight-curve $-1 0 -36.80330332389584 3.073109961590764 -1 0 0 I I #
point $-1 41.915341654713586 -36.80330332389584 3.073109961590764 #
point $-1 -41.915341654713586 -36.80330332389584 3.073109961590764 #
straight-curve $-1 0 28.80808288018364 50.963349760964007 0 0 -1 I I #
point $-1 0 28.80808288018364 6.073109961590764 #
straight-curve $-1 -2.9597985021721946 28.80808288018364 0.85927407050066051 -1 0 0 I I #
point $-1 0 28.80808288018364 0.85927407050066762 #
point $-1 -9.4713552069510243 24.542658813788616 2.0092411579302318 #
point $-1 -5.9195970043443893 24.542658813788616 2.0092411579302318 #
point $-1 -2.3678388017377543 24.542658813788616 2.0092411579302318 #
straight-curve $-1 0 28.80808288018364 6.073109961590764 -1 0 0 I I #
point $-1 0 28.80808288018364 6.073109961590764 #
point $-1 2.3678388017377543 24.542658813788616 2.0092411579302318 #
point $-1 5.9195970043443893 24.542658813788616 2.0092411579302318 #
point $-1 9.4713552069510243 24.542658813788616 2.0092411579302318 #
straight-curve $-1 -41.915341654713586 -36.80330332389584 4.573109961590764 0 0 -1 I I #
straight-curve $-1 41.915341654713586 -36.80330332389584 4.573109961590764 0 0 -1 I I #
End-of-ACIS-data 