500 0 18 0           
7 Unknown 11 ACIS 5.0 NT 24 Fri Mar 26 19:08:19 1999 
-1 9.9999999999999995e-007 1e-010 
body $-1 $18 $-1 $19 #
body $-1 $20 $-1 $21 #
body $-1 $22 $-1 $23 #
body $-1 $24 $-1 $25 #
body $-1 $26 $-1 $27 #
body $-1 $28 $-1 $29 #
body $-1 $30 $-1 $31 #
body $-1 $32 $-1 $33 #
body $-1 $34 $-1 $35 #
body $-1 $36 $-1 $37 #
body $-1 $38 $-1 $39 #
body $-1 $40 $-1 $41 #
body $-1 $42 $-1 $43 #
body $-1 $44 $-1 $45 #
body $-1 $46 $-1 $47 #
body $-1 $48 $-1 $49 #
body $-1 $50 $-1 $51 #
body $-1 $52 $-1 $53 #
lump $-1 $-1 $54 $0 #
transform $-1 1 0 0 0 1 0 0 0 1 48.169194616534931 22.738911687002901 7.2533845861657067 1 rotate no_reflect no_shear #
lump $-1 $-1 $55 $1 #
transform $-1 1 0 0 0 1 0 0 0 1 48.169194616534931 22.738911687002901 7.2533845861657067 1 rotate no_reflect no_shear #
lump $-1 $-1 $56 $2 #
transform $-1 1 0 0 0 1 0 0 0 1 48.169194616534931 22.738911687002901 7.2533845861657067 1 rotate no_reflect no_shear #
lump $-1 $-1 $57 $3 #
transform $-1 1 0 0 0 1 0 0 0 1 48.169194616534931 22.738911687002901 7.2533845861657067 1 rotate no_reflect no_shear #
lump $-1 $-1 $58 $4 #
transform $-1 1 0 0 0 1 0 0 0 1 48.169194616534931 22.738911687002901 7.2533845861657067 1 rotate no_reflect no_shear #
lump $-1 $-1 $59 $5 #
transform $-1 1 0 0 0 1 0 0 0 1 48.169194616534931 22.738911687002901 7.2533845861657067 1 rotate no_reflect no_shear #
lump $-1 $-1 $60 $6 #
transform $-1 1 0 0 0 1 0 0 0 1 48.169194616534931 22.738911687002901 7.2533845861657067 1 rotate no_reflect no_shear #
lump $-1 $-1 $61 $7 #
transform $-1 1 0 0 0 1 0 0 0 1 48.169194616534931 22.738911687002901 7.2533845861657067 1 rotate no_reflect no_shear #
lump $-1 $-1 $62 $8 #
transform $-1 1 0 0 0 1 0 0 0 1 48.169194616534931 22.738911687002901 7.2533845861657067 1 rotate no_reflect no_shear #
lump $-1 $-1 $63 $9 #
transform $-1 1 0 0 0 1 0 0 0 1 48.169194616534931 22.738911687002901 7.2533845861657067 1 rotate no_reflect no_shear #
lump $-1 $-1 $64 $10 #
transform $-1 1 0 0 0 1 0 0 0 1 48.169194616534931 22.738911687002901 7.2533845861657067 1 rotate no_reflect no_shear #
lump $-1 $-1 $65 $11 #
transform $-1 1 0 0 0 1 0 0 0 1 48.169194616534931 22.738911687002901 7.2533845861657067 1 rotate no_reflect no_shear #
lump $-1 $-1 $66 $12 #
transform $-1 1 0 0 0 1 0 0 0 1 48.169194616534931 22.738911687002901 7.2533845861657067 1 rotate no_reflect no_shear #
lump $-1 $-1 $67 $13 #
transform $-1 1 0 0 0 1 0 0 0 1 48.169194616534931 22.738911687002901 7.2533845861657067 1 rotate no_reflect no_shear #
lump $-1 $-1 $68 $14 #
transform $-1 1 0 0 0 1 0 0 0 1 48.169194616534931 22.738911687002901 7.2533845861657067 1 rotate no_reflect no_shear #
lump $-1 $-1 $69 $15 #
transform $-1 1 0 0 0 1 0 0 0 1 48.169194616534931 22.738911687002901 7.2533845861657067 1 rotate no_reflect no_shear #
lump $-1 $-1 $70 $16 #
transform $-1 1 0 0 0 1 0 0 0 1 48.169194616534931 22.738911687002901 7.2533845861657067 1 rotate no_reflect no_shear #
lump $-1 $-1 $71 $17 #
transform $-1 1 0 0 0 1 0 0 0 1 48.169194616534931 22.738911687002901 7.2533845861657067 1 rotate no_reflect no_shear #
shell $-1 $-1 $-1 $72 $-1 $18 #
shell $-1 $-1 $-1 $73 $-1 $20 #
shell $-1 $-1 $-1 $74 $-1 $22 #
shell $-1 $-1 $-1 $75 $-1 $24 #
shell $-1 $-1 $-1 $76 $-1 $26 #
shell $-1 $-1 $-1 $77 $-1 $28 #
shell $-1 $-1 $-1 $78 $-1 $30 #
shell $-1 $-1 $-1 $79 $-1 $32 #
shell $-1 $-1 $-1 $80 $-1 $34 #
shell $-1 $-1 $-1 $81 $-1 $36 #
shell $-1 $-1 $-1 $82 $-1 $38 #
shell $-1 $-1 $-1 $83 $-1 $40 #
shell $-1 $-1 $-1 $84 $-1 $42 #
shell $-1 $-1 $-1 $85 $-1 $44 #
shell $-1 $-1 $-1 $86 $-1 $46 #
shell $-1 $-1 $-1 $87 $-1 $48 #
shell $-1 $-1 $-1 $88 $-1 $50 #
shell $-1 $-1 $-1 $89 $-1 $52 #
face $-1 $90 $91 $54 $-1 $92 forward single #
face $-1 $93 $94 $55 $-1 $95 reversed single #
face $-1 $96 $97 $56 $-1 $98 reversed single #
face $-1 $99 $100 $57 $-1 $101 forward single #
face $-1 $102 $103 $58 $-1 $104 forward single #
face $-1 $105 $106 $59 $-1 $107 forward single #
face $-1 $108 $109 $60 $-1 $110 reversed single #
face $-1 $111 $112 $61 $-1 $113 forward single #
face $-1 $114 $115 $62 $-1 $116 forward single #
face $-1 $117 $118 $63 $-1 $119 forward single #
face $-1 $120 $121 $64 $-1 $122 reversed single #
face $-1 $123 $124 $65 $-1 $125 forward single #
face $-1 $126 $127 $66 $-1 $128 forward single #
face $-1 $129 $130 $67 $-1 $131 forward single #
face $-1 $132 $133 $68 $-1 $134 reversed single #
face $-1 $135 $136 $69 $-1 $137 forward single #
face $-1 $138 $139 $70 $-1 $140 forward single #
face $-1 $141 $142 $71 $-1 $143 forward single #
face $-1 $144 $145 $54 $-1 $146 reversed single #
loop $-1 $-1 $147 $72 #
plane-surface $-1 0 0 7.2533845861657067 0 0 1 1 0 0 forward_v I I I I #
face $-1 $148 $149 $55 $-1 $150 reversed single #
loop $-1 $-1 $151 $73 #
plane-surface $-1 0 -18.716142138190541 4.2533845861657067 0 0 1 1 0 0 forward_v I I I I #
face $-1 $152 $153 $56 $-1 $154 reversed single #
loop $-1 $-1 $155 $74 #
plane-surface $-1 -110.09431831383344 14.740532542516977 74.954379595897493 0 1 0 -0.64278761758704617 0 0.76604443648966558 forward_v I I I I #
face $-1 $156 $157 $57 $-1 $158 forward single #
loop $-1 $159 $160 $75 #
cone-surface $-1 -43.959547017010138 16.34020837141416 3.5180486959850397 0.64278761758704617 0 -0.76604443648966558 0.38302221824483279 0 0.32139380879352308 1 I I 0 1 0.5 forward I I I I #
face $-1 $161 $162 $58 $-1 $163 forward single #
loop $-1 $164 $165 $76 #
cone-surface $-1 -43.959547017010138 18.739722114759939 3.5180486959850397 0.64278761758704617 0 -0.76604443648966558 0.38302221824483279 0 0.32139380879352308 1 I I 0 1 0.5 forward I I I I #
face $-1 $166 $167 $59 $-1 $168 forward single #
loop $-1 $169 $170 $77 #
cone-surface $-1 -43.959547017010138 21.139235858105717 3.5180486959850397 0.64278761758704617 0 -0.76604443648966558 0.38302221824483279 0 0.32139380879352308 1 I I 0 1 0.5 forward I I I I #
face $-1 $171 $172 $60 $-1 $173 reversed single #
loop $-1 $-1 $174 $78 #
plane-surface $-1 31.565344086375227 -8.50155658334387 135.40496782052793 0 -1 0 -0.61566148304635926 0 -0.78801074757464917 forward_v I I I I #
face $-1 $175 $176 $61 $-1 $177 forward single #
loop $-1 $178 $179 $79 #
cone-surface $-1 43.252453980397242 -13.45500938817132 3.2183543685157887 -0.61566148304635926 0 -0.78801074757464917 0.39400537378732459 0 -0.30783074152317963 1 I I 0 1 0.5 forward I I I I #
face $-1 $180 $181 $62 $-1 $182 forward single #
loop $-1 $183 $184 $80 #
cone-surface $-1 43.252453980397242 -11.597464586361026 3.2183543685157887 -0.61566148304635926 0 -0.78801074757464917 0.39400537378732459 0 -0.30783074152317963 1 I I 0 1 0.5 forward I I I I #
face $-1 $185 $186 $63 $-1 $187 forward single #
loop $-1 $188 $189 $81 #
cone-surface $-1 43.252453980397242 -9.7399197845507324 3.2183543685157887 -0.61566148304635926 0 -0.78801074757464917 0.39400537378732459 0 -0.30783074152317963 1 I I 0 1 0.5 forward I I I I #
face $-1 $190 $191 $64 $-1 $192 reversed single #
loop $-1 $-1 $193 $82 #
plane-surface $-1 31.565344086375227 7.1186775518295153 135.40496782052793 0 -1 0 -0.61566148304635926 0 -0.78801074757464917 forward_v I I I I #
face $-1 $194 $195 $65 $-1 $196 forward single #
loop $-1 $197 $198 $83 #
cone-surface $-1 43.252453980397242 2.1652247470020676 3.2183543685157887 -0.61566148304635926 0 -0.78801074757464917 0.39400537378732459 0 -0.30783074152317963 1 I I 0 1 0.5 forward I I I I #
face $-1 $199 $200 $66 $-1 $201 forward single #
loop $-1 $202 $203 $84 #
cone-surface $-1 43.252453980397242 4.0227695488123594 3.2183543685157887 -0.61566148304635926 0 -0.78801074757464917 0.39400537378732459 0 -0.30783074152317963 1 I I 0 1 0.5 forward I I I I #
face $-1 $204 $205 $67 $-1 $206 forward single #
loop $-1 $207 $208 $85 #
cone-surface $-1 43.252453980397242 5.8803143506226512 3.2183543685157887 -0.61566148304635926 0 -0.78801074757464917 0.39400537378732459 0 -0.30783074152317963 1 I I 0 1 0.5 forward I I I I #
face $-1 $209 $210 $68 $-1 $211 reversed single #
loop $-1 $-1 $212 $86 #
plane-surface $-1 -27.746491503153976 19.643003683985743 59.489281700839015 0.61566148304635926 0 0.78801074757464917 0.78801074757464917 0 -0.61566148304635926 forward_v I I I I #
face $-1 $213 $214 $69 $-1 $215 forward single #
loop $-1 $216 $217 $87 #
cone-surface $-1 43.252453980397242 17.785458882175451 3.2183543685157887 -0.61566148304635926 0 -0.78801074757464917 0.39400537378732459 0 -0.30783074152317963 1 I I 0 1 0.5 forward I I I I #
face $-1 $218 $219 $70 $-1 $220 forward single #
loop $-1 $221 $222 $88 #
cone-surface $-1 43.252453980397242 19.643003683985743 3.2183543685157887 -0.61566148304635926 0 -0.78801074757464917 0.39400537378732459 0 -0.30783074152317963 1 I I 0 1 0.5 forward I I I I #
face $-1 $223 $224 $71 $-1 $225 forward single #
loop $-1 $226 $227 $89 #
cone-surface $-1 43.252453980397242 21.500548485796035 3.2183543685157887 -0.61566148304635926 0 -0.78801074757464917 0.39400537378732459 0 -0.30783074152317963 1 I I 0 1 0.5 forward I I I I #
face $-1 $228 $229 $54 $-1 $230 reversed single #
loop $-1 $-1 $231 $90 #
plane-surface $-1 0 0 -7.2533845861657067 0 0 1 1 0 0 forward_v I I I I #
coedge $-1 $232 $233 $234 $235 forward $91 $-1 #
face $-1 $236 $237 $55 $-1 $238 reversed single #
loop $-1 $-1 $239 $93 #
plane-surface $-1 0 -14.693372589378182 5.7533845861657067 0 -1 0 0 0 -1 forward_v I I I I #
coedge $-1 $240 $241 $242 $243 reversed $94 $-1 #
face $-1 $244 $245 $56 $-1 $246 forward single #
loop $-1 $-1 $247 $96 #
plane-surface $-1 -48.169194616534924 18.739722114759939 1.1548925035284299 -0.64278761758704617 0 0.76604443648966558 0.76604443648966558 0 0.64278761758704617 forward_v I I I I #
coedge $-1 $248 $249 $250 $251 reversed $97 $-1 #
face $-1 $-1 $252 $57 $-1 $253 forward single #
loop $-1 $254 $255 $99 #
cone-surface $-1 -43.223152361420802 16.34020837141416 2.6404477380005904 0.64278761758704617 0 -0.76604443648966558 0.1915111091224164 0 0.16069690439676154 1 I I -0.70710678118654746 0.70710678118654746 0.25 forward I I I I #
loop $-1 $-1 $256 $75 #
coedge $-1 $160 $160 $257 $258 reversed $100 $-1 #
face $-1 $-1 $259 $58 $-1 $260 forward single #
loop $-1 $261 $262 $102 #
cone-surface $-1 -43.223152361420802 18.739722114759939 2.6404477380005904 0.64278761758704617 0 -0.76604443648966558 0.1915111091224164 0 0.16069690439676154 1 I I -0.70710678118654746 0.70710678118654746 0.25 forward I I I I #
loop $-1 $-1 $263 $76 #
coedge $-1 $165 $165 $264 $265 reversed $103 $-1 #
face $-1 $-1 $266 $59 $-1 $267 forward single #
loop $-1 $268 $269 $105 #
cone-surface $-1 -43.223152361420802 21.139235858105717 2.6404477380005904 0.64278761758704617 0 -0.76604443648966558 0.1915111091224164 0 0.16069690439676154 1 I I -0.70710678118654746 0.70710678118654746 0.25 forward I I I I #
loop $-1 $-1 $270 $77 #
coedge $-1 $170 $170 $271 $272 reversed $106 $-1 #
face $-1 $273 $274 $60 $-1 $275 forward single #
loop $-1 $-1 $276 $108 #
plane-surface $-1 -27.746491503153976 -11.597464586361026 59.489281700839015 0.61566148304635926 0 0.78801074757464917 0.78801074757464917 0 -0.61566148304635926 forward_v I I I I #
coedge $-1 $277 $278 $279 $280 reversed $109 $-1 #
face $-1 $-1 $281 $61 $-1 $282 forward single #
loop $-1 $283 $284 $111 #
cone-surface $-1 42.710192002448103 -13.45500938817132 2.5242907014001492 -0.61566148304635926 0 -0.78801074757464917 0.19700268689366229 0 -0.15391537076158981 1 I I -0.70710678118654746 0.70710678118654746 0.25 forward I I I I #
loop $-1 $-1 $285 $79 #
coedge $-1 $179 $179 $286 $287 reversed $112 $-1 #
face $-1 $-1 $288 $62 $-1 $289 forward single #
loop $-1 $290 $291 $114 #
cone-surface $-1 42.710192002448103 -11.597464586361026 2.5242907014001492 -0.61566148304635926 0 -0.78801074757464917 0.19700268689366229 0 -0.15391537076158981 1 I I -0.70710678118654746 0.70710678118654746 0.25 forward I I I I #
loop $-1 $-1 $292 $80 #
coedge $-1 $184 $184 $293 $294 reversed $115 $-1 #
face $-1 $-1 $295 $63 $-1 $296 forward single #
loop $-1 $297 $298 $117 #
cone-surface $-1 42.710192002448103 -9.7399197845507324 2.5242907014001492 -0.61566148304635926 0 -0.78801074757464917 0.19700268689366229 0 -0.15391537076158981 1 I I -0.70710678118654746 0.70710678118654746 0.25 forward I I I I #
loop $-1 $-1 $299 $81 #
coedge $-1 $189 $189 $300 $301 reversed $118 $-1 #
face $-1 $302 $303 $64 $-1 $304 reversed single #
loop $-1 $-1 $305 $120 #
plane-surface $-1 -27.746491503153976 4.0227695488123594 59.489281700839015 0.61566148304635926 0 0.78801074757464917 0.78801074757464917 0 -0.61566148304635926 forward_v I I I I #
coedge $-1 $306 $307 $308 $309 reversed $121 $-1 #
face $-1 $-1 $310 $65 $-1 $311 forward single #
loop $-1 $312 $313 $123 #
cone-surface $-1 42.710192002448103 2.1652247470020676 2.5242907014001492 -0.61566148304635926 0 -0.78801074757464917 0.19700268689366229 0 -0.15391537076158981 1 I I -0.70710678118654746 0.70710678118654746 0.25 forward I I I I #
loop $-1 $-1 $314 $83 #
coedge $-1 $198 $198 $315 $316 reversed $124 $-1 #
face $-1 $-1 $317 $66 $-1 $318 forward single #
loop $-1 $319 $320 $126 #
cone-surface $-1 42.710192002448103 4.0227695488123594 2.5242907014001492 -0.61566148304635926 0 -0.78801074757464917 0.19700268689366229 0 -0.15391537076158981 1 I I -0.70710678118654746 0.70710678118654746 0.25 forward I I I I #
loop $-1 $-1 $321 $84 #
coedge $-1 $203 $203 $322 $323 reversed $127 $-1 #
face $-1 $-1 $324 $67 $-1 $325 forward single #
loop $-1 $326 $327 $129 #
cone-surface $-1 42.710192002448103 5.8803143506226512 2.5242907014001492 -0.61566148304635926 0 -0.78801074757464917 0.19700268689366229 0 -0.15391537076158981 1 I I -0.70710678118654746 0.70710678118654746 0.25 forward I I I I #
loop $-1 $-1 $328 $85 #
coedge $-1 $208 $208 $329 $330 reversed $130 $-1 #
face $-1 $331 $332 $68 $-1 $333 reversed single #
loop $-1 $-1 $334 $132 #
plane-surface $-1 31.565344086375227 16.547095680968589 135.40496782052793 0 1 0 0.61566148304635926 0 0.78801074757464917 forward_v I I I I #
coedge $-1 $335 $336 $337 $338 reversed $133 $-1 #
face $-1 $-1 $339 $69 $-1 $340 forward single #
loop $-1 $341 $342 $135 #
cone-surface $-1 42.710192002448103 17.785458882175451 2.5242907014001492 -0.61566148304635926 0 -0.78801074757464917 0.19700268689366229 0 -0.15391537076158981 1 I I -0.70710678118654746 0.70710678118654746 0.25 forward I I I I #
loop $-1 $-1 $343 $87 #
coedge $-1 $217 $217 $344 $345 reversed $136 $-1 #
face $-1 $-1 $346 $70 $-1 $347 forward single #
loop $-1 $348 $349 $138 #
cone-surface $-1 42.710192002448103 19.643003683985743 2.5242907014001492 -0.61566148304635926 0 -0.78801074757464917 0.19700268689366229 0 -0.15391537076158981 1 I I -0.70710678118654746 0.70710678118654746 0.25 forward I I I I #
loop $-1 $-1 $350 $88 #
coedge $-1 $222 $222 $351 $352 reversed $139 $-1 #
face $-1 $-1 $353 $71 $-1 $354 forward single #
loop $-1 $355 $356 $141 #
cone-surface $-1 42.710192002448103 21.500548485796035 2.5242907014001492 -0.61566148304635926 0 -0.78801074757464917 0.19700268689366229 0 -0.15391537076158981 1 I I -0.70710678118654746 0.70710678118654746 0.25 forward I I I I #
loop $-1 $-1 $357 $89 #
coedge $-1 $227 $227 $358 $359 reversed $142 $-1 #
face $-1 $360 $361 $54 $-1 $362 reversed single #
loop $-1 $-1 $363 $144 #
plane-surface $-1 0 -22.738911687002901 0 0 1 0 0 0 1 forward_v I I I I #
coedge $-1 $364 $365 $366 $367 forward $145 $-1 #
coedge $-1 $368 $147 $369 $370 forward $91 $-1 #
coedge $-1 $147 $368 $371 $372 forward $91 $-1 #
coedge $-1 $373 $374 $147 $235 reversed $375 $-1 #
edge $-1 $376 -22.738911687002901 $377 22.738911687002901 $234 $378 forward 7 unknown #
face $-1 $379 $380 $55 $-1 $381 reversed single #
loop $-1 $-1 $382 $148 #
plane-surface $-1 -48.169194616534931 0 0 1 0 0 0 0 -1 forward_v I I I I #
coedge $-1 $383 $384 $241 $385 reversed $149 $-1 #
coedge $-1 $386 $151 $387 $388 reversed $94 $-1 #
coedge $-1 $151 $386 $239 $385 forward $94 $-1 #
coedge $-1 $389 $390 $151 $243 forward $391 $-1 #
edge $-1 $392 -13.38084061790763 $393 -5.3353015202829113 $242 $394 forward 7 unknown #
face $-1 $395 $396 $56 $-1 $397 reversed single #
loop $-1 $-1 $250 $152 #
plane-surface $-1 0 0 7.2533845861657067 0 0 1 1 0 0 forward_v I I I I #
coedge $-1 $398 $399 $400 $401 reversed $153 $-1 #
coedge $-1 $249 $155 $402 $403 reversed $97 $-1 #
coedge $-1 $155 $248 $398 $404 reversed $97 $-1 #
coedge $-1 $400 $405 $155 $251 forward $245 $-1 #
edge $-1 $406 6.8779645403817895 $407 14.145864237046254 $250 $408 forward 7 unknown #
loop $-1 $-1 $257 $156 #
plane-surface $-1 -48.169194616534924 18.739722114759939 1.1548925035284299 -0.64278761758704617 0 0.76604443648966558 0.76604443648966558 0 0.64278761758704617 forward_v I I I I #
loop $-1 $-1 $409 $99 #
coedge $-1 $255 $255 $256 $410 reversed $157 $-1 #
coedge $-1 $256 $256 $255 $410 forward $159 $-1 #
coedge $-1 $257 $257 $160 $258 forward $252 $-1 #
edge $-1 $411 0 $411 6.2831853071796004 $257 $412 forward 7 unknown #
loop $-1 $-1 $264 $161 #
plane-surface $-1 -48.169194616534924 18.739722114759939 1.1548925035284299 -0.64278761758704617 0 0.76604443648966558 0.76604443648966558 0 0.64278761758704617 forward_v I I I I #
loop $-1 $-1 $413 $102 #
coedge $-1 $262 $262 $263 $414 reversed $162 $-1 #
coedge $-1 $263 $263 $262 $414 forward $164 $-1 #
coedge $-1 $264 $264 $165 $265 forward $259 $-1 #
edge $-1 $415 0 $415 6.2831853071796004 $264 $416 forward 7 unknown #
loop $-1 $-1 $271 $166 #
plane-surface $-1 -48.169194616534924 18.739722114759939 1.1548925035284299 -0.64278761758704617 0 0.76604443648966558 0.76604443648966558 0 0.64278761758704617 forward_v I I I I #
loop $-1 $-1 $417 $105 #
coedge $-1 $269 $269 $270 $418 reversed $167 $-1 #
coedge $-1 $270 $270 $269 $418 forward $169 $-1 #
coedge $-1 $271 $271 $170 $272 forward $266 $-1 #
edge $-1 $419 0 $419 6.2831853071796004 $271 $420 forward 7 unknown #
face $-1 $421 $422 $60 $-1 $423 forward single #
loop $-1 $-1 $424 $171 #
plane-surface $-1 0 -14.693372589378182 5.7533845861657067 0 -1 0 0 0 -1 forward_v I I I I #
coedge $-1 $425 $426 $427 $428 reversed $172 $-1 #
coedge $-1 $278 $174 $429 $430 reversed $109 $-1 #
coedge $-1 $174 $277 $425 $431 reversed $109 $-1 #
coedge $-1 $427 $432 $174 $280 forward $422 $-1 #
edge $-1 $433 -32.386522573347321 $434 -23.32973451544709 $279 $435 forward 7 unknown #
loop $-1 $-1 $286 $175 #
plane-surface $-1 -27.746491503153976 -11.597464586361026 59.489281700839015 0.61566148304635926 0 0.78801074757464917 0.78801074757464917 0 -0.61566148304635926 forward_v I I I I #
loop $-1 $-1 $436 $111 #
coedge $-1 $284 $284 $285 $437 reversed $176 $-1 #
coedge $-1 $285 $285 $284 $437 forward $178 $-1 #
coedge $-1 $286 $286 $179 $287 forward $281 $-1 #
edge $-1 $438 0 $438 6.2831853071796004 $286 $439 forward 7 unknown #
loop $-1 $-1 $293 $180 #
plane-surface $-1 -27.746491503153976 -11.597464586361026 59.489281700839015 0.61566148304635926 0 0.78801074757464917 0.78801074757464917 0 -0.61566148304635926 forward_v I I I I #
loop $-1 $-1 $440 $114 #
coedge $-1 $291 $291 $292 $441 reversed $181 $-1 #
coedge $-1 $292 $292 $291 $441 forward $183 $-1 #
coedge $-1 $293 $293 $184 $294 forward $288 $-1 #
edge $-1 $442 0 $442 6.2831853071796004 $293 $443 forward 7 unknown #
loop $-1 $-1 $300 $185 #
plane-surface $-1 -27.746491503153976 -11.597464586361026 59.489281700839015 0.61566148304635926 0 0.78801074757464917 0.78801074757464917 0 -0.61566148304635926 forward_v I I I I #
loop $-1 $-1 $444 $117 #
coedge $-1 $298 $298 $299 $445 reversed $186 $-1 #
coedge $-1 $299 $299 $298 $445 forward $188 $-1 #
coedge $-1 $300 $300 $189 $301 forward $295 $-1 #
edge $-1 $446 0 $446 6.2831853071796004 $300 $447 forward 7 unknown #
face $-1 $448 $449 $64 $-1 $450 reversed single #
loop $-1 $-1 $451 $190 #
plane-surface $-1 31.565344086375227 0.92686154579520341 135.40496782052793 0 1 0 0.61566148304635926 0 0.78801074757464917 forward_v I I I I #
coedge $-1 $452 $453 $454 $455 reversed $191 $-1 #
coedge $-1 $307 $193 $456 $457 reversed $121 $-1 #
coedge $-1 $193 $306 $452 $458 reversed $121 $-1 #
coedge $-1 $454 $459 $193 $309 forward $460 $-1 #
edge $-1 $461 -32.386522573347321 $462 -23.32973451544709 $308 $463 forward 7 unknown #
loop $-1 $-1 $315 $194 #
plane-surface $-1 -27.746491503153976 4.0227695488123594 59.489281700839015 0.61566148304635926 0 0.78801074757464917 0.78801074757464917 0 -0.61566148304635926 forward_v I I I I #
loop $-1 $-1 $464 $123 #
coedge $-1 $313 $313 $314 $465 reversed $195 $-1 #
coedge $-1 $314 $314 $313 $465 forward $197 $-1 #
coedge $-1 $315 $315 $198 $316 forward $310 $-1 #
edge $-1 $466 0 $466 6.2831853071796004 $315 $467 forward 7 unknown #
loop $-1 $-1 $322 $199 #
plane-surface $-1 -27.746491503153976 4.0227695488123594 59.489281700839015 0.61566148304635926 0 0.78801074757464917 0.78801074757464917 0 -0.61566148304635926 forward_v I I I I #
loop $-1 $-1 $468 $126 #
coedge $-1 $320 $320 $321 $469 reversed $200 $-1 #
coedge $-1 $321 $321 $320 $469 forward $202 $-1 #
coedge $-1 $322 $322 $203 $323 forward $317 $-1 #
edge $-1 $470 0 $470 6.2831853071796004 $322 $471 forward 7 unknown #
loop $-1 $-1 $329 $204 #
plane-surface $-1 -27.746491503153976 4.0227695488123594 59.489281700839015 0.61566148304635926 0 0.78801074757464917 0.78801074757464917 0 -0.61566148304635926 forward_v I I I I #
loop $-1 $-1 $472 $129 #
coedge $-1 $327 $327 $328 $473 reversed $205 $-1 #
coedge $-1 $328 $328 $327 $473 forward $207 $-1 #
coedge $-1 $329 $329 $208 $330 forward $324 $-1 #
edge $-1 $474 0 $474 6.2831853071796004 $329 $475 forward 7 unknown #
face $-1 $476 $477 $68 $-1 $478 forward single #
loop $-1 $-1 $479 $209 #
plane-surface $-1 48.169194616534931 0 0 -1 0 0 0 0 1 forward_v I I I I #
coedge $-1 $480 $481 $482 $483 reversed $210 $-1 #
coedge $-1 $484 $212 $485 $486 reversed $133 $-1 #
coedge $-1 $212 $484 $480 $487 forward $133 $-1 #
coedge $-1 $482 $488 $212 $338 forward $477 $-1 #
edge $-1 $489 -12.917409845010026 $490 -6.7255938389757173 $337 $491 forward 7 unknown #
loop $-1 $-1 $344 $213 #
plane-surface $-1 -27.746491503153976 19.643003683985743 59.489281700839015 0.61566148304635926 0 0.78801074757464917 0.78801074757464917 0 -0.61566148304635926 forward_v I I I I #
loop $-1 $-1 $492 $135 #
coedge $-1 $342 $342 $343 $493 reversed $214 $-1 #
coedge $-1 $343 $343 $342 $493 forward $216 $-1 #
coedge $-1 $344 $344 $217 $345 forward $339 $-1 #
edge $-1 $494 0 $494 6.2831853071796004 $344 $495 forward 7 unknown #
loop $-1 $-1 $351 $218 #
plane-surface $-1 -27.746491503153976 19.643003683985743 59.489281700839015 0.61566148304635926 0 0.78801074757464917 0.78801074757464917 0 -0.61566148304635926 forward_v I I I I #
loop $-1 $-1 $496 $138 #
coedge $-1 $349 $349 $350 $497 reversed $219 $-1 #
coedge $-1 $350 $350 $349 $497 forward $221 $-1 #
coedge $-1 $351 $351 $222 $352 forward $346 $-1 #
edge $-1 $498 0 $498 6.2831853071796004 $351 $499 forward 7 unknown #
loop $-1 $-1 $358 $223 #
plane-surface $-1 -27.746491503153976 19.643003683985743 59.489281700839015 0.61566148304635926 0 0.78801074757464917 0.78801074757464917 0 -0.61566148304635926 forward_v I I I I #
loop $-1 $-1 $500 $141 #
coedge $-1 $356 $356 $357 $501 reversed $224 $-1 #
coedge $-1 $357 $357 $356 $501 forward $226 $-1 #
coedge $-1 $358 $358 $227 $359 forward $353 $-1 #
edge $-1 $502 0 $502 6.2831853071796004 $358 $503 forward 7 unknown #
face $-1 $504 $505 $54 $-1 $506 reversed single #
loop $-1 $-1 $507 $228 #
plane-surface $-1 -48.169194616534931 0 0 1 0 0 0 0 -1 forward_v I I I I #
coedge $-1 $508 $371 $509 $510 forward $229 $-1 #
coedge $-1 $511 $231 $508 $512 forward $145 $-1 #
coedge $-1 $231 $511 $513 $514 forward $145 $-1 #
coedge $-1 $374 $373 $231 $367 reversed $375 $-1 #
edge $-1 $515 -22.738911687002901 $516 22.738911687002901 $366 $517 forward 7 unknown #
coedge $-1 $233 $232 $518 $519 forward $91 $-1 #
coedge $-1 $520 $521 $232 $370 reversed $505 $-1 #
edge $-1 $377 -48.169194616534931 $522 48.169194616534931 $369 $523 forward 7 unknown #
coedge $-1 $363 $524 $233 $372 reversed $229 $-1 #
edge $-1 $525 -48.169194616534931 $376 48.169194616534931 $371 $526 forward 7 unknown #
coedge $-1 $366 $234 $524 $527 forward $375 $-1 #
coedge $-1 $234 $366 $520 $528 reversed $375 $-1 #
loop $-1 $-1 $373 $504 #
vertex $-1 $235 $529 #
vertex $-1 $235 $530 #
straight-curve $-1 48.169194616534931 0 7.2533845861657067 0 1 0 I I #
face $-1 $531 $532 $55 $-1 $533 forward single #
loop $-1 $-1 $387 $236 #
plane-surface $-1 0 -22.738911687002901 0 0 1 0 0 0 1 forward_v I I I I #
coedge $-1 $534 $535 $383 $536 forward $237 $-1 #
coedge $-1 $537 $239 $382 $536 reversed $149 $-1 #
coedge $-1 $239 $537 $389 $538 reversed $149 $-1 #
edge $-1 $539 -48.169194616534931 $393 48.169194616534931 $239 $540 forward 7 unknown #
coedge $-1 $241 $240 $534 $541 reversed $94 $-1 #
coedge $-1 $542 $543 $240 $388 forward $380 $-1 #
edge $-1 $544 -48.169194616534931 $392 48.169194616534931 $387 $545 forward 7 unknown #
coedge $-1 $546 $242 $384 $538 forward $391 $-1 #
coedge $-1 $242 $546 $542 $547 forward $391 $-1 #
loop $-1 $-1 $389 $531 #
vertex $-1 $388 $548 #
vertex $-1 $243 $549 #
straight-curve $-1 48.169194616534931 -9.3580710690952706 4.2533845861657067 0 1 0 I I #
face $-1 $-1 $550 $56 $-1 $551 reversed single #
loop $-1 $-1 $552 $244 #
plane-surface $-1 0 22.738911687002901 0 0 -1 0 0 0 -1 forward_v I I I I #
coedge $-1 $553 $247 $249 $404 forward $153 $-1 #
coedge $-1 $247 $553 $552 $554 reversed $153 $-1 #
coedge $-1 $555 $250 $247 $401 forward $245 $-1 #
edge $-1 $407 5.3706714851370077 $556 13.369050629622931 $400 $557 forward 7 unknown #
coedge $-1 $558 $559 $248 $403 forward $550 $-1 #
edge $-1 $560 -36.322297294420324 $406 -30.223805211783038 $402 $561 forward 7 unknown #
edge $-1 $407 -9.4875693242666141 $560 9.2967162063127932e-015 $249 $562 forward 7 unknown #
coedge $-1 $250 $555 $558 $563 forward $245 $-1 #
vertex $-1 $403 $564 #
vertex $-1 $251 $565 #
straight-curve $-1 -55.04715915691672 14.740532542516977 7.2533845861657085 1 0 0 I I #
coedge $-1 $409 $409 $-1 $566 reversed $254 $-1 #
edge $-1 $567 0 $567 6.2831853071796004 $255 $568 forward 7 unknown #
vertex $-1 $258 $569 #
ellipse-curve $-1 -44.535244768202702 16.34020837141416 4.204138544847063 -0.64278761758704617 0 0.76604443648966558 0.38302221824483279 0 0.32139380879352308 1 I I #
coedge $-1 $413 $413 $-1 $570 reversed $261 $-1 #
edge $-1 $571 0 $571 6.2831853071796004 $262 $572 forward 7 unknown #
vertex $-1 $265 $573 #
ellipse-curve $-1 -44.535244768202702 18.739722114759939 4.204138544847063 -0.64278761758704617 0 0.76604443648966558 0.38302221824483279 0 0.32139380879352308 1 I I #
coedge $-1 $417 $417 $-1 $574 reversed $268 $-1 #
edge $-1 $575 0 $575 6.2831853071796004 $269 $576 forward 7 unknown #
vertex $-1 $272 $577 #
ellipse-curve $-1 -44.535244768202702 21.139235858105717 4.204138544847063 -0.64278761758704617 0 0.76604443648966558 0.38302221824483279 0 0.32139380879352308 1 I I #
face $-1 $-1 $578 $60 $-1 $579 reversed single #
loop $-1 $-1 $427 $273 #
plane-surface $-1 0 0 7.2533845861657067 0 0 1 1 0 0 forward_v I I I I #
coedge $-1 $580 $581 $426 $582 reversed $274 $-1 #
coedge $-1 $583 $276 $278 $431 forward $172 $-1 #
coedge $-1 $276 $583 $424 $582 forward $172 $-1 #
coedge $-1 $584 $279 $276 $428 forward $422 $-1 #
edge $-1 $434 2.702824290163357 $585 8.8946402961976681 $427 $586 forward 7 unknown #
coedge $-1 $587 $588 $277 $430 forward $578 $-1 #
edge $-1 $589 -67.525037798954145 $433 -60.449099324098256 $429 $590 forward 7 unknown #
edge $-1 $434 84.845160129564164 $589 96.338389233069847 $278 $591 forward 7 unknown #
coedge $-1 $279 $584 $587 $592 forward $422 $-1 #
vertex $-1 $430 $593 #
vertex $-1 $280 $594 #
straight-curve $-1 15.782672043187613 -8.50155658334387 7.2533845861657085 -1 0 0 I I #
coedge $-1 $436 $436 $-1 $595 reversed $283 $-1 #
edge $-1 $596 0 $596 6.2831853071796004 $284 $597 forward 7 unknown #
vertex $-1 $287 $598 #
ellipse-curve $-1 43.640800587584799 -13.45500938817132 3.7154153487377801 0.61566148304635926 0 0.78801074757464917 0.39400537378732459 0 -0.30783074152317963 1 I I #
coedge $-1 $440 $440 $-1 $599 reversed $290 $-1 #
edge $-1 $600 0 $600 6.2831853071796004 $291 $601 forward 7 unknown #
vertex $-1 $294 $602 #
ellipse-curve $-1 43.640800587584799 -11.597464586361026 3.7154153487377801 0.61566148304635926 0 0.78801074757464917 0.39400537378732459 0 -0.30783074152317963 1 I I #
coedge $-1 $444 $444 $-1 $603 reversed $297 $-1 #
edge $-1 $604 0 $604 6.2831853071796004 $298 $605 forward 7 unknown #
vertex $-1 $301 $606 #
ellipse-curve $-1 43.640800587584799 -9.7399197845507324 3.7154153487377801 0.61566148304635926 0 0.78801074757464917 0.39400537378732459 0 -0.30783074152317963 1 I I #
face $-1 $-1 $460 $64 $-1 $607 forward single #
loop $-1 $-1 $608 $302 #
plane-surface $-1 48.169194616534931 0 0 -1 0 0 0 0 1 forward_v I I I I #
coedge $-1 $609 $610 $611 $612 reversed $303 $-1 #
coedge $-1 $613 $305 $307 $458 forward $191 $-1 #
coedge $-1 $305 $613 $609 $614 forward $191 $-1 #
coedge $-1 $611 $308 $305 $455 forward $460 $-1 #
edge $-1 $462 -5.1072927774233357 $615 1.0845232286109763 $454 $616 forward 7 unknown #
coedge $-1 $617 $618 $306 $457 forward $449 $-1 #
edge $-1 $619 -67.525037798954145 $461 -60.449099324098256 $456 $620 forward 7 unknown #
edge $-1 $462 84.845160129564164 $619 96.338389233069847 $307 $621 forward 7 unknown #
coedge $-1 $308 $611 $617 $622 forward $460 $-1 #
loop $-1 $-1 $611 $448 #
vertex $-1 $457 $623 #
vertex $-1 $309 $624 #
straight-curve $-1 15.782672043187613 7.1186775518295153 7.2533845861657085 -1 0 0 I I #
coedge $-1 $464 $464 $-1 $625 reversed $312 $-1 #
edge $-1 $626 0 $626 6.2831853071796004 $313 $627 forward 7 unknown #
vertex $-1 $316 $628 #
ellipse-curve $-1 43.640800587584799 2.1652247470020676 3.7154153487377801 0.61566148304635926 0 0.78801074757464917 0.39400537378732459 0 -0.30783074152317963 1 I I #
coedge $-1 $468 $468 $-1 $629 reversed $319 $-1 #
edge $-1 $630 0 $630 6.2831853071796004 $320 $631 forward 7 unknown #
vertex $-1 $323 $632 #
ellipse-curve $-1 43.640800587584799 4.0227695488123594 3.7154153487377801 0.61566148304635926 0 0.78801074757464917 0.39400537378732459 0 -0.30783074152317963 1 I I #
coedge $-1 $472 $472 $-1 $633 reversed $326 $-1 #
edge $-1 $634 0 $634 6.2831853071796004 $327 $635 forward 7 unknown #
vertex $-1 $330 $636 #
ellipse-curve $-1 43.640800587584799 5.8803143506226512 3.7154153487377801 0.61566148304635926 0 0.78801074757464917 0.39400537378732459 0 -0.30783074152317963 1 I I #
face $-1 $-1 $637 $68 $-1 $638 reversed single #
loop $-1 $-1 $482 $331 #
plane-surface $-1 0 0 7.2533845861657067 0 0 1 1 0 0 forward_v I I I I #
coedge $-1 $639 $640 $481 $641 forward $332 $-1 #
coedge $-1 $481 $334 $336 $487 reversed $210 $-1 #
coedge $-1 $334 $480 $479 $641 reversed $210 $-1 #
coedge $-1 $642 $337 $334 $483 forward $477 $-1 #
edge $-1 $490 23.32973451544709 $643 32.386522573347321 $482 $644 forward 7 unknown #
coedge $-1 $336 $335 $639 $645 reversed $133 $-1 #
coedge $-1 $646 $647 $335 $486 forward $637 $-1 #
edge $-1 $648 -67.093492778432235 $489 -55.600263674926566 $485 $649 forward 7 unknown #
edge $-1 $650 -96.338389233069847 $490 -84.845160129564164 $480 $651 forward 7 unknown #
coedge $-1 $337 $642 $646 $652 forward $477 $-1 #
vertex $-1 $486 $653 #
vertex $-1 $338 $654 #
straight-curve $-1 39.112406558634703 9.8215018419928715 7.2533845861657014 0 -1 0 I I #
coedge $-1 $492 $492 $-1 $655 reversed $341 $-1 #
edge $-1 $656 0 $656 6.2831853071796004 $342 $657 forward 7 unknown #
vertex $-1 $345 $658 #
ellipse-curve $-1 43.640800587584799 17.785458882175451 3.7154153487377801 0.61566148304635926 0 0.78801074757464917 0.39400537378732459 0 -0.30783074152317963 1 I I #
coedge $-1 $496 $496 $-1 $659 reversed $348 $-1 #
edge $-1 $660 0 $660 6.2831853071796004 $349 $661 forward 7 unknown #
vertex $-1 $352 $662 #
ellipse-curve $-1 43.640800587584799 19.643003683985743 3.7154153487377801 0.61566148304635926 0 0.78801074757464917 0.39400537378732459 0 -0.30783074152317963 1 I I #
coedge $-1 $500 $500 $-1 $663 reversed $355 $-1 #
edge $-1 $664 0 $664 6.2831853071796004 $356 $665 forward 7 unknown #
vertex $-1 $359 $666 #
ellipse-curve $-1 43.640800587584799 21.500548485796035 3.7154153487377801 0.61566148304635926 0 0.78801074757464917 0.39400537378732459 0 -0.30783074152317963 1 I I #
face $-1 $-1 $375 $54 $-1 $667 reversed single #
loop $-1 $-1 $520 $360 #
plane-surface $-1 0 22.738911687002901 0 0 -1 0 0 0 -1 forward_v I I I I #
coedge $-1 $668 $518 $521 $669 forward $361 $-1 #
coedge $-1 $524 $363 $364 $512 reversed $229 $-1 #
coedge $-1 $518 $668 $363 $510 reversed $361 $-1 #
edge $-1 $525 -7.2533845861657067 $670 7.2533845861657067 $509 $671 forward 7 unknown #
coedge $-1 $365 $364 $668 $672 forward $145 $-1 #
edge $-1 $516 -48.169194616534931 $670 48.169194616534931 $508 $673 forward 7 unknown #
coedge $-1 $521 $520 $365 $514 reversed $505 $-1 #
edge $-1 $674 -48.169194616534931 $515 48.169194616534931 $513 $675 forward 7 unknown #
vertex $-1 $367 $676 #
vertex $-1 $527 $677 #
straight-curve $-1 48.169194616534931 0 -7.2533845861657067 0 -1 0 I I #
coedge $-1 $507 $509 $368 $519 reversed $361 $-1 #
edge $-1 $522 -22.738911687002901 $525 22.738911687002901 $518 $678 forward 7 unknown #
coedge $-1 $513 $369 $374 $528 forward $505 $-1 #
coedge $-1 $369 $513 $507 $669 reversed $505 $-1 #
vertex $-1 $370 $679 #
straight-curve $-1 0 22.738911687002901 7.2533845861657067 -1 0 0 I I #
coedge $-1 $371 $508 $373 $527 reversed $229 $-1 #
vertex $-1 $519 $680 #
straight-curve $-1 0 -22.738911687002901 7.2533845861657067 1 0 0 I I #
edge $-1 $376 -7.2533845861657067 $516 7.2533845861657067 $373 $681 forward 7 unknown #
edge $-1 $377 -7.2533845861657067 $515 7.2533845861657067 $374 $682 forward 7 unknown #
point $-1 48.169194616534931 -22.738911687002901 7.2533845861657067 #
point $-1 48.169194616534931 22.738911687002901 7.2533845861657067 #
face $-1 $-1 $391 $55 $-1 $683 reversed single #
loop $-1 $-1 $684 $379 #
plane-surface $-1 0 0 7.2533845861657067 0 0 1 1 0 0 forward_v I I I I #
coedge $-1 $685 $382 $386 $541 forward $237 $-1 #
coedge $-1 $382 $685 $686 $687 reversed $237 $-1 #
edge $-1 $688 -4.3766922930828533 $539 -1.3766922930828533 $382 $689 forward 7 unknown #
coedge $-1 $384 $383 $684 $690 reversed $149 $-1 #
edge $-1 $393 1.3766922930828533 $691 4.3766922930828533 $389 $692 forward 7 unknown #
vertex $-1 $541 $693 #
straight-curve $-1 0 -14.693372589378182 4.2533845861657067 1 0 0 I I #
edge $-1 $539 5.3353015202829113 $544 13.38084061790763 $534 $694 forward 7 unknown #
coedge $-1 $695 $387 $390 $547 reversed $380 $-1 #
coedge $-1 $387 $695 $685 $696 forward $380 $-1 #
vertex $-1 $388 $697 #
straight-curve $-1 0 -22.738911687002901 4.2533845861657067 1 0 0 I I #
coedge $-1 $390 $389 $698 $699 reversed $391 $-1 #
edge $-1 $700 -7.2533845861657067 $392 -4.2533845861657067 $390 $701 forward 7 unknown #
point $-1 48.169194616534931 -22.738911687002901 4.2533845861657067 #
point $-1 48.169194616534931 -14.693372589378182 4.2533845861657067 #
loop $-1 $-1 $402 $395 #
plane-surface $-1 -48.169194616534931 0 0 1 0 0 0 0 -1 forward_v I I I I #
coedge $-1 $702 $703 $399 $554 forward $396 $-1 #
coedge $-1 $399 $398 $559 $704 reversed $153 $-1 #
edge $-1 $556 8.5911271483695604 $705 18.078696472636182 $552 $706 forward 7 unknown #
coedge $-1 $405 $400 $703 $707 forward $245 $-1 #
vertex $-1 $707 $708 #
straight-curve $-1 -40.901294919870473 9.3698610573799694 7.2533845861657076 0 1 0 I I #
coedge $-1 $709 $402 $405 $563 reversed $550 $-1 #
coedge $-1 $402 $709 $553 $704 forward $550 $-1 #
vertex $-1 $403 $710 #
straight-curve $-1 -48.169194616534931 14.740532542516977 37.477189797948746 0 0 1 I I #
straight-curve $-1 -48.169194616534924 14.740532542516977 1.1548925035284299 -0.76604443648966558 0 -0.64278761758704617 I I #
edge $-1 $711 -22.738911687002901 $406 -14.740532542516977 $558 $712 forward 7 unknown #
point $-1 -48.169194616534931 14.740532542516977 7.2533845861657067 #
point $-1 -40.901294919870466 14.740532542516977 7.2533845861657067 #
edge $-1 $713 1 $713 0 $409 $-1 forward 7 unknown #
vertex $-1 $410 $714 #
ellipse-curve $-1 -43.38384926581756 16.34020837141416 2.8319588471230066 -0.64278761758704617 0 0.76604443648966558 0.38302221824483279 0 0.32139380879352308 1 I I #
point $-1 -44.152222549957877 16.34020837141416 4.5255323536405951 #
edge $-1 $715 1 $715 0 $413 $-1 forward 7 unknown #
vertex $-1 $414 $716 #
ellipse-curve $-1 -43.38384926581756 18.739722114759939 2.8319588471230066 -0.64278761758704617 0 0.76604443648966558 0.38302221824483279 0 0.32139380879352308 1 I I #
point $-1 -44.152222549957877 18.739722114759939 4.5255323536405951 #
edge $-1 $717 1 $717 0 $417 $-1 forward 7 unknown #
vertex $-1 $418 $718 #
ellipse-curve $-1 -43.38384926581756 21.139235858105717 2.8319588471230066 -0.64278761758704617 0 0.76604443648966558 0.38302221824483279 0 0.32139380879352308 1 I I #
point $-1 -44.152222549957877 21.139235858105717 4.5255323536405951 #
loop $-1 $-1 $429 $421 #
plane-surface $-1 48.169194616534931 0 0 -1 0 0 0 0 1 forward_v I I I I #
coedge $-1 $581 $424 $719 $720 reversed $274 $-1 #
coedge $-1 $424 $580 $584 $721 reversed $274 $-1 #
edge $-1 $722 -96.338389233069847 $585 -84.845160129564164 $424 $723 forward 7 unknown #
coedge $-1 $426 $425 $588 $724 reversed $172 $-1 #
coedge $-1 $432 $427 $581 $721 forward $422 $-1 #
vertex $-1 $721 $725 #
straight-curve $-1 39.112406558634703 -5.798732293180513 7.2533845861657014 0 -1 0 I I #
coedge $-1 $719 $429 $432 $592 reversed $578 $-1 #
coedge $-1 $429 $719 $583 $724 forward $578 $-1 #
vertex $-1 $430 $726 #
straight-curve $-1 48.169194616534931 -8.50155658334387 67.702483910263965 0 0 1 I I #
straight-curve $-1 -27.746491503153976 -8.50155658334387 59.489281700839015 0.78801074757464917 0 -0.61566148304635926 I I #
edge $-1 $727 -14.693372589378182 $433 -8.50155658334387 $587 $728 forward 7 unknown #
point $-1 48.169194616534931 -8.50155658334387 7.2533845861657067 #
point $-1 39.112406558634703 -8.50155658334387 7.2533845861657085 #
edge $-1 $729 1 $729 0 $436 $-1 forward 7 unknown #
vertex $-1 $437 $730 #
ellipse-curve $-1 42.864107373209691 -13.45500938817132 2.7212933882938115 0.61566148304635926 0 0.78801074757464917 0.39400537378732459 0 -0.30783074152317963 1 I I #
point $-1 44.034805961372115 -13.45500938817132 3.4075846072145866 #
edge $-1 $731 1 $731 0 $440 $-1 forward 7 unknown #
vertex $-1 $441 $732 #
ellipse-curve $-1 42.864107373209691 -11.597464586361026 2.7212933882938115 0.61566148304635926 0 0.78801074757464917 0.39400537378732459 0 -0.30783074152317963 1 I I #
point $-1 44.034805961372115 -11.597464586361026 3.4075846072145866 #
edge $-1 $733 1 $733 0 $444 $-1 forward 7 unknown #
vertex $-1 $445 $734 #
ellipse-curve $-1 42.864107373209691 -9.7399197845507324 2.7212933882938115 0.61566148304635926 0 0.78801074757464917 0.39400537378732459 0 -0.30783074152317963 1 I I #
point $-1 44.034805961372115 -9.7399197845507324 3.4075846072145866 #
plane-surface $-1 0 0 7.2533845861657067 0 0 1 1 0 0 forward_v I I I I #
coedge $-1 $618 $617 $610 $735 forward $449 $-1 #
coedge $-1 $610 $451 $453 $614 reversed $303 $-1 #
coedge $-1 $451 $609 $608 $735 reversed $303 $-1 #
coedge $-1 $459 $454 $451 $612 forward $460 $-1 #
edge $-1 $615 23.32973451544709 $736 32.386522573347321 $611 $737 forward 7 unknown #
coedge $-1 $453 $452 $618 $738 reversed $191 $-1 #
edge $-1 $739 -96.338389233069847 $615 -84.845160129564164 $609 $740 forward 7 unknown #
vertex $-1 $455 $741 #
straight-curve $-1 39.112406558634703 2.0113847744061797 7.2533845861657014 0 -1 0 I I #
coedge $-1 $608 $456 $459 $622 reversed $449 $-1 #
coedge $-1 $456 $608 $613 $738 forward $449 $-1 #
vertex $-1 $457 $742 #
straight-curve $-1 48.169194616534931 7.1186775518295153 67.702483910263965 0 0 1 I I #
straight-curve $-1 -27.746491503153976 7.1186775518295153 59.489281700839015 0.78801074757464917 0 -0.61566148304635926 I I #
edge $-1 $736 0.92686154579520341 $461 7.1186775518295153 $617 $743 forward 7 unknown #
point $-1 48.169194616534931 7.1186775518295153 7.2533845861657067 #
point $-1 39.112406558634703 7.1186775518295153 7.2533845861657085 #
edge $-1 $744 1 $744 0 $464 $-1 forward 7 unknown #
vertex $-1 $465 $745 #
ellipse-curve $-1 42.864107373209691 2.1652247470020676 2.7212933882938115 0.61566148304635926 0 0.78801074757464917 0.39400537378732459 0 -0.30783074152317963 1 I I #
point $-1 44.034805961372115 2.1652247470020676 3.4075846072145866 #
edge $-1 $746 1 $746 0 $468 $-1 forward 7 unknown #
vertex $-1 $469 $747 #
ellipse-curve $-1 42.864107373209691 4.0227695488123594 2.7212933882938115 0.61566148304635926 0 0.78801074757464917 0.39400537378732459 0 -0.30783074152317963 1 I I #
point $-1 44.034805961372115 4.0227695488123594 3.4075846072145866 #
edge $-1 $748 1 $748 0 $472 $-1 forward 7 unknown #
vertex $-1 $473 $749 #
ellipse-curve $-1 42.864107373209691 5.8803143506226512 2.7212933882938115 0.61566148304635926 0 0.78801074757464917 0.39400537378732459 0 -0.30783074152317963 1 I I #
point $-1 44.034805961372115 5.8803143506226512 3.4075846072145866 #
loop $-1 $-1 $485 $476 #
plane-surface $-1 0 22.738911687002901 0 0 -1 0 0 0 -1 forward_v I I I I #
coedge $-1 $750 $479 $484 $645 forward $332 $-1 #
coedge $-1 $479 $750 $642 $751 reversed $332 $-1 #
edge $-1 $643 60.449099324098256 $650 67.525037798954145 $479 $752 forward 7 unknown #
coedge $-1 $488 $482 $640 $751 forward $477 $-1 #
vertex $-1 $751 $753 #
straight-curve $-1 15.782672043187613 16.547095680968589 7.2533845861657085 1 0 0 I I #
edge $-1 $650 6.7255938389757173 $648 12.917409845010026 $639 $754 forward 7 unknown #
coedge $-1 $647 $485 $488 $652 reversed $637 $-1 #
coedge $-1 $485 $646 $750 $755 forward $637 $-1 #
vertex $-1 $486 $756 #
straight-curve $-1 -4.7011987851917922 22.738911687002901 41.484325378039614 -0.78801074757464917 0 0.61566148304635926 I I #
vertex $-1 $645 $757 #
straight-curve $-1 -27.746491503153976 16.547095680968589 59.489281700839015 -0.78801074757464917 0 0.61566148304635926 I I #
edge $-1 $758 -48.169194616534931 $489 -39.112406558634703 $646 $759 forward 7 unknown #
point $-1 39.112406558634703 22.738911687002897 7.2533845861657085 #
point $-1 39.112406558634703 16.547095680968589 7.2533845861657085 #
edge $-1 $760 1 $760 0 $492 $-1 forward 7 unknown #
vertex $-1 $493 $761 #
ellipse-curve $-1 42.864107373209691 17.785458882175451 2.7212933882938115 0.61566148304635926 0 0.78801074757464917 0.39400537378732459 0 -0.30783074152317963 1 I I #
point $-1 44.034805961372115 17.785458882175451 3.4075846072145866 #
edge $-1 $762 1 $762 0 $496 $-1 forward 7 unknown #
vertex $-1 $497 $763 #
ellipse-curve $-1 42.864107373209691 19.643003683985743 2.7212933882938115 0.61566148304635926 0 0.78801074757464917 0.39400537378732459 0 -0.30783074152317963 1 I I #
point $-1 44.034805961372115 19.643003683985743 3.4075846072145866 #
edge $-1 $764 1 $764 0 $500 $-1 forward 7 unknown #
vertex $-1 $501 $765 #
ellipse-curve $-1 42.864107373209691 21.500548485796035 2.7212933882938115 0.61566148304635926 0 0.78801074757464917 0.39400537378732459 0 -0.30783074152317963 1 I I #
point $-1 44.034805961372115 21.500548485796035 3.4075846072145866 #
plane-surface $-1 48.169194616534931 0 0 -1 0 0 0 0 1 forward_v I I I I #
coedge $-1 $509 $507 $511 $672 reversed $361 $-1 #
edge $-1 $522 -7.2533845861657067 $674 7.2533845861657067 $521 $766 forward 7 unknown #
vertex $-1 $672 $767 #
straight-curve $-1 -48.169194616534931 -22.738911687002901 0 0 0 -1 I I #
edge $-1 $670 -22.738911687002901 $674 22.738911687002901 $668 $768 forward 7 unknown #
straight-curve $-1 0 -22.738911687002901 -7.2533845861657067 -1 0 0 I I #
vertex $-1 $514 $769 #
straight-curve $-1 0 22.738911687002901 -7.2533845861657067 1 0 0 I I #
point $-1 48.169194616534931 22.738911687002901 -7.2533845861657067 #
point $-1 48.169194616534931 -22.738911687002901 -7.2533845861657067 #
straight-curve $-1 -48.169194616534931 0 7.2533845861657067 0 -1 0 I I #
point $-1 -48.169194616534931 22.738911687002901 7.2533845861657067 #
point $-1 -48.169194616534931 -22.738911687002901 7.2533845861657067 #
straight-curve $-1 48.169194616534931 -22.738911687002901 0 0 0 -1 I I #
straight-curve $-1 48.169194616534931 22.738911687002901 0 0 0 -1 I I #
plane-surface $-1 48.169194616534931 0 0 -1 0 0 0 0 1 forward_v I I I I #
coedge $-1 $686 $698 $537 $690 forward $532 $-1 #
coedge $-1 $535 $534 $543 $696 reversed $237 $-1 #
coedge $-1 $770 $684 $535 $687 forward $532 $-1 #
edge $-1 $688 14.693372589378182 $771 22.738911687002901 $535 $772 forward 7 unknown #
vertex $-1 $687 $773 #
straight-curve $-1 -48.169194616534931 -14.693372589378182 2.8766922930828533 0 0 -1 I I #
edge $-1 $691 -48.169194616534931 $688 48.169194616534931 $684 $774 forward 7 unknown #
vertex $-1 $538 $775 #
straight-curve $-1 48.169194616534931 -14.693372589378182 2.8766922930828533 0 0 1 I I #
point $-1 -48.169194616534931 -14.693372589378182 4.2533845861657067 #
straight-curve $-1 -48.169194616534931 -9.3580710690952706 4.2533845861657067 0 -1 0 I I #
coedge $-1 $543 $542 $770 $776 reversed $380 $-1 #
edge $-1 $771 -7.2533845861657067 $544 -4.2533845861657067 $685 $777 forward 7 unknown #
point $-1 -48.169194616534931 -22.738911687002901 4.2533845861657067 #
coedge $-1 $684 $770 $546 $699 forward $532 $-1 #
edge $-1 $700 -22.738911687002901 $691 -14.693372589378182 $546 $778 forward 7 unknown #
vertex $-1 $699 $779 #
straight-curve $-1 48.169194616534931 -22.738911687002901 0 0 0 -1 I I #
coedge $-1 $703 $552 $709 $780 reversed $396 $-1 #
coedge $-1 $552 $702 $555 $707 reversed $396 $-1 #
edge $-1 $705 -13.369050629622931 $560 -5.3706714851370077 $559 $781 forward 7 unknown #
vertex $-1 $554 $782 #
straight-curve $-1 -34.320109764686642 22.738911687002901 12.775654738253573 -0.76604443648966558 0 -0.64278761758704617 I I #
edge $-1 $556 40.901294919870466 $711 48.169194616534931 $703 $783 forward 7 unknown #
point $-1 -40.901294919870466 22.738911687002901 7.2533845861657067 #
coedge $-1 $559 $558 $702 $780 forward $550 $-1 #
point $-1 -48.169194616534931 14.740532542516977 1.1548925035284239 #
vertex $-1 $707 $784 #
straight-curve $-1 -48.169194616534931 0 7.2533845861657067 0 -1 0 I I #
vertex $-1 $566 $785 #
point $-1 -43.000827047572727 16.34020837141416 3.1533526559165299 #
vertex $-1 $570 $786 #
point $-1 -43.000827047572727 18.739722114759939 3.1533526559165299 #
vertex $-1 $574 $787 #
point $-1 -43.000827047572727 21.139235858105717 3.1533526559165299 #
coedge $-1 $588 $587 $580 $720 forward $578 $-1 #
edge $-1 $727 60.449099324098256 $722 67.525037798954145 $719 $788 forward 7 unknown #
edge $-1 $585 39.112406558634703 $727 48.169194616534931 $584 $789 forward 7 unknown #
vertex $-1 $720 $790 #
straight-curve $-1 -27.746491503153976 -14.693372589378182 59.489281700839015 -0.78801074757464917 0 0.61566148304635926 I I #
edge $-1 $722 -8.8946402961976681 $589 -2.702824290163357 $588 $791 forward 7 unknown #
point $-1 39.112406558634703 -14.693372589378182 7.2533845861657085 #
point $-1 48.169194616534924 -8.50155658334387 0.1774461113098269 #
vertex $-1 $592 $792 #
straight-curve $-1 48.169194616534931 0 7.2533845861657067 0 1 0 I I #
vertex $-1 $595 $793 #
point $-1 43.258112746997014 -13.45500938817132 2.4134626467706317 #
vertex $-1 $599 $794 #
point $-1 43.258112746997014 -11.597464586361026 2.4134626467706317 #
vertex $-1 $603 $795 #
point $-1 43.258112746997014 -9.7399197845507324 2.4134626467706317 #
edge $-1 $736 60.449099324098256 $739 67.525037798954145 $608 $796 forward 7 unknown #
vertex $-1 $622 $797 #
straight-curve $-1 15.782672043187613 0.92686154579520341 7.2533845861657085 1 0 0 I I #
edge $-1 $739 -1.0845232286109763 $619 5.1072927774233357 $618 $798 forward 7 unknown #
vertex $-1 $738 $799 #
straight-curve $-1 -27.746491503153976 0.92686154579520341 59.489281700839015 -0.78801074757464917 0 0.61566148304635926 I I #
point $-1 39.112406558634703 0.92686154579520341 7.2533845861657085 #
point $-1 48.169194616534924 7.1186775518295153 0.1774461113098269 #
straight-curve $-1 48.169194616534931 0 7.2533845861657067 0 1 0 I I #
vertex $-1 $625 $800 #
point $-1 43.258112746997014 2.1652247470020676 2.4134626467706317 #
vertex $-1 $629 $801 #
point $-1 43.258112746997014 4.0227695488123594 2.4134626467706317 #
vertex $-1 $633 $802 #
point $-1 43.258112746997014 5.8803143506226512 2.4134626467706317 #
coedge $-1 $640 $639 $647 $755 reversed $332 $-1 #
edge $-1 $643 16.547095680968589 $758 22.738911687002901 $640 $803 forward 7 unknown #
straight-curve $-1 48.169194616534931 16.547095680968589 67.702483910263965 0 0 -1 I I #
point $-1 48.169194616534931 16.547095680968589 7.2533845861657067 #
straight-curve $-1 48.169194616534931 9.8215018419928715 0.17744611130982335 0 1 0 I I #
edge $-1 $758 -7.2533845861657067 $648 -0.1774461113098269 $750 $804 forward 7 unknown #
point $-1 48.169194616534924 22.738911687002897 0.1774461113098269 #
point $-1 48.169194616534924 16.547095680968589 0.1774461113098269 #
vertex $-1 $751 $805 #
straight-curve $-1 0 22.738911687002901 7.2533845861657067 -1 0 0 I I #
vertex $-1 $655 $806 #
point $-1 43.258112746997014 17.785458882175451 2.4134626467706317 #
vertex $-1 $659 $807 #
point $-1 43.258112746997014 19.643003683985743 2.4134626467706317 #
vertex $-1 $663 $808 #
point $-1 43.258112746997014 21.500548485796035 2.4134626467706317 #
straight-curve $-1 -48.169194616534931 22.738911687002901 0 0 0 -1 I I #
point $-1 -48.169194616534931 -22.738911687002901 -7.2533845861657067 #
straight-curve $-1 -48.169194616534931 0 -7.2533845861657067 0 1 0 I I #
point $-1 -48.169194616534931 22.738911687002901 -7.2533845861657067 #
coedge $-1 $698 $686 $695 $776 forward $532 $-1 #
vertex $-1 $687 $809 #
straight-curve $-1 -48.169194616534931 0 7.2533845861657067 0 -1 0 I I #
point $-1 -48.169194616534931 -14.693372589378182 7.2533845861657067 #
straight-curve $-1 0 -14.693372589378182 7.2533845861657067 -1 0 0 I I #
point $-1 48.169194616534931 -14.693372589378182 7.2533845861657067 #
edge $-1 $771 -48.169194616534931 $700 48.169194616534931 $695 $810 forward 7 unknown #
straight-curve $-1 -48.169194616534931 -22.738911687002901 0 0 0 -1 I I #
straight-curve $-1 48.169194616534931 0 7.2533845861657067 0 1 0 I I #
point $-1 48.169194616534931 -22.738911687002901 7.2533845861657067 #
edge $-1 $711 -7.2533845861657067 $705 -1.1548925035284239 $702 $811 forward 7 unknown #
straight-curve $-1 -48.169194616534931 9.3698610573799694 1.1548925035284217 0 -1 0 I I #
point $-1 -48.169194616534931 22.738911687002901 1.1548925035284239 #
straight-curve $-1 0 22.738911687002901 7.2533845861657067 -1 0 0 I I #
point $-1 -48.169194616534931 22.738911687002901 7.2533845861657067 #
point $-1 -43.062455457024043 16.34020837141416 2.4489366288781742 #
point $-1 -43.062455457024043 18.739722114759939 2.4489366288781742 #
point $-1 -43.062455457024043 21.139235858105717 2.4489366288781742 #
straight-curve $-1 48.169194616534931 -14.693372589378182 67.702483910263965 0 0 -1 I I #
straight-curve $-1 0 -14.693372589378182 7.2533845861657067 1 0 0 I I #
point $-1 48.169194616534924 -14.693372589378182 0.1774461113098269 #
straight-curve $-1 48.169194616534931 -5.798732293180513 0.17744611130982335 0 1 0 I I #
point $-1 48.169194616534931 -14.693372589378182 7.2533845861657067 #
point $-1 42.556276631686515 -13.45500938817132 2.3272880145064869 #
point $-1 42.556276631686515 -11.597464586361026 2.3272880145064869 #
point $-1 42.556276631686515 -9.7399197845507324 2.3272880145064869 #
straight-curve $-1 48.169194616534931 0.92686154579520341 67.702483910263965 0 0 -1 I I #
point $-1 48.169194616534931 0.92686154579520341 7.2533845861657067 #
straight-curve $-1 48.169194616534931 2.0113847744061797 0.17744611130982335 0 1 0 I I #
point $-1 48.169194616534924 0.92686154579520341 0.1774461113098269 #
point $-1 42.556276631686515 2.1652247470020676 2.3272880145064869 #
point $-1 42.556276631686515 4.0227695488123594 2.3272880145064869 #
point $-1 42.556276631686515 5.8803143506226512 2.3272880145064869 #
straight-curve $-1 48.169194616534931 0 7.2533845861657067 0 1 0 I I #
straight-curve $-1 48.169194616534931 22.738911687002901 0 0 0 -1 I I #
point $-1 48.169194616534931 22.738911687002901 7.2533845861657067 #
point $-1 42.556276631686515 17.785458882175451 2.3272880145064869 #
point $-1 42.556276631686515 19.643003683985743 2.3272880145064869 #
point $-1 42.556276631686515 21.500548485796035 2.3272880145064869 #
point $-1 -48.169194616534931 -22.738911687002901 7.2533845861657067 #
straight-curve $-1 0 -22.738911687002901 7.2533845861657067 1 0 0 I I #
straight-curve $-1 -48.169194616534931 22.738911687002901 0 0 0 -1 I I #
End-of-ACIS-data 