500 0 8 0           
7 Unknown 11 ACIS 5.0 NT 24 Fri Mar 26 18:21:22 1999 
-1 9.9999999999999995e-007 1e-010 
body $-1 $8 $-1 $9 #
body $-1 $10 $-1 $11 #
body $-1 $12 $-1 $13 #
body $-1 $14 $-1 $15 #
body $-1 $16 $-1 $17 #
body $-1 $18 $-1 $19 #
body $-1 $20 $-1 $21 #
body $-1 $22 $-1 $23 #
lump $-1 $-1 $24 $0 #
transform $-1 1 0 0 0 1 0 0 0 1 57.302774132511367 38.333417118052793 7.9650025057695437 1 rotate no_reflect no_shear #
lump $-1 $-1 $25 $1 #
transform $-1 1 0 0 0 1 0 0 0 1 57.302774132511367 38.333417118052793 7.9650025057695437 1 rotate no_reflect no_shear #
lump $-1 $-1 $26 $2 #
transform $-1 1 0 0 0 1 0 0 0 1 57.302774132511367 38.333417118052793 7.9650025057695437 1 rotate no_reflect no_shear #
lump $-1 $-1 $27 $3 #
transform $-1 1 0 0 0 1 0 0 0 1 57.302774132511367 38.333417118052793 7.9650025057695437 1 rotate no_reflect no_shear #
lump $-1 $-1 $28 $4 #
transform $-1 1 0 0 0 1 0 0 0 1 57.302774132511367 38.333417118052793 7.9650025057695437 1 rotate no_reflect no_shear #
lump $-1 $-1 $29 $5 #
transform $-1 1 0 0 0 1 0 0 0 1 57.302774132511367 38.333417118052793 7.9650025057695437 1 rotate no_reflect no_shear #
lump $-1 $-1 $30 $6 #
transform $-1 1 0 0 0 1 0 0 0 1 57.302774132511367 38.333417118052793 7.9650025057695437 1 rotate no_reflect no_shear #
lump $-1 $-1 $31 $7 #
transform $-1 1 0 0 0 1 0 0 0 1 57.302774132511367 38.333417118052793 7.9650025057695437 1 rotate no_reflect no_shear #
shell $-1 $-1 $-1 $32 $-1 $8 #
shell $-1 $-1 $-1 $33 $-1 $10 #
shell $-1 $-1 $-1 $34 $-1 $12 #
shell $-1 $-1 $-1 $35 $-1 $14 #
shell $-1 $-1 $-1 $36 $-1 $16 #
shell $-1 $-1 $-1 $37 $-1 $18 #
shell $-1 $-1 $-1 $38 $-1 $20 #
shell $-1 $-1 $-1 $39 $-1 $22 #
face $-1 $40 $41 $24 $-1 $42 forward single #
face $-1 $43 $44 $25 $-1 $45 reversed single #
face $-1 $46 $47 $26 $-1 $48 reversed single #
face $-1 $49 $50 $27 $-1 $51 forward single #
face $-1 $52 $53 $28 $-1 $54 forward single #
face $-1 $55 $56 $29 $-1 $57 reversed single #
face $-1 $58 $59 $30 $-1 $60 forward single #
face $-1 $61 $62 $31 $-1 $63 forward single #
face $-1 $64 $65 $24 $-1 $66 reversed single #
loop $-1 $-1 $67 $32 #
plane-surface $-1 0 0 7.9650025057695437 0 0 1 1 0 0 forward_v I I I I #
face $-1 $68 $69 $25 $-1 $70 reversed single #
loop $-1 $-1 $71 $33 #
plane-surface $-1 -55.802774132511367 -30.487611323264701 0 0 -1 0 0 0 -1 forward_v I I I I #
face $-1 $72 $73 $26 $-1 $74 reversed single #
loop $-1 $-1 $75 $34 #
plane-surface $-1 99.251318634055849 -21.706403467485885 160.27325795964532 0 -1 0 -0.86602541151947299 0 -0.49999998660252726 forward_v I I I I #
face $-1 $76 $77 $27 $-1 $78 forward single #
loop $-1 $79 $80 $35 #
cone-surface $-1 55.64409469930952 -27.97869479304218 5.5920853915472684 -0.86602541151947299 0 -0.49999998660252726 0.24999999330126363 0 -0.43301270575973649 1 I I 0 1 0.5 forward I I I I #
face $-1 $81 $82 $28 $-1 $83 forward single #
loop $-1 $84 $85 $36 #
cone-surface $-1 55.64409469930952 -24.215319997708406 5.5920853915472684 -0.86602541151947299 0 -0.49999998660252726 0.24999999330126363 0 -0.43301270575973649 1 I I 0 1 0.5 forward I I I I #
face $-1 $86 $87 $29 $-1 $88 reversed single #
loop $-1 $-1 $89 $37 #
plane-surface $-1 -156.55409123114251 -21.706403467485885 61.021940861014187 0 -1 0 0.86602541151947299 0 -0.49999998660252726 forward_v I I I I #
face $-1 $90 $91 $30 $-1 $92 forward single #
loop $-1 $93 $94 $38 #
cone-surface $-1 -55.64409469930952 -27.97869479304218 5.5920853915472737 0.86602541151947299 0 -0.49999998660252726 0.24999999330126363 0 0.43301270575973649 1 I I 0 1 0.5 forward I I I I #
face $-1 $95 $96 $31 $-1 $97 forward single #
loop $-1 $98 $99 $39 #
cone-surface $-1 -55.64409469930952 -24.215319997708406 5.5920853915472737 0.86602541151947299 0 -0.49999998660252726 0.24999999330126363 0 0.43301270575973649 1 I I 0 1 0.5 forward I I I I #
face $-1 $100 $101 $24 $-1 $102 reversed single #
loop $-1 $-1 $103 $40 #
plane-surface $-1 0 0 -7.9650025057695437 0 0 1 1 0 0 forward_v I I I I #
coedge $-1 $104 $105 $106 $107 forward $41 $-1 #
face $-1 $108 $109 $25 $-1 $110 forward single #
loop $-1 $-1 $111 $43 #
plane-surface $-1 -54.302774132511367 -34.410514220658747 0 -1 0 0 0 0 1 forward_v I I I I #
coedge $-1 $112 $113 $114 $115 reversed $44 $-1 #
face $-1 $116 $117 $26 $-1 $118 reversed single #
loop $-1 $-1 $119 $46 #
plane-surface $-1 1.5354247011600819e-006 -26.097007395375293 102.97048536255866 0.86602541151947299 0 0.49999998660252726 0.49999998660252726 0 -0.86602541151947299 forward_v I I I I #
coedge $-1 $120 $121 $122 $123 reversed $47 $-1 #
face $-1 $-1 $124 $27 $-1 $125 forward single #
loop $-1 $126 $127 $49 #
cone-surface $-1 54.994575640669915 -27.97869479304218 5.2170854015953729 -0.86602541151947299 0 -0.49999998660252726 0.12499999665063181 0 -0.21650635287986825 1 I I -0.70710678118654746 0.70710678118654746 0.25 forward I I I I #
loop $-1 $-1 $128 $35 #
coedge $-1 $80 $80 $129 $130 reversed $50 $-1 #
face $-1 $-1 $131 $28 $-1 $132 forward single #
loop $-1 $133 $134 $52 #
cone-surface $-1 54.994575640669915 -24.215319997708406 5.2170854015953729 -0.86602541151947299 0 -0.49999998660252726 0.12499999665063181 0 -0.21650635287986825 1 I I -0.70710678118654746 0.70710678118654746 0.25 forward I I I I #
loop $-1 $-1 $135 $36 #
coedge $-1 $85 $85 $136 $137 reversed $53 $-1 #
face $-1 $138 $139 $29 $-1 $140 forward single #
loop $-1 $-1 $141 $55 #
plane-surface $-1 -57.30277413251136 -26.097007395375293 3.7191682639275214 -0.86602541151947299 0 0.49999998660252726 0.49999998660252726 0 0.86602541151947299 forward_v I I I I #
coedge $-1 $142 $143 $144 $145 reversed $56 $-1 #
face $-1 $-1 $146 $30 $-1 $147 forward single #
loop $-1 $148 $149 $58 #
cone-surface $-1 -54.994575640669915 -27.97869479304218 5.2170854015953783 0.86602541151947299 0 -0.49999998660252726 0.12499999665063181 0 0.21650635287986825 1 I I -0.70710678118654746 0.70710678118654746 0.25 forward I I I I #
loop $-1 $-1 $150 $38 #
coedge $-1 $94 $94 $151 $152 reversed $59 $-1 #
face $-1 $-1 $153 $31 $-1 $154 forward single #
loop $-1 $155 $156 $61 #
cone-surface $-1 -54.994575640669915 -24.215319997708406 5.2170854015953783 0.86602541151947299 0 -0.49999998660252726 0.12499999665063181 0 0.21650635287986825 1 I I -0.70710678118654746 0.70710678118654746 0.25 forward I I I I #
loop $-1 $-1 $157 $39 #
coedge $-1 $99 $99 $158 $159 reversed $62 $-1 #
face $-1 $160 $161 $24 $-1 $162 reversed single #
loop $-1 $-1 $163 $64 #
plane-surface $-1 0 -38.333417118052793 0 0 1 0 0 0 1 forward_v I I I I #
coedge $-1 $164 $165 $166 $167 forward $65 $-1 #
coedge $-1 $168 $67 $169 $170 forward $41 $-1 #
coedge $-1 $67 $168 $171 $172 forward $41 $-1 #
coedge $-1 $173 $174 $67 $107 reversed $175 $-1 #
edge $-1 $176 -38.333417118052793 $177 38.333417118052793 $106 $178 forward 7 unknown #
face $-1 $179 $180 $25 $-1 $181 reversed single #
loop $-1 $-1 $182 $68 #
plane-surface $-1 0 0 7.9650025057695437 0 0 1 1 0 0 forward_v I I I I #
coedge $-1 $183 $184 $185 $186 reversed $69 $-1 #
coedge $-1 $187 $71 $188 $189 forward $44 $-1 #
coedge $-1 $71 $187 $190 $191 reversed $44 $-1 #
coedge $-1 $192 $182 $71 $115 forward $109 $-1 #
edge $-1 $193 26.401387066255683 $194 29.401387066255683 $114 $195 forward 7 unknown #
face $-1 $196 $197 $26 $-1 $198 reversed single #
loop $-1 $-1 $199 $72 #
plane-surface $-1 99.251318634055849 -30.487611323264701 160.27325795964532 0 1 0 0.86602541151947299 0 0.49999998660252726 forward_v I I I I #
coedge $-1 $200 $201 $202 $203 reversed $73 $-1 #
coedge $-1 $121 $75 $204 $205 reversed $47 $-1 #
coedge $-1 $75 $120 $200 $206 reversed $47 $-1 #
coedge $-1 $202 $207 $75 $123 forward $208 $-1 #
edge $-1 $209 -7.6771148154834421 $210 -5.2257813605992069 $122 $211 forward 7 unknown #
loop $-1 $-1 $129 $76 #
plane-surface $-1 1.5354247011600819e-006 -26.097007395375293 102.97048536255866 0.86602541151947299 0 0.49999998660252726 0.49999998660252726 0 -0.86602541151947299 forward_v I I I I #
loop $-1 $-1 $212 $49 #
coedge $-1 $127 $127 $128 $213 reversed $77 $-1 #
coedge $-1 $128 $128 $127 $213 forward $79 $-1 #
coedge $-1 $129 $129 $80 $130 forward $124 $-1 #
edge $-1 $214 0 $214 6.2831853071796004 $129 $215 forward 7 unknown #
loop $-1 $-1 $136 $81 #
plane-surface $-1 1.5354247011600819e-006 -26.097007395375293 102.97048536255866 0.86602541151947299 0 0.49999998660252726 0.49999998660252726 0 -0.86602541151947299 forward_v I I I I #
loop $-1 $-1 $216 $52 #
coedge $-1 $134 $134 $135 $217 reversed $82 $-1 #
coedge $-1 $135 $135 $134 $217 forward $84 $-1 #
coedge $-1 $136 $136 $85 $137 forward $131 $-1 #
edge $-1 $218 0 $218 6.2831853071796004 $136 $219 forward 7 unknown #
face $-1 $220 $221 $29 $-1 $222 forward single #
loop $-1 $-1 $223 $86 #
plane-surface $-1 0 0 7.9650025057695437 0 0 1 1 0 0 forward_v I I I I #
coedge $-1 $224 $225 $226 $227 reversed $87 $-1 #
coedge $-1 $143 $89 $228 $229 reversed $56 $-1 #
coedge $-1 $89 $142 $224 $230 reversed $56 $-1 #
coedge $-1 $226 $231 $89 $145 forward $232 $-1 #
edge $-1 $233 22.54596792473755 $234 26.791802166579586 $144 $235 forward 7 unknown #
loop $-1 $-1 $151 $90 #
plane-surface $-1 -57.30277413251136 -26.097007395375293 3.7191682639275214 -0.86602541151947299 0 0.49999998660252726 0.49999998660252726 0 0.86602541151947299 forward_v I I I I #
loop $-1 $-1 $236 $58 #
coedge $-1 $149 $149 $150 $237 reversed $91 $-1 #
coedge $-1 $150 $150 $149 $237 forward $93 $-1 #
coedge $-1 $151 $151 $94 $152 forward $146 $-1 #
edge $-1 $238 0 $238 6.2831853071796004 $151 $239 forward 7 unknown #
loop $-1 $-1 $158 $95 #
plane-surface $-1 -57.30277413251136 -26.097007395375293 3.7191682639275214 -0.86602541151947299 0 0.49999998660252726 0.49999998660252726 0 0.86602541151947299 forward_v I I I I #
loop $-1 $-1 $240 $61 #
coedge $-1 $156 $156 $157 $241 reversed $96 $-1 #
coedge $-1 $157 $157 $156 $241 forward $98 $-1 #
coedge $-1 $158 $158 $99 $159 forward $153 $-1 #
edge $-1 $242 0 $242 6.2831853071796004 $158 $243 forward 7 unknown #
face $-1 $244 $245 $24 $-1 $246 reversed single #
loop $-1 $-1 $247 $100 #
plane-surface $-1 -57.302774132511367 0 0 1 0 0 0 0 -1 forward_v I I I I #
coedge $-1 $248 $171 $249 $250 forward $101 $-1 #
coedge $-1 $251 $103 $248 $252 forward $65 $-1 #
coedge $-1 $103 $251 $253 $254 forward $65 $-1 #
coedge $-1 $174 $173 $103 $167 reversed $175 $-1 #
edge $-1 $255 -38.333417118052793 $256 38.333417118052793 $166 $257 forward 7 unknown #
coedge $-1 $105 $104 $258 $259 forward $41 $-1 #
coedge $-1 $260 $261 $104 $170 reversed $245 $-1 #
edge $-1 $177 -57.302774132511367 $262 57.302774132511367 $169 $263 forward 7 unknown #
coedge $-1 $163 $264 $105 $172 reversed $101 $-1 #
edge $-1 $265 -57.302774132511367 $176 57.302774132511367 $171 $266 forward 7 unknown #
coedge $-1 $166 $106 $264 $267 forward $175 $-1 #
coedge $-1 $106 $166 $260 $268 reversed $175 $-1 #
loop $-1 $-1 $173 $244 #
vertex $-1 $107 $269 #
vertex $-1 $107 $270 #
straight-curve $-1 57.302774132511367 0 7.9650025057695437 0 1 0 I I #
face $-1 $271 $272 $25 $-1 $273 reversed single #
loop $-1 $-1 $190 $108 #
plane-surface $-1 -57.302774132511367 0 0 1 0 0 0 0 -1 forward_v I I I I #
coedge $-1 $114 $274 $184 $275 forward $109 $-1 #
coedge $-1 $188 $111 $276 $277 reversed $69 $-1 #
coedge $-1 $111 $188 $182 $275 reversed $69 $-1 #
coedge $-1 $278 $279 $111 $186 forward $280 $-1 #
edge $-1 $281 -7.9650025057695437 $282 7.9650025057695437 $185 $283 forward 7 unknown #
coedge $-1 $113 $112 $284 $285 reversed $44 $-1 #
coedge $-1 $184 $183 $112 $189 reversed $69 $-1 #
edge $-1 $193 -7.9650025057695437 $286 7.9650025057695437 $188 $287 forward 7 unknown #
coedge $-1 $288 $289 $113 $191 forward $180 $-1 #
edge $-1 $194 -7.9650025057695437 $290 7.9650025057695437 $190 $291 forward 7 unknown #
coedge $-1 $274 $114 $289 $292 forward $109 $-1 #
vertex $-1 $115 $293 #
vertex $-1 $292 $294 #
straight-curve $-1 -27.901387066255683 -30.487611323264701 7.9650025057695437 -1 0 0 I I #
face $-1 $-1 $208 $26 $-1 $295 forward single #
loop $-1 $-1 $296 $116 #
plane-surface $-1 57.302774132511367 0 0 -1 0 0 0 0 1 forward_v I I I I #
coedge $-1 $297 $298 $299 $300 reversed $117 $-1 #
coedge $-1 $301 $119 $121 $206 forward $73 $-1 #
coedge $-1 $119 $301 $297 $302 forward $73 $-1 #
coedge $-1 $299 $122 $119 $203 forward $208 $-1 #
edge $-1 $210 8.6578997697982381 $303 17.439107625577055 $202 $304 forward 7 unknown #
coedge $-1 $305 $306 $120 $205 forward $197 $-1 #
edge $-1 $307 -76.417460715895146 $209 -72.171626474053113 $204 $308 forward 7 unknown #
edge $-1 $210 109.70288122388759 $307 114.60554826502275 $121 $309 forward 7 unknown #
coedge $-1 $122 $299 $305 $310 forward $208 $-1 #
loop $-1 $-1 $299 $196 #
vertex $-1 $205 $311 #
vertex $-1 $123 $312 #
straight-curve $-1 49.625659317027925 -21.706403467485885 7.9650025057695473 -1 0 0 I I #
coedge $-1 $212 $212 $-1 $313 reversed $126 $-1 #
edge $-1 $314 0 $314 6.2831853071796004 $127 $315 forward 7 unknown #
vertex $-1 $130 $316 #
ellipse-curve $-1 56.077107405069249 -27.97869479304218 5.8420853848485281 0.86602541151947299 0 0.49999998660252726 0.24999999330126363 0 -0.43301270575973649 1 I I #
coedge $-1 $216 $216 $-1 $317 reversed $133 $-1 #
edge $-1 $318 0 $318 6.2831853071796004 $134 $319 forward 7 unknown #
vertex $-1 $137 $320 #
ellipse-curve $-1 56.077107405069249 -24.215319997708406 5.8420853848485281 0.86602541151947299 0 0.49999998660252726 0.24999999330126363 0 -0.43301270575973649 1 I I #
face $-1 $-1 $232 $29 $-1 $321 reversed single #
loop $-1 $-1 $322 $138 #
plane-surface $-1 -55.802774132511367 -30.487611323264701 0 0 -1 0 0 0 -1 forward_v I I I I #
coedge $-1 $228 $323 $324 $325 forward $139 $-1 #
coedge $-1 $324 $141 $143 $230 forward $87 $-1 #
coedge $-1 $141 $324 $322 $326 reversed $87 $-1 #
coedge $-1 $327 $144 $141 $227 forward $232 $-1 #
edge $-1 $234 8.6578997697982381 $328 17.439107625577055 $226 $329 forward 7 unknown #
coedge $-1 $330 $223 $142 $229 forward $139 $-1 #
edge $-1 $331 -23.425604937944122 $233 -20.974271483059887 $228 $332 forward 7 unknown #
edge $-1 $234 -1.4321304723534956e-014 $331 4.9026670411351478 $143 $333 forward 7 unknown #
coedge $-1 $144 $327 $330 $334 reversed $232 $-1 #
loop $-1 $-1 $226 $220 #
vertex $-1 $334 $335 #
vertex $-1 $145 $336 #
straight-curve $-1 -57.302774132511367 -21.706403467485885 30.510970430507093 0 0 -1 I I #
coedge $-1 $236 $236 $-1 $337 reversed $148 $-1 #
edge $-1 $338 0 $338 6.2831853071796004 $149 $339 forward 7 unknown #
vertex $-1 $152 $340 #
ellipse-curve $-1 -56.077107405069249 -27.97869479304218 5.8420853848485326 -0.86602541151947299 0 0.49999998660252726 0.24999999330126363 0 0.43301270575973649 1 I I #
coedge $-1 $240 $240 $-1 $341 reversed $155 $-1 #
edge $-1 $342 0 $342 6.2831853071796004 $156 $343 forward 7 unknown #
vertex $-1 $159 $344 #
ellipse-curve $-1 -56.077107405069249 -24.215319997708406 5.8420853848485326 -0.86602541151947299 0 0.49999998660252726 0.24999999330126363 0 0.43301270575973649 1 I I #
face $-1 $-1 $175 $24 $-1 $345 reversed single #
loop $-1 $-1 $260 $160 #
plane-surface $-1 0 38.333417118052793 0 0 -1 0 0 0 -1 forward_v I I I I #
coedge $-1 $346 $258 $261 $347 forward $161 $-1 #
coedge $-1 $264 $163 $164 $252 reversed $101 $-1 #
coedge $-1 $258 $346 $163 $250 reversed $161 $-1 #
edge $-1 $265 -7.9650025057695437 $348 7.9650025057695437 $249 $349 forward 7 unknown #
coedge $-1 $165 $164 $346 $350 forward $65 $-1 #
edge $-1 $256 -57.302774132511367 $348 57.302774132511367 $248 $351 forward 7 unknown #
coedge $-1 $261 $260 $165 $254 reversed $245 $-1 #
edge $-1 $352 -57.302774132511367 $255 57.302774132511367 $253 $353 forward 7 unknown #
vertex $-1 $167 $354 #
vertex $-1 $267 $355 #
straight-curve $-1 57.302774132511367 0 -7.9650025057695437 0 -1 0 I I #
coedge $-1 $247 $249 $168 $259 reversed $161 $-1 #
edge $-1 $262 -38.333417118052793 $265 38.333417118052793 $258 $356 forward 7 unknown #
coedge $-1 $253 $169 $174 $268 forward $245 $-1 #
coedge $-1 $169 $253 $247 $347 reversed $245 $-1 #
vertex $-1 $170 $357 #
straight-curve $-1 0 38.333417118052793 7.9650025057695437 -1 0 0 I I #
coedge $-1 $171 $248 $173 $267 reversed $101 $-1 #
vertex $-1 $259 $358 #
straight-curve $-1 0 -38.333417118052793 7.9650025057695437 1 0 0 I I #
edge $-1 $176 -7.9650025057695437 $256 7.9650025057695437 $173 $359 forward 7 unknown #
edge $-1 $177 -7.9650025057695437 $255 7.9650025057695437 $174 $360 forward 7 unknown #
point $-1 57.302774132511367 -38.333417118052793 7.9650025057695437 #
point $-1 57.302774132511367 38.333417118052793 7.9650025057695437 #
face $-1 $-1 $280 $25 $-1 $361 reversed single #
loop $-1 $-1 $276 $179 #
plane-surface $-1 0 0 -7.9650025057695437 0 0 1 1 0 0 forward_v I I I I #
coedge $-1 $182 $192 $278 $362 forward $109 $-1 #
edge $-1 $282 -21.12816000772342 $193 -13.282354212935328 $182 $363 forward 7 unknown #
coedge $-1 $364 $284 $183 $277 forward $272 $-1 #
edge $-1 $286 13.282354212935328 $281 21.12816000772342 $276 $365 forward 7 unknown #
coedge $-1 $366 $185 $274 $362 reversed $280 $-1 #
coedge $-1 $185 $366 $364 $367 reversed $280 $-1 #
loop $-1 $-1 $185 $271 #
vertex $-1 $367 $368 #
vertex $-1 $186 $369 #
straight-curve $-1 -54.302774132511367 -38.333417118052793 0 0 0 1 I I #
coedge $-1 $276 $370 $187 $285 forward $272 $-1 #
edge $-1 $290 -29.401387066255683 $286 -26.401387066255683 $284 $371 forward 7 unknown #
vertex $-1 $285 $372 #
straight-curve $-1 -54.302774132511367 -30.487611323264701 0 0 0 -1 I I #
coedge $-1 $373 $190 $370 $374 reversed $180 $-1 #
coedge $-1 $190 $373 $192 $292 reversed $180 $-1 #
vertex $-1 $285 $375 #
straight-curve $-1 -57.302774132511367 -30.487611323264701 0 0 0 -1 I I #
edge $-1 $194 30.487611323264701 $376 38.333417118052793 $289 $377 forward 7 unknown #
point $-1 -54.302774132511367 -30.487611323264701 7.9650025057695437 #
point $-1 -57.302774132511367 -30.487611323264701 7.9650025057695437 #
plane-surface $-1 0 0 7.9650025057695437 0 0 1 1 0 0 forward_v I I I I #
coedge $-1 $306 $305 $298 $378 forward $197 $-1 #
coedge $-1 $298 $199 $201 $302 reversed $117 $-1 #
coedge $-1 $199 $297 $296 $378 reversed $117 $-1 #
coedge $-1 $207 $202 $199 $300 forward $208 $-1 #
edge $-1 $303 5.2257813605992069 $379 7.6771148154834421 $299 $380 forward 7 unknown #
coedge $-1 $201 $200 $306 $381 reversed $73 $-1 #
edge $-1 $382 -114.60554826502275 $303 -109.70288122388759 $297 $383 forward 7 unknown #
vertex $-1 $203 $384 #
straight-curve $-1 54.851440677627139 -13.048503697687647 7.9650025057695473 0 -1 0 I I #
coedge $-1 $296 $204 $207 $310 reversed $197 $-1 #
coedge $-1 $204 $296 $301 $381 forward $197 $-1 #
vertex $-1 $205 $385 #
straight-curve $-1 57.302774132511367 -21.706403467485885 80.13662897982266 0 0 1 I I #
straight-curve $-1 1.5354247011600819e-006 -21.706403467485885 102.97048536255866 0.49999998660252726 0 -0.86602541151947299 I I #
edge $-1 $379 -30.487611323264701 $209 -21.706403467485885 $305 $386 forward 7 unknown #
point $-1 57.302774132511367 -21.706403467485885 7.9650025057695437 #
point $-1 54.851440677627131 -21.706403467485885 7.9650025057695473 #
edge $-1 $387 1 $387 0 $212 $-1 forward 7 unknown #
vertex $-1 $213 $388 #
ellipse-curve $-1 55.211081993549783 -27.97869479304218 5.342085398246005 0.86602541151947299 0 0.49999998660252726 0.24999999330126363 0 -0.43301270575973649 1 I I #
point $-1 56.327107398370522 -27.97869479304218 5.409072679088796 #
edge $-1 $389 1 $389 0 $216 $-1 forward 7 unknown #
vertex $-1 $217 $390 #
ellipse-curve $-1 55.211081993549783 -24.215319997708406 5.342085398246005 0.86602541151947299 0 0.49999998660252726 0.24999999330126363 0 -0.43301270575973649 1 I I #
point $-1 56.327107398370522 -24.215319997708406 5.409072679088796 #
plane-surface $-1 -57.302774132511367 0 0 1 0 0 0 0 -1 forward_v I I I I #
coedge $-1 $391 $392 $225 $326 forward $221 $-1 #
coedge $-1 $223 $330 $391 $393 forward $139 $-1 #
coedge $-1 $225 $224 $223 $325 reversed $87 $-1 #
edge $-1 $394 -17.439107625577055 $331 -8.6578997697982381 $223 $395 forward 7 unknown #
edge $-1 $328 1.2354471231870869 $394 6.1381141643222499 $322 $396 forward 7 unknown #
coedge $-1 $231 $226 $392 $397 forward $232 $-1 #
vertex $-1 $397 $398 #
straight-curve $-1 -57.302774132511367 -13.048503697687647 3.7191682639274992 0 -1 0 I I #
coedge $-1 $323 $228 $231 $334 forward $139 $-1 #
vertex $-1 $229 $399 #
straight-curve $-1 -78.277045615571254 -21.706403467485885 7.9650025057695437 -1 0 0 I I #
straight-curve $-1 -57.30277413251136 -21.706403467485885 3.7191682639275214 0.49999998660252726 0 0.86602541151947299 I I #
edge $-1 $233 21.706403467485885 $400 30.487611323264701 $231 $401 forward 7 unknown #
point $-1 -57.302774132511367 -21.706403467485885 7.9650025057695437 #
point $-1 -57.302774132511367 -21.706403467485885 3.719168263927509 #
edge $-1 $402 1 $402 0 $236 $-1 forward 7 unknown #
vertex $-1 $237 $403 #
ellipse-curve $-1 -55.211081993549783 -27.97869479304218 5.3420853982460104 -0.86602541151947299 0 0.49999998660252726 0.24999999330126363 0 0.43301270575973649 1 I I #
point $-1 -55.82710741176799 -27.97869479304218 6.2750980906082736 #
edge $-1 $404 1 $404 0 $240 $-1 forward 7 unknown #
vertex $-1 $241 $405 #
ellipse-curve $-1 -55.211081993549783 -24.215319997708406 5.3420853982460104 -0.86602541151947299 0 0.49999998660252726 0.24999999330126363 0 0.43301270575973649 1 I I #
point $-1 -55.82710741176799 -24.215319997708406 6.2750980906082736 #
plane-surface $-1 57.302774132511367 0 0 -1 0 0 0 0 1 forward_v I I I I #
coedge $-1 $249 $247 $251 $350 reversed $161 $-1 #
edge $-1 $262 -7.9650025057695437 $352 7.9650025057695437 $261 $406 forward 7 unknown #
vertex $-1 $350 $407 #
straight-curve $-1 -57.302774132511367 -38.333417118052793 0 0 0 -1 I I #
edge $-1 $348 -38.333417118052793 $352 38.333417118052793 $346 $408 forward 7 unknown #
straight-curve $-1 0 -38.333417118052793 -7.9650025057695437 -1 0 0 I I #
vertex $-1 $254 $409 #
straight-curve $-1 0 38.333417118052793 -7.9650025057695437 1 0 0 I I #
point $-1 57.302774132511367 38.333417118052793 -7.9650025057695437 #
point $-1 57.302774132511367 -38.333417118052793 -7.9650025057695437 #
straight-curve $-1 -57.302774132511367 0 7.9650025057695437 0 -1 0 I I #
point $-1 -57.302774132511367 38.333417118052793 7.9650025057695437 #
point $-1 -57.302774132511367 -38.333417118052793 7.9650025057695437 #
straight-curve $-1 57.302774132511367 -38.333417118052793 0 0 0 -1 I I #
straight-curve $-1 57.302774132511367 38.333417118052793 0 0 0 -1 I I #
plane-surface $-1 0 -38.333417118052793 0 0 1 0 0 0 1 forward_v I I I I #
edge $-1 $376 -57.302774132511367 $282 -54.302774132511367 $278 $410 forward 7 unknown #
straight-curve $-1 -54.302774132511367 -17.205257110329374 7.9650025057695437 0 1 0 I I #
coedge $-1 $370 $276 $279 $367 forward $272 $-1 #
straight-curve $-1 -54.302774132511367 -17.205257110329374 -7.9650025057695437 0 -1 0 I I #
coedge $-1 $279 $278 $373 $411 forward $280 $-1 #
edge $-1 $281 54.302774132511367 $412 57.302774132511367 $279 $413 forward 7 unknown #
point $-1 -54.302774132511367 -38.333417118052793 -7.9650025057695437 #
point $-1 -54.302774132511367 -38.333417118052793 7.9650025057695437 #
coedge $-1 $284 $364 $288 $374 forward $272 $-1 #
straight-curve $-1 -27.901387066255683 -30.487611323264701 -7.9650025057695437 1 0 0 I I #
point $-1 -54.302774132511367 -30.487611323264701 -7.9650025057695437 #
coedge $-1 $289 $288 $366 $411 reversed $180 $-1 #
edge $-1 $412 -38.333417118052793 $290 -30.487611323264701 $288 $414 forward 7 unknown #
point $-1 -57.302774132511367 -30.487611323264701 -7.9650025057695437 #
vertex $-1 $292 $415 #
straight-curve $-1 -57.302774132511367 0 7.9650025057695437 0 -1 0 I I #
edge $-1 $379 72.171626474053113 $382 76.417460715895146 $296 $416 forward 7 unknown #
vertex $-1 $310 $417 #
straight-curve $-1 49.625659317027925 -30.487611323264701 7.9650025057695473 1 0 0 I I #
edge $-1 $382 -17.439107625577055 $307 -8.6578997697982381 $306 $418 forward 7 unknown #
vertex $-1 $381 $419 #
straight-curve $-1 1.5354247011600819e-006 -30.487611323264701 102.97048536255866 -0.49999998660252726 0 0.86602541151947299 I I #
point $-1 54.851440677627131 -30.487611323264701 7.9650025057695473 #
point $-1 57.302774132511367 -21.706403467485885 3.7191682639275143 #
straight-curve $-1 57.302774132511367 0 7.9650025057695437 0 1 0 I I #
vertex $-1 $313 $420 #
point $-1 55.461081986851049 -27.97869479304218 4.9090726924862684 #
vertex $-1 $317 $421 #
point $-1 55.461081986851049 -24.215319997708406 4.9090726924862684 #
coedge $-1 $392 $322 $323 $393 reversed $221 $-1 #
coedge $-1 $322 $391 $327 $397 reversed $221 $-1 #
edge $-1 $400 -29.401387066255683 $394 -26.950053611371448 $323 $422 forward 7 unknown #
vertex $-1 $325 $423 #
straight-curve $-1 -54.851440677627124 -13.048503697687647 7.9650025057695437 0 1 0 I I #
straight-curve $-1 -57.920497677553037 -30.487611323264701 2.6492396606588606 0.49999998660252726 0 0.86602541151947299 I I #
edge $-1 $328 3.719168263927509 $400 7.9650025057695437 $327 $424 forward 7 unknown #
point $-1 -57.302774132511367 -30.487611323264701 3.719168263927509 #
point $-1 -54.851440677627131 -21.706403467485885 7.9650025057695437 #
vertex $-1 $397 $425 #
straight-curve $-1 -57.302774132511367 0 7.9650025057695437 0 -1 0 I I #
vertex $-1 $337 $426 #
point $-1 -54.961082000248517 -27.97869479304218 5.7750981040057461 #
vertex $-1 $341 $427 #
point $-1 -54.961082000248517 -24.215319997708406 5.7750981040057461 #
straight-curve $-1 -57.302774132511367 38.333417118052793 0 0 0 -1 I I #
point $-1 -57.302774132511367 -38.333417118052793 -7.9650025057695437 #
straight-curve $-1 -57.302774132511367 0 -7.9650025057695437 0 1 0 I I #
point $-1 -57.302774132511367 38.333417118052793 -7.9650025057695437 #
straight-curve $-1 0 -38.333417118052793 7.9650025057695437 1 0 0 I I #
edge $-1 $376 -7.9650025057695437 $412 7.9650025057695437 $373 $428 forward 7 unknown #
vertex $-1 $374 $429 #
straight-curve $-1 0 -38.333417118052793 -7.9650025057695437 -1 0 0 I I #
straight-curve $-1 -57.302774132511367 0 -7.9650025057695437 0 1 0 I I #
point $-1 -57.302774132511367 -38.333417118052793 7.9650025057695437 #
straight-curve $-1 57.302774132511367 -30.487611323264701 80.13662897982266 0 0 -1 I I #
point $-1 57.302774132511367 -30.487611323264701 7.9650025057695437 #
straight-curve $-1 57.302774132511367 -13.048503697687647 3.7191682639275072 0 1 0 I I #
point $-1 57.302774132511367 -30.487611323264701 3.7191682639275143 #
point $-1 54.778069287790046 -27.97869479304218 5.0920854049447408 #
point $-1 54.778069287790046 -24.215319997708406 5.0920854049447408 #
straight-curve $-1 -27.901387066255683 -30.487611323264701 7.9650025057695437 1 0 0 I I #
point $-1 -54.851440677627131 -30.487611323264701 7.9650025057695437 #
straight-curve $-1 -57.302774132511367 -30.487611323264701 0 0 0 1 I I #
point $-1 -57.302774132511367 -30.487611323264701 7.9650025057695437 #
point $-1 -54.778069287790046 -27.97869479304218 5.0920854049447462 #
point $-1 -54.778069287790046 -24.215319997708406 5.0920854049447462 #
straight-curve $-1 -57.302774132511367 -38.333417118052793 0 0 0 -1 I I #
point $-1 -57.302774132511367 -38.333417118052793 -7.9650025057695437 #
End-of-ACIS-data 