500 0 18 0           
7 Unknown 11 ACIS 5.0 NT 24 Thu Mar 25 20:54:44 1999 
-1 9.9999999999999995e-007 1e-010 
body $-1 $18 $-1 $19 #
body $-1 $20 $-1 $21 #
body $-1 $22 $-1 $23 #
body $-1 $24 $-1 $25 #
body $-1 $26 $-1 $27 #
body $-1 $28 $-1 $29 #
body $-1 $30 $-1 $31 #
body $-1 $32 $-1 $33 #
body $-1 $34 $-1 $35 #
body $-1 $36 $-1 $37 #
body $-1 $38 $-1 $39 #
body $-1 $40 $-1 $41 #
body $-1 $42 $-1 $43 #
body $-1 $44 $-1 $45 #
body $-1 $46 $-1 $47 #
body $-1 $48 $-1 $49 #
body $-1 $50 $-1 $51 #
body $-1 $52 $-1 $53 #
lump $-1 $-1 $54 $0 #
transform $-1 1 0 0 0 1 0 0 0 1 73.583788567766348 39.422469250412959 18.979981327364108 1 rotate no_reflect no_shear #
lump $-1 $-1 $55 $1 #
transform $-1 1 0 0 0 1 0 0 0 1 73.583788567766348 39.422469250412959 18.979981327364108 1 rotate no_reflect no_shear #
lump $-1 $-1 $56 $2 #
transform $-1 1 0 0 0 1 0 0 0 1 73.583788567766348 39.422469250412959 18.979981327364108 1 rotate no_reflect no_shear #
lump $-1 $-1 $57 $3 #
transform $-1 1 0 0 0 1 0 0 0 1 73.583788567766348 39.422469250412959 18.979981327364108 1 rotate no_reflect no_shear #
lump $-1 $-1 $58 $4 #
transform $-1 1 0 0 0 1 0 0 0 1 73.583788567766348 39.422469250412959 18.979981327364108 1 rotate no_reflect no_shear #
lump $-1 $-1 $59 $5 #
transform $-1 1 0 0 0 1 0 0 0 1 73.583788567766348 39.422469250412959 18.979981327364108 1 rotate no_reflect no_shear #
lump $-1 $-1 $60 $6 #
transform $-1 1 0 0 0 1 0 0 0 1 73.583788567766348 39.422469250412959 18.979981327364108 1 rotate no_reflect no_shear #
lump $-1 $-1 $61 $7 #
transform $-1 1 0 0 0 1 0 0 0 1 73.583788567766348 39.422469250412959 18.979981327364108 1 rotate no_reflect no_shear #
lump $-1 $-1 $62 $8 #
transform $-1 1 0 0 0 1 0 0 0 1 73.583788567766348 39.422469250412959 18.979981327364108 1 rotate no_reflect no_shear #
lump $-1 $-1 $63 $9 #
transform $-1 1 0 0 0 1 0 0 0 1 73.583788567766348 39.422469250412959 18.979981327364108 1 rotate no_reflect no_shear #
lump $-1 $-1 $64 $10 #
transform $-1 1 0 0 0 1 0 0 0 1 73.583788567766348 39.422469250412959 18.979981327364108 1 rotate no_reflect no_shear #
lump $-1 $-1 $65 $11 #
transform $-1 1 0 0 0 1 0 0 0 1 73.583788567766348 39.422469250412959 18.979981327364108 1 rotate no_reflect no_shear #
lump $-1 $-1 $66 $12 #
transform $-1 1 0 0 0 1 0 0 0 1 73.583788567766348 39.422469250412959 18.979981327364108 1 rotate no_reflect no_shear #
lump $-1 $-1 $67 $13 #
transform $-1 1 0 0 0 1 0 0 0 1 73.583788567766348 39.422469250412959 18.979981327364108 1 rotate no_reflect no_shear #
lump $-1 $-1 $68 $14 #
transform $-1 1 0 0 0 1 0 0 0 1 73.583788567766348 39.422469250412959 18.979981327364108 1 rotate no_reflect no_shear #
lump $-1 $-1 $69 $15 #
transform $-1 1 0 0 0 1 0 0 0 1 73.583788567766348 39.422469250412959 18.979981327364108 1 rotate no_reflect no_shear #
lump $-1 $-1 $70 $16 #
transform $-1 1 0 0 0 1 0 0 0 1 73.583788567766348 39.422469250412959 18.979981327364108 1 rotate no_reflect no_shear #
lump $-1 $-1 $71 $17 #
transform $-1 1 0 0 0 1 0 0 0 1 73.583788567766348 39.422469250412959 18.979981327364108 1 rotate no_reflect no_shear #
shell $-1 $-1 $-1 $72 $-1 $18 #
shell $-1 $-1 $-1 $73 $-1 $20 #
shell $-1 $-1 $-1 $74 $-1 $22 #
shell $-1 $-1 $-1 $75 $-1 $24 #
shell $-1 $-1 $-1 $76 $-1 $26 #
shell $-1 $-1 $-1 $77 $-1 $28 #
shell $-1 $-1 $-1 $78 $-1 $30 #
shell $-1 $-1 $-1 $79 $-1 $32 #
shell $-1 $-1 $-1 $80 $-1 $34 #
shell $-1 $-1 $-1 $81 $-1 $36 #
shell $-1 $-1 $-1 $82 $-1 $38 #
shell $-1 $-1 $-1 $83 $-1 $40 #
shell $-1 $-1 $-1 $84 $-1 $42 #
shell $-1 $-1 $-1 $85 $-1 $44 #
shell $-1 $-1 $-1 $86 $-1 $46 #
shell $-1 $-1 $-1 $87 $-1 $48 #
shell $-1 $-1 $-1 $88 $-1 $50 #
shell $-1 $-1 $-1 $89 $-1 $52 #
face $-1 $90 $91 $54 $-1 $92 forward single #
face $-1 $93 $94 $55 $-1 $95 forward single #
face $-1 $96 $97 $56 $-1 $98 reversed single #
face $-1 $99 $100 $57 $-1 $101 forward single #
face $-1 $102 $103 $58 $-1 $104 forward single #
face $-1 $105 $106 $59 $-1 $107 forward single #
face $-1 $108 $109 $60 $-1 $110 reversed single #
face $-1 $111 $112 $61 $-1 $113 forward single #
face $-1 $114 $115 $62 $-1 $116 forward single #
face $-1 $117 $118 $63 $-1 $119 reversed single #
face $-1 $120 $121 $64 $-1 $122 forward single #
face $-1 $123 $124 $65 $-1 $125 forward single #
face $-1 $126 $127 $66 $-1 $128 reversed single #
face $-1 $129 $130 $67 $-1 $131 forward single #
face $-1 $132 $133 $68 $-1 $134 forward single #
face $-1 $135 $136 $69 $-1 $137 reversed single #
face $-1 $138 $139 $70 $-1 $140 forward single #
face $-1 $141 $142 $71 $-1 $143 forward single #
face $-1 $144 $145 $54 $-1 $146 reversed single #
loop $-1 $-1 $147 $72 #
plane-surface $-1 0 0 18.979981327364108 0 0 1 1 0 0 forward_v I I I I #
face $-1 $148 $149 $55 $-1 $150 reversed single #
loop $-1 $-1 $151 $73 #
plane-surface $-1 0 -39.422469250412959 0 0 1 0 0 0 1 forward_v I I I I #
face $-1 $152 $153 $56 $-1 $154 reversed single #
loop $-1 $-1 $155 $74 #
plane-surface $-1 -199.73102456494109 23.747656120618679 84.412838330806636 0 1 0 -0.85716730853699208 0 0.51503806187062418 forward_v I I I I #
face $-1 $156 $157 $57 $-1 $158 forward single #
loop $-1 $159 $160 $75 #
cone-surface $-1 -69.688103763603053 26.279956282458215 13.328078289455252 0.85716730853699208 0 -0.51503806187062418 0.51503806187062418 0 0.85716730853699208 1 I I 0 1 1 forward I I I I #
face $-1 $161 $162 $58 $-1 $163 forward single #
loop $-1 $164 $165 $76 #
cone-surface $-1 -69.688103763603053 30.078406525217531 13.328078289455252 0.85716730853699208 0 -0.51503806187062418 0.51503806187062418 0 0.85716730853699208 1 I I 0 1 1 forward I I I I #
face $-1 $166 $167 $59 $-1 $168 forward single #
loop $-1 $169 $170 $77 #
cone-surface $-1 -69.688103763603053 33.876856767976847 13.328078289455252 0.85716730853699208 0 -0.51503806187062418 0.51503806187062418 0 0.85716730853699208 1 I I 0 1 1 forward I I I I #
face $-1 $171 $172 $60 $-1 $173 reversed single #
loop $-1 $-1 $174 $78 #
plane-surface $-1 127.45086352279709 -5.4937203502835761 212.23238828996983 0 -1 0 -0.86602541151947299 0 -0.49999998660252726 forward_v I I I I #
face $-1 $175 $176 $61 $-1 $177 forward single #
loop $-1 $178 $179 $79 #
cone-surface $-1 70.393771172336187 -11.23715107554467 14.544143503644827 -0.86602541151947299 0 -0.49999998660252726 0.49999998660252726 0 -0.86602541151947299 1 I I 0 1 1 forward I I I I #
face $-1 $180 $181 $62 $-1 $182 forward single #
loop $-1 $183 $184 $80 #
cone-surface $-1 70.393771172336187 -7.7910926403880083 14.544143503644827 -0.86602541151947299 0 -0.49999998660252726 0.49999998660252726 0 -0.86602541151947299 1 I I 0 1 1 forward I I I I #
face $-1 $185 $186 $63 $-1 $187 reversed single #
loop $-1 $-1 $188 $81 #
plane-surface $-1 127.45086352279709 8.3349857044569173 212.23238828996983 0 -1 0 -0.86602541151947299 0 -0.49999998660252726 forward_v I I I I #
face $-1 $189 $190 $64 $-1 $191 forward single #
loop $-1 $192 $193 $82 #
cone-surface $-1 70.393771172336187 2.5915549791958199 14.544143503644827 -0.86602541151947299 0 -0.49999998660252726 0.49999998660252726 0 -0.86602541151947299 1 I I 0 1 1 forward I I I I #
face $-1 $194 $195 $65 $-1 $196 forward single #
loop $-1 $197 $198 $83 #
cone-surface $-1 70.393771172336187 6.0376134143524851 14.544143503644827 -0.86602541151947299 0 -0.49999998660252726 0.49999998660252726 0 -0.86602541151947299 1 I I 0 1 1 forward I I I I #
face $-1 $199 $200 $66 $-1 $201 reversed single #
loop $-1 $-1 $202 $84 #
plane-surface $-1 127.45086352279709 22.163691759197413 212.23238828996983 0 -1 0 -0.86602541151947299 0 -0.49999998660252726 forward_v I I I I #
face $-1 $203 $204 $67 $-1 $205 forward single #
loop $-1 $206 $207 $85 #
cone-surface $-1 70.393771172336187 16.420261033936313 14.544143503644827 -0.86602541151947299 0 -0.49999998660252726 0.49999998660252726 0 -0.86602541151947299 1 I I 0 1 1 forward I I I I #
face $-1 $208 $209 $68 $-1 $210 forward single #
loop $-1 $211 $212 $86 #
cone-surface $-1 70.393771172336187 19.866319469092979 14.544143503644827 -0.86602541151947299 0 -0.49999998660252726 0.49999998660252726 0 -0.86602541151947299 1 I I 0 1 1 forward I I I I #
face $-1 $213 $214 $69 $-1 $215 reversed single #
loop $-1 $-1 $216 $87 #
plane-surface $-1 127.45086352279709 35.992397813937906 212.23238828996983 0 -1 0 -0.86602541151947299 0 -0.49999998660252726 forward_v I I I I #
face $-1 $217 $218 $70 $-1 $219 forward single #
loop $-1 $220 $221 $88 #
cone-surface $-1 70.393771172336187 30.248967088676807 14.544143503644827 -0.86602541151947299 0 -0.49999998660252726 0.49999998660252726 0 -0.86602541151947299 1 I I 0 1 1 forward I I I I #
face $-1 $222 $223 $71 $-1 $224 forward single #
loop $-1 $225 $226 $89 #
cone-surface $-1 70.393771172336187 33.695025523833465 14.544143503644827 -0.86602541151947299 0 -0.49999998660252726 0.49999998660252726 0 -0.86602541151947299 1 I I 0 1 1 forward I I I I #
face $-1 $227 $228 $54 $-1 $229 reversed single #
loop $-1 $-1 $230 $90 #
plane-surface $-1 0 0 -18.979981327364108 0 0 1 1 0 0 forward_v I I I I #
coedge $-1 $231 $232 $233 $234 forward $91 $-1 #
face $-1 $235 $236 $55 $-1 $237 forward single #
loop $-1 $-1 $238 $93 #
plane-surface $-1 -73.583788567766348 0 0 1 0 0 0 0 -1 forward_v I I I I #
coedge $-1 $239 $240 $241 $242 forward $94 $-1 #
face $-1 $243 $244 $56 $-1 $245 reversed single #
loop $-1 $-1 $246 $96 #
plane-surface $-1 -73.583788567766362 30.078406525217545 8.6159346327262938 -0.85716730853699208 0 0.51503806187062418 0.51503806187062418 0 0.85716730853699208 forward_v I I I I #
coedge $-1 $247 $248 $249 $250 reversed $97 $-1 #
face $-1 $-1 $251 $57 $-1 $252 forward single #
loop $-1 $253 $254 $99 #
cone-surface $-1 -68.477508954166098 26.279956282458215 12.600679567930005 0.85716730853699208 0 -0.51503806187062418 0.25751903093531209 0 0.42858365426849604 1 I I -0.70710678118654746 0.70710678118654746 0.5 forward I I I I #
loop $-1 $-1 $255 $75 #
coedge $-1 $160 $160 $256 $257 reversed $100 $-1 #
face $-1 $-1 $258 $58 $-1 $259 forward single #
loop $-1 $260 $261 $102 #
cone-surface $-1 -68.477508954166098 30.078406525217531 12.600679567930005 0.85716730853699208 0 -0.51503806187062418 0.25751903093531209 0 0.42858365426849604 1 I I -0.70710678118654746 0.70710678118654746 0.5 forward I I I I #
loop $-1 $-1 $262 $76 #
coedge $-1 $165 $165 $263 $264 reversed $103 $-1 #
face $-1 $-1 $265 $59 $-1 $266 forward single #
loop $-1 $267 $268 $105 #
cone-surface $-1 -68.477508954166098 33.876856767976847 12.600679567930005 0.85716730853699208 0 -0.51503806187062418 0.25751903093531209 0 0.42858365426849604 1 I I -0.70710678118654746 0.70710678118654746 0.5 forward I I I I #
loop $-1 $-1 $269 $77 #
coedge $-1 $170 $170 $270 $271 reversed $106 $-1 #
face $-1 $272 $273 $60 $-1 $274 reversed single #
loop $-1 $-1 $275 $108 #
plane-surface $-1 1.971673611933511e-006 -9.5141218579663445 138.64860169387708 0.86602541151947299 0 0.49999998660252726 0.49999998660252726 0 -0.86602541151947299 forward_v I I I I #
coedge $-1 $276 $277 $278 $279 reversed $109 $-1 #
face $-1 $-1 $280 $61 $-1 $281 forward single #
loop $-1 $282 $283 $111 #
cone-surface $-1 69.017280512301838 -11.23715107554467 13.749426278929526 -0.86602541151947299 0 -0.49999998660252726 0.24999999330126363 0 -0.43301270575973649 1 I I -0.70710678118654746 0.70710678118654746 0.5 forward I I I I #
loop $-1 $-1 $284 $79 #
coedge $-1 $179 $179 $285 $286 reversed $112 $-1 #
face $-1 $-1 $287 $62 $-1 $288 forward single #
loop $-1 $289 $290 $114 #
cone-surface $-1 69.017280512301838 -7.7910926403880083 13.749426278929526 -0.86602541151947299 0 -0.49999998660252726 0.24999999330126363 0 -0.43301270575973649 1 I I -0.70710678118654746 0.70710678118654746 0.5 forward I I I I #
loop $-1 $-1 $291 $80 #
coedge $-1 $184 $184 $292 $293 reversed $115 $-1 #
face $-1 $294 $295 $63 $-1 $296 reversed single #
loop $-1 $-1 $297 $117 #
plane-surface $-1 1.971673611933511e-006 4.3145841967741489 138.64860169387708 0.86602541151947299 0 0.49999998660252726 0.49999998660252726 0 -0.86602541151947299 forward_v I I I I #
coedge $-1 $298 $299 $300 $301 reversed $118 $-1 #
face $-1 $-1 $302 $64 $-1 $303 forward single #
loop $-1 $304 $305 $120 #
cone-surface $-1 69.017280512301838 2.5915549791958199 13.749426278929526 -0.86602541151947299 0 -0.49999998660252726 0.24999999330126363 0 -0.43301270575973649 1 I I -0.70710678118654746 0.70710678118654746 0.5 forward I I I I #
loop $-1 $-1 $306 $82 #
coedge $-1 $193 $193 $307 $308 reversed $121 $-1 #
face $-1 $-1 $309 $65 $-1 $310 forward single #
loop $-1 $311 $312 $123 #
cone-surface $-1 69.017280512301838 6.0376134143524851 13.749426278929526 -0.86602541151947299 0 -0.49999998660252726 0.24999999330126363 0 -0.43301270575973649 1 I I -0.70710678118654746 0.70710678118654746 0.5 forward I I I I #
loop $-1 $-1 $313 $83 #
coedge $-1 $198 $198 $314 $315 reversed $124 $-1 #
face $-1 $316 $317 $66 $-1 $318 reversed single #
loop $-1 $-1 $319 $126 #
plane-surface $-1 1.971673611933511e-006 18.143290251514642 138.64860169387708 0.86602541151947299 0 0.49999998660252726 0.49999998660252726 0 -0.86602541151947299 forward_v I I I I #
coedge $-1 $320 $321 $322 $323 reversed $127 $-1 #
face $-1 $-1 $324 $67 $-1 $325 forward single #
loop $-1 $326 $327 $129 #
cone-surface $-1 69.017280512301838 16.420261033936313 13.749426278929526 -0.86602541151947299 0 -0.49999998660252726 0.24999999330126363 0 -0.43301270575973649 1 I I -0.70710678118654746 0.70710678118654746 0.5 forward I I I I #
loop $-1 $-1 $328 $85 #
coedge $-1 $207 $207 $329 $330 reversed $130 $-1 #
face $-1 $-1 $331 $68 $-1 $332 forward single #
loop $-1 $333 $334 $132 #
cone-surface $-1 69.017280512301838 19.866319469092979 13.749426278929526 -0.86602541151947299 0 -0.49999998660252726 0.24999999330126363 0 -0.43301270575973649 1 I I -0.70710678118654746 0.70710678118654746 0.5 forward I I I I #
loop $-1 $-1 $335 $86 #
coedge $-1 $212 $212 $336 $337 reversed $133 $-1 #
face $-1 $338 $339 $69 $-1 $340 reversed single #
loop $-1 $-1 $341 $135 #
plane-surface $-1 1.971673611933511e-006 31.971996306255136 138.64860169387708 0.86602541151947299 0 0.49999998660252726 0.49999998660252726 0 -0.86602541151947299 forward_v I I I I #
coedge $-1 $342 $343 $344 $345 reversed $136 $-1 #
face $-1 $-1 $346 $70 $-1 $347 forward single #
loop $-1 $348 $349 $138 #
cone-surface $-1 69.017280512301838 30.248967088676807 13.749426278929526 -0.86602541151947299 0 -0.49999998660252726 0.24999999330126363 0 -0.43301270575973649 1 I I -0.70710678118654746 0.70710678118654746 0.5 forward I I I I #
loop $-1 $-1 $350 $88 #
coedge $-1 $221 $221 $351 $352 reversed $139 $-1 #
face $-1 $-1 $353 $71 $-1 $354 forward single #
loop $-1 $355 $356 $141 #
cone-surface $-1 69.017280512301838 33.695025523833465 13.749426278929526 -0.86602541151947299 0 -0.49999998660252726 0.24999999330126363 0 -0.43301270575973649 1 I I -0.70710678118654746 0.70710678118654746 0.5 forward I I I I #
loop $-1 $-1 $357 $89 #
coedge $-1 $226 $226 $358 $359 reversed $142 $-1 #
face $-1 $360 $361 $54 $-1 $362 reversed single #
loop $-1 $-1 $363 $144 #
plane-surface $-1 0 -39.422469250412959 0 0 1 0 0 0 1 forward_v I I I I #
coedge $-1 $364 $365 $366 $367 forward $145 $-1 #
coedge $-1 $368 $147 $369 $370 forward $91 $-1 #
coedge $-1 $147 $368 $371 $372 forward $91 $-1 #
coedge $-1 $373 $374 $147 $234 reversed $375 $-1 #
edge $-1 $376 -39.422469250412959 $377 39.422469250412959 $233 $378 forward 7 unknown #
face $-1 $379 $380 $55 $-1 $381 reversed single #
loop $-1 $-1 $382 $148 #
plane-surface $-1 0 -51.187526391344932 16.258028257309945 0 0 1 1 0 0 forward_v I I I I #
coedge $-1 $383 $384 $240 $385 forward $149 $-1 #
coedge $-1 $386 $151 $387 $388 reversed $94 $-1 #
coedge $-1 $151 $386 $238 $385 reversed $94 $-1 #
coedge $-1 $389 $382 $151 $242 reversed $236 $-1 #
edge $-1 $390 -73.583788567766348 $391 73.583788567766348 $241 $392 forward 7 unknown #
face $-1 $393 $394 $56 $-1 $395 forward single #
loop $-1 $-1 $396 $152 #
plane-surface $-1 -199.73102456494109 36.409156929816412 84.412838330806636 0 -1 0 0.85716730853699208 0 -0.51503806187062418 forward_v I I I I #
coedge $-1 $397 $398 $399 $400 reversed $153 $-1 #
coedge $-1 $248 $155 $401 $402 reversed $97 $-1 #
coedge $-1 $155 $247 $397 $403 reversed $97 $-1 #
coedge $-1 $399 $404 $155 $250 forward $394 $-1 #
edge $-1 $405 26.281723714704199 $406 32.509071012693852 $249 $407 forward 7 unknown #
loop $-1 $-1 $256 $156 #
plane-surface $-1 -73.583788567766362 30.078406525217545 8.6159346327262938 -0.85716730853699208 0 0.51503806187062418 0.51503806187062418 0 0.85716730853699208 forward_v I I I I #
loop $-1 $-1 $408 $99 #
coedge $-1 $254 $254 $255 $409 reversed $157 $-1 #
coedge $-1 $255 $255 $254 $409 forward $159 $-1 #
coedge $-1 $256 $256 $160 $257 forward $251 $-1 #
edge $-1 $410 0 $410 6.2831853071796004 $256 $411 forward 7 unknown #
loop $-1 $-1 $263 $161 #
plane-surface $-1 -73.583788567766362 30.078406525217545 8.6159346327262938 -0.85716730853699208 0 0.51503806187062418 0.51503806187062418 0 0.85716730853699208 forward_v I I I I #
loop $-1 $-1 $412 $102 #
coedge $-1 $261 $261 $262 $413 reversed $162 $-1 #
coedge $-1 $262 $262 $261 $413 forward $164 $-1 #
coedge $-1 $263 $263 $165 $264 forward $258 $-1 #
edge $-1 $414 0 $414 6.2831853071796004 $263 $415 forward 7 unknown #
loop $-1 $-1 $270 $166 #
plane-surface $-1 -73.583788567766362 30.078406525217545 8.6159346327262938 -0.85716730853699208 0 0.51503806187062418 0.51503806187062418 0 0.85716730853699208 forward_v I I I I #
loop $-1 $-1 $416 $105 #
coedge $-1 $268 $268 $269 $417 reversed $167 $-1 #
coedge $-1 $269 $269 $268 $417 forward $169 $-1 #
coedge $-1 $270 $270 $170 $271 forward $265 $-1 #
edge $-1 $418 0 $418 6.2831853071796004 $270 $419 forward 7 unknown #
face $-1 $420 $421 $60 $-1 $422 reversed single #
loop $-1 $-1 $423 $171 #
plane-surface $-1 127.45086352279709 -13.534523365649113 212.23238828996983 0 1 0 0.86602541151947299 0 0.49999998660252726 forward_v I I I I #
coedge $-1 $424 $425 $426 $427 reversed $172 $-1 #
coedge $-1 $277 $174 $428 $429 reversed $109 $-1 #
coedge $-1 $174 $276 $424 $430 reversed $109 $-1 #
coedge $-1 $426 $431 $174 $279 forward $432 $-1 #
edge $-1 $433 -9.8583568063678015 $434 -5.3652779240567483 $278 $435 forward 7 unknown #
loop $-1 $-1 $285 $175 #
plane-surface $-1 1.971673611933511e-006 -9.5141218579663445 138.64860169387708 0.86602541151947299 0 0.49999998660252726 0.49999998660252726 0 -0.86602541151947299 forward_v I I I I #
loop $-1 $-1 $436 $111 #
coedge $-1 $283 $283 $284 $437 reversed $176 $-1 #
coedge $-1 $284 $284 $283 $437 forward $178 $-1 #
coedge $-1 $285 $285 $179 $286 forward $280 $-1 #
edge $-1 $438 0 $438 6.2831853071796004 $285 $439 forward 7 unknown #
loop $-1 $-1 $292 $180 #
plane-surface $-1 1.971673611933511e-006 -9.5141218579663445 138.64860169387708 0.86602541151947299 0 0.49999998660252726 0.49999998660252726 0 -0.86602541151947299 forward_v I I I I #
loop $-1 $-1 $440 $114 #
coedge $-1 $290 $290 $291 $441 reversed $181 $-1 #
coedge $-1 $291 $291 $290 $441 forward $183 $-1 #
coedge $-1 $292 $292 $184 $293 forward $287 $-1 #
edge $-1 $442 0 $442 6.2831853071796004 $292 $443 forward 7 unknown #
face $-1 $444 $445 $63 $-1 $446 reversed single #
loop $-1 $-1 $447 $185 #
plane-surface $-1 127.45086352279709 0.29418268909138057 212.23238828996983 0 1 0 0.86602541151947299 0 0.49999998660252726 forward_v I I I I #
coedge $-1 $448 $449 $450 $451 reversed $186 $-1 #
coedge $-1 $299 $188 $452 $453 reversed $118 $-1 #
coedge $-1 $188 $298 $448 $454 reversed $118 $-1 #
coedge $-1 $450 $455 $188 $301 forward $456 $-1 #
edge $-1 $457 -9.8583568063678015 $458 -5.3652779240567483 $300 $459 forward 7 unknown #
loop $-1 $-1 $307 $189 #
plane-surface $-1 1.971673611933511e-006 4.3145841967741489 138.64860169387708 0.86602541151947299 0 0.49999998660252726 0.49999998660252726 0 -0.86602541151947299 forward_v I I I I #
loop $-1 $-1 $460 $120 #
coedge $-1 $305 $305 $306 $461 reversed $190 $-1 #
coedge $-1 $306 $306 $305 $461 forward $192 $-1 #
coedge $-1 $307 $307 $193 $308 forward $302 $-1 #
edge $-1 $462 0 $462 6.2831853071796004 $307 $463 forward 7 unknown #
loop $-1 $-1 $314 $194 #
plane-surface $-1 1.971673611933511e-006 4.3145841967741489 138.64860169387708 0.86602541151947299 0 0.49999998660252726 0.49999998660252726 0 -0.86602541151947299 forward_v I I I I #
loop $-1 $-1 $464 $123 #
coedge $-1 $312 $312 $313 $465 reversed $195 $-1 #
coedge $-1 $313 $313 $312 $465 forward $197 $-1 #
coedge $-1 $314 $314 $198 $315 forward $309 $-1 #
edge $-1 $466 0 $466 6.2831853071796004 $314 $467 forward 7 unknown #
face $-1 $468 $469 $66 $-1 $470 reversed single #
loop $-1 $-1 $471 $199 #
plane-surface $-1 127.45086352279709 14.122888743831874 212.23238828996983 0 1 0 0.86602541151947299 0 0.49999998660252726 forward_v I I I I #
coedge $-1 $472 $473 $474 $475 reversed $200 $-1 #
coedge $-1 $321 $202 $476 $477 reversed $127 $-1 #
coedge $-1 $202 $320 $472 $478 reversed $127 $-1 #
coedge $-1 $474 $479 $202 $323 forward $480 $-1 #
edge $-1 $481 -9.8583568063678015 $482 -5.3652779240567483 $322 $483 forward 7 unknown #
loop $-1 $-1 $329 $203 #
plane-surface $-1 1.971673611933511e-006 18.143290251514642 138.64860169387708 0.86602541151947299 0 0.49999998660252726 0.49999998660252726 0 -0.86602541151947299 forward_v I I I I #
loop $-1 $-1 $484 $129 #
coedge $-1 $327 $327 $328 $485 reversed $204 $-1 #
coedge $-1 $328 $328 $327 $485 forward $206 $-1 #
coedge $-1 $329 $329 $207 $330 forward $324 $-1 #
edge $-1 $486 0 $486 6.2831853071796004 $329 $487 forward 7 unknown #
loop $-1 $-1 $336 $208 #
plane-surface $-1 1.971673611933511e-006 18.143290251514642 138.64860169387708 0.86602541151947299 0 0.49999998660252726 0.49999998660252726 0 -0.86602541151947299 forward_v I I I I #
loop $-1 $-1 $488 $132 #
coedge $-1 $334 $334 $335 $489 reversed $209 $-1 #
coedge $-1 $335 $335 $334 $489 forward $211 $-1 #
coedge $-1 $336 $336 $212 $337 forward $331 $-1 #
edge $-1 $490 0 $490 6.2831853071796004 $336 $491 forward 7 unknown #
face $-1 $492 $493 $69 $-1 $494 reversed single #
loop $-1 $-1 $495 $213 #
plane-surface $-1 127.45086352279709 27.951594798572366 212.23238828996983 0 1 0 0.86602541151947299 0 0.49999998660252726 forward_v I I I I #
coedge $-1 $496 $497 $498 $499 reversed $214 $-1 #
coedge $-1 $343 $216 $500 $501 reversed $136 $-1 #
coedge $-1 $216 $342 $496 $502 reversed $136 $-1 #
coedge $-1 $498 $503 $216 $345 forward $504 $-1 #
edge $-1 $505 -9.8583568063678015 $506 -5.3652779240567483 $344 $507 forward 7 unknown #
loop $-1 $-1 $351 $217 #
plane-surface $-1 1.971673611933511e-006 31.971996306255136 138.64860169387708 0.86602541151947299 0 0.49999998660252726 0.49999998660252726 0 -0.86602541151947299 forward_v I I I I #
loop $-1 $-1 $508 $138 #
coedge $-1 $349 $349 $350 $509 reversed $218 $-1 #
coedge $-1 $350 $350 $349 $509 forward $220 $-1 #
coedge $-1 $351 $351 $221 $352 forward $346 $-1 #
edge $-1 $510 0 $510 6.2831853071796004 $351 $511 forward 7 unknown #
loop $-1 $-1 $358 $222 #
plane-surface $-1 1.971673611933511e-006 31.971996306255136 138.64860169387708 0.86602541151947299 0 0.49999998660252726 0.49999998660252726 0 -0.86602541151947299 forward_v I I I I #
loop $-1 $-1 $512 $141 #
coedge $-1 $356 $356 $357 $513 reversed $223 $-1 #
coedge $-1 $357 $357 $356 $513 forward $225 $-1 #
coedge $-1 $358 $358 $226 $359 forward $353 $-1 #
edge $-1 $514 0 $514 6.2831853071796004 $358 $515 forward 7 unknown #
face $-1 $516 $517 $54 $-1 $518 reversed single #
loop $-1 $-1 $519 $227 #
plane-surface $-1 -73.583788567766348 0 0 1 0 0 0 0 -1 forward_v I I I I #
coedge $-1 $520 $371 $521 $522 forward $228 $-1 #
coedge $-1 $523 $230 $520 $524 forward $145 $-1 #
coedge $-1 $230 $523 $525 $526 forward $145 $-1 #
coedge $-1 $374 $373 $230 $367 reversed $375 $-1 #
edge $-1 $527 -39.422469250412959 $528 39.422469250412959 $366 $529 forward 7 unknown #
coedge $-1 $232 $231 $530 $531 forward $91 $-1 #
coedge $-1 $532 $533 $231 $370 reversed $517 $-1 #
edge $-1 $377 -73.583788567766348 $534 73.583788567766348 $369 $535 forward 7 unknown #
coedge $-1 $363 $536 $232 $372 reversed $228 $-1 #
edge $-1 $537 -73.583788567766348 $376 73.583788567766348 $371 $538 forward 7 unknown #
coedge $-1 $366 $233 $536 $539 forward $375 $-1 #
coedge $-1 $233 $366 $532 $540 reversed $375 $-1 #
loop $-1 $-1 $373 $516 #
vertex $-1 $234 $541 #
vertex $-1 $234 $542 #
straight-curve $-1 73.583788567766348 0 18.979981327364108 0 1 0 I I #
face $-1 $543 $544 $55 $-1 $545 reversed single #
loop $-1 $-1 $546 $235 #
plane-surface $-1 0 -51.187526391344932 11.765321229773049 0 0 1 1 0 0 forward_v I I I I #
coedge $-1 $241 $547 $548 $549 forward $236 $-1 #
coedge $-1 $550 $238 $551 $552 reversed $149 $-1 #
coedge $-1 $238 $550 $389 $553 reversed $149 $-1 #
edge $-1 $390 -16.258028257309945 $554 -11.765321229773049 $238 $555 forward 7 unknown #
coedge $-1 $240 $239 $556 $557 forward $94 $-1 #
coedge $-1 $548 $558 $239 $388 forward $559 $-1 #
edge $-1 $560 11.765321229773049 $391 16.258028257309945 $387 $561 forward 7 unknown #
coedge $-1 $547 $241 $384 $553 forward $236 $-1 #
vertex $-1 $385 $562 #
vertex $-1 $549 $563 #
straight-curve $-1 0 -39.422469250412959 16.258028257309945 1 0 0 I I #
face $-1 $-1 $564 $56 $-1 $565 reversed single #
loop $-1 $-1 $249 $243 #
plane-surface $-1 0 0 18.979981327364108 0 0 1 1 0 0 forward_v I I I I #
coedge $-1 $566 $567 $568 $569 reversed $244 $-1 #
coedge $-1 $570 $246 $248 $403 forward $153 $-1 #
coedge $-1 $246 $570 $566 $571 forward $153 $-1 #
coedge $-1 $568 $249 $246 $400 forward $394 $-1 #
edge $-1 $406 8.7084528580099061 $572 21.369953667207639 $399 $573 forward 7 unknown #
coedge $-1 $574 $575 $247 $402 forward $564 $-1 #
edge $-1 $576 -33.590484532677003 $405 -23.22643783803921 $401 $577 forward 7 unknown #
edge $-1 $406 -12.091042893746275 $576 -2.7113386213432547e-014 $248 $578 forward 7 unknown #
coedge $-1 $249 $568 $574 $579 forward $394 $-1 #
vertex $-1 $402 $580 #
vertex $-1 $250 $581 #
straight-curve $-1 -99.865512282470547 23.747656120618679 18.979981327364108 1 0 0 I I #
coedge $-1 $408 $408 $-1 $582 reversed $253 $-1 #
edge $-1 $583 0 $583 6.2831853071796004 $254 $584 forward 7 unknown #
vertex $-1 $257 $585 #
ellipse-curve $-1 -70.470114918771529 26.279956282458215 13.797957980045201 -0.85716730853699208 0 0.51503806187062418 0.51503806187062418 0 0.85716730853699208 1 I I #
coedge $-1 $412 $412 $-1 $586 reversed $260 $-1 #
edge $-1 $587 0 $587 6.2831853071796004 $261 $588 forward 7 unknown #
vertex $-1 $264 $589 #
ellipse-curve $-1 -70.470114918771529 30.078406525217531 13.797957980045201 -0.85716730853699208 0 0.51503806187062418 0.51503806187062418 0 0.85716730853699208 1 I I #
coedge $-1 $416 $416 $-1 $590 reversed $267 $-1 #
edge $-1 $591 0 $591 6.2831853071796004 $268 $592 forward 7 unknown #
vertex $-1 $271 $593 #
ellipse-curve $-1 -70.470114918771529 33.876856767976847 13.797957980045201 -0.85716730853699208 0 0.51503806187062418 0.51503806187062418 0 0.85716730853699208 1 I I #
face $-1 $-1 $432 $60 $-1 $594 forward single #
loop $-1 $-1 $595 $272 #
plane-surface $-1 73.583788567766348 0 0 -1 0 0 0 0 1 forward_v I I I I #
coedge $-1 $596 $597 $598 $599 reversed $273 $-1 #
coedge $-1 $600 $275 $277 $430 forward $172 $-1 #
coedge $-1 $275 $600 $596 $601 forward $172 $-1 #
coedge $-1 $598 $278 $275 $427 forward $432 $-1 #
edge $-1 $434 0.73665942130040385 $602 8.7774624366659406 $426 $603 forward 7 unknown #
coedge $-1 $604 $605 $276 $429 forward $421 $-1 #
edge $-1 $606 -94.9184540022313 $433 -87.136212817620816 $428 $607 forward 7 unknown #
edge $-1 $434 138.18141913012693 $606 147.16757713553267 $277 $608 forward 7 unknown #
coedge $-1 $278 $598 $604 $609 forward $432 $-1 #
loop $-1 $-1 $598 $420 #
vertex $-1 $429 $610 #
vertex $-1 $279 $611 #
straight-curve $-1 63.725431761398546 -5.4937203502835761 18.979981327364101 -1 0 0 I I #
coedge $-1 $436 $436 $-1 $612 reversed $282 $-1 #
edge $-1 $613 0 $613 6.2831853071796004 $283 $614 forward 7 unknown #
vertex $-1 $286 $615 #
ellipse-curve $-1 71.337249126610814 -11.23715107554467 15.088860735058869 0.86602541151947299 0 0.49999998660252726 0.49999998660252726 0 -0.86602541151947299 1 I I #
coedge $-1 $440 $440 $-1 $616 reversed $289 $-1 #
edge $-1 $617 0 $617 6.2831853071796004 $290 $618 forward 7 unknown #
vertex $-1 $293 $619 #
ellipse-curve $-1 71.337249126610814 -7.7910926403880083 15.088860735058869 0.86602541151947299 0 0.49999998660252726 0.49999998660252726 0 -0.86602541151947299 1 I I #
face $-1 $-1 $456 $63 $-1 $620 forward single #
loop $-1 $-1 $621 $294 #
plane-surface $-1 73.583788567766348 0 0 -1 0 0 0 0 1 forward_v I I I I #
coedge $-1 $622 $623 $624 $625 reversed $295 $-1 #
coedge $-1 $626 $297 $299 $454 forward $186 $-1 #
coedge $-1 $297 $626 $622 $627 forward $186 $-1 #
coedge $-1 $624 $300 $297 $451 forward $456 $-1 #
edge $-1 $458 -6.1776936060698429 $628 1.8631094092956939 $450 $629 forward 7 unknown #
coedge $-1 $630 $631 $298 $453 forward $445 $-1 #
edge $-1 $632 -94.9184540022313 $457 -87.136212817620816 $452 $633 forward 7 unknown #
edge $-1 $458 138.18141913012693 $632 147.16757713553267 $299 $634 forward 7 unknown #
coedge $-1 $300 $624 $630 $635 forward $456 $-1 #
loop $-1 $-1 $624 $444 #
vertex $-1 $453 $636 #
vertex $-1 $301 $637 #
straight-curve $-1 63.725431761398546 8.3349857044569173 18.979981327364101 -1 0 0 I I #
coedge $-1 $460 $460 $-1 $638 reversed $304 $-1 #
edge $-1 $639 0 $639 6.2831853071796004 $305 $640 forward 7 unknown #
vertex $-1 $308 $641 #
ellipse-curve $-1 71.337249126610814 2.5915549791958199 15.088860735058869 0.86602541151947299 0 0.49999998660252726 0.49999998660252726 0 -0.86602541151947299 1 I I #
coedge $-1 $464 $464 $-1 $642 reversed $311 $-1 #
edge $-1 $643 0 $643 6.2831853071796004 $312 $644 forward 7 unknown #
vertex $-1 $315 $645 #
ellipse-curve $-1 71.337249126610814 6.0376134143524851 15.088860735058869 0.86602541151947299 0 0.49999998660252726 0.49999998660252726 0 -0.86602541151947299 1 I I #
face $-1 $-1 $480 $66 $-1 $646 forward single #
loop $-1 $-1 $647 $316 #
plane-surface $-1 73.583788567766348 0 0 -1 0 0 0 0 1 forward_v I I I I #
coedge $-1 $648 $649 $650 $651 reversed $317 $-1 #
coedge $-1 $652 $319 $321 $478 forward $200 $-1 #
coedge $-1 $319 $652 $648 $653 forward $200 $-1 #
coedge $-1 $650 $322 $319 $475 forward $480 $-1 #
edge $-1 $482 -13.092046633440091 $654 -5.0512436180745528 $474 $655 forward 7 unknown #
coedge $-1 $656 $657 $320 $477 forward $469 $-1 #
edge $-1 $658 -94.9184540022313 $481 -87.136212817620816 $476 $659 forward 7 unknown #
edge $-1 $482 138.18141913012693 $658 147.16757713553267 $321 $660 forward 7 unknown #
coedge $-1 $322 $650 $656 $661 forward $480 $-1 #
loop $-1 $-1 $650 $468 #
vertex $-1 $477 $662 #
vertex $-1 $323 $663 #
straight-curve $-1 63.725431761398546 22.163691759197413 18.979981327364101 -1 0 0 I I #
coedge $-1 $484 $484 $-1 $664 reversed $326 $-1 #
edge $-1 $665 0 $665 6.2831853071796004 $327 $666 forward 7 unknown #
vertex $-1 $330 $667 #
ellipse-curve $-1 71.337249126610814 16.420261033936313 15.088860735058869 0.86602541151947299 0 0.49999998660252726 0.49999998660252726 0 -0.86602541151947299 1 I I #
coedge $-1 $488 $488 $-1 $668 reversed $333 $-1 #
edge $-1 $669 0 $669 6.2831853071796004 $334 $670 forward 7 unknown #
vertex $-1 $337 $671 #
ellipse-curve $-1 71.337249126610814 19.866319469092979 15.088860735058869 0.86602541151947299 0 0.49999998660252726 0.49999998660252726 0 -0.86602541151947299 1 I I #
face $-1 $-1 $504 $69 $-1 $672 forward single #
loop $-1 $-1 $673 $338 #
plane-surface $-1 73.583788567766348 0 0 -1 0 0 0 0 1 forward_v I I I I #
coedge $-1 $674 $675 $676 $677 reversed $339 $-1 #
coedge $-1 $678 $341 $343 $502 forward $214 $-1 #
coedge $-1 $341 $678 $674 $679 forward $214 $-1 #
coedge $-1 $676 $344 $341 $499 forward $504 $-1 #
edge $-1 $506 -20.006399660810338 $680 -11.965596645444798 $498 $681 forward 7 unknown #
coedge $-1 $682 $683 $342 $501 forward $493 $-1 #
edge $-1 $684 -94.9184540022313 $505 -87.136212817620816 $500 $685 forward 7 unknown #
edge $-1 $506 138.18141913012693 $684 147.16757713553267 $343 $686 forward 7 unknown #
coedge $-1 $344 $676 $682 $687 forward $504 $-1 #
loop $-1 $-1 $676 $492 #
vertex $-1 $501 $688 #
vertex $-1 $345 $689 #
straight-curve $-1 63.725431761398546 35.992397813937906 18.979981327364101 -1 0 0 I I #
coedge $-1 $508 $508 $-1 $690 reversed $348 $-1 #
edge $-1 $691 0 $691 6.2831853071796004 $349 $692 forward 7 unknown #
vertex $-1 $352 $693 #
ellipse-curve $-1 71.337249126610814 30.248967088676807 15.088860735058869 0.86602541151947299 0 0.49999998660252726 0.49999998660252726 0 -0.86602541151947299 1 I I #
coedge $-1 $512 $512 $-1 $694 reversed $355 $-1 #
edge $-1 $695 0 $695 6.2831853071796004 $356 $696 forward 7 unknown #
vertex $-1 $359 $697 #
ellipse-curve $-1 71.337249126610814 33.695025523833465 15.088860735058869 0.86602541151947299 0 0.49999998660252726 0.49999998660252726 0 -0.86602541151947299 1 I I #
face $-1 $-1 $375 $54 $-1 $698 reversed single #
loop $-1 $-1 $532 $360 #
plane-surface $-1 0 39.422469250412959 0 0 -1 0 0 0 -1 forward_v I I I I #
coedge $-1 $699 $530 $533 $700 forward $361 $-1 #
coedge $-1 $536 $363 $364 $524 reversed $228 $-1 #
coedge $-1 $530 $699 $363 $522 reversed $361 $-1 #
edge $-1 $537 -18.979981327364108 $701 18.979981327364108 $521 $702 forward 7 unknown #
coedge $-1 $365 $364 $699 $703 forward $145 $-1 #
edge $-1 $528 -73.583788567766348 $701 73.583788567766348 $520 $704 forward 7 unknown #
coedge $-1 $533 $532 $365 $526 reversed $517 $-1 #
edge $-1 $705 -73.583788567766348 $527 73.583788567766348 $525 $706 forward 7 unknown #
vertex $-1 $367 $707 #
vertex $-1 $539 $708 #
straight-curve $-1 73.583788567766348 0 -18.979981327364108 0 -1 0 I I #
coedge $-1 $519 $521 $368 $531 reversed $361 $-1 #
edge $-1 $534 -39.422469250412959 $537 39.422469250412959 $530 $709 forward 7 unknown #
coedge $-1 $525 $369 $374 $540 forward $517 $-1 #
coedge $-1 $369 $525 $519 $700 reversed $517 $-1 #
vertex $-1 $370 $710 #
straight-curve $-1 0 39.422469250412959 18.979981327364108 -1 0 0 I I #
coedge $-1 $371 $520 $373 $539 reversed $228 $-1 #
vertex $-1 $531 $711 #
straight-curve $-1 0 -39.422469250412959 18.979981327364108 1 0 0 I I #
edge $-1 $376 -18.979981327364108 $528 18.979981327364108 $373 $712 forward 7 unknown #
edge $-1 $377 -18.979981327364108 $527 18.979981327364108 $374 $713 forward 7 unknown #
point $-1 73.583788567766348 -39.422469250412959 18.979981327364108 #
point $-1 73.583788567766348 39.422469250412959 18.979981327364108 #
face $-1 $-1 $559 $55 $-1 $714 reversed single #
loop $-1 $-1 $715 $379 #
plane-surface $-1 0 -62.952583532276904 14.011674743541498 0 1 0 0 0 1 forward_v I I I I #
coedge $-1 $716 $556 $558 $717 forward $380 $-1 #
coedge $-1 $382 $389 $718 $719 forward $236 $-1 #
coedge $-1 $720 $387 $382 $549 reversed $559 $-1 #
edge $-1 $721 -11.765057140931972 $391 11.765057140931972 $548 $722 forward 7 unknown #
coedge $-1 $384 $383 $715 $723 reversed $149 $-1 #
coedge $-1 $556 $716 $383 $552 forward $380 $-1 #
edge $-1 $724 -11.765057140931972 $554 11.765057140931972 $383 $725 forward 7 unknown #
edge $-1 $390 -11.765057140931972 $726 11.765057140931972 $384 $727 forward 7 unknown #
vertex $-1 $385 $728 #
straight-curve $-1 -73.583788567766348 -39.422469250412959 0 0 0 -1 I I #
coedge $-1 $546 $551 $386 $557 reversed $380 $-1 #
edge $-1 $560 -73.583788567766348 $554 73.583788567766348 $556 $729 forward 7 unknown #
coedge $-1 $387 $720 $546 $717 reversed $559 $-1 #
loop $-1 $-1 $387 $543 #
vertex $-1 $388 $730 #
straight-curve $-1 73.583788567766348 -39.422469250412959 0 0 0 1 I I #
point $-1 -73.583788567766348 -39.422469250412959 16.258028257309945 #
point $-1 73.583788567766348 -39.422469250412959 16.258028257309945 #
loop $-1 $-1 $401 $393 #
plane-surface $-1 -73.583788567766348 0 0 1 0 0 0 0 -1 forward_v I I I I #
coedge $-1 $567 $396 $398 $571 reversed $244 $-1 #
coedge $-1 $396 $566 $731 $732 reversed $244 $-1 #
coedge $-1 $404 $399 $396 $569 forward $394 $-1 #
edge $-1 $572 -32.509071012693852 $733 -26.281723714704199 $568 $734 forward 7 unknown #
coedge $-1 $398 $397 $575 $735 reversed $153 $-1 #
edge $-1 $736 2.7113386213432547e-014 $572 12.091042893746275 $566 $737 forward 7 unknown #
vertex $-1 $400 $738 #
straight-curve $-1 -67.356441269776695 15.039203262608773 18.979981327364108 0 1 0 I I #
coedge $-1 $731 $401 $404 $579 reversed $564 $-1 #
coedge $-1 $401 $731 $570 $735 forward $564 $-1 #
vertex $-1 $402 $739 #
straight-curve $-1 -73.583788567766348 23.747656120618679 42.206419165403318 0 0 1 I I #
straight-curve $-1 -73.583788567766362 23.747656120618679 8.6159346327262938 -0.51503806187062418 0 -0.85716730853699208 I I #
edge $-1 $733 -36.409156929816412 $405 -23.747656120618679 $574 $740 forward 7 unknown #
point $-1 -73.583788567766348 23.747656120618679 18.979981327364108 #
point $-1 -67.356441269776695 23.747656120618679 18.979981327364108 #
edge $-1 $741 1 $741 0 $408 $-1 forward 7 unknown #
vertex $-1 $409 $742 #
ellipse-curve $-1 -68.906092608434591 26.279956282458215 12.858198598865316 -0.85716730853699208 0 0.51503806187062418 0.51503806187062418 0 0.85716730853699208 1 I I #
point $-1 -69.955076856900888 26.279956282458215 14.65512528858218 #
edge $-1 $743 1 $743 0 $412 $-1 forward 7 unknown #
vertex $-1 $413 $744 #
ellipse-curve $-1 -68.906092608434591 30.078406525217531 12.858198598865316 -0.85716730853699208 0 0.51503806187062418 0.51503806187062418 0 0.85716730853699208 1 I I #
point $-1 -69.955076856900888 30.078406525217531 14.65512528858218 #
edge $-1 $745 1 $745 0 $416 $-1 forward 7 unknown #
vertex $-1 $417 $746 #
ellipse-curve $-1 -68.906092608434591 33.876856767976847 12.858198598865316 -0.85716730853699208 0 0.51503806187062418 0.51503806187062418 0 0.85716730853699208 1 I I #
point $-1 -69.955076856900888 33.876856767976847 14.65512528858218 #
plane-surface $-1 0 0 18.979981327364108 0 0 1 1 0 0 forward_v I I I I #
coedge $-1 $605 $604 $597 $747 forward $421 $-1 #
coedge $-1 $597 $423 $425 $601 reversed $273 $-1 #
coedge $-1 $423 $596 $595 $747 reversed $273 $-1 #
coedge $-1 $431 $426 $423 $599 forward $432 $-1 #
edge $-1 $602 5.3652779240567483 $748 9.8583568063678015 $598 $749 forward 7 unknown #
coedge $-1 $425 $424 $605 $750 reversed $172 $-1 #
edge $-1 $751 -147.16757713553267 $602 -138.18141913012693 $596 $752 forward 7 unknown #
vertex $-1 $427 $753 #
straight-curve $-1 69.090709685455295 -4.7570609289831722 18.979981327364115 0 -1 0 I I #
coedge $-1 $595 $428 $431 $609 reversed $421 $-1 #
coedge $-1 $428 $595 $600 $750 forward $421 $-1 #
vertex $-1 $429 $754 #
straight-curve $-1 73.583788567766348 -5.4937203502835761 106.11619414498492 0 0 1 I I #
straight-curve $-1 1.971673611933511e-006 -5.4937203502835761 138.64860169387708 0.49999998660252726 0 -0.86602541151947299 I I #
edge $-1 $748 -13.534523365649113 $433 -5.4937203502835761 $604 $755 forward 7 unknown #
point $-1 73.583788567766348 -5.4937203502835761 18.979981327364108 #
point $-1 69.090709685455295 -5.4937203502835761 18.979981327364115 #
edge $-1 $756 1 $756 0 $436 $-1 forward 7 unknown #
vertex $-1 $437 $757 #
ellipse-curve $-1 69.450293218061574 -11.23715107554467 13.999426272230791 0.86602541151947299 0 0.49999998660252726 0.49999998660252726 0 -0.86602541151947299 1 I I #
point $-1 71.837249113213332 -11.23715107554467 14.222835323539389 #
edge $-1 $758 1 $758 0 $440 $-1 forward 7 unknown #
vertex $-1 $441 $759 #
ellipse-curve $-1 69.450293218061574 -7.7910926403880083 13.999426272230791 0.86602541151947299 0 0.49999998660252726 0.49999998660252726 0 -0.86602541151947299 1 I I #
point $-1 71.837249113213332 -7.7910926403880083 14.222835323539389 #
plane-surface $-1 0 0 18.979981327364108 0 0 1 1 0 0 forward_v I I I I #
coedge $-1 $631 $630 $623 $760 forward $445 $-1 #
coedge $-1 $623 $447 $449 $627 reversed $295 $-1 #
coedge $-1 $447 $622 $621 $760 reversed $295 $-1 #
coedge $-1 $455 $450 $447 $625 forward $456 $-1 #
edge $-1 $628 5.3652779240567483 $761 9.8583568063678015 $624 $762 forward 7 unknown #
coedge $-1 $449 $448 $631 $763 reversed $186 $-1 #
edge $-1 $764 -147.16757713553267 $628 -138.18141913012693 $622 $765 forward 7 unknown #
vertex $-1 $451 $766 #
straight-curve $-1 69.090709685455295 2.1572920983870745 18.979981327364115 0 -1 0 I I #
coedge $-1 $621 $452 $455 $635 reversed $445 $-1 #
coedge $-1 $452 $621 $626 $763 forward $445 $-1 #
vertex $-1 $453 $767 #
straight-curve $-1 73.583788567766348 8.3349857044569173 106.11619414498492 0 0 1 I I #
straight-curve $-1 1.971673611933511e-006 8.3349857044569173 138.64860169387708 0.49999998660252726 0 -0.86602541151947299 I I #
edge $-1 $761 0.29418268909138057 $457 8.3349857044569173 $630 $768 forward 7 unknown #
point $-1 73.583788567766348 8.3349857044569173 18.979981327364108 #
point $-1 69.090709685455295 8.3349857044569173 18.979981327364115 #
edge $-1 $769 1 $769 0 $460 $-1 forward 7 unknown #
vertex $-1 $461 $770 #
ellipse-curve $-1 69.450293218061574 2.5915549791958199 13.999426272230791 0.86602541151947299 0 0.49999998660252726 0.49999998660252726 0 -0.86602541151947299 1 I I #
point $-1 71.837249113213332 2.5915549791958199 14.222835323539389 #
edge $-1 $771 1 $771 0 $464 $-1 forward 7 unknown #
vertex $-1 $465 $772 #
ellipse-curve $-1 69.450293218061574 6.0376134143524851 13.999426272230791 0.86602541151947299 0 0.49999998660252726 0.49999998660252726 0 -0.86602541151947299 1 I I #
point $-1 71.837249113213332 6.0376134143524851 14.222835323539389 #
plane-surface $-1 0 0 18.979981327364108 0 0 1 1 0 0 forward_v I I I I #
coedge $-1 $657 $656 $649 $773 forward $469 $-1 #
coedge $-1 $649 $471 $473 $653 reversed $317 $-1 #
coedge $-1 $471 $648 $647 $773 reversed $317 $-1 #
coedge $-1 $479 $474 $471 $651 forward $480 $-1 #
edge $-1 $654 5.3652779240567483 $774 9.8583568063678015 $650 $775 forward 7 unknown #
coedge $-1 $473 $472 $657 $776 reversed $200 $-1 #
edge $-1 $777 -147.16757713553267 $654 -138.18141913012693 $648 $778 forward 7 unknown #
vertex $-1 $475 $779 #
straight-curve $-1 69.090709685455295 9.0716451257573212 18.979981327364115 0 -1 0 I I #
coedge $-1 $647 $476 $479 $661 reversed $469 $-1 #
coedge $-1 $476 $647 $652 $776 forward $469 $-1 #
vertex $-1 $477 $780 #
straight-curve $-1 73.583788567766348 22.163691759197413 106.11619414498492 0 0 1 I I #
straight-curve $-1 1.971673611933511e-006 22.163691759197413 138.64860169387708 0.49999998660252726 0 -0.86602541151947299 I I #
edge $-1 $774 14.122888743831874 $481 22.163691759197413 $656 $781 forward 7 unknown #
point $-1 73.583788567766348 22.163691759197413 18.979981327364108 #
point $-1 69.090709685455295 22.163691759197413 18.979981327364115 #
edge $-1 $782 1 $782 0 $484 $-1 forward 7 unknown #
vertex $-1 $485 $783 #
ellipse-curve $-1 69.450293218061574 16.420261033936313 13.999426272230791 0.86602541151947299 0 0.49999998660252726 0.49999998660252726 0 -0.86602541151947299 1 I I #
point $-1 71.837249113213332 16.420261033936313 14.222835323539389 #
edge $-1 $784 1 $784 0 $488 $-1 forward 7 unknown #
vertex $-1 $489 $785 #
ellipse-curve $-1 69.450293218061574 19.866319469092979 13.999426272230791 0.86602541151947299 0 0.49999998660252726 0.49999998660252726 0 -0.86602541151947299 1 I I #
point $-1 71.837249113213332 19.866319469092979 14.222835323539389 #
plane-surface $-1 0 0 18.979981327364108 0 0 1 1 0 0 forward_v I I I I #
coedge $-1 $683 $682 $675 $786 forward $493 $-1 #
coedge $-1 $675 $495 $497 $679 reversed $339 $-1 #
coedge $-1 $495 $674 $673 $786 reversed $339 $-1 #
coedge $-1 $503 $498 $495 $677 forward $504 $-1 #
edge $-1 $680 5.3652779240567483 $787 9.8583568063678015 $676 $788 forward 7 unknown #
coedge $-1 $497 $496 $683 $789 reversed $214 $-1 #
edge $-1 $790 -147.16757713553267 $680 -138.18141913012693 $674 $791 forward 7 unknown #
vertex $-1 $499 $792 #
straight-curve $-1 69.090709685455295 15.985998153127568 18.979981327364115 0 -1 0 I I #
coedge $-1 $673 $500 $503 $687 reversed $493 $-1 #
coedge $-1 $500 $673 $678 $789 forward $493 $-1 #
vertex $-1 $501 $793 #
straight-curve $-1 73.583788567766348 35.992397813937906 106.11619414498492 0 0 1 I I #
straight-curve $-1 1.971673611933511e-006 35.992397813937906 138.64860169387708 0.49999998660252726 0 -0.86602541151947299 I I #
edge $-1 $787 27.951594798572366 $505 35.992397813937906 $682 $794 forward 7 unknown #
point $-1 73.583788567766348 35.992397813937906 18.979981327364108 #
point $-1 69.090709685455295 35.992397813937906 18.979981327364115 #
edge $-1 $795 1 $795 0 $508 $-1 forward 7 unknown #
vertex $-1 $509 $796 #
ellipse-curve $-1 69.450293218061574 30.248967088676807 13.999426272230791 0.86602541151947299 0 0.49999998660252726 0.49999998660252726 0 -0.86602541151947299 1 I I #
point $-1 71.837249113213332 30.248967088676807 14.222835323539389 #
edge $-1 $797 1 $797 0 $512 $-1 forward 7 unknown #
vertex $-1 $513 $798 #
ellipse-curve $-1 69.450293218061574 33.695025523833465 13.999426272230791 0.86602541151947299 0 0.49999998660252726 0.49999998660252726 0 -0.86602541151947299 1 I I #
point $-1 71.837249113213332 33.695025523833465 14.222835323539389 #
plane-surface $-1 73.583788567766348 0 0 -1 0 0 0 0 1 forward_v I I I I #
coedge $-1 $521 $519 $523 $703 reversed $361 $-1 #
edge $-1 $534 -18.979981327364108 $705 18.979981327364108 $533 $799 forward 7 unknown #
vertex $-1 $703 $800 #
straight-curve $-1 -73.583788567766348 -39.422469250412959 0 0 0 -1 I I #
edge $-1 $701 -39.422469250412959 $705 39.422469250412959 $699 $801 forward 7 unknown #
straight-curve $-1 0 -39.422469250412959 -18.979981327364108 -1 0 0 I I #
vertex $-1 $526 $802 #
straight-curve $-1 0 39.422469250412959 -18.979981327364108 1 0 0 I I #
point $-1 73.583788567766348 39.422469250412959 -18.979981327364108 #
point $-1 73.583788567766348 -39.422469250412959 -18.979981327364108 #
straight-curve $-1 -73.583788567766348 0 18.979981327364108 0 -1 0 I I #
point $-1 -73.583788567766348 39.422469250412959 18.979981327364108 #
point $-1 -73.583788567766348 -39.422469250412959 18.979981327364108 #
straight-curve $-1 73.583788567766348 -39.422469250412959 0 0 0 -1 I I #
straight-curve $-1 73.583788567766348 39.422469250412959 0 0 0 -1 I I #
plane-surface $-1 73.583788567766348 0 0 -1 0 0 0 0 1 forward_v I I I I #
coedge $-1 $803 $718 $550 $723 forward $544 $-1 #
coedge $-1 $551 $546 $803 $804 forward $380 $-1 #
edge $-1 $560 -11.765057140931972 $805 11.765057140931972 $558 $806 forward 7 unknown #
coedge $-1 $715 $807 $547 $719 reversed $544 $-1 #
edge $-1 $726 -73.583788567766348 $721 73.583788567766348 $718 $808 forward 7 unknown #
coedge $-1 $558 $548 $807 $809 forward $559 $-1 #
vertex $-1 $549 $810 #
straight-curve $-1 73.583788567766348 -51.187526391344932 16.258028257309945 0 1 0 I I #
edge $-1 $726 -2.2463535137684474 $724 2.2463535137684492 $550 $811 forward 7 unknown #
vertex $-1 $552 $812 #
straight-curve $-1 -73.583788567766348 -51.187526391344932 11.765321229773049 0 1 0 I I #
vertex $-1 $553 $813 #
straight-curve $-1 -73.583788567766348 -51.187526391344932 16.258028257309945 0 -1 0 I I #
point $-1 -73.583788567766348 -39.422469250412959 11.765321229773049 #
straight-curve $-1 0 -39.422469250412959 11.765321229773049 -1 0 0 I I #
point $-1 73.583788567766348 -39.422469250412959 11.765321229773049 #
coedge $-1 $575 $574 $567 $732 forward $564 $-1 #
edge $-1 $733 23.22643783803921 $736 33.590484532677003 $731 $814 forward 7 unknown #
vertex $-1 $579 $815 #
straight-curve $-1 -99.865512282470547 36.409156929816412 18.979981327364108 -1 0 0 I I #
edge $-1 $736 -21.369953667207639 $576 -8.7084528580099061 $575 $816 forward 7 unknown #
vertex $-1 $735 $817 #
straight-curve $-1 -73.583788567766362 36.409156929816412 8.6159346327262938 0.51503806187062418 0 0.85716730853699208 I I #
point $-1 -67.356441269776695 36.409156929816412 18.979981327364108 #
point $-1 -73.583788567766348 23.747656120618679 8.6159346327263169 #
straight-curve $-1 -73.583788567766348 0 18.979981327364108 0 -1 0 I I #
vertex $-1 $582 $818 #
point $-1 -68.391054546563964 26.279956282458215 13.715365907402308 #
vertex $-1 $586 $819 #
point $-1 -68.391054546563964 30.078406525217531 13.715365907402308 #
vertex $-1 $590 $820 #
point $-1 -68.391054546563964 33.876856767976847 13.715365907402308 #
edge $-1 $748 87.136212817620816 $751 94.9184540022313 $595 $821 forward 7 unknown #
vertex $-1 $609 $822 #
straight-curve $-1 63.725431761398546 -13.534523365649113 18.979981327364101 1 0 0 I I #
edge $-1 $751 -8.7774624366659406 $606 -0.73665942130040385 $605 $823 forward 7 unknown #
vertex $-1 $750 $824 #
straight-curve $-1 1.971673611933511e-006 -13.534523365649113 138.64860169387708 -0.49999998660252726 0 0.86602541151947299 I I #
point $-1 69.090709685455295 -13.534523365649113 18.979981327364115 #
point $-1 73.583788567766348 -5.4937203502835761 11.197740142753617 #
straight-curve $-1 73.583788567766348 0 18.979981327364108 0 1 0 I I #
vertex $-1 $612 $825 #
point $-1 69.950293204664106 -11.23715107554467 13.133400860711317 #
vertex $-1 $616 $826 #
point $-1 69.950293204664106 -7.7910926403880083 13.133400860711317 #
edge $-1 $761 87.136212817620816 $764 94.9184540022313 $621 $827 forward 7 unknown #
vertex $-1 $635 $828 #
straight-curve $-1 63.725431761398546 0.29418268909138057 18.979981327364101 1 0 0 I I #
edge $-1 $764 -1.8631094092956939 $632 6.1776936060698429 $631 $829 forward 7 unknown #
vertex $-1 $763 $830 #
straight-curve $-1 1.971673611933511e-006 0.29418268909138057 138.64860169387708 -0.49999998660252726 0 0.86602541151947299 I I #
point $-1 69.090709685455295 0.29418268909138057 18.979981327364115 #
point $-1 73.583788567766348 8.3349857044569173 11.197740142753617 #
straight-curve $-1 73.583788567766348 0 18.979981327364108 0 1 0 I I #
vertex $-1 $638 $831 #
point $-1 69.950293204664106 2.5915549791958199 13.133400860711317 #
vertex $-1 $642 $832 #
point $-1 69.950293204664106 6.0376134143524851 13.133400860711317 #
edge $-1 $774 87.136212817620816 $777 94.9184540022313 $647 $833 forward 7 unknown #
vertex $-1 $661 $834 #
straight-curve $-1 63.725431761398546 14.122888743831874 18.979981327364101 1 0 0 I I #
edge $-1 $777 5.0512436180745528 $658 13.092046633440091 $657 $835 forward 7 unknown #
vertex $-1 $776 $836 #
straight-curve $-1 1.971673611933511e-006 14.122888743831874 138.64860169387708 -0.49999998660252726 0 0.86602541151947299 I I #
point $-1 69.090709685455295 14.122888743831874 18.979981327364115 #
point $-1 73.583788567766348 22.163691759197413 11.197740142753617 #
straight-curve $-1 73.583788567766348 0 18.979981327364108 0 1 0 I I #
vertex $-1 $664 $837 #
point $-1 69.950293204664106 16.420261033936313 13.133400860711317 #
vertex $-1 $668 $838 #
point $-1 69.950293204664106 19.866319469092979 13.133400860711317 #
edge $-1 $787 87.136212817620816 $790 94.9184540022313 $673 $839 forward 7 unknown #
vertex $-1 $687 $840 #
straight-curve $-1 63.725431761398546 27.951594798572366 18.979981327364101 1 0 0 I I #
edge $-1 $790 11.965596645444798 $684 20.006399660810338 $683 $841 forward 7 unknown #
vertex $-1 $789 $842 #
straight-curve $-1 1.971673611933511e-006 27.951594798572366 138.64860169387708 -0.49999998660252726 0 0.86602541151947299 I I #
point $-1 69.090709685455295 27.951594798572366 18.979981327364115 #
point $-1 73.583788567766348 35.992397813937906 11.197740142753617 #
straight-curve $-1 73.583788567766348 0 18.979981327364108 0 1 0 I I #
vertex $-1 $690 $843 #
point $-1 69.950293204664106 30.248967088676807 13.133400860711317 #
vertex $-1 $694 $844 #
point $-1 69.950293204664106 33.695025523833465 13.133400860711317 #
straight-curve $-1 -73.583788567766348 39.422469250412959 0 0 0 -1 I I #
point $-1 -73.583788567766348 -39.422469250412959 -18.979981327364108 #
straight-curve $-1 -73.583788567766348 0 -18.979981327364108 0 1 0 I I #
point $-1 -73.583788567766348 39.422469250412959 -18.979981327364108 #
coedge $-1 $807 $715 $716 $804 reversed $544 $-1 #
edge $-1 $805 -73.583788567766348 $724 73.583788567766348 $803 $845 forward 7 unknown #
vertex $-1 $809 $846 #
straight-curve $-1 73.583788567766348 -51.187526391344932 11.765321229773049 0 -1 0 I I #
coedge $-1 $718 $803 $720 $809 reversed $544 $-1 #
straight-curve $-1 0 -62.952583532276904 16.258028257309945 1 0 0 I I #
edge $-1 $721 -2.2463535137684474 $805 2.2463535137684492 $720 $847 forward 7 unknown #
point $-1 73.583788567766348 -62.952583532276904 16.258028257309945 #
straight-curve $-1 -73.583788567766348 -62.952583532276904 14.011674743541498 0 0 -1 I I #
point $-1 -73.583788567766348 -62.952583532276904 11.765321229773049 #
point $-1 -73.583788567766348 -62.952583532276904 16.258028257309945 #
straight-curve $-1 -73.583788567766348 36.409156929816412 42.206419165403318 0 0 -1 I I #
point $-1 -73.583788567766348 36.409156929816412 18.979981327364108 #
straight-curve $-1 -73.583788567766348 15.039203262608773 8.6159346327263346 0 -1 0 I I #
point $-1 -73.583788567766348 36.409156929816412 8.6159346327263169 #
point $-1 -68.048925299897604 26.279956282458215 12.343160536994693 #
point $-1 -68.048925299897604 30.078406525217531 12.343160536994693 #
point $-1 -68.048925299897604 33.876856767976847 12.343160536994693 #
straight-curve $-1 73.583788567766348 -13.534523365649113 106.11619414498492 0 0 -1 I I #
point $-1 73.583788567766348 -13.534523365649113 18.979981327364108 #
straight-curve $-1 73.583788567766348 -4.7570609289831722 11.197740142753609 0 1 0 I I #
point $-1 73.583788567766348 -13.534523365649113 11.197740142753617 #
point $-1 68.584267806542101 -11.23715107554467 13.499426285628262 #
point $-1 68.584267806542101 -7.7910926403880083 13.499426285628262 #
straight-curve $-1 73.583788567766348 0.29418268909138057 106.11619414498492 0 0 -1 I I #
point $-1 73.583788567766348 0.29418268909138057 18.979981327364108 #
straight-curve $-1 73.583788567766348 2.1572920983870745 11.197740142753609 0 1 0 I I #
point $-1 73.583788567766348 0.29418268909138057 11.197740142753617 #
point $-1 68.584267806542101 2.5915549791958199 13.499426285628262 #
point $-1 68.584267806542101 6.0376134143524851 13.499426285628262 #
straight-curve $-1 73.583788567766348 14.122888743831874 106.11619414498492 0 0 -1 I I #
point $-1 73.583788567766348 14.122888743831874 18.979981327364108 #
straight-curve $-1 73.583788567766348 9.0716451257573212 11.197740142753609 0 1 0 I I #
point $-1 73.583788567766348 14.122888743831874 11.197740142753617 #
point $-1 68.584267806542101 16.420261033936313 13.499426285628262 #
point $-1 68.584267806542101 19.866319469092979 13.499426285628262 #
straight-curve $-1 73.583788567766348 27.951594798572366 106.11619414498492 0 0 -1 I I #
point $-1 73.583788567766348 27.951594798572366 18.979981327364108 #
straight-curve $-1 73.583788567766348 15.985998153127568 11.197740142753609 0 1 0 I I #
point $-1 73.583788567766348 27.951594798572366 11.197740142753617 #
point $-1 68.584267806542101 30.248967088676807 13.499426285628262 #
point $-1 68.584267806542101 33.695025523833465 13.499426285628262 #
straight-curve $-1 0 -62.952583532276904 11.765321229773049 -1 0 0 I I #
point $-1 73.583788567766348 -62.952583532276904 11.765321229773049 #
straight-curve $-1 73.583788567766348 -62.952583532276904 14.011674743541498 0 0 -1 I I #
End-of-ACIS-data 