500 0 5 0           
7 Unknown 11 ACIS 5.0 NT 24 Thu Mar 25 16:08:43 1999 
-1 9.9999999999999995e-007 1e-010 
body $-1 $5 $-1 $6 #
body $-1 $7 $-1 $8 #
body $-1 $9 $-1 $10 #
body $-1 $11 $-1 $12 #
body $-1 $13 $-1 $14 #
lump $-1 $-1 $15 $0 #
transform $-1 1 0 0 0 1 0 0 0 1 62.633747367778554 40.451113167872144 8.4820553713741251 1 rotate no_reflect no_shear #
lump $-1 $-1 $16 $1 #
transform $-1 1 0 0 0 1 0 0 0 1 62.633747367778554 40.451113167872144 8.4820553713741251 1 rotate no_reflect no_shear #
lump $-1 $-1 $17 $2 #
transform $-1 1 0 0 0 1 0 0 0 1 62.633747367778554 40.451113167872144 8.4820553713741251 1 rotate no_reflect no_shear #
lump $-1 $-1 $18 $3 #
transform $-1 1 0 0 0 1 0 0 0 1 62.633747367778554 40.451113167872144 8.4820553713741251 1 rotate no_reflect no_shear #
lump $-1 $-1 $19 $4 #
transform $-1 1 0 0 0 1 0 0 0 1 62.633747367778554 40.451113167872144 8.4820553713741251 1 rotate no_reflect no_shear #
shell $-1 $-1 $-1 $20 $-1 $5 #
shell $-1 $-1 $-1 $21 $-1 $7 #
shell $-1 $-1 $-1 $22 $-1 $9 #
shell $-1 $-1 $-1 $23 $-1 $11 #
shell $-1 $-1 $-1 $24 $-1 $13 #
face $-1 $25 $26 $15 $-1 $27 forward single #
face $-1 $28 $29 $16 $-1 $30 forward single #
face $-1 $31 $32 $17 $-1 $33 reversed single #
face $-1 $34 $35 $18 $-1 $36 forward single #
face $-1 $37 $38 $19 $-1 $39 forward single #
face $-1 $40 $41 $15 $-1 $42 reversed single #
loop $-1 $-1 $43 $20 #
plane-surface $-1 0 0 8.4820553713741251 0 0 1 1 0 0 forward_v I I I I #
face $-1 $44 $45 $16 $-1 $46 reversed single #
loop $-1 $-1 $47 $21 #
plane-surface $-1 0 -36.779688103750459 -5.4820553713741251 0 0 1 1 0 0 forward_v I I I I #
face $-1 $48 $49 $17 $-1 $50 reversed single #
loop $-1 $-1 $51 $22 #
plane-surface $-1 59.541968489730152 18.490118220802863 177.58625454250824 0 -1 0 -0.69465837861970381 0 -0.71933979245794832 forward_v I I I I #
face $-1 $52 $53 $18 $-1 $54 forward single #
loop $-1 $55 $56 $23 #
cone-surface $-1 56.298566936813849 7.5273597983957075 2.2119370481526608 -0.69465837861970381 0 -0.71933979245794832 1.4386795849158966 0 -1.3893167572394076 1 I I 0 1 2 forward I I I I #
face $-1 $57 $58 $19 $-1 $59 forward single #
loop $-1 $60 $61 $24 #
cone-surface $-1 56.298566936813849 14.105014851840004 2.2119370481526608 -0.69465837861970381 0 -0.71933979245794832 1.4386795849158966 0 -1.3893167572394076 1 I I 0 1 2 forward I I I I #
face $-1 $62 $63 $15 $-1 $64 reversed single #
loop $-1 $-1 $65 $25 #
plane-surface $-1 0 0 -8.4820553713741251 0 0 1 1 0 0 forward_v I I I I #
coedge $-1 $66 $67 $68 $69 forward $26 $-1 #
face $-1 $70 $71 $16 $-1 $72 reversed single #
loop $-1 $-1 $73 $28 #
plane-surface $-1 0 -33.108263039628774 -6.9820553713741251 0 -1 0 0 0 -1 forward_v I I I I #
coedge $-1 $74 $75 $76 $77 reversed $29 $-1 #
face $-1 $78 $79 $17 $-1 $80 reversed single #
loop $-1 $-1 $81 $31 #
plane-surface $-1 -27.476146297024215 10.816187325117852 87.476360877705474 0.69465837861970381 0 0.71933979245794832 0.71933979245794832 0 -0.69465837861970381 forward_v I I I I #
coedge $-1 $82 $83 $84 $85 reversed $32 $-1 #
face $-1 $-1 $86 $18 $-1 $87 forward single #
loop $-1 $88 $89 $34 #
cone-surface $-1 53.423176903885974 7.5273597983957075 -0.76561642731523172 -0.69465837861970381 0 -0.71933979245794832 0.71933979245794832 0 -0.69465837861970381 1 I I -0.70710678118654768 0.70710678118654735 1 forward I I I I #
loop $-1 $-1 $90 $23 #
coedge $-1 $56 $56 $91 $92 reversed $35 $-1 #
face $-1 $-1 $93 $19 $-1 $94 forward single #
loop $-1 $95 $96 $37 #
cone-surface $-1 53.423176903885974 14.105014851840004 -0.76561642731523172 -0.69465837861970381 0 -0.71933979245794832 0.71933979245794832 0 -0.69465837861970381 1 I I -0.70710678118654768 0.70710678118654735 1 forward I I I I #
loop $-1 $-1 $97 $24 #
coedge $-1 $61 $61 $98 $99 reversed $38 $-1 #
face $-1 $100 $101 $15 $-1 $102 reversed single #
loop $-1 $-1 $103 $40 #
plane-surface $-1 0 -40.451113167872144 0 0 1 0 0 0 1 forward_v I I I I #
coedge $-1 $104 $105 $106 $107 forward $41 $-1 #
coedge $-1 $108 $43 $109 $110 forward $26 $-1 #
coedge $-1 $43 $108 $111 $112 forward $26 $-1 #
coedge $-1 $113 $114 $43 $69 reversed $115 $-1 #
edge $-1 $116 -40.451113167872144 $117 40.451113167872144 $68 $118 forward 7 unknown #
face $-1 $119 $120 $16 $-1 $121 reversed single #
loop $-1 $-1 $122 $44 #
plane-surface $-1 0 0 -8.4820553713741251 0 0 1 1 0 0 forward_v I I I I #
coedge $-1 $123 $124 $125 $126 reversed $45 $-1 #
coedge $-1 $127 $47 $124 $128 forward $29 $-1 #
coedge $-1 $47 $127 $129 $130 reversed $29 $-1 #
coedge $-1 $131 $125 $47 $77 forward $120 $-1 #
edge $-1 $132 14.718418987753545 $133 22.061269115996915 $76 $134 forward 7 unknown #
face $-1 $135 $136 $17 $-1 $137 reversed single #
loop $-1 $-1 $138 $48 #
plane-surface $-1 59.541968489730152 3.142256429432841 177.58625454250824 0 1 0 0.69465837861970381 0 0.71933979245794832 forward_v I I I I #
coedge $-1 $139 $140 $141 $142 reversed $49 $-1 #
coedge $-1 $83 $51 $143 $144 reversed $32 $-1 #
coedge $-1 $51 $82 $139 $145 reversed $32 $-1 #
coedge $-1 $141 $146 $51 $85 forward $147 $-1 #
edge $-1 $148 -32.862763122913478 $149 -24.553865569600447 $84 $150 forward 7 unknown #
loop $-1 $-1 $91 $52 #
plane-surface $-1 -27.476146297024215 10.816187325117852 87.476360877705474 0.69465837861970381 0 0.71933979245794832 0.71933979245794832 0 -0.69465837861970381 forward_v I I I I #
loop $-1 $-1 $151 $34 #
coedge $-1 $89 $89 $90 $152 reversed $53 $-1 #
coedge $-1 $90 $90 $89 $152 forward $55 $-1 #
coedge $-1 $91 $91 $56 $92 forward $86 $-1 #
edge $-1 $153 0 $153 6.2831853071796004 $91 $154 forward 7 unknown #
loop $-1 $-1 $98 $57 #
plane-surface $-1 -27.476146297024215 10.816187325117852 87.476360877705474 0.69465837861970381 0 0.71933979245794832 0.71933979245794832 0 -0.69465837861970381 forward_v I I I I #
loop $-1 $-1 $155 $37 #
coedge $-1 $96 $96 $97 $156 reversed $58 $-1 #
coedge $-1 $97 $97 $96 $156 forward $60 $-1 #
coedge $-1 $98 $98 $61 $99 forward $93 $-1 #
edge $-1 $157 0 $157 6.2831853071796004 $98 $158 forward 7 unknown #
face $-1 $159 $160 $15 $-1 $161 reversed single #
loop $-1 $-1 $162 $62 #
plane-surface $-1 -62.633747367778554 0 0 1 0 0 0 0 -1 forward_v I I I I #
coedge $-1 $163 $111 $164 $165 forward $63 $-1 #
coedge $-1 $166 $65 $163 $167 forward $41 $-1 #
coedge $-1 $65 $166 $168 $169 forward $41 $-1 #
coedge $-1 $114 $113 $65 $107 reversed $115 $-1 #
edge $-1 $170 -40.451113167872144 $171 40.451113167872144 $106 $172 forward 7 unknown #
coedge $-1 $67 $66 $173 $174 forward $26 $-1 #
coedge $-1 $175 $176 $66 $110 reversed $160 $-1 #
edge $-1 $117 -62.633747367778554 $177 62.633747367778554 $109 $178 forward 7 unknown #
coedge $-1 $103 $179 $67 $112 reversed $63 $-1 #
edge $-1 $180 -62.633747367778554 $116 62.633747367778554 $111 $181 forward 7 unknown #
coedge $-1 $106 $68 $179 $182 forward $115 $-1 #
coedge $-1 $68 $106 $175 $183 reversed $115 $-1 #
loop $-1 $-1 $113 $159 #
vertex $-1 $69 $184 #
vertex $-1 $69 $185 #
straight-curve $-1 62.633747367778554 0 8.4820553713741251 0 1 0 I I #
face $-1 $186 $187 $16 $-1 $188 reversed single #
loop $-1 $-1 $125 $70 #
plane-surface $-1 62.633747367778554 0 0 -1 0 0 0 0 1 forward_v I I I I #
coedge $-1 $189 $190 $123 $191 forward $71 $-1 #
coedge $-1 $192 $73 $122 $191 reversed $45 $-1 #
coedge $-1 $73 $192 $74 $128 reversed $45 $-1 #
coedge $-1 $76 $193 $73 $126 forward $120 $-1 #
edge $-1 $194 -4.9910276856870626 $132 -1.9910276856870626 $125 $195 forward 7 unknown #
coedge $-1 $75 $74 $196 $197 reversed $29 $-1 #
edge $-1 $132 -62.633747367778554 $198 62.633747367778554 $124 $199 forward 7 unknown #
coedge $-1 $200 $201 $75 $130 forward $187 $-1 #
edge $-1 $133 -62.633747367778554 $202 62.633747367778554 $129 $203 forward 7 unknown #
coedge $-1 $193 $76 $201 $204 forward $120 $-1 #
vertex $-1 $77 $205 #
vertex $-1 $204 $206 #
straight-curve $-1 62.633747367778554 -18.38984405187523 -5.4820553713741251 0 -1 0 I I #
face $-1 $-1 $147 $17 $-1 $207 forward single #
loop $-1 $-1 $208 $78 #
plane-surface $-1 62.633747367778554 0 0 -1 0 0 0 0 1 forward_v I I I I #
coedge $-1 $209 $210 $211 $212 reversed $79 $-1 #
coedge $-1 $213 $81 $83 $145 forward $49 $-1 #
coedge $-1 $81 $213 $209 $214 forward $49 $-1 #
coedge $-1 $211 $84 $81 $142 forward $147 $-1 #
edge $-1 $149 -13.082024558243937 $215 2.265837233126085 $141 $216 forward 7 unknown #
coedge $-1 $217 $218 $82 $144 forward $136 $-1 #
edge $-1 $219 -88.334881180303015 $148 -80.311071899879991 $143 $220 forward 7 unknown #
edge $-1 $149 113.71676774891014 $219 125.26749473555708 $83 $221 forward 7 unknown #
coedge $-1 $84 $211 $217 $222 forward $147 $-1 #
loop $-1 $-1 $211 $135 #
vertex $-1 $144 $223 #
vertex $-1 $85 $224 #
straight-curve $-1 29.770984244865076 18.490118220802863 8.4820553713741305 -1 0 0 I I #
coedge $-1 $151 $151 $-1 $225 reversed $88 $-1 #
edge $-1 $226 0 $226 6.2831853071796004 $89 $227 forward 7 unknown #
vertex $-1 $92 $228 #
ellipse-curve $-1 58.479298591122031 7.5273597983957075 4.4701507311626179 0.69465837861970381 0 0.71933979245794832 1.4386795849158966 0 -1.3893167572394076 1 I I #
coedge $-1 $155 $155 $-1 $229 reversed $95 $-1 #
edge $-1 $230 0 $230 6.2831853071796004 $96 $231 forward 7 unknown #
vertex $-1 $99 $232 #
ellipse-curve $-1 58.479298591122031 14.105014851840004 4.4701507311626179 0.69465837861970381 0 0.71933979245794832 1.4386795849158966 0 -1.3893167572394076 1 I I #
face $-1 $-1 $115 $15 $-1 $233 reversed single #
loop $-1 $-1 $175 $100 #
plane-surface $-1 0 40.451113167872144 0 0 -1 0 0 0 -1 forward_v I I I I #
coedge $-1 $234 $173 $176 $235 forward $101 $-1 #
coedge $-1 $179 $103 $104 $167 reversed $63 $-1 #
coedge $-1 $173 $234 $103 $165 reversed $101 $-1 #
edge $-1 $180 -8.4820553713741251 $236 8.4820553713741251 $164 $237 forward 7 unknown #
coedge $-1 $105 $104 $234 $238 forward $41 $-1 #
edge $-1 $171 -62.633747367778554 $236 62.633747367778554 $163 $239 forward 7 unknown #
coedge $-1 $176 $175 $105 $169 reversed $160 $-1 #
edge $-1 $240 -62.633747367778554 $170 62.633747367778554 $168 $241 forward 7 unknown #
vertex $-1 $107 $242 #
vertex $-1 $182 $243 #
straight-curve $-1 62.633747367778554 0 -8.4820553713741251 0 -1 0 I I #
coedge $-1 $162 $164 $108 $174 reversed $101 $-1 #
edge $-1 $177 -40.451113167872144 $180 40.451113167872144 $173 $244 forward 7 unknown #
coedge $-1 $168 $109 $114 $183 forward $160 $-1 #
coedge $-1 $109 $168 $162 $235 reversed $160 $-1 #
vertex $-1 $110 $245 #
straight-curve $-1 0 40.451113167872144 8.4820553713741251 -1 0 0 I I #
coedge $-1 $111 $163 $113 $182 reversed $63 $-1 #
vertex $-1 $174 $246 #
straight-curve $-1 0 -40.451113167872144 8.4820553713741251 1 0 0 I I #
edge $-1 $116 -8.4820553713741251 $171 8.4820553713741251 $113 $247 forward 7 unknown #
edge $-1 $117 -8.4820553713741251 $170 8.4820553713741251 $114 $248 forward 7 unknown #
point $-1 62.633747367778554 -40.451113167872144 8.4820553713741251 #
point $-1 62.633747367778554 40.451113167872144 8.4820553713741251 #
face $-1 $-1 $249 $16 $-1 $250 reversed single #
loop $-1 $-1 $129 $119 #
plane-surface $-1 0 -40.451113167872144 0 0 1 0 0 0 1 forward_v I I I I #
coedge $-1 $251 $122 $193 $252 forward $71 $-1 #
coedge $-1 $122 $251 $253 $254 forward $71 $-1 #
edge $-1 $255 -62.633747367778554 $194 62.633747367778554 $122 $256 forward 7 unknown #
coedge $-1 $124 $123 $257 $258 reversed $45 $-1 #
coedge $-1 $125 $131 $189 $252 reversed $120 $-1 #
vertex $-1 $252 $259 #
straight-curve $-1 62.633747367778554 -33.108263039628774 -3.4910276856870626 0 0 1 I I #
coedge $-1 $257 $260 $127 $197 forward $249 $-1 #
edge $-1 $202 -22.061269115996915 $198 -14.718418987753545 $196 $261 forward 7 unknown #
vertex $-1 $197 $262 #
straight-curve $-1 0 -33.108263039628774 -5.4820553713741251 -1 0 0 I I #
coedge $-1 $263 $129 $260 $264 forward $187 $-1 #
coedge $-1 $129 $263 $131 $204 reversed $187 $-1 #
vertex $-1 $264 $265 #
straight-curve $-1 0 -40.451113167872144 -5.4820553713741251 -1 0 0 I I #
edge $-1 $133 5.4820553713741251 $266 8.4820553713741251 $131 $267 forward 7 unknown #
point $-1 62.633747367778554 -33.108263039628774 -5.4820553713741251 #
point $-1 62.633747367778554 -40.451113167872144 -5.4820553713741251 #
plane-surface $-1 0 0 8.4820553713741251 0 0 1 1 0 0 forward_v I I I I #
coedge $-1 $218 $217 $210 $268 forward $136 $-1 #
coedge $-1 $210 $138 $140 $214 reversed $79 $-1 #
coedge $-1 $138 $209 $208 $268 reversed $79 $-1 #
coedge $-1 $146 $141 $138 $212 forward $147 $-1 #
edge $-1 $215 24.553865569600447 $269 32.862763122913478 $211 $270 forward 7 unknown #
coedge $-1 $140 $139 $218 $271 reversed $49 $-1 #
edge $-1 $272 -125.26749473555708 $215 -113.71676774891014 $209 $273 forward 7 unknown #
vertex $-1 $142 $274 #
straight-curve $-1 54.324849814465523 5.408093662558926 8.4820553713741234 0 -1 0 I I #
coedge $-1 $208 $143 $146 $222 reversed $136 $-1 #
coedge $-1 $143 $208 $213 $271 forward $136 $-1 #
vertex $-1 $144 $275 #
straight-curve $-1 62.633747367778554 18.490118220802863 88.793127271254122 0 0 1 I I #
straight-curve $-1 -27.476146297024215 18.490118220802863 87.476360877705474 0.71933979245794832 0 -0.69465837861970381 I I #
edge $-1 $269 3.142256429432841 $148 18.490118220802863 $217 $276 forward 7 unknown #
point $-1 62.633747367778554 18.490118220802863 8.4820553713741251 #
point $-1 54.324849814465523 18.490118220802863 8.4820553713741305 #
edge $-1 $277 1 $277 0 $151 $-1 forward 7 unknown #
vertex $-1 $152 $278 #
ellipse-curve $-1 54.117835282505681 7.5273597983957075 -0.046276634857283727 0.69465837861970381 0 0.71933979245794832 1.4386795849158966 0 -1.3893167572394076 1 I I #
point $-1 59.917978176037913 7.5273597983957075 3.0808339739231978 #
edge $-1 $279 1 $279 0 $155 $-1 forward 7 unknown #
vertex $-1 $156 $280 #
ellipse-curve $-1 54.117835282505681 14.105014851840004 -0.046276634857283727 0.69465837861970381 0 0.71933979245794832 1.4386795849158966 0 -1.3893167572394076 1 I I #
point $-1 59.917978176037913 14.105014851840004 3.0808339739231978 #
plane-surface $-1 62.633747367778554 0 0 -1 0 0 0 0 1 forward_v I I I I #
coedge $-1 $164 $162 $166 $238 reversed $101 $-1 #
edge $-1 $177 -8.4820553713741251 $240 8.4820553713741251 $176 $281 forward 7 unknown #
vertex $-1 $238 $282 #
straight-curve $-1 -62.633747367778554 -40.451113167872144 0 0 0 -1 I I #
edge $-1 $236 -40.451113167872144 $240 40.451113167872144 $234 $283 forward 7 unknown #
straight-curve $-1 0 -40.451113167872144 -8.4820553713741251 -1 0 0 I I #
vertex $-1 $169 $284 #
straight-curve $-1 0 40.451113167872144 -8.4820553713741251 1 0 0 I I #
point $-1 62.633747367778554 40.451113167872144 -8.4820553713741251 #
point $-1 62.633747367778554 -40.451113167872144 -8.4820553713741251 #
straight-curve $-1 -62.633747367778554 0 8.4820553713741251 0 -1 0 I I #
point $-1 -62.633747367778554 40.451113167872144 8.4820553713741251 #
point $-1 -62.633747367778554 -40.451113167872144 8.4820553713741251 #
straight-curve $-1 62.633747367778554 -40.451113167872144 0 0 0 -1 I I #
straight-curve $-1 62.633747367778554 40.451113167872144 0 0 0 -1 I I #
loop $-1 $-1 $257 $186 #
plane-surface $-1 -62.633747367778554 0 0 1 0 0 0 0 -1 forward_v I I I I #
coedge $-1 $190 $189 $263 $285 forward $71 $-1 #
edge $-1 $194 33.108263039628774 $266 40.451113167872144 $193 $286 forward 7 unknown #
coedge $-1 $260 $257 $190 $254 reversed $249 $-1 #
edge $-1 $287 -40.451113167872144 $255 -33.108263039628774 $253 $288 forward 7 unknown #
vertex $-1 $258 $289 #
straight-curve $-1 0 -33.108263039628774 -8.4820553713741251 1 0 0 I I #
coedge $-1 $253 $196 $192 $258 forward $249 $-1 #
edge $-1 $198 1.9910276856870626 $255 4.9910276856870626 $257 $290 forward 7 unknown #
point $-1 62.633747367778554 -33.108263039628774 -8.4820553713741251 #
coedge $-1 $196 $253 $200 $264 reversed $249 $-1 #
straight-curve $-1 -62.633747367778554 -18.38984405187523 -5.4820553713741251 0 1 0 I I #
point $-1 -62.633747367778554 -33.108263039628774 -5.4820553713741251 #
coedge $-1 $201 $200 $251 $285 reversed $187 $-1 #
edge $-1 $202 5.4820553713741251 $287 8.4820553713741251 $260 $291 forward 7 unknown #
point $-1 -62.633747367778554 -40.451113167872144 -5.4820553713741251 #
vertex $-1 $204 $292 #
straight-curve $-1 62.633747367778554 -40.451113167872144 0 0 0 -1 I I #
edge $-1 $269 80.311071899879991 $272 88.334881180303015 $208 $293 forward 7 unknown #
vertex $-1 $222 $294 #
straight-curve $-1 29.770984244865076 3.142256429432841 8.4820553713741305 1 0 0 I I #
edge $-1 $272 -2.265837233126085 $219 13.082024558243937 $218 $295 forward 7 unknown #
vertex $-1 $271 $296 #
straight-curve $-1 -27.476146297024215 3.142256429432841 87.476360877705474 -0.71933979245794832 0 0.69465837861970381 I I #
point $-1 54.324849814465523 3.142256429432841 8.4820553713741305 #
point $-1 62.633747367778554 18.490118220802863 0.45824609095110702 #
straight-curve $-1 62.633747367778554 0 8.4820553713741251 0 1 0 I I #
vertex $-1 $225 $297 #
point $-1 55.556514867421576 7.5273597983957075 -1.4355933920966915 #
vertex $-1 $229 $298 #
point $-1 55.556514867421576 14.105014851840004 -1.4355933920966915 #
straight-curve $-1 -62.633747367778554 40.451113167872144 0 0 0 -1 I I #
point $-1 -62.633747367778554 -40.451113167872144 -8.4820553713741251 #
straight-curve $-1 -62.633747367778554 0 -8.4820553713741251 0 1 0 I I #
point $-1 -62.633747367778554 40.451113167872144 -8.4820553713741251 #
edge $-1 $266 -62.633747367778554 $287 62.633747367778554 $263 $299 forward 7 unknown #
straight-curve $-1 62.633747367778554 0 -8.4820553713741251 0 -1 0 I I #
vertex $-1 $254 $300 #
straight-curve $-1 -62.633747367778554 0 -8.4820553713741251 0 1 0 I I #
point $-1 -62.633747367778554 -33.108263039628774 -8.4820553713741251 #
straight-curve $-1 -62.633747367778554 -33.108263039628774 -3.4910276856870626 0 0 -1 I I #
straight-curve $-1 -62.633747367778554 -40.451113167872144 0 0 0 -1 I I #
point $-1 62.633747367778554 -40.451113167872144 -8.4820553713741251 #
straight-curve $-1 62.633747367778554 3.142256429432841 88.793127271254122 0 0 -1 I I #
point $-1 62.633747367778554 3.142256429432841 8.4820553713741251 #
straight-curve $-1 62.633747367778547 5.408093662558926 0.45824609095111413 0 1 0 I I #
point $-1 62.633747367778554 3.142256429432841 0.45824609095110702 #
point $-1 52.728518525266267 7.5273597983957075 -1.4849562197731796 #
point $-1 52.728518525266267 14.105014851840004 -1.4849562197731796 #
straight-curve $-1 0 -40.451113167872144 -8.4820553713741251 -1 0 0 I I #
point $-1 -62.633747367778554 -40.451113167872144 -8.4820553713741251 #
End-of-ACIS-data 