500 0 5 0           
7 Unknown 11 ACIS 5.0 NT 24 Fri Mar 26 17:51:22 1999 
-1 9.9999999999999995e-007 1e-010 
body $-1 $5 $-1 $6 #
body $-1 $7 $-1 $8 #
body $-1 $9 $-1 $10 #
body $-1 $11 $-1 $12 #
body $-1 $13 $-1 $14 #
lump $-1 $-1 $15 $0 #
transform $-1 1 0 0 0 1 0 0 0 1 71.485335856196784 31.54980111142233 10.211247619460314 1 rotate no_reflect no_shear #
lump $-1 $-1 $16 $1 #
transform $-1 1 0 0 0 1 0 0 0 1 71.485335856196784 31.54980111142233 10.211247619460314 1 rotate no_reflect no_shear #
lump $-1 $-1 $17 $2 #
transform $-1 1 0 0 0 1 0 0 0 1 71.485335856196784 31.54980111142233 10.211247619460314 1 rotate no_reflect no_shear #
lump $-1 $-1 $18 $3 #
transform $-1 1 0 0 0 1 0 0 0 1 71.485335856196784 31.54980111142233 10.211247619460314 1 rotate no_reflect no_shear #
lump $-1 $-1 $19 $4 #
transform $-1 1 0 0 0 1 0 0 0 1 71.485335856196784 31.54980111142233 10.211247619460314 1 rotate no_reflect no_shear #
shell $-1 $-1 $-1 $20 $-1 $5 #
shell $-1 $-1 $-1 $21 $-1 $7 #
shell $-1 $-1 $-1 $22 $-1 $9 #
shell $-1 $-1 $-1 $23 $-1 $11 #
shell $-1 $-1 $-1 $24 $-1 $13 #
face $-1 $25 $26 $15 $-1 $27 forward single #
face $-1 $28 $29 $16 $-1 $30 reversed single #
face $-1 $31 $32 $17 $-1 $33 reversed single #
face $-1 $34 $35 $18 $-1 $36 forward single #
face $-1 $37 $38 $19 $-1 $39 forward single #
face $-1 $40 $41 $15 $-1 $42 reversed single #
loop $-1 $-1 $43 $20 #
plane-surface $-1 0 0 10.211247619460314 0 0 1 1 0 0 forward_v I I I I #
face $-1 $44 $45 $16 $-1 $46 reversed single #
loop $-1 $-1 $47 $21 #
plane-surface $-1 -65.490231707240966 -26.547526957154005 0 1 0 0 0 0 -1 forward_v I I I I #
face $-1 $48 $49 $17 $-1 $50 reversed single #
loop $-1 $-1 $51 $22 #
plane-surface $-1 -26.614994682190158 100.51204902859043 146.41442324572208 1 0 0 0 -0.7660444514056185 -0.64278759981090561 forward_v I I I I #
face $-1 $52 $53 $18 $-1 $54 forward single #
loop $-1 $55 $56 $23 #
cone-surface $-1 -18.116003498558172 28.97195452841834 7.4513678333236477 0 -0.7660444514056185 -0.64278759981090561 1 0 0 1 I I 0 1 1 forward I I I I #
face $-1 $57 $58 $19 $-1 $59 forward single #
loop $-1 $60 $61 $24 #
cone-surface $-1 -5.3675167231101852 28.97195452841834 7.4513678333236477 0 -0.7660444514056185 -0.64278759981090561 1 0 0 1 I I 0 1 1 forward I I I I #
face $-1 $62 $63 $15 $-1 $64 reversed single #
loop $-1 $-1 $65 $25 #
plane-surface $-1 0 0 -10.211247619460314 0 0 1 1 0 0 forward_v I I I I #
coedge $-1 $66 $67 $68 $69 forward $26 $-1 #
face $-1 $70 $71 $16 $-1 $72 reversed single #
loop $-1 $-1 $73 $28 #
plane-surface $-1 -62.812408602615569 -21.545252802885678 0 0 -1 0 0 0 -1 forward_v I I I I #
coedge $-1 $74 $75 $76 $77 forward $29 $-1 #
face $-1 $78 $79 $17 $-1 $80 reversed single #
loop $-1 $-1 $81 $31 #
plane-surface $-1 -11.741760110834178 -9.0098407504228817 54.514648332359684 0 0.7660444514056185 0.64278759981090561 1 0 0 forward_v I I I I #
coedge $-1 $82 $83 $84 $85 reversed $32 $-1 #
face $-1 $-1 $86 $18 $-1 $87 forward single #
loop $-1 $88 $89 $34 #
cone-surface $-1 -18.116003498558172 27.703423538230208 6.3869439751877284 0 -0.7660444514056185 -0.64278759981090561 0.5 0 0 1 I I -0.70710678118654746 0.70710678118654746 0.5 forward I I I I #
loop $-1 $-1 $90 $23 #
coedge $-1 $56 $56 $91 $92 reversed $35 $-1 #
face $-1 $-1 $93 $19 $-1 $94 forward single #
loop $-1 $95 $96 $37 #
cone-surface $-1 -5.3675167231101852 27.703423538230208 6.3869439751877284 0 -0.7660444514056185 -0.64278759981090561 0.5 0 0 1 I I -0.70710678118654746 0.70710678118654746 0.5 forward I I I I #
loop $-1 $-1 $97 $24 #
coedge $-1 $61 $61 $98 $99 reversed $38 $-1 #
face $-1 $100 $101 $15 $-1 $102 reversed single #
loop $-1 $-1 $103 $40 #
plane-surface $-1 0 -31.54980111142233 0 0 1 0 0 0 1 forward_v I I I I #
coedge $-1 $104 $105 $106 $107 forward $41 $-1 #
coedge $-1 $108 $43 $109 $110 forward $26 $-1 #
coedge $-1 $43 $108 $111 $112 forward $26 $-1 #
coedge $-1 $113 $114 $43 $69 reversed $115 $-1 #
edge $-1 $116 -31.54980111142233 $117 31.54980111142233 $68 $118 forward 7 unknown #
face $-1 $119 $120 $16 $-1 $121 forward single #
loop $-1 $-1 $122 $44 #
plane-surface $-1 -60.134585497990166 -26.547526957154005 0 -1 0 0 0 0 1 forward_v I I I I #
coedge $-1 $123 $124 $125 $126 forward $45 $-1 #
coedge $-1 $127 $47 $128 $129 reversed $29 $-1 #
coedge $-1 $47 $127 $130 $131 reversed $29 $-1 #
coedge $-1 $124 $123 $47 $77 reversed $45 $-1 #
edge $-1 $132 -10.211247619460314 $133 10.211247619460314 $76 $134 forward 7 unknown #
face $-1 $135 $136 $17 $-1 $137 reversed single #
loop $-1 $-1 $138 $48 #
plane-surface $-1 3.131474460521801 100.51204902859043 146.41442324572208 -1 0 0 0 0.7660444514056185 0.64278759981090561 forward_v I I I I #
coedge $-1 $139 $140 $141 $142 reversed $49 $-1 #
coedge $-1 $83 $51 $143 $144 reversed $32 $-1 #
coedge $-1 $51 $82 $139 $145 reversed $32 $-1 #
coedge $-1 $141 $146 $51 $85 forward $147 $-1 #
edge $-1 $148 18.706223402872883 $149 22.090899039910212 $84 $150 forward 7 unknown #
loop $-1 $-1 $91 $52 #
plane-surface $-1 -11.741760110834178 -9.0098407504228817 54.514648332359684 0 0.7660444514056185 0.64278759981090561 1 0 0 forward_v I I I I #
loop $-1 $-1 $151 $34 #
coedge $-1 $89 $89 $90 $152 reversed $53 $-1 #
coedge $-1 $90 $90 $89 $152 forward $55 $-1 #
coedge $-1 $91 $91 $56 $92 forward $86 $-1 #
edge $-1 $153 2.2836402984115466e-015 $153 6.2831853071796031 $91 $154 forward 7 unknown #
loop $-1 $-1 $98 $57 #
plane-surface $-1 -11.741760110834178 -9.0098407504228817 54.514648332359684 0 0.7660444514056185 0.64278759981090561 1 0 0 forward_v I I I I #
loop $-1 $-1 $155 $37 #
coedge $-1 $96 $96 $97 $156 reversed $58 $-1 #
coedge $-1 $97 $97 $96 $156 forward $60 $-1 #
coedge $-1 $98 $98 $61 $99 forward $93 $-1 #
edge $-1 $157 2.2836402984115466e-015 $157 6.2831853071796031 $98 $158 forward 7 unknown #
face $-1 $159 $160 $15 $-1 $161 reversed single #
loop $-1 $-1 $162 $62 #
plane-surface $-1 -71.485335856196784 0 0 1 0 0 0 0 -1 forward_v I I I I #
coedge $-1 $163 $111 $164 $165 forward $63 $-1 #
coedge $-1 $166 $65 $163 $167 forward $41 $-1 #
coedge $-1 $65 $166 $168 $169 forward $41 $-1 #
coedge $-1 $114 $113 $65 $107 reversed $115 $-1 #
edge $-1 $170 -31.54980111142233 $171 31.54980111142233 $106 $172 forward 7 unknown #
coedge $-1 $67 $66 $173 $174 forward $26 $-1 #
coedge $-1 $175 $176 $66 $110 reversed $160 $-1 #
edge $-1 $117 -71.485335856196784 $177 71.485335856196784 $109 $178 forward 7 unknown #
coedge $-1 $103 $179 $67 $112 reversed $63 $-1 #
edge $-1 $180 -71.485335856196784 $116 71.485335856196784 $111 $181 forward 7 unknown #
coedge $-1 $106 $68 $179 $182 forward $115 $-1 #
coedge $-1 $68 $106 $175 $183 reversed $115 $-1 #
loop $-1 $-1 $113 $159 #
vertex $-1 $69 $184 #
vertex $-1 $69 $185 #
straight-curve $-1 71.485335856196784 0 10.211247619460314 0 1 0 I I #
face $-1 $186 $187 $16 $-1 $188 reversed single #
loop $-1 $-1 $189 $70 #
plane-surface $-1 0 0 10.211247619460314 0 0 1 1 0 0 forward_v I I I I #
coedge $-1 $190 $191 $192 $193 reversed $71 $-1 #
coedge $-1 $76 $73 $194 $195 reversed $45 $-1 #
coedge $-1 $73 $76 $196 $197 reversed $45 $-1 #
coedge $-1 $191 $190 $73 $126 reversed $71 $-1 #
edge $-1 $198 -10.211247619460314 $199 10.211247619460314 $125 $200 forward 7 unknown #
coedge $-1 $75 $74 $201 $202 reversed $29 $-1 #
coedge $-1 $194 $203 $74 $129 forward $187 $-1 #
edge $-1 $204 -18.27603763284533 $133 -8.2714893243086749 $128 $205 forward 7 unknown #
coedge $-1 $206 $196 $75 $131 forward $120 $-1 #
edge $-1 $132 8.2714893243086749 $207 18.27603763284533 $130 $208 forward 7 unknown #
vertex $-1 $131 $209 #
vertex $-1 $129 $210 #
straight-curve $-1 -65.490231707240966 -21.545252802885678 0 0 0 -1 I I #
face $-1 $-1 $147 $17 $-1 $211 forward single #
loop $-1 $-1 $212 $78 #
plane-surface $-1 0 31.54980111142233 0 0 -1 0 0 0 -1 forward_v I I I I #
coedge $-1 $213 $214 $215 $216 reversed $79 $-1 #
coedge $-1 $217 $81 $83 $145 forward $49 $-1 #
coedge $-1 $81 $217 $213 $218 forward $49 $-1 #
coedge $-1 $215 $84 $81 $142 forward $147 $-1 #
edge $-1 $149 -20.744114626773069 $219 9.0023545159388902 $141 $220 forward 7 unknown #
coedge $-1 $221 $222 $82 $144 forward $136 $-1 #
edge $-1 $223 -67.02966345921314 $148 -62.995964003400722 $143 $224 forward 7 unknown #
edge $-1 $149 57.833981607212039 $223 63.099602222844688 $83 $225 forward 7 unknown #
coedge $-1 $84 $215 $221 $226 forward $147 $-1 #
loop $-1 $-1 $215 $135 #
vertex $-1 $144 $227 #
vertex $-1 $85 $228 #
straight-curve $-1 -26.614994682190158 50.256024514295213 10.211247619460309 0 -1 0 I I #
coedge $-1 $151 $151 $-1 $229 reversed $88 $-1 #
edge $-1 $230 0 $230 6.2831853071796004 $89 $231 forward 7 unknown #
vertex $-1 $92 $232 #
ellipse-curve $-1 -18.116003498558172 29.857463292903663 8.1943978915541127 0 0.7660444514056185 0.64278759981090561 1 0 0 1 I I #
coedge $-1 $155 $155 $-1 $233 reversed $95 $-1 #
edge $-1 $234 0 $234 6.2831853071796004 $96 $235 forward 7 unknown #
vertex $-1 $99 $236 #
ellipse-curve $-1 -5.3675167231101852 29.857463292903663 8.1943978915541127 0 0.7660444514056185 0.64278759981090561 1 0 0 1 I I #
face $-1 $-1 $115 $15 $-1 $237 reversed single #
loop $-1 $-1 $175 $100 #
plane-surface $-1 0 31.54980111142233 0 0 -1 0 0 0 -1 forward_v I I I I #
coedge $-1 $238 $173 $176 $239 forward $101 $-1 #
coedge $-1 $179 $103 $104 $167 reversed $63 $-1 #
coedge $-1 $173 $238 $103 $165 reversed $101 $-1 #
edge $-1 $180 -10.211247619460314 $240 10.211247619460314 $164 $241 forward 7 unknown #
coedge $-1 $105 $104 $238 $242 forward $41 $-1 #
edge $-1 $171 -71.485335856196784 $240 71.485335856196784 $163 $243 forward 7 unknown #
coedge $-1 $176 $175 $105 $169 reversed $160 $-1 #
edge $-1 $244 -71.485335856196784 $170 71.485335856196784 $168 $245 forward 7 unknown #
vertex $-1 $107 $246 #
vertex $-1 $182 $247 #
straight-curve $-1 71.485335856196784 0 -10.211247619460314 0 -1 0 I I #
coedge $-1 $162 $164 $108 $174 reversed $101 $-1 #
edge $-1 $177 -31.54980111142233 $180 31.54980111142233 $173 $248 forward 7 unknown #
coedge $-1 $168 $109 $114 $183 forward $160 $-1 #
coedge $-1 $109 $168 $162 $239 reversed $160 $-1 #
vertex $-1 $110 $249 #
straight-curve $-1 0 31.54980111142233 10.211247619460314 -1 0 0 I I #
coedge $-1 $111 $163 $113 $182 reversed $63 $-1 #
vertex $-1 $174 $250 #
straight-curve $-1 0 -31.54980111142233 10.211247619460314 1 0 0 I I #
edge $-1 $116 -10.211247619460314 $171 10.211247619460314 $113 $251 forward 7 unknown #
edge $-1 $117 -10.211247619460314 $170 10.211247619460314 $114 $252 forward 7 unknown #
point $-1 71.485335856196784 -31.54980111142233 10.211247619460314 #
point $-1 71.485335856196784 31.54980111142233 10.211247619460314 #
face $-1 $-1 $253 $16 $-1 $254 reversed single #
loop $-1 $-1 $255 $119 #
plane-surface $-1 0 0 -10.211247619460314 0 0 1 1 0 0 forward_v I I I I #
coedge $-1 $196 $206 $191 $256 forward $120 $-1 #
coedge $-1 $125 $122 $255 $257 reversed $71 $-1 #
coedge $-1 $122 $125 $189 $256 reversed $71 $-1 #
coedge $-1 $258 $259 $122 $193 forward $253 $-1 #
edge $-1 $260 -10.211247619460314 $261 10.211247619460314 $192 $262 forward 7 unknown #
coedge $-1 $255 $128 $123 $195 forward $187 $-1 #
edge $-1 $133 -34.084027405933185 $199 -28.728381196682381 $194 $263 forward 7 unknown #
coedge $-1 $130 $189 $124 $197 forward $120 $-1 #
edge $-1 $198 28.728381196682381 $132 34.084027405933185 $196 $264 forward 7 unknown #
vertex $-1 $197 $265 #
vertex $-1 $195 $266 #
straight-curve $-1 -60.134585497990166 -21.545252802885678 0 0 0 -1 I I #
coedge $-1 $259 $258 $127 $202 forward $253 $-1 #
edge $-1 $207 -10.211247619460314 $204 10.211247619460314 $201 $267 forward 7 unknown #
coedge $-1 $128 $255 $259 $268 forward $187 $-1 #
vertex $-1 $129 $269 #
straight-curve $-1 -65.490231707240966 -13.273763478577003 -10.211247619460314 0 1 0 I I #
coedge $-1 $189 $130 $258 $270 forward $120 $-1 #
vertex $-1 $270 $271 #
straight-curve $-1 -65.490231707240966 -13.273763478577003 10.211247619460314 0 -1 0 I I #
point $-1 -65.490231707240966 -21.545252802885678 10.211247619460314 #
point $-1 -65.490231707240966 -21.545252802885678 -10.211247619460314 #
plane-surface $-1 0 0 10.211247619460314 0 0 1 1 0 0 forward_v I I I I #
coedge $-1 $222 $221 $214 $272 forward $136 $-1 #
coedge $-1 $214 $138 $140 $218 reversed $79 $-1 #
coedge $-1 $138 $213 $212 $272 reversed $79 $-1 #
coedge $-1 $146 $141 $138 $216 forward $147 $-1 #
edge $-1 $219 -22.090899039910212 $273 -18.706223402872883 $215 $274 forward 7 unknown #
coedge $-1 $140 $139 $222 $275 reversed $49 $-1 #
edge $-1 $276 -63.099602222844688 $219 -57.833981607212039 $213 $277 forward 7 unknown #
vertex $-1 $142 $278 #
straight-curve $-1 -5.8708800554170892 28.165125474384993 10.211247619460313 1 0 0 I I #
coedge $-1 $212 $143 $146 $226 reversed $136 $-1 #
coedge $-1 $143 $212 $217 $275 forward $136 $-1 #
vertex $-1 $144 $279 #
straight-curve $-1 -26.614994682190158 31.549801111422326 73.207211622861038 0 0 1 I I #
straight-curve $-1 -26.614994682190158 -9.0098407504228817 54.514648332359684 0 0.64278759981090561 -0.7660444514056185 I I #
edge $-1 $273 -3.131474460521801 $148 26.614994682190158 $221 $280 forward 7 unknown #
point $-1 -26.614994682190158 31.54980111142233 10.211247619460314 #
point $-1 -26.614994682190158 28.165125474385 10.211247619460316 #
edge $-1 $281 1 $281 0 $151 $-1 forward 7 unknown #
vertex $-1 $152 $282 #
ellipse-curve $-1 -18.116003498558172 28.086445763933018 6.708337775093181 0 0.7660444514056185 0.64278759981090561 1 0 0 1 I I #
point $-1 -17.116003498558172 29.857463292903667 8.1943978915541127 #
edge $-1 $283 1 $283 0 $155 $-1 forward 7 unknown #
vertex $-1 $156 $284 #
ellipse-curve $-1 -5.3675167231101852 28.086445763933018 6.708337775093181 0 0.7660444514056185 0.64278759981090561 1 0 0 1 I I #
point $-1 -4.3675167231101852 29.857463292903667 8.1943978915541127 #
plane-surface $-1 71.485335856196784 0 0 -1 0 0 0 0 1 forward_v I I I I #
coedge $-1 $164 $162 $166 $242 reversed $101 $-1 #
edge $-1 $177 -10.211247619460314 $244 10.211247619460314 $176 $285 forward 7 unknown #
vertex $-1 $242 $286 #
straight-curve $-1 -71.485335856196784 -31.54980111142233 0 0 0 -1 I I #
edge $-1 $240 -31.54980111142233 $244 31.54980111142233 $238 $287 forward 7 unknown #
straight-curve $-1 0 -31.54980111142233 -10.211247619460314 -1 0 0 I I #
vertex $-1 $169 $288 #
straight-curve $-1 0 31.54980111142233 -10.211247619460314 1 0 0 I I #
point $-1 71.485335856196784 31.54980111142233 -10.211247619460314 #
point $-1 71.485335856196784 -31.54980111142233 -10.211247619460314 #
straight-curve $-1 -71.485335856196784 0 10.211247619460314 0 -1 0 I I #
point $-1 -71.485335856196784 31.54980111142233 10.211247619460314 #
point $-1 -71.485335856196784 -31.54980111142233 10.211247619460314 #
straight-curve $-1 71.485335856196784 -31.54980111142233 0 0 0 -1 I I #
straight-curve $-1 71.485335856196784 31.54980111142233 0 0 0 -1 I I #
loop $-1 $-1 $192 $186 #
plane-surface $-1 0 -31.54980111142233 0 0 1 0 0 0 1 forward_v I I I I #
coedge $-1 $203 $194 $190 $257 forward $187 $-1 #
edge $-1 $261 -18.27603763284533 $198 -8.2714893243086749 $189 $289 forward 7 unknown #
edge $-1 $199 8.2714893243086749 $260 18.27603763284533 $255 $290 forward 7 unknown #
coedge $-1 $201 $192 $206 $270 reversed $253 $-1 #
coedge $-1 $192 $201 $203 $268 reversed $253 $-1 #
vertex $-1 $268 $291 #
vertex $-1 $193 $292 #
straight-curve $-1 -60.134585497990166 -31.54980111142233 0 0 0 1 I I #
straight-curve $-1 -31.406204301307785 -21.545252802885678 -10.211247619460314 1 0 0 I I #
straight-curve $-1 -31.406204301307785 -21.545252802885678 10.211247619460314 -1 0 0 I I #
point $-1 -60.134585497990166 -21.545252802885678 10.211247619460314 #
point $-1 -60.134585497990166 -21.545252802885678 -10.211247619460314 #
straight-curve $-1 -65.490231707240966 -31.54980111142233 0 0 0 -1 I I #
edge $-1 $260 60.134585497990166 $204 65.490231707240966 $259 $293 forward 7 unknown #
point $-1 -65.490231707240966 -31.549801111422333 -10.211247619460314 #
edge $-1 $207 -65.490231707240966 $261 -60.134585497990166 $258 $294 forward 7 unknown #
point $-1 -65.490231707240966 -31.549801111422333 10.211247619460314 #
edge $-1 $273 62.995964003400722 $276 67.02966345921314 $212 $295 forward 7 unknown #
vertex $-1 $226 $296 #
straight-curve $-1 3.131474460521801 50.256024514295213 10.211247619460309 0 1 0 I I #
edge $-1 $276 -9.0023545159388902 $223 20.744114626773069 $222 $297 forward 7 unknown #
vertex $-1 $275 $298 #
straight-curve $-1 3.131474460521801 -9.0098407504228817 54.514648332359684 0 -0.64278759981090561 0.7660444514056185 I I #
point $-1 3.131474460521801 28.165125474385 10.211247619460316 #
point $-1 -26.614994682190158 31.549801111422326 6.1775481636478915 #
straight-curve $-1 0 31.54980111142233 10.211247619460314 -1 0 0 I I #
vertex $-1 $229 $299 #
point $-1 -17.116003498558172 28.086445763933018 6.708337775093181 #
vertex $-1 $233 $300 #
point $-1 -4.3675167231101852 28.086445763933018 6.708337775093181 #
straight-curve $-1 -71.485335856196784 31.54980111142233 0 0 0 -1 I I #
point $-1 -71.485335856196784 -31.54980111142233 -10.211247619460314 #
straight-curve $-1 -71.485335856196784 0 -10.211247619460314 0 1 0 I I #
point $-1 -71.485335856196784 31.54980111142233 -10.211247619460314 #
straight-curve $-1 -60.134585497990166 -13.273763478577003 10.211247619460314 0 1 0 I I #
straight-curve $-1 -60.134585497990166 -13.273763478577003 -10.211247619460314 0 -1 0 I I #
point $-1 -60.134585497990166 -31.549801111422333 -10.211247619460314 #
point $-1 -60.134585497990166 -31.549801111422333 10.211247619460314 #
straight-curve $-1 0 -31.54980111142233 -10.211247619460314 -1 0 0 I I #
straight-curve $-1 0 -31.54980111142233 10.211247619460314 1 0 0 I I #
straight-curve $-1 3.131474460521801 31.549801111422326 73.207211622861038 0 0 -1 I I #
point $-1 3.131474460521801 31.54980111142233 10.211247619460314 #
straight-curve $-1 -5.8708800554170892 31.549801111422326 6.1775481636478951 -1 0 0 I I #
point $-1 3.131474460521801 31.549801111422326 6.1775481636478915 #
point $-1 -18.116003498558172 27.320401312527398 6.0655501752822758 #
point $-1 -5.3675167231101852 27.320401312527398 6.0655501752822758 #
End-of-ACIS-data 