500 0 18 0           
7 Unknown 11 ACIS 5.0 NT 24 Thu Mar 25 23:22:13 1999 
-1 9.9999999999999995e-007 1e-010 
body $-1 $18 $-1 $19 #
body $-1 $20 $-1 $21 #
body $-1 $22 $-1 $23 #
body $-1 $24 $-1 $25 #
body $-1 $26 $-1 $27 #
body $-1 $28 $-1 $29 #
body $-1 $30 $-1 $31 #
body $-1 $32 $-1 $33 #
body $-1 $34 $-1 $35 #
body $-1 $36 $-1 $37 #
body $-1 $38 $-1 $39 #
body $-1 $40 $-1 $41 #
body $-1 $42 $-1 $43 #
body $-1 $44 $-1 $45 #
body $-1 $46 $-1 $47 #
body $-1 $48 $-1 $49 #
body $-1 $50 $-1 $51 #
body $-1 $52 $-1 $53 #
lump $-1 $-1 $54 $0 #
transform $-1 1 0 0 0 1 0 0 0 1 75.585802789391764 32.326327236234604 7.7837912918841345 1 rotate no_reflect no_shear #
lump $-1 $-1 $55 $1 #
transform $-1 1 0 0 0 1 0 0 0 1 75.585802789391764 32.326327236234604 7.7837912918841345 1 rotate no_reflect no_shear #
lump $-1 $-1 $56 $2 #
transform $-1 1 0 0 0 1 0 0 0 1 75.585802789391764 32.326327236234604 7.7837912918841345 1 rotate no_reflect no_shear #
lump $-1 $-1 $57 $3 #
transform $-1 1 0 0 0 1 0 0 0 1 75.585802789391764 32.326327236234604 7.7837912918841345 1 rotate no_reflect no_shear #
lump $-1 $-1 $58 $4 #
transform $-1 1 0 0 0 1 0 0 0 1 75.585802789391764 32.326327236234604 7.7837912918841345 1 rotate no_reflect no_shear #
lump $-1 $-1 $59 $5 #
transform $-1 1 0 0 0 1 0 0 0 1 75.585802789391764 32.326327236234604 7.7837912918841345 1 rotate no_reflect no_shear #
lump $-1 $-1 $60 $6 #
transform $-1 1 0 0 0 1 0 0 0 1 75.585802789391764 32.326327236234604 7.7837912918841345 1 rotate no_reflect no_shear #
lump $-1 $-1 $61 $7 #
transform $-1 1 0 0 0 1 0 0 0 1 75.585802789391764 32.326327236234604 7.7837912918841345 1 rotate no_reflect no_shear #
lump $-1 $-1 $62 $8 #
transform $-1 1 0 0 0 1 0 0 0 1 75.585802789391764 32.326327236234604 7.7837912918841345 1 rotate no_reflect no_shear #
lump $-1 $-1 $63 $9 #
transform $-1 1 0 0 0 1 0 0 0 1 75.585802789391764 32.326327236234604 7.7837912918841345 1 rotate no_reflect no_shear #
lump $-1 $-1 $64 $10 #
transform $-1 1 0 0 0 1 0 0 0 1 75.585802789391764 32.326327236234604 7.7837912918841345 1 rotate no_reflect no_shear #
lump $-1 $-1 $65 $11 #
transform $-1 1 0 0 0 1 0 0 0 1 75.585802789391764 32.326327236234604 7.7837912918841345 1 rotate no_reflect no_shear #
lump $-1 $-1 $66 $12 #
transform $-1 1 0 0 0 1 0 0 0 1 75.585802789391764 32.326327236234604 7.7837912918841345 1 rotate no_reflect no_shear #
lump $-1 $-1 $67 $13 #
transform $-1 1 0 0 0 1 0 0 0 1 75.585802789391764 32.326327236234604 7.7837912918841345 1 rotate no_reflect no_shear #
lump $-1 $-1 $68 $14 #
transform $-1 1 0 0 0 1 0 0 0 1 75.585802789391764 32.326327236234604 7.7837912918841345 1 rotate no_reflect no_shear #
lump $-1 $-1 $69 $15 #
transform $-1 1 0 0 0 1 0 0 0 1 75.585802789391764 32.326327236234604 7.7837912918841345 1 rotate no_reflect no_shear #
lump $-1 $-1 $70 $16 #
transform $-1 1 0 0 0 1 0 0 0 1 75.585802789391764 32.326327236234604 7.7837912918841345 1 rotate no_reflect no_shear #
lump $-1 $-1 $71 $17 #
transform $-1 1 0 0 0 1 0 0 0 1 75.585802789391764 32.326327236234604 7.7837912918841345 1 rotate no_reflect no_shear #
shell $-1 $-1 $-1 $72 $-1 $18 #
shell $-1 $-1 $-1 $73 $-1 $20 #
shell $-1 $-1 $-1 $74 $-1 $22 #
shell $-1 $-1 $-1 $75 $-1 $24 #
shell $-1 $-1 $-1 $76 $-1 $26 #
shell $-1 $-1 $-1 $77 $-1 $28 #
shell $-1 $-1 $-1 $78 $-1 $30 #
shell $-1 $-1 $-1 $79 $-1 $32 #
shell $-1 $-1 $-1 $80 $-1 $34 #
shell $-1 $-1 $-1 $81 $-1 $36 #
shell $-1 $-1 $-1 $82 $-1 $38 #
shell $-1 $-1 $-1 $83 $-1 $40 #
shell $-1 $-1 $-1 $84 $-1 $42 #
shell $-1 $-1 $-1 $85 $-1 $44 #
shell $-1 $-1 $-1 $86 $-1 $46 #
shell $-1 $-1 $-1 $87 $-1 $48 #
shell $-1 $-1 $-1 $88 $-1 $50 #
shell $-1 $-1 $-1 $89 $-1 $52 #
face $-1 $90 $91 $54 $-1 $92 forward single #
face $-1 $93 $94 $55 $-1 $95 reversed single #
face $-1 $96 $97 $56 $-1 $98 reversed single #
face $-1 $99 $100 $57 $-1 $101 forward single #
face $-1 $102 $103 $58 $-1 $104 forward single #
face $-1 $105 $106 $59 $-1 $107 reversed single #
face $-1 $108 $109 $60 $-1 $110 forward single #
face $-1 $111 $112 $61 $-1 $113 forward single #
face $-1 $114 $115 $62 $-1 $116 reversed single #
face $-1 $117 $118 $63 $-1 $119 forward single #
face $-1 $120 $121 $64 $-1 $122 forward single #
face $-1 $123 $124 $65 $-1 $125 reversed single #
face $-1 $126 $127 $66 $-1 $128 forward single #
face $-1 $129 $130 $67 $-1 $131 forward single #
face $-1 $132 $133 $68 $-1 $134 reversed single #
face $-1 $135 $136 $69 $-1 $137 forward single #
face $-1 $138 $139 $70 $-1 $140 forward single #
face $-1 $141 $142 $71 $-1 $143 forward single #
face $-1 $144 $145 $54 $-1 $146 reversed single #
loop $-1 $-1 $147 $72 #
plane-surface $-1 0 0 7.7837912918841345 0 0 1 1 0 0 forward_v I I I I #
face $-1 $148 $149 $55 $-1 $150 reversed single #
loop $-1 $-1 $151 $73 #
plane-surface $-1 -74.085802789391764 -24.342162765398953 0 0 -1 0 0 0 -1 forward_v I I I I #
face $-1 $152 $153 $56 $-1 $154 reversed single #
loop $-1 $-1 $155 $74 #
plane-surface $-1 60.672642822881514 -12.756681961886946 214.10309662726019 0 -1 0 -0.6560590369687036 0 -0.75470957328743171 forward_v I I I I #
face $-1 $156 $157 $57 $-1 $158 forward single #
loop $-1 $159 $160 $75 #
cone-surface $-1 70.578105927894299 -18.11228431990137 3.146541591013432 -0.6560590369687036 0 -0.75470957328743171 0.75470957328743171 0 -0.6560590369687036 1 I I 0 1 1 forward I I I I #
face $-1 $161 $162 $58 $-1 $163 forward single #
loop $-1 $164 $165 $76 #
cone-surface $-1 70.578105927894299 -14.898922905092714 3.146541591013432 -0.6560590369687036 0 -0.75470957328743171 0.75470957328743171 0 -0.6560590369687036 1 I I 0 1 1 forward I I I I #
face $-1 $166 $167 $59 $-1 $168 reversed single #
loop $-1 $-1 $169 $77 #
plane-surface $-1 60.672642822881514 1.4104405385214438 214.10309662726019 0 -1 0 -0.6560590369687036 0 -0.75470957328743171 forward_v I I I I #
face $-1 $170 $171 $60 $-1 $172 forward single #
loop $-1 $173 $174 $78 #
cone-surface $-1 70.578105927894299 -3.9451618194929807 3.146541591013432 -0.6560590369687036 0 -0.75470957328743171 0.75470957328743171 0 -0.6560590369687036 1 I I 0 1 1 forward I I I I #
face $-1 $175 $176 $61 $-1 $177 forward single #
loop $-1 $178 $179 $79 #
cone-surface $-1 70.578105927894299 -0.73180040468432495 3.146541591013432 -0.6560590369687036 0 -0.75470957328743171 0.75470957328743171 0 -0.6560590369687036 1 I I 0 1 1 forward I I I I #
face $-1 $180 $181 $62 $-1 $182 reversed single #
loop $-1 $-1 $183 $80 #
plane-surface $-1 60.672642822881514 15.577563038929833 214.10309662726019 0 -1 0 -0.6560590369687036 0 -0.75470957328743171 forward_v I I I I #
face $-1 $184 $185 $63 $-1 $186 forward single #
loop $-1 $187 $188 $81 #
cone-surface $-1 70.578105927894299 10.221960680915409 3.146541591013432 -0.6560590369687036 0 -0.75470957328743171 0.75470957328743171 0 -0.6560590369687036 1 I I 0 1 1 forward I I I I #
face $-1 $189 $190 $64 $-1 $191 forward single #
loop $-1 $192 $193 $82 #
cone-surface $-1 70.578105927894299 13.435322095724061 3.146541591013432 -0.6560590369687036 0 -0.75470957328743171 0.75470957328743171 0 -0.6560590369687036 1 I I 0 1 1 forward I I I I #
face $-1 $194 $195 $65 $-1 $196 reversed single #
loop $-1 $-1 $197 $83 #
plane-surface $-1 60.672642822881514 29.744685539338221 214.10309662726019 0 -1 0 -0.6560590369687036 0 -0.75470957328743171 forward_v I I I I #
face $-1 $198 $199 $66 $-1 $200 forward single #
loop $-1 $201 $202 $84 #
cone-surface $-1 70.578105927894299 24.389083181323798 3.146541591013432 -0.6560590369687036 0 -0.75470957328743171 0.75470957328743171 0 -0.6560590369687036 1 I I 0 1 1 forward I I I I #
face $-1 $203 $204 $67 $-1 $205 forward single #
loop $-1 $206 $207 $85 #
cone-surface $-1 70.578105927894299 27.60244459613245 3.146541591013432 -0.6560590369687036 0 -0.75470957328743171 0.75470957328743171 0 -0.6560590369687036 1 I I 0 1 1 forward I I I I #
face $-1 $208 $209 $68 $-1 $210 reversed single #
loop $-1 $-1 $211 $86 #
plane-surface $-1 -200.9127449382396 22.089872797342299 87.1847575661387 0 1 0 -0.82903758062907751 0 0.55919289150049634 forward_v I I I I #
face $-1 $212 $213 $69 $-1 $214 forward single #
loop $-1 $215 $216 $87 #
cone-surface $-1 -73.361431066709741 24.137163685120761 4.8845599337090073 0.82903758062907751 0 -0.55919289150049634 0.27959644575024817 0 0.41451879031453875 1 I I 0 1 0.5 forward I I I I #
face $-1 $217 $218 $70 $-1 $219 forward single #
loop $-1 $220 $221 $88 #
cone-surface $-1 -73.361431066709741 27.20810001678845 4.8845599337090073 0.82903758062907751 0 -0.55919289150049634 0.27959644575024817 0 0.41451879031453875 1 I I 0 1 0.5 forward I I I I #
face $-1 $222 $223 $71 $-1 $224 forward single #
loop $-1 $225 $226 $89 #
cone-surface $-1 -73.361431066709741 30.279036348456138 4.8845599337090073 0.82903758062907751 0 -0.55919289150049634 0.27959644575024817 0 0.41451879031453875 1 I I 0 1 0.5 forward I I I I #
face $-1 $227 $228 $54 $-1 $229 reversed single #
loop $-1 $-1 $230 $90 #
plane-surface $-1 0 0 -7.7837912918841345 0 0 1 1 0 0 forward_v I I I I #
coedge $-1 $231 $232 $233 $234 forward $91 $-1 #
face $-1 $235 $236 $55 $-1 $237 forward single #
loop $-1 $-1 $238 $93 #
plane-surface $-1 -72.585802789391764 -28.334245000816779 0 -1 0 0 0 0 1 forward_v I I I I #
coedge $-1 $239 $240 $241 $242 forward $94 $-1 #
face $-1 $243 $244 $56 $-1 $245 reversed single #
loop $-1 $-1 $246 $96 #
plane-surface $-1 -38.504855150147904 -16.50560361249704 100.01243868772053 0.6560590369687036 0 0.75470957328743171 0.75470957328743171 0 -0.6560590369687036 forward_v I I I I #
coedge $-1 $247 $248 $249 $250 reversed $97 $-1 #
face $-1 $-1 $251 $57 $-1 $252 forward single #
loop $-1 $253 $254 $99 #
cone-surface $-1 69.239248547829632 -18.11228431990137 1.606362392095499 -0.6560590369687036 0 -0.75470957328743171 0.37735478664371586 0 -0.3280295184843518 1 I I -0.70710678118654746 0.70710678118654746 0.5 forward I I I I #
loop $-1 $-1 $255 $75 #
coedge $-1 $160 $160 $256 $257 reversed $100 $-1 #
face $-1 $-1 $258 $58 $-1 $259 forward single #
loop $-1 $260 $261 $102 #
cone-surface $-1 69.239248547829632 -14.898922905092714 1.606362392095499 -0.6560590369687036 0 -0.75470957328743171 0.37735478664371586 0 -0.3280295184843518 1 I I -0.70710678118654746 0.70710678118654746 0.5 forward I I I I #
loop $-1 $-1 $262 $76 #
coedge $-1 $165 $165 $263 $264 reversed $103 $-1 #
face $-1 $265 $266 $59 $-1 $267 reversed single #
loop $-1 $-1 $268 $105 #
plane-surface $-1 -38.504855150147904 -2.3384811120886511 100.01243868772053 0.6560590369687036 0 0.75470957328743171 0.75470957328743171 0 -0.6560590369687036 forward_v I I I I #
coedge $-1 $269 $270 $271 $272 reversed $106 $-1 #
face $-1 $-1 $273 $60 $-1 $274 forward single #
loop $-1 $275 $276 $108 #
cone-surface $-1 69.239248547829632 -3.9451618194929807 1.606362392095499 -0.6560590369687036 0 -0.75470957328743171 0.37735478664371586 0 -0.3280295184843518 1 I I -0.70710678118654746 0.70710678118654746 0.5 forward I I I I #
loop $-1 $-1 $277 $78 #
coedge $-1 $174 $174 $278 $279 reversed $109 $-1 #
face $-1 $-1 $280 $61 $-1 $281 forward single #
loop $-1 $282 $283 $111 #
cone-surface $-1 69.239248547829632 -0.73180040468432495 1.606362392095499 -0.6560590369687036 0 -0.75470957328743171 0.37735478664371586 0 -0.3280295184843518 1 I I -0.70710678118654746 0.70710678118654746 0.5 forward I I I I #
loop $-1 $-1 $284 $79 #
coedge $-1 $179 $179 $285 $286 reversed $112 $-1 #
face $-1 $287 $288 $62 $-1 $289 reversed single #
loop $-1 $-1 $290 $114 #
plane-surface $-1 -38.504855150147904 11.828641388319738 100.01243868772053 0.6560590369687036 0 0.75470957328743171 0.75470957328743171 0 -0.6560590369687036 forward_v I I I I #
coedge $-1 $291 $292 $293 $294 reversed $115 $-1 #
face $-1 $-1 $295 $63 $-1 $296 forward single #
loop $-1 $297 $298 $117 #
cone-surface $-1 69.239248547829632 10.221960680915409 1.606362392095499 -0.6560590369687036 0 -0.75470957328743171 0.37735478664371586 0 -0.3280295184843518 1 I I -0.70710678118654746 0.70710678118654746 0.5 forward I I I I #
loop $-1 $-1 $299 $81 #
coedge $-1 $188 $188 $300 $301 reversed $118 $-1 #
face $-1 $-1 $302 $64 $-1 $303 forward single #
loop $-1 $304 $305 $120 #
cone-surface $-1 69.239248547829632 13.435322095724061 1.606362392095499 -0.6560590369687036 0 -0.75470957328743171 0.37735478664371586 0 -0.3280295184843518 1 I I -0.70710678118654746 0.70710678118654746 0.5 forward I I I I #
loop $-1 $-1 $306 $82 #
coedge $-1 $193 $193 $307 $308 reversed $121 $-1 #
face $-1 $309 $310 $65 $-1 $311 reversed single #
loop $-1 $-1 $312 $123 #
plane-surface $-1 -38.504855150147904 25.995763888728128 100.01243868772053 0.6560590369687036 0 0.75470957328743171 0.75470957328743171 0 -0.6560590369687036 forward_v I I I I #
coedge $-1 $313 $314 $315 $316 reversed $124 $-1 #
face $-1 $-1 $317 $66 $-1 $318 forward single #
loop $-1 $319 $320 $126 #
cone-surface $-1 69.239248547829632 24.389083181323798 1.606362392095499 -0.6560590369687036 0 -0.75470957328743171 0.37735478664371586 0 -0.3280295184843518 1 I I -0.70710678118654746 0.70710678118654746 0.5 forward I I I I #
loop $-1 $-1 $321 $84 #
coedge $-1 $202 $202 $322 $323 reversed $127 $-1 #
face $-1 $-1 $324 $67 $-1 $325 forward single #
loop $-1 $326 $327 $129 #
cone-surface $-1 69.239248547829632 27.60244459613245 1.606362392095499 -0.6560590369687036 0 -0.75470957328743171 0.37735478664371586 0 -0.3280295184843518 1 I I -0.70710678118654746 0.70710678118654746 0.5 forward I I I I #
loop $-1 $-1 $328 $85 #
coedge $-1 $207 $207 $329 $330 reversed $130 $-1 #
face $-1 $331 $332 $68 $-1 $333 reversed single #
loop $-1 $-1 $334 $132 #
plane-surface $-1 -75.585802789391749 27.20810001678845 2.6506703297661716 -0.82903758062907751 0 0.55919289150049634 0.55919289150049634 0 0.82903758062907751 forward_v I I I I #
coedge $-1 $335 $336 $337 $338 reversed $133 $-1 #
face $-1 $-1 $339 $69 $-1 $340 forward single #
loop $-1 $341 $342 $135 #
cone-surface $-1 -72.66096679841813 24.137163685120761 4.4120908337177314 0.82903758062907751 0 -0.55919289150049634 0.13979822287512408 0 0.20725939515726938 1 I I -0.70710678118654746 0.70710678118654746 0.25 forward I I I I #
loop $-1 $-1 $343 $87 #
coedge $-1 $216 $216 $344 $345 reversed $136 $-1 #
face $-1 $-1 $346 $70 $-1 $347 forward single #
loop $-1 $348 $349 $138 #
cone-surface $-1 -72.66096679841813 27.20810001678845 4.4120908337177314 0.82903758062907751 0 -0.55919289150049634 0.13979822287512408 0 0.20725939515726938 1 I I -0.70710678118654746 0.70710678118654746 0.25 forward I I I I #
loop $-1 $-1 $350 $88 #
coedge $-1 $221 $221 $351 $352 reversed $139 $-1 #
face $-1 $-1 $353 $71 $-1 $354 forward single #
loop $-1 $355 $356 $141 #
cone-surface $-1 -72.66096679841813 30.279036348456138 4.4120908337177314 0.82903758062907751 0 -0.55919289150049634 0.13979822287512408 0 0.20725939515726938 1 I I -0.70710678118654746 0.70710678118654746 0.25 forward I I I I #
loop $-1 $-1 $357 $89 #
coedge $-1 $226 $226 $358 $359 reversed $142 $-1 #
face $-1 $360 $361 $54 $-1 $362 reversed single #
loop $-1 $-1 $363 $144 #
plane-surface $-1 0 -32.326327236234604 0 0 1 0 0 0 1 forward_v I I I I #
coedge $-1 $364 $365 $366 $367 forward $145 $-1 #
coedge $-1 $368 $147 $369 $370 forward $91 $-1 #
coedge $-1 $147 $368 $371 $372 forward $91 $-1 #
coedge $-1 $373 $374 $147 $234 reversed $375 $-1 #
edge $-1 $376 -32.326327236234604 $377 32.326327236234604 $233 $378 forward 7 unknown #
face $-1 $379 $380 $55 $-1 $381 reversed single #
loop $-1 $-1 $382 $148 #
plane-surface $-1 0 0 7.7837912918841345 0 0 1 1 0 0 forward_v I I I I #
coedge $-1 $383 $384 $385 $386 reversed $149 $-1 #
coedge $-1 $387 $151 $388 $389 reversed $94 $-1 #
coedge $-1 $151 $387 $390 $391 reversed $94 $-1 #
coedge $-1 $384 $383 $151 $242 reversed $149 $-1 #
edge $-1 $392 -7.7837912918841345 $393 7.7837912918841345 $241 $394 forward 7 unknown #
face $-1 $395 $396 $56 $-1 $397 reversed single #
loop $-1 $-1 $398 $152 #
plane-surface $-1 60.672642822881514 -20.254525263107134 214.10309662726019 0 1 0 0.6560590369687036 0 0.75470957328743171 forward_v I I I I #
coedge $-1 $399 $400 $401 $402 reversed $153 $-1 #
coedge $-1 $248 $155 $403 $404 reversed $97 $-1 #
coedge $-1 $155 $247 $399 $405 reversed $97 $-1 #
coedge $-1 $401 $406 $155 $250 forward $407 $-1 #
edge $-1 $408 -45.249481377951007 $409 -37.255743378116613 $249 $410 forward 7 unknown #
loop $-1 $-1 $256 $156 #
plane-surface $-1 -38.504855150147904 -16.50560361249704 100.01243868772053 0.6560590369687036 0 0.75470957328743171 0.75470957328743171 0 -0.6560590369687036 forward_v I I I I #
loop $-1 $-1 $411 $99 #
coedge $-1 $254 $254 $255 $412 reversed $157 $-1 #
coedge $-1 $255 $255 $254 $412 forward $159 $-1 #
coedge $-1 $256 $256 $160 $257 forward $251 $-1 #
edge $-1 $413 0 $413 6.2831853071796004 $256 $414 forward 7 unknown #
loop $-1 $-1 $263 $161 #
plane-surface $-1 -38.504855150147904 -16.50560361249704 100.01243868772053 0.6560590369687036 0 0.75470957328743171 0.75470957328743171 0 -0.6560590369687036 forward_v I I I I #
loop $-1 $-1 $415 $102 #
coedge $-1 $261 $261 $262 $416 reversed $162 $-1 #
coedge $-1 $262 $262 $261 $416 forward $164 $-1 #
coedge $-1 $263 $263 $165 $264 forward $258 $-1 #
edge $-1 $417 0 $417 6.2831853071796004 $263 $418 forward 7 unknown #
face $-1 $419 $420 $59 $-1 $421 reversed single #
loop $-1 $-1 $422 $166 #
plane-surface $-1 60.672642822881514 -6.0874027626987459 214.10309662726019 0 1 0 0.6560590369687036 0 0.75470957328743171 forward_v I I I I #
coedge $-1 $423 $424 $425 $426 reversed $167 $-1 #
coedge $-1 $270 $169 $427 $428 reversed $106 $-1 #
coedge $-1 $169 $269 $423 $429 reversed $106 $-1 #
coedge $-1 $425 $430 $169 $272 forward $431 $-1 #
edge $-1 $432 -45.249481377951007 $433 -37.255743378116613 $271 $434 forward 7 unknown #
loop $-1 $-1 $278 $170 #
plane-surface $-1 -38.504855150147904 -2.3384811120886511 100.01243868772053 0.6560590369687036 0 0.75470957328743171 0.75470957328743171 0 -0.6560590369687036 forward_v I I I I #
loop $-1 $-1 $435 $108 #
coedge $-1 $276 $276 $277 $436 reversed $171 $-1 #
coedge $-1 $277 $277 $276 $436 forward $173 $-1 #
coedge $-1 $278 $278 $174 $279 forward $273 $-1 #
edge $-1 $437 0 $437 6.2831853071796004 $278 $438 forward 7 unknown #
loop $-1 $-1 $285 $175 #
plane-surface $-1 -38.504855150147904 -2.3384811120886511 100.01243868772053 0.6560590369687036 0 0.75470957328743171 0.75470957328743171 0 -0.6560590369687036 forward_v I I I I #
loop $-1 $-1 $439 $111 #
coedge $-1 $283 $283 $284 $440 reversed $176 $-1 #
coedge $-1 $284 $284 $283 $440 forward $178 $-1 #
coedge $-1 $285 $285 $179 $286 forward $280 $-1 #
edge $-1 $441 0 $441 6.2831853071796004 $285 $442 forward 7 unknown #
face $-1 $443 $444 $62 $-1 $445 reversed single #
loop $-1 $-1 $446 $180 #
plane-surface $-1 60.672642822881514 8.0797197377096435 214.10309662726019 0 1 0 0.6560590369687036 0 0.75470957328743171 forward_v I I I I #
coedge $-1 $447 $448 $449 $450 reversed $181 $-1 #
coedge $-1 $292 $183 $451 $452 reversed $115 $-1 #
coedge $-1 $183 $291 $447 $453 reversed $115 $-1 #
coedge $-1 $449 $454 $183 $294 forward $455 $-1 #
edge $-1 $456 -45.249481377951007 $457 -37.255743378116613 $293 $458 forward 7 unknown #
loop $-1 $-1 $300 $184 #
plane-surface $-1 -38.504855150147904 11.828641388319738 100.01243868772053 0.6560590369687036 0 0.75470957328743171 0.75470957328743171 0 -0.6560590369687036 forward_v I I I I #
loop $-1 $-1 $459 $117 #
coedge $-1 $298 $298 $299 $460 reversed $185 $-1 #
coedge $-1 $299 $299 $298 $460 forward $187 $-1 #
coedge $-1 $300 $300 $188 $301 forward $295 $-1 #
edge $-1 $461 0 $461 6.2831853071796004 $300 $462 forward 7 unknown #
loop $-1 $-1 $307 $189 #
plane-surface $-1 -38.504855150147904 11.828641388319738 100.01243868772053 0.6560590369687036 0 0.75470957328743171 0.75470957328743171 0 -0.6560590369687036 forward_v I I I I #
loop $-1 $-1 $463 $120 #
coedge $-1 $305 $305 $306 $464 reversed $190 $-1 #
coedge $-1 $306 $306 $305 $464 forward $192 $-1 #
coedge $-1 $307 $307 $193 $308 forward $302 $-1 #
edge $-1 $465 0 $465 6.2831853071796004 $307 $466 forward 7 unknown #
face $-1 $467 $468 $65 $-1 $469 reversed single #
loop $-1 $-1 $470 $194 #
plane-surface $-1 60.672642822881514 22.246842238118035 214.10309662726019 0 1 0 0.6560590369687036 0 0.75470957328743171 forward_v I I I I #
coedge $-1 $471 $472 $473 $474 reversed $195 $-1 #
coedge $-1 $314 $197 $475 $476 reversed $124 $-1 #
coedge $-1 $197 $313 $471 $477 reversed $124 $-1 #
coedge $-1 $473 $478 $197 $316 forward $479 $-1 #
edge $-1 $480 -45.249481377951007 $481 -37.255743378116613 $315 $482 forward 7 unknown #
loop $-1 $-1 $322 $198 #
plane-surface $-1 -38.504855150147904 25.995763888728128 100.01243868772053 0.6560590369687036 0 0.75470957328743171 0.75470957328743171 0 -0.6560590369687036 forward_v I I I I #
loop $-1 $-1 $483 $126 #
coedge $-1 $320 $320 $321 $484 reversed $199 $-1 #
coedge $-1 $321 $321 $320 $484 forward $201 $-1 #
coedge $-1 $322 $322 $202 $323 forward $317 $-1 #
edge $-1 $485 0 $485 6.2831853071796004 $322 $486 forward 7 unknown #
loop $-1 $-1 $329 $203 #
plane-surface $-1 -38.504855150147904 25.995763888728128 100.01243868772053 0.6560590369687036 0 0.75470957328743171 0.75470957328743171 0 -0.6560590369687036 forward_v I I I I #
loop $-1 $-1 $487 $129 #
coedge $-1 $327 $327 $328 $488 reversed $204 $-1 #
coedge $-1 $328 $328 $327 $488 forward $206 $-1 #
coedge $-1 $329 $329 $207 $330 forward $324 $-1 #
edge $-1 $489 0 $489 6.2831853071796004 $329 $490 forward 7 unknown #
face $-1 $491 $492 $68 $-1 $493 reversed single #
loop $-1 $-1 $494 $208 #
plane-surface $-1 0 32.326327236234604 0 0 -1 0 0 0 -1 forward_v I I I I #
coedge $-1 $495 $496 $497 $498 reversed $209 $-1 #
coedge $-1 $336 $211 $499 $500 reversed $133 $-1 #
coedge $-1 $211 $335 $495 $501 reversed $133 $-1 #
coedge $-1 $497 $502 $211 $338 forward $503 $-1 #
edge $-1 $504 24.870569679728035 $505 28.332903378823417 $337 $506 forward 7 unknown #
loop $-1 $-1 $344 $212 #
plane-surface $-1 -75.585802789391749 27.20810001678845 2.6506703297661716 -0.82903758062907751 0 0.55919289150049634 0.55919289150049634 0 0.82903758062907751 forward_v I I I I #
loop $-1 $-1 $507 $135 #
coedge $-1 $342 $342 $343 $508 reversed $213 $-1 #
coedge $-1 $343 $343 $342 $508 forward $215 $-1 #
coedge $-1 $344 $344 $216 $345 forward $339 $-1 #
edge $-1 $509 0 $509 6.2831853071796004 $344 $510 forward 7 unknown #
loop $-1 $-1 $351 $217 #
plane-surface $-1 -75.585802789391749 27.20810001678845 2.6506703297661716 -0.82903758062907751 0 0.55919289150049634 0.55919289150049634 0 0.82903758062907751 forward_v I I I I #
loop $-1 $-1 $511 $138 #
coedge $-1 $349 $349 $350 $512 reversed $218 $-1 #
coedge $-1 $350 $350 $349 $512 forward $220 $-1 #
coedge $-1 $351 $351 $221 $352 forward $346 $-1 #
edge $-1 $513 0 $513 6.2831853071796004 $351 $514 forward 7 unknown #
loop $-1 $-1 $358 $222 #
plane-surface $-1 -75.585802789391749 27.20810001678845 2.6506703297661716 -0.82903758062907751 0 0.55919289150049634 0.55919289150049634 0 0.82903758062907751 forward_v I I I I #
loop $-1 $-1 $515 $141 #
coedge $-1 $356 $356 $357 $516 reversed $223 $-1 #
coedge $-1 $357 $357 $356 $516 forward $225 $-1 #
coedge $-1 $358 $358 $226 $359 forward $353 $-1 #
edge $-1 $517 0 $517 6.2831853071796004 $358 $518 forward 7 unknown #
face $-1 $519 $520 $54 $-1 $521 reversed single #
loop $-1 $-1 $522 $227 #
plane-surface $-1 -75.585802789391764 0 0 1 0 0 0 0 -1 forward_v I I I I #
coedge $-1 $523 $371 $524 $525 forward $228 $-1 #
coedge $-1 $526 $230 $523 $527 forward $145 $-1 #
coedge $-1 $230 $526 $528 $529 forward $145 $-1 #
coedge $-1 $374 $373 $230 $367 reversed $375 $-1 #
edge $-1 $530 -32.326327236234604 $531 32.326327236234604 $366 $532 forward 7 unknown #
coedge $-1 $232 $231 $533 $534 forward $91 $-1 #
coedge $-1 $535 $536 $231 $370 reversed $520 $-1 #
edge $-1 $377 -75.585802789391764 $537 75.585802789391764 $369 $538 forward 7 unknown #
coedge $-1 $363 $539 $232 $372 reversed $228 $-1 #
edge $-1 $540 -75.585802789391764 $376 75.585802789391764 $371 $541 forward 7 unknown #
coedge $-1 $366 $233 $539 $542 forward $375 $-1 #
coedge $-1 $233 $366 $535 $543 reversed $375 $-1 #
loop $-1 $-1 $373 $519 #
vertex $-1 $234 $544 #
vertex $-1 $234 $545 #
straight-curve $-1 75.585802789391764 0 7.7837912918841345 0 1 0 I I #
face $-1 $546 $547 $55 $-1 $548 reversed single #
loop $-1 $-1 $549 $235 #
plane-surface $-1 -75.585802789391764 0 0 1 0 0 0 0 -1 forward_v I I I I #
coedge $-1 $390 $550 $384 $551 forward $236 $-1 #
coedge $-1 $241 $238 $552 $553 reversed $149 $-1 #
coedge $-1 $238 $241 $382 $551 reversed $149 $-1 #
coedge $-1 $554 $555 $238 $386 forward $556 $-1 #
edge $-1 $557 -7.7837912918841345 $558 7.7837912918841345 $385 $559 forward 7 unknown #
coedge $-1 $240 $239 $549 $560 reversed $94 $-1 #
coedge $-1 $552 $561 $239 $389 forward $547 $-1 #
edge $-1 $562 -38.542901394695882 $393 -35.542901394695882 $388 $563 forward 7 unknown #
coedge $-1 $564 $382 $240 $391 forward $236 $-1 #
edge $-1 $392 35.542901394695882 $565 38.542901394695882 $390 $566 forward 7 unknown #
vertex $-1 $391 $567 #
vertex $-1 $389 $568 #
straight-curve $-1 -72.585802789391764 -24.342162765398953 0 0 0 -1 I I #
face $-1 $-1 $407 $56 $-1 $569 forward single #
loop $-1 $-1 $570 $243 #
plane-surface $-1 75.585802789391764 0 0 -1 0 0 0 0 1 forward_v I I I I #
coedge $-1 $571 $572 $573 $574 reversed $244 $-1 #
coedge $-1 $575 $246 $248 $405 forward $153 $-1 #
coedge $-1 $246 $575 $571 $576 forward $153 $-1 #
coedge $-1 $573 $249 $246 $402 forward $407 $-1 #
edge $-1 $409 4.5038801556384254 $577 12.001723456858613 $401 $578 forward 7 unknown #
coedge $-1 $579 $580 $247 $404 forward $396 $-1 #
edge $-1 $581 -106.21660759893901 $408 -99.267757021745965 $403 $582 forward 7 unknown #
edge $-1 $409 140.57979876624435 $581 151.17160557878356 $248 $583 forward 7 unknown #
coedge $-1 $249 $573 $579 $584 forward $407 $-1 #
loop $-1 $-1 $573 $395 #
vertex $-1 $404 $585 #
vertex $-1 $250 $586 #
straight-curve $-1 30.336321411440757 -12.756681961886946 7.7837912918841283 -1 0 0 I I #
coedge $-1 $411 $411 $-1 $587 reversed $253 $-1 #
edge $-1 $588 0 $588 6.2831853071796004 $254 $589 forward 7 unknown #
vertex $-1 $257 $590 #
ellipse-curve $-1 71.588933789474567 -18.11228431990137 4.3093660032876056 0.6560590369687036 0 0.75470957328743171 0.75470957328743171 0 -0.6560590369687036 1 I I #
coedge $-1 $415 $415 $-1 $591 reversed $260 $-1 #
edge $-1 $592 0 $592 6.2831853071796004 $261 $593 forward 7 unknown #
vertex $-1 $264 $594 #
ellipse-curve $-1 71.588933789474567 -14.898922905092714 4.3093660032876056 0.6560590369687036 0 0.75470957328743171 0.75470957328743171 0 -0.6560590369687036 1 I I #
face $-1 $-1 $431 $59 $-1 $595 forward single #
loop $-1 $-1 $596 $265 #
plane-surface $-1 75.585802789391764 0 0 -1 0 0 0 0 1 forward_v I I I I #
coedge $-1 $597 $598 $599 $600 reversed $266 $-1 #
coedge $-1 $601 $268 $270 $429 forward $167 $-1 #
coedge $-1 $268 $601 $597 $602 forward $167 $-1 #
coedge $-1 $599 $271 $268 $426 forward $431 $-1 #
edge $-1 $433 -2.5796810945657693 $603 4.9181622066544204 $425 $604 forward 7 unknown #
coedge $-1 $605 $606 $269 $428 forward $420 $-1 #
edge $-1 $607 -106.21660759893901 $432 -99.267757021745965 $427 $608 forward 7 unknown #
edge $-1 $433 140.57979876624435 $607 151.17160557878356 $270 $609 forward 7 unknown #
coedge $-1 $271 $599 $605 $610 forward $431 $-1 #
loop $-1 $-1 $599 $419 #
vertex $-1 $428 $611 #
vertex $-1 $272 $612 #
straight-curve $-1 30.336321411440757 1.4104405385214438 7.7837912918841283 -1 0 0 I I #
coedge $-1 $435 $435 $-1 $613 reversed $275 $-1 #
edge $-1 $614 0 $614 6.2831853071796004 $276 $615 forward 7 unknown #
vertex $-1 $279 $616 #
ellipse-curve $-1 71.588933789474567 -3.9451618194929807 4.3093660032876056 0.6560590369687036 0 0.75470957328743171 0.75470957328743171 0 -0.6560590369687036 1 I I #
coedge $-1 $439 $439 $-1 $617 reversed $282 $-1 #
edge $-1 $618 0 $618 6.2831853071796004 $283 $619 forward 7 unknown #
vertex $-1 $286 $620 #
ellipse-curve $-1 71.588933789474567 -0.73180040468432495 4.3093660032876056 0.6560590369687036 0 0.75470957328743171 0.75470957328743171 0 -0.6560590369687036 1 I I #
face $-1 $-1 $455 $62 $-1 $621 forward single #
loop $-1 $-1 $622 $287 #
plane-surface $-1 75.585802789391764 0 0 -1 0 0 0 0 1 forward_v I I I I #
coedge $-1 $623 $624 $625 $626 reversed $288 $-1 #
coedge $-1 $627 $290 $292 $453 forward $181 $-1 #
coedge $-1 $290 $627 $623 $628 forward $181 $-1 #
coedge $-1 $625 $293 $290 $450 forward $455 $-1 #
edge $-1 $457 -9.663242344769964 $629 -2.1653990435497743 $449 $630 forward 7 unknown #
coedge $-1 $631 $632 $291 $452 forward $444 $-1 #
edge $-1 $633 -106.21660759893901 $456 -99.267757021745965 $451 $634 forward 7 unknown #
edge $-1 $457 140.57979876624435 $633 151.17160557878356 $292 $635 forward 7 unknown #
coedge $-1 $293 $625 $631 $636 forward $455 $-1 #
loop $-1 $-1 $625 $443 #
vertex $-1 $452 $637 #
vertex $-1 $294 $638 #
straight-curve $-1 30.336321411440757 15.577563038929833 7.7837912918841283 -1 0 0 I I #
coedge $-1 $459 $459 $-1 $639 reversed $297 $-1 #
edge $-1 $640 0 $640 6.2831853071796004 $298 $641 forward 7 unknown #
vertex $-1 $301 $642 #
ellipse-curve $-1 71.588933789474567 10.221960680915409 4.3093660032876056 0.6560590369687036 0 0.75470957328743171 0.75470957328743171 0 -0.6560590369687036 1 I I #
coedge $-1 $463 $463 $-1 $643 reversed $304 $-1 #
edge $-1 $644 0 $644 6.2831853071796004 $305 $645 forward 7 unknown #
vertex $-1 $308 $646 #
ellipse-curve $-1 71.588933789474567 13.435322095724061 4.3093660032876056 0.6560590369687036 0 0.75470957328743171 0.75470957328743171 0 -0.6560590369687036 1 I I #
face $-1 $-1 $479 $65 $-1 $647 forward single #
loop $-1 $-1 $648 $309 #
plane-surface $-1 75.585802789391764 0 0 -1 0 0 0 0 1 forward_v I I I I #
coedge $-1 $649 $650 $651 $652 reversed $310 $-1 #
coedge $-1 $653 $312 $314 $477 forward $195 $-1 #
coedge $-1 $312 $653 $649 $654 forward $195 $-1 #
coedge $-1 $651 $315 $312 $474 forward $479 $-1 #
edge $-1 $481 -16.746803594974157 $655 -9.2489602937539708 $473 $656 forward 7 unknown #
coedge $-1 $657 $658 $313 $476 forward $468 $-1 #
edge $-1 $659 -106.21660759893901 $480 -99.267757021745965 $475 $660 forward 7 unknown #
edge $-1 $481 140.57979876624435 $659 151.17160557878356 $314 $661 forward 7 unknown #
coedge $-1 $315 $651 $657 $662 forward $479 $-1 #
loop $-1 $-1 $651 $467 #
vertex $-1 $476 $663 #
vertex $-1 $316 $664 #
straight-curve $-1 30.336321411440757 29.744685539338221 7.7837912918841283 -1 0 0 I I #
coedge $-1 $483 $483 $-1 $665 reversed $319 $-1 #
edge $-1 $666 0 $666 6.2831853071796004 $320 $667 forward 7 unknown #
vertex $-1 $323 $668 #
ellipse-curve $-1 71.588933789474567 24.389083181323798 4.3093660032876056 0.6560590369687036 0 0.75470957328743171 0.75470957328743171 0 -0.6560590369687036 1 I I #
coedge $-1 $487 $487 $-1 $669 reversed $326 $-1 #
edge $-1 $670 0 $670 6.2831853071796004 $327 $671 forward 7 unknown #
vertex $-1 $330 $672 #
ellipse-curve $-1 71.588933789474567 27.60244459613245 4.3093660032876056 0.6560590369687036 0 0.75470957328743171 0.75470957328743171 0 -0.6560590369687036 1 I I #
face $-1 $-1 $503 $68 $-1 $673 forward single #
loop $-1 $-1 $674 $331 #
plane-surface $-1 -75.585802789391764 0 0 1 0 0 0 0 -1 forward_v I I I I #
coedge $-1 $675 $676 $496 $677 forward $332 $-1 #
coedge $-1 $678 $334 $336 $501 forward $209 $-1 #
coedge $-1 $334 $678 $494 $677 reversed $209 $-1 #
coedge $-1 $679 $337 $334 $498 forward $503 $-1 #
edge $-1 $505 8.4858227889480737 $680 18.72227722784038 $497 $681 forward 7 unknown #
coedge $-1 $682 $674 $335 $500 forward $492 $-1 #
edge $-1 $683 -40.9417084533032 $504 -35.808587491185214 $499 $684 forward 7 unknown #
edge $-1 $505 -6.1916625760474275 $683 2.5250441212413278e-014 $336 $685 forward 7 unknown #
coedge $-1 $337 $679 $682 $686 forward $503 $-1 #
loop $-1 $-1 $497 $491 #
vertex $-1 $500 $687 #
vertex $-1 $338 $688 #
straight-curve $-1 -100.4563724691198 22.089872797342299 7.7837912918841354 1 0 0 I I #
coedge $-1 $507 $507 $-1 $689 reversed $341 $-1 #
edge $-1 $690 0 $690 6.2831853071796004 $342 $691 forward 7 unknown #
vertex $-1 $345 $692 #
ellipse-curve $-1 -73.854635939844073 24.137163685120761 5.2172308108251482 -0.82903758062907751 0 0.55919289150049634 0.27959644575024817 0 0.41451879031453875 1 I I #
coedge $-1 $511 $511 $-1 $693 reversed $348 $-1 #
edge $-1 $694 0 $694 6.2831853071796004 $349 $695 forward 7 unknown #
vertex $-1 $352 $696 #
ellipse-curve $-1 -73.854635939844073 27.20810001678845 5.2172308108251482 -0.82903758062907751 0 0.55919289150049634 0.27959644575024817 0 0.41451879031453875 1 I I #
coedge $-1 $515 $515 $-1 $697 reversed $355 $-1 #
edge $-1 $698 0 $698 6.2831853071796004 $356 $699 forward 7 unknown #
vertex $-1 $359 $700 #
ellipse-curve $-1 -73.854635939844073 30.279036348456138 5.2172308108251482 -0.82903758062907751 0 0.55919289150049634 0.27959644575024817 0 0.41451879031453875 1 I I #
face $-1 $-1 $375 $54 $-1 $701 reversed single #
loop $-1 $-1 $535 $360 #
plane-surface $-1 0 32.326327236234604 0 0 -1 0 0 0 -1 forward_v I I I I #
coedge $-1 $702 $533 $536 $703 forward $361 $-1 #
coedge $-1 $539 $363 $364 $527 reversed $228 $-1 #
coedge $-1 $533 $702 $363 $525 reversed $361 $-1 #
edge $-1 $540 -7.7837912918841345 $704 7.7837912918841345 $524 $705 forward 7 unknown #
coedge $-1 $365 $364 $702 $706 forward $145 $-1 #
edge $-1 $531 -75.585802789391764 $704 75.585802789391764 $523 $707 forward 7 unknown #
coedge $-1 $536 $535 $365 $529 reversed $520 $-1 #
edge $-1 $708 -75.585802789391764 $530 75.585802789391764 $528 $709 forward 7 unknown #
vertex $-1 $367 $710 #
vertex $-1 $542 $711 #
straight-curve $-1 75.585802789391764 0 -7.7837912918841345 0 -1 0 I I #
coedge $-1 $522 $524 $368 $534 reversed $361 $-1 #
edge $-1 $537 -32.326327236234604 $540 32.326327236234604 $533 $712 forward 7 unknown #
coedge $-1 $528 $369 $374 $543 forward $520 $-1 #
coedge $-1 $369 $528 $522 $703 reversed $520 $-1 #
vertex $-1 $370 $713 #
straight-curve $-1 0 32.326327236234604 7.7837912918841345 -1 0 0 I I #
coedge $-1 $371 $523 $373 $542 reversed $228 $-1 #
vertex $-1 $534 $714 #
straight-curve $-1 0 -32.326327236234604 7.7837912918841345 1 0 0 I I #
edge $-1 $376 -7.7837912918841345 $531 7.7837912918841345 $373 $715 forward 7 unknown #
edge $-1 $377 -7.7837912918841345 $530 7.7837912918841345 $374 $716 forward 7 unknown #
point $-1 75.585802789391764 -32.326327236234604 7.7837912918841345 #
point $-1 75.585802789391764 32.326327236234604 7.7837912918841345 #
face $-1 $-1 $556 $55 $-1 $717 reversed single #
loop $-1 $-1 $552 $379 #
plane-surface $-1 0 0 -7.7837912918841345 0 0 1 1 0 0 forward_v I I I I #
coedge $-1 $718 $719 $387 $560 forward $380 $-1 #
coedge $-1 $382 $564 $554 $720 forward $236 $-1 #
edge $-1 $558 -18.159204735826215 $392 -10.175040264990564 $382 $721 forward 7 unknown #
coedge $-1 $722 $388 $383 $553 forward $547 $-1 #
edge $-1 $393 10.175040264990564 $557 18.159204735826215 $552 $723 forward 7 unknown #
coedge $-1 $724 $385 $550 $720 reversed $556 $-1 #
coedge $-1 $385 $724 $722 $725 reversed $556 $-1 #
loop $-1 $-1 $385 $546 #
vertex $-1 $725 $726 #
vertex $-1 $386 $727 #
straight-curve $-1 -72.585802789391764 -32.326327236234604 0 0 0 1 I I #
edge $-1 $565 -7.7837912918841345 $562 7.7837912918841345 $549 $728 forward 7 unknown #
coedge $-1 $388 $722 $718 $729 forward $547 $-1 #
vertex $-1 $389 $730 #
straight-curve $-1 -37.042901394695882 -24.342162765398953 -7.7837912918841345 1 0 0 I I #
coedge $-1 $550 $390 $719 $731 forward $236 $-1 #
vertex $-1 $731 $732 #
straight-curve $-1 -37.042901394695882 -24.342162765398953 7.7837912918841345 -1 0 0 I I #
point $-1 -72.585802789391764 -24.342162765398953 7.7837912918841345 #
point $-1 -72.585802789391764 -24.342162765398953 -7.7837912918841345 #
plane-surface $-1 0 0 7.7837912918841345 0 0 1 1 0 0 forward_v I I I I #
coedge $-1 $580 $579 $572 $733 forward $396 $-1 #
coedge $-1 $572 $398 $400 $576 reversed $244 $-1 #
coedge $-1 $398 $571 $570 $733 reversed $244 $-1 #
coedge $-1 $406 $401 $398 $574 forward $407 $-1 #
edge $-1 $577 37.255743378116613 $734 45.249481377951007 $573 $735 forward 7 unknown #
coedge $-1 $400 $399 $580 $736 reversed $153 $-1 #
edge $-1 $737 -151.17160557878356 $577 -140.57979876624435 $571 $738 forward 7 unknown #
vertex $-1 $402 $739 #
straight-curve $-1 67.592064789557355 -8.2528018062485202 7.7837912918841425 0 -1 0 I I #
coedge $-1 $570 $403 $406 $584 reversed $396 $-1 #
coedge $-1 $403 $570 $575 $736 forward $396 $-1 #
vertex $-1 $404 $740 #
straight-curve $-1 75.585802789391764 -12.756681961886946 107.05154831363009 0 0 1 I I #
straight-curve $-1 -38.504855150147904 -12.756681961886946 100.01243868772053 0.75470957328743171 0 -0.6560590369687036 I I #
edge $-1 $734 -20.254525263107134 $408 -12.756681961886946 $579 $741 forward 7 unknown #
point $-1 75.585802789391764 -12.756681961886946 7.7837912918841345 #
point $-1 67.592064789557369 -12.756681961886946 7.7837912918841283 #
edge $-1 $742 1 $742 0 $411 $-1 forward 7 unknown #
vertex $-1 $412 $743 #
ellipse-curve $-1 69.567278066313989 -18.11228431990137 1.9837171787392149 0.6560590369687036 0 0.75470957328743171 0.75470957328743171 0 -0.6560590369687036 1 I I #
point $-1 72.343643362762037 -18.11228431990137 3.6533069663189459 #
edge $-1 $744 1 $744 0 $415 $-1 forward 7 unknown #
vertex $-1 $416 $745 #
ellipse-curve $-1 69.567278066313989 -14.898922905092714 1.9837171787392149 0.6560590369687036 0 0.75470957328743171 0.75470957328743171 0 -0.6560590369687036 1 I I #
point $-1 72.343643362762037 -14.898922905092714 3.6533069663189459 #
plane-surface $-1 0 0 7.7837912918841345 0 0 1 1 0 0 forward_v I I I I #
coedge $-1 $606 $605 $598 $746 forward $420 $-1 #
coedge $-1 $598 $422 $424 $602 reversed $266 $-1 #
coedge $-1 $422 $597 $596 $746 reversed $266 $-1 #
coedge $-1 $430 $425 $422 $600 forward $431 $-1 #
edge $-1 $603 37.255743378116613 $747 45.249481377951007 $599 $748 forward 7 unknown #
coedge $-1 $424 $423 $606 $749 reversed $167 $-1 #
edge $-1 $750 -151.17160557878356 $603 -140.57979876624435 $597 $751 forward 7 unknown #
vertex $-1 $426 $752 #
straight-curve $-1 67.592064789557355 -1.1692405560443255 7.7837912918841425 0 -1 0 I I #
coedge $-1 $596 $427 $430 $610 reversed $420 $-1 #
coedge $-1 $427 $596 $601 $749 forward $420 $-1 #
vertex $-1 $428 $753 #
straight-curve $-1 75.585802789391764 1.4104405385214438 107.05154831363009 0 0 1 I I #
straight-curve $-1 -38.504855150147904 1.4104405385214438 100.01243868772053 0.75470957328743171 0 -0.6560590369687036 I I #
edge $-1 $747 -6.0874027626987459 $432 1.4104405385214438 $605 $754 forward 7 unknown #
point $-1 75.585802789391764 1.4104405385214438 7.7837912918841345 #
point $-1 67.592064789557369 1.4104405385214438 7.7837912918841283 #
edge $-1 $755 1 $755 0 $435 $-1 forward 7 unknown #
vertex $-1 $436 $756 #
ellipse-curve $-1 69.567278066313989 -3.9451618194929807 1.9837171787392149 0.6560590369687036 0 0.75470957328743171 0.75470957328743171 0 -0.6560590369687036 1 I I #
point $-1 72.343643362762037 -3.9451618194929807 3.6533069663189459 #
edge $-1 $757 1 $757 0 $439 $-1 forward 7 unknown #
vertex $-1 $440 $758 #
ellipse-curve $-1 69.567278066313989 -0.73180040468432495 1.9837171787392149 0.6560590369687036 0 0.75470957328743171 0.75470957328743171 0 -0.6560590369687036 1 I I #
point $-1 72.343643362762037 -0.73180040468432495 3.6533069663189459 #
plane-surface $-1 0 0 7.7837912918841345 0 0 1 1 0 0 forward_v I I I I #
coedge $-1 $632 $631 $624 $759 forward $444 $-1 #
coedge $-1 $624 $446 $448 $628 reversed $288 $-1 #
coedge $-1 $446 $623 $622 $759 reversed $288 $-1 #
coedge $-1 $454 $449 $446 $626 forward $455 $-1 #
edge $-1 $629 37.255743378116613 $760 45.249481377951007 $625 $761 forward 7 unknown #
coedge $-1 $448 $447 $632 $762 reversed $181 $-1 #
edge $-1 $763 -151.17160557878356 $629 -140.57979876624435 $623 $764 forward 7 unknown #
vertex $-1 $450 $765 #
straight-curve $-1 67.592064789557355 5.9143206941598692 7.7837912918841425 0 -1 0 I I #
coedge $-1 $622 $451 $454 $636 reversed $444 $-1 #
coedge $-1 $451 $622 $627 $762 forward $444 $-1 #
vertex $-1 $452 $766 #
straight-curve $-1 75.585802789391764 15.577563038929833 107.05154831363009 0 0 1 I I #
straight-curve $-1 -38.504855150147904 15.577563038929833 100.01243868772053 0.75470957328743171 0 -0.6560590369687036 I I #
edge $-1 $760 8.0797197377096435 $456 15.577563038929833 $631 $767 forward 7 unknown #
point $-1 75.585802789391764 15.577563038929833 7.7837912918841345 #
point $-1 67.592064789557369 15.577563038929833 7.7837912918841283 #
edge $-1 $768 1 $768 0 $459 $-1 forward 7 unknown #
vertex $-1 $460 $769 #
ellipse-curve $-1 69.567278066313989 10.221960680915409 1.9837171787392149 0.6560590369687036 0 0.75470957328743171 0.75470957328743171 0 -0.6560590369687036 1 I I #
point $-1 72.343643362762037 10.221960680915409 3.6533069663189459 #
edge $-1 $770 1 $770 0 $463 $-1 forward 7 unknown #
vertex $-1 $464 $771 #
ellipse-curve $-1 69.567278066313989 13.435322095724061 1.9837171787392149 0.6560590369687036 0 0.75470957328743171 0.75470957328743171 0 -0.6560590369687036 1 I I #
point $-1 72.343643362762037 13.435322095724061 3.6533069663189459 #
plane-surface $-1 0 0 7.7837912918841345 0 0 1 1 0 0 forward_v I I I I #
coedge $-1 $658 $657 $650 $772 forward $468 $-1 #
coedge $-1 $650 $470 $472 $654 reversed $310 $-1 #
coedge $-1 $470 $649 $648 $772 reversed $310 $-1 #
coedge $-1 $478 $473 $470 $652 forward $479 $-1 #
edge $-1 $655 37.255743378116613 $773 45.249481377951007 $651 $774 forward 7 unknown #
coedge $-1 $472 $471 $658 $775 reversed $195 $-1 #
edge $-1 $776 -151.17160557878356 $655 -140.57979876624435 $649 $777 forward 7 unknown #
vertex $-1 $474 $778 #
straight-curve $-1 67.592064789557355 12.997881944364064 7.7837912918841425 0 -1 0 I I #
coedge $-1 $648 $475 $478 $662 reversed $468 $-1 #
coedge $-1 $475 $648 $653 $775 forward $468 $-1 #
vertex $-1 $476 $779 #
straight-curve $-1 75.585802789391764 29.744685539338221 107.05154831363009 0 0 1 I I #
straight-curve $-1 -38.504855150147904 29.744685539338221 100.01243868772053 0.75470957328743171 0 -0.6560590369687036 I I #
edge $-1 $773 22.246842238118035 $480 29.744685539338221 $657 $780 forward 7 unknown #
point $-1 75.585802789391764 29.744685539338221 7.7837912918841345 #
point $-1 67.592064789557369 29.744685539338221 7.7837912918841283 #
edge $-1 $781 1 $781 0 $483 $-1 forward 7 unknown #
vertex $-1 $484 $782 #
ellipse-curve $-1 69.567278066313989 24.389083181323798 1.9837171787392149 0.6560590369687036 0 0.75470957328743171 0.75470957328743171 0 -0.6560590369687036 1 I I #
point $-1 72.343643362762037 24.389083181323798 3.6533069663189459 #
edge $-1 $783 1 $783 0 $487 $-1 forward 7 unknown #
vertex $-1 $488 $784 #
ellipse-curve $-1 69.567278066313989 27.60244459613245 1.9837171787392149 0.6560590369687036 0 0.75470957328743171 0.75470957328743171 0 -0.6560590369687036 1 I I #
point $-1 72.343643362762037 27.60244459613245 3.6533069663189459 #
plane-surface $-1 0 0 7.7837912918841345 0 0 1 1 0 0 forward_v I I I I #
coedge $-1 $499 $785 $678 $786 forward $492 $-1 #
coedge $-1 $676 $494 $785 $787 reversed $332 $-1 #
coedge $-1 $494 $675 $679 $788 reversed $332 $-1 #
edge $-1 $680 13.843106574428386 $789 20.034769150475839 $494 $790 forward 7 unknown #
coedge $-1 $496 $495 $674 $786 reversed $209 $-1 #
coedge $-1 $502 $497 $676 $788 forward $503 $-1 #
vertex $-1 $788 $791 #
straight-curve $-1 -72.123469090296382 13.604050008394225 7.7837912918841337 0 1 0 I I #
coedge $-1 $785 $499 $502 $686 reversed $492 $-1 #
vertex $-1 $500 $792 #
straight-curve $-1 -75.585802789391764 22.089872797342299 43.59237878306935 0 0 1 I I #
straight-curve $-1 -75.585802789391749 22.089872797342299 2.6506703297661716 -0.55919289150049634 0 -0.82903758062907751 I I #
edge $-1 $793 -32.326327236234604 $504 -22.089872797342299 $682 $794 forward 7 unknown #
point $-1 -75.585802789391764 22.089872797342299 7.7837912918841345 #
point $-1 -72.123469090296382 22.089872797342299 7.7837912918841345 #
edge $-1 $795 1 $795 0 $507 $-1 forward 7 unknown #
vertex $-1 $508 $796 #
ellipse-curve $-1 -72.868226193575396 24.137163685120761 4.5518890565928558 -0.82903758062907751 0 0.55919289150049634 0.27959644575024817 0 0.41451879031453875 1 I I #
point $-1 -73.575039494093829 24.137163685120761 5.6317496011396972 #
edge $-1 $797 1 $797 0 $511 $-1 forward 7 unknown #
vertex $-1 $512 $798 #
ellipse-curve $-1 -72.868226193575396 27.20810001678845 4.5518890565928558 -0.82903758062907751 0 0.55919289150049634 0.27959644575024817 0 0.41451879031453875 1 I I #
point $-1 -73.575039494093829 27.20810001678845 5.6317496011396972 #
edge $-1 $799 1 $799 0 $515 $-1 forward 7 unknown #
vertex $-1 $516 $800 #
ellipse-curve $-1 -72.868226193575396 30.279036348456138 4.5518890565928558 -0.82903758062907751 0 0.55919289150049634 0.27959644575024817 0 0.41451879031453875 1 I I #
point $-1 -73.575039494093829 30.279036348456138 5.6317496011396972 #
plane-surface $-1 75.585802789391764 0 0 -1 0 0 0 0 1 forward_v I I I I #
coedge $-1 $524 $522 $526 $706 reversed $361 $-1 #
edge $-1 $537 -7.7837912918841345 $708 7.7837912918841345 $536 $801 forward 7 unknown #
vertex $-1 $706 $802 #
straight-curve $-1 -75.585802789391764 -32.326327236234604 0 0 0 -1 I I #
edge $-1 $704 -32.326327236234604 $708 32.326327236234604 $702 $803 forward 7 unknown #
straight-curve $-1 0 -32.326327236234604 -7.7837912918841345 -1 0 0 I I #
vertex $-1 $529 $804 #
straight-curve $-1 0 32.326327236234604 -7.7837912918841345 1 0 0 I I #
point $-1 75.585802789391764 32.326327236234604 -7.7837912918841345 #
point $-1 75.585802789391764 -32.326327236234604 -7.7837912918841345 #
straight-curve $-1 -75.585802789391764 0 7.7837912918841345 0 -1 0 I I #
point $-1 -75.585802789391764 32.326327236234604 7.7837912918841345 #
point $-1 -75.585802789391764 -32.326327236234604 7.7837912918841345 #
straight-curve $-1 75.585802789391764 -32.326327236234604 0 0 0 -1 I I #
straight-curve $-1 75.585802789391764 32.326327236234604 0 0 0 -1 I I #
plane-surface $-1 0 -32.326327236234604 0 0 1 0 0 0 1 forward_v I I I I #
coedge $-1 $805 $549 $561 $729 reversed $380 $-1 #
coedge $-1 $549 $805 $564 $731 reversed $380 $-1 #
edge $-1 $806 -75.585802789391764 $558 -72.585802789391764 $554 $807 forward 7 unknown #
straight-curve $-1 -72.585802789391764 -14.167122500408389 7.7837912918841345 0 1 0 I I #
coedge $-1 $561 $552 $555 $725 forward $547 $-1 #
straight-curve $-1 -72.585802789391764 -14.167122500408389 -7.7837912918841345 0 -1 0 I I #
coedge $-1 $555 $554 $805 $808 forward $556 $-1 #
edge $-1 $557 72.585802789391764 $809 75.585802789391764 $555 $810 forward 7 unknown #
point $-1 -72.585802789391764 -32.326327236234604 -7.7837912918841345 #
point $-1 -72.585802789391764 -32.326327236234604 7.7837912918841345 #
straight-curve $-1 -75.585802789391764 -24.342162765398953 0 0 0 -1 I I #
edge $-1 $809 -32.326327236234604 $562 -24.342162765398953 $718 $811 forward 7 unknown #
point $-1 -75.585802789391764 -24.342162765398953 -7.7837912918841345 #
edge $-1 $565 24.342162765398953 $806 32.326327236234604 $719 $812 forward 7 unknown #
point $-1 -75.585802789391764 -24.342162765398953 7.7837912918841345 #
edge $-1 $734 99.267757021745965 $737 106.21660759893901 $570 $813 forward 7 unknown #
vertex $-1 $584 $814 #
straight-curve $-1 30.336321411440757 -20.254525263107134 7.7837912918841283 1 0 0 I I #
edge $-1 $737 -12.001723456858613 $581 -4.5038801556384254 $580 $815 forward 7 unknown #
vertex $-1 $736 $816 #
straight-curve $-1 -38.504855150147904 -20.254525263107134 100.01243868772053 -0.75470957328743171 0 0.6560590369687036 I I #
point $-1 67.592064789557369 -20.254525263107134 7.7837912918841283 #
point $-1 75.585802789391764 -12.756681961886946 0.83494071469108633 #
straight-curve $-1 75.585802789391764 0 7.7837912918841345 0 1 0 I I #
vertex $-1 $587 $817 #
point $-1 70.321987639601417 -18.11228431990137 1.3276581417705113 #
vertex $-1 $591 $818 #
point $-1 70.321987639601417 -14.898922905092714 1.3276581417705113 #
edge $-1 $747 99.267757021745965 $750 106.21660759893901 $596 $819 forward 7 unknown #
vertex $-1 $610 $820 #
straight-curve $-1 30.336321411440757 -6.0874027626987459 7.7837912918841283 1 0 0 I I #
edge $-1 $750 -4.9181622066544204 $607 2.5796810945657693 $606 $821 forward 7 unknown #
vertex $-1 $749 $822 #
straight-curve $-1 -38.504855150147904 -6.0874027626987459 100.01243868772053 -0.75470957328743171 0 0.6560590369687036 I I #
point $-1 67.592064789557369 -6.0874027626987459 7.7837912918841283 #
point $-1 75.585802789391764 1.4104405385214438 0.83494071469108633 #
straight-curve $-1 75.585802789391764 0 7.7837912918841345 0 1 0 I I #
vertex $-1 $613 $823 #
point $-1 70.321987639601417 -3.9451618194929807 1.3276581417705113 #
vertex $-1 $617 $824 #
point $-1 70.321987639601417 -0.73180040468432495 1.3276581417705113 #
edge $-1 $760 99.267757021745965 $763 106.21660759893901 $622 $825 forward 7 unknown #
vertex $-1 $636 $826 #
straight-curve $-1 30.336321411440757 8.0797197377096435 7.7837912918841283 1 0 0 I I #
edge $-1 $763 2.1653990435497743 $633 9.663242344769964 $632 $827 forward 7 unknown #
vertex $-1 $762 $828 #
straight-curve $-1 -38.504855150147904 8.0797197377096435 100.01243868772053 -0.75470957328743171 0 0.6560590369687036 I I #
point $-1 67.592064789557369 8.0797197377096435 7.7837912918841283 #
point $-1 75.585802789391764 15.577563038929833 0.83494071469108633 #
straight-curve $-1 75.585802789391764 0 7.7837912918841345 0 1 0 I I #
vertex $-1 $639 $829 #
point $-1 70.321987639601417 10.221960680915409 1.3276581417705113 #
vertex $-1 $643 $830 #
point $-1 70.321987639601417 13.435322095724061 1.3276581417705113 #
edge $-1 $773 99.267757021745965 $776 106.21660759893901 $648 $831 forward 7 unknown #
vertex $-1 $662 $832 #
straight-curve $-1 30.336321411440757 22.246842238118035 7.7837912918841283 1 0 0 I I #
edge $-1 $776 9.2489602937539708 $659 16.746803594974157 $658 $833 forward 7 unknown #
vertex $-1 $775 $834 #
straight-curve $-1 -38.504855150147904 22.246842238118035 100.01243868772053 -0.75470957328743171 0 0.6560590369687036 I I #
point $-1 67.592064789557369 22.246842238118035 7.7837912918841283 #
point $-1 75.585802789391764 29.744685539338221 0.83494071469108633 #
straight-curve $-1 75.585802789391764 0 7.7837912918841345 0 1 0 I I #
vertex $-1 $665 $835 #
point $-1 70.321987639601417 24.389083181323798 1.3276581417705113 #
vertex $-1 $669 $836 #
point $-1 70.321987639601417 27.60244459613245 1.3276581417705113 #
coedge $-1 $674 $682 $675 $787 forward $492 $-1 #
edge $-1 $789 -18.72227722784038 $683 -8.4858227889480737 $674 $837 forward 7 unknown #
edge $-1 $793 -7.7837912918841345 $789 -2.6506703297661507 $675 $838 forward 7 unknown #
edge $-1 $680 72.123469090296382 $793 75.585802789391764 $676 $839 forward 7 unknown #
vertex $-1 $786 $840 #
straight-curve $-1 -64.382502297592239 32.326327236234604 19.260246874738719 -0.55919289150049634 0 -0.82903758062907751 I I #
point $-1 -72.123469090296382 32.326327236234604 7.7837912918841345 #
point $-1 -75.585802789391764 22.089872797342299 2.6506703297661507 #
vertex $-1 $788 $841 #
straight-curve $-1 -75.585802789391764 0 7.7837912918841345 0 -1 0 I I #
vertex $-1 $689 $842 #
point $-1 -72.588629747825152 24.137163685120761 4.9664078469073942 #
vertex $-1 $693 $843 #
point $-1 -72.588629747825152 27.20810001678845 4.9664078469073942 #
vertex $-1 $697 $844 #
point $-1 -72.588629747825152 30.279036348456138 4.9664078469073942 #
straight-curve $-1 -75.585802789391764 32.326327236234604 0 0 0 -1 I I #
point $-1 -75.585802789391764 -32.326327236234604 -7.7837912918841345 #
straight-curve $-1 -75.585802789391764 0 -7.7837912918841345 0 1 0 I I #
point $-1 -75.585802789391764 32.326327236234604 -7.7837912918841345 #
coedge $-1 $719 $718 $724 $808 reversed $380 $-1 #
vertex $-1 $731 $845 #
straight-curve $-1 0 -32.326327236234604 7.7837912918841345 1 0 0 I I #
edge $-1 $806 -7.7837912918841345 $809 7.7837912918841345 $805 $846 forward 7 unknown #
vertex $-1 $729 $847 #
straight-curve $-1 0 -32.326327236234604 -7.7837912918841345 -1 0 0 I I #
straight-curve $-1 -75.585802789391764 0 -7.7837912918841345 0 1 0 I I #
straight-curve $-1 -75.585802789391764 0 7.7837912918841345 0 -1 0 I I #
straight-curve $-1 75.585802789391764 -20.254525263107134 107.05154831363009 0 0 -1 I I #
point $-1 75.585802789391764 -20.254525263107134 7.7837912918841345 #
straight-curve $-1 75.585802789391778 -8.2528018062485202 0.83494071469109343 0 1 0 I I #
point $-1 75.585802789391764 -20.254525263107134 0.83494071469108633 #
point $-1 68.911219029345276 -18.11228431990137 1.2290076054517831 #
point $-1 68.911219029345276 -14.898922905092714 1.2290076054517831 #
straight-curve $-1 75.585802789391764 -6.0874027626987459 107.05154831363009 0 0 -1 I I #
point $-1 75.585802789391764 -6.0874027626987459 7.7837912918841345 #
straight-curve $-1 75.585802789391778 -1.1692405560443255 0.83494071469109343 0 1 0 I I #
point $-1 75.585802789391764 -6.0874027626987459 0.83494071469108633 #
point $-1 68.911219029345276 -3.9451618194929807 1.2290076054517831 #
point $-1 68.911219029345276 -0.73180040468432495 1.2290076054517831 #
straight-curve $-1 75.585802789391764 8.0797197377096435 107.05154831363009 0 0 -1 I I #
point $-1 75.585802789391764 8.0797197377096435 7.7837912918841345 #
straight-curve $-1 75.585802789391778 5.9143206941598692 0.83494071469109343 0 1 0 I I #
point $-1 75.585802789391764 8.0797197377096435 0.83494071469108633 #
point $-1 68.911219029345276 10.221960680915409 1.2290076054517831 #
point $-1 68.911219029345276 13.435322095724061 1.2290076054517831 #
straight-curve $-1 75.585802789391764 22.246842238118035 107.05154831363009 0 0 -1 I I #
point $-1 75.585802789391764 22.246842238118035 7.7837912918841345 #
straight-curve $-1 75.585802789391778 12.997881944364064 0.83494071469109343 0 1 0 I I #
point $-1 75.585802789391764 22.246842238118035 0.83494071469108633 #
point $-1 68.911219029345276 24.389083181323798 1.2290076054517831 #
point $-1 68.911219029345276 27.60244459613245 1.2290076054517831 #
straight-curve $-1 -75.585802789391764 13.604050008394225 2.6506703297661454 0 -1 0 I I #
straight-curve $-1 -75.585802789391764 32.326327236234604 0 0 0 -1 I I #
straight-curve $-1 0 32.326327236234604 7.7837912918841345 -1 0 0 I I #
point $-1 -75.585802789391764 32.326327236234604 2.6506703297661507 #
point $-1 -75.585802789391764 32.326327236234604 7.7837912918841345 #
point $-1 -72.453707403260864 24.137163685120761 4.2722926108426069 #
point $-1 -72.453707403260864 27.20810001678845 4.2722926108426069 #
point $-1 -72.453707403260864 30.279036348456138 4.2722926108426069 #
point $-1 -75.585802789391764 -32.326327236234604 7.7837912918841345 #
straight-curve $-1 -75.585802789391764 -32.326327236234604 0 0 0 -1 I I #
point $-1 -75.585802789391764 -32.326327236234604 -7.7837912918841345 #
End-of-ACIS-data 