500 0 9 0           
7 Unknown 11 ACIS 5.0 NT 24 Fri Mar 26 15:35:15 1999 
-1 9.9999999999999995e-007 1e-010 
body $-1 $9 $-1 $10 #
body $-1 $11 $-1 $12 #
body $-1 $13 $-1 $14 #
body $-1 $15 $-1 $16 #
body $-1 $17 $-1 $18 #
body $-1 $19 $-1 $20 #
body $-1 $21 $-1 $22 #
body $-1 $23 $-1 $24 #
body $-1 $25 $-1 $26 #
lump $-1 $-1 $27 $0 #
transform $-1 1 0 0 0 1 0 0 0 1 52.004760887478255 31.533451084715161 9.0990563678695597 1 rotate no_reflect no_shear #
lump $-1 $-1 $28 $1 #
transform $-1 1 0 0 0 1 0 0 0 1 52.004760887478255 31.533451084715161 9.0990563678695597 1 rotate no_reflect no_shear #
lump $-1 $-1 $29 $2 #
transform $-1 1 0 0 0 1 0 0 0 1 52.004760887478255 31.533451084715161 9.0990563678695597 1 rotate no_reflect no_shear #
lump $-1 $-1 $30 $3 #
transform $-1 1 0 0 0 1 0 0 0 1 52.004760887478255 31.533451084715161 9.0990563678695597 1 rotate no_reflect no_shear #
lump $-1 $-1 $31 $4 #
transform $-1 1 0 0 0 1 0 0 0 1 52.004760887478255 31.533451084715161 9.0990563678695597 1 rotate no_reflect no_shear #
lump $-1 $-1 $32 $5 #
transform $-1 1 0 0 0 1 0 0 0 1 52.004760887478255 31.533451084715161 9.0990563678695597 1 rotate no_reflect no_shear #
lump $-1 $-1 $33 $6 #
transform $-1 1 0 0 0 1 0 0 0 1 52.004760887478255 31.533451084715161 9.0990563678695597 1 rotate no_reflect no_shear #
lump $-1 $-1 $34 $7 #
transform $-1 1 0 0 0 1 0 0 0 1 52.004760887478255 31.533451084715161 9.0990563678695597 1 rotate no_reflect no_shear #
lump $-1 $-1 $35 $8 #
transform $-1 1 0 0 0 1 0 0 0 1 52.004760887478255 31.533451084715161 9.0990563678695597 1 rotate no_reflect no_shear #
shell $-1 $-1 $-1 $36 $-1 $9 #
shell $-1 $-1 $-1 $37 $-1 $11 #
shell $-1 $-1 $-1 $38 $-1 $13 #
shell $-1 $-1 $-1 $39 $-1 $15 #
shell $-1 $-1 $-1 $40 $-1 $17 #
shell $-1 $-1 $-1 $41 $-1 $19 #
shell $-1 $-1 $-1 $42 $-1 $21 #
shell $-1 $-1 $-1 $43 $-1 $23 #
shell $-1 $-1 $-1 $44 $-1 $25 #
face $-1 $45 $46 $27 $-1 $47 forward single #
face $-1 $48 $49 $28 $-1 $50 forward single #
face $-1 $51 $52 $29 $-1 $53 reversed single #
face $-1 $54 $55 $30 $-1 $56 reversed single #
face $-1 $57 $58 $31 $-1 $59 forward single #
face $-1 $60 $61 $32 $-1 $62 forward single #
face $-1 $63 $64 $33 $-1 $65 reversed single #
face $-1 $66 $67 $34 $-1 $68 forward single #
face $-1 $69 $70 $35 $-1 $71 forward single #
face $-1 $72 $73 $27 $-1 $74 reversed single #
loop $-1 $-1 $75 $36 #
plane-surface $-1 0 0 9.0990563678695597 0 0 1 1 0 0 forward_v I I I I #
face $-1 $76 $77 $28 $-1 $78 reversed single #
loop $-1 $-1 $79 $37 #
plane-surface $-1 0 -31.533451084715161 0 0 1 0 0 0 1 forward_v I I I I #
face $-1 $80 $81 $29 $-1 $82 reversed single #
loop $-1 $-1 $83 $38 #
plane-surface $-1 -41.5787884915501 22.317826160612064 0 0 1 0 0 0 1 forward_v I I I I #
face $-1 $84 $85 $30 $-1 $86 reversed single #
loop $-1 $-1 $87 $39 #
plane-surface $-1 -104.00952247168888 -14.920640545972461 95.235828146024375 0 1 0 -0.50000000669873634 0 0.8660253999169214 forward_v I I I I #
face $-1 $88 $89 $31 $-1 $90 forward single #
loop $-1 $91 $92 $40 #
cone-surface $-1 -48.344252522065176 -13.182073681765836 6.6969857118262794 0.50000000669873634 0 -0.8660253999169214 0.4330126999584607 0 0.25000000334936817 1 I I 0 1 0.5 forward I I I I #
face $-1 $93 $94 $32 $-1 $95 forward single #
loop $-1 $96 $97 $41 #
cone-surface $-1 -48.344252522065176 -10.574223385455898 6.6969857118262794 0.50000000669873634 0 -0.8660253999169214 0.4330126999584607 0 0.25000000334936817 1 I I 0 1 0.5 forward I I I I #
face $-1 $98 $99 $33 $-1 $100 reversed single #
loop $-1 $-1 $101 $42 #
plane-surface $-1 -104.00952247168888 9.6867863692602221 95.235828146024375 0 1 0 -0.50000000669873634 0 0.8660253999169214 forward_v I I I I #
face $-1 $102 $103 $34 $-1 $104 forward single #
loop $-1 $105 $106 $43 #
cone-surface $-1 -48.344252522065176 11.425353233466851 6.6969857118262794 0.50000000669873634 0 -0.8660253999169214 0.4330126999584607 0 0.25000000334936817 1 I I 0 1 0.5 forward I I I I #
face $-1 $107 $108 $35 $-1 $109 forward single #
loop $-1 $110 $111 $44 #
cone-surface $-1 -48.344252522065176 14.033203529776792 6.6969857118262794 0.50000000669873634 0 -0.8660253999169214 0.4330126999584607 0 0.25000000334936817 1 I I 0 1 0.5 forward I I I I #
face $-1 $112 $113 $27 $-1 $114 reversed single #
loop $-1 $-1 $115 $45 #
plane-surface $-1 0 0 -9.0990563678695597 0 0 1 1 0 0 forward_v I I I I #
coedge $-1 $116 $117 $118 $119 forward $46 $-1 #
face $-1 $120 $121 $28 $-1 $122 reversed single #
loop $-1 $-1 $123 $48 #
plane-surface $-1 0 0 -9.0990563678695597 0 0 1 1 0 0 forward_v I I I I #
coedge $-1 $124 $125 $126 $127 forward $49 $-1 #
face $-1 $128 $129 $29 $-1 $130 reversed single #
loop $-1 $-1 $131 $51 #
plane-surface $-1 -44.214479690489092 26.925638622663612 0 1 0 0 0 0 -1 forward_v I I I I #
coedge $-1 $132 $133 $134 $135 forward $52 $-1 #
face $-1 $136 $137 $30 $-1 $138 reversed single #
loop $-1 $-1 $139 $54 #
plane-surface $-1 -52.004760887478263 -11.878148533610865 5.1609404556999152 -0.50000000669873634 0 0.8660253999169214 0.8660253999169214 0 0.50000000669873634 forward_v I I I I #
coedge $-1 $140 $141 $142 $143 reversed $55 $-1 #
face $-1 $-1 $144 $31 $-1 $145 forward single #
loop $-1 $146 $147 $57 #
cone-surface $-1 -47.969252517041127 -13.182073681765836 6.0474666618885884 0.50000000669873634 0 -0.8660253999169214 0.21650634997923035 0 0.12500000167468409 1 I I -0.70710678118654746 0.70710678118654746 0.25 forward I I I I #
loop $-1 $-1 $148 $40 #
coedge $-1 $92 $92 $149 $150 reversed $58 $-1 #
face $-1 $-1 $151 $32 $-1 $152 forward single #
loop $-1 $153 $154 $60 #
cone-surface $-1 -47.969252517041127 -10.574223385455898 6.0474666618885884 0.50000000669873634 0 -0.8660253999169214 0.21650634997923035 0 0.12500000167468409 1 I I -0.70710678118654746 0.70710678118654746 0.25 forward I I I I #
loop $-1 $-1 $155 $41 #
coedge $-1 $97 $97 $156 $157 reversed $61 $-1 #
face $-1 $158 $159 $33 $-1 $160 reversed single #
loop $-1 $-1 $161 $63 #
plane-surface $-1 -52.004760887478263 12.729278381621818 5.1609404556999152 -0.50000000669873634 0 0.8660253999169214 0.8660253999169214 0 0.50000000669873634 forward_v I I I I #
coedge $-1 $162 $163 $164 $165 reversed $64 $-1 #
face $-1 $-1 $166 $34 $-1 $167 forward single #
loop $-1 $168 $169 $66 #
cone-surface $-1 -47.969252517041127 11.425353233466851 6.0474666618885884 0.50000000669873634 0 -0.8660253999169214 0.21650634997923035 0 0.12500000167468409 1 I I -0.70710678118654746 0.70710678118654746 0.25 forward I I I I #
loop $-1 $-1 $170 $43 #
coedge $-1 $106 $106 $171 $172 reversed $67 $-1 #
face $-1 $-1 $173 $35 $-1 $174 forward single #
loop $-1 $175 $176 $69 #
cone-surface $-1 -47.969252517041127 14.033203529776792 6.0474666618885884 0.50000000669873634 0 -0.8660253999169214 0.21650634997923035 0 0.12500000167468409 1 I I -0.70710678118654746 0.70710678118654746 0.25 forward I I I I #
loop $-1 $-1 $177 $44 #
coedge $-1 $111 $111 $178 $179 reversed $70 $-1 #
face $-1 $180 $181 $27 $-1 $182 reversed single #
loop $-1 $-1 $183 $72 #
plane-surface $-1 0 -31.533451084715161 0 0 1 0 0 0 1 forward_v I I I I #
coedge $-1 $184 $185 $186 $187 forward $73 $-1 #
coedge $-1 $188 $75 $189 $190 forward $46 $-1 #
coedge $-1 $75 $188 $191 $192 forward $46 $-1 #
coedge $-1 $193 $194 $75 $119 reversed $195 $-1 #
edge $-1 $196 -31.533451084715161 $197 31.533451084715161 $118 $198 forward 7 unknown #
face $-1 $199 $200 $28 $-1 $201 forward single #
loop $-1 $-1 $202 $76 #
plane-surface $-1 52.004760887478255 0 0 -1 0 0 0 0 1 forward_v I I I I #
coedge $-1 $203 $204 $205 $206 forward $77 $-1 #
coedge $-1 $205 $79 $202 $207 reversed $49 $-1 #
coedge $-1 $79 $205 $208 $209 reversed $49 $-1 #
coedge $-1 $210 $211 $79 $127 reversed $200 $-1 #
edge $-1 $212 -52.004760887478255 $213 52.004760887478255 $126 $214 forward 7 unknown #
face $-1 $215 $216 $29 $-1 $217 forward single #
loop $-1 $-1 $218 $80 #
plane-surface $-1 -38.943097292611107 26.925638622663612 0 -1 0 0 0 0 1 forward_v I I I I #
coedge $-1 $219 $220 $221 $222 reversed $81 $-1 #
coedge $-1 $223 $83 $224 $225 reversed $52 $-1 #
coedge $-1 $83 $223 $226 $227 reversed $52 $-1 #
coedge $-1 $220 $219 $83 $135 reversed $81 $-1 #
edge $-1 $228 -9.0990563678695597 $229 9.0990563678695597 $134 $230 forward 7 unknown #
face $-1 $231 $232 $30 $-1 $233 forward single #
loop $-1 $-1 $234 $84 #
plane-surface $-1 -104.00952247168888 -8.8356565212492697 95.235828146024375 0 -1 0 0.50000000669873634 0 -0.8660253999169214 forward_v I I I I #
coedge $-1 $235 $236 $237 $238 reversed $85 $-1 #
coedge $-1 $141 $87 $239 $240 reversed $55 $-1 #
coedge $-1 $87 $140 $235 $241 reversed $55 $-1 #
coedge $-1 $237 $242 $87 $143 forward $232 $-1 #
edge $-1 $243 3.48366185676241e-007 $244 6.8210170724936106 $142 $245 forward 7 unknown #
loop $-1 $-1 $149 $88 #
plane-surface $-1 -52.004760887478263 -11.878148533610865 5.1609404556999152 -0.50000000669873634 0 0.8660253999169214 0.8660253999169214 0 0.50000000669873634 forward_v I I I I #
loop $-1 $-1 $246 $57 #
coedge $-1 $147 $147 $148 $247 reversed $89 $-1 #
coedge $-1 $148 $148 $147 $247 forward $91 $-1 #
coedge $-1 $149 $149 $92 $150 forward $144 $-1 #
edge $-1 $248 0 $248 6.2831853071796004 $149 $249 forward 7 unknown #
loop $-1 $-1 $156 $93 #
plane-surface $-1 -52.004760887478263 -11.878148533610865 5.1609404556999152 -0.50000000669873634 0 0.8660253999169214 0.8660253999169214 0 0.50000000669873634 forward_v I I I I #
loop $-1 $-1 $250 $60 #
coedge $-1 $154 $154 $155 $251 reversed $94 $-1 #
coedge $-1 $155 $155 $154 $251 forward $96 $-1 #
coedge $-1 $156 $156 $97 $157 forward $151 $-1 #
edge $-1 $252 0 $252 6.2831853071796004 $156 $253 forward 7 unknown #
face $-1 $254 $255 $33 $-1 $256 forward single #
loop $-1 $-1 $257 $98 #
plane-surface $-1 -104.00952247168888 15.771770393983413 95.235828146024375 0 -1 0 0.50000000669873634 0 -0.8660253999169214 forward_v I I I I #
coedge $-1 $258 $259 $260 $261 reversed $99 $-1 #
coedge $-1 $163 $101 $262 $263 reversed $64 $-1 #
coedge $-1 $101 $162 $258 $264 reversed $64 $-1 #
coedge $-1 $260 $265 $101 $165 forward $255 $-1 #
edge $-1 $266 3.48366185676241e-007 $267 6.8210170724936106 $164 $268 forward 7 unknown #
loop $-1 $-1 $171 $102 #
plane-surface $-1 -52.004760887478263 12.729278381621818 5.1609404556999152 -0.50000000669873634 0 0.8660253999169214 0.8660253999169214 0 0.50000000669873634 forward_v I I I I #
loop $-1 $-1 $269 $66 #
coedge $-1 $169 $169 $170 $270 reversed $103 $-1 #
coedge $-1 $170 $170 $169 $270 forward $105 $-1 #
coedge $-1 $171 $171 $106 $172 forward $166 $-1 #
edge $-1 $271 0 $271 6.2831853071796004 $171 $272 forward 7 unknown #
loop $-1 $-1 $178 $107 #
plane-surface $-1 -52.004760887478263 12.729278381621818 5.1609404556999152 -0.50000000669873634 0 0.8660253999169214 0.8660253999169214 0 0.50000000669873634 forward_v I I I I #
loop $-1 $-1 $273 $69 #
coedge $-1 $176 $176 $177 $274 reversed $108 $-1 #
coedge $-1 $177 $177 $176 $274 forward $110 $-1 #
coedge $-1 $178 $178 $111 $179 forward $173 $-1 #
edge $-1 $275 0 $275 6.2831853071796004 $178 $276 forward 7 unknown #
face $-1 $277 $278 $27 $-1 $279 reversed single #
loop $-1 $-1 $280 $112 #
plane-surface $-1 -52.004760887478255 0 0 1 0 0 0 0 -1 forward_v I I I I #
coedge $-1 $191 $281 $193 $282 reversed $113 $-1 #
coedge $-1 $283 $115 $281 $284 forward $73 $-1 #
coedge $-1 $115 $283 $285 $286 forward $73 $-1 #
coedge $-1 $194 $193 $115 $187 reversed $195 $-1 #
edge $-1 $287 -31.533451084715161 $288 31.533451084715161 $186 $289 forward 7 unknown #
coedge $-1 $117 $116 $290 $291 forward $46 $-1 #
coedge $-1 $292 $293 $116 $190 reversed $278 $-1 #
edge $-1 $197 -52.004760887478255 $294 52.004760887478255 $189 $295 forward 7 unknown #
coedge $-1 $296 $183 $117 $192 reversed $113 $-1 #
edge $-1 $297 -52.004760887478255 $196 52.004760887478255 $191 $298 forward 7 unknown #
coedge $-1 $186 $118 $183 $282 forward $195 $-1 #
coedge $-1 $118 $186 $292 $299 reversed $195 $-1 #
loop $-1 $-1 $193 $277 #
vertex $-1 $119 $300 #
vertex $-1 $119 $301 #
straight-curve $-1 52.004760887478255 0 9.0990563678695597 0 1 0 I I #
face $-1 $302 $303 $28 $-1 $304 reversed single #
loop $-1 $-1 $211 $120 #
plane-surface $-1 0 -36.566828470772187 -4.2929707274000144 0 0 1 1 0 0 forward_v I I I I #
coedge $-1 $305 $306 $124 $207 forward $121 $-1 #
coedge $-1 $307 $123 $306 $308 forward $77 $-1 #
coedge $-1 $123 $307 $309 $310 forward $77 $-1 #
coedge $-1 $125 $124 $123 $206 reversed $49 $-1 #
edge $-1 $311 -52.004760887478255 $312 52.004760887478255 $123 $313 forward 7 unknown #
edge $-1 $312 -9.0990563678695597 $213 -4.2929707274000144 $202 $314 forward 7 unknown #
coedge $-1 $309 $315 $125 $209 forward $316 $-1 #
edge $-1 $212 4.2929707274000144 $311 9.0990563678695597 $208 $317 forward 7 unknown #
coedge $-1 $318 $126 $315 $319 forward $200 $-1 #
coedge $-1 $126 $318 $305 $320 forward $200 $-1 #
vertex $-1 $209 $321 #
vertex $-1 $320 $322 #
straight-curve $-1 0 -31.533451084715161 -4.2929707274000144 1 0 0 I I #
face $-1 $323 $324 $29 $-1 $325 reversed single #
loop $-1 $-1 $326 $128 #
plane-surface $-1 0 0 9.0990563678695597 0 0 1 1 0 0 forward_v I I I I #
coedge $-1 $327 $328 $223 $329 forward $129 $-1 #
coedge $-1 $134 $131 $330 $331 reversed $81 $-1 #
coedge $-1 $131 $134 $326 $332 reversed $81 $-1 #
coedge $-1 $333 $334 $131 $222 forward $335 $-1 #
edge $-1 $336 -9.0990563678695597 $337 9.0990563678695597 $221 $338 forward 7 unknown #
coedge $-1 $133 $132 $218 $329 reversed $52 $-1 #
coedge $-1 $330 $339 $132 $225 forward $324 $-1 #
edge $-1 $340 18.153703046836057 $229 23.425085444714043 $224 $341 forward 7 unknown #
coedge $-1 $342 $326 $133 $227 forward $216 $-1 #
edge $-1 $228 -23.425085444714043 $343 -18.153703046836057 $226 $344 forward 7 unknown #
vertex $-1 $227 $345 #
vertex $-1 $225 $346 #
straight-curve $-1 -44.214479690489092 22.317826160612064 0 0 0 -1 I I #
face $-1 $-1 $347 $30 $-1 $348 reversed single #
loop $-1 $-1 $142 $136 #
plane-surface $-1 0 0 9.0990563678695597 0 0 1 1 0 0 forward_v I I I I #
coedge $-1 $349 $350 $351 $352 reversed $137 $-1 #
coedge $-1 $353 $139 $141 $241 forward $85 $-1 #
coedge $-1 $139 $353 $349 $354 forward $85 $-1 #
coedge $-1 $351 $142 $139 $238 forward $232 $-1 #
edge $-1 $244 -8.9815662791670281 $355 -2.8965822544438371 $237 $356 forward 7 unknown #
coedge $-1 $357 $358 $140 $240 forward $347 $-1 #
edge $-1 $359 -42.456973617312265 $243 -38.518857705142629 $239 $360 forward 7 unknown #
edge $-1 $244 -7.8762317188176905 $359 -8.3739266479457192e-015 $141 $361 forward 7 unknown #
coedge $-1 $142 $351 $357 $362 forward $232 $-1 #
vertex $-1 $240 $363 #
vertex $-1 $143 $364 #
straight-curve $-1 -52.004761235844441 -14.920640545972461 9.099056367869558 1 0 0 I I #
coedge $-1 $246 $246 $-1 $365 reversed $146 $-1 #
edge $-1 $366 0 $366 6.2831853071796004 $147 $367 forward 7 unknown #
vertex $-1 $150 $368 #
ellipse-curve $-1 -48.594252525414547 -13.182073681765836 7.1299984117847393 -0.50000000669873634 0 0.8660253999169214 0.4330126999584607 0 0.25000000334936817 1 I I #
coedge $-1 $250 $250 $-1 $369 reversed $153 $-1 #
edge $-1 $370 0 $370 6.2831853071796004 $154 $371 forward 7 unknown #
vertex $-1 $157 $372 #
ellipse-curve $-1 -48.594252525414547 -10.574223385455898 7.1299984117847393 -0.50000000669873634 0 0.8660253999169214 0.4330126999584607 0 0.25000000334936817 1 I I #
face $-1 $-1 $373 $33 $-1 $374 reversed single #
loop $-1 $-1 $164 $158 #
plane-surface $-1 0 0 9.0990563678695597 0 0 1 1 0 0 forward_v I I I I #
coedge $-1 $375 $376 $377 $378 reversed $159 $-1 #
coedge $-1 $379 $161 $163 $264 forward $99 $-1 #
coedge $-1 $161 $379 $375 $380 forward $99 $-1 #
coedge $-1 $377 $164 $161 $261 forward $255 $-1 #
edge $-1 $267 3.3221471784493133 $381 9.4071312031725043 $260 $382 forward 7 unknown #
coedge $-1 $383 $384 $162 $263 forward $373 $-1 #
edge $-1 $385 -42.456973617312265 $266 -38.518857705142629 $262 $386 forward 7 unknown #
edge $-1 $267 -7.8762317188176905 $385 -8.3739266479457192e-015 $163 $387 forward 7 unknown #
coedge $-1 $164 $377 $383 $388 forward $255 $-1 #
vertex $-1 $165 $389 #
vertex $-1 $165 $390 #
straight-curve $-1 -52.004761235844441 9.6867863692602221 9.099056367869558 1 0 0 I I #
coedge $-1 $269 $269 $-1 $391 reversed $168 $-1 #
edge $-1 $392 0 $392 6.2831853071796004 $169 $393 forward 7 unknown #
vertex $-1 $172 $394 #
ellipse-curve $-1 -48.594252525414547 11.425353233466851 7.1299984117847393 -0.50000000669873634 0 0.8660253999169214 0.4330126999584607 0 0.25000000334936817 1 I I #
coedge $-1 $273 $273 $-1 $395 reversed $175 $-1 #
edge $-1 $396 0 $396 6.2831853071796004 $176 $397 forward 7 unknown #
vertex $-1 $179 $398 #
ellipse-curve $-1 -48.594252525414547 14.033203529776792 7.1299984117847393 -0.50000000669873634 0 0.8660253999169214 0.4330126999584607 0 0.25000000334936817 1 I I #
face $-1 $-1 $195 $27 $-1 $399 reversed single #
loop $-1 $-1 $292 $180 #
plane-surface $-1 0 31.533451084715161 0 0 -1 0 0 0 -1 forward_v I I I I #
coedge $-1 $400 $290 $293 $401 forward $181 $-1 #
coedge $-1 $183 $296 $184 $284 reversed $113 $-1 #
edge $-1 $196 -9.0990563678695597 $288 9.0990563678695597 $193 $402 forward 7 unknown #
coedge $-1 $185 $184 $400 $403 forward $73 $-1 #
edge $-1 $288 -52.004760887478255 $404 52.004760887478255 $281 $405 forward 7 unknown #
coedge $-1 $293 $292 $185 $286 reversed $278 $-1 #
edge $-1 $406 -52.004760887478255 $287 52.004760887478255 $285 $407 forward 7 unknown #
vertex $-1 $187 $408 #
vertex $-1 $282 $409 #
straight-curve $-1 52.004760887478255 0 -9.0990563678695597 0 -1 0 I I #
coedge $-1 $280 $410 $188 $291 reversed $181 $-1 #
edge $-1 $294 -31.533451084715161 $297 31.533451084715161 $290 $411 forward 7 unknown #
coedge $-1 $285 $189 $194 $299 forward $278 $-1 #
coedge $-1 $189 $285 $280 $401 reversed $278 $-1 #
vertex $-1 $190 $412 #
straight-curve $-1 0 31.533451084715161 9.0990563678695597 -1 0 0 I I #
coedge $-1 $281 $191 $410 $413 forward $113 $-1 #
vertex $-1 $291 $414 #
straight-curve $-1 0 -31.533451084715161 9.0990563678695597 1 0 0 I I #
edge $-1 $197 -9.0990563678695597 $287 9.0990563678695597 $194 $415 forward 7 unknown #
point $-1 52.004760887478255 -31.533451084715161 9.0990563678695597 #
point $-1 52.004760887478255 31.533451084715161 9.0990563678695597 #
face $-1 $-1 $316 $28 $-1 $416 reversed single #
loop $-1 $-1 $417 $199 #
plane-surface $-1 0 -41.600205856829213 -6.6960135476347871 0 1 0 0 0 1 forward_v I I I I #
coedge $-1 $418 $202 $211 $320 reversed $121 $-1 #
coedge $-1 $202 $418 $203 $308 reversed $121 $-1 #
coedge $-1 $204 $203 $419 $420 forward $77 $-1 #
edge $-1 $312 31.533451084715161 $421 41.600205856829213 $306 $422 forward 7 unknown #
coedge $-1 $423 $208 $204 $310 reversed $316 $-1 #
edge $-1 $424 -41.600205856829213 $311 -31.533451084715161 $309 $425 forward 7 unknown #
vertex $-1 $209 $426 #
vertex $-1 $308 $427 #
straight-curve $-1 0 -31.533451084715161 -9.0990563678695597 1 0 0 I I #
straight-curve $-1 52.004760887478255 -31.533451084715161 0 0 0 1 I I #
coedge $-1 $208 $423 $210 $319 reversed $316 $-1 #
loop $-1 $-1 $208 $302 #
straight-curve $-1 -52.004760887478255 -31.533451084715161 0 0 0 -1 I I #
coedge $-1 $211 $210 $428 $429 forward $200 $-1 #
edge $-1 $212 -5.0333773860570261 $430 5.0333773860570261 $315 $431 forward 7 unknown #
edge $-1 $432 -5.0333773860570261 $213 5.0333773860570261 $305 $433 forward 7 unknown #
point $-1 -52.004760887478255 -31.533451084715161 -4.2929707274000144 #
point $-1 52.004760887478255 -31.533451084715161 -4.2929707274000144 #
face $-1 $-1 $335 $29 $-1 $434 reversed single #
loop $-1 $-1 $330 $215 #
plane-surface $-1 0 0 -9.0990563678695597 0 0 1 1 0 0 forward_v I I I I #
coedge $-1 $226 $435 $220 $332 forward $216 $-1 #
coedge $-1 $436 $218 $339 $437 reversed $129 $-1 #
coedge $-1 $218 $436 $342 $438 reversed $129 $-1 #
edge $-1 $343 -9.0990563678695597 $340 9.0990563678695597 $218 $439 forward 7 unknown #
coedge $-1 $440 $224 $219 $331 forward $324 $-1 #
edge $-1 $229 8.8550068492802581 $336 18.070631773383354 $330 $441 forward 7 unknown #
edge $-1 $337 -18.070631773383354 $228 -8.8550068492802581 $326 $442 forward 7 unknown #
coedge $-1 $443 $221 $435 $444 reversed $335 $-1 #
coedge $-1 $221 $443 $440 $445 reversed $335 $-1 #
loop $-1 $-1 $221 $323 #
vertex $-1 $445 $446 #
vertex $-1 $222 $447 #
straight-curve $-1 -44.214479690489092 31.533451084715161 0 0 0 1 I I #
coedge $-1 $224 $440 $327 $437 forward $324 $-1 #
vertex $-1 $225 $448 #
straight-curve $-1 -20.78939424577505 22.317826160612064 -9.0990563678695597 -1 0 0 I I #
coedge $-1 $435 $226 $328 $438 forward $216 $-1 #
vertex $-1 $227 $449 #
straight-curve $-1 -20.78939424577505 22.317826160612064 9.0990563678695597 1 0 0 I I #
point $-1 -44.214479690489092 22.317826160612064 9.0990563678695597 #
point $-1 -44.214479690489092 22.317826160612064 -9.0990563678695597 #
loop $-1 $-1 $239 $231 #
plane-surface $-1 -52.004760887478255 0 0 1 0 0 0 0 -1 forward_v I I I I #
coedge $-1 $350 $234 $236 $354 reversed $137 $-1 #
coedge $-1 $234 $349 $450 $451 reversed $137 $-1 #
coedge $-1 $242 $237 $234 $352 forward $232 $-1 #
edge $-1 $355 -6.8210170724936106 $452 -3.48366185676241e-007 $351 $453 forward 7 unknown #
coedge $-1 $236 $235 $358 $454 reversed $85 $-1 #
edge $-1 $455 8.3739266479457192e-015 $355 7.8762317188176905 $349 $456 forward 7 unknown #
vertex $-1 $238 $457 #
straight-curve $-1 -45.183744163350831 -5.9390742668054326 9.0990563678695615 0 1 0 I I #
coedge $-1 $450 $239 $242 $362 reversed $347 $-1 #
coedge $-1 $239 $450 $353 $454 forward $347 $-1 #
vertex $-1 $240 $458 #
straight-curve $-1 -52.004760887478255 -14.920640545972461 47.617914073012187 0 0 1 I I #
straight-curve $-1 -52.004760887478263 -14.920640545972461 5.1609404556999152 -0.8660253999169214 0 -0.50000000669873634 I I #
edge $-1 $452 8.8356565212492697 $243 14.920640545972461 $357 $459 forward 7 unknown #
point $-1 -52.004760887478255 -14.920640545972461 9.0990563678695597 #
point $-1 -45.183744163350831 -14.920640545972461 9.0990563678695597 #
edge $-1 $460 1 $460 0 $246 $-1 forward 7 unknown #
vertex $-1 $247 $461 #
ellipse-curve $-1 -48.094252518715813 -13.182073681765836 6.2639730118678187 -0.50000000669873634 0 0.8660253999169214 0.4330126999584607 0 0.25000000334936817 1 I I #
point $-1 -48.161239825456086 -13.182073681765836 7.379998415134108 #
edge $-1 $462 1 $462 0 $250 $-1 forward 7 unknown #
vertex $-1 $251 $463 #
ellipse-curve $-1 -48.094252518715813 -10.574223385455898 6.2639730118678187 -0.50000000669873634 0 0.8660253999169214 0.4330126999584607 0 0.25000000334936817 1 I I #
point $-1 -48.161239825456086 -10.574223385455898 7.379998415134108 #
loop $-1 $-1 $262 $254 #
plane-surface $-1 -52.004760887478255 0 0 1 0 0 0 0 -1 forward_v I I I I #
coedge $-1 $376 $257 $259 $380 reversed $159 $-1 #
coedge $-1 $257 $375 $464 $465 reversed $159 $-1 #
coedge $-1 $265 $260 $257 $378 forward $255 $-1 #
edge $-1 $381 -6.8210170724936106 $466 -3.48366185676241e-007 $377 $467 forward 7 unknown #
coedge $-1 $259 $258 $384 $468 reversed $99 $-1 #
edge $-1 $469 8.3739266479457192e-015 $381 7.8762317188176905 $375 $470 forward 7 unknown #
vertex $-1 $261 $471 #
straight-curve $-1 -45.183744163350831 6.3646391908109088 9.0990563678695615 0 1 0 I I #
coedge $-1 $464 $262 $265 $388 reversed $373 $-1 #
coedge $-1 $262 $464 $379 $468 forward $373 $-1 #
vertex $-1 $263 $472 #
straight-curve $-1 -52.004760887478255 9.6867863692602221 47.617914073012187 0 0 1 I I #
straight-curve $-1 -52.004760887478263 9.6867863692602221 5.1609404556999152 -0.8660253999169214 0 -0.50000000669873634 I I #
edge $-1 $466 -15.771770393983413 $266 -9.6867863692602221 $383 $473 forward 7 unknown #
point $-1 -52.004760887478255 9.6867863692602221 9.0990563678695597 #
point $-1 -45.183744163350831 9.6867863692602221 9.0990563678695597 #
edge $-1 $474 1 $474 0 $269 $-1 forward 7 unknown #
vertex $-1 $270 $475 #
ellipse-curve $-1 -48.094252518715813 11.425353233466851 6.2639730118678187 -0.50000000669873634 0 0.8660253999169214 0.4330126999584607 0 0.25000000334936817 1 I I #
point $-1 -48.161239825456086 11.425353233466851 7.379998415134108 #
edge $-1 $476 1 $476 0 $273 $-1 forward 7 unknown #
vertex $-1 $274 $477 #
ellipse-curve $-1 -48.094252518715813 14.033203529776792 6.2639730118678187 -0.50000000669873634 0 0.8660253999169214 0.4330126999584607 0 0.25000000334936817 1 I I #
point $-1 -48.161239825456086 14.033203529776792 7.379998415134108 #
plane-surface $-1 52.004760887478255 0 0 -1 0 0 0 0 1 forward_v I I I I #
coedge $-1 $410 $280 $283 $403 reversed $181 $-1 #
edge $-1 $294 -9.0990563678695597 $406 9.0990563678695597 $293 $478 forward 7 unknown #
straight-curve $-1 52.004760887478255 -31.533451084715161 0 0 0 -1 I I #
edge $-1 $404 -31.533451084715161 $406 31.533451084715161 $400 $479 forward 7 unknown #
vertex $-1 $403 $480 #
straight-curve $-1 0 -31.533451084715161 -9.0990563678695597 -1 0 0 I I #
vertex $-1 $286 $481 #
straight-curve $-1 0 31.533451084715161 -9.0990563678695597 1 0 0 I I #
point $-1 52.004760887478255 31.533451084715161 -9.0990563678695597 #
point $-1 52.004760887478255 -31.533451084715161 -9.0990563678695597 #
coedge $-1 $290 $400 $296 $413 reversed $181 $-1 #
straight-curve $-1 -52.004760887478255 0 9.0990563678695597 0 -1 0 I I #
point $-1 -52.004760887478255 31.533451084715161 9.0990563678695597 #
edge $-1 $297 -9.0990563678695597 $404 9.0990563678695597 $410 $482 forward 7 unknown #
point $-1 -52.004760887478255 -31.533451084715161 9.0990563678695597 #
straight-curve $-1 52.004760887478255 31.533451084715161 0 0 0 -1 I I #
plane-surface $-1 -52.004760887478255 0 0 1 0 0 0 0 -1 forward_v I I I I #
coedge $-1 $419 $428 $423 $483 forward $303 $-1 #
coedge $-1 $306 $305 $484 $485 forward $121 $-1 #
coedge $-1 $484 $417 $307 $420 reversed $303 $-1 #
edge $-1 $421 -52.004760887478255 $424 52.004760887478255 $419 $486 forward 7 unknown #
vertex $-1 $485 $487 #
straight-curve $-1 52.004760887478255 0 -9.0990563678695597 0 -1 0 I I #
coedge $-1 $315 $309 $417 $483 reversed $316 $-1 #
vertex $-1 $310 $488 #
straight-curve $-1 -52.004760887478255 0 -9.0990563678695597 0 1 0 I I #
point $-1 -52.004760887478255 -31.533451084715161 -9.0990563678695597 #
point $-1 52.004760887478255 -31.533451084715161 -9.0990563678695597 #
coedge $-1 $417 $484 $318 $429 reversed $303 $-1 #
edge $-1 $430 -52.004760887478255 $432 52.004760887478255 $428 $489 forward 7 unknown #
vertex $-1 $319 $490 #
straight-curve $-1 -52.004760887478255 -36.566828470772187 -4.2929707274000144 0 -1 0 I I #
vertex $-1 $320 $491 #
straight-curve $-1 52.004760887478255 -36.566828470772187 -4.2929707274000144 0 1 0 I I #
plane-surface $-1 0 31.533451084715161 0 0 -1 0 0 0 -1 forward_v I I I I #
coedge $-1 $326 $342 $333 $444 forward $216 $-1 #
coedge $-1 $328 $327 $443 $492 reversed $129 $-1 #
edge $-1 $493 -18.070631773383354 $340 -8.8550068492802581 $339 $494 forward 7 unknown #
edge $-1 $343 8.8550068492802581 $495 18.070631773383354 $342 $496 forward 7 unknown #
straight-curve $-1 -38.943097292611107 22.317826160612064 0 0 0 -1 I I #
coedge $-1 $339 $330 $334 $445 forward $324 $-1 #
straight-curve $-1 -44.214479690489092 13.462819311331806 -9.0990563678695597 0 1 0 I I #
straight-curve $-1 -44.214479690489092 13.462819311331806 9.0990563678695597 0 -1 0 I I #
coedge $-1 $334 $333 $436 $492 forward $335 $-1 #
edge $-1 $495 38.943097292611107 $337 44.214479690489092 $333 $497 forward 7 unknown #
edge $-1 $336 -44.214479690489092 $493 -38.943097292611107 $334 $498 forward 7 unknown #
point $-1 -44.214479690489092 31.533451084715161 -9.0990563678695597 #
point $-1 -44.214479690489092 31.533451084715161 9.0990563678695597 #
point $-1 -38.943097292611107 22.317826160612064 -9.0990563678695597 #
point $-1 -38.943097292611107 22.317826160612064 9.0990563678695597 #
coedge $-1 $358 $357 $350 $451 forward $347 $-1 #
edge $-1 $452 38.518857705142629 $455 42.456973617312265 $450 $499 forward 7 unknown #
vertex $-1 $362 $500 #
straight-curve $-1 -52.004761235844441 -8.8356565212492697 9.099056367869558 -1 0 0 I I #
edge $-1 $455 2.8965822544438371 $359 8.9815662791670281 $358 $501 forward 7 unknown #
vertex $-1 $454 $502 #
straight-curve $-1 -52.004760887478263 -8.8356565212492697 5.1609404556999152 0.8660253999169214 0 0.50000000669873634 I I #
point $-1 -45.183744163350831 -8.8356565212492697 9.0990563678695597 #
point $-1 -52.004760887478255 -14.920640545972461 5.1609404556999197 #
straight-curve $-1 -52.004760887478255 0 9.0990563678695597 0 -1 0 I I #
vertex $-1 $365 $503 #
point $-1 -47.661239818757352 -13.182073681765836 6.5139730152171866 #
vertex $-1 $369 $504 #
point $-1 -47.661239818757352 -10.574223385455898 6.5139730152171866 #
coedge $-1 $384 $383 $376 $465 forward $373 $-1 #
edge $-1 $466 38.518857705142629 $469 42.456973617312265 $464 $505 forward 7 unknown #
vertex $-1 $388 $506 #
straight-curve $-1 -52.004761235844441 15.771770393983413 9.099056367869558 -1 0 0 I I #
edge $-1 $469 -9.4071312031725043 $385 -3.3221471784493133 $384 $507 forward 7 unknown #
vertex $-1 $468 $508 #
straight-curve $-1 -52.004760887478263 15.771770393983413 5.1609404556999152 0.8660253999169214 0 0.50000000669873634 I I #
point $-1 -45.183744163350831 15.771770393983413 9.0990563678695597 #
point $-1 -52.004760887478255 9.6867863692602221 5.1609404556999197 #
straight-curve $-1 -52.004760887478255 0 9.0990563678695597 0 -1 0 I I #
vertex $-1 $391 $509 #
point $-1 -47.661239818757352 11.425353233466851 6.5139730152171866 #
vertex $-1 $395 $510 #
point $-1 -47.661239818757352 14.033203529776792 6.5139730152171866 #
straight-curve $-1 -52.004760887478255 31.533451084715161 0 0 0 -1 I I #
straight-curve $-1 -52.004760887478255 0 -9.0990563678695597 0 1 0 I I #
point $-1 -52.004760887478255 -31.533451084715161 -9.0990563678695597 #
point $-1 -52.004760887478255 31.533451084715161 -9.0990563678695597 #
straight-curve $-1 -52.004760887478255 -31.533451084715161 0 0 0 -1 I I #
edge $-1 $430 -2.4030428202347727 $424 2.4030428202347727 $423 $511 forward 7 unknown #
coedge $-1 $428 $419 $418 $485 reversed $303 $-1 #
edge $-1 $432 -2.4030428202347727 $421 2.4030428202347727 $418 $512 forward 7 unknown #
straight-curve $-1 0 -41.600205856829213 -9.0990563678695597 -1 0 0 I I #
point $-1 52.004760887478255 -41.600205856829213 -9.0990563678695597 #
point $-1 -52.004760887478255 -41.600205856829213 -9.0990563678695597 #
straight-curve $-1 0 -41.600205856829213 -4.2929707274000144 1 0 0 I I #
point $-1 -52.004760887478255 -41.600205856829213 -4.2929707274000144 #
point $-1 52.004760887478255 -41.600205856829213 -4.2929707274000144 #
edge $-1 $495 -9.0990563678695597 $493 9.0990563678695597 $443 $513 forward 7 unknown #
vertex $-1 $492 $514 #
straight-curve $-1 -38.943097292611107 13.462819311331806 -9.0990563678695597 0 -1 0 I I #
vertex $-1 $444 $515 #
straight-curve $-1 -38.943097292611107 13.462819311331806 9.0990563678695597 0 1 0 I I #
straight-curve $-1 0 31.533451084715161 9.0990563678695597 -1 0 0 I I #
straight-curve $-1 0 31.533451084715161 -9.0990563678695597 1 0 0 I I #
straight-curve $-1 -52.004760887478255 -8.8356565212492697 47.617914073012187 0 0 -1 I I #
point $-1 -52.004760887478255 -8.8356565212492697 9.0990563678695597 #
straight-curve $-1 -52.004760887478255 -5.9390742668054326 5.1609404556999188 0 -1 0 I I #
point $-1 -52.004760887478255 -8.8356565212492697 5.1609404556999197 #
point $-1 -47.844252515366442 -13.182073681765836 5.830960311909358 #
point $-1 -47.844252515366442 -10.574223385455898 5.830960311909358 #
straight-curve $-1 -52.004760887478255 15.771770393983413 47.617914073012187 0 0 -1 I I #
point $-1 -52.004760887478255 15.771770393983413 9.0990563678695597 #
straight-curve $-1 -52.004760887478255 6.3646391908109088 5.1609404556999188 0 -1 0 I I #
point $-1 -52.004760887478255 15.771770393983413 5.1609404556999197 #
point $-1 -47.844252515366442 11.425353233466851 5.830960311909358 #
point $-1 -47.844252515366442 14.033203529776792 5.830960311909358 #
straight-curve $-1 -52.004760887478255 -41.600205856829213 -6.6960135476347871 0 0 -1 I I #
straight-curve $-1 52.004760887478255 -41.600205856829213 -6.6960135476347871 0 0 -1 I I #
straight-curve $-1 -38.943097292611107 31.533451084715161 0 0 0 -1 I I #
point $-1 -38.943097292611107 31.533451084715161 -9.0990563678695597 #
point $-1 -38.943097292611107 31.533451084715161 9.0990563678695597 #
End-of-ACIS-data 