500 0 18 0           
7 Unknown 11 ACIS 5.0 NT 24 Thu Mar 25 17:12:03 1999 
-1 9.9999999999999995e-007 1e-010 
body $-1 $18 $-1 $19 #
body $-1 $20 $-1 $21 #
body $-1 $22 $-1 $23 #
body $-1 $24 $-1 $25 #
body $-1 $26 $-1 $27 #
body $-1 $28 $-1 $29 #
body $-1 $30 $-1 $31 #
body $-1 $32 $-1 $33 #
body $-1 $34 $-1 $35 #
body $-1 $36 $-1 $37 #
body $-1 $38 $-1 $39 #
body $-1 $40 $-1 $41 #
body $-1 $42 $-1 $43 #
body $-1 $44 $-1 $45 #
body $-1 $46 $-1 $47 #
body $-1 $48 $-1 $49 #
body $-1 $50 $-1 $51 #
body $-1 $52 $-1 $53 #
lump $-1 $-1 $54 $0 #
transform $-1 1 0 0 0 1 0 0 0 1 53.924985503708001 33.200886335303991 15.466625857272494 1 rotate no_reflect no_shear #
lump $-1 $-1 $55 $1 #
transform $-1 1 0 0 0 1 0 0 0 1 53.924985503708001 33.200886335303991 15.466625857272494 1 rotate no_reflect no_shear #
lump $-1 $-1 $56 $2 #
transform $-1 1 0 0 0 1 0 0 0 1 53.924985503708001 33.200886335303991 15.466625857272494 1 rotate no_reflect no_shear #
lump $-1 $-1 $57 $3 #
transform $-1 1 0 0 0 1 0 0 0 1 53.924985503708001 33.200886335303991 15.466625857272494 1 rotate no_reflect no_shear #
lump $-1 $-1 $58 $4 #
transform $-1 1 0 0 0 1 0 0 0 1 53.924985503708001 33.200886335303991 15.466625857272494 1 rotate no_reflect no_shear #
lump $-1 $-1 $59 $5 #
transform $-1 1 0 0 0 1 0 0 0 1 53.924985503708001 33.200886335303991 15.466625857272494 1 rotate no_reflect no_shear #
lump $-1 $-1 $60 $6 #
transform $-1 1 0 0 0 1 0 0 0 1 53.924985503708001 33.200886335303991 15.466625857272494 1 rotate no_reflect no_shear #
lump $-1 $-1 $61 $7 #
transform $-1 1 0 0 0 1 0 0 0 1 53.924985503708001 33.200886335303991 15.466625857272494 1 rotate no_reflect no_shear #
lump $-1 $-1 $62 $8 #
transform $-1 1 0 0 0 1 0 0 0 1 53.924985503708001 33.200886335303991 15.466625857272494 1 rotate no_reflect no_shear #
lump $-1 $-1 $63 $9 #
transform $-1 1 0 0 0 1 0 0 0 1 53.924985503708001 33.200886335303991 15.466625857272494 1 rotate no_reflect no_shear #
lump $-1 $-1 $64 $10 #
transform $-1 1 0 0 0 1 0 0 0 1 53.924985503708001 33.200886335303991 15.466625857272494 1 rotate no_reflect no_shear #
lump $-1 $-1 $65 $11 #
transform $-1 1 0 0 0 1 0 0 0 1 53.924985503708001 33.200886335303991 15.466625857272494 1 rotate no_reflect no_shear #
lump $-1 $-1 $66 $12 #
transform $-1 1 0 0 0 1 0 0 0 1 53.924985503708001 33.200886335303991 15.466625857272494 1 rotate no_reflect no_shear #
lump $-1 $-1 $67 $13 #
transform $-1 1 0 0 0 1 0 0 0 1 53.924985503708001 33.200886335303991 15.466625857272494 1 rotate no_reflect no_shear #
lump $-1 $-1 $68 $14 #
transform $-1 1 0 0 0 1 0 0 0 1 53.924985503708001 33.200886335303991 15.466625857272494 1 rotate no_reflect no_shear #
lump $-1 $-1 $69 $15 #
transform $-1 1 0 0 0 1 0 0 0 1 53.924985503708001 33.200886335303991 15.466625857272494 1 rotate no_reflect no_shear #
lump $-1 $-1 $70 $16 #
transform $-1 1 0 0 0 1 0 0 0 1 53.924985503708001 33.200886335303991 15.466625857272494 1 rotate no_reflect no_shear #
lump $-1 $-1 $71 $17 #
transform $-1 1 0 0 0 1 0 0 0 1 53.924985503708001 33.200886335303991 15.466625857272494 1 rotate no_reflect no_shear #
shell $-1 $-1 $-1 $72 $-1 $18 #
shell $-1 $-1 $-1 $73 $-1 $20 #
shell $-1 $-1 $-1 $74 $-1 $22 #
shell $-1 $-1 $-1 $75 $-1 $24 #
shell $-1 $-1 $-1 $76 $-1 $26 #
shell $-1 $-1 $-1 $77 $-1 $28 #
shell $-1 $-1 $-1 $78 $-1 $30 #
shell $-1 $-1 $-1 $79 $-1 $32 #
shell $-1 $-1 $-1 $80 $-1 $34 #
shell $-1 $-1 $-1 $81 $-1 $36 #
shell $-1 $-1 $-1 $82 $-1 $38 #
shell $-1 $-1 $-1 $83 $-1 $40 #
shell $-1 $-1 $-1 $84 $-1 $42 #
shell $-1 $-1 $-1 $85 $-1 $44 #
shell $-1 $-1 $-1 $86 $-1 $46 #
shell $-1 $-1 $-1 $87 $-1 $48 #
shell $-1 $-1 $-1 $88 $-1 $50 #
shell $-1 $-1 $-1 $89 $-1 $52 #
face $-1 $90 $91 $54 $-1 $92 forward single #
face $-1 $93 $94 $55 $-1 $95 forward single #
face $-1 $96 $97 $56 $-1 $98 reversed single #
face $-1 $99 $100 $57 $-1 $101 forward single #
face $-1 $102 $103 $58 $-1 $104 forward single #
face $-1 $105 $106 $59 $-1 $107 forward single #
face $-1 $108 $109 $60 $-1 $110 reversed single #
face $-1 $111 $112 $61 $-1 $113 forward single #
face $-1 $114 $115 $62 $-1 $116 forward single #
face $-1 $117 $118 $63 $-1 $119 forward single #
face $-1 $120 $121 $64 $-1 $122 reversed single #
face $-1 $123 $124 $65 $-1 $125 forward single #
face $-1 $126 $127 $66 $-1 $128 forward single #
face $-1 $129 $130 $67 $-1 $131 forward single #
face $-1 $132 $133 $68 $-1 $134 reversed single #
face $-1 $135 $136 $69 $-1 $137 forward single #
face $-1 $138 $139 $70 $-1 $140 forward single #
face $-1 $141 $142 $71 $-1 $143 forward single #
face $-1 $144 $145 $54 $-1 $146 reversed single #
loop $-1 $-1 $147 $72 #
plane-surface $-1 0 0 15.466625857272494 0 0 1 1 0 0 forward_v I I I I #
face $-1 $148 $149 $55 $-1 $150 reversed single #
loop $-1 $-1 $151 $73 #
plane-surface $-1 -45.592435816798961 0 14.966625857272494 0 0 1 1 0 0 forward_v I I I I #
face $-1 $152 $153 $56 $-1 $154 reversed single #
loop $-1 $-1 $155 $74 #
plane-surface $-1 -31.64664706094463 -33.200886335303998 3.5306951492504339 0 -0.54463904215088732 0.83867056331134215 1 0 0 forward_v I I I I #
face $-1 $156 $157 $57 $-1 $158 forward single #
loop $-1 $159 $160 $75 #
cone-surface $-1 -35.014590502311805 -23.530471180391345 8.7586713681201331 0 0.54463904215088732 -0.83867056331134215 1 0 0 1 I I 0 1 1 forward I I I I #
face $-1 $161 $162 $58 $-1 $163 forward single #
loop $-1 $164 $165 $76 #
cone-surface $-1 -31.646647060944634 -23.530471180391345 8.7586713681201331 0 0.54463904215088732 -0.83867056331134215 1 0 0 1 I I 0 1 1 forward I I I I #
face $-1 $166 $167 $59 $-1 $168 forward single #
loop $-1 $169 $170 $77 #
cone-surface $-1 -28.27870361957746 -23.530471180391345 8.7586713681201331 0 0.54463904215088732 -0.83867056331134215 1 0 0 1 I I 0 1 1 forward I I I I #
face $-1 $171 $172 $60 $-1 $173 reversed single #
loop $-1 $-1 $174 $78 #
plane-surface $-1 -10.607088297987476 -91.940191240784017 93.981291087151931 1 0 0 0 0.54463904215088732 -0.83867056331134215 forward_v I I I I #
face $-1 $175 $176 $61 $-1 $177 forward single #
loop $-1 $178 $179 $79 #
cone-surface $-1 -8.3617926704093577 -23.530471180391345 8.7586713681201331 0 0.54463904215088732 -0.83867056331134215 1 0 0 1 I I 0 1 1 forward I I I I #
face $-1 $180 $181 $62 $-1 $182 forward single #
loop $-1 $183 $184 $80 #
cone-surface $-1 -4.9938492290421834 -23.530471180391345 8.7586713681201331 0 0.54463904215088732 -0.83867056331134215 1 0 0 1 I I 0 1 1 forward I I I I #
face $-1 $185 $186 $63 $-1 $187 forward single #
loop $-1 $188 $189 $81 #
cone-surface $-1 -1.6259057876750092 -23.530471180391345 8.7586713681201331 0 0.54463904215088732 -0.83867056331134215 1 0 0 1 I I 0 1 1 forward I I I I #
face $-1 $190 $191 $64 $-1 $192 reversed single #
loop $-1 $-1 $193 $82 #
plane-surface $-1 16.045709533914973 -91.940191240784017 93.981291087151931 1 0 0 0 0.54463904215088732 -0.83867056331134215 forward_v I I I I #
face $-1 $194 $195 $65 $-1 $196 forward single #
loop $-1 $197 $198 $83 #
cone-surface $-1 18.291005161493089 -23.530471180391345 8.7586713681201331 0 0.54463904215088732 -0.83867056331134215 1 0 0 1 I I 0 1 1 forward I I I I #
face $-1 $199 $200 $66 $-1 $201 forward single #
loop $-1 $202 $203 $84 #
cone-surface $-1 21.658948602860264 -23.530471180391345 8.7586713681201331 0 0.54463904215088732 -0.83867056331134215 1 0 0 1 I I 0 1 1 forward I I I I #
face $-1 $204 $205 $67 $-1 $206 forward single #
loop $-1 $207 $208 $85 #
cone-surface $-1 25.026892044227438 -23.530471180391345 8.7586713681201331 0 0.54463904215088732 -0.83867056331134215 1 0 0 1 I I 0 1 1 forward I I I I #
face $-1 $209 $210 $68 $-1 $211 reversed single #
loop $-1 $-1 $212 $86 #
plane-surface $-1 42.69850736581742 -91.940191240784017 93.981291087151931 1 0 0 0 0.54463904215088732 -0.83867056331134215 forward_v I I I I #
face $-1 $213 $214 $69 $-1 $215 forward single #
loop $-1 $216 $217 $87 #
cone-surface $-1 44.943802993395536 -23.530471180391345 8.7586713681201331 0 0.54463904215088732 -0.83867056331134215 1 0 0 1 I I 0 1 1 forward I I I I #
face $-1 $218 $219 $70 $-1 $220 forward single #
loop $-1 $221 $222 $88 #
cone-surface $-1 48.311746434762711 -23.530471180391345 8.7586713681201331 0 0.54463904215088732 -0.83867056331134215 1 0 0 1 I I 0 1 1 forward I I I I #
face $-1 $223 $224 $71 $-1 $225 forward single #
loop $-1 $226 $227 $89 #
cone-surface $-1 51.679689876129885 -23.530471180391345 8.7586713681201331 0 0.54463904215088732 -0.83867056331134215 1 0 0 1 I I 0 1 1 forward I I I I #
face $-1 $228 $229 $54 $-1 $230 reversed single #
loop $-1 $-1 $231 $90 #
plane-surface $-1 0 0 -15.466625857272494 0 0 1 1 0 0 forward_v I I I I #
coedge $-1 $232 $233 $234 $235 forward $91 $-1 #
face $-1 $236 $237 $55 $-1 $238 reversed single #
loop $-1 $-1 $239 $93 #
plane-surface $-1 -45.592435816798961 0 8.6029686264434169 0 0 1 1 0 0 forward_v I I I I #
coedge $-1 $240 $241 $242 $243 forward $94 $-1 #
face $-1 $244 $245 $56 $-1 $246 reversed single #
loop $-1 $-1 $247 $96 #
plane-surface $-1 -26.03340799199934 -91.940191240784017 93.981291087151931 -1 0 0 0 -0.54463904215088732 0.83867056331134215 forward_v I I I I #
coedge $-1 $248 $249 $250 $251 reversed $97 $-1 #
face $-1 $-1 $252 $57 $-1 $253 forward single #
loop $-1 $254 $255 $99 #
cone-surface $-1 -35.014590502311805 -22.777597087119929 7.5993469513231346 0 0.54463904215088732 -0.83867056331134215 0.5 0 0 1 I I -0.70710678118654746 0.70710678118654746 0.5 forward I I I I #
loop $-1 $-1 $256 $75 #
coedge $-1 $160 $160 $257 $258 reversed $100 $-1 #
face $-1 $-1 $259 $58 $-1 $260 forward single #
loop $-1 $261 $262 $102 #
cone-surface $-1 -31.646647060944634 -22.777597087119929 7.5993469513231346 0 0.54463904215088732 -0.83867056331134215 0.5 0 0 1 I I -0.70710678118654746 0.70710678118654746 0.5 forward I I I I #
loop $-1 $-1 $263 $76 #
coedge $-1 $165 $165 $264 $265 reversed $103 $-1 #
face $-1 $-1 $266 $59 $-1 $267 forward single #
loop $-1 $268 $269 $105 #
cone-surface $-1 -28.27870361957746 -22.777597087119929 7.5993469513231346 0 0.54463904215088732 -0.83867056331134215 0.5 0 0 1 I I -0.70710678118654746 0.70710678118654746 0.5 forward I I I I #
loop $-1 $-1 $270 $77 #
coedge $-1 $170 $170 $271 $272 reversed $106 $-1 #
face $-1 $273 $274 $60 $-1 $275 reversed single #
loop $-1 $-1 $276 $108 #
plane-surface $-1 -4.9938492290421834 -33.200886335303998 3.5306951492504339 0 -0.54463904215088732 0.83867056331134215 1 0 0 forward_v I I I I #
coedge $-1 $277 $278 $279 $280 reversed $109 $-1 #
face $-1 $-1 $281 $61 $-1 $282 forward single #
loop $-1 $283 $284 $111 #
cone-surface $-1 -8.3617926704093577 -22.777597087119929 7.5993469513231346 0 0.54463904215088732 -0.83867056331134215 0.5 0 0 1 I I -0.70710678118654746 0.70710678118654746 0.5 forward I I I I #
loop $-1 $-1 $285 $79 #
coedge $-1 $179 $179 $286 $287 reversed $112 $-1 #
face $-1 $-1 $288 $62 $-1 $289 forward single #
loop $-1 $290 $291 $114 #
cone-surface $-1 -4.9938492290421834 -22.777597087119929 7.5993469513231346 0 0.54463904215088732 -0.83867056331134215 0.5 0 0 1 I I -0.70710678118654746 0.70710678118654746 0.5 forward I I I I #
loop $-1 $-1 $292 $80 #
coedge $-1 $184 $184 $293 $294 reversed $115 $-1 #
face $-1 $-1 $295 $63 $-1 $296 forward single #
loop $-1 $297 $298 $117 #
cone-surface $-1 -1.6259057876750092 -22.777597087119929 7.5993469513231346 0 0.54463904215088732 -0.83867056331134215 0.5 0 0 1 I I -0.70710678118654746 0.70710678118654746 0.5 forward I I I I #
loop $-1 $-1 $299 $81 #
coedge $-1 $189 $189 $300 $301 reversed $118 $-1 #
face $-1 $302 $303 $64 $-1 $304 reversed single #
loop $-1 $-1 $305 $120 #
plane-surface $-1 21.658948602860264 -33.200886335303998 3.5306951492504339 0 -0.54463904215088732 0.83867056331134215 1 0 0 forward_v I I I I #
coedge $-1 $306 $307 $308 $309 reversed $121 $-1 #
face $-1 $-1 $310 $65 $-1 $311 forward single #
loop $-1 $312 $313 $123 #
cone-surface $-1 18.291005161493089 -22.777597087119929 7.5993469513231346 0 0.54463904215088732 -0.83867056331134215 0.5 0 0 1 I I -0.70710678118654746 0.70710678118654746 0.5 forward I I I I #
loop $-1 $-1 $314 $83 #
coedge $-1 $198 $198 $315 $316 reversed $124 $-1 #
face $-1 $-1 $317 $66 $-1 $318 forward single #
loop $-1 $319 $320 $126 #
cone-surface $-1 21.658948602860264 -22.777597087119929 7.5993469513231346 0 0.54463904215088732 -0.83867056331134215 0.5 0 0 1 I I -0.70710678118654746 0.70710678118654746 0.5 forward I I I I #
loop $-1 $-1 $321 $84 #
coedge $-1 $203 $203 $322 $323 reversed $127 $-1 #
face $-1 $-1 $324 $67 $-1 $325 forward single #
loop $-1 $326 $327 $129 #
cone-surface $-1 25.026892044227438 -22.777597087119929 7.5993469513231346 0 0.54463904215088732 -0.83867056331134215 0.5 0 0 1 I I -0.70710678118654746 0.70710678118654746 0.5 forward I I I I #
loop $-1 $-1 $328 $85 #
coedge $-1 $208 $208 $329 $330 reversed $130 $-1 #
face $-1 $331 $332 $68 $-1 $333 reversed single #
loop $-1 $-1 $334 $132 #
plane-surface $-1 48.311746434762711 -33.200886335303998 3.5306951492504339 0 -0.54463904215088732 0.83867056331134215 1 0 0 forward_v I I I I #
coedge $-1 $335 $336 $337 $338 reversed $133 $-1 #
face $-1 $-1 $339 $69 $-1 $340 forward single #
loop $-1 $341 $342 $135 #
cone-surface $-1 44.943802993395536 -22.777597087119929 7.5993469513231346 0 0.54463904215088732 -0.83867056331134215 0.5 0 0 1 I I -0.70710678118654746 0.70710678118654746 0.5 forward I I I I #
loop $-1 $-1 $343 $87 #
coedge $-1 $217 $217 $344 $345 reversed $136 $-1 #
face $-1 $-1 $346 $70 $-1 $347 forward single #
loop $-1 $348 $349 $138 #
cone-surface $-1 48.311746434762711 -22.777597087119929 7.5993469513231346 0 0.54463904215088732 -0.83867056331134215 0.5 0 0 1 I I -0.70710678118654746 0.70710678118654746 0.5 forward I I I I #
loop $-1 $-1 $350 $88 #
coedge $-1 $222 $222 $351 $352 reversed $139 $-1 #
face $-1 $-1 $353 $71 $-1 $354 forward single #
loop $-1 $355 $356 $141 #
cone-surface $-1 51.679689876129885 -22.777597087119929 7.5993469513231346 0 0.54463904215088732 -0.83867056331134215 0.5 0 0 1 I I -0.70710678118654746 0.70710678118654746 0.5 forward I I I I #
loop $-1 $-1 $357 $89 #
coedge $-1 $227 $227 $358 $359 reversed $142 $-1 #
face $-1 $360 $361 $54 $-1 $362 reversed single #
loop $-1 $-1 $363 $144 #
plane-surface $-1 0 -33.200886335303991 0 0 1 0 0 0 1 forward_v I I I I #
coedge $-1 $364 $365 $366 $367 forward $145 $-1 #
coedge $-1 $368 $147 $369 $370 forward $91 $-1 #
coedge $-1 $147 $368 $371 $372 forward $91 $-1 #
coedge $-1 $373 $374 $147 $235 reversed $375 $-1 #
edge $-1 $376 -33.200886335303991 $377 33.200886335303991 $234 $378 forward 7 unknown #
face $-1 $379 $380 $55 $-1 $381 reversed single #
loop $-1 $-1 $382 $148 #
plane-surface $-1 -37.259886129889921 0 11.784797241857955 -1 0 0 0 0 1 forward_v I I I I #
coedge $-1 $383 $384 $385 $386 forward $149 $-1 #
coedge $-1 $387 $151 $388 $389 reversed $94 $-1 #
coedge $-1 $151 $387 $390 $391 reversed $94 $-1 #
coedge $-1 $382 $392 $151 $243 reversed $237 $-1 #
edge $-1 $393 -33.200886335303991 $394 33.200886335303991 $242 $395 forward 7 unknown #
face $-1 $396 $397 $56 $-1 $398 forward single #
loop $-1 $-1 $399 $152 #
plane-surface $-1 0 -33.200886335303991 0 0 1 0 0 0 1 forward_v I I I I #
coedge $-1 $400 $401 $402 $403 reversed $153 $-1 #
coedge $-1 $404 $155 $405 $406 forward $97 $-1 #
coedge $-1 $155 $404 $400 $407 forward $97 $-1 #
coedge $-1 $402 $399 $155 $251 forward $245 $-1 #
edge $-1 $408 -21.436562599417606 $409 -10.210084461527025 $250 $410 forward 7 unknown #
loop $-1 $-1 $257 $156 #
plane-surface $-1 -31.64664706094463 -33.200886335303998 3.5306951492504339 0 -0.54463904215088732 0.83867056331134215 1 0 0 forward_v I I I I #
loop $-1 $-1 $411 $99 #
coedge $-1 $255 $255 $256 $412 reversed $157 $-1 #
coedge $-1 $256 $256 $255 $412 forward $159 $-1 #
coedge $-1 $257 $257 $160 $258 forward $252 $-1 #
edge $-1 $413 2.0892196144505337e-015 $413 6.2831853071796022 $257 $414 forward 7 unknown #
loop $-1 $-1 $264 $161 #
plane-surface $-1 -31.64664706094463 -33.200886335303998 3.5306951492504339 0 -0.54463904215088732 0.83867056331134215 1 0 0 forward_v I I I I #
loop $-1 $-1 $415 $102 #
coedge $-1 $262 $262 $263 $416 reversed $162 $-1 #
coedge $-1 $263 $263 $262 $416 forward $164 $-1 #
coedge $-1 $264 $264 $165 $265 forward $259 $-1 #
edge $-1 $417 2.0892196144505337e-015 $417 6.2831853071796022 $264 $418 forward 7 unknown #
loop $-1 $-1 $271 $166 #
plane-surface $-1 -31.64664706094463 -33.200886335303998 3.5306951492504339 0 -0.54463904215088732 0.83867056331134215 1 0 0 forward_v I I I I #
loop $-1 $-1 $419 $105 #
coedge $-1 $269 $269 $270 $420 reversed $167 $-1 #
coedge $-1 $270 $270 $269 $420 forward $169 $-1 #
coedge $-1 $271 $271 $170 $272 forward $266 $-1 #
edge $-1 $421 2.0892196144505337e-015 $421 6.2831853071796022 $271 $422 forward 7 unknown #
face $-1 $423 $424 $60 $-1 $425 forward single #
loop $-1 $-1 $426 $171 #
plane-surface $-1 0.61938983990310881 -91.940191240784017 93.981291087151931 -1 0 0 0 -0.54463904215088732 0.83867056331134215 forward_v I I I I #
coedge $-1 $427 $428 $429 $430 reversed $172 $-1 #
coedge $-1 $278 $174 $431 $432 reversed $109 $-1 #
coedge $-1 $174 $277 $427 $433 reversed $109 $-1 #
coedge $-1 $429 $434 $174 $280 forward $435 $-1 #
edge $-1 $436 31.524019686303472 $437 43.459950394325524 $279 $438 forward 7 unknown #
loop $-1 $-1 $286 $175 #
plane-surface $-1 -4.9938492290421834 -33.200886335303998 3.5306951492504339 0 -0.54463904215088732 0.83867056331134215 1 0 0 forward_v I I I I #
loop $-1 $-1 $439 $111 #
coedge $-1 $284 $284 $285 $440 reversed $176 $-1 #
coedge $-1 $285 $285 $284 $440 forward $178 $-1 #
coedge $-1 $286 $286 $179 $287 forward $281 $-1 #
edge $-1 $441 2.0892196144505337e-015 $441 6.2831853071796022 $286 $442 forward 7 unknown #
loop $-1 $-1 $293 $180 #
plane-surface $-1 -4.9938492290421834 -33.200886335303998 3.5306951492504339 0 -0.54463904215088732 0.83867056331134215 1 0 0 forward_v I I I I #
loop $-1 $-1 $443 $114 #
coedge $-1 $291 $291 $292 $444 reversed $181 $-1 #
coedge $-1 $292 $292 $291 $444 forward $183 $-1 #
coedge $-1 $293 $293 $184 $294 forward $288 $-1 #
edge $-1 $445 2.0892196144505337e-015 $445 6.2831853071796022 $293 $446 forward 7 unknown #
loop $-1 $-1 $300 $185 #
plane-surface $-1 -4.9938492290421834 -33.200886335303998 3.5306951492504339 0 -0.54463904215088732 0.83867056331134215 1 0 0 forward_v I I I I #
loop $-1 $-1 $447 $117 #
coedge $-1 $298 $298 $299 $448 reversed $186 $-1 #
coedge $-1 $299 $299 $298 $448 forward $188 $-1 #
coedge $-1 $300 $300 $189 $301 forward $295 $-1 #
edge $-1 $449 2.0892196144505337e-015 $449 6.2831853071796022 $300 $450 forward 7 unknown #
face $-1 $451 $452 $64 $-1 $453 reversed single #
loop $-1 $-1 $454 $190 #
plane-surface $-1 27.272187671805554 -91.940191240784017 93.981291087151931 -1 0 0 0 -0.54463904215088732 0.83867056331134215 forward_v I I I I #
coedge $-1 $455 $456 $457 $458 reversed $191 $-1 #
coedge $-1 $307 $193 $459 $460 reversed $121 $-1 #
coedge $-1 $193 $306 $455 $461 reversed $121 $-1 #
coedge $-1 $457 $462 $193 $309 forward $452 $-1 #
edge $-1 $463 31.524019686303472 $464 43.459950394325524 $308 $465 forward 7 unknown #
loop $-1 $-1 $315 $194 #
plane-surface $-1 21.658948602860264 -33.200886335303998 3.5306951492504339 0 -0.54463904215088732 0.83867056331134215 1 0 0 forward_v I I I I #
loop $-1 $-1 $466 $123 #
coedge $-1 $313 $313 $314 $467 reversed $195 $-1 #
coedge $-1 $314 $314 $313 $467 forward $197 $-1 #
coedge $-1 $315 $315 $198 $316 forward $310 $-1 #
edge $-1 $468 2.0892196144505337e-015 $468 6.2831853071796022 $315 $469 forward 7 unknown #
loop $-1 $-1 $322 $199 #
plane-surface $-1 21.658948602860264 -33.200886335303998 3.5306951492504339 0 -0.54463904215088732 0.83867056331134215 1 0 0 forward_v I I I I #
loop $-1 $-1 $470 $126 #
coedge $-1 $320 $320 $321 $471 reversed $200 $-1 #
coedge $-1 $321 $321 $320 $471 forward $202 $-1 #
coedge $-1 $322 $322 $203 $323 forward $317 $-1 #
edge $-1 $472 2.0892196144505337e-015 $472 6.2831853071796022 $322 $473 forward 7 unknown #
loop $-1 $-1 $329 $204 #
plane-surface $-1 21.658948602860264 -33.200886335303998 3.5306951492504339 0 -0.54463904215088732 0.83867056331134215 1 0 0 forward_v I I I I #
loop $-1 $-1 $474 $129 #
coedge $-1 $327 $327 $328 $475 reversed $205 $-1 #
coedge $-1 $328 $328 $327 $475 forward $207 $-1 #
coedge $-1 $329 $329 $208 $330 forward $324 $-1 #
edge $-1 $476 2.0892196144505337e-015 $476 6.2831853071796022 $329 $477 forward 7 unknown #
face $-1 $478 $479 $68 $-1 $480 reversed single #
loop $-1 $-1 $337 $209 #
plane-surface $-1 0 -33.200886335303991 0 0 1 0 0 0 1 forward_v I I I I #
coedge $-1 $481 $482 $483 $484 reversed $210 $-1 #
coedge $-1 $336 $212 $485 $486 reversed $133 $-1 #
coedge $-1 $212 $335 $481 $487 reversed $133 $-1 #
coedge $-1 $483 $488 $212 $338 forward $332 $-1 #
edge $-1 $489 31.524019686303472 $490 43.459950394325524 $337 $491 forward 7 unknown #
loop $-1 $-1 $344 $213 #
plane-surface $-1 48.311746434762711 -33.200886335303998 3.5306951492504339 0 -0.54463904215088732 0.83867056331134215 1 0 0 forward_v I I I I #
loop $-1 $-1 $492 $135 #
coedge $-1 $342 $342 $343 $493 reversed $214 $-1 #
coedge $-1 $343 $343 $342 $493 forward $216 $-1 #
coedge $-1 $344 $344 $217 $345 forward $339 $-1 #
edge $-1 $494 2.0892196144505337e-015 $494 6.2831853071796022 $344 $495 forward 7 unknown #
loop $-1 $-1 $351 $218 #
plane-surface $-1 48.311746434762711 -33.200886335303998 3.5306951492504339 0 -0.54463904215088732 0.83867056331134215 1 0 0 forward_v I I I I #
loop $-1 $-1 $496 $138 #
coedge $-1 $349 $349 $350 $497 reversed $219 $-1 #
coedge $-1 $350 $350 $349 $497 forward $221 $-1 #
coedge $-1 $351 $351 $222 $352 forward $346 $-1 #
edge $-1 $498 2.0892196144505337e-015 $498 6.2831853071796022 $351 $499 forward 7 unknown #
loop $-1 $-1 $358 $223 #
plane-surface $-1 48.311746434762711 -33.200886335303998 3.5306951492504339 0 -0.54463904215088732 0.83867056331134215 1 0 0 forward_v I I I I #
loop $-1 $-1 $500 $141 #
coedge $-1 $356 $356 $357 $501 reversed $224 $-1 #
coedge $-1 $357 $357 $356 $501 forward $226 $-1 #
coedge $-1 $358 $358 $227 $359 forward $353 $-1 #
edge $-1 $502 2.0892196144505337e-015 $502 6.2831853071796022 $358 $503 forward 7 unknown #
face $-1 $504 $505 $54 $-1 $506 reversed single #
loop $-1 $-1 $507 $228 #
plane-surface $-1 -53.924985503708001 0 0 1 0 0 0 0 -1 forward_v I I I I #
coedge $-1 $508 $371 $509 $510 forward $229 $-1 #
coedge $-1 $511 $231 $508 $512 forward $145 $-1 #
coedge $-1 $231 $511 $513 $514 forward $145 $-1 #
coedge $-1 $374 $373 $231 $367 reversed $375 $-1 #
edge $-1 $515 -33.200886335303991 $516 33.200886335303991 $366 $517 forward 7 unknown #
coedge $-1 $233 $232 $518 $519 forward $91 $-1 #
coedge $-1 $520 $521 $232 $370 reversed $505 $-1 #
edge $-1 $377 -53.924985503708001 $522 53.924985503708001 $369 $523 forward 7 unknown #
coedge $-1 $363 $524 $233 $372 reversed $229 $-1 #
edge $-1 $525 -53.924985503708001 $376 53.924985503708001 $371 $526 forward 7 unknown #
coedge $-1 $366 $234 $524 $527 forward $375 $-1 #
coedge $-1 $234 $366 $520 $528 reversed $375 $-1 #
loop $-1 $-1 $373 $504 #
vertex $-1 $235 $529 #
vertex $-1 $235 $530 #
straight-curve $-1 53.924985503708001 0 15.466625857272494 0 1 0 I I #
face $-1 $531 $532 $55 $-1 $533 reversed single #
loop $-1 $-1 $534 $236 #
plane-surface $-1 0 -33.200886335303991 0 0 1 0 0 0 1 forward_v I I I I #
coedge $-1 $385 $242 $535 $536 reversed $237 $-1 #
coedge $-1 $537 $239 $534 $538 reversed $149 $-1 #
coedge $-1 $239 $537 $539 $540 reversed $149 $-1 #
coedge $-1 $392 $382 $239 $386 reversed $237 $-1 #
edge $-1 $541 -33.200886335303991 $542 33.200886335303991 $385 $543 forward 7 unknown #
coedge $-1 $241 $240 $544 $545 reversed $94 $-1 #
coedge $-1 $546 $547 $240 $389 forward $548 $-1 #
edge $-1 $549 -31.128767595308521 $394 -14.46366822149044 $388 $550 forward 7 unknown #
coedge $-1 $551 $535 $241 $391 forward $380 $-1 #
edge $-1 $393 14.46366822149044 $552 31.128767595308521 $390 $553 forward 7 unknown #
coedge $-1 $242 $385 $546 $554 reversed $237 $-1 #
vertex $-1 $391 $555 #
vertex $-1 $389 $556 #
straight-curve $-1 -37.259886129889921 0 14.966625857272494 0 1 0 I I #
face $-1 $-1 $557 $56 $-1 $558 forward single #
loop $-1 $-1 $405 $244 #
plane-surface $-1 -37.259886129889921 0 11.784797241857955 -1 0 0 0 0 1 forward_v I I I I #
coedge $-1 $250 $559 $560 $561 forward $245 $-1 #
coedge $-1 $401 $247 $249 $407 reversed $153 $-1 #
coedge $-1 $247 $400 $562 $563 reversed $153 $-1 #
coedge $-1 $559 $250 $247 $403 forward $245 $-1 #
edge $-1 $409 -43.459950394325524 $564 -31.524019686303472 $402 $565 forward 7 unknown #
coedge $-1 $249 $248 $566 $567 reversed $97 $-1 #
coedge $-1 $560 $568 $248 $406 reversed $397 $-1 #
edge $-1 $408 8.3777959833898778e-015 $569 21.915304971315877 $405 $570 forward 7 unknown #
edge $-1 $571 -21.915304971315877 $409 -8.3777959833898778e-015 $400 $572 forward 7 unknown #
vertex $-1 $251 $573 #
vertex $-1 $251 $574 #
straight-curve $-1 -15.823323530472315 -33.200886335303991 3.5306951492504357 1 0 0 I I #
coedge $-1 $411 $411 $-1 $575 reversed $254 $-1 #
edge $-1 $576 0 $576 6.2831853071796004 $255 $577 forward 7 unknown #
vertex $-1 $258 $578 #
ellipse-curve $-1 -35.014590502311805 -24.011025752587322 9.4986605032614673 0 -0.54463904215088732 0.83867056331134215 1 0 0 1 I I #
coedge $-1 $415 $415 $-1 $579 reversed $261 $-1 #
edge $-1 $580 0 $580 6.2831853071796004 $262 $581 forward 7 unknown #
vertex $-1 $265 $582 #
ellipse-curve $-1 -31.646647060944634 -24.011025752587322 9.4986605032614673 0 -0.54463904215088732 0.83867056331134215 1 0 0 1 I I #
coedge $-1 $419 $419 $-1 $583 reversed $268 $-1 #
edge $-1 $584 0 $584 6.2831853071796004 $269 $585 forward 7 unknown #
vertex $-1 $272 $586 #
ellipse-curve $-1 -28.27870361957746 -24.011025752587322 9.4986605032614673 0 -0.54463904215088732 0.83867056331134215 1 0 0 1 I I #
face $-1 $-1 $435 $60 $-1 $587 reversed single #
loop $-1 $-1 $588 $273 #
plane-surface $-1 0 0 15.466625857272494 0 0 1 1 0 0 forward_v I I I I #
coedge $-1 $589 $590 $591 $592 reversed $274 $-1 #
coedge $-1 $593 $276 $278 $433 forward $172 $-1 #
coedge $-1 $276 $593 $589 $594 forward $172 $-1 #
coedge $-1 $591 $279 $276 $430 forward $435 $-1 #
edge $-1 $437 -8.1101636834663839 $595 3.1163144544242005 $429 $596 forward 7 unknown #
coedge $-1 $597 $598 $277 $432 forward $424 $-1 #
edge $-1 $599 -31.148930450521355 $436 -12.769209285088017 $431 $600 forward 7 unknown #
edge $-1 $437 8.3777959833898778e-015 $599 21.915304971315877 $278 $601 forward 7 unknown #
coedge $-1 $279 $591 $597 $602 reversed $435 $-1 #
loop $-1 $-1 $591 $423 #
vertex $-1 $602 $603 #
vertex $-1 $280 $604 #
straight-curve $-1 -10.607088297987476 -33.200886335303991 46.990645543575965 0 0 -1 I I #
coedge $-1 $439 $439 $-1 $605 reversed $283 $-1 #
edge $-1 $606 0 $606 6.2831853071796004 $284 $607 forward 7 unknown #
vertex $-1 $287 $608 #
ellipse-curve $-1 -8.3617926704093577 -24.011025752587322 9.4986605032614673 0 -0.54463904215088732 0.83867056331134215 1 0 0 1 I I #
coedge $-1 $443 $443 $-1 $609 reversed $290 $-1 #
edge $-1 $610 0 $610 6.2831853071796004 $291 $611 forward 7 unknown #
vertex $-1 $294 $612 #
ellipse-curve $-1 -4.9938492290421834 -24.011025752587322 9.4986605032614673 0 -0.54463904215088732 0.83867056331134215 1 0 0 1 I I #
coedge $-1 $447 $447 $-1 $613 reversed $297 $-1 #
edge $-1 $614 0 $614 6.2831853071796004 $298 $615 forward 7 unknown #
vertex $-1 $301 $616 #
ellipse-curve $-1 -1.6259057876750092 -24.011025752587322 9.4986605032614673 0 -0.54463904215088732 0.83867056331134215 1 0 0 1 I I #
face $-1 $-1 $617 $64 $-1 $618 forward single #
loop $-1 $-1 $308 $302 #
plane-surface $-1 0 -33.200886335303991 0 0 1 0 0 0 1 forward_v I I I I #
coedge $-1 $619 $620 $621 $622 reversed $303 $-1 #
coedge $-1 $623 $305 $307 $461 forward $191 $-1 #
coedge $-1 $305 $623 $619 $624 forward $191 $-1 #
coedge $-1 $621 $308 $305 $458 forward $452 $-1 #
edge $-1 $464 5.2162352324848413 $625 16.442713370375422 $457 $626 forward 7 unknown #
coedge $-1 $627 $628 $306 $460 forward $617 $-1 #
edge $-1 $629 -31.148930450521355 $463 -12.769209285088017 $459 $630 forward 7 unknown #
edge $-1 $464 8.3777959833898778e-015 $629 21.915304971315877 $307 $631 forward 7 unknown #
coedge $-1 $308 $621 $627 $632 reversed $452 $-1 #
vertex $-1 $632 $633 #
vertex $-1 $309 $634 #
straight-curve $-1 16.045709533914973 -33.200886335303991 46.990645543575965 0 0 -1 I I #
coedge $-1 $466 $466 $-1 $635 reversed $312 $-1 #
edge $-1 $636 0 $636 6.2831853071796004 $313 $637 forward 7 unknown #
vertex $-1 $316 $638 #
ellipse-curve $-1 18.291005161493089 -24.011025752587322 9.4986605032614673 0 -0.54463904215088732 0.83867056331134215 1 0 0 1 I I #
coedge $-1 $470 $470 $-1 $639 reversed $319 $-1 #
edge $-1 $640 0 $640 6.2831853071796004 $320 $641 forward 7 unknown #
vertex $-1 $323 $642 #
ellipse-curve $-1 21.658948602860264 -24.011025752587322 9.4986605032614673 0 -0.54463904215088732 0.83867056331134215 1 0 0 1 I I #
coedge $-1 $474 $474 $-1 $643 reversed $326 $-1 #
edge $-1 $644 0 $644 6.2831853071796004 $327 $645 forward 7 unknown #
vertex $-1 $330 $646 #
ellipse-curve $-1 25.026892044227438 -24.011025752587322 9.4986605032614673 0 -0.54463904215088732 0.83867056331134215 1 0 0 1 I I #
face $-1 $-1 $647 $68 $-1 $648 forward single #
loop $-1 $-1 $649 $331 #
plane-surface $-1 53.924985503708001 0 0 -1 0 0 0 0 1 forward_v I I I I #
coedge $-1 $650 $334 $336 $487 forward $210 $-1 #
coedge $-1 $334 $650 $649 $651 reversed $210 $-1 #
coedge $-1 $652 $337 $334 $484 forward $332 $-1 #
edge $-1 $490 18.542634148436065 $653 29.769112286326646 $483 $654 forward 7 unknown #
coedge $-1 $655 $656 $335 $486 forward $647 $-1 #
edge $-1 $657 -31.148930450521355 $489 -12.769209285088017 $485 $658 forward 7 unknown #
edge $-1 $490 8.3777959833898778e-015 $657 21.915304971315877 $336 $659 forward 7 unknown #
coedge $-1 $337 $652 $655 $660 reversed $332 $-1 #
vertex $-1 $660 $661 #
vertex $-1 $338 $662 #
straight-curve $-1 42.69850736581742 -33.200886335303991 46.990645543575965 0 0 -1 I I #
coedge $-1 $492 $492 $-1 $663 reversed $341 $-1 #
edge $-1 $664 0 $664 6.2831853071796004 $342 $665 forward 7 unknown #
vertex $-1 $345 $666 #
ellipse-curve $-1 44.943802993395536 -24.011025752587322 9.4986605032614673 0 -0.54463904215088732 0.83867056331134215 1 0 0 1 I I #
coedge $-1 $496 $496 $-1 $667 reversed $348 $-1 #
edge $-1 $668 0 $668 6.2831853071796004 $349 $669 forward 7 unknown #
vertex $-1 $352 $670 #
ellipse-curve $-1 48.311746434762711 -24.011025752587322 9.4986605032614673 0 -0.54463904215088732 0.83867056331134215 1 0 0 1 I I #
coedge $-1 $500 $500 $-1 $671 reversed $355 $-1 #
edge $-1 $672 0 $672 6.2831853071796004 $356 $673 forward 7 unknown #
vertex $-1 $359 $674 #
ellipse-curve $-1 51.679689876129885 -24.011025752587322 9.4986605032614673 0 -0.54463904215088732 0.83867056331134215 1 0 0 1 I I #
face $-1 $-1 $375 $54 $-1 $675 reversed single #
loop $-1 $-1 $520 $360 #
plane-surface $-1 0 33.200886335303991 0 0 -1 0 0 0 -1 forward_v I I I I #
coedge $-1 $676 $518 $521 $677 forward $361 $-1 #
coedge $-1 $524 $363 $364 $512 reversed $229 $-1 #
coedge $-1 $518 $676 $363 $510 reversed $361 $-1 #
edge $-1 $525 -15.466625857272494 $678 15.466625857272494 $509 $679 forward 7 unknown #
coedge $-1 $365 $364 $676 $680 forward $145 $-1 #
edge $-1 $516 -53.924985503708001 $678 53.924985503708001 $508 $681 forward 7 unknown #
coedge $-1 $521 $520 $365 $514 reversed $505 $-1 #
edge $-1 $682 -53.924985503708001 $515 53.924985503708001 $513 $683 forward 7 unknown #
vertex $-1 $367 $684 #
vertex $-1 $527 $685 #
straight-curve $-1 53.924985503708001 0 -15.466625857272494 0 -1 0 I I #
coedge $-1 $507 $509 $368 $519 reversed $361 $-1 #
edge $-1 $522 -33.200886335303991 $525 33.200886335303991 $518 $686 forward 7 unknown #
coedge $-1 $513 $369 $374 $528 forward $505 $-1 #
coedge $-1 $369 $513 $507 $677 reversed $505 $-1 #
vertex $-1 $370 $687 #
straight-curve $-1 0 33.200886335303991 15.466625857272494 -1 0 0 I I #
coedge $-1 $371 $508 $373 $527 reversed $229 $-1 #
vertex $-1 $519 $688 #
straight-curve $-1 0 -33.200886335303991 15.466625857272494 1 0 0 I I #
edge $-1 $376 -15.466625857272494 $516 15.466625857272494 $373 $689 forward 7 unknown #
edge $-1 $377 -15.466625857272494 $515 15.466625857272494 $374 $690 forward 7 unknown #
point $-1 53.924985503708001 -33.200886335303991 15.466625857272494 #
point $-1 53.924985503708001 33.200886335303991 15.466625857272494 #
face $-1 $-1 $548 $55 $-1 $691 reversed single #
loop $-1 $-1 $692 $379 #
plane-surface $-1 -53.924985503708001 0 0 1 0 0 0 0 -1 forward_v I I I I #
coedge $-1 $535 $551 $383 $538 forward $380 $-1 #
coedge $-1 $390 $534 $382 $536 forward $380 $-1 #
edge $-1 $542 2.7105700055144393 $393 9.0742272363435159 $535 $693 forward 7 unknown #
coedge $-1 $384 $383 $692 $694 reversed $149 $-1 #
edge $-1 $695 -31.128767595308521 $542 -14.46366822149044 $534 $696 forward 7 unknown #
coedge $-1 $547 $546 $384 $540 forward $548 $-1 #
edge $-1 $541 14.46366822149044 $697 31.128767595308521 $539 $698 forward 7 unknown #
vertex $-1 $540 $699 #
vertex $-1 $538 $700 #
straight-curve $-1 -37.259886129889921 0 8.6029686264434169 0 -1 0 I I #
coedge $-1 $701 $702 $387 $545 forward $532 $-1 #
edge $-1 $552 -33.200886335303991 $549 33.200886335303991 $544 $703 forward 7 unknown #
coedge $-1 $539 $388 $392 $554 forward $548 $-1 #
coedge $-1 $388 $539 $701 $704 reversed $548 $-1 #
loop $-1 $-1 $539 $531 #
vertex $-1 $704 $705 #
straight-curve $-1 -22.79621790839948 33.200886335303991 14.966625857272494 1 0 0 I I #
coedge $-1 $534 $390 $702 $706 forward $380 $-1 #
vertex $-1 $706 $707 #
straight-curve $-1 -22.79621790839948 -33.200886335303991 14.966625857272494 -1 0 0 I I #
edge $-1 $394 -9.0742272363435159 $541 -2.7105700055144393 $546 $708 forward 7 unknown #
point $-1 -37.259886129889921 -33.200886335303991 14.966625857272494 #
point $-1 -37.259886129889921 33.200886335303991 14.966625857272494 #
loop $-1 $-1 $709 $396 #
plane-surface $-1 0 0 15.466625857272494 0 0 1 1 0 0 forward_v I I I I #
coedge $-1 $399 $402 $710 $711 reversed $245 $-1 #
coedge $-1 $568 $405 $399 $561 reversed $397 $-1 #
edge $-1 $712 31.524019686303472 $408 43.459950394325524 $399 $713 forward 7 unknown #
coedge $-1 $566 $710 $401 $563 forward $557 $-1 #
edge $-1 $564 12.769209285088017 $571 31.148930450521355 $562 $714 forward 7 unknown #
vertex $-1 $403 $715 #
straight-curve $-1 -26.03340799199934 -33.200886335303991 46.990645543575965 0 0 1 I I #
coedge $-1 $709 $562 $404 $567 forward $557 $-1 #
edge $-1 $571 10.210084461527025 $569 21.436562599417606 $566 $716 forward 7 unknown #
coedge $-1 $405 $560 $709 $717 reversed $397 $-1 #
vertex $-1 $717 $718 #
straight-curve $-1 -37.259886129889921 -33.200886335303998 3.5306951492504339 0 0.83867056331134215 0.54463904215088732 I I #
vertex $-1 $567 $719 #
straight-curve $-1 -26.03340799199934 -33.200886335303998 3.5306951492504339 0 -0.83867056331134215 -0.54463904215088732 I I #
point $-1 -37.259886129889921 -33.200886335303991 3.5306951492504384 #
point $-1 -26.03340799199934 -33.200886335303991 3.5306951492504384 #
edge $-1 $720 1 $720 0 $411 $-1 forward 7 unknown #
vertex $-1 $412 $721 #
ellipse-curve $-1 -35.014590502311805 -23.049916608195375 8.0186822329788061 0 -0.54463904215088732 0.83867056331134215 1 0 0 1 I I #
point $-1 -34.014590502311805 -24.011025752587315 9.4986605032614602 #
edge $-1 $722 1 $722 0 $415 $-1 forward 7 unknown #
vertex $-1 $416 $723 #
ellipse-curve $-1 -31.646647060944634 -23.049916608195375 8.0186822329788061 0 -0.54463904215088732 0.83867056331134215 1 0 0 1 I I #
point $-1 -30.646647060944634 -24.011025752587315 9.4986605032614602 #
edge $-1 $724 1 $724 0 $419 $-1 forward 7 unknown #
vertex $-1 $420 $725 #
ellipse-curve $-1 -28.27870361957746 -23.049916608195375 8.0186822329788061 0 -0.54463904215088732 0.83867056331134215 1 0 0 1 I I #
point $-1 -27.27870361957746 -24.011025752587315 9.4986605032614602 #
plane-surface $-1 0 -33.200886335303991 0 0 1 0 0 0 1 forward_v I I I I #
coedge $-1 $598 $597 $590 $726 forward $424 $-1 #
coedge $-1 $590 $426 $428 $594 reversed $274 $-1 #
coedge $-1 $426 $589 $588 $726 reversed $274 $-1 #
coedge $-1 $434 $429 $426 $592 forward $435 $-1 #
edge $-1 $595 -43.459950394325524 $727 -31.524019686303472 $591 $728 forward 7 unknown #
coedge $-1 $428 $427 $598 $729 reversed $172 $-1 #
edge $-1 $730 -21.915304971315877 $595 -8.3777959833898778e-015 $589 $731 forward 7 unknown #
vertex $-1 $430 $732 #
straight-curve $-1 -2.4969246145210917 -33.200886335303991 3.5306951492504357 1 0 0 I I #
coedge $-1 $588 $431 $434 $602 forward $424 $-1 #
coedge $-1 $431 $588 $593 $729 forward $424 $-1 #
vertex $-1 $432 $733 #
straight-curve $-1 -10.607088297987476 -45.970095620392009 15.466625857272497 0 -1 0 I I #
straight-curve $-1 -10.607088297987476 -33.200886335303998 3.5306951492504339 0 0.83867056331134215 0.54463904215088732 I I #
edge $-1 $436 -10.607088297987476 $727 0.61938983990310881 $434 $734 forward 7 unknown #
point $-1 -10.607088297987476 -33.200886335303991 15.466625857272494 #
point $-1 -10.607088297987476 -33.200886335303991 3.5306951492504384 #
edge $-1 $735 1 $735 0 $439 $-1 forward 7 unknown #
vertex $-1 $440 $736 #
ellipse-curve $-1 -8.3617926704093577 -23.049916608195375 8.0186822329788061 0 -0.54463904215088732 0.83867056331134215 1 0 0 1 I I #
point $-1 -7.3617926704093577 -24.011025752587315 9.4986605032614602 #
edge $-1 $737 1 $737 0 $443 $-1 forward 7 unknown #
vertex $-1 $444 $738 #
ellipse-curve $-1 -4.9938492290421834 -23.049916608195375 8.0186822329788061 0 -0.54463904215088732 0.83867056331134215 1 0 0 1 I I #
point $-1 -3.9938492290421834 -24.011025752587315 9.4986605032614602 #
edge $-1 $739 1 $739 0 $447 $-1 forward 7 unknown #
vertex $-1 $448 $740 #
ellipse-curve $-1 -1.6259057876750092 -23.049916608195375 8.0186822329788061 0 -0.54463904215088732 0.83867056331134215 1 0 0 1 I I #
point $-1 -0.62590578767500915 -24.011025752587315 9.4986605032614602 #
loop $-1 $-1 $459 $451 #
plane-surface $-1 0 0 15.466625857272494 0 0 1 1 0 0 forward_v I I I I #
coedge $-1 $620 $454 $456 $624 reversed $303 $-1 #
coedge $-1 $454 $619 $741 $742 reversed $303 $-1 #
coedge $-1 $462 $457 $454 $622 forward $452 $-1 #
edge $-1 $625 -43.459950394325524 $743 -31.524019686303472 $621 $744 forward 7 unknown #
coedge $-1 $456 $455 $628 $745 reversed $191 $-1 #
edge $-1 $746 -21.915304971315877 $625 -8.3777959833898778e-015 $619 $747 forward 7 unknown #
vertex $-1 $458 $748 #
straight-curve $-1 10.829474301430132 -33.200886335303991 3.5306951492504357 1 0 0 I I #
coedge $-1 $741 $459 $462 $632 forward $617 $-1 #
coedge $-1 $459 $741 $623 $745 forward $617 $-1 #
vertex $-1 $460 $749 #
straight-curve $-1 16.045709533914973 -45.970095620392009 15.466625857272497 0 -1 0 I I #
straight-curve $-1 16.045709533914973 -33.200886335303998 3.5306951492504339 0 0.83867056331134215 0.54463904215088732 I I #
edge $-1 $463 16.045709533914973 $743 27.272187671805554 $462 $750 forward 7 unknown #
point $-1 16.045709533914973 -33.200886335303991 15.466625857272494 #
point $-1 16.045709533914973 -33.200886335303991 3.5306951492504384 #
edge $-1 $751 1 $751 0 $466 $-1 forward 7 unknown #
vertex $-1 $467 $752 #
ellipse-curve $-1 18.291005161493089 -23.049916608195375 8.0186822329788061 0 -0.54463904215088732 0.83867056331134215 1 0 0 1 I I #
point $-1 19.291005161493089 -24.011025752587315 9.4986605032614602 #
edge $-1 $753 1 $753 0 $470 $-1 forward 7 unknown #
vertex $-1 $471 $754 #
ellipse-curve $-1 21.658948602860264 -23.049916608195375 8.0186822329788061 0 -0.54463904215088732 0.83867056331134215 1 0 0 1 I I #
point $-1 22.658948602860264 -24.011025752587315 9.4986605032614602 #
edge $-1 $755 1 $755 0 $474 $-1 forward 7 unknown #
vertex $-1 $475 $756 #
ellipse-curve $-1 25.026892044227438 -23.049916608195375 8.0186822329788061 0 -0.54463904215088732 0.83867056331134215 1 0 0 1 I I #
point $-1 26.026892044227438 -24.011025752587315 9.4986605032614602 #
loop $-1 $-1 $485 $478 #
plane-surface $-1 0 0 15.466625857272494 0 0 1 1 0 0 forward_v I I I I #
coedge $-1 $757 $758 $482 $651 forward $479 $-1 #
coedge $-1 $482 $481 $656 $759 reversed $210 $-1 #
edge $-1 $653 -12.960825810525344 $760 8.9544791607905267 $649 $761 forward 7 unknown #
coedge $-1 $488 $483 $758 $762 reversed $332 $-1 #
vertex $-1 $651 $763 #
straight-curve $-1 24.155873217381355 -33.200886335303991 3.5306951492504357 1 0 0 I I #
coedge $-1 $764 $485 $488 $660 forward $647 $-1 #
coedge $-1 $485 $764 $650 $759 forward $647 $-1 #
vertex $-1 $486 $765 #
straight-curve $-1 42.69850736581742 -45.970095620392009 15.466625857272497 0 -1 0 I I #
straight-curve $-1 42.69850736581742 -33.200886335303998 3.5306951492504339 0 0.83867056331134215 0.54463904215088732 I I #
edge $-1 $489 42.69850736581742 $766 53.924985503708001 $488 $767 forward 7 unknown #
point $-1 42.69850736581742 -33.200886335303991 15.466625857272494 #
point $-1 42.69850736581742 -33.200886335303991 3.5306951492504384 #
edge $-1 $768 1 $768 0 $492 $-1 forward 7 unknown #
vertex $-1 $493 $769 #
ellipse-curve $-1 44.943802993395536 -23.049916608195375 8.0186822329788061 0 -0.54463904215088732 0.83867056331134215 1 0 0 1 I I #
point $-1 45.943802993395536 -24.011025752587315 9.4986605032614602 #
edge $-1 $770 1 $770 0 $496 $-1 forward 7 unknown #
vertex $-1 $497 $771 #
ellipse-curve $-1 48.311746434762711 -23.049916608195375 8.0186822329788061 0 -0.54463904215088732 0.83867056331134215 1 0 0 1 I I #
point $-1 49.311746434762711 -24.011025752587315 9.4986605032614602 #
edge $-1 $772 1 $772 0 $500 $-1 forward 7 unknown #
vertex $-1 $501 $773 #
ellipse-curve $-1 51.679689876129885 -23.049916608195375 8.0186822329788061 0 -0.54463904215088732 0.83867056331134215 1 0 0 1 I I #
point $-1 52.679689876129885 -24.011025752587315 9.4986605032614602 #
plane-surface $-1 53.924985503708001 0 0 -1 0 0 0 0 1 forward_v I I I I #
coedge $-1 $509 $507 $511 $680 reversed $361 $-1 #
edge $-1 $522 -15.466625857272494 $682 15.466625857272494 $521 $774 forward 7 unknown #
vertex $-1 $680 $775 #
straight-curve $-1 -53.924985503708001 -33.200886335303991 0 0 0 -1 I I #
edge $-1 $678 -33.200886335303991 $682 33.200886335303991 $676 $776 forward 7 unknown #
straight-curve $-1 0 -33.200886335303991 -15.466625857272494 -1 0 0 I I #
vertex $-1 $514 $777 #
straight-curve $-1 0 33.200886335303991 -15.466625857272494 1 0 0 I I #
point $-1 53.924985503708001 33.200886335303991 -15.466625857272494 #
point $-1 53.924985503708001 -33.200886335303991 -15.466625857272494 #
straight-curve $-1 -53.924985503708001 0 15.466625857272494 0 -1 0 I I #
point $-1 -53.924985503708001 33.200886335303991 15.466625857272494 #
point $-1 -53.924985503708001 -33.200886335303991 15.466625857272494 #
straight-curve $-1 53.924985503708001 -33.200886335303991 0 0 0 -1 I I #
straight-curve $-1 53.924985503708001 33.200886335303991 0 0 0 -1 I I #
plane-surface $-1 0 33.200886335303991 0 0 -1 0 0 0 -1 forward_v I I I I #
coedge $-1 $702 $701 $537 $694 forward $532 $-1 #
straight-curve $-1 -37.259886129889921 -33.200886335303991 5.8923986209289776 0 0 1 I I #
edge $-1 $697 -33.200886335303991 $695 33.200886335303991 $692 $778 forward 7 unknown #
vertex $-1 $538 $779 #
straight-curve $-1 -22.79621790839948 -33.200886335303991 8.6029686264434169 1 0 0 I I #
vertex $-1 $540 $780 #
straight-curve $-1 -22.79621790839948 33.200886335303991 8.6029686264434169 -1 0 0 I I #
point $-1 -37.259886129889921 33.200886335303991 8.6029686264434169 #
point $-1 -37.259886129889921 -33.200886335303991 8.6029686264434169 #
coedge $-1 $692 $544 $547 $704 forward $532 $-1 #
coedge $-1 $544 $692 $551 $706 reversed $532 $-1 #
straight-curve $-1 -53.924985503708001 0 14.966625857272494 0 1 0 I I #
edge $-1 $549 -14.966625857272494 $697 -8.6029686264434169 $547 $781 forward 7 unknown #
point $-1 -53.924985503708001 33.200886335303991 14.966625857272494 #
edge $-1 $552 -14.966625857272494 $695 -8.6029686264434169 $702 $782 forward 7 unknown #
point $-1 -53.924985503708001 -33.200886335303991 14.966625857272494 #
straight-curve $-1 -37.259886129889921 33.200886335303991 5.8923986209289776 0 0 -1 I I #
coedge $-1 $710 $566 $568 $717 forward $557 $-1 #
coedge $-1 $562 $709 $559 $711 forward $557 $-1 #
edge $-1 $712 -37.259886129889921 $564 -26.03340799199934 $559 $783 forward 7 unknown #
vertex $-1 $711 $784 #
straight-curve $-1 -37.259886129889921 -33.200886335303991 46.990645543575965 0 0 -1 I I #
straight-curve $-1 -26.03340799199934 -45.970095620392009 15.466625857272497 0 1 0 I I #
point $-1 -26.03340799199934 -33.200886335303991 15.466625857272494 #
straight-curve $-1 -15.823323530472315 -14.821165169870651 15.466625857272494 -1 0 0 I I #
edge $-1 $569 -31.148930450521355 $712 -12.769209285088017 $709 $785 forward 7 unknown #
point $-1 -37.259886129889921 -14.821165169870653 15.466625857272494 #
point $-1 -26.03340799199934 -14.821165169870653 15.466625857272494 #
vertex $-1 $575 $786 #
point $-1 -34.014590502311805 -23.049916608195375 8.0186822329788061 #
vertex $-1 $579 $787 #
point $-1 -30.646647060944634 -23.049916608195375 8.0186822329788061 #
vertex $-1 $583 $788 #
point $-1 -27.27870361957746 -23.049916608195375 8.0186822329788061 #
edge $-1 $727 12.769209285088017 $730 31.148930450521355 $588 $789 forward 7 unknown #
vertex $-1 $726 $790 #
straight-curve $-1 0.61938983990310881 -33.200886335303991 46.990645543575965 0 0 1 I I #
edge $-1 $730 -3.1163144544242005 $599 8.1101636834663839 $598 $791 forward 7 unknown #
vertex $-1 $729 $792 #
straight-curve $-1 0.61938983990310881 -33.200886335303998 3.5306951492504339 0 -0.83867056331134215 -0.54463904215088732 I I #
point $-1 0.61938983990310881 -33.200886335303991 3.5306951492504384 #
point $-1 -10.607088297987476 -14.821165169870653 15.466625857272494 #
straight-curve $-1 0 -33.200886335303991 15.466625857272494 1 0 0 I I #
vertex $-1 $605 $793 #
point $-1 -7.3617926704093577 -23.049916608195375 8.0186822329788061 #
vertex $-1 $609 $794 #
point $-1 -3.9938492290421834 -23.049916608195375 8.0186822329788061 #
vertex $-1 $613 $795 #
point $-1 -0.62590578767500915 -23.049916608195375 8.0186822329788061 #
coedge $-1 $628 $627 $620 $742 forward $617 $-1 #
edge $-1 $743 12.769209285088017 $746 31.148930450521355 $741 $796 forward 7 unknown #
vertex $-1 $742 $797 #
straight-curve $-1 27.272187671805554 -33.200886335303991 46.990645543575965 0 0 1 I I #
edge $-1 $746 -16.442713370375422 $629 -5.2162352324848413 $628 $798 forward 7 unknown #
vertex $-1 $745 $799 #
straight-curve $-1 27.272187671805554 -33.200886335303998 3.5306951492504339 0 -0.83867056331134215 -0.54463904215088732 I I #
point $-1 27.272187671805554 -33.200886335303991 3.5306951492504384 #
point $-1 16.045709533914973 -14.821165169870653 15.466625857272494 #
straight-curve $-1 0 -33.200886335303991 15.466625857272494 1 0 0 I I #
vertex $-1 $635 $800 #
point $-1 19.291005161493089 -23.049916608195375 8.0186822329788061 #
vertex $-1 $639 $801 #
point $-1 22.658948602860264 -23.049916608195375 8.0186822329788061 #
vertex $-1 $643 $802 #
point $-1 26.026892044227438 -23.049916608195375 8.0186822329788061 #
coedge $-1 $758 $649 $764 $803 reversed $479 $-1 #
coedge $-1 $649 $757 $652 $762 forward $479 $-1 #
edge $-1 $760 -29.769112286326646 $657 -18.542634148436065 $656 $804 forward 7 unknown #
vertex $-1 $651 $805 #
straight-curve $-1 53.924985503708001 -22.331023251810517 10.58966690417946 0 0.83867056331134215 0.54463904215088732 I I #
edge $-1 $766 -15.466625857272494 $653 -3.5306951492504384 $758 $806 forward 7 unknown #
point $-1 53.924985503708001 -33.200886335303991 3.5306951492504384 #
coedge $-1 $656 $655 $757 $803 forward $647 $-1 #
point $-1 42.69850736581742 -14.821165169870653 15.466625857272494 #
vertex $-1 $803 $807 #
straight-curve $-1 0 -33.200886335303991 15.466625857272494 1 0 0 I I #
vertex $-1 $663 $808 #
point $-1 45.943802993395536 -23.049916608195375 8.0186822329788061 #
vertex $-1 $667 $809 #
point $-1 49.311746434762711 -23.049916608195375 8.0186822329788061 #
vertex $-1 $671 $810 #
point $-1 52.679689876129885 -23.049916608195375 8.0186822329788061 #
straight-curve $-1 -53.924985503708001 33.200886335303991 0 0 0 -1 I I #
point $-1 -53.924985503708001 -33.200886335303991 -15.466625857272494 #
straight-curve $-1 -53.924985503708001 0 -15.466625857272494 0 1 0 I I #
point $-1 -53.924985503708001 33.200886335303991 -15.466625857272494 #
straight-curve $-1 -53.924985503708001 0 8.6029686264434169 0 -1 0 I I #
point $-1 -53.924985503708001 -33.200886335303991 8.6029686264434169 #
point $-1 -53.924985503708001 33.200886335303991 8.6029686264434169 #
straight-curve $-1 -53.924985503708001 33.200886335303991 0 0 0 -1 I I #
straight-curve $-1 -53.924985503708001 -33.200886335303991 0 0 0 -1 I I #
straight-curve $-1 0 -33.200886335303991 15.466625857272494 1 0 0 I I #
point $-1 -37.259886129889921 -33.200886335303991 15.466625857272494 #
straight-curve $-1 -37.259886129889921 -45.970095620392009 15.466625857272497 0 -1 0 I I #
point $-1 -35.014590502311805 -22.505277566044484 7.1800116696674632 #
point $-1 -31.646647060944634 -22.505277566044484 7.1800116696674632 #
point $-1 -28.27870361957746 -22.505277566044484 7.1800116696674632 #
straight-curve $-1 0.61938983990310881 -45.970095620392009 15.466625857272497 0 1 0 I I #
point $-1 0.61938983990310881 -33.200886335303991 15.466625857272494 #
straight-curve $-1 -2.4969246145210917 -14.821165169870651 15.466625857272494 -1 0 0 I I #
point $-1 0.61938983990310881 -14.821165169870653 15.466625857272494 #
point $-1 -8.3617926704093577 -22.505277566044484 7.1800116696674632 #
point $-1 -4.9938492290421834 -22.505277566044484 7.1800116696674632 #
point $-1 -1.6259057876750092 -22.505277566044484 7.1800116696674632 #
straight-curve $-1 27.272187671805554 -45.970095620392009 15.466625857272497 0 1 0 I I #
point $-1 27.272187671805554 -33.200886335303991 15.466625857272494 #
straight-curve $-1 10.829474301430132 -14.821165169870651 15.466625857272494 -1 0 0 I I #
point $-1 27.272187671805554 -14.821165169870653 15.466625857272494 #
point $-1 18.291005161493089 -22.505277566044484 7.1800116696674632 #
point $-1 21.658948602860264 -22.505277566044484 7.1800116696674632 #
point $-1 25.026892044227438 -22.505277566044484 7.1800116696674632 #
edge $-1 $766 -33.200886335303991 $760 -14.821165169870653 $757 $811 forward 7 unknown #
straight-curve $-1 24.155873217381355 -14.821165169870651 15.466625857272494 -1 0 0 I I #
point $-1 53.924985503708001 -14.821165169870653 15.466625857272494 #
straight-curve $-1 53.924985503708001 -33.200886335303991 0 0 0 -1 I I #
point $-1 53.924985503708001 -33.200886335303991 15.466625857272494 #
point $-1 44.943802993395536 -22.505277566044484 7.1800116696674632 #
point $-1 48.311746434762711 -22.505277566044484 7.1800116696674632 #
point $-1 51.679689876129885 -22.505277566044484 7.1800116696674632 #
straight-curve $-1 53.924985503708001 0 15.466625857272494 0 1 0 I I #
End-of-ACIS-data 