500 0 13 0           
7 Unknown 11 ACIS 5.0 NT 24 Thu Mar 25 23:59:53 1999 
-1 9.9999999999999995e-007 1e-010 
body $-1 $13 $-1 $14 #
body $-1 $15 $-1 $16 #
body $-1 $17 $-1 $18 #
body $-1 $19 $-1 $20 #
body $-1 $21 $-1 $22 #
body $-1 $23 $-1 $24 #
body $-1 $25 $-1 $26 #
body $-1 $27 $-1 $28 #
body $-1 $29 $-1 $30 #
body $-1 $31 $-1 $32 #
body $-1 $33 $-1 $34 #
body $-1 $35 $-1 $36 #
body $-1 $37 $-1 $38 #
lump $-1 $-1 $39 $0 #
transform $-1 1 0 0 0 1 0 0 0 1 45.055085909604173 28.619680276836213 12.661415730127052 1 rotate no_reflect no_shear #
lump $-1 $-1 $40 $1 #
transform $-1 1 0 0 0 1 0 0 0 1 45.055085909604173 28.619680276836213 12.661415730127052 1 rotate no_reflect no_shear #
lump $-1 $-1 $41 $2 #
transform $-1 1 0 0 0 1 0 0 0 1 45.055085909604173 28.619680276836213 12.661415730127052 1 rotate no_reflect no_shear #
lump $-1 $-1 $42 $3 #
transform $-1 1 0 0 0 1 0 0 0 1 45.055085909604173 28.619680276836213 12.661415730127052 1 rotate no_reflect no_shear #
lump $-1 $-1 $43 $4 #
transform $-1 1 0 0 0 1 0 0 0 1 45.055085909604173 28.619680276836213 12.661415730127052 1 rotate no_reflect no_shear #
lump $-1 $-1 $44 $5 #
transform $-1 1 0 0 0 1 0 0 0 1 45.055085909604173 28.619680276836213 12.661415730127052 1 rotate no_reflect no_shear #
lump $-1 $-1 $45 $6 #
transform $-1 1 0 0 0 1 0 0 0 1 45.055085909604173 28.619680276836213 12.661415730127052 1 rotate no_reflect no_shear #
lump $-1 $-1 $46 $7 #
transform $-1 1 0 0 0 1 0 0 0 1 45.055085909604173 28.619680276836213 12.661415730127052 1 rotate no_reflect no_shear #
lump $-1 $-1 $47 $8 #
transform $-1 1 0 0 0 1 0 0 0 1 45.055085909604173 28.619680276836213 12.661415730127052 1 rotate no_reflect no_shear #
lump $-1 $-1 $48 $9 #
transform $-1 1 0 0 0 1 0 0 0 1 45.055085909604173 28.619680276836213 12.661415730127052 1 rotate no_reflect no_shear #
lump $-1 $-1 $49 $10 #
transform $-1 1 0 0 0 1 0 0 0 1 45.055085909604173 28.619680276836213 12.661415730127052 1 rotate no_reflect no_shear #
lump $-1 $-1 $50 $11 #
transform $-1 1 0 0 0 1 0 0 0 1 45.055085909604173 28.619680276836213 12.661415730127052 1 rotate no_reflect no_shear #
lump $-1 $-1 $51 $12 #
transform $-1 1 0 0 0 1 0 0 0 1 45.055085909604173 28.619680276836213 12.661415730127052 1 rotate no_reflect no_shear #
shell $-1 $-1 $-1 $52 $-1 $13 #
shell $-1 $-1 $-1 $53 $-1 $15 #
shell $-1 $-1 $-1 $54 $-1 $17 #
shell $-1 $-1 $-1 $55 $-1 $19 #
shell $-1 $-1 $-1 $56 $-1 $21 #
shell $-1 $-1 $-1 $57 $-1 $23 #
shell $-1 $-1 $-1 $58 $-1 $25 #
shell $-1 $-1 $-1 $59 $-1 $27 #
shell $-1 $-1 $-1 $60 $-1 $29 #
shell $-1 $-1 $-1 $61 $-1 $31 #
shell $-1 $-1 $-1 $62 $-1 $33 #
shell $-1 $-1 $-1 $63 $-1 $35 #
shell $-1 $-1 $-1 $64 $-1 $37 #
face $-1 $65 $66 $39 $-1 $67 forward single #
face $-1 $68 $69 $40 $-1 $70 reversed single #
face $-1 $71 $72 $41 $-1 $73 forward single #
face $-1 $74 $75 $42 $-1 $76 forward single #
face $-1 $77 $78 $43 $-1 $79 reversed single #
face $-1 $80 $81 $44 $-1 $82 forward single #
face $-1 $83 $84 $45 $-1 $85 forward single #
face $-1 $86 $87 $46 $-1 $88 reversed single #
face $-1 $89 $90 $47 $-1 $91 forward single #
face $-1 $92 $93 $48 $-1 $94 forward single #
face $-1 $95 $96 $49 $-1 $97 reversed single #
face $-1 $98 $99 $50 $-1 $100 forward single #
face $-1 $101 $102 $51 $-1 $103 forward single #
face $-1 $104 $105 $39 $-1 $106 reversed single #
loop $-1 $-1 $107 $52 #
plane-surface $-1 0 0 12.661415730127052 0 0 1 1 0 0 forward_v I I I I #
face $-1 $108 $109 $40 $-1 $110 reversed single #
loop $-1 $-1 $111 $53 #
plane-surface $-1 -32.906836634072299 29.69223118537225 112.36948229219918 1 0 0 0 -0.54463904215088732 -0.83867056331134215 forward_v I I I I #
face $-1 $112 $113 $41 $-1 $114 forward single #
loop $-1 $115 $116 $54 #
cone-surface $-1 -29.94132415428081 22.32587439578003 7.7960108425039625 0 -0.54463904215088732 -0.83867056331134215 1 0 0 1 I I 0 1 1 forward I I I I #
face $-1 $117 $118 $42 $-1 $119 forward single #
loop $-1 $120 $121 $55 #
cone-surface $-1 -25.493055434593575 22.32587439578003 7.7960108425039625 0 -0.54463904215088732 -0.83867056331134215 1 0 0 1 I I 0 1 1 forward I I I I #
face $-1 $122 $123 $43 $-1 $124 reversed single #
loop $-1 $-1 $125 $56 #
plane-surface $-1 -14.428710104447507 29.69223118537225 112.36948229219918 1 0 0 0 -0.54463904215088732 -0.83867056331134215 forward_v I I I I #
face $-1 $126 $127 $44 $-1 $128 forward single #
loop $-1 $129 $130 $57 #
cone-surface $-1 -11.463197624656019 22.32587439578003 7.7960108425039625 0 -0.54463904215088732 -0.83867056331134215 1 0 0 1 I I 0 1 1 forward I I I I #
face $-1 $131 $132 $45 $-1 $133 forward single #
loop $-1 $134 $135 $58 #
cone-surface $-1 -7.0149289049687837 22.32587439578003 7.7960108425039625 0 -0.54463904215088732 -0.83867056331134215 1 0 0 1 I I 0 1 1 forward I I I I #
face $-1 $136 $137 $46 $-1 $138 reversed single #
loop $-1 $-1 $139 $59 #
plane-surface $-1 4.04941642517728 29.69223118537225 112.36948229219918 1 0 0 0 -0.54463904215088732 -0.83867056331134215 forward_v I I I I #
face $-1 $140 $141 $47 $-1 $142 forward single #
loop $-1 $143 $144 $60 #
cone-surface $-1 7.0149289049687695 22.32587439578003 7.7960108425039625 0 -0.54463904215088732 -0.83867056331134215 1 0 0 1 I I 0 1 1 forward I I I I #
face $-1 $145 $146 $48 $-1 $147 forward single #
loop $-1 $148 $149 $61 #
cone-surface $-1 11.463197624656004 22.32587439578003 7.7960108425039625 0 -0.54463904215088732 -0.83867056331134215 1 0 0 1 I I 0 1 1 forward I I I I #
face $-1 $150 $151 $49 $-1 $152 reversed single #
loop $-1 $-1 $153 $62 #
plane-surface $-1 22.527542954802069 29.69223118537225 112.36948229219918 1 0 0 0 -0.54463904215088732 -0.83867056331134215 forward_v I I I I #
face $-1 $154 $155 $50 $-1 $156 forward single #
loop $-1 $157 $158 $63 #
cone-surface $-1 25.493055434593558 22.32587439578003 7.7960108425039625 0 -0.54463904215088732 -0.83867056331134215 1 0 0 1 I I 0 1 1 forward I I I I #
face $-1 $159 $160 $51 $-1 $161 forward single #
loop $-1 $162 $163 $64 #
cone-surface $-1 29.941324154280792 22.32587439578003 7.7960108425039625 0 -0.54463904215088732 -0.83867056331134215 1 0 0 1 I I 0 1 1 forward I I I I #
face $-1 $164 $165 $39 $-1 $166 reversed single #
loop $-1 $-1 $167 $65 #
plane-surface $-1 0 0 -12.661415730127052 0 0 1 1 0 0 forward_v I I I I #
coedge $-1 $168 $169 $170 $171 forward $66 $-1 #
face $-1 $172 $173 $40 $-1 $174 reversed single #
loop $-1 $-1 $175 $68 #
plane-surface $-1 -27.717189794437193 -19.38528648229326 36.796733732501892 0 0.54463904215088732 0.83867056331134215 1 0 0 forward_v I I I I #
coedge $-1 $176 $177 $178 $179 reversed $69 $-1 #
face $-1 $-1 $180 $41 $-1 $181 forward single #
loop $-1 $182 $183 $71 #
cone-surface $-1 -29.94132415428081 21.179667428169843 6.0310069246785023 0 -0.54463904215088732 -0.83867056331134215 0.5 0 0 1 I I -0.70710678118654746 0.70710678118654746 0.5 forward I I I I #
loop $-1 $-1 $184 $54 #
coedge $-1 $116 $116 $185 $186 reversed $72 $-1 #
face $-1 $-1 $187 $42 $-1 $188 forward single #
loop $-1 $189 $190 $74 #
cone-surface $-1 -25.493055434593575 21.179667428169843 6.0310069246785023 0 -0.54463904215088732 -0.83867056331134215 0.5 0 0 1 I I -0.70710678118654746 0.70710678118654746 0.5 forward I I I I #
loop $-1 $-1 $191 $55 #
coedge $-1 $121 $121 $192 $193 reversed $75 $-1 #
face $-1 $194 $195 $43 $-1 $196 reversed single #
loop $-1 $-1 $197 $77 #
plane-surface $-1 -9.2390632648124011 -19.38528648229326 36.796733732501892 0 0.54463904215088732 0.83867056331134215 1 0 0 forward_v I I I I #
coedge $-1 $198 $199 $200 $201 reversed $78 $-1 #
face $-1 $-1 $202 $44 $-1 $203 forward single #
loop $-1 $204 $205 $80 #
cone-surface $-1 -11.463197624656019 21.179667428169843 6.0310069246785023 0 -0.54463904215088732 -0.83867056331134215 0.5 0 0 1 I I -0.70710678118654746 0.70710678118654746 0.5 forward I I I I #
loop $-1 $-1 $206 $57 #
coedge $-1 $130 $130 $207 $208 reversed $81 $-1 #
face $-1 $-1 $209 $45 $-1 $210 forward single #
loop $-1 $211 $212 $83 #
cone-surface $-1 -7.0149289049687837 21.179667428169843 6.0310069246785023 0 -0.54463904215088732 -0.83867056331134215 0.5 0 0 1 I I -0.70710678118654746 0.70710678118654746 0.5 forward I I I I #
loop $-1 $-1 $213 $58 #
coedge $-1 $135 $135 $214 $215 reversed $84 $-1 #
face $-1 $216 $217 $46 $-1 $218 reversed single #
loop $-1 $-1 $219 $86 #
plane-surface $-1 9.2390632648123869 -19.38528648229326 36.796733732501892 0 0.54463904215088732 0.83867056331134215 1 0 0 forward_v I I I I #
coedge $-1 $220 $221 $222 $223 reversed $87 $-1 #
face $-1 $-1 $224 $47 $-1 $225 forward single #
loop $-1 $226 $227 $89 #
cone-surface $-1 7.0149289049687695 21.179667428169843 6.0310069246785023 0 -0.54463904215088732 -0.83867056331134215 0.5 0 0 1 I I -0.70710678118654746 0.70710678118654746 0.5 forward I I I I #
loop $-1 $-1 $228 $60 #
coedge $-1 $144 $144 $229 $230 reversed $90 $-1 #
face $-1 $-1 $231 $48 $-1 $232 forward single #
loop $-1 $233 $234 $92 #
cone-surface $-1 11.463197624656004 21.179667428169843 6.0310069246785023 0 -0.54463904215088732 -0.83867056331134215 0.5 0 0 1 I I -0.70710678118654746 0.70710678118654746 0.5 forward I I I I #
loop $-1 $-1 $235 $61 #
coedge $-1 $149 $149 $236 $237 reversed $93 $-1 #
face $-1 $238 $239 $49 $-1 $240 reversed single #
loop $-1 $-1 $241 $95 #
plane-surface $-1 27.717189794437175 -19.38528648229326 36.796733732501892 0 0.54463904215088732 0.83867056331134215 1 0 0 forward_v I I I I #
coedge $-1 $242 $243 $244 $245 reversed $96 $-1 #
face $-1 $-1 $246 $50 $-1 $247 forward single #
loop $-1 $248 $249 $98 #
cone-surface $-1 25.493055434593558 21.179667428169843 6.0310069246785023 0 -0.54463904215088732 -0.83867056331134215 0.5 0 0 1 I I -0.70710678118654746 0.70710678118654746 0.5 forward I I I I #
loop $-1 $-1 $250 $63 #
coedge $-1 $158 $158 $251 $252 reversed $99 $-1 #
face $-1 $-1 $253 $51 $-1 $254 forward single #
loop $-1 $255 $256 $101 #
cone-surface $-1 29.941324154280792 21.179667428169843 6.0310069246785023 0 -0.54463904215088732 -0.83867056331134215 0.5 0 0 1 I I -0.70710678118654746 0.70710678118654746 0.5 forward I I I I #
loop $-1 $-1 $257 $64 #
coedge $-1 $163 $163 $258 $259 reversed $102 $-1 #
face $-1 $260 $261 $39 $-1 $262 reversed single #
loop $-1 $-1 $263 $104 #
plane-surface $-1 0 -28.619680276836213 0 0 1 0 0 0 1 forward_v I I I I #
coedge $-1 $264 $265 $266 $267 forward $105 $-1 #
coedge $-1 $268 $107 $269 $270 forward $66 $-1 #
coedge $-1 $107 $268 $271 $272 forward $66 $-1 #
coedge $-1 $273 $274 $107 $171 reversed $275 $-1 #
edge $-1 $276 -28.619680276836213 $277 28.619680276836213 $170 $278 forward 7 unknown #
face $-1 $279 $280 $40 $-1 $281 reversed single #
loop $-1 $-1 $282 $108 #
plane-surface $-1 -22.527542954802087 29.69223118537225 112.36948229219918 -1 0 0 0 0.54463904215088732 0.83867056331134215 forward_v I I I I #
coedge $-1 $283 $284 $285 $286 reversed $109 $-1 #
coedge $-1 $177 $111 $287 $288 reversed $69 $-1 #
coedge $-1 $111 $176 $283 $289 reversed $69 $-1 #
coedge $-1 $285 $290 $111 $179 forward $291 $-1 #
edge $-1 $292 -13.773564684150088 $293 -2.9337278151072255 $178 $294 forward 7 unknown #
loop $-1 $-1 $185 $112 #
plane-surface $-1 -27.717189794437193 -19.38528648229326 36.796733732501892 0 0.54463904215088732 0.83867056331134215 1 0 0 forward_v I I I I #
loop $-1 $-1 $295 $71 #
coedge $-1 $183 $183 $184 $296 reversed $113 $-1 #
coedge $-1 $184 $184 $183 $296 forward $115 $-1 #
coedge $-1 $185 $185 $116 $186 forward $180 $-1 #
edge $-1 $297 8.9033676783299296e-016 $297 6.2831853071796013 $185 $298 forward 7 unknown #
loop $-1 $-1 $192 $117 #
plane-surface $-1 -27.717189794437193 -19.38528648229326 36.796733732501892 0 0.54463904215088732 0.83867056331134215 1 0 0 forward_v I I I I #
loop $-1 $-1 $299 $74 #
coedge $-1 $190 $190 $191 $300 reversed $118 $-1 #
coedge $-1 $191 $191 $190 $300 forward $120 $-1 #
coedge $-1 $192 $192 $121 $193 forward $187 $-1 #
edge $-1 $301 8.9033676783299296e-016 $301 6.2831853071796013 $192 $302 forward 7 unknown #
face $-1 $303 $304 $43 $-1 $305 forward single #
loop $-1 $-1 $306 $122 #
plane-surface $-1 -4.0494164251772942 29.69223118537225 112.36948229219918 -1 0 0 0 0.54463904215088732 0.83867056331134215 forward_v I I I I #
coedge $-1 $307 $308 $309 $310 reversed $123 $-1 #
coedge $-1 $199 $125 $311 $312 reversed $78 $-1 #
coedge $-1 $125 $198 $307 $313 reversed $78 $-1 #
coedge $-1 $309 $314 $125 $201 forward $304 $-1 #
edge $-1 $315 -13.773564684150088 $316 -2.9337278151072255 $200 $317 forward 7 unknown #
loop $-1 $-1 $207 $126 #
plane-surface $-1 -9.2390632648124011 -19.38528648229326 36.796733732501892 0 0.54463904215088732 0.83867056331134215 1 0 0 forward_v I I I I #
loop $-1 $-1 $318 $80 #
coedge $-1 $205 $205 $206 $319 reversed $127 $-1 #
coedge $-1 $206 $206 $205 $319 forward $129 $-1 #
coedge $-1 $207 $207 $130 $208 forward $202 $-1 #
edge $-1 $320 8.9033676783299296e-016 $320 6.2831853071796013 $207 $321 forward 7 unknown #
loop $-1 $-1 $214 $131 #
plane-surface $-1 -9.2390632648124011 -19.38528648229326 36.796733732501892 0 0.54463904215088732 0.83867056331134215 1 0 0 forward_v I I I I #
loop $-1 $-1 $322 $83 #
coedge $-1 $212 $212 $213 $323 reversed $132 $-1 #
coedge $-1 $213 $213 $212 $323 forward $134 $-1 #
coedge $-1 $214 $214 $135 $215 forward $209 $-1 #
edge $-1 $324 8.9033676783299296e-016 $324 6.2831853071796013 $214 $325 forward 7 unknown #
face $-1 $326 $327 $46 $-1 $328 forward single #
loop $-1 $-1 $329 $136 #
plane-surface $-1 14.428710104447493 29.69223118537225 112.36948229219918 -1 0 0 0 0.54463904215088732 0.83867056331134215 forward_v I I I I #
coedge $-1 $330 $331 $332 $333 reversed $137 $-1 #
coedge $-1 $221 $139 $334 $335 reversed $87 $-1 #
coedge $-1 $139 $220 $330 $336 reversed $87 $-1 #
coedge $-1 $332 $337 $139 $223 forward $327 $-1 #
edge $-1 $338 -13.773564684150088 $339 -2.9337278151072255 $222 $340 forward 7 unknown #
loop $-1 $-1 $229 $140 #
plane-surface $-1 9.2390632648123869 -19.38528648229326 36.796733732501892 0 0.54463904215088732 0.83867056331134215 1 0 0 forward_v I I I I #
loop $-1 $-1 $341 $89 #
coedge $-1 $227 $227 $228 $342 reversed $141 $-1 #
coedge $-1 $228 $228 $227 $342 forward $143 $-1 #
coedge $-1 $229 $229 $144 $230 forward $224 $-1 #
edge $-1 $343 8.9033676783299296e-016 $343 6.2831853071796013 $229 $344 forward 7 unknown #
loop $-1 $-1 $236 $145 #
plane-surface $-1 9.2390632648123869 -19.38528648229326 36.796733732501892 0 0.54463904215088732 0.83867056331134215 1 0 0 forward_v I I I I #
loop $-1 $-1 $345 $92 #
coedge $-1 $234 $234 $235 $346 reversed $146 $-1 #
coedge $-1 $235 $235 $234 $346 forward $148 $-1 #
coedge $-1 $236 $236 $149 $237 forward $231 $-1 #
edge $-1 $347 8.9033676783299296e-016 $347 6.2831853071796013 $236 $348 forward 7 unknown #
face $-1 $349 $350 $49 $-1 $351 forward single #
loop $-1 $-1 $352 $150 #
plane-surface $-1 32.906836634072285 29.69223118537225 112.36948229219918 -1 0 0 0 0.54463904215088732 0.83867056331134215 forward_v I I I I #
coedge $-1 $353 $354 $355 $356 reversed $151 $-1 #
coedge $-1 $243 $153 $357 $358 reversed $96 $-1 #
coedge $-1 $153 $242 $353 $359 reversed $96 $-1 #
coedge $-1 $355 $360 $153 $245 forward $350 $-1 #
edge $-1 $361 -13.773564684150088 $362 -2.9337278151072255 $244 $363 forward 7 unknown #
loop $-1 $-1 $251 $154 #
plane-surface $-1 27.717189794437175 -19.38528648229326 36.796733732501892 0 0.54463904215088732 0.83867056331134215 1 0 0 forward_v I I I I #
loop $-1 $-1 $364 $98 #
coedge $-1 $249 $249 $250 $365 reversed $155 $-1 #
coedge $-1 $250 $250 $249 $365 forward $157 $-1 #
coedge $-1 $251 $251 $158 $252 forward $246 $-1 #
edge $-1 $366 8.9033676783299296e-016 $366 6.2831853071796013 $251 $367 forward 7 unknown #
loop $-1 $-1 $258 $159 #
plane-surface $-1 27.717189794437175 -19.38528648229326 36.796733732501892 0 0.54463904215088732 0.83867056331134215 1 0 0 forward_v I I I I #
loop $-1 $-1 $368 $101 #
coedge $-1 $256 $256 $257 $369 reversed $160 $-1 #
coedge $-1 $257 $257 $256 $369 forward $162 $-1 #
coedge $-1 $258 $258 $163 $259 forward $253 $-1 #
edge $-1 $370 8.9033676783299296e-016 $370 6.2831853071796013 $258 $371 forward 7 unknown #
face $-1 $372 $373 $39 $-1 $374 reversed single #
loop $-1 $-1 $375 $164 #
plane-surface $-1 -45.055085909604173 0 0 1 0 0 0 0 -1 forward_v I I I I #
coedge $-1 $376 $271 $377 $378 forward $165 $-1 #
coedge $-1 $379 $167 $376 $380 forward $105 $-1 #
coedge $-1 $167 $379 $381 $382 forward $105 $-1 #
coedge $-1 $274 $273 $167 $267 reversed $275 $-1 #
edge $-1 $383 -28.619680276836213 $384 28.619680276836213 $266 $385 forward 7 unknown #
coedge $-1 $169 $168 $386 $387 forward $66 $-1 #
coedge $-1 $388 $389 $168 $270 reversed $373 $-1 #
edge $-1 $277 -45.055085909604173 $390 45.055085909604173 $269 $391 forward 7 unknown #
coedge $-1 $263 $392 $169 $272 reversed $165 $-1 #
edge $-1 $393 -45.055085909604173 $276 45.055085909604173 $271 $394 forward 7 unknown #
coedge $-1 $266 $170 $392 $395 forward $275 $-1 #
coedge $-1 $170 $266 $388 $396 reversed $275 $-1 #
loop $-1 $-1 $273 $372 #
vertex $-1 $171 $397 #
vertex $-1 $171 $398 #
straight-curve $-1 45.055085909604173 0 12.661415730127052 0 1 0 I I #
face $-1 $-1 $291 $40 $-1 $399 forward single #
loop $-1 $-1 $400 $172 #
plane-surface $-1 0 28.619680276836213 0 0 -1 0 0 0 -1 forward_v I I I I #
coedge $-1 $401 $402 $403 $404 reversed $173 $-1 #
coedge $-1 $405 $175 $177 $289 forward $109 $-1 #
coedge $-1 $175 $405 $401 $406 forward $109 $-1 #
coedge $-1 $403 $178 $175 $286 forward $291 $-1 #
edge $-1 $293 -19.048241736853704 $407 -8.6689480575834903 $285 $408 forward 7 unknown #
coedge $-1 $409 $410 $176 $288 forward $280 $-1 #
edge $-1 $411 -50.562797918879127 $292 -43.523325415972536 $287 $412 forward 7 unknown #
edge $-1 $293 44.314336899278636 $411 57.239360553672427 $177 $413 forward 7 unknown #
coedge $-1 $178 $403 $409 $414 forward $291 $-1 #
loop $-1 $-1 $403 $279 #
vertex $-1 $288 $415 #
vertex $-1 $179 $416 #
straight-curve $-1 -32.906836634072299 14.846115592686125 12.661415730127054 0 -1 0 I I #
coedge $-1 $295 $295 $-1 $417 reversed $182 $-1 #
edge $-1 $418 0 $418 6.2831853071796004 $183 $419 forward 7 unknown #
vertex $-1 $186 $420 #
ellipse-curve $-1 -29.94132415428081 23.199761842314778 9.1416794786737583 0 0.54463904215088732 0.83867056331134215 1 0 0 1 I I #
coedge $-1 $299 $299 $-1 $421 reversed $189 $-1 #
edge $-1 $422 0 $422 6.2831853071796004 $190 $423 forward 7 unknown #
vertex $-1 $193 $424 #
ellipse-curve $-1 -25.493055434593575 23.199761842314778 9.1416794786737583 0 0.54463904215088732 0.83867056331134215 1 0 0 1 I I #
face $-1 $-1 $425 $43 $-1 $426 reversed single #
loop $-1 $-1 $200 $194 #
plane-surface $-1 0 0 12.661415730127052 0 0 1 1 0 0 forward_v I I I I #
coedge $-1 $427 $428 $429 $430 reversed $195 $-1 #
coedge $-1 $431 $197 $199 $313 forward $123 $-1 #
coedge $-1 $197 $431 $427 $432 forward $123 $-1 #
coedge $-1 $429 $200 $197 $310 forward $304 $-1 #
edge $-1 $316 -9.8091784720413067 $433 0.57011520722890641 $309 $434 forward 7 unknown #
coedge $-1 $435 $436 $198 $312 forward $425 $-1 #
edge $-1 $437 -50.562797918879127 $315 -43.523325415972536 $311 $438 forward 7 unknown #
edge $-1 $316 44.314336899278636 $437 57.239360553672427 $199 $439 forward 7 unknown #
coedge $-1 $200 $429 $435 $440 forward $304 $-1 #
vertex $-1 $201 $441 #
vertex $-1 $201 $442 #
straight-curve $-1 -14.428710104447507 14.846115592686125 12.661415730127054 0 -1 0 I I #
coedge $-1 $318 $318 $-1 $443 reversed $204 $-1 #
edge $-1 $444 0 $444 6.2831853071796004 $205 $445 forward 7 unknown #
vertex $-1 $208 $446 #
ellipse-curve $-1 -11.463197624656019 23.199761842314778 9.1416794786737583 0 0.54463904215088732 0.83867056331134215 1 0 0 1 I I #
coedge $-1 $322 $322 $-1 $447 reversed $211 $-1 #
edge $-1 $448 0 $448 6.2831853071796004 $212 $449 forward 7 unknown #
vertex $-1 $215 $450 #
ellipse-curve $-1 -7.0149289049687837 23.199761842314778 9.1416794786737583 0 0.54463904215088732 0.83867056331134215 1 0 0 1 I I #
face $-1 $-1 $451 $46 $-1 $452 reversed single #
loop $-1 $-1 $222 $216 #
plane-surface $-1 0 0 12.661415730127052 0 0 1 1 0 0 forward_v I I I I #
coedge $-1 $453 $454 $455 $456 reversed $217 $-1 #
coedge $-1 $457 $219 $221 $336 forward $137 $-1 #
coedge $-1 $219 $457 $453 $458 forward $137 $-1 #
coedge $-1 $455 $222 $219 $333 forward $327 $-1 #
edge $-1 $339 -0.57011520722891351 $459 9.8091784720412996 $332 $460 forward 7 unknown #
coedge $-1 $461 $462 $220 $335 forward $451 $-1 #
edge $-1 $463 -50.562797918879127 $338 -43.523325415972536 $334 $464 forward 7 unknown #
edge $-1 $339 44.314336899278636 $463 57.239360553672427 $221 $465 forward 7 unknown #
coedge $-1 $222 $455 $461 $466 forward $327 $-1 #
vertex $-1 $223 $467 #
vertex $-1 $223 $468 #
straight-curve $-1 4.04941642517728 14.846115592686125 12.661415730127054 0 -1 0 I I #
coedge $-1 $341 $341 $-1 $469 reversed $226 $-1 #
edge $-1 $470 0 $470 6.2831853071796004 $227 $471 forward 7 unknown #
vertex $-1 $230 $472 #
ellipse-curve $-1 7.0149289049687695 23.199761842314778 9.1416794786737583 0 0.54463904215088732 0.83867056331134215 1 0 0 1 I I #
coedge $-1 $345 $345 $-1 $473 reversed $233 $-1 #
edge $-1 $474 0 $474 6.2831853071796004 $234 $475 forward 7 unknown #
vertex $-1 $237 $476 #
ellipse-curve $-1 11.463197624656004 23.199761842314778 9.1416794786737583 0 0.54463904215088732 0.83867056331134215 1 0 0 1 I I #
face $-1 $-1 $477 $49 $-1 $478 reversed single #
loop $-1 $-1 $244 $238 #
plane-surface $-1 0 0 12.661415730127052 0 0 1 1 0 0 forward_v I I I I #
coedge $-1 $479 $480 $481 $482 reversed $239 $-1 #
coedge $-1 $483 $241 $243 $359 forward $151 $-1 #
coedge $-1 $241 $483 $479 $484 forward $151 $-1 #
coedge $-1 $481 $244 $241 $356 forward $350 $-1 #
edge $-1 $362 8.6689480575834814 $485 19.048241736853697 $355 $486 forward 7 unknown #
coedge $-1 $487 $488 $242 $358 forward $477 $-1 #
edge $-1 $489 -50.562797918879127 $361 -43.523325415972536 $357 $490 forward 7 unknown #
edge $-1 $362 44.314336899278636 $489 57.239360553672427 $243 $491 forward 7 unknown #
coedge $-1 $244 $481 $487 $492 forward $350 $-1 #
vertex $-1 $245 $493 #
vertex $-1 $245 $494 #
straight-curve $-1 22.527542954802069 14.846115592686125 12.661415730127054 0 -1 0 I I #
coedge $-1 $364 $364 $-1 $495 reversed $248 $-1 #
edge $-1 $496 0 $496 6.2831853071796004 $249 $497 forward 7 unknown #
vertex $-1 $252 $498 #
ellipse-curve $-1 25.493055434593558 23.199761842314778 9.1416794786737583 0 0.54463904215088732 0.83867056331134215 1 0 0 1 I I #
coedge $-1 $368 $368 $-1 $499 reversed $255 $-1 #
edge $-1 $500 0 $500 6.2831853071796004 $256 $501 forward 7 unknown #
vertex $-1 $259 $502 #
ellipse-curve $-1 29.941324154280792 23.199761842314778 9.1416794786737583 0 0.54463904215088732 0.83867056331134215 1 0 0 1 I I #
face $-1 $-1 $275 $39 $-1 $503 reversed single #
loop $-1 $-1 $388 $260 #
plane-surface $-1 0 28.619680276836213 0 0 -1 0 0 0 -1 forward_v I I I I #
coedge $-1 $504 $386 $389 $505 forward $261 $-1 #
coedge $-1 $392 $263 $264 $380 reversed $165 $-1 #
coedge $-1 $386 $504 $263 $378 reversed $261 $-1 #
edge $-1 $393 -12.661415730127052 $506 12.661415730127052 $377 $507 forward 7 unknown #
coedge $-1 $265 $264 $504 $508 forward $105 $-1 #
edge $-1 $384 -45.055085909604173 $506 45.055085909604173 $376 $509 forward 7 unknown #
coedge $-1 $389 $388 $265 $382 reversed $373 $-1 #
edge $-1 $510 -45.055085909604173 $383 45.055085909604173 $381 $511 forward 7 unknown #
vertex $-1 $267 $512 #
vertex $-1 $395 $513 #
straight-curve $-1 45.055085909604173 0 -12.661415730127052 0 -1 0 I I #
coedge $-1 $375 $377 $268 $387 reversed $261 $-1 #
edge $-1 $390 -28.619680276836213 $393 28.619680276836213 $386 $514 forward 7 unknown #
coedge $-1 $381 $269 $274 $396 forward $373 $-1 #
coedge $-1 $269 $381 $375 $505 reversed $373 $-1 #
vertex $-1 $270 $515 #
straight-curve $-1 0 28.619680276836213 12.661415730127052 -1 0 0 I I #
coedge $-1 $271 $376 $273 $395 reversed $165 $-1 #
vertex $-1 $387 $516 #
straight-curve $-1 0 -28.619680276836213 12.661415730127052 1 0 0 I I #
edge $-1 $276 -12.661415730127052 $384 12.661415730127052 $273 $517 forward 7 unknown #
edge $-1 $277 -12.661415730127052 $383 12.661415730127052 $274 $518 forward 7 unknown #
point $-1 45.055085909604173 -28.619680276836213 12.661415730127052 #
point $-1 45.055085909604173 28.619680276836213 12.661415730127052 #
plane-surface $-1 0 0 12.661415730127052 0 0 1 1 0 0 forward_v I I I I #
coedge $-1 $410 $409 $402 $519 forward $280 $-1 #
coedge $-1 $402 $282 $284 $406 reversed $173 $-1 #
coedge $-1 $282 $401 $400 $519 reversed $173 $-1 #
coedge $-1 $290 $285 $282 $404 forward $291 $-1 #
edge $-1 $407 2.9337278151072255 $520 13.773564684150088 $403 $521 forward 7 unknown #
coedge $-1 $284 $283 $410 $522 reversed $109 $-1 #
edge $-1 $523 -57.239360553672427 $407 -44.314336899278636 $401 $524 forward 7 unknown #
vertex $-1 $286 $525 #
straight-curve $-1 -13.858594897218596 17.779843407793354 12.661415730127047 1 0 0 I I #
coedge $-1 $400 $287 $290 $414 reversed $280 $-1 #
coedge $-1 $287 $400 $405 $522 forward $280 $-1 #
vertex $-1 $288 $526 #
straight-curve $-1 -32.906836634072299 28.619680276836213 56.18474114609959 0 0 1 I I #
straight-curve $-1 -32.906836634072299 -19.38528648229326 36.796733732501892 0 0.83867056331134215 -0.54463904215088732 I I #
edge $-1 $520 22.527542954802087 $292 32.906836634072299 $409 $527 forward 7 unknown #
point $-1 -32.906836634072299 28.619680276836213 12.661415730127052 #
point $-1 -32.906836634072299 17.779843407793351 12.661415730127054 #
edge $-1 $528 1 $528 0 $295 $-1 forward 7 unknown #
vertex $-1 $296 $529 #
ellipse-curve $-1 -29.94132415428081 21.451986949245288 6.4503422063341738 0 0.54463904215088732 0.83867056331134215 1 0 0 1 I I #
point $-1 -28.94132415428081 23.199761842314775 9.1416794786737512 #
edge $-1 $530 1 $530 0 $299 $-1 forward 7 unknown #
vertex $-1 $300 $531 #
ellipse-curve $-1 -25.493055434593575 21.451986949245288 6.4503422063341738 0 0.54463904215088732 0.83867056331134215 1 0 0 1 I I #
point $-1 -24.493055434593575 23.199761842314775 9.1416794786737512 #
loop $-1 $-1 $311 $303 #
plane-surface $-1 0 28.619680276836213 0 0 -1 0 0 0 -1 forward_v I I I I #
coedge $-1 $428 $306 $308 $432 reversed $195 $-1 #
coedge $-1 $306 $427 $532 $533 reversed $195 $-1 #
coedge $-1 $314 $309 $306 $430 forward $304 $-1 #
edge $-1 $433 2.9337278151072255 $534 13.773564684150088 $429 $535 forward 7 unknown #
coedge $-1 $308 $307 $436 $536 reversed $123 $-1 #
edge $-1 $537 -57.239360553672427 $433 -44.314336899278636 $427 $538 forward 7 unknown #
vertex $-1 $310 $539 #
straight-curve $-1 -4.6195316324062006 17.779843407793354 12.661415730127047 1 0 0 I I #
coedge $-1 $532 $311 $314 $440 reversed $425 $-1 #
coedge $-1 $311 $532 $431 $536 forward $425 $-1 #
vertex $-1 $312 $540 #
straight-curve $-1 -14.428710104447507 28.619680276836213 56.18474114609959 0 0 1 I I #
straight-curve $-1 -14.428710104447507 -19.38528648229326 36.796733732501892 0 0.83867056331134215 -0.54463904215088732 I I #
edge $-1 $534 4.0494164251772942 $315 14.428710104447507 $435 $541 forward 7 unknown #
point $-1 -14.428710104447507 28.619680276836213 12.661415730127052 #
point $-1 -14.428710104447507 17.779843407793351 12.661415730127054 #
edge $-1 $542 1 $542 0 $318 $-1 forward 7 unknown #
vertex $-1 $319 $543 #
ellipse-curve $-1 -11.463197624656019 21.451986949245288 6.4503422063341738 0 0.54463904215088732 0.83867056331134215 1 0 0 1 I I #
point $-1 -10.463197624656019 23.199761842314775 9.1416794786737512 #
edge $-1 $544 1 $544 0 $322 $-1 forward 7 unknown #
vertex $-1 $323 $545 #
ellipse-curve $-1 -7.0149289049687837 21.451986949245288 6.4503422063341738 0 0.54463904215088732 0.83867056331134215 1 0 0 1 I I #
point $-1 -6.0149289049687837 23.199761842314775 9.1416794786737512 #
loop $-1 $-1 $334 $326 #
plane-surface $-1 0 28.619680276836213 0 0 -1 0 0 0 -1 forward_v I I I I #
coedge $-1 $454 $329 $331 $458 reversed $217 $-1 #
coedge $-1 $329 $453 $546 $547 reversed $217 $-1 #
coedge $-1 $337 $332 $329 $456 forward $327 $-1 #
edge $-1 $459 2.9337278151072255 $548 13.773564684150088 $455 $549 forward 7 unknown #
coedge $-1 $331 $330 $462 $550 reversed $137 $-1 #
edge $-1 $551 -57.239360553672427 $459 -44.314336899278636 $453 $552 forward 7 unknown #
vertex $-1 $333 $553 #
straight-curve $-1 4.6195316324061935 17.779843407793354 12.661415730127047 1 0 0 I I #
coedge $-1 $546 $334 $337 $466 reversed $451 $-1 #
coedge $-1 $334 $546 $457 $550 forward $451 $-1 #
vertex $-1 $335 $554 #
straight-curve $-1 4.04941642517728 28.619680276836213 56.18474114609959 0 0 1 I I #
straight-curve $-1 4.04941642517728 -19.38528648229326 36.796733732501892 0 0.83867056331134215 -0.54463904215088732 I I #
edge $-1 $548 -14.428710104447493 $338 -4.04941642517728 $461 $555 forward 7 unknown #
point $-1 4.04941642517728 28.619680276836213 12.661415730127052 #
point $-1 4.04941642517728 17.779843407793351 12.661415730127054 #
edge $-1 $556 1 $556 0 $341 $-1 forward 7 unknown #
vertex $-1 $342 $557 #
ellipse-curve $-1 7.0149289049687695 21.451986949245288 6.4503422063341738 0 0.54463904215088732 0.83867056331134215 1 0 0 1 I I #
point $-1 8.0149289049687695 23.199761842314775 9.1416794786737512 #
edge $-1 $558 1 $558 0 $345 $-1 forward 7 unknown #
vertex $-1 $346 $559 #
ellipse-curve $-1 11.463197624656004 21.451986949245288 6.4503422063341738 0 0.54463904215088732 0.83867056331134215 1 0 0 1 I I #
point $-1 12.463197624656004 23.199761842314775 9.1416794786737512 #
loop $-1 $-1 $357 $349 #
plane-surface $-1 0 28.619680276836213 0 0 -1 0 0 0 -1 forward_v I I I I #
coedge $-1 $480 $352 $354 $484 reversed $239 $-1 #
coedge $-1 $352 $479 $560 $561 reversed $239 $-1 #
coedge $-1 $360 $355 $352 $482 forward $350 $-1 #
edge $-1 $485 2.9337278151072255 $562 13.773564684150088 $481 $563 forward 7 unknown #
coedge $-1 $354 $353 $488 $564 reversed $151 $-1 #
edge $-1 $565 -57.239360553672427 $485 -44.314336899278636 $479 $566 forward 7 unknown #
vertex $-1 $356 $567 #
straight-curve $-1 13.858594897218588 17.779843407793354 12.661415730127047 1 0 0 I I #
coedge $-1 $560 $357 $360 $492 reversed $477 $-1 #
coedge $-1 $357 $560 $483 $564 forward $477 $-1 #
vertex $-1 $358 $568 #
straight-curve $-1 22.527542954802069 28.619680276836213 56.18474114609959 0 0 1 I I #
straight-curve $-1 22.527542954802069 -19.38528648229326 36.796733732501892 0 0.83867056331134215 -0.54463904215088732 I I #
edge $-1 $562 -32.906836634072285 $361 -22.527542954802069 $487 $569 forward 7 unknown #
point $-1 22.527542954802069 28.619680276836213 12.661415730127052 #
point $-1 22.527542954802069 17.779843407793351 12.661415730127054 #
edge $-1 $570 1 $570 0 $364 $-1 forward 7 unknown #
vertex $-1 $365 $571 #
ellipse-curve $-1 25.493055434593558 21.451986949245288 6.4503422063341738 0 0.54463904215088732 0.83867056331134215 1 0 0 1 I I #
point $-1 26.493055434593558 23.199761842314775 9.1416794786737512 #
edge $-1 $572 1 $572 0 $368 $-1 forward 7 unknown #
vertex $-1 $369 $573 #
ellipse-curve $-1 29.941324154280792 21.451986949245288 6.4503422063341738 0 0.54463904215088732 0.83867056331134215 1 0 0 1 I I #
point $-1 30.941324154280792 23.199761842314775 9.1416794786737512 #
plane-surface $-1 45.055085909604173 0 0 -1 0 0 0 0 1 forward_v I I I I #
coedge $-1 $377 $375 $379 $508 reversed $261 $-1 #
edge $-1 $390 -12.661415730127052 $510 12.661415730127052 $389 $574 forward 7 unknown #
vertex $-1 $508 $575 #
straight-curve $-1 -45.055085909604173 -28.619680276836213 0 0 0 -1 I I #
edge $-1 $506 -28.619680276836213 $510 28.619680276836213 $504 $576 forward 7 unknown #
straight-curve $-1 0 -28.619680276836213 -12.661415730127052 -1 0 0 I I #
vertex $-1 $382 $577 #
straight-curve $-1 0 28.619680276836213 -12.661415730127052 1 0 0 I I #
point $-1 45.055085909604173 28.619680276836213 -12.661415730127052 #
point $-1 45.055085909604173 -28.619680276836213 -12.661415730127052 #
straight-curve $-1 -45.055085909604173 0 12.661415730127052 0 -1 0 I I #
point $-1 -45.055085909604173 28.619680276836213 12.661415730127052 #
point $-1 -45.055085909604173 -28.619680276836213 12.661415730127052 #
straight-curve $-1 45.055085909604173 -28.619680276836213 0 0 0 -1 I I #
straight-curve $-1 45.055085909604173 28.619680276836213 0 0 0 -1 I I #
edge $-1 $520 43.523325415972536 $523 50.562797918879127 $400 $578 forward 7 unknown #
vertex $-1 $414 $579 #
straight-curve $-1 -22.527542954802087 14.846115592686125 12.661415730127054 0 1 0 I I #
edge $-1 $523 8.6689480575834903 $411 19.048241736853704 $410 $580 forward 7 unknown #
vertex $-1 $522 $581 #
straight-curve $-1 -22.527542954802087 -19.38528648229326 36.796733732501892 0 -0.83867056331134215 0.54463904215088732 I I #
point $-1 -22.527542954802087 17.779843407793351 12.661415730127054 #
point $-1 -32.906836634072299 28.619680276836213 5.6219432272204592 #
straight-curve $-1 0 28.619680276836213 12.661415730127052 -1 0 0 I I #
vertex $-1 $417 $582 #
point $-1 -28.94132415428081 21.451986949245288 6.4503422063341738 #
vertex $-1 $421 $583 #
point $-1 -24.493055434593575 21.451986949245288 6.4503422063341738 #
coedge $-1 $436 $435 $428 $533 forward $425 $-1 #
edge $-1 $534 43.523325415972536 $537 50.562797918879127 $532 $584 forward 7 unknown #
vertex $-1 $440 $585 #
straight-curve $-1 -4.0494164251772942 14.846115592686125 12.661415730127054 0 1 0 I I #
edge $-1 $537 -0.57011520722890641 $437 9.8091784720413067 $436 $586 forward 7 unknown #
vertex $-1 $536 $587 #
straight-curve $-1 -4.0494164251772942 -19.38528648229326 36.796733732501892 0 -0.83867056331134215 0.54463904215088732 I I #
point $-1 -4.0494164251772942 17.779843407793351 12.661415730127054 #
point $-1 -14.428710104447507 28.619680276836213 5.6219432272204592 #
straight-curve $-1 0 28.619680276836213 12.661415730127052 -1 0 0 I I #
vertex $-1 $443 $588 #
point $-1 -10.463197624656019 21.451986949245288 6.4503422063341738 #
vertex $-1 $447 $589 #
point $-1 -6.0149289049687837 21.451986949245288 6.4503422063341738 #
coedge $-1 $462 $461 $454 $547 forward $451 $-1 #
edge $-1 $548 43.523325415972536 $551 50.562797918879127 $546 $590 forward 7 unknown #
vertex $-1 $466 $591 #
straight-curve $-1 14.428710104447493 14.846115592686125 12.661415730127054 0 1 0 I I #
edge $-1 $551 -9.8091784720412996 $463 0.57011520722891351 $462 $592 forward 7 unknown #
vertex $-1 $550 $593 #
straight-curve $-1 14.428710104447493 -19.38528648229326 36.796733732501892 0 -0.83867056331134215 0.54463904215088732 I I #
point $-1 14.428710104447493 17.779843407793351 12.661415730127054 #
point $-1 4.04941642517728 28.619680276836213 5.6219432272204592 #
straight-curve $-1 0 28.619680276836213 12.661415730127052 -1 0 0 I I #
vertex $-1 $469 $594 #
point $-1 8.0149289049687695 21.451986949245288 6.4503422063341738 #
vertex $-1 $473 $595 #
point $-1 12.463197624656004 21.451986949245288 6.4503422063341738 #
coedge $-1 $488 $487 $480 $561 forward $477 $-1 #
edge $-1 $562 43.523325415972536 $565 50.562797918879127 $560 $596 forward 7 unknown #
vertex $-1 $492 $597 #
straight-curve $-1 32.906836634072285 14.846115592686125 12.661415730127054 0 1 0 I I #
edge $-1 $565 -19.048241736853697 $489 -8.6689480575834814 $488 $598 forward 7 unknown #
vertex $-1 $564 $599 #
straight-curve $-1 32.906836634072285 -19.38528648229326 36.796733732501892 0 -0.83867056331134215 0.54463904215088732 I I #
point $-1 32.906836634072285 17.779843407793351 12.661415730127054 #
point $-1 22.527542954802069 28.619680276836213 5.6219432272204592 #
straight-curve $-1 0 28.619680276836213 12.661415730127052 -1 0 0 I I #
vertex $-1 $495 $600 #
point $-1 26.493055434593558 21.451986949245288 6.4503422063341738 #
vertex $-1 $499 $601 #
point $-1 30.941324154280792 21.451986949245288 6.4503422063341738 #
straight-curve $-1 -45.055085909604173 28.619680276836213 0 0 0 -1 I I #
point $-1 -45.055085909604173 -28.619680276836213 -12.661415730127052 #
straight-curve $-1 -45.055085909604173 0 -12.661415730127052 0 1 0 I I #
point $-1 -45.055085909604173 28.619680276836213 -12.661415730127052 #
straight-curve $-1 -22.527542954802087 28.619680276836213 56.18474114609959 0 0 -1 I I #
point $-1 -22.527542954802087 28.619680276836213 12.661415730127052 #
straight-curve $-1 -13.858594897218596 28.619680276836213 5.6219432272204592 -1 0 0 I I #
point $-1 -22.527542954802087 28.619680276836213 5.6219432272204592 #
point $-1 -29.94132415428081 20.907347907094397 5.6116716430228308 #
point $-1 -25.493055434593575 20.907347907094397 5.6116716430228308 #
straight-curve $-1 -4.0494164251772942 28.619680276836213 56.18474114609959 0 0 -1 I I #
point $-1 -4.0494164251772942 28.619680276836213 12.661415730127052 #
straight-curve $-1 -4.6195316324062006 28.619680276836213 5.6219432272204592 -1 0 0 I I #
point $-1 -4.0494164251772942 28.619680276836213 5.6219432272204592 #
point $-1 -11.463197624656019 20.907347907094397 5.6116716430228308 #
point $-1 -7.0149289049687837 20.907347907094397 5.6116716430228308 #
straight-curve $-1 14.428710104447493 28.619680276836213 56.18474114609959 0 0 -1 I I #
point $-1 14.428710104447493 28.619680276836213 12.661415730127052 #
straight-curve $-1 4.6195316324061935 28.619680276836213 5.6219432272204592 -1 0 0 I I #
point $-1 14.428710104447493 28.619680276836213 5.6219432272204592 #
point $-1 7.0149289049687695 20.907347907094397 5.6116716430228308 #
point $-1 11.463197624656004 20.907347907094397 5.6116716430228308 #
straight-curve $-1 32.906836634072285 28.619680276836213 56.18474114609959 0 0 -1 I I #
point $-1 32.906836634072285 28.619680276836213 12.661415730127052 #
straight-curve $-1 13.858594897218588 28.619680276836213 5.6219432272204592 -1 0 0 I I #
point $-1 32.906836634072285 28.619680276836213 5.6219432272204592 #
point $-1 25.493055434593558 20.907347907094397 5.6116716430228308 #
point $-1 29.941324154280792 20.907347907094397 5.6116716430228308 #
End-of-ACIS-data 