500 0 4 0           
7 Unknown 11 ACIS 5.0 NT 24 Thu Mar 25 22:32:59 1999 
-1 9.9999999999999995e-007 1e-010 
body $-1 $4 $-1 $5 #
body $-1 $6 $-1 $7 #
body $-1 $8 $-1 $9 #
body $-1 $10 $-1 $11 #
lump $-1 $-1 $12 $0 #
transform $-1 1 0 0 0 1 0 0 0 1 43.857539597766049 22.061947239294955 5.5164630915552664 1 rotate no_reflect no_shear #
lump $-1 $-1 $13 $1 #
transform $-1 1 0 0 0 1 0 0 0 1 43.857539597766049 22.061947239294955 5.5164630915552664 1 rotate no_reflect no_shear #
lump $-1 $-1 $14 $2 #
transform $-1 1 0 0 0 1 0 0 0 1 43.857539597766049 22.061947239294955 5.5164630915552664 1 rotate no_reflect no_shear #
lump $-1 $-1 $15 $3 #
transform $-1 1 0 0 0 1 0 0 0 1 43.857539597766049 22.061947239294955 5.5164630915552664 1 rotate no_reflect no_shear #
shell $-1 $-1 $-1 $16 $-1 $4 #
shell $-1 $-1 $-1 $17 $-1 $6 #
shell $-1 $-1 $-1 $18 $-1 $8 #
shell $-1 $-1 $-1 $19 $-1 $10 #
face $-1 $20 $21 $12 $-1 $22 forward single #
face $-1 $23 $24 $13 $-1 $25 reversed single #
face $-1 $26 $27 $14 $-1 $28 forward single #
face $-1 $29 $30 $15 $-1 $31 forward single #
face $-1 $32 $33 $12 $-1 $34 reversed single #
loop $-1 $-1 $35 $16 #
plane-surface $-1 0 0 5.5164630915552664 0 0 1 1 0 0 forward_v I I I I #
face $-1 $36 $37 $13 $-1 $38 reversed single #
loop $-1 $-1 $39 $17 #
plane-surface $-1 33.288872389357579 -22.061947239294945 0.94270407571156056 0 -0.52991927123019833 0.84804809178421925 1 0 0 forward_v I I I I #
face $-1 $40 $41 $14 $-1 $42 forward single #
loop $-1 $43 $44 $18 #
cone-surface $-1 28.759443585753957 -17.924209457463114 2.464678730316459 0 0.52991927123019833 -0.84804809178421925 1.5 0 0 1 I I 0 1 1.5 forward I I I I #
face $-1 $45 $46 $15 $-1 $47 forward single #
loop $-1 $48 $49 $19 #
cone-surface $-1 37.818301192961215 -17.924209457463114 2.464678730316459 0 0.52991927123019833 -0.84804809178421925 1.5 0 0 1 I I 0 1 1.5 forward I I I I #
face $-1 $50 $51 $12 $-1 $52 reversed single #
loop $-1 $-1 $53 $20 #
plane-surface $-1 0 0 -5.5164630915552664 0 0 1 1 0 0 forward_v I I I I #
coedge $-1 $54 $55 $56 $57 forward $21 $-1 #
face $-1 $58 $59 $13 $-1 $60 reversed single #
loop $-1 $-1 $61 $23 #
plane-surface $-1 22.720205180949108 -68.543858082490445 75.329309608184232 1 0 0 0 0.52991927123019833 -0.84804809178421925 forward_v I I I I #
coedge $-1 $62 $63 $64 $65 reversed $24 $-1 #
face $-1 $-1 $66 $14 $-1 $67 forward single #
loop $-1 $68 $69 $26 #
cone-surface $-1 28.759443585753957 -17.048804395300792 1.0637378081613384 0 0.52991927123019833 -0.84804809178421925 0.75 0 0 1 I I -0.70710678118654757 0.70710678118654757 0.75 forward I I I I #
loop $-1 $-1 $70 $18 #
coedge $-1 $44 $44 $71 $72 reversed $27 $-1 #
face $-1 $-1 $73 $15 $-1 $74 forward single #
loop $-1 $75 $76 $29 #
cone-surface $-1 37.818301192961215 -17.048804395300792 1.0637378081613384 0 0.52991927123019833 -0.84804809178421925 0.75 0 0 1 I I -0.70710678118654757 0.70710678118654757 0.75 forward I I I I #
loop $-1 $-1 $77 $19 #
coedge $-1 $49 $49 $78 $79 reversed $30 $-1 #
face $-1 $80 $81 $12 $-1 $82 reversed single #
loop $-1 $-1 $83 $32 #
plane-surface $-1 0 -22.061947239294955 0 0 1 0 0 0 1 forward_v I I I I #
coedge $-1 $84 $85 $86 $87 forward $33 $-1 #
coedge $-1 $88 $35 $89 $90 forward $21 $-1 #
coedge $-1 $35 $88 $91 $92 forward $21 $-1 #
coedge $-1 $93 $94 $35 $57 reversed $95 $-1 #
edge $-1 $96 -22.061947239294955 $97 22.061947239294955 $56 $98 forward 7 unknown #
face $-1 $99 $100 $13 $-1 $101 forward single #
loop $-1 $-1 $102 $36 #
plane-surface $-1 0 -22.061947239294955 0 0 1 0 0 0 1 forward_v I I I I #
coedge $-1 $103 $104 $105 $106 reversed $37 $-1 #
coedge $-1 $107 $39 $108 $109 reversed $24 $-1 #
coedge $-1 $39 $107 $103 $110 forward $24 $-1 #
coedge $-1 $105 $111 $39 $65 forward $100 $-1 #
edge $-1 $112 -27.21310340308726 $113 -6.0757689862703188 $64 $114 forward 7 unknown #
loop $-1 $-1 $71 $40 #
plane-surface $-1 33.288872389357579 -22.061947239294945 0.94270407571156056 0 -0.52991927123019833 0.84804809178421925 1 0 0 forward_v I I I I #
loop $-1 $-1 $115 $26 #
coedge $-1 $69 $69 $70 $116 reversed $41 $-1 #
coedge $-1 $70 $70 $69 $116 forward $43 $-1 #
coedge $-1 $71 $71 $44 $72 forward $66 $-1 #
edge $-1 $117 6.5850817440101206e-016 $117 6.2831853071796013 $71 $118 forward 7 unknown #
loop $-1 $-1 $78 $45 #
plane-surface $-1 33.288872389357579 -22.061947239294945 0.94270407571156056 0 -0.52991927123019833 0.84804809178421925 1 0 0 forward_v I I I I #
loop $-1 $-1 $119 $29 #
coedge $-1 $76 $76 $77 $120 reversed $46 $-1 #
coedge $-1 $77 $77 $76 $120 forward $48 $-1 #
coedge $-1 $78 $78 $49 $79 forward $73 $-1 #
edge $-1 $121 6.5850817440101206e-016 $121 6.2831853071796013 $78 $122 forward 7 unknown #
face $-1 $123 $124 $12 $-1 $125 reversed single #
loop $-1 $-1 $126 $50 #
plane-surface $-1 -43.857539597766049 0 0 1 0 0 0 0 -1 forward_v I I I I #
coedge $-1 $127 $91 $128 $129 forward $51 $-1 #
coedge $-1 $130 $53 $127 $131 forward $33 $-1 #
coedge $-1 $53 $130 $132 $133 forward $33 $-1 #
coedge $-1 $94 $93 $53 $87 reversed $95 $-1 #
edge $-1 $134 -22.061947239294955 $135 22.061947239294955 $86 $136 forward 7 unknown #
coedge $-1 $55 $54 $137 $138 forward $21 $-1 #
coedge $-1 $139 $140 $54 $90 reversed $124 $-1 #
edge $-1 $97 -43.857539597766049 $141 43.857539597766049 $89 $142 forward 7 unknown #
coedge $-1 $83 $143 $55 $92 reversed $51 $-1 #
edge $-1 $144 -43.857539597766049 $96 43.857539597766049 $91 $145 forward 7 unknown #
coedge $-1 $86 $56 $143 $146 forward $95 $-1 #
coedge $-1 $56 $86 $139 $147 reversed $95 $-1 #
loop $-1 $-1 $93 $123 #
vertex $-1 $57 $148 #
vertex $-1 $57 $149 #
straight-curve $-1 43.857539597766049 0 5.5164630915552664 0 1 0 I I #
face $-1 $-1 $150 $13 $-1 $151 reversed single #
loop $-1 $-1 $105 $58 #
plane-surface $-1 0 0 5.5164630915552664 0 0 1 1 0 0 forward_v I I I I #
coedge $-1 $152 $153 $104 $154 forward $59 $-1 #
coedge $-1 $104 $61 $63 $110 reversed $37 $-1 #
coedge $-1 $61 $103 $102 $154 reversed $37 $-1 #
coedge $-1 $155 $64 $61 $106 forward $100 $-1 #
edge $-1 $113 -19.529526148134615 $156 -12.209981801950267 $105 $157 forward 7 unknown #
coedge $-1 $63 $62 $152 $158 reversed $24 $-1 #
coedge $-1 $159 $160 $62 $109 forward $150 $-1 #
edge $-1 $161 -9.1050176002707097 $112 -0.47396894030065151 $108 $162 forward 7 unknown #
edge $-1 $163 -1.2568587624561472e-014 $113 8.6310486599700447 $103 $164 forward 7 unknown #
coedge $-1 $64 $155 $159 $165 forward $100 $-1 #
vertex $-1 $109 $166 #
vertex $-1 $65 $167 #
straight-curve $-1 16.644436194678789 -14.742402893110608 5.5164630915552664 -1 0 0 I I #
coedge $-1 $115 $115 $-1 $168 reversed $68 $-1 #
edge $-1 $169 0 $169 6.2831853071796004 $69 $170 forward 7 unknown #
vertex $-1 $72 $171 #
ellipse-curve $-1 28.759443585753957 -18.402175066202783 3.2295835836334081 0 -0.52991927123019833 0.84804809178421925 1.5 0 0 1 I I #
coedge $-1 $119 $119 $-1 $172 reversed $75 $-1 #
edge $-1 $173 0 $173 6.2831853071796004 $76 $174 forward 7 unknown #
vertex $-1 $79 $175 #
ellipse-curve $-1 37.818301192961215 -18.402175066202783 3.2295835836334081 0 -0.52991927123019833 0.84804809178421925 1.5 0 0 1 I I #
face $-1 $-1 $95 $12 $-1 $176 reversed single #
loop $-1 $-1 $139 $80 #
plane-surface $-1 0 22.061947239294955 0 0 -1 0 0 0 -1 forward_v I I I I #
coedge $-1 $177 $137 $140 $178 forward $81 $-1 #
coedge $-1 $143 $83 $84 $131 reversed $51 $-1 #
coedge $-1 $137 $177 $83 $129 reversed $81 $-1 #
edge $-1 $144 -5.5164630915552664 $179 5.5164630915552664 $128 $180 forward 7 unknown #
coedge $-1 $85 $84 $177 $181 forward $33 $-1 #
edge $-1 $135 -43.857539597766049 $179 43.857539597766049 $127 $182 forward 7 unknown #
coedge $-1 $140 $139 $85 $133 reversed $124 $-1 #
edge $-1 $183 -43.857539597766049 $134 43.857539597766049 $132 $184 forward 7 unknown #
vertex $-1 $87 $185 #
vertex $-1 $146 $186 #
straight-curve $-1 43.857539597766049 0 -5.5164630915552664 0 -1 0 I I #
coedge $-1 $126 $128 $88 $138 reversed $81 $-1 #
edge $-1 $141 -22.061947239294955 $144 22.061947239294955 $137 $187 forward 7 unknown #
coedge $-1 $132 $89 $94 $147 forward $124 $-1 #
coedge $-1 $89 $132 $126 $178 reversed $124 $-1 #
vertex $-1 $90 $188 #
straight-curve $-1 0 22.061947239294955 5.5164630915552664 -1 0 0 I I #
coedge $-1 $91 $127 $93 $146 reversed $51 $-1 #
vertex $-1 $138 $189 #
straight-curve $-1 0 -22.061947239294955 5.5164630915552664 1 0 0 I I #
edge $-1 $96 -5.5164630915552664 $135 5.5164630915552664 $93 $190 forward 7 unknown #
edge $-1 $97 -5.5164630915552664 $134 5.5164630915552664 $94 $191 forward 7 unknown #
point $-1 43.857539597766049 -22.061947239294955 5.5164630915552664 #
point $-1 43.857539597766049 22.061947239294955 5.5164630915552664 #
loop $-1 $-1 $108 $99 #
plane-surface $-1 43.857539597766049 0 0 -1 0 0 0 0 1 forward_v I I I I #
coedge $-1 $192 $102 $107 $158 forward $59 $-1 #
coedge $-1 $102 $192 $155 $193 reversed $59 $-1 #
edge $-1 $156 32.14819171253685 $163 36.721950728380563 $102 $194 forward 7 unknown #
coedge $-1 $111 $105 $153 $193 forward $100 $-1 #
vertex $-1 $193 $195 #
straight-curve $-1 22.720205180949108 -34.271929041245222 5.5164630915552664 0 -1 0 I I #
edge $-1 $163 6.0757689862703188 $161 27.21310340308726 $152 $196 forward 7 unknown #
coedge $-1 $160 $108 $111 $165 reversed $150 $-1 #
coedge $-1 $108 $159 $192 $197 forward $150 $-1 #
vertex $-1 $158 $198 #
straight-curve $-1 43.857539597766049 -14.34045443772365 5.7676283669851376 0 0.84804809178421925 0.52991927123019833 I I #
vertex $-1 $158 $199 #
straight-curve $-1 22.720205180949108 -22.061947239294945 0.94270407571156056 0 0.84804809178421925 0.52991927123019833 I I #
edge $-1 $200 -22.061947239294955 $112 -14.742402893110606 $159 $201 forward 7 unknown #
point $-1 43.857539597766049 -14.742402893110606 5.5164630915552664 #
point $-1 22.720205180949108 -14.742402893110606 5.5164630915552664 #
edge $-1 $202 1 $202 0 $115 $-1 forward 7 unknown #
vertex $-1 $116 $203 #
ellipse-curve $-1 28.759443585753957 -17.446243848723441 1.6997738769995028 0 -0.52991927123019833 0.84804809178421925 1.5 0 0 1 I I #
point $-1 30.259443585753957 -18.402175066202787 3.2295835836334157 #
edge $-1 $204 1 $204 0 $119 $-1 forward 7 unknown #
vertex $-1 $120 $205 #
ellipse-curve $-1 37.818301192961215 -17.446243848723441 1.6997738769995028 0 -0.52991927123019833 0.84804809178421925 1.5 0 0 1 I I #
point $-1 39.318301192961215 -18.402175066202787 3.2295835836334157 #
plane-surface $-1 43.857539597766049 0 0 -1 0 0 0 0 1 forward_v I I I I #
coedge $-1 $128 $126 $130 $181 reversed $81 $-1 #
edge $-1 $141 -5.5164630915552664 $183 5.5164630915552664 $140 $206 forward 7 unknown #
vertex $-1 $181 $207 #
straight-curve $-1 -43.857539597766049 -22.061947239294955 0 0 0 -1 I I #
edge $-1 $179 -22.061947239294955 $183 22.061947239294955 $177 $208 forward 7 unknown #
straight-curve $-1 0 -22.061947239294955 -5.5164630915552664 -1 0 0 I I #
vertex $-1 $133 $209 #
straight-curve $-1 0 22.061947239294955 -5.5164630915552664 1 0 0 I I #
point $-1 43.857539597766049 22.061947239294955 -5.5164630915552664 #
point $-1 43.857539597766049 -22.061947239294955 -5.5164630915552664 #
straight-curve $-1 -43.857539597766049 0 5.5164630915552664 0 -1 0 I I #
point $-1 -43.857539597766049 22.061947239294955 5.5164630915552664 #
point $-1 -43.857539597766049 -22.061947239294955 5.5164630915552664 #
straight-curve $-1 43.857539597766049 -22.061947239294955 0 0 0 -1 I I #
straight-curve $-1 43.857539597766049 22.061947239294955 0 0 0 -1 I I #
coedge $-1 $153 $152 $160 $197 reversed $59 $-1 #
edge $-1 $156 22.720205180949108 $200 43.857539597766049 $153 $210 forward 7 unknown #
straight-curve $-1 22.720205180949108 -22.061947239294955 37.664654804092116 0 0 -1 I I #
point $-1 22.720205180949108 -22.061947239294955 5.5164630915552664 #
straight-curve $-1 16.644436194678789 -22.061947239294955 0.94270407571155601 1 0 0 I I #
edge $-1 $200 -5.5164630915552664 $161 -0.9427040757115539 $160 $211 forward 7 unknown #
point $-1 43.857539597766049 -22.061947239294955 0.9427040757115539 #
point $-1 22.720205180949108 -22.061947239294955 0.9427040757115539 #
vertex $-1 $165 $212 #
straight-curve $-1 43.857539597766049 0 5.5164630915552664 0 1 0 I I #
vertex $-1 $168 $213 #
point $-1 30.259443585753957 -17.446243848723441 1.6997738769995028 #
vertex $-1 $172 $214 #
point $-1 39.318301192961215 -17.446243848723441 1.6997738769995028 #
straight-curve $-1 -43.857539597766049 22.061947239294955 0 0 0 -1 I I #
point $-1 -43.857539597766049 -22.061947239294955 -5.5164630915552664 #
straight-curve $-1 -43.857539597766049 0 -5.5164630915552664 0 1 0 I I #
point $-1 -43.857539597766049 22.061947239294955 -5.5164630915552664 #
straight-curve $-1 0 -22.061947239294955 5.5164630915552664 1 0 0 I I #
straight-curve $-1 43.857539597766049 -22.061947239294955 0 0 0 -1 I I #
point $-1 43.857539597766049 -22.061947239294955 5.5164630915552664 #
point $-1 28.759443585753957 -16.651364941878143 0.42770173932317401 #
point $-1 37.818301192961215 -16.651364941878143 0.42770173932317401 #
End-of-ACIS-data 