500 0 10 0           
7 Unknown 11 ACIS 5.0 NT 24 Thu Mar 25 19:20:49 1999 
-1 9.9999999999999995e-007 1e-010 
body $-1 $10 $-1 $11 #
body $-1 $12 $-1 $13 #
body $-1 $14 $-1 $15 #
body $-1 $16 $-1 $17 #
body $-1 $18 $-1 $19 #
body $-1 $20 $-1 $21 #
body $-1 $22 $-1 $23 #
body $-1 $24 $-1 $25 #
body $-1 $26 $-1 $27 #
body $-1 $28 $-1 $29 #
lump $-1 $-1 $30 $0 #
transform $-1 1 0 0 0 1 0 0 0 1 70.016785180211798 33.205567746313527 15.727827752908736 1 rotate no_reflect no_shear #
lump $-1 $-1 $31 $1 #
transform $-1 1 0 0 0 1 0 0 0 1 70.016785180211798 33.205567746313527 15.727827752908736 1 rotate no_reflect no_shear #
lump $-1 $-1 $32 $2 #
transform $-1 1 0 0 0 1 0 0 0 1 70.016785180211798 33.205567746313527 15.727827752908736 1 rotate no_reflect no_shear #
lump $-1 $-1 $33 $3 #
transform $-1 1 0 0 0 1 0 0 0 1 70.016785180211798 33.205567746313527 15.727827752908736 1 rotate no_reflect no_shear #
lump $-1 $-1 $34 $4 #
transform $-1 1 0 0 0 1 0 0 0 1 70.016785180211798 33.205567746313527 15.727827752908736 1 rotate no_reflect no_shear #
lump $-1 $-1 $35 $5 #
transform $-1 1 0 0 0 1 0 0 0 1 70.016785180211798 33.205567746313527 15.727827752908736 1 rotate no_reflect no_shear #
lump $-1 $-1 $36 $6 #
transform $-1 1 0 0 0 1 0 0 0 1 70.016785180211798 33.205567746313527 15.727827752908736 1 rotate no_reflect no_shear #
lump $-1 $-1 $37 $7 #
transform $-1 1 0 0 0 1 0 0 0 1 70.016785180211798 33.205567746313527 15.727827752908736 1 rotate no_reflect no_shear #
lump $-1 $-1 $38 $8 #
transform $-1 1 0 0 0 1 0 0 0 1 70.016785180211798 33.205567746313527 15.727827752908736 1 rotate no_reflect no_shear #
lump $-1 $-1 $39 $9 #
transform $-1 1 0 0 0 1 0 0 0 1 70.016785180211798 33.205567746313527 15.727827752908736 1 rotate no_reflect no_shear #
shell $-1 $-1 $-1 $40 $-1 $10 #
shell $-1 $-1 $-1 $41 $-1 $12 #
shell $-1 $-1 $-1 $42 $-1 $14 #
shell $-1 $-1 $-1 $43 $-1 $16 #
shell $-1 $-1 $-1 $44 $-1 $18 #
shell $-1 $-1 $-1 $45 $-1 $20 #
shell $-1 $-1 $-1 $46 $-1 $22 #
shell $-1 $-1 $-1 $47 $-1 $24 #
shell $-1 $-1 $-1 $48 $-1 $26 #
shell $-1 $-1 $-1 $49 $-1 $28 #
face $-1 $50 $51 $30 $-1 $52 forward single #
face $-1 $53 $54 $31 $-1 $55 forward single #
face $-1 $56 $57 $32 $-1 $58 reversed single #
face $-1 $59 $60 $33 $-1 $61 forward single #
face $-1 $62 $63 $34 $-1 $64 forward single #
face $-1 $65 $66 $35 $-1 $67 forward single #
face $-1 $68 $69 $36 $-1 $70 reversed single #
face $-1 $71 $72 $37 $-1 $73 forward single #
face $-1 $74 $75 $38 $-1 $76 forward single #
face $-1 $77 $78 $39 $-1 $79 forward single #
face $-1 $80 $81 $30 $-1 $82 reversed single #
loop $-1 $-1 $83 $40 #
plane-surface $-1 0 0 15.727827752908736 0 0 1 1 0 0 forward_v I I I I #
face $-1 $84 $85 $31 $-1 $86 reversed single #
loop $-1 $-1 $87 $41 #
plane-surface $-1 0 -33.205567746313527 0 0 1 0 0 0 1 forward_v I I I I #
face $-1 $88 $89 $32 $-1 $90 reversed single #
loop $-1 $-1 $91 $42 #
plane-surface $-1 97.578263360118854 1.2640260873895244 208.5990285392277 0 -1 0 -0.79863551827123203 0 -0.60181501223851219 forward_v I I I I #
face $-1 $92 $93 $33 $-1 $94 forward single #
loop $-1 $95 $96 $43 #
cone-surface $-1 68.290015234778792 -6.6521279977546008 13.726760526367869 -0.79863551827123203 0 -0.60181501223851219 0.3009075061192561 0 -0.39931775913561601 1 I I 0 1 0.5 forward I I I I #
face $-1 $97 $98 $34 $-1 $99 forward single #
loop $-1 $100 $101 $44 #
cone-surface $-1 68.290015234778792 -3.6835702158255543 13.726760526367869 -0.79863551827123203 0 -0.60181501223851219 0.3009075061192561 0 -0.39931775913561601 1 I I 0 1 0.5 forward I I I I #
face $-1 $102 $103 $35 $-1 $104 forward single #
loop $-1 $105 $106 $45 #
cone-surface $-1 68.290015234778792 -0.71501243389650426 13.726760526367869 -0.79863551827123203 0 -0.60181501223851219 0.3009075061192561 0 -0.39931775913561601 1 I I 0 1 0.5 forward I I I I #
face $-1 $107 $108 $36 $-1 $109 reversed single #
loop $-1 $-1 $110 $46 #
plane-surface $-1 -181.85256822037974 -8.631166519040633 96.763245499059735 0 1 0 -0.79863551827123203 0 0.60181501223851219 forward_v I I I I #
face $-1 $111 $112 $37 $-1 $113 forward single #
loop $-1 $114 $115 $47 #
cone-surface $-1 -68.290015234778792 -6.6521279977546008 13.726760526367876 0.79863551827123203 0 -0.60181501223851219 0.3009075061192561 0 0.39931775913561601 1 I I 0 1 0.5 forward I I I I #
face $-1 $116 $117 $38 $-1 $118 forward single #
loop $-1 $119 $120 $48 #
cone-surface $-1 -68.290015234778792 -3.6835702158255543 13.726760526367876 0.79863551827123203 0 -0.60181501223851219 0.3009075061192561 0 0.39931775913561601 1 I I 0 1 0.5 forward I I I I #
face $-1 $121 $122 $39 $-1 $123 forward single #
loop $-1 $124 $125 $49 #
cone-surface $-1 -68.290015234778792 -0.71501243389650426 13.726760526367876 0.79863551827123203 0 -0.60181501223851219 0.3009075061192561 0 0.39931775913561601 1 I I 0 1 0.5 forward I I I I #
face $-1 $126 $127 $30 $-1 $128 reversed single #
loop $-1 $-1 $129 $50 #
plane-surface $-1 0 0 -15.727827752908736 0 0 1 1 0 0 forward_v I I I I #
coedge $-1 $130 $131 $132 $133 forward $51 $-1 #
face $-1 $134 $135 $31 $-1 $136 forward single #
loop $-1 $-1 $137 $53 #
plane-surface $-1 -70.016785180211798 0 0 1 0 0 0 0 -1 forward_v I I I I #
coedge $-1 $138 $139 $140 $141 forward $54 $-1 #
face $-1 $142 $143 $32 $-1 $144 reversed single #
loop $-1 $-1 $145 $56 #
plane-surface $-1 -14.257519680049086 -3.6835702158255543 124.32472367896682 0.79863551827123203 0 0.60181501223851219 0.60181501223851219 0 -0.79863551827123203 forward_v I I I I #
coedge $-1 $146 $147 $148 $149 reversed $57 $-1 #
face $-1 $-1 $150 $33 $-1 $151 forward single #
loop $-1 $152 $153 $59 #
cone-surface $-1 67.583924626413136 -6.6521279977546008 13.19468310382233 -0.79863551827123203 0 -0.60181501223851219 0.15045375305962805 0 -0.19965887956780801 1 I I -0.70710678118654746 0.70710678118654746 0.25 forward I I I I #
loop $-1 $-1 $154 $43 #
coedge $-1 $96 $96 $155 $156 reversed $60 $-1 #
face $-1 $-1 $157 $34 $-1 $158 forward single #
loop $-1 $159 $160 $62 #
cone-surface $-1 67.583924626413136 -3.6835702158255543 13.19468310382233 -0.79863551827123203 0 -0.60181501223851219 0.15045375305962805 0 -0.19965887956780801 1 I I -0.70710678118654746 0.70710678118654746 0.25 forward I I I I #
loop $-1 $-1 $161 $44 #
coedge $-1 $101 $101 $162 $163 reversed $63 $-1 #
face $-1 $-1 $164 $35 $-1 $165 forward single #
loop $-1 $166 $167 $65 #
cone-surface $-1 67.583924626413136 -0.71501243389650426 13.19468310382233 -0.79863551827123203 0 -0.60181501223851219 0.15045375305962805 0 -0.19965887956780801 1 I I -0.70710678118654746 0.70710678118654746 0.25 forward I I I I #
loop $-1 $-1 $168 $45 #
coedge $-1 $106 $106 $169 $170 reversed $66 $-1 #
face $-1 $171 $172 $36 $-1 $173 reversed single #
loop $-1 $-1 $174 $68 #
plane-surface $-1 -70.016785180211798 -3.6835702158255543 12.488940638798852 -0.79863551827123203 0 0.60181501223851219 0.60181501223851219 0 0.79863551827123203 forward_v I I I I #
coedge $-1 $175 $176 $177 $178 reversed $69 $-1 #
face $-1 $-1 $179 $37 $-1 $180 forward single #
loop $-1 $181 $182 $71 #
cone-surface $-1 -67.583924626413136 -6.6521279977546008 13.194683103822337 0.79863551827123203 0 -0.60181501223851219 0.15045375305962805 0 0.19965887956780801 1 I I -0.70710678118654746 0.70710678118654746 0.25 forward I I I I #
loop $-1 $-1 $183 $47 #
coedge $-1 $115 $115 $184 $185 reversed $72 $-1 #
face $-1 $-1 $186 $38 $-1 $187 forward single #
loop $-1 $188 $189 $74 #
cone-surface $-1 -67.583924626413136 -3.6835702158255543 13.194683103822337 0.79863551827123203 0 -0.60181501223851219 0.15045375305962805 0 0.19965887956780801 1 I I -0.70710678118654746 0.70710678118654746 0.25 forward I I I I #
loop $-1 $-1 $190 $48 #
coedge $-1 $120 $120 $191 $192 reversed $75 $-1 #
face $-1 $-1 $193 $39 $-1 $194 forward single #
loop $-1 $195 $196 $77 #
cone-surface $-1 -67.583924626413136 -0.71501243389650426 13.194683103822337 0.79863551827123203 0 -0.60181501223851219 0.15045375305962805 0 0.19965887956780801 1 I I -0.70710678118654746 0.70710678118654746 0.25 forward I I I I #
loop $-1 $-1 $197 $49 #
coedge $-1 $125 $125 $198 $199 reversed $78 $-1 #
face $-1 $200 $201 $30 $-1 $202 reversed single #
loop $-1 $-1 $203 $80 #
plane-surface $-1 0 -33.205567746313527 0 0 1 0 0 0 1 forward_v I I I I #
coedge $-1 $204 $205 $206 $207 forward $81 $-1 #
coedge $-1 $208 $83 $209 $210 forward $51 $-1 #
coedge $-1 $83 $208 $211 $212 forward $51 $-1 #
coedge $-1 $213 $214 $83 $133 reversed $215 $-1 #
edge $-1 $216 -33.205567746313527 $217 33.205567746313527 $132 $218 forward 7 unknown #
face $-1 $219 $220 $31 $-1 $221 reversed single #
loop $-1 $-1 $222 $84 #
plane-surface $-1 0 -41.466428437348966 7.9297608900032568 0 0 1 1 0 0 forward_v I I I I #
coedge $-1 $223 $224 $139 $225 forward $85 $-1 #
coedge $-1 $226 $87 $227 $228 reversed $54 $-1 #
coedge $-1 $87 $226 $137 $225 reversed $54 $-1 #
coedge $-1 $229 $222 $87 $141 reversed $135 $-1 #
edge $-1 $230 -70.016785180211798 $231 70.016785180211798 $140 $232 forward 7 unknown #
face $-1 $233 $234 $32 $-1 $235 reversed single #
loop $-1 $-1 $236 $88 #
plane-surface $-1 97.578263360118854 -8.631166519040633 208.5990285392277 0 1 0 0.79863551827123203 0 0.60181501223851219 forward_v I I I I #
coedge $-1 $237 $238 $239 $240 reversed $89 $-1 #
coedge $-1 $147 $91 $241 $242 reversed $57 $-1 #
coedge $-1 $91 $146 $237 $243 reversed $57 $-1 #
coedge $-1 $239 $244 $91 $149 forward $245 $-1 #
edge $-1 $246 -21.227653500152371 $247 -18.786977066882116 $148 $248 forward 7 unknown #
loop $-1 $-1 $155 $92 #
plane-surface $-1 -14.257519680049086 -3.6835702158255543 124.32472367896682 0.79863551827123203 0 0.60181501223851219 0.60181501223851219 0 -0.79863551827123203 forward_v I I I I #
loop $-1 $-1 $249 $59 #
coedge $-1 $153 $153 $154 $250 reversed $93 $-1 #
coedge $-1 $154 $154 $153 $250 forward $95 $-1 #
coedge $-1 $155 $155 $96 $156 forward $150 $-1 #
edge $-1 $251 0 $251 6.2831853071796004 $155 $252 forward 7 unknown #
loop $-1 $-1 $162 $97 #
plane-surface $-1 -14.257519680049086 -3.6835702158255543 124.32472367896682 0.79863551827123203 0 0.60181501223851219 0.60181501223851219 0 -0.79863551827123203 forward_v I I I I #
loop $-1 $-1 $253 $62 #
coedge $-1 $160 $160 $161 $254 reversed $98 $-1 #
coedge $-1 $161 $161 $160 $254 forward $100 $-1 #
coedge $-1 $162 $162 $101 $163 forward $157 $-1 #
edge $-1 $255 0 $255 6.2831853071796004 $162 $256 forward 7 unknown #
loop $-1 $-1 $169 $102 #
plane-surface $-1 -14.257519680049086 -3.6835702158255543 124.32472367896682 0.79863551827123203 0 0.60181501223851219 0.60181501223851219 0 -0.79863551827123203 forward_v I I I I #
loop $-1 $-1 $257 $65 #
coedge $-1 $167 $167 $168 $258 reversed $103 $-1 #
coedge $-1 $168 $168 $167 $258 forward $105 $-1 #
coedge $-1 $169 $169 $106 $170 forward $164 $-1 #
edge $-1 $259 0 $259 6.2831853071796004 $169 $260 forward 7 unknown #
face $-1 $261 $262 $36 $-1 $263 forward single #
loop $-1 $-1 $264 $107 #
plane-surface $-1 -181.85256822037974 1.2640260873895244 96.763245499059735 0 -1 0 0.79863551827123203 0 -0.60181501223851219 forward_v I I I I #
coedge $-1 $265 $266 $267 $268 reversed $108 $-1 #
coedge $-1 $176 $110 $269 $270 reversed $69 $-1 #
coedge $-1 $110 $175 $265 $271 reversed $69 $-1 #
coedge $-1 $267 $272 $110 $178 forward $262 $-1 #
edge $-1 $273 20.909498929978071 $274 23.350175363248354 $177 $275 forward 7 unknown #
loop $-1 $-1 $184 $111 #
plane-surface $-1 -70.016785180211798 -3.6835702158255543 12.488940638798852 -0.79863551827123203 0 0.60181501223851219 0.60181501223851219 0 0.79863551827123203 forward_v I I I I #
loop $-1 $-1 $276 $71 #
coedge $-1 $182 $182 $183 $277 reversed $112 $-1 #
coedge $-1 $183 $183 $182 $277 forward $114 $-1 #
coedge $-1 $184 $184 $115 $185 forward $179 $-1 #
edge $-1 $278 0 $278 6.2831853071796004 $184 $279 forward 7 unknown #
loop $-1 $-1 $191 $116 #
plane-surface $-1 -70.016785180211798 -3.6835702158255543 12.488940638798852 -0.79863551827123203 0 0.60181501223851219 0.60181501223851219 0 0.79863551827123203 forward_v I I I I #
loop $-1 $-1 $280 $74 #
coedge $-1 $189 $189 $190 $281 reversed $117 $-1 #
coedge $-1 $190 $190 $189 $281 forward $119 $-1 #
coedge $-1 $191 $191 $120 $192 forward $186 $-1 #
edge $-1 $282 0 $282 6.2831853071796004 $191 $283 forward 7 unknown #
loop $-1 $-1 $198 $121 #
plane-surface $-1 -70.016785180211798 -3.6835702158255543 12.488940638798852 -0.79863551827123203 0 0.60181501223851219 0.60181501223851219 0 0.79863551827123203 forward_v I I I I #
loop $-1 $-1 $284 $77 #
coedge $-1 $196 $196 $197 $285 reversed $122 $-1 #
coedge $-1 $197 $197 $196 $285 forward $124 $-1 #
coedge $-1 $198 $198 $125 $199 forward $193 $-1 #
edge $-1 $286 0 $286 6.2831853071796004 $198 $287 forward 7 unknown #
face $-1 $288 $289 $30 $-1 $290 reversed single #
loop $-1 $-1 $291 $126 #
plane-surface $-1 -70.016785180211798 0 0 1 0 0 0 0 -1 forward_v I I I I #
coedge $-1 $292 $211 $293 $294 forward $127 $-1 #
coedge $-1 $295 $129 $292 $296 forward $81 $-1 #
coedge $-1 $129 $295 $297 $298 forward $81 $-1 #
coedge $-1 $214 $213 $129 $207 reversed $215 $-1 #
edge $-1 $299 -33.205567746313527 $300 33.205567746313527 $206 $301 forward 7 unknown #
coedge $-1 $131 $130 $302 $303 forward $51 $-1 #
coedge $-1 $304 $305 $130 $210 reversed $289 $-1 #
edge $-1 $217 -70.016785180211798 $306 70.016785180211798 $209 $307 forward 7 unknown #
coedge $-1 $203 $308 $131 $212 reversed $127 $-1 #
edge $-1 $309 -70.016785180211798 $216 70.016785180211798 $211 $310 forward 7 unknown #
coedge $-1 $206 $132 $308 $311 forward $215 $-1 #
coedge $-1 $132 $206 $304 $312 reversed $215 $-1 #
loop $-1 $-1 $213 $288 #
vertex $-1 $133 $313 #
vertex $-1 $133 $314 #
straight-curve $-1 70.016785180211798 0 15.727827752908736 0 1 0 I I #
face $-1 $315 $316 $31 $-1 $317 reversed single #
loop $-1 $-1 $318 $134 #
plane-surface $-1 0 -41.466428437348966 2.4441487724187123 0 0 1 1 0 0 forward_v I I I I #
coedge $-1 $140 $319 $320 $321 forward $135 $-1 #
coedge $-1 $322 $137 $323 $324 reversed $85 $-1 #
coedge $-1 $137 $322 $229 $325 reversed $85 $-1 #
edge $-1 $230 -7.9297608900032568 $326 -2.4441487724187123 $137 $327 forward 7 unknown #
coedge $-1 $139 $138 $328 $329 forward $54 $-1 #
coedge $-1 $320 $330 $138 $228 forward $331 $-1 #
edge $-1 $332 2.4441487724187123 $231 7.9297608900032568 $227 $333 forward 7 unknown #
coedge $-1 $319 $140 $224 $325 forward $135 $-1 #
vertex $-1 $225 $334 #
vertex $-1 $321 $335 #
straight-curve $-1 0 -33.205567746313527 7.9297608900032568 1 0 0 I I #
face $-1 $-1 $245 $32 $-1 $336 forward single #
loop $-1 $-1 $337 $142 #
plane-surface $-1 70.016785180211798 0 0 -1 0 0 0 0 1 forward_v I I I I #
coedge $-1 $338 $339 $340 $341 reversed $143 $-1 #
coedge $-1 $342 $145 $147 $243 forward $89 $-1 #
coedge $-1 $145 $342 $338 $343 forward $89 $-1 #
coedge $-1 $340 $148 $145 $240 forward $245 $-1 #
edge $-1 $247 -3.1058111953023015 $344 6.7893814111278559 $239 $345 forward 7 unknown #
coedge $-1 $346 $347 $146 $242 forward $234 $-1 #
edge $-1 $348 -91.810573630814972 $246 -88.571686516705114 $241 $349 forward 7 unknown #
edge $-1 $247 135.97804435386567 $348 140.0335703604236 $147 $350 forward 7 unknown #
coedge $-1 $148 $340 $346 $351 forward $245 $-1 #
loop $-1 $-1 $340 $233 #
vertex $-1 $242 $352 #
vertex $-1 $149 $353 #
straight-curve $-1 48.789131680059427 1.2640260873895244 15.727827752908738 -1 0 0 I I #
coedge $-1 $249 $249 $-1 $354 reversed $152 $-1 #
edge $-1 $355 0 $355 6.2831853071796004 $153 $356 forward 7 unknown #
vertex $-1 $156 $357 #
ellipse-curve $-1 68.79644696357667 -6.6521279977546008 14.1083841958538 0.79863551827123203 0 0.60181501223851219 0.3009075061192561 0 -0.39931775913561601 1 I I #
coedge $-1 $253 $253 $-1 $358 reversed $159 $-1 #
edge $-1 $359 0 $359 6.2831853071796004 $160 $360 forward 7 unknown #
vertex $-1 $163 $361 #
ellipse-curve $-1 68.79644696357667 -3.6835702158255543 14.1083841958538 0.79863551827123203 0 0.60181501223851219 0.3009075061192561 0 -0.39931775913561601 1 I I #
coedge $-1 $257 $257 $-1 $362 reversed $166 $-1 #
edge $-1 $363 0 $363 6.2831853071796004 $167 $364 forward 7 unknown #
vertex $-1 $170 $365 #
ellipse-curve $-1 68.79644696357667 -0.71501243389650426 14.1083841958538 0.79863551827123203 0 0.60181501223851219 0.3009075061192561 0 -0.39931775913561601 1 I I #
face $-1 $-1 $366 $36 $-1 $367 reversed single #
loop $-1 $-1 $177 $171 #
plane-surface $-1 0 0 15.727827752908736 0 0 1 1 0 0 forward_v I I I I #
coedge $-1 $368 $369 $370 $371 reversed $172 $-1 #
coedge $-1 $372 $174 $176 $271 forward $108 $-1 #
coedge $-1 $174 $372 $368 $373 forward $108 $-1 #
coedge $-1 $370 $177 $174 $268 forward $262 $-1 #
edge $-1 $274 -6.7893814111278559 $374 3.1058111953023015 $267 $375 forward 7 unknown #
coedge $-1 $376 $377 $175 $270 forward $366 $-1 #
edge $-1 $378 -35.892682110731016 $273 -32.65379499662113 $269 $379 forward 7 unknown #
edge $-1 $274 -4.0555260065579661 $378 0 $176 $380 forward 7 unknown #
coedge $-1 $177 $370 $376 $381 forward $262 $-1 #
vertex $-1 $178 $382 #
vertex $-1 $178 $383 #
straight-curve $-1 -90.926284110189869 -8.631166519040633 15.727827752908738 1 0 0 I I #
coedge $-1 $276 $276 $-1 $384 reversed $181 $-1 #
edge $-1 $385 0 $385 6.2831853071796004 $182 $386 forward 7 unknown #
vertex $-1 $185 $387 #
ellipse-curve $-1 -68.796446963576656 -6.6521279977546008 14.108384195853795 -0.79863551827123203 0 0.60181501223851219 0.3009075061192561 0 0.39931775913561601 1 I I #
coedge $-1 $280 $280 $-1 $388 reversed $188 $-1 #
edge $-1 $389 0 $389 6.2831853071796004 $189 $390 forward 7 unknown #
vertex $-1 $192 $391 #
ellipse-curve $-1 -68.796446963576656 -3.6835702158255543 14.108384195853795 -0.79863551827123203 0 0.60181501223851219 0.3009075061192561 0 0.39931775913561601 1 I I #
coedge $-1 $284 $284 $-1 $392 reversed $195 $-1 #
edge $-1 $393 0 $393 6.2831853071796004 $196 $394 forward 7 unknown #
vertex $-1 $199 $395 #
ellipse-curve $-1 -68.796446963576656 -0.71501243389650426 14.108384195853795 -0.79863551827123203 0 0.60181501223851219 0.3009075061192561 0 0.39931775913561601 1 I I #
face $-1 $-1 $215 $30 $-1 $396 reversed single #
loop $-1 $-1 $304 $200 #
plane-surface $-1 0 33.205567746313527 0 0 -1 0 0 0 -1 forward_v I I I I #
coedge $-1 $397 $302 $305 $398 forward $201 $-1 #
coedge $-1 $308 $203 $204 $296 reversed $127 $-1 #
coedge $-1 $302 $397 $203 $294 reversed $201 $-1 #
edge $-1 $309 -15.727827752908736 $399 15.727827752908736 $293 $400 forward 7 unknown #
coedge $-1 $205 $204 $397 $401 forward $81 $-1 #
edge $-1 $300 -70.016785180211798 $399 70.016785180211798 $292 $402 forward 7 unknown #
coedge $-1 $305 $304 $205 $298 reversed $289 $-1 #
edge $-1 $403 -70.016785180211798 $299 70.016785180211798 $297 $404 forward 7 unknown #
vertex $-1 $207 $405 #
vertex $-1 $311 $406 #
straight-curve $-1 70.016785180211798 0 -15.727827752908736 0 -1 0 I I #
coedge $-1 $291 $293 $208 $303 reversed $201 $-1 #
edge $-1 $306 -33.205567746313527 $309 33.205567746313527 $302 $407 forward 7 unknown #
coedge $-1 $297 $209 $214 $312 forward $289 $-1 #
coedge $-1 $209 $297 $291 $398 reversed $289 $-1 #
vertex $-1 $210 $408 #
straight-curve $-1 0 33.205567746313527 15.727827752908736 -1 0 0 I I #
coedge $-1 $211 $292 $213 $311 reversed $127 $-1 #
vertex $-1 $303 $409 #
straight-curve $-1 0 -33.205567746313527 15.727827752908736 1 0 0 I I #
edge $-1 $216 -15.727827752908736 $300 15.727827752908736 $213 $410 forward 7 unknown #
edge $-1 $217 -15.727827752908736 $299 15.727827752908736 $214 $411 forward 7 unknown #
point $-1 70.016785180211798 -33.205567746313527 15.727827752908736 #
point $-1 70.016785180211798 33.205567746313527 15.727827752908736 #
face $-1 $-1 $331 $31 $-1 $412 reversed single #
loop $-1 $-1 $413 $219 #
plane-surface $-1 0 -49.727289128384406 5.1869548312109846 0 1 0 0 0 1 forward_v I I I I #
coedge $-1 $414 $328 $330 $415 forward $220 $-1 #
coedge $-1 $222 $229 $416 $417 forward $135 $-1 #
coedge $-1 $418 $227 $222 $321 reversed $331 $-1 #
edge $-1 $419 -8.2608606910354396 $231 8.2608606910354396 $320 $420 forward 7 unknown #
coedge $-1 $224 $223 $413 $421 reversed $85 $-1 #
coedge $-1 $328 $414 $223 $324 forward $220 $-1 #
edge $-1 $422 -8.2608606910354396 $326 8.2608606910354396 $223 $423 forward 7 unknown #
edge $-1 $230 -8.2608606910354396 $424 8.2608606910354396 $224 $425 forward 7 unknown #
vertex $-1 $225 $426 #
straight-curve $-1 -70.016785180211798 -33.205567746313527 0 0 0 -1 I I #
coedge $-1 $318 $323 $226 $329 reversed $220 $-1 #
edge $-1 $332 -70.016785180211798 $326 70.016785180211798 $328 $427 forward 7 unknown #
coedge $-1 $227 $418 $318 $415 reversed $331 $-1 #
loop $-1 $-1 $227 $315 #
vertex $-1 $228 $428 #
straight-curve $-1 70.016785180211798 -33.205567746313527 0 0 0 1 I I #
point $-1 -70.016785180211798 -33.205567746313527 7.9297608900032568 #
point $-1 70.016785180211798 -33.205567746313527 7.9297608900032568 #
plane-surface $-1 0 0 15.727827752908736 0 0 1 1 0 0 forward_v I I I I #
coedge $-1 $347 $346 $339 $429 forward $234 $-1 #
coedge $-1 $339 $236 $238 $343 reversed $143 $-1 #
coedge $-1 $236 $338 $337 $429 reversed $143 $-1 #
coedge $-1 $244 $239 $236 $341 forward $245 $-1 #
edge $-1 $344 18.786977066882116 $430 21.227653500152371 $340 $431 forward 7 unknown #
coedge $-1 $238 $237 $347 $432 reversed $89 $-1 #
edge $-1 $433 -140.0335703604236 $344 -135.97804435386567 $338 $434 forward 7 unknown #
vertex $-1 $240 $435 #
straight-curve $-1 67.576108746941529 -1.8417851079127772 15.727827752908752 0 -1 0 I I #
coedge $-1 $337 $241 $244 $351 reversed $234 $-1 #
coedge $-1 $241 $337 $342 $432 forward $234 $-1 #
vertex $-1 $242 $436 #
straight-curve $-1 70.016785180211798 1.2640260873895244 104.29951426961385 0 0 1 I I #
straight-curve $-1 -14.257519680049086 1.2640260873895244 124.32472367896682 0.60181501223851219 0 -0.79863551827123203 I I #
edge $-1 $430 -8.631166519040633 $246 1.2640260873895244 $346 $437 forward 7 unknown #
point $-1 70.016785180211798 1.2640260873895244 15.727827752908736 #
point $-1 67.576108746941543 1.2640260873895244 15.727827752908738 #
edge $-1 $438 1 $438 0 $249 $-1 forward 7 unknown #
vertex $-1 $250 $439 #
ellipse-curve $-1 67.783583505980943 -6.6521279977546008 13.345136856881957 0.79863551827123203 0 0.60181501223851219 0.3009075061192561 0 -0.39931775913561601 1 I I #
point $-1 69.097354469695901 -6.6521279977546008 13.709066436718164 #
edge $-1 $440 1 $440 0 $253 $-1 forward 7 unknown #
vertex $-1 $254 $441 #
ellipse-curve $-1 67.783583505980943 -3.6835702158255543 13.345136856881957 0.79863551827123203 0 0.60181501223851219 0.3009075061192561 0 -0.39931775913561601 1 I I #
point $-1 69.097354469695901 -3.6835702158255543 13.709066436718164 #
edge $-1 $442 1 $442 0 $257 $-1 forward 7 unknown #
vertex $-1 $258 $443 #
ellipse-curve $-1 67.783583505980943 -0.71501243389650426 13.345136856881957 0.79863551827123203 0 0.60181501223851219 0.3009075061192561 0 -0.39931775913561601 1 I I #
point $-1 69.097354469695901 -0.71501243389650426 13.709066436718164 #
loop $-1 $-1 $269 $261 #
plane-surface $-1 -70.016785180211798 0 0 1 0 0 0 0 -1 forward_v I I I I #
coedge $-1 $369 $264 $266 $373 reversed $172 $-1 #
coedge $-1 $264 $368 $444 $445 reversed $172 $-1 #
coedge $-1 $272 $267 $264 $371 forward $262 $-1 #
edge $-1 $374 -23.350175363248354 $446 -20.909498929978071 $370 $447 forward 7 unknown #
coedge $-1 $266 $265 $377 $448 reversed $108 $-1 #
edge $-1 $449 0 $374 4.0555260065579661 $368 $450 forward 7 unknown #
vertex $-1 $268 $451 #
straight-curve $-1 -67.5761087469415 -1.8417851079127772 15.727827752908739 0 1 0 I I #
coedge $-1 $444 $269 $272 $381 reversed $366 $-1 #
coedge $-1 $269 $444 $372 $448 forward $366 $-1 #
vertex $-1 $270 $452 #
straight-curve $-1 -70.016785180211798 -8.631166519040633 48.381622749529868 0 0 1 I I #
straight-curve $-1 -70.016785180211798 -8.631166519040633 12.488940638798852 -0.60181501223851219 0 -0.79863551827123203 I I #
edge $-1 $446 -1.2640260873895244 $273 8.631166519040633 $376 $453 forward 7 unknown #
point $-1 -70.016785180211798 -8.631166519040633 15.727827752908736 #
point $-1 -67.576108746941514 -8.631166519040633 15.727827752908736 #
edge $-1 $454 1 $454 0 $276 $-1 forward 7 unknown #
vertex $-1 $277 $455 #
ellipse-curve $-1 -67.783583505980943 -6.6521279977546008 13.345136856881965 -0.79863551827123203 0 0.60181501223851219 0.3009075061192561 0 0.39931775913561601 1 I I #
point $-1 -68.495539457457397 -6.6521279977546008 14.507701954989404 #
edge $-1 $456 1 $456 0 $280 $-1 forward 7 unknown #
vertex $-1 $281 $457 #
ellipse-curve $-1 -67.783583505980943 -3.6835702158255543 13.345136856881965 -0.79863551827123203 0 0.60181501223851219 0.3009075061192561 0 0.39931775913561601 1 I I #
point $-1 -68.495539457457397 -3.6835702158255543 14.507701954989404 #
edge $-1 $458 1 $458 0 $284 $-1 forward 7 unknown #
vertex $-1 $285 $459 #
ellipse-curve $-1 -67.783583505980943 -0.71501243389650426 13.345136856881965 -0.79863551827123203 0 0.60181501223851219 0.3009075061192561 0 0.39931775913561601 1 I I #
point $-1 -68.495539457457397 -0.71501243389650426 14.507701954989404 #
plane-surface $-1 70.016785180211798 0 0 -1 0 0 0 0 1 forward_v I I I I #
coedge $-1 $293 $291 $295 $401 reversed $201 $-1 #
edge $-1 $306 -15.727827752908736 $403 15.727827752908736 $305 $460 forward 7 unknown #
vertex $-1 $401 $461 #
straight-curve $-1 -70.016785180211798 -33.205567746313527 0 0 0 -1 I I #
edge $-1 $399 -33.205567746313527 $403 33.205567746313527 $397 $462 forward 7 unknown #
straight-curve $-1 0 -33.205567746313527 -15.727827752908736 -1 0 0 I I #
vertex $-1 $298 $463 #
straight-curve $-1 0 33.205567746313527 -15.727827752908736 1 0 0 I I #
point $-1 70.016785180211798 33.205567746313527 -15.727827752908736 #
point $-1 70.016785180211798 -33.205567746313527 -15.727827752908736 #
straight-curve $-1 -70.016785180211798 0 15.727827752908736 0 -1 0 I I #
point $-1 -70.016785180211798 33.205567746313527 15.727827752908736 #
point $-1 -70.016785180211798 -33.205567746313527 15.727827752908736 #
straight-curve $-1 70.016785180211798 -33.205567746313527 0 0 0 -1 I I #
straight-curve $-1 70.016785180211798 33.205567746313527 0 0 0 -1 I I #
plane-surface $-1 70.016785180211798 0 0 -1 0 0 0 0 1 forward_v I I I I #
coedge $-1 $464 $416 $322 $421 forward $316 $-1 #
coedge $-1 $323 $318 $464 $465 forward $220 $-1 #
edge $-1 $332 -8.2608606910354396 $466 8.2608606910354396 $330 $467 forward 7 unknown #
coedge $-1 $413 $468 $319 $417 reversed $316 $-1 #
edge $-1 $424 -70.016785180211798 $419 70.016785180211798 $416 $469 forward 7 unknown #
coedge $-1 $330 $320 $468 $470 forward $331 $-1 #
vertex $-1 $321 $471 #
straight-curve $-1 70.016785180211798 -41.466428437348966 7.9297608900032568 0 1 0 I I #
edge $-1 $424 -2.7428060587922722 $422 2.7428060587922722 $322 $472 forward 7 unknown #
vertex $-1 $324 $473 #
straight-curve $-1 -70.016785180211798 -41.466428437348966 2.4441487724187123 0 1 0 I I #
vertex $-1 $325 $474 #
straight-curve $-1 -70.016785180211798 -41.466428437348966 7.9297608900032568 0 -1 0 I I #
point $-1 -70.016785180211798 -33.205567746313527 2.4441487724187123 #
straight-curve $-1 0 -33.205567746313527 2.4441487724187123 -1 0 0 I I #
point $-1 70.016785180211798 -33.205567746313527 2.4441487724187123 #
edge $-1 $430 88.571686516705114 $433 91.810573630814972 $337 $475 forward 7 unknown #
vertex $-1 $351 $476 #
straight-curve $-1 48.789131680059427 -8.631166519040633 15.727827752908738 1 0 0 I I #
edge $-1 $433 -6.7893814111278559 $348 3.1058111953023015 $347 $477 forward 7 unknown #
vertex $-1 $432 $478 #
straight-curve $-1 -14.257519680049086 -8.631166519040633 124.32472367896682 -0.60181501223851219 0 0.79863551827123203 I I #
point $-1 67.576108746941543 -8.631166519040633 15.727827752908738 #
point $-1 70.016785180211798 1.2640260873895244 12.48894063879888 #
straight-curve $-1 70.016785180211798 0 15.727827752908736 0 1 0 I I #
vertex $-1 $354 $479 #
point $-1 68.084491012100202 -6.6521279977546008 12.945819097746341 #
vertex $-1 $358 $480 #
point $-1 68.084491012100202 -3.6835702158255543 12.945819097746341 #
vertex $-1 $362 $481 #
point $-1 68.084491012100202 -0.71501243389650426 12.945819097746341 #
coedge $-1 $377 $376 $369 $445 forward $366 $-1 #
edge $-1 $446 32.65379499662113 $449 35.892682110731016 $444 $482 forward 7 unknown #
vertex $-1 $381 $483 #
straight-curve $-1 -90.926284110189869 1.2640260873895244 15.727827752908738 -1 0 0 I I #
edge $-1 $449 -3.1058111953023015 $378 6.7893814111278559 $377 $484 forward 7 unknown #
vertex $-1 $448 $485 #
straight-curve $-1 -70.016785180211798 1.2640260873895244 12.488940638798852 0.60181501223851219 0 0.79863551827123203 I I #
point $-1 -67.576108746941514 1.2640260873895244 15.727827752908736 #
point $-1 -70.016785180211798 -8.631166519040633 12.488940638798852 #
straight-curve $-1 -70.016785180211798 0 15.727827752908736 0 -1 0 I I #
vertex $-1 $384 $486 #
point $-1 -67.482675999861684 -6.6521279977546008 13.744454616017581 #
vertex $-1 $388 $487 #
point $-1 -67.482675999861684 -3.6835702158255543 13.744454616017581 #
vertex $-1 $392 $488 #
point $-1 -67.482675999861684 -0.71501243389650426 13.744454616017581 #
straight-curve $-1 -70.016785180211798 33.205567746313527 0 0 0 -1 I I #
point $-1 -70.016785180211798 -33.205567746313527 -15.727827752908736 #
straight-curve $-1 -70.016785180211798 0 -15.727827752908736 0 1 0 I I #
point $-1 -70.016785180211798 33.205567746313527 -15.727827752908736 #
coedge $-1 $468 $413 $414 $465 reversed $316 $-1 #
edge $-1 $466 -70.016785180211798 $422 70.016785180211798 $464 $489 forward 7 unknown #
vertex $-1 $470 $490 #
straight-curve $-1 70.016785180211798 -41.466428437348966 2.4441487724187123 0 -1 0 I I #
coedge $-1 $416 $464 $418 $470 reversed $316 $-1 #
straight-curve $-1 0 -49.727289128384406 7.9297608900032568 1 0 0 I I #
edge $-1 $419 -2.7428060587922722 $466 2.7428060587922722 $418 $491 forward 7 unknown #
point $-1 70.016785180211798 -49.727289128384406 7.9297608900032568 #
straight-curve $-1 -70.016785180211798 -49.727289128384406 5.1869548312109846 0 0 -1 I I #
point $-1 -70.016785180211798 -49.727289128384406 2.4441487724187123 #
point $-1 -70.016785180211798 -49.727289128384406 7.9297608900032568 #
straight-curve $-1 70.016785180211798 -8.631166519040633 104.29951426961385 0 0 -1 I I #
point $-1 70.016785180211798 -8.631166519040633 15.727827752908736 #
straight-curve $-1 70.016785180211798 -1.8417851079127772 12.48894063879888 0 1 0 I I #
point $-1 70.016785180211798 -8.631166519040633 12.48894063879888 #
point $-1 67.38426574684533 -6.6521279977546008 13.044229350762702 #
point $-1 67.38426574684533 -3.6835702158255543 13.044229350762702 #
point $-1 67.38426574684533 -0.71501243389650426 13.044229350762702 #
straight-curve $-1 -70.016785180211798 1.2640260873895244 48.381622749529868 0 0 -1 I I #
point $-1 -70.016785180211798 1.2640260873895244 15.727827752908736 #
straight-curve $-1 -70.016785180211798 -1.8417851079127772 12.488940638798855 0 -1 0 I I #
point $-1 -70.016785180211798 1.2640260873895244 12.488940638798852 #
point $-1 -67.38426574684533 -6.6521279977546008 13.044229350762709 #
point $-1 -67.38426574684533 -3.6835702158255543 13.044229350762709 #
point $-1 -67.38426574684533 -0.71501243389650426 13.044229350762709 #
straight-curve $-1 0 -49.727289128384406 2.4441487724187123 -1 0 0 I I #
point $-1 70.016785180211798 -49.727289128384406 2.4441487724187123 #
straight-curve $-1 70.016785180211798 -49.727289128384406 5.1869548312109846 0 0 -1 I I #
End-of-ACIS-data 