500 0 3 0           
7 Unknown 11 ACIS 5.0 NT 24 Thu Mar 25 17:57:45 1999 
-1 9.9999999999999995e-007 1e-010 
body $-1 $3 $-1 $4 #
body $-1 $5 $-1 $6 #
body $-1 $7 $-1 $8 #
lump $-1 $-1 $9 $0 #
transform $-1 1 0 0 0 1 0 0 0 1 69.159825434125793 46.079182132334481 10.209786618157745 1 rotate no_reflect no_shear #
lump $-1 $-1 $10 $1 #
transform $-1 1 0 0 0 1 0 0 0 1 69.159825434125793 46.079182132334481 10.209786618157745 1 rotate no_reflect no_shear #
lump $-1 $-1 $11 $2 #
transform $-1 1 0 0 0 1 0 0 0 1 69.159825434125793 46.079182132334481 10.209786618157745 1 rotate no_reflect no_shear #
shell $-1 $-1 $-1 $12 $-1 $3 #
shell $-1 $-1 $-1 $13 $-1 $5 #
shell $-1 $-1 $-1 $14 $-1 $7 #
face $-1 $15 $16 $9 $-1 $17 forward single #
face $-1 $18 $19 $10 $-1 $20 forward single #
face $-1 $21 $22 $11 $-1 $23 reversed single #
face $-1 $24 $25 $9 $-1 $26 reversed single #
loop $-1 $-1 $27 $12 #
plane-surface $-1 0 0 10.209786618157745 0 0 1 1 0 0 forward_v I I I I #
face $-1 $28 $29 $10 $-1 $30 reversed single #
loop $-1 $-1 $31 $13 #
plane-surface $-1 -65.250050791903007 0 -4.8230001252827588 0 0 1 1 0 0 forward_v I I I I #
face $-1 $32 $33 $11 $-1 $34 reversed single #
loop $-1 $-1 $35 $14 #
plane-surface $-1 61.495128890348965 -43.047155623876847 0 1 0 0 0 0 -1 forward_v I I I I #
face $-1 $36 $37 $9 $-1 $38 reversed single #
loop $-1 $-1 $39 $15 #
plane-surface $-1 0 0 -10.209786618157745 0 0 1 1 0 0 forward_v I I I I #
coedge $-1 $40 $41 $42 $43 forward $16 $-1 #
face $-1 $44 $45 $10 $-1 $46 reversed single #
loop $-1 $-1 $47 $18 #
plane-surface $-1 -61.340276149680221 0 -7.5163933717202518 -1 0 0 0 0 1 forward_v I I I I #
coedge $-1 $48 $49 $50 $51 forward $19 $-1 #
face $-1 $52 $53 $11 $-1 $54 reversed single #
loop $-1 $-1 $55 $21 #
plane-surface $-1 65.327477162237386 -40.015129115419214 0 0 -1 0 0 0 -1 forward_v I I I I #
coedge $-1 $56 $57 $58 $59 forward $22 $-1 #
face $-1 $60 $61 $9 $-1 $62 reversed single #
loop $-1 $-1 $63 $24 #
plane-surface $-1 0 -46.079182132334481 0 0 1 0 0 0 1 forward_v I I I I #
coedge $-1 $64 $65 $66 $67 forward $25 $-1 #
coedge $-1 $68 $27 $69 $70 forward $16 $-1 #
coedge $-1 $27 $68 $71 $72 forward $16 $-1 #
coedge $-1 $73 $74 $27 $43 reversed $75 $-1 #
edge $-1 $76 -46.079182132334481 $77 46.079182132334481 $42 $78 forward 7 unknown #
face $-1 $79 $80 $10 $-1 $81 reversed single #
loop $-1 $-1 $82 $28 #
plane-surface $-1 0 0 -10.209786618157745 0 0 1 1 0 0 forward_v I I I I #
coedge $-1 $83 $50 $84 $85 reversed $29 $-1 #
coedge $-1 $86 $31 $87 $88 reversed $19 $-1 #
coedge $-1 $31 $86 $89 $90 reversed $19 $-1 #
coedge $-1 $47 $91 $31 $51 reversed $29 $-1 #
edge $-1 $92 -46.079182132334481 $93 46.079182132334481 $50 $94 forward 7 unknown #
face $-1 $95 $96 $11 $-1 $97 forward single #
loop $-1 $-1 $98 $32 #
plane-surface $-1 69.159825434125793 0 0 -1 0 0 0 0 1 forward_v I I I I #
coedge $-1 $99 $100 $98 $101 reversed $33 $-1 #
coedge $-1 $102 $35 $103 $104 reversed $22 $-1 #
coedge $-1 $35 $102 $105 $106 reversed $22 $-1 #
coedge $-1 $100 $99 $35 $59 reversed $33 $-1 #
edge $-1 $107 -10.209786618157745 $108 10.209786618157745 $58 $109 forward 7 unknown #
face $-1 $110 $111 $9 $-1 $112 reversed single #
loop $-1 $-1 $113 $36 #
plane-surface $-1 -69.159825434125793 0 0 1 0 0 0 0 -1 forward_v I I I I #
coedge $-1 $114 $71 $115 $116 forward $37 $-1 #
coedge $-1 $117 $39 $114 $118 forward $25 $-1 #
coedge $-1 $39 $117 $119 $120 forward $25 $-1 #
coedge $-1 $74 $73 $39 $67 reversed $75 $-1 #
edge $-1 $121 -46.079182132334481 $122 46.079182132334481 $66 $123 forward 7 unknown #
coedge $-1 $41 $40 $124 $125 forward $16 $-1 #
coedge $-1 $126 $127 $40 $70 reversed $111 $-1 #
edge $-1 $77 -69.159825434125793 $128 69.159825434125793 $69 $129 forward 7 unknown #
coedge $-1 $63 $130 $41 $72 reversed $37 $-1 #
edge $-1 $131 -69.159825434125793 $76 69.159825434125793 $71 $132 forward 7 unknown #
coedge $-1 $66 $42 $130 $133 forward $75 $-1 #
coedge $-1 $42 $66 $126 $134 reversed $75 $-1 #
loop $-1 $-1 $73 $110 #
vertex $-1 $43 $135 #
vertex $-1 $43 $136 #
straight-curve $-1 69.159825434125793 0 10.209786618157745 0 1 0 I I #
face $-1 $137 $138 $10 $-1 $139 reversed single #
loop $-1 $-1 $84 $44 #
plane-surface $-1 0 -46.079182132334481 0 0 1 0 0 0 1 forward_v I I I I #
coedge $-1 $140 $141 $83 $142 forward $45 $-1 #
coedge $-1 $91 $47 $82 $142 reversed $29 $-1 #
coedge $-1 $89 $143 $47 $85 forward $80 $-1 #
edge $-1 $144 -6.4515899322976189 $92 -1.0648034394226329 $84 $145 forward 7 unknown #
coedge $-1 $49 $48 $146 $147 reversed $19 $-1 #
coedge $-1 $148 $149 $48 $88 forward $150 $-1 #
edge $-1 $151 -36.534800038174289 $93 -28.715250753728718 $87 $152 forward 7 unknown #
coedge $-1 $153 $84 $49 $90 forward $80 $-1 #
edge $-1 $92 28.715250753728718 $154 36.534800038174289 $89 $155 forward 7 unknown #
coedge $-1 $50 $83 $148 $156 reversed $29 $-1 #
vertex $-1 $90 $157 #
vertex $-1 $88 $158 #
straight-curve $-1 -61.340276149680221 0 -4.8230001252827588 0 1 0 I I #
face $-1 $159 $160 $11 $-1 $161 reversed single #
loop $-1 $-1 $162 $52 #
plane-surface $-1 0 0 10.209786618157745 0 0 1 1 0 0 forward_v I I I I #
coedge $-1 $163 $164 $55 $101 forward $53 $-1 #
coedge $-1 $58 $55 $165 $166 reversed $33 $-1 #
coedge $-1 $55 $58 $162 $167 reversed $33 $-1 #
edge $-1 $168 -10.209786618157745 $169 10.209786618157745 $98 $170 forward 7 unknown #
coedge $-1 $57 $56 $171 $172 reversed $22 $-1 #
coedge $-1 $165 $173 $56 $104 forward $174 $-1 #
edge $-1 $175 -24.555604320396057 $108 -18.49155130348079 $103 $176 forward 7 unknown #
coedge $-1 $177 $162 $57 $106 forward $96 $-1 #
edge $-1 $107 18.49155130348079 $178 24.555604320396057 $105 $179 forward 7 unknown #
vertex $-1 $106 $180 #
vertex $-1 $104 $181 #
straight-curve $-1 61.495128890348965 -40.015129115419214 0 0 0 -1 I I #
face $-1 $-1 $75 $9 $-1 $182 reversed single #
loop $-1 $-1 $126 $60 #
plane-surface $-1 0 46.079182132334481 0 0 -1 0 0 0 -1 forward_v I I I I #
coedge $-1 $183 $124 $127 $184 forward $61 $-1 #
coedge $-1 $130 $63 $64 $118 reversed $37 $-1 #
coedge $-1 $124 $183 $63 $116 reversed $61 $-1 #
edge $-1 $131 -10.209786618157745 $185 10.209786618157745 $115 $186 forward 7 unknown #
coedge $-1 $65 $64 $183 $187 forward $25 $-1 #
edge $-1 $122 -69.159825434125793 $185 69.159825434125793 $114 $188 forward 7 unknown #
coedge $-1 $127 $126 $65 $120 reversed $111 $-1 #
edge $-1 $189 -69.159825434125793 $121 69.159825434125793 $119 $190 forward 7 unknown #
vertex $-1 $67 $191 #
vertex $-1 $133 $192 #
straight-curve $-1 69.159825434125793 0 -10.209786618157745 0 -1 0 I I #
coedge $-1 $113 $115 $68 $125 reversed $61 $-1 #
edge $-1 $128 -46.079182132334481 $131 46.079182132334481 $124 $193 forward 7 unknown #
coedge $-1 $119 $69 $74 $134 forward $111 $-1 #
coedge $-1 $69 $119 $113 $184 reversed $111 $-1 #
vertex $-1 $70 $194 #
straight-curve $-1 0 46.079182132334481 10.209786618157745 -1 0 0 I I #
coedge $-1 $71 $114 $73 $133 reversed $37 $-1 #
vertex $-1 $125 $195 #
straight-curve $-1 0 -46.079182132334481 10.209786618157745 1 0 0 I I #
edge $-1 $76 -10.209786618157745 $122 10.209786618157745 $73 $196 forward 7 unknown #
edge $-1 $77 -10.209786618157745 $121 10.209786618157745 $74 $197 forward 7 unknown #
point $-1 69.159825434125793 -46.079182132334481 10.209786618157745 #
point $-1 69.159825434125793 46.079182132334481 10.209786618157745 #
face $-1 $-1 $150 $10 $-1 $198 reversed single #
loop $-1 $-1 $146 $79 #
plane-surface $-1 -69.159825434125793 0 0 1 0 0 0 0 -1 forward_v I I I I #
coedge $-1 $199 $82 $143 $200 forward $45 $-1 #
coedge $-1 $82 $199 $201 $202 forward $45 $-1 #
edge $-1 $203 -46.079182132334481 $144 46.079182132334481 $82 $204 forward 7 unknown #
coedge $-1 $84 $153 $140 $200 reversed $80 $-1 #
vertex $-1 $200 $205 #
straight-curve $-1 -61.340276149680221 -46.079182132334481 -3.7581966858601259 0 0 1 I I #
coedge $-1 $206 $207 $86 $147 forward $138 $-1 #
edge $-1 $154 -46.079182132334481 $151 46.079182132334481 $146 $208 forward 7 unknown #
coedge $-1 $201 $87 $91 $156 forward $150 $-1 #
coedge $-1 $87 $201 $206 $209 reversed $150 $-1 #
loop $-1 $-1 $148 $137 #
vertex $-1 $209 $210 #
straight-curve $-1 -32.625025395951504 46.079182132334481 -4.8230001252827588 1 0 0 I I #
coedge $-1 $143 $89 $207 $211 forward $80 $-1 #
vertex $-1 $211 $212 #
straight-curve $-1 -32.625025395951504 -46.079182132334481 -4.8230001252827588 -1 0 0 I I #
edge $-1 $93 1.0648034394226329 $203 6.4515899322976189 $148 $213 forward 7 unknown #
point $-1 -61.340276149680221 -46.079182132334481 -4.8230001252827588 #
point $-1 -61.340276149680221 46.079182132334481 -4.8230001252827588 #
face $-1 $-1 $174 $11 $-1 $214 reversed single #
loop $-1 $-1 $171 $95 #
plane-surface $-1 0 -46.079182132334481 0 0 1 0 0 0 1 forward_v I I I I #
coedge $-1 $105 $215 $100 $167 forward $96 $-1 #
coedge $-1 $216 $98 $215 $217 reversed $53 $-1 #
coedge $-1 $98 $216 $218 $219 reversed $53 $-1 #
coedge $-1 $218 $103 $99 $166 forward $174 $-1 #
edge $-1 $108 28.831390309230272 $168 36.496086853007114 $165 $220 forward 7 unknown #
edge $-1 $169 -36.496086853007114 $107 -28.831390309230272 $162 $221 forward 7 unknown #
vertex $-1 $219 $222 #
vertex $-1 $167 $223 #
straight-curve $-1 69.159825434125793 -40.015129115419214 0 0 0 1 I I #
coedge $-1 $224 $225 $102 $172 forward $160 $-1 #
edge $-1 $178 -10.209786618157745 $175 10.209786618157745 $171 $226 forward 7 unknown #
coedge $-1 $103 $218 $224 $227 forward $174 $-1 #
loop $-1 $-1 $165 $159 #
vertex $-1 $172 $228 #
straight-curve $-1 61.495128890348965 -21.523577811938424 -10.209786618157745 0 1 0 I I #
coedge $-1 $215 $105 $225 $229 forward $96 $-1 #
vertex $-1 $229 $230 #
straight-curve $-1 61.495128890348965 -21.523577811938424 10.209786618157745 0 -1 0 I I #
point $-1 61.495128890348965 -40.015129115419214 10.209786618157745 #
point $-1 61.495128890348965 -40.015129115419214 -10.209786618157745 #
plane-surface $-1 69.159825434125793 0 0 -1 0 0 0 0 1 forward_v I I I I #
coedge $-1 $115 $113 $117 $187 reversed $61 $-1 #
edge $-1 $128 -10.209786618157745 $189 10.209786618157745 $127 $231 forward 7 unknown #
vertex $-1 $187 $232 #
straight-curve $-1 -69.159825434125793 -46.079182132334481 0 0 0 -1 I I #
edge $-1 $185 -46.079182132334481 $189 46.079182132334481 $183 $233 forward 7 unknown #
straight-curve $-1 0 -46.079182132334481 -10.209786618157745 -1 0 0 I I #
vertex $-1 $120 $234 #
straight-curve $-1 0 46.079182132334481 -10.209786618157745 1 0 0 I I #
point $-1 69.159825434125793 46.079182132334481 -10.209786618157745 #
point $-1 69.159825434125793 -46.079182132334481 -10.209786618157745 #
straight-curve $-1 -69.159825434125793 0 10.209786618157745 0 -1 0 I I #
point $-1 -69.159825434125793 46.079182132334481 10.209786618157745 #
point $-1 -69.159825434125793 -46.079182132334481 10.209786618157745 #
straight-curve $-1 69.159825434125793 -46.079182132334481 0 0 0 -1 I I #
straight-curve $-1 69.159825434125793 46.079182132334481 0 0 0 -1 I I #
plane-surface $-1 0 46.079182132334481 0 0 -1 0 0 0 -1 forward_v I I I I #
coedge $-1 $141 $140 $235 $236 forward $45 $-1 #
edge $-1 $144 61.340276149680221 $237 69.159825434125793 $143 $238 forward 7 unknown #
coedge $-1 $149 $148 $141 $202 reversed $150 $-1 #
edge $-1 $239 -69.159825434125793 $203 -61.340276149680221 $201 $240 forward 7 unknown #
vertex $-1 $156 $241 #
straight-curve $-1 -61.340276149680221 0 -10.209786618157745 0 -1 0 I I #
point $-1 -61.340276149680221 -46.079182132334481 -10.209786618157745 #
coedge $-1 $235 $146 $149 $209 forward $138 $-1 #
coedge $-1 $146 $235 $153 $211 reversed $138 $-1 #
straight-curve $-1 -69.159825434125793 0 -4.8230001252827588 0 1 0 I I #
edge $-1 $151 4.8230001252827588 $239 10.209786618157745 $149 $242 forward 7 unknown #
point $-1 -69.159825434125793 46.079182132334481 -4.8230001252827588 #
edge $-1 $154 4.8230001252827588 $237 10.209786618157745 $207 $243 forward 7 unknown #
point $-1 -69.159825434125793 -46.079182132334481 -4.8230001252827588 #
straight-curve $-1 -61.340276149680221 46.079182132334481 -3.7581966858601259 0 0 -1 I I #
plane-surface $-1 0 0 -10.209786618157745 0 0 1 1 0 0 forward_v I I I I #
coedge $-1 $162 $177 $163 $217 forward $96 $-1 #
coedge $-1 $164 $163 $244 $245 forward $53 $-1 #
edge $-1 $246 -46.079182132334481 $169 -40.015129115419214 $163 $247 forward 7 unknown #
coedge $-1 $173 $165 $164 $219 forward $174 $-1 #
edge $-1 $168 40.015129115419214 $248 46.079182132334481 $164 $249 forward 7 unknown #
straight-curve $-1 32.663738581118693 -40.015129115419214 -10.209786618157745 1 0 0 I I #
straight-curve $-1 32.663738581118693 -40.015129115419214 10.209786618157745 -1 0 0 I I #
point $-1 69.159825434125807 -40.015129115419214 -10.209786618157745 #
point $-1 69.159825434125807 -40.015129115419214 10.209786618157745 #
coedge $-1 $244 $171 $173 $227 reversed $160 $-1 #
coedge $-1 $171 $244 $177 $229 reversed $160 $-1 #
straight-curve $-1 61.495128890348965 -46.079182132334481 0 0 0 -1 I I #
edge $-1 $248 -69.159825434125793 $175 -61.495128890348965 $224 $250 forward 7 unknown #
point $-1 61.495128890348965 -46.079182132334481 -10.209786618157745 #
edge $-1 $178 61.495128890348965 $246 69.159825434125793 $225 $251 forward 7 unknown #
point $-1 61.495128890348965 -46.079182132334481 10.209786618157745 #
straight-curve $-1 -69.159825434125793 46.079182132334481 0 0 0 -1 I I #
point $-1 -69.159825434125793 -46.079182132334481 -10.209786618157745 #
straight-curve $-1 -69.159825434125793 0 -10.209786618157745 0 1 0 I I #
point $-1 -69.159825434125793 46.079182132334481 -10.209786618157745 #
coedge $-1 $207 $206 $199 $236 reversed $138 $-1 #
edge $-1 $237 -46.079182132334481 $239 46.079182132334481 $235 $252 forward 7 unknown #
vertex $-1 $236 $253 #
straight-curve $-1 0 -46.079182132334481 -10.209786618157745 -1 0 0 I I #
vertex $-1 $202 $254 #
straight-curve $-1 0 46.079182132334481 -10.209786618157745 1 0 0 I I #
point $-1 -61.340276149680221 46.079182132334481 -10.209786618157745 #
straight-curve $-1 -69.159825434125793 46.079182132334481 0 0 0 -1 I I #
straight-curve $-1 -69.159825434125793 -46.079182132334481 0 0 0 -1 I I #
coedge $-1 $225 $224 $216 $245 reversed $160 $-1 #
edge $-1 $246 -10.209786618157745 $248 10.209786618157745 $216 $255 forward 7 unknown #
vertex $-1 $217 $256 #
straight-curve $-1 69.159825434125793 0 10.209786618157745 0 1 0 I I #
vertex $-1 $245 $257 #
straight-curve $-1 69.159825434125793 0 -10.209786618157745 0 -1 0 I I #
straight-curve $-1 0 -46.079182132334481 -10.209786618157745 -1 0 0 I I #
straight-curve $-1 0 -46.079182132334481 10.209786618157745 1 0 0 I I #
straight-curve $-1 -69.159825434125793 0 -10.209786618157745 0 1 0 I I #
point $-1 -69.159825434125793 -46.079182132334481 -10.209786618157745 #
point $-1 -69.159825434125793 46.079182132334481 -10.209786618157745 #
straight-curve $-1 69.159825434125793 -46.079182132334481 0 0 0 -1 I I #
point $-1 69.159825434125793 -46.079182132334481 10.209786618157745 #
point $-1 69.159825434125793 -46.079182132334481 -10.209786618157745 #
End-of-ACIS-data 