500 0 2 0           
7 Unknown 11 ACIS 5.0 NT 24 Fri Mar 26 18:31:43 1999 
-1 9.9999999999999995e-007 1e-010 
body $-1 $2 $-1 $3 #
body $-1 $4 $-1 $5 #
lump $-1 $-1 $6 $0 #
transform $-1 1 0 0 0 1 0 0 0 1 70.153508102664262 35.049563598959196 9.4551564829444246 1 rotate no_reflect no_shear #
lump $-1 $-1 $7 $1 #
transform $-1 1 0 0 0 1 0 0 0 1 70.153508102664262 35.049563598959196 9.4551564829444246 1 rotate no_reflect no_shear #
shell $-1 $-1 $-1 $8 $-1 $2 #
shell $-1 $-1 $-1 $9 $-1 $4 #
face $-1 $10 $11 $6 $-1 $12 forward single #
face $-1 $13 $14 $7 $-1 $15 forward single #
face $-1 $16 $17 $6 $-1 $18 reversed single #
loop $-1 $-1 $19 $8 #
plane-surface $-1 0 0 9.4551564829444246 0 0 1 1 0 0 forward_v I I I I #
face $-1 $20 $21 $7 $-1 $22 reversed single #
loop $-1 $-1 $23 $9 #
plane-surface $-1 0 -35.049563598959196 0 0 1 0 0 0 1 forward_v I I I I #
face $-1 $24 $25 $6 $-1 $26 reversed single #
loop $-1 $-1 $27 $10 #
plane-surface $-1 0 0 -9.4551564829444246 0 0 1 1 0 0 forward_v I I I I #
coedge $-1 $28 $29 $30 $31 forward $11 $-1 #
face $-1 $32 $33 $7 $-1 $34 reversed single #
loop $-1 $-1 $35 $13 #
plane-surface $-1 0 0 -9.4551564829444246 0 0 1 1 0 0 forward_v I I I I #
coedge $-1 $36 $37 $38 $39 forward $14 $-1 #
face $-1 $40 $41 $6 $-1 $42 reversed single #
loop $-1 $-1 $43 $16 #
plane-surface $-1 0 -35.049563598959196 0 0 1 0 0 0 1 forward_v I I I I #
coedge $-1 $44 $45 $46 $47 forward $17 $-1 #
coedge $-1 $48 $19 $49 $50 forward $11 $-1 #
coedge $-1 $19 $48 $51 $52 forward $11 $-1 #
coedge $-1 $53 $54 $19 $31 reversed $55 $-1 #
edge $-1 $56 -35.049563598959196 $57 35.049563598959196 $30 $58 forward 7 unknown #
face $-1 $59 $60 $7 $-1 $61 forward single #
loop $-1 $-1 $62 $20 #
plane-surface $-1 70.153508102664262 0 0 -1 0 0 0 0 1 forward_v I I I I #
coedge $-1 $63 $64 $65 $66 forward $21 $-1 #
coedge $-1 $65 $23 $62 $67 reversed $14 $-1 #
coedge $-1 $23 $65 $68 $69 reversed $14 $-1 #
coedge $-1 $70 $71 $23 $39 reversed $60 $-1 #
edge $-1 $72 -70.153508102664262 $73 70.153508102664262 $38 $74 forward 7 unknown #
face $-1 $75 $76 $6 $-1 $77 reversed single #
loop $-1 $-1 $78 $24 #
plane-surface $-1 -70.153508102664262 0 0 1 0 0 0 0 -1 forward_v I I I I #
coedge $-1 $51 $79 $53 $80 reversed $25 $-1 #
coedge $-1 $81 $27 $79 $82 forward $17 $-1 #
coedge $-1 $27 $81 $83 $84 forward $17 $-1 #
coedge $-1 $54 $53 $27 $47 reversed $55 $-1 #
edge $-1 $85 -35.049563598959196 $86 35.049563598959196 $46 $87 forward 7 unknown #
coedge $-1 $29 $28 $88 $89 forward $11 $-1 #
coedge $-1 $90 $91 $28 $50 reversed $76 $-1 #
edge $-1 $57 -70.153508102664262 $92 70.153508102664262 $49 $93 forward 7 unknown #
coedge $-1 $94 $43 $29 $52 reversed $25 $-1 #
edge $-1 $95 -70.153508102664262 $56 70.153508102664262 $51 $96 forward 7 unknown #
coedge $-1 $46 $30 $43 $80 forward $55 $-1 #
coedge $-1 $30 $46 $90 $97 reversed $55 $-1 #
loop $-1 $-1 $53 $75 #
vertex $-1 $31 $98 #
vertex $-1 $31 $99 #
straight-curve $-1 70.153508102664262 0 9.4551564829444246 0 1 0 I I #
face $-1 $100 $101 $7 $-1 $102 reversed single #
loop $-1 $-1 $71 $32 #
plane-surface $-1 0 -39.448146140109003 -6.4551564829444246 0 0 1 1 0 0 forward_v I I I I #
coedge $-1 $103 $104 $36 $67 forward $33 $-1 #
coedge $-1 $105 $35 $104 $106 forward $21 $-1 #
coedge $-1 $35 $105 $107 $108 forward $21 $-1 #
coedge $-1 $37 $36 $35 $66 reversed $14 $-1 #
edge $-1 $109 -70.153508102664262 $110 70.153508102664262 $35 $111 forward 7 unknown #
edge $-1 $110 -9.4551564829444246 $73 -6.4551564829444246 $62 $112 forward 7 unknown #
coedge $-1 $107 $113 $37 $69 forward $114 $-1 #
edge $-1 $72 6.4551564829444246 $109 9.4551564829444246 $68 $115 forward 7 unknown #
coedge $-1 $116 $38 $113 $117 forward $60 $-1 #
coedge $-1 $38 $116 $103 $118 forward $60 $-1 #
vertex $-1 $69 $119 #
vertex $-1 $118 $120 #
straight-curve $-1 0 -35.049563598959196 -6.4551564829444246 1 0 0 I I #
face $-1 $-1 $55 $6 $-1 $121 reversed single #
loop $-1 $-1 $90 $40 #
plane-surface $-1 0 35.049563598959196 0 0 -1 0 0 0 -1 forward_v I I I I #
coedge $-1 $122 $88 $91 $123 forward $41 $-1 #
coedge $-1 $43 $94 $44 $82 reversed $25 $-1 #
edge $-1 $56 -9.4551564829444246 $86 9.4551564829444246 $53 $124 forward 7 unknown #
coedge $-1 $45 $44 $122 $125 forward $17 $-1 #
edge $-1 $86 -70.153508102664262 $126 70.153508102664262 $79 $127 forward 7 unknown #
coedge $-1 $91 $90 $45 $84 reversed $76 $-1 #
edge $-1 $128 -70.153508102664262 $85 70.153508102664262 $83 $129 forward 7 unknown #
vertex $-1 $47 $130 #
vertex $-1 $80 $131 #
straight-curve $-1 70.153508102664262 0 -9.4551564829444246 0 -1 0 I I #
coedge $-1 $78 $132 $48 $89 reversed $41 $-1 #
edge $-1 $92 -35.049563598959196 $95 35.049563598959196 $88 $133 forward 7 unknown #
coedge $-1 $83 $49 $54 $97 forward $76 $-1 #
coedge $-1 $49 $83 $78 $123 reversed $76 $-1 #
vertex $-1 $50 $134 #
straight-curve $-1 0 35.049563598959196 9.4551564829444246 -1 0 0 I I #
coedge $-1 $79 $51 $132 $135 forward $25 $-1 #
vertex $-1 $89 $136 #
straight-curve $-1 0 -35.049563598959196 9.4551564829444246 1 0 0 I I #
edge $-1 $57 -9.4551564829444246 $85 9.4551564829444246 $54 $137 forward 7 unknown #
point $-1 70.153508102664262 -35.049563598959196 9.4551564829444246 #
point $-1 70.153508102664262 35.049563598959196 9.4551564829444246 #
face $-1 $-1 $114 $7 $-1 $138 reversed single #
loop $-1 $-1 $139 $59 #
plane-surface $-1 0 -43.84672868125881 -7.9551564829444246 0 1 0 0 0 1 forward_v I I I I #
coedge $-1 $140 $62 $71 $118 reversed $33 $-1 #
coedge $-1 $62 $140 $63 $106 reversed $33 $-1 #
coedge $-1 $64 $63 $141 $142 forward $21 $-1 #
edge $-1 $110 35.049563598959196 $143 43.84672868125881 $104 $144 forward 7 unknown #
coedge $-1 $145 $68 $64 $108 reversed $114 $-1 #
edge $-1 $146 -43.84672868125881 $109 -35.049563598959196 $107 $147 forward 7 unknown #
vertex $-1 $69 $148 #
vertex $-1 $106 $149 #
straight-curve $-1 0 -35.049563598959196 -9.4551564829444246 1 0 0 I I #
straight-curve $-1 70.153508102664262 -35.049563598959196 0 0 0 1 I I #
coedge $-1 $68 $145 $70 $117 reversed $114 $-1 #
loop $-1 $-1 $68 $100 #
straight-curve $-1 -70.153508102664262 -35.049563598959196 0 0 0 -1 I I #
coedge $-1 $71 $70 $150 $151 forward $60 $-1 #
edge $-1 $72 -4.398582541149807 $152 4.398582541149807 $113 $153 forward 7 unknown #
edge $-1 $154 -4.398582541149807 $73 4.398582541149807 $103 $155 forward 7 unknown #
point $-1 -70.153508102664262 -35.049563598959196 -6.4551564829444246 #
point $-1 70.153508102664262 -35.049563598959196 -6.4551564829444246 #
plane-surface $-1 70.153508102664262 0 0 -1 0 0 0 0 1 forward_v I I I I #
coedge $-1 $132 $78 $81 $125 reversed $41 $-1 #
edge $-1 $92 -9.4551564829444246 $128 9.4551564829444246 $91 $156 forward 7 unknown #
straight-curve $-1 70.153508102664262 -35.049563598959196 0 0 0 -1 I I #
edge $-1 $126 -35.049563598959196 $128 35.049563598959196 $122 $157 forward 7 unknown #
vertex $-1 $125 $158 #
straight-curve $-1 0 -35.049563598959196 -9.4551564829444246 -1 0 0 I I #
vertex $-1 $84 $159 #
straight-curve $-1 0 35.049563598959196 -9.4551564829444246 1 0 0 I I #
point $-1 70.153508102664262 35.049563598959196 -9.4551564829444246 #
point $-1 70.153508102664262 -35.049563598959196 -9.4551564829444246 #
coedge $-1 $88 $122 $94 $135 reversed $41 $-1 #
straight-curve $-1 -70.153508102664262 0 9.4551564829444246 0 -1 0 I I #
point $-1 -70.153508102664262 35.049563598959196 9.4551564829444246 #
edge $-1 $95 -9.4551564829444246 $126 9.4551564829444246 $132 $160 forward 7 unknown #
point $-1 -70.153508102664262 -35.049563598959196 9.4551564829444246 #
straight-curve $-1 70.153508102664262 35.049563598959196 0 0 0 -1 I I #
plane-surface $-1 -70.153508102664262 0 0 1 0 0 0 0 -1 forward_v I I I I #
coedge $-1 $141 $150 $145 $161 forward $101 $-1 #
coedge $-1 $104 $103 $162 $163 forward $33 $-1 #
coedge $-1 $162 $139 $105 $142 reversed $101 $-1 #
edge $-1 $143 -70.153508102664262 $146 70.153508102664262 $141 $164 forward 7 unknown #
vertex $-1 $163 $165 #
straight-curve $-1 70.153508102664262 0 -9.4551564829444246 0 -1 0 I I #
coedge $-1 $113 $107 $139 $161 reversed $114 $-1 #
vertex $-1 $108 $166 #
straight-curve $-1 -70.153508102664262 0 -9.4551564829444246 0 1 0 I I #
point $-1 -70.153508102664262 -35.049563598959196 -9.4551564829444246 #
point $-1 70.153508102664262 -35.049563598959196 -9.4551564829444246 #
coedge $-1 $139 $162 $116 $151 reversed $101 $-1 #
edge $-1 $152 -70.153508102664262 $154 70.153508102664262 $150 $167 forward 7 unknown #
vertex $-1 $117 $168 #
straight-curve $-1 -70.153508102664262 -39.448146140109003 -6.4551564829444246 0 -1 0 I I #
vertex $-1 $118 $169 #
straight-curve $-1 70.153508102664262 -39.448146140109003 -6.4551564829444246 0 1 0 I I #
straight-curve $-1 -70.153508102664262 35.049563598959196 0 0 0 -1 I I #
straight-curve $-1 -70.153508102664262 0 -9.4551564829444246 0 1 0 I I #
point $-1 -70.153508102664262 -35.049563598959196 -9.4551564829444246 #
point $-1 -70.153508102664262 35.049563598959196 -9.4551564829444246 #
straight-curve $-1 -70.153508102664262 -35.049563598959196 0 0 0 -1 I I #
edge $-1 $152 -1.5 $146 1.5 $145 $170 forward 7 unknown #
coedge $-1 $150 $141 $140 $163 reversed $101 $-1 #
edge $-1 $154 -1.5 $143 1.5 $140 $171 forward 7 unknown #
straight-curve $-1 0 -43.84672868125881 -9.4551564829444246 -1 0 0 I I #
point $-1 70.153508102664262 -43.84672868125881 -9.4551564829444246 #
point $-1 -70.153508102664262 -43.84672868125881 -9.4551564829444246 #
straight-curve $-1 0 -43.84672868125881 -6.4551564829444246 1 0 0 I I #
point $-1 -70.153508102664262 -43.84672868125881 -6.4551564829444246 #
point $-1 70.153508102664262 -43.84672868125881 -6.4551564829444246 #
straight-curve $-1 -70.153508102664262 -43.84672868125881 -7.9551564829444246 0 0 -1 I I #
straight-curve $-1 70.153508102664262 -43.84672868125881 -7.9551564829444246 0 0 -1 I I #
End-of-ACIS-data 