500 0 9 0           
7 Unknown 11 ACIS 5.0 NT 24 Thu Mar 25 17:48:17 1999 
-1 9.9999999999999995e-007 1e-010 
body $-1 $9 $-1 $10 #
body $-1 $11 $-1 $12 #
body $-1 $13 $-1 $14 #
body $-1 $15 $-1 $16 #
body $-1 $17 $-1 $18 #
body $-1 $19 $-1 $20 #
body $-1 $21 $-1 $22 #
body $-1 $23 $-1 $24 #
body $-1 $25 $-1 $26 #
lump $-1 $-1 $27 $0 #
transform $-1 1 0 0 0 1 0 0 0 1 77.886898403881958 38.289300990607977 10.606768550424166 1 rotate no_reflect no_shear #
lump $-1 $-1 $28 $1 #
transform $-1 1 0 0 0 1 0 0 0 1 77.886898403881958 38.289300990607977 10.606768550424166 1 rotate no_reflect no_shear #
lump $-1 $-1 $29 $2 #
transform $-1 1 0 0 0 1 0 0 0 1 77.886898403881958 38.289300990607977 10.606768550424166 1 rotate no_reflect no_shear #
lump $-1 $-1 $30 $3 #
transform $-1 1 0 0 0 1 0 0 0 1 77.886898403881958 38.289300990607977 10.606768550424166 1 rotate no_reflect no_shear #
lump $-1 $-1 $31 $4 #
transform $-1 1 0 0 0 1 0 0 0 1 77.886898403881958 38.289300990607977 10.606768550424166 1 rotate no_reflect no_shear #
lump $-1 $-1 $32 $5 #
transform $-1 1 0 0 0 1 0 0 0 1 77.886898403881958 38.289300990607977 10.606768550424166 1 rotate no_reflect no_shear #
lump $-1 $-1 $33 $6 #
transform $-1 1 0 0 0 1 0 0 0 1 77.886898403881958 38.289300990607977 10.606768550424166 1 rotate no_reflect no_shear #
lump $-1 $-1 $34 $7 #
transform $-1 1 0 0 0 1 0 0 0 1 77.886898403881958 38.289300990607977 10.606768550424166 1 rotate no_reflect no_shear #
lump $-1 $-1 $35 $8 #
transform $-1 1 0 0 0 1 0 0 0 1 77.886898403881958 38.289300990607977 10.606768550424166 1 rotate no_reflect no_shear #
shell $-1 $-1 $-1 $36 $-1 $9 #
shell $-1 $-1 $-1 $37 $-1 $11 #
shell $-1 $-1 $-1 $38 $-1 $13 #
shell $-1 $-1 $-1 $39 $-1 $15 #
shell $-1 $-1 $-1 $40 $-1 $17 #
shell $-1 $-1 $-1 $41 $-1 $19 #
shell $-1 $-1 $-1 $42 $-1 $21 #
shell $-1 $-1 $-1 $43 $-1 $23 #
shell $-1 $-1 $-1 $44 $-1 $25 #
face $-1 $45 $46 $27 $-1 $47 forward single #
face $-1 $48 $49 $28 $-1 $50 forward single #
face $-1 $51 $52 $29 $-1 $53 reversed single #
face $-1 $54 $55 $30 $-1 $56 forward single #
face $-1 $57 $58 $31 $-1 $59 forward single #
face $-1 $60 $61 $32 $-1 $62 reversed single #
face $-1 $63 $64 $33 $-1 $65 forward single #
face $-1 $66 $67 $34 $-1 $68 forward single #
face $-1 $69 $70 $35 $-1 $71 forward single #
face $-1 $72 $73 $27 $-1 $74 reversed single #
loop $-1 $-1 $75 $36 #
plane-surface $-1 0 0 10.606768550424166 0 0 1 1 0 0 forward_v I I I I #
face $-1 $76 $77 $28 $-1 $78 reversed single #
loop $-1 $-1 $79 $37 #
plane-surface $-1 0 -38.289300990607977 0 0 1 0 0 0 1 forward_v I I I I #
face $-1 $80 $81 $29 $-1 $82 reversed single #
loop $-1 $-1 $83 $38 #
plane-surface $-1 20.869733174230504 -9.6807178964736309 214.72126840909092 0 -1 0 -0.50000000669873634 0 -0.8660253999169214 forward_v I I I I #
face $-1 $84 $85 $30 $-1 $86 forward single #
loop $-1 $87 $88 $39 #
cone-surface $-1 69.591216178977774 -23.010847278983011 4.9146895108666833 -0.50000000669873634 0 -0.8660253999169214 1.2990380998753821 0 -0.75000001004810457 1 I I 0 1 1.5 forward I I I I #
face $-1 $89 $90 $31 $-1 $91 forward single #
loop $-1 $92 $93 $40 #
cone-surface $-1 69.591216178977774 -15.012769649477384 4.9146895108666833 -0.50000000669873634 0 -0.8660253999169214 1.2990380998753821 0 -0.75000001004810457 1 I I 0 1 1.5 forward I I I I #
face $-1 $94 $95 $32 $-1 $96 reversed single #
loop $-1 $-1 $97 $41 #
plane-surface $-1 -178.01636613643313 -12.587408621664512 121.67131958605117 0 1 0 -0.64278761758704617 0 0.76604443648966558 forward_v I I I I #
face $-1 $98 $99 $33 $-1 $100 forward single #
loop $-1 $101 $102 $42 #
cone-surface $-1 -72.051368812316468 -8.6250224699867069 5.3890691288069137 0.64278761758704617 0 -0.76604443648966558 0.76604443648966558 0 0.64278761758704617 1 I I 0 1 1 forward I I I I #
face $-1 $103 $104 $34 $-1 $105 forward single #
loop $-1 $106 $107 $43 #
cone-surface $-1 -72.051368812316468 -2.6814432424699888 5.3890691288069137 0.64278761758704617 0 -0.76604443648966558 0.76604443648966558 0 0.64278761758704617 1 I I 0 1 1 forward I I I I #
face $-1 $108 $109 $35 $-1 $110 forward single #
loop $-1 $111 $112 $44 #
cone-surface $-1 -72.051368812316468 3.2621359850467258 5.3890691288069137 0.64278761758704617 0 -0.76604443648966558 0.76604443648966558 0 0.64278761758704617 1 I I 0 1 1 forward I I I I #
face $-1 $113 $114 $27 $-1 $115 reversed single #
loop $-1 $-1 $116 $45 #
plane-surface $-1 0 0 -10.606768550424166 0 0 1 1 0 0 forward_v I I I I #
coedge $-1 $117 $118 $119 $120 forward $46 $-1 #
face $-1 $121 $122 $28 $-1 $123 reversed single #
loop $-1 $-1 $124 $48 #
plane-surface $-1 0 0 -10.606768550424166 0 0 1 1 0 0 forward_v I I I I #
coedge $-1 $125 $126 $127 $128 forward $49 $-1 #
face $-1 $129 $130 $29 $-1 $131 reversed single #
loop $-1 $-1 $132 $51 #
plane-surface $-1 -57.017166273139054 -19.011808464230196 79.817203732069913 0.50000000669873634 0 0.8660253999169214 0.8660253999169214 0 -0.50000000669873634 forward_v I I I I #
coedge $-1 $133 $134 $135 $136 reversed $52 $-1 #
face $-1 $-1 $137 $30 $-1 $138 forward single #
loop $-1 $139 $140 $54 #
cone-surface $-1 68.434572283968748 -23.010847278983011 2.9113235542334035 -0.50000000669873634 0 -0.8660253999169214 0.64951904993769105 0 -0.37500000502405229 1 I I -0.70710678118654757 0.70710678118654757 0.75 forward I I I I #
loop $-1 $-1 $141 $39 #
coedge $-1 $88 $88 $142 $143 reversed $55 $-1 #
face $-1 $-1 $144 $31 $-1 $145 forward single #
loop $-1 $146 $147 $57 #
cone-surface $-1 68.434572283968748 -15.012769649477384 2.9113235542334035 -0.50000000669873634 0 -0.8660253999169214 0.64951904993769105 0 -0.37500000502405229 1 I I -0.70710678118654757 0.70710678118654757 0.75 forward I I I I #
loop $-1 $-1 $148 $40 #
coedge $-1 $93 $93 $149 $150 reversed $58 $-1 #
face $-1 $151 $152 $32 $-1 $153 reversed single #
loop $-1 $-1 $154 $60 #
plane-surface $-1 -77.886898403881943 -2.6814432424699888 2.3416691905920004 -0.64278761758704617 0 0.76604443648966558 0.76604443648966558 0 0.64278761758704617 forward_v I I I I #
coedge $-1 $155 $156 $157 $158 reversed $61 $-1 #
face $-1 $-1 $159 $33 $-1 $160 forward single #
loop $-1 $161 $162 $63 #
cone-surface $-1 -70.819426236417954 -8.6250224699867069 3.9208971688609005 0.64278761758704617 0 -0.76604443648966558 0.38302221824483279 0 0.32139380879352308 1 I I -0.70710678118654746 0.70710678118654746 0.5 forward I I I I #
loop $-1 $-1 $163 $42 #
coedge $-1 $102 $102 $164 $165 reversed $64 $-1 #
face $-1 $-1 $166 $34 $-1 $167 forward single #
loop $-1 $168 $169 $66 #
cone-surface $-1 -70.819426236417954 -2.6814432424699888 3.9208971688609005 0.64278761758704617 0 -0.76604443648966558 0.38302221824483279 0 0.32139380879352308 1 I I -0.70710678118654746 0.70710678118654746 0.5 forward I I I I #
loop $-1 $-1 $170 $43 #
coedge $-1 $107 $107 $171 $172 reversed $67 $-1 #
face $-1 $-1 $173 $35 $-1 $174 forward single #
loop $-1 $175 $176 $69 #
cone-surface $-1 -70.819426236417954 3.2621359850467258 3.9208971688609005 0.64278761758704617 0 -0.76604443648966558 0.38302221824483279 0 0.32139380879352308 1 I I -0.70710678118654746 0.70710678118654746 0.5 forward I I I I #
loop $-1 $-1 $177 $44 #
coedge $-1 $112 $112 $178 $179 reversed $70 $-1 #
face $-1 $180 $181 $27 $-1 $182 reversed single #
loop $-1 $-1 $183 $72 #
plane-surface $-1 0 -38.289300990607977 0 0 1 0 0 0 1 forward_v I I I I #
coedge $-1 $184 $185 $186 $187 forward $73 $-1 #
coedge $-1 $188 $75 $189 $190 forward $46 $-1 #
coedge $-1 $75 $188 $191 $192 forward $46 $-1 #
coedge $-1 $193 $194 $75 $120 reversed $195 $-1 #
edge $-1 $196 -38.289300990607977 $197 38.289300990607977 $119 $198 forward 7 unknown #
face $-1 $199 $200 $28 $-1 $201 reversed single #
loop $-1 $-1 $202 $76 #
plane-surface $-1 -64.215724786793615 -48.235702949229186 0 0 1 0 0 0 1 forward_v I I I I #
coedge $-1 $203 $204 $126 $205 forward $77 $-1 #
coedge $-1 $206 $79 $207 $208 reversed $49 $-1 #
coedge $-1 $79 $206 $124 $205 reversed $49 $-1 #
coedge $-1 $209 $210 $79 $128 reversed $200 $-1 #
edge $-1 $211 -10.606768550424166 $212 10.606768550424166 $127 $213 forward 7 unknown #
face $-1 $214 $215 $29 $-1 $216 forward single #
loop $-1 $-1 $217 $80 #
plane-surface $-1 20.869733174230504 -28.342899031986761 214.72126840909092 0 1 0 0.50000000669873634 0 0.8660253999169214 forward_v I I I I #
coedge $-1 $218 $219 $220 $221 reversed $81 $-1 #
coedge $-1 $134 $83 $222 $223 reversed $52 $-1 #
coedge $-1 $83 $133 $218 $224 reversed $52 $-1 #
coedge $-1 $220 $225 $83 $136 forward $215 $-1 #
edge $-1 $226 -67.452031816766706 $227 -52.423955146928279 $135 $228 forward 7 unknown #
loop $-1 $-1 $142 $84 #
plane-surface $-1 -57.017166273139054 -19.011808464230196 79.817203732069913 0.50000000669873634 0 0.8660253999169214 0.8660253999169214 0 -0.50000000669873634 forward_v I I I I #
loop $-1 $-1 $229 $54 #
coedge $-1 $140 $140 $141 $230 reversed $85 $-1 #
coedge $-1 $141 $141 $140 $230 forward $87 $-1 #
coedge $-1 $142 $142 $88 $143 forward $137 $-1 #
edge $-1 $231 0 $231 6.2831853071796004 $142 $232 forward 7 unknown #
loop $-1 $-1 $149 $89 #
plane-surface $-1 -57.017166273139054 -19.011808464230196 79.817203732069913 0.50000000669873634 0 0.8660253999169214 0.8660253999169214 0 -0.50000000669873634 forward_v I I I I #
loop $-1 $-1 $233 $57 #
coedge $-1 $147 $147 $148 $234 reversed $90 $-1 #
coedge $-1 $148 $148 $147 $234 forward $92 $-1 #
coedge $-1 $149 $149 $93 $150 forward $144 $-1 #
edge $-1 $235 0 $235 6.2831853071796004 $149 $236 forward 7 unknown #
face $-1 $237 $238 $32 $-1 $239 reversed single #
loop $-1 $-1 $240 $94 #
plane-surface $-1 -178.01636613643313 7.2245221367245342 121.67131958605117 0 -1 0 0.64278761758704617 0 -0.76604443648966558 forward_v I I I I #
coedge $-1 $241 $242 $243 $244 reversed $95 $-1 #
coedge $-1 $156 $97 $245 $246 reversed $61 $-1 #
coedge $-1 $97 $155 $241 $247 reversed $61 $-1 #
coedge $-1 $243 $248 $97 $158 forward $249 $-1 #
edge $-1 $250 11.12128466433461 $251 20.971246313255662 $157 $252 forward 7 unknown #
loop $-1 $-1 $164 $98 #
plane-surface $-1 -77.886898403881943 -2.6814432424699888 2.3416691905920004 -0.64278761758704617 0 0.76604443648966558 0.76604443648966558 0 0.64278761758704617 forward_v I I I I #
loop $-1 $-1 $253 $63 #
coedge $-1 $162 $162 $163 $254 reversed $99 $-1 #
coedge $-1 $163 $163 $162 $254 forward $101 $-1 #
coedge $-1 $164 $164 $102 $165 forward $159 $-1 #
edge $-1 $255 0 $255 6.2831853071796004 $164 $256 forward 7 unknown #
loop $-1 $-1 $171 $103 #
plane-surface $-1 -77.886898403881943 -2.6814432424699888 2.3416691905920004 -0.64278761758704617 0 0.76604443648966558 0.76604443648966558 0 0.64278761758704617 forward_v I I I I #
loop $-1 $-1 $257 $66 #
coedge $-1 $169 $169 $170 $258 reversed $104 $-1 #
coedge $-1 $170 $170 $169 $258 forward $106 $-1 #
coedge $-1 $171 $171 $107 $172 forward $166 $-1 #
edge $-1 $259 0 $259 6.2831853071796004 $171 $260 forward 7 unknown #
loop $-1 $-1 $178 $108 #
plane-surface $-1 -77.886898403881943 -2.6814432424699888 2.3416691905920004 -0.64278761758704617 0 0.76604443648966558 0.76604443648966558 0 0.64278761758704617 forward_v I I I I #
loop $-1 $-1 $261 $69 #
coedge $-1 $176 $176 $177 $262 reversed $109 $-1 #
coedge $-1 $177 $177 $176 $262 forward $111 $-1 #
coedge $-1 $178 $178 $112 $179 forward $173 $-1 #
edge $-1 $263 0 $263 6.2831853071796004 $178 $264 forward 7 unknown #
face $-1 $265 $266 $27 $-1 $267 reversed single #
loop $-1 $-1 $268 $113 #
plane-surface $-1 -77.886898403881958 0 0 1 0 0 0 0 -1 forward_v I I I I #
coedge $-1 $269 $191 $270 $271 forward $114 $-1 #
coedge $-1 $272 $116 $269 $273 forward $73 $-1 #
coedge $-1 $116 $272 $274 $275 forward $73 $-1 #
coedge $-1 $194 $193 $116 $187 reversed $195 $-1 #
edge $-1 $276 -38.289300990607977 $277 38.289300990607977 $186 $278 forward 7 unknown #
coedge $-1 $118 $117 $279 $280 forward $46 $-1 #
coedge $-1 $281 $282 $117 $190 reversed $266 $-1 #
edge $-1 $197 -77.886898403881958 $283 77.886898403881958 $189 $284 forward 7 unknown #
coedge $-1 $183 $285 $118 $192 reversed $114 $-1 #
edge $-1 $286 -77.886898403881958 $196 77.886898403881958 $191 $287 forward 7 unknown #
coedge $-1 $186 $119 $285 $288 forward $195 $-1 #
coedge $-1 $119 $186 $281 $289 reversed $195 $-1 #
loop $-1 $-1 $193 $265 #
vertex $-1 $120 $290 #
vertex $-1 $120 $291 #
straight-curve $-1 77.886898403881958 0 10.606768550424166 0 1 0 I I #
face $-1 $292 $293 $28 $-1 $294 reversed single #
loop $-1 $-1 $127 $121 #
plane-surface $-1 -66.595425674834729 -43.262501969918581 0 1 0 0 0 0 -1 forward_v I I I I #
coedge $-1 $295 $296 $297 $298 forward $122 $-1 #
coedge $-1 $299 $124 $300 $301 forward $77 $-1 #
coedge $-1 $124 $299 $209 $302 forward $77 $-1 #
edge $-1 $211 -66.595425674834729 $303 -61.836023898752501 $124 $304 forward 7 unknown #
coedge $-1 $126 $125 $305 $306 forward $49 $-1 #
coedge $-1 $307 $308 $125 $208 forward $309 $-1 #
edge $-1 $310 61.836023898752501 $212 66.595425674834729 $207 $311 forward 7 unknown #
coedge $-1 $297 $127 $204 $302 reversed $200 $-1 #
coedge $-1 $127 $297 $307 $312 reversed $200 $-1 #
vertex $-1 $205 $313 #
vertex $-1 $312 $314 #
straight-curve $-1 -66.595425674834729 -38.289300990607977 0 0 0 1 I I #
face $-1 $-1 $315 $29 $-1 $316 reversed single #
loop $-1 $-1 $135 $129 #
plane-surface $-1 0 0 10.606768550424166 0 0 1 1 0 0 forward_v I I I I #
coedge $-1 $317 $318 $319 $320 reversed $130 $-1 #
coedge $-1 $321 $132 $134 $224 forward $81 $-1 #
coedge $-1 $132 $321 $317 $322 forward $81 $-1 #
coedge $-1 $319 $135 $132 $221 forward $215 $-1 #
edge $-1 $227 0.17481366435853296 $323 18.836994799871661 $220 $324 forward 7 unknown #
coedge $-1 $325 $326 $133 $223 forward $315 $-1 #
edge $-1 $327 -105.43032991984512 $226 -96.753865654121299 $222 $328 forward 7 unknown #
edge $-1 $227 138.4208685088017 $327 155.77379680776394 $134 $329 forward 7 unknown #
coedge $-1 $135 $319 $325 $330 forward $215 $-1 #
vertex $-1 $136 $331 #
vertex $-1 $136 $332 #
straight-curve $-1 10.434866587115252 -9.6807178964736309 10.606768550424164 -1 0 0 I I #
coedge $-1 $229 $229 $-1 $333 reversed $139 $-1 #
edge $-1 $334 0 $334 6.2831853071796004 $140 $335 forward 7 unknown #
vertex $-1 $143 $336 #
ellipse-curve $-1 70.372860068962737 -23.010847278983011 6.2685364175622578 0.50000000669873634 0 0.8660253999169214 1.2990380998753821 0 -0.75000001004810457 1 I I #
coedge $-1 $233 $233 $-1 $337 reversed $146 $-1 #
edge $-1 $338 0 $338 6.2831853071796004 $147 $339 forward 7 unknown #
vertex $-1 $150 $340 #
ellipse-curve $-1 70.372860068962737 -15.012769649477384 6.2685364175622578 0.50000000669873634 0 0.8660253999169214 1.2990380998753821 0 -0.75000001004810457 1 I I #
face $-1 $-1 $249 $32 $-1 $341 forward single #
loop $-1 $-1 $342 $151 #
plane-surface $-1 -77.886898403881958 0 0 1 0 0 0 0 -1 forward_v I I I I #
coedge $-1 $343 $344 $345 $346 reversed $152 $-1 #
coedge $-1 $347 $154 $156 $247 forward $95 $-1 #
coedge $-1 $154 $347 $343 $348 forward $95 $-1 #
coedge $-1 $345 $157 $154 $244 forward $249 $-1 #
edge $-1 $251 -11.246687000429517 $349 8.5652437579595286 $243 $350 forward 7 unknown #
coedge $-1 $351 $352 $155 $246 forward $238 $-1 #
edge $-1 $353 -58.493990602433598 $250 -50.228891242601421 $245 $354 forward 7 unknown #
edge $-1 $251 -12.858211847419271 $353 1.8593432412625586e-014 $156 $355 forward 7 unknown #
coedge $-1 $157 $345 $351 $356 forward $249 $-1 #
loop $-1 $-1 $345 $237 #
vertex $-1 $246 $357 #
vertex $-1 $158 $358 #
straight-curve $-1 -89.008183068216567 -12.587408621664512 10.606768550424164 1 0 0 I I #
coedge $-1 $253 $253 $-1 $359 reversed $161 $-1 #
edge $-1 $360 0 $360 6.2831853071796004 $162 $361 forward 7 unknown #
vertex $-1 $165 $362 #
ellipse-curve $-1 -72.961917579421439 -8.6250224699867069 6.4742188705080714 -0.64278761758704617 0 0.76604443648966558 0.76604443648966558 0 0.64278761758704617 1 I I #
coedge $-1 $257 $257 $-1 $363 reversed $168 $-1 #
edge $-1 $364 0 $364 6.2831853071796004 $169 $365 forward 7 unknown #
vertex $-1 $172 $366 #
ellipse-curve $-1 -72.961917579421439 -2.6814432424699888 6.4742188705080714 -0.64278761758704617 0 0.76604443648966558 0.76604443648966558 0 0.64278761758704617 1 I I #
coedge $-1 $261 $261 $-1 $367 reversed $175 $-1 #
edge $-1 $368 0 $368 6.2831853071796004 $176 $369 forward 7 unknown #
vertex $-1 $179 $370 #
ellipse-curve $-1 -72.961917579421439 3.2621359850467258 6.4742188705080714 -0.64278761758704617 0 0.76604443648966558 0.76604443648966558 0 0.64278761758704617 1 I I #
face $-1 $-1 $195 $27 $-1 $371 reversed single #
loop $-1 $-1 $281 $180 #
plane-surface $-1 0 38.289300990607977 0 0 -1 0 0 0 -1 forward_v I I I I #
coedge $-1 $372 $279 $282 $373 forward $181 $-1 #
coedge $-1 $285 $183 $184 $273 reversed $114 $-1 #
coedge $-1 $279 $372 $183 $271 reversed $181 $-1 #
edge $-1 $286 -10.606768550424166 $374 10.606768550424166 $270 $375 forward 7 unknown #
coedge $-1 $185 $184 $372 $376 forward $73 $-1 #
edge $-1 $277 -77.886898403881958 $374 77.886898403881958 $269 $377 forward 7 unknown #
coedge $-1 $282 $281 $185 $275 reversed $266 $-1 #
edge $-1 $378 -77.886898403881958 $276 77.886898403881958 $274 $379 forward 7 unknown #
vertex $-1 $187 $380 #
vertex $-1 $288 $381 #
straight-curve $-1 77.886898403881958 0 -10.606768550424166 0 -1 0 I I #
coedge $-1 $268 $270 $188 $280 reversed $181 $-1 #
edge $-1 $283 -38.289300990607977 $286 38.289300990607977 $279 $382 forward 7 unknown #
coedge $-1 $274 $189 $194 $289 forward $266 $-1 #
coedge $-1 $189 $274 $268 $373 reversed $266 $-1 #
vertex $-1 $190 $383 #
straight-curve $-1 0 38.289300990607977 10.606768550424166 -1 0 0 I I #
coedge $-1 $191 $269 $193 $288 reversed $114 $-1 #
vertex $-1 $280 $384 #
straight-curve $-1 0 -38.289300990607977 10.606768550424166 1 0 0 I I #
edge $-1 $196 -10.606768550424166 $277 10.606768550424166 $193 $385 forward 7 unknown #
edge $-1 $197 -10.606768550424166 $276 10.606768550424166 $194 $386 forward 7 unknown #
point $-1 77.886898403881958 -38.289300990607977 10.606768550424166 #
point $-1 77.886898403881958 38.289300990607977 10.606768550424166 #
face $-1 $-1 $309 $28 $-1 $387 forward single #
loop $-1 $-1 $388 $199 #
plane-surface $-1 -61.836023898752501 -43.262501969918581 0 -1 0 0 0 0 1 forward_v I I I I #
coedge $-1 $389 $202 $299 $390 reversed $122 $-1 #
coedge $-1 $202 $389 $391 $392 reversed $122 $-1 #
coedge $-1 $210 $209 $202 $298 reversed $200 $-1 #
edge $-1 $393 -10.606768550424166 $394 10.606768550424166 $297 $395 forward 7 unknown #
coedge $-1 $204 $203 $295 $390 forward $77 $-1 #
coedge $-1 $305 $388 $203 $301 reversed $293 $-1 #
edge $-1 $303 -4.9732009793106045 $396 4.9732009793106045 $300 $397 forward 7 unknown #
edge $-1 $394 -4.9732009793106045 $211 4.9732009793106045 $209 $398 forward 7 unknown #
vertex $-1 $301 $399 #
straight-curve $-1 0 -38.289300990607977 -10.606768550424166 1 0 0 I I #
coedge $-1 $400 $300 $206 $306 reversed $293 $-1 #
edge $-1 $310 -10.606768550424166 $303 10.606768550424166 $305 $401 forward 7 unknown #
coedge $-1 $391 $207 $210 $312 forward $309 $-1 #
coedge $-1 $207 $391 $400 $402 forward $309 $-1 #
loop $-1 $-1 $207 $292 #
vertex $-1 $208 $403 #
straight-curve $-1 0 -38.289300990607977 10.606768550424166 -1 0 0 I I #
edge $-1 $212 -4.9732009793106045 $393 4.9732009793106045 $210 $404 forward 7 unknown #
point $-1 -66.595425674834729 -38.289300990607977 -10.606768550424166 #
point $-1 -66.595425674834729 -38.289300990607977 10.606768550424166 #
loop $-1 $-1 $222 $214 #
plane-surface $-1 77.886898403881958 0 0 -1 0 0 0 0 1 forward_v I I I I #
coedge $-1 $318 $217 $219 $322 reversed $130 $-1 #
coedge $-1 $217 $317 $405 $406 reversed $130 $-1 #
coedge $-1 $225 $220 $217 $320 forward $215 $-1 #
edge $-1 $323 52.423955146928279 $407 67.452031816766706 $319 $408 forward 7 unknown #
coedge $-1 $219 $218 $326 $409 reversed $81 $-1 #
edge $-1 $410 -155.77379680776394 $323 -138.4208685088017 $317 $411 forward 7 unknown #
vertex $-1 $221 $412 #
straight-curve $-1 62.858821734043516 -9.5059042321150979 10.606768550424164 0 -1 0 I I #
coedge $-1 $405 $222 $225 $330 reversed $315 $-1 #
coedge $-1 $222 $405 $321 $409 forward $315 $-1 #
vertex $-1 $223 $413 #
straight-curve $-1 77.886898403881958 -9.6807178964736309 107.36063420454546 0 0 1 I I #
straight-curve $-1 -57.017166273139054 -9.6807178964736309 79.817203732069913 0.8660253999169214 0 -0.50000000669873634 I I #
edge $-1 $407 -28.342899031986761 $226 -9.6807178964736309 $325 $414 forward 7 unknown #
point $-1 77.886898403881958 -9.6807178964736309 10.606768550424166 #
point $-1 62.858821734043531 -9.6807178964736309 10.606768550424164 #
edge $-1 $415 1 $415 0 $229 $-1 forward 7 unknown #
vertex $-1 $230 $416 #
ellipse-curve $-1 68.809572288992797 -23.010847278983011 3.5608426041710945 0.50000000669873634 0 0.8660253999169214 1.2990380998753821 0 -0.75000001004810457 1 I I #
point $-1 71.67189816883814 -23.010847278983011 5.5185364075141674 #
edge $-1 $417 1 $417 0 $233 $-1 forward 7 unknown #
vertex $-1 $234 $418 #
ellipse-curve $-1 68.809572288992797 -15.012769649477384 3.5608426041710945 0.50000000669873634 0 0.8660253999169214 1.2990380998753821 0 -0.75000001004810457 1 I I #
point $-1 71.67189816883814 -15.012769649477384 5.5185364075141674 #
plane-surface $-1 0 0 10.606768550424166 0 0 1 1 0 0 forward_v I I I I #
coedge $-1 $352 $351 $344 $419 forward $238 $-1 #
coedge $-1 $344 $240 $242 $348 reversed $152 $-1 #
coedge $-1 $240 $343 $342 $419 reversed $152 $-1 #
coedge $-1 $248 $243 $240 $346 forward $249 $-1 #
edge $-1 $349 -20.971246313255662 $420 -11.12128466433461 $345 $421 forward 7 unknown #
coedge $-1 $242 $241 $352 $422 reversed $95 $-1 #
edge $-1 $423 -1.8593432412625586e-014 $349 12.858211847419271 $343 $424 forward 7 unknown #
vertex $-1 $244 $425 #
straight-curve $-1 -68.036936754960891 -1.3407216212349944 10.606768550424166 0 1 0 I I #
coedge $-1 $342 $245 $248 $356 reversed $238 $-1 #
coedge $-1 $245 $342 $347 $422 forward $238 $-1 #
vertex $-1 $246 $426 #
straight-curve $-1 -77.886898403881958 -12.587408621664512 60.835659793025584 0 0 1 I I #
straight-curve $-1 -77.886898403881943 -12.587408621664512 2.3416691905920004 -0.76604443648966558 0 -0.64278761758704617 I I #
edge $-1 $420 -7.2245221367245342 $250 12.587408621664512 $351 $427 forward 7 unknown #
point $-1 -77.886898403881958 -12.587408621664512 10.606768550424166 #
point $-1 -68.036936754960905 -12.587408621664512 10.606768550424166 #
edge $-1 $428 1 $428 0 $253 $-1 forward 7 unknown #
vertex $-1 $254 $429 #
ellipse-curve $-1 -71.14082004521147 -8.6250224699867069 4.3039193871057329 -0.64278761758704617 0 0.76604443648966558 0.76604443648966558 0 0.64278761758704617 1 I I #
point $-1 -72.195873142931788 -8.6250224699867069 7.1170064880951394 #
edge $-1 $430 1 $430 0 $257 $-1 forward 7 unknown #
vertex $-1 $258 $431 #
ellipse-curve $-1 -71.14082004521147 -2.6814432424699888 4.3039193871057329 -0.64278761758704617 0 0.76604443648966558 0.76604443648966558 0 0.64278761758704617 1 I I #
point $-1 -72.195873142931788 -2.6814432424699888 7.1170064880951394 #
edge $-1 $432 1 $432 0 $261 $-1 forward 7 unknown #
vertex $-1 $262 $433 #
ellipse-curve $-1 -71.14082004521147 3.2621359850467258 4.3039193871057329 -0.64278761758704617 0 0.76604443648966558 0.76604443648966558 0 0.64278761758704617 1 I I #
point $-1 -72.195873142931788 3.2621359850467258 7.1170064880951394 #
plane-surface $-1 77.886898403881958 0 0 -1 0 0 0 0 1 forward_v I I I I #
coedge $-1 $270 $268 $272 $376 reversed $181 $-1 #
edge $-1 $283 -10.606768550424166 $378 10.606768550424166 $282 $434 forward 7 unknown #
vertex $-1 $376 $435 #
straight-curve $-1 -77.886898403881958 -38.289300990607977 0 0 0 -1 I I #
edge $-1 $374 -38.289300990607977 $378 38.289300990607977 $372 $436 forward 7 unknown #
straight-curve $-1 0 -38.289300990607977 -10.606768550424166 -1 0 0 I I #
vertex $-1 $275 $437 #
straight-curve $-1 0 38.289300990607977 -10.606768550424166 1 0 0 I I #
point $-1 77.886898403881958 38.289300990607977 -10.606768550424166 #
point $-1 77.886898403881958 -38.289300990607977 -10.606768550424166 #
straight-curve $-1 -77.886898403881958 0 10.606768550424166 0 -1 0 I I #
point $-1 -77.886898403881958 38.289300990607977 10.606768550424166 #
point $-1 -77.886898403881958 -38.289300990607977 10.606768550424166 #
straight-curve $-1 77.886898403881958 -38.289300990607977 0 0 0 -1 I I #
straight-curve $-1 77.886898403881958 38.289300990607977 0 0 0 -1 I I #
plane-surface $-1 0 0 10.606768550424166 0 0 1 1 0 0 forward_v I I I I #
coedge $-1 $300 $400 $389 $438 forward $293 $-1 #
coedge $-1 $296 $295 $388 $438 reversed $122 $-1 #
edge $-1 $396 -2.3797008880411141 $394 2.3797008880411141 $295 $439 forward 7 unknown #
coedge $-1 $308 $307 $296 $392 forward $309 $-1 #
edge $-1 $393 -2.3797008880411141 $440 2.3797008880411141 $296 $441 forward 7 unknown #
vertex $-1 $312 $442 #
vertex $-1 $302 $443 #
straight-curve $-1 -66.595425674834729 -48.235702949229186 0 0 0 -1 I I #
vertex $-1 $438 $444 #
straight-curve $-1 -61.836023898752501 -43.262501969918581 -10.606768550424166 0 -1 0 I I #
straight-curve $-1 -66.595425674834729 -43.262501969918581 -10.606768550424166 0 1 0 I I #
point $-1 -61.836023898752501 -38.289300990607977 -10.606768550424166 #
coedge $-1 $388 $305 $308 $402 reversed $293 $-1 #
straight-curve $-1 -61.836023898752501 -38.289300990607977 0 0 0 -1 I I #
edge $-1 $440 -4.9732009793106045 $310 4.9732009793106045 $400 $445 forward 7 unknown #
point $-1 -61.836023898752501 -38.289300990607977 10.606768550424166 #
straight-curve $-1 -66.595425674834729 -43.262501969918581 10.606768550424166 0 -1 0 I I #
coedge $-1 $326 $325 $318 $406 forward $315 $-1 #
edge $-1 $407 96.753865654121299 $410 105.43032991984512 $405 $446 forward 7 unknown #
vertex $-1 $330 $447 #
straight-curve $-1 10.434866587115252 -28.342899031986761 10.606768550424164 1 0 0 I I #
edge $-1 $410 -18.836994799871661 $327 -0.17481366435853296 $326 $448 forward 7 unknown #
vertex $-1 $409 $449 #
straight-curve $-1 -57.017166273139054 -28.342899031986761 79.817203732069913 -0.8660253999169214 0 0.50000000669873634 I I #
point $-1 62.858821734043531 -28.342899031986761 10.606768550424164 #
point $-1 77.886898403881958 -9.6807178964736309 1.9303042847003411 #
straight-curve $-1 77.886898403881958 0 10.606768550424166 0 1 0 I I #
vertex $-1 $333 $450 #
point $-1 70.108610388868186 -23.010847278983011 2.81084259412299 #
vertex $-1 $337 $451 #
point $-1 70.108610388868186 -15.012769649477384 2.81084259412299 #
edge $-1 $420 50.228891242601421 $423 58.493990602433598 $342 $452 forward 7 unknown #
vertex $-1 $356 $453 #
straight-curve $-1 -89.008183068216567 7.2245221367245342 10.606768550424164 -1 0 0 I I #
edge $-1 $423 -8.5652437579595286 $353 11.246687000429517 $352 $454 forward 7 unknown #
vertex $-1 $422 $455 #
straight-curve $-1 -77.886898403881943 7.2245221367245342 2.3416691905920004 0.76604443648966558 0 0.64278761758704617 I I #
point $-1 -68.036936754960905 7.2245221367245342 10.606768550424166 #
point $-1 -77.886898403881958 -12.587408621664512 2.3416691905919884 #
straight-curve $-1 -77.886898403881958 0 10.606768550424166 0 -1 0 I I #
vertex $-1 $359 $456 #
point $-1 -70.374775608721805 -8.6250224699867069 4.9467070046927795 #
vertex $-1 $363 $457 #
point $-1 -70.374775608721805 -2.6814432424699888 4.9467070046927795 #
vertex $-1 $367 $458 #
point $-1 -70.374775608721805 3.2621359850467258 4.9467070046927795 #
straight-curve $-1 -77.886898403881958 38.289300990607977 0 0 0 -1 I I #
point $-1 -77.886898403881958 -38.289300990607977 -10.606768550424166 #
straight-curve $-1 -77.886898403881958 0 -10.606768550424166 0 1 0 I I #
point $-1 -77.886898403881958 38.289300990607977 -10.606768550424166 #
edge $-1 $440 -10.606768550424166 $396 10.606768550424166 $388 $459 forward 7 unknown #
straight-curve $-1 -64.215724786793615 -48.235702949229186 -10.606768550424166 -1 0 0 I I #
vertex $-1 $402 $460 #
straight-curve $-1 -64.215724786793615 -48.235702949229186 10.606768550424166 1 0 0 I I #
point $-1 -66.595425674834729 -48.235702949229186 10.606768550424166 #
point $-1 -66.595425674834729 -48.235702949229186 -10.606768550424166 #
point $-1 -61.836023898752501 -48.235702949229186 -10.606768550424166 #
straight-curve $-1 -61.836023898752501 -43.262501969918581 10.606768550424166 0 1 0 I I #
straight-curve $-1 77.886898403881958 -28.342899031986761 107.36063420454546 0 0 -1 I I #
point $-1 77.886898403881958 -28.342899031986761 10.606768550424166 #
straight-curve $-1 77.886898403881958 -9.5059042321150979 1.9303042847003624 0 1 0 I I #
point $-1 77.886898403881958 -28.342899031986761 1.9303042847003411 #
point $-1 68.0595722789447 -23.010847278983011 2.2618045042957124 #
point $-1 68.0595722789447 -15.012769649477384 2.2618045042957124 #
straight-curve $-1 -77.886898403881958 7.2245221367245342 60.835659793025584 0 0 -1 I I #
point $-1 -77.886898403881958 7.2245221367245342 10.606768550424166 #
straight-curve $-1 -77.886898403881958 -1.3407216212349944 2.3416691905919977 0 -1 0 I I #
point $-1 -77.886898403881958 7.2245221367245342 2.3416691905919884 #
point $-1 -70.498032427624437 -8.6250224699867069 3.5378749506160676 #
point $-1 -70.498032427624437 -2.6814432424699888 3.5378749506160676 #
point $-1 -70.498032427624437 3.2621359850467258 3.5378749506160676 #
straight-curve $-1 -61.836023898752501 -48.235702949229186 0 0 0 -1 I I #
point $-1 -61.836023898752501 -48.235702949229186 10.606768550424166 #
End-of-ACIS-data 