500 0 3 0           
7 Unknown 11 ACIS 5.0 NT 24 Thu Mar 25 22:56:39 1999 
-1 9.9999999999999995e-007 1e-010 
body $-1 $3 $-1 $4 #
body $-1 $5 $-1 $6 #
body $-1 $7 $-1 $8 #
lump $-1 $-1 $9 $0 #
transform $-1 1 0 0 0 1 0 0 0 1 53.241370891445662 34.245281316815962 12.597083934933861 1 rotate no_reflect no_shear #
lump $-1 $-1 $10 $1 #
transform $-1 1 0 0 0 1 0 0 0 1 53.241370891445662 34.245281316815962 12.597083934933861 1 rotate no_reflect no_shear #
lump $-1 $-1 $11 $2 #
transform $-1 1 0 0 0 1 0 0 0 1 53.241370891445662 34.245281316815962 12.597083934933861 1 rotate no_reflect no_shear #
shell $-1 $-1 $-1 $12 $-1 $3 #
shell $-1 $-1 $-1 $13 $-1 $5 #
shell $-1 $-1 $-1 $14 $-1 $7 #
face $-1 $15 $16 $9 $-1 $17 forward single #
face $-1 $18 $19 $10 $-1 $20 forward single #
face $-1 $21 $22 $11 $-1 $23 reversed single #
face $-1 $24 $25 $9 $-1 $26 reversed single #
loop $-1 $-1 $27 $12 #
plane-surface $-1 0 0 12.597083934933861 0 0 1 1 0 0 forward_v I I I I #
face $-1 $28 $29 $10 $-1 $30 forward single #
loop $-1 $-1 $31 $13 #
plane-surface $-1 -133.60491712597184 22.513448042674725 70.363317499278011 0 1 0 -0.75470958851134928 0 0.65605901945558964 forward_v I I I I #
face $-1 $32 $33 $11 $-1 $34 reversed single #
loop $-1 $35 $36 $14 #
cone-surface $-1 -44.935684546801589 28.379364679745343 3.899688692012552 0.75470958851134928 0 -0.65605901945558964 1.6401475486389741 0 1.8867739712783731 1 I I 0 1 2.5 forward I I I I #
face $-1 $37 $38 $9 $-1 $39 reversed single #
loop $-1 $-1 $40 $15 #
plane-surface $-1 0 0 -12.597083934933861 0 0 1 1 0 0 forward_v I I I I #
coedge $-1 $41 $42 $43 $44 forward $16 $-1 #
face $-1 $45 $46 $10 $-1 $47 forward single #
loop $-1 $-1 $48 $18 #
plane-surface $-1 -53.241370891445669 28.379364679745343 0.50435433625158055 -0.75470958851134928 0 0.65605901945558964 0.65605901945558964 0 0.75470958851134928 forward_v I I I I #
coedge $-1 $49 $50 $51 $52 reversed $19 $-1 #
face $-1 $53 $54 $11 $-1 $55 forward single #
loop $-1 $56 $57 $21 #
cone-surface $-1 -40.942635814471195 28.379364679745343 0.42858447411288836 0.75470958851134928 0 -0.65605901945558964 0.82007377431948703 0 0.94338698563918655 1 I I -0.70710678118654746 0.70710678118654746 1.25 forward I I I I #
loop $-1 $-1 $58 $14 #
coedge $-1 $36 $36 $59 $60 reversed $22 $-1 #
face $-1 $61 $62 $9 $-1 $63 reversed single #
loop $-1 $-1 $64 $24 #
plane-surface $-1 0 -34.245281316815962 0 0 1 0 0 0 1 forward_v I I I I #
coedge $-1 $65 $66 $67 $68 forward $25 $-1 #
coedge $-1 $69 $27 $70 $71 forward $16 $-1 #
coedge $-1 $27 $69 $72 $73 forward $16 $-1 #
coedge $-1 $74 $75 $27 $44 reversed $76 $-1 #
edge $-1 $77 -34.245281316815962 $78 34.245281316815962 $43 $79 forward 7 unknown #
face $-1 $80 $81 $10 $-1 $82 reversed single #
loop $-1 $-1 $83 $28 #
plane-surface $-1 0 0 12.597083934933861 0 0 1 1 0 0 forward_v I I I I #
coedge $-1 $84 $85 $83 $86 reversed $29 $-1 #
coedge $-1 $50 $31 $85 $87 forward $19 $-1 #
coedge $-1 $31 $49 $88 $89 reversed $19 $-1 #
coedge $-1 $90 $83 $31 $52 forward $46 $-1 #
edge $-1 $91 -24.073136867445996 $92 -13.561087671540257 $51 $93 forward 7 unknown #
face $-1 $94 $95 $11 $-1 $96 forward single #
loop $-1 $-1 $97 $32 #
plane-surface $-1 -133.60491712597184 22.513448042674725 70.363317499278011 0 1 0 -0.75470958851134928 0 0.65605901945558964 forward_v I I I I #
loop $-1 $-1 $98 $21 #
coedge $-1 $57 $57 $58 $99 forward $33 $-1 #
coedge $-1 $58 $58 $57 $99 reversed $35 $-1 #
coedge $-1 $59 $59 $36 $60 forward $95 $-1 #
edge $-1 $100 0 $100 6.2831853071796004 $59 $101 forward 7 unknown #
face $-1 $102 $103 $9 $-1 $104 reversed single #
loop $-1 $-1 $105 $37 #
plane-surface $-1 -53.241370891445662 0 0 1 0 0 0 0 -1 forward_v I I I I #
coedge $-1 $106 $72 $107 $108 forward $38 $-1 #
coedge $-1 $109 $40 $106 $110 forward $25 $-1 #
coedge $-1 $40 $109 $111 $112 forward $25 $-1 #
coedge $-1 $75 $74 $40 $68 reversed $76 $-1 #
edge $-1 $113 -34.245281316815962 $114 34.245281316815962 $67 $115 forward 7 unknown #
coedge $-1 $42 $41 $116 $117 forward $16 $-1 #
coedge $-1 $118 $119 $41 $71 reversed $103 $-1 #
edge $-1 $78 -53.241370891445662 $120 53.241370891445662 $70 $121 forward 7 unknown #
coedge $-1 $64 $122 $42 $73 reversed $38 $-1 #
edge $-1 $123 -53.241370891445662 $77 53.241370891445662 $72 $124 forward 7 unknown #
coedge $-1 $67 $43 $122 $125 forward $76 $-1 #
coedge $-1 $43 $67 $118 $126 reversed $76 $-1 #
loop $-1 $-1 $74 $102 #
vertex $-1 $44 $127 #
vertex $-1 $44 $128 #
straight-curve $-1 53.241370891445662 0 12.597083934933861 0 1 0 I I #
face $-1 $129 $130 $10 $-1 $131 reversed single #
loop $-1 $-1 $88 $45 #
plane-surface $-1 -53.241370891445662 0 0 1 0 0 0 0 -1 forward_v I I I I #
coedge $-1 $51 $132 $48 $86 forward $46 $-1 #
coedge $-1 $133 $48 $134 $135 reversed $29 $-1 #
coedge $-1 $48 $133 $49 $87 reversed $29 $-1 #
edge $-1 $136 -20.055598976943291 $91 -8.3237657028020529 $83 $137 forward 7 unknown #
edge $-1 $91 -16.023023667335369 $138 -1.086200982436365e-014 $49 $139 forward 7 unknown #
coedge $-1 $140 $141 $50 $89 forward $81 $-1 #
edge $-1 $92 22.584574814705142 $138 34.677304413387418 $88 $142 forward 7 unknown #
coedge $-1 $143 $51 $141 $144 forward $46 $-1 #
vertex $-1 $86 $145 #
vertex $-1 $144 $146 #
straight-curve $-1 -66.802458562985919 22.513448042674725 12.597083934933863 -1 0 0 I I #
face $-1 $147 $148 $11 $-1 $149 forward single #
loop $-1 $150 $59 $53 #
plane-surface $-1 -53.241370891445669 28.379364679745343 0.50435433625158055 -0.75470958851134928 0 0.65605901945558964 0.65605901945558964 0 0.75470958851134928 forward_v I I I I #
coedge $-1 $151 $152 $153 $154 reversed $54 $-1 #
coedge $-1 $98 $98 $-1 $155 forward $56 $-1 #
edge $-1 $156 0 $156 6.2831853071796004 $57 $157 forward 7 unknown #
vertex $-1 $60 $158 #
ellipse-curve $-1 -47.985346293492796 28.379364679745343 6.5507191355927255 0.75470958851134928 0 -0.65605901945558964 1.6401475486389741 0 1.8867739712783731 1 I I #
face $-1 $-1 $76 $9 $-1 $159 reversed single #
loop $-1 $-1 $118 $61 #
plane-surface $-1 0 34.245281316815962 0 0 -1 0 0 0 -1 forward_v I I I I #
coedge $-1 $160 $116 $119 $161 forward $62 $-1 #
coedge $-1 $122 $64 $65 $110 reversed $38 $-1 #
coedge $-1 $116 $160 $64 $108 reversed $62 $-1 #
edge $-1 $123 -12.597083934933861 $162 12.597083934933861 $107 $163 forward 7 unknown #
coedge $-1 $66 $65 $160 $164 forward $25 $-1 #
edge $-1 $114 -53.241370891445662 $162 53.241370891445662 $106 $165 forward 7 unknown #
coedge $-1 $119 $118 $66 $112 reversed $103 $-1 #
edge $-1 $166 -53.241370891445662 $113 53.241370891445662 $111 $167 forward 7 unknown #
vertex $-1 $68 $168 #
vertex $-1 $125 $169 #
straight-curve $-1 53.241370891445662 0 -12.597083934933861 0 -1 0 I I #
coedge $-1 $105 $107 $69 $117 reversed $62 $-1 #
edge $-1 $120 -34.245281316815962 $123 34.245281316815962 $116 $170 forward 7 unknown #
coedge $-1 $111 $70 $75 $126 forward $103 $-1 #
coedge $-1 $70 $111 $105 $161 reversed $103 $-1 #
vertex $-1 $71 $171 #
straight-curve $-1 0 34.245281316815962 12.597083934933861 -1 0 0 I I #
coedge $-1 $72 $106 $74 $125 reversed $38 $-1 #
vertex $-1 $117 $172 #
straight-curve $-1 0 -34.245281316815962 12.597083934933861 1 0 0 I I #
edge $-1 $77 -12.597083934933861 $114 12.597083934933861 $74 $173 forward 7 unknown #
edge $-1 $78 -12.597083934933861 $113 12.597083934933861 $75 $174 forward 7 unknown #
point $-1 53.241370891445662 -34.245281316815962 12.597083934933861 #
point $-1 53.241370891445662 34.245281316815962 12.597083934933861 #
face $-1 $175 $176 $10 $-1 $177 reversed single #
loop $-1 $-1 $178 $80 #
plane-surface $-1 0 0 -12.597083934933861 0 0 1 1 0 0 forward_v I I I I #
coedge $-1 $83 $179 $180 $181 forward $46 $-1 #
coedge $-1 $85 $84 $140 $182 reversed $29 $-1 #
coedge $-1 $180 $183 $84 $135 forward $184 $-1 #
edge $-1 $185 -17.27442026396843 $136 -1.2513965966330778 $134 $186 forward 7 unknown #
vertex $-1 $135 $187 #
straight-curve $-1 -42.729321695539923 14.189682339872672 12.597083934933861 0 -1 0 I I #
vertex $-1 $182 $188 #
straight-curve $-1 -53.241370891445669 22.513448042674725 0.50435433625158055 -0.65605901945558964 0 -0.75470958851134928 I I #
coedge $-1 $189 $88 $133 $182 forward $81 $-1 #
coedge $-1 $88 $190 $90 $144 reversed $81 $-1 #
straight-curve $-1 -53.241370891445662 22.513448042674725 35.181658749639006 0 0 -1 I I #
coedge $-1 $179 $90 $191 $192 forward $46 $-1 #
edge $-1 $92 -22.513448042674725 $193 34.245281316815962 $141 $194 forward 7 unknown #
point $-1 -42.729321695539923 22.513448042674725 12.597083934933861 #
point $-1 -53.241370891445662 22.513448042674725 12.597083934933861 #
face $-1 $195 $196 $11 $-1 $197 reversed single #
loop $-1 $-1 $198 $94 #
plane-surface $-1 0 0 12.597083934933861 0 0 1 1 0 0 forward_v I I I I #
loop $-1 $-1 $199 $53 #
coedge $-1 $152 $97 $200 $201 forward $54 $-1 #
coedge $-1 $97 $151 $202 $203 reversed $54 $-1 #
coedge $-1 $204 $198 $97 $154 forward $148 $-1 #
edge $-1 $205 -24.073136867445996 $206 -13.561087671540257 $153 $207 forward 7 unknown #
edge $-1 $208 1 $208 0 $98 $-1 forward 7 unknown #
vertex $-1 $99 $209 #
ellipse-curve $-1 -41.886022800110382 28.379364679745343 1.2486582484323754 -0.75470958851134928 0 0.65605901945558964 1.6401475486389741 0 1.8867739712783731 1 I I #
point $-1 -46.345198744853825 28.379364679745343 8.4374931068711021 #
plane-surface $-1 53.241370891445662 0 0 -1 0 0 0 0 1 forward_v I I I I #
coedge $-1 $107 $105 $109 $164 reversed $62 $-1 #
edge $-1 $120 -12.597083934933861 $166 12.597083934933861 $119 $210 forward 7 unknown #
vertex $-1 $164 $211 #
straight-curve $-1 -53.241370891445662 -34.245281316815962 0 0 0 -1 I I #
edge $-1 $162 -34.245281316815962 $166 34.245281316815962 $160 $212 forward 7 unknown #
straight-curve $-1 0 -34.245281316815962 -12.597083934933861 -1 0 0 I I #
vertex $-1 $112 $213 #
straight-curve $-1 0 34.245281316815962 -12.597083934933861 1 0 0 I I #
point $-1 53.241370891445662 34.245281316815962 -12.597083934933861 #
point $-1 53.241370891445662 -34.245281316815962 -12.597083934933861 #
straight-curve $-1 -53.241370891445662 0 12.597083934933861 0 -1 0 I I #
point $-1 -53.241370891445662 34.245281316815962 12.597083934933861 #
point $-1 -53.241370891445662 -34.245281316815962 12.597083934933861 #
straight-curve $-1 53.241370891445662 -34.245281316815962 0 0 0 -1 I I #
straight-curve $-1 53.241370891445662 34.245281316815962 0 0 0 -1 I I #
face $-1 $214 $184 $10 $-1 $215 reversed single #
loop $-1 $-1 $216 $129 #
plane-surface $-1 0 -34.245281316815962 0 0 1 0 0 0 1 forward_v I I I I #
coedge $-1 $217 $218 $219 $220 forward $130 $-1 #
coedge $-1 $132 $143 $221 $222 forward $46 $-1 #
coedge $-1 $223 $134 $132 $181 reversed $184 $-1 #
edge $-1 $224 -53.241370891445662 $136 42.729321695539923 $180 $225 forward 7 unknown #
edge $-1 $138 8.3237657028020529 $185 20.055598976943291 $140 $226 forward 7 unknown #
coedge $-1 $134 $227 $189 $228 reversed $184 $-1 #
loop $-1 $-1 $134 $175 #
vertex $-1 $228 $229 #
straight-curve $-1 -41.908331671402763 34.245281316815962 13.541524945443314 0.65605901945558975 0 0.75470958851134939 I I #
point $-1 -42.729321695539923 34.245281316815962 12.597083934933861 #
point $-1 -53.241370891445662 22.513448042674725 0.50435433625158876 #
coedge $-1 $230 $140 $183 $228 forward $81 $-1 #
coedge $-1 $141 $230 $216 $231 reversed $81 $-1 #
coedge $-1 $216 $232 $143 $192 reversed $176 $-1 #
edge $-1 $193 -53.241370891445662 $233 53.241370891445662 $191 $234 forward 7 unknown #
vertex $-1 $144 $235 #
straight-curve $-1 -53.241370891445662 0 12.597083934933861 0 -1 0 I I #
face $-1 $236 $237 $11 $-1 $238 reversed single #
loop $-1 $-1 $202 $147 #
plane-surface $-1 -53.241370891445662 0 0 1 0 0 0 0 -1 forward_v I I I I #
coedge $-1 $153 $239 $199 $240 forward $148 $-1 #
coedge $-1 $241 $200 $198 $240 reversed $150 $-1 #
coedge $-1 $199 $242 $151 $201 reversed $150 $-1 #
edge $-1 $205 -16.023023667335369 $243 -1.086200982436365e-014 $151 $244 forward 7 unknown #
coedge $-1 $245 $246 $152 $203 forward $196 $-1 #
edge $-1 $206 22.584574814705142 $243 34.677304413387418 $202 $247 forward 7 unknown #
coedge $-1 $248 $153 $246 $249 forward $148 $-1 #
vertex $-1 $240 $250 #
vertex $-1 $249 $251 #
straight-curve $-1 -66.802458562985919 22.513448042674725 12.597083934933863 -1 0 0 I I #
vertex $-1 $155 $252 #
point $-1 -40.245875251471411 28.379364679745343 3.1354322197107485 #
straight-curve $-1 -53.241370891445662 34.245281316815962 0 0 0 -1 I I #
point $-1 -53.241370891445662 -34.245281316815962 -12.597083934933861 #
straight-curve $-1 -53.241370891445662 0 -12.597083934933861 0 1 0 I I #
point $-1 -53.241370891445662 34.245281316815962 -12.597083934933861 #
face $-1 $-1 $253 $10 $-1 $254 reversed single #
plane-surface $-1 0 34.245281316815962 0 0 -1 0 0 0 -1 forward_v I I I I #
coedge $-1 $255 $191 $190 $231 forward $176 $-1 #
coedge $-1 $256 $178 $255 $257 forward $130 $-1 #
coedge $-1 $178 $256 $227 $258 forward $130 $-1 #
coedge $-1 $259 $260 $178 $220 reversed $253 $-1 #
edge $-1 $261 -34.245281316815962 $262 34.245281316815962 $219 $263 forward 7 unknown #
coedge $-1 $260 $259 $179 $222 reversed $253 $-1 #
edge $-1 $233 -34.245281316815962 $224 34.245281316815962 $221 $264 forward 7 unknown #
coedge $-1 $227 $180 $259 $265 forward $184 $-1 #
vertex $-1 $222 $266 #
straight-curve $-1 0 34.245281316815962 12.597083934933861 -1 0 0 I I #
straight-curve $-1 -53.241370891445662 14.189682339872672 0.50435433625159509 0 1 0 I I #
coedge $-1 $183 $223 $218 $258 reversed $184 $-1 #
edge $-1 $185 -0.50435433625158876 $267 12.597083934933861 $183 $268 forward 7 unknown #
point $-1 -53.241370891445662 34.245281316815962 0.50435433625158876 #
coedge $-1 $190 $189 $256 $269 reversed $81 $-1 #
edge $-1 $193 -12.597083934933861 $270 12.597083934933861 $190 $271 forward 7 unknown #
coedge $-1 $191 $255 $260 $272 reversed $176 $-1 #
vertex $-1 $222 $273 #
straight-curve $-1 0 -34.245281316815962 12.597083934933861 1 0 0 I I #
point $-1 -53.241370891445662 -34.245281316815962 12.597083934933861 #
face $-1 $274 $275 $11 $-1 $276 reversed single #
loop $-1 $-1 $277 $195 #
plane-surface $-1 0 0 -12.597083934933861 0 0 1 1 0 0 forward_v I I I I #
coedge $-1 $198 $278 $279 $280 forward $148 $-1 #
edge $-1 $281 -20.055598976943291 $205 -8.3237657028020529 $198 $282 forward 7 unknown #
coedge $-1 $242 $199 $283 $284 reversed $150 $-1 #
coedge $-1 $200 $241 $245 $285 reversed $150 $-1 #
vertex $-1 $285 $286 #
straight-curve $-1 -53.241370891445669 22.513448042674725 0.50435433625158055 -0.65605901945558964 0 -0.75470958851134928 I I #
coedge $-1 $287 $202 $242 $285 forward $196 $-1 #
coedge $-1 $202 $288 $204 $249 reversed $196 $-1 #
straight-curve $-1 -53.241370891445662 22.513448042674725 35.181658749639006 0 0 -1 I I #
coedge $-1 $278 $204 $289 $290 forward $148 $-1 #
edge $-1 $206 -22.513448042674725 $291 34.245281316815962 $246 $292 forward 7 unknown #
point $-1 -42.729321695539923 22.513448042674725 12.597083934933861 #
point $-1 -53.241370891445662 22.513448042674725 12.597083934933861 #
point $-1 -39.999248828832009 28.379364679745343 -0.39148930020659867 #
loop $-1 $-1 $260 $214 #
plane-surface $-1 53.241370891445662 0 0 -1 0 0 0 0 1 forward_v I I I I #
coedge $-1 $232 $216 $217 $257 reversed $176 $-1 #
coedge $-1 $218 $217 $230 $269 forward $130 $-1 #
edge $-1 $262 -53.241370891445662 $270 53.241370891445662 $255 $293 forward 7 unknown #
edge $-1 $267 -53.241370891445662 $261 53.241370891445662 $227 $294 forward 7 unknown #
coedge $-1 $221 $219 $223 $265 reversed $253 $-1 #
coedge $-1 $219 $221 $232 $272 forward $253 $-1 #
vertex $-1 $220 $295 #
vertex $-1 $272 $296 #
straight-curve $-1 53.241370891445662 0 -12.597083934933861 0 -1 0 I I #
straight-curve $-1 53.241370891445662 0 12.597083934933861 0 1 0 I I #
edge $-1 $224 -12.597083934933861 $261 12.597083934933861 $259 $297 forward 7 unknown #
point $-1 53.241370891445662 34.245281316815962 12.597083934933861 #
vertex $-1 $258 $298 #
straight-curve $-1 -53.241370891445662 34.245281316815962 0 0 0 -1 I I #
edge $-1 $270 -34.245281316815962 $267 34.245281316815962 $230 $299 forward 7 unknown #
vertex $-1 $269 $300 #
straight-curve $-1 -53.241370891445662 -34.245281316815962 0 0 0 -1 I I #
edge $-1 $233 -12.597083934933861 $262 12.597083934933861 $260 $301 forward 7 unknown #
point $-1 53.241370891445662 -34.245281316815962 12.597083934933861 #
face $-1 $302 $303 $11 $-1 $304 reversed single #
loop $-1 $-1 $305 $236 #
plane-surface $-1 0 -34.245281316815962 0 0 1 0 0 0 1 forward_v I I I I #
coedge $-1 $306 $307 $308 $309 forward $237 $-1 #
coedge $-1 $239 $248 $310 $311 forward $148 $-1 #
coedge $-1 $312 $283 $239 $280 reversed $303 $-1 #
edge $-1 $313 -53.241370891445662 $281 42.729321695539923 $279 $314 forward 7 unknown #
vertex $-1 $284 $315 #
straight-curve $-1 -42.729321695539923 14.189682339872672 12.597083934933861 0 -1 0 I I #
coedge $-1 $279 $316 $241 $284 forward $303 $-1 #
edge $-1 $317 -17.27442026396843 $281 -1.2513965966330778 $283 $318 forward 7 unknown #
edge $-1 $243 8.3237657028020529 $317 20.055598976943291 $245 $319 forward 7 unknown #
point $-1 -53.241370891445662 22.513448042674725 0.50435433625158876 #
coedge $-1 $320 $245 $316 $321 forward $196 $-1 #
coedge $-1 $246 $320 $305 $322 reversed $196 $-1 #
coedge $-1 $305 $323 $248 $290 reversed $275 $-1 #
edge $-1 $291 -53.241370891445662 $324 53.241370891445662 $289 $325 forward 7 unknown #
vertex $-1 $249 $326 #
straight-curve $-1 -53.241370891445662 0 12.597083934933861 0 -1 0 I I #
straight-curve $-1 0 -34.245281316815962 -12.597083934933861 -1 0 0 I I #
straight-curve $-1 0 34.245281316815962 -12.597083934933861 1 0 0 I I #
point $-1 53.241370891445662 34.245281316815962 -12.597083934933861 #
point $-1 53.241370891445662 -34.245281316815962 -12.597083934933861 #
straight-curve $-1 53.241370891445662 34.245281316815962 0 0 0 -1 I I #
point $-1 -53.241370891445662 34.245281316815962 -12.597083934933861 #
straight-curve $-1 -53.241370891445662 0 -12.597083934933861 0 1 0 I I #
point $-1 -53.241370891445662 -34.245281316815962 -12.597083934933861 #
straight-curve $-1 53.241370891445662 -34.245281316815962 0 0 0 -1 I I #
face $-1 $-1 $327 $11 $-1 $328 reversed single #
loop $-1 $-1 $283 $274 #
plane-surface $-1 0 34.245281316815962 0 0 -1 0 0 0 -1 forward_v I I I I #
coedge $-1 $329 $289 $288 $322 forward $275 $-1 #
coedge $-1 $330 $277 $329 $331 forward $237 $-1 #
coedge $-1 $277 $330 $332 $333 forward $237 $-1 #
coedge $-1 $334 $335 $277 $309 reversed $327 $-1 #
edge $-1 $336 -34.245281316815962 $337 34.245281316815962 $308 $338 forward 7 unknown #
coedge $-1 $335 $334 $278 $311 reversed $327 $-1 #
edge $-1 $324 -34.245281316815962 $313 34.245281316815962 $310 $339 forward 7 unknown #
coedge $-1 $332 $279 $334 $340 forward $303 $-1 #
vertex $-1 $311 $341 #
straight-curve $-1 0 34.245281316815962 12.597083934933861 -1 0 0 I I #
point $-1 -42.729321695539923 34.245281316815962 12.597083934933861 #
coedge $-1 $283 $332 $287 $321 reversed $303 $-1 #
vertex $-1 $321 $342 #
straight-curve $-1 -41.908331671402763 34.245281316815962 13.541524945443314 0.65605901945558975 0 0.75470958851134939 I I #
straight-curve $-1 -53.241370891445662 14.189682339872672 0.50435433625159509 0 1 0 I I #
coedge $-1 $288 $287 $330 $343 reversed $196 $-1 #
edge $-1 $317 -0.50435433625158876 $344 12.597083934933861 $316 $345 forward 7 unknown #
edge $-1 $291 -12.597083934933861 $346 12.597083934933861 $288 $347 forward 7 unknown #
coedge $-1 $289 $329 $335 $348 reversed $275 $-1 #
vertex $-1 $311 $349 #
straight-curve $-1 0 -34.245281316815962 12.597083934933861 1 0 0 I I #
point $-1 -53.241370891445662 -34.245281316815962 12.597083934933861 #
loop $-1 $-1 $335 $302 #
plane-surface $-1 53.241370891445662 0 0 -1 0 0 0 0 1 forward_v I I I I #
coedge $-1 $323 $305 $306 $331 reversed $275 $-1 #
coedge $-1 $307 $306 $320 $343 forward $237 $-1 #
edge $-1 $337 -53.241370891445662 $346 53.241370891445662 $329 $350 forward 7 unknown #
coedge $-1 $316 $312 $307 $333 reversed $303 $-1 #
edge $-1 $344 -53.241370891445662 $336 53.241370891445662 $332 $351 forward 7 unknown #
coedge $-1 $310 $308 $312 $340 reversed $327 $-1 #
coedge $-1 $308 $310 $323 $348 forward $327 $-1 #
vertex $-1 $309 $352 #
vertex $-1 $348 $353 #
straight-curve $-1 53.241370891445662 0 -12.597083934933861 0 -1 0 I I #
straight-curve $-1 53.241370891445662 0 12.597083934933861 0 1 0 I I #
edge $-1 $313 -12.597083934933861 $336 12.597083934933861 $334 $354 forward 7 unknown #
point $-1 53.241370891445662 34.245281316815962 12.597083934933861 #
point $-1 -53.241370891445662 34.245281316815962 0.50435433625158876 #
edge $-1 $346 -34.245281316815962 $344 34.245281316815962 $320 $355 forward 7 unknown #
vertex $-1 $333 $356 #
straight-curve $-1 -53.241370891445662 34.245281316815962 0 0 0 -1 I I #
vertex $-1 $343 $357 #
straight-curve $-1 -53.241370891445662 -34.245281316815962 0 0 0 -1 I I #
edge $-1 $324 -12.597083934933861 $337 12.597083934933861 $335 $358 forward 7 unknown #
point $-1 53.241370891445662 -34.245281316815962 12.597083934933861 #
straight-curve $-1 0 -34.245281316815962 -12.597083934933861 -1 0 0 I I #
straight-curve $-1 0 34.245281316815962 -12.597083934933861 1 0 0 I I #
point $-1 53.241370891445662 34.245281316815962 -12.597083934933861 #
point $-1 53.241370891445662 -34.245281316815962 -12.597083934933861 #
straight-curve $-1 53.241370891445662 34.245281316815962 0 0 0 -1 I I #
straight-curve $-1 -53.241370891445662 0 -12.597083934933861 0 1 0 I I #
point $-1 -53.241370891445662 34.245281316815962 -12.597083934933861 #
point $-1 -53.241370891445662 -34.245281316815962 -12.597083934933861 #
straight-curve $-1 53.241370891445662 -34.245281316815962 0 0 0 -1 I I #
End-of-ACIS-data 