600 0 6 0           
109 GICL ACIS Healer - Source: /gicl/data5/repository/Drexel/CICIRELLO-THESISDATA/Part10013.smdg.deltas.sat - 6 0 18 ACIS 6.0.3 Solaris 24 Fri Apr 12 10:27:20 2002 
1 9.999999999999999547e-07 1.000000000000000036e-10 
body $-1 $6 $-1 $-1 #
body $-1 $7 $-1 $-1 #
body $-1 $8 $-1 $-1 #
body $-1 $9 $-1 $-1 #
body $-1 $10 $-1 $-1 #
body $-1 $11 $-1 $-1 #
lump $-1 $-1 $12 $0 #
lump $-1 $-1 $13 $1 #
lump $-1 $-1 $14 $2 #
lump $-1 $-1 $15 $3 #
lump $-1 $-1 $16 $4 #
lump $-1 $-1 $17 $5 #
shell $-1 $-1 $-1 $18 $-1 $6 #
shell $-1 $-1 $-1 $19 $-1 $7 #
shell $-1 $-1 $-1 $20 $-1 $8 #
shell $-1 $-1 $-1 $21 $-1 $9 #
shell $-1 $-1 $-1 $22 $-1 $10 #
shell $-1 $-1 $-1 $23 $-1 $11 #
face $-1 $24 $25 $12 $-1 $26 forward single #
face $-1 $27 $28 $13 $-1 $29 forward single #
face $-1 $30 $31 $14 $-1 $32 reversed single #
face $-1 $33 $34 $15 $-1 $35 forward single #
face $-1 $36 $37 $16 $-1 $38 forward single #
face $-1 $39 $40 $17 $-1 $41 forward single #
face $-1 $42 $43 $12 $-1 $44 reversed single #
loop $-1 $-1 $45 $18 #
plane-surface $-1 46.67012543107394862 25.01844603555364444 14.16111083167252005 0 0 1 1 0 0 forward_v I I I I #
face $-1 $46 $47 $13 $-1 $48 reversed single #
loop $-1 $-1 $49 $19 #
plane-surface $-1 46.67012543107394862 3.484801436306213418 12.16950296300009882 0 0 1 1 0 0 forward_v I I I I #
face $-1 $50 $51 $14 $-1 $52 reversed single #
loop $-1 $-1 $53 $20 #
plane-surface $-1 29.5052100565477069 84.17655292896439789 108.6957535288262022 1 0 0 0 -0.7313537098837770145 -0.6819983511997929071 forward_v I I I I #
face $-1 $54 $55 $15 $-1 $56 forward single #
loop $-1 $57 $58 $21 #
cone-surface $-1 33.90750170629838323 46.68869629908489571 10.66601461956253516 0 -0.7313537098837770145 -0.6819983511997929071 0.5 0 0 1 I I 0 1 0.5 forward I I I I #
face $-1 $59 $60 $16 $-1 $61 forward single #
loop $-1 $62 $63 $22 #
cone-surface $-1 40.51093918092440305 46.68869629908489571 10.66601461956253516 0 -0.7313537098837770145 -0.6819983511997929071 0.5 0 0 1 I I 0 1 0.5 forward I I I I #
face $-1 $64 $65 $17 $-1 $66 forward single #
loop $-1 $67 $68 $23 #
cone-surface $-1 47.11437665555042287 46.68869629908489571 10.66601461956253516 0 -0.7313537098837770145 -0.6819983511997929071 0.5 0 0 1 I I 0 1 0.5 forward I I I I #
face $-1 $69 $70 $12 $-1 $71 reversed single #
loop $-1 $-1 $72 $24 #
plane-surface $-1 46.67012543107394862 25.01844603555364444 0 0 0 1 1 0 0 forward_v I I I I #
coedge $-1 $73 $74 $75 $76 forward $25 $-1 #
face $-1 $77 $78 $13 $-1 $79 reversed single #
loop $-1 $-1 $80 $27 #
plane-surface $-1 46.67012543107394862 3.484801436306213418 9.169502963000098816 0 0 1 1 0 0 forward_v I I I I #
coedge $-1 $81 $82 $83 $84 reversed $28 $-1 #
face $-1 $85 $86 $14 $-1 $87 reversed single #
loop $-1 $-1 $88 $30 #
plane-surface $-1 40.51093918092441015 15.91181417945011844 45.0378563402662877 0 0.7313537098837770145 0.6819983511997929071 1 0 0 forward_v I I I I #
coedge $-1 $89 $90 $91 $92 reversed $31 $-1 #
face $-1 $-1 $93 $15 $-1 $94 forward single #
loop $-1 $95 $96 $33 #
cone-surface $-1 33.90750170629838323 45.82368589639397527 9.859379388984947923 0 -0.7313537098837770145 -0.6819983511997929071 0.25 0 0 1 I I -0.7071067811865474617 0.7071067811865474617 0.25 forward I I I I #
loop $-1 $-1 $97 $21 #
coedge $-1 $58 $58 $98 $99 reversed $34 $-1 #
face $-1 $-1 $100 $16 $-1 $101 forward single #
loop $-1 $102 $103 $36 #
cone-surface $-1 40.51093918092440305 45.82368589639397527 9.859379388984947923 0 -0.7313537098837770145 -0.6819983511997929071 0.25 0 0 1 I I -0.7071067811865474617 0.7071067811865474617 0.25 forward I I I I #
loop $-1 $-1 $104 $22 #
coedge $-1 $63 $63 $105 $106 reversed $37 $-1 #
face $-1 $-1 $107 $17 $-1 $108 forward single #
loop $-1 $109 $110 $39 #
cone-surface $-1 47.11437665555042287 45.82368589639397527 9.859379388984947923 0 -0.7313537098837770145 -0.6819983511997929071 0.25 0 0 1 I I -0.7071067811865474617 0.7071067811865474617 0.25 forward I I I I #
loop $-1 $-1 $111 $23 #
coedge $-1 $68 $68 $112 $113 reversed $40 $-1 #
face $-1 $114 $115 $12 $-1 $116 reversed single #
loop $-1 $-1 $117 $42 #
plane-surface $-1 46.67012543107394862 0 7.080555415836260025 0 1 0 0 0 1 forward_v I I I I #
coedge $-1 $118 $119 $120 $121 forward $43 $-1 #
coedge $-1 $122 $45 $123 $124 forward $25 $-1 #
coedge $-1 $45 $122 $125 $126 forward $25 $-1 #
coedge $-1 $127 $128 $45 $76 reversed $129 $-1 #
edge $-1 $130 -25.01844603555364444 $131 25.01844603555364444 $75 $132 forward 7 unknown #
face $-1 $133 $134 $13 $-1 $135 reversed single #
loop $-1 $-1 $136 $46 #
plane-surface $-1 46.67012543107394862 6.969602872612426836 10.66950296300009882 0 -1 0 0 0 -1 forward_v I I I I #
coedge $-1 $137 $138 $139 $140 reversed $47 $-1 #
coedge $-1 $141 $49 $142 $143 forward $28 $-1 #
coedge $-1 $49 $141 $144 $145 reversed $28 $-1 #
coedge $-1 $146 $147 $49 $84 forward $148 $-1 #
edge $-1 $149 7.282020863317502091 $150 14.25162373592992893 $83 $151 forward 7 unknown #
face $-1 $152 $153 $14 $-1 $154 reversed single #
loop $-1 $-1 $155 $50 #
plane-surface $-1 51.51666830530110985 84.17655292896439789 108.6957535288262022 -1 0 0 0 0.7313537098837770145 0.6819983511997929071 forward_v I I I I #
coedge $-1 $156 $157 $158 $159 reversed $51 $-1 #
coedge $-1 $90 $53 $160 $161 reversed $31 $-1 #
coedge $-1 $53 $89 $156 $162 reversed $31 $-1 #
coedge $-1 $158 $163 $53 $92 forward $164 $-1 #
edge $-1 $165 4.560607411151735846 $166 9.892655004756576886 $91 $167 forward 7 unknown #
loop $-1 $-1 $98 $54 #
plane-surface $-1 40.51093918092441015 15.91181417945011844 45.0378563402662877 0 0.7313537098837770145 0.6819983511997929071 1 0 0 forward_v I I I I #
loop $-1 $-1 $168 $33 #
coedge $-1 $96 $96 $97 $169 reversed $55 $-1 #
coedge $-1 $97 $97 $96 $169 forward $57 $-1 #
coedge $-1 $98 $98 $58 $99 forward $93 $-1 #
edge $-1 $170 4.495198826616393715e-15 $170 6.283185307179590673 $98 $171 forward 7 unknown #
loop $-1 $-1 $105 $59 #
plane-surface $-1 40.51093918092441015 15.91181417945011844 45.0378563402662877 0 0.7313537098837770145 0.6819983511997929071 1 0 0 forward_v I I I I #
loop $-1 $-1 $172 $36 #
coedge $-1 $103 $103 $104 $173 reversed $60 $-1 #
coedge $-1 $104 $104 $103 $173 forward $62 $-1 #
coedge $-1 $105 $105 $63 $106 forward $100 $-1 #
edge $-1 $174 4.495198826616393715e-15 $174 6.283185307179590673 $105 $175 forward 7 unknown #
loop $-1 $-1 $112 $64 #
plane-surface $-1 40.51093918092441015 15.91181417945011844 45.0378563402662877 0 0.7313537098837770145 0.6819983511997929071 1 0 0 forward_v I I I I #
loop $-1 $-1 $176 $39 #
coedge $-1 $110 $110 $111 $177 reversed $65 $-1 #
coedge $-1 $111 $111 $110 $177 forward $67 $-1 #
coedge $-1 $112 $112 $68 $113 forward $107 $-1 #
edge $-1 $178 4.495198826616393715e-15 $178 6.283185307179590673 $112 $179 forward 7 unknown #
face $-1 $180 $181 $12 $-1 $182 reversed single #
loop $-1 $-1 $183 $69 #
plane-surface $-1 0 25.01844603555364444 7.080555415836260025 1 0 0 0 0 -1 forward_v I I I I #
coedge $-1 $184 $125 $185 $186 forward $70 $-1 #
coedge $-1 $187 $72 $184 $188 forward $43 $-1 #
coedge $-1 $72 $187 $189 $190 forward $43 $-1 #
coedge $-1 $128 $127 $72 $121 reversed $129 $-1 #
edge $-1 $191 -25.01844603555364444 $192 25.01844603555364444 $120 $193 forward 7 unknown #
coedge $-1 $74 $73 $194 $195 forward $25 $-1 #
coedge $-1 $196 $197 $73 $124 reversed $181 $-1 #
edge $-1 $131 -46.67012543107394862 $198 46.67012543107394862 $123 $199 forward 7 unknown #
coedge $-1 $117 $200 $74 $126 reversed $70 $-1 #
edge $-1 $201 -46.67012543107394862 $130 46.67012543107394862 $125 $202 forward 7 unknown #
coedge $-1 $120 $75 $200 $203 forward $129 $-1 #
coedge $-1 $75 $120 $196 $204 reversed $129 $-1 #
loop $-1 $-1 $127 $180 #
vertex $-1 $76 $205 #
vertex $-1 $76 $206 #
straight-curve $-1 93.34025086214789724 25.01844603555364444 14.16111083167252005 0 1 0 I I #
face $-1 $207 $208 $13 $-1 $209 reversed single #
loop $-1 $-1 $210 $77 #
plane-surface $-1 0 25.01844603555364444 7.080555415836260025 1 0 0 0 0 -1 forward_v I I I I #
coedge $-1 $211 $142 $147 $212 reversed $78 $-1 #
coedge $-1 $213 $80 $214 $215 reversed $47 $-1 #
coedge $-1 $80 $213 $211 $216 forward $47 $-1 #
coedge $-1 $147 $146 $80 $140 forward $148 $-1 #
edge $-1 $217 -14.25162373592992893 $218 -7.282020863317502091 $139 $219 forward 7 unknown #
coedge $-1 $82 $81 $210 $220 reversed $28 $-1 #
coedge $-1 $136 $221 $81 $143 reversed $78 $-1 #
edge $-1 $149 -46.67012543107394862 $222 46.67012543107394862 $142 $223 forward 7 unknown #
coedge $-1 $224 $225 $82 $145 forward $208 $-1 #
edge $-1 $150 -46.67012543107394862 $226 46.67012543107394862 $144 $227 forward 7 unknown #
coedge $-1 $139 $83 $225 $228 forward $148 $-1 #
coedge $-1 $83 $139 $136 $212 forward $148 $-1 #
loop $-1 $-1 $83 $207 #
vertex $-1 $84 $229 #
vertex $-1 $228 $230 #
straight-curve $-1 93.34025086214789724 14.25162373592992893 12.16950296300009882 0 -1 0 I I #
face $-1 $-1 $164 $14 $-1 $231 forward single #
loop $-1 $-1 $232 $85 #
plane-surface $-1 46.67012543107394862 50.03689207110728887 7.080555415836260025 0 -1 0 0 0 -1 forward_v I I I I #
coedge $-1 $233 $234 $235 $236 reversed $86 $-1 #
coedge $-1 $237 $88 $90 $162 forward $51 $-1 #
coedge $-1 $88 $237 $233 $238 forward $51 $-1 #
coedge $-1 $235 $91 $88 $159 forward $164 $-1 #
edge $-1 $166 -14.08532224945146893 $239 7.926135999301934021 $158 $240 forward 7 unknown #
coedge $-1 $241 $242 $89 $161 forward $153 $-1 #
edge $-1 $243 -49.4449647793234135 $165 -43.72704364065870664 $160 $244 forward 7 unknown #
edge $-1 $166 42.21862156616467132 $243 50.03689207110730308 $90 $245 forward 7 unknown #
coedge $-1 $91 $235 $241 $246 forward $164 $-1 #
loop $-1 $-1 $235 $152 #
vertex $-1 $161 $247 #
vertex $-1 $92 $248 #
straight-curve $-1 29.5052100565477069 54.59749948225902472 14.16111083167251827 0 -1 0 I I #
coedge $-1 $168 $168 $-1 $249 reversed $95 $-1 #
edge $-1 $250 0 $250 6.283185307179586232 $96 $251 forward 7 unknown #
vertex $-1 $99 $252 #
ellipse-curve $-1 33.90750170629838323 47.37086827430486125 11.30215026234017017 0 0.7313537098837770145 0.6819983511997929071 0.5 0 0 1 I I #
coedge $-1 $172 $172 $-1 $253 reversed $102 $-1 #
edge $-1 $254 0 $254 6.283185307179586232 $103 $255 forward 7 unknown #
vertex $-1 $106 $256 #
ellipse-curve $-1 40.51093918092440305 47.37086827430486125 11.30215026234017017 0 0.7313537098837770145 0.6819983511997929071 0.5 0 0 1 I I #
coedge $-1 $176 $176 $-1 $257 reversed $109 $-1 #
edge $-1 $258 0 $258 6.283185307179586232 $110 $259 forward 7 unknown #
vertex $-1 $113 $260 #
ellipse-curve $-1 47.11437665555042287 47.37086827430486125 11.30215026234017017 0 0.7313537098837770145 0.6819983511997929071 0.5 0 0 1 I I #
face $-1 $-1 $129 $12 $-1 $261 reversed single #
loop $-1 $-1 $196 $114 #
plane-surface $-1 46.67012543107394862 50.03689207110728887 7.080555415836260025 0 -1 0 0 0 -1 forward_v I I I I #
coedge $-1 $262 $194 $197 $263 forward $115 $-1 #
coedge $-1 $200 $117 $118 $188 reversed $70 $-1 #
coedge $-1 $194 $262 $117 $186 reversed $115 $-1 #
edge $-1 $201 -7.080555415836260025 $264 7.080555415836260025 $185 $265 forward 7 unknown #
coedge $-1 $119 $118 $262 $266 forward $43 $-1 #
edge $-1 $192 -46.67012543107394862 $264 46.67012543107394862 $184 $267 forward 7 unknown #
coedge $-1 $197 $196 $119 $190 reversed $181 $-1 #
edge $-1 $268 -46.67012543107394862 $191 46.67012543107394862 $189 $269 forward 7 unknown #
vertex $-1 $121 $270 #
vertex $-1 $203 $271 #
straight-curve $-1 93.34025086214789724 25.01844603555364444 0 0 -1 0 I I #
coedge $-1 $183 $185 $122 $195 reversed $115 $-1 #
edge $-1 $198 -25.01844603555364444 $201 25.01844603555364444 $194 $272 forward 7 unknown #
coedge $-1 $189 $123 $128 $204 forward $181 $-1 #
coedge $-1 $123 $189 $183 $263 reversed $181 $-1 #
vertex $-1 $124 $273 #
straight-curve $-1 46.67012543107394862 50.03689207110728887 14.16111083167252005 -1 0 0 I I #
coedge $-1 $125 $184 $127 $203 reversed $70 $-1 #
vertex $-1 $195 $274 #
straight-curve $-1 46.67012543107394862 0 14.16111083167252005 1 0 0 I I #
edge $-1 $130 -7.080555415836260025 $192 7.080555415836260025 $127 $275 forward 7 unknown #
edge $-1 $131 -7.080555415836260025 $191 7.080555415836260025 $128 $276 forward 7 unknown #
point $-1 93.34025086214789724 0 14.16111083167252005 #
point $-1 93.34025086214789724 50.03689207110728887 14.16111083167252005 #
face $-1 $-1 $148 $13 $-1 $277 reversed single #
loop $-1 $-1 $144 $133 #
plane-surface $-1 46.67012543107394862 0 7.080555415836260025 0 1 0 0 0 1 forward_v I I I I #
coedge $-1 $278 $279 $141 $220 forward $134 $-1 #
coedge $-1 $221 $136 $138 $216 reversed $78 $-1 #
edge $-1 $218 0.294473773581920284 $149 3.294473773581920284 $147 $280 forward 7 unknown #
coedge $-1 $138 $137 $281 $282 reversed $47 $-1 #
coedge $-1 $225 $224 $137 $215 forward $208 $-1 #
edge $-1 $283 -46.67012543107394862 $217 46.67012543107394862 $214 $284 forward 7 unknown #
edge $-1 $285 -46.67012543107394862 $218 46.67012543107394862 $211 $286 forward 7 unknown #
vertex $-1 $215 $287 #
vertex $-1 $140 $288 #
straight-curve $-1 93.34025086214789724 14.25162373592992893 9.169502963000098816 0 1 0 I I #
edge $-1 $226 -14.25162373592992893 $222 -7.282020863317502091 $210 $289 forward 7 unknown #
coedge $-1 $142 $211 $278 $290 reversed $78 $-1 #
vertex $-1 $220 $291 #
straight-curve $-1 46.67012543107394862 6.969602872612426836 12.16950296300009882 -1 0 0 I I #
coedge $-1 $214 $144 $279 $292 forward $208 $-1 #
coedge $-1 $144 $214 $146 $228 reversed $208 $-1 #
vertex $-1 $292 $293 #
straight-curve $-1 46.67012543107394862 0 12.16950296300009882 -1 0 0 I I #
edge $-1 $150 -5.088947547163838792 $217 -2.088947547163838792 $146 $294 forward 7 unknown #
point $-1 93.34025086214789724 6.969602872612426836 12.16950296300009882 #
point $-1 93.34025086214789724 0 12.16950296300009882 #
plane-surface $-1 46.67012543107394862 25.01844603555364444 14.16111083167252005 0 0 1 1 0 0 forward_v I I I I #
coedge $-1 $242 $241 $234 $295 forward $153 $-1 #
coedge $-1 $234 $155 $157 $238 reversed $86 $-1 #
coedge $-1 $155 $233 $232 $295 reversed $86 $-1 #
coedge $-1 $163 $158 $155 $236 forward $164 $-1 #
edge $-1 $239 -9.892655004756576886 $296 -4.560607411151735846 $235 $297 forward 7 unknown #
coedge $-1 $157 $156 $242 $298 reversed $51 $-1 #
edge $-1 $299 -50.03689207110730308 $239 -42.21862156616467132 $233 $300 forward 7 unknown #
vertex $-1 $159 $301 #
straight-curve $-1 43.59053230599917583 44.70484447750244783 14.16111083167251827 1 0 0 I I #
coedge $-1 $232 $160 $163 $246 reversed $153 $-1 #
coedge $-1 $160 $232 $237 $298 forward $153 $-1 #
vertex $-1 $161 $302 #
straight-curve $-1 29.5052100565477069 50.03689207110728887 57.88815447233123024 0 0 1 I I #
straight-curve $-1 29.5052100565477069 15.91181417945011844 45.0378563402662877 0 0.6819983511997929071 -0.7313537098837770145 I I #
edge $-1 $296 -4.846542874227161235 $165 17.16491537452624172 $241 $303 forward 7 unknown #
point $-1 29.5052100565477069 50.03689207110728887 14.16111083167252005 #
point $-1 29.5052100565477069 44.70484447750244783 14.16111083167251472 #
edge $-1 $304 1 $304 0 $168 $-1 forward 7 unknown #
vertex $-1 $169 $305 #
ellipse-curve $-1 33.90750170629838323 46.00652432386492308 10.02987897678489659 0 0.7313537098837770145 0.6819983511997929071 0.5 0 0 1 I I #
point $-1 34.40750170629838323 47.37086827430486835 11.30215026234017373 #
edge $-1 $306 1 $306 0 $172 $-1 forward 7 unknown #
vertex $-1 $173 $307 #
ellipse-curve $-1 40.51093918092440305 46.00652432386492308 10.02987897678489659 0 0.7313537098837770145 0.6819983511997929071 0.5 0 0 1 I I #
point $-1 41.01093918092440305 47.37086827430486835 11.30215026234017373 #
edge $-1 $308 1 $308 0 $176 $-1 forward 7 unknown #
vertex $-1 $177 $309 #
ellipse-curve $-1 47.11437665555042287 46.00652432386492308 10.02987897678489659 0 0.7313537098837770145 0.6819983511997929071 0.5 0 0 1 I I #
point $-1 47.61437665555042287 47.37086827430486835 11.30215026234017373 #
plane-surface $-1 93.34025086214789724 25.01844603555364444 7.080555415836260025 -1 0 0 0 0 1 forward_v I I I I #
coedge $-1 $185 $183 $187 $266 reversed $115 $-1 #
edge $-1 $198 -7.080555415836260025 $268 7.080555415836260025 $197 $310 forward 7 unknown #
vertex $-1 $266 $311 #
straight-curve $-1 0 0 7.080555415836260025 0 0 -1 I I #
edge $-1 $264 -25.01844603555364444 $268 25.01844603555364444 $262 $312 forward 7 unknown #
straight-curve $-1 46.67012543107394862 0 0 -1 0 0 I I #
vertex $-1 $190 $313 #
straight-curve $-1 46.67012543107394862 50.03689207110728887 0 1 0 0 I I #
point $-1 93.34025086214789724 50.03689207110728887 0 #
point $-1 93.34025086214789724 0 0 #
straight-curve $-1 0 25.01844603555364444 14.16111083167252005 0 -1 0 I I #
point $-1 0 50.03689207110728887 14.16111083167252005 #
point $-1 0 0 14.16111083167252005 #
straight-curve $-1 93.34025086214789724 0 7.080555415836260025 0 0 -1 I I #
straight-curve $-1 93.34025086214789724 50.03689207110728887 7.080555415836260025 0 0 -1 I I #
plane-surface $-1 93.34025086214789724 25.01844603555364444 7.080555415836260025 -1 0 0 0 0 1 forward_v I I I I #
coedge $-1 $281 $210 $221 $290 forward $134 $-1 #
coedge $-1 $210 $281 $224 $292 reversed $134 $-1 #
straight-curve $-1 93.34025086214789724 6.969602872612426836 8.875029189418178532 0 0 1 I I #
coedge $-1 $279 $278 $213 $282 forward $134 $-1 #
edge $-1 $285 7.282020863317502091 $283 14.25162373592992893 $281 $314 forward 7 unknown #
vertex $-1 $215 $315 #
straight-curve $-1 46.67012543107394862 0 9.169502963000098816 1 0 0 I I #
vertex $-1 $282 $316 #
straight-curve $-1 46.67012543107394862 6.969602872612426836 9.169502963000098816 1 0 0 I I #
point $-1 93.34025086214789724 0 9.169502963000098816 #
point $-1 93.34025086214789724 6.969602872612426836 9.169502963000098816 #
straight-curve $-1 0 14.25162373592992893 12.16950296300009882 0 1 0 I I #
edge $-1 $222 -3.294473773581920284 $285 -0.294473773581920284 $278 $317 forward 7 unknown #
point $-1 0 6.969602872612426836 12.16950296300009882 #
edge $-1 $226 -5.088947547163838792 $283 -2.088947547163838792 $279 $318 forward 7 unknown #
point $-1 0 0 12.16950296300009882 #
straight-curve $-1 93.34025086214789724 0 7.080555415836260025 0 0 -1 I I #
edge $-1 $296 43.72704364065870664 $299 49.4449647793234135 $232 $319 forward 7 unknown #
vertex $-1 $246 $320 #
straight-curve $-1 51.51666830530110985 54.59749948225902472 14.16111083167251827 0 1 0 I I #
edge $-1 $299 -7.926135999301934021 $243 14.08532224945146893 $242 $321 forward 7 unknown #
vertex $-1 $298 $322 #
straight-curve $-1 51.51666830530110985 15.91181417945011844 45.0378563402662877 0 -0.6819983511997929071 0.7313537098837770145 I I #
point $-1 51.51666830530110985 44.70484447750244783 14.16111083167251472 #
point $-1 29.5052100565477069 50.03689207110728887 8.443189693007818519 #
straight-curve $-1 46.67012543107394862 50.03689207110728887 14.16111083167252005 -1 0 0 I I #
vertex $-1 $249 $323 #
point $-1 34.40750170629838323 46.00652432386492308 10.02987897678489659 #
vertex $-1 $253 $324 #
point $-1 41.01093918092440305 46.00652432386492308 10.02987897678489659 #
vertex $-1 $257 $325 #
point $-1 47.61437665555042287 46.00652432386492308 10.02987897678489659 #
straight-curve $-1 0 50.03689207110728887 7.080555415836260025 0 0 -1 I I #
point $-1 0 0 0 #
straight-curve $-1 0 25.01844603555364444 0 0 1 0 I I #
point $-1 0 50.03689207110728887 0 #
straight-curve $-1 0 14.25162373592992893 9.169502963000098816 0 -1 0 I I #
point $-1 0 0 9.169502963000098816 #
point $-1 0 6.969602872612426836 9.169502963000098816 #
straight-curve $-1 0 6.969602872612426836 8.875029189418178532 0 0 -1 I I #
straight-curve $-1 0 0 7.080555415836260025 0 0 -1 I I #
straight-curve $-1 51.51666830530110985 50.03689207110728887 57.88815447233123024 0 0 -1 I I #
point $-1 51.51666830530110985 50.03689207110728887 14.16111083167252005 #
straight-curve $-1 43.59053230599917583 50.03689207110728887 8.443189693007822072 -1 0 0 I I #
point $-1 51.51666830530110985 50.03689207110728887 8.443189693007818519 #
point $-1 33.90750170629838323 45.64084746892302746 9.688879801184999252 #
point $-1 40.51093918092440305 45.64084746892302746 9.688879801184999252 #
point $-1 47.11437665555042287 45.64084746892302746 9.688879801184999252 #
End-of-ACIS-data 