600 0 9 0           
107 GICL ACIS Healer - Source: /gicl/data5/repository/Drexel/CICIRELLO-THESISDATA/Part10005.smdg.feat.sat - 6 0 18 ACIS 6.0.3 Solaris 24 Fri Apr 12 10:17:44 2002 
1 9.999999999999999547e-07 1.000000000000000036e-10 
body $-1 $9 $-1 $-1 #
body $-1 $10 $-1 $-1 #
body $-1 $11 $-1 $-1 #
body $-1 $12 $-1 $-1 #
body $-1 $13 $-1 $-1 #
body $-1 $14 $-1 $-1 #
body $-1 $15 $-1 $-1 #
body $-1 $16 $-1 $-1 #
body $-1 $17 $-1 $-1 #
lump $-1 $-1 $18 $0 #
lump $-1 $-1 $19 $1 #
lump $-1 $-1 $20 $2 #
lump $-1 $-1 $21 $3 #
lump $-1 $-1 $22 $4 #
lump $-1 $-1 $23 $5 #
lump $-1 $-1 $24 $6 #
lump $-1 $-1 $25 $7 #
lump $-1 $-1 $26 $8 #
shell $-1 $-1 $-1 $27 $-1 $9 #
shell $-1 $-1 $-1 $28 $-1 $10 #
shell $-1 $-1 $-1 $29 $-1 $11 #
shell $-1 $-1 $-1 $30 $-1 $12 #
shell $-1 $-1 $-1 $31 $-1 $13 #
shell $-1 $-1 $-1 $32 $-1 $14 #
shell $-1 $-1 $-1 $33 $-1 $15 #
shell $-1 $-1 $-1 $34 $-1 $16 #
shell $-1 $-1 $-1 $35 $-1 $17 #
face $-1 $36 $37 $18 $-1 $38 forward single #
face $-1 $39 $40 $19 $-1 $41 forward single #
face $-1 $42 $43 $20 $-1 $44 forward single #
face $-1 $45 $46 $21 $-1 $47 forward single #
face $-1 $48 $49 $22 $-1 $50 forward single #
face $-1 $51 $52 $23 $-1 $53 forward single #
face $-1 $54 $55 $24 $-1 $56 forward single #
face $-1 $57 $58 $25 $-1 $59 forward single #
face $-1 $60 $61 $26 $-1 $62 forward single #
face $-1 $63 $64 $18 $-1 $65 reversed single #
loop $-1 $-1 $66 $27 #
plane-surface $-1 50.79134495071260602 29.2310258739447697 26.20470878129758674 0 0 1 1 0 0 forward_v I I I I #
face $-1 $67 $68 $19 $-1 $69 reversed single #
loop $-1 $-1 $70 $28 #
plane-surface $-1 6.802819813358489398 29.2310258739447697 7.552053543558624682 0 0 1 1 0 0 forward_v I I I I #
face $-1 $71 $72 $20 $-1 $73 reversed single #
loop $-1 $-1 $74 $29 #
plane-surface $-1 106.4796803598483592 29.2310258739447697 9.920908233969949919 0 0 1 1 0 0 forward_v I I I I #
face $-1 $75 $76 $21 $-1 $77 reversed single #
loop $-1 $-1 $78 $30 #
plane-surface $-1 37.54398236200189842 179.5598471806712837 195.633264395219328 0 0.7771459697322561366 0.629320380830711068 1 0 0 forward_v I I I I #
face $-1 $79 $80 $22 $-1 $81 forward single #
loop $-1 $82 $83 $31 #
cone-surface $-1 33.95864735209557494 55.55361557333334588 23.18491099739994254 0 -0.7771459697322561366 -0.629320380830711068 1 0 0 1 I I 0 1 1 forward I I I I #
face $-1 $84 $85 $23 $-1 $86 forward single #
loop $-1 $87 $88 $32 #
cone-surface $-1 41.1293173719082148 55.55361557333334588 23.18491099739994254 0 -0.7771459697322561366 -0.629320380830711068 1 0 0 1 I I 0 1 1 forward I I I I #
face $-1 $89 $90 $24 $-1 $91 reversed single #
loop $-1 $-1 $92 $33 #
plane-surface $-1 37.54398236200189842 -157.8891561029083164 150.1997164970683798 0 -0.7771459697322561366 0.629320380830711068 1 0 0 forward_v I I I I #
face $-1 $93 $94 $25 $-1 $95 forward single #
loop $-1 $96 $97 $34 #
cone-surface $-1 33.95864735209557494 2.908436174556197962 23.18491099739994254 0 0.7771459697322561366 -0.629320380830711068 1 0 0 1 I I 0 1 1 forward I I I I #
face $-1 $98 $99 $26 $-1 $100 forward single #
loop $-1 $101 $102 $35 #
cone-surface $-1 41.1293173719082148 2.908436174556197962 23.18491099739994254 0 0.7771459697322561366 -0.629320380830711068 1 0 0 1 I I 0 1 1 forward I I I I #
face $-1 $103 $104 $18 $-1 $105 reversed single #
loop $-1 $-1 $106 $36 #
plane-surface $-1 50.79134495071260602 29.2310258739447697 0 0 0 1 1 0 0 forward_v I I I I #
coedge $-1 $107 $108 $109 $110 forward $37 $-1 #
face $-1 $111 $112 $19 $-1 $113 reversed single #
loop $-1 $-1 $114 $39 #
plane-surface $-1 6.802819813358489398 29.2310258739447697 3.679687431619141691 0 0 1 1 0 0 forward_v I I I I #
coedge $-1 $115 $116 $117 $118 forward $40 $-1 #
face $-1 $119 $120 $20 $-1 $121 reversed single #
loop $-1 $-1 $122 $42 #
plane-surface $-1 106.4796803598483592 29.2310258739447697 2.297174955328884494 0 0 1 1 0 0 forward_v I I I I #
coedge $-1 $123 $124 $125 $126 forward $43 $-1 #
face $-1 $127 $128 $21 $-1 $129 reversed single #
loop $-1 $-1 $130 $45 #
plane-surface $-1 37.54398236200189842 21.67069107776296732 67.77715020607342922 0 0.7771459697322561366 0.629320380830711068 1 0 0 forward_v I I I I #
coedge $-1 $131 $132 $133 $134 forward $46 $-1 #
face $-1 $-1 $135 $22 $-1 $136 forward single #
loop $-1 $-1 $137 $48 #
plane-surface $-1 33.95864735209557494 56.89872060361977191 24.27415554461003211 0 0.7771459697322561366 0.629320380830711068 -1 -0 0 forward_v I I I I #
loop $-1 $-1 $138 $31 #
coedge $-1 $83 $83 $137 $139 reversed $49 $-1 #
face $-1 $-1 $140 $23 $-1 $141 forward single #
loop $-1 $-1 $142 $51 #
plane-surface $-1 41.1293173719082148 56.89872060361977191 24.27415554461003211 0 0.7771459697322561366 0.629320380830711068 -1 -0 0 forward_v I I I I #
loop $-1 $-1 $143 $32 #
coedge $-1 $88 $88 $142 $144 reversed $52 $-1 #
face $-1 $145 $146 $24 $-1 $147 reversed single #
loop $-1 $-1 $148 $54 #
plane-surface $-1 37.54398236200189842 0 22.34360230792248814 0 -0.7771459697322561366 0.629320380830711068 1 0 0 forward_v I I I I #
coedge $-1 $149 $150 $151 $152 forward $55 $-1 #
face $-1 $-1 $153 $25 $-1 $154 forward single #
loop $-1 $-1 $155 $57 #
plane-surface $-1 33.95864735209557494 1.563331144269775486 24.27415554461003211 0 -0.7771459697322561366 0.629320380830711068 -1 0 -0 forward_v I I I I #
loop $-1 $-1 $156 $34 #
coedge $-1 $97 $97 $155 $157 reversed $58 $-1 #
face $-1 $-1 $158 $26 $-1 $159 forward single #
loop $-1 $-1 $160 $60 #
plane-surface $-1 41.1293173719082148 1.563331144269775486 24.27415554461003211 0 -0.7771459697322561366 0.629320380830711068 -1 0 -0 forward_v I I I I #
loop $-1 $-1 $161 $35 #
coedge $-1 $102 $102 $160 $162 reversed $61 $-1 #
face $-1 $163 $164 $18 $-1 $165 reversed single #
loop $-1 $-1 $166 $63 #
plane-surface $-1 50.79134495071260602 0 13.10235439064879337 0 1 0 0 0 1 forward_v I I I I #
coedge $-1 $167 $168 $169 $170 forward $64 $-1 #
coedge $-1 $171 $66 $172 $173 forward $37 $-1 #
coedge $-1 $66 $171 $174 $175 forward $37 $-1 #
coedge $-1 $176 $177 $66 $110 reversed $178 $-1 #
edge $-1 $179 -29.2310258739447697 $180 29.2310258739447697 $109 $181 forward 7 unknown #
face $-1 $182 $183 $19 $-1 $184 reversed single #
loop $-1 $-1 $185 $67 #
plane-surface $-1 6.802819813358489398 0 5.615870487588883186 0 1 0 0 0 1 forward_v I I I I #
coedge $-1 $186 $187 $188 $189 forward $68 $-1 #
coedge $-1 $190 $70 $191 $192 forward $40 $-1 #
coedge $-1 $70 $190 $193 $194 forward $40 $-1 #
coedge $-1 $195 $196 $70 $118 reversed $197 $-1 #
edge $-1 $198 -29.2310258739447697 $199 29.2310258739447697 $117 $200 forward 7 unknown #
face $-1 $201 $202 $20 $-1 $203 reversed single #
loop $-1 $-1 $204 $71 #
plane-surface $-1 106.4796803598483592 0 6.109041594649417206 0 1 0 0 0 1 forward_v I I I I #
coedge $-1 $205 $206 $207 $208 forward $72 $-1 #
coedge $-1 $209 $74 $210 $211 forward $43 $-1 #
coedge $-1 $74 $209 $212 $213 forward $43 $-1 #
coedge $-1 $214 $215 $74 $126 reversed $216 $-1 #
edge $-1 $217 -29.2310258739447697 $218 29.2310258739447697 $125 $219 forward 7 unknown #
face $-1 $220 $221 $21 $-1 $222 reversed single #
loop $-1 $-1 $223 $75 #
plane-surface $-1 37.54398236200189842 -27.24084505992875904 289.5943634035546665 0 0.629320380830711068 -0.7771459697322561366 0 0.7771459697322561366 0.629320380830711068 forward_v I I I I #
coedge $-1 $224 $225 $226 $227 forward $76 $-1 #
coedge $-1 $228 $78 $229 $230 forward $46 $-1 #
coedge $-1 $78 $228 $231 $232 forward $46 $-1 #
coedge $-1 $233 $234 $78 $134 reversed $235 $-1 #
edge $-1 $236 -203.1653798028504241 $237 203.1653798028504241 $133 $238 forward 7 unknown #
loop $-1 $239 $240 $79 #
cone-surface $-1 33.95864735209557494 53.81993755818079705 21.78100625977450022 0 -0.7771459697322561366 -0.629320380830711068 0.5 0 0 1 I I -0.7071067811865474617 0.7071067811865474617 0.5 forward I I I I #
coedge $-1 $137 $137 $83 $139 forward $80 $-1 #
coedge $-1 $138 $138 $240 $241 forward $82 $-1 #
edge $-1 $242 0 $242 6.283185307179586232 $137 $243 forward 7 unknown #
loop $-1 $244 $245 $84 #
cone-surface $-1 41.1293173719082148 53.81993755818079705 21.78100625977450022 0 -0.7771459697322561366 -0.629320380830711068 0.5 0 0 1 I I -0.7071067811865474617 0.7071067811865474617 0.5 forward I I I I #
coedge $-1 $142 $142 $88 $144 forward $85 $-1 #
coedge $-1 $143 $143 $245 $246 forward $87 $-1 #
edge $-1 $247 0 $247 6.283185307179586232 $142 $248 forward 7 unknown #
face $-1 $249 $250 $24 $-1 $251 reversed single #
loop $-1 $-1 $252 $89 #
plane-surface $-1 37.54398236200189842 -206.8006922406000285 -71.61749670041288596 0 0.629320380830711068 0.7771459697322561366 0 -0.7771459697322561366 0.629320380830711068 forward_v I I I I #
coedge $-1 $253 $254 $255 $256 forward $90 $-1 #
coedge $-1 $257 $92 $258 $259 forward $55 $-1 #
coedge $-1 $92 $257 $260 $261 forward $55 $-1 #
coedge $-1 $262 $263 $92 $152 reversed $264 $-1 #
edge $-1 $265 -203.1653798028504241 $266 203.1653798028504241 $151 $267 forward 7 unknown #
loop $-1 $268 $269 $93 #
cone-surface $-1 33.95864735209557494 4.642114189708747674 21.78100625977450022 0 0.7771459697322561366 -0.629320380830711068 0.5 0 0 1 I I -0.7071067811865474617 0.7071067811865474617 0.5 forward I I I I #
coedge $-1 $155 $155 $97 $157 forward $94 $-1 #
coedge $-1 $156 $156 $269 $270 forward $96 $-1 #
edge $-1 $271 0 $271 6.283185307179586232 $155 $272 forward 7 unknown #
loop $-1 $273 $274 $98 #
cone-surface $-1 41.1293173719082148 4.642114189708747674 21.78100625977450022 0 0.7771459697322561366 -0.629320380830711068 0.5 0 0 1 I I -0.7071067811865474617 0.7071067811865474617 0.5 forward I I I I #
coedge $-1 $160 $160 $102 $162 forward $99 $-1 #
coedge $-1 $161 $161 $274 $275 forward $101 $-1 #
edge $-1 $276 0 $276 6.283185307179586232 $160 $277 forward 7 unknown #
face $-1 $278 $279 $18 $-1 $280 reversed single #
loop $-1 $-1 $281 $103 #
plane-surface $-1 0 29.2310258739447697 13.10235439064879337 1 0 0 0 0 -1 forward_v I I I I #
coedge $-1 $282 $174 $283 $284 forward $104 $-1 #
coedge $-1 $285 $106 $282 $286 forward $64 $-1 #
coedge $-1 $106 $285 $287 $288 forward $64 $-1 #
coedge $-1 $177 $176 $106 $170 reversed $178 $-1 #
edge $-1 $289 -29.2310258739447697 $290 29.2310258739447697 $169 $291 forward 7 unknown #
coedge $-1 $108 $107 $292 $293 forward $37 $-1 #
coedge $-1 $294 $295 $107 $173 reversed $279 $-1 #
edge $-1 $180 -50.79134495071260602 $296 50.79134495071260602 $172 $297 forward 7 unknown #
coedge $-1 $166 $298 $108 $175 reversed $104 $-1 #
edge $-1 $299 -50.79134495071260602 $179 50.79134495071260602 $174 $300 forward 7 unknown #
coedge $-1 $169 $109 $298 $301 forward $178 $-1 #
coedge $-1 $109 $169 $294 $302 reversed $178 $-1 #
loop $-1 $-1 $176 $278 #
vertex $-1 $110 $303 #
vertex $-1 $110 $304 #
straight-curve $-1 101.582689901425212 29.2310258739447697 26.20470878129758674 0 1 0 I I #
face $-1 $305 $306 $19 $-1 $307 reversed single #
loop $-1 $-1 $308 $111 #
plane-surface $-1 0 29.2310258739447697 5.615870487588883186 1 0 0 0 0 -1 forward_v I I I I #
coedge $-1 $309 $193 $310 $311 forward $112 $-1 #
coedge $-1 $312 $114 $309 $313 forward $68 $-1 #
coedge $-1 $114 $312 $314 $315 forward $68 $-1 #
coedge $-1 $196 $195 $114 $189 reversed $197 $-1 #
edge $-1 $316 -29.2310258739447697 $317 29.2310258739447697 $188 $318 forward 7 unknown #
coedge $-1 $116 $115 $319 $320 forward $40 $-1 #
coedge $-1 $321 $322 $115 $192 reversed $306 $-1 #
edge $-1 $199 -6.802819813358489398 $323 6.802819813358489398 $191 $324 forward 7 unknown #
coedge $-1 $185 $325 $116 $194 reversed $112 $-1 #
edge $-1 $326 -6.802819813358489398 $198 6.802819813358489398 $193 $327 forward 7 unknown #
coedge $-1 $188 $117 $325 $328 forward $197 $-1 #
coedge $-1 $117 $188 $321 $329 reversed $197 $-1 #
loop $-1 $-1 $195 $305 #
vertex $-1 $118 $330 #
vertex $-1 $118 $331 #
straight-curve $-1 13.6056396267169788 29.2310258739447697 7.552053543558624682 0 1 0 I I #
face $-1 $332 $333 $20 $-1 $334 reversed single #
loop $-1 $-1 $335 $119 #
plane-surface $-1 101.582689901425212 29.2310258739447697 6.109041594649417206 1 0 0 0 0 -1 forward_v I I I I #
coedge $-1 $336 $212 $337 $338 forward $120 $-1 #
coedge $-1 $339 $122 $336 $340 forward $72 $-1 #
coedge $-1 $122 $339 $341 $342 forward $72 $-1 #
coedge $-1 $215 $214 $122 $208 reversed $216 $-1 #
edge $-1 $343 -29.2310258739447697 $344 29.2310258739447697 $207 $345 forward 7 unknown #
coedge $-1 $124 $123 $346 $347 forward $43 $-1 #
coedge $-1 $348 $349 $123 $211 reversed $333 $-1 #
edge $-1 $218 -4.896990458423147174 $350 4.896990458423147174 $210 $351 forward 7 unknown #
coedge $-1 $204 $352 $124 $213 reversed $120 $-1 #
edge $-1 $353 -4.896990458423147174 $217 4.896990458423147174 $212 $354 forward 7 unknown #
coedge $-1 $207 $125 $352 $355 forward $216 $-1 #
coedge $-1 $125 $207 $348 $356 reversed $216 $-1 #
loop $-1 $-1 $214 $332 #
vertex $-1 $126 $357 #
vertex $-1 $126 $358 #
straight-curve $-1 111.3766708182715064 29.2310258739447697 9.920908233969949919 0 1 0 I I #
face $-1 $359 $360 $21 $-1 $361 reversed single #
loop $-1 $-1 $362 $127 #
plane-surface $-1 29.17820067222048408 100.6152691292171255 131.7052073006463786 1 0 0 0 -0.7771459697322561366 -0.629320380830711068 forward_v I I I I #
coedge $-1 $363 $231 $364 $365 forward $128 $-1 #
coedge $-1 $366 $130 $363 $367 forward $76 $-1 #
coedge $-1 $130 $366 $368 $369 forward $76 $-1 #
coedge $-1 $234 $233 $130 $227 reversed $235 $-1 #
edge $-1 $370 -203.1653798028504241 $371 203.1653798028503957 $226 $372 forward 7 unknown #
coedge $-1 $132 $131 $373 $374 forward $46 $-1 #
coedge $-1 $375 $376 $131 $230 reversed $360 $-1 #
edge $-1 $237 -8.365781689781414343 $377 8.365781689781414343 $229 $378 forward 7 unknown #
coedge $-1 $223 $379 $132 $232 reversed $128 $-1 #
edge $-1 $380 -8.365781689781414343 $236 8.365781689781414343 $231 $381 forward 7 unknown #
coedge $-1 $226 $133 $379 $382 forward $235 $-1 #
coedge $-1 $133 $226 $375 $383 reversed $235 $-1 #
loop $-1 $-1 $233 $359 #
vertex $-1 $134 $384 #
vertex $-1 $134 $385 #
straight-curve $-1 45.90976405178331277 179.5598471806712837 195.633264395219328 0 0.629320380830711068 -0.7771459697322561366 I I #
loop $-1 $-1 $386 $79 #
coedge $-1 $240 $240 $138 $241 reversed $135 $-1 #
edge $-1 $387 0 $387 6.283185307179586232 $240 $388 forward 7 unknown #
vertex $-1 $139 $389 #
ellipse-curve $-1 33.95864735209557494 56.89872060361977191 24.27415554461003211 0 0.7771459697322561366 0.629320380830711068 1 0 0 1 I I #
loop $-1 $-1 $390 $84 #
coedge $-1 $245 $245 $143 $246 reversed $140 $-1 #
edge $-1 $391 0 $391 6.283185307179586232 $245 $392 forward 7 unknown #
vertex $-1 $144 $393 #
ellipse-curve $-1 41.1293173719082148 56.89872060361977191 24.27415554461003211 0 0.7771459697322561366 0.629320380830711068 1 0 0 1 I I #
face $-1 $394 $395 $24 $-1 $396 reversed single #
loop $-1 $-1 $397 $145 #
plane-surface $-1 29.17820067222048408 -78.94457805145415819 86.27165940249543041 1 0 0 0 0.7771459697322561366 -0.629320380830711068 forward_v I I I I #
coedge $-1 $398 $260 $399 $400 forward $146 $-1 #
coedge $-1 $401 $148 $398 $402 forward $90 $-1 #
coedge $-1 $148 $401 $403 $404 forward $90 $-1 #
coedge $-1 $263 $262 $148 $256 reversed $264 $-1 #
edge $-1 $405 -203.1653798028503957 $406 203.1653798028504241 $255 $407 forward 7 unknown #
coedge $-1 $150 $149 $408 $409 forward $55 $-1 #
coedge $-1 $410 $411 $149 $259 reversed $395 $-1 #
edge $-1 $266 -8.365781689781414343 $412 8.365781689781414343 $258 $413 forward 7 unknown #
coedge $-1 $252 $414 $150 $261 reversed $146 $-1 #
edge $-1 $415 -8.365781689781414343 $265 8.365781689781414343 $260 $416 forward 7 unknown #
coedge $-1 $255 $151 $414 $417 forward $264 $-1 #
coedge $-1 $151 $255 $410 $418 reversed $264 $-1 #
loop $-1 $-1 $262 $394 #
vertex $-1 $152 $419 #
vertex $-1 $152 $420 #
straight-curve $-1 45.90976405178331277 -157.8891561029083164 150.1997164970683798 0 0.629320380830711068 0.7771459697322561366 I I #
loop $-1 $-1 $421 $93 #
coedge $-1 $269 $269 $156 $270 reversed $153 $-1 #
edge $-1 $422 0 $422 6.283185307179586232 $269 $423 forward 7 unknown #
vertex $-1 $157 $424 #
ellipse-curve $-1 33.95864735209557494 1.563331144269775486 24.27415554461003211 0 -0.7771459697322561366 0.629320380830711068 1 0 0 1 I I #
loop $-1 $-1 $425 $98 #
coedge $-1 $274 $274 $161 $275 reversed $158 $-1 #
edge $-1 $426 0 $426 6.283185307179586232 $274 $427 forward 7 unknown #
vertex $-1 $162 $428 #
ellipse-curve $-1 41.1293173719082148 1.563331144269775486 24.27415554461003211 0 -0.7771459697322561366 0.629320380830711068 1 0 0 1 I I #
face $-1 $-1 $178 $18 $-1 $429 reversed single #
loop $-1 $-1 $294 $163 #
plane-surface $-1 50.79134495071260602 58.4620517478895394 13.10235439064879337 0 -1 0 0 0 -1 forward_v I I I I #
coedge $-1 $430 $292 $295 $431 forward $164 $-1 #
coedge $-1 $298 $166 $167 $286 reversed $104 $-1 #
coedge $-1 $292 $430 $166 $284 reversed $164 $-1 #
edge $-1 $299 -13.10235439064879337 $432 13.10235439064879337 $283 $433 forward 7 unknown #
coedge $-1 $168 $167 $430 $434 forward $64 $-1 #
edge $-1 $290 -50.79134495071260602 $432 50.79134495071260602 $282 $435 forward 7 unknown #
coedge $-1 $295 $294 $168 $288 reversed $279 $-1 #
edge $-1 $436 -50.79134495071260602 $289 50.79134495071260602 $287 $437 forward 7 unknown #
vertex $-1 $170 $438 #
vertex $-1 $301 $439 #
straight-curve $-1 101.582689901425212 29.2310258739447697 0 0 -1 0 I I #
coedge $-1 $281 $283 $171 $293 reversed $164 $-1 #
edge $-1 $296 -29.2310258739447697 $299 29.2310258739447697 $292 $440 forward 7 unknown #
coedge $-1 $287 $172 $177 $302 forward $279 $-1 #
coedge $-1 $172 $287 $281 $431 reversed $279 $-1 #
vertex $-1 $173 $441 #
straight-curve $-1 50.79134495071260602 58.4620517478895394 26.20470878129758674 -1 0 0 I I #
coedge $-1 $174 $282 $176 $301 reversed $104 $-1 #
vertex $-1 $293 $442 #
straight-curve $-1 50.79134495071260602 0 26.20470878129758674 1 0 0 I I #
edge $-1 $179 -13.10235439064879337 $290 13.10235439064879337 $176 $443 forward 7 unknown #
edge $-1 $180 -13.10235439064879337 $289 13.10235439064879337 $177 $444 forward 7 unknown #
point $-1 101.582689901425212 0 26.20470878129758674 #
point $-1 101.582689901425212 58.4620517478895394 26.20470878129758674 #
face $-1 $-1 $197 $19 $-1 $445 reversed single #
loop $-1 $-1 $321 $182 #
plane-surface $-1 6.802819813358489398 58.4620517478895394 5.615870487588883186 0 -1 0 0 0 -1 forward_v I I I I #
coedge $-1 $446 $319 $322 $447 forward $183 $-1 #
coedge $-1 $325 $185 $186 $313 reversed $112 $-1 #
coedge $-1 $319 $446 $185 $311 reversed $183 $-1 #
edge $-1 $326 -1.936183055969741496 $448 1.936183055969741496 $310 $449 forward 7 unknown #
coedge $-1 $187 $186 $446 $450 forward $68 $-1 #
edge $-1 $317 -6.802819813358489398 $448 6.802819813358489398 $309 $451 forward 7 unknown #
coedge $-1 $322 $321 $187 $315 reversed $306 $-1 #
edge $-1 $452 -6.802819813358489398 $316 6.802819813358489398 $314 $453 forward 7 unknown #
vertex $-1 $189 $454 #
vertex $-1 $328 $455 #
straight-curve $-1 13.6056396267169788 29.2310258739447697 3.679687431619141691 0 -1 0 I I #
coedge $-1 $308 $310 $190 $320 reversed $183 $-1 #
edge $-1 $323 -29.2310258739447697 $326 29.2310258739447697 $319 $456 forward 7 unknown #
coedge $-1 $314 $191 $196 $329 forward $306 $-1 #
coedge $-1 $191 $314 $308 $447 reversed $306 $-1 #
vertex $-1 $192 $457 #
straight-curve $-1 6.802819813358489398 58.4620517478895394 7.552053543558624682 -1 0 0 I I #
coedge $-1 $193 $309 $195 $328 reversed $112 $-1 #
vertex $-1 $320 $458 #
straight-curve $-1 6.802819813358489398 0 7.552053543558624682 1 0 0 I I #
edge $-1 $198 -1.936183055969741496 $317 1.936183055969741496 $195 $459 forward 7 unknown #
edge $-1 $199 -1.936183055969741496 $316 1.936183055969741496 $196 $460 forward 7 unknown #
point $-1 13.6056396267169788 0 7.552053543558624682 #
point $-1 13.6056396267169788 58.4620517478895394 7.552053543558624682 #
face $-1 $-1 $216 $20 $-1 $461 reversed single #
loop $-1 $-1 $348 $201 #
plane-surface $-1 106.4796803598483592 58.4620517478895394 6.109041594649417206 0 -1 0 0 0 -1 forward_v I I I I #
coedge $-1 $462 $346 $349 $463 forward $202 $-1 #
coedge $-1 $352 $204 $205 $340 reversed $120 $-1 #
coedge $-1 $346 $462 $204 $338 reversed $202 $-1 #
edge $-1 $353 -3.811866639320532713 $464 3.811866639320532713 $337 $465 forward 7 unknown #
coedge $-1 $206 $205 $462 $466 forward $72 $-1 #
edge $-1 $344 -4.896990458423147174 $464 4.896990458423147174 $336 $467 forward 7 unknown #
coedge $-1 $349 $348 $206 $342 reversed $333 $-1 #
edge $-1 $468 -4.896990458423147174 $343 4.896990458423147174 $341 $469 forward 7 unknown #
vertex $-1 $208 $470 #
vertex $-1 $355 $471 #
straight-curve $-1 111.3766708182715064 29.2310258739447697 2.297174955328884494 0 -1 0 I I #
coedge $-1 $335 $337 $209 $347 reversed $202 $-1 #
edge $-1 $350 -29.2310258739447697 $353 29.2310258739447697 $346 $472 forward 7 unknown #
coedge $-1 $341 $210 $215 $356 forward $333 $-1 #
coedge $-1 $210 $341 $335 $463 reversed $333 $-1 #
vertex $-1 $211 $473 #
straight-curve $-1 106.4796803598483592 58.4620517478895394 9.920908233969949919 -1 0 0 I I #
coedge $-1 $212 $336 $214 $355 reversed $120 $-1 #
vertex $-1 $347 $474 #
straight-curve $-1 106.4796803598483592 0 9.920908233969949919 1 0 0 I I #
edge $-1 $217 -3.811866639320532713 $344 3.811866639320532713 $214 $475 forward 7 unknown #
edge $-1 $218 -3.811866639320532713 $343 3.811866639320532713 $215 $476 forward 7 unknown #
point $-1 111.3766708182715064 0 9.920908233969949919 #
point $-1 111.3766708182715064 58.4620517478895394 9.920908233969949919 #
face $-1 $-1 $235 $21 $-1 $477 reversed single #
loop $-1 $-1 $375 $220 #
plane-surface $-1 37.54398236200189842 228.4713833183629959 -26.18394880226193777 0 -0.629320380830711068 0.7771459697322561366 0 -0.7771459697322561366 -0.629320380830711068 forward_v I I I I #
coedge $-1 $478 $373 $376 $479 forward $221 $-1 #
coedge $-1 $379 $223 $224 $367 reversed $128 $-1 #
coedge $-1 $373 $478 $223 $365 reversed $221 $-1 #
edge $-1 $380 -101.5826899014252263 $480 101.5826899014251836 $364 $481 forward 7 unknown #
coedge $-1 $225 $224 $478 $482 forward $76 $-1 #
edge $-1 $371 -8.365781689781414343 $480 8.365781689781414343 $363 $483 forward 7 unknown #
coedge $-1 $376 $375 $225 $369 reversed $360 $-1 #
edge $-1 $484 -8.365781689781414343 $370 8.365781689781414343 $368 $485 forward 7 unknown #
vertex $-1 $227 $486 #
vertex $-1 $382 $487 #
straight-curve $-1 45.90976405178331277 21.67069107776296732 67.77715020607342922 0 -0.629320380830711068 0.7771459697322561366 I I #
coedge $-1 $362 $364 $228 $374 reversed $221 $-1 #
edge $-1 $377 -203.1653798028504241 $380 203.1653798028504241 $373 $488 forward 7 unknown #
coedge $-1 $368 $229 $234 $383 forward $360 $-1 #
coedge $-1 $229 $368 $362 $479 reversed $360 $-1 #
vertex $-1 $230 $489 #
straight-curve $-1 37.54398236200189842 307.4159613698171825 37.74410829231101161 -1 0 0 I I #
coedge $-1 $231 $363 $233 $382 reversed $128 $-1 #
vertex $-1 $374 $490 #
straight-curve $-1 37.54398236200189842 51.70373299152539914 353.5224204981276444 1 0 0 I I #
edge $-1 $236 -101.5826899014252263 $371 101.5826899014251836 $233 $491 forward 7 unknown #
edge $-1 $237 -101.5826899014252263 $370 101.5826899014251978 $234 $492 forward 7 unknown #
point $-1 45.90976405178331277 51.70373299152539914 353.5224204981276444 #
point $-1 45.90976405178331277 307.4159613698171825 37.74410829231101161 #
coedge $-1 $386 $386 $-1 $493 reversed $239 $-1 #
vertex $-1 $241 $494 #
ellipse-curve $-1 33.95864735209557494 54.20851054304692695 22.09566645018985653 0 0.7771459697322561366 0.629320380830711068 1 0 0 1 I I #
point $-1 34.95864735209557494 56.89872060361977191 24.27415554461003211 #
coedge $-1 $390 $390 $-1 $495 reversed $244 $-1 #
vertex $-1 $246 $496 #
ellipse-curve $-1 41.1293173719082148 54.20851054304692695 22.09566645018985653 0 0.7771459697322561366 0.629320380830711068 1 0 0 1 I I #
point $-1 42.1293173719082148 56.89872060361977191 24.27415554461003211 #
face $-1 $-1 $264 $24 $-1 $497 reversed single #
loop $-1 $-1 $410 $249 #
plane-surface $-1 37.54398236200189842 48.91153613769172637 244.1608155054037468 0 -0.629320380830711068 -0.7771459697322561366 0 0.7771459697322561366 -0.629320380830711068 forward_v I I I I #
coedge $-1 $498 $408 $411 $499 forward $250 $-1 #
coedge $-1 $414 $252 $253 $402 reversed $146 $-1 #
coedge $-1 $408 $498 $252 $400 reversed $250 $-1 #
edge $-1 $415 -101.5826899014252263 $500 101.5826899014251978 $399 $501 forward 7 unknown #
coedge $-1 $254 $253 $498 $502 forward $90 $-1 #
edge $-1 $406 -8.365781689781414343 $500 8.365781689781414343 $398 $503 forward 7 unknown #
coedge $-1 $411 $410 $254 $404 reversed $395 $-1 #
edge $-1 $504 -8.365781689781414343 $405 8.365781689781414343 $403 $505 forward 7 unknown #
vertex $-1 $256 $506 #
vertex $-1 $417 $507 #
straight-curve $-1 45.90976405178331277 0 22.34360230792248814 0 -0.629320380830711068 -0.7771459697322561366 I I #
coedge $-1 $397 $399 $257 $409 reversed $250 $-1 #
edge $-1 $412 -203.1653798028504241 $415 203.1653798028504241 $408 $508 forward 7 unknown #
coedge $-1 $403 $258 $263 $418 forward $395 $-1 #
coedge $-1 $258 $403 $397 $499 reversed $395 $-1 #
vertex $-1 $259 $509 #
straight-curve $-1 37.54398236200189842 -30.03304191376243182 308.0888725999766962 -1 0 0 I I #
coedge $-1 $260 $398 $262 $417 reversed $146 $-1 #
vertex $-1 $409 $510 #
straight-curve $-1 37.54398236200189842 -285.7452702920542151 -7.689439605839936576 1 0 0 I I #
edge $-1 $265 -101.5826899014252263 $406 101.5826899014251978 $262 $511 forward 7 unknown #
edge $-1 $266 -101.582689901425212 $405 101.5826899014251978 $263 $512 forward 7 unknown #
point $-1 45.90976405178331277 -285.7452702920542151 -7.689439605839936576 #
point $-1 45.90976405178331277 -30.03304191376243182 308.0888725999766962 #
coedge $-1 $421 $421 $-1 $513 reversed $268 $-1 #
vertex $-1 $270 $514 #
ellipse-curve $-1 33.95864735209557494 4.25354120484261955 22.09566645018985653 0 -0.7771459697322561366 0.629320380830711068 1 0 0 1 I I #
point $-1 34.95864735209557494 1.563331144269775486 24.27415554461003211 #
coedge $-1 $425 $425 $-1 $515 reversed $273 $-1 #
vertex $-1 $275 $516 #
ellipse-curve $-1 41.1293173719082148 4.25354120484261955 22.09566645018985653 0 -0.7771459697322561366 0.629320380830711068 1 0 0 1 I I #
point $-1 42.1293173719082148 1.563331144269775486 24.27415554461003211 #
plane-surface $-1 101.582689901425212 29.2310258739447697 13.10235439064879337 -1 0 0 0 0 1 forward_v I I I I #
coedge $-1 $283 $281 $285 $434 reversed $164 $-1 #
edge $-1 $296 -13.10235439064879337 $436 13.10235439064879337 $295 $517 forward 7 unknown #
vertex $-1 $434 $518 #
straight-curve $-1 0 0 13.10235439064879337 0 0 -1 I I #
edge $-1 $432 -29.2310258739447697 $436 29.2310258739447697 $430 $519 forward 7 unknown #
straight-curve $-1 50.79134495071260602 0 0 -1 0 0 I I #
vertex $-1 $288 $520 #
straight-curve $-1 50.79134495071260602 58.4620517478895394 0 1 0 0 I I #
point $-1 101.582689901425212 58.4620517478895394 0 #
point $-1 101.582689901425212 0 0 #
straight-curve $-1 0 29.2310258739447697 26.20470878129758674 0 -1 0 I I #
point $-1 0 58.4620517478895394 26.20470878129758674 #
point $-1 0 0 26.20470878129758674 #
straight-curve $-1 101.582689901425212 0 13.10235439064879337 0 0 -1 I I #
straight-curve $-1 101.582689901425212 58.4620517478895394 13.10235439064879337 0 0 -1 I I #
plane-surface $-1 13.6056396267169788 29.2310258739447697 5.615870487588883186 -1 0 0 0 0 1 forward_v I I I I #
coedge $-1 $310 $308 $312 $450 reversed $183 $-1 #
edge $-1 $323 -1.936183055969741496 $452 1.936183055969741496 $322 $521 forward 7 unknown #
vertex $-1 $450 $522 #
straight-curve $-1 0 0 5.615870487588883186 0 0 -1 I I #
edge $-1 $448 -29.2310258739447697 $452 29.2310258739447697 $446 $523 forward 7 unknown #
straight-curve $-1 6.802819813358489398 0 3.679687431619141691 -1 0 0 I I #
vertex $-1 $315 $524 #
straight-curve $-1 6.802819813358489398 58.4620517478895394 3.679687431619141691 1 0 0 I I #
point $-1 13.6056396267169788 58.4620517478895394 3.679687431619141691 #
point $-1 13.6056396267169788 0 3.679687431619141691 #
straight-curve $-1 0 29.2310258739447697 7.552053543558624682 0 -1 0 I I #
point $-1 0 58.4620517478895394 7.552053543558624682 #
point $-1 0 0 7.552053543558624682 #
straight-curve $-1 13.6056396267169788 0 5.615870487588883186 0 0 -1 I I #
straight-curve $-1 13.6056396267169788 58.4620517478895394 5.615870487588883186 0 0 -1 I I #
plane-surface $-1 111.3766708182715064 29.2310258739447697 6.109041594649417206 -1 0 0 0 0 1 forward_v I I I I #
coedge $-1 $337 $335 $339 $466 reversed $202 $-1 #
edge $-1 $350 -3.811866639320532713 $468 3.811866639320532713 $349 $525 forward 7 unknown #
vertex $-1 $466 $526 #
straight-curve $-1 101.582689901425212 0 6.109041594649417206 0 0 -1 I I #
edge $-1 $464 -29.2310258739447697 $468 29.2310258739447697 $462 $527 forward 7 unknown #
straight-curve $-1 106.4796803598483592 0 2.297174955328884494 -1 0 0 I I #
vertex $-1 $342 $528 #
straight-curve $-1 106.4796803598483592 58.4620517478895394 2.297174955328884494 1 0 0 I I #
point $-1 111.3766708182715064 58.4620517478895394 2.297174955328884494 #
point $-1 111.3766708182715064 0 2.297174955328884494 #
straight-curve $-1 101.582689901425212 29.2310258739447697 9.920908233969949919 0 -1 0 I I #
point $-1 101.582689901425212 58.4620517478895394 9.920908233969949919 #
point $-1 101.582689901425212 0 9.920908233969949919 #
straight-curve $-1 111.3766708182715064 0 6.109041594649417206 0 0 -1 I I #
straight-curve $-1 111.3766708182715064 58.4620517478895394 6.109041594649417206 0 0 -1 I I #
plane-surface $-1 45.90976405178331277 100.6152691292171255 131.7052073006463786 -1 0 0 0 0.7771459697322561366 0.629320380830711068 forward_v I I I I #
coedge $-1 $364 $362 $366 $482 reversed $221 $-1 #
edge $-1 $377 -101.5826899014252263 $484 101.5826899014251978 $376 $529 forward 7 unknown #
vertex $-1 $482 $530 #
straight-curve $-1 29.17820067222048408 -27.24084505992875904 289.5943634035546665 0 -0.7771459697322561366 -0.629320380830711068 I I #
edge $-1 $480 -203.1653798028503957 $484 203.1653798028504241 $478 $531 forward 7 unknown #
straight-curve $-1 37.54398236200189842 -106.185423111382903 225.6663063089817456 -1 0 0 I I #
vertex $-1 $369 $532 #
straight-curve $-1 37.54398236200189842 149.5268052669088661 -90.11200589683488715 1 0 0 I I #
point $-1 45.90976405178331277 149.5268052669088661 -90.11200589683488715 #
point $-1 45.90976405178331277 -106.185423111382903 225.6663063089817456 #
straight-curve $-1 29.17820067222048408 179.5598471806712837 195.633264395219328 0 -0.629320380830711068 0.7771459697322561366 I I #
point $-1 29.17820067222048408 307.4159613698171825 37.74410829231101161 #
point $-1 29.17820067222048408 51.70373299152539914 353.5224204981276444 #
straight-curve $-1 45.90976405178331277 -27.24084505992875904 289.5943634035546665 0 -0.7771459697322561366 -0.629320380830711068 I I #
straight-curve $-1 45.90976405178331277 228.4713833183629959 -26.18394880226193777 0 -0.7771459697322561366 -0.629320380830711068 I I #
edge $-1 $533 1 $533 0 $386 $-1 forward 7 unknown #
point $-1 34.95864735209557494 54.20851054304692695 22.09566645018985653 #
edge $-1 $534 1 $534 0 $390 $-1 forward 7 unknown #
point $-1 42.1293173719082148 54.20851054304692695 22.09566645018985653 #
plane-surface $-1 45.90976405178331277 -78.94457805145415819 86.27165940249543041 -1 0 0 0 -0.7771459697322561366 0.629320380830711068 forward_v I I I I #
coedge $-1 $399 $397 $401 $502 reversed $250 $-1 #
edge $-1 $412 -101.582689901425212 $504 101.5826899014251978 $411 $535 forward 7 unknown #
vertex $-1 $502 $536 #
straight-curve $-1 29.17820067222048408 -206.8006922406000285 -71.61749670041288596 0 0.7771459697322561366 -0.629320380830711068 I I #
edge $-1 $500 -203.1653798028504241 $504 203.1653798028503957 $498 $537 forward 7 unknown #
straight-curve $-1 37.54398236200189842 -127.8561141891458846 -135.5455537949858353 -1 0 0 I I #
vertex $-1 $404 $538 #
straight-curve $-1 37.54398236200189842 127.8561141891458703 180.2327584108307974 1 0 0 I I #
point $-1 45.90976405178331277 127.8561141891458703 180.2327584108307974 #
point $-1 45.90976405178331277 -127.8561141891458846 -135.5455537949858353 #
straight-curve $-1 29.17820067222048408 -157.8891561029083164 150.1997164970683798 0 -0.629320380830711068 -0.7771459697322561366 I I #
point $-1 29.17820067222048408 -30.03304191376243182 308.0888725999766962 #
point $-1 29.17820067222048408 -285.7452702920542151 -7.689439605839936576 #
straight-curve $-1 45.90976405178331277 -206.8006922406000285 -71.61749670041288596 0 0.7771459697322561366 -0.629320380830711068 I I #
straight-curve $-1 45.90976405178331277 48.91153613769172637 244.1608155054037468 0 0.7771459697322561366 -0.629320380830711068 I I #
edge $-1 $539 1 $539 0 $421 $-1 forward 7 unknown #
point $-1 34.95864735209557494 4.25354120484261955 22.09566645018985653 #
edge $-1 $540 1 $540 0 $425 $-1 forward 7 unknown #
point $-1 42.1293173719082148 4.25354120484261955 22.09566645018985653 #
straight-curve $-1 0 58.4620517478895394 13.10235439064879337 0 0 -1 I I #
point $-1 0 0 0 #
straight-curve $-1 0 29.2310258739447697 0 0 1 0 I I #
point $-1 0 58.4620517478895394 0 #
straight-curve $-1 0 58.4620517478895394 5.615870487588883186 0 0 -1 I I #
point $-1 0 0 3.679687431619141691 #
straight-curve $-1 0 29.2310258739447697 3.679687431619141691 0 1 0 I I #
point $-1 0 58.4620517478895394 3.679687431619141691 #
straight-curve $-1 101.582689901425212 58.4620517478895394 6.109041594649417206 0 0 -1 I I #
point $-1 101.582689901425212 0 2.297174955328884494 #
straight-curve $-1 101.582689901425212 29.2310258739447697 2.297174955328884494 0 1 0 I I #
point $-1 101.582689901425212 58.4620517478895394 2.297174955328884494 #
straight-curve $-1 29.17820067222048408 228.4713833183629959 -26.18394880226193777 0 -0.7771459697322561366 -0.629320380830711068 I I #
point $-1 29.17820067222048408 -106.185423111382903 225.6663063089817456 #
straight-curve $-1 29.17820067222048408 21.67069107776296732 67.77715020607342922 0 0.629320380830711068 -0.7771459697322561366 I I #
point $-1 29.17820067222048408 149.5268052669088661 -90.11200589683488715 #
vertex $-1 $493 $541 #
vertex $-1 $495 $542 #
straight-curve $-1 29.17820067222048408 48.91153613769172637 244.1608155054037468 0 0.7771459697322561366 -0.629320380830711068 I I #
point $-1 29.17820067222048408 -127.8561141891458846 -135.5455537949858353 #
straight-curve $-1 29.17820067222048408 0 22.34360230792248814 0 0.629320380830711068 0.7771459697322561366 I I #
point $-1 29.17820067222048408 127.8561141891458703 180.2327584108307974 #
vertex $-1 $513 $543 #
vertex $-1 $515 $544 #
point $-1 33.95864735209557494 53.43136457331466715 21.46634606935914391 #
point $-1 41.1293173719082148 53.43136457331466715 21.46634606935914391 #
point $-1 33.95864735209557494 5.030687174574875797 21.46634606935914391 #
point $-1 41.1293173719082148 5.030687174574875797 21.46634606935914391 #
End-of-ACIS-data 