500 0 8 0           
7 Unknown 11 ACIS 5.0 NT 24 Thu Mar 25 19:40:15 1999 
-1 9.9999999999999995e-007 1e-010 
body $-1 $8 $-1 $9 #
body $-1 $10 $-1 $11 #
body $-1 $12 $-1 $13 #
body $-1 $14 $-1 $15 #
body $-1 $16 $-1 $17 #
body $-1 $18 $-1 $19 #
body $-1 $20 $-1 $21 #
body $-1 $22 $-1 $23 #
lump $-1 $-1 $24 $0 #
transform $-1 1 0 0 0 1 0 0 0 1 69.843440046388139 38.148837801148467 13.317340497214174 1 rotate no_reflect no_shear #
lump $-1 $-1 $25 $1 #
transform $-1 1 0 0 0 1 0 0 0 1 69.843440046388139 38.148837801148467 13.317340497214174 1 rotate no_reflect no_shear #
lump $-1 $-1 $26 $2 #
transform $-1 1 0 0 0 1 0 0 0 1 69.843440046388139 38.148837801148467 13.317340497214174 1 rotate no_reflect no_shear #
lump $-1 $-1 $27 $3 #
transform $-1 1 0 0 0 1 0 0 0 1 69.843440046388139 38.148837801148467 13.317340497214174 1 rotate no_reflect no_shear #
lump $-1 $-1 $28 $4 #
transform $-1 1 0 0 0 1 0 0 0 1 69.843440046388139 38.148837801148467 13.317340497214174 1 rotate no_reflect no_shear #
lump $-1 $-1 $29 $5 #
transform $-1 1 0 0 0 1 0 0 0 1 69.843440046388139 38.148837801148467 13.317340497214174 1 rotate no_reflect no_shear #
lump $-1 $-1 $30 $6 #
transform $-1 1 0 0 0 1 0 0 0 1 69.843440046388139 38.148837801148467 13.317340497214174 1 rotate no_reflect no_shear #
lump $-1 $-1 $31 $7 #
transform $-1 1 0 0 0 1 0 0 0 1 69.843440046388139 38.148837801148467 13.317340497214174 1 rotate no_reflect no_shear #
shell $-1 $-1 $-1 $32 $-1 $8 #
shell $-1 $-1 $-1 $33 $-1 $10 #
shell $-1 $-1 $-1 $34 $-1 $12 #
shell $-1 $-1 $-1 $35 $-1 $14 #
shell $-1 $-1 $-1 $36 $-1 $16 #
shell $-1 $-1 $-1 $37 $-1 $18 #
shell $-1 $-1 $-1 $38 $-1 $20 #
shell $-1 $-1 $-1 $39 $-1 $22 #
face $-1 $40 $41 $24 $-1 $42 forward single #
face $-1 $43 $44 $25 $-1 $45 forward single #
face $-1 $46 $47 $26 $-1 $48 reversed single #
face $-1 $49 $50 $27 $-1 $51 forward single #
face $-1 $52 $53 $28 $-1 $54 reversed single #
face $-1 $55 $56 $29 $-1 $57 forward single #
face $-1 $58 $59 $30 $-1 $60 forward single #
face $-1 $61 $62 $31 $-1 $63 forward single #
face $-1 $64 $65 $24 $-1 $66 reversed single #
loop $-1 $-1 $67 $32 #
plane-surface $-1 0 0 13.317340497214174 0 0 1 1 0 0 forward_v I I I I #
face $-1 $68 $69 $25 $-1 $70 reversed single #
loop $-1 $-1 $71 $33 #
plane-surface $-1 0 -38.148837801148467 0 0 1 0 0 0 1 forward_v I I I I #
face $-1 $72 $73 $26 $-1 $74 reversed single #
loop $-1 $-1 $75 $34 #
plane-surface $-1 -185.64911316412744 -22.955300532963697 79.759624328338688 0 1 0 -0.82903758062907751 0 0.55919289150049634 forward_v I I I I #
face $-1 $76 $77 $27 $-1 $78 forward single #
loop $-1 $79 $80 $35 #
cone-surface $-1 -62.553245367404855 -13.302496953611495 5.2198456049184117 0.82903758062907751 0 -0.55919289150049634 1.3979822287512409 0 2.0725939515726939 1 I I 0 1 2.5 forward I I I I #
face $-1 $81 $82 $28 $-1 $83 reversed single #
loop $-1 $-1 $84 $36 #
plane-surface $-1 28.771094206551055 -8.2190351985674397 193.50728846067165 0 -1 0 -0.54463904215088732 0 -0.83867056331134215 forward_v I I I I #
face $-1 $85 $86 $29 $-1 $87 forward single #
loop $-1 $88 $89 $37 #
cone-surface $-1 59.38257831501307 -23.152563117088722 6.1493209698215079 -0.54463904215088732 0 -0.83867056331134215 1.2580058449670133 0 -0.81695856322633098 1 I I 0 1 1.5 forward I I I I #
face $-1 $90 $91 $30 $-1 $92 forward single #
loop $-1 $93 $94 $38 #
cone-surface $-1 59.38257831501307 -17.55249014764324 6.1493209698215079 -0.54463904215088732 0 -0.83867056331134215 1.2580058449670133 0 -0.81695856322633098 1 I I 0 1 1.5 forward I I I I #
face $-1 $95 $96 $31 $-1 $97 forward single #
loop $-1 $98 $99 $39 #
cone-surface $-1 59.38257831501307 -11.952417178197759 6.1493209698215079 -0.54463904215088732 0 -0.83867056331134215 1.2580058449670133 0 -0.81695856322633098 1 I I 0 1 1.5 forward I I I I #
face $-1 $100 $101 $24 $-1 $102 reversed single #
loop $-1 $-1 $103 $40 #
plane-surface $-1 0 0 -13.317340497214174 0 0 1 1 0 0 forward_v I I I I #
coedge $-1 $104 $105 $106 $107 forward $41 $-1 #
face $-1 $108 $109 $25 $-1 $110 reversed single #
loop $-1 $-1 $111 $43 #
plane-surface $-1 0 0 -13.317340497214174 0 0 1 1 0 0 forward_v I I I I #
coedge $-1 $112 $113 $114 $115 forward $44 $-1 #
face $-1 $116 $117 $26 $-1 $118 reversed single #
loop $-1 $-1 $119 $46 #
plane-surface $-1 -69.843440046388153 -13.302496953611495 1.6477139445759974 -0.82903758062907751 0 0.55919289150049634 0.55919289150049634 0 0.82903758062907751 forward_v I I I I #
coedge $-1 $120 $121 $122 $123 reversed $47 $-1 #
face $-1 $-1 $124 $27 $-1 $125 forward single #
loop $-1 $126 $127 $49 #
cone-surface $-1 -58.162384839121117 -13.302496953611495 2.2581728745661174 0.82903758062907751 0 -0.55919289150049634 0.69899111437562045 0 1.0362969757863469 1 I I -0.70710678118654746 0.70710678118654746 1.25 forward I I I I #
loop $-1 $-1 $128 $35 #
coedge $-1 $80 $80 $129 $130 reversed $50 $-1 #
face $-1 $131 $132 $28 $-1 $133 reversed single #
loop $-1 $-1 $134 $52 #
plane-surface $-1 -47.307834368224462 -17.55249014764324 76.356014046059059 0.54463904215088732 0 0.83867056331134215 0.83867056331134215 0 -0.54463904215088732 forward_v I I I I #
coedge $-1 $135 $136 $137 $138 reversed $53 $-1 #
face $-1 $-1 $139 $29 $-1 $140 forward single #
loop $-1 $141 $142 $55 #
cone-surface $-1 58.553353031821302 -23.152563117088722 4.8724260329106546 -0.54463904215088732 0 -0.83867056331134215 0.62900292248350664 0 -0.40847928161316549 1 I I -0.70710678118654757 0.70710678118654757 0.75 forward I I I I #
loop $-1 $-1 $143 $37 #
coedge $-1 $89 $89 $144 $145 reversed $56 $-1 #
face $-1 $-1 $146 $30 $-1 $147 forward single #
loop $-1 $148 $149 $58 #
cone-surface $-1 58.553353031821302 -17.55249014764324 4.8724260329106546 -0.54463904215088732 0 -0.83867056331134215 0.62900292248350664 0 -0.40847928161316549 1 I I -0.70710678118654757 0.70710678118654757 0.75 forward I I I I #
loop $-1 $-1 $150 $38 #
coedge $-1 $94 $94 $151 $152 reversed $59 $-1 #
face $-1 $-1 $153 $31 $-1 $154 forward single #
loop $-1 $155 $156 $61 #
cone-surface $-1 58.553353031821302 -11.952417178197759 4.8724260329106546 -0.54463904215088732 0 -0.83867056331134215 0.62900292248350664 0 -0.40847928161316549 1 I I -0.70710678118654757 0.70710678118654757 0.75 forward I I I I #
loop $-1 $-1 $157 $39 #
coedge $-1 $99 $99 $158 $159 reversed $62 $-1 #
face $-1 $160 $161 $24 $-1 $162 reversed single #
loop $-1 $-1 $163 $64 #
plane-surface $-1 0 -38.148837801148467 0 0 1 0 0 0 1 forward_v I I I I #
coedge $-1 $164 $165 $166 $167 forward $65 $-1 #
coedge $-1 $168 $67 $169 $170 forward $41 $-1 #
coedge $-1 $67 $168 $171 $172 forward $41 $-1 #
coedge $-1 $173 $174 $67 $107 reversed $175 $-1 #
edge $-1 $176 -38.148837801148467 $177 38.148837801148467 $106 $178 forward 7 unknown #
face $-1 $179 $180 $25 $-1 $181 forward single #
loop $-1 $-1 $182 $68 #
plane-surface $-1 69.843440046388139 0 0 -1 0 0 0 0 1 forward_v I I I I #
coedge $-1 $183 $184 $185 $186 forward $69 $-1 #
coedge $-1 $185 $71 $182 $187 reversed $44 $-1 #
coedge $-1 $71 $185 $188 $189 reversed $44 $-1 #
coedge $-1 $190 $191 $71 $115 reversed $180 $-1 #
edge $-1 $192 -69.843440046388139 $193 69.843440046388139 $114 $194 forward 7 unknown #
face $-1 $195 $196 $26 $-1 $197 forward single #
loop $-1 $-1 $198 $72 #
plane-surface $-1 -185.64911316412744 -3.6496933742592912 79.759624328338688 0 -1 0 0.82903758062907751 0 -0.55919289150049634 forward_v I I I I #
coedge $-1 $199 $200 $201 $202 reversed $73 $-1 #
coedge $-1 $121 $75 $203 $204 reversed $47 $-1 #
coedge $-1 $75 $120 $199 $205 reversed $47 $-1 #
coedge $-1 $201 $206 $75 $123 forward $196 $-1 #
edge $-1 $207 22.981116535675582 $208 30.852378788647357 $122 $209 forward 7 unknown #
loop $-1 $-1 $129 $76 #
plane-surface $-1 -69.843440046388153 -13.302496953611495 1.6477139445759974 -0.82903758062907751 0 0.55919289150049634 0.55919289150049634 0 0.82903758062907751 forward_v I I I I #
loop $-1 $-1 $210 $49 #
coedge $-1 $127 $127 $128 $211 reversed $77 $-1 #
coedge $-1 $128 $128 $127 $211 forward $79 $-1 #
coedge $-1 $129 $129 $80 $130 forward $124 $-1 #
edge $-1 $212 0 $212 6.2831853071796004 $129 $213 forward 7 unknown #
face $-1 $214 $215 $28 $-1 $216 reversed single #
loop $-1 $-1 $217 $81 #
plane-surface $-1 28.771094206551055 -26.885945096719041 193.50728846067165 0 1 0 0.54463904215088732 0 0.83867056331134215 forward_v I I I I #
coedge $-1 $218 $219 $220 $221 reversed $82 $-1 #
coedge $-1 $136 $84 $222 $223 reversed $53 $-1 #
coedge $-1 $84 $135 $218 $224 reversed $53 $-1 #
coedge $-1 $220 $225 $84 $138 forward $226 $-1 #
edge $-1 $227 -55.457892943112611 $228 -35.37766148351966 $137 $229 forward 7 unknown #
loop $-1 $-1 $144 $85 #
plane-surface $-1 -47.307834368224462 -17.55249014764324 76.356014046059059 0.54463904215088732 0 0.83867056331134215 0.83867056331134215 0 -0.54463904215088732 forward_v I I I I #
loop $-1 $-1 $230 $55 #
coedge $-1 $142 $142 $143 $231 reversed $86 $-1 #
coedge $-1 $143 $143 $142 $231 forward $88 $-1 #
coedge $-1 $144 $144 $89 $145 forward $139 $-1 #
edge $-1 $232 0 $232 6.2831853071796004 $144 $233 forward 7 unknown #
loop $-1 $-1 $151 $90 #
plane-surface $-1 -47.307834368224462 -17.55249014764324 76.356014046059059 0.54463904215088732 0 0.83867056331134215 0.83867056331134215 0 -0.54463904215088732 forward_v I I I I #
loop $-1 $-1 $234 $58 #
coedge $-1 $149 $149 $150 $235 reversed $91 $-1 #
coedge $-1 $150 $150 $149 $235 forward $93 $-1 #
coedge $-1 $151 $151 $94 $152 forward $146 $-1 #
edge $-1 $236 0 $236 6.2831853071796004 $151 $237 forward 7 unknown #
loop $-1 $-1 $158 $95 #
plane-surface $-1 -47.307834368224462 -17.55249014764324 76.356014046059059 0.54463904215088732 0 0.83867056331134215 0.83867056331134215 0 -0.54463904215088732 forward_v I I I I #
loop $-1 $-1 $238 $61 #
coedge $-1 $156 $156 $157 $239 reversed $96 $-1 #
coedge $-1 $157 $157 $156 $239 forward $98 $-1 #
coedge $-1 $158 $158 $99 $159 forward $153 $-1 #
edge $-1 $240 0 $240 6.2831853071796004 $158 $241 forward 7 unknown #
face $-1 $242 $243 $24 $-1 $244 reversed single #
loop $-1 $-1 $245 $100 #
plane-surface $-1 -69.843440046388139 0 0 1 0 0 0 0 -1 forward_v I I I I #
coedge $-1 $171 $246 $173 $247 reversed $101 $-1 #
coedge $-1 $248 $103 $246 $249 forward $65 $-1 #
coedge $-1 $103 $248 $250 $251 forward $65 $-1 #
coedge $-1 $174 $173 $103 $167 reversed $175 $-1 #
edge $-1 $252 -38.148837801148467 $253 38.148837801148467 $166 $254 forward 7 unknown #
coedge $-1 $105 $104 $255 $256 forward $41 $-1 #
coedge $-1 $257 $258 $104 $170 reversed $243 $-1 #
edge $-1 $177 -69.843440046388139 $259 69.843440046388139 $169 $260 forward 7 unknown #
coedge $-1 $261 $163 $105 $172 reversed $101 $-1 #
edge $-1 $262 -69.843440046388139 $176 69.843440046388139 $171 $263 forward 7 unknown #
coedge $-1 $166 $106 $163 $247 forward $175 $-1 #
coedge $-1 $106 $166 $257 $264 reversed $175 $-1 #
loop $-1 $-1 $173 $242 #
vertex $-1 $107 $265 #
vertex $-1 $107 $266 #
straight-curve $-1 69.843440046388139 0 13.317340497214174 0 1 0 I I #
face $-1 $267 $268 $25 $-1 $269 reversed single #
loop $-1 $-1 $191 $108 #
plane-surface $-1 0 -43.780284153363183 -7.9044859725400247 0 0 1 1 0 0 forward_v I I I I #
coedge $-1 $270 $271 $112 $187 forward $109 $-1 #
coedge $-1 $272 $111 $271 $273 forward $69 $-1 #
coedge $-1 $111 $272 $274 $275 forward $69 $-1 #
coedge $-1 $113 $112 $111 $186 reversed $44 $-1 #
edge $-1 $276 -69.843440046388139 $277 69.843440046388139 $111 $278 forward 7 unknown #
edge $-1 $277 -13.317340497214174 $193 -7.9044859725400247 $182 $279 forward 7 unknown #
coedge $-1 $274 $280 $113 $189 forward $281 $-1 #
edge $-1 $192 7.9044859725400247 $276 13.317340497214174 $188 $282 forward 7 unknown #
coedge $-1 $283 $114 $280 $284 forward $180 $-1 #
coedge $-1 $114 $283 $270 $285 forward $180 $-1 #
vertex $-1 $189 $286 #
vertex $-1 $285 $287 #
straight-curve $-1 0 -38.148837801148467 -7.9044859725400247 1 0 0 I I #
face $-1 $-1 $288 $26 $-1 $289 reversed single #
loop $-1 $-1 $122 $116 #
plane-surface $-1 0 0 13.317340497214174 0 0 1 1 0 0 forward_v I I I I #
coedge $-1 $290 $291 $292 $293 reversed $117 $-1 #
coedge $-1 $294 $119 $121 $205 forward $73 $-1 #
coedge $-1 $119 $294 $290 $295 forward $73 $-1 #
coedge $-1 $292 $122 $119 $202 forward $196 $-1 #
edge $-1 $208 -16.30405205615795 $296 3.0015551025464564 $201 $297 forward 7 unknown #
coedge $-1 $298 $299 $120 $204 forward $288 $-1 #
edge $-1 $300 -38.232098219593325 $207 -26.562471666955169 $203 $301 forward 7 unknown #
edge $-1 $208 -14.076112863042002 $300 -2.5434524534472062e-014 $121 $302 forward 7 unknown #
coedge $-1 $122 $292 $298 $303 forward $196 $-1 #
vertex $-1 $204 $304 #
vertex $-1 $123 $305 #
straight-curve $-1 -92.824556582063721 -22.955300532963697 13.317340497214175 1 0 0 I I #
coedge $-1 $210 $210 $-1 $306 reversed $126 $-1 #
edge $-1 $307 0 $307 6.2831853071796004 $127 $308 forward 7 unknown #
vertex $-1 $130 $309 #
ellipse-curve $-1 -65.907808919902251 -13.302496953611495 7.4825272208950917 -0.82903758062907751 0 0.55919289150049634 1.3979822287512409 0 2.0725939515726939 1 I I #
face $-1 $-1 $226 $28 $-1 $310 forward single #
loop $-1 $-1 $311 $131 #
plane-surface $-1 69.843440046388139 0 0 -1 0 0 0 0 1 forward_v I I I I #
coedge $-1 $312 $313 $314 $315 reversed $132 $-1 #
coedge $-1 $316 $134 $136 $224 forward $82 $-1 #
coedge $-1 $134 $316 $312 $317 forward $82 $-1 #
coedge $-1 $314 $137 $134 $221 forward $226 $-1 #
edge $-1 $228 -0.55720987525418053 $318 18.109700022897421 $220 $319 forward 7 unknown #
coedge $-1 $320 $321 $135 $223 forward $215 $-1 #
edge $-1 $322 -96.476558759052295 $227 -83.436303733121647 $222 $323 forward 7 unknown #
edge $-1 $228 115.74394905641117 $322 139.68688009277631 $136 $324 forward 7 unknown #
coedge $-1 $137 $314 $320 $325 forward $226 $-1 #
loop $-1 $-1 $314 $214 #
vertex $-1 $223 $326 #
vertex $-1 $138 $327 #
straight-curve $-1 14.385547103275528 -8.2190351985674397 13.317340497214175 -1 0 0 I I #
coedge $-1 $230 $230 $-1 $328 reversed $141 $-1 #
edge $-1 $329 0 $329 6.2831853071796004 $142 $330 forward 7 unknown #
vertex $-1 $145 $331 #
ellipse-curve $-1 59.80332431659167 -23.152563117088722 6.7972129842488584 0.54463904215088732 0 0.83867056331134215 1.2580058449670133 0 -0.81695856322633098 1 I I #
coedge $-1 $234 $234 $-1 $332 reversed $148 $-1 #
edge $-1 $333 0 $333 6.2831853071796004 $149 $334 forward 7 unknown #
vertex $-1 $152 $335 #
ellipse-curve $-1 59.80332431659167 -17.55249014764324 6.7972129842488584 0.54463904215088732 0 0.83867056331134215 1.2580058449670133 0 -0.81695856322633098 1 I I #
coedge $-1 $238 $238 $-1 $336 reversed $155 $-1 #
edge $-1 $337 0 $337 6.2831853071796004 $156 $338 forward 7 unknown #
vertex $-1 $159 $339 #
ellipse-curve $-1 59.80332431659167 -11.952417178197759 6.7972129842488584 0.54463904215088732 0 0.83867056331134215 1.2580058449670133 0 -0.81695856322633098 1 I I #
face $-1 $-1 $175 $24 $-1 $340 reversed single #
loop $-1 $-1 $257 $160 #
plane-surface $-1 0 38.148837801148467 0 0 -1 0 0 0 -1 forward_v I I I I #
coedge $-1 $341 $255 $258 $342 forward $161 $-1 #
coedge $-1 $163 $261 $164 $249 reversed $101 $-1 #
edge $-1 $176 -13.317340497214174 $253 13.317340497214174 $173 $343 forward 7 unknown #
coedge $-1 $165 $164 $341 $344 forward $65 $-1 #
edge $-1 $253 -69.843440046388139 $345 69.843440046388139 $246 $346 forward 7 unknown #
coedge $-1 $258 $257 $165 $251 reversed $243 $-1 #
edge $-1 $347 -69.843440046388139 $252 69.843440046388139 $250 $348 forward 7 unknown #
vertex $-1 $167 $349 #
vertex $-1 $247 $350 #
straight-curve $-1 69.843440046388139 0 -13.317340497214174 0 -1 0 I I #
coedge $-1 $245 $351 $168 $256 reversed $161 $-1 #
edge $-1 $259 -38.148837801148467 $262 38.148837801148467 $255 $352 forward 7 unknown #
coedge $-1 $250 $169 $174 $264 forward $243 $-1 #
coedge $-1 $169 $250 $245 $342 reversed $243 $-1 #
vertex $-1 $170 $353 #
straight-curve $-1 0 38.148837801148467 13.317340497214174 -1 0 0 I I #
coedge $-1 $246 $171 $351 $354 forward $101 $-1 #
vertex $-1 $256 $355 #
straight-curve $-1 0 -38.148837801148467 13.317340497214174 1 0 0 I I #
edge $-1 $177 -13.317340497214174 $252 13.317340497214174 $174 $356 forward 7 unknown #
point $-1 69.843440046388139 -38.148837801148467 13.317340497214174 #
point $-1 69.843440046388139 38.148837801148467 13.317340497214174 #
face $-1 $-1 $281 $25 $-1 $357 reversed single #
loop $-1 $-1 $358 $179 #
plane-surface $-1 0 -49.411730505577893 -10.610913234877099 0 1 0 0 0 1 forward_v I I I I #
coedge $-1 $359 $182 $191 $285 reversed $109 $-1 #
coedge $-1 $182 $359 $183 $273 reversed $109 $-1 #
coedge $-1 $184 $183 $360 $361 forward $69 $-1 #
edge $-1 $277 38.148837801148467 $362 49.411730505577893 $271 $363 forward 7 unknown #
coedge $-1 $364 $188 $184 $275 reversed $281 $-1 #
edge $-1 $365 -49.411730505577893 $276 -38.148837801148467 $274 $366 forward 7 unknown #
vertex $-1 $189 $367 #
vertex $-1 $273 $368 #
straight-curve $-1 0 -38.148837801148467 -13.317340497214174 1 0 0 I I #
straight-curve $-1 69.843440046388139 -38.148837801148467 0 0 0 1 I I #
coedge $-1 $188 $364 $190 $284 reversed $281 $-1 #
loop $-1 $-1 $188 $267 #
straight-curve $-1 -69.843440046388139 -38.148837801148467 0 0 0 -1 I I #
coedge $-1 $191 $190 $369 $370 forward $180 $-1 #
edge $-1 $192 -5.6314463522147093 $371 5.6314463522147093 $280 $372 forward 7 unknown #
edge $-1 $373 -5.6314463522147093 $193 5.6314463522147093 $270 $374 forward 7 unknown #
point $-1 -69.843440046388139 -38.148837801148474 -7.9044859725400247 #
point $-1 69.843440046388139 -38.148837801148474 -7.9044859725400247 #
loop $-1 $-1 $203 $195 #
plane-surface $-1 -69.843440046388139 0 0 1 0 0 0 0 -1 forward_v I I I I #
coedge $-1 $291 $198 $200 $295 reversed $117 $-1 #
coedge $-1 $198 $290 $375 $376 reversed $117 $-1 #
coedge $-1 $206 $201 $198 $293 forward $196 $-1 #
edge $-1 $296 -30.852378788647357 $377 -22.981116535675582 $292 $378 forward 7 unknown #
coedge $-1 $200 $199 $299 $379 reversed $73 $-1 #
edge $-1 $380 2.5434524534472062e-014 $296 14.076112863042002 $290 $381 forward 7 unknown #
vertex $-1 $202 $382 #
straight-curve $-1 -61.972177793416364 -6.6512484768057476 13.317340497214174 0 1 0 I I #
coedge $-1 $375 $203 $206 $303 reversed $288 $-1 #
coedge $-1 $203 $375 $294 $379 forward $288 $-1 #
vertex $-1 $204 $383 #
straight-curve $-1 -69.843440046388139 -22.955300532963697 39.879812164169344 0 0 1 I I #
straight-curve $-1 -69.843440046388153 -22.955300532963697 1.6477139445759974 -0.55919289150049634 0 -0.82903758062907751 I I #
edge $-1 $377 3.6496933742592912 $207 22.955300532963697 $298 $384 forward 7 unknown #
point $-1 -69.843440046388139 -22.955300532963697 13.317340497214174 #
point $-1 -61.972177793416364 -22.955300532963697 13.317340497214174 #
edge $-1 $385 1 $385 0 $210 $-1 forward 7 unknown #
vertex $-1 $211 $386 #
ellipse-curve $-1 -59.198681814907467 -13.302496953611495 2.9571639889417378 -0.82903758062907751 0 0.55919289150049634 1.3979822287512409 0 2.0725939515726939 1 I I #
point $-1 -64.509826691151005 -13.302496953611495 9.5551211724677785 #
plane-surface $-1 0 0 13.317340497214174 0 0 1 1 0 0 forward_v I I I I #
coedge $-1 $321 $320 $313 $387 forward $215 $-1 #
coedge $-1 $313 $217 $219 $317 reversed $132 $-1 #
coedge $-1 $217 $312 $311 $387 reversed $132 $-1 #
coedge $-1 $225 $220 $217 $315 forward $226 $-1 #
edge $-1 $318 35.37766148351966 $388 55.457892943112611 $314 $389 forward 7 unknown #
coedge $-1 $219 $218 $321 $390 reversed $82 $-1 #
edge $-1 $391 -139.68688009277631 $318 -115.74394905641117 $312 $392 forward 7 unknown #
vertex $-1 $221 $393 #
straight-curve $-1 49.763208586795201 -8.7762450738216202 13.317340497214168 0 -1 0 I I #
coedge $-1 $311 $222 $225 $325 reversed $215 $-1 #
coedge $-1 $222 $311 $316 $390 forward $215 $-1 #
vertex $-1 $223 $394 #
straight-curve $-1 69.843440046388139 -8.2190351985674397 96.753644230335823 0 0 1 I I #
straight-curve $-1 -47.307834368224462 -8.2190351985674397 76.356014046059059 0.83867056331134215 0 -0.54463904215088732 I I #
edge $-1 $388 -26.885945096719041 $227 -8.2190351985674397 $320 $395 forward 7 unknown #
point $-1 69.843440046388139 -8.2190351985674397 13.317340497214174 #
point $-1 49.763208586795187 -8.2190351985674397 13.317340497214175 #
edge $-1 $396 1 $396 0 $230 $-1 forward 7 unknown #
vertex $-1 $231 $397 #
ellipse-curve $-1 58.961832313434471 -23.152563117088722 5.5014289553941609 0.54463904215088732 0 0.83867056331134215 1.2580058449670133 0 -0.81695856322633098 1 I I #
point $-1 61.061330161558679 -23.152563117088722 5.9802544210225221 #
edge $-1 $398 1 $398 0 $234 $-1 forward 7 unknown #
vertex $-1 $235 $399 #
ellipse-curve $-1 58.961832313434471 -17.55249014764324 5.5014289553941609 0.54463904215088732 0 0.83867056331134215 1.2580058449670133 0 -0.81695856322633098 1 I I #
point $-1 61.061330161558679 -17.55249014764324 5.9802544210225221 #
edge $-1 $400 1 $400 0 $238 $-1 forward 7 unknown #
vertex $-1 $239 $401 #
ellipse-curve $-1 58.961832313434471 -11.952417178197759 5.5014289553941609 0.54463904215088732 0 0.83867056331134215 1.2580058449670133 0 -0.81695856322633098 1 I I #
point $-1 61.061330161558679 -11.952417178197759 5.9802544210225221 #
plane-surface $-1 69.843440046388139 0 0 -1 0 0 0 0 1 forward_v I I I I #
coedge $-1 $351 $245 $248 $344 reversed $161 $-1 #
edge $-1 $259 -13.317340497214174 $347 13.317340497214174 $258 $402 forward 7 unknown #
straight-curve $-1 69.843440046388139 -38.148837801148467 0 0 0 -1 I I #
edge $-1 $345 -38.148837801148467 $347 38.148837801148467 $341 $403 forward 7 unknown #
vertex $-1 $344 $404 #
straight-curve $-1 0 -38.148837801148467 -13.317340497214174 -1 0 0 I I #
vertex $-1 $251 $405 #
straight-curve $-1 0 38.148837801148467 -13.317340497214174 1 0 0 I I #
point $-1 69.843440046388139 38.148837801148467 -13.317340497214174 #
point $-1 69.843440046388139 -38.148837801148467 -13.317340497214174 #
coedge $-1 $255 $341 $261 $354 reversed $161 $-1 #
straight-curve $-1 -69.843440046388139 0 13.317340497214174 0 -1 0 I I #
point $-1 -69.843440046388139 38.148837801148467 13.317340497214174 #
edge $-1 $262 -13.317340497214174 $345 13.317340497214174 $351 $406 forward 7 unknown #
point $-1 -69.843440046388139 -38.148837801148467 13.317340497214174 #
straight-curve $-1 69.843440046388139 38.148837801148467 0 0 0 -1 I I #
plane-surface $-1 -69.843440046388139 0 0 1 0 0 0 0 -1 forward_v I I I I #
coedge $-1 $360 $369 $364 $407 forward $268 $-1 #
coedge $-1 $271 $270 $408 $409 forward $109 $-1 #
coedge $-1 $408 $358 $272 $361 reversed $268 $-1 #
edge $-1 $362 -69.843440046388139 $365 69.843440046388139 $360 $410 forward 7 unknown #
vertex $-1 $409 $411 #
straight-curve $-1 69.843440046388139 0 -13.317340497214174 0 -1 0 I I #
coedge $-1 $280 $274 $358 $407 reversed $281 $-1 #
vertex $-1 $275 $412 #
straight-curve $-1 -69.843440046388139 0 -13.317340497214174 0 1 0 I I #
point $-1 -69.843440046388139 -38.148837801148467 -13.317340497214174 #
point $-1 69.843440046388139 -38.148837801148467 -13.317340497214174 #
coedge $-1 $358 $408 $283 $370 reversed $268 $-1 #
edge $-1 $371 -69.843440046388139 $373 69.843440046388139 $369 $413 forward 7 unknown #
vertex $-1 $284 $414 #
straight-curve $-1 -69.843440046388139 -43.780284153363183 -7.9044859725400247 0 -1 0 I I #
vertex $-1 $285 $415 #
straight-curve $-1 69.843440046388139 -43.780284153363183 -7.9044859725400247 0 1 0 I I #
coedge $-1 $299 $298 $291 $376 forward $288 $-1 #
edge $-1 $377 26.562471666955169 $380 38.232098219593325 $375 $416 forward 7 unknown #
vertex $-1 $303 $417 #
straight-curve $-1 -92.824556582063721 -3.6496933742592912 13.317340497214175 -1 0 0 I I #
edge $-1 $380 -3.0015551025464564 $300 16.30405205615795 $299 $418 forward 7 unknown #
vertex $-1 $379 $419 #
straight-curve $-1 -69.843440046388153 -3.6496933742592912 1.6477139445759974 0.55919289150049634 0 0.82903758062907751 I I #
point $-1 -61.972177793416364 -3.6496933742592912 13.317340497214174 #
point $-1 -69.843440046388139 -22.955300532963697 1.6477139445760185 #
straight-curve $-1 -69.843440046388139 0 13.317340497214174 0 -1 0 I I #
vertex $-1 $306 $420 #
point $-1 -57.80069958615622 -13.302496953611495 5.0297579405144317 #
edge $-1 $388 83.436303733121647 $391 96.476558759052295 $311 $421 forward 7 unknown #
vertex $-1 $325 $422 #
straight-curve $-1 14.385547103275528 -26.885945096719041 13.317340497214175 1 0 0 I I #
edge $-1 $391 -18.109700022897421 $322 0.55720987525418053 $321 $423 forward 7 unknown #
vertex $-1 $390 $424 #
straight-curve $-1 -47.307834368224462 -26.885945096719041 76.356014046059059 -0.83867056331134215 0 0.54463904215088732 I I #
point $-1 49.763208586795187 -26.885945096719041 13.317340497214175 #
point $-1 69.843440046388153 -8.2190351985674397 0.27708547128352734 #
straight-curve $-1 69.843440046388139 0 13.317340497214174 0 1 0 I I #
vertex $-1 $328 $425 #
point $-1 60.21983815840148 -23.152563117088722 4.6844703921678299 #
vertex $-1 $332 $426 #
point $-1 60.21983815840148 -17.55249014764324 4.6844703921678299 #
vertex $-1 $336 $427 #
point $-1 60.21983815840148 -11.952417178197759 4.6844703921678299 #
straight-curve $-1 -69.843440046388139 38.148837801148467 0 0 0 -1 I I #
straight-curve $-1 -69.843440046388139 0 -13.317340497214174 0 1 0 I I #
point $-1 -69.843440046388139 -38.148837801148467 -13.317340497214174 #
point $-1 -69.843440046388139 38.148837801148467 -13.317340497214174 #
straight-curve $-1 -69.843440046388139 -38.148837801148467 0 0 0 -1 I I #
edge $-1 $371 -2.7064272623370744 $365 2.7064272623370744 $364 $428 forward 7 unknown #
coedge $-1 $369 $360 $359 $409 reversed $268 $-1 #
edge $-1 $373 -2.7064272623370744 $362 2.7064272623370744 $359 $429 forward 7 unknown #
straight-curve $-1 0 -49.411730505577893 -13.317340497214174 -1 0 0 I I #
point $-1 69.843440046388139 -49.411730505577893 -13.317340497214174 #
point $-1 -69.843440046388139 -49.411730505577893 -13.317340497214174 #
straight-curve $-1 0 -49.411730505577893 -7.9044859725400247 1 0 0 I I #
point $-1 -69.843440046388139 -49.411730505577893 -7.9044859725400247 #
point $-1 69.843440046388139 -49.411730505577893 -7.9044859725400247 #
straight-curve $-1 -69.843440046388139 -3.6496933742592912 39.879812164169344 0 0 -1 I I #
point $-1 -69.843440046388139 -3.6496933742592912 13.317340497214174 #
straight-curve $-1 -69.843440046388139 -6.6512484768057476 1.6477139445760058 0 -1 0 I I #
point $-1 -69.843440046388139 -3.6496933742592912 1.6477139445760185 #
point $-1 -57.126087863334767 -13.302496953611495 1.5591817601904969 #
straight-curve $-1 69.843440046388139 -26.885945096719041 96.753644230335823 0 0 -1 I I #
point $-1 69.843440046388139 -26.885945096719041 13.317340497214174 #
straight-curve $-1 69.843440046388139 -8.7762450738216202 0.27708547128352023 0 1 0 I I #
point $-1 69.843440046388153 -26.885945096719041 0.27708547128352734 #
point $-1 58.144873750208134 -23.152563117088722 4.2434231104271483 #
point $-1 58.144873750208134 -17.55249014764324 4.2434231104271483 #
point $-1 58.144873750208134 -11.952417178197759 4.2434231104271483 #
straight-curve $-1 -69.843440046388139 -49.411730505577893 -10.610913234877099 0 0 -1 I I #
straight-curve $-1 69.843440046388139 -49.411730505577893 -10.610913234877099 0 0 -1 I I #
End-of-ACIS-data 