500 0 9 0           
7 Unknown 11 ACIS 5.0 NT 24 Fri Mar 26 19:34:07 1999 
-1 9.9999999999999995e-007 1e-010 
body $-1 $9 $-1 $10 #
body $-1 $11 $-1 $12 #
body $-1 $13 $-1 $14 #
body $-1 $15 $-1 $16 #
body $-1 $17 $-1 $18 #
body $-1 $19 $-1 $20 #
body $-1 $21 $-1 $22 #
body $-1 $23 $-1 $24 #
body $-1 $25 $-1 $26 #
lump $-1 $-1 $27 $0 #
transform $-1 1 0 0 0 1 0 0 0 1 76.3487655262917 36.716703155209572 11.241471889208455 1 rotate no_reflect no_shear #
lump $-1 $-1 $28 $1 #
transform $-1 1 0 0 0 1 0 0 0 1 76.3487655262917 36.716703155209572 11.241471889208455 1 rotate no_reflect no_shear #
lump $-1 $-1 $29 $2 #
transform $-1 1 0 0 0 1 0 0 0 1 76.3487655262917 36.716703155209572 11.241471889208455 1 rotate no_reflect no_shear #
lump $-1 $-1 $30 $3 #
transform $-1 1 0 0 0 1 0 0 0 1 76.3487655262917 36.716703155209572 11.241471889208455 1 rotate no_reflect no_shear #
lump $-1 $-1 $31 $4 #
transform $-1 1 0 0 0 1 0 0 0 1 76.3487655262917 36.716703155209572 11.241471889208455 1 rotate no_reflect no_shear #
lump $-1 $-1 $32 $5 #
transform $-1 1 0 0 0 1 0 0 0 1 76.3487655262917 36.716703155209572 11.241471889208455 1 rotate no_reflect no_shear #
lump $-1 $-1 $33 $6 #
transform $-1 1 0 0 0 1 0 0 0 1 76.3487655262917 36.716703155209572 11.241471889208455 1 rotate no_reflect no_shear #
lump $-1 $-1 $34 $7 #
transform $-1 1 0 0 0 1 0 0 0 1 76.3487655262917 36.716703155209572 11.241471889208455 1 rotate no_reflect no_shear #
lump $-1 $-1 $35 $8 #
transform $-1 1 0 0 0 1 0 0 0 1 76.3487655262917 36.716703155209572 11.241471889208455 1 rotate no_reflect no_shear #
shell $-1 $-1 $-1 $36 $-1 $9 #
shell $-1 $-1 $-1 $37 $-1 $11 #
shell $-1 $-1 $-1 $38 $-1 $13 #
shell $-1 $-1 $-1 $39 $-1 $15 #
shell $-1 $-1 $-1 $40 $-1 $17 #
shell $-1 $-1 $-1 $41 $-1 $19 #
shell $-1 $-1 $-1 $42 $-1 $21 #
shell $-1 $-1 $-1 $43 $-1 $23 #
shell $-1 $-1 $-1 $44 $-1 $25 #
face $-1 $45 $46 $27 $-1 $47 forward single #
face $-1 $48 $49 $28 $-1 $50 forward single #
face $-1 $51 $52 $29 $-1 $53 reversed single #
face $-1 $54 $55 $30 $-1 $56 forward single #
face $-1 $57 $58 $31 $-1 $59 forward single #
face $-1 $60 $61 $32 $-1 $62 forward single #
face $-1 $63 $64 $33 $-1 $65 reversed single #
face $-1 $66 $67 $34 $-1 $68 forward single #
face $-1 $69 $70 $35 $-1 $71 forward single #
face $-1 $72 $73 $27 $-1 $74 reversed single #
loop $-1 $-1 $75 $36 #
plane-surface $-1 0 0 11.241471889208455 0 0 1 1 0 0 forward_v I I I I #
face $-1 $76 $77 $28 $-1 $78 reversed single #
loop $-1 $-1 $79 $37 #
plane-surface $-1 0 -36.716703155209572 0 0 1 0 0 0 1 forward_v I I I I #
face $-1 $80 $81 $29 $-1 $82 reversed single #
loop $-1 $-1 $83 $38 #
plane-surface $-1 128.59105679312637 7.9199738566521738 210.82014144062714 0 -1 0 -0.85716730853699208 0 -0.51503806187062418 forward_v I I I I #
face $-1 $84 $85 $30 $-1 $86 forward single #
loop $-1 $87 $88 $39 #
cone-surface $-1 72.929788020060656 0.52470308171644575 6.0071015548131381 -0.85716730853699208 0 -0.51503806187062418 0.25751903093531209 0 -0.42858365426849604 1 I I 0 1 0.5 forward I I I I #
face $-1 $89 $90 $31 $-1 $91 forward single #
loop $-1 $92 $93 $40 #
cone-surface $-1 72.929788020060656 3.2979296223173407 6.0071015548131381 -0.85716730853699208 0 -0.51503806187062418 0.25751903093531209 0 -0.42858365426849604 1 I I 0 1 0.5 forward I I I I #
face $-1 $94 $95 $32 $-1 $96 forward single #
loop $-1 $97 $98 $41 #
cone-surface $-1 72.929788020060656 6.0711561629182427 6.0071015548131381 -0.85716730853699208 0 -0.51503806187062418 0.25751903093531209 0 -0.42858365426849604 1 I I 0 1 0.5 forward I I I I #
face $-1 $99 $100 $33 $-1 $101 reversed single #
loop $-1 $-1 $102 $42 #
plane-surface $-1 -159.51380257757609 -22.953041154724311 132.62117491203423 0 1 0 -0.54463904215088732 0 0.83867056331134215 forward_v I I I I #
face $-1 $103 $104 $34 $-1 $105 forward single #
loop $-1 $106 $107 $43 #
cone-surface $-1 -70.385554540136241 -19.145279630607433 6.6408955520111963 0.54463904215088732 0 -0.83867056331134215 1.2580058449670133 0 0.81695856322633098 1 I I 0 1 1.5 forward I I I I #
face $-1 $108 $109 $35 $-1 $110 forward single #
loop $-1 $111 $112 $44 #
cone-surface $-1 -70.385554540136241 -13.433637344432121 6.6408955520111963 0.54463904215088732 0 -0.83867056331134215 1.2580058449670133 0 0.81695856322633098 1 I I 0 1 1.5 forward I I I I #
face $-1 $113 $114 $27 $-1 $115 reversed single #
loop $-1 $-1 $116 $45 #
plane-surface $-1 0 0 -11.241471889208455 0 0 1 1 0 0 forward_v I I I I #
coedge $-1 $117 $118 $119 $120 forward $46 $-1 #
face $-1 $121 $122 $28 $-1 $123 forward single #
loop $-1 $-1 $124 $48 #
plane-surface $-1 -76.3487655262917 0 0 1 0 0 0 0 -1 forward_v I I I I #
coedge $-1 $125 $126 $127 $128 forward $49 $-1 #
face $-1 $129 $130 $29 $-1 $131 reversed single #
loop $-1 $-1 $132 $51 #
plane-surface $-1 -2.296274919460302 3.2979296223173407 132.17510099487515 0.85716730853699208 0 0.51503806187062418 0.51503806187062418 0 -0.85716730853699208 forward_v I I I I #
coedge $-1 $133 $134 $135 $136 reversed $52 $-1 #
face $-1 $-1 $137 $30 $-1 $138 forward single #
loop $-1 $139 $140 $54 #
cone-surface $-1 72.286912538657916 0.52470308171644575 5.62082300841017 -0.85716730853699208 0 -0.51503806187062418 0.12875951546765604 0 -0.21429182713424802 1 I I -0.70710678118654746 0.70710678118654746 0.25 forward I I I I #
loop $-1 $-1 $141 $39 #
coedge $-1 $88 $88 $142 $143 reversed $55 $-1 #
face $-1 $-1 $144 $31 $-1 $145 forward single #
loop $-1 $146 $147 $57 #
cone-surface $-1 72.286912538657916 3.2979296223173407 5.62082300841017 -0.85716730853699208 0 -0.51503806187062418 0.12875951546765604 0 -0.21429182713424802 1 I I -0.70710678118654746 0.70710678118654746 0.25 forward I I I I #
loop $-1 $-1 $148 $40 #
coedge $-1 $93 $93 $149 $150 reversed $58 $-1 #
face $-1 $-1 $151 $32 $-1 $152 forward single #
loop $-1 $153 $154 $60 #
cone-surface $-1 72.286912538657916 6.0711561629182427 5.62082300841017 -0.85716730853699208 0 -0.51503806187062418 0.12875951546765604 0 -0.21429182713424802 1 I I -0.70710678118654746 0.70710678118654746 0.25 forward I I I I #
loop $-1 $-1 $155 $41 #
coedge $-1 $98 $98 $156 $157 reversed $61 $-1 #
face $-1 $158 $159 $33 $-1 $160 reversed single #
loop $-1 $-1 $161 $63 #
plane-surface $-1 -76.348765526291686 -16.289458487519777 4.5582505279129464 -0.54463904215088732 0 0.83867056331134215 0.83867056331134215 0 0.54463904215088732 forward_v I I I I #
coedge $-1 $162 $163 $164 $165 reversed $64 $-1 #
face $-1 $-1 $166 $34 $-1 $167 forward single #
loop $-1 $168 $169 $66 #
cone-surface $-1 -69.159493386355408 -19.145279630607433 4.7529269729781642 0.54463904215088732 0 -0.83867056331134215 0.62900292248350664 0 0.40847928161316549 1 I I -0.70710678118654757 0.70710678118654757 0.75 forward I I I I #
loop $-1 $-1 $170 $43 #
coedge $-1 $107 $107 $171 $172 reversed $67 $-1 #
face $-1 $-1 $173 $35 $-1 $174 forward single #
loop $-1 $175 $176 $69 #
cone-surface $-1 -69.159493386355408 -13.433637344432121 4.7529269729781642 0.54463904215088732 0 -0.83867056331134215 0.62900292248350664 0 0.40847928161316549 1 I I -0.70710678118654757 0.70710678118654757 0.75 forward I I I I #
loop $-1 $-1 $177 $44 #
coedge $-1 $112 $112 $178 $179 reversed $70 $-1 #
face $-1 $180 $181 $27 $-1 $182 reversed single #
loop $-1 $-1 $183 $72 #
plane-surface $-1 0 -36.716703155209572 0 0 1 0 0 0 1 forward_v I I I I #
coedge $-1 $184 $185 $186 $187 forward $73 $-1 #
coedge $-1 $188 $75 $189 $190 forward $46 $-1 #
coedge $-1 $75 $188 $191 $192 forward $46 $-1 #
coedge $-1 $193 $194 $75 $120 reversed $195 $-1 #
edge $-1 $196 -36.716703155209572 $197 36.716703155209572 $119 $198 forward 7 unknown #
face $-1 $199 $200 $28 $-1 $201 reversed single #
loop $-1 $-1 $202 $76 #
plane-surface $-1 0 -43.598534155452207 -5.2047863469949576 0 0 1 1 0 0 forward_v I I I I #
coedge $-1 $203 $204 $126 $205 forward $77 $-1 #
coedge $-1 $206 $79 $207 $208 reversed $49 $-1 #
coedge $-1 $79 $206 $124 $205 reversed $49 $-1 #
coedge $-1 $209 $202 $79 $128 reversed $122 $-1 #
edge $-1 $210 -76.3487655262917 $211 76.3487655262917 $127 $212 forward 7 unknown #
face $-1 $213 $214 $29 $-1 $215 reversed single #
loop $-1 $-1 $216 $80 #
plane-surface $-1 128.59105679312637 -1.3241146120174925 210.82014144062714 0 1 0 0.85716730853699208 0 0.51503806187062418 forward_v I I I I #
coedge $-1 $217 $218 $219 $220 reversed $81 $-1 #
coedge $-1 $134 $83 $221 $222 reversed $52 $-1 #
coedge $-1 $83 $133 $217 $223 reversed $52 $-1 #
coedge $-1 $219 $224 $83 $136 forward $225 $-1 #
edge $-1 $226 -12.053237129728515 $227 -6.0724494258033843 $135 $228 forward 7 unknown #
loop $-1 $-1 $142 $84 #
plane-surface $-1 -2.296274919460302 3.2979296223173407 132.17510099487515 0.85716730853699208 0 0.51503806187062418 0.51503806187062418 0 -0.85716730853699208 forward_v I I I I #
loop $-1 $-1 $229 $54 #
coedge $-1 $140 $140 $141 $230 reversed $85 $-1 #
coedge $-1 $141 $141 $140 $230 forward $87 $-1 #
coedge $-1 $142 $142 $88 $143 forward $137 $-1 #
edge $-1 $231 0 $231 6.2831853071796004 $142 $232 forward 7 unknown #
loop $-1 $-1 $149 $89 #
plane-surface $-1 -2.296274919460302 3.2979296223173407 132.17510099487515 0.85716730853699208 0 0.51503806187062418 0.51503806187062418 0 -0.85716730853699208 forward_v I I I I #
loop $-1 $-1 $233 $57 #
coedge $-1 $147 $147 $148 $234 reversed $90 $-1 #
coedge $-1 $148 $148 $147 $234 forward $92 $-1 #
coedge $-1 $149 $149 $93 $150 forward $144 $-1 #
edge $-1 $235 0 $235 6.2831853071796004 $149 $236 forward 7 unknown #
loop $-1 $-1 $156 $94 #
plane-surface $-1 -2.296274919460302 3.2979296223173407 132.17510099487515 0.85716730853699208 0 0.51503806187062418 0.51503806187062418 0 -0.85716730853699208 forward_v I I I I #
loop $-1 $-1 $237 $60 #
coedge $-1 $154 $154 $155 $238 reversed $95 $-1 #
coedge $-1 $155 $155 $154 $238 forward $97 $-1 #
coedge $-1 $156 $156 $98 $157 forward $151 $-1 #
edge $-1 $239 0 $239 6.2831853071796004 $156 $240 forward 7 unknown #
face $-1 $241 $242 $33 $-1 $243 forward single #
loop $-1 $-1 $244 $99 #
plane-surface $-1 -159.51380257757609 -9.6258758203152439 132.62117491203423 0 -1 0 0.54463904215088732 0 -0.83867056331134215 forward_v I I I I #
coedge $-1 $245 $246 $247 $248 reversed $100 $-1 #
coedge $-1 $163 $102 $249 $250 reversed $64 $-1 #
coedge $-1 $102 $162 $245 $251 reversed $64 $-1 #
coedge $-1 $247 $252 $102 $165 forward $242 $-1 #
edge $-1 $253 3.4081357624963431 $254 13.699393990472018 $164 $255 forward 7 unknown #
loop $-1 $-1 $171 $103 #
plane-surface $-1 -76.348765526291686 -16.289458487519777 4.5582505279129464 -0.54463904215088732 0 0.83867056331134215 0.83867056331134215 0 0.54463904215088732 forward_v I I I I #
loop $-1 $-1 $256 $66 #
coedge $-1 $169 $169 $170 $257 reversed $104 $-1 #
coedge $-1 $170 $170 $169 $257 forward $106 $-1 #
coedge $-1 $171 $171 $107 $172 forward $166 $-1 #
edge $-1 $258 0 $258 6.2831853071796004 $171 $259 forward 7 unknown #
loop $-1 $-1 $178 $108 #
plane-surface $-1 -76.348765526291686 -16.289458487519777 4.5582505279129464 -0.54463904215088732 0 0.83867056331134215 0.83867056331134215 0 0.54463904215088732 forward_v I I I I #
loop $-1 $-1 $260 $69 #
coedge $-1 $176 $176 $177 $261 reversed $109 $-1 #
coedge $-1 $177 $177 $176 $261 forward $111 $-1 #
coedge $-1 $178 $178 $112 $179 forward $173 $-1 #
edge $-1 $262 0 $262 6.2831853071796004 $178 $263 forward 7 unknown #
face $-1 $264 $265 $27 $-1 $266 reversed single #
loop $-1 $-1 $267 $113 #
plane-surface $-1 -76.3487655262917 0 0 1 0 0 0 0 -1 forward_v I I I I #
coedge $-1 $268 $191 $269 $270 forward $114 $-1 #
coedge $-1 $271 $116 $268 $272 forward $73 $-1 #
coedge $-1 $116 $271 $273 $274 forward $73 $-1 #
coedge $-1 $194 $193 $116 $187 reversed $195 $-1 #
edge $-1 $275 -36.716703155209572 $276 36.716703155209572 $186 $277 forward 7 unknown #
coedge $-1 $118 $117 $278 $279 forward $46 $-1 #
coedge $-1 $280 $281 $117 $190 reversed $265 $-1 #
edge $-1 $197 -76.3487655262917 $282 76.3487655262917 $189 $283 forward 7 unknown #
coedge $-1 $183 $284 $118 $192 reversed $114 $-1 #
edge $-1 $285 -76.3487655262917 $196 76.3487655262917 $191 $286 forward 7 unknown #
coedge $-1 $186 $119 $284 $287 forward $195 $-1 #
coedge $-1 $119 $186 $280 $288 reversed $195 $-1 #
loop $-1 $-1 $193 $264 #
vertex $-1 $120 $289 #
vertex $-1 $120 $290 #
straight-curve $-1 76.3487655262917 0 11.241471889208455 0 1 0 I I #
face $-1 $291 $292 $28 $-1 $293 reversed single #
loop $-1 $-1 $294 $121 #
plane-surface $-1 0 -43.598534155452207 -9.918265832020591 0 0 1 1 0 0 forward_v I I I I #
coedge $-1 $127 $295 $296 $297 forward $122 $-1 #
coedge $-1 $298 $124 $299 $300 reversed $77 $-1 #
coedge $-1 $124 $298 $209 $301 reversed $77 $-1 #
edge $-1 $210 5.2047863469949576 $302 9.918265832020591 $124 $303 forward 7 unknown #
coedge $-1 $126 $125 $304 $305 forward $49 $-1 #
coedge $-1 $296 $306 $125 $208 forward $307 $-1 #
edge $-1 $308 -9.918265832020591 $211 -5.2047863469949576 $207 $309 forward 7 unknown #
coedge $-1 $295 $127 $204 $301 forward $122 $-1 #
vertex $-1 $205 $310 #
vertex $-1 $297 $311 #
straight-curve $-1 0 -36.716703155209572 -5.2047863469949576 1 0 0 I I #
face $-1 $-1 $225 $29 $-1 $312 forward single #
loop $-1 $-1 $313 $129 #
plane-surface $-1 76.3487655262917 0 0 -1 0 0 0 0 1 forward_v I I I I #
coedge $-1 $314 $315 $316 $317 reversed $130 $-1 #
coedge $-1 $318 $132 $134 $223 forward $81 $-1 #
coedge $-1 $132 $318 $314 $319 forward $81 $-1 #
coedge $-1 $316 $135 $132 $220 forward $225 $-1 #
edge $-1 $227 -6.2710090454935035 $320 2.9730794231761628 $219 $321 forward 7 unknown #
coedge $-1 $322 $323 $133 $222 forward $214 $-1 #
edge $-1 $324 -104.12230143802509 $226 -94.168598831105115 $221 $325 forward 7 unknown #
edge $-1 $227 141.08520927154294 $324 152.6975310525834 $134 $326 forward 7 unknown #
coedge $-1 $135 $316 $322 $327 forward $225 $-1 #
loop $-1 $-1 $316 $213 #
vertex $-1 $222 $328 #
vertex $-1 $136 $329 #
straight-curve $-1 64.295528396563185 7.9199738566521738 11.241471889208455 -1 0 0 I I #
coedge $-1 $229 $229 $-1 $330 reversed $139 $-1 #
edge $-1 $331 0 $331 6.2831853071796004 $140 $332 forward 7 unknown #
vertex $-1 $143 $333 #
ellipse-curve $-1 73.358371674329135 0.52470308171644575 6.2646205857484425 0.85716730853699208 0 0.51503806187062418 0.25751903093531209 0 -0.42858365426849604 1 I I #
coedge $-1 $233 $233 $-1 $334 reversed $146 $-1 #
edge $-1 $335 0 $335 6.2831853071796004 $147 $336 forward 7 unknown #
vertex $-1 $150 $337 #
ellipse-curve $-1 73.358371674329135 3.2979296223173407 6.2646205857484425 0.85716730853699208 0 0.51503806187062418 0.25751903093531209 0 -0.42858365426849604 1 I I #
coedge $-1 $237 $237 $-1 $338 reversed $153 $-1 #
edge $-1 $339 0 $339 6.2831853071796004 $154 $340 forward 7 unknown #
vertex $-1 $157 $341 #
ellipse-curve $-1 73.358371674329135 6.0711561629182427 6.2646205857484425 0.85716730853699208 0 0.51503806187062418 0.25751903093531209 0 -0.42858365426849604 1 I I #
face $-1 $-1 $342 $33 $-1 $343 reversed single #
loop $-1 $-1 $164 $158 #
plane-surface $-1 0 0 11.241471889208455 0 0 1 1 0 0 forward_v I I I I #
coedge $-1 $344 $345 $346 $347 reversed $159 $-1 #
coedge $-1 $348 $161 $163 $251 forward $100 $-1 #
coedge $-1 $161 $348 $344 $349 forward $100 $-1 #
coedge $-1 $346 $164 $161 $248 forward $242 $-1 #
edge $-1 $254 -14.808311910964422 $350 -1.4811465765553553 $247 $351 forward 7 unknown #
coedge $-1 $352 $353 $162 $250 forward $342 $-1 #
edge $-1 $354 -61.752336928104178 $253 -55.069115566808662 $249 $355 forward 7 unknown #
edge $-1 $254 -12.270918615937166 $354 1.6755591966779756e-014 $163 $356 forward 7 unknown #
coedge $-1 $164 $346 $352 $357 forward $242 $-1 #
vertex $-1 $165 $358 #
vertex $-1 $165 $359 #
straight-curve $-1 -79.756901288788043 -22.953041154724311 11.241471889208455 1 0 0 I I #
coedge $-1 $256 $256 $-1 $360 reversed $168 $-1 #
edge $-1 $361 0 $361 6.2831853071796004 $169 $362 forward 7 unknown #
vertex $-1 $172 $363 #
ellipse-curve $-1 -71.203136412303877 -19.145279630607433 7.8998612085606856 -0.54463904215088732 0 0.83867056331134215 1.2580058449670133 0 0.81695856322633098 1 I I #
coedge $-1 $260 $260 $-1 $364 reversed $175 $-1 #
edge $-1 $365 0 $365 6.2831853071796004 $176 $366 forward 7 unknown #
vertex $-1 $179 $367 #
ellipse-curve $-1 -71.203136412303877 -13.433637344432121 7.8998612085606856 -0.54463904215088732 0 0.83867056331134215 1.2580058449670133 0 0.81695856322633098 1 I I #
face $-1 $-1 $195 $27 $-1 $368 reversed single #
loop $-1 $-1 $280 $180 #
plane-surface $-1 0 36.716703155209572 0 0 -1 0 0 0 -1 forward_v I I I I #
coedge $-1 $369 $278 $281 $370 forward $181 $-1 #
coedge $-1 $284 $183 $184 $272 reversed $114 $-1 #
coedge $-1 $278 $369 $183 $270 reversed $181 $-1 #
edge $-1 $285 -11.241471889208455 $371 11.241471889208455 $269 $372 forward 7 unknown #
coedge $-1 $185 $184 $369 $373 forward $73 $-1 #
edge $-1 $276 -76.3487655262917 $371 76.3487655262917 $268 $374 forward 7 unknown #
coedge $-1 $281 $280 $185 $274 reversed $265 $-1 #
edge $-1 $375 -76.3487655262917 $275 76.3487655262917 $273 $376 forward 7 unknown #
vertex $-1 $187 $377 #
vertex $-1 $287 $378 #
straight-curve $-1 76.3487655262917 0 -11.241471889208455 0 -1 0 I I #
coedge $-1 $267 $269 $188 $279 reversed $181 $-1 #
edge $-1 $282 -36.716703155209572 $285 36.716703155209572 $278 $379 forward 7 unknown #
coedge $-1 $273 $189 $194 $288 forward $265 $-1 #
coedge $-1 $189 $273 $267 $370 reversed $265 $-1 #
vertex $-1 $190 $380 #
straight-curve $-1 0 36.716703155209572 11.241471889208455 -1 0 0 I I #
coedge $-1 $191 $268 $193 $287 reversed $114 $-1 #
vertex $-1 $279 $381 #
straight-curve $-1 0 -36.716703155209572 11.241471889208455 1 0 0 I I #
edge $-1 $196 -11.241471889208455 $276 11.241471889208455 $193 $382 forward 7 unknown #
edge $-1 $197 -11.241471889208455 $275 11.241471889208455 $194 $383 forward 7 unknown #
point $-1 76.3487655262917 -36.716703155209572 11.241471889208455 #
point $-1 76.3487655262917 36.716703155209572 11.241471889208455 #
face $-1 $-1 $307 $28 $-1 $384 reversed single #
loop $-1 $-1 $385 $199 #
plane-surface $-1 0 -50.480365155694841 -7.5615260895077743 0 1 0 0 0 1 forward_v I I I I #
coedge $-1 $386 $304 $306 $387 forward $200 $-1 #
coedge $-1 $202 $209 $388 $389 forward $122 $-1 #
coedge $-1 $390 $207 $202 $297 reversed $307 $-1 #
edge $-1 $391 -6.8818310002426344 $211 6.8818310002426344 $296 $392 forward 7 unknown #
coedge $-1 $204 $203 $385 $393 reversed $77 $-1 #
coedge $-1 $304 $386 $203 $300 forward $200 $-1 #
edge $-1 $394 -6.8818310002426344 $302 6.8818310002426344 $203 $395 forward 7 unknown #
edge $-1 $210 -6.8818310002426344 $396 6.8818310002426344 $204 $397 forward 7 unknown #
vertex $-1 $205 $398 #
straight-curve $-1 -76.3487655262917 -36.716703155209572 0 0 0 -1 I I #
coedge $-1 $294 $299 $206 $305 reversed $200 $-1 #
edge $-1 $308 -76.3487655262917 $302 76.3487655262917 $304 $399 forward 7 unknown #
coedge $-1 $207 $390 $294 $387 reversed $307 $-1 #
loop $-1 $-1 $207 $291 #
vertex $-1 $208 $400 #
straight-curve $-1 76.3487655262917 -36.716703155209572 0 0 0 1 I I #
point $-1 -76.3487655262917 -36.716703155209572 -5.2047863469949576 #
point $-1 76.3487655262917 -36.716703155209572 -5.2047863469949576 #
plane-surface $-1 0 0 11.241471889208455 0 0 1 1 0 0 forward_v I I I I #
coedge $-1 $323 $322 $315 $401 forward $214 $-1 #
coedge $-1 $315 $216 $218 $319 reversed $130 $-1 #
coedge $-1 $216 $314 $313 $401 reversed $130 $-1 #
coedge $-1 $224 $219 $216 $317 forward $225 $-1 #
edge $-1 $320 6.0724494258033843 $402 12.053237129728515 $316 $403 forward 7 unknown #
coedge $-1 $218 $217 $323 $404 reversed $81 $-1 #
edge $-1 $405 -152.6975310525834 $320 -141.08520927154294 $314 $406 forward 7 unknown #
vertex $-1 $220 $407 #
straight-curve $-1 70.367977822366555 1.6489648111586703 11.241471889208455 0 -1 0 I I #
coedge $-1 $313 $221 $224 $327 reversed $214 $-1 #
coedge $-1 $221 $313 $318 $404 forward $214 $-1 #
vertex $-1 $222 $408 #
straight-curve $-1 76.3487655262917 7.9199738566521738 105.41007072031357 0 0 1 I I #
straight-curve $-1 -2.296274919460302 7.9199738566521738 132.17510099487515 0.51503806187062418 0 -0.85716730853699208 I I #
edge $-1 $402 -1.3241146120174925 $226 7.9199738566521738 $322 $409 forward 7 unknown #
point $-1 76.3487655262917 7.9199738566521738 11.241471889208455 #
point $-1 70.367977822366569 7.9199738566521738 11.241471889208441 #
edge $-1 $410 1 $410 0 $229 $-1 forward 7 unknown #
vertex $-1 $230 $411 #
ellipse-curve $-1 72.501204365792162 0.52470308171644575 5.7495825238778258 0.85716730853699208 0 0.51503806187062418 0.25751903093531209 0 -0.42858365426849604 1 I I #
point $-1 73.615890705264462 0.52470308171644575 5.8360369314799545 #
edge $-1 $412 1 $412 0 $233 $-1 forward 7 unknown #
vertex $-1 $234 $413 #
ellipse-curve $-1 72.501204365792162 3.2979296223173407 5.7495825238778258 0.85716730853699208 0 0.51503806187062418 0.25751903093531209 0 -0.42858365426849604 1 I I #
point $-1 73.615890705264462 3.2979296223173407 5.8360369314799545 #
edge $-1 $414 1 $414 0 $237 $-1 forward 7 unknown #
vertex $-1 $238 $415 #
ellipse-curve $-1 72.501204365792162 6.0711561629182427 5.7495825238778258 0.85716730853699208 0 0.51503806187062418 0.25751903093531209 0 -0.42858365426849604 1 I I #
point $-1 73.615890705264462 6.0711561629182427 5.8360369314799545 #
loop $-1 $-1 $249 $241 #
plane-surface $-1 -76.3487655262917 0 0 1 0 0 0 0 -1 forward_v I I I I #
coedge $-1 $345 $244 $246 $349 reversed $159 $-1 #
coedge $-1 $244 $344 $416 $417 reversed $159 $-1 #
coedge $-1 $252 $247 $244 $347 forward $242 $-1 #
edge $-1 $350 -13.699393990472018 $418 -3.4081357624963431 $346 $419 forward 7 unknown #
coedge $-1 $246 $245 $353 $420 reversed $100 $-1 #
edge $-1 $421 -1.6755591966779756e-014 $350 12.270918615937166 $344 $422 forward 7 unknown #
vertex $-1 $248 $423 #
straight-curve $-1 -66.05750729831604 -8.1447292437598886 11.241471889208455 0 1 0 I I #
coedge $-1 $416 $249 $252 $357 reversed $342 $-1 #
coedge $-1 $249 $416 $348 $420 forward $342 $-1 #
vertex $-1 $250 $424 #
straight-curve $-1 -76.3487655262917 -22.953041154724311 66.310587456017117 0 0 1 I I #
straight-curve $-1 -76.348765526291686 -22.953041154724311 4.5582505279129464 -0.83867056331134215 0 -0.54463904215088732 I I #
edge $-1 $418 9.6258758203152439 $253 22.953041154724311 $352 $425 forward 7 unknown #
point $-1 -76.3487655262917 -22.953041154724311 11.241471889208455 #
point $-1 -66.057507298316025 -22.953041154724311 11.241471889208455 #
edge $-1 $426 1 $426 0 $256 $-1 forward 7 unknown #
vertex $-1 $257 $427 #
ellipse-curve $-1 -69.567972667968576 -19.145279630607433 5.3819298954616706 -0.54463904215088732 0 0.83867056331134215 1.2580058449670133 0 0.81695856322633098 1 I I #
point $-1 -69.945130567336889 -19.145279630607433 8.716819771787053 #
edge $-1 $428 1 $428 0 $260 $-1 forward 7 unknown #
vertex $-1 $261 $429 #
ellipse-curve $-1 -69.567972667968576 -13.433637344432121 5.3819298954616706 -0.54463904215088732 0 0.83867056331134215 1.2580058449670133 0 0.81695856322633098 1 I I #
point $-1 -69.945130567336889 -13.433637344432121 8.716819771787053 #
plane-surface $-1 76.3487655262917 0 0 -1 0 0 0 0 1 forward_v I I I I #
coedge $-1 $269 $267 $271 $373 reversed $181 $-1 #
edge $-1 $282 -11.241471889208455 $375 11.241471889208455 $281 $430 forward 7 unknown #
vertex $-1 $373 $431 #
straight-curve $-1 -76.3487655262917 -36.716703155209572 0 0 0 -1 I I #
edge $-1 $371 -36.716703155209572 $375 36.716703155209572 $369 $432 forward 7 unknown #
straight-curve $-1 0 -36.716703155209572 -11.241471889208455 -1 0 0 I I #
vertex $-1 $274 $433 #
straight-curve $-1 0 36.716703155209572 -11.241471889208455 1 0 0 I I #
point $-1 76.3487655262917 36.716703155209572 -11.241471889208455 #
point $-1 76.3487655262917 -36.716703155209572 -11.241471889208455 #
straight-curve $-1 -76.3487655262917 0 11.241471889208455 0 -1 0 I I #
point $-1 -76.3487655262917 36.716703155209572 11.241471889208455 #
point $-1 -76.3487655262917 -36.716703155209572 11.241471889208455 #
straight-curve $-1 76.3487655262917 -36.716703155209572 0 0 0 -1 I I #
straight-curve $-1 76.3487655262917 36.716703155209572 0 0 0 -1 I I #
plane-surface $-1 76.3487655262917 0 0 -1 0 0 0 0 1 forward_v I I I I #
coedge $-1 $434 $388 $298 $393 forward $292 $-1 #
coedge $-1 $299 $294 $434 $435 forward $200 $-1 #
edge $-1 $308 -6.8818310002426344 $436 6.8818310002426344 $306 $437 forward 7 unknown #
coedge $-1 $385 $438 $295 $389 reversed $292 $-1 #
edge $-1 $396 -76.3487655262917 $391 76.3487655262917 $388 $439 forward 7 unknown #
coedge $-1 $306 $296 $438 $440 forward $307 $-1 #
vertex $-1 $297 $441 #
straight-curve $-1 76.3487655262917 -43.598534155452207 -5.2047863469949576 0 1 0 I I #
edge $-1 $396 -2.3567397425128167 $394 2.3567397425128167 $298 $442 forward 7 unknown #
vertex $-1 $300 $443 #
straight-curve $-1 -76.3487655262917 -43.598534155452207 -9.918265832020591 0 1 0 I I #
vertex $-1 $301 $444 #
straight-curve $-1 -76.3487655262917 -43.598534155452207 -5.2047863469949576 0 -1 0 I I #
point $-1 -76.3487655262917 -36.716703155209572 -9.918265832020591 #
straight-curve $-1 0 -36.716703155209572 -9.918265832020591 -1 0 0 I I #
point $-1 76.3487655262917 -36.716703155209572 -9.918265832020591 #
edge $-1 $402 94.168598831105115 $405 104.12230143802509 $313 $445 forward 7 unknown #
vertex $-1 $327 $446 #
straight-curve $-1 64.295528396563185 -1.3241146120174925 11.241471889208455 1 0 0 I I #
edge $-1 $405 -2.9730794231761628 $324 6.2710090454935035 $323 $447 forward 7 unknown #
vertex $-1 $404 $448 #
straight-curve $-1 -2.296274919460302 -1.3241146120174925 132.17510099487515 -0.51503806187062418 0 0.85716730853699208 I I #
point $-1 70.367977822366569 -1.3241146120174925 11.241471889208441 #
point $-1 76.3487655262917 7.9199738566521738 1.2877692822884796 #
straight-curve $-1 76.3487655262917 0 11.241471889208455 0 1 0 I I #
vertex $-1 $330 $449 #
point $-1 72.758723396727476 0.52470308171644575 5.3209988696093298 #
vertex $-1 $334 $450 #
point $-1 72.758723396727476 3.2979296223173407 5.3209988696093298 #
vertex $-1 $338 $451 #
point $-1 72.758723396727476 6.0711561629182427 5.3209988696093298 #
coedge $-1 $353 $352 $345 $417 forward $342 $-1 #
edge $-1 $418 55.069115566808662 $421 61.752336928104178 $416 $452 forward 7 unknown #
vertex $-1 $357 $453 #
straight-curve $-1 -79.756901288788043 -9.6258758203152439 11.241471889208455 -1 0 0 I I #
edge $-1 $421 1.4811465765553553 $354 14.808311910964422 $353 $454 forward 7 unknown #
vertex $-1 $420 $455 #
straight-curve $-1 -76.348765526291686 -9.6258758203152439 4.5582505279129464 0.83867056331134215 0 0.54463904215088732 I I #
point $-1 -66.057507298316025 -9.6258758203152439 11.241471889208455 #
point $-1 -76.3487655262917 -22.953041154724311 4.5582505279129375 #
straight-curve $-1 -76.3487655262917 0 11.241471889208455 0 -1 0 I I #
vertex $-1 $360 $456 #
point $-1 -68.30996682300156 -19.145279630607433 6.1988884586880015 #
vertex $-1 $364 $457 #
point $-1 -68.30996682300156 -13.433637344432121 6.1988884586880015 #
straight-curve $-1 -76.3487655262917 36.716703155209572 0 0 0 -1 I I #
point $-1 -76.3487655262917 -36.716703155209572 -11.241471889208455 #
straight-curve $-1 -76.3487655262917 0 -11.241471889208455 0 1 0 I I #
point $-1 -76.3487655262917 36.716703155209572 -11.241471889208455 #
coedge $-1 $438 $385 $386 $435 reversed $292 $-1 #
edge $-1 $436 -76.3487655262917 $394 76.3487655262917 $434 $458 forward 7 unknown #
vertex $-1 $440 $459 #
straight-curve $-1 76.3487655262917 -43.598534155452207 -9.918265832020591 0 -1 0 I I #
coedge $-1 $388 $434 $390 $440 reversed $292 $-1 #
straight-curve $-1 0 -50.480365155694841 -5.2047863469949576 1 0 0 I I #
edge $-1 $391 -2.3567397425128167 $436 2.3567397425128167 $390 $460 forward 7 unknown #
point $-1 76.3487655262917 -50.480365155694841 -5.2047863469949576 #
straight-curve $-1 -76.3487655262917 -50.480365155694841 -7.5615260895077743 0 0 -1 I I #
point $-1 -76.3487655262917 -50.480365155694841 -9.918265832020591 #
point $-1 -76.3487655262917 -50.480365155694841 -5.2047863469949576 #
straight-curve $-1 76.3487655262917 -1.3241146120174925 105.41007072031357 0 0 -1 I I #
point $-1 76.3487655262917 -1.3241146120174925 11.241471889208455 #
straight-curve $-1 76.3487655262917 1.6489648111586703 1.2877692822884796 0 1 0 I I #
point $-1 76.3487655262917 -1.3241146120174925 1.2877692822884796 #
point $-1 72.072620711523669 0.52470308171644575 5.4920634929425143 #
point $-1 72.072620711523669 3.2979296223173407 5.4920634929425143 #
point $-1 72.072620711523669 6.0711561629182427 5.4920634929425143 #
straight-curve $-1 -76.3487655262917 -9.6258758203152439 66.310587456017117 0 0 -1 I I #
point $-1 -76.3487655262917 -9.6258758203152439 11.241471889208455 #
straight-curve $-1 -76.3487655262917 -8.1447292437598886 4.5582505279129286 0 -1 0 I I #
point $-1 -76.3487655262917 -9.6258758203152439 4.5582505279129375 #
point $-1 -68.751014104742239 -19.145279630607433 4.1239240504946579 #
point $-1 -68.751014104742239 -13.433637344432121 4.1239240504946579 #
straight-curve $-1 0 -50.480365155694841 -9.918265832020591 -1 0 0 I I #
point $-1 76.3487655262917 -50.480365155694841 -9.918265832020591 #
straight-curve $-1 76.3487655262917 -50.480365155694841 -7.5615260895077743 0 0 -1 I I #
End-of-ACIS-data 