500 0 9 0           
7 Unknown 11 ACIS 5.0 NT 24 Fri Mar 26 16:49:44 1999 
-1 9.9999999999999995e-007 1e-010 
body $-1 $9 $-1 $10 #
body $-1 $11 $-1 $12 #
body $-1 $13 $-1 $14 #
body $-1 $15 $-1 $16 #
body $-1 $17 $-1 $18 #
body $-1 $19 $-1 $20 #
body $-1 $21 $-1 $22 #
body $-1 $23 $-1 $24 #
body $-1 $25 $-1 $26 #
lump $-1 $-1 $27 $0 #
transform $-1 1 0 0 0 1 0 0 0 1 71.502426221503342 35.50092079569059 15.701142740292001 1 rotate no_reflect no_shear #
lump $-1 $-1 $28 $1 #
transform $-1 1 0 0 0 1 0 0 0 1 71.502426221503342 35.50092079569059 15.701142740292001 1 rotate no_reflect no_shear #
lump $-1 $-1 $29 $2 #
transform $-1 1 0 0 0 1 0 0 0 1 71.502426221503342 35.50092079569059 15.701142740292001 1 rotate no_reflect no_shear #
lump $-1 $-1 $30 $3 #
transform $-1 1 0 0 0 1 0 0 0 1 71.502426221503342 35.50092079569059 15.701142740292001 1 rotate no_reflect no_shear #
lump $-1 $-1 $31 $4 #
transform $-1 1 0 0 0 1 0 0 0 1 71.502426221503342 35.50092079569059 15.701142740292001 1 rotate no_reflect no_shear #
lump $-1 $-1 $32 $5 #
transform $-1 1 0 0 0 1 0 0 0 1 71.502426221503342 35.50092079569059 15.701142740292001 1 rotate no_reflect no_shear #
lump $-1 $-1 $33 $6 #
transform $-1 1 0 0 0 1 0 0 0 1 71.502426221503342 35.50092079569059 15.701142740292001 1 rotate no_reflect no_shear #
lump $-1 $-1 $34 $7 #
transform $-1 1 0 0 0 1 0 0 0 1 71.502426221503342 35.50092079569059 15.701142740292001 1 rotate no_reflect no_shear #
lump $-1 $-1 $35 $8 #
transform $-1 1 0 0 0 1 0 0 0 1 71.502426221503342 35.50092079569059 15.701142740292001 1 rotate no_reflect no_shear #
shell $-1 $-1 $-1 $36 $-1 $9 #
shell $-1 $-1 $-1 $37 $-1 $11 #
shell $-1 $-1 $-1 $38 $-1 $13 #
shell $-1 $-1 $-1 $39 $-1 $15 #
shell $-1 $-1 $-1 $40 $-1 $17 #
shell $-1 $-1 $-1 $41 $-1 $19 #
shell $-1 $-1 $-1 $42 $-1 $21 #
shell $-1 $-1 $-1 $43 $-1 $23 #
shell $-1 $-1 $-1 $44 $-1 $25 #
face $-1 $45 $46 $27 $-1 $47 reversed single #
face $-1 $48 $49 $28 $-1 $50 forward single #
face $-1 $51 $52 $29 $-1 $53 reversed single #
face $-1 $54 $55 $30 $-1 $56 forward single #
face $-1 $57 $58 $31 $-1 $59 forward single #
face $-1 $60 $61 $32 $-1 $62 reversed single #
face $-1 $63 $64 $33 $-1 $65 forward single #
face $-1 $66 $67 $34 $-1 $68 reversed single #
face $-1 $69 $70 $35 $-1 $71 forward single #
face $-1 $72 $73 $27 $-1 $74 forward single #
loop $-1 $-1 $75 $36 #
plane-surface $-1 0 -35.50092079569059 0 0 1 0 0 0 1 forward_v I I I I #
face $-1 $76 $77 $28 $-1 $78 forward single #
loop $-1 $-1 $79 $37 #
plane-surface $-1 0 -35.50092079569059 0 0 1 0 0 0 1 forward_v I I I I #
face $-1 $80 $81 $29 $-1 $82 reversed single #
loop $-1 $-1 $83 $38 #
plane-surface $-1 120.42856865746428 -17.656801212278637 197.24332695334471 0 -1 0 -0.85716730853699208 0 -0.51503806187062418 forward_v I I I I #
face $-1 $84 $85 $30 $-1 $86 forward single #
loop $-1 $87 $88 $39 #
cone-surface $-1 66.028543007541387 -22.975107260853875 7.7189431321085928 -0.85716730853699208 0 -0.51503806187062418 0.51503806187062418 0 -0.85716730853699208 1 I I 0 1 1 forward I I I I #
face $-1 $89 $90 $31 $-1 $91 forward single #
loop $-1 $92 $93 $40 #
cone-surface $-1 66.028543007541387 -19.784123631708731 7.7189431321085928 -0.85716730853699208 0 -0.51503806187062418 0.51503806187062418 0 -0.85716730853699208 1 I I 0 1 1 forward I I I I #
face $-1 $94 $95 $32 $-1 $96 reversed single #
loop $-1 $-1 $97 $41 #
plane-surface $-1 -143.0048534009585 -7.4857988017473858 131.05789122509171 0 1 0 -0.50000000669873634 0 0.8660253999169214 forward_v I I I I #
face $-1 $98 $99 $33 $-1 $100 forward single #
loop $-1 $101 $102 $42 #
cone-surface $-1 -63.326143603800091 -2.1919527070905644 10.028491669649327 0.50000000669873634 0 -0.8660253999169214 1.7320507998338428 0 1.0000000133974727 1 I I 0 1 2 forward I I I I #
face $-1 $103 $104 $34 $-1 $105 reversed single #
loop $-1 $-1 $106 $43 #
plane-surface $-1 -143.0048534009585 7.2965977278403642 131.05789122509171 0 1 0 -0.50000000669873634 0 0.8660253999169214 forward_v I I I I #
face $-1 $107 $108 $35 $-1 $109 forward single #
loop $-1 $110 $111 $44 #
cone-surface $-1 -63.326143603800091 12.590443822497186 10.028491669649327 0.50000000669873634 0 -0.8660253999169214 1.7320507998338428 0 1.0000000133974727 1 I I 0 1 2 forward I I I I #
face $-1 $112 $113 $27 $-1 $114 reversed single #
loop $-1 $-1 $115 $45 #
plane-surface $-1 0 0 15.701142740292001 0 0 1 1 0 0 forward_v I I I I #
coedge $-1 $116 $117 $118 $119 reversed $46 $-1 #
face $-1 $120 $121 $28 $-1 $122 reversed single #
loop $-1 $-1 $123 $48 #
plane-surface $-1 0 0 15.701142740292001 0 0 1 1 0 0 forward_v I I I I #
coedge $-1 $124 $125 $126 $127 forward $49 $-1 #
face $-1 $128 $129 $29 $-1 $130 reversed single #
loop $-1 $-1 $131 $51 #
plane-surface $-1 -2.150515818837448 -21.379615446281306 123.59038491300394 0.85716730853699208 0 0.51503806187062418 0.51503806187062418 0 -0.85716730853699208 forward_v I I I I #
coedge $-1 $132 $133 $134 $135 reversed $52 $-1 #
face $-1 $-1 $136 $30 $-1 $137 forward single #
loop $-1 $138 $139 $54 #
cone-surface $-1 64.539349857215157 -22.975107260853875 6.8241456447847622 -0.85716730853699208 0 -0.51503806187062418 0.25751903093531209 0 -0.42858365426849604 1 I I -0.70710678118654746 0.70710678118654746 0.5 forward I I I I #
loop $-1 $-1 $140 $39 #
coedge $-1 $88 $88 $141 $142 reversed $55 $-1 #
face $-1 $-1 $143 $31 $-1 $144 forward single #
loop $-1 $145 $146 $57 #
cone-surface $-1 64.539349857215157 -19.784123631708731 6.8241456447847622 -0.85716730853699208 0 -0.51503806187062418 0.25751903093531209 0 -0.42858365426849604 1 I I -0.70710678118654746 0.70710678118654746 0.5 forward I I I I #
loop $-1 $-1 $147 $40 #
coedge $-1 $93 $93 $148 $149 reversed $58 $-1 #
face $-1 $150 $151 $32 $-1 $152 reversed single #
loop $-1 $-1 $153 $60 #
plane-surface $-1 -71.502426221503356 -2.1919527070905644 7.2120566980765091 -0.50000000669873634 0 0.8660253999169214 0.8660253999169214 0 0.50000000669873634 forward_v I I I I #
coedge $-1 $154 $155 $156 $157 reversed $61 $-1 #
face $-1 $-1 $158 $33 $-1 $159 forward single #
loop $-1 $160 $161 $63 #
cone-surface $-1 -62.001625015541876 -2.1919527070905644 7.7343582201974801 0.50000000669873634 0 -0.8660253999169214 0.8660253999169214 0 0.50000000669873634 1 I I -0.70710678118654746 0.70710678118654746 1 forward I I I I #
loop $-1 $-1 $162 $42 #
coedge $-1 $102 $102 $163 $164 reversed $64 $-1 #
face $-1 $165 $166 $34 $-1 $167 reversed single #
loop $-1 $-1 $168 $66 #
plane-surface $-1 -71.502426221503356 12.590443822497186 7.2120566980765091 -0.50000000669873634 0 0.8660253999169214 0.8660253999169214 0 0.50000000669873634 forward_v I I I I #
coedge $-1 $169 $170 $171 $172 reversed $67 $-1 #
face $-1 $-1 $173 $35 $-1 $174 forward single #
loop $-1 $175 $176 $69 #
cone-surface $-1 -62.001625015541876 12.590443822497186 7.7343582201974801 0.50000000669873634 0 -0.8660253999169214 0.8660253999169214 0 0.50000000669873634 1 I I -0.70710678118654746 0.70710678118654746 1 forward I I I I #
loop $-1 $-1 $177 $44 #
coedge $-1 $111 $111 $178 $179 reversed $70 $-1 #
face $-1 $180 $181 $27 $-1 $182 reversed single #
loop $-1 $-1 $183 $72 #
plane-surface $-1 0 0 -15.701142740292001 0 0 1 1 0 0 forward_v I I I I #
coedge $-1 $184 $185 $186 $187 forward $73 $-1 #
coedge $-1 $188 $75 $189 $190 reversed $46 $-1 #
coedge $-1 $75 $188 $191 $192 forward $46 $-1 #
coedge $-1 $193 $183 $75 $119 forward $113 $-1 #
edge $-1 $194 -71.502426221503342 $195 71.502426221503342 $75 $196 forward 7 unknown #
face $-1 $197 $198 $28 $-1 $199 reversed single #
loop $-1 $-1 $200 $76 #
plane-surface $-1 -71.502426221503342 0 0 1 0 0 0 0 -1 forward_v I I I I #
coedge $-1 $201 $202 $125 $203 forward $77 $-1 #
coedge $-1 $204 $79 $205 $206 reversed $49 $-1 #
coedge $-1 $79 $204 $123 $203 reversed $49 $-1 #
coedge $-1 $207 $208 $79 $127 reversed $209 $-1 #
edge $-1 $210 -15.701142740292001 $211 15.701142740292001 $126 $212 forward 7 unknown #
face $-1 $213 $214 $29 $-1 $215 forward single #
loop $-1 $-1 $216 $80 #
plane-surface $-1 120.42856865746428 -25.102429680283976 197.24332695334471 0 1 0 0.85716730853699208 0 0.51503806187062418 forward_v I I I I #
coedge $-1 $217 $218 $219 $220 reversed $81 $-1 #
coedge $-1 $133 $83 $221 $222 reversed $52 $-1 #
coedge $-1 $83 $132 $217 $223 reversed $52 $-1 #
coedge $-1 $219 $224 $83 $135 forward $214 $-1 #
edge $-1 $225 -11.288141892771201 $226 -2.4615944569627501 $134 $227 forward 7 unknown #
loop $-1 $-1 $141 $84 #
plane-surface $-1 -2.150515818837448 -21.379615446281306 123.59038491300394 0.85716730853699208 0 0.51503806187062418 0.51503806187062418 0 -0.85716730853699208 forward_v I I I I #
loop $-1 $-1 $228 $54 #
coedge $-1 $139 $139 $140 $229 reversed $85 $-1 #
coedge $-1 $140 $140 $139 $229 forward $87 $-1 #
coedge $-1 $141 $141 $88 $142 forward $136 $-1 #
edge $-1 $230 0 $230 6.2831853071796004 $141 $231 forward 7 unknown #
loop $-1 $-1 $148 $89 #
plane-surface $-1 -2.150515818837448 -21.379615446281306 123.59038491300394 0.85716730853699208 0 0.51503806187062418 0.51503806187062418 0 -0.85716730853699208 forward_v I I I I #
loop $-1 $-1 $232 $57 #
coedge $-1 $146 $146 $147 $233 reversed $90 $-1 #
coedge $-1 $147 $147 $146 $233 forward $92 $-1 #
coedge $-1 $148 $148 $93 $149 forward $143 $-1 #
edge $-1 $234 0 $234 6.2831853071796004 $148 $235 forward 7 unknown #
face $-1 $236 $237 $32 $-1 $238 reversed single #
loop $-1 $-1 $239 $94 #
plane-surface $-1 -143.0048534009585 3.1018933875662569 131.05789122509171 0 -1 0 0.50000000669873634 0 -0.8660253999169214 forward_v I I I I #
coedge $-1 $240 $241 $242 $243 reversed $95 $-1 #
coedge $-1 $155 $97 $244 $245 reversed $61 $-1 #
coedge $-1 $97 $154 $240 $246 reversed $61 $-1 #
coedge $-1 $242 $247 $97 $157 forward $248 $-1 #
edge $-1 $249 4.7897590604861762e-007 $250 14.703528551263432 $156 $251 forward 7 unknown #
loop $-1 $-1 $163 $98 #
plane-surface $-1 -71.502426221503356 -2.1919527070905644 7.2120566980765091 -0.50000000669873634 0 0.8660253999169214 0.8660253999169214 0 0.50000000669873634 forward_v I I I I #
loop $-1 $-1 $252 $63 #
coedge $-1 $161 $161 $162 $253 reversed $99 $-1 #
coedge $-1 $162 $162 $161 $253 forward $101 $-1 #
coedge $-1 $163 $163 $102 $164 forward $158 $-1 #
edge $-1 $254 0 $254 6.2831853071796004 $163 $255 forward 7 unknown #
face $-1 $256 $257 $34 $-1 $258 forward single #
loop $-1 $-1 $259 $103 #
plane-surface $-1 -143.0048534009585 17.884289917154007 131.05789122509171 0 -1 0 0.50000000669873634 0 -0.8660253999169214 forward_v I I I I #
coedge $-1 $260 $261 $262 $263 reversed $104 $-1 #
coedge $-1 $170 $106 $264 $265 reversed $67 $-1 #
coedge $-1 $106 $169 $260 $266 reversed $67 $-1 #
coedge $-1 $262 $267 $106 $172 forward $257 $-1 #
edge $-1 $268 4.7897590604861762e-007 $269 14.703528551263432 $171 $270 forward 7 unknown #
loop $-1 $-1 $178 $107 #
plane-surface $-1 -71.502426221503356 12.590443822497186 7.2120566980765091 -0.50000000669873634 0 0.8660253999169214 0.8660253999169214 0 0.50000000669873634 forward_v I I I I #
loop $-1 $-1 $271 $69 #
coedge $-1 $176 $176 $177 $272 reversed $108 $-1 #
coedge $-1 $177 $177 $176 $272 forward $110 $-1 #
coedge $-1 $178 $178 $111 $179 forward $173 $-1 #
edge $-1 $273 0 $273 6.2831853071796004 $178 $274 forward 7 unknown #
face $-1 $275 $276 $27 $-1 $277 reversed single #
loop $-1 $-1 $278 $112 #
plane-surface $-1 -71.502426221503342 0 0 1 0 0 0 0 -1 forward_v I I I I #
coedge $-1 $118 $279 $280 $281 forward $113 $-1 #
coedge $-1 $282 $115 $283 $284 forward $73 $-1 #
coedge $-1 $115 $282 $188 $285 forward $73 $-1 #
coedge $-1 $189 $286 $115 $187 reversed $287 $-1 #
edge $-1 $288 -35.50092079569059 $289 35.50092079569059 $186 $290 forward 7 unknown #
coedge $-1 $117 $116 $185 $285 reversed $46 $-1 #
coedge $-1 $280 $186 $116 $190 forward $287 $-1 #
edge $-1 $288 -15.701142740292001 $194 15.701142740292001 $189 $291 forward 7 unknown #
coedge $-1 $292 $293 $117 $192 reversed $181 $-1 #
edge $-1 $294 -15.701142740292001 $195 15.701142740292001 $191 $295 forward 7 unknown #
coedge $-1 $279 $118 $293 $296 forward $113 $-1 #
vertex $-1 $190 $297 #
vertex $-1 $296 $298 #
straight-curve $-1 0 -35.50092079569059 -15.701142740292001 -1 0 0 I I #
face $-1 $299 $209 $28 $-1 $300 reversed single #
loop $-1 $-1 $301 $120 #
plane-surface $-1 -67.626998744448386 -45.899411911097204 0 0 1 0 0 0 1 forward_v I I I I #
coedge $-1 $302 $303 $204 $304 forward $121 $-1 #
coedge $-1 $305 $123 $303 $306 forward $77 $-1 #
coedge $-1 $123 $305 $207 $307 forward $77 $-1 #
edge $-1 $210 63.75157126739343 $308 71.502426221503342 $123 $309 forward 7 unknown #
coedge $-1 $125 $124 $200 $304 reversed $49 $-1 #
coedge $-1 $310 $311 $124 $206 forward $312 $-1 #
edge $-1 $313 -71.502426221503342 $211 -63.75157126739343 $205 $314 forward 7 unknown #
coedge $-1 $315 $126 $202 $307 reversed $209 $-1 #
coedge $-1 $126 $315 $310 $316 reversed $209 $-1 #
loop $-1 $-1 $315 $197 #
vertex $-1 $203 $317 #
vertex $-1 $316 $318 #
straight-curve $-1 -63.75157126739343 -35.50092079569059 0 0 0 -1 I I #
face $-1 $-1 $319 $29 $-1 $320 reversed single #
loop $-1 $-1 $134 $128 #
plane-surface $-1 0 0 15.701142740292001 0 0 1 1 0 0 forward_v I I I I #
coedge $-1 $321 $322 $323 $324 reversed $129 $-1 #
coedge $-1 $325 $131 $133 $223 forward $81 $-1 #
coedge $-1 $131 $325 $321 $326 forward $81 $-1 #
coedge $-1 $323 $134 $131 $220 forward $214 $-1 #
edge $-1 $226 6.9669934891379839 $327 14.412621957143323 $219 $328 forward 7 unknown #
coedge $-1 $329 $330 $132 $222 forward $319 $-1 #
edge $-1 $331 -97.610363039970181 $225 -82.920520736380354 $221 $332 forward 7 unknown #
edge $-1 $226 125.8671919684579 $331 143.00485244300677 $133 $333 forward 7 unknown #
coedge $-1 $134 $323 $329 $334 forward $214 $-1 #
vertex $-1 $222 $335 #
vertex $-1 $135 $336 #
straight-curve $-1 60.214284328732141 -17.656801212278637 15.701142740291999 -1 0 0 I I #
coedge $-1 $228 $228 $-1 $337 reversed $138 $-1 #
edge $-1 $338 0 $338 6.2831853071796004 $139 $339 forward 7 unknown #
vertex $-1 $142 $340 #
ellipse-curve $-1 67.089152503599109 -22.975107260853875 8.3562215884971014 0.85716730853699208 0 0.51503806187062418 0.51503806187062418 0 -0.85716730853699208 1 I I #
coedge $-1 $232 $232 $-1 $341 reversed $145 $-1 #
edge $-1 $342 0 $342 6.2831853071796004 $146 $343 forward 7 unknown #
vertex $-1 $149 $344 #
ellipse-curve $-1 67.089152503599109 -19.784123631708731 8.3562215884971014 0.85716730853699208 0 0.51503806187062418 0.51503806187062418 0 -0.85716730853699208 1 I I #
face $-1 $-1 $248 $32 $-1 $345 forward single #
loop $-1 $-1 $346 $150 #
plane-surface $-1 -71.502426221503342 0 0 1 0 0 0 0 -1 forward_v I I I I #
coedge $-1 $347 $348 $349 $350 reversed $151 $-1 #
coedge $-1 $351 $153 $155 $246 forward $95 $-1 #
coedge $-1 $153 $351 $347 $352 forward $95 $-1 #
coedge $-1 $349 $156 $153 $243 forward $248 $-1 #
edge $-1 $250 -6.3898224482021035 $353 4.1978697411115391 $242 $354 forward 7 unknown #
coedge $-1 $355 $356 $154 $245 forward $237 $-1 #
edge $-1 $357 -58.316888914469338 $249 -49.827802872253855 $244 $358 forward 7 unknown #
edge $-1 $250 -16.978171856966391 $357 -1.6303764080091705e-014 $155 $359 forward 7 unknown #
coedge $-1 $156 $349 $355 $360 forward $248 $-1 #
loop $-1 $-1 $349 $236 #
vertex $-1 $245 $361 #
vertex $-1 $157 $362 #
straight-curve $-1 -71.502426700479248 -7.4857988017473858 15.701142740291999 1 0 0 I I #
coedge $-1 $252 $252 $-1 $363 reversed $160 $-1 #
edge $-1 $364 0 $364 6.2831853071796004 $161 $365 forward 7 unknown #
vertex $-1 $164 $366 #
ellipse-curve $-1 -64.150662185359579 -2.1919527070905644 11.456599719184261 -0.50000000669873634 0 0.8660253999169214 1.7320507998338428 0 1.0000000133974727 1 I I #
face $-1 $-1 $367 $34 $-1 $368 reversed single #
loop $-1 $-1 $171 $165 #
plane-surface $-1 0 0 15.701142740292001 0 0 1 1 0 0 forward_v I I I I #
coedge $-1 $369 $370 $371 $372 reversed $166 $-1 #
coedge $-1 $373 $168 $170 $266 forward $104 $-1 #
coedge $-1 $168 $373 $369 $374 forward $104 $-1 #
coedge $-1 $371 $171 $168 $263 forward $257 $-1 #
edge $-1 $269 1.0013758165917714 $375 11.589068005905414 $262 $376 forward 7 unknown #
coedge $-1 $377 $378 $169 $265 forward $367 $-1 #
edge $-1 $379 -58.316888914469338 $268 -49.827802872253855 $264 $380 forward 7 unknown #
edge $-1 $269 -16.978171856966391 $379 -1.6303764080091705e-014 $170 $381 forward 7 unknown #
coedge $-1 $171 $371 $377 $382 forward $257 $-1 #
vertex $-1 $265 $383 #
vertex $-1 $172 $384 #
straight-curve $-1 -71.502426700479248 7.2965977278403642 15.701142740291999 1 0 0 I I #
coedge $-1 $271 $271 $-1 $385 reversed $175 $-1 #
edge $-1 $386 0 $386 6.2831853071796004 $176 $387 forward 7 unknown #
vertex $-1 $179 $388 #
ellipse-curve $-1 -64.150662185359579 12.590443822497186 11.456599719184261 -0.50000000669873634 0 0.8660253999169214 1.7320507998338428 0 1.0000000133974727 1 I I #
face $-1 $-1 $287 $27 $-1 $389 reversed single #
loop $-1 $-1 $390 $180 #
plane-surface $-1 0 35.50092079569059 0 0 -1 0 0 0 -1 forward_v I I I I #
coedge $-1 $293 $292 $391 $392 forward $181 $-1 #
coedge $-1 $183 $193 $393 $394 forward $113 $-1 #
coedge $-1 $286 $189 $183 $281 reversed $287 $-1 #
edge $-1 $395 -35.50092079569059 $194 35.50092079569059 $280 $396 forward 7 unknown #
coedge $-1 $185 $184 $292 $397 forward $73 $-1 #
coedge $-1 $390 $391 $184 $284 reversed $276 $-1 #
edge $-1 $289 -71.502426221503342 $398 71.502426221503342 $283 $399 forward 7 unknown #
edge $-1 $294 -71.502426221503342 $288 71.502426221503342 $188 $400 forward 7 unknown #
coedge $-1 $186 $280 $390 $401 reversed $287 $-1 #
loop $-1 $-1 $189 $275 #
vertex $-1 $187 $402 #
vertex $-1 $187 $403 #
straight-curve $-1 71.502426221503342 0 15.701142740292001 0 1 0 I I #
straight-curve $-1 71.502426221503342 -35.50092079569059 0 0 0 -1 I I #
coedge $-1 $278 $191 $282 $397 reversed $181 $-1 #
coedge $-1 $191 $278 $193 $296 reversed $181 $-1 #
vertex $-1 $397 $404 #
straight-curve $-1 -71.502426221503342 -35.50092079569059 0 0 0 -1 I I #
edge $-1 $195 -35.50092079569059 $405 35.50092079569059 $293 $406 forward 7 unknown #
point $-1 71.502426221503342 -35.50092079569059 -15.701142740292001 #
point $-1 -71.502426221503342 -35.50092079569059 -15.701142740292001 #
face $-1 $-1 $312 $28 $-1 $407 reversed single #
plane-surface $-1 -63.75157126739343 -40.700166353393897 0 -1 0 0 0 0 1 forward_v I I I I #
coedge $-1 $408 $409 $410 $411 forward $198 $-1 #
coedge $-1 $410 $200 $311 $412 reversed $121 $-1 #
coedge $-1 $200 $410 $201 $306 reversed $121 $-1 #
edge $-1 $308 -15.701142740292001 $313 15.701142740292001 $200 $413 forward 7 unknown #
coedge $-1 $202 $201 $409 $414 forward $77 $-1 #
edge $-1 $308 35.50092079569059 $415 45.899411911097204 $303 $416 forward 7 unknown #
edge $-1 $417 -5.199245557703307 $210 5.199245557703307 $207 $418 forward 7 unknown #
vertex $-1 $306 $419 #
straight-curve $-1 0 -35.50092079569059 15.701142740292001 -1 0 0 I I #
coedge $-1 $420 $205 $208 $316 forward $312 $-1 #
coedge $-1 $205 $420 $302 $412 forward $312 $-1 #
loop $-1 $-1 $205 $299 #
vertex $-1 $304 $421 #
straight-curve $-1 0 -35.50092079569059 -15.701142740292001 1 0 0 I I #
coedge $-1 $208 $207 $422 $423 forward $209 $-1 #
edge $-1 $211 -5.199245557703307 $424 5.199245557703307 $208 $425 forward 7 unknown #
point $-1 -63.75157126739343 -35.50092079569059 15.701142740292001 #
point $-1 -63.75157126739343 -35.50092079569059 -15.701142740292001 #
loop $-1 $-1 $221 $213 #
plane-surface $-1 71.502426221503342 0 0 -1 0 0 0 0 1 forward_v I I I I #
coedge $-1 $322 $216 $218 $326 reversed $129 $-1 #
coedge $-1 $216 $321 $426 $427 reversed $129 $-1 #
coedge $-1 $224 $219 $216 $324 forward $214 $-1 #
edge $-1 $327 2.4615944569627501 $428 11.288141892771201 $323 $429 forward 7 unknown #
coedge $-1 $218 $217 $330 $430 reversed $81 $-1 #
edge $-1 $431 -143.00485244300677 $327 -125.8671919684579 $321 $432 forward 7 unknown #
vertex $-1 $220 $433 #
straight-curve $-1 62.675878785694884 -10.689807723140653 15.701142740291999 0 -1 0 I I #
coedge $-1 $426 $221 $224 $334 reversed $319 $-1 #
coedge $-1 $221 $426 $325 $430 forward $319 $-1 #
vertex $-1 $222 $434 #
straight-curve $-1 71.502426221503342 -17.656801212278637 98.621663476672353 0 0 1 I I #
straight-curve $-1 -2.150515818837448 -17.656801212278637 123.59038491300394 0.51503806187062418 0 -0.85716730853699208 I I #
edge $-1 $428 -25.102429680283976 $225 -17.656801212278637 $329 $435 forward 7 unknown #
point $-1 71.502426221503342 -17.656801212278637 15.701142740292001 #
point $-1 62.675878785694891 -17.656801212278637 15.701142740291999 #
edge $-1 $436 1 $436 0 $228 $-1 forward 7 unknown #
vertex $-1 $229 $437 #
ellipse-curve $-1 64.96793351148365 -22.975107260853875 7.0816646757200745 0.85716730853699208 0 0.51503806187062418 0.51503806187062418 0 -0.85716730853699208 1 I I #
point $-1 67.60419056546975 -22.975107260853875 7.4990542799601192 #
edge $-1 $438 1 $438 0 $232 $-1 forward 7 unknown #
vertex $-1 $233 $439 #
ellipse-curve $-1 64.96793351148365 -19.784123631708731 7.0816646757200745 0.85716730853699208 0 0.51503806187062418 0.51503806187062418 0 -0.85716730853699208 1 I I #
point $-1 67.60419056546975 -19.784123631708731 7.4990542799601192 #
plane-surface $-1 0 0 15.701142740292001 0 0 1 1 0 0 forward_v I I I I #
coedge $-1 $356 $355 $348 $440 forward $237 $-1 #
coedge $-1 $348 $239 $241 $352 reversed $151 $-1 #
coedge $-1 $239 $347 $346 $440 reversed $151 $-1 #
coedge $-1 $247 $242 $239 $350 forward $248 $-1 #
edge $-1 $353 -14.703528551263432 $441 -4.7897590604861762e-007 $349 $442 forward 7 unknown #
coedge $-1 $241 $240 $356 $443 reversed $95 $-1 #
edge $-1 $444 1.6303764080091705e-014 $353 16.978171856966391 $347 $445 forward 7 unknown #
vertex $-1 $243 $446 #
straight-curve $-1 -56.798898149215816 -1.0959763535452822 15.701142740292001 0 1 0 I I #
coedge $-1 $346 $244 $247 $360 reversed $237 $-1 #
coedge $-1 $244 $346 $351 $443 forward $237 $-1 #
vertex $-1 $245 $447 #
straight-curve $-1 -71.502426221503342 -7.4857988017473858 65.528945612545854 0 0 1 I I #
straight-curve $-1 -71.502426221503356 -7.4857988017473858 7.2120566980765091 -0.8660253999169214 0 -0.50000000669873634 I I #
edge $-1 $441 -3.1018933875662569 $249 7.4857988017473858 $355 $448 forward 7 unknown #
point $-1 -71.502426221503342 -7.4857988017473858 15.701142740292001 #
point $-1 -56.798898149215816 -7.4857988017473858 15.701142740292001 #
edge $-1 $449 1 $449 0 $252 $-1 forward 7 unknown #
vertex $-1 $253 $450 #
ellipse-curve $-1 -62.50162502224061 -2.1919527070905644 8.6003836201144015 -0.50000000669873634 0 0.8660253999169214 1.7320507998338428 0 1.0000000133974727 1 I I #
point $-1 -62.418611385525729 -2.1919527070905644 12.456599732581726 #
loop $-1 $-1 $264 $256 #
plane-surface $-1 -71.502426221503342 0 0 1 0 0 0 0 -1 forward_v I I I I #
coedge $-1 $370 $259 $261 $374 reversed $166 $-1 #
coedge $-1 $259 $369 $451 $452 reversed $166 $-1 #
coedge $-1 $267 $262 $259 $372 forward $257 $-1 #
edge $-1 $375 -14.703528551263432 $453 -4.7897590604861762e-007 $371 $454 forward 7 unknown #
coedge $-1 $261 $260 $378 $455 reversed $104 $-1 #
edge $-1 $456 1.6303764080091705e-014 $375 16.978171856966391 $369 $457 forward 7 unknown #
vertex $-1 $263 $458 #
straight-curve $-1 -56.798898149215816 6.2952219112485928 15.701142740292001 0 1 0 I I #
coedge $-1 $451 $264 $267 $382 reversed $367 $-1 #
coedge $-1 $264 $451 $373 $455 forward $367 $-1 #
vertex $-1 $265 $459 #
straight-curve $-1 -71.502426221503342 7.2965977278403642 65.528945612545854 0 0 1 I I #
straight-curve $-1 -71.502426221503356 7.2965977278403642 7.2120566980765091 -0.8660253999169214 0 -0.50000000669873634 I I #
edge $-1 $453 -17.884289917154007 $268 -7.2965977278403642 $377 $460 forward 7 unknown #
point $-1 -71.502426221503342 7.2965977278403642 15.701142740292001 #
point $-1 -56.798898149215816 7.2965977278403642 15.701142740292001 #
edge $-1 $461 1 $461 0 $271 $-1 forward 7 unknown #
vertex $-1 $272 $462 #
ellipse-curve $-1 -62.50162502224061 12.590443822497186 8.6003836201144015 -0.50000000669873634 0 0.8660253999169214 1.7320507998338428 0 1.0000000133974727 1 I I #
point $-1 -62.418611385525729 12.590443822497186 12.456599732581726 #
plane-surface $-1 71.502426221503342 0 0 -1 0 0 0 0 1 forward_v I I I I #
coedge $-1 $393 $283 $286 $401 forward $276 $-1 #
coedge $-1 $283 $393 $278 $392 reversed $276 $-1 #
edge $-1 $398 -15.701142740292001 $405 15.701142740292001 $391 $463 forward 7 unknown #
coedge $-1 $391 $390 $279 $394 reversed $276 $-1 #
edge $-1 $405 -71.502426221503342 $395 71.502426221503342 $393 $464 forward 7 unknown #
vertex $-1 $281 $465 #
straight-curve $-1 71.502426221503342 0 -15.701142740292001 0 -1 0 I I #
edge $-1 $398 -35.50092079569059 $294 35.50092079569059 $292 $466 forward 7 unknown #
vertex $-1 $284 $467 #
straight-curve $-1 0 35.50092079569059 15.701142740292001 -1 0 0 I I #
straight-curve $-1 0 -35.50092079569059 15.701142740292001 1 0 0 I I #
edge $-1 $289 -15.701142740292001 $395 15.701142740292001 $286 $468 forward 7 unknown #
point $-1 71.502426221503342 -35.50092079569059 15.701142740292001 #
point $-1 71.502426221503342 35.50092079569059 15.701142740292001 #
point $-1 -71.502426221503342 -35.50092079569059 15.701142740292001 #
vertex $-1 $394 $469 #
straight-curve $-1 -71.502426221503342 0 -15.701142740292001 0 1 0 I I #
plane-surface $-1 0 0 -15.701142740292001 0 0 1 1 0 0 forward_v I I I I #
coedge $-1 $422 $301 $420 $470 reversed $198 $-1 #
coedge $-1 $301 $422 $305 $414 reversed $198 $-1 #
coedge $-1 $303 $302 $301 $411 reversed $121 $-1 #
edge $-1 $415 -15.701142740292001 $471 15.701142740292001 $410 $472 forward 7 unknown #
edge $-1 $471 -45.899411911097204 $313 -35.50092079569059 $302 $473 forward 7 unknown #
straight-curve $-1 -71.502426221503342 -35.50092079569059 0 0 0 -1 I I #
edge $-1 $415 -3.8754274770549557 $417 3.8754274770549557 $409 $474 forward 7 unknown #
vertex $-1 $306 $475 #
straight-curve $-1 -71.502426221503342 0 15.701142740292001 0 -1 0 I I #
vertex $-1 $307 $476 #
straight-curve $-1 -63.75157126739343 -40.700166353393897 15.701142740292001 0 1 0 I I #
point $-1 -71.502426221503342 -35.50092079569059 15.701142740292001 #
coedge $-1 $311 $310 $408 $470 forward $312 $-1 #
point $-1 -71.502426221503342 -35.50092079569059 -15.701142740292001 #
coedge $-1 $409 $408 $315 $423 reversed $198 $-1 #
edge $-1 $417 -15.701142740292001 $424 15.701142740292001 $315 $477 forward 7 unknown #
vertex $-1 $423 $478 #
straight-curve $-1 -63.75157126739343 -40.700166353393897 -15.701142740292001 0 -1 0 I I #
coedge $-1 $330 $329 $322 $427 forward $319 $-1 #
edge $-1 $428 82.920520736380354 $431 97.610363039970181 $426 $479 forward 7 unknown #
vertex $-1 $334 $480 #
straight-curve $-1 60.214284328732141 -25.102429680283976 15.701142740291999 1 0 0 I I #
edge $-1 $431 -14.412621957143323 $331 -6.9669934891379839 $330 $481 forward 7 unknown #
vertex $-1 $430 $482 #
straight-curve $-1 -2.150515818837448 -25.102429680283976 123.59038491300394 -0.51503806187062418 0 0.85716730853699208 I I #
point $-1 62.675878785694891 -25.102429680283976 15.701142740291999 #
point $-1 71.502426221503342 -17.656801212278637 1.0113004367021716 #
straight-curve $-1 71.502426221503342 0 15.701142740292001 0 1 0 I I #
vertex $-1 $337 $483 #
point $-1 65.482971573354277 -22.975107260853875 6.2244973671830817 #
vertex $-1 $341 $484 #
point $-1 65.482971573354277 -19.784123631708731 6.2244973671830817 #
edge $-1 $441 49.827802872253855 $444 58.316888914469338 $346 $485 forward 7 unknown #
vertex $-1 $360 $486 #
straight-curve $-1 -71.502426700479248 3.1018933875662569 15.701142740291999 -1 0 0 I I #
edge $-1 $444 -4.1978697411115391 $357 6.3898224482021035 $356 $487 forward 7 unknown #
vertex $-1 $443 $488 #
straight-curve $-1 -71.502426221503356 3.1018933875662569 7.2120566980765091 0.8660253999169214 0 0.50000000669873634 I I #
point $-1 -56.798898149215816 3.1018933875662569 15.701142740292001 #
point $-1 -71.502426221503342 -7.4857988017473858 7.2120566980765171 #
straight-curve $-1 -71.502426221503342 0 15.701142740292001 0 -1 0 I I #
vertex $-1 $363 $489 #
point $-1 -60.769574222406767 -2.1919527070905644 9.6003836335118748 #
coedge $-1 $378 $377 $370 $452 forward $367 $-1 #
edge $-1 $453 49.827802872253855 $456 58.316888914469338 $451 $490 forward 7 unknown #
vertex $-1 $382 $491 #
straight-curve $-1 -71.502426700479248 17.884289917154007 15.701142740291999 -1 0 0 I I #
edge $-1 $456 -11.589068005905414 $379 -1.0013758165917714 $378 $492 forward 7 unknown #
vertex $-1 $455 $493 #
straight-curve $-1 -71.502426221503356 17.884289917154007 7.2120566980765091 0.8660253999169214 0 0.50000000669873634 I I #
point $-1 -56.798898149215816 17.884289917154007 15.701142740292001 #
point $-1 -71.502426221503342 7.2965977278403642 7.2120566980765171 #
straight-curve $-1 -71.502426221503342 0 15.701142740292001 0 -1 0 I I #
vertex $-1 $385 $494 #
point $-1 -60.769574222406767 12.590443822497186 9.6003836335118748 #
straight-curve $-1 -71.502426221503342 35.50092079569059 0 0 0 -1 I I #
straight-curve $-1 0 35.50092079569059 -15.701142740292001 1 0 0 I I #
point $-1 71.502426221503342 35.50092079569059 -15.701142740292001 #
straight-curve $-1 -71.502426221503342 0 15.701142740292001 0 -1 0 I I #
point $-1 -71.502426221503342 35.50092079569059 15.701142740292001 #
straight-curve $-1 71.502426221503342 35.50092079569059 0 0 0 -1 I I #
point $-1 -71.502426221503342 35.50092079569059 -15.701142740292001 #
edge $-1 $424 -3.8754274770549557 $471 3.8754274770549557 $408 $495 forward 7 unknown #
vertex $-1 $412 $496 #
straight-curve $-1 -71.502426221503342 -45.899411911097204 0 0 0 -1 I I #
straight-curve $-1 -71.502426221503342 0 -15.701142740292001 0 1 0 I I #
straight-curve $-1 -67.626998744448386 -45.899411911097204 15.701142740292001 1 0 0 I I #
point $-1 -71.502426221503342 -45.899411911097204 15.701142740292001 #
point $-1 -63.75157126739343 -45.899411911097204 15.701142740292001 #
straight-curve $-1 -63.75157126739343 -45.899411911097204 0 0 0 -1 I I #
point $-1 -63.75157126739343 -45.899411911097204 -15.701142740292001 #
straight-curve $-1 71.502426221503342 -25.102429680283976 98.621663476672353 0 0 -1 I I #
point $-1 71.502426221503342 -25.102429680283976 15.701142740292001 #
straight-curve $-1 71.502426221503342 -10.689807723140653 1.0113004367021645 0 1 0 I I #
point $-1 71.502426221503342 -25.102429680283976 1.0113004367021716 #
point $-1 64.110766202946664 -22.975107260853875 6.5666266138494498 #
point $-1 64.110766202946664 -19.784123631708731 6.5666266138494498 #
straight-curve $-1 -71.502426221503342 3.1018933875662569 65.528945612545854 0 0 -1 I I #
point $-1 -71.502426221503342 3.1018933875662569 15.701142740292001 #
straight-curve $-1 -71.502426221503342 -1.0959763535452822 7.2120566980765224 0 -1 0 I I #
point $-1 -71.502426221503342 3.1018933875662569 7.2120566980765171 #
point $-1 -61.501625008843142 -2.1919527070905644 6.8683328202805587 #
straight-curve $-1 -71.502426221503342 17.884289917154007 65.528945612545854 0 0 -1 I I #
point $-1 -71.502426221503342 17.884289917154007 15.701142740292001 #
straight-curve $-1 -71.502426221503342 6.2952219112485928 7.2120566980765224 0 -1 0 I I #
point $-1 -71.502426221503342 17.884289917154007 7.2120566980765171 #
point $-1 -61.501625008843142 12.590443822497186 6.8683328202805587 #
straight-curve $-1 -67.626998744448386 -45.899411911097204 -15.701142740292001 -1 0 0 I I #
point $-1 -71.502426221503342 -45.899411911097204 -15.701142740292001 #
End-of-ACIS-data 