500 0 7 0           
7 Unknown 11 ACIS 5.0 NT 24 Fri Mar 26 16:38:09 1999 
-1 9.9999999999999995e-007 1e-010 
body $-1 $7 $-1 $8 #
body $-1 $9 $-1 $10 #
body $-1 $11 $-1 $12 #
body $-1 $13 $-1 $14 #
body $-1 $15 $-1 $16 #
body $-1 $17 $-1 $18 #
body $-1 $19 $-1 $20 #
lump $-1 $-1 $21 $0 #
transform $-1 1 0 0 0 1 0 0 0 1 51.874141666920991 25.400234338228923 12.525469725149406 1 rotate no_reflect no_shear #
lump $-1 $-1 $22 $1 #
transform $-1 1 0 0 0 1 0 0 0 1 51.874141666920991 25.400234338228923 12.525469725149406 1 rotate no_reflect no_shear #
lump $-1 $-1 $23 $2 #
transform $-1 1 0 0 0 1 0 0 0 1 51.874141666920991 25.400234338228923 12.525469725149406 1 rotate no_reflect no_shear #
lump $-1 $-1 $24 $3 #
transform $-1 1 0 0 0 1 0 0 0 1 51.874141666920991 25.400234338228923 12.525469725149406 1 rotate no_reflect no_shear #
lump $-1 $-1 $25 $4 #
transform $-1 1 0 0 0 1 0 0 0 1 51.874141666920991 25.400234338228923 12.525469725149406 1 rotate no_reflect no_shear #
lump $-1 $-1 $26 $5 #
transform $-1 1 0 0 0 1 0 0 0 1 51.874141666920991 25.400234338228923 12.525469725149406 1 rotate no_reflect no_shear #
lump $-1 $-1 $27 $6 #
transform $-1 1 0 0 0 1 0 0 0 1 51.874141666920991 25.400234338228923 12.525469725149406 1 rotate no_reflect no_shear #
shell $-1 $-1 $-1 $28 $-1 $7 #
shell $-1 $-1 $-1 $29 $-1 $9 #
shell $-1 $-1 $-1 $30 $-1 $11 #
shell $-1 $-1 $-1 $31 $-1 $13 #
shell $-1 $-1 $-1 $32 $-1 $15 #
shell $-1 $-1 $-1 $33 $-1 $17 #
shell $-1 $-1 $-1 $34 $-1 $19 #
face $-1 $35 $36 $21 $-1 $37 forward single #
face $-1 $38 $39 $22 $-1 $40 reversed single #
face $-1 $41 $42 $23 $-1 $43 forward single #
face $-1 $44 $45 $24 $-1 $46 forward single #
face $-1 $47 $48 $25 $-1 $49 reversed single #
face $-1 $50 $51 $26 $-1 $52 forward single #
face $-1 $53 $54 $27 $-1 $55 forward single #
face $-1 $56 $57 $21 $-1 $58 reversed single #
loop $-1 $-1 $59 $28 #
plane-surface $-1 0 0 12.525469725149406 0 0 1 1 0 0 forward_v I I I I #
face $-1 $60 $61 $22 $-1 $62 reversed single #
loop $-1 $-1 $63 $29 #
plane-surface $-1 34.151729901897845 35.290050771841933 118.86830103505534 1 0 0 0 -0.51503808176128008 -0.85716729658548041 forward_v I I I I #
face $-1 $64 $65 $23 $-1 $66 forward single #
loop $-1 $67 $68 $30 #
cone-surface $-1 39.215276120475878 17.292322849031965 6.7754957736995323 0 -0.51503808176128008 -0.85716729658548041 2.5 0 0 1 I I 0 1 2.5 forward I I I I #
face $-1 $69 $70 $24 $-1 $71 forward single #
loop $-1 $72 $73 $31 #
cone-surface $-1 46.810595448342951 17.292322849031965 6.7754957736995323 0 -0.51503808176128008 -0.85716729658548041 2.5 0 0 1 I I 0 1 2.5 forward I I I I #
face $-1 $74 $75 $25 $-1 $76 reversed single #
loop $-1 $-1 $77 $32 #
plane-surface $-1 43.012935784409422 -25.400234338228927 3.7744895447047213 0 -0.51503808176128008 0.85716729658548041 1 0 0 forward_v I I I I #
face $-1 $78 $79 $26 $-1 $80 forward single #
loop $-1 $81 $82 $33 #
cone-surface $-1 39.215276120475878 -17.292322849031962 6.7754957736995323 0 0.51503808176128008 -0.85716729658548041 2.5 0 0 1 I I 0 1 2.5 forward I I I I #
face $-1 $83 $84 $27 $-1 $85 forward single #
loop $-1 $86 $87 $34 #
cone-surface $-1 46.810595448342951 -17.292322849031962 6.7754957736995323 0 0.51503808176128008 -0.85716729658548041 2.5 0 0 1 I I 0 1 2.5 forward I I I I #
face $-1 $88 $89 $21 $-1 $90 reversed single #
loop $-1 $-1 $91 $35 #
plane-surface $-1 0 0 -12.525469725149406 0 0 1 1 0 0 forward_v I I I I #
coedge $-1 $92 $93 $94 $95 forward $36 $-1 #
face $-1 $96 $97 $22 $-1 $98 forward single #
loop $-1 $-1 $99 $38 #
plane-surface $-1 43.012935784409422 -18.144266062445823 29.938665484401554 0 0.51503808176128008 0.85716729658548041 1 0 0 forward_v I I I I #
coedge $-1 $100 $101 $102 $103 reversed $39 $-1 #
face $-1 $-1 $104 $23 $-1 $105 forward single #
loop $-1 $106 $107 $41 #
cone-surface $-1 39.215276120475878 15.822652008177389 4.3295527917401486 0 -0.51503808176128008 -0.85716729658548041 1.25 0 0 1 I I -0.70710678118654746 0.70710678118654746 1.25 forward I I I I #
loop $-1 $-1 $108 $30 #
coedge $-1 $68 $68 $109 $110 reversed $42 $-1 #
face $-1 $-1 $111 $24 $-1 $112 forward single #
loop $-1 $113 $114 $44 #
cone-surface $-1 46.810595448342951 15.822652008177389 4.3295527917401486 0 -0.51503808176128008 -0.85716729658548041 1.25 0 0 1 I I -0.70710678118654746 0.70710678118654746 1.25 forward I I I I #
loop $-1 $-1 $115 $31 #
coedge $-1 $73 $73 $116 $117 reversed $45 $-1 #
face $-1 $118 $119 $25 $-1 $120 reversed single #
loop $-1 $-1 $121 $47 #
plane-surface $-1 34.151729901897845 -78.834551172516683 92.704125095358506 1 0 0 0 0.51503808176128008 -0.85716729658548041 forward_v I I I I #
coedge $-1 $122 $123 $124 $125 reversed $48 $-1 #
face $-1 $-1 $126 $26 $-1 $127 forward single #
loop $-1 $128 $129 $50 #
cone-surface $-1 39.215276120475878 -15.822652008177386 4.3295527917401486 0 0.51503808176128008 -0.85716729658548041 1.25 0 0 1 I I -0.70710678118654746 0.70710678118654746 1.25 forward I I I I #
loop $-1 $-1 $130 $33 #
coedge $-1 $82 $82 $131 $132 reversed $51 $-1 #
face $-1 $-1 $133 $27 $-1 $134 forward single #
loop $-1 $135 $136 $53 #
cone-surface $-1 46.810595448342951 -15.822652008177386 4.3295527917401486 0 0.51503808176128008 -0.85716729658548041 1.25 0 0 1 I I -0.70710678118654746 0.70710678118654746 1.25 forward I I I I #
loop $-1 $-1 $137 $34 #
coedge $-1 $87 $87 $138 $139 reversed $54 $-1 #
face $-1 $140 $141 $21 $-1 $142 reversed single #
loop $-1 $-1 $143 $56 #
plane-surface $-1 0 -25.400234338228923 0 0 1 0 0 0 1 forward_v I I I I #
coedge $-1 $144 $145 $146 $147 forward $57 $-1 #
coedge $-1 $148 $59 $149 $150 forward $36 $-1 #
coedge $-1 $59 $148 $151 $152 forward $36 $-1 #
coedge $-1 $153 $154 $59 $95 reversed $155 $-1 #
edge $-1 $156 -25.400234338228923 $157 25.400234338228923 $94 $158 forward 7 unknown #
face $-1 $159 $160 $22 $-1 $161 reversed single #
loop $-1 $-1 $102 $60 #
plane-surface $-1 0 0 12.525469725149406 0 0 1 1 0 0 forward_v I I I I #
coedge $-1 $162 $163 $164 $165 reversed $61 $-1 #
coedge $-1 $101 $63 $166 $167 reversed $39 $-1 #
coedge $-1 $63 $100 $162 $168 reversed $39 $-1 #
coedge $-1 $164 $169 $63 $103 forward $97 $-1 #
edge $-1 $170 -7.7552089523079566 $171 6.8088675487800394 $102 $172 forward 7 unknown #
loop $-1 $-1 $109 $64 #
plane-surface $-1 43.012935784409422 -18.144266062445823 29.938665484401554 0 0.51503808176128008 0.85716729658548041 1 0 0 forward_v I I I I #
loop $-1 $-1 $173 $41 #
coedge $-1 $107 $107 $108 $174 reversed $65 $-1 #
coedge $-1 $108 $108 $107 $174 forward $67 $-1 #
coedge $-1 $109 $109 $68 $110 forward $104 $-1 #
edge $-1 $175 2.4047657786798092e-016 $175 6.2831853071796004 $109 $176 forward 7 unknown #
loop $-1 $-1 $116 $69 #
plane-surface $-1 43.012935784409422 -18.144266062445823 29.938665484401554 0 0.51503808176128008 0.85716729658548041 1 0 0 forward_v I I I I #
loop $-1 $-1 $177 $44 #
coedge $-1 $114 $114 $115 $178 reversed $70 $-1 #
coedge $-1 $115 $115 $114 $178 forward $72 $-1 #
coedge $-1 $116 $116 $73 $117 forward $111 $-1 #
edge $-1 $179 2.4047657786798092e-016 $179 6.2831853071796004 $116 $180 forward 7 unknown #
face $-1 $181 $182 $25 $-1 $183 reversed single #
loop $-1 $-1 $184 $74 #
plane-surface $-1 0 -25.400234338228923 0 0 1 0 0 0 1 forward_v I I I I #
coedge $-1 $185 $186 $187 $188 reversed $75 $-1 #
coedge $-1 $189 $77 $190 $191 reversed $48 $-1 #
coedge $-1 $77 $189 $185 $192 forward $48 $-1 #
coedge $-1 $187 $193 $77 $125 forward $194 $-1 #
edge $-1 $195 -30.367673774716287 $196 -12.645262009693134 $124 $197 forward 7 unknown #
loop $-1 $-1 $131 $78 #
plane-surface $-1 43.012935784409422 -25.400234338228927 3.7744895447047213 0 -0.51503808176128008 0.85716729658548041 1 0 0 forward_v I I I I #
loop $-1 $-1 $198 $50 #
coedge $-1 $129 $129 $130 $199 reversed $79 $-1 #
coedge $-1 $130 $130 $129 $199 forward $81 $-1 #
coedge $-1 $131 $131 $82 $132 forward $126 $-1 #
edge $-1 $200 3.6595656763529409e-016 $200 6.2831853071796004 $131 $201 forward 7 unknown #
loop $-1 $-1 $138 $83 #
plane-surface $-1 43.012935784409422 -25.400234338228927 3.7744895447047213 0 -0.51503808176128008 0.85716729658548041 1 0 0 forward_v I I I I #
loop $-1 $-1 $202 $53 #
coedge $-1 $136 $136 $137 $203 reversed $84 $-1 #
coedge $-1 $137 $137 $136 $203 forward $86 $-1 #
coedge $-1 $138 $138 $87 $139 forward $133 $-1 #
edge $-1 $204 3.6595656763529409e-016 $204 6.2831853071796004 $138 $205 forward 7 unknown #
face $-1 $206 $207 $21 $-1 $208 reversed single #
loop $-1 $-1 $209 $88 #
plane-surface $-1 -51.874141666920991 0 0 1 0 0 0 0 -1 forward_v I I I I #
coedge $-1 $210 $151 $211 $212 forward $89 $-1 #
coedge $-1 $213 $91 $210 $214 forward $57 $-1 #
coedge $-1 $91 $213 $215 $216 forward $57 $-1 #
coedge $-1 $154 $153 $91 $147 reversed $155 $-1 #
edge $-1 $217 -25.400234338228923 $218 25.400234338228923 $146 $219 forward 7 unknown #
coedge $-1 $93 $92 $220 $221 forward $36 $-1 #
coedge $-1 $222 $223 $92 $150 reversed $207 $-1 #
edge $-1 $157 -51.874141666920991 $224 51.874141666920991 $149 $225 forward 7 unknown #
coedge $-1 $143 $226 $93 $152 reversed $89 $-1 #
edge $-1 $227 -51.874141666920991 $156 51.874141666920991 $151 $228 forward 7 unknown #
coedge $-1 $146 $94 $226 $229 forward $155 $-1 #
coedge $-1 $94 $146 $222 $230 reversed $155 $-1 #
loop $-1 $-1 $153 $206 #
vertex $-1 $95 $231 #
vertex $-1 $95 $232 #
straight-curve $-1 51.874141666920991 0 12.525469725149406 0 1 0 I I #
face $-1 $-1 $233 $22 $-1 $234 reversed single #
loop $-1 $-1 $166 $96 #
plane-surface $-1 0 25.400234338228923 0 0 -1 0 0 0 -1 forward_v I I I I #
coedge $-1 $235 $99 $101 $168 forward $61 $-1 #
coedge $-1 $99 $235 $236 $237 reversed $61 $-1 #
coedge $-1 $238 $102 $99 $165 forward $97 $-1 #
edge $-1 $171 12.645262009693134 $239 30.367673774716287 $164 $240 forward 7 unknown #
coedge $-1 $241 $242 $100 $167 forward $160 $-1 #
edge $-1 $243 -55.659660972822962 $170 -46.908680792378263 $166 $244 forward 7 unknown #
edge $-1 $171 33.809530549088905 $243 50.800468676457839 $101 $245 forward 7 unknown #
coedge $-1 $102 $238 $241 $246 forward $97 $-1 #
vertex $-1 $167 $247 #
vertex $-1 $103 $248 #
straight-curve $-1 34.151729901897845 17.645025385920967 12.525469725149406 0 -1 0 I I #
coedge $-1 $173 $173 $-1 $249 reversed $106 $-1 #
edge $-1 $250 0 $250 6.2831853071796004 $107 $251 forward 7 unknown #
vertex $-1 $110 $252 #
ellipse-curve $-1 39.215276120475878 18.118196087684932 8.149979634927055 0 0.51503808176128008 0.85716729658548041 2.5 0 0 1 I I #
coedge $-1 $177 $177 $-1 $253 reversed $113 $-1 #
edge $-1 $254 0 $254 6.2831853071796004 $114 $255 forward 7 unknown #
vertex $-1 $117 $256 #
ellipse-curve $-1 46.810595448342951 18.118196087684932 8.149979634927055 0 0.51503808176128008 0.85716729658548041 2.5 0 0 1 I I #
face $-1 $-1 $194 $25 $-1 $257 forward single #
loop $-1 $-1 $190 $118 #
plane-surface $-1 51.874141666920991 0 0 -1 0 0 0 0 1 forward_v I I I I #
coedge $-1 $258 $259 $186 $260 forward $119 $-1 #
coedge $-1 $186 $121 $123 $192 reversed $75 $-1 #
coedge $-1 $121 $185 $184 $260 reversed $75 $-1 #
coedge $-1 $261 $124 $121 $188 forward $194 $-1 #
edge $-1 $196 -28.581117749117396 $262 -14.017041248029418 $187 $263 forward 7 unknown #
coedge $-1 $123 $122 $258 $264 reversed $48 $-1 #
coedge $-1 $265 $266 $122 $191 forward $182 $-1 #
edge $-1 $267 -9.9141221728023226 $195 7.0768159545665936 $190 $268 forward 7 unknown #
edge $-1 $269 4.1888842534599766e-015 $196 16.990938127368921 $185 $270 forward 7 unknown #
coedge $-1 $124 $261 $265 $271 forward $194 $-1 #
loop $-1 $-1 $187 $181 #
vertex $-1 $191 $272 #
vertex $-1 $125 $273 #
straight-curve $-1 21.506467892204711 -10.836157837140943 12.525469725149406 -1 0 0 I I #
coedge $-1 $198 $198 $-1 $274 reversed $128 $-1 #
edge $-1 $275 0 $275 6.2831853071796004 $129 $276 forward 7 unknown #
vertex $-1 $132 $277 #
ellipse-curve $-1 39.215276120475878 -18.118196087684936 8.1499796349270639 0 -0.51503808176128008 0.85716729658548041 2.5 0 0 1 I I #
coedge $-1 $202 $202 $-1 $278 reversed $135 $-1 #
edge $-1 $279 0 $279 6.2831853071796004 $136 $280 forward 7 unknown #
vertex $-1 $139 $281 #
ellipse-curve $-1 46.810595448342951 -18.118196087684936 8.1499796349270639 0 -0.51503808176128008 0.85716729658548041 2.5 0 0 1 I I #
face $-1 $-1 $155 $21 $-1 $282 reversed single #
loop $-1 $-1 $222 $140 #
plane-surface $-1 0 25.400234338228923 0 0 -1 0 0 0 -1 forward_v I I I I #
coedge $-1 $283 $220 $223 $284 forward $141 $-1 #
coedge $-1 $226 $143 $144 $214 reversed $89 $-1 #
coedge $-1 $220 $283 $143 $212 reversed $141 $-1 #
edge $-1 $227 -12.525469725149406 $285 12.525469725149406 $211 $286 forward 7 unknown #
coedge $-1 $145 $144 $283 $287 forward $57 $-1 #
edge $-1 $218 -51.874141666920991 $285 51.874141666920991 $210 $288 forward 7 unknown #
coedge $-1 $223 $222 $145 $216 reversed $207 $-1 #
edge $-1 $289 -51.874141666920991 $217 51.874141666920991 $215 $290 forward 7 unknown #
vertex $-1 $147 $291 #
vertex $-1 $229 $292 #
straight-curve $-1 51.874141666920991 0 -12.525469725149406 0 -1 0 I I #
coedge $-1 $209 $211 $148 $221 reversed $141 $-1 #
edge $-1 $224 -25.400234338228923 $227 25.400234338228923 $220 $293 forward 7 unknown #
coedge $-1 $215 $149 $154 $230 forward $207 $-1 #
coedge $-1 $149 $215 $209 $284 reversed $207 $-1 #
vertex $-1 $150 $294 #
straight-curve $-1 0 25.400234338228923 12.525469725149406 -1 0 0 I I #
coedge $-1 $151 $210 $153 $229 reversed $89 $-1 #
vertex $-1 $221 $295 #
straight-curve $-1 0 -25.400234338228923 12.525469725149406 1 0 0 I I #
edge $-1 $156 -12.525469725149406 $218 12.525469725149406 $153 $296 forward 7 unknown #
edge $-1 $157 -12.525469725149406 $217 12.525469725149406 $154 $297 forward 7 unknown #
point $-1 51.874141666920991 -25.400234338228923 12.525469725149406 #
point $-1 51.874141666920991 25.400234338228923 12.525469725149406 #
loop $-1 $-1 $236 $159 #
plane-surface $-1 51.874141666920991 0 0 -1 0 0 0 0 1 forward_v I I I I #
coedge $-1 $163 $162 $242 $298 reversed $61 $-1 #
coedge $-1 $299 $300 $163 $237 forward $233 $-1 #
edge $-1 $239 18.323418383662307 $301 35.314356511031249 $236 $302 forward 7 unknown #
coedge $-1 $169 $164 $300 $303 forward $97 $-1 #
vertex $-1 $303 $304 #
straight-curve $-1 21.506467892204711 10.836157837140924 12.525469725149406 1 0 0 I I #
coedge $-1 $305 $166 $169 $246 reversed $160 $-1 #
coedge $-1 $166 $305 $235 $298 forward $160 $-1 #
vertex $-1 $167 $306 #
straight-curve $-1 34.151729901897845 25.400234338228923 59.434150517527669 0 0 1 I I #
straight-curve $-1 34.151729901897845 -18.144266062445823 29.938665484401554 0 0.85716729658548041 -0.51503808176128008 I I #
edge $-1 $307 -51.874141666920991 $170 -34.151729901897845 $241 $308 forward 7 unknown #
point $-1 34.151729901897845 25.400234338228923 12.525469725149406 #
point $-1 34.151729901897845 10.836157837140927 12.525469725149406 #
edge $-1 $309 1 $309 0 $173 $-1 forward 7 unknown #
vertex $-1 $174 $310 #
ellipse-curve $-1 39.215276120475878 16.466449610378991 5.4010119124719989 0 0.51503808176128008 0.85716729658548041 2.5 0 0 1 I I #
point $-1 41.715276120475878 18.118196087684939 8.1499796349270657 #
edge $-1 $311 1 $311 0 $177 $-1 forward 7 unknown #
vertex $-1 $178 $312 #
ellipse-curve $-1 46.810595448342951 16.466449610378991 5.4010119124719989 0 0.51503808176128008 0.85716729658548041 2.5 0 0 1 I I #
point $-1 49.310595448342951 18.118196087684939 8.1499796349270657 #
plane-surface $-1 0 0 12.525469725149406 0 0 1 1 0 0 forward_v I I I I #
coedge $-1 $313 $184 $189 $264 forward $119 $-1 #
coedge $-1 $184 $313 $261 $314 reversed $119 $-1 #
edge $-1 $262 33.826592822529847 $269 42.577573002974532 $184 $315 forward 7 unknown #
coedge $-1 $193 $187 $259 $314 forward $194 $-1 #
vertex $-1 $314 $316 #
straight-curve $-1 34.151729901897845 -39.417275586258341 12.525469725149406 0 -1 0 I I #
edge $-1 $269 12.645262009693134 $267 30.367673774716287 $258 $317 forward 7 unknown #
coedge $-1 $266 $190 $193 $271 reversed $182 $-1 #
coedge $-1 $190 $265 $313 $318 forward $182 $-1 #
vertex $-1 $191 $319 #
straight-curve $-1 51.874141666920991 -16.902173037349787 8.8806400109318062 0 0.85716729658548041 0.51503808176128008 I I #
vertex $-1 $264 $320 #
straight-curve $-1 34.151729901897845 -25.400234338228927 3.7744895447047213 0 0.85716729658548041 0.51503808176128008 I I #
edge $-1 $321 -25.400234338228923 $195 -10.836157837140943 $265 $322 forward 7 unknown #
point $-1 51.874141666920998 -10.836157837140943 12.525469725149406 #
point $-1 34.151729901897845 -10.836157837140943 12.525469725149406 #
edge $-1 $323 1 $323 0 $198 $-1 forward 7 unknown #
vertex $-1 $199 $324 #
ellipse-curve $-1 39.215276120475878 -16.466449610378987 5.4010119124719989 0 -0.51503808176128008 0.85716729658548041 2.5 0 0 1 I I #
point $-1 41.715276120475878 -18.118196087684936 8.1499796349270657 #
edge $-1 $325 1 $325 0 $202 $-1 forward 7 unknown #
vertex $-1 $203 $326 #
ellipse-curve $-1 46.810595448342951 -16.466449610378987 5.4010119124719989 0 -0.51503808176128008 0.85716729658548041 2.5 0 0 1 I I #
point $-1 49.310595448342951 -18.118196087684936 8.1499796349270657 #
plane-surface $-1 51.874141666920991 0 0 -1 0 0 0 0 1 forward_v I I I I #
coedge $-1 $211 $209 $213 $287 reversed $141 $-1 #
edge $-1 $224 -12.525469725149406 $289 12.525469725149406 $223 $327 forward 7 unknown #
vertex $-1 $287 $328 #
straight-curve $-1 -51.874141666920991 -25.400234338228923 0 0 0 -1 I I #
edge $-1 $285 -25.400234338228923 $289 25.400234338228923 $283 $329 forward 7 unknown #
straight-curve $-1 0 -25.400234338228923 -12.525469725149406 -1 0 0 I I #
vertex $-1 $216 $330 #
straight-curve $-1 0 25.400234338228923 -12.525469725149406 1 0 0 I I #
point $-1 51.874141666920991 25.400234338228923 -12.525469725149406 #
point $-1 51.874141666920991 -25.400234338228923 -12.525469725149406 #
straight-curve $-1 -51.874141666920991 0 12.525469725149406 0 -1 0 I I #
point $-1 -51.874141666920991 25.400234338228923 12.525469725149406 #
point $-1 -51.874141666920991 -25.400234338228923 12.525469725149406 #
straight-curve $-1 51.874141666920991 -25.400234338228923 0 0 0 -1 I I #
straight-curve $-1 51.874141666920991 25.400234338228923 0 0 0 -1 I I #
edge $-1 $301 -30.367673774716287 $243 -12.645262009693134 $242 $331 forward 7 unknown #
coedge $-1 $300 $236 $305 $332 reversed $233 $-1 #
coedge $-1 $236 $299 $238 $303 reversed $233 $-1 #
vertex $-1 $237 $333 #
straight-curve $-1 51.874141666920991 -4.8700771629875899 21.962727980780215 0 0.85716729658548041 -0.51503808176128008 I I #
edge $-1 $239 10.836157837140927 $307 25.400234338228923 $300 $334 forward 7 unknown #
point $-1 51.874141666920998 10.836157837140927 12.525469725149406 #
coedge $-1 $242 $241 $299 $332 forward $160 $-1 #
point $-1 34.151729901897845 25.400234338228927 3.7744895447047107 #
vertex $-1 $303 $335 #
straight-curve $-1 0 25.400234338228923 12.525469725149406 -1 0 0 I I #
vertex $-1 $249 $336 #
point $-1 41.715276120475878 16.466449610378991 5.4010119124719989 #
vertex $-1 $253 $337 #
point $-1 49.310595448342951 16.466449610378991 5.4010119124719989 #
coedge $-1 $259 $258 $266 $318 reversed $119 $-1 #
edge $-1 $262 34.151729901897845 $321 51.874141666920991 $259 $338 forward 7 unknown #
straight-curve $-1 34.151729901897845 -25.400234338228923 46.352062547679253 0 0 -1 I I #
point $-1 34.151729901897845 -25.400234338228923 12.525469725149406 #
straight-curve $-1 21.506467892204711 -25.400234338228923 3.774489544704724 1 0 0 I I #
edge $-1 $321 -12.525469725149406 $267 -3.7744895447047235 $266 $339 forward 7 unknown #
point $-1 51.874141666920998 -25.400234338228923 3.7744895447047235 #
point $-1 34.151729901897845 -25.400234338228923 3.7744895447047235 #
vertex $-1 $271 $340 #
straight-curve $-1 51.874141666920991 0 12.525469725149406 0 1 0 I I #
vertex $-1 $274 $341 #
point $-1 41.715276120475878 -16.466449610378987 5.4010119124719989 #
vertex $-1 $278 $342 #
point $-1 49.310595448342951 -16.466449610378987 5.4010119124719989 #
straight-curve $-1 -51.874141666920991 25.400234338228923 0 0 0 -1 I I #
point $-1 -51.874141666920991 -25.400234338228923 -12.525469725149406 #
straight-curve $-1 -51.874141666920991 0 -12.525469725149406 0 1 0 I I #
point $-1 -51.874141666920991 25.400234338228923 -12.525469725149406 #
straight-curve $-1 21.506467892204711 25.400234338228923 3.7744895447047142 -1 0 0 I I #
edge $-1 $307 -12.525469725149406 $301 -3.7744895447047107 $299 $343 forward 7 unknown #
point $-1 51.874141666920998 25.400234338228927 3.7744895447047107 #
straight-curve $-1 51.874141666920991 0 12.525469725149406 0 1 0 I I #
point $-1 51.874141666920991 25.400234338228923 12.525469725149406 #
point $-1 39.215276120475878 15.178854405975789 3.2580936710082984 #
point $-1 46.810595448342951 15.178854405975789 3.2580936710082984 #
straight-curve $-1 0 -25.400234338228923 12.525469725149406 1 0 0 I I #
straight-curve $-1 51.874141666920991 -25.400234338228923 0 0 0 -1 I I #
point $-1 51.874141666920991 -25.400234338228923 12.525469725149406 #
point $-1 39.215276120475878 -15.178854405975786 3.2580936710082984 #
point $-1 46.810595448342951 -15.178854405975786 3.2580936710082984 #
straight-curve $-1 51.874141666920991 25.400234338228923 0 0 0 -1 I I #
End-of-ACIS-data 