500 0 5 0           
7 Unknown 11 ACIS 5.0 NT 24 Fri Mar 26 01:06:38 1999 
-1 9.9999999999999995e-007 1e-010 
body $-1 $5 $-1 $6 #
body $-1 $7 $-1 $8 #
body $-1 $9 $-1 $10 #
body $-1 $11 $-1 $12 #
body $-1 $13 $-1 $14 #
lump $-1 $-1 $15 $0 #
transform $-1 1 0 0 0 1 0 0 0 1 55.876949369792783 30.269082513006861 9.3624737747604545 1 rotate no_reflect no_shear #
lump $-1 $-1 $16 $1 #
transform $-1 1 0 0 0 1 0 0 0 1 55.876949369792783 30.269082513006861 9.3624737747604545 1 rotate no_reflect no_shear #
lump $-1 $-1 $17 $2 #
transform $-1 1 0 0 0 1 0 0 0 1 55.876949369792783 30.269082513006861 9.3624737747604545 1 rotate no_reflect no_shear #
lump $-1 $-1 $18 $3 #
transform $-1 1 0 0 0 1 0 0 0 1 55.876949369792783 30.269082513006861 9.3624737747604545 1 rotate no_reflect no_shear #
lump $-1 $-1 $19 $4 #
transform $-1 1 0 0 0 1 0 0 0 1 55.876949369792783 30.269082513006861 9.3624737747604545 1 rotate no_reflect no_shear #
shell $-1 $-1 $-1 $20 $-1 $5 #
shell $-1 $-1 $-1 $21 $-1 $7 #
shell $-1 $-1 $-1 $22 $-1 $9 #
shell $-1 $-1 $-1 $23 $-1 $11 #
shell $-1 $-1 $-1 $24 $-1 $13 #
face $-1 $25 $26 $15 $-1 $27 forward single #
face $-1 $28 $29 $16 $-1 $30 forward single #
face $-1 $31 $32 $17 $-1 $33 forward single #
face $-1 $34 $35 $18 $-1 $36 reversed single #
face $-1 $37 $38 $19 $-1 $39 reversed single #
face $-1 $40 $41 $15 $-1 $42 reversed single #
loop $-1 $-1 $43 $20 #
plane-surface $-1 0 0 9.3624737747604545 0 0 1 1 0 0 forward_v I I I I #
face $-1 $44 $45 $16 $-1 $46 reversed single #
loop $-1 $-1 $47 $21 #
plane-surface $-1 0 -34.322347622762322 -6.3624737747604545 0 0 1 1 0 0 forward_v I I I I #
face $-1 $48 $49 $17 $-1 $50 forward single #
loop $-1 $-1 $51 $22 #
plane-surface $-1 -33.378249080097582 35.93526089359348 130.17102808337 1 0 0 0 -0.51503808176128008 -0.85716729658548041 forward_v I I I I #
face $-1 $52 $53 $18 $-1 $54 reversed single #
loop $-1 $55 $56 $23 #
cone-surface $-1 -29.197386779244439 23.809953871042342 4.0661264458798243 0 -0.51503808176128008 -0.85716729658548041 2 0 0 1 I I 0 1 2 forward I I I I #
face $-1 $57 $58 $19 $-1 $59 reversed single #
loop $-1 $60 $61 $24 #
cone-surface $-1 -22.926093327964729 23.809953871042342 4.0661264458798243 0 -0.51503808176128008 -0.85716729658548041 2 0 0 1 I I 0 1 2 forward I I I I #
face $-1 $62 $63 $15 $-1 $64 reversed single #
loop $-1 $-1 $65 $25 #
plane-surface $-1 0 0 -9.3624737747604545 0 0 1 1 0 0 forward_v I I I I #
coedge $-1 $66 $67 $68 $69 forward $26 $-1 #
face $-1 $70 $71 $16 $-1 $72 forward single #
loop $-1 $-1 $73 $28 #
plane-surface $-1 0 -38.37561273251778 -7.8624737747604545 0 1 0 0 0 1 forward_v I I I I #
coedge $-1 $74 $75 $76 $77 forward $29 $-1 #
face $-1 $78 $79 $17 $-1 $80 forward single #
loop $-1 $-1 $81 $31 #
plane-surface $-1 -26.061740053604588 -21.622252742587008 34.379240817871917 0 0.51503808176128008 0.85716729658548041 1 0 0 forward_v I I I I #
coedge $-1 $82 $83 $84 $85 reversed $32 $-1 #
face $-1 $86 $87 $18 $-1 $88 forward single #
loop $-1 $89 $90 $34 #
cone-surface $-1 -29.197386779244439 21.964009099716169 0.99395849303095751 0 -0.51503808176128008 -0.85716729658548041 1 0 0 1 I I -0.70710678118654746 0.70710678118654746 1 forward I I I I #
loop $-1 $-1 $91 $23 #
coedge $-1 $56 $56 $92 $93 reversed $35 $-1 #
face $-1 $94 $95 $19 $-1 $96 reversed single #
loop $-1 $97 $98 $37 #
cone-surface $-1 -22.926093327964729 21.964009099716169 0.99395849303095751 0 -0.51503808176128008 -0.85716729658548041 1 0 0 1 I I -0.70710678118654746 0.70710678118654746 1 forward I I I I #
loop $-1 $-1 $99 $24 #
coedge $-1 $61 $61 $100 $101 reversed $38 $-1 #
face $-1 $102 $103 $15 $-1 $104 reversed single #
loop $-1 $-1 $105 $40 #
plane-surface $-1 0 -30.269082513006861 0 0 1 0 0 0 1 forward_v I I I I #
coedge $-1 $106 $107 $108 $109 forward $41 $-1 #
coedge $-1 $110 $43 $111 $112 forward $26 $-1 #
coedge $-1 $43 $110 $113 $114 forward $26 $-1 #
coedge $-1 $115 $116 $43 $69 reversed $117 $-1 #
edge $-1 $118 -30.269082513006861 $119 30.269082513006861 $68 $120 forward 7 unknown #
face $-1 $121 $122 $16 $-1 $123 reversed single #
loop $-1 $-1 $124 $44 #
plane-surface $-1 0 0 9.3624737747604545 0 0 1 1 0 0 forward_v I I I I #
coedge $-1 $125 $126 $127 $128 forward $45 $-1 #
coedge $-1 $129 $47 $130 $131 reversed $29 $-1 #
coedge $-1 $47 $129 $126 $132 forward $29 $-1 #
coedge $-1 $133 $134 $47 $77 reversed $135 $-1 #
edge $-1 $136 -4.0532651097554577 $137 4.0532651097554577 $76 $138 forward 7 unknown #
face $-1 $139 $140 $17 $-1 $141 forward single #
loop $-1 $-1 $142 $48 #
plane-surface $-1 -18.745231027111593 35.93526089359348 130.17102808337 -1 0 0 0 0.51503808176128008 0.85716729658548041 forward_v I I I I #
coedge $-1 $143 $144 $145 $146 reversed $49 $-1 #
coedge $-1 $83 $51 $144 $147 forward $32 $-1 #
coedge $-1 $51 $82 $148 $149 reversed $32 $-1 #
coedge $-1 $150 $145 $51 $85 forward $140 $-1 #
edge $-1 $151 2.0450081614109195 $152 12.301452066210121 $84 $153 forward 7 unknown #
face $-1 $154 $155 $18 $-1 $156 forward single #
loop $-1 $-1 $157 $52 #
plane-surface $-1 -33.378249080097582 35.93526089359348 130.17102808337 1 0 0 0 -0.51503808176128008 -0.85716729658548041 forward_v I I I I #
loop $-1 $-1 $158 $34 #
coedge $-1 $90 $90 $91 $159 forward $53 $-1 #
coedge $-1 $91 $91 $90 $159 reversed $55 $-1 #
coedge $-1 $92 $92 $56 $93 forward $155 $-1 #
edge $-1 $160 -4.6399783558577058e-016 $160 6.2831853071795996 $92 $161 forward 7 unknown #
face $-1 $162 $163 $19 $-1 $164 reversed single #
loop $-1 $165 $166 $57 #
cone-surface $-1 -29.197386779244439 23.809953871042342 4.0661264458798243 0 -0.51503808176128008 -0.85716729658548041 2 0 0 1 I I 0 1 2 forward I I I I #
loop $-1 $-1 $167 $37 #
coedge $-1 $98 $98 $99 $168 forward $58 $-1 #
coedge $-1 $99 $99 $98 $168 reversed $60 $-1 #
coedge $-1 $100 $100 $61 $101 forward $169 $-1 #
edge $-1 $170 -4.6399783558577058e-016 $170 6.2831853071795996 $100 $171 forward 7 unknown #
face $-1 $172 $173 $15 $-1 $174 reversed single #
loop $-1 $-1 $175 $62 #
plane-surface $-1 -55.876949369792783 0 0 1 0 0 0 0 -1 forward_v I I I I #
coedge $-1 $176 $113 $177 $178 forward $63 $-1 #
coedge $-1 $179 $65 $176 $180 forward $41 $-1 #
coedge $-1 $65 $179 $181 $182 forward $41 $-1 #
coedge $-1 $116 $115 $65 $109 reversed $117 $-1 #
edge $-1 $183 -30.269082513006861 $184 30.269082513006861 $108 $185 forward 7 unknown #
coedge $-1 $67 $66 $186 $187 forward $26 $-1 #
coedge $-1 $188 $189 $66 $112 reversed $173 $-1 #
edge $-1 $119 -55.876949369792783 $190 55.876949369792783 $111 $191 forward 7 unknown #
coedge $-1 $105 $192 $67 $114 reversed $63 $-1 #
edge $-1 $193 -55.876949369792783 $118 55.876949369792783 $113 $194 forward 7 unknown #
coedge $-1 $108 $68 $192 $195 forward $117 $-1 #
coedge $-1 $68 $108 $188 $196 reversed $117 $-1 #
loop $-1 $-1 $115 $172 #
vertex $-1 $69 $197 #
vertex $-1 $69 $198 #
straight-curve $-1 55.876949369792783 0 9.3624737747604545 0 1 0 I I #
face $-1 $199 $200 $16 $-1 $201 reversed single #
loop $-1 $-1 $202 $70 #
plane-surface $-1 0 0 -9.3624737747604545 0 0 1 1 0 0 forward_v I I I I #
coedge $-1 $203 $204 $205 $206 forward $71 $-1 #
coedge $-1 $207 $73 $208 $209 reversed $45 $-1 #
coedge $-1 $73 $207 $75 $132 reversed $45 $-1 #
coedge $-1 $210 $211 $73 $128 reversed $212 $-1 #
edge $-1 $213 -1.5 $214 1.5 $127 $215 forward 7 unknown #
coedge $-1 $75 $74 $210 $216 forward $29 $-1 #
coedge $-1 $217 $218 $74 $131 forward $200 $-1 #
edge $-1 $219 -55.876949369792783 $137 55.876949369792783 $130 $220 forward 7 unknown #
edge $-1 $213 -55.876949369792783 $136 55.876949369792783 $126 $221 forward 7 unknown #
coedge $-1 $222 $76 $207 $223 forward $135 $-1 #
coedge $-1 $76 $205 $217 $224 forward $135 $-1 #
loop $-1 $-1 $134 $225 #
vertex $-1 $77 $226 #
vertex $-1 $77 $227 #
straight-curve $-1 55.876949369792783 -34.322347622762322 -6.3624737747604545 0 1 0 I I #
face $-1 $228 $229 $17 $-1 $230 forward single #
loop $-1 $-1 $231 $78 #
plane-surface $-1 0 0 9.3624737747604545 0 0 1 1 0 0 forward_v I I I I #
coedge $-1 $232 $233 $231 $234 reversed $79 $-1 #
coedge $-1 $235 $81 $233 $236 reversed $49 $-1 #
coedge $-1 $81 $235 $82 $147 reversed $49 $-1 #
coedge $-1 $84 $231 $81 $146 forward $140 $-1 #
edge $-1 $237 5.7143610003092995 $151 20.347379053295288 $145 $238 forward 7 unknown #
edge $-1 $151 48.572654972543802 $239 60.538165026013729 $82 $240 forward 7 unknown #
coedge $-1 $241 $242 $83 $149 forward $243 $-1 #
edge $-1 $152 55.723040266924549 $239 61.885733612159015 $148 $244 forward 7 unknown #
coedge $-1 $245 $84 $242 $246 forward $140 $-1 #
vertex $-1 $146 $247 #
vertex $-1 $246 $248 #
straight-curve $-1 -33.378249080097582 17.96763044679674 9.3624737747604527 0 1 0 I I #
face $-1 $249 $250 $18 $-1 $251 forward single #
loop $-1 $252 $92 $86 #
plane-surface $-1 -26.061740053604588 -21.622252742587008 34.379240817871917 0 0.51503808176128008 0.85716729658548041 1 0 0 forward_v I I I I #
coedge $-1 $253 $254 $255 $256 reversed $87 $-1 #
coedge $-1 $158 $158 $-1 $257 forward $89 $-1 #
edge $-1 $258 0 $258 6.2831853071796004 $90 $259 forward 7 unknown #
vertex $-1 $93 $260 #
ellipse-curve $-1 -29.197386779244439 25.140860560607248 6.2811271021432304 0 -0.51503808176128008 -0.85716729658548041 2 0 0 1 I I #
face $-1 $261 $262 $19 $-1 $263 forward single #
loop $-1 $264 $265 $94 #
cone-surface $-1 -29.197386779244439 21.964009099716169 0.99395849303095751 0 -0.51503808176128008 -0.85716729658548041 1 0 0 1 I I -0.70710678118654746 0.70710678118654746 1 forward I I I I #
loop $-1 $-1 $266 $57 #
coedge $-1 $166 $166 $267 $268 reversed $95 $-1 #
coedge $-1 $167 $167 $-1 $269 forward $97 $-1 #
edge $-1 $270 0 $270 6.2831853071796004 $98 $271 forward 7 unknown #
loop $-1 $272 $100 $261 #
vertex $-1 $101 $273 #
ellipse-curve $-1 -22.926093327964729 25.140860560607248 6.2811271021432304 0 -0.51503808176128008 -0.85716729658548041 2 0 0 1 I I #
face $-1 $-1 $117 $15 $-1 $274 reversed single #
loop $-1 $-1 $188 $102 #
plane-surface $-1 0 30.269082513006861 0 0 -1 0 0 0 -1 forward_v I I I I #
coedge $-1 $275 $186 $189 $276 forward $103 $-1 #
coedge $-1 $192 $105 $106 $180 reversed $63 $-1 #
coedge $-1 $186 $275 $105 $178 reversed $103 $-1 #
edge $-1 $193 -9.3624737747604545 $277 9.3624737747604545 $177 $278 forward 7 unknown #
coedge $-1 $107 $106 $275 $279 forward $41 $-1 #
edge $-1 $184 -55.876949369792783 $277 55.876949369792783 $176 $280 forward 7 unknown #
coedge $-1 $189 $188 $107 $182 reversed $173 $-1 #
edge $-1 $281 -55.876949369792783 $183 55.876949369792783 $181 $282 forward 7 unknown #
vertex $-1 $109 $283 #
vertex $-1 $195 $284 #
straight-curve $-1 55.876949369792783 0 -9.3624737747604545 0 -1 0 I I #
coedge $-1 $175 $177 $110 $187 reversed $103 $-1 #
edge $-1 $190 -30.269082513006861 $193 30.269082513006861 $186 $285 forward 7 unknown #
coedge $-1 $181 $111 $116 $196 forward $173 $-1 #
coedge $-1 $111 $181 $175 $276 reversed $173 $-1 #
vertex $-1 $112 $286 #
straight-curve $-1 0 30.269082513006861 9.3624737747604545 -1 0 0 I I #
coedge $-1 $113 $176 $115 $195 reversed $63 $-1 #
vertex $-1 $187 $287 #
straight-curve $-1 0 -30.269082513006861 9.3624737747604545 1 0 0 I I #
edge $-1 $118 -9.3624737747604545 $184 9.3624737747604545 $115 $288 forward 7 unknown #
edge $-1 $119 -9.3624737747604545 $183 9.3624737747604545 $116 $289 forward 7 unknown #
point $-1 55.876949369792783 -30.269082513006861 9.3624737747604545 #
point $-1 55.876949369792783 30.269082513006861 9.3624737747604545 #
face $-1 $290 $212 $16 $-1 $291 reversed single #
loop $-1 $-1 $130 $121 #
plane-surface $-1 0 -30.269082513006861 0 0 1 0 0 0 1 forward_v I I I I #
coedge $-1 $208 $292 $222 $293 forward $122 $-1 #
coedge $-1 $294 $124 $295 $296 forward $71 $-1 #
coedge $-1 $124 $294 $297 $298 forward $71 $-1 #
coedge $-1 $134 $299 $124 $206 reversed $135 $-1 #
edge $-1 $300 -30.269082513006861 $301 30.269082513006861 $205 $302 forward 7 unknown #
coedge $-1 $126 $125 $133 $223 reversed $45 $-1 #
coedge $-1 $303 $202 $125 $209 forward $122 $-1 #
edge $-1 $304 -55.876949369792783 $214 55.876949369792783 $125 $305 forward 7 unknown #
coedge $-1 $306 $127 $129 $216 reversed $212 $-1 #
coedge $-1 $127 $307 $303 $308 reversed $212 $-1 #
loop $-1 $-1 $307 $199 #
vertex $-1 $216 $309 #
vertex $-1 $308 $310 #
straight-curve $-1 -55.876949369792783 -38.37561273251778 -7.8624737747604545 0 0 -1 I I #
edge $-1 $219 -4.0532651097554577 $213 4.0532651097554577 $210 $311 forward 7 unknown #
coedge $-1 $297 $130 $134 $224 reversed $200 $-1 #
coedge $-1 $130 $297 $306 $312 forward $200 $-1 #
vertex $-1 $312 $313 #
straight-curve $-1 0 -30.269082513006861 -6.3624737747604545 1 0 0 I I #
straight-curve $-1 0 -38.37561273251778 -6.3624737747604545 1 0 0 I I #
coedge $-1 $299 $133 $202 $293 reversed $135 $-1 #
edge $-1 $136 -1.5 $304 1.5 $133 $314 forward 7 unknown #
edge $-1 $300 -9.3624737747604545 $137 6.3624737747604545 $134 $315 forward 7 unknown #
face $-1 $-1 $135 $16 $-1 $316 reversed single #
point $-1 55.876949369792783 -38.37561273251778 -6.3624737747604545 #
point $-1 55.876949369792783 -30.269082513006865 -6.3624737747604545 #
face $-1 $317 $318 $17 $-1 $319 reversed single #
loop $-1 $-1 $320 $139 #
plane-surface $-1 0 -34.322347622762322 -6.3624737747604545 0 0 1 1 0 0 forward_v I I I I #
coedge $-1 $145 $321 $142 $234 forward $140 $-1 #
coedge $-1 $233 $142 $322 $323 reversed $79 $-1 #
coedge $-1 $142 $232 $143 $236 forward $79 $-1 #
edge $-1 $324 -12.301452066210121 $237 -2.0450081614109195 $231 $325 forward 7 unknown #
coedge $-1 $144 $143 $241 $326 reversed $49 $-1 #
edge $-1 $327 -60.538165026013729 $237 -48.572654972543802 $233 $328 forward 7 unknown #
vertex $-1 $146 $329 #
straight-curve $-1 -13.030870026802294 20.012638608207659 9.3624737747604527 -1 0 0 I I #
vertex $-1 $326 $330 #
straight-curve $-1 -33.378249080097582 -21.622252742587008 34.379240817871917 0 0.85716729658548041 -0.51503808176128008 I I #
coedge $-1 $322 $148 $235 $326 forward $243 $-1 #
coedge $-1 $148 $331 $150 $246 reversed $243 $-1 #
loop $-1 $-1 $322 $332 #
straight-curve $-1 -33.378249080097582 30.269082513006861 65.085514041685002 0 0 -1 I I #
coedge $-1 $333 $150 $334 $335 forward $140 $-1 #
edge $-1 $152 33.378249080097582 $336 55.876949369792783 $242 $337 forward 7 unknown #
point $-1 -33.378249080097582 20.012638608207659 9.3624737747604527 #
point $-1 -33.378249080097582 30.269082513006861 9.3624737747604545 #
face $-1 $338 $339 $18 $-1 $340 forward single #
loop $-1 $-1 $341 $154 #
plane-surface $-1 -18.745231027111593 35.93526089359348 130.17102808337 -1 0 0 0 0.51503808176128008 0.85716729658548041 forward_v I I I I #
loop $-1 $-1 $342 $86 #
coedge $-1 $254 $157 $343 $344 forward $87 $-1 #
coedge $-1 $157 $253 $345 $346 reversed $87 $-1 #
coedge $-1 $347 $348 $157 $256 forward $339 $-1 #
edge $-1 $349 2.0450081614109195 $350 12.301452066210121 $255 $351 forward 7 unknown #
edge $-1 $352 1 $352 0 $158 $-1 forward 7 unknown #
vertex $-1 $159 $353 #
ellipse-curve $-1 -29.197386779244439 22.479047181477448 1.8511257896164379 0 0.51503808176128008 0.85716729658548041 2 0 0 1 I I #
point $-1 -27.197386779244439 25.140860560607237 6.2811271021432109 #
face $-1 $354 $169 $19 $-1 $355 forward single #
loop $-1 $-1 $356 $162 #
plane-surface $-1 -33.378249080097582 35.93526089359348 130.17102808337 1 0 0 0 -0.51503808176128008 -0.85716729658548041 forward_v I I I I #
loop $-1 $-1 $357 $94 #
coedge $-1 $265 $265 $266 $358 forward $163 $-1 #
coedge $-1 $266 $266 $265 $358 reversed $165 $-1 #
coedge $-1 $267 $267 $166 $268 forward $272 $-1 #
edge $-1 $359 -4.6399783558577058e-016 $359 6.2831853071795996 $267 $360 forward 7 unknown #
edge $-1 $361 1 $361 0 $167 $-1 forward 7 unknown #
vertex $-1 $168 $362 #
ellipse-curve $-1 -22.926093327964729 22.479047181477448 1.8511257896164379 0 0.51503808176128008 0.85716729658548041 2 0 0 1 I I #
loop $-1 $363 $267 $261 #
point $-1 -20.926093327964729 25.140860560607237 6.2811271021432109 #
plane-surface $-1 55.876949369792783 0 0 -1 0 0 0 0 1 forward_v I I I I #
coedge $-1 $177 $175 $179 $279 reversed $103 $-1 #
edge $-1 $190 -9.3624737747604545 $281 9.3624737747604545 $189 $364 forward 7 unknown #
vertex $-1 $279 $365 #
straight-curve $-1 -55.876949369792783 -30.269082513006861 0 0 0 -1 I I #
edge $-1 $277 -30.269082513006861 $281 30.269082513006861 $275 $366 forward 7 unknown #
straight-curve $-1 0 -30.269082513006861 -9.3624737747604545 -1 0 0 I I #
vertex $-1 $182 $367 #
straight-curve $-1 0 30.269082513006861 -9.3624737747604545 1 0 0 I I #
point $-1 55.876949369792783 30.269082513006861 -9.3624737747604545 #
point $-1 55.876949369792783 -30.269082513006861 -9.3624737747604545 #
straight-curve $-1 -55.876949369792783 0 9.3624737747604545 0 -1 0 I I #
point $-1 -55.876949369792783 30.269082513006861 9.3624737747604545 #
point $-1 -55.876949369792783 -30.269082513006861 9.3624737747604545 #
straight-curve $-1 55.876949369792783 -30.269082513006861 0 0 0 -1 I I #
straight-curve $-1 55.876949369792783 30.269082513006861 0 0 0 -1 I I #
face $-1 $225 $368 $16 $-1 $369 reversed single #
plane-surface $-1 -55.876949369792783 0 0 1 0 0 0 0 -1 forward_v I I I I #
coedge $-1 $202 $303 $370 $371 forward $122 $-1 #
edge $-1 $372 -30.269082513006861 $304 38.37561273251778 $222 $373 forward 7 unknown #
coedge $-1 $204 $203 $374 $375 forward $71 $-1 #
coedge $-1 $376 $377 $203 $296 reversed $368 $-1 #
edge $-1 $301 -55.876949369792783 $378 55.876949369792783 $295 $379 forward 7 unknown #
coedge $-1 $218 $217 $204 $298 reversed $200 $-1 #
edge $-1 $380 -55.876949369792783 $300 55.876949369792783 $297 $381 forward 7 unknown #
coedge $-1 $205 $222 $376 $382 reversed $135 $-1 #
vertex $-1 $206 $383 #
vertex $-1 $206 $384 #
straight-curve $-1 55.876949369792783 0 9.3624737747604545 0 1 0 I I #
coedge $-1 $292 $208 $211 $308 forward $122 $-1 #
vertex $-1 $223 $385 #
straight-curve $-1 0 -38.37561273251778 -9.3624737747604545 -1 0 0 I I #
coedge $-1 $374 $210 $218 $312 reversed $212 $-1 #
coedge $-1 $211 $374 $377 $386 forward $212 $-1 #
edge $-1 $214 -38.37561273251778 $387 30.269082513006861 $211 $388 forward 7 unknown #
point $-1 -55.876949369792783 -38.37561273251778 -6.3624737747604545 #
point $-1 -55.876949369792783 -38.37561273251778 -9.3624737747604545 #
straight-curve $-1 -55.876949369792783 -34.322347622762322 -6.3624737747604545 0 -1 0 I I #
edge $-1 $380 -9.3624737747604545 $219 6.3624737747604545 $306 $389 forward 7 unknown #
point $-1 -55.876949369792783 -30.269082513006865 -6.3624737747604545 #
straight-curve $-1 55.876949369792783 -38.37561273251778 -7.8624737747604545 0 0 -1 I I #
straight-curve $-1 55.876949369792783 -30.269082513006861 0 0 0 -1 I I #
plane-surface $-1 55.876949369792783 0 0 -1 0 0 0 0 1 forward_v I I I I #
face $-1 $390 $391 $17 $-1 $392 reversed single #
loop $-1 $-1 $393 $228 #
plane-surface $-1 0 -38.37561273251778 -7.8624737747604545 0 1 0 0 0 1 forward_v I I I I #
coedge $-1 $394 $395 $396 $397 forward $229 $-1 #
coedge $-1 $231 $398 $399 $400 forward $140 $-1 #
coedge $-1 $399 $241 $232 $323 forward $243 $-1 #
edge $-1 $327 -61.885733612159015 $324 -55.723040266924549 $322 $401 forward 7 unknown #
vertex $-1 $323 $402 #
straight-curve $-1 -18.745231027111593 17.96763044679674 9.3624737747604527 0 -1 0 I I #
edge $-1 $239 -20.347379053295288 $327 -5.7143610003092995 $241 $403 forward 7 unknown #
vertex $-1 $326 $404 #
straight-curve $-1 -18.745231027111593 -21.622252742587008 34.379240817871917 0 -0.85716729658548041 0.51503808176128008 I I #
point $-1 -18.745231027111593 20.012638608207659 9.3624737747604527 #
point $-1 -33.378249080097582 30.269082513006865 3.1997804295259868 #
coedge $-1 $242 $405 $406 $407 reversed $243 $-1 #
face $-1 $408 $243 $17 $-1 $409 reversed single #
coedge $-1 $398 $245 $410 $411 forward $140 $-1 #
coedge $-1 $406 $412 $245 $335 reversed $413 $-1 #
edge $-1 $336 -30.269082513006861 $414 30.269082513006861 $334 $415 forward 7 unknown #
vertex $-1 $246 $416 #
straight-curve $-1 0 30.269082513006861 9.3624737747604545 -1 0 0 I I #
face $-1 $417 $418 $18 $-1 $419 forward single #
loop $-1 $-1 $420 $249 #
plane-surface $-1 0 0 9.3624737747604545 0 0 1 1 0 0 forward_v I I I I #
coedge $-1 $421 $422 $420 $423 reversed $250 $-1 #
coedge $-1 $424 $343 $348 $425 reversed $252 $-1 #
coedge $-1 $342 $426 $253 $344 reversed $252 $-1 #
edge $-1 $349 48.572654972543802 $427 60.538165026013729 $253 $428 forward 7 unknown #
coedge $-1 $429 $430 $254 $346 forward $431 $-1 #
edge $-1 $350 55.723040266924549 $427 61.885733612159015 $345 $432 forward 7 unknown #
coedge $-1 $433 $255 $430 $434 forward $339 $-1 #
coedge $-1 $255 $420 $342 $425 forward $339 $-1 #
vertex $-1 $425 $435 #
vertex $-1 $434 $436 #
straight-curve $-1 -33.378249080097582 17.96763044679674 9.3624737747604527 0 1 0 I I #
vertex $-1 $257 $437 #
point $-1 -27.197386779244439 22.479047181477448 1.8511257896164379 #
face $-1 $438 $439 $19 $-1 $440 forward single #
plane-surface $-1 -26.061740053604588 -21.622252742587008 34.379240817871917 0 0.51503808176128008 0.85716729658548041 1 0 0 forward_v I I I I #
coedge $-1 $441 $442 $443 $444 reversed $262 $-1 #
coedge $-1 $357 $357 $-1 $445 forward $264 $-1 #
edge $-1 $446 0 $446 6.2831853071796004 $265 $447 forward 7 unknown #
vertex $-1 $268 $448 #
ellipse-curve $-1 -29.197386779244439 25.140860560607248 6.2811271021432304 0 -0.51503808176128008 -0.85716729658548041 2 0 0 1 I I #
vertex $-1 $269 $449 #
point $-1 -20.926093327964729 22.479047181477448 1.8511257896164379 #
loop $-1 $-1 $450 $261 #
straight-curve $-1 -55.876949369792783 30.269082513006861 0 0 0 -1 I I #
point $-1 -55.876949369792783 -30.269082513006861 -9.3624737747604545 #
straight-curve $-1 -55.876949369792783 0 -9.3624737747604545 0 1 0 I I #
point $-1 -55.876949369792783 30.269082513006861 -9.3624737747604545 #
loop $-1 $-1 $376 $290 #
plane-surface $-1 0 30.269082513006861 0 0 -1 0 0 0 -1 forward_v I I I I #
coedge $-1 $377 $376 $292 $371 reversed $368 $-1 #
edge $-1 $387 -55.876949369792783 $372 55.876949369792783 $370 $451 forward 7 unknown #
vertex $-1 $293 $452 #
straight-curve $-1 55.876949369792783 0 -9.3624737747604545 0 -1 0 I I #
coedge $-1 $307 $306 $294 $375 reversed $212 $-1 #
edge $-1 $378 -30.269082513006861 $380 30.269082513006861 $374 $453 forward 7 unknown #
coedge $-1 $370 $295 $299 $382 forward $368 $-1 #
coedge $-1 $295 $370 $307 $386 reversed $368 $-1 #
vertex $-1 $296 $454 #
straight-curve $-1 0 30.269082513006861 9.3624737747604545 -1 0 0 I I #
vertex $-1 $375 $455 #
straight-curve $-1 0 -30.269082513006861 9.3624737747604545 1 0 0 I I #
edge $-1 $301 -9.3624737747604545 $372 9.3624737747604545 $299 $456 forward 7 unknown #
point $-1 55.876949369792783 -30.269082513006861 9.3624737747604545 #
point $-1 55.876949369792783 30.269082513006861 9.3624737747604545 #
point $-1 55.876949369792783 -38.37561273251778 -9.3624737747604545 #
edge $-1 $378 -9.3624737747604545 $387 9.3624737747604545 $377 $457 forward 7 unknown #
vertex $-1 $371 $458 #
straight-curve $-1 -55.876949369792783 0 -9.3624737747604545 0 1 0 I I #
straight-curve $-1 -55.876949369792783 -30.269082513006861 0 0 0 -1 I I #
face $-1 $459 $460 $17 $-1 $461 reversed single #
loop $-1 $-1 $462 $317 #
plane-surface $-1 0 0 -9.3624737747604545 0 0 1 1 0 0 forward_v I I I I #
coedge $-1 $463 $464 $465 $466 forward $318 $-1 #
coedge $-1 $467 $320 $468 $469 reversed $229 $-1 #
coedge $-1 $320 $467 $464 $470 forward $229 $-1 #
coedge $-1 $471 $472 $320 $397 reversed $473 $-1 #
edge $-1 $474 -4.0532651097554577 $475 4.0532651097554577 $396 $476 forward 7 unknown #
coedge $-1 $321 $333 $477 $478 forward $140 $-1 #
coedge $-1 $479 $322 $321 $400 reversed $243 $-1 #
edge $-1 $480 -55.876949369792783 $324 18.745231027111593 $399 $337 forward 7 unknown #
straight-curve $-1 -18.745231027111593 30.269082513006861 65.085514041685002 0 0 1 I I #
point $-1 -18.745231027111593 30.269082513006861 9.3624737747604545 #
straight-curve $-1 -13.030870026802294 30.269082513006857 3.1997804295259904 1 0 0 I I #
point $-1 -18.745231027111593 30.269082513006865 3.1997804295259868 #
coedge $-1 $331 $479 $481 $482 reversed $243 $-1 #
coedge $-1 $483 $334 $331 $407 forward $413 $-1 #
edge $-1 $336 -9.3624737747604545 $484 9.3624737747604545 $331 $485 forward 7 unknown #
face $-1 $-1 $473 $17 $-1 $486 reversed single #
plane-surface $-1 0 30.269082513006861 0 0 -1 0 0 0 -1 forward_v I I I I #
coedge $-1 $487 $488 $333 $411 reversed $460 $-1 #
edge $-1 $414 -55.876949369792783 $489 55.876949369792783 $410 $490 forward 7 unknown #
coedge $-1 $334 $491 $487 $492 reversed $413 $-1 #
loop $-1 $-1 $406 $459 #
vertex $-1 $335 $493 #
straight-curve $-1 -55.876949369792783 0 9.3624737747604545 0 -1 0 I I #
point $-1 -55.876949369792783 30.269082513006861 9.3624737747604545 #
face $-1 $494 $495 $18 $-1 $496 reversed single #
loop $-1 $-1 $497 $338 #
plane-surface $-1 0 -34.322347622762322 -6.3624737747604545 0 0 1 1 0 0 forward_v I I I I #
coedge $-1 $348 $498 $341 $423 forward $339 $-1 #
coedge $-1 $422 $341 $499 $500 reversed $250 $-1 #
coedge $-1 $341 $421 $424 $501 forward $250 $-1 #
edge $-1 $502 -12.301452066210121 $503 -2.0450081614109195 $420 $504 forward 7 unknown #
coedge $-1 $426 $342 $422 $501 reversed $252 $-1 #
edge $-1 $503 5.7143610003092995 $349 20.347379053295288 $348 $505 forward 7 unknown #
coedge $-1 $343 $424 $429 $506 reversed $252 $-1 #
vertex $-1 $506 $507 #
straight-curve $-1 -33.378249080097582 -21.622252742587008 34.379240817871917 0 0.85716729658548041 -0.51503808176128008 I I #
coedge $-1 $499 $345 $426 $506 forward $431 $-1 #
coedge $-1 $345 $508 $347 $434 reversed $431 $-1 #
loop $-1 $-1 $499 $509 #
straight-curve $-1 -33.378249080097582 30.269082513006861 65.085514041685002 0 0 -1 I I #
coedge $-1 $510 $347 $511 $512 forward $339 $-1 #
edge $-1 $350 33.378249080097582 $513 55.876949369792783 $430 $514 forward 7 unknown #
point $-1 -33.378249080097582 20.012638608207659 9.3624737747604527 #
point $-1 -33.378249080097582 30.269082513006861 9.3624737747604545 #
point $-1 -29.197386779244439 21.448971017954889 0.1367911964454771 #
face $-1 $515 $516 $19 $-1 $517 forward single #
loop $-1 $-1 $518 $354 #
plane-surface $-1 -18.745231027111593 35.93526089359348 130.17102808337 -1 0 0 0 0.51503808176128008 0.85716729658548041 forward_v I I I I #
coedge $-1 $442 $356 $519 $520 forward $262 $-1 #
coedge $-1 $356 $441 $521 $522 reversed $262 $-1 #
coedge $-1 $523 $524 $356 $444 forward $516 $-1 #
edge $-1 $525 2.0450081614109195 $526 12.301452066210121 $443 $527 forward 7 unknown #
edge $-1 $528 1 $528 0 $357 $-1 forward 7 unknown #
vertex $-1 $358 $529 #
ellipse-curve $-1 -29.197386779244439 22.479047181477448 1.8511257896164379 0 0.51503808176128008 0.85716729658548041 2 0 0 1 I I #
point $-1 -27.197386779244439 25.140860560607237 6.2811271021432109 #
point $-1 -22.926093327964729 21.448971017954889 0.1367911964454771 #
coedge $-1 $530 $519 $524 $531 reversed $363 $-1 #
straight-curve $-1 0 30.269082513006861 -9.3624737747604545 1 0 0 I I #
point $-1 55.876949369792783 30.269082513006861 -9.3624737747604545 #
straight-curve $-1 -55.876949369792783 0 9.3624737747604545 0 -1 0 I I #
point $-1 -55.876949369792783 30.269082513006861 9.3624737747604545 #
point $-1 -55.876949369792783 -30.269082513006861 9.3624737747604545 #
straight-curve $-1 55.876949369792783 30.269082513006861 0 0 0 -1 I I #
straight-curve $-1 -55.876949369792783 30.269082513006861 0 0 0 -1 I I #
point $-1 -55.876949369792783 30.269082513006861 -9.3624737747604545 #
face $-1 $332 $413 $17 $-1 $532 reversed single #
loop $-1 $-1 $468 $390 #
plane-surface $-1 0 -30.269082513006861 0 0 1 0 0 0 1 forward_v I I I I #
coedge $-1 $533 $481 $534 $535 forward $391 $-1 #
coedge $-1 $536 $393 $533 $537 reversed $318 $-1 #
coedge $-1 $393 $536 $395 $470 reversed $318 $-1 #
coedge $-1 $491 $483 $393 $466 reversed $413 $-1 #
edge $-1 $538 -1.5 $539 1.5 $465 $540 forward 7 unknown #
coedge $-1 $395 $394 $491 $541 forward $229 $-1 #
coedge $-1 $488 $487 $394 $469 forward $460 $-1 #
edge $-1 $542 -55.876949369792783 $475 55.876949369792783 $468 $543 forward 7 unknown #
edge $-1 $538 -55.876949369792783 $474 55.876949369792783 $464 $544 forward 7 unknown #
coedge $-1 $534 $396 $536 $545 forward $473 $-1 #
coedge $-1 $396 $477 $488 $546 forward $473 $-1 #
loop $-1 $-1 $472 $408 #
vertex $-1 $397 $547 #
vertex $-1 $397 $548 #
straight-curve $-1 55.876949369792783 -34.322347622762322 -6.3624737747604545 0 1 0 I I #
coedge $-1 $472 $549 $398 $478 reversed $473 $-1 #
edge $-1 $489 -30.269082513006861 $480 30.269082513006861 $477 $550 forward 7 unknown #
coedge $-1 $405 $399 $549 $551 forward $243 $-1 #
vertex $-1 $478 $552 #
coedge $-1 $462 $553 $405 $482 forward $391 $-1 #
edge $-1 $484 -55.876949369792783 $554 55.876949369792783 $405 $555 forward 7 unknown #
coedge $-1 $465 $406 $553 $556 reversed $413 $-1 #
vertex $-1 $482 $557 #
straight-curve $-1 -55.876949369792783 30.269082513006861 0 0 0 -1 I I #
plane-surface $-1 55.876949369792783 0 0 -1 0 0 0 0 1 forward_v I I I I #
coedge $-1 $468 $410 $412 $492 forward $460 $-1 #
coedge $-1 $410 $468 $472 $546 reversed $460 $-1 #
vertex $-1 $478 $558 #
straight-curve $-1 0 -30.269082513006861 9.3624737747604545 1 0 0 I I #
coedge $-1 $412 $465 $467 $541 reversed $413 $-1 #
edge $-1 $414 -9.3624737747604545 $542 6.3624737747604545 $412 $559 forward 7 unknown #
point $-1 -55.876949369792783 -30.269082513006861 9.3624737747604545 #
face $-1 $560 $561 $18 $-1 $562 reversed single #
loop $-1 $-1 $563 $417 #
plane-surface $-1 0 -38.37561273251778 -7.8624737747604545 0 1 0 0 0 1 forward_v I I I I #
coedge $-1 $564 $565 $566 $567 forward $418 $-1 #
coedge $-1 $420 $568 $569 $570 forward $339 $-1 #
coedge $-1 $569 $429 $421 $500 forward $431 $-1 #
edge $-1 $571 -61.885733612159015 $502 -55.723040266924549 $499 $572 forward 7 unknown #
edge $-1 $571 -60.538165026013729 $503 -48.572654972543802 $422 $573 forward 7 unknown #
vertex $-1 $500 $574 #
vertex $-1 $425 $575 #
straight-curve $-1 -18.745231027111593 17.96763044679674 9.3624737747604527 0 -1 0 I I #
straight-curve $-1 -13.030870026802294 20.012638608207659 9.3624737747604527 -1 0 0 I I #
edge $-1 $427 -20.347379053295288 $571 -5.7143610003092995 $429 $576 forward 7 unknown #
point $-1 -33.378249080097582 30.269082513006865 3.1997804295259868 #
coedge $-1 $430 $577 $578 $579 reversed $431 $-1 #
face $-1 $580 $431 $18 $-1 $581 reversed single #
coedge $-1 $568 $433 $582 $583 forward $339 $-1 #
coedge $-1 $578 $584 $433 $512 reversed $585 $-1 #
edge $-1 $513 -30.269082513006861 $586 30.269082513006861 $511 $587 forward 7 unknown #
vertex $-1 $434 $588 #
straight-curve $-1 0 30.269082513006861 9.3624737747604545 -1 0 0 I I #
face $-1 $589 $590 $19 $-1 $591 forward single #
loop $-1 $-1 $592 $438 #
plane-surface $-1 0 0 9.3624737747604545 0 0 1 1 0 0 forward_v I I I I #
coedge $-1 $593 $594 $592 $595 reversed $439 $-1 #
coedge $-1 $450 $596 $441 $520 reversed $363 $-1 #
edge $-1 $525 48.572654972543802 $597 60.538165026013729 $441 $598 forward 7 unknown #
coedge $-1 $599 $600 $442 $522 forward $601 $-1 #
edge $-1 $526 55.723040266924549 $597 61.885733612159015 $521 $602 forward 7 unknown #
coedge $-1 $603 $443 $600 $604 forward $516 $-1 #
coedge $-1 $443 $592 $450 $531 forward $516 $-1 #
vertex $-1 $531 $605 #
vertex $-1 $604 $606 #
straight-curve $-1 -33.378249080097582 17.96763044679674 9.3624737747604527 0 1 0 I I #
vertex $-1 $445 $607 #
point $-1 -27.197386779244439 22.479047181477448 1.8511257896164379 #
coedge $-1 $596 $450 $594 $608 reversed $363 $-1 #
edge $-1 $609 5.7143610003092995 $525 20.347379053295288 $524 $610 forward 7 unknown #
plane-surface $-1 -55.876949369792783 0 0 1 0 0 0 0 -1 forward_v I I I I #
coedge $-1 $553 $462 $463 $537 forward $391 $-1 #
coedge $-1 $549 $471 $462 $535 reversed $473 $-1 #
edge $-1 $554 -30.269082513006861 $611 38.37561273251778 $534 $612 forward 7 unknown #
coedge $-1 $464 $463 $471 $545 reversed $318 $-1 #
edge $-1 $611 -55.876949369792783 $539 55.876949369792783 $463 $613 forward 7 unknown #
vertex $-1 $541 $614 #
vertex $-1 $556 $615 #
straight-curve $-1 -55.876949369792783 -38.37561273251778 -7.8624737747604545 0 0 -1 I I #
edge $-1 $542 -4.0532651097554577 $538 4.0532651097554577 $491 $616 forward 7 unknown #
vertex $-1 $492 $617 #
straight-curve $-1 0 -30.269082513006861 -6.3624737747604545 1 0 0 I I #
straight-curve $-1 0 -38.37561273251778 -6.3624737747604545 1 0 0 I I #
edge $-1 $474 -1.5 $611 1.5 $471 $618 forward 7 unknown #
edge $-1 $489 -9.3624737747604545 $475 6.3624737747604545 $472 $619 forward 7 unknown #
point $-1 55.876949369792783 -38.37561273251778 -6.3624737747604545 #
point $-1 55.876949369792783 -30.269082513006865 -6.3624737747604545 #
coedge $-1 $477 $534 $479 $551 reversed $473 $-1 #
straight-curve $-1 55.876949369792783 0 9.3624737747604545 0 1 0 I I #
edge $-1 $480 -9.3624737747604545 $554 9.3624737747604545 $549 $620 forward 7 unknown #
point $-1 55.876949369792783 30.269082513006861 9.3624737747604545 #
coedge $-1 $481 $533 $483 $556 forward $391 $-1 #
vertex $-1 $535 $621 #
straight-curve $-1 0 30.269082513006861 -9.3624737747604545 1 0 0 I I #
edge $-1 $539 -38.37561273251778 $484 30.269082513006861 $483 $622 forward 7 unknown #
point $-1 -55.876949369792783 30.269082513006861 -9.3624737747604545 #
point $-1 55.876949369792783 -30.269082513006861 9.3624737747604545 #
straight-curve $-1 -55.876949369792783 -30.269082513006861 0 0 0 -1 I I #
face $-1 $623 $624 $18 $-1 $625 reversed single #
loop $-1 $-1 $626 $494 #
plane-surface $-1 0 0 -9.3624737747604545 0 0 1 1 0 0 forward_v I I I I #
coedge $-1 $627 $628 $629 $630 forward $495 $-1 #
coedge $-1 $631 $497 $632 $633 reversed $418 $-1 #
coedge $-1 $497 $631 $628 $634 forward $418 $-1 #
coedge $-1 $635 $636 $497 $567 reversed $637 $-1 #
edge $-1 $638 -4.0532651097554577 $639 4.0532651097554577 $566 $640 forward 7 unknown #
coedge $-1 $498 $510 $641 $642 forward $339 $-1 #
coedge $-1 $643 $499 $498 $570 reversed $431 $-1 #
edge $-1 $644 -55.876949369792783 $502 18.745231027111593 $569 $514 forward 7 unknown #
vertex $-1 $506 $645 #
straight-curve $-1 -18.745231027111593 30.269082513006861 65.085514041685002 0 0 1 I I #
straight-curve $-1 -18.745231027111593 -21.622252742587008 34.379240817871917 0 -0.85716729658548041 0.51503808176128008 I I #
point $-1 -18.745231027111593 30.269082513006861 9.3624737747604545 #
point $-1 -18.745231027111593 20.012638608207659 9.3624737747604527 #
straight-curve $-1 -13.030870026802294 30.269082513006857 3.1997804295259904 1 0 0 I I #
coedge $-1 $508 $643 $646 $647 reversed $431 $-1 #
coedge $-1 $648 $511 $508 $579 forward $585 $-1 #
edge $-1 $513 -9.3624737747604545 $649 9.3624737747604545 $508 $650 forward 7 unknown #
face $-1 $-1 $637 $18 $-1 $651 reversed single #
plane-surface $-1 0 30.269082513006861 0 0 -1 0 0 0 -1 forward_v I I I I #
coedge $-1 $652 $653 $510 $583 reversed $624 $-1 #
edge $-1 $586 -55.876949369792783 $654 55.876949369792783 $582 $655 forward 7 unknown #
coedge $-1 $511 $656 $652 $657 reversed $585 $-1 #
loop $-1 $-1 $578 $623 #
vertex $-1 $512 $658 #
straight-curve $-1 -55.876949369792783 0 9.3624737747604545 0 -1 0 I I #
point $-1 -55.876949369792783 30.269082513006861 9.3624737747604545 #
face $-1 $659 $660 $19 $-1 $661 reversed single #
loop $-1 $-1 $662 $515 #
plane-surface $-1 0 -34.322347622762322 -6.3624737747604545 0 0 1 1 0 0 forward_v I I I I #
coedge $-1 $524 $663 $518 $595 forward $516 $-1 #
coedge $-1 $594 $518 $664 $665 reversed $439 $-1 #
coedge $-1 $518 $593 $530 $608 forward $439 $-1 #
edge $-1 $666 -12.301452066210121 $609 -2.0450081614109195 $592 $667 forward 7 unknown #
coedge $-1 $519 $530 $599 $668 reversed $363 $-1 #
vertex $-1 $668 $669 #
straight-curve $-1 -33.378249080097582 -21.622252742587008 34.379240817871917 0 0.85716729658548041 -0.51503808176128008 I I #
coedge $-1 $664 $521 $596 $668 forward $601 $-1 #
coedge $-1 $521 $670 $523 $604 reversed $601 $-1 #
loop $-1 $-1 $664 $671 #
straight-curve $-1 -33.378249080097582 30.269082513006861 65.085514041685002 0 0 -1 I I #
coedge $-1 $672 $523 $673 $674 forward $516 $-1 #
edge $-1 $526 33.378249080097582 $675 55.876949369792783 $600 $676 forward 7 unknown #
point $-1 -33.378249080097582 20.012638608207659 9.3624737747604527 #
point $-1 -33.378249080097582 30.269082513006861 9.3624737747604545 #
point $-1 -29.197386779244439 21.448971017954889 0.1367911964454771 #
edge $-1 $677 -60.538165026013729 $609 -48.572654972543802 $594 $678 forward 7 unknown #
vertex $-1 $531 $679 #
straight-curve $-1 -13.030870026802294 20.012638608207659 9.3624737747604527 -1 0 0 I I #
vertex $-1 $545 $680 #
straight-curve $-1 55.876949369792783 0 -9.3624737747604545 0 -1 0 I I #
straight-curve $-1 0 -38.37561273251778 -9.3624737747604545 -1 0 0 I I #
point $-1 -55.876949369792783 -38.37561273251778 -6.3624737747604545 #
point $-1 -55.876949369792783 -38.37561273251778 -9.3624737747604545 #
straight-curve $-1 -55.876949369792783 -34.322347622762322 -6.3624737747604545 0 -1 0 I I #
point $-1 -55.876949369792783 -30.269082513006865 -6.3624737747604545 #
straight-curve $-1 55.876949369792783 -38.37561273251778 -7.8624737747604545 0 0 -1 I I #
straight-curve $-1 55.876949369792783 -30.269082513006861 0 0 0 -1 I I #
straight-curve $-1 55.876949369792783 30.269082513006861 0 0 0 -1 I I #
point $-1 55.876949369792783 30.269082513006861 -9.3624737747604545 #
straight-curve $-1 -55.876949369792783 0 -9.3624737747604545 0 1 0 I I #
face $-1 $509 $585 $18 $-1 $681 reversed single #
loop $-1 $-1 $632 $560 #
plane-surface $-1 0 -30.269082513006861 0 0 1 0 0 0 1 forward_v I I I I #
coedge $-1 $682 $646 $683 $684 forward $561 $-1 #
coedge $-1 $685 $563 $682 $686 reversed $495 $-1 #
coedge $-1 $563 $685 $565 $634 reversed $495 $-1 #
coedge $-1 $656 $648 $563 $630 reversed $585 $-1 #
edge $-1 $687 -1.5 $688 1.5 $629 $689 forward 7 unknown #
coedge $-1 $565 $564 $656 $690 forward $418 $-1 #
coedge $-1 $653 $652 $564 $633 forward $624 $-1 #
edge $-1 $691 -55.876949369792783 $639 55.876949369792783 $632 $692 forward 7 unknown #
edge $-1 $687 -55.876949369792783 $638 55.876949369792783 $628 $693 forward 7 unknown #
coedge $-1 $683 $566 $685 $694 forward $637 $-1 #
coedge $-1 $566 $641 $653 $695 forward $637 $-1 #
loop $-1 $-1 $636 $580 #
vertex $-1 $567 $696 #
vertex $-1 $567 $697 #
straight-curve $-1 55.876949369792783 -34.322347622762322 -6.3624737747604545 0 1 0 I I #
coedge $-1 $636 $698 $568 $642 reversed $637 $-1 #
edge $-1 $654 -30.269082513006861 $644 30.269082513006861 $641 $699 forward 7 unknown #
coedge $-1 $577 $569 $698 $700 forward $431 $-1 #
vertex $-1 $642 $701 #
point $-1 -18.745231027111593 30.269082513006865 3.1997804295259868 #
coedge $-1 $626 $702 $577 $647 forward $561 $-1 #
edge $-1 $649 -55.876949369792783 $703 55.876949369792783 $577 $704 forward 7 unknown #
coedge $-1 $629 $578 $702 $705 reversed $585 $-1 #
vertex $-1 $647 $706 #
straight-curve $-1 -55.876949369792783 30.269082513006861 0 0 0 -1 I I #
plane-surface $-1 55.876949369792783 0 0 -1 0 0 0 0 1 forward_v I I I I #
coedge $-1 $632 $582 $584 $657 forward $624 $-1 #
coedge $-1 $582 $632 $636 $695 reversed $624 $-1 #
vertex $-1 $642 $707 #
straight-curve $-1 0 -30.269082513006861 9.3624737747604545 1 0 0 I I #
coedge $-1 $584 $629 $631 $690 reversed $585 $-1 #
edge $-1 $586 -9.3624737747604545 $691 6.3624737747604545 $584 $708 forward 7 unknown #
point $-1 -55.876949369792783 -30.269082513006861 9.3624737747604545 #
face $-1 $709 $710 $19 $-1 $711 reversed single #
loop $-1 $-1 $712 $589 #
plane-surface $-1 0 -38.37561273251778 -7.8624737747604545 0 1 0 0 0 1 forward_v I I I I #
coedge $-1 $713 $714 $715 $716 forward $590 $-1 #
coedge $-1 $592 $717 $718 $719 forward $516 $-1 #
coedge $-1 $718 $599 $593 $665 forward $601 $-1 #
edge $-1 $677 -61.885733612159015 $666 -55.723040266924549 $664 $720 forward 7 unknown #
vertex $-1 $665 $721 #
straight-curve $-1 -18.745231027111593 17.96763044679674 9.3624737747604527 0 -1 0 I I #
edge $-1 $597 -20.347379053295288 $677 -5.7143610003092995 $599 $722 forward 7 unknown #
point $-1 -33.378249080097582 30.269082513006865 3.1997804295259868 #
coedge $-1 $600 $723 $724 $725 reversed $601 $-1 #
face $-1 $726 $601 $19 $-1 $727 reversed single #
coedge $-1 $717 $603 $728 $729 forward $516 $-1 #
coedge $-1 $724 $730 $603 $674 reversed $731 $-1 #
edge $-1 $675 -30.269082513006861 $732 30.269082513006861 $673 $733 forward 7 unknown #
vertex $-1 $604 $734 #
straight-curve $-1 0 30.269082513006861 9.3624737747604545 -1 0 0 I I #
vertex $-1 $668 $735 #
straight-curve $-1 -18.745231027111593 -21.622252742587008 34.379240817871917 0 -0.85716729658548041 0.51503808176128008 I I #
point $-1 -18.745231027111593 20.012638608207659 9.3624737747604527 #
point $-1 55.876949369792783 -38.37561273251778 -9.3624737747604545 #
plane-surface $-1 -55.876949369792783 0 0 1 0 0 0 0 -1 forward_v I I I I #
coedge $-1 $702 $626 $627 $686 forward $561 $-1 #
coedge $-1 $698 $635 $626 $684 reversed $637 $-1 #
edge $-1 $703 -30.269082513006861 $736 38.37561273251778 $683 $737 forward 7 unknown #
coedge $-1 $628 $627 $635 $694 reversed $495 $-1 #
edge $-1 $736 -55.876949369792783 $688 55.876949369792783 $627 $738 forward 7 unknown #
vertex $-1 $690 $739 #
vertex $-1 $705 $740 #
straight-curve $-1 -55.876949369792783 -38.37561273251778 -7.8624737747604545 0 0 -1 I I #
edge $-1 $691 -4.0532651097554577 $687 4.0532651097554577 $656 $741 forward 7 unknown #
vertex $-1 $657 $742 #
straight-curve $-1 0 -30.269082513006861 -6.3624737747604545 1 0 0 I I #
straight-curve $-1 0 -38.37561273251778 -6.3624737747604545 1 0 0 I I #
edge $-1 $638 -1.5 $736 1.5 $635 $743 forward 7 unknown #
edge $-1 $654 -9.3624737747604545 $639 6.3624737747604545 $636 $744 forward 7 unknown #
point $-1 55.876949369792783 -38.37561273251778 -6.3624737747604545 #
point $-1 55.876949369792783 -30.269082513006865 -6.3624737747604545 #
coedge $-1 $641 $683 $643 $700 reversed $637 $-1 #
straight-curve $-1 55.876949369792783 0 9.3624737747604545 0 1 0 I I #
edge $-1 $644 -9.3624737747604545 $703 9.3624737747604545 $698 $745 forward 7 unknown #
point $-1 55.876949369792783 30.269082513006861 9.3624737747604545 #
coedge $-1 $646 $682 $648 $705 forward $561 $-1 #
vertex $-1 $684 $746 #
straight-curve $-1 0 30.269082513006861 -9.3624737747604545 1 0 0 I I #
edge $-1 $688 -38.37561273251778 $649 30.269082513006861 $648 $747 forward 7 unknown #
point $-1 -55.876949369792783 30.269082513006861 -9.3624737747604545 #
point $-1 55.876949369792783 -30.269082513006861 9.3624737747604545 #
straight-curve $-1 -55.876949369792783 -30.269082513006861 0 0 0 -1 I I #
face $-1 $748 $749 $19 $-1 $750 reversed single #
loop $-1 $-1 $751 $659 #
plane-surface $-1 0 0 -9.3624737747604545 0 0 1 1 0 0 forward_v I I I I #
coedge $-1 $752 $753 $754 $755 forward $660 $-1 #
coedge $-1 $756 $662 $757 $758 reversed $590 $-1 #
coedge $-1 $662 $756 $753 $759 forward $590 $-1 #
coedge $-1 $760 $761 $662 $716 reversed $762 $-1 #
edge $-1 $763 -4.0532651097554577 $764 4.0532651097554577 $715 $765 forward 7 unknown #
coedge $-1 $663 $672 $766 $767 forward $516 $-1 #
coedge $-1 $768 $664 $663 $719 reversed $601 $-1 #
edge $-1 $769 -55.876949369792783 $666 18.745231027111593 $718 $676 forward 7 unknown #
straight-curve $-1 -18.745231027111593 30.269082513006861 65.085514041685002 0 0 1 I I #
point $-1 -18.745231027111593 30.269082513006861 9.3624737747604545 #
straight-curve $-1 -13.030870026802294 30.269082513006857 3.1997804295259904 1 0 0 I I #
coedge $-1 $670 $768 $770 $771 reversed $601 $-1 #
coedge $-1 $772 $673 $670 $725 forward $731 $-1 #
edge $-1 $675 -9.3624737747604545 $773 9.3624737747604545 $670 $774 forward 7 unknown #
face $-1 $-1 $762 $19 $-1 $775 reversed single #
plane-surface $-1 0 30.269082513006861 0 0 -1 0 0 0 -1 forward_v I I I I #
coedge $-1 $776 $777 $672 $729 reversed $749 $-1 #
edge $-1 $732 -55.876949369792783 $778 55.876949369792783 $728 $779 forward 7 unknown #
coedge $-1 $673 $780 $776 $781 reversed $731 $-1 #
loop $-1 $-1 $724 $748 #
vertex $-1 $674 $782 #
straight-curve $-1 -55.876949369792783 0 9.3624737747604545 0 -1 0 I I #
point $-1 -55.876949369792783 30.269082513006861 9.3624737747604545 #
point $-1 -18.745231027111593 30.269082513006865 3.1997804295259868 #
vertex $-1 $694 $783 #
straight-curve $-1 55.876949369792783 0 -9.3624737747604545 0 -1 0 I I #
straight-curve $-1 0 -38.37561273251778 -9.3624737747604545 -1 0 0 I I #
point $-1 -55.876949369792783 -38.37561273251778 -6.3624737747604545 #
point $-1 -55.876949369792783 -38.37561273251778 -9.3624737747604545 #
straight-curve $-1 -55.876949369792783 -34.322347622762322 -6.3624737747604545 0 -1 0 I I #
point $-1 -55.876949369792783 -30.269082513006865 -6.3624737747604545 #
straight-curve $-1 55.876949369792783 -38.37561273251778 -7.8624737747604545 0 0 -1 I I #
straight-curve $-1 55.876949369792783 -30.269082513006861 0 0 0 -1 I I #
straight-curve $-1 55.876949369792783 30.269082513006861 0 0 0 -1 I I #
point $-1 55.876949369792783 30.269082513006861 -9.3624737747604545 #
straight-curve $-1 -55.876949369792783 0 -9.3624737747604545 0 1 0 I I #
face $-1 $671 $731 $19 $-1 $784 reversed single #
loop $-1 $-1 $757 $709 #
plane-surface $-1 0 -30.269082513006861 0 0 1 0 0 0 1 forward_v I I I I #
coedge $-1 $785 $770 $786 $787 forward $710 $-1 #
coedge $-1 $788 $712 $785 $789 reversed $660 $-1 #
coedge $-1 $712 $788 $714 $759 reversed $660 $-1 #
coedge $-1 $780 $772 $712 $755 reversed $731 $-1 #
edge $-1 $790 -1.5 $791 1.5 $754 $792 forward 7 unknown #
coedge $-1 $714 $713 $780 $793 forward $590 $-1 #
coedge $-1 $777 $776 $713 $758 forward $749 $-1 #
edge $-1 $794 -55.876949369792783 $764 55.876949369792783 $757 $795 forward 7 unknown #
edge $-1 $790 -55.876949369792783 $763 55.876949369792783 $753 $796 forward 7 unknown #
coedge $-1 $786 $715 $788 $797 forward $762 $-1 #
coedge $-1 $715 $766 $777 $798 forward $762 $-1 #
loop $-1 $-1 $761 $726 #
vertex $-1 $716 $799 #
vertex $-1 $716 $800 #
straight-curve $-1 55.876949369792783 -34.322347622762322 -6.3624737747604545 0 1 0 I I #
coedge $-1 $761 $801 $717 $767 reversed $762 $-1 #
edge $-1 $778 -30.269082513006861 $769 30.269082513006861 $766 $802 forward 7 unknown #
coedge $-1 $723 $718 $801 $803 forward $601 $-1 #
vertex $-1 $767 $804 #
coedge $-1 $751 $805 $723 $771 forward $710 $-1 #
edge $-1 $773 -55.876949369792783 $806 55.876949369792783 $723 $807 forward 7 unknown #
coedge $-1 $754 $724 $805 $808 reversed $731 $-1 #
vertex $-1 $771 $809 #
straight-curve $-1 -55.876949369792783 30.269082513006861 0 0 0 -1 I I #
plane-surface $-1 55.876949369792783 0 0 -1 0 0 0 0 1 forward_v I I I I #
coedge $-1 $757 $728 $730 $781 forward $749 $-1 #
coedge $-1 $728 $757 $761 $798 reversed $749 $-1 #
vertex $-1 $767 $810 #
straight-curve $-1 0 -30.269082513006861 9.3624737747604545 1 0 0 I I #
coedge $-1 $730 $754 $756 $793 reversed $731 $-1 #
edge $-1 $732 -9.3624737747604545 $794 6.3624737747604545 $730 $811 forward 7 unknown #
point $-1 -55.876949369792783 -30.269082513006861 9.3624737747604545 #
point $-1 55.876949369792783 -38.37561273251778 -9.3624737747604545 #
plane-surface $-1 -55.876949369792783 0 0 1 0 0 0 0 -1 forward_v I I I I #
coedge $-1 $805 $751 $752 $789 forward $710 $-1 #
coedge $-1 $801 $760 $751 $787 reversed $762 $-1 #
edge $-1 $806 -30.269082513006861 $812 38.37561273251778 $786 $813 forward 7 unknown #
coedge $-1 $753 $752 $760 $797 reversed $660 $-1 #
edge $-1 $812 -55.876949369792783 $791 55.876949369792783 $752 $814 forward 7 unknown #
vertex $-1 $793 $815 #
vertex $-1 $808 $816 #
straight-curve $-1 -55.876949369792783 -38.37561273251778 -7.8624737747604545 0 0 -1 I I #
edge $-1 $794 -4.0532651097554577 $790 4.0532651097554577 $780 $817 forward 7 unknown #
vertex $-1 $781 $818 #
straight-curve $-1 0 -30.269082513006861 -6.3624737747604545 1 0 0 I I #
straight-curve $-1 0 -38.37561273251778 -6.3624737747604545 1 0 0 I I #
edge $-1 $763 -1.5 $812 1.5 $760 $819 forward 7 unknown #
edge $-1 $778 -9.3624737747604545 $764 6.3624737747604545 $761 $820 forward 7 unknown #
point $-1 55.876949369792783 -38.37561273251778 -6.3624737747604545 #
point $-1 55.876949369792783 -30.269082513006865 -6.3624737747604545 #
coedge $-1 $766 $786 $768 $803 reversed $762 $-1 #
straight-curve $-1 55.876949369792783 0 9.3624737747604545 0 1 0 I I #
edge $-1 $769 -9.3624737747604545 $806 9.3624737747604545 $801 $821 forward 7 unknown #
point $-1 55.876949369792783 30.269082513006861 9.3624737747604545 #
coedge $-1 $770 $785 $772 $808 forward $710 $-1 #
vertex $-1 $787 $822 #
straight-curve $-1 0 30.269082513006861 -9.3624737747604545 1 0 0 I I #
edge $-1 $791 -38.37561273251778 $773 30.269082513006861 $772 $823 forward 7 unknown #
point $-1 -55.876949369792783 30.269082513006861 -9.3624737747604545 #
point $-1 55.876949369792783 -30.269082513006861 9.3624737747604545 #
straight-curve $-1 -55.876949369792783 -30.269082513006861 0 0 0 -1 I I #
vertex $-1 $797 $824 #
straight-curve $-1 55.876949369792783 0 -9.3624737747604545 0 -1 0 I I #
straight-curve $-1 0 -38.37561273251778 -9.3624737747604545 -1 0 0 I I #
point $-1 -55.876949369792783 -38.37561273251778 -6.3624737747604545 #
point $-1 -55.876949369792783 -38.37561273251778 -9.3624737747604545 #
straight-curve $-1 -55.876949369792783 -34.322347622762322 -6.3624737747604545 0 -1 0 I I #
point $-1 -55.876949369792783 -30.269082513006865 -6.3624737747604545 #
straight-curve $-1 55.876949369792783 -38.37561273251778 -7.8624737747604545 0 0 -1 I I #
straight-curve $-1 55.876949369792783 -30.269082513006861 0 0 0 -1 I I #
straight-curve $-1 55.876949369792783 30.269082513006861 0 0 0 -1 I I #
point $-1 55.876949369792783 30.269082513006861 -9.3624737747604545 #
straight-curve $-1 -55.876949369792783 0 -9.3624737747604545 0 1 0 I I #
point $-1 55.876949369792783 -38.37561273251778 -9.3624737747604545 #
End-of-ACIS-data 