500 0 9 0           
7 Unknown 11 ACIS 5.0 NT 24 Fri Mar 26 01:49:09 1999 
-1 9.9999999999999995e-007 1e-010 
body $-1 $9 $-1 $10 #
body $-1 $11 $-1 $12 #
body $-1 $13 $-1 $14 #
body $-1 $15 $-1 $16 #
body $-1 $17 $-1 $18 #
body $-1 $19 $-1 $20 #
body $-1 $21 $-1 $22 #
body $-1 $23 $-1 $24 #
body $-1 $25 $-1 $26 #
lump $-1 $-1 $27 $0 #
transform $-1 1 0 0 0 1 0 0 0 1 67.675405133213289 35.824571664728268 14.348961635163219 1 rotate no_reflect no_shear #
lump $-1 $-1 $28 $1 #
transform $-1 1 0 0 0 1 0 0 0 1 67.675405133213289 35.824571664728268 14.348961635163219 1 rotate no_reflect no_shear #
lump $-1 $-1 $29 $2 #
transform $-1 1 0 0 0 1 0 0 0 1 67.675405133213289 35.824571664728268 14.348961635163219 1 rotate no_reflect no_shear #
lump $-1 $-1 $30 $3 #
transform $-1 1 0 0 0 1 0 0 0 1 67.675405133213289 35.824571664728268 14.348961635163219 1 rotate no_reflect no_shear #
lump $-1 $-1 $31 $4 #
transform $-1 1 0 0 0 1 0 0 0 1 67.675405133213289 35.824571664728268 14.348961635163219 1 rotate no_reflect no_shear #
lump $-1 $-1 $32 $5 #
transform $-1 1 0 0 0 1 0 0 0 1 67.675405133213289 35.824571664728268 14.348961635163219 1 rotate no_reflect no_shear #
lump $-1 $-1 $33 $6 #
transform $-1 1 0 0 0 1 0 0 0 1 67.675405133213289 35.824571664728268 14.348961635163219 1 rotate no_reflect no_shear #
lump $-1 $-1 $34 $7 #
transform $-1 1 0 0 0 1 0 0 0 1 67.675405133213289 35.824571664728268 14.348961635163219 1 rotate no_reflect no_shear #
lump $-1 $-1 $35 $8 #
transform $-1 1 0 0 0 1 0 0 0 1 67.675405133213289 35.824571664728268 14.348961635163219 1 rotate no_reflect no_shear #
shell $-1 $-1 $-1 $36 $-1 $9 #
shell $-1 $-1 $-1 $37 $-1 $11 #
shell $-1 $-1 $-1 $38 $-1 $13 #
shell $-1 $-1 $-1 $39 $-1 $15 #
shell $-1 $-1 $-1 $40 $-1 $17 #
shell $-1 $-1 $-1 $41 $-1 $19 #
shell $-1 $-1 $-1 $42 $-1 $21 #
shell $-1 $-1 $-1 $43 $-1 $23 #
shell $-1 $-1 $-1 $44 $-1 $25 #
face $-1 $45 $46 $27 $-1 $47 forward single #
face $-1 $48 $49 $28 $-1 $50 reversed single #
face $-1 $51 $52 $29 $-1 $53 forward single #
face $-1 $54 $55 $30 $-1 $56 reversed single #
face $-1 $57 $58 $31 $-1 $59 forward single #
face $-1 $60 $61 $32 $-1 $62 reversed single #
face $-1 $63 $64 $33 $-1 $65 forward single #
face $-1 $66 $67 $34 $-1 $68 reversed single #
face $-1 $69 $70 $35 $-1 $71 forward single #
face $-1 $72 $73 $27 $-1 $74 reversed single #
loop $-1 $-1 $75 $36 #
plane-surface $-1 0 0 14.348961635163219 0 0 1 1 0 0 forward_v I I I I #
face $-1 $76 $77 $28 $-1 $78 reversed single #
loop $-1 $-1 $79 $37 #
plane-surface $-1 -16.274977643657362 105.60120622534694 141.38822419871178 1 0 0 0 -0.81915205242281985 -0.57357642473473569 forward_v I I I I #
face $-1 $80 $81 $29 $-1 $82 forward single #
loop $-1 $83 $84 $38 #
cone-surface $-1 -8.1374888218286827 29.614781082181199 7.6341586457649644 0 -0.81915205242281985 -0.57357642473473569 2 0 0 1 I I 0 1 2 forward I I I I #
face $-1 $85 $86 $30 $-1 $87 reversed single #
loop $-1 $-1 $88 $39 #
plane-surface $-1 -8.1374888218286827 -5.2716878014880706 63.754190361145263 0 0.81915205242281985 0.57357642473473569 1 0 0 forward_v I I I I #
face $-1 $89 $90 $31 $-1 $91 forward single #
loop $-1 $92 $93 $40 #
cone-surface $-1 8.1374888218286685 29.614781082181199 7.6341586457649644 0 -0.81915205242281985 -0.57357642473473569 2 0 0 1 I I 0 1 2 forward I I I I #
face $-1 $94 $95 $32 $-1 $96 reversed single #
loop $-1 $-1 $97 $41 #
plane-surface $-1 -3.5527136788005009e-015 -146.69746569156325 82.696681386050685 -1 0 0 0 -0.81915205242281985 0.57357642473473569 forward_v I I I I #
face $-1 $98 $99 $33 $-1 $100 forward single #
loop $-1 $101 $102 $42 #
cone-surface $-1 -8.1374888218286827 -29.614781082181196 7.6341586457649608 0 0.81915205242281985 -0.57357642473473569 2 0 0 1 I I 0 1 2 forward I I I I #
face $-1 $103 $104 $34 $-1 $105 reversed single #
loop $-1 $-1 $106 $43 #
plane-surface $-1 16.274977643657348 -146.69746569156325 82.696681386050685 -1 0 0 0 -0.81915205242281985 0.57357642473473569 forward_v I I I I #
face $-1 $107 $108 $35 $-1 $109 forward single #
loop $-1 $110 $111 $44 #
cone-surface $-1 8.1374888218286685 -29.614781082181196 7.6341586457649608 0 0.81915205242281985 -0.57357642473473569 2 0 0 1 I I 0 1 2 forward I I I I #
face $-1 $112 $113 $27 $-1 $114 reversed single #
loop $-1 $-1 $115 $45 #
plane-surface $-1 0 0 -14.348961635163219 0 0 1 1 0 0 forward_v I I I I #
coedge $-1 $116 $117 $118 $119 forward $46 $-1 #
face $-1 $120 $121 $28 $-1 $122 reversed single #
loop $-1 $-1 $123 $48 #
plane-surface $-1 -8.1374888218286827 -5.2716878014880706 63.754190361145263 0 0.81915205242281985 0.57357642473473569 1 0 0 forward_v I I I I #
coedge $-1 $124 $125 $126 $127 reversed $49 $-1 #
face $-1 $-1 $128 $29 $-1 $129 forward single #
loop $-1 $130 $131 $51 #
cone-surface $-1 -8.1374888218286827 25.837011911922268 4.9889362749714952 0 -0.81915205242281985 -0.57357642473473569 1 0 0 1 I I -0.70710678118654746 0.70710678118654746 1 forward I I I I #
loop $-1 $-1 $132 $38 #
coedge $-1 $84 $84 $133 $134 reversed $52 $-1 #
face $-1 $135 $136 $30 $-1 $137 forward single #
loop $-1 $-1 $138 $54 #
plane-surface $-1 16.274977643657348 105.60120622534694 141.38822419871178 -1 0 0 0 0.81915205242281985 0.57357642473473569 forward_v I I I I #
coedge $-1 $139 $140 $141 $142 reversed $55 $-1 #
face $-1 $-1 $143 $31 $-1 $144 forward single #
loop $-1 $145 $146 $57 #
cone-surface $-1 8.1374888218286685 25.837011911922268 4.9889362749714952 0 -0.81915205242281985 -0.57357642473473569 1 0 0 1 I I -0.70710678118654746 0.70710678118654746 1 forward I I I I #
loop $-1 $-1 $147 $40 #
coedge $-1 $93 $93 $148 $149 reversed $58 $-1 #
face $-1 $150 $151 $32 $-1 $152 reversed single #
loop $-1 $-1 $153 $60 #
plane-surface $-1 -8.1374888218286827 -35.824571664728239 5.0626475484841649 0 -0.81915205242281985 0.57357642473473569 1 0 0 forward_v I I I I #
coedge $-1 $154 $155 $156 $157 reversed $61 $-1 #
face $-1 $-1 $158 $33 $-1 $159 forward single #
loop $-1 $160 $161 $63 #
cone-surface $-1 -8.1374888218286827 -25.837011911922264 4.9889362749714916 0 0.81915205242281985 -0.57357642473473569 1 0 0 1 I I -0.70710678118654746 0.70710678118654746 1 forward I I I I #
loop $-1 $-1 $162 $42 #
coedge $-1 $102 $102 $163 $164 reversed $64 $-1 #
face $-1 $165 $166 $34 $-1 $167 reversed single #
loop $-1 $-1 $168 $66 #
plane-surface $-1 -8.1374888218286827 -35.824571664728239 5.0626475484841649 0 -0.81915205242281985 0.57357642473473569 1 0 0 forward_v I I I I #
coedge $-1 $169 $170 $171 $172 reversed $67 $-1 #
face $-1 $-1 $173 $35 $-1 $174 forward single #
loop $-1 $175 $176 $69 #
cone-surface $-1 8.1374888218286685 -25.837011911922264 4.9889362749714916 0 0.81915205242281985 -0.57357642473473569 1 0 0 1 I I -0.70710678118654746 0.70710678118654746 1 forward I I I I #
loop $-1 $-1 $177 $44 #
coedge $-1 $111 $111 $178 $179 reversed $70 $-1 #
face $-1 $180 $181 $27 $-1 $182 reversed single #
loop $-1 $-1 $183 $72 #
plane-surface $-1 0 -35.824571664728268 0 0 1 0 0 0 1 forward_v I I I I #
coedge $-1 $184 $185 $186 $187 forward $73 $-1 #
coedge $-1 $188 $75 $189 $190 forward $46 $-1 #
coedge $-1 $75 $188 $191 $192 forward $46 $-1 #
coedge $-1 $193 $194 $75 $119 reversed $195 $-1 #
edge $-1 $196 -35.824571664728268 $197 35.824571664728268 $118 $198 forward 7 unknown #
face $-1 $199 $200 $28 $-1 $201 reversed single #
loop $-1 $-1 $202 $76 #
plane-surface $-1 -3.5527136788005009e-015 105.60120622534694 141.38822419871178 -1 0 0 0 0.81915205242281985 0.57357642473473569 forward_v I I I I #
coedge $-1 $203 $204 $205 $206 reversed $77 $-1 #
coedge $-1 $125 $79 $207 $208 reversed $49 $-1 #
coedge $-1 $79 $124 $203 $209 reversed $49 $-1 #
coedge $-1 $205 $210 $79 $127 forward $211 $-1 #
edge $-1 $212 16.976031447945203 $213 23.478378377367157 $126 $214 forward 7 unknown #
loop $-1 $-1 $133 $80 #
plane-surface $-1 -8.1374888218286827 -5.2716878014880706 63.754190361145263 0 0.81915205242281985 0.57357642473473569 1 0 0 forward_v I I I I #
loop $-1 $-1 $215 $51 #
coedge $-1 $131 $131 $132 $216 reversed $81 $-1 #
coedge $-1 $132 $132 $131 $216 forward $83 $-1 #
coedge $-1 $133 $133 $84 $134 forward $128 $-1 #
edge $-1 $217 2.9283302665763018e-016 $217 6.2831853071796004 $133 $218 forward 7 unknown #
face $-1 $219 $220 $30 $-1 $221 forward single #
loop $-1 $-1 $222 $85 #
plane-surface $-1 0 0 14.348961635163219 0 0 1 1 0 0 forward_v I I I I #
coedge $-1 $223 $224 $225 $226 reversed $86 $-1 #
coedge $-1 $227 $88 $228 $229 reversed $55 $-1 #
coedge $-1 $88 $227 $222 $230 reversed $55 $-1 #
coedge $-1 $231 $232 $88 $142 forward $220 $-1 #
edge $-1 $233 -71.649143329456578 $234 -60.312647181747721 $141 $235 forward 7 unknown #
loop $-1 $-1 $148 $89 #
plane-surface $-1 -8.1374888218286827 -5.2716878014880706 63.754190361145263 0 0.81915205242281985 0.57357642473473569 1 0 0 forward_v I I I I #
loop $-1 $-1 $236 $57 #
coedge $-1 $146 $146 $147 $237 reversed $90 $-1 #
coedge $-1 $147 $147 $146 $237 forward $92 $-1 #
coedge $-1 $148 $148 $93 $149 forward $143 $-1 #
edge $-1 $238 2.9283302665763018e-016 $238 6.2831853071796004 $148 $239 forward 7 unknown #
face $-1 $240 $241 $32 $-1 $242 reversed single #
loop $-1 $-1 $243 $94 #
plane-surface $-1 -16.274977643657362 -146.69746569156325 82.696681386050685 1 0 0 0 0.81915205242281985 -0.57357642473473569 forward_v I I I I #
coedge $-1 $244 $245 $246 $247 reversed $95 $-1 #
coedge $-1 $155 $97 $248 $249 reversed $61 $-1 #
coedge $-1 $97 $154 $244 $250 reversed $61 $-1 #
coedge $-1 $246 $251 $97 $157 forward $252 $-1 #
edge $-1 $253 37.524161181053358 $254 44.026508110475305 $156 $255 forward 7 unknown #
loop $-1 $-1 $163 $98 #
plane-surface $-1 -8.1374888218286827 -35.824571664728239 5.0626475484841649 0 -0.81915205242281985 0.57357642473473569 1 0 0 forward_v I I I I #
loop $-1 $-1 $256 $63 #
coedge $-1 $161 $161 $162 $257 reversed $99 $-1 #
coedge $-1 $162 $162 $161 $257 forward $101 $-1 #
coedge $-1 $163 $163 $102 $164 forward $158 $-1 #
edge $-1 $258 -1.0203862020726448e-015 $258 6.2831853071795996 $163 $259 forward 7 unknown #
face $-1 $260 $261 $34 $-1 $262 forward single #
loop $-1 $-1 $263 $103 #
plane-surface $-1 0 -35.824571664728268 0 0 1 0 0 0 1 forward_v I I I I #
coedge $-1 $264 $265 $266 $267 reversed $104 $-1 #
coedge $-1 $170 $106 $268 $269 reversed $67 $-1 #
coedge $-1 $106 $169 $270 $271 reversed $67 $-1 #
coedge $-1 $272 $263 $106 $172 forward $166 $-1 #
edge $-1 $273 -36.28569314454122 $274 -26.999379057862122 $171 $275 forward 7 unknown #
loop $-1 $-1 $178 $107 #
plane-surface $-1 -8.1374888218286827 -35.824571664728239 5.0626475484841649 0 -0.81915205242281985 0.57357642473473569 1 0 0 forward_v I I I I #
loop $-1 $-1 $276 $69 #
coedge $-1 $176 $176 $177 $277 reversed $108 $-1 #
coedge $-1 $177 $177 $176 $277 forward $110 $-1 #
coedge $-1 $178 $178 $111 $179 forward $173 $-1 #
edge $-1 $278 -1.0203862020726448e-015 $278 6.2831853071795996 $178 $279 forward 7 unknown #
face $-1 $280 $281 $27 $-1 $282 reversed single #
loop $-1 $-1 $283 $112 #
plane-surface $-1 -67.675405133213289 0 0 1 0 0 0 0 -1 forward_v I I I I #
coedge $-1 $284 $191 $285 $286 forward $113 $-1 #
coedge $-1 $287 $115 $284 $288 forward $73 $-1 #
coedge $-1 $115 $287 $289 $290 forward $73 $-1 #
coedge $-1 $194 $193 $115 $187 reversed $195 $-1 #
edge $-1 $291 -35.824571664728268 $292 35.824571664728268 $186 $293 forward 7 unknown #
coedge $-1 $117 $116 $294 $295 forward $46 $-1 #
coedge $-1 $296 $297 $116 $190 reversed $281 $-1 #
edge $-1 $197 -67.675405133213289 $298 67.675405133213289 $189 $299 forward 7 unknown #
coedge $-1 $183 $300 $117 $192 reversed $113 $-1 #
edge $-1 $301 -67.675405133213289 $196 67.675405133213289 $191 $302 forward 7 unknown #
coedge $-1 $186 $118 $300 $303 forward $195 $-1 #
coedge $-1 $118 $186 $296 $304 reversed $195 $-1 #
loop $-1 $-1 $193 $280 #
vertex $-1 $119 $305 #
vertex $-1 $119 $306 #
straight-curve $-1 67.675405133213289 0 14.348961635163219 0 1 0 I I #
face $-1 $-1 $211 $28 $-1 $307 forward single #
loop $-1 $-1 $308 $120 #
plane-surface $-1 0 35.824571664728268 0 0 -1 0 0 0 -1 forward_v I I I I #
coedge $-1 $309 $310 $311 $312 reversed $121 $-1 #
coedge $-1 $313 $123 $125 $209 forward $77 $-1 #
coedge $-1 $123 $313 $309 $314 forward $77 $-1 #
coedge $-1 $311 $126 $123 $206 forward $211 $-1 #
edge $-1 $213 -12.206233232743021 $315 4.0687444109143378 $205 $316 forward 7 unknown #
coedge $-1 $317 $318 $124 $208 forward $200 $-1 #
edge $-1 $319 -65.631464550871783 $212 -56.34515046419267 $207 $320 forward 7 unknown #
edge $-1 $213 60.312647181747721 $319 71.649143329456578 $125 $321 forward 7 unknown #
coedge $-1 $126 $311 $317 $322 forward $211 $-1 #
loop $-1 $-1 $311 $199 #
vertex $-1 $208 $323 #
vertex $-1 $127 $324 #
straight-curve $-1 -16.274977643657362 52.800603112673471 14.348961635163221 0 -1 0 I I #
coedge $-1 $215 $215 $-1 $325 reversed $130 $-1 #
edge $-1 $326 0 $326 6.2831853071796004 $131 $327 forward 7 unknown #
vertex $-1 $134 $328 #
ellipse-curve $-1 -8.1374888218286827 32.573398200017287 9.7058045918236822 0 0.81915205242281985 0.57357642473473569 2 0 0 1 I I #
face $-1 $-1 $329 $30 $-1 $330 reversed single #
loop $-1 $-1 $231 $135 #
plane-surface $-1 -3.5527136788005009e-015 105.60120622534694 141.38822419871178 -1 0 0 0 0.81915205242281985 0.57357642473473569 forward_v I I I I #
coedge $-1 $225 $331 $140 $230 forward $136 $-1 #
coedge $-1 $224 $138 $227 $332 reversed $86 $-1 #
coedge $-1 $138 $223 $333 $334 reversed $86 $-1 #
coedge $-1 $335 $222 $138 $226 forward $136 $-1 #
edge $-1 $336 -23.478378377367157 $337 -16.976031447945203 $225 $338 forward 7 unknown #
coedge $-1 $140 $139 $223 $332 forward $55 $-1 #
coedge $-1 $339 $333 $139 $229 forward $329 $-1 #
edge $-1 $340 -20.343722054571689 $233 -4.0687444109143378 $228 $341 forward 7 unknown #
edge $-1 $234 4.0687444109143378 $336 20.343722054571689 $222 $342 forward 7 unknown #
coedge $-1 $232 $141 $331 $343 reversed $220 $-1 #
coedge $-1 $141 $231 $339 $344 reversed $220 $-1 #
vertex $-1 $229 $345 #
vertex $-1 $230 $346 #
straight-curve $-1 -3.5527136788005009e-015 -5.2716878014880706 63.754190361145263 0 -0.57357642473473569 0.81915205242281985 I I #
coedge $-1 $236 $236 $-1 $347 reversed $145 $-1 #
edge $-1 $348 0 $348 6.2831853071796004 $146 $349 forward 7 unknown #
vertex $-1 $149 $350 #
ellipse-curve $-1 8.1374888218286685 32.573398200017287 9.7058045918236822 0 0.81915205242281985 0.57357642473473569 2 0 0 1 I I #
face $-1 $-1 $252 $32 $-1 $351 forward single #
loop $-1 $-1 $352 $150 #
plane-surface $-1 0 -35.824571664728268 0 0 1 0 0 0 1 forward_v I I I I #
coedge $-1 $353 $354 $355 $356 reversed $151 $-1 #
coedge $-1 $357 $153 $155 $250 forward $95 $-1 #
coedge $-1 $153 $357 $353 $358 forward $95 $-1 #
coedge $-1 $355 $156 $153 $247 forward $252 $-1 #
edge $-1 $254 -4.0687444109143378 $359 12.206233232743021 $246 $360 forward 7 unknown #
coedge $-1 $361 $362 $154 $249 forward $241 $-1 #
edge $-1 $363 -36.28569314454122 $253 -26.999379057862122 $248 $364 forward 7 unknown #
edge $-1 $254 -11.336496147708802 $363 4.9769468549031306e-014 $155 $365 forward 7 unknown #
coedge $-1 $156 $355 $361 $366 forward $252 $-1 #
loop $-1 $-1 $355 $240 #
vertex $-1 $249 $367 #
vertex $-1 $157 $368 #
straight-curve $-1 -3.5527136788005009e-015 -73.348732845781626 14.348961635163221 0 1 0 I I #
coedge $-1 $256 $256 $-1 $369 reversed $160 $-1 #
edge $-1 $370 0 $370 6.2831853071796004 $161 $371 forward 7 unknown #
vertex $-1 $164 $372 #
ellipse-curve $-1 -8.1374888218286827 -32.573398200017287 9.7058045918236804 0 -0.81915205242281985 0.57357642473473569 2 0 0 1 I I #
face $-1 $-1 $373 $34 $-1 $374 forward single #
loop $-1 $-1 $375 $165 #
plane-surface $-1 -3.5527136788005009e-015 -146.69746569156325 82.696681386050685 -1 0 0 0 -0.81915205242281985 0.57357642473473569 forward_v I I I I #
coedge $-1 $171 $376 $265 $377 forward $166 $-1 #
coedge $-1 $268 $168 $378 $379 reversed $104 $-1 #
coedge $-1 $168 $268 $263 $377 reversed $104 $-1 #
coedge $-1 $380 $375 $168 $267 forward $261 $-1 #
edge $-1 $381 -11.336496147708802 $382 4.9769468549031306e-014 $266 $383 forward 7 unknown #
coedge $-1 $265 $264 $169 $269 forward $104 $-1 #
edge $-1 $384 -11.336496147708802 $273 4.9769468549031306e-014 $169 $385 forward 7 unknown #
coedge $-1 $378 $386 $170 $271 forward $373 $-1 #
edge $-1 $274 37.524161181053358 $384 44.026508110475305 $270 $387 forward 7 unknown #
coedge $-1 $376 $171 $386 $388 reversed $166 $-1 #
vertex $-1 $172 $389 #
vertex $-1 $172 $390 #
straight-curve $-1 16.274977643657348 -35.824571664728268 41.348340693025342 0 0 1 I I #
coedge $-1 $276 $276 $-1 $391 reversed $175 $-1 #
edge $-1 $392 0 $392 6.2831853071796004 $176 $393 forward 7 unknown #
vertex $-1 $179 $394 #
ellipse-curve $-1 8.1374888218286685 -32.573398200017287 9.7058045918236804 0 -0.81915205242281985 0.57357642473473569 2 0 0 1 I I #
face $-1 $-1 $195 $27 $-1 $395 reversed single #
loop $-1 $-1 $296 $180 #
plane-surface $-1 0 35.824571664728268 0 0 -1 0 0 0 -1 forward_v I I I I #
coedge $-1 $396 $294 $297 $397 forward $181 $-1 #
coedge $-1 $300 $183 $184 $288 reversed $113 $-1 #
coedge $-1 $294 $396 $183 $286 reversed $181 $-1 #
edge $-1 $301 -14.348961635163219 $398 14.348961635163219 $285 $399 forward 7 unknown #
coedge $-1 $185 $184 $396 $400 forward $73 $-1 #
edge $-1 $292 -67.675405133213289 $398 67.675405133213289 $284 $401 forward 7 unknown #
coedge $-1 $297 $296 $185 $290 reversed $281 $-1 #
edge $-1 $402 -67.675405133213289 $291 67.675405133213289 $289 $403 forward 7 unknown #
vertex $-1 $187 $404 #
vertex $-1 $303 $405 #
straight-curve $-1 67.675405133213289 0 -14.348961635163219 0 -1 0 I I #
coedge $-1 $283 $285 $188 $295 reversed $181 $-1 #
edge $-1 $298 -35.824571664728268 $301 35.824571664728268 $294 $406 forward 7 unknown #
coedge $-1 $289 $189 $194 $304 forward $281 $-1 #
coedge $-1 $189 $289 $283 $397 reversed $281 $-1 #
vertex $-1 $190 $407 #
straight-curve $-1 0 35.824571664728268 14.348961635163219 -1 0 0 I I #
coedge $-1 $191 $284 $193 $303 reversed $113 $-1 #
vertex $-1 $295 $408 #
straight-curve $-1 0 -35.824571664728268 14.348961635163219 1 0 0 I I #
edge $-1 $196 -14.348961635163219 $292 14.348961635163219 $193 $409 forward 7 unknown #
edge $-1 $197 -14.348961635163219 $291 14.348961635163219 $194 $410 forward 7 unknown #
point $-1 67.675405133213289 -35.824571664728268 14.348961635163219 #
point $-1 67.675405133213289 35.824571664728268 14.348961635163219 #
plane-surface $-1 0 0 14.348961635163219 0 0 1 1 0 0 forward_v I I I I #
coedge $-1 $318 $317 $310 $411 forward $200 $-1 #
coedge $-1 $310 $202 $204 $314 reversed $121 $-1 #
coedge $-1 $202 $309 $308 $411 reversed $121 $-1 #
coedge $-1 $210 $205 $202 $312 forward $211 $-1 #
edge $-1 $315 -23.478378377367157 $412 -16.976031447945203 $311 $413 forward 7 unknown #
coedge $-1 $204 $203 $318 $414 reversed $77 $-1 #
edge $-1 $415 -71.649143329456578 $315 -60.312647181747721 $309 $416 forward 7 unknown #
vertex $-1 $206 $417 #
straight-curve $-1 -4.0687444109143414 29.322224735306314 14.348961635163217 1 0 0 I I #
coedge $-1 $308 $207 $210 $322 reversed $200 $-1 #
coedge $-1 $207 $308 $313 $414 forward $200 $-1 #
vertex $-1 $208 $418 #
straight-curve $-1 -16.274977643657362 35.824571664728268 70.694112099355891 0 0 1 I I #
straight-curve $-1 -16.274977643657362 -5.2716878014880706 63.754190361145263 0 0.57357642473473569 -0.81915205242281985 I I #
edge $-1 $412 3.5527136788005009e-015 $212 16.274977643657362 $317 $419 forward 7 unknown #
point $-1 -16.274977643657362 35.824571664728268 14.348961635163219 #
point $-1 -16.274977643657362 29.322224735306314 14.348961635163221 #
edge $-1 $420 1 $420 0 $215 $-1 forward 7 unknown #
vertex $-1 $216 $421 #
ellipse-curve $-1 -8.1374888218286827 26.656163964345087 5.5625126997062306 0 0.81915205242281985 0.57357642473473569 2 0 0 1 I I #
point $-1 -6.1374888218286827 32.573398200017309 9.7058045918236964 #
loop $-1 $-1 $228 $219 #
plane-surface $-1 0 35.824571664728268 0 0 -1 0 0 0 -1 forward_v I I I I #
coedge $-1 $222 $335 $231 $343 forward $136 $-1 #
edge $-1 $340 -71.649143329456578 $336 -60.312647181747721 $223 $422 forward 7 unknown #
coedge $-1 $228 $423 $224 $334 forward $329 $-1 #
edge $-1 $337 56.34515046419267 $340 65.631464550871783 $333 $424 forward 7 unknown #
coedge $-1 $331 $225 $423 $425 forward $136 $-1 #
vertex $-1 $226 $426 #
vertex $-1 $425 $427 #
straight-curve $-1 16.274977643657348 52.800603112673471 14.348961635163221 0 1 0 I I #
coedge $-1 $423 $228 $232 $344 forward $329 $-1 #
vertex $-1 $334 $428 #
straight-curve $-1 -4.0687444109143414 35.824571664728268 5.062647548484108 -1 0 0 I I #
straight-curve $-1 -4.0687444109143414 29.322224735306314 14.348961635163217 1 0 0 I I #
edge $-1 $429 16.976031447945203 $234 23.478378377367157 $331 $430 forward 7 unknown #
edge $-1 $233 -65.631464550871783 $429 -56.34515046419267 $339 $431 forward 7 unknown #
point $-1 -3.5527136788005009e-015 35.824571664728268 5.0626475484841151 #
point $-1 -3.5527136788005009e-015 29.322224735306314 14.348961635163221 #
edge $-1 $432 1 $432 0 $236 $-1 forward 7 unknown #
vertex $-1 $237 $433 #
ellipse-curve $-1 8.1374888218286685 26.656163964345087 5.5625126997062306 0 0.81915205242281985 0.57357642473473569 2 0 0 1 I I #
point $-1 10.137488821828669 32.573398200017309 9.7058045918236964 #
plane-surface $-1 0 0 14.348961635163219 0 0 1 1 0 0 forward_v I I I I #
coedge $-1 $362 $361 $354 $434 forward $241 $-1 #
coedge $-1 $354 $243 $245 $358 reversed $151 $-1 #
coedge $-1 $243 $353 $352 $434 reversed $151 $-1 #
coedge $-1 $251 $246 $243 $356 forward $252 $-1 #
edge $-1 $359 -44.026508110475305 $435 -37.524161181053358 $355 $436 forward 7 unknown #
coedge $-1 $245 $244 $362 $437 reversed $95 $-1 #
edge $-1 $438 -4.9769468549031306e-014 $359 11.336496147708802 $353 $439 forward 7 unknown #
vertex $-1 $247 $440 #
straight-curve $-1 -4.0687444109143414 -29.322224735306325 14.348961635163219 -1 0 0 I I #
coedge $-1 $352 $248 $251 $366 reversed $241 $-1 #
coedge $-1 $248 $352 $357 $437 forward $241 $-1 #
vertex $-1 $249 $441 #
straight-curve $-1 -3.5527136788005009e-015 -35.824571664728268 41.348340693025342 0 0 1 I I #
straight-curve $-1 -3.5527136788005009e-015 -35.824571664728239 5.0626475484841649 0 -0.57357642473473569 -0.81915205242281985 I I #
edge $-1 $435 -16.274977643657362 $253 -3.5527136788005009e-015 $361 $442 forward 7 unknown #
point $-1 -3.5527136788005009e-015 -35.824571664728268 14.348961635163219 #
point $-1 -3.5527136788005009e-015 -29.322224735306321 14.348961635163219 #
edge $-1 $443 1 $443 0 $256 $-1 forward 7 unknown #
vertex $-1 $257 $444 #
ellipse-curve $-1 -8.1374888218286827 -26.656163964345083 5.5625126997062271 0 -0.81915205242281985 0.57357642473473569 2 0 0 1 I I #
point $-1 -6.1374888218286827 -32.573398200017309 9.7058045918236928 #
loop $-1 $-1 $378 $260 #
plane-surface $-1 0 0 14.348961635163219 0 0 1 1 0 0 forward_v I I I I #
coedge $-1 $266 $380 $445 $446 reversed $261 $-1 #
coedge $-1 $263 $272 $380 $447 forward $166 $-1 #
edge $-1 $382 4.0687444109143378 $273 20.343722054571689 $263 $448 forward 7 unknown #
coedge $-1 $445 $270 $264 $379 forward $373 $-1 #
edge $-1 $384 -20.343722054571689 $381 -4.0687444109143378 $378 $449 forward 7 unknown #
coedge $-1 $375 $266 $376 $447 reversed $261 $-1 #
vertex $-1 $379 $450 #
vertex $-1 $377 $451 #
straight-curve $-1 -3.5527136788005009e-015 -35.824571664728239 5.0626475484841649 0 -0.57357642473473569 -0.81915205242281985 I I #
vertex $-1 $271 $452 #
straight-curve $-1 16.274977643657348 -35.824571664728239 5.0626475484841649 0 -0.57357642473473569 -0.81915205242281985 I I #
coedge $-1 $270 $445 $272 $388 forward $373 $-1 #
straight-curve $-1 16.274977643657348 -73.348732845781626 14.348961635163221 0 1 0 I I #
edge $-1 $453 -3.5527136788005009e-015 $274 16.274977643657348 $272 $454 forward 7 unknown #
point $-1 16.274977643657348 -35.824571664728268 5.062647548484124 #
point $-1 16.274977643657348 -35.824571664728268 14.348961635163219 #
edge $-1 $455 1 $455 0 $276 $-1 forward 7 unknown #
vertex $-1 $277 $456 #
ellipse-curve $-1 8.1374888218286685 -26.656163964345083 5.5625126997062271 0 -0.81915205242281985 0.57357642473473569 2 0 0 1 I I #
point $-1 10.137488821828669 -32.573398200017309 9.7058045918236928 #
plane-surface $-1 67.675405133213289 0 0 -1 0 0 0 0 1 forward_v I I I I #
coedge $-1 $285 $283 $287 $400 reversed $181 $-1 #
edge $-1 $298 -14.348961635163219 $402 14.348961635163219 $297 $457 forward 7 unknown #
vertex $-1 $400 $458 #
straight-curve $-1 -67.675405133213289 -35.824571664728268 0 0 0 -1 I I #
edge $-1 $398 -35.824571664728268 $402 35.824571664728268 $396 $459 forward 7 unknown #
straight-curve $-1 0 -35.824571664728268 -14.348961635163219 -1 0 0 I I #
vertex $-1 $290 $460 #
straight-curve $-1 0 35.824571664728268 -14.348961635163219 1 0 0 I I #
point $-1 67.675405133213289 35.824571664728268 -14.348961635163219 #
point $-1 67.675405133213289 -35.824571664728268 -14.348961635163219 #
straight-curve $-1 -67.675405133213289 0 14.348961635163219 0 -1 0 I I #
point $-1 -67.675405133213289 35.824571664728268 14.348961635163219 #
point $-1 -67.675405133213289 -35.824571664728268 14.348961635163219 #
straight-curve $-1 67.675405133213289 -35.824571664728268 0 0 0 -1 I I #
straight-curve $-1 67.675405133213289 35.824571664728268 0 0 0 -1 I I #
edge $-1 $412 56.34515046419267 $415 65.631464550871783 $308 $461 forward 7 unknown #
vertex $-1 $322 $462 #
straight-curve $-1 -3.5527136788005009e-015 52.800603112673471 14.348961635163221 0 1 0 I I #
edge $-1 $415 -4.0687444109143378 $319 12.206233232743021 $318 $463 forward 7 unknown #
vertex $-1 $414 $464 #
straight-curve $-1 -3.5527136788005009e-015 -5.2716878014880706 63.754190361145263 0 -0.57357642473473569 0.81915205242281985 I I #
point $-1 -3.5527136788005009e-015 29.322224735306314 14.348961635163221 #
point $-1 -16.274977643657362 35.824571664728268 5.0626475484841151 #
straight-curve $-1 0 35.824571664728268 14.348961635163219 -1 0 0 I I #
vertex $-1 $325 $465 #
point $-1 -6.1374888218286827 26.656163964345087 5.5625126997062306 #
straight-curve $-1 16.274977643657348 -5.2716878014880706 63.754190361145263 0 -0.57357642473473569 0.81915205242281985 I I #
coedge $-1 $333 $339 $335 $425 reversed $329 $-1 #
straight-curve $-1 16.274977643657348 35.824571664728268 70.694112099355891 0 0 -1 I I #
edge $-1 $337 -16.274977643657348 $429 3.5527136788005009e-015 $423 $466 forward 7 unknown #
point $-1 16.274977643657348 29.322224735306314 14.348961635163221 #
point $-1 16.274977643657348 35.824571664728268 14.348961635163219 #
point $-1 16.274977643657348 35.824571664728268 5.0626475484841151 #
vertex $-1 $344 $467 #
straight-curve $-1 -3.5527136788005009e-015 52.800603112673471 14.348961635163221 0 -1 0 I I #
straight-curve $-1 -3.5527136788005009e-015 35.824571664728268 70.694112099355891 0 0 1 I I #
vertex $-1 $347 $468 #
point $-1 10.137488821828669 26.656163964345087 5.5625126997062306 #
edge $-1 $435 26.999379057862122 $438 36.28569314454122 $352 $469 forward 7 unknown #
vertex $-1 $366 $470 #
straight-curve $-1 -16.274977643657362 -73.348732845781626 14.348961635163221 0 -1 0 I I #
edge $-1 $438 -12.206233232743021 $363 4.0687444109143378 $362 $471 forward 7 unknown #
vertex $-1 $437 $472 #
straight-curve $-1 -16.274977643657362 -35.824571664728239 5.0626475484841649 0 0.57357642473473569 0.81915205242281985 I I #
point $-1 -16.274977643657362 -29.322224735306321 14.348961635163219 #
point $-1 -3.5527136788005009e-015 -35.824571664728268 5.062647548484124 #
straight-curve $-1 0 -35.824571664728268 14.348961635163219 1 0 0 I I #
vertex $-1 $369 $473 #
point $-1 -6.1374888218286827 -26.656163964345083 5.5625126997062271 #
coedge $-1 $386 $378 $375 $446 forward $373 $-1 #
edge $-1 $381 -44.026508110475305 $453 -37.524161181053358 $445 $474 forward 7 unknown #
edge $-1 $453 26.999379057862122 $382 36.28569314454122 $376 $475 forward 7 unknown #
straight-curve $-1 -4.0687444109143414 -35.824571664728268 5.0626475484841249 1 0 0 I I #
straight-curve $-1 -4.0687444109143414 -29.322224735306325 14.348961635163219 -1 0 0 I I #
point $-1 -3.5527136788005009e-015 -29.322224735306321 14.348961635163219 #
point $-1 -3.5527136788005009e-015 -35.824571664728268 5.062647548484124 #
point $-1 16.274977643657348 -29.322224735306321 14.348961635163219 #
vertex $-1 $388 $476 #
straight-curve $-1 0 -35.824571664728268 14.348961635163219 1 0 0 I I #
vertex $-1 $391 $477 #
point $-1 10.137488821828669 -26.656163964345083 5.5625126997062271 #
straight-curve $-1 -67.675405133213289 35.824571664728268 0 0 0 -1 I I #
point $-1 -67.675405133213289 -35.824571664728268 -14.348961635163219 #
straight-curve $-1 -67.675405133213289 0 -14.348961635163219 0 1 0 I I #
point $-1 -67.675405133213289 35.824571664728268 -14.348961635163219 #
straight-curve $-1 -3.5527136788005009e-015 35.824571664728268 70.694112099355891 0 0 -1 I I #
point $-1 -3.5527136788005009e-015 35.824571664728268 14.348961635163219 #
straight-curve $-1 -4.0687444109143414 35.824571664728268 5.062647548484108 -1 0 0 I I #
point $-1 -3.5527136788005009e-015 35.824571664728268 5.0626475484841151 #
point $-1 -8.1374888218286827 25.017859859499449 4.4153598502367597 #
straight-curve $-1 0 35.824571664728268 14.348961635163219 -1 0 0 I I #
point $-1 -3.5527136788005009e-015 35.824571664728268 14.348961635163219 #
point $-1 8.1374888218286685 25.017859859499449 4.4153598502367597 #
straight-curve $-1 -16.274977643657362 -35.824571664728268 41.348340693025342 0 0 -1 I I #
point $-1 -16.274977643657362 -35.824571664728268 14.348961635163219 #
straight-curve $-1 -4.0687444109143414 -35.824571664728268 5.0626475484841249 1 0 0 I I #
point $-1 -16.274977643657362 -35.824571664728268 5.062647548484124 #
point $-1 -8.1374888218286827 -25.017859859499445 4.4153598502367561 #
straight-curve $-1 -3.5527136788005009e-015 -73.348732845781626 14.348961635163221 0 -1 0 I I #
straight-curve $-1 -3.5527136788005009e-015 -35.824571664728268 41.348340693025342 0 0 -1 I I #
point $-1 -3.5527136788005009e-015 -35.824571664728268 14.348961635163219 #
point $-1 8.1374888218286685 -25.017859859499445 4.4153598502367561 #
End-of-ACIS-data 