500 0 19 0           
7 Unknown 11 ACIS 5.0 NT 24 Thu Mar 25 18:34:35 1999 
-1 9.9999999999999995e-007 1e-010 
body $-1 $19 $-1 $20 #
body $-1 $21 $-1 $22 #
body $-1 $23 $-1 $24 #
body $-1 $25 $-1 $26 #
body $-1 $27 $-1 $28 #
body $-1 $29 $-1 $30 #
body $-1 $31 $-1 $32 #
body $-1 $33 $-1 $34 #
body $-1 $35 $-1 $36 #
body $-1 $37 $-1 $38 #
body $-1 $39 $-1 $40 #
body $-1 $41 $-1 $42 #
body $-1 $43 $-1 $44 #
body $-1 $45 $-1 $46 #
body $-1 $47 $-1 $48 #
body $-1 $49 $-1 $50 #
body $-1 $51 $-1 $52 #
body $-1 $53 $-1 $54 #
body $-1 $55 $-1 $56 #
lump $-1 $-1 $57 $0 #
transform $-1 1 0 0 0 1 0 0 0 1 53.074129459517195 33.622631895524705 15.950612690400796 1 rotate no_reflect no_shear #
lump $-1 $-1 $58 $1 #
transform $-1 1 0 0 0 1 0 0 0 1 53.074129459517195 33.622631895524705 15.950612690400796 1 rotate no_reflect no_shear #
lump $-1 $-1 $59 $2 #
transform $-1 1 0 0 0 1 0 0 0 1 53.074129459517195 33.622631895524705 15.950612690400796 1 rotate no_reflect no_shear #
lump $-1 $-1 $60 $3 #
transform $-1 1 0 0 0 1 0 0 0 1 53.074129459517195 33.622631895524705 15.950612690400796 1 rotate no_reflect no_shear #
lump $-1 $-1 $61 $4 #
transform $-1 1 0 0 0 1 0 0 0 1 53.074129459517195 33.622631895524705 15.950612690400796 1 rotate no_reflect no_shear #
lump $-1 $-1 $62 $5 #
transform $-1 1 0 0 0 1 0 0 0 1 53.074129459517195 33.622631895524705 15.950612690400796 1 rotate no_reflect no_shear #
lump $-1 $-1 $63 $6 #
transform $-1 1 0 0 0 1 0 0 0 1 53.074129459517195 33.622631895524705 15.950612690400796 1 rotate no_reflect no_shear #
lump $-1 $-1 $64 $7 #
transform $-1 1 0 0 0 1 0 0 0 1 53.074129459517195 33.622631895524705 15.950612690400796 1 rotate no_reflect no_shear #
lump $-1 $-1 $65 $8 #
transform $-1 1 0 0 0 1 0 0 0 1 53.074129459517195 33.622631895524705 15.950612690400796 1 rotate no_reflect no_shear #
lump $-1 $-1 $66 $9 #
transform $-1 1 0 0 0 1 0 0 0 1 53.074129459517195 33.622631895524705 15.950612690400796 1 rotate no_reflect no_shear #
lump $-1 $-1 $67 $10 #
transform $-1 1 0 0 0 1 0 0 0 1 53.074129459517195 33.622631895524705 15.950612690400796 1 rotate no_reflect no_shear #
lump $-1 $-1 $68 $11 #
transform $-1 1 0 0 0 1 0 0 0 1 53.074129459517195 33.622631895524705 15.950612690400796 1 rotate no_reflect no_shear #
lump $-1 $-1 $69 $12 #
transform $-1 1 0 0 0 1 0 0 0 1 53.074129459517195 33.622631895524705 15.950612690400796 1 rotate no_reflect no_shear #
lump $-1 $-1 $70 $13 #
transform $-1 1 0 0 0 1 0 0 0 1 53.074129459517195 33.622631895524705 15.950612690400796 1 rotate no_reflect no_shear #
lump $-1 $-1 $71 $14 #
transform $-1 1 0 0 0 1 0 0 0 1 53.074129459517195 33.622631895524705 15.950612690400796 1 rotate no_reflect no_shear #
lump $-1 $-1 $72 $15 #
transform $-1 1 0 0 0 1 0 0 0 1 53.074129459517195 33.622631895524705 15.950612690400796 1 rotate no_reflect no_shear #
lump $-1 $-1 $73 $16 #
transform $-1 1 0 0 0 1 0 0 0 1 53.074129459517195 33.622631895524705 15.950612690400796 1 rotate no_reflect no_shear #
lump $-1 $-1 $74 $17 #
transform $-1 1 0 0 0 1 0 0 0 1 53.074129459517195 33.622631895524705 15.950612690400796 1 rotate no_reflect no_shear #
lump $-1 $-1 $75 $18 #
transform $-1 1 0 0 0 1 0 0 0 1 53.074129459517195 33.622631895524705 15.950612690400796 1 rotate no_reflect no_shear #
shell $-1 $-1 $-1 $76 $-1 $19 #
shell $-1 $-1 $-1 $77 $-1 $21 #
shell $-1 $-1 $-1 $78 $-1 $23 #
shell $-1 $-1 $-1 $79 $-1 $25 #
shell $-1 $-1 $-1 $80 $-1 $27 #
shell $-1 $-1 $-1 $81 $-1 $29 #
shell $-1 $-1 $-1 $82 $-1 $31 #
shell $-1 $-1 $-1 $83 $-1 $33 #
shell $-1 $-1 $-1 $84 $-1 $35 #
shell $-1 $-1 $-1 $85 $-1 $37 #
shell $-1 $-1 $-1 $86 $-1 $39 #
shell $-1 $-1 $-1 $87 $-1 $41 #
shell $-1 $-1 $-1 $88 $-1 $43 #
shell $-1 $-1 $-1 $89 $-1 $45 #
shell $-1 $-1 $-1 $90 $-1 $47 #
shell $-1 $-1 $-1 $91 $-1 $49 #
shell $-1 $-1 $-1 $92 $-1 $51 #
shell $-1 $-1 $-1 $93 $-1 $53 #
shell $-1 $-1 $-1 $94 $-1 $55 #
face $-1 $95 $96 $57 $-1 $97 forward single #
face $-1 $98 $99 $58 $-1 $100 forward single #
face $-1 $101 $102 $59 $-1 $103 reversed single #
face $-1 $104 $105 $60 $-1 $106 reversed single #
face $-1 $107 $108 $61 $-1 $109 forward single #
face $-1 $110 $111 $62 $-1 $112 forward single #
face $-1 $113 $114 $63 $-1 $115 forward single #
face $-1 $116 $117 $64 $-1 $118 reversed single #
face $-1 $119 $120 $65 $-1 $121 forward single #
face $-1 $122 $123 $66 $-1 $124 forward single #
face $-1 $125 $126 $67 $-1 $127 forward single #
face $-1 $128 $129 $68 $-1 $130 reversed single #
face $-1 $131 $132 $69 $-1 $133 forward single #
face $-1 $134 $135 $70 $-1 $136 forward single #
face $-1 $137 $138 $71 $-1 $139 forward single #
face $-1 $140 $141 $72 $-1 $142 reversed single #
face $-1 $143 $144 $73 $-1 $145 forward single #
face $-1 $146 $147 $74 $-1 $148 forward single #
face $-1 $149 $150 $75 $-1 $151 forward single #
face $-1 $152 $153 $57 $-1 $154 reversed single #
loop $-1 $-1 $155 $76 #
plane-surface $-1 0 0 15.950612690400796 0 0 1 1 0 0 forward_v I I I I #
face $-1 $156 $157 $58 $-1 $158 reversed single #
loop $-1 $-1 $159 $77 #
plane-surface $-1 0 -33.622631895524705 0 0 1 0 0 0 1 forward_v I I I I #
face $-1 $160 $161 $59 $-1 $162 reversed single #
loop $-1 $-1 $163 $78 #
plane-surface $-1 -37.749029120258598 18.785889622256239 0 0 1 0 0 0 1 forward_v I I I I #
face $-1 $164 $165 $60 $-1 $166 reversed single #
loop $-1 $-1 $167 $79 #
plane-surface $-1 47.835147548230239 -6.397390943330068 161.55974731074858 0 -1 0 -0.68199836817093118 0 -0.7313536940579346 forward_v I I I I #
face $-1 $168 $169 $61 $-1 $170 forward single #
loop $-1 $171 $172 $80 #
cone-surface $-1 50.365487117501722 -12.395505128983508 13.377072830935301 -0.68199836817093118 0 -0.7313536940579346 0.3656768470289673 0 -0.34099918408546559 1 I I 0 1 0.5 forward I I I I #
face $-1 $173 $174 $62 $-1 $175 forward single #
loop $-1 $176 $177 $81 #
cone-surface $-1 50.365487117501722 -10.146212309363467 13.377072830935301 -0.68199836817093118 0 -0.7313536940579346 0.3656768470289673 0 -0.34099918408546559 1 I I 0 1 0.5 forward I I I I #
face $-1 $178 $179 $63 $-1 $180 forward single #
loop $-1 $181 $182 $82 #
cone-surface $-1 50.365487117501722 -7.8969194897434249 13.377072830935301 -0.68199836817093118 0 -0.7313536940579346 0.3656768470289673 0 -0.34099918408546559 1 I I 0 1 0.5 forward I I I I #
face $-1 $183 $184 $64 $-1 $185 reversed single #
loop $-1 $-1 $186 $83 #
plane-surface $-1 47.835147548230239 9.9430707054964866 161.55974731074858 0 -1 0 -0.68199836817093118 0 -0.7313536940579346 forward_v I I I I #
face $-1 $187 $188 $65 $-1 $189 forward single #
loop $-1 $190 $191 $84 #
cone-surface $-1 50.365487117501722 3.9449565198430463 13.377072830935301 -0.68199836817093118 0 -0.7313536940579346 0.3656768470289673 0 -0.34099918408546559 1 I I 0 1 0.5 forward I I I I #
face $-1 $192 $193 $66 $-1 $194 forward single #
loop $-1 $195 $196 $85 #
cone-surface $-1 50.365487117501722 6.1942493394630844 13.377072830935301 -0.68199836817093118 0 -0.7313536940579346 0.3656768470289673 0 -0.34099918408546559 1 I I 0 1 0.5 forward I I I I #
face $-1 $197 $198 $67 $-1 $199 forward single #
loop $-1 $200 $201 $86 #
cone-surface $-1 50.365487117501722 8.4435421590831297 13.377072830935301 -0.68199836817093118 0 -0.7313536940579346 0.3656768470289673 0 -0.34099918408546559 1 I I 0 1 0.5 forward I I I I #
face $-1 $202 $203 $68 $-1 $204 reversed single #
loop $-1 $-1 $205 $87 #
plane-surface $-1 -125.46706882648414 -13.895033675396872 89.166807943781635 0 1 0 -0.68199836817093118 0 0.7313536940579346 forward_v I I I I #
face $-1 $206 $207 $69 $-1 $208 forward single #
loop $-1 $209 $210 $88 #
cone-surface $-1 -50.365487117501722 -12.395505128983508 13.377072830935294 0.68199836817093118 0 -0.7313536940579346 0.3656768470289673 0 0.34099918408546559 1 I I 0 1 0.5 forward I I I I #
face $-1 $211 $212 $70 $-1 $213 forward single #
loop $-1 $214 $215 $89 #
cone-surface $-1 -50.365487117501722 -10.146212309363467 13.377072830935294 0.68199836817093118 0 -0.7313536940579346 0.3656768470289673 0 0.34099918408546559 1 I I 0 1 0.5 forward I I I I #
face $-1 $216 $217 $71 $-1 $218 forward single #
loop $-1 $219 $220 $90 #
cone-surface $-1 -50.365487117501722 -7.8969194897434249 13.377072830935294 0.68199836817093118 0 -0.7313536940579346 0.3656768470289673 0 0.34099918408546559 1 I I 0 1 0.5 forward I I I I #
face $-1 $221 $222 $72 $-1 $223 reversed single #
loop $-1 $-1 $224 $91 #
plane-surface $-1 -125.46706882648414 2.4454279734296822 89.166807943781635 0 1 0 -0.68199836817093118 0 0.7313536940579346 forward_v I I I I #
face $-1 $225 $226 $73 $-1 $227 forward single #
loop $-1 $228 $229 $92 #
cone-surface $-1 -50.365487117501722 3.9449565198430463 13.377072830935294 0.68199836817093118 0 -0.7313536940579346 0.3656768470289673 0 0.34099918408546559 1 I I 0 1 0.5 forward I I I I #
face $-1 $230 $231 $74 $-1 $232 forward single #
loop $-1 $233 $234 $93 #
cone-surface $-1 -50.365487117501722 6.1942493394630844 13.377072830935294 0.68199836817093118 0 -0.7313536940579346 0.3656768470289673 0 0.34099918408546559 1 I I 0 1 0.5 forward I I I I #
face $-1 $235 $236 $75 $-1 $237 forward single #
loop $-1 $238 $239 $94 #
cone-surface $-1 -50.365487117501722 8.4435421590831297 13.377072830935294 0.68199836817093118 0 -0.7313536940579346 0.3656768470289673 0 0.34099918408546559 1 I I 0 1 0.5 forward I I I I #
face $-1 $240 $241 $57 $-1 $242 reversed single #
loop $-1 $-1 $243 $95 #
plane-surface $-1 0 0 -15.950612690400796 0 0 1 1 0 0 forward_v I I I I #
coedge $-1 $244 $245 $246 $247 forward $96 $-1 #
face $-1 $248 $249 $58 $-1 $250 forward single #
loop $-1 $-1 $251 $98 #
plane-surface $-1 -53.074129459517195 0 0 1 0 0 0 0 -1 forward_v I I I I #
coedge $-1 $252 $253 $254 $255 forward $99 $-1 #
face $-1 $256 $257 $59 $-1 $258 reversed single #
loop $-1 $-1 $259 $101 #
plane-surface $-1 -41.008519080085705 26.20426075889047 0 1 0 0 0 0 -1 forward_v I I I I #
coedge $-1 $260 $261 $262 $263 forward $102 $-1 #
face $-1 $264 $265 $60 $-1 $266 reversed single #
loop $-1 $-1 $267 $104 #
plane-surface $-1 -24.557791818736703 -10.14621230936347 83.927826032494679 0.68199836817093118 0 0.7313536940579346 0.7313536940579346 0 -0.68199836817093118 forward_v I I I I #
coedge $-1 $268 $269 $270 $271 reversed $105 $-1 #
face $-1 $-1 $272 $61 $-1 $273 forward single #
loop $-1 $274 $275 $107 #
cone-surface $-1 49.853988341373523 -12.395505128983508 12.82855756039185 -0.68199836817093118 0 -0.7313536940579346 0.18283842351448365 0 -0.17049959204273279 1 I I -0.70710678118654746 0.70710678118654746 0.25 forward I I I I #
loop $-1 $-1 $276 $80 #
coedge $-1 $172 $172 $277 $278 reversed $108 $-1 #
face $-1 $-1 $279 $62 $-1 $280 forward single #
loop $-1 $281 $282 $110 #
cone-surface $-1 49.853988341373523 -10.146212309363467 12.82855756039185 -0.68199836817093118 0 -0.7313536940579346 0.18283842351448365 0 -0.17049959204273279 1 I I -0.70710678118654746 0.70710678118654746 0.25 forward I I I I #
loop $-1 $-1 $283 $81 #
coedge $-1 $177 $177 $284 $285 reversed $111 $-1 #
face $-1 $-1 $286 $63 $-1 $287 forward single #
loop $-1 $288 $289 $113 #
cone-surface $-1 49.853988341373523 -7.8969194897434249 12.82855756039185 -0.68199836817093118 0 -0.7313536940579346 0.18283842351448365 0 -0.17049959204273279 1 I I -0.70710678118654746 0.70710678118654746 0.25 forward I I I I #
loop $-1 $-1 $290 $82 #
coedge $-1 $182 $182 $291 $292 reversed $114 $-1 #
face $-1 $293 $294 $64 $-1 $295 reversed single #
loop $-1 $-1 $296 $116 #
plane-surface $-1 -24.557791818736703 6.1942493394630844 83.927826032494679 0.68199836817093118 0 0.7313536940579346 0.7313536940579346 0 -0.68199836817093118 forward_v I I I I #
coedge $-1 $297 $298 $299 $300 reversed $117 $-1 #
face $-1 $-1 $301 $65 $-1 $302 forward single #
loop $-1 $303 $304 $119 #
cone-surface $-1 49.853988341373523 3.9449565198430463 12.82855756039185 -0.68199836817093118 0 -0.7313536940579346 0.18283842351448365 0 -0.17049959204273279 1 I I -0.70710678118654746 0.70710678118654746 0.25 forward I I I I #
loop $-1 $-1 $305 $84 #
coedge $-1 $191 $191 $306 $307 reversed $120 $-1 #
face $-1 $-1 $308 $66 $-1 $309 forward single #
loop $-1 $310 $311 $122 #
cone-surface $-1 49.853988341373523 6.1942493394630844 12.82855756039185 -0.68199836817093118 0 -0.7313536940579346 0.18283842351448365 0 -0.17049959204273279 1 I I -0.70710678118654746 0.70710678118654746 0.25 forward I I I I #
loop $-1 $-1 $312 $85 #
coedge $-1 $196 $196 $313 $314 reversed $123 $-1 #
face $-1 $-1 $315 $67 $-1 $316 forward single #
loop $-1 $317 $318 $125 #
cone-surface $-1 49.853988341373523 8.4435421590831297 12.82855756039185 -0.68199836817093118 0 -0.7313536940579346 0.18283842351448365 0 -0.17049959204273279 1 I I -0.70710678118654746 0.70710678118654746 0.25 forward I I I I #
loop $-1 $-1 $319 $86 #
coedge $-1 $201 $201 $320 $321 reversed $126 $-1 #
face $-1 $322 $323 $68 $-1 $324 reversed single #
loop $-1 $-1 $325 $128 #
plane-surface $-1 -53.074129459517195 -10.14621230936347 11.534886665527736 -0.68199836817093118 0 0.7313536940579346 0.7313536940579346 0 0.68199836817093118 forward_v I I I I #
coedge $-1 $326 $327 $328 $329 reversed $129 $-1 #
face $-1 $-1 $330 $69 $-1 $331 forward single #
loop $-1 $332 $333 $131 #
cone-surface $-1 -49.853988341373523 -12.395505128983508 12.828557560391843 0.68199836817093118 0 -0.7313536940579346 0.18283842351448365 0 0.17049959204273279 1 I I -0.70710678118654746 0.70710678118654746 0.25 forward I I I I #
loop $-1 $-1 $334 $88 #
coedge $-1 $210 $210 $335 $336 reversed $132 $-1 #
face $-1 $-1 $337 $70 $-1 $338 forward single #
loop $-1 $339 $340 $134 #
cone-surface $-1 -49.853988341373523 -10.146212309363467 12.828557560391843 0.68199836817093118 0 -0.7313536940579346 0.18283842351448365 0 0.17049959204273279 1 I I -0.70710678118654746 0.70710678118654746 0.25 forward I I I I #
loop $-1 $-1 $341 $89 #
coedge $-1 $215 $215 $342 $343 reversed $135 $-1 #
face $-1 $-1 $344 $71 $-1 $345 forward single #
loop $-1 $346 $347 $137 #
cone-surface $-1 -49.853988341373523 -7.8969194897434249 12.828557560391843 0.68199836817093118 0 -0.7313536940579346 0.18283842351448365 0 0.17049959204273279 1 I I -0.70710678118654746 0.70710678118654746 0.25 forward I I I I #
loop $-1 $-1 $348 $90 #
coedge $-1 $220 $220 $349 $350 reversed $138 $-1 #
face $-1 $351 $352 $72 $-1 $353 reversed single #
loop $-1 $-1 $354 $140 #
plane-surface $-1 -53.074129459517195 6.1942493394630844 11.534886665527736 -0.68199836817093118 0 0.7313536940579346 0.7313536940579346 0 0.68199836817093118 forward_v I I I I #
coedge $-1 $355 $356 $357 $358 reversed $141 $-1 #
face $-1 $-1 $359 $73 $-1 $360 forward single #
loop $-1 $361 $362 $143 #
cone-surface $-1 -49.853988341373523 3.9449565198430463 12.828557560391843 0.68199836817093118 0 -0.7313536940579346 0.18283842351448365 0 0.17049959204273279 1 I I -0.70710678118654746 0.70710678118654746 0.25 forward I I I I #
loop $-1 $-1 $363 $92 #
coedge $-1 $229 $229 $364 $365 reversed $144 $-1 #
face $-1 $-1 $366 $74 $-1 $367 forward single #
loop $-1 $368 $369 $146 #
cone-surface $-1 -49.853988341373523 6.1942493394630844 12.828557560391843 0.68199836817093118 0 -0.7313536940579346 0.18283842351448365 0 0.17049959204273279 1 I I -0.70710678118654746 0.70710678118654746 0.25 forward I I I I #
loop $-1 $-1 $370 $93 #
coedge $-1 $234 $234 $371 $372 reversed $147 $-1 #
face $-1 $-1 $373 $75 $-1 $374 forward single #
loop $-1 $375 $376 $149 #
cone-surface $-1 -49.853988341373523 8.4435421590831297 12.828557560391843 0.68199836817093118 0 -0.7313536940579346 0.18283842351448365 0 0.17049959204273279 1 I I -0.70710678118654746 0.70710678118654746 0.25 forward I I I I #
loop $-1 $-1 $377 $94 #
coedge $-1 $239 $239 $378 $379 reversed $150 $-1 #
face $-1 $380 $381 $57 $-1 $382 reversed single #
loop $-1 $-1 $383 $152 #
plane-surface $-1 0 -33.622631895524705 0 0 1 0 0 0 1 forward_v I I I I #
coedge $-1 $384 $385 $386 $387 forward $153 $-1 #
coedge $-1 $388 $155 $389 $390 forward $96 $-1 #
coedge $-1 $155 $388 $391 $392 forward $96 $-1 #
coedge $-1 $393 $394 $155 $247 reversed $395 $-1 #
edge $-1 $396 -33.622631895524705 $397 33.622631895524705 $246 $398 forward 7 unknown #
face $-1 $399 $400 $58 $-1 $401 reversed single #
loop $-1 $-1 $402 $156 #
plane-surface $-1 0 -43.486431005588621 3.8513126369850283 0 0 1 1 0 0 forward_v I I I I #
coedge $-1 $403 $404 $253 $405 forward $157 $-1 #
coedge $-1 $406 $159 $407 $408 reversed $99 $-1 #
coedge $-1 $159 $406 $251 $405 reversed $99 $-1 #
coedge $-1 $409 $402 $159 $255 reversed $249 $-1 #
edge $-1 $410 -53.074129459517195 $411 53.074129459517195 $254 $412 forward 7 unknown #
face $-1 $413 $414 $59 $-1 $415 forward single #
loop $-1 $-1 $416 $160 #
plane-surface $-1 -34.489539160431491 26.20426075889047 0 -1 0 0 0 0 1 forward_v I I I I #
coedge $-1 $417 $418 $419 $420 reversed $161 $-1 #
coedge $-1 $421 $163 $422 $423 reversed $102 $-1 #
coedge $-1 $163 $421 $424 $425 reversed $102 $-1 #
coedge $-1 $418 $417 $163 $263 reversed $161 $-1 #
edge $-1 $426 -15.950612690400796 $427 15.950612690400796 $262 $428 forward 7 unknown #
face $-1 $429 $430 $60 $-1 $431 reversed single #
loop $-1 $-1 $432 $164 #
plane-surface $-1 47.835147548230239 -13.895033675396872 161.55974731074858 0 1 0 0.68199836817093118 0 0.7313536940579346 forward_v I I I I #
coedge $-1 $433 $434 $435 $436 reversed $165 $-1 #
coedge $-1 $269 $167 $437 $438 reversed $105 $-1 #
coedge $-1 $167 $268 $433 $439 reversed $105 $-1 #
coedge $-1 $435 $440 $167 $271 forward $441 $-1 #
edge $-1 $442 -29.156555685402076 $443 -24.421269369542053 $270 $444 forward 7 unknown #
loop $-1 $-1 $277 $168 #
plane-surface $-1 -24.557791818736703 -10.14621230936347 83.927826032494679 0.68199836817093118 0 0.7313536940579346 0.7313536940579346 0 -0.68199836817093118 forward_v I I I I #
loop $-1 $-1 $445 $107 #
coedge $-1 $275 $275 $276 $446 reversed $169 $-1 #
coedge $-1 $276 $276 $275 $446 forward $171 $-1 #
coedge $-1 $277 $277 $172 $278 forward $272 $-1 #
edge $-1 $447 0 $447 6.2831853071796004 $277 $448 forward 7 unknown #
loop $-1 $-1 $284 $173 #
plane-surface $-1 -24.557791818736703 -10.14621230936347 83.927826032494679 0.68199836817093118 0 0.7313536940579346 0.7313536940579346 0 -0.68199836817093118 forward_v I I I I #
loop $-1 $-1 $449 $110 #
coedge $-1 $282 $282 $283 $450 reversed $174 $-1 #
coedge $-1 $283 $283 $282 $450 forward $176 $-1 #
coedge $-1 $284 $284 $177 $285 forward $279 $-1 #
edge $-1 $451 0 $451 6.2831853071796004 $284 $452 forward 7 unknown #
loop $-1 $-1 $291 $178 #
plane-surface $-1 -24.557791818736703 -10.14621230936347 83.927826032494679 0.68199836817093118 0 0.7313536940579346 0.7313536940579346 0 -0.68199836817093118 forward_v I I I I #
loop $-1 $-1 $453 $113 #
coedge $-1 $289 $289 $290 $454 reversed $179 $-1 #
coedge $-1 $290 $290 $289 $454 forward $181 $-1 #
coedge $-1 $291 $291 $182 $292 forward $286 $-1 #
edge $-1 $455 0 $455 6.2831853071796004 $291 $456 forward 7 unknown #
face $-1 $457 $458 $64 $-1 $459 reversed single #
loop $-1 $-1 $460 $183 #
plane-surface $-1 47.835147548230239 2.4454279734296822 161.55974731074858 0 1 0 0.68199836817093118 0 0.7313536940579346 forward_v I I I I #
coedge $-1 $461 $462 $463 $464 reversed $184 $-1 #
coedge $-1 $298 $186 $465 $466 reversed $117 $-1 #
coedge $-1 $186 $297 $461 $467 reversed $117 $-1 #
coedge $-1 $463 $468 $186 $300 forward $469 $-1 #
edge $-1 $470 -29.156555685402076 $471 -24.421269369542053 $299 $472 forward 7 unknown #
loop $-1 $-1 $306 $187 #
plane-surface $-1 -24.557791818736703 6.1942493394630844 83.927826032494679 0.68199836817093118 0 0.7313536940579346 0.7313536940579346 0 -0.68199836817093118 forward_v I I I I #
loop $-1 $-1 $473 $119 #
coedge $-1 $304 $304 $305 $474 reversed $188 $-1 #
coedge $-1 $305 $305 $304 $474 forward $190 $-1 #
coedge $-1 $306 $306 $191 $307 forward $301 $-1 #
edge $-1 $475 0 $475 6.2831853071796004 $306 $476 forward 7 unknown #
loop $-1 $-1 $313 $192 #
plane-surface $-1 -24.557791818736703 6.1942493394630844 83.927826032494679 0.68199836817093118 0 0.7313536940579346 0.7313536940579346 0 -0.68199836817093118 forward_v I I I I #
loop $-1 $-1 $477 $122 #
coedge $-1 $311 $311 $312 $478 reversed $193 $-1 #
coedge $-1 $312 $312 $311 $478 forward $195 $-1 #
coedge $-1 $313 $313 $196 $314 forward $308 $-1 #
edge $-1 $479 0 $479 6.2831853071796004 $313 $480 forward 7 unknown #
loop $-1 $-1 $320 $197 #
plane-surface $-1 -24.557791818736703 6.1942493394630844 83.927826032494679 0.68199836817093118 0 0.7313536940579346 0.7313536940579346 0 -0.68199836817093118 forward_v I I I I #
loop $-1 $-1 $481 $125 #
coedge $-1 $318 $318 $319 $482 reversed $198 $-1 #
coedge $-1 $319 $319 $318 $482 forward $200 $-1 #
coedge $-1 $320 $320 $201 $321 forward $315 $-1 #
edge $-1 $483 0 $483 6.2831853071796004 $320 $484 forward 7 unknown #
face $-1 $485 $486 $68 $-1 $487 forward single #
loop $-1 $-1 $488 $202 #
plane-surface $-1 -125.46706882648414 -6.397390943330068 89.166807943781635 0 -1 0 0.68199836817093118 0 -0.7313536940579346 forward_v I I I I #
coedge $-1 $489 $490 $491 $492 reversed $203 $-1 #
coedge $-1 $327 $205 $493 $494 reversed $129 $-1 #
coedge $-1 $205 $326 $489 $495 reversed $129 $-1 #
coedge $-1 $491 $496 $205 $329 forward $486 $-1 #
edge $-1 $497 9.6594049537248736 $498 14.394691269584889 $328 $499 forward 7 unknown #
loop $-1 $-1 $335 $206 #
plane-surface $-1 -53.074129459517195 -10.14621230936347 11.534886665527736 -0.68199836817093118 0 0.7313536940579346 0.7313536940579346 0 0.68199836817093118 forward_v I I I I #
loop $-1 $-1 $500 $131 #
coedge $-1 $333 $333 $334 $501 reversed $207 $-1 #
coedge $-1 $334 $334 $333 $501 forward $209 $-1 #
coedge $-1 $335 $335 $210 $336 forward $330 $-1 #
edge $-1 $502 0 $502 6.2831853071796004 $335 $503 forward 7 unknown #
loop $-1 $-1 $342 $211 #
plane-surface $-1 -53.074129459517195 -10.14621230936347 11.534886665527736 -0.68199836817093118 0 0.7313536940579346 0.7313536940579346 0 0.68199836817093118 forward_v I I I I #
loop $-1 $-1 $504 $134 #
coedge $-1 $340 $340 $341 $505 reversed $212 $-1 #
coedge $-1 $341 $341 $340 $505 forward $214 $-1 #
coedge $-1 $342 $342 $215 $343 forward $337 $-1 #
edge $-1 $506 0 $506 6.2831853071796004 $342 $507 forward 7 unknown #
loop $-1 $-1 $349 $216 #
plane-surface $-1 -53.074129459517195 -10.14621230936347 11.534886665527736 -0.68199836817093118 0 0.7313536940579346 0.7313536940579346 0 0.68199836817093118 forward_v I I I I #
loop $-1 $-1 $508 $137 #
coedge $-1 $347 $347 $348 $509 reversed $217 $-1 #
coedge $-1 $348 $348 $347 $509 forward $219 $-1 #
coedge $-1 $349 $349 $220 $350 forward $344 $-1 #
edge $-1 $510 0 $510 6.2831853071796004 $349 $511 forward 7 unknown #
face $-1 $512 $513 $72 $-1 $514 forward single #
loop $-1 $-1 $515 $221 #
plane-surface $-1 -125.46706882648414 9.9430707054964866 89.166807943781635 0 -1 0 0.68199836817093118 0 -0.7313536940579346 forward_v I I I I #
coedge $-1 $516 $517 $518 $519 reversed $222 $-1 #
coedge $-1 $356 $224 $520 $521 reversed $141 $-1 #
coedge $-1 $224 $355 $516 $522 reversed $141 $-1 #
coedge $-1 $518 $523 $224 $358 forward $513 $-1 #
edge $-1 $524 9.6594049537248736 $525 14.394691269584889 $357 $526 forward 7 unknown #
loop $-1 $-1 $364 $225 #
plane-surface $-1 -53.074129459517195 6.1942493394630844 11.534886665527736 -0.68199836817093118 0 0.7313536940579346 0.7313536940579346 0 0.68199836817093118 forward_v I I I I #
loop $-1 $-1 $527 $143 #
coedge $-1 $362 $362 $363 $528 reversed $226 $-1 #
coedge $-1 $363 $363 $362 $528 forward $228 $-1 #
coedge $-1 $364 $364 $229 $365 forward $359 $-1 #
edge $-1 $529 0 $529 6.2831853071796004 $364 $530 forward 7 unknown #
loop $-1 $-1 $371 $230 #
plane-surface $-1 -53.074129459517195 6.1942493394630844 11.534886665527736 -0.68199836817093118 0 0.7313536940579346 0.7313536940579346 0 0.68199836817093118 forward_v I I I I #
loop $-1 $-1 $531 $146 #
coedge $-1 $369 $369 $370 $532 reversed $231 $-1 #
coedge $-1 $370 $370 $369 $532 forward $233 $-1 #
coedge $-1 $371 $371 $234 $372 forward $366 $-1 #
edge $-1 $533 0 $533 6.2831853071796004 $371 $534 forward 7 unknown #
loop $-1 $-1 $378 $235 #
plane-surface $-1 -53.074129459517195 6.1942493394630844 11.534886665527736 -0.68199836817093118 0 0.7313536940579346 0.7313536940579346 0 0.68199836817093118 forward_v I I I I #
loop $-1 $-1 $535 $149 #
coedge $-1 $376 $376 $377 $536 reversed $236 $-1 #
coedge $-1 $377 $377 $376 $536 forward $238 $-1 #
coedge $-1 $378 $378 $239 $379 forward $373 $-1 #
edge $-1 $537 0 $537 6.2831853071796004 $378 $538 forward 7 unknown #
face $-1 $539 $540 $57 $-1 $541 reversed single #
loop $-1 $-1 $542 $240 #
plane-surface $-1 -53.074129459517195 0 0 1 0 0 0 0 -1 forward_v I I I I #
coedge $-1 $543 $391 $544 $545 forward $241 $-1 #
coedge $-1 $546 $243 $543 $547 forward $153 $-1 #
coedge $-1 $243 $546 $548 $549 forward $153 $-1 #
coedge $-1 $394 $393 $243 $387 reversed $395 $-1 #
edge $-1 $550 -33.622631895524705 $551 33.622631895524705 $386 $552 forward 7 unknown #
coedge $-1 $245 $244 $553 $554 forward $96 $-1 #
coedge $-1 $555 $556 $244 $390 reversed $540 $-1 #
edge $-1 $397 -53.074129459517195 $557 53.074129459517195 $389 $558 forward 7 unknown #
coedge $-1 $383 $559 $245 $392 reversed $241 $-1 #
edge $-1 $560 -53.074129459517195 $396 53.074129459517195 $391 $561 forward 7 unknown #
coedge $-1 $386 $246 $559 $562 forward $395 $-1 #
coedge $-1 $246 $386 $555 $563 reversed $395 $-1 #
loop $-1 $-1 $393 $539 #
vertex $-1 $247 $564 #
vertex $-1 $247 $565 #
straight-curve $-1 53.074129459517195 0 15.950612690400796 0 1 0 I I #
face $-1 $566 $567 $58 $-1 $568 reversed single #
loop $-1 $-1 $569 $248 #
plane-surface $-1 0 -43.486431005588621 -0.5028195774550781 0 0 1 1 0 0 forward_v I I I I #
coedge $-1 $254 $570 $571 $572 forward $249 $-1 #
coedge $-1 $573 $251 $574 $575 reversed $157 $-1 #
coedge $-1 $251 $573 $409 $576 reversed $157 $-1 #
edge $-1 $410 -3.8513126369850283 $577 0.5028195774550781 $251 $578 forward 7 unknown #
coedge $-1 $253 $252 $579 $580 forward $99 $-1 #
coedge $-1 $571 $581 $252 $408 forward $582 $-1 #
edge $-1 $583 -0.5028195774550781 $411 3.8513126369850283 $407 $584 forward 7 unknown #
coedge $-1 $570 $254 $404 $576 forward $249 $-1 #
vertex $-1 $405 $585 #
vertex $-1 $572 $586 #
straight-curve $-1 0 -33.622631895524705 3.8513126369850283 1 0 0 I I #
face $-1 $587 $588 $59 $-1 $589 reversed single #
loop $-1 $-1 $590 $256 #
plane-surface $-1 0 0 15.950612690400796 0 0 1 1 0 0 forward_v I I I I #
coedge $-1 $591 $592 $421 $593 forward $257 $-1 #
coedge $-1 $262 $259 $594 $595 reversed $161 $-1 #
coedge $-1 $259 $262 $590 $596 reversed $161 $-1 #
coedge $-1 $597 $598 $259 $420 forward $599 $-1 #
edge $-1 $600 -15.950612690400796 $601 15.950612690400796 $419 $602 forward 7 unknown #
coedge $-1 $261 $260 $416 $593 reversed $102 $-1 #
coedge $-1 $594 $603 $260 $423 forward $588 $-1 #
edge $-1 $604 15.615024600302192 $427 22.134004519956406 $422 $605 forward 7 unknown #
coedge $-1 $606 $590 $261 $425 forward $414 $-1 #
edge $-1 $426 -22.134004519956406 $607 -15.615024600302192 $424 $608 forward 7 unknown #
vertex $-1 $425 $609 #
vertex $-1 $423 $610 #
straight-curve $-1 -41.008519080085705 18.785889622256239 0 0 0 -1 I I #
face $-1 $-1 $441 $60 $-1 $611 forward single #
loop $-1 $-1 $612 $264 #
plane-surface $-1 53.074129459517195 0 0 -1 0 0 0 0 1 forward_v I I I I #
coedge $-1 $613 $614 $615 $616 reversed $265 $-1 #
coedge $-1 $617 $267 $269 $439 forward $165 $-1 #
coedge $-1 $267 $617 $613 $618 forward $165 $-1 #
coedge $-1 $615 $270 $267 $436 forward $441 $-1 #
edge $-1 $443 1.3242847886483329 $619 8.8219275207151373 $435 $620 forward 7 unknown #
coedge $-1 $621 $622 $268 $438 forward $430 $-1 #
edge $-1 $623 -69.244986989846552 $442 -64.829260964973486 $437 $624 forward 7 unknown #
edge $-1 $443 99.673571836254823 $623 106.14825891903439 $269 $625 forward 7 unknown #
coedge $-1 $270 $615 $621 $626 forward $441 $-1 #
loop $-1 $-1 $615 $429 #
vertex $-1 $438 $627 #
vertex $-1 $271 $628 #
straight-curve $-1 23.91757377411512 -6.397390943330068 15.950612690400789 -1 0 0 I I #
coedge $-1 $445 $445 $-1 $629 reversed $274 $-1 #
edge $-1 $630 0 $630 6.2831853071796004 $275 $631 forward 7 unknown #
vertex $-1 $278 $632 #
ellipse-curve $-1 50.706486301587184 -12.395505128983508 13.742749677964262 0.68199836817093118 0 0.7313536940579346 0.3656768470289673 0 -0.34099918408546559 1 I I #
coedge $-1 $449 $449 $-1 $633 reversed $281 $-1 #
edge $-1 $634 0 $634 6.2831853071796004 $282 $635 forward 7 unknown #
vertex $-1 $285 $636 #
ellipse-curve $-1 50.706486301587184 -10.146212309363467 13.742749677964262 0.68199836817093118 0 0.7313536940579346 0.3656768470289673 0 -0.34099918408546559 1 I I #
coedge $-1 $453 $453 $-1 $637 reversed $288 $-1 #
edge $-1 $638 0 $638 6.2831853071796004 $289 $639 forward 7 unknown #
vertex $-1 $292 $640 #
ellipse-curve $-1 50.706486301587184 -7.8969194897434249 13.742749677964262 0.68199836817093118 0 0.7313536940579346 0.3656768470289673 0 -0.34099918408546559 1 I I #
face $-1 $-1 $469 $64 $-1 $641 forward single #
loop $-1 $-1 $642 $293 #
plane-surface $-1 53.074129459517195 0 0 -1 0 0 0 0 1 forward_v I I I I #
coedge $-1 $643 $644 $645 $646 reversed $294 $-1 #
coedge $-1 $647 $296 $298 $467 forward $184 $-1 #
coedge $-1 $296 $647 $643 $648 forward $184 $-1 #
coedge $-1 $645 $299 $296 $464 forward $469 $-1 #
edge $-1 $471 -6.8459460357649444 $649 0.65169669630186 $463 $650 forward 7 unknown #
coedge $-1 $651 $652 $297 $466 forward $458 $-1 #
edge $-1 $653 -69.244986989846552 $470 -64.829260964973486 $465 $654 forward 7 unknown #
edge $-1 $471 99.673571836254823 $653 106.14825891903439 $298 $655 forward 7 unknown #
coedge $-1 $299 $645 $651 $656 forward $469 $-1 #
loop $-1 $-1 $645 $457 #
vertex $-1 $466 $657 #
vertex $-1 $300 $658 #
straight-curve $-1 23.91757377411512 9.9430707054964866 15.950612690400789 -1 0 0 I I #
coedge $-1 $473 $473 $-1 $659 reversed $303 $-1 #
edge $-1 $660 0 $660 6.2831853071796004 $304 $661 forward 7 unknown #
vertex $-1 $307 $662 #
ellipse-curve $-1 50.706486301587184 3.9449565198430463 13.742749677964262 0.68199836817093118 0 0.7313536940579346 0.3656768470289673 0 -0.34099918408546559 1 I I #
coedge $-1 $477 $477 $-1 $663 reversed $310 $-1 #
edge $-1 $664 0 $664 6.2831853071796004 $311 $665 forward 7 unknown #
vertex $-1 $314 $666 #
ellipse-curve $-1 50.706486301587184 6.1942493394630844 13.742749677964262 0.68199836817093118 0 0.7313536940579346 0.3656768470289673 0 -0.34099918408546559 1 I I #
coedge $-1 $481 $481 $-1 $667 reversed $317 $-1 #
edge $-1 $668 0 $668 6.2831853071796004 $318 $669 forward 7 unknown #
vertex $-1 $321 $670 #
ellipse-curve $-1 50.706486301587184 8.4435421590831297 13.742749677964262 0.68199836817093118 0 0.7313536940579346 0.3656768470289673 0 -0.34099918408546559 1 I I #
face $-1 $-1 $671 $68 $-1 $672 reversed single #
loop $-1 $-1 $328 $322 #
plane-surface $-1 0 0 15.950612690400796 0 0 1 1 0 0 forward_v I I I I #
coedge $-1 $673 $674 $675 $676 reversed $323 $-1 #
coedge $-1 $677 $325 $327 $495 forward $203 $-1 #
coedge $-1 $325 $677 $673 $678 forward $203 $-1 #
coedge $-1 $675 $328 $325 $492 forward $486 $-1 #
edge $-1 $498 -8.8219275207151373 $679 -1.3242847886483329 $491 $680 forward 7 unknown #
coedge $-1 $681 $682 $326 $494 forward $671 $-1 #
edge $-1 $683 -33.048517306363081 $497 -28.632791281490022 $493 $684 forward 7 unknown #
edge $-1 $498 -6.4746870827795497 $683 0 $327 $685 forward 7 unknown #
coedge $-1 $328 $675 $681 $686 forward $486 $-1 #
vertex $-1 $329 $687 #
vertex $-1 $329 $688 #
straight-curve $-1 -62.733534413242069 -13.895033675396872 15.950612690400796 1 0 0 I I #
coedge $-1 $500 $500 $-1 $689 reversed $332 $-1 #
edge $-1 $690 0 $690 6.2831853071796004 $333 $691 forward 7 unknown #
vertex $-1 $336 $692 #
ellipse-curve $-1 -50.706486301587191 -12.395505128983508 13.742749677964264 -0.68199836817093118 0 0.7313536940579346 0.3656768470289673 0 0.34099918408546559 1 I I #
coedge $-1 $504 $504 $-1 $693 reversed $339 $-1 #
edge $-1 $694 0 $694 6.2831853071796004 $340 $695 forward 7 unknown #
vertex $-1 $343 $696 #
ellipse-curve $-1 -50.706486301587191 -10.146212309363467 13.742749677964264 -0.68199836817093118 0 0.7313536940579346 0.3656768470289673 0 0.34099918408546559 1 I I #
coedge $-1 $508 $508 $-1 $697 reversed $346 $-1 #
edge $-1 $698 0 $698 6.2831853071796004 $347 $699 forward 7 unknown #
vertex $-1 $350 $700 #
ellipse-curve $-1 -50.706486301587191 -7.8969194897434249 13.742749677964264 -0.68199836817093118 0 0.7313536940579346 0.3656768470289673 0 0.34099918408546559 1 I I #
face $-1 $-1 $701 $72 $-1 $702 reversed single #
loop $-1 $-1 $357 $351 #
plane-surface $-1 0 0 15.950612690400796 0 0 1 1 0 0 forward_v I I I I #
coedge $-1 $703 $704 $705 $706 reversed $352 $-1 #
coedge $-1 $707 $354 $356 $522 forward $222 $-1 #
coedge $-1 $354 $707 $703 $708 forward $222 $-1 #
coedge $-1 $705 $357 $354 $519 forward $513 $-1 #
edge $-1 $525 -0.65169669630186 $709 6.8459460357649444 $518 $710 forward 7 unknown #
coedge $-1 $711 $712 $355 $521 forward $701 $-1 #
edge $-1 $713 -33.048517306363081 $524 -28.632791281490022 $520 $714 forward 7 unknown #
edge $-1 $525 -6.4746870827795497 $713 0 $356 $715 forward 7 unknown #
coedge $-1 $357 $705 $711 $716 forward $513 $-1 #
vertex $-1 $358 $717 #
vertex $-1 $358 $718 #
straight-curve $-1 -62.733534413242069 2.4454279734296822 15.950612690400796 1 0 0 I I #
coedge $-1 $527 $527 $-1 $719 reversed $361 $-1 #
edge $-1 $720 0 $720 6.2831853071796004 $362 $721 forward 7 unknown #
vertex $-1 $365 $722 #
ellipse-curve $-1 -50.706486301587191 3.9449565198430463 13.742749677964264 -0.68199836817093118 0 0.7313536940579346 0.3656768470289673 0 0.34099918408546559 1 I I #
coedge $-1 $531 $531 $-1 $723 reversed $368 $-1 #
edge $-1 $724 0 $724 6.2831853071796004 $369 $725 forward 7 unknown #
vertex $-1 $372 $726 #
ellipse-curve $-1 -50.706486301587191 6.1942493394630844 13.742749677964264 -0.68199836817093118 0 0.7313536940579346 0.3656768470289673 0 0.34099918408546559 1 I I #
coedge $-1 $535 $535 $-1 $727 reversed $375 $-1 #
edge $-1 $728 0 $728 6.2831853071796004 $376 $729 forward 7 unknown #
vertex $-1 $379 $730 #
ellipse-curve $-1 -50.706486301587191 8.4435421590831297 13.742749677964264 -0.68199836817093118 0 0.7313536940579346 0.3656768470289673 0 0.34099918408546559 1 I I #
face $-1 $-1 $395 $57 $-1 $731 reversed single #
loop $-1 $-1 $555 $380 #
plane-surface $-1 0 33.622631895524705 0 0 -1 0 0 0 -1 forward_v I I I I #
coedge $-1 $732 $553 $556 $733 forward $381 $-1 #
coedge $-1 $559 $383 $384 $547 reversed $241 $-1 #
coedge $-1 $553 $732 $383 $545 reversed $381 $-1 #
edge $-1 $560 -15.950612690400796 $734 15.950612690400796 $544 $735 forward 7 unknown #
coedge $-1 $385 $384 $732 $736 forward $153 $-1 #
edge $-1 $551 -53.074129459517195 $734 53.074129459517195 $543 $737 forward 7 unknown #
coedge $-1 $556 $555 $385 $549 reversed $540 $-1 #
edge $-1 $738 -53.074129459517195 $550 53.074129459517195 $548 $739 forward 7 unknown #
vertex $-1 $387 $740 #
vertex $-1 $562 $741 #
straight-curve $-1 53.074129459517195 0 -15.950612690400796 0 -1 0 I I #
coedge $-1 $542 $544 $388 $554 reversed $381 $-1 #
edge $-1 $557 -33.622631895524705 $560 33.622631895524705 $553 $742 forward 7 unknown #
coedge $-1 $548 $389 $394 $563 forward $540 $-1 #
coedge $-1 $389 $548 $542 $733 reversed $540 $-1 #
vertex $-1 $390 $743 #
straight-curve $-1 0 33.622631895524705 15.950612690400796 -1 0 0 I I #
coedge $-1 $391 $543 $393 $562 reversed $241 $-1 #
vertex $-1 $554 $744 #
straight-curve $-1 0 -33.622631895524705 15.950612690400796 1 0 0 I I #
edge $-1 $396 -15.950612690400796 $551 15.950612690400796 $393 $745 forward 7 unknown #
edge $-1 $397 -15.950612690400796 $550 15.950612690400796 $394 $746 forward 7 unknown #
point $-1 53.074129459517195 -33.622631895524705 15.950612690400796 #
point $-1 53.074129459517195 33.622631895524705 15.950612690400796 #
face $-1 $-1 $582 $58 $-1 $747 reversed single #
loop $-1 $-1 $748 $399 #
plane-surface $-1 0 -53.350230115652536 1.6742465297649751 0 1 0 0 0 1 forward_v I I I I #
coedge $-1 $749 $579 $581 $750 forward $400 $-1 #
coedge $-1 $402 $409 $751 $752 forward $249 $-1 #
coedge $-1 $753 $407 $402 $572 reversed $582 $-1 #
edge $-1 $754 -9.8637991100639155 $411 9.8637991100639155 $571 $755 forward 7 unknown #
coedge $-1 $404 $403 $748 $756 reversed $157 $-1 #
coedge $-1 $579 $749 $403 $575 forward $400 $-1 #
edge $-1 $757 -9.8637991100639155 $577 9.8637991100639155 $403 $758 forward 7 unknown #
edge $-1 $410 -9.8637991100639155 $759 9.8637991100639155 $404 $760 forward 7 unknown #
vertex $-1 $405 $761 #
straight-curve $-1 -53.074129459517195 -33.622631895524705 0 0 0 -1 I I #
coedge $-1 $569 $574 $406 $580 reversed $400 $-1 #
edge $-1 $583 -53.074129459517195 $577 53.074129459517195 $579 $762 forward 7 unknown #
coedge $-1 $407 $753 $569 $750 reversed $582 $-1 #
loop $-1 $-1 $407 $566 #
vertex $-1 $408 $763 #
straight-curve $-1 53.074129459517195 -33.622631895524705 0 0 0 1 I I #
point $-1 -53.074129459517195 -33.622631895524705 3.8513126369850283 #
point $-1 53.074129459517195 -33.622631895524705 3.8513126369850283 #
face $-1 $-1 $599 $59 $-1 $764 reversed single #
loop $-1 $-1 $594 $413 #
plane-surface $-1 0 0 -15.950612690400796 0 0 1 1 0 0 forward_v I I I I #
coedge $-1 $424 $765 $418 $596 forward $414 $-1 #
coedge $-1 $766 $416 $603 $767 reversed $257 $-1 #
coedge $-1 $416 $766 $606 $768 reversed $257 $-1 #
edge $-1 $607 -15.950612690400796 $604 15.950612690400796 $416 $769 forward 7 unknown #
coedge $-1 $770 $422 $417 $595 forward $588 $-1 #
edge $-1 $427 5.6837592428110035 $600 20.52050151607947 $594 $771 forward 7 unknown #
edge $-1 $601 -20.52050151607947 $426 -5.6837592428110035 $590 $772 forward 7 unknown #
coedge $-1 $773 $419 $765 $774 reversed $599 $-1 #
coedge $-1 $419 $773 $770 $775 reversed $599 $-1 #
loop $-1 $-1 $419 $587 #
vertex $-1 $775 $776 #
vertex $-1 $420 $777 #
straight-curve $-1 -41.008519080085705 33.622631895524705 0 0 0 1 I I #
coedge $-1 $422 $770 $591 $767 forward $588 $-1 #
vertex $-1 $423 $778 #
straight-curve $-1 -18.874514560129299 18.785889622256239 -15.950612690400796 -1 0 0 I I #
coedge $-1 $765 $424 $592 $768 forward $414 $-1 #
vertex $-1 $425 $779 #
straight-curve $-1 -18.874514560129299 18.785889622256239 15.950612690400796 1 0 0 I I #
point $-1 -41.008519080085705 18.785889622256239 15.950612690400796 #
point $-1 -41.008519080085705 18.785889622256239 -15.950612690400796 #
plane-surface $-1 0 0 15.950612690400796 0 0 1 1 0 0 forward_v I I I I #
coedge $-1 $622 $621 $614 $780 forward $430 $-1 #
coedge $-1 $614 $432 $434 $618 reversed $265 $-1 #
coedge $-1 $432 $613 $612 $780 reversed $265 $-1 #
coedge $-1 $440 $435 $432 $616 forward $441 $-1 #
edge $-1 $619 24.421269369542053 $781 29.156555685402076 $615 $782 forward 7 unknown #
coedge $-1 $434 $433 $622 $783 reversed $165 $-1 #
edge $-1 $784 -106.14825891903439 $619 -99.673571836254823 $613 $785 forward 7 unknown #
vertex $-1 $436 $786 #
straight-curve $-1 48.338843143657193 -5.0731061546817351 15.950612690400796 0 -1 0 I I #
coedge $-1 $612 $437 $440 $626 reversed $430 $-1 #
coedge $-1 $437 $612 $617 $783 forward $430 $-1 #
vertex $-1 $438 $787 #
straight-curve $-1 53.074129459517195 -6.397390943330068 80.779873655374288 0 0 1 I I #
straight-curve $-1 -24.557791818736703 -6.397390943330068 83.927826032494679 0.7313536940579346 0 -0.68199836817093118 I I #
edge $-1 $781 -13.895033675396872 $442 -6.397390943330068 $621 $788 forward 7 unknown #
point $-1 53.074129459517195 -6.397390943330068 15.950612690400796 #
point $-1 48.338843143657172 -6.397390943330068 15.950612690400803 #
edge $-1 $789 1 $789 0 $445 $-1 forward 7 unknown #
vertex $-1 $446 $790 #
ellipse-curve $-1 50.024487933416253 -12.395505128983508 13.011395983906334 0.68199836817093118 0 0.7313536940579346 0.3656768470289673 0 -0.34099918408546559 1 I I #
point $-1 51.072163148616156 -12.395505128983508 13.401750493878803 #
edge $-1 $791 1 $791 0 $449 $-1 forward 7 unknown #
vertex $-1 $450 $792 #
ellipse-curve $-1 50.024487933416253 -10.146212309363467 13.011395983906334 0.68199836817093118 0 0.7313536940579346 0.3656768470289673 0 -0.34099918408546559 1 I I #
point $-1 51.072163148616156 -10.146212309363467 13.401750493878803 #
edge $-1 $793 1 $793 0 $453 $-1 forward 7 unknown #
vertex $-1 $454 $794 #
ellipse-curve $-1 50.024487933416253 -7.8969194897434249 13.011395983906334 0.68199836817093118 0 0.7313536940579346 0.3656768470289673 0 -0.34099918408546559 1 I I #
point $-1 51.072163148616156 -7.8969194897434249 13.401750493878803 #
plane-surface $-1 0 0 15.950612690400796 0 0 1 1 0 0 forward_v I I I I #
coedge $-1 $652 $651 $644 $795 forward $458 $-1 #
coedge $-1 $644 $460 $462 $648 reversed $294 $-1 #
coedge $-1 $460 $643 $642 $795 reversed $294 $-1 #
coedge $-1 $468 $463 $460 $646 forward $469 $-1 #
edge $-1 $649 24.421269369542053 $796 29.156555685402076 $645 $797 forward 7 unknown #
coedge $-1 $462 $461 $652 $798 reversed $184 $-1 #
edge $-1 $799 -106.14825891903439 $649 -99.673571836254823 $643 $800 forward 7 unknown #
vertex $-1 $464 $801 #
straight-curve $-1 48.338843143657193 3.0971246697315422 15.950612690400796 0 -1 0 I I #
coedge $-1 $642 $465 $468 $656 reversed $458 $-1 #
coedge $-1 $465 $642 $647 $798 forward $458 $-1 #
vertex $-1 $466 $802 #
straight-curve $-1 53.074129459517195 9.9430707054964866 80.779873655374288 0 0 1 I I #
straight-curve $-1 -24.557791818736703 9.9430707054964866 83.927826032494679 0.7313536940579346 0 -0.68199836817093118 I I #
edge $-1 $796 2.4454279734296822 $470 9.9430707054964866 $651 $803 forward 7 unknown #
point $-1 53.074129459517195 9.9430707054964866 15.950612690400796 #
point $-1 48.338843143657172 9.9430707054964866 15.950612690400803 #
edge $-1 $804 1 $804 0 $473 $-1 forward 7 unknown #
vertex $-1 $474 $805 #
ellipse-curve $-1 50.024487933416253 3.9449565198430463 13.011395983906334 0.68199836817093118 0 0.7313536940579346 0.3656768470289673 0 -0.34099918408546559 1 I I #
point $-1 51.072163148616156 3.9449565198430463 13.401750493878803 #
edge $-1 $806 1 $806 0 $477 $-1 forward 7 unknown #
vertex $-1 $478 $807 #
ellipse-curve $-1 50.024487933416253 6.1942493394630844 13.011395983906334 0.68199836817093118 0 0.7313536940579346 0.3656768470289673 0 -0.34099918408546559 1 I I #
point $-1 51.072163148616156 6.1942493394630844 13.401750493878803 #
edge $-1 $808 1 $808 0 $481 $-1 forward 7 unknown #
vertex $-1 $482 $809 #
ellipse-curve $-1 50.024487933416253 8.4435421590831297 13.011395983906334 0.68199836817093118 0 0.7313536940579346 0.3656768470289673 0 -0.34099918408546559 1 I I #
point $-1 51.072163148616156 8.4435421590831297 13.401750493878803 #
loop $-1 $-1 $493 $485 #
plane-surface $-1 -53.074129459517195 0 0 1 0 0 0 0 -1 forward_v I I I I #
coedge $-1 $674 $488 $490 $678 reversed $323 $-1 #
coedge $-1 $488 $673 $810 $811 reversed $323 $-1 #
coedge $-1 $496 $491 $488 $676 forward $486 $-1 #
edge $-1 $679 -14.394691269584889 $812 -9.6594049537248736 $675 $813 forward 7 unknown #
coedge $-1 $490 $489 $682 $814 reversed $203 $-1 #
edge $-1 $815 0 $679 6.4746870827795497 $673 $816 forward 7 unknown #
vertex $-1 $492 $817 #
straight-curve $-1 -48.338843143657179 -5.0731061546817351 15.950612690400796 0 1 0 I I #
coedge $-1 $810 $493 $496 $686 reversed $671 $-1 #
coedge $-1 $493 $810 $677 $814 forward $671 $-1 #
vertex $-1 $494 $818 #
straight-curve $-1 -53.074129459517195 -13.895033675396872 44.583403971890817 0 0 1 I I #
straight-curve $-1 -53.074129459517195 -13.895033675396872 11.534886665527736 -0.7313536940579346 0 -0.68199836817093118 I I #
edge $-1 $812 6.397390943330068 $497 13.895033675396872 $681 $819 forward 7 unknown #
point $-1 -53.074129459517195 -13.895033675396872 15.950612690400796 #
point $-1 -48.338843143657179 -13.895033675396872 15.950612690400796 #
edge $-1 $820 1 $820 0 $500 $-1 forward 7 unknown #
vertex $-1 $501 $821 #
ellipse-curve $-1 -50.024487933416253 -12.395505128983508 13.011395983906327 -0.68199836817093118 0 0.7313536940579346 0.3656768470289673 0 0.34099918408546559 1 I I #
point $-1 -50.340809454558219 -12.395505128983508 14.083748862049728 #
edge $-1 $822 1 $822 0 $504 $-1 forward 7 unknown #
vertex $-1 $505 $823 #
ellipse-curve $-1 -50.024487933416253 -10.146212309363467 13.011395983906327 -0.68199836817093118 0 0.7313536940579346 0.3656768470289673 0 0.34099918408546559 1 I I #
point $-1 -50.340809454558219 -10.146212309363467 14.083748862049728 #
edge $-1 $824 1 $824 0 $508 $-1 forward 7 unknown #
vertex $-1 $509 $825 #
ellipse-curve $-1 -50.024487933416253 -7.8969194897434249 13.011395983906327 -0.68199836817093118 0 0.7313536940579346 0.3656768470289673 0 0.34099918408546559 1 I I #
point $-1 -50.340809454558219 -7.8969194897434249 14.083748862049728 #
loop $-1 $-1 $520 $512 #
plane-surface $-1 -53.074129459517195 0 0 1 0 0 0 0 -1 forward_v I I I I #
coedge $-1 $704 $515 $517 $708 reversed $352 $-1 #
coedge $-1 $515 $703 $826 $827 reversed $352 $-1 #
coedge $-1 $523 $518 $515 $706 forward $513 $-1 #
edge $-1 $709 -14.394691269584889 $828 -9.6594049537248736 $705 $829 forward 7 unknown #
coedge $-1 $517 $516 $712 $830 reversed $222 $-1 #
edge $-1 $831 0 $709 6.4746870827795497 $703 $832 forward 7 unknown #
vertex $-1 $519 $833 #
straight-curve $-1 -48.338843143657179 3.0971246697315422 15.950612690400796 0 1 0 I I #
coedge $-1 $826 $520 $523 $716 reversed $701 $-1 #
coedge $-1 $520 $826 $707 $830 forward $701 $-1 #
vertex $-1 $521 $834 #
straight-curve $-1 -53.074129459517195 2.4454279734296822 44.583403971890817 0 0 1 I I #
straight-curve $-1 -53.074129459517195 2.4454279734296822 11.534886665527736 -0.7313536940579346 0 -0.68199836817093118 I I #
edge $-1 $828 -9.9430707054964866 $524 -2.4454279734296822 $711 $835 forward 7 unknown #
point $-1 -53.074129459517195 2.4454279734296822 15.950612690400796 #
point $-1 -48.338843143657179 2.4454279734296822 15.950612690400796 #
edge $-1 $836 1 $836 0 $527 $-1 forward 7 unknown #
vertex $-1 $528 $837 #
ellipse-curve $-1 -50.024487933416253 3.9449565198430463 13.011395983906327 -0.68199836817093118 0 0.7313536940579346 0.3656768470289673 0 0.34099918408546559 1 I I #
point $-1 -50.340809454558219 3.9449565198430463 14.083748862049728 #
edge $-1 $838 1 $838 0 $531 $-1 forward 7 unknown #
vertex $-1 $532 $839 #
ellipse-curve $-1 -50.024487933416253 6.1942493394630844 13.011395983906327 -0.68199836817093118 0 0.7313536940579346 0.3656768470289673 0 0.34099918408546559 1 I I #
point $-1 -50.340809454558219 6.1942493394630844 14.083748862049728 #
edge $-1 $840 1 $840 0 $535 $-1 forward 7 unknown #
vertex $-1 $536 $841 #
ellipse-curve $-1 -50.024487933416253 8.4435421590831297 13.011395983906327 -0.68199836817093118 0 0.7313536940579346 0.3656768470289673 0 0.34099918408546559 1 I I #
point $-1 -50.340809454558219 8.4435421590831297 14.083748862049728 #
plane-surface $-1 53.074129459517195 0 0 -1 0 0 0 0 1 forward_v I I I I #
coedge $-1 $544 $542 $546 $736 reversed $381 $-1 #
edge $-1 $557 -15.950612690400796 $738 15.950612690400796 $556 $842 forward 7 unknown #
vertex $-1 $736 $843 #
straight-curve $-1 -53.074129459517195 -33.622631895524705 0 0 0 -1 I I #
edge $-1 $734 -33.622631895524705 $738 33.622631895524705 $732 $844 forward 7 unknown #
straight-curve $-1 0 -33.622631895524705 -15.950612690400796 -1 0 0 I I #
vertex $-1 $549 $845 #
straight-curve $-1 0 33.622631895524705 -15.950612690400796 1 0 0 I I #
point $-1 53.074129459517195 33.622631895524705 -15.950612690400796 #
point $-1 53.074129459517195 -33.622631895524705 -15.950612690400796 #
straight-curve $-1 -53.074129459517195 0 15.950612690400796 0 -1 0 I I #
point $-1 -53.074129459517195 33.622631895524705 15.950612690400796 #
point $-1 -53.074129459517195 -33.622631895524705 15.950612690400796 #
straight-curve $-1 53.074129459517195 -33.622631895524705 0 0 0 -1 I I #
straight-curve $-1 53.074129459517195 33.622631895524705 0 0 0 -1 I I #
plane-surface $-1 53.074129459517195 0 0 -1 0 0 0 0 1 forward_v I I I I #
coedge $-1 $846 $751 $573 $756 forward $567 $-1 #
coedge $-1 $574 $569 $846 $847 forward $400 $-1 #
edge $-1 $583 -9.8637991100639155 $848 9.8637991100639155 $581 $849 forward 7 unknown #
coedge $-1 $748 $850 $570 $752 reversed $567 $-1 #
edge $-1 $759 -53.074129459517195 $754 53.074129459517195 $751 $851 forward 7 unknown #
coedge $-1 $581 $571 $850 $852 forward $582 $-1 #
vertex $-1 $572 $853 #
straight-curve $-1 53.074129459517195 -43.486431005588621 3.8513126369850283 0 1 0 I I #
edge $-1 $759 -2.1770661072200532 $757 2.1770661072200532 $573 $854 forward 7 unknown #
vertex $-1 $575 $855 #
straight-curve $-1 -53.074129459517195 -43.486431005588621 -0.5028195774550781 0 1 0 I I #
vertex $-1 $576 $856 #
straight-curve $-1 -53.074129459517195 -43.486431005588621 3.8513126369850283 0 -1 0 I I #
point $-1 -53.074129459517195 -33.622631895524705 -0.5028195774550781 #
straight-curve $-1 0 -33.622631895524705 -0.5028195774550781 -1 0 0 I I #
point $-1 53.074129459517195 -33.622631895524705 -0.5028195774550781 #
plane-surface $-1 0 33.622631895524705 0 0 -1 0 0 0 -1 forward_v I I I I #
coedge $-1 $590 $606 $597 $774 forward $414 $-1 #
coedge $-1 $592 $591 $773 $857 reversed $257 $-1 #
edge $-1 $858 -20.52050151607947 $604 -5.6837592428110035 $603 $859 forward 7 unknown #
edge $-1 $607 5.6837592428110035 $860 20.52050151607947 $606 $861 forward 7 unknown #
straight-curve $-1 -34.489539160431491 18.785889622256239 0 0 0 -1 I I #
coedge $-1 $603 $594 $598 $775 forward $588 $-1 #
straight-curve $-1 -41.008519080085705 13.102130379445235 -15.950612690400796 0 1 0 I I #
straight-curve $-1 -41.008519080085705 13.102130379445235 15.950612690400796 0 -1 0 I I #
coedge $-1 $598 $597 $766 $857 forward $599 $-1 #
edge $-1 $860 34.489539160431491 $601 41.008519080085705 $597 $862 forward 7 unknown #
edge $-1 $600 -41.008519080085705 $858 -34.489539160431491 $598 $863 forward 7 unknown #
point $-1 -41.008519080085705 33.622631895524705 -15.950612690400796 #
point $-1 -41.008519080085705 33.622631895524705 15.950612690400796 #
point $-1 -34.489539160431491 18.785889622256239 -15.950612690400796 #
point $-1 -34.489539160431491 18.785889622256239 15.950612690400796 #
edge $-1 $781 64.829260964973486 $784 69.244986989846552 $612 $864 forward 7 unknown #
vertex $-1 $626 $865 #
straight-curve $-1 23.91757377411512 -13.895033675396872 15.950612690400789 1 0 0 I I #
edge $-1 $784 -8.8219275207151373 $623 -1.3242847886483329 $622 $866 forward 7 unknown #
vertex $-1 $783 $867 #
straight-curve $-1 -24.557791818736703 -13.895033675396872 83.927826032494679 -0.7313536940579346 0 0.68199836817093118 I I #
point $-1 48.338843143657172 -13.895033675396872 15.950612690400803 #
point $-1 53.074129459517195 -6.397390943330068 11.534886665527736 #
straight-curve $-1 53.074129459517195 0 15.950612690400796 0 1 0 I I #
vertex $-1 $629 $868 #
point $-1 50.390164780445225 -12.395505128983508 12.670396799820868 #
vertex $-1 $633 $869 #
point $-1 50.390164780445225 -10.146212309363467 12.670396799820868 #
vertex $-1 $637 $870 #
point $-1 50.390164780445225 -7.8969194897434249 12.670396799820868 #
edge $-1 $796 64.829260964973486 $799 69.244986989846552 $642 $871 forward 7 unknown #
vertex $-1 $656 $872 #
straight-curve $-1 23.91757377411512 2.4454279734296822 15.950612690400789 1 0 0 I I #
edge $-1 $799 -0.65169669630186 $653 6.8459460357649444 $652 $873 forward 7 unknown #
vertex $-1 $798 $874 #
straight-curve $-1 -24.557791818736703 2.4454279734296822 83.927826032494679 -0.7313536940579346 0 0.68199836817093118 I I #
point $-1 48.338843143657172 2.4454279734296822 15.950612690400803 #
point $-1 53.074129459517195 9.9430707054964866 11.534886665527736 #
straight-curve $-1 53.074129459517195 0 15.950612690400796 0 1 0 I I #
vertex $-1 $659 $875 #
point $-1 50.390164780445225 3.9449565198430463 12.670396799820868 #
vertex $-1 $663 $876 #
point $-1 50.390164780445225 6.1942493394630844 12.670396799820868 #
vertex $-1 $667 $877 #
point $-1 50.390164780445225 8.4435421590831297 12.670396799820868 #
coedge $-1 $682 $681 $674 $811 forward $671 $-1 #
edge $-1 $812 28.632791281490022 $815 33.048517306363081 $810 $878 forward 7 unknown #
vertex $-1 $686 $879 #
straight-curve $-1 -62.733534413242069 -6.397390943330068 15.950612690400796 -1 0 0 I I #
edge $-1 $815 1.3242847886483329 $683 8.8219275207151373 $682 $880 forward 7 unknown #
vertex $-1 $814 $881 #
straight-curve $-1 -53.074129459517195 -6.397390943330068 11.534886665527736 0.7313536940579346 0 0.68199836817093118 I I #
point $-1 -48.338843143657179 -6.397390943330068 15.950612690400796 #
point $-1 -53.074129459517195 -13.895033675396872 11.534886665527736 #
straight-curve $-1 -53.074129459517195 0 15.950612690400796 0 -1 0 I I #
vertex $-1 $689 $882 #
point $-1 -49.658811086387288 -12.395505128983508 13.352395167991792 #
vertex $-1 $693 $883 #
point $-1 -49.658811086387288 -10.146212309363467 13.352395167991792 #
vertex $-1 $697 $884 #
point $-1 -49.658811086387288 -7.8969194897434249 13.352395167991792 #
coedge $-1 $712 $711 $704 $827 forward $701 $-1 #
edge $-1 $828 28.632791281490022 $831 33.048517306363081 $826 $885 forward 7 unknown #
vertex $-1 $716 $886 #
straight-curve $-1 -62.733534413242069 9.9430707054964866 15.950612690400796 -1 0 0 I I #
edge $-1 $831 -6.8459460357649444 $713 0.65169669630186 $712 $887 forward 7 unknown #
vertex $-1 $830 $888 #
straight-curve $-1 -53.074129459517195 9.9430707054964866 11.534886665527736 0.7313536940579346 0 0.68199836817093118 I I #
point $-1 -48.338843143657179 9.9430707054964866 15.950612690400796 #
point $-1 -53.074129459517195 2.4454279734296822 11.534886665527736 #
straight-curve $-1 -53.074129459517195 0 15.950612690400796 0 -1 0 I I #
vertex $-1 $719 $889 #
point $-1 -49.658811086387288 3.9449565198430463 13.352395167991792 #
vertex $-1 $723 $890 #
point $-1 -49.658811086387288 6.1942493394630844 13.352395167991792 #
vertex $-1 $727 $891 #
point $-1 -49.658811086387288 8.4435421590831297 13.352395167991792 #
straight-curve $-1 -53.074129459517195 33.622631895524705 0 0 0 -1 I I #
point $-1 -53.074129459517195 -33.622631895524705 -15.950612690400796 #
straight-curve $-1 -53.074129459517195 0 -15.950612690400796 0 1 0 I I #
point $-1 -53.074129459517195 33.622631895524705 -15.950612690400796 #
coedge $-1 $850 $748 $749 $847 reversed $567 $-1 #
edge $-1 $848 -53.074129459517195 $757 53.074129459517195 $846 $892 forward 7 unknown #
vertex $-1 $852 $893 #
straight-curve $-1 53.074129459517195 -43.486431005588621 -0.5028195774550781 0 -1 0 I I #
coedge $-1 $751 $846 $753 $852 reversed $567 $-1 #
straight-curve $-1 0 -53.350230115652536 3.8513126369850283 1 0 0 I I #
edge $-1 $754 -2.1770661072200532 $848 2.1770661072200532 $753 $894 forward 7 unknown #
point $-1 53.074129459517195 -53.350230115652536 3.8513126369850283 #
straight-curve $-1 -53.074129459517195 -53.350230115652536 1.6742465297649751 0 0 -1 I I #
point $-1 -53.074129459517195 -53.350230115652536 -0.5028195774550781 #
point $-1 -53.074129459517195 -53.350230115652536 3.8513126369850283 #
edge $-1 $860 -15.950612690400796 $858 15.950612690400796 $773 $895 forward 7 unknown #
vertex $-1 $857 $896 #
straight-curve $-1 -34.489539160431491 13.102130379445235 -15.950612690400796 0 -1 0 I I #
vertex $-1 $774 $897 #
straight-curve $-1 -34.489539160431491 13.102130379445235 15.950612690400796 0 1 0 I I #
straight-curve $-1 0 33.622631895524705 15.950612690400796 -1 0 0 I I #
straight-curve $-1 0 33.622631895524705 -15.950612690400796 1 0 0 I I #
straight-curve $-1 53.074129459517195 -13.895033675396872 80.779873655374288 0 0 -1 I I #
point $-1 53.074129459517195 -13.895033675396872 15.950612690400796 #
straight-curve $-1 53.074129459517188 -5.0731061546817351 11.53488666552775 0 1 0 I I #
point $-1 53.074129459517195 -13.895033675396872 11.534886665527736 #
point $-1 49.683488749330792 -12.395505128983508 12.645719136877366 #
point $-1 49.683488749330792 -10.146212309363467 12.645719136877366 #
point $-1 49.683488749330792 -7.8969194897434249 12.645719136877366 #
straight-curve $-1 53.074129459517195 2.4454279734296822 80.779873655374288 0 0 -1 I I #
point $-1 53.074129459517195 2.4454279734296822 15.950612690400796 #
straight-curve $-1 53.074129459517188 3.0971246697315422 11.53488666552775 0 1 0 I I #
point $-1 53.074129459517195 2.4454279734296822 11.534886665527736 #
point $-1 49.683488749330792 3.9449565198430463 12.645719136877366 #
point $-1 49.683488749330792 6.1942493394630844 12.645719136877366 #
point $-1 49.683488749330792 8.4435421590831297 12.645719136877366 #
straight-curve $-1 -53.074129459517195 -6.397390943330068 44.583403971890817 0 0 -1 I I #
point $-1 -53.074129459517195 -6.397390943330068 15.950612690400796 #
straight-curve $-1 -53.074129459517195 -5.0731061546817351 11.53488666552774 0 -1 0 I I #
point $-1 -53.074129459517195 -6.397390943330068 11.534886665527736 #
point $-1 -49.683488749330792 -12.395505128983508 12.645719136877359 #
point $-1 -49.683488749330792 -10.146212309363467 12.645719136877359 #
point $-1 -49.683488749330792 -7.8969194897434249 12.645719136877359 #
straight-curve $-1 -53.074129459517195 9.9430707054964866 44.583403971890817 0 0 -1 I I #
point $-1 -53.074129459517195 9.9430707054964866 15.950612690400796 #
straight-curve $-1 -53.074129459517195 3.0971246697315422 11.53488666552774 0 -1 0 I I #
point $-1 -53.074129459517195 9.9430707054964866 11.534886665527736 #
point $-1 -49.683488749330792 3.9449565198430463 12.645719136877359 #
point $-1 -49.683488749330792 6.1942493394630844 12.645719136877359 #
point $-1 -49.683488749330792 8.4435421590831297 12.645719136877359 #
straight-curve $-1 0 -53.350230115652536 -0.5028195774550781 -1 0 0 I I #
point $-1 53.074129459517195 -53.350230115652536 -0.5028195774550781 #
straight-curve $-1 53.074129459517195 -53.350230115652536 1.6742465297649751 0 0 -1 I I #
straight-curve $-1 -34.489539160431491 33.622631895524705 0 0 0 -1 I I #
point $-1 -34.489539160431491 33.622631895524705 -15.950612690400796 #
point $-1 -34.489539160431491 33.622631895524705 15.950612690400796 #
End-of-ACIS-data 