500 0 11 0           
7 Unknown 11 ACIS 5.0 NT 24 Thu Mar 25 19:22:26 1999 
-1 9.9999999999999995e-007 1e-010 
body $-1 $11 $-1 $12 #
body $-1 $13 $-1 $14 #
body $-1 $15 $-1 $16 #
body $-1 $17 $-1 $18 #
body $-1 $19 $-1 $20 #
body $-1 $21 $-1 $22 #
body $-1 $23 $-1 $24 #
body $-1 $25 $-1 $26 #
body $-1 $27 $-1 $28 #
body $-1 $29 $-1 $30 #
body $-1 $31 $-1 $32 #
lump $-1 $-1 $33 $0 #
transform $-1 1 0 0 0 1 0 0 0 1 64.676046021912299 30.459541825646113 14.74731898840183 1 rotate no_reflect no_shear #
lump $-1 $-1 $34 $1 #
transform $-1 1 0 0 0 1 0 0 0 1 64.676046021912299 30.459541825646113 14.74731898840183 1 rotate no_reflect no_shear #
lump $-1 $-1 $35 $2 #
transform $-1 1 0 0 0 1 0 0 0 1 64.676046021912299 30.459541825646113 14.74731898840183 1 rotate no_reflect no_shear #
lump $-1 $-1 $36 $3 #
transform $-1 1 0 0 0 1 0 0 0 1 64.676046021912299 30.459541825646113 14.74731898840183 1 rotate no_reflect no_shear #
lump $-1 $-1 $37 $4 #
transform $-1 1 0 0 0 1 0 0 0 1 64.676046021912299 30.459541825646113 14.74731898840183 1 rotate no_reflect no_shear #
lump $-1 $-1 $38 $5 #
transform $-1 1 0 0 0 1 0 0 0 1 64.676046021912299 30.459541825646113 14.74731898840183 1 rotate no_reflect no_shear #
lump $-1 $-1 $39 $6 #
transform $-1 1 0 0 0 1 0 0 0 1 64.676046021912299 30.459541825646113 14.74731898840183 1 rotate no_reflect no_shear #
lump $-1 $-1 $40 $7 #
transform $-1 1 0 0 0 1 0 0 0 1 64.676046021912299 30.459541825646113 14.74731898840183 1 rotate no_reflect no_shear #
lump $-1 $-1 $41 $8 #
transform $-1 1 0 0 0 1 0 0 0 1 64.676046021912299 30.459541825646113 14.74731898840183 1 rotate no_reflect no_shear #
lump $-1 $-1 $42 $9 #
transform $-1 1 0 0 0 1 0 0 0 1 64.676046021912299 30.459541825646113 14.74731898840183 1 rotate no_reflect no_shear #
lump $-1 $-1 $43 $10 #
transform $-1 1 0 0 0 1 0 0 0 1 64.676046021912299 30.459541825646113 14.74731898840183 1 rotate no_reflect no_shear #
shell $-1 $-1 $-1 $44 $-1 $11 #
shell $-1 $-1 $-1 $45 $-1 $13 #
shell $-1 $-1 $-1 $46 $-1 $15 #
shell $-1 $-1 $-1 $47 $-1 $17 #
shell $-1 $-1 $-1 $48 $-1 $19 #
shell $-1 $-1 $-1 $49 $-1 $21 #
shell $-1 $-1 $-1 $50 $-1 $23 #
shell $-1 $-1 $-1 $51 $-1 $25 #
shell $-1 $-1 $-1 $52 $-1 $27 #
shell $-1 $-1 $-1 $53 $-1 $29 #
shell $-1 $-1 $-1 $54 $-1 $31 #
face $-1 $55 $56 $33 $-1 $57 forward single #
face $-1 $58 $59 $34 $-1 $60 forward single #
face $-1 $61 $62 $35 $-1 $63 reversed single #
face $-1 $64 $65 $36 $-1 $66 forward single #
face $-1 $67 $68 $37 $-1 $69 forward single #
face $-1 $70 $71 $38 $-1 $72 reversed single #
face $-1 $73 $74 $39 $-1 $75 forward single #
face $-1 $76 $77 $40 $-1 $78 forward single #
face $-1 $79 $80 $41 $-1 $81 reversed single #
face $-1 $82 $83 $42 $-1 $84 forward single #
face $-1 $85 $86 $43 $-1 $87 forward single #
face $-1 $88 $89 $33 $-1 $90 reversed single #
loop $-1 $-1 $91 $44 #
plane-surface $-1 0 0 14.74731898840183 0 0 1 1 0 0 forward_v I I I I #
face $-1 $92 $93 $34 $-1 $94 reversed single #
loop $-1 $-1 $95 $45 #
plane-surface $-1 0 -22.280740913826509 -11.59784577397761 0 0 1 1 0 0 forward_v I I I I #
face $-1 $96 $97 $35 $-1 $98 reversed single #
loop $-1 $-1 $99 $46 #
plane-surface $-1 -170.63507770479674 -6.1453849015297042 80.167173711765571 0 1 0 -0.81915205242281985 0 0.57357642473473569 forward_v I I I I #
face $-1 $100 $101 $36 $-1 $102 forward single #
loop $-1 $103 $104 $47 #
cone-surface $-1 -60.83924761946048 -3.1782839014714384 9.824807324139238 0.81915205242281985 0 -0.57357642473473569 0.57357642473473569 0 0.81915205242281985 1 I I 0 1 1 forward I I I I #
face $-1 $105 $106 $37 $-1 $107 forward single #
loop $-1 $108 $109 $48 #
cone-surface $-1 -60.83924761946048 1.2723675986159648 9.824807324139238 0.81915205242281985 0 -0.57357642473473569 0.57357642473473569 0 0.81915205242281985 1 I I 0 1 1 forward I I I I #
face $-1 $110 $111 $38 $-1 $112 reversed single #
loop $-1 $-1 $113 $49 #
plane-surface $-1 -170.63507770479674 12.118133224964977 80.167173711765571 0 1 0 -0.81915205242281985 0 0.57357642473473569 forward_v I I I I #
face $-1 $114 $115 $39 $-1 $116 forward single #
loop $-1 $117 $118 $50 #
cone-surface $-1 -60.83924761946048 15.085234225023243 9.824807324139238 0.81915205242281985 0 -0.57357642473473569 0.57357642473473569 0 0.81915205242281985 1 I I 0 1 1 forward I I I I #
face $-1 $119 $120 $40 $-1 $121 forward single #
loop $-1 $122 $123 $51 #
cone-surface $-1 -60.83924761946048 19.535885725110646 9.824807324139238 0.81915205242281985 0 -0.57357642473473569 0.57357642473473569 0 0.81915205242281985 1 I I 0 1 1 forward I I I I #
face $-1 $124 $125 $41 $-1 $126 reversed single #
loop $-1 $-1 $127 $52 #
plane-surface $-1 64.676048144384282 17.175649880583929 193.32148049714618 0 1 0 0.70710678939079041 0 0.70710677298230451 forward_v I I I I #
face $-1 $128 $129 $42 $-1 $130 forward single #
loop $-1 $131 $132 $53 #
cone-surface $-1 61.558910281719548 20.971047579173124 11.630183219430434 -0.70710678939079041 0 -0.70710677298230451 0.70710677298230451 0 -0.70710678939079041 1 I I 0 1 1 forward I I I I #
face $-1 $133 $134 $43 $-1 $135 forward single #
loop $-1 $136 $137 $54 #
cone-surface $-1 61.558910281719548 26.664144127056915 11.630183219430434 -0.70710678939079041 0 -0.70710677298230451 0.70710677298230451 0 -0.70710678939079041 1 I I 0 1 1 forward I I I I #
face $-1 $138 $139 $33 $-1 $140 reversed single #
loop $-1 $-1 $141 $55 #
plane-surface $-1 0 0 -14.74731898840183 0 0 1 1 0 0 forward_v I I I I #
coedge $-1 $142 $143 $144 $145 forward $56 $-1 #
face $-1 $146 $147 $34 $-1 $148 reversed single #
loop $-1 $-1 $149 $58 #
plane-surface $-1 0 -14.101940002006906 -13.17258238118972 0 -1 0 0 0 -1 forward_v I I I I #
coedge $-1 $150 $151 $152 $153 reversed $59 $-1 #
face $-1 $154 $155 $35 $-1 $156 reversed single #
loop $-1 $-1 $157 $61 #
plane-surface $-1 -64.676046021912313 -0.95295815142773677 5.9738632253102111 -0.81915205242281985 0 0.57357642473473569 0.57357642473473569 0 0.81915205242281985 forward_v I I I I #
coedge $-1 $158 $159 $160 $161 reversed $62 $-1 #
face $-1 $-1 $162 $36 $-1 $163 forward single #
loop $-1 $164 $165 $64 #
cone-surface $-1 -59.66449302882274 -3.1782839014714384 9.0022353290550896 0.81915205242281985 0 -0.57357642473473569 0.28678821236736785 0 0.40957602621140993 1 I I -0.70710678118654746 0.70710678118654746 0.5 forward I I I I #
loop $-1 $-1 $166 $47 #
coedge $-1 $104 $104 $167 $168 reversed $65 $-1 #
face $-1 $-1 $169 $37 $-1 $170 forward single #
loop $-1 $171 $172 $67 #
cone-surface $-1 -59.66449302882274 1.2723675986159648 9.0022353290550896 0.81915205242281985 0 -0.57357642473473569 0.28678821236736785 0 0.40957602621140993 1 I I -0.70710678118654746 0.70710678118654746 0.5 forward I I I I #
loop $-1 $-1 $173 $48 #
coedge $-1 $109 $109 $174 $175 reversed $68 $-1 #
face $-1 $176 $177 $38 $-1 $178 reversed single #
loop $-1 $-1 $179 $70 #
plane-surface $-1 -64.676046021912313 17.310559975066944 5.9738632253102111 -0.81915205242281985 0 0.57357642473473569 0.57357642473473569 0 0.81915205242281985 forward_v I I I I #
coedge $-1 $180 $181 $182 $183 reversed $71 $-1 #
face $-1 $-1 $184 $39 $-1 $185 forward single #
loop $-1 $186 $187 $73 #
cone-surface $-1 -59.66449302882274 15.085234225023243 9.0022353290550896 0.81915205242281985 0 -0.57357642473473569 0.28678821236736785 0 0.40957602621140993 1 I I -0.70710678118654746 0.70710678118654746 0.5 forward I I I I #
loop $-1 $-1 $188 $50 #
coedge $-1 $118 $118 $189 $190 reversed $74 $-1 #
face $-1 $-1 $191 $40 $-1 $192 forward single #
loop $-1 $193 $194 $76 #
cone-surface $-1 -59.66449302882274 19.535885725110646 9.0022353290550896 0.81915205242281985 0 -0.57357642473473569 0.28678821236736785 0 0.40957602621140993 1 I I -0.70710678118654746 0.70710678118654746 0.5 forward I I I I #
loop $-1 $-1 $195 $51 #
coedge $-1 $123 $123 $196 $197 reversed $77 $-1 #
face $-1 $198 $199 $41 $-1 $200 reversed single #
loop $-1 $-1 $201 $79 #
plane-surface $-1 -26.789694361706538 23.817595853115023 101.85574011352735 0.70710678939079041 0 0.70710677298230451 0.70710677298230451 0 -0.70710678939079041 forward_v I I I I #
coedge $-1 $202 $203 $204 $205 reversed $80 $-1 #
face $-1 $-1 $206 $42 $-1 $207 forward single #
loop $-1 $208 $209 $82 #
cone-surface $-1 60.266881786757992 20.971047579173124 10.338154754450528 -0.70710678939079041 0 -0.70710677298230451 0.35355338649115226 0 -0.35355339469539521 1 I I -0.70710678118654746 0.70710678118654746 0.5 forward I I I I #
loop $-1 $-1 $210 $53 #
coedge $-1 $132 $132 $211 $212 reversed $83 $-1 #
face $-1 $-1 $213 $43 $-1 $214 forward single #
loop $-1 $215 $216 $85 #
cone-surface $-1 60.266881786757992 26.664144127056915 10.338154754450528 -0.70710678939079041 0 -0.70710677298230451 0.35355338649115226 0 -0.35355339469539521 1 I I -0.70710678118654746 0.70710678118654746 0.5 forward I I I I #
loop $-1 $-1 $217 $54 #
coedge $-1 $137 $137 $218 $219 reversed $86 $-1 #
face $-1 $220 $221 $33 $-1 $222 reversed single #
loop $-1 $-1 $223 $88 #
plane-surface $-1 0 -30.459541825646113 0 0 1 0 0 0 1 forward_v I I I I #
coedge $-1 $224 $225 $226 $227 forward $89 $-1 #
coedge $-1 $228 $91 $229 $230 forward $56 $-1 #
coedge $-1 $91 $228 $231 $232 forward $56 $-1 #
coedge $-1 $233 $234 $91 $145 reversed $235 $-1 #
edge $-1 $236 -30.459541825646113 $237 30.459541825646113 $144 $238 forward 7 unknown #
face $-1 $239 $240 $34 $-1 $241 reversed single #
loop $-1 $-1 $242 $92 #
plane-surface $-1 0 0 -14.74731898840183 0 0 1 1 0 0 forward_v I I I I #
coedge $-1 $243 $244 $245 $246 reversed $93 $-1 #
coedge $-1 $247 $95 $244 $248 forward $59 $-1 #
coedge $-1 $95 $247 $249 $250 reversed $59 $-1 #
coedge $-1 $251 $245 $95 $153 forward $240 $-1 #
edge $-1 $252 2.961569545093651 $253 19.31917136873286 $152 $254 forward 7 unknown #
face $-1 $255 $256 $35 $-1 $257 forward single #
loop $-1 $-1 $258 $96 #
plane-surface $-1 -170.63507770479674 4.2394685986742306 80.167173711765571 0 -1 0 0.81915205242281985 0 -0.57357642473473569 forward_v I I I I #
coedge $-1 $259 $260 $261 $262 reversed $97 $-1 #
coedge $-1 $159 $99 $263 $264 reversed $62 $-1 #
coedge $-1 $99 $158 $259 $265 reversed $62 $-1 #
coedge $-1 $261 $266 $99 $161 forward $256 $-1 #
edge $-1 $267 20.641492830486072 $268 26.784732506537033 $160 $269 forward 7 unknown #
loop $-1 $-1 $167 $100 #
plane-surface $-1 -64.676046021912313 -0.95295815142773677 5.9738632253102111 -0.81915205242281985 0 0.57357642473473569 0.57357642473473569 0 0.81915205242281985 forward_v I I I I #
loop $-1 $-1 $270 $64 #
coedge $-1 $165 $165 $166 $271 reversed $101 $-1 #
coedge $-1 $166 $166 $165 $271 forward $103 $-1 #
coedge $-1 $167 $167 $104 $168 forward $162 $-1 #
edge $-1 $272 0 $272 6.2831853071796004 $167 $273 forward 7 unknown #
loop $-1 $-1 $174 $105 #
plane-surface $-1 -64.676046021912313 -0.95295815142773677 5.9738632253102111 -0.81915205242281985 0 0.57357642473473569 0.57357642473473569 0 0.81915205242281985 forward_v I I I I #
loop $-1 $-1 $274 $67 #
coedge $-1 $172 $172 $173 $275 reversed $106 $-1 #
coedge $-1 $173 $173 $172 $275 forward $108 $-1 #
coedge $-1 $174 $174 $109 $175 forward $169 $-1 #
edge $-1 $276 0 $276 6.2831853071796004 $174 $277 forward 7 unknown #
face $-1 $278 $279 $38 $-1 $280 forward single #
loop $-1 $-1 $281 $110 #
plane-surface $-1 -170.63507770479674 22.50298672516891 80.167173711765571 0 -1 0 0.81915205242281985 0 -0.57357642473473569 forward_v I I I I #
coedge $-1 $282 $283 $284 $285 reversed $111 $-1 #
coedge $-1 $181 $113 $286 $287 reversed $71 $-1 #
coedge $-1 $113 $180 $282 $288 reversed $71 $-1 #
coedge $-1 $284 $289 $113 $183 forward $279 $-1 #
edge $-1 $290 20.641492830486072 $291 26.784732506537033 $182 $292 forward 7 unknown #
loop $-1 $-1 $189 $114 #
plane-surface $-1 -64.676046021912313 17.310559975066944 5.9738632253102111 -0.81915205242281985 0 0.57357642473473569 0.57357642473473569 0 0.81915205242281985 forward_v I I I I #
loop $-1 $-1 $293 $73 #
coedge $-1 $187 $187 $188 $294 reversed $115 $-1 #
coedge $-1 $188 $188 $187 $294 forward $117 $-1 #
coedge $-1 $189 $189 $118 $190 forward $184 $-1 #
edge $-1 $295 0 $295 6.2831853071796004 $189 $296 forward 7 unknown #
loop $-1 $-1 $196 $119 #
plane-surface $-1 -64.676046021912313 17.310559975066944 5.9738632253102111 -0.81915205242281985 0 0.57357642473473569 0.57357642473473569 0 0.81915205242281985 forward_v I I I I #
loop $-1 $-1 $297 $76 #
coedge $-1 $194 $194 $195 $298 reversed $120 $-1 #
coedge $-1 $195 $195 $194 $298 forward $122 $-1 #
coedge $-1 $196 $196 $123 $197 forward $191 $-1 #
edge $-1 $299 0 $299 6.2831853071796004 $196 $300 forward 7 unknown #
face $-1 $301 $302 $41 $-1 $303 forward single #
loop $-1 $-1 $304 $124 #
plane-surface $-1 0 30.459541825646113 0 0 -1 0 0 0 -1 forward_v I I I I #
coedge $-1 $305 $306 $307 $308 reversed $125 $-1 #
coedge $-1 $203 $127 $309 $310 reversed $80 $-1 #
coedge $-1 $127 $202 $305 $311 reversed $80 $-1 #
coedge $-1 $307 $312 $127 $205 forward $313 $-1 #
edge $-1 $314 81.913421260171262 $315 86.27074264113655 $204 $316 forward 7 unknown #
loop $-1 $-1 $211 $128 #
plane-surface $-1 -26.789694361706538 23.817595853115023 101.85574011352735 0.70710678939079041 0 0.70710677298230451 0.70710677298230451 0 -0.70710678939079041 forward_v I I I I #
loop $-1 $-1 $317 $82 #
coedge $-1 $209 $209 $210 $318 reversed $129 $-1 #
coedge $-1 $210 $210 $209 $318 forward $131 $-1 #
coedge $-1 $211 $211 $132 $212 forward $206 $-1 #
edge $-1 $319 0 $319 6.2831853071796004 $211 $320 forward 7 unknown #
loop $-1 $-1 $218 $133 #
plane-surface $-1 -26.789694361706538 23.817595853115023 101.85574011352735 0.70710678939079041 0 0.70710677298230451 0.70710677298230451 0 -0.70710678939079041 forward_v I I I I #
loop $-1 $-1 $321 $85 #
coedge $-1 $216 $216 $217 $322 reversed $134 $-1 #
coedge $-1 $217 $217 $216 $322 forward $136 $-1 #
coedge $-1 $218 $218 $137 $219 forward $213 $-1 #
edge $-1 $323 0 $323 6.2831853071796004 $218 $324 forward 7 unknown #
face $-1 $325 $326 $33 $-1 $327 reversed single #
loop $-1 $-1 $328 $138 #
plane-surface $-1 -64.676046021912299 0 0 1 0 0 0 0 -1 forward_v I I I I #
coedge $-1 $329 $231 $330 $331 forward $139 $-1 #
coedge $-1 $332 $141 $329 $333 forward $89 $-1 #
coedge $-1 $141 $332 $334 $335 forward $89 $-1 #
coedge $-1 $234 $233 $141 $227 reversed $235 $-1 #
edge $-1 $336 -30.459541825646113 $337 30.459541825646113 $226 $338 forward 7 unknown #
coedge $-1 $143 $142 $339 $340 forward $56 $-1 #
coedge $-1 $341 $342 $142 $230 reversed $326 $-1 #
edge $-1 $237 -64.676046021912299 $343 64.676046021912299 $229 $344 forward 7 unknown #
coedge $-1 $223 $345 $143 $232 reversed $139 $-1 #
edge $-1 $346 -64.676046021912299 $236 64.676046021912299 $231 $347 forward 7 unknown #
coedge $-1 $226 $144 $345 $348 forward $235 $-1 #
coedge $-1 $144 $226 $341 $349 reversed $235 $-1 #
loop $-1 $-1 $233 $325 #
vertex $-1 $145 $350 #
vertex $-1 $145 $351 #
straight-curve $-1 64.676046021912299 0 14.74731898840183 0 1 0 I I #
face $-1 $352 $353 $34 $-1 $354 reversed single #
loop $-1 $-1 $245 $146 #
plane-surface $-1 64.676046021912299 0 0 -1 0 0 0 0 1 forward_v I I I I #
coedge $-1 $355 $356 $243 $357 forward $147 $-1 #
coedge $-1 $358 $149 $242 $357 reversed $93 $-1 #
coedge $-1 $149 $358 $150 $248 reversed $93 $-1 #
coedge $-1 $152 $359 $149 $246 forward $240 $-1 #
edge $-1 $360 -8.1610277978069696 $252 -5.0115545833827504 $245 $361 forward 7 unknown #
coedge $-1 $151 $150 $362 $363 reversed $59 $-1 #
edge $-1 $252 -64.676046021912299 $364 64.676046021912299 $244 $365 forward 7 unknown #
coedge $-1 $366 $367 $151 $250 forward $353 $-1 #
edge $-1 $253 -64.676046021912299 $368 64.676046021912299 $249 $369 forward 7 unknown #
coedge $-1 $359 $152 $367 $370 forward $240 $-1 #
vertex $-1 $153 $371 #
vertex $-1 $370 $372 #
straight-curve $-1 64.676046021912299 -11.140370456913255 -11.59784577397761 0 -1 0 I I #
face $-1 $-1 $373 $35 $-1 $374 reversed single #
loop $-1 $-1 $160 $154 #
plane-surface $-1 0 0 14.74731898840183 0 0 1 1 0 0 forward_v I I I I #
coedge $-1 $375 $376 $377 $378 reversed $155 $-1 #
coedge $-1 $379 $157 $159 $265 forward $97 $-1 #
coedge $-1 $157 $379 $375 $380 forward $97 $-1 #
coedge $-1 $377 $160 $157 $262 forward $256 $-1 #
edge $-1 $268 -5.6689058258158358 $381 4.715947674388099 $261 $382 forward 7 unknown #
coedge $-1 $383 $384 $158 $264 forward $373 $-1 #
edge $-1 $385 -34.109723630572553 $267 -25.336267867480956 $263 $386 forward 7 unknown #
edge $-1 $268 -10.710411744855211 $385 -2.4884734274515653e-014 $159 $387 forward 7 unknown #
coedge $-1 $160 $377 $383 $388 forward $256 $-1 #
vertex $-1 $264 $389 #
vertex $-1 $161 $390 #
straight-curve $-1 -85.317538852398371 -6.1453849015297042 14.74731898840183 1 0 0 I I #
coedge $-1 $270 $270 $-1 $391 reversed $164 $-1 #
edge $-1 $392 0 $392 6.2831853071796004 $165 $393 forward 7 unknown #
vertex $-1 $168 $394 #
ellipse-curve $-1 -61.604426183886822 -3.1782839014714384 10.360591106856026 -0.81915205242281985 0 0.57357642473473569 0.57357642473473569 0 0.81915205242281985 1 I I #
coedge $-1 $274 $274 $-1 $395 reversed $171 $-1 #
edge $-1 $396 0 $396 6.2831853071796004 $172 $397 forward 7 unknown #
vertex $-1 $175 $398 #
ellipse-curve $-1 -61.604426183886822 1.2723675986159648 10.360591106856026 -0.81915205242281985 0 0.57357642473473569 0.57357642473473569 0 0.81915205242281985 1 I I #
face $-1 $-1 $399 $38 $-1 $400 reversed single #
loop $-1 $-1 $182 $176 #
plane-surface $-1 0 0 14.74731898840183 0 0 1 1 0 0 forward_v I I I I #
coedge $-1 $401 $402 $403 $404 reversed $177 $-1 #
coedge $-1 $405 $179 $181 $288 forward $111 $-1 #
coedge $-1 $179 $405 $401 $406 forward $111 $-1 #
coedge $-1 $403 $182 $179 $285 forward $279 $-1 #
edge $-1 $291 3.4628532374315046 $407 13.847706737635438 $284 $408 forward 7 unknown #
coedge $-1 $409 $410 $180 $287 forward $399 $-1 #
edge $-1 $411 -34.109723630572553 $290 -25.336267867480956 $286 $412 forward 7 unknown #
edge $-1 $291 -10.710411744855211 $411 -2.4884734274515653e-014 $181 $413 forward 7 unknown #
coedge $-1 $182 $403 $409 $414 forward $279 $-1 #
vertex $-1 $183 $415 #
vertex $-1 $183 $416 #
straight-curve $-1 -85.317538852398371 12.118133224964977 14.74731898840183 1 0 0 I I #
coedge $-1 $293 $293 $-1 $417 reversed $186 $-1 #
edge $-1 $418 0 $418 6.2831853071796004 $187 $419 forward 7 unknown #
vertex $-1 $190 $420 #
ellipse-curve $-1 -61.604426183886822 15.085234225023243 10.360591106856026 -0.81915205242281985 0 0.57357642473473569 0.57357642473473569 0 0.81915205242281985 1 I I #
coedge $-1 $297 $297 $-1 $421 reversed $193 $-1 #
edge $-1 $422 0 $422 6.2831853071796004 $194 $423 forward 7 unknown #
vertex $-1 $197 $424 #
ellipse-curve $-1 -61.604426183886822 19.535885725110646 10.360591106856026 -0.81915205242281985 0 0.57357642473473569 0.57357642473473569 0 0.81915205242281985 1 I I #
face $-1 $-1 $313 $41 $-1 $425 reversed single #
loop $-1 $-1 $426 $198 #
plane-surface $-1 0 0 14.74731898840183 0 0 1 1 0 0 forward_v I I I I #
coedge $-1 $427 $428 $306 $429 forward $199 $-1 #
coedge $-1 $430 $201 $203 $311 forward $125 $-1 #
coedge $-1 $201 $430 $304 $429 reversed $125 $-1 #
coedge $-1 $431 $204 $201 $308 forward $313 $-1 #
edge $-1 $315 5.2668519540264178 $432 18.550743899088602 $307 $433 forward 7 unknown #
coedge $-1 $434 $426 $202 $310 forward $302 $-1 #
edge $-1 $435 27.980700669866948 $314 32.338021949720158 $309 $436 forward 7 unknown #
edge $-1 $315 -129.35209204382463 $435 -123.18990912274228 $203 $437 forward 7 unknown #
coedge $-1 $204 $431 $434 $438 reversed $313 $-1 #
loop $-1 $-1 $307 $301 #
vertex $-1 $438 $439 #
vertex $-1 $205 $440 #
straight-curve $-1 64.676046021912299 17.175649880583929 96.660740248573092 0 0 -1 I I #
coedge $-1 $317 $317 $-1 $441 reversed $208 $-1 #
edge $-1 $442 0 $442 6.2831853071796004 $209 $443 forward 7 unknown #
vertex $-1 $212 $444 #
ellipse-curve $-1 62.497385381985701 20.971047579173124 12.568658297919175 0.70710678939079041 0 0.70710677298230451 0.70710677298230451 0 -0.70710678939079041 1 I I #
coedge $-1 $321 $321 $-1 $445 reversed $215 $-1 #
edge $-1 $446 0 $446 6.2831853071796004 $216 $447 forward 7 unknown #
vertex $-1 $219 $448 #
ellipse-curve $-1 62.497385381985701 26.664144127056915 12.568658297919175 0.70710678939079041 0 0.70710677298230451 0.70710677298230451 0 -0.70710678939079041 1 I I #
face $-1 $-1 $235 $33 $-1 $449 reversed single #
loop $-1 $-1 $341 $220 #
plane-surface $-1 0 30.459541825646113 0 0 -1 0 0 0 -1 forward_v I I I I #
coedge $-1 $450 $339 $342 $451 forward $221 $-1 #
coedge $-1 $345 $223 $224 $333 reversed $139 $-1 #
coedge $-1 $339 $450 $223 $331 reversed $221 $-1 #
edge $-1 $346 -14.74731898840183 $452 14.74731898840183 $330 $453 forward 7 unknown #
coedge $-1 $225 $224 $450 $454 forward $89 $-1 #
edge $-1 $337 -64.676046021912299 $452 64.676046021912299 $329 $455 forward 7 unknown #
coedge $-1 $342 $341 $225 $335 reversed $326 $-1 #
edge $-1 $456 -64.676046021912299 $336 64.676046021912299 $334 $457 forward 7 unknown #
vertex $-1 $227 $458 #
vertex $-1 $348 $459 #
straight-curve $-1 64.676046021912299 0 -14.74731898840183 0 -1 0 I I #
coedge $-1 $328 $330 $228 $340 reversed $221 $-1 #
edge $-1 $343 -30.459541825646113 $346 30.459541825646113 $339 $460 forward 7 unknown #
coedge $-1 $334 $229 $234 $349 forward $326 $-1 #
coedge $-1 $229 $334 $328 $451 reversed $326 $-1 #
vertex $-1 $230 $461 #
straight-curve $-1 0 30.459541825646113 14.74731898840183 -1 0 0 I I #
coedge $-1 $231 $329 $233 $348 reversed $139 $-1 #
vertex $-1 $340 $462 #
straight-curve $-1 0 -30.459541825646113 14.74731898840183 1 0 0 I I #
edge $-1 $236 -14.74731898840183 $337 14.74731898840183 $233 $463 forward 7 unknown #
edge $-1 $237 -14.74731898840183 $336 14.74731898840183 $234 $464 forward 7 unknown #
point $-1 64.676046021912299 -30.459541825646113 14.74731898840183 #
point $-1 64.676046021912299 30.459541825646113 14.74731898840183 #
face $-1 $-1 $465 $34 $-1 $466 reversed single #
loop $-1 $-1 $249 $239 #
plane-surface $-1 0 -30.459541825646113 0 0 1 0 0 0 1 forward_v I I I I #
coedge $-1 $467 $242 $359 $468 forward $147 $-1 #
coedge $-1 $242 $467 $469 $470 forward $147 $-1 #
edge $-1 $471 -64.676046021912299 $360 64.676046021912299 $242 $472 forward 7 unknown #
coedge $-1 $244 $243 $473 $474 reversed $93 $-1 #
coedge $-1 $245 $251 $355 $468 reversed $240 $-1 #
vertex $-1 $468 $475 #
straight-curve $-1 64.676046021912299 -14.101940002006906 -6.58629119059486 0 0 1 I I #
coedge $-1 $473 $476 $247 $363 forward $465 $-1 #
edge $-1 $368 -19.31917136873286 $364 -2.961569545093651 $362 $477 forward 7 unknown #
vertex $-1 $363 $478 #
straight-curve $-1 0 -14.101940002006906 -11.59784577397761 -1 0 0 I I #
coedge $-1 $479 $249 $476 $480 forward $353 $-1 #
coedge $-1 $249 $479 $251 $370 reversed $353 $-1 #
vertex $-1 $480 $481 #
straight-curve $-1 0 -30.459541825646113 -11.59784577397761 -1 0 0 I I #
edge $-1 $253 11.59784577397761 $482 14.74731898840183 $251 $483 forward 7 unknown #
point $-1 64.676046021912299 -14.101940002006906 -11.59784577397761 #
point $-1 64.676046021912299 -30.459541825646113 -11.59784577397761 #
loop $-1 $-1 $263 $255 #
plane-surface $-1 -64.676046021912299 0 0 1 0 0 0 0 -1 forward_v I I I I #
coedge $-1 $376 $258 $260 $380 reversed $155 $-1 #
coedge $-1 $258 $375 $484 $485 reversed $155 $-1 #
coedge $-1 $266 $261 $258 $378 forward $256 $-1 #
edge $-1 $381 -26.784732506537033 $486 -20.641492830486072 $377 $487 forward 7 unknown #
coedge $-1 $260 $259 $384 $488 reversed $97 $-1 #
edge $-1 $489 2.4884734274515653e-014 $381 10.710411744855211 $375 $490 forward 7 unknown #
vertex $-1 $262 $491 #
straight-curve $-1 -58.532806345861346 -0.47647907571386838 14.74731898840183 0 1 0 I I #
coedge $-1 $484 $263 $266 $388 reversed $373 $-1 #
coedge $-1 $263 $484 $379 $488 forward $373 $-1 #
vertex $-1 $264 $492 #
straight-curve $-1 -64.676046021912299 -6.1453849015297042 40.083586855882785 0 0 1 I I #
straight-curve $-1 -64.676046021912313 -6.1453849015297042 5.9738632253102111 -0.57357642473473569 0 -0.81915205242281985 I I #
edge $-1 $486 -4.2394685986742306 $267 6.1453849015297042 $383 $493 forward 7 unknown #
point $-1 -64.676046021912299 -6.1453849015297042 14.74731898840183 #
point $-1 -58.532806345861339 -6.1453849015297042 14.74731898840183 #
edge $-1 $494 1 $494 0 $270 $-1 forward 7 unknown #
vertex $-1 $271 $495 #
ellipse-curve $-1 -60.074069055034151 -3.1782839014714384 9.2890235414224573 -0.81915205242281985 0 0.57357642473473569 0.57357642473473569 0 0.81915205242281985 1 I I #
point $-1 -61.030849759152083 -3.1782839014714384 11.179743159278839 #
edge $-1 $496 1 $496 0 $274 $-1 forward 7 unknown #
vertex $-1 $275 $497 #
ellipse-curve $-1 -60.074069055034151 1.2723675986159648 9.2890235414224573 -0.81915205242281985 0 0.57357642473473569 0.57357642473473569 0 0.81915205242281985 1 I I #
point $-1 -61.030849759152083 1.2723675986159648 11.179743159278839 #
loop $-1 $-1 $286 $278 #
plane-surface $-1 -64.676046021912299 0 0 1 0 0 0 0 -1 forward_v I I I I #
coedge $-1 $402 $281 $283 $406 reversed $177 $-1 #
coedge $-1 $281 $401 $498 $499 reversed $177 $-1 #
coedge $-1 $289 $284 $281 $404 forward $279 $-1 #
edge $-1 $407 -26.784732506537033 $500 -20.641492830486072 $403 $501 forward 7 unknown #
coedge $-1 $283 $282 $410 $502 reversed $111 $-1 #
edge $-1 $503 2.4884734274515653e-014 $407 10.710411744855211 $401 $504 forward 7 unknown #
vertex $-1 $285 $505 #
straight-curve $-1 -58.532806345861346 8.6552799875334721 14.74731898840183 0 1 0 I I #
coedge $-1 $498 $286 $289 $414 reversed $399 $-1 #
coedge $-1 $286 $498 $405 $502 forward $399 $-1 #
vertex $-1 $287 $506 #
straight-curve $-1 -64.676046021912299 12.118133224964977 40.083586855882785 0 0 1 I I #
straight-curve $-1 -64.676046021912313 12.118133224964977 5.9738632253102111 -0.57357642473473569 0 -0.81915205242281985 I I #
edge $-1 $500 -22.50298672516891 $290 -12.118133224964977 $409 $507 forward 7 unknown #
point $-1 -64.676046021912299 12.118133224964977 14.74731898840183 #
point $-1 -58.532806345861339 12.118133224964977 14.74731898840183 #
edge $-1 $508 1 $508 0 $293 $-1 forward 7 unknown #
vertex $-1 $294 $509 #
ellipse-curve $-1 -60.074069055034151 15.085234225023243 9.2890235414224573 -0.81915205242281985 0 0.57357642473473569 0.57357642473473569 0 0.81915205242281985 1 I I #
point $-1 -61.030849759152083 15.085234225023243 11.179743159278839 #
edge $-1 $510 1 $510 0 $297 $-1 forward 7 unknown #
vertex $-1 $298 $511 #
ellipse-curve $-1 -60.074069055034151 19.535885725110646 9.2890235414224573 -0.81915205242281985 0 0.57357642473473569 0.57357642473473569 0 0.81915205242281985 1 I I #
point $-1 -61.030849759152083 19.535885725110646 11.179743159278839 #
plane-surface $-1 64.676046021912299 0 0 -1 0 0 0 0 1 forward_v I I I I #
coedge $-1 $309 $512 $430 $513 forward $302 $-1 #
coedge $-1 $428 $304 $512 $514 reversed $199 $-1 #
coedge $-1 $304 $427 $431 $515 forward $199 $-1 #
edge $-1 $432 -83.869062192830796 $516 -77.706879271748448 $304 $517 forward 7 unknown #
coedge $-1 $306 $305 $426 $513 reversed $125 $-1 #
coedge $-1 $312 $307 $428 $515 reversed $313 $-1 #
vertex $-1 $308 $518 #
straight-curve $-1 64.676046021912299 11.908797926557511 10.389997607436534 0 1 0 I I #
coedge $-1 $512 $309 $312 $438 forward $302 $-1 #
vertex $-1 $310 $519 #
straight-curve $-1 32.338024072192141 17.175649880583929 14.74731898840183 1 0 0 I I #
straight-curve $-1 -26.789694361706538 17.175649880583929 101.85574011352735 -0.70710677298230451 0 0.70710678939079041 I I #
edge $-1 $314 17.175649880583929 $520 30.459541825646113 $312 $521 forward 7 unknown #
point $-1 64.676046021912299 17.175649880583929 14.74731898840183 #
point $-1 64.676046021912299 17.175649880583929 10.389997607436541 #
edge $-1 $522 1 $522 0 $317 $-1 forward 7 unknown #
vertex $-1 $318 $523 #
ellipse-curve $-1 60.620435181453388 20.971047579173124 10.69170814094168 0.70710678939079041 0 0.70710677298230451 0.70710677298230451 0 -0.70710678939079041 1 I I #
point $-1 63.204492154968023 20.971047579173124 11.861551508528395 #
edge $-1 $524 1 $524 0 $321 $-1 forward 7 unknown #
vertex $-1 $322 $525 #
ellipse-curve $-1 60.620435181453388 26.664144127056915 10.69170814094168 0.70710678939079041 0 0.70710677298230451 0.70710677298230451 0 -0.70710678939079041 1 I I #
point $-1 63.204492154968023 26.664144127056915 11.861551508528395 #
plane-surface $-1 64.676046021912299 0 0 -1 0 0 0 0 1 forward_v I I I I #
coedge $-1 $330 $328 $332 $454 reversed $221 $-1 #
edge $-1 $343 -14.74731898840183 $456 14.74731898840183 $342 $526 forward 7 unknown #
vertex $-1 $454 $527 #
straight-curve $-1 -64.676046021912299 -30.459541825646113 0 0 0 -1 I I #
edge $-1 $452 -30.459541825646113 $456 30.459541825646113 $450 $528 forward 7 unknown #
straight-curve $-1 0 -30.459541825646113 -14.74731898840183 -1 0 0 I I #
vertex $-1 $335 $529 #
straight-curve $-1 0 30.459541825646113 -14.74731898840183 1 0 0 I I #
point $-1 64.676046021912299 30.459541825646113 -14.74731898840183 #
point $-1 64.676046021912299 -30.459541825646113 -14.74731898840183 #
straight-curve $-1 -64.676046021912299 0 14.74731898840183 0 -1 0 I I #
point $-1 -64.676046021912299 30.459541825646113 14.74731898840183 #
point $-1 -64.676046021912299 -30.459541825646113 14.74731898840183 #
straight-curve $-1 64.676046021912299 -30.459541825646113 0 0 0 -1 I I #
straight-curve $-1 64.676046021912299 30.459541825646113 0 0 0 -1 I I #
loop $-1 $-1 $473 $352 #
plane-surface $-1 -64.676046021912299 0 0 1 0 0 0 0 -1 forward_v I I I I #
coedge $-1 $356 $355 $479 $530 forward $147 $-1 #
edge $-1 $360 14.101940002006906 $482 30.459541825646113 $359 $531 forward 7 unknown #
coedge $-1 $476 $473 $356 $470 reversed $465 $-1 #
edge $-1 $532 -30.459541825646113 $471 -14.101940002006906 $469 $533 forward 7 unknown #
vertex $-1 $474 $534 #
straight-curve $-1 0 -14.101940002006906 -14.74731898840183 1 0 0 I I #
coedge $-1 $469 $362 $358 $474 forward $465 $-1 #
edge $-1 $364 5.0115545833827504 $471 8.1610277978069696 $473 $535 forward 7 unknown #
point $-1 64.676046021912299 -14.101940002006906 -14.74731898840183 #
coedge $-1 $362 $469 $366 $480 reversed $465 $-1 #
straight-curve $-1 -64.676046021912299 -11.140370456913255 -11.59784577397761 0 1 0 I I #
point $-1 -64.676046021912299 -14.101940002006906 -11.59784577397761 #
coedge $-1 $367 $366 $467 $530 reversed $353 $-1 #
edge $-1 $368 11.59784577397761 $532 14.74731898840183 $476 $536 forward 7 unknown #
point $-1 -64.676046021912299 -30.459541825646113 -11.59784577397761 #
vertex $-1 $370 $537 #
straight-curve $-1 64.676046021912299 -30.459541825646113 0 0 0 -1 I I #
coedge $-1 $384 $383 $376 $485 forward $373 $-1 #
edge $-1 $486 25.336267867480956 $489 34.109723630572553 $484 $538 forward 7 unknown #
vertex $-1 $388 $539 #
straight-curve $-1 -85.317538852398371 4.2394685986742306 14.74731898840183 -1 0 0 I I #
edge $-1 $489 -4.715947674388099 $385 5.6689058258158358 $384 $540 forward 7 unknown #
vertex $-1 $488 $541 #
straight-curve $-1 -64.676046021912313 4.2394685986742306 5.9738632253102111 0.57357642473473569 0 0.81915205242281985 I I #
point $-1 -58.532806345861339 4.2394685986742306 14.74731898840183 #
point $-1 -64.676046021912299 -6.1453849015297042 5.9738632253102315 #
straight-curve $-1 -64.676046021912299 0 14.74731898840183 0 -1 0 I I #
vertex $-1 $391 $542 #
point $-1 -59.500492630299412 -3.1782839014714384 10.108175593845278 #
vertex $-1 $395 $543 #
point $-1 -59.500492630299412 1.2723675986159648 10.108175593845278 #
coedge $-1 $410 $409 $402 $499 forward $399 $-1 #
edge $-1 $500 25.336267867480956 $503 34.109723630572553 $498 $544 forward 7 unknown #
vertex $-1 $414 $545 #
straight-curve $-1 -85.317538852398371 22.50298672516891 14.74731898840183 -1 0 0 I I #
edge $-1 $503 -13.847706737635438 $411 -3.4628532374315046 $410 $546 forward 7 unknown #
vertex $-1 $502 $547 #
straight-curve $-1 -64.676046021912313 22.50298672516891 5.9738632253102111 0.57357642473473569 0 0.81915205242281985 I I #
point $-1 -58.532806345861339 22.50298672516891 14.74731898840183 #
point $-1 -64.676046021912299 12.118133224964977 5.9738632253102315 #
straight-curve $-1 -64.676046021912299 0 14.74731898840183 0 -1 0 I I #
vertex $-1 $417 $548 #
point $-1 -59.500492630299412 15.085234225023243 10.108175593845278 #
vertex $-1 $421 $549 #
point $-1 -59.500492630299412 19.535885725110646 10.108175593845278 #
coedge $-1 $426 $434 $427 $514 forward $302 $-1 #
edge $-1 $516 -18.550743899088605 $435 -5.2668519540264178 $426 $550 forward 7 unknown #
edge $-1 $520 -64.676046021912299 $516 -60.318724742059089 $427 $551 forward 7 unknown #
edge $-1 $520 -14.74731898840183 $432 -10.38999760743652 $431 $552 forward 7 unknown #
vertex $-1 $513 $553 #
straight-curve $-1 5.3716641016875215 30.459541825646113 69.694380903825632 -0.70710677298230462 0 0.70710678939079052 I I #
point $-1 64.676046021912299 30.459541825646113 10.38999760743652 #
point $-1 60.318724742059089 17.175649880583929 14.74731898840183 #
vertex $-1 $438 $554 #
straight-curve $-1 64.676046021912299 0 14.74731898840183 0 1 0 I I #
vertex $-1 $441 $555 #
point $-1 61.327541954435688 20.971047579173124 9.9846013515508893 #
vertex $-1 $445 $556 #
point $-1 61.327541954435688 26.664144127056915 9.9846013515508893 #
straight-curve $-1 -64.676046021912299 30.459541825646113 0 0 0 -1 I I #
point $-1 -64.676046021912299 -30.459541825646113 -14.74731898840183 #
straight-curve $-1 -64.676046021912299 0 -14.74731898840183 0 1 0 I I #
point $-1 -64.676046021912299 30.459541825646113 -14.74731898840183 #
edge $-1 $482 -64.676046021912299 $532 64.676046021912299 $479 $557 forward 7 unknown #
straight-curve $-1 64.676046021912299 0 -14.74731898840183 0 -1 0 I I #
vertex $-1 $470 $558 #
straight-curve $-1 -64.676046021912299 0 -14.74731898840183 0 1 0 I I #
point $-1 -64.676046021912299 -14.101940002006906 -14.74731898840183 #
straight-curve $-1 -64.676046021912299 -14.101940002006906 -6.58629119059486 0 0 -1 I I #
straight-curve $-1 -64.676046021912299 -30.459541825646113 0 0 0 -1 I I #
point $-1 64.676046021912299 -30.459541825646113 -14.74731898840183 #
straight-curve $-1 -64.676046021912299 4.2394685986742306 40.083586855882785 0 0 -1 I I #
point $-1 -64.676046021912299 4.2394685986742306 14.74731898840183 #
straight-curve $-1 -64.676046021912299 -0.47647907571386838 5.9738632253102208 0 -1 0 I I #
point $-1 -64.676046021912299 4.2394685986742306 5.9738632253102315 #
point $-1 -59.254917002611329 -3.1782839014714384 8.7154471166877219 #
point $-1 -59.254917002611329 1.2723675986159648 8.7154471166877219 #
straight-curve $-1 -64.676046021912299 22.50298672516891 40.083586855882785 0 0 -1 I I #
point $-1 -64.676046021912299 22.50298672516891 14.74731898840183 #
straight-curve $-1 -64.676046021912299 8.6552799875334721 5.9738632253102208 0 -1 0 I I #
point $-1 -64.676046021912299 22.50298672516891 5.9738632253102315 #
point $-1 -59.254917002611329 15.085234225023243 8.7154471166877219 #
point $-1 -59.254917002611329 19.535885725110646 8.7154471166877219 #
straight-curve $-1 60.318724742059082 11.908797926557511 14.74731898840183 0 -1 0 I I #
straight-curve $-1 0 30.459541825646113 14.74731898840183 -1 0 0 I I #
straight-curve $-1 64.676046021912299 30.459541825646113 0 0 0 -1 I I #
point $-1 60.318724742059089 30.459541825646117 14.74731898840183 #
point $-1 64.676046021912299 30.459541825646113 14.74731898840183 #
point $-1 59.913328392062596 20.971047579173124 9.9846013679593764 #
point $-1 59.913328392062596 26.664144127056915 9.9846013679593764 #
straight-curve $-1 0 -30.459541825646113 -14.74731898840183 -1 0 0 I I #
point $-1 -64.676046021912299 -30.459541825646113 -14.74731898840183 #
End-of-ACIS-data 