500 0 16 0           
7 Unknown 11 ACIS 5.0 NT 24 Thu Mar 25 16:06:39 1999 
-1 9.9999999999999995e-007 1e-010 
body $-1 $16 $-1 $17 #
body $-1 $18 $-1 $19 #
body $-1 $20 $-1 $21 #
body $-1 $22 $-1 $23 #
body $-1 $24 $-1 $25 #
body $-1 $26 $-1 $27 #
body $-1 $28 $-1 $29 #
body $-1 $30 $-1 $31 #
body $-1 $32 $-1 $33 #
body $-1 $34 $-1 $35 #
body $-1 $36 $-1 $37 #
body $-1 $38 $-1 $39 #
body $-1 $40 $-1 $41 #
body $-1 $42 $-1 $43 #
body $-1 $44 $-1 $45 #
body $-1 $46 $-1 $47 #
lump $-1 $-1 $48 $0 #
transform $-1 1 0 0 0 1 0 0 0 1 40.655537583544422 18.001245200265387 4.3633255982722812 1 rotate no_reflect no_shear #
lump $-1 $-1 $49 $1 #
transform $-1 1 0 0 0 1 0 0 0 1 40.655537583544422 18.001245200265387 4.3633255982722812 1 rotate no_reflect no_shear #
lump $-1 $-1 $50 $2 #
transform $-1 1 0 0 0 1 0 0 0 1 40.655537583544422 18.001245200265387 4.3633255982722812 1 rotate no_reflect no_shear #
lump $-1 $-1 $51 $3 #
transform $-1 1 0 0 0 1 0 0 0 1 40.655537583544422 18.001245200265387 4.3633255982722812 1 rotate no_reflect no_shear #
lump $-1 $-1 $52 $4 #
transform $-1 1 0 0 0 1 0 0 0 1 40.655537583544422 18.001245200265387 4.3633255982722812 1 rotate no_reflect no_shear #
lump $-1 $-1 $53 $5 #
transform $-1 1 0 0 0 1 0 0 0 1 40.655537583544422 18.001245200265387 4.3633255982722812 1 rotate no_reflect no_shear #
lump $-1 $-1 $54 $6 #
transform $-1 1 0 0 0 1 0 0 0 1 40.655537583544422 18.001245200265387 4.3633255982722812 1 rotate no_reflect no_shear #
lump $-1 $-1 $55 $7 #
transform $-1 1 0 0 0 1 0 0 0 1 40.655537583544422 18.001245200265387 4.3633255982722812 1 rotate no_reflect no_shear #
lump $-1 $-1 $56 $8 #
transform $-1 1 0 0 0 1 0 0 0 1 40.655537583544422 18.001245200265387 4.3633255982722812 1 rotate no_reflect no_shear #
lump $-1 $-1 $57 $9 #
transform $-1 1 0 0 0 1 0 0 0 1 40.655537583544422 18.001245200265387 4.3633255982722812 1 rotate no_reflect no_shear #
lump $-1 $-1 $58 $10 #
transform $-1 1 0 0 0 1 0 0 0 1 40.655537583544422 18.001245200265387 4.3633255982722812 1 rotate no_reflect no_shear #
lump $-1 $-1 $59 $11 #
transform $-1 1 0 0 0 1 0 0 0 1 40.655537583544422 18.001245200265387 4.3633255982722812 1 rotate no_reflect no_shear #
lump $-1 $-1 $60 $12 #
transform $-1 1 0 0 0 1 0 0 0 1 40.655537583544422 18.001245200265387 4.3633255982722812 1 rotate no_reflect no_shear #
lump $-1 $-1 $61 $13 #
transform $-1 1 0 0 0 1 0 0 0 1 40.655537583544422 18.001245200265387 4.3633255982722812 1 rotate no_reflect no_shear #
lump $-1 $-1 $62 $14 #
transform $-1 1 0 0 0 1 0 0 0 1 40.655537583544422 18.001245200265387 4.3633255982722812 1 rotate no_reflect no_shear #
lump $-1 $-1 $63 $15 #
transform $-1 1 0 0 0 1 0 0 0 1 40.655537583544422 18.001245200265387 4.3633255982722812 1 rotate no_reflect no_shear #
shell $-1 $-1 $-1 $64 $-1 $16 #
shell $-1 $-1 $-1 $65 $-1 $18 #
shell $-1 $-1 $-1 $66 $-1 $20 #
shell $-1 $-1 $-1 $67 $-1 $22 #
shell $-1 $-1 $-1 $68 $-1 $24 #
shell $-1 $-1 $-1 $69 $-1 $26 #
shell $-1 $-1 $-1 $70 $-1 $28 #
shell $-1 $-1 $-1 $71 $-1 $30 #
shell $-1 $-1 $-1 $72 $-1 $32 #
shell $-1 $-1 $-1 $73 $-1 $34 #
shell $-1 $-1 $-1 $74 $-1 $36 #
shell $-1 $-1 $-1 $75 $-1 $38 #
shell $-1 $-1 $-1 $76 $-1 $40 #
shell $-1 $-1 $-1 $77 $-1 $42 #
shell $-1 $-1 $-1 $78 $-1 $44 #
shell $-1 $-1 $-1 $79 $-1 $46 #
face $-1 $80 $81 $48 $-1 $82 forward single #
face $-1 $83 $84 $49 $-1 $85 reversed single #
face $-1 $86 $87 $50 $-1 $88 reversed single #
face $-1 $89 $90 $51 $-1 $91 forward single #
face $-1 $92 $93 $52 $-1 $94 reversed single #
face $-1 $95 $96 $53 $-1 $97 forward single #
face $-1 $98 $99 $54 $-1 $100 reversed single #
face $-1 $101 $102 $55 $-1 $103 forward single #
face $-1 $104 $105 $56 $-1 $106 reversed single #
face $-1 $107 $108 $57 $-1 $109 forward single #
face $-1 $110 $111 $58 $-1 $112 forward single #
face $-1 $113 $114 $59 $-1 $115 forward single #
face $-1 $116 $117 $60 $-1 $118 reversed single #
face $-1 $119 $120 $61 $-1 $121 forward single #
face $-1 $122 $123 $62 $-1 $124 forward single #
face $-1 $125 $126 $63 $-1 $127 forward single #
face $-1 $128 $129 $48 $-1 $130 reversed single #
loop $-1 $-1 $131 $64 #
plane-surface $-1 0 0 4.3633255982722812 0 0 1 1 0 0 forward_v I I I I #
face $-1 $132 $133 $49 $-1 $134 reversed single #
loop $-1 $-1 $135 $65 #
plane-surface $-1 0 -15.926319889045477 1.3633255982722812 0 0 1 1 0 0 forward_v I I I I #
face $-1 $136 $137 $50 $-1 $138 reversed single #
loop $-1 $-1 $139 $66 #
plane-surface $-1 -40.655537583544415 -10.54427035911192 0.64178281055176711 -0.75470958851134928 0 0.65605901945558964 0.65605901945558964 0 0.75470958851134928 forward_v I I I I #
face $-1 $140 $141 $51 $-1 $142 forward single #
loop $-1 $143 $144 $67 #
cone-surface $-1 -37.996643288553408 -10.54427035911192 1.5973220993176898 0.75470958851134928 0 -0.65605901945558964 0.65605901945558964 0 0.75470958851134928 1 I I 0 1 1 forward I I I I #
face $-1 $145 $146 $52 $-1 $147 reversed single #
loop $-1 $-1 $148 $68 #
plane-surface $-1 -102.02178566431343 -1.2321989074937361 53.986647055551821 0 1 0 -0.75470958851134928 0 0.65605901945558964 forward_v I I I I #
face $-1 $149 $150 $53 $-1 $151 forward single #
loop $-1 $152 $153 $69 #
cone-surface $-1 -37.996643288553408 2.0749253112199106 1.5973220993176898 0.75470958851134928 0 -0.65605901945558964 0.65605901945558964 0 0.75470958851134928 1 I I 0 1 1 forward I I I I #
face $-1 $154 $155 $54 $-1 $156 reversed single #
loop $-1 $-1 $157 $70 #
plane-surface $-1 -102.02178566431343 11.386996762838095 53.986647055551821 0 1 0 -0.75470958851134928 0 0.65605901945558964 forward_v I I I I #
face $-1 $158 $159 $55 $-1 $160 forward single #
loop $-1 $161 $162 $71 #
cone-surface $-1 -37.996643288553408 14.694120981551741 1.5973220993176898 0.75470958851134928 0 -0.65605901945558964 0.65605901945558964 0 0.75470958851134928 1 I I 0 1 1 forward I I I I #
face $-1 $163 $164 $56 $-1 $165 reversed single #
loop $-1 $-1 $166 $72 #
plane-surface $-1 20.687521889238134 -4.374409627502029 114.39263592276515 0 -1 0 -0.57357644374324357 0 -0.81915203911291934 forward_v I I I I #
face $-1 $167 $168 $57 $-1 $169 forward single #
loop $-1 $170 $171 $73 #
cone-surface $-1 37.953290290146903 -9.1898431429812923 2.1752531064138596 -0.57357644374324357 0 -0.81915203911291934 0.40957601955645967 0 -0.28678822187162178 1 I I 0 1 0.5 forward I I I I #
face $-1 $172 $173 $58 $-1 $174 forward single #
loop $-1 $175 $176 $74 #
cone-surface $-1 37.953290290146903 -7.3840555746765677 2.1752531064138596 -0.57357644374324357 0 -0.81915203911291934 0.40957601955645967 0 -0.28678822187162178 1 I I 0 1 0.5 forward I I I I #
face $-1 $177 $178 $59 $-1 $179 forward single #
loop $-1 $180 $181 $75 #
cone-surface $-1 37.953290290146903 -5.5782680063718431 2.1752531064138596 -0.57357644374324357 0 -0.81915203911291934 0.40957601955645967 0 -0.28678822187162178 1 I I 0 1 0.5 forward I I I I #
face $-1 $182 $183 $60 $-1 $184 reversed single #
loop $-1 $-1 $185 $76 #
plane-surface $-1 20.687521889238134 11.551910261543448 114.39263592276515 0 -1 0 -0.57357644374324357 0 -0.81915203911291934 forward_v I I I I #
face $-1 $186 $187 $61 $-1 $188 forward single #
loop $-1 $189 $190 $77 #
cone-surface $-1 37.953290290146903 6.7364767460641843 2.1752531064138596 -0.57357644374324357 0 -0.81915203911291934 0.40957601955645967 0 -0.28678822187162178 1 I I 0 1 0.5 forward I I I I #
face $-1 $191 $192 $62 $-1 $193 forward single #
loop $-1 $194 $195 $78 #
cone-surface $-1 37.953290290146903 8.5422643143689072 2.1752531064138596 -0.57357644374324357 0 -0.81915203911291934 0.40957601955645967 0 -0.28678822187162178 1 I I 0 1 0.5 forward I I I I #
face $-1 $196 $197 $63 $-1 $198 forward single #
loop $-1 $199 $200 $79 #
cone-surface $-1 37.953290290146903 10.348051882673634 2.1752531064138596 -0.57357644374324357 0 -0.81915203911291934 0.40957601955645967 0 -0.28678822187162178 1 I I 0 1 0.5 forward I I I I #
face $-1 $201 $202 $48 $-1 $203 reversed single #
loop $-1 $-1 $204 $80 #
plane-surface $-1 0 0 -4.3633255982722812 0 0 1 1 0 0 forward_v I I I I #
coedge $-1 $205 $206 $207 $208 forward $81 $-1 #
face $-1 $209 $210 $49 $-1 $211 reversed single #
loop $-1 $-1 $212 $83 #
plane-surface $-1 0 -13.851394577825566 2.8633255982722812 0 -1 0 0 0 -1 forward_v I I I I #
coedge $-1 $213 $214 $215 $216 reversed $84 $-1 #
face $-1 $217 $218 $50 $-1 $219 forward single #
loop $-1 $-1 $220 $86 #
plane-surface $-1 -102.02178566431343 -7.2371461403982735 53.986647055551821 0 -1 0 0.75470958851134928 0 -0.65605901945558964 forward_v I I I I #
coedge $-1 $221 $222 $223 $224 reversed $87 $-1 #
face $-1 $-1 $225 $51 $-1 $226 forward single #
loop $-1 $227 $228 $89 #
cone-surface $-1 -36.577938052823839 -10.54427035911192 0.36406048449555861 0.75470958851134928 0 -0.65605901945558964 0.32802950972779482 0 0.37735479425567464 1 I I -0.70710678118654746 0.70710678118654746 0.5 forward I I I I #
loop $-1 $-1 $229 $67 #
coedge $-1 $144 $144 $230 $231 reversed $90 $-1 #
face $-1 $232 $233 $52 $-1 $234 reversed single #
loop $-1 $-1 $235 $92 #
plane-surface $-1 -40.655537583544415 2.0749253112199106 0.64178281055176711 -0.75470958851134928 0 0.65605901945558964 0.65605901945558964 0 0.75470958851134928 forward_v I I I I #
coedge $-1 $236 $237 $238 $239 reversed $93 $-1 #
face $-1 $-1 $240 $53 $-1 $241 forward single #
loop $-1 $242 $243 $95 #
cone-surface $-1 -36.577938052823839 2.0749253112199106 0.36406048449555861 0.75470958851134928 0 -0.65605901945558964 0.32802950972779482 0 0.37735479425567464 1 I I -0.70710678118654746 0.70710678118654746 0.5 forward I I I I #
loop $-1 $-1 $244 $69 #
coedge $-1 $153 $153 $245 $246 reversed $96 $-1 #
face $-1 $247 $248 $54 $-1 $249 forward single #
loop $-1 $-1 $250 $98 #
plane-surface $-1 -40.655537583544415 14.694120981551741 0.64178281055176711 -0.75470958851134928 0 0.65605901945558964 0.65605901945558964 0 0.75470958851134928 forward_v I I I I #
coedge $-1 $251 $252 $253 $254 reversed $99 $-1 #
face $-1 $-1 $255 $55 $-1 $256 forward single #
loop $-1 $257 $258 $101 #
cone-surface $-1 -36.577938052823839 14.694120981551741 0.36406048449555861 0.75470958851134928 0 -0.65605901945558964 0.32802950972779482 0 0.37735479425567464 1 I I -0.70710678118654746 0.70710678118654746 0.5 forward I I I I #
loop $-1 $-1 $259 $71 #
coedge $-1 $162 $162 $260 $261 reversed $102 $-1 #
face $-1 $262 $263 $56 $-1 $264 reversed single #
loop $-1 $-1 $265 $104 #
plane-surface $-1 -25.950595442040253 -7.3840555746765695 47.786502897180469 0.57357644374324357 0 0.81915203911291934 0.81915203911291934 0 -0.57357644374324357 forward_v I I I I #
coedge $-1 $266 $267 $268 $269 reversed $105 $-1 #
face $-1 $-1 $270 $57 $-1 $271 forward single #
loop $-1 $272 $273 $107 #
cone-surface $-1 37.403353941233071 -9.1898431429812923 1.3898626209623064 -0.57357644374324357 0 -0.81915203911291934 0.20478800977822983 0 -0.14339411093581089 1 I I -0.70710678118654779 0.70710678118654713 0.25 forward I I I I #
loop $-1 $-1 $274 $73 #
coedge $-1 $171 $171 $275 $276 reversed $108 $-1 #
face $-1 $-1 $277 $58 $-1 $278 forward single #
loop $-1 $279 $280 $110 #
cone-surface $-1 37.403353941233071 -7.3840555746765677 1.3898626209623064 -0.57357644374324357 0 -0.81915203911291934 0.20478800977822983 0 -0.14339411093581089 1 I I -0.70710678118654779 0.70710678118654713 0.25 forward I I I I #
loop $-1 $-1 $281 $74 #
coedge $-1 $176 $176 $282 $283 reversed $111 $-1 #
face $-1 $-1 $284 $59 $-1 $285 forward single #
loop $-1 $286 $287 $113 #
cone-surface $-1 37.403353941233071 -5.5782680063718431 1.3898626209623064 -0.57357644374324357 0 -0.81915203911291934 0.20478800977822983 0 -0.14339411093581089 1 I I -0.70710678118654779 0.70710678118654713 0.25 forward I I I I #
loop $-1 $-1 $288 $75 #
coedge $-1 $181 $181 $289 $290 reversed $114 $-1 #
face $-1 $291 $292 $60 $-1 $293 reversed single #
loop $-1 $-1 $294 $116 #
plane-surface $-1 -25.950595442040253 8.5422643143689072 47.786502897180469 0.57357644374324357 0 0.81915203911291934 0.81915203911291934 0 -0.57357644374324357 forward_v I I I I #
coedge $-1 $295 $296 $297 $298 reversed $117 $-1 #
face $-1 $-1 $299 $61 $-1 $300 forward single #
loop $-1 $301 $302 $119 #
cone-surface $-1 37.403353941233071 6.7364767460641843 1.3898626209623064 -0.57357644374324357 0 -0.81915203911291934 0.20478800977822983 0 -0.14339411093581089 1 I I -0.70710678118654779 0.70710678118654713 0.25 forward I I I I #
loop $-1 $-1 $303 $77 #
coedge $-1 $190 $190 $304 $305 reversed $120 $-1 #
face $-1 $-1 $306 $62 $-1 $307 forward single #
loop $-1 $308 $309 $122 #
cone-surface $-1 37.403353941233071 8.5422643143689072 1.3898626209623064 -0.57357644374324357 0 -0.81915203911291934 0.20478800977822983 0 -0.14339411093581089 1 I I -0.70710678118654779 0.70710678118654713 0.25 forward I I I I #
loop $-1 $-1 $310 $78 #
coedge $-1 $195 $195 $311 $312 reversed $123 $-1 #
face $-1 $-1 $313 $63 $-1 $314 forward single #
loop $-1 $315 $316 $125 #
cone-surface $-1 37.403353941233071 10.348051882673634 1.3898626209623064 -0.57357644374324357 0 -0.81915203911291934 0.20478800977822983 0 -0.14339411093581089 1 I I -0.70710678118654779 0.70710678118654713 0.25 forward I I I I #
loop $-1 $-1 $317 $79 #
coedge $-1 $200 $200 $318 $319 reversed $126 $-1 #
face $-1 $320 $321 $48 $-1 $322 reversed single #
loop $-1 $-1 $323 $128 #
plane-surface $-1 0 -18.001245200265387 0 0 1 0 0 0 1 forward_v I I I I #
coedge $-1 $324 $325 $326 $327 forward $129 $-1 #
coedge $-1 $328 $131 $329 $330 forward $81 $-1 #
coedge $-1 $131 $328 $331 $332 forward $81 $-1 #
coedge $-1 $333 $334 $131 $208 reversed $335 $-1 #
edge $-1 $336 -18.001245200265387 $337 18.001245200265387 $207 $338 forward 7 unknown #
face $-1 $339 $340 $49 $-1 $341 reversed single #
loop $-1 $-1 $342 $132 #
plane-surface $-1 -40.655537583544422 0 0 1 0 0 0 0 -1 forward_v I I I I #
coedge $-1 $343 $344 $345 $346 reversed $133 $-1 #
coedge $-1 $347 $135 $348 $349 reversed $84 $-1 #
coedge $-1 $135 $347 $350 $351 forward $84 $-1 #
coedge $-1 $352 $353 $135 $216 forward $354 $-1 #
edge $-1 $355 -10.038085255742649 $356 -5.8882346333028277 $215 $357 forward 7 unknown #
face $-1 $358 $359 $50 $-1 $360 reversed single #
loop $-1 $-1 $223 $136 #
plane-surface $-1 0 0 4.3633255982722812 0 0 1 1 0 0 forward_v I I I I #
coedge $-1 $361 $362 $363 $364 reversed $137 $-1 #
coedge $-1 $365 $139 $366 $367 reversed $87 $-1 #
coedge $-1 $139 $365 $361 $368 forward $87 $-1 #
coedge $-1 $363 $369 $139 $224 forward $218 $-1 #
edge $-1 $370 -8.5792593982696062 $371 -1.9650109608423136 $223 $372 forward 7 unknown #
loop $-1 $-1 $230 $140 #
plane-surface $-1 -40.655537583544415 -10.54427035911192 0.64178281055176711 -0.75470958851134928 0 0.65605901945558964 0.65605901945558964 0 0.75470958851134928 forward_v I I I I #
loop $-1 $-1 $373 $89 #
coedge $-1 $228 $228 $229 $374 reversed $141 $-1 #
coedge $-1 $229 $229 $228 $374 forward $143 $-1 #
coedge $-1 $230 $230 $144 $231 forward $225 $-1 #
edge $-1 $375 0 $375 6.2831853071796004 $230 $376 forward 7 unknown #
face $-1 $377 $378 $52 $-1 $379 forward single #
loop $-1 $-1 $380 $145 #
plane-surface $-1 -102.02178566431343 5.3820495299335569 53.986647055551821 0 -1 0 0.75470958851134928 0 -0.65605901945558964 forward_v I I I I #
coedge $-1 $381 $382 $383 $384 reversed $146 $-1 #
coedge $-1 $237 $148 $385 $386 reversed $93 $-1 #
coedge $-1 $148 $236 $381 $387 reversed $93 $-1 #
coedge $-1 $383 $388 $148 $239 forward $378 $-1 #
edge $-1 $389 10.355355248612291 $390 13.590442955646544 $238 $391 forward 7 unknown #
loop $-1 $-1 $245 $149 #
plane-surface $-1 -40.655537583544415 2.0749253112199106 0.64178281055176711 -0.75470958851134928 0 0.65605901945558964 0.65605901945558964 0 0.75470958851134928 forward_v I I I I #
loop $-1 $-1 $392 $95 #
coedge $-1 $243 $243 $244 $393 reversed $150 $-1 #
coedge $-1 $244 $244 $243 $393 forward $152 $-1 #
coedge $-1 $245 $245 $153 $246 forward $240 $-1 #
edge $-1 $394 0 $394 6.2831853071796004 $245 $395 forward 7 unknown #
face $-1 $396 $397 $54 $-1 $398 reversed single #
loop $-1 $-1 $253 $154 #
plane-surface $-1 0 0 4.3633255982722812 0 0 1 1 0 0 forward_v I I I I #
coedge $-1 $399 $400 $401 $402 reversed $155 $-1 #
coedge $-1 $252 $157 $403 $404 reversed $99 $-1 #
coedge $-1 $157 $251 $399 $405 reversed $99 $-1 #
coedge $-1 $401 $406 $157 $254 forward $248 $-1 #
edge $-1 $407 10.355355248612291 $408 13.590442955646544 $253 $409 forward 7 unknown #
loop $-1 $-1 $260 $158 #
plane-surface $-1 -40.655537583544415 14.694120981551741 0.64178281055176711 -0.75470958851134928 0 0.65605901945558964 0.65605901945558964 0 0.75470958851134928 forward_v I I I I #
loop $-1 $-1 $410 $101 #
coedge $-1 $258 $258 $259 $411 reversed $159 $-1 #
coedge $-1 $259 $259 $258 $411 forward $161 $-1 #
coedge $-1 $260 $260 $162 $261 forward $255 $-1 #
edge $-1 $412 0 $412 6.2831853071796004 $260 $413 forward 7 unknown #
face $-1 $414 $415 $56 $-1 $416 reversed single #
loop $-1 $-1 $417 $163 #
plane-surface $-1 20.687521889238134 -10.39370152185111 114.39263592276515 0 1 0 0.57357644374324357 0 0.81915203911291934 forward_v I I I I #
coedge $-1 $418 $419 $420 $421 reversed $164 $-1 #
coedge $-1 $267 $166 $422 $423 reversed $105 $-1 #
coedge $-1 $166 $266 $418 $424 reversed $105 $-1 #
coedge $-1 $420 $425 $166 $269 forward $426 $-1 #
edge $-1 $427 -30.311776638925355 $428 -25.72036652808637 $268 $429 forward 7 unknown #
loop $-1 $-1 $275 $167 #
plane-surface $-1 -25.950595442040253 -7.3840555746765695 47.786502897180469 0.57357644374324357 0 0.81915203911291934 0.81915203911291934 0 -0.57357644374324357 forward_v I I I I #
loop $-1 $-1 $430 $107 #
coedge $-1 $273 $273 $274 $431 reversed $168 $-1 #
coedge $-1 $274 $274 $273 $431 forward $170 $-1 #
coedge $-1 $275 $275 $171 $276 forward $270 $-1 #
edge $-1 $432 0 $432 6.2831853071796004 $275 $433 forward 7 unknown #
loop $-1 $-1 $282 $172 #
plane-surface $-1 -25.950595442040253 -7.3840555746765695 47.786502897180469 0.57357644374324357 0 0.81915203911291934 0.81915203911291934 0 -0.57357644374324357 forward_v I I I I #
loop $-1 $-1 $434 $110 #
coedge $-1 $280 $280 $281 $435 reversed $173 $-1 #
coedge $-1 $281 $281 $280 $435 forward $175 $-1 #
coedge $-1 $282 $282 $176 $283 forward $277 $-1 #
edge $-1 $436 0 $436 6.2831853071796004 $282 $437 forward 7 unknown #
loop $-1 $-1 $289 $177 #
plane-surface $-1 -25.950595442040253 -7.3840555746765695 47.786502897180469 0.57357644374324357 0 0.81915203911291934 0.81915203911291934 0 -0.57357644374324357 forward_v I I I I #
loop $-1 $-1 $438 $113 #
coedge $-1 $287 $287 $288 $439 reversed $178 $-1 #
coedge $-1 $288 $288 $287 $439 forward $180 $-1 #
coedge $-1 $289 $289 $181 $290 forward $284 $-1 #
edge $-1 $440 0 $440 6.2831853071796004 $289 $441 forward 7 unknown #
face $-1 $442 $443 $60 $-1 $444 reversed single #
loop $-1 $-1 $445 $182 #
plane-surface $-1 20.687521889238134 5.5326183671943667 114.39263592276515 0 1 0 0.57357644374324357 0 0.81915203911291934 forward_v I I I I #
coedge $-1 $446 $447 $448 $449 reversed $183 $-1 #
coedge $-1 $296 $185 $450 $451 reversed $117 $-1 #
coedge $-1 $185 $295 $446 $452 reversed $117 $-1 #
coedge $-1 $448 $453 $185 $298 forward $454 $-1 #
edge $-1 $455 -30.311776638925355 $456 -25.72036652808637 $297 $457 forward 7 unknown #
loop $-1 $-1 $304 $186 #
plane-surface $-1 -25.950595442040253 8.5422643143689072 47.786502897180469 0.57357644374324357 0 0.81915203911291934 0.81915203911291934 0 -0.57357644374324357 forward_v I I I I #
loop $-1 $-1 $458 $119 #
coedge $-1 $302 $302 $303 $459 reversed $187 $-1 #
coedge $-1 $303 $303 $302 $459 forward $189 $-1 #
coedge $-1 $304 $304 $190 $305 forward $299 $-1 #
edge $-1 $460 0 $460 6.2831853071796004 $304 $461 forward 7 unknown #
loop $-1 $-1 $311 $191 #
plane-surface $-1 -25.950595442040253 8.5422643143689072 47.786502897180469 0.57357644374324357 0 0.81915203911291934 0.81915203911291934 0 -0.57357644374324357 forward_v I I I I #
loop $-1 $-1 $462 $122 #
coedge $-1 $309 $309 $310 $463 reversed $192 $-1 #
coedge $-1 $310 $310 $309 $463 forward $194 $-1 #
coedge $-1 $311 $311 $195 $312 forward $306 $-1 #
edge $-1 $464 0 $464 6.2831853071796004 $311 $465 forward 7 unknown #
loop $-1 $-1 $318 $196 #
plane-surface $-1 -25.950595442040253 8.5422643143689072 47.786502897180469 0.57357644374324357 0 0.81915203911291934 0.81915203911291934 0 -0.57357644374324357 forward_v I I I I #
loop $-1 $-1 $466 $125 #
coedge $-1 $316 $316 $317 $467 reversed $197 $-1 #
coedge $-1 $317 $317 $316 $467 forward $199 $-1 #
coedge $-1 $318 $318 $200 $319 forward $313 $-1 #
edge $-1 $468 0 $468 6.2831853071796004 $318 $469 forward 7 unknown #
face $-1 $470 $471 $48 $-1 $472 reversed single #
loop $-1 $-1 $473 $201 #
plane-surface $-1 -40.655537583544422 0 0 1 0 0 0 0 -1 forward_v I I I I #
coedge $-1 $474 $331 $475 $476 forward $202 $-1 #
coedge $-1 $477 $204 $474 $478 forward $129 $-1 #
coedge $-1 $204 $477 $479 $480 forward $129 $-1 #
coedge $-1 $334 $333 $204 $327 reversed $335 $-1 #
edge $-1 $481 -18.001245200265387 $482 18.001245200265387 $326 $483 forward 7 unknown #
coedge $-1 $206 $205 $484 $485 forward $81 $-1 #
coedge $-1 $486 $487 $205 $330 reversed $471 $-1 #
edge $-1 $337 -40.655537583544422 $488 40.655537583544422 $329 $489 forward 7 unknown #
coedge $-1 $323 $490 $206 $332 reversed $202 $-1 #
edge $-1 $491 -40.655537583544422 $336 40.655537583544422 $331 $492 forward 7 unknown #
coedge $-1 $326 $207 $490 $493 forward $335 $-1 #
coedge $-1 $207 $326 $486 $494 reversed $335 $-1 #
loop $-1 $-1 $333 $470 #
vertex $-1 $208 $495 #
vertex $-1 $208 $496 #
straight-curve $-1 40.655537583544422 0 4.3633255982722812 0 1 0 I I #
face $-1 $497 $498 $49 $-1 $499 forward single #
loop $-1 $-1 $348 $209 #
plane-surface $-1 0 -18.001245200265387 0 0 1 0 0 0 1 forward_v I I I I #
coedge $-1 $500 $501 $344 $502 forward $210 $-1 #
coedge $-1 $350 $212 $352 $503 reversed $133 $-1 #
coedge $-1 $212 $350 $342 $502 reversed $133 $-1 #
coedge $-1 $504 $505 $212 $346 forward $498 $-1 #
edge $-1 $506 -40.655537583544422 $507 40.655537583544422 $345 $508 forward 7 unknown #
coedge $-1 $214 $213 $500 $509 reversed $84 $-1 #
coedge $-1 $510 $511 $213 $349 forward $340 $-1 #
edge $-1 $512 -40.655537583544422 $355 40.655537583544422 $348 $513 forward 7 unknown #
coedge $-1 $344 $343 $214 $351 reversed $133 $-1 #
edge $-1 $514 -40.655537583544422 $356 40.655537583544422 $350 $515 forward 7 unknown #
coedge $-1 $516 $215 $343 $503 forward $354 $-1 #
coedge $-1 $215 $516 $510 $517 forward $354 $-1 #
loop $-1 $-1 $352 $497 #
vertex $-1 $349 $518 #
vertex $-1 $216 $519 #
straight-curve $-1 40.655537583544422 -7.9631599445227383 1.3633255982722812 0 1 0 I I #
face $-1 $-1 $520 $50 $-1 $521 forward single #
loop $-1 $-1 $522 $217 #
plane-surface $-1 -40.655537583544422 0 0 1 0 0 0 0 -1 forward_v I I I I #
coedge $-1 $362 $220 $222 $368 reversed $137 $-1 #
coedge $-1 $220 $361 $522 $523 reversed $137 $-1 #
coedge $-1 $524 $223 $220 $364 forward $218 $-1 #
edge $-1 $371 -13.590442955646544 $525 -10.355355248612291 $363 $526 forward 7 unknown #
coedge $-1 $222 $221 $527 $528 reversed $87 $-1 #
coedge $-1 $529 $530 $221 $367 forward $520 $-1 #
edge $-1 $531 -14.174525882840479 $370 -9.243433387962817 $366 $532 forward 7 unknown #
edge $-1 $533 -1.086200982436365e-014 $371 4.9310924948776504 $361 $534 forward 7 unknown #
coedge $-1 $223 $524 $529 $535 forward $218 $-1 #
vertex $-1 $367 $536 #
vertex $-1 $224 $537 #
straight-curve $-1 -37.420449876510162 -5.2721351795559599 4.3633255982722812 0 1 0 I I #
coedge $-1 $373 $373 $-1 $538 reversed $227 $-1 #
edge $-1 $539 0 $539 6.2831853071796004 $228 $540 forward 7 unknown #
vertex $-1 $231 $541 #
ellipse-curve $-1 -39.037993730027296 -10.54427035911192 2.5025542044120193 -0.75470958851134928 0 0.65605901945558964 0.65605901945558964 0 0.75470958851134928 1 I I #
face $-1 $-1 $542 $52 $-1 $543 reversed single #
loop $-1 $-1 $238 $232 #
plane-surface $-1 0 0 4.3633255982722812 0 0 1 1 0 0 forward_v I I I I #
coedge $-1 $544 $545 $546 $547 reversed $233 $-1 #
coedge $-1 $548 $235 $237 $387 forward $146 $-1 #
coedge $-1 $235 $548 $544 $549 forward $146 $-1 #
coedge $-1 $546 $238 $235 $384 forward $378 $-1 #
edge $-1 $390 -2.2696615631036914 $550 4.3445868743236016 $383 $551 forward 7 unknown #
coedge $-1 $552 $553 $236 $386 forward $542 $-1 #
edge $-1 $554 -26.35154071722415 $389 -22.629997929503631 $385 $555 forward 7 unknown #
edge $-1 $390 -4.9310924948776504 $554 1.086200982436365e-014 $237 $556 forward 7 unknown #
coedge $-1 $238 $546 $552 $557 forward $378 $-1 #
vertex $-1 $239 $558 #
vertex $-1 $239 $559 #
straight-curve $-1 -51.010892832156713 -1.2321989074937361 4.3633255982722794 1 0 0 I I #
coedge $-1 $392 $392 $-1 $560 reversed $242 $-1 #
edge $-1 $561 0 $561 6.2831853071796004 $243 $562 forward 7 unknown #
vertex $-1 $246 $563 #
ellipse-curve $-1 -39.037993730027296 2.0749253112199106 2.5025542044120193 -0.75470958851134928 0 0.65605901945558964 0.65605901945558964 0 0.75470958851134928 1 I I #
face $-1 $-1 $564 $54 $-1 $565 reversed single #
loop $-1 $-1 $566 $247 #
plane-surface $-1 0 18.001245200265387 0 0 -1 0 0 0 -1 forward_v I I I I #
coedge $-1 $567 $250 $252 $405 forward $155 $-1 #
coedge $-1 $250 $567 $566 $568 reversed $155 $-1 #
coedge $-1 $569 $253 $250 $402 forward $248 $-1 #
edge $-1 $408 4.0399362720622243 $570 10.654184709489517 $401 $571 forward 7 unknown #
coedge $-1 $572 $573 $251 $404 forward $564 $-1 #
edge $-1 $574 -26.35154071722415 $407 -22.629997929503631 $403 $575 forward 7 unknown #
edge $-1 $408 -4.9310924948776504 $574 1.086200982436365e-014 $252 $576 forward 7 unknown #
coedge $-1 $253 $569 $572 $577 forward $248 $-1 #
vertex $-1 $404 $578 #
vertex $-1 $254 $579 #
straight-curve $-1 -51.010892832156713 11.386996762838095 4.3633255982722794 1 0 0 I I #
coedge $-1 $410 $410 $-1 $580 reversed $257 $-1 #
edge $-1 $581 0 $581 6.2831853071796004 $258 $582 forward 7 unknown #
vertex $-1 $261 $583 #
ellipse-curve $-1 -39.037993730027296 14.694120981551741 2.5025542044120193 -0.75470958851134928 0 0.65605901945558964 0.65605901945558964 0 0.75470958851134928 1 I I #
face $-1 $-1 $426 $56 $-1 $584 forward single #
loop $-1 $-1 $585 $262 #
plane-surface $-1 40.655537583544422 0 0 -1 0 0 0 0 1 forward_v I I I I #
coedge $-1 $586 $587 $588 $589 reversed $263 $-1 #
coedge $-1 $590 $265 $267 $424 forward $164 $-1 #
coedge $-1 $265 $590 $586 $591 forward $164 $-1 #
coedge $-1 $588 $268 $265 $421 forward $426 $-1 #
edge $-1 $428 0.68238184016374426 $592 6.7016737345128252 $420 $593 forward 7 unknown #
coedge $-1 $594 $595 $266 $423 forward $415 $-1 #
edge $-1 $596 -56.047932395480494 $427 -52.832992363110293 $422 $597 forward 7 unknown #
edge $-1 $428 75.70599834177672 $596 81.311075167088845 $267 $598 forward 7 unknown #
coedge $-1 $268 $588 $594 $599 forward $426 $-1 #
loop $-1 $-1 $588 $414 #
vertex $-1 $423 $600 #
vertex $-1 $269 $601 #
straight-curve $-1 10.343760944619067 -4.374409627502029 4.3633255982722829 -1 0 0 I I #
coedge $-1 $430 $430 $-1 $602 reversed $272 $-1 #
edge $-1 $603 0 $603 6.2831853071796004 $273 $604 forward 7 unknown #
vertex $-1 $276 $605 #
ellipse-curve $-1 38.359832528124933 -9.1898431429812923 2.7558555820871895 0.57357644374324357 0 0.81915203911291934 0.40957601955645967 0 -0.28678822187162178 1 I I #
coedge $-1 $434 $434 $-1 $606 reversed $279 $-1 #
edge $-1 $607 0 $607 6.2831853071796004 $280 $608 forward 7 unknown #
vertex $-1 $283 $609 #
ellipse-curve $-1 38.359832528124933 -7.3840555746765677 2.7558555820871895 0.57357644374324357 0 0.81915203911291934 0.40957601955645967 0 -0.28678822187162178 1 I I #
coedge $-1 $438 $438 $-1 $610 reversed $286 $-1 #
edge $-1 $611 0 $611 6.2831853071796004 $287 $612 forward 7 unknown #
vertex $-1 $290 $613 #
ellipse-curve $-1 38.359832528124933 -5.5782680063718431 2.7558555820871895 0.57357644374324357 0 0.81915203911291934 0.40957601955645967 0 -0.28678822187162178 1 I I #
face $-1 $-1 $454 $60 $-1 $614 forward single #
loop $-1 $-1 $615 $291 #
plane-surface $-1 40.655537583544422 0 0 -1 0 0 0 0 1 forward_v I I I I #
coedge $-1 $616 $617 $618 $619 reversed $292 $-1 #
coedge $-1 $620 $294 $296 $452 forward $183 $-1 #
coedge $-1 $294 $620 $616 $621 forward $183 $-1 #
coedge $-1 $618 $297 $294 $449 forward $454 $-1 #
edge $-1 $456 -7.2807781043589941 $622 -1.2614862100099131 $448 $623 forward 7 unknown #
coedge $-1 $624 $625 $295 $451 forward $443 $-1 #
edge $-1 $626 -56.047932395480494 $455 -52.832992363110293 $450 $627 forward 7 unknown #
edge $-1 $456 75.70599834177672 $626 81.311075167088845 $296 $628 forward 7 unknown #
coedge $-1 $297 $618 $624 $629 forward $454 $-1 #
loop $-1 $-1 $618 $442 #
vertex $-1 $451 $630 #
vertex $-1 $298 $631 #
straight-curve $-1 10.343760944619067 11.551910261543448 4.3633255982722829 -1 0 0 I I #
coedge $-1 $458 $458 $-1 $632 reversed $301 $-1 #
edge $-1 $633 0 $633 6.2831853071796004 $302 $634 forward 7 unknown #
vertex $-1 $305 $635 #
ellipse-curve $-1 38.359832528124933 6.7364767460641843 2.7558555820871895 0.57357644374324357 0 0.81915203911291934 0.40957601955645967 0 -0.28678822187162178 1 I I #
coedge $-1 $462 $462 $-1 $636 reversed $308 $-1 #
edge $-1 $637 0 $637 6.2831853071796004 $309 $638 forward 7 unknown #
vertex $-1 $312 $639 #
ellipse-curve $-1 38.359832528124933 8.5422643143689072 2.7558555820871895 0.57357644374324357 0 0.81915203911291934 0.40957601955645967 0 -0.28678822187162178 1 I I #
coedge $-1 $466 $466 $-1 $640 reversed $315 $-1 #
edge $-1 $641 0 $641 6.2831853071796004 $316 $642 forward 7 unknown #
vertex $-1 $319 $643 #
ellipse-curve $-1 38.359832528124933 10.348051882673634 2.7558555820871895 0.57357644374324357 0 0.81915203911291934 0.40957601955645967 0 -0.28678822187162178 1 I I #
face $-1 $-1 $335 $48 $-1 $644 reversed single #
loop $-1 $-1 $486 $320 #
plane-surface $-1 0 18.001245200265387 0 0 -1 0 0 0 -1 forward_v I I I I #
coedge $-1 $645 $484 $487 $646 forward $321 $-1 #
coedge $-1 $490 $323 $324 $478 reversed $202 $-1 #
coedge $-1 $484 $645 $323 $476 reversed $321 $-1 #
edge $-1 $491 -4.3633255982722812 $647 4.3633255982722812 $475 $648 forward 7 unknown #
coedge $-1 $325 $324 $645 $649 forward $129 $-1 #
edge $-1 $482 -40.655537583544422 $647 40.655537583544422 $474 $650 forward 7 unknown #
coedge $-1 $487 $486 $325 $480 reversed $471 $-1 #
edge $-1 $651 -40.655537583544422 $481 40.655537583544422 $479 $652 forward 7 unknown #
vertex $-1 $327 $653 #
vertex $-1 $493 $654 #
straight-curve $-1 40.655537583544422 0 -4.3633255982722812 0 -1 0 I I #
coedge $-1 $473 $475 $328 $485 reversed $321 $-1 #
edge $-1 $488 -18.001245200265387 $491 18.001245200265387 $484 $655 forward 7 unknown #
coedge $-1 $479 $329 $334 $494 forward $471 $-1 #
coedge $-1 $329 $479 $473 $646 reversed $471 $-1 #
vertex $-1 $330 $656 #
straight-curve $-1 0 18.001245200265387 4.3633255982722812 -1 0 0 I I #
coedge $-1 $331 $474 $333 $493 reversed $202 $-1 #
vertex $-1 $485 $657 #
straight-curve $-1 0 -18.001245200265387 4.3633255982722812 1 0 0 I I #
edge $-1 $336 -4.3633255982722812 $482 4.3633255982722812 $333 $658 forward 7 unknown #
edge $-1 $337 -4.3633255982722812 $481 4.3633255982722812 $334 $659 forward 7 unknown #
point $-1 40.655537583544422 -18.001245200265387 4.3633255982722812 #
point $-1 40.655537583544422 18.001245200265387 4.3633255982722812 #
face $-1 $-1 $354 $49 $-1 $660 reversed single #
loop $-1 $-1 $345 $339 #
plane-surface $-1 0 0 4.3633255982722812 0 0 1 1 0 0 forward_v I I I I #
coedge $-1 $661 $342 $347 $509 forward $210 $-1 #
coedge $-1 $342 $661 $504 $662 reversed $210 $-1 #
edge $-1 $507 -2.9316627991361406 $514 0.068337200863859415 $342 $663 forward 7 unknown #
edge $-1 $356 -0.068337200863859415 $506 2.9316627991361406 $352 $664 forward 7 unknown #
coedge $-1 $665 $345 $501 $662 forward $498 $-1 #
coedge $-1 $345 $665 $516 $666 forward $498 $-1 #
vertex $-1 $503 $667 #
vertex $-1 $662 $668 #
straight-curve $-1 0 -13.851394577825566 4.3633255982722812 -1 0 0 I I #
edge $-1 $514 5.8882346333028277 $512 10.038085255742649 $500 $669 forward 7 unknown #
coedge $-1 $670 $348 $353 $517 reversed $340 $-1 #
coedge $-1 $348 $670 $661 $671 forward $340 $-1 #
vertex $-1 $349 $672 #
straight-curve $-1 0 -18.001245200265387 1.3633255982722812 1 0 0 I I #
vertex $-1 $509 $673 #
straight-curve $-1 0 -13.851394577825566 1.3633255982722812 1 0 0 I I #
coedge $-1 $353 $352 $505 $666 reversed $354 $-1 #
edge $-1 $674 -4.3633255982722812 $355 -1.3633255982722812 $353 $675 forward 7 unknown #
point $-1 40.655537583544422 -18.001245200265387 1.3633255982722812 #
point $-1 40.655537583544422 -13.851394577825566 1.3633255982722812 #
loop $-1 $-1 $366 $358 #
plane-surface $-1 0 -13.851394577825566 2.8633255982722812 0 -1 0 0 0 -1 forward_v I I I I #
coedge $-1 $527 $676 $362 $523 forward $359 $-1 #
edge $-1 $525 22.629997929503631 $533 26.35154071722415 $522 $677 forward 7 unknown #
coedge $-1 $369 $363 $676 $678 forward $218 $-1 #
vertex $-1 $678 $679 #
straight-curve $-1 -51.010892832156713 -7.2371461403982735 4.3633255982722794 -1 0 0 I I #
coedge $-1 $680 $522 $365 $528 forward $359 $-1 #
edge $-1 $533 1.9650109608423136 $531 8.5792593982696062 $527 $681 forward 7 unknown #
coedge $-1 $530 $366 $369 $535 reversed $520 $-1 #
coedge $-1 $366 $529 $680 $682 reversed $520 $-1 #
vertex $-1 $682 $683 #
straight-curve $-1 -31.356212031600222 -13.851394577825566 11.339433406933765 0.65605901945558975 0 0.75470958851134939 I I #
vertex $-1 $528 $684 #
straight-curve $-1 -40.655537583544415 -7.2371461403982735 0.64178281055176711 0.65605901945558964 0 0.75470958851134928 I I #
edge $-1 $685 -40.655537583544422 $370 -37.420449876510169 $369 $686 forward 7 unknown #
point $-1 -37.420449876510169 -13.851394577825566 4.3633255982722812 #
point $-1 -37.420449876510169 -7.2371461403982735 4.3633255982722812 #
edge $-1 $687 1 $687 0 $373 $-1 forward 7 unknown #
vertex $-1 $374 $688 #
ellipse-curve $-1 -36.955292847079512 -10.54427035911192 0.69208999422335338 -0.75470958851134928 0 0.65605901945558964 0.65605901945558964 0 0.75470958851134928 1 I I #
point $-1 -38.381934710571713 -10.54427035911192 3.257263792923375 #
loop $-1 $-1 $385 $377 #
plane-surface $-1 -40.655537583544422 0 0 1 0 0 0 0 -1 forward_v I I I I #
coedge $-1 $545 $380 $382 $549 reversed $233 $-1 #
coedge $-1 $380 $544 $689 $690 reversed $233 $-1 #
coedge $-1 $388 $383 $380 $547 forward $378 $-1 #
edge $-1 $550 -13.590442955646544 $691 -10.355355248612291 $546 $692 forward 7 unknown #
coedge $-1 $382 $381 $553 $693 reversed $146 $-1 #
edge $-1 $694 -1.086200982436365e-014 $550 4.9310924948776504 $544 $695 forward 7 unknown #
vertex $-1 $384 $696 #
straight-curve $-1 -37.420449876510162 1.0374626556099553 4.3633255982722812 0 1 0 I I #
coedge $-1 $689 $385 $388 $557 reversed $542 $-1 #
coedge $-1 $385 $689 $548 $693 forward $542 $-1 #
vertex $-1 $386 $697 #
straight-curve $-1 -40.655537583544422 -1.2321989074937361 26.99332352777591 0 0 1 I I #
straight-curve $-1 -40.655537583544415 -1.2321989074937361 0.64178281055176711 -0.65605901945558964 0 -0.75470958851134928 I I #
edge $-1 $691 -5.3820495299335569 $389 1.2321989074937361 $552 $698 forward 7 unknown #
point $-1 -40.655537583544422 -1.2321989074937361 4.3633255982722812 #
point $-1 -37.420449876510169 -1.2321989074937361 4.3633255982722812 #
edge $-1 $699 1 $699 0 $392 $-1 forward 7 unknown #
vertex $-1 $393 $700 #
ellipse-curve $-1 -36.955292847079512 2.0749253112199106 0.69208999422335338 -0.75470958851134928 0 0.65605901945558964 0.65605901945558964 0 0.75470958851134928 1 I I #
point $-1 -38.381934710571713 2.0749253112199106 3.257263792923375 #
loop $-1 $-1 $403 $396 #
plane-surface $-1 -40.655537583544422 0 0 1 0 0 0 0 -1 forward_v I I I I #
coedge $-1 $701 $702 $400 $568 forward $397 $-1 #
coedge $-1 $400 $399 $573 $703 reversed $155 $-1 #
edge $-1 $570 8.1629437459397725 $704 13.094036240817433 $566 $705 forward 7 unknown #
coedge $-1 $406 $401 $702 $706 forward $248 $-1 #
vertex $-1 $706 $707 #
straight-curve $-1 -37.420449876510162 7.3470604907758705 4.3633255982722812 0 1 0 I I #
coedge $-1 $708 $403 $406 $577 reversed $564 $-1 #
coedge $-1 $403 $708 $567 $703 forward $564 $-1 #
vertex $-1 $404 $709 #
straight-curve $-1 -40.655537583544422 11.386996762838095 26.99332352777591 0 0 1 I I #
straight-curve $-1 -40.655537583544415 11.386996762838095 0.64178281055176711 -0.65605901945558964 0 -0.75470958851134928 I I #
edge $-1 $710 -18.001245200265387 $407 -11.386996762838095 $572 $711 forward 7 unknown #
point $-1 -40.655537583544422 11.386996762838095 4.3633255982722812 #
point $-1 -37.420449876510169 11.386996762838095 4.3633255982722812 #
edge $-1 $712 1 $712 0 $410 $-1 forward 7 unknown #
vertex $-1 $411 $713 #
ellipse-curve $-1 -36.955292847079512 14.694120981551741 0.69208999422335338 -0.75470958851134928 0 0.65605901945558964 0.65605901945558964 0 0.75470958851134928 1 I I #
point $-1 -38.381934710571713 14.694120981551741 3.257263792923375 #
plane-surface $-1 0 0 4.3633255982722812 0 0 1 1 0 0 forward_v I I I I #
coedge $-1 $595 $594 $587 $714 forward $415 $-1 #
coedge $-1 $587 $417 $419 $591 reversed $263 $-1 #
coedge $-1 $417 $586 $585 $714 reversed $263 $-1 #
coedge $-1 $425 $420 $417 $589 forward $426 $-1 #
edge $-1 $592 25.72036652808637 $715 30.311776638925355 $588 $716 forward 7 unknown #
coedge $-1 $419 $418 $595 $717 reversed $164 $-1 #
edge $-1 $718 -81.311075167088845 $592 -75.70599834177672 $586 $719 forward 7 unknown #
vertex $-1 $421 $720 #
straight-curve $-1 36.064127472705437 -3.6920277873382847 4.3633255982722865 0 -1 0 I I #
coedge $-1 $585 $422 $425 $599 reversed $415 $-1 #
coedge $-1 $422 $585 $590 $717 forward $415 $-1 #
vertex $-1 $423 $721 #
straight-curve $-1 40.655537583544422 -4.374409627502029 57.196317961382576 0 0 1 I I #
straight-curve $-1 -25.950595442040253 -4.374409627502029 47.786502897180469 0.81915203911291934 0 -0.57357644374324357 I I #
edge $-1 $715 -10.39370152185111 $427 -4.374409627502029 $594 $722 forward 7 unknown #
point $-1 40.655537583544422 -4.374409627502029 4.3633255982722812 #
point $-1 36.064127472705437 -4.374409627502029 4.3633255982722829 #
edge $-1 $723 1 $723 0 $430 $-1 forward 7 unknown #
vertex $-1 $431 $724 #
ellipse-curve $-1 37.54674805216888 -9.1898431429812923 1.5946506307405359 0.57357644374324357 0 0.81915203911291934 0.40957601955645967 0 -0.28678822187162178 1 I I #
point $-1 38.769408547681387 -9.1898431429812923 2.4690673602155608 #
edge $-1 $725 1 $725 0 $434 $-1 forward 7 unknown #
vertex $-1 $435 $726 #
ellipse-curve $-1 37.54674805216888 -7.3840555746765677 1.5946506307405359 0.57357644374324357 0 0.81915203911291934 0.40957601955645967 0 -0.28678822187162178 1 I I #
point $-1 38.769408547681387 -7.3840555746765677 2.4690673602155608 #
edge $-1 $727 1 $727 0 $438 $-1 forward 7 unknown #
vertex $-1 $439 $728 #
ellipse-curve $-1 37.54674805216888 -5.5782680063718431 1.5946506307405359 0.57357644374324357 0 0.81915203911291934 0.40957601955645967 0 -0.28678822187162178 1 I I #
point $-1 38.769408547681387 -5.5782680063718431 2.4690673602155608 #
plane-surface $-1 0 0 4.3633255982722812 0 0 1 1 0 0 forward_v I I I I #
coedge $-1 $625 $624 $617 $729 forward $443 $-1 #
coedge $-1 $617 $445 $447 $621 reversed $292 $-1 #
coedge $-1 $445 $616 $615 $729 reversed $292 $-1 #
coedge $-1 $453 $448 $445 $619 forward $454 $-1 #
edge $-1 $622 25.72036652808637 $730 30.311776638925355 $618 $731 forward 7 unknown #
coedge $-1 $447 $446 $625 $732 reversed $183 $-1 #
edge $-1 $733 -81.311075167088845 $622 -75.70599834177672 $616 $734 forward 7 unknown #
vertex $-1 $449 $735 #
straight-curve $-1 36.064127472705437 4.2711321571844536 4.3633255982722865 0 -1 0 I I #
coedge $-1 $615 $450 $453 $629 reversed $443 $-1 #
coedge $-1 $450 $615 $620 $732 forward $443 $-1 #
vertex $-1 $451 $736 #
straight-curve $-1 40.655537583544422 11.551910261543448 57.196317961382576 0 0 1 I I #
straight-curve $-1 -25.950595442040253 11.551910261543448 47.786502897180469 0.81915203911291934 0 -0.57357644374324357 I I #
edge $-1 $730 5.5326183671943667 $455 11.551910261543448 $624 $737 forward 7 unknown #
point $-1 40.655537583544422 11.551910261543448 4.3633255982722812 #
point $-1 36.064127472705437 11.551910261543448 4.3633255982722829 #
edge $-1 $738 1 $738 0 $458 $-1 forward 7 unknown #
vertex $-1 $459 $739 #
ellipse-curve $-1 37.54674805216888 6.7364767460641843 1.5946506307405359 0.57357644374324357 0 0.81915203911291934 0.40957601955645967 0 -0.28678822187162178 1 I I #
point $-1 38.769408547681387 6.7364767460641843 2.4690673602155608 #
edge $-1 $740 1 $740 0 $462 $-1 forward 7 unknown #
vertex $-1 $463 $741 #
ellipse-curve $-1 37.54674805216888 8.5422643143689072 1.5946506307405359 0.57357644374324357 0 0.81915203911291934 0.40957601955645967 0 -0.28678822187162178 1 I I #
point $-1 38.769408547681387 8.5422643143689072 2.4690673602155608 #
edge $-1 $742 1 $742 0 $466 $-1 forward 7 unknown #
vertex $-1 $467 $743 #
ellipse-curve $-1 37.54674805216888 10.348051882673634 1.5946506307405359 0.57357644374324357 0 0.81915203911291934 0.40957601955645967 0 -0.28678822187162178 1 I I #
point $-1 38.769408547681387 10.348051882673634 2.4690673602155608 #
plane-surface $-1 40.655537583544422 0 0 -1 0 0 0 0 1 forward_v I I I I #
coedge $-1 $475 $473 $477 $649 reversed $321 $-1 #
edge $-1 $488 -4.3633255982722812 $651 4.3633255982722812 $487 $744 forward 7 unknown #
vertex $-1 $649 $745 #
straight-curve $-1 -40.655537583544422 -18.001245200265387 0 0 0 -1 I I #
edge $-1 $647 -18.001245200265387 $651 18.001245200265387 $645 $746 forward 7 unknown #
straight-curve $-1 0 -18.001245200265387 -4.3633255982722812 -1 0 0 I I #
vertex $-1 $480 $747 #
straight-curve $-1 0 18.001245200265387 -4.3633255982722812 1 0 0 I I #
point $-1 40.655537583544422 18.001245200265387 -4.3633255982722812 #
point $-1 40.655537583544422 -18.001245200265387 -4.3633255982722812 #
straight-curve $-1 -40.655537583544422 0 4.3633255982722812 0 -1 0 I I #
point $-1 -40.655537583544422 18.001245200265387 4.3633255982722812 #
point $-1 -40.655537583544422 -18.001245200265387 4.3633255982722812 #
straight-curve $-1 40.655537583544422 -18.001245200265387 0 0 0 -1 I I #
straight-curve $-1 40.655537583544422 18.001245200265387 0 0 0 -1 I I #
plane-surface $-1 40.655537583544422 0 0 -1 0 0 0 0 1 forward_v I I I I #
coedge $-1 $501 $500 $511 $671 reversed $210 $-1 #
edge $-1 $507 13.851394577825566 $748 18.001245200265387 $501 $749 forward 7 unknown #
straight-curve $-1 -40.655537583544422 -13.851394577825566 1.4316627991361406 0 0 -1 I I #
straight-curve $-1 40.655537583544422 -13.851394577825566 1.4316627991361406 0 0 1 I I #
coedge $-1 $505 $504 $670 $750 forward $498 $-1 #
edge $-1 $674 -18.001245200265387 $506 -13.851394577825566 $516 $751 forward 7 unknown #
point $-1 40.655537583544422 -13.851394577825566 4.3633255982722812 #
point $-1 -40.655537583544422 -13.851394577825566 4.3633255982722812 #
straight-curve $-1 -40.655537583544422 -7.9631599445227383 1.3633255982722812 0 -1 0 I I #
coedge $-1 $511 $510 $665 $750 reversed $340 $-1 #
edge $-1 $748 -4.3633255982722812 $512 -1.3633255982722812 $661 $752 forward 7 unknown #
point $-1 -40.655537583544422 -18.001245200265387 1.3633255982722812 #
point $-1 -40.655537583544422 -13.851394577825566 1.3633255982722812 #
vertex $-1 $666 $753 #
straight-curve $-1 40.655537583544422 -18.001245200265387 0 0 0 -1 I I #
coedge $-1 $522 $680 $524 $678 reversed $359 $-1 #
straight-curve $-1 -40.655537583544422 -7.2371461403982735 26.99332352777591 0 0 -1 I I #
edge $-1 $525 7.2371461403982735 $685 13.851394577825566 $676 $754 forward 7 unknown #
point $-1 -40.655537583544422 -7.2371461403982735 4.3633255982722812 #
coedge $-1 $676 $527 $530 $682 forward $359 $-1 #
straight-curve $-1 -40.655537583544422 -5.2721351795559599 0.64178281055175168 0 -1 0 I I #
edge $-1 $531 -26.35154071722415 $685 -22.629997929503631 $680 $755 forward 7 unknown #
point $-1 -40.655537583544422 -13.851394577825566 0.6417828105517589 #
point $-1 -40.655537583544422 -7.2371461403982735 0.6417828105517589 #
vertex $-1 $682 $756 #
straight-curve $-1 0 -13.851394577825566 4.3633255982722812 1 0 0 I I #
vertex $-1 $538 $757 #
point $-1 -36.299233827623922 -10.54427035911192 1.4467995827347027 #
coedge $-1 $553 $552 $545 $690 forward $542 $-1 #
edge $-1 $691 22.629997929503631 $694 26.35154071722415 $689 $758 forward 7 unknown #
vertex $-1 $557 $759 #
straight-curve $-1 -51.010892832156713 5.3820495299335569 4.3633255982722794 -1 0 0 I I #
edge $-1 $694 -4.3445868743236016 $554 2.2696615631036914 $553 $760 forward 7 unknown #
vertex $-1 $693 $761 #
straight-curve $-1 -40.655537583544415 5.3820495299335569 0.64178281055176711 0.65605901945558964 0 0.75470958851134928 I I #
point $-1 -37.420449876510169 5.3820495299335569 4.3633255982722812 #
point $-1 -40.655537583544422 -1.2321989074937361 0.6417828105517589 #
straight-curve $-1 -40.655537583544422 0 4.3633255982722812 0 -1 0 I I #
vertex $-1 $560 $762 #
point $-1 -36.299233827623922 2.0749253112199106 1.4467995827347027 #
coedge $-1 $702 $566 $708 $763 reversed $397 $-1 #
coedge $-1 $566 $701 $569 $706 reversed $397 $-1 #
edge $-1 $704 -10.654184709489517 $574 -4.0399362720622243 $573 $764 forward 7 unknown #
vertex $-1 $568 $765 #
straight-curve $-1 -32.065077006677782 18.001245200265387 10.523977513811777 -0.65605901945558975 0 -0.75470958851134939 I I #
edge $-1 $570 37.420449876510169 $710 40.655537583544422 $702 $766 forward 7 unknown #
point $-1 -37.420449876510169 18.001245200265387 4.3633255982722812 #
coedge $-1 $573 $572 $701 $763 forward $564 $-1 #
point $-1 -40.655537583544422 11.386996762838095 0.6417828105517589 #
vertex $-1 $706 $767 #
straight-curve $-1 -40.655537583544422 0 4.3633255982722812 0 -1 0 I I #
vertex $-1 $580 $768 #
point $-1 -36.299233827623922 14.694120981551741 1.4467995827347027 #
edge $-1 $715 52.832992363110293 $718 56.047932395480494 $585 $769 forward 7 unknown #
vertex $-1 $599 $770 #
straight-curve $-1 10.343760944619067 -10.39370152185111 4.3633255982722829 1 0 0 I I #
edge $-1 $718 -6.7016737345128252 $596 -0.68238184016374426 $595 $771 forward 7 unknown #
vertex $-1 $717 $772 #
straight-curve $-1 -25.950595442040253 -10.39370152185111 47.786502897180469 -0.81915203911291934 0 0.57357644374324357 I I #
point $-1 36.064127472705437 -10.39370152185111 4.3633255982722829 #
point $-1 40.655537583544429 -4.374409627502029 1.1483855659020819 #
straight-curve $-1 40.655537583544422 0 4.3633255982722812 0 1 0 I I #
vertex $-1 $602 $773 #
point $-1 37.956324071725341 -9.1898431429812923 1.3078624088689144 #
vertex $-1 $606 $774 #
point $-1 37.956324071725341 -7.3840555746765677 1.3078624088689144 #
vertex $-1 $610 $775 #
point $-1 37.956324071725341 -5.5782680063718431 1.3078624088689144 #
edge $-1 $730 52.832992363110293 $733 56.047932395480494 $615 $776 forward 7 unknown #
vertex $-1 $629 $777 #
straight-curve $-1 10.343760944619067 5.5326183671943667 4.3633255982722829 1 0 0 I I #
edge $-1 $733 1.2614862100099131 $626 7.2807781043589941 $625 $778 forward 7 unknown #
vertex $-1 $732 $779 #
straight-curve $-1 -25.950595442040253 5.5326183671943667 47.786502897180469 -0.81915203911291934 0 0.57357644374324357 I I #
point $-1 36.064127472705437 5.5326183671943667 4.3633255982722829 #
point $-1 40.655537583544429 11.551910261543448 1.1483855659020819 #
straight-curve $-1 40.655537583544422 0 4.3633255982722812 0 1 0 I I #
vertex $-1 $632 $780 #
point $-1 37.956324071725341 6.7364767460641843 1.3078624088689144 #
vertex $-1 $636 $781 #
point $-1 37.956324071725341 8.5422643143689072 1.3078624088689144 #
vertex $-1 $640 $782 #
point $-1 37.956324071725341 10.348051882673634 1.3078624088689144 #
straight-curve $-1 -40.655537583544422 18.001245200265387 0 0 0 -1 I I #
point $-1 -40.655537583544422 -18.001245200265387 -4.3633255982722812 #
straight-curve $-1 -40.655537583544422 0 -4.3633255982722812 0 1 0 I I #
point $-1 -40.655537583544422 18.001245200265387 -4.3633255982722812 #
vertex $-1 $662 $783 #
straight-curve $-1 -40.655537583544422 0 4.3633255982722812 0 -1 0 I I #
edge $-1 $748 -40.655537583544422 $674 40.655537583544422 $670 $784 forward 7 unknown #
straight-curve $-1 40.655537583544422 0 4.3633255982722812 0 1 0 I I #
straight-curve $-1 -40.655537583544422 -18.001245200265387 0 0 0 -1 I I #
point $-1 40.655537583544422 -18.001245200265387 4.3633255982722812 #
straight-curve $-1 -40.655537583544422 0 4.3633255982722812 0 -1 0 I I #
straight-curve $-1 -40.655537583544422 -13.851394577825566 26.99332352777591 0 0 1 I I #
point $-1 -40.655537583544422 -13.851394577825566 4.3633255982722812 #
point $-1 -36.200583258568166 -10.54427035911192 0.03603097476776379 #
straight-curve $-1 -40.655537583544422 5.3820495299335569 26.99332352777591 0 0 -1 I I #
point $-1 -40.655537583544422 5.3820495299335569 4.3633255982722812 #
straight-curve $-1 -40.655537583544422 1.0374626556099553 0.64178281055175168 0 -1 0 I I #
point $-1 -40.655537583544422 5.3820495299335569 0.6417828105517589 #
point $-1 -36.200583258568166 2.0749253112199106 0.03603097476776379 #
edge $-1 $710 -4.3633255982722812 $704 -0.6417828105517589 $701 $785 forward 7 unknown #
straight-curve $-1 -40.655537583544422 7.3470604907758705 0.64178281055175168 0 -1 0 I I #
point $-1 -40.655537583544422 18.001245200265387 0.6417828105517589 #
straight-curve $-1 0 18.001245200265387 4.3633255982722812 -1 0 0 I I #
point $-1 -40.655537583544422 18.001245200265387 4.3633255982722812 #
point $-1 -36.200583258568166 14.694120981551741 0.03603097476776379 #
straight-curve $-1 40.655537583544422 -10.39370152185111 57.196317961382576 0 0 -1 I I #
point $-1 40.655537583544422 -10.39370152185111 4.3633255982722812 #
straight-curve $-1 40.655537583544429 -3.6920277873382847 1.1483855659020854 0 1 0 I I #
point $-1 40.655537583544429 -10.39370152185111 1.1483855659020819 #
point $-1 37.259959830297262 -9.1898431429812923 1.1850746111840769 #
point $-1 37.259959830297262 -7.3840555746765677 1.1850746111840769 #
point $-1 37.259959830297262 -5.5782680063718431 1.1850746111840769 #
straight-curve $-1 40.655537583544422 5.5326183671943667 57.196317961382576 0 0 -1 I I #
point $-1 40.655537583544422 5.5326183671943667 4.3633255982722812 #
straight-curve $-1 40.655537583544429 4.2711321571844536 1.1483855659020854 0 1 0 I I #
point $-1 40.655537583544429 5.5326183671943667 1.1483855659020819 #
point $-1 37.259959830297262 6.7364767460641843 1.1850746111840769 #
point $-1 37.259959830297262 8.5422643143689072 1.1850746111840769 #
point $-1 37.259959830297262 10.348051882673634 1.1850746111840769 #
point $-1 -40.655537583544422 -18.001245200265387 4.3633255982722812 #
straight-curve $-1 0 -18.001245200265387 4.3633255982722812 1 0 0 I I #
straight-curve $-1 -40.655537583544422 18.001245200265387 0 0 0 -1 I I #
End-of-ACIS-data 