500 0 5 0           
7 Unknown 11 ACIS 5.0 NT 24 Fri Mar 26 16:43:54 1999 
-1 9.9999999999999995e-007 1e-010 
body $-1 $5 $-1 $6 #
body $-1 $7 $-1 $8 #
body $-1 $9 $-1 $10 #
body $-1 $11 $-1 $12 #
body $-1 $13 $-1 $14 #
lump $-1 $-1 $15 $0 #
transform $-1 1 0 0 0 1 0 0 0 1 77.220374156926169 40.950105578796105 8.4108494996751517 1 rotate no_reflect no_shear #
lump $-1 $-1 $16 $1 #
transform $-1 1 0 0 0 1 0 0 0 1 77.220374156926169 40.950105578796105 8.4108494996751517 1 rotate no_reflect no_shear #
lump $-1 $-1 $17 $2 #
transform $-1 1 0 0 0 1 0 0 0 1 77.220374156926169 40.950105578796105 8.4108494996751517 1 rotate no_reflect no_shear #
lump $-1 $-1 $18 $3 #
transform $-1 1 0 0 0 1 0 0 0 1 77.220374156926169 40.950105578796105 8.4108494996751517 1 rotate no_reflect no_shear #
lump $-1 $-1 $19 $4 #
transform $-1 1 0 0 0 1 0 0 0 1 77.220374156926169 40.950105578796105 8.4108494996751517 1 rotate no_reflect no_shear #
shell $-1 $-1 $-1 $20 $-1 $5 #
shell $-1 $-1 $-1 $21 $-1 $7 #
shell $-1 $-1 $-1 $22 $-1 $9 #
shell $-1 $-1 $-1 $23 $-1 $11 #
shell $-1 $-1 $-1 $24 $-1 $13 #
face $-1 $25 $26 $15 $-1 $27 forward single #
face $-1 $28 $29 $16 $-1 $30 forward single #
face $-1 $31 $32 $17 $-1 $33 forward single #
face $-1 $34 $35 $18 $-1 $36 forward single #
face $-1 $37 $38 $19 $-1 $39 reversed single #
face $-1 $40 $41 $15 $-1 $42 reversed single #
loop $-1 $-1 $43 $20 #
plane-surface $-1 0 0 8.4108494996751517 0 0 1 1 0 0 forward_v I I I I #
face $-1 $44 $45 $16 $-1 $46 reversed single #
loop $-1 $-1 $47 $21 #
plane-surface $-1 -81.342026671200102 0 -5.4108494996751517 0 0 1 1 0 0 forward_v I I I I #
face $-1 $48 $49 $17 $-1 $50 reversed single #
loop $-1 $-1 $51 $22 #
plane-surface $-1 81.342026671200102 0 -5.4108494996751517 0 0 1 1 0 0 forward_v I I I I #
face $-1 $52 $53 $18 $-1 $54 forward single #
loop $-1 $-1 $55 $23 #
plane-surface $-1 -36.734441575910303 -142.27235418630801 117.74289175710665 -1 0 0 0 -0.6560590369687036 0.75470957328743171 forward_v I I I I #
face $-1 $56 $57 $19 $-1 $58 reversed single #
loop $-1 $59 $60 $24 #
cone-surface $-1 -52.855755352144307 -35.504707012836036 3.3148681926437518 0 0.6560590369687036 -0.75470957328743171 1.5 0 0 1 I I 0 1 1.5 forward I I I I #
face $-1 $61 $62 $15 $-1 $63 reversed single #
loop $-1 $-1 $64 $25 #
plane-surface $-1 0 0 -8.4108494996751517 0 0 1 1 0 0 forward_v I I I I #
coedge $-1 $65 $66 $67 $68 forward $26 $-1 #
face $-1 $69 $70 $16 $-1 $71 forward single #
loop $-1 $-1 $72 $28 #
plane-surface $-1 -85.463679185474035 0 -6.9108494996751517 1 0 0 0 0 -1 forward_v I I I I #
coedge $-1 $73 $74 $75 $76 reversed $29 $-1 #
face $-1 $77 $78 $17 $-1 $79 forward single #
loop $-1 $-1 $80 $31 #
plane-surface $-1 85.463679185474035 0 -6.9108494996751517 -1 0 0 0 0 1 forward_v I I I I #
coedge $-1 $81 $82 $83 $84 forward $32 $-1 #
face $-1 $85 $86 $18 $-1 $87 forward single #
loop $-1 $-1 $88 $34 #
plane-surface $-1 -52.855755352144307 -40.950105578796112 1.184980498967505 0 -0.6560590369687036 0.75470957328743171 1 0 0 forward_v I I I I #
coedge $-1 $89 $90 $91 $92 reversed $35 $-1 #
face $-1 $93 $94 $19 $-1 $95 forward single #
loop $-1 $96 $97 $37 #
cone-surface $-1 -52.855755352144307 -33.723469786979443 1.2657892060005924 0 0.6560590369687036 -0.75470957328743171 0.75 0 0 1 I I -0.70710678118654757 0.70710678118654757 0.75 forward I I I I #
loop $-1 $-1 $98 $24 #
coedge $-1 $60 $60 $99 $100 reversed $38 $-1 #
face $-1 $101 $102 $15 $-1 $103 reversed single #
loop $-1 $-1 $104 $40 #
plane-surface $-1 0 -40.950105578796105 0 0 1 0 0 0 1 forward_v I I I I #
coedge $-1 $105 $106 $107 $108 forward $41 $-1 #
coedge $-1 $109 $43 $110 $111 forward $26 $-1 #
coedge $-1 $43 $109 $112 $113 forward $26 $-1 #
coedge $-1 $114 $115 $43 $68 reversed $116 $-1 #
edge $-1 $117 -40.950105578796105 $118 40.950105578796105 $67 $119 forward 7 unknown #
face $-1 $120 $121 $16 $-1 $122 reversed single #
loop $-1 $-1 $123 $44 #
plane-surface $-1 0 0 8.4108494996751517 0 0 1 1 0 0 forward_v I I I I #
coedge $-1 $124 $125 $126 $127 forward $45 $-1 #
coedge $-1 $128 $47 $129 $130 forward $29 $-1 #
coedge $-1 $47 $128 $131 $132 forward $29 $-1 #
coedge $-1 $133 $134 $47 $76 forward $135 $-1 #
edge $-1 $136 -40.950105578796105 $137 40.950105578796105 $75 $138 forward 7 unknown #
face $-1 $139 $140 $17 $-1 $141 reversed single #
loop $-1 $-1 $142 $48 #
plane-surface $-1 -81.342026671200102 0 -5.4108494996751517 0 0 1 1 0 0 forward_v I I I I #
coedge $-1 $143 $83 $144 $145 forward $49 $-1 #
coedge $-1 $146 $51 $147 $148 forward $32 $-1 #
coedge $-1 $51 $146 $149 $150 forward $32 $-1 #
coedge $-1 $80 $151 $51 $84 reversed $49 $-1 #
edge $-1 $152 -40.950105578796105 $153 40.950105578796105 $83 $154 forward 7 unknown #
face $-1 $155 $156 $18 $-1 $157 forward single #
loop $-1 $-1 $158 $52 #
plane-surface $-1 -68.977069128378304 -142.27235418630801 117.74289175710665 1 0 0 0 0.6560590369687036 -0.75470957328743171 forward_v I I I I #
coedge $-1 $159 $160 $161 $162 reversed $53 $-1 #
coedge $-1 $90 $55 $160 $163 forward $35 $-1 #
coedge $-1 $55 $89 $164 $165 reversed $35 $-1 #
coedge $-1 $166 $161 $55 $92 forward $156 $-1 #
edge $-1 $167 -38.498482750017921 $168 -30.186071514357899 $91 $169 forward 7 unknown #
face $-1 $170 $171 $19 $-1 $172 forward single #
loop $-1 $-1 $173 $56 #
plane-surface $-1 -36.734441575910303 -142.27235418630801 117.74289175710665 -1 0 0 0 -0.6560590369687036 0.75470957328743171 forward_v I I I I #
loop $-1 $-1 $174 $37 #
coedge $-1 $97 $97 $98 $175 forward $57 $-1 #
coedge $-1 $98 $98 $97 $175 reversed $59 $-1 #
coedge $-1 $99 $99 $60 $100 forward $171 $-1 #
edge $-1 $176 8.5576779885730057e-016 $176 6.2831853071796013 $99 $177 forward 7 unknown #
face $-1 $178 $179 $15 $-1 $180 reversed single #
loop $-1 $-1 $181 $61 #
plane-surface $-1 -77.220374156926169 0 0 1 0 0 0 0 -1 forward_v I I I I #
coedge $-1 $182 $112 $183 $184 forward $62 $-1 #
coedge $-1 $185 $64 $182 $186 forward $41 $-1 #
coedge $-1 $64 $185 $187 $188 forward $41 $-1 #
coedge $-1 $115 $114 $64 $108 reversed $116 $-1 #
edge $-1 $189 -40.950105578796105 $190 40.950105578796105 $107 $191 forward 7 unknown #
coedge $-1 $66 $65 $192 $193 forward $26 $-1 #
coedge $-1 $194 $195 $65 $111 reversed $179 $-1 #
edge $-1 $118 -77.220374156926169 $196 77.220374156926169 $110 $197 forward 7 unknown #
coedge $-1 $104 $198 $66 $113 reversed $62 $-1 #
edge $-1 $199 -77.220374156926169 $117 77.220374156926169 $112 $200 forward 7 unknown #
coedge $-1 $107 $67 $198 $201 forward $116 $-1 #
coedge $-1 $67 $107 $194 $202 reversed $116 $-1 #
loop $-1 $-1 $114 $178 #
vertex $-1 $68 $203 #
vertex $-1 $68 $204 #
straight-curve $-1 77.220374156926169 0 8.4108494996751517 0 1 0 I I #
face $-1 $205 $206 $16 $-1 $207 reversed single #
loop $-1 $-1 $208 $69 #
plane-surface $-1 0 0 -8.4108494996751517 0 0 1 1 0 0 forward_v I I I I #
coedge $-1 $209 $210 $211 $212 forward $70 $-1 #
coedge $-1 $213 $72 $214 $215 reversed $45 $-1 #
coedge $-1 $72 $213 $128 $216 reversed $45 $-1 #
coedge $-1 $129 $217 $72 $127 reversed $218 $-1 #
edge $-1 $219 -1.5 $220 1.5 $126 $221 forward 7 unknown #
coedge $-1 $74 $73 $125 $216 forward $29 $-1 #
coedge $-1 $222 $126 $73 $130 reversed $218 $-1 #
edge $-1 $136 -4.1216525142739329 $219 4.1216525142739329 $129 $223 forward 7 unknown #
coedge $-1 $224 $225 $74 $132 reversed $206 $-1 #
edge $-1 $226 -4.1216525142739329 $137 4.1216525142739329 $131 $227 forward 7 unknown #
coedge $-1 $228 $75 $225 $229 reversed $135 $-1 #
coedge $-1 $75 $228 $222 $230 forward $135 $-1 #
loop $-1 $-1 $75 $205 #
vertex $-1 $230 $231 #
vertex $-1 $132 $232 #
straight-curve $-1 -77.220374156926169 0 -5.4108494996751517 0 -1 0 I I #
face $-1 $233 $234 $17 $-1 $235 forward single #
loop $-1 $-1 $236 $77 #
plane-surface $-1 -85.463679185474035 0 -6.9108494996751517 1 0 0 0 0 -1 forward_v I I I I #
coedge $-1 $237 $238 $239 $240 reversed $78 $-1 #
coedge $-1 $151 $80 $241 $242 reversed $49 $-1 #
coedge $-1 $149 $243 $80 $145 reversed $244 $-1 #
edge $-1 $152 -1.5 $245 1.5 $80 $246 forward 7 unknown #
coedge $-1 $82 $81 $247 $248 reversed $32 $-1 #
coedge $-1 $249 $250 $81 $148 reversed $251 $-1 #
edge $-1 $153 -4.1216525142739329 $252 4.1216525142739329 $147 $253 forward 7 unknown #
coedge $-1 $254 $144 $82 $150 reversed $244 $-1 #
edge $-1 $255 -4.1216525142739329 $152 4.1216525142739329 $149 $256 forward 7 unknown #
coedge $-1 $83 $143 $249 $257 reversed $49 $-1 #
vertex $-1 $84 $258 #
vertex $-1 $84 $259 #
straight-curve $-1 85.463679185474035 0 -5.4108494996751517 0 1 0 I I #
face $-1 $260 $261 $18 $-1 $262 forward single #
loop $-1 $-1 $263 $85 #
plane-surface $-1 0 0 8.4108494996751517 0 0 1 1 0 0 forward_v I I I I #
coedge $-1 $264 $265 $263 $266 reversed $86 $-1 #
coedge $-1 $267 $88 $265 $268 reversed $53 $-1 #
coedge $-1 $88 $267 $89 $163 reversed $53 $-1 #
coedge $-1 $91 $263 $88 $162 forward $156 $-1 #
edge $-1 $269 -42.549191452306147 $167 -10.306563899838149 $161 $270 forward 7 unknown #
edge $-1 $167 -11.014052994520901 $271 -9.44141639987384e-015 $89 $272 forward 7 unknown #
coedge $-1 $273 $274 $90 $165 forward $275 $-1 #
edge $-1 $168 50.460596378878172 $271 57.686465379585812 $164 $276 forward 7 unknown #
coedge $-1 $277 $91 $274 $278 forward $156 $-1 #
vertex $-1 $162 $279 #
vertex $-1 $278 $280 #
straight-curve $-1 -36.734441575910303 -71.136177093154004 8.4108494996751517 0 -1 0 I I #
face $-1 $281 $282 $19 $-1 $283 forward single #
loop $-1 $284 $99 $93 #
plane-surface $-1 -52.855755352144307 -40.950105578796112 1.184980498967505 0 -0.6560590369687036 0.75470957328743171 1 0 0 forward_v I I I I #
coedge $-1 $285 $286 $287 $288 reversed $94 $-1 #
coedge $-1 $174 $174 $-1 $289 forward $96 $-1 #
edge $-1 $290 0 $290 6.2831853071796004 $97 $291 forward 7 unknown #
vertex $-1 $100 $292 #
ellipse-curve $-1 -52.855755352144307 -36.793899960966094 4.797914999321331 0 0.6560590369687036 -0.75470957328743171 1.5 0 0 1 I I #
face $-1 $-1 $116 $15 $-1 $293 reversed single #
loop $-1 $-1 $194 $101 #
plane-surface $-1 0 40.950105578796105 0 0 -1 0 0 0 -1 forward_v I I I I #
coedge $-1 $294 $192 $195 $295 forward $102 $-1 #
coedge $-1 $198 $104 $105 $186 reversed $62 $-1 #
coedge $-1 $192 $294 $104 $184 reversed $102 $-1 #
edge $-1 $199 -8.4108494996751517 $296 8.4108494996751517 $183 $297 forward 7 unknown #
coedge $-1 $106 $105 $294 $298 forward $41 $-1 #
edge $-1 $190 -77.220374156926169 $296 77.220374156926169 $182 $299 forward 7 unknown #
coedge $-1 $195 $194 $106 $188 reversed $179 $-1 #
edge $-1 $300 -77.220374156926169 $189 77.220374156926169 $187 $301 forward 7 unknown #
vertex $-1 $108 $302 #
vertex $-1 $201 $303 #
straight-curve $-1 77.220374156926169 0 -8.4108494996751517 0 -1 0 I I #
coedge $-1 $181 $183 $109 $193 reversed $102 $-1 #
edge $-1 $196 -40.950105578796105 $199 40.950105578796105 $192 $304 forward 7 unknown #
coedge $-1 $187 $110 $115 $202 forward $179 $-1 #
coedge $-1 $110 $187 $181 $295 reversed $179 $-1 #
vertex $-1 $111 $305 #
straight-curve $-1 0 40.950105578796105 8.4108494996751517 -1 0 0 I I #
coedge $-1 $112 $182 $114 $201 reversed $62 $-1 #
vertex $-1 $193 $306 #
straight-curve $-1 0 -40.950105578796105 8.4108494996751517 1 0 0 I I #
edge $-1 $117 -8.4108494996751517 $190 8.4108494996751517 $114 $307 forward 7 unknown #
edge $-1 $118 -8.4108494996751517 $189 8.4108494996751517 $115 $308 forward 7 unknown #
point $-1 77.220374156926169 -40.950105578796105 8.4108494996751517 #
point $-1 77.220374156926169 40.950105578796105 8.4108494996751517 #
face $-1 $309 $135 $16 $-1 $310 reversed single #
loop $-1 $-1 $225 $120 #
plane-surface $-1 0 -40.950105578796105 0 0 1 0 0 0 1 forward_v I I I I #
coedge $-1 $311 $312 $313 $314 forward $121 $-1 #
coedge $-1 $315 $123 $316 $317 forward $70 $-1 #
coedge $-1 $123 $315 $318 $319 forward $70 $-1 #
coedge $-1 $320 $321 $123 $212 reversed $322 $-1 #
edge $-1 $323 -40.950105578796105 $324 40.950105578796105 $211 $325 forward 7 unknown #
coedge $-1 $125 $124 $224 $326 reversed $45 $-1 #
coedge $-1 $312 $311 $124 $215 forward $121 $-1 #
edge $-1 $327 -40.950105578796105 $220 40.950105578796105 $124 $328 forward 7 unknown #
edge $-1 $219 -40.950105578796105 $226 40.950105578796105 $125 $329 forward 7 unknown #
coedge $-1 $126 $330 $312 $331 reversed $218 $-1 #
loop $-1 $-1 $330 $309 #
vertex $-1 $130 $332 #
vertex $-1 $331 $333 #
straight-curve $-1 -85.463679185474035 40.950105578796105 -6.9108494996751517 0 0 -1 I I #
coedge $-1 $316 $129 $134 $230 reversed $218 $-1 #
straight-curve $-1 -81.342026671200102 40.950105578796105 -5.4108494996751517 -1 0 0 I I #
coedge $-1 $334 $131 $213 $326 forward $206 $-1 #
coedge $-1 $131 $318 $133 $229 forward $206 $-1 #
vertex $-1 $216 $335 #
straight-curve $-1 -81.342026671200102 -40.950105578796105 -5.4108494996751517 1 0 0 I I #
coedge $-1 $134 $133 $315 $336 reversed $135 $-1 #
edge $-1 $337 -8.4108494996751517 $137 5.4108494996751517 $133 $338 forward 7 unknown #
edge $-1 $339 -8.4108494996751517 $136 5.4108494996751517 $222 $340 forward 7 unknown #
point $-1 -77.220374156926169 40.950105578796105 -5.4108494996751517 #
point $-1 -77.220374156926169 -40.950105578796105 -5.4108494996751517 #
face $-1 $341 $342 $17 $-1 $343 reversed single #
loop $-1 $-1 $344 $139 #
plane-surface $-1 0 0 8.4108494996751517 0 0 1 1 0 0 forward_v I I I I #
coedge $-1 $345 $346 $347 $348 forward $140 $-1 #
coedge $-1 $349 $142 $350 $351 forward $78 $-1 #
coedge $-1 $142 $349 $352 $353 forward $78 $-1 #
coedge $-1 $354 $355 $142 $240 forward $356 $-1 #
edge $-1 $357 -40.950105578796105 $358 40.950105578796105 $239 $359 forward 7 unknown #
coedge $-1 $360 $361 $143 $242 forward $342 $-1 #
edge $-1 $362 -40.950105578796105 $245 40.950105578796105 $143 $363 forward 7 unknown #
coedge $-1 $144 $364 $360 $365 reversed $244 $-1 #
loop $-1 $-1 $366 $341 #
vertex $-1 $145 $367 #
straight-curve $-1 85.463679185474035 -40.950105578796105 -6.9108494996751517 0 0 -1 I I #
coedge $-1 $368 $369 $146 $248 forward $370 $-1 #
edge $-1 $255 -40.950105578796105 $252 40.950105578796105 $247 $371 forward 7 unknown #
coedge $-1 $372 $147 $151 $257 forward $251 $-1 #
coedge $-1 $147 $373 $368 $374 forward $251 $-1 #
loop $-1 $-1 $250 $375 #
vertex $-1 $148 $376 #
straight-curve $-1 81.342026671200102 40.950105578796105 -5.4108494996751517 -1 0 0 I I #
coedge $-1 $377 $149 $369 $378 reversed $244 $-1 #
vertex $-1 $378 $379 #
straight-curve $-1 81.342026671200102 -40.950105578796105 -5.4108494996751517 1 0 0 I I #
edge $-1 $153 -1.5 $362 1.5 $151 $380 forward 7 unknown #
point $-1 85.463679185474035 -40.950105578796105 -5.4108494996751517 #
point $-1 85.463679185474035 40.950105578796105 -5.4108494996751517 #
face $-1 $381 $382 $18 $-1 $383 reversed single #
loop $-1 $-1 $384 $155 #
plane-surface $-1 81.342026671200102 0 -5.4108494996751517 0 0 1 1 0 0 forward_v I I I I #
coedge $-1 $161 $385 $158 $266 forward $156 $-1 #
coedge $-1 $265 $158 $386 $387 reversed $86 $-1 #
coedge $-1 $158 $264 $159 $268 forward $86 $-1 #
edge $-1 $388 30.186071514357899 $269 38.498482750017921 $263 $389 forward 7 unknown #
coedge $-1 $160 $159 $273 $390 reversed $53 $-1 #
edge $-1 $391 9.44141639987384e-015 $269 11.014052994520901 $265 $392 forward 7 unknown #
vertex $-1 $162 $393 #
straight-curve $-1 -26.427877676072153 -32.637694343136083 8.4108494996751517 1 0 0 I I #
vertex $-1 $390 $394 #
straight-curve $-1 -36.734441575910303 -40.950105578796112 1.184980498967505 0 -0.75470957328743171 -0.6560590369687036 I I #
coedge $-1 $386 $164 $267 $390 forward $275 $-1 #
coedge $-1 $164 $395 $166 $278 reversed $275 $-1 #
loop $-1 $-1 $386 $396 #
straight-curve $-1 -36.734441575910303 -40.950105578796105 58.871445878553324 0 0 -1 I I #
coedge $-1 $397 $166 $398 $399 forward $156 $-1 #
edge $-1 $168 -36.734441575910303 $400 77.220374156926169 $274 $401 forward 7 unknown #
point $-1 -36.734441575910303 -32.637694343136083 8.4108494996751517 #
point $-1 -36.734441575910303 -40.950105578796105 8.4108494996751517 #
face $-1 $402 $403 $19 $-1 $404 forward single #
loop $-1 $-1 $405 $170 #
plane-surface $-1 -68.977069128378304 -142.27235418630801 117.74289175710665 1 0 0 0 0.6560590369687036 -0.75470957328743171 forward_v I I I I #
loop $-1 $-1 $406 $93 #
coedge $-1 $286 $173 $407 $408 forward $94 $-1 #
coedge $-1 $173 $285 $409 $410 reversed $94 $-1 #
coedge $-1 $411 $412 $173 $288 forward $403 $-1 #
edge $-1 $413 -38.498482750017921 $414 -30.186071514357899 $287 $415 forward 7 unknown #
edge $-1 $416 1 $416 0 $174 $-1 forward 7 unknown #
vertex $-1 $175 $417 #
ellipse-curve $-1 -52.855755352144307 -34.215514064705971 1.8318213859661663 0 -0.6560590369687036 0.75470957328743171 1.5 0 0 1 I I #
point $-1 -51.355755352144307 -36.793899960966101 4.7979149993213372 #
plane-surface $-1 77.220374156926169 0 0 -1 0 0 0 0 1 forward_v I I I I #
coedge $-1 $183 $181 $185 $298 reversed $102 $-1 #
edge $-1 $196 -8.4108494996751517 $300 8.4108494996751517 $195 $418 forward 7 unknown #
vertex $-1 $298 $419 #
straight-curve $-1 -77.220374156926169 -40.950105578796105 0 0 0 -1 I I #
edge $-1 $296 -40.950105578796105 $300 40.950105578796105 $294 $420 forward 7 unknown #
straight-curve $-1 0 -40.950105578796105 -8.4108494996751517 -1 0 0 I I #
vertex $-1 $188 $421 #
straight-curve $-1 0 40.950105578796105 -8.4108494996751517 1 0 0 I I #
point $-1 77.220374156926169 40.950105578796105 -8.4108494996751517 #
point $-1 77.220374156926169 -40.950105578796105 -8.4108494996751517 #
straight-curve $-1 -77.220374156926169 0 8.4108494996751517 0 -1 0 I I #
point $-1 -77.220374156926169 40.950105578796105 8.4108494996751517 #
point $-1 -77.220374156926169 -40.950105578796105 8.4108494996751517 #
straight-curve $-1 77.220374156926169 -40.950105578796105 0 0 0 -1 I I #
straight-curve $-1 77.220374156926169 40.950105578796105 0 0 0 -1 I I #
face $-1 $422 $218 $16 $-1 $423 reversed single #
plane-surface $-1 -77.220374156926169 0 0 1 0 0 0 0 -1 forward_v I I I I #
coedge $-1 $214 $208 $334 $424 forward $121 $-1 #
coedge $-1 $208 $214 $217 $331 forward $121 $-1 #
coedge $-1 $321 $320 $208 $314 reversed $322 $-1 #
edge $-1 $425 -40.950105578796105 $426 40.950105578796105 $313 $427 forward 7 unknown #
coedge $-1 $210 $209 $228 $336 forward $70 $-1 #
coedge $-1 $330 $222 $209 $317 reversed $218 $-1 #
edge $-1 $324 -77.220374156926169 $339 77.220374156926169 $316 $428 forward 7 unknown #
coedge $-1 $225 $429 $210 $319 reversed $206 $-1 #
edge $-1 $337 -77.220374156926169 $323 77.220374156926169 $318 $430 forward 7 unknown #
coedge $-1 $313 $211 $429 $431 forward $322 $-1 #
coedge $-1 $211 $313 $330 $432 reversed $322 $-1 #
loop $-1 $-1 $320 $422 #
vertex $-1 $212 $433 #
vertex $-1 $212 $434 #
straight-curve $-1 77.220374156926169 0 8.4108494996751517 0 1 0 I I #
edge $-1 $226 -1.5 $327 1.5 $213 $435 forward 7 unknown #
vertex $-1 $215 $436 #
straight-curve $-1 -85.463679185474035 0 -8.4108494996751517 0 1 0 I I #
straight-curve $-1 -85.463679185474035 0 -5.4108494996751517 0 -1 0 I I #
coedge $-1 $217 $316 $321 $432 forward $218 $-1 #
edge $-1 $220 -85.463679185474035 $425 77.220374156926169 $217 $437 forward 7 unknown #
point $-1 -85.463679185474035 40.950105578796105 -5.4108494996751517 #
point $-1 -85.463679185474035 40.950105578796105 -8.4108494996751517 #
coedge $-1 $429 $224 $311 $424 reversed $206 $-1 #
point $-1 -85.463679185474035 -40.950105578796105 -5.4108494996751517 #
edge $-1 $339 -40.950105578796105 $337 40.950105578796105 $228 $438 forward 7 unknown #
vertex $-1 $336 $439 #
straight-curve $-1 -77.220374156926169 -40.950105578796105 0 0 0 -1 I I #
vertex $-1 $317 $440 #
straight-curve $-1 -77.220374156926169 40.950105578796105 0 0 0 -1 I I #
face $-1 $441 $244 $17 $-1 $442 reversed single #
loop $-1 $-1 $360 $233 #
plane-surface $-1 0 0 -8.4108494996751517 0 0 1 1 0 0 forward_v I I I I #
coedge $-1 $443 $444 $445 $446 forward $234 $-1 #
coedge $-1 $447 $236 $448 $449 reversed $140 $-1 #
coedge $-1 $236 $447 $349 $450 reversed $140 $-1 #
coedge $-1 $350 $372 $236 $348 reversed $251 $-1 #
edge $-1 $451 -1.5 $452 1.5 $347 $453 forward 7 unknown #
coedge $-1 $238 $237 $346 $450 forward $78 $-1 #
coedge $-1 $454 $347 $237 $351 reversed $251 $-1 #
edge $-1 $357 -4.1216525142739329 $451 4.1216525142739329 $350 $455 forward 7 unknown #
coedge $-1 $364 $366 $238 $353 reversed $244 $-1 #
edge $-1 $456 -4.1216525142739329 $358 4.1216525142739329 $352 $457 forward 7 unknown #
coedge $-1 $458 $239 $366 $459 reversed $356 $-1 #
coedge $-1 $239 $458 $454 $460 forward $356 $-1 #
loop $-1 $-1 $239 $441 #
vertex $-1 $460 $461 #
vertex $-1 $353 $462 #
straight-curve $-1 -77.220374156926169 0 -5.4108494996751517 0 -1 0 I I #
coedge $-1 $448 $241 $243 $365 forward $342 $-1 #
coedge $-1 $241 $448 $372 $463 forward $342 $-1 #
vertex $-1 $242 $464 #
straight-curve $-1 85.463679185474035 0 -8.4108494996751517 0 -1 0 I I #
coedge $-1 $243 $352 $447 $465 forward $244 $-1 #
edge $-1 $245 -4.1216525142739329 $466 166.80570585667414 $243 $467 forward 7 unknown #
coedge $-1 $352 $377 $354 $459 forward $244 $-1 #
point $-1 85.463679185474035 -40.950105578796105 -8.4108494996751517 #
coedge $-1 $445 $247 $250 $374 reversed $370 $-1 #
coedge $-1 $247 $445 $254 $378 forward $370 $-1 #
loop $-1 $-1 $247 $468 #
straight-curve $-1 77.220374156926169 0 -5.4108494996751517 0 1 0 I I #
coedge $-1 $347 $249 $361 $463 reversed $251 $-1 #
coedge $-1 $250 $454 $443 $469 reversed $251 $-1 #
edge $-1 $470 -8.4108494996751517 $252 5.4108494996751517 $368 $471 forward 7 unknown #
face $-1 $468 $251 $17 $-1 $472 reversed single #
point $-1 77.220374156926169 40.950105578796105 -5.4108494996751517 #
coedge $-1 $366 $254 $444 $473 reversed $244 $-1 #
edge $-1 $474 -8.4108494996751517 $255 5.4108494996751517 $369 $475 forward 7 unknown #
point $-1 77.220374156926169 -40.950105578796105 -5.4108494996751517 #
straight-curve $-1 85.463679185474035 40.950105578796105 -6.9108494996751517 0 0 -1 I I #
face $-1 $476 $477 $18 $-1 $478 forward single #
loop $-1 $-1 $479 $260 #
plane-surface $-1 85.463679185474035 0 -6.9108494996751517 -1 0 0 0 0 1 forward_v I I I I #
coedge $-1 $480 $481 $482 $483 forward $261 $-1 #
coedge $-1 $263 $484 $485 $486 forward $156 $-1 #
coedge $-1 $485 $273 $264 $387 forward $275 $-1 #
edge $-1 $391 -57.686465379585812 $388 -50.460596378878172 $386 $487 forward 7 unknown #
vertex $-1 $387 $488 #
straight-curve $-1 -68.977069128378304 -71.136177093154004 8.4108494996751517 0 1 0 I I #
edge $-1 $271 10.306563899838149 $391 42.549191452306147 $273 $489 forward 7 unknown #
vertex $-1 $390 $490 #
straight-curve $-1 -68.977069128378304 -40.950105578796112 1.184980498967505 0 0.75470957328743171 0.6560590369687036 I I #
point $-1 -68.977069128378304 -32.637694343136083 8.4108494996751517 #
point $-1 -36.734441575910303 -40.950105578796105 1.1849804989675112 #
coedge $-1 $274 $491 $492 $493 reversed $275 $-1 #
face $-1 $494 $275 $18 $-1 $495 reversed single #
coedge $-1 $484 $277 $496 $497 forward $156 $-1 #
coedge $-1 $492 $498 $277 $399 reversed $499 $-1 #
edge $-1 $400 -40.950105578796105 $500 40.950105578796105 $398 $501 forward 7 unknown #
vertex $-1 $399 $502 #
straight-curve $-1 0 -40.950105578796105 8.4108494996751517 1 0 0 I I #
face $-1 $503 $504 $19 $-1 $505 forward single #
loop $-1 $-1 $506 $281 #
plane-surface $-1 0 0 8.4108494996751517 0 0 1 1 0 0 forward_v I I I I #
coedge $-1 $507 $508 $506 $509 reversed $282 $-1 #
coedge $-1 $510 $407 $412 $511 reversed $284 $-1 #
coedge $-1 $406 $512 $285 $408 reversed $284 $-1 #
edge $-1 $413 -11.014052994520901 $513 -9.44141639987384e-015 $285 $514 forward 7 unknown #
coedge $-1 $515 $516 $286 $410 forward $517 $-1 #
edge $-1 $414 50.460596378878172 $513 57.686465379585812 $409 $518 forward 7 unknown #
coedge $-1 $519 $287 $516 $520 forward $403 $-1 #
coedge $-1 $287 $506 $406 $511 forward $403 $-1 #
vertex $-1 $511 $521 #
vertex $-1 $520 $522 #
straight-curve $-1 -36.734441575910303 -71.136177093154004 8.4108494996751517 0 -1 0 I I #
vertex $-1 $289 $523 #
point $-1 -51.355755352144307 -34.215514064705971 1.8318213859661663 #
straight-curve $-1 -77.220374156926169 40.950105578796105 0 0 0 -1 I I #
point $-1 -77.220374156926169 -40.950105578796105 -8.4108494996751517 #
straight-curve $-1 -77.220374156926169 0 -8.4108494996751517 0 1 0 I I #
point $-1 -77.220374156926169 40.950105578796105 -8.4108494996751517 #
face $-1 $-1 $322 $16 $-1 $524 reversed single #
plane-surface $-1 0 40.950105578796105 0 0 -1 0 0 0 -1 forward_v I I I I #
edge $-1 $426 -158.56240082812627 $327 4.1216525142739329 $334 $525 forward 7 unknown #
vertex $-1 $314 $526 #
vertex $-1 $431 $527 #
straight-curve $-1 77.220374156926169 0 -8.4108494996751517 0 -1 0 I I #
straight-curve $-1 0 40.950105578796105 8.4108494996751517 -1 0 0 I I #
coedge $-1 $318 $334 $320 $431 reversed $206 $-1 #
straight-curve $-1 0 -40.950105578796105 8.4108494996751517 1 0 0 I I #
edge $-1 $323 -8.4108494996751517 $426 8.4108494996751517 $320 $528 forward 7 unknown #
edge $-1 $324 -8.4108494996751517 $425 8.4108494996751517 $321 $529 forward 7 unknown #
point $-1 77.220374156926169 -40.950105578796105 8.4108494996751517 #
point $-1 77.220374156926169 40.950105578796105 8.4108494996751517 #
straight-curve $-1 -85.463679185474035 -40.950105578796105 -6.9108494996751517 0 0 -1 I I #
point $-1 -85.463679185474035 -40.950105578796105 -8.4108494996751517 #
straight-curve $-1 0 40.950105578796105 -8.4108494996751517 1 0 0 I I #
straight-curve $-1 -77.220374156926169 0 8.4108494996751517 0 -1 0 I I #
point $-1 -77.220374156926169 -40.950105578796105 8.4108494996751517 #
point $-1 -77.220374156926169 40.950105578796105 8.4108494996751517 #
face $-1 $375 $356 $17 $-1 $530 reversed single #
plane-surface $-1 0 -40.950105578796105 0 0 1 0 0 0 1 forward_v I I I I #
coedge $-1 $531 $344 $373 $469 forward $234 $-1 #
coedge $-1 $344 $531 $377 $473 forward $234 $-1 #
coedge $-1 $369 $368 $344 $446 reversed $370 $-1 #
edge $-1 $474 -40.950105578796105 $470 40.950105578796105 $445 $532 forward 7 unknown #
coedge $-1 $346 $345 $364 $465 reversed $140 $-1 #
coedge $-1 $361 $360 $345 $449 forward $342 $-1 #
edge $-1 $466 -40.950105578796105 $452 40.950105578796105 $345 $533 forward 7 unknown #
edge $-1 $451 -40.950105578796105 $456 40.950105578796105 $346 $534 forward 7 unknown #
vertex $-1 $351 $535 #
vertex $-1 $463 $536 #
straight-curve $-1 -85.463679185474035 40.950105578796105 -6.9108494996751517 0 0 -1 I I #
coedge $-1 $373 $350 $355 $460 reversed $251 $-1 #
straight-curve $-1 -81.342026671200102 40.950105578796105 -5.4108494996751517 -1 0 0 I I #
vertex $-1 $450 $537 #
straight-curve $-1 -81.342026671200102 -40.950105578796105 -5.4108494996751517 1 0 0 I I #
coedge $-1 $355 $354 $531 $538 reversed $356 $-1 #
edge $-1 $539 -8.4108494996751517 $358 5.4108494996751517 $354 $540 forward 7 unknown #
edge $-1 $541 -8.4108494996751517 $357 5.4108494996751517 $454 $542 forward 7 unknown #
point $-1 -77.220374156926169 40.950105578796105 -5.4108494996751517 #
point $-1 -77.220374156926169 -40.950105578796105 -5.4108494996751517 #
edge $-1 $452 -166.80570585667414 $362 4.1216525142739329 $372 $543 forward 7 unknown #
point $-1 85.463679185474035 40.950105578796105 -8.4108494996751517 #
edge $-1 $456 -1.5 $466 1.5 $447 $544 forward 7 unknown #
vertex $-1 $449 $545 #
straight-curve $-1 81.342026671200102 -40.950105578796105 -8.4108494996751517 -1 0 0 I I #
face $-1 $-1 $370 $17 $-1 $546 reversed single #
edge $-1 $470 -77.220374156926169 $541 77.220374156926169 $373 $547 forward 7 unknown #
vertex $-1 $446 $548 #
straight-curve $-1 77.220374156926169 40.950105578796105 0 0 0 -1 I I #
plane-surface $-1 0 40.950105578796105 0 0 -1 0 0 0 -1 forward_v I I I I #
edge $-1 $539 -77.220374156926169 $474 77.220374156926169 $377 $549 forward 7 unknown #
vertex $-1 $446 $550 #
straight-curve $-1 77.220374156926169 -40.950105578796105 0 0 0 -1 I I #
face $-1 $551 $552 $18 $-1 $553 reversed single #
loop $-1 $-1 $554 $381 #
plane-surface $-1 -81.342026671200102 0 -5.4108494996751517 0 0 1 1 0 0 forward_v I I I I #
coedge $-1 $555 $482 $556 $557 forward $382 $-1 #
coedge $-1 $558 $384 $559 $560 forward $261 $-1 #
coedge $-1 $384 $558 $491 $561 forward $261 $-1 #
coedge $-1 $479 $562 $384 $483 reversed $382 $-1 #
edge $-1 $563 -40.950105578796105 $564 40.950105578796105 $482 $565 forward 7 unknown #
coedge $-1 $385 $397 $566 $567 forward $156 $-1 #
coedge $-1 $568 $386 $385 $486 reversed $275 $-1 #
edge $-1 $569 -77.220374156926169 $388 -68.977069128378304 $485 $401 forward 7 unknown #
straight-curve $-1 -68.977069128378304 -40.950105578796105 58.871445878553324 0 0 1 I I #
point $-1 -68.977069128378304 -40.950105578796105 8.4108494996751517 #
straight-curve $-1 -26.427877676072153 -40.950105578796105 1.1849804989675141 -1 0 0 I I #
point $-1 -68.977069128378304 -40.950105578796105 1.1849804989675112 #
coedge $-1 $395 $556 $481 $561 reversed $275 $-1 #
coedge $-1 $570 $398 $395 $493 forward $499 $-1 #
edge $-1 $400 -8.4108494996751517 $571 5.4108494996751517 $492 $572 forward 7 unknown #
face $-1 $573 $574 $18 $-1 $575 reversed single #
plane-surface $-1 0 -40.950105578796105 0 0 1 0 0 0 1 forward_v I I I I #
coedge $-1 $576 $577 $397 $497 reversed $578 $-1 #
edge $-1 $500 -77.220374156926169 $579 77.220374156926169 $496 $580 forward 7 unknown #
coedge $-1 $398 $570 $576 $581 reversed $499 $-1 #
loop $-1 $-1 $570 $582 #
vertex $-1 $399 $583 #
straight-curve $-1 77.220374156926169 0 8.4108494996751517 0 1 0 I I #
point $-1 77.220374156926169 -40.950105578796105 8.4108494996751517 #
face $-1 $584 $585 $19 $-1 $586 reversed single #
loop $-1 $-1 $587 $402 #
plane-surface $-1 81.342026671200102 0 -5.4108494996751517 0 0 1 1 0 0 forward_v I I I I #
coedge $-1 $412 $588 $405 $509 forward $403 $-1 #
coedge $-1 $508 $405 $589 $590 reversed $282 $-1 #
coedge $-1 $405 $507 $510 $591 forward $282 $-1 #
edge $-1 $592 30.186071514357899 $593 38.498482750017921 $506 $594 forward 7 unknown #
coedge $-1 $512 $406 $508 $591 reversed $284 $-1 #
edge $-1 $593 -42.549191452306147 $413 -10.306563899838149 $412 $595 forward 7 unknown #
coedge $-1 $407 $510 $515 $596 reversed $284 $-1 #
vertex $-1 $596 $597 #
straight-curve $-1 -36.734441575910303 -40.950105578796112 1.184980498967505 0 -0.75470957328743171 -0.6560590369687036 I I #
coedge $-1 $589 $409 $512 $596 forward $517 $-1 #
coedge $-1 $409 $598 $411 $520 reversed $517 $-1 #
loop $-1 $-1 $589 $599 #
straight-curve $-1 -36.734441575910303 -40.950105578796105 58.871445878553324 0 0 -1 I I #
coedge $-1 $600 $411 $601 $602 forward $403 $-1 #
edge $-1 $414 -36.734441575910303 $603 77.220374156926169 $516 $604 forward 7 unknown #
point $-1 -36.734441575910303 -32.637694343136083 8.4108494996751517 #
point $-1 -36.734441575910303 -40.950105578796105 8.4108494996751517 #
point $-1 -52.855755352144307 -33.231425509252915 0.69975702603501866 #
plane-surface $-1 77.220374156926169 0 0 -1 0 0 0 0 1 forward_v I I I I #
straight-curve $-1 -81.342026671200102 -40.950105578796105 -8.4108494996751517 -1 0 0 I I #
point $-1 77.220374156926169 40.950105578796105 -8.4108494996751517 #
point $-1 77.220374156926169 -40.950105578796105 -8.4108494996751517 #
straight-curve $-1 77.220374156926169 -40.950105578796105 0 0 0 -1 I I #
straight-curve $-1 77.220374156926169 40.950105578796105 0 0 0 -1 I I #
plane-surface $-1 -77.220374156926169 0 0 1 0 0 0 0 -1 forward_v I I I I #
coedge $-1 $444 $443 $458 $538 forward $234 $-1 #
straight-curve $-1 77.220374156926169 0 8.4108494996751517 0 1 0 I I #
straight-curve $-1 -85.463679185474035 0 -8.4108494996751517 0 1 0 I I #
straight-curve $-1 -85.463679185474035 0 -5.4108494996751517 0 -1 0 I I #
point $-1 -85.463679185474035 40.950105578796105 -5.4108494996751517 #
point $-1 -85.463679185474035 40.950105578796105 -8.4108494996751517 #
point $-1 -85.463679185474035 -40.950105578796105 -5.4108494996751517 #
edge $-1 $541 -40.950105578796105 $539 40.950105578796105 $458 $605 forward 7 unknown #
vertex $-1 $538 $606 #
straight-curve $-1 -77.220374156926169 -40.950105578796105 0 0 0 -1 I I #
vertex $-1 $469 $607 #
straight-curve $-1 -77.220374156926169 40.950105578796105 0 0 0 -1 I I #
straight-curve $-1 81.342026671200102 40.950105578796105 -8.4108494996751517 1 0 0 I I #
straight-curve $-1 -85.463679185474035 -40.950105578796105 -6.9108494996751517 0 0 -1 I I #
point $-1 -85.463679185474035 -40.950105578796105 -8.4108494996751517 #
plane-surface $-1 77.220374156926169 0 0 -1 0 0 0 0 1 forward_v I I I I #
straight-curve $-1 0 40.950105578796105 8.4108494996751517 -1 0 0 I I #
point $-1 77.220374156926169 40.950105578796105 8.4108494996751517 #
straight-curve $-1 0 -40.950105578796105 8.4108494996751517 1 0 0 I I #
point $-1 77.220374156926169 -40.950105578796105 8.4108494996751517 #
face $-1 $396 $608 $18 $-1 $609 reversed single #
loop $-1 $-1 $610 $476 #
plane-surface $-1 -85.463679185474035 0 -6.9108494996751517 1 0 0 0 0 -1 forward_v I I I I #
coedge $-1 $611 $612 $613 $614 reversed $477 $-1 #
coedge $-1 $562 $479 $615 $616 reversed $382 $-1 #
coedge $-1 $491 $617 $479 $557 reversed $275 $-1 #
edge $-1 $563 -1.5 $618 1.5 $479 $619 forward 7 unknown #
coedge $-1 $481 $480 $570 $620 reversed $261 $-1 #
coedge $-1 $621 $576 $480 $560 reversed $578 $-1 #
edge $-1 $564 -4.1216525142739329 $622 4.1216525142739329 $559 $623 forward 7 unknown #
edge $-1 $571 -4.1216525142739329 $563 4.1216525142739329 $491 $624 forward 7 unknown #
coedge $-1 $482 $555 $621 $625 reversed $382 $-1 #
vertex $-1 $483 $626 #
vertex $-1 $483 $627 #
straight-curve $-1 85.463679185474035 0 -5.4108494996751517 0 1 0 I I #
coedge $-1 $628 $629 $484 $567 reversed $574 $-1 #
edge $-1 $579 -40.950105578796105 $569 40.950105578796105 $566 $630 forward 7 unknown #
coedge $-1 $631 $485 $629 $632 forward $275 $-1 #
vertex $-1 $567 $633 #
coedge $-1 $498 $492 $558 $620 forward $499 $-1 #
vertex $-1 $493 $634 #
straight-curve $-1 77.220374156926169 -40.950105578796105 0 0 0 -1 I I #
face $-1 $582 $578 $18 $-1 $635 reversed single #
loop $-1 $-1 $613 $494 #
plane-surface $-1 -77.220374156926169 0 0 1 0 0 0 0 -1 forward_v I I I I #
coedge $-1 $559 $496 $498 $581 forward $578 $-1 #
coedge $-1 $496 $636 $628 $637 reversed $578 $-1 #
loop $-1 $-1 $576 $573 #
vertex $-1 $497 $638 #
straight-curve $-1 0 40.950105578796105 8.4108494996751517 -1 0 0 I I #
edge $-1 $500 -8.4108494996751517 $622 5.4108494996751517 $498 $639 forward 7 unknown #
face $-1 $-1 $499 $18 $-1 $640 reversed single #
point $-1 77.220374156926169 40.950105578796105 8.4108494996751517 #
face $-1 $641 $642 $19 $-1 $643 forward single #
loop $-1 $-1 $644 $503 #
plane-surface $-1 85.463679185474035 0 -6.9108494996751517 -1 0 0 0 0 1 forward_v I I I I #
coedge $-1 $645 $646 $647 $648 forward $504 $-1 #
coedge $-1 $506 $649 $650 $651 forward $403 $-1 #
coedge $-1 $650 $515 $507 $590 forward $517 $-1 #
edge $-1 $652 -57.686465379585812 $592 -50.460596378878172 $589 $653 forward 7 unknown #
edge $-1 $652 9.44141639987384e-015 $593 11.014052994520901 $508 $654 forward 7 unknown #
vertex $-1 $590 $655 #
vertex $-1 $511 $656 #
straight-curve $-1 -68.977069128378304 -71.136177093154004 8.4108494996751517 0 1 0 I I #
straight-curve $-1 -26.427877676072153 -32.637694343136083 8.4108494996751517 1 0 0 I I #
edge $-1 $513 10.306563899838149 $652 42.549191452306147 $515 $657 forward 7 unknown #
point $-1 -36.734441575910303 -40.950105578796105 1.1849804989675112 #
coedge $-1 $516 $658 $659 $660 reversed $517 $-1 #
face $-1 $661 $517 $19 $-1 $662 reversed single #
coedge $-1 $649 $519 $663 $664 forward $403 $-1 #
coedge $-1 $659 $665 $519 $602 reversed $666 $-1 #
edge $-1 $603 -40.950105578796105 $667 40.950105578796105 $601 $668 forward 7 unknown #
vertex $-1 $602 $669 #
straight-curve $-1 0 -40.950105578796105 8.4108494996751517 1 0 0 I I #
straight-curve $-1 -77.220374156926169 0 8.4108494996751517 0 -1 0 I I #
point $-1 -77.220374156926169 -40.950105578796105 8.4108494996751517 #
point $-1 -77.220374156926169 40.950105578796105 8.4108494996751517 #
loop $-1 $-1 $670 $551 #
plane-surface $-1 0 0 -8.4108494996751517 0 0 1 1 0 0 forward_v I I I I #
coedge $-1 $671 $672 $673 $674 forward $552 $-1 #
coedge $-1 $675 $554 $636 $676 forward $477 $-1 #
coedge $-1 $554 $675 $631 $677 forward $477 $-1 #
coedge $-1 $629 $628 $554 $614 forward $574 $-1 #
edge $-1 $678 -40.950105578796105 $679 40.950105578796105 $613 $680 forward 7 unknown #
coedge $-1 $670 $681 $555 $616 forward $608 $-1 #
edge $-1 $682 -40.950105578796105 $618 40.950105578796105 $555 $683 forward 7 unknown #
coedge $-1 $556 $684 $670 $685 reversed $275 $-1 #
vertex $-1 $557 $686 #
straight-curve $-1 85.463679185474035 -40.950105578796105 -6.9108494996751517 0 0 -1 I I #
edge $-1 $571 -40.950105578796105 $622 40.950105578796105 $570 $687 forward 7 unknown #
coedge $-1 $688 $559 $562 $625 forward $578 $-1 #
vertex $-1 $560 $689 #
straight-curve $-1 81.342026671200102 40.950105578796105 -5.4108494996751517 -1 0 0 I I #
straight-curve $-1 81.342026671200102 -40.950105578796105 -5.4108494996751517 1 0 0 I I #
edge $-1 $564 -1.5 $682 1.5 $562 $690 forward 7 unknown #
point $-1 85.463679185474035 -40.950105578796105 -5.4108494996751517 #
point $-1 85.463679185474035 40.950105578796105 -5.4108494996751517 #
coedge $-1 $613 $566 $577 $637 forward $574 $-1 #
coedge $-1 $566 $613 $568 $632 reversed $574 $-1 #
straight-curve $-1 -77.220374156926169 0 8.4108494996751517 0 -1 0 I I #
coedge $-1 $684 $568 $612 $677 reversed $275 $-1 #
edge $-1 $569 -8.4108494996751517 $679 5.4108494996751517 $629 $691 forward 7 unknown #
point $-1 -77.220374156926169 -40.950105578796105 8.4108494996751517 #
point $-1 77.220374156926169 -40.950105578796105 -5.4108494996751517 #
plane-surface $-1 0 40.950105578796105 0 0 -1 0 0 0 -1 forward_v I I I I #
coedge $-1 $577 $673 $611 $676 reversed $578 $-1 #
edge $-1 $579 -8.4108494996751517 $678 5.4108494996751517 $577 $692 forward 7 unknown #
point $-1 -77.220374156926169 40.950105578796105 8.4108494996751517 #
straight-curve $-1 77.220374156926169 40.950105578796105 0 0 0 -1 I I #
plane-surface $-1 77.220374156926169 0 0 -1 0 0 0 0 1 forward_v I I I I #
face $-1 $693 $694 $19 $-1 $695 reversed single #
loop $-1 $-1 $696 $584 #
plane-surface $-1 -81.342026671200102 0 -5.4108494996751517 0 0 1 1 0 0 forward_v I I I I #
coedge $-1 $697 $647 $698 $699 forward $585 $-1 #
coedge $-1 $700 $587 $701 $702 forward $504 $-1 #
coedge $-1 $587 $700 $658 $703 forward $504 $-1 #
coedge $-1 $644 $704 $587 $648 reversed $585 $-1 #
edge $-1 $705 -40.950105578796105 $706 40.950105578796105 $647 $707 forward 7 unknown #
coedge $-1 $588 $600 $708 $709 forward $403 $-1 #
coedge $-1 $710 $589 $588 $651 reversed $517 $-1 #
edge $-1 $711 -77.220374156926169 $592 -68.977069128378304 $650 $604 forward 7 unknown #
vertex $-1 $596 $712 #
straight-curve $-1 -68.977069128378304 -40.950105578796105 58.871445878553324 0 0 1 I I #
straight-curve $-1 -68.977069128378304 -40.950105578796112 1.184980498967505 0 0.75470957328743171 0.6560590369687036 I I #
point $-1 -68.977069128378304 -40.950105578796105 8.4108494996751517 #
point $-1 -68.977069128378304 -32.637694343136083 8.4108494996751517 #
straight-curve $-1 -26.427877676072153 -40.950105578796105 1.1849804989675141 -1 0 0 I I #
coedge $-1 $598 $698 $646 $703 reversed $517 $-1 #
coedge $-1 $713 $601 $598 $660 forward $666 $-1 #
edge $-1 $603 -8.4108494996751517 $714 5.4108494996751517 $659 $715 forward 7 unknown #
face $-1 $716 $717 $19 $-1 $718 reversed single #
plane-surface $-1 0 -40.950105578796105 0 0 1 0 0 0 1 forward_v I I I I #
coedge $-1 $719 $720 $600 $664 reversed $721 $-1 #
edge $-1 $667 -77.220374156926169 $722 77.220374156926169 $663 $723 forward 7 unknown #
coedge $-1 $601 $713 $719 $724 reversed $666 $-1 #
loop $-1 $-1 $713 $725 #
vertex $-1 $602 $726 #
straight-curve $-1 77.220374156926169 0 8.4108494996751517 0 1 0 I I #
point $-1 77.220374156926169 -40.950105578796105 8.4108494996751517 #
coedge $-1 $727 $615 $617 $685 forward $608 $-1 #
coedge $-1 $728 $610 $727 $729 reversed $552 $-1 #
coedge $-1 $610 $728 $675 $730 reversed $552 $-1 #
coedge $-1 $636 $688 $610 $674 reversed $578 $-1 #
edge $-1 $731 -1.5 $732 1.5 $673 $733 forward 7 unknown #
coedge $-1 $612 $611 $672 $730 forward $477 $-1 #
edge $-1 $678 -4.1216525142739329 $731 4.1216525142739329 $636 $734 forward 7 unknown #
edge $-1 $735 -4.1216525142739329 $679 4.1216525142739329 $631 $736 forward 7 unknown #
vertex $-1 $637 $737 #
vertex $-1 $677 $738 #
straight-curve $-1 -77.220374156926169 0 -5.4108494996751517 0 -1 0 I I #
coedge $-1 $615 $727 $688 $739 forward $608 $-1 #
vertex $-1 $616 $740 #
straight-curve $-1 85.463679185474035 0 -8.4108494996751517 0 -1 0 I I #
coedge $-1 $617 $631 $728 $741 forward $275 $-1 #
edge $-1 $618 -4.1216525142739329 $742 166.80570585667414 $617 $743 forward 7 unknown #
point $-1 85.463679185474035 -40.950105578796105 -8.4108494996751517 #
straight-curve $-1 77.220374156926169 0 -5.4108494996751517 0 1 0 I I #
coedge $-1 $673 $621 $681 $739 reversed $578 $-1 #
point $-1 77.220374156926169 40.950105578796105 -5.4108494996751517 #
straight-curve $-1 85.463679185474035 40.950105578796105 -6.9108494996751517 0 0 -1 I I #
straight-curve $-1 -77.220374156926169 -40.950105578796105 0 0 0 -1 I I #
straight-curve $-1 -77.220374156926169 40.950105578796105 0 0 0 -1 I I #
face $-1 $599 $744 $19 $-1 $745 reversed single #
loop $-1 $-1 $746 $641 #
plane-surface $-1 -85.463679185474035 0 -6.9108494996751517 1 0 0 0 0 -1 forward_v I I I I #
coedge $-1 $747 $748 $749 $750 reversed $642 $-1 #
coedge $-1 $704 $644 $751 $752 reversed $585 $-1 #
coedge $-1 $658 $753 $644 $699 reversed $517 $-1 #
edge $-1 $705 -1.5 $754 1.5 $644 $755 forward 7 unknown #
coedge $-1 $646 $645 $713 $756 reversed $504 $-1 #
coedge $-1 $757 $719 $645 $702 reversed $721 $-1 #
edge $-1 $706 -4.1216525142739329 $758 4.1216525142739329 $701 $759 forward 7 unknown #
edge $-1 $714 -4.1216525142739329 $705 4.1216525142739329 $658 $760 forward 7 unknown #
coedge $-1 $647 $697 $757 $761 reversed $585 $-1 #
vertex $-1 $648 $762 #
vertex $-1 $648 $763 #
straight-curve $-1 85.463679185474035 0 -5.4108494996751517 0 1 0 I I #
coedge $-1 $764 $765 $649 $709 reversed $717 $-1 #
edge $-1 $722 -40.950105578796105 $711 40.950105578796105 $708 $766 forward 7 unknown #
coedge $-1 $767 $650 $765 $768 forward $517 $-1 #
vertex $-1 $709 $769 #
point $-1 -68.977069128378304 -40.950105578796105 1.1849804989675112 #
coedge $-1 $665 $659 $700 $756 forward $666 $-1 #
vertex $-1 $660 $770 #
straight-curve $-1 77.220374156926169 -40.950105578796105 0 0 0 -1 I I #
face $-1 $725 $721 $19 $-1 $771 reversed single #
loop $-1 $-1 $749 $661 #
plane-surface $-1 -77.220374156926169 0 0 1 0 0 0 0 -1 forward_v I I I I #
coedge $-1 $701 $663 $665 $724 forward $721 $-1 #
coedge $-1 $663 $772 $764 $773 reversed $721 $-1 #
loop $-1 $-1 $719 $716 #
vertex $-1 $664 $774 #
straight-curve $-1 0 40.950105578796105 8.4108494996751517 -1 0 0 I I #
edge $-1 $667 -8.4108494996751517 $758 5.4108494996751517 $665 $775 forward 7 unknown #
face $-1 $-1 $666 $19 $-1 $776 reversed single #
point $-1 77.220374156926169 40.950105578796105 8.4108494996751517 #
coedge $-1 $681 $670 $671 $729 forward $608 $-1 #
coedge $-1 $672 $671 $684 $741 reversed $552 $-1 #
edge $-1 $742 -40.950105578796105 $732 40.950105578796105 $671 $777 forward 7 unknown #
edge $-1 $731 -40.950105578796105 $735 40.950105578796105 $672 $778 forward 7 unknown #
vertex $-1 $676 $779 #
vertex $-1 $739 $780 #
straight-curve $-1 -85.463679185474035 40.950105578796105 -6.9108494996751517 0 0 -1 I I #
straight-curve $-1 -81.342026671200102 40.950105578796105 -5.4108494996751517 -1 0 0 I I #
vertex $-1 $730 $781 #
straight-curve $-1 -81.342026671200102 -40.950105578796105 -5.4108494996751517 1 0 0 I I #
point $-1 -77.220374156926169 40.950105578796105 -5.4108494996751517 #
point $-1 -77.220374156926169 -40.950105578796105 -5.4108494996751517 #
edge $-1 $732 -166.80570585667414 $682 4.1216525142739329 $688 $782 forward 7 unknown #
point $-1 85.463679185474035 40.950105578796105 -8.4108494996751517 #
edge $-1 $735 -1.5 $742 1.5 $728 $783 forward 7 unknown #
vertex $-1 $729 $784 #
straight-curve $-1 81.342026671200102 -40.950105578796105 -8.4108494996751517 -1 0 0 I I #
loop $-1 $-1 $785 $693 #
plane-surface $-1 0 0 -8.4108494996751517 0 0 1 1 0 0 forward_v I I I I #
coedge $-1 $786 $787 $788 $789 forward $694 $-1 #
coedge $-1 $790 $696 $772 $791 forward $642 $-1 #
coedge $-1 $696 $790 $767 $792 forward $642 $-1 #
coedge $-1 $765 $764 $696 $750 forward $717 $-1 #
edge $-1 $793 -40.950105578796105 $794 40.950105578796105 $749 $795 forward 7 unknown #
coedge $-1 $785 $796 $697 $752 forward $744 $-1 #
edge $-1 $797 -40.950105578796105 $754 40.950105578796105 $697 $798 forward 7 unknown #
coedge $-1 $698 $799 $785 $800 reversed $517 $-1 #
vertex $-1 $699 $801 #
straight-curve $-1 85.463679185474035 -40.950105578796105 -6.9108494996751517 0 0 -1 I I #
edge $-1 $714 -40.950105578796105 $758 40.950105578796105 $713 $802 forward 7 unknown #
coedge $-1 $803 $701 $704 $761 forward $721 $-1 #
vertex $-1 $702 $804 #
straight-curve $-1 81.342026671200102 40.950105578796105 -5.4108494996751517 -1 0 0 I I #
straight-curve $-1 81.342026671200102 -40.950105578796105 -5.4108494996751517 1 0 0 I I #
edge $-1 $706 -1.5 $797 1.5 $704 $805 forward 7 unknown #
point $-1 85.463679185474035 -40.950105578796105 -5.4108494996751517 #
point $-1 85.463679185474035 40.950105578796105 -5.4108494996751517 #
coedge $-1 $749 $708 $720 $773 forward $717 $-1 #
coedge $-1 $708 $749 $710 $768 reversed $717 $-1 #
straight-curve $-1 -77.220374156926169 0 8.4108494996751517 0 -1 0 I I #
coedge $-1 $799 $710 $748 $792 reversed $517 $-1 #
edge $-1 $711 -8.4108494996751517 $794 5.4108494996751517 $765 $806 forward 7 unknown #
point $-1 -77.220374156926169 -40.950105578796105 8.4108494996751517 #
point $-1 77.220374156926169 -40.950105578796105 -5.4108494996751517 #
plane-surface $-1 0 40.950105578796105 0 0 -1 0 0 0 -1 forward_v I I I I #
coedge $-1 $720 $788 $747 $791 reversed $721 $-1 #
edge $-1 $722 -8.4108494996751517 $793 5.4108494996751517 $720 $807 forward 7 unknown #
point $-1 -77.220374156926169 40.950105578796105 8.4108494996751517 #
straight-curve $-1 77.220374156926169 40.950105578796105 0 0 0 -1 I I #
plane-surface $-1 77.220374156926169 0 0 -1 0 0 0 0 1 forward_v I I I I #
straight-curve $-1 -85.463679185474035 0 -8.4108494996751517 0 1 0 I I #
straight-curve $-1 -85.463679185474035 0 -5.4108494996751517 0 -1 0 I I #
point $-1 -85.463679185474035 40.950105578796105 -5.4108494996751517 #
point $-1 -85.463679185474035 40.950105578796105 -8.4108494996751517 #
point $-1 -85.463679185474035 -40.950105578796105 -5.4108494996751517 #
straight-curve $-1 81.342026671200102 40.950105578796105 -8.4108494996751517 1 0 0 I I #
straight-curve $-1 -85.463679185474035 -40.950105578796105 -6.9108494996751517 0 0 -1 I I #
point $-1 -85.463679185474035 -40.950105578796105 -8.4108494996751517 #
coedge $-1 $808 $751 $753 $800 forward $744 $-1 #
coedge $-1 $809 $746 $808 $810 reversed $694 $-1 #
coedge $-1 $746 $809 $790 $811 reversed $694 $-1 #
coedge $-1 $772 $803 $746 $789 reversed $721 $-1 #
edge $-1 $812 -1.5 $813 1.5 $788 $814 forward 7 unknown #
coedge $-1 $748 $747 $787 $811 forward $642 $-1 #
edge $-1 $793 -4.1216525142739329 $812 4.1216525142739329 $772 $815 forward 7 unknown #
edge $-1 $816 -4.1216525142739329 $794 4.1216525142739329 $767 $817 forward 7 unknown #
vertex $-1 $773 $818 #
vertex $-1 $792 $819 #
straight-curve $-1 -77.220374156926169 0 -5.4108494996751517 0 -1 0 I I #
coedge $-1 $751 $808 $803 $820 forward $744 $-1 #
vertex $-1 $752 $821 #
straight-curve $-1 85.463679185474035 0 -8.4108494996751517 0 -1 0 I I #
coedge $-1 $753 $767 $809 $822 forward $517 $-1 #
edge $-1 $754 -4.1216525142739329 $823 166.80570585667414 $753 $824 forward 7 unknown #
point $-1 85.463679185474035 -40.950105578796105 -8.4108494996751517 #
straight-curve $-1 77.220374156926169 0 -5.4108494996751517 0 1 0 I I #
coedge $-1 $788 $757 $796 $820 reversed $721 $-1 #
point $-1 77.220374156926169 40.950105578796105 -5.4108494996751517 #
straight-curve $-1 85.463679185474035 40.950105578796105 -6.9108494996751517 0 0 -1 I I #
straight-curve $-1 -77.220374156926169 -40.950105578796105 0 0 0 -1 I I #
straight-curve $-1 -77.220374156926169 40.950105578796105 0 0 0 -1 I I #
coedge $-1 $796 $785 $786 $810 forward $744 $-1 #
coedge $-1 $787 $786 $799 $822 reversed $694 $-1 #
edge $-1 $823 -40.950105578796105 $813 40.950105578796105 $786 $825 forward 7 unknown #
edge $-1 $812 -40.950105578796105 $816 40.950105578796105 $787 $826 forward 7 unknown #
vertex $-1 $791 $827 #
vertex $-1 $820 $828 #
straight-curve $-1 -85.463679185474035 40.950105578796105 -6.9108494996751517 0 0 -1 I I #
straight-curve $-1 -81.342026671200102 40.950105578796105 -5.4108494996751517 -1 0 0 I I #
vertex $-1 $811 $829 #
straight-curve $-1 -81.342026671200102 -40.950105578796105 -5.4108494996751517 1 0 0 I I #
point $-1 -77.220374156926169 40.950105578796105 -5.4108494996751517 #
point $-1 -77.220374156926169 -40.950105578796105 -5.4108494996751517 #
edge $-1 $813 -166.80570585667414 $797 4.1216525142739329 $803 $830 forward 7 unknown #
point $-1 85.463679185474035 40.950105578796105 -8.4108494996751517 #
edge $-1 $816 -1.5 $823 1.5 $809 $831 forward 7 unknown #
vertex $-1 $810 $832 #
straight-curve $-1 81.342026671200102 -40.950105578796105 -8.4108494996751517 -1 0 0 I I #
straight-curve $-1 -85.463679185474035 0 -8.4108494996751517 0 1 0 I I #
straight-curve $-1 -85.463679185474035 0 -5.4108494996751517 0 -1 0 I I #
point $-1 -85.463679185474035 40.950105578796105 -5.4108494996751517 #
point $-1 -85.463679185474035 40.950105578796105 -8.4108494996751517 #
point $-1 -85.463679185474035 -40.950105578796105 -5.4108494996751517 #
straight-curve $-1 81.342026671200102 40.950105578796105 -8.4108494996751517 1 0 0 I I #
straight-curve $-1 -85.463679185474035 -40.950105578796105 -6.9108494996751517 0 0 -1 I I #
point $-1 -85.463679185474035 -40.950105578796105 -8.4108494996751517 #
End-of-ACIS-data 