500 0 8 0           
7 Unknown 11 ACIS 5.0 NT 24 Thu Mar 25 17:12:50 1999 
-1 9.9999999999999995e-007 1e-010 
body $-1 $8 $-1 $9 #
body $-1 $10 $-1 $11 #
body $-1 $12 $-1 $13 #
body $-1 $14 $-1 $15 #
body $-1 $16 $-1 $17 #
body $-1 $18 $-1 $19 #
body $-1 $20 $-1 $21 #
body $-1 $22 $-1 $23 #
lump $-1 $-1 $24 $0 #
transform $-1 1 0 0 0 1 0 0 0 1 72.541276284066285 34.645228276993272 10.301793043953628 1 rotate no_reflect no_shear #
lump $-1 $-1 $25 $1 #
transform $-1 1 0 0 0 1 0 0 0 1 72.541276284066285 34.645228276993272 10.301793043953628 1 rotate no_reflect no_shear #
lump $-1 $-1 $26 $2 #
transform $-1 1 0 0 0 1 0 0 0 1 72.541276284066285 34.645228276993272 10.301793043953628 1 rotate no_reflect no_shear #
lump $-1 $-1 $27 $3 #
transform $-1 1 0 0 0 1 0 0 0 1 72.541276284066285 34.645228276993272 10.301793043953628 1 rotate no_reflect no_shear #
lump $-1 $-1 $28 $4 #
transform $-1 1 0 0 0 1 0 0 0 1 72.541276284066285 34.645228276993272 10.301793043953628 1 rotate no_reflect no_shear #
lump $-1 $-1 $29 $5 #
transform $-1 1 0 0 0 1 0 0 0 1 72.541276284066285 34.645228276993272 10.301793043953628 1 rotate no_reflect no_shear #
lump $-1 $-1 $30 $6 #
transform $-1 1 0 0 0 1 0 0 0 1 72.541276284066285 34.645228276993272 10.301793043953628 1 rotate no_reflect no_shear #
lump $-1 $-1 $31 $7 #
transform $-1 1 0 0 0 1 0 0 0 1 72.541276284066285 34.645228276993272 10.301793043953628 1 rotate no_reflect no_shear #
shell $-1 $-1 $-1 $32 $-1 $8 #
shell $-1 $-1 $-1 $33 $-1 $10 #
shell $-1 $-1 $-1 $34 $-1 $12 #
shell $-1 $-1 $-1 $35 $-1 $14 #
shell $-1 $-1 $-1 $36 $-1 $16 #
shell $-1 $-1 $-1 $37 $-1 $18 #
shell $-1 $-1 $-1 $38 $-1 $20 #
shell $-1 $-1 $-1 $39 $-1 $22 #
face $-1 $40 $41 $24 $-1 $42 forward single #
face $-1 $43 $44 $25 $-1 $45 forward single #
face $-1 $46 $47 $26 $-1 $48 reversed single #
face $-1 $49 $50 $27 $-1 $51 forward single #
face $-1 $52 $53 $28 $-1 $54 forward single #
face $-1 $55 $56 $29 $-1 $57 forward single #
face $-1 $58 $59 $30 $-1 $60 reversed single #
face $-1 $61 $62 $31 $-1 $63 forward single #
face $-1 $64 $65 $24 $-1 $66 reversed single #
loop $-1 $-1 $67 $32 #
plane-surface $-1 0 0 10.301793043953628 0 0 1 1 0 0 forward_v I I I I #
face $-1 $68 $69 $25 $-1 $70 reversed single #
loop $-1 $-1 $71 $33 #
plane-surface $-1 0 -34.645228276993272 0 0 1 0 0 0 1 forward_v I I I I #
face $-1 $72 $73 $26 $-1 $74 reversed single #
loop $-1 $-1 $75 $34 #
plane-surface $-1 -155.75721083528796 -5.222536107011198 124.8974445155052 0 1 0 -0.57357644374324357 0 0.81915203911291934 forward_v I I I I #
face $-1 $76 $77 $27 $-1 $78 forward single #
loop $-1 $79 $80 $35 #
cone-surface $-1 -69.000083073729286 -3.2310841897738918 7.4530984407640499 0.57357644374324357 0 -0.81915203911291934 0.40957601955645967 0 0.28678822187162178 1 I I 0 1 0.5 forward I I I I #
face $-1 $81 $82 $28 $-1 $83 forward single #
loop $-1 $84 $85 $36 #
cone-surface $-1 -69.000083073729286 -0.2439063139179396 7.4530984407640499 0.57357644374324357 0 -0.81915203911291934 0.40957601955645967 0 0.28678822187162178 1 I I 0 1 0.5 forward I I I I #
face $-1 $86 $87 $29 $-1 $88 forward single #
loop $-1 $89 $90 $37 #
cone-surface $-1 -69.000083073729286 2.7432715619380161 7.4530984407640499 0.57357644374324357 0 -0.81915203911291934 0.40957601955645967 0 0.28678822187162178 1 I I 0 1 0.5 forward I I I I #
face $-1 $91 $92 $30 $-1 $93 reversed single #
loop $-1 $-1 $94 $38 #
plane-surface $-1 19.43737793121754 21.571019580317945 198.79502846831701 0 1 0 0.50000000669873634 0 0.8660253999169214 forward_v I I I I #
face $-1 $95 $96 $31 $-1 $97 forward single #
loop $-1 $98 $99 $39 #
cone-surface $-1 62.526781381576328 28.108123928655608 2.6493962914503211 -0.50000000669873634 0 -0.8660253999169214 2.1650634997923035 0 -1.2500000167468408 1 I I 0 1 2.5 forward I I I I #
face $-1 $100 $101 $24 $-1 $102 reversed single #
loop $-1 $-1 $103 $40 #
plane-surface $-1 0 0 -10.301793043953628 0 0 1 1 0 0 forward_v I I I I #
coedge $-1 $104 $105 $106 $107 forward $41 $-1 #
face $-1 $108 $109 $25 $-1 $110 reversed single #
loop $-1 $-1 $111 $43 #
plane-surface $-1 0 0 -10.301793043953628 0 0 1 1 0 0 forward_v I I I I #
coedge $-1 $112 $113 $114 $115 forward $44 $-1 #
face $-1 $116 $117 $26 $-1 $118 reversed single #
loop $-1 $-1 $119 $46 #
plane-surface $-1 -72.541276284066299 -0.2439063139179396 6.0527757396120876 -0.57357644374324357 0 0.81915203911291934 0.81915203911291934 0 0.57357644374324357 forward_v I I I I #
coedge $-1 $120 $121 $122 $123 reversed $47 $-1 #
face $-1 $-1 $124 $27 $-1 $125 forward single #
loop $-1 $126 $127 $49 #
cone-surface $-1 -68.349608491085192 -3.2310841897738918 6.5241244799670266 0.57357644374324357 0 -0.81915203911291934 0.20478800977822983 0 0.14339411093581089 1 I I -0.70710678118654746 0.70710678118654746 0.25 forward I I I I #
loop $-1 $-1 $128 $35 #
coedge $-1 $80 $80 $129 $130 reversed $50 $-1 #
face $-1 $-1 $131 $28 $-1 $132 forward single #
loop $-1 $133 $134 $52 #
cone-surface $-1 -68.349608491085192 -0.2439063139179396 6.5241244799670266 0.57357644374324357 0 -0.81915203911291934 0.20478800977822983 0 0.14339411093581089 1 I I -0.70710678118654746 0.70710678118654746 0.25 forward I I I I #
loop $-1 $-1 $135 $36 #
coedge $-1 $85 $85 $136 $137 reversed $53 $-1 #
face $-1 $-1 $138 $29 $-1 $139 forward single #
loop $-1 $140 $141 $55 #
cone-surface $-1 -68.349608491085192 2.7432715619380161 6.5241244799670266 0.57357644374324357 0 -0.81915203911291934 0.20478800977822983 0 0.14339411093581089 1 I I -0.70710678118654746 0.70710678118654746 0.25 forward I I I I #
loop $-1 $-1 $142 $37 #
coedge $-1 $90 $90 $143 $144 reversed $56 $-1 #
face $-1 $145 $146 $30 $-1 $147 reversed single #
loop $-1 $-1 $148 $58 #
plane-surface $-1 -53.103899324718512 28.108123928655608 73.149852859532231 0.50000000669873634 0 0.8660253999169214 0.8660253999169214 0 -0.50000000669873634 forward_v I I I I #
coedge $-1 $149 $150 $151 $152 reversed $59 $-1 #
face $-1 $-1 $153 $31 $-1 $154 forward single #
loop $-1 $155 $156 $61 #
cone-surface $-1 60.281858868514107 28.108123928655608 -1.2389234907704374 -0.50000000669873634 0 -0.8660253999169214 1.0825317498961518 0 -0.6250000083734204 1 I I -0.70710678118654746 0.70710678118654746 1.25 forward I I I I #
loop $-1 $-1 $157 $39 #
coedge $-1 $99 $99 $158 $159 reversed $62 $-1 #
face $-1 $160 $161 $24 $-1 $162 reversed single #
loop $-1 $-1 $163 $64 #
plane-surface $-1 0 -34.645228276993272 0 0 1 0 0 0 1 forward_v I I I I #
coedge $-1 $164 $165 $166 $167 forward $65 $-1 #
coedge $-1 $168 $67 $169 $170 forward $41 $-1 #
coedge $-1 $67 $168 $171 $172 forward $41 $-1 #
coedge $-1 $173 $174 $67 $107 reversed $175 $-1 #
edge $-1 $176 -34.645228276993272 $177 34.645228276993272 $106 $178 forward 7 unknown #
face $-1 $179 $180 $25 $-1 $181 forward single #
loop $-1 $-1 $182 $68 #
plane-surface $-1 72.541276284066285 0 0 -1 0 0 0 0 1 forward_v I I I I #
coedge $-1 $183 $184 $185 $186 forward $69 $-1 #
coedge $-1 $185 $71 $182 $187 reversed $44 $-1 #
coedge $-1 $71 $185 $188 $189 reversed $44 $-1 #
coedge $-1 $190 $191 $71 $115 reversed $180 $-1 #
edge $-1 $192 -72.541276284066285 $193 72.541276284066285 $114 $194 forward 7 unknown #
face $-1 $195 $196 $26 $-1 $197 forward single #
loop $-1 $-1 $198 $72 #
plane-surface $-1 -155.75721083528796 4.7347234791753188 124.8974445155052 0 -1 0 0.57357644374324357 0 -0.81915203911291934 forward_v I I I I #
coedge $-1 $199 $200 $201 $202 reversed $73 $-1 #
coedge $-1 $121 $75 $203 $204 reversed $47 $-1 #
coedge $-1 $75 $120 $199 $205 reversed $47 $-1 #
coedge $-1 $201 $206 $75 $123 forward $196 $-1 #
edge $-1 $207 5.3373291335776969 $208 11.405554610835097 $122 $209 forward 7 unknown #
loop $-1 $-1 $129 $76 #
plane-surface $-1 -72.541276284066299 -0.2439063139179396 6.0527757396120876 -0.57357644374324357 0 0.81915203911291934 0.81915203911291934 0 0.57357644374324357 forward_v I I I I #
loop $-1 $-1 $210 $49 #
coedge $-1 $127 $127 $128 $211 reversed $77 $-1 #
coedge $-1 $128 $128 $127 $211 forward $79 $-1 #
coedge $-1 $129 $129 $80 $130 forward $124 $-1 #
edge $-1 $212 0 $212 6.2831853071796004 $129 $213 forward 7 unknown #
loop $-1 $-1 $136 $81 #
plane-surface $-1 -72.541276284066299 -0.2439063139179396 6.0527757396120876 -0.57357644374324357 0 0.81915203911291934 0.81915203911291934 0 0.57357644374324357 forward_v I I I I #
loop $-1 $-1 $214 $52 #
coedge $-1 $134 $134 $135 $215 reversed $82 $-1 #
coedge $-1 $135 $135 $134 $215 forward $84 $-1 #
coedge $-1 $136 $136 $85 $137 forward $131 $-1 #
edge $-1 $216 0 $216 6.2831853071796004 $136 $217 forward 7 unknown #
loop $-1 $-1 $143 $86 #
plane-surface $-1 -72.541276284066299 -0.2439063139179396 6.0527757396120876 -0.57357644374324357 0 0.81915203911291934 0.81915203911291934 0 0.57357644374324357 forward_v I I I I #
loop $-1 $-1 $218 $55 #
coedge $-1 $141 $141 $142 $219 reversed $87 $-1 #
coedge $-1 $142 $142 $141 $219 forward $89 $-1 #
coedge $-1 $143 $143 $90 $144 forward $138 $-1 #
edge $-1 $220 0 $220 6.2831853071796004 $143 $221 forward 7 unknown #
face $-1 $222 $223 $30 $-1 $224 forward single #
loop $-1 $-1 $225 $91 #
plane-surface $-1 0 34.645228276993272 0 0 -1 0 0 0 -1 forward_v I I I I #
coedge $-1 $226 $227 $228 $229 reversed $92 $-1 #
coedge $-1 $150 $94 $230 $231 reversed $59 $-1 #
coedge $-1 $94 $149 $226 $232 reversed $59 $-1 #
coedge $-1 $228 $233 $94 $152 forward $234 $-1 #
edge $-1 $235 89.095721190204884 $236 98.788938630562342 $151 $237 forward 7 unknown #
loop $-1 $-1 $158 $95 #
plane-surface $-1 -53.103899324718512 28.108123928655608 73.149852859532231 0.50000000669873634 0 0.8660253999169214 0.8660253999169214 0 -0.50000000669873634 forward_v I I I I #
loop $-1 $-1 $238 $61 #
coedge $-1 $156 $156 $157 $239 reversed $96 $-1 #
coedge $-1 $157 $157 $156 $239 forward $98 $-1 #
coedge $-1 $158 $158 $99 $159 forward $153 $-1 #
edge $-1 $240 0 $240 6.2831853071796004 $158 $241 forward 7 unknown #
face $-1 $242 $243 $24 $-1 $244 reversed single #
loop $-1 $-1 $245 $100 #
plane-surface $-1 -72.541276284066285 0 0 1 0 0 0 0 -1 forward_v I I I I #
coedge $-1 $171 $246 $173 $247 reversed $101 $-1 #
coedge $-1 $248 $103 $246 $249 forward $65 $-1 #
coedge $-1 $103 $248 $250 $251 forward $65 $-1 #
coedge $-1 $174 $173 $103 $167 reversed $175 $-1 #
edge $-1 $252 -34.645228276993272 $253 34.645228276993272 $166 $254 forward 7 unknown #
coedge $-1 $105 $104 $255 $256 forward $41 $-1 #
coedge $-1 $257 $258 $104 $170 reversed $243 $-1 #
edge $-1 $177 -72.541276284066285 $259 72.541276284066285 $169 $260 forward 7 unknown #
coedge $-1 $261 $163 $105 $172 reversed $101 $-1 #
edge $-1 $262 -72.541276284066285 $176 72.541276284066285 $171 $263 forward 7 unknown #
coedge $-1 $166 $106 $163 $247 forward $175 $-1 #
coedge $-1 $106 $166 $257 $264 reversed $175 $-1 #
loop $-1 $-1 $173 $242 #
vertex $-1 $107 $265 #
vertex $-1 $107 $266 #
straight-curve $-1 72.541276284066285 0 10.301793043953628 0 1 0 I I #
face $-1 $267 $268 $25 $-1 $269 reversed single #
loop $-1 $-1 $191 $108 #
plane-surface $-1 0 -39.927268539087407 -7.3017930439536283 0 0 1 1 0 0 forward_v I I I I #
coedge $-1 $270 $271 $112 $187 forward $109 $-1 #
coedge $-1 $272 $111 $271 $273 forward $69 $-1 #
coedge $-1 $111 $272 $274 $275 forward $69 $-1 #
coedge $-1 $113 $112 $111 $186 reversed $44 $-1 #
edge $-1 $276 -72.541276284066285 $277 72.541276284066285 $111 $278 forward 7 unknown #
edge $-1 $277 -10.301793043953628 $193 -7.3017930439536283 $182 $279 forward 7 unknown #
coedge $-1 $274 $280 $113 $189 forward $281 $-1 #
edge $-1 $192 7.3017930439536283 $276 10.301793043953628 $188 $282 forward 7 unknown #
coedge $-1 $283 $114 $280 $284 forward $180 $-1 #
coedge $-1 $114 $283 $270 $285 forward $180 $-1 #
vertex $-1 $189 $286 #
vertex $-1 $285 $287 #
straight-curve $-1 0 -34.645228276993272 -7.3017930439536283 1 0 0 I I #
face $-1 $-1 $288 $26 $-1 $289 reversed single #
loop $-1 $-1 $122 $116 #
plane-surface $-1 0 0 10.301793043953628 0 0 1 1 0 0 forward_v I I I I #
coedge $-1 $290 $291 $292 $293 reversed $117 $-1 #
coedge $-1 $294 $119 $121 $205 forward $73 $-1 #
coedge $-1 $119 $294 $290 $295 forward $73 $-1 #
coedge $-1 $292 $122 $119 $202 forward $196 $-1 #
edge $-1 $208 -5.1005829500522282 $296 4.8566766361342886 $201 $297 forward 7 unknown #
coedge $-1 $298 $299 $120 $204 forward $288 $-1 #
edge $-1 $300 -56.395946518140505 $207 -52.14692921379897 $203 $301 forward 7 unknown #
edge $-1 $208 -7.4079355083201026 $300 -1.7244671030687178e-014 $121 $302 forward 7 unknown #
coedge $-1 $122 $292 $298 $303 forward $196 $-1 #
vertex $-1 $204 $304 #
vertex $-1 $123 $305 #
straight-curve $-1 -77.878605417643982 -5.222536107011198 10.30179304395363 1 0 0 I I #
coedge $-1 $210 $210 $-1 $306 reversed $126 $-1 #
edge $-1 $307 0 $307 6.2831853071796004 $127 $308 forward 7 unknown #
vertex $-1 $130 $309 #
ellipse-curve $-1 -69.507163545437578 -3.2310841897738918 8.1772843917828659 -0.57357644374324357 0 0.81915203911291934 0.40957601955645967 0 0.28678822187162178 1 I I #
coedge $-1 $214 $214 $-1 $310 reversed $133 $-1 #
edge $-1 $311 0 $311 6.2831853071796004 $134 $312 forward 7 unknown #
vertex $-1 $137 $313 #
ellipse-curve $-1 -69.507163545437578 -0.2439063139179396 8.1772843917828659 -0.57357644374324357 0 0.81915203911291934 0.40957601955645967 0 0.28678822187162178 1 I I #
coedge $-1 $218 $218 $-1 $314 reversed $140 $-1 #
edge $-1 $315 0 $315 6.2831853071796004 $141 $316 forward 7 unknown #
vertex $-1 $144 $317 #
ellipse-curve $-1 -69.507163545437578 2.7432715619380161 8.1772843917828659 -0.57357644374324357 0 0.81915203911291934 0.40957601955645967 0 0.28678822187162178 1 I I #
face $-1 $-1 $234 $30 $-1 $318 reversed single #
loop $-1 $-1 $319 $145 #
plane-surface $-1 0 0 10.301793043953628 0 0 1 1 0 0 forward_v I I I I #
coedge $-1 $320 $321 $227 $322 forward $146 $-1 #
coedge $-1 $323 $148 $150 $232 forward $92 $-1 #
coedge $-1 $148 $323 $225 $322 reversed $92 $-1 #
coedge $-1 $324 $151 $148 $229 forward $234 $-1 #
edge $-1 $236 7.5169576159901403 $325 20.591166312665468 $228 $326 forward 7 unknown #
coedge $-1 $327 $319 $149 $231 forward $223 $-1 #
edge $-1 $328 46.033442522855132 $235 62.822587318457515 $230 $329 forward 7 unknown #
edge $-1 $236 -145.0825525681326 $328 -125.6961179471469 $150 $330 forward 7 unknown #
coedge $-1 $151 $324 $327 $331 reversed $234 $-1 #
loop $-1 $-1 $228 $222 #
vertex $-1 $331 $332 #
vertex $-1 $152 $333 #
straight-curve $-1 72.541276284066285 21.571019580317945 99.397514234158507 0 0 -1 I I #
coedge $-1 $238 $238 $-1 $334 reversed $155 $-1 #
edge $-1 $335 0 $335 6.2831853071796004 $156 $336 forward 7 unknown #
vertex $-1 $159 $337 #
ellipse-curve $-1 64.146703886265115 28.108123928655608 5.4551843237748967 0.50000000669873634 0 0.8660253999169214 2.1650634997923035 0 -1.2500000167468408 1 I I #
face $-1 $-1 $175 $24 $-1 $338 reversed single #
loop $-1 $-1 $257 $160 #
plane-surface $-1 0 34.645228276993272 0 0 -1 0 0 0 -1 forward_v I I I I #
coedge $-1 $339 $255 $258 $340 forward $161 $-1 #
coedge $-1 $163 $261 $164 $249 reversed $101 $-1 #
edge $-1 $176 -10.301793043953628 $253 10.301793043953628 $173 $341 forward 7 unknown #
coedge $-1 $165 $164 $339 $342 forward $65 $-1 #
edge $-1 $253 -72.541276284066285 $343 72.541276284066285 $246 $344 forward 7 unknown #
coedge $-1 $258 $257 $165 $251 reversed $243 $-1 #
edge $-1 $345 -72.541276284066285 $252 72.541276284066285 $250 $346 forward 7 unknown #
vertex $-1 $167 $347 #
vertex $-1 $247 $348 #
straight-curve $-1 72.541276284066285 0 -10.301793043953628 0 -1 0 I I #
coedge $-1 $245 $349 $168 $256 reversed $161 $-1 #
edge $-1 $259 -34.645228276993272 $262 34.645228276993272 $255 $350 forward 7 unknown #
coedge $-1 $250 $169 $174 $264 forward $243 $-1 #
coedge $-1 $169 $250 $245 $340 reversed $243 $-1 #
vertex $-1 $170 $351 #
straight-curve $-1 0 34.645228276993272 10.301793043953628 -1 0 0 I I #
coedge $-1 $246 $171 $349 $352 forward $101 $-1 #
vertex $-1 $256 $353 #
straight-curve $-1 0 -34.645228276993272 10.301793043953628 1 0 0 I I #
edge $-1 $177 -10.301793043953628 $252 10.301793043953628 $174 $354 forward 7 unknown #
point $-1 72.541276284066285 -34.645228276993272 10.301793043953628 #
point $-1 72.541276284066285 34.645228276993272 10.301793043953628 #
face $-1 $-1 $281 $25 $-1 $355 reversed single #
loop $-1 $-1 $356 $179 #
plane-surface $-1 0 -45.20930880118155 -8.8017930439536283 0 1 0 0 0 1 forward_v I I I I #
coedge $-1 $357 $182 $191 $285 reversed $109 $-1 #
coedge $-1 $182 $357 $183 $273 reversed $109 $-1 #
coedge $-1 $184 $183 $358 $359 forward $69 $-1 #
edge $-1 $277 34.645228276993272 $360 45.20930880118155 $271 $361 forward 7 unknown #
coedge $-1 $362 $188 $184 $275 reversed $281 $-1 #
edge $-1 $363 -45.20930880118155 $276 -34.645228276993272 $274 $364 forward 7 unknown #
vertex $-1 $189 $365 #
vertex $-1 $273 $366 #
straight-curve $-1 0 -34.645228276993272 -10.301793043953628 1 0 0 I I #
straight-curve $-1 72.541276284066285 -34.645228276993272 0 0 0 1 I I #
coedge $-1 $188 $362 $190 $284 reversed $281 $-1 #
loop $-1 $-1 $188 $267 #
straight-curve $-1 -72.541276284066285 -34.645228276993272 0 0 0 -1 I I #
coedge $-1 $191 $190 $367 $368 forward $180 $-1 #
edge $-1 $192 -5.2820402620941422 $369 5.2820402620941422 $280 $370 forward 7 unknown #
edge $-1 $371 -5.2820402620941422 $193 5.2820402620941422 $270 $372 forward 7 unknown #
point $-1 -72.541276284066285 -34.645228276993265 -7.3017930439536283 #
point $-1 72.541276284066285 -34.645228276993265 -7.3017930439536283 #
loop $-1 $-1 $203 $195 #
plane-surface $-1 -72.541276284066285 0 0 1 0 0 0 0 -1 forward_v I I I I #
coedge $-1 $291 $198 $200 $295 reversed $117 $-1 #
coedge $-1 $198 $290 $373 $374 reversed $117 $-1 #
coedge $-1 $206 $201 $198 $293 forward $196 $-1 #
edge $-1 $296 -11.405554610835097 $375 -5.3373291335776969 $292 $376 forward 7 unknown #
coedge $-1 $200 $199 $299 $377 reversed $73 $-1 #
edge $-1 $378 1.7244671030687178e-014 $296 7.4079355083201026 $290 $379 forward 7 unknown #
vertex $-1 $202 $380 #
straight-curve $-1 -66.473050806808885 -0.1219531569589698 10.301793043953632 0 1 0 I I #
coedge $-1 $373 $203 $206 $303 reversed $288 $-1 #
coedge $-1 $203 $373 $294 $377 forward $288 $-1 #
vertex $-1 $204 $381 #
straight-curve $-1 -72.541276284066285 -5.222536107011198 62.4487222577526 0 0 1 I I #
straight-curve $-1 -72.541276284066299 -5.222536107011198 6.0527757396120876 -0.81915203911291934 0 -0.57357644374324357 I I #
edge $-1 $375 -4.7347234791753188 $207 5.222536107011198 $298 $382 forward 7 unknown #
point $-1 -72.541276284066285 -5.222536107011198 10.301793043953628 #
point $-1 -66.473050806808885 -5.222536107011198 10.301793043953628 #
edge $-1 $383 1 $383 0 $210 $-1 forward 7 unknown #
vertex $-1 $211 $384 #
ellipse-curve $-1 -68.493002602021008 -3.2310841897738918 6.7289124897452561 -0.57357644374324357 0 0.81915203911291934 0.40957601955645967 0 0.28678822187162178 1 I I #
point $-1 -69.09758752588111 -3.2310841897738918 8.4640726136544657 #
edge $-1 $385 1 $385 0 $214 $-1 forward 7 unknown #
vertex $-1 $215 $386 #
ellipse-curve $-1 -68.493002602021008 -0.2439063139179396 6.7289124897452561 -0.57357644374324357 0 0.81915203911291934 0.40957601955645967 0 0.28678822187162178 1 I I #
point $-1 -69.09758752588111 -0.2439063139179396 8.4640726136544657 #
edge $-1 $387 1 $387 0 $218 $-1 forward 7 unknown #
vertex $-1 $219 $388 #
ellipse-curve $-1 -68.493002602021008 2.7432715619380161 6.7289124897452561 -0.57357644374324357 0 0.81915203911291934 0.40957601955645967 0 0.28678822187162178 1 I I #
point $-1 -69.09758752588111 2.7432715619380161 8.4640726136544657 #
plane-surface $-1 72.541276284066285 0 0 -1 0 0 0 0 1 forward_v I I I I #
coedge $-1 $230 $389 $323 $390 forward $223 $-1 #
coedge $-1 $321 $225 $389 $391 reversed $146 $-1 #
coedge $-1 $225 $320 $324 $392 forward $146 $-1 #
edge $-1 $325 -103.80042628332511 $393 -84.413991662339413 $225 $394 forward 7 unknown #
coedge $-1 $227 $226 $319 $390 reversed $92 $-1 #
coedge $-1 $233 $228 $321 $392 reversed $234 $-1 #
vertex $-1 $322 $395 #
straight-curve $-1 72.541276284066285 14.054061964327804 0.60857560359616514 0 1 0 I I #
coedge $-1 $389 $230 $233 $331 forward $223 $-1 #
vertex $-1 $231 $396 #
straight-curve $-1 9.71868896560877 21.571019580317945 10.301793043953623 1 0 0 I I #
straight-curve $-1 -53.103899324718512 21.571019580317945 73.149852859532231 -0.8660253999169214 0 0.50000000669873634 I I #
edge $-1 $235 21.571019580317945 $397 34.645228276993272 $233 $398 forward 7 unknown #
point $-1 72.541276284066285 21.571019580317945 10.301793043953628 #
point $-1 72.541276284066299 21.571019580317945 0.60857560359616514 #
edge $-1 $399 1 $399 0 $238 $-1 forward 7 unknown #
vertex $-1 $239 $400 #
ellipse-curve $-1 60.906858876887526 28.108123928655608 -0.15639174087428565 0.50000000669873634 0 0.8660253999169214 2.1650634997923035 0 -1.2500000167468408 1 I I #
point $-1 66.311767386057426 28.108123928655608 4.2051843070280874 #
plane-surface $-1 72.541276284066285 0 0 -1 0 0 0 0 1 forward_v I I I I #
coedge $-1 $349 $245 $248 $342 reversed $161 $-1 #
edge $-1 $259 -10.301793043953628 $345 10.301793043953628 $258 $401 forward 7 unknown #
straight-curve $-1 72.541276284066285 -34.645228276993272 0 0 0 -1 I I #
edge $-1 $343 -34.645228276993272 $345 34.645228276993272 $339 $402 forward 7 unknown #
vertex $-1 $342 $403 #
straight-curve $-1 0 -34.645228276993272 -10.301793043953628 -1 0 0 I I #
vertex $-1 $251 $404 #
straight-curve $-1 0 34.645228276993272 -10.301793043953628 1 0 0 I I #
point $-1 72.541276284066285 34.645228276993272 -10.301793043953628 #
point $-1 72.541276284066285 -34.645228276993272 -10.301793043953628 #
coedge $-1 $255 $339 $261 $352 reversed $161 $-1 #
straight-curve $-1 -72.541276284066285 0 10.301793043953628 0 -1 0 I I #
point $-1 -72.541276284066285 34.645228276993272 10.301793043953628 #
edge $-1 $262 -10.301793043953628 $343 10.301793043953628 $349 $405 forward 7 unknown #
point $-1 -72.541276284066285 -34.645228276993272 10.301793043953628 #
straight-curve $-1 72.541276284066285 34.645228276993272 0 0 0 -1 I I #
plane-surface $-1 -72.541276284066285 0 0 1 0 0 0 0 -1 forward_v I I I I #
coedge $-1 $358 $367 $362 $406 forward $268 $-1 #
coedge $-1 $271 $270 $407 $408 forward $109 $-1 #
coedge $-1 $407 $356 $272 $359 reversed $268 $-1 #
edge $-1 $360 -72.541276284066285 $363 72.541276284066285 $358 $409 forward 7 unknown #
vertex $-1 $408 $410 #
straight-curve $-1 72.541276284066285 0 -10.301793043953628 0 -1 0 I I #
coedge $-1 $280 $274 $356 $406 reversed $281 $-1 #
vertex $-1 $275 $411 #
straight-curve $-1 -72.541276284066285 0 -10.301793043953628 0 1 0 I I #
point $-1 -72.541276284066285 -34.645228276993272 -10.301793043953628 #
point $-1 72.541276284066285 -34.645228276993272 -10.301793043953628 #
coedge $-1 $356 $407 $283 $368 reversed $268 $-1 #
edge $-1 $369 -72.541276284066285 $371 72.541276284066285 $367 $412 forward 7 unknown #
vertex $-1 $284 $413 #
straight-curve $-1 -72.541276284066285 -39.927268539087407 -7.3017930439536283 0 -1 0 I I #
vertex $-1 $285 $414 #
straight-curve $-1 72.541276284066285 -39.927268539087407 -7.3017930439536283 0 1 0 I I #
coedge $-1 $299 $298 $291 $374 forward $288 $-1 #
edge $-1 $375 52.14692921379897 $378 56.395946518140505 $373 $415 forward 7 unknown #
vertex $-1 $303 $416 #
straight-curve $-1 -77.878605417643982 4.7347234791753188 10.30179304395363 -1 0 0 I I #
edge $-1 $378 -4.8566766361342886 $300 5.1005829500522282 $299 $417 forward 7 unknown #
vertex $-1 $377 $418 #
straight-curve $-1 -72.541276284066299 4.7347234791753188 6.0527757396120876 0.81915203911291934 0 0.57357644374324357 I I #
point $-1 -66.473050806808885 4.7347234791753188 10.301793043953628 #
point $-1 -72.541276284066285 -5.222536107011198 6.0527757396120974 #
straight-curve $-1 -72.541276284066285 0 10.301793043953628 0 -1 0 I I #
vertex $-1 $306 $419 #
point $-1 -68.08342658246454 -3.2310841897738918 7.0157007116168781 #
vertex $-1 $310 $420 #
point $-1 -68.08342658246454 -0.2439063139179396 7.0157007116168781 #
vertex $-1 $314 $421 #
point $-1 -68.08342658246454 2.7432715619380161 7.0157007116168781 #
coedge $-1 $319 $327 $320 $391 forward $223 $-1 #
edge $-1 $393 -20.591166312665468 $328 -7.5169576159901403 $319 $422 forward 7 unknown #
edge $-1 $397 -72.541276284066285 $393 -55.752131488463903 $320 $423 forward 7 unknown #
edge $-1 $397 -10.301793043953628 $325 -0.6085756035961678 $324 $424 forward 7 unknown #
vertex $-1 $322 $425 #
straight-curve $-1 -17.352529399497257 34.645228276993272 52.508789440590405 -0.8660253999169214 0 0.50000000669873634 I I #
point $-1 72.541276284066285 34.645228276993272 0.6085756035961678 #
point $-1 55.752131488463903 21.571019580317945 10.30179304395363 #
vertex $-1 $331 $426 #
straight-curve $-1 72.541276284066285 0 10.301793043953628 0 1 0 I I #
vertex $-1 $334 $427 #
point $-1 63.071922376679829 28.108123928655608 -1.4063917576211264 #
straight-curve $-1 -72.541276284066285 34.645228276993272 0 0 0 -1 I I #
straight-curve $-1 -72.541276284066285 0 -10.301793043953628 0 1 0 I I #
point $-1 -72.541276284066285 -34.645228276993272 -10.301793043953628 #
point $-1 -72.541276284066285 34.645228276993272 -10.301793043953628 #
straight-curve $-1 -72.541276284066285 -34.645228276993272 0 0 0 -1 I I #
edge $-1 $369 -1.5 $363 1.5 $362 $428 forward 7 unknown #
coedge $-1 $367 $358 $357 $408 reversed $268 $-1 #
edge $-1 $371 -1.5 $360 1.5 $357 $429 forward 7 unknown #
straight-curve $-1 0 -45.20930880118155 -10.301793043953628 -1 0 0 I I #
point $-1 72.541276284066285 -45.20930880118155 -10.301793043953628 #
point $-1 -72.541276284066285 -45.20930880118155 -10.301793043953628 #
straight-curve $-1 0 -45.20930880118155 -7.3017930439536283 1 0 0 I I #
point $-1 -72.541276284066285 -45.20930880118155 -7.3017930439536283 #
point $-1 72.541276284066285 -45.20930880118155 -7.3017930439536283 #
straight-curve $-1 -72.541276284066285 4.7347234791753188 62.4487222577526 0 0 -1 I I #
point $-1 -72.541276284066285 4.7347234791753188 10.301793043953628 #
straight-curve $-1 -72.541276284066285 -0.1219531569589698 6.0527757396121036 0 -1 0 I I #
point $-1 -72.541276284066285 4.7347234791753188 6.0527757396120974 #
point $-1 -68.206214380149376 -3.2310841897738918 6.3193364701887971 #
point $-1 -68.206214380149376 -0.2439063139179396 6.3193364701887971 #
point $-1 -68.206214380149376 2.7432715619380161 6.3193364701887971 #
straight-curve $-1 55.752131488463874 14.054061964327804 10.301793043953637 0 -1 0 I I #
straight-curve $-1 0 34.645228276993272 10.301793043953628 -1 0 0 I I #
straight-curve $-1 72.541276284066285 34.645228276993272 0 0 0 -1 I I #
point $-1 55.752131488463903 34.645228276993272 10.30179304395363 #
point $-1 72.541276284066285 34.645228276993272 10.301793043953628 #
point $-1 59.656858860140687 28.108123928655608 -2.3214552406665891 #
straight-curve $-1 -72.541276284066285 -45.20930880118155 -8.8017930439536283 0 0 -1 I I #
straight-curve $-1 72.541276284066285 -45.20930880118155 -8.8017930439536283 0 0 -1 I I #
End-of-ACIS-data 