500 0 8 0           
7 Unknown 11 ACIS 5.0 NT 24 Thu Mar 25 16:15:50 1999 
-1 9.9999999999999995e-007 1e-010 
body $-1 $8 $-1 $9 #
body $-1 $10 $-1 $11 #
body $-1 $12 $-1 $13 #
body $-1 $14 $-1 $15 #
body $-1 $16 $-1 $17 #
body $-1 $18 $-1 $19 #
body $-1 $20 $-1 $21 #
body $-1 $22 $-1 $23 #
lump $-1 $-1 $24 $0 #
transform $-1 1 0 0 0 1 0 0 0 1 74.847254860072638 31.57600718888559 6.5060046673495338 1 rotate no_reflect no_shear #
lump $-1 $-1 $25 $1 #
transform $-1 1 0 0 0 1 0 0 0 1 74.847254860072638 31.57600718888559 6.5060046673495338 1 rotate no_reflect no_shear #
lump $-1 $-1 $26 $2 #
transform $-1 1 0 0 0 1 0 0 0 1 74.847254860072638 31.57600718888559 6.5060046673495338 1 rotate no_reflect no_shear #
lump $-1 $-1 $27 $3 #
transform $-1 1 0 0 0 1 0 0 0 1 74.847254860072638 31.57600718888559 6.5060046673495338 1 rotate no_reflect no_shear #
lump $-1 $-1 $28 $4 #
transform $-1 1 0 0 0 1 0 0 0 1 74.847254860072638 31.57600718888559 6.5060046673495338 1 rotate no_reflect no_shear #
lump $-1 $-1 $29 $5 #
transform $-1 1 0 0 0 1 0 0 0 1 74.847254860072638 31.57600718888559 6.5060046673495338 1 rotate no_reflect no_shear #
lump $-1 $-1 $30 $6 #
transform $-1 1 0 0 0 1 0 0 0 1 74.847254860072638 31.57600718888559 6.5060046673495338 1 rotate no_reflect no_shear #
lump $-1 $-1 $31 $7 #
transform $-1 1 0 0 0 1 0 0 0 1 74.847254860072638 31.57600718888559 6.5060046673495338 1 rotate no_reflect no_shear #
shell $-1 $-1 $-1 $32 $-1 $8 #
shell $-1 $-1 $-1 $33 $-1 $10 #
shell $-1 $-1 $-1 $34 $-1 $12 #
shell $-1 $-1 $-1 $35 $-1 $14 #
shell $-1 $-1 $-1 $36 $-1 $16 #
shell $-1 $-1 $-1 $37 $-1 $18 #
shell $-1 $-1 $-1 $38 $-1 $20 #
shell $-1 $-1 $-1 $39 $-1 $22 #
face $-1 $40 $41 $24 $-1 $42 forward single #
face $-1 $43 $44 $25 $-1 $45 forward single #
face $-1 $46 $47 $26 $-1 $48 reversed single #
face $-1 $49 $50 $27 $-1 $51 forward single #
face $-1 $52 $53 $28 $-1 $54 forward single #
face $-1 $55 $56 $29 $-1 $57 reversed single #
face $-1 $58 $59 $30 $-1 $60 forward single #
face $-1 $61 $62 $31 $-1 $63 forward single #
face $-1 $64 $65 $24 $-1 $66 reversed single #
loop $-1 $-1 $67 $32 #
plane-surface $-1 0 0 6.5060046673495338 0 0 1 1 0 0 forward_v I I I I #
face $-1 $68 $69 $25 $-1 $70 reversed single #
loop $-1 $-1 $71 $33 #
plane-surface $-1 -74.847254860072638 0 0 1 0 0 0 0 -1 forward_v I I I I #
face $-1 $72 $73 $26 $-1 $74 reversed single #
loop $-1 $-1 $75 $34 #
plane-surface $-1 58.71980358303162 73.972684986415402 158.58681830973919 1 0 0 0 -0.61566148304635926 -0.78801074757464917 forward_v I I I I #
face $-1 $76 $77 $27 $-1 $78 forward single #
loop $-1 $79 $80 $35 #
cone-surface $-1 63.327646805043344 27.036901919687324 2.2153570585642042 0 -0.61566148304635926 -0.78801074757464917 1.5 0 0 1 I I 0 1 1.5 forward I I I I #
face $-1 $81 $82 $28 $-1 $83 forward single #
loop $-1 $84 $85 $36 #
cone-surface $-1 70.239411638060915 27.036901919687324 2.2153570585642042 0 -0.61566148304635926 -0.78801074757464917 1.5 0 0 1 I I 0 1 1.5 forward I I I I #
face $-1 $86 $87 $29 $-1 $88 reversed single #
loop $-1 $-1 $89 $37 #
plane-surface $-1 66.783529221552129 -31.576007188885598 1.7456729681633334 0 -0.61566148304635926 0.78801074757464917 1 0 0 forward_v I I I I #
face $-1 $90 $91 $30 $-1 $92 forward single #
loop $-1 $93 $94 $38 #
cone-surface $-1 63.327646805043344 -27.03690191968732 2.2153570585642077 0 0.61566148304635926 -0.78801074757464917 1.5 0 0 1 I I 0 1 1.5 forward I I I I #
face $-1 $95 $96 $31 $-1 $97 forward single #
loop $-1 $98 $99 $39 #
cone-surface $-1 70.239411638060915 -27.03690191968732 2.2153570585642077 0 0.61566148304635926 -0.78801074757464917 1.5 0 0 1 I I 0 1 1.5 forward I I I I #
face $-1 $100 $101 $24 $-1 $102 reversed single #
loop $-1 $-1 $103 $40 #
plane-surface $-1 0 0 -6.5060046673495338 0 0 1 1 0 0 forward_v I I I I #
coedge $-1 $104 $105 $106 $107 forward $41 $-1 #
face $-1 $108 $109 $25 $-1 $110 reversed single #
loop $-1 $-1 $111 $43 #
plane-surface $-1 0 0 -6.5060046673495338 0 0 1 1 0 0 forward_v I I I I #
coedge $-1 $112 $113 $114 $115 forward $44 $-1 #
face $-1 $116 $117 $26 $-1 $118 forward single #
loop $-1 $-1 $119 $46 #
plane-surface $-1 66.783529221552129 -18.188458871786878 40.625935797346926 0 0.61566148304635926 0.78801074757464917 1 0 0 forward_v I I I I #
coedge $-1 $120 $121 $122 $123 reversed $47 $-1 #
face $-1 $-1 $124 $27 $-1 $125 forward single #
loop $-1 $126 $127 $49 #
cone-surface $-1 63.327646805043344 25.082523839098243 -0.28613276130900278 0 -0.61566148304635926 -0.78801074757464917 0.75 0 0 1 I I -0.70710678118654757 0.70710678118654757 0.75 forward I I I I #
loop $-1 $-1 $128 $35 #
coedge $-1 $80 $80 $129 $130 reversed $50 $-1 #
face $-1 $-1 $131 $28 $-1 $132 forward single #
loop $-1 $133 $134 $52 #
cone-surface $-1 70.239411638060915 25.082523839098243 -0.28613276130900278 0 -0.61566148304635926 -0.78801074757464917 0.75 0 0 1 I I -0.70710678118654757 0.70710678118654757 0.75 forward I I I I #
loop $-1 $-1 $135 $36 #
coedge $-1 $85 $85 $136 $137 reversed $53 $-1 #
face $-1 $138 $139 $29 $-1 $140 reversed single #
loop $-1 $-1 $141 $55 #
plane-surface $-1 58.71980358303162 -123.73715104708788 119.70655548055559 1 0 0 0 0.61566148304635926 -0.78801074757464917 forward_v I I I I #
coedge $-1 $142 $143 $144 $145 reversed $56 $-1 #
face $-1 $-1 $146 $30 $-1 $147 forward single #
loop $-1 $148 $149 $58 #
cone-surface $-1 63.327646805043344 -25.08252383909824 -0.28613276130899923 0 0.61566148304635926 -0.78801074757464917 0.75 0 0 1 I I -0.70710678118654757 0.70710678118654757 0.75 forward I I I I #
loop $-1 $-1 $150 $38 #
coedge $-1 $94 $94 $151 $152 reversed $59 $-1 #
face $-1 $-1 $153 $31 $-1 $154 forward single #
loop $-1 $155 $156 $61 #
cone-surface $-1 70.239411638060915 -25.08252383909824 -0.28613276130899923 0 0.61566148304635926 -0.78801074757464917 0.75 0 0 1 I I -0.70710678118654757 0.70710678118654757 0.75 forward I I I I #
loop $-1 $-1 $157 $39 #
coedge $-1 $99 $99 $158 $159 reversed $62 $-1 #
face $-1 $160 $161 $24 $-1 $162 reversed single #
loop $-1 $-1 $163 $64 #
plane-surface $-1 0 -31.57600718888559 0 0 1 0 0 0 1 forward_v I I I I #
coedge $-1 $164 $165 $166 $167 forward $65 $-1 #
coedge $-1 $168 $67 $169 $170 forward $41 $-1 #
coedge $-1 $67 $168 $171 $172 forward $41 $-1 #
coedge $-1 $173 $174 $67 $107 reversed $175 $-1 #
edge $-1 $176 -31.57600718888559 $177 31.57600718888559 $106 $178 forward 7 unknown #
face $-1 $179 $180 $25 $-1 $181 reversed single #
loop $-1 $-1 $182 $68 #
plane-surface $-1 -78.983963516970945 -21.563997854186525 0 0 1 0 0 0 1 forward_v I I I I #
coedge $-1 $183 $184 $113 $185 forward $69 $-1 #
coedge $-1 $186 $71 $187 $188 reversed $44 $-1 #
coedge $-1 $71 $186 $111 $185 reversed $44 $-1 #
coedge $-1 $189 $190 $71 $115 reversed $191 $-1 #
edge $-1 $192 -6.5060046673495338 $193 6.5060046673495338 $114 $194 forward 7 unknown #
face $-1 $195 $196 $26 $-1 $197 reversed single #
loop $-1 $-1 $122 $72 #
plane-surface $-1 0 0 6.5060046673495338 0 0 1 1 0 0 forward_v I I I I #
coedge $-1 $198 $199 $200 $201 reversed $73 $-1 #
coedge $-1 $121 $75 $202 $203 reversed $47 $-1 #
coedge $-1 $75 $120 $198 $204 reversed $47 $-1 #
coedge $-1 $200 $205 $75 $123 forward $117 $-1 #
edge $-1 $206 5.4103353043221105 $207 11.503281906110047 $122 $208 forward 7 unknown #
loop $-1 $-1 $129 $76 #
plane-surface $-1 66.783529221552129 -18.188458871786878 40.625935797346926 0 0.61566148304635926 0.78801074757464917 1 0 0 forward_v I I I I #
loop $-1 $-1 $209 $49 #
coedge $-1 $127 $127 $128 $210 reversed $77 $-1 #
coedge $-1 $128 $128 $127 $210 forward $79 $-1 #
coedge $-1 $129 $129 $80 $130 forward $124 $-1 #
edge $-1 $211 -6.8542942641746076e-016 $211 6.2831853071795996 $129 $212 forward 7 unknown #
loop $-1 $-1 $136 $81 #
plane-surface $-1 66.783529221552129 -18.188458871786878 40.625935797346926 0 0.61566148304635926 0.78801074757464917 1 0 0 forward_v I I I I #
loop $-1 $-1 $213 $52 #
coedge $-1 $134 $134 $135 $214 reversed $82 $-1 #
coedge $-1 $135 $135 $134 $214 forward $84 $-1 #
coedge $-1 $136 $136 $85 $137 forward $131 $-1 #
edge $-1 $215 -6.8542942641746076e-016 $215 6.2831853071795996 $136 $216 forward 7 unknown #
face $-1 $217 $218 $29 $-1 $219 forward single #
loop $-1 $-1 $220 $86 #
plane-surface $-1 74.847254860072638 0 0 -1 0 0 0 0 1 forward_v I I I I #
coedge $-1 $221 $222 $223 $224 reversed $87 $-1 #
coedge $-1 $225 $89 $220 $226 reversed $56 $-1 #
coedge $-1 $89 $225 $221 $227 forward $56 $-1 #
coedge $-1 $223 $228 $89 $145 forward $218 $-1 #
edge $-1 $229 -41.455490249296574 $230 -25.328038972255555 $144 $231 forward 7 unknown #
loop $-1 $-1 $151 $90 #
plane-surface $-1 66.783529221552129 -31.576007188885598 1.7456729681633334 0 -0.61566148304635926 0.78801074757464917 1 0 0 forward_v I I I I #
loop $-1 $-1 $232 $58 #
coedge $-1 $149 $149 $150 $233 reversed $91 $-1 #
coedge $-1 $150 $150 $149 $233 forward $93 $-1 #
coedge $-1 $151 $151 $94 $152 forward $146 $-1 #
edge $-1 $234 1.5891600079632903e-015 $234 6.2831853071796022 $151 $235 forward 7 unknown #
loop $-1 $-1 $158 $95 #
plane-surface $-1 66.783529221552129 -31.576007188885598 1.7456729681633334 0 -0.61566148304635926 0.78801074757464917 1 0 0 forward_v I I I I #
loop $-1 $-1 $236 $61 #
coedge $-1 $156 $156 $157 $237 reversed $96 $-1 #
coedge $-1 $157 $157 $156 $237 forward $98 $-1 #
coedge $-1 $158 $158 $99 $159 forward $153 $-1 #
edge $-1 $238 1.5891600079632903e-015 $238 6.2831853071796022 $158 $239 forward 7 unknown #
face $-1 $240 $241 $24 $-1 $242 reversed single #
loop $-1 $-1 $243 $100 #
plane-surface $-1 -74.847254860072638 0 0 1 0 0 0 0 -1 forward_v I I I I #
coedge $-1 $244 $171 $245 $246 forward $101 $-1 #
coedge $-1 $247 $103 $244 $248 forward $65 $-1 #
coedge $-1 $103 $247 $249 $250 forward $65 $-1 #
coedge $-1 $174 $173 $103 $167 reversed $175 $-1 #
edge $-1 $251 -31.57600718888559 $252 31.57600718888559 $166 $253 forward 7 unknown #
coedge $-1 $105 $104 $254 $255 forward $41 $-1 #
coedge $-1 $256 $257 $104 $170 reversed $241 $-1 #
edge $-1 $177 -74.847254860072638 $258 74.847254860072638 $169 $259 forward 7 unknown #
coedge $-1 $163 $260 $105 $172 reversed $101 $-1 #
edge $-1 $261 -74.847254860072638 $176 74.847254860072638 $171 $262 forward 7 unknown #
coedge $-1 $166 $106 $260 $263 forward $175 $-1 #
coedge $-1 $106 $166 $256 $264 reversed $175 $-1 #
loop $-1 $-1 $173 $240 #
vertex $-1 $107 $265 #
vertex $-1 $107 $266 #
straight-curve $-1 74.847254860072638 0 6.5060046673495338 0 1 0 I I #
face $-1 $267 $191 $25 $-1 $268 reversed single #
loop $-1 $-1 $269 $108 #
plane-surface $-1 -83.120672173869252 -20.063997854186525 0 1 0 0 0 0 -1 forward_v I I I I #
coedge $-1 $270 $271 $272 $273 forward $109 $-1 #
coedge $-1 $274 $111 $270 $275 forward $69 $-1 #
coedge $-1 $111 $274 $189 $276 forward $69 $-1 #
edge $-1 $192 18.563997854186525 $277 21.563997854186525 $111 $278 forward 7 unknown #
coedge $-1 $113 $112 $279 $280 forward $44 $-1 #
coedge $-1 $281 $282 $112 $188 forward $283 $-1 #
edge $-1 $284 -21.563997854186525 $193 -18.563997854186525 $187 $285 forward 7 unknown #
coedge $-1 $286 $114 $184 $276 reversed $191 $-1 #
coedge $-1 $114 $286 $281 $287 reversed $191 $-1 #
loop $-1 $-1 $114 $179 #
vertex $-1 $185 $288 #
vertex $-1 $287 $289 #
straight-curve $-1 -74.847254860072638 -18.563997854186525 0 0 0 1 I I #
face $-1 $-1 $290 $26 $-1 $291 reversed single #
loop $-1 $-1 $202 $116 #
plane-surface $-1 0 31.57600718888559 0 0 -1 0 0 0 -1 forward_v I I I I #
coedge $-1 $292 $119 $121 $204 forward $73 $-1 #
coedge $-1 $119 $292 $293 $294 reversed $73 $-1 #
coedge $-1 $295 $122 $119 $201 forward $117 $-1 #
edge $-1 $207 25.328038972255555 $296 41.455490249296574 $200 $297 forward 7 unknown #
coedge $-1 $298 $299 $120 $203 forward $196 $-1 #
edge $-1 $300 -77.547736186706288 $206 -72.787404487520064 $202 $301 forward 7 unknown #
edge $-1 $207 55.419954097450272 $300 63.152014377771188 $121 $302 forward 7 unknown #
coedge $-1 $122 $295 $298 $303 forward $117 $-1 #
vertex $-1 $123 $304 #
vertex $-1 $123 $305 #
straight-curve $-1 58.71980358303162 36.986342493207701 6.5060046673495293 0 -1 0 I I #
coedge $-1 $209 $209 $-1 $306 reversed $126 $-1 #
edge $-1 $307 0 $307 6.2831853071796004 $127 $308 forward 7 unknown #
vertex $-1 $130 $309 #
ellipse-curve $-1 63.327646805043344 28.529533887991629 4.125838817756418 0 0.61566148304635926 0.78801074757464917 1.5 0 0 1 I I #
coedge $-1 $213 $213 $-1 $310 reversed $133 $-1 #
edge $-1 $311 0 $311 6.2831853071796004 $134 $312 forward 7 unknown #
vertex $-1 $137 $313 #
ellipse-curve $-1 70.239411638060915 28.529533887991629 4.125838817756418 0 0.61566148304635926 0.78801074757464917 1.5 0 0 1 I I #
face $-1 $-1 $314 $29 $-1 $315 reversed single #
loop $-1 $-1 $144 $138 #
plane-surface $-1 0 0 6.5060046673495338 0 0 1 1 0 0 forward_v I I I I #
coedge $-1 $316 $317 $142 $226 forward $139 $-1 #
coedge $-1 $222 $141 $143 $227 reversed $87 $-1 #
coedge $-1 $141 $221 $318 $319 reversed $87 $-1 #
coedge $-1 $320 $144 $141 $224 forward $218 $-1 #
edge $-1 $230 -36.385514936446249 $321 -30.292568334658348 $223 $322 forward 7 unknown #
coedge $-1 $143 $142 $323 $324 reversed $56 $-1 #
edge $-1 $325 -11.903744710921419 $229 -4.1716844306005498 $220 $326 forward 7 unknown #
edge $-1 $327 9.0167608931652224e-015 $230 7.7320602803208782 $221 $328 forward 7 unknown #
coedge $-1 $144 $320 $316 $329 forward $218 $-1 #
vertex $-1 $145 $330 #
vertex $-1 $145 $331 #
straight-curve $-1 33.391764610776065 -25.48306058709769 6.5060046673495329 -1 0 0 I I #
coedge $-1 $232 $232 $-1 $332 reversed $148 $-1 #
edge $-1 $333 0 $333 6.2831853071796004 $149 $334 forward 7 unknown #
vertex $-1 $152 $335 #
ellipse-curve $-1 63.327646805043344 -28.52953388799164 4.1258388177564376 0 -0.61566148304635926 0.78801074757464917 1.5 0 0 1 I I #
coedge $-1 $236 $236 $-1 $336 reversed $155 $-1 #
edge $-1 $337 0 $337 6.2831853071796004 $156 $338 forward 7 unknown #
vertex $-1 $159 $339 #
ellipse-curve $-1 70.239411638060915 -28.52953388799164 4.1258388177564376 0 -0.61566148304635926 0.78801074757464917 1.5 0 0 1 I I #
face $-1 $-1 $175 $24 $-1 $340 reversed single #
loop $-1 $-1 $256 $160 #
plane-surface $-1 0 31.57600718888559 0 0 -1 0 0 0 -1 forward_v I I I I #
coedge $-1 $341 $254 $257 $342 forward $161 $-1 #
coedge $-1 $260 $163 $164 $248 reversed $101 $-1 #
coedge $-1 $254 $341 $163 $246 reversed $161 $-1 #
edge $-1 $261 -6.5060046673495338 $343 6.5060046673495338 $245 $344 forward 7 unknown #
coedge $-1 $165 $164 $341 $345 forward $65 $-1 #
edge $-1 $252 -74.847254860072638 $343 74.847254860072638 $244 $346 forward 7 unknown #
coedge $-1 $257 $256 $165 $250 reversed $241 $-1 #
edge $-1 $347 -74.847254860072638 $251 74.847254860072638 $249 $348 forward 7 unknown #
vertex $-1 $167 $349 #
vertex $-1 $263 $350 #
straight-curve $-1 74.847254860072638 0 -6.5060046673495338 0 -1 0 I I #
coedge $-1 $243 $245 $168 $255 reversed $161 $-1 #
edge $-1 $258 -31.57600718888559 $261 31.57600718888559 $254 $351 forward 7 unknown #
coedge $-1 $249 $169 $174 $264 forward $241 $-1 #
coedge $-1 $169 $249 $243 $342 reversed $241 $-1 #
vertex $-1 $170 $352 #
straight-curve $-1 0 31.57600718888559 6.5060046673495338 -1 0 0 I I #
coedge $-1 $171 $244 $173 $263 reversed $101 $-1 #
vertex $-1 $255 $353 #
straight-curve $-1 0 -31.57600718888559 6.5060046673495338 1 0 0 I I #
edge $-1 $176 -6.5060046673495338 $252 6.5060046673495338 $173 $354 forward 7 unknown #
edge $-1 $177 -6.5060046673495338 $251 6.5060046673495338 $174 $355 forward 7 unknown #
point $-1 74.847254860072638 -31.57600718888559 6.5060046673495338 #
point $-1 74.847254860072638 31.57600718888559 6.5060046673495338 #
face $-1 $-1 $283 $25 $-1 $356 forward single #
plane-surface $-1 -78.983963516970945 -18.563997854186525 0 0 -1 0 0 0 -1 forward_v I I I I #
coedge $-1 $357 $358 $286 $359 forward $180 $-1 #
coedge $-1 $279 $182 $183 $275 reversed $109 $-1 #
coedge $-1 $182 $279 $282 $360 reversed $109 $-1 #
coedge $-1 $358 $357 $182 $273 reversed $180 $-1 #
edge $-1 $361 -6.5060046673495338 $362 6.5060046673495338 $272 $363 forward 7 unknown #
coedge $-1 $184 $183 $357 $364 forward $69 $-1 #
edge $-1 $277 -4.1367086568983069 $362 4.1367086568983069 $270 $365 forward 7 unknown #
edge $-1 $366 -4.1367086568983069 $192 4.1367086568983069 $189 $367 forward 7 unknown #
vertex $-1 $275 $368 #
straight-curve $-1 -74.847254860072638 0 -6.5060046673495338 0 -1 0 I I #
coedge $-1 $271 $270 $186 $280 reversed $109 $-1 #
edge $-1 $284 -6.5060046673495338 $277 6.5060046673495338 $279 $369 forward 7 unknown #
coedge $-1 $370 $187 $190 $287 forward $283 $-1 #
coedge $-1 $187 $370 $271 $360 forward $283 $-1 #
loop $-1 $-1 $187 $267 #
vertex $-1 $188 $371 #
straight-curve $-1 -74.847254860072638 0 6.5060046673495338 0 1 0 I I #
coedge $-1 $190 $189 $269 $359 reversed $191 $-1 #
edge $-1 $193 -4.1367086568983069 $372 4.1367086568983069 $190 $373 forward 7 unknown #
point $-1 -74.847254860072638 -18.563997854186525 -6.5060046673495338 #
point $-1 -74.847254860072638 -18.563997854186525 6.5060046673495338 #
loop $-1 $-1 $293 $195 #
plane-surface $-1 74.847254860072638 0 0 -1 0 0 0 0 1 forward_v I I I I #
coedge $-1 $199 $198 $299 $374 reversed $73 $-1 #
coedge $-1 $375 $376 $199 $294 forward $290 $-1 #
edge $-1 $296 35.747691619486112 $377 43.479751899807027 $293 $378 forward 7 unknown #
coedge $-1 $205 $200 $376 $379 forward $117 $-1 #
vertex $-1 $379 $380 #
straight-curve $-1 33.391764610776065 25.483060587097654 6.5060046673495293 1 0 0 I I #
coedge $-1 $381 $202 $205 $303 reversed $196 $-1 #
coedge $-1 $202 $381 $292 $374 forward $196 $-1 #
vertex $-1 $203 $382 #
straight-curve $-1 58.71980358303162 31.57600718888559 79.293409154869593 0 0 1 I I #
straight-curve $-1 58.71980358303162 -18.188458871786878 40.625935797346926 0 0.78801074757464917 -0.61566148304635926 I I #
edge $-1 $383 -74.847254860072638 $206 -58.71980358303162 $298 $384 forward 7 unknown #
point $-1 58.71980358303162 31.57600718888559 6.5060046673495338 #
point $-1 58.71980358303162 25.483060587097654 6.5060046673495364 #
edge $-1 $385 1 $385 0 $209 $-1 forward 7 unknown #
vertex $-1 $210 $386 #
ellipse-curve $-1 63.327646805043344 25.544269951383011 0.3048752993719841 0 0.61566148304635926 0.78801074757464917 1.5 0 0 1 I I #
point $-1 64.827646805043344 28.529533887991633 4.1258388177564242 #
edge $-1 $387 1 $387 0 $213 $-1 forward 7 unknown #
vertex $-1 $214 $388 #
ellipse-curve $-1 70.239411638060915 25.544269951383011 0.3048752993719841 0 0.61566148304635926 0.78801074757464917 1.5 0 0 1 I I #
point $-1 71.739411638060915 28.529533887991633 4.1258388177564242 #
loop $-1 $-1 $323 $217 #
plane-surface $-1 0 -31.57600718888559 0 0 1 0 0 0 1 forward_v I I I I #
coedge $-1 $317 $220 $228 $329 reversed $139 $-1 #
coedge $-1 $220 $316 $389 $390 forward $139 $-1 #
coedge $-1 $323 $391 $222 $319 forward $314 $-1 #
edge $-1 $321 53.34727307292826 $327 58.107604772114456 $318 $392 forward 7 unknown #
coedge $-1 $228 $223 $391 $393 forward $218 $-1 #
vertex $-1 $393 $394 #
straight-curve $-1 58.71980358303162 -61.868575523543939 6.5060046673495364 0 -1 0 I I #
coedge $-1 $389 $318 $225 $324 forward $314 $-1 #
edge $-1 $327 25.328038972255555 $325 41.455490249296574 $323 $395 forward 7 unknown #
vertex $-1 $324 $396 #
straight-curve $-1 74.847254860072638 -22.195728420294625 9.074350090694475 0 0.78801074757464917 0.61566148304635926 I I #
vertex $-1 $324 $397 #
straight-curve $-1 58.71980358303162 -31.576007188885598 1.7456729681633334 0 0.78801074757464917 0.61566148304635926 I I #
edge $-1 $398 -31.57600718888559 $229 -25.48306058709769 $316 $399 forward 7 unknown #
point $-1 74.847254860072638 -25.48306058709769 6.5060046673495338 #
point $-1 58.71980358303162 -25.48306058709769 6.5060046673495338 #
edge $-1 $400 1 $400 0 $232 $-1 forward 7 unknown #
vertex $-1 $233 $401 #
ellipse-curve $-1 63.327646805043344 -25.544269951383008 0.30487529937198765 0 -0.61566148304635926 0.78801074757464917 1.5 0 0 1 I I #
point $-1 64.827646805043344 -28.529533887991629 4.1258388177564278 #
edge $-1 $402 1 $402 0 $236 $-1 forward 7 unknown #
vertex $-1 $237 $403 #
ellipse-curve $-1 70.239411638060915 -25.544269951383008 0.30487529937198765 0 -0.61566148304635926 0.78801074757464917 1.5 0 0 1 I I #
point $-1 71.739411638060915 -28.529533887991629 4.1258388177564278 #
plane-surface $-1 74.847254860072638 0 0 -1 0 0 0 0 1 forward_v I I I I #
coedge $-1 $245 $243 $247 $345 reversed $161 $-1 #
edge $-1 $258 -6.5060046673495338 $347 6.5060046673495338 $257 $404 forward 7 unknown #
vertex $-1 $345 $405 #
straight-curve $-1 -74.847254860072638 -31.57600718888559 0 0 0 -1 I I #
edge $-1 $343 -31.57600718888559 $347 31.57600718888559 $341 $406 forward 7 unknown #
straight-curve $-1 0 -31.57600718888559 -6.5060046673495338 -1 0 0 I I #
vertex $-1 $250 $407 #
straight-curve $-1 0 31.57600718888559 -6.5060046673495338 1 0 0 I I #
point $-1 74.847254860072638 31.57600718888559 -6.5060046673495338 #
point $-1 74.847254860072638 -31.57600718888559 -6.5060046673495338 #
straight-curve $-1 -74.847254860072638 0 6.5060046673495338 0 -1 0 I I #
point $-1 -74.847254860072638 31.57600718888559 6.5060046673495338 #
point $-1 -74.847254860072638 -31.57600718888559 6.5060046673495338 #
straight-curve $-1 74.847254860072638 -31.57600718888559 0 0 0 -1 I I #
straight-curve $-1 74.847254860072638 31.57600718888559 0 0 0 -1 I I #
plane-surface $-1 0 0 6.5060046673495338 0 0 1 1 0 0 forward_v I I I I #
coedge $-1 $272 $269 $274 $364 reversed $180 $-1 #
coedge $-1 $269 $272 $370 $408 reversed $180 $-1 #
edge $-1 $372 -6.5060046673495338 $366 6.5060046673495338 $286 $409 forward 7 unknown #
edge $-1 $361 -4.1367086568983069 $284 4.1367086568983069 $271 $410 forward 7 unknown #
vertex $-1 $408 $411 #
vertex $-1 $364 $412 #
straight-curve $-1 -83.120672173869252 -21.563997854186525 0 0 0 -1 I I #
edge $-1 $362 -1.5 $366 1.5 $357 $413 forward 7 unknown #
straight-curve $-1 -78.983963516970945 -21.563997854186525 -6.5060046673495338 -1 0 0 I I #
vertex $-1 $276 $414 #
straight-curve $-1 -78.983963516970945 -18.563997854186525 -6.5060046673495338 1 0 0 I I #
point $-1 -74.847254860072638 -21.563997854186525 -6.5060046673495338 #
straight-curve $-1 -74.847254860072638 -21.563997854186525 0 0 0 -1 I I #
coedge $-1 $282 $281 $358 $408 forward $283 $-1 #
point $-1 -74.847254860072638 -21.563997854186525 6.5060046673495338 #
vertex $-1 $287 $415 #
straight-curve $-1 -78.983963516970945 -18.563997854186525 6.5060046673495338 -1 0 0 I I #
edge $-1 $377 -41.455490249296574 $300 -25.328038972255555 $299 $416 forward 7 unknown #
coedge $-1 $376 $293 $381 $417 reversed $290 $-1 #
coedge $-1 $293 $375 $295 $379 reversed $290 $-1 #
vertex $-1 $294 $418 #
straight-curve $-1 74.847254860072638 -2.6865046100416183 28.514481505286263 0 0.78801074757464917 -0.61566148304635926 I I #
edge $-1 $296 25.483060587097654 $383 31.57600718888559 $376 $419 forward 7 unknown #
point $-1 74.847254860072638 25.483060587097654 6.5060046673495364 #
coedge $-1 $299 $298 $375 $417 forward $196 $-1 #
point $-1 58.71980358303162 31.57600718888559 1.7456729681633121 #
vertex $-1 $379 $420 #
straight-curve $-1 0 31.57600718888559 6.5060046673495338 -1 0 0 I I #
vertex $-1 $306 $421 #
point $-1 64.827646805043344 25.544269951383011 0.3048752993719841 #
vertex $-1 $310 $422 #
point $-1 71.739411638060915 25.544269951383011 0.3048752993719841 #
coedge $-1 $391 $323 $317 $390 reversed $314 $-1 #
edge $-1 $398 -6.5060046673495338 $325 -1.7456729681633389 $317 $423 forward 7 unknown #
coedge $-1 $318 $389 $320 $393 reversed $314 $-1 #
straight-curve $-1 58.71980358303162 -31.57600718888559 59.853277740277797 0 0 -1 I I #
edge $-1 $321 58.71980358303162 $398 74.847254860072638 $391 $424 forward 7 unknown #
point $-1 58.71980358303162 -31.57600718888559 6.5060046673495338 #
straight-curve $-1 33.391764610776065 -31.57600718888559 1.7456729681633389 1 0 0 I I #
point $-1 74.847254860072638 -31.57600718888559 1.7456729681633389 #
point $-1 58.71980358303162 -31.57600718888559 1.7456729681633389 #
vertex $-1 $329 $425 #
straight-curve $-1 74.847254860072638 0 6.5060046673495338 0 1 0 I I #
vertex $-1 $332 $426 #
point $-1 64.827646805043344 -25.544269951383008 0.30487529937198765 #
vertex $-1 $336 $427 #
point $-1 71.739411638060915 -25.544269951383008 0.30487529937198765 #
straight-curve $-1 -74.847254860072638 31.57600718888559 0 0 0 -1 I I #
point $-1 -74.847254860072638 -31.57600718888559 -6.5060046673495338 #
straight-curve $-1 -74.847254860072638 0 -6.5060046673495338 0 1 0 I I #
point $-1 -74.847254860072638 31.57600718888559 -6.5060046673495338 #
edge $-1 $372 -1.5 $361 1.5 $358 $428 forward 7 unknown #
straight-curve $-1 -83.120672173869252 -18.563997854186525 0 0 0 -1 I I #
straight-curve $-1 -78.983963516970945 -21.563997854186525 6.5060046673495338 1 0 0 I I #
point $-1 -83.120672173869252 -21.563997854186525 6.5060046673495338 #
point $-1 -83.120672173869252 -21.563997854186525 -6.5060046673495338 #
straight-curve $-1 -83.120672173869252 -20.063997854186525 -6.5060046673495338 0 1 0 I I #
point $-1 -83.120672173869252 -18.563997854186525 -6.5060046673495338 #
point $-1 -83.120672173869252 -18.563997854186525 6.5060046673495338 #
straight-curve $-1 33.391764610776065 31.57600718888559 1.7456729681633085 -1 0 0 I I #
edge $-1 $383 -6.5060046673495338 $377 -1.7456729681633121 $375 $429 forward 7 unknown #
point $-1 74.847254860072638 31.57600718888559 1.7456729681633121 #
straight-curve $-1 74.847254860072638 0 6.5060046673495338 0 1 0 I I #
point $-1 74.847254860072638 31.57600718888559 6.5060046673495338 #
point $-1 63.327646805043344 24.620777726813476 -0.87714082198998966 #
point $-1 70.239411638060915 24.620777726813476 -0.87714082198998966 #
straight-curve $-1 74.847254860072638 -31.57600718888559 0 0 0 -1 I I #
straight-curve $-1 0 -31.57600718888559 6.5060046673495338 1 0 0 I I #
point $-1 74.847254860072638 -31.57600718888559 6.5060046673495338 #
point $-1 63.327646805043344 -24.620777726813472 -0.87714082198998611 #
point $-1 70.239411638060915 -24.620777726813472 -0.87714082198998611 #
straight-curve $-1 -83.120672173869252 -20.063997854186525 6.5060046673495338 0 -1 0 I I #
straight-curve $-1 74.847254860072638 31.57600718888559 0 0 0 -1 I I #
End-of-ACIS-data 