500 0 15 0           
7 Unknown 11 ACIS 5.0 NT 24 Fri Mar 26 17:36:57 1999 
-1 9.9999999999999995e-007 1e-010 
body $-1 $15 $-1 $16 #
body $-1 $17 $-1 $18 #
body $-1 $19 $-1 $20 #
body $-1 $21 $-1 $22 #
body $-1 $23 $-1 $24 #
body $-1 $25 $-1 $26 #
body $-1 $27 $-1 $28 #
body $-1 $29 $-1 $30 #
body $-1 $31 $-1 $32 #
body $-1 $33 $-1 $34 #
body $-1 $35 $-1 $36 #
body $-1 $37 $-1 $38 #
body $-1 $39 $-1 $40 #
body $-1 $41 $-1 $42 #
body $-1 $43 $-1 $44 #
lump $-1 $-1 $45 $0 #
transform $-1 1 0 0 0 1 0 0 0 1 48.321787163914912 22.671142631519917 6.39340475132175 1 rotate no_reflect no_shear #
lump $-1 $-1 $46 $1 #
transform $-1 1 0 0 0 1 0 0 0 1 48.321787163914912 22.671142631519917 6.39340475132175 1 rotate no_reflect no_shear #
lump $-1 $-1 $47 $2 #
transform $-1 1 0 0 0 1 0 0 0 1 48.321787163914912 22.671142631519917 6.39340475132175 1 rotate no_reflect no_shear #
lump $-1 $-1 $48 $3 #
transform $-1 1 0 0 0 1 0 0 0 1 48.321787163914912 22.671142631519917 6.39340475132175 1 rotate no_reflect no_shear #
lump $-1 $-1 $49 $4 #
transform $-1 1 0 0 0 1 0 0 0 1 48.321787163914912 22.671142631519917 6.39340475132175 1 rotate no_reflect no_shear #
lump $-1 $-1 $50 $5 #
transform $-1 1 0 0 0 1 0 0 0 1 48.321787163914912 22.671142631519917 6.39340475132175 1 rotate no_reflect no_shear #
lump $-1 $-1 $51 $6 #
transform $-1 1 0 0 0 1 0 0 0 1 48.321787163914912 22.671142631519917 6.39340475132175 1 rotate no_reflect no_shear #
lump $-1 $-1 $52 $7 #
transform $-1 1 0 0 0 1 0 0 0 1 48.321787163914912 22.671142631519917 6.39340475132175 1 rotate no_reflect no_shear #
lump $-1 $-1 $53 $8 #
transform $-1 1 0 0 0 1 0 0 0 1 48.321787163914912 22.671142631519917 6.39340475132175 1 rotate no_reflect no_shear #
lump $-1 $-1 $54 $9 #
transform $-1 1 0 0 0 1 0 0 0 1 48.321787163914912 22.671142631519917 6.39340475132175 1 rotate no_reflect no_shear #
lump $-1 $-1 $55 $10 #
transform $-1 1 0 0 0 1 0 0 0 1 48.321787163914912 22.671142631519917 6.39340475132175 1 rotate no_reflect no_shear #
lump $-1 $-1 $56 $11 #
transform $-1 1 0 0 0 1 0 0 0 1 48.321787163914912 22.671142631519917 6.39340475132175 1 rotate no_reflect no_shear #
lump $-1 $-1 $57 $12 #
transform $-1 1 0 0 0 1 0 0 0 1 48.321787163914912 22.671142631519917 6.39340475132175 1 rotate no_reflect no_shear #
lump $-1 $-1 $58 $13 #
transform $-1 1 0 0 0 1 0 0 0 1 48.321787163914912 22.671142631519917 6.39340475132175 1 rotate no_reflect no_shear #
lump $-1 $-1 $59 $14 #
transform $-1 1 0 0 0 1 0 0 0 1 48.321787163914912 22.671142631519917 6.39340475132175 1 rotate no_reflect no_shear #
shell $-1 $-1 $-1 $60 $-1 $15 #
shell $-1 $-1 $-1 $61 $-1 $17 #
shell $-1 $-1 $-1 $62 $-1 $19 #
shell $-1 $-1 $-1 $63 $-1 $21 #
shell $-1 $-1 $-1 $64 $-1 $23 #
shell $-1 $-1 $-1 $65 $-1 $25 #
shell $-1 $-1 $-1 $66 $-1 $27 #
shell $-1 $-1 $-1 $67 $-1 $29 #
shell $-1 $-1 $-1 $68 $-1 $31 #
shell $-1 $-1 $-1 $69 $-1 $33 #
shell $-1 $-1 $-1 $70 $-1 $35 #
shell $-1 $-1 $-1 $71 $-1 $37 #
shell $-1 $-1 $-1 $72 $-1 $39 #
shell $-1 $-1 $-1 $73 $-1 $41 #
shell $-1 $-1 $-1 $74 $-1 $43 #
face $-1 $75 $76 $45 $-1 $77 forward single #
face $-1 $78 $79 $46 $-1 $80 reversed single #
face $-1 $81 $82 $47 $-1 $83 forward single #
face $-1 $84 $85 $48 $-1 $86 forward single #
face $-1 $87 $88 $49 $-1 $89 reversed single #
face $-1 $90 $91 $50 $-1 $92 forward single #
face $-1 $93 $94 $51 $-1 $95 forward single #
face $-1 $96 $97 $52 $-1 $98 reversed single #
face $-1 $99 $100 $53 $-1 $101 forward single #
face $-1 $102 $103 $54 $-1 $104 forward single #
face $-1 $105 $106 $55 $-1 $107 reversed single #
face $-1 $108 $109 $56 $-1 $110 forward single #
face $-1 $111 $112 $57 $-1 $113 forward single #
face $-1 $114 $115 $58 $-1 $116 reversed single #
face $-1 $117 $118 $59 $-1 $119 forward single #
face $-1 $120 $121 $45 $-1 $122 reversed single #
loop $-1 $-1 $123 $60 #
plane-surface $-1 0 0 6.39340475132175 0 0 1 1 0 0 forward_v I I I I #
face $-1 $124 $125 $46 $-1 $126 reversed single #
loop $-1 $-1 $127 $61 #
plane-surface $-1 -38.471247730050223 70.911821505945554 96.392516424707424 1 0 0 0 -0.78801076186113728 -0.61566146476048833 forward_v I I I I #
face $-1 $128 $129 $47 $-1 $130 forward single #
loop $-1 $131 $132 $62 #
cone-surface $-1 -34.382575116309432 19.593319835371627 2.9698008779333223 0 -0.78801076186113728 -0.61566146476048833 1.5 0 0 1 I I 0 1 1.5 forward I I I I #
face $-1 $133 $134 $48 $-1 $135 forward single #
loop $-1 $136 $137 $63 #
cone-surface $-1 -28.249566195698247 19.593319835371627 2.9698008779333223 0 -0.78801076186113728 -0.61566146476048833 1.5 0 0 1 I I 0 1 1.5 forward I I I I #
face $-1 $138 $139 $49 $-1 $140 reversed single #
loop $-1 $-1 $141 $64 #
plane-surface $-1 -17.593867292714336 70.911821505945554 96.392516424707424 1 0 0 0 -0.78801076186113728 -0.61566146476048833 forward_v I I I I #
face $-1 $142 $143 $50 $-1 $144 forward single #
loop $-1 $145 $146 $65 #
cone-surface $-1 -13.505194678973545 19.593319835371627 2.9698008779333223 0 -0.78801076186113728 -0.61566146476048833 1.5 0 0 1 I I 0 1 1.5 forward I I I I #
face $-1 $147 $148 $51 $-1 $149 forward single #
loop $-1 $150 $151 $66 #
cone-surface $-1 -7.372185758362356 19.593319835371627 2.9698008779333223 0 -0.78801076186113728 -0.61566146476048833 1.5 0 0 1 I I 0 1 1.5 forward I I I I #
face $-1 $152 $153 $52 $-1 $154 reversed single #
loop $-1 $-1 $155 $67 #
plane-surface $-1 3.2835131446215531 70.911821505945554 96.392516424707424 1 0 0 0 -0.78801076186113728 -0.61566146476048833 forward_v I I I I #
face $-1 $156 $157 $53 $-1 $158 forward single #
loop $-1 $159 $160 $68 #
cone-surface $-1 7.3721857583623418 19.593319835371627 2.9698008779333223 0 -0.78801076186113728 -0.61566146476048833 1.5 0 0 1 I I 0 1 1.5 forward I I I I #
face $-1 $161 $162 $54 $-1 $163 forward single #
loop $-1 $164 $165 $69 #
cone-surface $-1 13.505194678973531 19.593319835371627 2.9698008779333223 0 -0.78801076186113728 -0.61566146476048833 1.5 0 0 1 I I 0 1 1.5 forward I I I I #
face $-1 $166 $167 $55 $-1 $168 reversed single #
loop $-1 $-1 $169 $70 #
plane-surface $-1 24.160893581957438 70.911821505945554 96.392516424707424 1 0 0 0 -0.78801076186113728 -0.61566146476048833 forward_v I I I I #
face $-1 $170 $171 $56 $-1 $172 forward single #
loop $-1 $173 $174 $71 #
cone-surface $-1 28.249566195698229 19.593319835371627 2.9698008779333223 0 -0.78801076186113728 -0.61566146476048833 1.5 0 0 1 I I 0 1 1.5 forward I I I I #
face $-1 $175 $176 $57 $-1 $177 forward single #
loop $-1 $178 $179 $72 #
cone-surface $-1 34.382575116309418 19.593319835371627 2.9698008779333223 0 -0.78801076186113728 -0.61566146476048833 1.5 0 0 1 I I 0 1 1.5 forward I I I I #
face $-1 $180 $181 $58 $-1 $182 reversed single #
loop $-1 $-1 $183 $73 #
plane-surface $-1 -38.519986859838347 -88.581902617305957 73.303955375923152 -1 0 0 0 -0.68199836817093118 0.7313536940579346 forward_v I I I I #
face $-1 $184 $185 $59 $-1 $186 forward single #
loop $-1 $187 $188 $74 #
cone-surface $-1 -43.42088701187663 -19.310443377690508 3.0722045611082729 0 0.68199836817093118 -0.7313536940579346 1 0 0 1 I I 0 1 1 forward I I I I #
face $-1 $189 $190 $45 $-1 $191 reversed single #
loop $-1 $-1 $192 $75 #
plane-surface $-1 0 0 -6.39340475132175 0 0 1 1 0 0 forward_v I I I I #
coedge $-1 $193 $194 $195 $196 forward $76 $-1 #
face $-1 $197 $198 $46 $-1 $199 reversed single #
loop $-1 $-1 $200 $78 #
plane-surface $-1 -31.316070656003838 -5.2443551291110708 36.892791894346587 0 0.78801076186113728 0.61566146476048833 1 0 0 forward_v I I I I #
coedge $-1 $201 $202 $203 $204 reversed $79 $-1 #
face $-1 $-1 $205 $47 $-1 $206 forward single #
loop $-1 $207 $208 $81 #
cone-surface $-1 -34.382575116309432 17.967871781350116 1.699861711788639 0 -0.78801076186113728 -0.61566146476048833 0.75 0 0 1 I I -0.70710678118654757 0.70710678118654757 0.75 forward I I I I #
loop $-1 $-1 $209 $62 #
coedge $-1 $132 $132 $210 $211 reversed $82 $-1 #
face $-1 $-1 $212 $48 $-1 $213 forward single #
loop $-1 $214 $215 $84 #
cone-surface $-1 -28.249566195698247 17.967871781350116 1.699861711788639 0 -0.78801076186113728 -0.61566146476048833 0.75 0 0 1 I I -0.70710678118654757 0.70710678118654757 0.75 forward I I I I #
loop $-1 $-1 $216 $63 #
coedge $-1 $137 $137 $217 $218 reversed $85 $-1 #
face $-1 $219 $220 $49 $-1 $221 reversed single #
loop $-1 $-1 $222 $87 #
plane-surface $-1 -10.438690218667951 -5.2443551291110708 36.892791894346587 0 0.78801076186113728 0.61566146476048833 1 0 0 forward_v I I I I #
coedge $-1 $223 $224 $225 $226 reversed $88 $-1 #
face $-1 $-1 $227 $50 $-1 $228 forward single #
loop $-1 $229 $230 $90 #
cone-surface $-1 -13.505194678973545 17.967871781350116 1.699861711788639 0 -0.78801076186113728 -0.61566146476048833 0.75 0 0 1 I I -0.70710678118654757 0.70710678118654757 0.75 forward I I I I #
loop $-1 $-1 $231 $65 #
coedge $-1 $146 $146 $232 $233 reversed $91 $-1 #
face $-1 $-1 $234 $51 $-1 $235 forward single #
loop $-1 $236 $237 $93 #
cone-surface $-1 -7.372185758362356 17.967871781350116 1.699861711788639 0 -0.78801076186113728 -0.61566146476048833 0.75 0 0 1 I I -0.70710678118654757 0.70710678118654757 0.75 forward I I I I #
loop $-1 $-1 $238 $66 #
coedge $-1 $151 $151 $239 $240 reversed $94 $-1 #
face $-1 $241 $242 $52 $-1 $243 reversed single #
loop $-1 $-1 $244 $96 #
plane-surface $-1 10.438690218667936 -5.2443551291110708 36.892791894346587 0 0.78801076186113728 0.61566146476048833 1 0 0 forward_v I I I I #
coedge $-1 $245 $246 $247 $248 reversed $97 $-1 #
face $-1 $-1 $249 $53 $-1 $250 forward single #
loop $-1 $251 $252 $99 #
cone-surface $-1 7.3721857583623418 17.967871781350116 1.699861711788639 0 -0.78801076186113728 -0.61566146476048833 0.75 0 0 1 I I -0.70710678118654757 0.70710678118654757 0.75 forward I I I I #
loop $-1 $-1 $253 $68 #
coedge $-1 $160 $160 $254 $255 reversed $100 $-1 #
face $-1 $-1 $256 $54 $-1 $257 forward single #
loop $-1 $258 $259 $102 #
cone-surface $-1 13.505194678973531 17.967871781350116 1.699861711788639 0 -0.78801076186113728 -0.61566146476048833 0.75 0 0 1 I I -0.70710678118654757 0.70710678118654757 0.75 forward I I I I #
loop $-1 $-1 $260 $69 #
coedge $-1 $165 $165 $261 $262 reversed $103 $-1 #
face $-1 $263 $264 $55 $-1 $265 reversed single #
loop $-1 $-1 $266 $105 #
plane-surface $-1 31.316070656003824 -5.2443551291110708 36.892791894346587 0 0.78801076186113728 0.61566146476048833 1 0 0 forward_v I I I I #
coedge $-1 $267 $268 $269 $270 reversed $106 $-1 #
face $-1 $-1 $271 $56 $-1 $272 forward single #
loop $-1 $273 $274 $108 #
cone-surface $-1 28.249566195698229 17.967871781350116 1.699861711788639 0 -0.78801076186113728 -0.61566146476048833 0.75 0 0 1 I I -0.70710678118654757 0.70710678118654757 0.75 forward I I I I #
loop $-1 $-1 $275 $71 #
coedge $-1 $174 $174 $276 $277 reversed $109 $-1 #
face $-1 $-1 $278 $57 $-1 $279 forward single #
loop $-1 $280 $281 $111 #
cone-surface $-1 34.382575116309418 17.967871781350116 1.699861711788639 0 -0.78801076186113728 -0.61566146476048833 0.75 0 0 1 I I -0.70710678118654757 0.70710678118654757 0.75 forward I I I I #
loop $-1 $-1 $282 $72 #
coedge $-1 $179 $179 $283 $284 reversed $112 $-1 #
face $-1 $285 $286 $58 $-1 $287 forward single #
loop $-1 $-1 $288 $114 #
plane-surface $-1 -43.42088701187663 -22.671142631519913 2.6233202843022383 0 -0.68199836817093118 0.7313536940579346 1 0 0 forward_v I I I I #
coedge $-1 $289 $290 $291 $292 reversed $115 $-1 #
face $-1 $-1 $293 $59 $-1 $294 forward single #
loop $-1 $295 $296 $117 #
cone-surface $-1 -43.42088701187663 -17.630205203133698 1.2703697573755859 0 0.68199836817093118 -0.7313536940579346 0.5 0 0 1 I I -0.70710678118654746 0.70710678118654746 0.5 forward I I I I #
loop $-1 $-1 $297 $74 #
coedge $-1 $188 $188 $298 $299 reversed $118 $-1 #
face $-1 $300 $301 $45 $-1 $302 reversed single #
loop $-1 $-1 $303 $120 #
plane-surface $-1 0 -22.671142631519917 0 0 1 0 0 0 1 forward_v I I I I #
coedge $-1 $304 $305 $306 $307 forward $121 $-1 #
coedge $-1 $308 $123 $309 $310 forward $76 $-1 #
coedge $-1 $123 $308 $311 $312 forward $76 $-1 #
coedge $-1 $313 $314 $123 $196 reversed $315 $-1 #
edge $-1 $316 -22.671142631519917 $317 22.671142631519917 $195 $318 forward 7 unknown #
face $-1 $319 $320 $46 $-1 $321 reversed single #
loop $-1 $-1 $322 $124 #
plane-surface $-1 -24.160893581957453 70.911821505945554 96.392516424707424 -1 0 0 0 0.78801076186113728 0.61566146476048833 forward_v I I I I #
coedge $-1 $323 $324 $325 $326 reversed $125 $-1 #
coedge $-1 $202 $127 $327 $328 reversed $79 $-1 #
coedge $-1 $127 $201 $323 $329 reversed $79 $-1 #
coedge $-1 $325 $330 $127 $204 forward $331 $-1 #
edge $-1 $332 12.78476812145286 $333 16.871533748498091 $203 $334 forward 7 unknown #
loop $-1 $-1 $210 $128 #
plane-surface $-1 -31.316070656003838 -5.2443551291110708 36.892791894346587 0 0.78801076186113728 0.61566146476048833 1 0 0 forward_v I I I I #
loop $-1 $-1 $335 $81 #
coedge $-1 $208 $208 $209 $336 reversed $129 $-1 #
coedge $-1 $209 $209 $208 $336 forward $131 $-1 #
coedge $-1 $210 $210 $132 $211 forward $205 $-1 #
edge $-1 $337 -1.1704774028271985e-016 $337 6.2831853071796004 $210 $338 forward 7 unknown #
loop $-1 $-1 $217 $133 #
plane-surface $-1 -31.316070656003838 -5.2443551291110708 36.892791894346587 0 0.78801076186113728 0.61566146476048833 1 0 0 forward_v I I I I #
loop $-1 $-1 $339 $84 #
coedge $-1 $215 $215 $216 $340 reversed $134 $-1 #
coedge $-1 $216 $216 $215 $340 forward $136 $-1 #
coedge $-1 $217 $217 $137 $218 forward $212 $-1 #
edge $-1 $341 -1.1704774028271985e-016 $341 6.2831853071796004 $217 $342 forward 7 unknown #
face $-1 $343 $344 $49 $-1 $345 forward single #
loop $-1 $-1 $346 $138 #
plane-surface $-1 -3.2835131446215673 70.911821505945554 96.392516424707424 -1 0 0 0 0.78801076186113728 0.61566146476048833 forward_v I I I I #
coedge $-1 $347 $348 $349 $350 reversed $139 $-1 #
coedge $-1 $224 $141 $351 $352 reversed $88 $-1 #
coedge $-1 $141 $223 $347 $353 reversed $88 $-1 #
coedge $-1 $349 $354 $141 $226 forward $344 $-1 #
edge $-1 $355 12.78476812145286 $356 16.871533748498091 $225 $357 forward 7 unknown #
loop $-1 $-1 $232 $142 #
plane-surface $-1 -10.438690218667951 -5.2443551291110708 36.892791894346587 0 0.78801076186113728 0.61566146476048833 1 0 0 forward_v I I I I #
loop $-1 $-1 $358 $90 #
coedge $-1 $230 $230 $231 $359 reversed $143 $-1 #
coedge $-1 $231 $231 $230 $359 forward $145 $-1 #
coedge $-1 $232 $232 $146 $233 forward $227 $-1 #
edge $-1 $360 -1.1704774028271985e-016 $360 6.2831853071796004 $232 $361 forward 7 unknown #
loop $-1 $-1 $239 $147 #
plane-surface $-1 -10.438690218667951 -5.2443551291110708 36.892791894346587 0 0.78801076186113728 0.61566146476048833 1 0 0 forward_v I I I I #
loop $-1 $-1 $362 $93 #
coedge $-1 $237 $237 $238 $363 reversed $148 $-1 #
coedge $-1 $238 $238 $237 $363 forward $150 $-1 #
coedge $-1 $239 $239 $151 $240 forward $234 $-1 #
edge $-1 $364 -1.1704774028271985e-016 $364 6.2831853071796004 $239 $365 forward 7 unknown #
face $-1 $366 $367 $52 $-1 $368 forward single #
loop $-1 $-1 $369 $152 #
plane-surface $-1 17.593867292714322 70.911821505945554 96.392516424707424 -1 0 0 0 0.78801076186113728 0.61566146476048833 forward_v I I I I #
coedge $-1 $370 $371 $372 $373 reversed $153 $-1 #
coedge $-1 $246 $155 $374 $375 reversed $97 $-1 #
coedge $-1 $155 $245 $370 $376 reversed $97 $-1 #
coedge $-1 $372 $377 $155 $248 forward $367 $-1 #
edge $-1 $378 12.78476812145286 $379 16.871533748498091 $247 $380 forward 7 unknown #
loop $-1 $-1 $254 $156 #
plane-surface $-1 10.438690218667936 -5.2443551291110708 36.892791894346587 0 0.78801076186113728 0.61566146476048833 1 0 0 forward_v I I I I #
loop $-1 $-1 $381 $99 #
coedge $-1 $252 $252 $253 $382 reversed $157 $-1 #
coedge $-1 $253 $253 $252 $382 forward $159 $-1 #
coedge $-1 $254 $254 $160 $255 forward $249 $-1 #
edge $-1 $383 -1.1704774028271985e-016 $383 6.2831853071796004 $254 $384 forward 7 unknown #
loop $-1 $-1 $261 $161 #
plane-surface $-1 10.438690218667936 -5.2443551291110708 36.892791894346587 0 0.78801076186113728 0.61566146476048833 1 0 0 forward_v I I I I #
loop $-1 $-1 $385 $102 #
coedge $-1 $259 $259 $260 $386 reversed $162 $-1 #
coedge $-1 $260 $260 $259 $386 forward $164 $-1 #
coedge $-1 $261 $261 $165 $262 forward $256 $-1 #
edge $-1 $387 -1.1704774028271985e-016 $387 6.2831853071796004 $261 $388 forward 7 unknown #
face $-1 $389 $390 $55 $-1 $391 forward single #
loop $-1 $-1 $392 $166 #
plane-surface $-1 38.471247730050209 70.911821505945554 96.392516424707424 -1 0 0 0 0.78801076186113728 0.61566146476048833 forward_v I I I I #
coedge $-1 $393 $394 $395 $396 reversed $167 $-1 #
coedge $-1 $268 $169 $397 $398 reversed $106 $-1 #
coedge $-1 $169 $267 $393 $399 reversed $106 $-1 #
coedge $-1 $395 $400 $169 $270 forward $390 $-1 #
edge $-1 $401 12.78476812145286 $402 16.871533748498091 $269 $403 forward 7 unknown #
loop $-1 $-1 $276 $170 #
plane-surface $-1 31.316070656003824 -5.2443551291110708 36.892791894346587 0 0.78801076186113728 0.61566146476048833 1 0 0 forward_v I I I I #
loop $-1 $-1 $404 $108 #
coedge $-1 $274 $274 $275 $405 reversed $171 $-1 #
coedge $-1 $275 $275 $274 $405 forward $173 $-1 #
coedge $-1 $276 $276 $174 $277 forward $271 $-1 #
edge $-1 $406 -1.1704774028271985e-016 $406 6.2831853071796004 $276 $407 forward 7 unknown #
loop $-1 $-1 $283 $175 #
plane-surface $-1 31.316070656003824 -5.2443551291110708 36.892791894346587 0 0.78801076186113728 0.61566146476048833 1 0 0 forward_v I I I I #
loop $-1 $-1 $408 $111 #
coedge $-1 $281 $281 $282 $409 reversed $176 $-1 #
coedge $-1 $282 $282 $281 $409 forward $178 $-1 #
coedge $-1 $283 $283 $179 $284 forward $278 $-1 #
edge $-1 $410 -1.1704774028271985e-016 $410 6.2831853071796004 $283 $411 forward 7 unknown #
face $-1 $412 $413 $58 $-1 $414 reversed single #
loop $-1 $-1 $291 $180 #
plane-surface $-1 0 0 6.39340475132175 0 0 1 1 0 0 forward_v I I I I #
coedge $-1 $415 $416 $417 $418 reversed $181 $-1 #
coedge $-1 $290 $183 $419 $420 reversed $115 $-1 #
coedge $-1 $183 $289 $415 $421 reversed $115 $-1 #
coedge $-1 $417 $422 $183 $292 forward $286 $-1 #
edge $-1 $423 21.619808677133062 $424 25.662729203849189 $291 $425 forward 7 unknown #
loop $-1 $-1 $298 $184 #
plane-surface $-1 -43.42088701187663 -22.671142631519913 2.6233202843022383 0 -0.68199836817093118 0.7313536940579346 1 0 0 forward_v I I I I #
loop $-1 $-1 $426 $117 #
coedge $-1 $296 $296 $297 $427 reversed $185 $-1 #
coedge $-1 $297 $297 $296 $427 forward $187 $-1 #
coedge $-1 $298 $298 $188 $299 forward $293 $-1 #
edge $-1 $428 1.992554040040779e-015 $428 6.2831853071796022 $298 $429 forward 7 unknown #
face $-1 $430 $431 $45 $-1 $432 reversed single #
loop $-1 $-1 $433 $189 #
plane-surface $-1 -48.321787163914912 0 0 1 0 0 0 0 -1 forward_v I I I I #
coedge $-1 $434 $311 $435 $436 forward $190 $-1 #
coedge $-1 $437 $192 $434 $438 forward $121 $-1 #
coedge $-1 $192 $437 $439 $440 forward $121 $-1 #
coedge $-1 $314 $313 $192 $307 reversed $315 $-1 #
edge $-1 $441 -22.671142631519917 $442 22.671142631519917 $306 $443 forward 7 unknown #
coedge $-1 $194 $193 $444 $445 forward $76 $-1 #
coedge $-1 $446 $447 $193 $310 reversed $431 $-1 #
edge $-1 $317 -48.321787163914912 $448 48.321787163914912 $309 $449 forward 7 unknown #
coedge $-1 $303 $450 $194 $312 reversed $190 $-1 #
edge $-1 $451 -48.321787163914912 $316 48.321787163914912 $311 $452 forward 7 unknown #
coedge $-1 $306 $195 $450 $453 forward $315 $-1 #
coedge $-1 $195 $306 $446 $454 reversed $315 $-1 #
loop $-1 $-1 $313 $430 #
vertex $-1 $196 $455 #
vertex $-1 $196 $456 #
straight-curve $-1 48.321787163914912 0 6.39340475132175 0 1 0 I I #
face $-1 $-1 $331 $46 $-1 $457 forward single #
loop $-1 $-1 $458 $197 #
plane-surface $-1 0 22.671142631519917 0 0 -1 0 0 0 -1 forward_v I I I I #
coedge $-1 $459 $460 $461 $462 reversed $198 $-1 #
coedge $-1 $463 $200 $202 $329 forward $125 $-1 #
coedge $-1 $200 $463 $459 $464 forward $125 $-1 #
coedge $-1 $461 $203 $200 $326 forward $331 $-1 #
edge $-1 $333 -22.813212402048304 $465 -8.5028582539555337 $325 $466 forward 7 unknown #
coedge $-1 $467 $468 $201 $328 forward $320 $-1 #
edge $-1 $469 -47.033675072660131 $332 -41.802853461031958 $327 $470 forward 7 unknown #
edge $-1 $333 38.704277427621498 $469 45.342285263039798 $202 $471 forward 7 unknown #
coedge $-1 $203 $461 $467 $472 forward $331 $-1 #
loop $-1 $-1 $461 $319 #
vertex $-1 $328 $473 #
vertex $-1 $204 $474 #
straight-curve $-1 -38.471247730050223 35.455910752972777 6.3934047513217536 0 -1 0 I I #
coedge $-1 $335 $335 $-1 $475 reversed $207 $-1 #
edge $-1 $476 0 $476 6.2831853071796004 $208 $477 forward 7 unknown #
vertex $-1 $211 $478 #
ellipse-curve $-1 -34.382575116309432 20.627759817997308 3.7779939455076557 0 0.78801076186113728 0.61566146476048833 1.5 0 0 1 I I #
coedge $-1 $339 $339 $-1 $479 reversed $214 $-1 #
edge $-1 $480 0 $480 6.2831853071796004 $215 $481 forward 7 unknown #
vertex $-1 $218 $482 #
ellipse-curve $-1 -28.249566195698247 20.627759817997308 3.7779939455076557 0 0.78801076186113728 0.61566146476048833 1.5 0 0 1 I I #
face $-1 $-1 $483 $49 $-1 $484 reversed single #
loop $-1 $-1 $225 $219 #
plane-surface $-1 0 0 6.39340475132175 0 0 1 1 0 0 forward_v I I I I #
coedge $-1 $485 $486 $487 $488 reversed $220 $-1 #
coedge $-1 $489 $222 $224 $353 forward $139 $-1 #
coedge $-1 $222 $489 $485 $490 forward $139 $-1 #
coedge $-1 $487 $225 $222 $350 forward $344 $-1 #
edge $-1 $356 -12.37452218338036 $491 1.935831964712408 $349 $492 forward 7 unknown #
coedge $-1 $493 $494 $223 $352 forward $483 $-1 #
edge $-1 $495 -47.033675072660131 $355 -41.802853461031958 $351 $496 forward 7 unknown #
edge $-1 $356 38.704277427621498 $495 45.342285263039798 $224 $497 forward 7 unknown #
coedge $-1 $225 $487 $493 $498 forward $344 $-1 #
vertex $-1 $226 $499 #
vertex $-1 $226 $500 #
straight-curve $-1 -17.593867292714336 35.455910752972777 6.3934047513217536 0 -1 0 I I #
coedge $-1 $358 $358 $-1 $501 reversed $229 $-1 #
edge $-1 $502 0 $502 6.2831853071796004 $230 $503 forward 7 unknown #
vertex $-1 $233 $504 #
ellipse-curve $-1 -13.505194678973545 20.627759817997308 3.7779939455076557 0 0.78801076186113728 0.61566146476048833 1.5 0 0 1 I I #
coedge $-1 $362 $362 $-1 $505 reversed $236 $-1 #
edge $-1 $506 0 $506 6.2831853071796004 $237 $507 forward 7 unknown #
vertex $-1 $240 $508 #
ellipse-curve $-1 -7.372185758362356 20.627759817997308 3.7779939455076557 0 0.78801076186113728 0.61566146476048833 1.5 0 0 1 I I #
face $-1 $-1 $509 $52 $-1 $510 reversed single #
loop $-1 $-1 $247 $241 #
plane-surface $-1 0 0 6.39340475132175 0 0 1 1 0 0 forward_v I I I I #
coedge $-1 $511 $512 $513 $514 reversed $242 $-1 #
coedge $-1 $515 $244 $246 $376 forward $153 $-1 #
coedge $-1 $244 $515 $511 $516 forward $153 $-1 #
coedge $-1 $513 $247 $244 $373 forward $367 $-1 #
edge $-1 $379 -1.9358319647124151 $517 12.374522183380353 $372 $518 forward 7 unknown #
coedge $-1 $519 $520 $245 $375 forward $509 $-1 #
edge $-1 $521 -47.033675072660131 $378 -41.802853461031958 $374 $522 forward 7 unknown #
edge $-1 $379 38.704277427621498 $521 45.342285263039798 $246 $523 forward 7 unknown #
coedge $-1 $247 $513 $519 $524 forward $367 $-1 #
vertex $-1 $248 $525 #
vertex $-1 $248 $526 #
straight-curve $-1 3.2835131446215531 35.455910752972777 6.3934047513217536 0 -1 0 I I #
coedge $-1 $381 $381 $-1 $527 reversed $251 $-1 #
edge $-1 $528 0 $528 6.2831853071796004 $252 $529 forward 7 unknown #
vertex $-1 $255 $530 #
ellipse-curve $-1 7.3721857583623418 20.627759817997308 3.7779939455076557 0 0.78801076186113728 0.61566146476048833 1.5 0 0 1 I I #
coedge $-1 $385 $385 $-1 $531 reversed $258 $-1 #
edge $-1 $532 0 $532 6.2831853071796004 $259 $533 forward 7 unknown #
vertex $-1 $262 $534 #
ellipse-curve $-1 13.505194678973531 20.627759817997308 3.7779939455076557 0 0.78801076186113728 0.61566146476048833 1.5 0 0 1 I I #
face $-1 $-1 $535 $55 $-1 $536 reversed single #
loop $-1 $-1 $269 $263 #
plane-surface $-1 0 0 6.39340475132175 0 0 1 1 0 0 forward_v I I I I #
coedge $-1 $537 $538 $539 $540 reversed $264 $-1 #
coedge $-1 $541 $266 $268 $399 forward $167 $-1 #
coedge $-1 $266 $541 $537 $542 forward $167 $-1 #
coedge $-1 $539 $269 $266 $396 forward $390 $-1 #
edge $-1 $402 8.5028582539555266 $543 22.813212402048297 $395 $544 forward 7 unknown #
coedge $-1 $545 $546 $267 $398 forward $535 $-1 #
edge $-1 $547 -47.033675072660131 $401 -41.802853461031958 $397 $548 forward 7 unknown #
edge $-1 $402 38.704277427621498 $547 45.342285263039798 $268 $549 forward 7 unknown #
coedge $-1 $269 $539 $545 $550 forward $390 $-1 #
vertex $-1 $270 $551 #
vertex $-1 $270 $552 #
straight-curve $-1 24.160893581957438 35.455910752972777 6.3934047513217536 0 -1 0 I I #
coedge $-1 $404 $404 $-1 $553 reversed $273 $-1 #
edge $-1 $554 0 $554 6.2831853071796004 $274 $555 forward 7 unknown #
vertex $-1 $277 $556 #
ellipse-curve $-1 28.249566195698229 20.627759817997308 3.7779939455076557 0 0.78801076186113728 0.61566146476048833 1.5 0 0 1 I I #
coedge $-1 $408 $408 $-1 $557 reversed $280 $-1 #
edge $-1 $558 0 $558 6.2831853071796004 $281 $559 forward 7 unknown #
vertex $-1 $284 $560 #
ellipse-curve $-1 34.382575116309418 20.627759817997308 3.7779939455076557 0 0.78801076186113728 0.61566146476048833 1.5 0 0 1 I I #
face $-1 $-1 $561 $58 $-1 $562 reversed single #
loop $-1 $-1 $563 $285 #
plane-surface $-1 -48.321787163914912 0 0 1 0 0 0 0 -1 forward_v I I I I #
coedge $-1 $564 $288 $290 $421 forward $181 $-1 #
coedge $-1 $288 $564 $563 $565 reversed $181 $-1 #
coedge $-1 $566 $291 $288 $418 forward $286 $-1 #
edge $-1 $424 16.809543353900033 $567 26.611343657976597 $417 $568 forward 7 unknown #
coedge $-1 $569 $570 $289 $420 forward $561 $-1 #
edge $-1 $571 -34.028657403659338 $423 -30.258572936639826 $419 $572 forward 7 unknown #
edge $-1 $424 -5.5279963163703698 $571 4.7183670880013277e-015 $290 $573 forward 7 unknown #
coedge $-1 $291 $566 $569 $574 forward $286 $-1 #
vertex $-1 $420 $575 #
vertex $-1 $292 $576 #
straight-curve $-1 -38.519986859838347 -44.290951308652978 6.3934047513217536 0 1 0 I I #
coedge $-1 $426 $426 $-1 $577 reversed $295 $-1 #
edge $-1 $578 0 $578 6.2831853071796004 $296 $579 forward 7 unknown #
vertex $-1 $299 $580 #
ellipse-curve $-1 -43.42088701187663 -20.649682368161852 4.5083625178119933 0 -0.68199836817093118 0.7313536940579346 1 0 0 1 I I #
face $-1 $-1 $315 $45 $-1 $581 reversed single #
loop $-1 $-1 $446 $300 #
plane-surface $-1 0 22.671142631519917 0 0 -1 0 0 0 -1 forward_v I I I I #
coedge $-1 $582 $444 $447 $583 forward $301 $-1 #
coedge $-1 $450 $303 $304 $438 reversed $190 $-1 #
coedge $-1 $444 $582 $303 $436 reversed $301 $-1 #
edge $-1 $451 -6.39340475132175 $584 6.39340475132175 $435 $585 forward 7 unknown #
coedge $-1 $305 $304 $582 $586 forward $121 $-1 #
edge $-1 $442 -48.321787163914912 $584 48.321787163914912 $434 $587 forward 7 unknown #
coedge $-1 $447 $446 $305 $440 reversed $431 $-1 #
edge $-1 $588 -48.321787163914912 $441 48.321787163914912 $439 $589 forward 7 unknown #
vertex $-1 $307 $590 #
vertex $-1 $453 $591 #
straight-curve $-1 48.321787163914912 0 -6.39340475132175 0 -1 0 I I #
coedge $-1 $433 $435 $308 $445 reversed $301 $-1 #
edge $-1 $448 -22.671142631519917 $451 22.671142631519917 $444 $592 forward 7 unknown #
coedge $-1 $439 $309 $314 $454 forward $431 $-1 #
coedge $-1 $309 $439 $433 $583 reversed $431 $-1 #
vertex $-1 $310 $593 #
straight-curve $-1 0 22.671142631519917 6.39340475132175 -1 0 0 I I #
coedge $-1 $311 $434 $313 $453 reversed $190 $-1 #
vertex $-1 $445 $594 #
straight-curve $-1 0 -22.671142631519917 6.39340475132175 1 0 0 I I #
edge $-1 $316 -6.39340475132175 $442 6.39340475132175 $313 $595 forward 7 unknown #
edge $-1 $317 -6.39340475132175 $441 6.39340475132175 $314 $596 forward 7 unknown #
point $-1 48.321787163914912 -22.671142631519917 6.39340475132175 #
point $-1 48.321787163914912 22.671142631519917 6.39340475132175 #
plane-surface $-1 0 0 6.39340475132175 0 0 1 1 0 0 forward_v I I I I #
coedge $-1 $468 $467 $460 $597 forward $320 $-1 #
coedge $-1 $460 $322 $324 $464 reversed $198 $-1 #
coedge $-1 $322 $459 $458 $597 reversed $198 $-1 #
coedge $-1 $330 $325 $322 $462 forward $331 $-1 #
edge $-1 $465 -16.871533748498091 $598 -12.78476812145286 $461 $599 forward 7 unknown #
coedge $-1 $324 $323 $468 $600 reversed $125 $-1 #
edge $-1 $601 -45.342285263039798 $465 -38.704277427621498 $459 $602 forward 7 unknown #
vertex $-1 $326 $603 #
straight-curve $-1 -15.658035328001919 18.584377004474689 6.39340475132175 1 0 0 I I #
coedge $-1 $458 $327 $330 $472 reversed $320 $-1 #
coedge $-1 $327 $458 $463 $600 forward $320 $-1 #
vertex $-1 $328 $604 #
straight-curve $-1 -38.471247730050223 22.671142631519917 48.196258212353712 0 0 1 I I #
straight-curve $-1 -38.471247730050223 -5.2443551291110708 36.892791894346587 0 0.61566146476048833 -0.78801076186113728 I I #
edge $-1 $598 24.160893581957453 $332 38.471247730050223 $467 $605 forward 7 unknown #
point $-1 -38.471247730050223 22.671142631519917 6.39340475132175 #
point $-1 -38.471247730050223 18.584377004474685 6.39340475132175 #
edge $-1 $606 1 $606 0 $335 $-1 forward 7 unknown #
vertex $-1 $336 $607 #
ellipse-curve $-1 -34.382575116309432 18.558879852745967 2.1616078103590053 0 0.78801076186113728 0.61566146476048833 1.5 0 0 1 I I #
point $-1 -32.882575116309432 20.627759817997287 3.7779939455076392 #
edge $-1 $608 1 $608 0 $339 $-1 forward 7 unknown #
vertex $-1 $340 $609 #
ellipse-curve $-1 -28.249566195698247 18.558879852745967 2.1616078103590053 0 0.78801076186113728 0.61566146476048833 1.5 0 0 1 I I #
point $-1 -26.749566195698247 20.627759817997287 3.7779939455076392 #
loop $-1 $-1 $351 $343 #
plane-surface $-1 0 22.671142631519917 0 0 -1 0 0 0 -1 forward_v I I I I #
coedge $-1 $486 $346 $348 $490 reversed $220 $-1 #
coedge $-1 $346 $485 $610 $611 reversed $220 $-1 #
coedge $-1 $354 $349 $346 $488 forward $344 $-1 #
edge $-1 $491 -16.871533748498091 $612 -12.78476812145286 $487 $613 forward 7 unknown #
coedge $-1 $348 $347 $494 $614 reversed $139 $-1 #
edge $-1 $615 -45.342285263039798 $491 -38.704277427621498 $485 $616 forward 7 unknown #
vertex $-1 $350 $617 #
straight-curve $-1 -5.2193451093339753 18.584377004474689 6.39340475132175 1 0 0 I I #
coedge $-1 $610 $351 $354 $498 reversed $483 $-1 #
coedge $-1 $351 $610 $489 $614 forward $483 $-1 #
vertex $-1 $352 $618 #
straight-curve $-1 -17.593867292714336 22.671142631519917 48.196258212353712 0 0 1 I I #
straight-curve $-1 -17.593867292714336 -5.2443551291110708 36.892791894346587 0 0.61566146476048833 -0.78801076186113728 I I #
edge $-1 $612 3.2835131446215673 $355 17.593867292714336 $493 $619 forward 7 unknown #
point $-1 -17.593867292714336 22.671142631519917 6.39340475132175 #
point $-1 -17.593867292714336 18.584377004474685 6.39340475132175 #
edge $-1 $620 1 $620 0 $358 $-1 forward 7 unknown #
vertex $-1 $359 $621 #
ellipse-curve $-1 -13.505194678973545 18.558879852745967 2.1616078103590053 0 0.78801076186113728 0.61566146476048833 1.5 0 0 1 I I #
point $-1 -12.005194678973545 20.627759817997287 3.7779939455076392 #
edge $-1 $622 1 $622 0 $362 $-1 forward 7 unknown #
vertex $-1 $363 $623 #
ellipse-curve $-1 -7.372185758362356 18.558879852745967 2.1616078103590053 0 0.78801076186113728 0.61566146476048833 1.5 0 0 1 I I #
point $-1 -5.872185758362356 20.627759817997287 3.7779939455076392 #
loop $-1 $-1 $374 $366 #
plane-surface $-1 0 22.671142631519917 0 0 -1 0 0 0 -1 forward_v I I I I #
coedge $-1 $512 $369 $371 $516 reversed $242 $-1 #
coedge $-1 $369 $511 $624 $625 reversed $242 $-1 #
coedge $-1 $377 $372 $369 $514 forward $367 $-1 #
edge $-1 $517 -16.871533748498091 $626 -12.78476812145286 $513 $627 forward 7 unknown #
coedge $-1 $371 $370 $520 $628 reversed $153 $-1 #
edge $-1 $629 -45.342285263039798 $517 -38.704277427621498 $511 $630 forward 7 unknown #
vertex $-1 $373 $631 #
straight-curve $-1 5.2193451093339682 18.584377004474689 6.39340475132175 1 0 0 I I #
coedge $-1 $624 $374 $377 $524 reversed $509 $-1 #
coedge $-1 $374 $624 $515 $628 forward $509 $-1 #
vertex $-1 $375 $632 #
straight-curve $-1 3.2835131446215531 22.671142631519917 48.196258212353712 0 0 1 I I #
straight-curve $-1 3.2835131446215531 -5.2443551291110708 36.892791894346587 0 0.61566146476048833 -0.78801076186113728 I I #
edge $-1 $626 -17.593867292714322 $378 -3.2835131446215531 $519 $633 forward 7 unknown #
point $-1 3.2835131446215531 22.671142631519917 6.39340475132175 #
point $-1 3.2835131446215531 18.584377004474685 6.39340475132175 #
edge $-1 $634 1 $634 0 $381 $-1 forward 7 unknown #
vertex $-1 $382 $635 #
ellipse-curve $-1 7.3721857583623418 18.558879852745967 2.1616078103590053 0 0.78801076186113728 0.61566146476048833 1.5 0 0 1 I I #
point $-1 8.8721857583623418 20.627759817997287 3.7779939455076392 #
edge $-1 $636 1 $636 0 $385 $-1 forward 7 unknown #
vertex $-1 $386 $637 #
ellipse-curve $-1 13.505194678973531 18.558879852745967 2.1616078103590053 0 0.78801076186113728 0.61566146476048833 1.5 0 0 1 I I #
point $-1 15.005194678973531 20.627759817997287 3.7779939455076392 #
loop $-1 $-1 $397 $389 #
plane-surface $-1 0 22.671142631519917 0 0 -1 0 0 0 -1 forward_v I I I I #
coedge $-1 $538 $392 $394 $542 reversed $264 $-1 #
coedge $-1 $392 $537 $638 $639 reversed $264 $-1 #
coedge $-1 $400 $395 $392 $540 forward $390 $-1 #
edge $-1 $543 -16.871533748498091 $640 -12.78476812145286 $539 $641 forward 7 unknown #
coedge $-1 $394 $393 $546 $642 reversed $167 $-1 #
edge $-1 $643 -45.342285263039798 $543 -38.704277427621498 $537 $644 forward 7 unknown #
vertex $-1 $396 $645 #
straight-curve $-1 15.658035328001912 18.584377004474689 6.39340475132175 1 0 0 I I #
coedge $-1 $638 $397 $400 $550 reversed $535 $-1 #
coedge $-1 $397 $638 $541 $642 forward $535 $-1 #
vertex $-1 $398 $646 #
straight-curve $-1 24.160893581957438 22.671142631519917 48.196258212353712 0 0 1 I I #
straight-curve $-1 24.160893581957438 -5.2443551291110708 36.892791894346587 0 0.61566146476048833 -0.78801076186113728 I I #
edge $-1 $640 -38.471247730050209 $401 -24.160893581957438 $545 $647 forward 7 unknown #
point $-1 24.160893581957438 22.671142631519917 6.39340475132175 #
point $-1 24.160893581957438 18.584377004474685 6.39340475132175 #
edge $-1 $648 1 $648 0 $404 $-1 forward 7 unknown #
vertex $-1 $405 $649 #
ellipse-curve $-1 28.249566195698229 18.558879852745967 2.1616078103590053 0 0.78801076186113728 0.61566146476048833 1.5 0 0 1 I I #
point $-1 29.749566195698229 20.627759817997287 3.7779939455076392 #
edge $-1 $650 1 $650 0 $408 $-1 forward 7 unknown #
vertex $-1 $409 $651 #
ellipse-curve $-1 34.382575116309418 18.558879852745967 2.1616078103590053 0 0.78801076186113728 0.61566146476048833 1.5 0 0 1 I I #
point $-1 35.882575116309418 20.627759817997287 3.7779939455076392 #
loop $-1 $-1 $419 $412 #
plane-surface $-1 0 -22.671142631519917 0 0 1 0 0 0 1 forward_v I I I I #
coedge $-1 $652 $653 $416 $565 forward $413 $-1 #
coedge $-1 $416 $415 $570 $654 reversed $181 $-1 #
edge $-1 $567 1.8677655631259222 $655 7.3957618794962965 $563 $656 forward 7 unknown #
coedge $-1 $422 $417 $653 $657 forward $286 $-1 #
vertex $-1 $657 $658 #
straight-curve $-1 -21.710443505938315 -18.628222104803786 6.39340475132175 -1 0 0 I I #
coedge $-1 $659 $419 $422 $574 reversed $561 $-1 #
coedge $-1 $419 $659 $564 $654 forward $561 $-1 #
vertex $-1 $420 $660 #
straight-curve $-1 -38.519986859838347 -22.67114263151992 36.651977687961576 0 0 1 I I #
straight-curve $-1 -38.519986859838347 -22.671142631519913 2.6233202843022383 0 -0.7313536940579346 -0.68199836817093118 I I #
edge $-1 $661 -48.321787163914912 $423 -38.519986859838347 $569 $662 forward 7 unknown #
point $-1 -38.519986859838347 -22.671142631519917 6.39340475132175 #
point $-1 -38.519986859838347 -18.62822210480379 6.39340475132175 #
edge $-1 $663 1 $663 0 $426 $-1 forward 7 unknown #
vertex $-1 $427 $664 #
ellipse-curve $-1 -43.42088701187663 -17.971204387219164 1.6360466044045532 0 -0.68199836817093118 0.7313536940579346 1 0 0 1 I I #
point $-1 -42.42088701187663 -20.649682368161848 4.5083625178119924 #
plane-surface $-1 48.321787163914912 0 0 -1 0 0 0 0 1 forward_v I I I I #
coedge $-1 $435 $433 $437 $586 reversed $301 $-1 #
edge $-1 $448 -6.39340475132175 $588 6.39340475132175 $447 $665 forward 7 unknown #
vertex $-1 $586 $666 #
straight-curve $-1 -48.321787163914912 -22.671142631519917 0 0 0 -1 I I #
edge $-1 $584 -22.671142631519917 $588 22.671142631519917 $582 $667 forward 7 unknown #
straight-curve $-1 0 -22.671142631519917 -6.39340475132175 -1 0 0 I I #
vertex $-1 $440 $668 #
straight-curve $-1 0 22.671142631519917 -6.39340475132175 1 0 0 I I #
point $-1 48.321787163914912 22.671142631519917 -6.39340475132175 #
point $-1 48.321787163914912 -22.671142631519917 -6.39340475132175 #
straight-curve $-1 -48.321787163914912 0 6.39340475132175 0 -1 0 I I #
point $-1 -48.321787163914912 22.671142631519917 6.39340475132175 #
point $-1 -48.321787163914912 -22.671142631519917 6.39340475132175 #
straight-curve $-1 48.321787163914912 -22.671142631519917 0 0 0 -1 I I #
straight-curve $-1 48.321787163914912 22.671142631519917 0 0 0 -1 I I #
edge $-1 $598 41.802853461031958 $601 47.033675072660131 $458 $669 forward 7 unknown #
vertex $-1 $472 $670 #
straight-curve $-1 -24.160893581957453 35.455910752972777 6.3934047513217536 0 1 0 I I #
edge $-1 $601 8.5028582539555337 $469 22.813212402048304 $468 $671 forward 7 unknown #
vertex $-1 $600 $672 #
straight-curve $-1 -24.160893581957453 -5.2443551291110708 36.892791894346587 0 -0.61566146476048833 0.78801076186113728 I I #
point $-1 -24.160893581957453 18.584377004474685 6.39340475132175 #
point $-1 -38.471247730050223 22.671142631519917 1.1625831396935808 #
straight-curve $-1 0 22.671142631519917 6.39340475132175 -1 0 0 I I #
vertex $-1 $475 $673 #
point $-1 -32.882575116309432 18.558879852745967 2.1616078103590053 #
vertex $-1 $479 $674 #
point $-1 -26.749566195698247 18.558879852745967 2.1616078103590053 #
coedge $-1 $494 $493 $486 $611 forward $483 $-1 #
edge $-1 $612 41.802853461031958 $615 47.033675072660131 $610 $675 forward 7 unknown #
vertex $-1 $498 $676 #
straight-curve $-1 -3.2835131446215673 35.455910752972777 6.3934047513217536 0 1 0 I I #
edge $-1 $615 -1.935831964712408 $495 12.37452218338036 $494 $677 forward 7 unknown #
vertex $-1 $614 $678 #
straight-curve $-1 -3.2835131446215673 -5.2443551291110708 36.892791894346587 0 -0.61566146476048833 0.78801076186113728 I I #
point $-1 -3.2835131446215673 18.584377004474685 6.39340475132175 #
point $-1 -17.593867292714336 22.671142631519917 1.1625831396935808 #
straight-curve $-1 0 22.671142631519917 6.39340475132175 -1 0 0 I I #
vertex $-1 $501 $679 #
point $-1 -12.005194678973545 18.558879852745967 2.1616078103590053 #
vertex $-1 $505 $680 #
point $-1 -5.872185758362356 18.558879852745967 2.1616078103590053 #
coedge $-1 $520 $519 $512 $625 forward $509 $-1 #
edge $-1 $626 41.802853461031958 $629 47.033675072660131 $624 $681 forward 7 unknown #
vertex $-1 $524 $682 #
straight-curve $-1 17.593867292714322 35.455910752972777 6.3934047513217536 0 1 0 I I #
edge $-1 $629 -12.374522183380353 $521 1.9358319647124151 $520 $683 forward 7 unknown #
vertex $-1 $628 $684 #
straight-curve $-1 17.593867292714322 -5.2443551291110708 36.892791894346587 0 -0.61566146476048833 0.78801076186113728 I I #
point $-1 17.593867292714322 18.584377004474685 6.39340475132175 #
point $-1 3.2835131446215531 22.671142631519917 1.1625831396935808 #
straight-curve $-1 0 22.671142631519917 6.39340475132175 -1 0 0 I I #
vertex $-1 $527 $685 #
point $-1 8.8721857583623418 18.558879852745967 2.1616078103590053 #
vertex $-1 $531 $686 #
point $-1 15.005194678973531 18.558879852745967 2.1616078103590053 #
coedge $-1 $546 $545 $538 $639 forward $535 $-1 #
edge $-1 $640 41.802853461031958 $643 47.033675072660131 $638 $687 forward 7 unknown #
vertex $-1 $550 $688 #
straight-curve $-1 38.471247730050209 35.455910752972777 6.3934047513217536 0 1 0 I I #
edge $-1 $643 -22.813212402048297 $547 -8.5028582539555266 $546 $689 forward 7 unknown #
vertex $-1 $642 $690 #
straight-curve $-1 38.471247730050209 -5.2443551291110708 36.892791894346587 0 -0.61566146476048833 0.78801076186113728 I I #
point $-1 38.471247730050209 18.584377004474685 6.39340475132175 #
point $-1 24.160893581957438 22.671142631519917 1.1625831396935808 #
straight-curve $-1 0 22.671142631519917 6.39340475132175 -1 0 0 I I #
vertex $-1 $553 $691 #
point $-1 29.749566195698229 18.558879852745967 2.1616078103590053 #
vertex $-1 $557 $692 #
point $-1 35.882575116309418 18.558879852745967 2.1616078103590053 #
coedge $-1 $653 $563 $659 $693 reversed $413 $-1 #
coedge $-1 $563 $652 $566 $657 reversed $413 $-1 #
edge $-1 $655 -26.611343657976597 $571 -16.809543353900033 $570 $694 forward 7 unknown #
vertex $-1 $565 $695 #
straight-curve $-1 -48.321787163914912 -17.262224860577447 7.6672178174994885 0 -0.7313536940579346 -0.68199836817093118 I I #
edge $-1 $567 18.62822210480379 $661 22.671142631519917 $653 $696 forward 7 unknown #
point $-1 -48.321787163914912 -18.62822210480379 6.39340475132175 #
coedge $-1 $570 $569 $652 $693 forward $561 $-1 #
point $-1 -38.519986859838347 -22.671142631519917 2.6233202843022352 #
vertex $-1 $657 $697 #
straight-curve $-1 0 -22.671142631519917 6.39340475132175 1 0 0 I I #
vertex $-1 $577 $698 #
point $-1 -42.42088701187663 -17.971204387219164 1.6360466044045532 #
straight-curve $-1 -48.321787163914912 22.671142631519917 0 0 0 -1 I I #
point $-1 -48.321787163914912 -22.671142631519917 -6.39340475132175 #
straight-curve $-1 -48.321787163914912 0 -6.39340475132175 0 1 0 I I #
point $-1 -48.321787163914912 22.671142631519917 -6.39340475132175 #
straight-curve $-1 -24.160893581957453 22.671142631519917 48.196258212353712 0 0 -1 I I #
point $-1 -24.160893581957453 22.671142631519917 6.39340475132175 #
straight-curve $-1 -15.658035328001919 22.67114263151992 1.1625831396935773 -1 0 0 I I #
point $-1 -24.160893581957453 22.671142631519917 1.1625831396935808 #
point $-1 -34.382575116309432 17.376863709954264 1.2381156132182727 #
point $-1 -28.249566195698247 17.376863709954264 1.2381156132182727 #
straight-curve $-1 -3.2835131446215673 22.671142631519917 48.196258212353712 0 0 -1 I I #
point $-1 -3.2835131446215673 22.671142631519917 6.39340475132175 #
straight-curve $-1 -5.2193451093339753 22.67114263151992 1.1625831396935773 -1 0 0 I I #
point $-1 -3.2835131446215673 22.671142631519917 1.1625831396935808 #
point $-1 -13.505194678973545 17.376863709954264 1.2381156132182727 #
point $-1 -7.372185758362356 17.376863709954264 1.2381156132182727 #
straight-curve $-1 17.593867292714322 22.671142631519917 48.196258212353712 0 0 -1 I I #
point $-1 17.593867292714322 22.671142631519917 6.39340475132175 #
straight-curve $-1 5.2193451093339682 22.67114263151992 1.1625831396935773 -1 0 0 I I #
point $-1 17.593867292714322 22.671142631519917 1.1625831396935808 #
point $-1 7.3721857583623418 17.376863709954264 1.2381156132182727 #
point $-1 13.505194678973531 17.376863709954264 1.2381156132182727 #
straight-curve $-1 38.471247730050209 22.671142631519917 48.196258212353712 0 0 -1 I I #
point $-1 38.471247730050209 22.671142631519917 6.39340475132175 #
straight-curve $-1 15.658035328001912 22.67114263151992 1.1625831396935773 -1 0 0 I I #
point $-1 38.471247730050209 22.671142631519917 1.1625831396935808 #
point $-1 28.249566195698229 17.376863709954264 1.2381156132182727 #
point $-1 34.382575116309418 17.376863709954264 1.2381156132182727 #
edge $-1 $661 -6.39340475132175 $655 -2.6233202843022352 $652 $699 forward 7 unknown #
straight-curve $-1 -21.710443505938315 -22.671142631519917 2.6233202843022343 1 0 0 I I #
point $-1 -48.321787163914912 -22.671142631519917 2.6233202843022352 #
straight-curve $-1 -48.321787163914912 0 6.39340475132175 0 -1 0 I I #
point $-1 -48.321787163914912 -22.671142631519917 6.39340475132175 #
point $-1 -43.42088701187663 -17.289206019048233 0.90469291034661858 #
straight-curve $-1 -48.321787163914912 -22.671142631519917 0 0 0 -1 I I #
End-of-ACIS-data 