500 0 7 0           
7 Unknown 11 ACIS 5.0 NT 24 Thu Mar 25 22:05:32 1999 
-1 9.9999999999999995e-007 1e-010 
body $-1 $7 $-1 $8 #
body $-1 $9 $-1 $10 #
body $-1 $11 $-1 $12 #
body $-1 $13 $-1 $14 #
body $-1 $15 $-1 $16 #
body $-1 $17 $-1 $18 #
body $-1 $19 $-1 $20 #
lump $-1 $-1 $21 $0 #
transform $-1 1 0 0 0 1 0 0 0 1 71.481673635059664 43.703363407329562 13.489397162665174 1 rotate no_reflect no_shear #
lump $-1 $-1 $22 $1 #
transform $-1 1 0 0 0 1 0 0 0 1 71.481673635059664 43.703363407329562 13.489397162665174 1 rotate no_reflect no_shear #
lump $-1 $-1 $23 $2 #
transform $-1 1 0 0 0 1 0 0 0 1 71.481673635059664 43.703363407329562 13.489397162665174 1 rotate no_reflect no_shear #
lump $-1 $-1 $24 $3 #
transform $-1 1 0 0 0 1 0 0 0 1 71.481673635059664 43.703363407329562 13.489397162665174 1 rotate no_reflect no_shear #
lump $-1 $-1 $25 $4 #
transform $-1 1 0 0 0 1 0 0 0 1 71.481673635059664 43.703363407329562 13.489397162665174 1 rotate no_reflect no_shear #
lump $-1 $-1 $26 $5 #
transform $-1 1 0 0 0 1 0 0 0 1 71.481673635059664 43.703363407329562 13.489397162665174 1 rotate no_reflect no_shear #
lump $-1 $-1 $27 $6 #
transform $-1 1 0 0 0 1 0 0 0 1 71.481673635059664 43.703363407329562 13.489397162665174 1 rotate no_reflect no_shear #
shell $-1 $-1 $-1 $28 $-1 $7 #
shell $-1 $-1 $-1 $29 $-1 $9 #
shell $-1 $-1 $-1 $30 $-1 $11 #
shell $-1 $-1 $-1 $31 $-1 $13 #
shell $-1 $-1 $-1 $32 $-1 $15 #
shell $-1 $-1 $-1 $33 $-1 $17 #
shell $-1 $-1 $-1 $34 $-1 $19 #
face $-1 $35 $36 $21 $-1 $37 forward single #
face $-1 $38 $39 $22 $-1 $40 forward single #
face $-1 $41 $42 $23 $-1 $43 forward single #
face $-1 $44 $45 $24 $-1 $46 reversed single #
face $-1 $47 $48 $25 $-1 $49 forward single #
face $-1 $50 $51 $26 $-1 $52 reversed single #
face $-1 $53 $54 $27 $-1 $55 forward single #
face $-1 $56 $57 $21 $-1 $58 reversed single #
loop $-1 $-1 $59 $28 #
plane-surface $-1 0 0 13.489397162665174 0 0 1 1 0 0 forward_v I I I I #
face $-1 $60 $61 $22 $-1 $62 reversed single #
loop $-1 $-1 $63 $29 #
plane-surface $-1 0 -35.883246956980628 7.3360455421838839 0 0 1 1 0 0 forward_v I I I I #
face $-1 $64 $65 $23 $-1 $66 reversed single #
loop $-1 $-1 $67 $30 #
plane-surface $-1 0 35.883246956980628 7.3360455421838839 0 0 1 1 0 0 forward_v I I I I #
face $-1 $68 $69 $24 $-1 $70 reversed single #
loop $-1 $-1 $71 $31 #
plane-surface $-1 -159.49870003665302 0 114.03733502490516 0 -1 0 0.61566148304635926 0 -0.78801074757464917 forward_v I I I I #
face $-1 $72 $73 $25 $-1 $74 forward single #
loop $-1 $75 $76 $32 #
cone-surface $-1 -63.099614048052523 -3.6084890512209427 6.6250475602511845 0.61566148304635926 0 -0.78801074757464917 1.1820161213619738 0 0.92349222456953894 1 I I 0 1 1.5 forward I I I I #
face $-1 $77 $78 $26 $-1 $79 reversed single #
loop $-1 $-1 $80 $33 #
plane-surface $-1 -71.481673635059678 24.454641455410751 1.3806808668042549 -0.61566148304635926 0 0.78801074757464917 0.78801074757464917 0 0.61566148304635926 forward_v I I I I #
face $-1 $81 $82 $27 $-1 $83 forward single #
loop $-1 $84 $85 $34 #
cone-surface $-1 -63.099614048052523 24.454641455410751 6.6250475602511845 0.61566148304635926 0 -0.78801074757464917 1.1820161213619738 0 0.92349222456953894 1 I I 0 1 1.5 forward I I I I #
face $-1 $86 $87 $21 $-1 $88 reversed single #
loop $-1 $-1 $89 $35 #
plane-surface $-1 0 0 -13.489397162665174 0 0 1 1 0 0 forward_v I I I I #
coedge $-1 $90 $91 $92 $93 forward $36 $-1 #
face $-1 $94 $95 $22 $-1 $96 reversed single #
loop $-1 $-1 $97 $38 #
plane-surface $-1 0 -35.883246956980628 -0.65895511510104576 0 0 1 1 0 0 forward_v I I I I #
coedge $-1 $98 $99 $100 $101 reversed $39 $-1 #
face $-1 $102 $103 $23 $-1 $104 reversed single #
loop $-1 $-1 $105 $41 #
plane-surface $-1 0 35.883246956980628 -0.65895511510104576 0 0 1 1 0 0 forward_v I I I I #
coedge $-1 $106 $107 $108 $109 reversed $42 $-1 #
face $-1 $110 $111 $24 $-1 $112 reversed single #
loop $-1 $-1 $113 $44 #
plane-surface $-1 -71.481673635059678 -3.6084890512209427 1.3806808668042549 -0.61566148304635926 0 0.78801074757464917 0.78801074757464917 0 0.61566148304635926 forward_v I I I I #
coedge $-1 $114 $115 $116 $117 reversed $45 $-1 #
face $-1 $-1 $118 $25 $-1 $119 forward single #
loop $-1 $120 $121 $47 #
cone-surface $-1 -62.005033242006213 -3.6084890512209427 5.2240480450866684 0.61566148304635926 0 -0.78801074757464917 0.59100806068098688 0 0.46174611228476947 1 I I -0.70710678118654757 0.70710678118654757 0.75 forward I I I I #
loop $-1 $-1 $122 $32 #
coedge $-1 $76 $76 $123 $124 reversed $48 $-1 #
face $-1 $125 $126 $26 $-1 $127 reversed single #
loop $-1 $-1 $128 $50 #
plane-surface $-1 -159.49870003665302 20.846152404189809 114.03733502490516 0 1 0 -0.61566148304635926 0 0.78801074757464917 forward_v I I I I #
coedge $-1 $129 $130 $131 $132 reversed $51 $-1 #
face $-1 $-1 $133 $27 $-1 $134 forward single #
loop $-1 $135 $136 $53 #
cone-surface $-1 -62.005033242006213 24.454641455410751 5.2240480450866684 0.61566148304635926 0 -0.78801074757464917 0.59100806068098688 0 0.46174611228476947 1 I I -0.70710678118654757 0.70710678118654757 0.75 forward I I I I #
loop $-1 $-1 $137 $34 #
coedge $-1 $85 $85 $138 $139 reversed $54 $-1 #
face $-1 $140 $141 $21 $-1 $142 reversed single #
loop $-1 $-1 $143 $56 #
plane-surface $-1 0 -43.703363407329562 0 0 1 0 0 0 1 forward_v I I I I #
coedge $-1 $144 $145 $146 $147 forward $57 $-1 #
coedge $-1 $148 $59 $149 $150 forward $36 $-1 #
coedge $-1 $59 $148 $151 $152 forward $36 $-1 #
coedge $-1 $153 $154 $59 $93 reversed $155 $-1 #
edge $-1 $156 -43.703363407329562 $157 43.703363407329562 $92 $158 forward 7 unknown #
face $-1 $159 $160 $22 $-1 $161 reversed single #
loop $-1 $-1 $162 $60 #
plane-surface $-1 0 -28.063130506631694 3.3385452135414191 0 -1 0 0 0 -1 forward_v I I I I #
coedge $-1 $163 $164 $165 $166 reversed $61 $-1 #
coedge $-1 $167 $63 $168 $169 forward $39 $-1 #
coedge $-1 $63 $167 $170 $171 reversed $39 $-1 #
coedge $-1 $172 $173 $63 $101 forward $174 $-1 #
edge $-1 $175 10.12150702814138 $176 25.761739928839248 $100 $177 forward 7 unknown #
face $-1 $178 $179 $23 $-1 $180 reversed single #
loop $-1 $-1 $181 $64 #
plane-surface $-1 0 28.063130506631694 3.3385452135414191 0 1 0 0 0 1 forward_v I I I I #
coedge $-1 $182 $183 $184 $185 reversed $65 $-1 #
coedge $-1 $186 $67 $187 $188 reversed $42 $-1 #
coedge $-1 $67 $186 $189 $190 forward $42 $-1 #
coedge $-1 $191 $192 $67 $109 forward $179 $-1 #
edge $-1 $193 -25.761739928839248 $194 -10.12150702814138 $108 $195 forward 7 unknown #
face $-1 $196 $197 $24 $-1 $198 reversed single #
loop $-1 $-1 $199 $68 #
plane-surface $-1 -159.49870003665302 -7.2169781024418853 114.03733502490516 0 1 0 -0.61566148304635926 0 0.78801074757464917 forward_v I I I I #
coedge $-1 $200 $201 $202 $203 reversed $69 $-1 #
coedge $-1 $115 $71 $204 $205 reversed $45 $-1 #
coedge $-1 $71 $114 $200 $206 reversed $45 $-1 #
coedge $-1 $202 $207 $71 $117 forward $197 $-1 #
edge $-1 $208 43.52927034978741 $209 55.637986645648311 $116 $210 forward 7 unknown #
loop $-1 $-1 $123 $72 #
plane-surface $-1 -71.481673635059678 -3.6084890512209427 1.3806808668042549 -0.61566148304635926 0 0.78801074757464917 0.78801074757464917 0 0.61566148304635926 forward_v I I I I #
loop $-1 $-1 $211 $47 #
coedge $-1 $121 $121 $122 $212 reversed $73 $-1 #
coedge $-1 $122 $122 $121 $212 forward $75 $-1 #
coedge $-1 $123 $123 $76 $124 forward $118 $-1 #
edge $-1 $213 0 $213 6.2831853071796004 $123 $214 forward 7 unknown #
face $-1 $215 $216 $26 $-1 $217 forward single #
loop $-1 $-1 $218 $77 #
plane-surface $-1 -71.481673635059664 0 0 1 0 0 0 0 -1 forward_v I I I I #
coedge $-1 $219 $220 $221 $222 reversed $78 $-1 #
coedge $-1 $223 $80 $224 $225 reversed $51 $-1 #
coedge $-1 $80 $223 $219 $226 forward $51 $-1 #
coedge $-1 $221 $218 $80 $132 forward $126 $-1 #
edge $-1 $227 -15.835809778926318 $228 -8.618831676484433 $131 $229 forward 7 unknown #
loop $-1 $-1 $138 $81 #
plane-surface $-1 -71.481673635059678 24.454641455410751 1.3806808668042549 -0.61566148304635926 0 0.78801074757464917 0.78801074757464917 0 0.61566148304635926 forward_v I I I I #
loop $-1 $-1 $230 $53 #
coedge $-1 $136 $136 $137 $231 reversed $82 $-1 #
coedge $-1 $137 $137 $136 $231 forward $84 $-1 #
coedge $-1 $138 $138 $85 $139 forward $133 $-1 #
edge $-1 $232 0 $232 6.2831853071796004 $138 $233 forward 7 unknown #
face $-1 $234 $235 $21 $-1 $236 reversed single #
loop $-1 $-1 $237 $86 #
plane-surface $-1 -71.481673635059664 0 0 1 0 0 0 0 -1 forward_v I I I I #
coedge $-1 $238 $151 $239 $240 forward $87 $-1 #
coedge $-1 $241 $89 $238 $242 forward $57 $-1 #
coedge $-1 $89 $241 $243 $244 forward $57 $-1 #
coedge $-1 $154 $153 $89 $147 reversed $155 $-1 #
edge $-1 $245 -43.703363407329562 $246 43.703363407329562 $146 $247 forward 7 unknown #
coedge $-1 $91 $90 $248 $249 forward $36 $-1 #
coedge $-1 $250 $251 $90 $150 reversed $235 $-1 #
edge $-1 $157 -71.481673635059664 $252 71.481673635059664 $149 $253 forward 7 unknown #
coedge $-1 $143 $254 $91 $152 reversed $87 $-1 #
edge $-1 $255 -71.481673635059664 $156 71.481673635059664 $151 $256 forward 7 unknown #
coedge $-1 $146 $92 $254 $257 forward $155 $-1 #
coedge $-1 $92 $146 $250 $258 reversed $155 $-1 #
loop $-1 $-1 $153 $234 #
vertex $-1 $93 $259 #
vertex $-1 $93 $260 #
straight-curve $-1 71.481673635059664 0 13.489397162665174 0 1 0 I I #
face $-1 $261 $262 $22 $-1 $263 reversed single #
loop $-1 $-1 $264 $94 #
plane-surface $-1 -71.481673635059664 0 0 1 0 0 0 0 -1 forward_v I I I I #
coedge $-1 $265 $168 $173 $266 reversed $95 $-1 #
coedge $-1 $267 $97 $268 $269 reversed $61 $-1 #
coedge $-1 $97 $267 $265 $270 forward $61 $-1 #
coedge $-1 $173 $172 $97 $166 forward $174 $-1 #
edge $-1 $271 -25.761739928839248 $272 -10.12150702814138 $165 $273 forward 7 unknown #
coedge $-1 $99 $98 $264 $274 reversed $39 $-1 #
coedge $-1 $162 $275 $98 $169 reversed $95 $-1 #
edge $-1 $175 -71.481673635059664 $276 71.481673635059664 $168 $277 forward 7 unknown #
coedge $-1 $278 $279 $99 $171 forward $262 $-1 #
edge $-1 $176 -71.481673635059664 $280 71.481673635059664 $170 $281 forward 7 unknown #
coedge $-1 $165 $100 $279 $282 forward $174 $-1 #
coedge $-1 $100 $165 $162 $266 forward $174 $-1 #
loop $-1 $-1 $100 $261 #
vertex $-1 $101 $283 #
vertex $-1 $282 $284 #
straight-curve $-1 71.481673635059664 -17.941623478490314 7.3360455421838839 0 -1 0 I I #
face $-1 $285 $286 $23 $-1 $287 reversed single #
loop $-1 $-1 $108 $102 #
plane-surface $-1 71.481673635059664 0 0 -1 0 0 0 0 1 forward_v I I I I #
coedge $-1 $288 $189 $289 $290 reversed $103 $-1 #
coedge $-1 $291 $105 $288 $292 forward $65 $-1 #
coedge $-1 $105 $291 $293 $294 reversed $65 $-1 #
coedge $-1 $192 $191 $105 $185 forward $179 $-1 #
edge $-1 $295 10.12150702814138 $296 25.761739928839248 $184 $297 forward 7 unknown #
coedge $-1 $107 $106 $298 $299 reversed $42 $-1 #
coedge $-1 $300 $301 $106 $188 forward $302 $-1 #
edge $-1 $303 -71.481673635059664 $193 71.481673635059664 $187 $304 forward 7 unknown #
coedge $-1 $181 $305 $107 $190 reversed $103 $-1 #
edge $-1 $306 -71.481673635059664 $194 71.481673635059664 $189 $307 forward 7 unknown #
coedge $-1 $184 $108 $305 $308 forward $179 $-1 #
coedge $-1 $108 $184 $300 $309 reversed $179 $-1 #
vertex $-1 $309 $310 #
vertex $-1 $109 $311 #
straight-curve $-1 71.481673635059664 17.941623478490314 7.3360455421838839 0 -1 0 I I #
face $-1 $-1 $312 $24 $-1 $313 forward single #
loop $-1 $-1 $116 $110 #
plane-surface $-1 -71.481673635059664 0 0 1 0 0 0 0 -1 forward_v I I I I #
coedge $-1 $314 $315 $316 $317 reversed $111 $-1 #
coedge $-1 $318 $113 $115 $206 forward $69 $-1 #
coedge $-1 $113 $318 $314 $319 forward $69 $-1 #
coedge $-1 $316 $116 $113 $203 forward $197 $-1 #
edge $-1 $209 -1.8042445256104713 $320 5.412733576831414 $202 $321 forward 7 unknown #
coedge $-1 $322 $323 $114 $205 forward $312 $-1 #
edge $-1 $324 -23.766126169758024 $208 -8.2676763832668456 $204 $325 forward 7 unknown #
edge $-1 $209 1.8033521786330445e-014 $324 19.667815234998436 $115 $326 forward 7 unknown #
coedge $-1 $116 $316 $322 $327 reversed $197 $-1 #
vertex $-1 $327 $328 #
vertex $-1 $117 $329 #
straight-curve $-1 -71.481673635059664 0 57.018667512452581 0 0 -1 I I #
coedge $-1 $211 $211 $-1 $330 reversed $120 $-1 #
edge $-1 $331 0 $331 6.2831853071796004 $121 $332 forward 7 unknown #
vertex $-1 $124 $333 #
ellipse-curve $-1 -63.732448741814068 -3.6084890512209427 7.4350390147347216 -0.61566148304635926 0 0.78801074757464917 1.1820161213619738 0 0.92349222456953894 1 I I #
face $-1 $-1 $334 $26 $-1 $335 forward single #
loop $-1 $-1 $224 $125 #
plane-surface $-1 0 28.063130506631694 3.3385452135414191 0 1 0 0 0 1 forward_v I I I I #
coedge $-1 $131 $336 $337 $338 forward $126 $-1 #
coedge $-1 $220 $128 $130 $226 reversed $78 $-1 #
coedge $-1 $128 $219 $339 $340 reversed $78 $-1 #
coedge $-1 $336 $131 $128 $222 forward $126 $-1 #
edge $-1 $228 -55.637986645648311 $341 -43.52927034978741 $221 $342 forward 7 unknown #
coedge $-1 $130 $129 $343 $344 reversed $51 $-1 #
coedge $-1 $337 $345 $129 $225 forward $216 $-1 #
edge $-1 $346 9.0990391381846933 $227 28.766854373183111 $224 $347 forward 7 unknown #
edge $-1 $348 -19.667815234998436 $228 -1.8033521786330445e-014 $219 $349 forward 7 unknown #
vertex $-1 $132 $350 #
vertex $-1 $132 $351 #
straight-curve $-1 -71.481673635059664 12.227320727705376 1.3806808668042745 0 -1 0 I I #
coedge $-1 $230 $230 $-1 $352 reversed $135 $-1 #
edge $-1 $353 0 $353 6.2831853071796004 $136 $354 forward 7 unknown #
vertex $-1 $139 $355 #
ellipse-curve $-1 -63.732448741814068 24.454641455410751 7.4350390147347216 -0.61566148304635926 0 0.78801074757464917 1.1820161213619738 0 0.92349222456953894 1 I I #
face $-1 $-1 $155 $21 $-1 $356 reversed single #
loop $-1 $-1 $250 $140 #
plane-surface $-1 0 43.703363407329562 0 0 -1 0 0 0 -1 forward_v I I I I #
coedge $-1 $357 $248 $251 $358 forward $141 $-1 #
coedge $-1 $254 $143 $144 $242 reversed $87 $-1 #
coedge $-1 $248 $357 $143 $240 reversed $141 $-1 #
edge $-1 $255 -13.489397162665174 $359 13.489397162665174 $239 $360 forward 7 unknown #
coedge $-1 $145 $144 $357 $361 forward $57 $-1 #
edge $-1 $246 -71.481673635059664 $359 71.481673635059664 $238 $362 forward 7 unknown #
coedge $-1 $251 $250 $145 $244 reversed $235 $-1 #
edge $-1 $363 -71.481673635059664 $245 71.481673635059664 $243 $364 forward 7 unknown #
vertex $-1 $147 $365 #
vertex $-1 $257 $366 #
straight-curve $-1 71.481673635059664 0 -13.489397162665174 0 -1 0 I I #
coedge $-1 $237 $239 $148 $249 reversed $141 $-1 #
edge $-1 $252 -43.703363407329562 $255 43.703363407329562 $248 $367 forward 7 unknown #
coedge $-1 $243 $149 $154 $258 forward $235 $-1 #
coedge $-1 $149 $243 $237 $358 reversed $235 $-1 #
vertex $-1 $150 $368 #
straight-curve $-1 0 43.703363407329562 13.489397162665174 -1 0 0 I I #
coedge $-1 $151 $238 $153 $257 reversed $87 $-1 #
vertex $-1 $249 $369 #
straight-curve $-1 0 -43.703363407329562 13.489397162665174 1 0 0 I I #
edge $-1 $156 -13.489397162665174 $246 13.489397162665174 $153 $370 forward 7 unknown #
edge $-1 $157 -13.489397162665174 $245 13.489397162665174 $154 $371 forward 7 unknown #
point $-1 71.481673635059664 -43.703363407329562 13.489397162665174 #
point $-1 71.481673635059664 43.703363407329562 13.489397162665174 #
face $-1 $-1 $174 $22 $-1 $372 reversed single #
loop $-1 $-1 $170 $159 #
plane-surface $-1 0 -43.703363407329562 0 0 1 0 0 0 1 forward_v I I I I #
coedge $-1 $373 $374 $167 $274 forward $160 $-1 #
coedge $-1 $275 $162 $164 $270 reversed $95 $-1 #
edge $-1 $272 -2.3282277218717553 $175 5.6667729354131744 $173 $375 forward 7 unknown #
coedge $-1 $164 $163 $376 $377 reversed $61 $-1 #
coedge $-1 $279 $278 $163 $269 forward $262 $-1 #
edge $-1 $378 -71.481673635059664 $271 71.481673635059664 $268 $379 forward 7 unknown #
edge $-1 $380 -71.481673635059664 $272 71.481673635059664 $265 $381 forward 7 unknown #
vertex $-1 $269 $382 #
vertex $-1 $166 $383 #
straight-curve $-1 71.481673635059664 -17.941623478490314 -0.65895511510104576 0 1 0 I I #
edge $-1 $280 -25.761739928839248 $276 -10.12150702814138 $264 $384 forward 7 unknown #
coedge $-1 $168 $265 $373 $385 reversed $95 $-1 #
vertex $-1 $274 $386 #
straight-curve $-1 0 -28.063130506631694 7.3360455421838839 -1 0 0 I I #
coedge $-1 $268 $170 $374 $387 forward $262 $-1 #
coedge $-1 $170 $268 $172 $282 reversed $262 $-1 #
vertex $-1 $387 $388 #
straight-curve $-1 0 -43.703363407329562 7.3360455421838839 -1 0 0 I I #
edge $-1 $176 -7.3360455421838839 $271 0.65895511510104576 $172 $389 forward 7 unknown #
point $-1 71.481673635059664 -28.063130506631694 7.3360455421838839 #
point $-1 71.481673635059664 -43.703363407329562 7.3360455421838839 #
face $-1 $-1 $302 $23 $-1 $390 reversed single #
loop $-1 $-1 $298 $178 #
plane-surface $-1 -71.481673635059664 0 0 1 0 0 0 0 -1 forward_v I I I I #
coedge $-1 $305 $181 $182 $292 reversed $103 $-1 #
coedge $-1 $298 $391 $181 $290 forward $286 $-1 #
edge $-1 $392 -2.3282277218717553 $306 5.6667729354131744 $289 $393 forward 7 unknown #
coedge $-1 $183 $182 $391 $394 reversed $65 $-1 #
edge $-1 $295 -71.481673635059664 $392 71.481673635059664 $288 $395 forward 7 unknown #
coedge $-1 $301 $300 $183 $294 forward $302 $-1 #
edge $-1 $296 -71.481673635059664 $396 71.481673635059664 $293 $397 forward 7 unknown #
vertex $-1 $185 $398 #
vertex $-1 $294 $399 #
straight-curve $-1 71.481673635059664 17.941623478490314 -0.65895511510104576 0 1 0 I I #
coedge $-1 $400 $289 $186 $299 forward $286 $-1 #
edge $-1 $306 10.12150702814138 $303 25.761739928839248 $298 $401 forward 7 unknown #
coedge $-1 $293 $187 $192 $309 forward $302 $-1 #
coedge $-1 $187 $293 $400 $402 reversed $302 $-1 #
loop $-1 $-1 $187 $285 #
vertex $-1 $402 $403 #
straight-curve $-1 0 43.703363407329562 7.3360455421838839 1 0 0 I I #
coedge $-1 $189 $288 $191 $308 reversed $103 $-1 #
vertex $-1 $299 $404 #
straight-curve $-1 0 28.063130506631694 7.3360455421838839 1 0 0 I I #
edge $-1 $194 -5.6667729354131744 $295 2.3282277218717553 $191 $405 forward 7 unknown #
edge $-1 $193 -7.3360455421838839 $296 0.65895511510104576 $192 $406 forward 7 unknown #
point $-1 71.481673635059664 43.703363407329562 7.3360455421838839 #
point $-1 71.481673635059664 28.063130506631694 7.3360455421838839 #
loop $-1 $-1 $204 $196 #
plane-surface $-1 0 0 13.489397162665174 0 0 1 1 0 0 forward_v I I I I #
coedge $-1 $315 $199 $201 $319 reversed $111 $-1 #
coedge $-1 $199 $314 $407 $408 reversed $111 $-1 #
coedge $-1 $207 $202 $199 $317 forward $197 $-1 #
edge $-1 $320 -55.637986645648311 $409 -43.52927034978741 $316 $410 forward 7 unknown #
coedge $-1 $201 $200 $323 $411 reversed $69 $-1 #
edge $-1 $412 -19.667815234998436 $320 -1.8033521786330445e-014 $314 $413 forward 7 unknown #
vertex $-1 $203 $414 #
straight-curve $-1 -71.481673635059664 -1.8042445256104713 1.3806808668042745 0 -1 0 I I #
coedge $-1 $407 $204 $207 $327 forward $312 $-1 #
coedge $-1 $204 $407 $318 $411 forward $312 $-1 #
vertex $-1 $205 $415 #
straight-curve $-1 -79.74935001832651 0 13.489397162665171 -1 0 0 I I #
straight-curve $-1 -71.481673635059678 0 1.3806808668042549 0.78801074757464917 0 0.61566148304635926 I I #
edge $-1 $208 0 $409 7.2169781024418853 $207 $416 forward 7 unknown #
point $-1 -71.481673635059664 0 13.489397162665174 #
point $-1 -71.481673635059664 0 1.380680866804266 #
edge $-1 $417 1 $417 0 $211 $-1 forward 7 unknown #
vertex $-1 $212 $418 #
ellipse-curve $-1 -62.466779354290985 -3.6084890512209427 5.8150561057676553 -0.61566148304635926 0 0.78801074757464917 1.1820161213619738 0 0.92349222456953894 1 I I #
point $-1 -62.550432620452092 -3.6084890512209427 8.3585312393042503 #
loop $-1 $-1 $419 $215 #
plane-surface $-1 0 0 13.489397162665174 0 0 1 1 0 0 forward_v I I I I #
coedge $-1 $218 $221 $420 $421 reversed $126 $-1 #
coedge $-1 $345 $224 $218 $338 reversed $216 $-1 #
edge $-1 $422 43.52927034978741 $227 55.637986645648311 $218 $423 forward 7 unknown #
coedge $-1 $343 $420 $220 $340 forward $334 $-1 #
edge $-1 $341 8.2676763832668456 $348 23.766126169758024 $339 $424 forward 7 unknown #
vertex $-1 $222 $425 #
straight-curve $-1 -71.481673635059664 20.846152404189809 57.018667512452581 0 0 1 I I #
coedge $-1 $419 $339 $223 $344 forward $334 $-1 #
edge $-1 $348 8.618831676484433 $346 15.835809778926318 $343 $426 forward 7 unknown #
coedge $-1 $224 $337 $419 $427 reversed $216 $-1 #
vertex $-1 $427 $428 #
straight-curve $-1 -48.813083215076574 28.063130506631694 19.091325092776827 -0.78801074757464917 0 -0.61566148304635926 I I #
vertex $-1 $344 $429 #
straight-curve $-1 -71.481673635059678 20.846152404189809 1.3806808668042549 -0.78801074757464917 0 -0.61566148304635926 I I #
point $-1 -71.481673635059664 28.063130506631694 1.380680866804266 #
point $-1 -71.481673635059664 20.846152404189809 1.380680866804266 #
edge $-1 $430 1 $430 0 $230 $-1 forward 7 unknown #
vertex $-1 $231 $431 #
ellipse-curve $-1 -62.466779354290985 24.454641455410751 5.8150561057676553 -0.61566148304635926 0 0.78801074757464917 1.1820161213619738 0 0.92349222456953894 1 I I #
point $-1 -62.550432620452092 24.454641455410751 8.3585312393042503 #
plane-surface $-1 71.481673635059664 0 0 -1 0 0 0 0 1 forward_v I I I I #
coedge $-1 $239 $237 $241 $361 reversed $141 $-1 #
edge $-1 $252 -13.489397162665174 $363 13.489397162665174 $251 $432 forward 7 unknown #
vertex $-1 $361 $433 #
straight-curve $-1 -71.481673635059664 -43.703363407329562 0 0 0 -1 I I #
edge $-1 $359 -43.703363407329562 $363 43.703363407329562 $357 $434 forward 7 unknown #
straight-curve $-1 0 -43.703363407329562 -13.489397162665174 -1 0 0 I I #
vertex $-1 $244 $435 #
straight-curve $-1 0 43.703363407329562 -13.489397162665174 1 0 0 I I #
point $-1 71.481673635059664 43.703363407329562 -13.489397162665174 #
point $-1 71.481673635059664 -43.703363407329562 -13.489397162665174 #
straight-curve $-1 -71.481673635059664 0 13.489397162665174 0 -1 0 I I #
point $-1 -71.481673635059664 43.703363407329562 13.489397162665174 #
point $-1 -71.481673635059664 -43.703363407329562 13.489397162665174 #
straight-curve $-1 71.481673635059664 -43.703363407329562 0 0 0 -1 I I #
straight-curve $-1 71.481673635059664 43.703363407329562 0 0 0 -1 I I #
plane-surface $-1 71.481673635059664 0 0 -1 0 0 0 0 1 forward_v I I I I #
coedge $-1 $376 $264 $275 $385 forward $160 $-1 #
coedge $-1 $264 $376 $278 $387 reversed $160 $-1 #
straight-curve $-1 71.481673635059664 -28.063130506631694 1.6692726067707095 0 0 1 I I #
coedge $-1 $374 $373 $267 $377 forward $160 $-1 #
edge $-1 $380 10.12150702814138 $378 25.761739928839248 $376 $436 forward 7 unknown #
vertex $-1 $269 $437 #
straight-curve $-1 0 -43.703363407329562 -0.65895511510104576 1 0 0 I I #
vertex $-1 $377 $438 #
straight-curve $-1 0 -28.063130506631694 -0.65895511510104576 1 0 0 I I #
point $-1 71.481673635059664 -43.703363407329562 -0.65895511510104576 #
point $-1 71.481673635059664 -28.063130506631694 -0.65895511510104576 #
straight-curve $-1 -71.481673635059664 -17.941623478490314 7.3360455421838839 0 1 0 I I #
edge $-1 $276 -5.6667729354131744 $380 2.3282277218717553 $373 $439 forward 7 unknown #
point $-1 -71.481673635059664 -28.063130506631694 7.3360455421838839 #
edge $-1 $280 -7.3360455421838839 $378 0.65895511510104576 $374 $440 forward 7 unknown #
point $-1 -71.481673635059664 -43.703363407329562 7.3360455421838839 #
straight-curve $-1 71.481673635059664 -43.703363407329562 0 0 0 -1 I I #
plane-surface $-1 0 43.703363407329562 0 0 -1 0 0 0 -1 forward_v I I I I #
coedge $-1 $289 $400 $291 $394 forward $286 $-1 #
vertex $-1 $394 $441 #
straight-curve $-1 -71.481673635059664 28.063130506631694 1.6692726067707095 0 0 1 I I #
edge $-1 $396 -25.761739928839248 $392 -10.12150702814138 $391 $442 forward 7 unknown #
straight-curve $-1 0 28.063130506631694 -0.65895511510104576 -1 0 0 I I #
vertex $-1 $294 $443 #
straight-curve $-1 0 43.703363407329562 -0.65895511510104576 -1 0 0 I I #
point $-1 71.481673635059664 28.063130506631694 -0.65895511510104576 #
point $-1 71.481673635059664 43.703363407329562 -0.65895511510104576 #
coedge $-1 $391 $298 $301 $402 forward $286 $-1 #
straight-curve $-1 -71.481673635059664 17.941623478490314 7.3360455421838839 0 1 0 I I #
edge $-1 $303 -7.3360455421838839 $396 0.65895511510104576 $301 $444 forward 7 unknown #
point $-1 -71.481673635059664 43.703363407329562 7.3360455421838839 #
point $-1 -71.481673635059664 28.063130506631694 7.3360455421838839 #
straight-curve $-1 71.481673635059664 28.063130506631694 1.6692726067707095 0 0 -1 I I #
straight-curve $-1 71.481673635059664 43.703363407329562 0 0 0 -1 I I #
coedge $-1 $323 $322 $315 $408 forward $312 $-1 #
edge $-1 $409 8.2676763832668456 $412 23.766126169758024 $407 $445 forward 7 unknown #
vertex $-1 $408 $446 #
straight-curve $-1 -71.481673635059664 -7.2169781024418853 57.018667512452581 0 0 1 I I #
edge $-1 $412 -5.412733576831414 $324 1.8042445256104713 $323 $447 forward 7 unknown #
vertex $-1 $411 $448 #
straight-curve $-1 -71.481673635059678 -7.2169781024418853 1.3806808668042549 -0.78801074757464917 0 -0.61566148304635926 I I #
point $-1 -71.481673635059664 -7.2169781024418853 1.380680866804266 #
point $-1 -55.983223848568485 0 13.489397162665172 #
straight-curve $-1 -71.481673635059664 0 13.489397162665174 0 -1 0 I I #
vertex $-1 $330 $449 #
point $-1 -61.284763232929009 -3.6084890512209427 6.7385483303371938 #
coedge $-1 $420 $343 $345 $427 forward $334 $-1 #
coedge $-1 $339 $419 $336 $421 forward $334 $-1 #
edge $-1 $422 -28.063130506631694 $341 -20.846152404189809 $336 $450 forward 7 unknown #
vertex $-1 $421 $451 #
straight-curve $-1 -71.481673635059664 28.063130506631694 57.018667512452581 0 0 -1 I I #
straight-curve $-1 -79.74935001832651 20.846152404189809 13.489397162665171 1 0 0 I I #
point $-1 -71.481673635059664 20.846152404189809 13.489397162665174 #
straight-curve $-1 -55.983223848568485 12.227320727705376 13.489397162665174 0 1 0 I I #
edge $-1 $346 -23.766126169758024 $422 -8.2676763832668456 $419 $452 forward 7 unknown #
point $-1 -55.983223848568485 28.063130506631694 13.489397162665172 #
point $-1 -55.983223848568485 20.846152404189809 13.489397162665172 #
vertex $-1 $352 $453 #
point $-1 -61.284763232929009 24.454641455410751 6.7385483303371938 #
straight-curve $-1 -71.481673635059664 43.703363407329562 0 0 0 -1 I I #
point $-1 -71.481673635059664 -43.703363407329562 -13.489397162665174 #
straight-curve $-1 -71.481673635059664 0 -13.489397162665174 0 1 0 I I #
point $-1 -71.481673635059664 43.703363407329562 -13.489397162665174 #
straight-curve $-1 -71.481673635059664 -17.941623478490314 -0.65895511510104576 0 -1 0 I I #
point $-1 -71.481673635059664 -43.703363407329562 -0.65895511510104576 #
point $-1 -71.481673635059664 -28.063130506631694 -0.65895511510104576 #
straight-curve $-1 -71.481673635059664 -28.063130506631694 1.6692726067707095 0 0 -1 I I #
straight-curve $-1 -71.481673635059664 -43.703363407329562 0 0 0 -1 I I #
point $-1 -71.481673635059664 28.063130506631694 -0.65895511510104576 #
straight-curve $-1 -71.481673635059664 17.941623478490314 -0.65895511510104576 0 -1 0 I I #
point $-1 -71.481673635059664 43.703363407329562 -0.65895511510104576 #
straight-curve $-1 -71.481673635059664 43.703363407329562 0 0 0 -1 I I #
straight-curve $-1 -79.74935001832651 -7.2169781024418853 13.489397162665171 1 0 0 I I #
point $-1 -71.481673635059664 -7.2169781024418853 13.489397162665174 #
straight-curve $-1 -55.983223848568485 -1.8042445256104713 13.489397162665174 0 1 0 I I #
point $-1 -55.983223848568485 -7.2169781024418853 13.489397162665172 #
point $-1 -61.543287129721442 -3.6084890512209427 4.6330399844056815 #
straight-curve $-1 -71.481673635059664 0 13.489397162665174 0 -1 0 I I #
point $-1 -71.481673635059664 28.063130506631694 13.489397162665174 #
straight-curve $-1 -79.74935001832651 28.063130506631694 13.489397162665171 -1 0 0 I I #
point $-1 -61.543287129721442 24.454641455410751 4.6330399844056815 #
End-of-ACIS-data 