500 0 8 0           
7 Unknown 11 ACIS 5.0 NT 24 Fri Mar 26 15:29:37 1999 
-1 9.9999999999999995e-007 1e-010 
body $-1 $8 $-1 $9 #
body $-1 $10 $-1 $11 #
body $-1 $12 $-1 $13 #
body $-1 $14 $-1 $15 #
body $-1 $16 $-1 $17 #
body $-1 $18 $-1 $19 #
body $-1 $20 $-1 $21 #
body $-1 $22 $-1 $23 #
lump $-1 $-1 $24 $0 #
transform $-1 1 0 0 0 1 0 0 0 1 55.094454786828209 34.36076720885842 11.23742953470164 1 rotate no_reflect no_shear #
lump $-1 $-1 $25 $1 #
transform $-1 1 0 0 0 1 0 0 0 1 55.094454786828209 34.36076720885842 11.23742953470164 1 rotate no_reflect no_shear #
lump $-1 $-1 $26 $2 #
transform $-1 1 0 0 0 1 0 0 0 1 55.094454786828209 34.36076720885842 11.23742953470164 1 rotate no_reflect no_shear #
lump $-1 $-1 $27 $3 #
transform $-1 1 0 0 0 1 0 0 0 1 55.094454786828209 34.36076720885842 11.23742953470164 1 rotate no_reflect no_shear #
lump $-1 $-1 $28 $4 #
transform $-1 1 0 0 0 1 0 0 0 1 55.094454786828209 34.36076720885842 11.23742953470164 1 rotate no_reflect no_shear #
lump $-1 $-1 $29 $5 #
transform $-1 1 0 0 0 1 0 0 0 1 55.094454786828209 34.36076720885842 11.23742953470164 1 rotate no_reflect no_shear #
lump $-1 $-1 $30 $6 #
transform $-1 1 0 0 0 1 0 0 0 1 55.094454786828209 34.36076720885842 11.23742953470164 1 rotate no_reflect no_shear #
lump $-1 $-1 $31 $7 #
transform $-1 1 0 0 0 1 0 0 0 1 55.094454786828209 34.36076720885842 11.23742953470164 1 rotate no_reflect no_shear #
shell $-1 $-1 $-1 $32 $-1 $8 #
shell $-1 $-1 $-1 $33 $-1 $10 #
shell $-1 $-1 $-1 $34 $-1 $12 #
shell $-1 $-1 $-1 $35 $-1 $14 #
shell $-1 $-1 $-1 $36 $-1 $16 #
shell $-1 $-1 $-1 $37 $-1 $18 #
shell $-1 $-1 $-1 $38 $-1 $20 #
shell $-1 $-1 $-1 $39 $-1 $22 #
face $-1 $40 $41 $24 $-1 $42 forward single #
face $-1 $43 $44 $25 $-1 $45 reversed single #
face $-1 $46 $47 $26 $-1 $48 reversed single #
face $-1 $49 $50 $27 $-1 $51 forward single #
face $-1 $52 $53 $28 $-1 $54 forward single #
face $-1 $55 $56 $29 $-1 $57 reversed single #
face $-1 $58 $59 $30 $-1 $60 forward single #
face $-1 $61 $62 $31 $-1 $63 forward single #
face $-1 $64 $65 $24 $-1 $66 reversed single #
loop $-1 $-1 $67 $32 #
plane-surface $-1 0 0 11.23742953470164 0 0 1 1 0 0 forward_v I I I I #
face $-1 $68 $69 $25 $-1 $70 reversed single #
loop $-1 $-1 $71 $33 #
plane-surface $-1 -50.426732400566195 -15.785725217945883 0 0 1 0 0 0 1 forward_v I I I I #
face $-1 $72 $73 $26 $-1 $74 reversed single #
loop $-1 $-1 $75 $34 #
plane-surface $-1 11.330291528216751 -129.78716296726623 60.672636358931705 -1 0 0 0 -0.86602541151947299 0.49999998660252726 forward_v I I I I #
face $-1 $76 $77 $27 $-1 $78 forward single #
loop $-1 $79 $80 $35 #
cone-surface $-1 -7.3866225400409675 -30.240448563150263 6.9721469776002127 0 0.86602541151947299 -0.49999998660252726 1.5 0 0 1 I I 0 1 1.5 forward I I I I #
face $-1 $81 $82 $28 $-1 $83 forward single #
loop $-1 $84 $85 $36 #
cone-surface $-1 3.8435259009136615 -30.240448563150263 6.9721469776002127 0 0.86602541151947299 -0.49999998660252726 1.5 0 0 1 I I 0 1 1.5 forward I I I I #
face $-1 $86 $87 $29 $-1 $88 reversed single #
loop $-1 $-1 $89 $37 #
plane-surface $-1 -28.119075745904883 87.282920674564778 125.90591124397358 1 0 0 0 -0.82903758062907751 -0.55919289150049634 forward_v I I I I #
face $-1 $90 $91 $30 $-1 $92 forward single #
loop $-1 $93 $94 $38 #
cone-surface $-1 -21.950705494000026 32.027885931743164 8.5953043292107463 0 -0.82903758062907751 -0.55919289150049634 1 0 0 1 I I 0 1 1 forward I I I I #
face $-1 $95 $96 $31 $-1 $97 forward single #
loop $-1 $98 $99 $39 #
cone-surface $-1 -12.698150116142735 32.027885931743164 8.5953043292107463 0 -0.82903758062907751 -0.55919289150049634 1 0 0 1 I I 0 1 1 forward I I I I #
face $-1 $100 $101 $24 $-1 $102 reversed single #
loop $-1 $-1 $103 $40 #
plane-surface $-1 0 0 -11.23742953470164 0 0 1 1 0 0 forward_v I I I I #
coedge $-1 $104 $105 $106 $107 forward $41 $-1 #
face $-1 $108 $109 $25 $-1 $110 reversed single #
loop $-1 $-1 $111 $43 #
plane-surface $-1 -50.426732400566195 -11.885908139455138 0 0 -1 0 0 0 -1 forward_v I I I I #
coedge $-1 $112 $113 $114 $115 reversed $44 $-1 #
face $-1 $116 $117 $26 $-1 $118 reversed single #
loop $-1 $-1 $119 $46 #
plane-surface $-1 -1.7715483195636494 -34.360767208858434 5.5781830483564079 0 -0.86602541151947299 0.49999998660252726 1 0 0 forward_v I I I I #
coedge $-1 $120 $121 $122 $123 reversed $47 $-1 #
face $-1 $-1 $124 $27 $-1 $125 forward single #
loop $-1 $126 $127 $49 #
cone-surface $-1 -7.3866225400409675 -27.104294541587478 5.1614876737195026 0 0.86602541151947299 -0.49999998660252726 0.75 0 0 1 I I -0.70710678118654757 0.70710678118654757 0.75 forward I I I I #
loop $-1 $-1 $128 $35 #
coedge $-1 $80 $80 $129 $130 reversed $50 $-1 #
face $-1 $-1 $131 $28 $-1 $132 forward single #
loop $-1 $133 $134 $52 #
cone-surface $-1 3.8435259009136615 -27.104294541587478 5.1614876737195026 0 0.86602541151947299 -0.49999998660252726 0.75 0 0 1 I I -0.70710678118654757 0.70710678118654757 0.75 forward I I I I #
loop $-1 $-1 $135 $36 #
coedge $-1 $85 $85 $136 $137 reversed $53 $-1 #
face $-1 $138 $139 $29 $-1 $140 reversed single #
loop $-1 $-1 $141 $55 #
plane-surface $-1 -17.32442780507138 -4.0678263305355387 64.289056288193919 0 0.82903758062907751 0.55919289150049634 1 0 0 forward_v I I I I #
coedge $-1 $142 $143 $144 $145 reversed $56 $-1 #
face $-1 $-1 $146 $30 $-1 $147 forward single #
loop $-1 $148 $149 $58 #
cone-surface $-1 -21.950705494000026 30.602896152471317 7.6341366166143771 0 -0.82903758062907751 -0.55919289150049634 0.5 0 0 1 I I -0.70710678118654691 0.70710678118654813 0.5 forward I I I I #
loop $-1 $-1 $150 $38 #
coedge $-1 $94 $94 $151 $152 reversed $59 $-1 #
face $-1 $-1 $153 $31 $-1 $154 forward single #
loop $-1 $155 $156 $61 #
cone-surface $-1 -12.698150116142735 30.602896152471317 7.6341366166143771 0 -0.82903758062907751 -0.55919289150049634 0.5 0 0 1 I I -0.70710678118654691 0.70710678118654813 0.5 forward I I I I #
loop $-1 $-1 $157 $39 #
coedge $-1 $99 $99 $158 $159 reversed $62 $-1 #
face $-1 $160 $161 $24 $-1 $162 reversed single #
loop $-1 $-1 $163 $64 #
plane-surface $-1 0 -34.36076720885842 0 0 1 0 0 0 1 forward_v I I I I #
coedge $-1 $164 $165 $166 $167 forward $65 $-1 #
coedge $-1 $168 $67 $169 $170 forward $41 $-1 #
coedge $-1 $67 $168 $171 $172 forward $41 $-1 #
coedge $-1 $173 $174 $67 $107 reversed $175 $-1 #
edge $-1 $176 -34.36076720885842 $177 34.36076720885842 $106 $178 forward 7 unknown #
face $-1 $179 $180 $25 $-1 $181 reversed single #
loop $-1 $-1 $182 $68 #
plane-surface $-1 -45.759010014304181 -13.83581667870051 0 -1 0 0 0 0 1 forward_v I I I I #
coedge $-1 $183 $184 $185 $186 forward $69 $-1 #
coedge $-1 $187 $71 $188 $189 reversed $44 $-1 #
coedge $-1 $71 $187 $190 $191 reversed $44 $-1 #
coedge $-1 $192 $193 $71 $115 forward $194 $-1 #
edge $-1 $195 -11.23742953470164 $196 11.23742953470164 $114 $197 forward 7 unknown #
face $-1 $198 $199 $26 $-1 $200 reversed single #
loop $-1 $-1 $201 $72 #
plane-surface $-1 -14.87338816734405 -129.78716296726623 60.672636358931705 1 0 0 0 0.86602541151947299 -0.49999998660252726 forward_v I I I I #
coedge $-1 $202 $203 $204 $205 reversed $73 $-1 #
coedge $-1 $121 $75 $206 $207 reversed $47 $-1 #
coedge $-1 $75 $120 $202 $208 reversed $47 $-1 #
coedge $-1 $204 $209 $75 $123 forward $210 $-1 #
edge $-1 $211 30.532814274774694 $212 33.800181640344633 $122 $213 forward 7 unknown #
loop $-1 $-1 $129 $76 #
plane-surface $-1 -1.7715483195636494 -34.360767208858434 5.5781830483564079 0 -0.86602541151947299 0.49999998660252726 1 0 0 forward_v I I I I #
loop $-1 $-1 $214 $49 #
coedge $-1 $127 $127 $128 $215 reversed $77 $-1 #
coedge $-1 $128 $128 $127 $215 forward $79 $-1 #
coedge $-1 $129 $129 $80 $130 forward $124 $-1 #
edge $-1 $216 -7.0826460329024354e-016 $216 6.2831853071795996 $129 $217 forward 7 unknown #
loop $-1 $-1 $136 $81 #
plane-surface $-1 -1.7715483195636494 -34.360767208858434 5.5781830483564079 0 -0.86602541151947299 0.49999998660252726 1 0 0 forward_v I I I I #
loop $-1 $-1 $218 $52 #
coedge $-1 $134 $134 $135 $219 reversed $82 $-1 #
coedge $-1 $135 $135 $134 $219 forward $84 $-1 #
coedge $-1 $136 $136 $85 $137 forward $131 $-1 #
edge $-1 $220 -7.0826460329024354e-016 $220 6.2831853071795996 $136 $221 forward 7 unknown #
face $-1 $222 $223 $29 $-1 $224 reversed single #
loop $-1 $-1 $225 $86 #
plane-surface $-1 -6.5297798642378773 87.282920674564778 125.90591124397358 -1 0 0 0 0.82903758062907751 0.55919289150049634 forward_v I I I I #
coedge $-1 $226 $227 $228 $229 reversed $87 $-1 #
coedge $-1 $143 $89 $230 $231 reversed $56 $-1 #
coedge $-1 $89 $142 $226 $232 reversed $56 $-1 #
coedge $-1 $228 $233 $89 $145 forward $234 $-1 #
edge $-1 $235 9.2806931284239695 $236 11.925513704739863 $144 $237 forward 7 unknown #
loop $-1 $-1 $151 $90 #
plane-surface $-1 -17.32442780507138 -4.0678263305355387 64.289056288193919 0 0.82903758062907751 0.55919289150049634 1 0 0 forward_v I I I I #
loop $-1 $-1 $238 $58 #
coedge $-1 $149 $149 $150 $239 reversed $91 $-1 #
coedge $-1 $150 $150 $149 $239 forward $93 $-1 #
coedge $-1 $151 $151 $94 $152 forward $146 $-1 #
edge $-1 $240 1.0279713165030387e-015 $240 6.2831853071796013 $151 $241 forward 7 unknown #
loop $-1 $-1 $158 $95 #
plane-surface $-1 -17.32442780507138 -4.0678263305355387 64.289056288193919 0 0.82903758062907751 0.55919289150049634 1 0 0 forward_v I I I I #
loop $-1 $-1 $242 $61 #
coedge $-1 $156 $156 $157 $243 reversed $96 $-1 #
coedge $-1 $157 $157 $156 $243 forward $98 $-1 #
coedge $-1 $158 $158 $99 $159 forward $153 $-1 #
edge $-1 $244 1.0279713165030387e-015 $244 6.2831853071796013 $158 $245 forward 7 unknown #
face $-1 $246 $247 $24 $-1 $248 reversed single #
loop $-1 $-1 $249 $100 #
plane-surface $-1 -55.094454786828209 0 0 1 0 0 0 0 -1 forward_v I I I I #
coedge $-1 $250 $171 $251 $252 forward $101 $-1 #
coedge $-1 $253 $103 $250 $254 forward $65 $-1 #
coedge $-1 $103 $253 $255 $256 forward $65 $-1 #
coedge $-1 $174 $173 $103 $167 reversed $175 $-1 #
edge $-1 $257 -34.36076720885842 $258 34.36076720885842 $166 $259 forward 7 unknown #
coedge $-1 $105 $104 $260 $261 forward $41 $-1 #
coedge $-1 $262 $263 $104 $170 reversed $247 $-1 #
edge $-1 $177 -55.094454786828209 $264 55.094454786828209 $169 $265 forward 7 unknown #
coedge $-1 $163 $266 $105 $172 reversed $101 $-1 #
edge $-1 $267 -55.094454786828209 $176 55.094454786828209 $171 $268 forward 7 unknown #
coedge $-1 $166 $106 $266 $269 forward $175 $-1 #
coedge $-1 $106 $166 $262 $270 reversed $175 $-1 #
loop $-1 $-1 $173 $246 #
vertex $-1 $107 $271 #
vertex $-1 $107 $272 #
straight-curve $-1 55.094454786828209 0 11.23742953470164 0 1 0 I I #
face $-1 $273 $274 $25 $-1 $275 forward single #
loop $-1 $-1 $276 $108 #
plane-surface $-1 0 0 -11.23742953470164 0 0 1 1 0 0 forward_v I I I I #
coedge $-1 $277 $278 $187 $279 forward $109 $-1 #
coedge $-1 $280 $111 $276 $281 reversed $69 $-1 #
coedge $-1 $111 $280 $282 $283 reversed $69 $-1 #
coedge $-1 $278 $277 $111 $186 reversed $109 $-1 #
edge $-1 $284 -11.23742953470164 $285 11.23742953470164 $185 $286 forward 7 unknown #
coedge $-1 $113 $112 $182 $279 reversed $44 $-1 #
coedge $-1 $287 $288 $112 $189 forward $180 $-1 #
edge $-1 $289 20.545643814021084 $195 29.881088586545111 $188 $290 forward 7 unknown #
coedge $-1 $291 $292 $113 $191 forward $274 $-1 #
edge $-1 $196 -29.881088586545111 $293 -20.545643814021084 $190 $294 forward 7 unknown #
coedge $-1 $295 $114 $292 $296 reversed $194 $-1 #
coedge $-1 $114 $295 $287 $297 reversed $194 $-1 #
loop $-1 $-1 $295 $273 #
vertex $-1 $297 $298 #
vertex $-1 $115 $299 #
straight-curve $-1 -55.094454786828209 -15.785725217945883 0 0 0 1 I I #
face $-1 $-1 $210 $26 $-1 $300 forward single #
loop $-1 $-1 $301 $116 #
plane-surface $-1 0 -34.36076720885842 0 0 1 0 0 0 1 forward_v I I I I #
coedge $-1 $302 $303 $304 $305 reversed $117 $-1 #
coedge $-1 $306 $119 $121 $208 forward $73 $-1 #
coedge $-1 $119 $306 $302 $307 forward $73 $-1 #
coedge $-1 $304 $122 $119 $205 forward $210 $-1 #
edge $-1 $212 -12.216065687998576 $308 13.987614007562225 $204 $309 forward 7 unknown #
coedge $-1 $310 $311 $120 $207 forward $199 $-1 #
edge $-1 $312 -24.75813513110942 $211 -19.098888644764212 $206 $313 forward 7 unknown #
edge $-1 $212 -6.5347349062377731 $312 -2.8642609447069912e-014 $121 $314 forward 7 unknown #
coedge $-1 $122 $304 $310 $315 forward $210 $-1 #
loop $-1 $-1 $304 $198 #
vertex $-1 $207 $316 #
vertex $-1 $123 $317 #
straight-curve $-1 11.330291528216751 -64.893581483633113 11.23742953470164 0 1 0 I I #
coedge $-1 $214 $214 $-1 $318 reversed $126 $-1 #
edge $-1 $319 0 $319 6.2831853071796004 $127 $320 forward 7 unknown #
vertex $-1 $130 $321 #
ellipse-curve $-1 -7.3866225400409675 -32.72708352607345 8.4078062915290328 0 -0.86602541151947299 0.49999998660252726 1.5 0 0 1 I I #
coedge $-1 $218 $218 $-1 $322 reversed $133 $-1 #
edge $-1 $323 0 $323 6.2831853071796004 $134 $324 forward 7 unknown #
vertex $-1 $137 $325 #
ellipse-curve $-1 3.8435259009136615 -32.72708352607345 8.4078062915290328 0 -0.86602541151947299 0.49999998660252726 1.5 0 0 1 I I #
face $-1 $-1 $234 $29 $-1 $326 forward single #
loop $-1 $-1 $327 $138 #
plane-surface $-1 0 34.36076720885842 0 0 -1 0 0 0 -1 forward_v I I I I #
coedge $-1 $328 $329 $330 $331 reversed $139 $-1 #
coedge $-1 $332 $141 $143 $232 forward $87 $-1 #
coedge $-1 $141 $332 $328 $333 forward $87 $-1 #
coedge $-1 $330 $144 $141 $229 forward $234 $-1 #
edge $-1 $236 -19.456861843369193 $334 2.1324340382978129 $228 $335 forward 7 unknown #
coedge $-1 $336 $337 $142 $231 forward $223 $-1 #
edge $-1 $338 -55.63663396457472 $235 -51.715526087285149 $230 $339 forward 7 unknown #
edge $-1 $236 63.991823764172985 $338 68.721534417716839 $143 $340 forward 7 unknown #
coedge $-1 $144 $330 $336 $341 forward $234 $-1 #
loop $-1 $-1 $330 $222 #
vertex $-1 $231 $342 #
vertex $-1 $145 $343 #
straight-curve $-1 -28.119075745904883 43.641460337282389 11.23742953470164 0 -1 0 I I #
coedge $-1 $238 $238 $-1 $344 reversed $148 $-1 #
edge $-1 $345 0 $345 6.2831853071796004 $149 $346 forward 7 unknown #
vertex $-1 $152 $347 #
ellipse-curve $-1 -21.950705494000026 33.038356920700465 9.276875596056863 0 0.82903758062907751 0.55919289150049634 1 0 0 1 I I #
coedge $-1 $242 $242 $-1 $348 reversed $155 $-1 #
edge $-1 $349 0 $349 6.2831853071796004 $156 $350 forward 7 unknown #
vertex $-1 $159 $351 #
ellipse-curve $-1 -12.698150116142735 33.038356920700465 9.276875596056863 0 0.82903758062907751 0.55919289150049634 1 0 0 1 I I #
face $-1 $-1 $175 $24 $-1 $352 reversed single #
loop $-1 $-1 $262 $160 #
plane-surface $-1 0 34.36076720885842 0 0 -1 0 0 0 -1 forward_v I I I I #
coedge $-1 $353 $260 $263 $354 forward $161 $-1 #
coedge $-1 $266 $163 $164 $254 reversed $101 $-1 #
coedge $-1 $260 $353 $163 $252 reversed $161 $-1 #
edge $-1 $267 -11.23742953470164 $355 11.23742953470164 $251 $356 forward 7 unknown #
coedge $-1 $165 $164 $353 $357 forward $65 $-1 #
edge $-1 $258 -55.094454786828209 $355 55.094454786828209 $250 $358 forward 7 unknown #
coedge $-1 $263 $262 $165 $256 reversed $247 $-1 #
edge $-1 $359 -55.094454786828209 $257 55.094454786828209 $255 $360 forward 7 unknown #
vertex $-1 $167 $361 #
vertex $-1 $269 $362 #
straight-curve $-1 55.094454786828209 0 -11.23742953470164 0 -1 0 I I #
coedge $-1 $249 $251 $168 $261 reversed $161 $-1 #
edge $-1 $264 -34.36076720885842 $267 34.36076720885842 $260 $363 forward 7 unknown #
coedge $-1 $255 $169 $174 $270 forward $247 $-1 #
coedge $-1 $169 $255 $249 $354 reversed $247 $-1 #
vertex $-1 $170 $364 #
straight-curve $-1 0 34.36076720885842 11.23742953470164 -1 0 0 I I #
coedge $-1 $171 $250 $173 $269 reversed $101 $-1 #
vertex $-1 $261 $365 #
straight-curve $-1 0 -34.36076720885842 11.23742953470164 1 0 0 I I #
edge $-1 $176 -11.23742953470164 $258 11.23742953470164 $173 $366 forward 7 unknown #
edge $-1 $177 -11.23742953470164 $257 11.23742953470164 $174 $367 forward 7 unknown #
point $-1 55.094454786828209 -34.36076720885842 11.23742953470164 #
point $-1 55.094454786828209 34.36076720885842 11.23742953470164 #
face $-1 $-1 $194 $25 $-1 $368 reversed single #
loop $-1 $-1 $282 $179 #
plane-surface $-1 0 0 11.23742953470164 0 0 1 1 0 0 forward_v I I I I #
coedge $-1 $288 $287 $183 $281 forward $180 $-1 #
coedge $-1 $185 $182 $288 $369 reversed $109 $-1 #
coedge $-1 $182 $185 $291 $370 reversed $109 $-1 #
edge $-1 $293 -11.23742953470164 $289 11.23742953470164 $182 $371 forward 7 unknown #
coedge $-1 $184 $183 $295 $372 reversed $69 $-1 #
edge $-1 $373 -29.881088586545111 $285 -20.545643814021084 $276 $374 forward 7 unknown #
coedge $-1 $292 $291 $184 $283 forward $274 $-1 #
edge $-1 $284 20.545643814021084 $375 29.881088586545111 $282 $376 forward 7 unknown #
vertex $-1 $283 $377 #
vertex $-1 $281 $378 #
straight-curve $-1 -45.759010014304181 -11.885908139455138 0 0 0 -1 I I #
coedge $-1 $276 $188 $193 $297 forward $180 $-1 #
coedge $-1 $188 $276 $277 $369 forward $180 $-1 #
vertex $-1 $189 $379 #
straight-curve $-1 -25.213366200283097 -15.785725217945883 -11.23742953470164 -1 0 0 I I #
coedge $-1 $282 $190 $278 $370 forward $274 $-1 #
coedge $-1 $190 $282 $192 $296 forward $274 $-1 #
vertex $-1 $191 $380 #
straight-curve $-1 -25.213366200283097 -15.785725217945883 11.23742953470164 1 0 0 I I #
coedge $-1 $193 $192 $280 $372 forward $194 $-1 #
edge $-1 $375 11.885908139455138 $196 15.785725217945883 $192 $381 forward 7 unknown #
edge $-1 $195 -15.785725217945883 $373 -11.885908139455138 $193 $382 forward 7 unknown #
point $-1 -55.094454786828209 -15.785725217945883 -11.23742953470164 #
point $-1 -55.094454786828209 -15.785725217945883 11.23742953470164 #
plane-surface $-1 0 0 11.23742953470164 0 0 1 1 0 0 forward_v I I I I #
coedge $-1 $311 $310 $303 $383 forward $199 $-1 #
coedge $-1 $303 $201 $203 $307 reversed $117 $-1 #
coedge $-1 $201 $302 $301 $383 reversed $117 $-1 #
coedge $-1 $209 $204 $201 $305 forward $210 $-1 #
edge $-1 $308 -33.800181640344633 $384 -30.532814274774694 $304 $385 forward 7 unknown #
coedge $-1 $203 $202 $311 $386 reversed $73 $-1 #
edge $-1 $387 2.8642609447069912e-014 $308 6.5347349062377731 $302 $388 forward 7 unknown #
vertex $-1 $205 $389 #
straight-curve $-1 -0.88577415978182472 -31.093399843288481 11.23742953470164 -1 0 0 I I #
coedge $-1 $301 $206 $209 $315 reversed $199 $-1 #
coedge $-1 $206 $301 $306 $386 forward $199 $-1 #
vertex $-1 $207 $390 #
straight-curve $-1 11.330291528216751 -34.36076720885842 30.336318179465852 0 0 1 I I #
straight-curve $-1 11.330291528216751 -34.360767208858434 5.5781830483564079 0 -0.49999998660252726 -0.86602541151947299 I I #
edge $-1 $384 -14.87338816734405 $211 11.330291528216751 $310 $391 forward 7 unknown #
point $-1 11.330291528216751 -34.36076720885842 11.23742953470164 #
point $-1 11.330291528216751 -31.093399843288481 11.23742953470164 #
edge $-1 $392 1 $392 0 $214 $-1 forward 7 unknown #
vertex $-1 $215 $393 #
ellipse-curve $-1 -7.3866225400409675 -27.753813600227083 5.536487663671398 0 -0.86602541151947299 0.49999998660252726 1.5 0 0 1 I I #
point $-1 -5.8866225400409675 -32.727083526073443 8.4078062915290275 #
edge $-1 $394 1 $394 0 $218 $-1 forward 7 unknown #
vertex $-1 $219 $395 #
ellipse-curve $-1 3.8435259009136615 -27.753813600227083 5.536487663671398 0 -0.86602541151947299 0.49999998660252726 1.5 0 0 1 I I #
point $-1 5.3435259009136615 -32.727083526073443 8.4078062915290275 #
plane-surface $-1 0 0 11.23742953470164 0 0 1 1 0 0 forward_v I I I I #
coedge $-1 $337 $336 $329 $396 forward $223 $-1 #
coedge $-1 $329 $225 $227 $333 reversed $139 $-1 #
coedge $-1 $225 $328 $327 $396 reversed $139 $-1 #
coedge $-1 $233 $228 $225 $331 forward $234 $-1 #
edge $-1 $334 -11.925513704739863 $397 -9.2806931284239695 $330 $398 forward 7 unknown #
coedge $-1 $227 $226 $337 $399 reversed $87 $-1 #
edge $-1 $400 -68.721534417716839 $334 -63.991823764172985 $328 $401 forward 7 unknown #
vertex $-1 $229 $402 #
straight-curve $-1 -8.6622139025356901 31.715946632542526 11.23742953470164 1 0 0 I I #
coedge $-1 $327 $230 $233 $341 reversed $223 $-1 #
coedge $-1 $230 $327 $332 $399 forward $223 $-1 #
vertex $-1 $231 $403 #
straight-curve $-1 -28.119075745904883 34.36076720885842 62.952955621986789 0 0 1 I I #
straight-curve $-1 -28.119075745904883 -4.0678263305355387 64.289056288193919 0 0.55919289150049634 -0.82903758062907751 I I #
edge $-1 $397 6.5297798642378773 $235 28.119075745904883 $336 $404 forward 7 unknown #
point $-1 -28.119075745904883 34.36076720885842 11.23742953470164 #
point $-1 -28.119075745904883 31.715946632542526 11.23742953470164 #
edge $-1 $405 1 $405 0 $238 $-1 forward 7 unknown #
vertex $-1 $239 $406 #
ellipse-curve $-1 -21.950705494000026 31.017414942785855 7.913733062364626 0 0.82903758062907751 0.55919289150049634 1 0 0 1 I I #
point $-1 -20.950705494000026 33.038356920700473 9.2768755960568665 #
edge $-1 $407 1 $407 0 $242 $-1 forward 7 unknown #
vertex $-1 $243 $408 #
ellipse-curve $-1 -12.698150116142735 31.017414942785855 7.913733062364626 0 0.82903758062907751 0.55919289150049634 1 0 0 1 I I #
point $-1 -11.698150116142735 33.038356920700473 9.2768755960568665 #
plane-surface $-1 55.094454786828209 0 0 -1 0 0 0 0 1 forward_v I I I I #
coedge $-1 $251 $249 $253 $357 reversed $161 $-1 #
edge $-1 $264 -11.23742953470164 $359 11.23742953470164 $263 $409 forward 7 unknown #
vertex $-1 $357 $410 #
straight-curve $-1 -55.094454786828209 -34.36076720885842 0 0 0 -1 I I #
edge $-1 $355 -34.36076720885842 $359 34.36076720885842 $353 $411 forward 7 unknown #
straight-curve $-1 0 -34.36076720885842 -11.23742953470164 -1 0 0 I I #
vertex $-1 $256 $412 #
straight-curve $-1 0 34.36076720885842 -11.23742953470164 1 0 0 I I #
point $-1 55.094454786828209 34.36076720885842 -11.23742953470164 #
point $-1 55.094454786828209 -34.36076720885842 -11.23742953470164 #
straight-curve $-1 -55.094454786828209 0 11.23742953470164 0 -1 0 I I #
point $-1 -55.094454786828209 34.36076720885842 11.23742953470164 #
point $-1 -55.094454786828209 -34.36076720885842 11.23742953470164 #
straight-curve $-1 55.094454786828209 -34.36076720885842 0 0 0 -1 I I #
straight-curve $-1 55.094454786828209 34.36076720885842 0 0 0 -1 I I #
plane-surface $-1 -55.094454786828209 0 0 1 0 0 0 0 -1 forward_v I I I I #
edge $-1 $285 4.9679998001048826 $289 8.8678168785956277 $288 $413 forward 7 unknown #
edge $-1 $293 -8.8678168785956277 $284 -4.9679998001048826 $291 $414 forward 7 unknown #
straight-curve $-1 -45.759010014304181 -15.785725217945883 0 0 0 -1 I I #
edge $-1 $375 -11.23742953470164 $373 11.23742953470164 $295 $415 forward 7 unknown #
vertex $-1 $372 $416 #
straight-curve $-1 -25.213366200283097 -11.885908139455138 -11.23742953470164 1 0 0 I I #
vertex $-1 $296 $417 #
straight-curve $-1 -25.213366200283097 -11.885908139455138 11.23742953470164 -1 0 0 I I #
point $-1 -45.759010014304181 -11.885908139455138 11.23742953470164 #
point $-1 -45.759010014304181 -11.885908139455138 -11.23742953470164 #
point $-1 -45.759010014304181 -15.785725217945883 -11.23742953470164 #
point $-1 -45.759010014304181 -15.785725217945883 11.23742953470164 #
straight-curve $-1 -55.094454786828209 0 11.23742953470164 0 -1 0 I I #
straight-curve $-1 -55.094454786828209 0 -11.23742953470164 0 1 0 I I #
edge $-1 $384 19.098888644764212 $387 24.75813513110942 $301 $418 forward 7 unknown #
vertex $-1 $315 $419 #
straight-curve $-1 -14.87338816734405 -64.893581483633113 11.23742953470164 0 -1 0 I I #
edge $-1 $387 -13.987614007562225 $312 12.216065687998576 $311 $420 forward 7 unknown #
vertex $-1 $386 $421 #
straight-curve $-1 -14.87338816734405 -34.360767208858434 5.5781830483564079 0 0.49999998660252726 0.86602541151947299 I I #
point $-1 -14.87338816734405 -31.093399843288481 11.23742953470164 #
point $-1 11.330291528216751 -34.36076720885842 5.5781830483564327 #
straight-curve $-1 0 -34.36076720885842 11.23742953470164 1 0 0 I I #
vertex $-1 $318 $422 #
point $-1 -5.8866225400409675 -27.753813600227083 5.536487663671398 #
vertex $-1 $322 $423 #
point $-1 5.3435259009136615 -27.753813600227083 5.536487663671398 #
edge $-1 $397 51.715526087285149 $400 55.63663396457472 $327 $424 forward 7 unknown #
vertex $-1 $341 $425 #
straight-curve $-1 -6.5297798642378773 43.641460337282389 11.23742953470164 0 1 0 I I #
edge $-1 $400 -2.1324340382978129 $338 19.456861843369193 $337 $426 forward 7 unknown #
vertex $-1 $399 $427 #
straight-curve $-1 -6.5297798642378773 -4.0678263305355387 64.289056288193919 0 -0.55919289150049634 0.82903758062907751 I I #
point $-1 -6.5297798642378773 31.715946632542526 11.23742953470164 #
point $-1 -28.119075745904883 34.36076720885842 7.3163216574120682 #
straight-curve $-1 0 34.36076720885842 11.23742953470164 -1 0 0 I I #
vertex $-1 $344 $428 #
point $-1 -20.950705494000026 31.017414942785855 7.913733062364626 #
vertex $-1 $348 $429 #
point $-1 -11.698150116142735 31.017414942785855 7.913733062364626 #
straight-curve $-1 -55.094454786828209 34.36076720885842 0 0 0 -1 I I #
point $-1 -55.094454786828209 -34.36076720885842 -11.23742953470164 #
straight-curve $-1 -55.094454786828209 0 -11.23742953470164 0 1 0 I I #
point $-1 -55.094454786828209 34.36076720885842 -11.23742953470164 #
straight-curve $-1 -45.759010014304181 -6.9179083393502552 -11.23742953470164 0 -1 0 I I #
straight-curve $-1 -45.759010014304181 -6.9179083393502552 11.23742953470164 0 1 0 I I #
straight-curve $-1 -55.094454786828209 -11.885908139455138 0 0 0 -1 I I #
point $-1 -55.094454786828209 -11.885908139455138 -11.23742953470164 #
point $-1 -55.094454786828209 -11.885908139455138 11.23742953470164 #
straight-curve $-1 -14.87338816734405 -34.36076720885842 30.336318179465852 0 0 -1 I I #
point $-1 -14.87338816734405 -34.36076720885842 11.23742953470164 #
straight-curve $-1 -0.88577415978182472 -34.36076720885842 5.5781830483564354 1 0 0 I I #
point $-1 -14.87338816734405 -34.36076720885842 5.5781830483564327 #
point $-1 -7.3866225400409675 -26.454775482947873 4.7864876837676071 #
point $-1 3.8435259009136615 -26.454775482947873 4.7864876837676071 #
straight-curve $-1 -6.5297798642378773 34.36076720885842 62.952955621986789 0 0 -1 I I #
point $-1 -6.5297798642378773 34.36076720885842 11.23742953470164 #
straight-curve $-1 -8.6622139025356901 34.36076720885842 7.3163216574120611 -1 0 0 I I #
point $-1 -6.5297798642378773 34.36076720885842 7.3163216574120682 #
point $-1 -21.950705494000026 30.188377362156778 7.3545401708641283 #
point $-1 -12.698150116142735 30.188377362156778 7.3545401708641283 #
End-of-ACIS-data 