500 0 6 0           
7 Unknown 11 ACIS 5.0 NT 24 Fri Mar 26 15:45:35 1999 
-1 9.9999999999999995e-007 1e-010 
body $-1 $6 $-1 $7 #
body $-1 $8 $-1 $9 #
body $-1 $10 $-1 $11 #
body $-1 $12 $-1 $13 #
body $-1 $14 $-1 $15 #
body $-1 $16 $-1 $17 #
lump $-1 $-1 $18 $0 #
transform $-1 1 0 0 0 1 0 0 0 1 70.070497756889552 40.816540747878989 19.316324830569926 1 rotate no_reflect no_shear #
lump $-1 $-1 $19 $1 #
transform $-1 1 0 0 0 1 0 0 0 1 70.070497756889552 40.816540747878989 19.316324830569926 1 rotate no_reflect no_shear #
lump $-1 $-1 $20 $2 #
transform $-1 1 0 0 0 1 0 0 0 1 70.070497756889552 40.816540747878989 19.316324830569926 1 rotate no_reflect no_shear #
lump $-1 $-1 $21 $3 #
transform $-1 1 0 0 0 1 0 0 0 1 70.070497756889552 40.816540747878989 19.316324830569926 1 rotate no_reflect no_shear #
lump $-1 $-1 $22 $4 #
transform $-1 1 0 0 0 1 0 0 0 1 70.070497756889552 40.816540747878989 19.316324830569926 1 rotate no_reflect no_shear #
lump $-1 $-1 $23 $5 #
transform $-1 1 0 0 0 1 0 0 0 1 70.070497756889552 40.816540747878989 19.316324830569926 1 rotate no_reflect no_shear #
shell $-1 $-1 $-1 $24 $-1 $6 #
shell $-1 $-1 $-1 $25 $-1 $8 #
shell $-1 $-1 $-1 $26 $-1 $10 #
shell $-1 $-1 $-1 $27 $-1 $12 #
shell $-1 $-1 $-1 $28 $-1 $14 #
shell $-1 $-1 $-1 $29 $-1 $16 #
face $-1 $30 $31 $18 $-1 $32 forward single #
face $-1 $33 $34 $19 $-1 $35 forward single #
face $-1 $36 $37 $20 $-1 $38 reversed single #
face $-1 $39 $40 $21 $-1 $41 forward single #
face $-1 $42 $43 $22 $-1 $44 forward single #
face $-1 $45 $46 $23 $-1 $47 forward single #
face $-1 $48 $49 $18 $-1 $50 reversed single #
loop $-1 $-1 $51 $24 #
plane-surface $-1 0 0 19.316324830569926 0 0 1 1 0 0 forward_v I I I I #
face $-1 $52 $53 $19 $-1 $54 reversed single #
loop $-1 $-1 $55 $25 #
plane-surface $-1 0 -40.816540747878989 0 0 1 0 0 0 1 forward_v I I I I #
face $-1 $56 $57 $20 $-1 $58 reversed single #
loop $-1 $-1 $59 $26 #
plane-surface $-1 42.48788065818438 12.676594071613803 201.22110919631484 0 -1 0 -0.6018150307709319 0 -0.79863550430605224 forward_v I I I I #
face $-1 $60 $61 $21 $-1 $62 forward single #
loop $-1 $63 $64 $27 #
cone-surface $-1 59.481597964657894 4.4881754730685444 10.7270862456927 -0.6018150307709319 0 -0.79863550430605224 0.79863550430605224 0 -0.6018150307709319 1 I I 0 1 1 forward I I I I #
face $-1 $65 $66 $22 $-1 $67 forward single #
loop $-1 $68 $69 $28 #
cone-surface $-1 59.481597964657894 7.5588324475230166 10.7270862456927 -0.6018150307709319 0 -0.79863550430605224 0.79863550430605224 0 -0.6018150307709319 1 I I 0 1 1 forward I I I I #
face $-1 $70 $71 $23 $-1 $72 forward single #
loop $-1 $73 $74 $29 #
cone-surface $-1 59.481597964657894 10.629489421977489 10.7270862456927 -0.6018150307709319 0 -0.79863550430605224 0.79863550430605224 0 -0.6018150307709319 1 I I 0 1 1 forward I I I I #
face $-1 $75 $76 $18 $-1 $77 reversed single #
loop $-1 $-1 $78 $30 #
plane-surface $-1 0 0 -19.316324830569926 0 0 1 1 0 0 forward_v I I I I #
coedge $-1 $79 $80 $81 $82 forward $31 $-1 #
face $-1 $83 $84 $19 $-1 $85 reversed single #
loop $-1 $-1 $86 $33 #
plane-surface $-1 0 0 -19.316324830569926 0 0 1 1 0 0 forward_v I I I I #
coedge $-1 $87 $88 $89 $90 forward $34 $-1 #
face $-1 $91 $92 $20 $-1 $93 reversed single #
loop $-1 $-1 $94 $36 #
plane-surface $-1 -41.851076869209621 7.5588324475230166 89.29953457021567 0.6018150307709319 0 0.79863550430605224 0.79863550430605224 0 -0.6018150307709319 forward_v I I I I #
coedge $-1 $95 $96 $97 $98 reversed $37 $-1 #
face $-1 $-1 $99 $21 $-1 $100 forward single #
loop $-1 $101 $102 $39 #
cone-surface $-1 58.117150849085135 4.4881754730685444 8.9164038025365784 -0.6018150307709319 0 -0.79863550430605224 0.39931775215302612 0 -0.30090751538546595 1 I I -0.70710678118654746 0.70710678118654746 0.5 forward I I I I #
loop $-1 $-1 $103 $27 #
coedge $-1 $64 $64 $104 $105 reversed $40 $-1 #
face $-1 $-1 $106 $22 $-1 $107 forward single #
loop $-1 $108 $109 $42 #
cone-surface $-1 58.117150849085135 7.5588324475230166 8.9164038025365784 -0.6018150307709319 0 -0.79863550430605224 0.39931775215302612 0 -0.30090751538546595 1 I I -0.70710678118654746 0.70710678118654746 0.5 forward I I I I #
loop $-1 $-1 $110 $28 #
coedge $-1 $69 $69 $111 $112 reversed $43 $-1 #
face $-1 $-1 $113 $23 $-1 $114 forward single #
loop $-1 $115 $116 $45 #
cone-surface $-1 58.117150849085135 10.629489421977489 8.9164038025365784 -0.6018150307709319 0 -0.79863550430605224 0.39931775215302612 0 -0.30090751538546595 1 I I -0.70710678118654746 0.70710678118654746 0.5 forward I I I I #
loop $-1 $-1 $117 $29 #
coedge $-1 $74 $74 $118 $119 reversed $46 $-1 #
face $-1 $120 $121 $18 $-1 $122 reversed single #
loop $-1 $-1 $123 $48 #
plane-surface $-1 0 -40.816540747878989 0 0 1 0 0 0 1 forward_v I I I I #
coedge $-1 $124 $125 $126 $127 forward $49 $-1 #
coedge $-1 $128 $51 $129 $130 forward $31 $-1 #
coedge $-1 $51 $128 $131 $132 forward $31 $-1 #
coedge $-1 $133 $134 $51 $82 reversed $135 $-1 #
edge $-1 $136 -40.816540747878989 $137 40.816540747878989 $81 $138 forward 7 unknown #
face $-1 $139 $140 $19 $-1 $141 forward single #
loop $-1 $-1 $142 $52 #
plane-surface $-1 70.070497756889552 0 0 -1 0 0 0 0 1 forward_v I I I I #
coedge $-1 $143 $144 $145 $146 forward $53 $-1 #
coedge $-1 $145 $55 $142 $147 reversed $34 $-1 #
coedge $-1 $55 $145 $148 $149 reversed $34 $-1 #
coedge $-1 $150 $151 $55 $90 reversed $140 $-1 #
edge $-1 $152 -70.070497756889552 $153 70.070497756889552 $89 $154 forward 7 unknown #
face $-1 $155 $156 $20 $-1 $157 reversed single #
loop $-1 $-1 $158 $56 #
plane-surface $-1 42.48788065818438 2.4410708234322307 201.22110919631484 0 1 0 0.6018150307709319 0 0.79863550430605224 forward_v I I I I #
coedge $-1 $159 $160 $161 $162 reversed $57 $-1 #
coedge $-1 $96 $59 $163 $164 reversed $37 $-1 #
coedge $-1 $59 $95 $159 $165 reversed $37 $-1 #
coedge $-1 $161 $166 $59 $98 forward $167 $-1 #
edge $-1 $168 -48.826557427797361 $169 -29.775837043708556 $97 $170 forward 7 unknown #
loop $-1 $-1 $104 $60 #
plane-surface $-1 -41.851076869209621 7.5588324475230166 89.29953457021567 0.6018150307709319 0 0.79863550430605224 0.79863550430605224 0 -0.6018150307709319 forward_v I I I I #
loop $-1 $-1 $171 $39 #
coedge $-1 $102 $102 $103 $172 reversed $61 $-1 #
coedge $-1 $103 $103 $102 $172 forward $63 $-1 #
coedge $-1 $104 $104 $64 $105 forward $99 $-1 #
edge $-1 $173 0 $173 6.2831853071796004 $104 $174 forward 7 unknown #
loop $-1 $-1 $111 $65 #
plane-surface $-1 -41.851076869209621 7.5588324475230166 89.29953457021567 0.6018150307709319 0 0.79863550430605224 0.79863550430605224 0 -0.6018150307709319 forward_v I I I I #
loop $-1 $-1 $175 $42 #
coedge $-1 $109 $109 $110 $176 reversed $66 $-1 #
coedge $-1 $110 $110 $109 $176 forward $68 $-1 #
coedge $-1 $111 $111 $69 $112 forward $106 $-1 #
edge $-1 $177 0 $177 6.2831853071796004 $111 $178 forward 7 unknown #
loop $-1 $-1 $118 $70 #
plane-surface $-1 -41.851076869209621 7.5588324475230166 89.29953457021567 0.6018150307709319 0 0.79863550430605224 0.79863550430605224 0 -0.6018150307709319 forward_v I I I I #
loop $-1 $-1 $179 $45 #
coedge $-1 $116 $116 $117 $180 reversed $71 $-1 #
coedge $-1 $117 $117 $116 $180 forward $73 $-1 #
coedge $-1 $118 $118 $74 $119 forward $113 $-1 #
edge $-1 $181 0 $181 6.2831853071796004 $118 $182 forward 7 unknown #
face $-1 $183 $184 $18 $-1 $185 reversed single #
loop $-1 $-1 $186 $75 #
plane-surface $-1 -70.070497756889552 0 0 1 0 0 0 0 -1 forward_v I I I I #
coedge $-1 $131 $187 $133 $188 reversed $76 $-1 #
coedge $-1 $189 $78 $187 $190 forward $49 $-1 #
coedge $-1 $78 $189 $191 $192 forward $49 $-1 #
coedge $-1 $134 $133 $78 $127 reversed $135 $-1 #
edge $-1 $193 -40.816540747878989 $194 40.816540747878989 $126 $195 forward 7 unknown #
coedge $-1 $80 $79 $196 $197 forward $31 $-1 #
coedge $-1 $198 $199 $79 $130 reversed $184 $-1 #
edge $-1 $137 -70.070497756889552 $200 70.070497756889552 $129 $201 forward 7 unknown #
coedge $-1 $202 $123 $80 $132 reversed $76 $-1 #
edge $-1 $203 -70.070497756889552 $136 70.070497756889552 $131 $204 forward 7 unknown #
coedge $-1 $126 $81 $123 $188 forward $135 $-1 #
coedge $-1 $81 $126 $198 $205 reversed $135 $-1 #
loop $-1 $-1 $133 $183 #
vertex $-1 $82 $206 #
vertex $-1 $82 $207 #
straight-curve $-1 70.070497756889552 0 19.316324830569926 0 1 0 I I #
face $-1 $208 $209 $19 $-1 $210 reversed single #
loop $-1 $-1 $151 $83 #
plane-surface $-1 0 -50.489299317917357 -10.317524252590559 0 0 1 1 0 0 forward_v I I I I #
coedge $-1 $211 $212 $87 $147 forward $84 $-1 #
coedge $-1 $213 $86 $212 $214 forward $53 $-1 #
coedge $-1 $86 $213 $215 $216 forward $53 $-1 #
coedge $-1 $88 $87 $86 $146 reversed $34 $-1 #
edge $-1 $217 -70.070497756889552 $218 70.070497756889552 $86 $219 forward 7 unknown #
edge $-1 $218 -19.316324830569926 $153 -10.317524252590559 $142 $220 forward 7 unknown #
coedge $-1 $215 $221 $88 $149 forward $222 $-1 #
edge $-1 $152 10.317524252590559 $217 19.316324830569926 $148 $223 forward 7 unknown #
coedge $-1 $224 $89 $221 $225 forward $140 $-1 #
coedge $-1 $89 $224 $211 $226 forward $140 $-1 #
vertex $-1 $149 $227 #
vertex $-1 $226 $228 #
straight-curve $-1 0 -40.816540747878989 -10.317524252590559 1 0 0 I I #
face $-1 $-1 $167 $20 $-1 $229 forward single #
loop $-1 $-1 $230 $91 #
plane-surface $-1 70.070497756889552 0 0 -1 0 0 0 0 1 forward_v I I I I #
coedge $-1 $231 $232 $233 $234 reversed $92 $-1 #
coedge $-1 $235 $94 $96 $165 forward $57 $-1 #
coedge $-1 $94 $235 $231 $236 forward $57 $-1 #
coedge $-1 $233 $97 $94 $162 forward $167 $-1 #
edge $-1 $169 -8.8971778478522943 $237 1.3383454003292776 $161 $238 forward 7 unknown #
coedge $-1 $239 $240 $95 $164 forward $156 $-1 #
edge $-1 $241 -95.649977555335752 $168 -81.294229767587495 $163 $242 forward 7 unknown #
edge $-1 $169 116.28690903581531 $241 140.1409955137791 $96 $243 forward 7 unknown #
coedge $-1 $97 $233 $239 $244 forward $167 $-1 #
loop $-1 $-1 $233 $155 #
vertex $-1 $164 $245 #
vertex $-1 $98 $246 #
straight-curve $-1 21.24394032909219 12.676594071613803 19.316324830569926 -1 0 0 I I #
coedge $-1 $171 $171 $-1 $247 reversed $101 $-1 #
edge $-1 $248 0 $248 6.2831853071796004 $102 $249 forward 7 unknown #
vertex $-1 $105 $250 #
ellipse-curve $-1 60.54513756484517 4.4881754730685444 12.138450936695778 0.6018150307709319 0 0.79863550430605224 0.79863550430605224 0 -0.6018150307709319 1 I I #
coedge $-1 $175 $175 $-1 $251 reversed $108 $-1 #
edge $-1 $252 0 $252 6.2831853071796004 $109 $253 forward 7 unknown #
vertex $-1 $112 $254 #
ellipse-curve $-1 60.54513756484517 7.5588324475230166 12.138450936695778 0.6018150307709319 0 0.79863550430605224 0.79863550430605224 0 -0.6018150307709319 1 I I #
coedge $-1 $179 $179 $-1 $255 reversed $115 $-1 #
edge $-1 $256 0 $256 6.2831853071796004 $116 $257 forward 7 unknown #
vertex $-1 $119 $258 #
ellipse-curve $-1 60.54513756484517 10.629489421977489 12.138450936695778 0.6018150307709319 0 0.79863550430605224 0.79863550430605224 0 -0.6018150307709319 1 I I #
face $-1 $-1 $135 $18 $-1 $259 reversed single #
loop $-1 $-1 $198 $120 #
plane-surface $-1 0 40.816540747878989 0 0 -1 0 0 0 -1 forward_v I I I I #
coedge $-1 $260 $196 $199 $261 forward $121 $-1 #
coedge $-1 $123 $202 $124 $190 reversed $76 $-1 #
edge $-1 $136 -19.316324830569926 $194 19.316324830569926 $133 $262 forward 7 unknown #
coedge $-1 $125 $124 $260 $263 forward $49 $-1 #
edge $-1 $194 -70.070497756889552 $264 70.070497756889552 $187 $265 forward 7 unknown #
coedge $-1 $199 $198 $125 $192 reversed $184 $-1 #
edge $-1 $266 -70.070497756889552 $193 70.070497756889552 $191 $267 forward 7 unknown #
vertex $-1 $127 $268 #
vertex $-1 $188 $269 #
straight-curve $-1 70.070497756889552 0 -19.316324830569926 0 -1 0 I I #
coedge $-1 $186 $270 $128 $197 reversed $121 $-1 #
edge $-1 $200 -40.816540747878989 $203 40.816540747878989 $196 $271 forward 7 unknown #
coedge $-1 $191 $129 $134 $205 forward $184 $-1 #
coedge $-1 $129 $191 $186 $261 reversed $184 $-1 #
vertex $-1 $130 $272 #
straight-curve $-1 0 40.816540747878989 19.316324830569926 -1 0 0 I I #
coedge $-1 $187 $131 $270 $273 forward $76 $-1 #
vertex $-1 $197 $274 #
straight-curve $-1 0 -40.816540747878989 19.316324830569926 1 0 0 I I #
edge $-1 $137 -19.316324830569926 $193 19.316324830569926 $134 $275 forward 7 unknown #
point $-1 70.070497756889552 -40.816540747878989 19.316324830569926 #
point $-1 70.070497756889552 40.816540747878989 19.316324830569926 #
face $-1 $-1 $222 $19 $-1 $276 reversed single #
loop $-1 $-1 $277 $139 #
plane-surface $-1 0 -60.162057887955726 -14.816924541580242 0 1 0 0 0 1 forward_v I I I I #
coedge $-1 $278 $142 $151 $226 reversed $84 $-1 #
coedge $-1 $142 $278 $143 $214 reversed $84 $-1 #
coedge $-1 $144 $143 $279 $280 forward $53 $-1 #
edge $-1 $218 40.816540747878989 $281 60.162057887955726 $212 $282 forward 7 unknown #
coedge $-1 $283 $148 $144 $216 reversed $222 $-1 #
edge $-1 $284 -60.162057887955726 $217 -40.816540747878989 $215 $285 forward 7 unknown #
vertex $-1 $149 $286 #
vertex $-1 $214 $287 #
straight-curve $-1 0 -40.816540747878989 -19.316324830569926 1 0 0 I I #
straight-curve $-1 70.070497756889552 -40.816540747878989 0 0 0 1 I I #
coedge $-1 $148 $283 $150 $225 reversed $222 $-1 #
loop $-1 $-1 $148 $208 #
straight-curve $-1 -70.070497756889552 -40.816540747878989 0 0 0 -1 I I #
coedge $-1 $151 $150 $288 $289 forward $140 $-1 #
edge $-1 $152 -9.6727585700383685 $290 9.6727585700383685 $221 $291 forward 7 unknown #
edge $-1 $292 -9.6727585700383685 $153 9.6727585700383685 $211 $293 forward 7 unknown #
point $-1 -70.070497756889552 -40.816540747878989 -10.317524252590559 #
point $-1 70.070497756889552 -40.816540747878989 -10.317524252590559 #
plane-surface $-1 0 0 19.316324830569926 0 0 1 1 0 0 forward_v I I I I #
coedge $-1 $240 $239 $232 $294 forward $156 $-1 #
coedge $-1 $232 $158 $160 $236 reversed $92 $-1 #
coedge $-1 $158 $231 $230 $294 reversed $92 $-1 #
coedge $-1 $166 $161 $158 $234 forward $167 $-1 #
edge $-1 $237 29.775837043708556 $295 48.826557427797361 $233 $296 forward 7 unknown #
coedge $-1 $160 $159 $240 $297 reversed $57 $-1 #
edge $-1 $298 -140.1409955137791 $237 -116.28690903581531 $231 $299 forward 7 unknown #
vertex $-1 $162 $300 #
straight-curve $-1 51.019777372800753 3.7794162237615083 19.316324830569926 0 -1 0 I I #
coedge $-1 $230 $163 $166 $244 reversed $156 $-1 #
coedge $-1 $163 $230 $235 $297 forward $156 $-1 #
vertex $-1 $164 $301 #
straight-curve $-1 70.070497756889552 12.676594071613803 100.61055459815742 0 0 1 I I #
straight-curve $-1 -41.851076869209621 12.676594071613803 89.29953457021567 0.79863550430605224 0 -0.6018150307709319 I I #
edge $-1 $295 2.4410708234322307 $168 12.676594071613803 $239 $302 forward 7 unknown #
point $-1 70.070497756889552 12.676594071613803 19.316324830569926 #
point $-1 51.019777372800746 12.676594071613803 19.316324830569926 #
edge $-1 $303 1 $303 0 $171 $-1 forward 7 unknown #
vertex $-1 $172 $304 #
ellipse-curve $-1 58.418058364470603 4.4881754730685444 9.3157215546896044 0.6018150307709319 0 0.79863550430605224 0.79863550430605224 0 -0.6018150307709319 1 I I #
point $-1 61.343773069151233 4.4881754730685444 11.536635905924861 #
edge $-1 $305 1 $305 0 $175 $-1 forward 7 unknown #
vertex $-1 $176 $306 #
ellipse-curve $-1 58.418058364470603 7.5588324475230166 9.3157215546896044 0.6018150307709319 0 0.79863550430605224 0.79863550430605224 0 -0.6018150307709319 1 I I #
point $-1 61.343773069151233 7.5588324475230166 11.536635905924861 #
edge $-1 $307 1 $307 0 $179 $-1 forward 7 unknown #
vertex $-1 $180 $308 #
ellipse-curve $-1 58.418058364470603 10.629489421977489 9.3157215546896044 0.6018150307709319 0 0.79863550430605224 0.79863550430605224 0 -0.6018150307709319 1 I I #
point $-1 61.343773069151233 10.629489421977489 11.536635905924861 #
plane-surface $-1 70.070497756889552 0 0 -1 0 0 0 0 1 forward_v I I I I #
coedge $-1 $270 $186 $189 $263 reversed $121 $-1 #
edge $-1 $200 -19.316324830569926 $266 19.316324830569926 $199 $309 forward 7 unknown #
straight-curve $-1 70.070497756889552 -40.816540747878989 0 0 0 -1 I I #
edge $-1 $264 -40.816540747878989 $266 40.816540747878989 $260 $310 forward 7 unknown #
vertex $-1 $263 $311 #
straight-curve $-1 0 -40.816540747878989 -19.316324830569926 -1 0 0 I I #
vertex $-1 $192 $312 #
straight-curve $-1 0 40.816540747878989 -19.316324830569926 1 0 0 I I #
point $-1 70.070497756889552 40.816540747878989 -19.316324830569926 #
point $-1 70.070497756889552 -40.816540747878989 -19.316324830569926 #
coedge $-1 $196 $260 $202 $273 reversed $121 $-1 #
straight-curve $-1 -70.070497756889552 0 19.316324830569926 0 -1 0 I I #
point $-1 -70.070497756889552 40.816540747878989 19.316324830569926 #
edge $-1 $203 -19.316324830569926 $264 19.316324830569926 $270 $313 forward 7 unknown #
point $-1 -70.070497756889552 -40.816540747878989 19.316324830569926 #
straight-curve $-1 70.070497756889552 40.816540747878989 0 0 0 -1 I I #
plane-surface $-1 -70.070497756889552 0 0 1 0 0 0 0 -1 forward_v I I I I #
coedge $-1 $279 $288 $283 $314 forward $209 $-1 #
coedge $-1 $212 $211 $315 $316 forward $84 $-1 #
coedge $-1 $315 $277 $213 $280 reversed $209 $-1 #
edge $-1 $281 -70.070497756889552 $284 70.070497756889552 $279 $317 forward 7 unknown #
vertex $-1 $316 $318 #
straight-curve $-1 70.070497756889552 0 -19.316324830569926 0 -1 0 I I #
coedge $-1 $221 $215 $277 $314 reversed $222 $-1 #
vertex $-1 $216 $319 #
straight-curve $-1 -70.070497756889552 0 -19.316324830569926 0 1 0 I I #
point $-1 -70.070497756889552 -40.816540747878989 -19.316324830569926 #
point $-1 70.070497756889552 -40.816540747878989 -19.316324830569926 #
coedge $-1 $277 $315 $224 $289 reversed $209 $-1 #
edge $-1 $290 -70.070497756889552 $292 70.070497756889552 $288 $320 forward 7 unknown #
vertex $-1 $225 $321 #
straight-curve $-1 -70.070497756889552 -50.489299317917357 -10.317524252590559 0 -1 0 I I #
vertex $-1 $226 $322 #
straight-curve $-1 70.070497756889552 -50.489299317917357 -10.317524252590559 0 1 0 I I #
edge $-1 $295 81.294229767587495 $298 95.649977555335752 $230 $323 forward 7 unknown #
vertex $-1 $244 $324 #
straight-curve $-1 21.24394032909219 2.4410708234322307 19.316324830569926 1 0 0 I I #
edge $-1 $298 -1.3383454003292776 $241 8.8971778478522943 $240 $325 forward 7 unknown #
vertex $-1 $297 $326 #
straight-curve $-1 -41.851076869209621 2.4410708234322307 89.29953457021567 -0.79863550430605224 0 0.6018150307709319 I I #
point $-1 51.019777372800746 2.4410708234322307 19.316324830569926 #
point $-1 70.070497756889552 12.676594071613803 4.9605770428216687 #
straight-curve $-1 70.070497756889552 0 19.316324830569926 0 1 0 I I #
vertex $-1 $247 $327 #
point $-1 59.216693868776652 4.4881754730685444 8.7139065239186735 #
vertex $-1 $251 $328 #
point $-1 59.216693868776652 7.5588324475230166 8.7139065239186735 #
vertex $-1 $255 $329 #
point $-1 59.216693868776652 10.629489421977489 8.7139065239186735 #
straight-curve $-1 -70.070497756889552 40.816540747878989 0 0 0 -1 I I #
straight-curve $-1 -70.070497756889552 0 -19.316324830569926 0 1 0 I I #
point $-1 -70.070497756889552 -40.816540747878989 -19.316324830569926 #
point $-1 -70.070497756889552 40.816540747878989 -19.316324830569926 #
straight-curve $-1 -70.070497756889552 -40.816540747878989 0 0 0 -1 I I #
edge $-1 $290 -4.4994002889896834 $284 4.4994002889896834 $283 $330 forward 7 unknown #
coedge $-1 $288 $279 $278 $316 reversed $209 $-1 #
edge $-1 $292 -4.4994002889896834 $281 4.4994002889896834 $278 $331 forward 7 unknown #
straight-curve $-1 0 -60.162057887955726 -19.316324830569926 -1 0 0 I I #
point $-1 70.070497756889552 -60.162057887955726 -19.316324830569926 #
point $-1 -70.070497756889552 -60.162057887955726 -19.316324830569926 #
straight-curve $-1 0 -60.162057887955726 -10.317524252590559 1 0 0 I I #
point $-1 -70.070497756889552 -60.162057887955726 -10.317524252590559 #
point $-1 70.070497756889552 -60.162057887955726 -10.317524252590559 #
straight-curve $-1 70.070497756889552 2.4410708234322307 100.61055459815742 0 0 -1 I I #
point $-1 70.070497756889552 2.4410708234322307 19.316324830569926 #
straight-curve $-1 70.070497756889552 3.7794162237615083 4.9605770428216758 0 1 0 I I #
point $-1 70.070497756889552 2.4410708234322307 4.9605770428216687 #
point $-1 57.816243333699667 4.4881754730685444 8.5170860503835524 #
point $-1 57.816243333699667 7.5588324475230166 8.5170860503835524 #
point $-1 57.816243333699667 10.629489421977489 8.5170860503835524 #
straight-curve $-1 -70.070497756889552 -60.162057887955726 -14.816924541580242 0 0 -1 I I #
straight-curve $-1 70.070497756889552 -60.162057887955726 -14.816924541580242 0 0 -1 I I #
End-of-ACIS-data 