500 0 6 0           
7 Unknown 11 ACIS 5.0 NT 24 Thu Mar 25 21:56:03 1999 
-1 9.9999999999999995e-007 1e-010 
body $-1 $6 $-1 $7 #
body $-1 $8 $-1 $9 #
body $-1 $10 $-1 $11 #
body $-1 $12 $-1 $13 #
body $-1 $14 $-1 $15 #
body $-1 $16 $-1 $17 #
lump $-1 $-1 $18 $0 #
transform $-1 1 0 0 0 1 0 0 0 1 61.66203802606281 41.476551076187548 12.600810896732437 1 rotate no_reflect no_shear #
lump $-1 $-1 $19 $1 #
transform $-1 1 0 0 0 1 0 0 0 1 61.66203802606281 41.476551076187548 12.600810896732437 1 rotate no_reflect no_shear #
lump $-1 $-1 $20 $2 #
transform $-1 1 0 0 0 1 0 0 0 1 61.66203802606281 41.476551076187548 12.600810896732437 1 rotate no_reflect no_shear #
lump $-1 $-1 $21 $3 #
transform $-1 1 0 0 0 1 0 0 0 1 61.66203802606281 41.476551076187548 12.600810896732437 1 rotate no_reflect no_shear #
lump $-1 $-1 $22 $4 #
transform $-1 1 0 0 0 1 0 0 0 1 61.66203802606281 41.476551076187548 12.600810896732437 1 rotate no_reflect no_shear #
lump $-1 $-1 $23 $5 #
transform $-1 1 0 0 0 1 0 0 0 1 61.66203802606281 41.476551076187548 12.600810896732437 1 rotate no_reflect no_shear #
shell $-1 $-1 $-1 $24 $-1 $6 #
shell $-1 $-1 $-1 $25 $-1 $8 #
shell $-1 $-1 $-1 $26 $-1 $10 #
shell $-1 $-1 $-1 $27 $-1 $12 #
shell $-1 $-1 $-1 $28 $-1 $14 #
shell $-1 $-1 $-1 $29 $-1 $16 #
face $-1 $30 $31 $18 $-1 $32 forward single #
face $-1 $33 $34 $19 $-1 $35 forward single #
face $-1 $36 $37 $20 $-1 $38 reversed single #
face $-1 $39 $40 $21 $-1 $41 forward single #
face $-1 $42 $43 $22 $-1 $44 reversed single #
face $-1 $45 $46 $23 $-1 $47 forward single #
face $-1 $48 $49 $18 $-1 $50 reversed single #
loop $-1 $-1 $51 $24 #
plane-surface $-1 0 0 12.600810896732437 0 0 1 1 0 0 forward_v I I I I #
face $-1 $52 $53 $19 $-1 $54 forward single #
loop $-1 $-1 $55 $25 #
plane-surface $-1 -61.66203802606281 0 0 1 0 0 0 0 -1 forward_v I I I I #
face $-1 $56 $57 $20 $-1 $58 reversed single #
loop $-1 $-1 $59 $26 #
plane-surface $-1 -49.104366842041195 46.8541562334904 151.32541963301881 1 0 0 0 -0.5877852598018023 -0.80901698891910034 forward_v I I I I #
face $-1 $60 $61 $21 $-1 $62 forward single #
loop $-1 $63 $64 $27 #
cone-surface $-1 -42.462337647879565 34.006811443047368 6.7046482764785722 0 -0.5877852598018023 -0.80901698891910034 2 0 0 1 I I 0 1 2 forward I I I I #
face $-1 $65 $66 $22 $-1 $67 reversed single #
loop $-1 $-1 $68 $28 #
plane-surface $-1 -35.820308453717935 -113.96462515830343 102.56680893301957 -1 0 0 0 -0.5877852598018023 0.80901698891910034 forward_v I I I I #
face $-1 $69 $70 $23 $-1 $71 forward single #
loop $-1 $72 $73 $29 #
cone-surface $-1 -42.462337647879565 -34.006811443047361 6.7046482764785722 0 0.5877852598018023 -0.80901698891910034 2 0 0 1 I I 0 1 2 forward I I I I #
face $-1 $74 $75 $18 $-1 $76 reversed single #
loop $-1 $-1 $77 $30 #
plane-surface $-1 0 0 -12.600810896732437 0 0 1 1 0 0 forward_v I I I I #
coedge $-1 $78 $79 $80 $81 forward $31 $-1 #
face $-1 $82 $83 $19 $-1 $84 reversed single #
loop $-1 $-1 $85 $33 #
plane-surface $-1 0 0 12.600810896732437 0 0 1 1 0 0 forward_v I I I I #
coedge $-1 $86 $87 $88 $89 forward $34 $-1 #
face $-1 $90 $91 $20 $-1 $92 reversed single #
loop $-1 $-1 $93 $36 #
plane-surface $-1 -42.462337647879565 -25.633917848625487 51.55414696409801 0 0.5877852598018023 0.80901698891910034 1 0 0 forward_v I I I I #
coedge $-1 $94 $95 $96 $97 reversed $37 $-1 #
face $-1 $-1 $98 $21 $-1 $99 forward single #
loop $-1 $100 $101 $39 #
cone-surface $-1 -42.462337647879565 32.697187783195986 4.9021059836224445 0 -0.5877852598018023 -0.80901698891910034 1 0 0 1 I I -0.70710678118654746 0.70710678118654746 1 forward I I I I #
loop $-1 $-1 $102 $27 #
coedge $-1 $64 $64 $103 $104 reversed $40 $-1 #
face $-1 $105 $106 $22 $-1 $107 reversed single #
loop $-1 $-1 $108 $42 #
plane-surface $-1 -42.462337647879565 -41.476551076187548 2.7955362640987715 0 -0.5877852598018023 0.80901698891910034 1 0 0 forward_v I I I I #
coedge $-1 $109 $110 $111 $112 reversed $43 $-1 #
face $-1 $-1 $113 $23 $-1 $114 forward single #
loop $-1 $115 $116 $45 #
cone-surface $-1 -42.462337647879565 -32.697187783195979 4.9021059836224445 0 0.5877852598018023 -0.80901698891910034 1 0 0 1 I I -0.70710678118654746 0.70710678118654746 1 forward I I I I #
loop $-1 $-1 $117 $29 #
coedge $-1 $73 $73 $118 $119 reversed $46 $-1 #
face $-1 $120 $121 $18 $-1 $122 reversed single #
loop $-1 $-1 $123 $48 #
plane-surface $-1 0 -41.476551076187548 0 0 1 0 0 0 1 forward_v I I I I #
coedge $-1 $124 $125 $126 $127 forward $49 $-1 #
coedge $-1 $128 $51 $129 $130 forward $31 $-1 #
coedge $-1 $51 $128 $131 $132 forward $31 $-1 #
coedge $-1 $133 $134 $51 $81 reversed $135 $-1 #
edge $-1 $136 -41.476551076187548 $137 41.476551076187548 $80 $138 forward 7 unknown #
face $-1 $139 $140 $19 $-1 $141 reversed single #
loop $-1 $-1 $142 $52 #
plane-surface $-1 -74.219709210084432 -38.298910141076313 0 1 0 0 0 0 -1 forward_v I I I I #
coedge $-1 $143 $144 $86 $145 forward $53 $-1 #
coedge $-1 $146 $55 $85 $145 reversed $34 $-1 #
coedge $-1 $55 $146 $147 $148 reversed $34 $-1 #
coedge $-1 $149 $150 $55 $89 reversed $140 $-1 #
edge $-1 $151 -12.600810896732437 $152 12.600810896732437 $88 $153 forward 7 unknown #
face $-1 $154 $155 $20 $-1 $156 forward single #
loop $-1 $-1 $157 $56 #
plane-surface $-1 -35.820308453717935 46.8541562334904 151.32541963301881 -1 0 0 0 0.5877852598018023 0.80901698891910034 forward_v I I I I #
coedge $-1 $158 $159 $160 $161 reversed $57 $-1 #
coedge $-1 $95 $59 $162 $163 reversed $37 $-1 #
coedge $-1 $59 $94 $158 $164 reversed $37 $-1 #
coedge $-1 $160 $165 $59 $97 forward $155 $-1 #
edge $-1 $166 -18.049472959442348 $167 -4.5536704932611372 $96 $168 forward 7 unknown #
loop $-1 $-1 $103 $60 #
plane-surface $-1 -42.462337647879565 -25.633917848625487 51.55414696409801 0 0.5877852598018023 0.80901698891910034 1 0 0 forward_v I I I I #
loop $-1 $-1 $169 $39 #
coedge $-1 $101 $101 $102 $170 reversed $61 $-1 #
coedge $-1 $102 $102 $101 $170 forward $63 $-1 #
coedge $-1 $103 $103 $64 $104 forward $98 $-1 #
edge $-1 $171 -7.8597299021971185e-016 $171 6.2831853071795996 $103 $172 forward 7 unknown #
face $-1 $173 $174 $22 $-1 $175 forward single #
loop $-1 $-1 $176 $65 #
plane-surface $-1 -49.104366842041195 -113.96462515830343 102.56680893301957 1 0 0 0 0.5877852598018023 -0.80901698891910034 forward_v I I I I #
coedge $-1 $177 $178 $179 $180 reversed $66 $-1 #
coedge $-1 $110 $68 $181 $182 reversed $43 $-1 #
coedge $-1 $68 $109 $177 $183 reversed $43 $-1 #
coedge $-1 $179 $184 $68 $112 forward $174 $-1 #
edge $-1 $185 15.50576150296417 $186 29.00156396914538 $111 $187 forward 7 unknown #
loop $-1 $-1 $118 $69 #
plane-surface $-1 -42.462337647879565 -41.476551076187548 2.7955362640987715 0 -0.5877852598018023 0.80901698891910034 1 0 0 forward_v I I I I #
loop $-1 $-1 $188 $45 #
coedge $-1 $116 $116 $117 $189 reversed $70 $-1 #
coedge $-1 $117 $117 $116 $189 forward $72 $-1 #
coedge $-1 $118 $118 $73 $119 forward $113 $-1 #
edge $-1 $190 1.3080311733935042e-015 $190 6.2831853071796013 $118 $191 forward 7 unknown #
face $-1 $192 $193 $18 $-1 $194 reversed single #
loop $-1 $-1 $195 $74 #
plane-surface $-1 -61.66203802606281 0 0 1 0 0 0 0 -1 forward_v I I I I #
coedge $-1 $196 $131 $197 $198 forward $75 $-1 #
coedge $-1 $199 $77 $196 $200 forward $49 $-1 #
coedge $-1 $77 $199 $201 $202 forward $49 $-1 #
coedge $-1 $134 $133 $77 $127 reversed $135 $-1 #
edge $-1 $203 -41.476551076187548 $204 41.476551076187548 $126 $205 forward 7 unknown #
coedge $-1 $79 $78 $206 $207 forward $31 $-1 #
coedge $-1 $208 $209 $78 $130 reversed $193 $-1 #
edge $-1 $137 -61.66203802606281 $210 61.66203802606281 $129 $211 forward 7 unknown #
coedge $-1 $123 $212 $79 $132 reversed $75 $-1 #
edge $-1 $213 -61.66203802606281 $136 61.66203802606281 $131 $214 forward 7 unknown #
coedge $-1 $126 $80 $212 $215 forward $135 $-1 #
coedge $-1 $80 $126 $208 $216 reversed $135 $-1 #
loop $-1 $-1 $133 $192 #
vertex $-1 $81 $217 #
vertex $-1 $81 $218 #
straight-curve $-1 61.66203802606281 0 12.600810896732437 0 1 0 I I #
face $-1 $219 $220 $19 $-1 $221 reversed single #
loop $-1 $-1 $88 $82 #
plane-surface $-1 -67.940873618073624 -35.121269205965078 0 0 -1 0 0 0 -1 forward_v I I I I #
coedge $-1 $222 $223 $224 $225 forward $83 $-1 #
coedge $-1 $226 $85 $150 $227 forward $53 $-1 #
coedge $-1 $85 $226 $228 $229 forward $53 $-1 #
edge $-1 $230 -41.476551076187548 $152 -35.121269205965078 $85 $231 forward 7 unknown #
coedge $-1 $87 $86 $232 $233 reversed $34 $-1 #
coedge $-1 $234 $235 $87 $148 forward $220 $-1 #
edge $-1 $151 35.121269205965078 $236 41.476551076187548 $147 $237 forward 7 unknown #
coedge $-1 $224 $88 $235 $238 reversed $140 $-1 #
coedge $-1 $88 $224 $143 $227 reversed $140 $-1 #
vertex $-1 $148 $239 #
vertex $-1 $227 $240 #
straight-curve $-1 -61.66203802606281 -35.121269205965078 0 0 0 1 I I #
face $-1 $-1 $241 $20 $-1 $242 reversed single #
loop $-1 $-1 $96 $90 #
plane-surface $-1 0 0 12.600810896732437 0 0 1 1 0 0 forward_v I I I I #
coedge $-1 $243 $244 $245 $246 reversed $91 $-1 #
coedge $-1 $247 $93 $95 $164 forward $57 $-1 #
coedge $-1 $93 $247 $243 $248 forward $57 $-1 #
coedge $-1 $245 $96 $93 $161 forward $155 $-1 #
edge $-1 $167 -27.873198018101412 $249 -14.589139629778153 $160 $250 forward 7 unknown #
coedge $-1 $251 $252 $94 $163 forward $241 $-1 #
edge $-1 $253 -72.867173552410634 $166 -63.061898919776965 $162 $254 forward 7 unknown #
edge $-1 $167 66.271372780767592 $253 82.953102152375081 $95 $255 forward 7 unknown #
coedge $-1 $96 $245 $251 $256 forward $155 $-1 #
vertex $-1 $163 $257 #
vertex $-1 $97 $258 #
straight-curve $-1 -49.104366842041195 23.4270781167452 12.60081089673244 0 -1 0 I I #
coedge $-1 $169 $169 $-1 $259 reversed $100 $-1 #
edge $-1 $260 0 $260 6.2831853071796004 $101 $261 forward 7 unknown #
vertex $-1 $104 $262 #
ellipse-curve $-1 -42.462337647879565 34.728649843096953 7.6981735804156068 0 0.5877852598018023 0.80901698891910034 2 0 0 1 I I #
face $-1 $-1 $263 $22 $-1 $264 reversed single #
loop $-1 $-1 $111 $105 #
plane-surface $-1 0 0 12.600810896732437 0 0 1 1 0 0 forward_v I I I I #
coedge $-1 $265 $266 $267 $268 reversed $106 $-1 #
coedge $-1 $269 $108 $110 $183 forward $66 $-1 #
coedge $-1 $108 $269 $265 $270 forward $66 $-1 #
coedge $-1 $267 $111 $108 $180 forward $174 $-1 #
edge $-1 $186 14.589139629778153 $271 27.873198018101412 $179 $272 forward 7 unknown #
coedge $-1 $273 $274 $109 $182 forward $263 $-1 #
edge $-1 $275 -48.487868202411015 $185 -38.682593569777353 $181 $276 forward 7 unknown #
edge $-1 $186 -16.681729371607492 $275 0 $110 $277 forward 7 unknown #
coedge $-1 $111 $267 $273 $278 forward $174 $-1 #
vertex $-1 $112 $279 #
vertex $-1 $112 $280 #
straight-curve $-1 -35.820308453717935 -56.982312579151717 12.600810896732433 0 1 0 I I #
coedge $-1 $188 $188 $-1 $281 reversed $115 $-1 #
edge $-1 $282 0 $282 6.2831853071796004 $116 $283 forward 7 unknown #
vertex $-1 $119 $284 #
ellipse-curve $-1 -42.462337647879565 -34.728649843096946 7.6981735804156051 0 -0.5877852598018023 0.80901698891910034 2 0 0 1 I I #
face $-1 $-1 $135 $18 $-1 $285 reversed single #
loop $-1 $-1 $208 $120 #
plane-surface $-1 0 41.476551076187548 0 0 -1 0 0 0 -1 forward_v I I I I #
coedge $-1 $286 $206 $209 $287 forward $121 $-1 #
coedge $-1 $212 $123 $124 $200 reversed $75 $-1 #
coedge $-1 $206 $286 $123 $198 reversed $121 $-1 #
edge $-1 $213 -12.600810896732437 $288 12.600810896732437 $197 $289 forward 7 unknown #
coedge $-1 $125 $124 $286 $290 forward $49 $-1 #
edge $-1 $204 -61.66203802606281 $288 61.66203802606281 $196 $291 forward 7 unknown #
coedge $-1 $209 $208 $125 $202 reversed $193 $-1 #
edge $-1 $292 -61.66203802606281 $203 61.66203802606281 $201 $293 forward 7 unknown #
vertex $-1 $127 $294 #
vertex $-1 $215 $295 #
straight-curve $-1 61.66203802606281 0 -12.600810896732437 0 -1 0 I I #
coedge $-1 $195 $197 $128 $207 reversed $121 $-1 #
edge $-1 $210 -41.476551076187548 $213 41.476551076187548 $206 $296 forward 7 unknown #
coedge $-1 $201 $129 $134 $216 forward $193 $-1 #
coedge $-1 $129 $201 $195 $287 reversed $193 $-1 #
vertex $-1 $130 $297 #
straight-curve $-1 0 41.476551076187548 12.600810896732437 -1 0 0 I I #
coedge $-1 $131 $196 $133 $215 reversed $75 $-1 #
vertex $-1 $207 $298 #
straight-curve $-1 0 -41.476551076187548 12.600810896732437 1 0 0 I I #
edge $-1 $136 -12.600810896732437 $204 12.600810896732437 $133 $299 forward 7 unknown #
edge $-1 $137 -12.600810896732437 $203 12.600810896732437 $134 $300 forward 7 unknown #
point $-1 61.66203802606281 -41.476551076187548 12.600810896732437 #
point $-1 61.66203802606281 41.476551076187548 12.600810896732437 #
face $-1 $-1 $301 $19 $-1 $302 reversed single #
loop $-1 $-1 $147 $139 #
plane-surface $-1 0 0 -12.600810896732437 0 0 1 1 0 0 forward_v I I I I #
coedge $-1 $303 $142 $304 $305 reversed $83 $-1 #
coedge $-1 $142 $303 $226 $306 reversed $83 $-1 #
coedge $-1 $150 $149 $142 $225 reversed $140 $-1 #
edge $-1 $307 -12.600810896732437 $308 12.600810896732437 $224 $309 forward 7 unknown #
coedge $-1 $144 $143 $223 $306 forward $53 $-1 #
edge $-1 $152 -6.2788355920108074 $307 6.2788355920108074 $150 $310 forward 7 unknown #
coedge $-1 $311 $232 $144 $229 reversed $301 $-1 #
edge $-1 $312 -74.219709210084432 $230 -61.66203802606281 $228 $313 forward 7 unknown #
vertex $-1 $233 $314 #
straight-curve $-1 -61.66203802606281 0 12.600810896732437 0 1 0 I I #
coedge $-1 $228 $315 $146 $233 forward $301 $-1 #
edge $-1 $236 -12.600810896732437 $230 12.600810896732437 $232 $316 forward 7 unknown #
coedge $-1 $304 $147 $315 $317 forward $220 $-1 #
coedge $-1 $147 $304 $149 $238 forward $220 $-1 #
vertex $-1 $317 $318 #
straight-curve $-1 -61.66203802606281 0 -12.600810896732437 0 -1 0 I I #
edge $-1 $308 -6.2788355920108074 $151 6.2788355920108074 $149 $319 forward 7 unknown #
point $-1 -61.662038026062817 -35.121269205965078 -12.600810896732437 #
point $-1 -61.662038026062817 -35.121269205965078 12.600810896732437 #
loop $-1 $-1 $162 $154 #
plane-surface $-1 0 41.476551076187548 0 0 -1 0 0 0 -1 forward_v I I I I #
coedge $-1 $244 $157 $159 $248 reversed $91 $-1 #
coedge $-1 $157 $243 $320 $321 reversed $91 $-1 #
coedge $-1 $165 $160 $157 $246 forward $155 $-1 #
edge $-1 $249 4.5536704932611372 $322 18.049472959442348 $245 $323 forward 7 unknown #
coedge $-1 $159 $158 $252 $324 reversed $57 $-1 #
edge $-1 $325 -82.953102152375081 $249 -66.271372780767592 $243 $326 forward 7 unknown #
vertex $-1 $161 $327 #
straight-curve $-1 -21.231168823939782 27.980748610006351 12.600810896732437 1 0 0 I I #
coedge $-1 $320 $162 $165 $256 reversed $241 $-1 #
coedge $-1 $162 $320 $247 $324 forward $241 $-1 #
vertex $-1 $163 $328 #
straight-curve $-1 -49.104366842041195 41.476551076187548 75.662709816509405 0 0 1 I I #
straight-curve $-1 -49.104366842041195 -25.633917848625487 51.55414696409801 0 0.80901698891910034 -0.5877852598018023 I I #
edge $-1 $322 35.820308453717935 $166 49.104366842041195 $251 $329 forward 7 unknown #
point $-1 -49.104366842041195 41.476551076187548 12.600810896732437 #
point $-1 -49.104366842041195 27.980748610006337 12.60081089673244 #
edge $-1 $330 1 $330 0 $169 $-1 forward 7 unknown #
vertex $-1 $170 $331 #
ellipse-curve $-1 -42.462337647879565 33.284973042997791 5.7111229725415447 0 0.5877852598018023 0.80901698891910034 2 0 0 1 I I #
point $-1 -40.462337647879565 34.728649843096946 7.6981735804155997 #
loop $-1 $-1 $181 $173 #
plane-surface $-1 0 -41.476551076187548 0 0 1 0 0 0 1 forward_v I I I I #
coedge $-1 $266 $176 $178 $270 reversed $106 $-1 #
coedge $-1 $176 $265 $332 $333 reversed $106 $-1 #
coedge $-1 $184 $179 $176 $268 forward $174 $-1 #
edge $-1 $271 -29.00156396914538 $334 -15.50576150296417 $267 $335 forward 7 unknown #
coedge $-1 $178 $177 $274 $336 reversed $66 $-1 #
edge $-1 $337 0 $271 16.681729371607492 $265 $338 forward 7 unknown #
vertex $-1 $180 $339 #
straight-curve $-1 -21.231168823939782 -27.980748610006334 12.600810896732437 -1 0 0 I I #
coedge $-1 $332 $181 $184 $278 reversed $263 $-1 #
coedge $-1 $181 $332 $269 $336 forward $263 $-1 #
vertex $-1 $182 $340 #
straight-curve $-1 -35.820308453717935 -41.476551076187548 51.283404466509786 0 0 1 I I #
straight-curve $-1 -35.820308453717935 -41.476551076187548 2.7955362640987715 0 -0.80901698891910034 -0.5877852598018023 I I #
edge $-1 $334 -49.104366842041195 $185 -35.820308453717935 $273 $341 forward 7 unknown #
point $-1 -35.820308453717935 -41.476551076187548 12.600810896732437 #
point $-1 -35.820308453717935 -27.980748610006337 12.600810896732437 #
edge $-1 $342 1 $342 0 $188 $-1 forward 7 unknown #
vertex $-1 $189 $343 #
ellipse-curve $-1 -42.462337647879565 -33.284973042997784 5.7111229725415447 0 -0.5877852598018023 0.80901698891910034 2 0 0 1 I I #
point $-1 -40.462337647879565 -34.728649843096939 7.6981735804155997 #
plane-surface $-1 61.66203802606281 0 0 -1 0 0 0 0 1 forward_v I I I I #
coedge $-1 $197 $195 $199 $290 reversed $121 $-1 #
edge $-1 $210 -12.600810896732437 $292 12.600810896732437 $209 $344 forward 7 unknown #
vertex $-1 $290 $345 #
straight-curve $-1 -61.66203802606281 -41.476551076187548 0 0 0 -1 I I #
edge $-1 $288 -41.476551076187548 $292 41.476551076187548 $286 $346 forward 7 unknown #
straight-curve $-1 0 -41.476551076187548 -12.600810896732437 -1 0 0 I I #
vertex $-1 $202 $347 #
straight-curve $-1 0 41.476551076187548 -12.600810896732437 1 0 0 I I #
point $-1 61.66203802606281 41.476551076187548 -12.600810896732437 #
point $-1 61.66203802606281 -41.476551076187548 -12.600810896732437 #
straight-curve $-1 -61.66203802606281 0 12.600810896732437 0 -1 0 I I #
point $-1 -61.66203802606281 41.476551076187548 12.600810896732437 #
point $-1 -61.66203802606281 -41.476551076187548 12.600810896732437 #
straight-curve $-1 61.66203802606281 -41.476551076187548 0 0 0 -1 I I #
straight-curve $-1 61.66203802606281 41.476551076187548 0 0 0 -1 I I #
loop $-1 $-1 $232 $219 #
plane-surface $-1 0 -41.476551076187548 0 0 1 0 0 0 1 forward_v I I I I #
coedge $-1 $223 $222 $311 $348 reversed $83 $-1 #
coedge $-1 $235 $234 $222 $305 forward $220 $-1 #
edge $-1 $349 -3.1776409351112349 $308 3.1776409351112349 $222 $350 forward 7 unknown #
edge $-1 $307 -3.1776409351112349 $312 3.1776409351112349 $223 $351 forward 7 unknown #
vertex $-1 $227 $352 #
vertex $-1 $238 $353 #
straight-curve $-1 -74.219709210084432 -35.121269205965078 0 0 0 -1 I I #
straight-curve $-1 -67.940873618073624 -35.121269205965078 12.600810896732437 -1 0 0 I I #
coedge $-1 $315 $228 $303 $348 forward $301 $-1 #
vertex $-1 $306 $354 #
straight-curve $-1 0 -41.476551076187548 12.600810896732437 1 0 0 I I #
point $-1 -61.66203802606281 -41.476551076187548 12.600810896732437 #
coedge $-1 $232 $311 $234 $317 reversed $301 $-1 #
straight-curve $-1 -61.66203802606281 -41.476551076187548 0 0 0 1 I I #
edge $-1 $236 -6.2788355920108145 $349 6.2788355920108074 $315 $355 forward 7 unknown #
point $-1 -61.66203802606281 -41.476551076187548 -12.600810896732437 #
straight-curve $-1 -67.940873618073624 -35.121269205965078 -12.600810896732437 1 0 0 I I #
coedge $-1 $252 $251 $244 $321 forward $241 $-1 #
edge $-1 $322 63.061898919776965 $325 72.867173552410634 $320 $356 forward 7 unknown #
vertex $-1 $256 $357 #
straight-curve $-1 -35.820308453717935 23.4270781167452 12.60081089673244 0 1 0 I I #
edge $-1 $325 14.589139629778153 $253 27.873198018101412 $252 $358 forward 7 unknown #
vertex $-1 $324 $359 #
straight-curve $-1 -35.820308453717935 -25.633917848625487 51.55414696409801 0 -0.80901698891910034 0.5877852598018023 I I #
point $-1 -35.820308453717935 27.980748610006337 12.60081089673244 #
point $-1 -49.104366842041195 41.476551076187548 2.7955362640987786 #
straight-curve $-1 0 41.476551076187548 12.600810896732437 -1 0 0 I I #
vertex $-1 $259 $360 #
point $-1 -40.462337647879565 33.284973042997791 5.7111229725415447 #
coedge $-1 $274 $273 $266 $333 forward $263 $-1 #
edge $-1 $334 38.682593569777353 $337 48.487868202411015 $332 $361 forward 7 unknown #
vertex $-1 $278 $362 #
straight-curve $-1 -49.104366842041195 -56.982312579151717 12.600810896732433 0 -1 0 I I #
edge $-1 $337 -27.873198018101412 $275 -14.589139629778153 $274 $363 forward 7 unknown #
vertex $-1 $336 $364 #
straight-curve $-1 -49.104366842041195 -41.476551076187548 2.7955362640987715 0 0.80901698891910034 0.5877852598018023 I I #
point $-1 -49.104366842041195 -27.980748610006337 12.600810896732437 #
point $-1 -35.820308453717935 -41.476551076187548 2.7955362640987715 #
straight-curve $-1 0 -41.476551076187548 12.600810896732437 1 0 0 I I #
vertex $-1 $281 $365 #
point $-1 -40.462337647879565 -33.284973042997784 5.7111229725415447 #
straight-curve $-1 -61.66203802606281 41.476551076187548 0 0 0 -1 I I #
point $-1 -61.66203802606281 -41.476551076187548 -12.600810896732437 #
straight-curve $-1 -61.66203802606281 0 -12.600810896732437 0 1 0 I I #
point $-1 -61.66203802606281 41.476551076187548 -12.600810896732437 #
edge $-1 $312 -12.600810896732437 $349 12.600810896732437 $303 $366 forward 7 unknown #
vertex $-1 $305 $367 #
straight-curve $-1 -74.219709210084432 -38.298910141076313 -12.600810896732437 0 1 0 I I #
straight-curve $-1 -74.219709210084432 -38.298910141076313 12.600810896732437 0 -1 0 I I #
point $-1 -74.219709210084432 -35.121269205965078 12.600810896732437 #
point $-1 -74.219709210084432 -35.121269205965078 -12.600810896732437 #
point $-1 -74.219709210084432 -41.476551076187548 12.600810896732437 #
straight-curve $-1 -67.940873618073624 -41.476551076187548 -12.600810896732437 -1 0 0 I I #
straight-curve $-1 -35.820308453717935 41.476551076187548 75.662709816509405 0 0 -1 I I #
point $-1 -35.820308453717935 41.476551076187548 12.600810896732437 #
straight-curve $-1 -21.231168823939782 41.476551076187548 2.7955362640987751 -1 0 0 I I #
point $-1 -35.820308453717935 41.476551076187548 2.7955362640987786 #
point $-1 -42.462337647879565 32.109402523394181 4.0930889947033444 #
straight-curve $-1 -49.104366842041195 -41.476551076187548 51.283404466509786 0 0 -1 I I #
point $-1 -49.104366842041195 -41.476551076187548 12.600810896732437 #
straight-curve $-1 -21.231168823939782 -41.476551076187548 2.7955362640987733 1 0 0 I I #
point $-1 -49.104366842041195 -41.476551076187548 2.7955362640987715 #
point $-1 -42.462337647879565 -32.109402523394174 4.0930889947033444 #
straight-curve $-1 -74.219709210084432 -41.476551076187548 0 0 0 -1 I I #
point $-1 -74.219709210084432 -41.476551076187548 -12.600810896732437 #
End-of-ACIS-data 