500 0 10 0           
7 Unknown 11 ACIS 5.0 NT 24 Thu Mar 25 22:39:29 1999 
-1 9.9999999999999995e-007 1e-010 
body $-1 $10 $-1 $11 #
body $-1 $12 $-1 $13 #
body $-1 $14 $-1 $15 #
body $-1 $16 $-1 $17 #
body $-1 $18 $-1 $19 #
body $-1 $20 $-1 $21 #
body $-1 $22 $-1 $23 #
body $-1 $24 $-1 $25 #
body $-1 $26 $-1 $27 #
body $-1 $28 $-1 $29 #
lump $-1 $-1 $30 $0 #
transform $-1 1 0 0 0 1 0 0 0 1 46.3502914517655 27.500107306551502 12.701395427636049 1 rotate no_reflect no_shear #
lump $-1 $-1 $31 $1 #
transform $-1 1 0 0 0 1 0 0 0 1 46.3502914517655 27.500107306551502 12.701395427636049 1 rotate no_reflect no_shear #
lump $-1 $-1 $32 $2 #
transform $-1 1 0 0 0 1 0 0 0 1 46.3502914517655 27.500107306551502 12.701395427636049 1 rotate no_reflect no_shear #
lump $-1 $-1 $33 $3 #
transform $-1 1 0 0 0 1 0 0 0 1 46.3502914517655 27.500107306551502 12.701395427636049 1 rotate no_reflect no_shear #
lump $-1 $-1 $34 $4 #
transform $-1 1 0 0 0 1 0 0 0 1 46.3502914517655 27.500107306551502 12.701395427636049 1 rotate no_reflect no_shear #
lump $-1 $-1 $35 $5 #
transform $-1 1 0 0 0 1 0 0 0 1 46.3502914517655 27.500107306551502 12.701395427636049 1 rotate no_reflect no_shear #
lump $-1 $-1 $36 $6 #
transform $-1 1 0 0 0 1 0 0 0 1 46.3502914517655 27.500107306551502 12.701395427636049 1 rotate no_reflect no_shear #
lump $-1 $-1 $37 $7 #
transform $-1 1 0 0 0 1 0 0 0 1 46.3502914517655 27.500107306551502 12.701395427636049 1 rotate no_reflect no_shear #
lump $-1 $-1 $38 $8 #
transform $-1 1 0 0 0 1 0 0 0 1 46.3502914517655 27.500107306551502 12.701395427636049 1 rotate no_reflect no_shear #
lump $-1 $-1 $39 $9 #
transform $-1 1 0 0 0 1 0 0 0 1 46.3502914517655 27.500107306551502 12.701395427636049 1 rotate no_reflect no_shear #
shell $-1 $-1 $-1 $40 $-1 $10 #
shell $-1 $-1 $-1 $41 $-1 $12 #
shell $-1 $-1 $-1 $42 $-1 $14 #
shell $-1 $-1 $-1 $43 $-1 $16 #
shell $-1 $-1 $-1 $44 $-1 $18 #
shell $-1 $-1 $-1 $45 $-1 $20 #
shell $-1 $-1 $-1 $46 $-1 $22 #
shell $-1 $-1 $-1 $47 $-1 $24 #
shell $-1 $-1 $-1 $48 $-1 $26 #
shell $-1 $-1 $-1 $49 $-1 $28 #
face $-1 $50 $51 $30 $-1 $52 forward single #
face $-1 $53 $54 $31 $-1 $55 forward single #
face $-1 $56 $57 $32 $-1 $58 reversed single #
face $-1 $59 $60 $33 $-1 $61 forward single #
face $-1 $62 $63 $34 $-1 $64 reversed single #
face $-1 $65 $66 $35 $-1 $67 forward single #
face $-1 $68 $69 $36 $-1 $70 reversed single #
face $-1 $71 $72 $37 $-1 $73 forward single #
face $-1 $74 $75 $38 $-1 $76 reversed single #
face $-1 $77 $78 $39 $-1 $79 forward single #
face $-1 $80 $81 $30 $-1 $82 reversed single #
loop $-1 $-1 $83 $40 #
plane-surface $-1 0 0 12.701395427636049 0 0 1 1 0 0 forward_v I I I I #
face $-1 $84 $85 $31 $-1 $86 reversed single #
loop $-1 $-1 $87 $41 #
plane-surface $-1 -46.3502914517655 0 0 1 0 0 0 0 -1 forward_v I I I I #
face $-1 $88 $89 $32 $-1 $90 reversed single #
loop $-1 $-1 $91 $42 #
plane-surface $-1 -18.015781706178615 39.363587324646716 107.84302537367037 1 0 0 0 -0.6018150307709319 -0.79863550430605224 forward_v I I I I #
face $-1 $92 $93 $33 $-1 $94 forward single #
loop $-1 $95 $96 $43 #
cone-surface $-1 -10.277312726259638 18.163438235133349 4.8745756488186833 0 -0.6018150307709319 -0.79863550430605224 2.5 0 0 1 I I 0 1 2.5 forward I I I I #
face $-1 $97 $98 $34 $-1 $99 reversed single #
loop $-1 $-1 $100 $44 #
plane-surface $-1 14.639803933722535 39.363587324646716 107.84302537367037 1 0 0 0 -0.6018150307709319 -0.79863550430605224 forward_v I I I I #
face $-1 $101 $102 $35 $-1 $103 forward single #
loop $-1 $104 $105 $45 #
cone-surface $-1 22.37827291364151 18.163438235133349 4.8745756488186833 0 -0.6018150307709319 -0.79863550430605224 2.5 0 0 1 I I 0 1 2.5 forward I I I I #
face $-1 $106 $107 $36 $-1 $108 reversed single #
loop $-1 $-1 $109 $46 #
plane-surface $-1 -2.5388437463406621 -83.28871145912332 74.743069523877935 -1 0 0 0 -0.6018150307709319 0.79863550430605224 forward_v I I I I #
face $-1 $110 $111 $37 $-1 $112 forward single #
loop $-1 $113 $114 $47 #
cone-surface $-1 -10.277312726259638 -18.163438235133338 4.8745756488186851 0 0.6018150307709319 -0.79863550430605224 2.5 0 0 1 I I 0 1 2.5 forward I I I I #
face $-1 $115 $116 $38 $-1 $117 reversed single #
loop $-1 $-1 $118 $48 #
plane-surface $-1 30.116741893560487 -83.28871145912332 74.743069523877935 -1 0 0 0 -0.6018150307709319 0.79863550430605224 forward_v I I I I #
face $-1 $119 $120 $39 $-1 $121 forward single #
loop $-1 $122 $123 $49 #
cone-surface $-1 22.37827291364151 -18.163438235133338 4.8745756488186851 0 0.6018150307709319 -0.79863550430605224 2.5 0 0 1 I I 0 1 2.5 forward I I I I #
face $-1 $124 $125 $30 $-1 $126 reversed single #
loop $-1 $-1 $127 $50 #
plane-surface $-1 0 0 -12.701395427636049 0 0 1 1 0 0 forward_v I I I I #
coedge $-1 $128 $129 $130 $131 forward $51 $-1 #
face $-1 $132 $133 $31 $-1 $134 forward single #
loop $-1 $-1 $135 $53 #
plane-surface $-1 0 27.500107306551502 0 0 -1 0 0 0 -1 forward_v I I I I #
coedge $-1 $136 $137 $138 $139 forward $54 $-1 #
face $-1 $140 $141 $32 $-1 $142 reversed single #
loop $-1 $-1 $143 $56 #
plane-surface $-1 -10.277312726259638 -16.42501682792512 33.809048597043883 0 0.6018150307709319 0.79863550430605224 1 0 0 forward_v I I I I #
coedge $-1 $144 $145 $146 $147 reversed $57 $-1 #
face $-1 $-1 $148 $33 $-1 $149 forward single #
loop $-1 $150 $151 $59 #
cone-surface $-1 -10.277312726259638 16.031661802967033 2.0456128298110503 0 -0.6018150307709319 -0.79863550430605224 1.25 0 0 1 I I -0.70710678118654746 0.70710678118654746 1.25 forward I I I I #
loop $-1 $-1 $152 $43 #
coedge $-1 $96 $96 $153 $154 reversed $60 $-1 #
face $-1 $155 $156 $34 $-1 $157 reversed single #
loop $-1 $-1 $158 $62 #
plane-surface $-1 22.37827291364151 -16.42501682792512 33.809048597043883 0 0.6018150307709319 0.79863550430605224 1 0 0 forward_v I I I I #
coedge $-1 $159 $160 $161 $162 reversed $63 $-1 #
face $-1 $-1 $163 $35 $-1 $164 forward single #
loop $-1 $165 $166 $65 #
cone-surface $-1 22.37827291364151 16.031661802967033 2.0456128298110503 0 -0.6018150307709319 -0.79863550430605224 1.25 0 0 1 I I -0.70710678118654746 0.70710678118654746 1.25 forward I I I I #
loop $-1 $-1 $167 $45 #
coedge $-1 $105 $105 $168 $169 reversed $66 $-1 #
face $-1 $170 $171 $36 $-1 $172 reversed single #
loop $-1 $-1 $173 $68 #
plane-surface $-1 -10.277312726259638 -27.500107306551484 0.70909274725144655 0 -0.6018150307709319 0.79863550430605224 1 0 0 forward_v I I I I #
coedge $-1 $174 $175 $176 $177 reversed $69 $-1 #
face $-1 $-1 $178 $37 $-1 $179 forward single #
loop $-1 $180 $181 $71 #
cone-surface $-1 -10.277312726259638 -16.031661802967022 2.0456128298110521 0 0.6018150307709319 -0.79863550430605224 1.25 0 0 1 I I -0.70710678118654746 0.70710678118654746 1.25 forward I I I I #
loop $-1 $-1 $182 $47 #
coedge $-1 $114 $114 $183 $184 reversed $72 $-1 #
face $-1 $185 $186 $38 $-1 $187 reversed single #
loop $-1 $-1 $188 $74 #
plane-surface $-1 22.37827291364151 -27.500107306551484 0.70909274725144655 0 -0.6018150307709319 0.79863550430605224 1 0 0 forward_v I I I I #
coedge $-1 $189 $190 $191 $192 reversed $75 $-1 #
face $-1 $-1 $193 $39 $-1 $194 forward single #
loop $-1 $195 $196 $77 #
cone-surface $-1 22.37827291364151 -16.031661802967022 2.0456128298110521 0 0.6018150307709319 -0.79863550430605224 1.25 0 0 1 I I -0.70710678118654746 0.70710678118654746 1.25 forward I I I I #
loop $-1 $-1 $197 $49 #
coedge $-1 $123 $123 $198 $199 reversed $78 $-1 #
face $-1 $200 $201 $30 $-1 $202 reversed single #
loop $-1 $-1 $203 $80 #
plane-surface $-1 0 -27.500107306551502 0 0 1 0 0 0 1 forward_v I I I I #
coedge $-1 $204 $205 $206 $207 forward $81 $-1 #
coedge $-1 $208 $83 $209 $210 forward $51 $-1 #
coedge $-1 $83 $208 $211 $212 forward $51 $-1 #
coedge $-1 $213 $214 $83 $131 reversed $215 $-1 #
edge $-1 $216 -27.500107306551502 $217 27.500107306551502 $130 $218 forward 7 unknown #
face $-1 $219 $220 $31 $-1 $221 reversed single #
loop $-1 $-1 $138 $84 #
plane-surface $-1 -52.400771545456443 0 12.201395427636049 0 0 1 1 0 0 forward_v I I I I #
coedge $-1 $222 $223 $137 $224 forward $85 $-1 #
coedge $-1 $225 $87 $226 $227 reversed $54 $-1 #
coedge $-1 $87 $225 $135 $224 reversed $54 $-1 #
coedge $-1 $228 $229 $87 $139 reversed $133 $-1 #
edge $-1 $230 -27.500107306551502 $231 27.500107306551502 $138 $232 forward 7 unknown #
face $-1 $233 $234 $32 $-1 $235 forward single #
loop $-1 $-1 $236 $88 #
plane-surface $-1 -2.5388437463406621 39.363587324646716 107.84302537367037 -1 0 0 0 0.6018150307709319 0.79863550430605224 forward_v I I I I #
coedge $-1 $237 $238 $239 $240 reversed $89 $-1 #
coedge $-1 $145 $91 $241 $242 reversed $57 $-1 #
coedge $-1 $91 $144 $237 $243 reversed $57 $-1 #
coedge $-1 $239 $244 $91 $147 forward $234 $-1 #
edge $-1 $245 -7.8183136442281445 $246 8.0960092112029152 $146 $247 forward 7 unknown #
loop $-1 $-1 $153 $92 #
plane-surface $-1 -10.277312726259638 -16.42501682792512 33.809048597043883 0 0.6018150307709319 0.79863550430605224 1 0 0 forward_v I I I I #
loop $-1 $-1 $248 $59 #
coedge $-1 $151 $151 $152 $249 reversed $93 $-1 #
coedge $-1 $152 $152 $151 $249 forward $95 $-1 #
coedge $-1 $153 $153 $96 $154 forward $148 $-1 #
edge $-1 $250 -2.2994209964836043e-016 $250 6.2831853071796004 $153 $251 forward 7 unknown #
face $-1 $252 $253 $34 $-1 $254 forward single #
loop $-1 $-1 $255 $97 #
plane-surface $-1 30.116741893560487 39.363587324646716 107.84302537367037 -1 0 0 0 0.6018150307709319 0.79863550430605224 forward_v I I I I #
coedge $-1 $256 $257 $258 $259 reversed $98 $-1 #
coedge $-1 $160 $100 $260 $261 reversed $63 $-1 #
coedge $-1 $100 $159 $256 $262 reversed $63 $-1 #
coedge $-1 $258 $263 $100 $162 forward $253 $-1 #
edge $-1 $264 -7.8183136442281445 $265 8.0960092112029152 $161 $266 forward 7 unknown #
loop $-1 $-1 $168 $101 #
plane-surface $-1 22.37827291364151 -16.42501682792512 33.809048597043883 0 0.6018150307709319 0.79863550430605224 1 0 0 forward_v I I I I #
loop $-1 $-1 $267 $65 #
coedge $-1 $166 $166 $167 $268 reversed $102 $-1 #
coedge $-1 $167 $167 $166 $268 forward $104 $-1 #
coedge $-1 $168 $168 $105 $169 forward $163 $-1 #
edge $-1 $269 -2.2994209964836043e-016 $269 6.2831853071796004 $168 $270 forward 7 unknown #
face $-1 $271 $272 $36 $-1 $273 reversed single #
loop $-1 $-1 $274 $106 #
plane-surface $-1 -18.015781706178615 -83.28871145912332 74.743069523877935 1 0 0 0 0.6018150307709319 -0.79863550430605224 forward_v I I I I #
coedge $-1 $275 $276 $277 $278 reversed $107 $-1 #
coedge $-1 $175 $109 $279 $280 reversed $69 $-1 #
coedge $-1 $109 $174 $275 $281 reversed $69 $-1 #
coedge $-1 $277 $282 $109 $177 forward $283 $-1 #
edge $-1 $284 14.144248423010158 $285 30.058571278441221 $176 $286 forward 7 unknown #
loop $-1 $-1 $183 $110 #
plane-surface $-1 -10.277312726259638 -27.500107306551484 0.70909274725144655 0 -0.6018150307709319 0.79863550430605224 1 0 0 forward_v I I I I #
loop $-1 $-1 $287 $71 #
coedge $-1 $181 $181 $182 $288 reversed $111 $-1 #
coedge $-1 $182 $182 $181 $288 forward $113 $-1 #
coedge $-1 $183 $183 $114 $184 forward $178 $-1 #
edge $-1 $289 1.6134450455596807e-017 $289 6.2831853071796004 $183 $290 forward 7 unknown #
face $-1 $291 $292 $38 $-1 $293 reversed single #
loop $-1 $-1 $294 $115 #
plane-surface $-1 14.639803933722535 -83.28871145912332 74.743069523877935 1 0 0 0 0.6018150307709319 -0.79863550430605224 forward_v I I I I #
coedge $-1 $295 $296 $297 $298 reversed $116 $-1 #
coedge $-1 $190 $118 $299 $300 reversed $75 $-1 #
coedge $-1 $118 $189 $295 $301 reversed $75 $-1 #
coedge $-1 $297 $302 $118 $192 forward $303 $-1 #
edge $-1 $304 14.144248423010158 $305 30.058571278441221 $191 $306 forward 7 unknown #
loop $-1 $-1 $198 $119 #
plane-surface $-1 22.37827291364151 -27.500107306551484 0.70909274725144655 0 -0.6018150307709319 0.79863550430605224 1 0 0 forward_v I I I I #
loop $-1 $-1 $307 $77 #
coedge $-1 $196 $196 $197 $308 reversed $120 $-1 #
coedge $-1 $197 $197 $196 $308 forward $122 $-1 #
coedge $-1 $198 $198 $123 $199 forward $193 $-1 #
edge $-1 $309 1.6134450455596807e-017 $309 6.2831853071796004 $198 $310 forward 7 unknown #
face $-1 $311 $312 $30 $-1 $313 reversed single #
loop $-1 $-1 $314 $124 #
plane-surface $-1 -46.3502914517655 0 0 1 0 0 0 0 -1 forward_v I I I I #
coedge $-1 $315 $211 $316 $317 forward $125 $-1 #
coedge $-1 $318 $127 $315 $319 forward $81 $-1 #
coedge $-1 $127 $318 $320 $321 forward $81 $-1 #
coedge $-1 $214 $213 $127 $207 reversed $215 $-1 #
edge $-1 $322 -27.500107306551502 $323 27.500107306551502 $206 $324 forward 7 unknown #
coedge $-1 $129 $128 $325 $326 forward $51 $-1 #
coedge $-1 $327 $328 $128 $210 reversed $312 $-1 #
edge $-1 $217 -46.3502914517655 $329 46.3502914517655 $209 $330 forward 7 unknown #
coedge $-1 $203 $331 $129 $212 reversed $125 $-1 #
edge $-1 $332 -46.3502914517655 $216 46.3502914517655 $211 $333 forward 7 unknown #
coedge $-1 $206 $130 $331 $334 forward $215 $-1 #
coedge $-1 $130 $206 $327 $335 reversed $215 $-1 #
loop $-1 $-1 $213 $311 #
vertex $-1 $131 $336 #
vertex $-1 $131 $337 #
straight-curve $-1 46.3502914517655 0 12.701395427636049 0 1 0 I I #
face $-1 $338 $339 $31 $-1 $340 reversed single #
loop $-1 $-1 $341 $132 #
plane-surface $-1 -52.400771545456443 0 7.6020382296297395 0 0 1 1 0 0 forward_v I I I I #
coedge $-1 $342 $135 $343 $344 reversed $85 $-1 #
coedge $-1 $135 $342 $228 $345 reversed $85 $-1 #
edge $-1 $230 -12.201395427636049 $346 -7.6020382296297395 $135 $347 forward 7 unknown #
coedge $-1 $137 $136 $341 $348 forward $54 $-1 #
coedge $-1 $349 $350 $136 $227 forward $351 $-1 #
edge $-1 $352 7.6020382296297395 $231 12.201395427636049 $226 $353 forward 7 unknown #
coedge $-1 $354 $138 $223 $345 forward $133 $-1 #
coedge $-1 $138 $354 $349 $355 forward $133 $-1 #
vertex $-1 $224 $356 #
vertex $-1 $355 $357 #
straight-curve $-1 -46.3502914517655 0 12.201395427636049 0 -1 0 I I #
face $-1 $-1 $358 $32 $-1 $359 reversed single #
loop $-1 $-1 $146 $140 #
plane-surface $-1 0 0 12.701395427636049 0 0 1 1 0 0 forward_v I I I I #
coedge $-1 $360 $361 $362 $363 reversed $141 $-1 #
coedge $-1 $364 $143 $145 $243 forward $89 $-1 #
coedge $-1 $143 $364 $360 $365 forward $89 $-1 #
coedge $-1 $362 $146 $143 $240 forward $234 $-1 #
edge $-1 $246 -12.877125343048796 $366 2.5998126167891566 $239 $367 forward 7 unknown #
coedge $-1 $368 $369 $144 $242 forward $358 $-1 #
edge $-1 $370 -53.212419939583739 $245 -41.220117259199135 $241 $371 forward 7 unknown #
edge $-1 $246 35.073323347156496 $370 55.000214613103005 $145 $372 forward 7 unknown #
coedge $-1 $146 $362 $368 $373 forward $234 $-1 #
vertex $-1 $242 $374 #
vertex $-1 $147 $375 #
straight-curve $-1 -18.015781706178615 19.681793662323358 12.701395427636051 0 -1 0 I I #
coedge $-1 $248 $248 $-1 $376 reversed $150 $-1 #
edge $-1 $377 0 $377 6.2831853071796004 $151 $378 forward 7 unknown #
vertex $-1 $154 $379 #
ellipse-curve $-1 -10.277312726259638 19.542945878835987 6.7052440874437353 0 0.6018150307709319 0.79863550430605224 2.5 0 0 1 I I #
face $-1 $-1 $380 $34 $-1 $381 reversed single #
loop $-1 $-1 $161 $155 #
plane-surface $-1 0 0 12.701395427636049 0 0 1 1 0 0 forward_v I I I I #
coedge $-1 $382 $383 $384 $385 reversed $156 $-1 #
coedge $-1 $386 $158 $160 $262 forward $98 $-1 #
coedge $-1 $158 $386 $382 $387 forward $98 $-1 #
coedge $-1 $384 $161 $158 $259 forward $253 $-1 #
edge $-1 $265 3.4506674769017796 $388 18.927605436739732 $258 $389 forward 7 unknown #
coedge $-1 $390 $391 $159 $261 forward $380 $-1 #
edge $-1 $392 -53.212419939583739 $264 -41.220117259199135 $260 $393 forward 7 unknown #
edge $-1 $265 35.073323347156496 $392 55.000214613103005 $160 $394 forward 7 unknown #
coedge $-1 $161 $384 $390 $395 forward $253 $-1 #
vertex $-1 $162 $396 #
vertex $-1 $162 $397 #
straight-curve $-1 14.639803933722535 19.681793662323358 12.701395427636051 0 -1 0 I I #
coedge $-1 $267 $267 $-1 $398 reversed $165 $-1 #
edge $-1 $399 0 $399 6.2831853071796004 $166 $400 forward 7 unknown #
vertex $-1 $169 $401 #
ellipse-curve $-1 22.37827291364151 19.542945878835987 6.7052440874437353 0 0.6018150307709319 0.79863550430605224 2.5 0 0 1 I I #
face $-1 $-1 $283 $36 $-1 $402 forward single #
loop $-1 $-1 $403 $170 #
plane-surface $-1 0 -27.500107306551502 0 0 1 0 0 0 1 forward_v I I I I #
coedge $-1 $404 $405 $406 $407 reversed $171 $-1 #
coedge $-1 $408 $173 $175 $281 forward $107 $-1 #
coedge $-1 $173 $408 $404 $409 forward $107 $-1 #
coedge $-1 $406 $176 $173 $278 forward $283 $-1 #
edge $-1 $285 -2.5998126167891566 $410 12.877125343048796 $277 $411 forward 7 unknown #
coedge $-1 $412 $413 $174 $280 forward $272 $-1 #
edge $-1 $414 -36.662442014687535 $284 -24.670139334302917 $279 $415 forward 7 unknown #
edge $-1 $285 -19.926891265946495 $414 2.2271218137720606e-014 $175 $416 forward 7 unknown #
coedge $-1 $176 $406 $412 $417 forward $283 $-1 #
loop $-1 $-1 $406 $271 #
vertex $-1 $280 $418 #
vertex $-1 $177 $419 #
straight-curve $-1 -2.5388437463406621 -41.64435572956166 12.701395427636051 0 1 0 I I #
coedge $-1 $287 $287 $-1 $420 reversed $180 $-1 #
edge $-1 $421 0 $421 6.2831853071796004 $181 $422 forward 7 unknown #
vertex $-1 $184 $423 #
ellipse-curve $-1 -10.277312726259638 -19.542945878835976 6.705244087443738 0 -0.6018150307709319 0.79863550430605224 2.5 0 0 1 I I #
face $-1 $-1 $303 $38 $-1 $424 forward single #
loop $-1 $-1 $425 $185 #
plane-surface $-1 0 -27.500107306551502 0 0 1 0 0 0 1 forward_v I I I I #
coedge $-1 $426 $427 $428 $429 reversed $186 $-1 #
coedge $-1 $430 $188 $190 $301 forward $116 $-1 #
coedge $-1 $188 $430 $426 $431 forward $116 $-1 #
coedge $-1 $428 $191 $188 $298 forward $303 $-1 #
edge $-1 $305 -18.927605436739732 $432 -3.4506674769017796 $297 $433 forward 7 unknown #
coedge $-1 $434 $435 $189 $300 forward $292 $-1 #
edge $-1 $436 -36.662442014687535 $304 -24.670139334302917 $299 $437 forward 7 unknown #
edge $-1 $305 -19.926891265946495 $436 2.2271218137720606e-014 $190 $438 forward 7 unknown #
coedge $-1 $191 $428 $434 $439 forward $303 $-1 #
loop $-1 $-1 $428 $291 #
vertex $-1 $300 $440 #
vertex $-1 $192 $441 #
straight-curve $-1 30.116741893560487 -41.64435572956166 12.701395427636051 0 1 0 I I #
coedge $-1 $307 $307 $-1 $442 reversed $195 $-1 #
edge $-1 $443 0 $443 6.2831853071796004 $196 $444 forward 7 unknown #
vertex $-1 $199 $445 #
ellipse-curve $-1 22.37827291364151 -19.542945878835976 6.705244087443738 0 -0.6018150307709319 0.79863550430605224 2.5 0 0 1 I I #
face $-1 $-1 $215 $30 $-1 $446 reversed single #
loop $-1 $-1 $327 $200 #
plane-surface $-1 0 27.500107306551502 0 0 -1 0 0 0 -1 forward_v I I I I #
coedge $-1 $447 $325 $328 $448 forward $201 $-1 #
coedge $-1 $331 $203 $204 $319 reversed $125 $-1 #
coedge $-1 $325 $447 $203 $317 reversed $201 $-1 #
edge $-1 $332 -12.701395427636049 $449 12.701395427636049 $316 $450 forward 7 unknown #
coedge $-1 $205 $204 $447 $451 forward $81 $-1 #
edge $-1 $323 -46.3502914517655 $449 46.3502914517655 $315 $452 forward 7 unknown #
coedge $-1 $328 $327 $205 $321 reversed $312 $-1 #
edge $-1 $453 -46.3502914517655 $322 46.3502914517655 $320 $454 forward 7 unknown #
vertex $-1 $207 $455 #
vertex $-1 $334 $456 #
straight-curve $-1 46.3502914517655 0 -12.701395427636049 0 -1 0 I I #
coedge $-1 $314 $316 $208 $326 reversed $201 $-1 #
edge $-1 $329 -27.500107306551502 $332 27.500107306551502 $325 $457 forward 7 unknown #
coedge $-1 $320 $209 $214 $335 forward $312 $-1 #
coedge $-1 $209 $320 $314 $448 reversed $312 $-1 #
vertex $-1 $210 $458 #
straight-curve $-1 0 27.500107306551502 12.701395427636049 -1 0 0 I I #
coedge $-1 $211 $315 $213 $334 reversed $125 $-1 #
vertex $-1 $326 $459 #
straight-curve $-1 0 -27.500107306551502 12.701395427636049 1 0 0 I I #
edge $-1 $216 -12.701395427636049 $323 12.701395427636049 $213 $460 forward 7 unknown #
edge $-1 $217 -12.701395427636049 $322 12.701395427636049 $214 $461 forward 7 unknown #
point $-1 46.3502914517655 -27.500107306551502 12.701395427636049 #
point $-1 46.3502914517655 27.500107306551502 12.701395427636049 #
face $-1 $-1 $351 $31 $-1 $462 reversed single #
loop $-1 $-1 $463 $219 #
plane-surface $-1 -58.451251639147387 0 9.9017168286328943 1 0 0 0 0 -1 forward_v I I I I #
coedge $-1 $464 $343 $225 $348 reversed $220 $-1 #
coedge $-1 $223 $222 $463 $465 reversed $85 $-1 #
coedge $-1 $341 $466 $222 $344 forward $220 $-1 #
edge $-1 $467 -6.0504800936909433 $346 6.0504800936909433 $222 $468 forward 7 unknown #
edge $-1 $230 -6.0504800936909433 $469 6.0504800936909433 $223 $470 forward 7 unknown #
vertex $-1 $224 $471 #
straight-curve $-1 -46.3502914517655 27.500107306551502 0 0 0 -1 I I #
edge $-1 $352 -27.500107306551502 $346 27.500107306551502 $341 $472 forward 7 unknown #
coedge $-1 $473 $226 $229 $355 reversed $351 $-1 #
coedge $-1 $226 $473 $464 $474 reversed $351 $-1 #
loop $-1 $-1 $226 $338 #
vertex $-1 $227 $475 #
straight-curve $-1 -46.3502914517655 -27.500107306551502 0 0 0 1 I I #
coedge $-1 $229 $228 $476 $477 forward $133 $-1 #
edge $-1 $478 -6.0504800936909433 $231 6.0504800936909433 $349 $479 forward 7 unknown #
point $-1 -46.3502914517655 27.500107306551502 12.201395427636049 #
point $-1 -46.3502914517655 -27.500107306551502 12.201395427636049 #
loop $-1 $-1 $241 $233 #
plane-surface $-1 0 27.500107306551502 0 0 -1 0 0 0 -1 forward_v I I I I #
coedge $-1 $361 $236 $238 $365 reversed $141 $-1 #
coedge $-1 $236 $360 $480 $481 reversed $141 $-1 #
coedge $-1 $244 $239 $236 $363 forward $234 $-1 #
edge $-1 $366 -8.0960092112029152 $482 7.8183136442281445 $362 $483 forward 7 unknown #
coedge $-1 $238 $237 $369 $484 reversed $89 $-1 #
edge $-1 $485 -55.000214613103005 $366 -35.073323347156496 $360 $486 forward 7 unknown #
vertex $-1 $240 $487 #
straight-curve $-1 -5.1386563631298188 11.58578445112045 12.701395427636051 1 0 0 I I #
coedge $-1 $480 $241 $244 $373 reversed $358 $-1 #
coedge $-1 $241 $480 $364 $484 forward $358 $-1 #
vertex $-1 $242 $488 #
straight-curve $-1 -18.015781706178615 27.500107306551502 53.921512686835186 0 0 1 I I #
straight-curve $-1 -18.015781706178615 -16.42501682792512 33.809048597043883 0 0.79863550430605224 -0.6018150307709319 I I #
edge $-1 $482 2.5388437463406621 $245 18.015781706178615 $368 $489 forward 7 unknown #
point $-1 -18.015781706178615 27.500107306551502 12.701395427636049 #
point $-1 -18.015781706178615 11.585784451120443 12.701395427636054 #
edge $-1 $490 1 $490 0 $248 $-1 forward 7 unknown #
vertex $-1 $249 $491 #
ellipse-curve $-1 -10.277312726259638 16.783930591430696 3.0439072101936153 0 0.6018150307709319 0.79863550430605224 2.5 0 0 1 I I #
point $-1 -7.7773127262596375 19.542945878835997 6.7052440874437504 #
loop $-1 $-1 $260 $252 #
plane-surface $-1 0 27.500107306551502 0 0 -1 0 0 0 -1 forward_v I I I I #
coedge $-1 $383 $255 $257 $387 reversed $156 $-1 #
coedge $-1 $255 $382 $492 $493 reversed $156 $-1 #
coedge $-1 $263 $258 $255 $385 forward $253 $-1 #
edge $-1 $388 -8.0960092112029152 $494 7.8183136442281445 $384 $495 forward 7 unknown #
coedge $-1 $257 $256 $391 $496 reversed $98 $-1 #
edge $-1 $497 -55.000214613103005 $388 -35.073323347156496 $382 $498 forward 7 unknown #
vertex $-1 $259 $499 #
straight-curve $-1 11.189136456820755 11.58578445112045 12.701395427636051 1 0 0 I I #
coedge $-1 $492 $260 $263 $395 reversed $380 $-1 #
coedge $-1 $260 $492 $386 $496 forward $380 $-1 #
vertex $-1 $261 $500 #
straight-curve $-1 14.639803933722535 27.500107306551502 53.921512686835186 0 0 1 I I #
straight-curve $-1 14.639803933722535 -16.42501682792512 33.809048597043883 0 0.79863550430605224 -0.6018150307709319 I I #
edge $-1 $494 -30.116741893560487 $264 -14.639803933722535 $390 $501 forward 7 unknown #
point $-1 14.639803933722535 27.500107306551502 12.701395427636049 #
point $-1 14.639803933722535 11.585784451120443 12.701395427636054 #
edge $-1 $502 1 $502 0 $267 $-1 forward 7 unknown #
vertex $-1 $268 $503 #
ellipse-curve $-1 22.37827291364151 16.783930591430696 3.0439072101936153 0 0.6018150307709319 0.79863550430605224 2.5 0 0 1 I I #
point $-1 24.87827291364151 19.542945878835997 6.7052440874437504 #
plane-surface $-1 0 0 12.701395427636049 0 0 1 1 0 0 forward_v I I I I #
coedge $-1 $413 $412 $405 $504 forward $272 $-1 #
coedge $-1 $405 $274 $276 $409 reversed $171 $-1 #
coedge $-1 $274 $404 $403 $504 reversed $171 $-1 #
coedge $-1 $282 $277 $274 $407 forward $283 $-1 #
edge $-1 $410 -30.058571278441221 $505 -14.144248423010158 $406 $506 forward 7 unknown #
coedge $-1 $276 $275 $413 $507 reversed $107 $-1 #
edge $-1 $508 -2.2271218137720606e-014 $410 19.926891265946495 $404 $509 forward 7 unknown #
vertex $-1 $278 $510 #
straight-curve $-1 -5.1386563631298188 -11.585784451120441 12.701395427636049 -1 0 0 I I #
coedge $-1 $403 $279 $282 $417 reversed $272 $-1 #
coedge $-1 $279 $403 $408 $507 forward $272 $-1 #
vertex $-1 $280 $511 #
straight-curve $-1 -2.5388437463406621 -27.500107306551502 37.371534761938968 0 0 1 I I #
straight-curve $-1 -2.5388437463406621 -27.500107306551484 0.70909274725144655 0 -0.79863550430605224 -0.6018150307709319 I I #
edge $-1 $505 -18.015781706178615 $284 -2.5388437463406621 $412 $512 forward 7 unknown #
point $-1 -2.5388437463406621 -27.500107306551502 12.701395427636049 #
point $-1 -2.5388437463406621 -11.585784451120441 12.701395427636049 #
edge $-1 $513 1 $513 0 $287 $-1 forward 7 unknown #
vertex $-1 $288 $514 #
ellipse-curve $-1 -10.277312726259638 -16.783930591430686 3.0439072101936171 0 -0.6018150307709319 0.79863550430605224 2.5 0 0 1 I I #
point $-1 -7.7773127262596375 -19.542945878835987 6.7052440874437522 #
plane-surface $-1 0 0 12.701395427636049 0 0 1 1 0 0 forward_v I I I I #
coedge $-1 $435 $434 $427 $515 forward $292 $-1 #
coedge $-1 $427 $294 $296 $431 reversed $186 $-1 #
coedge $-1 $294 $426 $425 $515 reversed $186 $-1 #
coedge $-1 $302 $297 $294 $429 forward $303 $-1 #
edge $-1 $432 -30.058571278441221 $516 -14.144248423010158 $428 $517 forward 7 unknown #
coedge $-1 $296 $295 $435 $518 reversed $116 $-1 #
edge $-1 $519 -2.2271218137720606e-014 $432 19.926891265946495 $426 $520 forward 7 unknown #
vertex $-1 $298 $521 #
straight-curve $-1 11.189136456820755 -11.585784451120441 12.701395427636049 -1 0 0 I I #
coedge $-1 $425 $299 $302 $439 reversed $292 $-1 #
coedge $-1 $299 $425 $430 $518 forward $292 $-1 #
vertex $-1 $300 $522 #
straight-curve $-1 30.116741893560487 -27.500107306551502 37.371534761938968 0 0 1 I I #
straight-curve $-1 30.116741893560487 -27.500107306551484 0.70909274725144655 0 -0.79863550430605224 -0.6018150307709319 I I #
edge $-1 $516 14.639803933722535 $304 30.116741893560487 $434 $523 forward 7 unknown #
point $-1 30.116741893560487 -27.500107306551502 12.701395427636049 #
point $-1 30.116741893560487 -11.585784451120441 12.701395427636049 #
edge $-1 $524 1 $524 0 $307 $-1 forward 7 unknown #
vertex $-1 $308 $525 #
ellipse-curve $-1 22.37827291364151 -16.783930591430686 3.0439072101936171 0 -0.6018150307709319 0.79863550430605224 2.5 0 0 1 I I #
point $-1 24.87827291364151 -19.542945878835987 6.7052440874437522 #
plane-surface $-1 46.3502914517655 0 0 -1 0 0 0 0 1 forward_v I I I I #
coedge $-1 $316 $314 $318 $451 reversed $201 $-1 #
edge $-1 $329 -12.701395427636049 $453 12.701395427636049 $328 $526 forward 7 unknown #
vertex $-1 $451 $527 #
straight-curve $-1 -46.3502914517655 -27.500107306551502 0 0 0 -1 I I #
edge $-1 $449 -27.500107306551502 $453 27.500107306551502 $447 $528 forward 7 unknown #
straight-curve $-1 0 -27.500107306551502 -12.701395427636049 -1 0 0 I I #
vertex $-1 $321 $529 #
straight-curve $-1 0 27.500107306551502 -12.701395427636049 1 0 0 I I #
point $-1 46.3502914517655 27.500107306551502 -12.701395427636049 #
point $-1 46.3502914517655 -27.500107306551502 -12.701395427636049 #
straight-curve $-1 -46.3502914517655 0 12.701395427636049 0 -1 0 I I #
point $-1 -46.3502914517655 27.500107306551502 12.701395427636049 #
point $-1 -46.3502914517655 -27.500107306551502 12.701395427636049 #
straight-curve $-1 46.3502914517655 -27.500107306551502 0 0 0 -1 I I #
straight-curve $-1 46.3502914517655 27.500107306551502 0 0 0 -1 I I #
plane-surface $-1 0 -27.500107306551502 0 0 1 0 0 0 1 forward_v I I I I #
coedge $-1 $530 $476 $342 $465 forward $339 $-1 #
coedge $-1 $466 $341 $350 $474 forward $220 $-1 #
edge $-1 $469 -2.2996785990031547 $467 2.2996785990031547 $342 $531 forward 7 unknown #
coedge $-1 $343 $464 $530 $532 forward $220 $-1 #
vertex $-1 $344 $533 #
straight-curve $-1 -52.400771545456443 27.500107306551502 7.6020382296297395 1 0 0 I I #
vertex $-1 $345 $534 #
straight-curve $-1 -52.400771545456443 27.500107306551502 12.201395427636049 -1 0 0 I I #
point $-1 -46.3502914517655 27.500107306551502 7.6020382296297395 #
straight-curve $-1 -46.3502914517655 0 7.6020382296297395 0 1 0 I I #
coedge $-1 $350 $349 $535 $536 forward $351 $-1 #
edge $-1 $352 -6.0504800936909433 $537 6.0504800936909433 $350 $538 forward 7 unknown #
point $-1 -46.3502914517655 -27.500107306551502 7.6020382296297395 #
coedge $-1 $463 $535 $354 $477 reversed $339 $-1 #
edge $-1 $469 -27.500107306551502 $478 27.500107306551502 $476 $539 forward 7 unknown #
vertex $-1 $477 $540 #
straight-curve $-1 -52.400771545456443 -27.500107306551502 12.201395427636049 1 0 0 I I #
coedge $-1 $369 $368 $361 $481 forward $358 $-1 #
edge $-1 $482 41.220117259199135 $485 53.212419939583739 $480 $541 forward 7 unknown #
vertex $-1 $373 $542 #
straight-curve $-1 -2.5388437463406621 19.681793662323358 12.701395427636051 0 1 0 I I #
edge $-1 $485 -2.5998126167891566 $370 12.877125343048796 $369 $543 forward 7 unknown #
vertex $-1 $484 $544 #
straight-curve $-1 -2.5388437463406621 -16.42501682792512 33.809048597043883 0 -0.79863550430605224 0.6018150307709319 I I #
point $-1 -2.5388437463406621 11.585784451120443 12.701395427636054 #
point $-1 -18.015781706178615 27.500107306551499 0.70909274725144655 #
straight-curve $-1 0 27.500107306551502 12.701395427636049 -1 0 0 I I #
vertex $-1 $376 $545 #
point $-1 -7.7773127262596375 16.783930591430696 3.0439072101936153 #
coedge $-1 $391 $390 $383 $493 forward $380 $-1 #
edge $-1 $494 41.220117259199135 $497 53.212419939583739 $492 $546 forward 7 unknown #
vertex $-1 $395 $547 #
straight-curve $-1 30.116741893560487 19.681793662323358 12.701395427636051 0 1 0 I I #
edge $-1 $497 -18.927605436739732 $392 -3.4506674769017796 $391 $548 forward 7 unknown #
vertex $-1 $496 $549 #
straight-curve $-1 30.116741893560487 -16.42501682792512 33.809048597043883 0 -0.79863550430605224 0.6018150307709319 I I #
point $-1 30.116741893560487 11.585784451120443 12.701395427636054 #
point $-1 14.639803933722535 27.500107306551499 0.70909274725144655 #
straight-curve $-1 0 27.500107306551502 12.701395427636049 -1 0 0 I I #
vertex $-1 $398 $550 #
point $-1 24.87827291364151 16.783930591430696 3.0439072101936153 #
edge $-1 $505 24.670139334302917 $508 36.662442014687535 $403 $551 forward 7 unknown #
vertex $-1 $417 $552 #
straight-curve $-1 -18.015781706178615 -41.64435572956166 12.701395427636051 0 -1 0 I I #
edge $-1 $508 -12.877125343048796 $414 2.5998126167891566 $413 $553 forward 7 unknown #
vertex $-1 $507 $554 #
straight-curve $-1 -18.015781706178615 -27.500107306551484 0.70909274725144655 0 0.79863550430605224 0.6018150307709319 I I #
point $-1 -18.015781706178615 -11.585784451120441 12.701395427636049 #
point $-1 -2.5388437463406621 -27.500107306551502 0.70909274725143312 #
straight-curve $-1 0 -27.500107306551502 12.701395427636049 1 0 0 I I #
vertex $-1 $420 $555 #
point $-1 -7.7773127262596375 -16.783930591430686 3.0439072101936171 #
edge $-1 $516 24.670139334302917 $519 36.662442014687535 $425 $556 forward 7 unknown #
vertex $-1 $439 $557 #
straight-curve $-1 14.639803933722535 -41.64435572956166 12.701395427636051 0 -1 0 I I #
edge $-1 $519 3.4506674769017796 $436 18.927605436739732 $435 $558 forward 7 unknown #
vertex $-1 $518 $559 #
straight-curve $-1 14.639803933722535 -27.500107306551484 0.70909274725144655 0 0.79863550430605224 0.6018150307709319 I I #
point $-1 14.639803933722535 -11.585784451120441 12.701395427636049 #
point $-1 30.116741893560487 -27.500107306551502 0.70909274725143312 #
straight-curve $-1 0 -27.500107306551502 12.701395427636049 1 0 0 I I #
vertex $-1 $442 $560 #
point $-1 24.87827291364151 -16.783930591430686 3.0439072101936171 #
straight-curve $-1 -46.3502914517655 27.500107306551502 0 0 0 -1 I I #
point $-1 -46.3502914517655 -27.500107306551502 -12.701395427636049 #
straight-curve $-1 -46.3502914517655 0 -12.701395427636049 0 1 0 I I #
point $-1 -46.3502914517655 27.500107306551502 -12.701395427636049 #
coedge $-1 $535 $463 $466 $532 reversed $339 $-1 #
straight-curve $-1 -58.451251639147387 27.500107306551502 9.9017168286328943 0 0 -1 I I #
edge $-1 $537 -27.500107306551502 $467 27.500107306551502 $530 $561 forward 7 unknown #
point $-1 -58.451251639147387 27.500107306551502 7.6020382296297395 #
point $-1 -58.451251639147387 27.500107306551502 12.201395427636049 #
coedge $-1 $476 $530 $473 $536 reversed $339 $-1 #
edge $-1 $478 -2.2996785990031547 $537 2.2996785990031547 $535 $562 forward 7 unknown #
vertex $-1 $532 $563 #
straight-curve $-1 -52.400771545456443 -27.500107306551502 7.6020382296297395 -1 0 0 I I #
straight-curve $-1 -58.451251639147387 0 12.201395427636049 0 -1 0 I I #
point $-1 -58.451251639147387 -27.500107306551502 12.201395427636049 #
straight-curve $-1 -2.5388437463406621 27.500107306551502 53.921512686835186 0 0 -1 I I #
point $-1 -2.5388437463406621 27.500107306551502 12.701395427636049 #
straight-curve $-1 -5.1386563631298188 27.500107306551499 0.70909274725143945 -1 0 0 I I #
point $-1 -2.5388437463406621 27.500107306551499 0.70909274725144655 #
point $-1 -10.277312726259638 15.279393014503368 1.0473184494284851 #
straight-curve $-1 30.116741893560487 27.500107306551502 53.921512686835186 0 0 -1 I I #
point $-1 30.116741893560487 27.500107306551502 12.701395427636049 #
straight-curve $-1 11.189136456820755 27.500107306551499 0.70909274725143945 -1 0 0 I I #
point $-1 30.116741893560487 27.500107306551499 0.70909274725144655 #
point $-1 22.37827291364151 15.279393014503368 1.0473184494284851 #
straight-curve $-1 -18.015781706178615 -27.500107306551502 37.371534761938968 0 0 -1 I I #
point $-1 -18.015781706178615 -27.500107306551502 12.701395427636049 #
straight-curve $-1 -5.1386563631298188 -27.500107306551502 0.70909274725143134 1 0 0 I I #
point $-1 -18.015781706178615 -27.500107306551502 0.70909274725143312 #
point $-1 -10.277312726259638 -15.279393014503357 1.0473184494284868 #
straight-curve $-1 14.639803933722535 -27.500107306551502 37.371534761938968 0 0 -1 I I #
point $-1 14.639803933722535 -27.500107306551502 12.701395427636049 #
straight-curve $-1 11.189136456820755 -27.500107306551502 0.70909274725143134 1 0 0 I I #
point $-1 14.639803933722535 -27.500107306551502 0.70909274725143312 #
point $-1 22.37827291364151 -15.279393014503357 1.0473184494284868 #
straight-curve $-1 -58.451251639147387 0 7.6020382296297395 0 1 0 I I #
straight-curve $-1 -58.451251639147387 -27.500107306551502 9.9017168286328943 0 0 -1 I I #
point $-1 -58.451251639147387 -27.500107306551502 7.6020382296297395 #
End-of-ACIS-data 