500 0 5 0           
7 Unknown 11 ACIS 5.0 NT 24 Fri Mar 26 14:38:31 1999 
-1 9.9999999999999995e-007 1e-010 
body $-1 $5 $-1 $6 #
body $-1 $7 $-1 $8 #
body $-1 $9 $-1 $10 #
body $-1 $11 $-1 $12 #
body $-1 $13 $-1 $14 #
lump $-1 $-1 $15 $0 #
transform $-1 1 0 0 0 1 0 0 0 1 62.706991790520945 29.510962502032115 8.0847806692172579 1 rotate no_reflect no_shear #
lump $-1 $-1 $16 $1 #
transform $-1 1 0 0 0 1 0 0 0 1 62.706991790520945 29.510962502032115 8.0847806692172579 1 rotate no_reflect no_shear #
lump $-1 $-1 $17 $2 #
transform $-1 1 0 0 0 1 0 0 0 1 62.706991790520945 29.510962502032115 8.0847806692172579 1 rotate no_reflect no_shear #
lump $-1 $-1 $18 $3 #
transform $-1 1 0 0 0 1 0 0 0 1 62.706991790520945 29.510962502032115 8.0847806692172579 1 rotate no_reflect no_shear #
lump $-1 $-1 $19 $4 #
transform $-1 1 0 0 0 1 0 0 0 1 62.706991790520945 29.510962502032115 8.0847806692172579 1 rotate no_reflect no_shear #
shell $-1 $-1 $-1 $20 $-1 $5 #
shell $-1 $-1 $-1 $21 $-1 $7 #
shell $-1 $-1 $-1 $22 $-1 $9 #
shell $-1 $-1 $-1 $23 $-1 $11 #
shell $-1 $-1 $-1 $24 $-1 $13 #
face $-1 $25 $26 $15 $-1 $27 forward single #
face $-1 $28 $29 $16 $-1 $30 reversed single #
face $-1 $31 $32 $17 $-1 $33 forward single #
face $-1 $34 $35 $18 $-1 $36 reversed single #
face $-1 $37 $38 $19 $-1 $39 reversed single #
face $-1 $40 $41 $15 $-1 $42 reversed single #
loop $-1 $-1 $43 $20 #
plane-surface $-1 0 0 8.0847806692172579 0 0 1 1 0 0 forward_v I I I I #
face $-1 $44 $45 $16 $-1 $46 reversed single #
loop $-1 $-1 $47 $21 #
plane-surface $-1 0 -33.446854411998444 4.437783901991077 0 0 1 1 0 0 forward_v I I I I #
face $-1 $48 $49 $17 $-1 $50 forward single #
loop $-1 $-1 $51 $22 #
plane-surface $-1 -134.64149848860851 -13.253767173264839 105.13918515239141 0 1 0 -0.57357644374324357 0 0.81915203911291934 forward_v I I I I #
face $-1 $52 $53 $18 $-1 $54 reversed single #
loop $-1 $55 $56 $23 #
cone-surface $-1 -56.977359643497955 -8.8951370662126088 2.8538335053694714 0.57357644374324357 0 -0.81915203911291934 1.228728058669379 0 0.86036466561486535 1 I I 0 1 1.5 forward I I I I #
face $-1 $57 $58 $19 $-1 $59 reversed single #
loop $-1 $60 $61 $24 #
cone-surface $-1 -56.977359643497955 -2.3571919056342665 2.8538335053694714 0.57357644374324357 0 -0.81915203911291934 1.228728058669379 0 0.86036466561486535 1 I I 0 1 1.5 forward I I I I #
face $-1 $62 $63 $15 $-1 $64 reversed single #
loop $-1 $-1 $65 $25 #
plane-surface $-1 0 0 -8.0847806692172579 0 0 1 1 0 0 forward_v I I I I #
coedge $-1 $66 $67 $68 $69 forward $26 $-1 #
face $-1 $70 $71 $16 $-1 $72 forward single #
loop $-1 $-1 $73 $28 #
plane-surface $-1 0 -37.382746321964774 6.2612822856041674 0 1 0 0 0 1 forward_v I I I I #
coedge $-1 $74 $75 $76 $77 forward $29 $-1 #
face $-1 $78 $79 $17 $-1 $80 forward single #
loop $-1 $-1 $81 $31 #
plane-surface $-1 -62.706991790520959 -5.6261644859234394 2.4060647687067558 -0.57357644374324357 0 0.81915203911291934 0.81915203911291934 0 0.57357644374324357 forward_v I I I I #
coedge $-1 $82 $83 $84 $85 reversed $32 $-1 #
face $-1 $86 $87 $18 $-1 $88 forward single #
loop $-1 $89 $90 $34 #
cone-surface $-1 -54.87256848286826 -8.8951370662126088 -0.15211973755774455 0.57357644374324357 0 -0.81915203911291934 0.61436402933468948 0 0.43018233280743268 1 I I -0.70710678118654757 0.70710678118654757 0.75 forward I I I I #
loop $-1 $-1 $91 $23 #
coedge $-1 $56 $56 $92 $93 reversed $35 $-1 #
face $-1 $94 $95 $19 $-1 $96 reversed single #
loop $-1 $97 $98 $37 #
cone-surface $-1 -54.87256848286826 -2.3571919056342665 -0.15211973755774455 0.57357644374324357 0 -0.81915203911291934 0.61436402933468948 0 0.43018233280743268 1 I I -0.70710678118654757 0.70710678118654757 0.75 forward I I I I #
loop $-1 $-1 $99 $24 #
coedge $-1 $61 $61 $100 $101 reversed $38 $-1 #
face $-1 $102 $103 $15 $-1 $104 reversed single #
loop $-1 $-1 $105 $40 #
plane-surface $-1 0 -29.510962502032115 0 0 1 0 0 0 1 forward_v I I I I #
coedge $-1 $106 $107 $108 $109 forward $41 $-1 #
coedge $-1 $110 $43 $111 $112 forward $26 $-1 #
coedge $-1 $43 $110 $113 $114 forward $26 $-1 #
coedge $-1 $115 $116 $43 $69 reversed $117 $-1 #
edge $-1 $118 -29.510962502032115 $119 29.510962502032115 $68 $120 forward 7 unknown #
face $-1 $121 $122 $16 $-1 $123 reversed single #
loop $-1 $-1 $124 $44 #
plane-surface $-1 0 0 8.0847806692172579 0 0 1 1 0 0 forward_v I I I I #
coedge $-1 $125 $126 $127 $128 forward $45 $-1 #
coedge $-1 $129 $47 $125 $130 forward $29 $-1 #
coedge $-1 $47 $129 $131 $132 reversed $29 $-1 #
coedge $-1 $133 $134 $47 $77 reversed $135 $-1 #
edge $-1 $136 -3.9358919099663296 $137 3.9358919099663296 $76 $138 forward 7 unknown #
face $-1 $139 $140 $17 $-1 $141 forward single #
loop $-1 $-1 $142 $48 #
plane-surface $-1 -134.64149848860851 2.0014382014179599 105.13918515239141 0 -1 0 0.57357644374324357 0 -0.81915203911291934 forward_v I I I I #
coedge $-1 $143 $144 $145 $146 reversed $49 $-1 #
coedge $-1 $83 $51 $144 $147 forward $32 $-1 #
coedge $-1 $51 $82 $148 $149 reversed $32 $-1 #
coedge $-1 $150 $145 $51 $85 forward $140 $-1 #
edge $-1 $151 -12.723804092184714 $152 -4.6137574537833075 $84 $153 forward 7 unknown #
face $-1 $154 $155 $18 $-1 $156 forward single #
loop $-1 $-1 $157 $52 #
plane-surface $-1 -134.64149848860851 -13.253767173264839 105.13918515239141 0 1 0 -0.57357644374324357 0 0.81915203911291934 forward_v I I I I #
loop $-1 $-1 $158 $34 #
coedge $-1 $90 $90 $91 $159 forward $53 $-1 #
coedge $-1 $91 $91 $90 $159 reversed $55 $-1 #
coedge $-1 $92 $92 $56 $93 forward $155 $-1 #
edge $-1 $160 0 $160 6.2831853071796004 $92 $161 forward 7 unknown #
face $-1 $162 $163 $19 $-1 $164 reversed single #
loop $-1 $165 $166 $57 #
cone-surface $-1 -56.977359643497955 -8.8951370662126088 2.8538335053694714 0.57357644374324357 0 -0.81915203911291934 1.228728058669379 0 0.86036466561486535 1 I I 0 1 1.5 forward I I I I #
loop $-1 $-1 $167 $37 #
coedge $-1 $98 $98 $99 $168 forward $58 $-1 #
coedge $-1 $99 $99 $98 $168 reversed $60 $-1 #
coedge $-1 $100 $100 $61 $101 forward $169 $-1 #
edge $-1 $170 0 $170 6.2831853071796004 $100 $171 forward 7 unknown #
face $-1 $172 $173 $15 $-1 $174 reversed single #
loop $-1 $-1 $175 $62 #
plane-surface $-1 -62.706991790520945 0 0 1 0 0 0 0 -1 forward_v I I I I #
coedge $-1 $176 $113 $177 $178 forward $63 $-1 #
coedge $-1 $179 $65 $176 $180 forward $41 $-1 #
coedge $-1 $65 $179 $181 $182 forward $41 $-1 #
coedge $-1 $116 $115 $65 $109 reversed $117 $-1 #
edge $-1 $183 -29.510962502032115 $184 29.510962502032115 $108 $185 forward 7 unknown #
coedge $-1 $67 $66 $186 $187 forward $26 $-1 #
coedge $-1 $188 $189 $66 $112 reversed $173 $-1 #
edge $-1 $119 -62.706991790520945 $190 62.706991790520945 $111 $191 forward 7 unknown #
coedge $-1 $105 $192 $67 $114 reversed $63 $-1 #
edge $-1 $193 -62.706991790520945 $118 62.706991790520945 $113 $194 forward 7 unknown #
coedge $-1 $108 $68 $192 $195 forward $117 $-1 #
coedge $-1 $68 $108 $188 $196 reversed $117 $-1 #
loop $-1 $-1 $115 $172 #
vertex $-1 $69 $197 #
vertex $-1 $69 $198 #
straight-curve $-1 62.706991790520945 0 8.0847806692172579 0 1 0 I I #
face $-1 $199 $200 $16 $-1 $201 reversed single #
loop $-1 $-1 $202 $70 #
plane-surface $-1 0 0 -8.0847806692172579 0 0 1 1 0 0 forward_v I I I I #
coedge $-1 $203 $204 $205 $206 forward $71 $-1 #
coedge $-1 $207 $73 $74 $130 reversed $45 $-1 #
coedge $-1 $73 $207 $204 $208 reversed $45 $-1 #
coedge $-1 $209 $210 $73 $128 reversed $211 $-1 #
edge $-1 $212 -1.8234983836130905 $213 1.8234983836130905 $127 $214 forward 7 unknown #
coedge $-1 $75 $74 $210 $215 forward $29 $-1 #
edge $-1 $137 -62.706991790520945 $213 62.706991790520945 $125 $216 forward 7 unknown #
coedge $-1 $217 $218 $75 $132 forward $200 $-1 #
edge $-1 $136 -62.706991790520945 $219 62.706991790520945 $131 $220 forward 7 unknown #
coedge $-1 $221 $76 $218 $222 forward $135 $-1 #
coedge $-1 $76 $205 $207 $223 forward $135 $-1 #
loop $-1 $-1 $133 $224 #
vertex $-1 $222 $225 #
vertex $-1 $223 $226 #
straight-curve $-1 62.706991790520945 -33.446854411998444 4.437783901991077 0 -1 0 I I #
face $-1 $227 $228 $17 $-1 $229 reversed single #
loop $-1 $-1 $230 $78 #
plane-surface $-1 0 0 8.0847806692172579 0 0 1 1 0 0 forward_v I I I I #
coedge $-1 $231 $232 $230 $233 reversed $79 $-1 #
coedge $-1 $234 $81 $232 $235 reversed $49 $-1 #
coedge $-1 $81 $234 $82 $147 reversed $49 $-1 #
coedge $-1 $84 $230 $81 $146 forward $140 $-1 #
edge $-1 $236 -4.8145204443796796 $151 10.440684930303119 $145 $237 forward 7 unknown #
edge $-1 $151 -9.9005389123904255 $238 -1.7244671030687178e-014 $82 $239 forward 7 unknown #
coedge $-1 $240 $241 $83 $149 forward $242 $-1 #
edge $-1 $152 44.484811906978443 $238 50.16352780748894 $148 $243 forward 7 unknown #
coedge $-1 $244 $84 $241 $245 forward $140 $-1 #
vertex $-1 $146 $246 #
vertex $-1 $245 $247 #
straight-curve $-1 -67.320749244304253 -13.253767173264839 8.0847806692172597 -1 0 0 I I #
face $-1 $248 $249 $18 $-1 $250 forward single #
loop $-1 $251 $92 $86 #
plane-surface $-1 -62.706991790520959 -5.6261644859234394 2.4060647687067558 -0.57357644374324357 0 0.81915203911291934 0.81915203911291934 0 0.57357644374324357 forward_v I I I I #
coedge $-1 $252 $253 $254 $255 reversed $87 $-1 #
coedge $-1 $158 $158 $-1 $256 forward $89 $-1 #
edge $-1 $257 0 $257 6.2831853071796004 $90 $258 forward 7 unknown #
vertex $-1 $93 $259 #
ellipse-curve $-1 -58.651968471320231 -8.8951370662126088 5.2454227189620184 0.57357644374324357 0 -0.81915203911291934 1.228728058669379 0 0.86036466561486535 1 I I #
face $-1 $260 $261 $19 $-1 $262 forward single #
loop $-1 $263 $264 $94 #
cone-surface $-1 -54.87256848286826 -8.8951370662126088 -0.15211973755774455 0.57357644374324357 0 -0.81915203911291934 0.61436402933468948 0 0.43018233280743268 1 I I -0.70710678118654757 0.70710678118654757 0.75 forward I I I I #
loop $-1 $-1 $265 $57 #
coedge $-1 $166 $166 $266 $267 reversed $95 $-1 #
coedge $-1 $167 $167 $-1 $268 forward $97 $-1 #
edge $-1 $269 0 $269 6.2831853071796004 $98 $270 forward 7 unknown #
loop $-1 $271 $100 $260 #
vertex $-1 $101 $272 #
ellipse-curve $-1 -58.651968471320231 -2.3571919056342665 5.2454227189620184 0.57357644374324357 0 -0.81915203911291934 1.228728058669379 0 0.86036466561486535 1 I I #
face $-1 $-1 $117 $15 $-1 $273 reversed single #
loop $-1 $-1 $188 $102 #
plane-surface $-1 0 29.510962502032115 0 0 -1 0 0 0 -1 forward_v I I I I #
coedge $-1 $274 $186 $189 $275 forward $103 $-1 #
coedge $-1 $192 $105 $106 $180 reversed $63 $-1 #
coedge $-1 $186 $274 $105 $178 reversed $103 $-1 #
edge $-1 $193 -8.0847806692172579 $276 8.0847806692172579 $177 $277 forward 7 unknown #
coedge $-1 $107 $106 $274 $278 forward $41 $-1 #
edge $-1 $184 -62.706991790520945 $276 62.706991790520945 $176 $279 forward 7 unknown #
coedge $-1 $189 $188 $107 $182 reversed $173 $-1 #
edge $-1 $280 -62.706991790520945 $183 62.706991790520945 $181 $281 forward 7 unknown #
vertex $-1 $109 $282 #
vertex $-1 $195 $283 #
straight-curve $-1 62.706991790520945 0 -8.0847806692172579 0 -1 0 I I #
coedge $-1 $175 $177 $110 $187 reversed $103 $-1 #
edge $-1 $190 -29.510962502032115 $193 29.510962502032115 $186 $284 forward 7 unknown #
coedge $-1 $181 $111 $116 $196 forward $173 $-1 #
coedge $-1 $111 $181 $175 $275 reversed $173 $-1 #
vertex $-1 $112 $285 #
straight-curve $-1 0 29.510962502032115 8.0847806692172579 -1 0 0 I I #
coedge $-1 $113 $176 $115 $195 reversed $63 $-1 #
vertex $-1 $187 $286 #
straight-curve $-1 0 -29.510962502032115 8.0847806692172579 1 0 0 I I #
edge $-1 $118 -8.0847806692172579 $184 8.0847806692172579 $115 $287 forward 7 unknown #
edge $-1 $119 -8.0847806692172579 $183 8.0847806692172579 $116 $288 forward 7 unknown #
point $-1 62.706991790520945 -29.510962502032115 8.0847806692172579 #
point $-1 62.706991790520945 29.510962502032115 8.0847806692172579 #
face $-1 $289 $211 $16 $-1 $290 reversed single #
loop $-1 $-1 $131 $121 #
plane-surface $-1 0 -29.510962502032115 0 0 1 0 0 0 1 forward_v I I I I #
coedge $-1 $291 $292 $221 $293 forward $122 $-1 #
coedge $-1 $294 $124 $295 $296 forward $71 $-1 #
coedge $-1 $124 $294 $126 $208 forward $71 $-1 #
coedge $-1 $134 $297 $124 $206 reversed $135 $-1 #
edge $-1 $298 -37.382746321964774 $299 29.510962502032115 $205 $300 forward 7 unknown #
coedge $-1 $126 $125 $134 $223 reversed $45 $-1 #
edge $-1 $212 -62.706991790520945 $298 62.706991790520945 $126 $301 forward 7 unknown #
coedge $-1 $302 $127 $294 $303 reversed $211 $-1 #
coedge $-1 $127 $304 $129 $215 reversed $211 $-1 #
loop $-1 $-1 $302 $199 #
vertex $-1 $303 $305 #
vertex $-1 $215 $306 #
straight-curve $-1 -62.706991790520945 -37.382746321964774 6.2612822856041674 0 0 -1 I I #
edge $-1 $213 -3.9358919099663296 $219 3.9358919099663296 $210 $307 forward 7 unknown #
straight-curve $-1 0 -37.382746321964774 4.437783901991077 -1 0 0 I I #
coedge $-1 $308 $131 $304 $309 forward $200 $-1 #
coedge $-1 $131 $308 $133 $222 reversed $200 $-1 #
vertex $-1 $309 $310 #
straight-curve $-1 0 -29.510962502032115 4.437783901991077 -1 0 0 I I #
coedge $-1 $297 $133 $202 $293 reversed $135 $-1 #
edge $-1 $136 -4.437783901991077 $311 8.0847806692172579 $133 $312 forward 7 unknown #
edge $-1 $298 -1.8234983836130905 $137 1.8234983836130905 $134 $313 forward 7 unknown #
face $-1 $-1 $135 $16 $-1 $314 reversed single #
point $-1 62.706991790520945 -29.510962502032115 4.437783901991077 #
point $-1 62.706991790520945 -37.382746321964774 4.437783901991077 #
face $-1 $315 $316 $17 $-1 $317 reversed single #
loop $-1 $-1 $318 $139 #
plane-surface $-1 0 -33.446854411998444 4.437783901991077 0 0 1 1 0 0 forward_v I I I I #
coedge $-1 $145 $319 $142 $233 forward $140 $-1 #
coedge $-1 $232 $142 $320 $321 reversed $79 $-1 #
coedge $-1 $142 $231 $143 $235 forward $79 $-1 #
edge $-1 $322 4.6137574537833075 $236 12.723804092184714 $230 $323 forward 7 unknown #
coedge $-1 $144 $143 $240 $324 reversed $49 $-1 #
edge $-1 $325 1.7244671030687178e-014 $236 9.9005389123904255 $232 $326 forward 7 unknown #
vertex $-1 $146 $327 #
straight-curve $-1 -54.596945152119531 -2.8130822429617197 8.0847806692172597 0 -1 0 I I #
vertex $-1 $324 $328 #
straight-curve $-1 -62.706991790520959 -13.253767173264839 2.4060647687067558 -0.81915203911291934 0 -0.57357644374324357 I I #
coedge $-1 $320 $148 $234 $324 forward $242 $-1 #
coedge $-1 $148 $329 $150 $245 reversed $242 $-1 #
loop $-1 $-1 $320 $330 #
straight-curve $-1 -62.706991790520945 -13.253767173264839 52.569592576195703 0 0 -1 I I #
coedge $-1 $331 $150 $332 $333 forward $140 $-1 #
edge $-1 $152 13.253767173264839 $334 37.382746321964774 $241 $335 forward 7 unknown #
point $-1 -54.596945152119538 -13.253767173264839 8.0847806692172579 #
point $-1 -62.706991790520945 -13.253767173264839 8.0847806692172579 #
face $-1 $336 $337 $18 $-1 $338 forward single #
loop $-1 $-1 $339 $154 #
plane-surface $-1 -134.64149848860851 2.0014382014179599 105.13918515239141 0 -1 0 0.57357644374324357 0 -0.81915203911291934 forward_v I I I I #
loop $-1 $-1 $340 $86 #
coedge $-1 $253 $157 $341 $342 forward $87 $-1 #
coedge $-1 $157 $252 $343 $344 reversed $87 $-1 #
coedge $-1 $345 $346 $157 $255 forward $337 $-1 #
edge $-1 $347 -12.723804092184714 $348 -4.6137574537833075 $254 $349 forward 7 unknown #
edge $-1 $350 1 $350 0 $158 $-1 forward 7 unknown #
vertex $-1 $159 $351 #
ellipse-curve $-1 -55.302750815675694 -8.8951370662126088 0.46224429177694493 -0.57357644374324357 0 0.81915203911291934 1.228728058669379 0 0.86036466561486535 1 I I #
point $-1 -57.423240412650841 -8.8951370662126088 6.1057873845768631 #
face $-1 $352 $169 $19 $-1 $353 forward single #
loop $-1 $-1 $354 $162 #
plane-surface $-1 -134.64149848860851 -13.253767173264839 105.13918515239141 0 1 0 -0.57357644374324357 0 0.81915203911291934 forward_v I I I I #
loop $-1 $-1 $355 $94 #
coedge $-1 $264 $264 $265 $356 forward $163 $-1 #
coedge $-1 $265 $265 $264 $356 reversed $165 $-1 #
coedge $-1 $266 $266 $166 $267 forward $271 $-1 #
edge $-1 $357 0 $357 6.2831853071796004 $266 $358 forward 7 unknown #
edge $-1 $359 1 $359 0 $167 $-1 forward 7 unknown #
vertex $-1 $168 $360 #
ellipse-curve $-1 -55.302750815675694 -2.3571919056342665 0.46224429177694493 -0.57357644374324357 0 0.81915203911291934 1.228728058669379 0 0.86036466561486535 1 I I #
loop $-1 $361 $266 $260 #
point $-1 -57.423240412650841 -2.3571919056342665 6.1057873845768631 #
plane-surface $-1 62.706991790520945 0 0 -1 0 0 0 0 1 forward_v I I I I #
coedge $-1 $177 $175 $179 $278 reversed $103 $-1 #
edge $-1 $190 -8.0847806692172579 $280 8.0847806692172579 $189 $362 forward 7 unknown #
vertex $-1 $278 $363 #
straight-curve $-1 -62.706991790520945 -29.510962502032115 0 0 0 -1 I I #
edge $-1 $276 -29.510962502032115 $280 29.510962502032115 $274 $364 forward 7 unknown #
straight-curve $-1 0 -29.510962502032115 -8.0847806692172579 -1 0 0 I I #
vertex $-1 $182 $365 #
straight-curve $-1 0 29.510962502032115 -8.0847806692172579 1 0 0 I I #
point $-1 62.706991790520945 29.510962502032115 -8.0847806692172579 #
point $-1 62.706991790520945 -29.510962502032115 -8.0847806692172579 #
straight-curve $-1 -62.706991790520945 0 8.0847806692172579 0 -1 0 I I #
point $-1 -62.706991790520945 29.510962502032115 8.0847806692172579 #
point $-1 -62.706991790520945 -29.510962502032115 8.0847806692172579 #
straight-curve $-1 62.706991790520945 -29.510962502032115 0 0 0 -1 I I #
straight-curve $-1 62.706991790520945 29.510962502032115 0 0 0 -1 I I #
face $-1 $224 $366 $16 $-1 $367 reversed single #
plane-surface $-1 -62.706991790520945 0 0 1 0 0 0 0 -1 forward_v I I I I #
coedge $-1 $368 $202 $308 $369 forward $122 $-1 #
coedge $-1 $202 $368 $370 $371 forward $122 $-1 #
edge $-1 $372 -29.510962502032115 $311 29.510962502032115 $221 $373 forward 7 unknown #
coedge $-1 $204 $203 $209 $303 forward $71 $-1 #
coedge $-1 $374 $375 $203 $296 reversed $366 $-1 #
edge $-1 $299 -62.706991790520945 $376 62.706991790520945 $295 $377 forward 7 unknown #
coedge $-1 $205 $221 $374 $378 reversed $135 $-1 #
vertex $-1 $206 $379 #
vertex $-1 $206 $380 #
straight-curve $-1 62.706991790520945 0 8.0847806692172579 0 1 0 I I #
straight-curve $-1 0 -37.382746321964774 8.0847806692172579 1 0 0 I I #
coedge $-1 $381 $209 $375 $382 forward $211 $-1 #
edge $-1 $376 -29.510962502032115 $212 37.382746321964774 $209 $383 forward 7 unknown #
coedge $-1 $210 $381 $217 $309 reversed $211 $-1 #
point $-1 -62.706991790520945 -37.382746321964774 8.0847806692172579 #
point $-1 -62.706991790520945 -37.382746321964774 4.437783901991077 #
straight-curve $-1 -62.706991790520945 -33.446854411998444 4.437783901991077 0 1 0 I I #
coedge $-1 $218 $217 $291 $369 reversed $200 $-1 #
edge $-1 $219 -4.437783901991077 $384 8.0847806692172579 $304 $385 forward 7 unknown #
point $-1 -62.706991790520945 -29.510962502032115 4.437783901991077 #
vertex $-1 $222 $386 #
straight-curve $-1 62.706991790520945 -29.510962502032115 0 0 0 -1 I I #
straight-curve $-1 62.706991790520945 -37.382746321964774 6.2612822856041674 0 0 -1 I I #
plane-surface $-1 62.706991790520945 0 0 -1 0 0 0 0 1 forward_v I I I I #
face $-1 $387 $388 $17 $-1 $389 reversed single #
loop $-1 $-1 $390 $227 #
plane-surface $-1 0 -37.382746321964774 6.2612822856041674 0 1 0 0 0 1 forward_v I I I I #
coedge $-1 $391 $392 $393 $394 forward $228 $-1 #
coedge $-1 $230 $395 $396 $397 forward $140 $-1 #
coedge $-1 $396 $240 $231 $321 forward $242 $-1 #
edge $-1 $325 -50.16352780748894 $322 -44.484811906978443 $320 $398 forward 7 unknown #
vertex $-1 $321 $399 #
straight-curve $-1 -67.320749244304253 2.0014382014179599 8.0847806692172597 1 0 0 I I #
edge $-1 $238 -10.440684930303119 $325 4.8145204443796796 $240 $400 forward 7 unknown #
vertex $-1 $324 $401 #
straight-curve $-1 -62.706991790520959 2.0014382014179599 2.4060647687067558 0.81915203911291934 0 0.57357644374324357 I I #
point $-1 -54.596945152119538 2.0014382014179599 8.0847806692172579 #
point $-1 -62.706991790520945 -13.253767173264839 2.4060647687067656 #
coedge $-1 $241 $402 $390 $403 reversed $242 $-1 #
face $-1 $404 $242 $17 $-1 $405 reversed single #
coedge $-1 $395 $244 $406 $407 forward $140 $-1 #
coedge $-1 $390 $408 $244 $333 reversed $316 $-1 #
edge $-1 $334 -62.706991790520945 $409 62.706991790520945 $332 $410 forward 7 unknown #
vertex $-1 $245 $411 #
straight-curve $-1 -62.706991790520945 0 8.0847806692172579 0 -1 0 I I #
face $-1 $412 $413 $18 $-1 $414 reversed single #
loop $-1 $-1 $415 $248 #
plane-surface $-1 0 0 8.0847806692172579 0 0 1 1 0 0 forward_v I I I I #
coedge $-1 $416 $417 $415 $418 reversed $249 $-1 #
coedge $-1 $419 $341 $346 $420 reversed $251 $-1 #
coedge $-1 $340 $421 $252 $342 reversed $251 $-1 #
edge $-1 $347 -9.9005389123904255 $422 -1.7244671030687178e-014 $252 $423 forward 7 unknown #
coedge $-1 $424 $425 $253 $344 forward $426 $-1 #
edge $-1 $348 44.484811906978443 $422 50.16352780748894 $343 $427 forward 7 unknown #
coedge $-1 $428 $254 $425 $429 forward $337 $-1 #
coedge $-1 $254 $415 $340 $420 forward $337 $-1 #
vertex $-1 $420 $430 #
vertex $-1 $429 $431 #
straight-curve $-1 -67.320749244304253 -13.253767173264839 8.0847806692172597 -1 0 0 I I #
vertex $-1 $256 $432 #
point $-1 -54.074022757006311 -8.8951370662126088 1.3226089573918103 #
face $-1 $433 $434 $19 $-1 $435 forward single #
plane-surface $-1 -62.706991790520959 -5.6261644859234394 2.4060647687067558 -0.57357644374324357 0 0.81915203911291934 0.81915203911291934 0 0.57357644374324357 forward_v I I I I #
coedge $-1 $436 $437 $438 $439 reversed $261 $-1 #
coedge $-1 $355 $355 $-1 $440 forward $263 $-1 #
edge $-1 $441 0 $441 6.2831853071796004 $264 $442 forward 7 unknown #
vertex $-1 $267 $443 #
ellipse-curve $-1 -58.651968471320231 -8.8951370662126088 5.2454227189620184 0.57357644374324357 0 -0.81915203911291934 1.228728058669379 0 0.86036466561486535 1 I I #
vertex $-1 $268 $444 #
point $-1 -54.074022757006311 -2.3571919056342665 1.3226089573918103 #
loop $-1 $-1 $445 $260 #
straight-curve $-1 -62.706991790520945 29.510962502032115 0 0 0 -1 I I #
point $-1 -62.706991790520945 -29.510962502032115 -8.0847806692172579 #
straight-curve $-1 -62.706991790520945 0 -8.0847806692172579 0 1 0 I I #
point $-1 -62.706991790520945 29.510962502032115 -8.0847806692172579 #
loop $-1 $-1 $374 $289 #
plane-surface $-1 0 29.510962502032115 0 0 -1 0 0 0 -1 forward_v I I I I #
coedge $-1 $292 $291 $381 $446 forward $122 $-1 #
edge $-1 $311 -62.706991790520945 $384 62.706991790520945 $308 $447 forward 7 unknown #
coedge $-1 $375 $374 $292 $371 reversed $366 $-1 #
edge $-1 $448 -62.706991790520945 $372 62.706991790520945 $370 $449 forward 7 unknown #
vertex $-1 $293 $450 #
straight-curve $-1 62.706991790520945 0 -8.0847806692172579 0 -1 0 I I #
coedge $-1 $370 $295 $297 $378 forward $366 $-1 #
coedge $-1 $295 $370 $302 $382 reversed $366 $-1 #
vertex $-1 $296 $451 #
straight-curve $-1 0 29.510962502032115 8.0847806692172579 -1 0 0 I I #
edge $-1 $299 -8.0847806692172579 $372 8.0847806692172579 $297 $452 forward 7 unknown #
point $-1 62.706991790520945 -37.382746321964774 8.0847806692172579 #
point $-1 62.706991790520945 29.510962502032115 8.0847806692172579 #
coedge $-1 $304 $302 $368 $446 reversed $211 $-1 #
edge $-1 $376 -8.0847806692172579 $448 8.0847806692172579 $375 $453 forward 7 unknown #
straight-curve $-1 -62.706991790520945 0 8.0847806692172579 0 -1 0 I I #
vertex $-1 $446 $454 #
straight-curve $-1 -62.706991790520945 -29.510962502032115 0 0 0 -1 I I #
point $-1 62.706991790520945 -29.510962502032115 -8.0847806692172579 #
face $-1 $330 $455 $17 $-1 $456 reversed single #
loop $-1 $-1 $457 $315 #
plane-surface $-1 0 0 -8.0847806692172579 0 0 1 1 0 0 forward_v I I I I #
coedge $-1 $458 $332 $329 $403 forward $316 $-1 #
coedge $-1 $459 $318 $458 $460 forward $228 $-1 #
coedge $-1 $318 $459 $461 $462 reversed $228 $-1 #
coedge $-1 $463 $464 $318 $394 reversed $465 $-1 #
edge $-1 $466 -3.9358919099663296 $467 3.9358919099663296 $393 $468 forward 7 unknown #
coedge $-1 $319 $331 $469 $470 forward $140 $-1 #
coedge $-1 $471 $320 $319 $397 reversed $242 $-1 #
edge $-1 $472 -29.510962502032115 $322 -2.0014382014179599 $396 $335 forward 7 unknown #
straight-curve $-1 -62.706991790520945 2.0014382014179599 52.569592576195703 0 0 1 I I #
point $-1 -62.706991790520945 2.0014382014179599 8.0847806692172579 #
straight-curve $-1 -62.706991790520945 -2.8130822429617197 2.4060647687067673 0 1 0 I I #
point $-1 -62.706991790520945 2.0014382014179599 2.4060647687067656 #
coedge $-1 $329 $473 $459 $474 reversed $242 $-1 #
edge $-1 $334 -1.8234983836130905 $475 1.8234983836130905 $329 $476 forward 7 unknown #
face $-1 $477 $478 $17 $-1 $479 reversed single #
plane-surface $-1 -62.706991790520945 0 0 1 0 0 0 0 -1 forward_v I I I I #
coedge $-1 $464 $480 $331 $407 reversed $465 $-1 #
edge $-1 $409 -37.382746321964774 $481 29.510962502032115 $406 $482 forward 7 unknown #
coedge $-1 $332 $458 $464 $483 reversed $316 $-1 #
vertex $-1 $407 $484 #
straight-curve $-1 0 -37.382746321964774 8.0847806692172579 1 0 0 I I #
point $-1 -62.706991790520945 -37.382746321964774 8.0847806692172579 #
face $-1 $485 $486 $18 $-1 $487 reversed single #
loop $-1 $-1 $488 $336 #
plane-surface $-1 0 -33.446854411998444 4.437783901991077 0 0 1 1 0 0 forward_v I I I I #
coedge $-1 $346 $489 $339 $418 forward $337 $-1 #
coedge $-1 $417 $339 $490 $491 reversed $249 $-1 #
coedge $-1 $339 $416 $419 $492 forward $249 $-1 #
edge $-1 $493 4.6137574537833075 $494 12.723804092184714 $415 $495 forward 7 unknown #
coedge $-1 $421 $340 $417 $492 reversed $251 $-1 #
edge $-1 $494 -4.8145204443796796 $347 10.440684930303119 $346 $496 forward 7 unknown #
coedge $-1 $341 $419 $424 $497 reversed $251 $-1 #
vertex $-1 $497 $498 #
straight-curve $-1 -62.706991790520959 -13.253767173264839 2.4060647687067558 -0.81915203911291934 0 -0.57357644374324357 I I #
coedge $-1 $490 $343 $421 $497 forward $426 $-1 #
coedge $-1 $343 $499 $345 $429 reversed $426 $-1 #
loop $-1 $-1 $490 $500 #
straight-curve $-1 -62.706991790520945 -13.253767173264839 52.569592576195703 0 0 -1 I I #
coedge $-1 $501 $345 $502 $503 forward $337 $-1 #
edge $-1 $348 13.253767173264839 $504 37.382746321964774 $425 $505 forward 7 unknown #
point $-1 -54.596945152119538 -13.253767173264839 8.0847806692172579 #
point $-1 -62.706991790520945 -13.253767173264839 8.0847806692172579 #
point $-1 -54.442386150060827 -8.8951370662126088 -0.76648376689243403 #
face $-1 $506 $507 $19 $-1 $508 forward single #
loop $-1 $-1 $509 $352 #
plane-surface $-1 -134.64149848860851 2.0014382014179599 105.13918515239141 0 -1 0 0.57357644374324357 0 -0.81915203911291934 forward_v I I I I #
coedge $-1 $437 $354 $510 $511 forward $261 $-1 #
coedge $-1 $354 $436 $512 $513 reversed $261 $-1 #
coedge $-1 $514 $515 $354 $439 forward $507 $-1 #
edge $-1 $516 -12.723804092184714 $517 -4.6137574537833075 $438 $518 forward 7 unknown #
edge $-1 $519 1 $519 0 $355 $-1 forward 7 unknown #
vertex $-1 $356 $520 #
ellipse-curve $-1 -55.302750815675694 -8.8951370662126088 0.46224429177694493 -0.57357644374324357 0 0.81915203911291934 1.228728058669379 0 0.86036466561486535 1 I I #
point $-1 -57.423240412650841 -8.8951370662126088 6.1057873845768631 #
point $-1 -54.442386150060827 -2.3571919056342665 -0.76648376689243403 #
coedge $-1 $521 $510 $515 $522 reversed $361 $-1 #
edge $-1 $384 -29.510962502032115 $448 29.510962502032115 $381 $523 forward 7 unknown #
straight-curve $-1 0 -29.510962502032115 -8.0847806692172579 -1 0 0 I I #
vertex $-1 $371 $524 #
straight-curve $-1 0 29.510962502032115 -8.0847806692172579 1 0 0 I I #
point $-1 62.706991790520945 29.510962502032115 -8.0847806692172579 #
point $-1 -62.706991790520945 29.510962502032115 8.0847806692172579 #
straight-curve $-1 62.706991790520945 29.510962502032115 0 0 0 -1 I I #
straight-curve $-1 -62.706991790520945 29.510962502032115 0 0 0 -1 I I #
point $-1 -62.706991790520945 -29.510962502032115 -8.0847806692172579 #
loop $-1 $-1 $461 $387 #
plane-surface $-1 0 -29.510962502032115 0 0 1 0 0 0 1 forward_v I I I I #
coedge $-1 $525 $526 $527 $528 forward $388 $-1 #
coedge $-1 $408 $390 $391 $460 reversed $316 $-1 #
coedge $-1 $392 $391 $402 $474 forward $228 $-1 #
edge $-1 $467 -62.706991790520945 $475 62.706991790520945 $458 $529 forward 7 unknown #
coedge $-1 $530 $531 $392 $462 forward $455 $-1 #
edge $-1 $466 -62.706991790520945 $532 62.706991790520945 $461 $533 forward 7 unknown #
coedge $-1 $527 $393 $531 $534 forward $465 $-1 #
coedge $-1 $393 $406 $408 $483 forward $465 $-1 #
loop $-1 $-1 $463 $477 #
vertex $-1 $534 $535 #
vertex $-1 $483 $536 #
straight-curve $-1 62.706991790520945 -33.446854411998444 4.437783901991077 0 -1 0 I I #
coedge $-1 $537 $538 $395 $470 reversed $478 $-1 #
edge $-1 $481 -62.706991790520945 $472 62.706991790520945 $469 $539 forward 7 unknown #
coedge $-1 $540 $396 $538 $541 forward $242 $-1 #
vertex $-1 $470 $542 #
coedge $-1 $402 $540 $530 $543 reversed $242 $-1 #
edge $-1 $475 -3.9358919099663296 $532 3.9358919099663296 $402 $544 forward 7 unknown #
vertex $-1 $474 $545 #
straight-curve $-1 -62.706991790520945 -37.382746321964774 6.2612822856041674 0 0 -1 I I #
face $-1 $-1 $465 $17 $-1 $546 reversed single #
loop $-1 $-1 $537 $404 #
plane-surface $-1 0 29.510962502032115 0 0 -1 0 0 0 -1 forward_v I I I I #
coedge $-1 $406 $527 $537 $547 reversed $465 $-1 #
vertex $-1 $407 $548 #
straight-curve $-1 62.706991790520945 0 8.0847806692172579 0 1 0 I I #
edge $-1 $409 -1.8234983836130905 $467 1.8234983836130905 $464 $549 forward 7 unknown #
point $-1 62.706991790520945 -37.382746321964774 8.0847806692172579 #
face $-1 $550 $551 $18 $-1 $552 reversed single #
loop $-1 $-1 $553 $412 #
plane-surface $-1 0 -37.382746321964774 6.2612822856041674 0 1 0 0 0 1 forward_v I I I I #
coedge $-1 $554 $555 $556 $557 forward $413 $-1 #
coedge $-1 $415 $558 $559 $560 forward $337 $-1 #
coedge $-1 $559 $424 $416 $491 forward $426 $-1 #
edge $-1 $561 -50.16352780748894 $493 -44.484811906978443 $490 $562 forward 7 unknown #
edge $-1 $561 1.7244671030687178e-014 $494 9.9005389123904255 $417 $563 forward 7 unknown #
vertex $-1 $491 $564 #
vertex $-1 $420 $565 #
straight-curve $-1 -67.320749244304253 2.0014382014179599 8.0847806692172597 1 0 0 I I #
straight-curve $-1 -54.596945152119531 -2.8130822429617197 8.0847806692172597 0 -1 0 I I #
edge $-1 $422 -10.440684930303119 $561 4.8145204443796796 $424 $566 forward 7 unknown #
point $-1 -62.706991790520945 -13.253767173264839 2.4060647687067656 #
coedge $-1 $425 $567 $553 $568 reversed $426 $-1 #
face $-1 $569 $426 $18 $-1 $570 reversed single #
coedge $-1 $558 $428 $571 $572 forward $337 $-1 #
coedge $-1 $553 $573 $428 $503 reversed $486 $-1 #
edge $-1 $504 -62.706991790520945 $574 62.706991790520945 $502 $575 forward 7 unknown #
vertex $-1 $429 $576 #
straight-curve $-1 -62.706991790520945 0 8.0847806692172579 0 -1 0 I I #
face $-1 $577 $578 $19 $-1 $579 reversed single #
loop $-1 $-1 $580 $433 #
plane-surface $-1 0 0 8.0847806692172579 0 0 1 1 0 0 forward_v I I I I #
coedge $-1 $581 $582 $580 $583 reversed $434 $-1 #
coedge $-1 $445 $584 $436 $511 reversed $361 $-1 #
edge $-1 $516 -9.9005389123904255 $585 -1.7244671030687178e-014 $436 $586 forward 7 unknown #
coedge $-1 $587 $588 $437 $513 forward $589 $-1 #
edge $-1 $517 44.484811906978443 $585 50.16352780748894 $512 $590 forward 7 unknown #
coedge $-1 $591 $438 $588 $592 forward $507 $-1 #
coedge $-1 $438 $580 $445 $522 forward $507 $-1 #
vertex $-1 $522 $593 #
vertex $-1 $592 $594 #
straight-curve $-1 -67.320749244304253 -13.253767173264839 8.0847806692172597 -1 0 0 I I #
vertex $-1 $440 $595 #
point $-1 -54.074022757006311 -8.8951370662126088 1.3226089573918103 #
coedge $-1 $584 $445 $582 $596 reversed $361 $-1 #
edge $-1 $597 -4.8145204443796796 $516 10.440684930303119 $515 $598 forward 7 unknown #
straight-curve $-1 -62.706991790520945 0 -8.0847806692172579 0 1 0 I I #
point $-1 -62.706991790520945 29.510962502032115 -8.0847806692172579 #
coedge $-1 $599 $457 $600 $601 forward $388 $-1 #
coedge $-1 $457 $599 $602 $603 forward $388 $-1 #
coedge $-1 $480 $463 $457 $528 reversed $465 $-1 #
edge $-1 $604 -29.510962502032115 $605 29.510962502032115 $527 $606 forward 7 unknown #
straight-curve $-1 0 -37.382746321964774 4.437783901991077 -1 0 0 I I #
coedge $-1 $600 $461 $473 $543 forward $455 $-1 #
coedge $-1 $461 $600 $463 $534 reversed $455 $-1 #
vertex $-1 $543 $607 #
straight-curve $-1 0 -29.510962502032115 4.437783901991077 -1 0 0 I I #
edge $-1 $466 -4.437783901991077 $605 8.0847806692172579 $463 $608 forward 7 unknown #
point $-1 62.706991790520945 -29.510962502032115 4.437783901991077 #
point $-1 62.706991790520945 -37.382746321964774 4.437783901991077 #
coedge $-1 $602 $469 $480 $547 forward $478 $-1 #
coedge $-1 $469 $602 $471 $541 reversed $478 $-1 #
straight-curve $-1 0 29.510962502032115 8.0847806692172579 -1 0 0 I I #
coedge $-1 $473 $471 $599 $609 reversed $242 $-1 #
edge $-1 $472 -8.0847806692172579 $610 8.0847806692172579 $538 $611 forward 7 unknown #
point $-1 -62.706991790520945 29.510962502032115 8.0847806692172579 #
edge $-1 $532 -4.437783901991077 $612 8.0847806692172579 $473 $613 forward 7 unknown #
straight-curve $-1 -62.706991790520945 -33.446854411998444 4.437783901991077 0 1 0 I I #
point $-1 -62.706991790520945 -37.382746321964774 4.437783901991077 #
plane-surface $-1 62.706991790520945 0 0 -1 0 0 0 0 1 forward_v I I I I #
edge $-1 $481 -8.0847806692172579 $604 8.0847806692172579 $480 $614 forward 7 unknown #
point $-1 62.706991790520945 29.510962502032115 8.0847806692172579 #
straight-curve $-1 62.706991790520945 -37.382746321964774 6.2612822856041674 0 0 -1 I I #
face $-1 $500 $615 $18 $-1 $616 reversed single #
loop $-1 $-1 $617 $485 #
plane-surface $-1 0 0 -8.0847806692172579 0 0 1 1 0 0 forward_v I I I I #
coedge $-1 $618 $502 $499 $568 forward $486 $-1 #
coedge $-1 $619 $488 $618 $620 forward $413 $-1 #
coedge $-1 $488 $619 $621 $622 reversed $413 $-1 #
coedge $-1 $623 $624 $488 $557 reversed $625 $-1 #
edge $-1 $626 -3.9358919099663296 $627 3.9358919099663296 $556 $628 forward 7 unknown #
coedge $-1 $489 $501 $629 $630 forward $337 $-1 #
coedge $-1 $631 $490 $489 $560 reversed $426 $-1 #
edge $-1 $632 -29.510962502032115 $493 -2.0014382014179599 $559 $505 forward 7 unknown #
vertex $-1 $497 $633 #
straight-curve $-1 -62.706991790520945 2.0014382014179599 52.569592576195703 0 0 1 I I #
straight-curve $-1 -62.706991790520959 2.0014382014179599 2.4060647687067558 0.81915203911291934 0 0.57357644374324357 I I #
point $-1 -62.706991790520945 2.0014382014179599 8.0847806692172579 #
point $-1 -54.596945152119538 2.0014382014179599 8.0847806692172579 #
straight-curve $-1 -62.706991790520945 -2.8130822429617197 2.4060647687067673 0 1 0 I I #
coedge $-1 $499 $634 $619 $635 reversed $426 $-1 #
edge $-1 $504 -1.8234983836130905 $636 1.8234983836130905 $499 $637 forward 7 unknown #
face $-1 $638 $639 $18 $-1 $640 reversed single #
plane-surface $-1 -62.706991790520945 0 0 1 0 0 0 0 -1 forward_v I I I I #
coedge $-1 $624 $641 $501 $572 reversed $625 $-1 #
edge $-1 $574 -37.382746321964774 $642 29.510962502032115 $571 $643 forward 7 unknown #
coedge $-1 $502 $618 $624 $644 reversed $486 $-1 #
vertex $-1 $572 $645 #
straight-curve $-1 0 -37.382746321964774 8.0847806692172579 1 0 0 I I #
point $-1 -62.706991790520945 -37.382746321964774 8.0847806692172579 #
face $-1 $646 $647 $19 $-1 $648 reversed single #
loop $-1 $-1 $649 $506 #
plane-surface $-1 0 -33.446854411998444 4.437783901991077 0 0 1 1 0 0 forward_v I I I I #
coedge $-1 $515 $650 $509 $583 forward $507 $-1 #
coedge $-1 $582 $509 $651 $652 reversed $434 $-1 #
coedge $-1 $509 $581 $521 $596 forward $434 $-1 #
edge $-1 $653 4.6137574537833075 $597 12.723804092184714 $580 $654 forward 7 unknown #
coedge $-1 $510 $521 $587 $655 reversed $361 $-1 #
vertex $-1 $655 $656 #
straight-curve $-1 -62.706991790520959 -13.253767173264839 2.4060647687067558 -0.81915203911291934 0 -0.57357644374324357 I I #
coedge $-1 $651 $512 $584 $655 forward $589 $-1 #
coedge $-1 $512 $657 $514 $592 reversed $589 $-1 #
loop $-1 $-1 $651 $658 #
straight-curve $-1 -62.706991790520945 -13.253767173264839 52.569592576195703 0 0 -1 I I #
coedge $-1 $659 $514 $660 $661 forward $507 $-1 #
edge $-1 $517 13.253767173264839 $662 37.382746321964774 $588 $663 forward 7 unknown #
point $-1 -54.596945152119538 -13.253767173264839 8.0847806692172579 #
point $-1 -62.706991790520945 -13.253767173264839 8.0847806692172579 #
point $-1 -54.442386150060827 -8.8951370662126088 -0.76648376689243403 #
edge $-1 $664 1.7244671030687178e-014 $597 9.9005389123904255 $582 $665 forward 7 unknown #
vertex $-1 $522 $666 #
straight-curve $-1 -54.596945152119531 -2.8130822429617197 8.0847806692172597 0 -1 0 I I #
coedge $-1 $526 $525 $540 $609 forward $388 $-1 #
coedge $-1 $531 $530 $525 $601 reversed $455 $-1 #
edge $-1 $605 -62.706991790520945 $612 62.706991790520945 $600 $667 forward 7 unknown #
coedge $-1 $538 $537 $526 $603 reversed $478 $-1 #
edge $-1 $610 -62.706991790520945 $604 62.706991790520945 $602 $668 forward 7 unknown #
vertex $-1 $528 $669 #
vertex $-1 $534 $670 #
straight-curve $-1 62.706991790520945 0 -8.0847806692172579 0 -1 0 I I #
point $-1 -62.706991790520945 -29.510962502032115 4.437783901991077 #
straight-curve $-1 62.706991790520945 -29.510962502032115 0 0 0 -1 I I #
edge $-1 $612 -29.510962502032115 $610 29.510962502032115 $540 $671 forward 7 unknown #
vertex $-1 $603 $672 #
straight-curve $-1 -62.706991790520945 29.510962502032115 0 0 0 -1 I I #
vertex $-1 $609 $673 #
straight-curve $-1 -62.706991790520945 -29.510962502032115 0 0 0 -1 I I #
straight-curve $-1 62.706991790520945 29.510962502032115 0 0 0 -1 I I #
loop $-1 $-1 $621 $550 #
plane-surface $-1 0 -29.510962502032115 0 0 1 0 0 0 1 forward_v I I I I #
coedge $-1 $674 $675 $676 $677 forward $551 $-1 #
coedge $-1 $573 $553 $554 $620 reversed $486 $-1 #
coedge $-1 $555 $554 $567 $635 forward $413 $-1 #
edge $-1 $627 -62.706991790520945 $636 62.706991790520945 $618 $678 forward 7 unknown #
coedge $-1 $679 $680 $555 $622 forward $615 $-1 #
edge $-1 $626 -62.706991790520945 $681 62.706991790520945 $621 $682 forward 7 unknown #
coedge $-1 $676 $556 $680 $683 forward $625 $-1 #
coedge $-1 $556 $571 $573 $644 forward $625 $-1 #
loop $-1 $-1 $623 $638 #
vertex $-1 $683 $684 #
vertex $-1 $644 $685 #
straight-curve $-1 62.706991790520945 -33.446854411998444 4.437783901991077 0 -1 0 I I #
coedge $-1 $686 $687 $558 $630 reversed $639 $-1 #
edge $-1 $642 -62.706991790520945 $632 62.706991790520945 $629 $688 forward 7 unknown #
coedge $-1 $689 $559 $687 $690 forward $426 $-1 #
vertex $-1 $630 $691 #
point $-1 -62.706991790520945 2.0014382014179599 2.4060647687067656 #
coedge $-1 $567 $689 $679 $692 reversed $426 $-1 #
edge $-1 $636 -3.9358919099663296 $681 3.9358919099663296 $567 $693 forward 7 unknown #
vertex $-1 $635 $694 #
straight-curve $-1 -62.706991790520945 -37.382746321964774 6.2612822856041674 0 0 -1 I I #
face $-1 $-1 $625 $18 $-1 $695 reversed single #
loop $-1 $-1 $686 $569 #
plane-surface $-1 0 29.510962502032115 0 0 -1 0 0 0 -1 forward_v I I I I #
coedge $-1 $571 $676 $686 $696 reversed $625 $-1 #
vertex $-1 $572 $697 #
straight-curve $-1 62.706991790520945 0 8.0847806692172579 0 1 0 I I #
edge $-1 $574 -1.8234983836130905 $627 1.8234983836130905 $624 $698 forward 7 unknown #
point $-1 62.706991790520945 -37.382746321964774 8.0847806692172579 #
face $-1 $699 $700 $19 $-1 $701 reversed single #
loop $-1 $-1 $702 $577 #
plane-surface $-1 0 -37.382746321964774 6.2612822856041674 0 1 0 0 0 1 forward_v I I I I #
coedge $-1 $703 $704 $705 $706 forward $578 $-1 #
coedge $-1 $580 $707 $708 $709 forward $507 $-1 #
coedge $-1 $708 $587 $581 $652 forward $589 $-1 #
edge $-1 $664 -50.16352780748894 $653 -44.484811906978443 $651 $710 forward 7 unknown #
vertex $-1 $652 $711 #
straight-curve $-1 -67.320749244304253 2.0014382014179599 8.0847806692172597 1 0 0 I I #
edge $-1 $585 -10.440684930303119 $664 4.8145204443796796 $587 $712 forward 7 unknown #
point $-1 -62.706991790520945 -13.253767173264839 2.4060647687067656 #
coedge $-1 $588 $713 $702 $714 reversed $589 $-1 #
face $-1 $715 $589 $19 $-1 $716 reversed single #
coedge $-1 $707 $591 $717 $718 forward $507 $-1 #
coedge $-1 $702 $719 $591 $661 reversed $647 $-1 #
edge $-1 $662 -62.706991790520945 $720 62.706991790520945 $660 $721 forward 7 unknown #
vertex $-1 $592 $722 #
straight-curve $-1 -62.706991790520945 0 8.0847806692172579 0 -1 0 I I #
vertex $-1 $655 $723 #
straight-curve $-1 -62.706991790520959 2.0014382014179599 2.4060647687067558 0.81915203911291934 0 0.57357644374324357 I I #
point $-1 -54.596945152119538 2.0014382014179599 8.0847806692172579 #
straight-curve $-1 0 -29.510962502032115 -8.0847806692172579 -1 0 0 I I #
straight-curve $-1 0 29.510962502032115 -8.0847806692172579 1 0 0 I I #
point $-1 62.706991790520945 29.510962502032115 -8.0847806692172579 #
point $-1 62.706991790520945 -29.510962502032115 -8.0847806692172579 #
straight-curve $-1 -62.706991790520945 0 -8.0847806692172579 0 1 0 I I #
point $-1 -62.706991790520945 29.510962502032115 -8.0847806692172579 #
point $-1 -62.706991790520945 -29.510962502032115 -8.0847806692172579 #
coedge $-1 $724 $617 $725 $726 forward $551 $-1 #
coedge $-1 $617 $724 $727 $728 forward $551 $-1 #
coedge $-1 $641 $623 $617 $677 reversed $625 $-1 #
edge $-1 $729 -29.510962502032115 $730 29.510962502032115 $676 $731 forward 7 unknown #
straight-curve $-1 0 -37.382746321964774 4.437783901991077 -1 0 0 I I #
coedge $-1 $725 $621 $634 $692 forward $615 $-1 #
coedge $-1 $621 $725 $623 $683 reversed $615 $-1 #
vertex $-1 $692 $732 #
straight-curve $-1 0 -29.510962502032115 4.437783901991077 -1 0 0 I I #
edge $-1 $626 -4.437783901991077 $730 8.0847806692172579 $623 $733 forward 7 unknown #
point $-1 62.706991790520945 -29.510962502032115 4.437783901991077 #
point $-1 62.706991790520945 -37.382746321964774 4.437783901991077 #
coedge $-1 $727 $629 $641 $696 forward $639 $-1 #
coedge $-1 $629 $727 $631 $690 reversed $639 $-1 #
straight-curve $-1 0 29.510962502032115 8.0847806692172579 -1 0 0 I I #
coedge $-1 $634 $631 $724 $734 reversed $426 $-1 #
edge $-1 $632 -8.0847806692172579 $735 8.0847806692172579 $687 $736 forward 7 unknown #
point $-1 -62.706991790520945 29.510962502032115 8.0847806692172579 #
edge $-1 $681 -4.437783901991077 $737 8.0847806692172579 $634 $738 forward 7 unknown #
straight-curve $-1 -62.706991790520945 -33.446854411998444 4.437783901991077 0 1 0 I I #
point $-1 -62.706991790520945 -37.382746321964774 4.437783901991077 #
plane-surface $-1 62.706991790520945 0 0 -1 0 0 0 0 1 forward_v I I I I #
edge $-1 $642 -8.0847806692172579 $729 8.0847806692172579 $641 $739 forward 7 unknown #
point $-1 62.706991790520945 29.510962502032115 8.0847806692172579 #
straight-curve $-1 62.706991790520945 -37.382746321964774 6.2612822856041674 0 0 -1 I I #
face $-1 $658 $740 $19 $-1 $741 reversed single #
loop $-1 $-1 $742 $646 #
plane-surface $-1 0 0 -8.0847806692172579 0 0 1 1 0 0 forward_v I I I I #
coedge $-1 $743 $660 $657 $714 forward $647 $-1 #
coedge $-1 $744 $649 $743 $745 forward $578 $-1 #
coedge $-1 $649 $744 $746 $747 reversed $578 $-1 #
coedge $-1 $748 $749 $649 $706 reversed $750 $-1 #
edge $-1 $751 -3.9358919099663296 $752 3.9358919099663296 $705 $753 forward 7 unknown #
coedge $-1 $650 $659 $754 $755 forward $507 $-1 #
coedge $-1 $756 $651 $650 $709 reversed $589 $-1 #
edge $-1 $757 -29.510962502032115 $653 -2.0014382014179599 $708 $663 forward 7 unknown #
straight-curve $-1 -62.706991790520945 2.0014382014179599 52.569592576195703 0 0 1 I I #
point $-1 -62.706991790520945 2.0014382014179599 8.0847806692172579 #
straight-curve $-1 -62.706991790520945 -2.8130822429617197 2.4060647687067673 0 1 0 I I #
coedge $-1 $657 $758 $744 $759 reversed $589 $-1 #
edge $-1 $662 -1.8234983836130905 $760 1.8234983836130905 $657 $761 forward 7 unknown #
face $-1 $762 $763 $19 $-1 $764 reversed single #
plane-surface $-1 -62.706991790520945 0 0 1 0 0 0 0 -1 forward_v I I I I #
coedge $-1 $749 $765 $659 $718 reversed $750 $-1 #
edge $-1 $720 -37.382746321964774 $766 29.510962502032115 $717 $767 forward 7 unknown #
coedge $-1 $660 $743 $749 $768 reversed $647 $-1 #
vertex $-1 $718 $769 #
straight-curve $-1 0 -37.382746321964774 8.0847806692172579 1 0 0 I I #
point $-1 -62.706991790520945 -37.382746321964774 8.0847806692172579 #
point $-1 -62.706991790520945 2.0014382014179599 2.4060647687067656 #
coedge $-1 $675 $674 $689 $734 forward $551 $-1 #
coedge $-1 $680 $679 $674 $726 reversed $615 $-1 #
edge $-1 $730 -62.706991790520945 $737 62.706991790520945 $725 $770 forward 7 unknown #
coedge $-1 $687 $686 $675 $728 reversed $639 $-1 #
edge $-1 $735 -62.706991790520945 $729 62.706991790520945 $727 $771 forward 7 unknown #
vertex $-1 $677 $772 #
vertex $-1 $683 $773 #
straight-curve $-1 62.706991790520945 0 -8.0847806692172579 0 -1 0 I I #
point $-1 -62.706991790520945 -29.510962502032115 4.437783901991077 #
straight-curve $-1 62.706991790520945 -29.510962502032115 0 0 0 -1 I I #
edge $-1 $737 -29.510962502032115 $735 29.510962502032115 $689 $774 forward 7 unknown #
vertex $-1 $728 $775 #
straight-curve $-1 -62.706991790520945 29.510962502032115 0 0 0 -1 I I #
vertex $-1 $734 $776 #
straight-curve $-1 -62.706991790520945 -29.510962502032115 0 0 0 -1 I I #
straight-curve $-1 62.706991790520945 29.510962502032115 0 0 0 -1 I I #
loop $-1 $-1 $746 $699 #
plane-surface $-1 0 -29.510962502032115 0 0 1 0 0 0 1 forward_v I I I I #
coedge $-1 $777 $778 $779 $780 forward $700 $-1 #
coedge $-1 $719 $702 $703 $745 reversed $647 $-1 #
coedge $-1 $704 $703 $713 $759 forward $578 $-1 #
edge $-1 $752 -62.706991790520945 $760 62.706991790520945 $743 $781 forward 7 unknown #
coedge $-1 $782 $783 $704 $747 forward $740 $-1 #
edge $-1 $751 -62.706991790520945 $784 62.706991790520945 $746 $785 forward 7 unknown #
coedge $-1 $779 $705 $783 $786 forward $750 $-1 #
coedge $-1 $705 $717 $719 $768 forward $750 $-1 #
loop $-1 $-1 $748 $762 #
vertex $-1 $786 $787 #
vertex $-1 $768 $788 #
straight-curve $-1 62.706991790520945 -33.446854411998444 4.437783901991077 0 -1 0 I I #
coedge $-1 $789 $790 $707 $755 reversed $763 $-1 #
edge $-1 $766 -62.706991790520945 $757 62.706991790520945 $754 $791 forward 7 unknown #
coedge $-1 $792 $708 $790 $793 forward $589 $-1 #
vertex $-1 $755 $794 #
coedge $-1 $713 $792 $782 $795 reversed $589 $-1 #
edge $-1 $760 -3.9358919099663296 $784 3.9358919099663296 $713 $796 forward 7 unknown #
vertex $-1 $759 $797 #
straight-curve $-1 -62.706991790520945 -37.382746321964774 6.2612822856041674 0 0 -1 I I #
face $-1 $-1 $750 $19 $-1 $798 reversed single #
loop $-1 $-1 $789 $715 #
plane-surface $-1 0 29.510962502032115 0 0 -1 0 0 0 -1 forward_v I I I I #
coedge $-1 $717 $779 $789 $799 reversed $750 $-1 #
vertex $-1 $718 $800 #
straight-curve $-1 62.706991790520945 0 8.0847806692172579 0 1 0 I I #
edge $-1 $720 -1.8234983836130905 $752 1.8234983836130905 $749 $801 forward 7 unknown #
point $-1 62.706991790520945 -37.382746321964774 8.0847806692172579 #
straight-curve $-1 0 -29.510962502032115 -8.0847806692172579 -1 0 0 I I #
straight-curve $-1 0 29.510962502032115 -8.0847806692172579 1 0 0 I I #
point $-1 62.706991790520945 29.510962502032115 -8.0847806692172579 #
point $-1 62.706991790520945 -29.510962502032115 -8.0847806692172579 #
straight-curve $-1 -62.706991790520945 0 -8.0847806692172579 0 1 0 I I #
point $-1 -62.706991790520945 29.510962502032115 -8.0847806692172579 #
point $-1 -62.706991790520945 -29.510962502032115 -8.0847806692172579 #
coedge $-1 $802 $742 $803 $804 forward $700 $-1 #
coedge $-1 $742 $802 $805 $806 forward $700 $-1 #
coedge $-1 $765 $748 $742 $780 reversed $750 $-1 #
edge $-1 $807 -29.510962502032115 $808 29.510962502032115 $779 $809 forward 7 unknown #
straight-curve $-1 0 -37.382746321964774 4.437783901991077 -1 0 0 I I #
coedge $-1 $803 $746 $758 $795 forward $740 $-1 #
coedge $-1 $746 $803 $748 $786 reversed $740 $-1 #
vertex $-1 $795 $810 #
straight-curve $-1 0 -29.510962502032115 4.437783901991077 -1 0 0 I I #
edge $-1 $751 -4.437783901991077 $808 8.0847806692172579 $748 $811 forward 7 unknown #
point $-1 62.706991790520945 -29.510962502032115 4.437783901991077 #
point $-1 62.706991790520945 -37.382746321964774 4.437783901991077 #
coedge $-1 $805 $754 $765 $799 forward $763 $-1 #
coedge $-1 $754 $805 $756 $793 reversed $763 $-1 #
straight-curve $-1 0 29.510962502032115 8.0847806692172579 -1 0 0 I I #
coedge $-1 $758 $756 $802 $812 reversed $589 $-1 #
edge $-1 $757 -8.0847806692172579 $813 8.0847806692172579 $790 $814 forward 7 unknown #
point $-1 -62.706991790520945 29.510962502032115 8.0847806692172579 #
edge $-1 $784 -4.437783901991077 $815 8.0847806692172579 $758 $816 forward 7 unknown #
straight-curve $-1 -62.706991790520945 -33.446854411998444 4.437783901991077 0 1 0 I I #
point $-1 -62.706991790520945 -37.382746321964774 4.437783901991077 #
plane-surface $-1 62.706991790520945 0 0 -1 0 0 0 0 1 forward_v I I I I #
edge $-1 $766 -8.0847806692172579 $807 8.0847806692172579 $765 $817 forward 7 unknown #
point $-1 62.706991790520945 29.510962502032115 8.0847806692172579 #
straight-curve $-1 62.706991790520945 -37.382746321964774 6.2612822856041674 0 0 -1 I I #
coedge $-1 $778 $777 $792 $812 forward $700 $-1 #
coedge $-1 $783 $782 $777 $804 reversed $740 $-1 #
edge $-1 $808 -62.706991790520945 $815 62.706991790520945 $803 $818 forward 7 unknown #
coedge $-1 $790 $789 $778 $806 reversed $763 $-1 #
edge $-1 $813 -62.706991790520945 $807 62.706991790520945 $805 $819 forward 7 unknown #
vertex $-1 $780 $820 #
vertex $-1 $786 $821 #
straight-curve $-1 62.706991790520945 0 -8.0847806692172579 0 -1 0 I I #
point $-1 -62.706991790520945 -29.510962502032115 4.437783901991077 #
straight-curve $-1 62.706991790520945 -29.510962502032115 0 0 0 -1 I I #
edge $-1 $815 -29.510962502032115 $813 29.510962502032115 $792 $822 forward 7 unknown #
vertex $-1 $806 $823 #
straight-curve $-1 -62.706991790520945 29.510962502032115 0 0 0 -1 I I #
vertex $-1 $812 $824 #
straight-curve $-1 -62.706991790520945 -29.510962502032115 0 0 0 -1 I I #
straight-curve $-1 62.706991790520945 29.510962502032115 0 0 0 -1 I I #
straight-curve $-1 0 -29.510962502032115 -8.0847806692172579 -1 0 0 I I #
straight-curve $-1 0 29.510962502032115 -8.0847806692172579 1 0 0 I I #
point $-1 62.706991790520945 29.510962502032115 -8.0847806692172579 #
point $-1 62.706991790520945 -29.510962502032115 -8.0847806692172579 #
straight-curve $-1 -62.706991790520945 0 -8.0847806692172579 0 1 0 I I #
point $-1 -62.706991790520945 29.510962502032115 -8.0847806692172579 #
point $-1 -62.706991790520945 -29.510962502032115 -8.0847806692172579 #
End-of-ACIS-data 