500 0 8 0           
7 Unknown 11 ACIS 5.0 NT 24 Fri Mar 26 16:31:08 1999 
-1 9.9999999999999995e-007 1e-010 
body $-1 $8 $-1 $9 #
body $-1 $10 $-1 $11 #
body $-1 $12 $-1 $13 #
body $-1 $14 $-1 $15 #
body $-1 $16 $-1 $17 #
body $-1 $18 $-1 $19 #
body $-1 $20 $-1 $21 #
body $-1 $22 $-1 $23 #
lump $-1 $-1 $24 $0 #
transform $-1 1 0 0 0 1 0 0 0 1 56.721701712088382 37.340214579331182 8.8601388089938045 1 rotate no_reflect no_shear #
lump $-1 $-1 $25 $1 #
transform $-1 1 0 0 0 1 0 0 0 1 56.721701712088382 37.340214579331182 8.8601388089938045 1 rotate no_reflect no_shear #
lump $-1 $-1 $26 $2 #
transform $-1 1 0 0 0 1 0 0 0 1 56.721701712088382 37.340214579331182 8.8601388089938045 1 rotate no_reflect no_shear #
lump $-1 $-1 $27 $3 #
transform $-1 1 0 0 0 1 0 0 0 1 56.721701712088382 37.340214579331182 8.8601388089938045 1 rotate no_reflect no_shear #
lump $-1 $-1 $28 $4 #
transform $-1 1 0 0 0 1 0 0 0 1 56.721701712088382 37.340214579331182 8.8601388089938045 1 rotate no_reflect no_shear #
lump $-1 $-1 $29 $5 #
transform $-1 1 0 0 0 1 0 0 0 1 56.721701712088382 37.340214579331182 8.8601388089938045 1 rotate no_reflect no_shear #
lump $-1 $-1 $30 $6 #
transform $-1 1 0 0 0 1 0 0 0 1 56.721701712088382 37.340214579331182 8.8601388089938045 1 rotate no_reflect no_shear #
lump $-1 $-1 $31 $7 #
transform $-1 1 0 0 0 1 0 0 0 1 56.721701712088382 37.340214579331182 8.8601388089938045 1 rotate no_reflect no_shear #
shell $-1 $-1 $-1 $32 $-1 $8 #
shell $-1 $-1 $-1 $33 $-1 $10 #
shell $-1 $-1 $-1 $34 $-1 $12 #
shell $-1 $-1 $-1 $35 $-1 $14 #
shell $-1 $-1 $-1 $36 $-1 $16 #
shell $-1 $-1 $-1 $37 $-1 $18 #
shell $-1 $-1 $-1 $38 $-1 $20 #
shell $-1 $-1 $-1 $39 $-1 $22 #
face $-1 $40 $41 $24 $-1 $42 forward single #
face $-1 $43 $44 $25 $-1 $45 forward single #
face $-1 $46 $47 $26 $-1 $48 reversed single #
face $-1 $49 $50 $27 $-1 $51 forward single #
face $-1 $52 $53 $28 $-1 $54 reversed single #
face $-1 $55 $56 $29 $-1 $57 forward single #
face $-1 $58 $59 $30 $-1 $60 reversed single #
face $-1 $61 $62 $31 $-1 $63 forward single #
face $-1 $64 $65 $24 $-1 $66 reversed single #
loop $-1 $-1 $67 $32 #
plane-surface $-1 0 0 8.8601388089938045 0 0 1 1 0 0 forward_v I I I I #
face $-1 $68 $69 $25 $-1 $70 forward single #
loop $-1 $-1 $71 $33 #
plane-surface $-1 0 -37.340214579331182 0 0 1 0 0 0 1 forward_v I I I I #
face $-1 $72 $73 $26 $-1 $74 reversed single #
loop $-1 $-1 $75 $34 #
plane-surface $-1 -116.83754738050152 -12.50121768043201 100.28557919762824 0 1 0 -0.52991927123019833 0 0.84804809178421925 forward_v I I I I #
face $-1 $76 $77 $27 $-1 $78 forward single #
loop $-1 $79 $80 $35 #
cone-surface $-1 -51.671550920483369 -4.3632305454046829 4.509183501361262 0.52991927123019833 0 -0.84804809178421925 1.2720721376763289 0 0.79487890684529749 1 I I 0 1 1.5 forward I I I I #
face $-1 $81 $82 $28 $-1 $83 reversed single #
loop $-1 $-1 $84 $36 #
plane-surface $-1 -56.72170171208839 -4.3632305454046829 4.0801173982477792 -0.52991927123019833 0 0.84804809178421925 0.84804809178421925 0 0.52991927123019833 forward_v I I I I #
face $-1 $85 $86 $29 $-1 $87 forward single #
loop $-1 $88 $89 $37 #
cone-surface $-1 -51.671550920483369 11.912743724649971 4.509183501361262 0.52991927123019833 0 -0.84804809178421925 1.2720721376763289 0 0.79487890684529749 1 I I 0 1 1.5 forward I I I I #
face $-1 $90 $91 $30 $-1 $92 reversed single #
loop $-1 $-1 $93 $38 #
plane-surface $-1 20.632085581121039 21.583329148039461 156.33400529961946 0 -1 0 -0.52991927123019833 0 -0.84804809178421925 forward_v I I I I #
face $-1 $94 $95 $31 $-1 $96 forward single #
loop $-1 $97 $98 $39 #
cone-surface $-1 47.826696912270727 16.164731072897972 1.5308953559619574 -0.52991927123019833 0 -0.84804809178421925 1.6960961835684385 0 -1.0598385424603967 1 I I 0 1 2 forward I I I I #
face $-1 $99 $100 $24 $-1 $101 reversed single #
loop $-1 $-1 $102 $40 #
plane-surface $-1 0 0 -8.8601388089938045 0 0 1 1 0 0 forward_v I I I I #
coedge $-1 $103 $104 $105 $106 forward $41 $-1 #
face $-1 $107 $108 $25 $-1 $109 reversed single #
loop $-1 $-1 $110 $43 #
plane-surface $-1 0 0 8.8601388089938045 0 0 1 1 0 0 forward_v I I I I #
coedge $-1 $111 $112 $113 $114 forward $44 $-1 #
face $-1 $115 $116 $26 $-1 $117 reversed single #
loop $-1 $-1 $118 $46 #
plane-surface $-1 -56.72170171208839 -4.3632305454046829 4.0801173982477792 -0.52991927123019833 0 0.84804809178421925 0.84804809178421925 0 0.52991927123019833 forward_v I I I I #
coedge $-1 $119 $120 $121 $122 reversed $47 $-1 #
face $-1 $-1 $123 $27 $-1 $124 forward single #
loop $-1 $125 $126 $49 #
cone-surface $-1 -50.048777261820199 -4.3632305454046829 1.9122028302635723 0.52991927123019833 0 -0.84804809178421925 0.63603606883816444 0 0.39743945342264875 1 I I -0.70710678118654757 0.70710678118654757 0.75 forward I I I I #
loop $-1 $-1 $127 $35 #
coedge $-1 $80 $80 $128 $129 reversed $50 $-1 #
face $-1 $130 $131 $28 $-1 $132 forward single #
loop $-1 $-1 $133 $52 #
plane-surface $-1 -116.83754738050152 20.050730859677298 100.28557919762824 0 -1 0 0.52991927123019833 0 -0.84804809178421925 forward_v I I I I #
coedge $-1 $134 $135 $136 $137 reversed $53 $-1 #
face $-1 $-1 $138 $29 $-1 $139 forward single #
loop $-1 $140 $141 $55 #
cone-surface $-1 -50.048777261820199 11.912743724649971 1.9122028302635723 0.52991927123019833 0 -0.84804809178421925 0.63603606883816444 0 0.39743945342264875 1 I I -0.70710678118654757 0.70710678118654757 0.75 forward I I I I #
loop $-1 $-1 $142 $37 #
coedge $-1 $89 $89 $143 $144 reversed $56 $-1 #
face $-1 $145 $146 $30 $-1 $147 reversed single #
loop $-1 $-1 $148 $58 #
plane-surface $-1 -39.483760087292097 16.164731072897972 60.12854350023899 0.52991927123019833 0 0.84804809178421925 0.84804809178421925 0 -0.52991927123019833 forward_v I I I I #
coedge $-1 $149 $150 $151 $152 reversed $59 $-1 #
face $-1 $-1 $153 $31 $-1 $154 forward single #
loop $-1 $155 $156 $61 #
cone-surface $-1 45.481205355955318 16.164731072897972 -2.2226757002701394 -0.52991927123019833 0 -0.84804809178421925 0.84804809178421925 0 -0.52991927123019833 1 I I -0.70710678118654735 0.70710678118654768 1 forward I I I I #
loop $-1 $-1 $157 $39 #
coedge $-1 $98 $98 $158 $159 reversed $62 $-1 #
face $-1 $160 $161 $24 $-1 $162 reversed single #
loop $-1 $-1 $163 $64 #
plane-surface $-1 0 -37.340214579331182 0 0 1 0 0 0 1 forward_v I I I I #
coedge $-1 $164 $165 $166 $167 forward $65 $-1 #
coedge $-1 $168 $67 $169 $170 forward $41 $-1 #
coedge $-1 $67 $168 $171 $172 forward $41 $-1 #
coedge $-1 $173 $174 $67 $106 reversed $175 $-1 #
edge $-1 $176 -37.340214579331182 $177 37.340214579331182 $105 $178 forward 7 unknown #
face $-1 $179 $180 $25 $-1 $181 reversed single #
loop $-1 $-1 $182 $68 #
plane-surface $-1 -56.721701712088382 0 0 1 0 0 0 0 -1 forward_v I I I I #
coedge $-1 $183 $184 $185 $186 forward $69 $-1 #
coedge $-1 $185 $71 $182 $187 reversed $44 $-1 #
coedge $-1 $71 $185 $188 $189 reversed $44 $-1 #
coedge $-1 $190 $191 $71 $114 reversed $180 $-1 #
edge $-1 $192 -56.721701712088382 $193 56.721701712088382 $113 $194 forward 7 unknown #
face $-1 $195 $196 $26 $-1 $197 forward single #
loop $-1 $-1 $198 $72 #
plane-surface $-1 -116.83754738050152 3.774756589622644 100.28557919762824 0 -1 0 0.52991927123019833 0 -0.84804809178421925 forward_v I I I I #
coedge $-1 $199 $200 $201 $202 reversed $73 $-1 #
coedge $-1 $120 $75 $203 $204 reversed $47 $-1 #
coedge $-1 $75 $119 $199 $205 reversed $47 $-1 #
coedge $-1 $201 $206 $75 $122 forward $196 $-1 #
edge $-1 $207 1.6970719781623771 $208 9.3467051508913244 $121 $209 forward 7 unknown #
loop $-1 $-1 $128 $76 #
plane-surface $-1 -56.72170171208839 -4.3632305454046829 4.0801173982477792 -0.52991927123019833 0 0.84804809178421925 0.84804809178421925 0 0.52991927123019833 forward_v I I I I #
loop $-1 $-1 $210 $49 #
coedge $-1 $126 $126 $127 $211 reversed $77 $-1 #
coedge $-1 $127 $127 $126 $211 forward $79 $-1 #
coedge $-1 $128 $128 $80 $129 forward $123 $-1 #
edge $-1 $212 0 $212 6.2831853071796004 $128 $213 forward 7 unknown #
face $-1 $214 $215 $28 $-1 $216 forward single #
loop $-1 $-1 $217 $81 #
plane-surface $-1 0 0 8.8601388089938045 0 0 1 1 0 0 forward_v I I I I #
coedge $-1 $218 $219 $220 $221 reversed $82 $-1 #
coedge $-1 $222 $84 $223 $224 reversed $53 $-1 #
coedge $-1 $84 $222 $217 $225 reversed $53 $-1 #
coedge $-1 $226 $227 $84 $137 forward $215 $-1 #
edge $-1 $228 8.3790584163743152e-015 $229 9.020282277429331 $136 $230 forward 7 unknown #
loop $-1 $-1 $143 $85 #
plane-surface $-1 -56.72170171208839 -4.3632305454046829 4.0801173982477792 -0.52991927123019833 0 0.84804809178421925 0.84804809178421925 0 0.52991927123019833 forward_v I I I I #
loop $-1 $-1 $231 $55 #
coedge $-1 $141 $141 $142 $232 reversed $86 $-1 #
coedge $-1 $142 $142 $141 $232 forward $88 $-1 #
coedge $-1 $143 $143 $89 $144 forward $138 $-1 #
edge $-1 $233 0 $233 6.2831853071796004 $143 $234 forward 7 unknown #
face $-1 $235 $236 $30 $-1 $237 reversed single #
loop $-1 $-1 $238 $90 #
plane-surface $-1 20.632085581121039 10.746132997756483 156.33400529961946 0 1 0 0.52991927123019833 0 0.84804809178421925 forward_v I I I I #
coedge $-1 $239 $240 $241 $242 reversed $91 $-1 #
coedge $-1 $150 $93 $243 $244 reversed $59 $-1 #
coedge $-1 $93 $149 $239 $245 reversed $59 $-1 #
coedge $-1 $241 $246 $93 $152 forward $247 $-1 #
edge $-1 $248 -46.405658921527859 $249 -32.246793892062939 $151 $250 forward 7 unknown #
loop $-1 $-1 $158 $94 #
plane-surface $-1 -39.483760087292097 16.164731072897972 60.12854350023899 0.52991927123019833 0 0.84804809178421925 0.84804809178421925 0 -0.52991927123019833 forward_v I I I I #
loop $-1 $-1 $251 $61 #
coedge $-1 $156 $156 $157 $252 reversed $95 $-1 #
coedge $-1 $157 $157 $156 $252 forward $97 $-1 #
coedge $-1 $158 $158 $98 $159 forward $153 $-1 #
edge $-1 $253 0 $253 6.2831853071796004 $158 $254 forward 7 unknown #
face $-1 $255 $256 $24 $-1 $257 reversed single #
loop $-1 $-1 $258 $99 #
plane-surface $-1 -56.721701712088382 0 0 1 0 0 0 0 -1 forward_v I I I I #
coedge $-1 $259 $171 $260 $261 forward $100 $-1 #
coedge $-1 $262 $102 $259 $263 forward $65 $-1 #
coedge $-1 $102 $262 $264 $265 forward $65 $-1 #
coedge $-1 $174 $173 $102 $167 reversed $175 $-1 #
edge $-1 $266 -37.340214579331182 $267 37.340214579331182 $166 $268 forward 7 unknown #
coedge $-1 $104 $103 $269 $270 forward $41 $-1 #
coedge $-1 $271 $272 $103 $170 reversed $256 $-1 #
edge $-1 $177 -56.721701712088382 $273 56.721701712088382 $169 $274 forward 7 unknown #
coedge $-1 $163 $275 $104 $172 reversed $100 $-1 #
edge $-1 $276 -56.721701712088382 $176 56.721701712088382 $171 $277 forward 7 unknown #
coedge $-1 $166 $105 $275 $278 forward $175 $-1 #
coedge $-1 $105 $166 $271 $279 reversed $175 $-1 #
loop $-1 $-1 $173 $255 #
vertex $-1 $106 $280 #
vertex $-1 $106 $281 #
straight-curve $-1 56.721701712088382 0 8.8601388089938045 0 1 0 I I #
face $-1 $282 $283 $25 $-1 $284 reversed single #
loop $-1 $-1 $190 $107 #
plane-surface $-1 0 -41.114971168953836 3.9652278069584863 0 0 1 1 0 0 forward_v I I I I #
coedge $-1 $285 $286 $111 $187 forward $108 $-1 #
coedge $-1 $287 $110 $286 $288 forward $69 $-1 #
coedge $-1 $110 $287 $289 $290 forward $69 $-1 #
coedge $-1 $112 $111 $110 $186 reversed $44 $-1 #
edge $-1 $291 -56.721701712088382 $292 56.721701712088382 $110 $293 forward 7 unknown #
edge $-1 $292 -8.8601388089938045 $193 -3.9652278069584863 $182 $294 forward 7 unknown #
coedge $-1 $289 $295 $112 $189 forward $296 $-1 #
edge $-1 $192 3.9652278069584863 $291 8.8601388089938045 $188 $297 forward 7 unknown #
coedge $-1 $298 $113 $295 $299 forward $180 $-1 #
coedge $-1 $113 $298 $285 $300 forward $180 $-1 #
vertex $-1 $189 $301 #
vertex $-1 $187 $302 #
straight-curve $-1 0 -37.340214579331182 3.9652278069584863 -1 0 0 I I #
face $-1 $-1 $303 $26 $-1 $304 reversed single #
loop $-1 $-1 $121 $115 #
plane-surface $-1 0 0 8.8601388089938045 0 0 1 1 0 0 forward_v I I I I #
coedge $-1 $305 $306 $307 $308 reversed $116 $-1 #
coedge $-1 $309 $118 $120 $205 forward $73 $-1 #
coedge $-1 $118 $309 $305 $310 forward $73 $-1 #
coedge $-1 $307 $121 $118 $202 forward $196 $-1 #
edge $-1 $208 -10.319602407729668 $311 5.9563718623249855 $201 $312 forward 7 unknown #
coedge $-1 $313 $314 $119 $204 forward $303 $-1 #
edge $-1 $315 -46.062672200566332 $207 -41.282650789820316 $203 $316 forward 7 unknown #
edge $-1 $208 -9.020282277429331 $315 -8.3790584163743152e-015 $120 $317 forward 7 unknown #
coedge $-1 $121 $307 $313 $318 forward $196 $-1 #
vertex $-1 $204 $319 #
vertex $-1 $122 $320 #
straight-curve $-1 -58.41877369025076 -12.50121768043201 8.8601388089938027 1 0 0 I I #
coedge $-1 $210 $210 $-1 $321 reversed $125 $-1 #
edge $-1 $322 0 $322 6.2831853071796004 $126 $323 forward 7 unknown #
vertex $-1 $129 $324 #
ellipse-curve $-1 -52.896885125723898 -4.3632305454046829 6.4701281036207989 -0.52991927123019833 0 0.84804809178421925 1.2720721376763289 0 0.79487890684529749 1 I I #
face $-1 $-1 $325 $28 $-1 $326 reversed single #
loop $-1 $-1 $226 $130 #
plane-surface $-1 -116.83754738050152 3.774756589622644 100.28557919762824 0 -1 0 0.52991927123019833 0 -0.84804809178421925 forward_v I I I I #
coedge $-1 $220 $327 $135 $225 forward $131 $-1 #
coedge $-1 $219 $133 $222 $328 reversed $82 $-1 #
coedge $-1 $133 $218 $329 $330 reversed $82 $-1 #
coedge $-1 $331 $217 $133 $221 forward $131 $-1 #
edge $-1 $332 -9.3467051508913244 $333 -1.6970719781623771 $220 $334 forward 7 unknown #
coedge $-1 $135 $134 $218 $328 forward $53 $-1 #
coedge $-1 $335 $329 $134 $224 forward $325 $-1 #
edge $-1 $336 -22.232346132379639 $228 -5.9563718623249855 $223 $337 forward 7 unknown #
edge $-1 $229 5.9563718623249855 $332 22.232346132379639 $217 $338 forward 7 unknown #
coedge $-1 $227 $136 $327 $339 reversed $215 $-1 #
coedge $-1 $136 $226 $335 $340 reversed $215 $-1 #
vertex $-1 $224 $341 #
vertex $-1 $225 $342 #
straight-curve $-1 -56.72170171208839 3.774756589622644 4.0801173982477792 0.84804809178421925 0 0.52991927123019833 I I #
coedge $-1 $231 $231 $-1 $343 reversed $140 $-1 #
edge $-1 $344 0 $344 6.2831853071796004 $141 $345 forward 7 unknown #
vertex $-1 $144 $346 #
ellipse-curve $-1 -52.896885125723898 11.912743724649971 6.4701281036207989 -0.52991927123019833 0 0.84804809178421925 1.2720721376763289 0 0.79487890684529749 1 I I #
face $-1 $-1 $247 $30 $-1 $347 forward single #
loop $-1 $-1 $348 $145 #
plane-surface $-1 56.721701712088382 0 0 -1 0 0 0 0 1 forward_v I I I I #
coedge $-1 $349 $350 $351 $352 reversed $146 $-1 #
coedge $-1 $353 $148 $150 $245 forward $91 $-1 #
coedge $-1 $148 $353 $349 $354 forward $91 $-1 #
coedge $-1 $351 $151 $148 $242 forward $247 $-1 #
edge $-1 $249 -13.500963611590475 $355 -2.6637674613074971 $241 $356 forward 7 unknown #
coedge $-1 $357 $358 $149 $244 forward $236 $-1 #
edge $-1 $359 -78.154304817983885 $248 -69.306863840815922 $243 $360 forward 7 unknown #
edge $-1 $249 96.747575479235707 $359 113.44340342417679 $150 $361 forward 7 unknown #
coedge $-1 $151 $351 $357 $362 forward $247 $-1 #
loop $-1 $-1 $351 $235 #
vertex $-1 $244 $363 #
vertex $-1 $152 $364 #
straight-curve $-1 10.31604279056052 21.583329148039461 8.8601388089938098 -1 0 0 I I #
coedge $-1 $251 $251 $-1 $365 reversed $155 $-1 #
edge $-1 $366 0 $366 6.2831853071796004 $156 $367 forward 7 unknown #
vertex $-1 $159 $368 #
ellipse-curve $-1 49.642269197355922 16.164731072897972 4.4364183204098175 0.52991927123019833 0 0.84804809178421925 1.6960961835684385 0 -1.0598385424603967 1 I I #
face $-1 $-1 $175 $24 $-1 $369 reversed single #
loop $-1 $-1 $271 $160 #
plane-surface $-1 0 37.340214579331182 0 0 -1 0 0 0 -1 forward_v I I I I #
coedge $-1 $370 $269 $272 $371 forward $161 $-1 #
coedge $-1 $275 $163 $164 $263 reversed $100 $-1 #
coedge $-1 $269 $370 $163 $261 reversed $161 $-1 #
edge $-1 $276 -8.8601388089938045 $372 8.8601388089938045 $260 $373 forward 7 unknown #
coedge $-1 $165 $164 $370 $374 forward $65 $-1 #
edge $-1 $267 -56.721701712088382 $372 56.721701712088382 $259 $375 forward 7 unknown #
coedge $-1 $272 $271 $165 $265 reversed $256 $-1 #
edge $-1 $376 -56.721701712088382 $266 56.721701712088382 $264 $377 forward 7 unknown #
vertex $-1 $167 $378 #
vertex $-1 $278 $379 #
straight-curve $-1 56.721701712088382 0 -8.8601388089938045 0 -1 0 I I #
coedge $-1 $258 $260 $168 $270 reversed $161 $-1 #
edge $-1 $273 -37.340214579331182 $276 37.340214579331182 $269 $380 forward 7 unknown #
coedge $-1 $264 $169 $174 $279 forward $256 $-1 #
coedge $-1 $169 $264 $258 $371 reversed $256 $-1 #
vertex $-1 $170 $381 #
straight-curve $-1 0 37.340214579331182 8.8601388089938045 -1 0 0 I I #
coedge $-1 $171 $259 $173 $278 reversed $100 $-1 #
vertex $-1 $270 $382 #
straight-curve $-1 0 -37.340214579331182 8.8601388089938045 1 0 0 I I #
edge $-1 $176 -8.8601388089938045 $267 8.8601388089938045 $173 $383 forward 7 unknown #
edge $-1 $177 -8.8601388089938045 $266 8.8601388089938045 $174 $384 forward 7 unknown #
point $-1 56.721701712088382 -37.340214579331182 8.8601388089938045 #
point $-1 56.721701712088382 37.340214579331182 8.8601388089938045 #
face $-1 $-1 $296 $25 $-1 $385 reversed single #
loop $-1 $-1 $386 $179 #
plane-surface $-1 0 -44.889727758576491 6.4126833079761454 0 1 0 0 0 1 forward_v I I I I #
coedge $-1 $387 $182 $191 $300 reversed $108 $-1 #
coedge $-1 $182 $387 $183 $288 reversed $108 $-1 #
coedge $-1 $184 $183 $388 $389 forward $69 $-1 #
edge $-1 $292 37.340214579331182 $390 44.889727758576491 $286 $391 forward 7 unknown #
coedge $-1 $392 $188 $184 $290 reversed $296 $-1 #
edge $-1 $393 -44.889727758576491 $291 -37.340214579331182 $289 $394 forward 7 unknown #
vertex $-1 $189 $395 #
vertex $-1 $288 $396 #
straight-curve $-1 0 -37.340214579331182 8.8601388089938045 -1 0 0 I I #
straight-curve $-1 -56.721701712088382 -37.340214579331182 0 0 0 -1 I I #
coedge $-1 $188 $392 $190 $299 reversed $296 $-1 #
loop $-1 $-1 $188 $282 #
straight-curve $-1 56.721701712088382 -37.340214579331182 0 0 0 1 I I #
coedge $-1 $191 $190 $397 $398 forward $180 $-1 #
edge $-1 $192 -3.7747565896226547 $399 3.7747565896226547 $295 $400 forward 7 unknown #
edge $-1 $401 -3.7747565896226547 $193 3.7747565896226547 $285 $402 forward 7 unknown #
point $-1 56.721701712088382 -37.340214579331182 3.9652278069584863 #
point $-1 -56.721701712088382 -37.340214579331182 3.9652278069584863 #
loop $-1 $-1 $203 $195 #
plane-surface $-1 -56.721701712088382 0 0 1 0 0 0 0 -1 forward_v I I I I #
coedge $-1 $306 $198 $200 $310 reversed $116 $-1 #
coedge $-1 $198 $305 $403 $404 reversed $116 $-1 #
coedge $-1 $206 $201 $198 $308 forward $196 $-1 #
edge $-1 $311 -9.3467051508913244 $405 -1.6970719781623771 $307 $406 forward 7 unknown #
coedge $-1 $200 $199 $314 $407 reversed $73 $-1 #
edge $-1 $408 8.3790584163743152e-015 $311 9.020282277429331 $305 $409 forward 7 unknown #
vertex $-1 $202 $410 #
straight-curve $-1 -49.072068539359428 -2.1816152727023415 8.8601388089938045 0 1 0 I I #
coedge $-1 $403 $203 $206 $318 reversed $303 $-1 #
coedge $-1 $203 $403 $309 $407 forward $303 $-1 #
vertex $-1 $204 $411 #
straight-curve $-1 -56.721701712088382 -12.50121768043201 50.142789598814119 0 0 1 I I #
straight-curve $-1 -56.72170171208839 -12.50121768043201 4.0801173982477792 -0.84804809178421925 0 -0.52991927123019833 I I #
edge $-1 $405 -3.774756589622644 $207 12.50121768043201 $313 $412 forward 7 unknown #
point $-1 -56.721701712088382 -12.50121768043201 8.8601388089938045 #
point $-1 -49.072068539359435 -12.50121768043201 8.8601388089938045 #
edge $-1 $413 1 $413 0 $210 $-1 forward 7 unknown #
vertex $-1 $211 $414 #
ellipse-curve $-1 -50.446216715242848 -4.3632305454046829 2.5482388991017366 -0.52991927123019833 0 0.84804809178421925 1.2720721376763289 0 0.79487890684529749 1 I I #
point $-1 -51.624812988047566 -4.3632305454046829 7.2650070104660855 #
loop $-1 $-1 $223 $214 #
plane-surface $-1 -56.721701712088382 0 0 1 0 0 0 0 -1 forward_v I I I I #
coedge $-1 $217 $331 $226 $339 forward $131 $-1 #
edge $-1 $336 8.3790584163743152e-015 $332 9.020282277429331 $218 $415 forward 7 unknown #
coedge $-1 $223 $416 $219 $330 forward $325 $-1 #
edge $-1 $333 41.282650789820316 $336 46.062672200566332 $329 $417 forward 7 unknown #
coedge $-1 $327 $220 $416 $418 forward $131 $-1 #
vertex $-1 $221 $419 #
vertex $-1 $418 $420 #
straight-curve $-1 -58.41877369025076 20.050730859677298 8.8601388089938027 -1 0 0 I I #
coedge $-1 $416 $223 $227 $340 forward $325 $-1 #
vertex $-1 $330 $421 #
straight-curve $-1 -56.721701712088382 -2.1816152727023415 4.0801173982477872 0 -1 0 I I #
straight-curve $-1 -49.072068539359428 -2.1816152727023415 8.8601388089938045 0 1 0 I I #
edge $-1 $422 1.6970719781623771 $229 9.3467051508913244 $327 $423 forward 7 unknown #
edge $-1 $228 -46.062672200566332 $422 -41.282650789820316 $335 $424 forward 7 unknown #
point $-1 -56.721701712088382 3.774756589622644 4.0801173982477836 #
point $-1 -49.072068539359435 3.774756589622644 8.8601388089938045 #
edge $-1 $425 1 $425 0 $231 $-1 forward 7 unknown #
vertex $-1 $232 $426 #
ellipse-curve $-1 -50.446216715242848 11.912743724649971 2.5482388991017366 -0.52991927123019833 0 0.84804809178421925 1.2720721376763289 0 0.79487890684529749 1 I I #
point $-1 -51.624812988047566 11.912743724649971 7.2650070104660855 #
plane-surface $-1 0 0 8.8601388089938045 0 0 1 1 0 0 forward_v I I I I #
coedge $-1 $358 $357 $350 $427 forward $236 $-1 #
coedge $-1 $350 $238 $240 $354 reversed $146 $-1 #
coedge $-1 $238 $349 $348 $427 reversed $146 $-1 #
coedge $-1 $246 $241 $238 $352 forward $247 $-1 #
edge $-1 $355 32.246793892062939 $428 46.405658921527859 $351 $429 forward 7 unknown #
coedge $-1 $240 $239 $358 $430 reversed $91 $-1 #
edge $-1 $431 -113.44340342417679 $355 -96.747575479235707 $349 $432 forward 7 unknown #
vertex $-1 $242 $433 #
straight-curve $-1 42.56283668262347 8.0823655364489859 8.8601388089937956 0 -1 0 I I #
coedge $-1 $348 $243 $246 $362 reversed $236 $-1 #
coedge $-1 $243 $348 $353 $430 forward $236 $-1 #
vertex $-1 $244 $434 #
straight-curve $-1 56.721701712088382 21.583329148039461 78.167002649809731 0 0 1 I I #
straight-curve $-1 -39.483760087292097 21.583329148039461 60.12854350023899 0.84804809178421925 0 -0.52991927123019833 I I #
edge $-1 $428 10.746132997756483 $248 21.583329148039461 $357 $435 forward 7 unknown #
point $-1 56.721701712088382 21.583329148039461 8.8601388089938045 #
point $-1 42.562836682623455 21.583329148039461 8.8601388089938098 #
edge $-1 $436 1 $436 0 $251 $-1 forward 7 unknown #
vertex $-1 $252 $437 #
ellipse-curve $-1 46.011124627185517 16.164731072897972 -1.3746276084859197 0.52991927123019833 0 0.84804809178421925 1.6960961835684385 0 -1.0598385424603967 1 I I #
point $-1 51.338365380924373 16.164731072897972 3.3765797779494378 #
plane-surface $-1 56.721701712088382 0 0 -1 0 0 0 0 1 forward_v I I I I #
coedge $-1 $260 $258 $262 $374 reversed $161 $-1 #
edge $-1 $273 -8.8601388089938045 $376 8.8601388089938045 $272 $438 forward 7 unknown #
vertex $-1 $374 $439 #
straight-curve $-1 -56.721701712088382 -37.340214579331182 0 0 0 -1 I I #
edge $-1 $372 -37.340214579331182 $376 37.340214579331182 $370 $440 forward 7 unknown #
straight-curve $-1 0 -37.340214579331182 -8.8601388089938045 -1 0 0 I I #
vertex $-1 $265 $441 #
straight-curve $-1 0 37.340214579331182 -8.8601388089938045 1 0 0 I I #
point $-1 56.721701712088382 37.340214579331182 -8.8601388089938045 #
point $-1 56.721701712088382 -37.340214579331182 -8.8601388089938045 #
straight-curve $-1 -56.721701712088382 0 8.8601388089938045 0 -1 0 I I #
point $-1 -56.721701712088382 37.340214579331182 8.8601388089938045 #
point $-1 -56.721701712088382 -37.340214579331182 8.8601388089938045 #
straight-curve $-1 56.721701712088382 -37.340214579331182 0 0 0 -1 I I #
straight-curve $-1 56.721701712088382 37.340214579331182 0 0 0 -1 I I #
plane-surface $-1 56.721701712088382 0 0 -1 0 0 0 0 1 forward_v I I I I #
coedge $-1 $397 $388 $387 $442 forward $283 $-1 #
coedge $-1 $286 $285 $386 $442 reversed $108 $-1 #
coedge $-1 $386 $443 $287 $389 reversed $283 $-1 #
edge $-1 $390 -56.721701712088382 $393 56.721701712088382 $388 $444 forward 7 unknown #
vertex $-1 $288 $445 #
straight-curve $-1 -56.721701712088382 0 8.8601388089938045 0 -1 0 I I #
coedge $-1 $295 $289 $443 $446 forward $296 $-1 #
vertex $-1 $290 $447 #
straight-curve $-1 56.721701712088382 0 8.8601388089938045 0 1 0 I I #
point $-1 56.721701712088382 -37.340214579331182 8.8601388089938045 #
point $-1 -56.721701712088382 -37.340214579331182 8.8601388089938045 #
coedge $-1 $443 $386 $298 $398 reversed $283 $-1 #
edge $-1 $399 -56.721701712088382 $401 56.721701712088382 $397 $448 forward 7 unknown #
vertex $-1 $446 $449 #
straight-curve $-1 56.721701712088382 -41.114971168953836 3.9652278069584863 0 -1 0 I I #
vertex $-1 $300 $450 #
straight-curve $-1 -56.721701712088382 -41.114971168953836 3.9652278069584863 0 1 0 I I #
coedge $-1 $314 $313 $306 $404 forward $303 $-1 #
edge $-1 $405 41.282650789820316 $408 46.062672200566332 $403 $451 forward 7 unknown #
vertex $-1 $318 $452 #
straight-curve $-1 -58.41877369025076 3.774756589622644 8.8601388089938027 -1 0 0 I I #
edge $-1 $408 -5.9563718623249855 $315 10.319602407729668 $314 $453 forward 7 unknown #
vertex $-1 $407 $454 #
straight-curve $-1 -56.72170171208839 3.774756589622644 4.0801173982477792 0.84804809178421925 0 0.52991927123019833 I I #
point $-1 -49.072068539359435 3.774756589622644 8.8601388089938045 #
point $-1 -56.721701712088382 -12.50121768043201 4.0801173982477836 #
straight-curve $-1 -56.721701712088382 0 8.8601388089938045 0 -1 0 I I #
vertex $-1 $321 $455 #
point $-1 -49.174144577566516 -4.3632305454046829 3.3431178059470343 #
straight-curve $-1 -56.72170171208839 20.050730859677298 4.0801173982477792 0.84804809178421925 0 0.52991927123019833 I I #
coedge $-1 $329 $335 $331 $418 reversed $325 $-1 #
straight-curve $-1 -56.721701712088382 20.050730859677298 50.142789598814119 0 0 -1 I I #
edge $-1 $333 -20.050730859677298 $422 -3.774756589622644 $416 $456 forward 7 unknown #
point $-1 -49.072068539359435 20.050730859677298 8.8601388089938045 #
point $-1 -56.721701712088382 20.050730859677298 8.8601388089938045 #
point $-1 -56.721701712088382 20.050730859677298 4.0801173982477836 #
vertex $-1 $340 $457 #
straight-curve $-1 -58.41877369025076 3.774756589622644 8.8601388089938027 1 0 0 I I #
straight-curve $-1 -56.721701712088382 3.774756589622644 50.142789598814119 0 0 1 I I #
vertex $-1 $343 $458 #
point $-1 -49.174144577566516 11.912743724649971 3.3431178059470343 #
edge $-1 $428 69.306863840815922 $431 78.154304817983885 $348 $459 forward 7 unknown #
vertex $-1 $362 $460 #
straight-curve $-1 10.31604279056052 10.746132997756483 8.8601388089938098 1 0 0 I I #
edge $-1 $431 2.6637674613074971 $359 13.500963611590475 $358 $461 forward 7 unknown #
vertex $-1 $430 $462 #
straight-curve $-1 -39.483760087292097 10.746132997756483 60.12854350023899 -0.84804809178421925 0 0.52991927123019833 I I #
point $-1 42.562836682623455 10.746132997756483 8.8601388089938098 #
point $-1 56.72170171208839 21.583329148039461 0.012697831825846606 #
straight-curve $-1 56.721701712088382 0 8.8601388089938045 0 1 0 I I #
vertex $-1 $365 $463 #
point $-1 47.707220810753952 16.164731072897972 -2.4344661509463164 #
straight-curve $-1 -56.721701712088382 37.340214579331182 0 0 0 -1 I I #
point $-1 -56.721701712088382 -37.340214579331182 -8.8601388089938045 #
straight-curve $-1 -56.721701712088382 0 -8.8601388089938045 0 1 0 I I #
point $-1 -56.721701712088382 37.340214579331182 -8.8601388089938045 #
edge $-1 $390 -2.4474555010176591 $401 2.4474555010176591 $387 $464 forward 7 unknown #
coedge $-1 $388 $397 $392 $446 reversed $283 $-1 #
straight-curve $-1 0 -44.889727758576491 8.8601388089938045 1 0 0 I I #
point $-1 -56.721701712088382 -44.889727758576491 8.8601388089938045 #
edge $-1 $393 -2.4474555010176591 $399 2.4474555010176591 $392 $465 forward 7 unknown #
point $-1 56.721701712088382 -44.889727758576491 8.8601388089938045 #
straight-curve $-1 0 -44.889727758576491 3.9652278069584863 -1 0 0 I I #
point $-1 56.721701712088382 -44.889727758576491 3.9652278069584863 #
point $-1 -56.721701712088382 -44.889727758576491 3.9652278069584863 #
straight-curve $-1 -56.721701712088382 3.774756589622644 50.142789598814119 0 0 -1 I I #
point $-1 -56.721701712088382 3.774756589622644 8.8601388089938045 #
straight-curve $-1 -56.721701712088382 -2.1816152727023415 4.0801173982477872 0 -1 0 I I #
point $-1 -56.721701712088382 3.774756589622644 4.0801173982477836 #
point $-1 -49.65133780839755 -4.3632305454046829 1.276166761425408 #
straight-curve $-1 -56.721701712088382 0 8.8601388089938045 0 -1 0 I I #
point $-1 -56.721701712088382 3.774756589622644 8.8601388089938045 #
point $-1 -49.65133780839755 11.912743724649971 1.276166761425408 #
straight-curve $-1 56.721701712088382 10.746132997756483 78.167002649809731 0 0 -1 I I #
point $-1 56.721701712088382 10.746132997756483 8.8601388089938045 #
straight-curve $-1 56.72170171208839 8.0823655364489859 0.012697831825843053 0 1 0 I I #
point $-1 56.72170171208839 10.746132997756483 0.012697831825846606 #
point $-1 44.951286084725119 16.164731072897972 -3.0707237920543591 #
straight-curve $-1 -56.721701712088382 -44.889727758576491 6.4126833079761454 0 0 -1 I I #
straight-curve $-1 56.721701712088382 -44.889727758576491 6.4126833079761454 0 0 -1 I I #
End-of-ACIS-data 