500 0 14 0           
7 Unknown 11 ACIS 5.0 NT 24 Fri Mar 26 20:26:56 1999 
-1 9.9999999999999995e-007 1e-010 
body $-1 $14 $-1 $15 #
body $-1 $16 $-1 $17 #
body $-1 $18 $-1 $19 #
body $-1 $20 $-1 $21 #
body $-1 $22 $-1 $23 #
body $-1 $24 $-1 $25 #
body $-1 $26 $-1 $27 #
body $-1 $28 $-1 $29 #
body $-1 $30 $-1 $31 #
body $-1 $32 $-1 $33 #
body $-1 $34 $-1 $35 #
body $-1 $36 $-1 $37 #
body $-1 $38 $-1 $39 #
body $-1 $40 $-1 $41 #
lump $-1 $-1 $42 $0 #
transform $-1 1 0 0 0 1 0 0 0 1 74.399243140964998 32.306577685818674 6.9703607979196232 1 rotate no_reflect no_shear #
lump $-1 $-1 $43 $1 #
transform $-1 1 0 0 0 1 0 0 0 1 74.399243140964998 32.306577685818674 6.9703607979196232 1 rotate no_reflect no_shear #
lump $-1 $-1 $44 $2 #
transform $-1 1 0 0 0 1 0 0 0 1 74.399243140964998 32.306577685818674 6.9703607979196232 1 rotate no_reflect no_shear #
lump $-1 $-1 $45 $3 #
transform $-1 1 0 0 0 1 0 0 0 1 74.399243140964998 32.306577685818674 6.9703607979196232 1 rotate no_reflect no_shear #
lump $-1 $-1 $46 $4 #
transform $-1 1 0 0 0 1 0 0 0 1 74.399243140964998 32.306577685818674 6.9703607979196232 1 rotate no_reflect no_shear #
lump $-1 $-1 $47 $5 #
transform $-1 1 0 0 0 1 0 0 0 1 74.399243140964998 32.306577685818674 6.9703607979196232 1 rotate no_reflect no_shear #
lump $-1 $-1 $48 $6 #
transform $-1 1 0 0 0 1 0 0 0 1 74.399243140964998 32.306577685818674 6.9703607979196232 1 rotate no_reflect no_shear #
lump $-1 $-1 $49 $7 #
transform $-1 1 0 0 0 1 0 0 0 1 74.399243140964998 32.306577685818674 6.9703607979196232 1 rotate no_reflect no_shear #
lump $-1 $-1 $50 $8 #
transform $-1 1 0 0 0 1 0 0 0 1 74.399243140964998 32.306577685818674 6.9703607979196232 1 rotate no_reflect no_shear #
lump $-1 $-1 $51 $9 #
transform $-1 1 0 0 0 1 0 0 0 1 74.399243140964998 32.306577685818674 6.9703607979196232 1 rotate no_reflect no_shear #
lump $-1 $-1 $52 $10 #
transform $-1 1 0 0 0 1 0 0 0 1 74.399243140964998 32.306577685818674 6.9703607979196232 1 rotate no_reflect no_shear #
lump $-1 $-1 $53 $11 #
transform $-1 1 0 0 0 1 0 0 0 1 74.399243140964998 32.306577685818674 6.9703607979196232 1 rotate no_reflect no_shear #
lump $-1 $-1 $54 $12 #
transform $-1 1 0 0 0 1 0 0 0 1 74.399243140964998 32.306577685818674 6.9703607979196232 1 rotate no_reflect no_shear #
lump $-1 $-1 $55 $13 #
transform $-1 1 0 0 0 1 0 0 0 1 74.399243140964998 32.306577685818674 6.9703607979196232 1 rotate no_reflect no_shear #
shell $-1 $-1 $-1 $56 $-1 $14 #
shell $-1 $-1 $-1 $57 $-1 $16 #
shell $-1 $-1 $-1 $58 $-1 $18 #
shell $-1 $-1 $-1 $59 $-1 $20 #
shell $-1 $-1 $-1 $60 $-1 $22 #
shell $-1 $-1 $-1 $61 $-1 $24 #
shell $-1 $-1 $-1 $62 $-1 $26 #
shell $-1 $-1 $-1 $63 $-1 $28 #
shell $-1 $-1 $-1 $64 $-1 $30 #
shell $-1 $-1 $-1 $65 $-1 $32 #
shell $-1 $-1 $-1 $66 $-1 $34 #
shell $-1 $-1 $-1 $67 $-1 $36 #
shell $-1 $-1 $-1 $68 $-1 $38 #
shell $-1 $-1 $-1 $69 $-1 $40 #
face $-1 $70 $71 $42 $-1 $72 forward single #
face $-1 $73 $74 $43 $-1 $75 reversed single #
face $-1 $76 $77 $44 $-1 $78 reversed single #
face $-1 $79 $80 $45 $-1 $81 forward single #
face $-1 $82 $83 $46 $-1 $84 forward single #
face $-1 $85 $86 $47 $-1 $87 reversed single #
face $-1 $88 $89 $48 $-1 $90 forward single #
face $-1 $91 $92 $49 $-1 $93 forward single #
face $-1 $94 $95 $50 $-1 $96 reversed single #
face $-1 $97 $98 $51 $-1 $99 forward single #
face $-1 $100 $101 $52 $-1 $102 forward single #
face $-1 $103 $104 $53 $-1 $105 reversed single #
face $-1 $106 $107 $54 $-1 $108 forward single #
face $-1 $109 $110 $55 $-1 $111 forward single #
face $-1 $112 $113 $42 $-1 $114 reversed single #
loop $-1 $-1 $115 $56 #
plane-surface $-1 0 0 6.9703607979196232 0 0 1 1 0 0 forward_v I I I I #
face $-1 $116 $117 $43 $-1 $118 reversed single #
loop $-1 $-1 $119 $57 #
plane-surface $-1 -72.899243140964998 -27.084174139685594 0 0 -1 0 0 0 -1 forward_v I I I I #
face $-1 $120 $121 $44 $-1 $122 reversed single #
loop $-1 $-1 $123 $58 #
plane-surface $-1 -184.9780694924799 -10.751655833502946 101.3389355219184 0 1 0 -0.74314483375859142 0 0.66913059716165679 forward_v I I I I #
face $-1 $124 $125 $45 $-1 $126 forward single #
loop $-1 $127 $128 $59 #
cone-surface $-1 -70.519391704194121 -6.9336965173402376 2.985097832558341 0.74314483375859142 0 -0.66913059716165679 1.0036958957424851 0 1.1147172506378871 1 I I 0 1 1.5 forward I I I I #
face $-1 $129 $130 $46 $-1 $131 forward single #
loop $-1 $132 $133 $60 #
cone-surface $-1 -70.519391704194121 -1.2067575430961703 2.985097832558341 0.74314483375859142 0 -0.66913059716165679 1.0036958957424851 0 1.1147172506378871 1 I I 0 1 1.5 forward I I I I #
face $-1 $134 $135 $47 $-1 $136 reversed single #
loop $-1 $-1 $137 $61 #
plane-surface $-1 -184.9780694924799 18.943720079249189 101.3389355219184 0 1 0 -0.74314483375859142 0 0.66913059716165679 forward_v I I I I #
face $-1 $138 $139 $48 $-1 $140 forward single #
loop $-1 $141 $142 $62 #
cone-surface $-1 -70.519391704194121 22.761679395411896 2.985097832558341 0.74314483375859142 0 -0.66913059716165679 1.0036958957424851 0 1.1147172506378871 1 I I 0 1 1.5 forward I I I I #
face $-1 $143 $144 $49 $-1 $145 forward single #
loop $-1 $146 $147 $63 #
cone-surface $-1 -70.519391704194121 28.48861836965596 2.985097832558341 0.74314483375859142 0 -0.66913059716165679 1.0036958957424851 0 1.1147172506378871 1 I I 0 1 1.5 forward I I I I #
face $-1 $148 $149 $50 $-1 $150 reversed single #
loop $-1 $-1 $151 $64 #
plane-surface $-1 70.726686122536321 -5.6893727452318181 213.75912114734419 0 -1 0 -0.69465837861970381 0 -0.71933979245794832 forward_v I I I I #
face $-1 $152 $153 $51 $-1 $154 forward single #
loop $-1 $155 $156 $65 #
cone-surface $-1 71.99963533946179 -15.620975741865987 4.6161105207444528 -0.69465837861970381 0 -0.71933979245794832 0.35966989622897416 0 -0.3473291893098519 1 I I 0 1 0.5 forward I I I I #
face $-1 $157 $158 $52 $-1 $159 forward single #
loop $-1 $160 $161 $66 #
cone-surface $-1 71.99963533946179 -9.6620139438854835 4.6161105207444528 -0.69465837861970381 0 -0.71933979245794832 0.35966989622897416 0 -0.3473291893098519 1 I I 0 1 0.5 forward I I I I #
face $-1 $162 $163 $53 $-1 $164 reversed single #
loop $-1 $-1 $165 $67 #
plane-surface $-1 70.726686122536321 24.006003167520316 213.75912114734419 0 -1 0 -0.69465837861970381 0 -0.71933979245794832 forward_v I I I I #
face $-1 $166 $167 $54 $-1 $168 forward single #
loop $-1 $169 $170 $68 #
cone-surface $-1 71.99963533946179 14.074400170886143 4.6161105207444528 -0.69465837861970381 0 -0.71933979245794832 0.35966989622897416 0 -0.3473291893098519 1 I I 0 1 0.5 forward I I I I #
face $-1 $171 $172 $55 $-1 $173 forward single #
loop $-1 $174 $175 $69 #
cone-surface $-1 71.99963533946179 20.03336196886665 4.6161105207444528 -0.69465837861970381 0 -0.71933979245794832 0.35966989622897416 0 -0.3473291893098519 1 I I 0 1 0.5 forward I I I I #
face $-1 $176 $177 $42 $-1 $178 reversed single #
loop $-1 $-1 $179 $70 #
plane-surface $-1 0 0 -6.9703607979196232 0 0 1 1 0 0 forward_v I I I I #
coedge $-1 $180 $181 $182 $183 forward $71 $-1 #
face $-1 $184 $185 $43 $-1 $186 forward single #
loop $-1 $-1 $187 $73 #
plane-surface $-1 -71.399243140964998 -29.695375912752134 0 -1 0 0 0 0 1 forward_v I I I I #
coedge $-1 $188 $189 $190 $191 forward $74 $-1 #
face $-1 $192 $193 $44 $-1 $194 reversed single #
loop $-1 $-1 $195 $76 #
plane-surface $-1 -74.399243140964998 -4.0702270302181986 1.7733155393399898 -0.74314483375859142 0 0.66913059716165679 0.66913059716165679 0 0.74314483375859142 forward_v I I I I #
coedge $-1 $196 $197 $198 $199 reversed $77 $-1 #
face $-1 $-1 $200 $45 $-1 $201 forward single #
loop $-1 $202 $203 $79 #
cone-surface $-1 -68.421901868484284 -6.9336965173402376 1.0965095486156304 0.74314483375859142 0 -0.66913059716165679 0.50184794787124254 0 0.55735862531894353 1 I I -0.70710678118654757 0.70710678118654757 0.75 forward I I I I #
loop $-1 $-1 $204 $59 #
coedge $-1 $128 $128 $205 $206 reversed $80 $-1 #
face $-1 $-1 $207 $46 $-1 $208 forward single #
loop $-1 $209 $210 $82 #
cone-surface $-1 -68.421901868484284 -1.2067575430961703 1.0965095486156304 0.74314483375859142 0 -0.66913059716165679 0.50184794787124254 0 0.55735862531894353 1 I I -0.70710678118654757 0.70710678118654757 0.75 forward I I I I #
loop $-1 $-1 $211 $60 #
coedge $-1 $133 $133 $212 $213 reversed $83 $-1 #
face $-1 $214 $215 $47 $-1 $216 forward single #
loop $-1 $-1 $217 $85 #
plane-surface $-1 -74.399243140964998 25.625148882533935 1.7733155393399898 -0.74314483375859142 0 0.66913059716165679 0.66913059716165679 0 0.74314483375859142 forward_v I I I I #
coedge $-1 $218 $219 $220 $221 reversed $86 $-1 #
face $-1 $-1 $222 $48 $-1 $223 forward single #
loop $-1 $224 $225 $88 #
cone-surface $-1 -68.421901868484284 22.761679395411896 1.0965095486156304 0.74314483375859142 0 -0.66913059716165679 0.50184794787124254 0 0.55735862531894353 1 I I -0.70710678118654757 0.70710678118654757 0.75 forward I I I I #
loop $-1 $-1 $226 $62 #
coedge $-1 $142 $142 $227 $228 reversed $89 $-1 #
face $-1 $-1 $229 $49 $-1 $230 forward single #
loop $-1 $231 $232 $91 #
cone-surface $-1 -68.421901868484284 28.48861836965596 1.0965095486156304 0.74314483375859142 0 -0.66913059716165679 0.50184794787124254 0 0.55735862531894353 1 I I -0.70710678118654757 0.70710678118654757 0.75 forward I I I I #
loop $-1 $-1 $233 $63 #
coedge $-1 $147 $147 $234 $235 reversed $92 $-1 #
face $-1 $236 $237 $50 $-1 $238 reversed single #
loop $-1 $-1 $239 $94 #
plane-surface $-1 -32.637429099135403 -12.641494842875737 106.72244890724379 0.69465837861970381 0 0.71933979245794832 0.71933979245794832 0 -0.69465837861970381 forward_v I I I I #
coedge $-1 $240 $241 $242 $243 reversed $95 $-1 #
face $-1 $-1 $244 $51 $-1 $245 forward single #
loop $-1 $246 $247 $97 #
cone-surface $-1 71.296544685379089 -15.620975741865987 3.8880388516285809 -0.69465837861970381 0 -0.71933979245794832 0.17983494811448708 0 -0.17366459465492595 1 I I -0.70710678118654624 0.70710678118654879 0.25 forward I I I I #
loop $-1 $-1 $248 $65 #
coedge $-1 $156 $156 $249 $250 reversed $98 $-1 #
face $-1 $-1 $251 $52 $-1 $252 forward single #
loop $-1 $253 $254 $100 #
cone-surface $-1 71.296544685379089 -9.6620139438854835 3.8880388516285809 -0.69465837861970381 0 -0.71933979245794832 0.17983494811448708 0 -0.17366459465492595 1 I I -0.70710678118654624 0.70710678118654879 0.25 forward I I I I #
loop $-1 $-1 $255 $66 #
coedge $-1 $161 $161 $256 $257 reversed $101 $-1 #
face $-1 $258 $259 $53 $-1 $260 reversed single #
loop $-1 $-1 $261 $103 #
plane-surface $-1 -32.637429099135403 17.053881069876397 106.72244890724379 0.69465837861970381 0 0.71933979245794832 0.71933979245794832 0 -0.69465837861970381 forward_v I I I I #
coedge $-1 $262 $263 $264 $265 reversed $104 $-1 #
face $-1 $-1 $266 $54 $-1 $267 forward single #
loop $-1 $268 $269 $106 #
cone-surface $-1 71.296544685379089 14.074400170886143 3.8880388516285809 -0.69465837861970381 0 -0.71933979245794832 0.17983494811448708 0 -0.17366459465492595 1 I I -0.70710678118654624 0.70710678118654879 0.25 forward I I I I #
loop $-1 $-1 $270 $68 #
coedge $-1 $170 $170 $271 $272 reversed $107 $-1 #
face $-1 $-1 $273 $55 $-1 $274 forward single #
loop $-1 $275 $276 $109 #
cone-surface $-1 71.296544685379089 20.03336196886665 3.8880388516285809 -0.69465837861970381 0 -0.71933979245794832 0.17983494811448708 0 -0.17366459465492595 1 I I -0.70710678118654624 0.70710678118654879 0.25 forward I I I I #
loop $-1 $-1 $277 $69 #
coedge $-1 $175 $175 $278 $279 reversed $110 $-1 #
face $-1 $280 $281 $42 $-1 $282 reversed single #
loop $-1 $-1 $283 $112 #
plane-surface $-1 0 -32.306577685818674 0 0 1 0 0 0 1 forward_v I I I I #
coedge $-1 $284 $285 $286 $287 forward $113 $-1 #
coedge $-1 $288 $115 $289 $290 forward $71 $-1 #
coedge $-1 $115 $288 $291 $292 forward $71 $-1 #
coedge $-1 $293 $294 $115 $183 reversed $295 $-1 #
edge $-1 $296 -32.306577685818674 $297 32.306577685818674 $182 $298 forward 7 unknown #
face $-1 $299 $300 $43 $-1 $301 reversed single #
loop $-1 $-1 $302 $116 #
plane-surface $-1 0 0 6.9703607979196232 0 0 1 1 0 0 forward_v I I I I #
coedge $-1 $303 $304 $305 $306 reversed $117 $-1 #
coedge $-1 $307 $119 $308 $309 reversed $74 $-1 #
coedge $-1 $119 $307 $310 $311 reversed $74 $-1 #
coedge $-1 $304 $303 $119 $191 reversed $117 $-1 #
edge $-1 $312 -6.9703607979196232 $313 6.9703607979196232 $190 $314 forward 7 unknown #
face $-1 $315 $316 $44 $-1 $317 reversed single #
loop $-1 $-1 $318 $120 #
plane-surface $-1 -184.9780694924799 2.6112017730665489 101.3389355219184 0 -1 0 0.74314483375859142 0 -0.66913059716165679 forward_v I I I I #
coedge $-1 $319 $320 $321 $322 reversed $121 $-1 #
coedge $-1 $197 $123 $323 $324 reversed $77 $-1 #
coedge $-1 $123 $196 $319 $325 reversed $77 $-1 #
coedge $-1 $321 $326 $123 $199 forward $327 $-1 #
edge $-1 $328 18.089791605274954 $329 22.769232058034945 $198 $330 forward 7 unknown #
loop $-1 $-1 $205 $124 #
plane-surface $-1 -74.399243140964998 -4.0702270302181986 1.7733155393399898 -0.74314483375859142 0 0.66913059716165679 0.66913059716165679 0 0.74314483375859142 forward_v I I I I #
loop $-1 $-1 $331 $79 #
coedge $-1 $203 $203 $204 $332 reversed $125 $-1 #
coedge $-1 $204 $204 $203 $332 forward $127 $-1 #
coedge $-1 $205 $205 $128 $206 forward $200 $-1 #
edge $-1 $333 0 $333 6.2831853071796004 $205 $334 forward 7 unknown #
loop $-1 $-1 $212 $129 #
plane-surface $-1 -74.399243140964998 -4.0702270302181986 1.7733155393399898 -0.74314483375859142 0 0.66913059716165679 0.66913059716165679 0 0.74314483375859142 forward_v I I I I #
loop $-1 $-1 $335 $82 #
coedge $-1 $210 $210 $211 $336 reversed $130 $-1 #
coedge $-1 $211 $211 $210 $336 forward $132 $-1 #
coedge $-1 $212 $212 $133 $213 forward $207 $-1 #
edge $-1 $337 0 $337 6.2831853071796004 $212 $338 forward 7 unknown #
face $-1 $339 $340 $47 $-1 $341 reversed single #
loop $-1 $-1 $220 $134 #
plane-surface $-1 0 0 6.9703607979196232 0 0 1 1 0 0 forward_v I I I I #
coedge $-1 $342 $343 $344 $345 reversed $135 $-1 #
coedge $-1 $219 $137 $346 $347 reversed $86 $-1 #
coedge $-1 $137 $218 $342 $348 reversed $86 $-1 #
coedge $-1 $344 $349 $137 $221 forward $215 $-1 #
edge $-1 $350 18.089791605274954 $351 22.769232058034945 $220 $352 forward 7 unknown #
loop $-1 $-1 $227 $138 #
plane-surface $-1 -74.399243140964998 25.625148882533935 1.7733155393399898 -0.74314483375859142 0 0.66913059716165679 0.66913059716165679 0 0.74314483375859142 forward_v I I I I #
loop $-1 $-1 $353 $88 #
coedge $-1 $225 $225 $226 $354 reversed $139 $-1 #
coedge $-1 $226 $226 $225 $354 forward $141 $-1 #
coedge $-1 $227 $227 $142 $228 forward $222 $-1 #
edge $-1 $355 0 $355 6.2831853071796004 $227 $356 forward 7 unknown #
loop $-1 $-1 $234 $143 #
plane-surface $-1 -74.399243140964998 25.625148882533935 1.7733155393399898 -0.74314483375859142 0 0.66913059716165679 0.66913059716165679 0 0.74314483375859142 forward_v I I I I #
loop $-1 $-1 $357 $91 #
coedge $-1 $232 $232 $233 $358 reversed $144 $-1 #
coedge $-1 $233 $233 $232 $358 forward $146 $-1 #
coedge $-1 $234 $234 $147 $235 forward $229 $-1 #
edge $-1 $359 0 $359 6.2831853071796004 $234 $360 forward 7 unknown #
face $-1 $361 $362 $50 $-1 $363 forward single #
loop $-1 $-1 $364 $148 #
plane-surface $-1 70.726686122536321 -19.593616940519656 213.75912114734419 0 1 0 0.69465837861970381 0 0.71933979245794832 forward_v I I I I #
coedge $-1 $365 $366 $367 $368 reversed $149 $-1 #
coedge $-1 $241 $151 $369 $370 reversed $95 $-1 #
coedge $-1 $151 $240 $365 $371 reversed $95 $-1 #
coedge $-1 $367 $372 $151 $243 forward $362 $-1 #
edge $-1 $373 -39.035900079696837 $374 -35.295536595545975 $242 $375 forward 7 unknown #
loop $-1 $-1 $249 $152 #
plane-surface $-1 -32.637429099135403 -12.641494842875737 106.72244890724379 0.69465837861970381 0 0.71933979245794832 0.71933979245794832 0 -0.69465837861970381 forward_v I I I I #
loop $-1 $-1 $376 $97 #
coedge $-1 $247 $247 $248 $377 reversed $153 $-1 #
coedge $-1 $248 $248 $247 $377 forward $155 $-1 #
coedge $-1 $249 $249 $156 $250 forward $244 $-1 #
edge $-1 $378 0 $378 6.2831853071796004 $249 $379 forward 7 unknown #
loop $-1 $-1 $256 $157 #
plane-surface $-1 -32.637429099135403 -12.641494842875737 106.72244890724379 0.69465837861970381 0 0.71933979245794832 0.71933979245794832 0 -0.69465837861970381 forward_v I I I I #
loop $-1 $-1 $380 $100 #
coedge $-1 $254 $254 $255 $381 reversed $158 $-1 #
coedge $-1 $255 $255 $254 $381 forward $160 $-1 #
coedge $-1 $256 $256 $161 $257 forward $251 $-1 #
edge $-1 $382 0 $382 6.2831853071796004 $256 $383 forward 7 unknown #
face $-1 $384 $385 $53 $-1 $386 reversed single #
loop $-1 $-1 $387 $162 #
plane-surface $-1 70.726686122536321 10.101758972232478 213.75912114734419 0 1 0 0.69465837861970381 0 0.71933979245794832 forward_v I I I I #
coedge $-1 $388 $389 $390 $391 reversed $163 $-1 #
coedge $-1 $263 $165 $392 $393 reversed $104 $-1 #
coedge $-1 $165 $262 $388 $394 reversed $104 $-1 #
coedge $-1 $390 $395 $165 $265 forward $396 $-1 #
edge $-1 $397 -39.035900079696837 $398 -35.295536595545975 $264 $399 forward 7 unknown #
loop $-1 $-1 $271 $166 #
plane-surface $-1 -32.637429099135403 17.053881069876397 106.72244890724379 0.69465837861970381 0 0.71933979245794832 0.71933979245794832 0 -0.69465837861970381 forward_v I I I I #
loop $-1 $-1 $400 $106 #
coedge $-1 $269 $269 $270 $401 reversed $167 $-1 #
coedge $-1 $270 $270 $269 $401 forward $169 $-1 #
coedge $-1 $271 $271 $170 $272 forward $266 $-1 #
edge $-1 $402 0 $402 6.2831853071796004 $271 $403 forward 7 unknown #
loop $-1 $-1 $278 $171 #
plane-surface $-1 -32.637429099135403 17.053881069876397 106.72244890724379 0.69465837861970381 0 0.71933979245794832 0.71933979245794832 0 -0.69465837861970381 forward_v I I I I #
loop $-1 $-1 $404 $109 #
coedge $-1 $276 $276 $277 $405 reversed $172 $-1 #
coedge $-1 $277 $277 $276 $405 forward $174 $-1 #
coedge $-1 $278 $278 $175 $279 forward $273 $-1 #
edge $-1 $406 0 $406 6.2831853071796004 $278 $407 forward 7 unknown #
face $-1 $408 $409 $42 $-1 $410 reversed single #
loop $-1 $-1 $411 $176 #
plane-surface $-1 -74.399243140964998 0 0 1 0 0 0 0 -1 forward_v I I I I #
coedge $-1 $412 $291 $413 $414 forward $177 $-1 #
coedge $-1 $415 $179 $412 $416 forward $113 $-1 #
coedge $-1 $179 $415 $417 $418 forward $113 $-1 #
coedge $-1 $294 $293 $179 $287 reversed $295 $-1 #
edge $-1 $419 -32.306577685818674 $420 32.306577685818674 $286 $421 forward 7 unknown #
coedge $-1 $181 $180 $422 $423 forward $71 $-1 #
coedge $-1 $424 $425 $180 $290 reversed $409 $-1 #
edge $-1 $297 -74.399243140964998 $426 74.399243140964998 $289 $427 forward 7 unknown #
coedge $-1 $283 $428 $181 $292 reversed $177 $-1 #
edge $-1 $429 -74.399243140964998 $296 74.399243140964998 $291 $430 forward 7 unknown #
coedge $-1 $286 $182 $428 $431 forward $295 $-1 #
coedge $-1 $182 $286 $424 $432 reversed $295 $-1 #
loop $-1 $-1 $293 $408 #
vertex $-1 $183 $433 #
vertex $-1 $183 $434 #
straight-curve $-1 74.399243140964998 0 6.9703607979196232 0 1 0 I I #
face $-1 $435 $436 $43 $-1 $437 reversed single #
loop $-1 $-1 $438 $184 #
plane-surface $-1 -74.399243140964998 0 0 1 0 0 0 0 -1 forward_v I I I I #
coedge $-1 $310 $439 $304 $440 forward $185 $-1 #
coedge $-1 $190 $187 $441 $442 reversed $117 $-1 #
coedge $-1 $187 $190 $302 $440 reversed $117 $-1 #
coedge $-1 $443 $444 $187 $306 forward $445 $-1 #
edge $-1 $446 -6.9703607979196232 $447 6.9703607979196232 $305 $448 forward 7 unknown #
coedge $-1 $189 $188 $438 $449 reversed $74 $-1 #
coedge $-1 $441 $450 $188 $309 forward $436 $-1 #
edge $-1 $451 -37.949621570482499 $313 -34.949621570482499 $308 $452 forward 7 unknown #
coedge $-1 $453 $302 $189 $311 forward $185 $-1 #
edge $-1 $312 34.949621570482499 $454 37.949621570482499 $310 $455 forward 7 unknown #
vertex $-1 $311 $456 #
vertex $-1 $309 $457 #
straight-curve $-1 -71.399243140964998 -27.084174139685594 0 0 0 -1 I I #
face $-1 $-1 $327 $44 $-1 $458 forward single #
loop $-1 $-1 $459 $192 #
plane-surface $-1 -74.399243140964998 0 0 1 0 0 0 0 -1 forward_v I I I I #
coedge $-1 $460 $461 $462 $463 reversed $193 $-1 #
coedge $-1 $464 $195 $197 $325 forward $121 $-1 #
coedge $-1 $195 $464 $460 $465 forward $121 $-1 #
coedge $-1 $462 $198 $195 $322 forward $327 $-1 #
edge $-1 $329 -8.7165423183938469 $466 4.6463152881756482 $321 $467 forward 7 unknown #
coedge $-1 $468 $469 $196 $324 forward $316 $-1 #
edge $-1 $470 -48.896152221619211 $328 -43.699106963039576 $323 $471 forward 7 unknown #
edge $-1 $329 -6.9933141192607433 $470 0 $197 $472 forward 7 unknown #
coedge $-1 $198 $462 $468 $473 forward $327 $-1 #
loop $-1 $-1 $462 $315 #
vertex $-1 $324 $474 #
vertex $-1 $199 $475 #
straight-curve $-1 -92.489034746239952 -10.751655833502946 6.9703607979196249 1 0 0 I I #
coedge $-1 $331 $331 $-1 $476 reversed $202 $-1 #
edge $-1 $477 0 $477 6.2831853071796004 $203 $478 forward 7 unknown #
vertex $-1 $206 $479 #
ellipse-curve $-1 -72.059522914585003 -6.9336965173402376 4.3718381686298029 -0.74314483375859142 0 0.66913059716165679 1.0036958957424851 0 1.1147172506378871 1 I I #
coedge $-1 $335 $335 $-1 $480 reversed $209 $-1 #
edge $-1 $481 0 $481 6.2831853071796004 $210 $482 forward 7 unknown #
vertex $-1 $213 $483 #
ellipse-curve $-1 -72.059522914585003 -1.2067575430961703 4.3718381686298029 -0.74314483375859142 0 0.66913059716165679 1.0036958957424851 0 1.1147172506378871 1 I I #
face $-1 $-1 $484 $47 $-1 $485 reversed single #
loop $-1 $-1 $486 $214 #
plane-surface $-1 0 32.306577685818674 0 0 -1 0 0 0 -1 forward_v I I I I #
coedge $-1 $487 $217 $219 $348 forward $135 $-1 #
coedge $-1 $217 $487 $486 $488 reversed $135 $-1 #
coedge $-1 $489 $220 $217 $345 forward $215 $-1 #
edge $-1 $351 6.1311456379822218 $490 19.494003244551713 $344 $491 forward 7 unknown #
coedge $-1 $492 $493 $218 $347 forward $484 $-1 #
edge $-1 $494 -48.896152221619211 $350 -43.699106963039576 $346 $495 forward 7 unknown #
edge $-1 $351 -6.9933141192607433 $494 0 $219 $496 forward 7 unknown #
coedge $-1 $220 $489 $492 $497 forward $215 $-1 #
vertex $-1 $347 $498 #
vertex $-1 $221 $499 #
straight-curve $-1 -92.489034746239952 18.943720079249189 6.9703607979196249 1 0 0 I I #
coedge $-1 $353 $353 $-1 $500 reversed $224 $-1 #
edge $-1 $501 0 $501 6.2831853071796004 $225 $502 forward 7 unknown #
vertex $-1 $228 $503 #
ellipse-curve $-1 -72.059522914585003 22.761679395411896 4.3718381686298029 -0.74314483375859142 0 0.66913059716165679 1.0036958957424851 0 1.1147172506378871 1 I I #
coedge $-1 $357 $357 $-1 $504 reversed $231 $-1 #
edge $-1 $505 0 $505 6.2831853071796004 $232 $506 forward 7 unknown #
vertex $-1 $235 $507 #
ellipse-curve $-1 -72.059522914585003 28.48861836965596 4.3718381686298029 -0.74314483375859142 0 0.66913059716165679 1.0036958957424851 0 1.1147172506378871 1 I I #
face $-1 $-1 $508 $50 $-1 $509 reversed single #
loop $-1 $-1 $242 $236 #
plane-surface $-1 0 0 6.9703607979196232 0 0 1 1 0 0 forward_v I I I I #
coedge $-1 $510 $511 $512 $513 reversed $237 $-1 #
coedge $-1 $514 $239 $241 $371 forward $149 $-1 #
coedge $-1 $239 $514 $510 $515 forward $149 $-1 #
coedge $-1 $512 $242 $239 $368 forward $362 $-1 #
edge $-1 $374 -0.63137467620605037 $516 13.272869519081787 $367 $517 forward 7 unknown #
coedge $-1 $518 $519 $240 $370 forward $508 $-1 #
edge $-1 $520 -103.52122688810003 $373 -99.909199775752469 $369 $521 forward 7 unknown #
edge $-1 $374 143.59876909212986 $520 148.79848628192997 $241 $522 forward 7 unknown #
coedge $-1 $242 $512 $518 $523 forward $362 $-1 #
vertex $-1 $370 $524 #
vertex $-1 $243 $525 #
straight-curve $-1 35.363343061268161 -5.6893727452318181 6.9703607979196249 -1 0 0 I I #
coedge $-1 $376 $376 $-1 $526 reversed $246 $-1 #
edge $-1 $527 0 $527 6.2831853071796004 $247 $528 forward 7 unknown #
vertex $-1 $250 $529 #
ellipse-curve $-1 72.529061398889567 -15.620975741865987 5.1643472417458414 0.69465837861970381 0 0.71933979245794832 0.35966989622897416 0 -0.3473291893098519 1 I I #
coedge $-1 $380 $380 $-1 $530 reversed $253 $-1 #
edge $-1 $531 0 $531 6.2831853071796004 $254 $532 forward 7 unknown #
vertex $-1 $257 $533 #
ellipse-curve $-1 72.529061398889567 -9.6620139438854835 5.1643472417458414 0.69465837861970381 0 0.71933979245794832 0.35966989622897416 0 -0.3473291893098519 1 I I #
face $-1 $-1 $396 $53 $-1 $534 forward single #
loop $-1 $-1 $535 $258 #
plane-surface $-1 74.399243140964998 0 0 -1 0 0 0 0 1 forward_v I I I I #
coedge $-1 $536 $537 $538 $539 reversed $259 $-1 #
coedge $-1 $540 $261 $263 $394 forward $163 $-1 #
coedge $-1 $261 $540 $536 $541 forward $163 $-1 #
coedge $-1 $538 $264 $261 $391 forward $396 $-1 #
edge $-1 $398 -15.479062632582117 $542 -1.5748184372942795 $390 $543 forward 7 unknown #
coedge $-1 $544 $545 $262 $393 forward $385 $-1 #
edge $-1 $546 -103.52122688810003 $397 -99.909199775752469 $392 $547 forward 7 unknown #
edge $-1 $398 143.59876909212986 $546 148.79848628192997 $263 $548 forward 7 unknown #
coedge $-1 $264 $538 $544 $549 forward $396 $-1 #
loop $-1 $-1 $538 $384 #
vertex $-1 $393 $550 #
vertex $-1 $265 $551 #
straight-curve $-1 35.363343061268161 24.006003167520316 6.9703607979196249 -1 0 0 I I #
coedge $-1 $400 $400 $-1 $552 reversed $268 $-1 #
edge $-1 $553 0 $553 6.2831853071796004 $269 $554 forward 7 unknown #
vertex $-1 $272 $555 #
ellipse-curve $-1 72.529061398889567 14.074400170886143 5.1643472417458414 0.69465837861970381 0 0.71933979245794832 0.35966989622897416 0 -0.3473291893098519 1 I I #
coedge $-1 $404 $404 $-1 $556 reversed $275 $-1 #
edge $-1 $557 0 $557 6.2831853071796004 $276 $558 forward 7 unknown #
vertex $-1 $279 $559 #
ellipse-curve $-1 72.529061398889567 20.03336196886665 5.1643472417458414 0.69465837861970381 0 0.71933979245794832 0.35966989622897416 0 -0.3473291893098519 1 I I #
face $-1 $-1 $295 $42 $-1 $560 reversed single #
loop $-1 $-1 $424 $280 #
plane-surface $-1 0 32.306577685818674 0 0 -1 0 0 0 -1 forward_v I I I I #
coedge $-1 $561 $422 $425 $562 forward $281 $-1 #
coedge $-1 $428 $283 $284 $416 reversed $177 $-1 #
coedge $-1 $422 $561 $283 $414 reversed $281 $-1 #
edge $-1 $429 -6.9703607979196232 $563 6.9703607979196232 $413 $564 forward 7 unknown #
coedge $-1 $285 $284 $561 $565 forward $113 $-1 #
edge $-1 $420 -74.399243140964998 $563 74.399243140964998 $412 $566 forward 7 unknown #
coedge $-1 $425 $424 $285 $418 reversed $409 $-1 #
edge $-1 $567 -74.399243140964998 $419 74.399243140964998 $417 $568 forward 7 unknown #
vertex $-1 $287 $569 #
vertex $-1 $431 $570 #
straight-curve $-1 74.399243140964998 0 -6.9703607979196232 0 -1 0 I I #
coedge $-1 $411 $413 $288 $423 reversed $281 $-1 #
edge $-1 $426 -32.306577685818674 $429 32.306577685818674 $422 $571 forward 7 unknown #
coedge $-1 $417 $289 $294 $432 forward $409 $-1 #
coedge $-1 $289 $417 $411 $562 reversed $409 $-1 #
vertex $-1 $290 $572 #
straight-curve $-1 0 32.306577685818674 6.9703607979196232 -1 0 0 I I #
coedge $-1 $291 $412 $293 $431 reversed $177 $-1 #
vertex $-1 $423 $573 #
straight-curve $-1 0 -32.306577685818674 6.9703607979196232 1 0 0 I I #
edge $-1 $296 -6.9703607979196232 $420 6.9703607979196232 $293 $574 forward 7 unknown #
edge $-1 $297 -6.9703607979196232 $419 6.9703607979196232 $294 $575 forward 7 unknown #
point $-1 74.399243140964998 -32.306577685818674 6.9703607979196232 #
point $-1 74.399243140964998 32.306577685818674 6.9703607979196232 #
face $-1 $-1 $445 $43 $-1 $576 reversed single #
loop $-1 $-1 $441 $299 #
plane-surface $-1 0 0 -6.9703607979196232 0 0 1 1 0 0 forward_v I I I I #
coedge $-1 $577 $578 $307 $449 forward $300 $-1 #
coedge $-1 $302 $453 $443 $579 forward $185 $-1 #
edge $-1 $447 -17.458889729442607 $312 -12.236486183309527 $302 $580 forward 7 unknown #
coedge $-1 $581 $308 $303 $442 forward $436 $-1 #
edge $-1 $313 12.236486183309527 $446 17.458889729442607 $441 $582 forward 7 unknown #
coedge $-1 $583 $305 $439 $579 reversed $445 $-1 #
coedge $-1 $305 $583 $581 $584 reversed $445 $-1 #
loop $-1 $-1 $305 $435 #
vertex $-1 $584 $585 #
vertex $-1 $306 $586 #
straight-curve $-1 -71.399243140964998 -32.306577685818674 0 0 0 1 I I #
edge $-1 $454 -6.9703607979196232 $451 6.9703607979196232 $438 $587 forward 7 unknown #
coedge $-1 $308 $581 $577 $588 forward $436 $-1 #
vertex $-1 $309 $589 #
straight-curve $-1 -36.449621570482499 -27.084174139685594 -6.9703607979196232 1 0 0 I I #
coedge $-1 $439 $310 $578 $590 forward $185 $-1 #
vertex $-1 $590 $591 #
straight-curve $-1 -36.449621570482499 -27.084174139685594 6.9703607979196232 -1 0 0 I I #
point $-1 -71.399243140964998 -27.084174139685594 6.9703607979196232 #
point $-1 -71.399243140964998 -27.084174139685594 -6.9703607979196232 #
plane-surface $-1 0 0 6.9703607979196232 0 0 1 1 0 0 forward_v I I I I #
coedge $-1 $469 $468 $461 $592 forward $316 $-1 #
coedge $-1 $461 $318 $320 $465 reversed $193 $-1 #
coedge $-1 $318 $460 $459 $592 reversed $193 $-1 #
coedge $-1 $326 $321 $318 $463 forward $327 $-1 #
edge $-1 $466 -22.769232058034945 $593 -18.089791605274954 $462 $594 forward 7 unknown #
coedge $-1 $320 $319 $469 $595 reversed $121 $-1 #
edge $-1 $596 0 $466 6.9933141192607433 $460 $597 forward 7 unknown #
vertex $-1 $322 $598 #
straight-curve $-1 -69.719802688205007 -2.0351135151090993 6.9703607979196232 0 1 0 I I #
coedge $-1 $459 $323 $326 $473 reversed $316 $-1 #
coedge $-1 $323 $459 $464 $595 forward $316 $-1 #
vertex $-1 $324 $599 #
straight-curve $-1 -74.399243140964998 -10.751655833502946 50.669467760959201 0 0 1 I I #
straight-curve $-1 -74.399243140964998 -10.751655833502946 1.7733155393399898 -0.66913059716165679 0 -0.74314483375859142 I I #
edge $-1 $593 -2.6112017730665489 $328 10.751655833502946 $468 $600 forward 7 unknown #
point $-1 -74.399243140964998 -10.751655833502946 6.9703607979196232 #
point $-1 -69.719802688205007 -10.751655833502946 6.9703607979196232 #
edge $-1 $601 1 $601 0 $331 $-1 forward 7 unknown #
vertex $-1 $332 $602 #
ellipse-curve $-1 -68.979260493803224 -6.9336965173402376 1.598357496486873 -0.74314483375859142 0 0.66913059716165679 1.0036958957424851 0 1.1147172506378871 1 I I #
point $-1 -71.055827018842535 -6.9336965173402376 5.4865554192676953 #
edge $-1 $603 1 $603 0 $335 $-1 forward 7 unknown #
vertex $-1 $336 $604 #
ellipse-curve $-1 -68.979260493803224 -1.2067575430961703 1.598357496486873 -0.74314483375859142 0 0.66913059716165679 1.0036958957424851 0 1.1147172506378871 1 I I #
point $-1 -71.055827018842535 -1.2067575430961703 5.4865554192676953 #
loop $-1 $-1 $346 $339 #
plane-surface $-1 -74.399243140964998 0 0 1 0 0 0 0 -1 forward_v I I I I #
coedge $-1 $605 $606 $343 $488 forward $340 $-1 #
coedge $-1 $343 $342 $493 $607 reversed $135 $-1 #
edge $-1 $490 17.239175735541693 $608 24.232489854802438 $486 $609 forward 7 unknown #
coedge $-1 $349 $344 $606 $610 forward $215 $-1 #
vertex $-1 $610 $611 #
straight-curve $-1 -69.719802688205007 12.812574441266968 6.9703607979196232 0 1 0 I I #
coedge $-1 $612 $346 $349 $497 reversed $484 $-1 #
coedge $-1 $346 $612 $487 $607 forward $484 $-1 #
vertex $-1 $347 $613 #
straight-curve $-1 -74.399243140964998 18.943720079249189 50.669467760959201 0 0 1 I I #
straight-curve $-1 -74.399243140964998 18.943720079249189 1.7733155393399898 -0.66913059716165679 0 -0.74314483375859142 I I #
edge $-1 $614 -32.306577685818674 $350 -18.943720079249189 $492 $615 forward 7 unknown #
point $-1 -74.399243140964998 18.943720079249189 6.9703607979196232 #
point $-1 -69.719802688205007 18.943720079249189 6.9703607979196232 #
edge $-1 $616 1 $616 0 $353 $-1 forward 7 unknown #
vertex $-1 $354 $617 #
ellipse-curve $-1 -68.979260493803224 22.761679395411896 1.598357496486873 -0.74314483375859142 0 0.66913059716165679 1.0036958957424851 0 1.1147172506378871 1 I I #
point $-1 -71.055827018842535 22.761679395411896 5.4865554192676953 #
edge $-1 $618 1 $618 0 $357 $-1 forward 7 unknown #
vertex $-1 $358 $619 #
ellipse-curve $-1 -68.979260493803224 28.48861836965596 1.598357496486873 -0.74314483375859142 0 0.66913059716165679 1.0036958957424851 0 1.1147172506378871 1 I I #
point $-1 -71.055827018842535 28.48861836965596 5.4865554192676953 #
loop $-1 $-1 $369 $361 #
plane-surface $-1 74.399243140964998 0 0 -1 0 0 0 0 1 forward_v I I I I #
coedge $-1 $511 $364 $366 $515 reversed $237 $-1 #
coedge $-1 $364 $510 $620 $621 reversed $237 $-1 #
coedge $-1 $372 $367 $364 $513 forward $362 $-1 #
edge $-1 $516 35.295536595545975 $622 39.035900079696837 $512 $623 forward 7 unknown #
coedge $-1 $366 $365 $519 $624 reversed $149 $-1 #
edge $-1 $625 -148.79848628192997 $516 -143.59876909212986 $510 $626 forward 7 unknown #
vertex $-1 $368 $627 #
straight-curve $-1 70.658879656814122 -6.3207474214378685 6.9703607979196249 0 -1 0 I I #
coedge $-1 $620 $369 $372 $523 reversed $508 $-1 #
coedge $-1 $369 $620 $514 $624 forward $508 $-1 #
vertex $-1 $370 $628 #
straight-curve $-1 74.399243140964998 -5.6893727452318181 106.87956057367209 0 0 1 I I #
straight-curve $-1 -32.637429099135403 -5.6893727452318181 106.72244890724379 0.71933979245794832 0 -0.69465837861970381 I I #
edge $-1 $622 -19.593616940519656 $373 -5.6893727452318181 $518 $629 forward 7 unknown #
point $-1 74.399243140964998 -5.6893727452318181 6.9703607979196232 #
point $-1 70.658879656814136 -5.6893727452318181 6.9703607979196249 #
edge $-1 $630 1 $630 0 $376 $-1 forward 7 unknown #
vertex $-1 $377 $631 #
ellipse-curve $-1 71.470209280034013 -15.620975741865987 4.0678737997430687 0.69465837861970381 0 0.71933979245794832 0.35966989622897416 0 -0.3473291893098519 1 I I #
point $-1 72.888731295118532 -15.620975741865987 4.8170180524359845 #
edge $-1 $632 1 $632 0 $380 $-1 forward 7 unknown #
vertex $-1 $381 $633 #
ellipse-curve $-1 71.470209280034013 -9.6620139438854835 4.0678737997430687 0.69465837861970381 0 0.71933979245794832 0.35966989622897416 0 -0.3473291893098519 1 I I #
point $-1 72.888731295118532 -9.6620139438854835 4.8170180524359845 #
plane-surface $-1 0 0 6.9703607979196232 0 0 1 1 0 0 forward_v I I I I #
coedge $-1 $545 $544 $537 $634 forward $385 $-1 #
coedge $-1 $537 $387 $389 $541 reversed $259 $-1 #
coedge $-1 $387 $536 $535 $634 reversed $259 $-1 #
coedge $-1 $395 $390 $387 $539 forward $396 $-1 #
edge $-1 $542 35.295536595545975 $635 39.035900079696837 $538 $636 forward 7 unknown #
coedge $-1 $389 $388 $545 $637 reversed $163 $-1 #
edge $-1 $638 -148.79848628192997 $542 -143.59876909212986 $536 $639 forward 7 unknown #
vertex $-1 $391 $640 #
straight-curve $-1 70.658879656814122 8.5269405349381984 6.9703607979196249 0 -1 0 I I #
coedge $-1 $535 $392 $395 $549 reversed $385 $-1 #
coedge $-1 $392 $535 $540 $637 forward $385 $-1 #
vertex $-1 $393 $641 #
straight-curve $-1 74.399243140964998 24.006003167520316 106.87956057367209 0 0 1 I I #
straight-curve $-1 -32.637429099135403 24.006003167520316 106.72244890724379 0.71933979245794832 0 -0.69465837861970381 I I #
edge $-1 $635 10.101758972232478 $397 24.006003167520316 $544 $642 forward 7 unknown #
point $-1 74.399243140964998 24.006003167520316 6.9703607979196232 #
point $-1 70.658879656814136 24.006003167520316 6.9703607979196249 #
edge $-1 $643 1 $643 0 $400 $-1 forward 7 unknown #
vertex $-1 $401 $644 #
ellipse-curve $-1 71.470209280034013 14.074400170886143 4.0678737997430687 0.69465837861970381 0 0.71933979245794832 0.35966989622897416 0 -0.3473291893098519 1 I I #
point $-1 72.888731295118532 14.074400170886143 4.8170180524359845 #
edge $-1 $645 1 $645 0 $404 $-1 forward 7 unknown #
vertex $-1 $405 $646 #
ellipse-curve $-1 71.470209280034013 20.03336196886665 4.0678737997430687 0.69465837861970381 0 0.71933979245794832 0.35966989622897416 0 -0.3473291893098519 1 I I #
point $-1 72.888731295118532 20.03336196886665 4.8170180524359845 #
plane-surface $-1 74.399243140964998 0 0 -1 0 0 0 0 1 forward_v I I I I #
coedge $-1 $413 $411 $415 $565 reversed $281 $-1 #
edge $-1 $426 -6.9703607979196232 $567 6.9703607979196232 $425 $647 forward 7 unknown #
vertex $-1 $565 $648 #
straight-curve $-1 -74.399243140964998 -32.306577685818674 0 0 0 -1 I I #
edge $-1 $563 -32.306577685818674 $567 32.306577685818674 $561 $649 forward 7 unknown #
straight-curve $-1 0 -32.306577685818674 -6.9703607979196232 -1 0 0 I I #
vertex $-1 $418 $650 #
straight-curve $-1 0 32.306577685818674 -6.9703607979196232 1 0 0 I I #
point $-1 74.399243140964998 32.306577685818674 -6.9703607979196232 #
point $-1 74.399243140964998 -32.306577685818674 -6.9703607979196232 #
straight-curve $-1 -74.399243140964998 0 6.9703607979196232 0 -1 0 I I #
point $-1 -74.399243140964998 32.306577685818674 6.9703607979196232 #
point $-1 -74.399243140964998 -32.306577685818674 6.9703607979196232 #
straight-curve $-1 74.399243140964998 -32.306577685818674 0 0 0 -1 I I #
straight-curve $-1 74.399243140964998 32.306577685818674 0 0 0 -1 I I #
plane-surface $-1 0 -32.306577685818674 0 0 1 0 0 0 1 forward_v I I I I #
coedge $-1 $651 $438 $450 $588 reversed $300 $-1 #
coedge $-1 $438 $651 $453 $590 reversed $300 $-1 #
edge $-1 $652 -74.399243140964998 $447 -71.399243140964998 $443 $653 forward 7 unknown #
straight-curve $-1 -71.399243140964998 -14.847687956376067 6.9703607979196232 0 1 0 I I #
coedge $-1 $450 $441 $444 $584 forward $436 $-1 #
straight-curve $-1 -71.399243140964998 -14.847687956376067 -6.9703607979196232 0 -1 0 I I #
coedge $-1 $444 $443 $651 $654 forward $445 $-1 #
edge $-1 $446 71.399243140964998 $655 74.399243140964998 $444 $656 forward 7 unknown #
point $-1 -71.399243140964998 -32.306577685818674 -6.9703607979196232 #
point $-1 -71.399243140964998 -32.306577685818674 6.9703607979196232 #
straight-curve $-1 -74.399243140964998 -27.084174139685594 0 0 0 -1 I I #
edge $-1 $655 -32.306577685818674 $451 -27.084174139685594 $577 $657 forward 7 unknown #
point $-1 -74.399243140964998 -27.084174139685594 -6.9703607979196232 #
edge $-1 $454 27.084174139685594 $652 32.306577685818674 $578 $658 forward 7 unknown #
point $-1 -74.399243140964998 -27.084174139685594 6.9703607979196232 #
edge $-1 $593 43.699106963039576 $596 48.896152221619211 $459 $659 forward 7 unknown #
vertex $-1 $473 $660 #
straight-curve $-1 -92.489034746239952 2.6112017730665489 6.9703607979196249 -1 0 0 I I #
edge $-1 $596 -4.6463152881756482 $470 8.7165423183938469 $469 $661 forward 7 unknown #
vertex $-1 $595 $662 #
straight-curve $-1 -74.399243140964998 2.6112017730665489 1.7733155393399898 0.66913059716165679 0 0.74314483375859142 I I #
point $-1 -69.719802688205007 2.6112017730665489 6.9703607979196232 #
point $-1 -74.399243140964998 -10.751655833502946 1.7733155393399898 #
straight-curve $-1 -74.399243140964998 0 6.9703607979196232 0 -1 0 I I #
vertex $-1 $476 $663 #
point $-1 -67.975564598060743 -6.9336965173402376 2.71307474712476 #
vertex $-1 $480 $664 #
point $-1 -67.975564598060743 -1.2067575430961703 2.71307474712476 #
coedge $-1 $606 $486 $612 $665 reversed $340 $-1 #
coedge $-1 $486 $605 $489 $610 reversed $340 $-1 #
edge $-1 $608 -19.494003244551713 $494 -6.1311456379822218 $493 $666 forward 7 unknown #
vertex $-1 $488 $667 #
straight-curve $-1 -58.184542733707246 32.306577685818674 19.781565184043895 -0.66913059716165679 0 -0.74314483375859142 I I #
edge $-1 $490 69.719802688205007 $614 74.399243140964998 $606 $668 forward 7 unknown #
point $-1 -69.719802688205007 32.306577685818681 6.9703607979196232 #
coedge $-1 $493 $492 $605 $665 forward $484 $-1 #
point $-1 -74.399243140964998 18.943720079249189 1.7733155393399898 #
vertex $-1 $610 $669 #
straight-curve $-1 -74.399243140964998 0 6.9703607979196232 0 -1 0 I I #
vertex $-1 $500 $670 #
point $-1 -67.975564598060743 22.761679395411896 2.71307474712476 #
vertex $-1 $504 $671 #
point $-1 -67.975564598060743 28.48861836965596 2.71307474712476 #
coedge $-1 $519 $518 $511 $621 forward $508 $-1 #
edge $-1 $622 99.909199775752469 $625 103.52122688810003 $620 $672 forward 7 unknown #
vertex $-1 $523 $673 #
straight-curve $-1 35.363343061268161 -19.593616940519656 6.9703607979196249 1 0 0 I I #
edge $-1 $625 -13.272869519081787 $520 0.63137467620605037 $519 $674 forward 7 unknown #
vertex $-1 $624 $675 #
straight-curve $-1 -32.637429099135403 -19.593616940519656 106.72244890724379 -0.71933979245794832 0 0.69465837861970381 I I #
point $-1 70.658879656814136 -19.593616940519656 6.9703607979196249 #
point $-1 74.399243140964998 -5.6893727452318181 3.3583336855720631 #
straight-curve $-1 74.399243140964998 0 6.9703607979196232 0 1 0 I I #
vertex $-1 $526 $676 #
point $-1 71.829879176262992 -15.620975741865987 3.7205446104332167 #
vertex $-1 $530 $677 #
point $-1 71.829879176262992 -9.6620139438854835 3.7205446104332167 #
edge $-1 $635 99.909199775752469 $638 103.52122688810003 $535 $678 forward 7 unknown #
vertex $-1 $549 $679 #
straight-curve $-1 35.363343061268161 10.101758972232478 6.9703607979196249 1 0 0 I I #
edge $-1 $638 1.5748184372942795 $546 15.479062632582117 $545 $680 forward 7 unknown #
vertex $-1 $637 $681 #
straight-curve $-1 -32.637429099135403 10.101758972232478 106.72244890724379 -0.71933979245794832 0 0.69465837861970381 I I #
point $-1 70.658879656814136 10.101758972232478 6.9703607979196249 #
point $-1 74.399243140964998 24.006003167520316 3.3583336855720631 #
straight-curve $-1 74.399243140964998 0 6.9703607979196232 0 1 0 I I #
vertex $-1 $552 $682 #
point $-1 71.829879176262992 14.074400170886143 3.7205446104332167 #
vertex $-1 $556 $683 #
point $-1 71.829879176262992 20.03336196886665 3.7205446104332167 #
straight-curve $-1 -74.399243140964998 32.306577685818674 0 0 0 -1 I I #
point $-1 -74.399243140964998 -32.306577685818674 -6.9703607979196232 #
straight-curve $-1 -74.399243140964998 0 -6.9703607979196232 0 1 0 I I #
point $-1 -74.399243140964998 32.306577685818674 -6.9703607979196232 #
coedge $-1 $578 $577 $583 $654 reversed $300 $-1 #
vertex $-1 $590 $684 #
straight-curve $-1 0 -32.306577685818674 6.9703607979196232 1 0 0 I I #
edge $-1 $652 -6.9703607979196232 $655 6.9703607979196232 $651 $685 forward 7 unknown #
vertex $-1 $588 $686 #
straight-curve $-1 0 -32.306577685818674 -6.9703607979196232 -1 0 0 I I #
straight-curve $-1 -74.399243140964998 0 -6.9703607979196232 0 1 0 I I #
straight-curve $-1 -74.399243140964998 0 6.9703607979196232 0 -1 0 I I #
straight-curve $-1 -74.399243140964998 2.6112017730665489 50.669467760959201 0 0 -1 I I #
point $-1 -74.399243140964998 2.6112017730665489 6.9703607979196232 #
straight-curve $-1 -74.399243140964998 -2.0351135151090993 1.7733155393399898 0 -1 0 I I #
point $-1 -74.399243140964998 2.6112017730665489 1.7733155393399898 #
point $-1 -67.864543243165343 -6.9336965173402376 0.5946616007443879 #
point $-1 -67.864543243165343 -1.2067575430961703 0.5946616007443879 #
edge $-1 $614 -6.9703607979196232 $608 -1.7733155393399898 $605 $687 forward 7 unknown #
straight-curve $-1 -74.399243140964998 12.812574441266968 1.7733155393399898 0 -1 0 I I #
point $-1 -74.399243140964998 32.306577685818681 1.7733155393399898 #
straight-curve $-1 0 32.306577685818674 6.9703607979196232 -1 0 0 I I #
point $-1 -74.399243140964998 32.306577685818674 6.9703607979196232 #
point $-1 -67.864543243165343 22.761679395411896 0.5946616007443879 #
point $-1 -67.864543243165343 28.48861836965596 0.5946616007443879 #
straight-curve $-1 74.399243140964998 -19.593616940519656 106.87956057367209 0 0 -1 I I #
point $-1 74.399243140964998 -19.593616940519656 6.9703607979196232 #
straight-curve $-1 74.399243140964998 -6.3207474214378685 3.3583336855720489 0 1 0 I I #
point $-1 74.399243140964998 -19.593616940519656 3.3583336855720631 #
point $-1 71.122880090724166 -15.620975741865987 3.708203903514093 #
point $-1 71.122880090724166 -9.6620139438854835 3.708203903514093 #
straight-curve $-1 74.399243140964998 10.101758972232478 106.87956057367209 0 0 -1 I I #
point $-1 74.399243140964998 10.101758972232478 6.9703607979196232 #
straight-curve $-1 74.399243140964998 8.5269405349381984 3.3583336855720489 0 1 0 I I #
point $-1 74.399243140964998 10.101758972232478 3.3583336855720631 #
point $-1 71.122880090724166 14.074400170886143 3.708203903514093 #
point $-1 71.122880090724166 20.03336196886665 3.708203903514093 #
point $-1 -74.399243140964998 -32.306577685818674 6.9703607979196232 #
straight-curve $-1 -74.399243140964998 -32.306577685818674 0 0 0 -1 I I #
point $-1 -74.399243140964998 -32.306577685818674 -6.9703607979196232 #
straight-curve $-1 -74.399243140964998 32.306577685818674 0 0 0 -1 I I #
End-of-ACIS-data 