500 0 4 0           
7 Unknown 11 ACIS 5.0 NT 24 Thu Mar 25 22:14:32 1999 
-1 9.9999999999999995e-007 1e-010 
body $-1 $4 $-1 $5 #
body $-1 $6 $-1 $7 #
body $-1 $8 $-1 $9 #
body $-1 $10 $-1 $11 #
lump $-1 $-1 $12 $0 #
transform $-1 1 0 0 0 1 0 0 0 1 54.488967558824427 38.044996349919394 12.57852314697262 1 rotate no_reflect no_shear #
lump $-1 $-1 $13 $1 #
transform $-1 1 0 0 0 1 0 0 0 1 54.488967558824427 38.044996349919394 12.57852314697262 1 rotate no_reflect no_shear #
lump $-1 $-1 $14 $2 #
transform $-1 1 0 0 0 1 0 0 0 1 54.488967558824427 38.044996349919394 12.57852314697262 1 rotate no_reflect no_shear #
lump $-1 $-1 $15 $3 #
transform $-1 1 0 0 0 1 0 0 0 1 54.488967558824427 38.044996349919394 12.57852314697262 1 rotate no_reflect no_shear #
shell $-1 $-1 $-1 $16 $-1 $4 #
shell $-1 $-1 $-1 $17 $-1 $6 #
shell $-1 $-1 $-1 $18 $-1 $8 #
shell $-1 $-1 $-1 $19 $-1 $10 #
face $-1 $20 $21 $12 $-1 $22 forward single #
face $-1 $23 $24 $13 $-1 $25 reversed single #
face $-1 $26 $27 $14 $-1 $28 forward single #
face $-1 $29 $30 $15 $-1 $31 reversed single #
face $-1 $32 $33 $12 $-1 $34 reversed single #
loop $-1 $-1 $35 $16 #
plane-surface $-1 0 0 12.57852314697262 0 0 1 1 0 0 forward_v I I I I #
face $-1 $36 $37 $13 $-1 $38 forward single #
loop $-1 $-1 $39 $17 #
plane-surface $-1 0 -29.834000393935721 9.9946024558761639 0 0 1 1 0 0 forward_v I I I I #
face $-1 $40 $41 $14 $-1 $42 forward single #
loop $-1 $-1 $43 $18 #
plane-surface $-1 -128.81174147569857 25.372244692988073 83.461848835726613 0 1 0 -0.68199836817093118 0 0.7313536940579346 forward_v I I I I #
face $-1 $44 $45 $15 $-1 $46 reversed single #
loop $-1 $47 $48 $19 #
cone-surface $-1 -48.960189357799081 31.708620521453732 7.310879267456075 0.68199836817093118 0 -0.7313536940579346 0.7313536940579346 0 0.68199836817093118 1 I I 0 1 1 forward I I I I #
face $-1 $49 $50 $12 $-1 $51 reversed single #
loop $-1 $-1 $52 $20 #
plane-surface $-1 0 0 -12.57852314697262 0 0 1 1 0 0 forward_v I I I I #
coedge $-1 $53 $54 $55 $56 forward $21 $-1 #
face $-1 $57 $58 $13 $-1 $59 forward single #
loop $-1 $-1 $60 $23 #
plane-surface $-1 0 -29.834000393935721 3.4090256256636327 0 0 1 1 0 0 forward_v I I I I #
coedge $-1 $61 $62 $63 $64 reversed $24 $-1 #
face $-1 $65 $66 $14 $-1 $67 forward single #
loop $-1 $-1 $68 $26 #
plane-surface $-1 -54.488967558824427 31.708620521453732 3.760433416628203 -0.68199836817093118 0 0.7313536940579346 0.7313536940579346 0 0.68199836817093118 forward_v I I I I #
coedge $-1 $69 $70 $71 $72 reversed $27 $-1 #
face $-1 $73 $74 $15 $-1 $75 forward single #
loop $-1 $76 $77 $29 #
cone-surface $-1 -47.818533622097682 31.708620521453732 6.0866034060827783 0.68199836817093118 0 -0.7313536940579346 0.3656768470289673 0 0.34099918408546559 1 I I -0.70710678118654746 0.70710678118654746 0.5 forward I I I I #
loop $-1 $-1 $78 $19 #
coedge $-1 $48 $48 $79 $80 reversed $30 $-1 #
face $-1 $81 $82 $12 $-1 $83 reversed single #
loop $-1 $-1 $84 $32 #
plane-surface $-1 0 -38.044996349919394 0 0 1 0 0 0 1 forward_v I I I I #
coedge $-1 $85 $86 $87 $88 forward $33 $-1 #
coedge $-1 $89 $35 $90 $91 forward $21 $-1 #
coedge $-1 $35 $89 $92 $93 forward $21 $-1 #
coedge $-1 $94 $95 $35 $56 reversed $96 $-1 #
edge $-1 $97 -38.044996349919394 $98 38.044996349919394 $55 $99 forward 7 unknown #
face $-1 $100 $101 $13 $-1 $102 reversed single #
loop $-1 $-1 $103 $36 #
plane-surface $-1 0 -21.623004437952048 6.7018140407698983 0 -1 0 0 0 -1 forward_v I I I I #
coedge $-1 $104 $105 $106 $107 reversed $37 $-1 #
coedge $-1 $108 $39 $109 $110 reversed $24 $-1 #
coedge $-1 $39 $108 $111 $112 reversed $24 $-1 #
coedge $-1 $113 $114 $39 $64 forward $101 $-1 #
edge $-1 $115 -23.127996152951532 $116 -6.7060042409841873 $63 $117 forward 7 unknown #
face $-1 $118 $119 $14 $-1 $120 reversed single #
loop $-1 $-1 $121 $40 #
plane-surface $-1 0 0 12.57852314697262 0 0 1 1 0 0 forward_v I I I I #
coedge $-1 $122 $123 $121 $124 reversed $41 $-1 #
coedge $-1 $70 $43 $123 $125 forward $27 $-1 #
coedge $-1 $43 $69 $126 $127 reversed $27 $-1 #
coedge $-1 $128 $121 $43 $72 forward $66 $-1 #
edge $-1 $129 -19.373146477843662 $130 -9.9169031790248567 $71 $131 forward 7 unknown #
face $-1 $132 $133 $15 $-1 $134 forward single #
loop $-1 $-1 $135 $44 #
plane-surface $-1 -128.81174147569857 25.372244692988073 83.461848835726613 0 1 0 -0.68199836817093118 0 0.7313536940579346 forward_v I I I I #
loop $-1 $-1 $136 $29 #
coedge $-1 $77 $77 $78 $137 forward $45 $-1 #
coedge $-1 $78 $78 $77 $137 reversed $47 $-1 #
coedge $-1 $79 $79 $48 $80 forward $133 $-1 #
edge $-1 $138 0 $138 6.2831853071796004 $79 $139 forward 7 unknown #
face $-1 $140 $141 $12 $-1 $142 reversed single #
loop $-1 $-1 $143 $49 #
plane-surface $-1 -54.488967558824427 0 0 1 0 0 0 0 -1 forward_v I I I I #
coedge $-1 $144 $92 $145 $146 forward $50 $-1 #
coedge $-1 $147 $52 $144 $148 forward $33 $-1 #
coedge $-1 $52 $147 $149 $150 forward $33 $-1 #
coedge $-1 $95 $94 $52 $88 reversed $96 $-1 #
edge $-1 $151 -38.044996349919394 $152 38.044996349919394 $87 $153 forward 7 unknown #
coedge $-1 $54 $53 $154 $155 forward $21 $-1 #
coedge $-1 $156 $157 $53 $91 reversed $141 $-1 #
edge $-1 $98 -54.488967558824427 $158 54.488967558824427 $90 $159 forward 7 unknown #
coedge $-1 $84 $160 $54 $93 reversed $50 $-1 #
edge $-1 $161 -54.488967558824427 $97 54.488967558824427 $92 $162 forward 7 unknown #
coedge $-1 $87 $55 $160 $163 forward $96 $-1 #
coedge $-1 $55 $87 $156 $164 reversed $96 $-1 #
loop $-1 $-1 $94 $140 #
vertex $-1 $56 $165 #
vertex $-1 $56 $166 #
straight-curve $-1 54.488967558824427 0 12.57852314697262 0 1 0 I I #
face $-1 $167 $168 $13 $-1 $169 reversed single #
loop $-1 $-1 $63 $57 #
plane-surface $-1 54.488967558824427 0 0 -1 0 0 0 0 1 forward_v I I I I #
coedge $-1 $111 $170 $113 $171 reversed $58 $-1 #
coedge $-1 $172 $60 $170 $173 reversed $37 $-1 #
coedge $-1 $60 $172 $174 $175 reversed $37 $-1 #
coedge $-1 $176 $113 $60 $107 forward $101 $-1 #
edge $-1 $177 6.7060042409841873 $178 23.127996152951532 $106 $179 forward 7 unknown #
coedge $-1 $62 $61 $180 $181 reversed $24 $-1 #
coedge $-1 $182 $183 $61 $110 forward $184 $-1 #
edge $-1 $185 -54.488967558824427 $115 54.488967558824427 $109 $186 forward 7 unknown #
coedge $-1 $187 $103 $62 $112 forward $58 $-1 #
edge $-1 $116 -54.488967558824427 $188 54.488967558824427 $111 $189 forward 7 unknown #
coedge $-1 $106 $63 $103 $171 forward $101 $-1 #
coedge $-1 $63 $190 $182 $191 forward $101 $-1 #
vertex $-1 $110 $192 #
vertex $-1 $64 $193 #
straight-curve $-1 54.488967558824427 -14.917000196967861 9.9946024558761639 0 1 0 I I #
face $-1 $194 $195 $14 $-1 $196 reversed single #
loop $-1 $-1 $126 $65 #
plane-surface $-1 -54.488967558824427 0 0 1 0 0 0 0 -1 forward_v I I I I #
coedge $-1 $71 $197 $68 $124 forward $66 $-1 #
coedge $-1 $198 $68 $199 $200 reversed $41 $-1 #
coedge $-1 $68 $198 $69 $125 reversed $41 $-1 #
edge $-1 $201 -22.190686089192521 $129 -9.5179344322612067 $121 $202 forward 7 unknown #
edge $-1 $129 -12.929781274981462 $203 0 $69 $204 forward 7 unknown #
coedge $-1 $205 $206 $70 $127 forward $119 $-1 #
edge $-1 $130 29.152401270890685 $203 37.970491001235104 $126 $207 forward 7 unknown #
coedge $-1 $208 $71 $206 $209 forward $66 $-1 #
vertex $-1 $124 $210 #
vertex $-1 $209 $211 #
straight-curve $-1 -64.405870737849284 25.372244692988073 12.578523146972621 -1 0 0 I I #
face $-1 $212 $213 $15 $-1 $214 forward single #
loop $-1 $215 $79 $73 #
plane-surface $-1 -54.488967558824427 31.708620521453732 3.760433416628203 -0.68199836817093118 0 0.7313536940579346 0.7313536940579346 0 0.68199836817093118 forward_v I I I I #
coedge $-1 $216 $217 $218 $219 reversed $74 $-1 #
coedge $-1 $136 $136 $-1 $220 forward $76 $-1 #
edge $-1 $221 0 $221 6.2831853071796004 $77 $222 forward 7 unknown #
vertex $-1 $80 $223 #
ellipse-curve $-1 -49.760845909415025 31.708620521453732 8.1694782818004121 0.68199836817093118 0 -0.7313536940579346 0.7313536940579346 0 0.68199836817093118 1 I I #
face $-1 $-1 $96 $12 $-1 $224 reversed single #
loop $-1 $-1 $156 $81 #
plane-surface $-1 0 38.044996349919394 0 0 -1 0 0 0 -1 forward_v I I I I #
coedge $-1 $225 $154 $157 $226 forward $82 $-1 #
coedge $-1 $160 $84 $85 $148 reversed $50 $-1 #
coedge $-1 $154 $225 $84 $146 reversed $82 $-1 #
edge $-1 $161 -12.57852314697262 $227 12.57852314697262 $145 $228 forward 7 unknown #
coedge $-1 $86 $85 $225 $229 forward $33 $-1 #
edge $-1 $152 -54.488967558824427 $227 54.488967558824427 $144 $230 forward 7 unknown #
coedge $-1 $157 $156 $86 $150 reversed $141 $-1 #
edge $-1 $231 -54.488967558824427 $151 54.488967558824427 $149 $232 forward 7 unknown #
vertex $-1 $88 $233 #
vertex $-1 $163 $234 #
straight-curve $-1 54.488967558824427 0 -12.57852314697262 0 -1 0 I I #
coedge $-1 $143 $145 $89 $155 reversed $82 $-1 #
edge $-1 $158 -38.044996349919394 $161 38.044996349919394 $154 $235 forward 7 unknown #
coedge $-1 $149 $90 $95 $164 forward $141 $-1 #
coedge $-1 $90 $149 $143 $226 reversed $141 $-1 #
vertex $-1 $91 $236 #
straight-curve $-1 0 38.044996349919394 12.57852314697262 -1 0 0 I I #
coedge $-1 $92 $144 $94 $163 reversed $50 $-1 #
vertex $-1 $155 $237 #
straight-curve $-1 0 -38.044996349919394 12.57852314697262 1 0 0 I I #
edge $-1 $97 -12.57852314697262 $152 12.57852314697262 $94 $238 forward 7 unknown #
edge $-1 $98 -12.57852314697262 $151 12.57852314697262 $95 $239 forward 7 unknown #
point $-1 54.488967558824427 -38.044996349919394 12.57852314697262 #
point $-1 54.488967558824427 38.044996349919394 12.57852314697262 #
face $-1 $240 $241 $13 $-1 $242 forward single #
loop $-1 $-1 $174 $100 #
plane-surface $-1 0 -38.044996349919394 0 0 1 0 0 0 1 forward_v I I I I #
coedge $-1 $103 $187 $104 $173 forward $58 $-1 #
edge $-1 $116 -6.6436954354912148 $177 -0.058118605278683511 $113 $243 forward 7 unknown #
coedge $-1 $105 $104 $244 $245 reversed $37 $-1 #
edge $-1 $246 -54.488967558824427 $177 54.488967558824427 $170 $247 forward 7 unknown #
coedge $-1 $248 $249 $105 $175 forward $168 $-1 #
edge $-1 $178 -54.488967558824427 $250 54.488967558824427 $174 $251 forward 7 unknown #
coedge $-1 $252 $106 $249 $253 forward $101 $-1 #
vertex $-1 $107 $254 #
vertex $-1 $253 $255 #
straight-curve $-1 54.488967558824427 -14.917000196967861 3.4090256256636327 0 -1 0 I I #
coedge $-1 $256 $257 $108 $181 forward $258 $-1 #
edge $-1 $188 6.7060042409841873 $185 23.127996152951532 $180 $259 forward 7 unknown #
coedge $-1 $260 $109 $114 $191 reversed $184 $-1 #
coedge $-1 $109 $260 $256 $261 forward $184 $-1 #
loop $-1 $-1 $109 $262 #
vertex $-1 $181 $263 #
straight-curve $-1 0 -38.044996349919394 9.9946024558761639 1 0 0 I I #
coedge $-1 $170 $111 $257 $264 reversed $58 $-1 #
vertex $-1 $181 $265 #
straight-curve $-1 0 -21.623004437952048 9.9946024558761639 -1 0 0 I I #
coedge $-1 $114 $266 $267 $268 reversed $101 $-1 #
edge $-1 $269 -12.57852314697262 $115 -9.9946024558761639 $114 $270 forward 7 unknown #
point $-1 54.488967558824427 -38.044996349919394 9.9946024558761639 #
point $-1 54.488967558824427 -21.623004437952048 9.9946024558761639 #
face $-1 $271 $272 $14 $-1 $273 forward single #
loop $-1 $-1 $274 $118 #
plane-surface $-1 0 -29.834000393935721 9.9946024558761639 0 0 1 1 0 0 forward_v I I I I #
coedge $-1 $121 $275 $276 $277 forward $66 $-1 #
coedge $-1 $123 $122 $205 $278 reversed $41 $-1 #
coedge $-1 $276 $279 $122 $200 forward $280 $-1 #
edge $-1 $281 -18.643049127896667 $201 -5.7132678529152061 $199 $282 forward 7 unknown #
vertex $-1 $200 $283 #
straight-curve $-1 -45.032724260005629 15.854310260726866 12.57852314697262 0 -1 0 I I #
vertex $-1 $278 $284 #
straight-curve $-1 -54.488967558824427 25.372244692988073 3.760433416628203 -0.7313536940579346 0 -0.68199836817093118 I I #
coedge $-1 $285 $126 $198 $278 forward $119 $-1 #
coedge $-1 $126 $286 $128 $209 reversed $119 $-1 #
straight-curve $-1 -54.488967558824427 25.372244692988073 41.730924417863307 0 0 -1 I I #
coedge $-1 $275 $128 $287 $288 forward $66 $-1 #
edge $-1 $130 -25.372244692988073 $289 38.044996349919394 $206 $290 forward 7 unknown #
point $-1 -45.032724260005622 25.372244692988073 12.57852314697262 #
point $-1 -54.488967558824427 25.372244692988073 12.57852314697262 #
face $-1 $291 $292 $15 $-1 $293 reversed single #
loop $-1 $-1 $294 $132 #
plane-surface $-1 0 0 12.57852314697262 0 0 1 1 0 0 forward_v I I I I #
loop $-1 $-1 $295 $73 #
coedge $-1 $217 $135 $296 $297 forward $74 $-1 #
coedge $-1 $135 $216 $298 $299 reversed $74 $-1 #
coedge $-1 $300 $294 $135 $219 forward $213 $-1 #
edge $-1 $301 -19.373146477843662 $302 -9.9169031790248567 $218 $303 forward 7 unknown #
edge $-1 $304 1 $304 0 $136 $-1 forward 7 unknown #
vertex $-1 $137 $305 #
ellipse-curve $-1 -48.159532806183151 31.708620521453732 6.4522802531117458 -0.68199836817093118 0 0.7313536940579346 0.7313536940579346 0 0.68199836817093118 1 I I #
point $-1 -49.029492215357088 31.708620521453732 8.8514766499713353 #
plane-surface $-1 54.488967558824427 0 0 -1 0 0 0 0 1 forward_v I I I I #
coedge $-1 $145 $143 $147 $229 reversed $82 $-1 #
edge $-1 $158 -12.57852314697262 $231 12.57852314697262 $157 $306 forward 7 unknown #
vertex $-1 $229 $307 #
straight-curve $-1 -54.488967558824427 -38.044996349919394 0 0 0 -1 I I #
edge $-1 $227 -38.044996349919394 $231 38.044996349919394 $225 $308 forward 7 unknown #
straight-curve $-1 0 -38.044996349919394 -12.57852314697262 -1 0 0 I I #
vertex $-1 $150 $309 #
straight-curve $-1 0 38.044996349919394 -12.57852314697262 1 0 0 I I #
point $-1 54.488967558824427 38.044996349919394 -12.57852314697262 #
point $-1 54.488967558824427 -38.044996349919394 -12.57852314697262 #
straight-curve $-1 -54.488967558824427 0 12.57852314697262 0 -1 0 I I #
point $-1 -54.488967558824427 38.044996349919394 12.57852314697262 #
point $-1 -54.488967558824427 -38.044996349919394 12.57852314697262 #
straight-curve $-1 54.488967558824427 -38.044996349919394 0 0 0 -1 I I #
straight-curve $-1 54.488967558824427 38.044996349919394 0 0 0 -1 I I #
face $-1 $262 $310 $13 $-1 $311 reversed single #
loop $-1 $-1 $267 $167 #
plane-surface $-1 0 0 12.57852314697262 0 0 1 1 0 0 forward_v I I I I #
straight-curve $-1 54.488967558824427 -21.623004437952048 3.3509070203849491 0 0 -1 I I #
coedge $-1 $257 $312 $172 $245 forward $258 $-1 #
edge $-1 $250 -23.127996152951532 $246 -6.7060042409841873 $244 $313 forward 7 unknown #
vertex $-1 $245 $314 #
straight-curve $-1 0 -21.623004437952048 3.4090256256636327 1 0 0 I I #
coedge $-1 $315 $174 $312 $316 forward $168 $-1 #
coedge $-1 $174 $315 $176 $253 reversed $168 $-1 #
vertex $-1 $316 $317 #
straight-curve $-1 0 -38.044996349919394 3.4090256256636327 -1 0 0 I I #
coedge $-1 $266 $176 $318 $319 reversed $101 $-1 #
edge $-1 $178 -3.4090256256636327 $320 12.57852314697262 $176 $270 forward 7 unknown #
point $-1 54.488967558824427 -21.623004437952048 3.4090256256636327 #
point $-1 54.488967558824427 -38.044996349919394 3.4090256256636327 #
coedge $-1 $321 $180 $183 $261 reversed $258 $-1 #
coedge $-1 $180 $244 $187 $264 forward $258 $-1 #
loop $-1 $-1 $180 $322 #
straight-curve $-1 -54.488967558824427 -14.917000196967861 9.9946024558761639 0 -1 0 I I #
coedge $-1 $183 $182 $323 $324 reversed $184 $-1 #
edge $-1 $325 -12.57852314697262 $185 -9.9946024558761639 $256 $326 forward 7 unknown #
face $-1 $322 $184 $13 $-1 $169 reversed single #
point $-1 -54.488967558824427 -38.044996349919394 9.9946024558761639 #
edge $-1 $246 0.058118605278683511 $188 6.6436954354912148 $257 $327 forward 7 unknown #
point $-1 -54.488967558824427 -21.623004437952048 9.9946024558761639 #
coedge $-1 $190 $252 $328 $329 reversed $101 $-1 #
coedge $-1 $330 $323 $190 $268 forward $241 $-1 #
edge $-1 $269 -38.044996349919394 $331 38.044996349919394 $190 $332 forward 7 unknown #
vertex $-1 $268 $333 #
straight-curve $-1 54.488967558824427 -38.044996349919394 0 0 0 -1 I I #
face $-1 $334 $335 $14 $-1 $336 forward single #
loop $-1 $-1 $337 $194 #
plane-surface $-1 0 -29.834000393935721 3.4090256256636327 0 0 1 1 0 0 forward_v I I I I #
coedge $-1 $338 $339 $340 $341 reversed $195 $-1 #
coedge $-1 $197 $208 $342 $343 forward $66 $-1 #
coedge $-1 $344 $199 $197 $277 reversed $280 $-1 #
edge $-1 $345 -54.488967558824427 $201 45.032724260005622 $276 $346 forward 7 unknown #
edge $-1 $203 9.5179344322612067 $281 22.190686089192521 $205 $347 forward 7 unknown #
coedge $-1 $199 $348 $285 $349 reversed $280 $-1 #
loop $-1 $-1 $199 $350 #
vertex $-1 $349 $351 #
straight-curve $-1 -40.854304710633642 38.044996349919394 16.47496249958423 0.7313536940579346 0 0.68199836817093118 I I #
point $-1 -45.032724260005622 38.044996349919387 12.57852314697262 #
point $-1 -54.488967558824427 25.372244692988073 3.760433416628203 #
coedge $-1 $352 $205 $279 $349 forward $119 $-1 #
coedge $-1 $206 $353 $354 $355 reversed $119 $-1 #
coedge $-1 $354 $356 $208 $288 reversed $357 $-1 #
edge $-1 $289 -54.488967558824427 $358 54.488967558824427 $287 $359 forward 7 unknown #
vertex $-1 $209 $360 #
straight-curve $-1 -54.488967558824427 0 12.57852314697262 0 -1 0 I I #
face $-1 $361 $362 $15 $-1 $363 reversed single #
loop $-1 $-1 $298 $212 #
plane-surface $-1 -54.488967558824427 0 0 1 0 0 0 0 -1 forward_v I I I I #
coedge $-1 $218 $364 $295 $365 forward $213 $-1 #
coedge $-1 $366 $296 $294 $365 reversed $215 $-1 #
coedge $-1 $295 $367 $216 $297 reversed $215 $-1 #
edge $-1 $301 -12.929781274981462 $368 0 $216 $369 forward 7 unknown #
coedge $-1 $370 $371 $217 $299 forward $292 $-1 #
edge $-1 $302 29.152401270890685 $368 37.970491001235104 $298 $372 forward 7 unknown #
coedge $-1 $373 $218 $371 $374 forward $213 $-1 #
vertex $-1 $365 $375 #
vertex $-1 $374 $376 #
straight-curve $-1 -64.405870737849284 25.372244692988073 12.578523146972621 -1 0 0 I I #
vertex $-1 $220 $377 #
point $-1 -47.428179112125214 31.708620521453732 7.134278621282677 #
straight-curve $-1 -54.488967558824427 38.044996349919394 0 0 0 -1 I I #
point $-1 -54.488967558824427 -38.044996349919394 -12.57852314697262 #
straight-curve $-1 -54.488967558824427 0 -12.57852314697262 0 1 0 I I #
point $-1 -54.488967558824427 38.044996349919394 -12.57852314697262 #
loop $-1 $-1 $318 $240 #
plane-surface $-1 0 0 -12.57852314697262 0 0 1 1 0 0 forward_v I I I I #
coedge $-1 $244 $378 $248 $316 reversed $258 $-1 #
straight-curve $-1 -54.488967558824427 -14.917000196967861 3.4090256256636327 0 1 0 I I #
point $-1 -54.488967558824427 -21.623004437952048 3.4090256256636327 #
coedge $-1 $249 $248 $379 $380 reversed $168 $-1 #
edge $-1 $250 -3.4090256256636327 $381 12.57852314697262 $312 $326 forward 7 unknown #
point $-1 -54.488967558824427 -38.044996349919394 3.4090256256636327 #
coedge $-1 $379 $382 $252 $319 forward $310 $-1 #
edge $-1 $383 -38.044996349919394 $320 38.044996349919394 $252 $384 forward 7 unknown #
vertex $-1 $253 $385 #
coedge $-1 $386 $256 $387 $388 reversed $258 $-1 #
face $-1 $389 $258 $13 $-1 $390 reversed single #
coedge $-1 $267 $387 $260 $324 forward $241 $-1 #
edge $-1 $325 -54.488967558824427 $269 54.488967558824427 $260 $391 forward 7 unknown #
vertex $-1 $388 $392 #
straight-curve $-1 -54.488967558824427 -38.044996349919394 0 0 0 -1 I I #
straight-curve $-1 -54.488967558824427 -21.623004437952048 3.3509070203849491 0 0 1 I I #
coedge $-1 $393 $394 $266 $329 forward $395 $-1 #
edge $-1 $331 -12.57852314697262 $383 12.57852314697262 $266 $396 forward 7 unknown #
coedge $-1 $387 $267 $394 $397 forward $241 $-1 #
vertex $-1 $268 $398 #
straight-curve $-1 54.488967558824427 0 12.57852314697262 0 1 0 I I #
point $-1 54.488967558824427 -38.044996349919394 12.57852314697262 #
face $-1 $399 $400 $14 $-1 $401 reversed single #
loop $-1 $-1 $402 $271 #
plane-surface $-1 0 -21.623004437952048 6.7018140407698983 0 -1 0 0 0 -1 forward_v I I I I #
coedge $-1 $403 $404 $405 $406 reversed $272 $-1 #
coedge $-1 $407 $274 $408 $409 reversed $195 $-1 #
coedge $-1 $274 $407 $410 $411 reversed $195 $-1 #
coedge $-1 $412 $413 $274 $341 forward $400 $-1 #
edge $-1 $414 -23.127996152951532 $415 -6.7060042409841873 $340 $416 forward 7 unknown #
coedge $-1 $413 $417 $275 $343 reversed $400 $-1 #
edge $-1 $358 -38.044996349919394 $345 38.044996349919394 $342 $418 forward 7 unknown #
coedge $-1 $348 $276 $417 $419 forward $280 $-1 #
vertex $-1 $343 $420 #
straight-curve $-1 0 38.044996349919394 12.57852314697262 -1 0 0 I I #
straight-curve $-1 -54.488967558824427 15.854310260726866 3.760433416628203 0 1 0 I I #
coedge $-1 $279 $344 $421 $422 reversed $280 $-1 #
edge $-1 $281 -3.760433416628203 $423 12.57852314697262 $279 $424 forward 7 unknown #
face $-1 $-1 $280 $14 $-1 $425 reversed single #
point $-1 -54.488967558824427 38.044996349919387 3.760433416628203 #
coedge $-1 $426 $285 $427 $428 reversed $119 $-1 #
coedge $-1 $286 $429 $407 $430 forward $119 $-1 #
coedge $-1 $408 $287 $286 $355 forward $357 $-1 #
edge $-1 $289 -12.57852314697262 $431 -9.9946024558761639 $286 $432 forward 7 unknown #
coedge $-1 $287 $408 $413 $433 reversed $357 $-1 #
loop $-1 $-1 $408 $434 #
vertex $-1 $343 $435 #
straight-curve $-1 0 -38.044996349919394 12.57852314697262 1 0 0 I I #
point $-1 -54.488967558824427 -38.044996349919394 12.57852314697262 #
face $-1 $436 $437 $15 $-1 $438 forward single #
loop $-1 $-1 $439 $291 #
plane-surface $-1 0 -29.834000393935721 9.9946024558761639 0 0 1 1 0 0 forward_v I I I I #
coedge $-1 $294 $440 $441 $442 forward $213 $-1 #
edge $-1 $443 -22.190686089192521 $301 -9.5179344322612067 $294 $444 forward 7 unknown #
coedge $-1 $367 $295 $445 $446 reversed $215 $-1 #
coedge $-1 $296 $366 $370 $447 reversed $215 $-1 #
vertex $-1 $447 $448 #
straight-curve $-1 -54.488967558824427 25.372244692988073 3.760433416628203 -0.7313536940579346 0 -0.68199836817093118 I I #
coedge $-1 $449 $298 $367 $447 forward $292 $-1 #
coedge $-1 $298 $450 $300 $374 reversed $292 $-1 #
straight-curve $-1 -54.488967558824427 25.372244692988073 41.730924417863307 0 0 -1 I I #
coedge $-1 $440 $300 $451 $452 forward $213 $-1 #
edge $-1 $302 -25.372244692988073 $453 38.044996349919394 $371 $454 forward 7 unknown #
point $-1 -45.032724260005622 25.372244692988073 12.57852314697262 #
point $-1 -54.488967558824427 25.372244692988073 12.57852314697262 #
point $-1 -47.477534438012214 31.708620521453732 5.7209265590538108 #
coedge $-1 $312 $386 $455 $456 reversed $258 $-1 #
coedge $-1 $455 $318 $315 $380 forward $310 $-1 #
edge $-1 $320 -54.488967558824427 $381 54.488967558824427 $315 $457 forward 7 unknown #
vertex $-1 $456 $458 #
coedge $-1 $318 $455 $393 $459 forward $310 $-1 #
vertex $-1 $319 $460 #
straight-curve $-1 54.488967558824427 0 -12.57852314697262 0 -1 0 I I #
point $-1 54.488967558824427 -38.044996349919394 -12.57852314697262 #
coedge $-1 $378 $321 $461 $462 forward $258 $-1 #
coedge $-1 $323 $330 $321 $388 forward $241 $-1 #
edge $-1 $463 -38.044996349919394 $325 38.044996349919394 $321 $464 forward 7 unknown #
face $-1 $-1 $395 $13 $-1 $465 reversed single #
plane-surface $-1 -54.488967558824427 0 0 1 0 0 0 0 -1 forward_v I I I I #
straight-curve $-1 0 -38.044996349919394 12.57852314697262 1 0 0 I I #
point $-1 -54.488967558824427 -38.044996349919394 12.57852314697262 #
coedge $-1 $461 $328 $382 $459 reversed $395 $-1 #
coedge $-1 $328 $461 $330 $397 reversed $395 $-1 #
loop $-1 $-1 $328 $389 #
straight-curve $-1 54.488967558824427 38.044996349919394 0 0 0 -1 I I #
edge $-1 $331 -54.488967558824427 $463 54.488967558824427 $394 $466 forward 7 unknown #
point $-1 54.488967558824427 38.044996349919394 12.57852314697262 #
face $-1 $467 $468 $14 $-1 $469 reversed single #
loop $-1 $-1 $340 $334 #
plane-surface $-1 54.488967558824427 0 0 -1 0 0 0 0 1 forward_v I I I I #
coedge $-1 $410 $470 $412 $471 reversed $335 $-1 #
coedge $-1 $472 $337 $470 $473 reversed $272 $-1 #
coedge $-1 $337 $472 $474 $475 reversed $272 $-1 #
coedge $-1 $476 $412 $337 $406 forward $400 $-1 #
edge $-1 $477 6.7060042409841873 $478 23.127996152951532 $405 $479 forward 7 unknown #
coedge $-1 $339 $338 $353 $430 reversed $195 $-1 #
coedge $-1 $356 $354 $338 $409 forward $357 $-1 #
edge $-1 $431 -54.488967558824427 $414 54.488967558824427 $408 $480 forward 7 unknown #
coedge $-1 $481 $402 $339 $411 forward $335 $-1 #
edge $-1 $415 -54.488967558824427 $482 54.488967558824427 $410 $483 forward 7 unknown #
coedge $-1 $405 $340 $402 $471 forward $400 $-1 #
coedge $-1 $340 $342 $356 $433 forward $400 $-1 #
vertex $-1 $409 $484 #
vertex $-1 $341 $485 #
straight-curve $-1 54.488967558824427 -14.917000196967861 9.9946024558761639 0 1 0 I I #
coedge $-1 $342 $486 $344 $419 reversed $400 $-1 #
straight-curve $-1 54.488967558824427 0 12.57852314697262 0 1 0 I I #
edge $-1 $345 -12.57852314697262 $487 12.57852314697262 $417 $488 forward 7 unknown #
point $-1 54.488967558824427 38.044996349919394 12.57852314697262 #
coedge $-1 $489 $427 $348 $422 forward $490 $-1 #
edge $-1 $423 -54.488967558824427 $487 54.488967558824427 $348 $491 forward 7 unknown #
vertex $-1 $422 $492 #
straight-curve $-1 -54.488967558824427 38.044996349919394 0 0 0 -1 I I #
plane-surface $-1 0 38.044996349919394 0 0 -1 0 0 0 -1 forward_v I I I I #
coedge $-1 $493 $352 $494 $495 reversed $119 $-1 #
coedge $-1 $421 $496 $352 $428 forward $490 $-1 #
edge $-1 $497 -38.044996349919394 $423 38.044996349919394 $352 $498 forward 7 unknown #
coedge $-1 $353 $493 $481 $499 forward $119 $-1 #
edge $-1 $482 6.7060042409841873 $431 23.127996152951532 $353 $500 forward 7 unknown #
vertex $-1 $430 $501 #
straight-curve $-1 -54.488967558824427 -38.044996349919394 0 0 0 -1 I I #
edge $-1 $358 -12.57852314697262 $414 -9.9946024558761639 $413 $502 forward 7 unknown #
face $-1 $350 $357 $14 $-1 $469 reversed single #
point $-1 54.488967558824427 -38.044996349919394 12.57852314697262 #
face $-1 $503 $504 $15 $-1 $505 forward single #
loop $-1 $-1 $506 $361 #
plane-surface $-1 0 -29.834000393935721 3.4090256256636327 0 0 1 1 0 0 forward_v I I I I #
coedge $-1 $507 $508 $509 $510 reversed $362 $-1 #
coedge $-1 $364 $373 $511 $512 forward $213 $-1 #
coedge $-1 $513 $445 $364 $442 reversed $514 $-1 #
edge $-1 $515 -54.488967558824427 $443 45.032724260005622 $441 $516 forward 7 unknown #
vertex $-1 $446 $517 #
straight-curve $-1 -45.032724260005629 15.854310260726866 12.57852314697262 0 -1 0 I I #
coedge $-1 $441 $518 $366 $446 forward $514 $-1 #
edge $-1 $519 -18.643049127896667 $443 -5.7132678529152061 $445 $520 forward 7 unknown #
edge $-1 $368 9.5179344322612067 $519 22.190686089192521 $370 $521 forward 7 unknown #
point $-1 -54.488967558824427 25.372244692988073 3.760433416628203 #
coedge $-1 $522 $370 $518 $523 forward $292 $-1 #
coedge $-1 $371 $524 $525 $526 reversed $292 $-1 #
coedge $-1 $525 $527 $373 $452 reversed $528 $-1 #
edge $-1 $453 -54.488967558824427 $529 54.488967558824427 $451 $530 forward 7 unknown #
vertex $-1 $374 $531 #
straight-curve $-1 -54.488967558824427 0 12.57852314697262 0 -1 0 I I #
coedge $-1 $382 $379 $378 $456 forward $310 $-1 #
edge $-1 $381 -38.044996349919394 $532 38.044996349919394 $378 $533 forward 7 unknown #
straight-curve $-1 0 -38.044996349919394 -12.57852314697262 -1 0 0 I I #
point $-1 -54.488967558824427 -38.044996349919394 -12.57852314697262 #
edge $-1 $532 -54.488967558824427 $383 54.488967558824427 $393 $534 forward 7 unknown #
point $-1 54.488967558824427 38.044996349919394 -12.57852314697262 #
coedge $-1 $394 $393 $386 $462 reversed $395 $-1 #
edge $-1 $463 -12.57852314697262 $532 12.57852314697262 $461 $535 forward 7 unknown #
vertex $-1 $397 $536 #
straight-curve $-1 -54.488967558824427 0 12.57852314697262 0 -1 0 I I #
plane-surface $-1 0 38.044996349919394 0 0 -1 0 0 0 -1 forward_v I I I I #
straight-curve $-1 0 38.044996349919394 12.57852314697262 -1 0 0 I I #
face $-1 $434 $490 $14 $-1 $537 reversed single #
loop $-1 $-1 $474 $399 #
plane-surface $-1 0 -38.044996349919394 0 0 1 0 0 0 1 forward_v I I I I #
coedge $-1 $402 $481 $403 $473 forward $335 $-1 #
edge $-1 $415 -6.6436954354912148 $477 -0.058118605278683511 $412 $538 forward 7 unknown #
coedge $-1 $404 $403 $493 $539 reversed $272 $-1 #
edge $-1 $540 -54.488967558824427 $477 54.488967558824427 $470 $541 forward 7 unknown #
coedge $-1 $494 $542 $404 $475 forward $468 $-1 #
edge $-1 $478 -54.488967558824427 $543 54.488967558824427 $474 $544 forward 7 unknown #
coedge $-1 $486 $405 $542 $545 forward $400 $-1 #
vertex $-1 $406 $546 #
vertex $-1 $545 $547 #
straight-curve $-1 54.488967558824427 -14.917000196967861 3.4090256256636327 0 -1 0 I I #
straight-curve $-1 0 -38.044996349919394 9.9946024558761639 1 0 0 I I #
coedge $-1 $470 $410 $429 $499 reversed $335 $-1 #
vertex $-1 $430 $548 #
straight-curve $-1 0 -21.623004437952048 9.9946024558761639 -1 0 0 I I #
point $-1 54.488967558824427 -38.044996349919394 9.9946024558761639 #
point $-1 54.488967558824427 -21.623004437952048 9.9946024558761639 #
coedge $-1 $417 $476 $489 $549 reversed $400 $-1 #
vertex $-1 $549 $550 #
straight-curve $-1 54.488967558824427 38.044996349919394 0 0 0 -1 I I #
coedge $-1 $496 $421 $486 $549 forward $490 $-1 #
loop $-1 $-1 $489 $467 #
straight-curve $-1 0 38.044996349919394 -12.57852314697262 1 0 0 I I #
point $-1 -54.488967558824427 38.044996349919394 -12.57852314697262 #
coedge $-1 $429 $426 $472 $539 forward $119 $-1 #
coedge $-1 $551 $474 $426 $495 forward $468 $-1 #
edge $-1 $543 -3.4090256256636327 $497 12.57852314697262 $426 $432 forward 7 unknown #
coedge $-1 $427 $489 $551 $552 forward $490 $-1 #
vertex $-1 $428 $553 #
straight-curve $-1 -54.488967558824427 0 -12.57852314697262 0 1 0 I I #
edge $-1 $540 0.058118605278683511 $482 6.6436954354912148 $429 $554 forward 7 unknown #
straight-curve $-1 -54.488967558824427 -14.917000196967861 9.9946024558761639 0 -1 0 I I #
point $-1 -54.488967558824427 -38.044996349919394 9.9946024558761639 #
straight-curve $-1 54.488967558824427 -38.044996349919394 0 0 0 -1 I I #
face $-1 $555 $556 $15 $-1 $557 reversed single #
loop $-1 $-1 $558 $436 #
plane-surface $-1 0 -21.623004437952048 6.7018140407698983 0 -1 0 0 0 -1 forward_v I I I I #
coedge $-1 $559 $560 $561 $562 reversed $437 $-1 #
coedge $-1 $563 $439 $564 $565 reversed $362 $-1 #
coedge $-1 $439 $563 $566 $567 reversed $362 $-1 #
coedge $-1 $568 $569 $439 $510 forward $556 $-1 #
edge $-1 $570 -23.127996152951532 $571 -6.7060042409841873 $509 $572 forward 7 unknown #
coedge $-1 $569 $573 $440 $512 reversed $556 $-1 #
edge $-1 $529 -38.044996349919394 $515 38.044996349919394 $511 $574 forward 7 unknown #
coedge $-1 $575 $441 $573 $576 forward $514 $-1 #
loop $-1 $-1 $445 $577 #
vertex $-1 $512 $578 #
straight-curve $-1 0 38.044996349919394 12.57852314697262 -1 0 0 I I #
point $-1 -45.032724260005622 38.044996349919387 12.57852314697262 #
coedge $-1 $445 $575 $449 $523 reversed $514 $-1 #
vertex $-1 $523 $579 #
straight-curve $-1 -40.854304710633642 38.044996349919394 16.47496249958423 0.7313536940579346 0 0.68199836817093118 I I #
straight-curve $-1 -54.488967558824427 15.854310260726866 3.760433416628203 0 1 0 I I #
coedge $-1 $580 $449 $581 $582 reversed $292 $-1 #
edge $-1 $519 -3.760433416628203 $583 12.57852314697262 $518 $584 forward 7 unknown #
coedge $-1 $450 $585 $563 $586 forward $292 $-1 #
coedge $-1 $564 $451 $450 $526 forward $528 $-1 #
edge $-1 $453 -12.57852314697262 $587 -9.9946024558761639 $450 $588 forward 7 unknown #
coedge $-1 $451 $564 $569 $589 reversed $528 $-1 #
loop $-1 $-1 $564 $590 #
vertex $-1 $512 $591 #
straight-curve $-1 0 -38.044996349919394 12.57852314697262 1 0 0 I I #
point $-1 -54.488967558824427 -38.044996349919394 12.57852314697262 #
vertex $-1 $459 $592 #
straight-curve $-1 -54.488967558824427 0 -12.57852314697262 0 1 0 I I #
straight-curve $-1 0 38.044996349919394 -12.57852314697262 1 0 0 I I #
straight-curve $-1 -54.488967558824427 38.044996349919394 0 0 0 -1 I I #
point $-1 -54.488967558824427 38.044996349919394 12.57852314697262 #
plane-surface $-1 0 0 -12.57852314697262 0 0 1 1 0 0 forward_v I I I I #
straight-curve $-1 54.488967558824427 -21.623004437952048 3.3509070203849491 0 0 -1 I I #
edge $-1 $543 -23.127996152951532 $540 -6.7060042409841873 $493 $593 forward 7 unknown #
vertex $-1 $539 $594 #
straight-curve $-1 0 -21.623004437952048 3.4090256256636327 1 0 0 I I #
coedge $-1 $474 $551 $476 $545 reversed $468 $-1 #
vertex $-1 $495 $595 #
straight-curve $-1 0 -38.044996349919394 3.4090256256636327 -1 0 0 I I #
edge $-1 $478 -3.4090256256636327 $596 12.57852314697262 $476 $502 forward 7 unknown #
point $-1 54.488967558824427 -21.623004437952048 3.4090256256636327 #
point $-1 54.488967558824427 -38.044996349919394 3.4090256256636327 #
point $-1 -54.488967558824427 -21.623004437952048 9.9946024558761639 #
edge $-1 $487 -38.044996349919394 $596 38.044996349919394 $486 $597 forward 7 unknown #
point $-1 54.488967558824427 38.044996349919394 -12.57852314697262 #
coedge $-1 $542 $494 $496 $552 reversed $468 $-1 #
edge $-1 $596 -54.488967558824427 $497 54.488967558824427 $551 $598 forward 7 unknown #
point $-1 -54.488967558824427 -38.044996349919394 -12.57852314697262 #
straight-curve $-1 -54.488967558824427 -21.623004437952048 3.3509070203849491 0 0 1 I I #
face $-1 $599 $600 $15 $-1 $601 reversed single #
loop $-1 $-1 $509 $503 #
plane-surface $-1 54.488967558824427 0 0 -1 0 0 0 0 1 forward_v I I I I #
coedge $-1 $566 $602 $568 $603 reversed $504 $-1 #
coedge $-1 $604 $506 $602 $605 reversed $437 $-1 #
coedge $-1 $506 $604 $606 $607 reversed $437 $-1 #
coedge $-1 $608 $568 $506 $562 forward $556 $-1 #
edge $-1 $609 6.7060042409841873 $610 23.127996152951532 $561 $611 forward 7 unknown #
coedge $-1 $508 $507 $524 $586 reversed $362 $-1 #
coedge $-1 $527 $525 $507 $565 forward $528 $-1 #
edge $-1 $587 -54.488967558824427 $570 54.488967558824427 $564 $612 forward 7 unknown #
coedge $-1 $613 $558 $508 $567 forward $504 $-1 #
edge $-1 $571 -54.488967558824427 $614 54.488967558824427 $566 $615 forward 7 unknown #
coedge $-1 $561 $509 $558 $603 forward $556 $-1 #
coedge $-1 $509 $511 $527 $589 forward $556 $-1 #
vertex $-1 $565 $616 #
vertex $-1 $510 $617 #
straight-curve $-1 54.488967558824427 -14.917000196967861 9.9946024558761639 0 1 0 I I #
coedge $-1 $511 $618 $513 $576 reversed $556 $-1 #
straight-curve $-1 54.488967558824427 0 12.57852314697262 0 1 0 I I #
coedge $-1 $518 $513 $619 $620 reversed $514 $-1 #
edge $-1 $515 -12.57852314697262 $621 12.57852314697262 $573 $622 forward 7 unknown #
face $-1 $-1 $514 $15 $-1 $623 reversed single #
point $-1 54.488967558824427 38.044996349919394 12.57852314697262 #
point $-1 -54.488967558824427 38.044996349919387 3.760433416628203 #
coedge $-1 $624 $522 $625 $626 reversed $292 $-1 #
coedge $-1 $619 $627 $522 $582 forward $628 $-1 #
edge $-1 $629 -38.044996349919394 $583 38.044996349919394 $522 $630 forward 7 unknown #
vertex $-1 $620 $631 #
straight-curve $-1 -54.488967558824427 38.044996349919394 0 0 0 -1 I I #
coedge $-1 $524 $624 $613 $632 forward $292 $-1 #
edge $-1 $614 6.7060042409841873 $587 23.127996152951532 $524 $633 forward 7 unknown #
vertex $-1 $586 $634 #
straight-curve $-1 -54.488967558824427 -38.044996349919394 0 0 0 -1 I I #
edge $-1 $529 -12.57852314697262 $570 -9.9946024558761639 $569 $635 forward 7 unknown #
face $-1 $577 $528 $15 $-1 $601 reversed single #
point $-1 54.488967558824427 -38.044996349919394 12.57852314697262 #
point $-1 -54.488967558824427 38.044996349919394 -12.57852314697262 #
straight-curve $-1 -54.488967558824427 -14.917000196967861 3.4090256256636327 0 1 0 I I #
point $-1 -54.488967558824427 -21.623004437952048 3.4090256256636327 #
point $-1 -54.488967558824427 -38.044996349919394 3.4090256256636327 #
vertex $-1 $545 $636 #
straight-curve $-1 54.488967558824427 0 -12.57852314697262 0 -1 0 I I #
straight-curve $-1 0 -38.044996349919394 -12.57852314697262 -1 0 0 I I #
face $-1 $590 $628 $15 $-1 $637 reversed single #
loop $-1 $-1 $606 $555 #
plane-surface $-1 0 -38.044996349919394 0 0 1 0 0 0 1 forward_v I I I I #
coedge $-1 $558 $613 $559 $605 forward $504 $-1 #
edge $-1 $571 -6.6436954354912148 $609 -0.058118605278683511 $568 $638 forward 7 unknown #
coedge $-1 $560 $559 $624 $639 reversed $437 $-1 #
edge $-1 $640 -54.488967558824427 $609 54.488967558824427 $602 $641 forward 7 unknown #
coedge $-1 $625 $642 $560 $607 forward $600 $-1 #
edge $-1 $610 -54.488967558824427 $643 54.488967558824427 $606 $644 forward 7 unknown #
coedge $-1 $618 $561 $642 $645 forward $556 $-1 #
vertex $-1 $562 $646 #
vertex $-1 $645 $647 #
straight-curve $-1 54.488967558824427 -14.917000196967861 3.4090256256636327 0 -1 0 I I #
straight-curve $-1 0 -38.044996349919394 9.9946024558761639 1 0 0 I I #
coedge $-1 $602 $566 $585 $632 reversed $504 $-1 #
vertex $-1 $586 $648 #
straight-curve $-1 0 -21.623004437952048 9.9946024558761639 -1 0 0 I I #
point $-1 54.488967558824427 -38.044996349919394 9.9946024558761639 #
point $-1 54.488967558824427 -21.623004437952048 9.9946024558761639 #
coedge $-1 $573 $608 $649 $650 reversed $556 $-1 #
coedge $-1 $649 $581 $575 $620 forward $628 $-1 #
edge $-1 $583 -54.488967558824427 $621 54.488967558824427 $575 $651 forward 7 unknown #
vertex $-1 $650 $652 #
straight-curve $-1 54.488967558824427 38.044996349919394 0 0 0 -1 I I #
plane-surface $-1 0 38.044996349919394 0 0 -1 0 0 0 -1 forward_v I I I I #
coedge $-1 $585 $580 $604 $639 forward $292 $-1 #
coedge $-1 $653 $606 $580 $626 forward $600 $-1 #
edge $-1 $643 -3.4090256256636327 $629 12.57852314697262 $580 $588 forward 7 unknown #
coedge $-1 $581 $649 $653 $654 forward $628 $-1 #
loop $-1 $-1 $649 $599 #
vertex $-1 $582 $655 #
straight-curve $-1 -54.488967558824427 0 -12.57852314697262 0 1 0 I I #
point $-1 -54.488967558824427 38.044996349919394 -12.57852314697262 #
edge $-1 $640 0.058118605278683511 $614 6.6436954354912148 $585 $656 forward 7 unknown #
straight-curve $-1 -54.488967558824427 -14.917000196967861 9.9946024558761639 0 -1 0 I I #
point $-1 -54.488967558824427 -38.044996349919394 9.9946024558761639 #
straight-curve $-1 54.488967558824427 -38.044996349919394 0 0 0 -1 I I #
point $-1 54.488967558824427 -38.044996349919394 -12.57852314697262 #
plane-surface $-1 0 0 -12.57852314697262 0 0 1 1 0 0 forward_v I I I I #
straight-curve $-1 54.488967558824427 -21.623004437952048 3.3509070203849491 0 0 -1 I I #
edge $-1 $643 -23.127996152951532 $640 -6.7060042409841873 $624 $657 forward 7 unknown #
vertex $-1 $639 $658 #
straight-curve $-1 0 -21.623004437952048 3.4090256256636327 1 0 0 I I #
coedge $-1 $606 $653 $608 $645 reversed $600 $-1 #
vertex $-1 $626 $659 #
straight-curve $-1 0 -38.044996349919394 3.4090256256636327 -1 0 0 I I #
edge $-1 $610 -3.4090256256636327 $660 12.57852314697262 $608 $635 forward 7 unknown #
point $-1 54.488967558824427 -21.623004437952048 3.4090256256636327 #
point $-1 54.488967558824427 -38.044996349919394 3.4090256256636327 #
point $-1 -54.488967558824427 -21.623004437952048 9.9946024558761639 #
coedge $-1 $627 $619 $618 $650 forward $628 $-1 #
edge $-1 $621 -38.044996349919394 $660 38.044996349919394 $618 $661 forward 7 unknown #
straight-curve $-1 0 38.044996349919394 -12.57852314697262 1 0 0 I I #
point $-1 54.488967558824427 38.044996349919394 -12.57852314697262 #
coedge $-1 $642 $625 $627 $654 reversed $600 $-1 #
edge $-1 $660 -54.488967558824427 $629 54.488967558824427 $653 $662 forward 7 unknown #
point $-1 -54.488967558824427 -38.044996349919394 -12.57852314697262 #
straight-curve $-1 -54.488967558824427 -21.623004437952048 3.3509070203849491 0 0 1 I I #
straight-curve $-1 -54.488967558824427 -14.917000196967861 3.4090256256636327 0 1 0 I I #
point $-1 -54.488967558824427 -21.623004437952048 3.4090256256636327 #
point $-1 -54.488967558824427 -38.044996349919394 3.4090256256636327 #
vertex $-1 $645 $663 #
straight-curve $-1 54.488967558824427 0 -12.57852314697262 0 -1 0 I I #
straight-curve $-1 0 -38.044996349919394 -12.57852314697262 -1 0 0 I I #
point $-1 54.488967558824427 -38.044996349919394 -12.57852314697262 #
End-of-ACIS-data 