500 0 12 0           
7 Unknown 11 ACIS 5.0 NT 24 Fri Mar 26 20:37:19 1999 
-1 9.9999999999999995e-007 1e-010 
body $-1 $12 $-1 $13 #
body $-1 $14 $-1 $15 #
body $-1 $16 $-1 $17 #
body $-1 $18 $-1 $19 #
body $-1 $20 $-1 $21 #
body $-1 $22 $-1 $23 #
body $-1 $24 $-1 $25 #
body $-1 $26 $-1 $27 #
body $-1 $28 $-1 $29 #
body $-1 $30 $-1 $31 #
body $-1 $32 $-1 $33 #
body $-1 $34 $-1 $35 #
lump $-1 $-1 $36 $0 #
transform $-1 1 0 0 0 1 0 0 0 1 77.772148808252211 41.162963419042221 12.438458387930071 1 rotate no_reflect no_shear #
lump $-1 $-1 $37 $1 #
transform $-1 1 0 0 0 1 0 0 0 1 77.772148808252211 5.5221106746642059 1.9056460754187978 1 rotate no_reflect no_shear #
lump $-1 $-1 $38 $2 #
transform $-1 1 0 0 0 1 0 0 0 1 77.772148808252211 78.211214045318798 20.858260739749412 1 rotate no_reflect no_shear #
lump $-1 $-1 $39 $3 #
transform $-1 0.79863550430605224 0 0.6018150307709319 0 1 0 -0.6018150307709319 0 0.79863550430605224 -93.608896256319611 33.223294282528613 140.74098822577329 1 rotate no_reflect no_shear #
lump $-1 $-1 $40 $4 #
transform $-1 0.79863550430605224 0 0.6018150307709319 0 -1 0 0.6018150307709319 0 -0.79863550430605224 9.5802468627753434 29.4137098870922 15.344348061667668 1 rotate no_reflect no_shear #
lump $-1 $-1 $41 $5 #
transform $-1 0.79863550430605224 0 0.6018150307709319 0 -1 0 0.6018150307709319 0 -0.79863550430605224 9.5802468627753434 37.032878677965023 15.344348061667668 1 rotate no_reflect no_shear #
lump $-1 $-1 $42 $6 #
transform $-1 0.5877852410284794 0 -0.80901700255871778 0 1 0 0.80901700255871778 0 0.5877852410284794 189.95563657418734 24.206152528235545 232.47323683125609 1 rotate no_reflect no_shear #
lump $-1 $-1 $43 $7 #
transform $-1 0.5877852410284794 0 -0.80901700255871778 0 -1 0 -0.80901700255871778 0 -0.5877852410284794 149.15107337277914 21.603533733020146 17.949590526692049 1 rotate no_reflect no_shear #
lump $-1 $-1 $44 $8 #
transform $-1 0.5877852410284794 0 -0.80901700255871778 0 -1 0 -0.80901700255871778 0 -0.5877852410284794 149.15107337277914 26.808771323450944 17.949590526692049 1 rotate no_reflect no_shear #
lump $-1 $-1 $45 $9 #
transform $-1 0.5877852410284794 0 -0.80901700255871778 0 1 0 0.80901700255871778 0 0.5877852410284794 189.95563657418734 55.732292479847914 232.47323683125609 1 rotate no_reflect no_shear #
lump $-1 $-1 $46 $10 #
transform $-1 0.5877852410284794 0 -0.80901700255871778 0 -1 0 -0.80901700255871778 0 -0.5877852410284794 149.15107337277914 53.129673684632522 17.949590526692049 1 rotate no_reflect no_shear #
lump $-1 $-1 $47 $11 #
transform $-1 0.5877852410284794 0 -0.80901700255871778 0 -1 0 -0.80901700255871778 0 -0.5877852410284794 149.15107337277914 58.33491127506332 17.949590526692049 1 rotate no_reflect no_shear #
shell $-1 $-1 $-1 $48 $-1 $12 #
shell $-1 $-1 $-1 $49 $-1 $14 #
shell $-1 $-1 $-1 $50 $-1 $16 #
shell $-1 $-1 $-1 $51 $-1 $18 #
shell $-1 $-1 $-1 $52 $-1 $20 #
shell $-1 $-1 $-1 $53 $-1 $22 #
shell $-1 $-1 $-1 $54 $-1 $24 #
shell $-1 $-1 $-1 $55 $-1 $26 #
shell $-1 $-1 $-1 $56 $-1 $28 #
shell $-1 $-1 $-1 $57 $-1 $30 #
shell $-1 $-1 $-1 $58 $-1 $32 #
shell $-1 $-1 $-1 $59 $-1 $34 #
face $-1 $60 $61 $36 $-1 $62 forward single #
face $-1 $63 $64 $37 $-1 $65 forward single #
face $-1 $66 $67 $38 $-1 $68 forward single #
face $-1 $69 $70 $39 $-1 $71 forward single #
face $-1 $72 $73 $40 $-1 $74 forward single #
face $-1 $75 $76 $41 $-1 $77 forward single #
face $-1 $78 $79 $42 $-1 $80 forward single #
face $-1 $81 $82 $43 $-1 $83 forward single #
face $-1 $84 $85 $44 $-1 $86 forward single #
face $-1 $87 $88 $45 $-1 $89 forward single #
face $-1 $90 $91 $46 $-1 $92 forward single #
face $-1 $93 $94 $47 $-1 $95 forward single #
face $-1 $96 $97 $36 $-1 $98 reversed single #
loop $-1 $-1 $99 $48 #
plane-surface $-1 0 0 12.438458387930071 0 0 1 1 0 0 forward_v I I I I #
face $-1 $100 $101 $37 $-1 $102 reversed single #
loop $-1 $-1 $103 $49 #
plane-surface $-1 0 0 1.9056460754187978 0 0 1 1 0 0 forward_v I I I I #
face $-1 $104 $105 $38 $-1 $106 reversed single #
loop $-1 $-1 $107 $50 #
plane-surface $-1 0 0 3.5186560361107269 0 0 1 1 0 0 forward_v I I I I #
face $-1 $108 $109 $39 $-1 $110 reversed single #
loop $-1 $-1 $111 $51 #
plane-surface $-1 0 0 155.54429761650442 0 0 1 1 0 0 forward_v I I I I #
face $-1 $112 $113 $40 $-1 $114 forward single #
loop $-1 $115 $116 $52 #
cone-surface $-1 0 0 -3.8513443403424166 0 0 1 2 0 0 1 I I 0 1 2 forward I I I I #
face $-1 $117 $118 $41 $-1 $119 forward single #
loop $-1 $120 $121 $53 #
cone-surface $-1 0 0 -3.8513443403424166 0 0 1 2 0 0 1 I I 0 1 2 forward I I I I #
face $-1 $122 $123 $42 $-1 $124 reversed single #
loop $-1 $-1 $125 $54 #
plane-surface $-1 0 0 155.54429761650442 0 0 1 1 0 0 forward_v I I I I #
face $-1 $126 $127 $43 $-1 $128 forward single #
loop $-1 $129 $130 $55 #
cone-surface $-1 0 0 -2.1555604724265276 0 0 1 1.5 0 0 1 I I 0 1 1.5 forward I I I I #
face $-1 $131 $132 $44 $-1 $133 forward single #
loop $-1 $134 $135 $56 #
cone-surface $-1 0 0 -2.1555604724265276 0 0 1 1.5 0 0 1 I I 0 1 1.5 forward I I I I #
face $-1 $136 $137 $45 $-1 $138 reversed single #
loop $-1 $-1 $139 $57 #
plane-surface $-1 0 0 155.54429761650442 0 0 1 1 0 0 forward_v I I I I #
face $-1 $140 $141 $46 $-1 $142 forward single #
loop $-1 $143 $144 $58 #
cone-surface $-1 0 0 -2.1555604724265276 0 0 1 1.5 0 0 1 I I 0 1 1.5 forward I I I I #
face $-1 $145 $146 $47 $-1 $147 forward single #
loop $-1 $148 $149 $59 #
cone-surface $-1 0 0 -2.1555604724265276 0 0 1 1.5 0 0 1 I I 0 1 1.5 forward I I I I #
face $-1 $150 $151 $36 $-1 $152 reversed single #
loop $-1 $-1 $153 $60 #
plane-surface $-1 0 0 -12.438458387930071 0 0 1 1 0 0 forward_v I I I I #
coedge $-1 $154 $155 $156 $157 forward $61 $-1 #
face $-1 $158 $159 $37 $-1 $160 reversed single #
loop $-1 $-1 $161 $63 #
plane-surface $-1 0 0 -1.9056460754187978 0 0 1 1 0 0 forward_v I I I I #
coedge $-1 $162 $163 $164 $165 forward $64 $-1 #
face $-1 $166 $167 $38 $-1 $168 reversed single #
loop $-1 $-1 $169 $66 #
plane-surface $-1 0 0 -3.5186560361107269 0 0 1 1 0 0 forward_v I I I I #
coedge $-1 $170 $171 $172 $173 forward $67 $-1 #
face $-1 $174 $175 $39 $-1 $176 reversed single #
loop $-1 $-1 $177 $69 #
plane-surface $-1 0 0 -155.54429761650442 0 0 1 1 0 0 forward_v I I I I #
coedge $-1 $178 $179 $180 $181 forward $70 $-1 #
face $-1 $-1 $182 $40 $-1 $183 forward single #
loop $-1 $-1 $184 $72 #
plane-surface $-1 0 0 -6.702688680684834 0 0 -1 -1 0 0 forward_v I I I I #
loop $-1 $-1 $185 $52 #
coedge $-1 $116 $116 $184 $186 reversed $73 $-1 #
face $-1 $-1 $187 $41 $-1 $188 forward single #
loop $-1 $-1 $189 $75 #
plane-surface $-1 0 0 -6.702688680684834 0 0 -1 -1 0 0 forward_v I I I I #
loop $-1 $-1 $190 $53 #
coedge $-1 $121 $121 $189 $191 reversed $76 $-1 #
face $-1 $192 $193 $42 $-1 $194 reversed single #
loop $-1 $-1 $195 $78 #
plane-surface $-1 0 0 -155.54429761650442 0 0 1 1 0 0 forward_v I I I I #
coedge $-1 $196 $197 $198 $199 forward $79 $-1 #
face $-1 $-1 $200 $43 $-1 $201 forward single #
loop $-1 $-1 $202 $81 #
plane-surface $-1 0 0 -3.5611209448530543 0 0 -1 -1 0 0 forward_v I I I I #
loop $-1 $-1 $203 $55 #
coedge $-1 $130 $130 $202 $204 reversed $82 $-1 #
face $-1 $-1 $205 $44 $-1 $206 forward single #
loop $-1 $-1 $207 $84 #
plane-surface $-1 0 0 -3.5611209448530543 0 0 -1 -1 0 0 forward_v I I I I #
loop $-1 $-1 $208 $56 #
coedge $-1 $135 $135 $207 $209 reversed $85 $-1 #
face $-1 $210 $211 $45 $-1 $212 reversed single #
loop $-1 $-1 $213 $87 #
plane-surface $-1 0 0 -155.54429761650442 0 0 1 1 0 0 forward_v I I I I #
coedge $-1 $214 $215 $216 $217 forward $88 $-1 #
face $-1 $-1 $218 $46 $-1 $219 forward single #
loop $-1 $-1 $220 $90 #
plane-surface $-1 0 0 -3.5611209448530543 0 0 -1 -1 0 0 forward_v I I I I #
loop $-1 $-1 $221 $58 #
coedge $-1 $144 $144 $220 $222 reversed $91 $-1 #
face $-1 $-1 $223 $47 $-1 $224 forward single #
loop $-1 $-1 $225 $93 #
plane-surface $-1 0 0 -3.5611209448530543 0 0 -1 -1 0 0 forward_v I I I I #
loop $-1 $-1 $226 $59 #
coedge $-1 $149 $149 $225 $227 reversed $94 $-1 #
face $-1 $228 $229 $36 $-1 $230 reversed single #
loop $-1 $-1 $231 $96 #
plane-surface $-1 0 -41.162963419042221 0 0 1 0 0 0 1 forward_v I I I I #
coedge $-1 $232 $233 $234 $235 forward $97 $-1 #
coedge $-1 $236 $99 $237 $238 forward $61 $-1 #
coedge $-1 $99 $236 $239 $240 forward $61 $-1 #
coedge $-1 $241 $242 $99 $157 reversed $243 $-1 #
edge $-1 $244 -41.162963419042221 $245 41.162963419042221 $156 $246 forward 7 unknown #
face $-1 $247 $248 $37 $-1 $249 reversed single #
loop $-1 $-1 $250 $100 #
plane-surface $-1 0 -5.5221106746642059 0 0 1 0 0 0 1 forward_v I I I I #
coedge $-1 $251 $252 $253 $254 forward $101 $-1 #
coedge $-1 $255 $103 $256 $257 forward $64 $-1 #
coedge $-1 $103 $255 $258 $259 forward $64 $-1 #
coedge $-1 $260 $261 $103 $165 reversed $262 $-1 #
edge $-1 $263 -5.5221106746642059 $264 5.5221106746642059 $164 $265 forward 7 unknown #
face $-1 $266 $267 $38 $-1 $268 reversed single #
loop $-1 $-1 $269 $104 #
plane-surface $-1 0 -4.1147127927656442 0 0 1 0 0 0 1 forward_v I I I I #
coedge $-1 $270 $271 $272 $273 forward $105 $-1 #
coedge $-1 $274 $107 $275 $276 forward $67 $-1 #
coedge $-1 $107 $274 $277 $278 forward $67 $-1 #
coedge $-1 $279 $280 $107 $173 reversed $281 $-1 #
edge $-1 $282 -4.1147127927656442 $283 4.1147127927656442 $172 $284 forward 7 unknown #
face $-1 $285 $286 $39 $-1 $287 reversed single #
loop $-1 $-1 $288 $108 #
plane-surface $-1 0 -8.8890302560182963 0 0 1 0 0 0 1 forward_v I I I I #
coedge $-1 $289 $290 $291 $292 forward $109 $-1 #
coedge $-1 $293 $111 $294 $295 forward $70 $-1 #
coedge $-1 $111 $293 $296 $297 forward $70 $-1 #
coedge $-1 $298 $299 $111 $181 reversed $300 $-1 #
edge $-1 $301 -8.8890302560182963 $302 8.8890302560182963 $180 $303 forward 7 unknown #
loop $-1 $304 $305 $112 #
cone-surface $-1 0 0 0 0 0 1 1 0 0 1 I I -0.70710678118654746 0.70710678118654746 1 forward I I I I #
coedge $-1 $184 $184 $116 $186 forward $113 $-1 #
coedge $-1 $185 $185 $305 $306 forward $115 $-1 #
edge $-1 $307 0 $307 6.2831853071796004 $184 $308 forward 7 unknown #
loop $-1 $309 $310 $117 #
cone-surface $-1 0 0 0 0 0 1 1 0 0 1 I I -0.70710678118654746 0.70710678118654746 1 forward I I I I #
coedge $-1 $189 $189 $121 $191 forward $118 $-1 #
coedge $-1 $190 $190 $310 $311 forward $120 $-1 #
edge $-1 $312 0 $312 6.2831853071796004 $189 $313 forward 7 unknown #
face $-1 $314 $315 $42 $-1 $316 reversed single #
loop $-1 $-1 $317 $122 #
plane-surface $-1 0 -6.0727771888359321 0 0 1 0 0 0 1 forward_v I I I I #
coedge $-1 $318 $319 $320 $321 forward $123 $-1 #
coedge $-1 $322 $125 $323 $324 forward $79 $-1 #
coedge $-1 $125 $322 $325 $326 forward $79 $-1 #
coedge $-1 $327 $328 $125 $199 reversed $329 $-1 #
edge $-1 $330 -6.0727771888359321 $331 6.0727771888359321 $198 $332 forward 7 unknown #
loop $-1 $333 $334 $126 #
cone-surface $-1 0 0 0 0 0 1 0.75 0 0 1 I I -0.70710678118654757 0.70710678118654757 0.75 forward I I I I #
coedge $-1 $202 $202 $130 $204 forward $127 $-1 #
coedge $-1 $203 $203 $334 $335 forward $129 $-1 #
edge $-1 $336 0 $336 6.2831853071796004 $202 $337 forward 7 unknown #
loop $-1 $338 $339 $131 #
cone-surface $-1 0 0 0 0 0 1 0.75 0 0 1 I I -0.70710678118654757 0.70710678118654757 0.75 forward I I I I #
coedge $-1 $207 $207 $135 $209 forward $132 $-1 #
coedge $-1 $208 $208 $339 $340 forward $134 $-1 #
edge $-1 $341 0 $341 6.2831853071796004 $207 $342 forward 7 unknown #
face $-1 $343 $344 $45 $-1 $345 reversed single #
loop $-1 $-1 $346 $136 #
plane-surface $-1 0 -6.0727771888359321 0 0 1 0 0 0 1 forward_v I I I I #
coedge $-1 $347 $348 $349 $350 forward $137 $-1 #
coedge $-1 $351 $139 $352 $353 forward $88 $-1 #
coedge $-1 $139 $351 $354 $355 forward $88 $-1 #
coedge $-1 $356 $357 $139 $217 reversed $358 $-1 #
edge $-1 $359 -6.0727771888359321 $360 6.0727771888359321 $216 $361 forward 7 unknown #
loop $-1 $362 $363 $140 #
cone-surface $-1 0 0 0 0 0 1 0.75 0 0 1 I I -0.70710678118654757 0.70710678118654757 0.75 forward I I I I #
coedge $-1 $220 $220 $144 $222 forward $141 $-1 #
coedge $-1 $221 $221 $363 $364 forward $143 $-1 #
edge $-1 $365 0 $365 6.2831853071796004 $220 $366 forward 7 unknown #
loop $-1 $367 $368 $145 #
cone-surface $-1 0 0 0 0 0 1 0.75 0 0 1 I I -0.70710678118654757 0.70710678118654757 0.75 forward I I I I #
coedge $-1 $225 $225 $149 $227 forward $146 $-1 #
coedge $-1 $226 $226 $368 $369 forward $148 $-1 #
edge $-1 $370 0 $370 6.2831853071796004 $225 $371 forward 7 unknown #
face $-1 $372 $373 $36 $-1 $374 reversed single #
loop $-1 $-1 $375 $150 #
plane-surface $-1 -77.772148808252211 0 0 1 0 0 0 0 -1 forward_v I I I I #
coedge $-1 $376 $239 $377 $378 forward $151 $-1 #
coedge $-1 $379 $153 $376 $380 forward $97 $-1 #
coedge $-1 $153 $379 $381 $382 forward $97 $-1 #
coedge $-1 $242 $241 $153 $235 reversed $243 $-1 #
edge $-1 $383 -41.162963419042221 $384 41.162963419042221 $234 $385 forward 7 unknown #
coedge $-1 $155 $154 $386 $387 forward $61 $-1 #
coedge $-1 $388 $389 $154 $238 reversed $373 $-1 #
edge $-1 $245 -77.772148808252211 $390 77.772148808252211 $237 $391 forward 7 unknown #
coedge $-1 $231 $392 $155 $240 reversed $151 $-1 #
edge $-1 $393 -77.772148808252211 $244 77.772148808252211 $239 $394 forward 7 unknown #
coedge $-1 $234 $156 $392 $395 forward $243 $-1 #
coedge $-1 $156 $234 $388 $396 reversed $243 $-1 #
loop $-1 $-1 $241 $372 #
vertex $-1 $157 $397 #
vertex $-1 $157 $398 #
straight-curve $-1 77.772148808252211 0 12.438458387930071 0 1 0 I I #
face $-1 $399 $400 $37 $-1 $401 reversed single #
loop $-1 $-1 $402 $158 #
plane-surface $-1 -77.772148808252211 0 0 1 0 0 0 0 -1 forward_v I I I I #
coedge $-1 $403 $258 $404 $405 forward $159 $-1 #
coedge $-1 $406 $161 $403 $407 forward $101 $-1 #
coedge $-1 $161 $406 $408 $409 forward $101 $-1 #
coedge $-1 $261 $260 $161 $254 reversed $262 $-1 #
edge $-1 $410 -5.5221106746642059 $411 5.5221106746642059 $253 $412 forward 7 unknown #
coedge $-1 $163 $162 $413 $414 forward $64 $-1 #
coedge $-1 $415 $416 $162 $257 reversed $400 $-1 #
edge $-1 $264 -77.772148808252211 $417 77.772148808252211 $256 $418 forward 7 unknown #
coedge $-1 $250 $419 $163 $259 reversed $159 $-1 #
edge $-1 $420 -77.772148808252211 $263 77.772148808252211 $258 $421 forward 7 unknown #
coedge $-1 $253 $164 $419 $422 forward $262 $-1 #
coedge $-1 $164 $253 $415 $423 reversed $262 $-1 #
loop $-1 $-1 $260 $399 #
vertex $-1 $165 $424 #
vertex $-1 $165 $425 #
straight-curve $-1 77.772148808252211 0 1.9056460754187978 0 1 0 I I #
face $-1 $426 $427 $38 $-1 $428 reversed single #
loop $-1 $-1 $429 $166 #
plane-surface $-1 -77.772148808252211 0 0 1 0 0 0 0 -1 forward_v I I I I #
coedge $-1 $430 $277 $431 $432 forward $167 $-1 #
coedge $-1 $433 $169 $430 $434 forward $105 $-1 #
coedge $-1 $169 $433 $435 $436 forward $105 $-1 #
coedge $-1 $280 $279 $169 $273 reversed $281 $-1 #
edge $-1 $437 -4.1147127927656442 $438 4.1147127927656442 $272 $439 forward 7 unknown #
coedge $-1 $171 $170 $440 $441 forward $67 $-1 #
coedge $-1 $442 $443 $170 $276 reversed $427 $-1 #
edge $-1 $283 -77.772148808252211 $444 77.772148808252211 $275 $445 forward 7 unknown #
coedge $-1 $269 $446 $171 $278 reversed $167 $-1 #
edge $-1 $447 -77.772148808252211 $282 77.772148808252211 $277 $448 forward 7 unknown #
coedge $-1 $272 $172 $446 $449 forward $281 $-1 #
coedge $-1 $172 $272 $442 $450 reversed $281 $-1 #
loop $-1 $-1 $279 $426 #
vertex $-1 $173 $451 #
vertex $-1 $173 $452 #
straight-curve $-1 77.772148808252211 0 3.5186560361107269 0 1 0 I I #
face $-1 $453 $454 $39 $-1 $455 reversed single #
loop $-1 $-1 $456 $174 #
plane-surface $-1 -311.08859523300885 0 0 1 0 0 0 0 -1 forward_v I I I I #
coedge $-1 $457 $296 $458 $459 forward $175 $-1 #
coedge $-1 $460 $177 $457 $461 forward $109 $-1 #
coedge $-1 $177 $460 $462 $463 forward $109 $-1 #
coedge $-1 $299 $298 $177 $292 reversed $300 $-1 #
edge $-1 $464 -8.8890302560182963 $465 8.8890302560182963 $291 $466 forward 7 unknown #
coedge $-1 $179 $178 $467 $468 forward $70 $-1 #
coedge $-1 $469 $470 $178 $295 reversed $454 $-1 #
edge $-1 $302 -311.08859523300885 $471 311.08859523300885 $294 $472 forward 7 unknown #
coedge $-1 $288 $473 $179 $297 reversed $175 $-1 #
edge $-1 $474 -311.08859523300885 $301 311.08859523300885 $296 $475 forward 7 unknown #
coedge $-1 $291 $180 $473 $476 forward $300 $-1 #
coedge $-1 $180 $291 $469 $477 reversed $300 $-1 #
loop $-1 $-1 $298 $453 #
vertex $-1 $181 $478 #
vertex $-1 $181 $479 #
straight-curve $-1 311.08859523300885 0 155.54429761650442 0 1 0 I I #
loop $-1 $-1 $480 $112 #
coedge $-1 $305 $305 $185 $306 reversed $182 $-1 #
edge $-1 $481 0 $481 6.2831853071796004 $305 $482 forward 7 unknown #
vertex $-1 $186 $483 #
ellipse-curve $-1 0 0 -6.702688680684834 0 0 -1 2 0 0 1 I I #
loop $-1 $-1 $484 $117 #
coedge $-1 $310 $310 $190 $311 reversed $187 $-1 #
edge $-1 $485 0 $485 6.2831853071796004 $310 $486 forward 7 unknown #
vertex $-1 $191 $487 #
ellipse-curve $-1 0 0 -6.702688680684834 0 0 -1 2 0 0 1 I I #
face $-1 $488 $489 $42 $-1 $490 reversed single #
loop $-1 $-1 $491 $192 #
plane-surface $-1 -311.08859523300885 0 0 1 0 0 0 0 -1 forward_v I I I I #
coedge $-1 $492 $325 $493 $494 forward $193 $-1 #
coedge $-1 $495 $195 $492 $496 forward $123 $-1 #
coedge $-1 $195 $495 $497 $498 forward $123 $-1 #
coedge $-1 $328 $327 $195 $321 reversed $329 $-1 #
edge $-1 $499 -6.0727771888359321 $500 6.0727771888359321 $320 $501 forward 7 unknown #
coedge $-1 $197 $196 $502 $503 forward $79 $-1 #
coedge $-1 $504 $505 $196 $324 reversed $489 $-1 #
edge $-1 $331 -311.08859523300885 $506 311.08859523300885 $323 $507 forward 7 unknown #
coedge $-1 $317 $508 $197 $326 reversed $193 $-1 #
edge $-1 $509 -311.08859523300885 $330 311.08859523300885 $325 $510 forward 7 unknown #
coedge $-1 $320 $198 $508 $511 forward $329 $-1 #
coedge $-1 $198 $320 $504 $512 reversed $329 $-1 #
loop $-1 $-1 $327 $488 #
vertex $-1 $199 $513 #
vertex $-1 $199 $514 #
straight-curve $-1 311.08859523300885 0 155.54429761650442 0 1 0 I I #
loop $-1 $-1 $515 $126 #
coedge $-1 $334 $334 $203 $335 reversed $200 $-1 #
edge $-1 $516 0 $516 6.2831853071796004 $334 $517 forward 7 unknown #
vertex $-1 $204 $518 #
ellipse-curve $-1 0 0 -3.5611209448530543 0 0 -1 1.5 0 0 1 I I #
loop $-1 $-1 $519 $131 #
coedge $-1 $339 $339 $208 $340 reversed $205 $-1 #
edge $-1 $520 0 $520 6.2831853071796004 $339 $521 forward 7 unknown #
vertex $-1 $209 $522 #
ellipse-curve $-1 0 0 -3.5611209448530543 0 0 -1 1.5 0 0 1 I I #
face $-1 $523 $524 $45 $-1 $525 reversed single #
loop $-1 $-1 $526 $210 #
plane-surface $-1 -311.08859523300885 0 0 1 0 0 0 0 -1 forward_v I I I I #
coedge $-1 $527 $354 $528 $529 forward $211 $-1 #
coedge $-1 $530 $213 $527 $531 forward $137 $-1 #
coedge $-1 $213 $530 $532 $533 forward $137 $-1 #
coedge $-1 $357 $356 $213 $350 reversed $358 $-1 #
edge $-1 $534 -6.0727771888359321 $535 6.0727771888359321 $349 $536 forward 7 unknown #
coedge $-1 $215 $214 $537 $538 forward $88 $-1 #
coedge $-1 $539 $540 $214 $353 reversed $524 $-1 #
edge $-1 $360 -311.08859523300885 $541 311.08859523300885 $352 $542 forward 7 unknown #
coedge $-1 $346 $543 $215 $355 reversed $211 $-1 #
edge $-1 $544 -311.08859523300885 $359 311.08859523300885 $354 $545 forward 7 unknown #
coedge $-1 $349 $216 $543 $546 forward $358 $-1 #
coedge $-1 $216 $349 $539 $547 reversed $358 $-1 #
loop $-1 $-1 $356 $523 #
vertex $-1 $217 $548 #
vertex $-1 $217 $549 #
straight-curve $-1 311.08859523300885 0 155.54429761650442 0 1 0 I I #
loop $-1 $-1 $550 $140 #
coedge $-1 $363 $363 $221 $364 reversed $218 $-1 #
edge $-1 $551 0 $551 6.2831853071796004 $363 $552 forward 7 unknown #
vertex $-1 $222 $553 #
ellipse-curve $-1 0 0 -3.5611209448530543 0 0 -1 1.5 0 0 1 I I #
loop $-1 $-1 $554 $145 #
coedge $-1 $368 $368 $226 $369 reversed $223 $-1 #
edge $-1 $555 0 $555 6.2831853071796004 $368 $556 forward 7 unknown #
vertex $-1 $227 $557 #
ellipse-curve $-1 0 0 -3.5611209448530543 0 0 -1 1.5 0 0 1 I I #
face $-1 $-1 $243 $36 $-1 $558 reversed single #
loop $-1 $-1 $388 $228 #
plane-surface $-1 0 41.162963419042221 0 0 -1 0 0 0 -1 forward_v I I I I #
coedge $-1 $559 $386 $389 $560 forward $229 $-1 #
coedge $-1 $392 $231 $232 $380 reversed $151 $-1 #
coedge $-1 $386 $559 $231 $378 reversed $229 $-1 #
edge $-1 $393 -12.438458387930071 $561 12.438458387930071 $377 $562 forward 7 unknown #
coedge $-1 $233 $232 $559 $563 forward $97 $-1 #
edge $-1 $384 -77.772148808252211 $561 77.772148808252211 $376 $564 forward 7 unknown #
coedge $-1 $389 $388 $233 $382 reversed $373 $-1 #
edge $-1 $565 -77.772148808252211 $383 77.772148808252211 $381 $566 forward 7 unknown #
vertex $-1 $235 $567 #
vertex $-1 $395 $568 #
straight-curve $-1 77.772148808252211 0 -12.438458387930071 0 -1 0 I I #
coedge $-1 $375 $377 $236 $387 reversed $229 $-1 #
edge $-1 $390 -41.162963419042221 $393 41.162963419042221 $386 $569 forward 7 unknown #
coedge $-1 $381 $237 $242 $396 forward $373 $-1 #
coedge $-1 $237 $381 $375 $560 reversed $373 $-1 #
vertex $-1 $238 $570 #
straight-curve $-1 0 41.162963419042221 12.438458387930071 -1 0 0 I I #
coedge $-1 $239 $376 $241 $395 reversed $151 $-1 #
vertex $-1 $387 $571 #
straight-curve $-1 0 -41.162963419042221 12.438458387930071 1 0 0 I I #
edge $-1 $244 -12.438458387930071 $384 12.438458387930071 $241 $572 forward 7 unknown #
edge $-1 $245 -12.438458387930071 $383 12.438458387930071 $242 $573 forward 7 unknown #
point $-1 77.772148808252211 -41.162963419042221 12.438458387930071 #
point $-1 77.772148808252211 41.162963419042221 12.438458387930071 #
face $-1 $-1 $262 $37 $-1 $574 reversed single #
loop $-1 $-1 $415 $247 #
plane-surface $-1 0 5.5221106746642059 0 0 -1 0 0 0 -1 forward_v I I I I #
coedge $-1 $575 $413 $416 $576 forward $248 $-1 #
coedge $-1 $419 $250 $251 $407 reversed $159 $-1 #
coedge $-1 $413 $575 $250 $405 reversed $248 $-1 #
edge $-1 $420 -1.9056460754187978 $577 1.9056460754187978 $404 $578 forward 7 unknown #
coedge $-1 $252 $251 $575 $579 forward $101 $-1 #
edge $-1 $411 -77.772148808252211 $577 77.772148808252211 $403 $580 forward 7 unknown #
coedge $-1 $416 $415 $252 $409 reversed $400 $-1 #
edge $-1 $581 -77.772148808252211 $410 77.772148808252211 $408 $582 forward 7 unknown #
vertex $-1 $254 $583 #
vertex $-1 $422 $584 #
straight-curve $-1 77.772148808252211 0 -1.9056460754187978 0 -1 0 I I #
coedge $-1 $402 $404 $255 $414 reversed $248 $-1 #
edge $-1 $417 -5.5221106746642059 $420 5.5221106746642059 $413 $585 forward 7 unknown #
coedge $-1 $408 $256 $261 $423 forward $400 $-1 #
coedge $-1 $256 $408 $402 $576 reversed $400 $-1 #
vertex $-1 $257 $586 #
straight-curve $-1 0 5.5221106746642059 1.9056460754187978 -1 0 0 I I #
coedge $-1 $258 $403 $260 $422 reversed $159 $-1 #
vertex $-1 $414 $587 #
straight-curve $-1 0 -5.5221106746642059 1.9056460754187978 1 0 0 I I #
edge $-1 $263 -1.9056460754187978 $411 1.9056460754187978 $260 $588 forward 7 unknown #
edge $-1 $264 -1.9056460754187978 $410 1.9056460754187978 $261 $589 forward 7 unknown #
point $-1 77.772148808252211 -5.5221106746642059 1.9056460754187978 #
point $-1 77.772148808252211 5.5221106746642059 1.9056460754187978 #
face $-1 $-1 $281 $38 $-1 $590 reversed single #
loop $-1 $-1 $442 $266 #
plane-surface $-1 0 4.1147127927656442 0 0 -1 0 0 0 -1 forward_v I I I I #
coedge $-1 $591 $440 $443 $592 forward $267 $-1 #
coedge $-1 $446 $269 $270 $434 reversed $167 $-1 #
coedge $-1 $440 $591 $269 $432 reversed $267 $-1 #
edge $-1 $447 -3.5186560361107269 $593 3.5186560361107269 $431 $594 forward 7 unknown #
coedge $-1 $271 $270 $591 $595 forward $105 $-1 #
edge $-1 $438 -77.772148808252211 $593 77.772148808252211 $430 $596 forward 7 unknown #
coedge $-1 $443 $442 $271 $436 reversed $427 $-1 #
edge $-1 $597 -77.772148808252211 $437 77.772148808252211 $435 $598 forward 7 unknown #
vertex $-1 $273 $599 #
vertex $-1 $449 $600 #
straight-curve $-1 77.772148808252211 0 -3.5186560361107269 0 -1 0 I I #
coedge $-1 $429 $431 $274 $441 reversed $267 $-1 #
edge $-1 $444 -4.1147127927656442 $447 4.1147127927656442 $440 $601 forward 7 unknown #
coedge $-1 $435 $275 $280 $450 forward $427 $-1 #
coedge $-1 $275 $435 $429 $592 reversed $427 $-1 #
vertex $-1 $276 $602 #
straight-curve $-1 0 4.1147127927656442 3.5186560361107269 -1 0 0 I I #
coedge $-1 $277 $430 $279 $449 reversed $167 $-1 #
vertex $-1 $441 $603 #
straight-curve $-1 0 -4.1147127927656442 3.5186560361107269 1 0 0 I I #
edge $-1 $282 -3.5186560361107269 $438 3.5186560361107269 $279 $604 forward 7 unknown #
edge $-1 $283 -3.5186560361107269 $437 3.5186560361107269 $280 $605 forward 7 unknown #
point $-1 77.772148808252211 -4.1147127927656442 3.5186560361107269 #
point $-1 77.772148808252211 4.1147127927656442 3.5186560361107269 #
face $-1 $-1 $300 $39 $-1 $606 reversed single #
loop $-1 $-1 $469 $285 #
plane-surface $-1 0 8.8890302560182963 0 0 -1 0 0 0 -1 forward_v I I I I #
coedge $-1 $607 $467 $470 $608 forward $286 $-1 #
coedge $-1 $473 $288 $289 $461 reversed $175 $-1 #
coedge $-1 $467 $607 $288 $459 reversed $286 $-1 #
edge $-1 $474 -155.54429761650442 $609 155.54429761650442 $458 $610 forward 7 unknown #
coedge $-1 $290 $289 $607 $611 forward $109 $-1 #
edge $-1 $465 -311.08859523300885 $609 311.08859523300885 $457 $612 forward 7 unknown #
coedge $-1 $470 $469 $290 $463 reversed $454 $-1 #
edge $-1 $613 -311.08859523300885 $464 311.08859523300885 $462 $614 forward 7 unknown #
vertex $-1 $292 $615 #
vertex $-1 $476 $616 #
straight-curve $-1 311.08859523300885 0 -155.54429761650442 0 -1 0 I I #
coedge $-1 $456 $458 $293 $468 reversed $286 $-1 #
edge $-1 $471 -8.8890302560182963 $474 8.8890302560182963 $467 $617 forward 7 unknown #
coedge $-1 $462 $294 $299 $477 forward $454 $-1 #
coedge $-1 $294 $462 $456 $608 reversed $454 $-1 #
vertex $-1 $295 $618 #
straight-curve $-1 0 8.8890302560182963 155.54429761650442 -1 0 0 I I #
coedge $-1 $296 $457 $298 $476 reversed $175 $-1 #
vertex $-1 $468 $619 #
straight-curve $-1 0 -8.8890302560182963 155.54429761650442 1 0 0 I I #
edge $-1 $301 -155.54429761650442 $465 155.54429761650442 $298 $620 forward 7 unknown #
edge $-1 $302 -155.54429761650442 $464 155.54429761650442 $299 $621 forward 7 unknown #
point $-1 311.08859523300885 -8.8890302560182963 155.54429761650442 #
point $-1 311.08859523300885 8.8890302560182963 155.54429761650442 #
coedge $-1 $480 $480 $-1 $622 reversed $304 $-1 #
vertex $-1 $306 $623 #
ellipse-curve $-1 0 0 -1 0 0 -1 2 0 0 1 I I #
point $-1 2 0 -6.702688680684834 #
coedge $-1 $484 $484 $-1 $624 reversed $309 $-1 #
vertex $-1 $311 $625 #
ellipse-curve $-1 0 0 -1 0 0 -1 2 0 0 1 I I #
point $-1 2 0 -6.702688680684834 #
face $-1 $-1 $329 $42 $-1 $626 reversed single #
loop $-1 $-1 $504 $314 #
plane-surface $-1 0 6.0727771888359321 0 0 -1 0 0 0 -1 forward_v I I I I #
coedge $-1 $627 $502 $505 $628 forward $315 $-1 #
coedge $-1 $508 $317 $318 $496 reversed $193 $-1 #
coedge $-1 $502 $627 $317 $494 reversed $315 $-1 #
edge $-1 $509 -155.54429761650442 $629 155.54429761650442 $493 $630 forward 7 unknown #
coedge $-1 $319 $318 $627 $631 forward $123 $-1 #
edge $-1 $500 -311.08859523300885 $629 311.08859523300885 $492 $632 forward 7 unknown #
coedge $-1 $505 $504 $319 $498 reversed $489 $-1 #
edge $-1 $633 -311.08859523300885 $499 311.08859523300885 $497 $634 forward 7 unknown #
vertex $-1 $321 $635 #
vertex $-1 $511 $636 #
straight-curve $-1 311.08859523300885 0 -155.54429761650442 0 -1 0 I I #
coedge $-1 $491 $493 $322 $503 reversed $315 $-1 #
edge $-1 $506 -6.0727771888359321 $509 6.0727771888359321 $502 $637 forward 7 unknown #
coedge $-1 $497 $323 $328 $512 forward $489 $-1 #
coedge $-1 $323 $497 $491 $628 reversed $489 $-1 #
vertex $-1 $324 $638 #
straight-curve $-1 0 6.0727771888359321 155.54429761650442 -1 0 0 I I #
coedge $-1 $325 $492 $327 $511 reversed $193 $-1 #
vertex $-1 $503 $639 #
straight-curve $-1 0 -6.0727771888359321 155.54429761650442 1 0 0 I I #
edge $-1 $330 -155.54429761650442 $500 155.54429761650442 $327 $640 forward 7 unknown #
edge $-1 $331 -155.54429761650442 $499 155.54429761650442 $328 $641 forward 7 unknown #
point $-1 311.08859523300885 -6.0727771888359321 155.54429761650442 #
point $-1 311.08859523300885 6.0727771888359321 155.54429761650442 #
coedge $-1 $515 $515 $-1 $642 reversed $333 $-1 #
vertex $-1 $335 $643 #
ellipse-curve $-1 0 0 -0.75 0 0 -1 1.5 0 0 1 I I #
point $-1 1.5 0 -3.5611209448530543 #
coedge $-1 $519 $519 $-1 $644 reversed $338 $-1 #
vertex $-1 $340 $645 #
ellipse-curve $-1 0 0 -0.75 0 0 -1 1.5 0 0 1 I I #
point $-1 1.5 0 -3.5611209448530543 #
face $-1 $-1 $358 $45 $-1 $646 reversed single #
loop $-1 $-1 $539 $343 #
plane-surface $-1 0 6.0727771888359321 0 0 -1 0 0 0 -1 forward_v I I I I #
coedge $-1 $647 $537 $540 $648 forward $344 $-1 #
coedge $-1 $543 $346 $347 $531 reversed $211 $-1 #
coedge $-1 $537 $647 $346 $529 reversed $344 $-1 #
edge $-1 $544 -155.54429761650442 $649 155.54429761650442 $528 $650 forward 7 unknown #
coedge $-1 $348 $347 $647 $651 forward $137 $-1 #
edge $-1 $535 -311.08859523300885 $649 311.08859523300885 $527 $652 forward 7 unknown #
coedge $-1 $540 $539 $348 $533 reversed $524 $-1 #
edge $-1 $653 -311.08859523300885 $534 311.08859523300885 $532 $654 forward 7 unknown #
vertex $-1 $350 $655 #
vertex $-1 $546 $656 #
straight-curve $-1 311.08859523300885 0 -155.54429761650442 0 -1 0 I I #
coedge $-1 $526 $528 $351 $538 reversed $344 $-1 #
edge $-1 $541 -6.0727771888359321 $544 6.0727771888359321 $537 $657 forward 7 unknown #
coedge $-1 $532 $352 $357 $547 forward $524 $-1 #
coedge $-1 $352 $532 $526 $648 reversed $524 $-1 #
vertex $-1 $353 $658 #
straight-curve $-1 0 6.0727771888359321 155.54429761650442 -1 0 0 I I #
coedge $-1 $354 $527 $356 $546 reversed $211 $-1 #
vertex $-1 $538 $659 #
straight-curve $-1 0 -6.0727771888359321 155.54429761650442 1 0 0 I I #
edge $-1 $359 -155.54429761650442 $535 155.54429761650442 $356 $660 forward 7 unknown #
edge $-1 $360 -155.54429761650442 $534 155.54429761650442 $357 $661 forward 7 unknown #
point $-1 311.08859523300885 -6.0727771888359321 155.54429761650442 #
point $-1 311.08859523300885 6.0727771888359321 155.54429761650442 #
coedge $-1 $550 $550 $-1 $662 reversed $362 $-1 #
vertex $-1 $364 $663 #
ellipse-curve $-1 0 0 -0.75 0 0 -1 1.5 0 0 1 I I #
point $-1 1.5 0 -3.5611209448530543 #
coedge $-1 $554 $554 $-1 $664 reversed $367 $-1 #
vertex $-1 $369 $665 #
ellipse-curve $-1 0 0 -0.75 0 0 -1 1.5 0 0 1 I I #
point $-1 1.5 0 -3.5611209448530543 #
plane-surface $-1 77.772148808252211 0 0 -1 0 0 0 0 1 forward_v I I I I #
coedge $-1 $377 $375 $379 $563 reversed $229 $-1 #
edge $-1 $390 -12.438458387930071 $565 12.438458387930071 $389 $666 forward 7 unknown #
vertex $-1 $563 $667 #
straight-curve $-1 -77.772148808252211 -41.162963419042221 0 0 0 -1 I I #
edge $-1 $561 -41.162963419042221 $565 41.162963419042221 $559 $668 forward 7 unknown #
straight-curve $-1 0 -41.162963419042221 -12.438458387930071 -1 0 0 I I #
vertex $-1 $382 $669 #
straight-curve $-1 0 41.162963419042221 -12.438458387930071 1 0 0 I I #
point $-1 77.772148808252211 41.162963419042221 -12.438458387930071 #
point $-1 77.772148808252211 -41.162963419042221 -12.438458387930071 #
straight-curve $-1 -77.772148808252211 0 12.438458387930071 0 -1 0 I I #
point $-1 -77.772148808252211 41.162963419042221 12.438458387930071 #
point $-1 -77.772148808252211 -41.162963419042221 12.438458387930071 #
straight-curve $-1 77.772148808252211 -41.162963419042221 0 0 0 -1 I I #
straight-curve $-1 77.772148808252211 41.162963419042221 0 0 0 -1 I I #
plane-surface $-1 77.772148808252211 0 0 -1 0 0 0 0 1 forward_v I I I I #
coedge $-1 $404 $402 $406 $579 reversed $248 $-1 #
edge $-1 $417 -1.9056460754187978 $581 1.9056460754187978 $416 $670 forward 7 unknown #
vertex $-1 $579 $671 #
straight-curve $-1 -77.772148808252211 -5.5221106746642059 0 0 0 -1 I I #
edge $-1 $577 -5.5221106746642059 $581 5.5221106746642059 $575 $672 forward 7 unknown #
straight-curve $-1 0 -5.5221106746642059 -1.9056460754187978 -1 0 0 I I #
vertex $-1 $409 $673 #
straight-curve $-1 0 5.5221106746642059 -1.9056460754187978 1 0 0 I I #
point $-1 77.772148808252211 5.5221106746642059 -1.9056460754187978 #
point $-1 77.772148808252211 -5.5221106746642059 -1.9056460754187978 #
straight-curve $-1 -77.772148808252211 0 1.9056460754187978 0 -1 0 I I #
point $-1 -77.772148808252211 5.5221106746642059 1.9056460754187978 #
point $-1 -77.772148808252211 -5.5221106746642059 1.9056460754187978 #
straight-curve $-1 77.772148808252211 -5.5221106746642059 0 0 0 -1 I I #
straight-curve $-1 77.772148808252211 5.5221106746642059 0 0 0 -1 I I #
plane-surface $-1 77.772148808252211 0 0 -1 0 0 0 0 1 forward_v I I I I #
coedge $-1 $431 $429 $433 $595 reversed $267 $-1 #
edge $-1 $444 -3.5186560361107269 $597 3.5186560361107269 $443 $674 forward 7 unknown #
vertex $-1 $595 $675 #
straight-curve $-1 -77.772148808252211 -4.1147127927656442 0 0 0 -1 I I #
edge $-1 $593 -4.1147127927656442 $597 4.1147127927656442 $591 $676 forward 7 unknown #
straight-curve $-1 0 -4.1147127927656442 -3.5186560361107269 -1 0 0 I I #
vertex $-1 $436 $677 #
straight-curve $-1 0 4.1147127927656442 -3.5186560361107269 1 0 0 I I #
point $-1 77.772148808252211 4.1147127927656442 -3.5186560361107269 #
point $-1 77.772148808252211 -4.1147127927656442 -3.5186560361107269 #
straight-curve $-1 -77.772148808252211 0 3.5186560361107269 0 -1 0 I I #
point $-1 -77.772148808252211 4.1147127927656442 3.5186560361107269 #
point $-1 -77.772148808252211 -4.1147127927656442 3.5186560361107269 #
straight-curve $-1 77.772148808252211 -4.1147127927656442 0 0 0 -1 I I #
straight-curve $-1 77.772148808252211 4.1147127927656442 0 0 0 -1 I I #
plane-surface $-1 311.08859523300885 0 0 -1 0 0 0 0 1 forward_v I I I I #
coedge $-1 $458 $456 $460 $611 reversed $286 $-1 #
edge $-1 $471 -155.54429761650442 $613 155.54429761650442 $470 $678 forward 7 unknown #
vertex $-1 $611 $679 #
straight-curve $-1 -311.08859523300885 -8.8890302560182963 0 0 0 -1 I I #
edge $-1 $609 -8.8890302560182963 $613 8.8890302560182963 $607 $680 forward 7 unknown #
straight-curve $-1 0 -8.8890302560182963 -155.54429761650442 -1 0 0 I I #
vertex $-1 $463 $681 #
straight-curve $-1 0 8.8890302560182963 -155.54429761650442 1 0 0 I I #
point $-1 311.08859523300885 8.8890302560182963 -155.54429761650442 #
point $-1 311.08859523300885 -8.8890302560182963 -155.54429761650442 #
straight-curve $-1 -311.08859523300885 0 155.54429761650442 0 -1 0 I I #
point $-1 -311.08859523300885 8.8890302560182963 155.54429761650442 #
point $-1 -311.08859523300885 -8.8890302560182963 155.54429761650442 #
straight-curve $-1 311.08859523300885 -8.8890302560182963 0 0 0 -1 I I #
straight-curve $-1 311.08859523300885 8.8890302560182963 0 0 0 -1 I I #
edge $-1 $682 1 $682 0 $480 $-1 forward 7 unknown #
point $-1 2 0 -1 #
edge $-1 $683 1 $683 0 $484 $-1 forward 7 unknown #
point $-1 2 0 -1 #
plane-surface $-1 311.08859523300885 0 0 -1 0 0 0 0 1 forward_v I I I I #
coedge $-1 $493 $491 $495 $631 reversed $315 $-1 #
edge $-1 $506 -155.54429761650442 $633 155.54429761650442 $505 $684 forward 7 unknown #
vertex $-1 $631 $685 #
straight-curve $-1 -311.08859523300885 -6.0727771888359321 0 0 0 -1 I I #
edge $-1 $629 -6.0727771888359321 $633 6.0727771888359321 $627 $686 forward 7 unknown #
straight-curve $-1 0 -6.0727771888359321 -155.54429761650442 -1 0 0 I I #
vertex $-1 $498 $687 #
straight-curve $-1 0 6.0727771888359321 -155.54429761650442 1 0 0 I I #
point $-1 311.08859523300885 6.0727771888359321 -155.54429761650442 #
point $-1 311.08859523300885 -6.0727771888359321 -155.54429761650442 #
straight-curve $-1 -311.08859523300885 0 155.54429761650442 0 -1 0 I I #
point $-1 -311.08859523300885 6.0727771888359321 155.54429761650442 #
point $-1 -311.08859523300885 -6.0727771888359321 155.54429761650442 #
straight-curve $-1 311.08859523300885 -6.0727771888359321 0 0 0 -1 I I #
straight-curve $-1 311.08859523300885 6.0727771888359321 0 0 0 -1 I I #
edge $-1 $688 1 $688 0 $515 $-1 forward 7 unknown #
point $-1 1.5 0 -0.75 #
edge $-1 $689 1 $689 0 $519 $-1 forward 7 unknown #
point $-1 1.5 0 -0.75 #
plane-surface $-1 311.08859523300885 0 0 -1 0 0 0 0 1 forward_v I I I I #
coedge $-1 $528 $526 $530 $651 reversed $344 $-1 #
edge $-1 $541 -155.54429761650442 $653 155.54429761650442 $540 $690 forward 7 unknown #
vertex $-1 $651 $691 #
straight-curve $-1 -311.08859523300885 -6.0727771888359321 0 0 0 -1 I I #
edge $-1 $649 -6.0727771888359321 $653 6.0727771888359321 $647 $692 forward 7 unknown #
straight-curve $-1 0 -6.0727771888359321 -155.54429761650442 -1 0 0 I I #
vertex $-1 $533 $693 #
straight-curve $-1 0 6.0727771888359321 -155.54429761650442 1 0 0 I I #
point $-1 311.08859523300885 6.0727771888359321 -155.54429761650442 #
point $-1 311.08859523300885 -6.0727771888359321 -155.54429761650442 #
straight-curve $-1 -311.08859523300885 0 155.54429761650442 0 -1 0 I I #
point $-1 -311.08859523300885 6.0727771888359321 155.54429761650442 #
point $-1 -311.08859523300885 -6.0727771888359321 155.54429761650442 #
straight-curve $-1 311.08859523300885 -6.0727771888359321 0 0 0 -1 I I #
straight-curve $-1 311.08859523300885 6.0727771888359321 0 0 0 -1 I I #
edge $-1 $694 1 $694 0 $550 $-1 forward 7 unknown #
point $-1 1.5 0 -0.75 #
edge $-1 $695 1 $695 0 $554 $-1 forward 7 unknown #
point $-1 1.5 0 -0.75 #
straight-curve $-1 -77.772148808252211 41.162963419042221 0 0 0 -1 I I #
point $-1 -77.772148808252211 -41.162963419042221 -12.438458387930071 #
straight-curve $-1 -77.772148808252211 0 -12.438458387930071 0 1 0 I I #
point $-1 -77.772148808252211 41.162963419042221 -12.438458387930071 #
straight-curve $-1 -77.772148808252211 5.5221106746642059 0 0 0 -1 I I #
point $-1 -77.772148808252211 -5.5221106746642059 -1.9056460754187978 #
straight-curve $-1 -77.772148808252211 0 -1.9056460754187978 0 1 0 I I #
point $-1 -77.772148808252211 5.5221106746642059 -1.9056460754187978 #
straight-curve $-1 -77.772148808252211 4.1147127927656442 0 0 0 -1 I I #
point $-1 -77.772148808252211 -4.1147127927656442 -3.5186560361107269 #
straight-curve $-1 -77.772148808252211 0 -3.5186560361107269 0 1 0 I I #
point $-1 -77.772148808252211 4.1147127927656442 -3.5186560361107269 #
straight-curve $-1 -311.08859523300885 8.8890302560182963 0 0 0 -1 I I #
point $-1 -311.08859523300885 -8.8890302560182963 -155.54429761650442 #
straight-curve $-1 -311.08859523300885 0 -155.54429761650442 0 1 0 I I #
point $-1 -311.08859523300885 8.8890302560182963 -155.54429761650442 #
vertex $-1 $622 $696 #
vertex $-1 $624 $697 #
straight-curve $-1 -311.08859523300885 6.0727771888359321 0 0 0 -1 I I #
point $-1 -311.08859523300885 -6.0727771888359321 -155.54429761650442 #
straight-curve $-1 -311.08859523300885 0 -155.54429761650442 0 1 0 I I #
point $-1 -311.08859523300885 6.0727771888359321 -155.54429761650442 #
vertex $-1 $642 $698 #
vertex $-1 $644 $699 #
straight-curve $-1 -311.08859523300885 6.0727771888359321 0 0 0 -1 I I #
point $-1 -311.08859523300885 -6.0727771888359321 -155.54429761650442 #
straight-curve $-1 -311.08859523300885 0 -155.54429761650442 0 1 0 I I #
point $-1 -311.08859523300885 6.0727771888359321 -155.54429761650442 #
vertex $-1 $662 $700 #
vertex $-1 $664 $701 #
point $-1 0 0 1 #
point $-1 0 0 1 #
point $-1 0 0 0.75 #
point $-1 0 0 0.75 #
point $-1 0 0 0.75 #
point $-1 0 0 0.75 #
End-of-ACIS-data 