500 0 4 0           
7 Unknown 11 ACIS 5.0 NT 24 Fri Mar 26 17:37:04 1999 
-1 9.9999999999999995e-007 1e-010 
body $-1 $4 $-1 $5 #
body $-1 $6 $-1 $7 #
body $-1 $8 $-1 $9 #
body $-1 $10 $-1 $11 #
lump $-1 $-1 $12 $0 #
transform $-1 1 0 0 0 1 0 0 0 1 69.38077944273202 47.233855324526033 22.303570760923996 1 rotate no_reflect no_shear #
lump $-1 $-1 $13 $1 #
transform $-1 1 0 0 0 1 0 0 0 1 69.38077944273202 47.233855324526033 22.303570760923996 1 rotate no_reflect no_shear #
lump $-1 $-1 $14 $2 #
transform $-1 1 0 0 0 1 0 0 0 1 69.38077944273202 47.233855324526033 22.303570760923996 1 rotate no_reflect no_shear #
lump $-1 $-1 $15 $3 #
transform $-1 1 0 0 0 1 0 0 0 1 69.38077944273202 47.233855324526033 22.303570760923996 1 rotate no_reflect no_shear #
shell $-1 $-1 $-1 $16 $-1 $4 #
shell $-1 $-1 $-1 $17 $-1 $6 #
shell $-1 $-1 $-1 $18 $-1 $8 #
shell $-1 $-1 $-1 $19 $-1 $10 #
face $-1 $20 $21 $12 $-1 $22 forward single #
face $-1 $23 $24 $13 $-1 $25 reversed single #
face $-1 $26 $27 $14 $-1 $28 forward single #
face $-1 $29 $30 $15 $-1 $31 reversed single #
face $-1 $32 $33 $12 $-1 $34 reversed single #
loop $-1 $-1 $35 $16 #
plane-surface $-1 0 0 22.303570760923996 0 0 1 1 0 0 forward_v I I I I #
face $-1 $36 $37 $13 $-1 $38 reversed single #
loop $-1 $-1 $39 $17 #
plane-surface $-1 -83.945248704051124 -44.510312435329794 0 0 1 0 0 0 1 forward_v I I I I #
face $-1 $40 $41 $14 $-1 $42 forward single #
loop $-1 $-1 $43 $18 #
plane-surface $-1 25.217057303187254 -143.62573483464502 116.13699725753582 -1 0 0 0 -0.69465837861970381 0.71933979245794832 forward_v I I I I #
face $-1 $44 $45 $15 $-1 $46 reversed single #
loop $-1 $47 $48 $19 #
cone-surface $-1 15.772966728306116 -42.781327912557344 17.909208245418981 0 0.69465837861970381 -0.71933979245794832 1 0 0 1 I I 0 1 1 forward I I I I #
face $-1 $49 $50 $12 $-1 $51 reversed single #
loop $-1 $-1 $52 $20 #
plane-surface $-1 0 0 -22.303570760923996 0 0 1 1 0 0 forward_v I I I I #
coedge $-1 $53 $54 $55 $56 forward $21 $-1 #
face $-1 $57 $58 $13 $-1 $59 reversed single #
loop $-1 $-1 $60 $23 #
plane-surface $-1 -98.509717965370228 -41.803212875612061 0 1 0 0 0 0 -1 forward_v I I I I #
coedge $-1 $61 $62 $63 $64 forward $24 $-1 #
face $-1 $65 $66 $14 $-1 $67 forward single #
loop $-1 $-1 $68 $26 #
plane-surface $-1 15.772966728306116 -47.233855324526004 16.320286287724741 0 -0.69465837861970381 0.71933979245794832 1 0 0 forward_v I I I I #
coedge $-1 $69 $70 $71 $72 reversed $27 $-1 #
face $-1 $73 $74 $15 $-1 $75 forward single #
loop $-1 $76 $77 $29 #
cone-surface $-1 15.772966728306116 -41.079407464960667 16.146818070284617 0 0.69465837861970381 -0.71933979245794832 0.5 0 0 1 I I -0.70710678118655002 0.70710678118654502 0.5 forward I I I I #
loop $-1 $-1 $78 $19 #
coedge $-1 $48 $48 $79 $80 reversed $30 $-1 #
face $-1 $81 $82 $12 $-1 $83 reversed single #
loop $-1 $-1 $84 $32 #
plane-surface $-1 0 -47.233855324526033 0 0 1 0 0 0 1 forward_v I I I I #
coedge $-1 $85 $86 $87 $88 forward $33 $-1 #
coedge $-1 $89 $35 $90 $91 forward $21 $-1 #
coedge $-1 $35 $89 $92 $93 forward $21 $-1 #
coedge $-1 $94 $95 $35 $56 reversed $96 $-1 #
edge $-1 $97 -47.233855324526033 $98 47.233855324526033 $55 $99 forward 7 unknown #
face $-1 $100 $101 $13 $-1 $102 reversed single #
loop $-1 $-1 $103 $36 #
plane-surface $-1 -83.945248704051124 -39.096113315894328 0 0 -1 0 0 0 -1 forward_v I I I I #
coedge $-1 $104 $105 $106 $107 forward $37 $-1 #
coedge $-1 $108 $39 $109 $110 reversed $24 $-1 #
coedge $-1 $39 $108 $111 $112 reversed $24 $-1 #
coedge $-1 $105 $104 $39 $64 reversed $37 $-1 #
edge $-1 $113 -22.303570760923996 $114 22.303570760923996 $63 $115 forward 7 unknown #
face $-1 $116 $117 $14 $-1 $118 forward single #
loop $-1 $-1 $119 $40 #
plane-surface $-1 6.3288761534249787 -143.62573483464502 116.13699725753582 1 0 0 0 0.69465837861970381 -0.71933979245794832 forward_v I I I I #
coedge $-1 $120 $121 $122 $123 reversed $41 $-1 #
coedge $-1 $70 $43 $121 $124 forward $27 $-1 #
coedge $-1 $43 $69 $125 $126 reversed $27 $-1 #
coedge $-1 $127 $122 $43 $72 forward $117 $-1 #
edge $-1 $128 -30.774884400160239 $129 -24.579012092796475 $71 $130 forward 7 unknown #
face $-1 $131 $132 $15 $-1 $133 forward single #
loop $-1 $-1 $134 $44 #
plane-surface $-1 25.217057303187254 -143.62573483464502 116.13699725753582 -1 0 0 0 -0.69465837861970381 0.71933979245794832 forward_v I I I I #
loop $-1 $-1 $135 $29 #
coedge $-1 $77 $77 $78 $136 forward $45 $-1 #
coedge $-1 $78 $78 $77 $136 reversed $47 $-1 #
coedge $-1 $79 $79 $48 $80 forward $132 $-1 #
edge $-1 $137 -1.9418063444839964e-015 $137 6.2831853071795987 $79 $138 forward 7 unknown #
face $-1 $139 $140 $12 $-1 $141 reversed single #
loop $-1 $-1 $142 $49 #
plane-surface $-1 -69.38077944273202 0 0 1 0 0 0 0 -1 forward_v I I I I #
coedge $-1 $143 $92 $144 $145 forward $50 $-1 #
coedge $-1 $146 $52 $143 $147 forward $33 $-1 #
coedge $-1 $52 $146 $148 $149 forward $33 $-1 #
coedge $-1 $95 $94 $52 $88 reversed $96 $-1 #
edge $-1 $150 -47.233855324526033 $151 47.233855324526033 $87 $152 forward 7 unknown #
coedge $-1 $54 $53 $153 $154 forward $21 $-1 #
coedge $-1 $155 $156 $53 $91 reversed $140 $-1 #
edge $-1 $98 -69.38077944273202 $157 69.38077944273202 $90 $158 forward 7 unknown #
coedge $-1 $84 $159 $54 $93 reversed $50 $-1 #
edge $-1 $160 -69.38077944273202 $97 69.38077944273202 $92 $161 forward 7 unknown #
coedge $-1 $87 $55 $159 $162 forward $96 $-1 #
coedge $-1 $55 $87 $155 $163 reversed $96 $-1 #
loop $-1 $-1 $94 $139 #
vertex $-1 $56 $164 #
vertex $-1 $56 $165 #
straight-curve $-1 69.38077944273202 0 22.303570760923996 0 1 0 I I #
face $-1 $166 $167 $13 $-1 $102 reversed single #
loop $-1 $-1 $168 $57 #
plane-surface $-1 -69.38077944273202 0 0 1 0 0 0 0 -1 forward_v I I I I #
coedge $-1 $169 $170 $168 $171 reversed $58 $-1 #
coedge $-1 $63 $60 $172 $173 reversed $37 $-1 #
coedge $-1 $60 $63 $174 $175 reversed $37 $-1 #
coedge $-1 $170 $169 $60 $107 reversed $58 $-1 #
edge $-1 $176 -22.303570760923996 $177 22.303570760923996 $106 $178 forward 7 unknown #
coedge $-1 $62 $61 $179 $180 reversed $24 $-1 #
coedge $-1 $172 $181 $61 $110 forward $182 $-1 #
edge $-1 $183 -14.564469261319104 $114 14.564469261319104 $61 $184 forward 7 unknown #
coedge $-1 $185 $174 $62 $112 forward $186 $-1 #
edge $-1 $113 -14.564469261319104 $187 14.564469261319104 $62 $188 forward 7 unknown #
vertex $-1 $175 $189 #
vertex $-1 $173 $190 #
straight-curve $-1 -98.509717965370228 -44.510312435329794 0 0 0 -1 I I #
face $-1 $191 $192 $14 $-1 $193 reversed single #
loop $-1 $-1 $194 $65 #
plane-surface $-1 0 0 22.303570760923996 0 0 1 1 0 0 forward_v I I I I #
coedge $-1 $195 $196 $194 $197 reversed $66 $-1 #
coedge $-1 $198 $68 $196 $199 reversed $41 $-1 #
coedge $-1 $68 $198 $69 $124 reversed $41 $-1 #
coedge $-1 $71 $194 $68 $123 forward $117 $-1 #
edge $-1 $200 -1.5576072107280794 $128 17.330573939034196 $122 $201 forward 7 unknown #
edge $-1 $128 -8.6132761906480226 $202 4.0188245153491725e-014 $69 $203 forward 7 unknown #
coedge $-1 $204 $205 $70 $126 forward $206 $-1 #
edge $-1 $129 35.764927867843916 $202 41.7482123410432 $125 $207 forward 7 unknown #
coedge $-1 $208 $71 $205 $209 forward $117 $-1 #
vertex $-1 $123 $210 #
vertex $-1 $209 $211 #
straight-curve $-1 25.217057303187254 -71.812867417322508 22.303570760923996 0 -1 0 I I #
face $-1 $212 $213 $15 $-1 $214 forward single #
loop $-1 $215 $79 $73 #
plane-surface $-1 15.772966728306116 -47.233855324526004 16.320286287724741 0 -0.69465837861970381 0.71933979245794832 1 0 0 forward_v I I I I #
coedge $-1 $216 $217 $218 $219 reversed $74 $-1 #
coedge $-1 $135 $135 $-1 $220 forward $76 $-1 #
edge $-1 $221 0 $221 6.2831853071796004 $77 $222 forward 7 unknown #
vertex $-1 $80 $223 #
ellipse-curve $-1 15.772966728306116 -44.135919170844154 19.311928524324351 0 0.69465837861970381 -0.71933979245794832 1 0 0 1 I I #
face $-1 $-1 $96 $12 $-1 $224 reversed single #
loop $-1 $-1 $155 $81 #
plane-surface $-1 0 47.233855324526033 0 0 -1 0 0 0 -1 forward_v I I I I #
coedge $-1 $225 $153 $156 $226 forward $82 $-1 #
coedge $-1 $159 $84 $85 $147 reversed $50 $-1 #
coedge $-1 $153 $225 $84 $145 reversed $82 $-1 #
edge $-1 $160 -22.303570760923996 $227 22.303570760923996 $144 $228 forward 7 unknown #
coedge $-1 $86 $85 $225 $229 forward $33 $-1 #
edge $-1 $151 -69.38077944273202 $227 69.38077944273202 $143 $230 forward 7 unknown #
coedge $-1 $156 $155 $86 $149 reversed $140 $-1 #
edge $-1 $231 -69.38077944273202 $150 69.38077944273202 $148 $232 forward 7 unknown #
vertex $-1 $88 $233 #
vertex $-1 $162 $234 #
straight-curve $-1 69.38077944273202 0 -22.303570760923996 0 -1 0 I I #
coedge $-1 $142 $144 $89 $154 reversed $82 $-1 #
edge $-1 $157 -47.233855324526033 $160 47.233855324526033 $153 $235 forward 7 unknown #
coedge $-1 $148 $90 $95 $163 forward $140 $-1 #
coedge $-1 $90 $148 $142 $226 reversed $140 $-1 #
vertex $-1 $91 $236 #
straight-curve $-1 0 47.233855324526033 22.303570760923996 -1 0 0 I I #
coedge $-1 $92 $143 $94 $162 reversed $50 $-1 #
vertex $-1 $154 $237 #
straight-curve $-1 0 -47.233855324526033 22.303570760923996 1 0 0 I I #
edge $-1 $97 -22.303570760923996 $151 22.303570760923996 $94 $238 forward 7 unknown #
edge $-1 $98 -22.303570760923996 $150 22.303570760923996 $95 $239 forward 7 unknown #
point $-1 69.38077944273202 -47.233855324526033 22.303570760923996 #
point $-1 69.38077944273202 47.233855324526033 22.303570760923996 #
face $-1 $240 $186 $13 $-1 $241 forward single #
loop $-1 $-1 $179 $100 #
coedge $-1 $242 $243 $103 $171 forward $101 $-1 #
coedge $-1 $106 $103 $244 $245 reversed $58 $-1 #
coedge $-1 $103 $106 $246 $247 reversed $58 $-1 #
edge $-1 $248 -22.303570760923996 $249 22.303570760923996 $168 $250 forward 7 unknown #
coedge $-1 $244 $109 $104 $173 forward $182 $-1 #
edge $-1 $114 -2.707099559717733 $177 2.707099559717733 $104 $251 forward 7 unknown #
coedge $-1 $111 $246 $105 $175 forward $186 $-1 #
edge $-1 $176 -2.707099559717733 $113 2.707099559717733 $105 $252 forward 7 unknown #
vertex $-1 $247 $253 #
vertex $-1 $245 $254 #
straight-curve $-1 -98.509717965370228 -39.096113315894328 0 0 0 -1 I I #
coedge $-1 $255 $256 $108 $180 forward $167 $-1 #
edge $-1 $187 -22.303570760923996 $183 22.303570760923996 $179 $257 forward 7 unknown #
coedge $-1 $109 $258 $255 $259 forward $182 $-1 #
loop $-1 $-1 $260 $240 #
vertex $-1 $110 $261 #
straight-curve $-1 -83.945248704051124 -44.510312435329794 -22.303570760923996 -1 0 0 I I #
coedge $-1 $262 $111 $256 $263 forward $186 $-1 #
loop $-1 $-1 $264 $166 #
vertex $-1 $263 $265 #
straight-curve $-1 -83.945248704051124 -44.510312435329794 22.303570760923996 1 0 0 I I #
point $-1 -98.509717965370228 -44.510312435329794 22.303570760923996 #
point $-1 -98.509717965370228 -44.510312435329794 -22.303570760923996 #
face $-1 $266 $267 $14 $-1 $268 reversed single #
loop $-1 $-1 $269 $116 #
plane-surface $-1 -83.945248704051124 -44.510312435329794 0 0 1 0 0 0 1 forward_v I I I I #
coedge $-1 $122 $270 $119 $197 forward $117 $-1 #
coedge $-1 $196 $119 $271 $272 reversed $66 $-1 #
coedge $-1 $119 $195 $120 $199 forward $66 $-1 #
edge $-1 $273 24.579012092796475 $200 30.774884400160239 $194 $274 forward 7 unknown #
coedge $-1 $121 $120 $204 $275 reversed $41 $-1 #
edge $-1 $276 -4.0188245153491725e-014 $200 8.6132761906480226 $196 $277 forward 7 unknown #
vertex $-1 $123 $278 #
straight-curve $-1 7.8864833641530581 -41.037983017162269 22.303570760923996 1 0 0 I I #
vertex $-1 $275 $279 #
straight-curve $-1 25.217057303187254 -47.233855324526004 16.320286287724741 0 -0.71933979245794832 -0.69465837861970381 I I #
coedge $-1 $271 $125 $198 $275 forward $206 $-1 #
coedge $-1 $125 $280 $127 $209 reversed $206 $-1 #
loop $-1 $-1 $271 $281 #
straight-curve $-1 25.217057303187254 -47.233855324526033 58.068498628767912 0 0 -1 I I #
coedge $-1 $282 $127 $283 $284 forward $117 $-1 #
edge $-1 $129 25.217057303187254 $285 69.38077944273202 $205 $286 forward 7 unknown #
point $-1 25.217057303187254 -41.037983017162269 22.303570760923996 #
point $-1 25.217057303187254 -47.233855324526033 22.303570760923996 #
face $-1 $287 $288 $15 $-1 $289 forward single #
loop $-1 $-1 $290 $131 #
plane-surface $-1 6.3288761534249787 -143.62573483464502 116.13699725753582 1 0 0 0 0.69465837861970381 -0.71933979245794832 forward_v I I I I #
loop $-1 $-1 $291 $73 #
coedge $-1 $217 $134 $292 $293 forward $74 $-1 #
coedge $-1 $134 $216 $294 $295 reversed $74 $-1 #
coedge $-1 $296 $297 $134 $219 forward $288 $-1 #
edge $-1 $298 -30.774884400160239 $299 -24.579012092796475 $218 $300 forward 7 unknown #
edge $-1 $301 1 $301 0 $135 $-1 forward 7 unknown #
vertex $-1 $136 $302 #
ellipse-curve $-1 15.772966728306116 -41.426736654270513 16.506487966513589 0 -0.69465837861970381 0.71933979245794832 1 0 0 1 I I #
point $-1 16.772966728306116 -44.135919170844176 19.311928524324376 #
plane-surface $-1 69.38077944273202 0 0 -1 0 0 0 0 1 forward_v I I I I #
coedge $-1 $144 $142 $146 $229 reversed $82 $-1 #
edge $-1 $157 -22.303570760923996 $231 22.303570760923996 $156 $303 forward 7 unknown #
vertex $-1 $229 $304 #
straight-curve $-1 -69.38077944273202 -47.233855324526033 0 0 0 -1 I I #
edge $-1 $227 -47.233855324526033 $231 47.233855324526033 $225 $305 forward 7 unknown #
straight-curve $-1 0 -47.233855324526033 -22.303570760923996 -1 0 0 I I #
vertex $-1 $149 $306 #
straight-curve $-1 0 47.233855324526033 -22.303570760923996 1 0 0 I I #
point $-1 69.38077944273202 47.233855324526033 -22.303570760923996 #
point $-1 69.38077944273202 -47.233855324526033 -22.303570760923996 #
straight-curve $-1 -69.38077944273202 0 22.303570760923996 0 -1 0 I I #
point $-1 -69.38077944273202 47.233855324526033 22.303570760923996 #
point $-1 -69.38077944273202 -47.233855324526033 22.303570760923996 #
straight-curve $-1 69.38077944273202 -47.233855324526033 0 0 0 -1 I I #
straight-curve $-1 69.38077944273202 47.233855324526033 0 0 0 -1 I I #
face $-1 $307 $182 $13 $-1 $308 reversed single #
plane-surface $-1 0 0 22.303570760923996 0 0 1 1 0 0 forward_v I I I I #
coedge $-1 $309 $168 $310 $311 reversed $101 $-1 #
coedge $-1 $168 $309 $312 $313 reversed $101 $-1 #
coedge $-1 $312 $172 $169 $245 forward $182 $-1 #
edge $-1 $177 -14.564469261319104 $248 14.564469261319104 $169 $314 forward 7 unknown #
coedge $-1 $174 $310 $170 $247 forward $186 $-1 #
edge $-1 $249 -14.564469261319104 $176 14.564469261319104 $170 $315 forward 7 unknown #
vertex $-1 $313 $316 #
vertex $-1 $247 $317 #
straight-curve $-1 -69.38077944273202 -39.096113315894328 0 0 0 1 I I #
straight-curve $-1 -98.509717965370228 -41.803212875612061 -22.303570760923996 0 1 0 I I #
straight-curve $-1 -98.509717965370228 -41.803212875612061 22.303570760923996 0 -1 0 I I #
point $-1 -98.509717965370228 -39.096113315894328 22.303570760923996 #
point $-1 -98.509717965370228 -39.096113315894328 -22.303570760923996 #
coedge $-1 $318 $179 $181 $259 reversed $167 $-1 #
coedge $-1 $179 $318 $185 $263 reversed $167 $-1 #
straight-curve $-1 -69.38077944273202 -44.510312435329794 0 0 0 -1 I I #
coedge $-1 $181 $260 $319 $320 forward $182 $-1 #
edge $-1 $321 -47.233855324526033 $183 -44.510312435329794 $255 $322 forward 7 unknown #
coedge $-1 $258 $323 $324 $325 forward $182 $-1 #
point $-1 -69.38077944273202 -44.510312435329794 -22.303570760923996 #
coedge $-1 $264 $185 $326 $327 forward $186 $-1 #
edge $-1 $187 44.510312435329794 $328 47.233855324526033 $256 $329 forward 7 unknown #
coedge $-1 $330 $262 $331 $332 forward $186 $-1 #
point $-1 -69.38077944273202 -44.510312435329794 22.303570760923996 #
face $-1 $333 $334 $14 $-1 $335 reversed single #
loop $-1 $-1 $336 $191 #
plane-surface $-1 -98.509717965370228 -41.803212875612061 0 1 0 0 0 0 -1 forward_v I I I I #
coedge $-1 $337 $338 $339 $340 forward $192 $-1 #
coedge $-1 $194 $341 $342 $343 forward $117 $-1 #
coedge $-1 $342 $204 $195 $272 forward $206 $-1 #
edge $-1 $276 -41.7482123410432 $273 -35.764927867843916 $271 $344 forward 7 unknown #
vertex $-1 $272 $345 #
straight-curve $-1 6.3288761534249787 -71.812867417322508 22.303570760923996 0 1 0 I I #
edge $-1 $202 -17.330573939034196 $276 1.5576072107280794 $204 $346 forward 7 unknown #
vertex $-1 $275 $347 #
straight-curve $-1 6.3288761534249787 -47.233855324526004 16.320286287724741 0 0.71933979245794832 0.69465837861970381 I I #
point $-1 6.3288761534249787 -41.037983017162269 22.303570760923996 #
point $-1 25.217057303187254 -47.233855324526033 16.320286287724713 #
coedge $-1 $205 $348 $349 $350 reversed $206 $-1 #
face $-1 $351 $206 $14 $-1 $352 reversed single #
coedge $-1 $353 $208 $354 $355 forward $117 $-1 #
coedge $-1 $349 $356 $208 $284 reversed $357 $-1 #
edge $-1 $285 -47.233855324526033 $358 47.233855324526033 $283 $359 forward 7 unknown #
vertex $-1 $284 $360 #
straight-curve $-1 0 -47.233855324526033 22.303570760923996 1 0 0 I I #
face $-1 $361 $362 $15 $-1 $363 reversed single #
loop $-1 $-1 $364 $212 #
plane-surface $-1 0 0 22.303570760923996 0 0 1 1 0 0 forward_v I I I I #
coedge $-1 $365 $366 $364 $367 reversed $213 $-1 #
coedge $-1 $368 $292 $297 $369 reversed $215 $-1 #
coedge $-1 $291 $370 $216 $293 reversed $215 $-1 #
edge $-1 $298 -8.6132761906480226 $371 4.0188245153491725e-014 $216 $372 forward 7 unknown #
coedge $-1 $373 $374 $217 $295 forward $375 $-1 #
edge $-1 $299 35.764927867843916 $371 41.7482123410432 $294 $376 forward 7 unknown #
coedge $-1 $377 $218 $374 $378 forward $288 $-1 #
coedge $-1 $218 $364 $291 $369 forward $288 $-1 #
vertex $-1 $369 $379 #
vertex $-1 $378 $380 #
straight-curve $-1 25.217057303187254 -71.812867417322508 22.303570760923996 0 -1 0 I I #
vertex $-1 $220 $381 #
point $-1 16.772966728306116 -41.426736654270513 16.506487966513589 #
straight-curve $-1 -69.38077944273202 47.233855324526033 0 0 0 -1 I I #
point $-1 -69.38077944273202 -47.233855324526033 -22.303570760923996 #
straight-curve $-1 -69.38077944273202 0 -22.303570760923996 0 1 0 I I #
point $-1 -69.38077944273202 47.233855324526033 -22.303570760923996 #
face $-1 $382 $383 $13 $-1 $384 reversed single #
plane-surface $-1 0 0 -22.303570760923996 0 0 1 1 0 0 forward_v I I I I #
coedge $-1 $243 $242 $385 $386 forward $101 $-1 #
coedge $-1 $246 $330 $242 $311 forward $186 $-1 #
edge $-1 $387 -47.233855324526033 $249 39.096113315894328 $242 $329 forward 7 unknown #
coedge $-1 $323 $244 $243 $313 forward $182 $-1 #
edge $-1 $248 -39.096113315894328 $388 47.233855324526033 $243 $322 forward 7 unknown #
straight-curve $-1 -83.945248704051124 -39.096113315894328 -22.303570760923996 1 0 0 I I #
straight-curve $-1 -83.945248704051124 -39.096113315894328 22.303570760923996 -1 0 0 I I #
point $-1 -69.38077944273202 -39.096113315894328 -22.303570760923996 #
point $-1 -69.38077944273202 -39.096113315894328 22.303570760923996 #
coedge $-1 $256 $255 $389 $390 reversed $167 $-1 #
coedge $-1 $391 $389 $258 $320 reversed $383 $-1 #
edge $-1 $392 -69.38077944273202 $321 69.38077944273202 $319 $393 forward 7 unknown #
vertex $-1 $259 $394 #
straight-curve $-1 -69.38077944273202 0 -22.303570760923996 0 1 0 I I #
coedge $-1 $260 $312 $395 $396 forward $182 $-1 #
coedge $-1 $397 $398 $260 $325 reversed $399 $-1 #
edge $-1 $400 -47.233855324526033 $392 47.233855324526033 $324 $401 forward 7 unknown #
coedge $-1 $389 $391 $262 $327 reversed $383 $-1 #
edge $-1 $328 -69.38077944273202 $402 69.38077944273202 $326 $403 forward 7 unknown #
vertex $-1 $263 $404 #
straight-curve $-1 -69.38077944273202 0 22.303570760923996 0 -1 0 I I #
coedge $-1 $310 $264 $405 $406 forward $186 $-1 #
coedge $-1 $398 $397 $264 $332 reversed $399 $-1 #
edge $-1 $402 -47.233855324526033 $407 47.233855324526033 $331 $408 forward 7 unknown #
face $-1 $409 $410 $14 $-1 $411 reversed single #
loop $-1 $-1 $412 $266 #
plane-surface $-1 -83.945248704051124 -39.096113315894328 0 0 -1 0 0 0 -1 forward_v I I I I #
coedge $-1 $413 $414 $415 $416 forward $267 $-1 #
coedge $-1 $417 $269 $418 $419 reversed $192 $-1 #
coedge $-1 $269 $417 $420 $421 reversed $192 $-1 #
coedge $-1 $414 $413 $269 $340 reversed $267 $-1 #
edge $-1 $422 -22.303570760923996 $423 22.303570760923996 $339 $424 forward 7 unknown #
coedge $-1 $270 $420 $425 $426 forward $117 $-1 #
coedge $-1 $427 $271 $270 $343 reversed $206 $-1 #
edge $-1 $428 -69.38077944273202 $273 6.3288761534249787 $342 $286 forward 7 unknown #
straight-curve $-1 6.3288761534249787 -47.233855324526033 58.068498628767912 0 0 1 I I #
point $-1 6.3288761534249787 -47.233855324526033 22.303570760923996 #
straight-curve $-1 7.8864833641530581 -47.233855324526033 16.320286287724716 -1 0 0 I I #
point $-1 6.3288761534249787 -47.233855324526033 16.320286287724713 #
coedge $-1 $280 $427 $429 $430 reversed $206 $-1 #
coedge $-1 $431 $283 $280 $350 forward $357 $-1 #
edge $-1 $285 -22.303570760923996 $432 22.303570760923996 $349 $433 forward 7 unknown #
face $-1 $434 $435 $14 $-1 $436 reversed single #
plane-surface $-1 0 -47.233855324526033 0 0 1 0 0 0 1 forward_v I I I I #
coedge $-1 $437 $282 $438 $439 forward $117 $-1 #
coedge $-1 $440 $441 $282 $355 reversed $435 $-1 #
edge $-1 $358 -69.38077944273202 $442 69.38077944273202 $354 $443 forward 7 unknown #
coedge $-1 $283 $431 $440 $444 reversed $357 $-1 #
loop $-1 $-1 $349 $434 #
vertex $-1 $284 $445 #
straight-curve $-1 69.38077944273202 0 22.303570760923996 0 1 0 I I #
point $-1 69.38077944273202 -47.233855324526033 22.303570760923996 #
face $-1 $446 $447 $15 $-1 $448 reversed single #
loop $-1 $-1 $449 $287 #
plane-surface $-1 -83.945248704051124 -44.510312435329794 0 0 1 0 0 0 1 forward_v I I I I #
coedge $-1 $297 $450 $290 $367 forward $288 $-1 #
coedge $-1 $366 $290 $451 $452 reversed $213 $-1 #
coedge $-1 $290 $365 $368 $453 forward $213 $-1 #
edge $-1 $454 24.579012092796475 $455 30.774884400160239 $364 $456 forward 7 unknown #
coedge $-1 $370 $291 $366 $453 reversed $215 $-1 #
edge $-1 $455 -1.5576072107280794 $298 17.330573939034196 $297 $457 forward 7 unknown #
coedge $-1 $292 $368 $373 $458 reversed $215 $-1 #
vertex $-1 $458 $459 #
straight-curve $-1 25.217057303187254 -47.233855324526004 16.320286287724741 0 -0.71933979245794832 -0.69465837861970381 I I #
coedge $-1 $451 $294 $370 $458 forward $375 $-1 #
coedge $-1 $294 $460 $296 $378 reversed $375 $-1 #
loop $-1 $-1 $451 $461 #
straight-curve $-1 25.217057303187254 -47.233855324526033 58.068498628767912 0 0 -1 I I #
coedge $-1 $462 $296 $463 $464 forward $288 $-1 #
edge $-1 $299 25.217057303187254 $465 69.38077944273202 $374 $466 forward 7 unknown #
point $-1 25.217057303187254 -41.037983017162269 22.303570760923996 #
point $-1 25.217057303187254 -47.233855324526033 22.303570760923996 #
point $-1 15.772966728306116 -40.732078275650821 15.787148174055645 #
face $-1 $467 $468 $13 $-1 $469 reversed single #
loop $-1 $-1 $389 $307 #
plane-surface $-1 0 -47.233855324526033 0 0 1 0 0 0 1 forward_v I I I I #
coedge $-1 $405 $395 $309 $386 reversed $468 $-1 #
edge $-1 $387 -22.303570760923996 $388 22.303570760923996 $385 $470 forward 7 unknown #
vertex $-1 $406 $471 #
vertex $-1 $396 $472 #
coedge $-1 $319 $326 $318 $390 forward $383 $-1 #
edge $-1 $328 -22.303570760923996 $321 22.303570760923996 $318 $473 forward 7 unknown #
coedge $-1 $326 $319 $398 $474 reversed $383 $-1 #
vertex $-1 $474 $475 #
straight-curve $-1 0 -47.233855324526033 -22.303570760923996 -1 0 0 I I #
point $-1 -69.38077944273202 -47.233855324526033 -22.303570760923996 #
coedge $-1 $385 $476 $323 $396 reversed $468 $-1 #
edge $-1 $388 -69.38077944273202 $400 69.38077944273202 $395 $477 forward 7 unknown #
coedge $-1 $331 $324 $476 $478 reversed $399 $-1 #
coedge $-1 $324 $331 $391 $474 forward $399 $-1 #
loop $-1 $-1 $398 $467 #
vertex $-1 $325 $479 #
straight-curve $-1 69.38077944273202 0 -22.303570760923996 0 -1 0 I I #
vertex $-1 $332 $480 #
straight-curve $-1 0 -47.233855324526033 22.303570760923996 1 0 0 I I #
point $-1 -69.38077944273202 -47.233855324526033 22.303570760923996 #
coedge $-1 $476 $385 $330 $406 reversed $468 $-1 #
edge $-1 $407 -69.38077944273202 $387 69.38077944273202 $405 $481 forward 7 unknown #
vertex $-1 $332 $482 #
straight-curve $-1 69.38077944273202 0 22.303570760923996 0 1 0 I I #
face $-1 $483 $484 $14 $-1 $411 reversed single #
loop $-1 $-1 $485 $333 #
plane-surface $-1 -69.38077944273202 0 0 1 0 0 0 0 -1 forward_v I I I I #
coedge $-1 $486 $487 $485 $488 reversed $334 $-1 #
coedge $-1 $339 $336 $489 $490 reversed $267 $-1 #
coedge $-1 $336 $339 $491 $492 reversed $267 $-1 #
coedge $-1 $487 $486 $336 $416 reversed $334 $-1 #
edge $-1 $493 -22.303570760923996 $494 22.303570760923996 $415 $495 forward 7 unknown #
coedge $-1 $338 $337 $496 $497 reversed $192 $-1 #
coedge $-1 $489 $498 $337 $419 forward $499 $-1 #
edge $-1 $500 -14.564469261319104 $423 14.564469261319104 $337 $501 forward 7 unknown #
coedge $-1 $341 $491 $338 $421 forward $117 $-1 #
edge $-1 $422 -14.564469261319104 $502 14.564469261319104 $338 $503 forward 7 unknown #
vertex $-1 $492 $504 #
vertex $-1 $490 $505 #
straight-curve $-1 -98.509717965370228 -44.510312435329794 0 0 0 -1 I I #
coedge $-1 $496 $506 $341 $426 reversed $484 $-1 #
edge $-1 $502 44.510312435329794 $428 47.233855324526033 $425 $507 forward 7 unknown #
coedge $-1 $348 $342 $506 $508 forward $206 $-1 #
vertex $-1 $426 $509 #
coedge $-1 $498 $510 $348 $430 forward $499 $-1 #
edge $-1 $432 -69.38077944273202 $511 69.38077944273202 $348 $512 forward 7 unknown #
coedge $-1 $356 $349 $510 $513 reversed $357 $-1 #
vertex $-1 $350 $514 #
straight-curve $-1 69.38077944273202 -47.233855324526033 0 0 0 -1 I I #
face $-1 $-1 $357 $14 $-1 $515 reversed single #
loop $-1 $-1 $440 $351 #
plane-surface $-1 0 47.233855324526033 0 0 -1 0 0 0 -1 forward_v I I I I #
coedge $-1 $491 $353 $487 $516 forward $117 $-1 #
coedge $-1 $517 $485 $353 $439 reversed $410 $-1 #
edge $-1 $442 -47.233855324526033 $518 39.096113315894328 $438 $507 forward 7 unknown #
coedge $-1 $519 $354 $356 $444 forward $435 $-1 #
coedge $-1 $354 $519 $517 $520 reversed $435 $-1 #
vertex $-1 $355 $521 #
straight-curve $-1 0 47.233855324526033 22.303570760923996 -1 0 0 I I #
edge $-1 $358 -22.303570760923996 $522 22.303570760923996 $356 $523 forward 7 unknown #
point $-1 69.38077944273202 47.233855324526033 22.303570760923996 #
face $-1 $524 $525 $15 $-1 $526 reversed single #
loop $-1 $-1 $527 $361 #
plane-surface $-1 -98.509717965370228 -41.803212875612061 0 1 0 0 0 0 -1 forward_v I I I I #
coedge $-1 $528 $529 $530 $531 forward $362 $-1 #
coedge $-1 $364 $532 $533 $534 forward $288 $-1 #
coedge $-1 $533 $373 $365 $452 forward $375 $-1 #
edge $-1 $535 -41.7482123410432 $454 -35.764927867843916 $451 $536 forward 7 unknown #
edge $-1 $535 -4.0188245153491725e-014 $455 8.6132761906480226 $366 $537 forward 7 unknown #
vertex $-1 $452 $538 #
vertex $-1 $369 $539 #
straight-curve $-1 6.3288761534249787 -71.812867417322508 22.303570760923996 0 1 0 I I #
straight-curve $-1 7.8864833641530581 -41.037983017162269 22.303570760923996 1 0 0 I I #
edge $-1 $371 -17.330573939034196 $535 1.5576072107280794 $373 $540 forward 7 unknown #
point $-1 25.217057303187254 -47.233855324526033 16.320286287724713 #
coedge $-1 $374 $541 $542 $543 reversed $375 $-1 #
face $-1 $544 $375 $15 $-1 $545 reversed single #
coedge $-1 $546 $377 $547 $548 forward $288 $-1 #
coedge $-1 $542 $549 $377 $464 reversed $550 $-1 #
edge $-1 $465 -47.233855324526033 $551 47.233855324526033 $463 $552 forward 7 unknown #
vertex $-1 $464 $553 #
straight-curve $-1 0 -47.233855324526033 22.303570760923996 1 0 0 I I #
face $-1 $-1 $399 $13 $-1 $554 reversed single #
loop $-1 $-1 $476 $382 #
plane-surface $-1 0 47.233855324526033 0 0 -1 0 0 0 -1 forward_v I I I I #
straight-curve $-1 -69.38077944273202 47.233855324526033 0 0 0 -1 I I #
point $-1 -69.38077944273202 47.233855324526033 22.303570760923996 #
point $-1 -69.38077944273202 47.233855324526033 -22.303570760923996 #
straight-curve $-1 -69.38077944273202 -47.233855324526033 0 0 0 -1 I I #
edge $-1 $402 -22.303570760923996 $392 22.303570760923996 $398 $555 forward 7 unknown #
point $-1 69.38077944273202 -47.233855324526033 -22.303570760923996 #
coedge $-1 $395 $405 $397 $478 forward $468 $-1 #
straight-curve $-1 0 47.233855324526033 -22.303570760923996 1 0 0 I I #
edge $-1 $407 -22.303570760923996 $400 22.303570760923996 $397 $556 forward 7 unknown #
point $-1 69.38077944273202 47.233855324526033 -22.303570760923996 #
point $-1 69.38077944273202 -47.233855324526033 22.303570760923996 #
straight-curve $-1 0 47.233855324526033 22.303570760923996 -1 0 0 I I #
point $-1 69.38077944273202 47.233855324526033 22.303570760923996 #
face $-1 $281 $499 $14 $-1 $557 reversed single #
loop $-1 $-1 $496 $409 #
coedge $-1 $438 $558 $412 $488 forward $410 $-1 #
coedge $-1 $415 $412 $559 $560 reversed $334 $-1 #
coedge $-1 $412 $415 $437 $516 reversed $334 $-1 #
edge $-1 $561 -22.303570760923996 $518 22.303570760923996 $485 $562 forward 7 unknown #
coedge $-1 $559 $418 $413 $490 forward $499 $-1 #
edge $-1 $423 -2.707099559717733 $494 2.707099559717733 $413 $563 forward 7 unknown #
coedge $-1 $420 $437 $414 $492 forward $117 $-1 #
edge $-1 $493 -2.707099559717733 $422 2.707099559717733 $414 $564 forward 7 unknown #
vertex $-1 $516 $565 #
vertex $-1 $560 $566 #
straight-curve $-1 -98.509717965370228 -39.096113315894328 0 0 0 -1 I I #
coedge $-1 $567 $425 $417 $497 forward $484 $-1 #
edge $-1 $502 -22.303570760923996 $500 22.303570760923996 $496 $568 forward 7 unknown #
coedge $-1 $418 $429 $567 $569 forward $499 $-1 #
loop $-1 $-1 $510 $483 #
vertex $-1 $419 $570 #
straight-curve $-1 -83.945248704051124 -44.510312435329794 -22.303570760923996 -1 0 0 I I #
vertex $-1 $426 $571 #
straight-curve $-1 -83.945248704051124 -44.510312435329794 22.303570760923996 1 0 0 I I #
point $-1 -98.509717965370228 -44.510312435329794 22.303570760923996 #
point $-1 -98.509717965370228 -44.510312435329794 -22.303570760923996 #
coedge $-1 $425 $567 $427 $508 reversed $484 $-1 #
straight-curve $-1 -69.38077944273202 0 22.303570760923996 0 -1 0 I I #
edge $-1 $428 -22.303570760923996 $511 22.303570760923996 $506 $572 forward 7 unknown #
point $-1 -69.38077944273202 -47.233855324526033 22.303570760923996 #
coedge $-1 $429 $573 $431 $513 forward $499 $-1 #
vertex $-1 $569 $574 #
straight-curve $-1 0 -47.233855324526033 -22.303570760923996 -1 0 0 I I #
edge $-1 $522 -47.233855324526033 $432 47.233855324526033 $431 $575 forward 7 unknown #
point $-1 69.38077944273202 -47.233855324526033 -22.303570760923996 #
plane-surface $-1 69.38077944273202 0 0 -1 0 0 0 0 1 forward_v I I I I #
edge $-1 $518 -14.564469261319104 $493 14.564469261319104 $487 $576 forward 7 unknown #
coedge $-1 $558 $438 $441 $520 forward $410 $-1 #
vertex $-1 $516 $577 #
coedge $-1 $441 $440 $573 $578 reversed $435 $-1 #
edge $-1 $442 -22.303570760923996 $579 22.303570760923996 $441 $580 forward 7 unknown #
point $-1 -69.38077944273202 47.233855324526033 22.303570760923996 #
vertex $-1 $513 $581 #
straight-curve $-1 69.38077944273202 47.233855324526033 0 0 0 -1 I I #
face $-1 $582 $583 $15 $-1 $584 reversed single #
loop $-1 $-1 $585 $446 #
plane-surface $-1 -83.945248704051124 -39.096113315894328 0 0 -1 0 0 0 -1 forward_v I I I I #
coedge $-1 $586 $587 $588 $589 forward $447 $-1 #
coedge $-1 $590 $449 $591 $592 reversed $362 $-1 #
coedge $-1 $449 $590 $593 $594 reversed $362 $-1 #
coedge $-1 $587 $586 $449 $531 reversed $447 $-1 #
edge $-1 $595 -22.303570760923996 $596 22.303570760923996 $530 $597 forward 7 unknown #
coedge $-1 $450 $593 $598 $599 forward $288 $-1 #
coedge $-1 $600 $451 $450 $534 reversed $375 $-1 #
edge $-1 $601 -69.38077944273202 $454 6.3288761534249787 $533 $466 forward 7 unknown #
vertex $-1 $458 $602 #
straight-curve $-1 6.3288761534249787 -47.233855324526033 58.068498628767912 0 0 1 I I #
straight-curve $-1 6.3288761534249787 -47.233855324526004 16.320286287724741 0 0.71933979245794832 0.69465837861970381 I I #
point $-1 6.3288761534249787 -47.233855324526033 22.303570760923996 #
point $-1 6.3288761534249787 -41.037983017162269 22.303570760923996 #
straight-curve $-1 7.8864833641530581 -47.233855324526033 16.320286287724716 -1 0 0 I I #
coedge $-1 $460 $600 $603 $604 reversed $375 $-1 #
coedge $-1 $605 $463 $460 $543 forward $550 $-1 #
edge $-1 $465 -22.303570760923996 $606 22.303570760923996 $542 $607 forward 7 unknown #
face $-1 $608 $609 $15 $-1 $610 reversed single #
plane-surface $-1 0 -47.233855324526033 0 0 1 0 0 0 1 forward_v I I I I #
coedge $-1 $611 $462 $612 $613 forward $288 $-1 #
coedge $-1 $614 $615 $462 $548 reversed $609 $-1 #
edge $-1 $551 -69.38077944273202 $616 69.38077944273202 $547 $617 forward 7 unknown #
coedge $-1 $463 $605 $614 $618 reversed $550 $-1 #
loop $-1 $-1 $542 $608 #
vertex $-1 $464 $619 #
straight-curve $-1 69.38077944273202 0 22.303570760923996 0 1 0 I I #
point $-1 69.38077944273202 -47.233855324526033 22.303570760923996 #
plane-surface $-1 69.38077944273202 0 0 -1 0 0 0 0 1 forward_v I I I I #
straight-curve $-1 69.38077944273202 -47.233855324526033 0 0 0 -1 I I #
straight-curve $-1 69.38077944273202 47.233855324526033 0 0 0 -1 I I #
plane-surface $-1 0 0 -22.303570760923996 0 0 1 1 0 0 forward_v I I I I #
coedge $-1 $485 $517 $620 $621 reversed $410 $-1 #
coedge $-1 $620 $489 $486 $560 forward $499 $-1 #
edge $-1 $494 -14.564469261319104 $561 14.564469261319104 $486 $622 forward 7 unknown #
vertex $-1 $621 $623 #
straight-curve $-1 -69.38077944273202 -39.096113315894328 0 0 0 1 I I #
straight-curve $-1 -98.509717965370228 -41.803212875612061 -22.303570760923996 0 1 0 I I #
straight-curve $-1 -98.509717965370228 -41.803212875612061 22.303570760923996 0 -1 0 I I #
point $-1 -98.509717965370228 -39.096113315894328 22.303570760923996 #
point $-1 -98.509717965370228 -39.096113315894328 -22.303570760923996 #
coedge $-1 $506 $496 $498 $569 reversed $484 $-1 #
straight-curve $-1 -69.38077944273202 -44.510312435329794 0 0 0 -1 I I #
edge $-1 $511 -47.233855324526033 $500 -44.510312435329794 $567 $624 forward 7 unknown #
point $-1 -69.38077944273202 -44.510312435329794 -22.303570760923996 #
point $-1 -69.38077944273202 -44.510312435329794 22.303570760923996 #
straight-curve $-1 -69.38077944273202 -47.233855324526033 0 0 0 -1 I I #
coedge $-1 $510 $620 $519 $578 forward $499 $-1 #
point $-1 -69.38077944273202 -47.233855324526033 -22.303570760923996 #
straight-curve $-1 69.38077944273202 0 -22.303570760923996 0 -1 0 I I #
straight-curve $-1 -83.945248704051124 -39.096113315894328 22.303570760923996 -1 0 0 I I #
point $-1 -69.38077944273202 -39.096113315894328 22.303570760923996 #
edge $-1 $579 -69.38077944273202 $522 69.38077944273202 $519 $625 forward 7 unknown #
vertex $-1 $578 $626 #
straight-curve $-1 -69.38077944273202 47.233855324526033 0 0 0 -1 I I #
point $-1 69.38077944273202 47.233855324526033 -22.303570760923996 #
face $-1 $627 $628 $15 $-1 $584 reversed single #
loop $-1 $-1 $629 $524 #
plane-surface $-1 -69.38077944273202 0 0 1 0 0 0 0 -1 forward_v I I I I #
coedge $-1 $630 $631 $629 $632 reversed $525 $-1 #
coedge $-1 $530 $527 $633 $634 reversed $447 $-1 #
coedge $-1 $527 $530 $635 $636 reversed $447 $-1 #
coedge $-1 $631 $630 $527 $589 reversed $525 $-1 #
edge $-1 $637 -22.303570760923996 $638 22.303570760923996 $588 $639 forward 7 unknown #
coedge $-1 $529 $528 $640 $641 reversed $362 $-1 #
coedge $-1 $633 $642 $528 $592 forward $643 $-1 #
edge $-1 $644 -14.564469261319104 $596 14.564469261319104 $528 $645 forward 7 unknown #
coedge $-1 $532 $635 $529 $594 forward $288 $-1 #
edge $-1 $595 -14.564469261319104 $646 14.564469261319104 $529 $647 forward 7 unknown #
vertex $-1 $636 $648 #
vertex $-1 $634 $649 #
straight-curve $-1 -98.509717965370228 -44.510312435329794 0 0 0 -1 I I #
coedge $-1 $640 $650 $532 $599 reversed $628 $-1 #
edge $-1 $646 44.510312435329794 $601 47.233855324526033 $598 $651 forward 7 unknown #
coedge $-1 $541 $533 $650 $652 forward $375 $-1 #
vertex $-1 $599 $653 #
point $-1 6.3288761534249787 -47.233855324526033 16.320286287724713 #
coedge $-1 $642 $654 $541 $604 forward $643 $-1 #
edge $-1 $606 -69.38077944273202 $655 69.38077944273202 $541 $656 forward 7 unknown #
coedge $-1 $549 $542 $654 $657 reversed $550 $-1 #
vertex $-1 $543 $658 #
straight-curve $-1 69.38077944273202 -47.233855324526033 0 0 0 -1 I I #
face $-1 $-1 $550 $15 $-1 $659 reversed single #
loop $-1 $-1 $614 $544 #
plane-surface $-1 0 47.233855324526033 0 0 -1 0 0 0 -1 forward_v I I I I #
coedge $-1 $635 $546 $631 $660 forward $288 $-1 #
coedge $-1 $661 $629 $546 $613 reversed $583 $-1 #
edge $-1 $616 -47.233855324526033 $662 39.096113315894328 $612 $651 forward 7 unknown #
coedge $-1 $663 $547 $549 $618 forward $609 $-1 #
coedge $-1 $547 $663 $661 $664 reversed $609 $-1 #
vertex $-1 $548 $665 #
straight-curve $-1 0 47.233855324526033 22.303570760923996 -1 0 0 I I #
edge $-1 $551 -22.303570760923996 $666 22.303570760923996 $549 $667 forward 7 unknown #
point $-1 69.38077944273202 47.233855324526033 22.303570760923996 #
coedge $-1 $573 $559 $558 $621 forward $499 $-1 #
edge $-1 $561 -39.096113315894328 $579 47.233855324526033 $558 $624 forward 7 unknown #
straight-curve $-1 -83.945248704051124 -39.096113315894328 -22.303570760923996 1 0 0 I I #
point $-1 -69.38077944273202 -39.096113315894328 -22.303570760923996 #
straight-curve $-1 -69.38077944273202 0 -22.303570760923996 0 1 0 I I #
straight-curve $-1 0 47.233855324526033 -22.303570760923996 1 0 0 I I #
point $-1 -69.38077944273202 47.233855324526033 -22.303570760923996 #
face $-1 $461 $643 $15 $-1 $668 reversed single #
loop $-1 $-1 $640 $582 #
coedge $-1 $612 $669 $585 $632 forward $583 $-1 #
coedge $-1 $588 $585 $670 $671 reversed $525 $-1 #
coedge $-1 $585 $588 $611 $660 reversed $525 $-1 #
edge $-1 $672 -22.303570760923996 $662 22.303570760923996 $629 $673 forward 7 unknown #
coedge $-1 $670 $591 $586 $634 forward $643 $-1 #
edge $-1 $596 -2.707099559717733 $638 2.707099559717733 $586 $674 forward 7 unknown #
coedge $-1 $593 $611 $587 $636 forward $288 $-1 #
edge $-1 $637 -2.707099559717733 $595 2.707099559717733 $587 $675 forward 7 unknown #
vertex $-1 $660 $676 #
vertex $-1 $671 $677 #
straight-curve $-1 -98.509717965370228 -39.096113315894328 0 0 0 -1 I I #
coedge $-1 $678 $598 $590 $641 forward $628 $-1 #
edge $-1 $646 -22.303570760923996 $644 22.303570760923996 $640 $679 forward 7 unknown #
coedge $-1 $591 $603 $678 $680 forward $643 $-1 #
loop $-1 $-1 $654 $627 #
vertex $-1 $592 $681 #
straight-curve $-1 -83.945248704051124 -44.510312435329794 -22.303570760923996 -1 0 0 I I #
vertex $-1 $599 $682 #
straight-curve $-1 -83.945248704051124 -44.510312435329794 22.303570760923996 1 0 0 I I #
point $-1 -98.509717965370228 -44.510312435329794 22.303570760923996 #
point $-1 -98.509717965370228 -44.510312435329794 -22.303570760923996 #
coedge $-1 $598 $678 $600 $652 reversed $628 $-1 #
straight-curve $-1 -69.38077944273202 0 22.303570760923996 0 -1 0 I I #
edge $-1 $601 -22.303570760923996 $655 22.303570760923996 $650 $683 forward 7 unknown #
point $-1 -69.38077944273202 -47.233855324526033 22.303570760923996 #
coedge $-1 $603 $684 $605 $657 forward $643 $-1 #
vertex $-1 $680 $685 #
straight-curve $-1 0 -47.233855324526033 -22.303570760923996 -1 0 0 I I #
edge $-1 $666 -47.233855324526033 $606 47.233855324526033 $605 $686 forward 7 unknown #
point $-1 69.38077944273202 -47.233855324526033 -22.303570760923996 #
plane-surface $-1 69.38077944273202 0 0 -1 0 0 0 0 1 forward_v I I I I #
edge $-1 $662 -14.564469261319104 $637 14.564469261319104 $631 $687 forward 7 unknown #
coedge $-1 $669 $612 $615 $664 forward $583 $-1 #
vertex $-1 $660 $688 #
coedge $-1 $615 $614 $684 $689 reversed $609 $-1 #
edge $-1 $616 -22.303570760923996 $690 22.303570760923996 $615 $691 forward 7 unknown #
point $-1 -69.38077944273202 47.233855324526033 22.303570760923996 #
vertex $-1 $657 $692 #
straight-curve $-1 69.38077944273202 47.233855324526033 0 0 0 -1 I I #
plane-surface $-1 0 0 -22.303570760923996 0 0 1 1 0 0 forward_v I I I I #
coedge $-1 $629 $661 $693 $694 reversed $583 $-1 #
coedge $-1 $693 $633 $630 $671 forward $643 $-1 #
edge $-1 $638 -14.564469261319104 $672 14.564469261319104 $630 $695 forward 7 unknown #
vertex $-1 $694 $696 #
straight-curve $-1 -69.38077944273202 -39.096113315894328 0 0 0 1 I I #
straight-curve $-1 -98.509717965370228 -41.803212875612061 -22.303570760923996 0 1 0 I I #
straight-curve $-1 -98.509717965370228 -41.803212875612061 22.303570760923996 0 -1 0 I I #
point $-1 -98.509717965370228 -39.096113315894328 22.303570760923996 #
point $-1 -98.509717965370228 -39.096113315894328 -22.303570760923996 #
coedge $-1 $650 $640 $642 $680 reversed $628 $-1 #
straight-curve $-1 -69.38077944273202 -44.510312435329794 0 0 0 -1 I I #
edge $-1 $655 -47.233855324526033 $644 -44.510312435329794 $678 $697 forward 7 unknown #
point $-1 -69.38077944273202 -44.510312435329794 -22.303570760923996 #
point $-1 -69.38077944273202 -44.510312435329794 22.303570760923996 #
straight-curve $-1 -69.38077944273202 -47.233855324526033 0 0 0 -1 I I #
coedge $-1 $654 $693 $663 $689 forward $643 $-1 #
point $-1 -69.38077944273202 -47.233855324526033 -22.303570760923996 #
straight-curve $-1 69.38077944273202 0 -22.303570760923996 0 -1 0 I I #
straight-curve $-1 -83.945248704051124 -39.096113315894328 22.303570760923996 -1 0 0 I I #
point $-1 -69.38077944273202 -39.096113315894328 22.303570760923996 #
edge $-1 $690 -69.38077944273202 $666 69.38077944273202 $663 $698 forward 7 unknown #
vertex $-1 $689 $699 #
straight-curve $-1 -69.38077944273202 47.233855324526033 0 0 0 -1 I I #
point $-1 69.38077944273202 47.233855324526033 -22.303570760923996 #
coedge $-1 $684 $670 $669 $694 forward $643 $-1 #
edge $-1 $672 -39.096113315894328 $690 47.233855324526033 $669 $697 forward 7 unknown #
straight-curve $-1 -83.945248704051124 -39.096113315894328 -22.303570760923996 1 0 0 I I #
point $-1 -69.38077944273202 -39.096113315894328 -22.303570760923996 #
straight-curve $-1 -69.38077944273202 0 -22.303570760923996 0 1 0 I I #
straight-curve $-1 0 47.233855324526033 -22.303570760923996 1 0 0 I I #
point $-1 -69.38077944273202 47.233855324526033 -22.303570760923996 #
End-of-ACIS-data 