500 0 10 0           
7 Unknown 11 ACIS 5.0 NT 24 Thu Mar 25 21:46:53 1999 
-1 9.9999999999999995e-007 1e-010 
body $-1 $10 $-1 $11 #
body $-1 $12 $-1 $13 #
body $-1 $14 $-1 $15 #
body $-1 $16 $-1 $17 #
body $-1 $18 $-1 $19 #
body $-1 $20 $-1 $21 #
body $-1 $22 $-1 $23 #
body $-1 $24 $-1 $25 #
body $-1 $26 $-1 $27 #
body $-1 $28 $-1 $29 #
lump $-1 $-1 $30 $0 #
transform $-1 1 0 0 0 1 0 0 0 1 67.471541489913633 36.945338044994308 11.84659193002552 1 rotate no_reflect no_shear #
lump $-1 $-1 $31 $1 #
transform $-1 1 0 0 0 1 0 0 0 1 67.471541489913633 36.945338044994308 11.84659193002552 1 rotate no_reflect no_shear #
lump $-1 $-1 $32 $2 #
transform $-1 1 0 0 0 1 0 0 0 1 67.471541489913633 36.945338044994308 11.84659193002552 1 rotate no_reflect no_shear #
lump $-1 $-1 $33 $3 #
transform $-1 1 0 0 0 1 0 0 0 1 67.471541489913633 36.945338044994308 11.84659193002552 1 rotate no_reflect no_shear #
lump $-1 $-1 $34 $4 #
transform $-1 1 0 0 0 1 0 0 0 1 67.471541489913633 36.945338044994308 11.84659193002552 1 rotate no_reflect no_shear #
lump $-1 $-1 $35 $5 #
transform $-1 1 0 0 0 1 0 0 0 1 67.471541489913633 36.945338044994308 11.84659193002552 1 rotate no_reflect no_shear #
lump $-1 $-1 $36 $6 #
transform $-1 1 0 0 0 1 0 0 0 1 67.471541489913633 36.945338044994308 11.84659193002552 1 rotate no_reflect no_shear #
lump $-1 $-1 $37 $7 #
transform $-1 1 0 0 0 1 0 0 0 1 67.471541489913633 36.945338044994308 11.84659193002552 1 rotate no_reflect no_shear #
lump $-1 $-1 $38 $8 #
transform $-1 1 0 0 0 1 0 0 0 1 67.471541489913633 36.945338044994308 11.84659193002552 1 rotate no_reflect no_shear #
lump $-1 $-1 $39 $9 #
transform $-1 1 0 0 0 1 0 0 0 1 67.471541489913633 36.945338044994308 11.84659193002552 1 rotate no_reflect no_shear #
shell $-1 $-1 $-1 $40 $-1 $10 #
shell $-1 $-1 $-1 $41 $-1 $12 #
shell $-1 $-1 $-1 $42 $-1 $14 #
shell $-1 $-1 $-1 $43 $-1 $16 #
shell $-1 $-1 $-1 $44 $-1 $18 #
shell $-1 $-1 $-1 $45 $-1 $20 #
shell $-1 $-1 $-1 $46 $-1 $22 #
shell $-1 $-1 $-1 $47 $-1 $24 #
shell $-1 $-1 $-1 $48 $-1 $26 #
shell $-1 $-1 $-1 $49 $-1 $28 #
face $-1 $50 $51 $30 $-1 $52 forward single #
face $-1 $53 $54 $31 $-1 $55 forward single #
face $-1 $56 $57 $32 $-1 $58 reversed single #
face $-1 $59 $60 $33 $-1 $61 forward single #
face $-1 $62 $63 $34 $-1 $64 reversed single #
face $-1 $65 $66 $35 $-1 $67 forward single #
face $-1 $68 $69 $36 $-1 $70 forward single #
face $-1 $71 $72 $37 $-1 $73 reversed single #
face $-1 $74 $75 $38 $-1 $76 forward single #
face $-1 $77 $78 $39 $-1 $79 forward single #
face $-1 $80 $81 $30 $-1 $82 reversed single #
loop $-1 $-1 $83 $40 #
plane-surface $-1 0 0 11.84659193002552 0 0 1 1 0 0 forward_v I I I I #
face $-1 $84 $85 $31 $-1 $86 reversed single #
loop $-1 $-1 $87 $41 #
plane-surface $-1 -62.060074551953022 0 9.7278929838788226 0 0 1 1 0 0 forward_v I I I I #
face $-1 $88 $89 $32 $-1 $90 reversed single #
loop $-1 $-1 $91 $42 #
plane-surface $-1 4.6678223420584928 69.709966488532501 158.56049839477811 1 0 0 0 -0.6560590369687036 -0.75470957328743171 forward_v I I I I #
face $-1 $92 $93 $33 $-1 $94 forward single #
loop $-1 $95 $96 $43 #
cone-surface $-1 22.290747104275269 34.110243485952289 9.1681156132700963 0 -0.6560590369687036 -0.75470957328743171 1 0 0 1 I I 0 1 1 forward I I I I #
face $-1 $97 $98 $34 $-1 $99 reversed single #
loop $-1 $-1 $100 $44 #
plane-surface $-1 -7.808282447705075 -106.44616464987777 118.65104972762684 -1 0 0 0 -0.51503808176128008 0.85716729658548041 forward_v I I I I #
face $-1 $101 $102 $35 $-1 $103 forward single #
loop $-1 $104 $105 $45 #
cone-surface $-1 -26.657586947001334 -28.747960266684238 6.0480345076618125 0 0.51503808176128008 -0.85716729658548041 3 0 0 1 I I 0 1 3 forward I I I I #
face $-1 $106 $107 $36 $-1 $108 forward single #
loop $-1 $109 $110 $46 #
cone-surface $-1 -15.348004247423582 -28.747960266684238 6.0480345076618125 0 0.51503808176128008 -0.85716729658548041 3 0 0 1 I I 0 1 3 forward I I I I #
face $-1 $111 $112 $37 $-1 $113 reversed single #
loop $-1 $-1 $114 $47 #
plane-surface $-1 54.251792104247947 -106.44616464987777 118.65104972762684 -1 0 0 0 -0.51503808176128008 0.85716729658548041 forward_v I I I I #
face $-1 $115 $116 $38 $-1 $117 forward single #
loop $-1 $118 $119 $48 #
cone-surface $-1 35.402487604951673 -28.747960266684238 6.0480345076618125 0 0.51503808176128008 -0.85716729658548041 3 0 0 1 I I 0 1 3 forward I I I I #
face $-1 $120 $121 $39 $-1 $122 forward single #
loop $-1 $123 $124 $49 #
cone-surface $-1 46.712070304529433 -28.747960266684238 6.0480345076618125 0 0.51503808176128008 -0.85716729658548041 3 0 0 1 I I 0 1 3 forward I I I I #
face $-1 $125 $126 $30 $-1 $127 reversed single #
loop $-1 $-1 $128 $50 #
plane-surface $-1 0 0 -11.84659193002552 0 0 1 1 0 0 forward_v I I I I #
coedge $-1 $129 $130 $131 $132 forward $51 $-1 #
face $-1 $133 $134 $31 $-1 $135 reversed single #
loop $-1 $-1 $136 $53 #
plane-surface $-1 -62.060074551953022 0 5.3727058838246986 0 0 1 1 0 0 forward_v I I I I #
coedge $-1 $137 $138 $139 $140 forward $54 $-1 #
face $-1 $141 $142 $32 $-1 $143 reversed single #
loop $-1 $-1 $144 $56 #
plane-surface $-1 22.290747104275269 -18.820662576800828 56.717661820982187 0 0.6560590369687036 0.75470957328743171 1 0 0 forward_v I I I I #
coedge $-1 $145 $146 $147 $148 reversed $57 $-1 #
face $-1 $-1 $149 $33 $-1 $150 forward single #
loop $-1 $151 $152 $59 #
cone-surface $-1 22.290747104275269 33.020989669972543 7.9150724626747984 0 -0.6560590369687036 -0.75470957328743171 0.5 0 0 1 I I -0.70710678118654746 0.70710678118654746 0.5 forward I I I I #
loop $-1 $-1 $153 $43 #
coedge $-1 $96 $96 $154 $155 reversed $60 $-1 #
face $-1 $156 $157 $34 $-1 $158 reversed single #
loop $-1 $-1 $159 $62 #
plane-surface $-1 -21.002795597212454 -36.945338044994301 2.9822520968981507 0 -0.51503808176128008 0.85716729658548041 1 0 0 forward_v I I I I #
coedge $-1 $160 $161 $162 $163 reversed $63 $-1 #
face $-1 $-1 $164 $35 $-1 $165 forward single #
loop $-1 $166 $167 $65 #
cone-surface $-1 -26.657586947001334 -27.154394686611461 3.3958960569835686 0 0.51503808176128008 -0.85716729658548041 1.5 0 0 1 I I -0.70710678118654757 0.70710678118654757 1.5 forward I I I I #
loop $-1 $-1 $168 $45 #
coedge $-1 $105 $105 $169 $170 reversed $66 $-1 #
face $-1 $-1 $171 $36 $-1 $172 forward single #
loop $-1 $173 $174 $68 #
cone-surface $-1 -15.348004247423582 -27.154394686611461 3.3958960569835686 0 0.51503808176128008 -0.85716729658548041 1.5 0 0 1 I I -0.70710678118654757 0.70710678118654757 1.5 forward I I I I #
loop $-1 $-1 $175 $46 #
coedge $-1 $110 $110 $176 $177 reversed $69 $-1 #
face $-1 $178 $179 $37 $-1 $180 reversed single #
loop $-1 $-1 $181 $71 #
plane-surface $-1 41.057278954740568 -36.945338044994301 2.9822520968981507 0 -0.51503808176128008 0.85716729658548041 1 0 0 forward_v I I I I #
coedge $-1 $182 $183 $184 $185 reversed $72 $-1 #
face $-1 $-1 $186 $38 $-1 $187 forward single #
loop $-1 $188 $189 $74 #
cone-surface $-1 35.402487604951673 -27.154394686611461 3.3958960569835686 0 0.51503808176128008 -0.85716729658548041 1.5 0 0 1 I I -0.70710678118654757 0.70710678118654757 1.5 forward I I I I #
loop $-1 $-1 $190 $48 #
coedge $-1 $119 $119 $191 $192 reversed $75 $-1 #
face $-1 $-1 $193 $39 $-1 $194 forward single #
loop $-1 $195 $196 $77 #
cone-surface $-1 46.712070304529433 -27.154394686611461 3.3958960569835686 0 0.51503808176128008 -0.85716729658548041 1.5 0 0 1 I I -0.70710678118654757 0.70710678118654757 1.5 forward I I I I #
loop $-1 $-1 $197 $49 #
coedge $-1 $124 $124 $198 $199 reversed $78 $-1 #
face $-1 $200 $201 $30 $-1 $202 reversed single #
loop $-1 $-1 $203 $80 #
plane-surface $-1 0 -36.945338044994308 0 0 1 0 0 0 1 forward_v I I I I #
coedge $-1 $204 $205 $206 $207 forward $81 $-1 #
coedge $-1 $208 $83 $209 $210 forward $51 $-1 #
coedge $-1 $83 $208 $211 $212 forward $51 $-1 #
coedge $-1 $213 $214 $83 $132 reversed $215 $-1 #
edge $-1 $216 -36.945338044994308 $217 36.945338044994308 $131 $218 forward 7 unknown #
face $-1 $219 $220 $31 $-1 $221 reversed single #
loop $-1 $-1 $222 $84 #
plane-surface $-1 -56.648607613992411 0 7.5502994338517606 -1 0 0 0 0 1 forward_v I I I I #
coedge $-1 $223 $224 $225 $226 forward $85 $-1 #
coedge $-1 $227 $87 $228 $229 reversed $54 $-1 #
coedge $-1 $87 $227 $230 $231 reversed $54 $-1 #
coedge $-1 $222 $232 $87 $140 reversed $134 $-1 #
edge $-1 $233 -36.945338044994308 $234 36.945338044994308 $139 $235 forward 7 unknown #
face $-1 $236 $237 $32 $-1 $238 forward single #
loop $-1 $-1 $239 $88 #
plane-surface $-1 39.913671866492045 69.709966488532501 158.56049839477811 -1 0 0 0 0.6560590369687036 0.75470957328743171 forward_v I I I I #
coedge $-1 $240 $241 $242 $243 reversed $89 $-1 #
coedge $-1 $146 $91 $244 $245 reversed $57 $-1 #
coedge $-1 $91 $145 $240 $246 reversed $57 $-1 #
coedge $-1 $242 $247 $91 $148 forward $237 $-1 #
edge $-1 $248 -2.0903548007280577 $249 2.0573857223651686 $147 $250 forward 7 unknown #
loop $-1 $-1 $154 $92 #
plane-surface $-1 22.290747104275269 -18.820662576800828 56.717661820982187 0 0.6560590369687036 0.75470957328743171 1 0 0 forward_v I I I I #
loop $-1 $-1 $251 $59 #
coedge $-1 $152 $152 $153 $252 reversed $93 $-1 #
coedge $-1 $153 $153 $152 $252 forward $95 $-1 #
coedge $-1 $154 $154 $96 $155 forward $149 $-1 #
edge $-1 $253 1.1653949573696984e-015 $253 6.2831853071796013 $154 $254 forward 7 unknown #
face $-1 $255 $256 $34 $-1 $257 reversed single #
loop $-1 $-1 $258 $97 #
plane-surface $-1 -34.197308746719834 -106.44616464987777 118.65104972762684 1 0 0 0 0.51503808176128008 -0.85716729658548041 forward_v I I I I #
coedge $-1 $259 $260 $261 $262 reversed $98 $-1 #
coedge $-1 $161 $100 $263 $264 reversed $63 $-1 #
coedge $-1 $100 $160 $259 $265 reversed $63 $-1 #
coedge $-1 $261 $266 $100 $163 forward $267 $-1 #
edge $-1 $268 16.277744279944578 $269 31.030482921703019 $162 $270 forward 7 unknown #
loop $-1 $-1 $169 $101 #
plane-surface $-1 -21.002795597212454 -36.945338044994301 2.9822520968981507 0 -0.51503808176128008 0.85716729658548041 1 0 0 forward_v I I I I #
loop $-1 $-1 $271 $65 #
coedge $-1 $167 $167 $168 $272 reversed $102 $-1 #
coedge $-1 $168 $168 $167 $272 forward $104 $-1 #
coedge $-1 $169 $169 $105 $170 forward $164 $-1 #
edge $-1 $273 -8.1032476094880763e-016 $273 6.2831853071795996 $169 $274 forward 7 unknown #
loop $-1 $-1 $176 $106 #
plane-surface $-1 -21.002795597212454 -36.945338044994301 2.9822520968981507 0 -0.51503808176128008 0.85716729658548041 1 0 0 forward_v I I I I #
loop $-1 $-1 $275 $68 #
coedge $-1 $174 $174 $175 $276 reversed $107 $-1 #
coedge $-1 $175 $175 $174 $276 forward $109 $-1 #
coedge $-1 $176 $176 $110 $177 forward $171 $-1 #
edge $-1 $277 -8.1032476094880763e-016 $277 6.2831853071795996 $176 $278 forward 7 unknown #
face $-1 $279 $280 $37 $-1 $281 reversed single #
loop $-1 $-1 $282 $111 #
plane-surface $-1 27.862765805233188 -106.44616464987777 118.65104972762684 1 0 0 0 0.51503808176128008 -0.85716729658548041 forward_v I I I I #
coedge $-1 $283 $284 $285 $286 reversed $112 $-1 #
coedge $-1 $183 $114 $287 $288 reversed $72 $-1 #
coedge $-1 $114 $182 $283 $289 reversed $72 $-1 #
coedge $-1 $285 $290 $114 $185 forward $291 $-1 #
edge $-1 $292 16.277744279944578 $293 31.030482921703019 $184 $294 forward 7 unknown #
loop $-1 $-1 $191 $115 #
plane-surface $-1 41.057278954740568 -36.945338044994301 2.9822520968981507 0 -0.51503808176128008 0.85716729658548041 1 0 0 forward_v I I I I #
loop $-1 $-1 $295 $74 #
coedge $-1 $189 $189 $190 $296 reversed $116 $-1 #
coedge $-1 $190 $190 $189 $296 forward $118 $-1 #
coedge $-1 $191 $191 $119 $192 forward $186 $-1 #
edge $-1 $297 -8.1032476094880763e-016 $297 6.2831853071795996 $191 $298 forward 7 unknown #
loop $-1 $-1 $198 $120 #
plane-surface $-1 41.057278954740568 -36.945338044994301 2.9822520968981507 0 -0.51503808176128008 0.85716729658548041 1 0 0 forward_v I I I I #
loop $-1 $-1 $299 $77 #
coedge $-1 $196 $196 $197 $300 reversed $121 $-1 #
coedge $-1 $197 $197 $196 $300 forward $123 $-1 #
coedge $-1 $198 $198 $124 $199 forward $193 $-1 #
edge $-1 $301 -8.1032476094880763e-016 $301 6.2831853071795996 $198 $302 forward 7 unknown #
face $-1 $303 $304 $30 $-1 $305 reversed single #
loop $-1 $-1 $306 $125 #
plane-surface $-1 -67.471541489913633 0 0 1 0 0 0 0 -1 forward_v I I I I #
coedge $-1 $307 $211 $308 $309 forward $126 $-1 #
coedge $-1 $310 $128 $307 $311 forward $81 $-1 #
coedge $-1 $128 $310 $312 $313 forward $81 $-1 #
coedge $-1 $214 $213 $128 $207 reversed $215 $-1 #
edge $-1 $314 -36.945338044994308 $315 36.945338044994308 $206 $316 forward 7 unknown #
coedge $-1 $130 $129 $317 $318 forward $51 $-1 #
coedge $-1 $319 $320 $129 $210 reversed $304 $-1 #
edge $-1 $217 -67.471541489913633 $321 67.471541489913633 $209 $322 forward 7 unknown #
coedge $-1 $203 $323 $130 $212 reversed $126 $-1 #
edge $-1 $324 -67.471541489913633 $216 67.471541489913633 $211 $325 forward 7 unknown #
coedge $-1 $206 $131 $323 $326 forward $215 $-1 #
coedge $-1 $131 $206 $319 $327 reversed $215 $-1 #
loop $-1 $-1 $213 $303 #
vertex $-1 $132 $328 #
vertex $-1 $132 $329 #
straight-curve $-1 67.471541489913633 0 11.84659193002552 0 1 0 I I #
face $-1 $330 $331 $31 $-1 $332 reversed single #
loop $-1 $-1 $333 $133 #
plane-surface $-1 0 -36.945338044994308 0 0 1 0 0 0 1 forward_v I I I I #
coedge $-1 $225 $139 $334 $335 reversed $134 $-1 #
coedge $-1 $336 $136 $333 $337 reversed $85 $-1 #
coedge $-1 $136 $336 $338 $339 reversed $85 $-1 #
coedge $-1 $232 $222 $136 $226 reversed $134 $-1 #
edge $-1 $340 -36.945338044994308 $341 36.945338044994308 $225 $342 forward 7 unknown #
coedge $-1 $138 $137 $343 $344 reversed $54 $-1 #
coedge $-1 $345 $346 $137 $229 forward $347 $-1 #
edge $-1 $348 -36.441504213937122 $234 -25.6185703380159 $228 $349 forward 7 unknown #
coedge $-1 $350 $334 $138 $231 forward $220 $-1 #
edge $-1 $233 25.6185703380159 $351 36.441504213937122 $230 $352 forward 7 unknown #
coedge $-1 $139 $225 $345 $353 reversed $134 $-1 #
vertex $-1 $231 $354 #
vertex $-1 $229 $355 #
straight-curve $-1 -56.648607613992411 0 9.7278929838788226 0 1 0 I I #
face $-1 $-1 $356 $32 $-1 $357 reversed single #
loop $-1 $-1 $147 $141 #
plane-surface $-1 0 0 11.84659193002552 0 0 1 1 0 0 forward_v I I I I #
coedge $-1 $358 $359 $360 $361 reversed $142 $-1 #
coedge $-1 $362 $144 $146 $246 forward $89 $-1 #
coedge $-1 $144 $362 $358 $363 forward $89 $-1 #
coedge $-1 $360 $147 $144 $243 forward $237 $-1 #
edge $-1 $249 -6.4775512100791417 $364 28.768298314354411 $242 $365 forward 7 unknown #
coedge $-1 $366 $367 $145 $245 forward $356 $-1 #
edge $-1 $368 -71.039233172971194 $248 -67.433657267363529 $244 $369 forward 7 unknown #
edge $-1 $249 68.394865953347406 $368 73.890676089988602 $146 $370 forward 7 unknown #
coedge $-1 $147 $360 $366 $371 forward $237 $-1 #
vertex $-1 $245 $372 #
vertex $-1 $148 $373 #
straight-curve $-1 4.6678223420584928 34.854983244266251 11.846591930025525 0 -1 0 I I #
coedge $-1 $251 $251 $-1 $374 reversed $151 $-1 #
edge $-1 $375 0 $375 6.2831853071796004 $152 $376 forward 7 unknown #
vertex $-1 $155 $377 #
ellipse-curve $-1 22.290747104275269 34.871467783447684 10.04380397722168 0 0.6560590369687036 0.75470957328743171 1 0 0 1 I I #
face $-1 $-1 $267 $34 $-1 $378 forward single #
loop $-1 $-1 $379 $156 #
plane-surface $-1 0 -36.945338044994308 0 0 1 0 0 0 1 forward_v I I I I #
coedge $-1 $380 $381 $382 $383 reversed $157 $-1 #
coedge $-1 $384 $159 $161 $265 forward $98 $-1 #
coedge $-1 $159 $384 $380 $385 forward $98 $-1 #
coedge $-1 $382 $162 $159 $262 forward $267 $-1 #
edge $-1 $269 -2.6931153509011523 $386 23.695910948113607 $261 $387 forward 7 unknown #
coedge $-1 $388 $389 $160 $264 forward $256 $-1 #
edge $-1 $390 -56.343272766915277 $268 -47.478932933787902 $263 $391 forward 7 unknown #
edge $-1 $269 -17.211037682522253 $390 8.3777685069199533e-015 $161 $392 forward 7 unknown #
coedge $-1 $162 $382 $388 $393 forward $267 $-1 #
loop $-1 $-1 $382 $255 #
vertex $-1 $264 $394 #
vertex $-1 $163 $395 #
straight-curve $-1 -7.808282447705075 -53.223082324938886 11.846591930025518 0 1 0 I I #
coedge $-1 $271 $271 $-1 $396 reversed $166 $-1 #
edge $-1 $397 0 $397 6.2831853071796004 $167 $398 forward 7 unknown #
vertex $-1 $170 $399 #
ellipse-curve $-1 -26.657586947001334 -29.568968724115091 7.4144220134618299 0 -0.51503808176128008 0.85716729658548041 3 0 0 1 I I #
coedge $-1 $275 $275 $-1 $400 reversed $173 $-1 #
edge $-1 $401 0 $401 6.2831853071796004 $174 $402 forward 7 unknown #
vertex $-1 $177 $403 #
ellipse-curve $-1 -15.348004247423582 -29.568968724115091 7.4144220134618299 0 -0.51503808176128008 0.85716729658548041 3 0 0 1 I I #
face $-1 $-1 $291 $37 $-1 $404 forward single #
loop $-1 $-1 $405 $178 #
plane-surface $-1 0 -36.945338044994308 0 0 1 0 0 0 1 forward_v I I I I #
coedge $-1 $406 $407 $408 $409 reversed $179 $-1 #
coedge $-1 $410 $181 $183 $289 forward $112 $-1 #
coedge $-1 $181 $410 $406 $411 forward $112 $-1 #
coedge $-1 $408 $184 $181 $286 forward $291 $-1 #
edge $-1 $293 -33.723152626877663 $412 -7.3341263278629043 $285 $413 forward 7 unknown #
coedge $-1 $414 $415 $182 $288 forward $280 $-1 #
edge $-1 $416 -56.343272766915277 $292 -47.478932933787902 $287 $417 forward 7 unknown #
edge $-1 $293 -17.211037682522253 $416 8.3777685069199533e-015 $183 $418 forward 7 unknown #
coedge $-1 $184 $408 $414 $419 forward $291 $-1 #
loop $-1 $-1 $408 $279 #
vertex $-1 $288 $420 #
vertex $-1 $185 $421 #
straight-curve $-1 54.251792104247947 -53.223082324938886 11.846591930025518 0 1 0 I I #
coedge $-1 $295 $295 $-1 $422 reversed $188 $-1 #
edge $-1 $423 0 $423 6.2831853071796004 $189 $424 forward 7 unknown #
vertex $-1 $192 $425 #
ellipse-curve $-1 35.402487604951673 -29.568968724115091 7.4144220134618299 0 -0.51503808176128008 0.85716729658548041 3 0 0 1 I I #
coedge $-1 $299 $299 $-1 $426 reversed $195 $-1 #
edge $-1 $427 0 $427 6.2831853071796004 $196 $428 forward 7 unknown #
vertex $-1 $199 $429 #
ellipse-curve $-1 46.712070304529433 -29.568968724115091 7.4144220134618299 0 -0.51503808176128008 0.85716729658548041 3 0 0 1 I I #
face $-1 $-1 $215 $30 $-1 $430 reversed single #
loop $-1 $-1 $319 $200 #
plane-surface $-1 0 36.945338044994308 0 0 -1 0 0 0 -1 forward_v I I I I #
coedge $-1 $431 $317 $320 $432 forward $201 $-1 #
coedge $-1 $323 $203 $204 $311 reversed $126 $-1 #
coedge $-1 $317 $431 $203 $309 reversed $201 $-1 #
edge $-1 $324 -11.84659193002552 $433 11.84659193002552 $308 $434 forward 7 unknown #
coedge $-1 $205 $204 $431 $435 forward $81 $-1 #
edge $-1 $315 -67.471541489913633 $433 67.471541489913633 $307 $436 forward 7 unknown #
coedge $-1 $320 $319 $205 $313 reversed $304 $-1 #
edge $-1 $437 -67.471541489913633 $314 67.471541489913633 $312 $438 forward 7 unknown #
vertex $-1 $207 $439 #
vertex $-1 $326 $440 #
straight-curve $-1 67.471541489913633 0 -11.84659193002552 0 -1 0 I I #
coedge $-1 $306 $308 $208 $318 reversed $201 $-1 #
edge $-1 $321 -36.945338044994308 $324 36.945338044994308 $317 $441 forward 7 unknown #
coedge $-1 $312 $209 $214 $327 forward $304 $-1 #
coedge $-1 $209 $312 $306 $432 reversed $304 $-1 #
vertex $-1 $210 $442 #
straight-curve $-1 0 36.945338044994308 11.84659193002552 -1 0 0 I I #
coedge $-1 $211 $307 $213 $326 reversed $126 $-1 #
vertex $-1 $318 $443 #
straight-curve $-1 0 -36.945338044994308 11.84659193002552 1 0 0 I I #
edge $-1 $216 -11.84659193002552 $315 11.84659193002552 $213 $444 forward 7 unknown #
edge $-1 $217 -11.84659193002552 $314 11.84659193002552 $214 $445 forward 7 unknown #
point $-1 67.471541489913633 -36.945338044994308 11.84659193002552 #
point $-1 67.471541489913633 36.945338044994308 11.84659193002552 #
face $-1 $-1 $347 $31 $-1 $446 reversed single #
loop $-1 $-1 $447 $219 #
plane-surface $-1 -67.471541489913633 0 0 1 0 0 0 0 -1 forward_v I I I I #
coedge $-1 $334 $350 $223 $337 forward $220 $-1 #
coedge $-1 $230 $333 $222 $335 forward $220 $-1 #
edge $-1 $341 1.5975561668988183 $233 5.9527432669529423 $334 $448 forward 7 unknown #
coedge $-1 $224 $223 $447 $449 reversed $85 $-1 #
edge $-1 $450 -36.441504213937122 $341 -25.6185703380159 $333 $451 forward 7 unknown #
coedge $-1 $346 $345 $224 $339 forward $347 $-1 #
edge $-1 $340 25.6185703380159 $452 36.441504213937122 $338 $453 forward 7 unknown #
vertex $-1 $339 $454 #
vertex $-1 $337 $455 #
straight-curve $-1 -56.648607613992411 0 5.3727058838246986 0 -1 0 I I #
coedge $-1 $456 $457 $227 $344 forward $331 $-1 #
edge $-1 $351 -36.945338044994308 $348 36.945338044994308 $343 $458 forward 7 unknown #
coedge $-1 $338 $228 $232 $353 forward $347 $-1 #
coedge $-1 $228 $338 $456 $459 reversed $347 $-1 #
loop $-1 $-1 $338 $330 #
vertex $-1 $459 $460 #
straight-curve $-1 -31.030037275976511 36.945338044994308 9.7278929838788226 1 0 0 I I #
coedge $-1 $333 $230 $457 $461 forward $220 $-1 #
vertex $-1 $461 $462 #
straight-curve $-1 -31.030037275976511 -36.945338044994308 9.7278929838788226 -1 0 0 I I #
edge $-1 $234 -5.9527432669529423 $340 -1.5975561668988183 $345 $463 forward 7 unknown #
point $-1 -56.648607613992411 -36.945338044994308 9.7278929838788226 #
point $-1 -56.648607613992411 36.945338044994308 9.7278929838788226 #
loop $-1 $-1 $244 $236 #
plane-surface $-1 0 36.945338044994308 0 0 -1 0 0 0 -1 forward_v I I I I #
coedge $-1 $359 $239 $241 $363 reversed $142 $-1 #
coedge $-1 $239 $358 $464 $465 reversed $142 $-1 #
coedge $-1 $247 $242 $239 $361 forward $237 $-1 #
edge $-1 $364 -2.0573857223651686 $466 2.0903548007280577 $360 $467 forward 7 unknown #
coedge $-1 $241 $240 $367 $468 reversed $89 $-1 #
edge $-1 $469 -73.890676089988602 $364 -68.394865953347406 $358 $470 forward 7 unknown #
vertex $-1 $243 $471 #
straight-curve $-1 11.145373552137634 32.797597521901082 11.846591930025522 1 0 0 I I #
coedge $-1 $464 $244 $247 $371 reversed $356 $-1 #
coedge $-1 $244 $464 $362 $468 forward $356 $-1 #
vertex $-1 $245 $472 #
straight-curve $-1 4.6678223420584928 36.945338044994308 79.280249197389054 0 0 1 I I #
straight-curve $-1 4.6678223420584928 -18.820662576800828 56.717661820982187 0 0.75470957328743171 -0.6560590369687036 I I #
edge $-1 $466 -39.913671866492045 $248 -4.6678223420584928 $366 $473 forward 7 unknown #
point $-1 4.6678223420584928 36.945338044994308 11.84659193002552 #
point $-1 4.6678223420584928 32.797597521901082 11.846591930025511 #
edge $-1 $474 1 $474 0 $251 $-1 forward 7 unknown #
vertex $-1 $252 $475 #
ellipse-curve $-1 22.290747104275269 33.349019188456893 8.2924272493185143 0 0.6560590369687036 0.75470957328743171 1 0 0 1 I I #
point $-1 23.290747104275269 34.871467783447684 10.043803977221678 #
plane-surface $-1 0 0 11.84659193002552 0 0 1 1 0 0 forward_v I I I I #
coedge $-1 $389 $388 $381 $476 forward $256 $-1 #
coedge $-1 $381 $258 $260 $385 reversed $157 $-1 #
coedge $-1 $258 $380 $379 $476 reversed $157 $-1 #
coedge $-1 $266 $261 $258 $383 forward $267 $-1 #
edge $-1 $386 -31.030482921703019 $477 -16.277744279944578 $382 $478 forward 7 unknown #
coedge $-1 $260 $259 $389 $479 reversed $98 $-1 #
edge $-1 $480 -8.3777685069199533e-015 $386 17.211037682522253 $380 $481 forward 7 unknown #
vertex $-1 $262 $482 #
straight-curve $-1 -10.501397798606227 -22.192599403235867 11.84659193002552 -1 0 0 I I #
coedge $-1 $379 $263 $266 $393 reversed $256 $-1 #
coedge $-1 $263 $379 $384 $479 forward $256 $-1 #
vertex $-1 $264 $483 #
straight-curve $-1 -7.808282447705075 -36.945338044994308 59.32552486381342 0 0 1 I I #
straight-curve $-1 -7.808282447705075 -36.945338044994301 2.9822520968981507 0 -0.85716729658548041 -0.51503808176128008 I I #
edge $-1 $477 -34.197308746719834 $268 -7.808282447705075 $388 $484 forward 7 unknown #
point $-1 -7.808282447705075 -36.945338044994308 11.84659193002552 #
point $-1 -7.808282447705075 -22.192599403235867 11.84659193002552 #
edge $-1 $485 1 $485 0 $271 $-1 forward 7 unknown #
vertex $-1 $272 $486 #
ellipse-curve $-1 -26.657586947001334 -27.926951809253381 4.6816470018617888 0 -0.51503808176128008 0.85716729658548041 3 0 0 1 I I #
point $-1 -23.657586947001334 -29.568968724115098 7.414422013461837 #
edge $-1 $487 1 $487 0 $275 $-1 forward 7 unknown #
vertex $-1 $276 $488 #
ellipse-curve $-1 -15.348004247423582 -27.926951809253381 4.6816470018617888 0 -0.51503808176128008 0.85716729658548041 3 0 0 1 I I #
point $-1 -12.348004247423582 -29.568968724115098 7.414422013461837 #
plane-surface $-1 0 0 11.84659193002552 0 0 1 1 0 0 forward_v I I I I #
coedge $-1 $415 $414 $407 $489 forward $280 $-1 #
coedge $-1 $407 $282 $284 $411 reversed $179 $-1 #
coedge $-1 $282 $406 $405 $489 reversed $179 $-1 #
coedge $-1 $290 $285 $282 $409 forward $291 $-1 #
edge $-1 $412 -31.030482921703019 $490 -16.277744279944578 $408 $491 forward 7 unknown #
coedge $-1 $284 $283 $415 $492 reversed $112 $-1 #
edge $-1 $493 -8.3777685069199533e-015 $412 17.211037682522253 $406 $494 forward 7 unknown #
vertex $-1 $286 $495 #
straight-curve $-1 20.528639477370284 -22.192599403235867 11.84659193002552 -1 0 0 I I #
coedge $-1 $405 $287 $290 $419 reversed $280 $-1 #
coedge $-1 $287 $405 $410 $492 forward $280 $-1 #
vertex $-1 $288 $496 #
straight-curve $-1 54.251792104247947 -36.945338044994308 59.32552486381342 0 0 1 I I #
straight-curve $-1 54.251792104247947 -36.945338044994301 2.9822520968981507 0 -0.85716729658548041 -0.51503808176128008 I I #
edge $-1 $490 27.862765805233188 $292 54.251792104247947 $414 $497 forward 7 unknown #
point $-1 54.251792104247947 -36.945338044994308 11.84659193002552 #
point $-1 54.251792104247947 -22.192599403235867 11.84659193002552 #
edge $-1 $498 1 $498 0 $295 $-1 forward 7 unknown #
vertex $-1 $296 $499 #
ellipse-curve $-1 35.402487604951673 -27.926951809253381 4.6816470018617888 0 -0.51503808176128008 0.85716729658548041 3 0 0 1 I I #
point $-1 38.402487604951673 -29.568968724115098 7.414422013461837 #
edge $-1 $500 1 $500 0 $299 $-1 forward 7 unknown #
vertex $-1 $300 $501 #
ellipse-curve $-1 46.712070304529433 -27.926951809253381 4.6816470018617888 0 -0.51503808176128008 0.85716729658548041 3 0 0 1 I I #
point $-1 49.712070304529433 -29.568968724115098 7.414422013461837 #
plane-surface $-1 67.471541489913633 0 0 -1 0 0 0 0 1 forward_v I I I I #
coedge $-1 $308 $306 $310 $435 reversed $201 $-1 #
edge $-1 $321 -11.84659193002552 $437 11.84659193002552 $320 $502 forward 7 unknown #
vertex $-1 $435 $503 #
straight-curve $-1 -67.471541489913633 -36.945338044994308 0 0 0 -1 I I #
edge $-1 $433 -36.945338044994308 $437 36.945338044994308 $431 $504 forward 7 unknown #
straight-curve $-1 0 -36.945338044994308 -11.84659193002552 -1 0 0 I I #
vertex $-1 $313 $505 #
straight-curve $-1 0 36.945338044994308 -11.84659193002552 1 0 0 I I #
point $-1 67.471541489913633 36.945338044994308 -11.84659193002552 #
point $-1 67.471541489913633 -36.945338044994308 -11.84659193002552 #
straight-curve $-1 -67.471541489913633 0 11.84659193002552 0 -1 0 I I #
point $-1 -67.471541489913633 36.945338044994308 11.84659193002552 #
point $-1 -67.471541489913633 -36.945338044994308 11.84659193002552 #
straight-curve $-1 67.471541489913633 -36.945338044994308 0 0 0 -1 I I #
straight-curve $-1 67.471541489913633 36.945338044994308 0 0 0 -1 I I #
plane-surface $-1 0 36.945338044994308 0 0 -1 0 0 0 -1 forward_v I I I I #
coedge $-1 $457 $456 $336 $449 forward $331 $-1 #
straight-curve $-1 -56.648607613992411 -36.945338044994308 3.7751497169258803 0 0 1 I I #
edge $-1 $452 -36.945338044994308 $450 36.945338044994308 $447 $506 forward 7 unknown #
vertex $-1 $337 $507 #
straight-curve $-1 -31.030037275976511 -36.945338044994308 5.3727058838246986 1 0 0 I I #
vertex $-1 $339 $508 #
straight-curve $-1 -31.030037275976511 36.945338044994308 5.3727058838246986 -1 0 0 I I #
point $-1 -56.648607613992411 36.945338044994308 5.3727058838246986 #
point $-1 -56.648607613992411 -36.945338044994308 5.3727058838246986 #
coedge $-1 $447 $343 $346 $459 forward $331 $-1 #
coedge $-1 $343 $447 $350 $461 reversed $331 $-1 #
straight-curve $-1 -67.471541489913633 0 9.7278929838788226 0 1 0 I I #
edge $-1 $348 -9.7278929838788226 $452 -5.3727058838246986 $346 $509 forward 7 unknown #
point $-1 -67.471541489913633 36.945338044994308 9.7278929838788226 #
edge $-1 $351 -9.7278929838788226 $450 -5.3727058838246986 $457 $510 forward 7 unknown #
point $-1 -67.471541489913633 -36.945338044994308 9.7278929838788226 #
straight-curve $-1 -56.648607613992411 36.945338044994308 3.7751497169258803 0 0 -1 I I #
coedge $-1 $367 $366 $359 $465 forward $356 $-1 #
edge $-1 $466 67.433657267363529 $469 71.039233172971194 $464 $511 forward 7 unknown #
vertex $-1 $371 $512 #
straight-curve $-1 39.913671866492045 34.854983244266251 11.846591930025525 0 1 0 I I #
edge $-1 $469 -28.768298314354411 $368 6.4775512100791417 $367 $513 forward 7 unknown #
vertex $-1 $468 $514 #
straight-curve $-1 39.913671866492045 -18.820662576800828 56.717661820982187 0 -0.75470957328743171 0.6560590369687036 I I #
point $-1 39.913671866492045 32.797597521901082 11.846591930025511 #
point $-1 4.6678223420584928 36.945338044994301 8.2410160244178527 #
straight-curve $-1 0 36.945338044994308 11.84659193002552 -1 0 0 I I #
vertex $-1 $374 $515 #
point $-1 23.290747104275269 33.349019188456893 8.2924272493185143 #
edge $-1 $477 47.478932933787902 $480 56.343272766915277 $379 $516 forward 7 unknown #
vertex $-1 $393 $517 #
straight-curve $-1 -34.197308746719834 -53.223082324938886 11.846591930025518 0 -1 0 I I #
edge $-1 $480 -23.695910948113607 $390 2.6931153509011523 $389 $518 forward 7 unknown #
vertex $-1 $479 $519 #
straight-curve $-1 -34.197308746719834 -36.945338044994301 2.9822520968981507 0 0.85716729658548041 0.51503808176128008 I I #
point $-1 -34.197308746719834 -22.192599403235867 11.84659193002552 #
point $-1 -7.808282447705075 -36.945338044994308 2.9822520968981463 #
straight-curve $-1 0 -36.945338044994308 11.84659193002552 1 0 0 I I #
vertex $-1 $396 $520 #
point $-1 -23.657586947001334 -27.926951809253381 4.6816470018617888 #
vertex $-1 $400 $521 #
point $-1 -12.348004247423582 -27.926951809253381 4.6816470018617888 #
edge $-1 $490 47.478932933787902 $493 56.343272766915277 $405 $522 forward 7 unknown #
vertex $-1 $419 $523 #
straight-curve $-1 27.862765805233188 -53.223082324938886 11.846591930025518 0 -1 0 I I #
edge $-1 $493 7.3341263278629043 $416 33.723152626877663 $415 $524 forward 7 unknown #
vertex $-1 $492 $525 #
straight-curve $-1 27.862765805233188 -36.945338044994301 2.9822520968981507 0 0.85716729658548041 0.51503808176128008 I I #
point $-1 27.862765805233188 -22.192599403235867 11.84659193002552 #
point $-1 54.251792104247947 -36.945338044994308 2.9822520968981463 #
straight-curve $-1 0 -36.945338044994308 11.84659193002552 1 0 0 I I #
vertex $-1 $422 $526 #
point $-1 38.402487604951673 -27.926951809253381 4.6816470018617888 #
vertex $-1 $426 $527 #
point $-1 49.712070304529433 -27.926951809253381 4.6816470018617888 #
straight-curve $-1 -67.471541489913633 36.945338044994308 0 0 0 -1 I I #
point $-1 -67.471541489913633 -36.945338044994308 -11.84659193002552 #
straight-curve $-1 -67.471541489913633 0 -11.84659193002552 0 1 0 I I #
point $-1 -67.471541489913633 36.945338044994308 -11.84659193002552 #
straight-curve $-1 -67.471541489913633 0 5.3727058838246986 0 -1 0 I I #
point $-1 -67.471541489913633 -36.945338044994308 5.3727058838246986 #
point $-1 -67.471541489913633 36.945338044994308 5.3727058838246986 #
straight-curve $-1 -67.471541489913633 36.945338044994308 0 0 0 -1 I I #
straight-curve $-1 -67.471541489913633 -36.945338044994308 0 0 0 -1 I I #
straight-curve $-1 39.913671866492045 36.945338044994308 79.280249197389054 0 0 -1 I I #
point $-1 39.913671866492045 36.945338044994308 11.84659193002552 #
straight-curve $-1 11.145373552137634 36.945338044994308 8.2410160244178492 -1 0 0 I I #
point $-1 39.913671866492045 36.945338044994301 8.2410160244178527 #
point $-1 22.290747104275269 32.692960151488194 7.5377176760310824 #
straight-curve $-1 -34.197308746719834 -36.945338044994308 59.32552486381342 0 0 -1 I I #
point $-1 -34.197308746719834 -36.945338044994308 11.84659193002552 #
straight-curve $-1 -10.501397798606227 -36.945338044994308 2.982252096898145 1 0 0 I I #
point $-1 -34.197308746719834 -36.945338044994308 2.9822520968981463 #
point $-1 -26.657586947001334 -26.38183756396954 2.1101451121053478 #
point $-1 -15.348004247423582 -26.38183756396954 2.1101451121053478 #
straight-curve $-1 27.862765805233188 -36.945338044994308 59.32552486381342 0 0 -1 I I #
point $-1 27.862765805233188 -36.945338044994308 11.84659193002552 #
straight-curve $-1 20.528639477370284 -36.945338044994308 2.982252096898145 1 0 0 I I #
point $-1 27.862765805233188 -36.945338044994308 2.9822520968981463 #
point $-1 35.402487604951673 -26.38183756396954 2.1101451121053478 #
point $-1 46.712070304529433 -26.38183756396954 2.1101451121053478 #
End-of-ACIS-data 