500 0 11 0           
7 Unknown 11 ACIS 5.0 NT 24 Fri Mar 26 03:23:45 1999 
-1 9.9999999999999995e-007 1e-010 
body $-1 $11 $-1 $12 #
body $-1 $13 $-1 $14 #
body $-1 $15 $-1 $16 #
body $-1 $17 $-1 $18 #
body $-1 $19 $-1 $20 #
body $-1 $21 $-1 $22 #
body $-1 $23 $-1 $24 #
body $-1 $25 $-1 $26 #
body $-1 $27 $-1 $28 #
body $-1 $29 $-1 $30 #
body $-1 $31 $-1 $32 #
lump $-1 $-1 $33 $0 #
transform $-1 1 0 0 0 1 0 0 0 1 44.586321604052856 18.000262885566993 7.8367915974279496 1 rotate no_reflect no_shear #
lump $-1 $-1 $34 $1 #
transform $-1 1 0 0 0 1 0 0 0 1 44.586321604052856 18.000262885566993 7.8367915974279496 1 rotate no_reflect no_shear #
lump $-1 $-1 $35 $2 #
transform $-1 1 0 0 0 1 0 0 0 1 44.586321604052856 18.000262885566993 7.8367915974279496 1 rotate no_reflect no_shear #
lump $-1 $-1 $36 $3 #
transform $-1 1 0 0 0 1 0 0 0 1 44.586321604052856 18.000262885566993 7.8367915974279496 1 rotate no_reflect no_shear #
lump $-1 $-1 $37 $4 #
transform $-1 1 0 0 0 1 0 0 0 1 44.586321604052856 18.000262885566993 7.8367915974279496 1 rotate no_reflect no_shear #
lump $-1 $-1 $38 $5 #
transform $-1 1 0 0 0 1 0 0 0 1 44.586321604052856 18.000262885566993 7.8367915974279496 1 rotate no_reflect no_shear #
lump $-1 $-1 $39 $6 #
transform $-1 1 0 0 0 1 0 0 0 1 44.586321604052856 18.000262885566993 7.8367915974279496 1 rotate no_reflect no_shear #
lump $-1 $-1 $40 $7 #
transform $-1 1 0 0 0 1 0 0 0 1 44.586321604052856 18.000262885566993 7.8367915974279496 1 rotate no_reflect no_shear #
lump $-1 $-1 $41 $8 #
transform $-1 1 0 0 0 1 0 0 0 1 44.586321604052856 18.000262885566993 7.8367915974279496 1 rotate no_reflect no_shear #
lump $-1 $-1 $42 $9 #
transform $-1 1 0 0 0 1 0 0 0 1 44.586321604052856 18.000262885566993 7.8367915974279496 1 rotate no_reflect no_shear #
lump $-1 $-1 $43 $10 #
transform $-1 1 0 0 0 1 0 0 0 1 44.586321604052856 18.000262885566993 7.8367915974279496 1 rotate no_reflect no_shear #
shell $-1 $-1 $-1 $44 $-1 $11 #
shell $-1 $-1 $-1 $45 $-1 $13 #
shell $-1 $-1 $-1 $46 $-1 $15 #
shell $-1 $-1 $-1 $47 $-1 $17 #
shell $-1 $-1 $-1 $48 $-1 $19 #
shell $-1 $-1 $-1 $49 $-1 $21 #
shell $-1 $-1 $-1 $50 $-1 $23 #
shell $-1 $-1 $-1 $51 $-1 $25 #
shell $-1 $-1 $-1 $52 $-1 $27 #
shell $-1 $-1 $-1 $53 $-1 $29 #
shell $-1 $-1 $-1 $54 $-1 $31 #
face $-1 $55 $56 $33 $-1 $57 reversed single #
face $-1 $58 $59 $34 $-1 $60 forward single #
face $-1 $61 $62 $35 $-1 $63 reversed single #
face $-1 $64 $65 $36 $-1 $66 forward single #
face $-1 $67 $68 $37 $-1 $69 forward single #
face $-1 $70 $71 $38 $-1 $72 reversed single #
face $-1 $73 $74 $39 $-1 $75 forward single #
face $-1 $76 $77 $40 $-1 $78 forward single #
face $-1 $79 $80 $41 $-1 $81 reversed single #
face $-1 $82 $83 $42 $-1 $84 forward single #
face $-1 $85 $86 $43 $-1 $87 forward single #
face $-1 $88 $89 $33 $-1 $90 forward single #
loop $-1 $-1 $91 $44 #
plane-surface $-1 0 -18.000262885566993 0 0 1 0 0 0 1 forward_v I I I I #
face $-1 $92 $93 $34 $-1 $94 reversed single #
loop $-1 $-1 $95 $45 #
plane-surface $-1 0 -18.000262885566993 0 0 1 0 0 0 1 forward_v I I I I #
face $-1 $96 $97 $35 $-1 $98 reversed single #
loop $-1 $-1 $99 $46 #
plane-surface $-1 -105.40191875746962 -9.3050754033199787 66.717952705087498 0 1 0 -0.68199836817093118 0 0.7313536940579346 forward_v I I I I #
face $-1 $100 $101 $36 $-1 $102 forward single #
loop $-1 $103 $104 $47 #
cone-surface $-1 -40.743731346920192 -7.5951155409249225 4.1912062355146107 0.68199836817093118 0 -0.7313536940579346 0.3656768470289673 0 0.34099918408546559 1 I I 0 1 0.5 forward I I I I #
face $-1 $105 $106 $37 $-1 $107 forward single #
loop $-1 $108 $109 $48 #
cone-surface $-1 -40.743731346920192 -5.0301757473323399 4.1912062355146107 0.68199836817093118 0 -0.7313536940579346 0.3656768470289673 0 0.34099918408546559 1 I I 0 1 0.5 forward I I I I #
face $-1 $110 $111 $38 $-1 $112 reversed single #
loop $-1 $-1 $113 $49 #
plane-surface $-1 -105.40191875746962 0.41589863427605955 66.717952705087498 0 1 0 -0.68199836817093118 0 0.7313536940579346 forward_v I I I I #
face $-1 $114 $115 $39 $-1 $116 forward single #
loop $-1 $117 $118 $50 #
cone-surface $-1 -40.743731346920192 2.1258584966711176 4.1912062355146107 0.68199836817093118 0 -0.7313536940579346 0.3656768470289673 0 0.34099918408546559 1 I I 0 1 0.5 forward I I I I #
face $-1 $119 $120 $40 $-1 $121 forward single #
loop $-1 $122 $123 $51 #
cone-surface $-1 -40.743731346920192 4.6907982902636967 4.1912062355146107 0.68199836817093118 0 -0.7313536940579346 0.3656768470289673 0 0.34099918408546559 1 I I 0 1 0.5 forward I I I I #
face $-1 $124 $125 $41 $-1 $126 reversed single #
loop $-1 $-1 $127 $52 #
plane-surface $-1 -105.40191875746962 10.1368726718721 66.717952705087498 0 1 0 -0.68199836817093118 0 0.7313536940579346 forward_v I I I I #
face $-1 $128 $129 $42 $-1 $130 forward single #
loop $-1 $131 $132 $53 #
cone-surface $-1 -40.743731346920192 11.846832534267154 4.1912062355146107 0.68199836817093118 0 -0.7313536940579346 0.3656768470289673 0 0.34099918408546559 1 I I 0 1 0.5 forward I I I I #
face $-1 $133 $134 $43 $-1 $135 forward single #
loop $-1 $136 $137 $54 #
cone-surface $-1 -40.743731346920192 14.411772327859733 4.1912062355146107 0.68199836817093118 0 -0.7313536940579346 0.3656768470289673 0 0.34099918408546559 1 I I 0 1 0.5 forward I I I I #
face $-1 $138 $139 $33 $-1 $140 reversed single #
loop $-1 $-1 $141 $55 #
plane-surface $-1 0 0 7.8367915974279496 0 0 1 1 0 0 forward_v I I I I #
coedge $-1 $142 $143 $144 $145 reversed $56 $-1 #
face $-1 $146 $147 $34 $-1 $148 reversed single #
loop $-1 $-1 $149 $58 #
plane-surface $-1 0 0 -7.8367915974279496 0 0 1 1 0 0 forward_v I I I I #
coedge $-1 $150 $151 $152 $153 forward $59 $-1 #
face $-1 $154 $155 $35 $-1 $156 reversed single #
loop $-1 $-1 $157 $61 #
plane-surface $-1 -44.586321604052848 -6.3126456441286312 1.5012106859291947 -0.68199836817093118 0 0.7313536940579346 0.7313536940579346 0 0.68199836817093118 forward_v I I I I #
coedge $-1 $158 $159 $160 $161 reversed $62 $-1 #
face $-1 $-1 $162 $36 $-1 $163 forward single #
loop $-1 $164 $165 $64 #
cone-surface $-1 -40.127680786896164 -7.5951155409249225 3.5305729058361601 0.68199836817093118 0 -0.7313536940579346 0.18283842351448365 0 0.17049959204273279 1 I I -0.70710678118654746 0.70710678118654746 0.25 forward I I I I #
loop $-1 $-1 $166 $47 #
coedge $-1 $104 $104 $167 $168 reversed $65 $-1 #
face $-1 $-1 $169 $37 $-1 $170 forward single #
loop $-1 $171 $172 $67 #
cone-surface $-1 -40.127680786896164 -5.0301757473323399 3.5305729058361601 0.68199836817093118 0 -0.7313536940579346 0.18283842351448365 0 0.17049959204273279 1 I I -0.70710678118654746 0.70710678118654746 0.25 forward I I I I #
loop $-1 $-1 $173 $48 #
coedge $-1 $109 $109 $174 $175 reversed $68 $-1 #
face $-1 $176 $177 $38 $-1 $178 reversed single #
loop $-1 $-1 $179 $70 #
plane-surface $-1 -44.586321604052848 3.4083283934674071 1.5012106859291947 -0.68199836817093118 0 0.7313536940579346 0.7313536940579346 0 0.68199836817093118 forward_v I I I I #
coedge $-1 $180 $181 $182 $183 reversed $71 $-1 #
face $-1 $-1 $184 $39 $-1 $185 forward single #
loop $-1 $186 $187 $73 #
cone-surface $-1 -40.127680786896164 2.1258584966711176 3.5305729058361601 0.68199836817093118 0 -0.7313536940579346 0.18283842351448365 0 0.17049959204273279 1 I I -0.70710678118654746 0.70710678118654746 0.25 forward I I I I #
loop $-1 $-1 $188 $50 #
coedge $-1 $118 $118 $189 $190 reversed $74 $-1 #
face $-1 $-1 $191 $40 $-1 $192 forward single #
loop $-1 $193 $194 $76 #
cone-surface $-1 -40.127680786896164 4.6907982902636967 3.5305729058361601 0.68199836817093118 0 -0.7313536940579346 0.18283842351448365 0 0.17049959204273279 1 I I -0.70710678118654746 0.70710678118654746 0.25 forward I I I I #
loop $-1 $-1 $195 $51 #
coedge $-1 $123 $123 $196 $197 reversed $77 $-1 #
face $-1 $198 $199 $41 $-1 $200 reversed single #
loop $-1 $-1 $201 $79 #
plane-surface $-1 -44.586321604052848 13.129302431063447 1.5012106859291947 -0.68199836817093118 0 0.7313536940579346 0.7313536940579346 0 0.68199836817093118 forward_v I I I I #
coedge $-1 $202 $203 $204 $205 reversed $80 $-1 #
face $-1 $-1 $206 $42 $-1 $207 forward single #
loop $-1 $208 $209 $82 #
cone-surface $-1 -40.127680786896164 11.846832534267154 3.5305729058361601 0.68199836817093118 0 -0.7313536940579346 0.18283842351448365 0 0.17049959204273279 1 I I -0.70710678118654746 0.70710678118654746 0.25 forward I I I I #
loop $-1 $-1 $210 $53 #
coedge $-1 $132 $132 $211 $212 reversed $83 $-1 #
face $-1 $-1 $213 $43 $-1 $214 forward single #
loop $-1 $215 $216 $85 #
cone-surface $-1 -40.127680786896164 14.411772327859733 3.5305729058361601 0.68199836817093118 0 -0.7313536940579346 0.18283842351448365 0 0.17049959204273279 1 I I -0.70710678118654746 0.70710678118654746 0.25 forward I I I I #
loop $-1 $-1 $217 $54 #
coedge $-1 $137 $137 $218 $219 reversed $86 $-1 #
face $-1 $220 $221 $33 $-1 $222 reversed single #
loop $-1 $-1 $223 $88 #
plane-surface $-1 0 0 -7.8367915974279496 0 0 1 1 0 0 forward_v I I I I #
coedge $-1 $224 $225 $226 $227 forward $89 $-1 #
coedge $-1 $228 $91 $229 $230 reversed $56 $-1 #
coedge $-1 $91 $228 $231 $232 forward $56 $-1 #
coedge $-1 $233 $223 $91 $145 forward $139 $-1 #
edge $-1 $234 -44.586321604052856 $235 44.586321604052856 $91 $236 forward 7 unknown #
face $-1 $237 $238 $34 $-1 $239 reversed single #
loop $-1 $-1 $240 $92 #
plane-surface $-1 -31.005953648304875 -24.837866543912863 0 0 1 0 0 0 1 forward_v I I I I #
coedge $-1 $241 $242 $151 $243 forward $93 $-1 #
coedge $-1 $244 $95 $245 $246 reversed $59 $-1 #
coedge $-1 $95 $244 $149 $243 reversed $59 $-1 #
coedge $-1 $247 $248 $95 $153 reversed $238 $-1 #
edge $-1 $249 -7.8367915974279496 $250 7.8367915974279496 $152 $251 forward 7 unknown #
face $-1 $252 $253 $35 $-1 $254 reversed single #
loop $-1 $-1 $255 $96 #
plane-surface $-1 -105.40191875746962 -3.3202158849372836 66.717952705087498 0 -1 0 0.68199836817093118 0 -0.7313536940579346 forward_v I I I I #
coedge $-1 $256 $257 $258 $259 reversed $97 $-1 #
coedge $-1 $159 $99 $260 $261 reversed $62 $-1 #
coedge $-1 $99 $158 $256 $262 reversed $62 $-1 #
coedge $-1 $258 $263 $99 $161 forward $264 $-1 #
edge $-1 $265 8.1146377746819525 $266 14.908716352984705 $160 $267 forward 7 unknown #
loop $-1 $-1 $167 $100 #
plane-surface $-1 -44.586321604052848 -6.3126456441286312 1.5012106859291947 -0.68199836817093118 0 0.7313536940579346 0.7313536940579346 0 0.68199836817093118 forward_v I I I I #
loop $-1 $-1 $268 $64 #
coedge $-1 $165 $165 $166 $269 reversed $101 $-1 #
coedge $-1 $166 $166 $165 $269 forward $103 $-1 #
coedge $-1 $167 $167 $104 $168 forward $162 $-1 #
edge $-1 $270 0 $270 6.2831853071796004 $167 $271 forward 7 unknown #
loop $-1 $-1 $174 $105 #
plane-surface $-1 -44.586321604052848 -6.3126456441286312 1.5012106859291947 -0.68199836817093118 0 0.7313536940579346 0.7313536940579346 0 0.68199836817093118 forward_v I I I I #
loop $-1 $-1 $272 $67 #
coedge $-1 $172 $172 $173 $273 reversed $106 $-1 #
coedge $-1 $173 $173 $172 $273 forward $108 $-1 #
coedge $-1 $174 $174 $109 $175 forward $169 $-1 #
edge $-1 $274 0 $274 6.2831853071796004 $174 $275 forward 7 unknown #
face $-1 $276 $277 $38 $-1 $278 forward single #
loop $-1 $-1 $279 $110 #
plane-surface $-1 -105.40191875746962 6.4007581526587547 66.717952705087498 0 -1 0 0.68199836817093118 0 -0.7313536940579346 forward_v I I I I #
coedge $-1 $280 $281 $282 $283 reversed $111 $-1 #
coedge $-1 $181 $113 $284 $285 reversed $71 $-1 #
coedge $-1 $113 $180 $280 $286 reversed $71 $-1 #
coedge $-1 $282 $287 $113 $183 forward $277 $-1 #
edge $-1 $288 8.1146377746819525 $289 14.908716352984705 $182 $290 forward 7 unknown #
loop $-1 $-1 $189 $114 #
plane-surface $-1 -44.586321604052848 3.4083283934674071 1.5012106859291947 -0.68199836817093118 0 0.7313536940579346 0.7313536940579346 0 0.68199836817093118 forward_v I I I I #
loop $-1 $-1 $291 $73 #
coedge $-1 $187 $187 $188 $292 reversed $115 $-1 #
coedge $-1 $188 $188 $187 $292 forward $117 $-1 #
coedge $-1 $189 $189 $118 $190 forward $184 $-1 #
edge $-1 $293 0 $293 6.2831853071796004 $189 $294 forward 7 unknown #
loop $-1 $-1 $196 $119 #
plane-surface $-1 -44.586321604052848 3.4083283934674071 1.5012106859291947 -0.68199836817093118 0 0.7313536940579346 0.7313536940579346 0 0.68199836817093118 forward_v I I I I #
loop $-1 $-1 $295 $76 #
coedge $-1 $194 $194 $195 $296 reversed $120 $-1 #
coedge $-1 $195 $195 $194 $296 forward $122 $-1 #
coedge $-1 $196 $196 $123 $197 forward $191 $-1 #
edge $-1 $297 0 $297 6.2831853071796004 $196 $298 forward 7 unknown #
face $-1 $299 $300 $41 $-1 $301 forward single #
loop $-1 $-1 $302 $124 #
plane-surface $-1 -105.40191875746962 16.121732190254797 66.717952705087498 0 -1 0 0.68199836817093118 0 -0.7313536940579346 forward_v I I I I #
coedge $-1 $303 $304 $305 $306 reversed $125 $-1 #
coedge $-1 $203 $127 $307 $308 reversed $80 $-1 #
coedge $-1 $127 $202 $303 $309 reversed $80 $-1 #
coedge $-1 $305 $310 $127 $205 forward $300 $-1 #
edge $-1 $311 8.1146377746819525 $312 14.908716352984705 $204 $313 forward 7 unknown #
loop $-1 $-1 $211 $128 #
plane-surface $-1 -44.586321604052848 13.129302431063447 1.5012106859291947 -0.68199836817093118 0 0.7313536940579346 0.7313536940579346 0 0.68199836817093118 forward_v I I I I #
loop $-1 $-1 $314 $82 #
coedge $-1 $209 $209 $210 $315 reversed $129 $-1 #
coedge $-1 $210 $210 $209 $315 forward $131 $-1 #
coedge $-1 $211 $211 $132 $212 forward $206 $-1 #
edge $-1 $316 0 $316 6.2831853071796004 $211 $317 forward 7 unknown #
loop $-1 $-1 $218 $133 #
plane-surface $-1 -44.586321604052848 13.129302431063447 1.5012106859291947 -0.68199836817093118 0 0.7313536940579346 0.7313536940579346 0 0.68199836817093118 forward_v I I I I #
loop $-1 $-1 $318 $85 #
coedge $-1 $216 $216 $217 $319 reversed $134 $-1 #
coedge $-1 $217 $217 $216 $319 forward $136 $-1 #
coedge $-1 $218 $218 $137 $219 forward $213 $-1 #
edge $-1 $320 0 $320 6.2831853071796004 $218 $321 forward 7 unknown #
face $-1 $322 $323 $33 $-1 $324 reversed single #
loop $-1 $-1 $325 $138 #
plane-surface $-1 -44.586321604052856 0 0 1 0 0 0 0 -1 forward_v I I I I #
coedge $-1 $144 $326 $327 $328 forward $139 $-1 #
coedge $-1 $329 $141 $330 $331 forward $89 $-1 #
coedge $-1 $141 $329 $228 $332 forward $89 $-1 #
coedge $-1 $229 $333 $141 $227 reversed $334 $-1 #
edge $-1 $335 -18.000262885566993 $336 18.000262885566993 $226 $337 forward 7 unknown #
coedge $-1 $143 $142 $225 $332 reversed $56 $-1 #
coedge $-1 $327 $226 $142 $230 forward $334 $-1 #
edge $-1 $335 -7.8367915974279496 $234 7.8367915974279496 $229 $338 forward 7 unknown #
coedge $-1 $339 $340 $143 $232 reversed $221 $-1 #
edge $-1 $341 -7.8367915974279496 $235 7.8367915974279496 $231 $342 forward 7 unknown #
coedge $-1 $326 $144 $340 $343 forward $139 $-1 #
vertex $-1 $230 $344 #
vertex $-1 $343 $345 #
straight-curve $-1 0 -18.000262885566993 -7.8367915974279496 -1 0 0 I I #
face $-1 $346 $347 $34 $-1 $348 reversed single #
loop $-1 $-1 $152 $146 #
plane-surface $-1 -33.099168887412795 -21.419064714739928 0 1 0 0 0 0 -1 forward_v I I I I #
coedge $-1 $349 $350 $351 $352 forward $147 $-1 #
coedge $-1 $353 $149 $354 $355 forward $93 $-1 #
coedge $-1 $149 $353 $247 $356 forward $93 $-1 #
edge $-1 $249 -33.099168887412795 $357 -28.912738409196955 $149 $358 forward 7 unknown #
coedge $-1 $151 $150 $359 $360 forward $59 $-1 #
coedge $-1 $361 $362 $150 $246 forward $363 $-1 #
edge $-1 $364 28.912738409196955 $250 33.099168887412795 $245 $365 forward 7 unknown #
coedge $-1 $351 $152 $242 $356 reversed $238 $-1 #
coedge $-1 $152 $351 $361 $366 reversed $238 $-1 #
vertex $-1 $243 $367 #
vertex $-1 $366 $368 #
straight-curve $-1 -33.099168887412795 -18.000262885566993 0 0 0 1 I I #
face $-1 $-1 $264 $35 $-1 $369 forward single #
loop $-1 $-1 $370 $154 #
plane-surface $-1 -44.586321604052856 0 0 1 0 0 0 0 -1 forward_v I I I I #
coedge $-1 $371 $372 $373 $374 reversed $155 $-1 #
coedge $-1 $375 $157 $159 $262 forward $97 $-1 #
coedge $-1 $157 $375 $371 $376 forward $97 $-1 #
coedge $-1 $373 $160 $157 $259 forward $264 $-1 #
edge $-1 $266 -6.1487525812556632 $377 -0.16389306287296801 $258 $378 forward 7 unknown #
coedge $-1 $379 $380 $158 $261 forward $253 $-1 #
edge $-1 $381 -31.857765666614561 $265 -25.522184755115799 $260 $382 forward 7 unknown #
edge $-1 $266 -9.2897303090186458 $381 9.739602292442716e-015 $159 $383 forward 7 unknown #
coedge $-1 $160 $373 $379 $384 forward $264 $-1 #
loop $-1 $-1 $373 $252 #
vertex $-1 $261 $385 #
vertex $-1 $161 $386 #
straight-curve $-1 -52.700959378734808 -9.3050754033199787 7.8367915974279505 1 0 0 I I #
coedge $-1 $268 $268 $-1 $387 reversed $164 $-1 #
edge $-1 $388 0 $388 6.2831853071796004 $165 $389 forward 7 unknown #
vertex $-1 $168 $390 #
ellipse-curve $-1 -41.189282314901483 -7.5951155409249225 4.6690011416785691 -0.68199836817093118 0 0.7313536940579346 0.3656768470289673 0 0.34099918408546559 1 I I #
coedge $-1 $272 $272 $-1 $391 reversed $171 $-1 #
edge $-1 $392 0 $392 6.2831853071796004 $172 $393 forward 7 unknown #
vertex $-1 $175 $394 #
ellipse-curve $-1 -41.189282314901483 -5.0301757473323399 4.6690011416785691 -0.68199836817093118 0 0.7313536940579346 0.3656768470289673 0 0.34099918408546559 1 I I #
face $-1 $-1 $395 $38 $-1 $396 reversed single #
loop $-1 $-1 $182 $176 #
plane-surface $-1 0 0 7.8367915974279496 0 0 1 1 0 0 forward_v I I I I #
coedge $-1 $397 $398 $399 $400 reversed $177 $-1 #
coedge $-1 $401 $179 $181 $286 forward $111 $-1 #
coedge $-1 $179 $401 $397 $402 forward $111 $-1 #
coedge $-1 $399 $182 $179 $283 forward $277 $-1 #
edge $-1 $289 -1.288265562457644 $403 4.6965939559250511 $282 $404 forward 7 unknown #
coedge $-1 $405 $406 $180 $285 forward $395 $-1 #
edge $-1 $407 -31.857765666614561 $288 -25.522184755115799 $284 $408 forward 7 unknown #
edge $-1 $289 -9.2897303090186458 $407 9.739602292442716e-015 $181 $409 forward 7 unknown #
coedge $-1 $182 $399 $405 $410 forward $277 $-1 #
vertex $-1 $183 $411 #
vertex $-1 $183 $412 #
straight-curve $-1 -52.700959378734808 0.41589863427605955 7.8367915974279505 1 0 0 I I #
coedge $-1 $291 $291 $-1 $413 reversed $186 $-1 #
edge $-1 $414 0 $414 6.2831853071796004 $187 $415 forward 7 unknown #
vertex $-1 $190 $416 #
ellipse-curve $-1 -41.189282314901483 2.1258584966711176 4.6690011416785691 -0.68199836817093118 0 0.7313536940579346 0.3656768470289673 0 0.34099918408546559 1 I I #
coedge $-1 $295 $295 $-1 $417 reversed $193 $-1 #
edge $-1 $418 0 $418 6.2831853071796004 $194 $419 forward 7 unknown #
vertex $-1 $197 $420 #
ellipse-curve $-1 -41.189282314901483 4.6907982902636967 4.6690011416785691 -0.68199836817093118 0 0.7313536940579346 0.3656768470289673 0 0.34099918408546559 1 I I #
face $-1 $-1 $421 $41 $-1 $422 reversed single #
loop $-1 $-1 $204 $198 #
plane-surface $-1 0 0 7.8367915974279496 0 0 1 1 0 0 forward_v I I I I #
coedge $-1 $423 $424 $425 $426 reversed $199 $-1 #
coedge $-1 $427 $201 $203 $309 forward $125 $-1 #
coedge $-1 $201 $427 $423 $428 forward $125 $-1 #
coedge $-1 $425 $204 $201 $306 forward $300 $-1 #
edge $-1 $312 3.572221456340376 $429 9.5570809747230729 $305 $430 forward 7 unknown #
coedge $-1 $431 $432 $202 $308 forward $421 $-1 #
edge $-1 $433 -31.857765666614561 $311 -25.522184755115799 $307 $434 forward 7 unknown #
edge $-1 $312 -9.2897303090186458 $433 9.739602292442716e-015 $203 $435 forward 7 unknown #
coedge $-1 $204 $425 $431 $436 forward $300 $-1 #
vertex $-1 $205 $437 #
vertex $-1 $205 $438 #
straight-curve $-1 -52.700959378734808 10.1368726718721 7.8367915974279505 1 0 0 I I #
coedge $-1 $314 $314 $-1 $439 reversed $208 $-1 #
edge $-1 $440 0 $440 6.2831853071796004 $209 $441 forward 7 unknown #
vertex $-1 $212 $442 #
ellipse-curve $-1 -41.189282314901483 11.846832534267154 4.6690011416785691 -0.68199836817093118 0 0.7313536940579346 0.3656768470289673 0 0.34099918408546559 1 I I #
coedge $-1 $318 $318 $-1 $443 reversed $215 $-1 #
edge $-1 $444 0 $444 6.2831853071796004 $216 $445 forward 7 unknown #
vertex $-1 $219 $446 #
ellipse-curve $-1 -41.189282314901483 14.411772327859733 4.6690011416785691 -0.68199836817093118 0 0.7313536940579346 0.3656768470289673 0 0.34099918408546559 1 I I #
face $-1 $-1 $334 $33 $-1 $447 reversed single #
loop $-1 $-1 $448 $220 #
plane-surface $-1 0 18.000262885566993 0 0 -1 0 0 0 -1 forward_v I I I I #
coedge $-1 $340 $339 $449 $450 forward $221 $-1 #
coedge $-1 $223 $233 $451 $452 forward $139 $-1 #
coedge $-1 $333 $229 $223 $328 reversed $334 $-1 #
edge $-1 $453 -18.000262885566993 $234 18.000262885566993 $327 $454 forward 7 unknown #
coedge $-1 $225 $224 $339 $455 forward $89 $-1 #
coedge $-1 $448 $449 $224 $331 reversed $323 $-1 #
edge $-1 $336 -44.586321604052856 $456 44.586321604052856 $330 $457 forward 7 unknown #
edge $-1 $341 -44.586321604052856 $335 44.586321604052856 $228 $458 forward 7 unknown #
coedge $-1 $226 $327 $448 $459 reversed $334 $-1 #
loop $-1 $-1 $229 $322 #
vertex $-1 $227 $460 #
vertex $-1 $227 $461 #
straight-curve $-1 44.586321604052856 0 7.8367915974279496 0 1 0 I I #
straight-curve $-1 44.586321604052856 -18.000262885566993 0 0 0 -1 I I #
coedge $-1 $325 $231 $329 $455 reversed $221 $-1 #
coedge $-1 $231 $325 $233 $343 reversed $221 $-1 #
vertex $-1 $455 $462 #
straight-curve $-1 -44.586321604052856 -18.000262885566993 0 0 0 -1 I I #
edge $-1 $235 -18.000262885566993 $463 18.000262885566993 $340 $464 forward 7 unknown #
point $-1 44.586321604052856 -18.000262885566993 -7.8367915974279496 #
point $-1 -44.586321604052856 -18.000262885566993 -7.8367915974279496 #
face $-1 $-1 $363 $34 $-1 $465 forward single #
loop $-1 $-1 $466 $237 #
plane-surface $-1 -28.912738409196955 -21.419064714739928 0 -1 0 0 0 0 1 forward_v I I I I #
coedge $-1 $467 $240 $353 $468 reversed $147 $-1 #
coedge $-1 $240 $467 $469 $470 reversed $147 $-1 #
coedge $-1 $248 $247 $240 $352 reversed $238 $-1 #
edge $-1 $471 -7.8367915974279496 $472 7.8367915974279496 $351 $473 forward 7 unknown #
coedge $-1 $242 $241 $349 $468 forward $93 $-1 #
coedge $-1 $359 $466 $241 $355 reversed $347 $-1 #
edge $-1 $357 -3.418801829172935 $474 3.418801829172935 $354 $475 forward 7 unknown #
edge $-1 $472 -3.418801829172935 $249 3.418801829172935 $247 $476 forward 7 unknown #
vertex $-1 $355 $477 #
straight-curve $-1 0 -18.000262885566993 -7.8367915974279496 1 0 0 I I #
coedge $-1 $478 $354 $244 $360 reversed $347 $-1 #
edge $-1 $364 -7.8367915974279496 $357 7.8367915974279496 $359 $479 forward 7 unknown #
coedge $-1 $469 $245 $248 $366 forward $363 $-1 #
coedge $-1 $245 $469 $478 $480 forward $363 $-1 #
loop $-1 $-1 $245 $346 #
vertex $-1 $246 $481 #
straight-curve $-1 0 -18.000262885566993 7.8367915974279496 -1 0 0 I I #
edge $-1 $250 -3.418801829172935 $471 3.418801829172935 $248 $482 forward 7 unknown #
point $-1 -33.099168887412795 -18.000262885566993 -7.8367915974279496 #
point $-1 -33.099168887412795 -18.000262885566993 7.8367915974279496 #
plane-surface $-1 0 0 7.8367915974279496 0 0 1 1 0 0 forward_v I I I I #
coedge $-1 $380 $379 $372 $483 forward $253 $-1 #
coedge $-1 $372 $255 $257 $376 reversed $155 $-1 #
coedge $-1 $255 $371 $370 $483 reversed $155 $-1 #
coedge $-1 $263 $258 $255 $374 forward $264 $-1 #
edge $-1 $377 -14.908716352984705 $484 -8.1146377746819525 $373 $485 forward 7 unknown #
coedge $-1 $257 $256 $380 $486 reversed $97 $-1 #
edge $-1 $487 -9.739602292442716e-015 $377 9.2897303090186458 $371 $488 forward 7 unknown #
vertex $-1 $259 $489 #
straight-curve $-1 -37.792243025750111 -3.1563228220643156 7.8367915974279496 0 1 0 I I #
coedge $-1 $370 $260 $263 $384 reversed $253 $-1 #
coedge $-1 $260 $370 $375 $486 forward $253 $-1 #
vertex $-1 $261 $490 #
straight-curve $-1 -44.586321604052856 -9.3050754033199787 33.358976352543749 0 0 1 I I #
straight-curve $-1 -44.586321604052848 -9.3050754033199787 1.5012106859291947 -0.7313536940579346 0 -0.68199836817093118 I I #
edge $-1 $484 3.3202158849372836 $265 9.3050754033199787 $379 $491 forward 7 unknown #
point $-1 -44.586321604052856 -9.3050754033199787 7.8367915974279496 #
point $-1 -37.792243025750103 -9.3050754033199787 7.8367915974279505 #
edge $-1 $492 1 $492 0 $268 $-1 forward 7 unknown #
vertex $-1 $269 $493 #
ellipse-curve $-1 -40.298180378938895 -7.5951155409249225 3.7134113293506439 -0.68199836817093118 0 0.7313536940579346 0.3656768470289673 0 0.34099918408546559 1 I I #
point $-1 -40.823605467872518 -7.5951155409249225 5.0100003257640431 #
edge $-1 $494 1 $494 0 $272 $-1 forward 7 unknown #
vertex $-1 $273 $495 #
ellipse-curve $-1 -40.298180378938895 -5.0301757473323399 3.7134113293506439 -0.68199836817093118 0 0.7313536940579346 0.3656768470289673 0 0.34099918408546559 1 I I #
point $-1 -40.823605467872518 -5.0301757473323399 5.0100003257640431 #
loop $-1 $-1 $284 $276 #
plane-surface $-1 -44.586321604052856 0 0 1 0 0 0 0 -1 forward_v I I I I #
coedge $-1 $398 $279 $281 $402 reversed $177 $-1 #
coedge $-1 $279 $397 $496 $497 reversed $177 $-1 #
coedge $-1 $287 $282 $279 $400 forward $277 $-1 #
edge $-1 $403 -14.908716352984705 $498 -8.1146377746819525 $399 $499 forward 7 unknown #
coedge $-1 $281 $280 $406 $500 reversed $111 $-1 #
edge $-1 $501 -9.739602292442716e-015 $403 9.2897303090186458 $397 $502 forward 7 unknown #
vertex $-1 $283 $503 #
straight-curve $-1 -37.792243025750111 1.7041641967337036 7.8367915974279496 0 1 0 I I #
coedge $-1 $496 $284 $287 $410 reversed $395 $-1 #
coedge $-1 $284 $496 $401 $500 forward $395 $-1 #
vertex $-1 $285 $504 #
straight-curve $-1 -44.586321604052856 0.41589863427605955 33.358976352543749 0 0 1 I I #
straight-curve $-1 -44.586321604052848 0.41589863427605955 1.5012106859291947 -0.7313536940579346 0 -0.68199836817093118 I I #
edge $-1 $498 -6.4007581526587547 $288 -0.41589863427605955 $405 $505 forward 7 unknown #
point $-1 -44.586321604052856 0.41589863427605955 7.8367915974279496 #
point $-1 -37.792243025750103 0.41589863427605955 7.8367915974279505 #
edge $-1 $506 1 $506 0 $291 $-1 forward 7 unknown #
vertex $-1 $292 $507 #
ellipse-curve $-1 -40.298180378938895 2.1258584966711176 3.7134113293506439 -0.68199836817093118 0 0.7313536940579346 0.3656768470289673 0 0.34099918408546559 1 I I #
point $-1 -40.823605467872518 2.1258584966711176 5.0100003257640431 #
edge $-1 $508 1 $508 0 $295 $-1 forward 7 unknown #
vertex $-1 $296 $509 #
ellipse-curve $-1 -40.298180378938895 4.6907982902636967 3.7134113293506439 -0.68199836817093118 0 0.7313536940579346 0.3656768470289673 0 0.34099918408546559 1 I I #
point $-1 -40.823605467872518 4.6907982902636967 5.0100003257640431 #
loop $-1 $-1 $307 $299 #
plane-surface $-1 -44.586321604052856 0 0 1 0 0 0 0 -1 forward_v I I I I #
coedge $-1 $424 $302 $304 $428 reversed $199 $-1 #
coedge $-1 $302 $423 $510 $511 reversed $199 $-1 #
coedge $-1 $310 $305 $302 $426 forward $300 $-1 #
edge $-1 $429 -14.908716352984705 $512 -8.1146377746819525 $425 $513 forward 7 unknown #
coedge $-1 $304 $303 $432 $514 reversed $125 $-1 #
edge $-1 $515 -9.739602292442716e-015 $429 9.2897303090186458 $423 $516 forward 7 unknown #
vertex $-1 $306 $517 #
straight-curve $-1 -37.792243025750111 6.5646512155317236 7.8367915974279496 0 1 0 I I #
coedge $-1 $510 $307 $310 $436 reversed $421 $-1 #
coedge $-1 $307 $510 $427 $514 forward $421 $-1 #
vertex $-1 $308 $518 #
straight-curve $-1 -44.586321604052856 10.1368726718721 33.358976352543749 0 0 1 I I #
straight-curve $-1 -44.586321604052848 10.1368726718721 1.5012106859291947 -0.7313536940579346 0 -0.68199836817093118 I I #
edge $-1 $512 -16.121732190254797 $311 -10.1368726718721 $431 $519 forward 7 unknown #
point $-1 -44.586321604052856 10.1368726718721 7.8367915974279496 #
point $-1 -37.792243025750103 10.1368726718721 7.8367915974279505 #
edge $-1 $520 1 $520 0 $314 $-1 forward 7 unknown #
vertex $-1 $315 $521 #
ellipse-curve $-1 -40.298180378938895 11.846832534267154 3.7134113293506439 -0.68199836817093118 0 0.7313536940579346 0.3656768470289673 0 0.34099918408546559 1 I I #
point $-1 -40.823605467872518 11.846832534267154 5.0100003257640431 #
edge $-1 $522 1 $522 0 $318 $-1 forward 7 unknown #
vertex $-1 $319 $523 #
ellipse-curve $-1 -40.298180378938895 14.411772327859733 3.7134113293506439 -0.68199836817093118 0 0.7313536940579346 0.3656768470289673 0 0.34099918408546559 1 I I #
point $-1 -40.823605467872518 14.411772327859733 5.0100003257640431 #
plane-surface $-1 44.586321604052856 0 0 -1 0 0 0 0 1 forward_v I I I I #
coedge $-1 $451 $330 $333 $459 forward $323 $-1 #
coedge $-1 $330 $451 $325 $450 reversed $323 $-1 #
edge $-1 $456 -7.8367915974279496 $463 7.8367915974279496 $449 $524 forward 7 unknown #
coedge $-1 $449 $448 $326 $452 reversed $323 $-1 #
edge $-1 $463 -44.586321604052856 $453 44.586321604052856 $451 $525 forward 7 unknown #
vertex $-1 $328 $526 #
straight-curve $-1 44.586321604052856 0 -7.8367915974279496 0 -1 0 I I #
edge $-1 $456 -18.000262885566993 $341 18.000262885566993 $339 $527 forward 7 unknown #
vertex $-1 $331 $528 #
straight-curve $-1 0 18.000262885566993 7.8367915974279496 -1 0 0 I I #
straight-curve $-1 0 -18.000262885566993 7.8367915974279496 1 0 0 I I #
edge $-1 $336 -7.8367915974279496 $453 7.8367915974279496 $333 $529 forward 7 unknown #
point $-1 44.586321604052856 -18.000262885566993 7.8367915974279496 #
point $-1 44.586321604052856 18.000262885566993 7.8367915974279496 #
point $-1 -44.586321604052856 -18.000262885566993 7.8367915974279496 #
vertex $-1 $452 $530 #
straight-curve $-1 -44.586321604052856 0 -7.8367915974279496 0 1 0 I I #
plane-surface $-1 0 0 7.8367915974279496 0 0 1 1 0 0 forward_v I I I I #
coedge $-1 $354 $478 $467 $531 forward $347 $-1 #
coedge $-1 $350 $349 $466 $531 reversed $147 $-1 #
edge $-1 $474 -2.09321523910792 $472 2.09321523910792 $349 $532 forward 7 unknown #
coedge $-1 $362 $361 $350 $470 forward $363 $-1 #
edge $-1 $471 -2.09321523910792 $533 2.09321523910792 $350 $534 forward 7 unknown #
vertex $-1 $366 $535 #
vertex $-1 $356 $536 #
straight-curve $-1 -33.099168887412795 -24.837866543912863 0 0 0 -1 I I #
vertex $-1 $531 $537 #
straight-curve $-1 -28.912738409196955 -21.419064714739928 -7.8367915974279496 0 -1 0 I I #
straight-curve $-1 -33.099168887412795 -21.419064714739928 -7.8367915974279496 0 1 0 I I #
point $-1 -28.912738409196955 -18.000262885566993 -7.8367915974279496 #
coedge $-1 $466 $359 $362 $480 reversed $347 $-1 #
straight-curve $-1 -28.912738409196955 -18.000262885566993 0 0 0 -1 I I #
edge $-1 $533 -3.418801829172935 $364 3.418801829172935 $478 $538 forward 7 unknown #
point $-1 -28.912738409196955 -18.000262885566993 7.8367915974279496 #
straight-curve $-1 -33.099168887412795 -21.419064714739928 7.8367915974279496 0 -1 0 I I #
edge $-1 $484 25.522184755115799 $487 31.857765666614561 $370 $539 forward 7 unknown #
vertex $-1 $384 $540 #
straight-curve $-1 -52.700959378734808 -3.3202158849372836 7.8367915974279505 -1 0 0 I I #
edge $-1 $487 0.16389306287296801 $381 6.1487525812556632 $380 $541 forward 7 unknown #
vertex $-1 $486 $542 #
straight-curve $-1 -44.586321604052848 -3.3202158849372836 1.5012106859291947 0.7313536940579346 0 0.68199836817093118 I I #
point $-1 -37.792243025750103 -3.3202158849372836 7.8367915974279505 #
point $-1 -44.586321604052856 -9.3050754033199787 1.501210685929188 #
straight-curve $-1 -44.586321604052856 0 7.8367915974279496 0 -1 0 I I #
vertex $-1 $387 $543 #
point $-1 -39.93250353190993 -7.5951155409249225 4.0544105134361095 #
vertex $-1 $391 $544 #
point $-1 -39.93250353190993 -5.0301757473323399 4.0544105134361095 #
coedge $-1 $406 $405 $398 $497 forward $395 $-1 #
edge $-1 $498 25.522184755115799 $501 31.857765666614561 $496 $545 forward 7 unknown #
vertex $-1 $410 $546 #
straight-curve $-1 -52.700959378734808 6.4007581526587547 7.8367915974279505 -1 0 0 I I #
edge $-1 $501 -4.6965939559250511 $407 1.288265562457644 $406 $547 forward 7 unknown #
vertex $-1 $500 $548 #
straight-curve $-1 -44.586321604052848 6.4007581526587547 1.5012106859291947 0.7313536940579346 0 0.68199836817093118 I I #
point $-1 -37.792243025750103 6.4007581526587547 7.8367915974279505 #
point $-1 -44.586321604052856 0.41589863427605955 1.501210685929188 #
straight-curve $-1 -44.586321604052856 0 7.8367915974279496 0 -1 0 I I #
vertex $-1 $413 $549 #
point $-1 -39.93250353190993 2.1258584966711176 4.0544105134361095 #
vertex $-1 $417 $550 #
point $-1 -39.93250353190993 4.6907982902636967 4.0544105134361095 #
coedge $-1 $432 $431 $424 $511 forward $421 $-1 #
edge $-1 $512 25.522184755115799 $515 31.857765666614561 $510 $551 forward 7 unknown #
vertex $-1 $436 $552 #
straight-curve $-1 -52.700959378734808 16.121732190254797 7.8367915974279505 -1 0 0 I I #
edge $-1 $515 -9.5570809747230729 $433 -3.572221456340376 $432 $553 forward 7 unknown #
vertex $-1 $514 $554 #
straight-curve $-1 -44.586321604052848 16.121732190254797 1.5012106859291947 0.7313536940579346 0 0.68199836817093118 I I #
point $-1 -37.792243025750103 16.121732190254797 7.8367915974279505 #
point $-1 -44.586321604052856 10.1368726718721 1.501210685929188 #
straight-curve $-1 -44.586321604052856 0 7.8367915974279496 0 -1 0 I I #
vertex $-1 $439 $555 #
point $-1 -39.93250353190993 11.846832534267154 4.0544105134361095 #
vertex $-1 $443 $556 #
point $-1 -39.93250353190993 14.411772327859733 4.0544105134361095 #
straight-curve $-1 -44.586321604052856 18.000262885566993 0 0 0 -1 I I #
straight-curve $-1 0 18.000262885566993 -7.8367915974279496 1 0 0 I I #
point $-1 44.586321604052856 18.000262885566993 -7.8367915974279496 #
straight-curve $-1 -44.586321604052856 0 7.8367915974279496 0 -1 0 I I #
point $-1 -44.586321604052856 18.000262885566993 7.8367915974279496 #
straight-curve $-1 44.586321604052856 18.000262885566993 0 0 0 -1 I I #
point $-1 -44.586321604052856 18.000262885566993 -7.8367915974279496 #
edge $-1 $533 -7.8367915974279496 $474 7.8367915974279496 $466 $557 forward 7 unknown #
straight-curve $-1 -31.005953648304875 -24.837866543912863 -7.8367915974279496 -1 0 0 I I #
vertex $-1 $480 $558 #
straight-curve $-1 -31.005953648304875 -24.837866543912863 7.8367915974279496 1 0 0 I I #
point $-1 -33.099168887412795 -24.837866543912863 7.8367915974279496 #
point $-1 -33.099168887412795 -24.837866543912863 -7.8367915974279496 #
point $-1 -28.912738409196955 -24.837866543912863 -7.8367915974279496 #
straight-curve $-1 -28.912738409196955 -21.419064714739928 7.8367915974279496 0 1 0 I I #
straight-curve $-1 -44.586321604052856 -3.3202158849372836 33.358976352543749 0 0 -1 I I #
point $-1 -44.586321604052856 -3.3202158849372836 7.8367915974279496 #
straight-curve $-1 -44.586321604052856 -3.1563228220643156 1.5012106859291934 0 -1 0 I I #
point $-1 -44.586321604052856 -3.3202158849372836 1.501210685929188 #
point $-1 -39.957181194853433 -7.5951155409249225 3.3477344823216764 #
point $-1 -39.957181194853433 -5.0301757473323399 3.3477344823216764 #
straight-curve $-1 -44.586321604052856 6.4007581526587547 33.358976352543749 0 0 -1 I I #
point $-1 -44.586321604052856 6.4007581526587547 7.8367915974279496 #
straight-curve $-1 -44.586321604052856 1.7041641967337036 1.5012106859291934 0 -1 0 I I #
point $-1 -44.586321604052856 6.4007581526587547 1.501210685929188 #
point $-1 -39.957181194853433 2.1258584966711176 3.3477344823216764 #
point $-1 -39.957181194853433 4.6907982902636967 3.3477344823216764 #
straight-curve $-1 -44.586321604052856 16.121732190254797 33.358976352543749 0 0 -1 I I #
point $-1 -44.586321604052856 16.121732190254797 7.8367915974279496 #
straight-curve $-1 -44.586321604052856 6.5646512155317236 1.5012106859291934 0 -1 0 I I #
point $-1 -44.586321604052856 16.121732190254797 1.501210685929188 #
point $-1 -39.957181194853433 11.846832534267154 3.3477344823216764 #
point $-1 -39.957181194853433 14.411772327859733 3.3477344823216764 #
straight-curve $-1 -28.912738409196955 -24.837866543912863 0 0 0 -1 I I #
point $-1 -28.912738409196955 -24.837866543912863 7.8367915974279496 #
End-of-ACIS-data 