500 0 16 0           
7 Unknown 11 ACIS 5.0 NT 24 Fri Mar 26 19:58:49 1999 
-1 9.9999999999999995e-007 1e-010 
body $-1 $16 $-1 $17 #
body $-1 $18 $-1 $19 #
body $-1 $20 $-1 $21 #
body $-1 $22 $-1 $23 #
body $-1 $24 $-1 $25 #
body $-1 $26 $-1 $27 #
body $-1 $28 $-1 $29 #
body $-1 $30 $-1 $31 #
body $-1 $32 $-1 $33 #
body $-1 $34 $-1 $35 #
body $-1 $36 $-1 $37 #
body $-1 $38 $-1 $39 #
body $-1 $40 $-1 $41 #
body $-1 $42 $-1 $43 #
body $-1 $44 $-1 $45 #
body $-1 $46 $-1 $47 #
lump $-1 $-1 $48 $0 #
transform $-1 1 0 0 0 1 0 0 0 1 61.957457197790461 41.203874058915723 11.73594275351587 1 rotate no_reflect no_shear #
lump $-1 $-1 $49 $1 #
transform $-1 1 0 0 0 1 0 0 0 1 61.957457197790461 41.203874058915723 11.73594275351587 1 rotate no_reflect no_shear #
lump $-1 $-1 $50 $2 #
transform $-1 1 0 0 0 1 0 0 0 1 61.957457197790461 41.203874058915723 11.73594275351587 1 rotate no_reflect no_shear #
lump $-1 $-1 $51 $3 #
transform $-1 1 0 0 0 1 0 0 0 1 61.957457197790461 41.203874058915723 11.73594275351587 1 rotate no_reflect no_shear #
lump $-1 $-1 $52 $4 #
transform $-1 1 0 0 0 1 0 0 0 1 61.957457197790461 41.203874058915723 11.73594275351587 1 rotate no_reflect no_shear #
lump $-1 $-1 $53 $5 #
transform $-1 1 0 0 0 1 0 0 0 1 61.957457197790461 41.203874058915723 11.73594275351587 1 rotate no_reflect no_shear #
lump $-1 $-1 $54 $6 #
transform $-1 1 0 0 0 1 0 0 0 1 61.957457197790461 41.203874058915723 11.73594275351587 1 rotate no_reflect no_shear #
lump $-1 $-1 $55 $7 #
transform $-1 1 0 0 0 1 0 0 0 1 61.957457197790461 41.203874058915723 11.73594275351587 1 rotate no_reflect no_shear #
lump $-1 $-1 $56 $8 #
transform $-1 1 0 0 0 1 0 0 0 1 61.957457197790461 41.203874058915723 11.73594275351587 1 rotate no_reflect no_shear #
lump $-1 $-1 $57 $9 #
transform $-1 1 0 0 0 1 0 0 0 1 61.957457197790461 41.203874058915723 11.73594275351587 1 rotate no_reflect no_shear #
lump $-1 $-1 $58 $10 #
transform $-1 1 0 0 0 1 0 0 0 1 61.957457197790461 41.203874058915723 11.73594275351587 1 rotate no_reflect no_shear #
lump $-1 $-1 $59 $11 #
transform $-1 1 0 0 0 1 0 0 0 1 61.957457197790461 41.203874058915723 11.73594275351587 1 rotate no_reflect no_shear #
lump $-1 $-1 $60 $12 #
transform $-1 1 0 0 0 1 0 0 0 1 61.957457197790461 41.203874058915723 11.73594275351587 1 rotate no_reflect no_shear #
lump $-1 $-1 $61 $13 #
transform $-1 1 0 0 0 1 0 0 0 1 61.957457197790461 41.203874058915723 11.73594275351587 1 rotate no_reflect no_shear #
lump $-1 $-1 $62 $14 #
transform $-1 1 0 0 0 1 0 0 0 1 61.957457197790461 41.203874058915723 11.73594275351587 1 rotate no_reflect no_shear #
lump $-1 $-1 $63 $15 #
transform $-1 1 0 0 0 1 0 0 0 1 61.957457197790461 41.203874058915723 11.73594275351587 1 rotate no_reflect no_shear #
shell $-1 $-1 $-1 $64 $-1 $16 #
shell $-1 $-1 $-1 $65 $-1 $18 #
shell $-1 $-1 $-1 $66 $-1 $20 #
shell $-1 $-1 $-1 $67 $-1 $22 #
shell $-1 $-1 $-1 $68 $-1 $24 #
shell $-1 $-1 $-1 $69 $-1 $26 #
shell $-1 $-1 $-1 $70 $-1 $28 #
shell $-1 $-1 $-1 $71 $-1 $30 #
shell $-1 $-1 $-1 $72 $-1 $32 #
shell $-1 $-1 $-1 $73 $-1 $34 #
shell $-1 $-1 $-1 $74 $-1 $36 #
shell $-1 $-1 $-1 $75 $-1 $38 #
shell $-1 $-1 $-1 $76 $-1 $40 #
shell $-1 $-1 $-1 $77 $-1 $42 #
shell $-1 $-1 $-1 $78 $-1 $44 #
shell $-1 $-1 $-1 $79 $-1 $46 #
face $-1 $80 $81 $48 $-1 $82 forward single #
face $-1 $83 $84 $49 $-1 $85 forward single #
face $-1 $86 $87 $50 $-1 $88 reversed single #
face $-1 $89 $90 $51 $-1 $91 forward single #
face $-1 $92 $93 $52 $-1 $94 forward single #
face $-1 $95 $96 $53 $-1 $97 reversed single #
face $-1 $98 $99 $54 $-1 $100 forward single #
face $-1 $101 $102 $55 $-1 $103 forward single #
face $-1 $104 $105 $56 $-1 $106 reversed single #
face $-1 $107 $108 $57 $-1 $109 forward single #
face $-1 $110 $111 $58 $-1 $112 forward single #
face $-1 $113 $114 $59 $-1 $115 forward single #
face $-1 $116 $117 $60 $-1 $118 reversed single #
face $-1 $119 $120 $61 $-1 $121 forward single #
face $-1 $122 $123 $62 $-1 $124 forward single #
face $-1 $125 $126 $63 $-1 $127 forward single #
face $-1 $128 $129 $48 $-1 $130 reversed single #
loop $-1 $-1 $131 $64 #
plane-surface $-1 0 0 11.73594275351587 0 0 1 1 0 0 forward_v I I I I #
face $-1 $132 $133 $49 $-1 $134 forward single #
loop $-1 $-1 $135 $65 #
plane-surface $-1 0 -41.203874058915723 0 0 1 0 0 0 1 forward_v I I I I #
face $-1 $136 $137 $50 $-1 $138 reversed single #
loop $-1 $-1 $139 $66 #
plane-surface $-1 -149.57853447368433 -17.687881414535767 94.905071091168509 0 1 0 -0.70710678939079041 0 0.70710677298230451 forward_v I I I I #
face $-1 $140 $141 $51 $-1 $142 forward single #
loop $-1 $143 $144 $67 #
cone-surface $-1 -59.377930402256453 -14.157308366561704 9.1564159145321558 0.70710678939079041 0 -0.70710677298230451 0.35355338649115226 0 0.35355339469539521 1 I I 0 1 0.5 forward I I I I #
face $-1 $145 $146 $52 $-1 $147 forward single #
loop $-1 $148 $149 $68 #
cone-surface $-1 -59.377930402256453 -8.8614487946006122 9.1564159145321558 0.70710678939079041 0 -0.70710677298230451 0.35355338649115226 0 0.35355339469539521 1 I I 0 1 0.5 forward I I I I #
face $-1 $150 $151 $53 $-1 $152 reversed single #
loop $-1 $-1 $153 $69 #
plane-surface $-1 -149.57853447368433 18.013355180627222 94.905071091168509 0 1 0 -0.70710678939079041 0 0.70710677298230451 forward_v I I I I #
face $-1 $154 $155 $54 $-1 $156 forward single #
loop $-1 $157 $158 $70 #
cone-surface $-1 -59.377930402256453 21.543928228601281 9.1564159145321558 0.70710678939079041 0 -0.70710677298230451 0.35355338649115226 0 0.35355339469539521 1 I I 0 1 0.5 forward I I I I #
face $-1 $159 $160 $55 $-1 $161 forward single #
loop $-1 $162 $163 $71 #
cone-surface $-1 -59.377930402256453 26.83978780056237 9.1564159145321558 0.70710678939079041 0 -0.70710677298230451 0.35355338649115226 0 0.35355339469539521 1 I I 0 1 0.5 forward I I I I #
face $-1 $164 $165 $56 $-1 $166 reversed single #
loop $-1 $-1 $167 $72 #
plane-surface $-1 22.53655163207182 -2.0219032665052978 177.78062629839187 0 -1 0 -0.52991927123019833 0 -0.84804809178421925 forward_v I I I I #
face $-1 $168 $169 $57 $-1 $170 forward single #
loop $-1 $171 $172 $73 #
cone-surface $-1 57.23583861045104 -12.153309948599293 7.8529914995833749 -0.52991927123019833 0 -0.84804809178421925 0.84804809178421925 0 -0.52991927123019833 1 I I 0 1 1 forward I I I I #
face $-1 $173 $174 $58 $-1 $175 forward single #
loop $-1 $176 $177 $74 #
cone-surface $-1 57.23583861045104 -8.3540324428140451 7.8529914995833749 -0.52991927123019833 0 -0.84804809178421925 0.84804809178421925 0 -0.52991927123019833 1 I I 0 1 1 forward I I I I #
face $-1 $178 $179 $59 $-1 $180 forward single #
loop $-1 $181 $182 $75 #
cone-surface $-1 57.23583861045104 -4.5547549370287967 7.8529914995833749 -0.52991927123019833 0 -0.84804809178421925 0.84804809178421925 0 -0.52991927123019833 1 I I 0 1 1 forward I I I I #
face $-1 $183 $184 $60 $-1 $185 reversed single #
loop $-1 $-1 $186 $76 #
plane-surface $-1 22.53655163207182 33.679333328657691 177.78062629839187 0 -1 0 -0.52991927123019833 0 -0.84804809178421925 forward_v I I I I #
face $-1 $187 $188 $61 $-1 $189 forward single #
loop $-1 $190 $191 $77 #
cone-surface $-1 57.23583861045104 23.547926646563688 7.8529914995833749 -0.52991927123019833 0 -0.84804809178421925 0.84804809178421925 0 -0.52991927123019833 1 I I 0 1 1 forward I I I I #
face $-1 $192 $193 $62 $-1 $194 forward single #
loop $-1 $195 $196 $78 #
cone-surface $-1 57.23583861045104 27.347204152348944 7.8529914995833749 -0.52991927123019833 0 -0.84804809178421925 0.84804809178421925 0 -0.52991927123019833 1 I I 0 1 1 forward I I I I #
face $-1 $197 $198 $63 $-1 $199 forward single #
loop $-1 $200 $201 $79 #
cone-surface $-1 57.23583861045104 31.146481658134185 7.8529914995833749 -0.52991927123019833 0 -0.84804809178421925 0.84804809178421925 0 -0.52991927123019833 1 I I 0 1 1 forward I I I I #
face $-1 $202 $203 $48 $-1 $204 reversed single #
loop $-1 $-1 $205 $80 #
plane-surface $-1 0 0 -11.73594275351587 0 0 1 1 0 0 forward_v I I I I #
coedge $-1 $206 $207 $208 $209 forward $81 $-1 #
face $-1 $210 $211 $49 $-1 $212 reversed single #
loop $-1 $-1 $213 $83 #
plane-surface $-1 0 0 11.73594275351587 0 0 1 1 0 0 forward_v I I I I #
coedge $-1 $214 $215 $216 $217 forward $84 $-1 #
face $-1 $218 $219 $50 $-1 $220 reversed single #
loop $-1 $-1 $221 $86 #
plane-surface $-1 -61.957457197790461 -11.509378580581156 7.2839958485307648 -0.70710678939079041 0 0.70710677298230451 0.70710677298230451 0 0.70710678939079041 forward_v I I I I #
coedge $-1 $222 $223 $224 $225 reversed $87 $-1 #
face $-1 $-1 $226 $51 $-1 $227 forward single #
loop $-1 $228 $229 $89 #
cone-surface $-1 -58.847600310213359 -14.157308366561704 8.6260858347954272 0.70710678939079041 0 -0.70710677298230451 0.17677669324557613 0 0.1767766973476976 1 I I -0.70710678118654746 0.70710678118654746 0.25 forward I I I I #
loop $-1 $-1 $230 $67 #
coedge $-1 $144 $144 $231 $232 reversed $90 $-1 #
face $-1 $-1 $233 $52 $-1 $234 forward single #
loop $-1 $235 $236 $92 #
cone-surface $-1 -58.847600310213359 -8.8614487946006122 8.6260858347954272 0.70710678939079041 0 -0.70710677298230451 0.17677669324557613 0 0.1767766973476976 1 I I -0.70710678118654746 0.70710678118654746 0.25 forward I I I I #
loop $-1 $-1 $237 $68 #
coedge $-1 $149 $149 $238 $239 reversed $93 $-1 #
face $-1 $240 $241 $53 $-1 $242 reversed single #
loop $-1 $-1 $243 $95 #
plane-surface $-1 -61.957457197790461 24.191858014581832 7.2839958485307648 -0.70710678939079041 0 0.70710677298230451 0.70710677298230451 0 0.70710678939079041 forward_v I I I I #
coedge $-1 $244 $245 $246 $247 reversed $96 $-1 #
face $-1 $-1 $248 $54 $-1 $249 forward single #
loop $-1 $250 $251 $98 #
cone-surface $-1 -58.847600310213359 21.543928228601281 8.6260858347954272 0.70710678939079041 0 -0.70710677298230451 0.17677669324557613 0 0.1767766973476976 1 I I -0.70710678118654746 0.70710678118654746 0.25 forward I I I I #
loop $-1 $-1 $252 $70 #
coedge $-1 $158 $158 $253 $254 reversed $99 $-1 #
face $-1 $-1 $255 $55 $-1 $256 forward single #
loop $-1 $257 $258 $101 #
cone-surface $-1 -58.847600310213359 26.83978780056237 8.6260858347954272 0.70710678939079041 0 -0.70710677298230451 0.17677669324557613 0 0.1767766973476976 1 I I -0.70710678118654746 0.70710678118654746 0.25 forward I I I I #
loop $-1 $-1 $259 $71 #
coedge $-1 $163 $163 $260 $261 reversed $102 $-1 #
face $-1 $262 $263 $56 $-1 $264 reversed single #
loop $-1 $-1 $265 $104 #
plane-surface $-1 -43.128349498986822 -8.3540324428140451 72.694819601614597 0.52991927123019833 0 0.84804809178421925 0.84804809178421925 0 -0.52991927123019833 forward_v I I I I #
coedge $-1 $266 $267 $268 $269 reversed $105 $-1 #
face $-1 $-1 $270 $57 $-1 $271 forward single #
loop $-1 $272 $273 $107 #
cone-surface $-1 56.01486689562509 -12.153309948599293 5.8990283412387274 -0.52991927123019833 0 -0.84804809178421925 0.42402404589210962 0 -0.26495963561509916 1 I I -0.70710678118654746 0.70710678118654746 0.5 forward I I I I #
loop $-1 $-1 $274 $73 #
coedge $-1 $172 $172 $275 $276 reversed $108 $-1 #
face $-1 $-1 $277 $58 $-1 $278 forward single #
loop $-1 $279 $280 $110 #
cone-surface $-1 56.01486689562509 -8.3540324428140451 5.8990283412387274 -0.52991927123019833 0 -0.84804809178421925 0.42402404589210962 0 -0.26495963561509916 1 I I -0.70710678118654746 0.70710678118654746 0.5 forward I I I I #
loop $-1 $-1 $281 $74 #
coedge $-1 $177 $177 $282 $283 reversed $111 $-1 #
face $-1 $-1 $284 $59 $-1 $285 forward single #
loop $-1 $286 $287 $113 #
cone-surface $-1 56.01486689562509 -4.5547549370287967 5.8990283412387274 -0.52991927123019833 0 -0.84804809178421925 0.42402404589210962 0 -0.26495963561509916 1 I I -0.70710678118654746 0.70710678118654746 0.5 forward I I I I #
loop $-1 $-1 $288 $75 #
coedge $-1 $182 $182 $289 $290 reversed $114 $-1 #
face $-1 $291 $292 $60 $-1 $293 reversed single #
loop $-1 $-1 $294 $116 #
plane-surface $-1 -43.128349498986822 27.347204152348944 72.694819601614597 0.52991927123019833 0 0.84804809178421925 0.84804809178421925 0 -0.52991927123019833 forward_v I I I I #
coedge $-1 $295 $296 $297 $298 reversed $117 $-1 #
face $-1 $-1 $299 $61 $-1 $300 forward single #
loop $-1 $301 $302 $119 #
cone-surface $-1 56.01486689562509 23.547926646563688 5.8990283412387274 -0.52991927123019833 0 -0.84804809178421925 0.42402404589210962 0 -0.26495963561509916 1 I I -0.70710678118654746 0.70710678118654746 0.5 forward I I I I #
loop $-1 $-1 $303 $77 #
coedge $-1 $191 $191 $304 $305 reversed $120 $-1 #
face $-1 $-1 $306 $62 $-1 $307 forward single #
loop $-1 $308 $309 $122 #
cone-surface $-1 56.01486689562509 27.347204152348944 5.8990283412387274 -0.52991927123019833 0 -0.84804809178421925 0.42402404589210962 0 -0.26495963561509916 1 I I -0.70710678118654746 0.70710678118654746 0.5 forward I I I I #
loop $-1 $-1 $310 $78 #
coedge $-1 $196 $196 $311 $312 reversed $123 $-1 #
face $-1 $-1 $313 $63 $-1 $314 forward single #
loop $-1 $315 $316 $125 #
cone-surface $-1 56.01486689562509 31.146481658134185 5.8990283412387274 -0.52991927123019833 0 -0.84804809178421925 0.42402404589210962 0 -0.26495963561509916 1 I I -0.70710678118654746 0.70710678118654746 0.5 forward I I I I #
loop $-1 $-1 $317 $79 #
coedge $-1 $201 $201 $318 $319 reversed $126 $-1 #
face $-1 $320 $321 $48 $-1 $322 reversed single #
loop $-1 $-1 $323 $128 #
plane-surface $-1 0 -41.203874058915723 0 0 1 0 0 0 1 forward_v I I I I #
coedge $-1 $324 $325 $326 $327 forward $129 $-1 #
coedge $-1 $328 $131 $329 $330 forward $81 $-1 #
coedge $-1 $131 $328 $331 $332 forward $81 $-1 #
coedge $-1 $333 $334 $131 $209 reversed $335 $-1 #
edge $-1 $336 -41.203874058915723 $337 41.203874058915723 $208 $338 forward 7 unknown #
face $-1 $339 $340 $49 $-1 $341 reversed single #
loop $-1 $-1 $342 $132 #
plane-surface $-1 -61.957457197790461 0 0 1 0 0 0 0 -1 forward_v I I I I #
coedge $-1 $343 $344 $215 $345 forward $133 $-1 #
coedge $-1 $346 $135 $347 $348 reversed $84 $-1 #
coedge $-1 $135 $346 $213 $345 reversed $84 $-1 #
coedge $-1 $349 $350 $135 $217 reversed $351 $-1 #
edge $-1 $352 -11.73594275351587 $353 11.73594275351587 $216 $354 forward 7 unknown #
face $-1 $355 $356 $50 $-1 $357 reversed single #
loop $-1 $-1 $358 $136 #
plane-surface $-1 -149.57853447368433 -5.3308757466265462 94.905071091168509 0 -1 0 0.70710678939079041 0 -0.70710677298230451 forward_v I I I I #
coedge $-1 $359 $360 $361 $362 reversed $137 $-1 #
coedge $-1 $223 $139 $363 $364 reversed $87 $-1 #
coedge $-1 $139 $222 $359 $365 reversed $87 $-1 #
coedge $-1 $361 $366 $139 $225 forward $367 $-1 #
edge $-1 $368 12.831810039051703 $369 17.28375684072892 $224 $370 forward 7 unknown #
loop $-1 $-1 $231 $140 #
plane-surface $-1 -61.957457197790461 -11.509378580581156 7.2839958485307648 -0.70710678939079041 0 0.70710677298230451 0.70710677298230451 0 0.70710678939079041 forward_v I I I I #
loop $-1 $-1 $371 $89 #
coedge $-1 $229 $229 $230 $372 reversed $141 $-1 #
coedge $-1 $230 $230 $229 $372 forward $143 $-1 #
coedge $-1 $231 $231 $144 $232 forward $226 $-1 #
edge $-1 $373 0 $373 6.2831853071796004 $231 $374 forward 7 unknown #
loop $-1 $-1 $238 $145 #
plane-surface $-1 -61.957457197790461 -11.509378580581156 7.2839958485307648 -0.70710678939079041 0 0.70710677298230451 0.70710677298230451 0 0.70710678939079041 forward_v I I I I #
loop $-1 $-1 $375 $92 #
coedge $-1 $236 $236 $237 $376 reversed $146 $-1 #
coedge $-1 $237 $237 $236 $376 forward $148 $-1 #
coedge $-1 $238 $238 $149 $239 forward $233 $-1 #
edge $-1 $377 0 $377 6.2831853071796004 $238 $378 forward 7 unknown #
face $-1 $379 $380 $53 $-1 $381 forward single #
loop $-1 $-1 $382 $150 #
plane-surface $-1 -149.57853447368433 30.370360848536443 94.905071091168509 0 -1 0 0.70710678939079041 0 -0.70710677298230451 forward_v I I I I #
coedge $-1 $383 $384 $385 $386 reversed $151 $-1 #
coedge $-1 $245 $153 $387 $388 reversed $96 $-1 #
coedge $-1 $153 $244 $383 $389 reversed $96 $-1 #
coedge $-1 $385 $390 $153 $247 forward $380 $-1 #
edge $-1 $391 12.831810039051703 $392 17.28375684072892 $246 $393 forward 7 unknown #
loop $-1 $-1 $253 $154 #
plane-surface $-1 -61.957457197790461 24.191858014581832 7.2839958485307648 -0.70710678939079041 0 0.70710677298230451 0.70710677298230451 0 0.70710678939079041 forward_v I I I I #
loop $-1 $-1 $394 $98 #
coedge $-1 $251 $251 $252 $395 reversed $155 $-1 #
coedge $-1 $252 $252 $251 $395 forward $157 $-1 #
coedge $-1 $253 $253 $158 $254 forward $248 $-1 #
edge $-1 $396 0 $396 6.2831853071796004 $253 $397 forward 7 unknown #
loop $-1 $-1 $260 $159 #
plane-surface $-1 -61.957457197790461 24.191858014581832 7.2839958485307648 -0.70710678939079041 0 0.70710677298230451 0.70710677298230451 0 0.70710678939079041 forward_v I I I I #
loop $-1 $-1 $398 $101 #
coedge $-1 $258 $258 $259 $399 reversed $160 $-1 #
coedge $-1 $259 $259 $258 $399 forward $162 $-1 #
coedge $-1 $260 $260 $163 $261 forward $255 $-1 #
edge $-1 $400 0 $400 6.2831853071796004 $260 $401 forward 7 unknown #
face $-1 $402 $403 $56 $-1 $404 forward single #
loop $-1 $-1 $405 $164 #
plane-surface $-1 22.53655163207182 -14.686161619122792 177.78062629839187 0 1 0 0.52991927123019833 0 0.84804809178421925 forward_v I I I I #
coedge $-1 $406 $407 $408 $409 reversed $165 $-1 #
coedge $-1 $267 $167 $410 $411 reversed $105 $-1 #
coedge $-1 $167 $266 $406 $412 reversed $105 $-1 #
coedge $-1 $408 $413 $167 $269 forward $403 $-1 #
edge $-1 $414 -50.689181381754551 $415 -43.15796836549741 $268 $416 forward 7 unknown #
loop $-1 $-1 $275 $168 #
plane-surface $-1 -43.128349498986822 -8.3540324428140451 72.694819601614597 0.52991927123019833 0 0.84804809178421925 0.84804809178421925 0 -0.52991927123019833 forward_v I I I I #
loop $-1 $-1 $417 $107 #
coedge $-1 $273 $273 $274 $418 reversed $169 $-1 #
coedge $-1 $274 $274 $273 $418 forward $171 $-1 #
coedge $-1 $275 $275 $172 $276 forward $270 $-1 #
edge $-1 $419 0 $419 6.2831853071796004 $275 $420 forward 7 unknown #
loop $-1 $-1 $282 $173 #
plane-surface $-1 -43.128349498986822 -8.3540324428140451 72.694819601614597 0.52991927123019833 0 0.84804809178421925 0.84804809178421925 0 -0.52991927123019833 forward_v I I I I #
loop $-1 $-1 $421 $110 #
coedge $-1 $280 $280 $281 $422 reversed $174 $-1 #
coedge $-1 $281 $281 $280 $422 forward $176 $-1 #
coedge $-1 $282 $282 $177 $283 forward $277 $-1 #
edge $-1 $423 0 $423 6.2831853071796004 $282 $424 forward 7 unknown #
loop $-1 $-1 $289 $178 #
plane-surface $-1 -43.128349498986822 -8.3540324428140451 72.694819601614597 0.52991927123019833 0 0.84804809178421925 0.84804809178421925 0 -0.52991927123019833 forward_v I I I I #
loop $-1 $-1 $425 $113 #
coedge $-1 $287 $287 $288 $426 reversed $179 $-1 #
coedge $-1 $288 $288 $287 $426 forward $181 $-1 #
coedge $-1 $289 $289 $182 $290 forward $284 $-1 #
edge $-1 $427 0 $427 6.2831853071796004 $289 $428 forward 7 unknown #
face $-1 $429 $430 $60 $-1 $431 reversed single #
loop $-1 $-1 $432 $183 #
plane-surface $-1 22.53655163207182 21.015074976040196 177.78062629839187 0 1 0 0.52991927123019833 0 0.84804809178421925 forward_v I I I I #
coedge $-1 $433 $434 $435 $436 reversed $184 $-1 #
coedge $-1 $296 $186 $437 $438 reversed $117 $-1 #
coedge $-1 $186 $295 $433 $439 reversed $117 $-1 #
coedge $-1 $435 $440 $186 $298 forward $441 $-1 #
edge $-1 $442 -50.689181381754551 $443 -43.15796836549741 $297 $444 forward 7 unknown #
loop $-1 $-1 $304 $187 #
plane-surface $-1 -43.128349498986822 27.347204152348944 72.694819601614597 0.52991927123019833 0 0.84804809178421925 0.84804809178421925 0 -0.52991927123019833 forward_v I I I I #
loop $-1 $-1 $445 $119 #
coedge $-1 $302 $302 $303 $446 reversed $188 $-1 #
coedge $-1 $303 $303 $302 $446 forward $190 $-1 #
coedge $-1 $304 $304 $191 $305 forward $299 $-1 #
edge $-1 $447 0 $447 6.2831853071796004 $304 $448 forward 7 unknown #
loop $-1 $-1 $311 $192 #
plane-surface $-1 -43.128349498986822 27.347204152348944 72.694819601614597 0.52991927123019833 0 0.84804809178421925 0.84804809178421925 0 -0.52991927123019833 forward_v I I I I #
loop $-1 $-1 $449 $122 #
coedge $-1 $309 $309 $310 $450 reversed $193 $-1 #
coedge $-1 $310 $310 $309 $450 forward $195 $-1 #
coedge $-1 $311 $311 $196 $312 forward $306 $-1 #
edge $-1 $451 0 $451 6.2831853071796004 $311 $452 forward 7 unknown #
loop $-1 $-1 $318 $197 #
plane-surface $-1 -43.128349498986822 27.347204152348944 72.694819601614597 0.52991927123019833 0 0.84804809178421925 0.84804809178421925 0 -0.52991927123019833 forward_v I I I I #
loop $-1 $-1 $453 $125 #
coedge $-1 $316 $316 $317 $454 reversed $198 $-1 #
coedge $-1 $317 $317 $316 $454 forward $200 $-1 #
coedge $-1 $318 $318 $201 $319 forward $313 $-1 #
edge $-1 $455 0 $455 6.2831853071796004 $318 $456 forward 7 unknown #
face $-1 $457 $458 $48 $-1 $459 reversed single #
loop $-1 $-1 $460 $202 #
plane-surface $-1 -61.957457197790461 0 0 1 0 0 0 0 -1 forward_v I I I I #
coedge $-1 $461 $331 $462 $463 forward $203 $-1 #
coedge $-1 $464 $205 $461 $465 forward $129 $-1 #
coedge $-1 $205 $464 $466 $467 forward $129 $-1 #
coedge $-1 $334 $333 $205 $327 reversed $335 $-1 #
edge $-1 $468 -41.203874058915723 $469 41.203874058915723 $326 $470 forward 7 unknown #
coedge $-1 $207 $206 $471 $472 forward $81 $-1 #
coedge $-1 $473 $474 $206 $330 reversed $458 $-1 #
edge $-1 $337 -61.957457197790461 $475 61.957457197790461 $329 $476 forward 7 unknown #
coedge $-1 $323 $477 $207 $332 reversed $203 $-1 #
edge $-1 $478 -61.957457197790461 $336 61.957457197790461 $331 $479 forward 7 unknown #
coedge $-1 $326 $208 $477 $480 forward $335 $-1 #
coedge $-1 $208 $326 $473 $481 reversed $335 $-1 #
loop $-1 $-1 $333 $457 #
vertex $-1 $209 $482 #
vertex $-1 $209 $483 #
straight-curve $-1 61.957457197790461 0 11.73594275351587 0 1 0 I I #
face $-1 $484 $351 $49 $-1 $485 reversed single #
loop $-1 $-1 $486 $210 #
plane-surface $-1 -59.369976768266099 -52.209148986421205 0 0 1 0 0 0 1 forward_v I I I I #
coedge $-1 $487 $488 $346 $489 forward $211 $-1 #
coedge $-1 $490 $213 $488 $491 forward $133 $-1 #
coedge $-1 $213 $490 $349 $492 forward $133 $-1 #
edge $-1 $352 56.782496338741737 $493 61.957457197790461 $213 $494 forward 7 unknown #
coedge $-1 $215 $214 $342 $489 reversed $84 $-1 #
coedge $-1 $495 $496 $214 $348 forward $497 $-1 #
edge $-1 $498 -61.957457197790461 $353 -56.782496338741737 $347 $499 forward 7 unknown #
coedge $-1 $500 $216 $344 $492 reversed $351 $-1 #
coedge $-1 $216 $500 $495 $501 reversed $351 $-1 #
loop $-1 $-1 $500 $339 #
vertex $-1 $345 $502 #
vertex $-1 $501 $503 #
straight-curve $-1 -56.782496338741737 -41.203874058915723 0 0 0 -1 I I #
face $-1 $-1 $367 $50 $-1 $504 forward single #
loop $-1 $-1 $505 $218 #
plane-surface $-1 -61.957457197790461 0 0 1 0 0 0 0 -1 forward_v I I I I #
coedge $-1 $506 $507 $508 $509 reversed $219 $-1 #
coedge $-1 $510 $221 $223 $365 forward $137 $-1 #
coedge $-1 $221 $510 $506 $511 forward $137 $-1 #
coedge $-1 $508 $224 $221 $362 forward $367 $-1 #
edge $-1 $369 -11.933192124245188 $512 0.42381354366403201 $361 $513 forward 7 unknown #
coedge $-1 $514 $515 $222 $364 forward $356 $-1 #
edge $-1 $516 -40.16853969705349 $368 -35.716592792068383 $363 $517 forward 7 unknown #
edge $-1 $369 -6.2960036189451545 $516 0 $223 $518 forward 7 unknown #
coedge $-1 $224 $508 $514 $519 forward $367 $-1 #
loop $-1 $-1 $508 $355 #
vertex $-1 $364 $520 #
vertex $-1 $225 $521 #
straight-curve $-1 -74.789267236842164 -17.687881414535767 11.735942753515872 1 0 0 I I #
coedge $-1 $371 $371 $-1 $522 reversed $228 $-1 #
edge $-1 $523 0 $523 6.2831853071796004 $229 $524 forward 7 unknown #
vertex $-1 $232 $525 #
ellipse-curve $-1 -59.731483796951856 -14.157308366561704 9.5099693010233146 -0.70710678939079041 0 0.70710677298230451 0.35355338649115226 0 0.35355339469539521 1 I I #
coedge $-1 $375 $375 $-1 $526 reversed $235 $-1 #
edge $-1 $527 0 $527 6.2831853071796004 $236 $528 forward 7 unknown #
vertex $-1 $239 $529 #
ellipse-curve $-1 -59.731483796951856 -8.8614487946006122 9.5099693010233146 -0.70710678939079041 0 0.70710677298230451 0.35355338649115226 0 0.35355339469539521 1 I I #
face $-1 $-1 $530 $53 $-1 $531 reversed single #
loop $-1 $-1 $246 $240 #
plane-surface $-1 0 0 11.73594275351587 0 0 1 1 0 0 forward_v I I I I #
coedge $-1 $532 $533 $534 $535 reversed $241 $-1 #
coedge $-1 $536 $243 $245 $389 forward $151 $-1 #
coedge $-1 $243 $536 $532 $537 forward $151 $-1 #
coedge $-1 $534 $246 $243 $386 forward $380 $-1 #
edge $-1 $392 5.9174261733363061 $538 18.274431841245526 $385 $539 forward 7 unknown #
coedge $-1 $540 $541 $244 $388 forward $530 $-1 #
edge $-1 $542 -40.16853969705349 $391 -35.716592792068383 $387 $543 forward 7 unknown #
edge $-1 $392 -6.2960036189451545 $542 0 $245 $544 forward 7 unknown #
coedge $-1 $246 $534 $540 $545 forward $380 $-1 #
vertex $-1 $388 $546 #
vertex $-1 $247 $547 #
straight-curve $-1 -74.789267236842164 18.013355180627222 11.735942753515872 1 0 0 I I #
coedge $-1 $394 $394 $-1 $548 reversed $250 $-1 #
edge $-1 $549 0 $549 6.2831853071796004 $251 $550 forward 7 unknown #
vertex $-1 $254 $551 #
ellipse-curve $-1 -59.731483796951856 21.543928228601281 9.5099693010233146 -0.70710678939079041 0 0.70710677298230451 0.35355338649115226 0 0.35355339469539521 1 I I #
coedge $-1 $398 $398 $-1 $552 reversed $257 $-1 #
edge $-1 $553 0 $553 6.2831853071796004 $258 $554 forward 7 unknown #
vertex $-1 $261 $555 #
ellipse-curve $-1 -59.731483796951856 26.83978780056237 9.5099693010233146 -0.70710678939079041 0 0.70710677298230451 0.35355338649115226 0 0.35355339469539521 1 I I #
face $-1 $-1 $556 $56 $-1 $557 reversed single #
loop $-1 $-1 $268 $262 #
plane-surface $-1 0 0 11.73594275351587 0 0 1 1 0 0 forward_v I I I I #
coedge $-1 $558 $559 $560 $561 reversed $263 $-1 #
coedge $-1 $562 $265 $267 $412 forward $165 $-1 #
coedge $-1 $265 $562 $558 $563 forward $165 $-1 #
coedge $-1 $560 $268 $265 $409 forward $403 $-1 #
edge $-1 $415 -2.1551129549017247 $564 10.50914539771577 $408 $565 forward 7 unknown #
coedge $-1 $566 $567 $266 $411 forward $556 $-1 #
edge $-1 $568 -81.860394678639992 $414 -77.154370395680061 $410 $569 forward 7 unknown #
edge $-1 $415 115.03427060990585 $568 123.91491439558092 $267 $570 forward 7 unknown #
coedge $-1 $268 $560 $566 $571 forward $403 $-1 #
vertex $-1 $269 $572 #
vertex $-1 $269 $573 #
straight-curve $-1 11.26827581603591 -2.0219032665052978 11.735942753515872 -1 0 0 I I #
coedge $-1 $417 $417 $-1 $574 reversed $272 $-1 #
edge $-1 $575 0 $575 6.2831853071796004 $273 $576 forward 7 unknown #
vertex $-1 $276 $577 #
ellipse-curve $-1 58.191850689661891 -12.153309948599293 9.3829306120359117 0.52991927123019833 0 0.84804809178421925 0.84804809178421925 0 -0.52991927123019833 1 I I #
coedge $-1 $421 $421 $-1 $578 reversed $279 $-1 #
edge $-1 $579 0 $579 6.2831853071796004 $280 $580 forward 7 unknown #
vertex $-1 $283 $581 #
ellipse-curve $-1 58.191850689661891 -8.3540324428140451 9.3829306120359117 0.52991927123019833 0 0.84804809178421925 0.84804809178421925 0 -0.52991927123019833 1 I I #
coedge $-1 $425 $425 $-1 $582 reversed $286 $-1 #
edge $-1 $583 0 $583 6.2831853071796004 $287 $584 forward 7 unknown #
vertex $-1 $290 $585 #
ellipse-curve $-1 58.191850689661891 -4.5547549370287967 9.3829306120359117 0.52991927123019833 0 0.84804809178421925 0.84804809178421925 0 -0.52991927123019833 1 I I #
face $-1 $-1 $441 $60 $-1 $586 forward single #
loop $-1 $-1 $587 $291 #
plane-surface $-1 61.957457197790461 0 0 -1 0 0 0 0 1 forward_v I I I I #
coedge $-1 $588 $589 $590 $591 reversed $292 $-1 #
coedge $-1 $592 $294 $296 $439 forward $184 $-1 #
coedge $-1 $294 $592 $588 $593 forward $184 $-1 #
coedge $-1 $590 $297 $294 $436 forward $441 $-1 #
edge $-1 $443 -20.005731252483219 $594 -7.3414728998657246 $435 $595 forward 7 unknown #
coedge $-1 $596 $597 $295 $438 forward $430 $-1 #
edge $-1 $598 -81.860394678639992 $442 -77.154370395680061 $437 $599 forward 7 unknown #
edge $-1 $443 115.03427060990585 $598 123.91491439558092 $296 $600 forward 7 unknown #
coedge $-1 $297 $590 $596 $601 forward $441 $-1 #
loop $-1 $-1 $590 $429 #
vertex $-1 $438 $602 #
vertex $-1 $298 $603 #
straight-curve $-1 11.26827581603591 33.679333328657691 11.735942753515872 -1 0 0 I I #
coedge $-1 $445 $445 $-1 $604 reversed $301 $-1 #
edge $-1 $605 0 $605 6.2831853071796004 $302 $606 forward 7 unknown #
vertex $-1 $305 $607 #
ellipse-curve $-1 58.191850689661891 23.547926646563688 9.3829306120359117 0.52991927123019833 0 0.84804809178421925 0.84804809178421925 0 -0.52991927123019833 1 I I #
coedge $-1 $449 $449 $-1 $608 reversed $308 $-1 #
edge $-1 $609 0 $609 6.2831853071796004 $309 $610 forward 7 unknown #
vertex $-1 $312 $611 #
ellipse-curve $-1 58.191850689661891 27.347204152348944 9.3829306120359117 0.52991927123019833 0 0.84804809178421925 0.84804809178421925 0 -0.52991927123019833 1 I I #
coedge $-1 $453 $453 $-1 $612 reversed $315 $-1 #
edge $-1 $613 0 $613 6.2831853071796004 $316 $614 forward 7 unknown #
vertex $-1 $319 $615 #
ellipse-curve $-1 58.191850689661891 31.146481658134185 9.3829306120359117 0.52991927123019833 0 0.84804809178421925 0.84804809178421925 0 -0.52991927123019833 1 I I #
face $-1 $-1 $335 $48 $-1 $616 reversed single #
loop $-1 $-1 $473 $320 #
plane-surface $-1 0 41.203874058915723 0 0 -1 0 0 0 -1 forward_v I I I I #
coedge $-1 $617 $471 $474 $618 forward $321 $-1 #
coedge $-1 $477 $323 $324 $465 reversed $203 $-1 #
coedge $-1 $471 $617 $323 $463 reversed $321 $-1 #
edge $-1 $478 -11.73594275351587 $619 11.73594275351587 $462 $620 forward 7 unknown #
coedge $-1 $325 $324 $617 $621 forward $129 $-1 #
edge $-1 $469 -61.957457197790461 $619 61.957457197790461 $461 $622 forward 7 unknown #
coedge $-1 $474 $473 $325 $467 reversed $458 $-1 #
edge $-1 $623 -61.957457197790461 $468 61.957457197790461 $466 $624 forward 7 unknown #
vertex $-1 $327 $625 #
vertex $-1 $480 $626 #
straight-curve $-1 61.957457197790461 0 -11.73594275351587 0 -1 0 I I #
coedge $-1 $460 $462 $328 $472 reversed $321 $-1 #
edge $-1 $475 -41.203874058915723 $478 41.203874058915723 $471 $627 forward 7 unknown #
coedge $-1 $466 $329 $334 $481 forward $458 $-1 #
coedge $-1 $329 $466 $460 $618 reversed $458 $-1 #
vertex $-1 $330 $628 #
straight-curve $-1 0 41.203874058915723 11.73594275351587 -1 0 0 I I #
coedge $-1 $331 $461 $333 $480 reversed $203 $-1 #
vertex $-1 $472 $629 #
straight-curve $-1 0 -41.203874058915723 11.73594275351587 1 0 0 I I #
edge $-1 $336 -11.73594275351587 $469 11.73594275351587 $333 $630 forward 7 unknown #
edge $-1 $337 -11.73594275351587 $468 11.73594275351587 $334 $631 forward 7 unknown #
point $-1 61.957457197790461 -41.203874058915723 11.73594275351587 #
point $-1 61.957457197790461 41.203874058915723 11.73594275351587 #
face $-1 $-1 $497 $49 $-1 $632 reversed single #
plane-surface $-1 -56.782496338741737 -46.706511522668464 0 -1 0 0 0 0 1 forward_v I I I I #
coedge $-1 $633 $634 $635 $636 forward $340 $-1 #
coedge $-1 $635 $342 $496 $637 reversed $211 $-1 #
coedge $-1 $342 $635 $343 $491 reversed $211 $-1 #
edge $-1 $493 -11.73594275351587 $498 11.73594275351587 $342 $638 forward 7 unknown #
coedge $-1 $344 $343 $634 $639 forward $133 $-1 #
edge $-1 $493 41.203874058915723 $640 52.209148986421205 $488 $641 forward 7 unknown #
edge $-1 $642 -5.5026374637527411 $352 5.5026374637527411 $349 $643 forward 7 unknown #
vertex $-1 $491 $644 #
straight-curve $-1 0 -41.203874058915723 11.73594275351587 -1 0 0 I I #
coedge $-1 $645 $347 $350 $501 forward $497 $-1 #
coedge $-1 $347 $645 $487 $637 forward $497 $-1 #
loop $-1 $-1 $347 $484 #
vertex $-1 $489 $646 #
straight-curve $-1 0 -41.203874058915723 -11.73594275351587 1 0 0 I I #
coedge $-1 $350 $349 $647 $648 forward $351 $-1 #
edge $-1 $353 -5.5026374637527411 $649 5.5026374637527411 $350 $650 forward 7 unknown #
point $-1 -56.782496338741737 -41.203874058915723 11.73594275351587 #
point $-1 -56.782496338741737 -41.203874058915723 -11.73594275351587 #
plane-surface $-1 0 0 11.73594275351587 0 0 1 1 0 0 forward_v I I I I #
coedge $-1 $515 $514 $507 $651 forward $356 $-1 #
coedge $-1 $507 $358 $360 $511 reversed $219 $-1 #
coedge $-1 $358 $506 $505 $651 reversed $219 $-1 #
coedge $-1 $366 $361 $358 $509 forward $367 $-1 #
edge $-1 $512 -17.28375684072892 $652 -12.831810039051703 $508 $653 forward 7 unknown #
coedge $-1 $360 $359 $515 $654 reversed $137 $-1 #
edge $-1 $655 0 $512 6.2960036189451545 $506 $656 forward 7 unknown #
vertex $-1 $362 $657 #
straight-curve $-1 -57.505510396113252 -5.7546892902905782 11.73594275351587 0 1 0 I I #
coedge $-1 $505 $363 $366 $519 reversed $356 $-1 #
coedge $-1 $363 $505 $510 $654 forward $356 $-1 #
vertex $-1 $364 $658 #
straight-curve $-1 -61.957457197790461 -17.687881414535767 47.452535545584254 0 0 1 I I #
straight-curve $-1 -61.957457197790461 -17.687881414535767 7.2839958485307648 -0.70710677298230451 0 -0.70710678939079041 I I #
edge $-1 $652 5.3308757466265462 $368 17.687881414535767 $514 $659 forward 7 unknown #
point $-1 -61.957457197790461 -17.687881414535767 11.73594275351587 #
point $-1 -57.505510396113245 -17.687881414535767 11.73594275351587 #
edge $-1 $660 1 $660 0 $371 $-1 forward 7 unknown #
vertex $-1 $372 $661 #
ellipse-curve $-1 -59.024377007561057 -14.157308366561704 8.802862528041004 -0.70710678939079041 0 0.70710677298230451 0.35355338649115226 0 0.35355339469539521 1 I I #
point $-1 -59.377930410460692 -14.157308366561704 9.8635226957187037 #
edge $-1 $662 1 $662 0 $375 $-1 forward 7 unknown #
vertex $-1 $376 $663 #
ellipse-curve $-1 -59.024377007561057 -8.8614487946006122 8.802862528041004 -0.70710678939079041 0 0.70710677298230451 0.35355338649115226 0 0.35355339469539521 1 I I #
point $-1 -59.377930410460692 -8.8614487946006122 9.8635226957187037 #
loop $-1 $-1 $387 $379 #
plane-surface $-1 -61.957457197790461 0 0 1 0 0 0 0 -1 forward_v I I I I #
coedge $-1 $533 $382 $384 $537 reversed $241 $-1 #
coedge $-1 $382 $532 $664 $665 reversed $241 $-1 #
coedge $-1 $390 $385 $382 $535 forward $380 $-1 #
edge $-1 $538 -17.28375684072892 $666 -12.831810039051703 $534 $667 forward 7 unknown #
coedge $-1 $384 $383 $541 $668 reversed $151 $-1 #
edge $-1 $669 0 $538 6.2960036189451545 $532 $670 forward 7 unknown #
vertex $-1 $386 $671 #
straight-curve $-1 -57.505510396113252 12.095929007290916 11.73594275351587 0 1 0 I I #
coedge $-1 $664 $387 $390 $545 reversed $530 $-1 #
coedge $-1 $387 $664 $536 $668 forward $530 $-1 #
vertex $-1 $388 $672 #
straight-curve $-1 -61.957457197790461 18.013355180627222 47.452535545584254 0 0 1 I I #
straight-curve $-1 -61.957457197790461 18.013355180627222 7.2839958485307648 -0.70710677298230451 0 -0.70710678939079041 I I #
edge $-1 $666 -30.370360848536443 $391 -18.013355180627222 $540 $673 forward 7 unknown #
point $-1 -61.957457197790461 18.013355180627222 11.73594275351587 #
point $-1 -57.505510396113245 18.013355180627222 11.73594275351587 #
edge $-1 $674 1 $674 0 $394 $-1 forward 7 unknown #
vertex $-1 $395 $675 #
ellipse-curve $-1 -59.024377007561057 21.543928228601281 8.802862528041004 -0.70710678939079041 0 0.70710677298230451 0.35355338649115226 0 0.35355339469539521 1 I I #
point $-1 -59.377930410460692 21.543928228601281 9.8635226957187037 #
edge $-1 $676 1 $676 0 $398 $-1 forward 7 unknown #
vertex $-1 $399 $677 #
ellipse-curve $-1 -59.024377007561057 26.83978780056237 8.802862528041004 -0.70710678939079041 0 0.70710677298230451 0.35355338649115226 0 0.35355339469539521 1 I I #
point $-1 -59.377930410460692 26.83978780056237 9.8635226957187037 #
loop $-1 $-1 $410 $402 #
plane-surface $-1 61.957457197790461 0 0 -1 0 0 0 0 1 forward_v I I I I #
coedge $-1 $559 $405 $407 $563 reversed $263 $-1 #
coedge $-1 $405 $558 $678 $679 reversed $263 $-1 #
coedge $-1 $413 $408 $405 $561 forward $403 $-1 #
edge $-1 $564 43.15796836549741 $680 50.689181381754551 $560 $681 forward 7 unknown #
coedge $-1 $407 $406 $567 $682 reversed $165 $-1 #
edge $-1 $683 -123.91491439558092 $564 -115.03427060990585 $558 $684 forward 7 unknown #
vertex $-1 $409 $685 #
straight-curve $-1 54.426244181533328 -4.1770162214070226 11.735942753515864 0 -1 0 I I #
coedge $-1 $678 $410 $413 $571 reversed $556 $-1 #
coedge $-1 $410 $678 $562 $682 forward $556 $-1 #
vertex $-1 $411 $686 #
straight-curve $-1 61.957457197790461 -2.0219032665052978 88.890313149195933 0 0 1 I I #
straight-curve $-1 -43.128349498986822 -2.0219032665052978 72.694819601614597 0.84804809178421925 0 -0.52991927123019833 I I #
edge $-1 $680 -14.686161619122792 $414 -2.0219032665052978 $566 $687 forward 7 unknown #
point $-1 61.957457197790461 -2.0219032665052978 11.73594275351587 #
point $-1 54.42624418153332 -2.0219032665052978 11.735942753515872 #
edge $-1 $688 1 $688 0 $417 $-1 forward 7 unknown #
vertex $-1 $418 $689 #
ellipse-curve $-1 56.27982653124019 -12.153309948599293 6.3230523871308373 0.52991927123019833 0 0.84804809178421925 0.84804809178421925 0 -0.52991927123019833 1 I I #
point $-1 59.039898781446112 -12.153309948599293 8.8530113408057147 #
edge $-1 $690 1 $690 0 $421 $-1 forward 7 unknown #
vertex $-1 $422 $691 #
ellipse-curve $-1 56.27982653124019 -8.3540324428140451 6.3230523871308373 0.52991927123019833 0 0.84804809178421925 0.84804809178421925 0 -0.52991927123019833 1 I I #
point $-1 59.039898781446112 -8.3540324428140451 8.8530113408057147 #
edge $-1 $692 1 $692 0 $425 $-1 forward 7 unknown #
vertex $-1 $426 $693 #
ellipse-curve $-1 56.27982653124019 -4.5547549370287967 6.3230523871308373 0.52991927123019833 0 0.84804809178421925 0.84804809178421925 0 -0.52991927123019833 1 I I #
point $-1 59.039898781446112 -4.5547549370287967 8.8530113408057147 #
plane-surface $-1 0 0 11.73594275351587 0 0 1 1 0 0 forward_v I I I I #
coedge $-1 $597 $596 $589 $694 forward $430 $-1 #
coedge $-1 $589 $432 $434 $593 reversed $292 $-1 #
coedge $-1 $432 $588 $587 $694 reversed $292 $-1 #
coedge $-1 $440 $435 $432 $591 forward $441 $-1 #
edge $-1 $594 43.15796836549741 $695 50.689181381754551 $590 $696 forward 7 unknown #
coedge $-1 $434 $433 $597 $697 reversed $184 $-1 #
edge $-1 $698 -123.91491439558092 $594 -115.03427060990585 $588 $699 forward 7 unknown #
vertex $-1 $436 $700 #
straight-curve $-1 54.426244181533328 13.673602076174472 11.735942753515864 0 -1 0 I I #
coedge $-1 $587 $437 $440 $601 reversed $430 $-1 #
coedge $-1 $437 $587 $592 $697 forward $430 $-1 #
vertex $-1 $438 $701 #
straight-curve $-1 61.957457197790461 33.679333328657691 88.890313149195933 0 0 1 I I #
straight-curve $-1 -43.128349498986822 33.679333328657691 72.694819601614597 0.84804809178421925 0 -0.52991927123019833 I I #
edge $-1 $695 21.015074976040196 $442 33.679333328657691 $596 $702 forward 7 unknown #
point $-1 61.957457197790461 33.679333328657691 11.73594275351587 #
point $-1 54.42624418153332 33.679333328657691 11.735942753515872 #
edge $-1 $703 1 $703 0 $445 $-1 forward 7 unknown #
vertex $-1 $446 $704 #
ellipse-curve $-1 56.27982653124019 23.547926646563688 6.3230523871308373 0.52991927123019833 0 0.84804809178421925 0.84804809178421925 0 -0.52991927123019833 1 I I #
point $-1 59.039898781446112 23.547926646563688 8.8530113408057147 #
edge $-1 $705 1 $705 0 $449 $-1 forward 7 unknown #
vertex $-1 $450 $706 #
ellipse-curve $-1 56.27982653124019 27.347204152348944 6.3230523871308373 0.52991927123019833 0 0.84804809178421925 0.84804809178421925 0 -0.52991927123019833 1 I I #
point $-1 59.039898781446112 27.347204152348944 8.8530113408057147 #
edge $-1 $707 1 $707 0 $453 $-1 forward 7 unknown #
vertex $-1 $454 $708 #
ellipse-curve $-1 56.27982653124019 31.146481658134185 6.3230523871308373 0.52991927123019833 0 0.84804809178421925 0.84804809178421925 0 -0.52991927123019833 1 I I #
point $-1 59.039898781446112 31.146481658134185 8.8530113408057147 #
plane-surface $-1 61.957457197790461 0 0 -1 0 0 0 0 1 forward_v I I I I #
coedge $-1 $462 $460 $464 $621 reversed $321 $-1 #
edge $-1 $475 -11.73594275351587 $623 11.73594275351587 $474 $709 forward 7 unknown #
vertex $-1 $621 $710 #
straight-curve $-1 -61.957457197790461 -41.203874058915723 0 0 0 -1 I I #
edge $-1 $619 -41.203874058915723 $623 41.203874058915723 $617 $711 forward 7 unknown #
straight-curve $-1 0 -41.203874058915723 -11.73594275351587 -1 0 0 I I #
vertex $-1 $467 $712 #
straight-curve $-1 0 41.203874058915723 -11.73594275351587 1 0 0 I I #
point $-1 61.957457197790461 41.203874058915723 -11.73594275351587 #
point $-1 61.957457197790461 -41.203874058915723 -11.73594275351587 #
straight-curve $-1 -61.957457197790461 0 11.73594275351587 0 -1 0 I I #
point $-1 -61.957457197790461 41.203874058915723 11.73594275351587 #
point $-1 -61.957457197790461 -41.203874058915723 11.73594275351587 #
straight-curve $-1 61.957457197790461 -41.203874058915723 0 0 0 -1 I I #
straight-curve $-1 61.957457197790461 41.203874058915723 0 0 0 -1 I I #
plane-surface $-1 0 0 -11.73594275351587 0 0 1 1 0 0 forward_v I I I I #
coedge $-1 $647 $486 $645 $713 reversed $340 $-1 #
coedge $-1 $486 $647 $490 $639 reversed $340 $-1 #
coedge $-1 $488 $487 $486 $636 reversed $211 $-1 #
edge $-1 $640 -11.73594275351587 $714 11.73594275351587 $635 $715 forward 7 unknown #
edge $-1 $714 -52.209148986421205 $498 -41.203874058915723 $487 $716 forward 7 unknown #
straight-curve $-1 -61.957457197790461 -41.203874058915723 0 0 0 -1 I I #
edge $-1 $640 -2.5874804295243621 $642 2.5874804295243621 $634 $717 forward 7 unknown #
vertex $-1 $491 $718 #
straight-curve $-1 -61.957457197790461 0 11.73594275351587 0 -1 0 I I #
vertex $-1 $492 $719 #
straight-curve $-1 -56.782496338741737 -46.706511522668464 11.73594275351587 0 1 0 I I #
point $-1 -61.957457197790461 -41.203874058915723 11.73594275351587 #
coedge $-1 $496 $495 $633 $713 forward $497 $-1 #
point $-1 -61.957457197790461 -41.203874058915723 -11.73594275351587 #
coedge $-1 $634 $633 $500 $648 reversed $340 $-1 #
edge $-1 $642 -11.73594275351587 $649 11.73594275351587 $500 $720 forward 7 unknown #
vertex $-1 $648 $721 #
straight-curve $-1 -56.782496338741737 -46.706511522668464 -11.73594275351587 0 -1 0 I I #
edge $-1 $652 35.716592792068383 $655 40.16853969705349 $505 $722 forward 7 unknown #
vertex $-1 $519 $723 #
straight-curve $-1 -74.789267236842164 -5.3308757466265462 11.735942753515872 -1 0 0 I I #
edge $-1 $655 -0.42381354366403201 $516 11.933192124245188 $515 $724 forward 7 unknown #
vertex $-1 $654 $725 #
straight-curve $-1 -61.957457197790461 -5.3308757466265462 7.2839958485307648 0.70710677298230451 0 0.70710678939079041 I I #
point $-1 -57.505510396113245 -5.3308757466265462 11.73594275351587 #
point $-1 -61.957457197790461 -17.687881414535767 7.2839958485307648 #
straight-curve $-1 -61.957457197790461 0 11.73594275351587 0 -1 0 I I #
vertex $-1 $522 $726 #
point $-1 -58.670823621069907 -14.157308366561704 9.1564159227363984 #
vertex $-1 $526 $727 #
point $-1 -58.670823621069907 -8.8614487946006122 9.1564159227363984 #
coedge $-1 $541 $540 $533 $665 forward $530 $-1 #
edge $-1 $666 35.716592792068383 $669 40.16853969705349 $664 $728 forward 7 unknown #
vertex $-1 $545 $729 #
straight-curve $-1 -74.789267236842164 30.370360848536443 11.735942753515872 -1 0 0 I I #
edge $-1 $669 -18.274431841245526 $542 -5.9174261733363061 $541 $730 forward 7 unknown #
vertex $-1 $668 $731 #
straight-curve $-1 -61.957457197790461 30.370360848536443 7.2839958485307648 0.70710677298230451 0 0.70710678939079041 I I #
point $-1 -57.505510396113245 30.370360848536443 11.73594275351587 #
point $-1 -61.957457197790461 18.013355180627222 7.2839958485307648 #
straight-curve $-1 -61.957457197790461 0 11.73594275351587 0 -1 0 I I #
vertex $-1 $548 $732 #
point $-1 -58.670823621069907 21.543928228601281 9.1564159227363984 #
vertex $-1 $552 $733 #
point $-1 -58.670823621069907 26.83978780056237 9.1564159227363984 #
coedge $-1 $567 $566 $559 $679 forward $556 $-1 #
edge $-1 $680 77.154370395680061 $683 81.860394678639992 $678 $734 forward 7 unknown #
vertex $-1 $571 $735 #
straight-curve $-1 11.26827581603591 -14.686161619122792 11.735942753515872 1 0 0 I I #
edge $-1 $683 -10.50914539771577 $568 2.1551129549017247 $567 $736 forward 7 unknown #
vertex $-1 $682 $737 #
straight-curve $-1 -43.128349498986822 -14.686161619122792 72.694819601614597 -0.84804809178421925 0 0.52991927123019833 I I #
point $-1 54.42624418153332 -14.686161619122792 11.735942753515872 #
point $-1 61.957457197790461 -2.0219032665052978 7.0299184705559412 #
straight-curve $-1 61.957457197790461 0 11.73594275351587 0 1 0 I I #
vertex $-1 $574 $738 #
point $-1 57.127874623024411 -12.153309948599293 5.7931331159006385 #
vertex $-1 $578 $739 #
point $-1 57.127874623024411 -8.3540324428140451 5.7931331159006385 #
vertex $-1 $582 $740 #
point $-1 57.127874623024411 -4.5547549370287967 5.7931331159006385 #
edge $-1 $695 77.154370395680061 $698 81.860394678639992 $587 $741 forward 7 unknown #
vertex $-1 $601 $742 #
straight-curve $-1 11.26827581603591 21.015074976040196 11.735942753515872 1 0 0 I I #
edge $-1 $698 7.3414728998657246 $598 20.005731252483219 $597 $743 forward 7 unknown #
vertex $-1 $697 $744 #
straight-curve $-1 -43.128349498986822 21.015074976040196 72.694819601614597 -0.84804809178421925 0 0.52991927123019833 I I #
point $-1 54.42624418153332 21.015074976040196 11.735942753515872 #
point $-1 61.957457197790461 33.679333328657691 7.0299184705559412 #
straight-curve $-1 61.957457197790461 0 11.73594275351587 0 1 0 I I #
vertex $-1 $604 $745 #
point $-1 57.127874623024411 23.547926646563688 5.7931331159006385 #
vertex $-1 $608 $746 #
point $-1 57.127874623024411 27.347204152348944 5.7931331159006385 #
vertex $-1 $612 $747 #
point $-1 57.127874623024411 31.146481658134185 5.7931331159006385 #
straight-curve $-1 -61.957457197790461 41.203874058915723 0 0 0 -1 I I #
point $-1 -61.957457197790461 -41.203874058915723 -11.73594275351587 #
straight-curve $-1 -61.957457197790461 0 -11.73594275351587 0 1 0 I I #
point $-1 -61.957457197790461 41.203874058915723 -11.73594275351587 #
edge $-1 $649 -2.5874804295243621 $714 2.5874804295243621 $633 $748 forward 7 unknown #
vertex $-1 $637 $749 #
straight-curve $-1 -61.957457197790461 -52.209148986421205 0 0 0 -1 I I #
straight-curve $-1 -61.957457197790461 0 -11.73594275351587 0 1 0 I I #
straight-curve $-1 -59.369976768266099 -52.209148986421205 11.73594275351587 1 0 0 I I #
point $-1 -61.957457197790461 -52.209148986421205 11.73594275351587 #
point $-1 -56.782496338741737 -52.209148986421205 11.73594275351587 #
straight-curve $-1 -56.782496338741737 -52.209148986421205 0 0 0 -1 I I #
point $-1 -56.782496338741737 -52.209148986421205 -11.73594275351587 #
straight-curve $-1 -61.957457197790461 -5.3308757466265462 47.452535545584254 0 0 -1 I I #
point $-1 -61.957457197790461 -5.3308757466265462 11.73594275351587 #
straight-curve $-1 -61.957457197790461 -5.7546892902905782 7.2839958485307648 0 -1 0 I I #
point $-1 -61.957457197790461 -5.3308757466265462 7.2839958485307648 #
point $-1 -58.670823612865661 -14.157308366561704 8.4493091415498505 #
point $-1 -58.670823612865661 -8.8614487946006122 8.4493091415498505 #
straight-curve $-1 -61.957457197790461 30.370360848536443 47.452535545584254 0 0 -1 I I #
point $-1 -61.957457197790461 30.370360848536443 11.73594275351587 #
straight-curve $-1 -61.957457197790461 12.095929007290916 7.2839958485307648 0 -1 0 I I #
point $-1 -61.957457197790461 30.370360848536443 7.2839958485307648 #
point $-1 -58.670823612865661 21.543928228601281 8.4493091415498505 #
point $-1 -58.670823612865661 26.83978780056237 8.4493091415498505 #
straight-curve $-1 61.957457197790461 -14.686161619122792 88.890313149195933 0 0 -1 I I #
point $-1 61.957457197790461 -14.686161619122792 11.73594275351587 #
straight-curve $-1 61.957457197790461 -4.1770162214070226 7.0299184705559377 0 1 0 I I #
point $-1 61.957457197790461 -14.686161619122792 7.0299184705559412 #
point $-1 55.749907260009991 -12.153309948599293 5.4750042953466176 #
point $-1 55.749907260009991 -8.3540324428140451 5.4750042953466176 #
point $-1 55.749907260009991 -4.5547549370287967 5.4750042953466176 #
straight-curve $-1 61.957457197790461 21.015074976040196 88.890313149195933 0 0 -1 I I #
point $-1 61.957457197790461 21.015074976040196 11.73594275351587 #
straight-curve $-1 61.957457197790461 13.673602076174472 7.0299184705559377 0 1 0 I I #
point $-1 61.957457197790461 21.015074976040196 7.0299184705559412 #
point $-1 55.749907260009991 23.547926646563688 5.4750042953466176 #
point $-1 55.749907260009991 27.347204152348944 5.4750042953466176 #
point $-1 55.749907260009991 31.146481658134185 5.4750042953466176 #
straight-curve $-1 -59.369976768266099 -52.209148986421205 -11.73594275351587 -1 0 0 I I #
point $-1 -61.957457197790461 -52.209148986421205 -11.73594275351587 #
End-of-ACIS-data 