500 0 7 0           
7 Unknown 11 ACIS 5.0 NT 24 Thu Mar 25 23:58:08 1999 
-1 9.9999999999999995e-007 1e-010 
body $-1 $7 $-1 $8 #
body $-1 $9 $-1 $10 #
body $-1 $11 $-1 $12 #
body $-1 $13 $-1 $14 #
body $-1 $15 $-1 $16 #
body $-1 $17 $-1 $18 #
body $-1 $19 $-1 $20 #
lump $-1 $-1 $21 $0 #
transform $-1 1 0 0 0 1 0 0 0 1 47.678456984160896 23.893648313584023 6.3671428260054821 1 rotate no_reflect no_shear #
lump $-1 $-1 $22 $1 #
transform $-1 1 0 0 0 1 0 0 0 1 47.678456984160896 23.893648313584023 6.3671428260054821 1 rotate no_reflect no_shear #
lump $-1 $-1 $23 $2 #
transform $-1 1 0 0 0 1 0 0 0 1 47.678456984160896 23.893648313584023 6.3671428260054821 1 rotate no_reflect no_shear #
lump $-1 $-1 $24 $3 #
transform $-1 1 0 0 0 1 0 0 0 1 47.678456984160896 23.893648313584023 6.3671428260054821 1 rotate no_reflect no_shear #
lump $-1 $-1 $25 $4 #
transform $-1 1 0 0 0 1 0 0 0 1 47.678456984160896 23.893648313584023 6.3671428260054821 1 rotate no_reflect no_shear #
lump $-1 $-1 $26 $5 #
transform $-1 1 0 0 0 1 0 0 0 1 47.678456984160896 23.893648313584023 6.3671428260054821 1 rotate no_reflect no_shear #
lump $-1 $-1 $27 $6 #
transform $-1 1 0 0 0 1 0 0 0 1 47.678456984160896 23.893648313584023 6.3671428260054821 1 rotate no_reflect no_shear #
shell $-1 $-1 $-1 $28 $-1 $7 #
shell $-1 $-1 $-1 $29 $-1 $9 #
shell $-1 $-1 $-1 $30 $-1 $11 #
shell $-1 $-1 $-1 $31 $-1 $13 #
shell $-1 $-1 $-1 $32 $-1 $15 #
shell $-1 $-1 $-1 $33 $-1 $17 #
shell $-1 $-1 $-1 $34 $-1 $19 #
face $-1 $35 $36 $21 $-1 $37 forward single #
face $-1 $38 $39 $22 $-1 $40 forward single #
face $-1 $41 $42 $23 $-1 $43 forward single #
face $-1 $44 $45 $24 $-1 $46 reversed single #
face $-1 $47 $48 $25 $-1 $49 forward single #
face $-1 $50 $51 $26 $-1 $52 reversed single #
face $-1 $53 $54 $27 $-1 $55 forward single #
face $-1 $56 $57 $21 $-1 $58 reversed single #
loop $-1 $-1 $59 $28 #
plane-surface $-1 0 0 6.3671428260054821 0 0 1 1 0 0 forward_v I I I I #
face $-1 $60 $61 $22 $-1 $62 reversed single #
loop $-1 $-1 $63 $29 #
plane-surface $-1 0 -21.687904637124504 4.493115104896849 0 0 1 1 0 0 forward_v I I I I #
face $-1 $64 $65 $23 $-1 $66 reversed single #
loop $-1 $-1 $67 $30 #
plane-surface $-1 0 21.687904637124504 4.493115104896849 0 0 1 1 0 0 forward_v I I I I #
face $-1 $68 $69 $24 $-1 $70 reversed single #
loop $-1 $-1 $71 $31 #
plane-surface $-1 50.032003568999464 11.601413241448892 136.21261867343372 0 1 0 0.71933980857756763 0 0.69465836192734942 forward_v I I I I #
face $-1 $72 $73 $25 $-1 $74 forward single #
loop $-1 $75 $76 $32 #
cone-surface $-1 44.780548711275614 15.54178710105694 3.4004223870378993 -0.71933980857756763 0 -0.69465836192734942 0.69465836192734942 0 -0.71933980857756763 1 I I 0 1 1 forward I I I I #
face $-1 $77 $78 $26 $-1 $79 reversed single #
loop $-1 $-1 $80 $33 #
plane-surface $-1 -47.67845698416086 13.737870148620118 1.2157556924488091 -0.77714596973225614 0 0.62932038083071107 0.62932038083071107 0 0.77714596973225614 forward_v I I I I #
face $-1 $81 $82 $27 $-1 $83 forward single #
loop $-1 $84 $85 $34 #
cone-surface $-1 -43.742446861379982 13.737870148620111 2.2931426232931047 0.77714596973225614 0 -0.62932038083071107 0.9439805712460666 0 1.1657189545983841 1 I I 0 1 1.5 forward I I I I #
face $-1 $86 $87 $21 $-1 $88 reversed single #
loop $-1 $-1 $89 $35 #
plane-surface $-1 0 0 -6.3671428260054821 0 0 1 1 0 0 forward_v I I I I #
coedge $-1 $90 $91 $92 $93 forward $36 $-1 #
face $-1 $94 $95 $22 $-1 $96 reversed single #
loop $-1 $-1 $97 $38 #
plane-surface $-1 0 -21.687904637124504 0.77060907389654343 0 0 1 1 0 0 forward_v I I I I #
coedge $-1 $98 $99 $100 $101 reversed $39 $-1 #
face $-1 $102 $103 $23 $-1 $104 reversed single #
loop $-1 $-1 $105 $41 #
plane-surface $-1 0 21.687904637124504 0.77060907389654343 0 0 1 1 0 0 forward_v I I I I #
coedge $-1 $106 $107 $108 $109 reversed $42 $-1 #
face $-1 $110 $111 $24 $-1 $112 forward single #
loop $-1 $-1 $113 $44 #
plane-surface $-1 -18.56202067152072 15.54178710105694 69.972141017752122 0.71933980857756763 0 0.69465836192734942 0.69465836192734942 0 -0.71933980857756763 forward_v I I I I #
coedge $-1 $114 $115 $116 $117 reversed $45 $-1 #
face $-1 $-1 $118 $25 $-1 $119 forward single #
loop $-1 $120 $121 $47 #
cone-surface $-1 43.931893703185544 15.54178710105694 2.5808857914934027 -0.71933980857756763 0 -0.69465836192734942 0.34732918096367471 0 -0.35966990428878381 1 I I -0.70710678118654746 0.70710678118654746 0.5 forward I I I I #
loop $-1 $-1 $122 $32 #
coedge $-1 $76 $76 $123 $124 reversed $48 $-1 #
face $-1 $125 $126 $26 $-1 $127 forward single #
loop $-1 $-1 $128 $50 #
plane-surface $-1 -121.78469836074763 7.9935793365752481 61.225805105834432 0 1 0 -0.77714596973225614 0 0.62932038083071107 forward_v I I I I #
coedge $-1 $129 $130 $131 $132 reversed $51 $-1 #
face $-1 $-1 $133 $27 $-1 $134 forward single #
loop $-1 $135 $136 $53 #
cone-surface $-1 -41.309332730001074 13.737870148620111 0.32284570173602045 0.77714596973225614 0 -0.62932038083071107 0.4719902856230333 0 0.58285947729919207 1 I I -0.70710678118654757 0.70710678118654757 0.75 forward I I I I #
loop $-1 $-1 $137 $34 #
coedge $-1 $85 $85 $138 $139 reversed $54 $-1 #
face $-1 $140 $141 $21 $-1 $142 reversed single #
loop $-1 $-1 $143 $56 #
plane-surface $-1 0 -23.893648313584023 0 0 1 0 0 0 1 forward_v I I I I #
coedge $-1 $144 $145 $146 $147 forward $57 $-1 #
coedge $-1 $148 $59 $149 $150 forward $36 $-1 #
coedge $-1 $59 $148 $151 $152 forward $36 $-1 #
coedge $-1 $153 $154 $59 $93 reversed $155 $-1 #
edge $-1 $156 -23.893648313584023 $157 23.893648313584023 $92 $158 forward 7 unknown #
face $-1 $159 $160 $22 $-1 $161 reversed single #
loop $-1 $-1 $162 $60 #
plane-surface $-1 0 -19.482160960664984 2.6318620893966962 0 -1 0 0 0 -1 forward_v I I I I #
coedge $-1 $163 $164 $165 $166 reversed $61 $-1 #
coedge $-1 $167 $63 $168 $169 forward $39 $-1 #
coedge $-1 $63 $167 $170 $171 reversed $39 $-1 #
coedge $-1 $172 $173 $63 $101 forward $174 $-1 #
edge $-1 $175 8.6382086421027324 $176 13.049695995021771 $100 $177 forward 7 unknown #
face $-1 $178 $179 $23 $-1 $180 reversed single #
loop $-1 $-1 $181 $64 #
plane-surface $-1 0 19.482160960664984 2.6318620893966962 0 1 0 0 0 1 forward_v I I I I #
coedge $-1 $182 $183 $184 $185 reversed $65 $-1 #
coedge $-1 $186 $67 $187 $188 reversed $42 $-1 #
coedge $-1 $67 $186 $189 $190 forward $42 $-1 #
coedge $-1 $191 $192 $67 $109 forward $179 $-1 #
edge $-1 $193 -13.049695995021771 $194 -8.6382086421027324 $108 $195 forward 7 unknown #
face $-1 $196 $197 $24 $-1 $198 reversed single #
loop $-1 $-1 $199 $68 #
plane-surface $-1 0 0 6.3671428260054821 0 0 1 1 0 0 forward_v I I I I #
coedge $-1 $200 $201 $202 $203 reversed $69 $-1 #
coedge $-1 $115 $71 $204 $205 reversed $45 $-1 #
coedge $-1 $71 $114 $200 $206 reversed $45 $-1 #
coedge $-1 $202 $207 $71 $117 forward $197 $-1 #
edge $-1 $208 61.739166510711378 $209 66.728192559484938 $116 $210 forward 7 unknown #
loop $-1 $-1 $123 $72 #
plane-surface $-1 -18.56202067152072 15.54178710105694 69.972141017752122 0.71933980857756763 0 0.69465836192734942 0.69465836192734942 0 -0.71933980857756763 forward_v I I I I #
loop $-1 $-1 $211 $47 #
coedge $-1 $121 $121 $122 $212 reversed $73 $-1 #
coedge $-1 $122 $122 $121 $212 forward $75 $-1 #
coedge $-1 $123 $123 $76 $124 forward $118 $-1 #
edge $-1 $213 0 $213 6.2831853071796004 $123 $214 forward 7 unknown #
face $-1 $215 $216 $26 $-1 $217 reversed single #
loop $-1 $-1 $218 $77 #
plane-surface $-1 0 19.482160960664984 2.6318620893966962 0 1 0 0 0 1 forward_v I I I I #
coedge $-1 $219 $220 $221 $222 reversed $78 $-1 #
coedge $-1 $223 $80 $218 $224 reversed $51 $-1 #
coedge $-1 $80 $223 $219 $225 forward $51 $-1 #
coedge $-1 $221 $226 $80 $132 forward $216 $-1 #
edge $-1 $227 -12.613225886354925 $228 -1.1246442622651891 $131 $229 forward 7 unknown #
loop $-1 $-1 $138 $81 #
plane-surface $-1 -47.67845698416086 13.737870148620118 1.2157556924488091 -0.77714596973225614 0 0.62932038083071107 0.62932038083071107 0 0.77714596973225614 forward_v I I I I #
loop $-1 $-1 $230 $53 #
coedge $-1 $136 $136 $137 $231 reversed $82 $-1 #
coedge $-1 $137 $137 $136 $231 forward $84 $-1 #
coedge $-1 $138 $138 $85 $139 forward $133 $-1 #
edge $-1 $232 0 $232 6.2831853071796004 $138 $233 forward 7 unknown #
face $-1 $234 $235 $21 $-1 $236 reversed single #
loop $-1 $-1 $237 $86 #
plane-surface $-1 -47.678456984160896 0 0 1 0 0 0 0 -1 forward_v I I I I #
coedge $-1 $238 $151 $239 $240 forward $87 $-1 #
coedge $-1 $241 $89 $238 $242 forward $57 $-1 #
coedge $-1 $89 $241 $243 $244 forward $57 $-1 #
coedge $-1 $154 $153 $89 $147 reversed $155 $-1 #
edge $-1 $245 -23.893648313584023 $246 23.893648313584023 $146 $247 forward 7 unknown #
coedge $-1 $91 $90 $248 $249 forward $36 $-1 #
coedge $-1 $250 $251 $90 $150 reversed $235 $-1 #
edge $-1 $157 -47.678456984160896 $252 47.678456984160896 $149 $253 forward 7 unknown #
coedge $-1 $143 $254 $91 $152 reversed $87 $-1 #
edge $-1 $255 -47.678456984160896 $156 47.678456984160896 $151 $256 forward 7 unknown #
coedge $-1 $146 $92 $254 $257 forward $155 $-1 #
coedge $-1 $92 $146 $250 $258 reversed $155 $-1 #
loop $-1 $-1 $153 $234 #
vertex $-1 $93 $259 #
vertex $-1 $93 $260 #
straight-curve $-1 47.678456984160896 0 6.3671428260054821 0 1 0 I I #
face $-1 $261 $262 $22 $-1 $263 reversed single #
loop $-1 $-1 $264 $94 #
plane-surface $-1 -47.678456984160896 0 0 1 0 0 0 0 -1 forward_v I I I I #
coedge $-1 $265 $168 $173 $266 reversed $95 $-1 #
coedge $-1 $267 $97 $268 $269 reversed $61 $-1 #
coedge $-1 $97 $267 $265 $270 forward $61 $-1 #
coedge $-1 $173 $172 $97 $166 forward $174 $-1 #
edge $-1 $271 -13.049695995021771 $272 -8.6382086421027324 $165 $273 forward 7 unknown #
coedge $-1 $99 $98 $264 $274 reversed $39 $-1 #
coedge $-1 $162 $275 $98 $169 reversed $95 $-1 #
edge $-1 $175 -47.678456984160896 $276 47.678456984160896 $168 $277 forward 7 unknown #
coedge $-1 $278 $279 $99 $171 forward $262 $-1 #
edge $-1 $176 -47.678456984160896 $280 47.678456984160896 $170 $281 forward 7 unknown #
coedge $-1 $165 $100 $279 $282 forward $174 $-1 #
coedge $-1 $100 $165 $162 $266 forward $174 $-1 #
loop $-1 $-1 $100 $261 #
vertex $-1 $101 $283 #
vertex $-1 $282 $284 #
straight-curve $-1 47.678456984160896 -10.843952318562252 4.493115104896849 0 -1 0 I I #
face $-1 $285 $286 $23 $-1 $287 reversed single #
loop $-1 $-1 $108 $102 #
plane-surface $-1 47.678456984160896 0 0 -1 0 0 0 0 1 forward_v I I I I #
coedge $-1 $288 $189 $289 $290 reversed $103 $-1 #
coedge $-1 $291 $105 $288 $292 forward $65 $-1 #
coedge $-1 $105 $291 $293 $294 reversed $65 $-1 #
coedge $-1 $192 $191 $105 $185 forward $179 $-1 #
edge $-1 $295 8.6382086421027324 $296 13.049695995021771 $184 $297 forward 7 unknown #
coedge $-1 $107 $106 $298 $299 reversed $42 $-1 #
coedge $-1 $300 $301 $106 $188 forward $302 $-1 #
edge $-1 $303 -47.678456984160896 $193 47.678456984160896 $187 $304 forward 7 unknown #
coedge $-1 $181 $305 $107 $190 reversed $103 $-1 #
edge $-1 $306 -47.678456984160896 $194 47.678456984160896 $189 $307 forward 7 unknown #
coedge $-1 $184 $108 $305 $308 forward $179 $-1 #
coedge $-1 $108 $184 $300 $309 reversed $179 $-1 #
vertex $-1 $309 $310 #
vertex $-1 $109 $311 #
straight-curve $-1 47.678456984160896 10.843952318562252 4.493115104896849 0 -1 0 I I #
face $-1 $-1 $312 $24 $-1 $313 forward single #
loop $-1 $-1 $314 $110 #
plane-surface $-1 47.678456984160896 0 0 -1 0 0 0 0 1 forward_v I I I I #
coedge $-1 $315 $316 $317 $318 forward $111 $-1 #
coedge $-1 $319 $113 $115 $206 forward $69 $-1 #
coedge $-1 $113 $319 $320 $321 forward $69 $-1 #
coedge $-1 $314 $116 $113 $203 forward $197 $-1 #
edge $-1 $209 3.830519690920422 $322 11.711267410136514 $202 $323 forward 7 unknown #
coedge $-1 $316 $315 $114 $205 forward $111 $-1 #
edge $-1 $324 17.844608861493146 $208 22.662455199661164 $204 $325 forward 7 unknown #
edge $-1 $209 -95.35691396832182 $324 -88.421351680119074 $115 $326 forward 7 unknown #
coedge $-1 $116 $314 $316 $327 reversed $197 $-1 #
vertex $-1 $327 $328 #
vertex $-1 $117 $329 #
straight-curve $-1 47.678456984160896 11.601413241448892 68.106309336716862 0 0 -1 I I #
coedge $-1 $211 $211 $-1 $330 reversed $120 $-1 #
edge $-1 $331 0 $331 6.2831853071796004 $121 $332 forward 7 unknown #
vertex $-1 $124 $333 #
ellipse-curve $-1 45.26953381507689 15.54178710105694 3.8726298016187126 0.71933980857756763 0 0.69465836192734942 0.69465836192734942 0 -0.71933980857756763 1 I I #
face $-1 $-1 $334 $26 $-1 $335 forward single #
loop $-1 $-1 $226 $125 #
plane-surface $-1 -47.678456984160896 0 0 1 0 0 0 0 -1 forward_v I I I I #
coedge $-1 $336 $337 $129 $224 forward $126 $-1 #
coedge $-1 $220 $128 $130 $225 reversed $78 $-1 #
coedge $-1 $128 $219 $338 $339 reversed $78 $-1 #
coedge $-1 $340 $131 $128 $222 forward $216 $-1 #
edge $-1 $228 -29.39714686046845 $341 -24.245759726911736 $221 $342 forward 7 unknown #
coedge $-1 $130 $129 $343 $344 reversed $51 $-1 #
edge $-1 $345 8.9241764417567246 $227 15.55277304289651 $218 $346 forward 7 unknown #
edge $-1 $347 -6.6285966011397282 $228 5.6525043077271345e-014 $219 $348 forward 7 unknown #
coedge $-1 $131 $340 $336 $349 forward $216 $-1 #
vertex $-1 $224 $350 #
vertex $-1 $132 $351 #
straight-curve $-1 -47.678456984160896 6.868935074310059 1.2157556924487642 0 -1 0 I I #
coedge $-1 $230 $230 $-1 $352 reversed $135 $-1 #
edge $-1 $353 0 $353 6.2831853071796004 $136 $354 forward 7 unknown #
vertex $-1 $139 $355 #
ellipse-curve $-1 -45.592701515459666 13.737870148620111 3.7914492592271305 -0.77714596973225614 0 0.62932038083071107 0.9439805712460666 0 1.1657189545983841 1 I I #
face $-1 $-1 $155 $21 $-1 $356 reversed single #
loop $-1 $-1 $250 $140 #
plane-surface $-1 0 23.893648313584023 0 0 -1 0 0 0 -1 forward_v I I I I #
coedge $-1 $357 $248 $251 $358 forward $141 $-1 #
coedge $-1 $254 $143 $144 $242 reversed $87 $-1 #
coedge $-1 $248 $357 $143 $240 reversed $141 $-1 #
edge $-1 $255 -6.3671428260054821 $359 6.3671428260054821 $239 $360 forward 7 unknown #
coedge $-1 $145 $144 $357 $361 forward $57 $-1 #
edge $-1 $246 -47.678456984160896 $359 47.678456984160896 $238 $362 forward 7 unknown #
coedge $-1 $251 $250 $145 $244 reversed $235 $-1 #
edge $-1 $363 -47.678456984160896 $245 47.678456984160896 $243 $364 forward 7 unknown #
vertex $-1 $147 $365 #
vertex $-1 $257 $366 #
straight-curve $-1 47.678456984160896 0 -6.3671428260054821 0 -1 0 I I #
coedge $-1 $237 $239 $148 $249 reversed $141 $-1 #
edge $-1 $252 -23.893648313584023 $255 23.893648313584023 $248 $367 forward 7 unknown #
coedge $-1 $243 $149 $154 $258 forward $235 $-1 #
coedge $-1 $149 $243 $237 $358 reversed $235 $-1 #
vertex $-1 $150 $368 #
straight-curve $-1 0 23.893648313584023 6.3671428260054821 -1 0 0 I I #
coedge $-1 $151 $238 $153 $257 reversed $87 $-1 #
vertex $-1 $249 $369 #
straight-curve $-1 0 -23.893648313584023 6.3671428260054821 1 0 0 I I #
edge $-1 $156 -6.3671428260054821 $246 6.3671428260054821 $153 $370 forward 7 unknown #
edge $-1 $157 -6.3671428260054821 $245 6.3671428260054821 $154 $371 forward 7 unknown #
point $-1 47.678456984160896 -23.893648313584023 6.3671428260054821 #
point $-1 47.678456984160896 23.893648313584023 6.3671428260054821 #
face $-1 $-1 $174 $22 $-1 $372 reversed single #
loop $-1 $-1 $170 $159 #
plane-surface $-1 0 -23.893648313584023 0 0 1 0 0 0 1 forward_v I I I I #
coedge $-1 $373 $374 $167 $274 forward $160 $-1 #
coedge $-1 $275 $162 $164 $270 reversed $95 $-1 #
edge $-1 $272 -0.54532197080180467 $175 3.1771840601985009 $173 $375 forward 7 unknown #
coedge $-1 $164 $163 $376 $377 reversed $61 $-1 #
coedge $-1 $279 $278 $163 $269 forward $262 $-1 #
edge $-1 $378 -47.678456984160896 $271 47.678456984160896 $268 $379 forward 7 unknown #
edge $-1 $380 -47.678456984160896 $272 47.678456984160896 $265 $381 forward 7 unknown #
vertex $-1 $269 $382 #
vertex $-1 $166 $383 #
straight-curve $-1 47.678456984160896 -10.843952318562252 0.77060907389654343 0 1 0 I I #
edge $-1 $280 -13.049695995021771 $276 -8.6382086421027324 $264 $384 forward 7 unknown #
coedge $-1 $168 $265 $373 $385 reversed $95 $-1 #
vertex $-1 $274 $386 #
straight-curve $-1 0 -19.482160960664984 4.493115104896849 -1 0 0 I I #
coedge $-1 $268 $170 $374 $387 forward $262 $-1 #
coedge $-1 $170 $268 $172 $282 reversed $262 $-1 #
vertex $-1 $387 $388 #
straight-curve $-1 0 -23.893648313584023 4.493115104896849 -1 0 0 I I #
edge $-1 $176 -4.493115104896849 $271 -0.77060907389654343 $172 $389 forward 7 unknown #
point $-1 47.678456984160896 -19.482160960664984 4.493115104896849 #
point $-1 47.678456984160896 -23.893648313584023 4.493115104896849 #
face $-1 $-1 $302 $23 $-1 $390 reversed single #
loop $-1 $-1 $298 $178 #
plane-surface $-1 -47.678456984160896 0 0 1 0 0 0 0 -1 forward_v I I I I #
coedge $-1 $305 $181 $182 $292 reversed $103 $-1 #
coedge $-1 $298 $391 $181 $290 forward $286 $-1 #
edge $-1 $392 -0.54532197080180467 $306 3.1771840601985009 $289 $393 forward 7 unknown #
coedge $-1 $183 $182 $391 $394 reversed $65 $-1 #
edge $-1 $295 -47.678456984160896 $392 47.678456984160896 $288 $395 forward 7 unknown #
coedge $-1 $301 $300 $183 $294 forward $302 $-1 #
edge $-1 $296 -47.678456984160896 $396 47.678456984160896 $293 $397 forward 7 unknown #
vertex $-1 $185 $398 #
vertex $-1 $294 $399 #
straight-curve $-1 47.678456984160896 10.843952318562252 0.77060907389654343 0 1 0 I I #
coedge $-1 $400 $289 $186 $299 forward $286 $-1 #
edge $-1 $306 8.6382086421027324 $303 13.049695995021771 $298 $401 forward 7 unknown #
coedge $-1 $293 $187 $192 $309 forward $302 $-1 #
coedge $-1 $187 $293 $400 $402 reversed $302 $-1 #
loop $-1 $-1 $187 $285 #
vertex $-1 $402 $403 #
straight-curve $-1 0 23.893648313584023 4.493115104896849 1 0 0 I I #
coedge $-1 $189 $288 $191 $308 reversed $103 $-1 #
vertex $-1 $299 $404 #
straight-curve $-1 0 19.482160960664984 4.493115104896849 1 0 0 I I #
edge $-1 $194 -3.1771840601985009 $295 0.54532197080180467 $191 $405 forward 7 unknown #
edge $-1 $193 -4.493115104896849 $296 -0.77060907389654343 $192 $406 forward 7 unknown #
point $-1 47.678456984160896 23.893648313584023 4.493115104896849 #
point $-1 47.678456984160896 19.482160960664984 4.493115104896849 #
loop $-1 $-1 $320 $196 #
plane-surface $-1 0 19.482160960664984 2.6318620893966962 0 1 0 0 0 1 forward_v I I I I #
coedge $-1 $207 $202 $407 $408 forward $197 $-1 #
coedge $-1 $204 $199 $319 $409 forward $111 $-1 #
coedge $-1 $199 $204 $207 $327 forward $111 $-1 #
coedge $-1 $407 $320 $199 $318 reversed $312 $-1 #
edge $-1 $410 -22.662455199661164 $411 -17.844608861493146 $199 $412 forward 7 unknown #
coedge $-1 $201 $200 $315 $409 reversed $69 $-1 #
coedge $-1 $317 $407 $201 $321 reversed $312 $-1 #
edge $-1 $411 88.421351680119074 $322 95.35691396832182 $320 $413 forward 7 unknown #
vertex $-1 $408 $414 #
straight-curve $-1 47.678456984160903 7.77089355052847 1.3781167772319094 0 1 0 I I #
vertex $-1 $205 $415 #
straight-curve $-1 25.016001784499732 11.601413241448892 6.3671428260054768 1 0 0 I I #
straight-curve $-1 -18.56202067152072 11.601413241448892 69.972141017752122 -0.69465836192734942 0 0.71933980857756763 I I #
edge $-1 $208 11.601413241448892 $410 19.482160960664988 $207 $416 forward 7 unknown #
point $-1 47.678456984160896 11.601413241448892 6.3671428260054821 #
point $-1 47.678456984160896 11.601413241448892 1.3781167772319236 #
edge $-1 $417 1 $417 0 $211 $-1 forward 7 unknown #
vertex $-1 $212 $418 #
ellipse-curve $-1 44.29156360747433 15.54178710105694 2.9282149724570772 0.71933980857756763 0 0.69465836192734942 0.69465836192734942 0 -0.71933980857756763 1 I I #
point $-1 45.96419217700425 15.54178710105694 3.1532899930411529 #
loop $-1 $-1 $419 $215 #
plane-surface $-1 0 0 6.3671428260054821 0 0 1 1 0 0 forward_v I I I I #
coedge $-1 $337 $218 $226 $349 reversed $126 $-1 #
coedge $-1 $218 $336 $419 $420 reversed $126 $-1 #
coedge $-1 $343 $421 $220 $339 forward $334 $-1 #
edge $-1 $341 13.213892196212917 $347 17.385403133615362 $338 $422 forward 7 unknown #
coedge $-1 $226 $221 $421 $423 reversed $216 $-1 #
vertex $-1 $339 $424 #
straight-curve $-1 -47.678456984160896 7.9935793365752481 30.612902552917216 0 0 1 I I #
coedge $-1 $419 $338 $223 $344 forward $334 $-1 #
edge $-1 $347 1.1246442622651891 $345 12.613225886354929 $343 $425 forward 7 unknown #
vertex $-1 $420 $426 #
straight-curve $-1 -37.890779929831645 19.482160960664984 13.302530580896264 -0.62932038083071107 0 -0.77714596973225614 I I #
vertex $-1 $344 $427 #
straight-curve $-1 -47.67845698416086 7.9935793365752481 1.2157556924488091 -0.62932038083071107 0 -0.77714596973225614 I I #
edge $-1 $428 24.245759726911736 $227 29.39714686046845 $226 $429 forward 7 unknown #
point $-1 -47.678456984160896 19.482160960664984 1.2157556924487651 #
point $-1 -47.678456984160896 7.9935793365752481 1.2157556924487651 #
edge $-1 $430 1 $430 0 $230 $-1 forward 7 unknown #
vertex $-1 $231 $431 #
ellipse-curve $-1 -41.892192207300269 13.737870148620111 0.79483598735905381 -0.77714596973225614 0 0.62932038083071107 0.9439805712460666 0 1.1657189545983841 1 I I #
point $-1 -44.648720944213629 13.737870148620111 4.9571682138255397 #
plane-surface $-1 47.678456984160896 0 0 -1 0 0 0 0 1 forward_v I I I I #
coedge $-1 $239 $237 $241 $361 reversed $141 $-1 #
edge $-1 $252 -6.3671428260054821 $363 6.3671428260054821 $251 $432 forward 7 unknown #
vertex $-1 $361 $433 #
straight-curve $-1 -47.678456984160896 -23.893648313584023 0 0 0 -1 I I #
edge $-1 $359 -23.893648313584023 $363 23.893648313584023 $357 $434 forward 7 unknown #
straight-curve $-1 0 -23.893648313584023 -6.3671428260054821 -1 0 0 I I #
vertex $-1 $244 $435 #
straight-curve $-1 0 23.893648313584023 -6.3671428260054821 1 0 0 I I #
point $-1 47.678456984160896 23.893648313584023 -6.3671428260054821 #
point $-1 47.678456984160896 -23.893648313584023 -6.3671428260054821 #
straight-curve $-1 -47.678456984160896 0 6.3671428260054821 0 -1 0 I I #
point $-1 -47.678456984160896 23.893648313584023 6.3671428260054821 #
point $-1 -47.678456984160896 -23.893648313584023 6.3671428260054821 #
straight-curve $-1 47.678456984160896 -23.893648313584023 0 0 0 -1 I I #
straight-curve $-1 47.678456984160896 23.893648313584023 0 0 0 -1 I I #
plane-surface $-1 47.678456984160896 0 0 -1 0 0 0 0 1 forward_v I I I I #
coedge $-1 $376 $264 $275 $385 forward $160 $-1 #
coedge $-1 $264 $376 $278 $387 reversed $160 $-1 #
straight-curve $-1 47.678456984160896 -19.482160960664984 1.3159310446983481 0 0 1 I I #
coedge $-1 $374 $373 $267 $377 forward $160 $-1 #
edge $-1 $380 8.6382086421027324 $378 13.049695995021771 $376 $436 forward 7 unknown #
vertex $-1 $269 $437 #
straight-curve $-1 0 -23.893648313584023 0.77060907389654343 1 0 0 I I #
vertex $-1 $377 $438 #
straight-curve $-1 0 -19.482160960664984 0.77060907389654343 1 0 0 I I #
point $-1 47.678456984160896 -23.893648313584023 0.77060907389654343 #
point $-1 47.678456984160896 -19.482160960664984 0.77060907389654343 #
straight-curve $-1 -47.678456984160896 -10.843952318562252 4.493115104896849 0 1 0 I I #
edge $-1 $276 -3.1771840601985009 $380 0.54532197080180467 $373 $439 forward 7 unknown #
point $-1 -47.678456984160896 -19.482160960664984 4.493115104896849 #
edge $-1 $280 -4.493115104896849 $378 -0.77060907389654343 $374 $440 forward 7 unknown #
point $-1 -47.678456984160896 -23.893648313584023 4.493115104896849 #
straight-curve $-1 47.678456984160896 -23.893648313584023 0 0 0 -1 I I #
plane-surface $-1 0 23.893648313584023 0 0 -1 0 0 0 -1 forward_v I I I I #
coedge $-1 $289 $400 $291 $394 forward $286 $-1 #
vertex $-1 $394 $441 #
straight-curve $-1 -47.678456984160896 19.482160960664984 1.3159310446983481 0 0 1 I I #
edge $-1 $396 -13.049695995021771 $392 -8.6382086421027324 $391 $442 forward 7 unknown #
straight-curve $-1 0 19.482160960664984 0.77060907389654343 -1 0 0 I I #
vertex $-1 $294 $443 #
straight-curve $-1 0 23.893648313584023 0.77060907389654343 -1 0 0 I I #
point $-1 47.678456984160896 19.482160960664984 0.77060907389654343 #
point $-1 47.678456984160896 23.893648313584023 0.77060907389654343 #
coedge $-1 $391 $298 $301 $402 forward $286 $-1 #
straight-curve $-1 -47.678456984160896 10.843952318562252 4.493115104896849 0 1 0 I I #
edge $-1 $303 -4.493115104896849 $396 -0.77060907389654343 $301 $444 forward 7 unknown #
point $-1 -47.678456984160896 23.893648313584023 4.493115104896849 #
point $-1 -47.678456984160896 19.482160960664984 4.493115104896849 #
straight-curve $-1 47.678456984160896 19.482160960664984 1.3159310446983481 0 0 -1 I I #
straight-curve $-1 47.678456984160896 23.893648313584023 0 0 0 -1 I I #
coedge $-1 $320 $317 $314 $408 reversed $312 $-1 #
edge $-1 $322 -66.728192559484938 $410 -61.739166510711378 $314 $445 forward 7 unknown #
edge $-1 $411 -11.711267410136518 $324 -3.830519690920422 $315 $446 forward 7 unknown #
vertex $-1 $318 $447 #
vertex $-1 $409 $448 #
straight-curve $-1 25.016001784499732 19.482160960664988 6.3671428260054768 -1 0 0 I I #
straight-curve $-1 -18.56202067152072 19.482160960664988 69.972141017752122 0.69465836192734942 0 -0.71933980857756763 I I #
point $-1 47.678456984160896 19.482160960664984 1.3781167772319236 #
point $-1 42.860610645992878 11.601413241448892 6.3671428260054768 #
straight-curve $-1 47.678456984160896 0 6.3671428260054821 0 1 0 I I #
vertex $-1 $330 $449 #
point $-1 44.986221969401676 15.54178710105694 2.2088751638795099 #
coedge $-1 $421 $343 $337 $420 forward $334 $-1 #
edge $-1 $345 -17.385403133615362 $428 -13.213892196212917 $419 $450 forward 7 unknown #
coedge $-1 $338 $419 $340 $423 forward $334 $-1 #
straight-curve $-1 -60.892349180373813 7.9935793365752481 6.3671428260054839 1 0 0 I I #
edge $-1 $428 -19.482160960664988 $341 -7.9935793365752481 $340 $451 forward 7 unknown #
point $-1 -47.678456984160896 7.9935793365752481 6.3671428260054821 #
straight-curve $-1 -43.506946046758451 6.868935074310059 6.3671428260054821 0 1 0 I I #
point $-1 -43.506946046758451 19.482160960664988 6.3671428260054821 #
point $-1 -43.506946046758451 7.9935793365752481 6.3671428260054821 #
vertex $-1 $423 $452 #
straight-curve $-1 -47.678456984160896 19.482160960664988 30.612902552917216 0 0 -1 I I #
vertex $-1 $352 $453 #
point $-1 -40.948211636054197 13.737870148620111 1.960554941957438 #
straight-curve $-1 -47.678456984160896 23.893648313584023 0 0 0 -1 I I #
point $-1 -47.678456984160896 -23.893648313584023 -6.3671428260054821 #
straight-curve $-1 -47.678456984160896 0 -6.3671428260054821 0 1 0 I I #
point $-1 -47.678456984160896 23.893648313584023 -6.3671428260054821 #
straight-curve $-1 -47.678456984160896 -10.843952318562252 0.77060907389654343 0 -1 0 I I #
point $-1 -47.678456984160896 -23.893648313584023 0.77060907389654343 #
point $-1 -47.678456984160896 -19.482160960664984 0.77060907389654343 #
straight-curve $-1 -47.678456984160896 -19.482160960664984 1.3159310446983481 0 0 -1 I I #
straight-curve $-1 -47.678456984160896 -23.893648313584023 0 0 0 -1 I I #
point $-1 -47.678456984160896 19.482160960664984 0.77060907389654343 #
straight-curve $-1 -47.678456984160896 10.843952318562252 0.77060907389654343 0 -1 0 I I #
point $-1 -47.678456984160896 23.893648313584023 0.77060907389654343 #
straight-curve $-1 -47.678456984160896 23.893648313584023 0 0 0 -1 I I #
straight-curve $-1 47.678456984160896 19.482160960664988 68.106309336716862 0 0 1 I I #
straight-curve $-1 42.860610645992871 7.77089355052847 6.367142826005491 0 -1 0 I I #
point $-1 47.678456984160896 19.482160960664988 6.3671428260054821 #
point $-1 42.860610645992878 19.482160960664988 6.3671428260054768 #
point $-1 43.572223798896758 15.54178710105694 2.2335566105297282 #
straight-curve $-1 -60.892349180373813 19.482160960664988 6.3671428260054839 -1 0 0 I I #
straight-curve $-1 -47.678456984160896 0 6.3671428260054821 0 -1 0 I I #
point $-1 -47.678456984160896 19.482160960664988 6.3671428260054821 #
point $-1 -40.726473252701879 13.737870148620111 -0.14914458388701285 #
End-of-ACIS-data 