500 0 22 0           
7 Unknown 11 ACIS 5.0 NT 24 Thu Mar 25 18:26:53 1999 
-1 9.9999999999999995e-007 1e-010 
body $-1 $22 $-1 $23 #
body $-1 $24 $-1 $25 #
body $-1 $26 $-1 $27 #
body $-1 $28 $-1 $29 #
body $-1 $30 $-1 $31 #
body $-1 $32 $-1 $33 #
body $-1 $34 $-1 $35 #
body $-1 $36 $-1 $37 #
body $-1 $38 $-1 $39 #
body $-1 $40 $-1 $41 #
body $-1 $42 $-1 $43 #
body $-1 $44 $-1 $45 #
body $-1 $46 $-1 $47 #
body $-1 $48 $-1 $49 #
body $-1 $50 $-1 $51 #
body $-1 $52 $-1 $53 #
body $-1 $54 $-1 $55 #
body $-1 $56 $-1 $57 #
body $-1 $58 $-1 $59 #
body $-1 $60 $-1 $61 #
body $-1 $62 $-1 $63 #
body $-1 $64 $-1 $65 #
lump $-1 $-1 $66 $0 #
transform $-1 1 0 0 0 1 0 0 0 1 45.044099246192815 23.850264250363825 5.7262616011242189 1 rotate no_reflect no_shear #
lump $-1 $-1 $67 $1 #
transform $-1 1 0 0 0 1 0 0 0 1 45.044099246192815 1.9671168694337153 9.0496687691947706 1 rotate no_reflect no_shear #
lump $-1 $-1 $68 $2 #
transform $-1 0.83867056331134215 0 0.54463904215088732 0 1 0 -0.54463904215088732 0 0.83867056331134215 -49.06555013599192 38.616402703166969 82.463290255257874 1 rotate no_reflect no_shear #
lump $-1 $-1 $69 $3 #
transform $-1 0.83867056331134215 0 0.54463904215088732 0 -1 0 0.54463904215088732 0 -0.83867056331134215 4.5782863358724066 35.568351277657143 7.5176043261512424 1 rotate no_reflect no_shear #
lump $-1 $-1 $70 $4 #
transform $-1 0.83867056331134215 0 0.54463904215088732 0 -1 0 0.54463904215088732 0 -0.83867056331134215 4.5782863358724066 38.616402703166969 7.5176043261512424 1 rotate no_reflect no_shear #
lump $-1 $-1 $71 $5 #
transform $-1 0.83867056331134215 0 0.54463904215088732 0 -1 0 0.54463904215088732 0 -0.83867056331134215 4.5782863358724066 41.664454128676795 7.5176043261512424 1 rotate no_reflect no_shear #
lump $-1 $-1 $72 $6 #
transform $-1 0.68199835119979291 0 -0.73135370988377701 0 1 0 0.73135370988377701 0 0.68199835119979291 94.534533842171285 9.0123653921918745 135.33465172989543 1 rotate no_reflect no_shear #
lump $-1 $-1 $73 $7 #
transform $-1 0.68199835119979291 0 -0.73135370988377701 0 -1 0 -0.73135370988377701 0 -0.68199835119979291 87.568116340246078 7.1952017224840974 8.8779190178127081 1 rotate no_reflect no_shear #
lump $-1 $-1 $74 $8 #
transform $-1 0.68199835119979291 0 -0.73135370988377701 0 -1 0 -0.73135370988377701 0 -0.68199835119979291 87.568116340246078 9.0123653921918763 8.8779190178127081 1 rotate no_reflect no_shear #
lump $-1 $-1 $75 $9 #
transform $-1 0.68199835119979291 0 -0.73135370988377701 0 -1 0 -0.73135370988377701 0 -0.68199835119979291 87.568116340246078 10.829529061899654 8.8779190178127081 1 rotate no_reflect no_shear #
lump $-1 $-1 $76 $10 #
transform $-1 0.68199835119979291 0 -0.73135370988377701 0 1 0 0.73135370988377701 0 0.68199835119979291 94.534533842171285 20.215709210595648 135.33465172989543 1 rotate no_reflect no_shear #
lump $-1 $-1 $77 $11 #
transform $-1 0.68199835119979291 0 -0.73135370988377701 0 -1 0 -0.73135370988377701 0 -0.68199835119979291 87.568116340246078 18.398545540887874 8.8779190178127081 1 rotate no_reflect no_shear #
lump $-1 $-1 $78 $12 #
transform $-1 0.68199835119979291 0 -0.73135370988377701 0 -1 0 -0.73135370988377701 0 -0.68199835119979291 87.568116340246078 20.215709210595652 8.8779190178127081 1 rotate no_reflect no_shear #
lump $-1 $-1 $79 $13 #
transform $-1 0.68199835119979291 0 -0.73135370988377701 0 -1 0 -0.73135370988377701 0 -0.68199835119979291 87.568116340246078 22.032872880303429 8.8779190178127081 1 rotate no_reflect no_shear #
lump $-1 $-1 $80 $14 #
transform $-1 0.68199835119979291 0 -0.73135370988377701 0 1 0 0.73135370988377701 0 0.68199835119979291 94.534533842171285 31.419053028999421 135.33465172989543 1 rotate no_reflect no_shear #
lump $-1 $-1 $81 $15 #
transform $-1 0.68199835119979291 0 -0.73135370988377701 0 -1 0 -0.73135370988377701 0 -0.68199835119979291 87.568116340246078 29.601889359291647 8.8779190178127081 1 rotate no_reflect no_shear #
lump $-1 $-1 $82 $16 #
transform $-1 0.68199835119979291 0 -0.73135370988377701 0 -1 0 -0.73135370988377701 0 -0.68199835119979291 87.568116340246078 31.419053028999429 8.8779190178127081 1 rotate no_reflect no_shear #
lump $-1 $-1 $83 $17 #
transform $-1 0.68199835119979291 0 -0.73135370988377701 0 -1 0 -0.73135370988377701 0 -0.68199835119979291 87.568116340246078 33.236216698707203 8.8779190178127081 1 rotate no_reflect no_shear #
lump $-1 $-1 $84 $18 #
transform $-1 0.68199835119979291 0 -0.73135370988377701 0 1 0 0.73135370988377701 0 0.68199835119979291 94.534533842171285 42.622396847403195 135.33465172989543 1 rotate no_reflect no_shear #
lump $-1 $-1 $85 $19 #
transform $-1 0.68199835119979291 0 -0.73135370988377701 0 -1 0 -0.73135370988377701 0 -0.68199835119979291 87.568116340246078 40.80523317769542 8.8779190178127081 1 rotate no_reflect no_shear #
lump $-1 $-1 $86 $20 #
transform $-1 0.68199835119979291 0 -0.73135370988377701 0 -1 0 -0.73135370988377701 0 -0.68199835119979291 87.568116340246078 42.622396847403202 8.8779190178127081 1 rotate no_reflect no_shear #
lump $-1 $-1 $87 $21 #
transform $-1 0.68199835119979291 0 -0.73135370988377701 0 -1 0 -0.73135370988377701 0 -0.68199835119979291 87.568116340246078 44.439560517110976 8.8779190178127081 1 rotate no_reflect no_shear #
shell $-1 $-1 $-1 $88 $-1 $22 #
shell $-1 $-1 $-1 $89 $-1 $24 #
shell $-1 $-1 $-1 $90 $-1 $26 #
shell $-1 $-1 $-1 $91 $-1 $28 #
shell $-1 $-1 $-1 $92 $-1 $30 #
shell $-1 $-1 $-1 $93 $-1 $32 #
shell $-1 $-1 $-1 $94 $-1 $34 #
shell $-1 $-1 $-1 $95 $-1 $36 #
shell $-1 $-1 $-1 $96 $-1 $38 #
shell $-1 $-1 $-1 $97 $-1 $40 #
shell $-1 $-1 $-1 $98 $-1 $42 #
shell $-1 $-1 $-1 $99 $-1 $44 #
shell $-1 $-1 $-1 $100 $-1 $46 #
shell $-1 $-1 $-1 $101 $-1 $48 #
shell $-1 $-1 $-1 $102 $-1 $50 #
shell $-1 $-1 $-1 $103 $-1 $52 #
shell $-1 $-1 $-1 $104 $-1 $54 #
shell $-1 $-1 $-1 $105 $-1 $56 #
shell $-1 $-1 $-1 $106 $-1 $58 #
shell $-1 $-1 $-1 $107 $-1 $60 #
shell $-1 $-1 $-1 $108 $-1 $62 #
shell $-1 $-1 $-1 $109 $-1 $64 #
face $-1 $110 $111 $66 $-1 $112 forward single #
face $-1 $113 $114 $67 $-1 $115 forward single #
face $-1 $116 $117 $68 $-1 $118 forward single #
face $-1 $119 $120 $69 $-1 $121 forward single #
face $-1 $122 $123 $70 $-1 $124 forward single #
face $-1 $125 $126 $71 $-1 $127 forward single #
face $-1 $128 $129 $72 $-1 $130 forward single #
face $-1 $131 $132 $73 $-1 $133 forward single #
face $-1 $134 $135 $74 $-1 $136 forward single #
face $-1 $137 $138 $75 $-1 $139 forward single #
face $-1 $140 $141 $76 $-1 $142 forward single #
face $-1 $143 $144 $77 $-1 $145 forward single #
face $-1 $146 $147 $78 $-1 $148 forward single #
face $-1 $149 $150 $79 $-1 $151 forward single #
face $-1 $152 $153 $80 $-1 $154 forward single #
face $-1 $155 $156 $81 $-1 $157 forward single #
face $-1 $158 $159 $82 $-1 $160 forward single #
face $-1 $161 $162 $83 $-1 $163 forward single #
face $-1 $164 $165 $84 $-1 $166 forward single #
face $-1 $167 $168 $85 $-1 $169 forward single #
face $-1 $170 $171 $86 $-1 $172 forward single #
face $-1 $173 $174 $87 $-1 $175 forward single #
face $-1 $176 $177 $66 $-1 $178 reversed single #
loop $-1 $-1 $179 $88 #
plane-surface $-1 0 0 5.7262616011242189 0 0 1 1 0 0 forward_v I I I I #
face $-1 $180 $181 $67 $-1 $182 reversed single #
loop $-1 $-1 $183 $89 #
plane-surface $-1 0 0 1.5 0 0 1 1 0 0 forward_v I I I I #
face $-1 $184 $185 $68 $-1 $186 reversed single #
loop $-1 $-1 $187 $90 #
plane-surface $-1 0 0 90.088198492385629 0 0 1 1 0 0 forward_v I I I I #
face $-1 $188 $189 $69 $-1 $190 forward single #
loop $-1 $191 $192 $91 #
cone-surface $-1 0 0 -1.1165349284340955 0 0 1 0.5 0 0 1 I I 0 1 0.5 forward I I I I #
face $-1 $193 $194 $70 $-1 $195 forward single #
loop $-1 $196 $197 $92 #
cone-surface $-1 0 0 -1.1165349284340955 0 0 1 0.5 0 0 1 I I 0 1 0.5 forward I I I I #
face $-1 $198 $199 $71 $-1 $200 forward single #
loop $-1 $201 $202 $93 #
cone-surface $-1 0 0 -1.1165349284340955 0 0 1 0.5 0 0 1 I I 0 1 0.5 forward I I I I #
face $-1 $203 $204 $72 $-1 $205 reversed single #
loop $-1 $-1 $206 $94 #
plane-surface $-1 0 0 90.088198492385629 0 0 1 1 0 0 forward_v I I I I #
face $-1 $207 $208 $73 $-1 $209 forward single #
loop $-1 $210 $211 $95 #
cone-surface $-1 0 0 -0.75 0 0 1 0.5 0 0 1 I I 0 1 0.5 forward I I I I #
face $-1 $212 $213 $74 $-1 $214 forward single #
loop $-1 $215 $216 $96 #
cone-surface $-1 0 0 -0.75 0 0 1 0.5 0 0 1 I I 0 1 0.5 forward I I I I #
face $-1 $217 $218 $75 $-1 $219 forward single #
loop $-1 $220 $221 $97 #
cone-surface $-1 0 0 -0.75 0 0 1 0.5 0 0 1 I I 0 1 0.5 forward I I I I #
face $-1 $222 $223 $76 $-1 $224 reversed single #
loop $-1 $-1 $225 $98 #
plane-surface $-1 0 0 90.088198492385629 0 0 1 1 0 0 forward_v I I I I #
face $-1 $226 $227 $77 $-1 $228 forward single #
loop $-1 $229 $230 $99 #
cone-surface $-1 0 0 -0.75 0 0 1 0.5 0 0 1 I I 0 1 0.5 forward I I I I #
face $-1 $231 $232 $78 $-1 $233 forward single #
loop $-1 $234 $235 $100 #
cone-surface $-1 0 0 -0.75 0 0 1 0.5 0 0 1 I I 0 1 0.5 forward I I I I #
face $-1 $236 $237 $79 $-1 $238 forward single #
loop $-1 $239 $240 $101 #
cone-surface $-1 0 0 -0.75 0 0 1 0.5 0 0 1 I I 0 1 0.5 forward I I I I #
face $-1 $241 $242 $80 $-1 $243 reversed single #
loop $-1 $-1 $244 $102 #
plane-surface $-1 0 0 90.088198492385629 0 0 1 1 0 0 forward_v I I I I #
face $-1 $245 $246 $81 $-1 $247 forward single #
loop $-1 $248 $249 $103 #
cone-surface $-1 0 0 -0.75 0 0 1 0.5 0 0 1 I I 0 1 0.5 forward I I I I #
face $-1 $250 $251 $82 $-1 $252 forward single #
loop $-1 $253 $254 $104 #
cone-surface $-1 0 0 -0.75 0 0 1 0.5 0 0 1 I I 0 1 0.5 forward I I I I #
face $-1 $255 $256 $83 $-1 $257 forward single #
loop $-1 $258 $259 $105 #
cone-surface $-1 0 0 -0.75 0 0 1 0.5 0 0 1 I I 0 1 0.5 forward I I I I #
face $-1 $260 $261 $84 $-1 $262 reversed single #
loop $-1 $-1 $263 $106 #
plane-surface $-1 0 0 90.088198492385629 0 0 1 1 0 0 forward_v I I I I #
face $-1 $264 $265 $85 $-1 $266 forward single #
loop $-1 $267 $268 $107 #
cone-surface $-1 0 0 -0.75 0 0 1 0.5 0 0 1 I I 0 1 0.5 forward I I I I #
face $-1 $269 $270 $86 $-1 $271 forward single #
loop $-1 $272 $273 $108 #
cone-surface $-1 0 0 -0.75 0 0 1 0.5 0 0 1 I I 0 1 0.5 forward I I I I #
face $-1 $274 $275 $87 $-1 $276 forward single #
loop $-1 $277 $278 $109 #
cone-surface $-1 0 0 -0.75 0 0 1 0.5 0 0 1 I I 0 1 0.5 forward I I I I #
face $-1 $279 $280 $66 $-1 $281 reversed single #
loop $-1 $-1 $282 $110 #
plane-surface $-1 0 0 -5.7262616011242189 0 0 1 1 0 0 forward_v I I I I #
coedge $-1 $283 $284 $285 $286 forward $111 $-1 #
face $-1 $287 $288 $67 $-1 $289 reversed single #
loop $-1 $-1 $290 $113 #
plane-surface $-1 0 0 -1.5 0 0 1 1 0 0 forward_v I I I I #
coedge $-1 $291 $292 $293 $294 forward $114 $-1 #
face $-1 $295 $296 $68 $-1 $297 reversed single #
loop $-1 $-1 $298 $116 #
plane-surface $-1 0 0 -90.088198492385629 0 0 1 1 0 0 forward_v I I I I #
coedge $-1 $299 $300 $301 $302 forward $117 $-1 #
face $-1 $-1 $303 $69 $-1 $304 forward single #
loop $-1 $-1 $305 $119 #
plane-surface $-1 0 0 -1.983069856868191 0 0 -1 -1 0 0 forward_v I I I I #
loop $-1 $-1 $306 $91 #
coedge $-1 $192 $192 $305 $307 reversed $120 $-1 #
face $-1 $-1 $308 $70 $-1 $309 forward single #
loop $-1 $-1 $310 $122 #
plane-surface $-1 0 0 -1.983069856868191 0 0 -1 -1 0 0 forward_v I I I I #
loop $-1 $-1 $311 $92 #
coedge $-1 $197 $197 $310 $312 reversed $123 $-1 #
face $-1 $-1 $313 $71 $-1 $314 forward single #
loop $-1 $-1 $315 $125 #
plane-surface $-1 0 0 -1.983069856868191 0 0 -1 -1 0 0 forward_v I I I I #
loop $-1 $-1 $316 $93 #
coedge $-1 $202 $202 $315 $317 reversed $126 $-1 #
face $-1 $318 $319 $72 $-1 $320 reversed single #
loop $-1 $-1 $321 $128 #
plane-surface $-1 0 0 -90.088198492385629 0 0 1 1 0 0 forward_v I I I I #
coedge $-1 $322 $323 $324 $325 forward $129 $-1 #
face $-1 $-1 $326 $73 $-1 $327 forward single #
loop $-1 $-1 $328 $131 #
plane-surface $-1 0 0 -1.25 0 0 -1 -1 0 0 forward_v I I I I #
loop $-1 $-1 $329 $95 #
coedge $-1 $211 $211 $328 $330 reversed $132 $-1 #
face $-1 $-1 $331 $74 $-1 $332 forward single #
loop $-1 $-1 $333 $134 #
plane-surface $-1 0 0 -1.25 0 0 -1 -1 0 0 forward_v I I I I #
loop $-1 $-1 $334 $96 #
coedge $-1 $216 $216 $333 $335 reversed $135 $-1 #
face $-1 $-1 $336 $75 $-1 $337 forward single #
loop $-1 $-1 $338 $137 #
plane-surface $-1 0 0 -1.25 0 0 -1 -1 0 0 forward_v I I I I #
loop $-1 $-1 $339 $97 #
coedge $-1 $221 $221 $338 $340 reversed $138 $-1 #
face $-1 $341 $342 $76 $-1 $343 reversed single #
loop $-1 $-1 $344 $140 #
plane-surface $-1 0 0 -90.088198492385629 0 0 1 1 0 0 forward_v I I I I #
coedge $-1 $345 $346 $347 $348 forward $141 $-1 #
face $-1 $-1 $349 $77 $-1 $350 forward single #
loop $-1 $-1 $351 $143 #
plane-surface $-1 0 0 -1.25 0 0 -1 -1 0 0 forward_v I I I I #
loop $-1 $-1 $352 $99 #
coedge $-1 $230 $230 $351 $353 reversed $144 $-1 #
face $-1 $-1 $354 $78 $-1 $355 forward single #
loop $-1 $-1 $356 $146 #
plane-surface $-1 0 0 -1.25 0 0 -1 -1 0 0 forward_v I I I I #
loop $-1 $-1 $357 $100 #
coedge $-1 $235 $235 $356 $358 reversed $147 $-1 #
face $-1 $-1 $359 $79 $-1 $360 forward single #
loop $-1 $-1 $361 $149 #
plane-surface $-1 0 0 -1.25 0 0 -1 -1 0 0 forward_v I I I I #
loop $-1 $-1 $362 $101 #
coedge $-1 $240 $240 $361 $363 reversed $150 $-1 #
face $-1 $364 $365 $80 $-1 $366 reversed single #
loop $-1 $-1 $367 $152 #
plane-surface $-1 0 0 -90.088198492385629 0 0 1 1 0 0 forward_v I I I I #
coedge $-1 $368 $369 $370 $371 forward $153 $-1 #
face $-1 $-1 $372 $81 $-1 $373 forward single #
loop $-1 $-1 $374 $155 #
plane-surface $-1 0 0 -1.25 0 0 -1 -1 0 0 forward_v I I I I #
loop $-1 $-1 $375 $103 #
coedge $-1 $249 $249 $374 $376 reversed $156 $-1 #
face $-1 $-1 $377 $82 $-1 $378 forward single #
loop $-1 $-1 $379 $158 #
plane-surface $-1 0 0 -1.25 0 0 -1 -1 0 0 forward_v I I I I #
loop $-1 $-1 $380 $104 #
coedge $-1 $254 $254 $379 $381 reversed $159 $-1 #
face $-1 $-1 $382 $83 $-1 $383 forward single #
loop $-1 $-1 $384 $161 #
plane-surface $-1 0 0 -1.25 0 0 -1 -1 0 0 forward_v I I I I #
loop $-1 $-1 $385 $105 #
coedge $-1 $259 $259 $384 $386 reversed $162 $-1 #
face $-1 $387 $388 $84 $-1 $389 reversed single #
loop $-1 $-1 $390 $164 #
plane-surface $-1 0 0 -90.088198492385629 0 0 1 1 0 0 forward_v I I I I #
coedge $-1 $391 $392 $393 $394 forward $165 $-1 #
face $-1 $-1 $395 $85 $-1 $396 forward single #
loop $-1 $-1 $397 $167 #
plane-surface $-1 0 0 -1.25 0 0 -1 -1 0 0 forward_v I I I I #
loop $-1 $-1 $398 $107 #
coedge $-1 $268 $268 $397 $399 reversed $168 $-1 #
face $-1 $-1 $400 $86 $-1 $401 forward single #
loop $-1 $-1 $402 $170 #
plane-surface $-1 0 0 -1.25 0 0 -1 -1 0 0 forward_v I I I I #
loop $-1 $-1 $403 $108 #
coedge $-1 $273 $273 $402 $404 reversed $171 $-1 #
face $-1 $-1 $405 $87 $-1 $406 forward single #
loop $-1 $-1 $407 $173 #
plane-surface $-1 0 0 -1.25 0 0 -1 -1 0 0 forward_v I I I I #
loop $-1 $-1 $408 $109 #
coedge $-1 $278 $278 $407 $409 reversed $174 $-1 #
face $-1 $410 $411 $66 $-1 $412 reversed single #
loop $-1 $-1 $413 $176 #
plane-surface $-1 0 -23.850264250363825 0 0 1 0 0 0 1 forward_v I I I I #
coedge $-1 $414 $415 $416 $417 forward $177 $-1 #
coedge $-1 $418 $179 $419 $420 forward $111 $-1 #
coedge $-1 $179 $418 $421 $422 forward $111 $-1 #
coedge $-1 $423 $424 $179 $286 reversed $425 $-1 #
edge $-1 $426 -23.850264250363825 $427 23.850264250363825 $285 $428 forward 7 unknown #
face $-1 $429 $430 $67 $-1 $431 reversed single #
loop $-1 $-1 $432 $180 #
plane-surface $-1 0 -1.9671168694337153 0 0 1 0 0 0 1 forward_v I I I I #
coedge $-1 $433 $434 $435 $436 forward $181 $-1 #
coedge $-1 $437 $183 $438 $439 forward $114 $-1 #
coedge $-1 $183 $437 $440 $441 forward $114 $-1 #
coedge $-1 $442 $443 $183 $294 reversed $444 $-1 #
edge $-1 $445 -1.9671168694337153 $446 1.9671168694337153 $293 $447 forward 7 unknown #
face $-1 $448 $449 $68 $-1 $450 reversed single #
loop $-1 $-1 $451 $184 #
plane-surface $-1 0 -5.0800857091830451 0 0 1 0 0 0 1 forward_v I I I I #
coedge $-1 $452 $453 $454 $455 forward $185 $-1 #
coedge $-1 $456 $187 $457 $458 forward $117 $-1 #
coedge $-1 $187 $456 $459 $460 forward $117 $-1 #
coedge $-1 $461 $462 $187 $302 reversed $463 $-1 #
edge $-1 $464 -5.0800857091830451 $465 5.0800857091830451 $301 $466 forward 7 unknown #
loop $-1 $467 $468 $188 #
cone-surface $-1 0 0 0 0 0 1 0.25 0 0 1 I I -0.70710678118654746 0.70710678118654746 0.25 forward I I I I #
coedge $-1 $305 $305 $192 $307 forward $189 $-1 #
coedge $-1 $306 $306 $468 $469 forward $191 $-1 #
edge $-1 $470 0 $470 6.2831853071796004 $305 $471 forward 7 unknown #
loop $-1 $472 $473 $193 #
cone-surface $-1 0 0 0 0 0 1 0.25 0 0 1 I I -0.70710678118654746 0.70710678118654746 0.25 forward I I I I #
coedge $-1 $310 $310 $197 $312 forward $194 $-1 #
coedge $-1 $311 $311 $473 $474 forward $196 $-1 #
edge $-1 $475 0 $475 6.2831853071796004 $310 $476 forward 7 unknown #
loop $-1 $477 $478 $198 #
cone-surface $-1 0 0 0 0 0 1 0.25 0 0 1 I I -0.70710678118654746 0.70710678118654746 0.25 forward I I I I #
coedge $-1 $315 $315 $202 $317 forward $199 $-1 #
coedge $-1 $316 $316 $478 $479 forward $201 $-1 #
edge $-1 $480 0 $480 6.2831853071796004 $315 $481 forward 7 unknown #
face $-1 $482 $483 $72 $-1 $484 reversed single #
loop $-1 $-1 $485 $203 #
plane-surface $-1 0 -3.0286061161796303 0 0 1 0 0 0 1 forward_v I I I I #
coedge $-1 $486 $487 $488 $489 forward $204 $-1 #
coedge $-1 $490 $206 $491 $492 forward $129 $-1 #
coedge $-1 $206 $490 $493 $494 forward $129 $-1 #
coedge $-1 $495 $496 $206 $325 reversed $497 $-1 #
edge $-1 $498 -3.0286061161796303 $499 3.0286061161796303 $324 $500 forward 7 unknown #
loop $-1 $501 $502 $207 #
cone-surface $-1 0 0 0 0 0 1 0.25 0 0 1 I I -0.70710678118654746 0.70710678118654746 0.25 forward I I I I #
coedge $-1 $328 $328 $211 $330 forward $208 $-1 #
coedge $-1 $329 $329 $502 $503 forward $210 $-1 #
edge $-1 $504 0 $504 6.2831853071796004 $328 $505 forward 7 unknown #
loop $-1 $506 $507 $212 #
cone-surface $-1 0 0 0 0 0 1 0.25 0 0 1 I I -0.70710678118654746 0.70710678118654746 0.25 forward I I I I #
coedge $-1 $333 $333 $216 $335 forward $213 $-1 #
coedge $-1 $334 $334 $507 $508 forward $215 $-1 #
edge $-1 $509 0 $509 6.2831853071796004 $333 $510 forward 7 unknown #
loop $-1 $511 $512 $217 #
cone-surface $-1 0 0 0 0 0 1 0.25 0 0 1 I I -0.70710678118654746 0.70710678118654746 0.25 forward I I I I #
coedge $-1 $338 $338 $221 $340 forward $218 $-1 #
coedge $-1 $339 $339 $512 $513 forward $220 $-1 #
edge $-1 $514 0 $514 6.2831853071796004 $338 $515 forward 7 unknown #
face $-1 $516 $517 $76 $-1 $518 reversed single #
loop $-1 $-1 $519 $222 #
plane-surface $-1 0 -3.0286061161796303 0 0 1 0 0 0 1 forward_v I I I I #
coedge $-1 $520 $521 $522 $523 forward $223 $-1 #
coedge $-1 $524 $225 $525 $526 forward $141 $-1 #
coedge $-1 $225 $524 $527 $528 forward $141 $-1 #
coedge $-1 $529 $530 $225 $348 reversed $531 $-1 #
edge $-1 $532 -3.0286061161796303 $533 3.0286061161796303 $347 $534 forward 7 unknown #
loop $-1 $535 $536 $226 #
cone-surface $-1 0 0 0 0 0 1 0.25 0 0 1 I I -0.70710678118654746 0.70710678118654746 0.25 forward I I I I #
coedge $-1 $351 $351 $230 $353 forward $227 $-1 #
coedge $-1 $352 $352 $536 $537 forward $229 $-1 #
edge $-1 $538 0 $538 6.2831853071796004 $351 $539 forward 7 unknown #
loop $-1 $540 $541 $231 #
cone-surface $-1 0 0 0 0 0 1 0.25 0 0 1 I I -0.70710678118654746 0.70710678118654746 0.25 forward I I I I #
coedge $-1 $356 $356 $235 $358 forward $232 $-1 #
coedge $-1 $357 $357 $541 $542 forward $234 $-1 #
edge $-1 $543 0 $543 6.2831853071796004 $356 $544 forward 7 unknown #
loop $-1 $545 $546 $236 #
cone-surface $-1 0 0 0 0 0 1 0.25 0 0 1 I I -0.70710678118654746 0.70710678118654746 0.25 forward I I I I #
coedge $-1 $361 $361 $240 $363 forward $237 $-1 #
coedge $-1 $362 $362 $546 $547 forward $239 $-1 #
edge $-1 $548 0 $548 6.2831853071796004 $361 $549 forward 7 unknown #
face $-1 $550 $551 $80 $-1 $552 reversed single #
loop $-1 $-1 $553 $241 #
plane-surface $-1 0 -3.0286061161796303 0 0 1 0 0 0 1 forward_v I I I I #
coedge $-1 $554 $555 $556 $557 forward $242 $-1 #
coedge $-1 $558 $244 $559 $560 forward $153 $-1 #
coedge $-1 $244 $558 $561 $562 forward $153 $-1 #
coedge $-1 $563 $564 $244 $371 reversed $565 $-1 #
edge $-1 $566 -3.0286061161796303 $567 3.0286061161796303 $370 $568 forward 7 unknown #
loop $-1 $569 $570 $245 #
cone-surface $-1 0 0 0 0 0 1 0.25 0 0 1 I I -0.70710678118654746 0.70710678118654746 0.25 forward I I I I #
coedge $-1 $374 $374 $249 $376 forward $246 $-1 #
coedge $-1 $375 $375 $570 $571 forward $248 $-1 #
edge $-1 $572 0 $572 6.2831853071796004 $374 $573 forward 7 unknown #
loop $-1 $574 $575 $250 #
cone-surface $-1 0 0 0 0 0 1 0.25 0 0 1 I I -0.70710678118654746 0.70710678118654746 0.25 forward I I I I #
coedge $-1 $379 $379 $254 $381 forward $251 $-1 #
coedge $-1 $380 $380 $575 $576 forward $253 $-1 #
edge $-1 $577 0 $577 6.2831853071796004 $379 $578 forward 7 unknown #
loop $-1 $579 $580 $255 #
cone-surface $-1 0 0 0 0 0 1 0.25 0 0 1 I I -0.70710678118654746 0.70710678118654746 0.25 forward I I I I #
coedge $-1 $384 $384 $259 $386 forward $256 $-1 #
coedge $-1 $385 $385 $580 $581 forward $258 $-1 #
edge $-1 $582 0 $582 6.2831853071796004 $384 $583 forward 7 unknown #
face $-1 $584 $585 $84 $-1 $586 reversed single #
loop $-1 $-1 $587 $260 #
plane-surface $-1 0 -3.0286061161796303 0 0 1 0 0 0 1 forward_v I I I I #
coedge $-1 $588 $589 $590 $591 forward $261 $-1 #
coedge $-1 $592 $263 $593 $594 forward $165 $-1 #
coedge $-1 $263 $592 $595 $596 forward $165 $-1 #
coedge $-1 $597 $598 $263 $394 reversed $599 $-1 #
edge $-1 $600 -3.0286061161796303 $601 3.0286061161796303 $393 $602 forward 7 unknown #
loop $-1 $603 $604 $264 #
cone-surface $-1 0 0 0 0 0 1 0.25 0 0 1 I I -0.70710678118654746 0.70710678118654746 0.25 forward I I I I #
coedge $-1 $397 $397 $268 $399 forward $265 $-1 #
coedge $-1 $398 $398 $604 $605 forward $267 $-1 #
edge $-1 $606 0 $606 6.2831853071796004 $397 $607 forward 7 unknown #
loop $-1 $608 $609 $269 #
cone-surface $-1 0 0 0 0 0 1 0.25 0 0 1 I I -0.70710678118654746 0.70710678118654746 0.25 forward I I I I #
coedge $-1 $402 $402 $273 $404 forward $270 $-1 #
coedge $-1 $403 $403 $609 $610 forward $272 $-1 #
edge $-1 $611 0 $611 6.2831853071796004 $402 $612 forward 7 unknown #
loop $-1 $613 $614 $274 #
cone-surface $-1 0 0 0 0 0 1 0.25 0 0 1 I I -0.70710678118654746 0.70710678118654746 0.25 forward I I I I #
coedge $-1 $407 $407 $278 $409 forward $275 $-1 #
coedge $-1 $408 $408 $614 $615 forward $277 $-1 #
edge $-1 $616 0 $616 6.2831853071796004 $407 $617 forward 7 unknown #
face $-1 $618 $619 $66 $-1 $620 reversed single #
loop $-1 $-1 $621 $279 #
plane-surface $-1 -45.044099246192815 0 0 1 0 0 0 0 -1 forward_v I I I I #
coedge $-1 $622 $421 $623 $624 forward $280 $-1 #
coedge $-1 $625 $282 $622 $626 forward $177 $-1 #
coedge $-1 $282 $625 $627 $628 forward $177 $-1 #
coedge $-1 $424 $423 $282 $417 reversed $425 $-1 #
edge $-1 $629 -23.850264250363825 $630 23.850264250363825 $416 $631 forward 7 unknown #
coedge $-1 $284 $283 $632 $633 forward $111 $-1 #
coedge $-1 $634 $635 $283 $420 reversed $619 $-1 #
edge $-1 $427 -45.044099246192815 $636 45.044099246192815 $419 $637 forward 7 unknown #
coedge $-1 $413 $638 $284 $422 reversed $280 $-1 #
edge $-1 $639 -45.044099246192815 $426 45.044099246192815 $421 $640 forward 7 unknown #
coedge $-1 $416 $285 $638 $641 forward $425 $-1 #
coedge $-1 $285 $416 $634 $642 reversed $425 $-1 #
loop $-1 $-1 $423 $618 #
vertex $-1 $286 $643 #
vertex $-1 $286 $644 #
straight-curve $-1 45.044099246192815 0 5.7262616011242189 0 1 0 I I #
face $-1 $645 $646 $67 $-1 $647 reversed single #
loop $-1 $-1 $648 $287 #
plane-surface $-1 -45.044099246192815 0 0 1 0 0 0 0 -1 forward_v I I I I #
coedge $-1 $649 $440 $650 $651 forward $288 $-1 #
coedge $-1 $652 $290 $649 $653 forward $181 $-1 #
coedge $-1 $290 $652 $654 $655 forward $181 $-1 #
coedge $-1 $443 $442 $290 $436 reversed $444 $-1 #
edge $-1 $656 -1.9671168694337153 $657 1.9671168694337153 $435 $658 forward 7 unknown #
coedge $-1 $292 $291 $659 $660 forward $114 $-1 #
coedge $-1 $661 $662 $291 $439 reversed $646 $-1 #
edge $-1 $446 -45.044099246192815 $663 45.044099246192815 $438 $664 forward 7 unknown #
coedge $-1 $432 $665 $292 $441 reversed $288 $-1 #
edge $-1 $666 -45.044099246192815 $445 45.044099246192815 $440 $667 forward 7 unknown #
coedge $-1 $435 $293 $665 $668 forward $444 $-1 #
coedge $-1 $293 $435 $661 $669 reversed $444 $-1 #
loop $-1 $-1 $442 $645 #
vertex $-1 $294 $670 #
vertex $-1 $294 $671 #
straight-curve $-1 45.044099246192815 0 1.5 0 1 0 I I #
face $-1 $672 $673 $68 $-1 $674 reversed single #
loop $-1 $-1 $675 $295 #
plane-surface $-1 -180.17639698477126 0 0 1 0 0 0 0 -1 forward_v I I I I #
coedge $-1 $676 $459 $677 $678 forward $296 $-1 #
coedge $-1 $679 $298 $676 $680 forward $185 $-1 #
coedge $-1 $298 $679 $681 $682 forward $185 $-1 #
coedge $-1 $462 $461 $298 $455 reversed $463 $-1 #
edge $-1 $683 -5.0800857091830451 $684 5.0800857091830451 $454 $685 forward 7 unknown #
coedge $-1 $300 $299 $686 $687 forward $117 $-1 #
coedge $-1 $688 $689 $299 $458 reversed $673 $-1 #
edge $-1 $465 -180.17639698477126 $690 180.17639698477126 $457 $691 forward 7 unknown #
coedge $-1 $451 $692 $300 $460 reversed $296 $-1 #
edge $-1 $693 -180.17639698477126 $464 180.17639698477126 $459 $694 forward 7 unknown #
coedge $-1 $454 $301 $692 $695 forward $463 $-1 #
coedge $-1 $301 $454 $688 $696 reversed $463 $-1 #
loop $-1 $-1 $461 $672 #
vertex $-1 $302 $697 #
vertex $-1 $302 $698 #
straight-curve $-1 180.17639698477126 0 90.088198492385629 0 1 0 I I #
loop $-1 $-1 $699 $188 #
coedge $-1 $468 $468 $306 $469 reversed $303 $-1 #
edge $-1 $700 0 $700 6.2831853071796004 $468 $701 forward 7 unknown #
vertex $-1 $307 $702 #
ellipse-curve $-1 0 0 -1.983069856868191 0 0 -1 0.5 0 0 1 I I #
loop $-1 $-1 $703 $193 #
coedge $-1 $473 $473 $311 $474 reversed $308 $-1 #
edge $-1 $704 0 $704 6.2831853071796004 $473 $705 forward 7 unknown #
vertex $-1 $312 $706 #
ellipse-curve $-1 0 0 -1.983069856868191 0 0 -1 0.5 0 0 1 I I #
loop $-1 $-1 $707 $198 #
coedge $-1 $478 $478 $316 $479 reversed $313 $-1 #
edge $-1 $708 0 $708 6.2831853071796004 $478 $709 forward 7 unknown #
vertex $-1 $317 $710 #
ellipse-curve $-1 0 0 -1.983069856868191 0 0 -1 0.5 0 0 1 I I #
face $-1 $711 $712 $72 $-1 $713 reversed single #
loop $-1 $-1 $714 $318 #
plane-surface $-1 -180.17639698477126 0 0 1 0 0 0 0 -1 forward_v I I I I #
coedge $-1 $715 $493 $716 $717 forward $319 $-1 #
coedge $-1 $718 $321 $715 $719 forward $204 $-1 #
coedge $-1 $321 $718 $720 $721 forward $204 $-1 #
coedge $-1 $496 $495 $321 $489 reversed $497 $-1 #
edge $-1 $722 -3.0286061161796303 $723 3.0286061161796303 $488 $724 forward 7 unknown #
coedge $-1 $323 $322 $725 $726 forward $129 $-1 #
coedge $-1 $727 $728 $322 $492 reversed $712 $-1 #
edge $-1 $499 -180.17639698477126 $729 180.17639698477126 $491 $730 forward 7 unknown #
coedge $-1 $485 $731 $323 $494 reversed $319 $-1 #
edge $-1 $732 -180.17639698477126 $498 180.17639698477126 $493 $733 forward 7 unknown #
coedge $-1 $488 $324 $731 $734 forward $497 $-1 #
coedge $-1 $324 $488 $727 $735 reversed $497 $-1 #
loop $-1 $-1 $495 $711 #
vertex $-1 $325 $736 #
vertex $-1 $325 $737 #
straight-curve $-1 180.17639698477126 0 90.088198492385629 0 1 0 I I #
loop $-1 $-1 $738 $207 #
coedge $-1 $502 $502 $329 $503 reversed $326 $-1 #
edge $-1 $739 0 $739 6.2831853071796004 $502 $740 forward 7 unknown #
vertex $-1 $330 $741 #
ellipse-curve $-1 0 0 -1.25 0 0 -1 0.5 0 0 1 I I #
loop $-1 $-1 $742 $212 #
coedge $-1 $507 $507 $334 $508 reversed $331 $-1 #
edge $-1 $743 0 $743 6.2831853071796004 $507 $744 forward 7 unknown #
vertex $-1 $335 $745 #
ellipse-curve $-1 0 0 -1.25 0 0 -1 0.5 0 0 1 I I #
loop $-1 $-1 $746 $217 #
coedge $-1 $512 $512 $339 $513 reversed $336 $-1 #
edge $-1 $747 0 $747 6.2831853071796004 $512 $748 forward 7 unknown #
vertex $-1 $340 $749 #
ellipse-curve $-1 0 0 -1.25 0 0 -1 0.5 0 0 1 I I #
face $-1 $750 $751 $76 $-1 $752 reversed single #
loop $-1 $-1 $753 $341 #
plane-surface $-1 -180.17639698477126 0 0 1 0 0 0 0 -1 forward_v I I I I #
coedge $-1 $754 $527 $755 $756 forward $342 $-1 #
coedge $-1 $757 $344 $754 $758 forward $223 $-1 #
coedge $-1 $344 $757 $759 $760 forward $223 $-1 #
coedge $-1 $530 $529 $344 $523 reversed $531 $-1 #
edge $-1 $761 -3.0286061161796303 $762 3.0286061161796303 $522 $763 forward 7 unknown #
coedge $-1 $346 $345 $764 $765 forward $141 $-1 #
coedge $-1 $766 $767 $345 $526 reversed $751 $-1 #
edge $-1 $533 -180.17639698477126 $768 180.17639698477126 $525 $769 forward 7 unknown #
coedge $-1 $519 $770 $346 $528 reversed $342 $-1 #
edge $-1 $771 -180.17639698477126 $532 180.17639698477126 $527 $772 forward 7 unknown #
coedge $-1 $522 $347 $770 $773 forward $531 $-1 #
coedge $-1 $347 $522 $766 $774 reversed $531 $-1 #
loop $-1 $-1 $529 $750 #
vertex $-1 $348 $775 #
vertex $-1 $348 $776 #
straight-curve $-1 180.17639698477126 0 90.088198492385629 0 1 0 I I #
loop $-1 $-1 $777 $226 #
coedge $-1 $536 $536 $352 $537 reversed $349 $-1 #
edge $-1 $778 0 $778 6.2831853071796004 $536 $779 forward 7 unknown #
vertex $-1 $353 $780 #
ellipse-curve $-1 0 0 -1.25 0 0 -1 0.5 0 0 1 I I #
loop $-1 $-1 $781 $231 #
coedge $-1 $541 $541 $357 $542 reversed $354 $-1 #
edge $-1 $782 0 $782 6.2831853071796004 $541 $783 forward 7 unknown #
vertex $-1 $358 $784 #
ellipse-curve $-1 0 0 -1.25 0 0 -1 0.5 0 0 1 I I #
loop $-1 $-1 $785 $236 #
coedge $-1 $546 $546 $362 $547 reversed $359 $-1 #
edge $-1 $786 0 $786 6.2831853071796004 $546 $787 forward 7 unknown #
vertex $-1 $363 $788 #
ellipse-curve $-1 0 0 -1.25 0 0 -1 0.5 0 0 1 I I #
face $-1 $789 $790 $80 $-1 $791 reversed single #
loop $-1 $-1 $792 $364 #
plane-surface $-1 -180.17639698477126 0 0 1 0 0 0 0 -1 forward_v I I I I #
coedge $-1 $793 $561 $794 $795 forward $365 $-1 #
coedge $-1 $796 $367 $793 $797 forward $242 $-1 #
coedge $-1 $367 $796 $798 $799 forward $242 $-1 #
coedge $-1 $564 $563 $367 $557 reversed $565 $-1 #
edge $-1 $800 -3.0286061161796303 $801 3.0286061161796303 $556 $802 forward 7 unknown #
coedge $-1 $369 $368 $803 $804 forward $153 $-1 #
coedge $-1 $805 $806 $368 $560 reversed $790 $-1 #
edge $-1 $567 -180.17639698477126 $807 180.17639698477126 $559 $808 forward 7 unknown #
coedge $-1 $553 $809 $369 $562 reversed $365 $-1 #
edge $-1 $810 -180.17639698477126 $566 180.17639698477126 $561 $811 forward 7 unknown #
coedge $-1 $556 $370 $809 $812 forward $565 $-1 #
coedge $-1 $370 $556 $805 $813 reversed $565 $-1 #
loop $-1 $-1 $563 $789 #
vertex $-1 $371 $814 #
vertex $-1 $371 $815 #
straight-curve $-1 180.17639698477126 0 90.088198492385629 0 1 0 I I #
loop $-1 $-1 $816 $245 #
coedge $-1 $570 $570 $375 $571 reversed $372 $-1 #
edge $-1 $817 0 $817 6.2831853071796004 $570 $818 forward 7 unknown #
vertex $-1 $376 $819 #
ellipse-curve $-1 0 0 -1.25 0 0 -1 0.5 0 0 1 I I #
loop $-1 $-1 $820 $250 #
coedge $-1 $575 $575 $380 $576 reversed $377 $-1 #
edge $-1 $821 0 $821 6.2831853071796004 $575 $822 forward 7 unknown #
vertex $-1 $381 $823 #
ellipse-curve $-1 0 0 -1.25 0 0 -1 0.5 0 0 1 I I #
loop $-1 $-1 $824 $255 #
coedge $-1 $580 $580 $385 $581 reversed $382 $-1 #
edge $-1 $825 0 $825 6.2831853071796004 $580 $826 forward 7 unknown #
vertex $-1 $386 $827 #
ellipse-curve $-1 0 0 -1.25 0 0 -1 0.5 0 0 1 I I #
face $-1 $828 $829 $84 $-1 $830 reversed single #
loop $-1 $-1 $831 $387 #
plane-surface $-1 -180.17639698477126 0 0 1 0 0 0 0 -1 forward_v I I I I #
coedge $-1 $832 $595 $833 $834 forward $388 $-1 #
coedge $-1 $835 $390 $832 $836 forward $261 $-1 #
coedge $-1 $390 $835 $837 $838 forward $261 $-1 #
coedge $-1 $598 $597 $390 $591 reversed $599 $-1 #
edge $-1 $839 -3.0286061161796303 $840 3.0286061161796303 $590 $841 forward 7 unknown #
coedge $-1 $392 $391 $842 $843 forward $165 $-1 #
coedge $-1 $844 $845 $391 $594 reversed $829 $-1 #
edge $-1 $601 -180.17639698477126 $846 180.17639698477126 $593 $847 forward 7 unknown #
coedge $-1 $587 $848 $392 $596 reversed $388 $-1 #
edge $-1 $849 -180.17639698477126 $600 180.17639698477126 $595 $850 forward 7 unknown #
coedge $-1 $590 $393 $848 $851 forward $599 $-1 #
coedge $-1 $393 $590 $844 $852 reversed $599 $-1 #
loop $-1 $-1 $597 $828 #
vertex $-1 $394 $853 #
vertex $-1 $394 $854 #
straight-curve $-1 180.17639698477126 0 90.088198492385629 0 1 0 I I #
loop $-1 $-1 $855 $264 #
coedge $-1 $604 $604 $398 $605 reversed $395 $-1 #
edge $-1 $856 0 $856 6.2831853071796004 $604 $857 forward 7 unknown #
vertex $-1 $399 $858 #
ellipse-curve $-1 0 0 -1.25 0 0 -1 0.5 0 0 1 I I #
loop $-1 $-1 $859 $269 #
coedge $-1 $609 $609 $403 $610 reversed $400 $-1 #
edge $-1 $860 0 $860 6.2831853071796004 $609 $861 forward 7 unknown #
vertex $-1 $404 $862 #
ellipse-curve $-1 0 0 -1.25 0 0 -1 0.5 0 0 1 I I #
loop $-1 $-1 $863 $274 #
coedge $-1 $614 $614 $408 $615 reversed $405 $-1 #
edge $-1 $864 0 $864 6.2831853071796004 $614 $865 forward 7 unknown #
vertex $-1 $409 $866 #
ellipse-curve $-1 0 0 -1.25 0 0 -1 0.5 0 0 1 I I #
face $-1 $-1 $425 $66 $-1 $867 reversed single #
loop $-1 $-1 $634 $410 #
plane-surface $-1 0 23.850264250363825 0 0 -1 0 0 0 -1 forward_v I I I I #
coedge $-1 $868 $632 $635 $869 forward $411 $-1 #
coedge $-1 $638 $413 $414 $626 reversed $280 $-1 #
coedge $-1 $632 $868 $413 $624 reversed $411 $-1 #
edge $-1 $639 -5.7262616011242189 $870 5.7262616011242189 $623 $871 forward 7 unknown #
coedge $-1 $415 $414 $868 $872 forward $177 $-1 #
edge $-1 $630 -45.044099246192815 $870 45.044099246192815 $622 $873 forward 7 unknown #
coedge $-1 $635 $634 $415 $628 reversed $619 $-1 #
edge $-1 $874 -45.044099246192815 $629 45.044099246192815 $627 $875 forward 7 unknown #
vertex $-1 $417 $876 #
vertex $-1 $641 $877 #
straight-curve $-1 45.044099246192815 0 -5.7262616011242189 0 -1 0 I I #
coedge $-1 $621 $623 $418 $633 reversed $411 $-1 #
edge $-1 $636 -23.850264250363825 $639 23.850264250363825 $632 $878 forward 7 unknown #
coedge $-1 $627 $419 $424 $642 forward $619 $-1 #
coedge $-1 $419 $627 $621 $869 reversed $619 $-1 #
vertex $-1 $420 $879 #
straight-curve $-1 0 23.850264250363825 5.7262616011242189 -1 0 0 I I #
coedge $-1 $421 $622 $423 $641 reversed $280 $-1 #
vertex $-1 $633 $880 #
straight-curve $-1 0 -23.850264250363825 5.7262616011242189 1 0 0 I I #
edge $-1 $426 -5.7262616011242189 $630 5.7262616011242189 $423 $881 forward 7 unknown #
edge $-1 $427 -5.7262616011242189 $629 5.7262616011242189 $424 $882 forward 7 unknown #
point $-1 45.044099246192815 -23.850264250363825 5.7262616011242189 #
point $-1 45.044099246192815 23.850264250363825 5.7262616011242189 #
face $-1 $-1 $444 $67 $-1 $883 reversed single #
loop $-1 $-1 $661 $429 #
plane-surface $-1 0 1.9671168694337153 0 0 -1 0 0 0 -1 forward_v I I I I #
coedge $-1 $884 $659 $662 $885 forward $430 $-1 #
coedge $-1 $665 $432 $433 $653 reversed $288 $-1 #
coedge $-1 $659 $884 $432 $651 reversed $430 $-1 #
edge $-1 $666 -1.5 $886 1.5 $650 $887 forward 7 unknown #
coedge $-1 $434 $433 $884 $888 forward $181 $-1 #
edge $-1 $657 -45.044099246192815 $886 45.044099246192815 $649 $889 forward 7 unknown #
coedge $-1 $662 $661 $434 $655 reversed $646 $-1 #
edge $-1 $890 -45.044099246192815 $656 45.044099246192815 $654 $891 forward 7 unknown #
vertex $-1 $436 $892 #
vertex $-1 $668 $893 #
straight-curve $-1 45.044099246192815 0 -1.5 0 -1 0 I I #
coedge $-1 $648 $650 $437 $660 reversed $430 $-1 #
edge $-1 $663 -1.9671168694337153 $666 1.9671168694337153 $659 $894 forward 7 unknown #
coedge $-1 $654 $438 $443 $669 forward $646 $-1 #
coedge $-1 $438 $654 $648 $885 reversed $646 $-1 #
vertex $-1 $439 $895 #
straight-curve $-1 0 1.9671168694337153 1.5 -1 0 0 I I #
coedge $-1 $440 $649 $442 $668 reversed $288 $-1 #
vertex $-1 $660 $896 #
straight-curve $-1 0 -1.9671168694337153 1.5 1 0 0 I I #
edge $-1 $445 -1.5 $657 1.5 $442 $897 forward 7 unknown #
edge $-1 $446 -1.5 $656 1.5 $443 $898 forward 7 unknown #
point $-1 45.044099246192815 -1.9671168694337153 1.5 #
point $-1 45.044099246192815 1.9671168694337153 1.5 #
face $-1 $-1 $463 $68 $-1 $899 reversed single #
loop $-1 $-1 $688 $448 #
plane-surface $-1 0 5.0800857091830451 0 0 -1 0 0 0 -1 forward_v I I I I #
coedge $-1 $900 $686 $689 $901 forward $449 $-1 #
coedge $-1 $692 $451 $452 $680 reversed $296 $-1 #
coedge $-1 $686 $900 $451 $678 reversed $449 $-1 #
edge $-1 $693 -90.088198492385629 $902 90.088198492385629 $677 $903 forward 7 unknown #
coedge $-1 $453 $452 $900 $904 forward $185 $-1 #
edge $-1 $684 -180.17639698477126 $902 180.17639698477126 $676 $905 forward 7 unknown #
coedge $-1 $689 $688 $453 $682 reversed $673 $-1 #
edge $-1 $906 -180.17639698477126 $683 180.17639698477126 $681 $907 forward 7 unknown #
vertex $-1 $455 $908 #
vertex $-1 $695 $909 #
straight-curve $-1 180.17639698477126 0 -90.088198492385629 0 -1 0 I I #
coedge $-1 $675 $677 $456 $687 reversed $449 $-1 #
edge $-1 $690 -5.0800857091830451 $693 5.0800857091830451 $686 $910 forward 7 unknown #
coedge $-1 $681 $457 $462 $696 forward $673 $-1 #
coedge $-1 $457 $681 $675 $901 reversed $673 $-1 #
vertex $-1 $458 $911 #
straight-curve $-1 0 5.0800857091830451 90.088198492385629 -1 0 0 I I #
coedge $-1 $459 $676 $461 $695 reversed $296 $-1 #
vertex $-1 $687 $912 #
straight-curve $-1 0 -5.0800857091830451 90.088198492385629 1 0 0 I I #
edge $-1 $464 -90.088198492385629 $684 90.088198492385629 $461 $913 forward 7 unknown #
edge $-1 $465 -90.088198492385629 $683 90.088198492385629 $462 $914 forward 7 unknown #
point $-1 180.17639698477126 -5.0800857091830451 90.088198492385629 #
point $-1 180.17639698477126 5.0800857091830451 90.088198492385629 #
coedge $-1 $699 $699 $-1 $915 reversed $467 $-1 #
vertex $-1 $469 $916 #
ellipse-curve $-1 0 0 -0.25 0 0 -1 0.5 0 0 1 I I #
point $-1 0.5 0 -1.983069856868191 #
coedge $-1 $703 $703 $-1 $917 reversed $472 $-1 #
vertex $-1 $474 $918 #
ellipse-curve $-1 0 0 -0.25 0 0 -1 0.5 0 0 1 I I #
point $-1 0.5 0 -1.983069856868191 #
coedge $-1 $707 $707 $-1 $919 reversed $477 $-1 #
vertex $-1 $479 $920 #
ellipse-curve $-1 0 0 -0.25 0 0 -1 0.5 0 0 1 I I #
point $-1 0.5 0 -1.983069856868191 #
face $-1 $-1 $497 $72 $-1 $921 reversed single #
loop $-1 $-1 $727 $482 #
plane-surface $-1 0 3.0286061161796303 0 0 -1 0 0 0 -1 forward_v I I I I #
coedge $-1 $922 $725 $728 $923 forward $483 $-1 #
coedge $-1 $731 $485 $486 $719 reversed $319 $-1 #
coedge $-1 $725 $922 $485 $717 reversed $483 $-1 #
edge $-1 $732 -90.088198492385629 $924 90.088198492385629 $716 $925 forward 7 unknown #
coedge $-1 $487 $486 $922 $926 forward $204 $-1 #
edge $-1 $723 -180.17639698477126 $924 180.17639698477126 $715 $927 forward 7 unknown #
coedge $-1 $728 $727 $487 $721 reversed $712 $-1 #
edge $-1 $928 -180.17639698477126 $722 180.17639698477126 $720 $929 forward 7 unknown #
vertex $-1 $489 $930 #
vertex $-1 $734 $931 #
straight-curve $-1 180.17639698477126 0 -90.088198492385629 0 -1 0 I I #
coedge $-1 $714 $716 $490 $726 reversed $483 $-1 #
edge $-1 $729 -3.0286061161796303 $732 3.0286061161796303 $725 $932 forward 7 unknown #
coedge $-1 $720 $491 $496 $735 forward $712 $-1 #
coedge $-1 $491 $720 $714 $923 reversed $712 $-1 #
vertex $-1 $492 $933 #
straight-curve $-1 0 3.0286061161796303 90.088198492385629 -1 0 0 I I #
coedge $-1 $493 $715 $495 $734 reversed $319 $-1 #
vertex $-1 $726 $934 #
straight-curve $-1 0 -3.0286061161796303 90.088198492385629 1 0 0 I I #
edge $-1 $498 -90.088198492385629 $723 90.088198492385629 $495 $935 forward 7 unknown #
edge $-1 $499 -90.088198492385629 $722 90.088198492385629 $496 $936 forward 7 unknown #
point $-1 180.17639698477126 -3.0286061161796303 90.088198492385629 #
point $-1 180.17639698477126 3.0286061161796303 90.088198492385629 #
coedge $-1 $738 $738 $-1 $937 reversed $501 $-1 #
vertex $-1 $503 $938 #
ellipse-curve $-1 0 0 -0.25 0 0 -1 0.5 0 0 1 I I #
point $-1 0.5 0 -1.25 #
coedge $-1 $742 $742 $-1 $939 reversed $506 $-1 #
vertex $-1 $508 $940 #
ellipse-curve $-1 0 0 -0.25 0 0 -1 0.5 0 0 1 I I #
point $-1 0.5 0 -1.25 #
coedge $-1 $746 $746 $-1 $941 reversed $511 $-1 #
vertex $-1 $513 $942 #
ellipse-curve $-1 0 0 -0.25 0 0 -1 0.5 0 0 1 I I #
point $-1 0.5 0 -1.25 #
face $-1 $-1 $531 $76 $-1 $943 reversed single #
loop $-1 $-1 $766 $516 #
plane-surface $-1 0 3.0286061161796303 0 0 -1 0 0 0 -1 forward_v I I I I #
coedge $-1 $944 $764 $767 $945 forward $517 $-1 #
coedge $-1 $770 $519 $520 $758 reversed $342 $-1 #
coedge $-1 $764 $944 $519 $756 reversed $517 $-1 #
edge $-1 $771 -90.088198492385629 $946 90.088198492385629 $755 $947 forward 7 unknown #
coedge $-1 $521 $520 $944 $948 forward $223 $-1 #
edge $-1 $762 -180.17639698477126 $946 180.17639698477126 $754 $949 forward 7 unknown #
coedge $-1 $767 $766 $521 $760 reversed $751 $-1 #
edge $-1 $950 -180.17639698477126 $761 180.17639698477126 $759 $951 forward 7 unknown #
vertex $-1 $523 $952 #
vertex $-1 $773 $953 #
straight-curve $-1 180.17639698477126 0 -90.088198492385629 0 -1 0 I I #
coedge $-1 $753 $755 $524 $765 reversed $517 $-1 #
edge $-1 $768 -3.0286061161796303 $771 3.0286061161796303 $764 $954 forward 7 unknown #
coedge $-1 $759 $525 $530 $774 forward $751 $-1 #
coedge $-1 $525 $759 $753 $945 reversed $751 $-1 #
vertex $-1 $526 $955 #
straight-curve $-1 0 3.0286061161796303 90.088198492385629 -1 0 0 I I #
coedge $-1 $527 $754 $529 $773 reversed $342 $-1 #
vertex $-1 $765 $956 #
straight-curve $-1 0 -3.0286061161796303 90.088198492385629 1 0 0 I I #
edge $-1 $532 -90.088198492385629 $762 90.088198492385629 $529 $957 forward 7 unknown #
edge $-1 $533 -90.088198492385629 $761 90.088198492385629 $530 $958 forward 7 unknown #
point $-1 180.17639698477126 -3.0286061161796303 90.088198492385629 #
point $-1 180.17639698477126 3.0286061161796303 90.088198492385629 #
coedge $-1 $777 $777 $-1 $959 reversed $535 $-1 #
vertex $-1 $537 $960 #
ellipse-curve $-1 0 0 -0.25 0 0 -1 0.5 0 0 1 I I #
point $-1 0.5 0 -1.25 #
coedge $-1 $781 $781 $-1 $961 reversed $540 $-1 #
vertex $-1 $542 $962 #
ellipse-curve $-1 0 0 -0.25 0 0 -1 0.5 0 0 1 I I #
point $-1 0.5 0 -1.25 #
coedge $-1 $785 $785 $-1 $963 reversed $545 $-1 #
vertex $-1 $547 $964 #
ellipse-curve $-1 0 0 -0.25 0 0 -1 0.5 0 0 1 I I #
point $-1 0.5 0 -1.25 #
face $-1 $-1 $565 $80 $-1 $965 reversed single #
loop $-1 $-1 $805 $550 #
plane-surface $-1 0 3.0286061161796303 0 0 -1 0 0 0 -1 forward_v I I I I #
coedge $-1 $966 $803 $806 $967 forward $551 $-1 #
coedge $-1 $809 $553 $554 $797 reversed $365 $-1 #
coedge $-1 $803 $966 $553 $795 reversed $551 $-1 #
edge $-1 $810 -90.088198492385629 $968 90.088198492385629 $794 $969 forward 7 unknown #
coedge $-1 $555 $554 $966 $970 forward $242 $-1 #
edge $-1 $801 -180.17639698477126 $968 180.17639698477126 $793 $971 forward 7 unknown #
coedge $-1 $806 $805 $555 $799 reversed $790 $-1 #
edge $-1 $972 -180.17639698477126 $800 180.17639698477126 $798 $973 forward 7 unknown #
vertex $-1 $557 $974 #
vertex $-1 $812 $975 #
straight-curve $-1 180.17639698477126 0 -90.088198492385629 0 -1 0 I I #
coedge $-1 $792 $794 $558 $804 reversed $551 $-1 #
edge $-1 $807 -3.0286061161796303 $810 3.0286061161796303 $803 $976 forward 7 unknown #
coedge $-1 $798 $559 $564 $813 forward $790 $-1 #
coedge $-1 $559 $798 $792 $967 reversed $790 $-1 #
vertex $-1 $560 $977 #
straight-curve $-1 0 3.0286061161796303 90.088198492385629 -1 0 0 I I #
coedge $-1 $561 $793 $563 $812 reversed $365 $-1 #
vertex $-1 $804 $978 #
straight-curve $-1 0 -3.0286061161796303 90.088198492385629 1 0 0 I I #
edge $-1 $566 -90.088198492385629 $801 90.088198492385629 $563 $979 forward 7 unknown #
edge $-1 $567 -90.088198492385629 $800 90.088198492385629 $564 $980 forward 7 unknown #
point $-1 180.17639698477126 -3.0286061161796303 90.088198492385629 #
point $-1 180.17639698477126 3.0286061161796303 90.088198492385629 #
coedge $-1 $816 $816 $-1 $981 reversed $569 $-1 #
vertex $-1 $571 $982 #
ellipse-curve $-1 0 0 -0.25 0 0 -1 0.5 0 0 1 I I #
point $-1 0.5 0 -1.25 #
coedge $-1 $820 $820 $-1 $983 reversed $574 $-1 #
vertex $-1 $576 $984 #
ellipse-curve $-1 0 0 -0.25 0 0 -1 0.5 0 0 1 I I #
point $-1 0.5 0 -1.25 #
coedge $-1 $824 $824 $-1 $985 reversed $579 $-1 #
vertex $-1 $581 $986 #
ellipse-curve $-1 0 0 -0.25 0 0 -1 0.5 0 0 1 I I #
point $-1 0.5 0 -1.25 #
face $-1 $-1 $599 $84 $-1 $987 reversed single #
loop $-1 $-1 $844 $584 #
plane-surface $-1 0 3.0286061161796303 0 0 -1 0 0 0 -1 forward_v I I I I #
coedge $-1 $988 $842 $845 $989 forward $585 $-1 #
coedge $-1 $848 $587 $588 $836 reversed $388 $-1 #
coedge $-1 $842 $988 $587 $834 reversed $585 $-1 #
edge $-1 $849 -90.088198492385629 $990 90.088198492385629 $833 $991 forward 7 unknown #
coedge $-1 $589 $588 $988 $992 forward $261 $-1 #
edge $-1 $840 -180.17639698477126 $990 180.17639698477126 $832 $993 forward 7 unknown #
coedge $-1 $845 $844 $589 $838 reversed $829 $-1 #
edge $-1 $994 -180.17639698477126 $839 180.17639698477126 $837 $995 forward 7 unknown #
vertex $-1 $591 $996 #
vertex $-1 $851 $997 #
straight-curve $-1 180.17639698477126 0 -90.088198492385629 0 -1 0 I I #
coedge $-1 $831 $833 $592 $843 reversed $585 $-1 #
edge $-1 $846 -3.0286061161796303 $849 3.0286061161796303 $842 $998 forward 7 unknown #
coedge $-1 $837 $593 $598 $852 forward $829 $-1 #
coedge $-1 $593 $837 $831 $989 reversed $829 $-1 #
vertex $-1 $594 $999 #
straight-curve $-1 0 3.0286061161796303 90.088198492385629 -1 0 0 I I #
coedge $-1 $595 $832 $597 $851 reversed $388 $-1 #
vertex $-1 $843 $1000 #
straight-curve $-1 0 -3.0286061161796303 90.088198492385629 1 0 0 I I #
edge $-1 $600 -90.088198492385629 $840 90.088198492385629 $597 $1001 forward 7 unknown #
edge $-1 $601 -90.088198492385629 $839 90.088198492385629 $598 $1002 forward 7 unknown #
point $-1 180.17639698477126 -3.0286061161796303 90.088198492385629 #
point $-1 180.17639698477126 3.0286061161796303 90.088198492385629 #
coedge $-1 $855 $855 $-1 $1003 reversed $603 $-1 #
vertex $-1 $605 $1004 #
ellipse-curve $-1 0 0 -0.25 0 0 -1 0.5 0 0 1 I I #
point $-1 0.5 0 -1.25 #
coedge $-1 $859 $859 $-1 $1005 reversed $608 $-1 #
vertex $-1 $610 $1006 #
ellipse-curve $-1 0 0 -0.25 0 0 -1 0.5 0 0 1 I I #
point $-1 0.5 0 -1.25 #
coedge $-1 $863 $863 $-1 $1007 reversed $613 $-1 #
vertex $-1 $615 $1008 #
ellipse-curve $-1 0 0 -0.25 0 0 -1 0.5 0 0 1 I I #
point $-1 0.5 0 -1.25 #
plane-surface $-1 45.044099246192815 0 0 -1 0 0 0 0 1 forward_v I I I I #
coedge $-1 $623 $621 $625 $872 reversed $411 $-1 #
edge $-1 $636 -5.7262616011242189 $874 5.7262616011242189 $635 $1009 forward 7 unknown #
vertex $-1 $872 $1010 #
straight-curve $-1 -45.044099246192815 -23.850264250363825 0 0 0 -1 I I #
edge $-1 $870 -23.850264250363825 $874 23.850264250363825 $868 $1011 forward 7 unknown #
straight-curve $-1 0 -23.850264250363825 -5.7262616011242189 -1 0 0 I I #
vertex $-1 $628 $1012 #
straight-curve $-1 0 23.850264250363825 -5.7262616011242189 1 0 0 I I #
point $-1 45.044099246192815 23.850264250363825 -5.7262616011242189 #
point $-1 45.044099246192815 -23.850264250363825 -5.7262616011242189 #
straight-curve $-1 -45.044099246192815 0 5.7262616011242189 0 -1 0 I I #
point $-1 -45.044099246192815 23.850264250363825 5.7262616011242189 #
point $-1 -45.044099246192815 -23.850264250363825 5.7262616011242189 #
straight-curve $-1 45.044099246192815 -23.850264250363825 0 0 0 -1 I I #
straight-curve $-1 45.044099246192815 23.850264250363825 0 0 0 -1 I I #
plane-surface $-1 45.044099246192815 0 0 -1 0 0 0 0 1 forward_v I I I I #
coedge $-1 $650 $648 $652 $888 reversed $430 $-1 #
edge $-1 $663 -1.5 $890 1.5 $662 $1013 forward 7 unknown #
vertex $-1 $888 $1014 #
straight-curve $-1 -45.044099246192815 -1.9671168694337153 0 0 0 -1 I I #
edge $-1 $886 -1.9671168694337153 $890 1.9671168694337153 $884 $1015 forward 7 unknown #
straight-curve $-1 0 -1.9671168694337153 -1.5 -1 0 0 I I #
vertex $-1 $655 $1016 #
straight-curve $-1 0 1.9671168694337153 -1.5 1 0 0 I I #
point $-1 45.044099246192815 1.9671168694337153 -1.5 #
point $-1 45.044099246192815 -1.9671168694337153 -1.5 #
straight-curve $-1 -45.044099246192815 0 1.5 0 -1 0 I I #
point $-1 -45.044099246192815 1.9671168694337153 1.5 #
point $-1 -45.044099246192815 -1.9671168694337153 1.5 #
straight-curve $-1 45.044099246192815 -1.9671168694337153 0 0 0 -1 I I #
straight-curve $-1 45.044099246192815 1.9671168694337153 0 0 0 -1 I I #
plane-surface $-1 180.17639698477126 0 0 -1 0 0 0 0 1 forward_v I I I I #
coedge $-1 $677 $675 $679 $904 reversed $449 $-1 #
edge $-1 $690 -90.088198492385629 $906 90.088198492385629 $689 $1017 forward 7 unknown #
vertex $-1 $904 $1018 #
straight-curve $-1 -180.17639698477126 -5.0800857091830451 0 0 0 -1 I I #
edge $-1 $902 -5.0800857091830451 $906 5.0800857091830451 $900 $1019 forward 7 unknown #
straight-curve $-1 0 -5.0800857091830451 -90.088198492385629 -1 0 0 I I #
vertex $-1 $682 $1020 #
straight-curve $-1 0 5.0800857091830451 -90.088198492385629 1 0 0 I I #
point $-1 180.17639698477126 5.0800857091830451 -90.088198492385629 #
point $-1 180.17639698477126 -5.0800857091830451 -90.088198492385629 #
straight-curve $-1 -180.17639698477126 0 90.088198492385629 0 -1 0 I I #
point $-1 -180.17639698477126 5.0800857091830451 90.088198492385629 #
point $-1 -180.17639698477126 -5.0800857091830451 90.088198492385629 #
straight-curve $-1 180.17639698477126 -5.0800857091830451 0 0 0 -1 I I #
straight-curve $-1 180.17639698477126 5.0800857091830451 0 0 0 -1 I I #
edge $-1 $1021 1 $1021 0 $699 $-1 forward 7 unknown #
point $-1 0.5 0 -0.25 #
edge $-1 $1022 1 $1022 0 $703 $-1 forward 7 unknown #
point $-1 0.5 0 -0.25 #
edge $-1 $1023 1 $1023 0 $707 $-1 forward 7 unknown #
point $-1 0.5 0 -0.25 #
plane-surface $-1 180.17639698477126 0 0 -1 0 0 0 0 1 forward_v I I I I #
coedge $-1 $716 $714 $718 $926 reversed $483 $-1 #
edge $-1 $729 -90.088198492385629 $928 90.088198492385629 $728 $1024 forward 7 unknown #
vertex $-1 $926 $1025 #
straight-curve $-1 -180.17639698477126 -3.0286061161796303 0 0 0 -1 I I #
edge $-1 $924 -3.0286061161796303 $928 3.0286061161796303 $922 $1026 forward 7 unknown #
straight-curve $-1 0 -3.0286061161796303 -90.088198492385629 -1 0 0 I I #
vertex $-1 $721 $1027 #
straight-curve $-1 0 3.0286061161796303 -90.088198492385629 1 0 0 I I #
point $-1 180.17639698477126 3.0286061161796303 -90.088198492385629 #
point $-1 180.17639698477126 -3.0286061161796303 -90.088198492385629 #
straight-curve $-1 -180.17639698477126 0 90.088198492385629 0 -1 0 I I #
point $-1 -180.17639698477126 3.0286061161796303 90.088198492385629 #
point $-1 -180.17639698477126 -3.0286061161796303 90.088198492385629 #
straight-curve $-1 180.17639698477126 -3.0286061161796303 0 0 0 -1 I I #
straight-curve $-1 180.17639698477126 3.0286061161796303 0 0 0 -1 I I #
edge $-1 $1028 1 $1028 0 $738 $-1 forward 7 unknown #
point $-1 0.5 0 -0.25 #
edge $-1 $1029 1 $1029 0 $742 $-1 forward 7 unknown #
point $-1 0.5 0 -0.25 #
edge $-1 $1030 1 $1030 0 $746 $-1 forward 7 unknown #
point $-1 0.5 0 -0.25 #
plane-surface $-1 180.17639698477126 0 0 -1 0 0 0 0 1 forward_v I I I I #
coedge $-1 $755 $753 $757 $948 reversed $517 $-1 #
edge $-1 $768 -90.088198492385629 $950 90.088198492385629 $767 $1031 forward 7 unknown #
vertex $-1 $948 $1032 #
straight-curve $-1 -180.17639698477126 -3.0286061161796303 0 0 0 -1 I I #
edge $-1 $946 -3.0286061161796303 $950 3.0286061161796303 $944 $1033 forward 7 unknown #
straight-curve $-1 0 -3.0286061161796303 -90.088198492385629 -1 0 0 I I #
vertex $-1 $760 $1034 #
straight-curve $-1 0 3.0286061161796303 -90.088198492385629 1 0 0 I I #
point $-1 180.17639698477126 3.0286061161796303 -90.088198492385629 #
point $-1 180.17639698477126 -3.0286061161796303 -90.088198492385629 #
straight-curve $-1 -180.17639698477126 0 90.088198492385629 0 -1 0 I I #
point $-1 -180.17639698477126 3.0286061161796303 90.088198492385629 #
point $-1 -180.17639698477126 -3.0286061161796303 90.088198492385629 #
straight-curve $-1 180.17639698477126 -3.0286061161796303 0 0 0 -1 I I #
straight-curve $-1 180.17639698477126 3.0286061161796303 0 0 0 -1 I I #
edge $-1 $1035 1 $1035 0 $777 $-1 forward 7 unknown #
point $-1 0.5 0 -0.25 #
edge $-1 $1036 1 $1036 0 $781 $-1 forward 7 unknown #
point $-1 0.5 0 -0.25 #
edge $-1 $1037 1 $1037 0 $785 $-1 forward 7 unknown #
point $-1 0.5 0 -0.25 #
plane-surface $-1 180.17639698477126 0 0 -1 0 0 0 0 1 forward_v I I I I #
coedge $-1 $794 $792 $796 $970 reversed $551 $-1 #
edge $-1 $807 -90.088198492385629 $972 90.088198492385629 $806 $1038 forward 7 unknown #
vertex $-1 $970 $1039 #
straight-curve $-1 -180.17639698477126 -3.0286061161796303 0 0 0 -1 I I #
edge $-1 $968 -3.0286061161796303 $972 3.0286061161796303 $966 $1040 forward 7 unknown #
straight-curve $-1 0 -3.0286061161796303 -90.088198492385629 -1 0 0 I I #
vertex $-1 $799 $1041 #
straight-curve $-1 0 3.0286061161796303 -90.088198492385629 1 0 0 I I #
point $-1 180.17639698477126 3.0286061161796303 -90.088198492385629 #
point $-1 180.17639698477126 -3.0286061161796303 -90.088198492385629 #
straight-curve $-1 -180.17639698477126 0 90.088198492385629 0 -1 0 I I #
point $-1 -180.17639698477126 3.0286061161796303 90.088198492385629 #
point $-1 -180.17639698477126 -3.0286061161796303 90.088198492385629 #
straight-curve $-1 180.17639698477126 -3.0286061161796303 0 0 0 -1 I I #
straight-curve $-1 180.17639698477126 3.0286061161796303 0 0 0 -1 I I #
edge $-1 $1042 1 $1042 0 $816 $-1 forward 7 unknown #
point $-1 0.5 0 -0.25 #
edge $-1 $1043 1 $1043 0 $820 $-1 forward 7 unknown #
point $-1 0.5 0 -0.25 #
edge $-1 $1044 1 $1044 0 $824 $-1 forward 7 unknown #
point $-1 0.5 0 -0.25 #
plane-surface $-1 180.17639698477126 0 0 -1 0 0 0 0 1 forward_v I I I I #
coedge $-1 $833 $831 $835 $992 reversed $585 $-1 #
edge $-1 $846 -90.088198492385629 $994 90.088198492385629 $845 $1045 forward 7 unknown #
vertex $-1 $992 $1046 #
straight-curve $-1 -180.17639698477126 -3.0286061161796303 0 0 0 -1 I I #
edge $-1 $990 -3.0286061161796303 $994 3.0286061161796303 $988 $1047 forward 7 unknown #
straight-curve $-1 0 -3.0286061161796303 -90.088198492385629 -1 0 0 I I #
vertex $-1 $838 $1048 #
straight-curve $-1 0 3.0286061161796303 -90.088198492385629 1 0 0 I I #
point $-1 180.17639698477126 3.0286061161796303 -90.088198492385629 #
point $-1 180.17639698477126 -3.0286061161796303 -90.088198492385629 #
straight-curve $-1 -180.17639698477126 0 90.088198492385629 0 -1 0 I I #
point $-1 -180.17639698477126 3.0286061161796303 90.088198492385629 #
point $-1 -180.17639698477126 -3.0286061161796303 90.088198492385629 #
straight-curve $-1 180.17639698477126 -3.0286061161796303 0 0 0 -1 I I #
straight-curve $-1 180.17639698477126 3.0286061161796303 0 0 0 -1 I I #
edge $-1 $1049 1 $1049 0 $855 $-1 forward 7 unknown #
point $-1 0.5 0 -0.25 #
edge $-1 $1050 1 $1050 0 $859 $-1 forward 7 unknown #
point $-1 0.5 0 -0.25 #
edge $-1 $1051 1 $1051 0 $863 $-1 forward 7 unknown #
point $-1 0.5 0 -0.25 #
straight-curve $-1 -45.044099246192815 23.850264250363825 0 0 0 -1 I I #
point $-1 -45.044099246192815 -23.850264250363825 -5.7262616011242189 #
straight-curve $-1 -45.044099246192815 0 -5.7262616011242189 0 1 0 I I #
point $-1 -45.044099246192815 23.850264250363825 -5.7262616011242189 #
straight-curve $-1 -45.044099246192815 1.9671168694337153 0 0 0 -1 I I #
point $-1 -45.044099246192815 -1.9671168694337153 -1.5 #
straight-curve $-1 -45.044099246192815 0 -1.5 0 1 0 I I #
point $-1 -45.044099246192815 1.9671168694337153 -1.5 #
straight-curve $-1 -180.17639698477126 5.0800857091830451 0 0 0 -1 I I #
point $-1 -180.17639698477126 -5.0800857091830451 -90.088198492385629 #
straight-curve $-1 -180.17639698477126 0 -90.088198492385629 0 1 0 I I #
point $-1 -180.17639698477126 5.0800857091830451 -90.088198492385629 #
vertex $-1 $915 $1052 #
vertex $-1 $917 $1053 #
vertex $-1 $919 $1054 #
straight-curve $-1 -180.17639698477126 3.0286061161796303 0 0 0 -1 I I #
point $-1 -180.17639698477126 -3.0286061161796303 -90.088198492385629 #
straight-curve $-1 -180.17639698477126 0 -90.088198492385629 0 1 0 I I #
point $-1 -180.17639698477126 3.0286061161796303 -90.088198492385629 #
vertex $-1 $937 $1055 #
vertex $-1 $939 $1056 #
vertex $-1 $941 $1057 #
straight-curve $-1 -180.17639698477126 3.0286061161796303 0 0 0 -1 I I #
point $-1 -180.17639698477126 -3.0286061161796303 -90.088198492385629 #
straight-curve $-1 -180.17639698477126 0 -90.088198492385629 0 1 0 I I #
point $-1 -180.17639698477126 3.0286061161796303 -90.088198492385629 #
vertex $-1 $959 $1058 #
vertex $-1 $961 $1059 #
vertex $-1 $963 $1060 #
straight-curve $-1 -180.17639698477126 3.0286061161796303 0 0 0 -1 I I #
point $-1 -180.17639698477126 -3.0286061161796303 -90.088198492385629 #
straight-curve $-1 -180.17639698477126 0 -90.088198492385629 0 1 0 I I #
point $-1 -180.17639698477126 3.0286061161796303 -90.088198492385629 #
vertex $-1 $981 $1061 #
vertex $-1 $983 $1062 #
vertex $-1 $985 $1063 #
straight-curve $-1 -180.17639698477126 3.0286061161796303 0 0 0 -1 I I #
point $-1 -180.17639698477126 -3.0286061161796303 -90.088198492385629 #
straight-curve $-1 -180.17639698477126 0 -90.088198492385629 0 1 0 I I #
point $-1 -180.17639698477126 3.0286061161796303 -90.088198492385629 #
vertex $-1 $1003 $1064 #
vertex $-1 $1005 $1065 #
vertex $-1 $1007 $1066 #
point $-1 0 0 0.25 #
point $-1 0 0 0.25 #
point $-1 0 0 0.25 #
point $-1 0 0 0.25 #
point $-1 0 0 0.25 #
point $-1 0 0 0.25 #
point $-1 0 0 0.25 #
point $-1 0 0 0.25 #
point $-1 0 0 0.25 #
point $-1 0 0 0.25 #
point $-1 0 0 0.25 #
point $-1 0 0 0.25 #
point $-1 0 0 0.25 #
point $-1 0 0 0.25 #
point $-1 0 0 0.25 #
End-of-ACIS-data 