500 0 3 0           
7 Unknown 11 ACIS 5.0 NT 24 Thu Mar 25 22:37:56 1999 
-1 9.9999999999999995e-007 1e-010 
body $-1 $3 $-1 $4 #
body $-1 $5 $-1 $6 #
body $-1 $7 $-1 $8 #
lump $-1 $-1 $9 $0 #
transform $-1 1 0 0 0 1 0 0 0 1 74.529862361522262 42.089686087870753 8.8514608558277725 1 rotate no_reflect no_shear #
lump $-1 $-1 $10 $1 #
transform $-1 1 0 0 0 1 0 0 0 1 74.529862361522262 42.089686087870753 8.8514608558277725 1 rotate no_reflect no_shear #
lump $-1 $-1 $11 $2 #
transform $-1 1 0 0 0 1 0 0 0 1 74.529862361522262 42.089686087870753 8.8514608558277725 1 rotate no_reflect no_shear #
shell $-1 $-1 $-1 $12 $-1 $3 #
shell $-1 $-1 $-1 $13 $-1 $5 #
shell $-1 $-1 $-1 $14 $-1 $7 #
face $-1 $15 $16 $9 $-1 $17 forward single #
face $-1 $18 $19 $10 $-1 $20 forward single #
face $-1 $21 $22 $11 $-1 $23 forward single #
face $-1 $24 $25 $9 $-1 $26 reversed single #
loop $-1 $-1 $27 $12 #
plane-surface $-1 0 0 8.8514608558277725 0 0 1 1 0 0 forward_v I I I I #
face $-1 $28 $29 $10 $-1 $30 reversed single #
loop $-1 $-1 $31 $13 #
plane-surface $-1 0 -42.089686087870753 0 0 1 0 0 0 1 forward_v I I I I #
face $-1 $32 $33 $11 $-1 $34 reversed single #
loop $-1 $-1 $35 $14 #
plane-surface $-1 0 42.089686087870753 0 0 -1 0 0 0 -1 forward_v I I I I #
face $-1 $36 $37 $9 $-1 $38 reversed single #
loop $-1 $-1 $39 $15 #
plane-surface $-1 0 0 -8.8514608558277725 0 0 1 1 0 0 forward_v I I I I #
coedge $-1 $40 $41 $42 $43 forward $16 $-1 #
face $-1 $44 $45 $10 $-1 $46 forward single #
loop $-1 $-1 $47 $18 #
plane-surface $-1 -74.529862361522262 0 0 1 0 0 0 0 -1 forward_v I I I I #
coedge $-1 $48 $49 $50 $51 forward $19 $-1 #
face $-1 $52 $53 $11 $-1 $54 forward single #
loop $-1 $-1 $55 $21 #
plane-surface $-1 74.529862361522262 0 0 -1 0 0 0 0 1 forward_v I I I I #
coedge $-1 $56 $57 $58 $59 forward $22 $-1 #
face $-1 $60 $61 $9 $-1 $62 reversed single #
loop $-1 $-1 $63 $24 #
plane-surface $-1 0 -42.089686087870753 0 0 1 0 0 0 1 forward_v I I I I #
coedge $-1 $64 $65 $66 $67 forward $25 $-1 #
coedge $-1 $68 $27 $69 $70 forward $16 $-1 #
coedge $-1 $27 $68 $71 $72 forward $16 $-1 #
coedge $-1 $73 $74 $27 $43 reversed $75 $-1 #
edge $-1 $76 -42.089686087870753 $77 42.089686087870753 $42 $78 forward 7 unknown #
face $-1 $79 $80 $10 $-1 $81 reversed single #
loop $-1 $-1 $82 $28 #
plane-surface $-1 0 -45.548117463025299 0.092836916862642394 0 0 1 1 0 0 forward_v I I I I #
coedge $-1 $83 $84 $49 $85 forward $29 $-1 #
coedge $-1 $86 $31 $87 $88 reversed $19 $-1 #
coedge $-1 $31 $86 $47 $85 reversed $19 $-1 #
coedge $-1 $89 $82 $31 $51 reversed $45 $-1 #
edge $-1 $90 -74.529862361522262 $91 74.529862361522262 $50 $92 forward 7 unknown #
face $-1 $93 $94 $11 $-1 $95 reversed single #
loop $-1 $-1 $96 $32 #
plane-surface $-1 0 45.548117463025299 0.092836916862642394 0 0 1 1 0 0 forward_v I I I I #
coedge $-1 $97 $98 $57 $99 forward $33 $-1 #
coedge $-1 $100 $35 $101 $102 reversed $22 $-1 #
coedge $-1 $35 $100 $55 $99 reversed $22 $-1 #
coedge $-1 $96 $103 $35 $59 reversed $53 $-1 #
edge $-1 $104 -74.529862361522262 $105 74.529862361522262 $58 $106 forward 7 unknown #
face $-1 $107 $108 $9 $-1 $109 reversed single #
loop $-1 $-1 $110 $36 #
plane-surface $-1 -74.529862361522262 0 0 1 0 0 0 0 -1 forward_v I I I I #
coedge $-1 $111 $71 $112 $113 forward $37 $-1 #
coedge $-1 $114 $39 $111 $115 forward $25 $-1 #
coedge $-1 $39 $114 $116 $117 forward $25 $-1 #
coedge $-1 $74 $73 $39 $67 reversed $75 $-1 #
edge $-1 $118 -42.089686087870753 $119 42.089686087870753 $66 $120 forward 7 unknown #
coedge $-1 $41 $40 $121 $122 forward $16 $-1 #
coedge $-1 $123 $124 $40 $70 reversed $108 $-1 #
edge $-1 $77 -74.529862361522262 $125 74.529862361522262 $69 $126 forward 7 unknown #
coedge $-1 $63 $127 $41 $72 reversed $37 $-1 #
edge $-1 $128 -74.529862361522262 $76 74.529862361522262 $71 $129 forward 7 unknown #
coedge $-1 $66 $42 $127 $130 forward $75 $-1 #
coedge $-1 $42 $66 $123 $131 reversed $75 $-1 #
loop $-1 $-1 $73 $107 #
vertex $-1 $43 $132 #
vertex $-1 $43 $133 #
straight-curve $-1 74.529862361522262 0 8.8514608558277725 0 1 0 I I #
face $-1 $134 $135 $10 $-1 $136 reversed single #
loop $-1 $-1 $137 $44 #
plane-surface $-1 0 -45.548117463025299 -4.126700692933829 0 0 1 1 0 0 forward_v I I I I #
coedge $-1 $50 $138 $139 $140 forward $45 $-1 #
coedge $-1 $141 $47 $142 $143 reversed $29 $-1 #
coedge $-1 $47 $141 $89 $144 reversed $29 $-1 #
edge $-1 $90 -0.092836916862642394 $145 4.126700692933829 $47 $146 forward 7 unknown #
coedge $-1 $49 $48 $147 $148 forward $19 $-1 #
coedge $-1 $139 $149 $48 $88 forward $150 $-1 #
edge $-1 $151 -4.126700692933829 $91 0.092836916862642394 $87 $152 forward 7 unknown #
coedge $-1 $138 $50 $84 $144 forward $45 $-1 #
vertex $-1 $85 $153 #
vertex $-1 $140 $154 #
straight-curve $-1 0 -42.089686087870753 0.092836916862642394 1 0 0 I I #
face $-1 $155 $156 $11 $-1 $157 reversed single #
loop $-1 $-1 $158 $52 #
plane-surface $-1 0 45.548117463025299 -4.126700692933829 0 0 1 1 0 0 forward_v I I I I #
coedge $-1 $159 $58 $98 $160 forward $53 $-1 #
coedge $-1 $161 $55 $158 $162 reversed $33 $-1 #
coedge $-1 $55 $161 $96 $160 reversed $33 $-1 #
edge $-1 $104 -0.092836916862642394 $163 4.126700692933829 $55 $164 forward 7 unknown #
coedge $-1 $57 $56 $165 $166 forward $22 $-1 #
coedge $-1 $167 $168 $56 $102 forward $169 $-1 #
edge $-1 $170 -4.126700692933829 $105 0.092836916862642394 $101 $171 forward 7 unknown #
coedge $-1 $58 $159 $167 $172 forward $53 $-1 #
vertex $-1 $99 $173 #
vertex $-1 $172 $174 #
straight-curve $-1 0 42.089686087870753 0.092836916862642394 -1 0 0 I I #
face $-1 $-1 $75 $9 $-1 $175 reversed single #
loop $-1 $-1 $124 $60 #
plane-surface $-1 0 42.089686087870753 0 0 -1 0 0 0 -1 forward_v I I I I #
coedge $-1 $176 $121 $124 $177 forward $61 $-1 #
coedge $-1 $127 $63 $64 $115 reversed $37 $-1 #
coedge $-1 $121 $176 $63 $113 reversed $61 $-1 #
edge $-1 $128 -8.8514608558277725 $178 8.8514608558277725 $112 $179 forward 7 unknown #
coedge $-1 $65 $64 $176 $180 forward $25 $-1 #
edge $-1 $119 -74.529862361522262 $178 74.529862361522262 $111 $181 forward 7 unknown #
coedge $-1 $124 $123 $65 $117 reversed $108 $-1 #
edge $-1 $182 -74.529862361522262 $118 74.529862361522262 $116 $183 forward 7 unknown #
vertex $-1 $67 $184 #
vertex $-1 $130 $185 #
straight-curve $-1 74.529862361522262 0 -8.8514608558277725 0 -1 0 I I #
coedge $-1 $110 $112 $68 $122 reversed $61 $-1 #
edge $-1 $125 -42.089686087870753 $128 42.089686087870753 $121 $186 forward 7 unknown #
coedge $-1 $116 $69 $74 $131 forward $108 $-1 #
coedge $-1 $69 $116 $110 $177 reversed $108 $-1 #
vertex $-1 $70 $187 #
straight-curve $-1 0 42.089686087870753 8.8514608558277725 -1 0 0 I I #
coedge $-1 $71 $111 $73 $130 reversed $37 $-1 #
vertex $-1 $122 $188 #
straight-curve $-1 0 -42.089686087870753 8.8514608558277725 1 0 0 I I #
edge $-1 $76 -8.8514608558277725 $119 8.8514608558277725 $73 $189 forward 7 unknown #
edge $-1 $77 -8.8514608558277725 $118 8.8514608558277725 $74 $190 forward 7 unknown #
point $-1 74.529862361522262 -42.089686087870753 8.8514608558277725 #
point $-1 74.529862361522262 42.089686087870753 8.8514608558277725 #
face $-1 $-1 $150 $10 $-1 $191 reversed single #
loop $-1 $-1 $192 $79 #
plane-surface $-1 0 -49.006548838179846 -2.0169318880355931 0 1 0 0 0 1 forward_v I I I I #
coedge $-1 $193 $147 $149 $194 forward $80 $-1 #
coedge $-1 $82 $89 $195 $196 forward $45 $-1 #
coedge $-1 $197 $87 $82 $140 reversed $150 $-1 #
edge $-1 $198 -3.4584313751545466 $91 3.4584313751545466 $139 $199 forward 7 unknown #
coedge $-1 $84 $83 $192 $200 reversed $29 $-1 #
coedge $-1 $147 $193 $83 $143 forward $80 $-1 #
edge $-1 $201 -3.4584313751545466 $145 3.4584313751545466 $83 $202 forward 7 unknown #
edge $-1 $90 -3.4584313751545466 $203 3.4584313751545466 $84 $204 forward 7 unknown #
vertex $-1 $85 $205 #
straight-curve $-1 -74.529862361522262 -42.089686087870753 0 0 0 -1 I I #
coedge $-1 $137 $142 $86 $148 reversed $80 $-1 #
edge $-1 $151 -74.529862361522262 $145 74.529862361522262 $147 $206 forward 7 unknown #
coedge $-1 $87 $197 $137 $194 reversed $150 $-1 #
loop $-1 $-1 $87 $134 #
vertex $-1 $88 $207 #
straight-curve $-1 74.529862361522262 -42.089686087870753 0 0 0 1 I I #
point $-1 -74.529862361522262 -42.089686087870753 0.092836916862642394 #
point $-1 74.529862361522262 -42.089686087870753 0.092836916862642394 #
face $-1 $-1 $169 $11 $-1 $208 reversed single #
loop $-1 $-1 $209 $93 #
plane-surface $-1 0 49.006548838179846 -2.0169318880355931 0 -1 0 0 0 -1 forward_v I I I I #
coedge $-1 $165 $210 $97 $162 forward $94 $-1 #
coedge $-1 $103 $96 $211 $212 forward $53 $-1 #
edge $-1 $104 -3.4584313751545466 $213 3.4584313751545466 $98 $214 forward 7 unknown #
coedge $-1 $98 $97 $209 $215 reversed $33 $-1 #
edge $-1 $216 -3.4584313751545466 $163 3.4584313751545466 $97 $217 forward 7 unknown #
vertex $-1 $99 $218 #
straight-curve $-1 74.529862361522262 42.089686087870753 0 0 0 -1 I I #
coedge $-1 $219 $158 $100 $166 reversed $94 $-1 #
edge $-1 $170 -74.529862361522262 $163 74.529862361522262 $165 $220 forward 7 unknown #
coedge $-1 $221 $101 $103 $172 reversed $169 $-1 #
coedge $-1 $101 $221 $219 $222 reversed $169 $-1 #
loop $-1 $-1 $101 $155 #
vertex $-1 $102 $223 #
straight-curve $-1 -74.529862361522262 42.089686087870753 0 0 0 1 I I #
edge $-1 $224 -3.4584313751545466 $105 3.4584313751545466 $167 $225 forward 7 unknown #
point $-1 74.529862361522262 42.089686087870753 0.092836916862642394 #
point $-1 -74.529862361522262 42.089686087870753 0.092836916862642394 #
plane-surface $-1 74.529862361522262 0 0 -1 0 0 0 0 1 forward_v I I I I #
coedge $-1 $112 $110 $114 $180 reversed $61 $-1 #
edge $-1 $125 -8.8514608558277725 $182 8.8514608558277725 $124 $226 forward 7 unknown #
vertex $-1 $180 $227 #
straight-curve $-1 -74.529862361522262 -42.089686087870753 0 0 0 -1 I I #
edge $-1 $178 -42.089686087870753 $182 42.089686087870753 $176 $228 forward 7 unknown #
straight-curve $-1 0 -42.089686087870753 -8.8514608558277725 -1 0 0 I I #
vertex $-1 $117 $229 #
straight-curve $-1 0 42.089686087870753 -8.8514608558277725 1 0 0 I I #
point $-1 74.529862361522262 42.089686087870753 -8.8514608558277725 #
point $-1 74.529862361522262 -42.089686087870753 -8.8514608558277725 #
straight-curve $-1 -74.529862361522262 0 8.8514608558277725 0 -1 0 I I #
point $-1 -74.529862361522262 42.089686087870753 8.8514608558277725 #
point $-1 -74.529862361522262 -42.089686087870753 8.8514608558277725 #
straight-curve $-1 74.529862361522262 -42.089686087870753 0 0 0 -1 I I #
straight-curve $-1 74.529862361522262 42.089686087870753 0 0 0 -1 I I #
plane-surface $-1 74.529862361522262 0 0 -1 0 0 0 0 1 forward_v I I I I #
coedge $-1 $230 $195 $141 $200 forward $135 $-1 #
coedge $-1 $142 $137 $230 $231 forward $80 $-1 #
edge $-1 $151 -3.4584313751545466 $232 3.4584313751545466 $149 $233 forward 7 unknown #
coedge $-1 $192 $234 $138 $196 reversed $135 $-1 #
edge $-1 $203 -74.529862361522262 $198 74.529862361522262 $195 $235 forward 7 unknown #
coedge $-1 $149 $139 $234 $236 forward $150 $-1 #
vertex $-1 $140 $237 #
straight-curve $-1 74.529862361522262 -45.548117463025299 0.092836916862642394 0 1 0 I I #
edge $-1 $203 -2.1097688048982355 $201 2.1097688048982359 $141 $238 forward 7 unknown #
vertex $-1 $143 $239 #
straight-curve $-1 -74.529862361522262 -45.548117463025299 -4.126700692933829 0 1 0 I I #
vertex $-1 $144 $240 #
straight-curve $-1 -74.529862361522262 -45.548117463025299 0.092836916862642394 0 -1 0 I I #
point $-1 -74.529862361522262 -42.089686087870753 -4.126700692933829 #
straight-curve $-1 0 -42.089686087870753 -4.126700692933829 -1 0 0 I I #
point $-1 74.529862361522262 -42.089686087870753 -4.126700692933829 #
plane-surface $-1 -74.529862361522262 0 0 1 0 0 0 0 -1 forward_v I I I I #
coedge $-1 $241 $211 $161 $215 forward $156 $-1 #
coedge $-1 $158 $219 $241 $242 forward $94 $-1 #
coedge $-1 $209 $243 $159 $212 reversed $156 $-1 #
edge $-1 $213 -74.529862361522262 $224 74.529862361522262 $211 $244 forward 7 unknown #
vertex $-1 $160 $245 #
straight-curve $-1 74.529862361522262 45.548117463025299 0.092836916862642394 0 1 0 I I #
edge $-1 $213 -2.1097688048982355 $216 2.1097688048982359 $161 $246 forward 7 unknown #
vertex $-1 $162 $247 #
straight-curve $-1 74.529862361522262 45.548117463025299 -4.126700692933829 0 -1 0 I I #
point $-1 74.529862361522262 42.089686087870753 -4.126700692933829 #
coedge $-1 $210 $165 $168 $222 forward $94 $-1 #
straight-curve $-1 0 42.089686087870753 -4.126700692933829 1 0 0 I I #
coedge $-1 $168 $167 $243 $248 forward $169 $-1 #
edge $-1 $170 -3.4584313751545466 $249 3.4584313751545466 $168 $250 forward 7 unknown #
point $-1 -74.529862361522262 42.089686087870753 -4.126700692933829 #
vertex $-1 $212 $251 #
straight-curve $-1 -74.529862361522262 45.548117463025299 0.092836916862642394 0 -1 0 I I #
straight-curve $-1 -74.529862361522262 42.089686087870753 0 0 0 -1 I I #
point $-1 -74.529862361522262 -42.089686087870753 -8.8514608558277725 #
straight-curve $-1 -74.529862361522262 0 -8.8514608558277725 0 1 0 I I #
point $-1 -74.529862361522262 42.089686087870753 -8.8514608558277725 #
coedge $-1 $234 $192 $193 $231 reversed $135 $-1 #
edge $-1 $232 -74.529862361522262 $201 74.529862361522262 $230 $252 forward 7 unknown #
vertex $-1 $236 $253 #
straight-curve $-1 74.529862361522262 -45.548117463025299 -4.126700692933829 0 -1 0 I I #
coedge $-1 $195 $230 $197 $236 reversed $135 $-1 #
straight-curve $-1 0 -49.006548838179846 0.092836916862642394 1 0 0 I I #
edge $-1 $198 -2.1097688048982355 $232 2.1097688048982359 $197 $254 forward 7 unknown #
point $-1 74.529862361522262 -49.006548838179846 0.092836916862642394 #
straight-curve $-1 -74.529862361522262 -49.006548838179846 -2.0169318880355931 0 0 -1 I I #
point $-1 -74.529862361522262 -49.006548838179846 -4.126700692933829 #
point $-1 -74.529862361522262 -49.006548838179846 0.092836916862642394 #
coedge $-1 $243 $209 $210 $242 reversed $156 $-1 #
edge $-1 $249 -74.529862361522262 $216 74.529862361522262 $241 $255 forward 7 unknown #
coedge $-1 $211 $241 $221 $248 reversed $156 $-1 #
straight-curve $-1 0 49.006548838179846 0.092836916862642394 -1 0 0 I I #
point $-1 74.529862361522262 49.006548838179846 0.092836916862642394 #
straight-curve $-1 74.529862361522262 49.006548838179846 -2.0169318880355931 0 0 -1 I I #
point $-1 74.529862361522262 49.006548838179846 -4.126700692933829 #
edge $-1 $224 -2.1097688048982355 $249 2.1097688048982359 $243 $256 forward 7 unknown #
vertex $-1 $242 $257 #
straight-curve $-1 -74.529862361522262 45.548117463025299 -4.126700692933829 0 1 0 I I #
point $-1 -74.529862361522262 49.006548838179846 0.092836916862642394 #
straight-curve $-1 0 -49.006548838179846 -4.126700692933829 -1 0 0 I I #
point $-1 74.529862361522262 -49.006548838179846 -4.126700692933829 #
straight-curve $-1 74.529862361522262 -49.006548838179846 -2.0169318880355931 0 0 -1 I I #
straight-curve $-1 0 49.006548838179846 -4.126700692933829 1 0 0 I I #
straight-curve $-1 -74.529862361522262 49.006548838179846 -2.0169318880355931 0 0 -1 I I #
point $-1 -74.529862361522262 49.006548838179846 -4.126700692933829 #
End-of-ACIS-data 