500 0 10 0           
7 Unknown 11 ACIS 5.0 NT 24 Thu Mar 25 16:28:04 1999 
-1 9.9999999999999995e-007 1e-010 
body $-1 $10 $-1 $11 #
body $-1 $12 $-1 $13 #
body $-1 $14 $-1 $15 #
body $-1 $16 $-1 $17 #
body $-1 $18 $-1 $19 #
body $-1 $20 $-1 $21 #
body $-1 $22 $-1 $23 #
body $-1 $24 $-1 $25 #
body $-1 $26 $-1 $27 #
body $-1 $28 $-1 $29 #
lump $-1 $-1 $30 $0 #
transform $-1 1 0 0 0 1 0 0 0 1 59.021576586199529 28.066725731707017 8.6427219246649667 1 rotate no_reflect no_shear #
lump $-1 $-1 $31 $1 #
transform $-1 1 0 0 0 1 0 0 0 1 59.021576586199529 28.066725731707017 8.6427219246649667 1 rotate no_reflect no_shear #
lump $-1 $-1 $32 $2 #
transform $-1 1 0 0 0 1 0 0 0 1 59.021576586199529 28.066725731707017 8.6427219246649667 1 rotate no_reflect no_shear #
lump $-1 $-1 $33 $3 #
transform $-1 1 0 0 0 1 0 0 0 1 59.021576586199529 28.066725731707017 8.6427219246649667 1 rotate no_reflect no_shear #
lump $-1 $-1 $34 $4 #
transform $-1 1 0 0 0 1 0 0 0 1 59.021576586199529 28.066725731707017 8.6427219246649667 1 rotate no_reflect no_shear #
lump $-1 $-1 $35 $5 #
transform $-1 1 0 0 0 1 0 0 0 1 59.021576586199529 28.066725731707017 8.6427219246649667 1 rotate no_reflect no_shear #
lump $-1 $-1 $36 $6 #
transform $-1 1 0 0 0 1 0 0 0 1 59.021576586199529 28.066725731707017 8.6427219246649667 1 rotate no_reflect no_shear #
lump $-1 $-1 $37 $7 #
transform $-1 1 0 0 0 1 0 0 0 1 59.021576586199529 28.066725731707017 8.6427219246649667 1 rotate no_reflect no_shear #
lump $-1 $-1 $38 $8 #
transform $-1 1 0 0 0 1 0 0 0 1 59.021576586199529 28.066725731707017 8.6427219246649667 1 rotate no_reflect no_shear #
lump $-1 $-1 $39 $9 #
transform $-1 1 0 0 0 1 0 0 0 1 59.021576586199529 28.066725731707017 8.6427219246649667 1 rotate no_reflect no_shear #
shell $-1 $-1 $-1 $40 $-1 $10 #
shell $-1 $-1 $-1 $41 $-1 $12 #
shell $-1 $-1 $-1 $42 $-1 $14 #
shell $-1 $-1 $-1 $43 $-1 $16 #
shell $-1 $-1 $-1 $44 $-1 $18 #
shell $-1 $-1 $-1 $45 $-1 $20 #
shell $-1 $-1 $-1 $46 $-1 $22 #
shell $-1 $-1 $-1 $47 $-1 $24 #
shell $-1 $-1 $-1 $48 $-1 $26 #
shell $-1 $-1 $-1 $49 $-1 $28 #
face $-1 $50 $51 $30 $-1 $52 forward single #
face $-1 $53 $54 $31 $-1 $55 reversed single #
face $-1 $56 $57 $32 $-1 $58 reversed single #
face $-1 $59 $60 $33 $-1 $61 reversed single #
face $-1 $62 $63 $34 $-1 $64 forward single #
face $-1 $65 $66 $35 $-1 $67 forward single #
face $-1 $68 $69 $36 $-1 $70 reversed single #
face $-1 $71 $72 $37 $-1 $73 forward single #
face $-1 $74 $75 $38 $-1 $76 forward single #
face $-1 $77 $78 $39 $-1 $79 forward single #
face $-1 $80 $81 $30 $-1 $82 reversed single #
loop $-1 $-1 $83 $40 #
plane-surface $-1 0 0 8.6427219246649667 0 0 1 1 0 0 forward_v I I I I #
face $-1 $84 $85 $31 $-1 $86 reversed single #
loop $-1 $-1 $87 $41 #
plane-surface $-1 0 -23.609402860426293 5.0428318714952427 0 0 1 1 0 0 forward_v I I I I #
face $-1 $88 $89 $32 $-1 $90 reversed single #
loop $-1 $-1 $91 $42 #
plane-surface $-1 0 23.609402860426293 5.0428318714952427 0 0 1 1 0 0 forward_v I I I I #
face $-1 $92 $93 $33 $-1 $94 reversed single #
loop $-1 $-1 $95 $43 #
plane-surface $-1 -59.021576586199544 -16.149482426234741 0.57568954723213039 -0.5877852598018023 0 0.80901698891910034 0.80901698891910034 0 0.5877852598018023 forward_v I I I I #
face $-1 $96 $97 $34 $-1 $98 forward single #
loop $-1 $99 $100 $44 #
cone-surface $-1 -53.176025306586773 -17.43630995319652 4.2046972414889954 0.5877852598018023 0 -0.80901698891910034 0.40450849445955017 0 0.29389262990090115 1 I I 0 1 0.5 forward I I I I #
face $-1 $101 $102 $35 $-1 $103 forward single #
loop $-1 $104 $105 $45 #
cone-surface $-1 -53.176025306586773 -14.862654899272956 4.2046972414889954 0.5877852598018023 0 -0.80901698891910034 0.40450849445955017 0 0.29389262990090115 1 I I 0 1 0.5 forward I I I I #
face $-1 $106 $107 $36 $-1 $108 reversed single #
loop $-1 $-1 $109 $46 #
plane-surface $-1 99.407591655195091 2.9981767162375679 162.88663763561397 0 -1 0 -0.85716730853699208 0 -0.51503806187062418 forward_v I I I I #
face $-1 $110 $111 $37 $-1 $112 forward single #
loop $-1 $113 $114 $47 #
cone-surface $-1 56.26900443494165 -3.1378085434469014 4.5174363876967298 -0.85716730853699208 0 -0.51503806187062418 0.12875951546765604 0 -0.21429182713424802 1 I I 0 1 0.25 forward I I I I #
face $-1 $115 $116 $38 $-1 $117 forward single #
loop $-1 $118 $119 $48 #
cone-surface $-1 56.26900443494165 -0.83681407106522343 4.5174363876967298 -0.85716730853699208 0 -0.51503806187062418 0.12875951546765604 0 -0.21429182713424802 1 I I 0 1 0.25 forward I I I I #
face $-1 $120 $121 $39 $-1 $122 forward single #
loop $-1 $123 $124 $49 #
cone-surface $-1 56.26900443494165 1.4641804013164545 4.5174363876967298 -0.85716730853699208 0 -0.51503806187062418 0.12875951546765604 0 -0.21429182713424802 1 I I 0 1 0.25 forward I I I I #
face $-1 $125 $126 $30 $-1 $127 reversed single #
loop $-1 $-1 $128 $50 #
plane-surface $-1 0 0 -8.6427219246649667 0 0 1 1 0 0 forward_v I I I I #
coedge $-1 $129 $130 $131 $132 forward $51 $-1 #
face $-1 $133 $134 $31 $-1 $135 reversed single #
loop $-1 $-1 $136 $53 #
plane-surface $-1 0 -19.15207998914557 6.8427768980801051 0 -1 0 0 0 -1 forward_v I I I I #
coedge $-1 $137 $138 $139 $140 reversed $54 $-1 #
face $-1 $141 $142 $32 $-1 $143 forward single #
loop $-1 $-1 $144 $56 #
plane-surface $-1 0 19.15207998914557 6.8427768980801051 0 1 0 0 0 1 forward_v I I I I #
coedge $-1 $145 $146 $147 $148 reversed $57 $-1 #
face $-1 $149 $150 $33 $-1 $151 reversed single #
loop $-1 $-1 $152 $59 #
plane-surface $-1 -128.40560204146206 -13.146884863323914 96.074605889282566 0 -1 0 0.5877852598018023 0 -0.80901698891910034 forward_v I I I I #
coedge $-1 $153 $154 $155 $156 reversed $60 $-1 #
face $-1 $-1 $157 $34 $-1 $158 forward single #
loop $-1 $159 $160 $62 #
cone-surface $-1 -52.735186361735423 -17.43630995319652 3.5979344997996705 0.5877852598018023 0 -0.80901698891910034 0.20225424722977509 0 0.14694631495045057 1 I I -0.70710678118654746 0.70710678118654746 0.25 forward I I I I #
loop $-1 $-1 $161 $44 #
coedge $-1 $100 $100 $162 $163 reversed $63 $-1 #
face $-1 $-1 $164 $35 $-1 $165 forward single #
loop $-1 $166 $167 $65 #
cone-surface $-1 -52.735186361735423 -14.862654899272956 3.5979344997996705 0.5877852598018023 0 -0.80901698891910034 0.20225424722977509 0 0.14694631495045057 1 I I -0.70710678118654746 0.70710678118654746 0.25 forward I I I I #
loop $-1 $-1 $168 $45 #
coedge $-1 $105 $105 $169 $170 reversed $66 $-1 #
face $-1 $171 $172 $36 $-1 $173 reversed single #
loop $-1 $-1 $174 $68 #
plane-surface $-1 -1.7751402408101029 -0.83681407106522698 102.08992080860433 0.85716730853699208 0 0.51503806187062418 0.51503806187062418 0 -0.85716730853699208 forward_v I I I I #
coedge $-1 $175 $176 $177 $178 reversed $69 $-1 #
face $-1 $-1 $179 $37 $-1 $180 forward single #
loop $-1 $181 $182 $71 #
cone-surface $-1 55.733274867106033 -3.1378085434469014 4.19553759902759 -0.85716730853699208 0 -0.51503806187062418 0.064379757733828022 0 -0.10714591356712401 1 I I -0.70710678118654746 0.70710678118654746 0.125 forward I I I I #
loop $-1 $-1 $183 $47 #
coedge $-1 $114 $114 $184 $185 reversed $72 $-1 #
face $-1 $-1 $186 $38 $-1 $187 forward single #
loop $-1 $188 $189 $74 #
cone-surface $-1 55.733274867106033 -0.83681407106522343 4.19553759902759 -0.85716730853699208 0 -0.51503806187062418 0.064379757733828022 0 -0.10714591356712401 1 I I -0.70710678118654746 0.70710678118654746 0.125 forward I I I I #
loop $-1 $-1 $190 $48 #
coedge $-1 $119 $119 $191 $192 reversed $75 $-1 #
face $-1 $-1 $193 $39 $-1 $194 forward single #
loop $-1 $195 $196 $77 #
cone-surface $-1 55.733274867106033 1.4641804013164545 4.19553759902759 -0.85716730853699208 0 -0.51503806187062418 0.064379757733828022 0 -0.10714591356712401 1 I I -0.70710678118654746 0.70710678118654746 0.125 forward I I I I #
loop $-1 $-1 $197 $49 #
coedge $-1 $124 $124 $198 $199 reversed $78 $-1 #
face $-1 $200 $201 $30 $-1 $202 reversed single #
loop $-1 $-1 $203 $80 #
plane-surface $-1 0 -28.066725731707017 0 0 1 0 0 0 1 forward_v I I I I #
coedge $-1 $204 $205 $206 $207 forward $81 $-1 #
coedge $-1 $208 $83 $209 $210 forward $51 $-1 #
coedge $-1 $83 $208 $211 $212 forward $51 $-1 #
coedge $-1 $213 $214 $83 $132 reversed $215 $-1 #
edge $-1 $216 -28.066725731707017 $217 28.066725731707017 $131 $218 forward 7 unknown #
face $-1 $219 $220 $31 $-1 $221 reversed single #
loop $-1 $-1 $222 $84 #
plane-surface $-1 -59.021576586199529 0 0 1 0 0 0 0 -1 forward_v I I I I #
coedge $-1 $223 $224 $225 $226 reversed $85 $-1 #
coedge $-1 $227 $87 $228 $229 reversed $54 $-1 #
coedge $-1 $87 $227 $223 $230 forward $54 $-1 #
coedge $-1 $225 $231 $87 $140 forward $232 $-1 #
edge $-1 $233 -16.26202430149387 $234 -7.347378558932423 $139 $235 forward 7 unknown #
face $-1 $236 $237 $32 $-1 $238 reversed single #
loop $-1 $-1 $239 $88 #
plane-surface $-1 0 0 8.6427219246649667 0 0 1 1 0 0 forward_v I I I I #
coedge $-1 $240 $241 $242 $243 reversed $89 $-1 #
coedge $-1 $244 $91 $240 $245 forward $57 $-1 #
coedge $-1 $91 $244 $246 $247 reversed $57 $-1 #
coedge $-1 $248 $249 $91 $148 forward $237 $-1 #
edge $-1 $250 7.347378558932423 $251 16.26202430149387 $147 $252 forward 7 unknown #
face $-1 $253 $254 $33 $-1 $255 forward single #
loop $-1 $-1 $256 $92 #
plane-surface $-1 -59.021576586199529 0 0 1 0 0 0 0 -1 forward_v I I I I #
coedge $-1 $257 $258 $259 $260 reversed $93 $-1 #
coedge $-1 $261 $95 $262 $263 reversed $60 $-1 #
coedge $-1 $95 $261 $257 $264 forward $60 $-1 #
coedge $-1 $259 $265 $95 $156 forward $254 $-1 #
edge $-1 $266 -11.077338776028199 $267 -5.0721436502065433 $155 $268 forward 7 unknown #
loop $-1 $-1 $162 $96 #
plane-surface $-1 -59.021576586199544 -16.149482426234741 0.57568954723213039 -0.5877852598018023 0 0.80901698891910034 0.80901698891910034 0 0.5877852598018023 forward_v I I I I #
loop $-1 $-1 $269 $62 #
coedge $-1 $160 $160 $161 $270 reversed $97 $-1 #
coedge $-1 $161 $161 $160 $270 forward $99 $-1 #
coedge $-1 $162 $162 $100 $163 forward $157 $-1 #
edge $-1 $271 0 $271 6.2831853071796004 $162 $272 forward 7 unknown #
loop $-1 $-1 $169 $101 #
plane-surface $-1 -59.021576586199544 -16.149482426234741 0.57568954723213039 -0.5877852598018023 0 0.80901698891910034 0.80901698891910034 0 0.5877852598018023 forward_v I I I I #
loop $-1 $-1 $273 $65 #
coedge $-1 $167 $167 $168 $274 reversed $102 $-1 #
coedge $-1 $168 $168 $167 $274 forward $104 $-1 #
coedge $-1 $169 $169 $105 $170 forward $164 $-1 #
edge $-1 $275 0 $275 6.2831853071796004 $169 $276 forward 7 unknown #
face $-1 $277 $278 $36 $-1 $279 forward single #
loop $-1 $-1 $280 $106 #
plane-surface $-1 99.407591655195091 -4.6718048583680218 162.88663763561397 0 1 0 0.85716730853699208 0 0.51503806187062418 forward_v I I I I #
coedge $-1 $281 $282 $283 $284 reversed $107 $-1 #
coedge $-1 $176 $109 $285 $286 reversed $69 $-1 #
coedge $-1 $109 $175 $281 $287 reversed $69 $-1 #
coedge $-1 $283 $288 $109 $178 forward $278 $-1 #
edge $-1 $289 -9.3177807586019838 $290 -4.6698037646232464 $177 $291 forward 7 unknown #
loop $-1 $-1 $184 $110 #
plane-surface $-1 -1.7751402408101029 -0.83681407106522698 102.08992080860433 0.85716730853699208 0 0.51503806187062418 0.51503806187062418 0 -0.85716730853699208 forward_v I I I I #
loop $-1 $-1 $292 $71 #
coedge $-1 $182 $182 $183 $293 reversed $111 $-1 #
coedge $-1 $183 $183 $182 $293 forward $113 $-1 #
coedge $-1 $184 $184 $114 $185 forward $179 $-1 #
edge $-1 $294 0 $294 6.2831853071796004 $184 $295 forward 7 unknown #
loop $-1 $-1 $191 $115 #
plane-surface $-1 -1.7751402408101029 -0.83681407106522698 102.08992080860433 0.85716730853699208 0 0.51503806187062418 0.51503806187062418 0 -0.85716730853699208 forward_v I I I I #
loop $-1 $-1 $296 $74 #
coedge $-1 $189 $189 $190 $297 reversed $116 $-1 #
coedge $-1 $190 $190 $189 $297 forward $118 $-1 #
coedge $-1 $191 $191 $119 $192 forward $186 $-1 #
edge $-1 $298 0 $298 6.2831853071796004 $191 $299 forward 7 unknown #
loop $-1 $-1 $198 $120 #
plane-surface $-1 -1.7751402408101029 -0.83681407106522698 102.08992080860433 0.85716730853699208 0 0.51503806187062418 0.51503806187062418 0 -0.85716730853699208 forward_v I I I I #
loop $-1 $-1 $300 $77 #
coedge $-1 $196 $196 $197 $301 reversed $121 $-1 #
coedge $-1 $197 $197 $196 $301 forward $123 $-1 #
coedge $-1 $198 $198 $124 $199 forward $193 $-1 #
edge $-1 $302 0 $302 6.2831853071796004 $198 $303 forward 7 unknown #
face $-1 $304 $305 $30 $-1 $306 reversed single #
loop $-1 $-1 $307 $125 #
plane-surface $-1 -59.021576586199529 0 0 1 0 0 0 0 -1 forward_v I I I I #
coedge $-1 $308 $211 $309 $310 forward $126 $-1 #
coedge $-1 $311 $128 $308 $312 forward $81 $-1 #
coedge $-1 $128 $311 $313 $314 forward $81 $-1 #
coedge $-1 $214 $213 $128 $207 reversed $215 $-1 #
edge $-1 $315 -28.066725731707017 $316 28.066725731707017 $206 $317 forward 7 unknown #
coedge $-1 $130 $129 $318 $319 forward $51 $-1 #
coedge $-1 $320 $321 $129 $210 reversed $305 $-1 #
edge $-1 $217 -59.021576586199529 $322 59.021576586199529 $209 $323 forward 7 unknown #
coedge $-1 $203 $324 $130 $212 reversed $126 $-1 #
edge $-1 $325 -59.021576586199529 $216 59.021576586199529 $211 $326 forward 7 unknown #
coedge $-1 $206 $131 $324 $327 forward $215 $-1 #
coedge $-1 $131 $206 $320 $328 reversed $215 $-1 #
loop $-1 $-1 $213 $304 #
vertex $-1 $132 $329 #
vertex $-1 $132 $330 #
straight-curve $-1 59.021576586199529 0 8.6427219246649667 0 1 0 I I #
face $-1 $331 $332 $31 $-1 $333 forward single #
loop $-1 $-1 $228 $133 #
plane-surface $-1 0 -28.066725731707017 0 0 1 0 0 0 1 forward_v I I I I #
coedge $-1 $334 $335 $336 $337 forward $134 $-1 #
coedge $-1 $336 $136 $138 $230 reversed $85 $-1 #
coedge $-1 $136 $336 $338 $339 reversed $85 $-1 #
coedge $-1 $340 $139 $136 $226 forward $232 $-1 #
edge $-1 $234 1.6214434224551901 $341 5.2213334756249159 $225 $342 forward 7 unknown #
coedge $-1 $138 $137 $334 $343 reversed $54 $-1 #
coedge $-1 $344 $345 $137 $229 forward $220 $-1 #
edge $-1 $346 -59.021576586199529 $233 59.021576586199529 $228 $347 forward 7 unknown #
edge $-1 $348 -59.021576586199529 $234 59.021576586199529 $223 $349 forward 7 unknown #
coedge $-1 $139 $340 $344 $350 forward $232 $-1 #
loop $-1 $-1 $225 $331 #
vertex $-1 $229 $351 #
vertex $-1 $140 $352 #
straight-curve $-1 59.021576586199529 -11.804701430213147 5.0428318714952427 0 1 0 I I #
face $-1 $353 $354 $32 $-1 $355 reversed single #
loop $-1 $-1 $249 $141 #
plane-surface $-1 59.021576586199529 0 0 -1 0 0 0 0 1 forward_v I I I I #
coedge $-1 $356 $357 $241 $358 forward $142 $-1 #
coedge $-1 $359 $144 $145 $245 reversed $89 $-1 #
coedge $-1 $144 $359 $239 $358 reversed $89 $-1 #
coedge $-1 $360 $361 $144 $243 forward $354 $-1 #
edge $-1 $362 1.6214434224551901 $363 5.2213334756249159 $242 $364 forward 7 unknown #
coedge $-1 $146 $145 $361 $365 reversed $57 $-1 #
edge $-1 $250 -59.021576586199529 $362 59.021576586199529 $240 $366 forward 7 unknown #
coedge $-1 $367 $368 $146 $247 forward $369 $-1 #
edge $-1 $251 -59.021576586199529 $370 59.021576586199529 $246 $371 forward 7 unknown #
coedge $-1 $372 $147 $368 $373 reversed $237 $-1 #
coedge $-1 $147 $372 $359 $374 forward $237 $-1 #
vertex $-1 $148 $375 #
vertex $-1 $247 $376 #
straight-curve $-1 59.021576586199529 11.804701430213147 5.0428318714952427 0 1 0 I I #
face $-1 $-1 $377 $33 $-1 $378 forward single #
loop $-1 $-1 $259 $149 #
plane-surface $-1 0 0 8.6427219246649667 0 0 1 1 0 0 forward_v I I I I #
coedge $-1 $379 $380 $258 $381 forward $150 $-1 #
coedge $-1 $258 $152 $154 $264 reversed $93 $-1 #
coedge $-1 $152 $257 $256 $381 reversed $93 $-1 #
coedge $-1 $382 $155 $152 $260 forward $254 $-1 #
edge $-1 $267 -16.284541733955187 $383 -5.1812244345315008 $259 $384 forward 7 unknown #
coedge $-1 $154 $153 $379 $385 reversed $60 $-1 #
coedge $-1 $386 $387 $153 $263 forward $377 $-1 #
edge $-1 $388 -25.716579868871982 $266 -11.992124818479969 $262 $389 forward 7 unknown #
edge $-1 $390 1.756574927105486e-014 $267 13.724455050392031 $257 $391 forward 7 unknown #
coedge $-1 $155 $382 $386 $392 forward $254 $-1 #
vertex $-1 $263 $393 #
vertex $-1 $156 $394 #
straight-curve $-1 -47.91825928677585 -8.0747412131173704 8.6427219246649667 0 1 0 I I #
coedge $-1 $269 $269 $-1 $395 reversed $159 $-1 #
edge $-1 $396 0 $396 6.2831853071796004 $160 $397 forward 7 unknown #
vertex $-1 $163 $398 #
ellipse-curve $-1 -53.469917936487683 -17.43630995319652 4.6092057359485574 -0.5877852598018023 0 0.80901698891910034 0.40450849445955017 0 0.29389262990090115 1 I I #
coedge $-1 $273 $273 $-1 $399 reversed $166 $-1 #
edge $-1 $400 0 $400 6.2831853071796004 $167 $401 forward 7 unknown #
vertex $-1 $170 $402 #
ellipse-curve $-1 -53.469917936487683 -14.862654899272956 4.6092057359485574 -0.5877852598018023 0 0.80901698891910034 0.40450849445955017 0 0.29389262990090115 1 I I #
face $-1 $-1 $403 $36 $-1 $404 reversed single #
loop $-1 $-1 $177 $171 #
plane-surface $-1 0 0 8.6427219246649667 0 0 1 1 0 0 forward_v I I I I #
coedge $-1 $405 $406 $407 $408 reversed $172 $-1 #
coedge $-1 $409 $174 $176 $287 forward $107 $-1 #
coedge $-1 $174 $409 $405 $410 forward $107 $-1 #
coedge $-1 $407 $177 $174 $284 forward $278 $-1 #
edge $-1 $290 -3.4165837517701814 $411 4.2533978228354083 $283 $412 forward 7 unknown #
coedge $-1 $413 $414 $175 $286 forward $403 $-1 #
edge $-1 $415 -80.536129905207844 $289 -72.800596893142014 $285 $416 forward 7 unknown #
edge $-1 $290 109.0186220977495 $415 118.04315317239907 $176 $417 forward 7 unknown #
coedge $-1 $177 $407 $413 $418 forward $278 $-1 #
vertex $-1 $286 $419 #
vertex $-1 $178 $420 #
straight-curve $-1 49.703795827597546 2.9981767162375679 8.6427219246649685 -1 0 0 I I #
coedge $-1 $292 $292 $-1 $421 reversed $181 $-1 #
edge $-1 $422 0 $422 6.2831853071796004 $182 $423 forward 7 unknown #
vertex $-1 $185 $424 #
ellipse-curve $-1 56.697588089210157 -3.1378085434469014 4.7749554186320493 0.85716730853699208 0 0.51503806187062418 0.12875951546765604 0 -0.21429182713424802 1 I I #
coedge $-1 $296 $296 $-1 $425 reversed $188 $-1 #
edge $-1 $426 0 $426 6.2831853071796004 $189 $427 forward 7 unknown #
vertex $-1 $192 $428 #
ellipse-curve $-1 56.697588089210157 -0.83681407106522343 4.7749554186320493 0.85716730853699208 0 0.51503806187062418 0.12875951546765604 0 -0.21429182713424802 1 I I #
coedge $-1 $300 $300 $-1 $429 reversed $195 $-1 #
edge $-1 $430 0 $430 6.2831853071796004 $196 $431 forward 7 unknown #
vertex $-1 $199 $432 #
ellipse-curve $-1 56.697588089210157 1.4641804013164545 4.7749554186320493 0.85716730853699208 0 0.51503806187062418 0.12875951546765604 0 -0.21429182713424802 1 I I #
face $-1 $-1 $215 $30 $-1 $433 reversed single #
loop $-1 $-1 $320 $200 #
plane-surface $-1 0 28.066725731707017 0 0 -1 0 0 0 -1 forward_v I I I I #
coedge $-1 $434 $318 $321 $435 forward $201 $-1 #
coedge $-1 $324 $203 $204 $312 reversed $126 $-1 #
coedge $-1 $318 $434 $203 $310 reversed $201 $-1 #
edge $-1 $325 -8.6427219246649667 $436 8.6427219246649667 $309 $437 forward 7 unknown #
coedge $-1 $205 $204 $434 $438 forward $81 $-1 #
edge $-1 $316 -59.021576586199529 $436 59.021576586199529 $308 $439 forward 7 unknown #
coedge $-1 $321 $320 $205 $314 reversed $305 $-1 #
edge $-1 $440 -59.021576586199529 $315 59.021576586199529 $313 $441 forward 7 unknown #
vertex $-1 $207 $442 #
vertex $-1 $327 $443 #
straight-curve $-1 59.021576586199529 0 -8.6427219246649667 0 -1 0 I I #
coedge $-1 $307 $309 $208 $319 reversed $201 $-1 #
edge $-1 $322 -28.066725731707017 $325 28.066725731707017 $318 $444 forward 7 unknown #
coedge $-1 $313 $209 $214 $328 forward $305 $-1 #
coedge $-1 $209 $313 $307 $435 reversed $305 $-1 #
vertex $-1 $210 $445 #
straight-curve $-1 0 28.066725731707017 8.6427219246649667 -1 0 0 I I #
coedge $-1 $211 $308 $213 $327 reversed $126 $-1 #
vertex $-1 $319 $446 #
straight-curve $-1 0 -28.066725731707017 8.6427219246649667 1 0 0 I I #
edge $-1 $216 -8.6427219246649667 $316 8.6427219246649667 $213 $447 forward 7 unknown #
edge $-1 $217 -8.6427219246649667 $315 8.6427219246649667 $214 $448 forward 7 unknown #
point $-1 59.021576586199529 -28.066725731707017 8.6427219246649667 #
point $-1 59.021576586199529 28.066725731707017 8.6427219246649667 #
face $-1 $-1 $232 $31 $-1 $449 reversed single #
loop $-1 $-1 $338 $219 #
plane-surface $-1 0 0 8.6427219246649667 0 0 1 1 0 0 forward_v I I I I #
coedge $-1 $450 $222 $227 $343 forward $134 $-1 #
coedge $-1 $222 $450 $451 $452 reversed $134 $-1 #
coedge $-1 $224 $223 $222 $337 reversed $85 $-1 #
edge $-1 $453 -5.2213334756249159 $348 -1.6214434224551901 $222 $454 forward 7 unknown #
coedge $-1 $451 $455 $224 $339 forward $332 $-1 #
edge $-1 $341 -59.021576586199529 $453 59.021576586199529 $338 $456 forward 7 unknown #
coedge $-1 $231 $225 $455 $457 reversed $232 $-1 #
vertex $-1 $226 $458 #
straight-curve $-1 59.021576586199529 -19.15207998914557 3.4213884490400526 0 0 1 I I #
edge $-1 $348 7.347378558932423 $346 16.26202430149387 $334 $459 forward 7 unknown #
coedge $-1 $460 $228 $231 $350 reversed $220 $-1 #
coedge $-1 $228 $460 $450 $461 forward $220 $-1 #
vertex $-1 $229 $462 #
straight-curve $-1 0 -28.066725731707017 5.0428318714952427 1 0 0 I I #
vertex $-1 $343 $463 #
straight-curve $-1 0 -19.15207998914557 5.0428318714952427 1 0 0 I I #
edge $-1 $464 -8.6427219246649667 $233 -5.0428318714952427 $231 $465 forward 7 unknown #
point $-1 59.021576586199529 -28.066725731707017 5.0428318714952427 #
point $-1 59.021576586199529 -19.15207998914557 5.0428318714952427 #
face $-1 $-1 $369 $32 $-1 $466 reversed single #
loop $-1 $-1 $242 $236 #
plane-surface $-1 -59.021576586199529 0 0 1 0 0 0 0 -1 forward_v I I I I #
coedge $-1 $467 $239 $372 $468 forward $142 $-1 #
coedge $-1 $239 $467 $360 $469 forward $142 $-1 #
edge $-1 $363 -59.021576586199529 $470 59.021576586199529 $239 $471 forward 7 unknown #
coedge $-1 $241 $240 $249 $374 reversed $89 $-1 #
coedge $-1 $472 $242 $357 $469 reversed $354 $-1 #
coedge $-1 $242 $472 $244 $365 forward $354 $-1 #
vertex $-1 $365 $473 #
vertex $-1 $243 $474 #
straight-curve $-1 -59.021576586199529 19.15207998914557 3.4213884490400526 0 0 1 I I #
edge $-1 $370 -16.26202430149387 $362 -7.347378558932423 $361 $475 forward 7 unknown #
straight-curve $-1 0 19.15207998914557 5.0428318714952427 -1 0 0 I I #
coedge $-1 $476 $246 $472 $477 reversed $369 $-1 #
coedge $-1 $246 $476 $248 $373 forward $369 $-1 #
loop $-1 $-1 $246 $353 #
vertex $-1 $247 $478 #
straight-curve $-1 0 28.066725731707017 5.0428318714952427 -1 0 0 I I #
coedge $-1 $249 $248 $356 $468 reversed $237 $-1 #
edge $-1 $479 -8.6427219246649667 $251 -5.0428318714952427 $248 $480 forward 7 unknown #
edge $-1 $470 -5.2213334756249159 $250 -1.6214434224551901 $249 $481 forward 7 unknown #
point $-1 59.021576586199529 19.15207998914557 5.0428318714952427 #
point $-1 59.021576586199529 28.066725731707017 5.0428318714952427 #
loop $-1 $-1 $262 $253 #
plane-surface $-1 0 -19.15207998914557 6.8427768980801051 0 -1 0 0 0 -1 forward_v I I I I #
coedge $-1 $482 $256 $261 $385 forward $150 $-1 #
coedge $-1 $256 $482 $382 $483 reversed $150 $-1 #
edge $-1 $383 39.394581019976314 $390 47.461613397409145 $256 $484 forward 7 unknown #
coedge $-1 $265 $259 $380 $483 forward $254 $-1 #
vertex $-1 $483 $485 #
straight-curve $-1 -64.20280102073103 -13.146884863323914 8.6427219246649685 -1 0 0 I I #
edge $-1 $390 5.0721436502065433 $388 11.077338776028199 $379 $486 forward 7 unknown #
coedge $-1 $387 $262 $265 $392 reversed $377 $-1 #
coedge $-1 $262 $386 $482 $487 reversed $377 $-1 #
vertex $-1 $487 $488 #
straight-curve $-1 -38.216426575387167 -19.15207998914557 15.691516126670859 0.80901698891910034 0 0.5877852598018023 I I #
vertex $-1 $385 $489 #
straight-curve $-1 -59.021576586199544 -13.146884863323914 0.57568954723213039 0.80901698891910034 0 0.5877852598018023 I I #
edge $-1 $490 -59.021576586199529 $266 -47.918259286775843 $265 $491 forward 7 unknown #
point $-1 -47.918259286775843 -19.15207998914557 8.6427219246649667 #
point $-1 -47.918259286775843 -13.146884863323914 8.6427219246649667 #
edge $-1 $492 1 $492 0 $269 $-1 forward 7 unknown #
vertex $-1 $270 $493 #
ellipse-curve $-1 -52.88213267668587 -17.43630995319652 3.8001887470294458 -0.5877852598018023 0 0.80901698891910034 0.40450849445955017 0 0.29389262990090115 1 I I #
point $-1 -53.065409442028127 -17.43630995319652 4.9030983658494467 #
edge $-1 $494 1 $494 0 $273 $-1 forward 7 unknown #
vertex $-1 $274 $495 #
ellipse-curve $-1 -52.88213267668587 -14.862654899272956 3.8001887470294458 -0.5877852598018023 0 0.80901698891910034 0.40450849445955017 0 0.29389262990090115 1 I I #
point $-1 -53.065409442028127 -14.862654899272956 4.9030983658494467 #
loop $-1 $-1 $285 $277 #
plane-surface $-1 59.021576586199529 0 0 -1 0 0 0 0 1 forward_v I I I I #
coedge $-1 $406 $280 $282 $410 reversed $172 $-1 #
coedge $-1 $280 $405 $496 $497 reversed $172 $-1 #
coedge $-1 $288 $283 $280 $408 forward $278 $-1 #
edge $-1 $411 4.6698037646232464 $498 9.3177807586019838 $407 $499 forward 7 unknown #
coedge $-1 $282 $281 $414 $500 reversed $107 $-1 #
edge $-1 $501 -118.04315317239907 $411 -109.0186220977495 $405 $502 forward 7 unknown #
vertex $-1 $284 $503 #
straight-curve $-1 54.373599592220778 -0.41840703553261349 8.6427219246649614 0 -1 0 I I #
coedge $-1 $496 $285 $288 $418 reversed $403 $-1 #
coedge $-1 $285 $496 $409 $500 forward $403 $-1 #
vertex $-1 $286 $504 #
straight-curve $-1 59.021576586199529 2.9981767162375679 81.443318817806983 0 0 1 I I #
straight-curve $-1 -1.7751402408101029 2.9981767162375679 102.08992080860433 0.51503806187062418 0 -0.85716730853699208 I I #
edge $-1 $498 -4.6718048583680218 $289 2.9981767162375679 $413 $505 forward 7 unknown #
point $-1 59.021576586199529 2.9981767162375679 8.6427219246649667 #
point $-1 54.373599592220792 2.9981767162375679 8.6427219246649685 #
edge $-1 $506 1 $506 0 $292 $-1 forward 7 unknown #
vertex $-1 $293 $507 #
ellipse-curve $-1 55.840420780673156 -3.1378085434469014 4.2599173567614184 0.85716730853699208 0 0.51503806187062418 0.12875951546765604 0 -0.21429182713424802 1 I I #
point $-1 56.826347604677807 -3.1378085434469014 4.5606635914977947 #
edge $-1 $508 1 $508 0 $296 $-1 forward 7 unknown #
vertex $-1 $297 $509 #
ellipse-curve $-1 55.840420780673156 -0.83681407106522343 4.2599173567614184 0.85716730853699208 0 0.51503806187062418 0.12875951546765604 0 -0.21429182713424802 1 I I #
point $-1 56.826347604677807 -0.83681407106522343 4.5606635914977947 #
edge $-1 $510 1 $510 0 $300 $-1 forward 7 unknown #
vertex $-1 $301 $511 #
ellipse-curve $-1 55.840420780673156 1.4641804013164545 4.2599173567614184 0.85716730853699208 0 0.51503806187062418 0.12875951546765604 0 -0.21429182713424802 1 I I #
point $-1 56.826347604677807 1.4641804013164545 4.5606635914977947 #
plane-surface $-1 59.021576586199529 0 0 -1 0 0 0 0 1 forward_v I I I I #
coedge $-1 $309 $307 $311 $438 reversed $201 $-1 #
edge $-1 $322 -8.6427219246649667 $440 8.6427219246649667 $321 $512 forward 7 unknown #
vertex $-1 $438 $513 #
straight-curve $-1 -59.021576586199529 -28.066725731707017 0 0 0 -1 I I #
edge $-1 $436 -28.066725731707017 $440 28.066725731707017 $434 $514 forward 7 unknown #
straight-curve $-1 0 -28.066725731707017 -8.6427219246649667 -1 0 0 I I #
vertex $-1 $314 $515 #
straight-curve $-1 0 28.066725731707017 -8.6427219246649667 1 0 0 I I #
point $-1 59.021576586199529 28.066725731707017 -8.6427219246649667 #
point $-1 59.021576586199529 -28.066725731707017 -8.6427219246649667 #
straight-curve $-1 -59.021576586199529 0 8.6427219246649667 0 -1 0 I I #
point $-1 -59.021576586199529 28.066725731707017 8.6427219246649667 #
point $-1 -59.021576586199529 -28.066725731707017 8.6427219246649667 #
straight-curve $-1 59.021576586199529 -28.066725731707017 0 0 0 -1 I I #
straight-curve $-1 59.021576586199529 28.066725731707017 0 0 0 -1 I I #
plane-surface $-1 59.021576586199529 0 0 -1 0 0 0 0 1 forward_v I I I I #
coedge $-1 $335 $334 $345 $461 reversed $134 $-1 #
coedge $-1 $516 $338 $335 $452 forward $332 $-1 #
edge $-1 $453 19.15207998914557 $517 28.066725731707017 $335 $518 forward 7 unknown #
vertex $-1 $452 $519 #
straight-curve $-1 -59.021576586199529 -19.15207998914557 3.4213884490400526 0 0 -1 I I #
coedge $-1 $338 $516 $340 $457 forward $332 $-1 #
straight-curve $-1 0 -19.15207998914557 8.6427219246649667 -1 0 0 I I #
edge $-1 $464 -28.066725731707017 $341 -19.15207998914557 $340 $520 forward 7 unknown #
point $-1 59.021576586199529 -19.15207998914557 8.6427219246649685 #
straight-curve $-1 -59.021576586199529 -11.804701430213147 5.0428318714952427 0 -1 0 I I #
coedge $-1 $345 $344 $516 $521 reversed $220 $-1 #
edge $-1 $517 -8.6427219246649667 $346 -5.0428318714952427 $450 $522 forward 7 unknown #
point $-1 -59.021576586199529 -28.066725731707017 5.0428318714952427 #
point $-1 -59.021576586199529 -19.15207998914557 5.0428318714952427 #
vertex $-1 $457 $523 #
straight-curve $-1 59.021576586199529 -28.066725731707017 0 0 0 -1 I I #
plane-surface $-1 0 28.066725731707017 0 0 -1 0 0 0 -1 forward_v I I I I #
coedge $-1 $357 $356 $476 $524 forward $142 $-1 #
edge $-1 $470 19.15207998914557 $479 28.066725731707017 $372 $525 forward 7 unknown #
edge $-1 $526 -28.066725731707017 $363 -19.15207998914557 $360 $527 forward 7 unknown #
vertex $-1 $468 $528 #
straight-curve $-1 0 19.15207998914557 8.6427219246649667 1 0 0 I I #
coedge $-1 $361 $360 $367 $477 forward $354 $-1 #
point $-1 -59.021576586199529 19.15207998914557 5.0428318714952427 #
point $-1 -59.021576586199529 19.15207998914557 8.6427219246649685 #
straight-curve $-1 -59.021576586199529 11.804701430213147 5.0428318714952427 0 -1 0 I I #
coedge $-1 $368 $367 $467 $524 reversed $369 $-1 #
edge $-1 $526 -8.6427219246649667 $370 -5.0428318714952427 $367 $529 forward 7 unknown #
point $-1 -59.021576586199529 28.066725731707017 5.0428318714952427 #
vertex $-1 $468 $530 #
straight-curve $-1 59.021576586199529 28.066725731707017 0 0 0 -1 I I #
straight-curve $-1 59.021576586199529 19.15207998914557 3.4213884490400526 0 0 -1 I I #
coedge $-1 $380 $379 $387 $487 forward $150 $-1 #
edge $-1 $383 13.146884863323914 $490 19.15207998914557 $380 $531 forward 7 unknown #
straight-curve $-1 -59.021576586199529 -13.146884863323914 48.037302944641283 0 0 -1 I I #
point $-1 -59.021576586199529 -13.146884863323914 8.6427219246649667 #
straight-curve $-1 -59.021576586199529 -8.0747412131173704 0.57568954723213828 0 -1 0 I I #
edge $-1 $388 -47.461613397409145 $490 -39.394581019976314 $482 $532 forward 7 unknown #
point $-1 -59.021576586199529 -19.15207998914557 0.57568954723214072 #
point $-1 -59.021576586199529 -13.146884863323914 0.57568954723214072 #
vertex $-1 $487 $533 #
straight-curve $-1 0 -19.15207998914557 8.6427219246649667 1 0 0 I I #
vertex $-1 $395 $534 #
point $-1 -52.477624182226322 -17.43630995319652 4.0940813769303466 #
vertex $-1 $399 $535 #
point $-1 -52.477624182226322 -14.862654899272956 4.0940813769303466 #
coedge $-1 $414 $413 $406 $497 forward $403 $-1 #
edge $-1 $498 72.800596893142014 $501 80.536129905207844 $496 $536 forward 7 unknown #
vertex $-1 $418 $537 #
straight-curve $-1 49.703795827597546 -4.6718048583680218 8.6427219246649685 1 0 0 I I #
edge $-1 $501 -4.2533978228354083 $415 3.4165837517701814 $414 $538 forward 7 unknown #
vertex $-1 $500 $539 #
straight-curve $-1 -1.7751402408101029 -4.6718048583680218 102.08992080860433 -0.51503806187062418 0 0.85716730853699208 I I #
point $-1 54.373599592220792 -4.6718048583680218 8.6427219246649685 #
point $-1 59.021576586199529 2.9981767162375679 0.90718891259913903 #
straight-curve $-1 59.021576586199529 0 8.6427219246649667 0 1 0 I I #
vertex $-1 $421 $540 #
point $-1 55.969180296140813 -3.1378085434469014 4.0456255296271699 #
vertex $-1 $425 $541 #
point $-1 55.969180296140813 -0.83681407106522343 4.0456255296271699 #
vertex $-1 $429 $542 #
point $-1 55.969180296140813 1.4641804013164545 4.0456255296271699 #
straight-curve $-1 -59.021576586199529 28.066725731707017 0 0 0 -1 I I #
point $-1 -59.021576586199529 -28.066725731707017 -8.6427219246649667 #
straight-curve $-1 -59.021576586199529 0 -8.6427219246649667 0 1 0 I I #
point $-1 -59.021576586199529 28.066725731707017 -8.6427219246649667 #
coedge $-1 $455 $451 $460 $521 forward $332 $-1 #
vertex $-1 $452 $543 #
straight-curve $-1 -59.021576586199529 0 8.6427219246649667 0 -1 0 I I #
point $-1 -59.021576586199529 -19.15207998914557 8.6427219246649685 #
straight-curve $-1 59.021576586199529 0 8.6427219246649667 0 1 0 I I #
edge $-1 $517 -59.021576586199529 $464 59.021576586199529 $460 $544 forward 7 unknown #
straight-curve $-1 -59.021576586199529 -28.066725731707017 0 0 0 -1 I I #
point $-1 59.021576586199529 -28.066725731707017 8.6427219246649667 #
edge $-1 $479 -59.021576586199529 $526 59.021576586199529 $476 $545 forward 7 unknown #
straight-curve $-1 59.021576586199529 0 8.6427219246649667 0 1 0 I I #
vertex $-1 $524 $546 #
straight-curve $-1 -59.021576586199529 0 8.6427219246649667 0 -1 0 I I #
point $-1 59.021576586199529 19.15207998914557 8.6427219246649685 #
straight-curve $-1 -59.021576586199529 28.066725731707017 0 0 0 -1 I I #
point $-1 59.021576586199529 28.066725731707017 8.6427219246649667 #
straight-curve $-1 -59.021576586199529 0 8.6427219246649667 0 -1 0 I I #
straight-curve $-1 -59.021576586199529 -19.15207998914557 48.037302944641283 0 0 1 I I #
point $-1 -59.021576586199529 -19.15207998914557 8.6427219246649685 #
point $-1 -52.588240046784975 -17.43630995319652 3.3956802525698953 #
point $-1 -52.588240046784975 -14.862654899272956 3.3956802525698953 #
straight-curve $-1 59.021576586199529 -4.6718048583680218 81.443318817806983 0 0 -1 I I #
point $-1 59.021576586199529 -4.6718048583680218 8.6427219246649667 #
straight-curve $-1 59.021576586199529 -0.41840703553261349 0.90718891259913192 0 1 0 I I #
point $-1 59.021576586199529 -4.6718048583680218 0.90718891259913903 #
point $-1 55.62612895353891 -3.1378085434469014 4.1311578412937617 #
point $-1 55.62612895353891 -0.83681407106522343 4.1311578412937617 #
point $-1 55.62612895353891 1.4641804013164545 4.1311578412937617 #
point $-1 -59.021576586199529 -28.066725731707017 8.6427219246649667 #
straight-curve $-1 0 -28.066725731707017 8.6427219246649667 1 0 0 I I #
straight-curve $-1 0 28.066725731707017 8.6427219246649667 -1 0 0 I I #
point $-1 -59.021576586199529 28.066725731707017 8.6427219246649667 #
End-of-ACIS-data 