500 0 11 0           
7 Unknown 11 ACIS 5.0 NT 24 Fri Mar 26 00:21:34 1999 
-1 9.9999999999999995e-007 1e-010 
body $-1 $11 $-1 $12 #
body $-1 $13 $-1 $14 #
body $-1 $15 $-1 $16 #
body $-1 $17 $-1 $18 #
body $-1 $19 $-1 $20 #
body $-1 $21 $-1 $22 #
body $-1 $23 $-1 $24 #
body $-1 $25 $-1 $26 #
body $-1 $27 $-1 $28 #
body $-1 $29 $-1 $30 #
body $-1 $31 $-1 $32 #
lump $-1 $-1 $33 $0 #
transform $-1 1 0 0 0 1 0 0 0 1 68.056276131473737 40.270697456000164 13.87960736868167 1 rotate no_reflect no_shear #
lump $-1 $-1 $34 $1 #
transform $-1 1 0 0 0 1 0 0 0 1 68.056276131473737 40.270697456000164 13.87960736868167 1 rotate no_reflect no_shear #
lump $-1 $-1 $35 $2 #
transform $-1 1 0 0 0 1 0 0 0 1 68.056276131473737 40.270697456000164 13.87960736868167 1 rotate no_reflect no_shear #
lump $-1 $-1 $36 $3 #
transform $-1 1 0 0 0 1 0 0 0 1 68.056276131473737 40.270697456000164 13.87960736868167 1 rotate no_reflect no_shear #
lump $-1 $-1 $37 $4 #
transform $-1 1 0 0 0 1 0 0 0 1 68.056276131473737 40.270697456000164 13.87960736868167 1 rotate no_reflect no_shear #
lump $-1 $-1 $38 $5 #
transform $-1 1 0 0 0 1 0 0 0 1 68.056276131473737 40.270697456000164 13.87960736868167 1 rotate no_reflect no_shear #
lump $-1 $-1 $39 $6 #
transform $-1 1 0 0 0 1 0 0 0 1 68.056276131473737 40.270697456000164 13.87960736868167 1 rotate no_reflect no_shear #
lump $-1 $-1 $40 $7 #
transform $-1 1 0 0 0 1 0 0 0 1 68.056276131473737 40.270697456000164 13.87960736868167 1 rotate no_reflect no_shear #
lump $-1 $-1 $41 $8 #
transform $-1 1 0 0 0 1 0 0 0 1 68.056276131473737 40.270697456000164 13.87960736868167 1 rotate no_reflect no_shear #
lump $-1 $-1 $42 $9 #
transform $-1 1 0 0 0 1 0 0 0 1 68.056276131473737 40.270697456000164 13.87960736868167 1 rotate no_reflect no_shear #
lump $-1 $-1 $43 $10 #
transform $-1 1 0 0 0 1 0 0 0 1 68.056276131473737 40.270697456000164 13.87960736868167 1 rotate no_reflect no_shear #
shell $-1 $-1 $-1 $44 $-1 $11 #
shell $-1 $-1 $-1 $45 $-1 $13 #
shell $-1 $-1 $-1 $46 $-1 $15 #
shell $-1 $-1 $-1 $47 $-1 $17 #
shell $-1 $-1 $-1 $48 $-1 $19 #
shell $-1 $-1 $-1 $49 $-1 $21 #
shell $-1 $-1 $-1 $50 $-1 $23 #
shell $-1 $-1 $-1 $51 $-1 $25 #
shell $-1 $-1 $-1 $52 $-1 $27 #
shell $-1 $-1 $-1 $53 $-1 $29 #
shell $-1 $-1 $-1 $54 $-1 $31 #
face $-1 $55 $56 $33 $-1 $57 forward single #
face $-1 $58 $59 $34 $-1 $60 forward single #
face $-1 $61 $62 $35 $-1 $63 forward single #
face $-1 $64 $65 $36 $-1 $66 reversed single #
face $-1 $67 $68 $37 $-1 $69 forward single #
face $-1 $70 $71 $38 $-1 $72 forward single #
face $-1 $73 $74 $39 $-1 $75 forward single #
face $-1 $76 $77 $40 $-1 $78 reversed single #
face $-1 $79 $80 $41 $-1 $81 forward single #
face $-1 $82 $83 $42 $-1 $84 forward single #
face $-1 $85 $86 $43 $-1 $87 forward single #
face $-1 $88 $89 $33 $-1 $90 reversed single #
loop $-1 $-1 $91 $44 #
plane-surface $-1 0 0 13.87960736868167 0 0 1 1 0 0 forward_v I I I I #
face $-1 $92 $93 $34 $-1 $94 reversed single #
loop $-1 $-1 $95 $45 #
plane-surface $-1 -59.043905276309516 0 1.5456804244046447 0 0 1 1 0 0 forward_v I I I I #
face $-1 $96 $97 $35 $-1 $98 reversed single #
loop $-1 $-1 $99 $46 #
plane-surface $-1 59.043905276309516 0 1.5456804244046447 0 0 1 1 0 0 forward_v I I I I #
face $-1 $100 $101 $36 $-1 $102 reversed single #
loop $-1 $-1 $103 $47 #
plane-surface $-1 -27.579869989387589 115.46004360149834 143.08410900695085 -1 0 0 0 0.85716730853699208 0.51503806187062418 forward_v I I I I #
face $-1 $104 $105 $37 $-1 $106 forward single #
loop $-1 $107 $108 $48 #
cone-surface $-1 -45.54120153479375 34.114098211529367 7.0059335971161243 0 -0.85716730853699208 -0.51503806187062418 2 0 0 1 I I 0 1 2 forward I I I I #
face $-1 $109 $110 $38 $-1 $111 forward single #
loop $-1 $112 $113 $49 #
cone-surface $-1 -38.805702205266442 34.114098211529367 7.0059335971161243 0 -0.85716730853699208 -0.51503806187062418 2 0 0 1 I I 0 1 2 forward I I I I #
face $-1 $114 $115 $39 $-1 $116 forward single #
loop $-1 $117 $118 $50 #
cone-surface $-1 -32.070202875739128 34.114098211529367 7.0059335971161243 0 -0.85716730853699208 -0.51503806187062418 2 0 0 1 I I 0 1 2 forward I I I I #
face $-1 $119 $120 $40 $-1 $121 reversed single #
loop $-1 $-1 $122 $51 #
plane-surface $-1 -50.031534421145295 -156.94192753733154 74.046658304416511 1 0 0 0 0.85716730853699208 -0.51503806187062418 forward_v I I I I #
face $-1 $123 $124 $41 $-1 $125 forward single #
loop $-1 $126 $127 $52 #
cone-surface $-1 -45.54120153479375 -34.114098211529374 7.0059335971161065 0 0.85716730853699208 -0.51503806187062418 2 0 0 1 I I 0 1 2 forward I I I I #
face $-1 $128 $129 $42 $-1 $130 forward single #
loop $-1 $131 $132 $53 #
cone-surface $-1 -38.805702205266442 -34.114098211529374 7.0059335971161065 0 0.85716730853699208 -0.51503806187062418 2 0 0 1 I I 0 1 2 forward I I I I #
face $-1 $133 $134 $43 $-1 $135 forward single #
loop $-1 $136 $137 $54 #
cone-surface $-1 -32.070202875739128 -34.114098211529374 7.0059335971161065 0 0.85716730853699208 -0.51503806187062418 2 0 0 1 I I 0 1 2 forward I I I I #
face $-1 $138 $139 $33 $-1 $140 reversed single #
loop $-1 $-1 $141 $55 #
plane-surface $-1 0 0 -13.87960736868167 0 0 1 1 0 0 forward_v I I I I #
coedge $-1 $142 $143 $144 $145 forward $56 $-1 #
face $-1 $146 $147 $34 $-1 $148 reversed single #
loop $-1 $-1 $149 $58 #
plane-surface $-1 -59.043905276309516 0 -2.4430494180566074 0 0 1 1 0 0 forward_v I I I I #
coedge $-1 $150 $151 $152 $153 forward $59 $-1 #
face $-1 $154 $155 $35 $-1 $156 reversed single #
loop $-1 $-1 $157 $61 #
plane-surface $-1 59.043905276309516 0 -2.4430494180566074 0 0 1 1 0 0 forward_v I I I I #
coedge $-1 $158 $159 $160 $161 reversed $62 $-1 #
face $-1 $162 $163 $36 $-1 $164 reversed single #
loop $-1 $-1 $165 $64 #
plane-surface $-1 -38.805702205266442 -1.2111864798330174 72.980963893178341 0 0.85716730853699208 0.51503806187062418 1 0 0 forward_v I I I I #
coedge $-1 $166 $167 $168 $169 reversed $65 $-1 #
face $-1 $-1 $170 $37 $-1 $171 forward single #
loop $-1 $172 $173 $67 #
cone-surface $-1 -45.54120153479375 30.085435404927267 4.5852688526987659 0 -0.85716730853699208 -0.51503806187062418 1 0 0 1 I I -0.70710678118654746 0.70710678118654746 1 forward I I I I #
loop $-1 $-1 $174 $48 #
coedge $-1 $108 $108 $175 $176 reversed $68 $-1 #
face $-1 $-1 $177 $38 $-1 $178 forward single #
loop $-1 $179 $180 $70 #
cone-surface $-1 -38.805702205266442 30.085435404927267 4.5852688526987659 0 -0.85716730853699208 -0.51503806187062418 1 0 0 1 I I -0.70710678118654746 0.70710678118654746 1 forward I I I I #
loop $-1 $-1 $181 $49 #
coedge $-1 $113 $113 $182 $183 reversed $71 $-1 #
face $-1 $-1 $184 $39 $-1 $185 forward single #
loop $-1 $186 $187 $73 #
cone-surface $-1 -32.070202875739128 30.085435404927267 4.5852688526987659 0 -0.85716730853699208 -0.51503806187062418 1 0 0 1 I I -0.70710678118654746 0.70710678118654746 1 forward I I I I #
loop $-1 $-1 $188 $50 #
coedge $-1 $118 $118 $189 $190 reversed $74 $-1 #
face $-1 $191 $192 $40 $-1 $193 reversed single #
loop $-1 $-1 $194 $76 #
plane-surface $-1 -38.805702205266442 -40.270697456000178 3.9435131906439977 0 -0.85716730853699208 0.51503806187062418 1 0 0 forward_v I I I I #
coedge $-1 $195 $196 $197 $198 reversed $77 $-1 #
face $-1 $-1 $199 $41 $-1 $200 forward single #
loop $-1 $201 $202 $79 #
cone-surface $-1 -45.54120153479375 -30.085435404927274 4.5852688526987482 0 0.85716730853699208 -0.51503806187062418 1 0 0 1 I I -0.70710678118654746 0.70710678118654746 1 forward I I I I #
loop $-1 $-1 $203 $52 #
coedge $-1 $127 $127 $204 $205 reversed $80 $-1 #
face $-1 $-1 $206 $42 $-1 $207 forward single #
loop $-1 $208 $209 $82 #
cone-surface $-1 -38.805702205266442 -30.085435404927274 4.5852688526987482 0 0.85716730853699208 -0.51503806187062418 1 0 0 1 I I -0.70710678118654746 0.70710678118654746 1 forward I I I I #
loop $-1 $-1 $210 $53 #
coedge $-1 $132 $132 $211 $212 reversed $83 $-1 #
face $-1 $-1 $213 $43 $-1 $214 forward single #
loop $-1 $215 $216 $85 #
cone-surface $-1 -32.070202875739128 -30.085435404927274 4.5852688526987482 0 0.85716730853699208 -0.51503806187062418 1 0 0 1 I I -0.70710678118654746 0.70710678118654746 1 forward I I I I #
loop $-1 $-1 $217 $54 #
coedge $-1 $137 $137 $218 $219 reversed $86 $-1 #
face $-1 $220 $221 $33 $-1 $222 reversed single #
loop $-1 $-1 $223 $88 #
plane-surface $-1 0 -40.270697456000164 0 0 1 0 0 0 1 forward_v I I I I #
coedge $-1 $224 $225 $226 $227 forward $89 $-1 #
coedge $-1 $228 $91 $229 $230 forward $56 $-1 #
coedge $-1 $91 $228 $231 $232 forward $56 $-1 #
coedge $-1 $233 $234 $91 $145 reversed $235 $-1 #
edge $-1 $236 -40.270697456000164 $237 40.270697456000164 $144 $238 forward 7 unknown #
face $-1 $239 $240 $34 $-1 $241 reversed single #
loop $-1 $-1 $242 $92 #
plane-surface $-1 -50.031534421145295 0 -0.44868449682598133 -1 0 0 0 0 1 forward_v I I I I #
coedge $-1 $243 $244 $245 $246 forward $93 $-1 #
coedge $-1 $247 $95 $248 $249 reversed $59 $-1 #
coedge $-1 $95 $247 $250 $251 reversed $59 $-1 #
coedge $-1 $242 $252 $95 $153 reversed $147 $-1 #
edge $-1 $253 -40.270697456000164 $254 40.270697456000164 $152 $255 forward 7 unknown #
face $-1 $256 $257 $35 $-1 $258 reversed single #
loop $-1 $-1 $259 $96 #
plane-surface $-1 50.031534421145295 0 -0.44868449682598133 1 0 0 0 0 -1 forward_v I I I I #
coedge $-1 $260 $261 $262 $263 reversed $97 $-1 #
coedge $-1 $264 $99 $265 $266 reversed $62 $-1 #
coedge $-1 $99 $264 $267 $268 reversed $62 $-1 #
coedge $-1 $269 $270 $99 $161 forward $271 $-1 #
edge $-1 $272 -40.270697456000164 $273 40.270697456000164 $160 $274 forward 7 unknown #
face $-1 $275 $276 $36 $-1 $277 reversed single #
loop $-1 $-1 $278 $100 #
plane-surface $-1 -50.031534421145295 115.46004360149834 143.08410900695085 1 0 0 0 -0.85716730853699208 -0.51503806187062418 forward_v I I I I #
coedge $-1 $279 $280 $281 $282 reversed $101 $-1 #
coedge $-1 $167 $103 $283 $284 reversed $65 $-1 #
coedge $-1 $103 $166 $279 $285 reversed $65 $-1 #
coedge $-1 $281 $286 $103 $169 forward $276 $-1 #
edge $-1 $287 57.662447134793759 $288 67.598541312831358 $168 $289 forward 7 unknown #
loop $-1 $-1 $175 $104 #
plane-surface $-1 -38.805702205266442 -1.2111864798330174 72.980963893178341 0 0.85716730853699208 0.51503806187062418 1 0 0 forward_v I I I I #
loop $-1 $-1 $290 $67 #
coedge $-1 $173 $173 $174 $291 reversed $105 $-1 #
coedge $-1 $174 $174 $173 $291 forward $107 $-1 #
coedge $-1 $175 $175 $108 $176 forward $170 $-1 #
edge $-1 $292 -9.2144326944202374e-016 $292 6.2831853071795996 $175 $293 forward 7 unknown #
loop $-1 $-1 $182 $109 #
plane-surface $-1 -38.805702205266442 -1.2111864798330174 72.980963893178341 0 0.85716730853699208 0.51503806187062418 1 0 0 forward_v I I I I #
loop $-1 $-1 $294 $70 #
coedge $-1 $180 $180 $181 $295 reversed $110 $-1 #
coedge $-1 $181 $181 $180 $295 forward $112 $-1 #
coedge $-1 $182 $182 $113 $183 forward $177 $-1 #
edge $-1 $296 -9.2144326944202374e-016 $296 6.2831853071795996 $182 $297 forward 7 unknown #
loop $-1 $-1 $189 $114 #
plane-surface $-1 -38.805702205266442 -1.2111864798330174 72.980963893178341 0 0.85716730853699208 0.51503806187062418 1 0 0 forward_v I I I I #
loop $-1 $-1 $298 $73 #
coedge $-1 $187 $187 $188 $299 reversed $115 $-1 #
coedge $-1 $188 $188 $187 $299 forward $117 $-1 #
coedge $-1 $189 $189 $118 $190 forward $184 $-1 #
edge $-1 $300 -9.2144326944202374e-016 $300 6.2831853071795996 $189 $301 forward 7 unknown #
face $-1 $302 $303 $40 $-1 $304 forward single #
loop $-1 $-1 $305 $119 #
plane-surface $-1 -27.579869989387589 -156.94192753733154 74.046658304416511 -1 0 0 0 -0.85716730853699208 0.51503806187062418 forward_v I I I I #
coedge $-1 $306 $307 $308 $309 reversed $120 $-1 #
coedge $-1 $196 $122 $310 $311 reversed $77 $-1 #
coedge $-1 $122 $195 $306 $312 reversed $77 $-1 #
coedge $-1 $308 $313 $122 $198 forward $314 $-1 #
edge $-1 $315 23.143721783526587 $316 33.079815961564236 $197 $317 forward 7 unknown #
loop $-1 $-1 $204 $123 #
plane-surface $-1 -38.805702205266442 -40.270697456000178 3.9435131906439977 0 -0.85716730853699208 0.51503806187062418 1 0 0 forward_v I I I I #
loop $-1 $-1 $318 $79 #
coedge $-1 $202 $202 $203 $319 reversed $124 $-1 #
coedge $-1 $203 $203 $202 $319 forward $126 $-1 #
coedge $-1 $204 $204 $127 $205 forward $199 $-1 #
edge $-1 $320 0 $320 6.2831853071796004 $204 $321 forward 7 unknown #
loop $-1 $-1 $211 $128 #
plane-surface $-1 -38.805702205266442 -40.270697456000178 3.9435131906439977 0 -0.85716730853699208 0.51503806187062418 1 0 0 forward_v I I I I #
loop $-1 $-1 $322 $82 #
coedge $-1 $209 $209 $210 $323 reversed $129 $-1 #
coedge $-1 $210 $210 $209 $323 forward $131 $-1 #
coedge $-1 $211 $211 $132 $212 forward $206 $-1 #
edge $-1 $324 0 $324 6.2831853071796004 $211 $325 forward 7 unknown #
loop $-1 $-1 $218 $133 #
plane-surface $-1 -38.805702205266442 -40.270697456000178 3.9435131906439977 0 -0.85716730853699208 0.51503806187062418 1 0 0 forward_v I I I I #
loop $-1 $-1 $326 $85 #
coedge $-1 $216 $216 $217 $327 reversed $134 $-1 #
coedge $-1 $217 $217 $216 $327 forward $136 $-1 #
coedge $-1 $218 $218 $137 $219 forward $213 $-1 #
edge $-1 $328 0 $328 6.2831853071796004 $218 $329 forward 7 unknown #
face $-1 $330 $331 $33 $-1 $332 reversed single #
loop $-1 $-1 $333 $138 #
plane-surface $-1 -68.056276131473737 0 0 1 0 0 0 0 -1 forward_v I I I I #
coedge $-1 $334 $231 $335 $336 forward $139 $-1 #
coedge $-1 $337 $141 $334 $338 forward $89 $-1 #
coedge $-1 $141 $337 $339 $340 forward $89 $-1 #
coedge $-1 $234 $233 $141 $227 reversed $235 $-1 #
edge $-1 $341 -40.270697456000164 $342 40.270697456000164 $226 $343 forward 7 unknown #
coedge $-1 $143 $142 $344 $345 forward $56 $-1 #
coedge $-1 $346 $347 $142 $230 reversed $331 $-1 #
edge $-1 $237 -68.056276131473737 $348 68.056276131473737 $229 $349 forward 7 unknown #
coedge $-1 $223 $350 $143 $232 reversed $139 $-1 #
edge $-1 $351 -68.056276131473737 $236 68.056276131473737 $231 $352 forward 7 unknown #
coedge $-1 $226 $144 $350 $353 forward $235 $-1 #
coedge $-1 $144 $226 $346 $354 reversed $235 $-1 #
loop $-1 $-1 $233 $330 #
vertex $-1 $145 $355 #
vertex $-1 $145 $356 #
straight-curve $-1 68.056276131473737 0 13.87960736868167 0 1 0 I I #
face $-1 $357 $358 $34 $-1 $359 reversed single #
loop $-1 $-1 $360 $146 #
plane-surface $-1 0 -40.270697456000164 0 0 1 0 0 0 1 forward_v I I I I #
coedge $-1 $245 $152 $361 $362 reversed $147 $-1 #
coedge $-1 $363 $149 $360 $364 reversed $93 $-1 #
coedge $-1 $149 $363 $365 $366 reversed $93 $-1 #
coedge $-1 $252 $242 $149 $246 reversed $147 $-1 #
edge $-1 $367 -40.270697456000164 $368 40.270697456000164 $245 $369 forward 7 unknown #
coedge $-1 $151 $150 $370 $371 reversed $59 $-1 #
coedge $-1 $372 $373 $150 $249 forward $374 $-1 #
edge $-1 $375 -38.534323493318979 $254 -20.509581782990537 $248 $376 forward 7 unknown #
coedge $-1 $377 $361 $151 $251 forward $240 $-1 #
edge $-1 $253 20.509581782990537 $378 38.534323493318979 $250 $379 forward 7 unknown #
coedge $-1 $152 $245 $372 $380 reversed $147 $-1 #
vertex $-1 $251 $381 #
vertex $-1 $249 $382 #
straight-curve $-1 -50.031534421145295 0 1.5456804244046447 0 1 0 I I #
face $-1 $383 $384 $35 $-1 $385 reversed single #
loop $-1 $-1 $267 $154 #
plane-surface $-1 0 -40.270697456000164 0 0 1 0 0 0 1 forward_v I I I I #
coedge $-1 $386 $387 $388 $389 reversed $155 $-1 #
coedge $-1 $390 $157 $391 $392 reversed $97 $-1 #
coedge $-1 $157 $390 $393 $394 reversed $97 $-1 #
coedge $-1 $270 $269 $157 $263 forward $271 $-1 #
edge $-1 $395 -40.270697456000164 $396 40.270697456000164 $262 $397 forward 7 unknown #
coedge $-1 $159 $158 $387 $398 forward $62 $-1 #
coedge $-1 $399 $388 $158 $266 forward $384 $-1 #
edge $-1 $400 20.509581782990537 $272 38.534323493318979 $265 $401 forward 7 unknown #
coedge $-1 $402 $403 $159 $268 forward $257 $-1 #
edge $-1 $273 -38.534323493318979 $404 -20.509581782990537 $267 $405 forward 7 unknown #
coedge $-1 $262 $160 $403 $406 forward $271 $-1 #
coedge $-1 $160 $262 $399 $407 reversed $271 $-1 #
loop $-1 $-1 $160 $383 #
vertex $-1 $407 $408 #
vertex $-1 $406 $409 #
straight-curve $-1 68.056276131473737 0 1.5456804244046447 0 -1 0 I I #
face $-1 $-1 $410 $36 $-1 $411 forward single #
loop $-1 $-1 $168 $162 #
plane-surface $-1 0 40.270697456000164 0 0 -1 0 0 0 -1 forward_v I I I I #
coedge $-1 $412 $413 $414 $415 reversed $163 $-1 #
coedge $-1 $416 $165 $167 $285 forward $101 $-1 #
coedge $-1 $165 $416 $412 $417 forward $101 $-1 #
coedge $-1 $414 $168 $165 $282 forward $276 $-1 #
edge $-1 $288 8.1770188867543681 $418 30.628683318512074 $281 $419 forward 7 unknown #
coedge $-1 $420 $421 $166 $284 forward $410 $-1 #
edge $-1 $422 -23.429531837560347 $287 -17.459324344749007 $283 $423 forward 7 unknown #
edge $-1 $288 -80.5413949120003 $422 -68.949615711978694 $167 $424 forward 7 unknown #
coedge $-1 $168 $414 $420 $425 reversed $276 $-1 #
vertex $-1 $425 $426 #
vertex $-1 $169 $427 #
straight-curve $-1 -27.579869989387589 40.270697456000164 71.542054503475427 0 0 -1 I I #
coedge $-1 $290 $290 $-1 $428 reversed $172 $-1 #
edge $-1 $429 0 $429 6.2831853071796004 $173 $430 forward 7 unknown #
vertex $-1 $176 $431 #
ellipse-curve $-1 -45.54120153479375 37.285593709594494 8.9115602796628703 0 0.85716730853699208 0.51503806187062418 2 0 0 1 I I #
coedge $-1 $294 $294 $-1 $432 reversed $179 $-1 #
edge $-1 $433 0 $433 6.2831853071796004 $180 $434 forward 7 unknown #
vertex $-1 $183 $435 #
ellipse-curve $-1 -38.805702205266442 37.285593709594494 8.9115602796628703 0 0.85716730853699208 0.51503806187062418 2 0 0 1 I I #
coedge $-1 $298 $298 $-1 $436 reversed $186 $-1 #
edge $-1 $437 0 $437 6.2831853071796004 $187 $438 forward 7 unknown #
vertex $-1 $190 $439 #
ellipse-curve $-1 -32.070202875739128 37.285593709594494 8.9115602796628703 0 0.85716730853699208 0.51503806187062418 2 0 0 1 I I #
face $-1 $-1 $314 $40 $-1 $440 reversed single #
loop $-1 $-1 $441 $191 #
plane-surface $-1 0 0 13.87960736868167 0 0 1 1 0 0 forward_v I I I I #
coedge $-1 $442 $443 $444 $445 reversed $192 $-1 #
coedge $-1 $446 $194 $196 $312 forward $120 $-1 #
coedge $-1 $194 $446 $442 $447 forward $120 $-1 #
coedge $-1 $444 $197 $194 $309 forward $314 $-1 #
edge $-1 $316 -30.628683318512074 $448 -8.1770188867543681 $308 $449 forward 7 unknown #
coedge $-1 $450 $451 $195 $311 forward $303 $-1 #
edge $-1 $452 -44.170473805476973 $315 -38.200266312665605 $310 $453 forward 7 unknown #
edge $-1 $316 2.7494044966190042e-014 $452 11.591779200021685 $196 $454 forward 7 unknown #
coedge $-1 $197 $444 $450 $455 reversed $314 $-1 #
loop $-1 $-1 $444 $302 #
vertex $-1 $455 $456 #
vertex $-1 $198 $457 #
straight-curve $-1 -50.031534421145295 -40.270697456000164 37.023329152208255 0 0 -1 I I #
coedge $-1 $318 $318 $-1 $458 reversed $201 $-1 #
edge $-1 $459 0 $459 6.2831853071796004 $202 $460 forward 7 unknown #
vertex $-1 $205 $461 #
ellipse-curve $-1 -45.54120153479375 -37.28559370959448 8.9115602796628419 0 -0.85716730853699208 0.51503806187062418 2 0 0 1 I I #
coedge $-1 $322 $322 $-1 $462 reversed $208 $-1 #
edge $-1 $463 0 $463 6.2831853071796004 $209 $464 forward 7 unknown #
vertex $-1 $212 $465 #
ellipse-curve $-1 -38.805702205266442 -37.28559370959448 8.9115602796628419 0 -0.85716730853699208 0.51503806187062418 2 0 0 1 I I #
coedge $-1 $326 $326 $-1 $466 reversed $215 $-1 #
edge $-1 $467 0 $467 6.2831853071796004 $216 $468 forward 7 unknown #
vertex $-1 $219 $469 #
ellipse-curve $-1 -32.070202875739128 -37.28559370959448 8.9115602796628419 0 -0.85716730853699208 0.51503806187062418 2 0 0 1 I I #
face $-1 $-1 $235 $33 $-1 $470 reversed single #
loop $-1 $-1 $346 $220 #
plane-surface $-1 0 40.270697456000164 0 0 -1 0 0 0 -1 forward_v I I I I #
coedge $-1 $471 $344 $347 $472 forward $221 $-1 #
coedge $-1 $350 $223 $224 $338 reversed $139 $-1 #
coedge $-1 $344 $471 $223 $336 reversed $221 $-1 #
edge $-1 $351 -13.87960736868167 $473 13.87960736868167 $335 $474 forward 7 unknown #
coedge $-1 $225 $224 $471 $475 forward $89 $-1 #
edge $-1 $342 -68.056276131473737 $473 68.056276131473737 $334 $476 forward 7 unknown #
coedge $-1 $347 $346 $225 $340 reversed $331 $-1 #
edge $-1 $477 -68.056276131473737 $341 68.056276131473737 $339 $478 forward 7 unknown #
vertex $-1 $227 $479 #
vertex $-1 $353 $480 #
straight-curve $-1 68.056276131473737 0 -13.87960736868167 0 -1 0 I I #
coedge $-1 $333 $335 $228 $345 reversed $221 $-1 #
edge $-1 $348 -40.270697456000164 $351 40.270697456000164 $344 $481 forward 7 unknown #
coedge $-1 $339 $229 $234 $354 forward $331 $-1 #
coedge $-1 $229 $339 $333 $472 reversed $331 $-1 #
vertex $-1 $230 $482 #
straight-curve $-1 0 40.270697456000164 13.87960736868167 -1 0 0 I I #
coedge $-1 $231 $334 $233 $353 reversed $139 $-1 #
vertex $-1 $345 $483 #
straight-curve $-1 0 -40.270697456000164 13.87960736868167 1 0 0 I I #
edge $-1 $236 -13.87960736868167 $342 13.87960736868167 $233 $484 forward 7 unknown #
edge $-1 $237 -13.87960736868167 $341 13.87960736868167 $234 $485 forward 7 unknown #
point $-1 68.056276131473737 -40.270697456000164 13.87960736868167 #
point $-1 68.056276131473737 40.270697456000164 13.87960736868167 #
face $-1 $-1 $374 $34 $-1 $486 reversed single #
loop $-1 $-1 $487 $239 #
plane-surface $-1 -68.056276131473737 0 0 1 0 0 0 0 -1 forward_v I I I I #
coedge $-1 $361 $377 $243 $364 forward $240 $-1 #
coedge $-1 $250 $360 $242 $362 forward $240 $-1 #
edge $-1 $368 -2.2187071696436167 $253 1.7700226728176354 $361 $488 forward 7 unknown #
coedge $-1 $244 $243 $487 $489 reversed $93 $-1 #
edge $-1 $490 -38.534323493318979 $368 -20.509581782990537 $360 $491 forward 7 unknown #
coedge $-1 $373 $372 $244 $366 forward $374 $-1 #
edge $-1 $367 20.509581782990537 $492 38.534323493318979 $365 $493 forward 7 unknown #
vertex $-1 $366 $494 #
vertex $-1 $364 $495 #
straight-curve $-1 -50.031534421145295 0 -2.4430494180566074 0 -1 0 I I #
coedge $-1 $496 $497 $247 $371 forward $358 $-1 #
edge $-1 $378 -40.270697456000164 $375 40.270697456000164 $370 $498 forward 7 unknown #
coedge $-1 $365 $248 $252 $380 forward $374 $-1 #
coedge $-1 $248 $365 $496 $499 reversed $374 $-1 #
loop $-1 $-1 $365 $357 #
vertex $-1 $499 $500 #
straight-curve $-1 -29.521952638154758 40.270697456000164 1.5456804244046447 1 0 0 I I #
coedge $-1 $360 $250 $497 $501 forward $240 $-1 #
vertex $-1 $501 $502 #
straight-curve $-1 -29.521952638154758 -40.270697456000164 1.5456804244046447 -1 0 0 I I #
edge $-1 $254 -1.7700226728176354 $367 2.2187071696436167 $372 $503 forward 7 unknown #
point $-1 -50.031534421145295 -40.270697456000164 1.5456804244046447 #
point $-1 -50.031534421145295 40.270697456000164 1.5456804244046447 #
face $-1 $-1 $271 $35 $-1 $504 reversed single #
loop $-1 $-1 $265 $256 #
plane-surface $-1 0 40.270697456000164 0 0 -1 0 0 0 -1 forward_v I I I I #
coedge $-1 $505 $259 $390 $506 reversed $155 $-1 #
coedge $-1 $259 $505 $264 $398 reversed $155 $-1 #
coedge $-1 $265 $393 $259 $389 forward $384 $-1 #
edge $-1 $507 -2.2187071696436167 $400 1.7700226728176354 $388 $508 forward 7 unknown #
coedge $-1 $261 $260 $386 $506 forward $97 $-1 #
coedge $-1 $403 $402 $260 $392 forward $257 $-1 #
edge $-1 $509 20.509581782990537 $395 38.534323493318979 $391 $510 forward 7 unknown #
coedge $-1 $388 $399 $261 $394 forward $384 $-1 #
edge $-1 $396 -38.534323493318979 $507 -20.509581782990537 $393 $511 forward 7 unknown #
vertex $-1 $263 $512 #
vertex $-1 $263 $513 #
straight-curve $-1 68.056276131473737 0 -2.4430494180566074 0 1 0 I I #
edge $-1 $400 -40.270697456000164 $404 40.270697456000164 $387 $514 forward 7 unknown #
coedge $-1 $393 $265 $270 $407 forward $384 $-1 #
vertex $-1 $266 $515 #
straight-curve $-1 29.521952638154758 40.270697456000164 1.5456804244046447 1 0 0 I I #
coedge $-1 $391 $267 $505 $516 forward $257 $-1 #
coedge $-1 $267 $391 $269 $406 reversed $257 $-1 #
vertex $-1 $268 $517 #
straight-curve $-1 29.521952638154758 -40.270697456000164 1.5456804244046447 -1 0 0 I I #
edge $-1 $273 -1.5456804244046447 $395 2.4430494180566074 $269 $518 forward 7 unknown #
edge $-1 $272 -1.5456804244046447 $396 2.4430494180566074 $270 $519 forward 7 unknown #
point $-1 68.056276131473737 40.270697456000164 1.5456804244046447 #
point $-1 68.056276131473737 -40.270697456000164 1.5456804244046447 #
loop $-1 $-1 $283 $275 #
plane-surface $-1 0 0 13.87960736868167 0 0 1 1 0 0 forward_v I I I I #
coedge $-1 $413 $278 $280 $417 reversed $163 $-1 #
coedge $-1 $278 $412 $520 $521 reversed $163 $-1 #
coedge $-1 $286 $281 $278 $415 forward $276 $-1 #
edge $-1 $418 -67.598541312831358 $522 -57.662447134793759 $414 $523 forward 7 unknown #
coedge $-1 $280 $279 $421 $524 reversed $101 $-1 #
edge $-1 $525 68.949615711978694 $418 80.5413949120003 $412 $526 forward 7 unknown #
vertex $-1 $282 $527 #
straight-curve $-1 -19.402851102633221 40.270697456000164 3.9435131906440617 -1 0 0 I I #
coedge $-1 $520 $283 $286 $425 forward $410 $-1 #
coedge $-1 $283 $520 $416 $524 forward $410 $-1 #
vertex $-1 $284 $528 #
straight-curve $-1 -27.579869989387589 57.730021800749171 13.879607368681675 0 1 0 I I #
straight-curve $-1 -27.579869989387589 -1.2111864798330174 72.980963893178341 0 -0.51503806187062418 0.85716730853699208 I I #
edge $-1 $287 27.579869989387589 $522 50.031534421145295 $286 $529 forward 7 unknown #
point $-1 -27.579869989387589 40.270697456000164 13.87960736868167 #
point $-1 -27.579869989387589 40.270697456000164 3.9435131906440688 #
edge $-1 $530 1 $530 0 $290 $-1 forward 7 unknown #
vertex $-1 $291 $531 #
ellipse-curve $-1 -45.54120153479375 30.942602713464261 5.1003069145693898 0 0.85716730853699208 0.51503806187062418 2 0 0 1 I I #
point $-1 -43.54120153479375 37.285593709594473 8.9115602796628597 #
edge $-1 $532 1 $532 0 $294 $-1 forward 7 unknown #
vertex $-1 $295 $533 #
ellipse-curve $-1 -38.805702205266442 30.942602713464261 5.1003069145693898 0 0.85716730853699208 0.51503806187062418 2 0 0 1 I I #
point $-1 -36.805702205266442 37.285593709594473 8.9115602796628597 #
edge $-1 $534 1 $534 0 $298 $-1 forward 7 unknown #
vertex $-1 $299 $535 #
ellipse-curve $-1 -32.070202875739128 30.942602713464261 5.1003069145693898 0 0.85716730853699208 0.51503806187062418 2 0 0 1 I I #
point $-1 -30.070202875739128 37.285593709594473 8.9115602796628597 #
plane-surface $-1 0 -40.270697456000164 0 0 1 0 0 0 1 forward_v I I I I #
coedge $-1 $451 $450 $443 $536 forward $303 $-1 #
coedge $-1 $443 $305 $307 $447 reversed $192 $-1 #
coedge $-1 $305 $442 $441 $536 reversed $192 $-1 #
coedge $-1 $313 $308 $305 $445 forward $314 $-1 #
edge $-1 $448 -33.079815961564236 $537 -23.143721783526587 $444 $538 forward 7 unknown #
coedge $-1 $307 $306 $451 $539 reversed $120 $-1 #
edge $-1 $540 -11.591779200021685 $448 -2.7494044966190042e-014 $442 $541 forward 7 unknown #
vertex $-1 $309 $542 #
straight-curve $-1 -19.402851102633221 -40.270697456000164 3.9435131906440217 1 0 0 I I #
coedge $-1 $441 $310 $313 $455 forward $303 $-1 #
coedge $-1 $310 $441 $446 $539 forward $303 $-1 #
vertex $-1 $311 $543 #
straight-curve $-1 -50.031534421145295 -78.470963768665769 13.879607368681668 0 -1 0 I I #
straight-curve $-1 -50.031534421145295 -40.270697456000178 3.9435131906439977 0 0.51503806187062418 0.85716730853699208 I I #
edge $-1 $315 -50.031534421145295 $537 -27.579869989387589 $313 $544 forward 7 unknown #
point $-1 -50.031534421145295 -40.270697456000164 13.87960736868167 #
point $-1 -50.031534421145295 -40.270697456000164 3.9435131906440213 #
edge $-1 $545 1 $545 0 $318 $-1 forward 7 unknown #
vertex $-1 $319 $546 #
ellipse-curve $-1 -45.54120153479375 -30.942602713464268 5.100306914569372 0 -0.85716730853699208 0.51503806187062418 2 0 0 1 I I #
point $-1 -43.54120153479375 -37.28559370959448 8.9115602796628419 #
edge $-1 $547 1 $547 0 $322 $-1 forward 7 unknown #
vertex $-1 $323 $548 #
ellipse-curve $-1 -38.805702205266442 -30.942602713464268 5.100306914569372 0 -0.85716730853699208 0.51503806187062418 2 0 0 1 I I #
point $-1 -36.805702205266442 -37.28559370959448 8.9115602796628419 #
edge $-1 $549 1 $549 0 $326 $-1 forward 7 unknown #
vertex $-1 $327 $550 #
ellipse-curve $-1 -32.070202875739128 -30.942602713464268 5.100306914569372 0 -0.85716730853699208 0.51503806187062418 2 0 0 1 I I #
point $-1 -30.070202875739128 -37.28559370959448 8.9115602796628419 #
plane-surface $-1 68.056276131473737 0 0 -1 0 0 0 0 1 forward_v I I I I #
coedge $-1 $335 $333 $337 $475 reversed $221 $-1 #
edge $-1 $348 -13.87960736868167 $477 13.87960736868167 $347 $551 forward 7 unknown #
vertex $-1 $475 $552 #
straight-curve $-1 -68.056276131473737 -40.270697456000164 0 0 0 -1 I I #
edge $-1 $473 -40.270697456000164 $477 40.270697456000164 $471 $553 forward 7 unknown #
straight-curve $-1 0 -40.270697456000164 -13.87960736868167 -1 0 0 I I #
vertex $-1 $340 $554 #
straight-curve $-1 0 40.270697456000164 -13.87960736868167 1 0 0 I I #
point $-1 68.056276131473737 40.270697456000164 -13.87960736868167 #
point $-1 68.056276131473737 -40.270697456000164 -13.87960736868167 #
straight-curve $-1 -68.056276131473737 0 13.87960736868167 0 -1 0 I I #
point $-1 -68.056276131473737 40.270697456000164 13.87960736868167 #
point $-1 -68.056276131473737 -40.270697456000164 13.87960736868167 #
straight-curve $-1 68.056276131473737 -40.270697456000164 0 0 0 -1 I I #
straight-curve $-1 68.056276131473737 40.270697456000164 0 0 0 -1 I I #
plane-surface $-1 0 40.270697456000164 0 0 -1 0 0 0 -1 forward_v I I I I #
coedge $-1 $497 $496 $363 $489 forward $358 $-1 #
straight-curve $-1 -50.031534421145295 -40.270697456000164 -0.22434224841299066 0 0 1 I I #
edge $-1 $492 -40.270697456000164 $490 40.270697456000164 $487 $555 forward 7 unknown #
vertex $-1 $364 $556 #
straight-curve $-1 -29.521952638154758 -40.270697456000164 -2.4430494180566074 1 0 0 I I #
vertex $-1 $366 $557 #
straight-curve $-1 -29.521952638154758 40.270697456000164 -2.4430494180566074 -1 0 0 I I #
point $-1 -50.031534421145295 40.270697456000164 -2.4430494180566074 #
point $-1 -50.031534421145295 -40.270697456000164 -2.4430494180566074 #
coedge $-1 $487 $370 $373 $499 forward $358 $-1 #
coedge $-1 $370 $487 $377 $501 reversed $358 $-1 #
straight-curve $-1 -68.056276131473737 0 1.5456804244046447 0 1 0 I I #
edge $-1 $375 -1.5456804244046447 $492 2.4430494180566074 $373 $558 forward 7 unknown #
point $-1 -68.056276131473737 40.270697456000164 1.5456804244046447 #
edge $-1 $378 -1.5456804244046447 $490 2.4430494180566074 $497 $559 forward 7 unknown #
point $-1 -68.056276131473737 -40.270697456000164 1.5456804244046447 #
straight-curve $-1 -50.031534421145295 40.270697456000164 -0.22434224841299066 0 0 -1 I I #
plane-surface $-1 68.056276131473737 0 0 -1 0 0 0 0 1 forward_v I I I I #
coedge $-1 $387 $386 $402 $516 reversed $155 $-1 #
edge $-1 $509 -40.270697456000164 $507 40.270697456000164 $386 $560 forward 7 unknown #
vertex $-1 $394 $561 #
straight-curve $-1 50.031534421145295 40.270697456000164 -0.22434224841299066 0 0 1 I I #
vertex $-1 $392 $562 #
straight-curve $-1 29.521952638154758 -40.270697456000164 -2.4430494180566074 1 0 0 I I #
straight-curve $-1 29.521952638154758 40.270697456000164 -2.4430494180566074 -1 0 0 I I #
point $-1 68.056276131473737 -40.270697456000164 -2.4430494180566074 #
point $-1 68.056276131473737 40.270697456000164 -2.4430494180566074 #
straight-curve $-1 50.031534421145295 0 1.5456804244046447 0 -1 0 I I #
point $-1 50.031534421145295 40.270697456000164 1.5456804244046447 #
edge $-1 $404 -1.7700226728176354 $509 2.2187071696436167 $402 $563 forward 7 unknown #
point $-1 50.031534421145295 -40.270697456000164 1.5456804244046447 #
straight-curve $-1 68.056276131473737 -40.270697456000164 0 0 0 -1 I I #
straight-curve $-1 68.056276131473737 40.270697456000164 0 0 0 -1 I I #
coedge $-1 $421 $420 $413 $521 forward $410 $-1 #
edge $-1 $522 17.459324344749007 $525 23.429531837560347 $520 $564 forward 7 unknown #
vertex $-1 $521 $565 #
straight-curve $-1 -50.031534421145295 40.270697456000164 71.542054503475427 0 0 1 I I #
edge $-1 $525 -30.628683318512074 $422 -8.1770188867543681 $421 $566 forward 7 unknown #
vertex $-1 $524 $567 #
straight-curve $-1 -50.031534421145295 -1.2111864798330174 72.980963893178341 0 0.51503806187062418 -0.85716730853699208 I I #
point $-1 -50.031534421145295 40.270697456000164 3.9435131906440688 #
point $-1 -27.579869989387589 34.300489963188824 13.879607368681668 #
straight-curve $-1 0 40.270697456000164 13.87960736868167 -1 0 0 I I #
vertex $-1 $428 $568 #
point $-1 -43.54120153479375 30.942602713464261 5.1003069145693898 #
vertex $-1 $432 $569 #
point $-1 -36.805702205266442 30.942602713464261 5.1003069145693898 #
vertex $-1 $436 $570 #
point $-1 -30.070202875739128 30.942602713464261 5.1003069145693898 #
edge $-1 $537 38.200266312665605 $540 44.170473805476973 $441 $571 forward 7 unknown #
vertex $-1 $445 $572 #
straight-curve $-1 -27.579869989387589 -40.270697456000164 37.023329152208255 0 0 1 I I #
edge $-1 $540 8.1770188867543681 $452 30.628683318512074 $451 $573 forward 7 unknown #
vertex $-1 $539 $574 #
straight-curve $-1 -27.579869989387589 -40.270697456000178 3.9435131906439977 0 -0.51503806187062418 -0.85716730853699208 I I #
point $-1 -27.579869989387589 -40.270697456000164 3.9435131906440213 #
point $-1 -50.031534421145295 -34.300489963188795 13.87960736868167 #
straight-curve $-1 0 -40.270697456000164 13.87960736868167 1 0 0 I I #
vertex $-1 $458 $575 #
point $-1 -43.54120153479375 -30.942602713464268 5.100306914569372 #
vertex $-1 $462 $576 #
point $-1 -36.805702205266442 -30.942602713464268 5.100306914569372 #
vertex $-1 $466 $577 #
point $-1 -30.070202875739128 -30.942602713464268 5.100306914569372 #
straight-curve $-1 -68.056276131473737 40.270697456000164 0 0 0 -1 I I #
point $-1 -68.056276131473737 -40.270697456000164 -13.87960736868167 #
straight-curve $-1 -68.056276131473737 0 -13.87960736868167 0 1 0 I I #
point $-1 -68.056276131473737 40.270697456000164 -13.87960736868167 #
straight-curve $-1 -68.056276131473737 0 -2.4430494180566074 0 -1 0 I I #
point $-1 -68.056276131473737 -40.270697456000164 -2.4430494180566074 #
point $-1 -68.056276131473737 40.270697456000164 -2.4430494180566074 #
straight-curve $-1 -68.056276131473737 40.270697456000164 0 0 0 -1 I I #
straight-curve $-1 -68.056276131473737 -40.270697456000164 0 0 0 -1 I I #
straight-curve $-1 50.031534421145295 0 -2.4430494180566074 0 1 0 I I #
point $-1 50.031534421145295 40.270697456000164 -2.4430494180566074 #
point $-1 50.031534421145295 -40.270697456000164 -2.4430494180566074 #
straight-curve $-1 50.031534421145295 -40.270697456000164 -0.22434224841299066 0 0 -1 I I #
straight-curve $-1 -50.031534421145295 57.730021800749171 13.879607368681675 0 -1 0 I I #
point $-1 -50.031534421145295 40.270697456000164 13.87960736868167 #
straight-curve $-1 -19.402851102633221 34.300489963188824 13.879607368681668 1 0 0 I I #
point $-1 -50.031534421145295 34.300489963188824 13.879607368681668 #
point $-1 -45.54120153479375 29.228268096390273 4.0702307908281421 #
point $-1 -38.805702205266442 29.228268096390273 4.0702307908281421 #
point $-1 -32.070202875739128 29.228268096390273 4.0702307908281421 #
straight-curve $-1 -27.579869989387589 -78.470963768665769 13.879607368681668 0 1 0 I I #
point $-1 -27.579869989387589 -40.270697456000164 13.87960736868167 #
straight-curve $-1 -19.402851102633221 -34.300489963188795 13.87960736868167 -1 0 0 I I #
point $-1 -27.579869989387589 -34.300489963188795 13.87960736868167 #
point $-1 -45.54120153479375 -29.228268096390281 4.0702307908281243 #
point $-1 -38.805702205266442 -29.228268096390281 4.0702307908281243 #
point $-1 -32.070202875739128 -29.228268096390281 4.0702307908281243 #
End-of-ACIS-data 