500 0 17 0           
7 Unknown 11 ACIS 5.0 NT 24 Fri Mar 26 01:23:05 1999 
-1 9.9999999999999995e-007 1e-010 
body $-1 $17 $-1 $18 #
body $-1 $19 $-1 $20 #
body $-1 $21 $-1 $22 #
body $-1 $23 $-1 $24 #
body $-1 $25 $-1 $26 #
body $-1 $27 $-1 $28 #
body $-1 $29 $-1 $30 #
body $-1 $31 $-1 $32 #
body $-1 $33 $-1 $34 #
body $-1 $35 $-1 $36 #
body $-1 $37 $-1 $38 #
body $-1 $39 $-1 $40 #
body $-1 $41 $-1 $42 #
body $-1 $43 $-1 $44 #
body $-1 $45 $-1 $46 #
body $-1 $47 $-1 $48 #
body $-1 $49 $-1 $50 #
lump $-1 $-1 $51 $0 #
transform $-1 1 0 0 0 1 0 0 0 1 52.163457136753443 27.808995360984447 8.7377633789651608 1 rotate no_reflect no_shear #
lump $-1 $-1 $52 $1 #
transform $-1 1 0 0 0 1 0 0 0 1 52.163457136753443 27.808995360984447 8.7377633789651608 1 rotate no_reflect no_shear #
lump $-1 $-1 $53 $2 #
transform $-1 1 0 0 0 1 0 0 0 1 52.163457136753443 27.808995360984447 8.7377633789651608 1 rotate no_reflect no_shear #
lump $-1 $-1 $54 $3 #
transform $-1 1 0 0 0 1 0 0 0 1 52.163457136753443 27.808995360984447 8.7377633789651608 1 rotate no_reflect no_shear #
lump $-1 $-1 $55 $4 #
transform $-1 1 0 0 0 1 0 0 0 1 52.163457136753443 27.808995360984447 8.7377633789651608 1 rotate no_reflect no_shear #
lump $-1 $-1 $56 $5 #
transform $-1 1 0 0 0 1 0 0 0 1 52.163457136753443 27.808995360984447 8.7377633789651608 1 rotate no_reflect no_shear #
lump $-1 $-1 $57 $6 #
transform $-1 1 0 0 0 1 0 0 0 1 52.163457136753443 27.808995360984447 8.7377633789651608 1 rotate no_reflect no_shear #
lump $-1 $-1 $58 $7 #
transform $-1 1 0 0 0 1 0 0 0 1 52.163457136753443 27.808995360984447 8.7377633789651608 1 rotate no_reflect no_shear #
lump $-1 $-1 $59 $8 #
transform $-1 1 0 0 0 1 0 0 0 1 52.163457136753443 27.808995360984447 8.7377633789651608 1 rotate no_reflect no_shear #
lump $-1 $-1 $60 $9 #
transform $-1 1 0 0 0 1 0 0 0 1 52.163457136753443 27.808995360984447 8.7377633789651608 1 rotate no_reflect no_shear #
lump $-1 $-1 $61 $10 #
transform $-1 1 0 0 0 1 0 0 0 1 52.163457136753443 27.808995360984447 8.7377633789651608 1 rotate no_reflect no_shear #
lump $-1 $-1 $62 $11 #
transform $-1 1 0 0 0 1 0 0 0 1 52.163457136753443 27.808995360984447 8.7377633789651608 1 rotate no_reflect no_shear #
lump $-1 $-1 $63 $12 #
transform $-1 1 0 0 0 1 0 0 0 1 52.163457136753443 27.808995360984447 8.7377633789651608 1 rotate no_reflect no_shear #
lump $-1 $-1 $64 $13 #
transform $-1 1 0 0 0 1 0 0 0 1 52.163457136753443 27.808995360984447 8.7377633789651608 1 rotate no_reflect no_shear #
lump $-1 $-1 $65 $14 #
transform $-1 1 0 0 0 1 0 0 0 1 52.163457136753443 27.808995360984447 8.7377633789651608 1 rotate no_reflect no_shear #
lump $-1 $-1 $66 $15 #
transform $-1 1 0 0 0 1 0 0 0 1 52.163457136753443 27.808995360984447 8.7377633789651608 1 rotate no_reflect no_shear #
lump $-1 $-1 $67 $16 #
transform $-1 1 0 0 0 1 0 0 0 1 52.163457136753443 27.808995360984447 8.7377633789651608 1 rotate no_reflect no_shear #
shell $-1 $-1 $-1 $68 $-1 $17 #
shell $-1 $-1 $-1 $69 $-1 $19 #
shell $-1 $-1 $-1 $70 $-1 $21 #
shell $-1 $-1 $-1 $71 $-1 $23 #
shell $-1 $-1 $-1 $72 $-1 $25 #
shell $-1 $-1 $-1 $73 $-1 $27 #
shell $-1 $-1 $-1 $74 $-1 $29 #
shell $-1 $-1 $-1 $75 $-1 $31 #
shell $-1 $-1 $-1 $76 $-1 $33 #
shell $-1 $-1 $-1 $77 $-1 $35 #
shell $-1 $-1 $-1 $78 $-1 $37 #
shell $-1 $-1 $-1 $79 $-1 $39 #
shell $-1 $-1 $-1 $80 $-1 $41 #
shell $-1 $-1 $-1 $81 $-1 $43 #
shell $-1 $-1 $-1 $82 $-1 $45 #
shell $-1 $-1 $-1 $83 $-1 $47 #
shell $-1 $-1 $-1 $84 $-1 $49 #
face $-1 $85 $86 $51 $-1 $87 forward single #
face $-1 $88 $89 $52 $-1 $90 forward single #
face $-1 $91 $92 $53 $-1 $93 reversed single #
face $-1 $94 $95 $54 $-1 $96 forward single #
face $-1 $97 $98 $55 $-1 $99 forward single #
face $-1 $100 $101 $56 $-1 $102 reversed single #
face $-1 $103 $104 $57 $-1 $105 forward single #
face $-1 $106 $107 $58 $-1 $108 forward single #
face $-1 $109 $110 $59 $-1 $111 reversed single #
face $-1 $112 $113 $60 $-1 $114 forward single #
face $-1 $115 $116 $61 $-1 $117 forward single #
face $-1 $118 $119 $62 $-1 $120 reversed single #
face $-1 $121 $122 $63 $-1 $123 forward single #
face $-1 $124 $125 $64 $-1 $126 forward single #
face $-1 $127 $128 $65 $-1 $129 reversed single #
face $-1 $130 $131 $66 $-1 $132 forward single #
face $-1 $133 $134 $67 $-1 $135 forward single #
face $-1 $136 $137 $51 $-1 $138 reversed single #
loop $-1 $-1 $139 $68 #
plane-surface $-1 0 0 8.7377633789651608 0 0 1 1 0 0 forward_v I I I I #
face $-1 $140 $141 $52 $-1 $142 reversed single #
loop $-1 $-1 $143 $69 #
plane-surface $-1 0 -27.808995360984447 0 0 1 0 0 0 1 forward_v I I I I #
face $-1 $144 $145 $53 $-1 $146 reversed single #
loop $-1 $-1 $147 $70 #
plane-surface $-1 -119.22350581282893 -14.825535790849589 84.269785276801684 0 1 0 -0.64278761758704617 0 0.76604443648966558 forward_v I I I I #
face $-1 $148 $149 $54 $-1 $150 forward single #
loop $-1 $151 $152 $71 #
cone-surface $-1 -49.227933788016955 -12.891150014519248 6.1612259819614694 0.64278761758704617 0 -0.76604443648966558 0.1915111091224164 0 0.16069690439676154 1 I I 0 1 0.25 forward I I I I #
face $-1 $153 $154 $55 $-1 $155 forward single #
loop $-1 $156 $157 $72 #
cone-surface $-1 -49.227933788016955 -9.9895713500237378 6.1612259819614694 0.64278761758704617 0 -0.76604443648966558 0.1915111091224164 0 0.16069690439676154 1 I I 0 1 0.25 forward I I I I #
face $-1 $158 $159 $56 $-1 $160 reversed single #
loop $-1 $-1 $161 $73 #
plane-surface $-1 -119.22350581282893 -3.6590817443820782 84.269785276801684 0 1 0 -0.64278761758704617 0 0.76604443648966558 forward_v I I I I #
face $-1 $162 $163 $57 $-1 $164 forward single #
loop $-1 $165 $166 $74 #
cone-surface $-1 -49.227933788016955 -1.7246959680517371 6.1612259819614694 0.64278761758704617 0 -0.76604443648966558 0.1915111091224164 0 0.16069690439676154 1 I I 0 1 0.25 forward I I I I #
face $-1 $167 $168 $58 $-1 $169 forward single #
loop $-1 $170 $171 $75 #
cone-surface $-1 -49.227933788016955 1.1768826964437729 6.1612259819614694 0.64278761758704617 0 -0.76604443648966558 0.1915111091224164 0 0.16069690439676154 1 I I 0 1 0.25 forward I I I I #
face $-1 $172 $173 $59 $-1 $174 reversed single #
loop $-1 $-1 $175 $76 #
plane-surface $-1 -119.22350581282893 7.5073723020854359 84.269785276801684 0 1 0 -0.64278761758704617 0 0.76604443648966558 forward_v I I I I #
face $-1 $176 $177 $60 $-1 $178 forward single #
loop $-1 $179 $180 $77 #
cone-surface $-1 -49.227933788016955 9.4417580784157735 6.1612259819614694 0.64278761758704617 0 -0.76604443648966558 0.1915111091224164 0 0.16069690439676154 1 I I 0 1 0.25 forward I I I I #
face $-1 $181 $182 $61 $-1 $183 forward single #
loop $-1 $184 $185 $78 #
cone-surface $-1 -49.227933788016955 12.343336742911283 6.1612259819614694 0.64278761758704617 0 -0.76604443648966558 0.1915111091224164 0 0.16069690439676154 1 I I 0 1 0.25 forward I I I I #
face $-1 $186 $187 $62 $-1 $188 reversed single #
loop $-1 $-1 $189 $79 #
plane-surface $-1 -119.22350581282893 18.673826348552943 84.269785276801684 0 1 0 -0.64278761758704617 0 0.76604443648966558 forward_v I I I I #
face $-1 $190 $191 $63 $-1 $192 forward single #
loop $-1 $193 $194 $80 #
cone-surface $-1 -49.227933788016955 20.608212124883288 6.1612259819614694 0.64278761758704617 0 -0.76604443648966558 0.1915111091224164 0 0.16069690439676154 1 I I 0 1 0.25 forward I I I I #
face $-1 $195 $196 $64 $-1 $197 forward single #
loop $-1 $198 $199 $81 #
cone-surface $-1 -49.227933788016955 23.509790789378791 6.1612259819614694 0.64278761758704617 0 -0.76604443648966558 0.1915111091224164 0 0.16069690439676154 1 I I 0 1 0.25 forward I I I I #
face $-1 $200 $201 $65 $-1 $202 reversed single #
loop $-1 $-1 $203 $82 #
plane-surface $-1 36.741273000929347 4.612648130167095 150.5300367431235 0 -1 0 -0.62932039886446345 0 -0.77714595512881146 forward_v I I I I #
face $-1 $204 $205 $66 $-1 $206 forward single #
loop $-1 $207 $208 $83 #
cone-surface $-1 48.451584854255906 -2.1867062744674435 5.4506667409476437 -0.62932039886446345 0 -0.77714595512881146 0.77714595512881146 0 -0.62932039886446345 1 I I 0 1 1 forward I I I I #
face $-1 $209 $210 $67 $-1 $211 forward single #
loop $-1 $212 $213 $84 #
cone-surface $-1 48.451584854255906 1.8929063683132767 5.4506667409476437 -0.62932039886446345 0 -0.77714595512881146 0.77714595512881146 0 -0.62932039886446345 1 I I 0 1 1 forward I I I I #
face $-1 $214 $215 $51 $-1 $216 reversed single #
loop $-1 $-1 $217 $85 #
plane-surface $-1 0 0 -8.7377633789651608 0 0 1 1 0 0 forward_v I I I I #
coedge $-1 $218 $219 $220 $221 forward $86 $-1 #
face $-1 $222 $223 $52 $-1 $224 forward single #
loop $-1 $-1 $225 $88 #
plane-surface $-1 -52.163457136753443 0 0 1 0 0 0 0 -1 forward_v I I I I #
coedge $-1 $226 $227 $228 $229 forward $89 $-1 #
face $-1 $230 $231 $53 $-1 $232 reversed single #
loop $-1 $-1 $233 $91 #
plane-surface $-1 -52.163457136753436 -11.440360682271493 4.3507330214474536 -0.64278761758704617 0 0.76604443648966558 0.76604443648966558 0 0.64278761758704617 forward_v I I I I #
coedge $-1 $234 $235 $236 $237 reversed $92 $-1 #
face $-1 $-1 $238 $54 $-1 $239 forward single #
loop $-1 $240 $241 $94 #
cone-surface $-1 -48.826191527025053 -12.891150014519248 5.682448209155428 0.64278761758704617 0 -0.76604443648966558 0.095755554561208198 0 0.080348452198380771 1 I I -0.70710678118654746 0.70710678118654746 0.125 forward I I I I #
loop $-1 $-1 $242 $71 #
coedge $-1 $152 $152 $243 $244 reversed $95 $-1 #
face $-1 $-1 $245 $55 $-1 $246 forward single #
loop $-1 $247 $248 $97 #
cone-surface $-1 -48.826191527025053 -9.9895713500237378 5.682448209155428 0.64278761758704617 0 -0.76604443648966558 0.095755554561208198 0 0.080348452198380771 1 I I -0.70710678118654746 0.70710678118654746 0.125 forward I I I I #
loop $-1 $-1 $249 $72 #
coedge $-1 $157 $157 $250 $251 reversed $98 $-1 #
face $-1 $252 $253 $56 $-1 $254 reversed single #
loop $-1 $-1 $255 $100 #
plane-surface $-1 -52.163457136753436 -0.27390663580398211 4.3507330214474536 -0.64278761758704617 0 0.76604443648966558 0.76604443648966558 0 0.64278761758704617 forward_v I I I I #
coedge $-1 $256 $257 $258 $259 reversed $101 $-1 #
face $-1 $-1 $260 $57 $-1 $261 forward single #
loop $-1 $262 $263 $103 #
cone-surface $-1 -48.826191527025053 -1.7246959680517371 5.682448209155428 0.64278761758704617 0 -0.76604443648966558 0.095755554561208198 0 0.080348452198380771 1 I I -0.70710678118654746 0.70710678118654746 0.125 forward I I I I #
loop $-1 $-1 $264 $74 #
coedge $-1 $166 $166 $265 $266 reversed $104 $-1 #
face $-1 $-1 $267 $58 $-1 $268 forward single #
loop $-1 $269 $270 $106 #
cone-surface $-1 -48.826191527025053 1.1768826964437729 5.682448209155428 0.64278761758704617 0 -0.76604443648966558 0.095755554561208198 0 0.080348452198380771 1 I I -0.70710678118654746 0.70710678118654746 0.125 forward I I I I #
loop $-1 $-1 $271 $75 #
coedge $-1 $171 $171 $272 $273 reversed $107 $-1 #
face $-1 $274 $275 $59 $-1 $276 reversed single #
loop $-1 $-1 $277 $109 #
plane-surface $-1 -52.163457136753436 10.892547410663532 4.3507330214474536 -0.64278761758704617 0 0.76604443648966558 0.76604443648966558 0 0.64278761758704617 forward_v I I I I #
coedge $-1 $278 $279 $280 $281 reversed $110 $-1 #
face $-1 $-1 $282 $60 $-1 $283 forward single #
loop $-1 $284 $285 $112 #
cone-surface $-1 -48.826191527025053 9.4417580784157735 5.682448209155428 0.64278761758704617 0 -0.76604443648966558 0.095755554561208198 0 0.080348452198380771 1 I I -0.70710678118654746 0.70710678118654746 0.125 forward I I I I #
loop $-1 $-1 $286 $77 #
coedge $-1 $180 $180 $287 $288 reversed $113 $-1 #
face $-1 $-1 $289 $61 $-1 $290 forward single #
loop $-1 $291 $292 $115 #
cone-surface $-1 -48.826191527025053 12.343336742911283 5.682448209155428 0.64278761758704617 0 -0.76604443648966558 0.095755554561208198 0 0.080348452198380771 1 I I -0.70710678118654746 0.70710678118654746 0.125 forward I I I I #
loop $-1 $-1 $293 $78 #
coedge $-1 $185 $185 $294 $295 reversed $116 $-1 #
face $-1 $296 $297 $62 $-1 $298 reversed single #
loop $-1 $-1 $299 $118 #
plane-surface $-1 -52.163457136753436 22.059001457131039 4.3507330214474536 -0.64278761758704617 0 0.76604443648966558 0.76604443648966558 0 0.64278761758704617 forward_v I I I I #
coedge $-1 $300 $301 $302 $303 reversed $119 $-1 #
face $-1 $-1 $304 $63 $-1 $305 forward single #
loop $-1 $306 $307 $121 #
cone-surface $-1 -48.826191527025053 20.608212124883288 5.682448209155428 0.64278761758704617 0 -0.76604443648966558 0.095755554561208198 0 0.080348452198380771 1 I I -0.70710678118654746 0.70710678118654746 0.125 forward I I I I #
loop $-1 $-1 $308 $80 #
coedge $-1 $194 $194 $309 $310 reversed $122 $-1 #
face $-1 $-1 $311 $64 $-1 $312 forward single #
loop $-1 $313 $314 $124 #
cone-surface $-1 -48.826191527025053 23.509790789378791 5.682448209155428 0.64278761758704617 0 -0.76604443648966558 0.095755554561208198 0 0.080348452198380771 1 I I -0.70710678118654746 0.70710678118654746 0.125 forward I I I I #
loop $-1 $-1 $315 $81 #
coedge $-1 $199 $199 $316 $317 reversed $125 $-1 #
face $-1 $318 $319 $65 $-1 $320 reversed single #
loop $-1 $-1 $321 $127 #
plane-surface $-1 -28.913782301972695 -0.14689995307708159 69.452797304397365 0.62932039886446345 0 0.77714595512881146 0.77714595512881146 0 -0.62932039886446345 forward_v I I I I #
coedge $-1 $322 $323 $324 $325 reversed $128 $-1 #
face $-1 $-1 $326 $66 $-1 $327 forward single #
loop $-1 $328 $329 $130 #
cone-surface $-1 47.4752614857426 -2.1867062744674435 4.2450078141006475 -0.62932039886446345 0 -0.77714595512881146 0.38857297756440573 0 -0.31466019943223172 1 I I -0.70710678118654746 0.70710678118654746 0.5 forward I I I I #
loop $-1 $-1 $330 $83 #
coedge $-1 $208 $208 $331 $332 reversed $131 $-1 #
face $-1 $-1 $333 $67 $-1 $334 forward single #
loop $-1 $335 $336 $133 #
cone-surface $-1 47.4752614857426 1.8929063683132767 4.2450078141006475 -0.62932039886446345 0 -0.77714595512881146 0.38857297756440573 0 -0.31466019943223172 1 I I -0.70710678118654746 0.70710678118654746 0.5 forward I I I I #
loop $-1 $-1 $337 $84 #
coedge $-1 $213 $213 $338 $339 reversed $134 $-1 #
face $-1 $340 $341 $51 $-1 $342 reversed single #
loop $-1 $-1 $343 $136 #
plane-surface $-1 0 -27.808995360984447 0 0 1 0 0 0 1 forward_v I I I I #
coedge $-1 $344 $345 $346 $347 forward $137 $-1 #
coedge $-1 $348 $139 $349 $350 forward $86 $-1 #
coedge $-1 $139 $348 $351 $352 forward $86 $-1 #
coedge $-1 $353 $354 $139 $221 reversed $355 $-1 #
edge $-1 $356 -27.808995360984447 $357 27.808995360984447 $220 $358 forward 7 unknown #
face $-1 $359 $360 $52 $-1 $361 reversed single #
loop $-1 $-1 $362 $140 #
plane-surface $-1 0 -33.285082629033873 -1.4566660423953852 0 0 1 1 0 0 forward_v I I I I #
coedge $-1 $363 $364 $227 $365 forward $141 $-1 #
coedge $-1 $366 $143 $367 $368 reversed $89 $-1 #
coedge $-1 $143 $366 $225 $365 reversed $89 $-1 #
coedge $-1 $369 $362 $143 $229 reversed $223 $-1 #
edge $-1 $370 -52.163457136753443 $371 52.163457136753443 $228 $372 forward 7 unknown #
face $-1 $373 $374 $53 $-1 $375 forward single #
loop $-1 $-1 $376 $144 #
plane-surface $-1 -119.22350581282893 -8.0551855736933966 84.269785276801684 0 -1 0 0.64278761758704617 0 -0.76604443648966558 forward_v I I I I #
coedge $-1 $377 $378 $379 $380 reversed $145 $-1 #
coedge $-1 $235 $147 $381 $382 reversed $92 $-1 #
coedge $-1 $147 $234 $377 $383 reversed $92 $-1 #
coedge $-1 $379 $384 $147 $237 forward $374 $-1 #
edge $-1 $385 7.4482957696610228 $386 12.676554849546946 $236 $387 forward 7 unknown #
loop $-1 $-1 $243 $148 #
plane-surface $-1 -52.163457136753436 -11.440360682271493 4.3507330214474536 -0.64278761758704617 0 0.76604443648966558 0.76604443648966558 0 0.64278761758704617 forward_v I I I I #
loop $-1 $-1 $388 $94 #
coedge $-1 $241 $241 $242 $389 reversed $149 $-1 #
coedge $-1 $242 $242 $241 $389 forward $151 $-1 #
coedge $-1 $243 $243 $152 $244 forward $238 $-1 #
edge $-1 $390 0 $390 6.2831853071796004 $243 $391 forward 7 unknown #
loop $-1 $-1 $250 $153 #
plane-surface $-1 -52.163457136753436 -11.440360682271493 4.3507330214474536 -0.64278761758704617 0 0.76604443648966558 0.76604443648966558 0 0.64278761758704617 forward_v I I I I #
loop $-1 $-1 $392 $97 #
coedge $-1 $248 $248 $249 $393 reversed $154 $-1 #
coedge $-1 $249 $249 $248 $393 forward $156 $-1 #
coedge $-1 $250 $250 $157 $251 forward $245 $-1 #
edge $-1 $394 0 $394 6.2831853071796004 $250 $395 forward 7 unknown #
face $-1 $396 $397 $56 $-1 $398 forward single #
loop $-1 $-1 $399 $158 #
plane-surface $-1 -119.22350581282893 3.111268472774114 84.269785276801684 0 -1 0 0.64278761758704617 0 -0.76604443648966558 forward_v I I I I #
coedge $-1 $400 $401 $402 $403 reversed $159 $-1 #
coedge $-1 $257 $161 $404 $405 reversed $101 $-1 #
coedge $-1 $161 $256 $400 $406 reversed $101 $-1 #
coedge $-1 $402 $407 $161 $259 forward $397 $-1 #
edge $-1 $408 7.4482957696610228 $409 12.676554849546946 $258 $410 forward 7 unknown #
loop $-1 $-1 $265 $162 #
plane-surface $-1 -52.163457136753436 -0.27390663580398211 4.3507330214474536 -0.64278761758704617 0 0.76604443648966558 0.76604443648966558 0 0.64278761758704617 forward_v I I I I #
loop $-1 $-1 $411 $103 #
coedge $-1 $263 $263 $264 $412 reversed $163 $-1 #
coedge $-1 $264 $264 $263 $412 forward $165 $-1 #
coedge $-1 $265 $265 $166 $266 forward $260 $-1 #
edge $-1 $413 0 $413 6.2831853071796004 $265 $414 forward 7 unknown #
loop $-1 $-1 $272 $167 #
plane-surface $-1 -52.163457136753436 -0.27390663580398211 4.3507330214474536 -0.64278761758704617 0 0.76604443648966558 0.76604443648966558 0 0.64278761758704617 forward_v I I I I #
loop $-1 $-1 $415 $106 #
coedge $-1 $270 $270 $271 $416 reversed $168 $-1 #
coedge $-1 $271 $271 $270 $416 forward $170 $-1 #
coedge $-1 $272 $272 $171 $273 forward $267 $-1 #
edge $-1 $417 0 $417 6.2831853071796004 $272 $418 forward 7 unknown #
face $-1 $419 $420 $59 $-1 $421 forward single #
loop $-1 $-1 $422 $172 #
plane-surface $-1 -119.22350581282893 14.277722519241628 84.269785276801684 0 -1 0 0.64278761758704617 0 -0.76604443648966558 forward_v I I I I #
coedge $-1 $423 $424 $425 $426 reversed $173 $-1 #
coedge $-1 $279 $175 $427 $428 reversed $110 $-1 #
coedge $-1 $175 $278 $423 $429 reversed $110 $-1 #
coedge $-1 $425 $430 $175 $281 forward $420 $-1 #
edge $-1 $431 7.4482957696610228 $432 12.676554849546946 $280 $433 forward 7 unknown #
loop $-1 $-1 $287 $176 #
plane-surface $-1 -52.163457136753436 10.892547410663532 4.3507330214474536 -0.64278761758704617 0 0.76604443648966558 0.76604443648966558 0 0.64278761758704617 forward_v I I I I #
loop $-1 $-1 $434 $112 #
coedge $-1 $285 $285 $286 $435 reversed $177 $-1 #
coedge $-1 $286 $286 $285 $435 forward $179 $-1 #
coedge $-1 $287 $287 $180 $288 forward $282 $-1 #
edge $-1 $436 0 $436 6.2831853071796004 $287 $437 forward 7 unknown #
loop $-1 $-1 $294 $181 #
plane-surface $-1 -52.163457136753436 10.892547410663532 4.3507330214474536 -0.64278761758704617 0 0.76604443648966558 0.76604443648966558 0 0.64278761758704617 forward_v I I I I #
loop $-1 $-1 $438 $115 #
coedge $-1 $292 $292 $293 $439 reversed $182 $-1 #
coedge $-1 $293 $293 $292 $439 forward $184 $-1 #
coedge $-1 $294 $294 $185 $295 forward $289 $-1 #
edge $-1 $440 0 $440 6.2831853071796004 $294 $441 forward 7 unknown #
face $-1 $442 $443 $62 $-1 $444 forward single #
loop $-1 $-1 $445 $186 #
plane-surface $-1 -119.22350581282893 25.444176565709135 84.269785276801684 0 -1 0 0.64278761758704617 0 -0.76604443648966558 forward_v I I I I #
coedge $-1 $446 $447 $448 $449 reversed $187 $-1 #
coedge $-1 $301 $189 $450 $451 reversed $119 $-1 #
coedge $-1 $189 $300 $446 $452 reversed $119 $-1 #
coedge $-1 $448 $453 $189 $303 forward $443 $-1 #
edge $-1 $454 7.4482957696610228 $455 12.676554849546946 $302 $456 forward 7 unknown #
loop $-1 $-1 $309 $190 #
plane-surface $-1 -52.163457136753436 22.059001457131039 4.3507330214474536 -0.64278761758704617 0 0.76604443648966558 0.76604443648966558 0 0.64278761758704617 forward_v I I I I #
loop $-1 $-1 $457 $121 #
coedge $-1 $307 $307 $308 $458 reversed $191 $-1 #
coedge $-1 $308 $308 $307 $458 forward $193 $-1 #
coedge $-1 $309 $309 $194 $310 forward $304 $-1 #
edge $-1 $459 0 $459 6.2831853071796004 $309 $460 forward 7 unknown #
loop $-1 $-1 $316 $195 #
plane-surface $-1 -52.163457136753436 22.059001457131039 4.3507330214474536 -0.64278761758704617 0 0.76604443648966558 0.76604443648966558 0 0.64278761758704617 forward_v I I I I #
loop $-1 $-1 $461 $124 #
coedge $-1 $314 $314 $315 $462 reversed $196 $-1 #
coedge $-1 $315 $315 $314 $462 forward $198 $-1 #
coedge $-1 $316 $316 $199 $317 forward $311 $-1 #
edge $-1 $463 0 $463 6.2831853071796004 $316 $464 forward 7 unknown #
face $-1 $465 $466 $65 $-1 $467 reversed single #
loop $-1 $-1 $468 $200 #
plane-surface $-1 36.741273000929347 -4.9064480363212581 150.5300367431235 0 1 0 0.62932039886446345 0 0.77714595512881146 forward_v I I I I #
coedge $-1 $469 $470 $471 $472 reversed $201 $-1 #
coedge $-1 $323 $203 $473 $474 reversed $128 $-1 #
coedge $-1 $203 $322 $469 $475 reversed $128 $-1 #
coedge $-1 $471 $476 $203 $325 forward $477 $-1 #
edge $-1 $478 -33.792820636288766 $479 -27.692402409455841 $324 $480 forward 7 unknown #
loop $-1 $-1 $331 $204 #
plane-surface $-1 -28.913782301972695 -0.14689995307708159 69.452797304397365 0.62932039886446345 0 0.77714595512881146 0.77714595512881146 0 -0.62932039886446345 forward_v I I I I #
loop $-1 $-1 $481 $130 #
coedge $-1 $329 $329 $330 $482 reversed $205 $-1 #
coedge $-1 $330 $330 $329 $482 forward $207 $-1 #
coedge $-1 $331 $331 $208 $332 forward $326 $-1 #
edge $-1 $483 0 $483 6.2831853071796004 $331 $484 forward 7 unknown #
loop $-1 $-1 $338 $209 #
plane-surface $-1 -28.913782301972695 -0.14689995307708159 69.452797304397365 0.62932039886446345 0 0.77714595512881146 0.77714595512881146 0 -0.62932039886446345 forward_v I I I I #
loop $-1 $-1 $485 $133 #
coedge $-1 $336 $336 $337 $486 reversed $210 $-1 #
coedge $-1 $337 $337 $336 $486 forward $212 $-1 #
coedge $-1 $338 $338 $213 $339 forward $333 $-1 #
edge $-1 $487 0 $487 6.2831853071796004 $338 $488 forward 7 unknown #
face $-1 $489 $490 $51 $-1 $491 reversed single #
loop $-1 $-1 $492 $214 #
plane-surface $-1 -52.163457136753443 0 0 1 0 0 0 0 -1 forward_v I I I I #
coedge $-1 $493 $351 $494 $495 forward $215 $-1 #
coedge $-1 $496 $217 $493 $497 forward $137 $-1 #
coedge $-1 $217 $496 $498 $499 forward $137 $-1 #
coedge $-1 $354 $353 $217 $347 reversed $355 $-1 #
edge $-1 $500 -27.808995360984447 $501 27.808995360984447 $346 $502 forward 7 unknown #
coedge $-1 $219 $218 $503 $504 forward $86 $-1 #
coedge $-1 $505 $506 $218 $350 reversed $490 $-1 #
edge $-1 $357 -52.163457136753443 $507 52.163457136753443 $349 $508 forward 7 unknown #
coedge $-1 $343 $509 $219 $352 reversed $215 $-1 #
edge $-1 $510 -52.163457136753443 $356 52.163457136753443 $351 $511 forward 7 unknown #
coedge $-1 $346 $220 $509 $512 forward $355 $-1 #
coedge $-1 $220 $346 $505 $513 reversed $355 $-1 #
loop $-1 $-1 $353 $489 #
vertex $-1 $221 $514 #
vertex $-1 $221 $515 #
straight-curve $-1 52.163457136753443 0 8.7377633789651608 0 1 0 I I #
face $-1 $516 $517 $52 $-1 $518 reversed single #
loop $-1 $-1 $519 $222 #
plane-surface $-1 0 -33.285082629033873 -6.5895653672145258 0 0 1 1 0 0 forward_v I I I I #
coedge $-1 $228 $520 $521 $522 forward $223 $-1 #
coedge $-1 $523 $225 $524 $525 reversed $141 $-1 #
coedge $-1 $225 $523 $369 $526 reversed $141 $-1 #
edge $-1 $370 1.4566660423953852 $527 6.5895653672145258 $225 $528 forward 7 unknown #
coedge $-1 $227 $226 $529 $530 forward $89 $-1 #
coedge $-1 $521 $531 $226 $368 forward $532 $-1 #
edge $-1 $533 -6.5895653672145258 $371 -1.4566660423953852 $367 $534 forward 7 unknown #
coedge $-1 $520 $228 $364 $526 forward $223 $-1 #
vertex $-1 $365 $535 #
vertex $-1 $522 $536 #
straight-curve $-1 0 -27.808995360984447 -1.4566660423953852 1 0 0 I I #
face $-1 $-1 $537 $53 $-1 $538 reversed single #
loop $-1 $-1 $236 $230 #
plane-surface $-1 0 0 8.7377633789651608 0 0 1 1 0 0 forward_v I I I I #
coedge $-1 $539 $540 $541 $542 reversed $231 $-1 #
coedge $-1 $543 $233 $235 $383 forward $145 $-1 #
coedge $-1 $233 $543 $539 $544 forward $145 $-1 #
coedge $-1 $541 $236 $233 $380 forward $374 $-1 #
edge $-1 $386 -9.1053554497138425 $545 -2.3350052325576502 $379 $546 forward 7 unknown #
coedge $-1 $547 $548 $234 $382 forward $537 $-1 #
edge $-1 $549 -37.784159616953396 $385 -33.39712925943568 $381 $550 forward 7 unknown #
edge $-1 $386 -6.8250075724640382 $549 9.439443728910611e-015 $235 $551 forward 7 unknown #
coedge $-1 $236 $541 $547 $552 forward $374 $-1 #
vertex $-1 $382 $553 #
vertex $-1 $237 $554 #
straight-curve $-1 -59.611752906414466 -14.825535790849589 8.7377633789651625 1 0 0 I I #
coedge $-1 $388 $388 $-1 $555 reversed $240 $-1 #
edge $-1 $556 0 $556 6.2831853071796004 $241 $557 forward 7 unknown #
vertex $-1 $244 $558 #
ellipse-curve $-1 -49.549327596810478 -12.891150014519248 6.5442482002063063 -0.64278761758704617 0 0.76604443648966558 0.1915111091224164 0 0.16069690439676154 1 I I #
coedge $-1 $392 $392 $-1 $559 reversed $247 $-1 #
edge $-1 $560 0 $560 6.2831853071796004 $248 $561 forward 7 unknown #
vertex $-1 $251 $562 #
ellipse-curve $-1 -49.549327596810478 -9.9895713500237378 6.5442482002063063 -0.64278761758704617 0 0.76604443648966558 0.1915111091224164 0 0.16069690439676154 1 I I #
face $-1 $-1 $563 $56 $-1 $564 reversed single #
loop $-1 $-1 $258 $252 #
plane-surface $-1 0 0 8.7377633789651608 0 0 1 1 0 0 forward_v I I I I #
coedge $-1 $565 $566 $567 $568 reversed $253 $-1 #
coedge $-1 $569 $255 $257 $406 forward $159 $-1 #
coedge $-1 $255 $569 $565 $570 forward $159 $-1 #
coedge $-1 $567 $258 $255 $403 forward $397 $-1 #
edge $-1 $409 -3.5221284264800872 $571 3.2482217906761051 $402 $572 forward 7 unknown #
coedge $-1 $573 $574 $256 $405 forward $563 $-1 #
edge $-1 $575 -37.784159616953396 $408 -33.39712925943568 $404 $576 forward 7 unknown #
edge $-1 $409 -6.8250075724640382 $575 9.439443728910611e-015 $257 $577 forward 7 unknown #
coedge $-1 $258 $567 $573 $578 forward $397 $-1 #
vertex $-1 $259 $579 #
vertex $-1 $259 $580 #
straight-curve $-1 -59.611752906414466 -3.6590817443820782 8.7377633789651625 1 0 0 I I #
coedge $-1 $411 $411 $-1 $581 reversed $262 $-1 #
edge $-1 $582 0 $582 6.2831853071796004 $263 $583 forward 7 unknown #
vertex $-1 $266 $584 #
ellipse-curve $-1 -49.549327596810478 -1.7246959680517371 6.5442482002063063 -0.64278761758704617 0 0.76604443648966558 0.1915111091224164 0 0.16069690439676154 1 I I #
coedge $-1 $415 $415 $-1 $585 reversed $269 $-1 #
edge $-1 $586 0 $586 6.2831853071796004 $270 $587 forward 7 unknown #
vertex $-1 $273 $588 #
ellipse-curve $-1 -49.549327596810478 1.1768826964437729 6.5442482002063063 -0.64278761758704617 0 0.76604443648966558 0.1915111091224164 0 0.16069690439676154 1 I I #
face $-1 $-1 $589 $59 $-1 $590 reversed single #
loop $-1 $-1 $280 $274 #
plane-surface $-1 0 0 8.7377633789651608 0 0 1 1 0 0 forward_v I I I I #
coedge $-1 $591 $592 $593 $594 reversed $275 $-1 #
coedge $-1 $595 $277 $279 $429 forward $173 $-1 #
coedge $-1 $277 $595 $591 $596 forward $173 $-1 #
coedge $-1 $593 $280 $277 $426 forward $420 $-1 #
edge $-1 $432 2.0610985967536699 $597 8.8314488139098621 $425 $598 forward 7 unknown #
coedge $-1 $599 $600 $278 $428 forward $589 $-1 #
edge $-1 $601 -37.784159616953396 $431 -33.39712925943568 $427 $602 forward 7 unknown #
edge $-1 $432 -6.8250075724640382 $601 9.439443728910611e-015 $279 $603 forward 7 unknown #
coedge $-1 $280 $593 $599 $604 forward $420 $-1 #
vertex $-1 $281 $605 #
vertex $-1 $281 $606 #
straight-curve $-1 -59.611752906414466 7.5073723020854359 8.7377633789651625 1 0 0 I I #
coedge $-1 $434 $434 $-1 $607 reversed $284 $-1 #
edge $-1 $608 0 $608 6.2831853071796004 $285 $609 forward 7 unknown #
vertex $-1 $288 $610 #
ellipse-curve $-1 -49.549327596810478 9.4417580784157735 6.5442482002063063 -0.64278761758704617 0 0.76604443648966558 0.1915111091224164 0 0.16069690439676154 1 I I #
coedge $-1 $438 $438 $-1 $611 reversed $291 $-1 #
edge $-1 $612 0 $612 6.2831853071796004 $292 $613 forward 7 unknown #
vertex $-1 $295 $614 #
ellipse-curve $-1 -49.549327596810478 12.343336742911283 6.5442482002063063 -0.64278761758704617 0 0.76604443648966558 0.1915111091224164 0 0.16069690439676154 1 I I #
face $-1 $-1 $615 $62 $-1 $616 reversed single #
loop $-1 $-1 $302 $296 #
plane-surface $-1 0 0 8.7377633789651608 0 0 1 1 0 0 forward_v I I I I #
coedge $-1 $617 $618 $619 $620 reversed $297 $-1 #
coedge $-1 $621 $299 $301 $452 forward $187 $-1 #
coedge $-1 $299 $621 $617 $622 forward $187 $-1 #
coedge $-1 $619 $302 $299 $449 forward $443 $-1 #
edge $-1 $455 7.6443256199874234 $623 14.414675837143616 $448 $624 forward 7 unknown #
coedge $-1 $625 $626 $300 $451 forward $615 $-1 #
edge $-1 $627 -37.784159616953396 $454 -33.39712925943568 $450 $628 forward 7 unknown #
edge $-1 $455 -6.8250075724640382 $627 9.439443728910611e-015 $301 $629 forward 7 unknown #
coedge $-1 $302 $619 $625 $630 forward $443 $-1 #
vertex $-1 $303 $631 #
vertex $-1 $303 $632 #
straight-curve $-1 -59.611752906414466 18.673826348552943 8.7377633789651625 1 0 0 I I #
coedge $-1 $457 $457 $-1 $633 reversed $306 $-1 #
edge $-1 $634 0 $634 6.2831853071796004 $307 $635 forward 7 unknown #
vertex $-1 $310 $636 #
ellipse-curve $-1 -49.549327596810478 20.608212124883288 6.5442482002063063 -0.64278761758704617 0 0.76604443648966558 0.1915111091224164 0 0.16069690439676154 1 I I #
coedge $-1 $461 $461 $-1 $637 reversed $313 $-1 #
edge $-1 $638 0 $638 6.2831853071796004 $314 $639 forward 7 unknown #
vertex $-1 $317 $640 #
ellipse-curve $-1 -49.549327596810478 23.509790789378791 6.5442482002063063 -0.64278761758704617 0 0.76604443648966558 0.1915111091224164 0 0.16069690439676154 1 I I #
face $-1 $-1 $477 $65 $-1 $641 forward single #
loop $-1 $-1 $642 $318 #
plane-surface $-1 52.163457136753443 0 0 -1 0 0 0 0 1 forward_v I I I I #
coedge $-1 $643 $644 $645 $646 reversed $319 $-1 #
coedge $-1 $647 $321 $323 $475 forward $201 $-1 #
coedge $-1 $321 $647 $643 $648 forward $201 $-1 #
coedge $-1 $645 $324 $321 $472 forward $477 $-1 #
edge $-1 $479 -4.6860981067056358 $649 4.8329980597827173 $471 $650 forward 7 unknown #
coedge $-1 $651 $652 $322 $474 forward $466 $-1 #
edge $-1 $653 -71.467276370066429 $478 -66.527254992596596 $473 $654 forward 7 unknown #
edge $-1 $479 96.477142700261311 $653 104.32691427350689 $323 $655 forward 7 unknown #
coedge $-1 $324 $645 $651 $656 forward $477 $-1 #
loop $-1 $-1 $645 $465 #
vertex $-1 $474 $657 #
vertex $-1 $325 $658 #
straight-curve $-1 18.370636500464673 4.612648130167095 8.7377633789651554 -1 0 0 I I #
coedge $-1 $481 $481 $-1 $659 reversed $328 $-1 #
edge $-1 $660 0 $660 6.2831853071796004 $329 $661 forward 7 unknown #
vertex $-1 $332 $662 #
ellipse-curve $-1 49.113248023336993 -2.1867062744674435 6.2677526902302452 0.62932039886446345 0 0.77714595512881146 0.77714595512881146 0 -0.62932039886446345 1 I I #
coedge $-1 $485 $485 $-1 $663 reversed $335 $-1 #
edge $-1 $664 0 $664 6.2831853071796004 $336 $665 forward 7 unknown #
vertex $-1 $339 $666 #
ellipse-curve $-1 49.113248023336993 1.8929063683132767 6.2677526902302452 0.62932039886446345 0 0.77714595512881146 0.77714595512881146 0 -0.62932039886446345 1 I I #
face $-1 $-1 $355 $51 $-1 $667 reversed single #
loop $-1 $-1 $505 $340 #
plane-surface $-1 0 27.808995360984447 0 0 -1 0 0 0 -1 forward_v I I I I #
coedge $-1 $668 $503 $506 $669 forward $341 $-1 #
coedge $-1 $509 $343 $344 $497 reversed $215 $-1 #
coedge $-1 $503 $668 $343 $495 reversed $341 $-1 #
edge $-1 $510 -8.7377633789651608 $670 8.7377633789651608 $494 $671 forward 7 unknown #
coedge $-1 $345 $344 $668 $672 forward $137 $-1 #
edge $-1 $501 -52.163457136753443 $670 52.163457136753443 $493 $673 forward 7 unknown #
coedge $-1 $506 $505 $345 $499 reversed $490 $-1 #
edge $-1 $674 -52.163457136753443 $500 52.163457136753443 $498 $675 forward 7 unknown #
vertex $-1 $347 $676 #
vertex $-1 $512 $677 #
straight-curve $-1 52.163457136753443 0 -8.7377633789651608 0 -1 0 I I #
coedge $-1 $492 $494 $348 $504 reversed $341 $-1 #
edge $-1 $507 -27.808995360984447 $510 27.808995360984447 $503 $678 forward 7 unknown #
coedge $-1 $498 $349 $354 $513 forward $490 $-1 #
coedge $-1 $349 $498 $492 $669 reversed $490 $-1 #
vertex $-1 $350 $679 #
straight-curve $-1 0 27.808995360984447 8.7377633789651608 -1 0 0 I I #
coedge $-1 $351 $493 $353 $512 reversed $215 $-1 #
vertex $-1 $504 $680 #
straight-curve $-1 0 -27.808995360984447 8.7377633789651608 1 0 0 I I #
edge $-1 $356 -8.7377633789651608 $501 8.7377633789651608 $353 $681 forward 7 unknown #
edge $-1 $357 -8.7377633789651608 $500 8.7377633789651608 $354 $682 forward 7 unknown #
point $-1 52.163457136753443 -27.808995360984447 8.7377633789651608 #
point $-1 52.163457136753443 27.808995360984447 8.7377633789651608 #
face $-1 $-1 $532 $52 $-1 $683 reversed single #
loop $-1 $-1 $684 $359 #
plane-surface $-1 0 -38.761169897083299 -4.0231157048049555 0 1 0 0 0 1 forward_v I I I I #
coedge $-1 $685 $529 $531 $686 forward $360 $-1 #
coedge $-1 $362 $369 $687 $688 forward $223 $-1 #
coedge $-1 $689 $367 $362 $522 reversed $532 $-1 #
edge $-1 $690 -5.4760872680494259 $371 5.4760872680494259 $521 $691 forward 7 unknown #
coedge $-1 $364 $363 $684 $692 reversed $141 $-1 #
coedge $-1 $529 $685 $363 $525 forward $360 $-1 #
edge $-1 $693 -5.4760872680494259 $527 5.4760872680494259 $363 $694 forward 7 unknown #
edge $-1 $370 -5.4760872680494259 $695 5.4760872680494259 $364 $696 forward 7 unknown #
vertex $-1 $365 $697 #
straight-curve $-1 -52.163457136753443 -27.808995360984447 0 0 0 -1 I I #
coedge $-1 $519 $524 $366 $530 reversed $360 $-1 #
edge $-1 $533 -52.163457136753443 $527 52.163457136753443 $529 $698 forward 7 unknown #
coedge $-1 $367 $689 $519 $686 reversed $532 $-1 #
loop $-1 $-1 $367 $516 #
vertex $-1 $368 $699 #
straight-curve $-1 52.163457136753443 -27.808995360984447 0 0 0 1 I I #
point $-1 -52.163457136753443 -27.808995360984447 -1.4566660423953852 #
point $-1 52.163457136753443 -27.808995360984447 -1.4566660423953852 #
loop $-1 $-1 $381 $373 #
plane-surface $-1 -52.163457136753443 0 0 1 0 0 0 0 -1 forward_v I I I I #
coedge $-1 $540 $376 $378 $544 reversed $231 $-1 #
coedge $-1 $376 $539 $700 $701 reversed $231 $-1 #
coedge $-1 $384 $379 $376 $542 forward $374 $-1 #
edge $-1 $545 -12.676554849546946 $702 -7.4482957696610228 $541 $703 forward 7 unknown #
coedge $-1 $378 $377 $548 $704 reversed $145 $-1 #
edge $-1 $705 -9.439443728910611e-015 $545 6.8250075724640382 $539 $706 forward 7 unknown #
vertex $-1 $380 $707 #
straight-curve $-1 -46.93519805686752 -5.7201803411357464 8.7377633789651625 0 1 0 I I #
coedge $-1 $700 $381 $384 $552 reversed $537 $-1 #
coedge $-1 $381 $700 $543 $704 forward $537 $-1 #
vertex $-1 $382 $708 #
straight-curve $-1 -52.163457136753443 -14.825535790849589 42.134892638400842 0 0 1 I I #
straight-curve $-1 -52.163457136753436 -14.825535790849589 4.3507330214474536 -0.76604443648966558 0 -0.64278761758704617 I I #
edge $-1 $702 8.0551855736933966 $385 14.825535790849589 $547 $709 forward 7 unknown #
point $-1 -52.163457136753443 -14.825535790849589 8.7377633789651608 #
point $-1 -46.93519805686752 -14.825535790849589 8.7377633789651608 #
edge $-1 $710 1 $710 0 $388 $-1 forward 7 unknown #
vertex $-1 $389 $711 #
ellipse-curve $-1 -48.906539979223432 -12.891150014519248 5.7782037637166361 -0.64278761758704617 0 0.76604443648966558 0.1915111091224164 0 0.16069690439676154 1 I I #
point $-1 -49.357816487688062 -12.891150014519248 6.7049451046030635 #
edge $-1 $712 1 $712 0 $392 $-1 forward 7 unknown #
vertex $-1 $393 $713 #
ellipse-curve $-1 -48.906539979223432 -9.9895713500237378 5.7782037637166361 -0.64278761758704617 0 0.76604443648966558 0.1915111091224164 0 0.16069690439676154 1 I I #
point $-1 -49.357816487688062 -9.9895713500237378 6.7049451046030635 #
loop $-1 $-1 $404 $396 #
plane-surface $-1 -52.163457136753443 0 0 1 0 0 0 0 -1 forward_v I I I I #
coedge $-1 $566 $399 $401 $570 reversed $253 $-1 #
coedge $-1 $399 $565 $714 $715 reversed $253 $-1 #
coedge $-1 $407 $402 $399 $568 forward $397 $-1 #
edge $-1 $571 -12.676554849546946 $716 -7.4482957696610228 $567 $717 forward 7 unknown #
coedge $-1 $401 $400 $574 $718 reversed $159 $-1 #
edge $-1 $719 -9.439443728910611e-015 $571 6.8250075724640382 $565 $720 forward 7 unknown #
vertex $-1 $403 $721 #
straight-curve $-1 -46.93519805686752 -0.13695331790199106 8.7377633789651625 0 1 0 I I #
coedge $-1 $714 $404 $407 $578 reversed $563 $-1 #
coedge $-1 $404 $714 $569 $718 forward $563 $-1 #
vertex $-1 $405 $722 #
straight-curve $-1 -52.163457136753443 -3.6590817443820782 42.134892638400842 0 0 1 I I #
straight-curve $-1 -52.163457136753436 -3.6590817443820782 4.3507330214474536 -0.76604443648966558 0 -0.64278761758704617 I I #
edge $-1 $716 -3.111268472774114 $408 3.6590817443820782 $573 $723 forward 7 unknown #
point $-1 -52.163457136753443 -3.6590817443820782 8.7377633789651608 #
point $-1 -46.93519805686752 -3.6590817443820782 8.7377633789651608 #
edge $-1 $724 1 $724 0 $411 $-1 forward 7 unknown #
vertex $-1 $412 $725 #
ellipse-curve $-1 -48.906539979223432 -1.7246959680517371 5.7782037637166361 -0.64278761758704617 0 0.76604443648966558 0.1915111091224164 0 0.16069690439676154 1 I I #
point $-1 -49.357816487688062 -1.7246959680517371 6.7049451046030635 #
edge $-1 $726 1 $726 0 $415 $-1 forward 7 unknown #
vertex $-1 $416 $727 #
ellipse-curve $-1 -48.906539979223432 1.1768826964437729 5.7782037637166361 -0.64278761758704617 0 0.76604443648966558 0.1915111091224164 0 0.16069690439676154 1 I I #
point $-1 -49.357816487688062 1.1768826964437729 6.7049451046030635 #
loop $-1 $-1 $427 $419 #
plane-surface $-1 -52.163457136753443 0 0 1 0 0 0 0 -1 forward_v I I I I #
coedge $-1 $592 $422 $424 $596 reversed $275 $-1 #
coedge $-1 $422 $591 $728 $729 reversed $275 $-1 #
coedge $-1 $430 $425 $422 $594 forward $420 $-1 #
edge $-1 $597 -12.676554849546946 $730 -7.4482957696610228 $593 $731 forward 7 unknown #
coedge $-1 $424 $423 $600 $732 reversed $173 $-1 #
edge $-1 $733 -9.439443728910611e-015 $597 6.8250075724640382 $591 $734 forward 7 unknown #
vertex $-1 $426 $735 #
straight-curve $-1 -46.93519805686752 5.446273705331766 8.7377633789651625 0 1 0 I I #
coedge $-1 $728 $427 $430 $604 reversed $589 $-1 #
coedge $-1 $427 $728 $595 $732 forward $589 $-1 #
vertex $-1 $428 $736 #
straight-curve $-1 -52.163457136753443 7.5073723020854359 42.134892638400842 0 0 1 I I #
straight-curve $-1 -52.163457136753436 7.5073723020854359 4.3507330214474536 -0.76604443648966558 0 -0.64278761758704617 I I #
edge $-1 $730 -14.277722519241628 $431 -7.5073723020854359 $599 $737 forward 7 unknown #
point $-1 -52.163457136753443 7.5073723020854359 8.7377633789651608 #
point $-1 -46.93519805686752 7.5073723020854359 8.7377633789651608 #
edge $-1 $738 1 $738 0 $434 $-1 forward 7 unknown #
vertex $-1 $435 $739 #
ellipse-curve $-1 -48.906539979223432 9.4417580784157735 5.7782037637166361 -0.64278761758704617 0 0.76604443648966558 0.1915111091224164 0 0.16069690439676154 1 I I #
point $-1 -49.357816487688062 9.4417580784157735 6.7049451046030635 #
edge $-1 $740 1 $740 0 $438 $-1 forward 7 unknown #
vertex $-1 $439 $741 #
ellipse-curve $-1 -48.906539979223432 12.343336742911283 5.7782037637166361 -0.64278761758704617 0 0.76604443648966558 0.1915111091224164 0 0.16069690439676154 1 I I #
point $-1 -49.357816487688062 12.343336742911283 6.7049451046030635 #
loop $-1 $-1 $450 $442 #
plane-surface $-1 -52.163457136753443 0 0 1 0 0 0 0 -1 forward_v I I I I #
coedge $-1 $618 $445 $447 $622 reversed $297 $-1 #
coedge $-1 $445 $617 $742 $743 reversed $297 $-1 #
coedge $-1 $453 $448 $445 $620 forward $443 $-1 #
edge $-1 $623 -12.676554849546946 $744 -7.4482957696610228 $619 $745 forward 7 unknown #
coedge $-1 $447 $446 $626 $746 reversed $187 $-1 #
edge $-1 $747 -9.439443728910611e-015 $623 6.8250075724640382 $617 $748 forward 7 unknown #
vertex $-1 $449 $749 #
straight-curve $-1 -46.93519805686752 11.02950072856552 8.7377633789651625 0 1 0 I I #
coedge $-1 $742 $450 $453 $630 reversed $615 $-1 #
coedge $-1 $450 $742 $621 $746 forward $615 $-1 #
vertex $-1 $451 $750 #
straight-curve $-1 -52.163457136753443 18.673826348552943 42.134892638400842 0 0 1 I I #
straight-curve $-1 -52.163457136753436 18.673826348552943 4.3507330214474536 -0.76604443648966558 0 -0.64278761758704617 I I #
edge $-1 $744 -25.444176565709135 $454 -18.673826348552943 $625 $751 forward 7 unknown #
point $-1 -52.163457136753443 18.673826348552943 8.7377633789651608 #
point $-1 -46.93519805686752 18.673826348552943 8.7377633789651608 #
edge $-1 $752 1 $752 0 $457 $-1 forward 7 unknown #
vertex $-1 $458 $753 #
ellipse-curve $-1 -48.906539979223432 20.608212124883288 5.7782037637166361 -0.64278761758704617 0 0.76604443648966558 0.1915111091224164 0 0.16069690439676154 1 I I #
point $-1 -49.357816487688062 20.608212124883288 6.7049451046030635 #
edge $-1 $754 1 $754 0 $461 $-1 forward 7 unknown #
vertex $-1 $462 $755 #
ellipse-curve $-1 -48.906539979223432 23.509790789378791 5.7782037637166361 -0.64278761758704617 0 0.76604443648966558 0.1915111091224164 0 0.16069690439676154 1 I I #
point $-1 -49.357816487688062 23.509790789378791 6.7049451046030635 #
plane-surface $-1 0 0 8.7377633789651608 0 0 1 1 0 0 forward_v I I I I #
coedge $-1 $652 $651 $644 $756 forward $466 $-1 #
coedge $-1 $644 $468 $470 $648 reversed $319 $-1 #
coedge $-1 $468 $643 $642 $756 reversed $319 $-1 #
coedge $-1 $476 $471 $468 $646 forward $477 $-1 #
edge $-1 $649 27.692402409455841 $757 33.792820636288766 $645 $758 forward 7 unknown #
coedge $-1 $470 $469 $652 $759 reversed $201 $-1 #
edge $-1 $760 -104.32691427350689 $649 -96.477142700261311 $643 $761 forward 7 unknown #
vertex $-1 $472 $762 #
straight-curve $-1 46.063038909920522 -0.073449976538540795 8.7377633789651625 0 -1 0 I I #
coedge $-1 $642 $473 $476 $656 reversed $466 $-1 #
coedge $-1 $473 $642 $647 $759 forward $466 $-1 #
vertex $-1 $474 $763 #
straight-curve $-1 52.163457136753443 4.612648130167095 75.265018371561752 0 0 1 I I #
straight-curve $-1 -28.913782301972695 4.612648130167095 69.452797304397365 0.77714595512881146 0 -0.62932039886446345 I I #
edge $-1 $757 -4.9064480363212581 $478 4.612648130167095 $651 $764 forward 7 unknown #
point $-1 52.163457136753443 4.612648130167095 8.7377633789651608 #
point $-1 46.063038909920515 4.612648130167095 8.7377633789651554 #
edge $-1 $765 1 $765 0 $481 $-1 forward 7 unknown #
vertex $-1 $482 $766 #
ellipse-curve $-1 47.789921685174832 -2.1867062744674435 4.6335807916650529 0.62932039886446345 0 0.77714595512881146 0.77714595512881146 0 -0.62932039886446345 1 I I #
point $-1 49.890393978465795 -2.1867062744674435 5.6384322913657714 #
edge $-1 $767 1 $767 0 $485 $-1 forward 7 unknown #
vertex $-1 $486 $768 #
ellipse-curve $-1 47.789921685174832 1.8929063683132767 4.6335807916650529 0.62932039886446345 0 0.77714595512881146 0.77714595512881146 0 -0.62932039886446345 1 I I #
point $-1 49.890393978465795 1.8929063683132767 5.6384322913657714 #
plane-surface $-1 52.163457136753443 0 0 -1 0 0 0 0 1 forward_v I I I I #
coedge $-1 $494 $492 $496 $672 reversed $341 $-1 #
edge $-1 $507 -8.7377633789651608 $674 8.7377633789651608 $506 $769 forward 7 unknown #
vertex $-1 $672 $770 #
straight-curve $-1 -52.163457136753443 -27.808995360984447 0 0 0 -1 I I #
edge $-1 $670 -27.808995360984447 $674 27.808995360984447 $668 $771 forward 7 unknown #
straight-curve $-1 0 -27.808995360984447 -8.7377633789651608 -1 0 0 I I #
vertex $-1 $499 $772 #
straight-curve $-1 0 27.808995360984447 -8.7377633789651608 1 0 0 I I #
point $-1 52.163457136753443 27.808995360984447 -8.7377633789651608 #
point $-1 52.163457136753443 -27.808995360984447 -8.7377633789651608 #
straight-curve $-1 -52.163457136753443 0 8.7377633789651608 0 -1 0 I I #
point $-1 -52.163457136753443 27.808995360984447 8.7377633789651608 #
point $-1 -52.163457136753443 -27.808995360984447 8.7377633789651608 #
straight-curve $-1 52.163457136753443 -27.808995360984447 0 0 0 -1 I I #
straight-curve $-1 52.163457136753443 27.808995360984447 0 0 0 -1 I I #
plane-surface $-1 52.163457136753443 0 0 -1 0 0 0 0 1 forward_v I I I I #
coedge $-1 $773 $687 $523 $692 forward $517 $-1 #
coedge $-1 $524 $519 $773 $774 forward $360 $-1 #
edge $-1 $533 -5.4760872680494259 $775 5.4760872680494259 $531 $776 forward 7 unknown #
coedge $-1 $684 $777 $520 $688 reversed $517 $-1 #
edge $-1 $695 -52.163457136753443 $690 52.163457136753443 $687 $778 forward 7 unknown #
coedge $-1 $531 $521 $777 $779 forward $532 $-1 #
vertex $-1 $522 $780 #
straight-curve $-1 52.163457136753443 -33.285082629033873 -1.4566660423953852 0 1 0 I I #
edge $-1 $695 -2.5664496624095703 $693 2.5664496624095703 $523 $781 forward 7 unknown #
vertex $-1 $525 $782 #
straight-curve $-1 -52.163457136753443 -33.285082629033873 -6.5895653672145258 0 1 0 I I #
vertex $-1 $526 $783 #
straight-curve $-1 -52.163457136753443 -33.285082629033873 -1.4566660423953852 0 -1 0 I I #
point $-1 -52.163457136753443 -27.808995360984447 -6.5895653672145258 #
straight-curve $-1 0 -27.808995360984447 -6.5895653672145258 -1 0 0 I I #
point $-1 52.163457136753443 -27.808995360984447 -6.5895653672145258 #
coedge $-1 $548 $547 $540 $701 forward $537 $-1 #
edge $-1 $702 33.39712925943568 $705 37.784159616953396 $700 $784 forward 7 unknown #
vertex $-1 $552 $785 #
straight-curve $-1 -59.611752906414466 -8.0551855736933966 8.7377633789651625 -1 0 0 I I #
edge $-1 $705 2.3350052325576502 $549 9.1053554497138425 $548 $786 forward 7 unknown #
vertex $-1 $704 $787 #
straight-curve $-1 -52.163457136753436 -8.0551855736933966 4.3507330214474536 0.76604443648966558 0 0.64278761758704617 I I #
point $-1 -46.93519805686752 -8.0551855736933966 8.7377633789651608 #
point $-1 -52.163457136753443 -14.825535790849589 4.3507330214474473 #
straight-curve $-1 -52.163457136753443 0 8.7377633789651608 0 -1 0 I I #
vertex $-1 $555 $788 #
point $-1 -48.715028870101015 -12.891150014519248 5.9389006681133978 #
vertex $-1 $559 $789 #
point $-1 -48.715028870101015 -9.9895713500237378 5.9389006681133978 #
coedge $-1 $574 $573 $566 $715 forward $563 $-1 #
edge $-1 $716 33.39712925943568 $719 37.784159616953396 $714 $790 forward 7 unknown #
vertex $-1 $578 $791 #
straight-curve $-1 -59.611752906414466 3.111268472774114 8.7377633789651625 -1 0 0 I I #
edge $-1 $719 -3.2482217906761051 $575 3.5221284264800872 $574 $792 forward 7 unknown #
vertex $-1 $718 $793 #
straight-curve $-1 -52.163457136753436 3.111268472774114 4.3507330214474536 0.76604443648966558 0 0.64278761758704617 I I #
point $-1 -46.93519805686752 3.111268472774114 8.7377633789651608 #
point $-1 -52.163457136753443 -3.6590817443820782 4.3507330214474473 #
straight-curve $-1 -52.163457136753443 0 8.7377633789651608 0 -1 0 I I #
vertex $-1 $581 $794 #
point $-1 -48.715028870101015 -1.7246959680517371 5.9389006681133978 #
vertex $-1 $585 $795 #
point $-1 -48.715028870101015 1.1768826964437729 5.9389006681133978 #
coedge $-1 $600 $599 $592 $729 forward $589 $-1 #
edge $-1 $730 33.39712925943568 $733 37.784159616953396 $728 $796 forward 7 unknown #
vertex $-1 $604 $797 #
straight-curve $-1 -59.611752906414466 14.277722519241628 8.7377633789651625 -1 0 0 I I #
edge $-1 $733 -8.8314488139098621 $601 -2.0610985967536699 $600 $798 forward 7 unknown #
vertex $-1 $732 $799 #
straight-curve $-1 -52.163457136753436 14.277722519241628 4.3507330214474536 0.76604443648966558 0 0.64278761758704617 I I #
point $-1 -46.93519805686752 14.277722519241628 8.7377633789651608 #
point $-1 -52.163457136753443 7.5073723020854359 4.3507330214474473 #
straight-curve $-1 -52.163457136753443 0 8.7377633789651608 0 -1 0 I I #
vertex $-1 $607 $800 #
point $-1 -48.715028870101015 9.4417580784157735 5.9389006681133978 #
vertex $-1 $611 $801 #
point $-1 -48.715028870101015 12.343336742911283 5.9389006681133978 #
coedge $-1 $626 $625 $618 $743 forward $615 $-1 #
edge $-1 $744 33.39712925943568 $747 37.784159616953396 $742 $802 forward 7 unknown #
vertex $-1 $630 $803 #
straight-curve $-1 -59.611752906414466 25.444176565709135 8.7377633789651625 -1 0 0 I I #
edge $-1 $747 -14.414675837143616 $627 -7.6443256199874234 $626 $804 forward 7 unknown #
vertex $-1 $746 $805 #
straight-curve $-1 -52.163457136753436 25.444176565709135 4.3507330214474536 0.76604443648966558 0 0.64278761758704617 I I #
point $-1 -46.93519805686752 25.444176565709135 8.7377633789651608 #
point $-1 -52.163457136753443 18.673826348552943 4.3507330214474473 #
straight-curve $-1 -52.163457136753443 0 8.7377633789651608 0 -1 0 I I #
vertex $-1 $633 $806 #
point $-1 -48.715028870101015 20.608212124883288 5.9389006681133978 #
vertex $-1 $637 $807 #
point $-1 -48.715028870101015 23.509790789378791 5.9389006681133978 #
edge $-1 $757 66.527254992596596 $760 71.467276370066429 $642 $808 forward 7 unknown #
vertex $-1 $656 $809 #
straight-curve $-1 18.370636500464673 -4.9064480363212581 8.7377633789651554 1 0 0 I I #
edge $-1 $760 -4.8329980597827173 $653 4.6860981067056358 $652 $810 forward 7 unknown #
vertex $-1 $759 $811 #
straight-curve $-1 -28.913782301972695 -4.9064480363212581 69.452797304397365 -0.77714595512881146 0 0.62932039886446345 I I #
point $-1 46.063038909920515 -4.9064480363212581 8.7377633789651554 #
point $-1 52.163457136753443 4.612648130167095 3.7977420014953225 #
straight-curve $-1 52.163457136753443 0 8.7377633789651608 0 1 0 I I #
vertex $-1 $659 $812 #
point $-1 48.567067640303641 -2.1867062744674435 4.0042603928005898 #
vertex $-1 $663 $813 #
point $-1 48.567067640303641 1.8929063683132767 4.0042603928005898 #
straight-curve $-1 -52.163457136753443 27.808995360984447 0 0 0 -1 I I #
point $-1 -52.163457136753443 -27.808995360984447 -8.7377633789651608 #
straight-curve $-1 -52.163457136753443 0 -8.7377633789651608 0 1 0 I I #
point $-1 -52.163457136753443 27.808995360984447 -8.7377633789651608 #
coedge $-1 $777 $684 $685 $774 reversed $517 $-1 #
edge $-1 $775 -52.163457136753443 $693 52.163457136753443 $773 $814 forward 7 unknown #
vertex $-1 $779 $815 #
straight-curve $-1 52.163457136753443 -33.285082629033873 -6.5895653672145258 0 -1 0 I I #
coedge $-1 $687 $773 $689 $779 reversed $517 $-1 #
straight-curve $-1 0 -38.761169897083299 -1.4566660423953852 1 0 0 I I #
edge $-1 $690 -2.5664496624095703 $775 2.5664496624095703 $689 $816 forward 7 unknown #
point $-1 52.163457136753443 -38.761169897083299 -1.4566660423953852 #
straight-curve $-1 -52.163457136753443 -38.761169897083299 -4.0231157048049555 0 0 -1 I I #
point $-1 -52.163457136753443 -38.761169897083299 -6.5895653672145258 #
point $-1 -52.163457136753443 -38.761169897083299 -1.4566660423953852 #
straight-curve $-1 -52.163457136753443 -8.0551855736933966 42.134892638400842 0 0 -1 I I #
point $-1 -52.163457136753443 -8.0551855736933966 8.7377633789651608 #
straight-curve $-1 -52.163457136753443 -5.7201803411357464 4.3507330214474438 0 -1 0 I I #
point $-1 -52.163457136753443 -8.0551855736933966 4.3507330214474473 #
point $-1 -48.745843074826674 -12.891150014519248 5.5866926545942199 #
point $-1 -48.745843074826674 -9.9895713500237378 5.5866926545942199 #
straight-curve $-1 -52.163457136753443 3.111268472774114 42.134892638400842 0 0 -1 I I #
point $-1 -52.163457136753443 3.111268472774114 8.7377633789651608 #
straight-curve $-1 -52.163457136753443 -0.13695331790199106 4.3507330214474438 0 -1 0 I I #
point $-1 -52.163457136753443 3.111268472774114 4.3507330214474473 #
point $-1 -48.745843074826674 -1.7246959680517371 5.5866926545942199 #
point $-1 -48.745843074826674 1.1768826964437729 5.5866926545942199 #
straight-curve $-1 -52.163457136753443 14.277722519241628 42.134892638400842 0 0 -1 I I #
point $-1 -52.163457136753443 14.277722519241628 8.7377633789651608 #
straight-curve $-1 -52.163457136753443 5.446273705331766 4.3507330214474438 0 -1 0 I I #
point $-1 -52.163457136753443 14.277722519241628 4.3507330214474473 #
point $-1 -48.745843074826674 9.4417580784157735 5.5866926545942199 #
point $-1 -48.745843074826674 12.343336742911283 5.5866926545942199 #
straight-curve $-1 -52.163457136753443 25.444176565709135 42.134892638400842 0 0 -1 I I #
point $-1 -52.163457136753443 25.444176565709135 8.7377633789651608 #
straight-curve $-1 -52.163457136753443 11.02950072856552 4.3507330214474438 0 -1 0 I I #
point $-1 -52.163457136753443 25.444176565709135 4.3507330214474473 #
point $-1 -48.745843074826674 20.608212124883288 5.5866926545942199 #
point $-1 -48.745843074826674 23.509790789378791 5.5866926545942199 #
straight-curve $-1 52.163457136753443 -4.9064480363212581 75.265018371561752 0 0 -1 I I #
point $-1 52.163457136753443 -4.9064480363212581 8.7377633789651608 #
straight-curve $-1 52.163457136753443 -0.073449976538540795 3.7977420014953296 0 1 0 I I #
point $-1 52.163457136753443 -4.9064480363212581 3.7977420014953225 #
point $-1 47.160601286310367 -2.1867062744674435 3.8564348365362418 #
point $-1 47.160601286310367 1.8929063683132767 3.8564348365362418 #
straight-curve $-1 0 -38.761169897083299 -6.5895653672145258 -1 0 0 I I #
point $-1 52.163457136753443 -38.761169897083299 -6.5895653672145258 #
straight-curve $-1 52.163457136753443 -38.761169897083299 -4.0231157048049555 0 0 -1 I I #
End-of-ACIS-data 