500 0 5 0           
7 Unknown 11 ACIS 5.0 NT 24 Fri Mar 26 00:53:02 1999 
-1 9.9999999999999995e-007 1e-010 
body $-1 $5 $-1 $6 #
body $-1 $7 $-1 $8 #
body $-1 $9 $-1 $10 #
body $-1 $11 $-1 $12 #
body $-1 $13 $-1 $14 #
lump $-1 $-1 $15 $0 #
transform $-1 1 0 0 0 1 0 0 0 1 40.828882717368082 18.239858207393084 8.2228266687151681 1 rotate no_reflect no_shear #
lump $-1 $-1 $16 $1 #
transform $-1 1 0 0 0 1 0 0 0 1 40.828882717368082 18.239858207393084 8.2228266687151681 1 rotate no_reflect no_shear #
lump $-1 $-1 $17 $2 #
transform $-1 1 0 0 0 1 0 0 0 1 40.828882717368082 18.239858207393084 8.2228266687151681 1 rotate no_reflect no_shear #
lump $-1 $-1 $18 $3 #
transform $-1 1 0 0 0 1 0 0 0 1 40.828882717368082 18.239858207393084 8.2228266687151681 1 rotate no_reflect no_shear #
lump $-1 $-1 $19 $4 #
transform $-1 1 0 0 0 1 0 0 0 1 40.828882717368082 18.239858207393084 8.2228266687151681 1 rotate no_reflect no_shear #
shell $-1 $-1 $-1 $20 $-1 $5 #
shell $-1 $-1 $-1 $21 $-1 $7 #
shell $-1 $-1 $-1 $22 $-1 $9 #
shell $-1 $-1 $-1 $23 $-1 $11 #
shell $-1 $-1 $-1 $24 $-1 $13 #
face $-1 $25 $26 $15 $-1 $27 forward single #
face $-1 $28 $29 $16 $-1 $30 reversed single #
face $-1 $31 $32 $17 $-1 $33 forward single #
face $-1 $34 $35 $18 $-1 $36 reversed single #
face $-1 $37 $38 $19 $-1 $39 reversed single #
face $-1 $40 $41 $15 $-1 $42 reversed single #
loop $-1 $-1 $43 $20 #
plane-surface $-1 0 0 8.2228266687151681 0 0 1 1 0 0 forward_v I I I I #
face $-1 $44 $45 $16 $-1 $46 reversed single #
loop $-1 $-1 $47 $21 #
plane-surface $-1 -44.96779246940477 -6.1682859088445241 0 0 1 0 0 0 1 forward_v I I I I #
face $-1 $48 $49 $17 $-1 $50 forward single #
loop $-1 $-1 $51 $22 #
plane-surface $-1 -12.941984312446865 -68.513399177194486 66.205239648052924 -1 0 0 0 -0.61566148304635926 0.78801074757464917 forward_v I I I I #
face $-1 $52 $53 $18 $-1 $54 reversed single #
loop $-1 $55 $56 $23 #
cone-surface $-1 -22.586800830566823 -13.589231835269024 4.3014597526178004 0 0.61566148304635926 -0.78801074757464917 1 0 0 1 I I 0 1 1 forward I I I I #
face $-1 $57 $58 $19 $-1 $59 reversed single #
loop $-1 $60 $61 $24 #
cone-surface $-1 -16.799910919694849 -13.589231835269024 4.3014597526178004 0 0.61566148304635926 -0.78801074757464917 1 0 0 1 I I 0 1 1 forward I I I I #
face $-1 $62 $63 $15 $-1 $64 reversed single #
loop $-1 $-1 $65 $25 #
plane-surface $-1 0 0 -8.2228266687151681 0 0 1 1 0 0 forward_v I I I I #
coedge $-1 $66 $67 $68 $69 forward $26 $-1 #
face $-1 $70 $71 $16 $-1 $72 reversed single #
loop $-1 $-1 $73 $28 #
plane-surface $-1 -49.106702221441459 -3.9812453894036359 0 1 0 0 0 0 -1 forward_v I I I I #
coedge $-1 $74 $75 $76 $77 forward $29 $-1 #
face $-1 $78 $79 $17 $-1 $80 forward single #
loop $-1 $-1 $81 $31 #
plane-surface $-1 -19.693355875130834 -18.239858207393084 1.8580428625511303 0 -0.61566148304635926 0.78801074757464917 1 0 0 forward_v I I I I #
coedge $-1 $82 $83 $84 $85 reversed $32 $-1 #
face $-1 $86 $87 $18 $-1 $88 forward single #
loop $-1 $89 $90 $34 #
cone-surface $-1 -22.586800830566823 -12.704050526069569 3.1684793658151307 0 0.61566148304635926 -0.78801074757464917 0.5 0 0 1 I I -0.70710678118654746 0.70710678118654746 0.5 forward I I I I #
loop $-1 $-1 $91 $23 #
coedge $-1 $56 $56 $92 $93 reversed $35 $-1 #
face $-1 $94 $95 $19 $-1 $96 reversed single #
loop $-1 $97 $98 $37 #
cone-surface $-1 -16.799910919694849 -12.704050526069569 3.1684793658151307 0 0.61566148304635926 -0.78801074757464917 0.5 0 0 1 I I -0.70710678118654746 0.70710678118654746 0.5 forward I I I I #
loop $-1 $-1 $99 $24 #
coedge $-1 $61 $61 $100 $101 reversed $38 $-1 #
face $-1 $102 $103 $15 $-1 $104 reversed single #
loop $-1 $-1 $105 $40 #
plane-surface $-1 0 -18.239858207393084 0 0 1 0 0 0 1 forward_v I I I I #
coedge $-1 $106 $107 $108 $109 forward $41 $-1 #
coedge $-1 $110 $43 $111 $112 forward $26 $-1 #
coedge $-1 $43 $110 $113 $114 forward $26 $-1 #
coedge $-1 $115 $116 $43 $69 reversed $117 $-1 #
edge $-1 $118 -18.239858207393084 $119 18.239858207393084 $68 $120 forward 7 unknown #
face $-1 $121 $122 $16 $-1 $123 reversed single #
loop $-1 $-1 $124 $44 #
plane-surface $-1 -44.96779246940477 -1.7942048699627478 0 0 -1 0 0 0 -1 forward_v I I I I #
coedge $-1 $125 $126 $127 $128 forward $45 $-1 #
coedge $-1 $129 $47 $130 $131 reversed $29 $-1 #
coedge $-1 $47 $129 $132 $133 reversed $29 $-1 #
coedge $-1 $126 $125 $47 $77 reversed $45 $-1 #
edge $-1 $134 -8.2228266687151681 $135 8.2228266687151681 $76 $136 forward 7 unknown #
face $-1 $137 $138 $17 $-1 $139 forward single #
loop $-1 $-1 $140 $48 #
plane-surface $-1 -26.444727437814805 -68.513399177194486 66.205239648052924 1 0 0 0 0.61566148304635926 -0.78801074757464917 forward_v I I I I #
coedge $-1 $141 $142 $143 $144 reversed $49 $-1 #
coedge $-1 $83 $51 $142 $145 forward $32 $-1 #
coedge $-1 $51 $82 $146 $147 reversed $32 $-1 #
coedge $-1 $148 $143 $51 $85 forward $138 $-1 #
edge $-1 $149 -24.16339299009972 $150 -16.016841381204159 $84 $151 forward 7 unknown #
face $-1 $152 $153 $18 $-1 $154 forward single #
loop $-1 $-1 $155 $52 #
plane-surface $-1 -12.941984312446865 -68.513399177194486 66.205239648052924 -1 0 0 0 -0.61566148304635926 0.78801074757464917 forward_v I I I I #
loop $-1 $-1 $156 $34 #
coedge $-1 $90 $90 $91 $157 forward $53 $-1 #
coedge $-1 $91 $91 $90 $157 reversed $55 $-1 #
coedge $-1 $92 $92 $56 $93 forward $153 $-1 #
edge $-1 $158 1.3342979344366212e-015 $158 6.2831853071796022 $92 $159 forward 7 unknown #
face $-1 $160 $161 $19 $-1 $162 reversed single #
loop $-1 $163 $164 $57 #
cone-surface $-1 -22.586800830566823 -13.589231835269024 4.3014597526178004 0 0.61566148304635926 -0.78801074757464917 1 0 0 1 I I 0 1 1 forward I I I I #
loop $-1 $-1 $165 $37 #
coedge $-1 $98 $98 $99 $166 forward $58 $-1 #
coedge $-1 $99 $99 $98 $166 reversed $60 $-1 #
coedge $-1 $100 $100 $61 $101 forward $167 $-1 #
edge $-1 $168 1.3342979344366212e-015 $168 6.2831853071796022 $100 $169 forward 7 unknown #
face $-1 $170 $171 $15 $-1 $172 reversed single #
loop $-1 $-1 $173 $62 #
plane-surface $-1 -40.828882717368082 0 0 1 0 0 0 0 -1 forward_v I I I I #
coedge $-1 $174 $113 $175 $176 forward $63 $-1 #
coedge $-1 $177 $65 $174 $178 forward $41 $-1 #
coedge $-1 $65 $177 $179 $180 forward $41 $-1 #
coedge $-1 $116 $115 $65 $109 reversed $117 $-1 #
edge $-1 $181 -18.239858207393084 $182 18.239858207393084 $108 $183 forward 7 unknown #
coedge $-1 $67 $66 $184 $185 forward $26 $-1 #
coedge $-1 $186 $187 $66 $112 reversed $171 $-1 #
edge $-1 $119 -40.828882717368082 $188 40.828882717368082 $111 $189 forward 7 unknown #
coedge $-1 $105 $190 $67 $114 reversed $63 $-1 #
edge $-1 $191 -40.828882717368082 $118 40.828882717368082 $113 $192 forward 7 unknown #
coedge $-1 $108 $68 $190 $193 forward $117 $-1 #
coedge $-1 $68 $108 $186 $194 reversed $117 $-1 #
loop $-1 $-1 $115 $170 #
vertex $-1 $69 $195 #
vertex $-1 $69 $196 #
straight-curve $-1 40.828882717368082 0 8.2228266687151681 0 1 0 I I #
face $-1 $197 $198 $16 $-1 $123 reversed single #
loop $-1 $-1 $199 $70 #
plane-surface $-1 -40.828882717368082 0 0 1 0 0 0 0 -1 forward_v I I I I #
coedge $-1 $200 $201 $199 $202 reversed $71 $-1 #
coedge $-1 $76 $73 $203 $204 reversed $45 $-1 #
coedge $-1 $73 $76 $205 $206 reversed $45 $-1 #
coedge $-1 $201 $200 $73 $128 reversed $71 $-1 #
edge $-1 $207 -8.2228266687151681 $208 8.2228266687151681 $127 $209 forward 7 unknown #
coedge $-1 $75 $74 $210 $211 reversed $29 $-1 #
coedge $-1 $203 $212 $74 $131 forward $213 $-1 #
edge $-1 $214 -4.1389097520366889 $135 4.1389097520366889 $74 $215 forward 7 unknown #
coedge $-1 $216 $205 $75 $133 forward $217 $-1 #
edge $-1 $134 -4.1389097520366889 $218 4.1389097520366889 $75 $219 forward 7 unknown #
vertex $-1 $206 $220 #
vertex $-1 $204 $221 #
straight-curve $-1 -49.106702221441459 -6.1682859088445241 0 0 0 -1 I I #
face $-1 $222 $223 $17 $-1 $224 reversed single #
loop $-1 $-1 $225 $78 #
plane-surface $-1 0 0 8.2228266687151681 0 0 1 1 0 0 forward_v I I I I #
coedge $-1 $226 $227 $225 $228 reversed $79 $-1 #
coedge $-1 $229 $81 $227 $230 reversed $49 $-1 #
coedge $-1 $81 $229 $82 $145 reversed $49 $-1 #
coedge $-1 $84 $225 $81 $144 forward $138 $-1 #
edge $-1 $231 -16.598049500249388 $149 -3.0953063748814476 $143 $232 forward 7 unknown #
edge $-1 $149 -10.338122460853654 $233 0 $82 $234 forward 7 unknown #
coedge $-1 $235 $236 $83 $147 forward $237 $-1 #
edge $-1 $150 24.879793155311294 $233 31.244576961475332 $146 $238 forward 7 unknown #
coedge $-1 $239 $84 $236 $240 forward $138 $-1 #
vertex $-1 $144 $241 #
vertex $-1 $240 $242 #
straight-curve $-1 -12.941984312446865 -34.256699588597243 8.2228266687151681 0 -1 0 I I #
face $-1 $243 $244 $18 $-1 $245 forward single #
loop $-1 $246 $92 $86 #
plane-surface $-1 -19.693355875130834 -18.239858207393084 1.8580428625511303 0 -0.61566148304635926 0.78801074757464917 1 0 0 forward_v I I I I #
coedge $-1 $247 $248 $249 $250 reversed $87 $-1 #
coedge $-1 $156 $156 $-1 $251 forward $89 $-1 #
edge $-1 $252 0 $252 6.2831853071796004 $90 $253 forward 7 unknown #
vertex $-1 $93 $254 #
ellipse-curve $-1 -22.586800830566823 -14.166582402945302 5.0404347656331501 0 0.61566148304635926 -0.78801074757464917 1 0 0 1 I I #
face $-1 $255 $256 $19 $-1 $257 forward single #
loop $-1 $258 $259 $94 #
cone-surface $-1 -22.586800830566823 -12.704050526069569 3.1684793658151307 0 0.61566148304635926 -0.78801074757464917 0.5 0 0 1 I I -0.70710678118654746 0.70710678118654746 0.5 forward I I I I #
loop $-1 $-1 $260 $57 #
coedge $-1 $164 $164 $261 $262 reversed $95 $-1 #
coedge $-1 $165 $165 $-1 $263 forward $97 $-1 #
edge $-1 $264 0 $264 6.2831853071796004 $98 $265 forward 7 unknown #
loop $-1 $266 $100 $255 #
vertex $-1 $101 $267 #
ellipse-curve $-1 -16.799910919694849 -14.166582402945302 5.0404347656331501 0 0.61566148304635926 -0.78801074757464917 1 0 0 1 I I #
face $-1 $-1 $117 $15 $-1 $268 reversed single #
loop $-1 $-1 $186 $102 #
plane-surface $-1 0 18.239858207393084 0 0 -1 0 0 0 -1 forward_v I I I I #
coedge $-1 $269 $184 $187 $270 forward $103 $-1 #
coedge $-1 $190 $105 $106 $178 reversed $63 $-1 #
coedge $-1 $184 $269 $105 $176 reversed $103 $-1 #
edge $-1 $191 -8.2228266687151681 $271 8.2228266687151681 $175 $272 forward 7 unknown #
coedge $-1 $107 $106 $269 $273 forward $41 $-1 #
edge $-1 $182 -40.828882717368082 $271 40.828882717368082 $174 $274 forward 7 unknown #
coedge $-1 $187 $186 $107 $180 reversed $171 $-1 #
edge $-1 $275 -40.828882717368082 $181 40.828882717368082 $179 $276 forward 7 unknown #
vertex $-1 $109 $277 #
vertex $-1 $193 $278 #
straight-curve $-1 40.828882717368082 0 -8.2228266687151681 0 -1 0 I I #
coedge $-1 $173 $175 $110 $185 reversed $103 $-1 #
edge $-1 $188 -18.239858207393084 $191 18.239858207393084 $184 $279 forward 7 unknown #
coedge $-1 $179 $111 $116 $194 forward $171 $-1 #
coedge $-1 $111 $179 $173 $270 reversed $171 $-1 #
vertex $-1 $112 $280 #
straight-curve $-1 0 18.239858207393084 8.2228266687151681 -1 0 0 I I #
coedge $-1 $113 $174 $115 $193 reversed $63 $-1 #
vertex $-1 $185 $281 #
straight-curve $-1 0 -18.239858207393084 8.2228266687151681 1 0 0 I I #
edge $-1 $118 -8.2228266687151681 $182 8.2228266687151681 $115 $282 forward 7 unknown #
edge $-1 $119 -8.2228266687151681 $181 8.2228266687151681 $116 $283 forward 7 unknown #
point $-1 40.828882717368082 -18.239858207393084 8.2228266687151681 #
point $-1 40.828882717368082 18.239858207393084 8.2228266687151681 #
face $-1 $284 $217 $16 $-1 $285 forward single #
loop $-1 $-1 $210 $121 #
coedge $-1 $286 $287 $124 $202 forward $122 $-1 #
coedge $-1 $127 $124 $288 $289 reversed $71 $-1 #
coedge $-1 $124 $127 $290 $291 reversed $71 $-1 #
edge $-1 $292 -8.2228266687151681 $293 8.2228266687151681 $199 $294 forward 7 unknown #
coedge $-1 $288 $130 $125 $204 forward $213 $-1 #
edge $-1 $135 -2.1870405194408882 $208 2.1870405194408882 $125 $295 forward 7 unknown #
coedge $-1 $132 $290 $126 $206 forward $217 $-1 #
edge $-1 $207 -2.1870405194408882 $134 2.1870405194408882 $126 $296 forward 7 unknown #
vertex $-1 $291 $297 #
vertex $-1 $289 $298 #
straight-curve $-1 -49.106702221441459 -1.7942048699627478 0 0 0 -1 I I #
coedge $-1 $299 $300 $129 $211 forward $198 $-1 #
edge $-1 $218 -8.2228266687151681 $214 8.2228266687151681 $210 $301 forward 7 unknown #
coedge $-1 $130 $302 $299 $303 forward $213 $-1 #
loop $-1 $-1 $304 $284 #
vertex $-1 $131 $305 #
straight-curve $-1 -44.96779246940477 -6.1682859088445241 -8.2228266687151681 -1 0 0 I I #
coedge $-1 $306 $132 $300 $307 forward $217 $-1 #
loop $-1 $-1 $308 $197 #
vertex $-1 $307 $309 #
straight-curve $-1 -44.96779246940477 -6.1682859088445241 8.2228266687151681 1 0 0 I I #
point $-1 -49.106702221441459 -6.1682859088445241 8.2228266687151681 #
point $-1 -49.106702221441459 -6.1682859088445241 -8.2228266687151681 #
face $-1 $310 $311 $17 $-1 $312 reversed single #
loop $-1 $-1 $313 $137 #
plane-surface $-1 -44.96779246940477 -6.1682859088445241 0 0 1 0 0 0 1 forward_v I I I I #
coedge $-1 $143 $314 $140 $228 forward $138 $-1 #
coedge $-1 $227 $140 $315 $316 reversed $79 $-1 #
coedge $-1 $140 $226 $141 $230 forward $79 $-1 #
edge $-1 $317 16.016841381204159 $231 24.16339299009972 $225 $318 forward 7 unknown #
coedge $-1 $142 $141 $235 $319 reversed $49 $-1 #
edge $-1 $320 0 $231 10.338122460853654 $227 $321 forward 7 unknown #
vertex $-1 $144 $322 #
straight-curve $-1 -9.846677937565417 -10.093306598497524 8.2228266687151681 1 0 0 I I #
vertex $-1 $319 $323 #
straight-curve $-1 -12.941984312446865 -18.239858207393084 1.8580428625511303 0 -0.78801074757464917 -0.61566148304635926 I I #
coedge $-1 $315 $146 $229 $319 forward $237 $-1 #
coedge $-1 $146 $324 $148 $240 reversed $237 $-1 #
loop $-1 $-1 $315 $325 #
straight-curve $-1 -12.941984312446865 -18.239858207393084 33.102619824026462 0 0 -1 I I #
coedge $-1 $326 $148 $327 $328 forward $138 $-1 #
edge $-1 $150 -12.941984312446865 $329 40.828882717368082 $236 $330 forward 7 unknown #
point $-1 -12.941984312446865 -10.093306598497524 8.2228266687151681 #
point $-1 -12.941984312446865 -18.239858207393084 8.2228266687151681 #
face $-1 $331 $332 $18 $-1 $333 forward single #
loop $-1 $-1 $334 $152 #
plane-surface $-1 -26.444727437814805 -68.513399177194486 66.205239648052924 1 0 0 0 0.61566148304635926 -0.78801074757464917 forward_v I I I I #
loop $-1 $-1 $335 $86 #
coedge $-1 $248 $155 $336 $337 forward $87 $-1 #
coedge $-1 $155 $247 $338 $339 reversed $87 $-1 #
coedge $-1 $340 $341 $155 $250 forward $332 $-1 #
edge $-1 $342 -24.16339299009972 $343 -16.016841381204159 $249 $344 forward 7 unknown #
edge $-1 $345 1 $345 0 $156 $-1 forward 7 unknown #
vertex $-1 $157 $346 #
ellipse-curve $-1 -22.586800830566823 -13.011881267592749 3.5624847396024553 0 -0.61566148304635926 0.78801074757464917 1 0 0 1 I I #
point $-1 -21.586800830566823 -14.1665824029453 5.0404347656331456 #
face $-1 $347 $167 $19 $-1 $348 forward single #
loop $-1 $-1 $349 $160 #
plane-surface $-1 -12.941984312446865 -68.513399177194486 66.205239648052924 -1 0 0 0 -0.61566148304635926 0.78801074757464917 forward_v I I I I #
loop $-1 $-1 $350 $94 #
coedge $-1 $259 $259 $260 $351 forward $161 $-1 #
coedge $-1 $260 $260 $259 $351 reversed $163 $-1 #
coedge $-1 $261 $261 $164 $262 forward $266 $-1 #
edge $-1 $352 1.3342979344366212e-015 $352 6.2831853071796022 $261 $353 forward 7 unknown #
edge $-1 $354 1 $354 0 $165 $-1 forward 7 unknown #
vertex $-1 $166 $355 #
ellipse-curve $-1 -16.799910919694849 -13.011881267592749 3.5624847396024553 0 -0.61566148304635926 0.78801074757464917 1 0 0 1 I I #
loop $-1 $356 $261 $255 #
point $-1 -15.799910919694849 -14.1665824029453 5.0404347656331456 #
plane-surface $-1 40.828882717368082 0 0 -1 0 0 0 0 1 forward_v I I I I #
coedge $-1 $175 $173 $177 $273 reversed $103 $-1 #
edge $-1 $188 -8.2228266687151681 $275 8.2228266687151681 $187 $357 forward 7 unknown #
vertex $-1 $273 $358 #
straight-curve $-1 -40.828882717368082 -18.239858207393084 0 0 0 -1 I I #
edge $-1 $271 -18.239858207393084 $275 18.239858207393084 $269 $359 forward 7 unknown #
straight-curve $-1 0 -18.239858207393084 -8.2228266687151681 -1 0 0 I I #
vertex $-1 $180 $360 #
straight-curve $-1 0 18.239858207393084 -8.2228266687151681 1 0 0 I I #
point $-1 40.828882717368082 18.239858207393084 -8.2228266687151681 #
point $-1 40.828882717368082 -18.239858207393084 -8.2228266687151681 #
straight-curve $-1 -40.828882717368082 0 8.2228266687151681 0 -1 0 I I #
point $-1 -40.828882717368082 18.239858207393084 8.2228266687151681 #
point $-1 -40.828882717368082 -18.239858207393084 8.2228266687151681 #
straight-curve $-1 40.828882717368082 -18.239858207393084 0 0 0 -1 I I #
straight-curve $-1 40.828882717368082 18.239858207393084 0 0 0 -1 I I #
face $-1 $361 $213 $16 $-1 $362 reversed single #
plane-surface $-1 0 0 8.2228266687151681 0 0 1 1 0 0 forward_v I I I I #
coedge $-1 $363 $199 $364 $365 reversed $122 $-1 #
coedge $-1 $199 $363 $366 $367 reversed $122 $-1 #
coedge $-1 $366 $203 $200 $289 forward $213 $-1 #
edge $-1 $208 -4.1389097520366889 $292 4.1389097520366889 $200 $368 forward 7 unknown #
coedge $-1 $205 $364 $201 $291 forward $217 $-1 #
edge $-1 $293 -4.1389097520366889 $207 4.1389097520366889 $201 $369 forward 7 unknown #
vertex $-1 $367 $370 #
vertex $-1 $291 $371 #
straight-curve $-1 -40.828882717368082 -1.7942048699627478 0 0 0 1 I I #
straight-curve $-1 -49.106702221441459 -3.9812453894036359 -8.2228266687151681 0 1 0 I I #
straight-curve $-1 -49.106702221441459 -3.9812453894036359 8.2228266687151681 0 -1 0 I I #
point $-1 -49.106702221441459 -1.7942048699627478 8.2228266687151681 #
point $-1 -49.106702221441459 -1.7942048699627478 -8.2228266687151681 #
coedge $-1 $372 $210 $212 $303 reversed $198 $-1 #
coedge $-1 $210 $372 $216 $307 reversed $198 $-1 #
straight-curve $-1 -40.828882717368082 -6.1682859088445241 0 0 0 -1 I I #
coedge $-1 $212 $304 $373 $374 forward $213 $-1 #
edge $-1 $375 -18.239858207393084 $214 -6.1682859088445241 $299 $376 forward 7 unknown #
coedge $-1 $302 $377 $378 $379 forward $213 $-1 #
point $-1 -40.828882717368082 -6.1682859088445241 -8.2228266687151681 #
coedge $-1 $308 $216 $380 $381 forward $217 $-1 #
edge $-1 $218 6.1682859088445241 $382 18.239858207393084 $300 $383 forward 7 unknown #
coedge $-1 $384 $306 $385 $386 forward $217 $-1 #
point $-1 -40.828882717368082 -6.1682859088445241 8.2228266687151681 #
face $-1 $387 $388 $17 $-1 $389 reversed single #
loop $-1 $-1 $390 $222 #
plane-surface $-1 -49.106702221441459 -3.9812453894036359 0 1 0 0 0 0 -1 forward_v I I I I #
coedge $-1 $391 $392 $393 $394 forward $223 $-1 #
coedge $-1 $225 $395 $396 $397 forward $138 $-1 #
coedge $-1 $396 $235 $226 $316 forward $237 $-1 #
edge $-1 $320 -31.244576961475332 $317 -24.879793155311294 $315 $398 forward 7 unknown #
vertex $-1 $316 $399 #
straight-curve $-1 -26.444727437814805 -34.256699588597243 8.2228266687151681 0 1 0 I I #
edge $-1 $233 3.0953063748814476 $320 16.598049500249388 $235 $400 forward 7 unknown #
vertex $-1 $319 $401 #
straight-curve $-1 -26.444727437814805 -18.239858207393084 1.8580428625511303 0 0.78801074757464917 0.61566148304635926 I I #
point $-1 -26.444727437814805 -10.093306598497524 8.2228266687151681 #
point $-1 -12.941984312446865 -18.239858207393084 1.8580428625511303 #
coedge $-1 $236 $402 $403 $404 reversed $237 $-1 #
face $-1 $405 $237 $17 $-1 $406 reversed single #
coedge $-1 $407 $239 $408 $409 forward $138 $-1 #
coedge $-1 $403 $410 $239 $328 reversed $411 $-1 #
edge $-1 $329 -18.239858207393084 $412 18.239858207393084 $327 $413 forward 7 unknown #
vertex $-1 $328 $414 #
straight-curve $-1 0 -18.239858207393084 8.2228266687151681 1 0 0 I I #
face $-1 $415 $416 $18 $-1 $417 reversed single #
loop $-1 $-1 $418 $243 #
plane-surface $-1 0 0 8.2228266687151681 0 0 1 1 0 0 forward_v I I I I #
coedge $-1 $419 $420 $418 $421 reversed $244 $-1 #
coedge $-1 $422 $336 $341 $423 reversed $246 $-1 #
coedge $-1 $335 $424 $247 $337 reversed $246 $-1 #
edge $-1 $342 -10.338122460853654 $425 0 $247 $426 forward 7 unknown #
coedge $-1 $427 $428 $248 $339 forward $429 $-1 #
edge $-1 $343 24.879793155311294 $425 31.244576961475332 $338 $430 forward 7 unknown #
coedge $-1 $431 $249 $428 $432 forward $332 $-1 #
coedge $-1 $249 $418 $335 $423 forward $332 $-1 #
vertex $-1 $423 $433 #
vertex $-1 $432 $434 #
straight-curve $-1 -12.941984312446865 -34.256699588597243 8.2228266687151681 0 -1 0 I I #
vertex $-1 $251 $435 #
point $-1 -21.586800830566823 -13.011881267592749 3.5624847396024553 #
face $-1 $436 $437 $19 $-1 $438 forward single #
plane-surface $-1 -19.693355875130834 -18.239858207393084 1.8580428625511303 0 -0.61566148304635926 0.78801074757464917 1 0 0 forward_v I I I I #
coedge $-1 $439 $440 $441 $442 reversed $256 $-1 #
coedge $-1 $350 $350 $-1 $443 forward $258 $-1 #
edge $-1 $444 0 $444 6.2831853071796004 $259 $445 forward 7 unknown #
vertex $-1 $262 $446 #
ellipse-curve $-1 -22.586800830566823 -14.166582402945302 5.0404347656331501 0 0.61566148304635926 -0.78801074757464917 1 0 0 1 I I #
vertex $-1 $263 $447 #
point $-1 -15.799910919694849 -13.011881267592749 3.5624847396024553 #
loop $-1 $-1 $448 $255 #
straight-curve $-1 -40.828882717368082 18.239858207393084 0 0 0 -1 I I #
point $-1 -40.828882717368082 -18.239858207393084 -8.2228266687151681 #
straight-curve $-1 -40.828882717368082 0 -8.2228266687151681 0 1 0 I I #
point $-1 -40.828882717368082 18.239858207393084 -8.2228266687151681 #
face $-1 $449 $450 $16 $-1 $451 reversed single #
plane-surface $-1 0 0 -8.2228266687151681 0 0 1 1 0 0 forward_v I I I I #
coedge $-1 $287 $286 $452 $453 forward $122 $-1 #
coedge $-1 $290 $384 $286 $365 forward $217 $-1 #
edge $-1 $454 -18.239858207393084 $293 1.7942048699627478 $286 $383 forward 7 unknown #
coedge $-1 $377 $288 $287 $367 forward $213 $-1 #
edge $-1 $292 -1.7942048699627478 $455 18.239858207393084 $287 $376 forward 7 unknown #
straight-curve $-1 -44.96779246940477 -1.7942048699627478 -8.2228266687151681 1 0 0 I I #
straight-curve $-1 -44.96779246940477 -1.7942048699627478 8.2228266687151681 -1 0 0 I I #
point $-1 -40.828882717368082 -1.7942048699627478 -8.2228266687151681 #
point $-1 -40.828882717368082 -1.7942048699627478 8.2228266687151681 #
coedge $-1 $300 $299 $456 $457 reversed $198 $-1 #
coedge $-1 $458 $456 $302 $374 reversed $450 $-1 #
edge $-1 $459 -40.828882717368082 $375 40.828882717368082 $373 $460 forward 7 unknown #
vertex $-1 $303 $461 #
straight-curve $-1 -40.828882717368082 0 -8.2228266687151681 0 1 0 I I #
coedge $-1 $304 $366 $462 $463 forward $213 $-1 #
coedge $-1 $464 $465 $304 $379 reversed $466 $-1 #
edge $-1 $467 -18.239858207393084 $459 18.239858207393084 $378 $468 forward 7 unknown #
coedge $-1 $456 $458 $306 $381 reversed $450 $-1 #
edge $-1 $382 -40.828882717368082 $469 40.828882717368082 $380 $470 forward 7 unknown #
vertex $-1 $307 $471 #
straight-curve $-1 -40.828882717368082 0 8.2228266687151681 0 -1 0 I I #
coedge $-1 $364 $308 $472 $473 forward $217 $-1 #
coedge $-1 $465 $464 $308 $386 reversed $466 $-1 #
edge $-1 $469 -18.239858207393084 $474 18.239858207393084 $385 $475 forward 7 unknown #
face $-1 $476 $477 $17 $-1 $478 reversed single #
loop $-1 $-1 $479 $310 #
plane-surface $-1 -44.96779246940477 -1.7942048699627478 0 0 -1 0 0 0 -1 forward_v I I I I #
coedge $-1 $480 $481 $482 $483 forward $311 $-1 #
coedge $-1 $484 $313 $485 $486 reversed $223 $-1 #
coedge $-1 $313 $484 $487 $488 reversed $223 $-1 #
coedge $-1 $481 $480 $313 $394 reversed $311 $-1 #
edge $-1 $489 -8.2228266687151681 $490 8.2228266687151681 $393 $491 forward 7 unknown #
coedge $-1 $314 $487 $492 $493 forward $138 $-1 #
coedge $-1 $494 $315 $314 $397 reversed $237 $-1 #
edge $-1 $495 -40.828882717368082 $317 -26.444727437814805 $396 $330 forward 7 unknown #
straight-curve $-1 -26.444727437814805 -18.239858207393084 33.102619824026462 0 0 1 I I #
point $-1 -26.444727437814805 -18.239858207393084 8.2228266687151681 #
straight-curve $-1 -9.846677937565417 -18.239858207393084 1.8580428625511305 -1 0 0 I I #
point $-1 -26.444727437814805 -18.239858207393084 1.8580428625511303 #
coedge $-1 $324 $494 $496 $497 reversed $237 $-1 #
coedge $-1 $498 $327 $324 $404 forward $411 $-1 #
edge $-1 $329 -8.2228266687151681 $499 8.2228266687151681 $403 $500 forward 7 unknown #
face $-1 $501 $502 $17 $-1 $503 reversed single #
plane-surface $-1 0 -18.239858207393084 0 0 1 0 0 0 1 forward_v I I I I #
coedge $-1 $504 $326 $505 $506 forward $138 $-1 #
coedge $-1 $507 $508 $326 $409 reversed $502 $-1 #
edge $-1 $412 -40.828882717368082 $509 40.828882717368082 $408 $510 forward 7 unknown #
coedge $-1 $327 $498 $507 $511 reversed $411 $-1 #
loop $-1 $-1 $403 $501 #
vertex $-1 $328 $512 #
straight-curve $-1 40.828882717368082 0 8.2228266687151681 0 1 0 I I #
point $-1 40.828882717368082 -18.239858207393084 8.2228266687151681 #
face $-1 $513 $514 $18 $-1 $515 reversed single #
loop $-1 $-1 $516 $331 #
plane-surface $-1 -44.96779246940477 -6.1682859088445241 0 0 1 0 0 0 1 forward_v I I I I #
coedge $-1 $341 $517 $334 $421 forward $332 $-1 #
coedge $-1 $420 $334 $518 $519 reversed $244 $-1 #
coedge $-1 $334 $419 $422 $520 forward $244 $-1 #
edge $-1 $521 16.016841381204159 $522 24.16339299009972 $418 $523 forward 7 unknown #
coedge $-1 $424 $335 $420 $520 reversed $246 $-1 #
edge $-1 $522 -16.598049500249388 $342 -3.0953063748814476 $341 $524 forward 7 unknown #
coedge $-1 $336 $422 $427 $525 reversed $246 $-1 #
vertex $-1 $525 $526 #
straight-curve $-1 -12.941984312446865 -18.239858207393084 1.8580428625511303 0 -0.78801074757464917 -0.61566148304635926 I I #
coedge $-1 $518 $338 $424 $525 forward $429 $-1 #
coedge $-1 $338 $527 $340 $432 reversed $429 $-1 #
loop $-1 $-1 $518 $528 #
straight-curve $-1 -12.941984312446865 -18.239858207393084 33.102619824026462 0 0 -1 I I #
coedge $-1 $529 $340 $530 $531 forward $332 $-1 #
edge $-1 $343 -12.941984312446865 $532 40.828882717368082 $428 $533 forward 7 unknown #
point $-1 -12.941984312446865 -10.093306598497524 8.2228266687151681 #
point $-1 -12.941984312446865 -18.239858207393084 8.2228266687151681 #
point $-1 -22.586800830566823 -12.396219784546389 2.7744739920278061 #
face $-1 $534 $535 $19 $-1 $536 forward single #
loop $-1 $-1 $537 $347 #
plane-surface $-1 -26.444727437814805 -68.513399177194486 66.205239648052924 1 0 0 0 0.61566148304635926 -0.78801074757464917 forward_v I I I I #
coedge $-1 $440 $349 $538 $539 forward $256 $-1 #
coedge $-1 $349 $439 $540 $541 reversed $256 $-1 #
coedge $-1 $542 $543 $349 $442 forward $535 $-1 #
edge $-1 $544 -24.16339299009972 $545 -16.016841381204159 $441 $546 forward 7 unknown #
edge $-1 $547 1 $547 0 $350 $-1 forward 7 unknown #
vertex $-1 $351 $548 #
ellipse-curve $-1 -22.586800830566823 -13.011881267592749 3.5624847396024553 0 -0.61566148304635926 0.78801074757464917 1 0 0 1 I I #
point $-1 -21.586800830566823 -14.1665824029453 5.0404347656331456 #
point $-1 -16.799910919694849 -12.396219784546389 2.7744739920278061 #
coedge $-1 $549 $538 $543 $550 reversed $356 $-1 #
face $-1 $551 $552 $16 $-1 $553 reversed single #
loop $-1 $-1 $456 $361 #
plane-surface $-1 0 -18.239858207393084 0 0 1 0 0 0 1 forward_v I I I I #
coedge $-1 $472 $462 $363 $453 reversed $552 $-1 #
edge $-1 $454 -8.2228266687151681 $455 8.2228266687151681 $452 $554 forward 7 unknown #
vertex $-1 $473 $555 #
vertex $-1 $463 $556 #
coedge $-1 $373 $380 $372 $457 forward $450 $-1 #
edge $-1 $382 -8.2228266687151681 $375 8.2228266687151681 $372 $557 forward 7 unknown #
coedge $-1 $380 $373 $465 $558 reversed $450 $-1 #
vertex $-1 $558 $559 #
straight-curve $-1 0 -18.239858207393084 -8.2228266687151681 -1 0 0 I I #
point $-1 -40.828882717368082 -18.239858207393084 -8.2228266687151681 #
coedge $-1 $452 $560 $377 $463 reversed $552 $-1 #
edge $-1 $455 -40.828882717368082 $467 40.828882717368082 $462 $561 forward 7 unknown #
coedge $-1 $385 $378 $560 $562 reversed $466 $-1 #
coedge $-1 $378 $385 $458 $558 forward $466 $-1 #
loop $-1 $-1 $465 $551 #
vertex $-1 $379 $563 #
straight-curve $-1 40.828882717368082 0 -8.2228266687151681 0 -1 0 I I #
vertex $-1 $386 $564 #
straight-curve $-1 0 -18.239858207393084 8.2228266687151681 1 0 0 I I #
point $-1 -40.828882717368082 -18.239858207393084 8.2228266687151681 #
coedge $-1 $560 $452 $384 $473 reversed $552 $-1 #
edge $-1 $474 -40.828882717368082 $454 40.828882717368082 $472 $565 forward 7 unknown #
vertex $-1 $386 $566 #
straight-curve $-1 40.828882717368082 0 8.2228266687151681 0 1 0 I I #
face $-1 $567 $568 $17 $-1 $478 reversed single #
loop $-1 $-1 $569 $387 #
plane-surface $-1 -40.828882717368082 0 0 1 0 0 0 0 -1 forward_v I I I I #
coedge $-1 $570 $571 $569 $572 reversed $388 $-1 #
coedge $-1 $393 $390 $573 $574 reversed $311 $-1 #
coedge $-1 $390 $393 $575 $576 reversed $311 $-1 #
coedge $-1 $571 $570 $390 $483 reversed $388 $-1 #
edge $-1 $577 -8.2228266687151681 $578 8.2228266687151681 $482 $579 forward 7 unknown #
coedge $-1 $392 $391 $580 $581 reversed $223 $-1 #
coedge $-1 $573 $582 $391 $486 forward $583 $-1 #
edge $-1 $584 -4.1389097520366889 $490 4.1389097520366889 $391 $585 forward 7 unknown #
coedge $-1 $395 $575 $392 $488 forward $138 $-1 #
edge $-1 $489 -4.1389097520366889 $586 4.1389097520366889 $392 $587 forward 7 unknown #
vertex $-1 $576 $588 #
vertex $-1 $574 $589 #
straight-curve $-1 -49.106702221441459 -6.1682859088445241 0 0 0 -1 I I #
coedge $-1 $580 $590 $395 $493 reversed $568 $-1 #
edge $-1 $586 6.1682859088445241 $495 18.239858207393084 $492 $591 forward 7 unknown #
coedge $-1 $402 $396 $590 $592 forward $237 $-1 #
vertex $-1 $493 $593 #
coedge $-1 $582 $594 $402 $497 forward $583 $-1 #
edge $-1 $499 -40.828882717368082 $595 40.828882717368082 $402 $596 forward 7 unknown #
coedge $-1 $410 $403 $594 $597 reversed $411 $-1 #
vertex $-1 $404 $598 #
straight-curve $-1 40.828882717368082 -18.239858207393084 0 0 0 -1 I I #
face $-1 $-1 $411 $17 $-1 $599 reversed single #
loop $-1 $-1 $507 $405 #
plane-surface $-1 0 18.239858207393084 0 0 -1 0 0 0 -1 forward_v I I I I #
coedge $-1 $575 $407 $571 $600 forward $138 $-1 #
coedge $-1 $601 $569 $407 $506 reversed $477 $-1 #
edge $-1 $509 -18.239858207393084 $602 1.7942048699627478 $505 $591 forward 7 unknown #
coedge $-1 $603 $408 $410 $511 forward $502 $-1 #
coedge $-1 $408 $603 $601 $604 reversed $502 $-1 #
vertex $-1 $409 $605 #
straight-curve $-1 0 18.239858207393084 8.2228266687151681 -1 0 0 I I #
edge $-1 $412 -8.2228266687151681 $606 8.2228266687151681 $410 $607 forward 7 unknown #
point $-1 40.828882717368082 18.239858207393084 8.2228266687151681 #
face $-1 $608 $609 $18 $-1 $610 reversed single #
loop $-1 $-1 $611 $415 #
plane-surface $-1 -49.106702221441459 -3.9812453894036359 0 1 0 0 0 0 -1 forward_v I I I I #
coedge $-1 $612 $613 $614 $615 forward $416 $-1 #
coedge $-1 $418 $616 $617 $618 forward $332 $-1 #
coedge $-1 $617 $427 $419 $519 forward $429 $-1 #
edge $-1 $619 -31.244576961475332 $521 -24.879793155311294 $518 $620 forward 7 unknown #
edge $-1 $619 0 $522 10.338122460853654 $420 $621 forward 7 unknown #
vertex $-1 $519 $622 #
vertex $-1 $423 $623 #
straight-curve $-1 -26.444727437814805 -34.256699588597243 8.2228266687151681 0 1 0 I I #
straight-curve $-1 -9.846677937565417 -10.093306598497524 8.2228266687151681 1 0 0 I I #
edge $-1 $425 3.0953063748814476 $619 16.598049500249388 $427 $624 forward 7 unknown #
point $-1 -12.941984312446865 -18.239858207393084 1.8580428625511303 #
coedge $-1 $428 $625 $626 $627 reversed $429 $-1 #
face $-1 $628 $429 $18 $-1 $629 reversed single #
coedge $-1 $630 $431 $631 $632 forward $332 $-1 #
coedge $-1 $626 $633 $431 $531 reversed $634 $-1 #
edge $-1 $532 -18.239858207393084 $635 18.239858207393084 $530 $636 forward 7 unknown #
vertex $-1 $531 $637 #
straight-curve $-1 0 -18.239858207393084 8.2228266687151681 1 0 0 I I #
face $-1 $638 $639 $19 $-1 $640 reversed single #
loop $-1 $-1 $641 $436 #
plane-surface $-1 0 0 8.2228266687151681 0 0 1 1 0 0 forward_v I I I I #
coedge $-1 $642 $643 $641 $644 reversed $437 $-1 #
coedge $-1 $448 $645 $439 $539 reversed $356 $-1 #
edge $-1 $544 -10.338122460853654 $646 0 $439 $647 forward 7 unknown #
coedge $-1 $648 $649 $440 $541 forward $650 $-1 #
edge $-1 $545 24.879793155311294 $646 31.244576961475332 $540 $651 forward 7 unknown #
coedge $-1 $652 $441 $649 $653 forward $535 $-1 #
coedge $-1 $441 $641 $448 $550 forward $535 $-1 #
vertex $-1 $550 $654 #
vertex $-1 $653 $655 #
straight-curve $-1 -12.941984312446865 -34.256699588597243 8.2228266687151681 0 -1 0 I I #
vertex $-1 $443 $656 #
point $-1 -21.586800830566823 -13.011881267592749 3.5624847396024553 #
coedge $-1 $645 $448 $643 $657 reversed $356 $-1 #
edge $-1 $658 -16.598049500249388 $544 -3.0953063748814476 $543 $659 forward 7 unknown #
face $-1 $-1 $466 $16 $-1 $660 reversed single #
loop $-1 $-1 $560 $449 #
plane-surface $-1 0 18.239858207393084 0 0 -1 0 0 0 -1 forward_v I I I I #
straight-curve $-1 -40.828882717368082 18.239858207393084 0 0 0 -1 I I #
point $-1 -40.828882717368082 18.239858207393084 8.2228266687151681 #
point $-1 -40.828882717368082 18.239858207393084 -8.2228266687151681 #
straight-curve $-1 -40.828882717368082 -18.239858207393084 0 0 0 -1 I I #
edge $-1 $469 -8.2228266687151681 $459 8.2228266687151681 $465 $661 forward 7 unknown #
point $-1 40.828882717368082 -18.239858207393084 -8.2228266687151681 #
coedge $-1 $462 $472 $464 $562 forward $552 $-1 #
straight-curve $-1 0 18.239858207393084 -8.2228266687151681 1 0 0 I I #
edge $-1 $474 -8.2228266687151681 $467 8.2228266687151681 $464 $662 forward 7 unknown #
point $-1 40.828882717368082 18.239858207393084 -8.2228266687151681 #
point $-1 40.828882717368082 -18.239858207393084 8.2228266687151681 #
straight-curve $-1 0 18.239858207393084 8.2228266687151681 -1 0 0 I I #
point $-1 40.828882717368082 18.239858207393084 8.2228266687151681 #
face $-1 $325 $583 $17 $-1 $663 reversed single #
loop $-1 $-1 $580 $476 #
coedge $-1 $505 $664 $479 $572 forward $477 $-1 #
coedge $-1 $482 $479 $665 $666 reversed $388 $-1 #
coedge $-1 $479 $482 $504 $600 reversed $388 $-1 #
edge $-1 $667 -8.2228266687151681 $602 8.2228266687151681 $569 $668 forward 7 unknown #
coedge $-1 $665 $485 $480 $574 forward $583 $-1 #
edge $-1 $490 -2.1870405194408882 $578 2.1870405194408882 $480 $669 forward 7 unknown #
coedge $-1 $487 $504 $481 $576 forward $138 $-1 #
edge $-1 $577 -2.1870405194408882 $489 2.1870405194408882 $481 $670 forward 7 unknown #
vertex $-1 $600 $671 #
vertex $-1 $666 $672 #
straight-curve $-1 -49.106702221441459 -1.7942048699627478 0 0 0 -1 I I #
coedge $-1 $673 $492 $484 $581 forward $568 $-1 #
edge $-1 $586 -8.2228266687151681 $584 8.2228266687151681 $580 $674 forward 7 unknown #
coedge $-1 $485 $496 $673 $675 forward $583 $-1 #
loop $-1 $-1 $594 $567 #
vertex $-1 $486 $676 #
straight-curve $-1 -44.96779246940477 -6.1682859088445241 -8.2228266687151681 -1 0 0 I I #
vertex $-1 $493 $677 #
straight-curve $-1 -44.96779246940477 -6.1682859088445241 8.2228266687151681 1 0 0 I I #
point $-1 -49.106702221441459 -6.1682859088445241 8.2228266687151681 #
point $-1 -49.106702221441459 -6.1682859088445241 -8.2228266687151681 #
coedge $-1 $492 $673 $494 $592 reversed $568 $-1 #
straight-curve $-1 -40.828882717368082 0 8.2228266687151681 0 -1 0 I I #
edge $-1 $495 -8.2228266687151681 $595 8.2228266687151681 $590 $678 forward 7 unknown #
point $-1 -40.828882717368082 -18.239858207393084 8.2228266687151681 #
coedge $-1 $496 $679 $498 $597 forward $583 $-1 #
vertex $-1 $675 $680 #
straight-curve $-1 0 -18.239858207393084 -8.2228266687151681 -1 0 0 I I #
edge $-1 $606 -18.239858207393084 $499 18.239858207393084 $498 $681 forward 7 unknown #
point $-1 40.828882717368082 -18.239858207393084 -8.2228266687151681 #
plane-surface $-1 40.828882717368082 0 0 -1 0 0 0 0 1 forward_v I I I I #
edge $-1 $602 -4.1389097520366889 $577 4.1389097520366889 $571 $682 forward 7 unknown #
coedge $-1 $664 $505 $508 $604 forward $477 $-1 #
vertex $-1 $600 $683 #
coedge $-1 $508 $507 $679 $684 reversed $502 $-1 #
edge $-1 $509 -8.2228266687151681 $685 8.2228266687151681 $508 $686 forward 7 unknown #
point $-1 -40.828882717368082 18.239858207393084 8.2228266687151681 #
vertex $-1 $597 $687 #
straight-curve $-1 40.828882717368082 18.239858207393084 0 0 0 -1 I I #
face $-1 $688 $689 $18 $-1 $690 reversed single #
loop $-1 $-1 $691 $513 #
plane-surface $-1 -44.96779246940477 -1.7942048699627478 0 0 -1 0 0 0 -1 forward_v I I I I #
coedge $-1 $692 $693 $694 $695 forward $514 $-1 #
coedge $-1 $696 $516 $697 $698 reversed $416 $-1 #
coedge $-1 $516 $696 $699 $700 reversed $416 $-1 #
coedge $-1 $693 $692 $516 $615 reversed $514 $-1 #
edge $-1 $701 -8.2228266687151681 $702 8.2228266687151681 $614 $703 forward 7 unknown #
coedge $-1 $517 $699 $704 $705 forward $332 $-1 #
coedge $-1 $706 $518 $517 $618 reversed $429 $-1 #
edge $-1 $707 -40.828882717368082 $521 -26.444727437814805 $617 $533 forward 7 unknown #
vertex $-1 $525 $708 #
straight-curve $-1 -26.444727437814805 -18.239858207393084 33.102619824026462 0 0 1 I I #
straight-curve $-1 -26.444727437814805 -18.239858207393084 1.8580428625511303 0 0.78801074757464917 0.61566148304635926 I I #
point $-1 -26.444727437814805 -18.239858207393084 8.2228266687151681 #
point $-1 -26.444727437814805 -10.093306598497524 8.2228266687151681 #
straight-curve $-1 -9.846677937565417 -18.239858207393084 1.8580428625511305 -1 0 0 I I #
coedge $-1 $527 $706 $709 $710 reversed $429 $-1 #
coedge $-1 $711 $530 $527 $627 forward $634 $-1 #
edge $-1 $532 -8.2228266687151681 $712 8.2228266687151681 $626 $713 forward 7 unknown #
face $-1 $714 $715 $18 $-1 $716 reversed single #
plane-surface $-1 0 -18.239858207393084 0 0 1 0 0 0 1 forward_v I I I I #
coedge $-1 $717 $529 $718 $719 forward $332 $-1 #
coedge $-1 $720 $721 $529 $632 reversed $715 $-1 #
edge $-1 $635 -40.828882717368082 $722 40.828882717368082 $631 $723 forward 7 unknown #
coedge $-1 $530 $711 $720 $724 reversed $634 $-1 #
loop $-1 $-1 $626 $714 #
vertex $-1 $531 $725 #
straight-curve $-1 40.828882717368082 0 8.2228266687151681 0 1 0 I I #
point $-1 40.828882717368082 -18.239858207393084 8.2228266687151681 #
face $-1 $726 $727 $19 $-1 $728 reversed single #
loop $-1 $-1 $729 $534 #
plane-surface $-1 -44.96779246940477 -6.1682859088445241 0 0 1 0 0 0 1 forward_v I I I I #
coedge $-1 $543 $730 $537 $644 forward $535 $-1 #
coedge $-1 $643 $537 $731 $732 reversed $437 $-1 #
coedge $-1 $537 $642 $549 $657 forward $437 $-1 #
edge $-1 $733 16.016841381204159 $658 24.16339299009972 $641 $734 forward 7 unknown #
coedge $-1 $538 $549 $648 $735 reversed $356 $-1 #
vertex $-1 $735 $736 #
straight-curve $-1 -12.941984312446865 -18.239858207393084 1.8580428625511303 0 -0.78801074757464917 -0.61566148304635926 I I #
coedge $-1 $731 $540 $645 $735 forward $650 $-1 #
coedge $-1 $540 $737 $542 $653 reversed $650 $-1 #
loop $-1 $-1 $731 $738 #
straight-curve $-1 -12.941984312446865 -18.239858207393084 33.102619824026462 0 0 -1 I I #
coedge $-1 $739 $542 $740 $741 forward $535 $-1 #
edge $-1 $545 -12.941984312446865 $742 40.828882717368082 $649 $743 forward 7 unknown #
point $-1 -12.941984312446865 -10.093306598497524 8.2228266687151681 #
point $-1 -12.941984312446865 -18.239858207393084 8.2228266687151681 #
point $-1 -22.586800830566823 -12.396219784546389 2.7744739920278061 #
edge $-1 $744 0 $658 10.338122460853654 $643 $745 forward 7 unknown #
vertex $-1 $550 $746 #
straight-curve $-1 -9.846677937565417 -10.093306598497524 8.2228266687151681 1 0 0 I I #
plane-surface $-1 40.828882717368082 0 0 -1 0 0 0 0 1 forward_v I I I I #
straight-curve $-1 40.828882717368082 -18.239858207393084 0 0 0 -1 I I #
straight-curve $-1 40.828882717368082 18.239858207393084 0 0 0 -1 I I #
plane-surface $-1 0 0 -8.2228266687151681 0 0 1 1 0 0 forward_v I I I I #
coedge $-1 $569 $601 $747 $748 reversed $477 $-1 #
coedge $-1 $747 $573 $570 $666 forward $583 $-1 #
edge $-1 $578 -4.1389097520366889 $667 4.1389097520366889 $570 $749 forward 7 unknown #
vertex $-1 $748 $750 #
straight-curve $-1 -40.828882717368082 -1.7942048699627478 0 0 0 1 I I #
straight-curve $-1 -49.106702221441459 -3.9812453894036359 -8.2228266687151681 0 1 0 I I #
straight-curve $-1 -49.106702221441459 -3.9812453894036359 8.2228266687151681 0 -1 0 I I #
point $-1 -49.106702221441459 -1.7942048699627478 8.2228266687151681 #
point $-1 -49.106702221441459 -1.7942048699627478 -8.2228266687151681 #
coedge $-1 $590 $580 $582 $675 reversed $568 $-1 #
straight-curve $-1 -40.828882717368082 -6.1682859088445241 0 0 0 -1 I I #
edge $-1 $595 -18.239858207393084 $584 -6.1682859088445241 $673 $751 forward 7 unknown #
point $-1 -40.828882717368082 -6.1682859088445241 -8.2228266687151681 #
point $-1 -40.828882717368082 -6.1682859088445241 8.2228266687151681 #
straight-curve $-1 -40.828882717368082 -18.239858207393084 0 0 0 -1 I I #
coedge $-1 $594 $747 $603 $684 forward $583 $-1 #
point $-1 -40.828882717368082 -18.239858207393084 -8.2228266687151681 #
straight-curve $-1 40.828882717368082 0 -8.2228266687151681 0 -1 0 I I #
straight-curve $-1 -44.96779246940477 -1.7942048699627478 8.2228266687151681 -1 0 0 I I #
point $-1 -40.828882717368082 -1.7942048699627478 8.2228266687151681 #
edge $-1 $685 -40.828882717368082 $606 40.828882717368082 $603 $752 forward 7 unknown #
vertex $-1 $684 $753 #
straight-curve $-1 -40.828882717368082 18.239858207393084 0 0 0 -1 I I #
point $-1 40.828882717368082 18.239858207393084 -8.2228266687151681 #
face $-1 $754 $755 $18 $-1 $690 reversed single #
loop $-1 $-1 $756 $608 #
plane-surface $-1 -40.828882717368082 0 0 1 0 0 0 0 -1 forward_v I I I I #
coedge $-1 $757 $758 $756 $759 reversed $609 $-1 #
coedge $-1 $614 $611 $760 $761 reversed $514 $-1 #
coedge $-1 $611 $614 $762 $763 reversed $514 $-1 #
coedge $-1 $758 $757 $611 $695 reversed $609 $-1 #
edge $-1 $764 -8.2228266687151681 $765 8.2228266687151681 $694 $766 forward 7 unknown #
coedge $-1 $613 $612 $767 $768 reversed $416 $-1 #
coedge $-1 $760 $769 $612 $698 forward $770 $-1 #
edge $-1 $771 -4.1389097520366889 $702 4.1389097520366889 $612 $772 forward 7 unknown #
coedge $-1 $616 $762 $613 $700 forward $332 $-1 #
edge $-1 $701 -4.1389097520366889 $773 4.1389097520366889 $613 $774 forward 7 unknown #
vertex $-1 $763 $775 #
vertex $-1 $761 $776 #
straight-curve $-1 -49.106702221441459 -6.1682859088445241 0 0 0 -1 I I #
coedge $-1 $767 $777 $616 $705 reversed $755 $-1 #
edge $-1 $773 6.1682859088445241 $707 18.239858207393084 $704 $778 forward 7 unknown #
coedge $-1 $625 $617 $777 $779 forward $429 $-1 #
vertex $-1 $705 $780 #
point $-1 -26.444727437814805 -18.239858207393084 1.8580428625511303 #
coedge $-1 $769 $781 $625 $710 forward $770 $-1 #
edge $-1 $712 -40.828882717368082 $782 40.828882717368082 $625 $783 forward 7 unknown #
coedge $-1 $633 $626 $781 $784 reversed $634 $-1 #
vertex $-1 $627 $785 #
straight-curve $-1 40.828882717368082 -18.239858207393084 0 0 0 -1 I I #
face $-1 $-1 $634 $18 $-1 $786 reversed single #
loop $-1 $-1 $720 $628 #
plane-surface $-1 0 18.239858207393084 0 0 -1 0 0 0 -1 forward_v I I I I #
coedge $-1 $762 $630 $758 $787 forward $332 $-1 #
coedge $-1 $788 $756 $630 $719 reversed $689 $-1 #
edge $-1 $722 -18.239858207393084 $789 1.7942048699627478 $718 $778 forward 7 unknown #
coedge $-1 $790 $631 $633 $724 forward $715 $-1 #
coedge $-1 $631 $790 $788 $791 reversed $715 $-1 #
vertex $-1 $632 $792 #
straight-curve $-1 0 18.239858207393084 8.2228266687151681 -1 0 0 I I #
edge $-1 $635 -8.2228266687151681 $793 8.2228266687151681 $633 $794 forward 7 unknown #
point $-1 40.828882717368082 18.239858207393084 8.2228266687151681 #
face $-1 $795 $796 $19 $-1 $797 reversed single #
loop $-1 $-1 $798 $638 #
plane-surface $-1 -49.106702221441459 -3.9812453894036359 0 1 0 0 0 0 -1 forward_v I I I I #
coedge $-1 $799 $800 $801 $802 forward $639 $-1 #
coedge $-1 $641 $803 $804 $805 forward $535 $-1 #
coedge $-1 $804 $648 $642 $732 forward $650 $-1 #
edge $-1 $744 -31.244576961475332 $733 -24.879793155311294 $731 $806 forward 7 unknown #
vertex $-1 $732 $807 #
straight-curve $-1 -26.444727437814805 -34.256699588597243 8.2228266687151681 0 1 0 I I #
edge $-1 $646 3.0953063748814476 $744 16.598049500249388 $648 $808 forward 7 unknown #
point $-1 -12.941984312446865 -18.239858207393084 1.8580428625511303 #
coedge $-1 $649 $809 $810 $811 reversed $650 $-1 #
face $-1 $812 $650 $19 $-1 $813 reversed single #
coedge $-1 $814 $652 $815 $816 forward $535 $-1 #
coedge $-1 $810 $817 $652 $741 reversed $818 $-1 #
edge $-1 $742 -18.239858207393084 $819 18.239858207393084 $740 $820 forward 7 unknown #
vertex $-1 $741 $821 #
straight-curve $-1 0 -18.239858207393084 8.2228266687151681 1 0 0 I I #
vertex $-1 $735 $822 #
straight-curve $-1 -26.444727437814805 -18.239858207393084 1.8580428625511303 0 0.78801074757464917 0.61566148304635926 I I #
point $-1 -26.444727437814805 -10.093306598497524 8.2228266687151681 #
coedge $-1 $679 $665 $664 $748 forward $583 $-1 #
edge $-1 $667 -1.7942048699627478 $685 18.239858207393084 $664 $751 forward 7 unknown #
straight-curve $-1 -44.96779246940477 -1.7942048699627478 -8.2228266687151681 1 0 0 I I #
point $-1 -40.828882717368082 -1.7942048699627478 -8.2228266687151681 #
straight-curve $-1 -40.828882717368082 0 -8.2228266687151681 0 1 0 I I #
straight-curve $-1 0 18.239858207393084 -8.2228266687151681 1 0 0 I I #
point $-1 -40.828882717368082 18.239858207393084 -8.2228266687151681 #
face $-1 $528 $770 $18 $-1 $823 reversed single #
loop $-1 $-1 $767 $688 #
coedge $-1 $718 $824 $691 $759 forward $689 $-1 #
coedge $-1 $694 $691 $825 $826 reversed $609 $-1 #
coedge $-1 $691 $694 $717 $787 reversed $609 $-1 #
edge $-1 $827 -8.2228266687151681 $789 8.2228266687151681 $756 $828 forward 7 unknown #
coedge $-1 $825 $697 $692 $761 forward $770 $-1 #
edge $-1 $702 -2.1870405194408882 $765 2.1870405194408882 $692 $829 forward 7 unknown #
coedge $-1 $699 $717 $693 $763 forward $332 $-1 #
edge $-1 $764 -2.1870405194408882 $701 2.1870405194408882 $693 $830 forward 7 unknown #
vertex $-1 $787 $831 #
vertex $-1 $826 $832 #
straight-curve $-1 -49.106702221441459 -1.7942048699627478 0 0 0 -1 I I #
coedge $-1 $833 $704 $696 $768 forward $755 $-1 #
edge $-1 $773 -8.2228266687151681 $771 8.2228266687151681 $767 $834 forward 7 unknown #
coedge $-1 $697 $709 $833 $835 forward $770 $-1 #
loop $-1 $-1 $781 $754 #
vertex $-1 $698 $836 #
straight-curve $-1 -44.96779246940477 -6.1682859088445241 -8.2228266687151681 -1 0 0 I I #
vertex $-1 $705 $837 #
straight-curve $-1 -44.96779246940477 -6.1682859088445241 8.2228266687151681 1 0 0 I I #
point $-1 -49.106702221441459 -6.1682859088445241 8.2228266687151681 #
point $-1 -49.106702221441459 -6.1682859088445241 -8.2228266687151681 #
coedge $-1 $704 $833 $706 $779 reversed $755 $-1 #
straight-curve $-1 -40.828882717368082 0 8.2228266687151681 0 -1 0 I I #
edge $-1 $707 -8.2228266687151681 $782 8.2228266687151681 $777 $838 forward 7 unknown #
point $-1 -40.828882717368082 -18.239858207393084 8.2228266687151681 #
coedge $-1 $709 $839 $711 $784 forward $770 $-1 #
vertex $-1 $835 $840 #
straight-curve $-1 0 -18.239858207393084 -8.2228266687151681 -1 0 0 I I #
edge $-1 $793 -18.239858207393084 $712 18.239858207393084 $711 $841 forward 7 unknown #
point $-1 40.828882717368082 -18.239858207393084 -8.2228266687151681 #
plane-surface $-1 40.828882717368082 0 0 -1 0 0 0 0 1 forward_v I I I I #
edge $-1 $789 -4.1389097520366889 $764 4.1389097520366889 $758 $842 forward 7 unknown #
coedge $-1 $824 $718 $721 $791 forward $689 $-1 #
vertex $-1 $787 $843 #
coedge $-1 $721 $720 $839 $844 reversed $715 $-1 #
edge $-1 $722 -8.2228266687151681 $845 8.2228266687151681 $721 $846 forward 7 unknown #
point $-1 -40.828882717368082 18.239858207393084 8.2228266687151681 #
vertex $-1 $784 $847 #
straight-curve $-1 40.828882717368082 18.239858207393084 0 0 0 -1 I I #
face $-1 $848 $849 $19 $-1 $850 reversed single #
loop $-1 $-1 $851 $726 #
plane-surface $-1 -44.96779246940477 -1.7942048699627478 0 0 -1 0 0 0 -1 forward_v I I I I #
coedge $-1 $852 $853 $854 $855 forward $727 $-1 #
coedge $-1 $856 $729 $857 $858 reversed $639 $-1 #
coedge $-1 $729 $856 $859 $860 reversed $639 $-1 #
coedge $-1 $853 $852 $729 $802 reversed $727 $-1 #
edge $-1 $861 -8.2228266687151681 $862 8.2228266687151681 $801 $863 forward 7 unknown #
coedge $-1 $730 $859 $864 $865 forward $535 $-1 #
coedge $-1 $866 $731 $730 $805 reversed $650 $-1 #
edge $-1 $867 -40.828882717368082 $733 -26.444727437814805 $804 $743 forward 7 unknown #
straight-curve $-1 -26.444727437814805 -18.239858207393084 33.102619824026462 0 0 1 I I #
point $-1 -26.444727437814805 -18.239858207393084 8.2228266687151681 #
straight-curve $-1 -9.846677937565417 -18.239858207393084 1.8580428625511305 -1 0 0 I I #
coedge $-1 $737 $866 $868 $869 reversed $650 $-1 #
coedge $-1 $870 $740 $737 $811 forward $818 $-1 #
edge $-1 $742 -8.2228266687151681 $871 8.2228266687151681 $810 $872 forward 7 unknown #
face $-1 $873 $874 $19 $-1 $875 reversed single #
plane-surface $-1 0 -18.239858207393084 0 0 1 0 0 0 1 forward_v I I I I #
coedge $-1 $876 $739 $877 $878 forward $535 $-1 #
coedge $-1 $879 $880 $739 $816 reversed $874 $-1 #
edge $-1 $819 -40.828882717368082 $881 40.828882717368082 $815 $882 forward 7 unknown #
coedge $-1 $740 $870 $879 $883 reversed $818 $-1 #
loop $-1 $-1 $810 $873 #
vertex $-1 $741 $884 #
straight-curve $-1 40.828882717368082 0 8.2228266687151681 0 1 0 I I #
point $-1 40.828882717368082 -18.239858207393084 8.2228266687151681 #
point $-1 -26.444727437814805 -18.239858207393084 1.8580428625511303 #
plane-surface $-1 0 0 -8.2228266687151681 0 0 1 1 0 0 forward_v I I I I #
coedge $-1 $756 $788 $885 $886 reversed $689 $-1 #
coedge $-1 $885 $760 $757 $826 forward $770 $-1 #
edge $-1 $765 -4.1389097520366889 $827 4.1389097520366889 $757 $887 forward 7 unknown #
vertex $-1 $886 $888 #
straight-curve $-1 -40.828882717368082 -1.7942048699627478 0 0 0 1 I I #
straight-curve $-1 -49.106702221441459 -3.9812453894036359 -8.2228266687151681 0 1 0 I I #
straight-curve $-1 -49.106702221441459 -3.9812453894036359 8.2228266687151681 0 -1 0 I I #
point $-1 -49.106702221441459 -1.7942048699627478 8.2228266687151681 #
point $-1 -49.106702221441459 -1.7942048699627478 -8.2228266687151681 #
coedge $-1 $777 $767 $769 $835 reversed $755 $-1 #
straight-curve $-1 -40.828882717368082 -6.1682859088445241 0 0 0 -1 I I #
edge $-1 $782 -18.239858207393084 $771 -6.1682859088445241 $833 $889 forward 7 unknown #
point $-1 -40.828882717368082 -6.1682859088445241 -8.2228266687151681 #
point $-1 -40.828882717368082 -6.1682859088445241 8.2228266687151681 #
straight-curve $-1 -40.828882717368082 -18.239858207393084 0 0 0 -1 I I #
coedge $-1 $781 $885 $790 $844 forward $770 $-1 #
point $-1 -40.828882717368082 -18.239858207393084 -8.2228266687151681 #
straight-curve $-1 40.828882717368082 0 -8.2228266687151681 0 -1 0 I I #
straight-curve $-1 -44.96779246940477 -1.7942048699627478 8.2228266687151681 -1 0 0 I I #
point $-1 -40.828882717368082 -1.7942048699627478 8.2228266687151681 #
edge $-1 $845 -40.828882717368082 $793 40.828882717368082 $790 $890 forward 7 unknown #
vertex $-1 $844 $891 #
straight-curve $-1 -40.828882717368082 18.239858207393084 0 0 0 -1 I I #
point $-1 40.828882717368082 18.239858207393084 -8.2228266687151681 #
face $-1 $892 $893 $19 $-1 $850 reversed single #
loop $-1 $-1 $894 $795 #
plane-surface $-1 -40.828882717368082 0 0 1 0 0 0 0 -1 forward_v I I I I #
coedge $-1 $895 $896 $894 $897 reversed $796 $-1 #
coedge $-1 $801 $798 $898 $899 reversed $727 $-1 #
coedge $-1 $798 $801 $900 $901 reversed $727 $-1 #
coedge $-1 $896 $895 $798 $855 reversed $796 $-1 #
edge $-1 $902 -8.2228266687151681 $903 8.2228266687151681 $854 $904 forward 7 unknown #
coedge $-1 $800 $799 $905 $906 reversed $639 $-1 #
coedge $-1 $898 $907 $799 $858 forward $908 $-1 #
edge $-1 $909 -4.1389097520366889 $862 4.1389097520366889 $799 $910 forward 7 unknown #
coedge $-1 $803 $900 $800 $860 forward $535 $-1 #
edge $-1 $861 -4.1389097520366889 $911 4.1389097520366889 $800 $912 forward 7 unknown #
vertex $-1 $901 $913 #
vertex $-1 $899 $914 #
straight-curve $-1 -49.106702221441459 -6.1682859088445241 0 0 0 -1 I I #
coedge $-1 $905 $915 $803 $865 reversed $893 $-1 #
edge $-1 $911 6.1682859088445241 $867 18.239858207393084 $864 $916 forward 7 unknown #
coedge $-1 $809 $804 $915 $917 forward $650 $-1 #
vertex $-1 $865 $918 #
coedge $-1 $907 $919 $809 $869 forward $908 $-1 #
edge $-1 $871 -40.828882717368082 $920 40.828882717368082 $809 $921 forward 7 unknown #
coedge $-1 $817 $810 $919 $922 reversed $818 $-1 #
vertex $-1 $811 $923 #
straight-curve $-1 40.828882717368082 -18.239858207393084 0 0 0 -1 I I #
face $-1 $-1 $818 $19 $-1 $924 reversed single #
loop $-1 $-1 $879 $812 #
plane-surface $-1 0 18.239858207393084 0 0 -1 0 0 0 -1 forward_v I I I I #
coedge $-1 $900 $814 $896 $925 forward $535 $-1 #
coedge $-1 $926 $894 $814 $878 reversed $849 $-1 #
edge $-1 $881 -18.239858207393084 $927 1.7942048699627478 $877 $916 forward 7 unknown #
coedge $-1 $928 $815 $817 $883 forward $874 $-1 #
coedge $-1 $815 $928 $926 $929 reversed $874 $-1 #
vertex $-1 $816 $930 #
straight-curve $-1 0 18.239858207393084 8.2228266687151681 -1 0 0 I I #
edge $-1 $819 -8.2228266687151681 $931 8.2228266687151681 $817 $932 forward 7 unknown #
point $-1 40.828882717368082 18.239858207393084 8.2228266687151681 #
coedge $-1 $839 $825 $824 $886 forward $770 $-1 #
edge $-1 $827 -1.7942048699627478 $845 18.239858207393084 $824 $889 forward 7 unknown #
straight-curve $-1 -44.96779246940477 -1.7942048699627478 -8.2228266687151681 1 0 0 I I #
point $-1 -40.828882717368082 -1.7942048699627478 -8.2228266687151681 #
straight-curve $-1 -40.828882717368082 0 -8.2228266687151681 0 1 0 I I #
straight-curve $-1 0 18.239858207393084 -8.2228266687151681 1 0 0 I I #
point $-1 -40.828882717368082 18.239858207393084 -8.2228266687151681 #
face $-1 $738 $908 $19 $-1 $933 reversed single #
loop $-1 $-1 $905 $848 #
coedge $-1 $877 $934 $851 $897 forward $849 $-1 #
coedge $-1 $854 $851 $935 $936 reversed $796 $-1 #
coedge $-1 $851 $854 $876 $925 reversed $796 $-1 #
edge $-1 $937 -8.2228266687151681 $927 8.2228266687151681 $894 $938 forward 7 unknown #
coedge $-1 $935 $857 $852 $899 forward $908 $-1 #
edge $-1 $862 -2.1870405194408882 $903 2.1870405194408882 $852 $939 forward 7 unknown #
coedge $-1 $859 $876 $853 $901 forward $535 $-1 #
edge $-1 $902 -2.1870405194408882 $861 2.1870405194408882 $853 $940 forward 7 unknown #
vertex $-1 $925 $941 #
vertex $-1 $936 $942 #
straight-curve $-1 -49.106702221441459 -1.7942048699627478 0 0 0 -1 I I #
coedge $-1 $943 $864 $856 $906 forward $893 $-1 #
edge $-1 $911 -8.2228266687151681 $909 8.2228266687151681 $905 $944 forward 7 unknown #
coedge $-1 $857 $868 $943 $945 forward $908 $-1 #
loop $-1 $-1 $919 $892 #
vertex $-1 $858 $946 #
straight-curve $-1 -44.96779246940477 -6.1682859088445241 -8.2228266687151681 -1 0 0 I I #
vertex $-1 $865 $947 #
straight-curve $-1 -44.96779246940477 -6.1682859088445241 8.2228266687151681 1 0 0 I I #
point $-1 -49.106702221441459 -6.1682859088445241 8.2228266687151681 #
point $-1 -49.106702221441459 -6.1682859088445241 -8.2228266687151681 #
coedge $-1 $864 $943 $866 $917 reversed $893 $-1 #
straight-curve $-1 -40.828882717368082 0 8.2228266687151681 0 -1 0 I I #
edge $-1 $867 -8.2228266687151681 $920 8.2228266687151681 $915 $948 forward 7 unknown #
point $-1 -40.828882717368082 -18.239858207393084 8.2228266687151681 #
coedge $-1 $868 $949 $870 $922 forward $908 $-1 #
vertex $-1 $945 $950 #
straight-curve $-1 0 -18.239858207393084 -8.2228266687151681 -1 0 0 I I #
edge $-1 $931 -18.239858207393084 $871 18.239858207393084 $870 $951 forward 7 unknown #
point $-1 40.828882717368082 -18.239858207393084 -8.2228266687151681 #
plane-surface $-1 40.828882717368082 0 0 -1 0 0 0 0 1 forward_v I I I I #
edge $-1 $927 -4.1389097520366889 $902 4.1389097520366889 $896 $952 forward 7 unknown #
coedge $-1 $934 $877 $880 $929 forward $849 $-1 #
vertex $-1 $925 $953 #
coedge $-1 $880 $879 $949 $954 reversed $874 $-1 #
edge $-1 $881 -8.2228266687151681 $955 8.2228266687151681 $880 $956 forward 7 unknown #
point $-1 -40.828882717368082 18.239858207393084 8.2228266687151681 #
vertex $-1 $922 $957 #
straight-curve $-1 40.828882717368082 18.239858207393084 0 0 0 -1 I I #
plane-surface $-1 0 0 -8.2228266687151681 0 0 1 1 0 0 forward_v I I I I #
coedge $-1 $894 $926 $958 $959 reversed $849 $-1 #
coedge $-1 $958 $898 $895 $936 forward $908 $-1 #
edge $-1 $903 -4.1389097520366889 $937 4.1389097520366889 $895 $960 forward 7 unknown #
vertex $-1 $959 $961 #
straight-curve $-1 -40.828882717368082 -1.7942048699627478 0 0 0 1 I I #
straight-curve $-1 -49.106702221441459 -3.9812453894036359 -8.2228266687151681 0 1 0 I I #
straight-curve $-1 -49.106702221441459 -3.9812453894036359 8.2228266687151681 0 -1 0 I I #
point $-1 -49.106702221441459 -1.7942048699627478 8.2228266687151681 #
point $-1 -49.106702221441459 -1.7942048699627478 -8.2228266687151681 #
coedge $-1 $915 $905 $907 $945 reversed $893 $-1 #
straight-curve $-1 -40.828882717368082 -6.1682859088445241 0 0 0 -1 I I #
edge $-1 $920 -18.239858207393084 $909 -6.1682859088445241 $943 $962 forward 7 unknown #
point $-1 -40.828882717368082 -6.1682859088445241 -8.2228266687151681 #
point $-1 -40.828882717368082 -6.1682859088445241 8.2228266687151681 #
straight-curve $-1 -40.828882717368082 -18.239858207393084 0 0 0 -1 I I #
coedge $-1 $919 $958 $928 $954 forward $908 $-1 #
point $-1 -40.828882717368082 -18.239858207393084 -8.2228266687151681 #
straight-curve $-1 40.828882717368082 0 -8.2228266687151681 0 -1 0 I I #
straight-curve $-1 -44.96779246940477 -1.7942048699627478 8.2228266687151681 -1 0 0 I I #
point $-1 -40.828882717368082 -1.7942048699627478 8.2228266687151681 #
edge $-1 $955 -40.828882717368082 $931 40.828882717368082 $928 $963 forward 7 unknown #
vertex $-1 $954 $964 #
straight-curve $-1 -40.828882717368082 18.239858207393084 0 0 0 -1 I I #
point $-1 40.828882717368082 18.239858207393084 -8.2228266687151681 #
coedge $-1 $949 $935 $934 $959 forward $908 $-1 #
edge $-1 $937 -1.7942048699627478 $955 18.239858207393084 $934 $962 forward 7 unknown #
straight-curve $-1 -44.96779246940477 -1.7942048699627478 -8.2228266687151681 1 0 0 I I #
point $-1 -40.828882717368082 -1.7942048699627478 -8.2228266687151681 #
straight-curve $-1 -40.828882717368082 0 -8.2228266687151681 0 1 0 I I #
straight-curve $-1 0 18.239858207393084 -8.2228266687151681 1 0 0 I I #
point $-1 -40.828882717368082 18.239858207393084 -8.2228266687151681 #
End-of-ACIS-data 