500 0 7 0           
7 Unknown 11 ACIS 5.0 NT 24 Thu Mar 25 21:13:50 1999 
-1 9.9999999999999995e-007 1e-010 
body $-1 $7 $-1 $8 #
body $-1 $9 $-1 $10 #
body $-1 $11 $-1 $12 #
body $-1 $13 $-1 $14 #
body $-1 $15 $-1 $16 #
body $-1 $17 $-1 $18 #
body $-1 $19 $-1 $20 #
lump $-1 $-1 $21 $0 #
transform $-1 1 0 0 0 1 0 0 0 1 71.248512222663038 39.151130308699578 12.33953011108933 1 rotate no_reflect no_shear #
lump $-1 $-1 $22 $1 #
transform $-1 1 0 0 0 1 0 0 0 1 71.248512222663038 39.151130308699578 12.33953011108933 1 rotate no_reflect no_shear #
lump $-1 $-1 $23 $2 #
transform $-1 1 0 0 0 1 0 0 0 1 71.248512222663038 39.151130308699578 12.33953011108933 1 rotate no_reflect no_shear #
lump $-1 $-1 $24 $3 #
transform $-1 1 0 0 0 1 0 0 0 1 71.248512222663038 39.151130308699578 12.33953011108933 1 rotate no_reflect no_shear #
lump $-1 $-1 $25 $4 #
transform $-1 1 0 0 0 1 0 0 0 1 71.248512222663038 39.151130308699578 12.33953011108933 1 rotate no_reflect no_shear #
lump $-1 $-1 $26 $5 #
transform $-1 1 0 0 0 1 0 0 0 1 71.248512222663038 39.151130308699578 12.33953011108933 1 rotate no_reflect no_shear #
lump $-1 $-1 $27 $6 #
transform $-1 1 0 0 0 1 0 0 0 1 71.248512222663038 39.151130308699578 12.33953011108933 1 rotate no_reflect no_shear #
shell $-1 $-1 $-1 $28 $-1 $7 #
shell $-1 $-1 $-1 $29 $-1 $9 #
shell $-1 $-1 $-1 $30 $-1 $11 #
shell $-1 $-1 $-1 $31 $-1 $13 #
shell $-1 $-1 $-1 $32 $-1 $15 #
shell $-1 $-1 $-1 $33 $-1 $17 #
shell $-1 $-1 $-1 $34 $-1 $19 #
face $-1 $35 $36 $21 $-1 $37 reversed single #
face $-1 $38 $39 $22 $-1 $40 forward single #
face $-1 $41 $42 $23 $-1 $43 reversed single #
face $-1 $44 $45 $24 $-1 $46 forward single #
face $-1 $47 $48 $25 $-1 $49 reversed single #
face $-1 $50 $51 $26 $-1 $52 forward single #
face $-1 $53 $54 $27 $-1 $55 forward single #
face $-1 $56 $57 $21 $-1 $58 forward single #
loop $-1 $-1 $59 $28 #
plane-surface $-1 0 -39.151130308699578 0 0 1 0 0 0 1 forward_v I I I I #
face $-1 $60 $61 $22 $-1 $62 forward single #
loop $-1 $-1 $63 $29 #
plane-surface $-1 0 -39.151130308699578 0 0 1 0 0 0 1 forward_v I I I I #
face $-1 $64 $65 $23 $-1 $66 reversed single #
loop $-1 $-1 $67 $30 #
plane-surface $-1 -195.87921909781477 31.320112634217679 73.290092485559668 0 1 0 -0.87461971476443456 0 0.48480960649040278 forward_v I I I I #
face $-1 $68 $69 $24 $-1 $70 forward single #
loop $-1 $71 $72 $31 #
cone-surface $-1 -66.961477458481909 35.235621471458629 7.1460286532610144 0.87461971476443456 0 -0.48480960649040278 0.72721440973560414 0 1.311929572146652 1 I I 0 1 1.5 forward I I I I #
face $-1 $73 $74 $25 $-1 $75 reversed single #
loop $-1 $-1 $76 $32 #
plane-surface $-1 64.215525143235681 -0.89442632773843478 202.11417002069049 0 -1 0 -0.68199836817093118 0 -0.7313536940579346 forward_v I I I I #
face $-1 $77 $78 $26 $-1 $79 forward single #
loop $-1 $80 $81 $33 #
cone-surface $-1 64.003513383426423 -11.660996563097633 5.4418593556080728 -0.68199836817093118 0 -0.7313536940579346 0.7313536940579346 0 -0.68199836817093118 1 I I 0 1 1 forward I I I I #
face $-1 $82 $83 $27 $-1 $84 forward single #
loop $-1 $85 $86 $34 #
cone-surface $-1 64.003513383426423 -5.2010544218821195 5.4418593556080728 -0.68199836817093118 0 -0.7313536940579346 0.7313536940579346 0 -0.68199836817093118 1 I I 0 1 1 forward I I I I #
face $-1 $87 $88 $21 $-1 $89 reversed single #
loop $-1 $-1 $90 $35 #
plane-surface $-1 0 0 12.33953011108933 0 0 1 1 0 0 forward_v I I I I #
coedge $-1 $91 $92 $93 $94 reversed $36 $-1 #
face $-1 $95 $96 $22 $-1 $97 reversed single #
loop $-1 $-1 $98 $38 #
plane-surface $-1 0 0 12.33953011108933 0 0 1 1 0 0 forward_v I I I I #
coedge $-1 $99 $100 $101 $102 forward $39 $-1 #
face $-1 $103 $104 $23 $-1 $105 reversed single #
loop $-1 $-1 $106 $41 #
plane-surface $-1 -71.24851222266301 35.235621471458629 4.2061661381678306 -0.87461971476443456 0 0.48480960649040278 0.48480960649040278 0 0.87461971476443456 forward_v I I I I #
coedge $-1 $107 $108 $109 $110 reversed $42 $-1 #
face $-1 $-1 $111 $24 $-1 $112 forward single #
loop $-1 $113 $114 $44 #
cone-surface $-1 -64.272676459089823 35.235621471458629 5.6556019770256487 0.87461971476443456 0 -0.48480960649040278 0.36360720486780207 0 0.65596478607332598 1 I I -0.70710678118654757 0.70710678118654757 0.75 forward I I I I #
loop $-1 $-1 $115 $31 #
coedge $-1 $72 $72 $116 $117 reversed $45 $-1 #
face $-1 $118 $119 $25 $-1 $120 reversed single #
loop $-1 $-1 $121 $47 #
plane-surface $-1 -32.967212997689998 -8.4310254924898729 97.898444800337458 0.68199836817093118 0 0.7313536940579346 0.7313536940579346 0 -0.68199836817093118 forward_v I I I I #
coedge $-1 $122 $123 $124 $125 reversed $48 $-1 #
face $-1 $-1 $126 $26 $-1 $127 forward single #
loop $-1 $128 $129 $50 #
cone-surface $-1 62.650027501783683 -11.660996563097633 3.9904234789366217 -0.68199836817093118 0 -0.7313536940579346 0.3656768470289673 0 -0.34099918408546559 1 I I -0.70710678118654746 0.70710678118654746 0.5 forward I I I I #
loop $-1 $-1 $130 $33 #
coedge $-1 $81 $81 $131 $132 reversed $51 $-1 #
face $-1 $-1 $133 $27 $-1 $134 forward single #
loop $-1 $135 $136 $53 #
cone-surface $-1 62.650027501783683 -5.2010544218821195 3.9904234789366217 -0.68199836817093118 0 -0.7313536940579346 0.3656768470289673 0 -0.34099918408546559 1 I I -0.70710678118654746 0.70710678118654746 0.5 forward I I I I #
loop $-1 $-1 $137 $34 #
coedge $-1 $86 $86 $138 $139 reversed $54 $-1 #
face $-1 $140 $141 $21 $-1 $142 reversed single #
loop $-1 $-1 $143 $56 #
plane-surface $-1 0 0 -12.33953011108933 0 0 1 1 0 0 forward_v I I I I #
coedge $-1 $144 $145 $146 $147 forward $57 $-1 #
coedge $-1 $148 $59 $149 $150 reversed $36 $-1 #
coedge $-1 $59 $148 $151 $152 forward $36 $-1 #
coedge $-1 $153 $143 $59 $94 forward $88 $-1 #
edge $-1 $154 -71.248512222663038 $155 71.248512222663038 $59 $156 forward 7 unknown #
face $-1 $157 $158 $22 $-1 $159 reversed single #
loop $-1 $-1 $160 $60 #
plane-surface $-1 -71.248512222663038 0 0 1 0 0 0 0 -1 forward_v I I I I #
coedge $-1 $161 $162 $100 $163 forward $61 $-1 #
coedge $-1 $164 $63 $165 $166 reversed $39 $-1 #
coedge $-1 $63 $164 $98 $163 reversed $39 $-1 #
coedge $-1 $167 $168 $63 $102 reversed $169 $-1 #
edge $-1 $170 -12.33953011108933 $171 12.33953011108933 $101 $172 forward 7 unknown #
face $-1 $173 $174 $23 $-1 $175 reversed single #
loop $-1 $-1 $176 $64 #
plane-surface $-1 0 39.151130308699578 0 0 -1 0 0 0 -1 forward_v I I I I #
coedge $-1 $177 $178 $179 $180 reversed $65 $-1 #
coedge $-1 $108 $67 $181 $182 reversed $42 $-1 #
coedge $-1 $67 $107 $177 $183 reversed $42 $-1 #
coedge $-1 $179 $184 $67 $110 forward $185 $-1 #
edge $-1 $186 26.691097326244346 $187 31.199494427969114 $109 $188 forward 7 unknown #
loop $-1 $-1 $116 $68 #
plane-surface $-1 -71.24851222266301 35.235621471458629 4.2061661381678306 -0.87461971476443456 0 0.48480960649040278 0.48480960649040278 0 0.87461971476443456 forward_v I I I I #
loop $-1 $-1 $189 $44 #
coedge $-1 $114 $114 $115 $190 reversed $69 $-1 #
coedge $-1 $115 $115 $114 $190 forward $71 $-1 #
coedge $-1 $116 $116 $72 $117 forward $111 $-1 #
edge $-1 $191 0 $191 6.2831853071796004 $116 $192 forward 7 unknown #
face $-1 $193 $194 $25 $-1 $195 reversed single #
loop $-1 $-1 $196 $73 #
plane-surface $-1 64.215525143235681 -15.967624657241311 202.11417002069049 0 1 0 0.68199836817093118 0 0.7313536940579346 forward_v I I I I #
coedge $-1 $197 $198 $199 $200 reversed $74 $-1 #
coedge $-1 $123 $76 $201 $202 reversed $48 $-1 #
coedge $-1 $76 $122 $197 $203 reversed $48 $-1 #
coedge $-1 $199 $204 $76 $125 forward $205 $-1 #
edge $-1 $206 -39.140749651045198 $207 -26.675725367686553 $124 $208 forward 7 unknown #
loop $-1 $-1 $131 $77 #
plane-surface $-1 -32.967212997689998 -8.4310254924898729 97.898444800337458 0.68199836817093118 0 0.7313536940579346 0.7313536940579346 0 -0.68199836817093118 forward_v I I I I #
loop $-1 $-1 $209 $50 #
coedge $-1 $129 $129 $130 $210 reversed $78 $-1 #
coedge $-1 $130 $130 $129 $210 forward $80 $-1 #
coedge $-1 $131 $131 $81 $132 forward $126 $-1 #
edge $-1 $211 0 $211 6.2831853071796004 $131 $212 forward 7 unknown #
loop $-1 $-1 $138 $82 #
plane-surface $-1 -32.967212997689998 -8.4310254924898729 97.898444800337458 0.68199836817093118 0 0.7313536940579346 0.7313536940579346 0 -0.68199836817093118 forward_v I I I I #
loop $-1 $-1 $213 $53 #
coedge $-1 $136 $136 $137 $214 reversed $83 $-1 #
coedge $-1 $137 $137 $136 $214 forward $85 $-1 #
coedge $-1 $138 $138 $86 $139 forward $133 $-1 #
edge $-1 $215 0 $215 6.2831853071796004 $138 $216 forward 7 unknown #
face $-1 $217 $218 $21 $-1 $219 reversed single #
loop $-1 $-1 $220 $87 #
plane-surface $-1 -71.248512222663038 0 0 1 0 0 0 0 -1 forward_v I I I I #
coedge $-1 $93 $221 $222 $223 forward $88 $-1 #
coedge $-1 $224 $90 $225 $226 forward $57 $-1 #
coedge $-1 $90 $224 $148 $227 forward $57 $-1 #
coedge $-1 $149 $228 $90 $147 reversed $229 $-1 #
edge $-1 $230 -39.151130308699578 $231 39.151130308699578 $146 $232 forward 7 unknown #
coedge $-1 $92 $91 $145 $227 reversed $36 $-1 #
coedge $-1 $222 $146 $91 $150 forward $229 $-1 #
edge $-1 $230 -12.33953011108933 $154 12.33953011108933 $149 $233 forward 7 unknown #
coedge $-1 $234 $235 $92 $152 reversed $141 $-1 #
edge $-1 $236 -12.33953011108933 $155 12.33953011108933 $151 $237 forward 7 unknown #
coedge $-1 $221 $93 $235 $238 forward $88 $-1 #
vertex $-1 $150 $239 #
vertex $-1 $238 $240 #
straight-curve $-1 0 -39.151130308699578 -12.33953011108933 -1 0 0 I I #
face $-1 $241 $169 $22 $-1 $242 reversed single #
loop $-1 $-1 $243 $95 #
plane-surface $-1 -69.009606971359617 -54.991679638703459 0 0 1 0 0 0 1 forward_v I I I I #
coedge $-1 $244 $245 $164 $246 forward $96 $-1 #
coedge $-1 $247 $98 $245 $248 forward $61 $-1 #
coedge $-1 $98 $247 $167 $249 forward $61 $-1 #
edge $-1 $170 66.770701720056195 $250 71.248512222663038 $98 $251 forward 7 unknown #
coedge $-1 $100 $99 $160 $246 reversed $39 $-1 #
coedge $-1 $252 $253 $99 $166 forward $254 $-1 #
edge $-1 $255 -71.248512222663038 $171 -66.770701720056195 $165 $256 forward 7 unknown #
coedge $-1 $257 $101 $162 $249 reversed $169 $-1 #
coedge $-1 $101 $257 $252 $258 reversed $169 $-1 #
loop $-1 $-1 $257 $157 #
vertex $-1 $163 $259 #
vertex $-1 $258 $260 #
straight-curve $-1 -66.770701720056195 -39.151130308699578 0 0 0 -1 I I #
face $-1 $-1 $185 $23 $-1 $261 forward single #
loop $-1 $-1 $262 $103 #
plane-surface $-1 -71.248512222663038 0 0 1 0 0 0 0 -1 forward_v I I I I #
coedge $-1 $263 $264 $178 $265 forward $104 $-1 #
coedge $-1 $266 $106 $108 $183 forward $65 $-1 #
coedge $-1 $106 $266 $176 $265 reversed $65 $-1 #
coedge $-1 $267 $109 $106 $180 forward $185 $-1 #
edge $-1 $187 13.702301898488365 $268 21.533319572970264 $179 $269 forward 7 unknown #
coedge $-1 $270 $262 $107 $182 forward $174 $-1 #
edge $-1 $271 -32.438880104612053 $186 -24.305516131690503 $181 $272 forward 7 unknown #
edge $-1 $187 -9.2993147028615724 $271 5.8834582418425628e-014 $108 $273 forward 7 unknown #
coedge $-1 $109 $267 $270 $274 forward $185 $-1 #
loop $-1 $-1 $179 $173 #
vertex $-1 $182 $275 #
vertex $-1 $110 $276 #
straight-curve $-1 -97.939609548907384 31.320112634217679 12.339530111089331 1 0 0 I I #
coedge $-1 $189 $189 $-1 $277 reversed $113 $-1 #
edge $-1 $278 0 $278 6.2831853071796004 $114 $279 forward 7 unknown #
vertex $-1 $117 $280 #
ellipse-curve $-1 -68.994313671800654 35.235621471458629 8.2728481246285668 -0.87461971476443456 0 0.48480960649040278 0.72721440973560414 0 1.311929572146652 1 I I #
face $-1 $-1 $205 $25 $-1 $281 forward single #
loop $-1 $-1 $282 $118 #
plane-surface $-1 71.248512222663038 0 0 -1 0 0 0 0 1 forward_v I I I I #
coedge $-1 $283 $284 $285 $286 reversed $119 $-1 #
coedge $-1 $287 $121 $123 $203 forward $74 $-1 #
coedge $-1 $121 $287 $283 $288 forward $74 $-1 #
coedge $-1 $285 $124 $121 $200 forward $205 $-1 #
edge $-1 $207 -3.3210864185065017 $289 11.752111910996375 $199 $290 forward 7 unknown #
coedge $-1 $291 $292 $122 $202 forward $194 $-1 #
edge $-1 $293 -100.34137835093347 $206 -88.717554899255916 $201 $294 forward 7 unknown #
edge $-1 $207 125.4532542632188 $293 142.49702444532608 $123 $295 forward 7 unknown #
coedge $-1 $124 $285 $291 $296 forward $205 $-1 #
loop $-1 $-1 $285 $193 #
vertex $-1 $202 $297 #
vertex $-1 $125 $298 #
straight-curve $-1 32.10776257161784 -0.89442632773843478 12.339530111089331 -1 0 0 I I #
coedge $-1 $209 $209 $-1 $299 reversed $128 $-1 #
edge $-1 $300 0 $300 6.2831853071796004 $129 $301 forward 7 unknown #
vertex $-1 $132 $302 #
ellipse-curve $-1 65.016000080983702 -11.660996563097633 6.5276183852505669 0.68199836817093118 0 0.7313536940579346 0.7313536940579346 0 -0.68199836817093118 1 I I #
coedge $-1 $213 $213 $-1 $303 reversed $135 $-1 #
edge $-1 $304 0 $304 6.2831853071796004 $136 $305 forward 7 unknown #
vertex $-1 $139 $306 #
ellipse-curve $-1 65.016000080983702 -5.2010544218821195 6.5276183852505669 0.68199836817093118 0 0.7313536940579346 0.7313536940579346 0 -0.68199836817093118 1 I I #
face $-1 $-1 $229 $21 $-1 $307 reversed single #
loop $-1 $-1 $308 $140 #
plane-surface $-1 0 39.151130308699578 0 0 -1 0 0 0 -1 forward_v I I I I #
coedge $-1 $235 $234 $309 $310 forward $141 $-1 #
coedge $-1 $143 $153 $311 $312 forward $88 $-1 #
coedge $-1 $228 $149 $143 $223 reversed $229 $-1 #
edge $-1 $313 -39.151130308699578 $154 39.151130308699578 $222 $314 forward 7 unknown #
coedge $-1 $145 $144 $234 $315 forward $57 $-1 #
coedge $-1 $308 $309 $144 $226 reversed $218 $-1 #
edge $-1 $231 -71.248512222663038 $316 71.248512222663038 $225 $317 forward 7 unknown #
edge $-1 $236 -71.248512222663038 $230 71.248512222663038 $148 $318 forward 7 unknown #
coedge $-1 $146 $222 $308 $319 reversed $229 $-1 #
loop $-1 $-1 $149 $217 #
vertex $-1 $147 $320 #
vertex $-1 $147 $321 #
straight-curve $-1 71.248512222663038 0 12.33953011108933 0 1 0 I I #
straight-curve $-1 71.248512222663038 -39.151130308699578 0 0 0 -1 I I #
coedge $-1 $220 $151 $224 $315 reversed $141 $-1 #
coedge $-1 $151 $220 $153 $238 reversed $141 $-1 #
vertex $-1 $315 $322 #
straight-curve $-1 -71.248512222663038 -39.151130308699578 0 0 0 -1 I I #
edge $-1 $155 -39.151130308699578 $323 39.151130308699578 $235 $324 forward 7 unknown #
point $-1 71.248512222663038 -39.151130308699578 -12.33953011108933 #
point $-1 -71.248512222663038 -39.151130308699578 -12.33953011108933 #
face $-1 $-1 $254 $22 $-1 $325 reversed single #
plane-surface $-1 -66.770701720056195 -47.071404973701519 0 -1 0 0 0 0 1 forward_v I I I I #
coedge $-1 $326 $327 $328 $329 forward $158 $-1 #
coedge $-1 $328 $160 $253 $330 reversed $96 $-1 #
coedge $-1 $160 $328 $161 $248 reversed $96 $-1 #
edge $-1 $250 -12.33953011108933 $255 12.33953011108933 $160 $331 forward 7 unknown #
coedge $-1 $162 $161 $327 $332 forward $61 $-1 #
edge $-1 $250 39.151130308699578 $333 54.991679638703459 $245 $334 forward 7 unknown #
edge $-1 $335 -7.9202746650019407 $170 7.9202746650019407 $167 $336 forward 7 unknown #
vertex $-1 $248 $337 #
straight-curve $-1 0 -39.151130308699578 12.33953011108933 -1 0 0 I I #
coedge $-1 $338 $165 $168 $258 forward $254 $-1 #
coedge $-1 $165 $338 $244 $330 forward $254 $-1 #
loop $-1 $-1 $165 $241 #
vertex $-1 $246 $339 #
straight-curve $-1 0 -39.151130308699578 -12.33953011108933 1 0 0 I I #
coedge $-1 $168 $167 $340 $341 forward $169 $-1 #
edge $-1 $171 -7.9202746650019407 $342 7.9202746650019407 $168 $343 forward 7 unknown #
point $-1 -66.770701720056195 -39.151130308699578 12.33953011108933 #
point $-1 -66.770701720056195 -39.151130308699578 -12.33953011108933 #
plane-surface $-1 0 0 12.33953011108933 0 0 1 1 0 0 forward_v I I I I #
coedge $-1 $181 $344 $266 $345 forward $174 $-1 #
coedge $-1 $264 $176 $344 $346 reversed $104 $-1 #
coedge $-1 $176 $263 $267 $347 reversed $104 $-1 #
edge $-1 $268 6.1322689699782931 $348 15.431583672839924 $176 $349 forward 7 unknown #
coedge $-1 $178 $177 $262 $345 reversed $65 $-1 #
coedge $-1 $184 $179 $264 $347 forward $185 $-1 #
vertex $-1 $347 $350 #
straight-curve $-1 -66.740115120938285 17.617810735729314 12.339530111089331 0 1 0 I I #
coedge $-1 $344 $181 $184 $274 reversed $174 $-1 #
vertex $-1 $182 $351 #
straight-curve $-1 -71.248512222663038 31.320112634217679 36.645046242779834 0 0 1 I I #
straight-curve $-1 -71.24851222266301 31.320112634217679 4.2061661381678306 -0.48480960649040278 0 -0.87461971476443456 I I #
edge $-1 $352 -39.151130308699578 $186 -31.320112634217679 $270 $353 forward 7 unknown #
point $-1 -71.248512222663038 31.320112634217679 12.33953011108933 #
point $-1 -66.74011512093827 31.320112634217679 12.33953011108933 #
edge $-1 $354 1 $354 0 $189 $-1 forward 7 unknown #
vertex $-1 $190 $355 #
ellipse-curve $-1 -64.928641245163149 35.235621471458629 6.0192091818934506 -0.87461971476443456 0 0.48480960649040278 0.72721440973560414 0 1.311929572146652 1 I I #
point $-1 -68.267099262065074 35.235621471458629 9.5847776967752303 #
plane-surface $-1 0 0 12.33953011108933 0 0 1 1 0 0 forward_v I I I I #
coedge $-1 $292 $291 $284 $356 forward $194 $-1 #
coedge $-1 $284 $196 $198 $288 reversed $119 $-1 #
coedge $-1 $196 $283 $282 $356 reversed $119 $-1 #
coedge $-1 $204 $199 $196 $286 forward $205 $-1 #
edge $-1 $289 26.675725367686553 $357 39.140749651045198 $285 $358 forward 7 unknown #
coedge $-1 $198 $197 $292 $359 reversed $74 $-1 #
edge $-1 $360 -142.49702444532608 $289 -125.4532542632188 $283 $361 forward 7 unknown #
vertex $-1 $200 $362 #
straight-curve $-1 58.783487939304386 -4.2155127462449364 12.339530111089331 0 -1 0 I I #
coedge $-1 $282 $201 $204 $296 reversed $194 $-1 #
coedge $-1 $201 $282 $287 $359 forward $194 $-1 #
vertex $-1 $202 $363 #
straight-curve $-1 71.248512222663038 -0.89442632773843478 101.05708501034525 0 0 1 I I #
straight-curve $-1 -32.967212997689998 -0.89442632773843478 97.898444800337458 0.7313536940579346 0 -0.68199836817093118 I I #
edge $-1 $357 -15.967624657241311 $206 -0.89442632773843478 $291 $364 forward 7 unknown #
point $-1 71.248512222663038 -0.89442632773843478 12.33953011108933 #
point $-1 58.783487939304393 -0.89442632773843478 12.339530111089331 #
edge $-1 $365 1 $365 0 $209 $-1 forward 7 unknown #
vertex $-1 $210 $366 #
ellipse-curve $-1 62.991026685869151 -11.660996563097633 4.3561003259655893 0.68199836817093118 0 0.7313536940579346 0.7313536940579346 0 -0.68199836817093118 1 I I #
point $-1 65.747353775041617 -11.660996563097633 5.8456200170796251 #
edge $-1 $367 1 $367 0 $213 $-1 forward 7 unknown #
vertex $-1 $214 $368 #
ellipse-curve $-1 62.991026685869151 -5.2010544218821195 4.3561003259655893 0.68199836817093118 0 0.7313536940579346 0.7313536940579346 0 -0.68199836817093118 1 I I #
point $-1 65.747353775041617 -5.2010544218821195 5.8456200170796251 #
plane-surface $-1 71.248512222663038 0 0 -1 0 0 0 0 1 forward_v I I I I #
coedge $-1 $311 $225 $228 $319 forward $218 $-1 #
coedge $-1 $225 $311 $220 $310 reversed $218 $-1 #
edge $-1 $316 -12.33953011108933 $323 12.33953011108933 $309 $369 forward 7 unknown #
coedge $-1 $309 $308 $221 $312 reversed $218 $-1 #
edge $-1 $323 -71.248512222663038 $313 71.248512222663038 $311 $370 forward 7 unknown #
vertex $-1 $223 $371 #
straight-curve $-1 71.248512222663038 0 -12.33953011108933 0 -1 0 I I #
edge $-1 $316 -39.151130308699578 $236 39.151130308699578 $234 $372 forward 7 unknown #
vertex $-1 $226 $373 #
straight-curve $-1 0 39.151130308699578 12.33953011108933 -1 0 0 I I #
straight-curve $-1 0 -39.151130308699578 12.33953011108933 1 0 0 I I #
edge $-1 $231 -12.33953011108933 $313 12.33953011108933 $228 $374 forward 7 unknown #
point $-1 71.248512222663038 -39.151130308699578 12.33953011108933 #
point $-1 71.248512222663038 39.151130308699578 12.33953011108933 #
point $-1 -71.248512222663038 -39.151130308699578 12.33953011108933 #
vertex $-1 $312 $375 #
straight-curve $-1 -71.248512222663038 0 -12.33953011108933 0 1 0 I I #
plane-surface $-1 0 0 -12.33953011108933 0 0 1 1 0 0 forward_v I I I I #
coedge $-1 $340 $243 $338 $376 reversed $158 $-1 #
coedge $-1 $243 $340 $247 $332 reversed $158 $-1 #
coedge $-1 $245 $244 $243 $329 reversed $96 $-1 #
edge $-1 $333 -12.33953011108933 $377 12.33953011108933 $328 $378 forward 7 unknown #
edge $-1 $377 -54.991679638703459 $255 -39.151130308699578 $244 $379 forward 7 unknown #
straight-curve $-1 -71.248512222663038 -39.151130308699578 0 0 0 -1 I I #
edge $-1 $333 -2.2389052513034216 $335 2.2389052513034216 $327 $380 forward 7 unknown #
vertex $-1 $248 $381 #
straight-curve $-1 -71.248512222663038 0 12.33953011108933 0 -1 0 I I #
vertex $-1 $249 $382 #
straight-curve $-1 -66.770701720056195 -47.071404973701519 12.33953011108933 0 1 0 I I #
point $-1 -71.248512222663038 -39.151130308699578 12.33953011108933 #
coedge $-1 $253 $252 $326 $376 forward $254 $-1 #
point $-1 -71.248512222663038 -39.151130308699578 -12.33953011108933 #
coedge $-1 $327 $326 $257 $341 reversed $158 $-1 #
edge $-1 $335 -12.33953011108933 $342 12.33953011108933 $257 $383 forward 7 unknown #
vertex $-1 $341 $384 #
straight-curve $-1 -66.770701720056195 -47.071404973701519 -12.33953011108933 0 -1 0 I I #
coedge $-1 $262 $270 $263 $346 forward $174 $-1 #
edge $-1 $348 -21.533319572970264 $271 -13.702301898488365 $262 $385 forward 7 unknown #
edge $-1 $352 -12.33953011108933 $348 -4.2061661381677791 $263 $386 forward 7 unknown #
edge $-1 $268 66.74011512093827 $352 71.248512222663038 $264 $387 forward 7 unknown #
vertex $-1 $345 $388 #
straight-curve $-1 -63.76713221470979 39.151130308699578 17.702933448470539 -0.48480960649040278 0 -0.87461971476443456 I I #
point $-1 -66.74011512093827 39.151130308699578 12.33953011108933 #
point $-1 -71.248512222663038 31.320112634217679 4.2061661381677791 #
vertex $-1 $347 $389 #
straight-curve $-1 -71.248512222663038 0 12.33953011108933 0 -1 0 I I #
vertex $-1 $277 $390 #
point $-1 -64.20142683542754 35.235621471458629 7.3311387540401025 #
edge $-1 $357 88.717554899255916 $360 100.34137835093347 $282 $391 forward 7 unknown #
vertex $-1 $296 $392 #
straight-curve $-1 32.10776257161784 -15.967624657241311 12.339530111089331 1 0 0 I I #
edge $-1 $360 -11.752111910996375 $293 3.3210864185065017 $292 $393 forward 7 unknown #
vertex $-1 $359 $394 #
straight-curve $-1 -32.967212997689998 -15.967624657241311 97.898444800337458 -0.7313536940579346 0 0.68199836817093118 I I #
point $-1 58.783487939304393 -15.967624657241311 12.339530111089331 #
point $-1 71.248512222663038 -0.89442632773843478 0.71570665941177936 #
straight-curve $-1 71.248512222663038 0 12.33953011108933 0 1 0 I I #
vertex $-1 $299 $395 #
point $-1 63.722380379927081 -11.660996563097633 3.6741019577946581 #
vertex $-1 $303 $396 #
point $-1 63.722380379927081 -5.2010544218821195 3.6741019577946581 #
straight-curve $-1 -71.248512222663038 39.151130308699578 0 0 0 -1 I I #
straight-curve $-1 0 39.151130308699578 -12.33953011108933 1 0 0 I I #
point $-1 71.248512222663038 39.151130308699578 -12.33953011108933 #
straight-curve $-1 -71.248512222663038 0 12.33953011108933 0 -1 0 I I #
point $-1 -71.248512222663038 39.151130308699578 12.33953011108933 #
straight-curve $-1 71.248512222663038 39.151130308699578 0 0 0 -1 I I #
point $-1 -71.248512222663038 39.151130308699578 -12.33953011108933 #
edge $-1 $342 -2.2389052513034216 $377 2.2389052513034216 $326 $397 forward 7 unknown #
vertex $-1 $330 $398 #
straight-curve $-1 -71.248512222663038 -54.991679638703459 0 0 0 -1 I I #
straight-curve $-1 -71.248512222663038 0 -12.33953011108933 0 1 0 I I #
straight-curve $-1 -69.009606971359617 -54.991679638703459 12.33953011108933 1 0 0 I I #
point $-1 -71.248512222663038 -54.991679638703459 12.33953011108933 #
point $-1 -66.770701720056195 -54.991679638703459 12.33953011108933 #
straight-curve $-1 -66.770701720056195 -54.991679638703459 0 0 0 -1 I I #
point $-1 -66.770701720056195 -54.991679638703459 -12.33953011108933 #
straight-curve $-1 -71.248512222663038 17.617810735729314 4.2061661381677826 0 -1 0 I I #
straight-curve $-1 -71.248512222663038 39.151130308699578 0 0 0 -1 I I #
straight-curve $-1 0 39.151130308699578 12.33953011108933 -1 0 0 I I #
point $-1 -71.248512222663038 39.151130308699578 4.2061661381677791 #
point $-1 -71.248512222663038 39.151130308699578 12.33953011108933 #
point $-1 -63.616711673016496 35.235621471458629 5.2919947721578469 #
straight-curve $-1 71.248512222663038 -15.967624657241311 101.05708501034525 0 0 -1 I I #
point $-1 71.248512222663038 -15.967624657241311 12.33953011108933 #
straight-curve $-1 71.248512222663038 -4.2155127462449364 0.71570665941178646 0 1 0 I I #
point $-1 71.248512222663038 -15.967624657241311 0.71570665941177936 #
point $-1 62.309028317698214 -11.660996563097633 3.6247466319076542 #
point $-1 62.309028317698214 -5.2010544218821195 3.6247466319076542 #
straight-curve $-1 -69.009606971359617 -54.991679638703459 -12.33953011108933 -1 0 0 I I #
point $-1 -71.248512222663038 -54.991679638703459 -12.33953011108933 #
End-of-ACIS-data 