500 0 13 0           
7 Unknown 11 ACIS 5.0 NT 24 Thu Mar 25 22:52:02 1999 
-1 9.9999999999999995e-007 1e-010 
body $-1 $13 $-1 $14 #
body $-1 $15 $-1 $16 #
body $-1 $17 $-1 $18 #
body $-1 $19 $-1 $20 #
body $-1 $21 $-1 $22 #
body $-1 $23 $-1 $24 #
body $-1 $25 $-1 $26 #
body $-1 $27 $-1 $28 #
body $-1 $29 $-1 $30 #
body $-1 $31 $-1 $32 #
body $-1 $33 $-1 $34 #
body $-1 $35 $-1 $36 #
body $-1 $37 $-1 $38 #
lump $-1 $-1 $39 $0 #
transform $-1 1 0 0 0 1 0 0 0 1 63.211157567064426 27.741185008137961 6.7384148599741103 1 rotate no_reflect no_shear #
lump $-1 $-1 $40 $1 #
transform $-1 1 0 0 0 1 0 0 0 1 63.211157567064426 27.741185008137961 6.7384148599741103 1 rotate no_reflect no_shear #
lump $-1 $-1 $41 $2 #
transform $-1 1 0 0 0 1 0 0 0 1 63.211157567064426 27.741185008137961 6.7384148599741103 1 rotate no_reflect no_shear #
lump $-1 $-1 $42 $3 #
transform $-1 1 0 0 0 1 0 0 0 1 63.211157567064426 27.741185008137961 6.7384148599741103 1 rotate no_reflect no_shear #
lump $-1 $-1 $43 $4 #
transform $-1 1 0 0 0 1 0 0 0 1 63.211157567064426 27.741185008137961 6.7384148599741103 1 rotate no_reflect no_shear #
lump $-1 $-1 $44 $5 #
transform $-1 1 0 0 0 1 0 0 0 1 63.211157567064426 27.741185008137961 6.7384148599741103 1 rotate no_reflect no_shear #
lump $-1 $-1 $45 $6 #
transform $-1 1 0 0 0 1 0 0 0 1 63.211157567064426 27.741185008137961 6.7384148599741103 1 rotate no_reflect no_shear #
lump $-1 $-1 $46 $7 #
transform $-1 1 0 0 0 1 0 0 0 1 63.211157567064426 27.741185008137961 6.7384148599741103 1 rotate no_reflect no_shear #
lump $-1 $-1 $47 $8 #
transform $-1 1 0 0 0 1 0 0 0 1 63.211157567064426 27.741185008137961 6.7384148599741103 1 rotate no_reflect no_shear #
lump $-1 $-1 $48 $9 #
transform $-1 1 0 0 0 1 0 0 0 1 63.211157567064426 27.741185008137961 6.7384148599741103 1 rotate no_reflect no_shear #
lump $-1 $-1 $49 $10 #
transform $-1 1 0 0 0 1 0 0 0 1 63.211157567064426 27.741185008137961 6.7384148599741103 1 rotate no_reflect no_shear #
lump $-1 $-1 $50 $11 #
transform $-1 1 0 0 0 1 0 0 0 1 63.211157567064426 27.741185008137961 6.7384148599741103 1 rotate no_reflect no_shear #
lump $-1 $-1 $51 $12 #
transform $-1 1 0 0 0 1 0 0 0 1 63.211157567064426 27.741185008137961 6.7384148599741103 1 rotate no_reflect no_shear #
shell $-1 $-1 $-1 $52 $-1 $13 #
shell $-1 $-1 $-1 $53 $-1 $15 #
shell $-1 $-1 $-1 $54 $-1 $17 #
shell $-1 $-1 $-1 $55 $-1 $19 #
shell $-1 $-1 $-1 $56 $-1 $21 #
shell $-1 $-1 $-1 $57 $-1 $23 #
shell $-1 $-1 $-1 $58 $-1 $25 #
shell $-1 $-1 $-1 $59 $-1 $27 #
shell $-1 $-1 $-1 $60 $-1 $29 #
shell $-1 $-1 $-1 $61 $-1 $31 #
shell $-1 $-1 $-1 $62 $-1 $33 #
shell $-1 $-1 $-1 $63 $-1 $35 #
shell $-1 $-1 $-1 $64 $-1 $37 #
face $-1 $65 $66 $39 $-1 $67 reversed single #
face $-1 $68 $69 $40 $-1 $70 forward single #
face $-1 $71 $72 $41 $-1 $73 reversed single #
face $-1 $74 $75 $42 $-1 $76 forward single #
face $-1 $77 $78 $43 $-1 $79 forward single #
face $-1 $80 $81 $44 $-1 $82 reversed single #
face $-1 $83 $84 $45 $-1 $85 forward single #
face $-1 $86 $87 $46 $-1 $88 reversed single #
face $-1 $89 $90 $47 $-1 $91 forward single #
face $-1 $92 $93 $48 $-1 $94 reversed single #
face $-1 $95 $96 $49 $-1 $97 forward single #
face $-1 $98 $99 $50 $-1 $100 reversed single #
face $-1 $101 $102 $51 $-1 $103 forward single #
face $-1 $104 $105 $39 $-1 $106 forward single #
loop $-1 $-1 $107 $52 #
plane-surface $-1 -63.211157567064426 0 0 1 0 0 0 0 -1 forward_v I I I I #
face $-1 $108 $109 $40 $-1 $110 reversed single #
loop $-1 $-1 $111 $53 #
plane-surface $-1 -63.211157567064426 0 0 1 0 0 0 0 -1 forward_v I I I I #
face $-1 $112 $113 $41 $-1 $114 reversed single #
loop $-1 $-1 $115 $54 #
plane-surface $-1 41.327516885648713 -92.853491686639728 108.57260534652893 -1 0 0 0 -0.51503808176128008 0.85716729658548041 forward_v I I I I #
face $-1 $116 $117 $42 $-1 $118 forward single #
loop $-1 $119 $120 $55 #
cone-surface $-1 26.714645343461818 -21.004148063247371 1.3053668178148321 0 0.51503808176128008 -0.85716729658548041 2.5 0 0 1 I I 0 1 2.5 forward I I I I #
face $-1 $121 $122 $43 $-1 $123 forward single #
loop $-1 $124 $125 $56 #
cone-surface $-1 35.482368268773961 -21.004148063247371 1.3053668178148321 0 0.51503808176128008 -0.85716729658548041 2.5 0 0 1 I I 0 1 2.5 forward I I I I #
face $-1 $126 $127 $44 $-1 $128 reversed single #
loop $-1 $-1 $129 $57 #
plane-surface $-1 -48.034740165684958 82.361729321822068 127.83265026024665 1 0 0 0 -0.73135370988377701 -0.68199835119979291 forward_v I I I I #
face $-1 $130 $131 $45 $-1 $132 forward single #
loop $-1 $133 $134 $58 #
cone-surface $-1 -40.147204210071436 24.649603007593782 3.4836000749969167 0 -0.73135370988377701 -0.68199835119979291 1 0 0 1 I I 0 1 1 forward I I I I #
face $-1 $135 $136 $46 $-1 $137 reversed single #
loop $-1 $-1 $138 $59 #
plane-surface $-1 -17.86443634405763 82.361729321822068 127.83265026024665 1 0 0 0 -0.73135370988377701 -0.68199835119979291 forward_v I I I I #
face $-1 $139 $140 $47 $-1 $141 forward single #
loop $-1 $142 $143 $60 #
cone-surface $-1 -9.9769003884441076 24.649603007593782 3.4836000749969167 0 -0.73135370988377701 -0.68199835119979291 1 0 0 1 I I 0 1 1 forward I I I I #
face $-1 $144 $145 $48 $-1 $146 reversed single #
loop $-1 $-1 $147 $61 #
plane-surface $-1 12.305867477569691 82.361729321822068 127.83265026024665 1 0 0 0 -0.73135370988377701 -0.68199835119979291 forward_v I I I I #
face $-1 $148 $149 $49 $-1 $150 forward single #
loop $-1 $151 $152 $62 #
cone-surface $-1 20.193403433183214 24.649603007593782 3.4836000749969167 0 -0.73135370988377701 -0.68199835119979291 1 0 0 1 I I 0 1 1 forward I I I I #
face $-1 $153 $154 $50 $-1 $155 reversed single #
loop $-1 $-1 $156 $63 #
plane-surface $-1 42.47617129919702 82.361729321822068 127.83265026024665 1 0 0 0 -0.73135370988377701 -0.68199835119979291 forward_v I I I I #
face $-1 $157 $158 $51 $-1 $159 forward single #
loop $-1 $160 $161 $64 #
cone-surface $-1 50.363707254810542 24.649603007593782 3.4836000749969167 0 -0.73135370988377701 -0.68199835119979291 1 0 0 1 I I 0 1 1 forward I I I I #
face $-1 $162 $163 $39 $-1 $164 reversed single #
loop $-1 $-1 $165 $65 #
plane-surface $-1 0 0 6.7384148599741103 0 0 1 1 0 0 forward_v I I I I #
coedge $-1 $166 $167 $168 $169 reversed $66 $-1 #
face $-1 $170 $171 $40 $-1 $172 reversed single #
loop $-1 $-1 $173 $68 #
plane-surface $-1 0 0 -6.7384148599741103 0 0 1 1 0 0 forward_v I I I I #
coedge $-1 $174 $175 $176 $177 forward $69 $-1 #
face $-1 $178 $179 $41 $-1 $180 reversed single #
loop $-1 $-1 $181 $71 #
plane-surface $-1 31.098506806117889 -27.741185008137961 0.20753125493003211 0 -0.51503808176128008 0.85716729658548041 1 0 0 forward_v I I I I #
coedge $-1 $182 $183 $184 $185 reversed $72 $-1 #
face $-1 $-1 $186 $42 $-1 $187 forward single #
loop $-1 $188 $189 $74 #
cone-surface $-1 26.714645343461818 -19.057921210508894 -1.9336985425542643 0 0.51503808176128008 -0.85716729658548041 1.25 0 0 1 I I -0.70710678118654746 0.70710678118654746 1.25 forward I I I I #
loop $-1 $-1 $190 $55 #
coedge $-1 $120 $120 $191 $192 reversed $75 $-1 #
face $-1 $-1 $193 $43 $-1 $194 forward single #
loop $-1 $195 $196 $77 #
cone-surface $-1 35.482368268773961 -19.057921210508894 -1.9336985425542643 0 0.51503808176128008 -0.85716729658548041 1.25 0 0 1 I I -0.70710678118654746 0.70710678118654746 1.25 forward I I I I #
loop $-1 $-1 $197 $56 #
coedge $-1 $125 $125 $198 $199 reversed $78 $-1 #
face $-1 $200 $201 $44 $-1 $202 reversed single #
loop $-1 $-1 $203 $80 #
plane-surface $-1 -40.147204210071436 -10.097699863619042 41.612839783910147 0 0.73135370988377701 0.68199835119979291 1 0 0 forward_v I I I I #
coedge $-1 $204 $205 $206 $207 reversed $81 $-1 #
face $-1 $-1 $208 $45 $-1 $209 forward single #
loop $-1 $210 $211 $83 #
cone-surface $-1 -40.147204210071436 23.851323302071513 2.7391922247257234 0 -0.73135370988377701 -0.68199835119979291 0.5 0 0 1 I I -0.70710678118654746 0.70710678118654746 0.5 forward I I I I #
loop $-1 $-1 $212 $58 #
coedge $-1 $134 $134 $213 $214 reversed $84 $-1 #
face $-1 $215 $216 $46 $-1 $217 reversed single #
loop $-1 $-1 $218 $86 #
plane-surface $-1 -9.9769003884441076 -10.097699863619042 41.612839783910147 0 0.73135370988377701 0.68199835119979291 1 0 0 forward_v I I I I #
coedge $-1 $219 $220 $221 $222 reversed $87 $-1 #
face $-1 $-1 $223 $47 $-1 $224 forward single #
loop $-1 $225 $226 $89 #
cone-surface $-1 -9.9769003884441076 23.851323302071513 2.7391922247257234 0 -0.73135370988377701 -0.68199835119979291 0.5 0 0 1 I I -0.70710678118654746 0.70710678118654746 0.5 forward I I I I #
loop $-1 $-1 $227 $60 #
coedge $-1 $143 $143 $228 $229 reversed $90 $-1 #
face $-1 $230 $231 $48 $-1 $232 reversed single #
loop $-1 $-1 $233 $92 #
plane-surface $-1 20.193403433183214 -10.097699863619042 41.612839783910147 0 0.73135370988377701 0.68199835119979291 1 0 0 forward_v I I I I #
coedge $-1 $234 $235 $236 $237 reversed $93 $-1 #
face $-1 $-1 $238 $49 $-1 $239 forward single #
loop $-1 $240 $241 $95 #
cone-surface $-1 20.193403433183214 23.851323302071513 2.7391922247257234 0 -0.73135370988377701 -0.68199835119979291 0.5 0 0 1 I I -0.70710678118654746 0.70710678118654746 0.5 forward I I I I #
loop $-1 $-1 $242 $62 #
coedge $-1 $152 $152 $243 $244 reversed $96 $-1 #
face $-1 $245 $246 $50 $-1 $247 reversed single #
loop $-1 $-1 $248 $98 #
plane-surface $-1 50.363707254810542 -10.097699863619042 41.612839783910147 0 0.73135370988377701 0.68199835119979291 1 0 0 forward_v I I I I #
coedge $-1 $249 $250 $251 $252 reversed $99 $-1 #
face $-1 $-1 $253 $51 $-1 $254 forward single #
loop $-1 $255 $256 $101 #
cone-surface $-1 50.363707254810542 23.851323302071513 2.7391922247257234 0 -0.73135370988377701 -0.68199835119979291 0.5 0 0 1 I I -0.70710678118654746 0.70710678118654746 0.5 forward I I I I #
loop $-1 $-1 $257 $64 #
coedge $-1 $161 $161 $258 $259 reversed $102 $-1 #
face $-1 $260 $261 $39 $-1 $262 reversed single #
loop $-1 $-1 $263 $104 #
plane-surface $-1 0 0 -6.7384148599741103 0 0 1 1 0 0 forward_v I I I I #
coedge $-1 $264 $265 $266 $267 forward $105 $-1 #
coedge $-1 $268 $107 $269 $270 reversed $66 $-1 #
coedge $-1 $107 $268 $271 $272 forward $66 $-1 #
coedge $-1 $273 $274 $107 $169 forward $163 $-1 #
edge $-1 $275 -27.741185008137961 $276 27.741185008137961 $107 $277 forward 7 unknown #
face $-1 $278 $279 $40 $-1 $280 reversed single #
loop $-1 $-1 $281 $108 #
plane-surface $-1 -66.081707490874194 -24.312322984860739 0 0 1 0 0 0 1 forward_v I I I I #
coedge $-1 $282 $283 $175 $284 forward $109 $-1 #
coedge $-1 $285 $111 $286 $287 reversed $69 $-1 #
coedge $-1 $111 $285 $173 $284 reversed $69 $-1 #
coedge $-1 $288 $289 $111 $177 reversed $290 $-1 #
edge $-1 $291 -6.7384148599741103 $292 6.7384148599741103 $176 $293 forward 7 unknown #
face $-1 $294 $295 $41 $-1 $296 forward single #
loop $-1 $-1 $297 $112 #
plane-surface $-1 20.869496726587066 -92.853491686639728 108.57260534652893 1 0 0 0 0.51503808176128008 -0.85716729658548041 forward_v I I I I #
coedge $-1 $298 $299 $300 $301 reversed $113 $-1 #
coedge $-1 $183 $115 $302 $303 reversed $72 $-1 #
coedge $-1 $115 $182 $298 $304 reversed $72 $-1 #
coedge $-1 $300 $305 $115 $185 forward $295 $-1 #
edge $-1 $306 18.685560835181903 $307 29.554776223889348 $184 $308 forward 7 unknown #
loop $-1 $-1 $191 $116 #
plane-surface $-1 31.098506806117889 -27.741185008137961 0.20753125493003211 0 -0.51503808176128008 0.85716729658548041 1 0 0 forward_v I I I I #
loop $-1 $-1 $309 $74 #
coedge $-1 $189 $189 $190 $310 reversed $117 $-1 #
coedge $-1 $190 $190 $189 $310 forward $119 $-1 #
coedge $-1 $191 $191 $120 $192 forward $186 $-1 #
edge $-1 $311 -5.1494400359445163e-016 $311 6.2831853071795996 $191 $312 forward 7 unknown #
loop $-1 $-1 $198 $121 #
plane-surface $-1 31.098506806117889 -27.741185008137961 0.20753125493003211 0 -0.51503808176128008 0.85716729658548041 1 0 0 forward_v I I I I #
loop $-1 $-1 $313 $77 #
coedge $-1 $196 $196 $197 $314 reversed $122 $-1 #
coedge $-1 $197 $197 $196 $314 forward $124 $-1 #
coedge $-1 $198 $198 $125 $199 forward $193 $-1 #
edge $-1 $315 -5.1494400359445163e-016 $315 6.2831853071795996 $198 $316 forward 7 unknown #
face $-1 $317 $318 $44 $-1 $319 reversed single #
loop $-1 $-1 $320 $126 #
plane-surface $-1 -32.259668254457914 82.361729321822068 127.83265026024665 -1 0 0 0 0.73135370988377701 0.68199835119979291 forward_v I I I I #
coedge $-1 $321 $322 $323 $324 reversed $127 $-1 #
coedge $-1 $205 $129 $325 $326 reversed $81 $-1 #
coedge $-1 $129 $204 $321 $327 reversed $81 $-1 #
coedge $-1 $323 $328 $129 $207 forward $329 $-1 #
edge $-1 $330 13.439679652773073 $331 18.757637952700669 $206 $332 forward 7 unknown #
loop $-1 $-1 $213 $130 #
plane-surface $-1 -40.147204210071436 -10.097699863619042 41.612839783910147 0 0.73135370988377701 0.68199835119979291 1 0 0 forward_v I I I I #
loop $-1 $-1 $333 $83 #
coedge $-1 $211 $211 $212 $334 reversed $131 $-1 #
coedge $-1 $212 $212 $211 $334 forward $133 $-1 #
coedge $-1 $213 $213 $134 $214 forward $208 $-1 #
edge $-1 $335 2.2735040380023892e-015 $335 6.2831853071796031 $213 $336 forward 7 unknown #
face $-1 $337 $338 $46 $-1 $339 forward single #
loop $-1 $-1 $340 $135 #
plane-surface $-1 -2.0893644328305854 82.361729321822068 127.83265026024665 -1 0 0 0 0.73135370988377701 0.68199835119979291 forward_v I I I I #
coedge $-1 $341 $342 $343 $344 reversed $136 $-1 #
coedge $-1 $220 $138 $345 $346 reversed $87 $-1 #
coedge $-1 $138 $219 $341 $347 reversed $87 $-1 #
coedge $-1 $343 $348 $138 $222 forward $338 $-1 #
edge $-1 $349 13.439679652773073 $350 18.757637952700669 $221 $351 forward 7 unknown #
loop $-1 $-1 $228 $139 #
plane-surface $-1 -9.9769003884441076 -10.097699863619042 41.612839783910147 0 0.73135370988377701 0.68199835119979291 1 0 0 forward_v I I I I #
loop $-1 $-1 $352 $89 #
coedge $-1 $226 $226 $227 $353 reversed $140 $-1 #
coedge $-1 $227 $227 $226 $353 forward $142 $-1 #
coedge $-1 $228 $228 $143 $229 forward $223 $-1 #
edge $-1 $354 2.2735040380023892e-015 $354 6.2831853071796031 $228 $355 forward 7 unknown #
face $-1 $356 $357 $48 $-1 $358 forward single #
loop $-1 $-1 $359 $144 #
plane-surface $-1 28.080939388796736 82.361729321822068 127.83265026024665 -1 0 0 0 0.73135370988377701 0.68199835119979291 forward_v I I I I #
coedge $-1 $360 $361 $362 $363 reversed $145 $-1 #
coedge $-1 $235 $147 $364 $365 reversed $93 $-1 #
coedge $-1 $147 $234 $360 $366 reversed $93 $-1 #
coedge $-1 $362 $367 $147 $237 forward $357 $-1 #
edge $-1 $368 13.439679652773073 $369 18.757637952700669 $236 $370 forward 7 unknown #
loop $-1 $-1 $243 $148 #
plane-surface $-1 20.193403433183214 -10.097699863619042 41.612839783910147 0 0.73135370988377701 0.68199835119979291 1 0 0 forward_v I I I I #
loop $-1 $-1 $371 $95 #
coedge $-1 $241 $241 $242 $372 reversed $149 $-1 #
coedge $-1 $242 $242 $241 $372 forward $151 $-1 #
coedge $-1 $243 $243 $152 $244 forward $238 $-1 #
edge $-1 $373 2.2735040380023892e-015 $373 6.2831853071796031 $243 $374 forward 7 unknown #
face $-1 $375 $376 $50 $-1 $377 forward single #
loop $-1 $-1 $378 $153 #
plane-surface $-1 58.251243210424065 82.361729321822068 127.83265026024665 -1 0 0 0 0.73135370988377701 0.68199835119979291 forward_v I I I I #
coedge $-1 $379 $380 $381 $382 reversed $154 $-1 #
coedge $-1 $250 $156 $383 $384 reversed $99 $-1 #
coedge $-1 $156 $249 $379 $385 reversed $99 $-1 #
coedge $-1 $381 $386 $156 $252 forward $376 $-1 #
edge $-1 $387 13.439679652773073 $388 18.757637952700669 $251 $389 forward 7 unknown #
loop $-1 $-1 $258 $157 #
plane-surface $-1 50.363707254810542 -10.097699863619042 41.612839783910147 0 0.73135370988377701 0.68199835119979291 1 0 0 forward_v I I I I #
loop $-1 $-1 $390 $101 #
coedge $-1 $256 $256 $257 $391 reversed $158 $-1 #
coedge $-1 $257 $257 $256 $391 forward $160 $-1 #
coedge $-1 $258 $258 $161 $259 forward $253 $-1 #
edge $-1 $392 2.2735040380023892e-015 $392 6.2831853071796031 $258 $393 forward 7 unknown #
face $-1 $394 $395 $39 $-1 $396 reversed single #
loop $-1 $-1 $269 $162 #
plane-surface $-1 0 -27.741185008137961 0 0 1 0 0 0 1 forward_v I I I I #
coedge $-1 $274 $273 $397 $398 forward $163 $-1 #
coedge $-1 $399 $165 $400 $401 forward $105 $-1 #
coedge $-1 $165 $399 $402 $403 forward $105 $-1 #
coedge $-1 $404 $405 $165 $267 reversed $406 $-1 #
edge $-1 $407 -27.741185008137961 $408 27.741185008137961 $266 $409 forward 7 unknown #
coedge $-1 $167 $166 $399 $410 reversed $66 $-1 #
coedge $-1 $411 $402 $166 $270 forward $261 $-1 #
edge $-1 $412 -6.7384148599741103 $275 6.7384148599741103 $166 $413 forward 7 unknown #
coedge $-1 $400 $414 $167 $272 reversed $395 $-1 #
edge $-1 $415 -6.7384148599741103 $276 6.7384148599741103 $271 $416 forward 7 unknown #
coedge $-1 $263 $168 $414 $417 forward $163 $-1 #
coedge $-1 $168 $263 $411 $418 forward $163 $-1 #
vertex $-1 $169 $419 #
vertex $-1 $417 $420 #
straight-curve $-1 -63.211157567064426 0 -6.7384148599741103 0 1 0 I I #
face $-1 $421 $290 $40 $-1 $422 reversed single #
loop $-1 $-1 $423 $170 #
plane-surface $-1 -68.95225741468397 -22.812322984860739 0 1 0 0 0 0 -1 forward_v I I I I #
coedge $-1 $424 $425 $426 $427 forward $171 $-1 #
coedge $-1 $428 $173 $424 $429 forward $109 $-1 #
coedge $-1 $173 $428 $288 $430 forward $109 $-1 #
edge $-1 $291 21.312322984860739 $431 24.312322984860739 $173 $432 forward 7 unknown #
coedge $-1 $175 $174 $433 $434 forward $69 $-1 #
coedge $-1 $435 $436 $174 $287 forward $437 $-1 #
edge $-1 $438 -24.312322984860739 $292 -21.312322984860739 $286 $439 forward 7 unknown #
coedge $-1 $440 $176 $283 $430 reversed $290 $-1 #
coedge $-1 $176 $440 $435 $441 reversed $290 $-1 #
loop $-1 $-1 $176 $278 #
vertex $-1 $284 $442 #
vertex $-1 $441 $443 #
straight-curve $-1 -63.211157567064426 -21.312322984860739 0 0 0 1 I I #
face $-1 $-1 $444 $41 $-1 $445 reversed single #
loop $-1 $-1 $184 $178 #
plane-surface $-1 0 0 6.7384148599741103 0 0 1 1 0 0 forward_v I I I I #
coedge $-1 $446 $447 $448 $449 reversed $179 $-1 #
coedge $-1 $450 $181 $183 $304 forward $113 $-1 #
coedge $-1 $181 $450 $446 $451 forward $113 $-1 #
coedge $-1 $448 $184 $181 $301 forward $295 $-1 #
edge $-1 $307 -25.778263482589768 $452 -5.3202433235281212 $300 $453 forward 7 unknown #
coedge $-1 $454 $455 $182 $303 forward $444 $-1 #
edge $-1 $456 -54.078771418334433 $306 -47.547887813290359 $302 $457 forward 7 unknown #
edge $-1 $307 -12.680389734891758 $456 0 $183 $458 forward 7 unknown #
coedge $-1 $184 $448 $454 $459 forward $295 $-1 #
vertex $-1 $185 $460 #
vertex $-1 $185 $461 #
straight-curve $-1 41.327516885648713 -46.426745843319864 6.7384148599741067 0 1 0 I I #
coedge $-1 $309 $309 $-1 $462 reversed $188 $-1 #
edge $-1 $463 0 $463 6.2831853071796004 $189 $464 forward 7 unknown #
vertex $-1 $192 $465 #
ellipse-curve $-1 26.714645343461818 -22.306577313784242 3.472973057452069 0 -0.51503808176128008 0.85716729658548041 2.5 0 0 1 I I #
coedge $-1 $313 $313 $-1 $466 reversed $195 $-1 #
edge $-1 $467 0 $467 6.2831853071796004 $196 $468 forward 7 unknown #
vertex $-1 $199 $469 #
ellipse-curve $-1 35.482368268773961 -22.306577313784242 3.472973057452069 0 -0.51503808176128008 0.85716729658548041 2.5 0 0 1 I I #
face $-1 $-1 $329 $44 $-1 $470 forward single #
loop $-1 $-1 $471 $200 #
plane-surface $-1 0 27.741185008137961 0 0 -1 0 0 0 -1 forward_v I I I I #
coedge $-1 $472 $473 $474 $475 reversed $201 $-1 #
coedge $-1 $476 $203 $205 $327 forward $127 $-1 #
coedge $-1 $203 $476 $472 $477 forward $127 $-1 #
coedge $-1 $474 $206 $203 $324 forward $329 $-1 #
edge $-1 $331 -27.96113806064924 $478 -12.186066149422196 $323 $479 forward 7 unknown #
coedge $-1 $480 $481 $204 $326 forward $318 $-1 #
edge $-1 $482 -62.880722490761002 $330 -57.177910270149212 $325 $483 forward 7 unknown #
edge $-1 $331 47.684758349661067 $482 55.482370016275908 $205 $484 forward 7 unknown #
coedge $-1 $206 $474 $480 $485 forward $329 $-1 #
loop $-1 $-1 $474 $317 #
vertex $-1 $326 $486 #
vertex $-1 $207 $487 #
straight-curve $-1 -48.034740165684958 41.180864660911034 6.7384148599741138 0 -1 0 I I #
coedge $-1 $333 $333 $-1 $488 reversed $210 $-1 #
edge $-1 $489 0 $489 6.2831853071796004 $211 $490 forward 7 unknown #
vertex $-1 $214 $491 #
ellipse-curve $-1 -40.147204210071436 25.082205858174166 3.8870087496682166 0 0.73135370988377701 0.68199835119979291 1 0 0 1 I I #
face $-1 $-1 $492 $46 $-1 $493 reversed single #
loop $-1 $-1 $221 $215 #
plane-surface $-1 0 0 6.7384148599741103 0 0 1 1 0 0 forward_v I I I I #
coedge $-1 $494 $495 $496 $497 reversed $216 $-1 #
coedge $-1 $498 $218 $220 $347 forward $136 $-1 #
coedge $-1 $218 $498 $494 $499 forward $136 $-1 #
coedge $-1 $496 $221 $218 $344 forward $338 $-1 #
edge $-1 $350 -12.875986149835576 $500 2.8990857613914685 $343 $501 forward 7 unknown #
coedge $-1 $502 $503 $219 $346 forward $492 $-1 #
edge $-1 $504 -62.880722490761002 $349 -57.177910270149212 $345 $505 forward 7 unknown #
edge $-1 $350 47.684758349661067 $504 55.482370016275908 $220 $506 forward 7 unknown #
coedge $-1 $221 $496 $502 $507 forward $338 $-1 #
vertex $-1 $222 $508 #
vertex $-1 $222 $509 #
straight-curve $-1 -17.86443634405763 41.180864660911034 6.7384148599741138 0 -1 0 I I #
coedge $-1 $352 $352 $-1 $510 reversed $225 $-1 #
edge $-1 $511 0 $511 6.2831853071796004 $226 $512 forward 7 unknown #
vertex $-1 $229 $513 #
ellipse-curve $-1 -9.9769003884441076 25.082205858174166 3.8870087496682166 0 0.73135370988377701 0.68199835119979291 1 0 0 1 I I #
face $-1 $-1 $514 $48 $-1 $515 reversed single #
loop $-1 $-1 $236 $230 #
plane-surface $-1 0 0 6.7384148599741103 0 0 1 1 0 0 forward_v I I I I #
coedge $-1 $516 $517 $518 $519 reversed $231 $-1 #
coedge $-1 $520 $233 $235 $366 forward $145 $-1 #
coedge $-1 $233 $520 $516 $521 forward $145 $-1 #
coedge $-1 $518 $236 $233 $363 forward $357 $-1 #
edge $-1 $369 2.2091657609780846 $522 17.984237672205129 $362 $523 forward 7 unknown #
coedge $-1 $524 $525 $234 $365 forward $514 $-1 #
edge $-1 $526 -62.880722490761002 $368 -57.177910270149212 $364 $527 forward 7 unknown #
edge $-1 $369 47.684758349661067 $526 55.482370016275908 $235 $528 forward 7 unknown #
coedge $-1 $236 $518 $524 $529 forward $357 $-1 #
vertex $-1 $237 $530 #
vertex $-1 $237 $531 #
straight-curve $-1 12.305867477569691 41.180864660911034 6.7384148599741138 0 -1 0 I I #
coedge $-1 $371 $371 $-1 $532 reversed $240 $-1 #
edge $-1 $533 0 $533 6.2831853071796004 $241 $534 forward 7 unknown #
vertex $-1 $244 $535 #
ellipse-curve $-1 20.193403433183214 25.082205858174166 3.8870087496682166 0 0.73135370988377701 0.68199835119979291 1 0 0 1 I I #
face $-1 $-1 $536 $50 $-1 $537 reversed single #
loop $-1 $-1 $251 $245 #
plane-surface $-1 0 0 6.7384148599741103 0 0 1 1 0 0 forward_v I I I I #
coedge $-1 $538 $539 $540 $541 reversed $246 $-1 #
coedge $-1 $542 $248 $250 $385 forward $154 $-1 #
coedge $-1 $248 $542 $538 $543 forward $154 $-1 #
coedge $-1 $540 $251 $248 $382 forward $376 $-1 #
edge $-1 $388 17.294317671791749 $544 33.06938958301879 $381 $545 forward 7 unknown #
coedge $-1 $546 $547 $249 $384 forward $536 $-1 #
edge $-1 $548 -62.880722490761002 $387 -57.177910270149212 $383 $549 forward 7 unknown #
edge $-1 $388 47.684758349661067 $548 55.482370016275908 $250 $550 forward 7 unknown #
coedge $-1 $251 $540 $546 $551 forward $376 $-1 #
vertex $-1 $252 $552 #
vertex $-1 $252 $553 #
straight-curve $-1 42.47617129919702 41.180864660911034 6.7384148599741138 0 -1 0 I I #
coedge $-1 $390 $390 $-1 $554 reversed $255 $-1 #
edge $-1 $555 0 $555 6.2831853071796004 $256 $556 forward 7 unknown #
vertex $-1 $259 $557 #
ellipse-curve $-1 50.363707254810542 25.082205858174166 3.8870087496682166 0 0.73135370988377701 0.68199835119979291 1 0 0 1 I I #
face $-1 $-1 $406 $39 $-1 $558 reversed single #
loop $-1 $-1 $559 $260 #
plane-surface $-1 0 27.741185008137961 0 0 -1 0 0 0 -1 forward_v I I I I #
coedge $-1 $405 $404 $263 $398 reversed $406 $-1 #
edge $-1 $560 -27.741185008137961 $561 27.741185008137961 $397 $562 forward 7 unknown #
coedge $-1 $265 $264 $268 $410 forward $105 $-1 #
coedge $-1 $559 $271 $264 $401 reversed $395 $-1 #
edge $-1 $408 -63.211157567064426 $415 63.211157567064426 $400 $563 forward 7 unknown #
coedge $-1 $269 $564 $265 $403 reversed $261 $-1 #
edge $-1 $412 -63.211157567064426 $407 63.211157567064426 $402 $565 forward 7 unknown #
coedge $-1 $397 $266 $564 $566 forward $406 $-1 #
coedge $-1 $266 $397 $559 $567 reversed $406 $-1 #
loop $-1 $-1 $404 $394 #
vertex $-1 $267 $568 #
vertex $-1 $267 $569 #
straight-curve $-1 63.211157567064426 0 6.7384148599741103 0 1 0 I I #
edge $-1 $415 -27.741185008137961 $412 27.741185008137961 $268 $570 forward 7 unknown #
coedge $-1 $564 $269 $274 $418 reversed $261 $-1 #
vertex $-1 $410 $571 #
straight-curve $-1 -63.211157567064426 -27.741185008137961 0 0 0 -1 I I #
coedge $-1 $271 $559 $273 $417 reversed $395 $-1 #
vertex $-1 $401 $572 #
straight-curve $-1 -63.211157567064426 27.741185008137961 0 0 0 -1 I I #
edge $-1 $276 -63.211157567064426 $560 63.211157567064426 $414 $573 forward 7 unknown #
edge $-1 $561 -63.211157567064426 $275 63.211157567064426 $411 $574 forward 7 unknown #
point $-1 -63.211157567064426 -27.741185008137961 -6.7384148599741103 #
point $-1 -63.211157567064426 27.741185008137961 -6.7384148599741103 #
face $-1 $-1 $437 $40 $-1 $575 forward single #
plane-surface $-1 -66.081707490874194 -21.312322984860739 0 0 -1 0 0 0 -1 forward_v I I I I #
coedge $-1 $576 $577 $440 $578 forward $279 $-1 #
coedge $-1 $433 $281 $282 $429 reversed $171 $-1 #
coedge $-1 $281 $433 $436 $579 reversed $171 $-1 #
coedge $-1 $577 $576 $281 $427 reversed $279 $-1 #
edge $-1 $580 -6.7384148599741103 $581 6.7384148599741103 $426 $582 forward 7 unknown #
coedge $-1 $283 $282 $576 $583 forward $109 $-1 #
edge $-1 $431 -2.8705499238097758 $581 2.8705499238097758 $424 $584 forward 7 unknown #
edge $-1 $585 -2.8705499238097758 $291 2.8705499238097758 $288 $586 forward 7 unknown #
vertex $-1 $429 $587 #
straight-curve $-1 -63.211157567064426 0 -6.7384148599741103 0 -1 0 I I #
coedge $-1 $425 $424 $285 $434 reversed $171 $-1 #
edge $-1 $438 -6.7384148599741103 $431 6.7384148599741103 $433 $588 forward 7 unknown #
coedge $-1 $589 $286 $289 $441 forward $437 $-1 #
coedge $-1 $286 $589 $425 $579 forward $437 $-1 #
loop $-1 $-1 $286 $421 #
vertex $-1 $287 $590 #
straight-curve $-1 -63.211157567064426 0 6.7384148599741103 0 1 0 I I #
coedge $-1 $289 $288 $423 $578 reversed $290 $-1 #
edge $-1 $292 -2.8705499238097758 $591 2.8705499238097758 $289 $592 forward 7 unknown #
point $-1 -63.211157567064419 -21.312322984860739 -6.7384148599741103 #
point $-1 -63.211157567064419 -21.312322984860739 6.7384148599741103 #
loop $-1 $-1 $302 $294 #
plane-surface $-1 0 -27.741185008137961 0 0 1 0 0 0 1 forward_v I I I I #
coedge $-1 $447 $297 $299 $451 reversed $179 $-1 #
coedge $-1 $297 $446 $593 $594 reversed $179 $-1 #
coedge $-1 $305 $300 $297 $449 forward $295 $-1 #
edge $-1 $452 -29.554776223889348 $595 -18.685560835181903 $448 $596 forward 7 unknown #
coedge $-1 $299 $298 $455 $597 reversed $113 $-1 #
edge $-1 $598 0 $452 12.680389734891758 $446 $599 forward 7 unknown #
vertex $-1 $301 $600 #
straight-curve $-1 15.549253403058945 -16.871969619430512 6.7384148599741103 -1 0 0 I I #
coedge $-1 $593 $302 $305 $459 reversed $444 $-1 #
coedge $-1 $302 $593 $450 $597 forward $444 $-1 #
vertex $-1 $303 $601 #
straight-curve $-1 41.327516885648713 -27.741185008137961 54.286302673264466 0 0 1 I I #
straight-curve $-1 41.327516885648713 -27.741185008137961 0.20753125493003211 0 -0.85716729658548041 -0.51503808176128008 I I #
edge $-1 $595 20.869496726587066 $306 41.327516885648713 $454 $602 forward 7 unknown #
point $-1 41.327516885648713 -27.741185008137961 6.7384148599741103 #
point $-1 41.327516885648713 -16.871969619430516 6.7384148599741103 #
edge $-1 $603 1 $603 0 $309 $-1 forward 7 unknown #
vertex $-1 $310 $604 #
ellipse-curve $-1 26.714645343461818 -19.701718812710496 -0.86223942182241387 0 -0.51503808176128008 0.85716729658548041 2.5 0 0 1 I I #
point $-1 29.214645343461818 -22.306577313784249 3.4729730574520783 #
edge $-1 $605 1 $605 0 $313 $-1 forward 7 unknown #
vertex $-1 $314 $606 #
ellipse-curve $-1 35.482368268773961 -19.701718812710496 -0.86223942182241387 0 -0.51503808176128008 0.85716729658548041 2.5 0 0 1 I I #
point $-1 37.982368268773961 -22.306577313784249 3.4729730574520783 #
plane-surface $-1 0 0 6.7384148599741103 0 0 1 1 0 0 forward_v I I I I #
coedge $-1 $481 $480 $473 $607 forward $318 $-1 #
coedge $-1 $473 $320 $322 $477 reversed $201 $-1 #
coedge $-1 $320 $472 $471 $607 reversed $201 $-1 #
coedge $-1 $328 $323 $320 $475 forward $329 $-1 #
edge $-1 $478 -18.757637952700669 $608 -13.439679652773073 $474 $609 forward 7 unknown #
coedge $-1 $322 $321 $481 $610 reversed $127 $-1 #
edge $-1 $611 -55.482370016275908 $478 -47.684758349661067 $472 $612 forward 7 unknown #
vertex $-1 $324 $613 #
straight-curve $-1 -20.073602105035718 22.423226708210368 6.7384148599741103 1 0 0 I I #
coedge $-1 $471 $325 $328 $485 reversed $318 $-1 #
coedge $-1 $325 $471 $476 $610 forward $318 $-1 #
vertex $-1 $326 $614 #
straight-curve $-1 -48.034740165684958 27.741185008137961 63.916325130123326 0 0 1 I I #
straight-curve $-1 -48.034740165684958 -10.097699863619042 41.612839783910147 0 0.68199835119979291 -0.73135370988377701 I I #
edge $-1 $608 32.259668254457914 $330 48.034740165684958 $480 $615 forward 7 unknown #
point $-1 -48.034740165684958 27.741185008137961 6.7384148599741103 #
point $-1 -48.034740165684958 22.423226708210365 6.7384148599741138 #
edge $-1 $616 1 $616 0 $333 $-1 forward 7 unknown #
vertex $-1 $334 $617 #
ellipse-curve $-1 -40.147204210071436 24.217000157013402 3.0801914003256199 0 0.73135370988377701 0.68199835119979291 1 0 0 1 I I #
point $-1 -39.147204210071436 25.082205858174166 3.8870087496682135 #
loop $-1 $-1 $345 $337 #
plane-surface $-1 0 27.741185008137961 0 0 -1 0 0 0 -1 forward_v I I I I #
coedge $-1 $495 $340 $342 $499 reversed $216 $-1 #
coedge $-1 $340 $494 $618 $619 reversed $216 $-1 #
coedge $-1 $348 $343 $340 $497 forward $338 $-1 #
edge $-1 $500 -18.757637952700669 $620 -13.439679652773073 $496 $621 forward 7 unknown #
coedge $-1 $342 $341 $503 $622 reversed $136 $-1 #
edge $-1 $623 -55.482370016275908 $500 -47.684758349661067 $494 $624 forward 7 unknown #
vertex $-1 $344 $625 #
straight-curve $-1 -4.9884501942220538 22.423226708210368 6.7384148599741103 1 0 0 I I #
coedge $-1 $618 $345 $348 $507 reversed $492 $-1 #
coedge $-1 $345 $618 $498 $622 forward $492 $-1 #
vertex $-1 $346 $626 #
straight-curve $-1 -17.86443634405763 27.741185008137961 63.916325130123326 0 0 1 I I #
straight-curve $-1 -17.86443634405763 -10.097699863619042 41.612839783910147 0 0.68199835119979291 -0.73135370988377701 I I #
edge $-1 $620 2.0893644328305854 $349 17.86443634405763 $502 $627 forward 7 unknown #
point $-1 -17.86443634405763 27.741185008137961 6.7384148599741103 #
point $-1 -17.86443634405763 22.423226708210365 6.7384148599741138 #
edge $-1 $628 1 $628 0 $352 $-1 forward 7 unknown #
vertex $-1 $353 $629 #
ellipse-curve $-1 -9.9769003884441076 24.217000157013402 3.0801914003256199 0 0.73135370988377701 0.68199835119979291 1 0 0 1 I I #
point $-1 -8.9769003884441076 25.082205858174166 3.8870087496682135 #
loop $-1 $-1 $364 $356 #
plane-surface $-1 0 27.741185008137961 0 0 -1 0 0 0 -1 forward_v I I I I #
coedge $-1 $517 $359 $361 $521 reversed $231 $-1 #
coedge $-1 $359 $516 $630 $631 reversed $231 $-1 #
coedge $-1 $367 $362 $359 $519 forward $357 $-1 #
edge $-1 $522 -18.757637952700669 $632 -13.439679652773073 $518 $633 forward 7 unknown #
coedge $-1 $361 $360 $525 $634 reversed $145 $-1 #
edge $-1 $635 -55.482370016275908 $522 -47.684758349661067 $516 $636 forward 7 unknown #
vertex $-1 $363 $637 #
straight-curve $-1 10.096701716591607 22.423226708210368 6.7384148599741103 1 0 0 I I #
coedge $-1 $630 $364 $367 $529 reversed $514 $-1 #
coedge $-1 $364 $630 $520 $634 forward $514 $-1 #
vertex $-1 $365 $638 #
straight-curve $-1 12.305867477569691 27.741185008137961 63.916325130123326 0 0 1 I I #
straight-curve $-1 12.305867477569691 -10.097699863619042 41.612839783910147 0 0.68199835119979291 -0.73135370988377701 I I #
edge $-1 $632 -28.080939388796736 $368 -12.305867477569691 $524 $639 forward 7 unknown #
point $-1 12.305867477569691 27.741185008137961 6.7384148599741103 #
point $-1 12.305867477569691 22.423226708210365 6.7384148599741138 #
edge $-1 $640 1 $640 0 $371 $-1 forward 7 unknown #
vertex $-1 $372 $641 #
ellipse-curve $-1 20.193403433183214 24.217000157013402 3.0801914003256199 0 0.73135370988377701 0.68199835119979291 1 0 0 1 I I #
point $-1 21.193403433183214 25.082205858174166 3.8870087496682135 #
loop $-1 $-1 $383 $375 #
plane-surface $-1 0 27.741185008137961 0 0 -1 0 0 0 -1 forward_v I I I I #
coedge $-1 $539 $378 $380 $543 reversed $246 $-1 #
coedge $-1 $378 $538 $642 $643 reversed $246 $-1 #
coedge $-1 $386 $381 $378 $541 forward $376 $-1 #
edge $-1 $544 -18.757637952700669 $644 -13.439679652773073 $540 $645 forward 7 unknown #
coedge $-1 $380 $379 $547 $646 reversed $154 $-1 #
edge $-1 $647 -55.482370016275908 $544 -47.684758349661067 $538 $648 forward 7 unknown #
vertex $-1 $382 $649 #
straight-curve $-1 25.181853627405271 22.423226708210368 6.7384148599741103 1 0 0 I I #
coedge $-1 $642 $383 $386 $551 reversed $536 $-1 #
coedge $-1 $383 $642 $542 $646 forward $536 $-1 #
vertex $-1 $384 $650 #
straight-curve $-1 42.47617129919702 27.741185008137961 63.916325130123326 0 0 1 I I #
straight-curve $-1 42.47617129919702 -10.097699863619042 41.612839783910147 0 0.68199835119979291 -0.73135370988377701 I I #
edge $-1 $644 -58.251243210424065 $387 -42.47617129919702 $546 $651 forward 7 unknown #
point $-1 42.47617129919702 27.741185008137961 6.7384148599741103 #
point $-1 42.47617129919702 22.423226708210365 6.7384148599741138 #
edge $-1 $652 1 $652 0 $390 $-1 forward 7 unknown #
vertex $-1 $391 $653 #
ellipse-curve $-1 50.363707254810542 24.217000157013402 3.0801914003256199 0 0.73135370988377701 0.68199835119979291 1 0 0 1 I I #
point $-1 51.363707254810542 25.082205858174166 3.8870087496682135 #
plane-surface $-1 63.211157567064426 0 0 -1 0 0 0 0 1 forward_v I I I I #
coedge $-1 $414 $400 $405 $567 forward $395 $-1 #
vertex $-1 $398 $654 #
vertex $-1 $566 $655 #
straight-curve $-1 63.211157567064426 0 -6.7384148599741103 0 -1 0 I I #
straight-curve $-1 0 27.741185008137961 6.7384148599741103 -1 0 0 I I #
coedge $-1 $402 $411 $404 $566 reversed $261 $-1 #
straight-curve $-1 0 -27.741185008137961 6.7384148599741103 1 0 0 I I #
edge $-1 $407 -6.7384148599741103 $561 6.7384148599741103 $404 $656 forward 7 unknown #
edge $-1 $408 -6.7384148599741103 $560 6.7384148599741103 $405 $657 forward 7 unknown #
point $-1 63.211157567064426 -27.741185008137961 6.7384148599741103 #
point $-1 63.211157567064426 27.741185008137961 6.7384148599741103 #
straight-curve $-1 -63.211157567064426 0 6.7384148599741103 0 -1 0 I I #
point $-1 -63.211157567064426 -27.741185008137961 6.7384148599741103 #
point $-1 -63.211157567064426 27.741185008137961 6.7384148599741103 #
straight-curve $-1 0 27.741185008137961 -6.7384148599741103 1 0 0 I I #
straight-curve $-1 0 -27.741185008137961 -6.7384148599741103 -1 0 0 I I #
plane-surface $-1 0 0 6.7384148599741103 0 0 1 1 0 0 forward_v I I I I #
coedge $-1 $426 $423 $428 $583 reversed $279 $-1 #
coedge $-1 $423 $426 $589 $658 reversed $279 $-1 #
edge $-1 $591 -6.7384148599741103 $585 6.7384148599741103 $440 $659 forward 7 unknown #
edge $-1 $580 -2.8705499238097758 $438 2.8705499238097758 $425 $660 forward 7 unknown #
vertex $-1 $658 $661 #
vertex $-1 $583 $662 #
straight-curve $-1 -68.95225741468397 -24.312322984860739 0 0 0 -1 I I #
edge $-1 $581 -1.5 $585 1.5 $576 $663 forward 7 unknown #
straight-curve $-1 -66.081707490874194 -24.312322984860739 -6.7384148599741103 -1 0 0 I I #
vertex $-1 $430 $664 #
straight-curve $-1 -66.081707490874194 -21.312322984860739 -6.7384148599741103 1 0 0 I I #
point $-1 -63.211157567064419 -24.312322984860739 -6.7384148599741103 #
straight-curve $-1 -63.211157567064426 -24.312322984860739 0 0 0 -1 I I #
coedge $-1 $436 $435 $577 $658 forward $437 $-1 #
point $-1 -63.211157567064419 -24.312322984860739 6.7384148599741103 #
vertex $-1 $441 $665 #
straight-curve $-1 -66.081707490874194 -21.312322984860739 6.7384148599741103 -1 0 0 I I #
coedge $-1 $455 $454 $447 $594 forward $444 $-1 #
edge $-1 $595 47.547887813290359 $598 54.078771418334433 $593 $666 forward 7 unknown #
vertex $-1 $459 $667 #
straight-curve $-1 20.869496726587066 -46.426745843319864 6.7384148599741067 0 -1 0 I I #
edge $-1 $598 5.3202433235281212 $456 25.778263482589768 $455 $668 forward 7 unknown #
vertex $-1 $597 $669 #
straight-curve $-1 20.869496726587066 -27.741185008137961 0.20753125493003211 0 0.85716729658548041 0.51503808176128008 I I #
point $-1 20.869496726587066 -16.871969619430516 6.7384148599741103 #
point $-1 41.327516885648713 -27.741185008137961 0.20753125493003211 #
straight-curve $-1 0 -27.741185008137961 6.7384148599741103 1 0 0 I I #
vertex $-1 $462 $670 #
point $-1 29.214645343461818 -19.701718812710496 -0.86223942182241387 #
vertex $-1 $466 $671 #
point $-1 37.982368268773961 -19.701718812710496 -0.86223942182241387 #
edge $-1 $608 57.177910270149212 $611 62.880722490761002 $471 $672 forward 7 unknown #
vertex $-1 $485 $673 #
straight-curve $-1 -32.259668254457914 41.180864660911034 6.7384148599741138 0 1 0 I I #
edge $-1 $611 12.186066149422196 $482 27.96113806064924 $481 $674 forward 7 unknown #
vertex $-1 $610 $675 #
straight-curve $-1 -32.259668254457914 -10.097699863619042 41.612839783910147 0 -0.68199835119979291 0.73135370988377701 I I #
point $-1 -32.259668254457914 22.423226708210365 6.7384148599741138 #
point $-1 -48.034740165684958 27.741185008137961 1.0356026393623239 #
straight-curve $-1 0 27.741185008137961 6.7384148599741103 -1 0 0 I I #
vertex $-1 $488 $676 #
point $-1 -39.147204210071436 24.217000157013402 3.0801914003256199 #
coedge $-1 $503 $502 $495 $619 forward $492 $-1 #
edge $-1 $620 57.177910270149212 $623 62.880722490761002 $618 $677 forward 7 unknown #
vertex $-1 $507 $678 #
straight-curve $-1 -2.0893644328305854 41.180864660911034 6.7384148599741138 0 1 0 I I #
edge $-1 $623 -2.8990857613914685 $504 12.875986149835576 $503 $679 forward 7 unknown #
vertex $-1 $622 $680 #
straight-curve $-1 -2.0893644328305854 -10.097699863619042 41.612839783910147 0 -0.68199835119979291 0.73135370988377701 I I #
point $-1 -2.0893644328305854 22.423226708210365 6.7384148599741138 #
point $-1 -17.86443634405763 27.741185008137961 1.0356026393623239 #
straight-curve $-1 0 27.741185008137961 6.7384148599741103 -1 0 0 I I #
vertex $-1 $510 $681 #
point $-1 -8.9769003884441076 24.217000157013402 3.0801914003256199 #
coedge $-1 $525 $524 $517 $631 forward $514 $-1 #
edge $-1 $632 57.177910270149212 $635 62.880722490761002 $630 $682 forward 7 unknown #
vertex $-1 $529 $683 #
straight-curve $-1 28.080939388796736 41.180864660911034 6.7384148599741138 0 1 0 I I #
edge $-1 $635 -17.984237672205129 $526 -2.2091657609780846 $525 $684 forward 7 unknown #
vertex $-1 $634 $685 #
straight-curve $-1 28.080939388796736 -10.097699863619042 41.612839783910147 0 -0.68199835119979291 0.73135370988377701 I I #
point $-1 28.080939388796736 22.423226708210365 6.7384148599741138 #
point $-1 12.305867477569691 27.741185008137961 1.0356026393623239 #
straight-curve $-1 0 27.741185008137961 6.7384148599741103 -1 0 0 I I #
vertex $-1 $532 $686 #
point $-1 21.193403433183214 24.217000157013402 3.0801914003256199 #
coedge $-1 $547 $546 $539 $643 forward $536 $-1 #
edge $-1 $644 57.177910270149212 $647 62.880722490761002 $642 $687 forward 7 unknown #
vertex $-1 $551 $688 #
straight-curve $-1 58.251243210424065 41.180864660911034 6.7384148599741138 0 1 0 I I #
edge $-1 $647 -33.06938958301879 $548 -17.294317671791749 $547 $689 forward 7 unknown #
vertex $-1 $646 $690 #
straight-curve $-1 58.251243210424065 -10.097699863619042 41.612839783910147 0 -0.68199835119979291 0.73135370988377701 I I #
point $-1 58.251243210424065 22.423226708210365 6.7384148599741138 #
point $-1 42.47617129919702 27.741185008137961 1.0356026393623239 #
straight-curve $-1 0 27.741185008137961 6.7384148599741103 -1 0 0 I I #
vertex $-1 $554 $691 #
point $-1 51.363707254810542 24.217000157013402 3.0801914003256199 #
point $-1 63.211157567064426 27.741185008137961 -6.7384148599741103 #
point $-1 63.211157567064426 -27.741185008137961 -6.7384148599741103 #
straight-curve $-1 63.211157567064426 -27.741185008137961 0 0 0 -1 I I #
straight-curve $-1 63.211157567064426 27.741185008137961 0 0 0 -1 I I #
edge $-1 $591 -1.5 $580 1.5 $577 $692 forward 7 unknown #
straight-curve $-1 -68.95225741468397 -21.312322984860739 0 0 0 -1 I I #
straight-curve $-1 -66.081707490874194 -24.312322984860739 6.7384148599741103 1 0 0 I I #
point $-1 -68.95225741468397 -24.312322984860739 6.7384148599741103 #
point $-1 -68.95225741468397 -24.312322984860739 -6.7384148599741103 #
straight-curve $-1 -68.95225741468397 -22.812322984860739 -6.7384148599741103 0 1 0 I I #
point $-1 -68.95225741468397 -21.312322984860739 -6.7384148599741103 #
point $-1 -68.95225741468397 -21.312322984860739 6.7384148599741103 #
straight-curve $-1 20.869496726587066 -27.741185008137961 54.286302673264466 0 0 -1 I I #
point $-1 20.869496726587066 -27.741185008137961 6.7384148599741103 #
straight-curve $-1 15.549253403058945 -27.741185008137961 0.20753125493003158 1 0 0 I I #
point $-1 20.869496726587066 -27.741185008137961 0.20753125493003211 #
point $-1 26.714645343461818 -18.414123608307293 -3.0051576632861146 #
point $-1 35.482368268773961 -18.414123608307293 -3.0051576632861146 #
straight-curve $-1 -32.259668254457914 27.741185008137961 63.916325130123326 0 0 -1 I I #
point $-1 -32.259668254457914 27.741185008137961 6.7384148599741103 #
straight-curve $-1 -20.073602105035718 27.741185008137961 1.0356026393623239 -1 0 0 I I #
point $-1 -32.259668254457914 27.741185008137961 1.0356026393623239 #
point $-1 -40.147204210071436 23.485646447129625 2.398193049125827 #
straight-curve $-1 -2.0893644328305854 27.741185008137961 63.916325130123326 0 0 -1 I I #
point $-1 -2.0893644328305854 27.741185008137961 6.7384148599741103 #
straight-curve $-1 -4.9884501942220538 27.741185008137961 1.0356026393623239 -1 0 0 I I #
point $-1 -2.0893644328305854 27.741185008137961 1.0356026393623239 #
point $-1 -9.9769003884441076 23.485646447129625 2.398193049125827 #
straight-curve $-1 28.080939388796736 27.741185008137961 63.916325130123326 0 0 -1 I I #
point $-1 28.080939388796736 27.741185008137961 6.7384148599741103 #
straight-curve $-1 10.096701716591607 27.741185008137961 1.0356026393623239 -1 0 0 I I #
point $-1 28.080939388796736 27.741185008137961 1.0356026393623239 #
point $-1 20.193403433183214 23.485646447129625 2.398193049125827 #
straight-curve $-1 58.251243210424065 27.741185008137961 63.916325130123326 0 0 -1 I I #
point $-1 58.251243210424065 27.741185008137961 6.7384148599741103 #
straight-curve $-1 25.181853627405271 27.741185008137961 1.0356026393623239 -1 0 0 I I #
point $-1 58.251243210424065 27.741185008137961 1.0356026393623239 #
point $-1 50.363707254810542 23.485646447129625 2.398193049125827 #
straight-curve $-1 -68.95225741468397 -22.812322984860739 6.7384148599741103 0 -1 0 I I #
End-of-ACIS-data 