500 0 12 0           
7 Unknown 11 ACIS 5.0 NT 24 Thu Mar 25 15:50:34 1999 
-1 9.9999999999999995e-007 1e-010 
body $-1 $12 $-1 $13 #
body $-1 $14 $-1 $15 #
body $-1 $16 $-1 $17 #
body $-1 $18 $-1 $19 #
body $-1 $20 $-1 $21 #
body $-1 $22 $-1 $23 #
body $-1 $24 $-1 $25 #
body $-1 $26 $-1 $27 #
body $-1 $28 $-1 $29 #
body $-1 $30 $-1 $31 #
body $-1 $32 $-1 $33 #
body $-1 $34 $-1 $35 #
lump $-1 $-1 $36 $0 #
transform $-1 1 0 0 0 1 0 0 0 1 50.895107882931001 34.986328822615917 16.144620653778617 1 rotate no_reflect no_shear #
lump $-1 $-1 $37 $1 #
transform $-1 1 0 0 0 1 0 0 0 1 50.895107882931001 34.986328822615917 16.144620653778617 1 rotate no_reflect no_shear #
lump $-1 $-1 $38 $2 #
transform $-1 1 0 0 0 1 0 0 0 1 50.895107882931001 34.986328822615917 16.144620653778617 1 rotate no_reflect no_shear #
lump $-1 $-1 $39 $3 #
transform $-1 1 0 0 0 1 0 0 0 1 50.895107882931001 34.986328822615917 16.144620653778617 1 rotate no_reflect no_shear #
lump $-1 $-1 $40 $4 #
transform $-1 1 0 0 0 1 0 0 0 1 50.895107882931001 34.986328822615917 16.144620653778617 1 rotate no_reflect no_shear #
lump $-1 $-1 $41 $5 #
transform $-1 1 0 0 0 1 0 0 0 1 50.895107882931001 34.986328822615917 16.144620653778617 1 rotate no_reflect no_shear #
lump $-1 $-1 $42 $6 #
transform $-1 1 0 0 0 1 0 0 0 1 50.895107882931001 34.986328822615917 16.144620653778617 1 rotate no_reflect no_shear #
lump $-1 $-1 $43 $7 #
transform $-1 1 0 0 0 1 0 0 0 1 50.895107882931001 34.986328822615917 16.144620653778617 1 rotate no_reflect no_shear #
lump $-1 $-1 $44 $8 #
transform $-1 1 0 0 0 1 0 0 0 1 50.895107882931001 34.986328822615917 16.144620653778617 1 rotate no_reflect no_shear #
lump $-1 $-1 $45 $9 #
transform $-1 1 0 0 0 1 0 0 0 1 50.895107882931001 34.986328822615917 16.144620653778617 1 rotate no_reflect no_shear #
lump $-1 $-1 $46 $10 #
transform $-1 1 0 0 0 1 0 0 0 1 50.895107882931001 34.986328822615917 16.144620653778617 1 rotate no_reflect no_shear #
lump $-1 $-1 $47 $11 #
transform $-1 1 0 0 0 1 0 0 0 1 50.895107882931001 34.986328822615917 16.144620653778617 1 rotate no_reflect no_shear #
shell $-1 $-1 $-1 $48 $-1 $12 #
shell $-1 $-1 $-1 $49 $-1 $14 #
shell $-1 $-1 $-1 $50 $-1 $16 #
shell $-1 $-1 $-1 $51 $-1 $18 #
shell $-1 $-1 $-1 $52 $-1 $20 #
shell $-1 $-1 $-1 $53 $-1 $22 #
shell $-1 $-1 $-1 $54 $-1 $24 #
shell $-1 $-1 $-1 $55 $-1 $26 #
shell $-1 $-1 $-1 $56 $-1 $28 #
shell $-1 $-1 $-1 $57 $-1 $30 #
shell $-1 $-1 $-1 $58 $-1 $32 #
shell $-1 $-1 $-1 $59 $-1 $34 #
face $-1 $60 $61 $36 $-1 $62 forward single #
face $-1 $63 $64 $37 $-1 $65 forward single #
face $-1 $66 $67 $38 $-1 $68 reversed single #
face $-1 $69 $70 $39 $-1 $71 forward single #
face $-1 $72 $73 $40 $-1 $74 forward single #
face $-1 $75 $76 $41 $-1 $77 forward single #
face $-1 $78 $79 $42 $-1 $80 reversed single #
face $-1 $81 $82 $43 $-1 $83 forward single #
face $-1 $84 $85 $44 $-1 $86 forward single #
face $-1 $87 $88 $45 $-1 $89 forward single #
face $-1 $90 $91 $46 $-1 $92 reversed single #
face $-1 $93 $94 $47 $-1 $95 forward single #
face $-1 $96 $97 $36 $-1 $98 reversed single #
loop $-1 $-1 $99 $48 #
plane-surface $-1 0 0 16.144620653778617 0 0 1 1 0 0 forward_v I I I I #
face $-1 $100 $101 $37 $-1 $102 reversed single #
loop $-1 $-1 $103 $49 #
plane-surface $-1 0 -27.062462091739988 -10.272801378918505 0 0 1 1 0 0 forward_v I I I I #
face $-1 $104 $105 $38 $-1 $106 reversed single #
loop $-1 $-1 $107 $50 #
plane-surface $-1 -109.27957784977156 -19.138595360864059 92.009687984775454 0 1 0 -0.57357644374324357 0 0.81915203911291934 forward_v I I I I #
face $-1 $108 $109 $39 $-1 $110 forward single #
loop $-1 $111 $112 $51 #
cone-surface $-1 -44.985463905305544 -17.474360598253867 11.611925872503615 0.57357644374324357 0 -0.81915203911291934 0.40957601955645967 0 0.28678822187162178 1 I I 0 1 0.5 forward I I I I #
face $-1 $113 $114 $40 $-1 $115 forward single #
loop $-1 $116 $117 $52 #
cone-surface $-1 -44.985463905305544 -14.978008454338578 11.611925872503615 0.57357644374324357 0 -0.81915203911291934 0.40957601955645967 0 0.28678822187162178 1 I I 0 1 0.5 forward I I I I #
face $-1 $118 $119 $41 $-1 $120 forward single #
loop $-1 $121 $122 $53 #
cone-surface $-1 -44.985463905305544 -12.48165631042329 11.611925872503615 0.57357644374324357 0 -0.81915203911291934 0.40957601955645967 0 0.28678822187162178 1 I I 0 1 0.5 forward I I I I #
face $-1 $123 $124 $42 $-1 $125 reversed single #
loop $-1 $-1 $126 $54 #
plane-surface $-1 -109.27957784977156 7.9238667308759254 92.009687984775454 0 1 0 -0.57357644374324357 0 0.81915203911291934 forward_v I I I I #
face $-1 $127 $128 $43 $-1 $129 forward single #
loop $-1 $130 $131 $55 #
cone-surface $-1 -44.985463905305544 9.5881014934861213 11.611925872503615 0.57357644374324357 0 -0.81915203911291934 0.40957601955645967 0 0.28678822187162178 1 I I 0 1 0.5 forward I I I I #
face $-1 $132 $133 $44 $-1 $134 forward single #
loop $-1 $135 $136 $56 #
cone-surface $-1 -44.985463905305544 12.08445363740141 11.611925872503615 0.57357644374324357 0 -0.81915203911291934 0.40957601955645967 0 0.28678822187162178 1 I I 0 1 0.5 forward I I I I #
face $-1 $137 $138 $45 $-1 $139 forward single #
loop $-1 $140 $141 $57 #
cone-surface $-1 -44.985463905305544 14.580805781316698 11.611925872503615 0.57357644374324357 0 -0.81915203911291934 0.40957601955645967 0 0.28678822187162178 1 I I 0 1 0.5 forward I I I I #
face $-1 $142 $143 $46 $-1 $144 reversed single #
loop $-1 $-1 $145 $58 #
plane-surface $-1 75.892304012138098 21.359961702840518 148.54924906787218 0 -1 0 -0.81915205242281985 0 -0.57357642473473569 forward_v I I I I #
face $-1 $146 $147 $47 $-1 $148 forward single #
loop $-1 $149 $150 $59 #
cone-surface $-1 46.36337036037142 16.992913095111859 10.585640583305979 -0.81915205242281985 0 -0.57357642473473569 0.57357642473473569 0 -0.81915205242281985 1 I I 0 1 1 forward I I I I #
face $-1 $151 $152 $36 $-1 $153 reversed single #
loop $-1 $-1 $154 $60 #
plane-surface $-1 0 0 -16.144620653778617 0 0 1 1 0 0 forward_v I I I I #
coedge $-1 $155 $156 $157 $158 forward $61 $-1 #
face $-1 $159 $160 $37 $-1 $161 reversed single #
loop $-1 $-1 $162 $63 #
plane-surface $-1 0 -19.138595360864059 -13.208711016348561 0 -1 0 0 0 -1 forward_v I I I I #
coedge $-1 $163 $164 $165 $166 reversed $64 $-1 #
face $-1 $167 $168 $38 $-1 $169 reversed single #
loop $-1 $-1 $170 $66 #
plane-surface $-1 -50.895107882930986 -14.978008454338575 8.6280251784255597 -0.57357644374324357 0 0.81915203911291934 0.81915203911291934 0 0.57357644374324357 forward_v I I I I #
coedge $-1 $171 $172 $173 $174 reversed $67 $-1 #
face $-1 $-1 $175 $39 $-1 $176 forward single #
loop $-1 $177 $178 $69 #
cone-surface $-1 -44.299831136460142 -17.474360598253867 10.632740819126916 0.57357644374324357 0 -0.81915203911291934 0.20478800977822983 0 0.14339411093581089 1 I I -0.70710678118654746 0.70710678118654746 0.25 forward I I I I #
loop $-1 $-1 $179 $51 #
coedge $-1 $112 $112 $180 $181 reversed $70 $-1 #
face $-1 $-1 $182 $40 $-1 $183 forward single #
loop $-1 $184 $185 $72 #
cone-surface $-1 -44.299831136460142 -14.978008454338578 10.632740819126916 0.57357644374324357 0 -0.81915203911291934 0.20478800977822983 0 0.14339411093581089 1 I I -0.70710678118654746 0.70710678118654746 0.25 forward I I I I #
loop $-1 $-1 $186 $52 #
coedge $-1 $117 $117 $187 $188 reversed $73 $-1 #
face $-1 $-1 $189 $41 $-1 $190 forward single #
loop $-1 $191 $192 $75 #
cone-surface $-1 -44.299831136460142 -12.48165631042329 10.632740819126916 0.57357644374324357 0 -0.81915203911291934 0.20478800977822983 0 0.14339411093581089 1 I I -0.70710678118654746 0.70710678118654746 0.25 forward I I I I #
loop $-1 $-1 $193 $53 #
coedge $-1 $122 $122 $194 $195 reversed $76 $-1 #
face $-1 $196 $197 $42 $-1 $198 reversed single #
loop $-1 $-1 $199 $78 #
plane-surface $-1 -50.895107882930986 12.08445363740141 8.6280251784255597 -0.57357644374324357 0 0.81915203911291934 0.81915203911291934 0 0.57357644374324357 forward_v I I I I #
coedge $-1 $200 $201 $202 $203 reversed $79 $-1 #
face $-1 $-1 $204 $43 $-1 $205 forward single #
loop $-1 $206 $207 $81 #
cone-surface $-1 -44.299831136460142 9.5881014934861213 10.632740819126916 0.57357644374324357 0 -0.81915203911291934 0.20478800977822983 0 0.14339411093581089 1 I I -0.70710678118654746 0.70710678118654746 0.25 forward I I I I #
loop $-1 $-1 $208 $55 #
coedge $-1 $131 $131 $209 $210 reversed $82 $-1 #
face $-1 $-1 $211 $44 $-1 $212 forward single #
loop $-1 $213 $214 $84 #
cone-surface $-1 -44.299831136460142 12.08445363740141 10.632740819126916 0.57357644374324357 0 -0.81915203911291934 0.20478800977822983 0 0.14339411093581089 1 I I -0.70710678118654746 0.70710678118654746 0.25 forward I I I I #
loop $-1 $-1 $215 $56 #
coedge $-1 $136 $136 $216 $217 reversed $85 $-1 #
face $-1 $-1 $218 $45 $-1 $219 forward single #
loop $-1 $220 $221 $87 #
cone-surface $-1 -44.299831136460142 14.580805781316698 10.632740819126916 0.57357644374324357 0 -0.81915203911291934 0.20478800977822983 0 0.14339411093581089 1 I I -0.70710678118654746 0.70710678118654746 0.25 forward I I I I #
loop $-1 $-1 $222 $57 #
coedge $-1 $141 $141 $223 $224 reversed $88 $-1 #
face $-1 $225 $226 $46 $-1 $227 reversed single #
loop $-1 $-1 $228 $90 #
plane-surface $-1 -7.4893601490294373 16.992913095111859 90.16478103591173 0.81915205242281985 0 0.57357642473473569 0.57357642473473569 0 -0.81915205242281985 forward_v I I I I #
coedge $-1 $229 $230 $231 $232 reversed $91 $-1 #
face $-1 $-1 $233 $47 $-1 $234 forward single #
loop $-1 $235 $236 $93 #
cone-surface $-1 44.699554470208312 16.992913095111859 9.4206241899831866 -0.81915205242281985 0 -0.57357642473473569 0.28678821236736785 0 -0.40957602621140993 1 I I -0.70710678118654746 0.70710678118654746 0.5 forward I I I I #
loop $-1 $-1 $237 $59 #
coedge $-1 $150 $150 $238 $239 reversed $94 $-1 #
face $-1 $240 $241 $36 $-1 $242 reversed single #
loop $-1 $-1 $243 $96 #
plane-surface $-1 0 -34.986328822615917 0 0 1 0 0 0 1 forward_v I I I I #
coedge $-1 $244 $245 $246 $247 forward $97 $-1 #
coedge $-1 $248 $99 $249 $250 forward $61 $-1 #
coedge $-1 $99 $248 $251 $252 forward $61 $-1 #
coedge $-1 $253 $254 $99 $158 reversed $255 $-1 #
edge $-1 $256 -34.986328822615917 $257 34.986328822615917 $157 $258 forward 7 unknown #
face $-1 $259 $260 $37 $-1 $261 reversed single #
loop $-1 $-1 $262 $100 #
plane-surface $-1 0 0 -16.144620653778617 0 0 1 1 0 0 forward_v I I I I #
coedge $-1 $263 $264 $265 $266 reversed $101 $-1 #
coedge $-1 $267 $103 $264 $268 forward $64 $-1 #
coedge $-1 $103 $267 $269 $270 reversed $64 $-1 #
coedge $-1 $271 $265 $103 $166 forward $260 $-1 #
edge $-1 $272 5.6073643149940651 $273 21.455097776745923 $165 $274 forward 7 unknown #
face $-1 $275 $276 $38 $-1 $277 forward single #
loop $-1 $-1 $278 $104 #
plane-surface $-1 -109.27957784977156 -10.81742154781309 92.009687984775454 0 -1 0 0.57357644374324357 0 -0.81915203911291934 forward_v I I I I #
coedge $-1 $279 $280 $281 $282 reversed $105 $-1 #
coedge $-1 $172 $107 $283 $284 reversed $67 $-1 #
coedge $-1 $107 $171 $279 $285 reversed $67 $-1 #
coedge $-1 $281 $286 $107 $174 forward $276 $-1 #
edge $-1 $287 3.7446810419547774 $288 14.479491681386548 $173 $289 forward 7 unknown #
loop $-1 $-1 $180 $108 #
plane-surface $-1 -50.895107882930986 -14.978008454338575 8.6280251784255597 -0.57357644374324357 0 0.81915203911291934 0.81915203911291934 0 0.57357644374324357 forward_v I I I I #
loop $-1 $-1 $290 $69 #
coedge $-1 $178 $178 $179 $291 reversed $109 $-1 #
coedge $-1 $179 $179 $178 $291 forward $111 $-1 #
coedge $-1 $180 $180 $112 $181 forward $175 $-1 #
edge $-1 $292 0 $292 6.2831853071796004 $180 $293 forward 7 unknown #
loop $-1 $-1 $187 $113 #
plane-surface $-1 -50.895107882930986 -14.978008454338575 8.6280251784255597 -0.57357644374324357 0 0.81915203911291934 0.81915203911291934 0 0.57357644374324357 forward_v I I I I #
loop $-1 $-1 $294 $72 #
coedge $-1 $185 $185 $186 $295 reversed $114 $-1 #
coedge $-1 $186 $186 $185 $295 forward $116 $-1 #
coedge $-1 $187 $187 $117 $188 forward $182 $-1 #
edge $-1 $296 0 $296 6.2831853071796004 $187 $297 forward 7 unknown #
loop $-1 $-1 $194 $118 #
plane-surface $-1 -50.895107882930986 -14.978008454338575 8.6280251784255597 -0.57357644374324357 0 0.81915203911291934 0.81915203911291934 0 0.57357644374324357 forward_v I I I I #
loop $-1 $-1 $298 $75 #
coedge $-1 $192 $192 $193 $299 reversed $119 $-1 #
coedge $-1 $193 $193 $192 $299 forward $121 $-1 #
coedge $-1 $194 $194 $122 $195 forward $189 $-1 #
edge $-1 $300 0 $300 6.2831853071796004 $194 $301 forward 7 unknown #
face $-1 $302 $303 $42 $-1 $304 forward single #
loop $-1 $-1 $305 $123 #
plane-surface $-1 -109.27957784977156 16.245040543926894 92.009687984775454 0 -1 0 0.57357644374324357 0 -0.81915203911291934 forward_v I I I I #
coedge $-1 $306 $307 $308 $309 reversed $124 $-1 #
coedge $-1 $201 $126 $310 $311 reversed $79 $-1 #
coedge $-1 $126 $200 $306 $312 reversed $79 $-1 #
coedge $-1 $308 $313 $126 $203 forward $303 $-1 #
edge $-1 $314 3.7446810419547774 $315 14.479491681386548 $202 $316 forward 7 unknown #
loop $-1 $-1 $209 $127 #
plane-surface $-1 -50.895107882930986 12.08445363740141 8.6280251784255597 -0.57357644374324357 0 0.81915203911291934 0.81915203911291934 0 0.57357644374324357 forward_v I I I I #
loop $-1 $-1 $317 $81 #
coedge $-1 $207 $207 $208 $318 reversed $128 $-1 #
coedge $-1 $208 $208 $207 $318 forward $130 $-1 #
coedge $-1 $209 $209 $131 $210 forward $204 $-1 #
edge $-1 $319 0 $319 6.2831853071796004 $209 $320 forward 7 unknown #
loop $-1 $-1 $216 $132 #
plane-surface $-1 -50.895107882930986 12.08445363740141 8.6280251784255597 -0.57357644374324357 0 0.81915203911291934 0.81915203911291934 0 0.57357644374324357 forward_v I I I I #
loop $-1 $-1 $321 $84 #
coedge $-1 $214 $214 $215 $322 reversed $133 $-1 #
coedge $-1 $215 $215 $214 $322 forward $135 $-1 #
coedge $-1 $216 $216 $136 $217 forward $211 $-1 #
edge $-1 $323 0 $323 6.2831853071796004 $216 $324 forward 7 unknown #
loop $-1 $-1 $223 $137 #
plane-surface $-1 -50.895107882930986 12.08445363740141 8.6280251784255597 -0.57357644374324357 0 0.81915203911291934 0.81915203911291934 0 0.57357644374324357 forward_v I I I I #
loop $-1 $-1 $325 $87 #
coedge $-1 $221 $221 $222 $326 reversed $138 $-1 #
coedge $-1 $222 $222 $221 $326 forward $140 $-1 #
coedge $-1 $223 $223 $141 $224 forward $218 $-1 #
edge $-1 $327 0 $327 6.2831853071796004 $223 $328 forward 7 unknown #
face $-1 $329 $330 $46 $-1 $331 reversed single #
loop $-1 $-1 $332 $142 #
plane-surface $-1 75.892304012138098 12.6258644873832 148.54924906787218 0 1 0 0.81915205242281985 0 0.57357642473473569 forward_v I I I I #
coedge $-1 $333 $334 $335 $336 reversed $143 $-1 #
coedge $-1 $230 $145 $337 $338 reversed $91 $-1 #
coedge $-1 $145 $229 $333 $339 reversed $91 $-1 #
coedge $-1 $335 $340 $145 $232 forward $341 $-1 #
edge $-1 $342 -12.948955876861952 $343 -6.3939605596461817 $231 $344 forward 7 unknown #
loop $-1 $-1 $238 $146 #
plane-surface $-1 -7.4893601490294373 16.992913095111859 90.16478103591173 0.81915205242281985 0 0.57357642473473569 0.57357642473473569 0 -0.81915205242281985 forward_v I I I I #
loop $-1 $-1 $345 $93 #
coedge $-1 $236 $236 $237 $346 reversed $147 $-1 #
coedge $-1 $237 $237 $236 $346 forward $149 $-1 #
coedge $-1 $238 $238 $150 $239 forward $233 $-1 #
edge $-1 $347 0 $347 6.2831853071796004 $238 $348 forward 7 unknown #
face $-1 $349 $350 $36 $-1 $351 reversed single #
loop $-1 $-1 $352 $151 #
plane-surface $-1 -50.895107882931001 0 0 1 0 0 0 0 -1 forward_v I I I I #
coedge $-1 $353 $251 $354 $355 forward $152 $-1 #
coedge $-1 $356 $154 $353 $357 forward $97 $-1 #
coedge $-1 $154 $356 $358 $359 forward $97 $-1 #
coedge $-1 $254 $253 $154 $247 reversed $255 $-1 #
edge $-1 $360 -34.986328822615917 $361 34.986328822615917 $246 $362 forward 7 unknown #
coedge $-1 $156 $155 $363 $364 forward $61 $-1 #
coedge $-1 $365 $366 $155 $250 reversed $350 $-1 #
edge $-1 $257 -50.895107882931001 $367 50.895107882931001 $249 $368 forward 7 unknown #
coedge $-1 $243 $369 $156 $252 reversed $152 $-1 #
edge $-1 $370 -50.895107882931001 $256 50.895107882931001 $251 $371 forward 7 unknown #
coedge $-1 $246 $157 $369 $372 forward $255 $-1 #
coedge $-1 $157 $246 $365 $373 reversed $255 $-1 #
loop $-1 $-1 $253 $349 #
vertex $-1 $158 $374 #
vertex $-1 $158 $375 #
straight-curve $-1 50.895107882931001 0 16.144620653778617 0 1 0 I I #
face $-1 $376 $377 $37 $-1 $378 reversed single #
loop $-1 $-1 $265 $159 #
plane-surface $-1 50.895107882931001 0 0 -1 0 0 0 0 1 forward_v I I I I #
coedge $-1 $379 $380 $263 $381 forward $160 $-1 #
coedge $-1 $382 $162 $262 $381 reversed $101 $-1 #
coedge $-1 $162 $382 $163 $268 reversed $101 $-1 #
coedge $-1 $165 $383 $162 $266 forward $260 $-1 #
edge $-1 $384 -9.5402651456043372 $272 -3.6684458707442245 $265 $385 forward 7 unknown #
coedge $-1 $164 $163 $386 $387 reversed $64 $-1 #
edge $-1 $272 -50.895107882931001 $388 50.895107882931001 $264 $389 forward 7 unknown #
coedge $-1 $390 $391 $164 $270 forward $377 $-1 #
edge $-1 $273 -50.895107882931001 $392 50.895107882931001 $269 $393 forward 7 unknown #
coedge $-1 $383 $165 $391 $394 forward $260 $-1 #
vertex $-1 $166 $395 #
vertex $-1 $394 $396 #
straight-curve $-1 50.895107882931001 -13.531231045869994 -10.272801378918505 0 -1 0 I I #
face $-1 $-1 $397 $38 $-1 $398 reversed single #
loop $-1 $-1 $173 $167 #
plane-surface $-1 0 0 16.144620653778617 0 0 1 1 0 0 forward_v I I I I #
coedge $-1 $399 $400 $401 $402 reversed $168 $-1 #
coedge $-1 $403 $170 $172 $285 forward $105 $-1 #
coedge $-1 $170 $403 $399 $404 forward $105 $-1 #
coedge $-1 $401 $173 $170 $282 forward $276 $-1 #
edge $-1 $288 -11.649591133694772 $405 -3.328417320643803 $281 $406 forward 7 unknown #
coedge $-1 $407 $408 $171 $284 forward $397 $-1 #
edge $-1 $409 -37.376818813962174 $287 -29.86022333860911 $283 $410 forward 7 unknown #
edge $-1 $288 -13.104784126591147 $409 1.7754109250068268e-014 $172 $411 forward 7 unknown #
coedge $-1 $173 $401 $407 $412 forward $276 $-1 #
vertex $-1 $284 $413 #
vertex $-1 $174 $414 #
straight-curve $-1 -54.639788924885778 -19.138595360864059 16.144620653778617 1 0 0 I I #
coedge $-1 $290 $290 $-1 $415 reversed $177 $-1 #
edge $-1 $416 0 $416 6.2831853071796004 $178 $417 forward 7 unknown #
vertex $-1 $181 $418 #
ellipse-curve $-1 -45.527702563215129 -17.474360598253867 12.386322916102078 -0.57357644374324357 0 0.81915203911291934 0.40957601955645967 0 0.28678822187162178 1 I I #
coedge $-1 $294 $294 $-1 $419 reversed $184 $-1 #
edge $-1 $420 0 $420 6.2831853071796004 $185 $421 forward 7 unknown #
vertex $-1 $188 $422 #
ellipse-curve $-1 -45.527702563215129 -14.978008454338578 12.386322916102078 -0.57357644374324357 0 0.81915203911291934 0.40957601955645967 0 0.28678822187162178 1 I I #
coedge $-1 $298 $298 $-1 $423 reversed $191 $-1 #
edge $-1 $424 0 $424 6.2831853071796004 $192 $425 forward 7 unknown #
vertex $-1 $195 $426 #
ellipse-curve $-1 -45.527702563215129 -12.48165631042329 12.386322916102078 -0.57357644374324357 0 0.81915203911291934 0.40957601955645967 0 0.28678822187162178 1 I I #
face $-1 $-1 $427 $42 $-1 $428 reversed single #
loop $-1 $-1 $202 $196 #
plane-surface $-1 0 0 16.144620653778617 0 0 1 1 0 0 forward_v I I I I #
coedge $-1 $429 $430 $431 $432 reversed $197 $-1 #
coedge $-1 $433 $199 $201 $312 forward $124 $-1 #
coedge $-1 $199 $433 $429 $434 forward $124 $-1 #
coedge $-1 $431 $202 $199 $309 forward $303 $-1 #
edge $-1 $315 1.8816399121752205 $435 10.202813725226189 $308 $436 forward 7 unknown #
coedge $-1 $437 $438 $200 $311 forward $427 $-1 #
edge $-1 $439 -37.376818813962174 $314 -29.86022333860911 $310 $440 forward 7 unknown #
edge $-1 $315 -13.104784126591147 $439 1.7754109250068268e-014 $201 $441 forward 7 unknown #
coedge $-1 $202 $431 $437 $442 forward $303 $-1 #
vertex $-1 $203 $443 #
vertex $-1 $203 $444 #
straight-curve $-1 -54.639788924885778 7.9238667308759254 16.144620653778617 1 0 0 I I #
coedge $-1 $317 $317 $-1 $445 reversed $206 $-1 #
edge $-1 $446 0 $446 6.2831853071796004 $207 $447 forward 7 unknown #
vertex $-1 $210 $448 #
ellipse-curve $-1 -45.527702563215129 9.5881014934861213 12.386322916102078 -0.57357644374324357 0 0.81915203911291934 0.40957601955645967 0 0.28678822187162178 1 I I #
coedge $-1 $321 $321 $-1 $449 reversed $213 $-1 #
edge $-1 $450 0 $450 6.2831853071796004 $214 $451 forward 7 unknown #
vertex $-1 $217 $452 #
ellipse-curve $-1 -45.527702563215129 12.08445363740141 12.386322916102078 -0.57357644374324357 0 0.81915203911291934 0.40957601955645967 0 0.28678822187162178 1 I I #
coedge $-1 $325 $325 $-1 $453 reversed $220 $-1 #
edge $-1 $454 0 $454 6.2831853071796004 $221 $455 forward 7 unknown #
vertex $-1 $224 $456 #
ellipse-curve $-1 -45.527702563215129 14.580805781316698 12.386322916102078 -0.57357644374324357 0 0.81915203911291934 0.40957601955645967 0 0.28678822187162178 1 I I #
face $-1 $-1 $341 $46 $-1 $457 forward single #
loop $-1 $-1 $458 $225 #
plane-surface $-1 50.895107882931001 0 0 -1 0 0 0 0 1 forward_v I I I I #
coedge $-1 $459 $460 $461 $462 reversed $226 $-1 #
coedge $-1 $463 $228 $230 $339 forward $143 $-1 #
coedge $-1 $228 $463 $459 $464 forward $143 $-1 #
coedge $-1 $461 $231 $228 $336 forward $341 $-1 #
edge $-1 $343 -12.863505155284589 $465 -4.1294079398272707 $335 $466 forward 7 unknown #
coedge $-1 $467 $468 $229 $338 forward $330 $-1 #
edge $-1 $469 -67.491507659191868 $342 -58.130003880157474 $337 $470 forward 7 unknown #
edge $-1 $343 90.361929953300418 $469 101.79021576586199 $230 $471 forward 7 unknown #
coedge $-1 $231 $461 $467 $472 forward $341 $-1 #
loop $-1 $-1 $461 $329 #
vertex $-1 $338 $473 #
vertex $-1 $232 $474 #
straight-curve $-1 37.946152006069049 21.359961702840518 16.144620653778617 -1 0 0 I I #
coedge $-1 $345 $345 $-1 $475 reversed $235 $-1 #
edge $-1 $476 0 $476 6.2831853071796004 $236 $477 forward 7 unknown #
vertex $-1 $239 $478 #
ellipse-curve $-1 47.61761022432313 16.992913095111859 11.463868764261413 0.81915205242281985 0 0.57357642473473569 0.57357642473473569 0 -0.81915205242281985 1 I I #
face $-1 $-1 $255 $36 $-1 $479 reversed single #
loop $-1 $-1 $365 $240 #
plane-surface $-1 0 34.986328822615917 0 0 -1 0 0 0 -1 forward_v I I I I #
coedge $-1 $480 $363 $366 $481 forward $241 $-1 #
coedge $-1 $369 $243 $244 $357 reversed $152 $-1 #
coedge $-1 $363 $480 $243 $355 reversed $241 $-1 #
edge $-1 $370 -16.144620653778617 $482 16.144620653778617 $354 $483 forward 7 unknown #
coedge $-1 $245 $244 $480 $484 forward $97 $-1 #
edge $-1 $361 -50.895107882931001 $482 50.895107882931001 $353 $485 forward 7 unknown #
coedge $-1 $366 $365 $245 $359 reversed $350 $-1 #
edge $-1 $486 -50.895107882931001 $360 50.895107882931001 $358 $487 forward 7 unknown #
vertex $-1 $247 $488 #
vertex $-1 $372 $489 #
straight-curve $-1 50.895107882931001 0 -16.144620653778617 0 -1 0 I I #
coedge $-1 $352 $354 $248 $364 reversed $241 $-1 #
edge $-1 $367 -34.986328822615917 $370 34.986328822615917 $363 $490 forward 7 unknown #
coedge $-1 $358 $249 $254 $373 forward $350 $-1 #
coedge $-1 $249 $358 $352 $481 reversed $350 $-1 #
vertex $-1 $250 $491 #
straight-curve $-1 0 34.986328822615917 16.144620653778617 -1 0 0 I I #
coedge $-1 $251 $353 $253 $372 reversed $152 $-1 #
vertex $-1 $364 $492 #
straight-curve $-1 0 -34.986328822615917 16.144620653778617 1 0 0 I I #
edge $-1 $256 -16.144620653778617 $361 16.144620653778617 $253 $493 forward 7 unknown #
edge $-1 $257 -16.144620653778617 $360 16.144620653778617 $254 $494 forward 7 unknown #
point $-1 50.895107882931001 -34.986328822615917 16.144620653778617 #
point $-1 50.895107882931001 34.986328822615917 16.144620653778617 #
face $-1 $-1 $495 $37 $-1 $496 reversed single #
loop $-1 $-1 $269 $259 #
plane-surface $-1 0 -34.986328822615917 0 0 1 0 0 0 1 forward_v I I I I #
coedge $-1 $497 $262 $383 $498 forward $160 $-1 #
coedge $-1 $262 $497 $499 $500 forward $160 $-1 #
edge $-1 $501 -50.895107882931001 $384 50.895107882931001 $262 $502 forward 7 unknown #
coedge $-1 $264 $263 $503 $504 reversed $101 $-1 #
coedge $-1 $265 $271 $379 $498 reversed $260 $-1 #
vertex $-1 $498 $505 #
straight-curve $-1 50.895107882931001 -19.138595360864059 -6.6043555081742804 0 0 1 I I #
coedge $-1 $503 $506 $267 $387 forward $495 $-1 #
edge $-1 $392 -21.455097776745923 $388 -5.6073643149940651 $386 $507 forward 7 unknown #
vertex $-1 $387 $508 #
straight-curve $-1 0 -19.138595360864059 -10.272801378918505 -1 0 0 I I #
coedge $-1 $509 $269 $506 $510 forward $377 $-1 #
coedge $-1 $269 $509 $271 $394 reversed $377 $-1 #
vertex $-1 $510 $511 #
straight-curve $-1 0 -34.986328822615917 -10.272801378918505 -1 0 0 I I #
edge $-1 $273 10.272801378918505 $512 16.144620653778617 $271 $513 forward 7 unknown #
point $-1 50.895107882931001 -19.138595360864059 -10.272801378918505 #
point $-1 50.895107882931001 -34.986328822615917 -10.272801378918505 #
loop $-1 $-1 $283 $275 #
plane-surface $-1 -50.895107882931001 0 0 1 0 0 0 0 -1 forward_v I I I I #
coedge $-1 $400 $278 $280 $404 reversed $168 $-1 #
coedge $-1 $278 $399 $514 $515 reversed $168 $-1 #
coedge $-1 $286 $281 $278 $402 forward $276 $-1 #
edge $-1 $405 -14.479491681386548 $516 -3.7446810419547774 $401 $517 forward 7 unknown #
coedge $-1 $280 $279 $408 $518 reversed $105 $-1 #
edge $-1 $519 -1.7754109250068268e-014 $405 13.104784126591147 $399 $520 forward 7 unknown #
vertex $-1 $282 $521 #
straight-curve $-1 -40.16029724349923 -7.4890042271692874 16.144620653778617 0 1 0 I I #
coedge $-1 $514 $283 $286 $412 reversed $397 $-1 #
coedge $-1 $283 $514 $403 $518 forward $397 $-1 #
vertex $-1 $284 $522 #
straight-curve $-1 -50.895107882931001 -19.138595360864059 46.004843992387727 0 0 1 I I #
straight-curve $-1 -50.895107882930986 -19.138595360864059 8.6280251784255597 -0.81915203911291934 0 -0.57357644374324357 I I #
edge $-1 $516 10.81742154781309 $287 19.138595360864059 $407 $523 forward 7 unknown #
point $-1 -50.895107882931001 -19.138595360864059 16.144620653778617 #
point $-1 -40.16029724349923 -19.138595360864059 16.144620653778617 #
edge $-1 $524 1 $524 0 $290 $-1 forward 7 unknown #
vertex $-1 $291 $525 #
ellipse-curve $-1 -44.443225247395951 -17.474360598253867 10.837528828905146 -0.57357644374324357 0 0.81915203911291934 0.40957601955645967 0 0.28678822187162178 1 I I #
point $-1 -45.118126543658668 -17.474360598253867 12.673111137973709 #
edge $-1 $526 1 $526 0 $294 $-1 forward 7 unknown #
vertex $-1 $295 $527 #
ellipse-curve $-1 -44.443225247395951 -14.978008454338578 10.837528828905146 -0.57357644374324357 0 0.81915203911291934 0.40957601955645967 0 0.28678822187162178 1 I I #
point $-1 -45.118126543658668 -14.978008454338578 12.673111137973709 #
edge $-1 $528 1 $528 0 $298 $-1 forward 7 unknown #
vertex $-1 $299 $529 #
ellipse-curve $-1 -44.443225247395951 -12.48165631042329 10.837528828905146 -0.57357644374324357 0 0.81915203911291934 0.40957601955645967 0 0.28678822187162178 1 I I #
point $-1 -45.118126543658668 -12.48165631042329 12.673111137973709 #
loop $-1 $-1 $310 $302 #
plane-surface $-1 -50.895107882931001 0 0 1 0 0 0 0 -1 forward_v I I I I #
coedge $-1 $430 $305 $307 $434 reversed $197 $-1 #
coedge $-1 $305 $429 $530 $531 reversed $197 $-1 #
coedge $-1 $313 $308 $305 $432 forward $303 $-1 #
edge $-1 $435 -14.479491681386548 $532 -3.7446810419547774 $431 $533 forward 7 unknown #
coedge $-1 $307 $306 $438 $534 reversed $124 $-1 #
edge $-1 $535 -1.7754109250068268e-014 $435 13.104784126591147 $429 $536 forward 7 unknown #
vertex $-1 $309 $537 #
straight-curve $-1 -40.16029724349923 6.0422268187007049 16.144620653778617 0 1 0 I I #
coedge $-1 $530 $310 $313 $442 reversed $427 $-1 #
coedge $-1 $310 $530 $433 $534 forward $427 $-1 #
vertex $-1 $311 $538 #
straight-curve $-1 -50.895107882931001 7.9238667308759254 46.004843992387727 0 0 1 I I #
straight-curve $-1 -50.895107882930986 7.9238667308759254 8.6280251784255597 -0.81915203911291934 0 -0.57357644374324357 I I #
edge $-1 $532 -16.245040543926894 $314 -7.9238667308759254 $437 $539 forward 7 unknown #
point $-1 -50.895107882931001 7.9238667308759254 16.144620653778617 #
point $-1 -40.16029724349923 7.9238667308759254 16.144620653778617 #
edge $-1 $540 1 $540 0 $317 $-1 forward 7 unknown #
vertex $-1 $318 $541 #
ellipse-curve $-1 -44.443225247395951 9.5881014934861213 10.837528828905146 -0.57357644374324357 0 0.81915203911291934 0.40957601955645967 0 0.28678822187162178 1 I I #
point $-1 -45.118126543658668 9.5881014934861213 12.673111137973709 #
edge $-1 $542 1 $542 0 $321 $-1 forward 7 unknown #
vertex $-1 $322 $543 #
ellipse-curve $-1 -44.443225247395951 12.08445363740141 10.837528828905146 -0.57357644374324357 0 0.81915203911291934 0.40957601955645967 0 0.28678822187162178 1 I I #
point $-1 -45.118126543658668 12.08445363740141 12.673111137973709 #
edge $-1 $544 1 $544 0 $325 $-1 forward 7 unknown #
vertex $-1 $326 $545 #
ellipse-curve $-1 -44.443225247395951 14.580805781316698 10.837528828905146 -0.57357644374324357 0 0.81915203911291934 0.40957601955645967 0 0.28678822187162178 1 I I #
point $-1 -45.118126543658668 14.580805781316698 12.673111137973709 #
plane-surface $-1 0 0 16.144620653778617 0 0 1 1 0 0 forward_v I I I I #
coedge $-1 $468 $467 $460 $546 forward $330 $-1 #
coedge $-1 $460 $332 $334 $464 reversed $226 $-1 #
coedge $-1 $332 $459 $458 $546 reversed $226 $-1 #
coedge $-1 $340 $335 $332 $462 forward $341 $-1 #
edge $-1 $465 6.3939605596461817 $547 12.948955876861952 $461 $548 forward 7 unknown #
coedge $-1 $334 $333 $468 $549 reversed $143 $-1 #
edge $-1 $550 -101.79021576586199 $465 -90.361929953300418 $459 $551 forward 7 unknown #
vertex $-1 $336 $552 #
straight-curve $-1 44.340112565715245 8.4964565475559297 16.144620653778617 0 -1 0 I I #
coedge $-1 $458 $337 $340 $472 reversed $330 $-1 #
coedge $-1 $337 $458 $463 $549 forward $330 $-1 #
vertex $-1 $338 $553 #
straight-curve $-1 50.895107882931001 21.359961702840518 74.274624533936091 0 0 1 I I #
straight-curve $-1 -7.4893601490294373 21.359961702840518 90.16478103591173 0.57357642473473569 0 -0.81915205242281985 I I #
edge $-1 $547 12.6258644873832 $342 21.359961702840518 $467 $554 forward 7 unknown #
point $-1 50.895107882931001 21.359961702840518 16.144620653778617 #
point $-1 44.340112565715231 21.359961702840518 16.144620653778617 #
edge $-1 $555 1 $555 0 $345 $-1 forward 7 unknown #
vertex $-1 $346 $556 #
ellipse-curve $-1 45.109130496419723 16.992913095111859 9.7074124023505544 0.81915205242281985 0 0.57357642473473569 0.57357642473473569 0 -0.81915205242281985 1 I I #
point $-1 48.191186649057855 16.992913095111859 10.644716711838583 #
plane-surface $-1 50.895107882931001 0 0 -1 0 0 0 0 1 forward_v I I I I #
coedge $-1 $354 $352 $356 $484 reversed $241 $-1 #
edge $-1 $367 -16.144620653778617 $486 16.144620653778617 $366 $557 forward 7 unknown #
vertex $-1 $484 $558 #
straight-curve $-1 -50.895107882931001 -34.986328822615917 0 0 0 -1 I I #
edge $-1 $482 -34.986328822615917 $486 34.986328822615917 $480 $559 forward 7 unknown #
straight-curve $-1 0 -34.986328822615917 -16.144620653778617 -1 0 0 I I #
vertex $-1 $359 $560 #
straight-curve $-1 0 34.986328822615917 -16.144620653778617 1 0 0 I I #
point $-1 50.895107882931001 34.986328822615917 -16.144620653778617 #
point $-1 50.895107882931001 -34.986328822615917 -16.144620653778617 #
straight-curve $-1 -50.895107882931001 0 16.144620653778617 0 -1 0 I I #
point $-1 -50.895107882931001 34.986328822615917 16.144620653778617 #
point $-1 -50.895107882931001 -34.986328822615917 16.144620653778617 #
straight-curve $-1 50.895107882931001 -34.986328822615917 0 0 0 -1 I I #
straight-curve $-1 50.895107882931001 34.986328822615917 0 0 0 -1 I I #
loop $-1 $-1 $503 $376 #
plane-surface $-1 -50.895107882931001 0 0 1 0 0 0 0 -1 forward_v I I I I #
coedge $-1 $380 $379 $509 $561 forward $160 $-1 #
edge $-1 $384 19.138595360864059 $512 34.986328822615917 $383 $562 forward 7 unknown #
coedge $-1 $506 $503 $380 $500 reversed $495 $-1 #
edge $-1 $563 -34.986328822615917 $501 -19.138595360864059 $499 $564 forward 7 unknown #
vertex $-1 $504 $565 #
straight-curve $-1 0 -19.138595360864059 -16.144620653778617 1 0 0 I I #
coedge $-1 $499 $386 $382 $504 forward $495 $-1 #
edge $-1 $388 3.6684458707442245 $501 9.5402651456043372 $503 $566 forward 7 unknown #
point $-1 50.895107882931001 -19.138595360864059 -16.144620653778617 #
coedge $-1 $386 $499 $390 $510 reversed $495 $-1 #
straight-curve $-1 -50.895107882931001 -13.531231045869994 -10.272801378918505 0 1 0 I I #
point $-1 -50.895107882931001 -19.138595360864059 -10.272801378918505 #
coedge $-1 $391 $390 $497 $561 reversed $377 $-1 #
edge $-1 $392 10.272801378918505 $563 16.144620653778617 $506 $567 forward 7 unknown #
point $-1 -50.895107882931001 -34.986328822615917 -10.272801378918505 #
vertex $-1 $394 $568 #
straight-curve $-1 50.895107882931001 -34.986328822615917 0 0 0 -1 I I #
coedge $-1 $408 $407 $400 $515 forward $397 $-1 #
edge $-1 $516 29.86022333860911 $519 37.376818813962174 $514 $569 forward 7 unknown #
vertex $-1 $412 $570 #
straight-curve $-1 -54.639788924885778 -10.81742154781309 16.144620653778617 -1 0 0 I I #
edge $-1 $519 3.328417320643803 $409 11.649591133694772 $408 $571 forward 7 unknown #
vertex $-1 $518 $572 #
straight-curve $-1 -50.895107882930986 -10.81742154781309 8.6280251784255597 0.81915203911291934 0 0.57357644374324357 I I #
point $-1 -40.16029724349923 -10.81742154781309 16.144620653778617 #
point $-1 -50.895107882931001 -19.138595360864059 8.6280251784255491 #
straight-curve $-1 -50.895107882931001 0 16.144620653778617 0 -1 0 I I #
vertex $-1 $415 $573 #
point $-1 -44.03364922783949 -17.474360598253867 11.124317050776767 #
vertex $-1 $419 $574 #
point $-1 -44.03364922783949 -14.978008454338578 11.124317050776767 #
vertex $-1 $423 $575 #
point $-1 -44.03364922783949 -12.48165631042329 11.124317050776767 #
coedge $-1 $438 $437 $430 $531 forward $427 $-1 #
edge $-1 $532 29.86022333860911 $535 37.376818813962174 $530 $576 forward 7 unknown #
vertex $-1 $442 $577 #
straight-curve $-1 -54.639788924885778 16.245040543926894 16.144620653778617 -1 0 0 I I #
edge $-1 $535 -10.202813725226189 $439 -1.8816399121752205 $438 $578 forward 7 unknown #
vertex $-1 $534 $579 #
straight-curve $-1 -50.895107882930986 16.245040543926894 8.6280251784255597 0.81915203911291934 0 0.57357644374324357 I I #
point $-1 -40.16029724349923 16.245040543926894 16.144620653778617 #
point $-1 -50.895107882931001 7.9238667308759254 8.6280251784255491 #
straight-curve $-1 -50.895107882931001 0 16.144620653778617 0 -1 0 I I #
vertex $-1 $445 $580 #
point $-1 -44.03364922783949 9.5881014934861213 11.124317050776767 #
vertex $-1 $449 $581 #
point $-1 -44.03364922783949 12.08445363740141 11.124317050776767 #
vertex $-1 $453 $582 #
point $-1 -44.03364922783949 14.580805781316698 11.124317050776767 #
edge $-1 $547 58.130003880157474 $550 67.491507659191868 $458 $583 forward 7 unknown #
vertex $-1 $472 $584 #
straight-curve $-1 37.946152006069049 12.6258644873832 16.144620653778617 1 0 0 I I #
edge $-1 $550 4.1294079398272707 $469 12.863505155284589 $468 $585 forward 7 unknown #
vertex $-1 $549 $586 #
straight-curve $-1 -7.4893601490294373 12.6258644873832 90.16478103591173 -0.57357642473473569 0 0.81915205242281985 I I #
point $-1 44.340112565715231 12.6258644873832 16.144620653778617 #
point $-1 50.895107882931001 21.359961702840518 6.7831168747442234 #
straight-curve $-1 50.895107882931001 0 16.144620653778617 0 1 0 I I #
vertex $-1 $475 $587 #
point $-1 45.682706921154455 16.992913095111859 8.8882603499277337 #
straight-curve $-1 -50.895107882931001 34.986328822615917 0 0 0 -1 I I #
point $-1 -50.895107882931001 -34.986328822615917 -16.144620653778617 #
straight-curve $-1 -50.895107882931001 0 -16.144620653778617 0 1 0 I I #
point $-1 -50.895107882931001 34.986328822615917 -16.144620653778617 #
edge $-1 $512 -50.895107882931001 $563 50.895107882931001 $509 $588 forward 7 unknown #
straight-curve $-1 50.895107882931001 0 -16.144620653778617 0 -1 0 I I #
vertex $-1 $500 $589 #
straight-curve $-1 -50.895107882931001 0 -16.144620653778617 0 1 0 I I #
point $-1 -50.895107882931001 -19.138595360864059 -16.144620653778617 #
straight-curve $-1 -50.895107882931001 -19.138595360864059 -6.6043555081742804 0 0 -1 I I #
straight-curve $-1 -50.895107882931001 -34.986328822615917 0 0 0 -1 I I #
point $-1 50.895107882931001 -34.986328822615917 -16.144620653778617 #
straight-curve $-1 -50.895107882931001 -10.81742154781309 46.004843992387727 0 0 -1 I I #
point $-1 -50.895107882931001 -10.81742154781309 16.144620653778617 #
straight-curve $-1 -50.895107882931001 -7.4890042271692874 8.6280251784255508 0 -1 0 I I #
point $-1 -50.895107882931001 -10.81742154781309 8.6280251784255491 #
point $-1 -44.156437025524333 -17.474360598253867 10.427952809348685 #
point $-1 -44.156437025524333 -14.978008454338578 10.427952809348685 #
point $-1 -44.156437025524333 -12.48165631042329 10.427952809348685 #
straight-curve $-1 -50.895107882931001 16.245040543926894 46.004843992387727 0 0 -1 I I #
point $-1 -50.895107882931001 16.245040543926894 16.144620653778617 #
straight-curve $-1 -50.895107882931001 6.0422268187007049 8.6280251784255508 0 -1 0 I I #
point $-1 -50.895107882931001 16.245040543926894 8.6280251784255491 #
point $-1 -44.156437025524333 9.5881014934861213 10.427952809348685 #
point $-1 -44.156437025524333 12.08445363740141 10.427952809348685 #
point $-1 -44.156437025524333 14.580805781316698 10.427952809348685 #
straight-curve $-1 50.895107882931001 12.6258644873832 74.274624533936091 0 0 -1 I I #
point $-1 50.895107882931001 12.6258644873832 16.144620653778617 #
straight-curve $-1 50.895107882931001 8.4964565475559297 6.7831168747442092 0 1 0 I I #
point $-1 50.895107882931001 12.6258644873832 6.7831168747442234 #
point $-1 44.289978443996901 16.992913095111859 9.1338359776158189 #
straight-curve $-1 0 -34.986328822615917 -16.144620653778617 -1 0 0 I I #
point $-1 -50.895107882931001 -34.986328822615917 -16.144620653778617 #
End-of-ACIS-data 