500 0 11 0           
7 Unknown 11 ACIS 5.0 NT 24 Fri Mar 26 00:58:22 1999 
-1 9.9999999999999995e-007 1e-010 
body $-1 $11 $-1 $12 #
body $-1 $13 $-1 $14 #
body $-1 $15 $-1 $16 #
body $-1 $17 $-1 $18 #
body $-1 $19 $-1 $20 #
body $-1 $21 $-1 $22 #
body $-1 $23 $-1 $24 #
body $-1 $25 $-1 $26 #
body $-1 $27 $-1 $28 #
body $-1 $29 $-1 $30 #
body $-1 $31 $-1 $32 #
lump $-1 $-1 $33 $0 #
transform $-1 1 0 0 0 1 0 0 0 1 50.117496261482586 34.473807794036134 8.5060362143010568 1 rotate no_reflect no_shear #
lump $-1 $-1 $34 $1 #
transform $-1 1 0 0 0 1 0 0 0 1 50.117496261482586 34.473807794036134 8.5060362143010568 1 rotate no_reflect no_shear #
lump $-1 $-1 $35 $2 #
transform $-1 1 0 0 0 1 0 0 0 1 50.117496261482586 34.473807794036134 8.5060362143010568 1 rotate no_reflect no_shear #
lump $-1 $-1 $36 $3 #
transform $-1 1 0 0 0 1 0 0 0 1 50.117496261482586 34.473807794036134 8.5060362143010568 1 rotate no_reflect no_shear #
lump $-1 $-1 $37 $4 #
transform $-1 1 0 0 0 1 0 0 0 1 50.117496261482586 34.473807794036134 8.5060362143010568 1 rotate no_reflect no_shear #
lump $-1 $-1 $38 $5 #
transform $-1 1 0 0 0 1 0 0 0 1 50.117496261482586 34.473807794036134 8.5060362143010568 1 rotate no_reflect no_shear #
lump $-1 $-1 $39 $6 #
transform $-1 1 0 0 0 1 0 0 0 1 50.117496261482586 34.473807794036134 8.5060362143010568 1 rotate no_reflect no_shear #
lump $-1 $-1 $40 $7 #
transform $-1 1 0 0 0 1 0 0 0 1 50.117496261482586 34.473807794036134 8.5060362143010568 1 rotate no_reflect no_shear #
lump $-1 $-1 $41 $8 #
transform $-1 1 0 0 0 1 0 0 0 1 50.117496261482586 34.473807794036134 8.5060362143010568 1 rotate no_reflect no_shear #
lump $-1 $-1 $42 $9 #
transform $-1 1 0 0 0 1 0 0 0 1 50.117496261482586 34.473807794036134 8.5060362143010568 1 rotate no_reflect no_shear #
lump $-1 $-1 $43 $10 #
transform $-1 1 0 0 0 1 0 0 0 1 50.117496261482586 34.473807794036134 8.5060362143010568 1 rotate no_reflect no_shear #
shell $-1 $-1 $-1 $44 $-1 $11 #
shell $-1 $-1 $-1 $45 $-1 $13 #
shell $-1 $-1 $-1 $46 $-1 $15 #
shell $-1 $-1 $-1 $47 $-1 $17 #
shell $-1 $-1 $-1 $48 $-1 $19 #
shell $-1 $-1 $-1 $49 $-1 $21 #
shell $-1 $-1 $-1 $50 $-1 $23 #
shell $-1 $-1 $-1 $51 $-1 $25 #
shell $-1 $-1 $-1 $52 $-1 $27 #
shell $-1 $-1 $-1 $53 $-1 $29 #
shell $-1 $-1 $-1 $54 $-1 $31 #
face $-1 $55 $56 $33 $-1 $57 forward single #
face $-1 $58 $59 $34 $-1 $60 forward single #
face $-1 $61 $62 $35 $-1 $63 forward single #
face $-1 $64 $65 $36 $-1 $66 reversed single #
face $-1 $67 $68 $37 $-1 $69 forward single #
face $-1 $70 $71 $38 $-1 $72 forward single #
face $-1 $73 $74 $39 $-1 $75 forward single #
face $-1 $76 $77 $40 $-1 $78 reversed single #
face $-1 $79 $80 $41 $-1 $81 forward single #
face $-1 $82 $83 $42 $-1 $84 forward single #
face $-1 $85 $86 $43 $-1 $87 forward single #
face $-1 $88 $89 $33 $-1 $90 reversed single #
loop $-1 $-1 $91 $44 #
plane-surface $-1 0 0 8.5060362143010568 0 0 1 1 0 0 forward_v I I I I #
face $-1 $92 $93 $34 $-1 $94 reversed single #
loop $-1 $-1 $95 $45 #
plane-surface $-1 0 -29.073986918715129 8.0060362143010568 0 0 1 1 0 0 forward_v I I I I #
face $-1 $96 $97 $35 $-1 $98 reversed single #
loop $-1 $-1 $99 $46 #
plane-surface $-1 0 29.073986918715129 8.0060362143010568 0 0 1 1 0 0 forward_v I I I I #
face $-1 $100 $101 $36 $-1 $102 reversed single #
loop $-1 $-1 $103 $47 #
plane-surface $-1 77.165376658647787 -12.552337710717687 140.83299189824118 0 1 0 0.82903758062907751 0 0.55919289150049634 forward_v I I I I #
face $-1 $104 $105 $37 $-1 $106 forward single #
loop $-1 $107 $108 $48 #
cone-surface $-1 46.328513039551112 -9.7273124544239558 4.0911233085502232 -0.82903758062907751 0 -0.55919289150049634 0.55919289150049634 0 -0.82903758062907751 1 I I 0 1 1 forward I I I I #
face $-1 $109 $110 $38 $-1 $111 forward single #
loop $-1 $112 $113 $49 #
cone-surface $-1 46.328513039551112 -5.4897745699833571 4.0911233085502232 -0.82903758062907751 0 -0.55919289150049634 0.55919289150049634 0 -0.82903758062907751 1 I I 0 1 1 forward I I I I #
face $-1 $114 $115 $39 $-1 $116 forward single #
loop $-1 $117 $118 $50 #
cone-surface $-1 46.328513039551112 -1.2522366855427549 4.0911233085502232 -0.82903758062907751 0 -0.55919289150049634 0.55919289150049634 0 -0.82903758062907751 1 I I 0 1 1 forward I I I I #
face $-1 $119 $120 $40 $-1 $121 reversed single #
loop $-1 $-1 $122 $51 #
plane-surface $-1 -133.21607195709532 1.5727885707509728 57.734416202628459 0 -1 0 0.82903758062907751 0 -0.55919289150049634 forward_v I I I I #
face $-1 $123 $124 $41 $-1 $125 forward single #
loop $-1 $126 $127 $52 #
cone-surface $-1 -46.328513039551112 -9.7273124544239558 4.0911233085502161 0.82903758062907751 0 -0.55919289150049634 0.55919289150049634 0 0.82903758062907751 1 I I 0 1 1 forward I I I I #
face $-1 $128 $129 $42 $-1 $130 forward single #
loop $-1 $131 $132 $53 #
cone-surface $-1 -46.328513039551112 -5.4897745699833571 4.0911233085502161 0.82903758062907751 0 -0.55919289150049634 0.55919289150049634 0 0.82903758062907751 1 I I 0 1 1 forward I I I I #
face $-1 $133 $134 $43 $-1 $135 forward single #
loop $-1 $136 $137 $54 #
cone-surface $-1 -46.328513039551112 -1.2522366855427549 4.0911233085502161 0.82903758062907751 0 -0.55919289150049634 0.55919289150049634 0 0.82903758062907751 1 I I 0 1 1 forward I I I I #
face $-1 $138 $139 $33 $-1 $140 reversed single #
loop $-1 $-1 $141 $55 #
plane-surface $-1 0 0 -8.5060362143010568 0 0 1 1 0 0 forward_v I I I I #
coedge $-1 $142 $143 $144 $145 forward $56 $-1 #
face $-1 $146 $147 $34 $-1 $148 reversed single #
loop $-1 $-1 $149 $58 #
plane-surface $-1 0 -29.073986918715129 4.9006463764398607 0 0 1 1 0 0 forward_v I I I I #
coedge $-1 $150 $151 $152 $153 reversed $59 $-1 #
face $-1 $154 $155 $35 $-1 $156 reversed single #
loop $-1 $-1 $157 $61 #
plane-surface $-1 0 29.073986918715129 4.9006463764398607 0 0 1 1 0 0 forward_v I I I I #
coedge $-1 $158 $159 $160 $161 reversed $62 $-1 #
face $-1 $162 $163 $36 $-1 $164 reversed single #
loop $-1 $-1 $165 $64 #
plane-surface $-1 -5.9331990369649361 -5.4897745699833571 84.782296599793654 0.82903758062907751 0 0.55919289150049634 0.55919289150049634 0 -0.82903758062907751 forward_v I I I I #
coedge $-1 $166 $167 $168 $169 reversed $65 $-1 #
face $-1 $-1 $170 $37 $-1 $171 forward single #
loop $-1 $172 $173 $67 #
cone-surface $-1 44.425865846274434 -9.7273124544239558 2.8077716121091978 -0.82903758062907751 0 -0.55919289150049634 0.27959644575024817 0 -0.41451879031453875 1 I I -0.70710678118654746 0.70710678118654746 0.5 forward I I I I #
loop $-1 $-1 $174 $48 #
coedge $-1 $108 $108 $175 $176 reversed $68 $-1 #
face $-1 $-1 $177 $38 $-1 $178 forward single #
loop $-1 $179 $180 $70 #
cone-surface $-1 44.425865846274434 -5.4897745699833571 2.8077716121091978 -0.82903758062907751 0 -0.55919289150049634 0.27959644575024817 0 -0.41451879031453875 1 I I -0.70710678118654746 0.70710678118654746 0.5 forward I I I I #
loop $-1 $-1 $181 $49 #
coedge $-1 $113 $113 $182 $183 reversed $71 $-1 #
face $-1 $-1 $184 $39 $-1 $185 forward single #
loop $-1 $186 $187 $73 #
cone-surface $-1 44.425865846274434 -1.2522366855427549 2.8077716121091978 -0.82903758062907751 0 -0.55919289150049634 0.27959644575024817 0 -0.41451879031453875 1 I I -0.70710678118654746 0.70710678118654746 0.5 forward I I I I #
loop $-1 $-1 $188 $50 #
coedge $-1 $118 $118 $189 $190 reversed $74 $-1 #
face $-1 $191 $192 $40 $-1 $193 reversed single #
loop $-1 $-1 $194 $76 #
plane-surface $-1 -50.1174962614826 -5.4897745699833571 1.6837209041809373 -0.82903758062907751 0 0.55919289150049634 0.55919289150049634 0 0.82903758062907751 forward_v I I I I #
coedge $-1 $195 $196 $197 $198 reversed $77 $-1 #
face $-1 $-1 $199 $41 $-1 $200 forward single #
loop $-1 $201 $202 $79 #
cone-surface $-1 -44.425865846274434 -9.7273124544239558 2.8077716121091907 0.82903758062907751 0 -0.55919289150049634 0.27959644575024817 0 0.41451879031453875 1 I I -0.70710678118654746 0.70710678118654746 0.5 forward I I I I #
loop $-1 $-1 $203 $52 #
coedge $-1 $127 $127 $204 $205 reversed $80 $-1 #
face $-1 $-1 $206 $42 $-1 $207 forward single #
loop $-1 $208 $209 $82 #
cone-surface $-1 -44.425865846274434 -5.4897745699833571 2.8077716121091907 0.82903758062907751 0 -0.55919289150049634 0.27959644575024817 0 0.41451879031453875 1 I I -0.70710678118654746 0.70710678118654746 0.5 forward I I I I #
loop $-1 $-1 $210 $53 #
coedge $-1 $132 $132 $211 $212 reversed $83 $-1 #
face $-1 $-1 $213 $43 $-1 $214 forward single #
loop $-1 $215 $216 $85 #
cone-surface $-1 -44.425865846274434 -1.2522366855427549 2.8077716121091907 0.82903758062907751 0 -0.55919289150049634 0.27959644575024817 0 0.41451879031453875 1 I I -0.70710678118654746 0.70710678118654746 0.5 forward I I I I #
loop $-1 $-1 $217 $54 #
coedge $-1 $137 $137 $218 $219 reversed $86 $-1 #
face $-1 $220 $221 $33 $-1 $222 reversed single #
loop $-1 $-1 $223 $88 #
plane-surface $-1 0 -34.473807794036134 0 0 1 0 0 0 1 forward_v I I I I #
coedge $-1 $224 $225 $226 $227 forward $89 $-1 #
coedge $-1 $228 $91 $229 $230 forward $56 $-1 #
coedge $-1 $91 $228 $231 $232 forward $56 $-1 #
coedge $-1 $233 $234 $91 $145 reversed $235 $-1 #
edge $-1 $236 -34.473807794036134 $237 34.473807794036134 $144 $238 forward 7 unknown #
face $-1 $239 $240 $34 $-1 $241 reversed single #
loop $-1 $-1 $242 $92 #
plane-surface $-1 0 -23.674166043394123 6.4533412953704588 0 -1 0 0 0 -1 forward_v I I I I #
coedge $-1 $243 $244 $245 $246 reversed $93 $-1 #
coedge $-1 $247 $95 $248 $249 forward $59 $-1 #
coedge $-1 $95 $247 $250 $251 reversed $59 $-1 #
coedge $-1 $252 $253 $95 $153 forward $254 $-1 #
edge $-1 $255 9.1371725840365592 $256 19.936814334678569 $152 $257 forward 7 unknown #
face $-1 $258 $259 $35 $-1 $260 reversed single #
loop $-1 $-1 $261 $96 #
plane-surface $-1 0 23.674166043394123 6.4533412953704588 0 1 0 0 0 1 forward_v I I I I #
coedge $-1 $262 $263 $264 $265 reversed $97 $-1 #
coedge $-1 $266 $99 $267 $268 reversed $62 $-1 #
coedge $-1 $99 $266 $269 $270 forward $62 $-1 #
coedge $-1 $271 $272 $99 $161 forward $259 $-1 #
edge $-1 $273 -19.936814334678569 $274 -9.1371725840365592 $160 $275 forward 7 unknown #
face $-1 $276 $277 $36 $-1 $278 forward single #
loop $-1 $-1 $279 $100 #
plane-surface $-1 77.165376658647787 1.5727885707509728 140.83299189824118 0 -1 0 -0.82903758062907751 0 -0.55919289150049634 forward_v I I I I #
coedge $-1 $280 $281 $282 $283 reversed $101 $-1 #
coedge $-1 $167 $103 $284 $285 reversed $65 $-1 #
coedge $-1 $103 $166 $280 $286 reversed $65 $-1 #
coedge $-1 $282 $287 $103 $169 forward $288 $-1 #
edge $-1 $289 61.910459734819533 $290 68.732775044939658 $168 $291 forward 7 unknown #
loop $-1 $-1 $175 $104 #
plane-surface $-1 -5.9331990369649361 -5.4897745699833571 84.782296599793654 0.82903758062907751 0 0.55919289150049634 0.55919289150049634 0 -0.82903758062907751 forward_v I I I I #
loop $-1 $-1 $292 $67 #
coedge $-1 $173 $173 $174 $293 reversed $105 $-1 #
coedge $-1 $174 $174 $173 $293 forward $107 $-1 #
coedge $-1 $175 $175 $108 $176 forward $170 $-1 #
edge $-1 $294 0 $294 6.2831853071796004 $175 $295 forward 7 unknown #
loop $-1 $-1 $182 $109 #
plane-surface $-1 -5.9331990369649361 -5.4897745699833571 84.782296599793654 0.82903758062907751 0 0.55919289150049634 0.55919289150049634 0 -0.82903758062907751 forward_v I I I I #
loop $-1 $-1 $296 $70 #
coedge $-1 $180 $180 $181 $297 reversed $110 $-1 #
coedge $-1 $181 $181 $180 $297 forward $112 $-1 #
coedge $-1 $182 $182 $113 $183 forward $177 $-1 #
edge $-1 $298 0 $298 6.2831853071796004 $182 $299 forward 7 unknown #
loop $-1 $-1 $189 $114 #
plane-surface $-1 -5.9331990369649361 -5.4897745699833571 84.782296599793654 0.82903758062907751 0 0.55919289150049634 0.55919289150049634 0 -0.82903758062907751 forward_v I I I I #
loop $-1 $-1 $300 $73 #
coedge $-1 $187 $187 $188 $301 reversed $115 $-1 #
coedge $-1 $188 $188 $187 $301 forward $117 $-1 #
coedge $-1 $189 $189 $118 $190 forward $184 $-1 #
edge $-1 $302 0 $302 6.2831853071796004 $189 $303 forward 7 unknown #
face $-1 $304 $305 $40 $-1 $306 reversed single #
loop $-1 $-1 $307 $119 #
plane-surface $-1 -133.21607195709532 -12.552337710717687 57.734416202628459 0 1 0 -0.82903758062907751 0 0.55919289150049634 forward_v I I I I #
coedge $-1 $308 $309 $310 $311 reversed $120 $-1 #
coedge $-1 $196 $122 $312 $313 reversed $77 $-1 #
coedge $-1 $122 $195 $308 $314 reversed $77 $-1 #
coedge $-1 $310 $315 $122 $198 forward $305 $-1 #
edge $-1 $316 20.361171887013171 $317 27.183487197133271 $197 $318 forward 7 unknown #
loop $-1 $-1 $204 $123 #
plane-surface $-1 -50.1174962614826 -5.4897745699833571 1.6837209041809373 -0.82903758062907751 0 0.55919289150049634 0.55919289150049634 0 0.82903758062907751 forward_v I I I I #
loop $-1 $-1 $319 $79 #
coedge $-1 $202 $202 $203 $320 reversed $124 $-1 #
coedge $-1 $203 $203 $202 $320 forward $126 $-1 #
coedge $-1 $204 $204 $127 $205 forward $199 $-1 #
edge $-1 $321 0 $321 6.2831853071796004 $204 $322 forward 7 unknown #
loop $-1 $-1 $211 $128 #
plane-surface $-1 -50.1174962614826 -5.4897745699833571 1.6837209041809373 -0.82903758062907751 0 0.55919289150049634 0.55919289150049634 0 0.82903758062907751 forward_v I I I I #
loop $-1 $-1 $323 $82 #
coedge $-1 $209 $209 $210 $324 reversed $129 $-1 #
coedge $-1 $210 $210 $209 $324 forward $131 $-1 #
coedge $-1 $211 $211 $132 $212 forward $206 $-1 #
edge $-1 $325 0 $325 6.2831853071796004 $211 $326 forward 7 unknown #
loop $-1 $-1 $218 $133 #
plane-surface $-1 -50.1174962614826 -5.4897745699833571 1.6837209041809373 -0.82903758062907751 0 0.55919289150049634 0.55919289150049634 0 0.82903758062907751 forward_v I I I I #
loop $-1 $-1 $327 $85 #
coedge $-1 $216 $216 $217 $328 reversed $134 $-1 #
coedge $-1 $217 $217 $216 $328 forward $136 $-1 #
coedge $-1 $218 $218 $137 $219 forward $213 $-1 #
edge $-1 $329 0 $329 6.2831853071796004 $218 $330 forward 7 unknown #
face $-1 $331 $332 $33 $-1 $333 reversed single #
loop $-1 $-1 $334 $138 #
plane-surface $-1 -50.117496261482586 0 0 1 0 0 0 0 -1 forward_v I I I I #
coedge $-1 $335 $231 $336 $337 forward $139 $-1 #
coedge $-1 $338 $141 $335 $339 forward $89 $-1 #
coedge $-1 $141 $338 $340 $341 forward $89 $-1 #
coedge $-1 $234 $233 $141 $227 reversed $235 $-1 #
edge $-1 $342 -34.473807794036134 $343 34.473807794036134 $226 $344 forward 7 unknown #
coedge $-1 $143 $142 $345 $346 forward $56 $-1 #
coedge $-1 $347 $348 $142 $230 reversed $332 $-1 #
edge $-1 $237 -50.117496261482586 $349 50.117496261482586 $229 $350 forward 7 unknown #
coedge $-1 $223 $351 $143 $232 reversed $139 $-1 #
edge $-1 $352 -50.117496261482586 $236 50.117496261482586 $231 $353 forward 7 unknown #
coedge $-1 $226 $144 $351 $354 forward $235 $-1 #
coedge $-1 $144 $226 $347 $355 reversed $235 $-1 #
loop $-1 $-1 $233 $331 #
vertex $-1 $145 $356 #
vertex $-1 $145 $357 #
straight-curve $-1 50.117496261482586 0 8.5060362143010568 0 1 0 I I #
face $-1 $358 $359 $34 $-1 $360 reversed single #
loop $-1 $-1 $361 $146 #
plane-surface $-1 -50.117496261482586 0 0 1 0 0 0 0 -1 forward_v I I I I #
coedge $-1 $362 $248 $253 $363 reversed $147 $-1 #
coedge $-1 $364 $149 $365 $366 reversed $93 $-1 #
coedge $-1 $149 $364 $362 $367 forward $93 $-1 #
coedge $-1 $253 $252 $149 $246 forward $254 $-1 #
edge $-1 $368 -19.936814334678569 $369 -9.1371725840365592 $245 $370 forward 7 unknown #
coedge $-1 $151 $150 $361 $371 reversed $59 $-1 #
coedge $-1 $242 $372 $150 $249 reversed $147 $-1 #
edge $-1 $255 -50.117496261482586 $373 50.117496261482586 $248 $374 forward 7 unknown #
coedge $-1 $375 $376 $151 $251 forward $359 $-1 #
edge $-1 $256 -50.117496261482586 $377 50.117496261482586 $250 $378 forward 7 unknown #
coedge $-1 $245 $152 $376 $379 forward $254 $-1 #
coedge $-1 $152 $245 $242 $363 forward $254 $-1 #
loop $-1 $-1 $152 $358 #
vertex $-1 $153 $380 #
vertex $-1 $379 $381 #
straight-curve $-1 50.117496261482586 -14.536993459357564 8.0060362143010568 0 -1 0 I I #
face $-1 $382 $383 $35 $-1 $384 reversed single #
loop $-1 $-1 $160 $154 #
plane-surface $-1 50.117496261482586 0 0 -1 0 0 0 0 1 forward_v I I I I #
coedge $-1 $385 $269 $386 $387 reversed $155 $-1 #
coedge $-1 $388 $157 $385 $389 forward $97 $-1 #
coedge $-1 $157 $388 $390 $391 reversed $97 $-1 #
coedge $-1 $272 $271 $157 $265 forward $259 $-1 #
edge $-1 $392 9.1371725840365592 $393 19.936814334678569 $264 $394 forward 7 unknown #
coedge $-1 $159 $158 $395 $396 reversed $62 $-1 #
coedge $-1 $397 $398 $158 $268 forward $399 $-1 #
edge $-1 $400 -50.117496261482586 $273 50.117496261482586 $267 $401 forward 7 unknown #
coedge $-1 $261 $402 $159 $270 reversed $155 $-1 #
edge $-1 $403 -50.117496261482586 $274 50.117496261482586 $269 $404 forward 7 unknown #
coedge $-1 $264 $160 $402 $405 forward $259 $-1 #
coedge $-1 $160 $264 $397 $406 reversed $259 $-1 #
vertex $-1 $406 $407 #
vertex $-1 $161 $408 #
straight-curve $-1 50.117496261482586 14.536993459357564 8.0060362143010568 0 -1 0 I I #
face $-1 $-1 $288 $36 $-1 $409 reversed single #
loop $-1 $-1 $410 $162 #
plane-surface $-1 0 0 8.5060362143010568 0 0 1 1 0 0 forward_v I I I I #
coedge $-1 $411 $412 $413 $414 reversed $163 $-1 #
coedge $-1 $415 $165 $167 $286 forward $101 $-1 #
coedge $-1 $165 $415 $411 $416 forward $101 $-1 #
coedge $-1 $413 $168 $165 $283 forward $288 $-1 #
edge $-1 $290 -9.8074504257260084 $417 4.3176758557426513 $282 $418 forward 7 unknown #
coedge $-1 $419 $420 $166 $285 forward $277 $-1 #
edge $-1 $421 6.9330982942200308 $289 11.534807932158692 $284 $422 forward 7 unknown #
edge $-1 $290 -100.23499252296517 $421 -92.005793425689845 $167 $423 forward 7 unknown #
coedge $-1 $168 $413 $419 $424 reversed $288 $-1 #
loop $-1 $-1 $413 $276 #
vertex $-1 $424 $425 #
vertex $-1 $169 $426 #
straight-curve $-1 50.117496261482586 -12.552337710717687 70.416495949120588 0 0 -1 I I #
coedge $-1 $292 $292 $-1 $427 reversed $172 $-1 #
edge $-1 $428 0 $428 6.2831853071796004 $173 $429 forward 7 unknown #
vertex $-1 $176 $430 #
ellipse-curve $-1 47.816641442513252 -9.7273124544239558 5.0948785592409997 0.82903758062907751 0 0.55919289150049634 0.55919289150049634 0 -0.82903758062907751 1 I I #
coedge $-1 $296 $296 $-1 $431 reversed $179 $-1 #
edge $-1 $432 0 $432 6.2831853071796004 $180 $433 forward 7 unknown #
vertex $-1 $183 $434 #
ellipse-curve $-1 47.816641442513252 -5.4897745699833571 5.0948785592409997 0.82903758062907751 0 0.55919289150049634 0.55919289150049634 0 -0.82903758062907751 1 I I #
coedge $-1 $300 $300 $-1 $435 reversed $186 $-1 #
edge $-1 $436 0 $436 6.2831853071796004 $187 $437 forward 7 unknown #
vertex $-1 $190 $438 #
ellipse-curve $-1 47.816641442513252 -1.2522366855427549 5.0948785592409997 0.82903758062907751 0 0.55919289150049634 0.55919289150049634 0 -0.82903758062907751 1 I I #
face $-1 $-1 $439 $40 $-1 $440 forward single #
loop $-1 $-1 $197 $191 #
plane-surface $-1 -50.117496261482586 0 0 1 0 0 0 0 -1 forward_v I I I I #
coedge $-1 $441 $442 $443 $444 reversed $192 $-1 #
coedge $-1 $445 $194 $196 $314 forward $120 $-1 #
coedge $-1 $194 $445 $441 $446 forward $120 $-1 #
coedge $-1 $443 $197 $194 $311 forward $305 $-1 #
edge $-1 $317 -4.3176758557426513 $447 9.8074504257260084 $310 $448 forward 7 unknown #
coedge $-1 $449 $450 $195 $313 forward $439 $-1 #
edge $-1 $451 -21.092249355003723 $316 -16.490539717065076 $312 $452 forward 7 unknown #
edge $-1 $317 2.5434524534472062e-014 $451 8.2291990972753197 $196 $453 forward 7 unknown #
coedge $-1 $197 $443 $449 $454 reversed $305 $-1 #
vertex $-1 $454 $455 #
vertex $-1 $198 $456 #
straight-curve $-1 -50.117496261482586 1.5727885707509728 28.86720810131423 0 0 -1 I I #
coedge $-1 $319 $319 $-1 $457 reversed $201 $-1 #
edge $-1 $458 0 $458 6.2831853071796004 $202 $459 forward 7 unknown #
vertex $-1 $205 $460 #
ellipse-curve $-1 -47.816641442513266 -9.7273124544239558 5.0948785592410033 -0.82903758062907751 0 0.55919289150049634 0.55919289150049634 0 0.82903758062907751 1 I I #
coedge $-1 $323 $323 $-1 $461 reversed $208 $-1 #
edge $-1 $462 0 $462 6.2831853071796004 $209 $463 forward 7 unknown #
vertex $-1 $212 $464 #
ellipse-curve $-1 -47.816641442513266 -5.4897745699833571 5.0948785592410033 -0.82903758062907751 0 0.55919289150049634 0.55919289150049634 0 0.82903758062907751 1 I I #
coedge $-1 $327 $327 $-1 $465 reversed $215 $-1 #
edge $-1 $466 0 $466 6.2831853071796004 $216 $467 forward 7 unknown #
vertex $-1 $219 $468 #
ellipse-curve $-1 -47.816641442513266 -1.2522366855427549 5.0948785592410033 -0.82903758062907751 0 0.55919289150049634 0.55919289150049634 0 0.82903758062907751 1 I I #
face $-1 $-1 $235 $33 $-1 $469 reversed single #
loop $-1 $-1 $347 $220 #
plane-surface $-1 0 34.473807794036134 0 0 -1 0 0 0 -1 forward_v I I I I #
coedge $-1 $470 $345 $348 $471 forward $221 $-1 #
coedge $-1 $351 $223 $224 $339 reversed $139 $-1 #
coedge $-1 $345 $470 $223 $337 reversed $221 $-1 #
edge $-1 $352 -8.5060362143010568 $472 8.5060362143010568 $336 $473 forward 7 unknown #
coedge $-1 $225 $224 $470 $474 forward $89 $-1 #
edge $-1 $343 -50.117496261482586 $472 50.117496261482586 $335 $475 forward 7 unknown #
coedge $-1 $348 $347 $225 $341 reversed $332 $-1 #
edge $-1 $476 -50.117496261482586 $342 50.117496261482586 $340 $477 forward 7 unknown #
vertex $-1 $227 $478 #
vertex $-1 $354 $479 #
straight-curve $-1 50.117496261482586 0 -8.5060362143010568 0 -1 0 I I #
coedge $-1 $334 $336 $228 $346 reversed $221 $-1 #
edge $-1 $349 -34.473807794036134 $352 34.473807794036134 $345 $480 forward 7 unknown #
coedge $-1 $340 $229 $234 $355 forward $332 $-1 #
coedge $-1 $229 $340 $334 $471 reversed $332 $-1 #
vertex $-1 $230 $481 #
straight-curve $-1 0 34.473807794036134 8.5060362143010568 -1 0 0 I I #
coedge $-1 $231 $335 $233 $354 reversed $139 $-1 #
vertex $-1 $346 $482 #
straight-curve $-1 0 -34.473807794036134 8.5060362143010568 1 0 0 I I #
edge $-1 $236 -8.5060362143010568 $343 8.5060362143010568 $233 $483 forward 7 unknown #
edge $-1 $237 -8.5060362143010568 $342 8.5060362143010568 $234 $484 forward 7 unknown #
point $-1 50.117496261482586 -34.473807794036134 8.5060362143010568 #
point $-1 50.117496261482586 34.473807794036134 8.5060362143010568 #
face $-1 $-1 $254 $34 $-1 $485 reversed single #
loop $-1 $-1 $250 $239 #
plane-surface $-1 0 -34.473807794036134 0 0 1 0 0 0 1 forward_v I I I I #
coedge $-1 $486 $487 $247 $371 forward $240 $-1 #
coedge $-1 $372 $242 $244 $367 reversed $147 $-1 #
edge $-1 $369 1.6739757287546313 $255 4.7793655666158275 $253 $488 forward 7 unknown #
coedge $-1 $244 $243 $489 $490 reversed $93 $-1 #
coedge $-1 $376 $375 $243 $366 forward $359 $-1 #
edge $-1 $491 -50.117496261482586 $368 50.117496261482586 $365 $492 forward 7 unknown #
edge $-1 $493 -50.117496261482586 $369 50.117496261482586 $362 $494 forward 7 unknown #
vertex $-1 $366 $495 #
vertex $-1 $246 $496 #
straight-curve $-1 50.117496261482586 -14.536993459357564 4.9006463764398607 0 1 0 I I #
edge $-1 $377 -19.936814334678569 $373 -9.1371725840365592 $361 $497 forward 7 unknown #
coedge $-1 $248 $362 $486 $498 reversed $147 $-1 #
vertex $-1 $371 $499 #
straight-curve $-1 0 -23.674166043394123 8.0060362143010568 -1 0 0 I I #
coedge $-1 $365 $250 $487 $500 forward $359 $-1 #
coedge $-1 $250 $365 $252 $379 reversed $359 $-1 #
vertex $-1 $500 $501 #
straight-curve $-1 0 -34.473807794036134 8.0060362143010568 -1 0 0 I I #
edge $-1 $256 -8.0060362143010568 $368 -4.9006463764398607 $252 $502 forward 7 unknown #
point $-1 50.117496261482586 -23.674166043394123 8.0060362143010568 #
point $-1 50.117496261482586 -34.473807794036134 8.0060362143010568 #
face $-1 $-1 $399 $35 $-1 $503 reversed single #
loop $-1 $-1 $395 $258 #
plane-surface $-1 -50.117496261482586 0 0 1 0 0 0 0 -1 forward_v I I I I #
coedge $-1 $402 $261 $262 $389 reversed $155 $-1 #
coedge $-1 $395 $504 $261 $387 forward $383 $-1 #
edge $-1 $505 1.6739757287546313 $403 4.7793655666158275 $386 $506 forward 7 unknown #
coedge $-1 $263 $262 $504 $507 reversed $97 $-1 #
edge $-1 $392 -50.117496261482586 $505 50.117496261482586 $385 $508 forward 7 unknown #
coedge $-1 $398 $397 $263 $391 forward $399 $-1 #
edge $-1 $393 -50.117496261482586 $509 50.117496261482586 $390 $510 forward 7 unknown #
vertex $-1 $265 $511 #
vertex $-1 $391 $512 #
straight-curve $-1 50.117496261482586 14.536993459357564 4.9006463764398607 0 1 0 I I #
coedge $-1 $513 $386 $266 $396 forward $383 $-1 #
edge $-1 $403 9.1371725840365592 $400 19.936814334678569 $395 $514 forward 7 unknown #
coedge $-1 $390 $267 $272 $406 forward $399 $-1 #
coedge $-1 $267 $390 $513 $515 reversed $399 $-1 #
loop $-1 $-1 $267 $382 #
vertex $-1 $515 $516 #
straight-curve $-1 0 34.473807794036134 8.0060362143010568 1 0 0 I I #
coedge $-1 $269 $385 $271 $405 reversed $155 $-1 #
vertex $-1 $396 $517 #
straight-curve $-1 0 23.674166043394123 8.0060362143010568 1 0 0 I I #
edge $-1 $274 -4.7793655666158275 $392 -1.6739757287546313 $271 $518 forward 7 unknown #
edge $-1 $273 -8.0060362143010568 $393 -4.9006463764398607 $272 $519 forward 7 unknown #
point $-1 50.117496261482586 34.473807794036134 8.0060362143010568 #
point $-1 50.117496261482586 23.674166043394123 8.0060362143010568 #
plane-surface $-1 50.117496261482586 0 0 -1 0 0 0 0 1 forward_v I I I I #
coedge $-1 $420 $419 $412 $520 forward $277 $-1 #
coedge $-1 $412 $279 $281 $416 reversed $163 $-1 #
coedge $-1 $279 $411 $410 $520 reversed $163 $-1 #
coedge $-1 $287 $282 $279 $414 forward $288 $-1 #
edge $-1 $417 -68.732775044939658 $521 -61.910459734819533 $413 $522 forward 7 unknown #
coedge $-1 $281 $280 $420 $523 reversed $101 $-1 #
edge $-1 $524 92.005793425689845 $417 100.23499252296517 $411 $525 forward 7 unknown #
vertex $-1 $283 $526 #
straight-curve $-1 50.117496261482586 -2.7448872849916786 1.6837209041809373 0 1 0 I I #
coedge $-1 $410 $284 $287 $424 forward $277 $-1 #
coedge $-1 $284 $410 $415 $523 forward $277 $-1 #
vertex $-1 $285 $527 #
straight-curve $-1 38.582688329323894 -12.552337710717687 8.5060362143010622 1 0 0 I I #
straight-curve $-1 -5.9331990369649361 -12.552337710717687 84.782296599793654 -0.55919289150049634 0 0.82903758062907751 I I #
edge $-1 $289 -12.552337710717687 $521 1.5727885707509728 $287 $528 forward 7 unknown #
point $-1 50.117496261482586 -12.552337710717687 8.5060362143010568 #
point $-1 50.117496261482586 -12.552337710717687 1.6837209041809302 #
edge $-1 $529 1 $529 0 $292 $-1 forward 7 unknown #
vertex $-1 $293 $530 #
ellipse-curve $-1 44.840384636588972 -9.7273124544239558 3.0873680578594458 0.82903758062907751 0 0.55919289150049634 0.55919289150049634 0 -0.82903758062907751 1 I I #
point $-1 48.375834334013746 -9.7273124544239558 4.265840978611922 #
edge $-1 $531 1 $531 0 $296 $-1 forward 7 unknown #
vertex $-1 $297 $532 #
ellipse-curve $-1 44.840384636588972 -5.4897745699833571 3.0873680578594458 0.82903758062907751 0 0.55919289150049634 0.55919289150049634 0 -0.82903758062907751 1 I I #
point $-1 48.375834334013746 -5.4897745699833571 4.265840978611922 #
edge $-1 $533 1 $533 0 $300 $-1 forward 7 unknown #
vertex $-1 $301 $534 #
ellipse-curve $-1 44.840384636588972 -1.2522366855427549 3.0873680578594458 0.82903758062907751 0 0.55919289150049634 0.55919289150049634 0 -0.82903758062907751 1 I I #
point $-1 48.375834334013746 -1.2522366855427549 4.265840978611922 #
loop $-1 $-1 $312 $304 #
plane-surface $-1 0 0 8.5060362143010568 0 0 1 1 0 0 forward_v I I I I #
coedge $-1 $442 $307 $309 $446 reversed $192 $-1 #
coedge $-1 $307 $441 $535 $536 reversed $192 $-1 #
coedge $-1 $315 $310 $307 $444 forward $305 $-1 #
edge $-1 $447 -27.183487197133271 $537 -20.361171887013171 $443 $538 forward 7 unknown #
coedge $-1 $309 $308 $450 $539 reversed $120 $-1 #
edge $-1 $540 -8.2291990972753197 $447 -2.5434524534472062e-014 $441 $541 forward 7 unknown #
vertex $-1 $311 $542 #
straight-curve $-1 -50.117496261482586 -2.7448872849916786 1.6837209041809627 0 -1 0 I I #
coedge $-1 $535 $312 $315 $454 forward $439 $-1 #
coedge $-1 $312 $535 $445 $539 forward $439 $-1 #
vertex $-1 $313 $543 #
straight-curve $-1 -66.608035978547662 1.5727885707509728 8.5060362143010551 -1 0 0 I I #
straight-curve $-1 -50.1174962614826 1.5727885707509728 1.6837209041809373 0.55919289150049634 0 0.82903758062907751 I I #
edge $-1 $316 -1.5727885707509728 $537 12.552337710717687 $315 $544 forward 7 unknown #
point $-1 -50.117496261482586 1.5727885707509728 8.5060362143010568 #
point $-1 -50.117496261482586 1.5727885707509728 1.6837209041809584 #
edge $-1 $545 1 $545 0 $319 $-1 forward 7 unknown #
vertex $-1 $320 $546 #
ellipse-curve $-1 -44.840384636588972 -9.7273124544239558 3.0873680578594387 -0.82903758062907751 0 0.55919289150049634 0.55919289150049634 0 0.82903758062907751 1 I I #
point $-1 -47.257448551012757 -9.7273124544239558 5.9239161398700704 #
edge $-1 $547 1 $547 0 $323 $-1 forward 7 unknown #
vertex $-1 $324 $548 #
ellipse-curve $-1 -44.840384636588972 -5.4897745699833571 3.0873680578594387 -0.82903758062907751 0 0.55919289150049634 0.55919289150049634 0 0.82903758062907751 1 I I #
point $-1 -47.257448551012757 -5.4897745699833571 5.9239161398700704 #
edge $-1 $549 1 $549 0 $327 $-1 forward 7 unknown #
vertex $-1 $328 $550 #
ellipse-curve $-1 -44.840384636588972 -1.2522366855427549 3.0873680578594387 -0.82903758062907751 0 0.55919289150049634 0.55919289150049634 0 0.82903758062907751 1 I I #
point $-1 -47.257448551012757 -1.2522366855427549 5.9239161398700704 #
plane-surface $-1 50.117496261482586 0 0 -1 0 0 0 0 1 forward_v I I I I #
coedge $-1 $336 $334 $338 $474 reversed $221 $-1 #
edge $-1 $349 -8.5060362143010568 $476 8.5060362143010568 $348 $551 forward 7 unknown #
vertex $-1 $474 $552 #
straight-curve $-1 -50.117496261482586 -34.473807794036134 0 0 0 -1 I I #
edge $-1 $472 -34.473807794036134 $476 34.473807794036134 $470 $553 forward 7 unknown #
straight-curve $-1 0 -34.473807794036134 -8.5060362143010568 -1 0 0 I I #
vertex $-1 $341 $554 #
straight-curve $-1 0 34.473807794036134 -8.5060362143010568 1 0 0 I I #
point $-1 50.117496261482586 34.473807794036134 -8.5060362143010568 #
point $-1 50.117496261482586 -34.473807794036134 -8.5060362143010568 #
straight-curve $-1 -50.117496261482586 0 8.5060362143010568 0 -1 0 I I #
point $-1 -50.117496261482586 34.473807794036134 8.5060362143010568 #
point $-1 -50.117496261482586 -34.473807794036134 8.5060362143010568 #
straight-curve $-1 50.117496261482586 -34.473807794036134 0 0 0 -1 I I #
straight-curve $-1 50.117496261482586 34.473807794036134 0 0 0 -1 I I #
plane-surface $-1 50.117496261482586 0 0 -1 0 0 0 0 1 forward_v I I I I #
coedge $-1 $489 $361 $372 $498 forward $240 $-1 #
coedge $-1 $361 $489 $375 $500 reversed $240 $-1 #
straight-curve $-1 50.117496261482586 -23.674166043394123 3.2266706476852294 0 0 1 I I #
coedge $-1 $487 $486 $364 $490 forward $240 $-1 #
edge $-1 $493 9.1371725840365592 $491 19.936814334678569 $489 $555 forward 7 unknown #
vertex $-1 $366 $556 #
straight-curve $-1 0 -34.473807794036134 4.9006463764398607 1 0 0 I I #
vertex $-1 $490 $557 #
straight-curve $-1 0 -23.674166043394123 4.9006463764398607 1 0 0 I I #
point $-1 50.117496261482586 -34.473807794036134 4.9006463764398607 #
point $-1 50.117496261482586 -23.674166043394123 4.9006463764398607 #
straight-curve $-1 -50.117496261482586 -14.536993459357564 8.0060362143010568 0 1 0 I I #
edge $-1 $373 -4.7793655666158275 $493 -1.6739757287546313 $486 $558 forward 7 unknown #
point $-1 -50.117496261482586 -23.674166043394123 8.0060362143010568 #
edge $-1 $377 -8.0060362143010568 $491 -4.9006463764398607 $487 $559 forward 7 unknown #
point $-1 -50.117496261482586 -34.473807794036134 8.0060362143010568 #
straight-curve $-1 50.117496261482586 -34.473807794036134 0 0 0 -1 I I #
plane-surface $-1 0 34.473807794036134 0 0 -1 0 0 0 -1 forward_v I I I I #
coedge $-1 $386 $513 $388 $507 forward $383 $-1 #
vertex $-1 $507 $560 #
straight-curve $-1 -50.117496261482586 23.674166043394123 3.2266706476852294 0 0 1 I I #
edge $-1 $509 -19.936814334678569 $505 -9.1371725840365592 $504 $561 forward 7 unknown #
straight-curve $-1 0 23.674166043394123 4.9006463764398607 -1 0 0 I I #
vertex $-1 $391 $562 #
straight-curve $-1 0 34.473807794036134 4.9006463764398607 -1 0 0 I I #
point $-1 50.117496261482586 23.674166043394123 4.9006463764398607 #
point $-1 50.117496261482586 34.473807794036134 4.9006463764398607 #
coedge $-1 $504 $395 $398 $515 forward $383 $-1 #
straight-curve $-1 -50.117496261482586 14.536993459357564 8.0060362143010568 0 1 0 I I #
edge $-1 $400 -8.0060362143010568 $509 -4.9006463764398607 $398 $563 forward 7 unknown #
point $-1 -50.117496261482586 34.473807794036134 8.0060362143010568 #
point $-1 -50.117496261482586 23.674166043394123 8.0060362143010568 #
straight-curve $-1 50.117496261482586 23.674166043394123 3.2266706476852294 0 0 -1 I I #
straight-curve $-1 50.117496261482586 34.473807794036134 0 0 0 -1 I I #
edge $-1 $521 -11.534807932158692 $524 -6.9330982942200308 $410 $564 forward 7 unknown #
vertex $-1 $520 $565 #
straight-curve $-1 50.117496261482586 1.5727885707509728 70.416495949120588 0 0 1 I I #
edge $-1 $524 -4.3176758557426513 $421 9.8074504257260084 $420 $566 forward 7 unknown #
vertex $-1 $523 $567 #
straight-curve $-1 -5.9331990369649361 1.5727885707509728 84.782296599793654 0.55919289150049634 0 -0.82903758062907751 I I #
point $-1 50.117496261482586 1.5727885707509728 1.6837209041809302 #
point $-1 45.515786623543924 -12.552337710717687 8.5060362143010622 #
straight-curve $-1 50.117496261482586 0 8.5060362143010568 0 1 0 I I #
vertex $-1 $427 $568 #
point $-1 45.399577528089466 -9.7273124544239558 2.2583304772303685 #
vertex $-1 $431 $569 #
point $-1 45.399577528089466 -5.4897745699833571 2.2583304772303685 #
vertex $-1 $435 $570 #
point $-1 45.399577528089466 -1.2522366855427549 2.2583304772303685 #
coedge $-1 $450 $449 $442 $536 forward $439 $-1 #
edge $-1 $537 16.490539717065076 $540 21.092249355003723 $535 $571 forward 7 unknown #
vertex $-1 $536 $572 #
straight-curve $-1 -50.117496261482586 -12.552337710717687 28.86720810131423 0 0 1 I I #
edge $-1 $540 -9.8074504257260084 $451 4.3176758557426513 $450 $573 forward 7 unknown #
vertex $-1 $539 $574 #
straight-curve $-1 -50.1174962614826 -12.552337710717687 1.6837209041809373 -0.55919289150049634 0 -0.82903758062907751 I I #
point $-1 -50.117496261482586 -12.552337710717687 1.6837209041809584 #
point $-1 -45.515786623543939 1.5727885707509728 8.5060362143010568 #
straight-curve $-1 -50.117496261482586 0 8.5060362143010568 0 -1 0 I I #
vertex $-1 $457 $575 #
point $-1 -44.281191745088478 -9.7273124544239558 3.9164056384885164 #
vertex $-1 $461 $576 #
point $-1 -44.281191745088478 -5.4897745699833571 3.9164056384885164 #
vertex $-1 $465 $577 #
point $-1 -44.281191745088478 -1.2522366855427549 3.9164056384885164 #
straight-curve $-1 -50.117496261482586 34.473807794036134 0 0 0 -1 I I #
point $-1 -50.117496261482586 -34.473807794036134 -8.5060362143010568 #
straight-curve $-1 -50.117496261482586 0 -8.5060362143010568 0 1 0 I I #
point $-1 -50.117496261482586 34.473807794036134 -8.5060362143010568 #
straight-curve $-1 -50.117496261482586 -14.536993459357564 4.9006463764398607 0 -1 0 I I #
point $-1 -50.117496261482586 -34.473807794036134 4.9006463764398607 #
point $-1 -50.117496261482586 -23.674166043394123 4.9006463764398607 #
straight-curve $-1 -50.117496261482586 -23.674166043394123 3.2266706476852294 0 0 -1 I I #
straight-curve $-1 -50.117496261482586 -34.473807794036134 0 0 0 -1 I I #
point $-1 -50.117496261482586 23.674166043394123 4.9006463764398607 #
straight-curve $-1 -50.117496261482586 14.536993459357564 4.9006463764398607 0 -1 0 I I #
point $-1 -50.117496261482586 34.473807794036134 4.9006463764398607 #
straight-curve $-1 -50.117496261482586 34.473807794036134 0 0 0 -1 I I #
straight-curve $-1 38.582688329323894 1.5727885707509728 8.5060362143010622 -1 0 0 I I #
point $-1 50.117496261482586 1.5727885707509728 8.5060362143010568 #
straight-curve $-1 45.515786623543931 -2.7448872849916786 8.5060362143010551 0 -1 0 I I #
point $-1 45.515786623543924 1.5727885707509728 8.5060362143010622 #
point $-1 44.011347055959895 -9.7273124544239558 2.5281751663589498 #
point $-1 44.011347055959895 -5.4897745699833571 2.5281751663589498 #
point $-1 44.011347055959895 -1.2522366855427549 2.5281751663589498 #
straight-curve $-1 -66.608035978547662 -12.552337710717687 8.5060362143010551 1 0 0 I I #
point $-1 -50.117496261482586 -12.552337710717687 8.5060362143010568 #
straight-curve $-1 -45.515786623543939 -2.7448872849916786 8.5060362143010551 0 1 0 I I #
point $-1 -45.515786623543939 -12.552337710717687 8.5060362143010568 #
point $-1 -44.011347055959895 -9.7273124544239558 2.5281751663589427 #
point $-1 -44.011347055959895 -5.4897745699833571 2.5281751663589427 #
point $-1 -44.011347055959895 -1.2522366855427549 2.5281751663589427 #
End-of-ACIS-data 