500 0 8 0           
7 Unknown 11 ACIS 5.0 NT 24 Fri Mar 26 01:59:29 1999 
-1 9.9999999999999995e-007 1e-010 
body $-1 $8 $-1 $9 #
body $-1 $10 $-1 $11 #
body $-1 $12 $-1 $13 #
body $-1 $14 $-1 $15 #
body $-1 $16 $-1 $17 #
body $-1 $18 $-1 $19 #
body $-1 $20 $-1 $21 #
body $-1 $22 $-1 $23 #
lump $-1 $-1 $24 $0 #
transform $-1 1 0 0 0 1 0 0 0 1 41.687063203833127 17.052295042346792 4.1108276314128789 1 rotate no_reflect no_shear #
lump $-1 $-1 $25 $1 #
transform $-1 1 0 0 0 1 0 0 0 1 41.687063203833127 17.052295042346792 4.1108276314128789 1 rotate no_reflect no_shear #
lump $-1 $-1 $26 $2 #
transform $-1 1 0 0 0 1 0 0 0 1 41.687063203833127 17.052295042346792 4.1108276314128789 1 rotate no_reflect no_shear #
lump $-1 $-1 $27 $3 #
transform $-1 1 0 0 0 1 0 0 0 1 41.687063203833127 17.052295042346792 4.1108276314128789 1 rotate no_reflect no_shear #
lump $-1 $-1 $28 $4 #
transform $-1 1 0 0 0 1 0 0 0 1 41.687063203833127 17.052295042346792 4.1108276314128789 1 rotate no_reflect no_shear #
lump $-1 $-1 $29 $5 #
transform $-1 1 0 0 0 1 0 0 0 1 41.687063203833127 17.052295042346792 4.1108276314128789 1 rotate no_reflect no_shear #
lump $-1 $-1 $30 $6 #
transform $-1 1 0 0 0 1 0 0 0 1 41.687063203833127 17.052295042346792 4.1108276314128789 1 rotate no_reflect no_shear #
lump $-1 $-1 $31 $7 #
transform $-1 1 0 0 0 1 0 0 0 1 41.687063203833127 17.052295042346792 4.1108276314128789 1 rotate no_reflect no_shear #
shell $-1 $-1 $-1 $32 $-1 $8 #
shell $-1 $-1 $-1 $33 $-1 $10 #
shell $-1 $-1 $-1 $34 $-1 $12 #
shell $-1 $-1 $-1 $35 $-1 $14 #
shell $-1 $-1 $-1 $36 $-1 $16 #
shell $-1 $-1 $-1 $37 $-1 $18 #
shell $-1 $-1 $-1 $38 $-1 $20 #
shell $-1 $-1 $-1 $39 $-1 $22 #
face $-1 $40 $41 $24 $-1 $42 forward single #
face $-1 $43 $44 $25 $-1 $45 forward single #
face $-1 $46 $47 $26 $-1 $48 reversed single #
face $-1 $49 $50 $27 $-1 $51 forward single #
face $-1 $52 $53 $28 $-1 $54 forward single #
face $-1 $55 $56 $29 $-1 $57 reversed single #
face $-1 $58 $59 $30 $-1 $60 forward single #
face $-1 $61 $62 $31 $-1 $63 forward single #
face $-1 $64 $65 $24 $-1 $66 reversed single #
loop $-1 $-1 $67 $32 #
plane-surface $-1 0 0 4.1108276314128789 0 0 1 1 0 0 forward_v I I I I #
face $-1 $68 $69 $25 $-1 $70 reversed single #
loop $-1 $-1 $71 $33 #
plane-surface $-1 0 -17.052295042346792 0 0 1 0 0 0 1 forward_v I I I I #
face $-1 $72 $73 $26 $-1 $74 reversed single #
loop $-1 $-1 $75 $34 #
plane-surface $-1 15.163350705040415 5.1825464727647077 114.95733878108116 0 -1 0 -0.52991927123019833 0 -0.84804809178421925 forward_v I I I I #
face $-1 $76 $77 $27 $-1 $78 forward single #
loop $-1 $79 $80 $35 #
cone-surface $-1 38.176299427706411 0.026647463813631589 1.6460387289374145 -0.52991927123019833 0 -0.84804809178421925 0.42402404589210962 0 -0.26495963561509916 1 I I 0 1 0.5 forward I I I I #
face $-1 $81 $82 $28 $-1 $83 forward single #
loop $-1 $84 $85 $36 #
cone-surface $-1 38.176299427706411 3.1201868691842733 1.6460387289374145 -0.52991927123019833 0 -0.84804809178421925 0.42402404589210962 0 -0.26495963561509916 1 I I 0 1 0.5 forward I I I I #
face $-1 $86 $87 $29 $-1 $88 reversed single #
loop $-1 $-1 $89 $37 #
plane-surface $-1 -88.309283630007229 4.8513321414533408 70.022722353912584 0 1 0 -0.55919291073839883 0 0.82903756765294845 forward_v I I I I #
face $-1 $90 $91 $30 $-1 $92 forward single #
loop $-1 $93 $94 $38 #
cone-surface $-1 -39.015959392934519 6.8138645538164226 2.0725570617975557 0.55919291073839883 0 -0.82903756765294845 0.41451878382647422 0 0.27959645536919941 1 I I 0 1 0.5 forward I I I I #
face $-1 $95 $96 $31 $-1 $97 forward single #
loop $-1 $98 $99 $39 #
cone-surface $-1 -39.015959392934519 9.757663172361049 2.0725570617975557 0.55919291073839883 0 -0.82903756765294845 0.41451878382647422 0 0.27959645536919941 1 I I 0 1 0.5 forward I I I I #
face $-1 $100 $101 $24 $-1 $102 reversed single #
loop $-1 $-1 $103 $40 #
plane-surface $-1 0 0 -4.1108276314128789 0 0 1 1 0 0 forward_v I I I I #
coedge $-1 $104 $105 $106 $107 forward $41 $-1 #
face $-1 $108 $109 $25 $-1 $110 forward single #
loop $-1 $-1 $111 $43 #
plane-surface $-1 -41.687063203833127 0 0 1 0 0 0 0 -1 forward_v I I I I #
coedge $-1 $112 $113 $114 $115 forward $44 $-1 #
face $-1 $116 $117 $26 $-1 $118 reversed single #
loop $-1 $-1 $119 $46 #
plane-surface $-1 -29.018205600364517 1.573417166498956 44.252069976883519 0.52991927123019833 0 0.84804809178421925 0.84804809178421925 0 -0.52991927123019833 forward_v I I I I #
coedge $-1 $120 $121 $122 $123 reversed $47 $-1 #
face $-1 $-1 $124 $27 $-1 $125 forward single #
loop $-1 $126 $127 $49 #
cone-surface $-1 37.765982743541947 0.026647463813631589 0.98939478348304544 -0.52991927123019833 0 -0.84804809178421925 0.21201202294605481 0 -0.13247981780754958 1 I I -0.70710678118654746 0.70710678118654746 0.25 forward I I I I #
loop $-1 $-1 $128 $35 #
coedge $-1 $80 $80 $129 $130 reversed $50 $-1 #
face $-1 $-1 $131 $28 $-1 $132 forward single #
loop $-1 $133 $134 $52 #
cone-surface $-1 37.765982743541947 3.1201868691842733 0.98939478348304544 -0.52991927123019833 0 -0.84804809178421925 0.21201202294605481 0 -0.13247981780754958 1 I I -0.70710678118654746 0.70710678118654746 0.25 forward I I I I #
loop $-1 $-1 $135 $36 #
coedge $-1 $85 $85 $136 $137 reversed $53 $-1 #
face $-1 $138 $139 $29 $-1 $140 reversed single #
loop $-1 $-1 $141 $55 #
plane-surface $-1 -41.687063203833134 8.2857638630887358 0.90243939171149634 -0.55919291073839883 0 0.82903756765294845 0.82903756765294845 0 0.55919291073839883 forward_v I I I I #
coedge $-1 $142 $143 $144 $145 reversed $56 $-1 #
face $-1 $-1 $146 $30 $-1 $147 forward single #
loop $-1 $148 $149 $58 #
cone-surface $-1 -38.583372897386418 6.8138645538164226 1.4312212201196832 0.55919291073839883 0 -0.82903756765294845 0.20725939191323711 0 0.13979822768459971 1 I I -0.70710678118654746 0.70710678118654746 0.25 forward I I I I #
loop $-1 $-1 $150 $38 #
coedge $-1 $94 $94 $151 $152 reversed $59 $-1 #
face $-1 $-1 $153 $31 $-1 $154 forward single #
loop $-1 $155 $156 $61 #
cone-surface $-1 -38.583372897386418 9.757663172361049 1.4312212201196832 0.55919291073839883 0 -0.82903756765294845 0.20725939191323711 0 0.13979822768459971 1 I I -0.70710678118654746 0.70710678118654746 0.25 forward I I I I #
loop $-1 $-1 $157 $39 #
coedge $-1 $99 $99 $158 $159 reversed $62 $-1 #
face $-1 $160 $161 $24 $-1 $162 reversed single #
loop $-1 $-1 $163 $64 #
plane-surface $-1 0 -17.052295042346792 0 0 1 0 0 0 1 forward_v I I I I #
coedge $-1 $164 $165 $166 $167 forward $65 $-1 #
coedge $-1 $168 $67 $169 $170 forward $41 $-1 #
coedge $-1 $67 $168 $171 $172 forward $41 $-1 #
coedge $-1 $173 $174 $67 $107 reversed $175 $-1 #
edge $-1 $176 -17.052295042346792 $177 17.052295042346792 $106 $178 forward 7 unknown #
face $-1 $179 $180 $25 $-1 $181 reversed single #
loop $-1 $-1 $182 $68 #
plane-surface $-1 0 -19.200695836785705 1.5867699603445118 0 0 1 1 0 0 forward_v I I I I #
coedge $-1 $183 $184 $113 $185 forward $69 $-1 #
coedge $-1 $186 $71 $187 $188 reversed $44 $-1 #
coedge $-1 $71 $186 $111 $185 reversed $44 $-1 #
coedge $-1 $189 $182 $71 $115 reversed $109 $-1 #
edge $-1 $190 -41.687063203833127 $191 41.687063203833127 $114 $192 forward 7 unknown #
face $-1 $193 $194 $26 $-1 $195 reversed single #
loop $-1 $-1 $196 $72 #
plane-surface $-1 15.163350705040415 -2.0357121397667957 114.95733878108116 0 1 0 0.52991927123019833 0 0.84804809178421925 forward_v I I I I #
coedge $-1 $197 $198 $199 $200 reversed $73 $-1 #
coedge $-1 $121 $75 $201 $202 reversed $47 $-1 #
coedge $-1 $75 $120 $197 $203 reversed $47 $-1 #
coedge $-1 $199 $204 $75 $123 forward $205 $-1 #
edge $-1 $206 -34.105387851312919 $207 -27.639534031773316 $122 $208 forward 7 unknown #
loop $-1 $-1 $129 $76 #
plane-surface $-1 -29.018205600364517 1.573417166498956 44.252069976883519 0.52991927123019833 0 0.84804809178421925 0.84804809178421925 0 -0.52991927123019833 forward_v I I I I #
loop $-1 $-1 $209 $49 #
coedge $-1 $127 $127 $128 $210 reversed $77 $-1 #
coedge $-1 $128 $128 $127 $210 forward $79 $-1 #
coedge $-1 $129 $129 $80 $130 forward $124 $-1 #
edge $-1 $211 0 $211 6.2831853071796004 $129 $212 forward 7 unknown #
loop $-1 $-1 $136 $81 #
plane-surface $-1 -29.018205600364517 1.573417166498956 44.252069976883519 0.52991927123019833 0 0.84804809178421925 0.84804809178421925 0 -0.52991927123019833 forward_v I I I I #
loop $-1 $-1 $213 $52 #
coedge $-1 $134 $134 $135 $214 reversed $82 $-1 #
coedge $-1 $135 $135 $134 $214 forward $84 $-1 #
coedge $-1 $136 $136 $85 $137 forward $131 $-1 #
edge $-1 $215 0 $215 6.2831853071796004 $136 $216 forward 7 unknown #
face $-1 $217 $218 $29 $-1 $219 forward single #
loop $-1 $-1 $220 $86 #
plane-surface $-1 -88.309283630007229 11.720195584724131 70.022722353912584 0 -1 0 0.55919291073839883 0 -0.82903756765294845 forward_v I I I I #
coedge $-1 $221 $222 $223 $224 reversed $87 $-1 #
coedge $-1 $143 $89 $225 $226 reversed $56 $-1 #
coedge $-1 $89 $142 $221 $227 reversed $56 $-1 #
coedge $-1 $223 $228 $89 $145 forward $218 $-1 #
edge $-1 $229 2.467578611170488 $230 7.2242096972407026 $144 $231 forward 7 unknown #
loop $-1 $-1 $151 $90 #
plane-surface $-1 -41.687063203833134 8.2857638630887358 0.90243939171149634 -0.55919291073839883 0 0.82903756765294845 0.82903756765294845 0 0.55919291073839883 forward_v I I I I #
loop $-1 $-1 $232 $58 #
coedge $-1 $149 $149 $150 $233 reversed $91 $-1 #
coedge $-1 $150 $150 $149 $233 forward $93 $-1 #
coedge $-1 $151 $151 $94 $152 forward $146 $-1 #
edge $-1 $234 0 $234 6.2831853071796004 $151 $235 forward 7 unknown #
loop $-1 $-1 $158 $95 #
plane-surface $-1 -41.687063203833134 8.2857638630887358 0.90243939171149634 -0.55919291073839883 0 0.82903756765294845 0.82903756765294845 0 0.55919291073839883 forward_v I I I I #
loop $-1 $-1 $236 $61 #
coedge $-1 $156 $156 $157 $237 reversed $96 $-1 #
coedge $-1 $157 $157 $156 $237 forward $98 $-1 #
coedge $-1 $158 $158 $99 $159 forward $153 $-1 #
edge $-1 $238 0 $238 6.2831853071796004 $158 $239 forward 7 unknown #
face $-1 $240 $241 $24 $-1 $242 reversed single #
loop $-1 $-1 $243 $100 #
plane-surface $-1 -41.687063203833127 0 0 1 0 0 0 0 -1 forward_v I I I I #
coedge $-1 $244 $171 $245 $246 forward $101 $-1 #
coedge $-1 $247 $103 $244 $248 forward $65 $-1 #
coedge $-1 $103 $247 $249 $250 forward $65 $-1 #
coedge $-1 $174 $173 $103 $167 reversed $175 $-1 #
edge $-1 $251 -17.052295042346792 $252 17.052295042346792 $166 $253 forward 7 unknown #
coedge $-1 $105 $104 $254 $255 forward $41 $-1 #
coedge $-1 $256 $257 $104 $170 reversed $241 $-1 #
edge $-1 $177 -41.687063203833127 $258 41.687063203833127 $169 $259 forward 7 unknown #
coedge $-1 $163 $260 $105 $172 reversed $101 $-1 #
edge $-1 $261 -41.687063203833127 $176 41.687063203833127 $171 $262 forward 7 unknown #
coedge $-1 $166 $106 $260 $263 forward $175 $-1 #
coedge $-1 $106 $166 $256 $264 reversed $175 $-1 #
loop $-1 $-1 $173 $240 #
vertex $-1 $107 $265 #
vertex $-1 $107 $266 #
straight-curve $-1 41.687063203833127 0 4.1108276314128789 0 1 0 I I #
face $-1 $267 $268 $25 $-1 $269 reversed single #
loop $-1 $-1 $270 $108 #
plane-surface $-1 0 -19.200695836785705 -1.4132300396554882 0 0 1 1 0 0 forward_v I I I I #
coedge $-1 $114 $271 $272 $273 forward $109 $-1 #
coedge $-1 $274 $111 $275 $276 reversed $69 $-1 #
coedge $-1 $111 $274 $189 $277 reversed $69 $-1 #
edge $-1 $190 -1.5867699603445118 $278 1.4132300396554882 $111 $279 forward 7 unknown #
coedge $-1 $113 $112 $280 $281 forward $44 $-1 #
coedge $-1 $272 $282 $112 $188 forward $283 $-1 #
edge $-1 $284 -1.4132300396554882 $191 1.5867699603445118 $187 $285 forward 7 unknown #
coedge $-1 $271 $114 $184 $277 forward $109 $-1 #
vertex $-1 $185 $286 #
vertex $-1 $273 $287 #
straight-curve $-1 0 -17.052295042346792 1.5867699603445118 1 0 0 I I #
face $-1 $-1 $205 $26 $-1 $288 forward single #
loop $-1 $-1 $289 $116 #
plane-surface $-1 41.687063203833127 0 0 -1 0 0 0 0 1 forward_v I I I I #
coedge $-1 $290 $291 $292 $293 reversed $117 $-1 #
coedge $-1 $294 $119 $121 $203 forward $73 $-1 #
coedge $-1 $119 $294 $290 $295 forward $73 $-1 #
coedge $-1 $292 $122 $119 $200 forward $205 $-1 #
edge $-1 $207 -4.3958378895152297 $296 2.8224207230162737 $199 $297 forward 7 unknown #
coedge $-1 $298 $299 $120 $202 forward $194 $-1 #
edge $-1 $300 -57.408155719061995 $206 -53.3678417591277 $201 $301 forward 7 unknown #
edge $-1 $207 75.749731185060412 $300 83.374126407666253 $121 $302 forward 7 unknown #
coedge $-1 $122 $292 $298 $303 forward $205 $-1 #
loop $-1 $-1 $292 $193 #
vertex $-1 $202 $304 #
vertex $-1 $123 $305 #
straight-curve $-1 7.5816753525202074 5.1825464727647077 4.1108276314128815 -1 0 0 I I #
coedge $-1 $209 $209 $-1 $306 reversed $126 $-1 #
edge $-1 $307 0 $307 6.2831853071796004 $127 $308 forward 7 unknown #
vertex $-1 $130 $309 #
ellipse-curve $-1 38.454136294063332 0.026647463813631589 2.0906706514457403 0.52991927123019833 0 0.84804809178421925 0.42402404589210962 0 -0.26495963561509916 1 I I #
coedge $-1 $213 $213 $-1 $310 reversed $133 $-1 #
edge $-1 $311 0 $311 6.2831853071796004 $134 $312 forward 7 unknown #
vertex $-1 $137 $313 #
ellipse-curve $-1 38.454136294063332 3.1201868691842733 2.0906706514457403 0.52991927123019833 0 0.84804809178421925 0.42402404589210962 0 -0.26495963561509916 1 I I #
face $-1 $-1 $314 $29 $-1 $315 reversed single #
loop $-1 $-1 $144 $138 #
plane-surface $-1 0 0 4.1108276314128789 0 0 1 1 0 0 forward_v I I I I #
coedge $-1 $316 $317 $318 $319 reversed $139 $-1 #
coedge $-1 $320 $141 $143 $227 forward $87 $-1 #
coedge $-1 $141 $320 $316 $321 forward $87 $-1 #
coedge $-1 $318 $144 $141 $224 forward $218 $-1 #
edge $-1 $230 0.70845020990897289 $322 7.5773136531797629 $223 $323 forward 7 unknown #
coedge $-1 $324 $325 $142 $226 forward $314 $-1 #
edge $-1 $326 -34.108921785244789 $229 -30.900533545543414 $225 $327 forward 7 unknown #
edge $-1 $230 -5.7375338243555225 $326 -8.5602302459286524e-015 $143 $328 forward 7 unknown #
coedge $-1 $144 $318 $324 $329 forward $218 $-1 #
vertex $-1 $145 $330 #
vertex $-1 $145 $331 #
straight-curve $-1 -44.154641815003615 4.8513321414533408 4.1108276314128815 1 0 0 I I #
coedge $-1 $232 $232 $-1 $332 reversed $148 $-1 #
edge $-1 $333 0 $333 6.2831853071796004 $149 $334 forward 7 unknown #
vertex $-1 $152 $335 #
ellipse-curve $-1 -39.308747660798019 6.8138645538164226 2.5066335115621898 -0.55919291073839883 0 0.82903756765294845 0.41451878382647422 0 0.27959645536919941 1 I I #
coedge $-1 $236 $236 $-1 $336 reversed $155 $-1 #
edge $-1 $337 0 $337 6.2831853071796004 $156 $338 forward 7 unknown #
vertex $-1 $159 $339 #
ellipse-curve $-1 -39.308747660798019 9.757663172361049 2.5066335115621898 -0.55919291073839883 0 0.82903756765294845 0.41451878382647422 0 0.27959645536919941 1 I I #
face $-1 $-1 $175 $24 $-1 $340 reversed single #
loop $-1 $-1 $256 $160 #
plane-surface $-1 0 17.052295042346792 0 0 -1 0 0 0 -1 forward_v I I I I #
coedge $-1 $341 $254 $257 $342 forward $161 $-1 #
coedge $-1 $260 $163 $164 $248 reversed $101 $-1 #
coedge $-1 $254 $341 $163 $246 reversed $161 $-1 #
edge $-1 $261 -4.1108276314128789 $343 4.1108276314128789 $245 $344 forward 7 unknown #
coedge $-1 $165 $164 $341 $345 forward $65 $-1 #
edge $-1 $252 -41.687063203833127 $343 41.687063203833127 $244 $346 forward 7 unknown #
coedge $-1 $257 $256 $165 $250 reversed $241 $-1 #
edge $-1 $347 -41.687063203833127 $251 41.687063203833127 $249 $348 forward 7 unknown #
vertex $-1 $167 $349 #
vertex $-1 $263 $350 #
straight-curve $-1 41.687063203833127 0 -4.1108276314128789 0 -1 0 I I #
coedge $-1 $243 $245 $168 $255 reversed $161 $-1 #
edge $-1 $258 -17.052295042346792 $261 17.052295042346792 $254 $351 forward 7 unknown #
coedge $-1 $249 $169 $174 $264 forward $241 $-1 #
coedge $-1 $169 $249 $243 $342 reversed $241 $-1 #
vertex $-1 $170 $352 #
straight-curve $-1 0 17.052295042346792 4.1108276314128789 -1 0 0 I I #
coedge $-1 $171 $244 $173 $263 reversed $101 $-1 #
vertex $-1 $255 $353 #
straight-curve $-1 0 -17.052295042346792 4.1108276314128789 1 0 0 I I #
edge $-1 $176 -4.1108276314128789 $252 4.1108276314128789 $173 $354 forward 7 unknown #
edge $-1 $177 -4.1108276314128789 $251 4.1108276314128789 $174 $355 forward 7 unknown #
point $-1 41.687063203833127 -17.052295042346792 4.1108276314128789 #
point $-1 41.687063203833127 17.052295042346792 4.1108276314128789 #
face $-1 $-1 $283 $25 $-1 $356 reversed single #
loop $-1 $-1 $357 $179 #
plane-surface $-1 0 -21.349096631224619 0.086769960344511787 0 1 0 0 0 1 forward_v I I I I #
coedge $-1 $358 $280 $282 $359 forward $180 $-1 #
coedge $-1 $182 $189 $360 $361 forward $109 $-1 #
coedge $-1 $362 $187 $182 $273 reversed $283 $-1 #
edge $-1 $363 -2.1484007944389134 $191 2.1484007944389134 $272 $364 forward 7 unknown #
coedge $-1 $184 $183 $357 $365 reversed $69 $-1 #
coedge $-1 $280 $358 $183 $276 forward $180 $-1 #
edge $-1 $366 -2.1484007944389134 $278 2.1484007944389134 $183 $367 forward 7 unknown #
edge $-1 $190 -2.1484007944389134 $368 2.1484007944389134 $184 $369 forward 7 unknown #
vertex $-1 $185 $370 #
straight-curve $-1 -41.687063203833127 -17.052295042346792 0 0 0 -1 I I #
coedge $-1 $270 $275 $186 $281 reversed $180 $-1 #
edge $-1 $284 -41.687063203833127 $278 41.687063203833127 $280 $371 forward 7 unknown #
coedge $-1 $187 $362 $270 $359 reversed $283 $-1 #
loop $-1 $-1 $187 $267 #
vertex $-1 $188 $372 #
straight-curve $-1 41.687063203833127 -17.052295042346792 0 0 0 1 I I #
point $-1 -41.687063203833127 -17.052295042346792 1.5867699603445118 #
point $-1 41.687063203833127 -17.052295042346792 1.5867699603445118 #
plane-surface $-1 0 0 4.1108276314128789 0 0 1 1 0 0 forward_v I I I I #
coedge $-1 $299 $298 $291 $373 forward $194 $-1 #
coedge $-1 $291 $196 $198 $295 reversed $117 $-1 #
coedge $-1 $196 $290 $289 $373 reversed $117 $-1 #
coedge $-1 $204 $199 $196 $293 forward $205 $-1 #
edge $-1 $296 27.639534031773316 $374 34.105387851312919 $292 $375 forward 7 unknown #
coedge $-1 $198 $197 $299 $376 reversed $73 $-1 #
edge $-1 $377 -83.374126407666253 $296 -75.749731185060412 $290 $378 forward 7 unknown #
vertex $-1 $200 $379 #
straight-curve $-1 35.22120938429353 0.78670858324947801 4.1108276314128744 0 -1 0 I I #
coedge $-1 $289 $201 $204 $303 reversed $194 $-1 #
coedge $-1 $201 $289 $294 $376 forward $194 $-1 #
vertex $-1 $202 $380 #
straight-curve $-1 41.687063203833127 5.1825464727647077 57.478669390540581 0 0 1 I I #
straight-curve $-1 -29.018205600364517 5.1825464727647077 44.252069976883519 0.84804809178421925 0 -0.52991927123019833 I I #
edge $-1 $374 -2.0357121397667957 $206 5.1825464727647077 $298 $381 forward 7 unknown #
point $-1 41.687063203833127 5.1825464727647077 4.1108276314128789 #
point $-1 35.221209384293523 5.1825464727647077 4.1108276314128815 #
edge $-1 $382 1 $382 0 $209 $-1 forward 7 unknown #
vertex $-1 $210 $383 #
ellipse-curve $-1 37.898462561349497 0.026647463813631589 1.2014068064291004 0.52991927123019833 0 0.84804809178421925 0.42402404589210962 0 -0.26495963561509916 1 I I #
point $-1 38.878160339955436 0.026647463813631589 1.8257110158306298 #
edge $-1 $384 1 $384 0 $213 $-1 forward 7 unknown #
vertex $-1 $214 $385 #
ellipse-curve $-1 37.898462561349497 3.1201868691842733 1.2014068064291004 0.52991927123019833 0 0.84804809178421925 0.42402404589210962 0 -0.26495963561509916 1 I I #
point $-1 38.878160339955436 3.1201868691842733 1.8257110158306298 #
loop $-1 $-1 $225 $217 #
plane-surface $-1 -41.687063203833127 0 0 1 0 0 0 0 -1 forward_v I I I I #
coedge $-1 $317 $220 $222 $321 reversed $139 $-1 #
coedge $-1 $220 $316 $386 $387 reversed $139 $-1 #
coedge $-1 $228 $223 $220 $319 forward $218 $-1 #
edge $-1 $322 -7.2242096972407026 $388 -2.467578611170488 $318 $389 forward 7 unknown #
coedge $-1 $222 $221 $325 $390 reversed $87 $-1 #
edge $-1 $391 8.5602302459286524e-015 $322 5.7375338243555225 $316 $392 forward 7 unknown #
vertex $-1 $224 $393 #
straight-curve $-1 -36.930432117762912 4.1428819315443679 4.1108276314128789 0 1 0 I I #
coedge $-1 $386 $225 $228 $329 reversed $314 $-1 #
coedge $-1 $225 $386 $320 $390 forward $314 $-1 #
vertex $-1 $226 $394 #
straight-curve $-1 -41.687063203833127 4.8513321414533408 35.011361176956292 0 0 1 I I #
straight-curve $-1 -41.687063203833134 4.8513321414533408 0.90243939171149634 -0.82903756765294845 0 -0.55919291073839883 I I #
edge $-1 $388 -11.720195584724131 $229 -4.8513321414533408 $324 $395 forward 7 unknown #
point $-1 -41.687063203833127 4.8513321414533408 4.1108276314128789 #
point $-1 -36.930432117762912 4.8513321414533408 4.1108276314128789 #
edge $-1 $396 1 $396 0 $232 $-1 forward 7 unknown #
vertex $-1 $233 $397 #
ellipse-curve $-1 -38.723171125071019 6.8138645538164226 1.6384806120329203 -0.55919291073839883 0 0.82903756765294845 0.41451878382647422 0 0.27959645536919941 1 I I #
point $-1 -38.894228876971546 6.8138645538164226 2.7862299669313906 #
edge $-1 $398 1 $398 0 $236 $-1 forward 7 unknown #
vertex $-1 $237 $399 #
ellipse-curve $-1 -38.723171125071019 9.757663172361049 1.6384806120329203 -0.55919291073839883 0 0.82903756765294845 0.41451878382647422 0 0.27959645536919941 1 I I #
point $-1 -38.894228876971546 9.757663172361049 2.7862299669313906 #
plane-surface $-1 41.687063203833127 0 0 -1 0 0 0 0 1 forward_v I I I I #
coedge $-1 $245 $243 $247 $345 reversed $161 $-1 #
edge $-1 $258 -4.1108276314128789 $347 4.1108276314128789 $257 $400 forward 7 unknown #
vertex $-1 $345 $401 #
straight-curve $-1 -41.687063203833127 -17.052295042346792 0 0 0 -1 I I #
edge $-1 $343 -17.052295042346792 $347 17.052295042346792 $341 $402 forward 7 unknown #
straight-curve $-1 0 -17.052295042346792 -4.1108276314128789 -1 0 0 I I #
vertex $-1 $250 $403 #
straight-curve $-1 0 17.052295042346792 -4.1108276314128789 1 0 0 I I #
point $-1 41.687063203833127 17.052295042346792 -4.1108276314128789 #
point $-1 41.687063203833127 -17.052295042346792 -4.1108276314128789 #
straight-curve $-1 -41.687063203833127 0 4.1108276314128789 0 -1 0 I I #
point $-1 -41.687063203833127 17.052295042346792 4.1108276314128789 #
point $-1 -41.687063203833127 -17.052295042346792 4.1108276314128789 #
straight-curve $-1 41.687063203833127 -17.052295042346792 0 0 0 -1 I I #
straight-curve $-1 41.687063203833127 17.052295042346792 0 0 0 -1 I I #
plane-surface $-1 41.687063203833127 0 0 -1 0 0 0 0 1 forward_v I I I I #
coedge $-1 $404 $360 $274 $365 forward $268 $-1 #
coedge $-1 $275 $270 $404 $405 forward $180 $-1 #
edge $-1 $284 -2.1484007944389134 $406 2.1484007944389134 $282 $407 forward 7 unknown #
coedge $-1 $357 $408 $271 $361 reversed $268 $-1 #
edge $-1 $368 -41.687063203833127 $363 41.687063203833127 $360 $409 forward 7 unknown #
coedge $-1 $282 $272 $408 $410 forward $283 $-1 #
vertex $-1 $273 $411 #
straight-curve $-1 41.687063203833127 -19.200695836785705 1.5867699603445118 0 1 0 I I #
edge $-1 $368 -1.5 $366 1.5 $274 $412 forward 7 unknown #
vertex $-1 $276 $413 #
straight-curve $-1 -41.687063203833127 -19.200695836785705 -1.4132300396554882 0 1 0 I I #
vertex $-1 $277 $414 #
straight-curve $-1 -41.687063203833127 -19.200695836785705 1.5867699603445118 0 -1 0 I I #
point $-1 -41.687063203833127 -17.052295042346792 -1.4132300396554882 #
straight-curve $-1 0 -17.052295042346792 -1.4132300396554882 -1 0 0 I I #
point $-1 41.687063203833127 -17.052295042346792 -1.4132300396554882 #
edge $-1 $374 53.3678417591277 $377 57.408155719061995 $289 $415 forward 7 unknown #
vertex $-1 $303 $416 #
straight-curve $-1 7.5816753525202074 -2.0357121397667957 4.1108276314128815 1 0 0 I I #
edge $-1 $377 -2.8224207230162737 $300 4.3958378895152297 $299 $417 forward 7 unknown #
vertex $-1 $376 $418 #
straight-curve $-1 -29.018205600364517 -2.0357121397667957 44.252069976883519 -0.84804809178421925 0 0.52991927123019833 I I #
point $-1 35.221209384293523 -2.0357121397667957 4.1108276314128815 #
point $-1 41.687063203833127 5.1825464727647077 0.070513671478586559 #
straight-curve $-1 41.687063203833127 0 4.1108276314128789 0 1 0 I I #
vertex $-1 $306 $419 #
point $-1 38.322486607241608 0.026647463813631589 0.93644717081400108 #
vertex $-1 $310 $420 #
point $-1 38.322486607241608 3.1201868691842733 0.93644717081400108 #
coedge $-1 $325 $324 $317 $387 forward $314 $-1 #
edge $-1 $388 30.900533545543414 $391 34.108921785244789 $386 $421 forward 7 unknown #
vertex $-1 $329 $422 #
straight-curve $-1 -44.154641815003615 11.720195584724131 4.1108276314128815 -1 0 0 I I #
edge $-1 $391 -7.5773136531797629 $326 -0.70845020990897289 $325 $423 forward 7 unknown #
vertex $-1 $390 $424 #
straight-curve $-1 -41.687063203833134 11.720195584724131 0.90243939171149634 0.82903756765294845 0 0.55919291073839883 I I #
point $-1 -36.930432117762912 11.720195584724131 4.1108276314128789 #
point $-1 -41.687063203833127 4.8513321414533408 0.90243939171150112 #
straight-curve $-1 -41.687063203833127 0 4.1108276314128789 0 -1 0 I I #
vertex $-1 $332 $425 #
point $-1 -38.308652341244546 6.8138645538164226 1.9180770674021197 #
vertex $-1 $336 $426 #
point $-1 -38.308652341244546 9.757663172361049 1.9180770674021197 #
straight-curve $-1 -41.687063203833127 17.052295042346792 0 0 0 -1 I I #
point $-1 -41.687063203833127 -17.052295042346792 -4.1108276314128789 #
straight-curve $-1 -41.687063203833127 0 -4.1108276314128789 0 1 0 I I #
point $-1 -41.687063203833127 17.052295042346792 -4.1108276314128789 #
coedge $-1 $408 $357 $358 $405 reversed $268 $-1 #
edge $-1 $406 -41.687063203833127 $366 41.687063203833127 $404 $427 forward 7 unknown #
vertex $-1 $410 $428 #
straight-curve $-1 41.687063203833127 -19.200695836785705 -1.4132300396554882 0 -1 0 I I #
coedge $-1 $360 $404 $362 $410 reversed $268 $-1 #
straight-curve $-1 0 -21.349096631224619 1.5867699603445118 1 0 0 I I #
edge $-1 $363 -1.5 $406 1.5 $362 $429 forward 7 unknown #
point $-1 41.687063203833127 -21.349096631224619 1.5867699603445118 #
straight-curve $-1 -41.687063203833127 -21.349096631224619 0.086769960344511787 0 0 -1 I I #
point $-1 -41.687063203833127 -21.349096631224619 -1.4132300396554882 #
point $-1 -41.687063203833127 -21.349096631224619 1.5867699603445118 #
straight-curve $-1 41.687063203833127 -2.0357121397667957 57.478669390540581 0 0 -1 I I #
point $-1 41.687063203833127 -2.0357121397667957 4.1108276314128789 #
straight-curve $-1 41.687063203833134 0.78670858324947801 0.070513671478586559 0 1 0 I I #
point $-1 41.687063203833127 -2.0357121397667957 0.070513671478586559 #
point $-1 37.633502925734398 0.026647463813631589 0.77738276053699062 #
point $-1 37.633502925734398 3.1201868691842733 0.77738276053699062 #
straight-curve $-1 -41.687063203833127 11.720195584724131 35.011361176956292 0 0 -1 I I #
point $-1 -41.687063203833127 11.720195584724131 4.1108276314128789 #
straight-curve $-1 -41.687063203833127 4.1428819315443679 0.90243939171150556 0 -1 0 I I #
point $-1 -41.687063203833127 11.720195584724131 0.90243939171150112 #
point $-1 -38.443574669701817 6.8138645538164226 1.2239618282064462 #
point $-1 -38.443574669701817 9.757663172361049 1.2239618282064462 #
straight-curve $-1 0 -21.349096631224619 -1.4132300396554882 -1 0 0 I I #
point $-1 41.687063203833127 -21.349096631224619 -1.4132300396554882 #
straight-curve $-1 41.687063203833127 -21.349096631224619 0.086769960344511787 0 0 -1 I I #
End-of-ACIS-data 