500 0 15 0           
7 Unknown 11 ACIS 5.0 NT 24 Fri Mar 26 14:40:53 1999 
-1 9.9999999999999995e-007 1e-010 
body $-1 $15 $-1 $16 #
body $-1 $17 $-1 $18 #
body $-1 $19 $-1 $20 #
body $-1 $21 $-1 $22 #
body $-1 $23 $-1 $24 #
body $-1 $25 $-1 $26 #
body $-1 $27 $-1 $28 #
body $-1 $29 $-1 $30 #
body $-1 $31 $-1 $32 #
body $-1 $33 $-1 $34 #
body $-1 $35 $-1 $36 #
body $-1 $37 $-1 $38 #
body $-1 $39 $-1 $40 #
body $-1 $41 $-1 $42 #
body $-1 $43 $-1 $44 #
lump $-1 $-1 $45 $0 #
transform $-1 1 0 0 0 1 0 0 0 1 68.901028473769344 29.560133002061669 13.561377464119152 1 rotate no_reflect no_shear #
lump $-1 $-1 $46 $1 #
transform $-1 1 0 0 0 1 0 0 0 1 68.901028473769344 29.560133002061669 13.561377464119152 1 rotate no_reflect no_shear #
lump $-1 $-1 $47 $2 #
transform $-1 1 0 0 0 1 0 0 0 1 68.901028473769344 29.560133002061669 13.561377464119152 1 rotate no_reflect no_shear #
lump $-1 $-1 $48 $3 #
transform $-1 1 0 0 0 1 0 0 0 1 68.901028473769344 29.560133002061669 13.561377464119152 1 rotate no_reflect no_shear #
lump $-1 $-1 $49 $4 #
transform $-1 1 0 0 0 1 0 0 0 1 68.901028473769344 29.560133002061669 13.561377464119152 1 rotate no_reflect no_shear #
lump $-1 $-1 $50 $5 #
transform $-1 1 0 0 0 1 0 0 0 1 68.901028473769344 29.560133002061669 13.561377464119152 1 rotate no_reflect no_shear #
lump $-1 $-1 $51 $6 #
transform $-1 1 0 0 0 1 0 0 0 1 68.901028473769344 29.560133002061669 13.561377464119152 1 rotate no_reflect no_shear #
lump $-1 $-1 $52 $7 #
transform $-1 1 0 0 0 1 0 0 0 1 68.901028473769344 29.560133002061669 13.561377464119152 1 rotate no_reflect no_shear #
lump $-1 $-1 $53 $8 #
transform $-1 1 0 0 0 1 0 0 0 1 68.901028473769344 29.560133002061669 13.561377464119152 1 rotate no_reflect no_shear #
lump $-1 $-1 $54 $9 #
transform $-1 1 0 0 0 1 0 0 0 1 68.901028473769344 29.560133002061669 13.561377464119152 1 rotate no_reflect no_shear #
lump $-1 $-1 $55 $10 #
transform $-1 1 0 0 0 1 0 0 0 1 68.901028473769344 29.560133002061669 13.561377464119152 1 rotate no_reflect no_shear #
lump $-1 $-1 $56 $11 #
transform $-1 1 0 0 0 1 0 0 0 1 68.901028473769344 29.560133002061669 13.561377464119152 1 rotate no_reflect no_shear #
lump $-1 $-1 $57 $12 #
transform $-1 1 0 0 0 1 0 0 0 1 68.901028473769344 29.560133002061669 13.561377464119152 1 rotate no_reflect no_shear #
lump $-1 $-1 $58 $13 #
transform $-1 1 0 0 0 1 0 0 0 1 68.901028473769344 29.560133002061669 13.561377464119152 1 rotate no_reflect no_shear #
lump $-1 $-1 $59 $14 #
transform $-1 1 0 0 0 1 0 0 0 1 68.901028473769344 29.560133002061669 13.561377464119152 1 rotate no_reflect no_shear #
shell $-1 $-1 $-1 $60 $-1 $15 #
shell $-1 $-1 $-1 $61 $-1 $17 #
shell $-1 $-1 $-1 $62 $-1 $19 #
shell $-1 $-1 $-1 $63 $-1 $21 #
shell $-1 $-1 $-1 $64 $-1 $23 #
shell $-1 $-1 $-1 $65 $-1 $25 #
shell $-1 $-1 $-1 $66 $-1 $27 #
shell $-1 $-1 $-1 $67 $-1 $29 #
shell $-1 $-1 $-1 $68 $-1 $31 #
shell $-1 $-1 $-1 $69 $-1 $33 #
shell $-1 $-1 $-1 $70 $-1 $35 #
shell $-1 $-1 $-1 $71 $-1 $37 #
shell $-1 $-1 $-1 $72 $-1 $39 #
shell $-1 $-1 $-1 $73 $-1 $41 #
shell $-1 $-1 $-1 $74 $-1 $43 #
face $-1 $75 $76 $45 $-1 $77 forward single #
face $-1 $78 $79 $46 $-1 $80 reversed single #
face $-1 $81 $82 $47 $-1 $83 forward single #
face $-1 $84 $85 $48 $-1 $86 reversed single #
face $-1 $87 $88 $49 $-1 $89 forward single #
face $-1 $90 $91 $50 $-1 $92 reversed single #
face $-1 $93 $94 $51 $-1 $95 forward single #
face $-1 $96 $97 $52 $-1 $98 reversed single #
face $-1 $99 $100 $53 $-1 $101 forward single #
face $-1 $102 $103 $54 $-1 $104 reversed single #
face $-1 $105 $106 $55 $-1 $107 forward single #
face $-1 $108 $109 $56 $-1 $110 forward single #
face $-1 $111 $112 $57 $-1 $113 reversed single #
face $-1 $114 $115 $58 $-1 $116 forward single #
face $-1 $117 $118 $59 $-1 $119 forward single #
face $-1 $120 $121 $45 $-1 $122 reversed single #
loop $-1 $-1 $123 $60 #
plane-surface $-1 0 0 13.561377464119152 0 0 1 1 0 0 forward_v I I I I #
face $-1 $124 $125 $46 $-1 $126 reversed single #
loop $-1 $-1 $127 $61 #
plane-surface $-1 -61.418638469090915 106.29432025728369 134.04080118394026 1 0 0 0 -0.80901700255871778 -0.5877852410284794 forward_v I I I I #
face $-1 $128 $129 $47 $-1 $130 forward single #
loop $-1 $131 $132 $62 #
cone-surface $-1 -52.785245187552221 24.151838635424202 7.6613516244079891 0 -0.80901700255871778 -0.5877852410284794 2 0 0 1 I I 0 1 2 forward I I I I #
face $-1 $133 $134 $48 $-1 $135 reversed single #
loop $-1 $-1 $136 $63 #
plane-surface $-1 -26.968124232206243 106.29432025728369 134.04080118394026 1 0 0 0 -0.80901700255871778 -0.5877852410284794 forward_v I I I I #
face $-1 $137 $138 $49 $-1 $139 forward single #
loop $-1 $140 $141 $64 #
cone-surface $-1 -18.334730950667549 24.151838635424202 7.6613516244079891 0 -0.80901700255871778 -0.5877852410284794 2 0 0 1 I I 0 1 2 forward I I I I #
face $-1 $142 $143 $50 $-1 $144 reversed single #
loop $-1 $-1 $145 $65 #
plane-surface $-1 7.4823900046784271 106.29432025728369 134.04080118394026 1 0 0 0 -0.80901700255871778 -0.5877852410284794 forward_v I I I I #
face $-1 $146 $147 $51 $-1 $148 forward single #
loop $-1 $149 $150 $66 #
cone-surface $-1 16.115783286217123 24.151838635424202 7.6613516244079891 0 -0.80901700255871778 -0.5877852410284794 2 0 0 1 I I 0 1 2 forward I I I I #
face $-1 $151 $152 $52 $-1 $153 reversed single #
loop $-1 $-1 $154 $67 #
plane-surface $-1 41.932904241563101 106.29432025728369 134.04080118394026 1 0 0 0 -0.80901700255871778 -0.5877852410284794 forward_v I I I I #
face $-1 $155 $156 $53 $-1 $157 forward single #
loop $-1 $158 $159 $68 #
cone-surface $-1 50.566297523101795 24.151838635424202 7.6613516244079891 0 -0.80901700255871778 -0.5877852410284794 2 0 0 1 I I 0 1 2 forward I I I I #
face $-1 $160 $161 $54 $-1 $162 reversed single #
loop $-1 $-1 $163 $69 #
plane-surface $-1 -45.806662018965383 -142.44097077872425 79.918326327706552 -1 0 0 0 -0.81915205242281985 0.57357642473473569 forward_v I I I I #
face $-1 $164 $165 $55 $-1 $166 forward single #
loop $-1 $167 $168 $70 #
cone-surface $-1 -62.302638058111071 -21.186167922067582 4.46552592508651 0 0.81915205242281985 -0.57357642473473569 2.5 0 0 1 I I 0 1 2.5 forward I I I I #
face $-1 $169 $170 $56 $-1 $171 forward single #
loop $-1 $172 $173 $71 #
cone-surface $-1 -52.405052434623656 -21.186167922067582 4.46552592508651 0 0.81915205242281985 -0.57357642473473569 2.5 0 0 1 I I 0 1 2.5 forward I I I I #
face $-1 $174 $175 $57 $-1 $176 reversed single #
loop $-1 $-1 $177 $72 #
plane-surface $-1 57.353845246367371 -29.560133002061633 0.87831518264486874 0 -0.81915205242281985 0.57357642473473569 1 0 0 forward_v I I I I #
face $-1 $178 $179 $58 $-1 $180 forward single #
loop $-1 $181 $182 $73 #
cone-surface $-1 52.40505243462367 -21.186167922067582 4.46552592508651 0 0.81915205242281985 -0.57357642473473569 2.5 0 0 1 I I 0 1 2.5 forward I I I I #
face $-1 $183 $184 $59 $-1 $185 forward single #
loop $-1 $186 $187 $74 #
cone-surface $-1 62.302638058111086 -21.186167922067582 4.46552592508651 0 0.81915205242281985 -0.57357642473473569 2.5 0 0 1 I I 0 1 2.5 forward I I I I #
face $-1 $188 $189 $45 $-1 $190 reversed single #
loop $-1 $-1 $191 $75 #
plane-surface $-1 0 0 -13.561377464119152 0 0 1 1 0 0 forward_v I I I I #
coedge $-1 $192 $193 $194 $195 forward $76 $-1 #
face $-1 $196 $197 $46 $-1 $198 reversed single #
loop $-1 $-1 $199 $78 #
plane-surface $-1 -52.785245187552221 -5.1898868008397869 53.042785926810993 0 0.80901700255871778 0.5877852410284794 1 0 0 forward_v I I I I #
coedge $-1 $200 $201 $202 $203 reversed $79 $-1 #
face $-1 $-1 $204 $47 $-1 $205 forward single #
loop $-1 $206 $207 $81 #
cone-surface $-1 -52.785245187552221 20.96707643076558 5.3474865088873873 0 -0.80901700255871778 -0.5877852410284794 1 0 0 1 I I -0.70710678118654746 0.70710678118654746 1 forward I I I I #
loop $-1 $-1 $208 $62 #
coedge $-1 $132 $132 $209 $210 reversed $82 $-1 #
face $-1 $211 $212 $48 $-1 $213 reversed single #
loop $-1 $-1 $214 $84 #
plane-surface $-1 -18.334730950667549 -5.1898868008397869 53.042785926810993 0 0.80901700255871778 0.5877852410284794 1 0 0 forward_v I I I I #
coedge $-1 $215 $216 $217 $218 reversed $85 $-1 #
face $-1 $-1 $219 $49 $-1 $220 forward single #
loop $-1 $221 $222 $87 #
cone-surface $-1 -18.334730950667549 20.96707643076558 5.3474865088873873 0 -0.80901700255871778 -0.5877852410284794 1 0 0 1 I I -0.70710678118654746 0.70710678118654746 1 forward I I I I #
loop $-1 $-1 $223 $64 #
coedge $-1 $141 $141 $224 $225 reversed $88 $-1 #
face $-1 $226 $227 $50 $-1 $228 reversed single #
loop $-1 $-1 $229 $90 #
plane-surface $-1 16.115783286217123 -5.1898868008397869 53.042785926810993 0 0.80901700255871778 0.5877852410284794 1 0 0 forward_v I I I I #
coedge $-1 $230 $231 $232 $233 reversed $91 $-1 #
face $-1 $-1 $234 $51 $-1 $235 forward single #
loop $-1 $236 $237 $93 #
cone-surface $-1 16.115783286217123 20.96707643076558 5.3474865088873873 0 -0.80901700255871778 -0.5877852410284794 1 0 0 1 I I -0.70710678118654746 0.70710678118654746 1 forward I I I I #
loop $-1 $-1 $238 $66 #
coedge $-1 $150 $150 $239 $240 reversed $94 $-1 #
face $-1 $241 $242 $52 $-1 $243 reversed single #
loop $-1 $-1 $244 $96 #
plane-surface $-1 50.566297523101795 -5.1898868008397869 53.042785926810993 0 0.80901700255871778 0.5877852410284794 1 0 0 forward_v I I I I #
coedge $-1 $245 $246 $247 $248 reversed $97 $-1 #
face $-1 $-1 $249 $53 $-1 $250 forward single #
loop $-1 $251 $252 $99 #
cone-surface $-1 50.566297523101795 20.96707643076558 5.3474865088873873 0 -0.80901700255871778 -0.5877852410284794 1 0 0 1 I I -0.70710678118654746 0.70710678118654746 1 forward I I I I #
loop $-1 $-1 $253 $68 #
coedge $-1 $159 $159 $254 $255 reversed $100 $-1 #
face $-1 $256 $257 $54 $-1 $258 forward single #
loop $-1 $-1 $259 $102 #
plane-surface $-1 -57.353845246367364 -29.560133002061633 0.87831518264486874 0 -0.81915205242281985 0.57357642473473569 1 0 0 forward_v I I I I #
coedge $-1 $260 $261 $262 $263 reversed $103 $-1 #
face $-1 $-1 $264 $55 $-1 $265 forward single #
loop $-1 $266 $267 $105 #
cone-surface $-1 -62.302638058111071 -16.228650551060998 0.9942349958725849 0 0.81915205242281985 -0.57357642473473569 1.25 0 0 1 I I -0.70710678118654746 0.70710678118654746 1.25 forward I I I I #
loop $-1 $-1 $268 $70 #
coedge $-1 $168 $168 $269 $270 reversed $106 $-1 #
face $-1 $-1 $271 $56 $-1 $272 forward single #
loop $-1 $273 $274 $108 #
cone-surface $-1 -52.405052434623656 -16.228650551060998 0.9942349958725849 0 0.81915205242281985 -0.57357642473473569 1.25 0 0 1 I I -0.70710678118654746 0.70710678118654746 1.25 forward I I I I #
loop $-1 $-1 $275 $71 #
coedge $-1 $173 $173 $276 $277 reversed $109 $-1 #
face $-1 $278 $279 $57 $-1 $280 reversed single #
loop $-1 $-1 $281 $111 #
plane-surface $-1 45.80666201896539 -142.44097077872425 79.918326327706552 1 0 0 0 0.81915205242281985 -0.57357642473473569 forward_v I I I I #
coedge $-1 $282 $283 $284 $285 reversed $112 $-1 #
face $-1 $-1 $286 $58 $-1 $287 forward single #
loop $-1 $288 $289 $114 #
cone-surface $-1 52.40505243462367 -16.228650551060998 0.9942349958725849 0 0.81915205242281985 -0.57357642473473569 1.25 0 0 1 I I -0.70710678118654746 0.70710678118654746 1.25 forward I I I I #
loop $-1 $-1 $290 $73 #
coedge $-1 $182 $182 $291 $292 reversed $115 $-1 #
face $-1 $-1 $293 $59 $-1 $294 forward single #
loop $-1 $295 $296 $117 #
cone-surface $-1 62.302638058111086 -16.228650551060998 0.9942349958725849 0 0.81915205242281985 -0.57357642473473569 1.25 0 0 1 I I -0.70710678118654746 0.70710678118654746 1.25 forward I I I I #
loop $-1 $-1 $297 $74 #
coedge $-1 $187 $187 $298 $299 reversed $118 $-1 #
face $-1 $300 $301 $45 $-1 $302 reversed single #
loop $-1 $-1 $303 $120 #
plane-surface $-1 0 -29.560133002061669 0 0 1 0 0 0 1 forward_v I I I I #
coedge $-1 $304 $305 $306 $307 forward $121 $-1 #
coedge $-1 $308 $123 $309 $310 forward $76 $-1 #
coedge $-1 $123 $308 $311 $312 forward $76 $-1 #
coedge $-1 $313 $314 $123 $195 reversed $315 $-1 #
edge $-1 $316 -29.560133002061669 $317 29.560133002061669 $194 $318 forward 7 unknown #
face $-1 $319 $320 $46 $-1 $321 reversed single #
loop $-1 $-1 $322 $124 #
plane-surface $-1 -44.151851906013526 106.29432025728369 134.04080118394026 -1 0 0 0 0.80901700255871778 0.5877852410284794 forward_v I I I I #
coedge $-1 $323 $324 $325 $326 reversed $125 $-1 #
coedge $-1 $201 $127 $327 $328 reversed $79 $-1 #
coedge $-1 $127 $200 $323 $329 reversed $79 $-1 #
coedge $-1 $325 $330 $127 $203 forward $331 $-1 #
edge $-1 $332 23.587027126580175 $333 29.652125455655305 $202 $334 forward 7 unknown #
loop $-1 $-1 $209 $128 #
plane-surface $-1 -52.785245187552221 -5.1898868008397869 53.042785926810993 0 0.80901700255871778 0.5877852410284794 1 0 0 forward_v I I I I #
loop $-1 $-1 $335 $81 #
coedge $-1 $207 $207 $208 $336 reversed $129 $-1 #
coedge $-1 $208 $208 $207 $336 forward $131 $-1 #
coedge $-1 $209 $209 $132 $210 forward $204 $-1 #
edge $-1 $337 -3.9298655268680417e-016 $337 6.2831853071796004 $209 $338 forward 7 unknown #
face $-1 $339 $340 $48 $-1 $341 forward single #
loop $-1 $-1 $342 $133 #
plane-surface $-1 -9.7013376691288524 106.29432025728369 134.04080118394026 -1 0 0 0 0.80901700255871778 0.5877852410284794 forward_v I I I I #
coedge $-1 $343 $344 $345 $346 reversed $134 $-1 #
coedge $-1 $216 $136 $347 $348 reversed $85 $-1 #
coedge $-1 $136 $215 $343 $349 reversed $85 $-1 #
coedge $-1 $345 $350 $136 $218 forward $340 $-1 #
edge $-1 $351 23.587027126580175 $352 29.652125455655305 $217 $353 forward 7 unknown #
loop $-1 $-1 $224 $137 #
plane-surface $-1 -18.334730950667549 -5.1898868008397869 53.042785926810993 0 0.80901700255871778 0.5877852410284794 1 0 0 forward_v I I I I #
loop $-1 $-1 $354 $87 #
coedge $-1 $222 $222 $223 $355 reversed $138 $-1 #
coedge $-1 $223 $223 $222 $355 forward $140 $-1 #
coedge $-1 $224 $224 $141 $225 forward $219 $-1 #
edge $-1 $356 -3.9298655268680417e-016 $356 6.2831853071796004 $224 $357 forward 7 unknown #
face $-1 $358 $359 $50 $-1 $360 forward single #
loop $-1 $-1 $361 $142 #
plane-surface $-1 24.749176567755818 106.29432025728369 134.04080118394026 -1 0 0 0 0.80901700255871778 0.5877852410284794 forward_v I I I I #
coedge $-1 $362 $363 $364 $365 reversed $143 $-1 #
coedge $-1 $231 $145 $366 $367 reversed $91 $-1 #
coedge $-1 $145 $230 $362 $368 reversed $91 $-1 #
coedge $-1 $364 $369 $145 $233 forward $359 $-1 #
edge $-1 $370 23.587027126580175 $371 29.652125455655305 $232 $372 forward 7 unknown #
loop $-1 $-1 $239 $146 #
plane-surface $-1 16.115783286217123 -5.1898868008397869 53.042785926810993 0 0.80901700255871778 0.5877852410284794 1 0 0 forward_v I I I I #
loop $-1 $-1 $373 $93 #
coedge $-1 $237 $237 $238 $374 reversed $147 $-1 #
coedge $-1 $238 $238 $237 $374 forward $149 $-1 #
coedge $-1 $239 $239 $150 $240 forward $234 $-1 #
edge $-1 $375 -3.9298655268680417e-016 $375 6.2831853071796004 $239 $376 forward 7 unknown #
face $-1 $377 $378 $52 $-1 $379 forward single #
loop $-1 $-1 $380 $151 #
plane-surface $-1 59.19969080464049 106.29432025728369 134.04080118394026 -1 0 0 0 0.80901700255871778 0.5877852410284794 forward_v I I I I #
coedge $-1 $381 $382 $383 $384 reversed $152 $-1 #
coedge $-1 $246 $154 $385 $386 reversed $97 $-1 #
coedge $-1 $154 $245 $381 $387 reversed $97 $-1 #
coedge $-1 $383 $388 $154 $248 forward $378 $-1 #
edge $-1 $389 23.587027126580175 $390 29.652125455655305 $247 $391 forward 7 unknown #
loop $-1 $-1 $254 $155 #
plane-surface $-1 50.566297523101795 -5.1898868008397869 53.042785926810993 0 0.80901700255871778 0.5877852410284794 1 0 0 forward_v I I I I #
loop $-1 $-1 $392 $99 #
coedge $-1 $252 $252 $253 $393 reversed $156 $-1 #
coedge $-1 $253 $253 $252 $393 forward $158 $-1 #
coedge $-1 $254 $254 $159 $255 forward $249 $-1 #
edge $-1 $394 -3.9298655268680417e-016 $394 6.2831853071796004 $254 $395 forward 7 unknown #
face $-1 $396 $397 $54 $-1 $398 reversed single #
loop $-1 $-1 $262 $160 #
plane-surface $-1 0 0 13.561377464119152 0 0 1 1 0 0 forward_v I I I I #
coedge $-1 $399 $400 $401 $402 reversed $161 $-1 #
coedge $-1 $261 $163 $403 $404 reversed $103 $-1 #
coedge $-1 $163 $260 $399 $405 reversed $103 $-1 #
coedge $-1 $401 $406 $163 $263 forward $257 $-1 #
edge $-1 $407 41.660352387300456 $408 50.541127936332543 $262 $409 forward 7 unknown #
loop $-1 $-1 $269 $164 #
plane-surface $-1 -57.353845246367364 -29.560133002061633 0.87831518264486874 0 -0.81915205242281985 0.57357642473473569 1 0 0 forward_v I I I I #
loop $-1 $-1 $410 $105 #
coedge $-1 $267 $267 $268 $411 reversed $165 $-1 #
coedge $-1 $268 $268 $267 $411 forward $167 $-1 #
coedge $-1 $269 $269 $168 $270 forward $264 $-1 #
edge $-1 $412 -4.0936231849014092e-016 $412 6.2831853071796004 $269 $413 forward 7 unknown #
loop $-1 $-1 $276 $169 #
plane-surface $-1 -57.353845246367364 -29.560133002061633 0.87831518264486874 0 -0.81915205242281985 0.57357642473473569 1 0 0 forward_v I I I I #
loop $-1 $-1 $414 $108 #
coedge $-1 $274 $274 $275 $415 reversed $170 $-1 #
coedge $-1 $275 $275 $274 $415 forward $172 $-1 #
coedge $-1 $276 $276 $173 $277 forward $271 $-1 #
edge $-1 $416 -4.0936231849014092e-016 $416 6.2831853071796004 $276 $417 forward 7 unknown #
face $-1 $418 $419 $57 $-1 $420 forward single #
loop $-1 $-1 $421 $174 #
plane-surface $-1 0 -29.560133002061669 0 0 1 0 0 0 1 forward_v I I I I #
coedge $-1 $422 $423 $424 $425 reversed $175 $-1 #
coedge $-1 $426 $177 $427 $428 reversed $112 $-1 #
coedge $-1 $177 $426 $422 $429 forward $112 $-1 #
coedge $-1 $424 $430 $177 $285 forward $419 $-1 #
edge $-1 $431 -40.224105850585659 $432 -17.129739395781705 $284 $433 forward 7 unknown #
loop $-1 $-1 $291 $178 #
plane-surface $-1 57.353845246367371 -29.560133002061633 0.87831518264486874 0 -0.81915205242281985 0.57357642473473569 1 0 0 forward_v I I I I #
loop $-1 $-1 $434 $114 #
coedge $-1 $289 $289 $290 $435 reversed $179 $-1 #
coedge $-1 $290 $290 $289 $435 forward $181 $-1 #
coedge $-1 $291 $291 $182 $292 forward $286 $-1 #
edge $-1 $436 -4.0936231849014092e-016 $436 6.2831853071796004 $291 $437 forward 7 unknown #
loop $-1 $-1 $298 $183 #
plane-surface $-1 57.353845246367371 -29.560133002061633 0.87831518264486874 0 -0.81915205242281985 0.57357642473473569 1 0 0 forward_v I I I I #
loop $-1 $-1 $438 $117 #
coedge $-1 $296 $296 $297 $439 reversed $184 $-1 #
coedge $-1 $297 $297 $296 $439 forward $186 $-1 #
coedge $-1 $298 $298 $187 $299 forward $293 $-1 #
edge $-1 $440 -4.0936231849014092e-016 $440 6.2831853071796004 $298 $441 forward 7 unknown #
face $-1 $442 $443 $45 $-1 $444 reversed single #
loop $-1 $-1 $445 $188 #
plane-surface $-1 -68.901028473769344 0 0 1 0 0 0 0 -1 forward_v I I I I #
coedge $-1 $446 $311 $447 $448 forward $189 $-1 #
coedge $-1 $449 $191 $446 $450 forward $121 $-1 #
coedge $-1 $191 $449 $451 $452 forward $121 $-1 #
coedge $-1 $314 $313 $191 $307 reversed $315 $-1 #
edge $-1 $453 -29.560133002061669 $454 29.560133002061669 $306 $455 forward 7 unknown #
coedge $-1 $193 $192 $456 $457 forward $76 $-1 #
coedge $-1 $458 $459 $192 $310 reversed $443 $-1 #
edge $-1 $317 -68.901028473769344 $460 68.901028473769344 $309 $461 forward 7 unknown #
coedge $-1 $303 $462 $193 $312 reversed $189 $-1 #
edge $-1 $463 -68.901028473769344 $316 68.901028473769344 $311 $464 forward 7 unknown #
coedge $-1 $306 $194 $462 $465 forward $315 $-1 #
coedge $-1 $194 $306 $458 $466 reversed $315 $-1 #
loop $-1 $-1 $313 $442 #
vertex $-1 $195 $467 #
vertex $-1 $195 $468 #
straight-curve $-1 68.901028473769344 0 13.561377464119152 0 1 0 I I #
face $-1 $-1 $331 $46 $-1 $469 forward single #
loop $-1 $-1 $470 $196 #
plane-surface $-1 0 29.560133002061669 0 0 -1 0 0 0 -1 forward_v I I I I #
coedge $-1 $471 $472 $473 $474 reversed $197 $-1 #
coedge $-1 $475 $199 $201 $329 forward $125 $-1 #
coedge $-1 $199 $475 $471 $476 forward $125 $-1 #
coedge $-1 $473 $202 $199 $326 forward $331 $-1 #
edge $-1 $333 -35.026015875314805 $477 -17.759229312237416 $325 $478 forward 7 unknown #
coedge $-1 $479 $480 $200 $328 forward $320 $-1 #
edge $-1 $481 -61.806915058289071 $332 -53.459023127850976 $327 $482 forward 7 unknown #
edge $-1 $333 48.801704213659356 $481 59.120266004123344 $201 $483 forward 7 unknown #
coedge $-1 $202 $473 $479 $484 forward $331 $-1 #
loop $-1 $-1 $473 $319 #
vertex $-1 $328 $485 #
vertex $-1 $203 $486 #
straight-curve $-1 -61.418638469090915 53.147160128641843 13.561377464119154 0 -1 0 I I #
coedge $-1 $335 $335 $-1 $487 reversed $206 $-1 #
edge $-1 $488 0 $488 6.2831853071796004 $207 $489 forward 7 unknown #
vertex $-1 $210 $490 #
ellipse-curve $-1 -52.785245187552221 26.527583837524098 9.3874314989001082 0 0.80901700255871778 0.5877852410284794 2 0 0 1 I I #
face $-1 $-1 $491 $48 $-1 $492 reversed single #
loop $-1 $-1 $217 $211 #
plane-surface $-1 0 0 13.561377464119152 0 0 1 1 0 0 forward_v I I I I #
coedge $-1 $493 $494 $495 $496 reversed $212 $-1 #
coedge $-1 $497 $214 $216 $349 forward $134 $-1 #
coedge $-1 $214 $497 $493 $498 forward $134 $-1 #
coedge $-1 $495 $217 $214 $346 forward $340 $-1 #
edge $-1 $352 -17.800758756872469 $499 -0.5339721937950781 $345 $500 forward 7 unknown #
coedge $-1 $501 $502 $215 $348 forward $491 $-1 #
edge $-1 $503 -61.806915058289071 $351 -53.459023127850976 $347 $504 forward 7 unknown #
edge $-1 $352 48.801704213659356 $503 59.120266004123344 $216 $505 forward 7 unknown #
coedge $-1 $217 $495 $501 $506 forward $340 $-1 #
vertex $-1 $218 $507 #
vertex $-1 $218 $508 #
straight-curve $-1 -26.968124232206243 53.147160128641843 13.561377464119154 0 -1 0 I I #
coedge $-1 $354 $354 $-1 $509 reversed $221 $-1 #
edge $-1 $510 0 $510 6.2831853071796004 $222 $511 forward 7 unknown #
vertex $-1 $225 $512 #
ellipse-curve $-1 -18.334730950667549 26.527583837524098 9.3874314989001082 0 0.80901700255871778 0.5877852410284794 2 0 0 1 I I #
face $-1 $-1 $513 $50 $-1 $514 reversed single #
loop $-1 $-1 $232 $226 #
plane-surface $-1 0 0 13.561377464119152 0 0 1 1 0 0 forward_v I I I I #
coedge $-1 $515 $516 $517 $518 reversed $227 $-1 #
coedge $-1 $519 $229 $231 $368 forward $143 $-1 #
coedge $-1 $229 $519 $515 $520 forward $143 $-1 #
coedge $-1 $517 $232 $229 $365 forward $359 $-1 #
edge $-1 $371 -0.57550163843013458 $521 16.691284924647256 $364 $522 forward 7 unknown #
coedge $-1 $523 $524 $230 $367 forward $513 $-1 #
edge $-1 $525 -61.806915058289071 $370 -53.459023127850976 $366 $526 forward 7 unknown #
edge $-1 $371 48.801704213659356 $525 59.120266004123344 $231 $527 forward 7 unknown #
coedge $-1 $232 $517 $523 $528 forward $359 $-1 #
vertex $-1 $233 $529 #
vertex $-1 $233 $530 #
straight-curve $-1 7.4823900046784271 53.147160128641843 13.561377464119154 0 -1 0 I I #
coedge $-1 $373 $373 $-1 $531 reversed $236 $-1 #
edge $-1 $532 0 $532 6.2831853071796004 $237 $533 forward 7 unknown #
vertex $-1 $240 $534 #
ellipse-curve $-1 16.115783286217123 26.527583837524098 9.3874314989001082 0 0.80901700255871778 0.5877852410284794 2 0 0 1 I I #
face $-1 $-1 $535 $52 $-1 $536 reversed single #
loop $-1 $-1 $247 $241 #
plane-surface $-1 0 0 13.561377464119152 0 0 1 1 0 0 forward_v I I I I #
coedge $-1 $537 $538 $539 $540 reversed $242 $-1 #
coedge $-1 $541 $244 $246 $387 forward $152 $-1 #
coedge $-1 $244 $541 $537 $542 forward $152 $-1 #
coedge $-1 $539 $247 $244 $384 forward $378 $-1 #
edge $-1 $390 16.649755480012203 $543 33.916542043089592 $383 $544 forward 7 unknown #
coedge $-1 $545 $546 $245 $386 forward $535 $-1 #
edge $-1 $547 -61.806915058289071 $389 -53.459023127850976 $385 $548 forward 7 unknown #
edge $-1 $390 48.801704213659356 $547 59.120266004123344 $246 $549 forward 7 unknown #
coedge $-1 $247 $539 $545 $550 forward $378 $-1 #
vertex $-1 $248 $551 #
vertex $-1 $248 $552 #
straight-curve $-1 41.932904241563101 53.147160128641843 13.561377464119154 0 -1 0 I I #
coedge $-1 $392 $392 $-1 $553 reversed $251 $-1 #
edge $-1 $554 0 $554 6.2831853071796004 $252 $555 forward 7 unknown #
vertex $-1 $255 $556 #
ellipse-curve $-1 50.566297523101795 26.527583837524098 9.3874314989001082 0 0.80901700255871778 0.5877852410284794 2 0 0 1 I I #
face $-1 $-1 $557 $54 $-1 $558 reversed single #
loop $-1 $-1 $559 $256 #
plane-surface $-1 -68.901028473769344 0 0 1 0 0 0 0 -1 forward_v I I I I #
coedge $-1 $560 $259 $261 $405 forward $161 $-1 #
coedge $-1 $259 $560 $559 $561 reversed $161 $-1 #
coedge $-1 $562 $262 $259 $402 forward $257 $-1 #
edge $-1 $408 17.129739395781701 $563 40.224105850585659 $401 $564 forward 7 unknown #
coedge $-1 $565 $566 $260 $404 forward $557 $-1 #
edge $-1 $567 -39.080847981208457 $407 -26.397785699734122 $403 $568 forward 7 unknown #
edge $-1 $408 -15.483159987161574 $567 6.1939003245508504e-014 $261 $569 forward 7 unknown #
coedge $-1 $262 $562 $565 $570 forward $257 $-1 #
vertex $-1 $404 $571 #
vertex $-1 $263 $572 #
straight-curve $-1 -45.806662018965383 -71.220485389362125 13.561377464119154 0 1 0 I I #
coedge $-1 $410 $410 $-1 $573 reversed $266 $-1 #
edge $-1 $574 0 $574 6.2831853071796004 $267 $575 forward 7 unknown #
vertex $-1 $270 $576 #
ellipse-curve $-1 -62.302638058111071 -25.119745227545618 7.2198463233819972 0 -0.81915205242281985 0.57357642473473569 2.5 0 0 1 I I #
coedge $-1 $414 $414 $-1 $577 reversed $273 $-1 #
edge $-1 $578 0 $578 6.2831853071796004 $274 $579 forward 7 unknown #
vertex $-1 $277 $580 #
ellipse-curve $-1 -52.405052434623656 -25.119745227545618 7.2198463233819972 0 -0.81915205242281985 0.57357642473473569 2.5 0 0 1 I I #
face $-1 $-1 $581 $57 $-1 $582 reversed single #
loop $-1 $-1 $424 $278 #
plane-surface $-1 0 0 13.561377464119152 0 0 1 1 0 0 forward_v I I I I #
coedge $-1 $583 $584 $423 $585 forward $279 $-1 #
coedge $-1 $423 $281 $283 $429 reversed $175 $-1 #
coedge $-1 $281 $422 $421 $585 reversed $175 $-1 #
coedge $-1 $586 $284 $281 $425 forward $419 $-1 #
edge $-1 $432 -50.541127936332543 $587 -41.660352387300456 $424 $588 forward 7 unknown #
coedge $-1 $283 $282 $583 $589 reversed $112 $-1 #
coedge $-1 $590 $591 $282 $428 forward $581 $-1 #
edge $-1 $592 -8.1177608587341172 $431 7.3653991284275193 $427 $593 forward 7 unknown #
edge $-1 $594 -6.1939003245508504e-014 $432 15.483159987161574 $422 $595 forward 7 unknown #
coedge $-1 $284 $586 $590 $596 forward $419 $-1 #
vertex $-1 $428 $597 #
vertex $-1 $285 $598 #
straight-curve $-1 28.676922623183685 -20.679357453029585 13.561377464119152 -1 0 0 I I #
coedge $-1 $434 $434 $-1 $599 reversed $288 $-1 #
edge $-1 $600 0 $600 6.2831853071796004 $289 $601 forward 7 unknown #
vertex $-1 $292 $602 #
ellipse-curve $-1 52.40505243462367 -25.119745227545618 7.2198463233819972 0 -0.81915205242281985 0.57357642473473569 2.5 0 0 1 I I #
coedge $-1 $438 $438 $-1 $603 reversed $295 $-1 #
edge $-1 $604 0 $604 6.2831853071796004 $296 $605 forward 7 unknown #
vertex $-1 $299 $606 #
ellipse-curve $-1 62.302638058111086 -25.119745227545618 7.2198463233819972 0 -0.81915205242281985 0.57357642473473569 2.5 0 0 1 I I #
face $-1 $-1 $315 $45 $-1 $607 reversed single #
loop $-1 $-1 $458 $300 #
plane-surface $-1 0 29.560133002061669 0 0 -1 0 0 0 -1 forward_v I I I I #
coedge $-1 $608 $456 $459 $609 forward $301 $-1 #
coedge $-1 $462 $303 $304 $450 reversed $189 $-1 #
coedge $-1 $456 $608 $303 $448 reversed $301 $-1 #
edge $-1 $463 -13.561377464119152 $610 13.561377464119152 $447 $611 forward 7 unknown #
coedge $-1 $305 $304 $608 $612 forward $121 $-1 #
edge $-1 $454 -68.901028473769344 $610 68.901028473769344 $446 $613 forward 7 unknown #
coedge $-1 $459 $458 $305 $452 reversed $443 $-1 #
edge $-1 $614 -68.901028473769344 $453 68.901028473769344 $451 $615 forward 7 unknown #
vertex $-1 $307 $616 #
vertex $-1 $465 $617 #
straight-curve $-1 68.901028473769344 0 -13.561377464119152 0 -1 0 I I #
coedge $-1 $445 $447 $308 $457 reversed $301 $-1 #
edge $-1 $460 -29.560133002061669 $463 29.560133002061669 $456 $618 forward 7 unknown #
coedge $-1 $451 $309 $314 $466 forward $443 $-1 #
coedge $-1 $309 $451 $445 $609 reversed $443 $-1 #
vertex $-1 $310 $619 #
straight-curve $-1 0 29.560133002061669 13.561377464119152 -1 0 0 I I #
coedge $-1 $311 $446 $313 $465 reversed $189 $-1 #
vertex $-1 $457 $620 #
straight-curve $-1 0 -29.560133002061669 13.561377464119152 1 0 0 I I #
edge $-1 $316 -13.561377464119152 $454 13.561377464119152 $313 $621 forward 7 unknown #
edge $-1 $317 -13.561377464119152 $453 13.561377464119152 $314 $622 forward 7 unknown #
point $-1 68.901028473769344 -29.560133002061669 13.561377464119152 #
point $-1 68.901028473769344 29.560133002061669 13.561377464119152 #
plane-surface $-1 0 0 13.561377464119152 0 0 1 1 0 0 forward_v I I I I #
coedge $-1 $480 $479 $472 $623 forward $320 $-1 #
coedge $-1 $472 $322 $324 $476 reversed $197 $-1 #
coedge $-1 $322 $471 $470 $623 reversed $197 $-1 #
coedge $-1 $330 $325 $322 $474 forward $331 $-1 #
edge $-1 $477 -29.652125455655305 $624 -23.587027126580175 $473 $625 forward 7 unknown #
coedge $-1 $324 $323 $480 $626 reversed $125 $-1 #
edge $-1 $627 -59.120266004123344 $477 -48.801704213659356 $471 $628 forward 7 unknown #
vertex $-1 $326 $629 #
straight-curve $-1 -26.39262259377611 23.495034672986534 13.561377464119154 1 0 0 I I #
coedge $-1 $470 $327 $330 $484 reversed $320 $-1 #
coedge $-1 $327 $470 $475 $626 forward $320 $-1 #
vertex $-1 $328 $630 #
straight-curve $-1 -61.418638469090915 29.560133002061669 67.02040059197013 0 0 1 I I #
straight-curve $-1 -61.418638469090915 -5.1898868008397869 53.042785926810993 0 0.5877852410284794 -0.80901700255871778 I I #
edge $-1 $624 44.151851906013526 $332 61.418638469090915 $479 $631 forward 7 unknown #
point $-1 -61.418638469090915 29.560133002061669 13.561377464119152 #
point $-1 -61.418638469090915 23.495034672986538 13.561377464119154 #
edge $-1 $632 1 $632 0 $335 $-1 forward 7 unknown #
vertex $-1 $336 $633 #
ellipse-curve $-1 -52.785245187552221 21.776093433324299 5.9352717499158665 0 0.80901700255871778 0.5877852410284794 2 0 0 1 I I #
point $-1 -50.785245187552221 26.527583837524102 9.3874314989001117 #
loop $-1 $-1 $347 $339 #
plane-surface $-1 0 29.560133002061669 0 0 -1 0 0 0 -1 forward_v I I I I #
coedge $-1 $494 $342 $344 $498 reversed $212 $-1 #
coedge $-1 $342 $493 $634 $635 reversed $212 $-1 #
coedge $-1 $350 $345 $342 $496 forward $340 $-1 #
edge $-1 $499 -29.652125455655305 $636 -23.587027126580175 $495 $637 forward 7 unknown #
coedge $-1 $344 $343 $502 $638 reversed $134 $-1 #
edge $-1 $639 -59.120266004123344 $499 -48.801704213659356 $493 $640 forward 7 unknown #
vertex $-1 $346 $641 #
straight-curve $-1 -9.1673654753337743 23.495034672986534 13.561377464119154 1 0 0 I I #
coedge $-1 $634 $347 $350 $506 reversed $491 $-1 #
coedge $-1 $347 $634 $497 $638 forward $491 $-1 #
vertex $-1 $348 $642 #
straight-curve $-1 -26.968124232206243 29.560133002061669 67.02040059197013 0 0 1 I I #
straight-curve $-1 -26.968124232206243 -5.1898868008397869 53.042785926810993 0 0.5877852410284794 -0.80901700255871778 I I #
edge $-1 $636 9.7013376691288524 $351 26.968124232206243 $501 $643 forward 7 unknown #
point $-1 -26.968124232206243 29.560133002061669 13.561377464119152 #
point $-1 -26.968124232206243 23.495034672986538 13.561377464119154 #
edge $-1 $644 1 $644 0 $354 $-1 forward 7 unknown #
vertex $-1 $355 $645 #
ellipse-curve $-1 -18.334730950667549 21.776093433324299 5.9352717499158665 0 0.80901700255871778 0.5877852410284794 2 0 0 1 I I #
point $-1 -16.334730950667549 26.527583837524102 9.3874314989001117 #
loop $-1 $-1 $366 $358 #
plane-surface $-1 0 29.560133002061669 0 0 -1 0 0 0 -1 forward_v I I I I #
coedge $-1 $516 $361 $363 $520 reversed $227 $-1 #
coedge $-1 $361 $515 $646 $647 reversed $227 $-1 #
coedge $-1 $369 $364 $361 $518 forward $359 $-1 #
edge $-1 $521 -29.652125455655305 $648 -23.587027126580175 $517 $649 forward 7 unknown #
coedge $-1 $363 $362 $524 $650 reversed $143 $-1 #
edge $-1 $651 -59.120266004123344 $521 -48.801704213659356 $515 $652 forward 7 unknown #
vertex $-1 $365 $653 #
straight-curve $-1 8.0578916431085617 23.495034672986534 13.561377464119154 1 0 0 I I #
coedge $-1 $646 $366 $369 $528 reversed $513 $-1 #
coedge $-1 $366 $646 $519 $650 forward $513 $-1 #
vertex $-1 $367 $654 #
straight-curve $-1 7.4823900046784271 29.560133002061669 67.02040059197013 0 0 1 I I #
straight-curve $-1 7.4823900046784271 -5.1898868008397869 53.042785926810993 0 0.5877852410284794 -0.80901700255871778 I I #
edge $-1 $648 -24.749176567755818 $370 -7.4823900046784271 $523 $655 forward 7 unknown #
point $-1 7.4823900046784271 29.560133002061669 13.561377464119152 #
point $-1 7.4823900046784271 23.495034672986538 13.561377464119154 #
edge $-1 $656 1 $656 0 $373 $-1 forward 7 unknown #
vertex $-1 $374 $657 #
ellipse-curve $-1 16.115783286217123 21.776093433324299 5.9352717499158665 0 0.80901700255871778 0.5877852410284794 2 0 0 1 I I #
point $-1 18.115783286217123 26.527583837524102 9.3874314989001117 #
loop $-1 $-1 $385 $377 #
plane-surface $-1 0 29.560133002061669 0 0 -1 0 0 0 -1 forward_v I I I I #
coedge $-1 $538 $380 $382 $542 reversed $242 $-1 #
coedge $-1 $380 $537 $658 $659 reversed $242 $-1 #
coedge $-1 $388 $383 $380 $540 forward $378 $-1 #
edge $-1 $543 -29.652125455655305 $660 -23.587027126580175 $539 $661 forward 7 unknown #
coedge $-1 $382 $381 $546 $662 reversed $152 $-1 #
edge $-1 $663 -59.120266004123344 $543 -48.801704213659356 $537 $664 forward 7 unknown #
vertex $-1 $384 $665 #
straight-curve $-1 25.283148761550898 23.495034672986534 13.561377464119154 1 0 0 I I #
coedge $-1 $658 $385 $388 $550 reversed $535 $-1 #
coedge $-1 $385 $658 $541 $662 forward $535 $-1 #
vertex $-1 $386 $666 #
straight-curve $-1 41.932904241563101 29.560133002061669 67.02040059197013 0 0 1 I I #
straight-curve $-1 41.932904241563101 -5.1898868008397869 53.042785926810993 0 0.5877852410284794 -0.80901700255871778 I I #
edge $-1 $660 -59.19969080464049 $389 -41.932904241563101 $545 $667 forward 7 unknown #
point $-1 41.932904241563101 29.560133002061669 13.561377464119152 #
point $-1 41.932904241563101 23.495034672986538 13.561377464119154 #
edge $-1 $668 1 $668 0 $392 $-1 forward 7 unknown #
vertex $-1 $393 $669 #
ellipse-curve $-1 50.566297523101795 21.776093433324299 5.9352717499158665 0 0.80901700255871778 0.5877852410284794 2 0 0 1 I I #
point $-1 52.566297523101795 26.527583837524102 9.3874314989001117 #
loop $-1 $-1 $403 $396 #
plane-surface $-1 0 -29.560133002061669 0 0 1 0 0 0 1 forward_v I I I I #
coedge $-1 $670 $671 $400 $561 forward $397 $-1 #
coedge $-1 $400 $399 $566 $672 reversed $161 $-1 #
edge $-1 $563 -7.3653991284275193 $673 8.1177608587341172 $559 $674 forward 7 unknown #
coedge $-1 $406 $401 $671 $675 forward $257 $-1 #
vertex $-1 $675 $676 #
straight-curve $-1 -28.676922623183682 -20.679357453029585 13.561377464119152 -1 0 0 I I #
coedge $-1 $677 $403 $406 $570 reversed $557 $-1 #
coedge $-1 $403 $677 $560 $672 forward $557 $-1 #
vertex $-1 $404 $678 #
straight-curve $-1 -45.806662018965383 -29.560133002061669 39.959163163853276 0 0 1 I I #
straight-curve $-1 -45.806662018965383 -29.560133002061633 0.87831518264486874 0 -0.57357642473473569 -0.81915205242281985 I I #
edge $-1 $679 -68.901028473769344 $407 -45.806662018965383 $565 $680 forward 7 unknown #
point $-1 -45.806662018965383 -29.560133002061669 13.561377464119152 #
point $-1 -45.806662018965383 -20.679357453029581 13.561377464119152 #
edge $-1 $681 1 $681 0 $410 $-1 forward 7 unknown #
vertex $-1 $411 $682 #
ellipse-curve $-1 -62.302638058111071 -17.252590616589522 1.7112055267910045 0 -0.81915205242281985 0.57357642473473569 2.5 0 0 1 I I #
point $-1 -59.802638058111071 -25.119745227545646 7.2198463233820158 #
edge $-1 $683 1 $683 0 $414 $-1 forward 7 unknown #
vertex $-1 $415 $684 #
ellipse-curve $-1 -52.405052434623656 -17.252590616589522 1.7112055267910045 0 -0.81915205242281985 0.57357642473473569 2.5 0 0 1 I I #
point $-1 -49.905052434623656 -25.119745227545646 7.2198463233820158 #
loop $-1 $-1 $427 $418 #
plane-surface $-1 68.901028473769344 0 0 -1 0 0 0 0 1 forward_v I I I I #
coedge $-1 $685 $421 $426 $589 forward $279 $-1 #
coedge $-1 $421 $685 $586 $686 reversed $279 $-1 #
edge $-1 $587 26.397785699734122 $594 39.080847981208457 $421 $687 forward 7 unknown #
coedge $-1 $430 $424 $584 $686 forward $419 $-1 #
vertex $-1 $686 $688 #
straight-curve $-1 45.80666201896539 -71.220485389362125 13.561377464119154 0 -1 0 I I #
edge $-1 $594 17.129739395781705 $592 40.224105850585659 $583 $689 forward 7 unknown #
coedge $-1 $591 $427 $430 $596 reversed $581 $-1 #
coedge $-1 $427 $590 $685 $690 forward $581 $-1 #
vertex $-1 $589 $691 #
straight-curve $-1 68.901028473769344 -24.903976751857378 7.5279956511545034 0 0.57357642473473569 0.81915205242281985 I I #
vertex $-1 $589 $692 #
straight-curve $-1 45.80666201896539 -29.560133002061633 0.87831518264486874 0 0.57357642473473569 0.81915205242281985 I I #
edge $-1 $693 -29.560133002061669 $431 -20.679357453029581 $590 $694 forward 7 unknown #
point $-1 68.901028473769344 -20.679357453029581 13.561377464119152 #
point $-1 45.80666201896539 -20.679357453029581 13.561377464119152 #
edge $-1 $695 1 $695 0 $434 $-1 forward 7 unknown #
vertex $-1 $435 $696 #
ellipse-curve $-1 52.40505243462367 -17.252590616589522 1.7112055267910045 0 -0.81915205242281985 0.57357642473473569 2.5 0 0 1 I I #
point $-1 54.90505243462367 -25.119745227545646 7.2198463233820158 #
edge $-1 $697 1 $697 0 $438 $-1 forward 7 unknown #
vertex $-1 $439 $698 #
ellipse-curve $-1 62.302638058111086 -17.252590616589522 1.7112055267910045 0 -0.81915205242281985 0.57357642473473569 2.5 0 0 1 I I #
point $-1 64.802638058111086 -25.119745227545646 7.2198463233820158 #
plane-surface $-1 68.901028473769344 0 0 -1 0 0 0 0 1 forward_v I I I I #
coedge $-1 $447 $445 $449 $612 reversed $301 $-1 #
edge $-1 $460 -13.561377464119152 $614 13.561377464119152 $459 $699 forward 7 unknown #
vertex $-1 $612 $700 #
straight-curve $-1 -68.901028473769344 -29.560133002061669 0 0 0 -1 I I #
edge $-1 $610 -29.560133002061669 $614 29.560133002061669 $608 $701 forward 7 unknown #
straight-curve $-1 0 -29.560133002061669 -13.561377464119152 -1 0 0 I I #
vertex $-1 $452 $702 #
straight-curve $-1 0 29.560133002061669 -13.561377464119152 1 0 0 I I #
point $-1 68.901028473769344 29.560133002061669 -13.561377464119152 #
point $-1 68.901028473769344 -29.560133002061669 -13.561377464119152 #
straight-curve $-1 -68.901028473769344 0 13.561377464119152 0 -1 0 I I #
point $-1 -68.901028473769344 29.560133002061669 13.561377464119152 #
point $-1 -68.901028473769344 -29.560133002061669 13.561377464119152 #
straight-curve $-1 68.901028473769344 -29.560133002061669 0 0 0 -1 I I #
straight-curve $-1 68.901028473769344 29.560133002061669 0 0 0 -1 I I #
edge $-1 $624 53.459023127850976 $627 61.806915058289071 $470 $703 forward 7 unknown #
vertex $-1 $484 $704 #
straight-curve $-1 -44.151851906013526 53.147160128641843 13.561377464119154 0 1 0 I I #
edge $-1 $627 17.759229312237416 $481 35.026015875314805 $480 $705 forward 7 unknown #
vertex $-1 $626 $706 #
straight-curve $-1 -44.151851906013526 -5.1898868008397869 53.042785926810993 0 -0.5877852410284794 0.80901700255871778 I I #
point $-1 -44.151851906013526 23.495034672986538 13.561377464119154 #
point $-1 -61.418638469090915 29.560133002061669 5.2134855336810588 #
straight-curve $-1 0 29.560133002061669 13.561377464119152 -1 0 0 I I #
vertex $-1 $487 $707 #
point $-1 -50.785245187552221 21.776093433324299 5.9352717499158665 #
coedge $-1 $502 $501 $494 $635 forward $491 $-1 #
edge $-1 $636 53.459023127850976 $639 61.806915058289071 $634 $708 forward 7 unknown #
vertex $-1 $506 $709 #
straight-curve $-1 -9.7013376691288524 53.147160128641843 13.561377464119154 0 1 0 I I #
edge $-1 $639 0.5339721937950781 $503 17.800758756872469 $502 $710 forward 7 unknown #
vertex $-1 $638 $711 #
straight-curve $-1 -9.7013376691288524 -5.1898868008397869 53.042785926810993 0 -0.5877852410284794 0.80901700255871778 I I #
point $-1 -9.7013376691288524 23.495034672986538 13.561377464119154 #
point $-1 -26.968124232206243 29.560133002061669 5.2134855336810588 #
straight-curve $-1 0 29.560133002061669 13.561377464119152 -1 0 0 I I #
vertex $-1 $509 $712 #
point $-1 -16.334730950667549 21.776093433324299 5.9352717499158665 #
coedge $-1 $524 $523 $516 $647 forward $513 $-1 #
edge $-1 $648 53.459023127850976 $651 61.806915058289071 $646 $713 forward 7 unknown #
vertex $-1 $528 $714 #
straight-curve $-1 24.749176567755818 53.147160128641843 13.561377464119154 0 1 0 I I #
edge $-1 $651 -16.691284924647256 $525 0.57550163843013458 $524 $715 forward 7 unknown #
vertex $-1 $650 $716 #
straight-curve $-1 24.749176567755818 -5.1898868008397869 53.042785926810993 0 -0.5877852410284794 0.80901700255871778 I I #
point $-1 24.749176567755818 23.495034672986538 13.561377464119154 #
point $-1 7.4823900046784271 29.560133002061669 5.2134855336810588 #
straight-curve $-1 0 29.560133002061669 13.561377464119152 -1 0 0 I I #
vertex $-1 $531 $717 #
point $-1 18.115783286217123 21.776093433324299 5.9352717499158665 #
coedge $-1 $546 $545 $538 $659 forward $535 $-1 #
edge $-1 $660 53.459023127850976 $663 61.806915058289071 $658 $718 forward 7 unknown #
vertex $-1 $550 $719 #
straight-curve $-1 59.19969080464049 53.147160128641843 13.561377464119154 0 1 0 I I #
edge $-1 $663 -33.916542043089592 $547 -16.649755480012203 $546 $720 forward 7 unknown #
vertex $-1 $662 $721 #
straight-curve $-1 59.19969080464049 -5.1898868008397869 53.042785926810993 0 -0.5877852410284794 0.80901700255871778 I I #
point $-1 59.19969080464049 23.495034672986538 13.561377464119154 #
point $-1 41.932904241563101 29.560133002061669 5.2134855336810588 #
straight-curve $-1 0 29.560133002061669 13.561377464119152 -1 0 0 I I #
vertex $-1 $553 $722 #
point $-1 52.566297523101795 21.776093433324299 5.9352717499158665 #
coedge $-1 $671 $559 $677 $723 reversed $397 $-1 #
coedge $-1 $559 $670 $562 $675 reversed $397 $-1 #
edge $-1 $673 -40.224105850585659 $567 -17.129739395781701 $566 $724 forward 7 unknown #
vertex $-1 $561 $725 #
straight-curve $-1 -68.901028473769344 -24.903976751857378 7.5279956511545034 0 -0.57357642473473569 -0.81915205242281985 I I #
edge $-1 $563 20.679357453029581 $679 29.560133002061669 $671 $726 forward 7 unknown #
point $-1 -68.901028473769344 -20.679357453029581 13.561377464119152 #
coedge $-1 $566 $565 $670 $723 forward $557 $-1 #
point $-1 -45.806662018965383 -29.560133002061669 0.878315182644818 #
vertex $-1 $675 $727 #
straight-curve $-1 0 -29.560133002061669 13.561377464119152 1 0 0 I I #
vertex $-1 $573 $728 #
point $-1 -59.802638058111071 -17.252590616589522 1.7112055267910045 #
vertex $-1 $577 $729 #
point $-1 -49.905052434623656 -17.252590616589522 1.7112055267910045 #
coedge $-1 $584 $583 $591 $690 reversed $279 $-1 #
edge $-1 $587 45.80666201896539 $693 68.901028473769344 $584 $730 forward 7 unknown #
straight-curve $-1 45.80666201896539 -29.560133002061669 39.959163163853276 0 0 -1 I I #
point $-1 45.80666201896539 -29.560133002061669 13.561377464119152 #
straight-curve $-1 28.676922623183685 -29.560133002061669 0.87831518264481678 1 0 0 I I #
edge $-1 $693 -13.561377464119152 $592 -0.878315182644818 $591 $731 forward 7 unknown #
point $-1 68.901028473769344 -29.560133002061669 0.878315182644818 #
point $-1 45.80666201896539 -29.560133002061669 0.878315182644818 #
vertex $-1 $596 $732 #
straight-curve $-1 68.901028473769344 0 13.561377464119152 0 1 0 I I #
vertex $-1 $599 $733 #
point $-1 54.90505243462367 -17.252590616589522 1.7112055267910045 #
vertex $-1 $603 $734 #
point $-1 64.802638058111086 -17.252590616589522 1.7112055267910045 #
straight-curve $-1 -68.901028473769344 29.560133002061669 0 0 0 -1 I I #
point $-1 -68.901028473769344 -29.560133002061669 -13.561377464119152 #
straight-curve $-1 -68.901028473769344 0 -13.561377464119152 0 1 0 I I #
point $-1 -68.901028473769344 29.560133002061669 -13.561377464119152 #
straight-curve $-1 -44.151851906013526 29.560133002061669 67.02040059197013 0 0 -1 I I #
point $-1 -44.151851906013526 29.560133002061669 13.561377464119152 #
straight-curve $-1 -26.39262259377611 29.560133002061669 5.2134855336810588 -1 0 0 I I #
point $-1 -44.151851906013526 29.560133002061669 5.2134855336810588 #
point $-1 -52.785245187552221 20.158059428206862 4.7597012678589081 #
straight-curve $-1 -9.7013376691288524 29.560133002061669 67.02040059197013 0 0 -1 I I #
point $-1 -9.7013376691288524 29.560133002061669 13.561377464119152 #
straight-curve $-1 -9.1673654753337743 29.560133002061669 5.2134855336810588 -1 0 0 I I #
point $-1 -9.7013376691288524 29.560133002061669 5.2134855336810588 #
point $-1 -18.334730950667549 20.158059428206862 4.7597012678589081 #
straight-curve $-1 24.749176567755818 29.560133002061669 67.02040059197013 0 0 -1 I I #
point $-1 24.749176567755818 29.560133002061669 13.561377464119152 #
straight-curve $-1 8.0578916431085617 29.560133002061669 5.2134855336810588 -1 0 0 I I #
point $-1 24.749176567755818 29.560133002061669 5.2134855336810588 #
point $-1 16.115783286217123 20.158059428206862 4.7597012678589081 #
straight-curve $-1 59.19969080464049 29.560133002061669 67.02040059197013 0 0 -1 I I #
point $-1 59.19969080464049 29.560133002061669 13.561377464119152 #
straight-curve $-1 25.283148761550898 29.560133002061669 5.2134855336810588 -1 0 0 I I #
point $-1 59.19969080464049 29.560133002061669 5.2134855336810588 #
point $-1 50.566297523101795 20.158059428206862 4.7597012678589081 #
edge $-1 $679 -13.561377464119152 $673 -0.878315182644818 $670 $735 forward 7 unknown #
straight-curve $-1 -28.676922623183682 -29.560133002061669 0.87831518264481678 1 0 0 I I #
point $-1 -68.901028473769344 -29.560133002061669 0.878315182644818 #
straight-curve $-1 -68.901028473769344 0 13.561377464119152 0 -1 0 I I #
point $-1 -68.901028473769344 -29.560133002061669 13.561377464119152 #
point $-1 -62.302638058111071 -15.204710485532473 0.27726446495416535 #
point $-1 -52.405052434623656 -15.204710485532473 0.27726446495416535 #
straight-curve $-1 0 -29.560133002061669 13.561377464119152 1 0 0 I I #
straight-curve $-1 68.901028473769344 -29.560133002061669 0 0 0 -1 I I #
point $-1 68.901028473769344 -29.560133002061669 13.561377464119152 #
point $-1 52.40505243462367 -15.204710485532473 0.27726446495416535 #
point $-1 62.302638058111086 -15.204710485532473 0.27726446495416535 #
straight-curve $-1 -68.901028473769344 -29.560133002061669 0 0 0 -1 I I #
End-of-ACIS-data 