500 0 8 0           
7 Unknown 11 ACIS 5.0 NT 24 Fri Mar 26 14:43:47 1999 
-1 9.9999999999999995e-007 1e-010 
body $-1 $8 $-1 $9 #
body $-1 $10 $-1 $11 #
body $-1 $12 $-1 $13 #
body $-1 $14 $-1 $15 #
body $-1 $16 $-1 $17 #
body $-1 $18 $-1 $19 #
body $-1 $20 $-1 $21 #
body $-1 $22 $-1 $23 #
lump $-1 $-1 $24 $0 #
transform $-1 1 0 0 0 1 0 0 0 1 48.894314401684625 23.292954735260995 6.0336906400326029 1 rotate no_reflect no_shear #
lump $-1 $-1 $25 $1 #
transform $-1 1 0 0 0 1 0 0 0 1 48.894314401684625 23.292954735260995 6.0336906400326029 1 rotate no_reflect no_shear #
lump $-1 $-1 $26 $2 #
transform $-1 1 0 0 0 1 0 0 0 1 48.894314401684625 23.292954735260995 6.0336906400326029 1 rotate no_reflect no_shear #
lump $-1 $-1 $27 $3 #
transform $-1 1 0 0 0 1 0 0 0 1 48.894314401684625 23.292954735260995 6.0336906400326029 1 rotate no_reflect no_shear #
lump $-1 $-1 $28 $4 #
transform $-1 1 0 0 0 1 0 0 0 1 48.894314401684625 23.292954735260995 6.0336906400326029 1 rotate no_reflect no_shear #
lump $-1 $-1 $29 $5 #
transform $-1 1 0 0 0 1 0 0 0 1 48.894314401684625 23.292954735260995 6.0336906400326029 1 rotate no_reflect no_shear #
lump $-1 $-1 $30 $6 #
transform $-1 1 0 0 0 1 0 0 0 1 48.894314401684625 23.292954735260995 6.0336906400326029 1 rotate no_reflect no_shear #
lump $-1 $-1 $31 $7 #
transform $-1 1 0 0 0 1 0 0 0 1 48.894314401684625 23.292954735260995 6.0336906400326029 1 rotate no_reflect no_shear #
shell $-1 $-1 $-1 $32 $-1 $8 #
shell $-1 $-1 $-1 $33 $-1 $10 #
shell $-1 $-1 $-1 $34 $-1 $12 #
shell $-1 $-1 $-1 $35 $-1 $14 #
shell $-1 $-1 $-1 $36 $-1 $16 #
shell $-1 $-1 $-1 $37 $-1 $18 #
shell $-1 $-1 $-1 $38 $-1 $20 #
shell $-1 $-1 $-1 $39 $-1 $22 #
face $-1 $40 $41 $24 $-1 $42 forward single #
face $-1 $43 $44 $25 $-1 $45 reversed single #
face $-1 $46 $47 $26 $-1 $48 reversed single #
face $-1 $49 $50 $27 $-1 $51 forward single #
face $-1 $52 $53 $28 $-1 $54 reversed single #
face $-1 $55 $56 $29 $-1 $57 forward single #
face $-1 $58 $59 $30 $-1 $60 forward single #
face $-1 $61 $62 $31 $-1 $63 forward single #
face $-1 $64 $65 $24 $-1 $66 reversed single #
loop $-1 $-1 $67 $32 #
plane-surface $-1 0 0 6.0336906400326029 0 0 1 1 0 0 forward_v I I I I #
face $-1 $68 $69 $25 $-1 $70 reversed single #
loop $-1 $-1 $71 $33 #
plane-surface $-1 -45.070677710958414 0 3.0336906400326029 0 0 1 1 0 0 forward_v I I I I #
face $-1 $72 $73 $26 $-1 $74 reversed single #
loop $-1 $-1 $75 $34 #
plane-surface $-1 43.92370653266731 -23.292954735260992 1.3570921171177588 0 -0.75470958851134928 0.65605901945558964 1 0 0 forward_v I I I I #
face $-1 $76 $77 $27 $-1 $78 forward single #
loop $-1 $79 $80 $35 #
cone-surface $-1 43.92370653266731 -19.622873575238572 2.2719963837211576 0 0.75470958851134928 -0.65605901945558964 1.5 0 0 1 I I 0 1 1.5 forward I I I I #
face $-1 $81 $82 $28 $-1 $83 reversed single #
loop $-1 $-1 $84 $36 #
plane-surface $-1 -25.706949312731453 69.971531206109105 98.55166633533382 1 0 0 0 -0.77714596973225614 -0.62932038083071107 forward_v I I I I #
face $-1 $85 $86 $29 $-1 $87 forward single #
loop $-1 $88 $89 $37 #
cone-surface $-1 -21.142248514624008 20.141033942950997 2.5817126967603916 0 -0.77714596973225614 -0.62932038083071107 1 0 0 1 I I 0 1 1 forward I I I I #
face $-1 $90 $91 $30 $-1 $92 forward single #
loop $-1 $93 $94 $38 #
cone-surface $-1 -14.295197317462844 20.141033942950997 2.5817126967603916 0 -0.77714596973225614 -0.62932038083071107 1 0 0 1 I I 0 1 1 forward I I I I #
face $-1 $95 $96 $31 $-1 $97 forward single #
loop $-1 $98 $99 $39 #
cone-surface $-1 -7.4481461203016792 20.141033942950997 2.5817126967603916 0 -0.77714596973225614 -0.62932038083071107 1 0 0 1 I I 0 1 1 forward I I I I #
face $-1 $100 $101 $24 $-1 $102 reversed single #
loop $-1 $-1 $103 $40 #
plane-surface $-1 0 0 -6.0336906400326029 0 0 1 1 0 0 forward_v I I I I #
coedge $-1 $104 $105 $106 $107 forward $41 $-1 #
face $-1 $108 $109 $25 $-1 $110 reversed single #
loop $-1 $-1 $111 $43 #
plane-surface $-1 -41.247041020232203 0 4.5336906400326029 -1 0 0 0 0 1 forward_v I I I I #
coedge $-1 $112 $113 $114 $115 forward $44 $-1 #
face $-1 $116 $117 $26 $-1 $118 reversed single #
loop $-1 $-1 $119 $46 #
plane-surface $-1 38.953098663649996 -97.094970540540871 65.512204043762821 1 0 0 0 0.75470958851134928 -0.65605901945558964 forward_v I I I I #
coedge $-1 $120 $121 $122 $123 reversed $47 $-1 #
face $-1 $-1 $124 $27 $-1 $125 forward single #
loop $-1 $126 $127 $49 #
cone-surface $-1 43.92370653266731 -17.41941270899768 0.35655712427543751 0 0.75470958851134928 -0.65605901945558964 0.75 0 0 1 I I -0.70710678118654757 0.70710678118654757 0.75 forward I I I I #
loop $-1 $-1 $128 $35 #
coedge $-1 $80 $80 $129 $130 reversed $50 $-1 #
face $-1 $131 $132 $28 $-1 $133 reversed single #
loop $-1 $-1 $134 $52 #
plane-surface $-1 -14.295197317462844 -6.024507554072926 37.011289215884446 0 0.77714596973225614 0.62932038083071107 1 0 0 forward_v I I I I #
coedge $-1 $135 $136 $137 $138 reversed $53 $-1 #
face $-1 $-1 $139 $29 $-1 $140 forward single #
loop $-1 $141 $142 $55 #
cone-surface $-1 -21.142248514624008 18.7166892909453 1.4283011708108582 0 -0.77714596973225614 -0.62932038083071107 0.5 0 0 1 I I -0.70710678118654746 0.70710678118654746 0.5 forward I I I I #
loop $-1 $-1 $143 $37 #
coedge $-1 $89 $89 $144 $145 reversed $56 $-1 #
face $-1 $-1 $146 $30 $-1 $147 forward single #
loop $-1 $148 $149 $58 #
cone-surface $-1 -14.295197317462844 18.7166892909453 1.4283011708108582 0 -0.77714596973225614 -0.62932038083071107 0.5 0 0 1 I I -0.70710678118654746 0.70710678118654746 0.5 forward I I I I #
loop $-1 $-1 $150 $38 #
coedge $-1 $94 $94 $151 $152 reversed $59 $-1 #
face $-1 $-1 $153 $31 $-1 $154 forward single #
loop $-1 $155 $156 $61 #
cone-surface $-1 -7.4481461203016792 18.7166892909453 1.4283011708108582 0 -0.77714596973225614 -0.62932038083071107 0.5 0 0 1 I I -0.70710678118654746 0.70710678118654746 0.5 forward I I I I #
loop $-1 $-1 $157 $39 #
coedge $-1 $99 $99 $158 $159 reversed $62 $-1 #
face $-1 $160 $161 $24 $-1 $162 reversed single #
loop $-1 $-1 $163 $64 #
plane-surface $-1 0 -23.292954735260995 0 0 1 0 0 0 1 forward_v I I I I #
coedge $-1 $164 $165 $166 $167 forward $65 $-1 #
coedge $-1 $168 $67 $169 $170 forward $41 $-1 #
coedge $-1 $67 $168 $171 $172 forward $41 $-1 #
coedge $-1 $173 $174 $67 $107 reversed $175 $-1 #
edge $-1 $176 -23.292954735260995 $177 23.292954735260995 $106 $178 forward 7 unknown #
face $-1 $179 $180 $25 $-1 $181 reversed single #
loop $-1 $-1 $182 $68 #
plane-surface $-1 0 23.292954735260995 0 0 -1 0 0 0 -1 forward_v I I I I #
coedge $-1 $114 $183 $184 $185 reversed $69 $-1 #
coedge $-1 $186 $71 $187 $188 reversed $44 $-1 #
coedge $-1 $71 $186 $189 $190 reversed $44 $-1 #
coedge $-1 $191 $111 $71 $115 reversed $69 $-1 #
edge $-1 $192 -23.292954735260995 $193 23.292954735260995 $114 $194 forward 7 unknown #
face $-1 $195 $196 $26 $-1 $197 forward single #
loop $-1 $-1 $198 $72 #
plane-surface $-1 48.894314401684625 0 0 -1 0 0 0 0 1 forward_v I I I I #
coedge $-1 $199 $200 $201 $202 reversed $73 $-1 #
coedge $-1 $203 $75 $198 $204 reversed $47 $-1 #
coedge $-1 $75 $203 $199 $205 forward $47 $-1 #
coedge $-1 $201 $206 $75 $123 forward $196 $-1 #
edge $-1 $207 -26.93246113535097 $208 -16.991245397316341 $122 $209 forward 7 unknown #
loop $-1 $-1 $129 $76 #
plane-surface $-1 43.92370653266731 -23.292954735260992 1.3570921171177588 0 -0.75470958851134928 0.65605901945558964 1 0 0 forward_v I I I I #
loop $-1 $-1 $210 $49 #
coedge $-1 $127 $127 $128 $211 reversed $77 $-1 #
coedge $-1 $128 $128 $127 $211 forward $79 $-1 #
coedge $-1 $129 $129 $80 $130 forward $124 $-1 #
edge $-1 $212 2.0425121703439646e-017 $212 6.2831853071796004 $129 $213 forward 7 unknown #
face $-1 $214 $215 $28 $-1 $216 reversed single #
loop $-1 $-1 $217 $81 #
plane-surface $-1 -2.883445322194234 69.971531206109105 98.55166633533382 -1 0 0 0 0.77714596973225614 0.62932038083071107 forward_v I I I I #
coedge $-1 $218 $219 $220 $221 reversed $82 $-1 #
coedge $-1 $136 $84 $222 $223 reversed $53 $-1 #
coedge $-1 $84 $135 $218 $224 reversed $53 $-1 #
coedge $-1 $220 $225 $84 $138 forward $226 $-1 #
edge $-1 $227 11.692810867793558 $228 15.925109118134426 $137 $229 forward 7 unknown #
loop $-1 $-1 $144 $85 #
plane-surface $-1 -14.295197317462844 -6.024507554072926 37.011289215884446 0 0.77714596973225614 0.62932038083071107 1 0 0 forward_v I I I I #
loop $-1 $-1 $230 $55 #
coedge $-1 $142 $142 $143 $231 reversed $86 $-1 #
coedge $-1 $143 $143 $142 $231 forward $88 $-1 #
coedge $-1 $144 $144 $89 $145 forward $139 $-1 #
edge $-1 $232 -1.2004287064155327e-015 $232 6.2831853071795996 $144 $233 forward 7 unknown #
loop $-1 $-1 $151 $90 #
plane-surface $-1 -14.295197317462844 -6.024507554072926 37.011289215884446 0 0.77714596973225614 0.62932038083071107 1 0 0 forward_v I I I I #
loop $-1 $-1 $234 $58 #
coedge $-1 $149 $149 $150 $235 reversed $91 $-1 #
coedge $-1 $150 $150 $149 $235 forward $93 $-1 #
coedge $-1 $151 $151 $94 $152 forward $146 $-1 #
edge $-1 $236 -1.2004287064155327e-015 $236 6.2831853071795996 $151 $237 forward 7 unknown #
loop $-1 $-1 $158 $95 #
plane-surface $-1 -14.295197317462844 -6.024507554072926 37.011289215884446 0 0.77714596973225614 0.62932038083071107 1 0 0 forward_v I I I I #
loop $-1 $-1 $238 $61 #
coedge $-1 $156 $156 $157 $239 reversed $96 $-1 #
coedge $-1 $157 $157 $156 $239 forward $98 $-1 #
coedge $-1 $158 $158 $99 $159 forward $153 $-1 #
edge $-1 $240 -1.2004287064155327e-015 $240 6.2831853071795996 $158 $241 forward 7 unknown #
face $-1 $242 $243 $24 $-1 $244 reversed single #
loop $-1 $-1 $245 $100 #
plane-surface $-1 -48.894314401684625 0 0 1 0 0 0 0 -1 forward_v I I I I #
coedge $-1 $246 $171 $247 $248 forward $101 $-1 #
coedge $-1 $249 $103 $246 $250 forward $65 $-1 #
coedge $-1 $103 $249 $251 $252 forward $65 $-1 #
coedge $-1 $174 $173 $103 $167 reversed $175 $-1 #
edge $-1 $253 -23.292954735260995 $254 23.292954735260995 $166 $255 forward 7 unknown #
coedge $-1 $105 $104 $256 $257 forward $41 $-1 #
coedge $-1 $258 $259 $104 $170 reversed $243 $-1 #
edge $-1 $177 -48.894314401684625 $260 48.894314401684625 $169 $261 forward 7 unknown #
coedge $-1 $163 $262 $105 $172 reversed $101 $-1 #
edge $-1 $263 -48.894314401684625 $176 48.894314401684625 $171 $264 forward 7 unknown #
coedge $-1 $166 $106 $262 $265 forward $175 $-1 #
coedge $-1 $106 $166 $258 $266 reversed $175 $-1 #
loop $-1 $-1 $173 $242 #
vertex $-1 $107 $267 #
vertex $-1 $107 $268 #
straight-curve $-1 48.894314401684625 0 6.0336906400326029 0 1 0 I I #
face $-1 $269 $270 $25 $-1 $271 forward single #
loop $-1 $-1 $272 $108 #
plane-surface $-1 -48.894314401684625 0 0 1 0 0 0 0 -1 forward_v I I I I #
coedge $-1 $189 $273 $191 $274 forward $109 $-1 #
coedge $-1 $111 $191 $275 $276 reversed $69 $-1 #
coedge $-1 $277 $187 $111 $185 forward $278 $-1 #
edge $-1 $193 0.76684532001630146 $279 3.7668453200163015 $184 $280 forward 7 unknown #
coedge $-1 $113 $112 $272 $281 reversed $44 $-1 #
coedge $-1 $184 $282 $112 $188 forward $278 $-1 #
edge $-1 $283 -26.358975546205418 $193 -18.711702164752996 $187 $284 forward 7 unknown #
coedge $-1 $285 $182 $113 $190 forward $109 $-1 #
edge $-1 $192 18.711702164752996 $286 26.358975546205418 $189 $287 forward 7 unknown #
coedge $-1 $183 $114 $182 $274 reversed $69 $-1 #
vertex $-1 $190 $288 #
vertex $-1 $188 $289 #
straight-curve $-1 -41.247041020232203 0 3.0336906400326029 0 -1 0 I I #
face $-1 $-1 $290 $26 $-1 $291 reversed single #
loop $-1 $-1 $122 $116 #
plane-surface $-1 0 0 6.0336906400326029 0 0 1 1 0 0 forward_v I I I I #
coedge $-1 $292 $293 $120 $204 forward $117 $-1 #
coedge $-1 $200 $119 $121 $205 reversed $73 $-1 #
coedge $-1 $119 $199 $294 $295 reversed $73 $-1 #
coedge $-1 $296 $122 $119 $202 forward $196 $-1 #
edge $-1 $208 -29.31983550533954 $297 -25.25453053500944 $201 $298 forward 7 unknown #
coedge $-1 $121 $120 $299 $300 reversed $47 $-1 #
edge $-1 $301 -7.1286713052784156 $207 -0.93211756579386573 $198 $302 forward 7 unknown #
edge $-1 $303 -5.3472153159747578e-015 $208 6.1965537394845454 $199 $304 forward 7 unknown #
coedge $-1 $122 $296 $292 $305 forward $196 $-1 #
vertex $-1 $123 $306 #
vertex $-1 $123 $307 #
straight-curve $-1 21.961853266333655 -19.227649764930895 6.0336906400326029 -1 0 0 I I #
coedge $-1 $210 $210 $-1 $308 reversed $126 $-1 #
edge $-1 $309 0 $309 6.2831853071796004 $127 $310 forward 7 unknown #
vertex $-1 $130 $311 #
ellipse-curve $-1 43.92370653266731 -21.260302250095943 3.6953913785751791 0 -0.75470958851134928 0.65605901945558964 1.5 0 0 1 I I #
face $-1 $-1 $226 $28 $-1 $312 forward single #
loop $-1 $-1 $313 $131 #
plane-surface $-1 0 23.292954735260995 0 0 -1 0 0 0 -1 forward_v I I I I #
coedge $-1 $314 $315 $316 $317 reversed $132 $-1 #
coedge $-1 $318 $134 $136 $224 forward $82 $-1 #
coedge $-1 $134 $318 $314 $319 forward $82 $-1 #
coedge $-1 $316 $137 $134 $221 forward $226 $-1 #
edge $-1 $228 -18.559350654000031 $320 4.2641533365371878 $220 $321 forward 7 unknown #
coedge $-1 $322 $323 $135 $223 forward $215 $-1 #
edge $-1 $324 -48.468595743110363 $227 -43.242142527634307 $222 $325 forward 7 unknown #
edge $-1 $228 39.860720871426906 $324 46.585909470521976 $136 $326 forward 7 unknown #
coedge $-1 $137 $316 $322 $327 forward $226 $-1 #
loop $-1 $-1 $316 $214 #
vertex $-1 $223 $328 #
vertex $-1 $138 $329 #
straight-curve $-1 -25.706949312731453 34.985765603054553 6.0336906400326029 0 -1 0 I I #
coedge $-1 $230 $230 $-1 $330 reversed $141 $-1 #
edge $-1 $331 0 $331 6.2831853071796004 $142 $332 forward 7 unknown #
vertex $-1 $145 $333 #
ellipse-curve $-1 -21.142248514624008 21.176805610090568 3.4204640322945701 0 0.77714596973225614 0.62932038083071107 1 0 0 1 I I #
coedge $-1 $234 $234 $-1 $334 reversed $148 $-1 #
edge $-1 $335 0 $335 6.2831853071796004 $149 $336 forward 7 unknown #
vertex $-1 $152 $337 #
ellipse-curve $-1 -14.295197317462844 21.176805610090568 3.4204640322945701 0 0.77714596973225614 0.62932038083071107 1 0 0 1 I I #
coedge $-1 $238 $238 $-1 $338 reversed $155 $-1 #
edge $-1 $339 0 $339 6.2831853071796004 $156 $340 forward 7 unknown #
vertex $-1 $159 $341 #
ellipse-curve $-1 -7.4481461203016792 21.176805610090568 3.4204640322945701 0 0.77714596973225614 0.62932038083071107 1 0 0 1 I I #
face $-1 $-1 $175 $24 $-1 $342 reversed single #
loop $-1 $-1 $258 $160 #
plane-surface $-1 0 23.292954735260995 0 0 -1 0 0 0 -1 forward_v I I I I #
coedge $-1 $343 $256 $259 $344 forward $161 $-1 #
coedge $-1 $262 $163 $164 $250 reversed $101 $-1 #
coedge $-1 $256 $343 $163 $248 reversed $161 $-1 #
edge $-1 $263 -6.0336906400326029 $345 6.0336906400326029 $247 $346 forward 7 unknown #
coedge $-1 $165 $164 $343 $347 forward $65 $-1 #
edge $-1 $254 -48.894314401684625 $345 48.894314401684625 $246 $348 forward 7 unknown #
coedge $-1 $259 $258 $165 $252 reversed $243 $-1 #
edge $-1 $349 -48.894314401684625 $253 48.894314401684625 $251 $350 forward 7 unknown #
vertex $-1 $167 $351 #
vertex $-1 $265 $352 #
straight-curve $-1 48.894314401684625 0 -6.0336906400326029 0 -1 0 I I #
coedge $-1 $245 $247 $168 $257 reversed $161 $-1 #
edge $-1 $260 -23.292954735260995 $263 23.292954735260995 $256 $353 forward 7 unknown #
coedge $-1 $251 $169 $174 $266 forward $243 $-1 #
coedge $-1 $169 $251 $245 $344 reversed $243 $-1 #
vertex $-1 $170 $354 #
straight-curve $-1 0 23.292954735260995 6.0336906400326029 -1 0 0 I I #
coedge $-1 $171 $246 $173 $265 reversed $101 $-1 #
vertex $-1 $257 $355 #
straight-curve $-1 0 -23.292954735260995 6.0336906400326029 1 0 0 I I #
edge $-1 $176 -6.0336906400326029 $254 6.0336906400326029 $173 $356 forward 7 unknown #
edge $-1 $177 -6.0336906400326029 $253 6.0336906400326029 $174 $357 forward 7 unknown #
point $-1 48.894314401684625 -23.292954735260995 6.0336906400326029 #
point $-1 48.894314401684625 23.292954735260995 6.0336906400326029 #
face $-1 $-1 $278 $25 $-1 $358 reversed single #
loop $-1 $-1 $275 $179 #
plane-surface $-1 0 0 6.0336906400326029 0 0 1 1 0 0 forward_v I I I I #
coedge $-1 $359 $360 $186 $281 forward $180 $-1 #
coedge $-1 $182 $285 $361 $362 reversed $109 $-1 #
edge $-1 $363 -3.7668453200163015 $192 -0.76684532001630146 $182 $364 forward 7 unknown #
coedge $-1 $361 $365 $183 $276 forward $270 $-1 #
edge $-1 $279 -23.292954735260995 $363 23.292954735260995 $275 $366 forward 7 unknown #
coedge $-1 $282 $184 $365 $367 reversed $278 $-1 #
loop $-1 $-1 $184 $269 #
vertex $-1 $185 $368 #
straight-curve $-1 -41.247041020232203 -23.292954735260995 2.2668453200163015 0 0 1 I I #
edge $-1 $286 -23.292954735260995 $283 23.292954735260995 $272 $369 forward 7 unknown #
coedge $-1 $187 $277 $359 $370 forward $278 $-1 #
vertex $-1 $281 $371 #
straight-curve $-1 -22.535338855479207 -23.292954735260995 3.0336906400326029 1 0 0 I I #
coedge $-1 $273 $189 $360 $372 reversed $109 $-1 #
vertex $-1 $281 $373 #
straight-curve $-1 -22.535338855479207 23.292954735260995 3.0336906400326029 -1 0 0 I I #
point $-1 -41.247041020232203 23.292954735260995 3.0336906400326029 #
point $-1 -41.247041020232203 -23.292954735260995 3.0336906400326029 #
loop $-1 $-1 $299 $195 #
plane-surface $-1 0 -23.292954735260995 0 0 1 0 0 0 1 forward_v I I I I #
coedge $-1 $293 $198 $206 $305 reversed $117 $-1 #
coedge $-1 $198 $292 $374 $375 forward $117 $-1 #
coedge $-1 $299 $376 $200 $295 forward $290 $-1 #
edge $-1 $297 26.722411381848808 $303 31.399009904763655 $294 $377 forward 7 unknown #
coedge $-1 $206 $201 $376 $378 forward $196 $-1 #
vertex $-1 $378 $379 #
straight-curve $-1 38.953098663649996 -48.547485270270435 6.0336906400326029 0 -1 0 I I #
coedge $-1 $374 $294 $203 $300 forward $290 $-1 #
edge $-1 $303 16.991245397316341 $301 26.93246113535097 $299 $380 forward 7 unknown #
vertex $-1 $300 $381 #
straight-curve $-1 48.894314401684625 -18.616125628698839 6.7371687045570905 0 0.65605901945558975 0.75470958851134939 I I #
vertex $-1 $300 $382 #
straight-curve $-1 38.953098663649996 -23.292954735260992 1.3570921171177588 0 0.65605901945558964 0.75470958851134928 I I #
edge $-1 $383 -23.292954735260995 $207 -19.227649764930895 $292 $384 forward 7 unknown #
point $-1 48.894314401684625 -19.227649764930895 6.0336906400326029 #
point $-1 38.953098663649996 -19.227649764930895 6.0336906400326029 #
edge $-1 $385 1 $385 0 $210 $-1 forward 7 unknown #
vertex $-1 $211 $386 #
ellipse-curve $-1 43.92370653266731 -17.985444900381193 0.84860138886712977 0 -0.75470958851134928 0.65605901945558964 1.5 0 0 1 I I #
point $-1 45.42370653266731 -21.26030225009595 3.6953913785751853 #
plane-surface $-1 0 0 6.0336906400326029 0 0 1 1 0 0 forward_v I I I I #
coedge $-1 $323 $322 $315 $387 forward $215 $-1 #
coedge $-1 $315 $217 $219 $319 reversed $132 $-1 #
coedge $-1 $217 $314 $313 $387 reversed $132 $-1 #
coedge $-1 $225 $220 $217 $317 forward $226 $-1 #
edge $-1 $320 -15.925109118134426 $388 -11.692810867793558 $316 $389 forward 7 unknown #
coedge $-1 $219 $218 $323 $390 reversed $82 $-1 #
edge $-1 $391 -46.585909470521976 $320 -39.860720871426906 $314 $392 forward 7 unknown #
vertex $-1 $221 $393 #
straight-curve $-1 -7.1475986587314218 19.060656484920123 6.0336906400326065 1 0 0 I I #
coedge $-1 $313 $222 $225 $327 reversed $215 $-1 #
coedge $-1 $222 $313 $318 $390 forward $215 $-1 #
vertex $-1 $223 $394 #
straight-curve $-1 -25.706949312731453 23.292954735260995 49.27583316766691 0 0 1 I I #
straight-curve $-1 -25.706949312731453 -6.024507554072926 37.011289215884446 0 0.62932038083071107 -0.77714596973225614 I I #
edge $-1 $388 2.883445322194234 $227 25.706949312731453 $322 $395 forward 7 unknown #
point $-1 -25.706949312731453 23.292954735260995 6.0336906400326029 #
point $-1 -25.706949312731453 19.060656484920127 6.0336906400325994 #
edge $-1 $396 1 $396 0 $230 $-1 forward 7 unknown #
vertex $-1 $231 $397 #
ellipse-curve $-1 -21.142248514624008 19.105262275811427 1.7429613612262136 0 0.77714596973225614 0.62932038083071107 1 0 0 1 I I #
point $-1 -20.142248514624008 21.176805610090565 3.4204640322945687 #
edge $-1 $398 1 $398 0 $234 $-1 forward 7 unknown #
vertex $-1 $235 $399 #
ellipse-curve $-1 -14.295197317462844 19.105262275811427 1.7429613612262136 0 0.77714596973225614 0.62932038083071107 1 0 0 1 I I #
point $-1 -13.295197317462844 21.176805610090565 3.4204640322945687 #
edge $-1 $400 1 $400 0 $238 $-1 forward 7 unknown #
vertex $-1 $239 $401 #
ellipse-curve $-1 -7.4481461203016792 19.105262275811427 1.7429613612262136 0 0.77714596973225614 0.62932038083071107 1 0 0 1 I I #
point $-1 -6.4481461203016792 21.176805610090565 3.4204640322945687 #
plane-surface $-1 48.894314401684625 0 0 -1 0 0 0 0 1 forward_v I I I I #
coedge $-1 $247 $245 $249 $347 reversed $161 $-1 #
edge $-1 $260 -6.0336906400326029 $349 6.0336906400326029 $259 $402 forward 7 unknown #
vertex $-1 $347 $403 #
straight-curve $-1 -48.894314401684625 -23.292954735260995 0 0 0 -1 I I #
edge $-1 $345 -23.292954735260995 $349 23.292954735260995 $343 $404 forward 7 unknown #
straight-curve $-1 0 -23.292954735260995 -6.0336906400326029 -1 0 0 I I #
vertex $-1 $252 $405 #
straight-curve $-1 0 23.292954735260995 -6.0336906400326029 1 0 0 I I #
point $-1 48.894314401684625 23.292954735260995 -6.0336906400326029 #
point $-1 48.894314401684625 -23.292954735260995 -6.0336906400326029 #
straight-curve $-1 -48.894314401684625 0 6.0336906400326029 0 -1 0 I I #
point $-1 -48.894314401684625 23.292954735260995 6.0336906400326029 #
point $-1 -48.894314401684625 -23.292954735260995 6.0336906400326029 #
straight-curve $-1 48.894314401684625 -23.292954735260995 0 0 0 -1 I I #
straight-curve $-1 48.894314401684625 23.292954735260995 0 0 0 -1 I I #
plane-surface $-1 0 -23.292954735260995 0 0 1 0 0 0 1 forward_v I I I I #
coedge $-1 $406 $272 $282 $370 reversed $180 $-1 #
coedge $-1 $272 $406 $285 $372 forward $180 $-1 #
coedge $-1 $407 $275 $273 $362 forward $270 $-1 #
edge $-1 $363 41.247041020232203 $408 48.894314401684625 $273 $409 forward 7 unknown #
vertex $-1 $362 $410 #
straight-curve $-1 -41.247041020232203 23.292954735260995 2.2668453200163015 0 0 -1 I I #
coedge $-1 $275 $407 $277 $367 forward $270 $-1 #
straight-curve $-1 -41.247041020232203 0 6.0336906400326029 0 1 0 I I #
edge $-1 $411 -48.894314401684625 $279 -41.247041020232203 $277 $412 forward 7 unknown #
point $-1 -41.247041020232203 -23.292954735260995 6.0336906400326029 #
straight-curve $-1 -48.894314401684625 0 3.0336906400326029 0 -1 0 I I #
edge $-1 $411 -6.0336906400326029 $283 -3.0336906400326029 $359 $413 forward 7 unknown #
point $-1 -48.894314401684625 -23.292954735260995 3.0336906400326029 #
edge $-1 $408 -6.0336906400326029 $286 -3.0336906400326029 $285 $414 forward 7 unknown #
point $-1 -48.894314401684625 23.292954735260995 3.0336906400326029 #
coedge $-1 $376 $299 $293 $375 reversed $290 $-1 #
edge $-1 $383 -6.0336906400326029 $301 -1.3570921171177548 $293 $415 forward 7 unknown #
coedge $-1 $294 $374 $296 $378 reversed $290 $-1 #
straight-curve $-1 38.953098663649996 -23.292954735260999 32.756102021881411 0 0 -1 I I #
edge $-1 $297 38.953098663649996 $383 48.894314401684625 $376 $416 forward 7 unknown #
point $-1 38.953098663649996 -23.292954735260995 6.0336906400326029 #
straight-curve $-1 21.961853266333655 -23.292954735260995 1.3570921171177539 1 0 0 I I #
point $-1 48.894314401684625 -23.292954735260995 1.3570921171177548 #
point $-1 38.953098663649996 -23.292954735260995 1.3570921171177548 #
vertex $-1 $305 $417 #
straight-curve $-1 48.894314401684625 0 6.0336906400326029 0 1 0 I I #
vertex $-1 $308 $418 #
point $-1 45.42370653266731 -17.985444900381193 0.84860138886712977 #
edge $-1 $388 43.242142527634307 $391 48.468595743110363 $313 $419 forward 7 unknown #
vertex $-1 $327 $420 #
straight-curve $-1 -2.883445322194234 34.985765603054553 6.0336906400326029 0 1 0 I I #
edge $-1 $391 -4.2641533365371878 $324 18.559350654000031 $323 $421 forward 7 unknown #
vertex $-1 $390 $422 #
straight-curve $-1 -2.883445322194234 -6.024507554072926 37.011289215884446 0 -0.62932038083071107 0.77714596973225614 I I #
point $-1 -2.883445322194234 19.060656484920127 6.0336906400325994 #
point $-1 -25.706949312731453 23.292954735260992 0.80723742455654701 #
straight-curve $-1 0 23.292954735260995 6.0336906400326029 -1 0 0 I I #
vertex $-1 $330 $423 #
point $-1 -20.142248514624008 19.105262275811427 1.7429613612262136 #
vertex $-1 $334 $424 #
point $-1 -13.295197317462844 19.105262275811427 1.7429613612262136 #
vertex $-1 $338 $425 #
point $-1 -6.4481461203016792 19.105262275811427 1.7429613612262136 #
straight-curve $-1 -48.894314401684625 23.292954735260995 0 0 0 -1 I I #
point $-1 -48.894314401684625 -23.292954735260995 -6.0336906400326029 #
straight-curve $-1 -48.894314401684625 0 -6.0336906400326029 0 1 0 I I #
point $-1 -48.894314401684625 23.292954735260995 -6.0336906400326029 #
coedge $-1 $360 $359 $407 $426 reversed $180 $-1 #
coedge $-1 $365 $361 $406 $426 forward $270 $-1 #
vertex $-1 $362 $427 #
straight-curve $-1 0 23.292954735260995 6.0336906400326029 -1 0 0 I I #
point $-1 -41.247041020232203 23.292954735260995 6.0336906400326029 #
vertex $-1 $426 $428 #
straight-curve $-1 0 -23.292954735260995 6.0336906400326029 1 0 0 I I #
straight-curve $-1 -48.894314401684625 -23.292954735260995 0 0 0 -1 I I #
straight-curve $-1 -48.894314401684625 23.292954735260995 0 0 0 -1 I I #
straight-curve $-1 48.894314401684625 -23.292954735260995 0 0 0 -1 I I #
straight-curve $-1 0 -23.292954735260995 6.0336906400326029 1 0 0 I I #
point $-1 48.894314401684625 -23.292954735260995 6.0336906400326029 #
point $-1 43.92370653266731 -16.853380517614166 -0.13548714031625475 #
straight-curve $-1 -2.883445322194234 23.292954735260995 49.27583316766691 0 0 -1 I I #
point $-1 -2.883445322194234 23.292954735260995 6.0336906400326029 #
straight-curve $-1 -7.1475986587314218 23.292954735260995 0.80723742455654701 -1 0 0 I I #
point $-1 -2.883445322194234 23.292954735260992 0.80723742455654701 #
point $-1 -21.142248514624008 18.328116306079174 1.1136409803955027 #
point $-1 -14.295197317462844 18.328116306079174 1.1136409803955027 #
point $-1 -7.4481461203016792 18.328116306079174 1.1136409803955027 #
edge $-1 $408 -23.292954735260995 $411 23.292954735260995 $406 $429 forward 7 unknown #
point $-1 -48.894314401684625 23.292954735260995 6.0336906400326029 #
point $-1 -48.894314401684625 -23.292954735260995 6.0336906400326029 #
straight-curve $-1 -48.894314401684625 0 6.0336906400326029 0 -1 0 I I #
End-of-ACIS-data 