500 0 19 0           
7 Unknown 11 ACIS 5.0 NT 24 Fri Mar 26 01:22:32 1999 
-1 9.9999999999999995e-007 1e-010 
body $-1 $19 $-1 $20 #
body $-1 $21 $-1 $22 #
body $-1 $23 $-1 $24 #
body $-1 $25 $-1 $26 #
body $-1 $27 $-1 $28 #
body $-1 $29 $-1 $30 #
body $-1 $31 $-1 $32 #
body $-1 $33 $-1 $34 #
body $-1 $35 $-1 $36 #
body $-1 $37 $-1 $38 #
body $-1 $39 $-1 $40 #
body $-1 $41 $-1 $42 #
body $-1 $43 $-1 $44 #
body $-1 $45 $-1 $46 #
body $-1 $47 $-1 $48 #
body $-1 $49 $-1 $50 #
body $-1 $51 $-1 $52 #
body $-1 $53 $-1 $54 #
body $-1 $55 $-1 $56 #
lump $-1 $-1 $57 $0 #
transform $-1 1 0 0 0 1 0 0 0 1 62.649616992706072 42.673132624241077 14.171199458317188 1 rotate no_reflect no_shear #
lump $-1 $-1 $58 $1 #
transform $-1 1 0 0 0 1 0 0 0 1 62.649616992706072 42.673132624241077 14.171199458317188 1 rotate no_reflect no_shear #
lump $-1 $-1 $59 $2 #
transform $-1 1 0 0 0 1 0 0 0 1 62.649616992706072 42.673132624241077 14.171199458317188 1 rotate no_reflect no_shear #
lump $-1 $-1 $60 $3 #
transform $-1 1 0 0 0 1 0 0 0 1 62.649616992706072 42.673132624241077 14.171199458317188 1 rotate no_reflect no_shear #
lump $-1 $-1 $61 $4 #
transform $-1 1 0 0 0 1 0 0 0 1 62.649616992706072 42.673132624241077 14.171199458317188 1 rotate no_reflect no_shear #
lump $-1 $-1 $62 $5 #
transform $-1 1 0 0 0 1 0 0 0 1 62.649616992706072 42.673132624241077 14.171199458317188 1 rotate no_reflect no_shear #
lump $-1 $-1 $63 $6 #
transform $-1 1 0 0 0 1 0 0 0 1 62.649616992706072 42.673132624241077 14.171199458317188 1 rotate no_reflect no_shear #
lump $-1 $-1 $64 $7 #
transform $-1 1 0 0 0 1 0 0 0 1 62.649616992706072 42.673132624241077 14.171199458317188 1 rotate no_reflect no_shear #
lump $-1 $-1 $65 $8 #
transform $-1 1 0 0 0 1 0 0 0 1 62.649616992706072 42.673132624241077 14.171199458317188 1 rotate no_reflect no_shear #
lump $-1 $-1 $66 $9 #
transform $-1 1 0 0 0 1 0 0 0 1 62.649616992706072 42.673132624241077 14.171199458317188 1 rotate no_reflect no_shear #
lump $-1 $-1 $67 $10 #
transform $-1 1 0 0 0 1 0 0 0 1 62.649616992706072 42.673132624241077 14.171199458317188 1 rotate no_reflect no_shear #
lump $-1 $-1 $68 $11 #
transform $-1 1 0 0 0 1 0 0 0 1 62.649616992706072 42.673132624241077 14.171199458317188 1 rotate no_reflect no_shear #
lump $-1 $-1 $69 $12 #
transform $-1 1 0 0 0 1 0 0 0 1 62.649616992706072 42.673132624241077 14.171199458317188 1 rotate no_reflect no_shear #
lump $-1 $-1 $70 $13 #
transform $-1 1 0 0 0 1 0 0 0 1 62.649616992706072 42.673132624241077 14.171199458317188 1 rotate no_reflect no_shear #
lump $-1 $-1 $71 $14 #
transform $-1 1 0 0 0 1 0 0 0 1 62.649616992706072 42.673132624241077 14.171199458317188 1 rotate no_reflect no_shear #
lump $-1 $-1 $72 $15 #
transform $-1 1 0 0 0 1 0 0 0 1 62.649616992706072 42.673132624241077 14.171199458317188 1 rotate no_reflect no_shear #
lump $-1 $-1 $73 $16 #
transform $-1 1 0 0 0 1 0 0 0 1 62.649616992706072 42.673132624241077 14.171199458317188 1 rotate no_reflect no_shear #
lump $-1 $-1 $74 $17 #
transform $-1 1 0 0 0 1 0 0 0 1 62.649616992706072 42.673132624241077 14.171199458317188 1 rotate no_reflect no_shear #
lump $-1 $-1 $75 $18 #
transform $-1 1 0 0 0 1 0 0 0 1 62.649616992706072 42.673132624241077 14.171199458317188 1 rotate no_reflect no_shear #
shell $-1 $-1 $-1 $76 $-1 $19 #
shell $-1 $-1 $-1 $77 $-1 $21 #
shell $-1 $-1 $-1 $78 $-1 $23 #
shell $-1 $-1 $-1 $79 $-1 $25 #
shell $-1 $-1 $-1 $80 $-1 $27 #
shell $-1 $-1 $-1 $81 $-1 $29 #
shell $-1 $-1 $-1 $82 $-1 $31 #
shell $-1 $-1 $-1 $83 $-1 $33 #
shell $-1 $-1 $-1 $84 $-1 $35 #
shell $-1 $-1 $-1 $85 $-1 $37 #
shell $-1 $-1 $-1 $86 $-1 $39 #
shell $-1 $-1 $-1 $87 $-1 $41 #
shell $-1 $-1 $-1 $88 $-1 $43 #
shell $-1 $-1 $-1 $89 $-1 $45 #
shell $-1 $-1 $-1 $90 $-1 $47 #
shell $-1 $-1 $-1 $91 $-1 $49 #
shell $-1 $-1 $-1 $92 $-1 $51 #
shell $-1 $-1 $-1 $93 $-1 $53 #
shell $-1 $-1 $-1 $94 $-1 $55 #
face $-1 $95 $96 $57 $-1 $97 forward single #
face $-1 $98 $99 $58 $-1 $100 forward single #
face $-1 $101 $102 $59 $-1 $103 forward single #
face $-1 $104 $105 $60 $-1 $106 reversed single #
face $-1 $107 $108 $61 $-1 $109 forward single #
face $-1 $110 $111 $62 $-1 $112 forward single #
face $-1 $113 $114 $63 $-1 $115 forward single #
face $-1 $116 $117 $64 $-1 $118 reversed single #
face $-1 $119 $120 $65 $-1 $121 forward single #
face $-1 $122 $123 $66 $-1 $124 forward single #
face $-1 $125 $126 $67 $-1 $127 reversed single #
face $-1 $128 $129 $68 $-1 $130 forward single #
face $-1 $131 $132 $69 $-1 $133 forward single #
face $-1 $134 $135 $70 $-1 $136 reversed single #
face $-1 $137 $138 $71 $-1 $139 forward single #
face $-1 $140 $141 $72 $-1 $142 forward single #
face $-1 $143 $144 $73 $-1 $145 reversed single #
face $-1 $146 $147 $74 $-1 $148 forward single #
face $-1 $149 $150 $75 $-1 $151 forward single #
face $-1 $152 $153 $57 $-1 $154 reversed single #
loop $-1 $-1 $155 $76 #
plane-surface $-1 0 0 14.171199458317188 0 0 1 1 0 0 forward_v I I I I #
face $-1 $156 $157 $58 $-1 $158 reversed single #
loop $-1 $-1 $159 $77 #
plane-surface $-1 -62.649616992706072 0 0 1 0 0 0 0 -1 forward_v I I I I #
face $-1 $160 $161 $59 $-1 $162 reversed single #
loop $-1 $-1 $163 $78 #
plane-surface $-1 62.649616992706072 0 0 -1 0 0 0 0 1 forward_v I I I I #
face $-1 $164 $165 $60 $-1 $166 reversed single #
loop $-1 $-1 $167 $79 #
plane-surface $-1 -20.127473050817937 91.378887632142494 146.58678033904494 1 0 0 0 -0.79863551827123203 -0.60181501223851219 forward_v I I I I #
face $-1 $168 $169 $61 $-1 $170 forward single #
loop $-1 $171 $172 $80 #
cone-surface $-1 -17.264391672802738 37.666171219123719 7.9884932583840067 0 -0.79863551827123203 -0.60181501223851219 1 0 0 1 I I 0 1 1 forward I I I I #
face $-1 $173 $174 $62 $-1 $175 forward single #
loop $-1 $176 $177 $81 #
cone-surface $-1 -12.969769605779945 37.666171219123719 7.9884932583840067 0 -0.79863551827123203 -0.60181501223851219 1 0 0 1 I I 0 1 1 forward I I I I #
face $-1 $178 $179 $63 $-1 $180 forward single #
loop $-1 $181 $182 $82 #
cone-surface $-1 -8.6751475387571446 37.666171219123719 7.9884932583840067 0 -0.79863551827123203 -0.60181501223851219 1 0 0 1 I I 0 1 1 forward I I I I #
face $-1 $183 $184 $64 $-1 $185 reversed single #
loop $-1 $-1 $186 $83 #
plane-surface $-1 -32.924606609013061 -135.78861103440903 88.18225109585758 -1 0 0 0 -0.74314483375859142 0.66913059716165679 forward_v I I I I #
face $-1 $187 $188 $65 $-1 $189 forward single #
loop $-1 $190 $191 $84 #
cone-surface $-1 -43.961257432701686 -37.086086607601679 8.2102786559259986 0 0.74314483375859142 -0.66913059716165679 1 0 0 1 I I 0 1 1 forward I I I I #
face $-1 $192 $193 $66 $-1 $194 forward single #
loop $-1 $195 $196 $85 #
cone-surface $-1 -37.339266938488514 -37.086086607601679 8.2102786559259986 0 0.74314483375859142 -0.66913059716165679 1 0 0 1 I I 0 1 1 forward I I I I #
face $-1 $197 $198 $67 $-1 $199 reversed single #
loop $-1 $-1 $200 $86 #
plane-surface $-1 -7.2129632071011702 -135.78861103440903 88.18225109585758 -1 0 0 0 -0.74314483375859142 0.66913059716165679 forward_v I I I I #
face $-1 $201 $202 $68 $-1 $203 forward single #
loop $-1 $204 $205 $87 #
cone-surface $-1 -18.249614030789793 -37.086086607601679 8.2102786559259986 0 0.74314483375859142 -0.66913059716165679 1 0 0 1 I I 0 1 1 forward I I I I #
face $-1 $206 $207 $69 $-1 $208 forward single #
loop $-1 $209 $210 $88 #
cone-surface $-1 -11.627623536576621 -37.086086607601679 8.2102786559259986 0 0.74314483375859142 -0.66913059716165679 1 0 0 1 I I 0 1 1 forward I I I I #
face $-1 $211 $212 $70 $-1 $213 reversed single #
loop $-1 $-1 $214 $89 #
plane-surface $-1 18.498680194810731 -135.78861103440903 88.18225109585758 -1 0 0 0 -0.74314483375859142 0.66913059716165679 forward_v I I I I #
face $-1 $215 $216 $71 $-1 $217 forward single #
loop $-1 $218 $219 $90 #
cone-surface $-1 7.4620293711220995 -37.086086607601679 8.2102786559259986 0 0.74314483375859142 -0.66913059716165679 1 0 0 1 I I 0 1 1 forward I I I I #
face $-1 $220 $221 $72 $-1 $222 forward single #
loop $-1 $223 $224 $91 #
cone-surface $-1 14.084019865335279 -37.086086607601679 8.2102786559259986 0 0.74314483375859142 -0.66913059716165679 1 0 0 1 I I 0 1 1 forward I I I I #
face $-1 $225 $226 $73 $-1 $227 reversed single #
loop $-1 $-1 $228 $92 #
plane-surface $-1 44.210323596722631 -135.78861103440903 88.18225109585758 -1 0 0 0 -0.74314483375859142 0.66913059716165679 forward_v I I I I #
face $-1 $229 $230 $74 $-1 $231 forward single #
loop $-1 $232 $233 $93 #
cone-surface $-1 33.173672773033999 -37.086086607601679 8.2102786559259986 0 0.74314483375859142 -0.66913059716165679 1 0 0 1 I I 0 1 1 forward I I I I #
face $-1 $234 $235 $75 $-1 $236 forward single #
loop $-1 $237 $238 $94 #
cone-surface $-1 39.795663267247178 -37.086086607601679 8.2102786559259986 0 0.74314483375859142 -0.66913059716165679 1 0 0 1 I I 0 1 1 forward I I I I #
face $-1 $239 $240 $57 $-1 $241 reversed single #
loop $-1 $-1 $242 $95 #
plane-surface $-1 0 0 -14.171199458317188 0 0 1 1 0 0 forward_v I I I I #
coedge $-1 $243 $244 $245 $246 forward $96 $-1 #
face $-1 $247 $248 $58 $-1 $249 forward single #
loop $-1 $-1 $250 $98 #
plane-surface $-1 0 42.673132624241077 0 0 -1 0 0 0 -1 forward_v I I I I #
coedge $-1 $251 $252 $253 $254 forward $99 $-1 #
face $-1 $255 $256 $59 $-1 $257 forward single #
loop $-1 $-1 $258 $101 #
plane-surface $-1 0 -42.673132624241077 0 0 1 0 0 0 1 forward_v I I I I #
coedge $-1 $259 $260 $261 $262 forward $102 $-1 #
face $-1 $263 $264 $60 $-1 $265 reversed single #
loop $-1 $-1 $266 $104 #
plane-surface $-1 -12.969769605779945 -8.6895310407855106 71.179820304637914 0 0.79863551827123203 0.60181501223851219 1 0 0 forward_v I I I I #
coedge $-1 $267 $268 $269 $270 reversed $105 $-1 #
face $-1 $-1 $271 $61 $-1 $272 forward single #
loop $-1 $273 $274 $107 #
cone-surface $-1 -17.264391672802738 36.461685933327431 7.0808485187890202 0 -0.79863551827123203 -0.60181501223851219 0.5 0 0 1 I I -0.70710678118654746 0.70710678118654746 0.5 forward I I I I #
loop $-1 $-1 $275 $80 #
coedge $-1 $172 $172 $276 $277 reversed $108 $-1 #
face $-1 $-1 $278 $62 $-1 $279 forward single #
loop $-1 $280 $281 $110 #
cone-surface $-1 -12.969769605779945 36.461685933327431 7.0808485187890202 0 -0.79863551827123203 -0.60181501223851219 0.5 0 0 1 I I -0.70710678118654746 0.70710678118654746 0.5 forward I I I I #
loop $-1 $-1 $282 $81 #
coedge $-1 $177 $177 $283 $284 reversed $111 $-1 #
face $-1 $-1 $285 $63 $-1 $286 forward single #
loop $-1 $287 $288 $113 #
cone-surface $-1 -8.6751475387571446 36.461685933327431 7.0808485187890202 0 -0.79863551827123203 -0.60181501223851219 0.5 0 0 1 I I -0.70710678118654746 0.70710678118654746 0.5 forward I I I I #
loop $-1 $-1 $289 $82 #
coedge $-1 $182 $182 $290 $291 reversed $114 $-1 #
face $-1 $292 $293 $64 $-1 $294 reversed single #
loop $-1 $-1 $295 $116 #
plane-surface $-1 -40.650262185595103 -42.673132624241077 4.3406998353005974 0 -0.74314483375859142 0.66913059716165679 1 0 0 forward_v I I I I #
coedge $-1 $296 $297 $298 $299 reversed $117 $-1 #
face $-1 $-1 $300 $65 $-1 $301 forward single #
loop $-1 $302 $303 $119 #
cone-surface $-1 -43.961257432701686 -35.553178872950156 6.8300423664622745 0 0.74314483375859142 -0.66913059716165679 0.5 0 0 1 I I -0.70710678118654746 0.70710678118654746 0.5 forward I I I I #
loop $-1 $-1 $304 $84 #
coedge $-1 $191 $191 $305 $306 reversed $120 $-1 #
face $-1 $-1 $307 $66 $-1 $308 forward single #
loop $-1 $309 $310 $122 #
cone-surface $-1 -37.339266938488514 -35.553178872950156 6.8300423664622745 0 0.74314483375859142 -0.66913059716165679 0.5 0 0 1 I I -0.70710678118654746 0.70710678118654746 0.5 forward I I I I #
loop $-1 $-1 $311 $85 #
coedge $-1 $196 $196 $312 $313 reversed $123 $-1 #
face $-1 $314 $315 $67 $-1 $316 reversed single #
loop $-1 $-1 $317 $125 #
plane-surface $-1 -14.938618783683211 -42.673132624241077 4.3406998353005974 0 -0.74314483375859142 0.66913059716165679 1 0 0 forward_v I I I I #
coedge $-1 $318 $319 $320 $321 reversed $126 $-1 #
face $-1 $-1 $322 $68 $-1 $323 forward single #
loop $-1 $324 $325 $128 #
cone-surface $-1 -18.249614030789793 -35.553178872950156 6.8300423664622745 0 0.74314483375859142 -0.66913059716165679 0.5 0 0 1 I I -0.70710678118654746 0.70710678118654746 0.5 forward I I I I #
loop $-1 $-1 $326 $87 #
coedge $-1 $205 $205 $327 $328 reversed $129 $-1 #
face $-1 $-1 $329 $69 $-1 $330 forward single #
loop $-1 $331 $332 $131 #
cone-surface $-1 -11.627623536576621 -35.553178872950156 6.8300423664622745 0 0.74314483375859142 -0.66913059716165679 0.5 0 0 1 I I -0.70710678118654746 0.70710678118654746 0.5 forward I I I I #
loop $-1 $-1 $333 $88 #
coedge $-1 $210 $210 $334 $335 reversed $132 $-1 #
face $-1 $336 $337 $70 $-1 $338 reversed single #
loop $-1 $-1 $339 $134 #
plane-surface $-1 10.773024618228689 -42.673132624241077 4.3406998353005974 0 -0.74314483375859142 0.66913059716165679 1 0 0 forward_v I I I I #
coedge $-1 $340 $341 $342 $343 reversed $135 $-1 #
face $-1 $-1 $344 $71 $-1 $345 forward single #
loop $-1 $346 $347 $137 #
cone-surface $-1 7.4620293711220995 -35.553178872950156 6.8300423664622745 0 0.74314483375859142 -0.66913059716165679 0.5 0 0 1 I I -0.70710678118654746 0.70710678118654746 0.5 forward I I I I #
loop $-1 $-1 $348 $90 #
coedge $-1 $219 $219 $349 $350 reversed $138 $-1 #
face $-1 $-1 $351 $72 $-1 $352 forward single #
loop $-1 $353 $354 $140 #
cone-surface $-1 14.084019865335279 -35.553178872950156 6.8300423664622745 0 0.74314483375859142 -0.66913059716165679 0.5 0 0 1 I I -0.70710678118654746 0.70710678118654746 0.5 forward I I I I #
loop $-1 $-1 $355 $91 #
coedge $-1 $224 $224 $356 $357 reversed $141 $-1 #
face $-1 $358 $359 $73 $-1 $360 reversed single #
loop $-1 $-1 $361 $143 #
plane-surface $-1 36.484668020140589 -42.673132624241077 4.3406998353005974 0 -0.74314483375859142 0.66913059716165679 1 0 0 forward_v I I I I #
coedge $-1 $362 $363 $364 $365 reversed $144 $-1 #
face $-1 $-1 $366 $74 $-1 $367 forward single #
loop $-1 $368 $369 $146 #
cone-surface $-1 33.173672773033999 -35.553178872950156 6.8300423664622745 0 0.74314483375859142 -0.66913059716165679 0.5 0 0 1 I I -0.70710678118654746 0.70710678118654746 0.5 forward I I I I #
loop $-1 $-1 $370 $93 #
coedge $-1 $233 $233 $371 $372 reversed $147 $-1 #
face $-1 $-1 $373 $75 $-1 $374 forward single #
loop $-1 $375 $376 $149 #
cone-surface $-1 39.795663267247178 -35.553178872950156 6.8300423664622745 0 0.74314483375859142 -0.66913059716165679 0.5 0 0 1 I I -0.70710678118654746 0.70710678118654746 0.5 forward I I I I #
loop $-1 $-1 $377 $94 #
coedge $-1 $238 $238 $378 $379 reversed $150 $-1 #
face $-1 $380 $381 $57 $-1 $382 reversed single #
loop $-1 $-1 $383 $152 #
plane-surface $-1 0 -42.673132624241077 0 0 1 0 0 0 1 forward_v I I I I #
coedge $-1 $384 $385 $386 $387 forward $153 $-1 #
coedge $-1 $388 $155 $389 $390 forward $96 $-1 #
coedge $-1 $155 $388 $391 $392 forward $96 $-1 #
coedge $-1 $393 $394 $155 $246 reversed $395 $-1 #
edge $-1 $396 -42.673132624241077 $397 42.673132624241077 $245 $398 forward 7 unknown #
face $-1 $399 $400 $58 $-1 $401 reversed single #
loop $-1 $-1 $253 $156 #
plane-surface $-1 -68.262782087147215 0 -2.0235130740669018 0 0 1 1 0 0 forward_v I I I I #
coedge $-1 $402 $403 $252 $404 forward $157 $-1 #
coedge $-1 $405 $159 $406 $407 reversed $99 $-1 #
coedge $-1 $159 $405 $250 $404 reversed $99 $-1 #
coedge $-1 $408 $409 $159 $254 reversed $248 $-1 #
edge $-1 $410 -42.673132624241077 $411 42.673132624241077 $253 $412 forward 7 unknown #
face $-1 $413 $414 $59 $-1 $415 reversed single #
loop $-1 $-1 $416 $160 #
plane-surface $-1 68.262782087147215 0 -2.0235130740669018 0 0 1 1 0 0 forward_v I I I I #
coedge $-1 $417 $418 $260 $419 forward $161 $-1 #
coedge $-1 $420 $163 $421 $422 reversed $102 $-1 #
coedge $-1 $163 $420 $258 $419 reversed $102 $-1 #
coedge $-1 $423 $424 $163 $262 reversed $256 $-1 #
edge $-1 $425 -42.673132624241077 $426 42.673132624241077 $261 $427 forward 7 unknown #
face $-1 $428 $429 $60 $-1 $430 reversed single #
loop $-1 $-1 $431 $164 #
plane-surface $-1 -5.8120661607419528 91.378887632142494 146.58678033904494 -1 0 0 0 0.79863551827123203 0.60181501223851219 forward_v I I I I #
coedge $-1 $432 $433 $434 $435 reversed $165 $-1 #
coedge $-1 $268 $167 $436 $437 reversed $105 $-1 #
coedge $-1 $167 $267 $432 $438 reversed $105 $-1 #
coedge $-1 $434 $439 $167 $270 forward $440 $-1 #
edge $-1 $441 3.0163111918301695 $442 11.419898948743523 $269 $443 forward 7 unknown #
loop $-1 $-1 $276 $168 #
plane-surface $-1 -12.969769605779945 -8.6895310407855106 71.179820304637914 0 0.79863551827123203 0.60181501223851219 1 0 0 forward_v I I I I #
loop $-1 $-1 $444 $107 #
coedge $-1 $274 $274 $275 $445 reversed $169 $-1 #
coedge $-1 $275 $275 $274 $445 forward $171 $-1 #
coedge $-1 $276 $276 $172 $277 forward $271 $-1 #
edge $-1 $446 1.358158094167149e-015 $446 6.2831853071796022 $276 $447 forward 7 unknown #
loop $-1 $-1 $283 $173 #
plane-surface $-1 -12.969769605779945 -8.6895310407855106 71.179820304637914 0 0.79863551827123203 0.60181501223851219 1 0 0 forward_v I I I I #
loop $-1 $-1 $448 $110 #
coedge $-1 $281 $281 $282 $449 reversed $174 $-1 #
coedge $-1 $282 $282 $281 $449 forward $176 $-1 #
coedge $-1 $283 $283 $177 $284 forward $278 $-1 #
edge $-1 $450 1.358158094167149e-015 $450 6.2831853071796022 $283 $451 forward 7 unknown #
loop $-1 $-1 $290 $178 #
plane-surface $-1 -12.969769605779945 -8.6895310407855106 71.179820304637914 0 0.79863551827123203 0.60181501223851219 1 0 0 forward_v I I I I #
loop $-1 $-1 $452 $113 #
coedge $-1 $288 $288 $289 $453 reversed $179 $-1 #
coedge $-1 $289 $289 $288 $453 forward $181 $-1 #
coedge $-1 $290 $290 $182 $291 forward $285 $-1 #
edge $-1 $454 1.358158094167149e-015 $454 6.2831853071796022 $290 $455 forward 7 unknown #
face $-1 $456 $457 $64 $-1 $458 forward single #
loop $-1 $-1 $459 $183 #
plane-surface $-1 -48.375917762177146 -135.78861103440903 88.18225109585758 1 0 0 0 0.74314483375859142 -0.66913059716165679 forward_v I I I I #
coedge $-1 $460 $461 $462 $463 reversed $184 $-1 #
coedge $-1 $297 $186 $464 $465 reversed $117 $-1 #
coedge $-1 $186 $296 $460 $466 reversed $117 $-1 #
coedge $-1 $462 $467 $186 $299 forward $457 $-1 #
edge $-1 $468 25.221172892963438 $469 34.072594290697786 $298 $470 forward 7 unknown #
loop $-1 $-1 $305 $187 #
plane-surface $-1 -40.650262185595103 -42.673132624241077 4.3406998353005974 0 -0.74314483375859142 0.66913059716165679 1 0 0 forward_v I I I I #
loop $-1 $-1 $471 $119 #
coedge $-1 $303 $303 $304 $472 reversed $188 $-1 #
coedge $-1 $304 $304 $303 $472 forward $190 $-1 #
coedge $-1 $305 $305 $191 $306 forward $300 $-1 #
edge $-1 $473 1.320090408112036e-015 $473 6.2831853071796013 $305 $474 forward 7 unknown #
loop $-1 $-1 $312 $192 #
plane-surface $-1 -40.650262185595103 -42.673132624241077 4.3406998353005974 0 -0.74314483375859142 0.66913059716165679 1 0 0 forward_v I I I I #
loop $-1 $-1 $475 $122 #
coedge $-1 $310 $310 $311 $476 reversed $193 $-1 #
coedge $-1 $311 $311 $310 $476 forward $195 $-1 #
coedge $-1 $312 $312 $196 $313 forward $307 $-1 #
edge $-1 $477 1.320090408112036e-015 $477 6.2831853071796013 $312 $478 forward 7 unknown #
face $-1 $479 $480 $67 $-1 $481 reversed single #
loop $-1 $-1 $482 $197 #
plane-surface $-1 -22.664274360265253 -135.78861103440903 88.18225109585758 1 0 0 0 0.74314483375859142 -0.66913059716165679 forward_v I I I I #
coedge $-1 $483 $484 $485 $486 reversed $198 $-1 #
coedge $-1 $319 $200 $487 $488 reversed $126 $-1 #
coedge $-1 $200 $318 $483 $489 reversed $126 $-1 #
coedge $-1 $485 $490 $200 $321 forward $491 $-1 #
edge $-1 $492 25.221172892963438 $493 34.072594290697786 $320 $494 forward 7 unknown #
loop $-1 $-1 $327 $201 #
plane-surface $-1 -14.938618783683211 -42.673132624241077 4.3406998353005974 0 -0.74314483375859142 0.66913059716165679 1 0 0 forward_v I I I I #
loop $-1 $-1 $495 $128 #
coedge $-1 $325 $325 $326 $496 reversed $202 $-1 #
coedge $-1 $326 $326 $325 $496 forward $204 $-1 #
coedge $-1 $327 $327 $205 $328 forward $322 $-1 #
edge $-1 $497 1.320090408112036e-015 $497 6.2831853071796013 $327 $498 forward 7 unknown #
loop $-1 $-1 $334 $206 #
plane-surface $-1 -14.938618783683211 -42.673132624241077 4.3406998353005974 0 -0.74314483375859142 0.66913059716165679 1 0 0 forward_v I I I I #
loop $-1 $-1 $499 $131 #
coedge $-1 $332 $332 $333 $500 reversed $207 $-1 #
coedge $-1 $333 $333 $332 $500 forward $209 $-1 #
coedge $-1 $334 $334 $210 $335 forward $329 $-1 #
edge $-1 $501 1.320090408112036e-015 $501 6.2831853071796013 $334 $502 forward 7 unknown #
face $-1 $503 $504 $70 $-1 $505 reversed single #
loop $-1 $-1 $506 $211 #
plane-surface $-1 3.0473690416466486 -135.78861103440903 88.18225109585758 1 0 0 0 0.74314483375859142 -0.66913059716165679 forward_v I I I I #
coedge $-1 $507 $508 $509 $510 reversed $212 $-1 #
coedge $-1 $341 $214 $511 $512 reversed $135 $-1 #
coedge $-1 $214 $340 $507 $513 reversed $135 $-1 #
coedge $-1 $509 $514 $214 $343 forward $515 $-1 #
edge $-1 $516 25.221172892963438 $517 34.072594290697786 $342 $518 forward 7 unknown #
loop $-1 $-1 $349 $215 #
plane-surface $-1 10.773024618228689 -42.673132624241077 4.3406998353005974 0 -0.74314483375859142 0.66913059716165679 1 0 0 forward_v I I I I #
loop $-1 $-1 $519 $137 #
coedge $-1 $347 $347 $348 $520 reversed $216 $-1 #
coedge $-1 $348 $348 $347 $520 forward $218 $-1 #
coedge $-1 $349 $349 $219 $350 forward $344 $-1 #
edge $-1 $521 1.320090408112036e-015 $521 6.2831853071796013 $349 $522 forward 7 unknown #
loop $-1 $-1 $356 $220 #
plane-surface $-1 10.773024618228689 -42.673132624241077 4.3406998353005974 0 -0.74314483375859142 0.66913059716165679 1 0 0 forward_v I I I I #
loop $-1 $-1 $523 $140 #
coedge $-1 $354 $354 $355 $524 reversed $221 $-1 #
coedge $-1 $355 $355 $354 $524 forward $223 $-1 #
coedge $-1 $356 $356 $224 $357 forward $351 $-1 #
edge $-1 $525 1.320090408112036e-015 $525 6.2831853071796013 $356 $526 forward 7 unknown #
face $-1 $527 $528 $73 $-1 $529 reversed single #
loop $-1 $-1 $530 $225 #
plane-surface $-1 28.759012443558547 -135.78861103440903 88.18225109585758 1 0 0 0 0.74314483375859142 -0.66913059716165679 forward_v I I I I #
coedge $-1 $531 $532 $533 $534 reversed $226 $-1 #
coedge $-1 $363 $228 $535 $536 reversed $144 $-1 #
coedge $-1 $228 $362 $531 $537 reversed $144 $-1 #
coedge $-1 $533 $538 $228 $365 forward $539 $-1 #
edge $-1 $540 25.221172892963438 $541 34.072594290697786 $364 $542 forward 7 unknown #
loop $-1 $-1 $371 $229 #
plane-surface $-1 36.484668020140589 -42.673132624241077 4.3406998353005974 0 -0.74314483375859142 0.66913059716165679 1 0 0 forward_v I I I I #
loop $-1 $-1 $543 $146 #
coedge $-1 $369 $369 $370 $544 reversed $230 $-1 #
coedge $-1 $370 $370 $369 $544 forward $232 $-1 #
coedge $-1 $371 $371 $233 $372 forward $366 $-1 #
edge $-1 $545 1.320090408112036e-015 $545 6.2831853071796013 $371 $546 forward 7 unknown #
loop $-1 $-1 $378 $234 #
plane-surface $-1 36.484668020140589 -42.673132624241077 4.3406998353005974 0 -0.74314483375859142 0.66913059716165679 1 0 0 forward_v I I I I #
loop $-1 $-1 $547 $149 #
coedge $-1 $376 $376 $377 $548 reversed $235 $-1 #
coedge $-1 $377 $377 $376 $548 forward $237 $-1 #
coedge $-1 $378 $378 $238 $379 forward $373 $-1 #
edge $-1 $549 1.320090408112036e-015 $549 6.2831853071796013 $378 $550 forward 7 unknown #
face $-1 $551 $552 $57 $-1 $553 reversed single #
loop $-1 $-1 $554 $239 #
plane-surface $-1 -62.649616992706072 0 0 1 0 0 0 0 -1 forward_v I I I I #
coedge $-1 $555 $391 $556 $557 forward $240 $-1 #
coedge $-1 $558 $242 $555 $559 forward $153 $-1 #
coedge $-1 $242 $558 $560 $561 forward $153 $-1 #
coedge $-1 $394 $393 $242 $387 reversed $395 $-1 #
edge $-1 $562 -42.673132624241077 $563 42.673132624241077 $386 $564 forward 7 unknown #
coedge $-1 $244 $243 $565 $566 forward $96 $-1 #
coedge $-1 $567 $568 $243 $390 reversed $552 $-1 #
edge $-1 $397 -62.649616992706072 $569 62.649616992706072 $389 $570 forward 7 unknown #
coedge $-1 $383 $571 $244 $392 reversed $240 $-1 #
edge $-1 $572 -62.649616992706072 $396 62.649616992706072 $391 $573 forward 7 unknown #
coedge $-1 $386 $245 $571 $574 forward $395 $-1 #
coedge $-1 $245 $386 $567 $575 reversed $395 $-1 #
loop $-1 $-1 $393 $551 #
vertex $-1 $246 $576 #
vertex $-1 $246 $577 #
straight-curve $-1 62.649616992706072 0 14.171199458317188 0 1 0 I I #
face $-1 $578 $579 $58 $-1 $580 reversed single #
loop $-1 $-1 $581 $247 #
plane-surface $-1 -68.262782087147215 0 -7.8749335407296996 0 0 1 1 0 0 forward_v I I I I #
coedge $-1 $582 $250 $583 $584 reversed $157 $-1 #
coedge $-1 $250 $582 $408 $585 reversed $157 $-1 #
edge $-1 $410 2.0235130740669018 $586 7.8749335407296996 $250 $587 forward 7 unknown #
coedge $-1 $252 $251 $581 $588 forward $99 $-1 #
coedge $-1 $589 $590 $251 $407 forward $591 $-1 #
edge $-1 $592 -7.8749335407296996 $411 -2.0235130740669018 $406 $593 forward 7 unknown #
coedge $-1 $594 $253 $403 $585 forward $248 $-1 #
coedge $-1 $253 $594 $589 $595 forward $248 $-1 #
vertex $-1 $404 $596 #
vertex $-1 $595 $597 #
straight-curve $-1 -62.649616992706072 0 -2.0235130740669018 0 -1 0 I I #
face $-1 $598 $599 $59 $-1 $600 reversed single #
loop $-1 $-1 $601 $255 #
plane-surface $-1 68.262782087147215 0 -7.8749335407296996 0 0 1 1 0 0 forward_v I I I I #
coedge $-1 $424 $423 $602 $603 forward $256 $-1 #
coedge $-1 $604 $258 $605 $606 reversed $161 $-1 #
coedge $-1 $258 $604 $423 $607 reversed $161 $-1 #
edge $-1 $425 2.0235130740669018 $608 7.8749335407296996 $258 $609 forward 7 unknown #
coedge $-1 $260 $259 $610 $611 forward $102 $-1 #
coedge $-1 $612 $613 $259 $422 forward $614 $-1 #
edge $-1 $615 -7.8749335407296996 $426 -2.0235130740669018 $421 $616 forward 7 unknown #
coedge $-1 $416 $261 $418 $607 forward $256 $-1 #
coedge $-1 $261 $416 $612 $617 forward $256 $-1 #
vertex $-1 $419 $618 #
vertex $-1 $617 $619 #
straight-curve $-1 62.649616992706072 0 -2.0235130740669018 0 1 0 I I #
face $-1 $-1 $440 $60 $-1 $620 forward single #
loop $-1 $-1 $621 $263 #
plane-surface $-1 0 42.673132624241077 0 0 -1 0 0 0 -1 forward_v I I I I #
coedge $-1 $622 $623 $624 $625 reversed $264 $-1 #
coedge $-1 $626 $266 $268 $438 forward $165 $-1 #
coedge $-1 $266 $626 $622 $627 forward $165 $-1 #
coedge $-1 $624 $269 $266 $435 forward $440 $-1 #
edge $-1 $442 -13.642588247927964 $628 0.67281864214801956 $434 $629 forward 7 unknown #
coedge $-1 $630 $631 $267 $437 forward $429 $-1 #
edge $-1 $632 -70.274128644120125 $441 -59.122190711205278 $436 $633 forward 7 unknown #
edge $-1 $442 71.382526248925856 $632 85.346265248482126 $268 $634 forward 7 unknown #
coedge $-1 $269 $624 $630 $635 forward $440 $-1 #
loop $-1 $-1 $624 $428 #
vertex $-1 $437 $636 #
vertex $-1 $270 $637 #
straight-curve $-1 -20.127473050817937 45.689443816071247 14.17119945831719 0 -1 0 I I #
coedge $-1 $444 $444 $-1 $638 reversed $273 $-1 #
edge $-1 $639 0 $639 6.2831853071796004 $274 $640 forward 7 unknown #
vertex $-1 $277 $641 #
ellipse-curve $-1 -17.264391672802738 38.471338745784408 8.5952304918597537 0 0.79863551827123203 0.60181501223851219 1 0 0 1 I I #
coedge $-1 $448 $448 $-1 $642 reversed $280 $-1 #
edge $-1 $643 0 $643 6.2831853071796004 $281 $644 forward 7 unknown #
vertex $-1 $284 $645 #
ellipse-curve $-1 -12.969769605779945 38.471338745784408 8.5952304918597537 0 0.79863551827123203 0.60181501223851219 1 0 0 1 I I #
coedge $-1 $452 $452 $-1 $646 reversed $287 $-1 #
edge $-1 $647 0 $647 6.2831853071796004 $288 $648 forward 7 unknown #
vertex $-1 $291 $649 #
ellipse-curve $-1 -8.6751475387571446 38.471338745784408 8.5952304918597537 0 0.79863551827123203 0.60181501223851219 1 0 0 1 I I #
face $-1 $-1 $650 $64 $-1 $651 reversed single #
loop $-1 $-1 $298 $292 #
plane-surface $-1 0 0 14.171199458317188 0 0 1 1 0 0 forward_v I I I I #
coedge $-1 $652 $653 $654 $655 reversed $293 $-1 #
coedge $-1 $656 $295 $297 $466 forward $184 $-1 #
coedge $-1 $295 $656 $652 $657 forward $184 $-1 #
coedge $-1 $654 $298 $295 $463 forward $457 $-1 #
edge $-1 $469 12.599475516215509 $658 28.050786669379594 $462 $659 forward 7 unknown #
coedge $-1 $660 $661 $296 $465 forward $650 $-1 #
edge $-1 $662 -39.750425712628193 $468 -29.9199260896116 $464 $663 forward 7 unknown #
edge $-1 $469 -13.228241893706013 $662 0 $297 $664 forward 7 unknown #
coedge $-1 $298 $654 $660 $665 forward $457 $-1 #
vertex $-1 $465 $666 #
vertex $-1 $299 $667 #
straight-curve $-1 -32.924606609013061 -67.894305517204515 14.17119945831719 0 1 0 I I #
coedge $-1 $471 $471 $-1 $668 reversed $302 $-1 #
edge $-1 $669 0 $669 6.2831853071796004 $303 $670 forward 7 unknown #
vertex $-1 $306 $671 #
ellipse-curve $-1 -43.961257432701686 -38.247421925373899 9.255949646808892 0 -0.74314483375859142 0.66913059716165679 1 0 0 1 I I #
coedge $-1 $475 $475 $-1 $672 reversed $309 $-1 #
edge $-1 $673 0 $673 6.2831853071796004 $310 $674 forward 7 unknown #
vertex $-1 $313 $675 #
ellipse-curve $-1 -37.339266938488514 -38.247421925373899 9.255949646808892 0 -0.74314483375859142 0.66913059716165679 1 0 0 1 I I #
face $-1 $-1 $491 $67 $-1 $676 forward single #
loop $-1 $-1 $677 $314 #
plane-surface $-1 0 -42.673132624241077 0 0 1 0 0 0 1 forward_v I I I I #
coedge $-1 $678 $679 $680 $681 reversed $315 $-1 #
coedge $-1 $682 $317 $319 $489 forward $198 $-1 #
coedge $-1 $317 $682 $678 $683 forward $198 $-1 #
coedge $-1 $680 $320 $317 $486 forward $491 $-1 #
edge $-1 $493 -0.25634618474043513 $684 15.194964968423648 $485 $685 forward 7 unknown #
coedge $-1 $686 $687 $318 $488 forward $480 $-1 #
edge $-1 $688 -39.750425712628193 $492 -29.9199260896116 $487 $689 forward 7 unknown #
edge $-1 $493 -13.228241893706013 $688 0 $319 $690 forward 7 unknown #
coedge $-1 $320 $680 $686 $691 forward $491 $-1 #
loop $-1 $-1 $680 $479 #
vertex $-1 $488 $692 #
vertex $-1 $321 $693 #
straight-curve $-1 -7.2129632071011702 -67.894305517204515 14.17119945831719 0 1 0 I I #
coedge $-1 $495 $495 $-1 $694 reversed $324 $-1 #
edge $-1 $695 0 $695 6.2831853071796004 $325 $696 forward 7 unknown #
vertex $-1 $328 $697 #
ellipse-curve $-1 -18.249614030789793 -38.247421925373899 9.255949646808892 0 -0.74314483375859142 0.66913059716165679 1 0 0 1 I I #
coedge $-1 $499 $499 $-1 $698 reversed $331 $-1 #
edge $-1 $699 0 $699 6.2831853071796004 $332 $700 forward 7 unknown #
vertex $-1 $335 $701 #
ellipse-curve $-1 -11.627623536576621 -38.247421925373899 9.255949646808892 0 -0.74314483375859142 0.66913059716165679 1 0 0 1 I I #
face $-1 $-1 $515 $70 $-1 $702 forward single #
loop $-1 $-1 $703 $336 #
plane-surface $-1 0 -42.673132624241077 0 0 1 0 0 0 1 forward_v I I I I #
coedge $-1 $704 $705 $706 $707 reversed $337 $-1 #
coedge $-1 $708 $339 $341 $513 forward $212 $-1 #
coedge $-1 $339 $708 $704 $709 forward $212 $-1 #
coedge $-1 $706 $342 $339 $510 forward $515 $-1 #
edge $-1 $517 -13.112167885696387 $710 2.339143267467696 $509 $711 forward 7 unknown #
coedge $-1 $712 $713 $340 $512 forward $504 $-1 #
edge $-1 $714 -39.750425712628193 $516 -29.9199260896116 $511 $715 forward 7 unknown #
edge $-1 $517 -13.228241893706013 $714 0 $341 $716 forward 7 unknown #
coedge $-1 $342 $706 $712 $717 forward $515 $-1 #
loop $-1 $-1 $706 $503 #
vertex $-1 $512 $718 #
vertex $-1 $343 $719 #
straight-curve $-1 18.498680194810731 -67.894305517204515 14.17119945831719 0 1 0 I I #
coedge $-1 $519 $519 $-1 $720 reversed $346 $-1 #
edge $-1 $721 0 $721 6.2831853071796004 $347 $722 forward 7 unknown #
vertex $-1 $350 $723 #
ellipse-curve $-1 7.4620293711220995 -38.247421925373899 9.255949646808892 0 -0.74314483375859142 0.66913059716165679 1 0 0 1 I I #
coedge $-1 $523 $523 $-1 $724 reversed $353 $-1 #
edge $-1 $725 0 $725 6.2831853071796004 $354 $726 forward 7 unknown #
vertex $-1 $357 $727 #
ellipse-curve $-1 14.084019865335279 -38.247421925373899 9.255949646808892 0 -0.74314483375859142 0.66913059716165679 1 0 0 1 I I #
face $-1 $-1 $539 $73 $-1 $728 forward single #
loop $-1 $-1 $729 $358 #
plane-surface $-1 0 -42.673132624241077 0 0 1 0 0 0 1 forward_v I I I I #
coedge $-1 $730 $731 $732 $733 reversed $359 $-1 #
coedge $-1 $734 $361 $363 $537 forward $226 $-1 #
coedge $-1 $361 $734 $730 $735 forward $226 $-1 #
coedge $-1 $732 $364 $361 $534 forward $539 $-1 #
edge $-1 $541 -25.967989586652337 $736 -10.516678433488252 $533 $737 forward 7 unknown #
coedge $-1 $738 $739 $362 $536 forward $528 $-1 #
edge $-1 $740 -39.750425712628193 $540 -29.9199260896116 $535 $741 forward 7 unknown #
edge $-1 $541 -13.228241893706013 $740 0 $363 $742 forward 7 unknown #
coedge $-1 $364 $732 $738 $743 forward $539 $-1 #
loop $-1 $-1 $732 $527 #
vertex $-1 $536 $744 #
vertex $-1 $365 $745 #
straight-curve $-1 44.210323596722631 -67.894305517204515 14.17119945831719 0 1 0 I I #
coedge $-1 $543 $543 $-1 $746 reversed $368 $-1 #
edge $-1 $747 0 $747 6.2831853071796004 $369 $748 forward 7 unknown #
vertex $-1 $372 $749 #
ellipse-curve $-1 33.173672773033999 -38.247421925373899 9.255949646808892 0 -0.74314483375859142 0.66913059716165679 1 0 0 1 I I #
coedge $-1 $547 $547 $-1 $750 reversed $375 $-1 #
edge $-1 $751 0 $751 6.2831853071796004 $376 $752 forward 7 unknown #
vertex $-1 $379 $753 #
ellipse-curve $-1 39.795663267247178 -38.247421925373899 9.255949646808892 0 -0.74314483375859142 0.66913059716165679 1 0 0 1 I I #
face $-1 $-1 $395 $57 $-1 $754 reversed single #
loop $-1 $-1 $567 $380 #
plane-surface $-1 0 42.673132624241077 0 0 -1 0 0 0 -1 forward_v I I I I #
coedge $-1 $755 $565 $568 $756 forward $381 $-1 #
coedge $-1 $571 $383 $384 $559 reversed $240 $-1 #
coedge $-1 $565 $755 $383 $557 reversed $381 $-1 #
edge $-1 $572 -14.171199458317188 $757 14.171199458317188 $556 $758 forward 7 unknown #
coedge $-1 $385 $384 $755 $759 forward $153 $-1 #
edge $-1 $563 -62.649616992706072 $757 62.649616992706072 $555 $760 forward 7 unknown #
coedge $-1 $568 $567 $385 $561 reversed $552 $-1 #
edge $-1 $761 -62.649616992706072 $562 62.649616992706072 $560 $762 forward 7 unknown #
vertex $-1 $387 $763 #
vertex $-1 $574 $764 #
straight-curve $-1 62.649616992706072 0 -14.171199458317188 0 -1 0 I I #
coedge $-1 $554 $556 $388 $566 reversed $381 $-1 #
edge $-1 $569 -42.673132624241077 $572 42.673132624241077 $565 $765 forward 7 unknown #
coedge $-1 $560 $389 $394 $575 forward $552 $-1 #
coedge $-1 $389 $560 $554 $756 reversed $552 $-1 #
vertex $-1 $390 $766 #
straight-curve $-1 0 42.673132624241077 14.171199458317188 -1 0 0 I I #
coedge $-1 $391 $555 $393 $574 reversed $240 $-1 #
vertex $-1 $566 $767 #
straight-curve $-1 0 -42.673132624241077 14.171199458317188 1 0 0 I I #
edge $-1 $396 -14.171199458317188 $563 14.171199458317188 $393 $768 forward 7 unknown #
edge $-1 $397 -14.171199458317188 $562 14.171199458317188 $394 $769 forward 7 unknown #
point $-1 62.649616992706072 -42.673132624241077 14.171199458317188 #
point $-1 62.649616992706072 42.673132624241077 14.171199458317188 #
face $-1 $-1 $591 $58 $-1 $770 reversed single #
loop $-1 $-1 $771 $399 #
plane-surface $-1 -73.875947181588359 0 -4.9492233073983005 1 0 0 0 0 -1 forward_v I I I I #
coedge $-1 $772 $583 $405 $588 reversed $400 $-1 #
coedge $-1 $403 $402 $771 $773 reversed $157 $-1 #
coedge $-1 $581 $774 $402 $584 forward $400 $-1 #
edge $-1 $775 -5.6131650944411433 $586 5.6131650944411433 $402 $776 forward 7 unknown #
edge $-1 $410 -5.6131650944411433 $777 5.6131650944411433 $403 $778 forward 7 unknown #
vertex $-1 $404 $779 #
straight-curve $-1 -62.649616992706072 42.673132624241077 0 0 0 -1 I I #
edge $-1 $592 -42.673132624241077 $586 42.673132624241077 $581 $780 forward 7 unknown #
coedge $-1 $781 $406 $409 $595 reversed $591 $-1 #
coedge $-1 $406 $781 $772 $782 reversed $591 $-1 #
loop $-1 $-1 $406 $578 #
vertex $-1 $407 $783 #
straight-curve $-1 -62.649616992706072 -42.673132624241077 0 0 0 1 I I #
coedge $-1 $409 $408 $784 $785 forward $248 $-1 #
edge $-1 $786 -5.6131650944411433 $411 5.6131650944411433 $589 $787 forward 7 unknown #
point $-1 -62.649616992706072 42.673132624241077 -2.0235130740669018 #
point $-1 -62.649616992706072 -42.673132624241077 -2.0235130740669018 #
face $-1 $-1 $614 $59 $-1 $788 reversed single #
loop $-1 $-1 $789 $413 #
plane-surface $-1 73.875947181588359 0 -4.9492233073983005 -1 0 0 0 0 1 forward_v I I I I #
coedge $-1 $605 $790 $791 $792 forward $414 $-1 #
coedge $-1 $789 $793 $416 $603 reversed $599 $-1 #
edge $-1 $794 -42.673132624241077 $795 42.673132624241077 $602 $796 forward 7 unknown #
coedge $-1 $418 $417 $789 $797 reversed $161 $-1 #
coedge $-1 $610 $601 $417 $606 forward $414 $-1 #
edge $-1 $798 -5.6131650944411433 $608 5.6131650944411433 $417 $799 forward 7 unknown #
edge $-1 $425 -5.6131650944411433 $794 5.6131650944411433 $418 $800 forward 7 unknown #
vertex $-1 $419 $801 #
straight-curve $-1 62.649616992706072 -42.673132624241077 0 0 0 -1 I I #
coedge $-1 $790 $605 $420 $611 reversed $414 $-1 #
edge $-1 $615 -42.673132624241077 $608 42.673132624241077 $610 $802 forward 7 unknown #
coedge $-1 $803 $421 $424 $617 reversed $614 $-1 #
coedge $-1 $421 $803 $790 $804 reversed $614 $-1 #
loop $-1 $-1 $421 $598 #
vertex $-1 $422 $805 #
straight-curve $-1 62.649616992706072 42.673132624241077 0 0 0 1 I I #
edge $-1 $795 -5.6131650944411433 $426 5.6131650944411433 $612 $806 forward 7 unknown #
point $-1 62.649616992706072 -42.673132624241077 -2.0235130740669018 #
point $-1 62.649616992706072 42.673132624241077 -2.0235130740669018 #
plane-surface $-1 0 0 14.171199458317188 0 0 1 1 0 0 forward_v I I I I #
coedge $-1 $631 $630 $623 $807 forward $429 $-1 #
coedge $-1 $623 $431 $433 $627 reversed $264 $-1 #
coedge $-1 $431 $622 $621 $807 reversed $264 $-1 #
coedge $-1 $439 $434 $431 $625 forward $440 $-1 #
edge $-1 $628 -11.419898948743523 $808 -3.0163111918301695 $624 $809 forward 7 unknown #
coedge $-1 $433 $432 $631 $810 reversed $165 $-1 #
edge $-1 $811 -85.346265248482126 $628 -71.382526248925856 $622 $812 forward 7 unknown #
vertex $-1 $435 $813 #
straight-curve $-1 -6.4848848028899724 34.26954486732771 14.17119945831719 1 0 0 I I #
coedge $-1 $621 $436 $439 $635 reversed $429 $-1 #
coedge $-1 $436 $621 $626 $810 forward $429 $-1 #
vertex $-1 $437 $814 #
straight-curve $-1 -20.127473050817937 42.673132624241077 73.293390169522468 0 0 1 I I #
straight-curve $-1 -20.127473050817937 -8.6895310407855106 71.179820304637914 0 0.60181501223851219 -0.79863551827123203 I I #
edge $-1 $808 5.8120661607419528 $441 20.127473050817937 $630 $815 forward 7 unknown #
point $-1 -20.127473050817937 42.673132624241077 14.171199458317188 #
point $-1 -20.127473050817937 34.269544867327724 14.17119945831719 #
edge $-1 $816 1 $816 0 $444 $-1 forward 7 unknown #
vertex $-1 $445 $817 #
ellipse-curve $-1 -17.264391672802738 36.861003692463044 7.3817560249082765 0 0.79863551827123203 0.60181501223851219 1 0 0 1 I I #
point $-1 -16.264391672802738 38.471338745784387 8.595230491859736 #
edge $-1 $818 1 $818 0 $448 $-1 forward 7 unknown #
vertex $-1 $449 $819 #
ellipse-curve $-1 -12.969769605779945 36.861003692463044 7.3817560249082765 0 0.79863551827123203 0.60181501223851219 1 0 0 1 I I #
point $-1 -11.969769605779945 38.471338745784387 8.595230491859736 #
edge $-1 $820 1 $820 0 $452 $-1 forward 7 unknown #
vertex $-1 $453 $821 #
ellipse-curve $-1 -8.6751475387571446 36.861003692463044 7.3817560249082765 0 0.79863551827123203 0.60181501223851219 1 0 0 1 I I #
point $-1 -7.6751475387571446 38.471338745784387 8.595230491859736 #
loop $-1 $-1 $464 $456 #
plane-surface $-1 0 -42.673132624241077 0 0 1 0 0 0 1 forward_v I I I I #
coedge $-1 $653 $459 $461 $657 reversed $293 $-1 #
coedge $-1 $459 $652 $822 $823 reversed $293 $-1 #
coedge $-1 $467 $462 $459 $655 forward $457 $-1 #
edge $-1 $658 -34.072594290697786 $824 -25.221172892963438 $654 $825 forward 7 unknown #
coedge $-1 $461 $460 $661 $826 reversed $184 $-1 #
edge $-1 $827 0 $658 13.228241893706013 $652 $828 forward 7 unknown #
vertex $-1 $463 $829 #
straight-curve $-1 -20.325131092797552 -33.821711226506721 14.171199458317188 -1 0 0 I I #
coedge $-1 $822 $464 $467 $665 reversed $650 $-1 #
coedge $-1 $464 $822 $656 $826 forward $650 $-1 #
vertex $-1 $465 $830 #
straight-curve $-1 -32.924606609013061 -42.673132624241077 44.09112554792879 0 0 1 I I #
straight-curve $-1 -32.924606609013061 -42.673132624241077 4.3406998353005974 0 -0.66913059716165679 -0.74314483375859142 I I #
edge $-1 $824 -48.375917762177146 $468 -32.924606609013061 $660 $831 forward 7 unknown #
point $-1 -32.924606609013061 -42.673132624241077 14.171199458317188 #
point $-1 -32.924606609013061 -33.821711226506729 14.171199458317188 #
edge $-1 $832 1 $832 0 $471 $-1 forward 7 unknown #
vertex $-1 $472 $833 #
ellipse-curve $-1 -43.961257432701686 -35.924751289829452 7.1646076650431025 0 -0.74314483375859142 0.66913059716165679 1 0 0 1 I I #
point $-1 -42.961257432701686 -38.247421925373899 9.2559496468088938 #
edge $-1 $834 1 $834 0 $475 $-1 forward 7 unknown #
vertex $-1 $476 $835 #
ellipse-curve $-1 -37.339266938488514 -35.924751289829452 7.1646076650431025 0 -0.74314483375859142 0.66913059716165679 1 0 0 1 I I #
point $-1 -36.339266938488514 -38.247421925373899 9.2559496468088938 #
plane-surface $-1 0 0 14.171199458317188 0 0 1 1 0 0 forward_v I I I I #
coedge $-1 $687 $686 $679 $836 forward $480 $-1 #
coedge $-1 $679 $482 $484 $683 reversed $315 $-1 #
coedge $-1 $482 $678 $677 $836 reversed $315 $-1 #
coedge $-1 $490 $485 $482 $681 forward $491 $-1 #
edge $-1 $684 -34.072594290697786 $837 -25.221172892963438 $680 $838 forward 7 unknown #
coedge $-1 $484 $483 $687 $839 reversed $198 $-1 #
edge $-1 $840 0 $684 13.228241893706013 $678 $841 forward 7 unknown #
vertex $-1 $486 $842 #
straight-curve $-1 -7.4693093918416054 -33.821711226506721 14.171199458317188 -1 0 0 I I #
coedge $-1 $677 $487 $490 $691 reversed $480 $-1 #
coedge $-1 $487 $677 $682 $839 forward $480 $-1 #
vertex $-1 $488 $843 #
straight-curve $-1 -7.2129632071011702 -42.673132624241077 44.09112554792879 0 0 1 I I #
straight-curve $-1 -7.2129632071011702 -42.673132624241077 4.3406998353005974 0 -0.66913059716165679 -0.74314483375859142 I I #
edge $-1 $837 -22.664274360265253 $492 -7.2129632071011702 $686 $844 forward 7 unknown #
point $-1 -7.2129632071011702 -42.673132624241077 14.171199458317188 #
point $-1 -7.2129632071011702 -33.821711226506729 14.171199458317188 #
edge $-1 $845 1 $845 0 $495 $-1 forward 7 unknown #
vertex $-1 $496 $846 #
ellipse-curve $-1 -18.249614030789793 -35.924751289829452 7.1646076650431025 0 -0.74314483375859142 0.66913059716165679 1 0 0 1 I I #
point $-1 -17.249614030789793 -38.247421925373899 9.2559496468088938 #
edge $-1 $847 1 $847 0 $499 $-1 forward 7 unknown #
vertex $-1 $500 $848 #
ellipse-curve $-1 -11.627623536576621 -35.924751289829452 7.1646076650431025 0 -0.74314483375859142 0.66913059716165679 1 0 0 1 I I #
point $-1 -10.627623536576621 -38.247421925373899 9.2559496468088938 #
plane-surface $-1 0 0 14.171199458317188 0 0 1 1 0 0 forward_v I I I I #
coedge $-1 $713 $712 $705 $849 forward $504 $-1 #
coedge $-1 $705 $506 $508 $709 reversed $337 $-1 #
coedge $-1 $506 $704 $703 $849 reversed $337 $-1 #
coedge $-1 $514 $509 $506 $707 forward $515 $-1 #
edge $-1 $710 -34.072594290697786 $850 -25.221172892963438 $706 $851 forward 7 unknown #
coedge $-1 $508 $507 $713 $852 reversed $212 $-1 #
edge $-1 $853 0 $710 13.228241893706013 $704 $854 forward 7 unknown #
vertex $-1 $510 $855 #
straight-curve $-1 5.3865123091143445 -33.821711226506721 14.171199458317188 -1 0 0 I I #
coedge $-1 $703 $511 $514 $717 reversed $504 $-1 #
coedge $-1 $511 $703 $708 $852 forward $504 $-1 #
vertex $-1 $512 $856 #
straight-curve $-1 18.498680194810731 -42.673132624241077 44.09112554792879 0 0 1 I I #
straight-curve $-1 18.498680194810731 -42.673132624241077 4.3406998353005974 0 -0.66913059716165679 -0.74314483375859142 I I #
edge $-1 $850 3.0473690416466486 $516 18.498680194810731 $712 $857 forward 7 unknown #
point $-1 18.498680194810731 -42.673132624241077 14.171199458317188 #
point $-1 18.498680194810731 -33.821711226506729 14.171199458317188 #
edge $-1 $858 1 $858 0 $519 $-1 forward 7 unknown #
vertex $-1 $520 $859 #
ellipse-curve $-1 7.4620293711220995 -35.924751289829452 7.1646076650431025 0 -0.74314483375859142 0.66913059716165679 1 0 0 1 I I #
point $-1 8.4620293711220995 -38.247421925373899 9.2559496468088938 #
edge $-1 $860 1 $860 0 $523 $-1 forward 7 unknown #
vertex $-1 $524 $861 #
ellipse-curve $-1 14.084019865335279 -35.924751289829452 7.1646076650431025 0 -0.74314483375859142 0.66913059716165679 1 0 0 1 I I #
point $-1 15.084019865335279 -38.247421925373899 9.2559496468088938 #
plane-surface $-1 0 0 14.171199458317188 0 0 1 1 0 0 forward_v I I I I #
coedge $-1 $739 $738 $731 $862 forward $528 $-1 #
coedge $-1 $731 $530 $532 $735 reversed $359 $-1 #
coedge $-1 $530 $730 $729 $862 reversed $359 $-1 #
coedge $-1 $538 $533 $530 $733 forward $539 $-1 #
edge $-1 $736 -34.072594290697786 $863 -25.221172892963438 $732 $864 forward 7 unknown #
coedge $-1 $532 $531 $739 $865 reversed $226 $-1 #
edge $-1 $866 0 $736 13.228241893706013 $730 $867 forward 7 unknown #
vertex $-1 $534 $868 #
straight-curve $-1 18.242334010070294 -33.821711226506721 14.171199458317188 -1 0 0 I I #
coedge $-1 $729 $535 $538 $743 reversed $528 $-1 #
coedge $-1 $535 $729 $734 $865 forward $528 $-1 #
vertex $-1 $536 $869 #
straight-curve $-1 44.210323596722631 -42.673132624241077 44.09112554792879 0 0 1 I I #
straight-curve $-1 44.210323596722631 -42.673132624241077 4.3406998353005974 0 -0.66913059716165679 -0.74314483375859142 I I #
edge $-1 $863 28.759012443558547 $540 44.210323596722631 $738 $870 forward 7 unknown #
point $-1 44.210323596722631 -42.673132624241077 14.171199458317188 #
point $-1 44.210323596722631 -33.821711226506729 14.171199458317188 #
edge $-1 $871 1 $871 0 $543 $-1 forward 7 unknown #
vertex $-1 $544 $872 #
ellipse-curve $-1 33.173672773033999 -35.924751289829452 7.1646076650431025 0 -0.74314483375859142 0.66913059716165679 1 0 0 1 I I #
point $-1 34.173672773033999 -38.247421925373899 9.2559496468088938 #
edge $-1 $873 1 $873 0 $547 $-1 forward 7 unknown #
vertex $-1 $548 $874 #
ellipse-curve $-1 39.795663267247178 -35.924751289829452 7.1646076650431025 0 -0.74314483375859142 0.66913059716165679 1 0 0 1 I I #
point $-1 40.795663267247178 -38.247421925373899 9.2559496468088938 #
plane-surface $-1 62.649616992706072 0 0 -1 0 0 0 0 1 forward_v I I I I #
coedge $-1 $556 $554 $558 $759 reversed $381 $-1 #
edge $-1 $569 -14.171199458317188 $761 14.171199458317188 $568 $875 forward 7 unknown #
vertex $-1 $759 $876 #
straight-curve $-1 -62.649616992706072 -42.673132624241077 0 0 0 -1 I I #
edge $-1 $757 -42.673132624241077 $761 42.673132624241077 $755 $877 forward 7 unknown #
straight-curve $-1 0 -42.673132624241077 -14.171199458317188 -1 0 0 I I #
vertex $-1 $561 $878 #
straight-curve $-1 0 42.673132624241077 -14.171199458317188 1 0 0 I I #
point $-1 62.649616992706072 42.673132624241077 -14.171199458317188 #
point $-1 62.649616992706072 -42.673132624241077 -14.171199458317188 #
straight-curve $-1 -62.649616992706072 0 14.171199458317188 0 -1 0 I I #
point $-1 -62.649616992706072 42.673132624241077 14.171199458317188 #
point $-1 -62.649616992706072 -42.673132624241077 14.171199458317188 #
straight-curve $-1 62.649616992706072 -42.673132624241077 0 0 0 -1 I I #
straight-curve $-1 62.649616992706072 42.673132624241077 0 0 0 -1 I I #
plane-surface $-1 0 -42.673132624241077 0 0 1 0 0 0 1 forward_v I I I I #
coedge $-1 $879 $784 $582 $773 forward $579 $-1 #
coedge $-1 $774 $581 $590 $782 forward $400 $-1 #
edge $-1 $777 -2.9257102333313987 $775 2.9257102333313991 $582 $880 forward 7 unknown #
coedge $-1 $583 $772 $879 $881 forward $400 $-1 #
vertex $-1 $584 $882 #
straight-curve $-1 -68.262782087147215 42.673132624241077 -7.8749335407296996 1 0 0 I I #
vertex $-1 $585 $883 #
straight-curve $-1 -68.262782087147215 42.673132624241077 -2.0235130740669018 -1 0 0 I I #
point $-1 -62.649616992706072 42.673132624241077 -7.8749335407296996 #
straight-curve $-1 -62.649616992706072 0 -7.8749335407296996 0 1 0 I I #
coedge $-1 $590 $589 $884 $885 forward $591 $-1 #
edge $-1 $592 -5.6131650944411433 $886 5.6131650944411433 $590 $887 forward 7 unknown #
point $-1 -62.649616992706072 -42.673132624241077 -7.8749335407296996 #
coedge $-1 $771 $884 $594 $785 reversed $579 $-1 #
edge $-1 $777 -42.673132624241077 $786 42.673132624241077 $784 $888 forward 7 unknown #
vertex $-1 $785 $889 #
straight-curve $-1 -68.262782087147215 -42.673132624241077 -2.0235130740669018 1 0 0 I I #
plane-surface $-1 0 42.673132624241077 0 0 -1 0 0 0 -1 forward_v I I I I #
coedge $-1 $791 $602 $604 $797 forward $599 $-1 #
coedge $-1 $601 $610 $613 $804 forward $414 $-1 #
coedge $-1 $793 $789 $601 $792 reversed $599 $-1 #
edge $-1 $890 -42.673132624241077 $798 42.673132624241077 $791 $891 forward 7 unknown #
coedge $-1 $602 $791 $803 $892 reversed $599 $-1 #
vertex $-1 $603 $893 #
vertex $-1 $603 $894 #
straight-curve $-1 73.875947181588359 0 -2.0235130740669018 0 1 0 I I #
edge $-1 $794 -2.9257102333313987 $798 2.9257102333313991 $789 $895 forward 7 unknown #
vertex $-1 $797 $896 #
straight-curve $-1 68.262782087147215 -42.673132624241077 -7.8749335407296996 -1 0 0 I I #
straight-curve $-1 68.262782087147215 -42.673132624241077 -2.0235130740669018 1 0 0 I I #
point $-1 62.649616992706072 -42.673132624241077 -7.8749335407296996 #
straight-curve $-1 62.649616992706072 0 -7.8749335407296996 0 -1 0 I I #
coedge $-1 $613 $612 $793 $892 forward $614 $-1 #
edge $-1 $615 -5.6131650944411433 $890 5.6131650944411433 $613 $897 forward 7 unknown #
point $-1 62.649616992706072 42.673132624241077 -7.8749335407296996 #
straight-curve $-1 68.262782087147215 42.673132624241077 -2.0235130740669018 -1 0 0 I I #
edge $-1 $808 59.122190711205278 $811 70.274128644120125 $621 $898 forward 7 unknown #
vertex $-1 $635 $899 #
straight-curve $-1 -5.8120661607419528 45.689443816071247 14.17119945831719 0 1 0 I I #
edge $-1 $811 -0.67281864214801956 $632 13.642588247927964 $631 $900 forward 7 unknown #
vertex $-1 $810 $901 #
straight-curve $-1 -5.8120661607419528 -8.6895310407855106 71.179820304637914 0 -0.60181501223851219 0.79863551827123203 I I #
point $-1 -5.8120661607419528 34.269544867327724 14.17119945831719 #
point $-1 -20.127473050817937 42.673132624241077 3.0192615254023423 #
straight-curve $-1 0 42.673132624241077 14.171199458317188 -1 0 0 I I #
vertex $-1 $638 $902 #
point $-1 -16.264391672802738 36.861003692463044 7.3817560249082765 #
vertex $-1 $642 $903 #
point $-1 -11.969769605779945 36.861003692463044 7.3817560249082765 #
vertex $-1 $646 $904 #
point $-1 -7.6751475387571446 36.861003692463044 7.3817560249082765 #
coedge $-1 $661 $660 $653 $823 forward $650 $-1 #
edge $-1 $824 29.9199260896116 $827 39.750425712628193 $822 $905 forward 7 unknown #
vertex $-1 $665 $906 #
straight-curve $-1 -48.375917762177146 -67.894305517204515 14.17119945831719 0 -1 0 I I #
edge $-1 $827 -28.050786669379594 $662 -12.599475516215509 $661 $907 forward 7 unknown #
vertex $-1 $826 $908 #
straight-curve $-1 -48.375917762177146 -42.673132624241077 4.3406998353005974 0 0.66913059716165679 0.74314483375859142 I I #
point $-1 -48.375917762177146 -33.821711226506729 14.171199458317188 #
point $-1 -32.924606609013061 -42.673132624241077 4.3406998353005974 #
straight-curve $-1 0 -42.673132624241077 14.171199458317188 1 0 0 I I #
vertex $-1 $668 $909 #
point $-1 -42.961257432701686 -35.924751289829452 7.1646076650431025 #
vertex $-1 $672 $910 #
point $-1 -36.339266938488514 -35.924751289829452 7.1646076650431025 #
edge $-1 $837 29.9199260896116 $840 39.750425712628193 $677 $911 forward 7 unknown #
vertex $-1 $691 $912 #
straight-curve $-1 -22.664274360265253 -67.894305517204515 14.17119945831719 0 -1 0 I I #
edge $-1 $840 -15.194964968423648 $688 0.25634618474043513 $687 $913 forward 7 unknown #
vertex $-1 $839 $914 #
straight-curve $-1 -22.664274360265253 -42.673132624241077 4.3406998353005974 0 0.66913059716165679 0.74314483375859142 I I #
point $-1 -22.664274360265253 -33.821711226506729 14.171199458317188 #
point $-1 -7.2129632071011702 -42.673132624241077 4.3406998353005974 #
straight-curve $-1 0 -42.673132624241077 14.171199458317188 1 0 0 I I #
vertex $-1 $694 $915 #
point $-1 -17.249614030789793 -35.924751289829452 7.1646076650431025 #
vertex $-1 $698 $916 #
point $-1 -10.627623536576621 -35.924751289829452 7.1646076650431025 #
edge $-1 $850 29.9199260896116 $853 39.750425712628193 $703 $917 forward 7 unknown #
vertex $-1 $717 $918 #
straight-curve $-1 3.0473690416466486 -67.894305517204515 14.17119945831719 0 -1 0 I I #
edge $-1 $853 -2.339143267467696 $714 13.112167885696387 $713 $919 forward 7 unknown #
vertex $-1 $852 $920 #
straight-curve $-1 3.0473690416466486 -42.673132624241077 4.3406998353005974 0 0.66913059716165679 0.74314483375859142 I I #
point $-1 3.0473690416466486 -33.821711226506729 14.171199458317188 #
point $-1 18.498680194810731 -42.673132624241077 4.3406998353005974 #
straight-curve $-1 0 -42.673132624241077 14.171199458317188 1 0 0 I I #
vertex $-1 $720 $921 #
point $-1 8.4620293711220995 -35.924751289829452 7.1646076650431025 #
vertex $-1 $724 $922 #
point $-1 15.084019865335279 -35.924751289829452 7.1646076650431025 #
edge $-1 $863 29.9199260896116 $866 39.750425712628193 $729 $923 forward 7 unknown #
vertex $-1 $743 $924 #
straight-curve $-1 28.759012443558547 -67.894305517204515 14.17119945831719 0 -1 0 I I #
edge $-1 $866 10.516678433488252 $740 25.967989586652337 $739 $925 forward 7 unknown #
vertex $-1 $865 $926 #
straight-curve $-1 28.759012443558547 -42.673132624241077 4.3406998353005974 0 0.66913059716165679 0.74314483375859142 I I #
point $-1 28.759012443558547 -33.821711226506729 14.171199458317188 #
point $-1 44.210323596722631 -42.673132624241077 4.3406998353005974 #
straight-curve $-1 0 -42.673132624241077 14.171199458317188 1 0 0 I I #
vertex $-1 $746 $927 #
point $-1 34.173672773033999 -35.924751289829452 7.1646076650431025 #
vertex $-1 $750 $928 #
point $-1 40.795663267247178 -35.924751289829452 7.1646076650431025 #
straight-curve $-1 -62.649616992706072 42.673132624241077 0 0 0 -1 I I #
point $-1 -62.649616992706072 -42.673132624241077 -14.171199458317188 #
straight-curve $-1 -62.649616992706072 0 -14.171199458317188 0 1 0 I I #
point $-1 -62.649616992706072 42.673132624241077 -14.171199458317188 #
coedge $-1 $884 $771 $774 $881 reversed $579 $-1 #
straight-curve $-1 -73.875947181588359 42.673132624241077 -4.9492233073983005 0 0 -1 I I #
edge $-1 $886 -42.673132624241077 $775 42.673132624241077 $879 $929 forward 7 unknown #
point $-1 -73.875947181588359 42.673132624241077 -7.8749335407296996 #
point $-1 -73.875947181588359 42.673132624241077 -2.0235130740669018 #
coedge $-1 $784 $879 $781 $885 reversed $579 $-1 #
edge $-1 $786 -2.9257102333313987 $886 2.9257102333313991 $884 $930 forward 7 unknown #
vertex $-1 $881 $931 #
straight-curve $-1 -68.262782087147215 -42.673132624241077 -7.8749335407296996 -1 0 0 I I #
straight-curve $-1 -73.875947181588359 0 -2.0235130740669018 0 -1 0 I I #
point $-1 -73.875947181588359 -42.673132624241077 -2.0235130740669018 #
vertex $-1 $792 $932 #
straight-curve $-1 73.875947181588359 0 -7.8749335407296996 0 -1 0 I I #
edge $-1 $795 -2.9257102333313987 $890 2.9257102333313991 $793 $933 forward 7 unknown #
point $-1 73.875947181588359 -42.673132624241077 -2.0235130740669018 #
point $-1 73.875947181588359 42.673132624241077 -2.0235130740669018 #
straight-curve $-1 73.875947181588359 -42.673132624241077 -4.9492233073983005 0 0 -1 I I #
point $-1 73.875947181588359 -42.673132624241077 -7.8749335407296996 #
straight-curve $-1 68.262782087147215 42.673132624241077 -7.8749335407296996 1 0 0 I I #
straight-curve $-1 -5.8120661607419528 42.673132624241077 73.293390169522468 0 0 -1 I I #
point $-1 -5.8120661607419528 42.673132624241077 14.171199458317188 #
straight-curve $-1 -6.4848848028899724 42.673132624241077 3.0192615254023352 -1 0 0 I I #
point $-1 -5.8120661607419528 42.673132624241077 3.0192615254023423 #
point $-1 -17.264391672802738 36.062368174191818 6.7799410126697639 #
point $-1 -12.969769605779945 36.062368174191818 6.7799410126697639 #
point $-1 -8.6751475387571446 36.062368174191818 6.7799410126697639 #
straight-curve $-1 -48.375917762177146 -42.673132624241077 44.09112554792879 0 0 -1 I I #
point $-1 -48.375917762177146 -42.673132624241077 14.171199458317188 #
straight-curve $-1 -20.325131092797552 -42.673132624241077 4.3406998353005948 1 0 0 I I #
point $-1 -48.375917762177146 -42.673132624241077 4.3406998353005974 #
point $-1 -43.961257432701686 -35.18160645607086 6.4954770678814464 #
point $-1 -37.339266938488514 -35.18160645607086 6.4954770678814464 #
straight-curve $-1 -22.664274360265253 -42.673132624241077 44.09112554792879 0 0 -1 I I #
point $-1 -22.664274360265253 -42.673132624241077 14.171199458317188 #
straight-curve $-1 -7.4693093918416054 -42.673132624241077 4.3406998353005948 1 0 0 I I #
point $-1 -22.664274360265253 -42.673132624241077 4.3406998353005974 #
point $-1 -18.249614030789793 -35.18160645607086 6.4954770678814464 #
point $-1 -11.627623536576621 -35.18160645607086 6.4954770678814464 #
straight-curve $-1 3.0473690416466486 -42.673132624241077 44.09112554792879 0 0 -1 I I #
point $-1 3.0473690416466486 -42.673132624241077 14.171199458317188 #
straight-curve $-1 5.3865123091143445 -42.673132624241077 4.3406998353005948 1 0 0 I I #
point $-1 3.0473690416466486 -42.673132624241077 4.3406998353005974 #
point $-1 7.4620293711220995 -35.18160645607086 6.4954770678814464 #
point $-1 14.084019865335279 -35.18160645607086 6.4954770678814464 #
straight-curve $-1 28.759012443558547 -42.673132624241077 44.09112554792879 0 0 -1 I I #
point $-1 28.759012443558547 -42.673132624241077 14.171199458317188 #
straight-curve $-1 18.242334010070294 -42.673132624241077 4.3406998353005948 1 0 0 I I #
point $-1 28.759012443558547 -42.673132624241077 4.3406998353005974 #
point $-1 33.173672773033999 -35.18160645607086 6.4954770678814464 #
point $-1 39.795663267247178 -35.18160645607086 6.4954770678814464 #
straight-curve $-1 -73.875947181588359 0 -7.8749335407296996 0 1 0 I I #
straight-curve $-1 -73.875947181588359 -42.673132624241077 -4.9492233073983005 0 0 -1 I I #
point $-1 -73.875947181588359 -42.673132624241077 -7.8749335407296996 #
point $-1 73.875947181588359 42.673132624241077 -7.8749335407296996 #
straight-curve $-1 73.875947181588359 42.673132624241077 -4.9492233073983005 0 0 -1 I I #
End-of-ACIS-data 