500 0 11 0           
7 Unknown 11 ACIS 5.0 NT 24 Fri Mar 26 20:19:22 1999 
-1 9.9999999999999995e-007 1e-010 
body $-1 $11 $-1 $12 #
body $-1 $13 $-1 $14 #
body $-1 $15 $-1 $16 #
body $-1 $17 $-1 $18 #
body $-1 $19 $-1 $20 #
body $-1 $21 $-1 $22 #
body $-1 $23 $-1 $24 #
body $-1 $25 $-1 $26 #
body $-1 $27 $-1 $28 #
body $-1 $29 $-1 $30 #
body $-1 $31 $-1 $32 #
lump $-1 $-1 $33 $0 #
transform $-1 1 0 0 0 1 0 0 0 1 64.033936582537308 36.344002880369096 9.9923547333889928 1 rotate no_reflect no_shear #
lump $-1 $-1 $34 $1 #
transform $-1 1 0 0 0 1 0 0 0 1 64.033936582537308 36.344002880369096 9.9923547333889928 1 rotate no_reflect no_shear #
lump $-1 $-1 $35 $2 #
transform $-1 1 0 0 0 1 0 0 0 1 64.033936582537308 36.344002880369096 9.9923547333889928 1 rotate no_reflect no_shear #
lump $-1 $-1 $36 $3 #
transform $-1 1 0 0 0 1 0 0 0 1 64.033936582537308 36.344002880369096 9.9923547333889928 1 rotate no_reflect no_shear #
lump $-1 $-1 $37 $4 #
transform $-1 1 0 0 0 1 0 0 0 1 64.033936582537308 36.344002880369096 9.9923547333889928 1 rotate no_reflect no_shear #
lump $-1 $-1 $38 $5 #
transform $-1 1 0 0 0 1 0 0 0 1 64.033936582537308 36.344002880369096 9.9923547333889928 1 rotate no_reflect no_shear #
lump $-1 $-1 $39 $6 #
transform $-1 1 0 0 0 1 0 0 0 1 64.033936582537308 36.344002880369096 9.9923547333889928 1 rotate no_reflect no_shear #
lump $-1 $-1 $40 $7 #
transform $-1 1 0 0 0 1 0 0 0 1 64.033936582537308 36.344002880369096 9.9923547333889928 1 rotate no_reflect no_shear #
lump $-1 $-1 $41 $8 #
transform $-1 1 0 0 0 1 0 0 0 1 64.033936582537308 36.344002880369096 9.9923547333889928 1 rotate no_reflect no_shear #
lump $-1 $-1 $42 $9 #
transform $-1 1 0 0 0 1 0 0 0 1 64.033936582537308 36.344002880369096 9.9923547333889928 1 rotate no_reflect no_shear #
lump $-1 $-1 $43 $10 #
transform $-1 1 0 0 0 1 0 0 0 1 64.033936582537308 36.344002880369096 9.9923547333889928 1 rotate no_reflect no_shear #
shell $-1 $-1 $-1 $44 $-1 $11 #
shell $-1 $-1 $-1 $45 $-1 $13 #
shell $-1 $-1 $-1 $46 $-1 $15 #
shell $-1 $-1 $-1 $47 $-1 $17 #
shell $-1 $-1 $-1 $48 $-1 $19 #
shell $-1 $-1 $-1 $49 $-1 $21 #
shell $-1 $-1 $-1 $50 $-1 $23 #
shell $-1 $-1 $-1 $51 $-1 $25 #
shell $-1 $-1 $-1 $52 $-1 $27 #
shell $-1 $-1 $-1 $53 $-1 $29 #
shell $-1 $-1 $-1 $54 $-1 $31 #
face $-1 $55 $56 $33 $-1 $57 forward single #
face $-1 $58 $59 $34 $-1 $60 forward single #
face $-1 $61 $62 $35 $-1 $63 forward single #
face $-1 $64 $65 $36 $-1 $66 reversed single #
face $-1 $67 $68 $37 $-1 $69 forward single #
face $-1 $70 $71 $38 $-1 $72 reversed single #
face $-1 $73 $74 $39 $-1 $75 forward single #
face $-1 $76 $77 $40 $-1 $78 forward single #
face $-1 $79 $80 $41 $-1 $81 reversed single #
face $-1 $82 $83 $42 $-1 $84 forward single #
face $-1 $85 $86 $43 $-1 $87 forward single #
face $-1 $88 $89 $33 $-1 $90 reversed single #
loop $-1 $-1 $91 $44 #
plane-surface $-1 0 0 9.9923547333889928 0 0 1 1 0 0 forward_v I I I I #
face $-1 $92 $93 $34 $-1 $94 reversed single #
loop $-1 $-1 $95 $45 #
plane-surface $-1 0 -36.344002880369096 0 0 1 0 0 0 1 forward_v I I I I #
face $-1 $96 $97 $35 $-1 $98 reversed single #
loop $-1 $-1 $99 $46 #
plane-surface $-1 0 36.344002880369096 0 0 -1 0 0 0 -1 forward_v I I I I #
face $-1 $100 $101 $36 $-1 $102 reversed single #
loop $-1 $-1 $103 $47 #
plane-surface $-1 95.484284921728488 -6.930547317209701 185.30107246838921 0 -1 0 -0.81915205242281985 0 -0.57357642473473569 forward_v I I I I #
face $-1 $104 $105 $37 $-1 $106 forward single #
loop $-1 $107 $108 $48 #
cone-surface $-1 62.419821417841398 -10.120411909552978 8.0835436719530236 -0.81915205242281985 0 -0.57357642473473569 0.28678821236736785 0 -0.40957602621140993 1 I I 0 1 0.5 forward I I I I #
face $-1 $109 $110 $38 $-1 $111 reversed single #
loop $-1 $-1 $112 $49 #
plane-surface $-1 -146.35437966375559 -9.0520536805559573 102.59681908640208 0 1 0 -0.64278761758704617 0 0.76604443648966558 forward_v I I I I #
face $-1 $113 $114 $39 $-1 $115 forward single #
loop $-1 $116 $117 $50 #
cone-surface $-1 -60.176611025073782 -6.4657526289685414 6.5513896129218239 0.64278761758704617 0 -0.76604443648966558 0.76604443648966558 0 0.64278761758704617 1 I I 0 1 1 forward I I I I #
face $-1 $118 $119 $40 $-1 $120 forward single #
loop $-1 $121 $122 $51 #
cone-surface $-1 -60.176611025073782 -2.5863010515874194 6.5513896129218239 0.64278761758704617 0 -0.76604443648966558 0.76604443648966558 0 0.64278761758704617 1 I I 0 1 1 forward I I I I #
face $-1 $123 $124 $41 $-1 $125 reversed single #
loop $-1 $-1 $126 $52 #
plane-surface $-1 -146.35437966375559 15.210424763534164 102.59681908640208 0 1 0 -0.64278761758704617 0 0.76604443648966558 forward_v I I I I #
face $-1 $127 $128 $42 $-1 $129 forward single #
loop $-1 $130 $131 $53 #
cone-surface $-1 -60.176611025073782 17.796725815121583 6.5513896129218239 0.64278761758704617 0 -0.76604443648966558 0.76604443648966558 0 0.64278761758704617 1 I I 0 1 1 forward I I I I #
face $-1 $132 $133 $43 $-1 $134 forward single #
loop $-1 $135 $136 $54 #
cone-surface $-1 -60.176611025073782 21.676177392502701 6.5513896129218239 0.64278761758704617 0 -0.76604443648966558 0.76604443648966558 0 0.64278761758704617 1 I I 0 1 1 forward I I I I #
face $-1 $137 $138 $33 $-1 $139 reversed single #
loop $-1 $-1 $140 $55 #
plane-surface $-1 0 0 -9.9923547333889928 0 0 1 1 0 0 forward_v I I I I #
coedge $-1 $141 $142 $143 $144 forward $56 $-1 #
face $-1 $145 $146 $34 $-1 $147 reversed single #
loop $-1 $-1 $148 $58 #
plane-surface $-1 0 0 -9.9923547333889928 0 0 1 1 0 0 forward_v I I I I #
coedge $-1 $149 $150 $151 $152 forward $59 $-1 #
face $-1 $153 $154 $35 $-1 $155 forward single #
loop $-1 $-1 $156 $61 #
plane-surface $-1 -64.033936582537308 0 0 1 0 0 0 0 -1 forward_v I I I I #
coedge $-1 $157 $158 $159 $160 forward $62 $-1 #
face $-1 $161 $162 $36 $-1 $163 reversed single #
loop $-1 $-1 $164 $64 #
plane-surface $-1 -9.4227762308677541 -10.120411909552978 111.84435965498412 0.81915205242281985 0 0.57357642473473569 0.57357642473473569 0 -0.81915205242281985 forward_v I I I I #
coedge $-1 $165 $166 $167 $168 reversed $65 $-1 #
face $-1 $-1 $169 $37 $-1 $170 forward single #
loop $-1 $171 $172 $67 #
cone-surface $-1 61.670504909058309 -10.120411909552978 7.5588666198339212 -0.81915205242281985 0 -0.57357642473473569 0.14339410618368392 0 -0.20478801310570496 1 I I -0.70710678118654746 0.70710678118654746 0.25 forward I I I I #
loop $-1 $-1 $173 $48 #
coedge $-1 $108 $108 $174 $175 reversed $68 $-1 #
face $-1 $176 $177 $38 $-1 $178 reversed single #
loop $-1 $-1 $179 $70 #
plane-surface $-1 -64.033936582537279 -4.5260268402779786 4.4911373552325244 -0.64278761758704617 0 0.76604443648966558 0.76604443648966558 0 0.64278761758704617 forward_v I I I I #
coedge $-1 $180 $181 $182 $183 reversed $71 $-1 #
face $-1 $-1 $184 $39 $-1 $185 forward single #
loop $-1 $186 $187 $73 #
cone-surface $-1 -59.275939377187981 -6.4657526289685414 5.478010963288046 0.64278761758704617 0 -0.76604443648966558 0.38302221824483279 0 0.32139380879352308 1 I I -0.70710678118654746 0.70710678118654746 0.5 forward I I I I #
loop $-1 $-1 $188 $50 #
coedge $-1 $117 $117 $189 $190 reversed $74 $-1 #
face $-1 $-1 $191 $40 $-1 $192 forward single #
loop $-1 $193 $194 $76 #
cone-surface $-1 -59.275939377187981 -2.5863010515874194 5.478010963288046 0.64278761758704617 0 -0.76604443648966558 0.38302221824483279 0 0.32139380879352308 1 I I -0.70710678118654746 0.70710678118654746 0.5 forward I I I I #
loop $-1 $-1 $195 $51 #
coedge $-1 $122 $122 $196 $197 reversed $77 $-1 #
face $-1 $198 $199 $41 $-1 $200 reversed single #
loop $-1 $-1 $201 $79 #
plane-surface $-1 -64.033936582537279 19.736451603812142 4.4911373552325244 -0.64278761758704617 0 0.76604443648966558 0.76604443648966558 0 0.64278761758704617 forward_v I I I I #
coedge $-1 $202 $203 $204 $205 reversed $80 $-1 #
face $-1 $-1 $206 $42 $-1 $207 forward single #
loop $-1 $208 $209 $82 #
cone-surface $-1 -59.275939377187981 17.796725815121583 5.478010963288046 0.64278761758704617 0 -0.76604443648966558 0.38302221824483279 0 0.32139380879352308 1 I I -0.70710678118654746 0.70710678118654746 0.5 forward I I I I #
loop $-1 $-1 $210 $53 #
coedge $-1 $131 $131 $211 $212 reversed $83 $-1 #
face $-1 $-1 $213 $43 $-1 $214 forward single #
loop $-1 $215 $216 $85 #
cone-surface $-1 -59.275939377187981 21.676177392502701 5.478010963288046 0.64278761758704617 0 -0.76604443648966558 0.38302221824483279 0 0.32139380879352308 1 I I -0.70710678118654746 0.70710678118654746 0.5 forward I I I I #
loop $-1 $-1 $217 $54 #
coedge $-1 $136 $136 $218 $219 reversed $86 $-1 #
face $-1 $220 $221 $33 $-1 $222 reversed single #
loop $-1 $-1 $223 $88 #
plane-surface $-1 0 -36.344002880369096 0 0 1 0 0 0 1 forward_v I I I I #
coedge $-1 $224 $225 $226 $227 forward $89 $-1 #
coedge $-1 $228 $91 $229 $230 forward $56 $-1 #
coedge $-1 $91 $228 $231 $232 forward $56 $-1 #
coedge $-1 $233 $234 $91 $144 reversed $235 $-1 #
edge $-1 $236 -36.344002880369096 $237 36.344002880369096 $143 $238 forward 7 unknown #
face $-1 $239 $240 $34 $-1 $241 forward single #
loop $-1 $-1 $242 $92 #
plane-surface $-1 64.033936582537308 0 0 -1 0 0 0 0 1 forward_v I I I I #
coedge $-1 $243 $244 $245 $246 forward $93 $-1 #
coedge $-1 $245 $95 $242 $247 reversed $59 $-1 #
coedge $-1 $95 $245 $248 $249 reversed $59 $-1 #
coedge $-1 $250 $251 $95 $152 reversed $240 $-1 #
edge $-1 $252 -64.033936582537308 $253 64.033936582537308 $151 $254 forward 7 unknown #
face $-1 $255 $256 $35 $-1 $257 reversed single #
loop $-1 $-1 $258 $96 #
plane-surface $-1 0 42.384765098508574 -6.9923547333889928 0 0 1 1 0 0 forward_v I I I I #
coedge $-1 $259 $260 $157 $261 forward $97 $-1 #
coedge $-1 $262 $99 $156 $261 reversed $62 $-1 #
coedge $-1 $99 $262 $263 $264 reversed $62 $-1 #
coedge $-1 $258 $265 $99 $160 reversed $154 $-1 #
edge $-1 $266 -64.033936582537308 $267 64.033936582537308 $159 $268 forward 7 unknown #
face $-1 $269 $270 $36 $-1 $271 forward single #
loop $-1 $-1 $272 $100 #
plane-surface $-1 95.484284921728488 -13.310276501896254 185.30107246838921 0 1 0 0.81915205242281985 0 0.57357642473473569 forward_v I I I I #
coedge $-1 $273 $274 $275 $276 reversed $101 $-1 #
coedge $-1 $166 $103 $277 $278 reversed $65 $-1 #
coedge $-1 $103 $165 $273 $279 reversed $65 $-1 #
coedge $-1 $275 $280 $103 $168 forward $270 $-1 #
edge $-1 $281 -16.291794121673064 $282 -14.152620783636081 $167 $283 forward 7 unknown #
loop $-1 $-1 $174 $104 #
plane-surface $-1 -9.4227762308677541 -10.120411909552978 111.84435965498412 0.81915205242281985 0 0.57357642473473569 0.57357642473473569 0 -0.81915205242281985 forward_v I I I I #
loop $-1 $-1 $284 $67 #
coedge $-1 $172 $172 $173 $285 reversed $105 $-1 #
coedge $-1 $173 $173 $172 $285 forward $107 $-1 #
coedge $-1 $174 $174 $108 $175 forward $169 $-1 #
edge $-1 $286 0 $286 6.2831853071796004 $174 $287 forward 7 unknown #
face $-1 $288 $289 $38 $-1 $290 reversed single #
loop $-1 $-1 $291 $109 #
plane-surface $-1 -146.35437966375559 0 102.59681908640208 0 -1 0 0.64278761758704617 0 -0.76604443648966558 forward_v I I I I #
coedge $-1 $292 $293 $294 $295 reversed $110 $-1 #
coedge $-1 $181 $112 $296 $297 reversed $71 $-1 #
coedge $-1 $112 $180 $292 $298 reversed $71 $-1 #
coedge $-1 $294 $299 $112 $183 forward $300 $-1 #
edge $-1 $301 9.1432532493404892 $302 15.699348686083034 $182 $303 forward 7 unknown #
loop $-1 $-1 $189 $113 #
plane-surface $-1 -64.033936582537279 -4.5260268402779786 4.4911373552325244 -0.64278761758704617 0 0.76604443648966558 0.76604443648966558 0 0.64278761758704617 forward_v I I I I #
loop $-1 $-1 $304 $73 #
coedge $-1 $187 $187 $188 $305 reversed $114 $-1 #
coedge $-1 $188 $188 $187 $305 forward $116 $-1 #
coedge $-1 $189 $189 $117 $190 forward $184 $-1 #
edge $-1 $306 0 $306 6.2831853071796004 $189 $307 forward 7 unknown #
loop $-1 $-1 $196 $118 #
plane-surface $-1 -64.033936582537279 -4.5260268402779786 4.4911373552325244 -0.64278761758704617 0 0.76604443648966558 0.76604443648966558 0 0.64278761758704617 forward_v I I I I #
loop $-1 $-1 $308 $76 #
coedge $-1 $194 $194 $195 $309 reversed $119 $-1 #
coedge $-1 $195 $195 $194 $309 forward $121 $-1 #
coedge $-1 $196 $196 $122 $197 forward $191 $-1 #
edge $-1 $310 0 $310 6.2831853071796004 $196 $311 forward 7 unknown #
face $-1 $312 $313 $41 $-1 $314 forward single #
loop $-1 $-1 $315 $123 #
plane-surface $-1 -146.35437966375559 24.262478444090121 102.59681908640208 0 -1 0 0.64278761758704617 0 -0.76604443648966558 forward_v I I I I #
coedge $-1 $316 $317 $318 $319 reversed $124 $-1 #
coedge $-1 $203 $126 $320 $321 reversed $80 $-1 #
coedge $-1 $126 $202 $316 $322 reversed $80 $-1 #
coedge $-1 $318 $323 $126 $205 forward $313 $-1 #
edge $-1 $324 9.1432532493404892 $325 15.699348686083034 $204 $326 forward 7 unknown #
loop $-1 $-1 $211 $127 #
plane-surface $-1 -64.033936582537279 19.736451603812142 4.4911373552325244 -0.64278761758704617 0 0.76604443648966558 0.76604443648966558 0 0.64278761758704617 forward_v I I I I #
loop $-1 $-1 $327 $82 #
coedge $-1 $209 $209 $210 $328 reversed $128 $-1 #
coedge $-1 $210 $210 $209 $328 forward $130 $-1 #
coedge $-1 $211 $211 $131 $212 forward $206 $-1 #
edge $-1 $329 0 $329 6.2831853071796004 $211 $330 forward 7 unknown #
loop $-1 $-1 $218 $132 #
plane-surface $-1 -64.033936582537279 19.736451603812142 4.4911373552325244 -0.64278761758704617 0 0.76604443648966558 0.76604443648966558 0 0.64278761758704617 forward_v I I I I #
loop $-1 $-1 $331 $85 #
coedge $-1 $216 $216 $217 $332 reversed $133 $-1 #
coedge $-1 $217 $217 $216 $332 forward $135 $-1 #
coedge $-1 $218 $218 $136 $219 forward $213 $-1 #
edge $-1 $333 0 $333 6.2831853071796004 $218 $334 forward 7 unknown #
face $-1 $335 $336 $33 $-1 $337 reversed single #
loop $-1 $-1 $338 $137 #
plane-surface $-1 -64.033936582537308 0 0 1 0 0 0 0 -1 forward_v I I I I #
coedge $-1 $231 $339 $233 $340 reversed $138 $-1 #
coedge $-1 $341 $140 $339 $342 forward $89 $-1 #
coedge $-1 $140 $341 $343 $344 forward $89 $-1 #
coedge $-1 $234 $233 $140 $227 reversed $235 $-1 #
edge $-1 $345 -36.344002880369096 $346 36.344002880369096 $226 $347 forward 7 unknown #
coedge $-1 $142 $141 $348 $349 forward $56 $-1 #
coedge $-1 $350 $351 $141 $230 reversed $336 $-1 #
edge $-1 $237 -64.033936582537308 $352 64.033936582537308 $229 $353 forward 7 unknown #
coedge $-1 $354 $223 $142 $232 reversed $138 $-1 #
edge $-1 $355 -64.033936582537308 $236 64.033936582537308 $231 $356 forward 7 unknown #
coedge $-1 $226 $143 $223 $340 forward $235 $-1 #
coedge $-1 $143 $226 $350 $357 reversed $235 $-1 #
loop $-1 $-1 $233 $335 #
vertex $-1 $144 $358 #
vertex $-1 $144 $359 #
straight-curve $-1 64.033936582537308 0 9.9923547333889928 0 1 0 I I #
face $-1 $360 $361 $34 $-1 $362 reversed single #
loop $-1 $-1 $251 $145 #
plane-surface $-1 0 -42.384765098508581 -6.9923547333889928 0 0 1 1 0 0 forward_v I I I I #
coedge $-1 $363 $364 $149 $247 forward $146 $-1 #
coedge $-1 $365 $148 $364 $366 forward $93 $-1 #
coedge $-1 $148 $365 $367 $368 forward $93 $-1 #
coedge $-1 $150 $149 $148 $246 reversed $59 $-1 #
edge $-1 $369 -64.033936582537308 $370 64.033936582537308 $148 $371 forward 7 unknown #
edge $-1 $370 -9.9923547333889928 $253 -6.9923547333889928 $242 $372 forward 7 unknown #
coedge $-1 $367 $373 $150 $249 forward $374 $-1 #
edge $-1 $252 6.9923547333889928 $369 9.9923547333889928 $248 $375 forward 7 unknown #
coedge $-1 $376 $151 $373 $377 forward $240 $-1 #
coedge $-1 $151 $376 $363 $378 forward $240 $-1 #
vertex $-1 $249 $379 #
vertex $-1 $378 $380 #
straight-curve $-1 0 -36.344002880369096 -6.9923547333889928 1 0 0 I I #
face $-1 $381 $382 $35 $-1 $383 reversed single #
loop $-1 $-1 $384 $153 #
plane-surface $-1 0 48.425527316648058 -8.4923547333889928 0 -1 0 0 0 -1 forward_v I I I I #
coedge $-1 $385 $159 $386 $387 forward $154 $-1 #
coedge $-1 $388 $156 $265 $389 reversed $97 $-1 #
coedge $-1 $156 $388 $390 $391 reversed $97 $-1 #
edge $-1 $392 -9.9923547333889928 $267 -6.9923547333889928 $156 $393 forward 7 unknown #
coedge $-1 $158 $157 $394 $395 reversed $62 $-1 #
coedge $-1 $396 $386 $158 $264 forward $397 $-1 #
edge $-1 $266 6.9923547333889928 $398 9.9923547333889928 $263 $399 forward 7 unknown #
coedge $-1 $159 $385 $259 $389 forward $154 $-1 #
vertex $-1 $264 $400 #
vertex $-1 $389 $401 #
straight-curve $-1 0 36.344002880369096 -6.9923547333889928 -1 0 0 I I #
face $-1 $-1 $402 $36 $-1 $403 reversed single #
loop $-1 $-1 $167 $161 #
plane-surface $-1 0 0 9.9923547333889928 0 0 1 1 0 0 forward_v I I I I #
coedge $-1 $404 $405 $406 $407 reversed $162 $-1 #
coedge $-1 $408 $164 $166 $279 forward $101 $-1 #
coedge $-1 $164 $408 $404 $409 forward $101 $-1 #
coedge $-1 $406 $167 $164 $276 forward $270 $-1 #
edge $-1 $282 1.8703413624332121 $410 8.2500705471197655 $275 $411 forward 7 unknown #
coedge $-1 $412 $413 $165 $278 forward $402 $-1 #
edge $-1 $414 -85.713237731806686 $281 -82.658181500805611 $277 $415 forward 7 unknown #
edge $-1 $282 124.3383381880638 $414 128.06787316507459 $166 $416 forward 7 unknown #
coedge $-1 $167 $406 $412 $417 forward $270 $-1 #
vertex $-1 $278 $418 #
vertex $-1 $168 $419 #
straight-curve $-1 47.742142460864244 -6.930547317209701 9.9923547333889928 -1 0 0 I I #
coedge $-1 $284 $284 $-1 $420 reversed $171 $-1 #
edge $-1 $421 0 $421 6.2831853071796004 $172 $422 forward 7 unknown #
vertex $-1 $175 $423 #
ellipse-curve $-1 62.964349913518802 -10.120411909552978 8.464826617888459 0.81915205242281985 0 0.57357642473473569 0.28678821236736785 0 -0.40957602621140993 1 I I #
face $-1 $-1 $300 $38 $-1 $424 forward single #
loop $-1 $-1 $425 $176 #
plane-surface $-1 -64.033936582537308 0 0 1 0 0 0 0 -1 forward_v I I I I #
coedge $-1 $426 $427 $428 $429 reversed $177 $-1 #
coedge $-1 $430 $179 $181 $298 forward $110 $-1 #
coedge $-1 $179 $430 $426 $431 forward $110 $-1 #
coedge $-1 $428 $182 $179 $295 forward $300 $-1 #
edge $-1 $302 -6.789040260416968 $432 2.2630134201389893 $294 $433 forward 7 unknown #
coedge $-1 $434 $435 $180 $297 forward $289 $-1 #
edge $-1 $436 -46.807272187968536 $301 -41.306054809812046 $296 $437 forward 7 unknown #
edge $-1 $302 -8.5583748467455418 $436 3.7186864825251173e-014 $181 $438 forward 7 unknown #
coedge $-1 $182 $428 $434 $439 forward $300 $-1 #
loop $-1 $-1 $428 $288 #
vertex $-1 $297 $440 #
vertex $-1 $183 $441 #
straight-curve $-1 -73.177189831877797 -9.0520536805559573 9.9923547333889928 1 0 0 I I #
coedge $-1 $304 $304 $-1 $442 reversed $186 $-1 #
edge $-1 $443 0 $443 6.2831853071796004 $187 $444 forward 7 unknown #
vertex $-1 $190 $445 #
ellipse-curve $-1 -60.755888864166039 -6.4657526289685414 7.2417460443107435 -0.64278761758704617 0 0.76604443648966558 0.76604443648966558 0 0.64278761758704617 1 I I #
coedge $-1 $308 $308 $-1 $446 reversed $193 $-1 #
edge $-1 $447 0 $447 6.2831853071796004 $194 $448 forward 7 unknown #
vertex $-1 $197 $449 #
ellipse-curve $-1 -60.755888864166039 -2.5863010515874194 7.2417460443107435 -0.64278761758704617 0 0.76604443648966558 0.76604443648966558 0 0.64278761758704617 1 I I #
face $-1 $-1 $450 $41 $-1 $451 reversed single #
loop $-1 $-1 $204 $198 #
plane-surface $-1 0 0 9.9923547333889928 0 0 1 1 0 0 forward_v I I I I #
coedge $-1 $452 $453 $454 $455 reversed $199 $-1 #
coedge $-1 $456 $201 $203 $322 forward $124 $-1 #
coedge $-1 $201 $456 $452 $457 forward $124 $-1 #
coedge $-1 $454 $204 $201 $319 forward $313 $-1 #
edge $-1 $325 5.3421989616280925 $458 14.39425264218405 $318 $459 forward 7 unknown #
coedge $-1 $460 $461 $202 $321 forward $450 $-1 #
edge $-1 $462 -46.807272187968536 $324 -41.306054809812046 $320 $463 forward 7 unknown #
edge $-1 $325 -8.5583748467455418 $462 3.7186864825251173e-014 $203 $464 forward 7 unknown #
coedge $-1 $204 $454 $460 $465 forward $313 $-1 #
vertex $-1 $205 $466 #
vertex $-1 $205 $467 #
straight-curve $-1 -73.177189831877797 15.210424763534164 9.9923547333889928 1 0 0 I I #
coedge $-1 $327 $327 $-1 $468 reversed $208 $-1 #
edge $-1 $469 0 $469 6.2831853071796004 $209 $470 forward 7 unknown #
vertex $-1 $212 $471 #
ellipse-curve $-1 -60.755888864166039 17.796725815121583 7.2417460443107435 -0.64278761758704617 0 0.76604443648966558 0.76604443648966558 0 0.64278761758704617 1 I I #
coedge $-1 $331 $331 $-1 $472 reversed $215 $-1 #
edge $-1 $473 0 $473 6.2831853071796004 $216 $474 forward 7 unknown #
vertex $-1 $219 $475 #
ellipse-curve $-1 -60.755888864166039 21.676177392502701 7.2417460443107435 -0.64278761758704617 0 0.76604443648966558 0.76604443648966558 0 0.64278761758704617 1 I I #
face $-1 $-1 $235 $33 $-1 $476 reversed single #
loop $-1 $-1 $351 $220 #
plane-surface $-1 0 36.344002880369096 0 0 -1 0 0 0 -1 forward_v I I I I #
coedge $-1 $477 $348 $351 $478 forward $221 $-1 #
coedge $-1 $223 $354 $224 $342 reversed $138 $-1 #
edge $-1 $236 -9.9923547333889928 $346 9.9923547333889928 $233 $479 forward 7 unknown #
coedge $-1 $225 $224 $477 $480 forward $89 $-1 #
edge $-1 $346 -64.033936582537308 $481 64.033936582537308 $339 $482 forward 7 unknown #
coedge $-1 $351 $350 $225 $344 reversed $336 $-1 #
edge $-1 $483 -64.033936582537308 $345 64.033936582537308 $343 $484 forward 7 unknown #
vertex $-1 $227 $485 #
vertex $-1 $340 $486 #
straight-curve $-1 64.033936582537308 0 -9.9923547333889928 0 -1 0 I I #
coedge $-1 $338 $487 $228 $349 reversed $221 $-1 #
edge $-1 $352 -36.344002880369096 $355 36.344002880369096 $348 $488 forward 7 unknown #
coedge $-1 $343 $229 $234 $357 forward $336 $-1 #
coedge $-1 $229 $343 $338 $478 reversed $336 $-1 #
vertex $-1 $230 $489 #
straight-curve $-1 0 36.344002880369096 9.9923547333889928 -1 0 0 I I #
coedge $-1 $339 $231 $487 $490 forward $138 $-1 #
vertex $-1 $349 $491 #
straight-curve $-1 0 -36.344002880369096 9.9923547333889928 1 0 0 I I #
edge $-1 $237 -9.9923547333889928 $345 9.9923547333889928 $234 $492 forward 7 unknown #
point $-1 64.033936582537308 -36.344002880369096 9.9923547333889928 #
point $-1 64.033936582537308 36.344002880369096 9.9923547333889928 #
face $-1 $-1 $374 $34 $-1 $493 reversed single #
loop $-1 $-1 $494 $239 #
plane-surface $-1 0 -48.425527316648065 -8.4923547333889928 0 1 0 0 0 1 forward_v I I I I #
coedge $-1 $495 $242 $251 $378 reversed $146 $-1 #
coedge $-1 $242 $495 $243 $366 reversed $146 $-1 #
coedge $-1 $244 $243 $496 $497 forward $93 $-1 #
edge $-1 $370 36.344002880369096 $498 48.425527316648065 $364 $499 forward 7 unknown #
coedge $-1 $500 $248 $244 $368 reversed $374 $-1 #
edge $-1 $501 -48.425527316648065 $369 -36.344002880369096 $367 $502 forward 7 unknown #
vertex $-1 $249 $503 #
vertex $-1 $366 $504 #
straight-curve $-1 0 -36.344002880369096 -9.9923547333889928 1 0 0 I I #
straight-curve $-1 64.033936582537308 -36.344002880369096 0 0 0 1 I I #
coedge $-1 $248 $500 $250 $377 reversed $374 $-1 #
loop $-1 $-1 $248 $360 #
straight-curve $-1 -64.033936582537308 -36.344002880369096 0 0 0 -1 I I #
coedge $-1 $251 $250 $505 $506 forward $240 $-1 #
edge $-1 $252 -6.0407622181394842 $507 6.0407622181394842 $373 $508 forward 7 unknown #
edge $-1 $509 -6.0407622181394842 $253 6.0407622181394842 $363 $510 forward 7 unknown #
point $-1 -64.033936582537308 -36.344002880369096 -6.9923547333889928 #
point $-1 64.033936582537308 -36.344002880369096 -6.9923547333889928 #
face $-1 $-1 $397 $35 $-1 $511 reversed single #
loop $-1 $-1 $394 $255 #
plane-surface $-1 0 0 -9.9923547333889928 0 0 1 1 0 0 forward_v I I I I #
coedge $-1 $512 $513 $514 $515 forward $256 $-1 #
coedge $-1 $265 $258 $513 $516 forward $154 $-1 #
coedge $-1 $263 $514 $258 $387 reversed $397 $-1 #
edge $-1 $266 -6.0407622181394842 $517 6.0407622181394842 $386 $518 forward 7 unknown #
coedge $-1 $260 $259 $519 $520 forward $97 $-1 #
edge $-1 $521 -6.0407622181394842 $267 6.0407622181394842 $259 $522 forward 7 unknown #
coedge $-1 $523 $394 $260 $391 forward $382 $-1 #
edge $-1 $392 -6.0407622181394771 $524 6.0407622181394842 $260 $525 forward 7 unknown #
vertex $-1 $391 $526 #
straight-curve $-1 -64.033936582537308 36.344002880369096 0 0 0 1 I I #
coedge $-1 $390 $527 $262 $395 forward $382 $-1 #
edge $-1 $398 -64.033936582537308 $392 64.033936582537308 $394 $528 forward 7 unknown #
coedge $-1 $514 $263 $527 $529 reversed $397 $-1 #
loop $-1 $-1 $263 $381 #
vertex $-1 $264 $530 #
straight-curve $-1 64.033936582537308 36.344002880369096 0 0 0 -1 I I #
point $-1 64.033936582537308 36.344002880369089 -6.9923547333889928 #
point $-1 -64.033936582537308 36.344002880369089 -6.9923547333889928 #
loop $-1 $-1 $277 $269 #
plane-surface $-1 64.033936582537308 0 0 -1 0 0 0 0 1 forward_v I I I I #
coedge $-1 $405 $272 $274 $409 reversed $162 $-1 #
coedge $-1 $272 $404 $531 $532 reversed $162 $-1 #
coedge $-1 $280 $275 $272 $407 forward $270 $-1 #
edge $-1 $410 14.152620783636081 $533 16.291794121673064 $406 $534 forward 7 unknown #
coedge $-1 $274 $273 $413 $535 reversed $101 $-1 #
edge $-1 $536 -128.06787316507459 $410 -124.3383381880638 $404 $537 forward 7 unknown #
vertex $-1 $276 $538 #
straight-curve $-1 61.894763244500325 -5.0602059547764888 9.9923547333889928 0 -1 0 I I #
coedge $-1 $531 $277 $280 $417 reversed $402 $-1 #
coedge $-1 $277 $531 $408 $535 forward $402 $-1 #
vertex $-1 $278 $539 #
straight-curve $-1 64.033936582537308 -6.930547317209701 92.650536234194604 0 0 1 I I #
straight-curve $-1 -9.4227762308677541 -6.930547317209701 111.84435965498412 0.57357642473473569 0 -0.81915205242281985 I I #
edge $-1 $533 -13.310276501896254 $281 -6.930547317209701 $412 $540 forward 7 unknown #
point $-1 64.033936582537308 -6.930547317209701 9.9923547333889928 #
point $-1 61.894763244500325 -6.930547317209701 9.9923547333889928 #
edge $-1 $541 1 $541 0 $284 $-1 forward 7 unknown #
vertex $-1 $285 $542 #
ellipse-curve $-1 61.875292922164014 -10.120411909552978 7.702260726017605 0.81915205242281985 0 0.57357642473473569 0.28678821236736785 0 -0.40957602621140993 1 I I #
point $-1 63.251138125886143 -10.120411909552978 8.0552505916770301 #
plane-surface $-1 0 0 9.9923547333889928 0 0 1 1 0 0 forward_v I I I I #
coedge $-1 $435 $434 $427 $543 forward $289 $-1 #
coedge $-1 $427 $291 $293 $431 reversed $177 $-1 #
coedge $-1 $291 $426 $425 $543 reversed $177 $-1 #
coedge $-1 $299 $294 $291 $429 forward $300 $-1 #
edge $-1 $432 -15.699348686083034 $544 -9.1432532493404892 $428 $545 forward 7 unknown #
coedge $-1 $293 $292 $435 $546 reversed $110 $-1 #
edge $-1 $547 -3.7186864825251173e-014 $432 8.5583748467455418 $426 $548 forward 7 unknown #
vertex $-1 $295 $549 #
straight-curve $-1 -57.477841145794756 -2.2630134201389893 9.9923547333889928 0 1 0 I I #
coedge $-1 $425 $296 $299 $439 reversed $289 $-1 #
coedge $-1 $296 $425 $430 $546 forward $289 $-1 #
vertex $-1 $297 $550 #
straight-curve $-1 -64.033936582537308 -9.0520536805559573 51.298409543201039 0 0 1 I I #
straight-curve $-1 -64.033936582537279 -9.0520536805559573 4.4911373552325244 -0.76604443648966558 0 -0.64278761758704617 I I #
edge $-1 $544 0 $301 9.0520536805559573 $434 $551 forward 7 unknown #
point $-1 -64.033936582537308 -9.0520536805559573 9.9923547333889928 #
point $-1 -57.477841145794763 -9.0520536805559573 9.9923547333889928 #
edge $-1 $552 1 $552 0 $304 $-1 forward 7 unknown #
vertex $-1 $305 $553 #
ellipse-curve $-1 -59.597333185981505 -6.4657526289685414 5.8610331815328784 -0.64278761758704617 0 0.76604443648966558 0.76604443648966558 0 0.64278761758704617 1 I I #
point $-1 -59.989844427676395 -6.4657526289685414 7.8845336618978159 #
edge $-1 $554 1 $554 0 $308 $-1 forward 7 unknown #
vertex $-1 $309 $555 #
ellipse-curve $-1 -59.597333185981505 -2.5863010515874194 5.8610331815328784 -0.64278761758704617 0 0.76604443648966558 0.76604443648966558 0 0.64278761758704617 1 I I #
point $-1 -59.989844427676395 -2.5863010515874194 7.8845336618978159 #
loop $-1 $-1 $320 $312 #
plane-surface $-1 -64.033936582537308 0 0 1 0 0 0 0 -1 forward_v I I I I #
coedge $-1 $453 $315 $317 $457 reversed $199 $-1 #
coedge $-1 $315 $452 $556 $557 reversed $199 $-1 #
coedge $-1 $323 $318 $315 $455 forward $313 $-1 #
edge $-1 $458 -15.699348686083034 $558 -9.1432532493404892 $454 $559 forward 7 unknown #
coedge $-1 $317 $316 $461 $560 reversed $124 $-1 #
edge $-1 $561 -3.7186864825251173e-014 $458 8.5583748467455418 $452 $562 forward 7 unknown #
vertex $-1 $319 $563 #
straight-curve $-1 -57.477841145794756 9.8682258019060711 9.9923547333889928 0 1 0 I I #
coedge $-1 $556 $320 $323 $465 reversed $450 $-1 #
coedge $-1 $320 $556 $456 $560 forward $450 $-1 #
vertex $-1 $321 $564 #
straight-curve $-1 -64.033936582537308 15.210424763534164 51.298409543201039 0 0 1 I I #
straight-curve $-1 -64.033936582537279 15.210424763534164 4.4911373552325244 -0.76604443648966558 0 -0.64278761758704617 I I #
edge $-1 $558 -24.262478444090121 $324 -15.210424763534164 $460 $565 forward 7 unknown #
point $-1 -64.033936582537308 15.210424763534164 9.9923547333889928 #
point $-1 -57.477841145794763 15.210424763534164 9.9923547333889928 #
edge $-1 $566 1 $566 0 $327 $-1 forward 7 unknown #
vertex $-1 $328 $567 #
ellipse-curve $-1 -59.597333185981505 17.796725815121583 5.8610331815328784 -0.64278761758704617 0 0.76604443648966558 0.76604443648966558 0 0.64278761758704617 1 I I #
point $-1 -59.989844427676395 17.796725815121583 7.8845336618978159 #
edge $-1 $568 1 $568 0 $331 $-1 forward 7 unknown #
vertex $-1 $332 $569 #
ellipse-curve $-1 -59.597333185981505 21.676177392502701 5.8610331815328784 -0.64278761758704617 0 0.76604443648966558 0.76604443648966558 0 0.64278761758704617 1 I I #
point $-1 -59.989844427676395 21.676177392502701 7.8845336618978159 #
plane-surface $-1 64.033936582537308 0 0 -1 0 0 0 0 1 forward_v I I I I #
coedge $-1 $487 $338 $341 $480 reversed $221 $-1 #
edge $-1 $352 -9.9923547333889928 $483 9.9923547333889928 $351 $570 forward 7 unknown #
straight-curve $-1 64.033936582537308 -36.344002880369096 0 0 0 -1 I I #
edge $-1 $481 -36.344002880369096 $483 36.344002880369096 $477 $571 forward 7 unknown #
vertex $-1 $480 $572 #
straight-curve $-1 0 -36.344002880369096 -9.9923547333889928 -1 0 0 I I #
vertex $-1 $344 $573 #
straight-curve $-1 0 36.344002880369096 -9.9923547333889928 1 0 0 I I #
point $-1 64.033936582537308 36.344002880369096 -9.9923547333889928 #
point $-1 64.033936582537308 -36.344002880369096 -9.9923547333889928 #
coedge $-1 $348 $477 $354 $490 reversed $221 $-1 #
straight-curve $-1 -64.033936582537308 0 9.9923547333889928 0 -1 0 I I #
point $-1 -64.033936582537308 36.344002880369096 9.9923547333889928 #
edge $-1 $355 -9.9923547333889928 $481 9.9923547333889928 $487 $574 forward 7 unknown #
point $-1 -64.033936582537308 -36.344002880369096 9.9923547333889928 #
straight-curve $-1 64.033936582537308 36.344002880369096 0 0 0 -1 I I #
plane-surface $-1 -64.033936582537308 0 0 1 0 0 0 0 -1 forward_v I I I I #
coedge $-1 $496 $505 $500 $575 forward $361 $-1 #
coedge $-1 $364 $363 $576 $577 forward $146 $-1 #
coedge $-1 $576 $494 $365 $497 reversed $361 $-1 #
edge $-1 $498 -64.033936582537308 $501 64.033936582537308 $496 $578 forward 7 unknown #
vertex $-1 $577 $579 #
straight-curve $-1 64.033936582537308 0 -9.9923547333889928 0 -1 0 I I #
coedge $-1 $373 $367 $494 $575 reversed $374 $-1 #
vertex $-1 $368 $580 #
straight-curve $-1 -64.033936582537308 0 -9.9923547333889928 0 1 0 I I #
point $-1 -64.033936582537308 -36.344002880369096 -9.9923547333889928 #
point $-1 64.033936582537308 -36.344002880369096 -9.9923547333889928 #
coedge $-1 $494 $576 $376 $506 reversed $361 $-1 #
edge $-1 $507 -64.033936582537308 $509 64.033936582537308 $505 $581 forward 7 unknown #
vertex $-1 $377 $582 #
straight-curve $-1 -64.033936582537308 -42.384765098508581 -6.9923547333889928 0 -1 0 I I #
vertex $-1 $378 $583 #
straight-curve $-1 64.033936582537308 -42.384765098508581 -6.9923547333889928 0 1 0 I I #
plane-surface $-1 64.033936582537308 0 0 -1 0 0 0 0 1 forward_v I I I I #
coedge $-1 $519 $384 $523 $584 reversed $256 $-1 #
coedge $-1 $384 $519 $385 $516 reversed $256 $-1 #
coedge $-1 $386 $396 $384 $515 reversed $397 $-1 #
edge $-1 $517 -1.5 $585 1.5 $514 $586 forward 7 unknown #
edge $-1 $517 -64.033936582537308 $521 64.033936582537308 $513 $587 forward 7 unknown #
vertex $-1 $387 $588 #
straight-curve $-1 64.033936582537308 42.384765098508574 -6.9923547333889928 0 1 0 I I #
coedge $-1 $513 $512 $388 $520 reversed $256 $-1 #
edge $-1 $521 -1.5 $524 1.5 $519 $589 forward 7 unknown #
vertex $-1 $516 $590 #
straight-curve $-1 -64.033936582537308 42.384765098508574 -6.9923547333889928 0 -1 0 I I #
coedge $-1 $527 $390 $512 $584 forward $382 $-1 #
vertex $-1 $584 $591 #
straight-curve $-1 -64.033936582537308 42.384765098508574 -9.9923547333889928 0 1 0 I I #
point $-1 -64.033936582537308 36.344002880369096 -9.9923547333889928 #
coedge $-1 $394 $523 $396 $529 forward $382 $-1 #
straight-curve $-1 0 36.344002880369096 -9.9923547333889928 -1 0 0 I I #
edge $-1 $585 -48.425527316648058 $398 -36.344002880369096 $396 $592 forward 7 unknown #
point $-1 64.033936582537308 36.344002880369096 -9.9923547333889928 #
coedge $-1 $413 $412 $405 $532 forward $402 $-1 #
edge $-1 $533 82.658181500805611 $536 85.713237731806686 $531 $593 forward 7 unknown #
vertex $-1 $417 $594 #
straight-curve $-1 47.742142460864244 -13.310276501896254 9.9923547333889928 1 0 0 I I #
edge $-1 $536 -8.2500705471197655 $414 -1.8703413624332121 $413 $595 forward 7 unknown #
vertex $-1 $535 $596 #
straight-curve $-1 -9.4227762308677541 -13.310276501896254 111.84435965498412 -0.57357642473473569 0 0.81915205242281985 I I #
point $-1 61.894763244500325 -13.310276501896254 9.9923547333889928 #
point $-1 64.033936582537308 -6.930547317209701 6.9372985023879181 #
straight-curve $-1 64.033936582537308 0 9.9923547333889928 0 1 0 I I #
vertex $-1 $420 $597 #
point $-1 62.162081134531384 -10.120411909552978 7.2926846998061947 #
edge $-1 $544 41.306054809812046 $547 46.807272187968536 $425 $598 forward 7 unknown #
vertex $-1 $439 $599 #
straight-curve $-1 -73.177189831877797 0 9.9923547333889928 -1 0 0 I I #
edge $-1 $547 -2.2630134201389893 $436 6.789040260416968 $435 $600 forward 7 unknown #
vertex $-1 $546 $601 #
straight-curve $-1 -64.033936582537279 0 4.4911373552325244 0.76604443648966558 0 0.64278761758704617 I I #
point $-1 -57.477841145794763 0 9.9923547333889928 #
point $-1 -64.033936582537308 -9.0520536805559573 4.4911373552325005 #
straight-curve $-1 -64.033936582537308 0 9.9923547333889928 0 -1 0 I I #
vertex $-1 $442 $602 #
point $-1 -58.83128874949184 -6.4657526289685414 6.5038207991199251 #
vertex $-1 $446 $603 #
point $-1 -58.83128874949184 -2.5863010515874194 6.5038207991199251 #
coedge $-1 $461 $460 $453 $557 forward $450 $-1 #
edge $-1 $558 41.306054809812046 $561 46.807272187968536 $556 $604 forward 7 unknown #
vertex $-1 $465 $605 #
straight-curve $-1 -73.177189831877797 24.262478444090121 9.9923547333889928 -1 0 0 I I #
edge $-1 $561 -14.39425264218405 $462 -5.3421989616280925 $461 $606 forward 7 unknown #
vertex $-1 $560 $607 #
straight-curve $-1 -64.033936582537279 24.262478444090121 4.4911373552325244 0.76604443648966558 0 0.64278761758704617 I I #
point $-1 -57.477841145794763 24.262478444090121 9.9923547333889928 #
point $-1 -64.033936582537308 15.210424763534164 4.4911373552325005 #
straight-curve $-1 -64.033936582537308 0 9.9923547333889928 0 -1 0 I I #
vertex $-1 $468 $608 #
point $-1 -58.83128874949184 17.796725815121583 6.5038207991199251 #
vertex $-1 $472 $609 #
point $-1 -58.83128874949184 21.676177392502701 6.5038207991199251 #
straight-curve $-1 -64.033936582537308 36.344002880369096 0 0 0 -1 I I #
straight-curve $-1 -64.033936582537308 0 -9.9923547333889928 0 1 0 I I #
point $-1 -64.033936582537308 -36.344002880369096 -9.9923547333889928 #
point $-1 -64.033936582537308 36.344002880369096 -9.9923547333889928 #
straight-curve $-1 -64.033936582537308 -36.344002880369096 0 0 0 -1 I I #
edge $-1 $507 -1.5 $501 1.5 $500 $610 forward 7 unknown #
coedge $-1 $505 $496 $495 $577 reversed $361 $-1 #
edge $-1 $509 -1.5 $498 1.5 $495 $611 forward 7 unknown #
straight-curve $-1 0 -48.425527316648065 -9.9923547333889928 -1 0 0 I I #
point $-1 64.033936582537308 -48.425527316648065 -9.9923547333889928 #
point $-1 -64.033936582537308 -48.425527316648065 -9.9923547333889928 #
straight-curve $-1 0 -48.425527316648065 -6.9923547333889928 1 0 0 I I #
point $-1 -64.033936582537308 -48.425527316648065 -6.9923547333889928 #
point $-1 64.033936582537308 -48.425527316648065 -6.9923547333889928 #
edge $-1 $524 -64.033936582537308 $585 64.033936582537308 $512 $612 forward 7 unknown #
vertex $-1 $529 $613 #
straight-curve $-1 64.033936582537308 48.425527316648058 -8.4923547333889928 0 0 -1 I I #
straight-curve $-1 0 48.425527316648058 -6.9923547333889928 -1 0 0 I I #
point $-1 64.033936582537308 48.425527316648058 -6.9923547333889928 #
straight-curve $-1 -64.033936582537308 48.425527316648058 -8.4923547333889928 0 0 -1 I I #
point $-1 -64.033936582537308 48.425527316648058 -6.9923547333889928 #
point $-1 -64.033936582537308 48.425527316648058 -9.9923547333889928 #
straight-curve $-1 64.033936582537308 0 -9.9923547333889928 0 -1 0 I I #
straight-curve $-1 64.033936582537308 -13.310276501896254 92.650536234194604 0 0 -1 I I #
point $-1 64.033936582537308 -13.310276501896254 9.9923547333889928 #
straight-curve $-1 64.033936582537308 -5.0602059547764888 6.9372985023879039 0 1 0 I I #
point $-1 64.033936582537308 -13.310276501896254 6.9372985023879181 #
point $-1 61.465716895952603 -10.120411909552978 7.4154725136502373 #
straight-curve $-1 -64.033936582537308 0 51.298409543201039 0 0 -1 I I #
point $-1 -64.033936582537308 0 9.9923547333889928 #
straight-curve $-1 -64.033936582537308 -2.2630134201389893 4.4911373552324978 0 -1 0 I I #
point $-1 -64.033936582537308 0 4.4911373552325005 #
point $-1 -58.954545568394458 -6.4657526289685414 5.0949887450432136 #
point $-1 -58.954545568394458 -2.5863010515874194 5.0949887450432136 #
straight-curve $-1 -64.033936582537308 24.262478444090121 51.298409543201039 0 0 -1 I I #
point $-1 -64.033936582537308 24.262478444090121 9.9923547333889928 #
straight-curve $-1 -64.033936582537308 9.8682258019060711 4.4911373552324978 0 -1 0 I I #
point $-1 -64.033936582537308 24.262478444090121 4.4911373552325005 #
point $-1 -58.954545568394458 17.796725815121583 5.0949887450432136 #
point $-1 -58.954545568394458 21.676177392502701 5.0949887450432136 #
straight-curve $-1 -64.033936582537308 -48.425527316648065 -8.4923547333889928 0 0 -1 I I #
straight-curve $-1 64.033936582537308 -48.425527316648065 -8.4923547333889928 0 0 -1 I I #
straight-curve $-1 0 48.425527316648058 -9.9923547333889928 1 0 0 I I #
point $-1 64.033936582537308 48.425527316648058 -9.9923547333889928 #
End-of-ACIS-data 