500 0 6 0           
7 Unknown 11 ACIS 5.0 NT 24 Thu Mar 25 22:36:24 1999 
-1 9.9999999999999995e-007 1e-010 
body $-1 $6 $-1 $7 #
body $-1 $8 $-1 $9 #
body $-1 $10 $-1 $11 #
body $-1 $12 $-1 $13 #
body $-1 $14 $-1 $15 #
body $-1 $16 $-1 $17 #
lump $-1 $-1 $18 $0 #
transform $-1 1 0 0 0 1 0 0 0 1 74.177068391979731 50.460418264857474 20.46983299362056 1 rotate no_reflect no_shear #
lump $-1 $-1 $19 $1 #
transform $-1 1 0 0 0 1 0 0 0 1 74.177068391979731 50.460418264857474 20.46983299362056 1 rotate no_reflect no_shear #
lump $-1 $-1 $20 $2 #
transform $-1 1 0 0 0 1 0 0 0 1 74.177068391979731 50.460418264857474 20.46983299362056 1 rotate no_reflect no_shear #
lump $-1 $-1 $21 $3 #
transform $-1 1 0 0 0 1 0 0 0 1 74.177068391979731 50.460418264857474 20.46983299362056 1 rotate no_reflect no_shear #
lump $-1 $-1 $22 $4 #
transform $-1 1 0 0 0 1 0 0 0 1 74.177068391979731 50.460418264857474 20.46983299362056 1 rotate no_reflect no_shear #
lump $-1 $-1 $23 $5 #
transform $-1 1 0 0 0 1 0 0 0 1 74.177068391979731 50.460418264857474 20.46983299362056 1 rotate no_reflect no_shear #
shell $-1 $-1 $-1 $24 $-1 $6 #
shell $-1 $-1 $-1 $25 $-1 $8 #
shell $-1 $-1 $-1 $26 $-1 $10 #
shell $-1 $-1 $-1 $27 $-1 $12 #
shell $-1 $-1 $-1 $28 $-1 $14 #
shell $-1 $-1 $-1 $29 $-1 $16 #
face $-1 $30 $31 $18 $-1 $32 forward single #
face $-1 $33 $34 $19 $-1 $35 forward single #
face $-1 $36 $37 $20 $-1 $38 reversed single #
face $-1 $39 $40 $21 $-1 $41 forward single #
face $-1 $42 $43 $22 $-1 $44 forward single #
face $-1 $45 $46 $23 $-1 $47 forward single #
face $-1 $48 $49 $18 $-1 $50 reversed single #
loop $-1 $-1 $51 $24 #
plane-surface $-1 0 0 20.46983299362056 0 0 1 1 0 0 forward_v I I I I #
face $-1 $52 $53 $19 $-1 $54 reversed single #
loop $-1 $-1 $55 $25 #
plane-surface $-1 0 -40.018310850030161 14.444736827176509 0 0 1 1 0 0 forward_v I I I I #
face $-1 $56 $57 $20 $-1 $58 reversed single #
loop $-1 $-1 $59 $26 #
plane-surface $-1 28.380860222293435 65.392482901648066 187.10075636426382 1 0 0 0 -0.62932039886446345 -0.77714595512881146 forward_v I I I I #
face $-1 $60 $61 $21 $-1 $62 forward single #
loop $-1 $63 $64 $27 #
cone-surface $-1 33.355095151309357 41.706241906960948 12.854675451689994 0 -0.62932039886446345 -0.77714595512881146 2 0 0 1 I I 0 1 2 forward I I I I #
face $-1 $65 $66 $22 $-1 $67 forward single #
loop $-1 $68 $69 $28 #
cone-surface $-1 40.816447544833252 41.706241906960948 12.854675451689994 0 -0.62932039886446345 -0.77714595512881146 2 0 0 1 I I 0 1 2 forward I I I I #
face $-1 $70 $71 $23 $-1 $72 forward single #
loop $-1 $73 $74 $29 #
cone-surface $-1 48.277799938357148 41.706241906960948 12.854675451689994 0 -0.62932039886446345 -0.77714595512881146 2 0 0 1 I I 0 1 2 forward I I I I #
face $-1 $75 $76 $18 $-1 $77 reversed single #
loop $-1 $-1 $78 $30 #
plane-surface $-1 0 0 -20.46983299362056 0 0 1 1 0 0 forward_v I I I I #
coedge $-1 $79 $80 $81 $82 forward $31 $-1 #
face $-1 $83 $84 $19 $-1 $85 reversed single #
loop $-1 $-1 $86 $33 #
plane-surface $-1 0 -40.018310850030161 7.9776264686890421 0 0 1 1 0 0 forward_v I I I I #
coedge $-1 $87 $88 $89 $90 reversed $34 $-1 #
face $-1 $91 $92 $20 $-1 $93 reversed single #
loop $-1 $-1 $94 $36 #
plane-surface $-1 40.816447544833252 -27.969801632426467 71.807939035983296 0 0.62932039886446345 0.77714595512881146 1 0 0 forward_v I I I I #
coedge $-1 $95 $96 $97 $98 reversed $37 $-1 #
face $-1 $-1 $99 $21 $-1 $100 forward single #
loop $-1 $101 $102 $39 #
cone-surface $-1 33.355095151309357 39.839215163773794 10.549089482757015 0 -0.62932039886446345 -0.77714595512881146 1 0 0 1 I I -0.70710678118654746 0.70710678118654746 1 forward I I I I #
loop $-1 $-1 $103 $27 #
coedge $-1 $64 $64 $104 $105 reversed $40 $-1 #
face $-1 $-1 $106 $22 $-1 $107 forward single #
loop $-1 $108 $109 $42 #
cone-surface $-1 40.816447544833252 39.839215163773794 10.549089482757015 0 -0.62932039886446345 -0.77714595512881146 1 0 0 1 I I -0.70710678118654746 0.70710678118654746 1 forward I I I I #
loop $-1 $-1 $110 $28 #
coedge $-1 $69 $69 $111 $112 reversed $43 $-1 #
face $-1 $-1 $113 $23 $-1 $114 forward single #
loop $-1 $115 $116 $45 #
cone-surface $-1 48.277799938357148 39.839215163773794 10.549089482757015 0 -0.62932039886446345 -0.77714595512881146 1 0 0 1 I I -0.70710678118654746 0.70710678118654746 1 forward I I I I #
loop $-1 $-1 $117 $29 #
coedge $-1 $74 $74 $118 $119 reversed $46 $-1 #
face $-1 $120 $121 $18 $-1 $122 reversed single #
loop $-1 $-1 $123 $48 #
plane-surface $-1 0 -50.460418264857474 0 0 1 0 0 0 1 forward_v I I I I #
coedge $-1 $124 $125 $126 $127 forward $49 $-1 #
coedge $-1 $128 $51 $129 $130 forward $31 $-1 #
coedge $-1 $51 $128 $131 $132 forward $31 $-1 #
coedge $-1 $133 $134 $51 $82 reversed $135 $-1 #
edge $-1 $136 -50.460418264857474 $137 50.460418264857474 $81 $138 forward 7 unknown #
face $-1 $139 $140 $19 $-1 $141 reversed single #
loop $-1 $-1 $142 $52 #
plane-surface $-1 0 -29.576203435202846 11.211181647932776 0 -1 0 0 0 -1 forward_v I I I I #
coedge $-1 $143 $144 $145 $146 reversed $53 $-1 #
coedge $-1 $147 $55 $148 $149 forward $34 $-1 #
coedge $-1 $55 $147 $150 $151 reversed $34 $-1 #
coedge $-1 $152 $153 $55 $90 forward $154 $-1 #
edge $-1 $155 9.5670480101877651 $156 30.4512628398424 $89 $157 forward 7 unknown #
face $-1 $158 $159 $20 $-1 $160 reversed single #
loop $-1 $-1 $161 $56 #
plane-surface $-1 53.252034867373069 65.392482901648066 187.10075636426382 -1 0 0 0 0.62932039886446345 0.77714595512881146 forward_v I I I I #
coedge $-1 $162 $163 $164 $165 reversed $57 $-1 #
coedge $-1 $96 $59 $166 $167 reversed $37 $-1 #
coedge $-1 $59 $95 $162 $168 reversed $37 $-1 #
coedge $-1 $164 $169 $59 $98 forward $170 $-1 #
edge $-1 $171 -17.764176814033441 $172 -2.7312367868858018 $97 $173 forward 7 unknown #
loop $-1 $-1 $104 $60 #
plane-surface $-1 40.816447544833252 -27.969801632426467 71.807939035983296 0 0.62932039886446345 0.77714595512881146 1 0 0 forward_v I I I I #
loop $-1 $-1 $174 $39 #
coedge $-1 $102 $102 $103 $175 reversed $61 $-1 #
coedge $-1 $103 $103 $102 $175 forward $63 $-1 #
coedge $-1 $104 $104 $64 $105 forward $99 $-1 #
edge $-1 $176 -2.6934432221469095e-015 $176 6.2831853071795978 $104 $177 forward 7 unknown #
loop $-1 $-1 $111 $65 #
plane-surface $-1 40.816447544833252 -27.969801632426467 71.807939035983296 0 0.62932039886446345 0.77714595512881146 1 0 0 forward_v I I I I #
loop $-1 $-1 $178 $42 #
coedge $-1 $109 $109 $110 $179 reversed $66 $-1 #
coedge $-1 $110 $110 $109 $179 forward $68 $-1 #
coedge $-1 $111 $111 $69 $112 forward $106 $-1 #
edge $-1 $180 -2.6934432221469095e-015 $180 6.2831853071795978 $111 $181 forward 7 unknown #
loop $-1 $-1 $118 $70 #
plane-surface $-1 40.816447544833252 -27.969801632426467 71.807939035983296 0 0.62932039886446345 0.77714595512881146 1 0 0 forward_v I I I I #
loop $-1 $-1 $182 $45 #
coedge $-1 $116 $116 $117 $183 reversed $71 $-1 #
coedge $-1 $117 $117 $116 $183 forward $73 $-1 #
coedge $-1 $118 $118 $74 $119 forward $113 $-1 #
edge $-1 $184 -2.6934432221469095e-015 $184 6.2831853071795978 $118 $185 forward 7 unknown #
face $-1 $186 $187 $18 $-1 $188 reversed single #
loop $-1 $-1 $189 $75 #
plane-surface $-1 -74.177068391979731 0 0 1 0 0 0 0 -1 forward_v I I I I #
coedge $-1 $190 $131 $191 $192 forward $76 $-1 #
coedge $-1 $193 $78 $190 $194 forward $49 $-1 #
coedge $-1 $78 $193 $195 $196 forward $49 $-1 #
coedge $-1 $134 $133 $78 $127 reversed $135 $-1 #
edge $-1 $197 -50.460418264857474 $198 50.460418264857474 $126 $199 forward 7 unknown #
coedge $-1 $80 $79 $200 $201 forward $31 $-1 #
coedge $-1 $202 $203 $79 $130 reversed $187 $-1 #
edge $-1 $137 -74.177068391979731 $204 74.177068391979731 $129 $205 forward 7 unknown #
coedge $-1 $123 $206 $80 $132 reversed $76 $-1 #
edge $-1 $207 -74.177068391979731 $136 74.177068391979731 $131 $208 forward 7 unknown #
coedge $-1 $126 $81 $206 $209 forward $135 $-1 #
coedge $-1 $81 $126 $202 $210 reversed $135 $-1 #
loop $-1 $-1 $133 $186 #
vertex $-1 $82 $211 #
vertex $-1 $82 $212 #
straight-curve $-1 74.177068391979731 0 20.46983299362056 0 1 0 I I #
face $-1 $213 $214 $19 $-1 $215 reversed single #
loop $-1 $-1 $216 $83 #
plane-surface $-1 -74.177068391979731 0 0 1 0 0 0 0 -1 forward_v I I I I #
coedge $-1 $217 $148 $153 $218 reversed $84 $-1 #
coedge $-1 $219 $86 $220 $221 reversed $53 $-1 #
coedge $-1 $86 $219 $217 $222 forward $53 $-1 #
coedge $-1 $153 $152 $86 $146 forward $154 $-1 #
edge $-1 $223 -30.4512628398424 $224 -9.5670480101877651 $145 $225 forward 7 unknown #
coedge $-1 $88 $87 $216 $226 reversed $34 $-1 #
coedge $-1 $142 $227 $87 $149 reversed $84 $-1 #
edge $-1 $155 -74.177068391979731 $228 74.177068391979731 $148 $229 forward 7 unknown #
coedge $-1 $230 $231 $88 $151 forward $214 $-1 #
edge $-1 $156 -74.177068391979731 $232 74.177068391979731 $150 $233 forward 7 unknown #
coedge $-1 $145 $89 $231 $234 forward $154 $-1 #
coedge $-1 $89 $145 $142 $218 forward $154 $-1 #
loop $-1 $-1 $89 $213 #
vertex $-1 $90 $235 #
vertex $-1 $234 $236 #
straight-curve $-1 74.177068391979731 -20.009155425015081 14.444736827176509 0 -1 0 I I #
face $-1 $-1 $170 $20 $-1 $237 forward single #
loop $-1 $-1 $238 $91 #
plane-surface $-1 0 50.460418264857474 0 0 -1 0 0 0 -1 forward_v I I I I #
coedge $-1 $239 $240 $241 $242 reversed $92 $-1 #
coedge $-1 $243 $94 $96 $168 forward $57 $-1 #
coedge $-1 $94 $243 $239 $244 forward $57 $-1 #
coedge $-1 $241 $97 $94 $165 forward $170 $-1 #
edge $-1 $172 7.9726364498768092 $245 32.843811094956443 $164 $246 forward 7 unknown #
coedge $-1 $247 $248 $95 $167 forward $159 $-1 #
edge $-1 $249 -85.253980244764108 $171 -73.080545188511351 $166 $250 forward 7 unknown #
edge $-1 $172 81.577056988771488 $249 100.9208365297149 $96 $251 forward 7 unknown #
coedge $-1 $97 $241 $247 $252 forward $170 $-1 #
loop $-1 $-1 $241 $158 #
vertex $-1 $167 $253 #
vertex $-1 $98 $254 #
straight-curve $-1 28.380860222293435 32.696241450824033 20.469832993620557 0 -1 0 I I #
coedge $-1 $174 $174 $-1 $255 reversed $101 $-1 #
edge $-1 $256 0 $256 6.2831853071796004 $102 $257 forward 7 unknown #
vertex $-1 $105 $258 #
ellipse-curve $-1 33.355095151309357 42.943948251283651 14.383115465494178 0 0.62932039886446345 0.77714595512881146 2 0 0 1 I I #
coedge $-1 $178 $178 $-1 $259 reversed $108 $-1 #
edge $-1 $260 0 $260 6.2831853071796004 $109 $261 forward 7 unknown #
vertex $-1 $112 $262 #
ellipse-curve $-1 40.816447544833252 42.943948251283651 14.383115465494178 0 0.62932039886446345 0.77714595512881146 2 0 0 1 I I #
coedge $-1 $182 $182 $-1 $263 reversed $115 $-1 #
edge $-1 $264 0 $264 6.2831853071796004 $116 $265 forward 7 unknown #
vertex $-1 $119 $266 #
ellipse-curve $-1 48.277799938357148 42.943948251283651 14.383115465494178 0 0.62932039886446345 0.77714595512881146 2 0 0 1 I I #
face $-1 $-1 $135 $18 $-1 $267 reversed single #
loop $-1 $-1 $202 $120 #
plane-surface $-1 0 50.460418264857474 0 0 -1 0 0 0 -1 forward_v I I I I #
coedge $-1 $268 $200 $203 $269 forward $121 $-1 #
coedge $-1 $206 $123 $124 $194 reversed $76 $-1 #
coedge $-1 $200 $268 $123 $192 reversed $121 $-1 #
edge $-1 $207 -20.46983299362056 $270 20.46983299362056 $191 $271 forward 7 unknown #
coedge $-1 $125 $124 $268 $272 forward $49 $-1 #
edge $-1 $198 -74.177068391979731 $270 74.177068391979731 $190 $273 forward 7 unknown #
coedge $-1 $203 $202 $125 $196 reversed $187 $-1 #
edge $-1 $274 -74.177068391979731 $197 74.177068391979731 $195 $275 forward 7 unknown #
vertex $-1 $127 $276 #
vertex $-1 $209 $277 #
straight-curve $-1 74.177068391979731 0 -20.46983299362056 0 -1 0 I I #
coedge $-1 $189 $191 $128 $201 reversed $121 $-1 #
edge $-1 $204 -50.460418264857474 $207 50.460418264857474 $200 $278 forward 7 unknown #
coedge $-1 $195 $129 $134 $210 forward $187 $-1 #
coedge $-1 $129 $195 $189 $269 reversed $187 $-1 #
vertex $-1 $130 $279 #
straight-curve $-1 0 50.460418264857474 20.46983299362056 -1 0 0 I I #
coedge $-1 $131 $190 $133 $209 reversed $76 $-1 #
vertex $-1 $201 $280 #
straight-curve $-1 0 -50.460418264857474 20.46983299362056 1 0 0 I I #
edge $-1 $136 -20.46983299362056 $198 20.46983299362056 $133 $281 forward 7 unknown #
edge $-1 $137 -20.46983299362056 $197 20.46983299362056 $134 $282 forward 7 unknown #
point $-1 74.177068391979731 -50.460418264857474 20.46983299362056 #
point $-1 74.177068391979731 50.460418264857474 20.46983299362056 #
face $-1 $-1 $154 $19 $-1 $283 reversed single #
loop $-1 $-1 $150 $139 #
plane-surface $-1 0 -50.460418264857474 0 0 1 0 0 0 1 forward_v I I I I #
coedge $-1 $284 $285 $147 $226 forward $140 $-1 #
coedge $-1 $227 $142 $144 $222 reversed $84 $-1 #
edge $-1 $224 2.3720356447226543 $155 8.8391460032101214 $153 $286 forward 7 unknown #
coedge $-1 $144 $143 $287 $288 reversed $53 $-1 #
coedge $-1 $231 $230 $143 $221 forward $214 $-1 #
edge $-1 $289 -74.177068391979731 $223 74.177068391979731 $220 $290 forward 7 unknown #
edge $-1 $291 -74.177068391979731 $224 74.177068391979731 $217 $292 forward 7 unknown #
vertex $-1 $221 $293 #
vertex $-1 $146 $294 #
straight-curve $-1 74.177068391979731 -20.009155425015081 7.9776264686890421 0 1 0 I I #
edge $-1 $232 -30.4512628398424 $228 -9.5670480101877651 $216 $295 forward 7 unknown #
coedge $-1 $148 $217 $284 $296 reversed $84 $-1 #
vertex $-1 $226 $297 #
straight-curve $-1 0 -29.576203435202846 14.444736827176509 -1 0 0 I I #
coedge $-1 $220 $150 $285 $298 forward $214 $-1 #
coedge $-1 $150 $220 $152 $234 reversed $214 $-1 #
vertex $-1 $298 $299 #
straight-curve $-1 0 -50.460418264857474 14.444736827176509 -1 0 0 I I #
edge $-1 $156 -14.444736827176509 $223 -7.9776264686890421 $152 $300 forward 7 unknown #
point $-1 74.177068391979731 -29.576203435202846 14.444736827176509 #
point $-1 74.177068391979731 -50.460418264857481 14.444736827176509 #
plane-surface $-1 0 0 20.46983299362056 0 0 1 1 0 0 forward_v I I I I #
coedge $-1 $248 $247 $240 $301 forward $159 $-1 #
coedge $-1 $240 $161 $163 $244 reversed $92 $-1 #
coedge $-1 $161 $239 $238 $301 reversed $92 $-1 #
coedge $-1 $169 $164 $161 $242 forward $170 $-1 #
edge $-1 $245 2.7312367868858018 $302 17.764176814033441 $241 $303 forward 7 unknown #
coedge $-1 $163 $162 $248 $304 reversed $57 $-1 #
edge $-1 $305 -100.9208365297149 $245 -81.577056988771488 $239 $306 forward 7 unknown #
vertex $-1 $165 $307 #
straight-curve $-1 20.408223772416626 35.427478237709835 20.469832993620557 1 0 0 I I #
coedge $-1 $238 $166 $169 $252 reversed $159 $-1 #
coedge $-1 $166 $238 $243 $304 forward $159 $-1 #
vertex $-1 $167 $308 #
straight-curve $-1 28.380860222293435 50.460418264857474 93.550378182131908 0 0 1 I I #
straight-curve $-1 28.380860222293435 -27.969801632426467 71.807939035983296 0 0.77714595512881146 -0.62932039886446345 I I #
edge $-1 $302 -53.252034867373069 $171 -28.380860222293435 $247 $309 forward 7 unknown #
point $-1 28.380860222293435 50.460418264857474 20.46983299362056 #
point $-1 28.380860222293435 35.427478237709835 20.469832993620557 #
edge $-1 $310 1 $310 0 $174 $-1 forward 7 unknown #
vertex $-1 $175 $311 #
ellipse-curve $-1 33.355095151309357 40.468535562638259 11.326235437885826 0 0.62932039886446345 0.77714595512881146 2 0 0 1 I I #
point $-1 35.355095151309357 42.943948251283629 14.383115465494161 #
edge $-1 $312 1 $312 0 $178 $-1 forward 7 unknown #
vertex $-1 $179 $313 #
ellipse-curve $-1 40.816447544833252 40.468535562638259 11.326235437885826 0 0.62932039886446345 0.77714595512881146 2 0 0 1 I I #
point $-1 42.816447544833252 42.943948251283629 14.383115465494161 #
edge $-1 $314 1 $314 0 $182 $-1 forward 7 unknown #
vertex $-1 $183 $315 #
ellipse-curve $-1 48.277799938357148 40.468535562638259 11.326235437885826 0 0.62932039886446345 0.77714595512881146 2 0 0 1 I I #
point $-1 50.277799938357148 42.943948251283629 14.383115465494161 #
plane-surface $-1 74.177068391979731 0 0 -1 0 0 0 0 1 forward_v I I I I #
coedge $-1 $191 $189 $193 $272 reversed $121 $-1 #
edge $-1 $204 -20.46983299362056 $274 20.46983299362056 $203 $316 forward 7 unknown #
vertex $-1 $272 $317 #
straight-curve $-1 -74.177068391979731 -50.460418264857474 0 0 0 -1 I I #
edge $-1 $270 -50.460418264857474 $274 50.460418264857474 $268 $318 forward 7 unknown #
straight-curve $-1 0 -50.460418264857474 -20.46983299362056 -1 0 0 I I #
vertex $-1 $196 $319 #
straight-curve $-1 0 50.460418264857474 -20.46983299362056 1 0 0 I I #
point $-1 74.177068391979731 50.460418264857474 -20.46983299362056 #
point $-1 74.177068391979731 -50.460418264857474 -20.46983299362056 #
straight-curve $-1 -74.177068391979731 0 20.46983299362056 0 -1 0 I I #
point $-1 -74.177068391979731 50.460418264857474 20.46983299362056 #
point $-1 -74.177068391979731 -50.460418264857474 20.46983299362056 #
straight-curve $-1 74.177068391979731 -50.460418264857474 0 0 0 -1 I I #
straight-curve $-1 74.177068391979731 50.460418264857474 0 0 0 -1 I I #
plane-surface $-1 74.177068391979731 0 0 -1 0 0 0 0 1 forward_v I I I I #
coedge $-1 $287 $216 $227 $296 forward $140 $-1 #
coedge $-1 $216 $287 $230 $298 reversed $140 $-1 #
straight-curve $-1 74.177068391979731 -29.576203435202846 5.6055908239663879 0 0 1 I I #
coedge $-1 $285 $284 $219 $288 forward $140 $-1 #
edge $-1 $291 9.5670480101877651 $289 30.4512628398424 $287 $320 forward 7 unknown #
vertex $-1 $221 $321 #
straight-curve $-1 0 -50.460418264857474 7.9776264686890421 1 0 0 I I #
vertex $-1 $288 $322 #
straight-curve $-1 0 -29.576203435202846 7.9776264686890421 1 0 0 I I #
point $-1 74.177068391979731 -50.460418264857481 7.9776264686890421 #
point $-1 74.177068391979731 -29.576203435202846 7.9776264686890421 #
straight-curve $-1 -74.177068391979731 -20.009155425015081 14.444736827176509 0 1 0 I I #
edge $-1 $228 -8.8391460032101214 $291 -2.3720356447226543 $284 $323 forward 7 unknown #
point $-1 -74.177068391979731 -29.576203435202846 14.444736827176509 #
edge $-1 $232 -14.444736827176509 $289 -7.9776264686890421 $285 $324 forward 7 unknown #
point $-1 -74.177068391979731 -50.460418264857481 14.444736827176509 #
straight-curve $-1 74.177068391979731 -50.460418264857474 0 0 0 -1 I I #
edge $-1 $302 73.080545188511351 $305 85.253980244764108 $238 $325 forward 7 unknown #
vertex $-1 $252 $326 #
straight-curve $-1 53.252034867373069 32.696241450824033 20.469832993620557 0 1 0 I I #
edge $-1 $305 -32.843811094956443 $249 -7.9726364498768092 $248 $327 forward 7 unknown #
vertex $-1 $304 $328 #
straight-curve $-1 53.252034867373069 -27.969801632426467 71.807939035983296 0 -0.77714595512881146 0.62932039886446345 I I #
point $-1 53.252034867373069 35.427478237709835 20.469832993620557 #
point $-1 28.380860222293435 50.460418264857466 8.2963979373678001 #
straight-curve $-1 0 50.460418264857474 20.46983299362056 -1 0 0 I I #
vertex $-1 $255 $329 #
point $-1 35.355095151309357 40.468535562638259 11.326235437885826 #
vertex $-1 $259 $330 #
point $-1 42.816447544833252 40.468535562638259 11.326235437885826 #
vertex $-1 $263 $331 #
point $-1 50.277799938357148 40.468535562638259 11.326235437885826 #
straight-curve $-1 -74.177068391979731 50.460418264857474 0 0 0 -1 I I #
point $-1 -74.177068391979731 -50.460418264857474 -20.46983299362056 #
straight-curve $-1 -74.177068391979731 0 -20.46983299362056 0 1 0 I I #
point $-1 -74.177068391979731 50.460418264857474 -20.46983299362056 #
straight-curve $-1 -74.177068391979731 -20.009155425015081 7.9776264686890421 0 -1 0 I I #
point $-1 -74.177068391979731 -50.460418264857481 7.9776264686890421 #
point $-1 -74.177068391979731 -29.576203435202846 7.9776264686890421 #
straight-curve $-1 -74.177068391979731 -29.576203435202846 5.6055908239663879 0 0 -1 I I #
straight-curve $-1 -74.177068391979731 -50.460418264857474 0 0 0 -1 I I #
straight-curve $-1 53.252034867373069 50.460418264857474 93.550378182131908 0 0 -1 I I #
point $-1 53.252034867373069 50.460418264857474 20.46983299362056 #
straight-curve $-1 20.408223772416626 50.460418264857466 8.2963979373678036 -1 0 0 I I #
point $-1 53.252034867373069 50.460418264857466 8.2963979373678001 #
point $-1 33.355095151309357 39.209894764909329 9.7719435276282045 #
point $-1 40.816447544833252 39.209894764909329 9.7719435276282045 #
point $-1 48.277799938357148 39.209894764909329 9.7719435276282045 #
End-of-ACIS-data 