500 0 9 0           
7 Unknown 11 ACIS 5.0 NT 24 Fri Mar 26 00:55:31 1999 
-1 9.9999999999999995e-007 1e-010 
body $-1 $9 $-1 $10 #
body $-1 $11 $-1 $12 #
body $-1 $13 $-1 $14 #
body $-1 $15 $-1 $16 #
body $-1 $17 $-1 $18 #
body $-1 $19 $-1 $20 #
body $-1 $21 $-1 $22 #
body $-1 $23 $-1 $24 #
body $-1 $25 $-1 $26 #
lump $-1 $-1 $27 $0 #
transform $-1 1 0 0 0 1 0 0 0 1 66.813562425611138 31.154242304404661 14.164640840686978 1 rotate no_reflect no_shear #
lump $-1 $-1 $28 $1 #
transform $-1 1 0 0 0 1 0 0 0 1 66.813562425611138 31.154242304404661 14.164640840686978 1 rotate no_reflect no_shear #
lump $-1 $-1 $29 $2 #
transform $-1 1 0 0 0 1 0 0 0 1 66.813562425611138 31.154242304404661 14.164640840686978 1 rotate no_reflect no_shear #
lump $-1 $-1 $30 $3 #
transform $-1 1 0 0 0 1 0 0 0 1 66.813562425611138 31.154242304404661 14.164640840686978 1 rotate no_reflect no_shear #
lump $-1 $-1 $31 $4 #
transform $-1 1 0 0 0 1 0 0 0 1 66.813562425611138 31.154242304404661 14.164640840686978 1 rotate no_reflect no_shear #
lump $-1 $-1 $32 $5 #
transform $-1 1 0 0 0 1 0 0 0 1 66.813562425611138 31.154242304404661 14.164640840686978 1 rotate no_reflect no_shear #
lump $-1 $-1 $33 $6 #
transform $-1 1 0 0 0 1 0 0 0 1 66.813562425611138 31.154242304404661 14.164640840686978 1 rotate no_reflect no_shear #
lump $-1 $-1 $34 $7 #
transform $-1 1 0 0 0 1 0 0 0 1 66.813562425611138 31.154242304404661 14.164640840686978 1 rotate no_reflect no_shear #
lump $-1 $-1 $35 $8 #
transform $-1 1 0 0 0 1 0 0 0 1 66.813562425611138 31.154242304404661 14.164640840686978 1 rotate no_reflect no_shear #
shell $-1 $-1 $-1 $36 $-1 $9 #
shell $-1 $-1 $-1 $37 $-1 $11 #
shell $-1 $-1 $-1 $38 $-1 $13 #
shell $-1 $-1 $-1 $39 $-1 $15 #
shell $-1 $-1 $-1 $40 $-1 $17 #
shell $-1 $-1 $-1 $41 $-1 $19 #
shell $-1 $-1 $-1 $42 $-1 $21 #
shell $-1 $-1 $-1 $43 $-1 $23 #
shell $-1 $-1 $-1 $44 $-1 $25 #
face $-1 $45 $46 $27 $-1 $47 forward single #
face $-1 $48 $49 $28 $-1 $50 reversed single #
face $-1 $51 $52 $29 $-1 $53 reversed single #
face $-1 $54 $55 $30 $-1 $56 forward single #
face $-1 $57 $58 $31 $-1 $59 forward single #
face $-1 $60 $61 $32 $-1 $62 reversed single #
face $-1 $63 $64 $33 $-1 $65 forward single #
face $-1 $66 $67 $34 $-1 $68 reversed single #
face $-1 $69 $70 $35 $-1 $71 forward single #
face $-1 $72 $73 $27 $-1 $74 reversed single #
loop $-1 $-1 $75 $36 #
plane-surface $-1 0 0 14.164640840686978 0 0 1 1 0 0 forward_v I I I I #
face $-1 $76 $77 $28 $-1 $78 reversed single #
loop $-1 $-1 $79 $37 #
plane-surface $-1 -64.472789279206651 -20.574478527071548 0 0 -1 0 0 0 -1 forward_v I I I I #
face $-1 $80 $81 $29 $-1 $82 reversed single #
loop $-1 $-1 $83 $38 #
plane-surface $-1 96.376126644668119 -7.9494728144706475 195.84589965662948 0 -1 0 -0.80901700255871778 0 -0.5877852410284794 forward_v I I I I #
face $-1 $84 $85 $30 $-1 $86 forward single #
loop $-1 $87 $88 $39 #
cone-surface $-1 63.508494505978632 -16.967334037757006 10.590250105269893 -0.80901700255871778 0 -0.5877852410284794 0.8816778615427191 0 -1.2135255038380768 1 I I 0 1 1.5 forward I I I I #
face $-1 $89 $90 $31 $-1 $91 forward single #
loop $-1 $92 $93 $40 #
cone-surface $-1 63.508494505978632 -11.556617303785188 10.590250105269893 -0.80901700255871778 0 -0.5877852410284794 0.8816778615427191 0 -1.2135255038380768 1 I I 0 1 1.5 forward I I I I #
face $-1 $94 $95 $32 $-1 $96 reversed single #
loop $-1 $-1 $97 $41 #
plane-surface $-1 -172.11317488493614 -14.448598949691416 84.570008933953176 0 1 0 -0.78801076186113728 0 0.61566146476048833 forward_v I I I I #
face $-1 $98 $99 $33 $-1 $100 forward single #
loop $-1 $101 $102 $42 #
cone-surface $-1 -60.735026978316526 -10.416821769181226 7.104561877422455 0.78801076186113728 0 -0.61566146476048833 0.61566146476048833 0 0.78801076186113728 1 I I 0 1 1 forward I I I I #
face $-1 $103 $104 $34 $-1 $105 reversed single #
loop $-1 $-1 $106 $43 #
plane-surface $-1 -172.11317488493614 16.964808366004149 84.570008933953176 0 1 0 -0.78801076186113728 0 0.61566146476048833 forward_v I I I I #
face $-1 $107 $108 $35 $-1 $109 forward single #
loop $-1 $110 $111 $44 #
cone-surface $-1 -60.735026978316526 20.996585546514339 7.104561877422455 0.78801076186113728 0 -0.61566146476048833 0.61566146476048833 0 0.78801076186113728 1 I I 0 1 1 forward I I I I #
face $-1 $112 $113 $27 $-1 $114 reversed single #
loop $-1 $-1 $115 $45 #
plane-surface $-1 0 0 -14.164640840686978 0 0 1 1 0 0 forward_v I I I I #
coedge $-1 $116 $117 $118 $119 forward $46 $-1 #
face $-1 $120 $121 $28 $-1 $122 forward single #
loop $-1 $-1 $123 $48 #
plane-surface $-1 -62.132016132802164 -25.864360415738105 0 -1 0 0 0 0 1 forward_v I I I I #
coedge $-1 $124 $125 $126 $127 forward $49 $-1 #
face $-1 $128 $129 $29 $-1 $130 reversed single #
loop $-1 $-1 $131 $51 #
plane-surface $-1 -11.73048936300728 -14.261975670771101 117.30184786801109 0.80901700255871778 0 0.5877852410284794 0.5877852410284794 0 -0.80901700255871778 forward_v I I I I #
coedge $-1 $132 $133 $134 $135 reversed $52 $-1 #
face $-1 $-1 $136 $30 $-1 $137 forward single #
loop $-1 $138 $139 $54 #
cone-surface $-1 61.40190726320958 -16.967334037757006 9.0597249292570936 -0.80901700255871778 0 -0.5877852410284794 0.44083893077135955 0 -0.60676275191903839 1 I I -0.70710678118654757 0.70710678118654757 0.75 forward I I I I #
loop $-1 $-1 $140 $39 #
coedge $-1 $88 $88 $141 $142 reversed $55 $-1 #
face $-1 $-1 $143 $31 $-1 $144 forward single #
loop $-1 $145 $146 $57 #
cone-surface $-1 61.40190726320958 -11.556617303785188 9.0597249292570936 -0.80901700255871778 0 -0.5877852410284794 0.44083893077135955 0 -0.60676275191903839 1 I I -0.70710678118654757 0.70710678118654757 0.75 forward I I I I #
loop $-1 $-1 $147 $40 #
coedge $-1 $93 $93 $148 $149 reversed $58 $-1 #
face $-1 $150 $151 $32 $-1 $152 reversed single #
loop $-1 $-1 $153 $60 #
plane-surface $-1 -66.813562425611167 -10.416821769181226 2.3009375163170205 -0.78801076186113728 0 0.61566146476048833 0.61566146476048833 0 0.78801076186113728 forward_v I I I I #
coedge $-1 $154 $155 $156 $157 reversed $61 $-1 #
face $-1 $-1 $158 $33 $-1 $159 forward single #
loop $-1 $160 $161 $63 #
cone-surface $-1 -58.896956464249705 -10.416821769181226 5.6685038439626787 0.78801076186113728 0 -0.61566146476048833 0.30783073238024417 0 0.39400538093056864 1 I I -0.70710678118654746 0.70710678118654746 0.5 forward I I I I #
loop $-1 $-1 $162 $42 #
coedge $-1 $102 $102 $163 $164 reversed $64 $-1 #
face $-1 $165 $166 $34 $-1 $167 reversed single #
loop $-1 $-1 $168 $66 #
plane-surface $-1 -66.813562425611167 20.996585546514339 2.3009375163170205 -0.78801076186113728 0 0.61566146476048833 0.61566146476048833 0 0.78801076186113728 forward_v I I I I #
coedge $-1 $169 $170 $171 $172 reversed $67 $-1 #
face $-1 $-1 $173 $35 $-1 $174 forward single #
loop $-1 $175 $176 $69 #
cone-surface $-1 -58.896956464249705 20.996585546514339 5.6685038439626787 0.78801076186113728 0 -0.61566146476048833 0.30783073238024417 0 0.39400538093056864 1 I I -0.70710678118654746 0.70710678118654746 0.5 forward I I I I #
loop $-1 $-1 $177 $44 #
coedge $-1 $111 $111 $178 $179 reversed $70 $-1 #
face $-1 $180 $181 $27 $-1 $182 reversed single #
loop $-1 $-1 $183 $72 #
plane-surface $-1 0 -31.154242304404661 0 0 1 0 0 0 1 forward_v I I I I #
coedge $-1 $184 $185 $186 $187 forward $73 $-1 #
coedge $-1 $188 $75 $189 $190 forward $46 $-1 #
coedge $-1 $75 $188 $191 $192 forward $46 $-1 #
coedge $-1 $193 $194 $75 $119 reversed $195 $-1 #
edge $-1 $196 -31.154242304404661 $197 31.154242304404661 $118 $198 forward 7 unknown #
face $-1 $199 $200 $28 $-1 $201 reversed single #
loop $-1 $-1 $202 $76 #
plane-surface $-1 0 0 14.164640840686978 0 0 1 1 0 0 forward_v I I I I #
coedge $-1 $203 $204 $205 $206 reversed $77 $-1 #
coedge $-1 $207 $79 $208 $209 reversed $49 $-1 #
coedge $-1 $79 $207 $210 $211 reversed $49 $-1 #
coedge $-1 $204 $203 $79 $127 reversed $77 $-1 #
edge $-1 $212 -14.164640840686978 $213 14.164640840686978 $126 $214 forward 7 unknown #
face $-1 $215 $216 $29 $-1 $217 reversed single #
loop $-1 $-1 $218 $80 #
plane-surface $-1 96.376126644668119 -20.574478527071555 195.84589965662948 0 1 0 0.80901700255871778 0 0.5877852410284794 forward_v I I I I #
coedge $-1 $219 $220 $221 $222 reversed $81 $-1 #
coedge $-1 $133 $83 $223 $224 reversed $52 $-1 #
coedge $-1 $83 $132 $219 $225 reversed $52 $-1 #
coedge $-1 $221 $226 $83 $135 forward $227 $-1 #
edge $-1 $228 -18.625499103277079 $229 -15.015012245712072 $134 $230 forward 7 unknown #
loop $-1 $-1 $141 $84 #
plane-surface $-1 -11.73048936300728 -14.261975670771101 117.30184786801109 0.80901700255871778 0 0.5877852410284794 0.5877852410284794 0 -0.80901700255871778 forward_v I I I I #
loop $-1 $-1 $231 $54 #
coedge $-1 $139 $139 $140 $232 reversed $85 $-1 #
coedge $-1 $140 $140 $139 $232 forward $87 $-1 #
coedge $-1 $141 $141 $88 $142 forward $136 $-1 #
edge $-1 $233 0 $233 6.2831853071796004 $141 $234 forward 7 unknown #
loop $-1 $-1 $148 $89 #
plane-surface $-1 -11.73048936300728 -14.261975670771101 117.30184786801109 0.80901700255871778 0 0.5877852410284794 0.5877852410284794 0 -0.80901700255871778 forward_v I I I I #
loop $-1 $-1 $235 $57 #
coedge $-1 $146 $146 $147 $236 reversed $90 $-1 #
coedge $-1 $147 $147 $146 $236 forward $92 $-1 #
coedge $-1 $148 $148 $93 $149 forward $143 $-1 #
edge $-1 $237 0 $237 6.2831853071796004 $148 $238 forward 7 unknown #
face $-1 $239 $240 $32 $-1 $241 reversed single #
loop $-1 $-1 $242 $94 #
plane-surface $-1 -172.11317488493614 -6.3850445886710361 84.570008933953176 0 -1 0 0.78801076186113728 0 -0.61566146476048833 forward_v I I I I #
coedge $-1 $243 $244 $245 $246 reversed $95 $-1 #
coedge $-1 $155 $97 $247 $248 reversed $61 $-1 #
coedge $-1 $97 $154 $243 $249 reversed $61 $-1 #
coedge $-1 $245 $250 $97 $157 forward $251 $-1 #
edge $-1 $252 19.243025016856933 $253 28.511965645173596 $156 $254 forward 7 unknown #
loop $-1 $-1 $163 $98 #
plane-surface $-1 -66.813562425611167 -10.416821769181226 2.3009375163170205 -0.78801076186113728 0 0.61566146476048833 0.61566146476048833 0 0.78801076186113728 forward_v I I I I #
loop $-1 $-1 $255 $63 #
coedge $-1 $161 $161 $162 $256 reversed $99 $-1 #
coedge $-1 $162 $162 $161 $256 forward $101 $-1 #
coedge $-1 $163 $163 $102 $164 forward $158 $-1 #
edge $-1 $257 0 $257 6.2831853071796004 $163 $258 forward 7 unknown #
face $-1 $259 $260 $34 $-1 $261 forward single #
loop $-1 $-1 $262 $103 #
plane-surface $-1 -172.11317488493614 25.028362727024529 84.570008933953176 0 -1 0 0.78801076186113728 0 -0.61566146476048833 forward_v I I I I #
coedge $-1 $263 $264 $265 $266 reversed $104 $-1 #
coedge $-1 $170 $106 $267 $268 reversed $67 $-1 #
coedge $-1 $106 $169 $263 $269 reversed $67 $-1 #
coedge $-1 $265 $270 $106 $172 forward $260 $-1 #
edge $-1 $271 19.243025016856933 $272 28.511965645173596 $171 $273 forward 7 unknown #
loop $-1 $-1 $178 $107 #
plane-surface $-1 -66.813562425611167 20.996585546514339 2.3009375163170205 -0.78801076186113728 0 0.61566146476048833 0.61566146476048833 0 0.78801076186113728 forward_v I I I I #
loop $-1 $-1 $274 $69 #
coedge $-1 $176 $176 $177 $275 reversed $108 $-1 #
coedge $-1 $177 $177 $176 $275 forward $110 $-1 #
coedge $-1 $178 $178 $111 $179 forward $173 $-1 #
edge $-1 $276 0 $276 6.2831853071796004 $178 $277 forward 7 unknown #
face $-1 $278 $279 $27 $-1 $280 reversed single #
loop $-1 $-1 $281 $112 #
plane-surface $-1 -66.813562425611138 0 0 1 0 0 0 0 -1 forward_v I I I I #
coedge $-1 $282 $191 $283 $284 forward $113 $-1 #
coedge $-1 $285 $115 $282 $286 forward $73 $-1 #
coedge $-1 $115 $285 $287 $288 forward $73 $-1 #
coedge $-1 $194 $193 $115 $187 reversed $195 $-1 #
edge $-1 $289 -31.154242304404661 $290 31.154242304404661 $186 $291 forward 7 unknown #
coedge $-1 $117 $116 $292 $293 forward $46 $-1 #
coedge $-1 $294 $295 $116 $190 reversed $279 $-1 #
edge $-1 $197 -66.813562425611138 $296 66.813562425611138 $189 $297 forward 7 unknown #
coedge $-1 $183 $298 $117 $192 reversed $113 $-1 #
edge $-1 $299 -66.813562425611138 $196 66.813562425611138 $191 $300 forward 7 unknown #
coedge $-1 $186 $118 $298 $301 forward $195 $-1 #
coedge $-1 $118 $186 $294 $302 reversed $195 $-1 #
loop $-1 $-1 $193 $278 #
vertex $-1 $119 $303 #
vertex $-1 $119 $304 #
straight-curve $-1 66.813562425611138 0 14.164640840686978 0 1 0 I I #
face $-1 $305 $306 $28 $-1 $307 reversed single #
loop $-1 $-1 $308 $120 #
plane-surface $-1 -66.813562425611138 0 0 1 0 0 0 0 -1 forward_v I I I I #
coedge $-1 $210 $309 $204 $310 forward $121 $-1 #
coedge $-1 $126 $123 $311 $312 reversed $77 $-1 #
coedge $-1 $123 $126 $202 $310 reversed $77 $-1 #
coedge $-1 $313 $314 $123 $206 forward $315 $-1 #
edge $-1 $316 -14.164640840686978 $317 14.164640840686978 $205 $318 forward 7 unknown #
coedge $-1 $125 $124 $308 $319 reversed $49 $-1 #
coedge $-1 $311 $320 $124 $209 forward $306 $-1 #
edge $-1 $321 -34.577167786007813 $213 -29.895621493198838 $208 $322 forward 7 unknown #
coedge $-1 $323 $202 $125 $211 forward $121 $-1 #
edge $-1 $212 29.895621493198838 $324 34.577167786007813 $210 $325 forward 7 unknown #
vertex $-1 $211 $326 #
vertex $-1 $209 $327 #
straight-curve $-1 -62.132016132802164 -20.574478527071548 0 0 0 -1 I I #
face $-1 $-1 $227 $29 $-1 $328 forward single #
loop $-1 $-1 $329 $128 #
plane-surface $-1 66.813562425611138 0 0 -1 0 0 0 0 1 forward_v I I I I #
coedge $-1 $330 $331 $332 $333 reversed $129 $-1 #
coedge $-1 $334 $131 $133 $225 forward $81 $-1 #
coedge $-1 $131 $334 $330 $335 forward $81 $-1 #
coedge $-1 $332 $134 $131 $222 forward $227 $-1 #
edge $-1 $229 0.81848497908509721 $336 13.443490691686005 $221 $337 forward 7 unknown #
coedge $-1 $338 $339 $132 $224 forward $216 $-1 #
edge $-1 $340 -88.727717967979061 $228 -83.758308987627771 $223 $341 forward 7 unknown #
edge $-1 $229 127.48459760564612 $340 133.62712485122231 $133 $342 forward 7 unknown #
coedge $-1 $134 $332 $338 $343 forward $227 $-1 #
loop $-1 $-1 $332 $215 #
vertex $-1 $224 $344 #
vertex $-1 $135 $345 #
straight-curve $-1 48.18806332233406 -7.9494728144706475 14.164640840686985 -1 0 0 I I #
coedge $-1 $231 $231 $-1 $346 reversed $138 $-1 #
edge $-1 $347 0 $347 6.2831853071796004 $139 $348 forward 7 unknown #
vertex $-1 $142 $349 #
ellipse-curve $-1 65.008318996828635 -16.967334037757006 11.679936350511328 0.80901700255871778 0 0.5877852410284794 0.8816778615427191 0 -1.2135255038380768 1 I I #
coedge $-1 $235 $235 $-1 $350 reversed $145 $-1 #
edge $-1 $351 0 $351 6.2831853071796004 $146 $352 forward 7 unknown #
vertex $-1 $149 $353 #
ellipse-curve $-1 65.008318996828635 -11.556617303785188 11.679936350511328 0.80901700255871778 0 0.5877852410284794 0.8816778615427191 0 -1.2135255038380768 1 I I #
face $-1 $-1 $251 $32 $-1 $354 forward single #
loop $-1 $-1 $355 $150 #
plane-surface $-1 -66.813562425611138 0 0 1 0 0 0 0 -1 forward_v I I I I #
coedge $-1 $356 $357 $358 $359 reversed $151 $-1 #
coedge $-1 $360 $153 $155 $249 forward $95 $-1 #
coedge $-1 $153 $360 $356 $361 forward $95 $-1 #
coedge $-1 $358 $156 $153 $246 forward $251 $-1 #
edge $-1 $253 -9.2401880651008028 $362 -1.1766337040804231 $245 $363 forward 7 unknown #
coedge $-1 $364 $365 $154 $248 forward $240 $-1 #
edge $-1 $366 -39.984066950659532 $252 -28.12036362628961 $247 $367 forward 7 unknown #
edge $-1 $253 -15.055255459138733 $366 -4.6193811539156697e-014 $155 $368 forward 7 unknown #
coedge $-1 $156 $358 $364 $369 forward $251 $-1 #
loop $-1 $-1 $358 $239 #
vertex $-1 $248 $370 #
vertex $-1 $157 $371 #
straight-curve $-1 -86.056587442468071 -14.448598949691416 14.164640840686978 1 0 0 I I #
coedge $-1 $255 $255 $-1 $372 reversed $160 $-1 #
edge $-1 $373 0 $373 6.2831853071796004 $161 $374 forward 7 unknown #
vertex $-1 $164 $375 #
ellipse-curve $-1 -62.17909211145281 -10.416821769181226 8.2327891785020118 -0.78801076186113728 0 0.61566146476048833 0.61566146476048833 0 0.78801076186113728 1 I I #
face $-1 $-1 $376 $34 $-1 $377 reversed single #
loop $-1 $-1 $171 $165 #
plane-surface $-1 0 0 14.164640840686978 0 0 1 1 0 0 forward_v I I I I #
coedge $-1 $378 $379 $380 $381 reversed $166 $-1 #
coedge $-1 $382 $168 $170 $269 forward $104 $-1 #
coedge $-1 $168 $382 $378 $383 forward $104 $-1 #
coedge $-1 $380 $171 $168 $266 forward $260 $-1 #
edge $-1 $272 6.4665155927469797 $384 14.530069953767359 $265 $385 forward 7 unknown #
coedge $-1 $386 $387 $169 $268 forward $376 $-1 #
edge $-1 $388 -39.984066950659532 $271 -28.12036362628961 $267 $389 forward 7 unknown #
edge $-1 $272 -15.055255459138733 $388 -4.6193811539156697e-014 $170 $390 forward 7 unknown #
coedge $-1 $171 $380 $386 $391 forward $260 $-1 #
vertex $-1 $268 $392 #
vertex $-1 $172 $393 #
straight-curve $-1 -86.056587442468071 16.964808366004149 14.164640840686978 1 0 0 I I #
coedge $-1 $274 $274 $-1 $394 reversed $175 $-1 #
edge $-1 $395 0 $395 6.2831853071796004 $176 $396 forward 7 unknown #
vertex $-1 $179 $397 #
ellipse-curve $-1 -62.17909211145281 20.996585546514339 8.2327891785020118 -0.78801076186113728 0 0.61566146476048833 0.61566146476048833 0 0.78801076186113728 1 I I #
face $-1 $-1 $195 $27 $-1 $398 reversed single #
loop $-1 $-1 $294 $180 #
plane-surface $-1 0 31.154242304404661 0 0 -1 0 0 0 -1 forward_v I I I I #
coedge $-1 $399 $292 $295 $400 forward $181 $-1 #
coedge $-1 $298 $183 $184 $286 reversed $113 $-1 #
coedge $-1 $292 $399 $183 $284 reversed $181 $-1 #
edge $-1 $299 -14.164640840686978 $401 14.164640840686978 $283 $402 forward 7 unknown #
coedge $-1 $185 $184 $399 $403 forward $73 $-1 #
edge $-1 $290 -66.813562425611138 $401 66.813562425611138 $282 $404 forward 7 unknown #
coedge $-1 $295 $294 $185 $288 reversed $279 $-1 #
edge $-1 $405 -66.813562425611138 $289 66.813562425611138 $287 $406 forward 7 unknown #
vertex $-1 $187 $407 #
vertex $-1 $301 $408 #
straight-curve $-1 66.813562425611138 0 -14.164640840686978 0 -1 0 I I #
coedge $-1 $281 $283 $188 $293 reversed $181 $-1 #
edge $-1 $296 -31.154242304404661 $299 31.154242304404661 $292 $409 forward 7 unknown #
coedge $-1 $287 $189 $194 $302 forward $279 $-1 #
coedge $-1 $189 $287 $281 $400 reversed $279 $-1 #
vertex $-1 $190 $410 #
straight-curve $-1 0 31.154242304404661 14.164640840686978 -1 0 0 I I #
coedge $-1 $191 $282 $193 $301 reversed $113 $-1 #
vertex $-1 $293 $411 #
straight-curve $-1 0 -31.154242304404661 14.164640840686978 1 0 0 I I #
edge $-1 $196 -14.164640840686978 $290 14.164640840686978 $193 $412 forward 7 unknown #
edge $-1 $197 -14.164640840686978 $289 14.164640840686978 $194 $413 forward 7 unknown #
point $-1 66.813562425611138 -31.154242304404661 14.164640840686978 #
point $-1 66.813562425611138 31.154242304404661 14.164640840686978 #
face $-1 $-1 $315 $28 $-1 $414 reversed single #
loop $-1 $-1 $311 $199 #
plane-surface $-1 0 0 -14.164640840686978 0 0 1 1 0 0 forward_v I I I I #
coedge $-1 $415 $416 $207 $319 forward $200 $-1 #
coedge $-1 $202 $323 $313 $417 forward $121 $-1 #
edge $-1 $317 -18.222062096535609 $212 -7.6422983192024958 $202 $418 forward 7 unknown #
coedge $-1 $419 $208 $203 $312 forward $306 $-1 #
edge $-1 $213 7.6422983192024958 $316 18.222062096535609 $311 $420 forward 7 unknown #
coedge $-1 $421 $205 $309 $417 reversed $315 $-1 #
coedge $-1 $205 $421 $419 $422 reversed $315 $-1 #
loop $-1 $-1 $205 $305 #
vertex $-1 $422 $423 #
vertex $-1 $206 $424 #
straight-curve $-1 -62.132016132802164 -31.154242304404661 0 0 0 1 I I #
edge $-1 $324 -14.164640840686978 $321 14.164640840686978 $308 $425 forward 7 unknown #
coedge $-1 $208 $419 $415 $426 forward $306 $-1 #
vertex $-1 $209 $427 #
straight-curve $-1 -32.236394639603326 -20.574478527071548 -14.164640840686978 1 0 0 I I #
coedge $-1 $309 $210 $416 $428 forward $121 $-1 #
vertex $-1 $428 $429 #
straight-curve $-1 -32.236394639603326 -20.574478527071548 14.164640840686978 -1 0 0 I I #
point $-1 -62.132016132802164 -20.574478527071548 14.164640840686978 #
point $-1 -62.132016132802164 -20.574478527071548 -14.164640840686978 #
plane-surface $-1 0 0 14.164640840686978 0 0 1 1 0 0 forward_v I I I I #
coedge $-1 $339 $338 $331 $430 forward $216 $-1 #
coedge $-1 $331 $218 $220 $335 reversed $129 $-1 #
coedge $-1 $218 $330 $329 $430 reversed $129 $-1 #
coedge $-1 $226 $221 $218 $333 forward $227 $-1 #
edge $-1 $336 15.015012245712072 $431 18.625499103277079 $332 $432 forward 7 unknown #
coedge $-1 $220 $219 $339 $433 reversed $81 $-1 #
edge $-1 $434 -133.62712485122231 $336 -127.48459760564612 $330 $435 forward 7 unknown #
vertex $-1 $222 $436 #
straight-curve $-1 63.203075568046145 -7.1309878353855503 14.164640840686971 0 -1 0 I I #
coedge $-1 $329 $223 $226 $343 reversed $216 $-1 #
coedge $-1 $223 $329 $334 $433 forward $216 $-1 #
vertex $-1 $224 $437 #
straight-curve $-1 66.813562425611138 -7.9494728144706475 97.922949828314742 0 0 1 I I #
straight-curve $-1 -11.73048936300728 -7.9494728144706475 117.30184786801109 0.5877852410284794 0 -0.80901700255871778 I I #
edge $-1 $431 -20.574478527071555 $228 -7.9494728144706475 $338 $438 forward 7 unknown #
point $-1 66.813562425611138 -7.9494728144706475 14.164640840686978 #
point $-1 63.203075568046131 -7.9494728144706475 14.164640840686985 #
edge $-1 $439 1 $439 0 $231 $-1 forward 7 unknown #
vertex $-1 $232 $440 #
ellipse-curve $-1 62.008670015128615 -16.967334037757006 9.5005638600284534 0.80901700255871778 0 0.5877852410284794 0.8816778615427191 0 -1.2135255038380768 1 I I #
point $-1 65.889996858371376 -16.967334037757006 10.466410846673257 #
edge $-1 $441 1 $441 0 $235 $-1 forward 7 unknown #
vertex $-1 $236 $442 #
ellipse-curve $-1 62.008670015128615 -11.556617303785188 9.5005638600284534 0.80901700255871778 0 0.5877852410284794 0.8816778615427191 0 -1.2135255038380768 1 I I #
point $-1 65.889996858371376 -11.556617303785188 10.466410846673257 #
plane-surface $-1 0 0 14.164640840686978 0 0 1 1 0 0 forward_v I I I I #
coedge $-1 $365 $364 $357 $443 forward $240 $-1 #
coedge $-1 $357 $242 $244 $361 reversed $151 $-1 #
coedge $-1 $242 $356 $355 $443 reversed $151 $-1 #
coedge $-1 $250 $245 $242 $359 forward $251 $-1 #
edge $-1 $362 -28.511965645173596 $444 -19.243025016856933 $358 $445 forward 7 unknown #
coedge $-1 $244 $243 $365 $446 reversed $95 $-1 #
edge $-1 $447 4.6193811539156697e-014 $362 15.055255459138733 $356 $448 forward 7 unknown #
vertex $-1 $246 $449 #
straight-curve $-1 -57.544621797294475 -5.208410884590613 14.164640840686978 0 1 0 I I #
coedge $-1 $355 $247 $250 $369 reversed $240 $-1 #
coedge $-1 $247 $355 $360 $446 forward $240 $-1 #
vertex $-1 $248 $450 #
straight-curve $-1 -66.813562425611138 -14.448598949691416 42.285004466976588 0 0 1 I I #
straight-curve $-1 -66.813562425611167 -14.448598949691416 2.3009375163170205 -0.61566146476048833 0 -0.78801076186113728 I I #
edge $-1 $444 6.3850445886710361 $252 14.448598949691416 $364 $451 forward 7 unknown #
point $-1 -66.813562425611138 -14.448598949691416 14.164640840686978 #
point $-1 -57.544621797294475 -14.448598949691416 14.164640840686978 #
edge $-1 $452 1 $452 0 $255 $-1 forward 7 unknown #
vertex $-1 $256 $453 #
ellipse-curve $-1 -59.29096184518027 -10.416821769181226 5.9763345763429232 -0.78801076186113728 0 0.61566146476048833 0.61566146476048833 0 0.78801076186113728 1 I I #
point $-1 -61.563430646692296 -10.416821769181226 9.0207999403631245 #
loop $-1 $-1 $267 $259 #
plane-surface $-1 -66.813562425611138 0 0 1 0 0 0 0 -1 forward_v I I I I #
coedge $-1 $379 $262 $264 $383 reversed $166 $-1 #
coedge $-1 $262 $378 $454 $455 reversed $166 $-1 #
coedge $-1 $270 $265 $262 $381 forward $260 $-1 #
edge $-1 $384 -28.511965645173596 $456 -19.243025016856933 $380 $457 forward 7 unknown #
coedge $-1 $264 $263 $387 $458 reversed $104 $-1 #
edge $-1 $459 4.6193811539156697e-014 $384 15.055255459138733 $378 $460 forward 7 unknown #
vertex $-1 $266 $461 #
straight-curve $-1 -57.544621797294475 10.49829277325717 14.164640840686978 0 1 0 I I #
coedge $-1 $454 $267 $270 $391 reversed $376 $-1 #
coedge $-1 $267 $454 $382 $458 forward $376 $-1 #
vertex $-1 $268 $462 #
straight-curve $-1 -66.813562425611138 16.964808366004149 42.285004466976588 0 0 1 I I #
straight-curve $-1 -66.813562425611167 16.964808366004149 2.3009375163170205 -0.61566146476048833 0 -0.78801076186113728 I I #
edge $-1 $456 -25.028362727024529 $271 -16.964808366004149 $386 $463 forward 7 unknown #
point $-1 -66.813562425611138 16.964808366004149 14.164640840686978 #
point $-1 -57.544621797294475 16.964808366004149 14.164640840686978 #
edge $-1 $464 1 $464 0 $274 $-1 forward 7 unknown #
vertex $-1 $275 $465 #
ellipse-curve $-1 -59.29096184518027 20.996585546514339 5.9763345763429232 -0.78801076186113728 0 0.61566146476048833 0.61566146476048833 0 0.78801076186113728 1 I I #
point $-1 -61.563430646692296 20.996585546514339 9.0207999403631245 #
plane-surface $-1 66.813562425611138 0 0 -1 0 0 0 0 1 forward_v I I I I #
coedge $-1 $283 $281 $285 $403 reversed $181 $-1 #
edge $-1 $296 -14.164640840686978 $405 14.164640840686978 $295 $466 forward 7 unknown #
vertex $-1 $403 $467 #
straight-curve $-1 -66.813562425611138 -31.154242304404661 0 0 0 -1 I I #
edge $-1 $401 -31.154242304404661 $405 31.154242304404661 $399 $468 forward 7 unknown #
straight-curve $-1 0 -31.154242304404661 -14.164640840686978 -1 0 0 I I #
vertex $-1 $288 $469 #
straight-curve $-1 0 31.154242304404661 -14.164640840686978 1 0 0 I I #
point $-1 66.813562425611138 31.154242304404661 -14.164640840686978 #
point $-1 66.813562425611138 -31.154242304404661 -14.164640840686978 #
straight-curve $-1 -66.813562425611138 0 14.164640840686978 0 -1 0 I I #
point $-1 -66.813562425611138 31.154242304404661 14.164640840686978 #
point $-1 -66.813562425611138 -31.154242304404661 14.164640840686978 #
straight-curve $-1 66.813562425611138 -31.154242304404661 0 0 0 -1 I I #
straight-curve $-1 66.813562425611138 31.154242304404661 0 0 0 -1 I I #
plane-surface $-1 0 -31.154242304404661 0 0 1 0 0 0 1 forward_v I I I I #
coedge $-1 $470 $308 $320 $426 reversed $200 $-1 #
coedge $-1 $308 $470 $323 $428 reversed $200 $-1 #
edge $-1 $471 -66.813562425611138 $317 -62.132016132802164 $313 $472 forward 7 unknown #
straight-curve $-1 -62.132016132802164 -12.932180207869052 14.164640840686978 0 1 0 I I #
coedge $-1 $320 $311 $314 $422 forward $306 $-1 #
straight-curve $-1 -62.132016132802164 -12.932180207869052 -14.164640840686978 0 -1 0 I I #
coedge $-1 $314 $313 $470 $473 forward $315 $-1 #
edge $-1 $316 62.132016132802164 $474 66.813562425611138 $314 $475 forward 7 unknown #
point $-1 -62.132016132802164 -31.154242304404661 -14.164640840686978 #
point $-1 -62.132016132802164 -31.154242304404661 14.164640840686978 #
straight-curve $-1 -66.813562425611138 -20.574478527071548 0 0 0 -1 I I #
edge $-1 $474 -31.154242304404661 $321 -20.574478527071548 $415 $476 forward 7 unknown #
point $-1 -66.813562425611138 -20.574478527071548 -14.164640840686978 #
edge $-1 $324 20.574478527071548 $471 31.154242304404661 $416 $477 forward 7 unknown #
point $-1 -66.813562425611138 -20.574478527071548 14.164640840686978 #
edge $-1 $431 83.758308987627771 $434 88.727717967979061 $329 $478 forward 7 unknown #
vertex $-1 $343 $479 #
straight-curve $-1 48.18806332233406 -20.574478527071555 14.164640840686985 1 0 0 I I #
edge $-1 $434 -13.443490691686005 $340 -0.81848497908509721 $339 $480 forward 7 unknown #
vertex $-1 $433 $481 #
straight-curve $-1 -11.73048936300728 -20.574478527071555 117.30184786801109 -0.5877852410284794 0 0.80901700255871778 I I #
point $-1 63.203075568046131 -20.574478527071555 14.164640840686985 #
point $-1 66.813562425611138 -7.9494728144706475 9.1952318603356815 #
straight-curve $-1 66.813562425611138 0 14.164640840686978 0 1 0 I I #
vertex $-1 $346 $482 #
point $-1 62.890347876671335 -16.967334037757006 8.2870383561903758 #
vertex $-1 $350 $483 #
point $-1 62.890347876671335 -11.556617303785188 8.2870383561903758 #
edge $-1 $444 28.12036362628961 $447 39.984066950659532 $355 $484 forward 7 unknown #
vertex $-1 $369 $485 #
straight-curve $-1 -86.056587442468071 -6.3850445886710361 14.164640840686978 -1 0 0 I I #
edge $-1 $447 1.1766337040804231 $366 9.2401880651008028 $365 $486 forward 7 unknown #
vertex $-1 $446 $487 #
straight-curve $-1 -66.813562425611167 -6.3850445886710361 2.3009375163170205 0.61566146476048833 0 0.78801076186113728 I I #
point $-1 -57.544621797294475 -6.3850445886710361 14.164640840686978 #
point $-1 -66.813562425611138 -14.448598949691416 2.3009375163170569 #
straight-curve $-1 -66.813562425611138 0 14.164640840686978 0 -1 0 I I #
vertex $-1 $372 $488 #
point $-1 -58.675300380419785 -10.416821769181226 6.7643453382040599 #
coedge $-1 $387 $386 $379 $455 forward $376 $-1 #
edge $-1 $456 28.12036362628961 $459 39.984066950659532 $454 $489 forward 7 unknown #
vertex $-1 $391 $490 #
straight-curve $-1 -86.056587442468071 25.028362727024529 14.164640840686978 -1 0 0 I I #
edge $-1 $459 -14.530069953767359 $388 -6.4665155927469797 $387 $491 forward 7 unknown #
vertex $-1 $458 $492 #
straight-curve $-1 -66.813562425611167 25.028362727024529 2.3009375163170205 0.61566146476048833 0 0.78801076186113728 I I #
point $-1 -57.544621797294475 25.028362727024529 14.164640840686978 #
point $-1 -66.813562425611138 16.964808366004149 2.3009375163170569 #
straight-curve $-1 -66.813562425611138 0 14.164640840686978 0 -1 0 I I #
vertex $-1 $394 $493 #
point $-1 -58.675300380419785 20.996585546514339 6.7643453382040599 #
straight-curve $-1 -66.813562425611138 31.154242304404661 0 0 0 -1 I I #
point $-1 -66.813562425611138 -31.154242304404661 -14.164640840686978 #
straight-curve $-1 -66.813562425611138 0 -14.164640840686978 0 1 0 I I #
point $-1 -66.813562425611138 31.154242304404661 -14.164640840686978 #
coedge $-1 $416 $415 $421 $473 reversed $200 $-1 #
vertex $-1 $428 $494 #
straight-curve $-1 0 -31.154242304404661 14.164640840686978 1 0 0 I I #
edge $-1 $471 -14.164640840686978 $474 14.164640840686978 $470 $495 forward 7 unknown #
vertex $-1 $426 $496 #
straight-curve $-1 0 -31.154242304404661 -14.164640840686978 -1 0 0 I I #
straight-curve $-1 -66.813562425611138 0 -14.164640840686978 0 1 0 I I #
straight-curve $-1 -66.813562425611138 0 14.164640840686978 0 -1 0 I I #
straight-curve $-1 66.813562425611138 -20.574478527071555 97.922949828314742 0 0 -1 I I #
point $-1 66.813562425611138 -20.574478527071555 14.164640840686978 #
straight-curve $-1 66.813562425611138 -7.1309878353855503 9.1952318603356744 0 1 0 I I #
point $-1 66.813562425611138 -20.574478527071555 9.1952318603356815 #
point $-1 60.795144511290545 -16.967334037757006 8.6188859984857338 #
point $-1 60.795144511290545 -11.556617303785188 8.6188859984857338 #
straight-curve $-1 -66.813562425611138 -6.3850445886710361 42.285004466976588 0 0 -1 I I #
point $-1 -66.813562425611138 -6.3850445886710361 14.164640840686978 #
straight-curve $-1 -66.813562425611138 -5.208410884590613 2.3009375163170636 0 -1 0 I I #
point $-1 -66.813562425611138 -6.3850445886710361 2.3009375163170569 #
point $-1 -58.50295108331914 -10.416821769181226 5.3606731115824342 #
straight-curve $-1 -66.813562425611138 25.028362727024529 42.285004466976588 0 0 -1 I I #
point $-1 -66.813562425611138 25.028362727024529 14.164640840686978 #
straight-curve $-1 -66.813562425611138 10.49829277325717 2.3009375163170636 0 -1 0 I I #
point $-1 -66.813562425611138 25.028362727024529 2.3009375163170569 #
point $-1 -58.50295108331914 20.996585546514339 5.3606731115824342 #
point $-1 -66.813562425611138 -31.154242304404661 14.164640840686978 #
straight-curve $-1 -66.813562425611138 -31.154242304404661 0 0 0 -1 I I #
point $-1 -66.813562425611138 -31.154242304404661 -14.164640840686978 #
End-of-ACIS-data 