500 0 12 0           
7 Unknown 11 ACIS 5.0 NT 24 Fri Mar 26 17:26:16 1999 
-1 9.9999999999999995e-007 1e-010 
body $-1 $12 $-1 $13 #
body $-1 $14 $-1 $15 #
body $-1 $16 $-1 $17 #
body $-1 $18 $-1 $19 #
body $-1 $20 $-1 $21 #
body $-1 $22 $-1 $23 #
body $-1 $24 $-1 $25 #
body $-1 $26 $-1 $27 #
body $-1 $28 $-1 $29 #
body $-1 $30 $-1 $31 #
body $-1 $32 $-1 $33 #
body $-1 $34 $-1 $35 #
lump $-1 $-1 $36 $0 #
transform $-1 1 0 0 0 1 0 0 0 1 41.334269234290595 17.317452970222014 6.6020047840423715 1 rotate no_reflect no_shear #
lump $-1 $-1 $37 $1 #
transform $-1 1 0 0 0 1 0 0 0 1 41.334269234290595 17.317452970222014 6.6020047840423715 1 rotate no_reflect no_shear #
lump $-1 $-1 $38 $2 #
transform $-1 1 0 0 0 1 0 0 0 1 41.334269234290595 17.317452970222014 6.6020047840423715 1 rotate no_reflect no_shear #
lump $-1 $-1 $39 $3 #
transform $-1 1 0 0 0 1 0 0 0 1 41.334269234290595 17.317452970222014 6.6020047840423715 1 rotate no_reflect no_shear #
lump $-1 $-1 $40 $4 #
transform $-1 1 0 0 0 1 0 0 0 1 41.334269234290595 17.317452970222014 6.6020047840423715 1 rotate no_reflect no_shear #
lump $-1 $-1 $41 $5 #
transform $-1 1 0 0 0 1 0 0 0 1 41.334269234290595 17.317452970222014 6.6020047840423715 1 rotate no_reflect no_shear #
lump $-1 $-1 $42 $6 #
transform $-1 1 0 0 0 1 0 0 0 1 41.334269234290595 17.317452970222014 6.6020047840423715 1 rotate no_reflect no_shear #
lump $-1 $-1 $43 $7 #
transform $-1 1 0 0 0 1 0 0 0 1 41.334269234290595 17.317452970222014 6.6020047840423715 1 rotate no_reflect no_shear #
lump $-1 $-1 $44 $8 #
transform $-1 1 0 0 0 1 0 0 0 1 41.334269234290595 17.317452970222014 6.6020047840423715 1 rotate no_reflect no_shear #
lump $-1 $-1 $45 $9 #
transform $-1 1 0 0 0 1 0 0 0 1 41.334269234290595 17.317452970222014 6.6020047840423715 1 rotate no_reflect no_shear #
lump $-1 $-1 $46 $10 #
transform $-1 1 0 0 0 1 0 0 0 1 41.334269234290595 17.317452970222014 6.6020047840423715 1 rotate no_reflect no_shear #
lump $-1 $-1 $47 $11 #
transform $-1 1 0 0 0 1 0 0 0 1 41.334269234290595 17.317452970222014 6.6020047840423715 1 rotate no_reflect no_shear #
shell $-1 $-1 $-1 $48 $-1 $12 #
shell $-1 $-1 $-1 $49 $-1 $14 #
shell $-1 $-1 $-1 $50 $-1 $16 #
shell $-1 $-1 $-1 $51 $-1 $18 #
shell $-1 $-1 $-1 $52 $-1 $20 #
shell $-1 $-1 $-1 $53 $-1 $22 #
shell $-1 $-1 $-1 $54 $-1 $24 #
shell $-1 $-1 $-1 $55 $-1 $26 #
shell $-1 $-1 $-1 $56 $-1 $28 #
shell $-1 $-1 $-1 $57 $-1 $30 #
shell $-1 $-1 $-1 $58 $-1 $32 #
shell $-1 $-1 $-1 $59 $-1 $34 #
face $-1 $60 $61 $36 $-1 $62 forward single #
face $-1 $63 $64 $37 $-1 $65 reversed single #
face $-1 $66 $67 $38 $-1 $68 reversed single #
face $-1 $69 $70 $39 $-1 $71 forward single #
face $-1 $72 $73 $40 $-1 $74 reversed single #
face $-1 $75 $76 $41 $-1 $77 forward single #
face $-1 $78 $79 $42 $-1 $80 forward single #
face $-1 $81 $82 $43 $-1 $83 forward single #
face $-1 $84 $85 $44 $-1 $86 reversed single #
face $-1 $87 $88 $45 $-1 $89 forward single #
face $-1 $90 $91 $46 $-1 $92 forward single #
face $-1 $93 $94 $47 $-1 $95 forward single #
face $-1 $96 $97 $36 $-1 $98 reversed single #
loop $-1 $-1 $99 $48 #
plane-surface $-1 0 0 6.6020047840423715 0 0 1 1 0 0 forward_v I I I I #
face $-1 $100 $101 $37 $-1 $102 reversed single #
loop $-1 $-1 $103 $49 #
plane-surface $-1 0 -14.504282054476453 3.6020047840423715 0 0 1 1 0 0 forward_v I I I I #
face $-1 $104 $105 $38 $-1 $106 reversed single #
loop $-1 $-1 $107 $50 #
plane-surface $-1 57.605132808662113 7.4689991727713405 116.01701845319377 0 -1 0 -0.79863551827123203 0 -0.60181501223851219 forward_v I I I I #
face $-1 $108 $109 $39 $-1 $110 forward single #
loop $-1 $111 $112 $51 #
cone-surface $-1 37.813732229875029 3.3230857344241862 2.5752250315867924 -0.79863551827123203 0 -0.60181501223851219 0.60181501223851219 0 -0.79863551827123203 1 I I 0 1 1 forward I I I I #
face $-1 $113 $114 $40 $-1 $115 reversed single #
loop $-1 $-1 $116 $52 #
plane-surface $-1 -41.334269234290588 -8.3630102182966919 1.8019367784668248 -0.57357644374324357 0 0.81915203911291934 0.81915203911291934 0 0.57357644374324357 forward_v I I I I #
face $-1 $117 $118 $41 $-1 $119 forward single #
loop $-1 $120 $121 $53 #
cone-surface $-1 -37.53727700673948 -10.359870770557212 3.6744293182775012 0.57357644374324357 0 -0.81915203911291934 0.40957601955645967 0 0.28678822187162178 1 I I 0 1 0.5 forward I I I I #
face $-1 $122 $123 $42 $-1 $124 forward single #
loop $-1 $125 $126 $54 #
cone-surface $-1 -37.53727700673948 -8.3630102182966919 3.6744293182775012 0.57357644374324357 0 -0.81915203911291934 0.40957601955645967 0 0.28678822187162178 1 I I 0 1 0.5 forward I I I I #
face $-1 $127 $128 $43 $-1 $129 forward single #
loop $-1 $130 $131 $55 #
cone-surface $-1 -37.53727700673948 -6.3661496660361721 3.6744293182775012 0.57357644374324357 0 -0.81915203911291934 0.40957601955645967 0 0.28678822187162178 1 I I 0 1 0.5 forward I I I I #
face $-1 $132 $133 $44 $-1 $134 reversed single #
loop $-1 $-1 $135 $56 #
plane-surface $-1 -88.75099553855091 2.813170915745562 69.520038635489925 0 1 0 -0.57357644374324357 0 0.81915203911291934 forward_v I I I I #
face $-1 $136 $137 $45 $-1 $138 forward single #
loop $-1 $139 $140 $57 #
cone-surface $-1 -37.53727700673948 4.14441128391924 3.6744293182775012 0.57357644374324357 0 -0.81915203911291934 0.40957601955645967 0 0.28678822187162178 1 I I 0 1 0.5 forward I I I I #
face $-1 $141 $142 $46 $-1 $143 forward single #
loop $-1 $144 $145 $58 #
cone-surface $-1 -37.53727700673948 6.1412718361797616 3.6744293182775012 0.57357644374324357 0 -0.81915203911291934 0.40957601955645967 0 0.28678822187162178 1 I I 0 1 0.5 forward I I I I #
face $-1 $146 $147 $47 $-1 $148 forward single #
loop $-1 $149 $150 $59 #
cone-surface $-1 -37.53727700673948 8.1381323884402832 3.6744293182775012 0.57357644374324357 0 -0.81915203911291934 0.40957601955645967 0 0.28678822187162178 1 I I 0 1 0.5 forward I I I I #
face $-1 $151 $152 $36 $-1 $153 reversed single #
loop $-1 $-1 $154 $60 #
plane-surface $-1 0 0 -6.6020047840423715 0 0 1 1 0 0 forward_v I I I I #
coedge $-1 $155 $156 $157 $158 forward $61 $-1 #
face $-1 $159 $160 $37 $-1 $161 reversed single #
loop $-1 $-1 $162 $63 #
plane-surface $-1 0 -11.691111138730893 5.1020047840423715 0 -1 0 0 0 -1 forward_v I I I I #
coedge $-1 $163 $164 $165 $166 reversed $64 $-1 #
face $-1 $167 $168 $38 $-1 $169 reversed single #
loop $-1 $-1 $170 $66 #
plane-surface $-1 -8.4168982559185039 3.3230857344241862 66.265850962984672 0.79863551827123203 0 0.60181501223851219 0.60181501223851219 0 -0.79863551827123203 forward_v I I I I #
coedge $-1 $171 $172 $173 $174 reversed $67 $-1 #
face $-1 $-1 $175 $39 $-1 $176 forward single #
loop $-1 $177 $178 $69 #
cone-surface $-1 36.289495384149539 3.3230857344241862 1.4266302158311248 -0.79863551827123203 0 -0.60181501223851219 0.3009075061192561 0 -0.39931775913561601 1 I I -0.70710678118654746 0.70710678118654746 0.5 forward I I I I #
loop $-1 $-1 $179 $51 #
coedge $-1 $112 $112 $180 $181 reversed $70 $-1 #
face $-1 $182 $183 $40 $-1 $184 forward single #
loop $-1 $-1 $185 $72 #
plane-surface $-1 -88.75099553855091 -5.0349092978624927 69.520038635489925 0 -1 0 0.57357644374324357 0 -0.81915203911291934 forward_v I I I I #
coedge $-1 $186 $187 $188 $189 reversed $73 $-1 #
face $-1 $-1 $190 $41 $-1 $191 forward single #
loop $-1 $192 $193 $75 #
cone-surface $-1 -37.024494379614183 -10.359870770557212 2.9420998455221721 0.57357644374324357 0 -0.81915203911291934 0.20478800977822983 0 0.14339411093581089 1 I I -0.70710678118654746 0.70710678118654746 0.25 forward I I I I #
loop $-1 $-1 $194 $53 #
coedge $-1 $121 $121 $195 $196 reversed $76 $-1 #
face $-1 $-1 $197 $42 $-1 $198 forward single #
loop $-1 $199 $200 $78 #
cone-surface $-1 -37.024494379614183 -8.3630102182966919 2.9420998455221721 0.57357644374324357 0 -0.81915203911291934 0.20478800977822983 0 0.14339411093581089 1 I I -0.70710678118654746 0.70710678118654746 0.25 forward I I I I #
loop $-1 $-1 $201 $54 #
coedge $-1 $126 $126 $202 $203 reversed $79 $-1 #
face $-1 $-1 $204 $43 $-1 $205 forward single #
loop $-1 $206 $207 $81 #
cone-surface $-1 -37.024494379614183 -6.3661496660361721 2.9420998455221721 0.57357644374324357 0 -0.81915203911291934 0.20478800977822983 0 0.14339411093581089 1 I I -0.70710678118654746 0.70710678118654746 0.25 forward I I I I #
loop $-1 $-1 $208 $55 #
coedge $-1 $131 $131 $209 $210 reversed $82 $-1 #
face $-1 $211 $212 $44 $-1 $213 reversed single #
loop $-1 $-1 $214 $84 #
plane-surface $-1 -41.334269234290588 6.1412718361797616 1.8019367784668248 -0.57357644374324357 0 0.81915203911291934 0.81915203911291934 0 0.57357644374324357 forward_v I I I I #
coedge $-1 $215 $216 $217 $218 reversed $85 $-1 #
face $-1 $-1 $219 $45 $-1 $220 forward single #
loop $-1 $221 $222 $87 #
cone-surface $-1 -37.024494379614183 4.14441128391924 2.9420998455221721 0.57357644374324357 0 -0.81915203911291934 0.20478800977822983 0 0.14339411093581089 1 I I -0.70710678118654746 0.70710678118654746 0.25 forward I I I I #
loop $-1 $-1 $223 $57 #
coedge $-1 $140 $140 $224 $225 reversed $88 $-1 #
face $-1 $-1 $226 $46 $-1 $227 forward single #
loop $-1 $228 $229 $90 #
cone-surface $-1 -37.024494379614183 6.1412718361797616 2.9420998455221721 0.57357644374324357 0 -0.81915203911291934 0.20478800977822983 0 0.14339411093581089 1 I I -0.70710678118654746 0.70710678118654746 0.25 forward I I I I #
loop $-1 $-1 $230 $58 #
coedge $-1 $145 $145 $231 $232 reversed $91 $-1 #
face $-1 $-1 $233 $47 $-1 $234 forward single #
loop $-1 $235 $236 $93 #
cone-surface $-1 -37.024494379614183 8.1381323884402832 2.9420998455221721 0.57357644374324357 0 -0.81915203911291934 0.20478800977822983 0 0.14339411093581089 1 I I -0.70710678118654746 0.70710678118654746 0.25 forward I I I I #
loop $-1 $-1 $237 $59 #
coedge $-1 $150 $150 $238 $239 reversed $94 $-1 #
face $-1 $240 $241 $36 $-1 $242 reversed single #
loop $-1 $-1 $243 $96 #
plane-surface $-1 0 -17.317452970222014 0 0 1 0 0 0 1 forward_v I I I I #
coedge $-1 $244 $245 $246 $247 forward $97 $-1 #
coedge $-1 $248 $99 $249 $250 forward $61 $-1 #
coedge $-1 $99 $248 $251 $252 forward $61 $-1 #
coedge $-1 $253 $254 $99 $158 reversed $255 $-1 #
edge $-1 $256 -17.317452970222014 $257 17.317452970222014 $157 $258 forward 7 unknown #
face $-1 $259 $260 $37 $-1 $261 reversed single #
loop $-1 $-1 $262 $100 #
plane-surface $-1 -41.334269234290595 0 0 1 0 0 0 0 -1 forward_v I I I I #
coedge $-1 $263 $264 $265 $266 reversed $101 $-1 #
coedge $-1 $267 $103 $268 $269 reversed $64 $-1 #
coedge $-1 $103 $267 $263 $270 forward $64 $-1 #
coedge $-1 $265 $271 $103 $166 forward $272 $-1 #
edge $-1 $273 -10.065311942983787 $274 -4.4389701114926661 $165 $275 forward 7 unknown #
face $-1 $276 $277 $38 $-1 $278 reversed single #
loop $-1 $-1 $279 $104 #
plane-surface $-1 57.605132808662113 -0.82282770392296811 116.01701845319377 0 1 0 0.79863551827123203 0 0.60181501223851219 forward_v I I I I #
coedge $-1 $280 $281 $282 $283 reversed $105 $-1 #
coedge $-1 $172 $107 $284 $285 reversed $67 $-1 #
coedge $-1 $107 $171 $280 $286 reversed $67 $-1 #
coedge $-1 $282 $287 $107 $174 forward $288 $-1 #
edge $-1 $289 -12.531702829959539 $290 -7.7404669943081466 $173 $291 forward 7 unknown #
loop $-1 $-1 $180 $108 #
plane-surface $-1 -8.4168982559185039 3.3230857344241862 66.265850962984672 0.79863551827123203 0 0.60181501223851219 0.60181501223851219 0 -0.79863551827123203 forward_v I I I I #
loop $-1 $-1 $292 $69 #
coedge $-1 $178 $178 $179 $293 reversed $109 $-1 #
coedge $-1 $179 $179 $178 $293 forward $111 $-1 #
coedge $-1 $180 $180 $112 $181 forward $175 $-1 #
edge $-1 $294 0 $294 6.2831853071796004 $180 $295 forward 7 unknown #
face $-1 $296 $297 $40 $-1 $298 reversed single #
loop $-1 $-1 $188 $113 #
plane-surface $-1 0 0 6.6020047840423715 0 0 1 1 0 0 forward_v I I I I #
coedge $-1 $299 $300 $301 $302 reversed $114 $-1 #
coedge $-1 $303 $116 $304 $305 reversed $73 $-1 #
coedge $-1 $116 $303 $299 $306 forward $73 $-1 #
coedge $-1 $301 $307 $116 $189 forward $183 $-1 #
edge $-1 $308 -7.5096060295825451 $309 -0.85340418871414681 $188 $310 forward 7 unknown #
loop $-1 $-1 $195 $117 #
plane-surface $-1 -41.334269234290588 -8.3630102182966919 1.8019367784668248 -0.57357644374324357 0 0.81915203911291934 0.81915203911291934 0 0.57357644374324357 forward_v I I I I #
loop $-1 $-1 $311 $75 #
coedge $-1 $193 $193 $194 $312 reversed $118 $-1 #
coedge $-1 $194 $194 $193 $312 forward $120 $-1 #
coedge $-1 $195 $195 $121 $196 forward $190 $-1 #
edge $-1 $313 0 $313 6.2831853071796004 $195 $314 forward 7 unknown #
loop $-1 $-1 $202 $122 #
plane-surface $-1 -41.334269234290588 -8.3630102182966919 1.8019367784668248 -0.57357644374324357 0 0.81915203911291934 0.81915203911291934 0 0.57357644374324357 forward_v I I I I #
loop $-1 $-1 $315 $78 #
coedge $-1 $200 $200 $201 $316 reversed $123 $-1 #
coedge $-1 $201 $201 $200 $316 forward $125 $-1 #
coedge $-1 $202 $202 $126 $203 forward $197 $-1 #
edge $-1 $317 0 $317 6.2831853071796004 $202 $318 forward 7 unknown #
loop $-1 $-1 $209 $127 #
plane-surface $-1 -41.334269234290588 -8.3630102182966919 1.8019367784668248 -0.57357644374324357 0 0.81915203911291934 0.81915203911291934 0 0.57357644374324357 forward_v I I I I #
loop $-1 $-1 $319 $81 #
coedge $-1 $207 $207 $208 $320 reversed $128 $-1 #
coedge $-1 $208 $208 $207 $320 forward $130 $-1 #
coedge $-1 $209 $209 $131 $210 forward $204 $-1 #
edge $-1 $321 0 $321 6.2831853071796004 $209 $322 forward 7 unknown #
face $-1 $323 $324 $44 $-1 $325 forward single #
loop $-1 $-1 $326 $132 #
plane-surface $-1 -88.75099553855091 9.4693727566139607 69.520038635489925 0 -1 0 0.57357644374324357 0 -0.81915203911291934 forward_v I I I I #
coedge $-1 $327 $328 $329 $330 reversed $133 $-1 #
coedge $-1 $216 $135 $331 $332 reversed $85 $-1 #
coedge $-1 $135 $215 $327 $333 reversed $85 $-1 #
coedge $-1 $329 $334 $135 $218 forward $324 $-1 #
edge $-1 $335 3.0412285349848602 $336 9.8964359577081282 $217 $337 forward 7 unknown #
loop $-1 $-1 $224 $136 #
plane-surface $-1 -41.334269234290588 6.1412718361797616 1.8019367784668248 -0.57357644374324357 0 0.81915203911291934 0.81915203911291934 0 0.57357644374324357 forward_v I I I I #
loop $-1 $-1 $338 $87 #
coedge $-1 $222 $222 $223 $339 reversed $137 $-1 #
coedge $-1 $223 $223 $222 $339 forward $139 $-1 #
coedge $-1 $224 $224 $140 $225 forward $219 $-1 #
edge $-1 $340 0 $340 6.2831853071796004 $224 $341 forward 7 unknown #
loop $-1 $-1 $231 $141 #
plane-surface $-1 -41.334269234290588 6.1412718361797616 1.8019367784668248 -0.57357644374324357 0 0.81915203911291934 0.81915203911291934 0 0.57357644374324357 forward_v I I I I #
loop $-1 $-1 $342 $90 #
coedge $-1 $229 $229 $230 $343 reversed $142 $-1 #
coedge $-1 $230 $230 $229 $343 forward $144 $-1 #
coedge $-1 $231 $231 $145 $232 forward $226 $-1 #
edge $-1 $344 0 $344 6.2831853071796004 $231 $345 forward 7 unknown #
loop $-1 $-1 $238 $146 #
plane-surface $-1 -41.334269234290588 6.1412718361797616 1.8019367784668248 -0.57357644374324357 0 0.81915203911291934 0.81915203911291934 0 0.57357644374324357 forward_v I I I I #
loop $-1 $-1 $346 $93 #
coedge $-1 $236 $236 $237 $347 reversed $147 $-1 #
coedge $-1 $237 $237 $236 $347 forward $149 $-1 #
coedge $-1 $238 $238 $150 $239 forward $233 $-1 #
edge $-1 $348 0 $348 6.2831853071796004 $238 $349 forward 7 unknown #
face $-1 $350 $351 $36 $-1 $352 reversed single #
loop $-1 $-1 $353 $151 #
plane-surface $-1 -41.334269234290595 0 0 1 0 0 0 0 -1 forward_v I I I I #
coedge $-1 $354 $251 $355 $356 forward $152 $-1 #
coedge $-1 $357 $154 $354 $358 forward $97 $-1 #
coedge $-1 $154 $357 $359 $360 forward $97 $-1 #
coedge $-1 $254 $253 $154 $247 reversed $255 $-1 #
edge $-1 $361 -17.317452970222014 $362 17.317452970222014 $246 $363 forward 7 unknown #
coedge $-1 $156 $155 $364 $365 forward $61 $-1 #
coedge $-1 $366 $367 $155 $250 reversed $351 $-1 #
edge $-1 $257 -41.334269234290595 $368 41.334269234290595 $249 $369 forward 7 unknown #
coedge $-1 $243 $370 $156 $252 reversed $152 $-1 #
edge $-1 $371 -41.334269234290595 $256 41.334269234290595 $251 $372 forward 7 unknown #
coedge $-1 $246 $157 $370 $373 forward $255 $-1 #
coedge $-1 $157 $246 $366 $374 reversed $255 $-1 #
loop $-1 $-1 $253 $350 #
vertex $-1 $158 $375 #
vertex $-1 $158 $376 #
straight-curve $-1 41.334269234290595 0 6.6020047840423715 0 1 0 I I #
face $-1 $377 $378 $37 $-1 $379 forward single #
loop $-1 $-1 $268 $159 #
plane-surface $-1 0 -17.317452970222014 0 0 1 0 0 0 1 forward_v I I I I #
coedge $-1 $380 $381 $382 $383 forward $160 $-1 #
coedge $-1 $382 $162 $164 $270 reversed $101 $-1 #
coedge $-1 $162 $382 $384 $385 reversed $101 $-1 #
coedge $-1 $386 $165 $162 $266 forward $272 $-1 #
edge $-1 $274 1.0510023920211857 $387 4.0510023920211857 $265 $388 forward 7 unknown #
coedge $-1 $164 $163 $380 $389 reversed $64 $-1 #
coedge $-1 $390 $391 $163 $269 forward $260 $-1 #
edge $-1 $392 -41.334269234290595 $273 41.334269234290595 $268 $393 forward 7 unknown #
edge $-1 $394 -41.334269234290595 $274 41.334269234290595 $263 $395 forward 7 unknown #
coedge $-1 $165 $386 $390 $396 forward $272 $-1 #
loop $-1 $-1 $265 $377 #
vertex $-1 $269 $397 #
vertex $-1 $166 $398 #
straight-curve $-1 41.334269234290595 -7.2521410272382267 3.6020047840423715 0 1 0 I I #
face $-1 $-1 $288 $38 $-1 $399 forward single #
loop $-1 $-1 $400 $167 #
plane-surface $-1 41.334269234290595 0 0 -1 0 0 0 0 1 forward_v I I I I #
coedge $-1 $401 $402 $403 $404 reversed $168 $-1 #
coedge $-1 $405 $170 $172 $286 forward $105 $-1 #
coedge $-1 $170 $405 $401 $406 forward $105 $-1 #
coedge $-1 $403 $173 $170 $283 forward $288 $-1 #
edge $-1 $290 -5.8074563055592474 $407 2.4843705711350612 $282 $408 forward 7 unknown #
coedge $-1 $409 $410 $171 $285 forward $277 $-1 #
edge $-1 $411 -57.764689328192816 $289 -51.406504442554514 $284 $412 forward 7 unknown #
edge $-1 $290 74.707228534104956 $411 82.668538468581175 $172 $413 forward 7 unknown #
coedge $-1 $173 $403 $409 $414 forward $288 $-1 #
loop $-1 $-1 $403 $276 #
vertex $-1 $285 $415 #
vertex $-1 $174 $416 #
straight-curve $-1 28.802566404331056 7.4689991727713405 6.6020047840423715 -1 0 0 I I #
coedge $-1 $292 $292 $-1 $417 reversed $177 $-1 #
edge $-1 $418 0 $418 6.2831853071796004 $178 $419 forward 7 unknown #
vertex $-1 $181 $420 #
ellipse-curve $-1 38.938651316464906 3.3230857344241862 3.4229123412232054 0.79863551827123203 0 0.60181501223851219 0.60181501223851219 0 -0.79863551827123203 1 I I #
face $-1 $-1 $421 $40 $-1 $422 forward single #
loop $-1 $-1 $423 $182 #
plane-surface $-1 -41.334269234290595 0 0 1 0 0 0 0 -1 forward_v I I I I #
coedge $-1 $300 $185 $187 $306 reversed $114 $-1 #
coedge $-1 $185 $299 $423 $424 reversed $114 $-1 #
coedge $-1 $425 $188 $185 $302 forward $183 $-1 #
edge $-1 $309 -9.8964359577081282 $426 -3.0412285349848602 $301 $427 forward 7 unknown #
coedge $-1 $187 $186 $428 $429 reversed $73 $-1 #
coedge $-1 $430 $431 $186 $305 forward $421 $-1 #
edge $-1 $432 -17.87594609963022 $308 -9.5072830244006852 $304 $433 forward 7 unknown #
edge $-1 $434 -8.6223355153435888e-015 $309 8.3686630752295255 $299 $435 forward 7 unknown #
coedge $-1 $188 $425 $430 $436 forward $183 $-1 #
vertex $-1 $305 $437 #
vertex $-1 $189 $438 #
straight-curve $-1 -34.479061811567327 -4.1815051091483459 6.6020047840423723 0 1 0 I I #
coedge $-1 $311 $311 $-1 $439 reversed $192 $-1 #
edge $-1 $440 0 $440 6.2831853071796004 $193 $441 forward 7 unknown #
vertex $-1 $196 $442 #
ellipse-curve $-1 -37.906665522928961 -10.359870770557212 4.2019707812545954 -0.57357644374324357 0 0.81915203911291934 0.40957601955645967 0 0.28678822187162178 1 I I #
coedge $-1 $315 $315 $-1 $443 reversed $199 $-1 #
edge $-1 $444 0 $444 6.2831853071796004 $200 $445 forward 7 unknown #
vertex $-1 $203 $446 #
ellipse-curve $-1 -37.906665522928961 -8.3630102182966919 4.2019707812545954 -0.57357644374324357 0 0.81915203911291934 0.40957601955645967 0 0.28678822187162178 1 I I #
coedge $-1 $319 $319 $-1 $447 reversed $206 $-1 #
edge $-1 $448 0 $448 6.2831853071796004 $207 $449 forward 7 unknown #
vertex $-1 $210 $450 #
ellipse-curve $-1 -37.906665522928961 -6.3661496660361721 4.2019707812545954 -0.57357644374324357 0 0.81915203911291934 0.40957601955645967 0 0.28678822187162178 1 I I #
face $-1 $-1 $451 $44 $-1 $452 reversed single #
loop $-1 $-1 $217 $211 #
plane-surface $-1 0 0 6.6020047840423715 0 0 1 1 0 0 forward_v I I I I #
coedge $-1 $453 $454 $455 $456 reversed $212 $-1 #
coedge $-1 $457 $214 $216 $333 forward $133 $-1 #
coedge $-1 $214 $457 $453 $458 forward $133 $-1 #
coedge $-1 $455 $217 $214 $330 forward $324 $-1 #
edge $-1 $336 -0.25746500234431879 $459 6.3987368385240799 $329 $460 forward 7 unknown #
coedge $-1 $461 $462 $215 $332 forward $451 $-1 #
edge $-1 $463 -32.958082539278145 $335 -28.158014533702591 $331 $464 forward 7 unknown #
edge $-1 $336 -8.3686630752295255 $463 8.6223355153435888e-015 $216 $465 forward 7 unknown #
coedge $-1 $217 $455 $461 $466 forward $324 $-1 #
vertex $-1 $218 $467 #
vertex $-1 $218 $468 #
straight-curve $-1 -44.375497769275455 2.813170915745562 6.6020047840423715 1 0 0 I I #
coedge $-1 $338 $338 $-1 $469 reversed $221 $-1 #
edge $-1 $470 0 $470 6.2831853071796004 $222 $471 forward 7 unknown #
vertex $-1 $225 $472 #
ellipse-curve $-1 -37.906665522928961 4.14441128391924 4.2019707812545954 -0.57357644374324357 0 0.81915203911291934 0.40957601955645967 0 0.28678822187162178 1 I I #
coedge $-1 $342 $342 $-1 $473 reversed $228 $-1 #
edge $-1 $474 0 $474 6.2831853071796004 $229 $475 forward 7 unknown #
vertex $-1 $232 $476 #
ellipse-curve $-1 -37.906665522928961 6.1412718361797616 4.2019707812545954 -0.57357644374324357 0 0.81915203911291934 0.40957601955645967 0 0.28678822187162178 1 I I #
coedge $-1 $346 $346 $-1 $477 reversed $235 $-1 #
edge $-1 $478 0 $478 6.2831853071796004 $236 $479 forward 7 unknown #
vertex $-1 $239 $480 #
ellipse-curve $-1 -37.906665522928961 8.1381323884402832 4.2019707812545954 -0.57357644374324357 0 0.81915203911291934 0.40957601955645967 0 0.28678822187162178 1 I I #
face $-1 $-1 $255 $36 $-1 $481 reversed single #
loop $-1 $-1 $366 $240 #
plane-surface $-1 0 17.317452970222014 0 0 -1 0 0 0 -1 forward_v I I I I #
coedge $-1 $482 $364 $367 $483 forward $241 $-1 #
coedge $-1 $370 $243 $244 $358 reversed $152 $-1 #
coedge $-1 $364 $482 $243 $356 reversed $241 $-1 #
edge $-1 $371 -6.6020047840423715 $484 6.6020047840423715 $355 $485 forward 7 unknown #
coedge $-1 $245 $244 $482 $486 forward $97 $-1 #
edge $-1 $362 -41.334269234290595 $484 41.334269234290595 $354 $487 forward 7 unknown #
coedge $-1 $367 $366 $245 $360 reversed $351 $-1 #
edge $-1 $488 -41.334269234290595 $361 41.334269234290595 $359 $489 forward 7 unknown #
vertex $-1 $247 $490 #
vertex $-1 $373 $491 #
straight-curve $-1 41.334269234290595 0 -6.6020047840423715 0 -1 0 I I #
coedge $-1 $353 $355 $248 $365 reversed $241 $-1 #
edge $-1 $368 -17.317452970222014 $371 17.317452970222014 $364 $492 forward 7 unknown #
coedge $-1 $359 $249 $254 $374 forward $351 $-1 #
coedge $-1 $249 $359 $353 $483 reversed $351 $-1 #
vertex $-1 $250 $493 #
straight-curve $-1 0 17.317452970222014 6.6020047840423715 -1 0 0 I I #
coedge $-1 $251 $354 $253 $373 reversed $152 $-1 #
vertex $-1 $365 $494 #
straight-curve $-1 0 -17.317452970222014 6.6020047840423715 1 0 0 I I #
edge $-1 $256 -6.6020047840423715 $362 6.6020047840423715 $253 $495 forward 7 unknown #
edge $-1 $257 -6.6020047840423715 $361 6.6020047840423715 $254 $496 forward 7 unknown #
point $-1 41.334269234290595 -17.317452970222014 6.6020047840423715 #
point $-1 41.334269234290595 17.317452970222014 6.6020047840423715 #
face $-1 $-1 $272 $37 $-1 $497 reversed single #
loop $-1 $-1 $384 $259 #
plane-surface $-1 0 0 6.6020047840423715 0 0 1 1 0 0 forward_v I I I I #
coedge $-1 $498 $262 $267 $389 forward $160 $-1 #
coedge $-1 $262 $498 $499 $500 reversed $160 $-1 #
coedge $-1 $264 $263 $262 $383 reversed $101 $-1 #
edge $-1 $501 -4.0510023920211857 $394 -1.0510023920211857 $262 $502 forward 7 unknown #
coedge $-1 $499 $503 $264 $385 forward $378 $-1 #
edge $-1 $387 -41.334269234290595 $501 41.334269234290595 $384 $504 forward 7 unknown #
coedge $-1 $271 $265 $503 $505 reversed $272 $-1 #
vertex $-1 $266 $506 #
straight-curve $-1 41.334269234290595 -11.691111138730893 2.5510023920211857 0 0 1 I I #
edge $-1 $394 4.4389701114926661 $392 10.065311942983787 $380 $507 forward 7 unknown #
coedge $-1 $508 $268 $271 $396 reversed $260 $-1 #
coedge $-1 $268 $508 $498 $509 forward $260 $-1 #
vertex $-1 $269 $510 #
straight-curve $-1 0 -17.317452970222014 3.6020047840423715 1 0 0 I I #
vertex $-1 $389 $511 #
straight-curve $-1 0 -11.691111138730893 3.6020047840423715 1 0 0 I I #
edge $-1 $512 -6.6020047840423715 $273 -3.6020047840423715 $271 $513 forward 7 unknown #
point $-1 41.334269234290595 -17.317452970222014 3.6020047840423715 #
point $-1 41.334269234290595 -11.691111138730893 3.6020047840423715 #
plane-surface $-1 0 0 6.6020047840423715 0 0 1 1 0 0 forward_v I I I I #
coedge $-1 $410 $409 $402 $514 forward $277 $-1 #
coedge $-1 $402 $279 $281 $406 reversed $168 $-1 #
coedge $-1 $279 $401 $400 $514 reversed $168 $-1 #
coedge $-1 $287 $282 $279 $404 forward $288 $-1 #
edge $-1 $407 7.7404669943081466 $515 12.531702829959539 $403 $516 forward 7 unknown #
coedge $-1 $281 $280 $410 $517 reversed $105 $-1 #
edge $-1 $518 -82.668538468581175 $407 -74.707228534104956 $401 $519 forward 7 unknown #
vertex $-1 $283 $520 #
straight-curve $-1 36.54303339863921 1.6615428672120931 6.6020047840423715 0 -1 0 I I #
coedge $-1 $400 $284 $287 $414 reversed $277 $-1 #
coedge $-1 $284 $400 $405 $517 forward $277 $-1 #
vertex $-1 $285 $521 #
straight-curve $-1 41.334269234290595 7.4689991727713405 58.008509226596885 0 0 1 I I #
straight-curve $-1 -8.4168982559185039 7.4689991727713405 66.265850962984672 0.60181501223851219 0 -0.79863551827123203 I I #
edge $-1 $515 -0.82282770392296811 $289 7.4689991727713405 $409 $522 forward 7 unknown #
point $-1 41.334269234290595 7.4689991727713405 6.6020047840423715 #
point $-1 36.543033398639203 7.4689991727713405 6.6020047840423786 #
edge $-1 $523 1 $523 0 $292 $-1 forward 7 unknown #
vertex $-1 $293 $524 #
ellipse-curve $-1 36.688813143285152 3.3230857344241862 1.7275377219503809 0.79863551827123203 0 0.60181501223851219 0.60181501223851219 0 -0.79863551827123203 1 I I #
point $-1 39.540466328703417 3.3230857344241862 2.6242768229519715 #
loop $-1 $-1 $304 $296 #
plane-surface $-1 0 -11.691111138730893 5.1020047840423715 0 -1 0 0 0 -1 forward_v I I I I #
coedge $-1 $428 $525 $300 $424 forward $297 $-1 #
edge $-1 $426 28.158014533702591 $434 32.958082539278145 $423 $526 forward 7 unknown #
coedge $-1 $307 $301 $525 $527 forward $183 $-1 #
vertex $-1 $527 $528 #
straight-curve $-1 -44.375497769275455 -5.0349092978624927 6.6020047840423715 -1 0 0 I I #
coedge $-1 $529 $423 $303 $429 forward $297 $-1 #
edge $-1 $434 0.85340418871414681 $432 7.5096060295825451 $428 $530 forward 7 unknown #
coedge $-1 $431 $304 $307 $436 reversed $421 $-1 #
coedge $-1 $304 $430 $529 $531 reversed $421 $-1 #
vertex $-1 $531 $532 #
straight-curve $-1 -26.691151535705863 -11.691111138730893 12.055158370838626 0.81915203911291934 0 0.57357644374324357 I I #
vertex $-1 $429 $533 #
straight-curve $-1 -41.334269234290588 -5.0349092978624927 1.8019367784668248 0.81915203911291934 0 0.57357644374324357 I I #
edge $-1 $534 -41.334269234290595 $308 -34.479061811567327 $307 $535 forward 7 unknown #
point $-1 -34.479061811567327 -11.691111138730891 6.6020047840423715 #
point $-1 -34.479061811567327 -5.0349092978624927 6.6020047840423715 #
edge $-1 $536 1 $536 0 $311 $-1 forward 7 unknown #
vertex $-1 $312 $537 #
ellipse-curve $-1 -37.167888490549991 -10.359870770557212 3.146887855300402 -0.57357644374324357 0 0.81915203911291934 0.40957601955645967 0 0.28678822187162178 1 I I #
point $-1 -37.497089503372507 -10.359870770557212 4.4887590031262219 #
edge $-1 $538 1 $538 0 $315 $-1 forward 7 unknown #
vertex $-1 $316 $539 #
ellipse-curve $-1 -37.167888490549991 -8.3630102182966919 3.146887855300402 -0.57357644374324357 0 0.81915203911291934 0.40957601955645967 0 0.28678822187162178 1 I I #
point $-1 -37.497089503372507 -8.3630102182966919 4.4887590031262219 #
edge $-1 $540 1 $540 0 $319 $-1 forward 7 unknown #
vertex $-1 $320 $541 #
ellipse-curve $-1 -37.167888490549991 -6.3661496660361721 3.146887855300402 -0.57357644374324357 0 0.81915203911291934 0.40957601955645967 0 0.28678822187162178 1 I I #
point $-1 -37.497089503372507 -6.3661496660361721 4.4887590031262219 #
loop $-1 $-1 $331 $323 #
plane-surface $-1 -41.334269234290595 0 0 1 0 0 0 0 -1 forward_v I I I I #
coedge $-1 $454 $326 $328 $458 reversed $212 $-1 #
coedge $-1 $326 $453 $542 $543 reversed $212 $-1 #
coedge $-1 $334 $329 $326 $456 forward $324 $-1 #
edge $-1 $459 -9.8964359577081282 $544 -3.0412285349848602 $455 $545 forward 7 unknown #
coedge $-1 $328 $327 $462 $546 reversed $133 $-1 #
edge $-1 $547 -8.6223355153435888e-015 $459 8.3686630752295255 $453 $548 forward 7 unknown #
vertex $-1 $330 $549 #
straight-curve $-1 -34.479061811567327 3.0706359180898808 6.6020047840423723 0 1 0 I I #
coedge $-1 $542 $331 $334 $466 reversed $451 $-1 #
coedge $-1 $331 $542 $457 $546 forward $451 $-1 #
vertex $-1 $332 $550 #
straight-curve $-1 -41.334269234290595 2.813170915745562 34.760019317744963 0 0 1 I I #
straight-curve $-1 -41.334269234290588 2.813170915745562 1.8019367784668248 -0.81915203911291934 0 -0.57357644374324357 I I #
edge $-1 $544 -9.4693727566139607 $335 -2.813170915745562 $461 $551 forward 7 unknown #
point $-1 -41.334269234290595 2.813170915745562 6.6020047840423715 #
point $-1 -34.479061811567327 2.813170915745562 6.6020047840423715 #
edge $-1 $552 1 $552 0 $338 $-1 forward 7 unknown #
vertex $-1 $339 $553 #
ellipse-curve $-1 -37.167888490549991 4.14441128391924 3.146887855300402 -0.57357644374324357 0 0.81915203911291934 0.40957601955645967 0 0.28678822187162178 1 I I #
point $-1 -37.497089503372507 4.14441128391924 4.4887590031262219 #
edge $-1 $554 1 $554 0 $342 $-1 forward 7 unknown #
vertex $-1 $343 $555 #
ellipse-curve $-1 -37.167888490549991 6.1412718361797616 3.146887855300402 -0.57357644374324357 0 0.81915203911291934 0.40957601955645967 0 0.28678822187162178 1 I I #
point $-1 -37.497089503372507 6.1412718361797616 4.4887590031262219 #
edge $-1 $556 1 $556 0 $346 $-1 forward 7 unknown #
vertex $-1 $347 $557 #
ellipse-curve $-1 -37.167888490549991 8.1381323884402832 3.146887855300402 -0.57357644374324357 0 0.81915203911291934 0.40957601955645967 0 0.28678822187162178 1 I I #
point $-1 -37.497089503372507 8.1381323884402832 4.4887590031262219 #
plane-surface $-1 41.334269234290595 0 0 -1 0 0 0 0 1 forward_v I I I I #
coedge $-1 $355 $353 $357 $486 reversed $241 $-1 #
edge $-1 $368 -6.6020047840423715 $488 6.6020047840423715 $367 $558 forward 7 unknown #
vertex $-1 $486 $559 #
straight-curve $-1 -41.334269234290595 -17.317452970222014 0 0 0 -1 I I #
edge $-1 $484 -17.317452970222014 $488 17.317452970222014 $482 $560 forward 7 unknown #
straight-curve $-1 0 -17.317452970222014 -6.6020047840423715 -1 0 0 I I #
vertex $-1 $360 $561 #
straight-curve $-1 0 17.317452970222014 -6.6020047840423715 1 0 0 I I #
point $-1 41.334269234290595 17.317452970222014 -6.6020047840423715 #
point $-1 41.334269234290595 -17.317452970222014 -6.6020047840423715 #
straight-curve $-1 -41.334269234290595 0 6.6020047840423715 0 -1 0 I I #
point $-1 -41.334269234290595 17.317452970222014 6.6020047840423715 #
point $-1 -41.334269234290595 -17.317452970222014 6.6020047840423715 #
straight-curve $-1 41.334269234290595 -17.317452970222014 0 0 0 -1 I I #
straight-curve $-1 41.334269234290595 17.317452970222014 0 0 0 -1 I I #
plane-surface $-1 41.334269234290595 0 0 -1 0 0 0 0 1 forward_v I I I I #
coedge $-1 $381 $380 $391 $509 reversed $160 $-1 #
coedge $-1 $562 $384 $381 $500 forward $378 $-1 #
edge $-1 $501 11.691111138730893 $563 17.317452970222014 $381 $564 forward 7 unknown #
vertex $-1 $500 $565 #
straight-curve $-1 -41.334269234290595 -11.691111138730893 2.5510023920211857 0 0 -1 I I #
coedge $-1 $384 $562 $386 $505 forward $378 $-1 #
straight-curve $-1 0 -11.691111138730893 6.6020047840423715 -1 0 0 I I #
edge $-1 $512 -17.317452970222014 $387 -11.691111138730893 $386 $566 forward 7 unknown #
point $-1 41.334269234290595 -11.691111138730893 6.6020047840423715 #
straight-curve $-1 -41.334269234290595 -7.2521410272382267 3.6020047840423715 0 -1 0 I I #
coedge $-1 $391 $390 $562 $567 reversed $260 $-1 #
edge $-1 $563 -6.6020047840423715 $392 -3.6020047840423715 $498 $568 forward 7 unknown #
point $-1 -41.334269234290595 -17.317452970222014 3.6020047840423715 #
point $-1 -41.334269234290595 -11.691111138730893 3.6020047840423715 #
vertex $-1 $505 $569 #
straight-curve $-1 41.334269234290595 -17.317452970222014 0 0 0 -1 I I #
edge $-1 $515 51.406504442554514 $518 57.764689328192816 $400 $570 forward 7 unknown #
vertex $-1 $414 $571 #
straight-curve $-1 28.802566404331056 -0.82282770392296811 6.6020047840423715 1 0 0 I I #
edge $-1 $518 -2.4843705711350612 $411 5.8074563055592474 $410 $572 forward 7 unknown #
vertex $-1 $517 $573 #
straight-curve $-1 -8.4168982559185039 -0.82282770392296811 66.265850962984672 -0.60181501223851219 0 0.79863551827123203 I I #
point $-1 36.543033398639203 -0.82282770392296811 6.6020047840423786 #
point $-1 41.334269234290595 7.4689991727713405 0.24381989840406959 #
straight-curve $-1 41.334269234290595 0 6.6020047840423715 0 1 0 I I #
vertex $-1 $417 $574 #
point $-1 37.29062815552367 3.3230857344241862 0.92890220367914889 #
coedge $-1 $423 $529 $425 $527 reversed $297 $-1 #
straight-curve $-1 -41.334269234290595 -5.0349092978624927 34.760019317744963 0 0 -1 I I #
edge $-1 $426 5.0349092978624927 $534 11.691111138730893 $525 $575 forward 7 unknown #
point $-1 -41.334269234290595 -5.0349092978624927 6.6020047840423715 #
coedge $-1 $525 $428 $431 $531 forward $297 $-1 #
straight-curve $-1 -41.334269234290595 -4.1815051091483459 1.8019367784668185 0 -1 0 I I #
edge $-1 $432 -32.958082539278145 $534 -28.158014533702591 $529 $576 forward 7 unknown #
point $-1 -41.334269234290595 -11.691111138730891 1.8019367784668199 #
point $-1 -41.334269234290595 -5.0349092978624927 1.8019367784668199 #
vertex $-1 $531 $577 #
straight-curve $-1 0 -11.691111138730893 6.6020047840423715 1 0 0 I I #
vertex $-1 $439 $578 #
point $-1 -36.75831247099353 -10.359870770557212 3.4336760771720236 #
vertex $-1 $443 $579 #
point $-1 -36.75831247099353 -8.3630102182966919 3.4336760771720236 #
vertex $-1 $447 $580 #
point $-1 -36.75831247099353 -6.3661496660361721 3.4336760771720236 #
coedge $-1 $462 $461 $454 $543 forward $451 $-1 #
edge $-1 $544 28.158014533702591 $547 32.958082539278145 $542 $581 forward 7 unknown #
vertex $-1 $466 $582 #
straight-curve $-1 -44.375497769275455 9.4693727566139607 6.6020047840423715 -1 0 0 I I #
edge $-1 $547 -6.3987368385240799 $463 0.25746500234431879 $462 $583 forward 7 unknown #
vertex $-1 $546 $584 #
straight-curve $-1 -41.334269234290588 9.4693727566139607 1.8019367784668248 0.81915203911291934 0 0.57357644374324357 I I #
point $-1 -34.479061811567327 9.4693727566139607 6.6020047840423715 #
point $-1 -41.334269234290595 2.813170915745562 1.8019367784668199 #
straight-curve $-1 -41.334269234290595 0 6.6020047840423715 0 -1 0 I I #
vertex $-1 $469 $585 #
point $-1 -36.75831247099353 4.14441128391924 3.4336760771720236 #
vertex $-1 $473 $586 #
point $-1 -36.75831247099353 6.1412718361797616 3.4336760771720236 #
vertex $-1 $477 $587 #
point $-1 -36.75831247099353 8.1381323884402832 3.4336760771720236 #
straight-curve $-1 -41.334269234290595 17.317452970222014 0 0 0 -1 I I #
point $-1 -41.334269234290595 -17.317452970222014 -6.6020047840423715 #
straight-curve $-1 -41.334269234290595 0 -6.6020047840423715 0 1 0 I I #
point $-1 -41.334269234290595 17.317452970222014 -6.6020047840423715 #
coedge $-1 $503 $499 $508 $567 forward $378 $-1 #
vertex $-1 $500 $588 #
straight-curve $-1 -41.334269234290595 0 6.6020047840423715 0 -1 0 I I #
point $-1 -41.334269234290595 -11.691111138730893 6.6020047840423715 #
straight-curve $-1 41.334269234290595 0 6.6020047840423715 0 1 0 I I #
edge $-1 $563 -41.334269234290595 $512 41.334269234290595 $508 $589 forward 7 unknown #
straight-curve $-1 -41.334269234290595 -17.317452970222014 0 0 0 -1 I I #
point $-1 41.334269234290595 -17.317452970222014 6.6020047840423715 #
straight-curve $-1 41.334269234290595 -0.82282770392296811 58.008509226596885 0 0 -1 I I #
point $-1 41.334269234290595 -0.82282770392296811 6.6020047840423715 #
straight-curve $-1 41.334269234290595 1.6615428672120931 0.24381989840405538 0 1 0 I I #
point $-1 41.334269234290595 -0.82282770392296811 0.24381989840406959 #
point $-1 35.890177625013926 3.3230857344241862 1.1257227097118687 #
straight-curve $-1 -41.334269234290595 0 6.6020047840423715 0 -1 0 I I #
straight-curve $-1 -41.334269234290595 -11.691111138730891 34.760019317744963 0 0 1 I I #
point $-1 -41.334269234290595 -11.691111138730893 6.6020047840423715 #
point $-1 -36.881100268678374 -10.359870770557212 2.7373118357439421 #
point $-1 -36.881100268678374 -8.3630102182966919 2.7373118357439421 #
point $-1 -36.881100268678374 -6.3661496660361721 2.7373118357439421 #
straight-curve $-1 -41.334269234290595 9.4693727566139607 34.760019317744963 0 0 -1 I I #
point $-1 -41.334269234290595 9.4693727566139607 6.6020047840423715 #
straight-curve $-1 -41.334269234290595 3.0706359180898808 1.8019367784668185 0 -1 0 I I #
point $-1 -41.334269234290595 9.4693727566139607 1.8019367784668199 #
point $-1 -36.881100268678374 4.14441128391924 2.7373118357439421 #
point $-1 -36.881100268678374 6.1412718361797616 2.7373118357439421 #
point $-1 -36.881100268678374 8.1381323884402832 2.7373118357439421 #
point $-1 -41.334269234290595 -17.317452970222014 6.6020047840423715 #
straight-curve $-1 0 -17.317452970222014 6.6020047840423715 1 0 0 I I #
End-of-ACIS-data 