500 0 5 0           
7 Unknown 11 ACIS 5.0 NT 24 Thu Mar 25 23:56:00 1999 
-1 9.9999999999999995e-007 1e-010 
body $-1 $5 $-1 $6 #
body $-1 $7 $-1 $8 #
body $-1 $9 $-1 $10 #
body $-1 $11 $-1 $12 #
body $-1 $13 $-1 $14 #
lump $-1 $-1 $15 $0 #
transform $-1 1 0 0 0 1 0 0 0 1 66.034730063783684 30.968831351364599 7.8932856811443397 1 rotate no_reflect no_shear #
lump $-1 $-1 $16 $1 #
transform $-1 1 0 0 0 1 0 0 0 1 66.034730063783684 30.968831351364599 7.8932856811443397 1 rotate no_reflect no_shear #
lump $-1 $-1 $17 $2 #
transform $-1 1 0 0 0 1 0 0 0 1 66.034730063783684 30.968831351364599 7.8932856811443397 1 rotate no_reflect no_shear #
lump $-1 $-1 $18 $3 #
transform $-1 1 0 0 0 1 0 0 0 1 66.034730063783684 30.968831351364599 7.8932856811443397 1 rotate no_reflect no_shear #
lump $-1 $-1 $19 $4 #
transform $-1 1 0 0 0 1 0 0 0 1 66.034730063783684 30.968831351364599 7.8932856811443397 1 rotate no_reflect no_shear #
shell $-1 $-1 $-1 $20 $-1 $5 #
shell $-1 $-1 $-1 $21 $-1 $7 #
shell $-1 $-1 $-1 $22 $-1 $9 #
shell $-1 $-1 $-1 $23 $-1 $11 #
shell $-1 $-1 $-1 $24 $-1 $13 #
face $-1 $25 $26 $15 $-1 $27 forward single #
face $-1 $28 $29 $16 $-1 $30 forward single #
face $-1 $31 $32 $17 $-1 $33 reversed single #
face $-1 $34 $35 $18 $-1 $36 forward single #
face $-1 $37 $38 $19 $-1 $39 forward single #
face $-1 $40 $41 $15 $-1 $42 reversed single #
loop $-1 $-1 $43 $20 #
plane-surface $-1 0 0 7.8932856811443397 0 0 1 1 0 0 forward_v I I I I #
face $-1 $44 $45 $16 $-1 $46 reversed single #
loop $-1 $-1 $47 $21 #
plane-surface $-1 -62.647485032249676 0 2.3508901899920809 0 0 1 1 0 0 forward_v I I I I #
face $-1 $48 $49 $17 $-1 $50 reversed single #
loop $-1 $-1 $51 $22 #
plane-surface $-1 -45.758920226179157 -30.968831351364599 2.0200651694948988 0 -0.80901700255871778 0.5877852410284794 1 0 0 forward_v I I I I #
face $-1 $52 $53 $18 $-1 $54 forward single #
loop $-1 $55 $56 $23 #
cone-surface $-1 -51.545200129551944 -27.771787103777385 4.184017760998211 0 0.80901700255871778 -0.5877852410284794 1 0 0 1 I I 0 1 1 forward I I I I #
face $-1 $57 $58 $19 $-1 $59 forward single #
loop $-1 $60 $61 $24 #
cone-surface $-1 -39.97264032280637 -27.771787103777385 4.184017760998211 0 0.80901700255871778 -0.5877852410284794 1 0 0 1 I I 0 1 1 forward I I I I #
face $-1 $62 $63 $15 $-1 $64 reversed single #
loop $-1 $-1 $65 $25 #
plane-surface $-1 0 0 -7.8932856811443397 0 0 1 1 0 0 forward_v I I I I #
coedge $-1 $66 $67 $68 $69 forward $26 $-1 #
face $-1 $70 $71 $16 $-1 $72 reversed single #
loop $-1 $-1 $73 $28 #
plane-surface $-1 -62.647485032249676 0 -0.64910981000792001 0 0 1 1 0 0 forward_v I I I I #
coedge $-1 $74 $75 $76 $77 forward $29 $-1 #
face $-1 $78 $79 $17 $-1 $80 reversed single #
loop $-1 $-1 $81 $31 #
plane-surface $-1 -32.257600451642659 -137.81527011331724 79.648544623078237 -1 0 0 0 -0.80901700255871778 0.5877852410284794 forward_v I I I I #
coedge $-1 $82 $83 $84 $85 reversed $32 $-1 #
face $-1 $-1 $86 $18 $-1 $87 forward single #
loop $-1 $88 $89 $34 #
cone-surface $-1 -51.545200129551944 -26.303806531474994 3.1174674761625596 0 0.80901700255871778 -0.5877852410284794 0.5 0 0 1 I I -0.70710678118654746 0.70710678118654746 0.5 forward I I I I #
loop $-1 $-1 $90 $23 #
coedge $-1 $56 $56 $91 $92 reversed $35 $-1 #
face $-1 $-1 $93 $19 $-1 $94 forward single #
loop $-1 $95 $96 $37 #
cone-surface $-1 -39.97264032280637 -26.303806531474994 3.1174674761625596 0 0.80901700255871778 -0.5877852410284794 0.5 0 0 1 I I -0.70710678118654746 0.70710678118654746 0.5 forward I I I I #
loop $-1 $-1 $97 $24 #
coedge $-1 $61 $61 $98 $99 reversed $38 $-1 #
face $-1 $100 $101 $15 $-1 $102 reversed single #
loop $-1 $-1 $103 $40 #
plane-surface $-1 0 -30.968831351364599 0 0 1 0 0 0 1 forward_v I I I I #
coedge $-1 $104 $105 $106 $107 forward $41 $-1 #
coedge $-1 $108 $43 $109 $110 forward $26 $-1 #
coedge $-1 $43 $108 $111 $112 forward $26 $-1 #
coedge $-1 $113 $114 $43 $69 reversed $115 $-1 #
edge $-1 $116 -30.968831351364599 $117 30.968831351364599 $68 $118 forward 7 unknown #
face $-1 $119 $120 $16 $-1 $121 reversed single #
loop $-1 $-1 $122 $44 #
plane-surface $-1 -59.260240000715669 0 0.85089018999208044 -1 0 0 0 0 1 forward_v I I I I #
coedge $-1 $123 $124 $125 $126 forward $45 $-1 #
coedge $-1 $127 $47 $128 $129 reversed $29 $-1 #
coedge $-1 $47 $127 $130 $131 reversed $29 $-1 #
coedge $-1 $122 $132 $47 $77 reversed $71 $-1 #
edge $-1 $133 -30.968831351364599 $134 30.968831351364599 $76 $135 forward 7 unknown #
face $-1 $136 $137 $17 $-1 $138 forward single #
loop $-1 $-1 $139 $48 #
plane-surface $-1 0 -30.968831351364599 0 0 1 0 0 0 1 forward_v I I I I #
coedge $-1 $140 $141 $142 $143 reversed $49 $-1 #
coedge $-1 $144 $51 $145 $146 reversed $32 $-1 #
coedge $-1 $51 $144 $140 $147 forward $32 $-1 #
coedge $-1 $142 $139 $51 $85 forward $79 $-1 #
edge $-1 $148 -36.38077988762609 $149 -9.3781403385530808 $84 $150 forward 7 unknown #
loop $-1 $-1 $91 $52 #
plane-surface $-1 -45.758920226179157 -30.968831351364599 2.0200651694948988 0 -0.80901700255871778 0.5877852410284794 1 0 0 forward_v I I I I #
loop $-1 $-1 $151 $34 #
coedge $-1 $89 $89 $90 $152 reversed $53 $-1 #
coedge $-1 $90 $90 $89 $152 forward $55 $-1 #
coedge $-1 $91 $91 $56 $92 forward $86 $-1 #
edge $-1 $153 1.4371028856862683e-015 $153 6.2831853071796022 $91 $154 forward 7 unknown #
loop $-1 $-1 $98 $57 #
plane-surface $-1 -45.758920226179157 -30.968831351364599 2.0200651694948988 0 -0.80901700255871778 0.5877852410284794 1 0 0 forward_v I I I I #
loop $-1 $-1 $155 $37 #
coedge $-1 $96 $96 $97 $156 reversed $58 $-1 #
coedge $-1 $97 $97 $96 $156 forward $60 $-1 #
coedge $-1 $98 $98 $61 $99 forward $93 $-1 #
edge $-1 $157 1.4371028856862683e-015 $157 6.2831853071796022 $98 $158 forward 7 unknown #
face $-1 $159 $160 $15 $-1 $161 reversed single #
loop $-1 $-1 $162 $62 #
plane-surface $-1 -66.034730063783684 0 0 1 0 0 0 0 -1 forward_v I I I I #
coedge $-1 $163 $111 $164 $165 forward $63 $-1 #
coedge $-1 $166 $65 $163 $167 forward $41 $-1 #
coedge $-1 $65 $166 $168 $169 forward $41 $-1 #
coedge $-1 $114 $113 $65 $107 reversed $115 $-1 #
edge $-1 $170 -30.968831351364599 $171 30.968831351364599 $106 $172 forward 7 unknown #
coedge $-1 $67 $66 $173 $174 forward $26 $-1 #
coedge $-1 $175 $176 $66 $110 reversed $160 $-1 #
edge $-1 $117 -66.034730063783684 $177 66.034730063783684 $109 $178 forward 7 unknown #
coedge $-1 $103 $179 $67 $112 reversed $63 $-1 #
edge $-1 $180 -66.034730063783684 $116 66.034730063783684 $111 $181 forward 7 unknown #
coedge $-1 $106 $68 $179 $182 forward $115 $-1 #
coedge $-1 $68 $106 $175 $183 reversed $115 $-1 #
loop $-1 $-1 $113 $159 #
vertex $-1 $69 $184 #
vertex $-1 $69 $185 #
straight-curve $-1 66.034730063783684 0 7.8932856811443397 0 1 0 I I #
face $-1 $186 $187 $16 $-1 $188 reversed single #
loop $-1 $-1 $189 $70 #
plane-surface $-1 0 -30.968831351364599 0 0 1 0 0 0 1 forward_v I I I I #
coedge $-1 $125 $76 $190 $191 reversed $71 $-1 #
coedge $-1 $192 $73 $189 $193 reversed $45 $-1 #
coedge $-1 $73 $192 $194 $195 reversed $45 $-1 #
coedge $-1 $132 $122 $73 $126 reversed $71 $-1 #
edge $-1 $196 -30.968831351364599 $197 30.968831351364599 $125 $198 forward 7 unknown #
coedge $-1 $75 $74 $199 $200 reversed $29 $-1 #
coedge $-1 $201 $202 $74 $129 forward $203 $-1 #
edge $-1 $204 -34.710987547658846 $134 -27.936497484590831 $128 $205 forward 7 unknown #
coedge $-1 $206 $190 $75 $131 forward $120 $-1 #
edge $-1 $133 27.936497484590831 $207 34.710987547658846 $130 $208 forward 7 unknown #
coedge $-1 $76 $125 $201 $209 reversed $71 $-1 #
vertex $-1 $131 $210 #
vertex $-1 $129 $211 #
straight-curve $-1 -59.260240000715669 0 2.3508901899920809 0 1 0 I I #
face $-1 $-1 $212 $17 $-1 $213 forward single #
loop $-1 $-1 $145 $78 #
plane-surface $-1 -59.260240000715669 0 0.85089018999208044 -1 0 0 0 0 1 forward_v I I I I #
coedge $-1 $84 $214 $215 $216 forward $79 $-1 #
coedge $-1 $141 $81 $83 $147 reversed $49 $-1 #
coedge $-1 $81 $140 $217 $218 reversed $49 $-1 #
coedge $-1 $214 $84 $81 $143 forward $79 $-1 #
edge $-1 $149 -37.80420714204422 $219 -31.930986630394777 $142 $220 forward 7 unknown #
coedge $-1 $83 $82 $221 $222 reversed $32 $-1 #
coedge $-1 $215 $223 $82 $146 forward $137 $-1 #
edge $-1 $224 1.3688700556161897 $148 8.6285697814240745 $145 $225 forward 7 unknown #
edge $-1 $226 -7.2596997258078844 $149 0 $140 $227 forward 7 unknown #
vertex $-1 $146 $228 #
vertex $-1 $85 $229 #
straight-curve $-1 -22.879460113089578 -30.968831351364599 2.020065169494897 1 0 0 I I #
coedge $-1 $151 $151 $-1 $230 reversed $88 $-1 #
edge $-1 $231 0 $231 6.2831853071796004 $89 $232 forward 7 unknown #
vertex $-1 $92 $233 #
ellipse-curve $-1 -51.545200129551944 -28.835259174800413 4.9566754253196201 0 -0.80901700255871778 0.5877852410284794 1 0 0 1 I I #
coedge $-1 $155 $155 $-1 $234 reversed $95 $-1 #
edge $-1 $235 0 $235 6.2831853071796004 $96 $236 forward 7 unknown #
vertex $-1 $99 $237 #
ellipse-curve $-1 -39.97264032280637 -28.835259174800413 4.9566754253196201 0 -0.80901700255871778 0.5877852410284794 1 0 0 1 I I #
face $-1 $-1 $115 $15 $-1 $238 reversed single #
loop $-1 $-1 $175 $100 #
plane-surface $-1 0 30.968831351364599 0 0 -1 0 0 0 -1 forward_v I I I I #
coedge $-1 $239 $173 $176 $240 forward $101 $-1 #
coedge $-1 $179 $103 $104 $167 reversed $63 $-1 #
coedge $-1 $173 $239 $103 $165 reversed $101 $-1 #
edge $-1 $180 -7.8932856811443397 $241 7.8932856811443397 $164 $242 forward 7 unknown #
coedge $-1 $105 $104 $239 $243 forward $41 $-1 #
edge $-1 $171 -66.034730063783684 $241 66.034730063783684 $163 $244 forward 7 unknown #
coedge $-1 $176 $175 $105 $169 reversed $160 $-1 #
edge $-1 $245 -66.034730063783684 $170 66.034730063783684 $168 $246 forward 7 unknown #
vertex $-1 $107 $247 #
vertex $-1 $182 $248 #
straight-curve $-1 66.034730063783684 0 -7.8932856811443397 0 -1 0 I I #
coedge $-1 $162 $164 $108 $174 reversed $101 $-1 #
edge $-1 $177 -30.968831351364599 $180 30.968831351364599 $173 $249 forward 7 unknown #
coedge $-1 $168 $109 $114 $183 forward $160 $-1 #
coedge $-1 $109 $168 $162 $240 reversed $160 $-1 #
vertex $-1 $110 $250 #
straight-curve $-1 0 30.968831351364599 7.8932856811443397 -1 0 0 I I #
coedge $-1 $111 $163 $113 $182 reversed $63 $-1 #
vertex $-1 $174 $251 #
straight-curve $-1 0 -30.968831351364599 7.8932856811443397 1 0 0 I I #
edge $-1 $116 -7.8932856811443397 $171 7.8932856811443397 $113 $252 forward 7 unknown #
edge $-1 $117 -7.8932856811443397 $170 7.8932856811443397 $114 $253 forward 7 unknown #
point $-1 66.034730063783684 -30.968831351364599 7.8932856811443397 #
point $-1 66.034730063783684 30.968831351364599 7.8932856811443397 #
face $-1 $-1 $203 $16 $-1 $254 reversed single #
loop $-1 $-1 $255 $119 #
plane-surface $-1 -66.034730063783684 0 0 1 0 0 0 0 -1 forward_v I I I I #
coedge $-1 $190 $206 $123 $193 forward $120 $-1 #
coedge $-1 $130 $189 $122 $191 forward $120 $-1 #
edge $-1 $197 -1.0745549050039602 $133 1.9254450949960407 $190 $256 forward 7 unknown #
coedge $-1 $124 $123 $255 $257 reversed $45 $-1 #
edge $-1 $258 -34.710987547658846 $197 -27.936497484590831 $189 $259 forward 7 unknown #
coedge $-1 $202 $201 $124 $195 forward $203 $-1 #
edge $-1 $196 27.936497484590831 $260 34.710987547658846 $194 $261 forward 7 unknown #
vertex $-1 $195 $262 #
vertex $-1 $193 $263 #
straight-curve $-1 -59.260240000715669 0 -0.64910981000792001 0 -1 0 I I #
coedge $-1 $264 $265 $127 $200 forward $187 $-1 #
edge $-1 $207 -30.968831351364599 $204 30.968831351364599 $199 $266 forward 7 unknown #
coedge $-1 $194 $128 $132 $209 forward $203 $-1 #
coedge $-1 $128 $194 $264 $267 reversed $203 $-1 #
loop $-1 $-1 $194 $186 #
vertex $-1 $267 $268 #
straight-curve $-1 -31.323742516124838 30.968831351364599 2.3508901899920809 1 0 0 I I #
coedge $-1 $189 $130 $265 $269 forward $120 $-1 #
vertex $-1 $269 $270 #
straight-curve $-1 -31.323742516124838 -30.968831351364599 2.3508901899920809 -1 0 0 I I #
edge $-1 $134 -1.9254450949960407 $196 1.0745549050039602 $201 $271 forward 7 unknown #
point $-1 -59.260240000715669 -30.968831351364599 2.3508901899920809 #
point $-1 -59.260240000715669 30.968831351364599 2.3508901899920809 #
loop $-1 $-1 $272 $136 #
plane-surface $-1 0 0 7.8932856811443397 0 0 1 1 0 0 forward_v I I I I #
coedge $-1 $139 $142 $273 $274 reversed $79 $-1 #
coedge $-1 $223 $145 $139 $216 reversed $137 $-1 #
edge $-1 $275 31.930986630394777 $148 37.80420714204422 $139 $276 forward 7 unknown #
coedge $-1 $221 $273 $141 $218 forward $212 $-1 #
edge $-1 $219 37.938803705294021 $226 42.205948058422393 $217 $277 forward 7 unknown #
vertex $-1 $143 $278 #
straight-curve $-1 -32.257600451642659 -30.968831351364599 39.824272311539119 0 0 1 I I #
coedge $-1 $272 $217 $144 $222 forward $212 $-1 #
edge $-1 $226 9.3781403385530808 $224 36.380779887626076 $221 $279 forward 7 unknown #
coedge $-1 $145 $215 $272 $280 reversed $137 $-1 #
vertex $-1 $280 $281 #
straight-curve $-1 -59.260240000715669 -25.897085382659196 9.0007248304313343 0 -0.5877852410284794 -0.80901700255871778 I I #
vertex $-1 $222 $282 #
straight-curve $-1 -32.257600451642659 -30.968831351364599 2.0200651694948988 0 -0.5877852410284794 -0.80901700255871778 I I #
point $-1 -59.260240000715669 -30.968831351364599 2.0200651694948988 #
point $-1 -32.257600451642659 -30.968831351364599 2.0200651694948988 #
edge $-1 $283 1 $283 0 $151 $-1 forward 7 unknown #
vertex $-1 $152 $284 #
ellipse-curve $-1 -51.545200129551944 -26.708315032754353 3.4113600966767992 0 -0.80901700255871778 0.5877852410284794 1 0 0 1 I I #
point $-1 -50.545200129551944 -28.835259174800413 4.9566754253196219 #
edge $-1 $285 1 $285 0 $155 $-1 forward 7 unknown #
vertex $-1 $156 $286 #
ellipse-curve $-1 -39.97264032280637 -26.708315032754353 3.4113600966767992 0 -0.80901700255871778 0.5877852410284794 1 0 0 1 I I #
point $-1 -38.97264032280637 -28.835259174800413 4.9566754253196219 #
plane-surface $-1 66.034730063783684 0 0 -1 0 0 0 0 1 forward_v I I I I #
coedge $-1 $164 $162 $166 $243 reversed $101 $-1 #
edge $-1 $177 -7.8932856811443397 $245 7.8932856811443397 $176 $287 forward 7 unknown #
vertex $-1 $243 $288 #
straight-curve $-1 -66.034730063783684 -30.968831351364599 0 0 0 -1 I I #
edge $-1 $241 -30.968831351364599 $245 30.968831351364599 $239 $289 forward 7 unknown #
straight-curve $-1 0 -30.968831351364599 -7.8932856811443397 -1 0 0 I I #
vertex $-1 $169 $290 #
straight-curve $-1 0 30.968831351364599 -7.8932856811443397 1 0 0 I I #
point $-1 66.034730063783684 30.968831351364599 -7.8932856811443397 #
point $-1 66.034730063783684 -30.968831351364599 -7.8932856811443397 #
straight-curve $-1 -66.034730063783684 0 7.8932856811443397 0 -1 0 I I #
point $-1 -66.034730063783684 30.968831351364599 7.8932856811443397 #
point $-1 -66.034730063783684 -30.968831351364599 7.8932856811443397 #
straight-curve $-1 66.034730063783684 -30.968831351364599 0 0 0 -1 I I #
straight-curve $-1 66.034730063783684 30.968831351364599 0 0 0 -1 I I #
plane-surface $-1 0 30.968831351364599 0 0 -1 0 0 0 -1 forward_v I I I I #
coedge $-1 $265 $264 $192 $257 forward $187 $-1 #
straight-curve $-1 -59.260240000715669 -30.968831351364599 0.42544509499604022 0 0 1 I I #
edge $-1 $260 -30.968831351364599 $258 30.968831351364599 $255 $291 forward 7 unknown #
vertex $-1 $193 $292 #
straight-curve $-1 -31.323742516124838 -30.968831351364599 -0.64910981000792001 1 0 0 I I #
vertex $-1 $195 $293 #
straight-curve $-1 -31.323742516124838 30.968831351364599 -0.64910981000792001 -1 0 0 I I #
point $-1 -59.260240000715669 30.968831351364599 -0.64910981000792001 #
point $-1 -59.260240000715669 -30.968831351364599 -0.64910981000792001 #
coedge $-1 $255 $199 $202 $267 forward $187 $-1 #
coedge $-1 $199 $255 $206 $269 reversed $187 $-1 #
straight-curve $-1 -66.034730063783684 0 2.3508901899920809 0 1 0 I I #
edge $-1 $204 -2.3508901899920809 $260 0.64910981000792001 $202 $294 forward 7 unknown #
point $-1 -66.034730063783684 30.968831351364599 2.3508901899920809 #
edge $-1 $207 -2.3508901899920809 $258 0.64910981000792001 $265 $295 forward 7 unknown #
point $-1 -66.034730063783684 -30.968831351364599 2.3508901899920809 #
straight-curve $-1 -59.260240000715669 30.968831351364599 0.42544509499604022 0 0 -1 I I #
coedge $-1 $273 $221 $223 $280 forward $212 $-1 #
coedge $-1 $217 $272 $214 $274 forward $212 $-1 #
edge $-1 $275 -59.260240000715655 $219 -32.257600451642659 $214 $296 forward 7 unknown #
vertex $-1 $274 $297 #
straight-curve $-1 -59.260240000715655 -30.968831351364599 39.824272311539119 0 0 -1 I I #
straight-curve $-1 -32.257600451642659 -68.90763505665862 7.8932856811443415 0 1 0 I I #
point $-1 -32.257600451642659 -30.968831351364599 7.8932856811443397 #
straight-curve $-1 -22.879460113089578 -26.701686998236223 7.8932856811443397 -1 0 0 I I #
edge $-1 $224 -42.205948058422393 $275 -37.938803705294021 $272 $298 forward 7 unknown #
point $-1 -59.260240000715655 -26.701686998236227 7.8932856811443397 #
point $-1 -32.257600451642659 -26.701686998236227 7.8932856811443397 #
vertex $-1 $230 $299 #
point $-1 -50.545200129551944 -26.708315032754353 3.4113600966767992 #
vertex $-1 $234 $300 #
point $-1 -38.97264032280637 -26.708315032754353 3.4113600966767992 #
straight-curve $-1 -66.034730063783684 30.968831351364599 0 0 0 -1 I I #
point $-1 -66.034730063783684 -30.968831351364599 -7.8932856811443397 #
straight-curve $-1 -66.034730063783684 0 -7.8932856811443397 0 1 0 I I #
point $-1 -66.034730063783684 30.968831351364599 -7.8932856811443397 #
straight-curve $-1 -66.034730063783684 0 -0.64910981000792001 0 -1 0 I I #
point $-1 -66.034730063783684 -30.968831351364599 -0.64910981000792001 #
point $-1 -66.034730063783684 30.968831351364599 -0.64910981000792001 #
straight-curve $-1 -66.034730063783684 30.968831351364599 0 0 0 -1 I I #
straight-curve $-1 -66.034730063783684 -30.968831351364599 0 0 0 -1 I I #
straight-curve $-1 0 -30.968831351364599 7.8932856811443397 1 0 0 I I #
point $-1 -59.260240000715655 -30.968831351364599 7.8932856811443397 #
straight-curve $-1 -59.260240000715655 -68.90763505665862 7.8932856811443415 0 -1 0 I I #
point $-1 -51.545200129551944 -25.899298030195634 2.82357485564832 #
point $-1 -39.97264032280637 -25.899298030195634 2.82357485564832 #
End-of-ACIS-data 