500 0 4 0           
7 Unknown 11 ACIS 5.0 NT 24 Fri Mar 26 15:42:53 1999 
-1 9.9999999999999995e-007 1e-010 
body $-1 $4 $-1 $5 #
body $-1 $6 $-1 $7 #
body $-1 $8 $-1 $9 #
body $-1 $10 $-1 $11 #
lump $-1 $-1 $12 $0 #
transform $-1 1 0 0 0 1 0 0 0 1 66.283761101107814 36.401754234883725 16.298191962313673 1 rotate no_reflect no_shear #
lump $-1 $-1 $13 $1 #
transform $-1 1 0 0 0 1 0 0 0 1 66.283761101107814 36.401754234883725 16.298191962313673 1 rotate no_reflect no_shear #
lump $-1 $-1 $14 $2 #
transform $-1 1 0 0 0 1 0 0 0 1 66.283761101107814 36.401754234883725 16.298191962313673 1 rotate no_reflect no_shear #
lump $-1 $-1 $15 $3 #
transform $-1 1 0 0 0 1 0 0 0 1 66.283761101107814 36.401754234883725 16.298191962313673 1 rotate no_reflect no_shear #
shell $-1 $-1 $-1 $16 $-1 $4 #
shell $-1 $-1 $-1 $17 $-1 $6 #
shell $-1 $-1 $-1 $18 $-1 $8 #
shell $-1 $-1 $-1 $19 $-1 $10 #
face $-1 $20 $21 $12 $-1 $22 forward single #
face $-1 $23 $24 $13 $-1 $25 reversed single #
face $-1 $26 $27 $14 $-1 $28 forward single #
face $-1 $29 $30 $15 $-1 $31 reversed single #
face $-1 $32 $33 $12 $-1 $34 reversed single #
loop $-1 $-1 $35 $16 #
plane-surface $-1 0 0 16.298191962313673 0 0 1 1 0 0 forward_v I I I I #
face $-1 $36 $37 $13 $-1 $38 reversed single #
loop $-1 $-1 $39 $17 #
plane-surface $-1 -78.885182708186449 -34.692848991043242 0 1 0 0 0 0 -1 forward_v I I I I #
face $-1 $40 $41 $14 $-1 $42 forward single #
loop $-1 $-1 $43 $18 #
plane-surface $-1 51.003981977942004 -36.401754234883711 0.39163656250595125 0 -0.57357644374324357 0.81915203911291934 1 0 0 forward_v I I I I #
face $-1 $44 $45 $15 $-1 $46 reversed single #
loop $-1 $47 $48 $19 #
cone-surface $-1 51.003981977942004 -24.157567785647814 7.07996221910118 0 0.57357644374324357 -0.81915203911291934 3 0 0 1 I I 0 1 3 forward I I I I #
face $-1 $49 $50 $12 $-1 $51 reversed single #
loop $-1 $-1 $52 $20 #
plane-surface $-1 0 0 -16.298191962313673 0 0 1 1 0 0 forward_v I I I I #
coedge $-1 $53 $54 $55 $56 forward $21 $-1 #
face $-1 $57 $58 $13 $-1 $59 forward single #
loop $-1 $-1 $60 $23 #
plane-surface $-1 -72.584471904647131 -32.983943747202758 0 0 -1 0 0 0 -1 forward_v I I I I #
coedge $-1 $61 $62 $63 $64 forward $24 $-1 #
face $-1 $65 $66 $14 $-1 $67 forward single #
loop $-1 $-1 $68 $26 #
plane-surface $-1 35.724202854776188 -112.43936217548404 108.98459269459809 1 0 0 0 0.57357644374324357 -0.81915203911291934 forward_v I I I I #
coedge $-1 $69 $70 $71 $72 reversed $27 $-1 #
face $-1 $73 $74 $15 $-1 $75 forward single #
loop $-1 $76 $77 $29 #
cone-surface $-1 51.003981977942004 -22.411474146822513 4.5862821171231616 0 0.57357644374324357 -0.81915203911291934 1.5 0 0 1 I I -0.70710678118654757 0.70710678118654757 1.5 forward I I I I #
loop $-1 $-1 $78 $19 #
coedge $-1 $48 $48 $79 $80 reversed $30 $-1 #
face $-1 $81 $82 $12 $-1 $83 reversed single #
loop $-1 $-1 $84 $32 #
plane-surface $-1 0 -36.401754234883725 0 0 1 0 0 0 1 forward_v I I I I #
coedge $-1 $85 $86 $87 $88 forward $33 $-1 #
coedge $-1 $89 $35 $90 $91 forward $21 $-1 #
coedge $-1 $35 $89 $92 $93 forward $21 $-1 #
coedge $-1 $94 $95 $35 $56 reversed $96 $-1 #
edge $-1 $97 -36.401754234883725 $98 36.401754234883725 $55 $99 forward 7 unknown #
face $-1 $100 $101 $13 $-1 $102 reversed single #
loop $-1 $-1 $103 $36 #
plane-surface $-1 0 0 16.298191962313673 0 0 1 1 0 0 forward_v I I I I #
coedge $-1 $104 $105 $106 $107 reversed $37 $-1 #
coedge $-1 $108 $39 $109 $110 reversed $24 $-1 #
coedge $-1 $39 $108 $111 $112 reversed $24 $-1 #
coedge $-1 $105 $104 $39 $64 reversed $37 $-1 #
edge $-1 $113 -16.298191962313673 $114 16.298191962313673 $63 $115 forward 7 unknown #
face $-1 $116 $117 $14 $-1 $118 reversed single #
loop $-1 $-1 $119 $40 #
plane-surface $-1 0 0 16.298191962313673 0 0 1 1 0 0 forward_v I I I I #
coedge $-1 $120 $121 $119 $122 reversed $41 $-1 #
coedge $-1 $123 $43 $121 $124 reversed $27 $-1 #
coedge $-1 $43 $123 $125 $126 reversed $27 $-1 #
coedge $-1 $127 $119 $43 $72 forward $66 $-1 #
edge $-1 $128 10.222211865805185 $129 40.781770112136812 $71 $130 forward 7 unknown #
face $-1 $131 $132 $15 $-1 $133 forward single #
loop $-1 $134 $79 $44 #
plane-surface $-1 51.003981977942004 -36.401754234883711 0.39163656250595125 0 -0.57357644374324357 0.81915203911291934 1 0 0 forward_v I I I I #
loop $-1 $-1 $135 $29 #
coedge $-1 $77 $77 $78 $136 forward $45 $-1 #
coedge $-1 $78 $78 $77 $136 reversed $47 $-1 #
coedge $-1 $79 $79 $48 $80 forward $74 $-1 #
edge $-1 $137 -1.1164875467040235e-015 $137 6.2831853071795996 $79 $138 forward 7 unknown #
face $-1 $139 $140 $12 $-1 $141 reversed single #
loop $-1 $-1 $142 $49 #
plane-surface $-1 -66.283761101107814 0 0 1 0 0 0 0 -1 forward_v I I I I #
coedge $-1 $143 $92 $144 $145 forward $50 $-1 #
coedge $-1 $146 $52 $143 $147 forward $33 $-1 #
coedge $-1 $52 $146 $148 $149 forward $33 $-1 #
coedge $-1 $95 $94 $52 $88 reversed $96 $-1 #
edge $-1 $150 -36.401754234883725 $151 36.401754234883725 $87 $152 forward 7 unknown #
coedge $-1 $54 $53 $153 $154 forward $21 $-1 #
coedge $-1 $155 $156 $53 $91 reversed $140 $-1 #
edge $-1 $98 -66.283761101107814 $157 66.283761101107814 $90 $158 forward 7 unknown #
coedge $-1 $84 $159 $54 $93 reversed $50 $-1 #
edge $-1 $160 -66.283761101107814 $97 66.283761101107814 $92 $161 forward 7 unknown #
coedge $-1 $87 $55 $159 $162 forward $96 $-1 #
coedge $-1 $55 $87 $155 $163 reversed $96 $-1 #
loop $-1 $-1 $94 $139 #
vertex $-1 $56 $164 #
vertex $-1 $56 $165 #
straight-curve $-1 66.283761101107814 0 16.298191962313673 0 1 0 I I #
face $-1 $166 $167 $13 $-1 $168 reversed single #
loop $-1 $-1 $169 $57 #
plane-surface $-1 0 0 -16.298191962313673 0 0 1 1 0 0 forward_v I I I I #
coedge $-1 $170 $171 $172 $173 forward $58 $-1 #
coedge $-1 $63 $60 $174 $175 reversed $37 $-1 #
coedge $-1 $60 $63 $176 $177 reversed $37 $-1 #
coedge $-1 $178 $179 $60 $107 forward $180 $-1 #
edge $-1 $181 -16.298191962313673 $182 16.298191962313673 $106 $183 forward 7 unknown #
coedge $-1 $62 $61 $184 $185 reversed $24 $-1 #
coedge $-1 $174 $186 $61 $110 forward $101 $-1 #
edge $-1 $187 -1.7089052438404835 $114 1.7089052438404835 $61 $188 forward 7 unknown #
coedge $-1 $171 $176 $62 $112 forward $58 $-1 #
edge $-1 $113 -1.7089052438404835 $189 1.7089052438404835 $62 $190 forward 7 unknown #
vertex $-1 $177 $191 #
vertex $-1 $175 $192 #
straight-curve $-1 -78.885182708186449 -32.983943747202758 0 0 0 -1 I I #
face $-1 $193 $194 $14 $-1 $195 reversed single #
loop $-1 $-1 $125 $65 #
plane-surface $-1 66.283761101107814 0 0 -1 0 0 0 0 1 forward_v I I I I #
coedge $-1 $71 $196 $68 $122 forward $66 $-1 #
coedge $-1 $121 $68 $197 $198 reversed $41 $-1 #
coedge $-1 $68 $120 $69 $124 forward $41 $-1 #
edge $-1 $199 19.817926852858292 $128 42.534841804909277 $119 $200 forward 7 unknown #
coedge $-1 $70 $69 $201 $202 reversed $27 $-1 #
edge $-1 $203 -1.7340190696821129e-014 $128 27.732232683753921 $121 $204 forward 7 unknown #
coedge $-1 $205 $206 $70 $126 forward $117 $-1 #
edge $-1 $129 -12.935263832738748 $207 14.79696885101519 $125 $208 forward 7 unknown #
coedge $-1 $209 $71 $206 $210 forward $66 $-1 #
vertex $-1 $72 $211 #
vertex $-1 $210 $212 #
straight-curve $-1 25.501990988971002 -13.684839282832737 16.298191962313673 1 0 0 I I #
face $-1 $213 $214 $15 $-1 $215 forward single #
loop $-1 $-1 $216 $73 #
plane-surface $-1 35.724202854776188 -112.43936217548404 108.98459269459809 1 0 0 0 0.57357644374324357 -0.81915203911291934 forward_v I I I I #
loop $-1 $-1 $217 $44 #
coedge $-1 $135 $135 $-1 $218 forward $76 $-1 #
edge $-1 $219 0 $219 6.2831853071796004 $77 $220 forward 7 unknown #
vertex $-1 $80 $221 #
ellipse-curve $-1 51.003981977942004 -25.043296758858236 8.3449142624098034 0 0.57357644374324357 -0.81915203911291934 3 0 0 1 I I #
face $-1 $-1 $96 $12 $-1 $222 reversed single #
loop $-1 $-1 $155 $81 #
plane-surface $-1 0 36.401754234883725 0 0 -1 0 0 0 -1 forward_v I I I I #
coedge $-1 $223 $153 $156 $224 forward $82 $-1 #
coedge $-1 $159 $84 $85 $147 reversed $50 $-1 #
coedge $-1 $153 $223 $84 $145 reversed $82 $-1 #
edge $-1 $160 -16.298191962313673 $225 16.298191962313673 $144 $226 forward 7 unknown #
coedge $-1 $86 $85 $223 $227 forward $33 $-1 #
edge $-1 $151 -66.283761101107814 $225 66.283761101107814 $143 $228 forward 7 unknown #
coedge $-1 $156 $155 $86 $149 reversed $140 $-1 #
edge $-1 $229 -66.283761101107814 $150 66.283761101107814 $148 $230 forward 7 unknown #
vertex $-1 $88 $231 #
vertex $-1 $162 $232 #
straight-curve $-1 66.283761101107814 0 -16.298191962313673 0 -1 0 I I #
coedge $-1 $142 $144 $89 $154 reversed $82 $-1 #
edge $-1 $157 -36.401754234883725 $160 36.401754234883725 $153 $233 forward 7 unknown #
coedge $-1 $148 $90 $95 $163 forward $140 $-1 #
coedge $-1 $90 $148 $142 $224 reversed $140 $-1 #
vertex $-1 $91 $234 #
straight-curve $-1 0 36.401754234883725 16.298191962313673 -1 0 0 I I #
coedge $-1 $92 $143 $94 $162 reversed $50 $-1 #
vertex $-1 $154 $235 #
straight-curve $-1 0 -36.401754234883725 16.298191962313673 1 0 0 I I #
edge $-1 $97 -16.298191962313673 $151 16.298191962313673 $94 $236 forward 7 unknown #
edge $-1 $98 -16.298191962313673 $150 16.298191962313673 $95 $237 forward 7 unknown #
point $-1 66.283761101107814 -36.401754234883725 16.298191962313673 #
point $-1 66.283761101107814 36.401754234883725 16.298191962313673 #
face $-1 $238 $180 $13 $-1 $239 reversed single #
loop $-1 $-1 $240 $100 #
plane-surface $-1 0 -36.401754234883725 0 0 1 0 0 0 1 forward_v I I I I #
coedge $-1 $186 $241 $242 $243 forward $101 $-1 #
coedge $-1 $244 $103 $245 $246 forward $58 $-1 #
coedge $-1 $103 $111 $247 $248 forward $58 $-1 #
coedge $-1 $249 $250 $103 $173 reversed $251 $-1 #
edge $-1 $252 -36.401754234883725 $253 36.401754234883725 $172 $254 forward 7 unknown #
coedge $-1 $255 $109 $104 $175 forward $101 $-1 #
edge $-1 $114 -6.3007108035393173 $181 6.3007108035393173 $104 $256 forward 7 unknown #
coedge $-1 $111 $244 $105 $177 forward $58 $-1 #
edge $-1 $182 -6.3007108035393173 $113 6.3007108035393173 $105 $257 forward 7 unknown #
coedge $-1 $258 $106 $244 $259 reversed $180 $-1 #
coedge $-1 $106 $258 $255 $260 reversed $180 $-1 #
loop $-1 $-1 $106 $166 #
vertex $-1 $260 $261 #
vertex $-1 $177 $262 #
straight-curve $-1 -66.283761101107814 -32.983943747202758 0 0 0 1 I I #
coedge $-1 $240 $247 $108 $185 forward $167 $-1 #
edge $-1 $189 -16.298191962313673 $187 16.298191962313673 $108 $263 forward 7 unknown #
coedge $-1 $109 $169 $240 $264 forward $101 $-1 #
vertex $-1 $110 $265 #
straight-curve $-1 -78.885182708186449 -34.692848991043242 -16.298191962313673 0 1 0 I I #
vertex $-1 $112 $266 #
straight-curve $-1 -78.885182708186449 -34.692848991043242 16.298191962313673 0 -1 0 I I #
point $-1 -78.885182708186449 -32.983943747202758 16.298191962313673 #
point $-1 -78.885182708186449 -32.983943747202758 -16.298191962313673 #
face $-1 $267 $268 $14 $-1 $269 reversed single #
loop $-1 $-1 $270 $116 #
plane-surface $-1 -78.885182708186449 -34.692848991043242 0 1 0 0 0 0 -1 forward_v I I I I #
coedge $-1 $119 $271 $272 $273 forward $66 $-1 #
coedge $-1 $272 $201 $120 $198 forward $274 $-1 #
edge $-1 $203 -54.100659784793102 $199 -38.194104384985373 $197 $275 forward 7 unknown #
vertex $-1 $198 $276 #
straight-curve $-1 35.724202854776188 -56.219681087742018 16.298191962313673 0 1 0 I I #
coedge $-1 $197 $277 $123 $202 forward $274 $-1 #
edge $-1 $207 -40.781770112136812 $203 -10.222211865805185 $201 $278 forward 7 unknown #
vertex $-1 $202 $279 #
straight-curve $-1 35.724202854776188 -36.401754234883711 0.39163656250595125 0 0.81915203911291934 0.57357644374324357 I I #
coedge $-1 $280 $125 $277 $281 forward $117 $-1 #
coedge $-1 $125 $282 $127 $210 reversed $117 $-1 #
vertex $-1 $281 $283 #
straight-curve $-1 66.283761101107814 -24.28078702788428 8.8788293342507831 0 -0.81915203911291934 -0.57357644374324357 I I #
coedge $-1 $284 $127 $285 $286 forward $66 $-1 #
edge $-1 $129 -13.684839282832741 $287 36.401754234883725 $206 $288 forward 7 unknown #
point $-1 35.724202854776188 -13.684839282832741 16.298191962313673 #
point $-1 66.283761101107814 -13.684839282832741 16.298191962313673 #
face $-1 $289 $290 $15 $-1 $291 reversed single #
loop $-1 $-1 $292 $131 #
plane-surface $-1 0 0 16.298191962313673 0 0 1 1 0 0 forward_v I I I I #
coedge $-1 $293 $294 $292 $295 reversed $132 $-1 #
coedge $-1 $296 $297 $298 $299 reversed $134 $-1 #
edge $-1 $300 1 $300 0 $135 $-1 forward 7 unknown #
vertex $-1 $136 $301 #
ellipse-curve $-1 51.003981977942004 -23.27183881243738 5.8150101757925405 0 -0.57357644374324357 0.81915203911291934 3 0 0 1 I I #
point $-1 54.003981977942004 -25.043296758858244 8.3449142624098194 #
plane-surface $-1 66.283761101107814 0 0 -1 0 0 0 0 1 forward_v I I I I #
coedge $-1 $144 $142 $146 $227 reversed $82 $-1 #
edge $-1 $157 -16.298191962313673 $229 16.298191962313673 $156 $302 forward 7 unknown #
vertex $-1 $227 $303 #
straight-curve $-1 -66.283761101107814 -36.401754234883725 0 0 0 -1 I I #
edge $-1 $225 -36.401754234883725 $229 36.401754234883725 $223 $304 forward 7 unknown #
straight-curve $-1 0 -36.401754234883725 -16.298191962313673 -1 0 0 I I #
vertex $-1 $149 $305 #
straight-curve $-1 0 36.401754234883725 -16.298191962313673 1 0 0 I I #
point $-1 66.283761101107814 36.401754234883725 -16.298191962313673 #
point $-1 66.283761101107814 -36.401754234883725 -16.298191962313673 #
straight-curve $-1 -66.283761101107814 0 16.298191962313673 0 -1 0 I I #
point $-1 -66.283761101107814 36.401754234883725 16.298191962313673 #
point $-1 -66.283761101107814 -36.401754234883725 16.298191962313673 #
straight-curve $-1 66.283761101107814 -36.401754234883725 0 0 0 -1 I I #
straight-curve $-1 66.283761101107814 36.401754234883725 0 0 0 -1 I I #
face $-1 $306 $307 $13 $-1 $308 reversed single #
plane-surface $-1 -66.283761101107814 0 0 1 0 0 0 0 -1 forward_v I I I I #
coedge $-1 $309 $184 $186 $264 reversed $167 $-1 #
coedge $-1 $169 $255 $310 $311 forward $101 $-1 #
coedge $-1 $250 $249 $169 $243 reversed $251 $-1 #
edge $-1 $312 -36.401754234883725 $313 36.401754234883725 $242 $314 forward 7 unknown #
coedge $-1 $176 $170 $178 $259 forward $58 $-1 #
coedge $-1 $315 $316 $170 $246 reversed $307 $-1 #
edge $-1 $253 -66.283761101107814 $317 66.283761101107814 $245 $318 forward 7 unknown #
coedge $-1 $184 $309 $171 $248 reversed $167 $-1 #
edge $-1 $189 -78.885182708186449 $252 66.283761101107814 $247 $319 forward 7 unknown #
coedge $-1 $242 $172 $309 $320 forward $251 $-1 #
coedge $-1 $172 $242 $315 $321 reversed $251 $-1 #
loop $-1 $-1 $249 $306 #
vertex $-1 $173 $322 #
vertex $-1 $173 $323 #
straight-curve $-1 66.283761101107814 0 16.298191962313673 0 1 0 I I #
coedge $-1 $241 $174 $179 $260 forward $101 $-1 #
straight-curve $-1 -72.584471904647131 -32.983943747202758 -16.298191962313673 1 0 0 I I #
straight-curve $-1 -72.584471904647131 -32.983943747202758 16.298191962313673 -1 0 0 I I #
coedge $-1 $179 $178 $316 $324 forward $180 $-1 #
edge $-1 $317 -36.401754234883725 $182 32.983943747202758 $178 $325 forward 7 unknown #
edge $-1 $181 -32.983943747202758 $326 36.401754234883725 $179 $327 forward 7 unknown #
point $-1 -66.283761101107814 -32.983943747202758 -16.298191962313673 #
point $-1 -66.283761101107814 -32.983943747202758 16.298191962313673 #
straight-curve $-1 -78.885182708186449 -36.401754234883725 0 0 0 -1 I I #
edge $-1 $313 -138.86823300575494 $187 6.3007108035393173 $240 $328 forward 7 unknown #
point $-1 -78.885182708186449 -36.401754234883725 -16.298191962313673 #
point $-1 -78.885182708186449 -36.401754234883725 16.298191962313673 #
face $-1 $329 $330 $14 $-1 $331 reversed single #
loop $-1 $-1 $332 $193 #
plane-surface $-1 -72.584471904647131 -32.983943747202758 0 0 -1 0 0 0 -1 forward_v I I I I #
coedge $-1 $333 $334 $335 $336 forward $194 $-1 #
coedge $-1 $196 $337 $334 $338 forward $66 $-1 #
coedge $-1 $339 $197 $196 $273 reversed $274 $-1 #
edge $-1 $340 -78.885182708186449 $199 35.724202854776188 $272 $341 forward 7 unknown #
loop $-1 $-1 $197 $329 #
straight-curve $-1 35.724202854776188 -36.401754234883725 54.492296347299046 0 0 1 I I #
point $-1 35.724202854776188 -36.401754234883725 16.298191962313673 #
coedge $-1 $201 $342 $205 $281 reversed $274 $-1 #
straight-curve $-1 25.501990988971002 -36.401754234883725 0.39163656250594159 -1 0 0 I I #
point $-1 35.724202854776188 -36.401754234883725 0.39163656250594131 #
coedge $-1 $282 $205 $343 $344 reversed $117 $-1 #
edge $-1 $207 -0.39163656250594131 $345 16.298191962313673 $205 $346 forward 7 unknown #
coedge $-1 $206 $280 $347 $348 reversed $117 $-1 #
point $-1 66.283761101107814 -36.401754234883725 0.39163656250594131 #
coedge $-1 $337 $209 $349 $350 forward $66 $-1 #
coedge $-1 $347 $351 $209 $286 reversed $352 $-1 #
edge $-1 $287 -66.283761101107814 $353 66.283761101107814 $285 $354 forward 7 unknown #
vertex $-1 $210 $355 #
straight-curve $-1 66.283761101107814 0 16.298191962313673 0 1 0 I I #
face $-1 $356 $357 $15 $-1 $358 reversed single #
loop $-1 $-1 $359 $213 #
plane-surface $-1 66.283761101107814 0 0 -1 0 0 0 0 1 forward_v I I I I #
coedge $-1 $298 $360 $216 $295 forward $214 $-1 #
coedge $-1 $294 $216 $361 $362 reversed $132 $-1 #
coedge $-1 $216 $293 $296 $363 forward $132 $-1 #
edge $-1 $364 19.817926852858292 $365 42.534841804909277 $292 $366 forward 7 unknown #
coedge $-1 $367 $217 $294 $363 reversed $134 $-1 #
coedge $-1 $217 $367 $359 $368 reversed $134 $-1 #
coedge $-1 $369 $292 $217 $299 forward $214 $-1 #
edge $-1 $365 10.222211865805185 $370 40.781770112136812 $298 $371 forward 7 unknown #
vertex $-1 $218 $372 #
point $-1 54.003981977942004 -23.27183881243738 5.8150101757925405 #
straight-curve $-1 -66.283761101107814 36.401754234883725 0 0 0 -1 I I #
point $-1 -66.283761101107814 -36.401754234883725 -16.298191962313673 #
straight-curve $-1 -66.283761101107814 0 -16.298191962313673 0 1 0 I I #
point $-1 -66.283761101107814 36.401754234883725 -16.298191962313673 #
face $-1 $-1 $251 $13 $-1 $373 reversed single #
loop $-1 $-1 $315 $238 #
plane-surface $-1 0 36.401754234883725 0 0 -1 0 0 0 -1 forward_v I I I I #
coedge $-1 $247 $240 $249 $320 reversed $167 $-1 #
coedge $-1 $316 $315 $241 $311 reversed $307 $-1 #
edge $-1 $326 -66.283761101107814 $312 66.283761101107814 $310 $374 forward 7 unknown #
vertex $-1 $243 $375 #
vertex $-1 $320 $376 #
straight-curve $-1 66.283761101107814 0 -16.298191962313673 0 -1 0 I I #
coedge $-1 $310 $245 $250 $321 forward $307 $-1 #
coedge $-1 $245 $310 $258 $324 reversed $307 $-1 #
vertex $-1 $246 $377 #
straight-curve $-1 0 36.401754234883725 16.298191962313673 -1 0 0 I I #
straight-curve $-1 0 -36.401754234883725 16.298191962313673 1 0 0 I I #
edge $-1 $252 -16.298191962313673 $313 16.298191962313673 $249 $378 forward 7 unknown #
edge $-1 $253 -16.298191962313673 $312 16.298191962313673 $250 $379 forward 7 unknown #
point $-1 66.283761101107814 -36.401754234883725 16.298191962313673 #
point $-1 66.283761101107814 36.401754234883725 16.298191962313673 #
edge $-1 $317 -16.298191962313673 $326 16.298191962313673 $316 $380 forward 7 unknown #
straight-curve $-1 -66.283761101107814 0 16.298191962313673 0 -1 0 I I #
vertex $-1 $311 $381 #
straight-curve $-1 -66.283761101107814 0 -16.298191962313673 0 1 0 I I #
straight-curve $-1 -72.584471904647131 -36.401754234883725 -16.298191962313673 -1 0 0 I I #
face $-1 $382 $274 $14 $-1 $383 reversed single #
loop $-1 $-1 $343 $267 #
plane-surface $-1 0 0 -16.298191962313673 0 0 1 1 0 0 forward_v I I I I #
coedge $-1 $384 $385 $386 $387 reversed $268 $-1 #
coedge $-1 $388 $270 $389 $390 reversed $194 $-1 #
coedge $-1 $270 $388 $271 $338 reversed $194 $-1 #
coedge $-1 $385 $384 $270 $336 reversed $268 $-1 #
edge $-1 $391 -16.298191962313673 $392 16.298191962313673 $335 $393 forward 7 unknown #
coedge $-1 $271 $284 $385 $394 forward $66 $-1 #
edge $-1 $391 -1.7089052438404835 $340 1.7089052438404835 $334 $395 forward 7 unknown #
coedge $-1 $342 $272 $388 $396 forward $274 $-1 #
vertex $-1 $338 $397 #
straight-curve $-1 0 -36.401754234883725 16.298191962313673 1 0 0 I I #
coedge $-1 $277 $339 $398 $399 reversed $274 $-1 #
coedge $-1 $398 $400 $280 $344 forward $330 $-1 #
edge $-1 $401 -36.401754234883725 $345 36.401754234883725 $280 $402 forward 7 unknown #
vertex $-1 $281 $403 #
straight-curve $-1 66.283761101107814 -36.401754234883725 0 0 0 -1 I I #
coedge $-1 $404 $285 $282 $348 forward $352 $-1 #
edge $-1 $287 -16.298191962313673 $401 16.298191962313673 $282 $405 forward 7 unknown #
coedge $-1 $406 $386 $284 $350 reversed $407 $-1 #
edge $-1 $353 -36.401754234883725 $408 32.983943747202758 $349 $409 forward 7 unknown #
coedge $-1 $285 $404 $406 $410 reversed $352 $-1 #
loop $-1 $-1 $347 $411 #
vertex $-1 $286 $412 #
straight-curve $-1 0 36.401754234883725 16.298191962313673 -1 0 0 I I #
point $-1 66.283761101107814 36.401754234883725 16.298191962313673 #
face $-1 $413 $414 $15 $-1 $415 reversed single #
loop $-1 $-1 $416 $289 #
plane-surface $-1 -78.885182708186449 -34.692848991043242 0 1 0 0 0 0 -1 forward_v I I I I #
coedge $-1 $417 $418 $297 $368 forward $290 $-1 #
coedge $-1 $292 $419 $420 $421 forward $214 $-1 #
coedge $-1 $420 $422 $293 $362 forward $423 $-1 #
edge $-1 $424 -54.100659784793102 $364 -38.194104384985373 $361 $425 forward 7 unknown #
edge $-1 $424 -1.7340190696821129e-014 $365 27.732232683753921 $294 $426 forward 7 unknown #
vertex $-1 $362 $427 #
vertex $-1 $299 $428 #
straight-curve $-1 35.724202854776188 -56.219681087742018 16.298191962313673 0 1 0 I I #
coedge $-1 $297 $296 $422 $429 reversed $134 $-1 #
edge $-1 $370 -12.935263832738748 $430 14.79696885101519 $359 $431 forward 7 unknown #
coedge $-1 $432 $298 $418 $433 forward $214 $-1 #
vertex $-1 $433 $434 #
straight-curve $-1 25.501990988971002 -13.684839282832737 16.298191962313673 1 0 0 I I #
point $-1 51.003981977942004 -21.551109481207646 3.3575540584537826 #
plane-surface $-1 66.283761101107814 0 0 -1 0 0 0 0 1 forward_v I I I I #
straight-curve $-1 0 36.401754234883725 -16.298191962313673 1 0 0 I I #
point $-1 66.283761101107814 36.401754234883725 -16.298191962313673 #
point $-1 66.283761101107814 -36.401754234883725 -16.298191962313673 #
point $-1 -66.283761101107814 36.401754234883725 16.298191962313673 #
straight-curve $-1 66.283761101107814 -36.401754234883725 0 0 0 -1 I I #
straight-curve $-1 66.283761101107814 36.401754234883725 0 0 0 -1 I I #
straight-curve $-1 -66.283761101107814 36.401754234883725 0 0 0 -1 I I #
point $-1 -66.283761101107814 36.401754234883725 -16.298191962313673 #
face $-1 $411 $407 $14 $-1 $435 reversed single #
plane-surface $-1 0 -36.401754234883725 0 0 1 0 0 0 1 forward_v I I I I #
coedge $-1 $335 $332 $436 $437 reversed $268 $-1 #
coedge $-1 $332 $335 $337 $394 reversed $268 $-1 #
coedge $-1 $349 $438 $332 $387 forward $407 $-1 #
edge $-1 $439 -16.298191962313673 $408 16.298191962313673 $386 $440 forward 7 unknown #
coedge $-1 $334 $333 $339 $396 reversed $194 $-1 #
coedge $-1 $436 $398 $333 $390 forward $330 $-1 #
edge $-1 $441 -1.7089052438404835 $392 1.7089052438404835 $333 $442 forward 7 unknown #
vertex $-1 $394 $443 #
vertex $-1 $437 $444 #
straight-curve $-1 -78.885182708186449 -32.983943747202758 0 0 0 -1 I I #
edge $-1 $408 -6.3007108035393173 $391 6.3007108035393173 $385 $445 forward 7 unknown #
straight-curve $-1 -78.885182708186449 -34.692848991043242 16.298191962313673 0 -1 0 I I #
edge $-1 $340 -16.298191962313673 $441 16.298191962313673 $388 $446 forward 7 unknown #
point $-1 -78.885182708186449 -36.401754234883725 16.298191962313673 #
coedge $-1 $389 $343 $342 $399 forward $330 $-1 #
edge $-1 $345 -138.86823300575494 $441 6.3007108035393173 $342 $447 forward 7 unknown #
coedge $-1 $343 $448 $404 $449 forward $330 $-1 #
vertex $-1 $344 $450 #
straight-curve $-1 66.283761101107814 0 -16.298191962313673 0 -1 0 I I #
point $-1 66.283761101107814 -36.401754234883725 -16.298191962313673 #
coedge $-1 $351 $347 $400 $449 reversed $352 $-1 #
straight-curve $-1 66.283761101107814 36.401754234883725 0 0 0 -1 I I #
coedge $-1 $438 $349 $351 $410 forward $407 $-1 #
loop $-1 $-1 $386 $382 #
vertex $-1 $394 $451 #
straight-curve $-1 -66.283761101107814 0 16.298191962313673 0 -1 0 I I #
edge $-1 $353 -16.298191962313673 $452 16.298191962313673 $351 $453 forward 7 unknown #
face $-1 $-1 $352 $14 $-1 $454 reversed single #
point $-1 -66.283761101107814 36.401754234883725 16.298191962313673 #
face $-1 $455 $456 $15 $-1 $457 reversed single #
loop $-1 $-1 $458 $356 #
plane-surface $-1 -72.584471904647131 -32.983943747202758 0 0 -1 0 0 0 -1 forward_v I I I I #
coedge $-1 $459 $460 $461 $462 forward $357 $-1 #
coedge $-1 $463 $359 $464 $465 forward $290 $-1 #
coedge $-1 $359 $466 $369 $433 reversed $290 $-1 #
coedge $-1 $360 $467 $460 $468 forward $214 $-1 #
coedge $-1 $469 $361 $360 $421 reversed $423 $-1 #
edge $-1 $470 -78.885182708186449 $364 35.724202854776188 $420 $471 forward 7 unknown #
coedge $-1 $361 $464 $367 $429 forward $423 $-1 #
loop $-1 $-1 $361 $455 #
vertex $-1 $429 $472 #
straight-curve $-1 35.724202854776188 -36.401754234883725 54.492296347299046 0 0 1 I I #
straight-curve $-1 35.724202854776188 -36.401754234883711 0.39163656250595125 0 0.81915203911291934 0.57357644374324357 I I #
point $-1 35.724202854776188 -36.401754234883725 16.298191962313673 #
point $-1 35.724202854776188 -13.684839282832741 16.298191962313673 #
edge $-1 $430 -40.781770112136812 $424 -10.222211865805185 $422 $473 forward 7 unknown #
vertex $-1 $465 $474 #
straight-curve $-1 66.283761101107814 -24.28078702788428 8.8788293342507831 0 -0.81915203911291934 -0.57357644374324357 I I #
coedge $-1 $475 $369 $476 $477 forward $214 $-1 #
edge $-1 $370 -13.684839282832741 $478 36.401754234883725 $418 $479 forward 7 unknown #
point $-1 66.283761101107814 -13.684839282832741 16.298191962313673 #
plane-surface $-1 -66.283761101107814 0 0 1 0 0 0 0 -1 forward_v I I I I #
coedge $-1 $448 $389 $384 $437 forward $330 $-1 #
edge $-1 $392 -6.3007108035393173 $439 6.3007108035393173 $384 $480 forward 7 unknown #
coedge $-1 $386 $406 $448 $481 reversed $407 $-1 #
vertex $-1 $481 $482 #
straight-curve $-1 -66.283761101107814 -32.983943747202758 0 0 0 1 I I #
vertex $-1 $390 $483 #
straight-curve $-1 -78.885182708186449 -34.692848991043242 -16.298191962313673 0 1 0 I I #
point $-1 -78.885182708186449 -32.983943747202758 16.298191962313673 #
point $-1 -78.885182708186449 -32.983943747202758 -16.298191962313673 #
straight-curve $-1 -72.584471904647131 -32.983943747202758 16.298191962313673 -1 0 0 I I #
straight-curve $-1 -78.885182708186449 -36.401754234883725 0 0 0 -1 I I #
straight-curve $-1 -72.584471904647131 -36.401754234883725 -16.298191962313673 -1 0 0 I I #
coedge $-1 $400 $436 $438 $481 forward $330 $-1 #
edge $-1 $452 -66.283761101107814 $401 66.283761101107814 $404 $484 forward 7 unknown #
point $-1 66.283761101107814 36.401754234883725 -16.298191962313673 #
point $-1 -66.283761101107814 -32.983943747202758 16.298191962313673 #
vertex $-1 $449 $485 #
straight-curve $-1 -66.283761101107814 36.401754234883725 0 0 0 -1 I I #
plane-surface $-1 0 36.401754234883725 0 0 -1 0 0 0 -1 forward_v I I I I #
face $-1 $486 $423 $15 $-1 $487 reversed single #
loop $-1 $-1 $488 $413 #
plane-surface $-1 0 0 -16.298191962313673 0 0 1 1 0 0 forward_v I I I I #
coedge $-1 $489 $490 $491 $492 reversed $414 $-1 #
coedge $-1 $493 $416 $494 $495 reversed $357 $-1 #
coedge $-1 $416 $493 $419 $468 reversed $357 $-1 #
coedge $-1 $490 $489 $416 $462 reversed $414 $-1 #
edge $-1 $496 -16.298191962313673 $497 16.298191962313673 $461 $498 forward 7 unknown #
coedge $-1 $466 $417 $488 $499 reversed $290 $-1 #
coedge $-1 $422 $500 $417 $465 reversed $423 $-1 #
edge $-1 $430 -0.39163656250594131 $501 16.298191962313673 $417 $502 forward 7 unknown #
coedge $-1 $418 $463 $503 $504 reversed $290 $-1 #
coedge $-1 $419 $475 $490 $505 forward $214 $-1 #
edge $-1 $496 -1.7089052438404835 $470 1.7089052438404835 $460 $506 forward 7 unknown #
coedge $-1 $500 $420 $493 $507 forward $423 $-1 #
vertex $-1 $468 $508 #
straight-curve $-1 0 -36.401754234883725 16.298191962313673 1 0 0 I I #
point $-1 35.724202854776188 -36.401754234883725 0.39163656250594131 #
straight-curve $-1 25.501990988971002 -36.401754234883725 0.39163656250594159 -1 0 0 I I #
point $-1 66.283761101107814 -36.401754234883725 0.39163656250594131 #
coedge $-1 $467 $432 $509 $510 forward $214 $-1 #
coedge $-1 $503 $511 $432 $477 reversed $512 $-1 #
edge $-1 $478 -66.283761101107814 $513 66.283761101107814 $476 $514 forward 7 unknown #
vertex $-1 $433 $515 #
straight-curve $-1 66.283761101107814 0 16.298191962313673 0 1 0 I I #
straight-curve $-1 -72.584471904647131 -32.983943747202758 -16.298191962313673 1 0 0 I I #
edge $-1 $439 -32.983943747202758 $452 36.401754234883725 $438 $516 forward 7 unknown #
point $-1 -66.283761101107814 -32.983943747202758 -16.298191962313673 #
point $-1 -78.885182708186449 -36.401754234883725 -16.298191962313673 #
straight-curve $-1 0 36.401754234883725 -16.298191962313673 1 0 0 I I #
point $-1 -66.283761101107814 36.401754234883725 -16.298191962313673 #
face $-1 $517 $518 $15 $-1 $519 reversed single #
plane-surface $-1 0 -36.401754234883725 0 0 1 0 0 0 1 forward_v I I I I #
coedge $-1 $520 $521 $463 $499 forward $456 $-1 #
coedge $-1 $461 $458 $522 $523 reversed $414 $-1 #
coedge $-1 $458 $461 $467 $505 reversed $414 $-1 #
coedge $-1 $509 $524 $458 $492 forward $518 $-1 #
edge $-1 $525 -16.298191962313673 $526 16.298191962313673 $491 $527 forward 7 unknown #
coedge $-1 $460 $459 $469 $507 reversed $357 $-1 #
coedge $-1 $522 $520 $459 $495 forward $456 $-1 #
edge $-1 $528 -1.7089052438404835 $497 1.7089052438404835 $459 $529 forward 7 unknown #
vertex $-1 $505 $530 #
vertex $-1 $523 $531 #
straight-curve $-1 -78.885182708186449 -32.983943747202758 0 0 0 -1 I I #
edge $-1 $532 -36.401754234883725 $501 36.401754234883725 $463 $533 forward 7 unknown #
coedge $-1 $464 $469 $520 $534 reversed $423 $-1 #
vertex $-1 $465 $535 #
straight-curve $-1 66.283761101107814 -36.401754234883725 0 0 0 -1 I I #
coedge $-1 $536 $476 $466 $504 forward $512 $-1 #
edge $-1 $478 -16.298191962313673 $532 16.298191962313673 $466 $537 forward 7 unknown #
edge $-1 $526 -6.3007108035393173 $496 6.3007108035393173 $490 $538 forward 7 unknown #
straight-curve $-1 -78.885182708186449 -34.692848991043242 16.298191962313673 0 -1 0 I I #
edge $-1 $470 -16.298191962313673 $528 16.298191962313673 $493 $539 forward 7 unknown #
point $-1 -78.885182708186449 -36.401754234883725 16.298191962313673 #
coedge $-1 $540 $491 $475 $510 reversed $518 $-1 #
edge $-1 $513 -36.401754234883725 $526 32.983943747202758 $509 $541 forward 7 unknown #
coedge $-1 $476 $536 $540 $542 reversed $512 $-1 #
loop $-1 $-1 $503 $517 #
vertex $-1 $477 $543 #
straight-curve $-1 0 36.401754234883725 16.298191962313673 -1 0 0 I I #
point $-1 66.283761101107814 36.401754234883725 16.298191962313673 #
straight-curve $-1 -66.283761101107814 0 -16.298191962313673 0 1 0 I I #
face $-1 $-1 $512 $15 $-1 $544 reversed single #
loop $-1 $-1 $491 $486 #
plane-surface $-1 -66.283761101107814 0 0 1 0 0 0 0 -1 forward_v I I I I #
coedge $-1 $494 $488 $500 $534 forward $456 $-1 #
coedge $-1 $488 $545 $536 $546 forward $456 $-1 #
coedge $-1 $545 $494 $489 $523 forward $456 $-1 #
edge $-1 $497 -6.3007108035393173 $525 6.3007108035393173 $489 $547 forward 7 unknown #
coedge $-1 $491 $540 $545 $548 reversed $518 $-1 #
vertex $-1 $548 $549 #
vertex $-1 $505 $550 #
straight-curve $-1 -66.283761101107814 -32.983943747202758 0 0 0 1 I I #
vertex $-1 $495 $551 #
straight-curve $-1 -78.885182708186449 -34.692848991043242 -16.298191962313673 0 1 0 I I #
point $-1 -78.885182708186449 -32.983943747202758 16.298191962313673 #
point $-1 -78.885182708186449 -32.983943747202758 -16.298191962313673 #
vertex $-1 $499 $552 #
straight-curve $-1 66.283761101107814 0 -16.298191962313673 0 -1 0 I I #
edge $-1 $501 -138.86823300575494 $528 6.3007108035393173 $500 $553 forward 7 unknown #
point $-1 66.283761101107814 -36.401754234883725 -16.298191962313673 #
coedge $-1 $511 $503 $521 $546 reversed $512 $-1 #
straight-curve $-1 66.283761101107814 36.401754234883725 0 0 0 -1 I I #
straight-curve $-1 -72.584471904647131 -32.983943747202758 16.298191962313673 -1 0 0 I I #
straight-curve $-1 -78.885182708186449 -36.401754234883725 0 0 0 -1 I I #
coedge $-1 $524 $509 $511 $542 forward $518 $-1 #
straight-curve $-1 -66.283761101107814 0 16.298191962313673 0 -1 0 I I #
edge $-1 $513 -16.298191962313673 $554 16.298191962313673 $511 $555 forward 7 unknown #
point $-1 -66.283761101107814 36.401754234883725 16.298191962313673 #
plane-surface $-1 0 36.401754234883725 0 0 -1 0 0 0 -1 forward_v I I I I #
coedge $-1 $521 $522 $524 $548 forward $456 $-1 #
edge $-1 $554 -66.283761101107814 $532 66.283761101107814 $536 $556 forward 7 unknown #
straight-curve $-1 -72.584471904647131 -32.983943747202758 -16.298191962313673 1 0 0 I I #
edge $-1 $525 -32.983943747202758 $554 36.401754234883725 $524 $557 forward 7 unknown #
point $-1 -66.283761101107814 -32.983943747202758 -16.298191962313673 #
point $-1 -66.283761101107814 -32.983943747202758 16.298191962313673 #
point $-1 -78.885182708186449 -36.401754234883725 -16.298191962313673 #
point $-1 66.283761101107814 36.401754234883725 -16.298191962313673 #
straight-curve $-1 -72.584471904647131 -36.401754234883725 -16.298191962313673 -1 0 0 I I #
vertex $-1 $546 $558 #
straight-curve $-1 -66.283761101107814 36.401754234883725 0 0 0 -1 I I #
straight-curve $-1 0 36.401754234883725 -16.298191962313673 1 0 0 I I #
straight-curve $-1 -66.283761101107814 0 -16.298191962313673 0 1 0 I I #
point $-1 -66.283761101107814 36.401754234883725 -16.298191962313673 #
End-of-ACIS-data 