500 0 6 0           
7 Unknown 11 ACIS 5.0 NT 24 Fri Mar 26 01:39:29 1999 
-1 9.9999999999999995e-007 1e-010 
body $-1 $6 $-1 $7 #
body $-1 $8 $-1 $9 #
body $-1 $10 $-1 $11 #
body $-1 $12 $-1 $13 #
body $-1 $14 $-1 $15 #
body $-1 $16 $-1 $17 #
lump $-1 $-1 $18 $0 #
transform $-1 1 0 0 0 1 0 0 0 1 73.132114627521588 45.242726182621318 13.742510870559711 1 rotate no_reflect no_shear #
lump $-1 $-1 $19 $1 #
transform $-1 1 0 0 0 1 0 0 0 1 73.132114627521588 45.242726182621318 13.742510870559711 1 rotate no_reflect no_shear #
lump $-1 $-1 $20 $2 #
transform $-1 1 0 0 0 1 0 0 0 1 73.132114627521588 45.242726182621318 13.742510870559711 1 rotate no_reflect no_shear #
lump $-1 $-1 $21 $3 #
transform $-1 1 0 0 0 1 0 0 0 1 73.132114627521588 45.242726182621318 13.742510870559711 1 rotate no_reflect no_shear #
lump $-1 $-1 $22 $4 #
transform $-1 1 0 0 0 1 0 0 0 1 73.132114627521588 45.242726182621318 13.742510870559711 1 rotate no_reflect no_shear #
lump $-1 $-1 $23 $5 #
transform $-1 1 0 0 0 1 0 0 0 1 73.132114627521588 45.242726182621318 13.742510870559711 1 rotate no_reflect no_shear #
shell $-1 $-1 $-1 $24 $-1 $6 #
shell $-1 $-1 $-1 $25 $-1 $8 #
shell $-1 $-1 $-1 $26 $-1 $10 #
shell $-1 $-1 $-1 $27 $-1 $12 #
shell $-1 $-1 $-1 $28 $-1 $14 #
shell $-1 $-1 $-1 $29 $-1 $16 #
face $-1 $30 $31 $18 $-1 $32 forward single #
face $-1 $33 $34 $19 $-1 $35 forward single #
face $-1 $36 $37 $20 $-1 $38 reversed single #
face $-1 $39 $40 $21 $-1 $41 forward single #
face $-1 $42 $43 $22 $-1 $44 reversed single #
face $-1 $45 $46 $23 $-1 $47 forward single #
face $-1 $48 $49 $18 $-1 $50 reversed single #
loop $-1 $-1 $51 $24 #
plane-surface $-1 0 0 13.742510870559711 0 0 1 1 0 0 forward_v I I I I #
face $-1 $52 $53 $19 $-1 $54 reversed single #
loop $-1 $-1 $55 $25 #
plane-surface $-1 0 -40.673650626359532 -10.090619053966444 0 0 1 1 0 0 forward_v I I I I #
face $-1 $56 $57 $20 $-1 $58 reversed single #
loop $-1 $-1 $59 $26 #
plane-surface $-1 112.60074010148026 36.105026310161733 208.01925228939203 0 1 0 0.82903758062907751 0 0.55919289150049634 forward_v I I I I #
face $-1 $60 $61 $21 $-1 $62 forward single #
loop $-1 $63 $64 $27 #
cone-surface $-1 68.555323502455764 40.673876246391536 8.2649651199282133 -0.82903758062907751 0 -0.55919289150049634 0.55919289150049634 0 -0.82903758062907751 1 I I 0 1 1 forward I I I I #
face $-1 $65 $66 $22 $-1 $67 reversed single #
loop $-1 $-1 $68 $28 #
plane-surface $-1 -194.39065738169933 36.105026310161733 86.760709535214247 0 1 0 -0.82903758062907751 0 0.55919289150049634 forward_v I I I I #
face $-1 $69 $70 $23 $-1 $71 forward single #
loop $-1 $72 $73 $29 #
cone-surface $-1 -68.555323502455792 40.673876246391536 8.2649651199281919 0.82903758062907751 0 -0.55919289150049634 0.55919289150049634 0 0.82903758062907751 1 I I 0 1 1 forward I I I I #
face $-1 $74 $75 $18 $-1 $76 reversed single #
loop $-1 $-1 $77 $30 #
plane-surface $-1 0 0 -13.742510870559711 0 0 1 1 0 0 forward_v I I I I #
coedge $-1 $78 $79 $80 $81 forward $31 $-1 #
face $-1 $82 $83 $19 $-1 $84 reversed single #
loop $-1 $-1 $85 $33 #
plane-surface $-1 0 -36.104575070097745 -11.916564962263077 0 -1 0 0 0 -1 forward_v I I I I #
coedge $-1 $86 $87 $88 $89 reversed $34 $-1 #
face $-1 $90 $91 $20 $-1 $92 forward single #
loop $-1 $-1 $93 $36 #
plane-surface $-1 -8.6578026526974838 40.673876246391522 126.22933500917294 0.82903758062907751 0 0.55919289150049634 0.55919289150049634 0 -0.82903758062907751 forward_v I I I I #
coedge $-1 $94 $95 $96 $97 reversed $37 $-1 #
face $-1 $-1 $98 $21 $-1 $99 forward single #
loop $-1 $100 $101 $39 #
cone-surface $-1 66.522312951709949 40.673876246391536 6.8936822313287269 -0.82903758062907751 0 -0.55919289150049634 0.27959644575024817 0 -0.41451879031453875 1 I I -0.70710678118654746 0.70710678118654746 0.5 forward I I I I #
loop $-1 $-1 $102 $27 #
coedge $-1 $64 $64 $103 $104 reversed $40 $-1 #
face $-1 $105 $106 $22 $-1 $107 reversed single #
loop $-1 $-1 $108 $42 #
plane-surface $-1 -73.132114627521588 40.673876246391522 4.9707922549951604 -0.82903758062907751 0 0.55919289150049634 0.55919289150049634 0 0.82903758062907751 forward_v I I I I #
coedge $-1 $109 $110 $111 $112 reversed $43 $-1 #
face $-1 $-1 $113 $23 $-1 $114 forward single #
loop $-1 $115 $116 $45 #
cone-surface $-1 -66.522312951709978 40.673876246391536 6.8936822313287056 0.82903758062907751 0 -0.55919289150049634 0.27959644575024817 0 0.41451879031453875 1 I I -0.70710678118654746 0.70710678118654746 0.5 forward I I I I #
loop $-1 $-1 $117 $29 #
coedge $-1 $73 $73 $118 $119 reversed $46 $-1 #
face $-1 $120 $121 $18 $-1 $122 reversed single #
loop $-1 $-1 $123 $48 #
plane-surface $-1 0 -45.242726182621318 0 0 1 0 0 0 1 forward_v I I I I #
coedge $-1 $124 $125 $126 $127 forward $49 $-1 #
coedge $-1 $128 $51 $129 $130 forward $31 $-1 #
coedge $-1 $51 $128 $131 $132 forward $31 $-1 #
coedge $-1 $133 $134 $51 $81 reversed $135 $-1 #
edge $-1 $136 -45.242726182621318 $137 45.242726182621318 $80 $138 forward 7 unknown #
face $-1 $139 $140 $19 $-1 $141 reversed single #
loop $-1 $-1 $142 $52 #
plane-surface $-1 0 0 -13.742510870559711 0 0 1 1 0 0 forward_v I I I I #
coedge $-1 $143 $144 $145 $146 reversed $53 $-1 #
coedge $-1 $147 $55 $144 $148 forward $34 $-1 #
coedge $-1 $55 $147 $149 $150 reversed $34 $-1 #
coedge $-1 $151 $145 $55 $89 forward $140 $-1 #
edge $-1 $152 15.767749756917979 $153 24.905900869441552 $88 $154 forward 7 unknown #
face $-1 $155 $156 $20 $-1 $157 reversed single #
loop $-1 $-1 $158 $56 #
plane-surface $-1 0 0 13.742510870559711 0 0 1 1 0 0 forward_v I I I I #
coedge $-1 $159 $160 $161 $162 reversed $57 $-1 #
coedge $-1 $95 $59 $163 $164 reversed $37 $-1 #
coedge $-1 $59 $94 $159 $165 reversed $37 $-1 #
coedge $-1 $161 $166 $59 $97 forward $167 $-1 #
edge $-1 $168 90.267115274136302 $169 99.038833889700783 $96 $170 forward 7 unknown #
loop $-1 $-1 $103 $60 #
plane-surface $-1 -8.6578026526974838 40.673876246391522 126.22933500917294 0.82903758062907751 0 0.55919289150049634 0.55919289150049634 0 -0.82903758062907751 forward_v I I I I #
loop $-1 $-1 $171 $39 #
coedge $-1 $101 $101 $102 $172 reversed $61 $-1 #
coedge $-1 $102 $102 $101 $172 forward $63 $-1 #
coedge $-1 $103 $103 $64 $104 forward $98 $-1 #
edge $-1 $173 0 $173 6.2831853071796004 $103 $174 forward 7 unknown #
face $-1 $175 $176 $22 $-1 $177 reversed single #
loop $-1 $-1 $178 $65 #
plane-surface $-1 0 45.242726182621318 0 0 -1 0 0 0 -1 forward_v I I I I #
coedge $-1 $179 $180 $181 $182 reversed $66 $-1 #
coedge $-1 $110 $68 $183 $184 reversed $43 $-1 #
coedge $-1 $68 $109 $179 $185 reversed $43 $-1 #
coedge $-1 $181 $186 $68 $112 forward $187 $-1 #
edge $-1 $188 24.063214063328076 $189 29.979812792597102 $111 $190 forward 7 unknown #
loop $-1 $-1 $118 $69 #
plane-surface $-1 -73.132114627521588 40.673876246391522 4.9707922549951604 -0.82903758062907751 0 0.55919289150049634 0.55919289150049634 0 0.82903758062907751 forward_v I I I I #
loop $-1 $-1 $191 $45 #
coedge $-1 $116 $116 $117 $192 reversed $70 $-1 #
coedge $-1 $117 $117 $116 $192 forward $72 $-1 #
coedge $-1 $118 $118 $73 $119 forward $113 $-1 #
edge $-1 $193 0 $193 6.2831853071796004 $118 $194 forward 7 unknown #
face $-1 $195 $196 $18 $-1 $197 reversed single #
loop $-1 $-1 $198 $74 #
plane-surface $-1 -73.132114627521588 0 0 1 0 0 0 0 -1 forward_v I I I I #
coedge $-1 $199 $131 $200 $201 forward $75 $-1 #
coedge $-1 $202 $77 $199 $203 forward $49 $-1 #
coedge $-1 $77 $202 $204 $205 forward $49 $-1 #
coedge $-1 $134 $133 $77 $127 reversed $135 $-1 #
edge $-1 $206 -45.242726182621318 $207 45.242726182621318 $126 $208 forward 7 unknown #
coedge $-1 $79 $78 $209 $210 forward $31 $-1 #
coedge $-1 $211 $212 $78 $130 reversed $196 $-1 #
edge $-1 $137 -73.132114627521588 $213 73.132114627521588 $129 $214 forward 7 unknown #
coedge $-1 $123 $215 $79 $132 reversed $75 $-1 #
edge $-1 $216 -73.132114627521588 $136 73.132114627521588 $131 $217 forward 7 unknown #
coedge $-1 $126 $80 $215 $218 forward $135 $-1 #
coedge $-1 $80 $126 $211 $219 reversed $135 $-1 #
loop $-1 $-1 $133 $195 #
vertex $-1 $81 $220 #
vertex $-1 $81 $221 #
straight-curve $-1 73.132114627521588 0 13.742510870559711 0 1 0 I I #
face $-1 $222 $223 $19 $-1 $224 reversed single #
loop $-1 $-1 $145 $82 #
plane-surface $-1 73.132114627521588 0 0 -1 0 0 0 0 1 forward_v I I I I #
coedge $-1 $225 $226 $143 $227 forward $83 $-1 #
coedge $-1 $228 $85 $142 $227 reversed $53 $-1 #
coedge $-1 $85 $228 $86 $148 reversed $53 $-1 #
coedge $-1 $88 $229 $85 $146 forward $140 $-1 #
edge $-1 $230 -7.7842283894281721 $152 -4.1323365728349053 $145 $231 forward 7 unknown #
coedge $-1 $87 $86 $232 $233 reversed $34 $-1 #
edge $-1 $152 -73.132114627521588 $234 73.132114627521588 $144 $235 forward 7 unknown #
coedge $-1 $236 $237 $87 $150 forward $223 $-1 #
edge $-1 $153 -73.132114627521588 $238 73.132114627521588 $149 $239 forward 7 unknown #
coedge $-1 $229 $88 $237 $240 forward $140 $-1 #
vertex $-1 $89 $241 #
vertex $-1 $240 $242 #
straight-curve $-1 73.132114627521588 -20.336825313179766 -10.090619053966444 0 -1 0 I I #
face $-1 $-1 $167 $20 $-1 $243 reversed single #
loop $-1 $-1 $244 $90 #
plane-surface $-1 0 45.242726182621318 0 0 -1 0 0 0 -1 forward_v I I I I #
coedge $-1 $163 $245 $246 $247 forward $91 $-1 #
coedge $-1 $246 $93 $95 $165 forward $57 $-1 #
coedge $-1 $93 $246 $244 $248 reversed $57 $-1 #
coedge $-1 $249 $96 $93 $162 forward $167 $-1 #
edge $-1 $169 15.768088186965972 $250 24.905788059425557 $161 $251 forward 7 unknown #
coedge $-1 $252 $158 $94 $164 forward $91 $-1 #
edge $-1 $253 10.915145847512477 $168 16.83174457678146 $163 $254 forward 7 unknown #
edge $-1 $169 -146.26422925504318 $253 -135.68362492476845 $95 $255 forward 7 unknown #
coedge $-1 $96 $249 $252 $256 reversed $167 $-1 #
loop $-1 $-1 $161 $155 #
vertex $-1 $256 $257 #
vertex $-1 $97 $258 #
straight-curve $-1 73.132114627521588 36.105026310161733 104.00962614469601 0 0 -1 I I #
coedge $-1 $171 $171 $-1 $259 reversed $100 $-1 #
edge $-1 $260 0 $260 6.2831853071796004 $101 $261 forward 7 unknown #
vertex $-1 $104 $262 #
ellipse-curve $-1 70.173815262887075 40.673876246391536 9.3566515627774756 0.82903758062907751 0 0.55919289150049634 0.55919289150049634 0 -0.82903758062907751 1 I I #
face $-1 $-1 $187 $22 $-1 $263 forward single #
loop $-1 $-1 $264 $105 #
plane-surface $-1 -73.132114627521588 0 0 1 0 0 0 0 -1 forward_v I I I I #
coedge $-1 $265 $266 $180 $267 forward $106 $-1 #
coedge $-1 $268 $108 $110 $185 forward $66 $-1 #
coedge $-1 $108 $268 $178 $267 reversed $66 $-1 #
coedge $-1 $269 $111 $108 $182 forward $187 $-1 #
edge $-1 $189 15.768088186965972 $270 24.90578805942555 $181 $271 forward 7 unknown #
coedge $-1 $272 $264 $109 $184 forward $176 $-1 #
edge $-1 $273 -38.409562512611963 $188 -29.637843897047411 $183 $274 forward 7 unknown #
edge $-1 $189 -10.580604330274785 $273 0 $110 $275 forward 7 unknown #
coedge $-1 $111 $269 $272 $276 forward $187 $-1 #
loop $-1 $-1 $181 $175 #
vertex $-1 $184 $277 #
vertex $-1 $112 $278 #
straight-curve $-1 -97.195328690849664 36.105026310161733 13.742510870559713 1 0 0 I I #
coedge $-1 $191 $191 $-1 $279 reversed $115 $-1 #
edge $-1 $280 0 $280 6.2831853071796004 $116 $281 forward 7 unknown #
vertex $-1 $119 $282 #
ellipse-curve $-1 -70.173815262887075 40.673876246391536 9.3566515627774329 -0.82903758062907751 0 0.55919289150049634 0.55919289150049634 0 0.82903758062907751 1 I I #
face $-1 $-1 $135 $18 $-1 $283 reversed single #
loop $-1 $-1 $211 $120 #
plane-surface $-1 0 45.242726182621318 0 0 -1 0 0 0 -1 forward_v I I I I #
coedge $-1 $284 $209 $212 $285 forward $121 $-1 #
coedge $-1 $215 $123 $124 $203 reversed $75 $-1 #
coedge $-1 $209 $284 $123 $201 reversed $121 $-1 #
edge $-1 $216 -13.742510870559711 $286 13.742510870559711 $200 $287 forward 7 unknown #
coedge $-1 $125 $124 $284 $288 forward $49 $-1 #
edge $-1 $207 -73.132114627521588 $286 73.132114627521588 $199 $289 forward 7 unknown #
coedge $-1 $212 $211 $125 $205 reversed $196 $-1 #
edge $-1 $290 -73.132114627521588 $206 73.132114627521588 $204 $291 forward 7 unknown #
vertex $-1 $127 $292 #
vertex $-1 $218 $293 #
straight-curve $-1 73.132114627521588 0 -13.742510870559711 0 -1 0 I I #
coedge $-1 $198 $200 $128 $210 reversed $121 $-1 #
edge $-1 $213 -45.242726182621318 $216 45.242726182621318 $209 $294 forward 7 unknown #
coedge $-1 $204 $129 $134 $219 forward $196 $-1 #
coedge $-1 $129 $204 $198 $285 reversed $196 $-1 #
vertex $-1 $130 $295 #
straight-curve $-1 0 45.242726182621318 13.742510870559711 -1 0 0 I I #
coedge $-1 $131 $199 $133 $218 reversed $75 $-1 #
vertex $-1 $210 $296 #
straight-curve $-1 0 -45.242726182621318 13.742510870559711 1 0 0 I I #
edge $-1 $136 -13.742510870559711 $207 13.742510870559711 $133 $297 forward 7 unknown #
edge $-1 $137 -13.742510870559711 $206 13.742510870559711 $134 $298 forward 7 unknown #
point $-1 73.132114627521588 -45.242726182621318 13.742510870559711 #
point $-1 73.132114627521588 45.242726182621318 13.742510870559711 #
face $-1 $-1 $299 $19 $-1 $300 reversed single #
loop $-1 $-1 $149 $139 #
plane-surface $-1 0 -45.242726182621318 0 0 1 0 0 0 1 forward_v I I I I #
coedge $-1 $301 $142 $229 $302 forward $83 $-1 #
coedge $-1 $142 $301 $303 $304 forward $83 $-1 #
edge $-1 $305 -73.132114627521588 $230 73.132114627521588 $142 $306 forward 7 unknown #
coedge $-1 $144 $143 $307 $308 reversed $53 $-1 #
coedge $-1 $145 $151 $225 $302 reversed $140 $-1 #
vertex $-1 $302 $309 #
straight-curve $-1 73.132114627521588 -36.104575070097745 -5.9582824811315387 0 0 1 I I #
coedge $-1 $307 $310 $147 $233 forward $299 $-1 #
edge $-1 $238 -24.905900869441552 $234 -15.767749756917979 $232 $311 forward 7 unknown #
vertex $-1 $233 $312 #
straight-curve $-1 0 -36.104575070097745 -10.090619053966444 -1 0 0 I I #
coedge $-1 $313 $149 $310 $314 forward $223 $-1 #
coedge $-1 $149 $313 $151 $240 reversed $223 $-1 #
vertex $-1 $314 $315 #
straight-curve $-1 0 -45.242726182621318 -10.090619053966444 -1 0 0 I I #
edge $-1 $153 10.090619053966444 $316 13.742510870559711 $151 $317 forward 7 unknown #
point $-1 73.132114627521588 -36.104575070097745 -10.090619053966444 #
point $-1 73.132114627521588 -45.242726182621318 -10.090619053966444 #
plane-surface $-1 73.132114627521588 0 0 -1 0 0 0 0 1 forward_v I I I I #
coedge $-1 $318 $319 $160 $248 forward $156 $-1 #
coedge $-1 $158 $252 $318 $320 forward $91 $-1 #
coedge $-1 $160 $159 $158 $247 reversed $57 $-1 #
edge $-1 $321 -24.90578805942555 $253 -15.768088186965972 $158 $322 forward 7 unknown #
edge $-1 $250 -91.519107155130854 $321 -80.938502824856144 $244 $323 forward 7 unknown #
coedge $-1 $166 $161 $319 $324 reversed $167 $-1 #
vertex $-1 $162 $325 #
straight-curve $-1 73.132114627521588 20.336938123195761 4.9707922549952173 0 1 0 I I #
coedge $-1 $245 $163 $166 $256 forward $91 $-1 #
vertex $-1 $164 $326 #
straight-curve $-1 56.300370050740128 36.105026310161733 13.742510870559713 1 0 0 I I #
straight-curve $-1 -8.6578026526974838 36.105026310161733 126.22933500917294 -0.55919289150049634 0 0.82903758062907751 I I #
edge $-1 $168 36.105026310161733 $327 45.242726182621318 $166 $328 forward 7 unknown #
point $-1 73.132114627521588 36.105026310161733 13.742510870559711 #
point $-1 73.132114627521588 36.105026310161733 4.9707922549952315 #
edge $-1 $329 1 $329 0 $171 $-1 forward 7 unknown #
vertex $-1 $172 $330 #
ellipse-curve $-1 66.936831742024495 40.673876246391536 7.1732786770789749 0.82903758062907751 0 0.55919289150049634 0.55919289150049634 0 -0.82903758062907751 1 I I #
point $-1 70.733008154387548 40.673876246391536 8.5276139821483739 #
plane-surface $-1 0 0 13.742510870559711 0 0 1 1 0 0 forward_v I I I I #
coedge $-1 $183 $331 $268 $332 forward $176 $-1 #
coedge $-1 $266 $178 $331 $333 reversed $106 $-1 #
coedge $-1 $178 $265 $269 $334 reversed $106 $-1 #
edge $-1 $270 7.8063881973345151 $335 18.386992527609298 $178 $336 forward 7 unknown #
coedge $-1 $180 $179 $264 $332 reversed $66 $-1 #
coedge $-1 $186 $181 $266 $334 forward $187 $-1 #
vertex $-1 $334 $337 #
straight-curve $-1 -67.215515898252562 20.336938123195761 13.742510870559711 0 1 0 I I #
coedge $-1 $331 $183 $186 $276 reversed $176 $-1 #
vertex $-1 $184 $338 #
straight-curve $-1 -73.132114627521588 36.105026310161733 43.380354767607123 0 0 1 I I #
straight-curve $-1 -73.132114627521588 36.105026310161733 4.9707922549951604 -0.55919289150049634 0 -0.82903758062907751 I I #
edge $-1 $339 -45.242726182621318 $188 -36.105026310161733 $272 $340 forward 7 unknown #
point $-1 -73.132114627521588 36.105026310161733 13.742510870559711 #
point $-1 -67.215515898252562 36.105026310161733 13.742510870559711 #
edge $-1 $341 1 $341 0 $191 $-1 forward 7 unknown #
vertex $-1 $192 $342 #
ellipse-curve $-1 -66.936831742024523 40.673876246391536 7.1732786770789536 -0.82903758062907751 0 0.55919289150049634 0.55919289150049634 0 0.82903758062907751 1 I I #
point $-1 -69.614622371386574 40.673876246391536 10.185689143406506 #
plane-surface $-1 73.132114627521588 0 0 -1 0 0 0 0 1 forward_v I I I I #
coedge $-1 $200 $198 $202 $288 reversed $121 $-1 #
edge $-1 $213 -13.742510870559711 $290 13.742510870559711 $212 $343 forward 7 unknown #
vertex $-1 $288 $344 #
straight-curve $-1 -73.132114627521588 -45.242726182621318 0 0 0 -1 I I #
edge $-1 $286 -45.242726182621318 $290 45.242726182621318 $284 $345 forward 7 unknown #
straight-curve $-1 0 -45.242726182621318 -13.742510870559711 -1 0 0 I I #
vertex $-1 $205 $346 #
straight-curve $-1 0 45.242726182621318 -13.742510870559711 1 0 0 I I #
point $-1 73.132114627521588 45.242726182621318 -13.742510870559711 #
point $-1 73.132114627521588 -45.242726182621318 -13.742510870559711 #
straight-curve $-1 -73.132114627521588 0 13.742510870559711 0 -1 0 I I #
point $-1 -73.132114627521588 45.242726182621318 13.742510870559711 #
point $-1 -73.132114627521588 -45.242726182621318 13.742510870559711 #
straight-curve $-1 73.132114627521588 -45.242726182621318 0 0 0 -1 I I #
straight-curve $-1 73.132114627521588 45.242726182621318 0 0 0 -1 I I #
loop $-1 $-1 $307 $222 #
plane-surface $-1 -73.132114627521588 0 0 1 0 0 0 0 -1 forward_v I I I I #
coedge $-1 $226 $225 $313 $347 forward $83 $-1 #
edge $-1 $230 36.104575070097745 $316 45.242726182621318 $229 $348 forward 7 unknown #
coedge $-1 $310 $307 $226 $304 reversed $299 $-1 #
edge $-1 $349 -45.242726182621318 $305 -36.104575070097745 $303 $350 forward 7 unknown #
vertex $-1 $308 $351 #
straight-curve $-1 0 -36.104575070097745 -13.742510870559711 1 0 0 I I #
coedge $-1 $303 $232 $228 $308 forward $299 $-1 #
edge $-1 $234 4.1323365728349053 $305 7.7842283894281721 $307 $352 forward 7 unknown #
point $-1 73.132114627521588 -36.104575070097745 -13.742510870559711 #
coedge $-1 $232 $303 $236 $314 reversed $299 $-1 #
straight-curve $-1 -73.132114627521588 -20.336825313179766 -10.090619053966444 0 1 0 I I #
point $-1 -73.132114627521588 -36.104575070097745 -10.090619053966444 #
coedge $-1 $237 $236 $301 $347 reversed $223 $-1 #
edge $-1 $238 10.090619053966444 $349 13.742510870559711 $310 $353 forward 7 unknown #
point $-1 -73.132114627521588 -45.242726182621318 -10.090619053966444 #
vertex $-1 $240 $354 #
straight-curve $-1 73.132114627521588 -45.242726182621318 0 0 0 -1 I I #
coedge $-1 $319 $244 $245 $320 reversed $156 $-1 #
coedge $-1 $244 $318 $249 $324 forward $156 $-1 #
edge $-1 $327 -73.132114627521588 $321 -67.215515898252605 $318 $355 forward 7 unknown #
vertex $-1 $247 $356 #
straight-curve $-1 67.21551589825259 20.336938123195761 13.742510870559713 0 -1 0 I I #
straight-curve $-1 21.955280469900202 45.242726182621318 80.843571432218198 -0.55919289150049634 0 0.82903758062907751 I I #
edge $-1 $327 -13.742510870559711 $250 -4.9707922549952155 $249 $357 forward 7 unknown #
point $-1 73.132114627521588 45.242726182621318 4.9707922549952155 #
point $-1 67.215515898252605 36.105026310161733 13.742510870559713 #
vertex $-1 $256 $358 #
straight-curve $-1 73.132114627521588 0 13.742510870559711 0 1 0 I I #
vertex $-1 $259 $359 #
point $-1 67.496024633524982 40.673876246391536 6.3442410964498972 #
coedge $-1 $264 $272 $265 $333 forward $176 $-1 #
edge $-1 $335 -24.90578805942555 $273 -15.768088186965972 $264 $360 forward 7 unknown #
edge $-1 $339 -13.742510870559711 $335 -4.9707922549951604 $265 $361 forward 7 unknown #
edge $-1 $270 67.215515898252562 $339 73.132114627521588 $266 $362 forward 7 unknown #
vertex $-1 $332 $363 #
straight-curve $-1 -62.850239110009724 45.242726182621318 20.2143000551293 -0.55919289150049634 0 -0.82903758062907751 I I #
point $-1 -67.215515898252562 45.242726182621311 13.742510870559711 #
point $-1 -73.132114627521588 36.105026310161733 4.9707922549951604 #
vertex $-1 $334 $364 #
straight-curve $-1 -73.132114627521588 0 13.742510870559711 0 -1 0 I I #
vertex $-1 $279 $365 #
point $-1 -66.377638850524022 40.673876246391536 8.0023162577080313 #
straight-curve $-1 -73.132114627521588 45.242726182621318 0 0 0 -1 I I #
point $-1 -73.132114627521588 -45.242726182621318 -13.742510870559711 #
straight-curve $-1 -73.132114627521588 0 -13.742510870559711 0 1 0 I I #
point $-1 -73.132114627521588 45.242726182621318 -13.742510870559711 #
edge $-1 $316 -73.132114627521588 $349 73.132114627521588 $313 $366 forward 7 unknown #
straight-curve $-1 73.132114627521588 0 -13.742510870559711 0 -1 0 I I #
vertex $-1 $304 $367 #
straight-curve $-1 -73.132114627521588 0 -13.742510870559711 0 1 0 I I #
point $-1 -73.132114627521588 -36.104575070097745 -13.742510870559711 #
straight-curve $-1 -73.132114627521588 -36.104575070097745 -5.9582824811315387 0 0 -1 I I #
straight-curve $-1 -73.132114627521588 -45.242726182621318 0 0 0 -1 I I #
point $-1 73.132114627521588 -45.242726182621318 -13.742510870559711 #
straight-curve $-1 0 45.242726182621318 13.742510870559711 -1 0 0 I I #
point $-1 67.215515898252605 45.242726182621311 13.742510870559713 #
straight-curve $-1 73.132114627521588 45.242726182621318 0 0 0 -1 I I #
point $-1 73.132114627521588 45.242726182621318 13.742510870559711 #
point $-1 66.107794161395404 40.673876246391536 6.6140857855784789 #
straight-curve $-1 -73.132114627521588 20.336938123195761 4.9707922549951675 0 -1 0 I I #
straight-curve $-1 -73.132114627521588 45.242726182621318 0 0 0 -1 I I #
straight-curve $-1 0 45.242726182621318 13.742510870559711 -1 0 0 I I #
point $-1 -73.132114627521588 45.242726182621311 4.9707922549951604 #
point $-1 -73.132114627521588 45.242726182621318 13.742510870559711 #
point $-1 -66.107794161395432 40.673876246391536 6.6140857855784576 #
straight-curve $-1 0 -45.242726182621318 -13.742510870559711 -1 0 0 I I #
point $-1 -73.132114627521588 -45.242726182621318 -13.742510870559711 #
End-of-ACIS-data 