500 0 7 0           
7 Unknown 11 ACIS 5.0 NT 24 Fri Mar 26 14:41:14 1999 
-1 9.9999999999999995e-007 1e-010 
body $-1 $7 $-1 $8 #
body $-1 $9 $-1 $10 #
body $-1 $11 $-1 $12 #
body $-1 $13 $-1 $14 #
body $-1 $15 $-1 $16 #
body $-1 $17 $-1 $18 #
body $-1 $19 $-1 $20 #
lump $-1 $-1 $21 $0 #
transform $-1 1 0 0 0 1 0 0 0 1 76.092410046693317 52.223168251413242 22.695809285274819 1 rotate no_reflect no_shear #
lump $-1 $-1 $22 $1 #
transform $-1 1 0 0 0 1 0 0 0 1 76.092410046693317 52.223168251413242 22.695809285274819 1 rotate no_reflect no_shear #
lump $-1 $-1 $23 $2 #
transform $-1 1 0 0 0 1 0 0 0 1 76.092410046693317 52.223168251413242 22.695809285274819 1 rotate no_reflect no_shear #
lump $-1 $-1 $24 $3 #
transform $-1 1 0 0 0 1 0 0 0 1 76.092410046693317 52.223168251413242 22.695809285274819 1 rotate no_reflect no_shear #
lump $-1 $-1 $25 $4 #
transform $-1 1 0 0 0 1 0 0 0 1 76.092410046693317 52.223168251413242 22.695809285274819 1 rotate no_reflect no_shear #
lump $-1 $-1 $26 $5 #
transform $-1 1 0 0 0 1 0 0 0 1 76.092410046693317 52.223168251413242 22.695809285274819 1 rotate no_reflect no_shear #
lump $-1 $-1 $27 $6 #
transform $-1 1 0 0 0 1 0 0 0 1 76.092410046693317 52.223168251413242 22.695809285274819 1 rotate no_reflect no_shear #
shell $-1 $-1 $-1 $28 $-1 $7 #
shell $-1 $-1 $-1 $29 $-1 $9 #
shell $-1 $-1 $-1 $30 $-1 $11 #
shell $-1 $-1 $-1 $31 $-1 $13 #
shell $-1 $-1 $-1 $32 $-1 $15 #
shell $-1 $-1 $-1 $33 $-1 $17 #
shell $-1 $-1 $-1 $34 $-1 $19 #
face $-1 $35 $36 $21 $-1 $37 forward single #
face $-1 $38 $39 $22 $-1 $40 forward single #
face $-1 $41 $42 $23 $-1 $43 reversed single #
face $-1 $44 $45 $24 $-1 $46 reversed single #
face $-1 $47 $48 $25 $-1 $49 forward single #
face $-1 $50 $51 $26 $-1 $52 forward single #
face $-1 $53 $54 $27 $-1 $55 forward single #
face $-1 $56 $57 $21 $-1 $58 reversed single #
loop $-1 $-1 $59 $28 #
plane-surface $-1 0 0 22.695809285274819 0 0 1 1 0 0 forward_v I I I I #
face $-1 $60 $61 $22 $-1 $62 reversed single #
loop $-1 $-1 $63 $29 #
plane-surface $-1 -76.092410046693317 0 0 1 0 0 0 0 -1 forward_v I I I I #
face $-1 $64 $65 $23 $-1 $66 reversed single #
loop $-1 $-1 $67 $30 #
plane-surface $-1 66.747474469730889 -49.943325045629308 0 0 1 0 0 0 1 forward_v I I I I #
face $-1 $68 $69 $24 $-1 $70 reversed single #
loop $-1 $-1 $71 $31 #
plane-surface $-1 -5.366656708219022 -150.04568619215445 128.6213043726753 -1 0 0 0 -0.64278761758704617 0.76604443648966558 forward_v I I I I #
face $-1 $72 $73 $25 $-1 $74 forward single #
loop $-1 $75 $76 $32 #
cone-surface $-1 -23.283470517051498 -45.086145750579249 16.429226969937734 0 0.64278761758704617 -0.76604443648966558 1 0 0 1 I I 0 1 1 forward I I I I #
face $-1 $77 $78 $26 $-1 $79 forward single #
loop $-1 $80 $81 $33 #
cone-surface $-1 -16.564665338739324 -45.086145750579249 16.429226969937734 0 0.64278761758704617 -0.76604443648966558 1 0 0 1 I I 0 1 1 forward I I I I #
face $-1 $82 $83 $27 $-1 $84 forward single #
loop $-1 $85 $86 $34 #
cone-surface $-1 -9.8458601604271507 -45.086145750579249 16.429226969937734 0 0.64278761758704617 -0.76604443648966558 1 0 0 1 I I 0 1 1 forward I I I I #
face $-1 $87 $88 $21 $-1 $89 reversed single #
loop $-1 $-1 $90 $35 #
plane-surface $-1 0 0 -22.695809285274819 0 0 1 1 0 0 forward_v I I I I #
coedge $-1 $91 $92 $93 $94 forward $36 $-1 #
face $-1 $95 $96 $22 $-1 $97 forward single #
loop $-1 $-1 $98 $38 #
plane-surface $-1 0 52.223168251413242 0 0 -1 0 0 0 -1 forward_v I I I I #
coedge $-1 $99 $100 $101 $102 forward $39 $-1 #
face $-1 $103 $104 $23 $-1 $105 reversed single #
loop $-1 $-1 $106 $41 #
plane-surface $-1 57.402538892768462 -44.452403444353145 0 1 0 0 0 0 -1 forward_v I I I I #
coedge $-1 $107 $108 $109 $110 forward $42 $-1 #
face $-1 $111 $112 $24 $-1 $113 reversed single #
loop $-1 $-1 $114 $44 #
plane-surface $-1 -16.564665338739317 -52.223168251413227 12.040969621955796 0 -0.64278761758704617 0.76604443648966558 1 0 0 forward_v I I I I #
coedge $-1 $115 $116 $117 $118 reversed $45 $-1 #
face $-1 $-1 $119 $25 $-1 $120 forward single #
loop $-1 $121 $122 $47 #
cone-surface $-1 -23.283470517051498 -43.976701031610645 15.107042268015334 0 0.64278761758704617 -0.76604443648966558 0.5 0 0 1 I I -0.70710678118654746 0.70710678118654746 0.5 forward I I I I #
loop $-1 $-1 $123 $32 #
coedge $-1 $76 $76 $124 $125 reversed $48 $-1 #
face $-1 $-1 $126 $26 $-1 $127 forward single #
loop $-1 $128 $129 $50 #
cone-surface $-1 -16.564665338739324 -43.976701031610645 15.107042268015334 0 0.64278761758704617 -0.76604443648966558 0.5 0 0 1 I I -0.70710678118654746 0.70710678118654746 0.5 forward I I I I #
loop $-1 $-1 $130 $33 #
coedge $-1 $81 $81 $131 $132 reversed $51 $-1 #
face $-1 $-1 $133 $27 $-1 $134 forward single #
loop $-1 $135 $136 $53 #
cone-surface $-1 -9.8458601604271507 -43.976701031610645 15.107042268015334 0 0.64278761758704617 -0.76604443648966558 0.5 0 0 1 I I -0.70710678118654746 0.70710678118654746 0.5 forward I I I I #
loop $-1 $-1 $137 $34 #
coedge $-1 $86 $86 $138 $139 reversed $54 $-1 #
face $-1 $140 $141 $21 $-1 $142 reversed single #
loop $-1 $-1 $143 $56 #
plane-surface $-1 0 -52.223168251413242 0 0 1 0 0 0 1 forward_v I I I I #
coedge $-1 $144 $145 $146 $147 forward $57 $-1 #
coedge $-1 $148 $59 $149 $150 forward $36 $-1 #
coedge $-1 $59 $148 $151 $152 forward $36 $-1 #
coedge $-1 $153 $154 $59 $94 reversed $155 $-1 #
edge $-1 $156 -52.223168251413242 $157 52.223168251413242 $93 $158 forward 7 unknown #
face $-1 $159 $160 $22 $-1 $161 reversed single #
loop $-1 $-1 $101 $60 #
plane-surface $-1 -90.36878543074323 0 22.195809285274823 0 0 1 1 0 0 forward_v I I I I #
coedge $-1 $162 $163 $100 $164 forward $61 $-1 #
coedge $-1 $165 $63 $166 $167 reversed $39 $-1 #
coedge $-1 $63 $165 $98 $164 reversed $39 $-1 #
coedge $-1 $168 $169 $63 $102 reversed $96 $-1 #
edge $-1 $170 -52.223168251413242 $171 52.223168251413242 $101 $172 forward 7 unknown #
face $-1 $173 $174 $23 $-1 $175 forward single #
loop $-1 $-1 $176 $64 #
plane-surface $-1 66.747474469730889 -38.961481843076982 0 0 -1 0 0 0 -1 forward_v I I I I #
coedge $-1 $177 $178 $179 $180 forward $65 $-1 #
coedge $-1 $181 $67 $182 $183 reversed $42 $-1 #
coedge $-1 $67 $181 $184 $185 reversed $42 $-1 #
coedge $-1 $178 $177 $67 $110 reversed $65 $-1 #
edge $-1 $186 -22.695809285274819 $187 22.695809285274819 $109 $188 forward 7 unknown #
face $-1 $189 $190 $24 $-1 $191 reversed single #
loop $-1 $-1 $192 $68 #
plane-surface $-1 -27.762673969259613 -150.04568619215445 128.6213043726753 1 0 0 0 0.64278761758704617 -0.76604443648966558 forward_v I I I I #
coedge $-1 $193 $194 $195 $196 reversed $69 $-1 #
coedge $-1 $116 $71 $197 $198 reversed $45 $-1 #
coedge $-1 $71 $115 $193 $199 reversed $45 $-1 #
coedge $-1 $195 $200 $71 $118 forward $201 $-1 #
edge $-1 $202 22.799674844663983 $203 35.497618025981815 $117 $204 forward 7 unknown #
loop $-1 $-1 $124 $72 #
plane-surface $-1 -16.564665338739317 -52.223168251413227 12.040969621955796 0 -0.64278761758704617 0.76604443648966558 1 0 0 forward_v I I I I #
loop $-1 $-1 $205 $47 #
coedge $-1 $122 $122 $123 $206 reversed $73 $-1 #
coedge $-1 $123 $123 $122 $206 forward $75 $-1 #
coedge $-1 $124 $124 $76 $125 forward $119 $-1 #
edge $-1 $207 2.2836403615650844e-015 $207 6.2831853071796031 $124 $208 forward 7 unknown #
loop $-1 $-1 $131 $77 #
plane-surface $-1 -16.564665338739317 -52.223168251413227 12.040969621955796 0 -0.64278761758704617 0.76604443648966558 1 0 0 forward_v I I I I #
loop $-1 $-1 $209 $50 #
coedge $-1 $129 $129 $130 $210 reversed $78 $-1 #
coedge $-1 $130 $130 $129 $210 forward $80 $-1 #
coedge $-1 $131 $131 $81 $132 forward $126 $-1 #
edge $-1 $211 2.2836403615650844e-015 $211 6.2831853071796031 $131 $212 forward 7 unknown #
loop $-1 $-1 $138 $82 #
plane-surface $-1 -16.564665338739317 -52.223168251413227 12.040969621955796 0 -0.64278761758704617 0.76604443648966558 1 0 0 forward_v I I I I #
loop $-1 $-1 $213 $53 #
coedge $-1 $136 $136 $137 $214 reversed $83 $-1 #
coedge $-1 $137 $137 $136 $214 forward $85 $-1 #
coedge $-1 $138 $138 $86 $139 forward $133 $-1 #
edge $-1 $215 2.2836403615650844e-015 $215 6.2831853071796031 $138 $216 forward 7 unknown #
face $-1 $217 $218 $21 $-1 $219 reversed single #
loop $-1 $-1 $220 $87 #
plane-surface $-1 -76.092410046693317 0 0 1 0 0 0 0 -1 forward_v I I I I #
coedge $-1 $221 $151 $220 $222 forward $88 $-1 #
coedge $-1 $223 $90 $221 $224 forward $57 $-1 #
coedge $-1 $90 $223 $225 $226 forward $57 $-1 #
coedge $-1 $154 $153 $90 $147 reversed $155 $-1 #
edge $-1 $227 -52.223168251413242 $228 52.223168251413242 $146 $229 forward 7 unknown #
coedge $-1 $92 $91 $230 $231 forward $36 $-1 #
coedge $-1 $232 $233 $91 $150 reversed $218 $-1 #
edge $-1 $157 -76.092410046693317 $234 76.092410046693317 $149 $235 forward 7 unknown #
coedge $-1 $143 $236 $92 $152 reversed $88 $-1 #
edge $-1 $237 -76.092410046693317 $156 76.092410046693317 $151 $238 forward 7 unknown #
coedge $-1 $146 $93 $236 $239 forward $155 $-1 #
coedge $-1 $93 $146 $232 $240 reversed $155 $-1 #
loop $-1 $-1 $153 $217 #
vertex $-1 $94 $241 #
vertex $-1 $94 $242 #
straight-curve $-1 76.092410046693317 0 22.695809285274819 0 1 0 I I #
face $-1 $243 $244 $22 $-1 $245 reversed single #
loop $-1 $-1 $246 $95 #
plane-surface $-1 -90.36878543074323 0 9.8067940454909994 0 0 1 1 0 0 forward_v I I I I #
coedge $-1 $247 $98 $248 $249 reversed $61 $-1 #
coedge $-1 $98 $247 $168 $250 reversed $61 $-1 #
edge $-1 $170 -22.195809285274823 $251 -9.8067940454909994 $98 $252 forward 7 unknown #
coedge $-1 $100 $99 $246 $253 forward $39 $-1 #
coedge $-1 $254 $255 $99 $167 forward $256 $-1 #
edge $-1 $257 9.8067940454909994 $171 22.195809285274823 $166 $258 forward 7 unknown #
coedge $-1 $259 $101 $163 $250 forward $96 $-1 #
coedge $-1 $101 $259 $254 $260 forward $96 $-1 #
vertex $-1 $164 $261 #
vertex $-1 $260 $262 #
straight-curve $-1 -76.092410046693317 0 22.195809285274823 0 -1 0 I I #
face $-1 $263 $264 $23 $-1 $265 reversed single #
loop $-1 $-1 $266 $103 #
plane-surface $-1 0 0 22.695809285274819 0 0 1 1 0 0 forward_v I I I I #
coedge $-1 $267 $268 $269 $270 reversed $104 $-1 #
coedge $-1 $109 $106 $271 $272 reversed $65 $-1 #
coedge $-1 $106 $109 $273 $274 reversed $65 $-1 #
coedge $-1 $268 $267 $106 $180 reversed $104 $-1 #
edge $-1 $275 -22.695809285274819 $276 22.695809285274819 $179 $277 forward 7 unknown #
coedge $-1 $108 $107 $278 $279 reversed $42 $-1 #
coedge $-1 $271 $280 $107 $183 forward $264 $-1 #
edge $-1 $281 -42.718672811827872 $187 -24.028801657903017 $182 $282 forward 7 unknown #
coedge $-1 $283 $273 $108 $185 forward $174 $-1 #
edge $-1 $186 24.028801657903017 $284 42.718672811827872 $184 $285 forward 7 unknown #
vertex $-1 $185 $286 #
vertex $-1 $183 $287 #
straight-curve $-1 57.402538892768462 -49.943325045629308 0 0 0 -1 I I #
face $-1 $-1 $201 $24 $-1 $288 forward single #
loop $-1 $-1 $289 $111 #
plane-surface $-1 0 -52.223168251413242 0 0 1 0 0 0 1 forward_v I I I I #
coedge $-1 $290 $291 $292 $293 reversed $112 $-1 #
coedge $-1 $294 $114 $116 $199 forward $69 $-1 #
coedge $-1 $114 $294 $290 $295 forward $69 $-1 #
coedge $-1 $292 $117 $114 $196 forward $201 $-1 #
edge $-1 $203 -2.9156759611506367 $296 19.480341299889954 $195 $297 forward 7 unknown #
coedge $-1 $298 $299 $115 $198 forward $190 $-1 #
edge $-1 $300 -52.269682564381867 $202 -41.614842901062829 $197 $301 forward 7 unknown #
edge $-1 $203 -16.575987731867201 $300 1.8878887457821222e-014 $116 $302 forward 7 unknown #
coedge $-1 $117 $292 $298 $303 forward $201 $-1 #
loop $-1 $-1 $292 $189 #
vertex $-1 $198 $304 #
vertex $-1 $118 $305 #
straight-curve $-1 -5.366656708219022 -75.022843096077224 22.695809285274819 0 1 0 I I #
coedge $-1 $205 $205 $-1 $306 reversed $121 $-1 #
edge $-1 $307 0 $307 6.2831853071796004 $122 $308 forward 7 unknown #
vertex $-1 $125 $309 #
ellipse-curve $-1 -23.283470517051498 -45.874196660754329 17.368389453615301 0 -0.64278761758704617 0.76604443648966558 1 0 0 1 I I #
coedge $-1 $209 $209 $-1 $310 reversed $128 $-1 #
edge $-1 $311 0 $311 6.2831853071796004 $129 $312 forward 7 unknown #
vertex $-1 $132 $313 #
ellipse-curve $-1 -16.564665338739324 -45.874196660754329 17.368389453615301 0 -0.64278761758704617 0.76604443648966558 1 0 0 1 I I #
coedge $-1 $213 $213 $-1 $314 reversed $135 $-1 #
edge $-1 $315 0 $315 6.2831853071796004 $136 $316 forward 7 unknown #
vertex $-1 $139 $317 #
ellipse-curve $-1 -9.8458601604271507 -45.874196660754329 17.368389453615301 0 -0.64278761758704617 0.76604443648966558 1 0 0 1 I I #
face $-1 $-1 $155 $21 $-1 $318 reversed single #
loop $-1 $-1 $232 $140 #
plane-surface $-1 0 52.223168251413242 0 0 -1 0 0 0 -1 forward_v I I I I #
coedge $-1 $230 $319 $143 $222 reversed $141 $-1 #
coedge $-1 $236 $143 $144 $224 reversed $88 $-1 #
edge $-1 $237 -22.695809285274819 $320 22.695809285274819 $220 $321 forward 7 unknown #
coedge $-1 $145 $144 $319 $322 forward $57 $-1 #
edge $-1 $228 -76.092410046693317 $320 76.092410046693317 $221 $323 forward 7 unknown #
coedge $-1 $233 $232 $145 $226 reversed $218 $-1 #
edge $-1 $324 -76.092410046693317 $227 76.092410046693317 $225 $325 forward 7 unknown #
vertex $-1 $147 $326 #
vertex $-1 $239 $327 #
straight-curve $-1 76.092410046693317 0 -22.695809285274819 0 -1 0 I I #
coedge $-1 $328 $220 $148 $231 reversed $141 $-1 #
edge $-1 $234 -52.223168251413242 $237 52.223168251413242 $230 $329 forward 7 unknown #
coedge $-1 $225 $149 $154 $240 forward $218 $-1 #
coedge $-1 $149 $225 $328 $330 reversed $218 $-1 #
vertex $-1 $150 $331 #
straight-curve $-1 0 52.223168251413242 22.695809285274819 -1 0 0 I I #
coedge $-1 $151 $221 $153 $239 reversed $88 $-1 #
vertex $-1 $231 $332 #
straight-curve $-1 0 -52.223168251413242 22.695809285274819 1 0 0 I I #
edge $-1 $156 -22.695809285274819 $228 22.695809285274819 $153 $333 forward 7 unknown #
edge $-1 $157 -22.695809285274819 $227 22.695809285274819 $154 $334 forward 7 unknown #
point $-1 76.092410046693317 -52.223168251413242 22.695809285274819 #
point $-1 76.092410046693317 52.223168251413242 22.695809285274819 #
face $-1 $-1 $256 $22 $-1 $335 reversed single #
loop $-1 $-1 $336 $159 #
plane-surface $-1 -104.64516081479314 0 16.001301665382911 1 0 0 0 0 -1 forward_v I I I I #
coedge $-1 $337 $248 $165 $253 reversed $160 $-1 #
coedge $-1 $163 $162 $336 $338 reversed $61 $-1 #
coedge $-1 $246 $339 $162 $249 forward $160 $-1 #
edge $-1 $340 -14.276375384049913 $251 14.276375384049913 $162 $341 forward 7 unknown #
edge $-1 $170 -14.276375384049913 $342 14.276375384049913 $163 $343 forward 7 unknown #
vertex $-1 $164 $344 #
straight-curve $-1 -76.092410046693317 52.223168251413242 0 0 0 -1 I I #
edge $-1 $257 -52.223168251413242 $251 52.223168251413242 $246 $345 forward 7 unknown #
coedge $-1 $346 $166 $169 $260 reversed $256 $-1 #
coedge $-1 $166 $346 $337 $347 reversed $256 $-1 #
loop $-1 $-1 $166 $243 #
vertex $-1 $167 $348 #
straight-curve $-1 -76.092410046693317 -52.223168251413242 0 0 0 1 I I #
coedge $-1 $169 $168 $349 $350 forward $96 $-1 #
edge $-1 $351 -14.276375384049913 $171 14.276375384049913 $254 $352 forward 7 unknown #
point $-1 -76.092410046693317 52.223168251413242 22.195809285274823 #
point $-1 -76.092410046693317 -52.223168251413242 22.195809285274823 #
face $-1 $-1 $353 $23 $-1 $354 reversed single #
loop $-1 $-1 $355 $173 #
plane-surface $-1 0 0 -22.695809285274819 0 0 1 1 0 0 forward_v I I I I #
coedge $-1 $273 $283 $268 $356 forward $174 $-1 #
coedge $-1 $179 $176 $355 $357 reversed $104 $-1 #
coedge $-1 $176 $179 $266 $356 reversed $104 $-1 #
coedge $-1 $358 $359 $176 $270 forward $353 $-1 #
edge $-1 $360 -22.695809285274819 $361 22.695809285274819 $269 $362 forward 7 unknown #
coedge $-1 $355 $182 $177 $272 forward $264 $-1 #
edge $-1 $187 -27.717123323452736 $276 -16.735280120900409 $271 $363 forward 7 unknown #
coedge $-1 $184 $266 $178 $274 forward $174 $-1 #
edge $-1 $275 16.735280120900409 $186 27.717123323452736 $273 $364 forward 7 unknown #
vertex $-1 $274 $365 #
vertex $-1 $272 $366 #
straight-curve $-1 57.402538892768462 -38.961481843076982 0 0 0 -1 I I #
coedge $-1 $359 $358 $181 $279 forward $353 $-1 #
edge $-1 $284 -22.695809285274819 $281 22.695809285274819 $278 $367 forward 7 unknown #
coedge $-1 $182 $355 $359 $368 forward $264 $-1 #
vertex $-1 $279 $369 #
straight-curve $-1 33.373737234865445 -49.943325045629308 -22.695809285274819 -1 0 0 I I #
coedge $-1 $266 $184 $358 $370 forward $174 $-1 #
vertex $-1 $370 $371 #
straight-curve $-1 33.373737234865445 -49.943325045629308 22.695809285274819 1 0 0 I I #
point $-1 57.402538892768462 -49.943325045629308 22.695809285274819 #
point $-1 57.402538892768462 -49.943325045629308 -22.695809285274819 #
plane-surface $-1 0 0 22.695809285274819 0 0 1 1 0 0 forward_v I I I I #
coedge $-1 $299 $298 $291 $372 forward $190 $-1 #
coedge $-1 $291 $192 $194 $295 reversed $112 $-1 #
coedge $-1 $192 $290 $289 $372 reversed $112 $-1 #
coedge $-1 $200 $195 $192 $293 forward $201 $-1 #
edge $-1 $296 -35.497618025981815 $373 -22.799674844663983 $292 $374 forward 7 unknown #
coedge $-1 $194 $193 $299 $375 reversed $69 $-1 #
edge $-1 $376 -1.8878887457821222e-014 $296 16.575987731867201 $290 $377 forward 7 unknown #
vertex $-1 $196 $378 #
straight-curve $-1 -8.2823326693696586 -39.525225070095409 22.695809285274819 -1 0 0 I I #
coedge $-1 $289 $197 $200 $303 reversed $190 $-1 #
coedge $-1 $197 $289 $294 $375 forward $190 $-1 #
vertex $-1 $198 $379 #
straight-curve $-1 -5.366656708219022 -52.223168251413242 64.310652186337649 0 0 1 I I #
straight-curve $-1 -5.366656708219022 -52.223168251413227 12.040969621955796 0 -0.76604443648966558 -0.64278761758704617 I I #
edge $-1 $373 -27.762673969259613 $202 -5.366656708219022 $298 $380 forward 7 unknown #
point $-1 -5.366656708219022 -52.223168251413242 22.695809285274819 #
point $-1 -5.366656708219022 -39.525225070095409 22.695809285274819 #
edge $-1 $381 1 $381 0 $205 $-1 forward 7 unknown #
vertex $-1 $206 $382 #
ellipse-curve $-1 -23.283470517051498 -44.298094840404168 15.490064486260167 0 -0.64278761758704617 0.76604443648966558 1 0 0 1 I I #
point $-1 -22.283470517051498 -45.874196660754329 17.368389453615304 #
edge $-1 $383 1 $383 0 $209 $-1 forward 7 unknown #
vertex $-1 $210 $384 #
ellipse-curve $-1 -16.564665338739324 -44.298094840404168 15.490064486260167 0 -0.64278761758704617 0.76604443648966558 1 0 0 1 I I #
point $-1 -15.564665338739324 -45.874196660754329 17.368389453615304 #
edge $-1 $385 1 $385 0 $213 $-1 forward 7 unknown #
vertex $-1 $214 $386 #
ellipse-curve $-1 -9.8458601604271507 -44.298094840404168 15.490064486260167 0 -0.64278761758704617 0.76604443648966558 1 0 0 1 I I #
point $-1 -8.8458601604271507 -45.874196660754329 17.368389453615304 #
plane-surface $-1 76.092410046693317 0 0 -1 0 0 0 0 1 forward_v I I I I #
coedge $-1 $220 $328 $223 $322 reversed $141 $-1 #
vertex $-1 $322 $387 #
straight-curve $-1 -76.092410046693317 -52.223168251413242 0 0 0 -1 I I #
edge $-1 $320 -52.223168251413242 $324 52.223168251413242 $319 $388 forward 7 unknown #
straight-curve $-1 0 -52.223168251413242 -22.695809285274819 -1 0 0 I I #
vertex $-1 $226 $389 #
straight-curve $-1 0 52.223168251413242 -22.695809285274819 1 0 0 I I #
point $-1 76.092410046693317 52.223168251413242 -22.695809285274819 #
point $-1 76.092410046693317 -52.223168251413242 -22.695809285274819 #
coedge $-1 $319 $230 $233 $330 forward $141 $-1 #
straight-curve $-1 -76.092410046693317 0 22.695809285274819 0 -1 0 I I #
edge $-1 $234 -22.695809285274819 $324 22.695809285274819 $233 $390 forward 7 unknown #
point $-1 -76.092410046693317 52.223168251413242 22.695809285274819 #
point $-1 -76.092410046693317 -52.223168251413242 22.695809285274819 #
straight-curve $-1 76.092410046693317 -52.223168251413242 0 0 0 -1 I I #
straight-curve $-1 76.092410046693317 52.223168251413242 0 0 0 -1 I I #
plane-surface $-1 0 -52.223168251413242 0 0 1 0 0 0 1 forward_v I I I I #
coedge $-1 $391 $349 $247 $338 forward $244 $-1 #
coedge $-1 $339 $246 $255 $347 forward $160 $-1 #
edge $-1 $342 -6.1945076198919118 $340 6.1945076198919118 $247 $392 forward 7 unknown #
coedge $-1 $248 $337 $391 $393 forward $160 $-1 #
vertex $-1 $249 $394 #
straight-curve $-1 -90.36878543074323 52.223168251413242 9.8067940454909994 1 0 0 I I #
vertex $-1 $250 $395 #
straight-curve $-1 -90.36878543074323 52.223168251413242 22.195809285274823 -1 0 0 I I #
point $-1 -76.092410046693317 52.223168251413242 9.8067940454909994 #
straight-curve $-1 -76.092410046693317 0 9.8067940454909994 0 1 0 I I #
coedge $-1 $255 $254 $396 $397 forward $256 $-1 #
edge $-1 $257 -14.276375384049913 $398 14.276375384049913 $255 $399 forward 7 unknown #
point $-1 -76.092410046693317 -52.223168251413242 9.8067940454909994 #
coedge $-1 $336 $396 $259 $350 reversed $244 $-1 #
edge $-1 $342 -52.223168251413242 $351 52.223168251413242 $349 $400 forward 7 unknown #
vertex $-1 $350 $401 #
straight-curve $-1 -90.36878543074323 -52.223168251413242 22.195809285274823 1 0 0 I I #
loop $-1 $-1 $269 $263 #
plane-surface $-1 76.092410046693317 0 0 -1 0 0 0 0 1 forward_v I I I I #
coedge $-1 $280 $271 $267 $357 forward $264 $-1 #
edge $-1 $361 -42.718672811827872 $275 -24.028801657903017 $266 $402 forward 7 unknown #
edge $-1 $276 24.028801657903017 $360 42.718672811827872 $355 $403 forward 7 unknown #
coedge $-1 $278 $269 $283 $370 reversed $353 $-1 #
coedge $-1 $269 $278 $280 $368 reversed $353 $-1 #
vertex $-1 $368 $404 #
vertex $-1 $270 $405 #
straight-curve $-1 76.092410046693317 -38.961481843076982 0 0 0 1 I I #
straight-curve $-1 57.402538892768462 -22.226201722176572 -22.695809285274819 0 1 0 I I #
straight-curve $-1 57.402538892768462 -22.226201722176572 22.695809285274819 0 -1 0 I I #
point $-1 57.402538892768462 -38.961481843076982 22.695809285274819 #
point $-1 57.402538892768462 -38.961481843076982 -22.695809285274819 #
straight-curve $-1 76.092410046693317 -49.943325045629308 0 0 0 -1 I I #
edge $-1 $360 38.961481843076982 $281 49.943325045629308 $359 $406 forward 7 unknown #
point $-1 76.092410046693317 -49.943325045629308 -22.695809285274819 #
edge $-1 $284 -49.943325045629308 $361 -38.961481843076982 $358 $407 forward 7 unknown #
point $-1 76.092410046693317 -49.943325045629308 22.695809285274819 #
edge $-1 $373 41.614842901062829 $376 52.269682564381867 $289 $408 forward 7 unknown #
vertex $-1 $303 $409 #
straight-curve $-1 -27.762673969259613 -75.022843096077224 22.695809285274819 0 -1 0 I I #
edge $-1 $376 -19.480341299889954 $300 2.9156759611506367 $299 $410 forward 7 unknown #
vertex $-1 $375 $411 #
straight-curve $-1 -27.762673969259613 -52.223168251413227 12.040969621955796 0 0.76604443648966558 0.64278761758704617 I I #
point $-1 -27.762673969259613 -39.525225070095409 22.695809285274819 #
point $-1 -5.366656708219022 -52.223168251413242 12.040969621955783 #
straight-curve $-1 0 -52.223168251413242 22.695809285274819 1 0 0 I I #
vertex $-1 $306 $412 #
point $-1 -22.283470517051498 -44.298094840404168 15.490064486260167 #
vertex $-1 $310 $413 #
point $-1 -15.564665338739324 -44.298094840404168 15.490064486260167 #
vertex $-1 $314 $414 #
point $-1 -8.8458601604271507 -44.298094840404168 15.490064486260167 #
point $-1 -76.092410046693317 -52.223168251413242 -22.695809285274819 #
straight-curve $-1 -76.092410046693317 0 -22.695809285274819 0 1 0 I I #
point $-1 -76.092410046693317 52.223168251413242 -22.695809285274819 #
straight-curve $-1 -76.092410046693317 52.223168251413242 0 0 0 -1 I I #
coedge $-1 $396 $336 $339 $393 reversed $244 $-1 #
straight-curve $-1 -104.64516081479314 52.223168251413242 16.001301665382911 0 0 -1 I I #
edge $-1 $398 -52.223168251413242 $340 52.223168251413242 $391 $415 forward 7 unknown #
point $-1 -104.64516081479314 52.223168251413242 9.8067940454909994 #
point $-1 -104.64516081479314 52.223168251413242 22.195809285274823 #
coedge $-1 $349 $391 $346 $397 reversed $244 $-1 #
edge $-1 $351 -6.1945076198919118 $398 6.1945076198919118 $396 $416 forward 7 unknown #
vertex $-1 $393 $417 #
straight-curve $-1 -90.36878543074323 -52.223168251413242 9.8067940454909994 -1 0 0 I I #
straight-curve $-1 -104.64516081479314 0 22.195809285274823 0 -1 0 I I #
point $-1 -104.64516081479314 -52.223168251413242 22.195809285274823 #
straight-curve $-1 33.373737234865445 -38.961481843076982 22.695809285274819 -1 0 0 I I #
straight-curve $-1 33.373737234865445 -38.961481843076982 -22.695809285274819 1 0 0 I I #
point $-1 76.092410046693317 -38.961481843076982 -22.695809285274819 #
point $-1 76.092410046693317 -38.961481843076982 22.695809285274819 #
straight-curve $-1 76.092410046693317 0 -22.695809285274819 0 -1 0 I I #
straight-curve $-1 76.092410046693317 0 22.695809285274819 0 1 0 I I #
straight-curve $-1 -27.762673969259613 -52.223168251413242 64.310652186337649 0 0 -1 I I #
point $-1 -27.762673969259613 -52.223168251413242 22.695809285274819 #
straight-curve $-1 -8.2823326693696586 -52.223168251413242 12.040969621955782 1 0 0 I I #
point $-1 -27.762673969259613 -52.223168251413242 12.040969621955783 #
point $-1 -23.283470517051498 -43.655307222817122 14.724020049770502 #
point $-1 -16.564665338739324 -43.655307222817122 14.724020049770502 #
point $-1 -9.8458601604271507 -43.655307222817122 14.724020049770502 #
straight-curve $-1 -104.64516081479314 0 9.8067940454909994 0 1 0 I I #
straight-curve $-1 -104.64516081479314 -52.223168251413242 16.001301665382911 0 0 -1 I I #
point $-1 -104.64516081479314 -52.223168251413242 9.8067940454909994 #
End-of-ACIS-data 