500 0 4 0           
7 Unknown 11 ACIS 5.0 NT 24 Thu Mar 25 15:30:25 1999 
-1 9.9999999999999995e-007 1e-010 
body $-1 $4 $-1 $5 #
body $-1 $6 $-1 $7 #
body $-1 $8 $-1 $9 #
body $-1 $10 $-1 $11 #
lump $-1 $-1 $12 $0 #
transform $-1 1 0 0 0 1 0 0 0 1 45.168614764854887 27.163751796329365 8.8727572092688742 1 rotate no_reflect no_shear #
lump $-1 $-1 $13 $1 #
transform $-1 1 0 0 0 1 0 0 0 1 45.168614764854887 27.163751796329365 8.8727572092688742 1 rotate no_reflect no_shear #
lump $-1 $-1 $14 $2 #
transform $-1 1 0 0 0 1 0 0 0 1 45.168614764854887 27.163751796329365 8.8727572092688742 1 rotate no_reflect no_shear #
lump $-1 $-1 $15 $3 #
transform $-1 1 0 0 0 1 0 0 0 1 45.168614764854887 27.163751796329365 8.8727572092688742 1 rotate no_reflect no_shear #
shell $-1 $-1 $-1 $16 $-1 $4 #
shell $-1 $-1 $-1 $17 $-1 $6 #
shell $-1 $-1 $-1 $18 $-1 $8 #
shell $-1 $-1 $-1 $19 $-1 $10 #
face $-1 $20 $21 $12 $-1 $22 forward single #
face $-1 $23 $24 $13 $-1 $25 reversed single #
face $-1 $26 $27 $14 $-1 $28 forward single #
face $-1 $29 $30 $15 $-1 $31 reversed single #
face $-1 $32 $33 $12 $-1 $34 reversed single #
loop $-1 $-1 $35 $16 #
plane-surface $-1 0 0 8.8727572092688742 0 0 1 1 0 0 forward_v I I I I #
face $-1 $36 $37 $13 $-1 $38 forward single #
loop $-1 $-1 $39 $17 #
plane-surface $-1 0 -22.328831586171869 -1.280843725374738 0 0 1 1 0 0 forward_v I I I I #
face $-1 $40 $41 $14 $-1 $42 forward single #
loop $-1 $-1 $43 $18 #
plane-surface $-1 51.85485584477842 17.344436519834314 131.01666739411249 0 1 0 0.74314483375859142 0 0.66913059716165679 forward_v I I I I #
face $-1 $44 $45 $15 $-1 $46 reversed single #
loop $-1 $47 $48 $19 #
cone-surface $-1 41.451762510147539 22.254094158081834 5.0115377253368925 -0.74314483375859142 0 -0.66913059716165679 0.66913059716165679 0 -0.74314483375859142 1 I I 0 1 1 forward I I I I #
face $-1 $49 $50 $12 $-1 $51 reversed single #
loop $-1 $-1 $52 $20 #
plane-surface $-1 0 0 -8.8727572092688742 0 0 1 1 0 0 forward_v I I I I #
coedge $-1 $53 $54 $55 $56 forward $21 $-1 #
face $-1 $57 $58 $13 $-1 $59 forward single #
loop $-1 $-1 $60 $23 #
plane-surface $-1 0 -22.328831586171869 -4.280843725374738 0 0 1 1 0 0 forward_v I I I I #
coedge $-1 $61 $62 $63 $64 reversed $24 $-1 #
face $-1 $65 $66 $14 $-1 $67 reversed single #
loop $-1 $-1 $68 $26 #
plane-surface $-1 -15.278789576289476 22.254094158081841 70.569263052968125 0.74314483375859142 0 0.66913059716165679 0.66913059716165679 0 -0.74314483375859142 forward_v I I I I #
coedge $-1 $69 $70 $71 $72 reversed $27 $-1 #
face $-1 $73 $74 $15 $-1 $75 forward single #
loop $-1 $76 $77 $29 #
cone-surface $-1 39.811149010075944 22.254094158081834 3.5343227315083912 -0.74314483375859142 0 -0.66913059716165679 0.3345652985808284 0 -0.37157241687929571 1 I I -0.70710678118654724 0.70710678118654791 0.5 forward I I I I #
loop $-1 $-1 $78 $19 #
coedge $-1 $48 $48 $79 $80 reversed $30 $-1 #
face $-1 $81 $82 $12 $-1 $83 reversed single #
loop $-1 $-1 $84 $32 #
plane-surface $-1 0 -27.163751796329365 0 0 1 0 0 0 1 forward_v I I I I #
coedge $-1 $85 $86 $87 $88 forward $33 $-1 #
coedge $-1 $89 $35 $90 $91 forward $21 $-1 #
coedge $-1 $35 $89 $92 $93 forward $21 $-1 #
coedge $-1 $94 $95 $35 $56 reversed $96 $-1 #
edge $-1 $97 -27.163751796329365 $98 27.163751796329365 $55 $99 forward 7 unknown #
face $-1 $100 $101 $13 $-1 $102 reversed single #
loop $-1 $-1 $103 $36 #
plane-surface $-1 0 -17.493911376014374 -2.780843725374738 0 -1 0 0 0 -1 forward_v I I I I #
coedge $-1 $104 $105 $106 $107 reversed $37 $-1 #
coedge $-1 $108 $39 $109 $110 reversed $24 $-1 #
coedge $-1 $39 $108 $111 $112 reversed $24 $-1 #
coedge $-1 $113 $114 $39 $64 forward $101 $-1 #
edge $-1 $115 -15.99933600324343 $116 -6.3294955829284394 $63 $117 forward 7 unknown #
face $-1 $118 $119 $14 $-1 $120 forward single #
loop $-1 $-1 $121 $40 #
plane-surface $-1 45.168614764854887 0 0 -1 0 0 0 0 1 forward_v I I I I #
coedge $-1 $122 $123 $121 $124 reversed $41 $-1 #
coedge $-1 $70 $43 $123 $125 forward $27 $-1 #
coedge $-1 $43 $69 $126 $127 reversed $27 $-1 #
coedge $-1 $128 $121 $43 $72 forward $66 $-1 #
edge $-1 $129 -62.072716065156015 $130 -56.635576487787368 $71 $131 forward 7 unknown #
face $-1 $132 $133 $15 $-1 $134 forward single #
loop $-1 $-1 $135 $44 #
plane-surface $-1 51.85485584477842 17.344436519834314 131.01666739411249 0 1 0 0.74314483375859142 0 0.66913059716165679 forward_v I I I I #
loop $-1 $-1 $136 $29 #
coedge $-1 $77 $77 $78 $137 forward $45 $-1 #
coedge $-1 $78 $78 $77 $137 reversed $47 $-1 #
coedge $-1 $79 $79 $48 $80 forward $133 $-1 #
edge $-1 $138 0 $138 6.2831853071796004 $79 $139 forward 7 unknown #
face $-1 $140 $141 $12 $-1 $142 reversed single #
loop $-1 $-1 $143 $49 #
plane-surface $-1 -45.168614764854887 0 0 1 0 0 0 0 -1 forward_v I I I I #
coedge $-1 $144 $92 $145 $146 forward $50 $-1 #
coedge $-1 $147 $52 $144 $148 forward $33 $-1 #
coedge $-1 $52 $147 $149 $150 forward $33 $-1 #
coedge $-1 $95 $94 $52 $88 reversed $96 $-1 #
edge $-1 $151 -27.163751796329365 $152 27.163751796329365 $87 $153 forward 7 unknown #
coedge $-1 $54 $53 $154 $155 forward $21 $-1 #
coedge $-1 $156 $157 $53 $91 reversed $141 $-1 #
edge $-1 $98 -45.168614764854887 $158 45.168614764854887 $90 $159 forward 7 unknown #
coedge $-1 $84 $160 $54 $93 reversed $50 $-1 #
edge $-1 $161 -45.168614764854887 $97 45.168614764854887 $92 $162 forward 7 unknown #
coedge $-1 $87 $55 $160 $163 forward $96 $-1 #
coedge $-1 $55 $87 $156 $164 reversed $96 $-1 #
loop $-1 $-1 $94 $140 #
vertex $-1 $56 $165 #
vertex $-1 $56 $166 #
straight-curve $-1 45.168614764854887 0 8.8727572092688742 0 1 0 I I #
face $-1 $167 $168 $13 $-1 $169 reversed single #
loop $-1 $-1 $63 $57 #
plane-surface $-1 45.168614764854887 0 0 -1 0 0 0 0 1 forward_v I I I I #
coedge $-1 $111 $170 $113 $171 reversed $58 $-1 #
coedge $-1 $172 $60 $170 $173 reversed $37 $-1 #
coedge $-1 $60 $172 $174 $175 reversed $37 $-1 #
coedge $-1 $176 $113 $60 $107 forward $101 $-1 #
edge $-1 $177 6.3294955829284394 $178 15.99933600324343 $106 $179 forward 7 unknown #
coedge $-1 $62 $61 $180 $181 reversed $24 $-1 #
coedge $-1 $182 $183 $61 $110 forward $184 $-1 #
edge $-1 $185 -45.168614764854887 $115 45.168614764854887 $109 $186 forward 7 unknown #
coedge $-1 $187 $103 $62 $112 forward $58 $-1 #
edge $-1 $116 -45.168614764854887 $188 45.168614764854887 $111 $189 forward 7 unknown #
coedge $-1 $106 $63 $103 $171 forward $101 $-1 #
coedge $-1 $63 $190 $182 $191 forward $101 $-1 #
vertex $-1 $110 $192 #
vertex $-1 $64 $193 #
straight-curve $-1 45.168614764854887 -11.164415793085935 -1.280843725374738 0 1 0 I I #
face $-1 $194 $195 $14 $-1 $196 reversed single #
loop $-1 $-1 $126 $65 #
plane-surface $-1 0 0 8.8727572092688742 0 0 1 1 0 0 forward_v I I I I #
coedge $-1 $71 $197 $68 $124 forward $66 $-1 #
coedge $-1 $198 $68 $199 $200 reversed $41 $-1 #
coedge $-1 $68 $198 $69 $125 reversed $41 $-1 #
edge $-1 $201 -16.036704717288448 $129 -6.2173894407933936 $121 $202 forward 7 unknown #
edge $-1 $129 -90.337229529709774 $203 -83.020836640494196 $69 $204 forward 7 unknown #
coedge $-1 $205 $206 $70 $127 forward $119 $-1 #
edge $-1 $130 -19.241186842465677 $203 -14.345564499435557 $126 $207 forward 7 unknown #
coedge $-1 $208 $71 $206 $209 reversed $66 $-1 #
vertex $-1 $124 $210 #
vertex $-1 $127 $211 #
straight-curve $-1 45.168614764854887 17.344436519834314 65.508333697056244 0 0 1 I I #
face $-1 $212 $213 $15 $-1 $214 reversed single #
loop $-1 $215 $79 $73 #
plane-surface $-1 -15.278789576289476 22.254094158081841 70.569263052968125 0.74314483375859142 0 0.66913059716165679 0.66913059716165679 0 -0.74314483375859142 forward_v I I I I #
coedge $-1 $216 $217 $218 $219 reversed $74 $-1 #
coedge $-1 $136 $136 $-1 $220 forward $76 $-1 #
edge $-1 $221 0 $221 6.2831853071796004 $77 $222 forward 7 unknown #
vertex $-1 $80 $223 #
ellipse-curve $-1 42.720803593339824 22.254094158081834 6.1541874205845568 -0.74314483375859142 0 -0.66913059716165679 0.66913059716165679 0 -0.74314483375859142 1 I I #
face $-1 $-1 $96 $12 $-1 $224 reversed single #
loop $-1 $-1 $156 $81 #
plane-surface $-1 0 27.163751796329365 0 0 -1 0 0 0 -1 forward_v I I I I #
coedge $-1 $225 $154 $157 $226 forward $82 $-1 #
coedge $-1 $160 $84 $85 $148 reversed $50 $-1 #
coedge $-1 $154 $225 $84 $146 reversed $82 $-1 #
edge $-1 $161 -8.8727572092688742 $227 8.8727572092688742 $145 $228 forward 7 unknown #
coedge $-1 $86 $85 $225 $229 forward $33 $-1 #
edge $-1 $152 -45.168614764854887 $227 45.168614764854887 $144 $230 forward 7 unknown #
coedge $-1 $157 $156 $86 $150 reversed $141 $-1 #
edge $-1 $231 -45.168614764854887 $151 45.168614764854887 $149 $232 forward 7 unknown #
vertex $-1 $88 $233 #
vertex $-1 $163 $234 #
straight-curve $-1 45.168614764854887 0 -8.8727572092688742 0 -1 0 I I #
coedge $-1 $143 $145 $89 $155 reversed $82 $-1 #
edge $-1 $158 -27.163751796329365 $161 27.163751796329365 $154 $235 forward 7 unknown #
coedge $-1 $149 $90 $95 $164 forward $141 $-1 #
coedge $-1 $90 $149 $143 $226 reversed $141 $-1 #
vertex $-1 $91 $236 #
straight-curve $-1 0 27.163751796329365 8.8727572092688742 -1 0 0 I I #
coedge $-1 $92 $144 $94 $163 reversed $50 $-1 #
vertex $-1 $155 $237 #
straight-curve $-1 0 -27.163751796329365 8.8727572092688742 1 0 0 I I #
edge $-1 $97 -8.8727572092688742 $152 8.8727572092688742 $94 $238 forward 7 unknown #
edge $-1 $98 -8.8727572092688742 $151 8.8727572092688742 $95 $239 forward 7 unknown #
point $-1 45.168614764854887 -27.163751796329365 8.8727572092688742 #
point $-1 45.168614764854887 27.163751796329365 8.8727572092688742 #
face $-1 $240 $241 $13 $-1 $242 forward single #
loop $-1 $-1 $174 $100 #
plane-surface $-1 0 -27.163751796329365 0 0 1 0 0 0 1 forward_v I I I I #
coedge $-1 $103 $187 $104 $173 forward $58 $-1 #
edge $-1 $116 -0.109578137312631 $177 2.890421862687369 $113 $243 forward 7 unknown #
coedge $-1 $105 $104 $244 $245 reversed $37 $-1 #
edge $-1 $246 -45.168614764854887 $177 45.168614764854887 $170 $247 forward 7 unknown #
coedge $-1 $248 $249 $105 $175 forward $168 $-1 #
edge $-1 $178 -45.168614764854887 $250 45.168614764854887 $174 $251 forward 7 unknown #
coedge $-1 $252 $106 $249 $253 forward $101 $-1 #
vertex $-1 $107 $254 #
vertex $-1 $253 $255 #
straight-curve $-1 45.168614764854887 -11.164415793085935 -4.280843725374738 0 -1 0 I I #
coedge $-1 $256 $257 $108 $181 forward $258 $-1 #
edge $-1 $188 6.3294955829284394 $185 15.99933600324343 $180 $259 forward 7 unknown #
coedge $-1 $260 $109 $114 $191 reversed $184 $-1 #
coedge $-1 $109 $260 $256 $261 forward $184 $-1 #
loop $-1 $-1 $109 $262 #
vertex $-1 $181 $263 #
straight-curve $-1 0 -27.163751796329365 -1.280843725374738 1 0 0 I I #
coedge $-1 $170 $111 $257 $264 reversed $58 $-1 #
vertex $-1 $181 $265 #
straight-curve $-1 0 -17.493911376014374 -1.280843725374738 -1 0 0 I I #
coedge $-1 $114 $266 $267 $268 reversed $101 $-1 #
edge $-1 $269 -8.8727572092688742 $115 1.280843725374738 $114 $270 forward 7 unknown #
point $-1 45.168614764854887 -27.163751796329365 -1.280843725374738 #
point $-1 45.168614764854887 -17.493911376014374 -1.280843725374738 #
face $-1 $271 $272 $14 $-1 $273 forward single #
loop $-1 $-1 $274 $118 #
plane-surface $-1 0 -22.328831586171869 -1.280843725374738 0 0 1 1 0 0 forward_v I I I I #
coedge $-1 $121 $275 $276 $277 reversed $66 $-1 #
coedge $-1 $123 $122 $205 $278 reversed $41 $-1 #
coedge $-1 $276 $279 $122 $200 forward $280 $-1 #
edge $-1 $281 51.687492213967104 $201 59.003885103182682 $199 $282 forward 7 unknown #
vertex $-1 $277 $283 #
straight-curve $-1 45.168614764854887 11.127047079040921 3.4356176319002429 0 -1 0 I I #
vertex $-1 $278 $284 #
straight-curve $-1 -15.278789576289476 17.344436519834314 70.569263052968125 -0.66913059716165679 0 0.74314483375859142 I I #
coedge $-1 $285 $126 $198 $278 forward $119 $-1 #
coedge $-1 $126 $286 $128 $209 forward $119 $-1 #
straight-curve $-1 25.92742792238921 17.344436519834314 8.872757209268876 -1 0 0 I I #
coedge $-1 $287 $128 $288 $289 forward $66 $-1 #
edge $-1 $290 -27.163751796329365 $130 17.344436519834314 $128 $291 forward 7 unknown #
point $-1 45.168614764854887 17.344436519834314 3.4356176319002287 #
point $-1 45.168614764854887 17.344436519834314 8.8727572092688742 #
face $-1 $292 $293 $15 $-1 $294 forward single #
loop $-1 $-1 $295 $132 #
plane-surface $-1 45.168614764854887 0 0 -1 0 0 0 0 1 forward_v I I I I #
loop $-1 $-1 $296 $73 #
coedge $-1 $217 $135 $297 $298 forward $74 $-1 #
coedge $-1 $135 $216 $299 $300 reversed $74 $-1 #
coedge $-1 $301 $295 $135 $219 forward $213 $-1 #
edge $-1 $302 -62.072716065156015 $303 -56.635576487787368 $218 $304 forward 7 unknown #
edge $-1 $305 1 $305 0 $136 $-1 forward 7 unknown #
vertex $-1 $137 $306 #
ellipse-curve $-1 40.18272142695524 22.254094158081834 3.8688880300892197 0.74314483375859142 0 0.66913059716165679 0.66913059716165679 0 -0.74314483375859142 1 I I #
point $-1 43.389934190501492 22.254094158081834 5.4110425868259737 #
plane-surface $-1 45.168614764854887 0 0 -1 0 0 0 0 1 forward_v I I I I #
coedge $-1 $145 $143 $147 $229 reversed $82 $-1 #
edge $-1 $158 -8.8727572092688742 $231 8.8727572092688742 $157 $307 forward 7 unknown #
vertex $-1 $229 $308 #
straight-curve $-1 -45.168614764854887 -27.163751796329365 0 0 0 -1 I I #
edge $-1 $227 -27.163751796329365 $231 27.163751796329365 $225 $309 forward 7 unknown #
straight-curve $-1 0 -27.163751796329365 -8.8727572092688742 -1 0 0 I I #
vertex $-1 $150 $310 #
straight-curve $-1 0 27.163751796329365 -8.8727572092688742 1 0 0 I I #
point $-1 45.168614764854887 27.163751796329365 -8.8727572092688742 #
point $-1 45.168614764854887 -27.163751796329365 -8.8727572092688742 #
straight-curve $-1 -45.168614764854887 0 8.8727572092688742 0 -1 0 I I #
point $-1 -45.168614764854887 27.163751796329365 8.8727572092688742 #
point $-1 -45.168614764854887 -27.163751796329365 8.8727572092688742 #
straight-curve $-1 45.168614764854887 -27.163751796329365 0 0 0 -1 I I #
straight-curve $-1 45.168614764854887 27.163751796329365 0 0 0 -1 I I #
face $-1 $262 $311 $13 $-1 $312 reversed single #
loop $-1 $-1 $267 $167 #
plane-surface $-1 0 0 8.8727572092688742 0 0 1 1 0 0 forward_v I I I I #
straight-curve $-1 45.168614764854887 -17.493911376014374 -1.390421862687369 0 0 -1 I I #
coedge $-1 $257 $313 $172 $245 forward $258 $-1 #
edge $-1 $250 -15.99933600324343 $246 -6.3294955829284394 $244 $314 forward 7 unknown #
vertex $-1 $245 $315 #
straight-curve $-1 0 -17.493911376014374 -4.280843725374738 1 0 0 I I #
coedge $-1 $316 $174 $313 $317 forward $168 $-1 #
coedge $-1 $174 $316 $176 $253 reversed $168 $-1 #
vertex $-1 $317 $318 #
straight-curve $-1 0 -27.163751796329365 -4.280843725374738 -1 0 0 I I #
coedge $-1 $266 $176 $319 $320 reversed $101 $-1 #
edge $-1 $178 4.280843725374738 $321 8.8727572092688742 $176 $270 forward 7 unknown #
point $-1 45.168614764854887 -17.493911376014374 -4.280843725374738 #
point $-1 45.168614764854887 -27.163751796329365 -4.280843725374738 #
coedge $-1 $322 $180 $183 $261 reversed $258 $-1 #
coedge $-1 $180 $244 $187 $264 forward $258 $-1 #
loop $-1 $-1 $180 $323 #
straight-curve $-1 -45.168614764854887 -11.164415793085935 -1.280843725374738 0 -1 0 I I #
coedge $-1 $183 $182 $324 $325 reversed $184 $-1 #
edge $-1 $326 -8.8727572092688742 $185 1.280843725374738 $256 $327 forward 7 unknown #
face $-1 $323 $184 $13 $-1 $169 reversed single #
point $-1 -45.168614764854887 -27.163751796329365 -1.280843725374738 #
edge $-1 $246 -2.890421862687369 $188 0.109578137312631 $257 $328 forward 7 unknown #
point $-1 -45.168614764854887 -17.493911376014374 -1.280843725374738 #
coedge $-1 $190 $252 $329 $330 reversed $101 $-1 #
coedge $-1 $331 $324 $190 $268 forward $241 $-1 #
edge $-1 $269 -27.163751796329365 $332 27.163751796329365 $190 $333 forward 7 unknown #
vertex $-1 $268 $334 #
straight-curve $-1 45.168614764854887 -27.163751796329365 0 0 0 -1 I I #
face $-1 $335 $336 $14 $-1 $337 forward single #
loop $-1 $-1 $338 $194 #
plane-surface $-1 0 -22.328831586171869 -4.280843725374738 0 0 1 1 0 0 forward_v I I I I #
coedge $-1 $339 $340 $287 $341 reversed $195 $-1 #
coedge $-1 $197 $342 $343 $344 reversed $66 $-1 #
coedge $-1 $345 $199 $197 $277 forward $280 $-1 #
edge $-1 $201 -3.4356176319002287 $346 8.8727572092688742 $197 $347 forward 7 unknown #
edge $-1 $203 6.2173894407933936 $281 16.036704717288448 $205 $348 forward 7 unknown #
coedge $-1 $199 $349 $285 $350 reversed $280 $-1 #
loop $-1 $-1 $199 $351 #
vertex $-1 $350 $352 #
straight-curve $-1 5.6873098909044675 27.163751796329365 47.284050018015961 0.66913059716165679 0 -0.74314483375859142 I I #
point $-1 45.168614764854887 27.163751796329368 3.4356176319002287 #
point $-1 40.272992421824767 17.344436519834314 8.8727572092688831 #
coedge $-1 $353 $205 $279 $350 forward $119 $-1 #
coedge $-1 $206 $353 $354 $355 forward $119 $-1 #
coedge $-1 $356 $208 $274 $341 forward $66 $-1 #
coedge $-1 $354 $357 $208 $289 reversed $358 $-1 #
edge $-1 $290 -8.8727572092688742 $359 1.280843725374738 $208 $360 forward 7 unknown #
vertex $-1 $209 $361 #
straight-curve $-1 45.168614764854887 0 8.8727572092688742 0 1 0 I I #
face $-1 $362 $363 $15 $-1 $364 reversed single #
loop $-1 $-1 $299 $212 #
plane-surface $-1 0 0 8.8727572092688742 0 0 1 1 0 0 forward_v I I I I #
coedge $-1 $218 $365 $296 $366 forward $213 $-1 #
coedge $-1 $367 $297 $295 $366 reversed $215 $-1 #
coedge $-1 $296 $368 $216 $298 reversed $215 $-1 #
edge $-1 $302 -90.337229529709774 $369 -83.020836640494196 $216 $370 forward 7 unknown #
coedge $-1 $371 $372 $217 $300 forward $293 $-1 #
edge $-1 $303 -19.241186842465677 $369 -14.345564499435557 $299 $373 forward 7 unknown #
coedge $-1 $374 $218 $372 $375 reversed $213 $-1 #
vertex $-1 $366 $376 #
vertex $-1 $300 $377 #
straight-curve $-1 45.168614764854887 17.344436519834314 65.508333697056244 0 0 1 I I #
vertex $-1 $220 $378 #
point $-1 40.851852024116894 22.254094158081834 3.1257431963306286 #
straight-curve $-1 -45.168614764854887 27.163751796329365 0 0 0 -1 I I #
point $-1 -45.168614764854887 -27.163751796329365 -8.8727572092688742 #
straight-curve $-1 -45.168614764854887 0 -8.8727572092688742 0 1 0 I I #
point $-1 -45.168614764854887 27.163751796329365 -8.8727572092688742 #
loop $-1 $-1 $319 $240 #
plane-surface $-1 0 0 -8.8727572092688742 0 0 1 1 0 0 forward_v I I I I #
coedge $-1 $244 $379 $248 $317 reversed $258 $-1 #
straight-curve $-1 -45.168614764854887 -11.164415793085935 -4.280843725374738 0 1 0 I I #
point $-1 -45.168614764854887 -17.493911376014374 -4.280843725374738 #
coedge $-1 $249 $248 $380 $381 reversed $168 $-1 #
edge $-1 $250 4.280843725374738 $382 8.8727572092688742 $313 $327 forward 7 unknown #
point $-1 -45.168614764854887 -27.163751796329365 -4.280843725374738 #
coedge $-1 $380 $383 $252 $320 forward $311 $-1 #
edge $-1 $384 -27.163751796329365 $321 27.163751796329365 $252 $385 forward 7 unknown #
vertex $-1 $253 $386 #
coedge $-1 $387 $256 $388 $389 reversed $258 $-1 #
face $-1 $390 $258 $13 $-1 $391 reversed single #
coedge $-1 $267 $388 $260 $325 forward $241 $-1 #
edge $-1 $326 -45.168614764854887 $269 45.168614764854887 $260 $392 forward 7 unknown #
vertex $-1 $389 $393 #
straight-curve $-1 -45.168614764854887 -27.163751796329365 0 0 0 -1 I I #
straight-curve $-1 -45.168614764854887 -17.493911376014374 -1.390421862687369 0 0 1 I I #
coedge $-1 $394 $395 $266 $330 forward $396 $-1 #
edge $-1 $332 -8.8727572092688742 $384 8.8727572092688742 $266 $397 forward 7 unknown #
coedge $-1 $388 $267 $395 $398 forward $241 $-1 #
vertex $-1 $268 $399 #
straight-curve $-1 45.168614764854887 0 8.8727572092688742 0 1 0 I I #
point $-1 45.168614764854887 -27.163751796329365 8.8727572092688742 #
face $-1 $400 $401 $14 $-1 $402 reversed single #
loop $-1 $-1 $403 $271 #
plane-surface $-1 0 -17.493911376014374 -2.780843725374738 0 -1 0 0 0 -1 forward_v I I I I #
coedge $-1 $404 $405 $406 $407 reversed $272 $-1 #
coedge $-1 $408 $274 $357 $409 reversed $195 $-1 #
coedge $-1 $274 $408 $410 $411 reversed $195 $-1 #
edge $-1 $359 -15.99933600324343 $412 -6.3294955829284394 $287 $413 forward 7 unknown #
coedge $-1 $275 $406 $414 $415 forward $66 $-1 #
coedge $-1 $416 $417 $275 $344 forward $418 $-1 #
edge $-1 $346 -27.163751796329365 $419 27.163751796329365 $275 $420 forward 7 unknown #
coedge $-1 $349 $276 $417 $421 reversed $280 $-1 #
vertex $-1 $344 $422 #
straight-curve $-1 45.168614764854887 27.163751796329365 0 0 0 -1 I I #
straight-curve $-1 40.272992421824775 11.127047079040921 8.872757209268876 0 1 0 I I #
coedge $-1 $279 $345 $423 $424 reversed $280 $-1 #
edge $-1 $281 -40.272992421824767 $425 45.168614764854887 $279 $426 forward 7 unknown #
face $-1 $-1 $280 $14 $-1 $427 reversed single #
point $-1 40.272992421824767 27.163751796329368 8.8727572092688831 #
coedge $-1 $286 $285 $428 $429 forward $119 $-1 #
coedge $-1 $430 $288 $286 $355 reversed $358 $-1 #
edge $-1 $431 -45.168614764854887 $290 45.168614764854887 $354 $432 forward 7 unknown #
coedge $-1 $406 $287 $403 $433 forward $66 $-1 #
coedge $-1 $288 $430 $339 $409 forward $358 $-1 #
loop $-1 $-1 $357 $434 #
vertex $-1 $409 $435 #
straight-curve $-1 45.168614764854887 -27.163751796329365 0 0 0 -1 I I #
point $-1 45.168614764854887 -27.163751796329365 8.8727572092688742 #
face $-1 $436 $437 $15 $-1 $438 forward single #
loop $-1 $-1 $439 $292 #
plane-surface $-1 0 -22.328831586171869 -1.280843725374738 0 0 1 1 0 0 forward_v I I I I #
coedge $-1 $295 $440 $441 $442 reversed $213 $-1 #
edge $-1 $443 -16.036704717288448 $302 -6.2173894407933936 $295 $444 forward 7 unknown #
coedge $-1 $368 $296 $445 $446 reversed $215 $-1 #
coedge $-1 $297 $367 $371 $447 reversed $215 $-1 #
vertex $-1 $447 $448 #
straight-curve $-1 -15.278789576289476 17.344436519834314 70.569263052968125 -0.66913059716165679 0 0.74314483375859142 I I #
coedge $-1 $449 $299 $368 $447 forward $293 $-1 #
coedge $-1 $299 $450 $301 $375 forward $293 $-1 #
straight-curve $-1 25.92742792238921 17.344436519834314 8.872757209268876 -1 0 0 I I #
coedge $-1 $451 $301 $452 $453 forward $213 $-1 #
edge $-1 $454 -27.163751796329365 $303 17.344436519834314 $301 $455 forward 7 unknown #
point $-1 45.168614764854887 17.344436519834314 3.4356176319002287 #
point $-1 45.168614764854887 17.344436519834314 8.8727572092688742 #
point $-1 39.439576593196648 22.254094158081834 3.1997574329275627 #
coedge $-1 $313 $387 $456 $457 reversed $258 $-1 #
coedge $-1 $456 $319 $316 $381 forward $311 $-1 #
edge $-1 $321 -45.168614764854887 $382 45.168614764854887 $316 $458 forward 7 unknown #
vertex $-1 $457 $459 #
coedge $-1 $319 $456 $394 $460 forward $311 $-1 #
vertex $-1 $320 $461 #
straight-curve $-1 45.168614764854887 0 -8.8727572092688742 0 -1 0 I I #
point $-1 45.168614764854887 -27.163751796329365 -8.8727572092688742 #
coedge $-1 $379 $322 $462 $463 forward $258 $-1 #
coedge $-1 $324 $331 $322 $389 forward $241 $-1 #
edge $-1 $464 -27.163751796329365 $326 27.163751796329365 $322 $465 forward 7 unknown #
face $-1 $-1 $396 $13 $-1 $466 reversed single #
plane-surface $-1 -45.168614764854887 0 0 1 0 0 0 0 -1 forward_v I I I I #
straight-curve $-1 0 -27.163751796329365 8.8727572092688742 1 0 0 I I #
point $-1 -45.168614764854887 -27.163751796329365 8.8727572092688742 #
coedge $-1 $462 $329 $383 $460 reversed $396 $-1 #
coedge $-1 $329 $462 $331 $398 reversed $396 $-1 #
loop $-1 $-1 $329 $390 #
straight-curve $-1 45.168614764854887 27.163751796329365 0 0 0 -1 I I #
edge $-1 $332 -45.168614764854887 $464 45.168614764854887 $395 $467 forward 7 unknown #
point $-1 45.168614764854887 27.163751796329365 8.8727572092688742 #
face $-1 $434 $418 $14 $-1 $468 reversed single #
loop $-1 $-1 $469 $335 #
plane-surface $-1 0 -27.163751796329365 0 0 1 0 0 0 1 forward_v I I I I #
coedge $-1 $410 $470 $356 $433 reversed $336 $-1 #
coedge $-1 $471 $338 $470 $472 reversed $272 $-1 #
coedge $-1 $338 $471 $469 $473 reversed $272 $-1 #
coedge $-1 $342 $356 $338 $407 forward $66 $-1 #
edge $-1 $474 6.3294955829284394 $475 15.99933600324343 $406 $476 forward 7 unknown #
coedge $-1 $340 $339 $477 $478 reversed $195 $-1 #
edge $-1 $479 -45.168614764854887 $359 45.168614764854887 $357 $480 forward 7 unknown #
coedge $-1 $481 $403 $340 $411 forward $336 $-1 #
edge $-1 $412 -45.168614764854887 $482 45.168614764854887 $410 $483 forward 7 unknown #
vertex $-1 $341 $484 #
straight-curve $-1 45.168614764854887 -11.164415793085935 -1.280843725374738 0 1 0 I I #
coedge $-1 $469 $485 $342 $415 reversed $401 $-1 #
edge $-1 $475 4.280843725374738 $419 8.8727572092688742 $342 $360 forward 7 unknown #
coedge $-1 $486 $343 $485 $487 forward $418 $-1 #
coedge $-1 $343 $486 $345 $421 forward $418 $-1 #
loop $-1 $-1 $343 $400 #
vertex $-1 $415 $488 #
straight-curve $-1 45.168614764854887 0 -8.8727572092688742 0 -1 0 I I #
edge $-1 $489 -45.168614764854887 $346 45.168614764854887 $345 $490 forward 7 unknown #
point $-1 45.168614764854887 27.163751796329365 -8.8727572092688742 #
coedge $-1 $491 $428 $349 $424 forward $492 $-1 #
edge $-1 $425 -8.8727572092688742 $489 8.8727572092688742 $349 $493 forward 7 unknown #
vertex $-1 $350 $494 #
straight-curve $-1 0 27.163751796329365 8.8727572092688742 -1 0 0 I I #
plane-surface $-1 0 27.163751796329365 0 0 -1 0 0 0 -1 forward_v I I I I #
coedge $-1 $423 $495 $353 $429 reversed $492 $-1 #
edge $-1 $425 -27.163751796329365 $431 27.163751796329365 $428 $496 forward 7 unknown #
coedge $-1 $357 $354 $495 $497 forward $358 $-1 #
vertex $-1 $429 $498 #
straight-curve $-1 0 -27.163751796329365 8.8727572092688742 1 0 0 I I #
edge $-1 $412 -0.109578137312631 $474 2.890421862687369 $356 $499 forward 7 unknown #
face $-1 $500 $358 $14 $-1 $402 reversed single #
point $-1 45.168614764854887 -27.163751796329365 -1.280843725374738 #
face $-1 $501 $502 $15 $-1 $503 forward single #
loop $-1 $-1 $504 $362 #
plane-surface $-1 0 -22.328831586171869 -4.280843725374738 0 0 1 1 0 0 forward_v I I I I #
coedge $-1 $505 $506 $451 $507 reversed $363 $-1 #
coedge $-1 $365 $508 $509 $510 reversed $213 $-1 #
coedge $-1 $511 $445 $365 $442 forward $512 $-1 #
edge $-1 $443 -3.4356176319002287 $513 8.8727572092688742 $365 $514 forward 7 unknown #
vertex $-1 $442 $515 #
straight-curve $-1 45.168614764854887 11.127047079040921 3.4356176319002429 0 -1 0 I I #
coedge $-1 $441 $516 $367 $446 forward $512 $-1 #
edge $-1 $517 51.687492213967104 $443 59.003885103182682 $445 $518 forward 7 unknown #
edge $-1 $369 6.2173894407933936 $517 16.036704717288448 $371 $519 forward 7 unknown #
point $-1 40.272992421824767 17.344436519834314 8.8727572092688831 #
coedge $-1 $520 $371 $516 $521 forward $293 $-1 #
coedge $-1 $372 $520 $522 $523 forward $293 $-1 #
coedge $-1 $524 $374 $439 $507 forward $213 $-1 #
coedge $-1 $522 $525 $374 $453 reversed $526 $-1 #
edge $-1 $454 -8.8727572092688742 $527 1.280843725374738 $374 $528 forward 7 unknown #
vertex $-1 $375 $529 #
straight-curve $-1 45.168614764854887 0 8.8727572092688742 0 1 0 I I #
coedge $-1 $383 $380 $379 $457 forward $311 $-1 #
edge $-1 $382 -27.163751796329365 $530 27.163751796329365 $379 $531 forward 7 unknown #
straight-curve $-1 0 -27.163751796329365 -8.8727572092688742 -1 0 0 I I #
point $-1 -45.168614764854887 -27.163751796329365 -8.8727572092688742 #
edge $-1 $530 -45.168614764854887 $384 45.168614764854887 $394 $532 forward 7 unknown #
point $-1 45.168614764854887 27.163751796329365 -8.8727572092688742 #
coedge $-1 $395 $394 $387 $463 reversed $396 $-1 #
edge $-1 $464 -8.8727572092688742 $530 8.8727572092688742 $462 $533 forward 7 unknown #
vertex $-1 $398 $534 #
straight-curve $-1 -45.168614764854887 0 8.8727572092688742 0 -1 0 I I #
plane-surface $-1 0 27.163751796329365 0 0 -1 0 0 0 -1 forward_v I I I I #
straight-curve $-1 0 27.163751796329365 8.8727572092688742 -1 0 0 I I #
plane-surface $-1 0 0 -8.8727572092688742 0 0 1 1 0 0 forward_v I I I I #
coedge $-1 $535 $414 $405 $473 forward $401 $-1 #
coedge $-1 $403 $481 $404 $472 forward $336 $-1 #
coedge $-1 $405 $404 $536 $537 reversed $272 $-1 #
edge $-1 $538 -45.168614764854887 $474 45.168614764854887 $470 $539 forward 7 unknown #
edge $-1 $475 -45.168614764854887 $540 45.168614764854887 $469 $541 forward 7 unknown #
vertex $-1 $407 $542 #
vertex $-1 $415 $543 #
straight-curve $-1 45.168614764854887 -11.164415793085935 -4.280843725374738 0 -1 0 I I #
coedge $-1 $495 $544 $408 $478 forward $492 $-1 #
edge $-1 $482 6.3294955829284394 $479 15.99933600324343 $477 $545 forward 7 unknown #
vertex $-1 $478 $546 #
straight-curve $-1 0 -27.163751796329365 -1.280843725374738 1 0 0 I I #
coedge $-1 $470 $410 $544 $547 reversed $336 $-1 #
vertex $-1 $478 $548 #
straight-curve $-1 0 -17.493911376014374 -1.280843725374738 -1 0 0 I I #
point $-1 45.168614764854887 -17.493911376014374 -1.280843725374738 #
coedge $-1 $414 $535 $416 $487 reversed $401 $-1 #
coedge $-1 $417 $416 $491 $549 forward $418 $-1 #
edge $-1 $419 -45.168614764854887 $550 45.168614764854887 $485 $551 forward 7 unknown #
point $-1 45.168614764854887 -27.163751796329365 -8.8727572092688742 #
vertex $-1 $421 $552 #
straight-curve $-1 0 27.163751796329365 -8.8727572092688742 1 0 0 I I #
coedge $-1 $553 $423 $486 $549 reversed $492 $-1 #
loop $-1 $-1 $477 $500 #
straight-curve $-1 -45.168614764854887 27.163751796329365 0 0 0 -1 I I #
point $-1 -45.168614764854887 27.163751796329365 8.8727572092688742 #
coedge $-1 $428 $477 $430 $497 reversed $492 $-1 #
straight-curve $-1 -45.168614764854887 0 8.8727572092688742 0 -1 0 I I #
edge $-1 $431 -8.8727572092688742 $479 1.280843725374738 $495 $554 forward 7 unknown #
point $-1 -45.168614764854887 -27.163751796329365 8.8727572092688742 #
straight-curve $-1 45.168614764854887 -17.493911376014374 -1.390421862687369 0 0 -1 I I #
face $-1 $351 $492 $14 $-1 $555 reversed single #
face $-1 $556 $557 $15 $-1 $558 reversed single #
loop $-1 $-1 $559 $436 #
plane-surface $-1 0 -17.493911376014374 -2.780843725374738 0 -1 0 0 0 -1 forward_v I I I I #
coedge $-1 $560 $561 $562 $563 reversed $437 $-1 #
coedge $-1 $564 $439 $525 $565 reversed $363 $-1 #
coedge $-1 $439 $564 $566 $567 reversed $363 $-1 #
edge $-1 $527 -15.99933600324343 $568 -6.3294955829284394 $451 $569 forward 7 unknown #
coedge $-1 $440 $562 $570 $571 forward $213 $-1 #
coedge $-1 $572 $573 $440 $510 forward $574 $-1 #
edge $-1 $513 -27.163751796329365 $575 27.163751796329365 $440 $576 forward 7 unknown #
coedge $-1 $577 $441 $573 $578 reversed $512 $-1 #
loop $-1 $-1 $445 $579 #
vertex $-1 $510 $580 #
straight-curve $-1 45.168614764854887 27.163751796329365 0 0 0 -1 I I #
point $-1 45.168614764854887 27.163751796329368 3.4356176319002287 #
coedge $-1 $445 $577 $449 $521 reversed $512 $-1 #
vertex $-1 $521 $581 #
straight-curve $-1 5.6873098909044675 27.163751796329365 47.284050018015961 0.66913059716165679 0 -0.74314483375859142 I I #
straight-curve $-1 40.272992421824775 11.127047079040921 8.872757209268876 0 1 0 I I #
coedge $-1 $450 $449 $582 $583 forward $293 $-1 #
edge $-1 $517 -40.272992421824767 $584 45.168614764854887 $516 $585 forward 7 unknown #
coedge $-1 $586 $452 $450 $523 reversed $526 $-1 #
edge $-1 $587 -45.168614764854887 $454 45.168614764854887 $522 $588 forward 7 unknown #
coedge $-1 $562 $451 $559 $589 forward $213 $-1 #
coedge $-1 $452 $586 $505 $565 forward $526 $-1 #
loop $-1 $-1 $525 $590 #
vertex $-1 $565 $591 #
straight-curve $-1 45.168614764854887 -27.163751796329365 0 0 0 -1 I I #
point $-1 45.168614764854887 -27.163751796329365 8.8727572092688742 #
vertex $-1 $460 $592 #
straight-curve $-1 -45.168614764854887 0 -8.8727572092688742 0 1 0 I I #
straight-curve $-1 0 27.163751796329365 -8.8727572092688742 1 0 0 I I #
straight-curve $-1 -45.168614764854887 27.163751796329365 0 0 0 -1 I I #
point $-1 -45.168614764854887 27.163751796329365 8.8727572092688742 #
coedge $-1 $485 $469 $553 $593 forward $401 $-1 #
coedge $-1 $544 $553 $471 $537 forward $492 $-1 #
edge $-1 $540 -15.99933600324343 $538 -6.3294955829284394 $536 $594 forward 7 unknown #
vertex $-1 $537 $595 #
straight-curve $-1 0 -17.493911376014374 -4.280843725374738 1 0 0 I I #
vertex $-1 $593 $596 #
straight-curve $-1 0 -27.163751796329365 -4.280843725374738 -1 0 0 I I #
point $-1 45.168614764854887 -17.493911376014374 -4.280843725374738 #
point $-1 45.168614764854887 -27.163751796329365 -4.280843725374738 #
coedge $-1 $477 $536 $481 $547 forward $492 $-1 #
straight-curve $-1 -45.168614764854887 -11.164415793085935 -1.280843725374738 0 -1 0 I I #
point $-1 -45.168614764854887 -27.163751796329365 -1.280843725374738 #
edge $-1 $538 -2.890421862687369 $482 0.109578137312631 $544 $597 forward 7 unknown #
point $-1 -45.168614764854887 -17.493911376014374 -1.280843725374738 #
edge $-1 $550 -27.163751796329365 $489 27.163751796329365 $491 $598 forward 7 unknown #
vertex $-1 $549 $599 #
straight-curve $-1 0 -27.163751796329365 -8.8727572092688742 -1 0 0 I I #
point $-1 -45.168614764854887 27.163751796329365 -8.8727572092688742 #
coedge $-1 $536 $491 $535 $593 reversed $492 $-1 #
straight-curve $-1 -45.168614764854887 -27.163751796329365 0 0 0 -1 I I #
plane-surface $-1 -45.168614764854887 0 0 1 0 0 0 0 -1 forward_v I I I I #
face $-1 $590 $574 $15 $-1 $600 reversed single #
loop $-1 $-1 $601 $501 #
plane-surface $-1 0 -27.163751796329365 0 0 1 0 0 0 1 forward_v I I I I #
coedge $-1 $566 $602 $524 $589 reversed $502 $-1 #
coedge $-1 $603 $504 $602 $604 reversed $437 $-1 #
coedge $-1 $504 $603 $601 $605 reversed $437 $-1 #
coedge $-1 $508 $524 $504 $563 forward $213 $-1 #
edge $-1 $606 6.3294955829284394 $607 15.99933600324343 $562 $608 forward 7 unknown #
coedge $-1 $506 $505 $609 $610 reversed $363 $-1 #
edge $-1 $611 -45.168614764854887 $527 45.168614764854887 $525 $612 forward 7 unknown #
coedge $-1 $613 $559 $506 $567 forward $502 $-1 #
edge $-1 $568 -45.168614764854887 $614 45.168614764854887 $566 $615 forward 7 unknown #
vertex $-1 $507 $616 #
straight-curve $-1 45.168614764854887 -11.164415793085935 -1.280843725374738 0 1 0 I I #
coedge $-1 $601 $617 $508 $571 reversed $557 $-1 #
edge $-1 $607 4.280843725374738 $575 8.8727572092688742 $508 $528 forward 7 unknown #
coedge $-1 $618 $509 $617 $619 forward $574 $-1 #
coedge $-1 $509 $618 $511 $578 forward $574 $-1 #
loop $-1 $-1 $509 $556 #
vertex $-1 $571 $620 #
straight-curve $-1 45.168614764854887 0 -8.8727572092688742 0 -1 0 I I #
coedge $-1 $516 $511 $621 $622 reversed $512 $-1 #
edge $-1 $623 -45.168614764854887 $513 45.168614764854887 $511 $624 forward 7 unknown #
face $-1 $-1 $512 $15 $-1 $625 reversed single #
point $-1 45.168614764854887 27.163751796329365 -8.8727572092688742 #
point $-1 40.272992421824767 27.163751796329368 8.8727572092688831 #
coedge $-1 $621 $626 $520 $583 reversed $627 $-1 #
edge $-1 $584 -27.163751796329365 $587 27.163751796329365 $582 $628 forward 7 unknown #
vertex $-1 $521 $629 #
straight-curve $-1 0 27.163751796329365 8.8727572092688742 -1 0 0 I I #
coedge $-1 $525 $522 $626 $630 forward $526 $-1 #
vertex $-1 $583 $631 #
straight-curve $-1 0 -27.163751796329365 8.8727572092688742 1 0 0 I I #
edge $-1 $568 -0.109578137312631 $606 2.890421862687369 $524 $632 forward 7 unknown #
face $-1 $633 $526 $15 $-1 $558 reversed single #
point $-1 45.168614764854887 -27.163751796329365 -1.280843725374738 #
point $-1 -45.168614764854887 27.163751796329365 -8.8727572092688742 #
edge $-1 $540 4.280843725374738 $550 8.8727572092688742 $553 $554 forward 7 unknown #
straight-curve $-1 -45.168614764854887 -11.164415793085935 -4.280843725374738 0 1 0 I I #
point $-1 -45.168614764854887 -17.493911376014374 -4.280843725374738 #
point $-1 -45.168614764854887 -27.163751796329365 -4.280843725374738 #
straight-curve $-1 -45.168614764854887 -17.493911376014374 -1.390421862687369 0 0 1 I I #
straight-curve $-1 -45.168614764854887 0 -8.8727572092688742 0 1 0 I I #
point $-1 -45.168614764854887 -27.163751796329365 -8.8727572092688742 #
plane-surface $-1 0 0 -8.8727572092688742 0 0 1 1 0 0 forward_v I I I I #
coedge $-1 $634 $570 $561 $605 forward $557 $-1 #
coedge $-1 $559 $613 $560 $604 forward $502 $-1 #
coedge $-1 $561 $560 $635 $636 reversed $437 $-1 #
edge $-1 $637 -45.168614764854887 $606 45.168614764854887 $602 $638 forward 7 unknown #
edge $-1 $607 -45.168614764854887 $639 45.168614764854887 $601 $640 forward 7 unknown #
vertex $-1 $563 $641 #
vertex $-1 $571 $642 #
straight-curve $-1 45.168614764854887 -11.164415793085935 -4.280843725374738 0 -1 0 I I #
coedge $-1 $626 $643 $564 $610 forward $627 $-1 #
edge $-1 $614 6.3294955829284394 $611 15.99933600324343 $609 $644 forward 7 unknown #
vertex $-1 $610 $645 #
straight-curve $-1 0 -27.163751796329365 -1.280843725374738 1 0 0 I I #
coedge $-1 $602 $566 $643 $646 reversed $502 $-1 #
vertex $-1 $610 $647 #
straight-curve $-1 0 -17.493911376014374 -1.280843725374738 -1 0 0 I I #
point $-1 45.168614764854887 -17.493911376014374 -1.280843725374738 #
coedge $-1 $570 $634 $572 $619 reversed $557 $-1 #
coedge $-1 $573 $572 $648 $649 forward $574 $-1 #
edge $-1 $575 -45.168614764854887 $650 45.168614764854887 $617 $651 forward 7 unknown #
point $-1 45.168614764854887 -27.163751796329365 -8.8727572092688742 #
coedge $-1 $648 $582 $577 $622 forward $627 $-1 #
edge $-1 $584 -8.8727572092688742 $623 8.8727572092688742 $577 $652 forward 7 unknown #
vertex $-1 $578 $653 #
straight-curve $-1 0 27.163751796329365 -8.8727572092688742 1 0 0 I I #
plane-surface $-1 0 27.163751796329365 0 0 -1 0 0 0 -1 forward_v I I I I #
coedge $-1 $582 $609 $586 $630 reversed $627 $-1 #
loop $-1 $-1 $609 $633 #
straight-curve $-1 -45.168614764854887 0 8.8727572092688742 0 -1 0 I I #
point $-1 -45.168614764854887 27.163751796329365 8.8727572092688742 #
edge $-1 $587 -8.8727572092688742 $611 1.280843725374738 $626 $654 forward 7 unknown #
point $-1 -45.168614764854887 -27.163751796329365 8.8727572092688742 #
straight-curve $-1 45.168614764854887 -17.493911376014374 -1.390421862687369 0 0 -1 I I #
face $-1 $579 $627 $15 $-1 $655 reversed single #
coedge $-1 $617 $601 $656 $657 forward $557 $-1 #
coedge $-1 $643 $656 $603 $636 forward $627 $-1 #
edge $-1 $639 -15.99933600324343 $637 -6.3294955829284394 $635 $658 forward 7 unknown #
vertex $-1 $636 $659 #
straight-curve $-1 0 -17.493911376014374 -4.280843725374738 1 0 0 I I #
vertex $-1 $657 $660 #
straight-curve $-1 0 -27.163751796329365 -4.280843725374738 -1 0 0 I I #
point $-1 45.168614764854887 -17.493911376014374 -4.280843725374738 #
point $-1 45.168614764854887 -27.163751796329365 -4.280843725374738 #
coedge $-1 $609 $635 $613 $646 forward $627 $-1 #
straight-curve $-1 -45.168614764854887 -11.164415793085935 -1.280843725374738 0 -1 0 I I #
point $-1 -45.168614764854887 -27.163751796329365 -1.280843725374738 #
edge $-1 $637 -2.890421862687369 $614 0.109578137312631 $643 $661 forward 7 unknown #
point $-1 -45.168614764854887 -17.493911376014374 -1.280843725374738 #
coedge $-1 $656 $621 $618 $649 reversed $627 $-1 #
edge $-1 $650 -27.163751796329365 $623 27.163751796329365 $648 $662 forward 7 unknown #
vertex $-1 $649 $663 #
straight-curve $-1 0 -27.163751796329365 -8.8727572092688742 -1 0 0 I I #
straight-curve $-1 -45.168614764854887 27.163751796329365 0 0 0 -1 I I #
point $-1 -45.168614764854887 27.163751796329365 -8.8727572092688742 #
straight-curve $-1 -45.168614764854887 -27.163751796329365 0 0 0 -1 I I #
plane-surface $-1 -45.168614764854887 0 0 1 0 0 0 0 -1 forward_v I I I I #
coedge $-1 $635 $648 $634 $657 reversed $627 $-1 #
edge $-1 $639 4.280843725374738 $650 8.8727572092688742 $656 $654 forward 7 unknown #
straight-curve $-1 -45.168614764854887 -11.164415793085935 -4.280843725374738 0 1 0 I I #
point $-1 -45.168614764854887 -17.493911376014374 -4.280843725374738 #
point $-1 -45.168614764854887 -27.163751796329365 -4.280843725374738 #
straight-curve $-1 -45.168614764854887 -17.493911376014374 -1.390421862687369 0 0 1 I I #
straight-curve $-1 -45.168614764854887 0 -8.8727572092688742 0 1 0 I I #
point $-1 -45.168614764854887 -27.163751796329365 -8.8727572092688742 #
End-of-ACIS-data 