500 0 9 0           
7 Unknown 11 ACIS 5.0 NT 24 Fri Mar 26 17:19:24 1999 
-1 9.9999999999999995e-007 1e-010 
body $-1 $9 $-1 $10 #
body $-1 $11 $-1 $12 #
body $-1 $13 $-1 $14 #
body $-1 $15 $-1 $16 #
body $-1 $17 $-1 $18 #
body $-1 $19 $-1 $20 #
body $-1 $21 $-1 $22 #
body $-1 $23 $-1 $24 #
body $-1 $25 $-1 $26 #
lump $-1 $-1 $27 $0 #
transform $-1 1 0 0 0 1 0 0 0 1 65.541550950651569 28.439876518498771 11.991321939886937 1 rotate no_reflect no_shear #
lump $-1 $-1 $28 $1 #
transform $-1 1 0 0 0 1 0 0 0 1 65.541550950651569 28.439876518498771 11.991321939886937 1 rotate no_reflect no_shear #
lump $-1 $-1 $29 $2 #
transform $-1 1 0 0 0 1 0 0 0 1 65.541550950651569 28.439876518498771 11.991321939886937 1 rotate no_reflect no_shear #
lump $-1 $-1 $30 $3 #
transform $-1 1 0 0 0 1 0 0 0 1 65.541550950651569 28.439876518498771 11.991321939886937 1 rotate no_reflect no_shear #
lump $-1 $-1 $31 $4 #
transform $-1 1 0 0 0 1 0 0 0 1 65.541550950651569 28.439876518498771 11.991321939886937 1 rotate no_reflect no_shear #
lump $-1 $-1 $32 $5 #
transform $-1 1 0 0 0 1 0 0 0 1 65.541550950651569 28.439876518498771 11.991321939886937 1 rotate no_reflect no_shear #
lump $-1 $-1 $33 $6 #
transform $-1 1 0 0 0 1 0 0 0 1 65.541550950651569 28.439876518498771 11.991321939886937 1 rotate no_reflect no_shear #
lump $-1 $-1 $34 $7 #
transform $-1 1 0 0 0 1 0 0 0 1 65.541550950651569 28.439876518498771 11.991321939886937 1 rotate no_reflect no_shear #
lump $-1 $-1 $35 $8 #
transform $-1 1 0 0 0 1 0 0 0 1 65.541550950651569 28.439876518498771 11.991321939886937 1 rotate no_reflect no_shear #
shell $-1 $-1 $-1 $36 $-1 $9 #
shell $-1 $-1 $-1 $37 $-1 $11 #
shell $-1 $-1 $-1 $38 $-1 $13 #
shell $-1 $-1 $-1 $39 $-1 $15 #
shell $-1 $-1 $-1 $40 $-1 $17 #
shell $-1 $-1 $-1 $41 $-1 $19 #
shell $-1 $-1 $-1 $42 $-1 $21 #
shell $-1 $-1 $-1 $43 $-1 $23 #
shell $-1 $-1 $-1 $44 $-1 $25 #
face $-1 $45 $46 $27 $-1 $47 forward single #
face $-1 $48 $49 $28 $-1 $50 forward single #
face $-1 $51 $52 $29 $-1 $53 forward single #
face $-1 $54 $55 $30 $-1 $56 reversed single #
face $-1 $57 $58 $31 $-1 $59 forward single #
face $-1 $60 $61 $32 $-1 $62 forward single #
face $-1 $63 $64 $33 $-1 $65 reversed single #
face $-1 $66 $67 $34 $-1 $68 forward single #
face $-1 $69 $70 $35 $-1 $71 forward single #
face $-1 $72 $73 $27 $-1 $74 reversed single #
loop $-1 $-1 $75 $36 #
plane-surface $-1 0 0 11.991321939886937 0 0 1 1 0 0 forward_v I I I I #
face $-1 $76 $77 $28 $-1 $78 reversed single #
loop $-1 $-1 $79 $37 #
plane-surface $-1 0 -21.584358682098873 5.5087401527765181 0 0 1 1 0 0 forward_v I I I I #
face $-1 $80 $81 $29 $-1 $82 reversed single #
loop $-1 $-1 $83 $38 #
plane-surface $-1 0 21.584358682098873 5.5087401527765181 0 0 1 1 0 0 forward_v I I I I #
face $-1 $84 $85 $30 $-1 $86 reversed single #
loop $-1 $-1 $87 $39 #
plane-surface $-1 17.561807032967664 -12.548166352639697 183.46809317052274 0 1 0 0.50000000669873634 0 0.8660253999169214 forward_v I I I I #
face $-1 $88 $89 $31 $-1 $90 forward single #
loop $-1 $91 $92 $40 #
cone-surface $-1 58.721816235245093 -10.663156320177681 7.7652710676617094 -0.50000000669873634 0 -0.8660253999169214 0.21650634997923035 0 -0.12500000167468409 1 I I 0 1 0.25 forward I I I I #
face $-1 $93 $94 $32 $-1 $95 forward single #
loop $-1 $96 $97 $41 #
cone-surface $-1 58.721816235245093 -7.8356412714846542 7.7652710676617094 -0.50000000669873634 0 -0.8660253999169214 0.21650634997923035 0 -0.12500000167468409 1 I I 0 1 0.25 forward I I I I #
face $-1 $98 $99 $33 $-1 $100 reversed single #
loop $-1 $-1 $101 $42 #
plane-surface $-1 17.561807032967664 5.9506312390226332 183.46809317052274 0 1 0 0.50000000669873634 0 0.8660253999169214 forward_v I I I I #
face $-1 $102 $103 $34 $-1 $104 forward single #
loop $-1 $105 $106 $43 #
cone-surface $-1 58.721816235245093 7.8356412714846542 7.7652710676617094 -0.50000000669873634 0 -0.8660253999169214 0.21650634997923035 0 -0.12500000167468409 1 I I 0 1 0.25 forward I I I I #
face $-1 $107 $108 $35 $-1 $109 forward single #
loop $-1 $110 $111 $44 #
cone-surface $-1 58.721816235245093 10.663156320177684 7.7652710676617094 -0.50000000669873634 0 -0.8660253999169214 0.21650634997923035 0 -0.12500000167468409 1 I I 0 1 0.25 forward I I I I #
face $-1 $112 $113 $27 $-1 $114 reversed single #
loop $-1 $-1 $115 $45 #
plane-surface $-1 0 0 -11.991321939886937 0 0 1 1 0 0 forward_v I I I I #
coedge $-1 $116 $117 $118 $119 forward $46 $-1 #
face $-1 $120 $121 $28 $-1 $122 reversed single #
loop $-1 $-1 $123 $48 #
plane-surface $-1 0 -21.584358682098873 -0.59989182711119682 0 0 1 1 0 0 forward_v I I I I #
coedge $-1 $124 $125 $126 $127 reversed $49 $-1 #
face $-1 $128 $129 $29 $-1 $130 reversed single #
loop $-1 $-1 $131 $51 #
plane-surface $-1 0 21.584358682098873 -0.59989182711119682 0 0 1 1 0 0 forward_v I I I I #
coedge $-1 $132 $133 $134 $135 reversed $52 $-1 #
face $-1 $136 $137 $30 $-1 $138 reversed single #
loop $-1 $-1 $139 $54 #
plane-surface $-1 -47.979744795775034 -9.2493987958311692 69.946797424096147 0.50000000669873634 0 0.8660253999169214 0.8660253999169214 0 -0.50000000669873634 forward_v I I I I #
coedge $-1 $140 $141 $142 $143 reversed $55 $-1 #
face $-1 $-1 $144 $31 $-1 $145 forward single #
loop $-1 $146 $147 $57 #
cone-surface $-1 58.409316231058384 -10.663156320177681 7.2240051927136335 -0.50000000669873634 0 -0.8660253999169214 0.10825317498961518 0 -0.062500000837342043 1 I I -0.70710678118654746 0.70710678118654746 0.125 forward I I I I #
loop $-1 $-1 $148 $40 #
coedge $-1 $92 $92 $149 $150 reversed $58 $-1 #
face $-1 $-1 $151 $32 $-1 $152 forward single #
loop $-1 $153 $154 $60 #
cone-surface $-1 58.409316231058384 -7.8356412714846542 7.2240051927136335 -0.50000000669873634 0 -0.8660253999169214 0.10825317498961518 0 -0.062500000837342043 1 I I -0.70710678118654746 0.70710678118654746 0.125 forward I I I I #
loop $-1 $-1 $155 $41 #
coedge $-1 $97 $97 $156 $157 reversed $61 $-1 #
face $-1 $158 $159 $33 $-1 $160 reversed single #
loop $-1 $-1 $161 $63 #
plane-surface $-1 -47.979744795775034 9.2493987958311621 69.946797424096147 0.50000000669873634 0 0.8660253999169214 0.8660253999169214 0 -0.50000000669873634 forward_v I I I I #
coedge $-1 $162 $163 $164 $165 reversed $64 $-1 #
face $-1 $-1 $166 $34 $-1 $167 forward single #
loop $-1 $168 $169 $66 #
cone-surface $-1 58.409316231058384 7.8356412714846542 7.2240051927136335 -0.50000000669873634 0 -0.8660253999169214 0.10825317498961518 0 -0.062500000837342043 1 I I -0.70710678118654746 0.70710678118654746 0.125 forward I I I I #
loop $-1 $-1 $170 $43 #
coedge $-1 $106 $106 $171 $172 reversed $67 $-1 #
face $-1 $-1 $173 $35 $-1 $174 forward single #
loop $-1 $175 $176 $69 #
cone-surface $-1 58.409316231058384 10.663156320177684 7.2240051927136335 -0.50000000669873634 0 -0.8660253999169214 0.10825317498961518 0 -0.062500000837342043 1 I I -0.70710678118654746 0.70710678118654746 0.125 forward I I I I #
loop $-1 $-1 $177 $44 #
coedge $-1 $111 $111 $178 $179 reversed $70 $-1 #
face $-1 $180 $181 $27 $-1 $182 reversed single #
loop $-1 $-1 $183 $72 #
plane-surface $-1 0 -28.439876518498771 0 0 1 0 0 0 1 forward_v I I I I #
coedge $-1 $184 $185 $186 $187 forward $73 $-1 #
coedge $-1 $188 $75 $189 $190 forward $46 $-1 #
coedge $-1 $75 $188 $191 $192 forward $46 $-1 #
coedge $-1 $193 $194 $75 $119 reversed $195 $-1 #
edge $-1 $196 -28.439876518498771 $197 28.439876518498771 $118 $198 forward 7 unknown #
face $-1 $199 $200 $28 $-1 $201 reversed single #
loop $-1 $-1 $202 $76 #
plane-surface $-1 0 -14.728840845698976 2.4544241628326606 0 -1 0 0 0 -1 forward_v I I I I #
coedge $-1 $203 $204 $205 $206 reversed $77 $-1 #
coedge $-1 $207 $79 $208 $209 forward $49 $-1 #
coedge $-1 $79 $207 $210 $211 reversed $49 $-1 #
coedge $-1 $212 $213 $79 $127 forward $214 $-1 #
edge $-1 $215 3.936661504649539 $216 17.647697177449334 $126 $217 forward 7 unknown #
face $-1 $218 $219 $29 $-1 $220 reversed single #
loop $-1 $-1 $221 $80 #
plane-surface $-1 0 14.728840845698976 2.4544241628326606 0 1 0 0 0 1 forward_v I I I I #
coedge $-1 $222 $223 $224 $225 reversed $81 $-1 #
coedge $-1 $226 $83 $227 $228 reversed $52 $-1 #
coedge $-1 $83 $226 $229 $230 forward $52 $-1 #
coedge $-1 $231 $232 $83 $135 forward $219 $-1 #
edge $-1 $233 -17.647697177449334 $234 -3.936661504649539 $134 $235 forward 7 unknown #
face $-1 $236 $237 $30 $-1 $238 forward single #
loop $-1 $-1 $239 $84 #
plane-surface $-1 17.561807032967664 -5.9506312390226404 183.46809317052274 0 -1 0 -0.50000000669873634 0 -0.8660253999169214 forward_v I I I I #
coedge $-1 $240 $241 $242 $243 reversed $85 $-1 #
coedge $-1 $141 $87 $244 $245 reversed $55 $-1 #
coedge $-1 $87 $140 $240 $246 reversed $55 $-1 #
coedge $-1 $242 $247 $87 $143 forward $248 $-1 #
edge $-1 $249 79.742724645374437 $250 87.328800989907933 $142 $251 forward 7 unknown #
loop $-1 $-1 $149 $88 #
plane-surface $-1 -47.979744795775034 -9.2493987958311692 69.946797424096147 0.50000000669873634 0 0.8660253999169214 0.8660253999169214 0 -0.50000000669873634 forward_v I I I I #
loop $-1 $-1 $252 $57 #
coedge $-1 $147 $147 $148 $253 reversed $89 $-1 #
coedge $-1 $148 $148 $147 $253 forward $91 $-1 #
coedge $-1 $149 $149 $92 $150 forward $144 $-1 #
edge $-1 $254 0 $254 6.2831853071796004 $149 $255 forward 7 unknown #
loop $-1 $-1 $156 $93 #
plane-surface $-1 -47.979744795775034 -9.2493987958311692 69.946797424096147 0.50000000669873634 0 0.8660253999169214 0.8660253999169214 0 -0.50000000669873634 forward_v I I I I #
loop $-1 $-1 $256 $60 #
coedge $-1 $154 $154 $155 $257 reversed $94 $-1 #
coedge $-1 $155 $155 $154 $257 forward $96 $-1 #
coedge $-1 $156 $156 $97 $157 forward $151 $-1 #
edge $-1 $258 0 $258 6.2831853071796004 $156 $259 forward 7 unknown #
face $-1 $260 $261 $33 $-1 $262 reversed single #
loop $-1 $-1 $263 $98 #
plane-surface $-1 17.561807032967664 12.54816635263969 183.46809317052274 0 -1 0 -0.50000000669873634 0 -0.8660253999169214 forward_v I I I I #
coedge $-1 $264 $265 $266 $267 reversed $99 $-1 #
coedge $-1 $163 $101 $268 $269 reversed $64 $-1 #
coedge $-1 $101 $162 $264 $270 reversed $64 $-1 #
coedge $-1 $266 $271 $101 $165 forward $261 $-1 #
edge $-1 $272 79.742724645374437 $273 87.328800989907933 $164 $274 forward 7 unknown #
loop $-1 $-1 $171 $102 #
plane-surface $-1 -47.979744795775034 9.2493987958311621 69.946797424096147 0.50000000669873634 0 0.8660253999169214 0.8660253999169214 0 -0.50000000669873634 forward_v I I I I #
loop $-1 $-1 $275 $66 #
coedge $-1 $169 $169 $170 $276 reversed $103 $-1 #
coedge $-1 $170 $170 $169 $276 forward $105 $-1 #
coedge $-1 $171 $171 $106 $172 forward $166 $-1 #
edge $-1 $277 0 $277 6.2831853071796004 $171 $278 forward 7 unknown #
loop $-1 $-1 $178 $107 #
plane-surface $-1 -47.979744795775034 9.2493987958311621 69.946797424096147 0.50000000669873634 0 0.8660253999169214 0.8660253999169214 0 -0.50000000669873634 forward_v I I I I #
loop $-1 $-1 $279 $69 #
coedge $-1 $176 $176 $177 $280 reversed $108 $-1 #
coedge $-1 $177 $177 $176 $280 forward $110 $-1 #
coedge $-1 $178 $178 $111 $179 forward $173 $-1 #
edge $-1 $281 0 $281 6.2831853071796004 $178 $282 forward 7 unknown #
face $-1 $283 $284 $27 $-1 $285 reversed single #
loop $-1 $-1 $286 $112 #
plane-surface $-1 -65.541550950651569 0 0 1 0 0 0 0 -1 forward_v I I I I #
coedge $-1 $287 $191 $288 $289 forward $113 $-1 #
coedge $-1 $290 $115 $287 $291 forward $73 $-1 #
coedge $-1 $115 $290 $292 $293 forward $73 $-1 #
coedge $-1 $194 $193 $115 $187 reversed $195 $-1 #
edge $-1 $294 -28.439876518498771 $295 28.439876518498771 $186 $296 forward 7 unknown #
coedge $-1 $117 $116 $297 $298 forward $46 $-1 #
coedge $-1 $299 $300 $116 $190 reversed $284 $-1 #
edge $-1 $197 -65.541550950651569 $301 65.541550950651569 $189 $302 forward 7 unknown #
coedge $-1 $183 $303 $117 $192 reversed $113 $-1 #
edge $-1 $304 -65.541550950651569 $196 65.541550950651569 $191 $305 forward 7 unknown #
coedge $-1 $186 $118 $303 $306 forward $195 $-1 #
coedge $-1 $118 $186 $299 $307 reversed $195 $-1 #
loop $-1 $-1 $193 $283 #
vertex $-1 $119 $308 #
vertex $-1 $119 $309 #
straight-curve $-1 65.541550950651569 0 11.991321939886937 0 1 0 I I #
face $-1 $310 $311 $28 $-1 $312 reversed single #
loop $-1 $-1 $313 $120 #
plane-surface $-1 -65.541550950651569 0 0 1 0 0 0 0 -1 forward_v I I I I #
coedge $-1 $314 $208 $213 $315 reversed $121 $-1 #
coedge $-1 $316 $123 $317 $318 reversed $77 $-1 #
coedge $-1 $123 $316 $314 $319 forward $77 $-1 #
coedge $-1 $213 $212 $123 $206 forward $214 $-1 #
edge $-1 $320 -17.647697177449334 $321 -3.936661504649539 $205 $322 forward 7 unknown #
coedge $-1 $125 $124 $313 $323 reversed $49 $-1 #
coedge $-1 $202 $324 $124 $209 reversed $121 $-1 #
edge $-1 $215 -65.541550950651569 $325 65.541550950651569 $208 $326 forward 7 unknown #
coedge $-1 $327 $328 $125 $211 forward $311 $-1 #
edge $-1 $216 -65.541550950651569 $329 65.541550950651569 $210 $330 forward 7 unknown #
coedge $-1 $205 $126 $328 $331 forward $214 $-1 #
coedge $-1 $126 $205 $202 $315 forward $214 $-1 #
loop $-1 $-1 $126 $310 #
vertex $-1 $127 $332 #
vertex $-1 $331 $333 #
straight-curve $-1 65.541550950651569 -10.792179341049437 5.5087401527765181 0 -1 0 I I #
face $-1 $334 $335 $29 $-1 $336 reversed single #
loop $-1 $-1 $134 $128 #
plane-surface $-1 65.541550950651569 0 0 -1 0 0 0 0 1 forward_v I I I I #
coedge $-1 $337 $229 $338 $339 reversed $129 $-1 #
coedge $-1 $340 $131 $337 $341 forward $81 $-1 #
coedge $-1 $131 $340 $342 $343 reversed $81 $-1 #
coedge $-1 $232 $231 $131 $225 forward $219 $-1 #
edge $-1 $344 3.936661504649539 $345 17.647697177449334 $224 $346 forward 7 unknown #
coedge $-1 $133 $132 $347 $348 reversed $52 $-1 #
coedge $-1 $349 $350 $132 $228 forward $351 $-1 #
edge $-1 $352 -65.541550950651569 $233 65.541550950651569 $227 $353 forward 7 unknown #
coedge $-1 $221 $354 $133 $230 reversed $129 $-1 #
edge $-1 $355 -65.541550950651569 $234 65.541550950651569 $229 $356 forward 7 unknown #
coedge $-1 $224 $134 $354 $357 forward $219 $-1 #
coedge $-1 $134 $224 $349 $358 reversed $219 $-1 #
vertex $-1 $358 $359 #
vertex $-1 $135 $360 #
straight-curve $-1 65.541550950651569 10.792179341049437 5.5087401527765181 0 -1 0 I I #
face $-1 $-1 $248 $30 $-1 $361 reversed single #
loop $-1 $-1 $362 $136 #
plane-surface $-1 0 0 11.991321939886937 0 0 1 1 0 0 forward_v I I I I #
coedge $-1 $363 $364 $365 $366 reversed $137 $-1 #
coedge $-1 $367 $139 $141 $246 forward $85 $-1 #
coedge $-1 $139 $367 $363 $368 forward $85 $-1 #
coedge $-1 $365 $142 $139 $243 forward $248 $-1 #
edge $-1 $250 -7.9234669547241126 $369 -1.3259318411070558 $242 $370 forward 7 unknown #
coedge $-1 $371 $372 $140 $245 forward $237 $-1 #
edge $-1 $373 43.621178010053598 $249 56.760647434167737 $244 $374 forward 7 unknown #
edge $-1 $250 -131.08310190130317 $373 -115.91094941550465 $141 $375 forward 7 unknown #
coedge $-1 $142 $365 $371 $376 reversed $248 $-1 #
loop $-1 $-1 $365 $236 #
vertex $-1 $376 $377 #
vertex $-1 $143 $378 #
straight-curve $-1 65.541550950651569 -12.548166352639697 91.734046585261368 0 0 -1 I I #
coedge $-1 $252 $252 $-1 $379 reversed $146 $-1 #
edge $-1 $380 0 $380 6.2831853071796004 $147 $381 forward 7 unknown #
vertex $-1 $150 $382 #
ellipse-curve $-1 58.971816238594478 -10.663156320177681 8.198283767620195 0.50000000669873634 0 0.8660253999169214 0.21650634997923035 0 -0.12500000167468409 1 I I #
coedge $-1 $256 $256 $-1 $383 reversed $153 $-1 #
edge $-1 $384 0 $384 6.2831853071796004 $154 $385 forward 7 unknown #
vertex $-1 $157 $386 #
ellipse-curve $-1 58.971816238594478 -7.8356412714846542 8.198283767620195 0.50000000669873634 0 0.8660253999169214 0.21650634997923035 0 -0.12500000167468409 1 I I #
face $-1 $-1 $387 $33 $-1 $388 forward single #
loop $-1 $-1 $164 $158 #
plane-surface $-1 65.541550950651569 0 0 -1 0 0 0 0 1 forward_v I I I I #
coedge $-1 $389 $390 $391 $392 reversed $159 $-1 #
coedge $-1 $393 $161 $163 $270 forward $99 $-1 #
coedge $-1 $161 $393 $389 $394 forward $99 $-1 #
coedge $-1 $391 $164 $161 $267 forward $261 $-1 #
edge $-1 $273 1.3259318411070522 $395 7.923466954724109 $266 $396 forward 7 unknown #
coedge $-1 $397 $398 $162 $269 forward $387 $-1 #
edge $-1 $399 43.621178010053598 $272 56.760647434167737 $268 $400 forward 7 unknown #
edge $-1 $273 -131.08310190130317 $399 -115.91094941550465 $163 $401 forward 7 unknown #
coedge $-1 $164 $391 $397 $402 reversed $261 $-1 #
vertex $-1 $402 $403 #
vertex $-1 $165 $404 #
straight-curve $-1 65.541550950651569 5.9506312390226332 91.734046585261368 0 0 -1 I I #
coedge $-1 $275 $275 $-1 $405 reversed $168 $-1 #
edge $-1 $406 0 $406 6.2831853071796004 $169 $407 forward 7 unknown #
vertex $-1 $172 $408 #
ellipse-curve $-1 58.971816238594478 7.8356412714846542 8.198283767620195 0.50000000669873634 0 0.8660253999169214 0.21650634997923035 0 -0.12500000167468409 1 I I #
coedge $-1 $279 $279 $-1 $409 reversed $175 $-1 #
edge $-1 $410 0 $410 6.2831853071796004 $176 $411 forward 7 unknown #
vertex $-1 $179 $412 #
ellipse-curve $-1 58.971816238594478 10.663156320177684 8.198283767620195 0.50000000669873634 0 0.8660253999169214 0.21650634997923035 0 -0.12500000167468409 1 I I #
face $-1 $-1 $195 $27 $-1 $413 reversed single #
loop $-1 $-1 $299 $180 #
plane-surface $-1 0 28.439876518498771 0 0 -1 0 0 0 -1 forward_v I I I I #
coedge $-1 $414 $297 $300 $415 forward $181 $-1 #
coedge $-1 $303 $183 $184 $291 reversed $113 $-1 #
coedge $-1 $297 $414 $183 $289 reversed $181 $-1 #
edge $-1 $304 -11.991321939886937 $416 11.991321939886937 $288 $417 forward 7 unknown #
coedge $-1 $185 $184 $414 $418 forward $73 $-1 #
edge $-1 $295 -65.541550950651569 $416 65.541550950651569 $287 $419 forward 7 unknown #
coedge $-1 $300 $299 $185 $293 reversed $284 $-1 #
edge $-1 $420 -65.541550950651569 $294 65.541550950651569 $292 $421 forward 7 unknown #
vertex $-1 $187 $422 #
vertex $-1 $306 $423 #
straight-curve $-1 65.541550950651569 0 -11.991321939886937 0 -1 0 I I #
coedge $-1 $286 $288 $188 $298 reversed $181 $-1 #
edge $-1 $301 -28.439876518498771 $304 28.439876518498771 $297 $424 forward 7 unknown #
coedge $-1 $292 $189 $194 $307 forward $284 $-1 #
coedge $-1 $189 $292 $286 $415 reversed $284 $-1 #
vertex $-1 $190 $425 #
straight-curve $-1 0 28.439876518498771 11.991321939886937 -1 0 0 I I #
coedge $-1 $191 $287 $193 $306 reversed $113 $-1 #
vertex $-1 $298 $426 #
straight-curve $-1 0 -28.439876518498771 11.991321939886937 1 0 0 I I #
edge $-1 $196 -11.991321939886937 $295 11.991321939886937 $193 $427 forward 7 unknown #
edge $-1 $197 -11.991321939886937 $294 11.991321939886937 $194 $428 forward 7 unknown #
point $-1 65.541550950651569 -28.439876518498771 11.991321939886937 #
point $-1 65.541550950651569 28.439876518498771 11.991321939886937 #
face $-1 $-1 $214 $28 $-1 $429 reversed single #
loop $-1 $-1 $210 $199 #
plane-surface $-1 0 -28.439876518498771 0 0 1 0 0 0 1 forward_v I I I I #
coedge $-1 $430 $431 $207 $323 forward $200 $-1 #
coedge $-1 $324 $202 $204 $319 reversed $121 $-1 #
edge $-1 $321 -1.8271039085275271 $215 4.2815280713601878 $213 $432 forward 7 unknown #
coedge $-1 $204 $203 $433 $434 reversed $77 $-1 #
coedge $-1 $328 $327 $203 $318 forward $311 $-1 #
edge $-1 $435 -65.541550950651569 $320 65.541550950651569 $317 $436 forward 7 unknown #
edge $-1 $437 -65.541550950651569 $321 65.541550950651569 $314 $438 forward 7 unknown #
vertex $-1 $318 $439 #
vertex $-1 $206 $440 #
straight-curve $-1 65.541550950651569 -10.792179341049437 -0.59989182711119682 0 1 0 I I #
edge $-1 $329 -17.647697177449334 $325 -3.936661504649539 $313 $441 forward 7 unknown #
coedge $-1 $208 $314 $430 $442 reversed $121 $-1 #
vertex $-1 $323 $443 #
straight-curve $-1 0 -14.728840845698976 5.5087401527765181 -1 0 0 I I #
coedge $-1 $317 $210 $431 $444 forward $311 $-1 #
coedge $-1 $210 $317 $212 $331 reversed $311 $-1 #
vertex $-1 $444 $445 #
straight-curve $-1 0 -28.439876518498771 5.5087401527765181 -1 0 0 I I #
edge $-1 $216 -5.5087401527765181 $320 0.59989182711119682 $212 $446 forward 7 unknown #
point $-1 65.541550950651569 -14.728840845698976 5.5087401527765181 #
point $-1 65.541550950651569 -28.439876518498771 5.5087401527765181 #
face $-1 $-1 $351 $29 $-1 $447 reversed single #
loop $-1 $-1 $347 $218 #
plane-surface $-1 -65.541550950651569 0 0 1 0 0 0 0 -1 forward_v I I I I #
coedge $-1 $354 $221 $222 $341 reversed $129 $-1 #
coedge $-1 $347 $448 $221 $339 forward $335 $-1 #
edge $-1 $449 -1.8271039085275271 $355 4.2815280713601878 $338 $450 forward 7 unknown #
coedge $-1 $223 $222 $448 $451 reversed $81 $-1 #
edge $-1 $344 -65.541550950651569 $449 65.541550950651569 $337 $452 forward 7 unknown #
coedge $-1 $350 $349 $223 $343 forward $351 $-1 #
edge $-1 $345 -65.541550950651569 $453 65.541550950651569 $342 $454 forward 7 unknown #
vertex $-1 $225 $455 #
vertex $-1 $343 $456 #
straight-curve $-1 65.541550950651569 10.792179341049437 -0.59989182711119682 0 1 0 I I #
coedge $-1 $457 $338 $226 $348 forward $335 $-1 #
edge $-1 $355 3.936661504649539 $352 17.647697177449334 $347 $458 forward 7 unknown #
coedge $-1 $342 $227 $232 $358 forward $351 $-1 #
coedge $-1 $227 $342 $457 $459 reversed $351 $-1 #
loop $-1 $-1 $227 $334 #
vertex $-1 $459 $460 #
straight-curve $-1 0 28.439876518498771 5.5087401527765181 1 0 0 I I #
coedge $-1 $229 $337 $231 $357 reversed $129 $-1 #
vertex $-1 $348 $461 #
straight-curve $-1 0 14.728840845698976 5.5087401527765181 1 0 0 I I #
edge $-1 $234 -4.2815280713601878 $344 1.8271039085275271 $231 $462 forward 7 unknown #
edge $-1 $233 -5.5087401527765181 $345 0.59989182711119682 $232 $463 forward 7 unknown #
point $-1 65.541550950651569 28.439876518498771 5.5087401527765181 #
point $-1 65.541550950651569 14.728840845698976 5.5087401527765181 #
plane-surface $-1 65.541550950651569 0 0 -1 0 0 0 0 1 forward_v I I I I #
coedge $-1 $372 $371 $364 $464 forward $237 $-1 #
coedge $-1 $364 $239 $241 $368 reversed $137 $-1 #
coedge $-1 $239 $363 $362 $464 reversed $137 $-1 #
coedge $-1 $247 $242 $239 $366 forward $248 $-1 #
edge $-1 $369 -87.328800989907933 $465 -79.742724645374437 $365 $466 forward 7 unknown #
coedge $-1 $241 $240 $372 $467 reversed $85 $-1 #
edge $-1 $468 115.91094941550465 $369 131.08310190130317 $363 $469 forward 7 unknown #
vertex $-1 $243 $470 #
straight-curve $-1 65.541550950651583 -4.6246993979155846 4.4052455953534349 0 1 0 I I #
coedge $-1 $362 $244 $247 $376 forward $237 $-1 #
coedge $-1 $244 $362 $367 $467 forward $237 $-1 #
vertex $-1 $245 $471 #
straight-curve $-1 8.780903516483832 -12.548166352639697 11.991321939886944 1 0 0 I I #
straight-curve $-1 -47.979744795775034 -12.548166352639697 69.946797424096147 -0.8660253999169214 0 0.50000000669873634 I I #
edge $-1 $249 -12.548166352639697 $465 -5.9506312390226404 $247 $472 forward 7 unknown #
point $-1 65.541550950651569 -12.548166352639697 11.991321939886937 #
point $-1 65.541550950651583 -12.548166352639697 4.4052455953534349 #
edge $-1 $473 1 $473 0 $252 $-1 forward 7 unknown #
vertex $-1 $253 $474 #
ellipse-curve $-1 58.471816231895723 -10.663156320177681 7.3322583677032487 0.50000000669873634 0 0.8660253999169214 0.21650634997923035 0 -0.12500000167468409 1 I I #
point $-1 59.188322588573691 -10.663156320177681 8.0732837659454866 #
edge $-1 $475 1 $475 0 $256 $-1 forward 7 unknown #
vertex $-1 $257 $476 #
ellipse-curve $-1 58.471816231895723 -7.8356412714846542 7.3322583677032487 0.50000000669873634 0 0.8660253999169214 0.21650634997923035 0 -0.12500000167468409 1 I I #
point $-1 59.188322588573691 -7.8356412714846542 8.0732837659454866 #
loop $-1 $-1 $268 $260 #
plane-surface $-1 0 0 11.991321939886937 0 0 1 1 0 0 forward_v I I I I #
coedge $-1 $390 $263 $265 $394 reversed $159 $-1 #
coedge $-1 $263 $389 $477 $478 reversed $159 $-1 #
coedge $-1 $271 $266 $263 $392 forward $261 $-1 #
edge $-1 $395 -87.328800989907933 $479 -79.742724645374437 $391 $480 forward 7 unknown #
coedge $-1 $265 $264 $398 $481 reversed $99 $-1 #
edge $-1 $482 115.91094941550465 $395 131.08310190130317 $389 $483 forward 7 unknown #
vertex $-1 $267 $484 #
straight-curve $-1 65.541550950651583 4.624699397915581 4.4052455953534349 0 1 0 I I #
coedge $-1 $477 $268 $271 $402 forward $387 $-1 #
coedge $-1 $268 $477 $393 $481 forward $387 $-1 #
vertex $-1 $269 $485 #
straight-curve $-1 8.780903516483832 5.9506312390226332 11.991321939886944 1 0 0 I I #
straight-curve $-1 -47.979744795775034 5.9506312390226332 69.946797424096147 -0.8660253999169214 0 0.50000000669873634 I I #
edge $-1 $272 5.9506312390226332 $479 12.54816635263969 $271 $486 forward 7 unknown #
point $-1 65.541550950651569 5.9506312390226332 11.991321939886937 #
point $-1 65.541550950651583 5.9506312390226332 4.4052455953534349 #
edge $-1 $487 1 $487 0 $275 $-1 forward 7 unknown #
vertex $-1 $276 $488 #
ellipse-curve $-1 58.471816231895723 7.8356412714846542 7.3322583677032487 0.50000000669873634 0 0.8660253999169214 0.21650634997923035 0 -0.12500000167468409 1 I I #
point $-1 59.188322588573691 7.8356412714846542 8.0732837659454866 #
edge $-1 $489 1 $489 0 $279 $-1 forward 7 unknown #
vertex $-1 $280 $490 #
ellipse-curve $-1 58.471816231895723 10.663156320177684 7.3322583677032487 0.50000000669873634 0 0.8660253999169214 0.21650634997923035 0 -0.12500000167468409 1 I I #
point $-1 59.188322588573691 10.663156320177684 8.0732837659454866 #
plane-surface $-1 65.541550950651569 0 0 -1 0 0 0 0 1 forward_v I I I I #
coedge $-1 $288 $286 $290 $418 reversed $181 $-1 #
edge $-1 $301 -11.991321939886937 $420 11.991321939886937 $300 $491 forward 7 unknown #
vertex $-1 $418 $492 #
straight-curve $-1 -65.541550950651569 -28.439876518498771 0 0 0 -1 I I #
edge $-1 $416 -28.439876518498771 $420 28.439876518498771 $414 $493 forward 7 unknown #
straight-curve $-1 0 -28.439876518498771 -11.991321939886937 -1 0 0 I I #
vertex $-1 $293 $494 #
straight-curve $-1 0 28.439876518498771 -11.991321939886937 1 0 0 I I #
point $-1 65.541550950651569 28.439876518498771 -11.991321939886937 #
point $-1 65.541550950651569 -28.439876518498771 -11.991321939886937 #
straight-curve $-1 -65.541550950651569 0 11.991321939886937 0 -1 0 I I #
point $-1 -65.541550950651569 28.439876518498771 11.991321939886937 #
point $-1 -65.541550950651569 -28.439876518498771 11.991321939886937 #
straight-curve $-1 65.541550950651569 -28.439876518498771 0 0 0 -1 I I #
straight-curve $-1 65.541550950651569 28.439876518498771 0 0 0 -1 I I #
plane-surface $-1 65.541550950651569 0 0 -1 0 0 0 0 1 forward_v I I I I #
coedge $-1 $433 $313 $324 $442 forward $200 $-1 #
coedge $-1 $313 $433 $327 $444 reversed $200 $-1 #
straight-curve $-1 65.541550950651569 -14.728840845698976 1.2272120814163303 0 0 1 I I #
coedge $-1 $431 $430 $316 $434 forward $200 $-1 #
edge $-1 $437 3.936661504649539 $435 17.647697177449334 $433 $495 forward 7 unknown #
vertex $-1 $318 $496 #
straight-curve $-1 0 -28.439876518498771 -0.59989182711119682 1 0 0 I I #
vertex $-1 $434 $497 #
straight-curve $-1 0 -14.728840845698976 -0.59989182711119682 1 0 0 I I #
point $-1 65.541550950651569 -28.439876518498771 -0.59989182711119682 #
point $-1 65.541550950651569 -14.728840845698976 -0.59989182711119682 #
straight-curve $-1 -65.541550950651569 -10.792179341049437 5.5087401527765181 0 1 0 I I #
edge $-1 $325 -4.2815280713601878 $437 1.8271039085275271 $430 $498 forward 7 unknown #
point $-1 -65.541550950651569 -14.728840845698976 5.5087401527765181 #
edge $-1 $329 -5.5087401527765181 $435 0.59989182711119682 $431 $499 forward 7 unknown #
point $-1 -65.541550950651569 -28.439876518498771 5.5087401527765181 #
straight-curve $-1 65.541550950651569 -28.439876518498771 0 0 0 -1 I I #
plane-surface $-1 0 28.439876518498771 0 0 -1 0 0 0 -1 forward_v I I I I #
coedge $-1 $338 $457 $340 $451 forward $335 $-1 #
vertex $-1 $451 $500 #
straight-curve $-1 -65.541550950651569 14.728840845698976 1.2272120814163303 0 0 1 I I #
edge $-1 $453 -17.647697177449334 $449 -3.936661504649539 $448 $501 forward 7 unknown #
straight-curve $-1 0 14.728840845698976 -0.59989182711119682 -1 0 0 I I #
vertex $-1 $343 $502 #
straight-curve $-1 0 28.439876518498771 -0.59989182711119682 -1 0 0 I I #
point $-1 65.541550950651569 14.728840845698976 -0.59989182711119682 #
point $-1 65.541550950651569 28.439876518498771 -0.59989182711119682 #
coedge $-1 $448 $347 $350 $459 forward $335 $-1 #
straight-curve $-1 -65.541550950651569 10.792179341049437 5.5087401527765181 0 1 0 I I #
edge $-1 $352 -5.5087401527765181 $453 0.59989182711119682 $350 $503 forward 7 unknown #
point $-1 -65.541550950651569 28.439876518498771 5.5087401527765181 #
point $-1 -65.541550950651569 14.728840845698976 5.5087401527765181 #
straight-curve $-1 65.541550950651569 14.728840845698976 1.2272120814163303 0 0 -1 I I #
straight-curve $-1 65.541550950651569 28.439876518498771 0 0 0 -1 I I #
edge $-1 $465 -56.760647434167737 $468 -43.621178010053598 $362 $504 forward 7 unknown #
vertex $-1 $464 $505 #
straight-curve $-1 65.541550950651569 -5.9506312390226404 91.734046585261368 0 0 1 I I #
edge $-1 $468 1.3259318411070558 $373 7.9234669547241126 $372 $506 forward 7 unknown #
vertex $-1 $467 $507 #
straight-curve $-1 -47.979744795775034 -5.9506312390226404 69.946797424096147 0.8660253999169214 0 -0.50000000669873634 I I #
point $-1 65.541550950651583 -5.9506312390226404 4.4052455953534349 #
point $-1 52.40208152653743 -12.548166352639697 11.991321939886937 #
straight-curve $-1 65.541550950651569 0 11.991321939886937 0 1 0 I I #
vertex $-1 $379 $508 #
point $-1 58.688322581874957 -10.663156320177681 7.2072583660285643 #
vertex $-1 $383 $509 #
point $-1 58.688322581874957 -7.8356412714846542 7.2072583660285643 #
coedge $-1 $398 $397 $390 $478 forward $387 $-1 #
edge $-1 $479 -56.760647434167737 $482 -43.621178010053598 $477 $510 forward 7 unknown #
vertex $-1 $478 $511 #
straight-curve $-1 65.541550950651569 12.54816635263969 91.734046585261368 0 0 1 I I #
edge $-1 $482 -7.923466954724109 $399 -1.3259318411070522 $398 $512 forward 7 unknown #
vertex $-1 $481 $513 #
straight-curve $-1 -47.979744795775034 12.54816635263969 69.946797424096147 0.8660253999169214 0 -0.50000000669873634 I I #
point $-1 65.541550950651583 12.54816635263969 4.4052455953534349 #
point $-1 52.40208152653743 5.9506312390226332 11.991321939886937 #
straight-curve $-1 65.541550950651569 0 11.991321939886937 0 1 0 I I #
vertex $-1 $405 $514 #
point $-1 58.688322581874957 7.8356412714846542 7.2072583660285643 #
vertex $-1 $409 $515 #
point $-1 58.688322581874957 10.663156320177684 7.2072583660285643 #
straight-curve $-1 -65.541550950651569 28.439876518498771 0 0 0 -1 I I #
point $-1 -65.541550950651569 -28.439876518498771 -11.991321939886937 #
straight-curve $-1 -65.541550950651569 0 -11.991321939886937 0 1 0 I I #
point $-1 -65.541550950651569 28.439876518498771 -11.991321939886937 #
straight-curve $-1 -65.541550950651569 -10.792179341049437 -0.59989182711119682 0 -1 0 I I #
point $-1 -65.541550950651569 -28.439876518498771 -0.59989182711119682 #
point $-1 -65.541550950651569 -14.728840845698976 -0.59989182711119682 #
straight-curve $-1 -65.541550950651569 -14.728840845698976 1.2272120814163303 0 0 -1 I I #
straight-curve $-1 -65.541550950651569 -28.439876518498771 0 0 0 -1 I I #
point $-1 -65.541550950651569 14.728840845698976 -0.59989182711119682 #
straight-curve $-1 -65.541550950651569 10.792179341049437 -0.59989182711119682 0 -1 0 I I #
point $-1 -65.541550950651569 28.439876518498771 -0.59989182711119682 #
straight-curve $-1 -65.541550950651569 28.439876518498771 0 0 0 -1 I I #
straight-curve $-1 8.780903516483832 -5.9506312390226404 11.991321939886944 -1 0 0 I I #
point $-1 65.541550950651569 -5.9506312390226404 11.991321939886937 #
straight-curve $-1 52.402081526537401 -4.6246993979155846 11.991321939886944 0 -1 0 I I #
point $-1 52.40208152653743 -5.9506312390226404 11.991321939886937 #
point $-1 58.346816230221044 -10.663156320177681 7.1157520177240183 #
point $-1 58.346816230221044 -7.8356412714846542 7.1157520177240183 #
straight-curve $-1 8.780903516483832 12.54816635263969 11.991321939886944 -1 0 0 I I #
point $-1 65.541550950651569 12.54816635263969 11.991321939886937 #
straight-curve $-1 52.402081526537401 4.624699397915581 11.991321939886944 0 -1 0 I I #
point $-1 52.40208152653743 12.54816635263969 11.991321939886937 #
point $-1 58.346816230221044 7.8356412714846542 7.1157520177240183 #
point $-1 58.346816230221044 10.663156320177684 7.1157520177240183 #
End-of-ACIS-data 