500 0 9 0           
7 Unknown 11 ACIS 5.0 NT 24 Fri Mar 26 14:23:46 1999 
-1 9.9999999999999995e-007 1e-010 
body $-1 $9 $-1 $10 #
body $-1 $11 $-1 $12 #
body $-1 $13 $-1 $14 #
body $-1 $15 $-1 $16 #
body $-1 $17 $-1 $18 #
body $-1 $19 $-1 $20 #
body $-1 $21 $-1 $22 #
body $-1 $23 $-1 $24 #
body $-1 $25 $-1 $26 #
lump $-1 $-1 $27 $0 #
transform $-1 1 0 0 0 1 0 0 0 1 47.4184392834254 20.667910031493676 5.0045899399664382 1 rotate no_reflect no_shear #
lump $-1 $-1 $28 $1 #
transform $-1 1 0 0 0 1 0 0 0 1 47.4184392834254 20.667910031493676 5.0045899399664382 1 rotate no_reflect no_shear #
lump $-1 $-1 $29 $2 #
transform $-1 1 0 0 0 1 0 0 0 1 47.4184392834254 20.667910031493676 5.0045899399664382 1 rotate no_reflect no_shear #
lump $-1 $-1 $30 $3 #
transform $-1 1 0 0 0 1 0 0 0 1 47.4184392834254 20.667910031493676 5.0045899399664382 1 rotate no_reflect no_shear #
lump $-1 $-1 $31 $4 #
transform $-1 1 0 0 0 1 0 0 0 1 47.4184392834254 20.667910031493676 5.0045899399664382 1 rotate no_reflect no_shear #
lump $-1 $-1 $32 $5 #
transform $-1 1 0 0 0 1 0 0 0 1 47.4184392834254 20.667910031493676 5.0045899399664382 1 rotate no_reflect no_shear #
lump $-1 $-1 $33 $6 #
transform $-1 1 0 0 0 1 0 0 0 1 47.4184392834254 20.667910031493676 5.0045899399664382 1 rotate no_reflect no_shear #
lump $-1 $-1 $34 $7 #
transform $-1 1 0 0 0 1 0 0 0 1 47.4184392834254 20.667910031493676 5.0045899399664382 1 rotate no_reflect no_shear #
lump $-1 $-1 $35 $8 #
transform $-1 1 0 0 0 1 0 0 0 1 47.4184392834254 20.667910031493676 5.0045899399664382 1 rotate no_reflect no_shear #
shell $-1 $-1 $-1 $36 $-1 $9 #
shell $-1 $-1 $-1 $37 $-1 $11 #
shell $-1 $-1 $-1 $38 $-1 $13 #
shell $-1 $-1 $-1 $39 $-1 $15 #
shell $-1 $-1 $-1 $40 $-1 $17 #
shell $-1 $-1 $-1 $41 $-1 $19 #
shell $-1 $-1 $-1 $42 $-1 $21 #
shell $-1 $-1 $-1 $43 $-1 $23 #
shell $-1 $-1 $-1 $44 $-1 $25 #
face $-1 $45 $46 $27 $-1 $47 forward single #
face $-1 $48 $49 $28 $-1 $50 forward single #
face $-1 $51 $52 $29 $-1 $53 forward single #
face $-1 $54 $55 $30 $-1 $56 reversed single #
face $-1 $57 $58 $31 $-1 $59 forward single #
face $-1 $60 $61 $32 $-1 $62 reversed single #
face $-1 $63 $64 $33 $-1 $65 forward single #
face $-1 $66 $67 $34 $-1 $68 forward single #
face $-1 $69 $70 $35 $-1 $71 forward single #
face $-1 $72 $73 $27 $-1 $74 reversed single #
loop $-1 $-1 $75 $36 #
plane-surface $-1 0 0 5.0045899399664382 0 0 1 1 0 0 forward_v I I I I #
face $-1 $76 $77 $28 $-1 $78 reversed single #
loop $-1 $-1 $79 $37 #
plane-surface $-1 0 -17.94883553682428 -2.0045899399664382 0 0 1 1 0 0 forward_v I I I I #
face $-1 $80 $81 $29 $-1 $82 reversed single #
loop $-1 $-1 $83 $38 #
plane-surface $-1 0 17.948835536824276 -2.0045899399664382 0 0 1 1 0 0 forward_v I I I I #
face $-1 $84 $85 $30 $-1 $86 reversed single #
loop $-1 $-1 $87 $39 #
plane-surface $-1 38.062730350011478 0.33669256545378712 135.17004900911681 0 -1 0 -0.6560590369687036 0 -0.75470957328743171 forward_v I I I I #
face $-1 $88 $89 $31 $-1 $90 forward single #
loop $-1 $91 $92 $40 #
cone-surface $-1 44.103340964315031 -3.3797561281137973 1.7774660796277582 -0.6560590369687036 0 -0.75470957328743171 0.75470957328743171 0 -0.6560590369687036 1 I I 0 1 1 forward I I I I #
face $-1 $93 $94 $32 $-1 $95 reversed single #
loop $-1 $-1 $96 $41 #
plane-surface $-1 -107.10122153017663 8.2546093952126007 75.175302250014227 0 1 0 -0.62932039886446345 0 0.77714595512881146 forward_v I I I I #
face $-1 $97 $98 $33 $-1 $99 forward single #
loop $-1 $100 $101 $42 #
cone-surface $-1 -44.923330934946016 9.6496397246010552 2.8503248297907398 0.62932039886446345 0 -0.77714595512881146 0.38857297756440573 0 0.31466019943223172 1 I I 0 1 0.5 forward I I I I #
face $-1 $102 $103 $34 $-1 $104 forward single #
loop $-1 $105 $106 $43 #
cone-surface $-1 -44.923330934946016 11.742185218683744 2.8503248297907398 0.62932039886446345 0 -0.77714595512881146 0.38857297756440573 0 0.31466019943223172 1 I I 0 1 0.5 forward I I I I #
face $-1 $107 $108 $35 $-1 $109 forward single #
loop $-1 $110 $111 $44 #
cone-surface $-1 -44.923330934946016 13.834730712766429 2.8503248297907398 0.62932039886446345 0 -0.77714595512881146 0.38857297756440573 0 0.31466019943223172 1 I I 0 1 0.5 forward I I I I #
face $-1 $112 $113 $27 $-1 $114 reversed single #
loop $-1 $-1 $115 $45 #
plane-surface $-1 0 0 -5.0045899399664382 0 0 1 1 0 0 forward_v I I I I #
coedge $-1 $116 $117 $118 $119 forward $46 $-1 #
face $-1 $120 $121 $28 $-1 $122 reversed single #
loop $-1 $-1 $123 $48 #
plane-surface $-1 0 -15.229761042154884 -3.5045899399664382 0 -1 0 0 0 -1 forward_v I I I I #
coedge $-1 $124 $125 $126 $127 reversed $49 $-1 #
face $-1 $128 $129 $29 $-1 $130 reversed single #
loop $-1 $-1 $131 $51 #
plane-surface $-1 0 15.22976104215488 -3.5045899399664382 0 1 0 0 0 1 forward_v I I I I #
coedge $-1 $132 $133 $134 $135 reversed $52 $-1 #
face $-1 $136 $137 $30 $-1 $138 reversed single #
loop $-1 $-1 $139 $54 #
plane-surface $-1 -24.155860871674548 -3.3797561281137973 63.595748854016861 0.6560590369687036 0 0.75470957328743171 0.75470957328743171 0 -0.6560590369687036 forward_v I I I I #
coedge $-1 $140 $141 $142 $143 reversed $55 $-1 #
face $-1 $-1 $144 $31 $-1 $145 forward single #
loop $-1 $146 $147 $57 #
cone-surface $-1 42.546654845192748 -3.3797561281137973 -0.013296413536844298 -0.6560590369687036 0 -0.75470957328743171 0.37735478664371586 0 -0.3280295184843518 1 I I -0.70710678118654746 0.70710678118654746 0.5 forward I I I I #
loop $-1 $-1 $148 $40 #
coedge $-1 $92 $92 $149 $150 reversed $58 $-1 #
face $-1 $151 $152 $32 $-1 $153 reversed single #
loop $-1 $-1 $154 $60 #
plane-surface $-1 -47.4184392834254 11.742185218683744 1.473205674743852 -0.62932039886446345 0 0.77714595512881146 0.77714595512881146 0 0.62932039886446345 forward_v I I I I #
coedge $-1 $155 $156 $157 $158 reversed $61 $-1 #
face $-1 $-1 $159 $33 $-1 $160 forward single #
loop $-1 $161 $162 $63 #
cone-surface $-1 -44.451340635797671 9.6496397246010552 2.2674653634441313 0.62932039886446345 0 -0.77714595512881146 0.19428648878220287 0 0.15733009971611586 1 I I -0.70710678118654746 0.70710678118654746 0.25 forward I I I I #
loop $-1 $-1 $163 $42 #
coedge $-1 $101 $101 $164 $165 reversed $64 $-1 #
face $-1 $-1 $166 $34 $-1 $167 forward single #
loop $-1 $168 $169 $66 #
cone-surface $-1 -44.451340635797671 11.742185218683744 2.2674653634441313 0.62932039886446345 0 -0.77714595512881146 0.19428648878220287 0 0.15733009971611586 1 I I -0.70710678118654746 0.70710678118654746 0.25 forward I I I I #
loop $-1 $-1 $170 $43 #
coedge $-1 $106 $106 $171 $172 reversed $67 $-1 #
face $-1 $-1 $173 $35 $-1 $174 forward single #
loop $-1 $175 $176 $69 #
cone-surface $-1 -44.451340635797671 13.834730712766429 2.2674653634441313 0.62932039886446345 0 -0.77714595512881146 0.19428648878220287 0 0.15733009971611586 1 I I -0.70710678118654746 0.70710678118654746 0.25 forward I I I I #
loop $-1 $-1 $177 $44 #
coedge $-1 $111 $111 $178 $179 reversed $70 $-1 #
face $-1 $180 $181 $27 $-1 $182 reversed single #
loop $-1 $-1 $183 $72 #
plane-surface $-1 0 -20.667910031493676 0 0 1 0 0 0 1 forward_v I I I I #
coedge $-1 $184 $185 $186 $187 forward $73 $-1 #
coedge $-1 $188 $75 $189 $190 forward $46 $-1 #
coedge $-1 $75 $188 $191 $192 forward $46 $-1 #
coedge $-1 $193 $194 $75 $119 reversed $195 $-1 #
edge $-1 $196 -20.667910031493676 $197 20.667910031493676 $118 $198 forward 7 unknown #
face $-1 $199 $200 $28 $-1 $201 reversed single #
loop $-1 $-1 $202 $76 #
plane-surface $-1 0 0 -5.0045899399664382 0 0 1 1 0 0 forward_v I I I I #
coedge $-1 $203 $204 $205 $206 reversed $77 $-1 #
coedge $-1 $207 $79 $204 $208 forward $49 $-1 #
coedge $-1 $79 $207 $209 $210 reversed $49 $-1 #
coedge $-1 $211 $205 $79 $127 forward $200 $-1 #
edge $-1 $212 6.2553432737427439 $213 11.693492263081536 $126 $214 forward 7 unknown #
face $-1 $215 $216 $29 $-1 $217 reversed single #
loop $-1 $-1 $134 $80 #
plane-surface $-1 47.4184392834254 0 0 -1 0 0 0 0 1 forward_v I I I I #
coedge $-1 $218 $219 $220 $221 reversed $81 $-1 #
coedge $-1 $222 $83 $223 $224 reversed $52 $-1 #
coedge $-1 $83 $222 $219 $225 forward $52 $-1 #
coedge $-1 $226 $227 $83 $135 forward $129 $-1 #
edge $-1 $228 -11.693492263081534 $229 -6.2553432737427421 $134 $230 forward 7 unknown #
face $-1 $231 $232 $30 $-1 $233 forward single #
loop $-1 $-1 $234 $84 #
plane-surface $-1 38.062730350011478 -7.0962048216813818 135.17004900911681 0 1 0 0.6560590369687036 0 0.75470957328743171 forward_v I I I I #
coedge $-1 $235 $236 $237 $238 reversed $85 $-1 #
coedge $-1 $141 $87 $239 $240 reversed $55 $-1 #
coedge $-1 $87 $140 $235 $241 reversed $55 $-1 #
coedge $-1 $237 $242 $87 $143 forward $232 $-1 #
edge $-1 $243 -28.387074108419661 $244 -24.214190671474789 $142 $245 forward 7 unknown #
loop $-1 $-1 $149 $88 #
plane-surface $-1 -24.155860871674548 -3.3797561281137973 63.595748854016861 0.6560590369687036 0 0.75470957328743171 0.75470957328743171 0 -0.6560590369687036 forward_v I I I I #
loop $-1 $-1 $246 $57 #
coedge $-1 $147 $147 $148 $247 reversed $89 $-1 #
coedge $-1 $148 $148 $147 $247 forward $91 $-1 #
coedge $-1 $149 $149 $92 $150 forward $144 $-1 #
edge $-1 $248 0 $248 6.2831853071796004 $149 $249 forward 7 unknown #
face $-1 $250 $251 $32 $-1 $252 reversed single #
loop $-1 $-1 $253 $93 #
plane-surface $-1 -107.10122153017663 15.229761042154887 75.175302250014227 0 -1 0 0.62932039886446345 0 -0.77714595512881146 forward_v I I I I #
coedge $-1 $254 $255 $256 $257 reversed $94 $-1 #
coedge $-1 $156 $96 $258 $259 reversed $61 $-1 #
coedge $-1 $96 $155 $254 $260 reversed $61 $-1 #
coedge $-1 $256 $261 $96 $158 forward $262 $-1 #
edge $-1 $263 6.1321714816629154 $264 10.493067779757212 $157 $265 forward 7 unknown #
loop $-1 $-1 $164 $97 #
plane-surface $-1 -47.4184392834254 11.742185218683744 1.473205674743852 -0.62932039886446345 0 0.77714595512881146 0.77714595512881146 0 0.62932039886446345 forward_v I I I I #
loop $-1 $-1 $266 $63 #
coedge $-1 $162 $162 $163 $267 reversed $98 $-1 #
coedge $-1 $163 $163 $162 $267 forward $100 $-1 #
coedge $-1 $164 $164 $101 $165 forward $159 $-1 #
edge $-1 $268 0 $268 6.2831853071796004 $164 $269 forward 7 unknown #
loop $-1 $-1 $171 $102 #
plane-surface $-1 -47.4184392834254 11.742185218683744 1.473205674743852 -0.62932039886446345 0 0.77714595512881146 0.77714595512881146 0 0.62932039886446345 forward_v I I I I #
loop $-1 $-1 $270 $66 #
coedge $-1 $169 $169 $170 $271 reversed $103 $-1 #
coedge $-1 $170 $170 $169 $271 forward $105 $-1 #
coedge $-1 $171 $171 $106 $172 forward $166 $-1 #
edge $-1 $272 0 $272 6.2831853071796004 $171 $273 forward 7 unknown #
loop $-1 $-1 $178 $107 #
plane-surface $-1 -47.4184392834254 11.742185218683744 1.473205674743852 -0.62932039886446345 0 0.77714595512881146 0.77714595512881146 0 0.62932039886446345 forward_v I I I I #
loop $-1 $-1 $274 $69 #
coedge $-1 $176 $176 $177 $275 reversed $108 $-1 #
coedge $-1 $177 $177 $176 $275 forward $110 $-1 #
coedge $-1 $178 $178 $111 $179 forward $173 $-1 #
edge $-1 $276 0 $276 6.2831853071796004 $178 $277 forward 7 unknown #
face $-1 $278 $279 $27 $-1 $280 reversed single #
loop $-1 $-1 $281 $112 #
plane-surface $-1 -47.4184392834254 0 0 1 0 0 0 0 -1 forward_v I I I I #
coedge $-1 $282 $191 $283 $284 forward $113 $-1 #
coedge $-1 $285 $115 $282 $286 forward $73 $-1 #
coedge $-1 $115 $285 $287 $288 forward $73 $-1 #
coedge $-1 $194 $193 $115 $187 reversed $195 $-1 #
edge $-1 $289 -20.667910031493676 $290 20.667910031493676 $186 $291 forward 7 unknown #
coedge $-1 $117 $116 $292 $293 forward $46 $-1 #
coedge $-1 $294 $295 $116 $190 reversed $279 $-1 #
edge $-1 $197 -47.4184392834254 $296 47.4184392834254 $189 $297 forward 7 unknown #
coedge $-1 $183 $298 $117 $192 reversed $113 $-1 #
edge $-1 $299 -47.4184392834254 $196 47.4184392834254 $191 $300 forward 7 unknown #
coedge $-1 $186 $118 $298 $301 forward $195 $-1 #
coedge $-1 $118 $186 $294 $302 reversed $195 $-1 #
loop $-1 $-1 $193 $278 #
vertex $-1 $119 $303 #
vertex $-1 $119 $304 #
straight-curve $-1 47.4184392834254 0 5.0045899399664382 0 1 0 I I #
face $-1 $305 $306 $28 $-1 $307 reversed single #
loop $-1 $-1 $205 $120 #
plane-surface $-1 47.4184392834254 0 0 -1 0 0 0 0 1 forward_v I I I I #
coedge $-1 $308 $309 $203 $310 forward $121 $-1 #
coedge $-1 $311 $123 $202 $310 reversed $77 $-1 #
coedge $-1 $123 $311 $124 $208 reversed $77 $-1 #
coedge $-1 $126 $312 $123 $206 forward $200 $-1 #
edge $-1 $313 -3.2522949699832191 $212 -0.2522949699832191 $205 $314 forward 7 unknown #
coedge $-1 $125 $124 $315 $316 reversed $49 $-1 #
edge $-1 $212 -47.4184392834254 $317 47.4184392834254 $204 $318 forward 7 unknown #
coedge $-1 $319 $320 $125 $210 forward $306 $-1 #
edge $-1 $213 -47.4184392834254 $321 47.4184392834254 $209 $322 forward 7 unknown #
coedge $-1 $312 $126 $320 $323 forward $200 $-1 #
vertex $-1 $127 $324 #
vertex $-1 $323 $325 #
straight-curve $-1 47.4184392834254 -8.97441776841214 -2.0045899399664382 0 -1 0 I I #
face $-1 $326 $327 $29 $-1 $328 reversed single #
loop $-1 $-1 $329 $128 #
plane-surface $-1 0 0 -5.0045899399664382 0 0 1 1 0 0 forward_v I I I I #
coedge $-1 $330 $131 $329 $331 reversed $81 $-1 #
coedge $-1 $131 $330 $133 $225 reversed $81 $-1 #
coedge $-1 $332 $333 $131 $221 forward $327 $-1 #
edge $-1 $334 -3.2522949699832191 $335 -0.2522949699832191 $220 $336 forward 7 unknown #
coedge $-1 $133 $132 $332 $337 reversed $52 $-1 #
coedge $-1 $338 $339 $132 $224 forward $340 $-1 #
edge $-1 $341 -47.4184392834254 $228 47.4184392834254 $223 $342 forward 7 unknown #
edge $-1 $335 -47.4184392834254 $229 47.4184392834254 $219 $343 forward 7 unknown #
coedge $-1 $344 $134 $330 $345 forward $129 $-1 #
coedge $-1 $134 $344 $338 $346 reversed $129 $-1 #
vertex $-1 $346 $347 #
vertex $-1 $135 $348 #
straight-curve $-1 47.4184392834254 8.9744177684121382 -2.0045899399664382 0 -1 0 I I #
face $-1 $-1 $349 $30 $-1 $350 reversed single #
loop $-1 $-1 $142 $136 #
plane-surface $-1 0 0 5.0045899399664382 0 0 1 1 0 0 forward_v I I I I #
coedge $-1 $351 $352 $353 $354 reversed $137 $-1 #
coedge $-1 $355 $139 $141 $241 forward $85 $-1 #
coedge $-1 $139 $355 $351 $356 forward $85 $-1 #
coedge $-1 $353 $142 $139 $238 forward $232 $-1 #
edge $-1 $244 -2.0265706295106858 $357 5.4063267576244831 $237 $358 forward 7 unknown #
coedge $-1 $359 $360 $140 $240 forward $349 $-1 #
edge $-1 $361 -66.207866872227569 $243 -62.580434564591968 $239 $362 forward 7 unknown #
edge $-1 $244 89.307753742359381 $361 94.8368785668508 $141 $363 forward 7 unknown #
coedge $-1 $142 $353 $359 $364 forward $232 $-1 #
vertex $-1 $240 $365 #
vertex $-1 $143 $366 #
straight-curve $-1 19.031365175005739 0.33669256545378712 5.0045899399664364 -1 0 0 I I #
coedge $-1 $246 $246 $-1 $367 reversed $146 $-1 #
edge $-1 $368 0 $368 6.2831853071796004 $147 $369 forward 7 unknown #
vertex $-1 $150 $370 #
ellipse-curve $-1 45.331997564952957 -3.3797561281137973 3.190873786148642 0.6560590369687036 0 0.75470957328743171 0.75470957328743171 0 -0.6560590369687036 1 I I #
face $-1 $-1 $262 $32 $-1 $371 forward single #
loop $-1 $-1 $372 $151 #
plane-surface $-1 -47.4184392834254 0 0 1 0 0 0 0 -1 forward_v I I I I #
coedge $-1 $373 $374 $375 $376 reversed $152 $-1 #
coedge $-1 $377 $154 $156 $260 forward $94 $-1 #
coedge $-1 $154 $377 $373 $378 forward $94 $-1 #
coedge $-1 $375 $157 $154 $257 forward $262 $-1 #
edge $-1 $264 2.3835167858707287 $379 9.3586684328130154 $256 $380 forward 7 unknown #
coedge $-1 $381 $382 $155 $259 forward $251 $-1 #
edge $-1 $383 -36.114445450263261 $263 -32.583061185040677 $258 $384 forward 7 unknown #
edge $-1 $264 -5.6114250731337583 $383 0 $156 $385 forward 7 unknown #
coedge $-1 $157 $375 $381 $386 forward $262 $-1 #
loop $-1 $-1 $375 $250 #
vertex $-1 $259 $387 #
vertex $-1 $158 $388 #
straight-curve $-1 -53.550610765088315 8.2546093952126007 5.0045899399664364 1 0 0 I I #
coedge $-1 $266 $266 $-1 $389 reversed $161 $-1 #
edge $-1 $390 0 $390 6.2831853071796004 $162 $391 forward 7 unknown #
vertex $-1 $165 $392 #
ellipse-curve $-1 -45.237991134378248 9.6496397246010552 3.2388978073551482 -0.62932039886446345 0 0.77714595512881146 0.38857297756440573 0 0.31466019943223172 1 I I #
coedge $-1 $270 $270 $-1 $393 reversed $168 $-1 #
edge $-1 $394 0 $394 6.2831853071796004 $169 $395 forward 7 unknown #
vertex $-1 $172 $396 #
ellipse-curve $-1 -45.237991134378248 11.742185218683744 3.2388978073551482 -0.62932039886446345 0 0.77714595512881146 0.38857297756440573 0 0.31466019943223172 1 I I #
coedge $-1 $274 $274 $-1 $397 reversed $175 $-1 #
edge $-1 $398 0 $398 6.2831853071796004 $176 $399 forward 7 unknown #
vertex $-1 $179 $400 #
ellipse-curve $-1 -45.237991134378248 13.834730712766429 3.2388978073551482 -0.62932039886446345 0 0.77714595512881146 0.38857297756440573 0 0.31466019943223172 1 I I #
face $-1 $-1 $195 $27 $-1 $401 reversed single #
loop $-1 $-1 $294 $180 #
plane-surface $-1 0 20.667910031493676 0 0 -1 0 0 0 -1 forward_v I I I I #
coedge $-1 $402 $292 $295 $403 forward $181 $-1 #
coedge $-1 $298 $183 $184 $286 reversed $113 $-1 #
coedge $-1 $292 $402 $183 $284 reversed $181 $-1 #
edge $-1 $299 -5.0045899399664382 $404 5.0045899399664382 $283 $405 forward 7 unknown #
coedge $-1 $185 $184 $402 $406 forward $73 $-1 #
edge $-1 $290 -47.4184392834254 $404 47.4184392834254 $282 $407 forward 7 unknown #
coedge $-1 $295 $294 $185 $288 reversed $279 $-1 #
edge $-1 $408 -47.4184392834254 $289 47.4184392834254 $287 $409 forward 7 unknown #
vertex $-1 $187 $410 #
vertex $-1 $301 $411 #
straight-curve $-1 47.4184392834254 0 -5.0045899399664382 0 -1 0 I I #
coedge $-1 $281 $283 $188 $293 reversed $181 $-1 #
edge $-1 $296 -20.667910031493676 $299 20.667910031493676 $292 $412 forward 7 unknown #
coedge $-1 $287 $189 $194 $302 forward $279 $-1 #
coedge $-1 $189 $287 $281 $403 reversed $279 $-1 #
vertex $-1 $190 $413 #
straight-curve $-1 0 20.667910031493676 5.0045899399664382 -1 0 0 I I #
coedge $-1 $191 $282 $193 $301 reversed $113 $-1 #
vertex $-1 $293 $414 #
straight-curve $-1 0 -20.667910031493676 5.0045899399664382 1 0 0 I I #
edge $-1 $196 -5.0045899399664382 $290 5.0045899399664382 $193 $415 forward 7 unknown #
edge $-1 $197 -5.0045899399664382 $289 5.0045899399664382 $194 $416 forward 7 unknown #
point $-1 47.4184392834254 -20.667910031493676 5.0045899399664382 #
point $-1 47.4184392834254 20.667910031493676 5.0045899399664382 #
face $-1 $-1 $417 $28 $-1 $418 reversed single #
loop $-1 $-1 $209 $199 #
plane-surface $-1 0 -20.667910031493676 0 0 1 0 0 0 1 forward_v I I I I #
coedge $-1 $419 $202 $312 $420 forward $121 $-1 #
coedge $-1 $202 $419 $421 $422 forward $121 $-1 #
edge $-1 $423 -47.4184392834254 $313 47.4184392834254 $202 $424 forward 7 unknown #
coedge $-1 $204 $203 $425 $426 reversed $77 $-1 #
coedge $-1 $205 $211 $308 $420 reversed $200 $-1 #
vertex $-1 $420 $427 #
straight-curve $-1 47.4184392834254 -15.229761042154884 -1.7522949699832191 0 0 1 I I #
coedge $-1 $425 $428 $207 $316 forward $417 $-1 #
edge $-1 $321 -11.693492263081536 $317 -6.2553432737427439 $315 $429 forward 7 unknown #
vertex $-1 $316 $430 #
straight-curve $-1 0 -15.229761042154884 -2.0045899399664382 -1 0 0 I I #
coedge $-1 $431 $209 $428 $432 forward $306 $-1 #
coedge $-1 $209 $431 $211 $323 reversed $306 $-1 #
vertex $-1 $432 $433 #
straight-curve $-1 0 -20.667910031493676 -2.0045899399664382 -1 0 0 I I #
edge $-1 $213 2.0045899399664382 $434 5.0045899399664382 $211 $435 forward 7 unknown #
point $-1 47.4184392834254 -15.229761042154884 -2.0045899399664382 #
point $-1 47.4184392834254 -20.667910031493676 -2.0045899399664382 #
face $-1 $-1 $340 $29 $-1 $436 reversed single #
loop $-1 $-1 $332 $215 #
plane-surface $-1 -47.4184392834254 0 0 1 0 0 0 0 -1 forward_v I I I I #
coedge $-1 $437 $438 $218 $331 forward $216 $-1 #
coedge $-1 $219 $218 $226 $345 reversed $81 $-1 #
edge $-1 $439 -47.4184392834254 $334 47.4184392834254 $329 $440 forward 7 unknown #
coedge $-1 $441 $220 $222 $337 forward $327 $-1 #
coedge $-1 $220 $441 $437 $442 reversed $327 $-1 #
vertex $-1 $442 $443 #
vertex $-1 $337 $444 #
straight-curve $-1 -47.4184392834254 15.22976104215488 -1.7522949699832191 0 0 1 I I #
edge $-1 $335 6.2553432737427421 $341 11.693492263081534 $332 $445 forward 7 unknown #
coedge $-1 $446 $223 $227 $346 forward $340 $-1 #
coedge $-1 $223 $446 $441 $447 reversed $340 $-1 #
loop $-1 $-1 $223 $326 #
vertex $-1 $447 $448 #
straight-curve $-1 0 20.667910031493676 -2.0045899399664382 1 0 0 I I #
straight-curve $-1 0 15.22976104215488 -2.0045899399664382 1 0 0 I I #
coedge $-1 $227 $226 $438 $449 reversed $129 $-1 #
edge $-1 $229 0.2522949699832191 $439 3.2522949699832191 $226 $450 forward 7 unknown #
edge $-1 $228 2.0045899399664382 $451 5.0045899399664382 $227 $452 forward 7 unknown #
point $-1 47.4184392834254 20.667910031493673 -2.0045899399664382 #
point $-1 47.4184392834254 15.22976104215488 -2.0045899399664382 #
loop $-1 $-1 $239 $231 #
plane-surface $-1 47.4184392834254 0 0 -1 0 0 0 0 1 forward_v I I I I #
coedge $-1 $352 $234 $236 $356 reversed $137 $-1 #
coedge $-1 $234 $351 $453 $454 reversed $137 $-1 #
coedge $-1 $242 $237 $234 $354 forward $232 $-1 #
edge $-1 $357 24.214190671474789 $455 28.387074108419661 $353 $456 forward 7 unknown #
coedge $-1 $236 $235 $360 $457 reversed $85 $-1 #
edge $-1 $458 -94.8368785668508 $357 -89.307753742359381 $351 $459 forward 7 unknown #
vertex $-1 $238 $460 #
straight-curve $-1 43.245555846480521 -1.6898780640568987 5.0045899399664364 0 -1 0 I I #
coedge $-1 $453 $239 $242 $364 reversed $349 $-1 #
coedge $-1 $239 $453 $355 $457 forward $349 $-1 #
vertex $-1 $240 $461 #
straight-curve $-1 47.4184392834254 0.33669256545378712 67.585024504558405 0 0 1 I I #
straight-curve $-1 -24.155860871674548 0.33669256545378712 63.595748854016861 0.75470957328743171 0 -0.6560590369687036 I I #
edge $-1 $455 -7.0962048216813818 $243 0.33669256545378712 $359 $462 forward 7 unknown #
point $-1 47.4184392834254 0.33669256545378712 5.0045899399664382 #
point $-1 43.245555846480528 0.33669256545378712 5.0045899399664364 #
edge $-1 $463 1 $463 0 $246 $-1 forward 7 unknown #
vertex $-1 $247 $464 #
ellipse-curve $-1 42.874684363677098 -3.3797561281137973 0.36405837310687156 0.6560590369687036 0 0.75470957328743171 0.75470957328743171 0 -0.6560590369687036 1 I I #
point $-1 46.086707138240385 -3.3797561281137973 2.5348147491799411 #
plane-surface $-1 0 0 5.0045899399664382 0 0 1 1 0 0 forward_v I I I I #
coedge $-1 $382 $381 $374 $465 forward $251 $-1 #
coedge $-1 $374 $253 $255 $378 reversed $152 $-1 #
coedge $-1 $253 $373 $372 $465 reversed $152 $-1 #
coedge $-1 $261 $256 $253 $376 forward $262 $-1 #
edge $-1 $379 -10.493067779757212 $466 -6.1321714816629154 $375 $467 forward 7 unknown #
coedge $-1 $255 $254 $382 $468 reversed $94 $-1 #
edge $-1 $469 0 $379 5.6114250731337583 $373 $470 forward 7 unknown #
vertex $-1 $257 $471 #
straight-curve $-1 -43.057542985331111 5.871092609341872 5.0045899399664364 0 1 0 I I #
coedge $-1 $372 $258 $261 $386 reversed $251 $-1 #
coedge $-1 $258 $372 $377 $468 forward $251 $-1 #
vertex $-1 $259 $472 #
straight-curve $-1 -47.4184392834254 8.2546093952126007 37.587651125007113 0 0 1 I I #
straight-curve $-1 -47.4184392834254 8.2546093952126007 1.473205674743852 -0.77714595512881146 0 -0.62932039886446345 I I #
edge $-1 $466 -15.229761042154887 $263 -8.2546093952126007 $381 $473 forward 7 unknown #
point $-1 -47.4184392834254 8.2546093952126007 5.0045899399664382 #
point $-1 -43.057542985331104 8.2546093952126007 5.0045899399664382 #
edge $-1 $474 1 $474 0 $266 $-1 forward 7 unknown #
vertex $-1 $267 $475 #
ellipse-curve $-1 -44.608670735513783 9.6496397246010552 2.461751852226334 -0.62932039886446345 0 0.77714595512881146 0.38857297756440573 0 0.31466019943223172 1 I I #
point $-1 -44.849418156813847 9.6496397246010552 3.5535580067873775 #
edge $-1 $476 1 $476 0 $270 $-1 forward 7 unknown #
vertex $-1 $271 $477 #
ellipse-curve $-1 -44.608670735513783 11.742185218683744 2.461751852226334 -0.62932039886446345 0 0.77714595512881146 0.38857297756440573 0 0.31466019943223172 1 I I #
point $-1 -44.849418156813847 11.742185218683744 3.5535580067873775 #
edge $-1 $478 1 $478 0 $274 $-1 forward 7 unknown #
vertex $-1 $275 $479 #
ellipse-curve $-1 -44.608670735513783 13.834730712766429 2.461751852226334 -0.62932039886446345 0 0.77714595512881146 0.38857297756440573 0 0.31466019943223172 1 I I #
point $-1 -44.849418156813847 13.834730712766429 3.5535580067873775 #
plane-surface $-1 47.4184392834254 0 0 -1 0 0 0 0 1 forward_v I I I I #
coedge $-1 $283 $281 $285 $406 reversed $181 $-1 #
edge $-1 $296 -5.0045899399664382 $408 5.0045899399664382 $295 $480 forward 7 unknown #
vertex $-1 $406 $481 #
straight-curve $-1 -47.4184392834254 -20.667910031493676 0 0 0 -1 I I #
edge $-1 $404 -20.667910031493676 $408 20.667910031493676 $402 $482 forward 7 unknown #
straight-curve $-1 0 -20.667910031493676 -5.0045899399664382 -1 0 0 I I #
vertex $-1 $288 $483 #
straight-curve $-1 0 20.667910031493676 -5.0045899399664382 1 0 0 I I #
point $-1 47.4184392834254 20.667910031493676 -5.0045899399664382 #
point $-1 47.4184392834254 -20.667910031493676 -5.0045899399664382 #
straight-curve $-1 -47.4184392834254 0 5.0045899399664382 0 -1 0 I I #
point $-1 -47.4184392834254 20.667910031493676 5.0045899399664382 #
point $-1 -47.4184392834254 -20.667910031493676 5.0045899399664382 #
straight-curve $-1 47.4184392834254 -20.667910031493676 0 0 0 -1 I I #
straight-curve $-1 47.4184392834254 20.667910031493676 0 0 0 -1 I I #
loop $-1 $-1 $425 $305 #
plane-surface $-1 -47.4184392834254 0 0 1 0 0 0 0 -1 forward_v I I I I #
coedge $-1 $309 $308 $431 $484 forward $121 $-1 #
edge $-1 $313 15.229761042154884 $434 20.667910031493676 $312 $485 forward 7 unknown #
coedge $-1 $428 $425 $309 $422 reversed $417 $-1 #
edge $-1 $486 -20.667910031493676 $423 -15.229761042154884 $421 $487 forward 7 unknown #
vertex $-1 $426 $488 #
straight-curve $-1 0 -15.229761042154884 -5.0045899399664382 1 0 0 I I #
coedge $-1 $421 $315 $311 $426 forward $417 $-1 #
edge $-1 $317 0.2522949699832191 $423 3.2522949699832191 $425 $489 forward 7 unknown #
point $-1 47.4184392834254 -15.229761042154884 -5.0045899399664382 #
coedge $-1 $315 $421 $319 $432 reversed $417 $-1 #
straight-curve $-1 -47.4184392834254 -8.97441776841214 -2.0045899399664382 0 1 0 I I #
point $-1 -47.4184392834254 -15.229761042154884 -2.0045899399664382 #
coedge $-1 $320 $319 $419 $484 reversed $306 $-1 #
edge $-1 $321 2.0045899399664382 $486 5.0045899399664382 $428 $490 forward 7 unknown #
point $-1 -47.4184392834254 -20.667910031493676 -2.0045899399664382 #
vertex $-1 $323 $491 #
straight-curve $-1 47.4184392834254 -20.667910031493676 0 0 0 -1 I I #
plane-surface $-1 0 20.667910031493676 0 0 -1 0 0 0 -1 forward_v I I I I #
coedge $-1 $492 $329 $333 $442 forward $216 $-1 #
coedge $-1 $329 $492 $344 $449 forward $216 $-1 #
vertex $-1 $331 $493 #
straight-curve $-1 0 15.22976104215488 -5.0045899399664382 -1 0 0 I I #
coedge $-1 $333 $332 $339 $447 forward $327 $-1 #
edge $-1 $334 15.22976104215488 $494 20.667910031493676 $333 $495 forward 7 unknown #
point $-1 -47.4184392834254 15.22976104215488 -5.0045899399664382 #
point $-1 -47.4184392834254 15.22976104215488 -2.0045899399664382 #
straight-curve $-1 -47.4184392834254 8.9744177684121382 -2.0045899399664382 0 1 0 I I #
coedge $-1 $339 $338 $492 $496 reversed $340 $-1 #
edge $-1 $341 2.0045899399664382 $494 5.0045899399664382 $339 $497 forward 7 unknown #
point $-1 -47.4184392834254 20.667910031493673 -2.0045899399664382 #
edge $-1 $451 -20.667910031493676 $439 -15.22976104215488 $344 $498 forward 7 unknown #
straight-curve $-1 47.4184392834254 15.22976104215488 -1.7522949699832191 0 0 -1 I I #
vertex $-1 $449 $499 #
straight-curve $-1 47.4184392834254 20.667910031493676 0 0 0 -1 I I #
coedge $-1 $360 $359 $352 $454 forward $349 $-1 #
edge $-1 $455 62.580434564591968 $458 66.207866872227569 $453 $500 forward 7 unknown #
vertex $-1 $364 $501 #
straight-curve $-1 19.031365175005739 -7.0962048216813818 5.0045899399664364 1 0 0 I I #
edge $-1 $458 -5.4063267576244831 $361 2.0265706295106858 $360 $502 forward 7 unknown #
vertex $-1 $457 $503 #
straight-curve $-1 -24.155860871674548 -7.0962048216813818 63.595748854016861 -0.75470957328743171 0 0.6560590369687036 I I #
point $-1 43.245555846480528 -7.0962048216813818 5.0045899399664364 #
point $-1 47.4184392834254 0.33669256545378712 1.3771576323308352 #
straight-curve $-1 47.4184392834254 0 5.0045899399664382 0 1 0 I I #
vertex $-1 $367 $504 #
point $-1 43.629393936964533 -3.3797561281137973 -0.29200066386183204 #
edge $-1 $466 32.583061185040677 $469 36.114445450263261 $372 $505 forward 7 unknown #
vertex $-1 $386 $506 #
straight-curve $-1 -53.550610765088315 15.229761042154887 5.0045899399664364 -1 0 0 I I #
edge $-1 $469 -9.3586684328130154 $383 -2.3835167858707287 $382 $507 forward 7 unknown #
vertex $-1 $468 $508 #
straight-curve $-1 -47.4184392834254 15.229761042154887 1.473205674743852 0.77714595512881146 0 0.62932039886446345 I I #
point $-1 -43.057542985331104 15.229761042154887 5.0045899399664382 #
point $-1 -47.4184392834254 8.2546093952126007 1.473205674743852 #
straight-curve $-1 -47.4184392834254 0 5.0045899399664382 0 -1 0 I I #
vertex $-1 $389 $509 #
point $-1 -44.220097757949382 9.6496397246010552 2.776412051658566 #
vertex $-1 $393 $510 #
point $-1 -44.220097757949382 11.742185218683744 2.776412051658566 #
vertex $-1 $397 $511 #
point $-1 -44.220097757949382 13.834730712766429 2.776412051658566 #
straight-curve $-1 -47.4184392834254 20.667910031493676 0 0 0 -1 I I #
point $-1 -47.4184392834254 -20.667910031493676 -5.0045899399664382 #
straight-curve $-1 -47.4184392834254 0 -5.0045899399664382 0 1 0 I I #
point $-1 -47.4184392834254 20.667910031493676 -5.0045899399664382 #
edge $-1 $434 -47.4184392834254 $486 47.4184392834254 $431 $512 forward 7 unknown #
straight-curve $-1 47.4184392834254 0 -5.0045899399664382 0 -1 0 I I #
vertex $-1 $422 $513 #
straight-curve $-1 -47.4184392834254 0 -5.0045899399664382 0 1 0 I I #
point $-1 -47.4184392834254 -15.229761042154884 -5.0045899399664382 #
straight-curve $-1 -47.4184392834254 -15.229761042154884 -1.7522949699832191 0 0 -1 I I #
straight-curve $-1 -47.4184392834254 -20.667910031493676 0 0 0 -1 I I #
point $-1 47.4184392834254 -20.667910031493676 -5.0045899399664382 #
coedge $-1 $438 $437 $446 $496 forward $216 $-1 #
point $-1 47.4184392834254 15.22976104215488 -5.0045899399664382 #
vertex $-1 $496 $514 #
straight-curve $-1 -47.4184392834254 0 -5.0045899399664382 0 1 0 I I #
edge $-1 $494 -47.4184392834254 $451 47.4184392834254 $446 $515 forward 7 unknown #
straight-curve $-1 -47.4184392834254 20.667910031493676 0 0 0 -1 I I #
straight-curve $-1 47.4184392834254 0 -5.0045899399664382 0 -1 0 I I #
point $-1 47.4184392834254 20.667910031493676 -5.0045899399664382 #
straight-curve $-1 47.4184392834254 -7.0962048216813818 67.585024504558405 0 0 -1 I I #
point $-1 47.4184392834254 -7.0962048216813818 5.0045899399664382 #
straight-curve $-1 47.4184392834254 -1.6898780640568987 1.3771576323308352 0 1 0 I I #
point $-1 47.4184392834254 -7.0962048216813818 1.3771576323308352 #
point $-1 42.218625326708398 -3.3797561281137973 -0.39065120018056015 #
straight-curve $-1 -47.4184392834254 15.229761042154887 37.587651125007113 0 0 -1 I I #
point $-1 -47.4184392834254 15.229761042154887 5.0045899399664382 #
straight-curve $-1 -47.4184392834254 5.871092609341872 1.4732056747438524 0 -1 0 I I #
point $-1 -47.4184392834254 15.229761042154887 1.473205674743852 #
point $-1 -44.294010536081558 9.6496397246010552 2.0731788746619286 #
point $-1 -44.294010536081558 11.742185218683744 2.0731788746619286 #
point $-1 -44.294010536081558 13.834730712766429 2.0731788746619286 #
straight-curve $-1 0 -20.667910031493676 -5.0045899399664382 -1 0 0 I I #
point $-1 -47.4184392834254 -20.667910031493676 -5.0045899399664382 #
point $-1 -47.4184392834254 20.667910031493676 -5.0045899399664382 #
straight-curve $-1 0 20.667910031493676 -5.0045899399664382 1 0 0 I I #
End-of-ACIS-data 