500 0 3 0           
7 Unknown 11 ACIS 5.0 NT 24 Fri Mar 26 03:27:28 1999 
-1 9.9999999999999995e-007 1e-010 
body $-1 $3 $-1 $4 #
body $-1 $5 $-1 $6 #
body $-1 $7 $-1 $8 #
lump $-1 $-1 $9 $0 #
transform $-1 1 0 0 0 1 0 0 0 1 66.34846034119694 42.525825655073213 18.9365618498237 1 rotate no_reflect no_shear #
lump $-1 $-1 $10 $1 #
transform $-1 1 0 0 0 1 0 0 0 1 66.34846034119694 42.525825655073213 18.9365618498237 1 rotate no_reflect no_shear #
lump $-1 $-1 $11 $2 #
transform $-1 1 0 0 0 1 0 0 0 1 66.34846034119694 42.525825655073213 18.9365618498237 1 rotate no_reflect no_shear #
shell $-1 $-1 $-1 $12 $-1 $3 #
shell $-1 $-1 $-1 $13 $-1 $5 #
shell $-1 $-1 $-1 $14 $-1 $7 #
face $-1 $15 $16 $9 $-1 $17 forward single #
face $-1 $18 $19 $10 $-1 $20 forward single #
face $-1 $21 $22 $11 $-1 $23 reversed single #
face $-1 $24 $25 $9 $-1 $26 reversed single #
loop $-1 $-1 $27 $12 #
plane-surface $-1 0 0 18.9365618498237 0 0 1 1 0 0 forward_v I I I I #
face $-1 $28 $29 $10 $-1 $30 forward single #
loop $-1 $-1 $31 $13 #
plane-surface $-1 53.969097507004747 -42.525825655073206 15.673927388356205 0 -0.82903758062907751 0.55919289150049634 1 0 0 forward_v I I I I #
face $-1 $32 $33 $11 $-1 $34 reversed single #
loop $-1 $35 $36 $14 #
cone-surface $-1 53.969097507004733 -41.006706316199981 17.022772597235157 0 0.82903758062907751 -0.55919289150049634 0.5 0 0 1 I I 0 1 0.5 forward I I I I #
face $-1 $37 $38 $9 $-1 $39 reversed single #
loop $-1 $-1 $40 $15 #
plane-surface $-1 0 0 -18.9365618498237 0 0 1 1 0 0 forward_v I I I I #
coedge $-1 $41 $42 $43 $44 forward $16 $-1 #
face $-1 $45 $46 $10 $-1 $47 forward single #
loop $-1 $-1 $48 $18 #
plane-surface $-1 41.589734672812547 -152.53655973453363 89.87710215795606 1 0 0 0 0.82903758062907751 -0.55919289150049634 forward_v I I I I #
coedge $-1 $49 $50 $51 $52 reversed $19 $-1 #
face $-1 $53 $54 $11 $-1 $55 forward single #
loop $-1 $56 $57 $21 #
cone-surface $-1 53.969097507004733 -40.380664913700798 16.600502352505234 0 0.82903758062907751 -0.55919289150049634 0.25 0 0 1 I I -0.70710678118654746 0.70710678118654746 0.25 forward I I I I #
loop $-1 $-1 $58 $14 #
coedge $-1 $36 $36 $59 $60 reversed $22 $-1 #
face $-1 $61 $62 $9 $-1 $63 reversed single #
loop $-1 $-1 $64 $24 #
plane-surface $-1 0 -42.525825655073213 0 0 1 0 0 0 1 forward_v I I I I #
coedge $-1 $65 $66 $67 $68 forward $25 $-1 #
coedge $-1 $69 $27 $70 $71 forward $16 $-1 #
coedge $-1 $27 $69 $72 $73 forward $16 $-1 #
coedge $-1 $74 $75 $27 $44 reversed $76 $-1 #
edge $-1 $77 -42.525825655073213 $78 42.525825655073213 $43 $79 forward 7 unknown #
face $-1 $80 $81 $10 $-1 $82 reversed single #
loop $-1 $-1 $83 $28 #
plane-surface $-1 0 0 18.9365618498237 0 0 1 1 0 0 forward_v I I I I #
coedge $-1 $84 $85 $83 $86 reversed $29 $-1 #
coedge $-1 $87 $31 $85 $88 reversed $19 $-1 #
coedge $-1 $31 $87 $89 $90 reversed $19 $-1 #
coedge $-1 $91 $83 $31 $52 forward $46 $-1 #
edge $-1 $92 14.605185919310173 $93 39.363911587694581 $51 $94 forward 7 unknown #
face $-1 $95 $96 $11 $-1 $97 forward single #
loop $-1 $98 $59 $32 #
plane-surface $-1 53.969097507004747 -42.525825655073206 15.673927388356205 0 -0.82903758062907751 0.55919289150049634 1 0 0 forward_v I I I I #
loop $-1 $-1 $99 $21 #
coedge $-1 $57 $57 $58 $100 forward $33 $-1 #
coedge $-1 $58 $58 $57 $100 reversed $35 $-1 #
coedge $-1 $59 $59 $36 $60 forward $54 $-1 #
edge $-1 $101 -9.7253899787563103e-015 $101 6.2831853071795907 $59 $102 forward 7 unknown #
face $-1 $103 $104 $9 $-1 $105 reversed single #
loop $-1 $-1 $106 $37 #
plane-surface $-1 -66.34846034119694 0 0 1 0 0 0 0 -1 forward_v I I I I #
coedge $-1 $107 $72 $108 $109 forward $38 $-1 #
coedge $-1 $110 $40 $107 $111 forward $25 $-1 #
coedge $-1 $40 $110 $112 $113 forward $25 $-1 #
coedge $-1 $75 $74 $40 $68 reversed $76 $-1 #
edge $-1 $114 -42.525825655073213 $115 42.525825655073213 $67 $116 forward 7 unknown #
coedge $-1 $42 $41 $117 $118 forward $16 $-1 #
coedge $-1 $119 $120 $41 $71 reversed $104 $-1 #
edge $-1 $78 -66.34846034119694 $121 66.34846034119694 $70 $122 forward 7 unknown #
coedge $-1 $64 $123 $42 $73 reversed $38 $-1 #
edge $-1 $124 -66.34846034119694 $77 66.34846034119694 $72 $125 forward 7 unknown #
coedge $-1 $67 $43 $123 $126 forward $76 $-1 #
coedge $-1 $43 $67 $119 $127 reversed $76 $-1 #
loop $-1 $-1 $74 $103 #
vertex $-1 $44 $128 #
vertex $-1 $44 $129 #
straight-curve $-1 66.34846034119694 0 18.9365618498237 0 1 0 I I #
face $-1 $130 $131 $10 $-1 $132 reversed single #
loop $-1 $-1 $89 $45 #
plane-surface $-1 66.34846034119694 0 0 -1 0 0 0 0 1 forward_v I I I I #
coedge $-1 $51 $133 $48 $86 forward $46 $-1 #
coedge $-1 $85 $48 $134 $135 reversed $29 $-1 #
coedge $-1 $48 $84 $49 $88 forward $29 $-1 #
edge $-1 $136 33.7424542121936 $92 35.943128875256264 $83 $137 forward 7 unknown #
coedge $-1 $50 $49 $138 $139 reversed $19 $-1 #
edge $-1 $140 -1.2809303928265426e-014 $92 3.9354482085019535 $85 $141 forward 7 unknown #
coedge $-1 $142 $143 $50 $90 forward $81 $-1 #
edge $-1 $93 1.4574840767519004 $144 5.3929322852538668 $89 $145 forward 7 unknown #
coedge $-1 $146 $51 $143 $147 forward $46 $-1 #
vertex $-1 $52 $148 #
vertex $-1 $147 $149 #
straight-curve $-1 26.984548753502374 -40.325150992010556 18.9365618498237 1 0 0 I I #
face $-1 $150 $151 $11 $-1 $152 forward single #
loop $-1 $-1 $153 $53 #
plane-surface $-1 41.589734672812547 -152.53655973453363 89.87710215795606 1 0 0 0 0.82903758062907751 -0.55919289150049634 forward_v I I I I #
loop $-1 $-1 $154 $32 #
coedge $-1 $99 $99 $-1 $155 forward $56 $-1 #
edge $-1 $156 0 $156 6.2831853071796004 $57 $157 forward 7 unknown #
vertex $-1 $60 $158 #
ellipse-curve $-1 53.969097507004733 -41.425488323541884 17.305244619089947 0 0.82903758062907751 -0.55919289150049634 0.5 0 0 1 I I #
face $-1 $-1 $76 $9 $-1 $159 reversed single #
loop $-1 $-1 $119 $61 #
plane-surface $-1 0 42.525825655073213 0 0 -1 0 0 0 -1 forward_v I I I I #
coedge $-1 $160 $117 $120 $161 forward $62 $-1 #
coedge $-1 $123 $64 $65 $111 reversed $38 $-1 #
coedge $-1 $117 $160 $64 $109 reversed $62 $-1 #
edge $-1 $124 -18.9365618498237 $162 18.9365618498237 $108 $163 forward 7 unknown #
coedge $-1 $66 $65 $160 $164 forward $25 $-1 #
edge $-1 $115 -66.34846034119694 $162 66.34846034119694 $107 $165 forward 7 unknown #
coedge $-1 $120 $119 $66 $113 reversed $104 $-1 #
edge $-1 $166 -66.34846034119694 $114 66.34846034119694 $112 $167 forward 7 unknown #
vertex $-1 $68 $168 #
vertex $-1 $126 $169 #
straight-curve $-1 66.34846034119694 0 -18.9365618498237 0 -1 0 I I #
coedge $-1 $106 $108 $69 $118 reversed $62 $-1 #
edge $-1 $121 -42.525825655073213 $124 42.525825655073213 $117 $170 forward 7 unknown #
coedge $-1 $112 $70 $75 $127 forward $104 $-1 #
coedge $-1 $70 $112 $106 $161 reversed $104 $-1 #
vertex $-1 $71 $171 #
straight-curve $-1 0 42.525825655073213 18.9365618498237 -1 0 0 I I #
coedge $-1 $72 $107 $74 $126 reversed $38 $-1 #
vertex $-1 $118 $172 #
straight-curve $-1 0 -42.525825655073213 18.9365618498237 1 0 0 I I #
edge $-1 $77 -18.9365618498237 $115 18.9365618498237 $74 $173 forward 7 unknown #
edge $-1 $78 -18.9365618498237 $114 18.9365618498237 $75 $174 forward 7 unknown #
point $-1 66.34846034119694 -42.525825655073213 18.9365618498237 #
point $-1 66.34846034119694 42.525825655073213 18.9365618498237 #
face $-1 $175 $176 $10 $-1 $177 reversed single #
loop $-1 $-1 $178 $80 #
plane-surface $-1 0 0 -18.9365618498237 0 0 1 1 0 0 forward_v I I I I #
coedge $-1 $83 $179 $180 $181 forward $46 $-1 #
coedge $-1 $180 $138 $84 $135 forward $176 $-1 #
edge $-1 $140 -29.264623690621836 $136 -26.001989229154329 $134 $182 forward 7 unknown #
vertex $-1 $135 $183 #
straight-curve $-1 41.589734672812547 -76.268279867266813 18.936561849823697 0 1 0 I I #
coedge $-1 $134 $184 $87 $139 forward $176 $-1 #
edge $-1 $144 -39.363911587694581 $140 -14.605185919310173 $138 $185 forward 7 unknown #
vertex $-1 $139 $186 #
straight-curve $-1 41.589734672812547 -42.525825655073206 15.673927388356205 0 0.55919289150049634 0.82903758062907751 I I #
coedge $-1 $187 $89 $184 $188 forward $81 $-1 #
coedge $-1 $89 $189 $91 $147 reversed $81 $-1 #
vertex $-1 $188 $190 #
straight-curve $-1 66.34846034119694 -39.510136256815727 20.144870922619504 0 -0.55919289150049634 -0.82903758062907751 I I #
coedge $-1 $179 $91 $191 $192 forward $46 $-1 #
edge $-1 $93 -40.325150992010549 $193 42.525825655073213 $143 $194 forward 7 unknown #
point $-1 41.589734672812547 -40.325150992010549 18.9365618498237 #
point $-1 66.348460341196954 -40.325150992010549 18.9365618498237 #
face $-1 $195 $196 $11 $-1 $197 reversed single #
loop $-1 $-1 $198 $95 #
plane-surface $-1 0 0 18.9365618498237 0 0 1 1 0 0 forward_v I I I I #
coedge $-1 $199 $200 $198 $201 reversed $96 $-1 #
coedge $-1 $202 $203 $204 $205 reversed $98 $-1 #
edge $-1 $206 1 $206 0 $99 $-1 forward 7 unknown #
vertex $-1 $100 $207 #
ellipse-curve $-1 53.969097507004733 -40.587924308858071 16.74030057538036 0 -0.82903758062907751 0.55919289150049634 0.5 0 0 1 I I #
point $-1 54.469097507004733 -41.425488323541892 17.305244619089958 #
plane-surface $-1 66.34846034119694 0 0 -1 0 0 0 0 1 forward_v I I I I #
coedge $-1 $108 $106 $110 $164 reversed $62 $-1 #
edge $-1 $121 -18.9365618498237 $166 18.9365618498237 $120 $208 forward 7 unknown #
vertex $-1 $164 $209 #
straight-curve $-1 -66.34846034119694 -42.525825655073213 0 0 0 -1 I I #
edge $-1 $162 -42.525825655073213 $166 42.525825655073213 $160 $210 forward 7 unknown #
straight-curve $-1 0 -42.525825655073213 -18.9365618498237 -1 0 0 I I #
vertex $-1 $113 $211 #
straight-curve $-1 0 42.525825655073213 -18.9365618498237 1 0 0 I I #
point $-1 66.34846034119694 42.525825655073213 -18.9365618498237 #
point $-1 66.34846034119694 -42.525825655073213 -18.9365618498237 #
straight-curve $-1 -66.34846034119694 0 18.9365618498237 0 -1 0 I I #
point $-1 -66.34846034119694 42.525825655073213 18.9365618498237 #
point $-1 -66.34846034119694 -42.525825655073213 18.9365618498237 #
straight-curve $-1 66.34846034119694 -42.525825655073213 0 0 0 -1 I I #
straight-curve $-1 66.34846034119694 42.525825655073213 0 0 0 -1 I I #
face $-1 $212 $213 $10 $-1 $214 reversed single #
loop $-1 $-1 $134 $130 #
plane-surface $-1 0 -42.525825655073213 0 0 1 0 0 0 1 forward_v I I I I #
coedge $-1 $215 $216 $187 $217 forward $131 $-1 #
coedge $-1 $133 $146 $218 $219 forward $46 $-1 #
coedge $-1 $220 $134 $133 $181 reversed $176 $-1 #
edge $-1 $221 -66.34846034119694 $136 41.589734672812547 $180 $222 forward 7 unknown #
straight-curve $-1 41.589734672812547 -42.525825655073213 44.93855107897803 0 0 1 I I #
point $-1 41.589734672812547 -42.525825655073213 18.9365618498237 #
coedge $-1 $138 $223 $142 $188 reversed $176 $-1 #
straight-curve $-1 26.984548753502374 -42.525825655073213 15.673927388356185 -1 0 0 I I #
point $-1 41.589734672812547 -42.525825655073213 15.673927388356194 #
coedge $-1 $189 $142 $178 $217 reversed $81 $-1 #
edge $-1 $144 -15.673927388356194 $224 18.9365618498237 $142 $225 forward 7 unknown #
coedge $-1 $143 $187 $226 $227 reversed $81 $-1 #
point $-1 66.348460341196954 -42.525825655073213 15.673927388356194 #
coedge $-1 $226 $228 $146 $192 reversed $229 $-1 #
edge $-1 $193 -66.34846034119694 $230 66.34846034119694 $191 $231 forward 7 unknown #
vertex $-1 $147 $232 #
straight-curve $-1 66.34846034119694 0 18.9365618498237 0 1 0 I I #
face $-1 $233 $234 $11 $-1 $235 reversed single #
loop $-1 $-1 $236 $150 #
plane-surface $-1 66.34846034119694 0 0 -1 0 0 0 0 1 forward_v I I I I #
coedge $-1 $204 $237 $153 $201 forward $151 $-1 #
coedge $-1 $200 $153 $238 $239 reversed $96 $-1 #
coedge $-1 $153 $199 $202 $240 forward $96 $-1 #
edge $-1 $241 33.7424542121936 $242 35.943128875256264 $198 $243 forward 7 unknown #
coedge $-1 $244 $154 $200 $240 reversed $98 $-1 #
coedge $-1 $154 $244 $236 $245 reversed $98 $-1 #
coedge $-1 $246 $198 $154 $205 forward $151 $-1 #
edge $-1 $242 14.605185919310173 $247 39.363911587694581 $204 $248 forward 7 unknown #
vertex $-1 $155 $249 #
point $-1 54.469097507004733 -40.587924308858071 16.74030057538036 #
straight-curve $-1 -66.34846034119694 42.525825655073213 0 0 0 -1 I I #
point $-1 -66.34846034119694 -42.525825655073213 -18.9365618498237 #
straight-curve $-1 -66.34846034119694 0 -18.9365618498237 0 1 0 I I #
point $-1 -66.34846034119694 42.525825655073213 -18.9365618498237 #
face $-1 $-1 $229 $10 $-1 $250 reversed single #
loop $-1 $-1 $251 $175 #
plane-surface $-1 -66.34846034119694 0 0 1 0 0 0 0 -1 forward_v I I I I #
coedge $-1 $252 $178 $223 $253 forward $131 $-1 #
coedge $-1 $178 $252 $254 $255 forward $131 $-1 #
edge $-1 $256 -42.525825655073213 $224 42.525825655073213 $187 $257 forward 7 unknown #
coedge $-1 $251 $258 $179 $219 reversed $213 $-1 #
edge $-1 $230 -42.525825655073213 $221 42.525825655073213 $218 $259 forward 7 unknown #
coedge $-1 $223 $180 $258 $260 forward $176 $-1 #
vertex $-1 $219 $261 #
straight-curve $-1 0 -42.525825655073213 18.9365618498237 1 0 0 I I #
coedge $-1 $184 $220 $215 $253 reversed $176 $-1 #
vertex $-1 $188 $262 #
straight-curve $-1 66.34846034119694 -42.525825655073213 0 0 0 -1 I I #
coedge $-1 $254 $191 $189 $227 forward $229 $-1 #
edge $-1 $193 -18.9365618498237 $256 18.9365618498237 $189 $263 forward 7 unknown #
coedge $-1 $191 $254 $251 $264 reversed $229 $-1 #
loop $-1 $-1 $226 $212 #
vertex $-1 $192 $265 #
straight-curve $-1 0 42.525825655073213 18.9365618498237 -1 0 0 I I #
point $-1 66.34846034119694 42.525825655073213 18.9365618498237 #
face $-1 $266 $267 $11 $-1 $268 reversed single #
loop $-1 $-1 $269 $195 #
plane-surface $-1 0 0 -18.9365618498237 0 0 1 1 0 0 forward_v I I I I #
coedge $-1 $270 $271 $203 $245 forward $196 $-1 #
coedge $-1 $198 $272 $273 $274 forward $151 $-1 #
coedge $-1 $273 $275 $199 $239 forward $267 $-1 #
edge $-1 $276 -29.264623690621836 $241 -26.001989229154329 $238 $277 forward 7 unknown #
edge $-1 $276 -1.2809303928265426e-014 $242 3.9354482085019535 $200 $278 forward 7 unknown #
vertex $-1 $239 $279 #
vertex $-1 $205 $280 #
straight-curve $-1 41.589734672812547 -76.268279867266813 18.936561849823697 0 1 0 I I #
coedge $-1 $203 $202 $275 $281 reversed $98 $-1 #
edge $-1 $247 1.4574840767519004 $282 5.3929322852538668 $236 $283 forward 7 unknown #
coedge $-1 $284 $204 $271 $285 forward $151 $-1 #
vertex $-1 $285 $286 #
straight-curve $-1 26.984548753502374 -40.325150992010556 18.9365618498237 1 0 0 I I #
point $-1 53.969097507004733 -40.173405518543525 16.460704129630109 #
plane-surface $-1 0 42.525825655073213 0 0 -1 0 0 0 -1 forward_v I I I I #
coedge $-1 $287 $218 $228 $264 forward $213 $-1 #
coedge $-1 $216 $215 $287 $288 forward $131 $-1 #
edge $-1 $224 -66.34846034119694 $289 66.34846034119694 $223 $290 forward 7 unknown #
coedge $-1 $228 $226 $216 $255 reversed $229 $-1 #
edge $-1 $291 -66.34846034119694 $256 66.34846034119694 $254 $292 forward 7 unknown #
vertex $-1 $217 $293 #
straight-curve $-1 66.34846034119694 0 -18.9365618498237 0 -1 0 I I #
coedge $-1 $218 $287 $220 $260 reversed $213 $-1 #
straight-curve $-1 -66.34846034119694 0 18.9365618498237 0 -1 0 I I #
edge $-1 $221 -18.9365618498237 $289 18.9365618498237 $258 $294 forward 7 unknown #
point $-1 -66.34846034119694 -42.525825655073213 18.9365618498237 #
point $-1 66.34846034119694 -42.525825655073213 -18.9365618498237 #
straight-curve $-1 66.34846034119694 42.525825655073213 0 0 0 -1 I I #
edge $-1 $230 -18.9365618498237 $291 18.9365618498237 $228 $295 forward 7 unknown #
point $-1 -66.34846034119694 42.525825655073213 18.9365618498237 #
face $-1 $296 $297 $11 $-1 $298 reversed single #
loop $-1 $-1 $238 $233 #
plane-surface $-1 0 -42.525825655073213 0 0 1 0 0 0 1 forward_v I I I I #
coedge $-1 $299 $300 $301 $302 forward $234 $-1 #
coedge $-1 $301 $236 $303 $304 forward $196 $-1 #
coedge $-1 $236 $305 $246 $285 reversed $196 $-1 #
coedge $-1 $237 $284 $306 $307 forward $151 $-1 #
coedge $-1 $308 $238 $237 $274 reversed $267 $-1 #
edge $-1 $309 -66.34846034119694 $241 41.589734672812547 $273 $310 forward 7 unknown #
coedge $-1 $238 $303 $244 $281 forward $267 $-1 #
vertex $-1 $281 $311 #
straight-curve $-1 41.589734672812547 -42.525825655073213 44.93855107897803 0 0 1 I I #
straight-curve $-1 41.589734672812547 -42.525825655073206 15.673927388356205 0 0.55919289150049634 0.82903758062907751 I I #
point $-1 41.589734672812547 -42.525825655073213 18.9365618498237 #
point $-1 41.589734672812547 -40.325150992010549 18.9365618498237 #
edge $-1 $282 -39.363911587694581 $276 -14.605185919310173 $275 $312 forward 7 unknown #
vertex $-1 $304 $313 #
straight-curve $-1 66.34846034119694 -39.510136256815727 20.144870922619504 0 -0.55919289150049634 -0.82903758062907751 I I #
coedge $-1 $272 $246 $314 $315 forward $151 $-1 #
edge $-1 $247 -40.325150992010549 $316 42.525825655073213 $271 $317 forward 7 unknown #
point $-1 66.348460341196954 -40.325150992010549 18.9365618498237 #
coedge $-1 $258 $251 $252 $288 reversed $213 $-1 #
edge $-1 $289 -42.525825655073213 $291 42.525825655073213 $287 $318 forward 7 unknown #
vertex $-1 $288 $319 #
straight-curve $-1 0 -42.525825655073213 -18.9365618498237 -1 0 0 I I #
vertex $-1 $255 $320 #
straight-curve $-1 0 42.525825655073213 -18.9365618498237 1 0 0 I I #
point $-1 66.34846034119694 42.525825655073213 -18.9365618498237 #
straight-curve $-1 -66.34846034119694 -42.525825655073213 0 0 0 -1 I I #
straight-curve $-1 -66.34846034119694 42.525825655073213 0 0 0 -1 I I #
face $-1 $-1 $321 $11 $-1 $322 reversed single #
loop $-1 $-1 $323 $266 #
plane-surface $-1 -66.34846034119694 0 0 1 0 0 0 0 -1 forward_v I I I I #
coedge $-1 $324 $269 $325 $326 forward $234 $-1 #
coedge $-1 $269 $324 $327 $328 forward $234 $-1 #
coedge $-1 $305 $270 $269 $302 reversed $196 $-1 #
edge $-1 $329 -42.525825655073213 $330 42.525825655073213 $301 $331 forward 7 unknown #
coedge $-1 $275 $325 $270 $304 reversed $267 $-1 #
edge $-1 $282 -15.673927388356194 $330 18.9365618498237 $270 $332 forward 7 unknown #
coedge $-1 $271 $301 $333 $334 reversed $196 $-1 #
coedge $-1 $323 $335 $272 $307 reversed $297 $-1 #
edge $-1 $336 -42.525825655073213 $309 42.525825655073213 $306 $337 forward 7 unknown #
coedge $-1 $325 $273 $335 $338 forward $267 $-1 #
vertex $-1 $307 $339 #
straight-curve $-1 0 -42.525825655073213 18.9365618498237 1 0 0 I I #
point $-1 41.589734672812547 -42.525825655073213 15.673927388356194 #
straight-curve $-1 26.984548753502374 -42.525825655073213 15.673927388356185 -1 0 0 I I #
point $-1 66.348460341196954 -42.525825655073213 15.673927388356194 #
coedge $-1 $333 $340 $284 $315 reversed $321 $-1 #
edge $-1 $316 -66.34846034119694 $336 66.34846034119694 $314 $341 forward 7 unknown #
vertex $-1 $285 $342 #
straight-curve $-1 66.34846034119694 0 18.9365618498237 0 1 0 I I #
straight-curve $-1 -66.34846034119694 0 -18.9365618498237 0 1 0 I I #
point $-1 -66.34846034119694 -42.525825655073213 -18.9365618498237 #
point $-1 -66.34846034119694 42.525825655073213 -18.9365618498237 #
loop $-1 $-1 $333 $296 #
plane-surface $-1 0 42.525825655073213 0 0 -1 0 0 0 -1 forward_v I I I I #
coedge $-1 $343 $306 $340 $344 forward $297 $-1 #
coedge $-1 $300 $299 $343 $345 forward $234 $-1 #
coedge $-1 $303 $308 $299 $326 reversed $267 $-1 #
edge $-1 $330 -66.34846034119694 $346 66.34846034119694 $325 $347 forward 7 unknown #
coedge $-1 $340 $333 $300 $328 reversed $321 $-1 #
edge $-1 $348 -66.34846034119694 $329 66.34846034119694 $327 $349 forward 7 unknown #
vertex $-1 $302 $350 #
vertex $-1 $304 $351 #
straight-curve $-1 66.34846034119694 0 -18.9365618498237 0 -1 0 I I #
straight-curve $-1 66.34846034119694 -42.525825655073213 0 0 0 -1 I I #
coedge $-1 $327 $314 $305 $334 forward $321 $-1 #
edge $-1 $316 -18.9365618498237 $329 18.9365618498237 $305 $352 forward 7 unknown #
coedge $-1 $306 $343 $308 $338 reversed $297 $-1 #
vertex $-1 $315 $353 #
straight-curve $-1 -66.34846034119694 0 18.9365618498237 0 -1 0 I I #
edge $-1 $309 -18.9365618498237 $346 18.9365618498237 $335 $354 forward 7 unknown #
point $-1 -66.34846034119694 -42.525825655073213 18.9365618498237 #
coedge $-1 $314 $327 $323 $344 reversed $321 $-1 #
straight-curve $-1 0 42.525825655073213 18.9365618498237 -1 0 0 I I #
point $-1 66.34846034119694 42.525825655073213 18.9365618498237 #
coedge $-1 $335 $323 $324 $345 reversed $297 $-1 #
edge $-1 $336 -18.9365618498237 $348 18.9365618498237 $340 $355 forward 7 unknown #
edge $-1 $346 -42.525825655073213 $348 42.525825655073213 $343 $356 forward 7 unknown #
vertex $-1 $345 $357 #
straight-curve $-1 0 -42.525825655073213 -18.9365618498237 -1 0 0 I I #
vertex $-1 $328 $358 #
straight-curve $-1 0 42.525825655073213 -18.9365618498237 1 0 0 I I #
point $-1 66.34846034119694 42.525825655073213 -18.9365618498237 #
point $-1 66.34846034119694 -42.525825655073213 -18.9365618498237 #
straight-curve $-1 66.34846034119694 42.525825655073213 0 0 0 -1 I I #
point $-1 -66.34846034119694 42.525825655073213 18.9365618498237 #
straight-curve $-1 -66.34846034119694 -42.525825655073213 0 0 0 -1 I I #
straight-curve $-1 -66.34846034119694 42.525825655073213 0 0 0 -1 I I #
straight-curve $-1 -66.34846034119694 0 -18.9365618498237 0 1 0 I I #
point $-1 -66.34846034119694 -42.525825655073213 -18.9365618498237 #
point $-1 -66.34846034119694 42.525825655073213 -18.9365618498237 #
End-of-ACIS-data 