500 0 11 0           
7 Unknown 11 ACIS 5.0 NT 24 Thu Mar 25 18:04:35 1999 
-1 9.9999999999999995e-007 1e-010 
body $-1 $11 $-1 $12 #
body $-1 $13 $-1 $14 #
body $-1 $15 $-1 $16 #
body $-1 $17 $-1 $18 #
body $-1 $19 $-1 $20 #
body $-1 $21 $-1 $22 #
body $-1 $23 $-1 $24 #
body $-1 $25 $-1 $26 #
body $-1 $27 $-1 $28 #
body $-1 $29 $-1 $30 #
body $-1 $31 $-1 $32 #
lump $-1 $-1 $33 $0 #
transform $-1 1 0 0 0 1 0 0 0 1 62.280953398236036 27.206932796482761 7.0896449379793109 1 rotate no_reflect no_shear #
lump $-1 $-1 $34 $1 #
transform $-1 1 0 0 0 1 0 0 0 1 62.280953398236036 27.206932796482761 7.0896449379793109 1 rotate no_reflect no_shear #
lump $-1 $-1 $35 $2 #
transform $-1 1 0 0 0 1 0 0 0 1 62.280953398236036 27.206932796482761 7.0896449379793109 1 rotate no_reflect no_shear #
lump $-1 $-1 $36 $3 #
transform $-1 1 0 0 0 1 0 0 0 1 62.280953398236036 27.206932796482761 7.0896449379793109 1 rotate no_reflect no_shear #
lump $-1 $-1 $37 $4 #
transform $-1 1 0 0 0 1 0 0 0 1 62.280953398236036 27.206932796482761 7.0896449379793109 1 rotate no_reflect no_shear #
lump $-1 $-1 $38 $5 #
transform $-1 1 0 0 0 1 0 0 0 1 62.280953398236036 27.206932796482761 7.0896449379793109 1 rotate no_reflect no_shear #
lump $-1 $-1 $39 $6 #
transform $-1 1 0 0 0 1 0 0 0 1 62.280953398236036 27.206932796482761 7.0896449379793109 1 rotate no_reflect no_shear #
lump $-1 $-1 $40 $7 #
transform $-1 1 0 0 0 1 0 0 0 1 62.280953398236036 27.206932796482761 7.0896449379793109 1 rotate no_reflect no_shear #
lump $-1 $-1 $41 $8 #
transform $-1 1 0 0 0 1 0 0 0 1 62.280953398236036 27.206932796482761 7.0896449379793109 1 rotate no_reflect no_shear #
lump $-1 $-1 $42 $9 #
transform $-1 1 0 0 0 1 0 0 0 1 62.280953398236036 27.206932796482761 7.0896449379793109 1 rotate no_reflect no_shear #
lump $-1 $-1 $43 $10 #
transform $-1 1 0 0 0 1 0 0 0 1 62.280953398236036 27.206932796482761 7.0896449379793109 1 rotate no_reflect no_shear #
shell $-1 $-1 $-1 $44 $-1 $11 #
shell $-1 $-1 $-1 $45 $-1 $13 #
shell $-1 $-1 $-1 $46 $-1 $15 #
shell $-1 $-1 $-1 $47 $-1 $17 #
shell $-1 $-1 $-1 $48 $-1 $19 #
shell $-1 $-1 $-1 $49 $-1 $21 #
shell $-1 $-1 $-1 $50 $-1 $23 #
shell $-1 $-1 $-1 $51 $-1 $25 #
shell $-1 $-1 $-1 $52 $-1 $27 #
shell $-1 $-1 $-1 $53 $-1 $29 #
shell $-1 $-1 $-1 $54 $-1 $31 #
face $-1 $55 $56 $33 $-1 $57 forward single #
face $-1 $58 $59 $34 $-1 $60 reversed single #
face $-1 $61 $62 $35 $-1 $63 reversed single #
face $-1 $64 $65 $36 $-1 $66 forward single #
face $-1 $67 $68 $37 $-1 $69 forward single #
face $-1 $70 $71 $38 $-1 $72 reversed single #
face $-1 $73 $74 $39 $-1 $75 forward single #
face $-1 $76 $77 $40 $-1 $78 forward single #
face $-1 $79 $80 $41 $-1 $81 reversed single #
face $-1 $82 $83 $42 $-1 $84 forward single #
face $-1 $85 $86 $43 $-1 $87 forward single #
face $-1 $88 $89 $33 $-1 $90 reversed single #
loop $-1 $-1 $91 $44 #
plane-surface $-1 0 0 7.0896449379793109 0 0 1 1 0 0 forward_v I I I I #
face $-1 $92 $93 $34 $-1 $94 reversed single #
loop $-1 $-1 $95 $45 #
plane-surface $-1 -58.956328156634633 0 3.6638450734509247 0 0 1 1 0 0 forward_v I I I I #
face $-1 $96 $97 $35 $-1 $98 reversed single #
loop $-1 $-1 $99 $46 #
plane-surface $-1 17.336093479410764 65.590345102899079 133.67888944127876 1 0 0 0 -0.64278761758704617 -0.76604443648966558 forward_v I I I I #
face $-1 $100 $101 $36 $-1 $102 forward single #
loop $-1 $103 $104 $47 #
cone-surface $-1 26.536682814068485 24.251147002973823 4.3671299013159475 0 -0.64278761758704617 -0.76604443648966558 1 0 0 1 I I 0 1 1 forward I I I I #
face $-1 $105 $106 $37 $-1 $107 forward single #
loop $-1 $108 $109 $48 #
cone-surface $-1 40.337566816055059 24.251147002973823 4.3671299013159475 0 -0.64278761758704617 -0.76604443648966558 1 0 0 1 I I 0 1 1 forward I I I I #
face $-1 $110 $111 $38 $-1 $112 reversed single #
loop $-1 $-1 $113 $49 #
plane-surface $-1 -27.631088547466703 -96.861068025127111 103.83575803976517 -1 0 0 0 -0.55919291073839883 0.82903756765294845 forward_v I I I I #
face $-1 $114 $115 $39 $-1 $116 forward single #
loop $-1 $117 $118 $50 #
cone-surface $-1 -44.235681142449451 -21.276878680319111 2.2036476510336263 0 0.55919291073839883 -0.82903756765294845 1.5 0 0 1 I I 0 1 1.5 forward I I I I #
face $-1 $119 $120 $40 $-1 $121 forward single #
loop $-1 $122 $123 $51 #
cone-surface $-1 -34.272925585459802 -21.276878680319111 2.2036476510336263 0 0.55919291073839883 -0.82903756765294845 1.5 0 0 1 I I 0 1 1.5 forward I I I I #
face $-1 $124 $125 $41 $-1 $126 reversed single #
loop $-1 $-1 $127 $52 #
plane-surface $-1 57.526768663645349 -96.861068025127111 103.83575803976517 -1 0 0 0 -0.55919291073839883 0.82903756765294845 forward_v I I I I #
face $-1 $128 $129 $42 $-1 $130 forward single #
loop $-1 $131 $132 $53 #
cone-surface $-1 40.922176068662608 -21.276878680319111 2.2036476510336263 0 0.55919291073839883 -0.82903756765294845 1.5 0 0 1 I I 0 1 1.5 forward I I I I #
face $-1 $133 $134 $43 $-1 $135 forward single #
loop $-1 $136 $137 $54 #
cone-surface $-1 50.884931625652257 -21.276878680319111 2.2036476510336263 0 0.55919291073839883 -0.82903756765294845 1.5 0 0 1 I I 0 1 1.5 forward I I I I #
face $-1 $138 $139 $33 $-1 $140 reversed single #
loop $-1 $-1 $141 $55 #
plane-surface $-1 0 0 -7.0896449379793109 0 0 1 1 0 0 forward_v I I I I #
coedge $-1 $142 $143 $144 $145 forward $56 $-1 #
face $-1 $146 $147 $34 $-1 $148 reversed single #
loop $-1 $-1 $149 $58 #
plane-surface $-1 -55.63170291503323 0 5.3767450057151178 -1 0 0 0 0 1 forward_v I I I I #
coedge $-1 $150 $151 $152 $153 forward $59 $-1 #
face $-1 $154 $155 $35 $-1 $156 reversed single #
loop $-1 $-1 $157 $61 #
plane-surface $-1 33.437124815061765 -14.476506208904908 38.258933741297056 0 0.64278761758704617 0.76604443648966558 1 0 0 forward_v I I I I #
coedge $-1 $158 $159 $160 $161 reversed $62 $-1 #
face $-1 $-1 $162 $36 $-1 $163 forward single #
loop $-1 $164 $165 $64 #
cone-surface $-1 26.536682814068485 23.242631337396908 3.1652277588509081 0 -0.64278761758704617 -0.76604443648966558 0.5 0 0 1 I I -0.70710678118654746 0.70710678118654746 0.5 forward I I I I #
loop $-1 $-1 $166 $47 #
coedge $-1 $104 $104 $167 $168 reversed $65 $-1 #
face $-1 $-1 $169 $37 $-1 $170 forward single #
loop $-1 $171 $172 $67 #
cone-surface $-1 40.337566816055059 23.242631337396908 3.1652277588509081 0 -0.64278761758704617 -0.76604443648966558 0.5 0 0 1 I I -0.70710678118654746 0.70710678118654746 0.5 forward I I I I #
loop $-1 $-1 $173 $48 #
coedge $-1 $109 $109 $174 $175 reversed $68 $-1 #
face $-1 $176 $177 $38 $-1 $178 reversed single #
loop $-1 $-1 $179 $70 #
plane-surface $-1 -39.254303363954627 -27.206932796482761 0.56925780700470341 0 -0.55919291073839883 0.82903756765294845 1 0 0 forward_v I I I I #
coedge $-1 $180 $181 $182 $183 reversed $71 $-1 #
face $-1 $-1 $184 $39 $-1 $185 forward single #
loop $-1 $186 $187 $73 #
cone-surface $-1 -44.235681142449451 -19.760865519690821 -0.043934246164472945 0 0.55919291073839883 -0.82903756765294845 0.75 0 0 1 I I -0.70710678118654757 0.70710678118654757 0.75 forward I I I I #
loop $-1 $-1 $188 $50 #
coedge $-1 $118 $118 $189 $190 reversed $74 $-1 #
face $-1 $-1 $191 $40 $-1 $192 forward single #
loop $-1 $193 $194 $76 #
cone-surface $-1 -34.272925585459802 -19.760865519690821 -0.043934246164472945 0 0.55919291073839883 -0.82903756765294845 0.75 0 0 1 I I -0.70710678118654757 0.70710678118654757 0.75 forward I I I I #
loop $-1 $-1 $195 $51 #
coedge $-1 $123 $123 $196 $197 reversed $77 $-1 #
face $-1 $198 $199 $41 $-1 $200 reversed single #
loop $-1 $-1 $201 $79 #
plane-surface $-1 45.903553847157426 -27.206932796482761 0.56925780700470341 0 -0.55919291073839883 0.82903756765294845 1 0 0 forward_v I I I I #
coedge $-1 $202 $203 $204 $205 reversed $80 $-1 #
face $-1 $-1 $206 $42 $-1 $207 forward single #
loop $-1 $208 $209 $82 #
cone-surface $-1 40.922176068662608 -19.760865519690821 -0.043934246164472945 0 0.55919291073839883 -0.82903756765294845 0.75 0 0 1 I I -0.70710678118654757 0.70710678118654757 0.75 forward I I I I #
loop $-1 $-1 $210 $53 #
coedge $-1 $132 $132 $211 $212 reversed $83 $-1 #
face $-1 $-1 $213 $43 $-1 $214 forward single #
loop $-1 $215 $216 $85 #
cone-surface $-1 50.884931625652257 -19.760865519690821 -0.043934246164472945 0 0.55919291073839883 -0.82903756765294845 0.75 0 0 1 I I -0.70710678118654757 0.70710678118654757 0.75 forward I I I I #
loop $-1 $-1 $217 $54 #
coedge $-1 $137 $137 $218 $219 reversed $86 $-1 #
face $-1 $220 $221 $33 $-1 $222 reversed single #
loop $-1 $-1 $223 $88 #
plane-surface $-1 0 -27.206932796482761 0 0 1 0 0 0 1 forward_v I I I I #
coedge $-1 $224 $225 $226 $227 forward $89 $-1 #
coedge $-1 $228 $91 $229 $230 forward $56 $-1 #
coedge $-1 $91 $228 $231 $232 forward $56 $-1 #
coedge $-1 $233 $234 $91 $145 reversed $235 $-1 #
edge $-1 $236 -27.206932796482761 $237 27.206932796482761 $144 $238 forward 7 unknown #
face $-1 $239 $240 $34 $-1 $241 reversed single #
loop $-1 $-1 $242 $92 #
plane-surface $-1 0 27.206932796482761 0 0 -1 0 0 0 -1 forward_v I I I I #
coedge $-1 $152 $243 $244 $245 reversed $93 $-1 #
coedge $-1 $246 $95 $247 $248 reversed $59 $-1 #
coedge $-1 $95 $246 $249 $250 reversed $59 $-1 #
coedge $-1 $251 $149 $95 $153 reversed $93 $-1 #
edge $-1 $252 -27.206932796482761 $253 27.206932796482761 $152 $254 forward 7 unknown #
face $-1 $255 $256 $35 $-1 $257 forward single #
loop $-1 $-1 $258 $96 #
plane-surface $-1 49.538156150712766 65.590345102899079 133.67888944127876 -1 0 0 0 0.64278761758704617 0.76604443648966558 forward_v I I I I #
coedge $-1 $259 $260 $261 $262 reversed $97 $-1 #
coedge $-1 $159 $99 $263 $264 reversed $62 $-1 #
coedge $-1 $99 $158 $259 $265 reversed $62 $-1 #
coedge $-1 $261 $266 $99 $161 forward $256 $-1 #
edge $-1 $267 5.5882397549667786 $268 10.125567628417841 $160 $269 forward 7 unknown #
loop $-1 $-1 $167 $100 #
plane-surface $-1 33.437124815061765 -14.476506208904908 38.258933741297056 0 0.64278761758704617 0.76604443648966558 1 0 0 forward_v I I I I #
loop $-1 $-1 $270 $64 #
coedge $-1 $165 $165 $166 $271 reversed $101 $-1 #
coedge $-1 $166 $166 $165 $271 forward $103 $-1 #
coedge $-1 $167 $167 $104 $168 forward $162 $-1 #
edge $-1 $272 1.2748340846530415e-015 $272 6.2831853071796013 $167 $273 forward 7 unknown #
loop $-1 $-1 $174 $105 #
plane-surface $-1 33.437124815061765 -14.476506208904908 38.258933741297056 0 0.64278761758704617 0.76604443648966558 1 0 0 forward_v I I I I #
loop $-1 $-1 $274 $67 #
coedge $-1 $172 $172 $173 $275 reversed $106 $-1 #
coedge $-1 $173 $173 $172 $275 forward $108 $-1 #
coedge $-1 $174 $174 $109 $175 forward $169 $-1 #
edge $-1 $276 1.2748340846530415e-015 $276 6.2831853071796013 $174 $277 forward 7 unknown #
face $-1 $278 $279 $38 $-1 $280 reversed single #
loop $-1 $-1 $281 $110 #
plane-surface $-1 -50.87751818044255 -96.861068025127111 103.83575803976517 1 0 0 0 0.55919291073839883 -0.82903756765294845 forward_v I I I I #
coedge $-1 $282 $283 $284 $285 reversed $111 $-1 #
coedge $-1 $181 $113 $286 $287 reversed $71 $-1 #
coedge $-1 $113 $180 $282 $288 reversed $71 $-1 #
coedge $-1 $284 $289 $113 $183 forward $290 $-1 #
edge $-1 $291 21.223601216080795 $292 30.890472493259129 $182 $293 forward 7 unknown #
loop $-1 $-1 $189 $114 #
plane-surface $-1 -39.254303363954627 -27.206932796482761 0.56925780700470341 0 -0.55919291073839883 0.82903756765294845 1 0 0 forward_v I I I I #
loop $-1 $-1 $294 $73 #
coedge $-1 $187 $187 $188 $295 reversed $115 $-1 #
coedge $-1 $188 $188 $187 $295 forward $117 $-1 #
coedge $-1 $189 $189 $118 $190 forward $184 $-1 #
edge $-1 $296 -4.504692787501578e-016 $296 6.2831853071795996 $189 $297 forward 7 unknown #
loop $-1 $-1 $196 $119 #
plane-surface $-1 -39.254303363954627 -27.206932796482761 0.56925780700470341 0 -0.55919291073839883 0.82903756765294845 1 0 0 forward_v I I I I #
loop $-1 $-1 $298 $76 #
coedge $-1 $194 $194 $195 $299 reversed $120 $-1 #
coedge $-1 $195 $195 $194 $299 forward $122 $-1 #
coedge $-1 $196 $196 $123 $197 forward $191 $-1 #
edge $-1 $300 -4.504692787501578e-016 $300 6.2831853071795996 $196 $301 forward 7 unknown #
face $-1 $302 $303 $41 $-1 $304 reversed single #
loop $-1 $-1 $305 $124 #
plane-surface $-1 34.280339030669502 -96.861068025127111 103.83575803976517 1 0 0 0 0.55919291073839883 -0.82903756765294845 forward_v I I I I #
coedge $-1 $306 $307 $308 $309 reversed $125 $-1 #
coedge $-1 $203 $127 $310 $311 reversed $80 $-1 #
coedge $-1 $127 $202 $306 $312 reversed $80 $-1 #
coedge $-1 $308 $313 $127 $205 forward $314 $-1 #
edge $-1 $315 21.223601216080795 $316 30.890472493259129 $204 $317 forward 7 unknown #
loop $-1 $-1 $211 $128 #
plane-surface $-1 45.903553847157426 -27.206932796482761 0.56925780700470341 0 -0.55919291073839883 0.82903756765294845 1 0 0 forward_v I I I I #
loop $-1 $-1 $318 $82 #
coedge $-1 $209 $209 $210 $319 reversed $129 $-1 #
coedge $-1 $210 $210 $209 $319 forward $131 $-1 #
coedge $-1 $211 $211 $132 $212 forward $206 $-1 #
edge $-1 $320 -4.504692787501578e-016 $320 6.2831853071795996 $211 $321 forward 7 unknown #
loop $-1 $-1 $218 $133 #
plane-surface $-1 45.903553847157426 -27.206932796482761 0.56925780700470341 0 -0.55919291073839883 0.82903756765294845 1 0 0 forward_v I I I I #
loop $-1 $-1 $322 $85 #
coedge $-1 $216 $216 $217 $323 reversed $134 $-1 #
coedge $-1 $217 $217 $216 $323 forward $136 $-1 #
coedge $-1 $218 $218 $137 $219 forward $213 $-1 #
edge $-1 $324 -4.504692787501578e-016 $324 6.2831853071795996 $218 $325 forward 7 unknown #
face $-1 $326 $327 $33 $-1 $328 reversed single #
loop $-1 $-1 $329 $138 #
plane-surface $-1 -62.280953398236036 0 0 1 0 0 0 0 -1 forward_v I I I I #
coedge $-1 $330 $231 $331 $332 forward $139 $-1 #
coedge $-1 $333 $141 $330 $334 forward $89 $-1 #
coedge $-1 $141 $333 $335 $336 forward $89 $-1 #
coedge $-1 $234 $233 $141 $227 reversed $235 $-1 #
edge $-1 $337 -27.206932796482761 $338 27.206932796482761 $226 $339 forward 7 unknown #
coedge $-1 $143 $142 $340 $341 forward $56 $-1 #
coedge $-1 $342 $343 $142 $230 reversed $327 $-1 #
edge $-1 $237 -62.280953398236036 $344 62.280953398236036 $229 $345 forward 7 unknown #
coedge $-1 $223 $346 $143 $232 reversed $139 $-1 #
edge $-1 $347 -62.280953398236036 $236 62.280953398236036 $231 $348 forward 7 unknown #
coedge $-1 $226 $144 $346 $349 forward $235 $-1 #
coedge $-1 $144 $226 $342 $350 reversed $235 $-1 #
loop $-1 $-1 $233 $326 #
vertex $-1 $145 $351 #
vertex $-1 $145 $352 #
straight-curve $-1 62.280953398236036 0 7.0896449379793109 0 1 0 I I #
face $-1 $353 $354 $34 $-1 $355 forward single #
loop $-1 $-1 $356 $146 #
plane-surface $-1 -62.280953398236036 0 0 1 0 0 0 0 -1 forward_v I I I I #
coedge $-1 $249 $357 $251 $358 forward $147 $-1 #
coedge $-1 $149 $251 $359 $360 reversed $93 $-1 #
coedge $-1 $361 $247 $149 $245 forward $362 $-1 #
edge $-1 $253 0.97547257059336578 $363 4.4012724351217525 $244 $364 forward 7 unknown #
coedge $-1 $151 $150 $356 $365 reversed $59 $-1 #
coedge $-1 $244 $366 $150 $248 forward $362 $-1 #
edge $-1 $367 -32.802789319918716 $253 -26.153538836715914 $247 $368 forward 7 unknown #
coedge $-1 $369 $242 $151 $250 forward $147 $-1 #
edge $-1 $252 26.153538836715914 $370 32.802789319918716 $249 $371 forward 7 unknown #
coedge $-1 $243 $152 $242 $358 reversed $93 $-1 #
vertex $-1 $250 $372 #
vertex $-1 $248 $373 #
straight-curve $-1 -55.63170291503323 0 3.6638450734509247 0 -1 0 I I #
face $-1 $-1 $374 $35 $-1 $375 reversed single #
loop $-1 $-1 $160 $154 #
plane-surface $-1 0 0 7.0896449379793109 0 0 1 1 0 0 forward_v I I I I #
coedge $-1 $376 $377 $378 $379 reversed $155 $-1 #
coedge $-1 $380 $157 $159 $265 forward $97 $-1 #
coedge $-1 $157 $380 $376 $381 forward $97 $-1 #
coedge $-1 $378 $160 $157 $262 forward $256 $-1 #
edge $-1 $268 0.61753107187988121 $382 32.819593743181883 $261 $383 forward 7 unknown #
coedge $-1 $384 $385 $158 $264 forward $374 $-1 #
edge $-1 $386 -63.557070007546365 $267 -59.74979978266007 $263 $387 forward 7 unknown #
edge $-1 $268 48.490804661614078 $386 54.413865592965507 $159 $388 forward 7 unknown #
coedge $-1 $160 $378 $384 $389 forward $256 $-1 #
vertex $-1 $264 $390 #
vertex $-1 $161 $391 #
straight-curve $-1 17.336093479410764 32.795172551449539 7.0896449379793083 0 -1 0 I I #
coedge $-1 $270 $270 $-1 $392 reversed $164 $-1 #
edge $-1 $393 0 $393 6.2831853071796004 $165 $394 forward 7 unknown #
vertex $-1 $168 $395 #
ellipse-curve $-1 26.536682814068485 24.938268859757223 5.1860098255361606 0 0.64278761758704617 0.76604443648966558 1 0 0 1 I I #
coedge $-1 $274 $274 $-1 $396 reversed $171 $-1 #
edge $-1 $397 0 $397 6.2831853071796004 $172 $398 forward 7 unknown #
vertex $-1 $175 $399 #
ellipse-curve $-1 40.337566816055059 24.938268859757223 5.1860098255361606 0 0.64278761758704617 0.76604443648966558 1 0 0 1 I I #
face $-1 $-1 $290 $38 $-1 $400 forward single #
loop $-1 $-1 $401 $176 #
plane-surface $-1 0 -27.206932796482761 0 0 1 0 0 0 1 forward_v I I I I #
coedge $-1 $402 $403 $404 $405 reversed $177 $-1 #
coedge $-1 $406 $179 $181 $288 forward $111 $-1 #
coedge $-1 $179 $406 $402 $407 forward $111 $-1 #
coedge $-1 $404 $182 $179 $285 forward $290 $-1 #
edge $-1 $292 8.0039368654893899 $408 31.250366498465237 $284 $409 forward 7 unknown #
coedge $-1 $410 $411 $180 $287 forward $279 $-1 #
edge $-1 $412 -51.34862121287788 $291 -44.828234081903275 $286 $413 forward 7 unknown #
edge $-1 $292 -11.660353709356965 $412 0 $181 $414 forward 7 unknown #
coedge $-1 $182 $404 $410 $415 forward $290 $-1 #
loop $-1 $-1 $404 $278 #
vertex $-1 $287 $416 #
vertex $-1 $183 $417 #
straight-curve $-1 -27.631088547466703 -48.430534012563555 7.0896449379793083 0 1 0 I I #
coedge $-1 $294 $294 $-1 $418 reversed $186 $-1 #
edge $-1 $419 0 $419 6.2831853071796004 $187 $420 forward 7 unknown #
vertex $-1 $190 $421 #
ellipse-curve $-1 -44.235681142449451 -22.373497157893599 3.8294513724920045 0 -0.55919291073839883 0.82903756765294845 1.5 0 0 1 I I #
coedge $-1 $298 $298 $-1 $422 reversed $193 $-1 #
edge $-1 $423 0 $423 6.2831853071796004 $194 $424 forward 7 unknown #
vertex $-1 $197 $425 #
ellipse-curve $-1 -34.272925585459802 -22.373497157893599 3.8294513724920045 0 -0.55919291073839883 0.82903756765294845 1.5 0 0 1 I I #
face $-1 $-1 $314 $41 $-1 $426 forward single #
loop $-1 $-1 $427 $198 #
plane-surface $-1 0 -27.206932796482761 0 0 1 0 0 0 1 forward_v I I I I #
coedge $-1 $428 $429 $430 $431 reversed $199 $-1 #
coedge $-1 $432 $201 $203 $312 forward $125 $-1 #
coedge $-1 $201 $432 $428 $433 forward $125 $-1 #
coedge $-1 $430 $204 $201 $309 forward $314 $-1 #
edge $-1 $316 -34.574991740066636 $434 -11.328562107090789 $308 $435 forward 7 unknown #
coedge $-1 $436 $437 $202 $311 forward $303 $-1 #
edge $-1 $438 -51.34862121287788 $315 -44.828234081903275 $310 $439 forward 7 unknown #
edge $-1 $316 -11.660353709356965 $438 0 $203 $440 forward 7 unknown #
coedge $-1 $204 $430 $436 $441 forward $314 $-1 #
loop $-1 $-1 $430 $302 #
vertex $-1 $311 $442 #
vertex $-1 $205 $443 #
straight-curve $-1 57.526768663645349 -48.430534012563555 7.0896449379793083 0 1 0 I I #
coedge $-1 $318 $318 $-1 $444 reversed $208 $-1 #
edge $-1 $445 0 $445 6.2831853071796004 $209 $446 forward 7 unknown #
vertex $-1 $212 $447 #
ellipse-curve $-1 40.922176068662608 -22.373497157893599 3.8294513724920045 0 -0.55919291073839883 0.82903756765294845 1.5 0 0 1 I I #
coedge $-1 $322 $322 $-1 $448 reversed $215 $-1 #
edge $-1 $449 0 $449 6.2831853071796004 $216 $450 forward 7 unknown #
vertex $-1 $219 $451 #
ellipse-curve $-1 50.884931625652257 -22.373497157893599 3.8294513724920045 0 -0.55919291073839883 0.82903756765294845 1.5 0 0 1 I I #
face $-1 $-1 $235 $33 $-1 $452 reversed single #
loop $-1 $-1 $342 $220 #
plane-surface $-1 0 27.206932796482761 0 0 -1 0 0 0 -1 forward_v I I I I #
coedge $-1 $453 $340 $343 $454 forward $221 $-1 #
coedge $-1 $346 $223 $224 $334 reversed $139 $-1 #
coedge $-1 $340 $453 $223 $332 reversed $221 $-1 #
edge $-1 $347 -7.0896449379793109 $455 7.0896449379793109 $331 $456 forward 7 unknown #
coedge $-1 $225 $224 $453 $457 forward $89 $-1 #
edge $-1 $338 -62.280953398236036 $455 62.280953398236036 $330 $458 forward 7 unknown #
coedge $-1 $343 $342 $225 $336 reversed $327 $-1 #
edge $-1 $459 -62.280953398236036 $337 62.280953398236036 $335 $460 forward 7 unknown #
vertex $-1 $227 $461 #
vertex $-1 $349 $462 #
straight-curve $-1 62.280953398236036 0 -7.0896449379793109 0 -1 0 I I #
coedge $-1 $329 $331 $228 $341 reversed $221 $-1 #
edge $-1 $344 -27.206932796482761 $347 27.206932796482761 $340 $463 forward 7 unknown #
coedge $-1 $335 $229 $234 $350 forward $327 $-1 #
coedge $-1 $229 $335 $329 $454 reversed $327 $-1 #
vertex $-1 $230 $464 #
straight-curve $-1 0 27.206932796482761 7.0896449379793109 -1 0 0 I I #
coedge $-1 $231 $330 $233 $349 reversed $139 $-1 #
vertex $-1 $341 $465 #
straight-curve $-1 0 -27.206932796482761 7.0896449379793109 1 0 0 I I #
edge $-1 $236 -7.0896449379793109 $338 7.0896449379793109 $233 $466 forward 7 unknown #
edge $-1 $237 -7.0896449379793109 $337 7.0896449379793109 $234 $467 forward 7 unknown #
point $-1 62.280953398236036 -27.206932796482761 7.0896449379793109 #
point $-1 62.280953398236036 27.206932796482761 7.0896449379793109 #
face $-1 $-1 $362 $34 $-1 $468 reversed single #
loop $-1 $-1 $359 $239 #
plane-surface $-1 0 0 7.0896449379793109 0 0 1 1 0 0 forward_v I I I I #
coedge $-1 $469 $470 $246 $365 forward $240 $-1 #
coedge $-1 $242 $369 $471 $472 reversed $147 $-1 #
edge $-1 $473 -4.4012724351217525 $252 -0.97547257059336578 $242 $474 forward 7 unknown #
coedge $-1 $471 $475 $243 $360 forward $354 $-1 #
edge $-1 $363 -27.206932796482761 $473 27.206932796482761 $359 $476 forward 7 unknown #
coedge $-1 $366 $244 $475 $477 reversed $362 $-1 #
loop $-1 $-1 $244 $353 #
vertex $-1 $245 $478 #
straight-curve $-1 -55.63170291503323 -27.206932796482761 2.6883725028575589 0 0 1 I I #
edge $-1 $370 -27.206932796482761 $367 27.206932796482761 $356 $479 forward 7 unknown #
coedge $-1 $247 $361 $469 $480 forward $362 $-1 #
vertex $-1 $365 $481 #
straight-curve $-1 -29.478164078317317 -27.206932796482761 3.6638450734509247 1 0 0 I I #
coedge $-1 $357 $249 $470 $482 reversed $147 $-1 #
vertex $-1 $365 $483 #
straight-curve $-1 -29.478164078317317 27.206932796482761 3.6638450734509247 -1 0 0 I I #
point $-1 -55.63170291503323 27.206932796482761 3.6638450734509247 #
point $-1 -55.63170291503323 -27.206932796482761 3.6638450734509247 #
loop $-1 $-1 $263 $255 #
plane-surface $-1 0 27.206932796482761 0 0 -1 0 0 0 -1 forward_v I I I I #
coedge $-1 $377 $258 $260 $381 reversed $155 $-1 #
coedge $-1 $258 $376 $484 $485 reversed $155 $-1 #
coedge $-1 $266 $261 $258 $379 forward $256 $-1 #
edge $-1 $382 -10.125567628417841 $486 -5.5882397549667786 $378 $487 forward 7 unknown #
coedge $-1 $260 $259 $385 $488 reversed $97 $-1 #
edge $-1 $489 -54.413865592965507 $382 -48.490804661614078 $376 $490 forward 7 unknown #
vertex $-1 $262 $491 #
straight-curve $-1 16.718562407530882 22.669604923031692 7.0896449379793154 1 0 0 I I #
coedge $-1 $484 $263 $266 $389 reversed $374 $-1 #
coedge $-1 $263 $484 $380 $488 forward $374 $-1 #
vertex $-1 $264 $492 #
straight-curve $-1 17.336093479410764 27.206932796482761 66.839444720639378 0 0 1 I I #
straight-curve $-1 17.336093479410764 -14.476506208904908 38.258933741297056 0 0.76604443648966558 -0.64278761758704617 I I #
edge $-1 $486 -49.538156150712766 $267 -17.336093479410764 $384 $493 forward 7 unknown #
point $-1 17.336093479410764 27.206932796482761 7.0896449379793109 #
point $-1 17.336093479410764 22.669604923031699 7.0896449379793118 #
edge $-1 $494 1 $494 0 $270 $-1 forward 7 unknown #
vertex $-1 $271 $495 #
ellipse-curve $-1 26.536682814068485 23.564025146190431 3.548249977095741 0 0.64278761758704617 0.76604443648966558 1 0 0 1 I I #
point $-1 27.536682814068485 24.938268859757219 5.1860098255361544 #
edge $-1 $496 1 $496 0 $274 $-1 forward 7 unknown #
vertex $-1 $275 $497 #
ellipse-curve $-1 40.337566816055059 23.564025146190431 3.548249977095741 0 0.64278761758704617 0.76604443648966558 1 0 0 1 I I #
point $-1 41.337566816055059 24.938268859757219 5.1860098255361544 #
plane-surface $-1 0 0 7.0896449379793109 0 0 1 1 0 0 forward_v I I I I #
coedge $-1 $411 $410 $403 $498 forward $279 $-1 #
coedge $-1 $403 $281 $283 $407 reversed $177 $-1 #
coedge $-1 $281 $402 $401 $498 reversed $177 $-1 #
coedge $-1 $289 $284 $281 $405 forward $290 $-1 #
edge $-1 $408 -30.890472493259129 $499 -21.223601216080795 $404 $500 forward 7 unknown #
coedge $-1 $283 $282 $411 $501 reversed $111 $-1 #
edge $-1 $502 0 $408 11.660353709356965 $402 $503 forward 7 unknown #
vertex $-1 $285 $504 #
straight-curve $-1 -19.627151681977313 -17.540061519304423 7.0896449379793109 -1 0 0 I I #
coedge $-1 $401 $286 $289 $415 reversed $279 $-1 #
coedge $-1 $286 $401 $406 $501 forward $279 $-1 #
vertex $-1 $287 $505 #
straight-curve $-1 -27.631088547466703 -27.206932796482761 51.917879019882584 0 0 1 I I #
straight-curve $-1 -27.631088547466703 -27.206932796482761 0.56925780700470341 0 -0.82903756765294845 -0.55919291073839883 I I #
edge $-1 $499 -50.87751818044255 $291 -27.631088547466703 $410 $506 forward 7 unknown #
point $-1 -27.631088547466703 -27.206932796482761 7.0896449379793109 #
point $-1 -27.631088547466703 -17.540061519304427 7.0896449379793109 #
edge $-1 $507 1 $507 0 $294 $-1 forward 7 unknown #
vertex $-1 $295 $508 #
ellipse-curve $-1 -44.235681142449451 -20.18026020274462 0.57784392957523845 0 -0.55919291073839883 0.82903756765294845 1.5 0 0 1 I I #
point $-1 -42.735681142449451 -22.373497157893606 3.8294513724920138 #
edge $-1 $509 1 $509 0 $298 $-1 forward 7 unknown #
vertex $-1 $299 $510 #
ellipse-curve $-1 -34.272925585459802 -20.18026020274462 0.57784392957523845 0 -0.55919291073839883 0.82903756765294845 1.5 0 0 1 I I #
point $-1 -32.772925585459802 -22.373497157893606 3.8294513724920138 #
plane-surface $-1 0 0 7.0896449379793109 0 0 1 1 0 0 forward_v I I I I #
coedge $-1 $437 $436 $429 $511 forward $303 $-1 #
coedge $-1 $429 $305 $307 $433 reversed $199 $-1 #
coedge $-1 $305 $428 $427 $511 reversed $199 $-1 #
coedge $-1 $313 $308 $305 $431 forward $314 $-1 #
edge $-1 $434 -30.890472493259129 $512 -21.223601216080795 $430 $513 forward 7 unknown #
coedge $-1 $307 $306 $437 $514 reversed $125 $-1 #
edge $-1 $515 0 $434 11.660353709356965 $428 $516 forward 7 unknown #
vertex $-1 $309 $517 #
straight-curve $-1 22.951776923578713 -17.540061519304423 7.0896449379793109 -1 0 0 I I #
coedge $-1 $427 $310 $313 $441 reversed $303 $-1 #
coedge $-1 $310 $427 $432 $514 forward $303 $-1 #
vertex $-1 $311 $518 #
straight-curve $-1 57.526768663645349 -27.206932796482761 51.917879019882584 0 0 1 I I #
straight-curve $-1 57.526768663645349 -27.206932796482761 0.56925780700470341 0 -0.82903756765294845 -0.55919291073839883 I I #
edge $-1 $512 34.280339030669502 $315 57.526768663645349 $436 $519 forward 7 unknown #
point $-1 57.526768663645349 -27.206932796482761 7.0896449379793109 #
point $-1 57.526768663645349 -17.540061519304427 7.0896449379793109 #
edge $-1 $520 1 $520 0 $318 $-1 forward 7 unknown #
vertex $-1 $319 $521 #
ellipse-curve $-1 40.922176068662608 -20.18026020274462 0.57784392957523845 0 -0.55919291073839883 0.82903756765294845 1.5 0 0 1 I I #
point $-1 42.422176068662608 -22.373497157893606 3.8294513724920138 #
edge $-1 $522 1 $522 0 $322 $-1 forward 7 unknown #
vertex $-1 $323 $523 #
ellipse-curve $-1 50.884931625652257 -20.18026020274462 0.57784392957523845 0 -0.55919291073839883 0.82903756765294845 1.5 0 0 1 I I #
point $-1 52.384931625652257 -22.373497157893606 3.8294513724920138 #
plane-surface $-1 62.280953398236036 0 0 -1 0 0 0 0 1 forward_v I I I I #
coedge $-1 $331 $329 $333 $457 reversed $221 $-1 #
edge $-1 $344 -7.0896449379793109 $459 7.0896449379793109 $343 $524 forward 7 unknown #
vertex $-1 $457 $525 #
straight-curve $-1 -62.280953398236036 -27.206932796482761 0 0 0 -1 I I #
edge $-1 $455 -27.206932796482761 $459 27.206932796482761 $453 $526 forward 7 unknown #
straight-curve $-1 0 -27.206932796482761 -7.0896449379793109 -1 0 0 I I #
vertex $-1 $336 $527 #
straight-curve $-1 0 27.206932796482761 -7.0896449379793109 1 0 0 I I #
point $-1 62.280953398236036 27.206932796482761 -7.0896449379793109 #
point $-1 62.280953398236036 -27.206932796482761 -7.0896449379793109 #
straight-curve $-1 -62.280953398236036 0 7.0896449379793109 0 -1 0 I I #
point $-1 -62.280953398236036 27.206932796482761 7.0896449379793109 #
point $-1 -62.280953398236036 -27.206932796482761 7.0896449379793109 #
straight-curve $-1 62.280953398236036 -27.206932796482761 0 0 0 -1 I I #
straight-curve $-1 62.280953398236036 27.206932796482761 0 0 0 -1 I I #
plane-surface $-1 0 -27.206932796482761 0 0 1 0 0 0 1 forward_v I I I I #
coedge $-1 $528 $356 $366 $480 reversed $240 $-1 #
coedge $-1 $356 $528 $369 $482 forward $240 $-1 #
coedge $-1 $529 $359 $357 $472 forward $354 $-1 #
edge $-1 $473 55.63170291503323 $530 62.280953398236036 $357 $531 forward 7 unknown #
vertex $-1 $472 $532 #
straight-curve $-1 -55.63170291503323 27.206932796482761 2.6883725028575589 0 0 -1 I I #
coedge $-1 $359 $529 $361 $477 forward $354 $-1 #
straight-curve $-1 -55.63170291503323 0 7.0896449379793109 0 1 0 I I #
edge $-1 $533 -62.280953398236036 $363 -55.63170291503323 $361 $534 forward 7 unknown #
point $-1 -55.63170291503323 -27.206932796482761 7.0896449379793109 #
straight-curve $-1 -62.280953398236036 0 3.6638450734509247 0 -1 0 I I #
edge $-1 $533 -7.0896449379793109 $367 -3.6638450734509247 $469 $535 forward 7 unknown #
point $-1 -62.280953398236036 -27.206932796482761 3.6638450734509247 #
edge $-1 $530 -7.0896449379793109 $370 -3.6638450734509247 $369 $536 forward 7 unknown #
point $-1 -62.280953398236036 27.206932796482761 3.6638450734509247 #
coedge $-1 $385 $384 $377 $485 forward $374 $-1 #
edge $-1 $486 59.74979978266007 $489 63.557070007546365 $484 $537 forward 7 unknown #
vertex $-1 $389 $538 #
straight-curve $-1 49.538156150712766 32.795172551449539 7.0896449379793083 0 1 0 I I #
edge $-1 $489 -32.819593743181883 $386 -0.61753107187988121 $385 $539 forward 7 unknown #
vertex $-1 $488 $540 #
straight-curve $-1 49.538156150712766 -14.476506208904908 38.258933741297056 0 -0.76604443648966558 0.64278761758704617 I I #
point $-1 49.538156150712766 22.669604923031699 7.0896449379793118 #
point $-1 17.336093479410764 27.206932796482761 3.282374713093013 #
straight-curve $-1 0 27.206932796482761 7.0896449379793109 -1 0 0 I I #
vertex $-1 $392 $541 #
point $-1 27.536682814068485 23.564025146190431 3.548249977095741 #
vertex $-1 $396 $542 #
point $-1 41.337566816055059 23.564025146190431 3.548249977095741 #
edge $-1 $499 44.828234081903275 $502 51.34862121287788 $401 $543 forward 7 unknown #
vertex $-1 $415 $544 #
straight-curve $-1 -50.87751818044255 -48.430534012563555 7.0896449379793083 0 -1 0 I I #
edge $-1 $502 -31.250366498465237 $412 -8.0039368654893899 $411 $545 forward 7 unknown #
vertex $-1 $501 $546 #
straight-curve $-1 -50.87751818044255 -27.206932796482761 0.56925780700470341 0 0.82903756765294845 0.55919291073839883 I I #
point $-1 -50.87751818044255 -17.540061519304427 7.0896449379793109 #
point $-1 -27.631088547466703 -27.206932796482761 0.56925780700470341 #
straight-curve $-1 0 -27.206932796482761 7.0896449379793109 1 0 0 I I #
vertex $-1 $418 $547 #
point $-1 -42.735681142449451 -20.18026020274462 0.57784392957523845 #
vertex $-1 $422 $548 #
point $-1 -32.772925585459802 -20.18026020274462 0.57784392957523845 #
edge $-1 $512 44.828234081903275 $515 51.34862121287788 $427 $549 forward 7 unknown #
vertex $-1 $441 $550 #
straight-curve $-1 34.280339030669502 -48.430534012563555 7.0896449379793083 0 -1 0 I I #
edge $-1 $515 11.328562107090789 $438 34.574991740066636 $437 $551 forward 7 unknown #
vertex $-1 $514 $552 #
straight-curve $-1 34.280339030669502 -27.206932796482761 0.56925780700470341 0 0.82903756765294845 0.55919291073839883 I I #
point $-1 34.280339030669502 -17.540061519304427 7.0896449379793109 #
point $-1 57.526768663645349 -27.206932796482761 0.56925780700470341 #
straight-curve $-1 0 -27.206932796482761 7.0896449379793109 1 0 0 I I #
vertex $-1 $444 $553 #
point $-1 42.422176068662608 -20.18026020274462 0.57784392957523845 #
vertex $-1 $448 $554 #
point $-1 52.384931625652257 -20.18026020274462 0.57784392957523845 #
straight-curve $-1 -62.280953398236036 27.206932796482761 0 0 0 -1 I I #
point $-1 -62.280953398236036 -27.206932796482761 -7.0896449379793109 #
straight-curve $-1 -62.280953398236036 0 -7.0896449379793109 0 1 0 I I #
point $-1 -62.280953398236036 27.206932796482761 -7.0896449379793109 #
coedge $-1 $470 $469 $529 $555 reversed $240 $-1 #
coedge $-1 $475 $471 $528 $555 forward $354 $-1 #
vertex $-1 $472 $556 #
straight-curve $-1 0 27.206932796482761 7.0896449379793109 -1 0 0 I I #
point $-1 -55.63170291503323 27.206932796482761 7.0896449379793109 #
vertex $-1 $555 $557 #
straight-curve $-1 0 -27.206932796482761 7.0896449379793109 1 0 0 I I #
straight-curve $-1 -62.280953398236036 -27.206932796482761 0 0 0 -1 I I #
straight-curve $-1 -62.280953398236036 27.206932796482761 0 0 0 -1 I I #
straight-curve $-1 49.538156150712766 27.206932796482761 66.839444720639378 0 0 -1 I I #
point $-1 49.538156150712766 27.206932796482761 7.0896449379793109 #
straight-curve $-1 16.718562407530882 27.206932796482761 3.282374713093013 -1 0 0 I I #
point $-1 49.538156150712766 27.206932796482761 3.282374713093013 #
point $-1 26.536682814068485 22.921237528603385 2.7822055406060753 #
point $-1 40.337566816055059 22.921237528603385 2.7822055406060753 #
straight-curve $-1 -50.87751818044255 -27.206932796482761 51.917879019882584 0 0 -1 I I #
point $-1 -50.87751818044255 -27.206932796482761 7.0896449379793109 #
straight-curve $-1 -19.627151681977313 -27.206932796482761 0.56925780700470408 1 0 0 I I #
point $-1 -50.87751818044255 -27.206932796482761 0.56925780700470341 #
point $-1 -44.235681142449451 -19.341470836637022 -0.66571242190418434 #
point $-1 -34.272925585459802 -19.341470836637022 -0.66571242190418434 #
straight-curve $-1 34.280339030669502 -27.206932796482761 51.917879019882584 0 0 -1 I I #
point $-1 34.280339030669502 -27.206932796482761 7.0896449379793109 #
straight-curve $-1 22.951776923578713 -27.206932796482761 0.56925780700470408 1 0 0 I I #
point $-1 34.280339030669502 -27.206932796482761 0.56925780700470341 #
point $-1 40.922176068662608 -19.341470836637022 -0.66571242190418434 #
point $-1 50.884931625652257 -19.341470836637022 -0.66571242190418434 #
edge $-1 $530 -27.206932796482761 $533 27.206932796482761 $528 $558 forward 7 unknown #
point $-1 -62.280953398236036 27.206932796482761 7.0896449379793109 #
point $-1 -62.280953398236036 -27.206932796482761 7.0896449379793109 #
straight-curve $-1 -62.280953398236036 0 7.0896449379793109 0 -1 0 I I #
End-of-ACIS-data 