500 0 4 0           
7 Unknown 11 ACIS 5.0 NT 24 Fri Mar 26 01:11:10 1999 
-1 9.9999999999999995e-007 1e-010 
body $-1 $4 $-1 $5 #
body $-1 $6 $-1 $7 #
body $-1 $8 $-1 $9 #
body $-1 $10 $-1 $11 #
lump $-1 $-1 $12 $0 #
transform $-1 1 0 0 0 1 0 0 0 1 55.171361430707719 31.855833299490879 13.2557482056712 1 rotate no_reflect no_shear #
lump $-1 $-1 $13 $1 #
transform $-1 1 0 0 0 1 0 0 0 1 55.171361430707719 31.855833299490879 13.2557482056712 1 rotate no_reflect no_shear #
lump $-1 $-1 $14 $2 #
transform $-1 1 0 0 0 1 0 0 0 1 55.171361430707719 31.855833299490879 13.2557482056712 1 rotate no_reflect no_shear #
lump $-1 $-1 $15 $3 #
transform $-1 1 0 0 0 1 0 0 0 1 55.171361430707719 31.855833299490879 13.2557482056712 1 rotate no_reflect no_shear #
shell $-1 $-1 $-1 $16 $-1 $4 #
shell $-1 $-1 $-1 $17 $-1 $6 #
shell $-1 $-1 $-1 $18 $-1 $8 #
shell $-1 $-1 $-1 $19 $-1 $10 #
face $-1 $20 $21 $12 $-1 $22 forward single #
face $-1 $23 $24 $13 $-1 $25 forward single #
face $-1 $26 $27 $14 $-1 $28 reversed single #
face $-1 $29 $30 $15 $-1 $31 forward single #
face $-1 $32 $33 $12 $-1 $34 reversed single #
loop $-1 $-1 $35 $16 #
plane-surface $-1 0 0 13.2557482056712 0 0 1 1 0 0 forward_v I I I I #
face $-1 $36 $37 $13 $-1 $38 reversed single #
loop $-1 $-1 $39 $17 #
plane-surface $-1 -48.691935364130273 0 6.593192881080344 0 0 1 1 0 0 forward_v I I I I #
face $-1 $40 $41 $14 $-1 $42 reversed single #
loop $-1 $-1 $43 $18 #
plane-surface $-1 47.004432650244354 26.472114771415011 161.82244419434096 0 -1 0 -0.66913061440640931 0 -0.74314481823134659 forward_v I I I I #
face $-1 $44 $45 $15 $-1 $46 forward single #
loop $-1 $47 $48 $19 #
cone-surface $-1 50.472989921910681 17.551762025070257 8.8860278634325294 -0.66913061440640931 0 -0.74314481823134659 1.1147172273470198 0 -1.003695921609614 1 I I 0 1 1.5 forward I I I I #
face $-1 $49 $50 $12 $-1 $51 reversed single #
loop $-1 $-1 $52 $20 #
plane-surface $-1 0 0 -13.2557482056712 0 0 1 1 0 0 forward_v I I I I #
coedge $-1 $53 $54 $55 $56 forward $21 $-1 #
face $-1 $57 $58 $13 $-1 $59 reversed single #
loop $-1 $-1 $60 $23 #
plane-surface $-1 -48.691935364130273 0 0.91895430317008664 0 0 1 1 0 0 forward_v I I I I #
coedge $-1 $61 $62 $63 $64 forward $24 $-1 #
face $-1 $65 $66 $14 $-1 $67 reversed single #
loop $-1 $-1 $68 $26 #
plane-surface $-1 -26.829261293290699 17.551762025070257 79.821821470342528 0.66913061440640931 0 0.74314481823134659 0.74314481823134659 0 -0.66913061440640931 forward_v I I I I #
coedge $-1 $69 $70 $71 $72 reversed $27 $-1 #
face $-1 $-1 $73 $15 $-1 $74 forward single #
loop $-1 $75 $76 $29 #
cone-surface $-1 49.308525603909331 17.551762025070257 7.5927592469522089 -0.66913061440640931 0 -0.74314481823134659 0.55735861367350992 0 -0.50184796080480698 1 I I -0.70710678118654757 0.70710678118654757 0.75 forward I I I I #
loop $-1 $-1 $77 $19 #
coedge $-1 $48 $48 $78 $79 reversed $30 $-1 #
face $-1 $80 $81 $12 $-1 $82 reversed single #
loop $-1 $-1 $83 $32 #
plane-surface $-1 0 -31.855833299490879 0 0 1 0 0 0 1 forward_v I I I I #
coedge $-1 $84 $85 $86 $87 forward $33 $-1 #
coedge $-1 $88 $35 $89 $90 forward $21 $-1 #
coedge $-1 $35 $88 $91 $92 forward $21 $-1 #
coedge $-1 $93 $94 $35 $56 reversed $95 $-1 #
edge $-1 $96 -31.855833299490879 $97 31.855833299490879 $55 $98 forward 7 unknown #
face $-1 $99 $100 $13 $-1 $101 reversed single #
loop $-1 $-1 $102 $36 #
plane-surface $-1 -42.212509297552828 0 3.7560735921252153 -1 0 0 0 0 1 forward_v I I I I #
coedge $-1 $103 $104 $105 $106 forward $37 $-1 #
coedge $-1 $107 $39 $108 $109 reversed $24 $-1 #
coedge $-1 $39 $107 $110 $111 reversed $24 $-1 #
coedge $-1 $102 $112 $39 $64 reversed $58 $-1 #
edge $-1 $113 -31.855833299490879 $114 31.855833299490879 $63 $115 forward 7 unknown #
face $-1 $116 $117 $14 $-1 $118 reversed single #
loop $-1 $-1 $119 $40 #
plane-surface $-1 47.004432650244354 8.6314092787255028 161.82244419434096 0 1 0 0.66913061440640931 0 0.74314481823134659 forward_v I I I I #
coedge $-1 $120 $121 $122 $123 reversed $41 $-1 #
coedge $-1 $70 $43 $124 $125 reversed $27 $-1 #
coedge $-1 $43 $69 $120 $126 reversed $27 $-1 #
coedge $-1 $122 $127 $43 $72 forward $128 $-1 #
edge $-1 $129 -31.669145105585542 $130 -23.597634802384533 $71 $131 forward 7 unknown #
loop $-1 $-1 $78 $44 #
plane-surface $-1 -26.829261293290699 17.551762025070257 79.821821470342528 0.66913061440640931 0 0.74314481823134659 0.74314481823134659 0 -0.66913061440640931 forward_v I I I I #
loop $-1 $-1 $132 $29 #
coedge $-1 $76 $76 $77 $133 reversed $45 $-1 #
coedge $-1 $77 $77 $76 $133 forward $47 $-1 #
coedge $-1 $78 $78 $48 $79 forward $73 $-1 #
edge $-1 $134 0 $134 6.2831853071796004 $78 $135 forward 7 unknown #
face $-1 $136 $137 $12 $-1 $138 reversed single #
loop $-1 $-1 $139 $49 #
plane-surface $-1 -55.171361430707719 0 0 1 0 0 0 0 -1 forward_v I I I I #
coedge $-1 $140 $91 $141 $142 forward $50 $-1 #
coedge $-1 $143 $52 $140 $144 forward $33 $-1 #
coedge $-1 $52 $143 $145 $146 forward $33 $-1 #
coedge $-1 $94 $93 $52 $87 reversed $95 $-1 #
edge $-1 $147 -31.855833299490879 $148 31.855833299490879 $86 $149 forward 7 unknown #
coedge $-1 $54 $53 $150 $151 forward $21 $-1 #
coedge $-1 $152 $153 $53 $90 reversed $137 $-1 #
edge $-1 $97 -55.171361430707719 $154 55.171361430707719 $89 $155 forward 7 unknown #
coedge $-1 $83 $156 $54 $92 reversed $50 $-1 #
edge $-1 $157 -55.171361430707719 $96 55.171361430707719 $91 $158 forward 7 unknown #
coedge $-1 $86 $55 $156 $159 forward $95 $-1 #
coedge $-1 $55 $86 $152 $160 reversed $95 $-1 #
loop $-1 $-1 $93 $136 #
vertex $-1 $56 $161 #
vertex $-1 $56 $162 #
straight-curve $-1 55.171361430707719 0 13.2557482056712 0 1 0 I I #
face $-1 $163 $164 $13 $-1 $165 reversed single #
loop $-1 $-1 $166 $57 #
plane-surface $-1 0 -31.855833299490879 0 0 1 0 0 0 1 forward_v I I I I #
coedge $-1 $105 $63 $167 $168 reversed $58 $-1 #
coedge $-1 $169 $60 $166 $170 reversed $37 $-1 #
coedge $-1 $60 $169 $171 $172 reversed $37 $-1 #
coedge $-1 $112 $102 $60 $106 reversed $58 $-1 #
edge $-1 $173 -31.855833299490879 $174 31.855833299490879 $105 $175 forward 7 unknown #
coedge $-1 $62 $61 $176 $177 reversed $24 $-1 #
coedge $-1 $178 $179 $61 $109 forward $180 $-1 #
edge $-1 $181 -30.825393748642583 $114 -17.866541615487691 $108 $182 forward 7 unknown #
coedge $-1 $183 $167 $62 $111 forward $100 $-1 #
edge $-1 $113 17.866541615487691 $184 30.825393748642583 $110 $185 forward 7 unknown #
coedge $-1 $63 $105 $178 $186 reversed $58 $-1 #
vertex $-1 $111 $187 #
vertex $-1 $109 $188 #
straight-curve $-1 -42.212509297552828 0 6.593192881080344 0 1 0 I I #
face $-1 $-1 $128 $14 $-1 $189 forward single #
loop $-1 $-1 $190 $65 #
plane-surface $-1 55.171361430707719 0 0 -1 0 0 0 0 1 forward_v I I I I #
coedge $-1 $191 $192 $193 $194 reversed $66 $-1 #
coedge $-1 $195 $68 $70 $126 forward $41 $-1 #
coedge $-1 $68 $195 $191 $196 forward $41 $-1 #
coedge $-1 $193 $71 $68 $123 forward $128 $-1 #
edge $-1 $130 -17.696233758879885 $197 0.14447173380962575 $122 $198 forward 7 unknown #
coedge $-1 $199 $200 $69 $125 forward $117 $-1 #
edge $-1 $201 -74.923094570363006 $129 -67.655473891499284 $124 $202 forward 7 unknown #
edge $-1 $130 99.48143431416986 $201 110.34272286141542 $70 $203 forward 7 unknown #
coedge $-1 $71 $193 $199 $204 forward $128 $-1 #
loop $-1 $-1 $193 $116 #
vertex $-1 $125 $205 #
vertex $-1 $72 $206 #
straight-curve $-1 23.502216325122177 26.472114771415011 13.255748205671196 -1 0 0 I I #
coedge $-1 $132 $132 $-1 $207 reversed $75 $-1 #
edge $-1 $208 0 $208 6.2831853071796004 $76 $209 forward 7 unknown #
vertex $-1 $79 $210 #
ellipse-curve $-1 51.135606279107222 17.551762025070257 9.6219378662393336 0.66913061440640931 0 0.74314481823134659 1.1147172273470198 0 -1.003695921609614 1 I I #
face $-1 $-1 $95 $12 $-1 $211 reversed single #
loop $-1 $-1 $152 $80 #
plane-surface $-1 0 31.855833299490879 0 0 -1 0 0 0 -1 forward_v I I I I #
coedge $-1 $212 $150 $153 $213 forward $81 $-1 #
coedge $-1 $156 $83 $84 $144 reversed $50 $-1 #
coedge $-1 $150 $212 $83 $142 reversed $81 $-1 #
edge $-1 $157 -13.2557482056712 $214 13.2557482056712 $141 $215 forward 7 unknown #
coedge $-1 $85 $84 $212 $216 forward $33 $-1 #
edge $-1 $148 -55.171361430707719 $214 55.171361430707719 $140 $217 forward 7 unknown #
coedge $-1 $153 $152 $85 $146 reversed $137 $-1 #
edge $-1 $218 -55.171361430707719 $147 55.171361430707719 $145 $219 forward 7 unknown #
vertex $-1 $87 $220 #
vertex $-1 $159 $221 #
straight-curve $-1 55.171361430707719 0 -13.2557482056712 0 -1 0 I I #
coedge $-1 $139 $141 $88 $151 reversed $81 $-1 #
edge $-1 $154 -31.855833299490879 $157 31.855833299490879 $150 $222 forward 7 unknown #
coedge $-1 $145 $89 $94 $160 forward $137 $-1 #
coedge $-1 $89 $145 $139 $213 reversed $137 $-1 #
vertex $-1 $90 $223 #
straight-curve $-1 0 31.855833299490879 13.2557482056712 -1 0 0 I I #
coedge $-1 $91 $140 $93 $159 reversed $50 $-1 #
vertex $-1 $151 $224 #
straight-curve $-1 0 -31.855833299490879 13.2557482056712 1 0 0 I I #
edge $-1 $96 -13.2557482056712 $148 13.2557482056712 $93 $225 forward 7 unknown #
edge $-1 $97 -13.2557482056712 $147 13.2557482056712 $94 $226 forward 7 unknown #
point $-1 55.171361430707719 -31.855833299490879 13.2557482056712 #
point $-1 55.171361430707719 31.855833299490879 13.2557482056712 #
face $-1 $-1 $180 $13 $-1 $227 reversed single #
loop $-1 $-1 $228 $99 #
plane-surface $-1 -55.171361430707719 0 0 1 0 0 0 0 -1 forward_v I I I I #
coedge $-1 $167 $183 $103 $170 forward $100 $-1 #
coedge $-1 $110 $166 $102 $168 forward $100 $-1 #
edge $-1 $174 -0.95908249289252101 $113 4.7151560850177363 $167 $229 forward 7 unknown #
coedge $-1 $104 $103 $228 $230 reversed $37 $-1 #
edge $-1 $231 -30.825393748642583 $174 -17.866541615487691 $166 $232 forward 7 unknown #
coedge $-1 $179 $178 $104 $172 forward $180 $-1 #
edge $-1 $173 17.866541615487691 $233 30.825393748642583 $171 $234 forward 7 unknown #
vertex $-1 $172 $235 #
vertex $-1 $170 $236 #
straight-curve $-1 -42.212509297552828 0 0.91895430317008664 0 -1 0 I I #
coedge $-1 $237 $238 $107 $177 forward $164 $-1 #
edge $-1 $184 -31.855833299490879 $181 31.855833299490879 $176 $239 forward 7 unknown #
coedge $-1 $171 $108 $112 $186 forward $180 $-1 #
coedge $-1 $108 $171 $237 $240 reversed $180 $-1 #
loop $-1 $-1 $171 $163 #
vertex $-1 $240 $241 #
straight-curve $-1 -24.345967682065137 31.855833299490879 6.593192881080344 1 0 0 I I #
coedge $-1 $166 $110 $238 $242 forward $100 $-1 #
vertex $-1 $242 $243 #
straight-curve $-1 -24.345967682065137 -31.855833299490879 6.593192881080344 -1 0 0 I I #
edge $-1 $114 -4.7151560850177363 $173 0.95908249289252101 $178 $244 forward 7 unknown #
point $-1 -42.212509297552828 -31.855833299490879 6.593192881080344 #
point $-1 -42.212509297552828 31.855833299490879 6.593192881080344 #
plane-surface $-1 0 0 13.2557482056712 0 0 1 1 0 0 forward_v I I I I #
coedge $-1 $200 $199 $192 $245 forward $117 $-1 #
coedge $-1 $192 $119 $121 $196 reversed $66 $-1 #
coedge $-1 $119 $191 $190 $245 reversed $66 $-1 #
coedge $-1 $127 $122 $119 $194 forward $128 $-1 #
edge $-1 $197 23.597634802384533 $246 31.669145105585542 $193 $247 forward 7 unknown #
coedge $-1 $121 $120 $200 $248 reversed $41 $-1 #
edge $-1 $249 -110.34272286141542 $197 -99.48143431416986 $191 $250 forward 7 unknown #
vertex $-1 $123 $251 #
straight-curve $-1 47.099851127506703 8.7758810125351285 13.255748205671196 0 -1 0 I I #
coedge $-1 $190 $124 $127 $204 reversed $117 $-1 #
coedge $-1 $124 $190 $195 $248 forward $117 $-1 #
vertex $-1 $125 $252 #
straight-curve $-1 55.171361430707719 26.472114771415011 80.91122209717048 0 0 1 I I #
straight-curve $-1 -26.829261293290699 26.472114771415011 79.821821470342528 0.74314481823134659 0 -0.66913061440640931 I I #
edge $-1 $246 8.6314092787255028 $129 26.472114771415011 $199 $253 forward 7 unknown #
point $-1 55.171361430707719 26.472114771415011 13.2557482056712 #
point $-1 47.09985112750671 26.472114771415011 13.255748205671196 #
edge $-1 $254 1 $254 0 $132 $-1 forward 7 unknown #
vertex $-1 $133 $255 #
ellipse-curve $-1 49.810373564714141 17.551762025070257 8.1501178606257181 0.66913061440640931 0 0.74314481823134659 1.1147172273470198 0 -1.003695921609614 1 I I #
point $-1 52.250323506454244 17.551762025070257 8.6182419446297249 #
plane-surface $-1 55.171361430707719 0 0 -1 0 0 0 0 1 forward_v I I I I #
coedge $-1 $141 $139 $143 $216 reversed $81 $-1 #
edge $-1 $154 -13.2557482056712 $218 13.2557482056712 $153 $256 forward 7 unknown #
vertex $-1 $216 $257 #
straight-curve $-1 -55.171361430707719 -31.855833299490879 0 0 0 -1 I I #
edge $-1 $214 -31.855833299490879 $218 31.855833299490879 $212 $258 forward 7 unknown #
straight-curve $-1 0 -31.855833299490879 -13.2557482056712 -1 0 0 I I #
vertex $-1 $146 $259 #
straight-curve $-1 0 31.855833299490879 -13.2557482056712 1 0 0 I I #
point $-1 55.171361430707719 31.855833299490879 -13.2557482056712 #
point $-1 55.171361430707719 -31.855833299490879 -13.2557482056712 #
straight-curve $-1 -55.171361430707719 0 13.2557482056712 0 -1 0 I I #
point $-1 -55.171361430707719 31.855833299490879 13.2557482056712 #
point $-1 -55.171361430707719 -31.855833299490879 13.2557482056712 #
straight-curve $-1 55.171361430707719 -31.855833299490879 0 0 0 -1 I I #
straight-curve $-1 55.171361430707719 31.855833299490879 0 0 0 -1 I I #
plane-surface $-1 0 31.855833299490879 0 0 -1 0 0 0 -1 forward_v I I I I #
coedge $-1 $238 $237 $169 $230 forward $164 $-1 #
straight-curve $-1 -42.212509297552828 -31.855833299490879 1.8780367960626076 0 0 1 I I #
edge $-1 $233 -31.855833299490879 $231 31.855833299490879 $228 $260 forward 7 unknown #
vertex $-1 $170 $261 #
straight-curve $-1 -24.345967682065137 -31.855833299490879 0.91895430317008664 1 0 0 I I #
vertex $-1 $172 $262 #
straight-curve $-1 -24.345967682065137 31.855833299490879 0.91895430317008664 -1 0 0 I I #
point $-1 -42.212509297552828 31.855833299490879 0.91895430317008664 #
point $-1 -42.212509297552828 -31.855833299490879 0.91895430317008664 #
coedge $-1 $228 $176 $179 $240 forward $164 $-1 #
coedge $-1 $176 $228 $183 $242 reversed $164 $-1 #
straight-curve $-1 -55.171361430707719 0 6.593192881080344 0 1 0 I I #
edge $-1 $181 -6.593192881080344 $233 -0.91895430317008664 $179 $263 forward 7 unknown #
point $-1 -55.171361430707719 31.855833299490879 6.593192881080344 #
edge $-1 $184 -6.593192881080344 $231 -0.91895430317008664 $238 $264 forward 7 unknown #
point $-1 -55.171361430707719 -31.855833299490879 6.593192881080344 #
straight-curve $-1 -42.212509297552828 31.855833299490879 1.8780367960626076 0 0 -1 I I #
edge $-1 $246 67.655473891499284 $249 74.923094570363006 $190 $265 forward 7 unknown #
vertex $-1 $204 $266 #
straight-curve $-1 23.502216325122177 8.6314092787255028 13.255748205671196 1 0 0 I I #
edge $-1 $249 -0.14447173380962575 $201 17.696233758879885 $200 $267 forward 7 unknown #
vertex $-1 $248 $268 #
straight-curve $-1 -26.829261293290699 8.6314092787255028 79.821821470342528 -0.74314481823134659 0 0.66913061440640931 I I #
point $-1 47.09985112750671 8.6314092787255028 13.255748205671196 #
point $-1 55.171361430707719 26.472114771415011 5.9881275268074745 #
straight-curve $-1 55.171361430707719 0 13.2557482056712 0 1 0 I I #
vertex $-1 $207 $269 #
point $-1 50.925090792061155 17.551762025070257 7.146421939016105 #
straight-curve $-1 -55.171361430707719 31.855833299490879 0 0 0 -1 I I #
point $-1 -55.171361430707719 -31.855833299490879 -13.2557482056712 #
straight-curve $-1 -55.171361430707719 0 -13.2557482056712 0 1 0 I I #
point $-1 -55.171361430707719 31.855833299490879 -13.2557482056712 #
straight-curve $-1 -55.171361430707719 0 0.91895430317008664 0 -1 0 I I #
point $-1 -55.171361430707719 -31.855833299490879 0.91895430317008664 #
point $-1 -55.171361430707719 31.855833299490879 0.91895430317008664 #
straight-curve $-1 -55.171361430707719 31.855833299490879 0 0 0 -1 I I #
straight-curve $-1 -55.171361430707719 -31.855833299490879 0 0 0 -1 I I #
straight-curve $-1 55.171361430707719 8.6314092787255028 80.91122209717048 0 0 -1 I I #
point $-1 55.171361430707719 8.6314092787255028 13.2557482056712 #
straight-curve $-1 55.171361430707712 8.7758810125351285 5.9881275268074816 0 1 0 I I #
point $-1 55.171361430707719 8.6314092787255028 5.9881275268074745 #
point $-1 48.806677643104521 17.551762025070257 7.0354006332786989 #
End-of-ACIS-data 