500 0 19 0           
7 Unknown 11 ACIS 5.0 NT 24 Fri Mar 26 00:07:34 1999 
-1 9.9999999999999995e-007 1e-010 
body $-1 $19 $-1 $20 #
body $-1 $21 $-1 $22 #
body $-1 $23 $-1 $24 #
body $-1 $25 $-1 $26 #
body $-1 $27 $-1 $28 #
body $-1 $29 $-1 $30 #
body $-1 $31 $-1 $32 #
body $-1 $33 $-1 $34 #
body $-1 $35 $-1 $36 #
body $-1 $37 $-1 $38 #
body $-1 $39 $-1 $40 #
body $-1 $41 $-1 $42 #
body $-1 $43 $-1 $44 #
body $-1 $45 $-1 $46 #
body $-1 $47 $-1 $48 #
body $-1 $49 $-1 $50 #
body $-1 $51 $-1 $52 #
body $-1 $53 $-1 $54 #
body $-1 $55 $-1 $56 #
lump $-1 $-1 $57 $0 #
transform $-1 1 0 0 0 1 0 0 0 1 75.977660451063571 51.373670001945996 13.766174343641055 1 rotate no_reflect no_shear #
lump $-1 $-1 $58 $1 #
transform $-1 1 0 0 0 1 0 0 0 1 75.977660451063571 51.373670001945996 13.766174343641055 1 rotate no_reflect no_shear #
lump $-1 $-1 $59 $2 #
transform $-1 1 0 0 0 1 0 0 0 1 75.977660451063571 51.373670001945996 13.766174343641055 1 rotate no_reflect no_shear #
lump $-1 $-1 $60 $3 #
transform $-1 1 0 0 0 1 0 0 0 1 75.977660451063571 51.373670001945996 13.766174343641055 1 rotate no_reflect no_shear #
lump $-1 $-1 $61 $4 #
transform $-1 1 0 0 0 1 0 0 0 1 75.977660451063571 51.373670001945996 13.766174343641055 1 rotate no_reflect no_shear #
lump $-1 $-1 $62 $5 #
transform $-1 1 0 0 0 1 0 0 0 1 75.977660451063571 51.373670001945996 13.766174343641055 1 rotate no_reflect no_shear #
lump $-1 $-1 $63 $6 #
transform $-1 1 0 0 0 1 0 0 0 1 75.977660451063571 51.373670001945996 13.766174343641055 1 rotate no_reflect no_shear #
lump $-1 $-1 $64 $7 #
transform $-1 1 0 0 0 1 0 0 0 1 75.977660451063571 51.373670001945996 13.766174343641055 1 rotate no_reflect no_shear #
lump $-1 $-1 $65 $8 #
transform $-1 1 0 0 0 1 0 0 0 1 75.977660451063571 51.373670001945996 13.766174343641055 1 rotate no_reflect no_shear #
lump $-1 $-1 $66 $9 #
transform $-1 1 0 0 0 1 0 0 0 1 75.977660451063571 51.373670001945996 13.766174343641055 1 rotate no_reflect no_shear #
lump $-1 $-1 $67 $10 #
transform $-1 1 0 0 0 1 0 0 0 1 75.977660451063571 51.373670001945996 13.766174343641055 1 rotate no_reflect no_shear #
lump $-1 $-1 $68 $11 #
transform $-1 1 0 0 0 1 0 0 0 1 75.977660451063571 51.373670001945996 13.766174343641055 1 rotate no_reflect no_shear #
lump $-1 $-1 $69 $12 #
transform $-1 1 0 0 0 1 0 0 0 1 75.977660451063571 51.373670001945996 13.766174343641055 1 rotate no_reflect no_shear #
lump $-1 $-1 $70 $13 #
transform $-1 1 0 0 0 1 0 0 0 1 75.977660451063571 51.373670001945996 13.766174343641055 1 rotate no_reflect no_shear #
lump $-1 $-1 $71 $14 #
transform $-1 1 0 0 0 1 0 0 0 1 75.977660451063571 51.373670001945996 13.766174343641055 1 rotate no_reflect no_shear #
lump $-1 $-1 $72 $15 #
transform $-1 1 0 0 0 1 0 0 0 1 75.977660451063571 51.373670001945996 13.766174343641055 1 rotate no_reflect no_shear #
lump $-1 $-1 $73 $16 #
transform $-1 1 0 0 0 1 0 0 0 1 75.977660451063571 51.373670001945996 13.766174343641055 1 rotate no_reflect no_shear #
lump $-1 $-1 $74 $17 #
transform $-1 1 0 0 0 1 0 0 0 1 75.977660451063571 51.373670001945996 13.766174343641055 1 rotate no_reflect no_shear #
lump $-1 $-1 $75 $18 #
transform $-1 1 0 0 0 1 0 0 0 1 75.977660451063571 51.373670001945996 13.766174343641055 1 rotate no_reflect no_shear #
shell $-1 $-1 $-1 $76 $-1 $19 #
shell $-1 $-1 $-1 $77 $-1 $21 #
shell $-1 $-1 $-1 $78 $-1 $23 #
shell $-1 $-1 $-1 $79 $-1 $25 #
shell $-1 $-1 $-1 $80 $-1 $27 #
shell $-1 $-1 $-1 $81 $-1 $29 #
shell $-1 $-1 $-1 $82 $-1 $31 #
shell $-1 $-1 $-1 $83 $-1 $33 #
shell $-1 $-1 $-1 $84 $-1 $35 #
shell $-1 $-1 $-1 $85 $-1 $37 #
shell $-1 $-1 $-1 $86 $-1 $39 #
shell $-1 $-1 $-1 $87 $-1 $41 #
shell $-1 $-1 $-1 $88 $-1 $43 #
shell $-1 $-1 $-1 $89 $-1 $45 #
shell $-1 $-1 $-1 $90 $-1 $47 #
shell $-1 $-1 $-1 $91 $-1 $49 #
shell $-1 $-1 $-1 $92 $-1 $51 #
shell $-1 $-1 $-1 $93 $-1 $53 #
shell $-1 $-1 $-1 $94 $-1 $55 #
face $-1 $95 $96 $57 $-1 $97 forward single #
face $-1 $98 $99 $58 $-1 $100 reversed single #
face $-1 $101 $102 $59 $-1 $103 reversed single #
face $-1 $104 $105 $60 $-1 $106 reversed single #
face $-1 $107 $108 $61 $-1 $109 forward single #
face $-1 $110 $111 $62 $-1 $112 forward single #
face $-1 $113 $114 $63 $-1 $115 forward single #
face $-1 $116 $117 $64 $-1 $118 reversed single #
face $-1 $119 $120 $65 $-1 $121 forward single #
face $-1 $122 $123 $66 $-1 $124 forward single #
face $-1 $125 $126 $67 $-1 $127 forward single #
face $-1 $128 $129 $68 $-1 $130 reversed single #
face $-1 $131 $132 $69 $-1 $133 forward single #
face $-1 $134 $135 $70 $-1 $136 forward single #
face $-1 $137 $138 $71 $-1 $139 forward single #
face $-1 $140 $141 $72 $-1 $142 reversed single #
face $-1 $143 $144 $73 $-1 $145 forward single #
face $-1 $146 $147 $74 $-1 $148 forward single #
face $-1 $149 $150 $75 $-1 $151 forward single #
face $-1 $152 $153 $57 $-1 $154 reversed single #
loop $-1 $-1 $155 $76 #
plane-surface $-1 0 0 13.766174343641055 0 0 1 1 0 0 forward_v I I I I #
face $-1 $156 $157 $58 $-1 $158 reversed single #
loop $-1 $-1 $159 $77 #
plane-surface $-1 -69.544319282740801 -46.36336567175421 0 0 -1 0 0 0 -1 forward_v I I I I #
face $-1 $160 $161 $59 $-1 $162 reversed single #
loop $-1 $-1 $163 $78 #
plane-surface $-1 63.110978114418018 -48.868517836850103 0 1 0 0 0 0 -1 forward_v I I I I #
face $-1 $164 $165 $60 $-1 $166 reversed single #
loop $-1 $-1 $167 $79 #
plane-surface $-1 3.5527136788005009e-015 -177.35034160636059 90.698611297614306 -1 0 0 0 -0.82903758062907751 0.55919289150049634 forward_v I I I I #
face $-1 $168 $169 $61 $-1 $170 forward single #
loop $-1 $171 $172 $80 #
cone-surface $-1 -19.414922243410508 -47.163381044618163 8.7352724597356008 0 0.82903758062907751 -0.55919289150049634 1.5 0 0 1 I I 0 1 1.5 forward I I I I #
face $-1 $173 $174 $62 $-1 $175 forward single #
loop $-1 $176 $177 $81 #
cone-surface $-1 -12.13432640213157 -47.163381044618163 8.7352724597356008 0 0.82903758062907751 -0.55919289150049634 1.5 0 0 1 I I 0 1 1.5 forward I I I I #
face $-1 $178 $179 $63 $-1 $180 forward single #
loop $-1 $181 $182 $82 #
cone-surface $-1 -4.8537305608526253 -47.163381044618163 8.7352724597356008 0 0.82903758062907751 -0.55919289150049634 1.5 0 0 1 I I 0 1 1.5 forward I I I I #
face $-1 $183 $184 $64 $-1 $185 reversed single #
loop $-1 $-1 $186 $83 #
plane-surface $-1 50.976651712286468 -51.37367000194601 5.7262760234680172 0 -0.82903758062907751 0.55919289150049634 1 0 0 forward_v I I I I #
face $-1 $187 $188 $65 $-1 $189 forward single #
loop $-1 $190 $191 $84 #
cone-surface $-1 43.69605587100753 -47.163381044618163 8.7352724597356008 0 0.82903758062907751 -0.55919289150049634 1.5 0 0 1 I I 0 1 1.5 forward I I I I #
face $-1 $192 $193 $66 $-1 $194 forward single #
loop $-1 $195 $196 $85 #
cone-surface $-1 50.976651712286468 -47.163381044618163 8.7352724597356008 0 0.82903758062907751 -0.55919289150049634 1.5 0 0 1 I I 0 1 1.5 forward I I I I #
face $-1 $197 $198 $67 $-1 $199 forward single #
loop $-1 $200 $201 $86 #
cone-surface $-1 58.257247553565406 -47.163381044618163 8.7352724597356008 0 0.82903758062907751 -0.55919289150049634 1.5 0 0 1 I I 0 1 1.5 forward I I I I #
face $-1 $202 $203 $68 $-1 $204 reversed single #
loop $-1 $-1 $205 $87 #
plane-surface $-1 -24.26865280426313 119.89475945559961 175.88001747051413 1 0 0 0 -0.82903758062907751 -0.55919289150049634 forward_v I I I I #
face $-1 $206 $207 $69 $-1 $208 forward single #
loop $-1 $209 $210 $88 #
cone-surface $-1 -19.414922243410508 47.163381044618177 8.7352724597356008 0 -0.82903758062907751 -0.55919289150049634 1.5 0 0 1 I I 0 1 1.5 forward I I I I #
face $-1 $211 $212 $70 $-1 $213 forward single #
loop $-1 $214 $215 $89 #
cone-surface $-1 -12.13432640213157 47.163381044618177 8.7352724597356008 0 -0.82903758062907751 -0.55919289150049634 1.5 0 0 1 I I 0 1 1.5 forward I I I I #
face $-1 $216 $217 $71 $-1 $218 forward single #
loop $-1 $219 $220 $90 #
cone-surface $-1 -4.8537305608526253 47.163381044618177 8.7352724597356008 0 -0.82903758062907751 -0.55919289150049634 1.5 0 0 1 I I 0 1 1.5 forward I I I I #
face $-1 $221 $222 $72 $-1 $223 reversed single #
loop $-1 $-1 $224 $91 #
plane-surface $-1 38.842325310154905 119.89475945559961 175.88001747051413 1 0 0 0 -0.82903758062907751 -0.55919289150049634 forward_v I I I I #
face $-1 $225 $226 $73 $-1 $227 forward single #
loop $-1 $228 $229 $92 #
cone-surface $-1 43.69605587100753 47.163381044618177 8.7352724597356008 0 -0.82903758062907751 -0.55919289150049634 1.5 0 0 1 I I 0 1 1.5 forward I I I I #
face $-1 $230 $231 $74 $-1 $232 forward single #
loop $-1 $233 $234 $93 #
cone-surface $-1 50.976651712286468 47.163381044618177 8.7352724597356008 0 -0.82903758062907751 -0.55919289150049634 1.5 0 0 1 I I 0 1 1.5 forward I I I I #
face $-1 $235 $236 $75 $-1 $237 forward single #
loop $-1 $238 $239 $94 #
cone-surface $-1 58.257247553565406 47.163381044618177 8.7352724597356008 0 -0.82903758062907751 -0.55919289150049634 1.5 0 0 1 I I 0 1 1.5 forward I I I I #
face $-1 $240 $241 $57 $-1 $242 reversed single #
loop $-1 $-1 $243 $95 #
plane-surface $-1 0 0 -13.766174343641055 0 0 1 1 0 0 forward_v I I I I #
coedge $-1 $244 $245 $246 $247 forward $96 $-1 #
face $-1 $248 $249 $58 $-1 $250 forward single #
loop $-1 $-1 $251 $98 #
plane-surface $-1 -63.110978114418039 -48.868517836850103 0 -1 0 0 0 0 1 forward_v I I I I #
coedge $-1 $252 $253 $254 $255 forward $99 $-1 #
face $-1 $256 $257 $59 $-1 $258 forward single #
loop $-1 $-1 $259 $101 #
plane-surface $-1 69.544319282740787 -46.36336567175421 0 0 -1 0 0 0 -1 forward_v I I I I #
coedge $-1 $260 $261 $262 $263 forward $102 $-1 #
face $-1 $264 $265 $60 $-1 $266 reversed single #
loop $-1 $-1 $267 $104 #
plane-surface $-1 -12.134326402131563 -51.37367000194601 5.7262760234680172 0 -0.82903758062907751 0.55919289150049634 1 0 0 forward_v I I I I #
coedge $-1 $268 $269 $270 $271 reversed $105 $-1 #
face $-1 $-1 $272 $61 $-1 $273 forward single #
loop $-1 $274 $275 $107 #
cone-surface $-1 -19.414922243410508 -45.042803763120148 7.3049250672912933 0 0.82903758062907751 -0.55919289150049634 0.75 0 0 1 I I -0.70710678118654757 0.70710678118654757 0.75 forward I I I I #
loop $-1 $-1 $276 $80 #
coedge $-1 $172 $172 $277 $278 reversed $108 $-1 #
face $-1 $-1 $279 $62 $-1 $280 forward single #
loop $-1 $281 $282 $110 #
cone-surface $-1 -12.13432640213157 -45.042803763120148 7.3049250672912933 0 0.82903758062907751 -0.55919289150049634 0.75 0 0 1 I I -0.70710678118654757 0.70710678118654757 0.75 forward I I I I #
loop $-1 $-1 $283 $81 #
coedge $-1 $177 $177 $284 $285 reversed $111 $-1 #
face $-1 $-1 $286 $63 $-1 $287 forward single #
loop $-1 $288 $289 $113 #
cone-surface $-1 -4.8537305608526253 -45.042803763120148 7.3049250672912933 0 0.82903758062907751 -0.55919289150049634 0.75 0 0 1 I I -0.70710678118654757 0.70710678118654757 0.75 forward I I I I #
loop $-1 $-1 $290 $82 #
coedge $-1 $182 $182 $291 $292 reversed $114 $-1 #
face $-1 $293 $294 $64 $-1 $295 forward single #
loop $-1 $-1 $296 $116 #
plane-surface $-1 38.842325310154905 -177.35034160636059 90.698611297614306 1 0 0 0 0.82903758062907751 -0.55919289150049634 forward_v I I I I #
coedge $-1 $297 $298 $299 $300 reversed $117 $-1 #
face $-1 $-1 $301 $65 $-1 $302 forward single #
loop $-1 $303 $304 $119 #
cone-surface $-1 43.69605587100753 -45.042803763120148 7.3049250672912933 0 0.82903758062907751 -0.55919289150049634 0.75 0 0 1 I I -0.70710678118654757 0.70710678118654757 0.75 forward I I I I #
loop $-1 $-1 $305 $84 #
coedge $-1 $191 $191 $306 $307 reversed $120 $-1 #
face $-1 $-1 $308 $66 $-1 $309 forward single #
loop $-1 $310 $311 $122 #
cone-surface $-1 50.976651712286468 -45.042803763120148 7.3049250672912933 0 0.82903758062907751 -0.55919289150049634 0.75 0 0 1 I I -0.70710678118654757 0.70710678118654757 0.75 forward I I I I #
loop $-1 $-1 $312 $85 #
coedge $-1 $196 $196 $313 $314 reversed $123 $-1 #
face $-1 $-1 $315 $67 $-1 $316 forward single #
loop $-1 $317 $318 $125 #
cone-surface $-1 58.257247553565406 -45.042803763120148 7.3049250672912933 0 0.82903758062907751 -0.55919289150049634 0.75 0 0 1 I I -0.70710678118654757 0.70710678118654757 0.75 forward I I I I #
loop $-1 $-1 $319 $86 #
coedge $-1 $201 $201 $320 $321 reversed $126 $-1 #
face $-1 $322 $323 $68 $-1 $324 reversed single #
loop $-1 $-1 $325 $128 #
plane-surface $-1 -12.134326402131563 -6.0819121488149648 90.907682196367844 0 0.82903758062907751 0.55919289150049634 1 0 0 forward_v I I I I #
coedge $-1 $326 $327 $328 $329 reversed $129 $-1 #
face $-1 $-1 $330 $69 $-1 $331 forward single #
loop $-1 $332 $333 $131 #
cone-surface $-1 -19.414922243410508 45.042803763120162 7.3049250672912933 0 -0.82903758062907751 -0.55919289150049634 0.75 0 0 1 I I -0.70710678118654757 0.70710678118654757 0.75 forward I I I I #
loop $-1 $-1 $334 $88 #
coedge $-1 $210 $210 $335 $336 reversed $132 $-1 #
face $-1 $-1 $337 $70 $-1 $338 forward single #
loop $-1 $339 $340 $134 #
cone-surface $-1 -12.13432640213157 45.042803763120162 7.3049250672912933 0 -0.82903758062907751 -0.55919289150049634 0.75 0 0 1 I I -0.70710678118654757 0.70710678118654757 0.75 forward I I I I #
loop $-1 $-1 $341 $89 #
coedge $-1 $215 $215 $342 $343 reversed $135 $-1 #
face $-1 $-1 $344 $71 $-1 $345 forward single #
loop $-1 $346 $347 $137 #
cone-surface $-1 -4.8537305608526253 45.042803763120162 7.3049250672912933 0 -0.82903758062907751 -0.55919289150049634 0.75 0 0 1 I I -0.70710678118654757 0.70710678118654757 0.75 forward I I I I #
loop $-1 $-1 $348 $90 #
coedge $-1 $220 $220 $349 $350 reversed $138 $-1 #
face $-1 $351 $352 $72 $-1 $353 reversed single #
loop $-1 $-1 $354 $140 #
plane-surface $-1 50.976651712286468 -6.0819121488149648 90.907682196367844 0 0.82903758062907751 0.55919289150049634 1 0 0 forward_v I I I I #
coedge $-1 $355 $356 $357 $358 reversed $141 $-1 #
face $-1 $-1 $359 $73 $-1 $360 forward single #
loop $-1 $361 $362 $143 #
cone-surface $-1 43.69605587100753 45.042803763120162 7.3049250672912933 0 -0.82903758062907751 -0.55919289150049634 0.75 0 0 1 I I -0.70710678118654757 0.70710678118654757 0.75 forward I I I I #
loop $-1 $-1 $363 $92 #
coedge $-1 $229 $229 $364 $365 reversed $144 $-1 #
face $-1 $-1 $366 $74 $-1 $367 forward single #
loop $-1 $368 $369 $146 #
cone-surface $-1 50.976651712286468 45.042803763120162 7.3049250672912933 0 -0.82903758062907751 -0.55919289150049634 0.75 0 0 1 I I -0.70710678118654757 0.70710678118654757 0.75 forward I I I I #
loop $-1 $-1 $370 $93 #
coedge $-1 $234 $234 $371 $372 reversed $147 $-1 #
face $-1 $-1 $373 $75 $-1 $374 forward single #
loop $-1 $375 $376 $149 #
cone-surface $-1 58.257247553565406 45.042803763120162 7.3049250672912933 0 -0.82903758062907751 -0.55919289150049634 0.75 0 0 1 I I -0.70710678118654757 0.70710678118654757 0.75 forward I I I I #
loop $-1 $-1 $377 $94 #
coedge $-1 $239 $239 $378 $379 reversed $150 $-1 #
face $-1 $380 $381 $57 $-1 $382 reversed single #
loop $-1 $-1 $383 $152 #
plane-surface $-1 0 -51.373670001945996 0 0 1 0 0 0 1 forward_v I I I I #
coedge $-1 $384 $385 $386 $387 forward $153 $-1 #
coedge $-1 $388 $155 $389 $390 forward $96 $-1 #
coedge $-1 $155 $388 $391 $392 forward $96 $-1 #
coedge $-1 $393 $394 $155 $247 reversed $395 $-1 #
edge $-1 $396 -51.373670001945996 $397 51.373670001945996 $246 $398 forward 7 unknown #
face $-1 $399 $400 $58 $-1 $401 reversed single #
loop $-1 $-1 $402 $156 #
plane-surface $-1 0 0 13.766174343641055 0 0 1 1 0 0 forward_v I I I I #
coedge $-1 $403 $404 $405 $406 reversed $157 $-1 #
coedge $-1 $407 $159 $408 $409 reversed $99 $-1 #
coedge $-1 $159 $407 $410 $411 reversed $99 $-1 #
coedge $-1 $404 $403 $159 $255 reversed $157 $-1 #
edge $-1 $412 -13.766174343641055 $413 13.766174343641055 $254 $414 forward 7 unknown #
face $-1 $415 $416 $59 $-1 $417 reversed single #
loop $-1 $-1 $418 $160 #
plane-surface $-1 0 0 13.766174343641055 0 0 1 1 0 0 forward_v I I I I #
coedge $-1 $419 $420 $421 $422 reversed $161 $-1 #
coedge $-1 $423 $163 $424 $425 reversed $102 $-1 #
coedge $-1 $163 $423 $426 $427 reversed $102 $-1 #
coedge $-1 $420 $419 $163 $263 reversed $161 $-1 #
edge $-1 $428 -13.766174343641055 $429 13.766174343641055 $262 $430 forward 7 unknown #
face $-1 $431 $432 $60 $-1 $433 forward single #
loop $-1 $-1 $434 $164 #
plane-surface $-1 -24.26865280426313 -177.35034160636059 90.698611297614306 1 0 0 0 0.82903758062907751 -0.55919289150049634 forward_v I I I I #
coedge $-1 $435 $436 $437 $438 reversed $165 $-1 #
coedge $-1 $269 $167 $439 $440 reversed $105 $-1 #
coedge $-1 $167 $268 $435 $441 reversed $105 $-1 #
coedge $-1 $437 $442 $167 $271 forward $432 $-1 #
edge $-1 $443 37.301500801234297 $444 42.724480523837535 $270 $445 forward 7 unknown #
loop $-1 $-1 $277 $168 #
plane-surface $-1 -12.134326402131563 -51.37367000194601 5.7262760234680172 0 -0.82903758062907751 0.55919289150049634 1 0 0 forward_v I I I I #
loop $-1 $-1 $446 $107 #
coedge $-1 $275 $275 $276 $447 reversed $169 $-1 #
coedge $-1 $276 $276 $275 $447 forward $171 $-1 #
coedge $-1 $277 $277 $172 $278 forward $272 $-1 #
edge $-1 $448 -1.2782412242917051e-015 $448 6.2831853071795996 $277 $449 forward 7 unknown #
loop $-1 $-1 $284 $173 #
plane-surface $-1 -12.134326402131563 -51.37367000194601 5.7262760234680172 0 -0.82903758062907751 0.55919289150049634 1 0 0 forward_v I I I I #
loop $-1 $-1 $450 $110 #
coedge $-1 $282 $282 $283 $451 reversed $174 $-1 #
coedge $-1 $283 $283 $282 $451 forward $176 $-1 #
coedge $-1 $284 $284 $177 $285 forward $279 $-1 #
edge $-1 $452 -1.2782412242917051e-015 $452 6.2831853071795996 $284 $453 forward 7 unknown #
loop $-1 $-1 $291 $178 #
plane-surface $-1 -12.134326402131563 -51.37367000194601 5.7262760234680172 0 -0.82903758062907751 0.55919289150049634 1 0 0 forward_v I I I I #
loop $-1 $-1 $454 $113 #
coedge $-1 $289 $289 $290 $455 reversed $179 $-1 #
coedge $-1 $290 $290 $289 $455 forward $181 $-1 #
coedge $-1 $291 $291 $182 $292 forward $286 $-1 #
edge $-1 $456 -1.2782412242917051e-015 $456 6.2831853071795996 $291 $457 forward 7 unknown #
face $-1 $458 $459 $64 $-1 $460 reversed single #
loop $-1 $-1 $461 $183 #
plane-surface $-1 0 0 13.766174343641055 0 0 1 1 0 0 forward_v I I I I #
coedge $-1 $462 $463 $464 $465 reversed $184 $-1 #
coedge $-1 $466 $186 $467 $468 reversed $117 $-1 #
coedge $-1 $186 $466 $462 $469 forward $117 $-1 #
coedge $-1 $464 $461 $186 $300 forward $294 $-1 #
edge $-1 $470 -37.622652258274798 $471 -13.353999454011671 $299 $472 forward 7 unknown #
loop $-1 $-1 $306 $187 #
plane-surface $-1 50.976651712286468 -51.37367000194601 5.7262760234680172 0 -0.82903758062907751 0.55919289150049634 1 0 0 forward_v I I I I #
loop $-1 $-1 $473 $119 #
coedge $-1 $304 $304 $305 $474 reversed $188 $-1 #
coedge $-1 $305 $305 $304 $474 forward $190 $-1 #
coedge $-1 $306 $306 $191 $307 forward $301 $-1 #
edge $-1 $475 -1.2782412242917051e-015 $475 6.2831853071795996 $306 $476 forward 7 unknown #
loop $-1 $-1 $313 $192 #
plane-surface $-1 50.976651712286468 -51.37367000194601 5.7262760234680172 0 -0.82903758062907751 0.55919289150049634 1 0 0 forward_v I I I I #
loop $-1 $-1 $477 $122 #
coedge $-1 $311 $311 $312 $478 reversed $193 $-1 #
coedge $-1 $312 $312 $311 $478 forward $195 $-1 #
coedge $-1 $313 $313 $196 $314 forward $308 $-1 #
edge $-1 $479 -1.2782412242917051e-015 $479 6.2831853071795996 $313 $480 forward 7 unknown #
loop $-1 $-1 $320 $197 #
plane-surface $-1 50.976651712286468 -51.37367000194601 5.7262760234680172 0 -0.82903758062907751 0.55919289150049634 1 0 0 forward_v I I I I #
loop $-1 $-1 $481 $125 #
coedge $-1 $318 $318 $319 $482 reversed $198 $-1 #
coedge $-1 $319 $319 $318 $482 forward $200 $-1 #
coedge $-1 $320 $320 $201 $321 forward $315 $-1 #
edge $-1 $483 -1.2782412242917051e-015 $483 6.2831853071795996 $320 $484 forward 7 unknown #
face $-1 $485 $486 $68 $-1 $487 reversed single #
loop $-1 $-1 $488 $202 #
plane-surface $-1 3.5527136788005009e-015 119.89475945559961 175.88001747051413 -1 0 0 0 0.82903758062907751 0.55919289150049634 forward_v I I I I #
coedge $-1 $489 $490 $491 $492 reversed $203 $-1 #
coedge $-1 $327 $205 $493 $494 reversed $129 $-1 #
coedge $-1 $205 $326 $489 $495 reversed $129 $-1 #
coedge $-1 $491 $496 $205 $329 forward $497 $-1 #
edge $-1 $498 8.57370972585381 $499 13.996689448457055 $328 $500 forward 7 unknown #
loop $-1 $-1 $335 $206 #
plane-surface $-1 -12.134326402131563 -6.0819121488149648 90.907682196367844 0 0.82903758062907751 0.55919289150049634 1 0 0 forward_v I I I I #
loop $-1 $-1 $501 $131 #
coedge $-1 $333 $333 $334 $502 reversed $207 $-1 #
coedge $-1 $334 $334 $333 $502 forward $209 $-1 #
coedge $-1 $335 $335 $210 $336 forward $330 $-1 #
edge $-1 $503 1.6670919286488912e-015 $503 6.2831853071796022 $335 $504 forward 7 unknown #
loop $-1 $-1 $342 $211 #
plane-surface $-1 -12.134326402131563 -6.0819121488149648 90.907682196367844 0 0.82903758062907751 0.55919289150049634 1 0 0 forward_v I I I I #
loop $-1 $-1 $505 $134 #
coedge $-1 $340 $340 $341 $506 reversed $212 $-1 #
coedge $-1 $341 $341 $340 $506 forward $214 $-1 #
coedge $-1 $342 $342 $215 $343 forward $337 $-1 #
edge $-1 $507 1.6670919286488912e-015 $507 6.2831853071796022 $342 $508 forward 7 unknown #
loop $-1 $-1 $349 $216 #
plane-surface $-1 -12.134326402131563 -6.0819121488149648 90.907682196367844 0 0.82903758062907751 0.55919289150049634 1 0 0 forward_v I I I I #
loop $-1 $-1 $509 $137 #
coedge $-1 $347 $347 $348 $510 reversed $217 $-1 #
coedge $-1 $348 $348 $347 $510 forward $219 $-1 #
coedge $-1 $349 $349 $220 $350 forward $344 $-1 #
edge $-1 $511 1.6670919286488912e-015 $511 6.2831853071796022 $349 $512 forward 7 unknown #
face $-1 $513 $514 $72 $-1 $515 forward single #
loop $-1 $-1 $516 $221 #
plane-surface $-1 63.110978114418032 119.89475945559961 175.88001747051413 -1 0 0 0 0.82903758062907751 0.55919289150049634 forward_v I I I I #
coedge $-1 $517 $518 $519 $520 reversed $222 $-1 #
coedge $-1 $356 $224 $521 $522 reversed $141 $-1 #
coedge $-1 $224 $355 $517 $523 reversed $141 $-1 #
coedge $-1 $519 $524 $224 $358 forward $514 $-1 #
edge $-1 $525 8.57370972585381 $526 13.996689448457055 $357 $527 forward 7 unknown #
loop $-1 $-1 $364 $225 #
plane-surface $-1 50.976651712286468 -6.0819121488149648 90.907682196367844 0 0.82903758062907751 0.55919289150049634 1 0 0 forward_v I I I I #
loop $-1 $-1 $528 $143 #
coedge $-1 $362 $362 $363 $529 reversed $226 $-1 #
coedge $-1 $363 $363 $362 $529 forward $228 $-1 #
coedge $-1 $364 $364 $229 $365 forward $359 $-1 #
edge $-1 $530 1.6670919286488912e-015 $530 6.2831853071796022 $364 $531 forward 7 unknown #
loop $-1 $-1 $371 $230 #
plane-surface $-1 50.976651712286468 -6.0819121488149648 90.907682196367844 0 0.82903758062907751 0.55919289150049634 1 0 0 forward_v I I I I #
loop $-1 $-1 $532 $146 #
coedge $-1 $369 $369 $370 $533 reversed $231 $-1 #
coedge $-1 $370 $370 $369 $533 forward $233 $-1 #
coedge $-1 $371 $371 $234 $372 forward $366 $-1 #
edge $-1 $534 1.6670919286488912e-015 $534 6.2831853071796022 $371 $535 forward 7 unknown #
loop $-1 $-1 $378 $235 #
plane-surface $-1 50.976651712286468 -6.0819121488149648 90.907682196367844 0 0.82903758062907751 0.55919289150049634 1 0 0 forward_v I I I I #
loop $-1 $-1 $536 $149 #
coedge $-1 $376 $376 $377 $537 reversed $236 $-1 #
coedge $-1 $377 $377 $376 $537 forward $238 $-1 #
coedge $-1 $378 $378 $239 $379 forward $373 $-1 #
edge $-1 $538 1.6670919286488912e-015 $538 6.2831853071796022 $378 $539 forward 7 unknown #
face $-1 $540 $541 $57 $-1 $542 reversed single #
loop $-1 $-1 $543 $240 #
plane-surface $-1 -75.977660451063571 0 0 1 0 0 0 0 -1 forward_v I I I I #
coedge $-1 $544 $391 $545 $546 forward $241 $-1 #
coedge $-1 $547 $243 $544 $548 forward $153 $-1 #
coedge $-1 $243 $547 $549 $550 forward $153 $-1 #
coedge $-1 $394 $393 $243 $387 reversed $395 $-1 #
edge $-1 $551 -51.373670001945996 $552 51.373670001945996 $386 $553 forward 7 unknown #
coedge $-1 $245 $244 $554 $555 forward $96 $-1 #
coedge $-1 $556 $557 $244 $390 reversed $541 $-1 #
edge $-1 $397 -75.977660451063571 $558 75.977660451063571 $389 $559 forward 7 unknown #
coedge $-1 $383 $560 $245 $392 reversed $241 $-1 #
edge $-1 $561 -75.977660451063571 $396 75.977660451063571 $391 $562 forward 7 unknown #
coedge $-1 $386 $246 $560 $563 forward $395 $-1 #
coedge $-1 $246 $386 $556 $564 reversed $395 $-1 #
loop $-1 $-1 $393 $540 #
vertex $-1 $247 $565 #
vertex $-1 $247 $566 #
straight-curve $-1 75.977660451063571 0 13.766174343641055 0 1 0 I I #
face $-1 $567 $568 $58 $-1 $569 reversed single #
loop $-1 $-1 $570 $248 #
plane-surface $-1 -75.977660451063571 0 0 1 0 0 0 0 -1 forward_v I I I I #
coedge $-1 $410 $571 $404 $572 forward $249 $-1 #
coedge $-1 $254 $251 $573 $574 reversed $157 $-1 #
coedge $-1 $251 $254 $402 $572 reversed $157 $-1 #
coedge $-1 $575 $576 $251 $406 forward $577 $-1 #
edge $-1 $578 -13.766174343641055 $579 13.766174343641055 $405 $580 forward 7 unknown #
coedge $-1 $253 $252 $570 $581 reversed $99 $-1 #
coedge $-1 $573 $582 $252 $409 forward $568 $-1 #
edge $-1 $583 -41.20550080969317 $413 -28.338818473047638 $408 $584 forward 7 unknown #
coedge $-1 $585 $402 $253 $411 forward $249 $-1 #
edge $-1 $412 28.338818473047638 $586 41.20550080969317 $410 $587 forward 7 unknown #
vertex $-1 $411 $588 #
vertex $-1 $409 $589 #
straight-curve $-1 -63.110978114418039 -46.36336567175421 0 0 0 -1 I I #
face $-1 $590 $591 $59 $-1 $592 reversed single #
loop $-1 $-1 $593 $256 #
plane-surface $-1 0 -51.373670001945996 0 0 1 0 0 0 1 forward_v I I I I #
coedge $-1 $426 $594 $420 $595 forward $257 $-1 #
coedge $-1 $262 $259 $596 $597 reversed $161 $-1 #
coedge $-1 $259 $262 $418 $595 reversed $161 $-1 #
coedge $-1 $598 $599 $259 $422 forward $600 $-1 #
edge $-1 $601 -13.766174343641055 $602 13.766174343641055 $421 $603 forward 7 unknown #
coedge $-1 $261 $260 $593 $604 reversed $102 $-1 #
coedge $-1 $596 $605 $260 $425 forward $591 $-1 #
edge $-1 $606 -26.939411083520945 $429 -21.929106753329158 $424 $607 forward 7 unknown #
coedge $-1 $608 $418 $261 $427 forward $257 $-1 #
edge $-1 $428 21.929106753329158 $609 26.939411083520945 $426 $610 forward 7 unknown #
vertex $-1 $427 $611 #
vertex $-1 $425 $612 #
straight-curve $-1 63.110978114418018 -46.36336567175421 0 0 0 -1 I I #
face $-1 $-1 $613 $60 $-1 $614 reversed single #
loop $-1 $-1 $270 $264 #
plane-surface $-1 0 0 13.766174343641055 0 0 1 1 0 0 forward_v I I I I #
coedge $-1 $615 $616 $617 $618 reversed $265 $-1 #
coedge $-1 $619 $267 $269 $441 forward $165 $-1 #
coedge $-1 $267 $619 $615 $620 forward $165 $-1 #
coedge $-1 $617 $270 $267 $438 forward $432 $-1 #
edge $-1 $444 -6.0671632010657852 $621 18.201489603197349 $437 $622 forward 7 unknown #
coedge $-1 $623 $624 $268 $440 forward $613 $-1 #
edge $-1 $625 -39.623029625339115 $443 -31.583131305166098 $439 $626 forward 7 unknown #
edge $-1 $444 -9.6978695634911105 $625 -2.5618607856530852e-014 $269 $627 forward 7 unknown #
coedge $-1 $270 $617 $623 $628 forward $432 $-1 #
vertex $-1 $440 $629 #
vertex $-1 $271 $630 #
straight-curve $-1 3.5527136788005009e-015 -88.675170803180293 13.766174343641055 0 1 0 I I #
coedge $-1 $446 $446 $-1 $631 reversed $274 $-1 #
edge $-1 $632 0 $632 6.2831853071796004 $275 $633 forward 7 unknown #
vertex $-1 $278 $634 #
ellipse-curve $-1 -19.414922243410508 -48.662180140644381 9.746225183554543 0 -0.82903758062907751 0.55919289150049634 1.5 0 0 1 I I #
coedge $-1 $450 $450 $-1 $635 reversed $281 $-1 #
edge $-1 $636 0 $636 6.2831853071796004 $282 $637 forward 7 unknown #
vertex $-1 $285 $638 #
ellipse-curve $-1 -12.13432640213157 -48.662180140644381 9.746225183554543 0 -0.82903758062907751 0.55919289150049634 1.5 0 0 1 I I #
coedge $-1 $454 $454 $-1 $639 reversed $288 $-1 #
edge $-1 $640 0 $640 6.2831853071796004 $289 $641 forward 7 unknown #
vertex $-1 $292 $642 #
ellipse-curve $-1 -4.8537305608526253 -48.662180140644381 9.746225183554543 0 -0.82903758062907751 0.55919289150049634 1.5 0 0 1 I I #
face $-1 $-1 $643 $64 $-1 $644 forward single #
loop $-1 $-1 $645 $293 #
plane-surface $-1 0 -51.373670001945996 0 0 1 0 0 0 1 forward_v I I I I #
coedge $-1 $299 $646 $647 $648 forward $294 $-1 #
coedge $-1 $463 $296 $298 $469 reversed $184 $-1 #
coedge $-1 $296 $462 $645 $649 reversed $184 $-1 #
coedge $-1 $646 $299 $296 $465 forward $294 $-1 #
edge $-1 $471 -42.724480523837535 $650 -37.301500801234297 $464 $651 forward 7 unknown #
coedge $-1 $298 $297 $652 $653 reversed $117 $-1 #
coedge $-1 $647 $654 $297 $468 forward $643 $-1 #
edge $-1 $655 1.6732173688307816 $470 11.371086932321868 $467 $656 forward 7 unknown #
edge $-1 $657 2.5618607856530852e-014 $471 9.6978695634911105 $462 $658 forward 7 unknown #
vertex $-1 $300 $659 #
vertex $-1 $300 $660 #
straight-curve $-1 25.488325856143234 -45.950690279342766 13.766174343641055 -1 0 0 I I #
coedge $-1 $473 $473 $-1 $661 reversed $303 $-1 #
edge $-1 $662 0 $662 6.2831853071796004 $304 $663 forward 7 unknown #
vertex $-1 $307 $664 #
ellipse-curve $-1 43.69605587100753 -48.662180140644381 9.746225183554543 0 -0.82903758062907751 0.55919289150049634 1.5 0 0 1 I I #
coedge $-1 $477 $477 $-1 $665 reversed $310 $-1 #
edge $-1 $666 0 $666 6.2831853071796004 $311 $667 forward 7 unknown #
vertex $-1 $314 $668 #
ellipse-curve $-1 50.976651712286468 -48.662180140644381 9.746225183554543 0 -0.82903758062907751 0.55919289150049634 1.5 0 0 1 I I #
coedge $-1 $481 $481 $-1 $669 reversed $317 $-1 #
edge $-1 $670 0 $670 6.2831853071796004 $318 $671 forward 7 unknown #
vertex $-1 $321 $672 #
ellipse-curve $-1 58.257247553565406 -48.662180140644381 9.746225183554543 0 -0.82903758062907751 0.55919289150049634 1.5 0 0 1 I I #
face $-1 $-1 $497 $68 $-1 $673 forward single #
loop $-1 $-1 $674 $322 #
plane-surface $-1 0 51.373670001945996 0 0 -1 0 0 0 -1 forward_v I I I I #
coedge $-1 $675 $676 $677 $678 reversed $323 $-1 #
coedge $-1 $679 $325 $327 $495 forward $203 $-1 #
coedge $-1 $325 $679 $675 $680 forward $203 $-1 #
coedge $-1 $677 $328 $325 $492 forward $497 $-1 #
edge $-1 $499 -18.201489603197349 $681 6.0671632010657852 $491 $682 forward 7 unknown #
coedge $-1 $683 $684 $326 $494 forward $486 $-1 #
edge $-1 $685 -82.213732711789035 $498 -74.173834391616012 $493 $686 forward 7 unknown #
edge $-1 $499 93.049470440400867 $685 102.74734000389196 $327 $687 forward 7 unknown #
coedge $-1 $328 $677 $683 $688 forward $497 $-1 #
loop $-1 $-1 $677 $485 #
vertex $-1 $494 $689 #
vertex $-1 $329 $690 #
straight-curve $-1 -24.26865280426313 59.947379727799806 13.766174343641055 0 -1 0 I I #
coedge $-1 $501 $501 $-1 $691 reversed $332 $-1 #
edge $-1 $692 0 $692 6.2831853071796004 $333 $693 forward 7 unknown #
vertex $-1 $336 $694 #
ellipse-curve $-1 -19.414922243410508 48.662180140644381 9.7462251835545342 0 0.82903758062907751 0.55919289150049634 1.5 0 0 1 I I #
coedge $-1 $505 $505 $-1 $695 reversed $339 $-1 #
edge $-1 $696 0 $696 6.2831853071796004 $340 $697 forward 7 unknown #
vertex $-1 $343 $698 #
ellipse-curve $-1 -12.13432640213157 48.662180140644381 9.7462251835545342 0 0.82903758062907751 0.55919289150049634 1.5 0 0 1 I I #
coedge $-1 $509 $509 $-1 $699 reversed $346 $-1 #
edge $-1 $700 0 $700 6.2831853071796004 $347 $701 forward 7 unknown #
vertex $-1 $350 $702 #
ellipse-curve $-1 -4.8537305608526253 48.662180140644381 9.7462251835545342 0 0.82903758062907751 0.55919289150049634 1.5 0 0 1 I I #
face $-1 $-1 $703 $72 $-1 $704 reversed single #
loop $-1 $-1 $357 $351 #
plane-surface $-1 0 0 13.766174343641055 0 0 1 1 0 0 forward_v I I I I #
coedge $-1 $705 $706 $707 $708 reversed $352 $-1 #
coedge $-1 $709 $354 $356 $523 forward $222 $-1 #
coedge $-1 $354 $709 $705 $710 forward $222 $-1 #
coedge $-1 $707 $357 $354 $520 forward $514 $-1 #
edge $-1 $526 13.353999454011671 $711 37.622652258274798 $519 $712 forward 7 unknown #
coedge $-1 $713 $714 $355 $522 forward $703 $-1 #
edge $-1 $715 -82.213732711789035 $525 -74.173834391616012 $521 $716 forward 7 unknown #
edge $-1 $526 93.049470440400867 $715 102.74734000389196 $356 $717 forward 7 unknown #
coedge $-1 $357 $707 $713 $718 forward $514 $-1 #
vertex $-1 $358 $719 #
vertex $-1 $358 $720 #
straight-curve $-1 38.842325310154905 59.947379727799806 13.766174343641055 0 -1 0 I I #
coedge $-1 $528 $528 $-1 $721 reversed $361 $-1 #
edge $-1 $722 0 $722 6.2831853071796004 $362 $723 forward 7 unknown #
vertex $-1 $365 $724 #
ellipse-curve $-1 43.69605587100753 48.662180140644381 9.7462251835545342 0 0.82903758062907751 0.55919289150049634 1.5 0 0 1 I I #
coedge $-1 $532 $532 $-1 $725 reversed $368 $-1 #
edge $-1 $726 0 $726 6.2831853071796004 $369 $727 forward 7 unknown #
vertex $-1 $372 $728 #
ellipse-curve $-1 50.976651712286468 48.662180140644381 9.7462251835545342 0 0.82903758062907751 0.55919289150049634 1.5 0 0 1 I I #
coedge $-1 $536 $536 $-1 $729 reversed $375 $-1 #
edge $-1 $730 0 $730 6.2831853071796004 $376 $731 forward 7 unknown #
vertex $-1 $379 $732 #
ellipse-curve $-1 58.257247553565406 48.662180140644381 9.7462251835545342 0 0.82903758062907751 0.55919289150049634 1.5 0 0 1 I I #
face $-1 $-1 $395 $57 $-1 $733 reversed single #
loop $-1 $-1 $556 $380 #
plane-surface $-1 0 51.373670001945996 0 0 -1 0 0 0 -1 forward_v I I I I #
coedge $-1 $734 $554 $557 $735 forward $381 $-1 #
coedge $-1 $560 $383 $384 $548 reversed $241 $-1 #
coedge $-1 $554 $734 $383 $546 reversed $381 $-1 #
edge $-1 $561 -13.766174343641055 $736 13.766174343641055 $545 $737 forward 7 unknown #
coedge $-1 $385 $384 $734 $738 forward $153 $-1 #
edge $-1 $552 -75.977660451063571 $736 75.977660451063571 $544 $739 forward 7 unknown #
coedge $-1 $557 $556 $385 $550 reversed $541 $-1 #
edge $-1 $740 -75.977660451063571 $551 75.977660451063571 $549 $741 forward 7 unknown #
vertex $-1 $387 $742 #
vertex $-1 $563 $743 #
straight-curve $-1 75.977660451063571 0 -13.766174343641055 0 -1 0 I I #
coedge $-1 $543 $545 $388 $555 reversed $381 $-1 #
edge $-1 $558 -51.373670001945996 $561 51.373670001945996 $554 $744 forward 7 unknown #
coedge $-1 $549 $389 $394 $564 forward $541 $-1 #
coedge $-1 $389 $549 $543 $735 reversed $541 $-1 #
vertex $-1 $390 $745 #
straight-curve $-1 0 51.373670001945996 13.766174343641055 -1 0 0 I I #
coedge $-1 $391 $544 $393 $563 reversed $241 $-1 #
vertex $-1 $555 $746 #
straight-curve $-1 0 -51.373670001945996 13.766174343641055 1 0 0 I I #
edge $-1 $396 -13.766174343641055 $552 13.766174343641055 $393 $747 forward 7 unknown #
edge $-1 $397 -13.766174343641055 $551 13.766174343641055 $394 $748 forward 7 unknown #
point $-1 75.977660451063571 -51.373670001945996 13.766174343641055 #
point $-1 75.977660451063571 51.373670001945996 13.766174343641055 #
face $-1 $-1 $577 $58 $-1 $749 reversed single #
loop $-1 $-1 $573 $399 #
plane-surface $-1 0 0 -13.766174343641055 0 0 1 1 0 0 forward_v I I I I #
coedge $-1 $750 $751 $407 $581 forward $400 $-1 #
coedge $-1 $402 $585 $575 $752 forward $249 $-1 #
edge $-1 $579 -26.939411083520945 $412 -21.929106753329158 $402 $753 forward 7 unknown #
coedge $-1 $754 $408 $403 $574 forward $568 $-1 #
edge $-1 $413 21.929106753329158 $578 26.939411083520945 $573 $755 forward 7 unknown #
coedge $-1 $756 $405 $571 $752 reversed $577 $-1 #
coedge $-1 $405 $756 $754 $757 reversed $577 $-1 #
loop $-1 $-1 $405 $567 #
vertex $-1 $757 $758 #
vertex $-1 $406 $759 #
straight-curve $-1 -63.110978114418039 -51.373670001945996 0 0 0 1 I I #
edge $-1 $586 -13.766174343641055 $583 13.766174343641055 $570 $760 forward 7 unknown #
coedge $-1 $408 $754 $750 $761 forward $568 $-1 #
vertex $-1 $409 $762 #
straight-curve $-1 -34.772159641370401 -46.36336567175421 -13.766174343641055 1 0 0 I I #
coedge $-1 $571 $410 $751 $763 forward $249 $-1 #
vertex $-1 $763 $764 #
straight-curve $-1 -34.772159641370401 -46.36336567175421 13.766174343641055 -1 0 0 I I #
point $-1 -63.110978114418039 -46.36336567175421 13.766174343641055 #
point $-1 -63.110978114418039 -46.36336567175421 -13.766174343641055 #
face $-1 $-1 $600 $59 $-1 $765 reversed single #
loop $-1 $-1 $596 $415 #
plane-surface $-1 0 0 -13.766174343641055 0 0 1 1 0 0 forward_v I I I I #
coedge $-1 $766 $767 $423 $604 forward $416 $-1 #
coedge $-1 $418 $608 $598 $768 forward $257 $-1 #
edge $-1 $602 -41.205500809693163 $428 -28.338818473047624 $418 $769 forward 7 unknown #
coedge $-1 $770 $424 $419 $597 forward $591 $-1 #
edge $-1 $429 28.338818473047624 $601 41.205500809693163 $596 $771 forward 7 unknown #
coedge $-1 $772 $421 $594 $768 reversed $600 $-1 #
coedge $-1 $421 $772 $770 $773 reversed $600 $-1 #
loop $-1 $-1 $421 $590 #
vertex $-1 $773 $774 #
vertex $-1 $422 $775 #
straight-curve $-1 75.977660451063571 -46.36336567175421 0 0 0 1 I I #
edge $-1 $609 -13.766174343641055 $606 13.766174343641055 $593 $776 forward 7 unknown #
coedge $-1 $424 $770 $766 $777 forward $591 $-1 #
vertex $-1 $425 $778 #
straight-curve $-1 63.110978114418018 -24.434258918425051 -13.766174343641055 0 1 0 I I #
coedge $-1 $594 $426 $767 $779 forward $257 $-1 #
vertex $-1 $779 $780 #
straight-curve $-1 63.110978114418018 -24.434258918425051 13.766174343641055 0 -1 0 I I #
point $-1 63.110978114418018 -46.36336567175421 13.766174343641055 #
point $-1 63.110978114418018 -46.36336567175421 -13.766174343641055 #
loop $-1 $-1 $439 $431 #
plane-surface $-1 0 -51.373670001945996 0 0 1 0 0 0 1 forward_v I I I I #
coedge $-1 $616 $434 $436 $620 reversed $265 $-1 #
coedge $-1 $434 $615 $781 $782 reversed $265 $-1 #
coedge $-1 $442 $437 $434 $618 forward $432 $-1 #
edge $-1 $621 -42.724480523837535 $783 -37.301500801234297 $617 $784 forward 7 unknown #
coedge $-1 $436 $435 $624 $785 reversed $165 $-1 #
edge $-1 $786 2.5618607856530852e-014 $621 9.6978695634911105 $615 $787 forward 7 unknown #
vertex $-1 $438 $788 #
straight-curve $-1 -6.0671632010657817 -45.950690279342766 13.766174343641055 -1 0 0 I I #
coedge $-1 $781 $439 $442 $628 reversed $613 $-1 #
coedge $-1 $439 $781 $619 $785 forward $613 $-1 #
vertex $-1 $440 $789 #
straight-curve $-1 3.5527136788005009e-015 -51.373670001945996 45.349305648807153 0 0 1 I I #
straight-curve $-1 3.5527136788005009e-015 -51.37367000194601 5.7262760234680172 0 -0.55919289150049634 -0.82903758062907751 I I #
edge $-1 $783 -24.26865280426313 $443 3.5527136788005009e-015 $623 $790 forward 7 unknown #
point $-1 3.5527136788005009e-015 -51.373670001945996 13.766174343641055 #
point $-1 3.5527136788005009e-015 -45.950690279342759 13.766174343641055 #
edge $-1 $791 1 $791 0 $446 $-1 forward 7 unknown #
vertex $-1 $447 $792 #
ellipse-curve $-1 -19.414922243410508 -45.664581948591959 7.7243197359166658 0 -0.82903758062907751 0.55919289150049634 1.5 0 0 1 I I #
point $-1 -17.914922243410508 -48.662180140644374 9.7462251835545359 #
edge $-1 $793 1 $793 0 $450 $-1 forward 7 unknown #
vertex $-1 $451 $794 #
ellipse-curve $-1 -12.13432640213157 -45.664581948591959 7.7243197359166658 0 -0.82903758062907751 0.55919289150049634 1.5 0 0 1 I I #
point $-1 -10.63432640213157 -48.662180140644374 9.7462251835545359 #
edge $-1 $795 1 $795 0 $454 $-1 forward 7 unknown #
vertex $-1 $455 $796 #
ellipse-curve $-1 -4.8537305608526253 -45.664581948591959 7.7243197359166658 0 -0.82903758062907751 0.55919289150049634 1.5 0 0 1 I I #
point $-1 -3.3537305608526253 -48.662180140644374 9.7462251835545359 #
loop $-1 $-1 $467 $458 #
plane-surface $-1 63.110978114418018 -48.868517836850103 0 1 0 0 0 0 -1 forward_v I I I I #
coedge $-1 $652 $797 $463 $649 forward $459 $-1 #
coedge $-1 $461 $464 $797 $798 forward $294 $-1 #
coedge $-1 $654 $467 $461 $648 reversed $643 $-1 #
edge $-1 $799 -26.939411083520945 $470 -21.516431360917707 $461 $800 forward 7 unknown #
edge $-1 $650 31.583131305166098 $657 39.623029625339115 $645 $801 forward 7 unknown #
vertex $-1 $798 $802 #
straight-curve $-1 38.842325310154905 -88.675170803180293 13.766174343641055 0 -1 0 I I #
coedge $-1 $803 $645 $466 $653 forward $459 $-1 #
edge $-1 $657 13.353999454011671 $655 37.622652258274783 $652 $804 forward 7 unknown #
coedge $-1 $467 $647 $803 $805 reversed $643 $-1 #
vertex $-1 $805 $806 #
straight-curve $-1 63.110978114418018 -52.309321260531334 4.339115944146017 0 0.55919289150049634 0.82903758062907751 I I #
vertex $-1 $653 $807 #
straight-curve $-1 38.842325310154905 -51.37367000194601 5.7262760234680172 0 0.55919289150049634 0.82903758062907751 I I #
point $-1 63.110978114418032 -45.950690279342759 13.766174343641055 #
point $-1 38.842325310154905 -45.950690279342759 13.766174343641055 #
edge $-1 $808 1 $808 0 $473 $-1 forward 7 unknown #
vertex $-1 $474 $809 #
ellipse-curve $-1 43.69605587100753 -45.664581948591959 7.7243197359166658 0 -0.82903758062907751 0.55919289150049634 1.5 0 0 1 I I #
point $-1 45.19605587100753 -48.662180140644374 9.7462251835545359 #
edge $-1 $810 1 $810 0 $477 $-1 forward 7 unknown #
vertex $-1 $478 $811 #
ellipse-curve $-1 50.976651712286468 -45.664581948591959 7.7243197359166658 0 -0.82903758062907751 0.55919289150049634 1.5 0 0 1 I I #
point $-1 52.476651712286468 -48.662180140644374 9.7462251835545359 #
edge $-1 $812 1 $812 0 $481 $-1 forward 7 unknown #
vertex $-1 $482 $813 #
ellipse-curve $-1 58.257247553565406 -45.664581948591959 7.7243197359166658 0 -0.82903758062907751 0.55919289150049634 1.5 0 0 1 I I #
point $-1 59.757247553565406 -48.662180140644374 9.7462251835545359 #
plane-surface $-1 0 0 13.766174343641055 0 0 1 1 0 0 forward_v I I I I #
coedge $-1 $684 $683 $676 $814 forward $486 $-1 #
coedge $-1 $676 $488 $490 $680 reversed $323 $-1 #
coedge $-1 $488 $675 $674 $814 reversed $323 $-1 #
coedge $-1 $496 $491 $488 $678 forward $497 $-1 #
edge $-1 $681 -13.996689448457055 $815 -8.57370972585381 $677 $816 forward 7 unknown #
coedge $-1 $490 $489 $684 $817 reversed $203 $-1 #
edge $-1 $818 -102.74734000389196 $681 -93.049470440400867 $675 $819 forward 7 unknown #
vertex $-1 $492 $820 #
straight-curve $-1 -6.0671632010657817 45.950690279342744 13.766174343641055 1 0 0 I I #
coedge $-1 $674 $493 $496 $688 reversed $486 $-1 #
coedge $-1 $493 $674 $679 $817 forward $486 $-1 #
vertex $-1 $494 $821 #
straight-curve $-1 -24.26865280426313 51.373670001945996 87.940008735257067 0 0 1 I I #
straight-curve $-1 -24.26865280426313 -6.0819121488149648 90.907682196367844 0 0.55919289150049634 -0.82903758062907751 I I #
edge $-1 $815 -3.5527136788005009e-015 $498 24.26865280426313 $683 $822 forward 7 unknown #
point $-1 -24.26865280426313 51.373670001945996 13.766174343641055 #
point $-1 -24.26865280426313 45.950690279342751 13.766174343641055 #
edge $-1 $823 1 $823 0 $501 $-1 forward 7 unknown #
vertex $-1 $502 $824 #
ellipse-curve $-1 -19.414922243410508 45.664581948591973 7.7243197359166658 0 0.82903758062907751 0.55919289150049634 1.5 0 0 1 I I #
point $-1 -17.914922243410508 48.662180140644388 9.7462251835545359 #
edge $-1 $825 1 $825 0 $505 $-1 forward 7 unknown #
vertex $-1 $506 $826 #
ellipse-curve $-1 -12.13432640213157 45.664581948591973 7.7243197359166658 0 0.82903758062907751 0.55919289150049634 1.5 0 0 1 I I #
point $-1 -10.63432640213157 48.662180140644388 9.7462251835545359 #
edge $-1 $827 1 $827 0 $509 $-1 forward 7 unknown #
vertex $-1 $510 $828 #
ellipse-curve $-1 -4.8537305608526253 45.664581948591973 7.7243197359166658 0 0.82903758062907751 0.55919289150049634 1.5 0 0 1 I I #
point $-1 -3.3537305608526253 48.662180140644388 9.7462251835545359 #
loop $-1 $-1 $521 $513 #
plane-surface $-1 0 51.373670001945996 0 0 -1 0 0 0 -1 forward_v I I I I #
coedge $-1 $706 $516 $518 $710 reversed $352 $-1 #
coedge $-1 $516 $705 $829 $830 reversed $352 $-1 #
coedge $-1 $524 $519 $516 $708 forward $514 $-1 #
edge $-1 $711 -13.996689448457055 $831 -8.57370972585381 $707 $832 forward 7 unknown #
coedge $-1 $518 $517 $714 $833 reversed $222 $-1 #
edge $-1 $834 -102.74734000389196 $711 -93.049470440400867 $705 $835 forward 7 unknown #
vertex $-1 $520 $836 #
straight-curve $-1 25.488325856143234 45.950690279342744 13.766174343641055 1 0 0 I I #
coedge $-1 $829 $521 $524 $718 reversed $703 $-1 #
coedge $-1 $521 $829 $709 $833 forward $703 $-1 #
vertex $-1 $522 $837 #
straight-curve $-1 38.842325310154905 51.373670001945996 87.940008735257067 0 0 1 I I #
straight-curve $-1 38.842325310154905 -6.0819121488149648 90.907682196367844 0 0.55919289150049634 -0.82903758062907751 I I #
edge $-1 $831 -63.110978114418032 $525 -38.842325310154905 $713 $838 forward 7 unknown #
point $-1 38.842325310154905 51.373670001945996 13.766174343641055 #
point $-1 38.842325310154905 45.950690279342751 13.766174343641055 #
edge $-1 $839 1 $839 0 $528 $-1 forward 7 unknown #
vertex $-1 $529 $840 #
ellipse-curve $-1 43.69605587100753 45.664581948591973 7.7243197359166658 0 0.82903758062907751 0.55919289150049634 1.5 0 0 1 I I #
point $-1 45.19605587100753 48.662180140644388 9.7462251835545359 #
edge $-1 $841 1 $841 0 $532 $-1 forward 7 unknown #
vertex $-1 $533 $842 #
ellipse-curve $-1 50.976651712286468 45.664581948591973 7.7243197359166658 0 0.82903758062907751 0.55919289150049634 1.5 0 0 1 I I #
point $-1 52.476651712286468 48.662180140644388 9.7462251835545359 #
edge $-1 $843 1 $843 0 $536 $-1 forward 7 unknown #
vertex $-1 $537 $844 #
ellipse-curve $-1 58.257247553565406 45.664581948591973 7.7243197359166658 0 0.82903758062907751 0.55919289150049634 1.5 0 0 1 I I #
point $-1 59.757247553565406 48.662180140644388 9.7462251835545359 #
plane-surface $-1 75.977660451063571 0 0 -1 0 0 0 0 1 forward_v I I I I #
coedge $-1 $545 $543 $547 $738 reversed $381 $-1 #
edge $-1 $558 -13.766174343641055 $740 13.766174343641055 $557 $845 forward 7 unknown #
vertex $-1 $738 $846 #
straight-curve $-1 -75.977660451063571 -51.373670001945996 0 0 0 -1 I I #
edge $-1 $736 -51.373670001945996 $740 51.373670001945996 $734 $847 forward 7 unknown #
straight-curve $-1 0 -51.373670001945996 -13.766174343641055 -1 0 0 I I #
vertex $-1 $550 $848 #
straight-curve $-1 0 51.373670001945996 -13.766174343641055 1 0 0 I I #
point $-1 75.977660451063571 51.373670001945996 -13.766174343641055 #
point $-1 75.977660451063571 -51.373670001945996 -13.766174343641055 #
straight-curve $-1 -75.977660451063571 0 13.766174343641055 0 -1 0 I I #
point $-1 -75.977660451063571 51.373670001945996 13.766174343641055 #
point $-1 -75.977660451063571 -51.373670001945996 13.766174343641055 #
straight-curve $-1 75.977660451063571 -51.373670001945996 0 0 0 -1 I I #
straight-curve $-1 75.977660451063571 51.373670001945996 0 0 0 -1 I I #
plane-surface $-1 0 -51.373670001945996 0 0 1 0 0 0 1 forward_v I I I I #
coedge $-1 $849 $570 $582 $761 reversed $400 $-1 #
coedge $-1 $570 $849 $585 $763 reversed $400 $-1 #
edge $-1 $850 -75.977660451063571 $579 -63.110978114418039 $575 $851 forward 7 unknown #
straight-curve $-1 -63.110978114418039 -24.434258918425051 13.766174343641055 0 1 0 I I #
coedge $-1 $582 $573 $576 $757 forward $568 $-1 #
straight-curve $-1 -63.110978114418039 -24.434258918425051 -13.766174343641055 0 -1 0 I I #
coedge $-1 $576 $575 $849 $852 forward $577 $-1 #
edge $-1 $578 63.110978114418039 $853 75.977660451063571 $576 $854 forward 7 unknown #
point $-1 -63.110978114418039 -51.373670001945996 -13.766174343641055 #
point $-1 -63.110978114418039 -51.373670001945996 13.766174343641055 #
straight-curve $-1 -75.977660451063571 -46.36336567175421 0 0 0 -1 I I #
edge $-1 $853 -51.373670001945996 $583 -46.36336567175421 $750 $855 forward 7 unknown #
point $-1 -75.977660451063571 -46.36336567175421 -13.766174343641055 #
edge $-1 $586 46.36336567175421 $850 51.373670001945996 $751 $856 forward 7 unknown #
point $-1 -75.977660451063571 -46.36336567175421 13.766174343641055 #
plane-surface $-1 75.977660451063571 0 0 -1 0 0 0 0 1 forward_v I I I I #
coedge $-1 $857 $593 $605 $777 reversed $416 $-1 #
coedge $-1 $593 $857 $608 $779 reversed $416 $-1 #
edge $-1 $858 -51.373670001945996 $602 -46.36336567175421 $598 $859 forward 7 unknown #
straight-curve $-1 34.772159641370394 -46.36336567175421 13.766174343641055 -1 0 0 I I #
coedge $-1 $605 $596 $599 $773 forward $591 $-1 #
straight-curve $-1 34.772159641370394 -46.36336567175421 -13.766174343641055 1 0 0 I I #
coedge $-1 $599 $598 $857 $860 forward $600 $-1 #
edge $-1 $601 46.36336567175421 $861 51.373670001945996 $599 $862 forward 7 unknown #
point $-1 75.977660451063556 -46.36336567175421 -13.766174343641055 #
point $-1 75.977660451063556 -46.36336567175421 13.766174343641055 #
straight-curve $-1 63.110978114418018 -51.373670001945996 0 0 0 -1 I I #
edge $-1 $861 -75.977660451063571 $606 -63.110978114418018 $766 $863 forward 7 unknown #
point $-1 63.110978114418018 -51.373670001945996 -13.766174343641055 #
edge $-1 $609 63.110978114418018 $858 75.977660451063571 $767 $864 forward 7 unknown #
point $-1 63.110978114418018 -51.373670001945996 13.766174343641055 #
coedge $-1 $624 $623 $616 $782 forward $613 $-1 #
edge $-1 $783 31.583131305166098 $786 39.623029625339115 $781 $865 forward 7 unknown #
vertex $-1 $628 $866 #
straight-curve $-1 -24.26865280426313 -88.675170803180293 13.766174343641055 0 -1 0 I I #
edge $-1 $786 -18.201489603197349 $625 6.0671632010657852 $624 $867 forward 7 unknown #
vertex $-1 $785 $868 #
straight-curve $-1 -24.26865280426313 -51.37367000194601 5.7262760234680172 0 0.55919289150049634 0.82903758062907751 I I #
point $-1 -24.26865280426313 -45.950690279342759 13.766174343641055 #
point $-1 3.5527136788005009e-015 -51.373670001945996 5.7262760234680385 #
straight-curve $-1 0 -51.373670001945996 13.766174343641055 1 0 0 I I #
vertex $-1 $631 $869 #
point $-1 -17.914922243410508 -45.664581948591959 7.7243197359166658 #
vertex $-1 $635 $870 #
point $-1 -10.63432640213157 -45.664581948591959 7.7243197359166658 #
vertex $-1 $639 $871 #
point $-1 -3.3537305608526253 -45.664581948591959 7.7243197359166658 #
coedge $-1 $645 $803 $646 $798 reversed $459 $-1 #
edge $-1 $650 38.842325310154905 $799 63.110978114418018 $797 $872 forward 7 unknown #
vertex $-1 $805 $873 #
straight-curve $-1 63.110978114418018 -24.434258918425051 13.766174343641055 0 1 0 I I #
straight-curve $-1 38.842325310154905 -51.373670001945996 45.349305648807153 0 0 -1 I I #
point $-1 38.842325310154905 -51.373670001945996 13.766174343641055 #
coedge $-1 $797 $652 $654 $805 forward $459 $-1 #
straight-curve $-1 25.488325856143234 -51.373670001945996 5.7262760234680421 1 0 0 I I #
edge $-1 $655 5.7262760234680385 $799 13.766174343641055 $803 $874 forward 7 unknown #
point $-1 63.110978114418018 -51.373670001945996 5.7262760234680385 #
point $-1 38.842325310154905 -51.373670001945996 5.7262760234680385 #
vertex $-1 $661 $875 #
point $-1 45.19605587100753 -45.664581948591959 7.7243197359166658 #
vertex $-1 $665 $876 #
point $-1 52.476651712286468 -45.664581948591959 7.7243197359166658 #
vertex $-1 $669 $877 #
point $-1 59.757247553565406 -45.664581948591959 7.7243197359166658 #
edge $-1 $815 74.173834391616012 $818 82.213732711789035 $674 $878 forward 7 unknown #
vertex $-1 $688 $879 #
straight-curve $-1 3.5527136788005009e-015 59.947379727799806 13.766174343641055 0 1 0 I I #
edge $-1 $818 -6.0671632010657852 $685 18.201489603197349 $684 $880 forward 7 unknown #
vertex $-1 $817 $881 #
straight-curve $-1 3.5527136788005009e-015 -6.0819121488149648 90.907682196367844 0 -0.55919289150049634 0.82903758062907751 I I #
point $-1 3.5527136788005009e-015 45.950690279342751 13.766174343641055 #
point $-1 -24.26865280426313 51.373670001945996 5.7262760234680314 #
straight-curve $-1 0 51.373670001945996 13.766174343641055 -1 0 0 I I #
vertex $-1 $691 $882 #
point $-1 -17.914922243410508 45.664581948591973 7.7243197359166658 #
vertex $-1 $695 $883 #
point $-1 -10.63432640213157 45.664581948591973 7.7243197359166658 #
vertex $-1 $699 $884 #
point $-1 -3.3537305608526253 45.664581948591973 7.7243197359166658 #
coedge $-1 $714 $713 $706 $830 forward $703 $-1 #
edge $-1 $831 74.173834391616012 $834 82.213732711789035 $829 $885 forward 7 unknown #
vertex $-1 $718 $886 #
straight-curve $-1 63.110978114418032 59.947379727799806 13.766174343641055 0 1 0 I I #
edge $-1 $834 -37.622652258274798 $715 -13.353999454011671 $714 $887 forward 7 unknown #
vertex $-1 $833 $888 #
straight-curve $-1 63.110978114418032 -6.0819121488149648 90.907682196367844 0 -0.55919289150049634 0.82903758062907751 I I #
point $-1 63.110978114418032 45.950690279342751 13.766174343641055 #
point $-1 38.842325310154905 51.373670001945996 5.7262760234680314 #
straight-curve $-1 0 51.373670001945996 13.766174343641055 -1 0 0 I I #
vertex $-1 $721 $889 #
point $-1 45.19605587100753 45.664581948591973 7.7243197359166658 #
vertex $-1 $725 $890 #
point $-1 52.476651712286468 45.664581948591973 7.7243197359166658 #
vertex $-1 $729 $891 #
point $-1 59.757247553565406 45.664581948591973 7.7243197359166658 #
straight-curve $-1 -75.977660451063571 51.373670001945996 0 0 0 -1 I I #
point $-1 -75.977660451063571 -51.373670001945996 -13.766174343641055 #
straight-curve $-1 -75.977660451063571 0 -13.766174343641055 0 1 0 I I #
point $-1 -75.977660451063571 51.373670001945996 -13.766174343641055 #
coedge $-1 $751 $750 $756 $852 reversed $400 $-1 #
vertex $-1 $763 $892 #
straight-curve $-1 0 -51.373670001945996 13.766174343641055 1 0 0 I I #
edge $-1 $850 -13.766174343641055 $853 13.766174343641055 $849 $893 forward 7 unknown #
vertex $-1 $761 $894 #
straight-curve $-1 0 -51.373670001945996 -13.766174343641055 -1 0 0 I I #
straight-curve $-1 -75.977660451063571 0 -13.766174343641055 0 1 0 I I #
straight-curve $-1 -75.977660451063571 0 13.766174343641055 0 -1 0 I I #
coedge $-1 $767 $766 $772 $860 reversed $416 $-1 #
vertex $-1 $768 $895 #
straight-curve $-1 75.977660451063571 0 13.766174343641055 0 1 0 I I #
edge $-1 $858 -13.766174343641055 $861 13.766174343641055 $772 $896 forward 7 unknown #
vertex $-1 $860 $897 #
straight-curve $-1 75.977660451063571 0 -13.766174343641055 0 -1 0 I I #
straight-curve $-1 0 -51.373670001945996 -13.766174343641055 -1 0 0 I I #
straight-curve $-1 0 -51.373670001945996 13.766174343641055 1 0 0 I I #
straight-curve $-1 -24.26865280426313 -51.373670001945996 45.349305648807153 0 0 -1 I I #
point $-1 -24.26865280426313 -51.373670001945996 13.766174343641055 #
straight-curve $-1 -6.0671632010657817 -51.373670001945996 5.7262760234680421 1 0 0 I I #
point $-1 -24.26865280426313 -51.373670001945996 5.7262760234680385 #
point $-1 -19.414922243410508 -44.421025577648336 6.8855303986659209 #
point $-1 -12.13432640213157 -44.421025577648336 6.8855303986659209 #
point $-1 -4.8537305608526253 -44.421025577648336 6.8855303986659209 #
straight-curve $-1 0 -51.373670001945996 13.766174343641055 1 0 0 I I #
point $-1 63.110978114418018 -51.373670001945996 13.766174343641055 #
straight-curve $-1 63.110978114418018 -51.373670001945996 0 0 0 1 I I #
point $-1 43.69605587100753 -44.421025577648336 6.8855303986659209 #
point $-1 50.976651712286468 -44.421025577648336 6.8855303986659209 #
point $-1 58.257247553565406 -44.421025577648336 6.8855303986659209 #
straight-curve $-1 3.5527136788005009e-015 51.373670001945996 87.940008735257067 0 0 -1 I I #
point $-1 3.5527136788005009e-015 51.373670001945996 13.766174343641055 #
straight-curve $-1 -6.0671632010657817 51.373670001945996 5.7262760234680243 -1 0 0 I I #
point $-1 3.5527136788005009e-015 51.373670001945996 5.7262760234680314 #
point $-1 -19.414922243410508 44.421025577648351 6.8855303986659209 #
point $-1 -12.13432640213157 44.421025577648351 6.8855303986659209 #
point $-1 -4.8537305608526253 44.421025577648351 6.8855303986659209 #
straight-curve $-1 63.110978114418032 51.373670001945996 87.940008735257067 0 0 -1 I I #
point $-1 63.110978114418032 51.373670001945996 13.766174343641055 #
straight-curve $-1 25.488325856143234 51.373670001945996 5.7262760234680243 -1 0 0 I I #
point $-1 63.110978114418032 51.373670001945996 5.7262760234680314 #
point $-1 43.69605587100753 44.421025577648351 6.8855303986659209 #
point $-1 50.976651712286468 44.421025577648351 6.8855303986659209 #
point $-1 58.257247553565406 44.421025577648351 6.8855303986659209 #
point $-1 -75.977660451063571 -51.373670001945996 13.766174343641055 #
straight-curve $-1 -75.977660451063571 -51.373670001945996 0 0 0 -1 I I #
point $-1 -75.977660451063571 -51.373670001945996 -13.766174343641055 #
point $-1 75.977660451063571 -51.373670001945996 13.766174343641055 #
straight-curve $-1 75.977660451063571 -51.373670001945996 0 0 0 -1 I I #
point $-1 75.977660451063571 -51.373670001945996 -13.766174343641055 #
End-of-ACIS-data 